tick,type,time,meta,track,numerator,denominator,clocks_per_click,notated_32nd_notes_per_beat,key,tempo,control,value,channel,program,port,note,velocity
0,control_change,0,0,0,,,,,,,121,0,0,,,,
0,time_signature,0,1,0,3,8,24,8,,,,,,,,,
0,set_tempo,0,1,0,,,,,,500000,,,,,,,
0,program_change,0,0,0,,,,,,,,,0,0,,,
0,track_name,0,1,0,,,,,,,,,,,,,
0,note_on,0,0,1,,,,,,,,,0,,,62,80
0,note_on,0,0,0,,,,,,,,,0,,,74,80
0,midi_port,0,1,1,,,,,,,,,,,0,,
0,midi_port,0,1,0,,,,,,,,,,,0,,
0,key_signature,0,1,1,,,,,C,,,,,,,,
0,key_signature,0,1,0,,,,,D,,,,,,,,
0,track_name,0,1,1,,,,,,,,,,,,,
0,control_change,0,0,0,,,,,,,100,127,0,,,,
0,control_change,0,0,0,,,,,,,6,12,0,,,,
0,control_change,0,0,0,,,,,,,100,0,0,,,,
0,control_change,0,0,0,,,,,,,101,127,0,,,,
0,control_change,0,0,0,,,,,,,101,0,0,,,,
0,control_change,0,0,0,,,,,,,10,64,0,,,,
0,control_change,0,0,0,,,,,,,91,0,0,,,,
0,control_change,0,0,0,,,,,,,93,0,0,,,,
0,control_change,0,0,0,,,,,,,7,99,0,,,,
227,note_on,227,0,0,,,,,,,,,0,,,74,0
227,note_on,227,0,1,,,,,,,,,0,,,62,0
240,note_on,13,0,1,,,,,,,,,0,,,61,80
240,note_on,13,0,0,,,,,,,,,0,,,81,80
353,note_on,113,0,0,,,,,,,,,0,,,81,0
360,note_on,7,0,0,,,,,,,,,0,,,79,80
473,note_on,113,0,0,,,,,,,,,0,,,79,0
480,note_on,7,0,0,,,,,,,,,0,,,78,80
593,note_on,113,0,0,,,,,,,,,0,,,78,0
600,note_on,7,0,0,,,,,,,,,0,,,76,80
695,note_on,455,0,1,,,,,,,,,0,,,61,0
713,note_on,113,0,0,,,,,,,,,0,,,76,0
720,note_on,25,0,1,,,,,,,,,0,,,59,80
720,note_on,7,0,0,,,,,,,,,0,,,74,80
947,note_on,227,0,1,,,,,,,,,0,,,59,0
947,note_on,227,0,0,,,,,,,,,0,,,74,0
960,note_on,13,0,1,,,,,,,,,0,,,54,80
960,note_on,13,0,0,,,,,,,,,0,,,69,80
1187,note_on,227,0,0,,,,,,,,,0,,,69,0
1187,note_on,227,0,1,,,,,,,,,0,,,54,0
1200,note_on,13,0,1,,,,,,,,,0,,,59,80
1200,note_on,13,0,0,,,,,,,,,0,,,74,80
1655,note_on,455,0,0,,,,,,,,,0,,,74,0
1655,note_on,455,0,1,,,,,,,,,0,,,59,0
1680,note_on,25,0,1,,,,,,,,,0,,,57,80
1680,note_on,25,0,0,,,,,,,,,0,,,76,80
1907,note_on,227,0,0,,,,,,,,,0,,,76,0
1920,note_on,13,0,0,,,,,,,,,0,,,69,80
2135,note_on,455,0,1,,,,,,,,,0,,,57,0
2147,note_on,227,0,0,,,,,,,,,0,,,69,0
2160,note_on,25,0,1,,,,,,,,,0,,,62,80
2160,note_on,13,0,0,,,,,,,,,0,,,78,80
2387,note_on,227,0,0,,,,,,,,,0,,,78,0
2400,note_on,13,0,0,,,,,,,,,0,,,76,80
2513,note_on,113,0,0,,,,,,,,,0,,,76,0
2520,note_on,7,0,0,,,,,,,,,0,,,78,80
2615,note_on,455,0,1,,,,,,,,,0,,,62,0
2633,note_on,113,0,0,,,,,,,,,0,,,78,0
2640,note_on,7,0,0,,,,,,,,,0,,,74,80
2867,note_on,227,0,0,,,,,,,,,0,,,74,0
2880,note_on,265,0,1,,,,,,,,,0,,,62,80
2880,note_on,13,0,0,,,,,,,,,0,,,74,80
3107,note_on,227,0,1,,,,,,,,,0,,,62,0
3107,note_on,227,0,0,,,,,,,,,0,,,74,0
3120,note_on,13,0,1,,,,,,,,,0,,,61,80
3120,note_on,13,0,0,,,,,,,,,0,,,81,80
3233,note_on,113,0,0,,,,,,,,,0,,,81,0
3240,note_on,7,0,0,,,,,,,,,0,,,79,80
3353,note_on,113,0,0,,,,,,,,,0,,,79,0
3360,note_on,7,0,0,,,,,,,,,0,,,78,80
3473,note_on,113,0,0,,,,,,,,,0,,,78,0
3480,note_on,7,0,0,,,,,,,,,0,,,76,80
3575,note_on,455,0,1,,,,,,,,,0,,,61,0
3593,note_on,113,0,0,,,,,,,,,0,,,76,0
3600,note_on,25,0,1,,,,,,,,,0,,,59,80
3600,note_on,7,0,0,,,,,,,,,0,,,74,80
3827,note_on,227,0,1,,,,,,,,,0,,,59,0
3827,note_on,227,0,0,,,,,,,,,0,,,74,0
3840,note_on,13,0,1,,,,,,,,,0,,,54,80
3840,note_on,13,0,0,,,,,,,,,0,,,69,80
4067,note_on,227,0,0,,,,,,,,,0,,,69,0
4067,note_on,227,0,1,,,,,,,,,0,,,54,0
4080,note_on,13,0,1,,,,,,,,,0,,,59,80
4080,note_on,13,0,0,,,,,,,,,0,,,74,80
4535,note_on,455,0,1,,,,,,,,,0,,,59,0
4535,note_on,455,0,0,,,,,,,,,0,,,74,0
4560,note_on,25,0,0,,,,,,,,,0,,,76,80
4560,note_on,25,0,1,,,,,,,,,0,,,57,80
4787,note_on,227,0,0,,,,,,,,,0,,,76,0
4800,note_on,13,0,0,,,,,,,,,0,,,69,80
5015,note_on,455,0,1,,,,,,,,,0,,,57,0
5027,note_on,227,0,0,,,,,,,,,0,,,69,0
5040,note_on,13,0,0,,,,,,,,,0,,,78,80
5040,note_on,25,0,1,,,,,,,,,0,,,62,80
5267,note_on,227,0,0,,,,,,,,,0,,,78,0
5280,note_on,13,0,0,,,,,,,,,0,,,76,80
5393,note_on,113,0,0,,,,,,,,,0,,,76,0
5400,note_on,7,0,0,,,,,,,,,0,,,78,80
5495,note_on,455,0,1,,,,,,,,,0,,,62,0
5513,note_on,113,0,0,,,,,,,,,0,,,78,0
5520,note_on,7,0,0,,,,,,,,,0,,,74,80
5747,note_on,227,0,0,,,,,,,,,0,,,74,0
5760,note_on,13,0,0,,,,,,,,,0,,,69,80
5760,note_on,265,0,1,,,,,,,,,0,,,54,80
5987,note_on,227,0,0,,,,,,,,,0,,,69,0
6000,note_on,13,0,0,,,,,,,,,0,,,74,80
6215,note_on,455,0,1,,,,,,,,,0,,,54,0
6227,note_on,227,0,0,,,,,,,,,0,,,74,0
6240,note_on,13,0,0,,,,,,,,,0,,,73,80
6467,note_on,227,0,0,,,,,,,,,0,,,73,0
6480,note_on,265,0,1,,,,,,,,,0,,,55,80
6480,note_on,13,0,0,,,,,,,,,0,,,71,80
6707,note_on,227,0,0,,,,,,,,,0,,,71,0
6707,note_on,227,0,1,,,,,,,,,0,,,55,0
6720,note_on,13,0,1,,,,,,,,,0,,,54,80
6720,note_on,13,0,0,,,,,,,,,0,,,69,80
6947,note_on,227,0,1,,,,,,,,,0,,,54,0
7175,note_on,455,0,0,,,,,,,,,0,,,69,0
7200,note_on,25,0,0,,,,,,,,,0,,,74,80
7200,note_on,253,0,1,,,,,,,,,0,,,54,80
7427,note_on,227,0,0,,,,,,,,,0,,,74,0
7427,note_on,227,0,1,,,,,,,,,0,,,54,0
7440,note_on,13,0,1,,,,,,,,,0,,,52,80
7440,note_on,13,0,0,,,,,,,,,0,,,79,80
7667,note_on,227,0,0,,,,,,,,,0,,,79,0
7667,note_on,227,0,1,,,,,,,,,0,,,52,0
7680,note_on,13,0,1,,,,,,,,,0,,,50,80
7680,note_on,13,0,0,,,,,,,,,0,,,78,80
7907,note_on,227,0,1,,,,,,,,,0,,,50,0
7907,note_on,227,0,0,,,,,,,,,0,,,78,0
7920,note_on,13,0,1,,,,,,,,,0,,,57,80
7920,note_on,13,0,0,,,,,,,,,0,,,76,80
8603,note_on,683,0,0,,,,,,,,,0,,,76,0
8603,note_on,683,0,1,,,,,,,,,0,,,57,0
8640,note_on,37,0,1,,,,,,,,,0,,,54,80
8640,note_on,37,0,0,,,,,,,,,0,,,69,80
8867,note_on,227,0,0,,,,,,,,,0,,,69,0
8880,note_on,13,0,0,,,,,,,,,0,,,74,80
9095,note_on,455,0,1,,,,,,,,,0,,,54,0
9107,note_on,227,0,0,,,,,,,,,0,,,74,0
9120,note_on,13,0,0,,,,,,,,,0,,,73,80
9347,note_on,227,0,0,,,,,,,,,0,,,73,0
9360,note_on,13,0,0,,,,,,,,,0,,,71,80
9360,note_on,265,0,1,,,,,,,,,0,,,55,80
9587,note_on,227,0,1,,,,,,,,,0,,,55,0
9587,note_on,227,0,0,,,,,,,,,0,,,71,0
9600,note_on,13,0,1,,,,,,,,,0,,,54,80
9600,note_on,13,0,0,,,,,,,,,0,,,69,80
9827,note_on,227,0,1,,,,,,,,,0,,,54,0
10055,note_on,455,0,0,,,,,,,,,0,,,69,0
10080,note_on,25,0,0,,,,,,,,,0,,,74,80
10080,note_on,253,0,1,,,,,,,,,0,,,54,80
10307,note_on,227,0,1,,,,,,,,,0,,,54,0
10307,note_on,227,0,0,,,,,,,,,0,,,74,0
10320,note_on,13,0,1,,,,,,,,,0,,,52,80
10320,note_on,13,0,0,,,,,,,,,0,,,79,80
10547,note_on,227,0,0,,,,,,,,,0,,,79,0
10547,note_on,227,0,1,,,,,,,,,0,,,52,0
10560,note_on,13,0,0,,,,,,,,,0,,,78,80
10560,note_on,13,0,1,,,,,,,,,0,,,50,80
10787,note_on,227,0,1,,,,,,,,,0,,,50,0
10787,note_on,227,0,0,,,,,,,,,0,,,78,0
10800,note_on,13,0,0,,,,,,,,,0,,,76,80
10800,note_on,13,0,1,,,,,,,,,0,,,57,80
11483,note_on,683,0,1,,,,,,,,,0,,,57,0
11483,note_on,683,0,0,,,,,,,,,0,,,76,0
11520,note_on,37,0,0,,,,,,,,,0,,,74,80
11520,note_on,37,0,1,,,,,,,,,0,,,54,80
11747,note_on,227,0,0,,,,,,,,,0,,,74,0
11760,note_on,13,0,0,,,,,,,,,0,,,74,80
11873,note_on,113,0,0,,,,,,,,,0,,,74,0
11880,note_on,7,0,0,,,,,,,,,0,,,76,80
11975,note_on,455,0,1,,,,,,,,,0,,,54,0
11993,note_on,113,0,0,,,,,,,,,0,,,76,0
12000,note_on,7,0,0,,,,,,,,,0,,,78,80
12227,note_on,227,0,0,,,,,,,,,0,,,78,0
12240,note_on,265,0,1,,,,,,,,,0,,,55,80
12240,note_on,13,0,0,,,,,,,,,0,,,76,80
12467,note_on,227,0,0,,,,,,,,,0,,,76,0
12480,note_on,13,0,0,,,,,,,,,0,,,76,80
12593,note_on,113,0,0,,,,,,,,,0,,,76,0
12600,note_on,7,0,0,,,,,,,,,0,,,78,80
12695,note_on,455,0,1,,,,,,,,,0,,,55,0
12713,note_on,113,0,0,,,,,,,,,0,,,78,0
12720,note_on,7,0,0,,,,,,,,,0,,,79,80
12947,note_on,227,0,0,,,,,,,,,0,,,79,0
12960,note_on,265,0,1,,,,,,,,,0,,,57,80
12960,note_on,13,0,0,,,,,,,,,0,,,78,80
13187,note_on,227,0,0,,,,,,,,,0,,,78,0
13200,note_on,13,0,0,,,,,,,,,0,,,78,80
13313,note_on,113,0,0,,,,,,,,,0,,,78,0
13320,note_on,7,0,0,,,,,,,,,0,,,79,80
13415,note_on,455,0,1,,,,,,,,,0,,,57,0
13433,note_on,113,0,0,,,,,,,,,0,,,79,0
13440,note_on,7,0,0,,,,,,,,,0,,,81,80
13667,note_on,227,0,0,,,,,,,,,0,,,81,0
13680,note_on,265,0,1,,,,,,,,,0,,,59,80
13680,note_on,13,0,0,,,,,,,,,0,,,79,80
13793,note_on,113,0,0,,,,,,,,,0,,,79,0
13800,note_on,7,0,0,,,,,,,,,0,,,78,80
13913,note_on,113,0,0,,,,,,,,,0,,,78,0
13920,note_on,7,0,0,,,,,,,,,0,,,79,80
14135,note_on,455,0,1,,,,,,,,,0,,,59,0
14375,note_on,455,0,0,,,,,,,,,0,,,79,0
14400,note_on,25,0,0,,,,,,,,,0,,,81,80
14400,note_on,265,0,1,,,,,,,,,0,,,54,80
14627,note_on,227,0,0,,,,,,,,,0,,,81,0
14640,note_on,13,0,0,,,,,,,,,0,,,74,80
14855,note_on,455,0,1,,,,,,,,,0,,,54,0
15095,note_on,455,0,0,,,,,,,,,0,,,74,0
15120,note_on,25,0,0,,,,,,,,,0,,,71,80
15120,note_on,265,0,1,,,,,,,,,0,,,55,80
15347,note_on,227,0,0,,,,,,,,,0,,,71,0
15347,note_on,227,0,1,,,,,,,,,0,,,55,0
15360,note_on,13,0,0,,,,,,,,,0,,,79,80
15360,note_on,13,0,1,,,,,,,,,0,,,52,80
15587,note_on,227,0,1,,,,,,,,,0,,,52,0
15587,note_on,227,0,0,,,,,,,,,0,,,79,0
15600,note_on,13,0,1,,,,,,,,,0,,,50,80
15600,note_on,13,0,0,,,,,,,,,0,,,78,80
15827,note_on,227,0,1,,,,,,,,,0,,,50,0
15827,note_on,227,0,0,,,,,,,,,0,,,78,0
15840,note_on,13,0,1,,,,,,,,,0,,,57,80
15840,note_on,13,0,0,,,,,,,,,0,,,76,80
16067,note_on,227,0,0,,,,,,,,,0,,,76,0
16080,note_on,13,0,0,,,,,,,,,0,,,74,80
16295,note_on,455,0,1,,,,,,,,,0,,,57,0
16307,note_on,227,0,0,,,,,,,,,0,,,74,0
16320,note_on,13,0,0,,,,,,,,,0,,,73,80
16320,note_on,25,0,1,,,,,,,,,0,,,45,80
16547,note_on,227,0,0,,,,,,,,,0,,,73,0
16547,note_on,227,0,1,,,,,,,,,0,,,45,0
16560,note_on,13,0,0,,,,,,,,,0,,,74,80
16560,note_on,13,0,1,,,,,,,,,0,,,50,80
17243,note_on,683,0,0,,,,,,,,,0,,,74,0
17243,note_on,683,0,1,,,,,,,,,0,,,50,0
17244,end_of_track,1,1,1,,,,,,,,,,,,,
17244,end_of_track,1,1,0,,,,,,,,,,,,,
