tick,type,time,meta,track,numerator,denominator,clocks_per_click,notated_32nd_notes_per_beat,key,tempo,control,value,channel,program,port,note,velocity
0,control_change,0,0,0,,,,,,,121,0,0,,,,
0,time_signature,0,1,0,3,8,24,8,,,,,,,,,
0,set_tempo,0,1,0,,,,,,500000,,,,,,,
0,program_change,0,0,0,,,,,,,,,0,0,,,
0,track_name,0,1,0,,,,,,,,,,,,,
0,note_on,0,0,1,,,,,,,,,0,,,57,80
0,note_on,0,0,0,,,,,,,,,0,,,73,80
0,midi_port,0,1,1,,,,,,,,,,,0,,
0,midi_port,0,1,0,,,,,,,,,,,0,,
0,key_signature,0,1,1,,,,,A,,,,,,,,
0,key_signature,0,1,0,,,,,A,,,,,,,,
0,track_name,0,1,1,,,,,,,,,,,,,
0,control_change,0,0,0,,,,,,,100,0,0,,,,
0,control_change,0,0,0,,,,,,,93,0,0,,,,
0,control_change,0,0,0,,,,,,,101,0,0,,,,
0,control_change,0,0,0,,,,,,,91,0,0,,,,
0,control_change,0,0,0,,,,,,,10,64,0,,,,
0,control_change,0,0,0,,,,,,,7,99,0,,,,
0,control_change,0,0,0,,,,,,,6,12,0,,,,
0,control_change,0,0,0,,,,,,,100,127,0,,,,
0,control_change,0,0,0,,,,,,,101,127,0,,,,
227,note_on,227,0,0,,,,,,,,,0,,,73,0
227,note_on,227,0,1,,,,,,,,,0,,,57,0
240,note_on,13,0,0,,,,,,,,,0,,,71,80
240,note_on,13,0,1,,,,,,,,,0,,,52,80
353,note_on,113,0,0,,,,,,,,,0,,,71,0
360,note_on,7,0,0,,,,,,,,,0,,,69,80
467,note_on,227,0,1,,,,,,,,,0,,,52,0
473,note_on,113,0,0,,,,,,,,,0,,,69,0
480,note_on,7,0,0,,,,,,,,,0,,,71,80
593,note_on,113,0,0,,,,,,,,,0,,,71,0
600,note_on,7,0,0,,,,,,,,,0,,,68,80
713,note_on,113,0,0,,,,,,,,,0,,,68,0
720,note_on,7,0,0,,,,,,,,,0,,,69,80
720,note_on,253,0,1,,,,,,,,,0,,,54,80
947,note_on,227,0,1,,,,,,,,,0,,,54,0
947,note_on,227,0,0,,,,,,,,,0,,,69,0
960,note_on,13,0,1,,,,,,,,,0,,,49,80
960,note_on,13,0,0,,,,,,,,,0,,,76,80
1187,note_on,227,0,1,,,,,,,,,0,,,49,0
1415,note_on,455,0,0,,,,,,,,,0,,,76,0
1440,note_on,25,0,0,,,,,,,,,0,,,74,80
1440,note_on,253,0,1,,,,,,,,,0,,,47,80
1667,note_on,227,0,0,,,,,,,,,0,,,74,0
1667,note_on,227,0,1,,,,,,,,,0,,,47,0
1680,note_on,13,0,1,,,,,,,,,0,,,52,80
1680,note_on,13,0,0,,,,,,,,,0,,,73,80
1793,note_on,113,0,0,,,,,,,,,0,,,73,0
1800,note_on,7,0,0,,,,,,,,,0,,,74,80
1907,note_on,227,0,1,,,,,,,,,0,,,52,0
1913,note_on,113,0,0,,,,,,,,,0,,,74,0
1920,note_on,7,0,0,,,,,,,,,0,,,71,80
1920,note_on,13,0,1,,,,,,,,,0,,,40,80
2033,note_on,113,0,0,,,,,,,,,0,,,71,0
2040,note_on,7,0,0,,,,,,,,,0,,,74,80
2147,note_on,227,0,1,,,,,,,,,0,,,40,0
2153,note_on,113,0,0,,,,,,,,,0,,,74,0
2160,note_on,7,0,0,,,,,,,,,0,,,73,80
2160,note_on,13,0,1,,,,,,,,,0,,,45,80
2215,note_on,55,0,0,,,,,,,,,0,,,73,0
2220,note_on,5,0,0,,,,,,,,,0,,,74,80
2275,note_on,55,0,0,,,,,,,,,0,,,74,0
2280,note_on,5,0,0,,,,,,,,,0,,,73,80
2335,note_on,55,0,0,,,,,,,,,0,,,73,0
2340,note_on,5,0,0,,,,,,,,,0,,,74,80
2387,note_on,227,0,1,,,,,,,,,0,,,45,0
2395,note_on,55,0,0,,,,,,,,,0,,,74,0
2400,note_on,13,0,1,,,,,,,,,0,,,57,80
2400,note_on,5,0,0,,,,,,,,,0,,,73,80
2455,note_on,55,0,0,,,,,,,,,0,,,73,0
2460,note_on,5,0,0,,,,,,,,,0,,,74,80
2515,note_on,55,0,0,,,,,,,,,0,,,74,0
2520,note_on,5,0,0,,,,,,,,,0,,,73,80
2575,note_on,55,0,0,,,,,,,,,0,,,73,0
2580,note_on,5,0,0,,,,,,,,,0,,,74,80
2627,note_on,227,0,1,,,,,,,,,0,,,57,0
2635,note_on,55,0,0,,,,,,,,,0,,,74,0
2640,note_on,13,0,1,,,,,,,,,0,,,56,80
2640,note_on,5,0,0,,,,,,,,,0,,,71,80
2867,note_on,227,0,1,,,,,,,,,0,,,56,0
2867,note_on,227,0,0,,,,,,,,,0,,,71,0
2880,note_on,13,0,1,,,,,,,,,0,,,54,80
2880,note_on,13,0,0,,,,,,,,,0,,,81,80
3107,note_on,227,0,0,,,,,,,,,0,,,81,0
3107,note_on,227,0,1,,,,,,,,,0,,,54,0
3120,note_on,13,0,1,,,,,,,,,0,,,52,80
3120,note_on,13,0,0,,,,,,,,,0,,,80,80
3347,note_on,227,0,1,,,,,,,,,0,,,52,0
3347,note_on,227,0,0,,,,,,,,,0,,,80,0
3360,note_on,13,0,0,,,,,,,,,0,,,78,80
3360,note_on,13,0,1,,,,,,,,,0,,,50,80
3587,note_on,227,0,0,,,,,,,,,0,,,78,0
3587,note_on,227,0,1,,,,,,,,,0,,,50,0
3600,note_on,13,0,1,,,,,,,,,0,,,49,80
3600,note_on,13,0,0,,,,,,,,,0,,,76,80
3827,note_on,227,0,1,,,,,,,,,0,,,49,0
3827,note_on,227,0,0,,,,,,,,,0,,,76,0
3840,note_on,13,0,1,,,,,,,,,0,,,57,80
3840,note_on,13,0,0,,,,,,,,,0,,,74,80
3953,note_on,113,0,0,,,,,,,,,0,,,74,0
3960,note_on,7,0,0,,,,,,,,,0,,,73,80
4067,note_on,227,0,1,,,,,,,,,0,,,57,0
4073,note_on,113,0,0,,,,,,,,,0,,,73,0
4080,note_on,7,0,0,,,,,,,,,0,,,71,80
4193,note_on,113,0,0,,,,,,,,,0,,,71,0
4200,note_on,7,0,0,,,,,,,,,0,,,69,80
4313,note_on,113,0,0,,,,,,,,,0,,,69,0
4320,note_on,7,0,0,,,,,,,,,0,,,78,80
4320,note_on,253,0,1,,,,,,,,,0,,,50,80
4433,note_on,113,0,0,,,,,,,,,0,,,78,0
4440,note_on,7,0,0,,,,,,,,,0,,,76,80
4547,note_on,227,0,1,,,,,,,,,0,,,50,0
4553,note_on,113,0,0,,,,,,,,,0,,,76,0
4560,note_on,13,0,1,,,,,,,,,0,,,54,80
4560,note_on,7,0,0,,,,,,,,,0,,,74,80
4673,note_on,113,0,0,,,,,,,,,0,,,74,0
4680,note_on,7,0,0,,,,,,,,,0,,,73,80
4787,note_on,227,0,1,,,,,,,,,0,,,54,0
4793,note_on,113,0,0,,,,,,,,,0,,,73,0
4800,note_on,13,0,1,,,,,,,,,0,,,50,80
4800,note_on,7,0,0,,,,,,,,,0,,,71,80
4913,note_on,113,0,0,,,,,,,,,0,,,71,0
4920,note_on,7,0,0,,,,,,,,,0,,,69,80
5027,note_on,227,0,1,,,,,,,,,0,,,50,0
5033,note_on,113,0,0,,,,,,,,,0,,,69,0
5040,note_on,13,0,1,,,,,,,,,0,,,52,80
5040,note_on,7,0,0,,,,,,,,,0,,,71,80
5723,note_on,683,0,0,,,,,,,,,0,,,71,0
5723,note_on,683,0,1,,,,,,,,,0,,,52,0
5760,set_tempo,0,1,0,,,,,,500000,,,,,,,
5760,key_signature,37,1,1,,,,,A,,,,,,,,
5760,note_on,0,0,0,,,,,,,,,0,,,73,80
5760,key_signature,0,1,0,,,,,A,,,,,,,,
5760,time_signature,37,1,0,3,8,24,8,,,,,,,,,
5760,note_on,0,0,1,,,,,,,,,0,,,57,80
5987,note_on,227,0,0,,,,,,,,,0,,,73,0
5987,note_on,227,0,1,,,,,,,,,0,,,57,0
6000,note_on,13,0,0,,,,,,,,,0,,,71,80
6000,note_on,13,0,1,,,,,,,,,0,,,52,80
6113,note_on,113,0,0,,,,,,,,,0,,,71,0
6120,note_on,7,0,0,,,,,,,,,0,,,69,80
6227,note_on,227,0,1,,,,,,,,,0,,,52,0
6233,note_on,113,0,0,,,,,,,,,0,,,69,0
6240,note_on,7,0,0,,,,,,,,,0,,,71,80
6353,note_on,113,0,0,,,,,,,,,0,,,71,0
6360,note_on,7,0,0,,,,,,,,,0,,,68,80
6473,note_on,113,0,0,,,,,,,,,0,,,68,0
6480,note_on,253,0,1,,,,,,,,,0,,,54,80
6480,note_on,7,0,0,,,,,,,,,0,,,69,80
6707,note_on,227,0,1,,,,,,,,,0,,,54,0
6707,note_on,227,0,0,,,,,,,,,0,,,69,0
6720,note_on,13,0,1,,,,,,,,,0,,,49,80
6720,note_on,13,0,0,,,,,,,,,0,,,76,80
6947,note_on,227,0,1,,,,,,,,,0,,,49,0
7175,note_on,455,0,0,,,,,,,,,0,,,76,0
7200,note_on,25,0,0,,,,,,,,,0,,,74,80
7200,note_on,253,0,1,,,,,,,,,0,,,47,80
7427,note_on,227,0,0,,,,,,,,,0,,,74,0
7427,note_on,227,0,1,,,,,,,,,0,,,47,0
7440,note_on,13,0,1,,,,,,,,,0,,,52,80
7440,note_on,13,0,0,,,,,,,,,0,,,73,80
7553,note_on,113,0,0,,,,,,,,,0,,,73,0
7560,note_on,7,0,0,,,,,,,,,0,,,74,80
7667,note_on,227,0,1,,,,,,,,,0,,,52,0
7673,note_on,113,0,0,,,,,,,,,0,,,74,0
7680,note_on,13,0,1,,,,,,,,,0,,,40,80
7680,note_on,7,0,0,,,,,,,,,0,,,71,80
7793,note_on,113,0,0,,,,,,,,,0,,,71,0
7800,note_on,7,0,0,,,,,,,,,0,,,74,80
7907,note_on,227,0,1,,,,,,,,,0,,,40,0
7913,note_on,113,0,0,,,,,,,,,0,,,74,0
7920,note_on,7,0,0,,,,,,,,,0,,,73,80
7920,note_on,13,0,1,,,,,,,,,0,,,45,80
7975,note_on,55,0,0,,,,,,,,,0,,,73,0
7980,note_on,5,0,0,,,,,,,,,0,,,74,80
8035,note_on,55,0,0,,,,,,,,,0,,,74,0
8040,note_on,5,0,0,,,,,,,,,0,,,73,80
8095,note_on,55,0,0,,,,,,,,,0,,,73,0
8100,note_on,5,0,0,,,,,,,,,0,,,74,80
8147,note_on,227,0,1,,,,,,,,,0,,,45,0
8155,note_on,55,0,0,,,,,,,,,0,,,74,0
8160,note_on,13,0,1,,,,,,,,,0,,,57,80
8160,note_on,5,0,0,,,,,,,,,0,,,73,80
8215,note_on,55,0,0,,,,,,,,,0,,,73,0
8220,note_on,5,0,0,,,,,,,,,0,,,74,80
8275,note_on,55,0,0,,,,,,,,,0,,,74,0
8280,note_on,5,0,0,,,,,,,,,0,,,73,80
8335,note_on,55,0,0,,,,,,,,,0,,,73,0
8340,note_on,5,0,0,,,,,,,,,0,,,74,80
8387,note_on,227,0,1,,,,,,,,,0,,,57,0
8395,note_on,55,0,0,,,,,,,,,0,,,74,0
8400,note_on,5,0,0,,,,,,,,,0,,,71,80
8400,note_on,13,0,1,,,,,,,,,0,,,56,80
8627,note_on,227,0,1,,,,,,,,,0,,,56,0
8627,note_on,227,0,0,,,,,,,,,0,,,71,0
8640,note_on,13,0,0,,,,,,,,,0,,,81,80
8640,note_on,13,0,1,,,,,,,,,0,,,54,80
8867,note_on,227,0,0,,,,,,,,,0,,,81,0
8867,note_on,227,0,1,,,,,,,,,0,,,54,0
8880,note_on,13,0,1,,,,,,,,,0,,,52,80
8880,note_on,13,0,0,,,,,,,,,0,,,80,80
9107,note_on,227,0,0,,,,,,,,,0,,,80,0
9107,note_on,227,0,1,,,,,,,,,0,,,52,0
9120,note_on,13,0,0,,,,,,,,,0,,,78,80
9120,note_on,13,0,1,,,,,,,,,0,,,50,80
9347,note_on,227,0,1,,,,,,,,,0,,,50,0
9347,note_on,227,0,0,,,,,,,,,0,,,78,0
9360,note_on,13,0,1,,,,,,,,,0,,,49,80
9360,note_on,13,0,0,,,,,,,,,0,,,76,80
9587,note_on,227,0,0,,,,,,,,,0,,,76,0
9587,note_on,227,0,1,,,,,,,,,0,,,49,0
9600,note_on,13,0,1,,,,,,,,,0,,,57,80
9600,note_on,13,0,0,,,,,,,,,0,,,74,80
9713,note_on,113,0,0,,,,,,,,,0,,,74,0
9720,note_on,7,0,0,,,,,,,,,0,,,73,80
9827,note_on,227,0,1,,,,,,,,,0,,,57,0
9833,note_on,113,0,0,,,,,,,,,0,,,73,0
9840,note_on,7,0,0,,,,,,,,,0,,,71,80
9953,note_on,113,0,0,,,,,,,,,0,,,71,0
9960,note_on,7,0,0,,,,,,,,,0,,,69,80
10073,note_on,113,0,0,,,,,,,,,0,,,69,0
10080,note_on,253,0,1,,,,,,,,,0,,,50,80
10080,note_on,7,0,0,,,,,,,,,0,,,78,80
10193,note_on,113,0,0,,,,,,,,,0,,,78,0
10200,note_on,7,0,0,,,,,,,,,0,,,76,80
10307,note_on,227,0,1,,,,,,,,,0,,,50,0
10313,note_on,113,0,0,,,,,,,,,0,,,76,0
10320,note_on,13,0,1,,,,,,,,,0,,,54,80
10320,note_on,7,0,0,,,,,,,,,0,,,74,80
10433,note_on,113,0,0,,,,,,,,,0,,,74,0
10440,note_on,7,0,0,,,,,,,,,0,,,73,80
10547,note_on,227,0,1,,,,,,,,,0,,,54,0
10553,note_on,113,0,0,,,,,,,,,0,,,73,0
10560,note_on,13,0,1,,,,,,,,,0,,,50,80
10560,note_on,7,0,0,,,,,,,,,0,,,71,80
10673,note_on,113,0,0,,,,,,,,,0,,,71,0
10680,note_on,7,0,0,,,,,,,,,0,,,69,80
10787,note_on,227,0,1,,,,,,,,,0,,,50,0
10793,note_on,113,0,0,,,,,,,,,0,,,69,0
10800,note_on,7,0,0,,,,,,,,,0,,,71,80
10800,note_on,13,0,1,,,,,,,,,0,,,52,80
11483,note_on,683,0,1,,,,,,,,,0,,,52,0
11483,note_on,683,0,0,,,,,,,,,0,,,71,0
11520,note_on,37,0,0,,,,,,,,,0,,,64,80
11520,note_on,37,0,1,,,,,,,,,0,,,61,80
11747,note_on,227,0,0,,,,,,,,,0,,,64,0
11760,note_on,13,0,0,,,,,,,,,0,,,66,80
11873,note_on,113,0,0,,,,,,,,,0,,,66,0
11880,note_on,7,0,0,,,,,,,,,0,,,68,80
11975,note_on,455,0,1,,,,,,,,,0,,,61,0
11993,note_on,113,0,0,,,,,,,,,0,,,68,0
12000,note_on,25,0,1,,,,,,,,,0,,,59,80
12000,note_on,7,0,0,,,,,,,,,0,,,69,80
12113,note_on,113,0,0,,,,,,,,,0,,,69,0
12120,note_on,7,0,0,,,,,,,,,0,,,71,80
12227,note_on,227,0,1,,,,,,,,,0,,,59,0
12233,note_on,113,0,0,,,,,,,,,0,,,71,0
12240,note_on,7,0,0,,,,,,,,,0,,,73,80
12240,note_on,13,0,1,,,,,,,,,0,,,57,80
12295,note_on,55,0,0,,,,,,,,,0,,,73,0
12299,note_on,4,0,0,,,,,,,,,0,,,74,80
12354,note_on,55,0,0,,,,,,,,,0,,,74,0
12359,note_on,5,0,0,,,,,,,,,0,,,73,80
12414,note_on,55,0,0,,,,,,,,,0,,,73,0
12420,note_on,6,0,0,,,,,,,,,0,,,74,80
12467,note_on,227,0,1,,,,,,,,,0,,,57,0
12475,note_on,55,0,0,,,,,,,,,0,,,74,0
12479,note_on,4,0,0,,,,,,,,,0,,,73,80
12480,note_on,13,0,1,,,,,,,,,0,,,59,80
12534,note_on,55,0,0,,,,,,,,,0,,,73,0
12539,note_on,5,0,0,,,,,,,,,0,,,74,80
12594,note_on,55,0,0,,,,,,,,,0,,,74,0
12600,note_on,6,0,0,,,,,,,,,0,,,73,80
12655,note_on,55,0,0,,,,,,,,,0,,,73,0
12659,note_on,4,0,0,,,,,,,,,0,,,74,80
12707,note_on,227,0,1,,,,,,,,,0,,,59,0
12714,note_on,55,0,0,,,,,,,,,0,,,74,0
12719,note_on,5,0,0,,,,,,,,,0,,,73,80
12720,note_on,13,0,1,,,,,,,,,0,,,61,80
12774,note_on,55,0,0,,,,,,,,,0,,,73,0
12780,note_on,6,0,0,,,,,,,,,0,,,74,80
12835,note_on,55,0,0,,,,,,,,,0,,,74,0
12839,note_on,4,0,0,,,,,,,,,0,,,73,80
12894,note_on,55,0,0,,,,,,,,,0,,,73,0
12899,note_on,5,0,0,,,,,,,,,0,,,74,80
12947,note_on,227,0,1,,,,,,,,,0,,,61,0
12954,note_on,55,0,0,,,,,,,,,0,,,74,0
12960,note_on,13,0,1,,,,,,,,,0,,,50,80
12960,note_on,6,0,0,,,,,,,,,0,,,66,80
13187,note_on,227,0,0,,,,,,,,,0,,,66,0
13200,note_on,13,0,0,,,,,,,,,0,,,68,80
13313,note_on,113,0,0,,,,,,,,,0,,,68,0
13320,note_on,7,0,0,,,,,,,,,0,,,69,80
13415,note_on,455,0,1,,,,,,,,,0,,,50,0
13433,note_on,113,0,0,,,,,,,,,0,,,69,0
13440,note_on,25,0,1,,,,,,,,,0,,,49,80
13440,note_on,7,0,0,,,,,,,,,0,,,71,80
13553,note_on,113,0,0,,,,,,,,,0,,,71,0
13560,note_on,7,0,0,,,,,,,,,0,,,73,80
13667,note_on,227,0,1,,,,,,,,,0,,,49,0
13673,note_on,113,0,0,,,,,,,,,0,,,73,0
13680,note_on,13,0,1,,,,,,,,,0,,,47,80
13680,note_on,7,0,0,,,,,,,,,0,,,74,80
13735,note_on,55,0,0,,,,,,,,,0,,,74,0
13739,note_on,4,0,0,,,,,,,,,0,,,76,80
13794,note_on,55,0,0,,,,,,,,,0,,,76,0
13799,note_on,5,0,0,,,,,,,,,0,,,74,80
13854,note_on,55,0,0,,,,,,,,,0,,,74,0
13860,note_on,6,0,0,,,,,,,,,0,,,76,80
13907,note_on,227,0,1,,,,,,,,,0,,,47,0
13915,note_on,55,0,0,,,,,,,,,0,,,76,0
13919,note_on,4,0,0,,,,,,,,,0,,,74,80
13920,note_on,13,0,1,,,,,,,,,0,,,49,80
13974,note_on,55,0,0,,,,,,,,,0,,,74,0
13979,note_on,5,0,0,,,,,,,,,0,,,76,80
14034,note_on,55,0,0,,,,,,,,,0,,,76,0
14040,note_on,6,0,0,,,,,,,,,0,,,74,80
14095,note_on,55,0,0,,,,,,,,,0,,,74,0
14099,note_on,4,0,0,,,,,,,,,0,,,76,80
14147,note_on,227,0,1,,,,,,,,,0,,,49,0
14154,note_on,55,0,0,,,,,,,,,0,,,76,0
14159,note_on,5,0,0,,,,,,,,,0,,,74,80
14160,note_on,13,0,1,,,,,,,,,0,,,50,80
14214,note_on,55,0,0,,,,,,,,,0,,,74,0
14220,note_on,6,0,0,,,,,,,,,0,,,76,80
14275,note_on,55,0,0,,,,,,,,,0,,,76,0
14279,note_on,4,0,0,,,,,,,,,0,,,74,80
14334,note_on,55,0,0,,,,,,,,,0,,,74,0
14339,note_on,5,0,0,,,,,,,,,0,,,76,80
14387,note_on,227,0,1,,,,,,,,,0,,,50,0
14394,note_on,55,0,0,,,,,,,,,0,,,76,0
14400,note_on,13,0,1,,,,,,,,,0,,,52,80
14400,note_on,6,0,0,,,,,,,,,0,,,68,80
14627,note_on,227,0,0,,,,,,,,,0,,,68,0
14640,note_on,13,0,0,,,,,,,,,0,,,69,80
14753,note_on,113,0,0,,,,,,,,,0,,,69,0
14760,note_on,7,0,0,,,,,,,,,0,,,71,80
14855,note_on,455,0,1,,,,,,,,,0,,,52,0
14873,note_on,113,0,0,,,,,,,,,0,,,71,0
14880,note_on,25,0,1,,,,,,,,,0,,,50,80
14880,note_on,7,0,0,,,,,,,,,0,,,73,80
14993,note_on,113,0,0,,,,,,,,,0,,,73,0
15000,note_on,7,0,0,,,,,,,,,0,,,74,80
15107,note_on,227,0,1,,,,,,,,,0,,,50,0
15113,note_on,113,0,0,,,,,,,,,0,,,74,0
15120,note_on,7,0,0,,,,,,,,,0,,,76,80
15120,note_on,13,0,1,,,,,,,,,0,,,49,80
15461,note_on,341,0,0,,,,,,,,,0,,,76,0
15480,note_on,19,0,0,,,,,,,,,0,,,74,80
15593,note_on,113,0,0,,,,,,,,,0,,,74,0
15600,note_on,7,0,0,,,,,,,,,0,,,73,80
15713,note_on,113,0,0,,,,,,,,,0,,,73,0
15720,note_on,7,0,0,,,,,,,,,0,,,71,80
15803,note_on,683,0,1,,,,,,,,,0,,,49,0
15833,note_on,113,0,0,,,,,,,,,0,,,71,0
15840,note_on,37,0,1,,,,,,,,,0,,,50,80
15840,note_on,7,0,0,,,,,,,,,0,,,69,80
15953,note_on,113,0,0,,,,,,,,,0,,,69,0
15960,note_on,7,0,0,,,,,,,,,0,,,74,80
16067,note_on,227,0,1,,,,,,,,,0,,,50,0
16073,note_on,113,0,0,,,,,,,,,0,,,74,0
16080,note_on,13,0,1,,,,,,,,,0,,,52,80
16080,note_on,7,0,0,,,,,,,,,0,,,73,80
16135,note_on,55,0,0,,,,,,,,,0,,,73,0
16140,note_on,5,0,0,,,,,,,,,0,,,74,80
16195,note_on,55,0,0,,,,,,,,,0,,,74,0
16200,note_on,5,0,0,,,,,,,,,0,,,73,80
16255,note_on,55,0,0,,,,,,,,,0,,,73,0
16260,note_on,5,0,0,,,,,,,,,0,,,74,80
16307,note_on,227,0,1,,,,,,,,,0,,,52,0
16315,note_on,55,0,0,,,,,,,,,0,,,74,0
16320,note_on,5,0,0,,,,,,,,,0,,,71,80
16320,note_on,13,0,1,,,,,,,,,0,,,40,80
16433,note_on,113,0,0,,,,,,,,,0,,,71,0
16440,note_on,7,0,0,,,,,,,,,0,,,69,80
16547,note_on,227,0,1,,,,,,,,,0,,,40,0
16553,note_on,113,0,0,,,,,,,,,0,,,69,0
16560,note_on,7,0,0,,,,,,,,,0,,,69,80
16560,note_on,13,0,1,,,,,,,,,0,,,45,80
17243,note_on,683,0,0,,,,,,,,,0,,,69,0
17243,note_on,683,0,1,,,,,,,,,0,,,45,0
17280,time_signature,37,1,0,3,8,24,8,,,,,,,,,
17280,note_on,0,0,1,,,,,,,,,0,,,57,80
17280,note_on,0,0,0,,,,,,,,,0,,,73,80
17280,key_signature,37,1,1,,,,,A,,,,,,,,
17280,key_signature,0,1,0,,,,,A,,,,,,,,
17280,set_tempo,0,1,0,,,,,,500000,,,,,,,
17507,note_on,227,0,1,,,,,,,,,0,,,57,0
17507,note_on,227,0,0,,,,,,,,,0,,,73,0
17520,note_on,13,0,1,,,,,,,,,0,,,52,80
17520,note_on,13,0,0,,,,,,,,,0,,,71,80
17633,note_on,113,0,0,,,,,,,,,0,,,71,0
17640,note_on,7,0,0,,,,,,,,,0,,,69,80
17747,note_on,227,0,1,,,,,,,,,0,,,52,0
17753,note_on,113,0,0,,,,,,,,,0,,,69,0
17760,note_on,7,0,0,,,,,,,,,0,,,71,80
17873,note_on,113,0,0,,,,,,,,,0,,,71,0
17880,note_on,7,0,0,,,,,,,,,0,,,68,80
17993,note_on,113,0,0,,,,,,,,,0,,,68,0
18000,note_on,7,0,0,,,,,,,,,0,,,69,80
18000,note_on,253,0,1,,,,,,,,,0,,,54,80
18227,note_on,227,0,0,,,,,,,,,0,,,69,0
18227,note_on,227,0,1,,,,,,,,,0,,,54,0
18240,note_on,13,0,0,,,,,,,,,0,,,76,80
18240,note_on,13,0,1,,,,,,,,,0,,,49,80
18467,note_on,227,0,1,,,,,,,,,0,,,49,0
18695,note_on,455,0,0,,,,,,,,,0,,,76,0
18720,note_on,25,0,0,,,,,,,,,0,,,74,80
18720,note_on,253,0,1,,,,,,,,,0,,,47,80
18947,note_on,227,0,0,,,,,,,,,0,,,74,0
18947,note_on,227,0,1,,,,,,,,,0,,,47,0
18960,note_on,13,0,0,,,,,,,,,0,,,73,80
18960,note_on,13,0,1,,,,,,,,,0,,,52,80
19073,note_on,113,0,0,,,,,,,,,0,,,73,0
19080,note_on,7,0,0,,,,,,,,,0,,,74,80
19187,note_on,227,0,1,,,,,,,,,0,,,52,0
19193,note_on,113,0,0,,,,,,,,,0,,,74,0
19200,note_on,7,0,0,,,,,,,,,0,,,71,80
19200,note_on,13,0,1,,,,,,,,,0,,,40,80
19313,note_on,113,0,0,,,,,,,,,0,,,71,0
19320,note_on,7,0,0,,,,,,,,,0,,,74,80
19427,note_on,227,0,1,,,,,,,,,0,,,40,0
19433,note_on,113,0,0,,,,,,,,,0,,,74,0
19440,note_on,7,0,0,,,,,,,,,0,,,73,80
19440,note_on,13,0,1,,,,,,,,,0,,,45,80
19495,note_on,55,0,0,,,,,,,,,0,,,73,0
19500,note_on,5,0,0,,,,,,,,,0,,,74,80
19555,note_on,55,0,0,,,,,,,,,0,,,74,0
19560,note_on,5,0,0,,,,,,,,,0,,,73,80
19615,note_on,55,0,0,,,,,,,,,0,,,73,0
19620,note_on,5,0,0,,,,,,,,,0,,,74,80
19667,note_on,227,0,1,,,,,,,,,0,,,45,0
19675,note_on,55,0,0,,,,,,,,,0,,,74,0
19680,note_on,5,0,0,,,,,,,,,0,,,73,80
19680,note_on,13,0,1,,,,,,,,,0,,,57,80
19735,note_on,55,0,0,,,,,,,,,0,,,73,0
19740,note_on,5,0,0,,,,,,,,,0,,,74,80
19795,note_on,55,0,0,,,,,,,,,0,,,74,0
19800,note_on,5,0,0,,,,,,,,,0,,,73,80
19855,note_on,55,0,0,,,,,,,,,0,,,73,0
19860,note_on,5,0,0,,,,,,,,,0,,,74,80
19907,note_on,227,0,1,,,,,,,,,0,,,57,0
19915,note_on,55,0,0,,,,,,,,,0,,,74,0
19920,note_on,13,0,1,,,,,,,,,0,,,56,80
19920,note_on,5,0,0,,,,,,,,,0,,,71,80
20147,note_on,227,0,0,,,,,,,,,0,,,71,0
20147,note_on,227,0,1,,,,,,,,,0,,,56,0
20160,note_on,13,0,0,,,,,,,,,0,,,81,80
20160,note_on,13,0,1,,,,,,,,,0,,,54,80
20387,note_on,227,0,0,,,,,,,,,0,,,81,0
20387,note_on,227,0,1,,,,,,,,,0,,,54,0
20400,note_on,13,0,1,,,,,,,,,0,,,52,80
20400,note_on,13,0,0,,,,,,,,,0,,,80,80
20627,note_on,227,0,0,,,,,,,,,0,,,80,0
20627,note_on,227,0,1,,,,,,,,,0,,,52,0
20640,note_on,13,0,0,,,,,,,,,0,,,78,80
20640,note_on,13,0,1,,,,,,,,,0,,,50,80
20867,note_on,227,0,0,,,,,,,,,0,,,78,0
20867,note_on,227,0,1,,,,,,,,,0,,,50,0
20880,note_on,13,0,1,,,,,,,,,0,,,49,80
20880,note_on,13,0,0,,,,,,,,,0,,,76,80
21107,note_on,227,0,0,,,,,,,,,0,,,76,0
21107,note_on,227,0,1,,,,,,,,,0,,,49,0
21120,note_on,13,0,1,,,,,,,,,0,,,57,80
21120,note_on,13,0,0,,,,,,,,,0,,,74,80
21233,note_on,113,0,0,,,,,,,,,0,,,74,0
21240,note_on,7,0,0,,,,,,,,,0,,,73,80
21347,note_on,227,0,1,,,,,,,,,0,,,57,0
21353,note_on,113,0,0,,,,,,,,,0,,,73,0
21360,note_on,7,0,0,,,,,,,,,0,,,71,80
21473,note_on,113,0,0,,,,,,,,,0,,,71,0
21480,note_on,7,0,0,,,,,,,,,0,,,69,80
21593,note_on,113,0,0,,,,,,,,,0,,,69,0
21600,note_on,7,0,0,,,,,,,,,0,,,78,80
21600,note_on,253,0,1,,,,,,,,,0,,,50,80
21713,note_on,113,0,0,,,,,,,,,0,,,78,0
21720,note_on,7,0,0,,,,,,,,,0,,,76,80
21827,note_on,227,0,1,,,,,,,,,0,,,50,0
21833,note_on,113,0,0,,,,,,,,,0,,,76,0
21840,note_on,7,0,0,,,,,,,,,0,,,74,80
21840,note_on,13,0,1,,,,,,,,,0,,,54,80
21953,note_on,113,0,0,,,,,,,,,0,,,74,0
21960,note_on,7,0,0,,,,,,,,,0,,,73,80
22067,note_on,227,0,1,,,,,,,,,0,,,54,0
22073,note_on,113,0,0,,,,,,,,,0,,,73,0
22080,note_on,13,0,1,,,,,,,,,0,,,50,80
22080,note_on,7,0,0,,,,,,,,,0,,,71,80
22193,note_on,113,0,0,,,,,,,,,0,,,71,0
22200,note_on,7,0,0,,,,,,,,,0,,,69,80
22307,note_on,227,0,1,,,,,,,,,0,,,50,0
22313,note_on,113,0,0,,,,,,,,,0,,,69,0
22320,note_on,13,0,1,,,,,,,,,0,,,52,80
22320,note_on,7,0,0,,,,,,,,,0,,,71,80
23003,note_on,683,0,0,,,,,,,,,0,,,71,0
23003,note_on,683,0,1,,,,,,,,,0,,,52,0
23040,note_on,37,0,1,,,,,,,,,0,,,61,80
23040,note_on,37,0,0,,,,,,,,,0,,,64,80
23267,note_on,227,0,0,,,,,,,,,0,,,64,0
23280,note_on,13,0,0,,,,,,,,,0,,,66,80
23393,note_on,113,0,0,,,,,,,,,0,,,66,0
23400,note_on,7,0,0,,,,,,,,,0,,,68,80
23495,note_on,455,0,1,,,,,,,,,0,,,61,0
23513,note_on,113,0,0,,,,,,,,,0,,,68,0
23520,note_on,25,0,1,,,,,,,,,0,,,59,80
23520,note_on,7,0,0,,,,,,,,,0,,,69,80
23633,note_on,113,0,0,,,,,,,,,0,,,69,0
23640,note_on,7,0,0,,,,,,,,,0,,,71,80
23747,note_on,227,0,1,,,,,,,,,0,,,59,0
23753,note_on,113,0,0,,,,,,,,,0,,,71,0
23760,note_on,7,0,0,,,,,,,,,0,,,73,80
23760,note_on,13,0,1,,,,,,,,,0,,,57,80
23815,note_on,55,0,0,,,,,,,,,0,,,73,0
23819,note_on,4,0,0,,,,,,,,,0,,,74,80
23874,note_on,55,0,0,,,,,,,,,0,,,74,0
23879,note_on,5,0,0,,,,,,,,,0,,,73,80
23934,note_on,55,0,0,,,,,,,,,0,,,73,0
23940,note_on,6,0,0,,,,,,,,,0,,,74,80
23987,note_on,227,0,1,,,,,,,,,0,,,57,0
23995,note_on,55,0,0,,,,,,,,,0,,,74,0
23999,note_on,4,0,0,,,,,,,,,0,,,73,80
24000,note_on,13,0,1,,,,,,,,,0,,,59,80
24054,note_on,55,0,0,,,,,,,,,0,,,73,0
24059,note_on,5,0,0,,,,,,,,,0,,,74,80
24114,note_on,55,0,0,,,,,,,,,0,,,74,0
24120,note_on,6,0,0,,,,,,,,,0,,,73,80
24175,note_on,55,0,0,,,,,,,,,0,,,73,0
24179,note_on,4,0,0,,,,,,,,,0,,,74,80
24227,note_on,227,0,1,,,,,,,,,0,,,59,0
24234,note_on,55,0,0,,,,,,,,,0,,,74,0
24239,note_on,5,0,0,,,,,,,,,0,,,73,80
24240,note_on,13,0,1,,,,,,,,,0,,,61,80
24294,note_on,55,0,0,,,,,,,,,0,,,73,0
24300,note_on,6,0,0,,,,,,,,,0,,,74,80
24355,note_on,55,0,0,,,,,,,,,0,,,74,0
24359,note_on,4,0,0,,,,,,,,,0,,,73,80
24414,note_on,55,0,0,,,,,,,,,0,,,73,0
24419,note_on,5,0,0,,,,,,,,,0,,,74,80
24467,note_on,227,0,1,,,,,,,,,0,,,61,0
24474,note_on,55,0,0,,,,,,,,,0,,,74,0
24480,note_on,6,0,0,,,,,,,,,0,,,66,80
24480,note_on,13,0,1,,,,,,,,,0,,,50,80
24707,note_on,227,0,0,,,,,,,,,0,,,66,0
24720,note_on,13,0,0,,,,,,,,,0,,,68,80
24833,note_on,113,0,0,,,,,,,,,0,,,68,0
24840,note_on,7,0,0,,,,,,,,,0,,,69,80
24935,note_on,455,0,1,,,,,,,,,0,,,50,0
24953,note_on,113,0,0,,,,,,,,,0,,,69,0
24960,note_on,25,0,1,,,,,,,,,0,,,49,80
24960,note_on,7,0,0,,,,,,,,,0,,,71,80
25073,note_on,113,0,0,,,,,,,,,0,,,71,0
25080,note_on,7,0,0,,,,,,,,,0,,,73,80
25187,note_on,227,0,1,,,,,,,,,0,,,49,0
25193,note_on,113,0,0,,,,,,,,,0,,,73,0
25200,note_on,7,0,0,,,,,,,,,0,,,74,80
25200,note_on,13,0,1,,,,,,,,,0,,,47,80
25255,note_on,55,0,0,,,,,,,,,0,,,74,0
25259,note_on,4,0,0,,,,,,,,,0,,,76,80
25314,note_on,55,0,0,,,,,,,,,0,,,76,0
25319,note_on,5,0,0,,,,,,,,,0,,,74,80
25374,note_on,55,0,0,,,,,,,,,0,,,74,0
25380,note_on,6,0,0,,,,,,,,,0,,,76,80
25427,note_on,227,0,1,,,,,,,,,0,,,47,0
25435,note_on,55,0,0,,,,,,,,,0,,,76,0
25439,note_on,4,0,0,,,,,,,,,0,,,74,80
25440,note_on,13,0,1,,,,,,,,,0,,,49,80
25494,note_on,55,0,0,,,,,,,,,0,,,74,0
25499,note_on,5,0,0,,,,,,,,,0,,,76,80
25554,note_on,55,0,0,,,,,,,,,0,,,76,0
25560,note_on,6,0,0,,,,,,,,,0,,,74,80
25615,note_on,55,0,0,,,,,,,,,0,,,74,0
25619,note_on,4,0,0,,,,,,,,,0,,,76,80
25667,note_on,227,0,1,,,,,,,,,0,,,49,0
25674,note_on,55,0,0,,,,,,,,,0,,,76,0
25679,note_on,5,0,0,,,,,,,,,0,,,74,80
25680,note_on,13,0,1,,,,,,,,,0,,,50,80
25734,note_on,55,0,0,,,,,,,,,0,,,74,0
25740,note_on,6,0,0,,,,,,,,,0,,,76,80
25795,note_on,55,0,0,,,,,,,,,0,,,76,0
25799,note_on,4,0,0,,,,,,,,,0,,,74,80
25854,note_on,55,0,0,,,,,,,,,0,,,74,0
25859,note_on,5,0,0,,,,,,,,,0,,,76,80
25907,note_on,227,0,1,,,,,,,,,0,,,50,0
25914,note_on,55,0,0,,,,,,,,,0,,,76,0
25920,note_on,6,0,0,,,,,,,,,0,,,68,80
25920,note_on,13,0,1,,,,,,,,,0,,,52,80
26147,note_on,227,0,0,,,,,,,,,0,,,68,0
26160,note_on,13,0,0,,,,,,,,,0,,,69,80
26273,note_on,113,0,0,,,,,,,,,0,,,69,0
26280,note_on,7,0,0,,,,,,,,,0,,,71,80
26375,note_on,455,0,1,,,,,,,,,0,,,52,0
26393,note_on,113,0,0,,,,,,,,,0,,,71,0
26400,note_on,25,0,1,,,,,,,,,0,,,50,80
26400,note_on,7,0,0,,,,,,,,,0,,,73,80
26513,note_on,113,0,0,,,,,,,,,0,,,73,0
26520,note_on,7,0,0,,,,,,,,,0,,,74,80
26627,note_on,227,0,1,,,,,,,,,0,,,50,0
26633,note_on,113,0,0,,,,,,,,,0,,,74,0
26640,note_on,7,0,0,,,,,,,,,0,,,76,80
26640,note_on,13,0,1,,,,,,,,,0,,,49,80
26981,note_on,341,0,0,,,,,,,,,0,,,76,0
27000,note_on,19,0,0,,,,,,,,,0,,,74,80
27113,note_on,113,0,0,,,,,,,,,0,,,74,0
27120,note_on,7,0,0,,,,,,,,,0,,,73,80
27233,note_on,113,0,0,,,,,,,,,0,,,73,0
27240,note_on,7,0,0,,,,,,,,,0,,,71,80
27323,note_on,683,0,1,,,,,,,,,0,,,49,0
27353,note_on,113,0,0,,,,,,,,,0,,,71,0
27360,note_on,37,0,1,,,,,,,,,0,,,50,80
27360,note_on,7,0,0,,,,,,,,,0,,,69,80
27473,note_on,113,0,0,,,,,,,,,0,,,69,0
27480,note_on,7,0,0,,,,,,,,,0,,,74,80
27587,note_on,227,0,1,,,,,,,,,0,,,50,0
27593,note_on,113,0,0,,,,,,,,,0,,,74,0
27600,note_on,7,0,0,,,,,,,,,0,,,73,80
27600,note_on,13,0,1,,,,,,,,,0,,,52,80
27655,note_on,55,0,0,,,,,,,,,0,,,73,0
27660,note_on,5,0,0,,,,,,,,,0,,,74,80
27715,note_on,55,0,0,,,,,,,,,0,,,74,0
27720,note_on,5,0,0,,,,,,,,,0,,,73,80
27775,note_on,55,0,0,,,,,,,,,0,,,73,0
27780,note_on,5,0,0,,,,,,,,,0,,,74,80
27827,note_on,227,0,1,,,,,,,,,0,,,52,0
27835,note_on,55,0,0,,,,,,,,,0,,,74,0
27840,note_on,5,0,0,,,,,,,,,0,,,71,80
27840,note_on,13,0,1,,,,,,,,,0,,,40,80
27953,note_on,113,0,0,,,,,,,,,0,,,71,0
27960,note_on,7,0,0,,,,,,,,,0,,,69,80
28067,note_on,227,0,1,,,,,,,,,0,,,40,0
28073,note_on,113,0,0,,,,,,,,,0,,,69,0
28080,note_on,7,0,0,,,,,,,,,0,,,69,80
28080,note_on,13,0,1,,,,,,,,,0,,,45,80
28763,note_on,683,0,0,,,,,,,,,0,,,69,0
28763,note_on,683,0,1,,,,,,,,,0,,,45,0
28800,time_signature,37,1,0,3,4,24,8,,,,,,,,,
28800,key_signature,0,1,0,,,,,D,,,,,,,,
28800,note_on,0,0,1,,,,,,,,,0,,,50,80
28800,key_signature,37,1,1,,,,,D,,,,,,,,
28800,note_on,0,0,0,,,,,,,,,0,,,78,80
29141,note_on,341,0,0,,,,,,,,,0,,,78,0
29160,note_on,19,0,0,,,,,,,,,0,,,79,80
29255,note_on,455,0,1,,,,,,,,,0,,,50,0
29273,note_on,113,0,0,,,,,,,,,0,,,79,0
29280,note_on,7,0,0,,,,,,,,,0,,,81,80
29280,note_on,25,0,1,,,,,,,,,0,,,54,80
29735,note_on,455,0,1,,,,,,,,,0,,,54,0
29735,note_on,455,0,0,,,,,,,,,0,,,81,0
29760,note_on,25,0,1,,,,,,,,,0,,,57,80
29760,note_on,25,0,0,,,,,,,,,0,,,73,80
30215,note_on,455,0,0,,,,,,,,,0,,,73,0
30215,note_on,455,0,1,,,,,,,,,0,,,57,0
30216,end_of_track,1,1,1,,,,,,,,,,,,,
30216,end_of_track,1,1,0,,,,,,,,,,,,,
