tick,type,time,meta,track,numerator,denominator,clocks_per_click,notated_32nd_notes_per_beat,key,tempo,control,value,channel,program,port,note,velocity
0,control_change,0,0,0,,,,,,,121,0,0,,,,
0,time_signature,0,1,0,3,8,24,8,,,,,,,,,
0,set_tempo,0,1,0,,,,,,500000,,,,,,,
0,program_change,0,0,0,,,,,,,,,0,0,,,
0,track_name,0,1,0,,,,,,,,,,,,,
0,note_on,0,0,1,,,,,,,,,0,,,52,80
0,note_on,0,0,0,,,,,,,,,0,,,71,80
0,midi_port,0,1,1,,,,,,,,,,,0,,
0,midi_port,0,1,0,,,,,,,,,,,0,,
0,key_signature,0,1,1,,,,,C,,,,,,,,
0,key_signature,0,1,0,,,,,C,,,,,,,,
0,track_name,0,1,1,,,,,,,,,,,,,
0,control_change,0,0,0,,,,,,,100,127,0,,,,
0,control_change,0,0,0,,,,,,,93,0,0,,,,
0,control_change,0,0,0,,,,,,,100,0,0,,,,
0,control_change,0,0,0,,,,,,,91,0,0,,,,
0,control_change,0,0,0,,,,,,,10,64,0,,,,
0,control_change,0,0,0,,,,,,,7,99,0,,,,
0,control_change,0,0,0,,,,,,,6,12,0,,,,
0,control_change,0,0,0,,,,,,,101,127,0,,,,
0,control_change,0,0,0,,,,,,,101,0,0,,,,
170,note_on,170,0,1,,,,,,,,,0,,,52,0
180,note_on,10,0,1,,,,,,,,,0,,,54,80
227,note_on,227,0,0,,,,,,,,,0,,,71,0
236,note_on,56,0,1,,,,,,,,,0,,,54,0
240,note_on,4,0,1,,,,,,,,,0,,,55,80
240,note_on,13,0,0,,,,,,,,,0,,,76,80
467,note_on,227,0,1,,,,,,,,,0,,,55,0
467,note_on,227,0,0,,,,,,,,,0,,,76,0
480,note_on,13,0,1,,,,,,,,,0,,,54,80
480,note_on,13,0,0,,,,,,,,,0,,,75,80
707,note_on,227,0,0,,,,,,,,,0,,,75,0
707,note_on,227,0,1,,,,,,,,,0,,,54,0
720,note_on,13,0,1,,,,,,,,,0,,,52,80
720,note_on,13,0,0,,,,,,,,,0,,,76,80
947,note_on,227,0,0,,,,,,,,,0,,,76,0
947,note_on,227,0,1,,,,,,,,,0,,,52,0
960,note_on,13,0,0,,,,,,,,,0,,,64,80
960,note_on,13,0,1,,,,,,,,,0,,,40,80
1073,note_on,113,0,0,,,,,,,,,0,,,64,0
1080,note_on,7,0,0,,,,,,,,,0,,,66,80
1187,note_on,227,0,1,,,,,,,,,0,,,40,0
1193,note_on,113,0,0,,,,,,,,,0,,,66,0
1200,note_on,7,0,0,,,,,,,,,0,,,67,80
1313,note_on,113,0,0,,,,,,,,,0,,,67,0
1320,note_on,7,0,0,,,,,,,,,0,,,69,80
1433,note_on,113,0,0,,,,,,,,,0,,,69,0
1440,note_on,253,0,1,,,,,,,,,0,,,55,80
1440,note_on,7,0,0,,,,,,,,,0,,,71,80
1553,note_on,113,0,0,,,,,,,,,0,,,71,0
1560,note_on,7,0,0,,,,,,,,,0,,,73,80
1667,note_on,227,0,1,,,,,,,,,0,,,55,0
1673,note_on,113,0,0,,,,,,,,,0,,,73,0
1680,note_on,7,0,0,,,,,,,,,0,,,74,80
1680,note_on,13,0,1,,,,,,,,,0,,,54,80
1907,note_on,227,0,0,,,,,,,,,0,,,74,0
1907,note_on,227,0,1,,,,,,,,,0,,,54,0
1920,note_on,13,0,1,,,,,,,,,0,,,52,80
1920,note_on,13,0,0,,,,,,,,,0,,,73,80
2147,note_on,227,0,1,,,,,,,,,0,,,52,0
2147,note_on,227,0,0,,,,,,,,,0,,,73,0
2160,note_on,13,0,0,,,,,,,,,0,,,74,80
2160,note_on,13,0,1,,,,,,,,,0,,,50,80
2387,note_on,227,0,0,,,,,,,,,0,,,74,0
2387,note_on,227,0,1,,,,,,,,,0,,,50,0
2400,note_on,13,0,1,,,,,,,,,0,,,38,80
2400,note_on,13,0,0,,,,,,,,,0,,,62,80
2513,note_on,113,0,0,,,,,,,,,0,,,62,0
2520,note_on,7,0,0,,,,,,,,,0,,,64,80
2627,note_on,227,0,1,,,,,,,,,0,,,38,0
2633,note_on,113,0,0,,,,,,,,,0,,,64,0
2640,note_on,7,0,0,,,,,,,,,0,,,66,80
2753,note_on,113,0,0,,,,,,,,,0,,,66,0
2760,note_on,7,0,0,,,,,,,,,0,,,67,80
2873,note_on,113,0,0,,,,,,,,,0,,,67,0
2880,note_on,253,0,1,,,,,,,,,0,,,50,80
2880,note_on,7,0,0,,,,,,,,,0,,,69,80
2993,note_on,113,0,0,,,,,,,,,0,,,69,0
3000,note_on,7,0,0,,,,,,,,,0,,,71,80
3107,note_on,227,0,1,,,,,,,,,0,,,50,0
3113,note_on,113,0,0,,,,,,,,,0,,,71,0
3120,note_on,7,0,0,,,,,,,,,0,,,72,80
3120,note_on,13,0,1,,,,,,,,,0,,,52,80
3347,note_on,227,0,1,,,,,,,,,0,,,52,0
3347,note_on,227,0,0,,,,,,,,,0,,,72,0
3360,note_on,13,0,1,,,,,,,,,0,,,50,80
3360,note_on,13,0,0,,,,,,,,,0,,,71,80
3587,note_on,227,0,1,,,,,,,,,0,,,50,0
3587,note_on,227,0,0,,,,,,,,,0,,,71,0
3600,note_on,13,0,1,,,,,,,,,0,,,48,80
3600,note_on,13,0,0,,,,,,,,,0,,,69,80
3655,note_on,55,0,0,,,,,,,,,0,,,69,0
3660,note_on,5,0,0,,,,,,,,,0,,,71,80
3715,note_on,55,0,0,,,,,,,,,0,,,71,0
3720,note_on,5,0,0,,,,,,,,,0,,,69,80
3775,note_on,55,0,0,,,,,,,,,0,,,69,0
3780,note_on,5,0,0,,,,,,,,,0,,,71,80
3827,note_on,227,0,1,,,,,,,,,0,,,48,0
3835,note_on,55,0,0,,,,,,,,,0,,,71,0
3840,note_on,5,0,0,,,,,,,,,0,,,67,80
3840,note_on,13,0,1,,,,,,,,,0,,,47,80
4067,note_on,227,0,1,,,,,,,,,0,,,47,0
4067,note_on,227,0,0,,,,,,,,,0,,,67,0
4320,note_on,253,0,0,,,,,,,,,0,,,78,80
4320,note_on,253,0,1,,,,,,,,,0,,,57,80
4547,note_on,227,0,0,,,,,,,,,0,,,78,0
4547,note_on,227,0,1,,,,,,,,,0,,,57,0
4560,note_on,13,0,1,,,,,,,,,0,,,60,80
4560,note_on,13,0,0,,,,,,,,,0,,,76,80
4673,note_on,113,0,0,,,,,,,,,0,,,76,0
4680,note_on,7,0,0,,,,,,,,,0,,,75,80
4787,note_on,227,0,1,,,,,,,,,0,,,60,0
4793,note_on,113,0,0,,,,,,,,,0,,,75,0
4800,note_on,7,0,0,,,,,,,,,0,,,76,80
4800,note_on,13,0,1,,,,,,,,,0,,,57,80
4913,note_on,113,0,0,,,,,,,,,0,,,76,0
4920,note_on,7,0,0,,,,,,,,,0,,,78,80
5027,note_on,227,0,1,,,,,,,,,0,,,57,0
5033,note_on,113,0,0,,,,,,,,,0,,,78,0
5040,note_on,13,0,1,,,,,,,,,0,,,59,80
5040,note_on,7,0,0,,,,,,,,,0,,,75,80
5495,note_on,455,0,1,,,,,,,,,0,,,59,0
5495,note_on,455,0,0,,,,,,,,,0,,,75,0
5760,note_on,265,0,0,,,,,,,,,0,,,79,80
5760,note_on,265,0,1,,,,,,,,,0,,,55,80
5987,note_on,227,0,1,,,,,,,,,0,,,55,0
5987,note_on,227,0,0,,,,,,,,,0,,,79,0
6000,note_on,13,0,0,,,,,,,,,0,,,78,80
6000,note_on,13,0,1,,,,,,,,,0,,,57,80
6227,note_on,227,0,1,,,,,,,,,0,,,57,0
6227,note_on,227,0,0,,,,,,,,,0,,,78,0
6240,note_on,13,0,1,,,,,,,,,0,,,59,80
6240,note_on,13,0,0,,,,,,,,,0,,,76,80
6281,note_on,41,0,0,,,,,,,,,0,,,76,0
6285,note_on,4,0,0,,,,,,,,,0,,,78,80
6326,note_on,41,0,0,,,,,,,,,0,,,78,0
6330,note_on,4,0,0,,,,,,,,,0,,,76,80
6371,note_on,41,0,0,,,,,,,,,0,,,76,0
6375,note_on,4,0,0,,,,,,,,,0,,,78,80
6416,note_on,41,0,0,,,,,,,,,0,,,78,0
6420,note_on,4,0,0,,,,,,,,,0,,,75,80
6467,note_on,227,0,1,,,,,,,,,0,,,59,0
6476,note_on,56,0,0,,,,,,,,,0,,,75,0
6480,note_on,13,0,1,,,,,,,,,0,,,60,80
6480,note_on,4,0,0,,,,,,,,,0,,,76,80
6707,note_on,227,0,0,,,,,,,,,0,,,76,0
6720,note_on,13,0,0,,,,,,,,,0,,,71,80
6935,note_on,455,0,1,,,,,,,,,0,,,60,0
6947,note_on,227,0,0,,,,,,,,,0,,,71,0
6960,note_on,13,0,0,,,,,,,,,0,,,69,80
7187,note_on,227,0,0,,,,,,,,,0,,,69,0
7200,note_on,265,0,1,,,,,,,,,0,,,55,80
7200,note_on,13,0,0,,,,,,,,,0,,,79,80
7427,note_on,227,0,0,,,,,,,,,0,,,79,0
7427,note_on,227,0,1,,,,,,,,,0,,,55,0
7440,note_on,13,0,1,,,,,,,,,0,,,57,80
7440,note_on,13,0,0,,,,,,,,,0,,,78,80
7667,note_on,227,0,1,,,,,,,,,0,,,57,0
7667,note_on,227,0,0,,,,,,,,,0,,,78,0
7680,note_on,13,0,1,,,,,,,,,0,,,59,80
7680,note_on,13,0,0,,,,,,,,,0,,,76,80
7721,note_on,41,0,0,,,,,,,,,0,,,76,0
7725,note_on,4,0,0,,,,,,,,,0,,,78,80
7766,note_on,41,0,0,,,,,,,,,0,,,78,0
7770,note_on,4,0,0,,,,,,,,,0,,,76,80
7811,note_on,41,0,0,,,,,,,,,0,,,76,0
7815,note_on,4,0,0,,,,,,,,,0,,,78,80
7856,note_on,41,0,0,,,,,,,,,0,,,78,0
7860,note_on,4,0,0,,,,,,,,,0,,,75,80
7907,note_on,227,0,1,,,,,,,,,0,,,59,0
7916,note_on,56,0,0,,,,,,,,,0,,,75,0
7920,note_on,13,0,1,,,,,,,,,0,,,60,80
7920,note_on,4,0,0,,,,,,,,,0,,,76,80
8147,note_on,227,0,0,,,,,,,,,0,,,76,0
8160,note_on,13,0,0,,,,,,,,,0,,,69,80
8375,note_on,455,0,1,,,,,,,,,0,,,60,0
8387,note_on,227,0,0,,,,,,,,,0,,,69,0
8400,note_on,13,0,0,,,,,,,,,0,,,67,80
8627,note_on,227,0,0,,,,,,,,,0,,,67,0
8640,note_on,13,0,0,,,,,,,,,0,,,79,80
8640,note_on,265,0,1,,,,,,,,,0,,,55,80
8867,note_on,227,0,1,,,,,,,,,0,,,55,0
8867,note_on,227,0,0,,,,,,,,,0,,,79,0
8880,note_on,13,0,0,,,,,,,,,0,,,78,80
8880,note_on,13,0,1,,,,,,,,,0,,,57,80
9107,note_on,227,0,0,,,,,,,,,0,,,78,0
9107,note_on,227,0,1,,,,,,,,,0,,,57,0
9120,note_on,13,0,1,,,,,,,,,0,,,59,80
9120,note_on,13,0,0,,,,,,,,,0,,,76,80
9161,note_on,41,0,0,,,,,,,,,0,,,76,0
9165,note_on,4,0,0,,,,,,,,,0,,,78,80
9206,note_on,41,0,0,,,,,,,,,0,,,78,0
9210,note_on,4,0,0,,,,,,,,,0,,,76,80
9251,note_on,41,0,0,,,,,,,,,0,,,76,0
9255,note_on,4,0,0,,,,,,,,,0,,,78,80
9296,note_on,41,0,0,,,,,,,,,0,,,78,0
9300,note_on,4,0,0,,,,,,,,,0,,,75,80
9347,note_on,227,0,1,,,,,,,,,0,,,59,0
9356,note_on,56,0,0,,,,,,,,,0,,,75,0
9360,note_on,13,0,1,,,,,,,,,0,,,60,80
9360,note_on,4,0,0,,,,,,,,,0,,,76,80
9587,note_on,227,0,0,,,,,,,,,0,,,76,0
9600,note_on,13,0,0,,,,,,,,,0,,,67,80
9815,note_on,455,0,1,,,,,,,,,0,,,60,0
9827,note_on,227,0,0,,,,,,,,,0,,,67,0
9840,note_on,13,0,0,,,,,,,,,0,,,66,80
10067,note_on,227,0,0,,,,,,,,,0,,,66,0
10080,note_on,265,0,1,,,,,,,,,0,,,57,80
10080,note_on,13,0,0,,,,,,,,,0,,,76,80
10307,note_on,227,0,0,,,,,,,,,0,,,76,0
10307,note_on,227,0,1,,,,,,,,,0,,,57,0
10320,note_on,13,0,0,,,,,,,,,0,,,67,80
10320,note_on,13,0,1,,,,,,,,,0,,,59,80
10547,note_on,227,0,0,,,,,,,,,0,,,67,0
10547,note_on,227,0,1,,,,,,,,,0,,,59,0
10560,note_on,13,0,1,,,,,,,,,0,,,47,80
10560,note_on,13,0,0,,,,,,,,,0,,,66,80
10787,note_on,227,0,1,,,,,,,,,0,,,47,0
10787,note_on,227,0,0,,,,,,,,,0,,,66,0
10800,note_on,13,0,0,,,,,,,,,0,,,64,80
10800,note_on,13,0,1,,,,,,,,,0,,,52,80
11483,note_on,683,0,1,,,,,,,,,0,,,52,0
11483,note_on,683,0,0,,,,,,,,,0,,,64,0
11520,note_on,37,0,1,,,,,,,,,0,,,52,80
11520,time_signature,37,1,0,3,8,24,8,,,,,,,,,
11520,note_on,0,0,0,,,,,,,,,0,,,71,80
11520,set_tempo,0,1,0,,,,,,500000,,,,,,,
11690,note_on,170,0,1,,,,,,,,,0,,,52,0
11700,note_on,10,0,1,,,,,,,,,0,,,54,80
11747,note_on,227,0,0,,,,,,,,,0,,,71,0
11756,note_on,56,0,1,,,,,,,,,0,,,54,0
11760,note_on,4,0,1,,,,,,,,,0,,,55,80
11760,note_on,13,0,0,,,,,,,,,0,,,76,80
11987,note_on,227,0,0,,,,,,,,,0,,,76,0
11987,note_on,227,0,1,,,,,,,,,0,,,55,0
12000,note_on,13,0,0,,,,,,,,,0,,,75,80
12000,note_on,13,0,1,,,,,,,,,0,,,54,80
12227,note_on,227,0,0,,,,,,,,,0,,,75,0
12227,note_on,227,0,1,,,,,,,,,0,,,54,0
12240,note_on,13,0,1,,,,,,,,,0,,,52,80
12240,note_on,13,0,0,,,,,,,,,0,,,76,80
12467,note_on,227,0,0,,,,,,,,,0,,,76,0
12467,note_on,227,0,1,,,,,,,,,0,,,52,0
12480,note_on,13,0,1,,,,,,,,,0,,,40,80
12480,note_on,13,0,0,,,,,,,,,0,,,64,80
12593,note_on,113,0,0,,,,,,,,,0,,,64,0
12600,note_on,7,0,0,,,,,,,,,0,,,66,80
12707,note_on,227,0,1,,,,,,,,,0,,,40,0
12713,note_on,113,0,0,,,,,,,,,0,,,66,0
12720,note_on,7,0,0,,,,,,,,,0,,,67,80
12833,note_on,113,0,0,,,,,,,,,0,,,67,0
12840,note_on,7,0,0,,,,,,,,,0,,,69,80
12953,note_on,113,0,0,,,,,,,,,0,,,69,0
12960,note_on,7,0,0,,,,,,,,,0,,,71,80
12960,note_on,253,0,1,,,,,,,,,0,,,55,80
13073,note_on,113,0,0,,,,,,,,,0,,,71,0
13080,note_on,7,0,0,,,,,,,,,0,,,73,80
13187,note_on,227,0,1,,,,,,,,,0,,,55,0
13193,note_on,113,0,0,,,,,,,,,0,,,73,0
13200,note_on,13,0,1,,,,,,,,,0,,,54,80
13200,note_on,7,0,0,,,,,,,,,0,,,74,80
13427,note_on,227,0,0,,,,,,,,,0,,,74,0
13427,note_on,227,0,1,,,,,,,,,0,,,54,0
13440,note_on,13,0,1,,,,,,,,,0,,,52,80
13440,note_on,13,0,0,,,,,,,,,0,,,73,80
13667,note_on,227,0,0,,,,,,,,,0,,,73,0
13667,note_on,227,0,1,,,,,,,,,0,,,52,0
13680,note_on,13,0,0,,,,,,,,,0,,,74,80
13680,note_on,13,0,1,,,,,,,,,0,,,50,80
13907,note_on,227,0,1,,,,,,,,,0,,,50,0
13907,note_on,227,0,0,,,,,,,,,0,,,74,0
13920,note_on,13,0,0,,,,,,,,,0,,,62,80
13920,note_on,13,0,1,,,,,,,,,0,,,38,80
14033,note_on,113,0,0,,,,,,,,,0,,,62,0
14040,note_on,7,0,0,,,,,,,,,0,,,64,80
14147,note_on,227,0,1,,,,,,,,,0,,,38,0
14153,note_on,113,0,0,,,,,,,,,0,,,64,0
14160,note_on,7,0,0,,,,,,,,,0,,,66,80
14273,note_on,113,0,0,,,,,,,,,0,,,66,0
14280,note_on,7,0,0,,,,,,,,,0,,,67,80
14393,note_on,113,0,0,,,,,,,,,0,,,67,0
14400,note_on,253,0,1,,,,,,,,,0,,,50,80
14400,note_on,7,0,0,,,,,,,,,0,,,69,80
14513,note_on,113,0,0,,,,,,,,,0,,,69,0
14520,note_on,7,0,0,,,,,,,,,0,,,71,80
14627,note_on,227,0,1,,,,,,,,,0,,,50,0
14633,note_on,113,0,0,,,,,,,,,0,,,71,0
14640,note_on,7,0,0,,,,,,,,,0,,,72,80
14640,note_on,13,0,1,,,,,,,,,0,,,52,80
14867,note_on,227,0,0,,,,,,,,,0,,,72,0
14867,note_on,227,0,1,,,,,,,,,0,,,52,0
14880,note_on,13,0,1,,,,,,,,,0,,,50,80
14880,note_on,13,0,0,,,,,,,,,0,,,71,80
15107,note_on,227,0,0,,,,,,,,,0,,,71,0
15107,note_on,227,0,1,,,,,,,,,0,,,50,0
15120,note_on,13,0,1,,,,,,,,,0,,,48,80
15120,note_on,13,0,0,,,,,,,,,0,,,69,80
15175,note_on,55,0,0,,,,,,,,,0,,,69,0
15180,note_on,5,0,0,,,,,,,,,0,,,71,80
15235,note_on,55,0,0,,,,,,,,,0,,,71,0
15240,note_on,5,0,0,,,,,,,,,0,,,69,80
15295,note_on,55,0,0,,,,,,,,,0,,,69,0
15300,note_on,5,0,0,,,,,,,,,0,,,71,80
15347,note_on,227,0,1,,,,,,,,,0,,,48,0
15355,note_on,55,0,0,,,,,,,,,0,,,71,0
15360,note_on,5,0,0,,,,,,,,,0,,,67,80
15360,note_on,13,0,1,,,,,,,,,0,,,47,80
15587,note_on,227,0,1,,,,,,,,,0,,,47,0
15587,note_on,227,0,0,,,,,,,,,0,,,67,0
15840,note_on,253,0,1,,,,,,,,,0,,,57,80
15840,note_on,253,0,0,,,,,,,,,0,,,78,80
16067,note_on,227,0,1,,,,,,,,,0,,,57,0
16067,note_on,227,0,0,,,,,,,,,0,,,78,0
16080,note_on,13,0,1,,,,,,,,,0,,,60,80
16080,note_on,13,0,0,,,,,,,,,0,,,76,80
16193,note_on,113,0,0,,,,,,,,,0,,,76,0
16200,note_on,7,0,0,,,,,,,,,0,,,75,80
16307,note_on,227,0,1,,,,,,,,,0,,,60,0
16313,note_on,113,0,0,,,,,,,,,0,,,75,0
16320,note_on,7,0,0,,,,,,,,,0,,,76,80
16320,note_on,13,0,1,,,,,,,,,0,,,57,80
16433,note_on,113,0,0,,,,,,,,,0,,,76,0
16440,note_on,7,0,0,,,,,,,,,0,,,78,80
16547,note_on,227,0,1,,,,,,,,,0,,,57,0
16553,note_on,113,0,0,,,,,,,,,0,,,78,0
16560,note_on,13,0,1,,,,,,,,,0,,,59,80
16560,note_on,7,0,0,,,,,,,,,0,,,75,80
17015,note_on,455,0,0,,,,,,,,,0,,,75,0
17015,note_on,455,0,1,,,,,,,,,0,,,59,0
17280,note_on,265,0,1,,,,,,,,,0,,,55,80
17280,note_on,265,0,0,,,,,,,,,0,,,79,80
17507,note_on,227,0,1,,,,,,,,,0,,,55,0
17507,note_on,227,0,0,,,,,,,,,0,,,79,0
17520,note_on,13,0,0,,,,,,,,,0,,,78,80
17520,note_on,13,0,1,,,,,,,,,0,,,57,80
17747,note_on,227,0,0,,,,,,,,,0,,,78,0
17747,note_on,227,0,1,,,,,,,,,0,,,57,0
17760,note_on,13,0,1,,,,,,,,,0,,,59,80
17760,note_on,13,0,0,,,,,,,,,0,,,76,80
17801,note_on,41,0,0,,,,,,,,,0,,,76,0
17805,note_on,4,0,0,,,,,,,,,0,,,78,80
17846,note_on,41,0,0,,,,,,,,,0,,,78,0
17850,note_on,4,0,0,,,,,,,,,0,,,76,80
17891,note_on,41,0,0,,,,,,,,,0,,,76,0
17895,note_on,4,0,0,,,,,,,,,0,,,78,80
17936,note_on,41,0,0,,,,,,,,,0,,,78,0
17940,note_on,4,0,0,,,,,,,,,0,,,75,80
17987,note_on,227,0,1,,,,,,,,,0,,,59,0
17996,note_on,56,0,0,,,,,,,,,0,,,75,0
18000,note_on,4,0,0,,,,,,,,,0,,,76,80
18000,note_on,13,0,1,,,,,,,,,0,,,60,80
18227,note_on,227,0,0,,,,,,,,,0,,,76,0
18240,note_on,13,0,0,,,,,,,,,0,,,71,80
18455,note_on,455,0,1,,,,,,,,,0,,,60,0
18467,note_on,227,0,0,,,,,,,,,0,,,71,0
18480,note_on,13,0,0,,,,,,,,,0,,,69,80
18707,note_on,227,0,0,,,,,,,,,0,,,69,0
18720,note_on,13,0,0,,,,,,,,,0,,,79,80
18720,note_on,265,0,1,,,,,,,,,0,,,55,80
18947,note_on,227,0,1,,,,,,,,,0,,,55,0
18947,note_on,227,0,0,,,,,,,,,0,,,79,0
18960,note_on,13,0,0,,,,,,,,,0,,,78,80
18960,note_on,13,0,1,,,,,,,,,0,,,57,80
19187,note_on,227,0,1,,,,,,,,,0,,,57,0
19187,note_on,227,0,0,,,,,,,,,0,,,78,0
19200,note_on,13,0,1,,,,,,,,,0,,,59,80
19200,note_on,13,0,0,,,,,,,,,0,,,76,80
19241,note_on,41,0,0,,,,,,,,,0,,,76,0
19245,note_on,4,0,0,,,,,,,,,0,,,78,80
19286,note_on,41,0,0,,,,,,,,,0,,,78,0
19290,note_on,4,0,0,,,,,,,,,0,,,76,80
19331,note_on,41,0,0,,,,,,,,,0,,,76,0
19335,note_on,4,0,0,,,,,,,,,0,,,78,80
19376,note_on,41,0,0,,,,,,,,,0,,,78,0
19380,note_on,4,0,0,,,,,,,,,0,,,75,80
19427,note_on,227,0,1,,,,,,,,,0,,,59,0
19436,note_on,56,0,0,,,,,,,,,0,,,75,0
19440,note_on,4,0,0,,,,,,,,,0,,,76,80
19440,note_on,13,0,1,,,,,,,,,0,,,60,80
19667,note_on,227,0,0,,,,,,,,,0,,,76,0
19680,note_on,13,0,0,,,,,,,,,0,,,69,80
19895,note_on,455,0,1,,,,,,,,,0,,,60,0
19907,note_on,227,0,0,,,,,,,,,0,,,69,0
19920,note_on,13,0,0,,,,,,,,,0,,,67,80
20147,note_on,227,0,0,,,,,,,,,0,,,67,0
20160,note_on,265,0,1,,,,,,,,,0,,,55,80
20160,note_on,13,0,0,,,,,,,,,0,,,79,80
20387,note_on,227,0,1,,,,,,,,,0,,,55,0
20387,note_on,227,0,0,,,,,,,,,0,,,79,0
20400,note_on,13,0,0,,,,,,,,,0,,,78,80
20400,note_on,13,0,1,,,,,,,,,0,,,57,80
20627,note_on,227,0,1,,,,,,,,,0,,,57,0
20627,note_on,227,0,0,,,,,,,,,0,,,78,0
20640,note_on,13,0,0,,,,,,,,,0,,,76,80
20640,note_on,13,0,1,,,,,,,,,0,,,59,80
20681,note_on,41,0,0,,,,,,,,,0,,,76,0
20685,note_on,4,0,0,,,,,,,,,0,,,78,80
20726,note_on,41,0,0,,,,,,,,,0,,,78,0
20730,note_on,4,0,0,,,,,,,,,0,,,76,80
20771,note_on,41,0,0,,,,,,,,,0,,,76,0
20775,note_on,4,0,0,,,,,,,,,0,,,78,80
20816,note_on,41,0,0,,,,,,,,,0,,,78,0
20820,note_on,4,0,0,,,,,,,,,0,,,75,80
20867,note_on,227,0,1,,,,,,,,,0,,,59,0
20876,note_on,56,0,0,,,,,,,,,0,,,75,0
20880,note_on,4,0,0,,,,,,,,,0,,,76,80
20880,note_on,13,0,1,,,,,,,,,0,,,60,80
21107,note_on,227,0,0,,,,,,,,,0,,,76,0
21120,note_on,13,0,0,,,,,,,,,0,,,67,80
21335,note_on,455,0,1,,,,,,,,,0,,,60,0
21347,note_on,227,0,0,,,,,,,,,0,,,67,0
21360,note_on,13,0,0,,,,,,,,,0,,,66,80
21587,note_on,227,0,0,,,,,,,,,0,,,66,0
21600,note_on,13,0,0,,,,,,,,,0,,,76,80
21600,note_on,265,0,1,,,,,,,,,0,,,57,80
21827,note_on,227,0,0,,,,,,,,,0,,,76,0
21827,note_on,227,0,1,,,,,,,,,0,,,57,0
21840,note_on,13,0,1,,,,,,,,,0,,,59,80
21840,note_on,13,0,0,,,,,,,,,0,,,67,80
22067,note_on,227,0,0,,,,,,,,,0,,,67,0
22067,note_on,227,0,1,,,,,,,,,0,,,59,0
22080,note_on,13,0,0,,,,,,,,,0,,,66,80
22080,note_on,13,0,1,,,,,,,,,0,,,47,80
22307,note_on,227,0,0,,,,,,,,,0,,,66,0
22307,note_on,227,0,1,,,,,,,,,0,,,47,0
22320,note_on,13,0,0,,,,,,,,,0,,,64,80
22320,note_on,13,0,1,,,,,,,,,0,,,52,80
23003,note_on,683,0,1,,,,,,,,,0,,,52,0
23003,note_on,683,0,0,,,,,,,,,0,,,64,0
23040,note_on,37,0,0,,,,,,,,,0,,,67,80
23040,note_on,37,0,1,,,,,,,,,0,,,52,80
23267,note_on,227,0,0,,,,,,,,,0,,,67,0
23280,note_on,13,0,0,,,,,,,,,0,,,79,80
23495,note_on,455,0,1,,,,,,,,,0,,,52,0
23507,note_on,227,0,0,,,,,,,,,0,,,79,0
23520,note_on,13,0,0,,,,,,,,,0,,,78,80
23520,note_on,25,0,1,,,,,,,,,0,,,51,80
23747,note_on,227,0,0,,,,,,,,,0,,,78,0
23747,note_on,227,0,1,,,,,,,,,0,,,51,0
23760,note_on,13,0,0,,,,,,,,,0,,,79,80
23760,note_on,13,0,1,,,,,,,,,0,,,52,80
23987,note_on,227,0,0,,,,,,,,,0,,,79,0
24000,note_on,13,0,0,,,,,,,,,0,,,78,80
24113,note_on,113,0,0,,,,,,,,,0,,,78,0
24120,note_on,7,0,0,,,,,,,,,0,,,76,80
24215,note_on,455,0,1,,,,,,,,,0,,,52,0
24233,note_on,113,0,0,,,,,,,,,0,,,76,0
24240,note_on,25,0,1,,,,,,,,,0,,,54,80
24240,note_on,7,0,0,,,,,,,,,0,,,74,80
24467,note_on,227,0,1,,,,,,,,,0,,,54,0
24467,note_on,227,0,0,,,,,,,,,0,,,74,0
24480,note_on,13,0,1,,,,,,,,,0,,,55,80
24480,note_on,13,0,0,,,,,,,,,0,,,64,80
24707,note_on,227,0,0,,,,,,,,,0,,,64,0
24720,note_on,13,0,0,,,,,,,,,0,,,76,80
24935,note_on,455,0,1,,,,,,,,,0,,,55,0
24947,note_on,227,0,0,,,,,,,,,0,,,76,0
24960,note_on,25,0,1,,,,,,,,,0,,,54,80
24960,note_on,13,0,0,,,,,,,,,0,,,74,80
25187,note_on,227,0,1,,,,,,,,,0,,,54,0
25187,note_on,227,0,0,,,,,,,,,0,,,74,0
25200,note_on,13,0,0,,,,,,,,,0,,,76,80
25200,note_on,13,0,1,,,,,,,,,0,,,52,80
25427,note_on,227,0,0,,,,,,,,,0,,,76,0
25440,note_on,13,0,0,,,,,,,,,0,,,74,80
25553,note_on,113,0,0,,,,,,,,,0,,,74,0
25560,note_on,7,0,0,,,,,,,,,0,,,72,80
25655,note_on,455,0,1,,,,,,,,,0,,,52,0
25673,note_on,113,0,0,,,,,,,,,0,,,72,0
25680,note_on,25,0,1,,,,,,,,,0,,,55,80
25680,note_on,7,0,0,,,,,,,,,0,,,71,80
25907,note_on,227,0,1,,,,,,,,,0,,,55,0
25907,note_on,227,0,0,,,,,,,,,0,,,71,0
25920,note_on,13,0,0,,,,,,,,,0,,,72,80
25920,note_on,13,0,1,,,,,,,,,0,,,57,80
26147,note_on,227,0,1,,,,,,,,,0,,,57,0
26147,note_on,227,0,0,,,,,,,,,0,,,72,0
26160,note_on,13,0,1,,,,,,,,,0,,,48,80
26160,note_on,13,0,0,,,,,,,,,0,,,81,80
26387,note_on,227,0,1,,,,,,,,,0,,,48,0
26387,note_on,227,0,0,,,,,,,,,0,,,81,0
26400,note_on,13,0,0,,,,,,,,,0,,,72,80
26400,note_on,13,0,1,,,,,,,,,0,,,57,80
26627,note_on,227,0,0,,,,,,,,,0,,,72,0
26627,note_on,227,0,1,,,,,,,,,0,,,57,0
26640,note_on,13,0,0,,,,,,,,,0,,,71,80
26640,note_on,13,0,1,,,,,,,,,0,,,55,80
26867,note_on,227,0,0,,,,,,,,,0,,,71,0
26867,note_on,227,0,1,,,,,,,,,0,,,55,0
26880,note_on,13,0,0,,,,,,,,,0,,,79,80
26880,note_on,13,0,1,,,,,,,,,0,,,47,80
27107,note_on,227,0,1,,,,,,,,,0,,,47,0
27107,note_on,227,0,0,,,,,,,,,0,,,79,0
27120,note_on,13,0,0,,,,,,,,,0,,,71,80
27120,note_on,13,0,1,,,,,,,,,0,,,55,80
27347,note_on,227,0,1,,,,,,,,,0,,,55,0
27347,note_on,227,0,0,,,,,,,,,0,,,71,0
27360,note_on,13,0,1,,,,,,,,,0,,,48,80
27360,note_on,13,0,0,,,,,,,,,0,,,69,80
27587,note_on,227,0,1,,,,,,,,,0,,,48,0
27587,note_on,227,0,0,,,,,,,,,0,,,69,0
27600,note_on,13,0,0,,,,,,,,,0,,,74,80
27600,note_on,13,0,1,,,,,,,,,0,,,50,80
27827,note_on,227,0,0,,,,,,,,,0,,,74,0
27827,note_on,227,0,1,,,,,,,,,0,,,50,0
27840,note_on,13,0,1,,,,,,,,,0,,,38,80
27840,note_on,13,0,0,,,,,,,,,0,,,66,80
28067,note_on,227,0,1,,,,,,,,,0,,,38,0
28067,note_on,227,0,0,,,,,,,,,0,,,66,0
28080,note_on,13,0,0,,,,,,,,,0,,,67,80
28080,note_on,13,0,1,,,,,,,,,0,,,43,80
28193,note_on,113,0,0,,,,,,,,,0,,,67,0
28200,note_on,7,0,0,,,,,,,,,0,,,66,80
28313,note_on,113,0,0,,,,,,,,,0,,,66,0
28320,note_on,7,0,0,,,,,,,,,0,,,67,80
28433,note_on,113,0,0,,,,,,,,,0,,,67,0
28440,note_on,7,0,0,,,,,,,,,0,,,69,80
28553,note_on,113,0,0,,,,,,,,,0,,,69,0
28560,note_on,7,0,0,,,,,,,,,0,,,71,80
28673,note_on,113,0,0,,,,,,,,,0,,,71,0
28680,note_on,7,0,0,,,,,,,,,0,,,67,80
28763,note_on,683,0,1,,,,,,,,,0,,,43,0
28793,note_on,113,0,0,,,,,,,,,0,,,67,0
28800,note_on,37,0,1,,,,,,,,,0,,,45,80
28800,note_on,7,0,0,,,,,,,,,0,,,72,80
28913,note_on,113,0,0,,,,,,,,,0,,,72,0
28920,note_on,7,0,0,,,,,,,,,0,,,71,80
29033,note_on,113,0,0,,,,,,,,,0,,,71,0
29040,note_on,7,0,0,,,,,,,,,0,,,72,80
29153,note_on,113,0,0,,,,,,,,,0,,,72,0
29160,note_on,7,0,0,,,,,,,,,0,,,74,80
29273,note_on,113,0,0,,,,,,,,,0,,,74,0
29280,note_on,7,0,0,,,,,,,,,0,,,76,80
29393,note_on,113,0,0,,,,,,,,,0,,,76,0
29400,note_on,7,0,0,,,,,,,,,0,,,72,80
29483,note_on,683,0,1,,,,,,,,,0,,,45,0
29513,note_on,113,0,0,,,,,,,,,0,,,72,0
29520,note_on,7,0,0,,,,,,,,,0,,,74,80
29520,note_on,37,0,1,,,,,,,,,0,,,47,80
29633,note_on,113,0,0,,,,,,,,,0,,,74,0
29640,note_on,7,0,0,,,,,,,,,0,,,76,80
29753,note_on,113,0,0,,,,,,,,,0,,,76,0
29760,note_on,7,0,0,,,,,,,,,0,,,78,80
29873,note_on,113,0,0,,,,,,,,,0,,,78,0
29880,note_on,7,0,0,,,,,,,,,0,,,74,80
29975,note_on,455,0,1,,,,,,,,,0,,,47,0
29993,note_on,113,0,0,,,,,,,,,0,,,74,0
30000,note_on,7,0,0,,,,,,,,,0,,,79,80
30000,note_on,25,0,1,,,,,,,,,0,,,52,80
30227,note_on,227,0,1,,,,,,,,,0,,,52,0
30227,note_on,227,0,0,,,,,,,,,0,,,79,0
30240,note_on,13,0,1,,,,,,,,,0,,,48,80
30240,note_on,13,0,0,,,,,,,,,0,,,71,80
30467,note_on,227,0,0,,,,,,,,,0,,,71,0
30467,note_on,227,0,1,,,,,,,,,0,,,48,0
30480,note_on,13,0,0,,,,,,,,,0,,,72,80
30480,note_on,13,0,1,,,,,,,,,0,,,45,80
30707,note_on,227,0,0,,,,,,,,,0,,,72,0
30707,note_on,227,0,1,,,,,,,,,0,,,45,0
30720,note_on,13,0,1,,,,,,,,,0,,,50,80
30720,note_on,13,0,0,,,,,,,,,0,,,74,80
30947,note_on,227,0,0,,,,,,,,,0,,,74,0
30947,note_on,227,0,1,,,,,,,,,0,,,50,0
30960,note_on,13,0,0,,,,,,,,,0,,,67,80
30960,note_on,13,0,1,,,,,,,,,0,,,55,80
31073,note_on,113,0,1,,,,,,,,,0,,,55,0
31080,note_on,7,0,1,,,,,,,,,0,,,54,80
31193,note_on,113,0,1,,,,,,,,,0,,,54,0
31200,note_on,7,0,1,,,,,,,,,0,,,55,80
31313,note_on,113,0,1,,,,,,,,,0,,,55,0
31320,note_on,7,0,1,,,,,,,,,0,,,57,80
31415,note_on,455,0,0,,,,,,,,,0,,,67,0
31433,note_on,113,0,1,,,,,,,,,0,,,57,0
31440,note_on,7,0,1,,,,,,,,,0,,,59,80
31553,note_on,113,0,1,,,,,,,,,0,,,59,0
31560,note_on,7,0,1,,,,,,,,,0,,,55,80
31673,note_on,113,0,1,,,,,,,,,0,,,55,0
31680,note_on,265,0,0,,,,,,,,,0,,,81,80
31680,note_on,7,0,1,,,,,,,,,0,,,57,80
31793,note_on,113,0,0,,,,,,,,,0,,,81,0
31800,note_on,7,0,0,,,,,,,,,0,,,79,80
31907,note_on,227,0,1,,,,,,,,,0,,,57,0
31913,note_on,113,0,0,,,,,,,,,0,,,79,0
31920,note_on,7,0,0,,,,,,,,,0,,,78,80
31920,note_on,13,0,1,,,,,,,,,0,,,45,80
32033,note_on,113,0,0,,,,,,,,,0,,,78,0
32040,note_on,7,0,0,,,,,,,,,0,,,76,80
32147,note_on,227,0,1,,,,,,,,,0,,,45,0
32153,note_on,113,0,0,,,,,,,,,0,,,76,0
32160,note_on,7,0,0,,,,,,,,,0,,,75,80
32160,note_on,13,0,1,,,,,,,,,0,,,57,80
32273,note_on,113,0,0,,,,,,,,,0,,,75,0
32280,note_on,7,0,0,,,,,,,,,0,,,73,80
32387,note_on,227,0,1,,,,,,,,,0,,,57,0
32393,note_on,113,0,0,,,,,,,,,0,,,73,0
32400,note_on,7,0,0,,,,,,,,,0,,,71,80
32400,note_on,13,0,1,,,,,,,,,0,,,57,80
32627,note_on,227,0,0,,,,,,,,,0,,,71,0
32640,note_on,13,0,0,,,,,,,,,0,,,73,80
32753,note_on,113,0,0,,,,,,,,,0,,,73,0
32760,note_on,7,0,0,,,,,,,,,0,,,75,80
32855,note_on,455,0,1,,,,,,,,,0,,,57,0
32873,note_on,113,0,0,,,,,,,,,0,,,75,0
32880,note_on,25,0,1,,,,,,,,,0,,,55,80
32880,note_on,7,0,0,,,,,,,,,0,,,76,80
33107,note_on,227,0,1,,,,,,,,,0,,,55,0
33107,note_on,227,0,0,,,,,,,,,0,,,76,0
33120,note_on,13,0,0,,,,,,,,,0,,,67,80
33120,note_on,13,0,1,,,,,,,,,0,,,57,80
33233,note_on,113,0,0,,,,,,,,,0,,,67,0
33240,note_on,7,0,0,,,,,,,,,0,,,66,80
33347,note_on,227,0,1,,,,,,,,,0,,,57,0
33353,note_on,113,0,0,,,,,,,,,0,,,66,0
33360,note_on,7,0,0,,,,,,,,,0,,,66,80
33360,note_on,13,0,1,,,,,,,,,0,,,59,80
33415,note_on,55,0,0,,,,,,,,,0,,,66,0
33419,note_on,4,0,0,,,,,,,,,0,,,67,80
33474,note_on,55,0,0,,,,,,,,,0,,,67,0
33479,note_on,5,0,0,,,,,,,,,0,,,66,80
33534,note_on,55,0,0,,,,,,,,,0,,,66,0
33540,note_on,6,0,0,,,,,,,,,0,,,67,80
33587,note_on,227,0,1,,,,,,,,,0,,,59,0
33595,note_on,55,0,0,,,,,,,,,0,,,67,0
33599,note_on,4,0,0,,,,,,,,,0,,,66,80
33600,note_on,13,0,1,,,,,,,,,0,,,47,80
33654,note_on,55,0,0,,,,,,,,,0,,,66,0
33659,note_on,5,0,0,,,,,,,,,0,,,67,80
33714,note_on,55,0,0,,,,,,,,,0,,,67,0
33720,note_on,6,0,0,,,,,,,,,0,,,64,80
33827,note_on,227,0,1,,,,,,,,,0,,,47,0
33833,note_on,113,0,0,,,,,,,,,0,,,64,0
33840,note_on,13,0,1,,,,,,,,,0,,,52,80
33840,note_on,7,0,0,,,,,,,,,0,,,64,80
34067,note_on,227,0,1,,,,,,,,,0,,,52,0
34080,note_on,13,0,1,,,,,,,,,0,,,47,80
34307,note_on,227,0,1,,,,,,,,,0,,,47,0
34320,note_on,13,0,1,,,,,,,,,0,,,40,80
34523,note_on,683,0,0,,,,,,,,,0,,,64,0
34547,note_on,227,0,1,,,,,,,,,0,,,40,0
34560,note_on,37,0,0,,,,,,,,,0,,,67,80
34560,note_on,13,0,1,,,,,,,,,0,,,52,80
34787,note_on,227,0,0,,,,,,,,,0,,,67,0
34800,note_on,13,0,0,,,,,,,,,0,,,79,80
35015,note_on,455,0,1,,,,,,,,,0,,,52,0
35027,note_on,227,0,0,,,,,,,,,0,,,79,0
35040,note_on,13,0,0,,,,,,,,,0,,,78,80
35040,note_on,25,0,1,,,,,,,,,0,,,51,80
35267,note_on,227,0,1,,,,,,,,,0,,,51,0
35267,note_on,227,0,0,,,,,,,,,0,,,78,0
35280,note_on,13,0,0,,,,,,,,,0,,,79,80
35280,note_on,13,0,1,,,,,,,,,0,,,52,80
35507,note_on,227,0,0,,,,,,,,,0,,,79,0
35520,note_on,13,0,0,,,,,,,,,0,,,78,80
35633,note_on,113,0,0,,,,,,,,,0,,,78,0
35640,note_on,7,0,0,,,,,,,,,0,,,76,80
35735,note_on,455,0,1,,,,,,,,,0,,,52,0
35753,note_on,113,0,0,,,,,,,,,0,,,76,0
35760,note_on,7,0,0,,,,,,,,,0,,,74,80
35760,note_on,25,0,1,,,,,,,,,0,,,54,80
35987,note_on,227,0,1,,,,,,,,,0,,,54,0
35987,note_on,227,0,0,,,,,,,,,0,,,74,0
36000,note_on,13,0,0,,,,,,,,,0,,,64,80
36000,note_on,13,0,1,,,,,,,,,0,,,55,80
36227,note_on,227,0,0,,,,,,,,,0,,,64,0
36240,note_on,13,0,0,,,,,,,,,0,,,76,80
36455,note_on,455,0,1,,,,,,,,,0,,,55,0
36467,note_on,227,0,0,,,,,,,,,0,,,76,0
36480,note_on,13,0,0,,,,,,,,,0,,,74,80
36480,note_on,25,0,1,,,,,,,,,0,,,54,80
36707,note_on,227,0,0,,,,,,,,,0,,,74,0
36707,note_on,227,0,1,,,,,,,,,0,,,54,0
36720,note_on,13,0,1,,,,,,,,,0,,,52,80
36720,note_on,13,0,0,,,,,,,,,0,,,76,80
36947,note_on,227,0,0,,,,,,,,,0,,,76,0
36960,note_on,13,0,0,,,,,,,,,0,,,74,80
37073,note_on,113,0,0,,,,,,,,,0,,,74,0
37080,note_on,7,0,0,,,,,,,,,0,,,72,80
37175,note_on,455,0,1,,,,,,,,,0,,,52,0
37193,note_on,113,0,0,,,,,,,,,0,,,72,0
37200,note_on,25,0,1,,,,,,,,,0,,,55,80
37200,note_on,7,0,0,,,,,,,,,0,,,71,80
37427,note_on,227,0,0,,,,,,,,,0,,,71,0
37427,note_on,227,0,1,,,,,,,,,0,,,55,0
37440,note_on,13,0,0,,,,,,,,,0,,,72,80
37440,note_on,13,0,1,,,,,,,,,0,,,57,80
37667,note_on,227,0,1,,,,,,,,,0,,,57,0
37667,note_on,227,0,0,,,,,,,,,0,,,72,0
37680,note_on,13,0,1,,,,,,,,,0,,,48,80
37680,note_on,13,0,0,,,,,,,,,0,,,81,80
37907,note_on,227,0,1,,,,,,,,,0,,,48,0
37907,note_on,227,0,0,,,,,,,,,0,,,81,0
37920,note_on,13,0,0,,,,,,,,,0,,,72,80
37920,note_on,13,0,1,,,,,,,,,0,,,57,80
38147,note_on,227,0,1,,,,,,,,,0,,,57,0
38147,note_on,227,0,0,,,,,,,,,0,,,72,0
38160,note_on,13,0,1,,,,,,,,,0,,,55,80
38160,note_on,13,0,0,,,,,,,,,0,,,71,80
38387,note_on,227,0,1,,,,,,,,,0,,,55,0
38387,note_on,227,0,0,,,,,,,,,0,,,71,0
38400,note_on,13,0,0,,,,,,,,,0,,,79,80
38400,note_on,13,0,1,,,,,,,,,0,,,47,80
38627,note_on,227,0,0,,,,,,,,,0,,,79,0
38627,note_on,227,0,1,,,,,,,,,0,,,47,0
38640,note_on,13,0,0,,,,,,,,,0,,,71,80
38640,note_on,13,0,1,,,,,,,,,0,,,55,80
38867,note_on,227,0,1,,,,,,,,,0,,,55,0
38867,note_on,227,0,0,,,,,,,,,0,,,71,0
38880,note_on,13,0,1,,,,,,,,,0,,,48,80
38880,note_on,13,0,0,,,,,,,,,0,,,69,80
39107,note_on,227,0,1,,,,,,,,,0,,,48,0
39107,note_on,227,0,0,,,,,,,,,0,,,69,0
39120,note_on,13,0,0,,,,,,,,,0,,,74,80
39120,note_on,13,0,1,,,,,,,,,0,,,50,80
39347,note_on,227,0,0,,,,,,,,,0,,,74,0
39347,note_on,227,0,1,,,,,,,,,0,,,50,0
39360,note_on,13,0,0,,,,,,,,,0,,,66,80
39360,note_on,13,0,1,,,,,,,,,0,,,38,80
39587,note_on,227,0,1,,,,,,,,,0,,,38,0
39587,note_on,227,0,0,,,,,,,,,0,,,66,0
39600,note_on,13,0,0,,,,,,,,,0,,,67,80
39600,note_on,13,0,1,,,,,,,,,0,,,43,80
39713,note_on,113,0,0,,,,,,,,,0,,,67,0
39720,note_on,7,0,0,,,,,,,,,0,,,66,80
39833,note_on,113,0,0,,,,,,,,,0,,,66,0
39840,note_on,7,0,0,,,,,,,,,0,,,67,80
39953,note_on,113,0,0,,,,,,,,,0,,,67,0
39960,note_on,7,0,0,,,,,,,,,0,,,69,80
40073,note_on,113,0,0,,,,,,,,,0,,,69,0
40080,note_on,7,0,0,,,,,,,,,0,,,71,80
40193,note_on,113,0,0,,,,,,,,,0,,,71,0
40200,note_on,7,0,0,,,,,,,,,0,,,67,80
40283,note_on,683,0,1,,,,,,,,,0,,,43,0
40313,note_on,113,0,0,,,,,,,,,0,,,67,0
40320,note_on,7,0,0,,,,,,,,,0,,,72,80
40320,note_on,37,0,1,,,,,,,,,0,,,45,80
40433,note_on,113,0,0,,,,,,,,,0,,,72,0
40440,note_on,7,0,0,,,,,,,,,0,,,71,80
40553,note_on,113,0,0,,,,,,,,,0,,,71,0
40560,note_on,7,0,0,,,,,,,,,0,,,72,80
40673,note_on,113,0,0,,,,,,,,,0,,,72,0
40680,note_on,7,0,0,,,,,,,,,0,,,74,80
40793,note_on,113,0,0,,,,,,,,,0,,,74,0
40800,note_on,7,0,0,,,,,,,,,0,,,76,80
40913,note_on,113,0,0,,,,,,,,,0,,,76,0
40920,note_on,7,0,0,,,,,,,,,0,,,72,80
41003,note_on,683,0,1,,,,,,,,,0,,,45,0
41033,note_on,113,0,0,,,,,,,,,0,,,72,0
41040,note_on,7,0,0,,,,,,,,,0,,,74,80
41040,note_on,37,0,1,,,,,,,,,0,,,47,80
41153,note_on,113,0,0,,,,,,,,,0,,,74,0
41160,note_on,7,0,0,,,,,,,,,0,,,76,80
41273,note_on,113,0,0,,,,,,,,,0,,,76,0
41280,note_on,7,0,0,,,,,,,,,0,,,78,80
41393,note_on,113,0,0,,,,,,,,,0,,,78,0
41400,note_on,7,0,0,,,,,,,,,0,,,74,80
41495,note_on,455,0,1,,,,,,,,,0,,,47,0
41513,note_on,113,0,0,,,,,,,,,0,,,74,0
41520,note_on,25,0,1,,,,,,,,,0,,,52,80
41520,note_on,7,0,0,,,,,,,,,0,,,79,80
41747,note_on,227,0,0,,,,,,,,,0,,,79,0
41747,note_on,227,0,1,,,,,,,,,0,,,52,0
41760,note_on,13,0,0,,,,,,,,,0,,,71,80
41760,note_on,13,0,1,,,,,,,,,0,,,48,80
41987,note_on,227,0,1,,,,,,,,,0,,,48,0
41987,note_on,227,0,0,,,,,,,,,0,,,71,0
42000,note_on,13,0,0,,,,,,,,,0,,,72,80
42000,note_on,13,0,1,,,,,,,,,0,,,45,80
42227,note_on,227,0,0,,,,,,,,,0,,,72,0
42227,note_on,227,0,1,,,,,,,,,0,,,45,0
42240,note_on,13,0,0,,,,,,,,,0,,,74,80
42240,note_on,13,0,1,,,,,,,,,0,,,50,80
42467,note_on,227,0,1,,,,,,,,,0,,,50,0
42467,note_on,227,0,0,,,,,,,,,0,,,74,0
42480,note_on,13,0,1,,,,,,,,,0,,,55,80
42480,note_on,13,0,0,,,,,,,,,0,,,67,80
42593,note_on,113,0,1,,,,,,,,,0,,,55,0
42600,note_on,7,0,1,,,,,,,,,0,,,54,80
42713,note_on,113,0,1,,,,,,,,,0,,,54,0
42720,note_on,7,0,1,,,,,,,,,0,,,55,80
42833,note_on,113,0,1,,,,,,,,,0,,,55,0
42840,note_on,7,0,1,,,,,,,,,0,,,57,80
42935,note_on,455,0,0,,,,,,,,,0,,,67,0
42953,note_on,113,0,1,,,,,,,,,0,,,57,0
42960,note_on,7,0,1,,,,,,,,,0,,,59,80
43073,note_on,113,0,1,,,,,,,,,0,,,59,0
43080,note_on,7,0,1,,,,,,,,,0,,,55,80
43193,note_on,113,0,1,,,,,,,,,0,,,55,0
43200,note_on,265,0,0,,,,,,,,,0,,,81,80
43200,note_on,7,0,1,,,,,,,,,0,,,57,80
43313,note_on,113,0,0,,,,,,,,,0,,,81,0
43320,note_on,7,0,0,,,,,,,,,0,,,79,80
43427,note_on,227,0,1,,,,,,,,,0,,,57,0
43433,note_on,113,0,0,,,,,,,,,0,,,79,0
43440,note_on,13,0,1,,,,,,,,,0,,,45,80
43440,note_on,7,0,0,,,,,,,,,0,,,78,80
43553,note_on,113,0,0,,,,,,,,,0,,,78,0
43560,note_on,7,0,0,,,,,,,,,0,,,76,80
43667,note_on,227,0,1,,,,,,,,,0,,,45,0
43673,note_on,113,0,0,,,,,,,,,0,,,76,0
43680,note_on,7,0,0,,,,,,,,,0,,,75,80
43680,note_on,13,0,1,,,,,,,,,0,,,57,80
43793,note_on,113,0,0,,,,,,,,,0,,,75,0
43800,note_on,7,0,0,,,,,,,,,0,,,73,80
43907,note_on,227,0,1,,,,,,,,,0,,,57,0
43913,note_on,113,0,0,,,,,,,,,0,,,73,0
43920,note_on,13,0,1,,,,,,,,,0,,,57,80
43920,note_on,7,0,0,,,,,,,,,0,,,71,80
44147,note_on,227,0,0,,,,,,,,,0,,,71,0
44160,note_on,13,0,0,,,,,,,,,0,,,73,80
44273,note_on,113,0,0,,,,,,,,,0,,,73,0
44280,note_on,7,0,0,,,,,,,,,0,,,75,80
44375,note_on,455,0,1,,,,,,,,,0,,,57,0
44393,note_on,113,0,0,,,,,,,,,0,,,75,0
44400,note_on,7,0,0,,,,,,,,,0,,,76,80
44400,note_on,25,0,1,,,,,,,,,0,,,55,80
44627,note_on,227,0,1,,,,,,,,,0,,,55,0
44627,note_on,227,0,0,,,,,,,,,0,,,76,0
44640,note_on,13,0,1,,,,,,,,,0,,,57,80
44640,note_on,13,0,0,,,,,,,,,0,,,67,80
44753,note_on,113,0,0,,,,,,,,,0,,,67,0
44760,note_on,7,0,0,,,,,,,,,0,,,66,80
44867,note_on,227,0,1,,,,,,,,,0,,,57,0
44873,note_on,113,0,0,,,,,,,,,0,,,66,0
44880,note_on,13,0,1,,,,,,,,,0,,,59,80
44880,note_on,7,0,0,,,,,,,,,0,,,66,80
44935,note_on,55,0,0,,,,,,,,,0,,,66,0
44939,note_on,4,0,0,,,,,,,,,0,,,67,80
44994,note_on,55,0,0,,,,,,,,,0,,,67,0
44999,note_on,5,0,0,,,,,,,,,0,,,66,80
45054,note_on,55,0,0,,,,,,,,,0,,,66,0
45060,note_on,6,0,0,,,,,,,,,0,,,67,80
45107,note_on,227,0,1,,,,,,,,,0,,,59,0
45115,note_on,55,0,0,,,,,,,,,0,,,67,0
45119,note_on,4,0,0,,,,,,,,,0,,,66,80
45120,note_on,13,0,1,,,,,,,,,0,,,47,80
45174,note_on,55,0,0,,,,,,,,,0,,,66,0
45179,note_on,5,0,0,,,,,,,,,0,,,67,80
45234,note_on,55,0,0,,,,,,,,,0,,,67,0
45240,note_on,6,0,0,,,,,,,,,0,,,64,80
45347,note_on,227,0,1,,,,,,,,,0,,,47,0
45353,note_on,113,0,0,,,,,,,,,0,,,64,0
45360,note_on,7,0,0,,,,,,,,,0,,,64,80
45360,note_on,13,0,1,,,,,,,,,0,,,52,80
45587,note_on,227,0,1,,,,,,,,,0,,,52,0
45600,note_on,13,0,1,,,,,,,,,0,,,47,80
45827,note_on,227,0,1,,,,,,,,,0,,,47,0
45840,note_on,13,0,1,,,,,,,,,0,,,40,80
46043,note_on,683,0,0,,,,,,,,,0,,,64,0
46067,note_on,227,0,1,,,,,,,,,0,,,40,0
46080,key_signature,0,1,0,,,,,A,,,,,,,,
46080,note_on,0,0,1,,,,,,,,,0,,,57,80
46080,key_signature,13,1,1,,,,,A,,,,,,,,
46080,time_signature,37,1,0,3,4,24,8,,,,,,,,,
46080,note_on,0,0,0,,,,,,,,,0,,,69,80
46535,note_on,455,0,1,,,,,,,,,0,,,57,0
46535,note_on,455,0,0,,,,,,,,,0,,,69,0
46560,note_on,25,0,0,,,,,,,,,0,,,71,80
46560,note_on,25,0,1,,,,,,,,,0,,,50,80
47015,note_on,455,0,0,,,,,,,,,0,,,71,0
47015,note_on,455,0,1,,,,,,,,,0,,,50,0
47040,note_on,25,0,0,,,,,,,,,0,,,69,80
47040,note_on,25,0,1,,,,,,,,,0,,,52,80
47267,note_on,227,0,0,,,,,,,,,0,,,69,0
47280,note_on,13,0,0,,,,,,,,,0,,,68,80
47495,note_on,455,0,1,,,,,,,,,0,,,52,0
47496,end_of_track,1,1,1,,,,,,,,,,,,,
47507,note_on,227,0,0,,,,,,,,,0,,,68,0
47508,end_of_track,1,1,0,,,,,,,,,,,,,
