tick,type,time,meta,track,numerator,denominator,clocks_per_click,notated_32nd_notes_per_beat,key,tempo,control,value,channel,program,port,note,velocity
0,control_change,0,0,0,,,,,,,121,0,0,,,,
0,time_signature,0,1,0,3,8,24,8,,,,,,,,,
0,set_tempo,0,1,0,,,,,,500000,,,,,,,
0,program_change,0,0,0,,,,,,,,,0,0,,,
0,track_name,0,1,0,,,,,,,,,,,,,
0,note_on,0,0,1,,,,,,,,,0,,,55,80
0,note_on,0,0,0,,,,,,,,,0,,,79,80
0,midi_port,0,1,1,,,,,,,,,,,0,,
0,midi_port,0,1,0,,,,,,,,,,,0,,
0,key_signature,0,1,1,,,,,G,,,,,,,,
0,key_signature,0,1,0,,,,,G,,,,,,,,
0,track_name,0,1,1,,,,,,,,,,,,,
0,control_change,0,0,0,,,,,,,7,99,0,,,,
0,control_change,0,0,0,,,,,,,101,0,0,,,,
0,control_change,0,0,0,,,,,,,101,127,0,,,,
0,control_change,0,0,0,,,,,,,100,127,0,,,,
0,control_change,0,0,0,,,,,,,10,64,0,,,,
0,control_change,0,0,0,,,,,,,91,0,0,,,,
0,control_change,0,0,0,,,,,,,6,12,0,,,,
0,control_change,0,0,0,,,,,,,93,0,0,,,,
0,control_change,0,0,0,,,,,,,100,0,0,,,,
227,note_on,227,0,0,,,,,,,,,0,,,79,0
227,note_on,227,0,1,,,,,,,,,0,,,55,0
240,note_on,13,0,1,,,,,,,,,0,,,59,80
240,note_on,13,0,0,,,,,,,,,0,,,74,80
695,note_on,455,0,0,,,,,,,,,0,,,74,0
695,note_on,455,0,1,,,,,,,,,0,,,59,0
720,note_on,25,0,1,,,,,,,,,0,,,60,80
720,note_on,25,0,0,,,,,,,,,0,,,76,80
890,note_on,170,0,0,,,,,,,,,0,,,76,0
900,note_on,10,0,0,,,,,,,,,0,,,78,80
956,note_on,56,0,0,,,,,,,,,0,,,78,0
960,note_on,4,0,0,,,,,,,,,0,,,79,80
1175,note_on,455,0,1,,,,,,,,,0,,,60,0
1187,note_on,227,0,0,,,,,,,,,0,,,79,0
1200,note_on,13,0,0,,,,,,,,,0,,,74,80
1200,note_on,25,0,1,,,,,,,,,0,,,59,80
1427,note_on,227,0,0,,,,,,,,,0,,,74,0
1427,note_on,227,0,1,,,,,,,,,0,,,59,0
1440,note_on,13,0,0,,,,,,,,,0,,,67,80
1440,note_on,13,0,1,,,,,,,,,0,,,52,80
1667,note_on,227,0,1,,,,,,,,,0,,,52,0
1667,note_on,227,0,0,,,,,,,,,0,,,67,0
1680,note_on,13,0,0,,,,,,,,,0,,,69,80
1680,note_on,13,0,1,,,,,,,,,0,,,54,80
1907,note_on,227,0,1,,,,,,,,,0,,,54,0
1920,note_on,13,0,1,,,,,,,,,0,,,50,80
2021,note_on,341,0,0,,,,,,,,,0,,,69,0
2040,note_on,19,0,0,,,,,,,,,0,,,71,80
2096,note_on,56,0,0,,,,,,,,,0,,,71,0
2100,note_on,4,0,0,,,,,,,,,0,,,72,80
2147,note_on,227,0,1,,,,,,,,,0,,,50,0
2156,note_on,56,0,0,,,,,,,,,0,,,72,0
2160,note_on,4,0,0,,,,,,,,,0,,,71,80
2160,note_on,13,0,1,,,,,,,,,0,,,55,80
2387,note_on,227,0,0,,,,,,,,,0,,,71,0
2387,note_on,227,0,1,,,,,,,,,0,,,55,0
2400,note_on,13,0,0,,,,,,,,,0,,,69,80
2400,note_on,13,0,1,,,,,,,,,0,,,48,80
2513,note_on,113,0,0,,,,,,,,,0,,,69,0
2520,note_on,7,0,0,,,,,,,,,0,,,67,80
2627,note_on,227,0,1,,,,,,,,,0,,,48,0
2633,note_on,113,0,0,,,,,,,,,0,,,67,0
2640,note_on,13,0,1,,,,,,,,,0,,,50,80
2640,note_on,7,0,0,,,,,,,,,0,,,66,80
2867,note_on,227,0,1,,,,,,,,,0,,,50,0
2867,note_on,227,0,0,,,,,,,,,0,,,66,0
2880,note_on,13,0,0,,,,,,,,,0,,,74,80
2880,note_on,13,0,1,,,,,,,,,0,,,47,80
2993,note_on,113,0,0,,,,,,,,,0,,,74,0
3000,note_on,7,0,0,,,,,,,,,0,,,67,80
3107,note_on,227,0,1,,,,,,,,,0,,,47,0
3113,note_on,113,0,0,,,,,,,,,0,,,67,0
3120,note_on,13,0,1,,,,,,,,,0,,,48,80
3120,note_on,7,0,0,,,,,,,,,0,,,66,80
3233,note_on,113,0,0,,,,,,,,,0,,,66,0
3240,note_on,7,0,0,,,,,,,,,0,,,67,80
3296,note_on,56,0,0,,,,,,,,,0,,,67,0
3300,note_on,4,0,0,,,,,,,,,0,,,69,80
3347,note_on,227,0,1,,,,,,,,,0,,,48,0
3356,note_on,56,0,0,,,,,,,,,0,,,69,0
3360,note_on,13,0,1,,,,,,,,,0,,,50,80
3360,note_on,4,0,0,,,,,,,,,0,,,62,80
3587,note_on,227,0,1,,,,,,,,,0,,,50,0
3587,note_on,227,0,0,,,,,,,,,0,,,62,0
3600,note_on,13,0,0,,,,,,,,,0,,,74,80
3600,note_on,13,0,1,,,,,,,,,0,,,47,80
3713,note_on,113,0,0,,,,,,,,,0,,,74,0
3720,note_on,7,0,0,,,,,,,,,0,,,67,80
3827,note_on,227,0,1,,,,,,,,,0,,,47,0
3833,note_on,113,0,0,,,,,,,,,0,,,67,0
3840,note_on,7,0,0,,,,,,,,,0,,,66,80
3840,note_on,13,0,1,,,,,,,,,0,,,48,80
3953,note_on,113,0,0,,,,,,,,,0,,,66,0
3960,note_on,7,0,0,,,,,,,,,0,,,67,80
4016,note_on,56,0,0,,,,,,,,,0,,,67,0
4020,note_on,4,0,0,,,,,,,,,0,,,69,80
4067,note_on,227,0,1,,,,,,,,,0,,,48,0
4076,note_on,56,0,0,,,,,,,,,0,,,69,0
4080,note_on,13,0,1,,,,,,,,,0,,,50,80
4080,note_on,4,0,0,,,,,,,,,0,,,62,80
4307,note_on,227,0,1,,,,,,,,,0,,,50,0
4307,note_on,227,0,0,,,,,,,,,0,,,62,0
4320,note_on,13,0,1,,,,,,,,,0,,,47,80
4320,note_on,13,0,0,,,,,,,,,0,,,79,80
4547,note_on,227,0,1,,,,,,,,,0,,,47,0
4547,note_on,227,0,0,,,,,,,,,0,,,79,0
4560,note_on,13,0,1,,,,,,,,,0,,,59,80
4560,note_on,13,0,0,,,,,,,,,0,,,74,80
5015,note_on,455,0,0,,,,,,,,,0,,,74,0
5015,note_on,455,0,1,,,,,,,,,0,,,59,0
5040,note_on,25,0,0,,,,,,,,,0,,,76,80
5040,note_on,25,0,1,,,,,,,,,0,,,60,80
5210,note_on,170,0,0,,,,,,,,,0,,,76,0
5220,note_on,10,0,0,,,,,,,,,0,,,78,80
5276,note_on,56,0,0,,,,,,,,,0,,,78,0
5280,note_on,4,0,0,,,,,,,,,0,,,79,80
5495,note_on,455,0,1,,,,,,,,,0,,,60,0
5507,note_on,227,0,0,,,,,,,,,0,,,79,0
5520,note_on,25,0,1,,,,,,,,,0,,,59,80
5520,note_on,13,0,0,,,,,,,,,0,,,74,80
5747,note_on,227,0,0,,,,,,,,,0,,,74,0
5747,note_on,227,0,1,,,,,,,,,0,,,59,0
5760,note_on,13,0,1,,,,,,,,,0,,,52,80
5760,note_on,13,0,0,,,,,,,,,0,,,67,80
5987,note_on,227,0,0,,,,,,,,,0,,,67,0
5987,note_on,227,0,1,,,,,,,,,0,,,52,0
6000,note_on,13,0,1,,,,,,,,,0,,,54,80
6000,note_on,13,0,0,,,,,,,,,0,,,72,80
6227,note_on,227,0,1,,,,,,,,,0,,,54,0
6240,note_on,13,0,1,,,,,,,,,0,,,50,80
6455,note_on,455,0,0,,,,,,,,,0,,,72,0
6467,note_on,227,0,1,,,,,,,,,0,,,50,0
6480,note_on,25,0,0,,,,,,,,,0,,,71,80
6480,note_on,13,0,1,,,,,,,,,0,,,55,80
6707,note_on,227,0,1,,,,,,,,,0,,,55,0
6707,note_on,227,0,0,,,,,,,,,0,,,71,0
6720,note_on,13,0,1,,,,,,,,,0,,,48,80
6720,note_on,13,0,0,,,,,,,,,0,,,69,80
6833,note_on,113,0,0,,,,,,,,,0,,,69,0
6840,note_on,7,0,0,,,,,,,,,0,,,67,80
6947,note_on,227,0,1,,,,,,,,,0,,,48,0
6953,note_on,113,0,0,,,,,,,,,0,,,67,0
6960,note_on,13,0,1,,,,,,,,,0,,,50,80
6960,note_on,7,0,0,,,,,,,,,0,,,66,80
7187,note_on,227,0,1,,,,,,,,,0,,,50,0
7187,note_on,227,0,0,,,,,,,,,0,,,66,0
7200,note_on,13,0,0,,,,,,,,,0,,,74,80
7200,note_on,13,0,1,,,,,,,,,0,,,47,80
7427,note_on,227,0,0,,,,,,,,,0,,,74,0
7427,note_on,227,0,1,,,,,,,,,0,,,47,0
7440,note_on,13,0,1,,,,,,,,,0,,,48,80
7440,note_on,13,0,0,,,,,,,,,0,,,72,80
7553,note_on,113,0,0,,,,,,,,,0,,,72,0
7560,note_on,7,0,0,,,,,,,,,0,,,71,80
7667,note_on,227,0,1,,,,,,,,,0,,,48,0
7673,note_on,113,0,0,,,,,,,,,0,,,71,0
7680,note_on,13,0,1,,,,,,,,,0,,,50,80
7680,note_on,7,0,0,,,,,,,,,0,,,69,80
7907,note_on,227,0,1,,,,,,,,,0,,,50,0
7907,note_on,227,0,0,,,,,,,,,0,,,69,0
7920,note_on,13,0,1,,,,,,,,,0,,,52,80
7920,note_on,13,0,0,,,,,,,,,0,,,79,80
8147,note_on,227,0,0,,,,,,,,,0,,,79,0
8147,note_on,227,0,1,,,,,,,,,0,,,52,0
8160,note_on,13,0,1,,,,,,,,,0,,,54,80
8160,note_on,13,0,0,,,,,,,,,0,,,78,80
8273,note_on,113,0,0,,,,,,,,,0,,,78,0
8280,note_on,7,0,0,,,,,,,,,0,,,76,80
8387,note_on,227,0,1,,,,,,,,,0,,,54,0
8393,note_on,113,0,0,,,,,,,,,0,,,76,0
8400,note_on,13,0,1,,,,,,,,,0,,,55,80
8400,note_on,7,0,0,,,,,,,,,0,,,74,80
8627,note_on,227,0,0,,,,,,,,,0,,,74,0
8627,note_on,227,0,1,,,,,,,,,0,,,55,0
8640,note_on,13,0,0,,,,,,,,,0,,,71,80
8640,note_on,13,0,1,,,,,,,,,0,,,48,80
8753,note_on,113,0,0,,,,,,,,,0,,,71,0
8760,note_on,7,0,0,,,,,,,,,0,,,69,80
8867,note_on,227,0,1,,,,,,,,,0,,,48,0
8873,note_on,113,0,0,,,,,,,,,0,,,69,0
8880,note_on,13,0,1,,,,,,,,,0,,,50,80
8880,note_on,7,0,0,,,,,,,,,0,,,69,80
9107,note_on,227,0,1,,,,,,,,,0,,,50,0
9120,note_on,13,0,1,,,,,,,,,0,,,38,80
9221,note_on,341,0,0,,,,,,,,,0,,,69,0
9240,note_on,19,0,0,,,,,,,,,0,,,67,80
9347,note_on,227,0,1,,,,,,,,,0,,,38,0
9353,note_on,113,0,0,,,,,,,,,0,,,67,0
9360,note_on,7,0,0,,,,,,,,,0,,,67,80
9360,note_on,13,0,1,,,,,,,,,0,,,43,80
9587,note_on,227,0,1,,,,,,,,,0,,,43,0
9600,note_on,13,0,1,,,,,,,,,0,,,47,80
9827,note_on,227,0,1,,,,,,,,,0,,,47,0
9840,note_on,13,0,1,,,,,,,,,0,,,50,80
10043,note_on,683,0,0,,,,,,,,,0,,,67,0
10067,note_on,227,0,1,,,,,,,,,0,,,50,0
10080,note_on,0,0,0,,,,,,,,,0,,,79,80
10080,set_tempo,0,1,0,,,,,,500000,,,,,,,
10080,note_on,0,0,1,,,,,,,,,0,,,55,80
10080,key_signature,0,1,0,,,,,G,,,,,,,,
10080,time_signature,37,1,0,3,8,24,8,,,,,,,,,
10080,key_signature,13,1,1,,,,,G,,,,,,,,
10307,note_on,227,0,0,,,,,,,,,0,,,79,0
10307,note_on,227,0,1,,,,,,,,,0,,,55,0
10320,note_on,13,0,1,,,,,,,,,0,,,59,80
10320,note_on,13,0,0,,,,,,,,,0,,,74,80
10775,note_on,455,0,1,,,,,,,,,0,,,59,0
10775,note_on,455,0,0,,,,,,,,,0,,,74,0
10800,note_on,25,0,0,,,,,,,,,0,,,76,80
10800,note_on,25,0,1,,,,,,,,,0,,,60,80
10970,note_on,170,0,0,,,,,,,,,0,,,76,0
10980,note_on,10,0,0,,,,,,,,,0,,,78,80
11036,note_on,56,0,0,,,,,,,,,0,,,78,0
11040,note_on,4,0,0,,,,,,,,,0,,,79,80
11255,note_on,455,0,1,,,,,,,,,0,,,60,0
11267,note_on,227,0,0,,,,,,,,,0,,,79,0
11280,note_on,25,0,1,,,,,,,,,0,,,59,80
11280,note_on,13,0,0,,,,,,,,,0,,,74,80
11507,note_on,227,0,1,,,,,,,,,0,,,59,0
11507,note_on,227,0,0,,,,,,,,,0,,,74,0
11520,note_on,13,0,1,,,,,,,,,0,,,52,80
11520,note_on,13,0,0,,,,,,,,,0,,,67,80
11747,note_on,227,0,0,,,,,,,,,0,,,67,0
11747,note_on,227,0,1,,,,,,,,,0,,,52,0
11760,note_on,13,0,0,,,,,,,,,0,,,69,80
11760,note_on,13,0,1,,,,,,,,,0,,,54,80
11987,note_on,227,0,1,,,,,,,,,0,,,54,0
12000,note_on,13,0,1,,,,,,,,,0,,,50,80
12101,note_on,341,0,0,,,,,,,,,0,,,69,0
12120,note_on,19,0,0,,,,,,,,,0,,,71,80
12176,note_on,56,0,0,,,,,,,,,0,,,71,0
12180,note_on,4,0,0,,,,,,,,,0,,,72,80
12227,note_on,227,0,1,,,,,,,,,0,,,50,0
12236,note_on,56,0,0,,,,,,,,,0,,,72,0
12240,note_on,13,0,1,,,,,,,,,0,,,55,80
12240,note_on,4,0,0,,,,,,,,,0,,,71,80
12467,note_on,227,0,1,,,,,,,,,0,,,55,0
12467,note_on,227,0,0,,,,,,,,,0,,,71,0
12480,note_on,13,0,1,,,,,,,,,0,,,48,80
12480,note_on,13,0,0,,,,,,,,,0,,,69,80
12593,note_on,113,0,0,,,,,,,,,0,,,69,0
12600,note_on,7,0,0,,,,,,,,,0,,,67,80
12707,note_on,227,0,1,,,,,,,,,0,,,48,0
12713,note_on,113,0,0,,,,,,,,,0,,,67,0
12720,note_on,13,0,1,,,,,,,,,0,,,50,80
12720,note_on,7,0,0,,,,,,,,,0,,,66,80
12947,note_on,227,0,1,,,,,,,,,0,,,50,0
12947,note_on,227,0,0,,,,,,,,,0,,,66,0
12960,note_on,13,0,1,,,,,,,,,0,,,47,80
12960,note_on,13,0,0,,,,,,,,,0,,,74,80
13073,note_on,113,0,0,,,,,,,,,0,,,74,0
13080,note_on,7,0,0,,,,,,,,,0,,,67,80
13187,note_on,227,0,1,,,,,,,,,0,,,47,0
13193,note_on,113,0,0,,,,,,,,,0,,,67,0
13200,note_on,7,0,0,,,,,,,,,0,,,66,80
13200,note_on,13,0,1,,,,,,,,,0,,,48,80
13313,note_on,113,0,0,,,,,,,,,0,,,66,0
13320,note_on,7,0,0,,,,,,,,,0,,,67,80
13376,note_on,56,0,0,,,,,,,,,0,,,67,0
13380,note_on,4,0,0,,,,,,,,,0,,,69,80
13427,note_on,227,0,1,,,,,,,,,0,,,48,0
13436,note_on,56,0,0,,,,,,,,,0,,,69,0
13440,note_on,4,0,0,,,,,,,,,0,,,62,80
13440,note_on,13,0,1,,,,,,,,,0,,,50,80
13667,note_on,227,0,1,,,,,,,,,0,,,50,0
13667,note_on,227,0,0,,,,,,,,,0,,,62,0
13680,note_on,13,0,1,,,,,,,,,0,,,47,80
13680,note_on,13,0,0,,,,,,,,,0,,,74,80
13793,note_on,113,0,0,,,,,,,,,0,,,74,0
13800,note_on,7,0,0,,,,,,,,,0,,,67,80
13907,note_on,227,0,1,,,,,,,,,0,,,47,0
13913,note_on,113,0,0,,,,,,,,,0,,,67,0
13920,note_on,13,0,1,,,,,,,,,0,,,48,80
13920,note_on,7,0,0,,,,,,,,,0,,,66,80
14033,note_on,113,0,0,,,,,,,,,0,,,66,0
14040,note_on,7,0,0,,,,,,,,,0,,,67,80
14096,note_on,56,0,0,,,,,,,,,0,,,67,0
14100,note_on,4,0,0,,,,,,,,,0,,,69,80
14147,note_on,227,0,1,,,,,,,,,0,,,48,0
14156,note_on,56,0,0,,,,,,,,,0,,,69,0
14160,note_on,13,0,1,,,,,,,,,0,,,50,80
14160,note_on,4,0,0,,,,,,,,,0,,,62,80
14387,note_on,227,0,1,,,,,,,,,0,,,50,0
14387,note_on,227,0,0,,,,,,,,,0,,,62,0
14400,note_on,13,0,0,,,,,,,,,0,,,79,80
14400,note_on,13,0,1,,,,,,,,,0,,,47,80
14627,note_on,227,0,0,,,,,,,,,0,,,79,0
14627,note_on,227,0,1,,,,,,,,,0,,,47,0
14640,note_on,13,0,0,,,,,,,,,0,,,74,80
14640,note_on,13,0,1,,,,,,,,,0,,,59,80
15095,note_on,455,0,0,,,,,,,,,0,,,74,0
15095,note_on,455,0,1,,,,,,,,,0,,,59,0
15120,note_on,25,0,1,,,,,,,,,0,,,60,80
15120,note_on,25,0,0,,,,,,,,,0,,,76,80
15290,note_on,170,0,0,,,,,,,,,0,,,76,0
15300,note_on,10,0,0,,,,,,,,,0,,,78,80
15356,note_on,56,0,0,,,,,,,,,0,,,78,0
15360,note_on,4,0,0,,,,,,,,,0,,,79,80
15575,note_on,455,0,1,,,,,,,,,0,,,60,0
15587,note_on,227,0,0,,,,,,,,,0,,,79,0
15600,note_on,13,0,0,,,,,,,,,0,,,74,80
15600,note_on,25,0,1,,,,,,,,,0,,,59,80
15827,note_on,227,0,0,,,,,,,,,0,,,74,0
15827,note_on,227,0,1,,,,,,,,,0,,,59,0
15840,note_on,13,0,0,,,,,,,,,0,,,67,80
15840,note_on,13,0,1,,,,,,,,,0,,,52,80
16067,note_on,227,0,1,,,,,,,,,0,,,52,0
16067,note_on,227,0,0,,,,,,,,,0,,,67,0
16080,note_on,13,0,0,,,,,,,,,0,,,72,80
16080,note_on,13,0,1,,,,,,,,,0,,,54,80
16307,note_on,227,0,1,,,,,,,,,0,,,54,0
16320,note_on,13,0,1,,,,,,,,,0,,,50,80
16535,note_on,455,0,0,,,,,,,,,0,,,72,0
16547,note_on,227,0,1,,,,,,,,,0,,,50,0
16560,note_on,13,0,1,,,,,,,,,0,,,55,80
16560,note_on,25,0,0,,,,,,,,,0,,,71,80
16787,note_on,227,0,1,,,,,,,,,0,,,55,0
16787,note_on,227,0,0,,,,,,,,,0,,,71,0
16800,note_on,13,0,1,,,,,,,,,0,,,48,80
16800,note_on,13,0,0,,,,,,,,,0,,,69,80
16913,note_on,113,0,0,,,,,,,,,0,,,69,0
16920,note_on,7,0,0,,,,,,,,,0,,,67,80
17027,note_on,227,0,1,,,,,,,,,0,,,48,0
17033,note_on,113,0,0,,,,,,,,,0,,,67,0
17040,note_on,13,0,1,,,,,,,,,0,,,50,80
17040,note_on,7,0,0,,,,,,,,,0,,,66,80
17267,note_on,227,0,0,,,,,,,,,0,,,66,0
17267,note_on,227,0,1,,,,,,,,,0,,,50,0
17280,note_on,13,0,0,,,,,,,,,0,,,74,80
17280,note_on,13,0,1,,,,,,,,,0,,,47,80
17507,note_on,227,0,0,,,,,,,,,0,,,74,0
17507,note_on,227,0,1,,,,,,,,,0,,,47,0
17520,note_on,13,0,1,,,,,,,,,0,,,48,80
17520,note_on,13,0,0,,,,,,,,,0,,,72,80
17633,note_on,113,0,0,,,,,,,,,0,,,72,0
17640,note_on,7,0,0,,,,,,,,,0,,,71,80
17747,note_on,227,0,1,,,,,,,,,0,,,48,0
17753,note_on,113,0,0,,,,,,,,,0,,,71,0
17760,note_on,13,0,1,,,,,,,,,0,,,50,80
17760,note_on,7,0,0,,,,,,,,,0,,,69,80
17987,note_on,227,0,0,,,,,,,,,0,,,69,0
17987,note_on,227,0,1,,,,,,,,,0,,,50,0
18000,note_on,13,0,1,,,,,,,,,0,,,52,80
18000,note_on,13,0,0,,,,,,,,,0,,,79,80
18227,note_on,227,0,1,,,,,,,,,0,,,52,0
18227,note_on,227,0,0,,,,,,,,,0,,,79,0
18240,note_on,13,0,0,,,,,,,,,0,,,78,80
18240,note_on,13,0,1,,,,,,,,,0,,,54,80
18353,note_on,113,0,0,,,,,,,,,0,,,78,0
18360,note_on,7,0,0,,,,,,,,,0,,,76,80
18467,note_on,227,0,1,,,,,,,,,0,,,54,0
18473,note_on,113,0,0,,,,,,,,,0,,,76,0
18480,note_on,13,0,1,,,,,,,,,0,,,55,80
18480,note_on,7,0,0,,,,,,,,,0,,,74,80
18707,note_on,227,0,1,,,,,,,,,0,,,55,0
18707,note_on,227,0,0,,,,,,,,,0,,,74,0
18720,note_on,13,0,0,,,,,,,,,0,,,71,80
18720,note_on,13,0,1,,,,,,,,,0,,,48,80
18833,note_on,113,0,0,,,,,,,,,0,,,71,0
18840,note_on,7,0,0,,,,,,,,,0,,,69,80
18947,note_on,227,0,1,,,,,,,,,0,,,48,0
18953,note_on,113,0,0,,,,,,,,,0,,,69,0
18960,note_on,13,0,1,,,,,,,,,0,,,50,80
18960,note_on,7,0,0,,,,,,,,,0,,,69,80
19187,note_on,227,0,1,,,,,,,,,0,,,50,0
19200,note_on,13,0,1,,,,,,,,,0,,,38,80
19301,note_on,341,0,0,,,,,,,,,0,,,69,0
19320,note_on,19,0,0,,,,,,,,,0,,,67,80
19427,note_on,227,0,1,,,,,,,,,0,,,38,0
19433,note_on,113,0,0,,,,,,,,,0,,,67,0
19440,note_on,7,0,0,,,,,,,,,0,,,67,80
19440,note_on,13,0,1,,,,,,,,,0,,,43,80
19667,note_on,227,0,1,,,,,,,,,0,,,43,0
19680,note_on,13,0,1,,,,,,,,,0,,,47,80
19907,note_on,227,0,1,,,,,,,,,0,,,47,0
19920,note_on,13,0,1,,,,,,,,,0,,,50,80
20123,note_on,683,0,0,,,,,,,,,0,,,67,0
20147,note_on,227,0,1,,,,,,,,,0,,,50,0
20160,note_on,37,0,0,,,,,,,,,0,,,74,80
20160,note_on,13,0,1,,,,,,,,,0,,,47,80
20387,note_on,227,0,0,,,,,,,,,0,,,74,0
20387,note_on,227,0,1,,,,,,,,,0,,,47,0
20400,note_on,13,0,1,,,,,,,,,0,,,59,80
20400,note_on,13,0,0,,,,,,,,,0,,,67,80
20855,note_on,455,0,0,,,,,,,,,0,,,67,0
20855,note_on,455,0,1,,,,,,,,,0,,,59,0
20880,note_on,25,0,0,,,,,,,,,0,,,76,80
20880,note_on,25,0,1,,,,,,,,,0,,,61,80
21107,note_on,227,0,0,,,,,,,,,0,,,76,0
21120,note_on,13,0,0,,,,,,,,,0,,,69,80
21335,note_on,455,0,1,,,,,,,,,0,,,61,0
21347,note_on,227,0,0,,,,,,,,,0,,,69,0
21360,note_on,13,0,0,,,,,,,,,0,,,78,80
21360,note_on,25,0,1,,,,,,,,,0,,,62,80
21587,note_on,227,0,0,,,,,,,,,0,,,78,0
21587,note_on,227,0,1,,,,,,,,,0,,,62,0
21600,note_on,13,0,1,,,,,,,,,0,,,55,80
21600,note_on,13,0,0,,,,,,,,,0,,,79,80
21827,note_on,227,0,0,,,,,,,,,0,,,79,0
21827,note_on,227,0,1,,,,,,,,,0,,,55,0
21840,note_on,13,0,1,,,,,,,,,0,,,57,80
21840,note_on,13,0,0,,,,,,,,,0,,,76,80
22295,note_on,455,0,1,,,,,,,,,0,,,57,0
22295,note_on,455,0,0,,,,,,,,,0,,,76,0
22320,note_on,25,0,1,,,,,,,,,0,,,54,80
22320,note_on,25,0,0,,,,,,,,,0,,,69,80
22547,note_on,227,0,0,,,,,,,,,0,,,69,0
22560,note_on,13,0,0,,,,,,,,,0,,,71,80
22673,note_on,113,0,0,,,,,,,,,0,,,71,0
22680,note_on,7,0,0,,,,,,,,,0,,,73,80
22775,note_on,455,0,1,,,,,,,,,0,,,54,0
22793,note_on,113,0,0,,,,,,,,,0,,,73,0
22800,note_on,7,0,0,,,,,,,,,0,,,74,80
22800,note_on,25,0,1,,,,,,,,,0,,,59,80
23027,note_on,227,0,0,,,,,,,,,0,,,74,0
23027,note_on,227,0,1,,,,,,,,,0,,,59,0
23040,note_on,13,0,0,,,,,,,,,0,,,79,80
23040,note_on,13,0,1,,,,,,,,,0,,,52,80
23267,note_on,227,0,0,,,,,,,,,0,,,79,0
23267,note_on,227,0,1,,,,,,,,,0,,,52,0
23280,note_on,13,0,0,,,,,,,,,0,,,76,80
23280,note_on,13,0,1,,,,,,,,,0,,,57,80
23735,note_on,455,0,1,,,,,,,,,0,,,57,0
23735,note_on,455,0,0,,,,,,,,,0,,,76,0
23760,note_on,25,0,1,,,,,,,,,0,,,54,80
23760,note_on,25,0,0,,,,,,,,,0,,,81,80
23987,note_on,227,0,0,,,,,,,,,0,,,81,0
24000,note_on,13,0,0,,,,,,,,,0,,,79,80
24113,note_on,113,0,0,,,,,,,,,0,,,79,0
24120,note_on,7,0,0,,,,,,,,,0,,,78,80
24215,note_on,455,0,1,,,,,,,,,0,,,54,0
24233,note_on,113,0,0,,,,,,,,,0,,,78,0
24240,note_on,25,0,1,,,,,,,,,0,,,59,80
24240,note_on,7,0,0,,,,,,,,,0,,,76,80
24353,note_on,113,0,0,,,,,,,,,0,,,76,0
24360,note_on,7,0,0,,,,,,,,,0,,,74,80
24467,note_on,227,0,1,,,,,,,,,0,,,59,0
24473,note_on,113,0,0,,,,,,,,,0,,,74,0
24480,note_on,13,0,1,,,,,,,,,0,,,55,80
24480,note_on,7,0,0,,,,,,,,,0,,,76,80
24707,note_on,227,0,1,,,,,,,,,0,,,55,0
24707,note_on,227,0,0,,,,,,,,,0,,,76,0
24720,note_on,13,0,0,,,,,,,,,0,,,73,80
24720,note_on,13,0,1,,,,,,,,,0,,,57,80
24947,note_on,227,0,1,,,,,,,,,0,,,57,0
24960,note_on,13,0,1,,,,,,,,,0,,,45,80
25175,note_on,455,0,0,,,,,,,,,0,,,73,0
25187,note_on,227,0,1,,,,,,,,,0,,,45,0
25200,note_on,13,0,1,,,,,,,,,0,,,50,80
25200,note_on,25,0,0,,,,,,,,,0,,,74,80
25883,note_on,683,0,1,,,,,,,,,0,,,50,0
25883,note_on,683,0,0,,,,,,,,,0,,,74,0
25920,note_on,37,0,1,,,,,,,,,0,,,55,80
25920,note_on,37,0,0,,,,,,,,,0,,,79,80
26147,note_on,227,0,0,,,,,,,,,0,,,79,0
26147,note_on,227,0,1,,,,,,,,,0,,,55,0
26160,note_on,13,0,0,,,,,,,,,0,,,74,80
26160,note_on,13,0,1,,,,,,,,,0,,,59,80
26615,note_on,455,0,1,,,,,,,,,0,,,59,0
26615,note_on,455,0,0,,,,,,,,,0,,,74,0
26640,note_on,25,0,0,,,,,,,,,0,,,76,80
26640,note_on,25,0,1,,,,,,,,,0,,,60,80
26810,note_on,170,0,0,,,,,,,,,0,,,76,0
26820,note_on,10,0,0,,,,,,,,,0,,,78,80
26867,note_on,227,0,1,,,,,,,,,0,,,60,0
26876,note_on,56,0,0,,,,,,,,,0,,,78,0
26880,note_on,4,0,0,,,,,,,,,0,,,79,80
26880,note_on,13,0,1,,,,,,,,,0,,,59,80
27107,note_on,227,0,0,,,,,,,,,0,,,79,0
27120,note_on,13,0,0,,,,,,,,,0,,,74,80
27335,note_on,455,0,1,,,,,,,,,0,,,59,0
27347,note_on,227,0,0,,,,,,,,,0,,,74,0
27360,note_on,25,0,1,,,,,,,,,0,,,52,80
27360,note_on,13,0,0,,,,,,,,,0,,,67,80
27587,note_on,227,0,0,,,,,,,,,0,,,67,0
27587,note_on,227,0,1,,,,,,,,,0,,,52,0
27600,note_on,13,0,0,,,,,,,,,0,,,69,80
27600,note_on,13,0,1,,,,,,,,,0,,,54,80
27827,note_on,227,0,1,,,,,,,,,0,,,54,0
27840,note_on,13,0,1,,,,,,,,,0,,,50,80
27941,note_on,341,0,0,,,,,,,,,0,,,69,0
27960,note_on,19,0,0,,,,,,,,,0,,,71,80
28016,note_on,56,0,0,,,,,,,,,0,,,71,0
28020,note_on,4,0,0,,,,,,,,,0,,,72,80
28067,note_on,227,0,1,,,,,,,,,0,,,50,0
28076,note_on,56,0,0,,,,,,,,,0,,,72,0
28080,note_on,13,0,1,,,,,,,,,0,,,55,80
28080,note_on,4,0,0,,,,,,,,,0,,,71,80
28307,note_on,227,0,1,,,,,,,,,0,,,55,0
28307,note_on,227,0,0,,,,,,,,,0,,,71,0
28320,note_on,13,0,1,,,,,,,,,0,,,48,80
28320,note_on,13,0,0,,,,,,,,,0,,,69,80
28433,note_on,113,0,0,,,,,,,,,0,,,69,0
28440,note_on,7,0,0,,,,,,,,,0,,,67,80
28547,note_on,227,0,1,,,,,,,,,0,,,48,0
28553,note_on,113,0,0,,,,,,,,,0,,,67,0
28560,note_on,13,0,1,,,,,,,,,0,,,50,80
28560,note_on,7,0,0,,,,,,,,,0,,,66,80
28787,note_on,227,0,1,,,,,,,,,0,,,50,0
28787,note_on,227,0,0,,,,,,,,,0,,,66,0
28800,note_on,13,0,0,,,,,,,,,0,,,74,80
28800,note_on,13,0,1,,,,,,,,,0,,,47,80
29027,note_on,227,0,1,,,,,,,,,0,,,47,0
29027,note_on,227,0,0,,,,,,,,,0,,,74,0
29040,note_on,13,0,0,,,,,,,,,0,,,72,80
29040,note_on,13,0,1,,,,,,,,,0,,,48,80
29153,note_on,113,0,0,,,,,,,,,0,,,72,0
29160,note_on,7,0,0,,,,,,,,,0,,,71,80
29267,note_on,227,0,1,,,,,,,,,0,,,48,0
29273,note_on,113,0,0,,,,,,,,,0,,,71,0
29280,note_on,13,0,1,,,,,,,,,0,,,50,80
29280,note_on,7,0,0,,,,,,,,,0,,,69,80
29507,note_on,227,0,1,,,,,,,,,0,,,50,0
29507,note_on,227,0,0,,,,,,,,,0,,,69,0
29520,note_on,13,0,0,,,,,,,,,0,,,79,80
29520,note_on,13,0,1,,,,,,,,,0,,,52,80
29747,note_on,227,0,1,,,,,,,,,0,,,52,0
29747,note_on,227,0,0,,,,,,,,,0,,,79,0
29760,note_on,13,0,1,,,,,,,,,0,,,54,80
29760,note_on,13,0,0,,,,,,,,,0,,,78,80
29873,note_on,113,0,0,,,,,,,,,0,,,78,0
29880,note_on,7,0,0,,,,,,,,,0,,,76,80
29987,note_on,227,0,1,,,,,,,,,0,,,54,0
29993,note_on,113,0,0,,,,,,,,,0,,,76,0
30000,note_on,7,0,0,,,,,,,,,0,,,74,80
30000,note_on,13,0,1,,,,,,,,,0,,,55,80
30227,note_on,227,0,1,,,,,,,,,0,,,55,0
30227,note_on,227,0,0,,,,,,,,,0,,,74,0
30240,note_on,13,0,0,,,,,,,,,0,,,72,80
30240,note_on,13,0,1,,,,,,,,,0,,,48,80
30353,note_on,113,0,0,,,,,,,,,0,,,72,0
30360,note_on,7,0,0,,,,,,,,,0,,,71,80
30467,note_on,227,0,1,,,,,,,,,0,,,48,0
30473,note_on,113,0,0,,,,,,,,,0,,,71,0
30480,note_on,13,0,1,,,,,,,,,0,,,50,80
30480,note_on,7,0,0,,,,,,,,,0,,,69,80
30707,note_on,227,0,1,,,,,,,,,0,,,50,0
30720,note_on,13,0,1,,,,,,,,,0,,,38,80
30821,note_on,341,0,0,,,,,,,,,0,,,69,0
30840,note_on,19,0,0,,,,,,,,,0,,,67,80
30947,note_on,227,0,1,,,,,,,,,0,,,38,0
30953,note_on,113,0,0,,,,,,,,,0,,,67,0
30960,note_on,7,0,0,,,,,,,,,0,,,67,80
30960,note_on,13,0,1,,,,,,,,,0,,,43,80
31643,note_on,683,0,1,,,,,,,,,0,,,43,0
31643,note_on,683,0,0,,,,,,,,,0,,,67,0
31680,set_tempo,0,1,0,,,,,,500000,,,,,,,
31680,key_signature,37,1,1,,,,,G,,,,,,,,
31680,key_signature,0,1,0,,,,,G,,,,,,,,
31680,note_on,0,0,1,,,,,,,,,0,,,55,80
31680,note_on,0,0,0,,,,,,,,,0,,,79,80
31680,time_signature,37,1,0,3,8,24,8,,,,,,,,,
31907,note_on,227,0,0,,,,,,,,,0,,,79,0
31907,note_on,227,0,1,,,,,,,,,0,,,55,0
31920,note_on,13,0,1,,,,,,,,,0,,,59,80
31920,note_on,13,0,0,,,,,,,,,0,,,74,80
32375,note_on,455,0,0,,,,,,,,,0,,,74,0
32375,note_on,455,0,1,,,,,,,,,0,,,59,0
32400,note_on,25,0,1,,,,,,,,,0,,,60,80
32400,note_on,25,0,0,,,,,,,,,0,,,76,80
32570,note_on,170,0,0,,,,,,,,,0,,,76,0
32580,note_on,10,0,0,,,,,,,,,0,,,78,80
32636,note_on,56,0,0,,,,,,,,,0,,,78,0
32640,note_on,4,0,0,,,,,,,,,0,,,79,80
32855,note_on,455,0,1,,,,,,,,,0,,,60,0
32867,note_on,227,0,0,,,,,,,,,0,,,79,0
32880,note_on,13,0,0,,,,,,,,,0,,,74,80
32880,note_on,25,0,1,,,,,,,,,0,,,59,80
33107,note_on,227,0,0,,,,,,,,,0,,,74,0
33107,note_on,227,0,1,,,,,,,,,0,,,59,0
33120,note_on,13,0,0,,,,,,,,,0,,,67,80
33120,note_on,13,0,1,,,,,,,,,0,,,52,80
33347,note_on,227,0,0,,,,,,,,,0,,,67,0
33347,note_on,227,0,1,,,,,,,,,0,,,52,0
33360,note_on,13,0,0,,,,,,,,,0,,,69,80
33360,note_on,13,0,1,,,,,,,,,0,,,54,80
33587,note_on,227,0,1,,,,,,,,,0,,,54,0
33600,note_on,13,0,1,,,,,,,,,0,,,50,80
33701,note_on,341,0,0,,,,,,,,,0,,,69,0
33720,note_on,19,0,0,,,,,,,,,0,,,71,80
33776,note_on,56,0,0,,,,,,,,,0,,,71,0
33780,note_on,4,0,0,,,,,,,,,0,,,72,80
33827,note_on,227,0,1,,,,,,,,,0,,,50,0
33836,note_on,56,0,0,,,,,,,,,0,,,72,0
33840,note_on,13,0,1,,,,,,,,,0,,,55,80
33840,note_on,4,0,0,,,,,,,,,0,,,71,80
34067,note_on,227,0,0,,,,,,,,,0,,,71,0
34067,note_on,227,0,1,,,,,,,,,0,,,55,0
34080,note_on,13,0,1,,,,,,,,,0,,,48,80
34080,note_on,13,0,0,,,,,,,,,0,,,69,80
34193,note_on,113,0,0,,,,,,,,,0,,,69,0
34200,note_on,7,0,0,,,,,,,,,0,,,67,80
34307,note_on,227,0,1,,,,,,,,,0,,,48,0
34313,note_on,113,0,0,,,,,,,,,0,,,67,0
34320,note_on,7,0,0,,,,,,,,,0,,,66,80
34320,note_on,13,0,1,,,,,,,,,0,,,50,80
34547,note_on,227,0,0,,,,,,,,,0,,,66,0
34547,note_on,227,0,1,,,,,,,,,0,,,50,0
34560,note_on,13,0,0,,,,,,,,,0,,,74,80
34560,note_on,13,0,1,,,,,,,,,0,,,47,80
34673,note_on,113,0,0,,,,,,,,,0,,,74,0
34680,note_on,7,0,0,,,,,,,,,0,,,67,80
34787,note_on,227,0,1,,,,,,,,,0,,,47,0
34793,note_on,113,0,0,,,,,,,,,0,,,67,0
34800,note_on,7,0,0,,,,,,,,,0,,,66,80
34800,note_on,13,0,1,,,,,,,,,0,,,48,80
34913,note_on,113,0,0,,,,,,,,,0,,,66,0
34920,note_on,7,0,0,,,,,,,,,0,,,67,80
34976,note_on,56,0,0,,,,,,,,,0,,,67,0
34980,note_on,4,0,0,,,,,,,,,0,,,69,80
35027,note_on,227,0,1,,,,,,,,,0,,,48,0
35036,note_on,56,0,0,,,,,,,,,0,,,69,0
35040,note_on,4,0,0,,,,,,,,,0,,,62,80
35040,note_on,13,0,1,,,,,,,,,0,,,50,80
35267,note_on,227,0,1,,,,,,,,,0,,,50,0
35267,note_on,227,0,0,,,,,,,,,0,,,62,0
35280,note_on,13,0,1,,,,,,,,,0,,,47,80
35280,note_on,13,0,0,,,,,,,,,0,,,74,80
35393,note_on,113,0,0,,,,,,,,,0,,,74,0
35400,note_on,7,0,0,,,,,,,,,0,,,67,80
35507,note_on,227,0,1,,,,,,,,,0,,,47,0
35513,note_on,113,0,0,,,,,,,,,0,,,67,0
35520,note_on,13,0,1,,,,,,,,,0,,,48,80
35520,note_on,7,0,0,,,,,,,,,0,,,66,80
35633,note_on,113,0,0,,,,,,,,,0,,,66,0
35640,note_on,7,0,0,,,,,,,,,0,,,67,80
35696,note_on,56,0,0,,,,,,,,,0,,,67,0
35700,note_on,4,0,0,,,,,,,,,0,,,69,80
35747,note_on,227,0,1,,,,,,,,,0,,,48,0
35756,note_on,56,0,0,,,,,,,,,0,,,69,0
35760,note_on,4,0,0,,,,,,,,,0,,,62,80
35760,note_on,13,0,1,,,,,,,,,0,,,50,80
35987,note_on,227,0,1,,,,,,,,,0,,,50,0
35987,note_on,227,0,0,,,,,,,,,0,,,62,0
36000,note_on,13,0,1,,,,,,,,,0,,,47,80
36000,note_on,13,0,0,,,,,,,,,0,,,79,80
36227,note_on,227,0,0,,,,,,,,,0,,,79,0
36227,note_on,227,0,1,,,,,,,,,0,,,47,0
36240,note_on,13,0,1,,,,,,,,,0,,,59,80
36240,note_on,13,0,0,,,,,,,,,0,,,74,80
36695,note_on,455,0,1,,,,,,,,,0,,,59,0
36695,note_on,455,0,0,,,,,,,,,0,,,74,0
36720,note_on,25,0,1,,,,,,,,,0,,,60,80
36720,note_on,25,0,0,,,,,,,,,0,,,76,80
36890,note_on,170,0,0,,,,,,,,,0,,,76,0
36900,note_on,10,0,0,,,,,,,,,0,,,78,80
36956,note_on,56,0,0,,,,,,,,,0,,,78,0
36960,note_on,4,0,0,,,,,,,,,0,,,79,80
37175,note_on,455,0,1,,,,,,,,,0,,,60,0
37187,note_on,227,0,0,,,,,,,,,0,,,79,0
37200,note_on,13,0,0,,,,,,,,,0,,,74,80
37200,note_on,25,0,1,,,,,,,,,0,,,59,80
37427,note_on,227,0,0,,,,,,,,,0,,,74,0
37427,note_on,227,0,1,,,,,,,,,0,,,59,0
37440,note_on,13,0,1,,,,,,,,,0,,,52,80
37440,note_on,13,0,0,,,,,,,,,0,,,67,80
37667,note_on,227,0,0,,,,,,,,,0,,,67,0
37667,note_on,227,0,1,,,,,,,,,0,,,52,0
37680,note_on,13,0,1,,,,,,,,,0,,,54,80
37680,note_on,13,0,0,,,,,,,,,0,,,72,80
37907,note_on,227,0,1,,,,,,,,,0,,,54,0
37920,note_on,13,0,1,,,,,,,,,0,,,50,80
38135,note_on,455,0,0,,,,,,,,,0,,,72,0
38147,note_on,227,0,1,,,,,,,,,0,,,50,0
38160,note_on,25,0,0,,,,,,,,,0,,,71,80
38160,note_on,13,0,1,,,,,,,,,0,,,55,80
38387,note_on,227,0,0,,,,,,,,,0,,,71,0
38387,note_on,227,0,1,,,,,,,,,0,,,55,0
38400,note_on,13,0,1,,,,,,,,,0,,,48,80
38400,note_on,13,0,0,,,,,,,,,0,,,69,80
38513,note_on,113,0,0,,,,,,,,,0,,,69,0
38520,note_on,7,0,0,,,,,,,,,0,,,67,80
38627,note_on,227,0,1,,,,,,,,,0,,,48,0
38633,note_on,113,0,0,,,,,,,,,0,,,67,0
38640,note_on,7,0,0,,,,,,,,,0,,,66,80
38640,note_on,13,0,1,,,,,,,,,0,,,50,80
38867,note_on,227,0,0,,,,,,,,,0,,,66,0
38867,note_on,227,0,1,,,,,,,,,0,,,50,0
38880,note_on,13,0,1,,,,,,,,,0,,,47,80
38880,note_on,13,0,0,,,,,,,,,0,,,74,80
39107,note_on,227,0,1,,,,,,,,,0,,,47,0
39107,note_on,227,0,0,,,,,,,,,0,,,74,0
39120,note_on,13,0,0,,,,,,,,,0,,,72,80
39120,note_on,13,0,1,,,,,,,,,0,,,48,80
39233,note_on,113,0,0,,,,,,,,,0,,,72,0
39240,note_on,7,0,0,,,,,,,,,0,,,71,80
39347,note_on,227,0,1,,,,,,,,,0,,,48,0
39353,note_on,113,0,0,,,,,,,,,0,,,71,0
39360,note_on,13,0,1,,,,,,,,,0,,,50,80
39360,note_on,7,0,0,,,,,,,,,0,,,69,80
39587,note_on,227,0,0,,,,,,,,,0,,,69,0
39587,note_on,227,0,1,,,,,,,,,0,,,50,0
39600,note_on,13,0,0,,,,,,,,,0,,,79,80
39600,note_on,13,0,1,,,,,,,,,0,,,52,80
39827,note_on,227,0,1,,,,,,,,,0,,,52,0
39827,note_on,227,0,0,,,,,,,,,0,,,79,0
39840,note_on,13,0,0,,,,,,,,,0,,,78,80
39840,note_on,13,0,1,,,,,,,,,0,,,54,80
39953,note_on,113,0,0,,,,,,,,,0,,,78,0
39960,note_on,7,0,0,,,,,,,,,0,,,76,80
40067,note_on,227,0,1,,,,,,,,,0,,,54,0
40073,note_on,113,0,0,,,,,,,,,0,,,76,0
40080,note_on,7,0,0,,,,,,,,,0,,,74,80
40080,note_on,13,0,1,,,,,,,,,0,,,55,80
40307,note_on,227,0,1,,,,,,,,,0,,,55,0
40307,note_on,227,0,0,,,,,,,,,0,,,74,0
40320,note_on,13,0,0,,,,,,,,,0,,,71,80
40320,note_on,13,0,1,,,,,,,,,0,,,48,80
40433,note_on,113,0,0,,,,,,,,,0,,,71,0
40440,note_on,7,0,0,,,,,,,,,0,,,69,80
40547,note_on,227,0,1,,,,,,,,,0,,,48,0
40553,note_on,113,0,0,,,,,,,,,0,,,69,0
40560,note_on,7,0,0,,,,,,,,,0,,,69,80
40560,note_on,13,0,1,,,,,,,,,0,,,50,80
40787,note_on,227,0,1,,,,,,,,,0,,,50,0
40800,note_on,13,0,1,,,,,,,,,0,,,38,80
40901,note_on,341,0,0,,,,,,,,,0,,,69,0
40920,note_on,19,0,0,,,,,,,,,0,,,67,80
41027,note_on,227,0,1,,,,,,,,,0,,,38,0
41033,note_on,113,0,0,,,,,,,,,0,,,67,0
41040,note_on,7,0,0,,,,,,,,,0,,,67,80
41040,note_on,13,0,1,,,,,,,,,0,,,43,80
41267,note_on,227,0,1,,,,,,,,,0,,,43,0
41280,note_on,13,0,1,,,,,,,,,0,,,47,80
41507,note_on,227,0,1,,,,,,,,,0,,,47,0
41520,note_on,13,0,1,,,,,,,,,0,,,50,80
41723,note_on,683,0,0,,,,,,,,,0,,,67,0
41747,note_on,227,0,1,,,,,,,,,0,,,50,0
41760,note_on,13,0,1,,,,,,,,,0,,,47,80
41760,note_on,37,0,0,,,,,,,,,0,,,74,80
41987,note_on,227,0,1,,,,,,,,,0,,,47,0
41987,note_on,227,0,0,,,,,,,,,0,,,74,0
42000,note_on,13,0,0,,,,,,,,,0,,,67,80
42000,note_on,13,0,1,,,,,,,,,0,,,59,80
42455,note_on,455,0,1,,,,,,,,,0,,,59,0
42455,note_on,455,0,0,,,,,,,,,0,,,67,0
42480,note_on,25,0,0,,,,,,,,,0,,,76,80
42480,note_on,25,0,1,,,,,,,,,0,,,61,80
42707,note_on,227,0,0,,,,,,,,,0,,,76,0
42720,note_on,13,0,0,,,,,,,,,0,,,69,80
42935,note_on,455,0,1,,,,,,,,,0,,,61,0
42947,note_on,227,0,0,,,,,,,,,0,,,69,0
42960,note_on,13,0,0,,,,,,,,,0,,,78,80
42960,note_on,25,0,1,,,,,,,,,0,,,62,80
43187,note_on,227,0,1,,,,,,,,,0,,,62,0
43187,note_on,227,0,0,,,,,,,,,0,,,78,0
43200,note_on,13,0,0,,,,,,,,,0,,,79,80
43200,note_on,13,0,1,,,,,,,,,0,,,55,80
43427,note_on,227,0,0,,,,,,,,,0,,,79,0
43427,note_on,227,0,1,,,,,,,,,0,,,55,0
43440,note_on,13,0,0,,,,,,,,,0,,,76,80
43440,note_on,13,0,1,,,,,,,,,0,,,57,80
43895,note_on,455,0,1,,,,,,,,,0,,,57,0
43895,note_on,455,0,0,,,,,,,,,0,,,76,0
43920,note_on,25,0,0,,,,,,,,,0,,,69,80
43920,note_on,25,0,1,,,,,,,,,0,,,54,80
44147,note_on,227,0,0,,,,,,,,,0,,,69,0
44160,note_on,13,0,0,,,,,,,,,0,,,71,80
44273,note_on,113,0,0,,,,,,,,,0,,,71,0
44280,note_on,7,0,0,,,,,,,,,0,,,73,80
44375,note_on,455,0,1,,,,,,,,,0,,,54,0
44393,note_on,113,0,0,,,,,,,,,0,,,73,0
44400,note_on,25,0,1,,,,,,,,,0,,,59,80
44400,note_on,7,0,0,,,,,,,,,0,,,74,80
44627,note_on,227,0,1,,,,,,,,,0,,,59,0
44627,note_on,227,0,0,,,,,,,,,0,,,74,0
44640,note_on,13,0,0,,,,,,,,,0,,,79,80
44640,note_on,13,0,1,,,,,,,,,0,,,52,80
44867,note_on,227,0,1,,,,,,,,,0,,,52,0
44867,note_on,227,0,0,,,,,,,,,0,,,79,0
44880,note_on,13,0,1,,,,,,,,,0,,,57,80
44880,note_on,13,0,0,,,,,,,,,0,,,76,80
45335,note_on,455,0,0,,,,,,,,,0,,,76,0
45335,note_on,455,0,1,,,,,,,,,0,,,57,0
45360,note_on,25,0,0,,,,,,,,,0,,,81,80
45360,note_on,25,0,1,,,,,,,,,0,,,54,80
45587,note_on,227,0,0,,,,,,,,,0,,,81,0
45600,note_on,13,0,0,,,,,,,,,0,,,79,80
45713,note_on,113,0,0,,,,,,,,,0,,,79,0
45720,note_on,7,0,0,,,,,,,,,0,,,78,80
45815,note_on,455,0,1,,,,,,,,,0,,,54,0
45833,note_on,113,0,0,,,,,,,,,0,,,78,0
45840,note_on,7,0,0,,,,,,,,,0,,,76,80
45840,note_on,25,0,1,,,,,,,,,0,,,59,80
45953,note_on,113,0,0,,,,,,,,,0,,,76,0
45960,note_on,7,0,0,,,,,,,,,0,,,74,80
46067,note_on,227,0,1,,,,,,,,,0,,,59,0
46073,note_on,113,0,0,,,,,,,,,0,,,74,0
46080,note_on,7,0,0,,,,,,,,,0,,,76,80
46080,note_on,13,0,1,,,,,,,,,0,,,55,80
46307,note_on,227,0,0,,,,,,,,,0,,,76,0
46307,note_on,227,0,1,,,,,,,,,0,,,55,0
46320,note_on,13,0,1,,,,,,,,,0,,,57,80
46320,note_on,13,0,0,,,,,,,,,0,,,73,80
46547,note_on,227,0,1,,,,,,,,,0,,,57,0
46560,note_on,13,0,1,,,,,,,,,0,,,45,80
46775,note_on,455,0,0,,,,,,,,,0,,,73,0
46787,note_on,227,0,1,,,,,,,,,0,,,45,0
46800,note_on,13,0,1,,,,,,,,,0,,,50,80
46800,note_on,25,0,0,,,,,,,,,0,,,74,80
47483,note_on,683,0,0,,,,,,,,,0,,,74,0
47483,note_on,683,0,1,,,,,,,,,0,,,50,0
47520,note_on,37,0,0,,,,,,,,,0,,,79,80
47520,note_on,37,0,1,,,,,,,,,0,,,55,80
47747,note_on,227,0,0,,,,,,,,,0,,,79,0
47747,note_on,227,0,1,,,,,,,,,0,,,55,0
47760,note_on,13,0,0,,,,,,,,,0,,,74,80
47760,note_on,13,0,1,,,,,,,,,0,,,59,80
48215,note_on,455,0,0,,,,,,,,,0,,,74,0
48215,note_on,455,0,1,,,,,,,,,0,,,59,0
48240,note_on,25,0,1,,,,,,,,,0,,,60,80
48240,note_on,25,0,0,,,,,,,,,0,,,76,80
48410,note_on,170,0,0,,,,,,,,,0,,,76,0
48420,note_on,10,0,0,,,,,,,,,0,,,78,80
48467,note_on,227,0,1,,,,,,,,,0,,,60,0
48476,note_on,56,0,0,,,,,,,,,0,,,78,0
48480,note_on,13,0,1,,,,,,,,,0,,,59,80
48480,note_on,4,0,0,,,,,,,,,0,,,79,80
48707,note_on,227,0,0,,,,,,,,,0,,,79,0
48720,note_on,13,0,0,,,,,,,,,0,,,74,80
48935,note_on,455,0,1,,,,,,,,,0,,,59,0
48947,note_on,227,0,0,,,,,,,,,0,,,74,0
48960,note_on,25,0,1,,,,,,,,,0,,,52,80
48960,note_on,13,0,0,,,,,,,,,0,,,67,80
49187,note_on,227,0,0,,,,,,,,,0,,,67,0
49187,note_on,227,0,1,,,,,,,,,0,,,52,0
49200,note_on,13,0,1,,,,,,,,,0,,,54,80
49200,note_on,13,0,0,,,,,,,,,0,,,69,80
49427,note_on,227,0,1,,,,,,,,,0,,,54,0
49440,note_on,13,0,1,,,,,,,,,0,,,50,80
49541,note_on,341,0,0,,,,,,,,,0,,,69,0
49560,note_on,19,0,0,,,,,,,,,0,,,71,80
49616,note_on,56,0,0,,,,,,,,,0,,,71,0
49620,note_on,4,0,0,,,,,,,,,0,,,72,80
49667,note_on,227,0,1,,,,,,,,,0,,,50,0
49676,note_on,56,0,0,,,,,,,,,0,,,72,0
49680,note_on,4,0,0,,,,,,,,,0,,,71,80
49680,note_on,13,0,1,,,,,,,,,0,,,55,80
49907,note_on,227,0,0,,,,,,,,,0,,,71,0
49907,note_on,227,0,1,,,,,,,,,0,,,55,0
49920,note_on,13,0,1,,,,,,,,,0,,,48,80
49920,note_on,13,0,0,,,,,,,,,0,,,69,80
50033,note_on,113,0,0,,,,,,,,,0,,,69,0
50040,note_on,7,0,0,,,,,,,,,0,,,67,80
50147,note_on,227,0,1,,,,,,,,,0,,,48,0
50153,note_on,113,0,0,,,,,,,,,0,,,67,0
50160,note_on,13,0,1,,,,,,,,,0,,,50,80
50160,note_on,7,0,0,,,,,,,,,0,,,66,80
50387,note_on,227,0,1,,,,,,,,,0,,,50,0
50387,note_on,227,0,0,,,,,,,,,0,,,66,0
50400,note_on,13,0,1,,,,,,,,,0,,,47,80
50400,note_on,13,0,0,,,,,,,,,0,,,74,80
50627,note_on,227,0,1,,,,,,,,,0,,,47,0
50627,note_on,227,0,0,,,,,,,,,0,,,74,0
50640,note_on,13,0,1,,,,,,,,,0,,,48,80
50640,note_on,13,0,0,,,,,,,,,0,,,72,80
50753,note_on,113,0,0,,,,,,,,,0,,,72,0
50760,note_on,7,0,0,,,,,,,,,0,,,71,80
50867,note_on,227,0,1,,,,,,,,,0,,,48,0
50873,note_on,113,0,0,,,,,,,,,0,,,71,0
50880,note_on,7,0,0,,,,,,,,,0,,,69,80
50880,note_on,13,0,1,,,,,,,,,0,,,50,80
51107,note_on,227,0,1,,,,,,,,,0,,,50,0
51107,note_on,227,0,0,,,,,,,,,0,,,69,0
51120,note_on,13,0,1,,,,,,,,,0,,,52,80
51120,note_on,13,0,0,,,,,,,,,0,,,79,80
51347,note_on,227,0,0,,,,,,,,,0,,,79,0
51347,note_on,227,0,1,,,,,,,,,0,,,52,0
51360,note_on,13,0,0,,,,,,,,,0,,,78,80
51360,note_on,13,0,1,,,,,,,,,0,,,54,80
51473,note_on,113,0,0,,,,,,,,,0,,,78,0
51480,note_on,7,0,0,,,,,,,,,0,,,76,80
51587,note_on,227,0,1,,,,,,,,,0,,,54,0
51593,note_on,113,0,0,,,,,,,,,0,,,76,0
51600,note_on,7,0,0,,,,,,,,,0,,,74,80
51600,note_on,13,0,1,,,,,,,,,0,,,55,80
51827,note_on,227,0,0,,,,,,,,,0,,,74,0
51827,note_on,227,0,1,,,,,,,,,0,,,55,0
51840,note_on,13,0,0,,,,,,,,,0,,,72,80
51840,note_on,13,0,1,,,,,,,,,0,,,48,80
51953,note_on,113,0,0,,,,,,,,,0,,,72,0
51960,note_on,7,0,0,,,,,,,,,0,,,71,80
52067,note_on,227,0,1,,,,,,,,,0,,,48,0
52073,note_on,113,0,0,,,,,,,,,0,,,71,0
52080,note_on,7,0,0,,,,,,,,,0,,,69,80
52080,note_on,13,0,1,,,,,,,,,0,,,50,80
52307,note_on,227,0,1,,,,,,,,,0,,,50,0
52320,note_on,13,0,1,,,,,,,,,0,,,38,80
52421,note_on,341,0,0,,,,,,,,,0,,,69,0
52440,note_on,19,0,0,,,,,,,,,0,,,67,80
52547,note_on,227,0,1,,,,,,,,,0,,,38,0
52553,note_on,113,0,0,,,,,,,,,0,,,67,0
52560,note_on,13,0,1,,,,,,,,,0,,,43,80
52560,note_on,7,0,0,,,,,,,,,0,,,67,80
53243,note_on,683,0,0,,,,,,,,,0,,,67,0
53243,note_on,683,0,1,,,,,,,,,0,,,43,0
53244,end_of_track,1,1,1,,,,,,,,,,,,,
53244,end_of_track,1,1,0,,,,,,,,,,,,,
