tick,type,time,meta,track,numerator,denominator,clocks_per_click,notated_32nd_notes_per_beat,key,tempo,control,value,channel,program,port,note,velocity
0,control_change,0,0,0,,,,,,,121,0,0,,,,
0,time_signature,0,1,0,3,8,24,8,,,,,,,,,
0,set_tempo,0,1,0,,,,,,500000,,,,,,,
0,program_change,0,0,0,,,,,,,,,0,0,,,
0,track_name,0,1,0,,,,,,,,,,,,,
0,note_on,0,0,1,,,,,,,,,0,,,55,80
0,note_on,0,0,0,,,,,,,,,0,,,67,80
0,midi_port,0,1,1,,,,,,,,,,,0,,
0,midi_port,0,1,0,,,,,,,,,,,0,,
0,key_signature,0,1,1,,,,,C,,,,,,,,
0,key_signature,0,1,0,,,,,C,,,,,,,,
0,track_name,0,1,1,,,,,,,,,,,,,
0,control_change,0,0,0,,,,,,,100,127,0,,,,
0,control_change,0,0,0,,,,,,,93,0,0,,,,
0,control_change,0,0,0,,,,,,,91,0,0,,,,
0,control_change,0,0,0,,,,,,,10,64,0,,,,
0,control_change,0,0,0,,,,,,,7,99,0,,,,
0,control_change,0,0,0,,,,,,,6,12,0,,,,
0,control_change,0,0,0,,,,,,,101,0,0,,,,
0,control_change,0,0,0,,,,,,,101,127,0,,,,
0,control_change,0,0,0,,,,,,,100,0,0,,,,
227,note_on,227,0,0,,,,,,,,,0,,,67,0
227,note_on,227,0,1,,,,,,,,,0,,,55,0
240,note_on,13,0,0,,,,,,,,,0,,,71,80
240,note_on,13,0,1,,,,,,,,,0,,,48,80
353,note_on,113,0,0,,,,,,,,,0,,,71,0
360,note_on,7,0,0,,,,,,,,,0,,,69,80
467,note_on,227,0,1,,,,,,,,,0,,,48,0
473,note_on,113,0,0,,,,,,,,,0,,,69,0
480,note_on,13,0,1,,,,,,,,,0,,,50,80
480,note_on,7,0,0,,,,,,,,,0,,,67,80
593,note_on,113,0,0,,,,,,,,,0,,,67,0
600,note_on,7,0,0,,,,,,,,,0,,,66,80
707,note_on,227,0,1,,,,,,,,,0,,,50,0
713,note_on,113,0,0,,,,,,,,,0,,,66,0
720,note_on,7,0,0,,,,,,,,,0,,,67,80
720,note_on,13,0,1,,,,,,,,,0,,,52,80
947,note_on,227,0,1,,,,,,,,,0,,,52,0
947,note_on,227,0,0,,,,,,,,,0,,,67,0
960,note_on,13,0,1,,,,,,,,,0,,,48,80
960,note_on,13,0,0,,,,,,,,,0,,,76,80
1187,note_on,227,0,0,,,,,,,,,0,,,76,0
1187,note_on,227,0,1,,,,,,,,,0,,,48,0
1200,note_on,13,0,0,,,,,,,,,0,,,74,80
1200,note_on,13,0,1,,,,,,,,,0,,,47,80
1427,note_on,227,0,0,,,,,,,,,0,,,74,0
1427,note_on,227,0,1,,,,,,,,,0,,,47,0
1440,note_on,13,0,0,,,,,,,,,0,,,67,80
1667,note_on,227,0,0,,,,,,,,,0,,,67,0
1680,note_on,13,0,0,,,,,,,,,0,,,71,80
1793,note_on,113,0,0,,,,,,,,,0,,,71,0
1800,note_on,7,0,0,,,,,,,,,0,,,69,80
1913,note_on,113,0,0,,,,,,,,,0,,,69,0
1920,note_on,7,0,0,,,,,,,,,0,,,67,80
2033,note_on,113,0,0,,,,,,,,,0,,,67,0
2040,note_on,7,0,0,,,,,,,,,0,,,66,80
2153,note_on,113,0,0,,,,,,,,,0,,,66,0
2160,note_on,7,0,0,,,,,,,,,0,,,67,80
2387,note_on,227,0,0,,,,,,,,,0,,,67,0
2400,note_on,973,0,1,,,,,,,,,0,,,60,80
2400,note_on,13,0,0,,,,,,,,,0,,,76,80
2627,note_on,227,0,0,,,,,,,,,0,,,76,0
2627,note_on,227,0,1,,,,,,,,,0,,,60,0
2640,note_on,13,0,0,,,,,,,,,0,,,74,80
2640,note_on,13,0,1,,,,,,,,,0,,,59,80
2867,note_on,227,0,0,,,,,,,,,0,,,74,0
2867,note_on,227,0,1,,,,,,,,,0,,,59,0
2880,note_on,13,0,0,,,,,,,,,0,,,67,80
3107,note_on,227,0,0,,,,,,,,,0,,,67,0
3120,note_on,13,0,0,,,,,,,,,0,,,71,80
3233,note_on,113,0,0,,,,,,,,,0,,,71,0
3240,note_on,7,0,0,,,,,,,,,0,,,69,80
3353,note_on,113,0,0,,,,,,,,,0,,,69,0
3360,note_on,7,0,0,,,,,,,,,0,,,67,80
3473,note_on,113,0,0,,,,,,,,,0,,,67,0
3480,note_on,7,0,0,,,,,,,,,0,,,66,80
3593,note_on,113,0,0,,,,,,,,,0,,,66,0
3600,note_on,7,0,0,,,,,,,,,0,,,67,80
3827,note_on,227,0,0,,,,,,,,,0,,,67,0
3840,note_on,973,0,1,,,,,,,,,0,,,57,80
3840,note_on,13,0,0,,,,,,,,,0,,,72,80
4067,note_on,227,0,1,,,,,,,,,0,,,57,0
4067,note_on,227,0,0,,,,,,,,,0,,,72,0
4080,note_on,13,0,1,,,,,,,,,0,,,55,80
4080,note_on,13,0,0,,,,,,,,,0,,,71,80
4307,note_on,227,0,1,,,,,,,,,0,,,55,0
4307,note_on,227,0,0,,,,,,,,,0,,,71,0
4320,note_on,13,0,1,,,,,,,,,0,,,48,80
4320,note_on,13,0,0,,,,,,,,,0,,,69,80
4547,note_on,227,0,0,,,,,,,,,0,,,69,0
4547,note_on,227,0,1,,,,,,,,,0,,,48,0
4560,note_on,13,0,1,,,,,,,,,0,,,50,80
4560,note_on,13,0,0,,,,,,,,,0,,,72,80
4673,note_on,113,0,0,,,,,,,,,0,,,72,0
4680,note_on,7,0,0,,,,,,,,,0,,,71,80
4787,note_on,227,0,1,,,,,,,,,0,,,50,0
4793,note_on,113,0,0,,,,,,,,,0,,,71,0
4800,note_on,13,0,1,,,,,,,,,0,,,52,80
4800,note_on,7,0,0,,,,,,,,,0,,,69,80
4913,note_on,113,0,0,,,,,,,,,0,,,69,0
4920,note_on,7,0,0,,,,,,,,,0,,,67,80
5027,note_on,227,0,1,,,,,,,,,0,,,52,0
5033,note_on,113,0,0,,,,,,,,,0,,,67,0
5040,note_on,13,0,1,,,,,,,,,0,,,50,80
5040,note_on,7,0,0,,,,,,,,,0,,,66,80
5067,note_on,27,0,0,,,,,,,,,0,,,66,0
5070,note_on,3,0,0,,,,,,,,,0,,,67,80
5097,note_on,27,0,0,,,,,,,,,0,,,67,0
5100,note_on,3,0,0,,,,,,,,,0,,,66,80
5127,note_on,27,0,0,,,,,,,,,0,,,66,0
5130,note_on,3,0,0,,,,,,,,,0,,,67,80
5157,note_on,27,0,0,,,,,,,,,0,,,67,0
5160,note_on,3,0,0,,,,,,,,,0,,,64,80
5267,note_on,227,0,1,,,,,,,,,0,,,50,0
5273,note_on,113,0,0,,,,,,,,,0,,,64,0
5280,note_on,13,0,1,,,,,,,,,0,,,50,80
5280,note_on,7,0,0,,,,,,,,,0,,,62,80
5507,note_on,227,0,0,,,,,,,,,0,,,62,0
5507,note_on,227,0,1,,,,,,,,,0,,,50,0
5520,note_on,13,0,1,,,,,,,,,0,,,52,80
5747,note_on,227,0,1,,,,,,,,,0,,,52,0
5760,note_on,13,0,1,,,,,,,,,0,,,54,80
5760,note_on,253,0,0,,,,,,,,,0,,,69,80
5987,note_on,227,0,0,,,,,,,,,0,,,69,0
6000,note_on,13,0,0,,,,,,,,,0,,,67,80
6113,note_on,113,0,0,,,,,,,,,0,,,67,0
6120,note_on,7,0,0,,,,,,,,,0,,,66,80
6215,note_on,455,0,1,,,,,,,,,0,,,54,0
6233,note_on,113,0,0,,,,,,,,,0,,,66,0
6240,note_on,7,0,0,,,,,,,,,0,,,64,80
6353,note_on,113,0,0,,,,,,,,,0,,,64,0
6360,note_on,7,0,0,,,,,,,,,0,,,62,80
6473,note_on,113,0,0,,,,,,,,,0,,,62,0
6480,note_on,265,0,1,,,,,,,,,0,,,55,80
6480,note_on,7,0,0,,,,,,,,,0,,,71,80
6707,note_on,227,0,0,,,,,,,,,0,,,71,0
6720,note_on,13,0,0,,,,,,,,,0,,,69,80
6833,note_on,113,0,0,,,,,,,,,0,,,69,0
6840,note_on,7,0,0,,,,,,,,,0,,,67,80
6935,note_on,455,0,1,,,,,,,,,0,,,55,0
6953,note_on,113,0,0,,,,,,,,,0,,,67,0
6960,note_on,7,0,0,,,,,,,,,0,,,66,80
7073,note_on,113,0,0,,,,,,,,,0,,,66,0
7080,note_on,7,0,0,,,,,,,,,0,,,64,80
7193,note_on,113,0,0,,,,,,,,,0,,,64,0
7200,note_on,265,0,1,,,,,,,,,0,,,57,80
7200,note_on,7,0,0,,,,,,,,,0,,,73,80
7313,note_on,113,0,0,,,,,,,,,0,,,73,0
7320,note_on,7,0,0,,,,,,,,,0,,,71,80
7433,note_on,113,0,0,,,,,,,,,0,,,71,0
7440,note_on,7,0,0,,,,,,,,,0,,,69,80
7553,note_on,113,0,0,,,,,,,,,0,,,69,0
7560,note_on,7,0,0,,,,,,,,,0,,,67,80
7655,note_on,455,0,1,,,,,,,,,0,,,57,0
7673,note_on,113,0,0,,,,,,,,,0,,,67,0
7680,note_on,7,0,0,,,,,,,,,0,,,66,80
7793,note_on,113,0,0,,,,,,,,,0,,,66,0
7800,note_on,7,0,0,,,,,,,,,0,,,64,80
7913,note_on,113,0,0,,,,,,,,,0,,,64,0
7920,note_on,265,0,1,,,,,,,,,0,,,59,80
7920,note_on,7,0,0,,,,,,,,,0,,,74,80
8147,note_on,227,0,1,,,,,,,,,0,,,59,0
8160,note_on,13,0,1,,,,,,,,,0,,,55,80
8387,note_on,227,0,1,,,,,,,,,0,,,55,0
8400,note_on,13,0,1,,,,,,,,,0,,,54,80
8603,note_on,683,0,0,,,,,,,,,0,,,74,0
8627,note_on,227,0,1,,,,,,,,,0,,,54,0
8640,note_on,37,0,0,,,,,,,,,0,,,79,80
8753,note_on,113,0,0,,,,,,,,,0,,,79,0
8760,note_on,7,0,0,,,,,,,,,0,,,78,80
8873,note_on,113,0,0,,,,,,,,,0,,,78,0
8880,note_on,7,0,0,,,,,,,,,0,,,76,80
8993,note_on,113,0,0,,,,,,,,,0,,,76,0
9000,note_on,7,0,0,,,,,,,,,0,,,74,80
9113,note_on,113,0,0,,,,,,,,,0,,,74,0
9120,note_on,7,0,0,,,,,,,,,0,,,73,80
9120,note_on,493,0,1,,,,,,,,,0,,,55,80
9233,note_on,113,0,0,,,,,,,,,0,,,73,0
9240,note_on,7,0,0,,,,,,,,,0,,,71,80
9347,note_on,227,0,1,,,,,,,,,0,,,55,0
9353,note_on,113,0,0,,,,,,,,,0,,,71,0
9360,note_on,13,0,1,,,,,,,,,0,,,57,80
9360,note_on,7,0,0,,,,,,,,,0,,,69,80
9415,note_on,55,0,0,,,,,,,,,0,,,69,0
9420,note_on,5,0,0,,,,,,,,,0,,,71,80
9475,note_on,55,0,0,,,,,,,,,0,,,71,0
9480,note_on,5,0,0,,,,,,,,,0,,,69,80
9535,note_on,55,0,0,,,,,,,,,0,,,69,0
9540,note_on,5,0,0,,,,,,,,,0,,,71,80
9587,note_on,227,0,1,,,,,,,,,0,,,57,0
9595,note_on,55,0,0,,,,,,,,,0,,,71,0
9600,note_on,5,0,0,,,,,,,,,0,,,67,80
9600,note_on,13,0,1,,,,,,,,,0,,,59,80
9713,note_on,113,0,0,,,,,,,,,0,,,67,0
9720,note_on,7,0,0,,,,,,,,,0,,,66,80
9827,note_on,227,0,1,,,,,,,,,0,,,59,0
9833,note_on,113,0,0,,,,,,,,,0,,,66,0
9840,note_on,13,0,1,,,,,,,,,0,,,54,80
9840,note_on,7,0,0,,,,,,,,,0,,,64,80
9953,note_on,113,0,0,,,,,,,,,0,,,64,0
9960,note_on,7,0,0,,,,,,,,,0,,,62,80
10067,note_on,227,0,1,,,,,,,,,0,,,54,0
10073,note_on,113,0,0,,,,,,,,,0,,,62,0
10080,note_on,13,0,1,,,,,,,,,0,,,55,80
10080,note_on,7,0,0,,,,,,,,,0,,,64,80
10307,note_on,227,0,1,,,,,,,,,0,,,55,0
10307,note_on,227,0,0,,,,,,,,,0,,,64,0
10320,note_on,13,0,1,,,,,,,,,0,,,52,80
10320,note_on,13,0,0,,,,,,,,,0,,,74,80
10547,note_on,227,0,0,,,,,,,,,0,,,74,0
10547,note_on,227,0,1,,,,,,,,,0,,,52,0
10560,note_on,13,0,0,,,,,,,,,0,,,73,80
10560,note_on,13,0,1,,,,,,,,,0,,,57,80
10615,note_on,55,0,0,,,,,,,,,0,,,73,0
10620,note_on,5,0,0,,,,,,,,,0,,,74,80
10675,note_on,55,0,0,,,,,,,,,0,,,74,0
10680,note_on,5,0,0,,,,,,,,,0,,,73,80
10735,note_on,55,0,0,,,,,,,,,0,,,73,0
10740,note_on,5,0,0,,,,,,,,,0,,,74,80
10787,note_on,227,0,1,,,,,,,,,0,,,57,0
10795,note_on,55,0,0,,,,,,,,,0,,,74,0
10800,note_on,13,0,1,,,,,,,,,0,,,50,80
10800,note_on,5,0,0,,,,,,,,,0,,,74,80
11483,note_on,683,0,0,,,,,,,,,0,,,74,0
11483,note_on,683,0,1,,,,,,,,,0,,,50,0
11520,time_signature,37,1,0,3,8,24,8,,,,,,,,,
11520,note_on,0,0,0,,,,,,,,,0,,,67,80
11520,set_tempo,0,1,0,,,,,,500000,,,,,,,
11520,note_on,37,0,1,,,,,,,,,0,,,55,80
11747,note_on,227,0,0,,,,,,,,,0,,,67,0
11747,note_on,227,0,1,,,,,,,,,0,,,55,0
11760,note_on,13,0,1,,,,,,,,,0,,,48,80
11760,note_on,13,0,0,,,,,,,,,0,,,71,80
11873,note_on,113,0,0,,,,,,,,,0,,,71,0
11880,note_on,7,0,0,,,,,,,,,0,,,69,80
11987,note_on,227,0,1,,,,,,,,,0,,,48,0
11993,note_on,113,0,0,,,,,,,,,0,,,69,0
12000,note_on,13,0,1,,,,,,,,,0,,,50,80
12000,note_on,7,0,0,,,,,,,,,0,,,67,80
12113,note_on,113,0,0,,,,,,,,,0,,,67,0
12120,note_on,7,0,0,,,,,,,,,0,,,66,80
12227,note_on,227,0,1,,,,,,,,,0,,,50,0
12233,note_on,113,0,0,,,,,,,,,0,,,66,0
12240,note_on,13,0,1,,,,,,,,,0,,,52,80
12240,note_on,7,0,0,,,,,,,,,0,,,67,80
12467,note_on,227,0,1,,,,,,,,,0,,,52,0
12467,note_on,227,0,0,,,,,,,,,0,,,67,0
12480,note_on,13,0,1,,,,,,,,,0,,,48,80
12480,note_on,13,0,0,,,,,,,,,0,,,76,80
12707,note_on,227,0,0,,,,,,,,,0,,,76,0
12707,note_on,227,0,1,,,,,,,,,0,,,48,0
12720,note_on,13,0,0,,,,,,,,,0,,,74,80
12720,note_on,13,0,1,,,,,,,,,0,,,47,80
12947,note_on,227,0,0,,,,,,,,,0,,,74,0
12947,note_on,227,0,1,,,,,,,,,0,,,47,0
12960,note_on,13,0,0,,,,,,,,,0,,,67,80
13187,note_on,227,0,0,,,,,,,,,0,,,67,0
13200,note_on,13,0,0,,,,,,,,,0,,,71,80
13313,note_on,113,0,0,,,,,,,,,0,,,71,0
13320,note_on,7,0,0,,,,,,,,,0,,,69,80
13433,note_on,113,0,0,,,,,,,,,0,,,69,0
13440,note_on,7,0,0,,,,,,,,,0,,,67,80
13553,note_on,113,0,0,,,,,,,,,0,,,67,0
13560,note_on,7,0,0,,,,,,,,,0,,,66,80
13673,note_on,113,0,0,,,,,,,,,0,,,66,0
13680,note_on,7,0,0,,,,,,,,,0,,,67,80
13907,note_on,227,0,0,,,,,,,,,0,,,67,0
13920,note_on,13,0,0,,,,,,,,,0,,,76,80
13920,note_on,973,0,1,,,,,,,,,0,,,60,80
14147,note_on,227,0,1,,,,,,,,,0,,,60,0
14147,note_on,227,0,0,,,,,,,,,0,,,76,0
14160,note_on,13,0,1,,,,,,,,,0,,,59,80
14160,note_on,13,0,0,,,,,,,,,0,,,74,80
14387,note_on,227,0,1,,,,,,,,,0,,,59,0
14387,note_on,227,0,0,,,,,,,,,0,,,74,0
14400,note_on,13,0,0,,,,,,,,,0,,,67,80
14627,note_on,227,0,0,,,,,,,,,0,,,67,0
14640,note_on,13,0,0,,,,,,,,,0,,,71,80
14753,note_on,113,0,0,,,,,,,,,0,,,71,0
14760,note_on,7,0,0,,,,,,,,,0,,,69,80
14873,note_on,113,0,0,,,,,,,,,0,,,69,0
14880,note_on,7,0,0,,,,,,,,,0,,,67,80
14993,note_on,113,0,0,,,,,,,,,0,,,67,0
15000,note_on,7,0,0,,,,,,,,,0,,,66,80
15113,note_on,113,0,0,,,,,,,,,0,,,66,0
15120,note_on,7,0,0,,,,,,,,,0,,,67,80
15347,note_on,227,0,0,,,,,,,,,0,,,67,0
15360,note_on,973,0,1,,,,,,,,,0,,,57,80
15360,note_on,13,0,0,,,,,,,,,0,,,72,80
15587,note_on,227,0,0,,,,,,,,,0,,,72,0
15587,note_on,227,0,1,,,,,,,,,0,,,57,0
15600,note_on,13,0,1,,,,,,,,,0,,,55,80
15600,note_on,13,0,0,,,,,,,,,0,,,71,80
15827,note_on,227,0,1,,,,,,,,,0,,,55,0
15827,note_on,227,0,0,,,,,,,,,0,,,71,0
15840,note_on,13,0,1,,,,,,,,,0,,,48,80
15840,note_on,13,0,0,,,,,,,,,0,,,69,80
16067,note_on,227,0,0,,,,,,,,,0,,,69,0
16067,note_on,227,0,1,,,,,,,,,0,,,48,0
16080,note_on,13,0,1,,,,,,,,,0,,,50,80
16080,note_on,13,0,0,,,,,,,,,0,,,72,80
16193,note_on,113,0,0,,,,,,,,,0,,,72,0
16200,note_on,7,0,0,,,,,,,,,0,,,71,80
16307,note_on,227,0,1,,,,,,,,,0,,,50,0
16313,note_on,113,0,0,,,,,,,,,0,,,71,0
16320,note_on,7,0,0,,,,,,,,,0,,,69,80
16320,note_on,13,0,1,,,,,,,,,0,,,52,80
16433,note_on,113,0,0,,,,,,,,,0,,,69,0
16440,note_on,7,0,0,,,,,,,,,0,,,67,80
16547,note_on,227,0,1,,,,,,,,,0,,,52,0
16553,note_on,113,0,0,,,,,,,,,0,,,67,0
16560,note_on,7,0,0,,,,,,,,,0,,,66,80
16560,note_on,13,0,1,,,,,,,,,0,,,50,80
16587,note_on,27,0,0,,,,,,,,,0,,,66,0
16590,note_on,3,0,0,,,,,,,,,0,,,67,80
16617,note_on,27,0,0,,,,,,,,,0,,,67,0
16620,note_on,3,0,0,,,,,,,,,0,,,66,80
16647,note_on,27,0,0,,,,,,,,,0,,,66,0
16650,note_on,3,0,0,,,,,,,,,0,,,67,80
16677,note_on,27,0,0,,,,,,,,,0,,,67,0
16680,note_on,3,0,0,,,,,,,,,0,,,64,80
16787,note_on,227,0,1,,,,,,,,,0,,,50,0
16793,note_on,113,0,0,,,,,,,,,0,,,64,0
16800,note_on,13,0,1,,,,,,,,,0,,,50,80
16800,note_on,7,0,0,,,,,,,,,0,,,62,80
17027,note_on,227,0,1,,,,,,,,,0,,,50,0
17027,note_on,227,0,0,,,,,,,,,0,,,62,0
17040,note_on,13,0,1,,,,,,,,,0,,,52,80
17267,note_on,227,0,1,,,,,,,,,0,,,52,0
17280,note_on,253,0,0,,,,,,,,,0,,,69,80
17280,note_on,13,0,1,,,,,,,,,0,,,54,80
17507,note_on,227,0,0,,,,,,,,,0,,,69,0
17520,note_on,13,0,0,,,,,,,,,0,,,67,80
17633,note_on,113,0,0,,,,,,,,,0,,,67,0
17640,note_on,7,0,0,,,,,,,,,0,,,66,80
17735,note_on,455,0,1,,,,,,,,,0,,,54,0
17753,note_on,113,0,0,,,,,,,,,0,,,66,0
17760,note_on,7,0,0,,,,,,,,,0,,,64,80
17873,note_on,113,0,0,,,,,,,,,0,,,64,0
17880,note_on,7,0,0,,,,,,,,,0,,,62,80
17993,note_on,113,0,0,,,,,,,,,0,,,62,0
18000,note_on,7,0,0,,,,,,,,,0,,,71,80
18000,note_on,265,0,1,,,,,,,,,0,,,55,80
18227,note_on,227,0,0,,,,,,,,,0,,,71,0
18240,note_on,13,0,0,,,,,,,,,0,,,69,80
18353,note_on,113,0,0,,,,,,,,,0,,,69,0
18360,note_on,7,0,0,,,,,,,,,0,,,67,80
18455,note_on,455,0,1,,,,,,,,,0,,,55,0
18473,note_on,113,0,0,,,,,,,,,0,,,67,0
18480,note_on,7,0,0,,,,,,,,,0,,,66,80
18593,note_on,113,0,0,,,,,,,,,0,,,66,0
18600,note_on,7,0,0,,,,,,,,,0,,,64,80
18713,note_on,113,0,0,,,,,,,,,0,,,64,0
18720,note_on,7,0,0,,,,,,,,,0,,,73,80
18720,note_on,265,0,1,,,,,,,,,0,,,57,80
18833,note_on,113,0,0,,,,,,,,,0,,,73,0
18840,note_on,7,0,0,,,,,,,,,0,,,71,80
18953,note_on,113,0,0,,,,,,,,,0,,,71,0
18960,note_on,7,0,0,,,,,,,,,0,,,69,80
19073,note_on,113,0,0,,,,,,,,,0,,,69,0
19080,note_on,7,0,0,,,,,,,,,0,,,67,80
19175,note_on,455,0,1,,,,,,,,,0,,,57,0
19193,note_on,113,0,0,,,,,,,,,0,,,67,0
19200,note_on,7,0,0,,,,,,,,,0,,,66,80
19313,note_on,113,0,0,,,,,,,,,0,,,66,0
19320,note_on,7,0,0,,,,,,,,,0,,,64,80
19433,note_on,113,0,0,,,,,,,,,0,,,64,0
19440,note_on,265,0,1,,,,,,,,,0,,,59,80
19440,note_on,7,0,0,,,,,,,,,0,,,74,80
19667,note_on,227,0,1,,,,,,,,,0,,,59,0
19680,note_on,13,0,1,,,,,,,,,0,,,55,80
19907,note_on,227,0,1,,,,,,,,,0,,,55,0
19920,note_on,13,0,1,,,,,,,,,0,,,54,80
20123,note_on,683,0,0,,,,,,,,,0,,,74,0
20147,note_on,227,0,1,,,,,,,,,0,,,54,0
20160,note_on,37,0,0,,,,,,,,,0,,,79,80
20273,note_on,113,0,0,,,,,,,,,0,,,79,0
20280,note_on,7,0,0,,,,,,,,,0,,,78,80
20393,note_on,113,0,0,,,,,,,,,0,,,78,0
20400,note_on,7,0,0,,,,,,,,,0,,,76,80
20513,note_on,113,0,0,,,,,,,,,0,,,76,0
20520,note_on,7,0,0,,,,,,,,,0,,,74,80
20633,note_on,113,0,0,,,,,,,,,0,,,74,0
20640,note_on,7,0,0,,,,,,,,,0,,,73,80
20640,note_on,493,0,1,,,,,,,,,0,,,55,80
20753,note_on,113,0,0,,,,,,,,,0,,,73,0
20760,note_on,7,0,0,,,,,,,,,0,,,71,80
20867,note_on,227,0,1,,,,,,,,,0,,,55,0
20873,note_on,113,0,0,,,,,,,,,0,,,71,0
20880,note_on,7,0,0,,,,,,,,,0,,,69,80
20880,note_on,13,0,1,,,,,,,,,0,,,57,80
20935,note_on,55,0,0,,,,,,,,,0,,,69,0
20940,note_on,5,0,0,,,,,,,,,0,,,71,80
20995,note_on,55,0,0,,,,,,,,,0,,,71,0
21000,note_on,5,0,0,,,,,,,,,0,,,69,80
21055,note_on,55,0,0,,,,,,,,,0,,,69,0
21060,note_on,5,0,0,,,,,,,,,0,,,71,80
21107,note_on,227,0,1,,,,,,,,,0,,,57,0
21115,note_on,55,0,0,,,,,,,,,0,,,71,0
21120,note_on,13,0,1,,,,,,,,,0,,,59,80
21120,note_on,5,0,0,,,,,,,,,0,,,67,80
21233,note_on,113,0,0,,,,,,,,,0,,,67,0
21240,note_on,7,0,0,,,,,,,,,0,,,66,80
21347,note_on,227,0,1,,,,,,,,,0,,,59,0
21353,note_on,113,0,0,,,,,,,,,0,,,66,0
21360,note_on,13,0,1,,,,,,,,,0,,,54,80
21360,note_on,7,0,0,,,,,,,,,0,,,64,80
21473,note_on,113,0,0,,,,,,,,,0,,,64,0
21480,note_on,7,0,0,,,,,,,,,0,,,62,80
21587,note_on,227,0,1,,,,,,,,,0,,,54,0
21593,note_on,113,0,0,,,,,,,,,0,,,62,0
21600,note_on,13,0,1,,,,,,,,,0,,,55,80
21600,note_on,7,0,0,,,,,,,,,0,,,64,80
21827,note_on,227,0,1,,,,,,,,,0,,,55,0
21827,note_on,227,0,0,,,,,,,,,0,,,64,0
21840,note_on,13,0,0,,,,,,,,,0,,,74,80
21840,note_on,13,0,1,,,,,,,,,0,,,52,80
22067,note_on,227,0,1,,,,,,,,,0,,,52,0
22067,note_on,227,0,0,,,,,,,,,0,,,74,0
22080,note_on,13,0,0,,,,,,,,,0,,,73,80
22080,note_on,13,0,1,,,,,,,,,0,,,57,80
22135,note_on,55,0,0,,,,,,,,,0,,,73,0
22140,note_on,5,0,0,,,,,,,,,0,,,74,80
22195,note_on,55,0,0,,,,,,,,,0,,,74,0
22200,note_on,5,0,0,,,,,,,,,0,,,73,80
22255,note_on,55,0,0,,,,,,,,,0,,,73,0
22260,note_on,5,0,0,,,,,,,,,0,,,74,80
22307,note_on,227,0,1,,,,,,,,,0,,,57,0
22315,note_on,55,0,0,,,,,,,,,0,,,74,0
22320,note_on,5,0,0,,,,,,,,,0,,,74,80
22320,note_on,13,0,1,,,,,,,,,0,,,50,80
23003,note_on,683,0,1,,,,,,,,,0,,,50,0
23003,note_on,683,0,0,,,,,,,,,0,,,74,0
23040,note_on,37,0,0,,,,,,,,,0,,,74,80
23040,note_on,37,0,1,,,,,,,,,0,,,47,80
23267,note_on,227,0,0,,,,,,,,,0,,,74,0
23280,note_on,13,0,0,,,,,,,,,0,,,71,80
23495,note_on,455,0,1,,,,,,,,,0,,,47,0
23507,note_on,227,0,0,,,,,,,,,0,,,71,0
23520,note_on,13,0,0,,,,,,,,,0,,,68,80
23747,note_on,227,0,0,,,,,,,,,0,,,68,0
23760,note_on,13,0,0,,,,,,,,,0,,,64,80
23760,note_on,265,0,1,,,,,,,,,0,,,56,80
23987,note_on,227,0,0,,,,,,,,,0,,,64,0
24000,note_on,13,0,0,,,,,,,,,0,,,74,80
24215,note_on,455,0,1,,,,,,,,,0,,,56,0
24455,note_on,455,0,0,,,,,,,,,0,,,74,0
24480,note_on,265,0,1,,,,,,,,,0,,,44,80
24480,note_on,25,0,0,,,,,,,,,0,,,74,80
24707,note_on,227,0,0,,,,,,,,,0,,,74,0
24707,note_on,227,0,1,,,,,,,,,0,,,44,0
24720,note_on,13,0,0,,,,,,,,,0,,,76,80
24720,note_on,13,0,1,,,,,,,,,0,,,40,80
24833,note_on,113,0,0,,,,,,,,,0,,,76,0
24840,note_on,7,0,0,,,,,,,,,0,,,74,80
24947,note_on,227,0,1,,,,,,,,,0,,,40,0
24953,note_on,113,0,0,,,,,,,,,0,,,74,0
24960,note_on,7,0,0,,,,,,,,,0,,,72,80
24960,note_on,13,0,1,,,,,,,,,0,,,44,80
25073,note_on,113,0,0,,,,,,,,,0,,,72,0
25080,note_on,7,0,0,,,,,,,,,0,,,71,80
25187,note_on,227,0,1,,,,,,,,,0,,,44,0
25193,note_on,113,0,0,,,,,,,,,0,,,71,0
25200,note_on,7,0,0,,,,,,,,,0,,,72,80
25200,note_on,13,0,1,,,,,,,,,0,,,45,80
25313,note_on,113,0,0,,,,,,,,,0,,,72,0
25320,note_on,7,0,0,,,,,,,,,0,,,74,80
25433,note_on,113,0,0,,,,,,,,,0,,,74,0
25440,note_on,7,0,0,,,,,,,,,0,,,76,80
25655,note_on,455,0,1,,,,,,,,,0,,,45,0
25895,note_on,455,0,0,,,,,,,,,0,,,76,0
25920,note_on,25,0,0,,,,,,,,,0,,,72,80
25920,note_on,265,0,1,,,,,,,,,0,,,57,80
26147,note_on,227,0,0,,,,,,,,,0,,,72,0
26160,note_on,13,0,0,,,,,,,,,0,,,69,80
26375,note_on,455,0,1,,,,,,,,,0,,,57,0
26387,note_on,227,0,0,,,,,,,,,0,,,69,0
26400,note_on,13,0,0,,,,,,,,,0,,,66,80
26627,note_on,227,0,0,,,,,,,,,0,,,66,0
26640,note_on,265,0,1,,,,,,,,,0,,,54,80
26640,note_on,13,0,0,,,,,,,,,0,,,62,80
26867,note_on,227,0,0,,,,,,,,,0,,,62,0
26880,note_on,13,0,0,,,,,,,,,0,,,72,80
27095,note_on,455,0,1,,,,,,,,,0,,,54,0
27335,note_on,455,0,0,,,,,,,,,0,,,72,0
27360,note_on,265,0,1,,,,,,,,,0,,,54,80
27360,note_on,25,0,0,,,,,,,,,0,,,72,80
27587,note_on,227,0,0,,,,,,,,,0,,,72,0
27587,note_on,227,0,1,,,,,,,,,0,,,54,0
27600,note_on,13,0,0,,,,,,,,,0,,,74,80
27600,note_on,13,0,1,,,,,,,,,0,,,50,80
27713,note_on,113,0,0,,,,,,,,,0,,,74,0
27720,note_on,7,0,0,,,,,,,,,0,,,72,80
27827,note_on,227,0,1,,,,,,,,,0,,,50,0
27833,note_on,113,0,0,,,,,,,,,0,,,72,0
27840,note_on,7,0,0,,,,,,,,,0,,,71,80
27840,note_on,13,0,1,,,,,,,,,0,,,54,80
27953,note_on,113,0,0,,,,,,,,,0,,,71,0
27960,note_on,7,0,0,,,,,,,,,0,,,69,80
28067,note_on,227,0,1,,,,,,,,,0,,,54,0
28073,note_on,113,0,0,,,,,,,,,0,,,69,0
28080,note_on,7,0,0,,,,,,,,,0,,,71,80
28080,note_on,13,0,1,,,,,,,,,0,,,55,80
28193,note_on,113,0,0,,,,,,,,,0,,,71,0
28200,note_on,7,0,0,,,,,,,,,0,,,72,80
28307,note_on,227,0,1,,,,,,,,,0,,,55,0
28313,note_on,113,0,0,,,,,,,,,0,,,72,0
28320,note_on,7,0,0,,,,,,,,,0,,,74,80
28320,note_on,13,0,1,,,,,,,,,0,,,54,80
28547,note_on,227,0,1,,,,,,,,,0,,,54,0
28560,note_on,13,0,1,,,,,,,,,0,,,50,80
28775,note_on,455,0,0,,,,,,,,,0,,,74,0
28787,note_on,227,0,1,,,,,,,,,0,,,50,0
28800,note_on,25,0,0,,,,,,,,,0,,,79,80
28800,note_on,13,0,1,,,,,,,,,0,,,52,80
29027,note_on,227,0,1,,,,,,,,,0,,,52,0
29027,note_on,227,0,0,,,,,,,,,0,,,79,0
29040,note_on,13,0,0,,,,,,,,,0,,,71,80
29040,note_on,13,0,1,,,,,,,,,0,,,50,80
29267,note_on,227,0,0,,,,,,,,,0,,,71,0
29267,note_on,227,0,1,,,,,,,,,0,,,50,0
29280,note_on,13,0,0,,,,,,,,,0,,,76,80
29280,note_on,13,0,1,,,,,,,,,0,,,48,80
29507,note_on,227,0,1,,,,,,,,,0,,,48,0
29507,note_on,227,0,0,,,,,,,,,0,,,76,0
29520,note_on,13,0,1,,,,,,,,,0,,,47,80
29520,note_on,13,0,0,,,,,,,,,0,,,74,80
29747,note_on,227,0,0,,,,,,,,,0,,,74,0
29760,note_on,13,0,0,,,,,,,,,0,,,72,80
29873,note_on,113,0,0,,,,,,,,,0,,,72,0
29880,note_on,7,0,0,,,,,,,,,0,,,71,80
29975,note_on,455,0,1,,,,,,,,,0,,,47,0
29993,note_on,113,0,0,,,,,,,,,0,,,71,0
30000,note_on,7,0,0,,,,,,,,,0,,,69,80
30113,note_on,113,0,0,,,,,,,,,0,,,69,0
30120,note_on,7,0,0,,,,,,,,,0,,,67,80
30233,note_on,113,0,0,,,,,,,,,0,,,67,0
30240,note_on,265,0,1,,,,,,,,,0,,,45,80
30240,note_on,7,0,0,,,,,,,,,0,,,66,80
30353,note_on,113,0,0,,,,,,,,,0,,,66,0
30360,note_on,7,0,0,,,,,,,,,0,,,67,80
30467,note_on,227,0,1,,,,,,,,,0,,,45,0
30473,note_on,113,0,0,,,,,,,,,0,,,67,0
30480,note_on,7,0,0,,,,,,,,,0,,,67,80
30480,note_on,13,0,1,,,,,,,,,0,,,47,80
30535,note_on,55,0,0,,,,,,,,,0,,,67,0
30540,note_on,5,0,0,,,,,,,,,0,,,69,80
30595,note_on,55,0,0,,,,,,,,,0,,,69,0
30600,note_on,5,0,0,,,,,,,,,0,,,67,80
30655,note_on,55,0,0,,,,,,,,,0,,,67,0
30660,note_on,5,0,0,,,,,,,,,0,,,69,80
30707,note_on,227,0,1,,,,,,,,,0,,,47,0
30715,note_on,55,0,0,,,,,,,,,0,,,69,0
30720,note_on,13,0,1,,,,,,,,,0,,,43,80
30720,note_on,5,0,0,,,,,,,,,0,,,67,80
30775,note_on,55,0,0,,,,,,,,,0,,,67,0
30780,note_on,5,0,0,,,,,,,,,0,,,69,80
30835,note_on,55,0,0,,,,,,,,,0,,,69,0
30840,note_on,5,0,0,,,,,,,,,0,,,67,80
30895,note_on,55,0,0,,,,,,,,,0,,,67,0
30900,note_on,5,0,0,,,,,,,,,0,,,69,80
30947,note_on,227,0,1,,,,,,,,,0,,,43,0
30955,note_on,55,0,0,,,,,,,,,0,,,69,0
30960,note_on,13,0,1,,,,,,,,,0,,,50,80
30960,note_on,5,0,0,,,,,,,,,0,,,69,80
31187,note_on,227,0,1,,,,,,,,,0,,,50,0
31200,note_on,13,0,1,,,,,,,,,0,,,54,80
31427,note_on,227,0,1,,,,,,,,,0,,,54,0
31440,note_on,13,0,1,,,,,,,,,0,,,50,80
31643,note_on,683,0,0,,,,,,,,,0,,,69,0
31667,note_on,227,0,1,,,,,,,,,0,,,50,0
31680,note_on,13,0,1,,,,,,,,,0,,,48,80
31680,note_on,37,0,0,,,,,,,,,0,,,76,80
31793,note_on,113,0,0,,,,,,,,,0,,,76,0
31800,note_on,7,0,0,,,,,,,,,0,,,74,80
31907,note_on,227,0,1,,,,,,,,,0,,,48,0
31913,note_on,113,0,0,,,,,,,,,0,,,74,0
31920,note_on,7,0,0,,,,,,,,,0,,,72,80
31920,note_on,13,0,1,,,,,,,,,0,,,52,80
32033,note_on,113,0,0,,,,,,,,,0,,,72,0
32040,note_on,7,0,0,,,,,,,,,0,,,71,80
32147,note_on,227,0,1,,,,,,,,,0,,,52,0
32153,note_on,113,0,0,,,,,,,,,0,,,71,0
32160,note_on,13,0,1,,,,,,,,,0,,,48,80
32160,note_on,7,0,0,,,,,,,,,0,,,69,80
32273,note_on,113,0,0,,,,,,,,,0,,,69,0
32280,note_on,7,0,0,,,,,,,,,0,,,67,80
32387,note_on,227,0,1,,,,,,,,,0,,,48,0
32393,note_on,113,0,0,,,,,,,,,0,,,67,0
32400,note_on,7,0,0,,,,,,,,,0,,,66,80
32400,note_on,13,0,1,,,,,,,,,0,,,50,80
32627,note_on,227,0,1,,,,,,,,,0,,,50,0
32627,note_on,227,0,0,,,,,,,,,0,,,66,0
32640,note_on,13,0,0,,,,,,,,,0,,,67,80
32640,note_on,13,0,1,,,,,,,,,0,,,47,80
32867,note_on,227,0,0,,,,,,,,,0,,,67,0
32867,note_on,227,0,1,,,,,,,,,0,,,47,0
32880,note_on,13,0,0,,,,,,,,,0,,,72,80
32880,note_on,13,0,1,,,,,,,,,0,,,52,80
33107,note_on,227,0,1,,,,,,,,,0,,,52,0
33107,note_on,227,0,0,,,,,,,,,0,,,72,0
33120,note_on,13,0,1,,,,,,,,,0,,,50,80
33120,note_on,13,0,0,,,,,,,,,0,,,71,80
33195,note_on,75,0,0,,,,,,,,,0,,,71,0
33200,note_on,5,0,0,,,,,,,,,0,,,69,80
33275,note_on,75,0,0,,,,,,,,,0,,,69,0
33280,note_on,5,0,0,,,,,,,,,0,,,67,80
33355,note_on,75,0,0,,,,,,,,,0,,,67,0
33360,note_on,5,0,0,,,,,,,,,0,,,69,80
33415,note_on,55,0,0,,,,,,,,,0,,,69,0
33419,note_on,4,0,0,,,,,,,,,0,,,71,80
33474,note_on,55,0,0,,,,,,,,,0,,,71,0
33479,note_on,5,0,0,,,,,,,,,0,,,69,80
33534,note_on,55,0,0,,,,,,,,,0,,,69,0
33540,note_on,6,0,0,,,,,,,,,0,,,71,80
33575,note_on,455,0,1,,,,,,,,,0,,,50,0
33595,note_on,55,0,0,,,,,,,,,0,,,71,0
33599,note_on,4,0,0,,,,,,,,,0,,,69,80
33600,note_on,25,0,1,,,,,,,,,0,,,50,80
33654,note_on,55,0,0,,,,,,,,,0,,,69,0
33659,note_on,5,0,0,,,,,,,,,0,,,71,80
33714,note_on,55,0,0,,,,,,,,,0,,,71,0
33720,note_on,6,0,0,,,,,,,,,0,,,67,80
33827,note_on,227,0,1,,,,,,,,,0,,,50,0
33833,note_on,113,0,0,,,,,,,,,0,,,67,0
33840,note_on,7,0,0,,,,,,,,,0,,,67,80
33840,note_on,13,0,1,,,,,,,,,0,,,43,80
34523,note_on,683,0,0,,,,,,,,,0,,,67,0
34523,note_on,683,0,1,,,,,,,,,0,,,43,0
34560,set_tempo,0,1,0,,,,,,500000,,,,,,,
34560,note_on,37,0,1,,,,,,,,,0,,,55,80
34560,time_signature,37,1,0,3,8,24,8,,,,,,,,,
34560,note_on,0,0,0,,,,,,,,,0,,,67,80
34787,note_on,227,0,0,,,,,,,,,0,,,67,0
34787,note_on,227,0,1,,,,,,,,,0,,,55,0
34800,note_on,13,0,1,,,,,,,,,0,,,48,80
34800,note_on,13,0,0,,,,,,,,,0,,,71,80
34913,note_on,113,0,0,,,,,,,,,0,,,71,0
34920,note_on,7,0,0,,,,,,,,,0,,,69,80
35027,note_on,227,0,1,,,,,,,,,0,,,48,0
35033,note_on,113,0,0,,,,,,,,,0,,,69,0
35040,note_on,13,0,1,,,,,,,,,0,,,50,80
35040,note_on,7,0,0,,,,,,,,,0,,,67,80
35153,note_on,113,0,0,,,,,,,,,0,,,67,0
35160,note_on,7,0,0,,,,,,,,,0,,,66,80
35267,note_on,227,0,1,,,,,,,,,0,,,50,0
35273,note_on,113,0,0,,,,,,,,,0,,,66,0
35280,note_on,13,0,1,,,,,,,,,0,,,52,80
35280,note_on,7,0,0,,,,,,,,,0,,,67,80
35507,note_on,227,0,1,,,,,,,,,0,,,52,0
35507,note_on,227,0,0,,,,,,,,,0,,,67,0
35520,note_on,13,0,0,,,,,,,,,0,,,76,80
35520,note_on,13,0,1,,,,,,,,,0,,,48,80
35747,note_on,227,0,0,,,,,,,,,0,,,76,0
35747,note_on,227,0,1,,,,,,,,,0,,,48,0
35760,note_on,13,0,0,,,,,,,,,0,,,74,80
35760,note_on,13,0,1,,,,,,,,,0,,,47,80
35987,note_on,227,0,0,,,,,,,,,0,,,74,0
35987,note_on,227,0,1,,,,,,,,,0,,,47,0
36000,note_on,13,0,0,,,,,,,,,0,,,67,80
36227,note_on,227,0,0,,,,,,,,,0,,,67,0
36240,note_on,13,0,0,,,,,,,,,0,,,71,80
36353,note_on,113,0,0,,,,,,,,,0,,,71,0
36360,note_on,7,0,0,,,,,,,,,0,,,69,80
36473,note_on,113,0,0,,,,,,,,,0,,,69,0
36480,note_on,7,0,0,,,,,,,,,0,,,67,80
36593,note_on,113,0,0,,,,,,,,,0,,,67,0
36600,note_on,7,0,0,,,,,,,,,0,,,66,80
36713,note_on,113,0,0,,,,,,,,,0,,,66,0
36720,note_on,7,0,0,,,,,,,,,0,,,67,80
36947,note_on,227,0,0,,,,,,,,,0,,,67,0
36960,note_on,973,0,1,,,,,,,,,0,,,60,80
36960,note_on,13,0,0,,,,,,,,,0,,,76,80
37187,note_on,227,0,0,,,,,,,,,0,,,76,0
37187,note_on,227,0,1,,,,,,,,,0,,,60,0
37200,note_on,13,0,0,,,,,,,,,0,,,74,80
37200,note_on,13,0,1,,,,,,,,,0,,,59,80
37427,note_on,227,0,0,,,,,,,,,0,,,74,0
37427,note_on,227,0,1,,,,,,,,,0,,,59,0
37440,note_on,13,0,0,,,,,,,,,0,,,67,80
37667,note_on,227,0,0,,,,,,,,,0,,,67,0
37680,note_on,13,0,0,,,,,,,,,0,,,71,80
37793,note_on,113,0,0,,,,,,,,,0,,,71,0
37800,note_on,7,0,0,,,,,,,,,0,,,69,80
37913,note_on,113,0,0,,,,,,,,,0,,,69,0
37920,note_on,7,0,0,,,,,,,,,0,,,67,80
38033,note_on,113,0,0,,,,,,,,,0,,,67,0
38040,note_on,7,0,0,,,,,,,,,0,,,66,80
38153,note_on,113,0,0,,,,,,,,,0,,,66,0
38160,note_on,7,0,0,,,,,,,,,0,,,67,80
38387,note_on,227,0,0,,,,,,,,,0,,,67,0
38400,note_on,973,0,1,,,,,,,,,0,,,57,80
38400,note_on,13,0,0,,,,,,,,,0,,,72,80
38627,note_on,227,0,0,,,,,,,,,0,,,72,0
38627,note_on,227,0,1,,,,,,,,,0,,,57,0
38640,note_on,13,0,0,,,,,,,,,0,,,71,80
38640,note_on,13,0,1,,,,,,,,,0,,,55,80
38867,note_on,227,0,0,,,,,,,,,0,,,71,0
38867,note_on,227,0,1,,,,,,,,,0,,,55,0
38880,note_on,13,0,0,,,,,,,,,0,,,69,80
38880,note_on,13,0,1,,,,,,,,,0,,,48,80
39107,note_on,227,0,0,,,,,,,,,0,,,69,0
39107,note_on,227,0,1,,,,,,,,,0,,,48,0
39120,note_on,13,0,1,,,,,,,,,0,,,50,80
39120,note_on,13,0,0,,,,,,,,,0,,,72,80
39233,note_on,113,0,0,,,,,,,,,0,,,72,0
39240,note_on,7,0,0,,,,,,,,,0,,,71,80
39347,note_on,227,0,1,,,,,,,,,0,,,50,0
39353,note_on,113,0,0,,,,,,,,,0,,,71,0
39360,note_on,13,0,1,,,,,,,,,0,,,52,80
39360,note_on,7,0,0,,,,,,,,,0,,,69,80
39473,note_on,113,0,0,,,,,,,,,0,,,69,0
39480,note_on,7,0,0,,,,,,,,,0,,,67,80
39587,note_on,227,0,1,,,,,,,,,0,,,52,0
39593,note_on,113,0,0,,,,,,,,,0,,,67,0
39600,note_on,13,0,1,,,,,,,,,0,,,50,80
39600,note_on,7,0,0,,,,,,,,,0,,,66,80
39627,note_on,27,0,0,,,,,,,,,0,,,66,0
39630,note_on,3,0,0,,,,,,,,,0,,,67,80
39657,note_on,27,0,0,,,,,,,,,0,,,67,0
39660,note_on,3,0,0,,,,,,,,,0,,,66,80
39687,note_on,27,0,0,,,,,,,,,0,,,66,0
39690,note_on,3,0,0,,,,,,,,,0,,,67,80
39717,note_on,27,0,0,,,,,,,,,0,,,67,0
39720,note_on,3,0,0,,,,,,,,,0,,,64,80
39827,note_on,227,0,1,,,,,,,,,0,,,50,0
39833,note_on,113,0,0,,,,,,,,,0,,,64,0
39840,note_on,7,0,0,,,,,,,,,0,,,62,80
39840,note_on,13,0,1,,,,,,,,,0,,,50,80
40067,note_on,227,0,1,,,,,,,,,0,,,50,0
40067,note_on,227,0,0,,,,,,,,,0,,,62,0
40080,note_on,13,0,1,,,,,,,,,0,,,52,80
40307,note_on,227,0,1,,,,,,,,,0,,,52,0
40320,note_on,253,0,0,,,,,,,,,0,,,69,80
40320,note_on,13,0,1,,,,,,,,,0,,,54,80
40547,note_on,227,0,0,,,,,,,,,0,,,69,0
40560,note_on,13,0,0,,,,,,,,,0,,,67,80
40673,note_on,113,0,0,,,,,,,,,0,,,67,0
40680,note_on,7,0,0,,,,,,,,,0,,,66,80
40775,note_on,455,0,1,,,,,,,,,0,,,54,0
40793,note_on,113,0,0,,,,,,,,,0,,,66,0
40800,note_on,7,0,0,,,,,,,,,0,,,64,80
40913,note_on,113,0,0,,,,,,,,,0,,,64,0
40920,note_on,7,0,0,,,,,,,,,0,,,62,80
41033,note_on,113,0,0,,,,,,,,,0,,,62,0
41040,note_on,7,0,0,,,,,,,,,0,,,71,80
41040,note_on,265,0,1,,,,,,,,,0,,,55,80
41267,note_on,227,0,0,,,,,,,,,0,,,71,0
41280,note_on,13,0,0,,,,,,,,,0,,,69,80
41393,note_on,113,0,0,,,,,,,,,0,,,69,0
41400,note_on,7,0,0,,,,,,,,,0,,,67,80
41495,note_on,455,0,1,,,,,,,,,0,,,55,0
41513,note_on,113,0,0,,,,,,,,,0,,,67,0
41520,note_on,7,0,0,,,,,,,,,0,,,66,80
41633,note_on,113,0,0,,,,,,,,,0,,,66,0
41640,note_on,7,0,0,,,,,,,,,0,,,64,80
41753,note_on,113,0,0,,,,,,,,,0,,,64,0
41760,note_on,7,0,0,,,,,,,,,0,,,73,80
41760,note_on,265,0,1,,,,,,,,,0,,,57,80
41873,note_on,113,0,0,,,,,,,,,0,,,73,0
41880,note_on,7,0,0,,,,,,,,,0,,,71,80
41993,note_on,113,0,0,,,,,,,,,0,,,71,0
42000,note_on,7,0,0,,,,,,,,,0,,,69,80
42113,note_on,113,0,0,,,,,,,,,0,,,69,0
42120,note_on,7,0,0,,,,,,,,,0,,,67,80
42215,note_on,455,0,1,,,,,,,,,0,,,57,0
42233,note_on,113,0,0,,,,,,,,,0,,,67,0
42240,note_on,7,0,0,,,,,,,,,0,,,66,80
42353,note_on,113,0,0,,,,,,,,,0,,,66,0
42360,note_on,7,0,0,,,,,,,,,0,,,64,80
42473,note_on,113,0,0,,,,,,,,,0,,,64,0
42480,note_on,7,0,0,,,,,,,,,0,,,74,80
42480,note_on,265,0,1,,,,,,,,,0,,,59,80
42707,note_on,227,0,1,,,,,,,,,0,,,59,0
42720,note_on,13,0,1,,,,,,,,,0,,,55,80
42947,note_on,227,0,1,,,,,,,,,0,,,55,0
42960,note_on,13,0,1,,,,,,,,,0,,,54,80
43163,note_on,683,0,0,,,,,,,,,0,,,74,0
43187,note_on,227,0,1,,,,,,,,,0,,,54,0
43200,note_on,37,0,0,,,,,,,,,0,,,79,80
43313,note_on,113,0,0,,,,,,,,,0,,,79,0
43320,note_on,7,0,0,,,,,,,,,0,,,78,80
43433,note_on,113,0,0,,,,,,,,,0,,,78,0
43440,note_on,7,0,0,,,,,,,,,0,,,76,80
43553,note_on,113,0,0,,,,,,,,,0,,,76,0
43560,note_on,7,0,0,,,,,,,,,0,,,74,80
43673,note_on,113,0,0,,,,,,,,,0,,,74,0
43680,note_on,493,0,1,,,,,,,,,0,,,55,80
43680,note_on,7,0,0,,,,,,,,,0,,,73,80
43793,note_on,113,0,0,,,,,,,,,0,,,73,0
43800,note_on,7,0,0,,,,,,,,,0,,,71,80
43907,note_on,227,0,1,,,,,,,,,0,,,55,0
43913,note_on,113,0,0,,,,,,,,,0,,,71,0
43920,note_on,13,0,1,,,,,,,,,0,,,57,80
43920,note_on,7,0,0,,,,,,,,,0,,,69,80
43975,note_on,55,0,0,,,,,,,,,0,,,69,0
43980,note_on,5,0,0,,,,,,,,,0,,,71,80
44035,note_on,55,0,0,,,,,,,,,0,,,71,0
44040,note_on,5,0,0,,,,,,,,,0,,,69,80
44095,note_on,55,0,0,,,,,,,,,0,,,69,0
44100,note_on,5,0,0,,,,,,,,,0,,,71,80
44147,note_on,227,0,1,,,,,,,,,0,,,57,0
44155,note_on,55,0,0,,,,,,,,,0,,,71,0
44160,note_on,5,0,0,,,,,,,,,0,,,67,80
44160,note_on,13,0,1,,,,,,,,,0,,,59,80
44273,note_on,113,0,0,,,,,,,,,0,,,67,0
44280,note_on,7,0,0,,,,,,,,,0,,,66,80
44387,note_on,227,0,1,,,,,,,,,0,,,59,0
44393,note_on,113,0,0,,,,,,,,,0,,,66,0
44400,note_on,7,0,0,,,,,,,,,0,,,64,80
44400,note_on,13,0,1,,,,,,,,,0,,,54,80
44513,note_on,113,0,0,,,,,,,,,0,,,64,0
44520,note_on,7,0,0,,,,,,,,,0,,,62,80
44627,note_on,227,0,1,,,,,,,,,0,,,54,0
44633,note_on,113,0,0,,,,,,,,,0,,,62,0
44640,note_on,13,0,1,,,,,,,,,0,,,55,80
44640,note_on,7,0,0,,,,,,,,,0,,,64,80
44867,note_on,227,0,1,,,,,,,,,0,,,55,0
44867,note_on,227,0,0,,,,,,,,,0,,,64,0
44880,note_on,13,0,0,,,,,,,,,0,,,74,80
44880,note_on,13,0,1,,,,,,,,,0,,,52,80
45107,note_on,227,0,1,,,,,,,,,0,,,52,0
45107,note_on,227,0,0,,,,,,,,,0,,,74,0
45120,note_on,13,0,0,,,,,,,,,0,,,73,80
45120,note_on,13,0,1,,,,,,,,,0,,,57,80
45175,note_on,55,0,0,,,,,,,,,0,,,73,0
45180,note_on,5,0,0,,,,,,,,,0,,,74,80
45235,note_on,55,0,0,,,,,,,,,0,,,74,0
45240,note_on,5,0,0,,,,,,,,,0,,,73,80
45295,note_on,55,0,0,,,,,,,,,0,,,73,0
45300,note_on,5,0,0,,,,,,,,,0,,,74,80
45347,note_on,227,0,1,,,,,,,,,0,,,57,0
45355,note_on,55,0,0,,,,,,,,,0,,,74,0
45360,note_on,13,0,1,,,,,,,,,0,,,50,80
45360,note_on,5,0,0,,,,,,,,,0,,,74,80
46043,note_on,683,0,1,,,,,,,,,0,,,50,0
46043,note_on,683,0,0,,,,,,,,,0,,,74,0
46080,note_on,37,0,0,,,,,,,,,0,,,74,80
46080,note_on,37,0,1,,,,,,,,,0,,,47,80
46307,note_on,227,0,0,,,,,,,,,0,,,74,0
46320,note_on,13,0,0,,,,,,,,,0,,,71,80
46535,note_on,455,0,1,,,,,,,,,0,,,47,0
46547,note_on,227,0,0,,,,,,,,,0,,,71,0
46560,note_on,13,0,0,,,,,,,,,0,,,68,80
46787,note_on,227,0,0,,,,,,,,,0,,,68,0
46800,note_on,13,0,0,,,,,,,,,0,,,64,80
46800,note_on,265,0,1,,,,,,,,,0,,,56,80
47027,note_on,227,0,0,,,,,,,,,0,,,64,0
47040,note_on,13,0,0,,,,,,,,,0,,,74,80
47255,note_on,455,0,1,,,,,,,,,0,,,56,0
47495,note_on,455,0,0,,,,,,,,,0,,,74,0
47520,note_on,25,0,0,,,,,,,,,0,,,74,80
47520,note_on,265,0,1,,,,,,,,,0,,,44,80
47747,note_on,227,0,1,,,,,,,,,0,,,44,0
47747,note_on,227,0,0,,,,,,,,,0,,,74,0
47760,note_on,13,0,0,,,,,,,,,0,,,76,80
47760,note_on,13,0,1,,,,,,,,,0,,,40,80
47873,note_on,113,0,0,,,,,,,,,0,,,76,0
47880,note_on,7,0,0,,,,,,,,,0,,,74,80
47987,note_on,227,0,1,,,,,,,,,0,,,40,0
47993,note_on,113,0,0,,,,,,,,,0,,,74,0
48000,note_on,7,0,0,,,,,,,,,0,,,72,80
48000,note_on,13,0,1,,,,,,,,,0,,,44,80
48113,note_on,113,0,0,,,,,,,,,0,,,72,0
48120,note_on,7,0,0,,,,,,,,,0,,,71,80
48227,note_on,227,0,1,,,,,,,,,0,,,44,0
48233,note_on,113,0,0,,,,,,,,,0,,,71,0
48240,note_on,7,0,0,,,,,,,,,0,,,72,80
48240,note_on,13,0,1,,,,,,,,,0,,,45,80
48353,note_on,113,0,0,,,,,,,,,0,,,72,0
48360,note_on,7,0,0,,,,,,,,,0,,,74,80
48473,note_on,113,0,0,,,,,,,,,0,,,74,0
48480,note_on,7,0,0,,,,,,,,,0,,,76,80
48695,note_on,455,0,1,,,,,,,,,0,,,45,0
48935,note_on,455,0,0,,,,,,,,,0,,,76,0
48960,note_on,25,0,0,,,,,,,,,0,,,72,80
48960,note_on,265,0,1,,,,,,,,,0,,,57,80
49187,note_on,227,0,0,,,,,,,,,0,,,72,0
49200,note_on,13,0,0,,,,,,,,,0,,,69,80
49415,note_on,455,0,1,,,,,,,,,0,,,57,0
49427,note_on,227,0,0,,,,,,,,,0,,,69,0
49440,note_on,13,0,0,,,,,,,,,0,,,66,80
49667,note_on,227,0,0,,,,,,,,,0,,,66,0
49680,note_on,13,0,0,,,,,,,,,0,,,62,80
49680,note_on,265,0,1,,,,,,,,,0,,,54,80
49907,note_on,227,0,0,,,,,,,,,0,,,62,0
49920,note_on,13,0,0,,,,,,,,,0,,,72,80
50135,note_on,455,0,1,,,,,,,,,0,,,54,0
50375,note_on,455,0,0,,,,,,,,,0,,,72,0
50400,note_on,25,0,0,,,,,,,,,0,,,72,80
50400,note_on,265,0,1,,,,,,,,,0,,,54,80
50627,note_on,227,0,0,,,,,,,,,0,,,72,0
50627,note_on,227,0,1,,,,,,,,,0,,,54,0
50640,note_on,13,0,0,,,,,,,,,0,,,74,80
50640,note_on,13,0,1,,,,,,,,,0,,,50,80
50753,note_on,113,0,0,,,,,,,,,0,,,74,0
50760,note_on,7,0,0,,,,,,,,,0,,,72,80
50867,note_on,227,0,1,,,,,,,,,0,,,50,0
50873,note_on,113,0,0,,,,,,,,,0,,,72,0
50880,note_on,7,0,0,,,,,,,,,0,,,71,80
50880,note_on,13,0,1,,,,,,,,,0,,,54,80
50993,note_on,113,0,0,,,,,,,,,0,,,71,0
51000,note_on,7,0,0,,,,,,,,,0,,,69,80
51107,note_on,227,0,1,,,,,,,,,0,,,54,0
51113,note_on,113,0,0,,,,,,,,,0,,,69,0
51120,note_on,13,0,1,,,,,,,,,0,,,55,80
51120,note_on,7,0,0,,,,,,,,,0,,,71,80
51233,note_on,113,0,0,,,,,,,,,0,,,71,0
51240,note_on,7,0,0,,,,,,,,,0,,,72,80
51347,note_on,227,0,1,,,,,,,,,0,,,55,0
51353,note_on,113,0,0,,,,,,,,,0,,,72,0
51360,note_on,7,0,0,,,,,,,,,0,,,74,80
51360,note_on,13,0,1,,,,,,,,,0,,,54,80
51587,note_on,227,0,1,,,,,,,,,0,,,54,0
51600,note_on,13,0,1,,,,,,,,,0,,,50,80
51815,note_on,455,0,0,,,,,,,,,0,,,74,0
51827,note_on,227,0,1,,,,,,,,,0,,,50,0
51840,note_on,25,0,0,,,,,,,,,0,,,79,80
51840,note_on,13,0,1,,,,,,,,,0,,,52,80
52067,note_on,227,0,1,,,,,,,,,0,,,52,0
52067,note_on,227,0,0,,,,,,,,,0,,,79,0
52080,note_on,13,0,0,,,,,,,,,0,,,71,80
52080,note_on,13,0,1,,,,,,,,,0,,,50,80
52307,note_on,227,0,1,,,,,,,,,0,,,50,0
52307,note_on,227,0,0,,,,,,,,,0,,,71,0
52320,note_on,13,0,0,,,,,,,,,0,,,76,80
52320,note_on,13,0,1,,,,,,,,,0,,,48,80
52547,note_on,227,0,1,,,,,,,,,0,,,48,0
52547,note_on,227,0,0,,,,,,,,,0,,,76,0
52560,note_on,13,0,0,,,,,,,,,0,,,74,80
52560,note_on,13,0,1,,,,,,,,,0,,,47,80
52787,note_on,227,0,0,,,,,,,,,0,,,74,0
52800,note_on,13,0,0,,,,,,,,,0,,,72,80
52913,note_on,113,0,0,,,,,,,,,0,,,72,0
52920,note_on,7,0,0,,,,,,,,,0,,,71,80
53015,note_on,455,0,1,,,,,,,,,0,,,47,0
53033,note_on,113,0,0,,,,,,,,,0,,,71,0
53040,note_on,7,0,0,,,,,,,,,0,,,69,80
53153,note_on,113,0,0,,,,,,,,,0,,,69,0
53160,note_on,7,0,0,,,,,,,,,0,,,67,80
53273,note_on,113,0,0,,,,,,,,,0,,,67,0
53280,note_on,265,0,1,,,,,,,,,0,,,45,80
53280,note_on,7,0,0,,,,,,,,,0,,,66,80
53393,note_on,113,0,0,,,,,,,,,0,,,66,0
53400,note_on,7,0,0,,,,,,,,,0,,,67,80
53507,note_on,227,0,1,,,,,,,,,0,,,45,0
53513,note_on,113,0,0,,,,,,,,,0,,,67,0
53520,note_on,7,0,0,,,,,,,,,0,,,67,80
53520,note_on,13,0,1,,,,,,,,,0,,,47,80
53575,note_on,55,0,0,,,,,,,,,0,,,67,0
53580,note_on,5,0,0,,,,,,,,,0,,,69,80
53635,note_on,55,0,0,,,,,,,,,0,,,69,0
53640,note_on,5,0,0,,,,,,,,,0,,,67,80
53695,note_on,55,0,0,,,,,,,,,0,,,67,0
53700,note_on,5,0,0,,,,,,,,,0,,,69,80
53747,note_on,227,0,1,,,,,,,,,0,,,47,0
53755,note_on,55,0,0,,,,,,,,,0,,,69,0
53760,note_on,5,0,0,,,,,,,,,0,,,67,80
53760,note_on,13,0,1,,,,,,,,,0,,,43,80
53815,note_on,55,0,0,,,,,,,,,0,,,67,0
53820,note_on,5,0,0,,,,,,,,,0,,,69,80
53875,note_on,55,0,0,,,,,,,,,0,,,69,0
53880,note_on,5,0,0,,,,,,,,,0,,,67,80
53935,note_on,55,0,0,,,,,,,,,0,,,67,0
53940,note_on,5,0,0,,,,,,,,,0,,,69,80
53987,note_on,227,0,1,,,,,,,,,0,,,43,0
53995,note_on,55,0,0,,,,,,,,,0,,,69,0
54000,note_on,5,0,0,,,,,,,,,0,,,69,80
54000,note_on,13,0,1,,,,,,,,,0,,,50,80
54227,note_on,227,0,1,,,,,,,,,0,,,50,0
54240,note_on,13,0,1,,,,,,,,,0,,,54,80
54467,note_on,227,0,1,,,,,,,,,0,,,54,0
54480,note_on,13,0,1,,,,,,,,,0,,,50,80
54683,note_on,683,0,0,,,,,,,,,0,,,69,0
54707,note_on,227,0,1,,,,,,,,,0,,,50,0
54720,note_on,37,0,0,,,,,,,,,0,,,76,80
54720,note_on,13,0,1,,,,,,,,,0,,,48,80
54833,note_on,113,0,0,,,,,,,,,0,,,76,0
54840,note_on,7,0,0,,,,,,,,,0,,,74,80
54947,note_on,227,0,1,,,,,,,,,0,,,48,0
54953,note_on,113,0,0,,,,,,,,,0,,,74,0
54960,note_on,7,0,0,,,,,,,,,0,,,72,80
54960,note_on,13,0,1,,,,,,,,,0,,,52,80
55073,note_on,113,0,0,,,,,,,,,0,,,72,0
55080,note_on,7,0,0,,,,,,,,,0,,,71,80
55187,note_on,227,0,1,,,,,,,,,0,,,52,0
55193,note_on,113,0,0,,,,,,,,,0,,,71,0
55200,note_on,13,0,1,,,,,,,,,0,,,48,80
55200,note_on,7,0,0,,,,,,,,,0,,,69,80
55313,note_on,113,0,0,,,,,,,,,0,,,69,0
55320,note_on,7,0,0,,,,,,,,,0,,,67,80
55427,note_on,227,0,1,,,,,,,,,0,,,48,0
55433,note_on,113,0,0,,,,,,,,,0,,,67,0
55440,note_on,13,0,1,,,,,,,,,0,,,50,80
55440,note_on,7,0,0,,,,,,,,,0,,,66,80
55667,note_on,227,0,0,,,,,,,,,0,,,66,0
55667,note_on,227,0,1,,,,,,,,,0,,,50,0
55680,note_on,13,0,0,,,,,,,,,0,,,67,80
55680,note_on,13,0,1,,,,,,,,,0,,,47,80
55907,note_on,227,0,1,,,,,,,,,0,,,47,0
55907,note_on,227,0,0,,,,,,,,,0,,,67,0
55920,note_on,13,0,1,,,,,,,,,0,,,52,80
55920,note_on,13,0,0,,,,,,,,,0,,,72,80
56147,note_on,227,0,0,,,,,,,,,0,,,72,0
56147,note_on,227,0,1,,,,,,,,,0,,,52,0
56160,note_on,13,0,1,,,,,,,,,0,,,50,80
56160,note_on,13,0,0,,,,,,,,,0,,,71,80
56235,note_on,75,0,0,,,,,,,,,0,,,71,0
56240,note_on,5,0,0,,,,,,,,,0,,,69,80
56315,note_on,75,0,0,,,,,,,,,0,,,69,0
56320,note_on,5,0,0,,,,,,,,,0,,,67,80
56395,note_on,75,0,0,,,,,,,,,0,,,67,0
56400,note_on,5,0,0,,,,,,,,,0,,,69,80
56455,note_on,55,0,0,,,,,,,,,0,,,69,0
56459,note_on,4,0,0,,,,,,,,,0,,,71,80
56514,note_on,55,0,0,,,,,,,,,0,,,71,0
56519,note_on,5,0,0,,,,,,,,,0,,,69,80
56574,note_on,55,0,0,,,,,,,,,0,,,69,0
56580,note_on,6,0,0,,,,,,,,,0,,,71,80
56615,note_on,455,0,1,,,,,,,,,0,,,50,0
56635,note_on,55,0,0,,,,,,,,,0,,,71,0
56639,note_on,4,0,0,,,,,,,,,0,,,69,80
56640,note_on,25,0,1,,,,,,,,,0,,,50,80
56694,note_on,55,0,0,,,,,,,,,0,,,69,0
56699,note_on,5,0,0,,,,,,,,,0,,,71,80
56754,note_on,55,0,0,,,,,,,,,0,,,71,0
56760,note_on,6,0,0,,,,,,,,,0,,,67,80
56867,note_on,227,0,1,,,,,,,,,0,,,50,0
56873,note_on,113,0,0,,,,,,,,,0,,,67,0
56880,note_on,13,0,1,,,,,,,,,0,,,43,80
56880,note_on,7,0,0,,,,,,,,,0,,,67,80
57563,note_on,683,0,1,,,,,,,,,0,,,43,0
57563,note_on,683,0,0,,,,,,,,,0,,,67,0
57564,end_of_track,1,1,1,,,,,,,,,,,,,
57564,end_of_track,1,1,0,,,,,,,,,,,,,
