tick,type,time,meta,track,numerator,denominator,clocks_per_click,notated_32nd_notes_per_beat,key,tempo,control,value,channel,program,port,note,velocity
0,control_change,0,0,0,,,,,,,121,0,0,,,,
0,time_signature,0,1,0,3,8,24,8,,,,,,,,,
0,set_tempo,0,1,0,,,,,,500000,,,,,,,
0,program_change,0,0,0,,,,,,,,,0,0,,,
0,track_name,0,1,0,,,,,,,,,,,,,
0,note_on,0,0,1,,,,,,,,,0,,,49,80
0,note_on,0,0,0,,,,,,,,,0,,,69,80
0,midi_port,0,1,1,,,,,,,,,,,0,,
0,midi_port,0,1,0,,,,,,,,,,,0,,
0,key_signature,0,1,1,,,,,A,,,,,,,,
0,key_signature,0,1,0,,,,,A,,,,,,,,
0,track_name,0,1,1,,,,,,,,,,,,,
0,control_change,0,0,0,,,,,,,100,0,0,,,,
0,control_change,0,0,0,,,,,,,93,0,0,,,,
0,control_change,0,0,0,,,,,,,101,0,0,,,,
0,control_change,0,0,0,,,,,,,91,0,0,,,,
0,control_change,0,0,0,,,,,,,10,64,0,,,,
0,control_change,0,0,0,,,,,,,7,99,0,,,,
0,control_change,0,0,0,,,,,,,6,12,0,,,,
0,control_change,0,0,0,,,,,,,101,127,0,,,,
0,control_change,0,0,0,,,,,,,100,127,0,,,,
227,note_on,227,0,1,,,,,,,,,0,,,49,0
227,note_on,227,0,0,,,,,,,,,0,,,69,0
240,note_on,13,0,0,,,,,,,,,0,,,71,80
240,note_on,13,0,1,,,,,,,,,0,,,52,80
467,note_on,227,0,1,,,,,,,,,0,,,52,0
695,note_on,455,0,0,,,,,,,,,0,,,71,0
720,note_on,253,0,1,,,,,,,,,0,,,57,80
720,note_on,25,0,0,,,,,,,,,0,,,73,80
890,note_on,170,0,0,,,,,,,,,0,,,73,0
890,note_on,170,0,1,,,,,,,,,0,,,57,0
900,note_on,10,0,1,,,,,,,,,0,,,59,80
900,note_on,10,0,0,,,,,,,,,0,,,74,80
956,note_on,56,0,0,,,,,,,,,0,,,74,0
956,note_on,56,0,1,,,,,,,,,0,,,59,0
960,note_on,4,0,0,,,,,,,,,0,,,76,80
960,note_on,4,0,1,,,,,,,,,0,,,61,80
1187,note_on,227,0,0,,,,,,,,,0,,,76,0
1187,note_on,227,0,1,,,,,,,,,0,,,61,0
1200,note_on,13,0,0,,,,,,,,,0,,,78,80
1200,note_on,13,0,1,,,,,,,,,0,,,62,80
1427,note_on,227,0,1,,,,,,,,,0,,,62,0
1427,note_on,227,0,0,,,,,,,,,0,,,78,0
1440,note_on,13,0,1,,,,,,,,,0,,,59,80
1440,note_on,13,0,0,,,,,,,,,0,,,74,80
1667,note_on,227,0,1,,,,,,,,,0,,,59,0
1667,note_on,227,0,0,,,,,,,,,0,,,74,0
1680,note_on,13,0,0,,,,,,,,,0,,,73,80
1680,note_on,13,0,1,,,,,,,,,0,,,57,80
1907,note_on,227,0,1,,,,,,,,,0,,,57,0
2135,note_on,455,0,0,,,,,,,,,0,,,73,0
2160,note_on,25,0,0,,,,,,,,,0,,,73,80
2160,note_on,253,0,1,,,,,,,,,0,,,52,80
2215,note_on,55,0,0,,,,,,,,,0,,,73,0
2220,note_on,5,0,0,,,,,,,,,0,,,74,80
2275,note_on,55,0,0,,,,,,,,,0,,,74,0
2280,note_on,5,0,0,,,,,,,,,0,,,73,80
2335,note_on,55,0,0,,,,,,,,,0,,,73,0
2340,note_on,5,0,0,,,,,,,,,0,,,74,80
2387,note_on,227,0,1,,,,,,,,,0,,,52,0
2395,note_on,55,0,0,,,,,,,,,0,,,74,0
2400,note_on,13,0,1,,,,,,,,,0,,,40,80
2400,note_on,5,0,0,,,,,,,,,0,,,71,80
2627,note_on,227,0,0,,,,,,,,,0,,,71,0
2627,note_on,227,0,1,,,,,,,,,0,,,40,0
2880,note_on,253,0,0,,,,,,,,,0,,,69,80
2880,note_on,253,0,1,,,,,,,,,0,,,49,80
3107,note_on,227,0,1,,,,,,,,,0,,,49,0
3107,note_on,227,0,0,,,,,,,,,0,,,69,0
3120,note_on,13,0,1,,,,,,,,,0,,,52,80
3120,note_on,13,0,0,,,,,,,,,0,,,71,80
3175,note_on,55,0,0,,,,,,,,,0,,,71,0
3180,note_on,5,0,0,,,,,,,,,0,,,73,80
3235,note_on,55,0,0,,,,,,,,,0,,,73,0
3240,note_on,5,0,0,,,,,,,,,0,,,71,80
3295,note_on,55,0,0,,,,,,,,,0,,,71,0
3300,note_on,5,0,0,,,,,,,,,0,,,73,80
3347,note_on,227,0,1,,,,,,,,,0,,,52,0
3355,note_on,55,0,0,,,,,,,,,0,,,73,0
3360,note_on,5,0,0,,,,,,,,,0,,,71,80
3415,note_on,55,0,0,,,,,,,,,0,,,71,0
3420,note_on,5,0,0,,,,,,,,,0,,,73,80
3475,note_on,55,0,0,,,,,,,,,0,,,73,0
3480,note_on,5,0,0,,,,,,,,,0,,,71,80
3535,note_on,55,0,0,,,,,,,,,0,,,71,0
3540,note_on,5,0,0,,,,,,,,,0,,,73,80
3595,note_on,55,0,0,,,,,,,,,0,,,73,0
3600,note_on,5,0,0,,,,,,,,,0,,,73,80
3600,note_on,253,0,1,,,,,,,,,0,,,57,80
3713,note_on,113,0,0,,,,,,,,,0,,,73,0
3720,note_on,7,0,0,,,,,,,,,0,,,74,80
3827,note_on,227,0,1,,,,,,,,,0,,,57,0
3833,note_on,113,0,0,,,,,,,,,0,,,74,0
3840,note_on,7,0,0,,,,,,,,,0,,,76,80
3840,note_on,13,0,1,,,,,,,,,0,,,49,80
3953,note_on,113,0,0,,,,,,,,,0,,,76,0
3960,note_on,7,0,0,,,,,,,,,0,,,73,80
4067,note_on,227,0,1,,,,,,,,,0,,,49,0
4073,note_on,113,0,0,,,,,,,,,0,,,73,0
4080,note_on,7,0,0,,,,,,,,,0,,,78,80
4080,note_on,13,0,1,,,,,,,,,0,,,50,80
4307,note_on,227,0,1,,,,,,,,,0,,,50,0
4307,note_on,227,0,0,,,,,,,,,0,,,78,0
4320,note_on,13,0,0,,,,,,,,,0,,,68,80
4320,note_on,13,0,1,,,,,,,,,0,,,52,80
4547,note_on,227,0,1,,,,,,,,,0,,,52,0
4547,note_on,227,0,0,,,,,,,,,0,,,68,0
4560,note_on,13,0,1,,,,,,,,,0,,,54,80
4560,note_on,13,0,0,,,,,,,,,0,,,69,80
4615,note_on,55,0,0,,,,,,,,,0,,,69,0
4620,note_on,5,0,0,,,,,,,,,0,,,71,80
4675,note_on,55,0,0,,,,,,,,,0,,,71,0
4680,note_on,5,0,0,,,,,,,,,0,,,69,80
4735,note_on,55,0,0,,,,,,,,,0,,,69,0
4740,note_on,5,0,0,,,,,,,,,0,,,71,80
4787,note_on,227,0,1,,,,,,,,,0,,,54,0
4795,note_on,55,0,0,,,,,,,,,0,,,71,0
4800,note_on,5,0,0,,,,,,,,,0,,,69,80
4855,note_on,55,0,0,,,,,,,,,0,,,69,0
4860,note_on,5,0,0,,,,,,,,,0,,,71,80
4915,note_on,55,0,0,,,,,,,,,0,,,71,0
4920,note_on,5,0,0,,,,,,,,,0,,,69,80
4975,note_on,55,0,0,,,,,,,,,0,,,69,0
4980,note_on,5,0,0,,,,,,,,,0,,,71,80
5035,note_on,55,0,0,,,,,,,,,0,,,71,0
5040,note_on,253,0,1,,,,,,,,,0,,,56,80
5040,note_on,5,0,0,,,,,,,,,0,,,71,80
5153,note_on,113,0,0,,,,,,,,,0,,,71,0
5160,note_on,7,0,0,,,,,,,,,0,,,73,80
5267,note_on,227,0,1,,,,,,,,,0,,,56,0
5273,note_on,113,0,0,,,,,,,,,0,,,73,0
5280,note_on,13,0,1,,,,,,,,,0,,,47,80
5280,note_on,7,0,0,,,,,,,,,0,,,74,80
5393,note_on,113,0,0,,,,,,,,,0,,,74,0
5400,note_on,7,0,0,,,,,,,,,0,,,71,80
5507,note_on,227,0,1,,,,,,,,,0,,,47,0
5513,note_on,113,0,0,,,,,,,,,0,,,71,0
5520,note_on,13,0,1,,,,,,,,,0,,,49,80
5520,note_on,7,0,0,,,,,,,,,0,,,76,80
5747,note_on,227,0,1,,,,,,,,,0,,,49,0
5747,note_on,227,0,0,,,,,,,,,0,,,76,0
5760,note_on,13,0,0,,,,,,,,,0,,,66,80
5760,note_on,13,0,1,,,,,,,,,0,,,50,80
5873,note_on,113,0,0,,,,,,,,,0,,,66,0
5880,note_on,7,0,0,,,,,,,,,0,,,68,80
5987,note_on,227,0,1,,,,,,,,,0,,,50,0
5993,note_on,113,0,0,,,,,,,,,0,,,68,0
6000,note_on,13,0,1,,,,,,,,,0,,,49,80
6000,note_on,7,0,0,,,,,,,,,0,,,69,80
6227,note_on,227,0,0,,,,,,,,,0,,,69,0
6227,note_on,227,0,1,,,,,,,,,0,,,49,0
6240,note_on,13,0,1,,,,,,,,,0,,,47,80
6240,note_on,13,0,0,,,,,,,,,0,,,71,80
6467,note_on,227,0,0,,,,,,,,,0,,,71,0
6467,note_on,227,0,1,,,,,,,,,0,,,47,0
6480,note_on,13,0,1,,,,,,,,,0,,,49,80
6480,note_on,13,0,0,,,,,,,,,0,,,64,80
6707,note_on,227,0,0,,,,,,,,,0,,,64,0
6707,note_on,227,0,1,,,,,,,,,0,,,49,0
6720,note_on,13,0,1,,,,,,,,,0,,,54,80
6720,note_on,13,0,0,,,,,,,,,0,,,69,80
7175,note_on,455,0,0,,,,,,,,,0,,,69,0
7175,note_on,455,0,1,,,,,,,,,0,,,54,0
7200,note_on,25,0,1,,,,,,,,,0,,,47,80
7200,note_on,25,0,0,,,,,,,,,0,,,74,80
7427,note_on,227,0,1,,,,,,,,,0,,,47,0
7427,note_on,227,0,0,,,,,,,,,0,,,74,0
7440,note_on,13,0,0,,,,,,,,,0,,,73,80
7440,note_on,13,0,1,,,,,,,,,0,,,52,80
7667,note_on,227,0,1,,,,,,,,,0,,,52,0
7667,note_on,227,0,0,,,,,,,,,0,,,73,0
7680,note_on,13,0,0,,,,,,,,,0,,,71,80
7680,note_on,13,0,1,,,,,,,,,0,,,40,80
7907,note_on,227,0,1,,,,,,,,,0,,,40,0
7907,note_on,227,0,0,,,,,,,,,0,,,71,0
7920,note_on,13,0,0,,,,,,,,,0,,,73,80
7920,note_on,13,0,1,,,,,,,,,0,,,45,80
8033,note_on,113,0,0,,,,,,,,,0,,,73,0
8040,note_on,7,0,0,,,,,,,,,0,,,83,80
8153,note_on,113,0,0,,,,,,,,,0,,,83,0
8160,note_on,7,0,0,,,,,,,,,0,,,81,80
8273,note_on,113,0,0,,,,,,,,,0,,,81,0
8280,note_on,7,0,0,,,,,,,,,0,,,83,80
8375,note_on,455,0,1,,,,,,,,,0,,,45,0
8393,note_on,113,0,0,,,,,,,,,0,,,83,0
8400,note_on,7,0,0,,,,,,,,,0,,,81,80
8513,note_on,113,0,0,,,,,,,,,0,,,81,0
8520,note_on,7,0,0,,,,,,,,,0,,,83,80
8633,note_on,113,0,0,,,,,,,,,0,,,83,0
8640,note_on,265,0,1,,,,,,,,,0,,,59,80
8640,note_on,7,0,0,,,,,,,,,0,,,74,80
8867,note_on,227,0,0,,,,,,,,,0,,,74,0
8867,note_on,227,0,1,,,,,,,,,0,,,59,0
8880,note_on,13,0,1,,,,,,,,,0,,,50,80
8880,note_on,13,0,0,,,,,,,,,0,,,73,80
9107,note_on,227,0,1,,,,,,,,,0,,,50,0
9107,note_on,227,0,0,,,,,,,,,0,,,73,0
9120,note_on,13,0,0,,,,,,,,,0,,,71,80
9120,note_on,13,0,1,,,,,,,,,0,,,52,80
9347,note_on,227,0,1,,,,,,,,,0,,,52,0
9347,note_on,227,0,0,,,,,,,,,0,,,71,0
9360,note_on,13,0,1,,,,,,,,,0,,,57,80
9360,note_on,13,0,0,,,,,,,,,0,,,73,80
9473,note_on,113,0,0,,,,,,,,,0,,,73,0
9480,note_on,7,0,0,,,,,,,,,0,,,83,80
9593,note_on,113,0,0,,,,,,,,,0,,,83,0
9600,note_on,7,0,0,,,,,,,,,0,,,81,80
9713,note_on,113,0,0,,,,,,,,,0,,,81,0
9720,note_on,7,0,0,,,,,,,,,0,,,80,80
9815,note_on,455,0,1,,,,,,,,,0,,,57,0
9833,note_on,113,0,0,,,,,,,,,0,,,80,0
9840,note_on,7,0,0,,,,,,,,,0,,,81,80
10067,note_on,227,0,0,,,,,,,,,0,,,81,0
10080,note_on,13,0,0,,,,,,,,,0,,,73,80
10080,note_on,265,0,1,,,,,,,,,0,,,52,80
10193,note_on,113,0,0,,,,,,,,,0,,,73,0
10200,note_on,7,0,0,,,,,,,,,0,,,78,80
10313,note_on,113,0,0,,,,,,,,,0,,,78,0
10320,note_on,7,0,0,,,,,,,,,0,,,76,80
10433,note_on,113,0,0,,,,,,,,,0,,,76,0
10440,note_on,7,0,0,,,,,,,,,0,,,74,80
10535,note_on,455,0,1,,,,,,,,,0,,,52,0
10553,note_on,113,0,0,,,,,,,,,0,,,74,0
10560,note_on,7,0,0,,,,,,,,,0,,,73,80
10560,note_on,25,0,1,,,,,,,,,0,,,40,80
10673,note_on,113,0,0,,,,,,,,,0,,,73,0
10680,note_on,7,0,0,,,,,,,,,0,,,71,80
10787,note_on,227,0,1,,,,,,,,,0,,,40,0
10793,note_on,113,0,0,,,,,,,,,0,,,71,0
10800,note_on,7,0,0,,,,,,,,,0,,,69,80
10800,note_on,13,0,1,,,,,,,,,0,,,45,80
11483,note_on,683,0,0,,,,,,,,,0,,,69,0
11483,note_on,683,0,1,,,,,,,,,0,,,45,0
11520,key_signature,0,1,0,,,,,A,,,,,,,,
11520,note_on,0,0,1,,,,,,,,,0,,,49,80
11520,note_on,0,0,0,,,,,,,,,0,,,69,80
11520,key_signature,37,1,1,,,,,A,,,,,,,,
11520,set_tempo,0,1,0,,,,,,500000,,,,,,,
11520,time_signature,37,1,0,3,8,24,8,,,,,,,,,
11747,note_on,227,0,1,,,,,,,,,0,,,49,0
11747,note_on,227,0,0,,,,,,,,,0,,,69,0
11760,note_on,13,0,0,,,,,,,,,0,,,71,80
11760,note_on,13,0,1,,,,,,,,,0,,,52,80
11987,note_on,227,0,1,,,,,,,,,0,,,52,0
12215,note_on,455,0,0,,,,,,,,,0,,,71,0
12240,note_on,25,0,0,,,,,,,,,0,,,73,80
12240,note_on,253,0,1,,,,,,,,,0,,,57,80
12410,note_on,170,0,0,,,,,,,,,0,,,73,0
12410,note_on,170,0,1,,,,,,,,,0,,,57,0
12420,note_on,10,0,0,,,,,,,,,0,,,74,80
12420,note_on,10,0,1,,,,,,,,,0,,,59,80
12476,note_on,56,0,1,,,,,,,,,0,,,59,0
12476,note_on,56,0,0,,,,,,,,,0,,,74,0
12480,note_on,4,0,1,,,,,,,,,0,,,61,80
12480,note_on,4,0,0,,,,,,,,,0,,,76,80
12707,note_on,227,0,0,,,,,,,,,0,,,76,0
12707,note_on,227,0,1,,,,,,,,,0,,,61,0
12720,note_on,13,0,0,,,,,,,,,0,,,78,80
12720,note_on,13,0,1,,,,,,,,,0,,,62,80
12947,note_on,227,0,0,,,,,,,,,0,,,78,0
12947,note_on,227,0,1,,,,,,,,,0,,,62,0
12960,note_on,13,0,0,,,,,,,,,0,,,74,80
12960,note_on,13,0,1,,,,,,,,,0,,,59,80
13187,note_on,227,0,1,,,,,,,,,0,,,59,0
13187,note_on,227,0,0,,,,,,,,,0,,,74,0
13200,note_on,13,0,0,,,,,,,,,0,,,73,80
13200,note_on,13,0,1,,,,,,,,,0,,,57,80
13427,note_on,227,0,1,,,,,,,,,0,,,57,0
13655,note_on,455,0,0,,,,,,,,,0,,,73,0
13680,note_on,253,0,1,,,,,,,,,0,,,52,80
13680,note_on,25,0,0,,,,,,,,,0,,,73,80
13735,note_on,55,0,0,,,,,,,,,0,,,73,0
13740,note_on,5,0,0,,,,,,,,,0,,,74,80
13795,note_on,55,0,0,,,,,,,,,0,,,74,0
13800,note_on,5,0,0,,,,,,,,,0,,,73,80
13855,note_on,55,0,0,,,,,,,,,0,,,73,0
13860,note_on,5,0,0,,,,,,,,,0,,,74,80
13907,note_on,227,0,1,,,,,,,,,0,,,52,0
13915,note_on,55,0,0,,,,,,,,,0,,,74,0
13920,note_on,5,0,0,,,,,,,,,0,,,71,80
13920,note_on,13,0,1,,,,,,,,,0,,,40,80
14147,note_on,227,0,1,,,,,,,,,0,,,40,0
14147,note_on,227,0,0,,,,,,,,,0,,,71,0
14400,note_on,253,0,1,,,,,,,,,0,,,49,80
14400,note_on,253,0,0,,,,,,,,,0,,,69,80
14627,note_on,227,0,1,,,,,,,,,0,,,49,0
14627,note_on,227,0,0,,,,,,,,,0,,,69,0
14640,note_on,13,0,0,,,,,,,,,0,,,71,80
14640,note_on,13,0,1,,,,,,,,,0,,,52,80
14695,note_on,55,0,0,,,,,,,,,0,,,71,0
14700,note_on,5,0,0,,,,,,,,,0,,,73,80
14755,note_on,55,0,0,,,,,,,,,0,,,73,0
14760,note_on,5,0,0,,,,,,,,,0,,,71,80
14815,note_on,55,0,0,,,,,,,,,0,,,71,0
14820,note_on,5,0,0,,,,,,,,,0,,,73,80
14867,note_on,227,0,1,,,,,,,,,0,,,52,0
14875,note_on,55,0,0,,,,,,,,,0,,,73,0
14880,note_on,5,0,0,,,,,,,,,0,,,71,80
14935,note_on,55,0,0,,,,,,,,,0,,,71,0
14940,note_on,5,0,0,,,,,,,,,0,,,73,80
14995,note_on,55,0,0,,,,,,,,,0,,,73,0
15000,note_on,5,0,0,,,,,,,,,0,,,71,80
15055,note_on,55,0,0,,,,,,,,,0,,,71,0
15060,note_on,5,0,0,,,,,,,,,0,,,73,80
15115,note_on,55,0,0,,,,,,,,,0,,,73,0
15120,note_on,253,0,1,,,,,,,,,0,,,57,80
15120,note_on,5,0,0,,,,,,,,,0,,,73,80
15233,note_on,113,0,0,,,,,,,,,0,,,73,0
15240,note_on,7,0,0,,,,,,,,,0,,,74,80
15347,note_on,227,0,1,,,,,,,,,0,,,57,0
15353,note_on,113,0,0,,,,,,,,,0,,,74,0
15360,note_on,13,0,1,,,,,,,,,0,,,49,80
15360,note_on,7,0,0,,,,,,,,,0,,,76,80
15473,note_on,113,0,0,,,,,,,,,0,,,76,0
15480,note_on,7,0,0,,,,,,,,,0,,,73,80
15587,note_on,227,0,1,,,,,,,,,0,,,49,0
15593,note_on,113,0,0,,,,,,,,,0,,,73,0
15600,note_on,7,0,0,,,,,,,,,0,,,78,80
15600,note_on,13,0,1,,,,,,,,,0,,,50,80
15827,note_on,227,0,0,,,,,,,,,0,,,78,0
15827,note_on,227,0,1,,,,,,,,,0,,,50,0
15840,note_on,13,0,1,,,,,,,,,0,,,52,80
15840,note_on,13,0,0,,,,,,,,,0,,,68,80
16067,note_on,227,0,1,,,,,,,,,0,,,52,0
16067,note_on,227,0,0,,,,,,,,,0,,,68,0
16080,note_on,13,0,1,,,,,,,,,0,,,54,80
16080,note_on,13,0,0,,,,,,,,,0,,,69,80
16135,note_on,55,0,0,,,,,,,,,0,,,69,0
16140,note_on,5,0,0,,,,,,,,,0,,,71,80
16195,note_on,55,0,0,,,,,,,,,0,,,71,0
16200,note_on,5,0,0,,,,,,,,,0,,,69,80
16255,note_on,55,0,0,,,,,,,,,0,,,69,0
16260,note_on,5,0,0,,,,,,,,,0,,,71,80
16307,note_on,227,0,1,,,,,,,,,0,,,54,0
16315,note_on,55,0,0,,,,,,,,,0,,,71,0
16320,note_on,5,0,0,,,,,,,,,0,,,69,80
16375,note_on,55,0,0,,,,,,,,,0,,,69,0
16380,note_on,5,0,0,,,,,,,,,0,,,71,80
16435,note_on,55,0,0,,,,,,,,,0,,,71,0
16440,note_on,5,0,0,,,,,,,,,0,,,69,80
16495,note_on,55,0,0,,,,,,,,,0,,,69,0
16500,note_on,5,0,0,,,,,,,,,0,,,71,80
16555,note_on,55,0,0,,,,,,,,,0,,,71,0
16560,note_on,253,0,1,,,,,,,,,0,,,56,80
16560,note_on,5,0,0,,,,,,,,,0,,,71,80
16673,note_on,113,0,0,,,,,,,,,0,,,71,0
16680,note_on,7,0,0,,,,,,,,,0,,,73,80
16787,note_on,227,0,1,,,,,,,,,0,,,56,0
16793,note_on,113,0,0,,,,,,,,,0,,,73,0
16800,note_on,7,0,0,,,,,,,,,0,,,74,80
16800,note_on,13,0,1,,,,,,,,,0,,,47,80
16913,note_on,113,0,0,,,,,,,,,0,,,74,0
16920,note_on,7,0,0,,,,,,,,,0,,,71,80
17027,note_on,227,0,1,,,,,,,,,0,,,47,0
17033,note_on,113,0,0,,,,,,,,,0,,,71,0
17040,note_on,7,0,0,,,,,,,,,0,,,76,80
17040,note_on,13,0,1,,,,,,,,,0,,,49,80
17267,note_on,227,0,0,,,,,,,,,0,,,76,0
17267,note_on,227,0,1,,,,,,,,,0,,,49,0
17280,note_on,13,0,0,,,,,,,,,0,,,66,80
17280,note_on,13,0,1,,,,,,,,,0,,,50,80
17393,note_on,113,0,0,,,,,,,,,0,,,66,0
17400,note_on,7,0,0,,,,,,,,,0,,,68,80
17507,note_on,227,0,1,,,,,,,,,0,,,50,0
17513,note_on,113,0,0,,,,,,,,,0,,,68,0
17520,note_on,13,0,1,,,,,,,,,0,,,49,80
17520,note_on,7,0,0,,,,,,,,,0,,,69,80
17747,note_on,227,0,0,,,,,,,,,0,,,69,0
17747,note_on,227,0,1,,,,,,,,,0,,,49,0
17760,note_on,13,0,0,,,,,,,,,0,,,71,80
17760,note_on,13,0,1,,,,,,,,,0,,,47,80
17987,note_on,227,0,0,,,,,,,,,0,,,71,0
17987,note_on,227,0,1,,,,,,,,,0,,,47,0
18000,note_on,13,0,1,,,,,,,,,0,,,49,80
18000,note_on,13,0,0,,,,,,,,,0,,,64,80
18227,note_on,227,0,0,,,,,,,,,0,,,64,0
18227,note_on,227,0,1,,,,,,,,,0,,,49,0
18240,note_on,13,0,1,,,,,,,,,0,,,54,80
18240,note_on,13,0,0,,,,,,,,,0,,,69,80
18695,note_on,455,0,0,,,,,,,,,0,,,69,0
18695,note_on,455,0,1,,,,,,,,,0,,,54,0
18720,note_on,25,0,0,,,,,,,,,0,,,74,80
18720,note_on,25,0,1,,,,,,,,,0,,,47,80
18947,note_on,227,0,1,,,,,,,,,0,,,47,0
18947,note_on,227,0,0,,,,,,,,,0,,,74,0
18960,note_on,13,0,1,,,,,,,,,0,,,52,80
18960,note_on,13,0,0,,,,,,,,,0,,,73,80
19187,note_on,227,0,1,,,,,,,,,0,,,52,0
19187,note_on,227,0,0,,,,,,,,,0,,,73,0
19200,note_on,13,0,1,,,,,,,,,0,,,40,80
19200,note_on,13,0,0,,,,,,,,,0,,,71,80
19427,note_on,227,0,0,,,,,,,,,0,,,71,0
19427,note_on,227,0,1,,,,,,,,,0,,,40,0
19440,note_on,13,0,1,,,,,,,,,0,,,45,80
19440,note_on,13,0,0,,,,,,,,,0,,,73,80
19553,note_on,113,0,0,,,,,,,,,0,,,73,0
19560,note_on,7,0,0,,,,,,,,,0,,,83,80
19673,note_on,113,0,0,,,,,,,,,0,,,83,0
19680,note_on,7,0,0,,,,,,,,,0,,,81,80
19793,note_on,113,0,0,,,,,,,,,0,,,81,0
19800,note_on,7,0,0,,,,,,,,,0,,,83,80
19895,note_on,455,0,1,,,,,,,,,0,,,45,0
19913,note_on,113,0,0,,,,,,,,,0,,,83,0
19920,note_on,7,0,0,,,,,,,,,0,,,81,80
20033,note_on,113,0,0,,,,,,,,,0,,,81,0
20040,note_on,7,0,0,,,,,,,,,0,,,83,80
20153,note_on,113,0,0,,,,,,,,,0,,,83,0
20160,note_on,265,0,1,,,,,,,,,0,,,59,80
20160,note_on,7,0,0,,,,,,,,,0,,,74,80
20387,note_on,227,0,0,,,,,,,,,0,,,74,0
20387,note_on,227,0,1,,,,,,,,,0,,,59,0
20400,note_on,13,0,1,,,,,,,,,0,,,50,80
20400,note_on,13,0,0,,,,,,,,,0,,,73,80
20627,note_on,227,0,1,,,,,,,,,0,,,50,0
20627,note_on,227,0,0,,,,,,,,,0,,,73,0
20640,note_on,13,0,0,,,,,,,,,0,,,71,80
20640,note_on,13,0,1,,,,,,,,,0,,,52,80
20867,note_on,227,0,0,,,,,,,,,0,,,71,0
20867,note_on,227,0,1,,,,,,,,,0,,,52,0
20880,note_on,13,0,1,,,,,,,,,0,,,57,80
20880,note_on,13,0,0,,,,,,,,,0,,,73,80
20993,note_on,113,0,0,,,,,,,,,0,,,73,0
21000,note_on,7,0,0,,,,,,,,,0,,,83,80
21113,note_on,113,0,0,,,,,,,,,0,,,83,0
21120,note_on,7,0,0,,,,,,,,,0,,,81,80
21233,note_on,113,0,0,,,,,,,,,0,,,81,0
21240,note_on,7,0,0,,,,,,,,,0,,,80,80
21335,note_on,455,0,1,,,,,,,,,0,,,57,0
21353,note_on,113,0,0,,,,,,,,,0,,,80,0
21360,note_on,7,0,0,,,,,,,,,0,,,81,80
21587,note_on,227,0,0,,,,,,,,,0,,,81,0
21600,note_on,13,0,0,,,,,,,,,0,,,73,80
21600,note_on,265,0,1,,,,,,,,,0,,,52,80
21713,note_on,113,0,0,,,,,,,,,0,,,73,0
21720,note_on,7,0,0,,,,,,,,,0,,,78,80
21833,note_on,113,0,0,,,,,,,,,0,,,78,0
21840,note_on,7,0,0,,,,,,,,,0,,,76,80
21953,note_on,113,0,0,,,,,,,,,0,,,76,0
21960,note_on,7,0,0,,,,,,,,,0,,,74,80
22055,note_on,455,0,1,,,,,,,,,0,,,52,0
22073,note_on,113,0,0,,,,,,,,,0,,,74,0
22080,note_on,25,0,1,,,,,,,,,0,,,40,80
22080,note_on,7,0,0,,,,,,,,,0,,,73,80
22193,note_on,113,0,0,,,,,,,,,0,,,73,0
22200,note_on,7,0,0,,,,,,,,,0,,,71,80
22307,note_on,227,0,1,,,,,,,,,0,,,40,0
22313,note_on,113,0,0,,,,,,,,,0,,,71,0
22320,note_on,13,0,1,,,,,,,,,0,,,45,80
22320,note_on,7,0,0,,,,,,,,,0,,,69,80
23003,note_on,683,0,0,,,,,,,,,0,,,69,0
23003,note_on,683,0,1,,,,,,,,,0,,,45,0
23040,note_on,0,0,0,,,,,,,,,0,,,64,0
23040,note_on,37,0,1,,,,,,,,,0,,,64,80
23040,note_on,37,0,0,,,,,,,,,0,,,64,80
23160,note_on,120,0,0,,,,,,,,,0,,,66,80
23267,note_on,227,0,1,,,,,,,,,0,,,64,0
23273,note_on,113,0,0,,,,,,,,,0,,,66,0
23280,note_on,7,0,0,,,,,,,,,0,,,68,80
23280,note_on,13,0,1,,,,,,,,,0,,,52,80
23507,note_on,227,0,1,,,,,,,,,0,,,52,0
23507,note_on,227,0,0,,,,,,,,,0,,,68,0
23520,note_on,13,0,0,,,,,,,,,0,,,69,80
23520,note_on,13,0,1,,,,,,,,,0,,,54,80
23747,note_on,227,0,1,,,,,,,,,0,,,54,0
23747,note_on,227,0,0,,,,,,,,,0,,,69,0
23760,note_on,13,0,1,,,,,,,,,0,,,56,80
23760,note_on,13,0,0,,,,,,,,,0,,,71,80
23987,note_on,227,0,0,,,,,,,,,0,,,71,0
23987,note_on,227,0,1,,,,,,,,,0,,,56,0
24000,note_on,13,0,1,,,,,,,,,0,,,44,80
24000,note_on,13,0,0,,,,,,,,,0,,,76,80
24227,note_on,227,0,1,,,,,,,,,0,,,44,0
24455,note_on,455,0,0,,,,,,,,,0,,,76,0
24480,note_on,25,0,0,,,,,,,,,0,,,73,80
24480,note_on,253,0,1,,,,,,,,,0,,,45,80
24593,note_on,113,0,0,,,,,,,,,0,,,73,0
24600,note_on,7,0,0,,,,,,,,,0,,,71,80
24707,note_on,227,0,1,,,,,,,,,0,,,45,0
24713,note_on,113,0,0,,,,,,,,,0,,,71,0
24720,note_on,13,0,1,,,,,,,,,0,,,47,80
24720,note_on,7,0,0,,,,,,,,,0,,,69,80
24947,note_on,227,0,1,,,,,,,,,0,,,47,0
24947,note_on,227,0,0,,,,,,,,,0,,,69,0
24960,note_on,13,0,0,,,,,,,,,0,,,67,80
24960,note_on,13,0,1,,,,,,,,,0,,,49,80
25187,note_on,227,0,0,,,,,,,,,0,,,67,0
25187,note_on,227,0,1,,,,,,,,,0,,,49,0
25200,note_on,13,0,1,,,,,,,,,0,,,50,80
25200,note_on,13,0,0,,,,,,,,,0,,,67,80
25427,note_on,227,0,0,,,,,,,,,0,,,67,0
25427,note_on,227,0,1,,,,,,,,,0,,,50,0
25440,note_on,13,0,0,,,,,,,,,0,,,66,80
25440,note_on,13,0,1,,,,,,,,,0,,,38,80
25667,note_on,227,0,1,,,,,,,,,0,,,38,0
25667,note_on,227,0,0,,,,,,,,,0,,,66,0
25920,note_on,253,0,1,,,,,,,,,0,,,50,80
25920,note_on,253,0,0,,,,,,,,,0,,,71,80
26033,note_on,113,0,0,,,,,,,,,0,,,71,0
26040,note_on,7,0,0,,,,,,,,,0,,,73,80
26147,note_on,227,0,1,,,,,,,,,0,,,50,0
26153,note_on,113,0,0,,,,,,,,,0,,,73,0
26160,note_on,7,0,0,,,,,,,,,0,,,73,80
26160,note_on,13,0,1,,,,,,,,,0,,,52,80
26215,note_on,55,0,0,,,,,,,,,0,,,73,0
26220,note_on,5,0,0,,,,,,,,,0,,,74,80
26275,note_on,55,0,0,,,,,,,,,0,,,74,0
26280,note_on,5,0,0,,,,,,,,,0,,,73,80
26335,note_on,55,0,0,,,,,,,,,0,,,73,0
26340,note_on,5,0,0,,,,,,,,,0,,,74,80
26387,note_on,227,0,1,,,,,,,,,0,,,52,0
26395,note_on,55,0,0,,,,,,,,,0,,,74,0
26400,note_on,5,0,0,,,,,,,,,0,,,73,80
26400,note_on,13,0,1,,,,,,,,,0,,,54,80
26455,note_on,55,0,0,,,,,,,,,0,,,73,0
26460,note_on,5,0,0,,,,,,,,,0,,,74,80
26515,note_on,55,0,0,,,,,,,,,0,,,74,0
26520,note_on,5,0,0,,,,,,,,,0,,,73,80
26575,note_on,55,0,0,,,,,,,,,0,,,73,0
26580,note_on,5,0,0,,,,,,,,,0,,,74,80
26627,note_on,227,0,1,,,,,,,,,0,,,54,0
26635,note_on,55,0,0,,,,,,,,,0,,,74,0
26640,note_on,5,0,0,,,,,,,,,0,,,74,80
26640,note_on,13,0,1,,,,,,,,,0,,,59,80
26753,note_on,113,0,0,,,,,,,,,0,,,74,0
26760,note_on,7,0,0,,,,,,,,,0,,,71,80
26867,note_on,227,0,1,,,,,,,,,0,,,59,0
26873,note_on,113,0,0,,,,,,,,,0,,,71,0
26880,note_on,13,0,1,,,,,,,,,0,,,58,80
26880,note_on,7,0,0,,,,,,,,,0,,,73,80
26935,note_on,55,0,0,,,,,,,,,0,,,73,0
26940,note_on,5,0,0,,,,,,,,,0,,,74,80
26995,note_on,55,0,0,,,,,,,,,0,,,74,0
27000,note_on,5,0,0,,,,,,,,,0,,,73,80
27055,note_on,55,0,0,,,,,,,,,0,,,73,0
27060,note_on,5,0,0,,,,,,,,,0,,,74,80
27107,note_on,227,0,1,,,,,,,,,0,,,58,0
27115,note_on,55,0,0,,,,,,,,,0,,,74,0
27120,note_on,13,0,1,,,,,,,,,0,,,54,80
27120,note_on,5,0,0,,,,,,,,,0,,,73,80
27175,note_on,55,0,0,,,,,,,,,0,,,73,0
27180,note_on,5,0,0,,,,,,,,,0,,,74,80
27235,note_on,55,0,0,,,,,,,,,0,,,74,0
27240,note_on,5,0,0,,,,,,,,,0,,,73,80
27295,note_on,55,0,0,,,,,,,,,0,,,73,0
27300,note_on,5,0,0,,,,,,,,,0,,,74,80
27347,note_on,227,0,1,,,,,,,,,0,,,54,0
27355,note_on,55,0,0,,,,,,,,,0,,,74,0
27360,note_on,13,0,1,,,,,,,,,0,,,59,80
27360,note_on,5,0,0,,,,,,,,,0,,,74,80
27473,note_on,113,0,0,,,,,,,,,0,,,74,0
27480,note_on,7,0,0,,,,,,,,,0,,,71,80
27587,note_on,227,0,1,,,,,,,,,0,,,59,0
27593,note_on,113,0,0,,,,,,,,,0,,,71,0
27600,note_on,7,0,0,,,,,,,,,0,,,73,80
27600,note_on,13,0,1,,,,,,,,,0,,,58,80
27655,note_on,55,0,0,,,,,,,,,0,,,73,0
27660,note_on,5,0,0,,,,,,,,,0,,,74,80
27715,note_on,55,0,0,,,,,,,,,0,,,74,0
27720,note_on,5,0,0,,,,,,,,,0,,,73,80
27775,note_on,55,0,0,,,,,,,,,0,,,73,0
27780,note_on,5,0,0,,,,,,,,,0,,,74,80
27827,note_on,227,0,1,,,,,,,,,0,,,58,0
27835,note_on,55,0,0,,,,,,,,,0,,,74,0
27840,note_on,5,0,0,,,,,,,,,0,,,73,80
27840,note_on,13,0,1,,,,,,,,,0,,,54,80
27895,note_on,55,0,0,,,,,,,,,0,,,73,0
27900,note_on,5,0,0,,,,,,,,,0,,,74,80
27955,note_on,55,0,0,,,,,,,,,0,,,74,0
27960,note_on,5,0,0,,,,,,,,,0,,,73,80
28015,note_on,55,0,0,,,,,,,,,0,,,73,0
28020,note_on,5,0,0,,,,,,,,,0,,,74,80
28067,note_on,227,0,1,,,,,,,,,0,,,54,0
28075,note_on,55,0,0,,,,,,,,,0,,,74,0
28080,note_on,13,0,1,,,,,,,,,0,,,59,80
28080,note_on,5,0,0,,,,,,,,,0,,,74,80
28193,note_on,113,0,0,,,,,,,,,0,,,74,0
28200,note_on,7,0,0,,,,,,,,,0,,,71,80
28307,note_on,227,0,1,,,,,,,,,0,,,59,0
28313,note_on,113,0,0,,,,,,,,,0,,,71,0
28320,note_on,7,0,0,,,,,,,,,0,,,76,80
28320,note_on,13,0,1,,,,,,,,,0,,,56,80
28375,note_on,55,0,0,,,,,,,,,0,,,76,0
28380,note_on,5,0,0,,,,,,,,,0,,,78,80
28435,note_on,55,0,0,,,,,,,,,0,,,78,0
28440,note_on,5,0,0,,,,,,,,,0,,,76,80
28495,note_on,55,0,0,,,,,,,,,0,,,76,0
28500,note_on,5,0,0,,,,,,,,,0,,,78,80
28547,note_on,227,0,1,,,,,,,,,0,,,56,0
28555,note_on,55,0,0,,,,,,,,,0,,,78,0
28560,note_on,5,0,0,,,,,,,,,0,,,76,80
28560,note_on,13,0,1,,,,,,,,,0,,,52,80
28615,note_on,55,0,0,,,,,,,,,0,,,76,0
28620,note_on,5,0,0,,,,,,,,,0,,,78,80
28675,note_on,55,0,0,,,,,,,,,0,,,78,0
28680,note_on,5,0,0,,,,,,,,,0,,,76,80
28735,note_on,55,0,0,,,,,,,,,0,,,76,0
28740,note_on,5,0,0,,,,,,,,,0,,,78,80
28787,note_on,227,0,1,,,,,,,,,0,,,52,0
28795,note_on,55,0,0,,,,,,,,,0,,,78,0
28800,note_on,5,0,0,,,,,,,,,0,,,69,80
28800,note_on,13,0,1,,,,,,,,,0,,,54,80
28913,note_on,113,0,0,,,,,,,,,0,,,69,0
28920,note_on,7,0,0,,,,,,,,,0,,,71,80
29027,note_on,227,0,1,,,,,,,,,0,,,54,0
29033,note_on,113,0,0,,,,,,,,,0,,,71,0
29040,note_on,7,0,0,,,,,,,,,0,,,71,80
29040,note_on,13,0,1,,,,,,,,,0,,,50,80
29095,note_on,55,0,0,,,,,,,,,0,,,71,0
29100,note_on,5,0,0,,,,,,,,,0,,,73,80
29155,note_on,55,0,0,,,,,,,,,0,,,73,0
29160,note_on,5,0,0,,,,,,,,,0,,,71,80
29215,note_on,55,0,0,,,,,,,,,0,,,71,0
29220,note_on,5,0,0,,,,,,,,,0,,,73,80
29267,note_on,227,0,1,,,,,,,,,0,,,50,0
29275,note_on,55,0,0,,,,,,,,,0,,,73,0
29280,note_on,13,0,1,,,,,,,,,0,,,52,80
29280,note_on,5,0,0,,,,,,,,,0,,,71,80
29335,note_on,55,0,0,,,,,,,,,0,,,71,0
29340,note_on,5,0,0,,,,,,,,,0,,,73,80
29395,note_on,55,0,0,,,,,,,,,0,,,73,0
29400,note_on,5,0,0,,,,,,,,,0,,,71,80
29455,note_on,55,0,0,,,,,,,,,0,,,71,0
29460,note_on,5,0,0,,,,,,,,,0,,,73,80
29507,note_on,227,0,1,,,,,,,,,0,,,52,0
29515,note_on,55,0,0,,,,,,,,,0,,,73,0
29520,note_on,5,0,0,,,,,,,,,0,,,73,80
29520,note_on,13,0,1,,,,,,,,,0,,,57,80
29633,note_on,113,0,0,,,,,,,,,0,,,73,0
29640,note_on,7,0,0,,,,,,,,,0,,,69,80
29747,note_on,227,0,1,,,,,,,,,0,,,57,0
29753,note_on,113,0,0,,,,,,,,,0,,,69,0
29760,note_on,7,0,0,,,,,,,,,0,,,71,80
29760,note_on,13,0,1,,,,,,,,,0,,,56,80
29815,note_on,55,0,0,,,,,,,,,0,,,71,0
29820,note_on,5,0,0,,,,,,,,,0,,,73,80
29875,note_on,55,0,0,,,,,,,,,0,,,73,0
29880,note_on,5,0,0,,,,,,,,,0,,,71,80
29935,note_on,55,0,0,,,,,,,,,0,,,71,0
29940,note_on,5,0,0,,,,,,,,,0,,,73,80
29987,note_on,227,0,1,,,,,,,,,0,,,56,0
29995,note_on,55,0,0,,,,,,,,,0,,,73,0
30000,note_on,13,0,1,,,,,,,,,0,,,52,80
30000,note_on,5,0,0,,,,,,,,,0,,,71,80
30055,note_on,55,0,0,,,,,,,,,0,,,71,0
30060,note_on,5,0,0,,,,,,,,,0,,,73,80
30115,note_on,55,0,0,,,,,,,,,0,,,73,0
30120,note_on,5,0,0,,,,,,,,,0,,,71,80
30175,note_on,55,0,0,,,,,,,,,0,,,71,0
30180,note_on,5,0,0,,,,,,,,,0,,,73,80
30227,note_on,227,0,1,,,,,,,,,0,,,52,0
30235,note_on,55,0,0,,,,,,,,,0,,,73,0
30240,note_on,5,0,0,,,,,,,,,0,,,73,80
30240,note_on,13,0,1,,,,,,,,,0,,,57,80
30353,note_on,113,0,0,,,,,,,,,0,,,73,0
30360,note_on,7,0,0,,,,,,,,,0,,,69,80
30467,note_on,227,0,1,,,,,,,,,0,,,57,0
30473,note_on,113,0,0,,,,,,,,,0,,,69,0
30480,note_on,13,0,1,,,,,,,,,0,,,56,80
30480,note_on,7,0,0,,,,,,,,,0,,,71,80
30535,note_on,55,0,0,,,,,,,,,0,,,71,0
30540,note_on,5,0,0,,,,,,,,,0,,,73,80
30595,note_on,55,0,0,,,,,,,,,0,,,73,0
30600,note_on,5,0,0,,,,,,,,,0,,,71,80
30655,note_on,55,0,0,,,,,,,,,0,,,71,0
30660,note_on,5,0,0,,,,,,,,,0,,,73,80
30707,note_on,227,0,1,,,,,,,,,0,,,56,0
30715,note_on,55,0,0,,,,,,,,,0,,,73,0
30720,note_on,13,0,1,,,,,,,,,0,,,52,80
30720,note_on,5,0,0,,,,,,,,,0,,,71,80
30775,note_on,55,0,0,,,,,,,,,0,,,71,0
30780,note_on,5,0,0,,,,,,,,,0,,,73,80
30835,note_on,55,0,0,,,,,,,,,0,,,73,0
30840,note_on,5,0,0,,,,,,,,,0,,,71,80
30895,note_on,55,0,0,,,,,,,,,0,,,71,0
30900,note_on,5,0,0,,,,,,,,,0,,,73,80
30947,note_on,227,0,1,,,,,,,,,0,,,52,0
30955,note_on,55,0,0,,,,,,,,,0,,,73,0
30960,note_on,13,0,1,,,,,,,,,0,,,57,80
30960,note_on,5,0,0,,,,,,,,,0,,,73,80
31073,note_on,113,0,0,,,,,,,,,0,,,73,0
31080,note_on,7,0,0,,,,,,,,,0,,,69,80
31187,note_on,227,0,1,,,,,,,,,0,,,57,0
31193,note_on,113,0,0,,,,,,,,,0,,,69,0
31200,note_on,7,0,0,,,,,,,,,0,,,74,80
31200,note_on,13,0,1,,,,,,,,,0,,,54,80
31255,note_on,55,0,0,,,,,,,,,0,,,74,0
31260,note_on,5,0,0,,,,,,,,,0,,,76,80
31315,note_on,55,0,0,,,,,,,,,0,,,76,0
31320,note_on,5,0,0,,,,,,,,,0,,,74,80
31375,note_on,55,0,0,,,,,,,,,0,,,74,0
31380,note_on,5,0,0,,,,,,,,,0,,,76,80
31427,note_on,227,0,1,,,,,,,,,0,,,54,0
31435,note_on,55,0,0,,,,,,,,,0,,,76,0
31440,note_on,13,0,1,,,,,,,,,0,,,56,80
31440,note_on,5,0,0,,,,,,,,,0,,,74,80
31495,note_on,55,0,0,,,,,,,,,0,,,74,0
31500,note_on,5,0,0,,,,,,,,,0,,,76,80
31555,note_on,55,0,0,,,,,,,,,0,,,76,0
31560,note_on,5,0,0,,,,,,,,,0,,,74,80
31615,note_on,55,0,0,,,,,,,,,0,,,74,0
31620,note_on,5,0,0,,,,,,,,,0,,,76,80
31667,note_on,227,0,1,,,,,,,,,0,,,56,0
31675,note_on,55,0,0,,,,,,,,,0,,,76,0
31680,note_on,13,0,1,,,,,,,,,0,,,57,80
31680,note_on,5,0,0,,,,,,,,,0,,,73,80
31907,note_on,227,0,1,,,,,,,,,0,,,57,0
31907,note_on,227,0,0,,,,,,,,,0,,,73,0
31920,note_on,13,0,0,,,,,,,,,0,,,74,80
31920,note_on,13,0,1,,,,,,,,,0,,,50,80
32033,note_on,113,0,0,,,,,,,,,0,,,74,0
32040,note_on,7,0,0,,,,,,,,,0,,,73,80
32147,note_on,227,0,1,,,,,,,,,0,,,50,0
32153,note_on,113,0,0,,,,,,,,,0,,,73,0
32160,note_on,7,0,0,,,,,,,,,0,,,71,80
32160,note_on,13,0,1,,,,,,,,,0,,,54,80
32273,note_on,113,0,0,,,,,,,,,0,,,71,0
32280,note_on,7,0,0,,,,,,,,,0,,,69,80
32387,note_on,227,0,1,,,,,,,,,0,,,54,0
32393,note_on,113,0,0,,,,,,,,,0,,,69,0
32400,note_on,7,0,0,,,,,,,,,0,,,68,80
32400,note_on,13,0,1,,,,,,,,,0,,,52,80
32627,note_on,227,0,0,,,,,,,,,0,,,68,0
32640,note_on,13,0,0,,,,,,,,,0,,,76,80
32855,note_on,455,0,1,,,,,,,,,0,,,52,0
32880,note_on,25,0,1,,,,,,,,,0,,,40,80
33095,note_on,455,0,0,,,,,,,,,0,,,76,0
33107,note_on,227,0,1,,,,,,,,,0,,,40,0
33120,note_on,13,0,1,,,,,,,,,0,,,45,80
33120,note_on,25,0,0,,,,,,,,,0,,,74,80
33233,note_on,113,0,0,,,,,,,,,0,,,74,0
33240,note_on,7,0,0,,,,,,,,,0,,,73,80
33347,note_on,227,0,1,,,,,,,,,0,,,45,0
33353,note_on,113,0,0,,,,,,,,,0,,,73,0
33360,note_on,7,0,0,,,,,,,,,0,,,71,80
33360,note_on,13,0,1,,,,,,,,,0,,,47,80
33473,note_on,113,0,0,,,,,,,,,0,,,71,0
33480,note_on,7,0,0,,,,,,,,,0,,,69,80
33593,note_on,113,0,0,,,,,,,,,0,,,69,0
33600,note_on,7,0,0,,,,,,,,,0,,,68,80
33713,note_on,113,0,0,,,,,,,,,0,,,68,0
33720,note_on,7,0,0,,,,,,,,,0,,,66,80
33815,note_on,455,0,1,,,,,,,,,0,,,47,0
33833,note_on,113,0,0,,,,,,,,,0,,,66,0
33840,note_on,7,0,0,,,,,,,,,0,,,64,80
33840,note_on,25,0,1,,,,,,,,,0,,,40,80
34523,note_on,683,0,0,,,,,,,,,0,,,64,0
34523,note_on,683,0,1,,,,,,,,,0,,,40,0
34524,end_of_track,1,1,1,,,,,,,,,,,,,
34524,end_of_track,1,1,0,,,,,,,,,,,,,
