tick,type,time,meta,track,numerator,denominator,clocks_per_click,notated_32nd_notes_per_beat,key,tempo,control,value,channel,program,port,note,velocity
0,control_change,0,0,0,,,,,,,121,0,0,,,,
0,time_signature,0,1,0,3,8,24,8,,,,,,,,,
0,set_tempo,0,1,0,,,,,,500000,,,,,,,
0,program_change,0,0,0,,,,,,,,,0,0,,,
0,track_name,0,1,0,,,,,,,,,,,,,
0,note_on,0,0,1,,,,,,,,,0,,,55,80
0,note_on,0,0,0,,,,,,,,,0,,,79,80
0,midi_port,0,1,1,,,,,,,,,,,0,,
0,midi_port,0,1,0,,,,,,,,,,,0,,
0,key_signature,0,1,1,,,,,G,,,,,,,,
0,key_signature,0,1,0,,,,,G,,,,,,,,
0,track_name,0,1,1,,,,,,,,,,,,,
0,control_change,0,0,0,,,,,,,101,0,0,,,,
0,control_change,0,0,0,,,,,,,100,0,0,,,,
0,control_change,0,0,0,,,,,,,101,127,0,,,,
0,control_change,0,0,0,,,,,,,7,99,0,,,,
0,control_change,0,0,0,,,,,,,10,64,0,,,,
0,control_change,0,0,0,,,,,,,100,127,0,,,,
0,control_change,0,0,0,,,,,,,93,0,0,,,,
0,control_change,0,0,0,,,,,,,91,0,0,,,,
0,control_change,0,0,0,,,,,,,6,12,0,,,,
227,note_on,227,0,0,,,,,,,,,0,,,79,0
227,note_on,227,0,1,,,,,,,,,0,,,55,0
240,note_on,13,0,0,,,,,,,,,0,,,78,80
240,note_on,13,0,1,,,,,,,,,0,,,57,80
467,note_on,227,0,0,,,,,,,,,0,,,78,0
480,note_on,13,0,0,,,,,,,,,0,,,76,80
695,note_on,455,0,1,,,,,,,,,0,,,57,0
707,note_on,227,0,0,,,,,,,,,0,,,76,0
720,note_on,13,0,0,,,,,,,,,0,,,74,80
720,note_on,25,0,1,,,,,,,,,0,,,59,80
947,note_on,227,0,0,,,,,,,,,0,,,74,0
960,note_on,13,0,0,,,,,,,,,0,,,72,80
1079,note_on,119,0,0,,,,,,,,,0,,,72,0
1080,note_on,1,0,0,,,,,,,,,0,,,71,80
1193,note_on,113,0,0,,,,,,,,,0,,,71,0
1200,note_on,7,0,0,,,,,,,,,0,,,69,80
1319,note_on,119,0,0,,,,,,,,,0,,,69,0
1320,note_on,1,0,0,,,,,,,,,0,,,67,80
1403,note_on,683,0,1,,,,,,,,,0,,,59,0
1433,note_on,113,0,0,,,,,,,,,0,,,67,0
1440,note_on,37,0,1,,,,,,,,,0,,,60,80
1440,note_on,7,0,0,,,,,,,,,0,,,76,80
1667,note_on,227,0,1,,,,,,,,,0,,,60,0
1667,note_on,227,0,0,,,,,,,,,0,,,76,0
1680,note_on,13,0,1,,,,,,,,,0,,,62,80
1680,note_on,13,0,0,,,,,,,,,0,,,74,80
1907,note_on,227,0,0,,,,,,,,,0,,,74,0
1907,note_on,227,0,1,,,,,,,,,0,,,62,0
1920,note_on,13,0,1,,,,,,,,,0,,,50,80
1920,note_on,13,0,0,,,,,,,,,0,,,72,80
2147,note_on,227,0,0,,,,,,,,,0,,,72,0
2147,note_on,227,0,1,,,,,,,,,0,,,50,0
2160,note_on,13,0,1,,,,,,,,,0,,,55,80
2160,note_on,13,0,0,,,,,,,,,0,,,71,80
2215,note_on,55,0,0,,,,,,,,,0,,,71,0
2220,note_on,5,0,0,,,,,,,,,0,,,72,80
2275,note_on,55,0,0,,,,,,,,,0,,,72,0
2280,note_on,5,0,0,,,,,,,,,0,,,71,80
2335,note_on,55,0,0,,,,,,,,,0,,,71,0
2340,note_on,5,0,0,,,,,,,,,0,,,72,80
2395,note_on,55,0,0,,,,,,,,,0,,,72,0
2400,note_on,5,0,0,,,,,,,,,0,,,71,80
2455,note_on,55,0,0,,,,,,,,,0,,,71,0
2460,note_on,5,0,0,,,,,,,,,0,,,72,80
2515,note_on,55,0,0,,,,,,,,,0,,,72,0
2520,note_on,5,0,0,,,,,,,,,0,,,71,80
2575,note_on,55,0,0,,,,,,,,,0,,,71,0
2580,note_on,5,0,0,,,,,,,,,0,,,72,80
2615,note_on,455,0,1,,,,,,,,,0,,,55,0
2635,note_on,55,0,0,,,,,,,,,0,,,72,0
2640,note_on,25,0,1,,,,,,,,,0,,,50,80
2640,note_on,5,0,0,,,,,,,,,0,,,69,80
2867,note_on,227,0,1,,,,,,,,,0,,,50,0
2867,note_on,227,0,0,,,,,,,,,0,,,69,0
2880,note_on,13,0,1,,,,,,,,,0,,,55,80
2880,note_on,13,0,0,,,,,,,,,0,,,71,80
2993,note_on,113,0,0,,,,,,,,,0,,,71,0
3000,note_on,7,0,0,,,,,,,,,0,,,72,80
3107,note_on,227,0,1,,,,,,,,,0,,,55,0
3113,note_on,113,0,0,,,,,,,,,0,,,72,0
3120,note_on,13,0,1,,,,,,,,,0,,,47,80
3120,note_on,7,0,0,,,,,,,,,0,,,74,80
3233,note_on,113,0,0,,,,,,,,,0,,,74,0
3240,note_on,7,0,0,,,,,,,,,0,,,67,80
3347,note_on,227,0,1,,,,,,,,,0,,,47,0
3353,note_on,113,0,0,,,,,,,,,0,,,67,0
3360,note_on,13,0,1,,,,,,,,,0,,,50,80
3360,note_on,7,0,0,,,,,,,,,0,,,69,80
3587,note_on,227,0,1,,,,,,,,,0,,,50,0
3587,note_on,227,0,0,,,,,,,,,0,,,69,0
3600,note_on,13,0,0,,,,,,,,,0,,,71,80
3600,note_on,13,0,1,,,,,,,,,0,,,55,80
3655,note_on,55,0,0,,,,,,,,,0,,,71,0
3660,note_on,5,0,0,,,,,,,,,0,,,72,80
3715,note_on,55,0,0,,,,,,,,,0,,,72,0
3720,note_on,5,0,0,,,,,,,,,0,,,71,80
3775,note_on,55,0,0,,,,,,,,,0,,,71,0
3780,note_on,5,0,0,,,,,,,,,0,,,72,80
3827,note_on,227,0,1,,,,,,,,,0,,,55,0
3835,note_on,55,0,0,,,,,,,,,0,,,72,0
3840,note_on,5,0,0,,,,,,,,,0,,,71,80
3840,note_on,13,0,1,,,,,,,,,0,,,47,80
3895,note_on,55,0,0,,,,,,,,,0,,,71,0
3900,note_on,5,0,0,,,,,,,,,0,,,72,80
3955,note_on,55,0,0,,,,,,,,,0,,,72,0
3960,note_on,5,0,0,,,,,,,,,0,,,71,80
4015,note_on,55,0,0,,,,,,,,,0,,,71,0
4020,note_on,5,0,0,,,,,,,,,0,,,72,80
4067,note_on,227,0,1,,,,,,,,,0,,,47,0
4075,note_on,55,0,0,,,,,,,,,0,,,72,0
4080,note_on,5,0,0,,,,,,,,,0,,,69,80
4080,note_on,13,0,1,,,,,,,,,0,,,50,80
4307,note_on,227,0,0,,,,,,,,,0,,,69,0
4307,note_on,227,0,1,,,,,,,,,0,,,50,0
4320,note_on,13,0,1,,,,,,,,,0,,,55,80
4320,note_on,13,0,0,,,,,,,,,0,,,71,80
4433,note_on,113,0,0,,,,,,,,,0,,,71,0
4440,note_on,7,0,0,,,,,,,,,0,,,72,80
4547,note_on,227,0,1,,,,,,,,,0,,,55,0
4553,note_on,113,0,0,,,,,,,,,0,,,72,0
4560,note_on,7,0,0,,,,,,,,,0,,,74,80
4560,note_on,13,0,1,,,,,,,,,0,,,47,80
4673,note_on,113,0,0,,,,,,,,,0,,,74,0
4680,note_on,7,0,0,,,,,,,,,0,,,67,80
4787,note_on,227,0,1,,,,,,,,,0,,,47,0
4793,note_on,113,0,0,,,,,,,,,0,,,67,0
4800,note_on,13,0,1,,,,,,,,,0,,,50,80
4800,note_on,7,0,0,,,,,,,,,0,,,69,80
5027,note_on,227,0,1,,,,,,,,,0,,,50,0
5027,note_on,227,0,0,,,,,,,,,0,,,69,0
5040,note_on,13,0,0,,,,,,,,,0,,,71,80
5040,note_on,13,0,1,,,,,,,,,0,,,55,80
5095,note_on,55,0,0,,,,,,,,,0,,,71,0
5100,note_on,5,0,0,,,,,,,,,0,,,72,80
5155,note_on,55,0,0,,,,,,,,,0,,,72,0
5160,note_on,5,0,0,,,,,,,,,0,,,71,80
5215,note_on,55,0,0,,,,,,,,,0,,,71,0
5220,note_on,5,0,0,,,,,,,,,0,,,72,80
5267,note_on,227,0,1,,,,,,,,,0,,,55,0
5275,note_on,55,0,0,,,,,,,,,0,,,72,0
5280,note_on,5,0,0,,,,,,,,,0,,,71,80
5280,note_on,13,0,1,,,,,,,,,0,,,47,80
5335,note_on,55,0,0,,,,,,,,,0,,,71,0
5340,note_on,5,0,0,,,,,,,,,0,,,72,80
5395,note_on,55,0,0,,,,,,,,,0,,,72,0
5400,note_on,5,0,0,,,,,,,,,0,,,71,80
5455,note_on,55,0,0,,,,,,,,,0,,,71,0
5460,note_on,5,0,0,,,,,,,,,0,,,72,80
5507,note_on,227,0,1,,,,,,,,,0,,,47,0
5515,note_on,55,0,0,,,,,,,,,0,,,72,0
5520,note_on,13,0,1,,,,,,,,,0,,,50,80
5520,note_on,5,0,0,,,,,,,,,0,,,69,80
5747,note_on,227,0,0,,,,,,,,,0,,,69,0
5747,note_on,227,0,1,,,,,,,,,0,,,50,0
5760,note_on,13,0,0,,,,,,,,,0,,,71,80
5760,note_on,13,0,1,,,,,,,,,0,,,55,80
5987,note_on,227,0,0,,,,,,,,,0,,,71,0
6000,note_on,13,0,0,,,,,,,,,0,,,76,80
6055,note_on,55,0,0,,,,,,,,,0,,,76,0
6060,note_on,5,0,0,,,,,,,,,0,,,78,80
6115,note_on,55,0,0,,,,,,,,,0,,,78,0
6120,note_on,5,0,0,,,,,,,,,0,,,76,80
6175,note_on,55,0,0,,,,,,,,,0,,,76,0
6180,note_on,5,0,0,,,,,,,,,0,,,78,80
6215,note_on,455,0,1,,,,,,,,,0,,,55,0
6235,note_on,55,0,0,,,,,,,,,0,,,78,0
6240,note_on,25,0,1,,,,,,,,,0,,,52,80
6240,note_on,5,0,0,,,,,,,,,0,,,76,80
6295,note_on,55,0,0,,,,,,,,,0,,,76,0
6300,note_on,5,0,0,,,,,,,,,0,,,78,80
6355,note_on,55,0,0,,,,,,,,,0,,,78,0
6360,note_on,5,0,0,,,,,,,,,0,,,76,80
6415,note_on,55,0,0,,,,,,,,,0,,,76,0
6420,note_on,5,0,0,,,,,,,,,0,,,78,80
6467,note_on,227,0,1,,,,,,,,,0,,,52,0
6475,note_on,55,0,0,,,,,,,,,0,,,78,0
6480,note_on,5,0,0,,,,,,,,,0,,,73,80
6480,note_on,13,0,1,,,,,,,,,0,,,57,80
6707,note_on,227,0,1,,,,,,,,,0,,,57,0
6707,note_on,227,0,0,,,,,,,,,0,,,73,0
6720,note_on,13,0,0,,,,,,,,,0,,,71,80
6720,note_on,13,0,1,,,,,,,,,0,,,55,80
6947,note_on,227,0,1,,,,,,,,,0,,,55,0
6947,note_on,227,0,0,,,,,,,,,0,,,71,0
6960,note_on,13,0,1,,,,,,,,,0,,,54,80
6960,note_on,13,0,0,,,,,,,,,0,,,69,80
7187,note_on,227,0,1,,,,,,,,,0,,,54,0
7187,note_on,227,0,0,,,,,,,,,0,,,69,0
7200,note_on,13,0,0,,,,,,,,,0,,,74,80
7200,note_on,13,0,1,,,,,,,,,0,,,59,80
7427,note_on,227,0,1,,,,,,,,,0,,,59,0
7427,note_on,227,0,0,,,,,,,,,0,,,74,0
7440,note_on,13,0,1,,,,,,,,,0,,,61,80
7440,note_on,13,0,0,,,,,,,,,0,,,79,80
7667,note_on,227,0,1,,,,,,,,,0,,,61,0
7667,note_on,227,0,0,,,,,,,,,0,,,79,0
7680,note_on,13,0,1,,,,,,,,,0,,,62,80
7680,note_on,13,0,0,,,,,,,,,0,,,78,80
7907,note_on,227,0,0,,,,,,,,,0,,,78,0
7907,note_on,227,0,1,,,,,,,,,0,,,62,0
7920,note_on,13,0,0,,,,,,,,,0,,,76,80
7920,note_on,13,0,1,,,,,,,,,0,,,57,80
8147,note_on,227,0,0,,,,,,,,,0,,,76,0
8147,note_on,227,0,1,,,,,,,,,0,,,57,0
8160,note_on,13,0,0,,,,,,,,,0,,,69,80
8160,note_on,13,0,1,,,,,,,,,0,,,59,80
8387,note_on,227,0,1,,,,,,,,,0,,,59,0
8400,note_on,13,0,1,,,,,,,,,0,,,61,80
8615,note_on,455,0,0,,,,,,,,,0,,,69,0
8627,note_on,227,0,1,,,,,,,,,0,,,61,0
8640,note_on,13,0,1,,,,,,,,,0,,,59,80
8640,note_on,25,0,0,,,,,,,,,0,,,79,80
8867,note_on,227,0,1,,,,,,,,,0,,,59,0
8867,note_on,227,0,0,,,,,,,,,0,,,79,0
8880,note_on,13,0,0,,,,,,,,,0,,,76,80
8880,note_on,13,0,1,,,,,,,,,0,,,55,80
8935,note_on,55,0,0,,,,,,,,,0,,,76,0
8940,note_on,5,0,0,,,,,,,,,0,,,78,80
8995,note_on,55,0,0,,,,,,,,,0,,,78,0
9000,note_on,5,0,0,,,,,,,,,0,,,76,80
9055,note_on,55,0,0,,,,,,,,,0,,,76,0
9060,note_on,5,0,0,,,,,,,,,0,,,78,80
9115,note_on,55,0,0,,,,,,,,,0,,,78,0
9120,note_on,5,0,0,,,,,,,,,0,,,76,80
9175,note_on,55,0,0,,,,,,,,,0,,,76,0
9180,note_on,5,0,0,,,,,,,,,0,,,78,80
9235,note_on,55,0,0,,,,,,,,,0,,,78,0
9240,note_on,5,0,0,,,,,,,,,0,,,76,80
9295,note_on,55,0,0,,,,,,,,,0,,,76,0
9300,note_on,5,0,0,,,,,,,,,0,,,78,80
9335,note_on,455,0,1,,,,,,,,,0,,,55,0
9355,note_on,55,0,0,,,,,,,,,0,,,78,0
9360,note_on,25,0,1,,,,,,,,,0,,,57,80
9360,note_on,5,0,0,,,,,,,,,0,,,78,80
9587,note_on,227,0,1,,,,,,,,,0,,,57,0
9587,note_on,227,0,0,,,,,,,,,0,,,78,0
9600,note_on,13,0,1,,,,,,,,,0,,,52,80
9600,note_on,13,0,0,,,,,,,,,0,,,73,80
9827,note_on,227,0,1,,,,,,,,,0,,,52,0
9827,note_on,227,0,0,,,,,,,,,0,,,73,0
9840,note_on,13,0,1,,,,,,,,,0,,,54,80
9840,note_on,13,0,0,,,,,,,,,0,,,74,80
10067,note_on,227,0,1,,,,,,,,,0,,,54,0
10080,note_on,13,0,1,,,,,,,,,0,,,55,80
10181,note_on,341,0,0,,,,,,,,,0,,,74,0
10200,note_on,19,0,0,,,,,,,,,0,,,71,80
10307,note_on,227,0,1,,,,,,,,,0,,,55,0
10313,note_on,113,0,0,,,,,,,,,0,,,71,0
10320,note_on,13,0,1,,,,,,,,,0,,,57,80
10320,note_on,7,0,0,,,,,,,,,0,,,73,80
10547,note_on,227,0,1,,,,,,,,,0,,,57,0
10560,note_on,13,0,1,,,,,,,,,0,,,45,80
10661,note_on,341,0,0,,,,,,,,,0,,,73,0
10680,note_on,19,0,0,,,,,,,,,0,,,74,80
10787,note_on,227,0,1,,,,,,,,,0,,,45,0
10793,note_on,113,0,0,,,,,,,,,0,,,74,0
10800,note_on,7,0,0,,,,,,,,,0,,,74,80
10800,note_on,13,0,1,,,,,,,,,0,,,50,80
11027,note_on,227,0,1,,,,,,,,,0,,,50,0
11040,note_on,13,0,1,,,,,,,,,0,,,45,80
11267,note_on,227,0,1,,,,,,,,,0,,,45,0
11280,note_on,13,0,1,,,,,,,,,0,,,38,80
11483,note_on,683,0,0,,,,,,,,,0,,,74,0
11507,note_on,227,0,1,,,,,,,,,0,,,38,0
11520,set_tempo,0,1,0,,,,,,500000,,,,,,,
11520,time_signature,37,1,0,3,8,24,8,,,,,,,,,
11520,note_on,0,0,0,,,,,,,,,0,,,79,80
11520,key_signature,13,1,1,,,,,G,,,,,,,,
11520,key_signature,0,1,0,,,,,G,,,,,,,,
11520,note_on,0,0,1,,,,,,,,,0,,,55,80
11747,note_on,227,0,1,,,,,,,,,0,,,55,0
11747,note_on,227,0,0,,,,,,,,,0,,,79,0
11760,note_on,13,0,0,,,,,,,,,0,,,78,80
11760,note_on,13,0,1,,,,,,,,,0,,,57,80
11987,note_on,227,0,0,,,,,,,,,0,,,78,0
12000,note_on,13,0,0,,,,,,,,,0,,,76,80
12215,note_on,455,0,1,,,,,,,,,0,,,57,0
12227,note_on,227,0,0,,,,,,,,,0,,,76,0
12240,note_on,13,0,0,,,,,,,,,0,,,74,80
12240,note_on,25,0,1,,,,,,,,,0,,,59,80
12467,note_on,227,0,0,,,,,,,,,0,,,74,0
12480,note_on,13,0,0,,,,,,,,,0,,,72,80
12599,note_on,119,0,0,,,,,,,,,0,,,72,0
12600,note_on,1,0,0,,,,,,,,,0,,,71,80
12713,note_on,113,0,0,,,,,,,,,0,,,71,0
12720,note_on,7,0,0,,,,,,,,,0,,,69,80
12839,note_on,119,0,0,,,,,,,,,0,,,69,0
12840,note_on,1,0,0,,,,,,,,,0,,,67,80
12923,note_on,683,0,1,,,,,,,,,0,,,59,0
12953,note_on,113,0,0,,,,,,,,,0,,,67,0
12960,note_on,37,0,1,,,,,,,,,0,,,60,80
12960,note_on,7,0,0,,,,,,,,,0,,,76,80
13187,note_on,227,0,1,,,,,,,,,0,,,60,0
13187,note_on,227,0,0,,,,,,,,,0,,,76,0
13200,note_on,13,0,0,,,,,,,,,0,,,74,80
13200,note_on,13,0,1,,,,,,,,,0,,,62,80
13427,note_on,227,0,1,,,,,,,,,0,,,62,0
13427,note_on,227,0,0,,,,,,,,,0,,,74,0
13440,note_on,13,0,1,,,,,,,,,0,,,50,80
13440,note_on,13,0,0,,,,,,,,,0,,,72,80
13667,note_on,227,0,1,,,,,,,,,0,,,50,0
13667,note_on,227,0,0,,,,,,,,,0,,,72,0
13680,note_on,13,0,1,,,,,,,,,0,,,55,80
13680,note_on,13,0,0,,,,,,,,,0,,,71,80
13735,note_on,55,0,0,,,,,,,,,0,,,71,0
13740,note_on,5,0,0,,,,,,,,,0,,,72,80
13795,note_on,55,0,0,,,,,,,,,0,,,72,0
13800,note_on,5,0,0,,,,,,,,,0,,,71,80
13855,note_on,55,0,0,,,,,,,,,0,,,71,0
13860,note_on,5,0,0,,,,,,,,,0,,,72,80
13915,note_on,55,0,0,,,,,,,,,0,,,72,0
13920,note_on,5,0,0,,,,,,,,,0,,,71,80
13975,note_on,55,0,0,,,,,,,,,0,,,71,0
13980,note_on,5,0,0,,,,,,,,,0,,,72,80
14035,note_on,55,0,0,,,,,,,,,0,,,72,0
14040,note_on,5,0,0,,,,,,,,,0,,,71,80
14095,note_on,55,0,0,,,,,,,,,0,,,71,0
14100,note_on,5,0,0,,,,,,,,,0,,,72,80
14135,note_on,455,0,1,,,,,,,,,0,,,55,0
14155,note_on,55,0,0,,,,,,,,,0,,,72,0
14160,note_on,5,0,0,,,,,,,,,0,,,69,80
14160,note_on,25,0,1,,,,,,,,,0,,,50,80
14387,note_on,227,0,0,,,,,,,,,0,,,69,0
14387,note_on,227,0,1,,,,,,,,,0,,,50,0
14400,note_on,13,0,0,,,,,,,,,0,,,71,80
14400,note_on,13,0,1,,,,,,,,,0,,,55,80
14513,note_on,113,0,0,,,,,,,,,0,,,71,0
14520,note_on,7,0,0,,,,,,,,,0,,,72,80
14627,note_on,227,0,1,,,,,,,,,0,,,55,0
14633,note_on,113,0,0,,,,,,,,,0,,,72,0
14640,note_on,7,0,0,,,,,,,,,0,,,74,80
14640,note_on,13,0,1,,,,,,,,,0,,,47,80
14753,note_on,113,0,0,,,,,,,,,0,,,74,0
14760,note_on,7,0,0,,,,,,,,,0,,,67,80
14867,note_on,227,0,1,,,,,,,,,0,,,47,0
14873,note_on,113,0,0,,,,,,,,,0,,,67,0
14880,note_on,13,0,1,,,,,,,,,0,,,50,80
14880,note_on,7,0,0,,,,,,,,,0,,,69,80
15107,note_on,227,0,1,,,,,,,,,0,,,50,0
15107,note_on,227,0,0,,,,,,,,,0,,,69,0
15120,note_on,13,0,1,,,,,,,,,0,,,55,80
15120,note_on,13,0,0,,,,,,,,,0,,,71,80
15175,note_on,55,0,0,,,,,,,,,0,,,71,0
15180,note_on,5,0,0,,,,,,,,,0,,,72,80
15235,note_on,55,0,0,,,,,,,,,0,,,72,0
15240,note_on,5,0,0,,,,,,,,,0,,,71,80
15295,note_on,55,0,0,,,,,,,,,0,,,71,0
15300,note_on,5,0,0,,,,,,,,,0,,,72,80
15347,note_on,227,0,1,,,,,,,,,0,,,55,0
15355,note_on,55,0,0,,,,,,,,,0,,,72,0
15360,note_on,13,0,1,,,,,,,,,0,,,47,80
15360,note_on,5,0,0,,,,,,,,,0,,,71,80
15415,note_on,55,0,0,,,,,,,,,0,,,71,0
15420,note_on,5,0,0,,,,,,,,,0,,,72,80
15475,note_on,55,0,0,,,,,,,,,0,,,72,0
15480,note_on,5,0,0,,,,,,,,,0,,,71,80
15535,note_on,55,0,0,,,,,,,,,0,,,71,0
15540,note_on,5,0,0,,,,,,,,,0,,,72,80
15587,note_on,227,0,1,,,,,,,,,0,,,47,0
15595,note_on,55,0,0,,,,,,,,,0,,,72,0
15600,note_on,13,0,1,,,,,,,,,0,,,50,80
15600,note_on,5,0,0,,,,,,,,,0,,,69,80
15827,note_on,227,0,0,,,,,,,,,0,,,69,0
15827,note_on,227,0,1,,,,,,,,,0,,,50,0
15840,note_on,13,0,0,,,,,,,,,0,,,71,80
15840,note_on,13,0,1,,,,,,,,,0,,,55,80
15953,note_on,113,0,0,,,,,,,,,0,,,71,0
15960,note_on,7,0,0,,,,,,,,,0,,,72,80
16067,note_on,227,0,1,,,,,,,,,0,,,55,0
16073,note_on,113,0,0,,,,,,,,,0,,,72,0
16080,note_on,13,0,1,,,,,,,,,0,,,47,80
16080,note_on,7,0,0,,,,,,,,,0,,,74,80
16193,note_on,113,0,0,,,,,,,,,0,,,74,0
16200,note_on,7,0,0,,,,,,,,,0,,,67,80
16307,note_on,227,0,1,,,,,,,,,0,,,47,0
16313,note_on,113,0,0,,,,,,,,,0,,,67,0
16320,note_on,7,0,0,,,,,,,,,0,,,69,80
16320,note_on,13,0,1,,,,,,,,,0,,,50,80
16547,note_on,227,0,0,,,,,,,,,0,,,69,0
16547,note_on,227,0,1,,,,,,,,,0,,,50,0
16560,note_on,13,0,0,,,,,,,,,0,,,71,80
16560,note_on,13,0,1,,,,,,,,,0,,,55,80
16615,note_on,55,0,0,,,,,,,,,0,,,71,0
16620,note_on,5,0,0,,,,,,,,,0,,,72,80
16675,note_on,55,0,0,,,,,,,,,0,,,72,0
16680,note_on,5,0,0,,,,,,,,,0,,,71,80
16735,note_on,55,0,0,,,,,,,,,0,,,71,0
16740,note_on,5,0,0,,,,,,,,,0,,,72,80
16787,note_on,227,0,1,,,,,,,,,0,,,55,0
16795,note_on,55,0,0,,,,,,,,,0,,,72,0
16800,note_on,13,0,1,,,,,,,,,0,,,47,80
16800,note_on,5,0,0,,,,,,,,,0,,,71,80
16855,note_on,55,0,0,,,,,,,,,0,,,71,0
16860,note_on,5,0,0,,,,,,,,,0,,,72,80
16915,note_on,55,0,0,,,,,,,,,0,,,72,0
16920,note_on,5,0,0,,,,,,,,,0,,,71,80
16975,note_on,55,0,0,,,,,,,,,0,,,71,0
16980,note_on,5,0,0,,,,,,,,,0,,,72,80
17027,note_on,227,0,1,,,,,,,,,0,,,47,0
17035,note_on,55,0,0,,,,,,,,,0,,,72,0
17040,note_on,5,0,0,,,,,,,,,0,,,69,80
17040,note_on,13,0,1,,,,,,,,,0,,,50,80
17267,note_on,227,0,1,,,,,,,,,0,,,50,0
17267,note_on,227,0,0,,,,,,,,,0,,,69,0
17280,note_on,13,0,0,,,,,,,,,0,,,71,80
17280,note_on,13,0,1,,,,,,,,,0,,,55,80
17507,note_on,227,0,0,,,,,,,,,0,,,71,0
17520,note_on,13,0,0,,,,,,,,,0,,,76,80
17575,note_on,55,0,0,,,,,,,,,0,,,76,0
17580,note_on,5,0,0,,,,,,,,,0,,,78,80
17635,note_on,55,0,0,,,,,,,,,0,,,78,0
17640,note_on,5,0,0,,,,,,,,,0,,,76,80
17695,note_on,55,0,0,,,,,,,,,0,,,76,0
17700,note_on,5,0,0,,,,,,,,,0,,,78,80
17735,note_on,455,0,1,,,,,,,,,0,,,55,0
17755,note_on,55,0,0,,,,,,,,,0,,,78,0
17760,note_on,25,0,1,,,,,,,,,0,,,52,80
17760,note_on,5,0,0,,,,,,,,,0,,,76,80
17815,note_on,55,0,0,,,,,,,,,0,,,76,0
17820,note_on,5,0,0,,,,,,,,,0,,,78,80
17875,note_on,55,0,0,,,,,,,,,0,,,78,0
17880,note_on,5,0,0,,,,,,,,,0,,,76,80
17935,note_on,55,0,0,,,,,,,,,0,,,76,0
17940,note_on,5,0,0,,,,,,,,,0,,,78,80
17987,note_on,227,0,1,,,,,,,,,0,,,52,0
17995,note_on,55,0,0,,,,,,,,,0,,,78,0
18000,note_on,13,0,1,,,,,,,,,0,,,57,80
18000,note_on,5,0,0,,,,,,,,,0,,,73,80
18227,note_on,227,0,0,,,,,,,,,0,,,73,0
18227,note_on,227,0,1,,,,,,,,,0,,,57,0
18240,note_on,13,0,0,,,,,,,,,0,,,71,80
18240,note_on,13,0,1,,,,,,,,,0,,,55,80
18467,note_on,227,0,1,,,,,,,,,0,,,55,0
18467,note_on,227,0,0,,,,,,,,,0,,,71,0
18480,note_on,13,0,1,,,,,,,,,0,,,54,80
18480,note_on,13,0,0,,,,,,,,,0,,,69,80
18707,note_on,227,0,1,,,,,,,,,0,,,54,0
18707,note_on,227,0,0,,,,,,,,,0,,,69,0
18720,note_on,13,0,0,,,,,,,,,0,,,74,80
18720,note_on,13,0,1,,,,,,,,,0,,,59,80
18947,note_on,227,0,1,,,,,,,,,0,,,59,0
18947,note_on,227,0,0,,,,,,,,,0,,,74,0
18960,note_on,13,0,1,,,,,,,,,0,,,61,80
18960,note_on,13,0,0,,,,,,,,,0,,,79,80
19187,note_on,227,0,1,,,,,,,,,0,,,61,0
19187,note_on,227,0,0,,,,,,,,,0,,,79,0
19200,note_on,13,0,1,,,,,,,,,0,,,62,80
19200,note_on,13,0,0,,,,,,,,,0,,,78,80
19427,note_on,227,0,0,,,,,,,,,0,,,78,0
19427,note_on,227,0,1,,,,,,,,,0,,,62,0
19440,note_on,13,0,1,,,,,,,,,0,,,57,80
19440,note_on,13,0,0,,,,,,,,,0,,,76,80
19667,note_on,227,0,0,,,,,,,,,0,,,76,0
19667,note_on,227,0,1,,,,,,,,,0,,,57,0
19680,note_on,13,0,0,,,,,,,,,0,,,69,80
19680,note_on,13,0,1,,,,,,,,,0,,,59,80
19907,note_on,227,0,1,,,,,,,,,0,,,59,0
19920,note_on,13,0,1,,,,,,,,,0,,,61,80
20135,note_on,455,0,0,,,,,,,,,0,,,69,0
20147,note_on,227,0,1,,,,,,,,,0,,,61,0
20160,note_on,13,0,1,,,,,,,,,0,,,59,80
20160,note_on,25,0,0,,,,,,,,,0,,,79,80
20387,note_on,227,0,0,,,,,,,,,0,,,79,0
20387,note_on,227,0,1,,,,,,,,,0,,,59,0
20400,note_on,13,0,1,,,,,,,,,0,,,55,80
20400,note_on,13,0,0,,,,,,,,,0,,,76,80
20455,note_on,55,0,0,,,,,,,,,0,,,76,0
20460,note_on,5,0,0,,,,,,,,,0,,,78,80
20515,note_on,55,0,0,,,,,,,,,0,,,78,0
20520,note_on,5,0,0,,,,,,,,,0,,,76,80
20575,note_on,55,0,0,,,,,,,,,0,,,76,0
20580,note_on,5,0,0,,,,,,,,,0,,,78,80
20635,note_on,55,0,0,,,,,,,,,0,,,78,0
20640,note_on,5,0,0,,,,,,,,,0,,,76,80
20695,note_on,55,0,0,,,,,,,,,0,,,76,0
20700,note_on,5,0,0,,,,,,,,,0,,,78,80
20755,note_on,55,0,0,,,,,,,,,0,,,78,0
20760,note_on,5,0,0,,,,,,,,,0,,,76,80
20815,note_on,55,0,0,,,,,,,,,0,,,76,0
20820,note_on,5,0,0,,,,,,,,,0,,,78,80
20855,note_on,455,0,1,,,,,,,,,0,,,55,0
20875,note_on,55,0,0,,,,,,,,,0,,,78,0
20880,note_on,25,0,1,,,,,,,,,0,,,57,80
20880,note_on,5,0,0,,,,,,,,,0,,,78,80
21107,note_on,227,0,1,,,,,,,,,0,,,57,0
21107,note_on,227,0,0,,,,,,,,,0,,,78,0
21120,note_on,13,0,0,,,,,,,,,0,,,73,80
21120,note_on,13,0,1,,,,,,,,,0,,,52,80
21347,note_on,227,0,1,,,,,,,,,0,,,52,0
21347,note_on,227,0,0,,,,,,,,,0,,,73,0
21360,note_on,13,0,0,,,,,,,,,0,,,74,80
21360,note_on,13,0,1,,,,,,,,,0,,,54,80
21587,note_on,227,0,1,,,,,,,,,0,,,54,0
21600,note_on,13,0,1,,,,,,,,,0,,,55,80
21701,note_on,341,0,0,,,,,,,,,0,,,74,0
21720,note_on,19,0,0,,,,,,,,,0,,,71,80
21827,note_on,227,0,1,,,,,,,,,0,,,55,0
21833,note_on,113,0,0,,,,,,,,,0,,,71,0
21840,note_on,13,0,1,,,,,,,,,0,,,57,80
21840,note_on,7,0,0,,,,,,,,,0,,,73,80
22067,note_on,227,0,1,,,,,,,,,0,,,57,0
22080,note_on,13,0,1,,,,,,,,,0,,,45,80
22181,note_on,341,0,0,,,,,,,,,0,,,73,0
22200,note_on,19,0,0,,,,,,,,,0,,,74,80
22307,note_on,227,0,1,,,,,,,,,0,,,45,0
22313,note_on,113,0,0,,,,,,,,,0,,,74,0
22320,note_on,7,0,0,,,,,,,,,0,,,74,80
22320,note_on,13,0,1,,,,,,,,,0,,,50,80
22547,note_on,227,0,1,,,,,,,,,0,,,50,0
22560,note_on,13,0,1,,,,,,,,,0,,,45,80
22787,note_on,227,0,1,,,,,,,,,0,,,45,0
22800,note_on,13,0,1,,,,,,,,,0,,,38,80
23003,note_on,683,0,0,,,,,,,,,0,,,74,0
23027,note_on,227,0,1,,,,,,,,,0,,,38,0
23040,note_on,13,0,1,,,,,,,,,0,,,48,80
23040,note_on,37,0,0,,,,,,,,,0,,,76,80
23267,note_on,227,0,0,,,,,,,,,0,,,76,0
23267,note_on,227,0,1,,,,,,,,,0,,,48,0
23280,note_on,13,0,1,,,,,,,,,0,,,47,80
23280,note_on,13,0,0,,,,,,,,,0,,,81,80
23507,note_on,227,0,1,,,,,,,,,0,,,47,0
23520,note_on,13,0,1,,,,,,,,,0,,,45,80
23735,note_on,455,0,0,,,,,,,,,0,,,81,0
23747,note_on,227,0,1,,,,,,,,,0,,,45,0
23760,note_on,25,0,0,,,,,,,,,0,,,74,80
23760,note_on,13,0,1,,,,,,,,,0,,,47,80
23987,note_on,227,0,1,,,,,,,,,0,,,47,0
23987,note_on,227,0,0,,,,,,,,,0,,,74,0
24000,note_on,13,0,0,,,,,,,,,0,,,79,80
24000,note_on,13,0,1,,,,,,,,,0,,,45,80
24227,note_on,227,0,1,,,,,,,,,0,,,45,0
24240,note_on,13,0,1,,,,,,,,,0,,,43,80
24455,note_on,455,0,0,,,,,,,,,0,,,79,0
24467,note_on,227,0,1,,,,,,,,,0,,,43,0
24480,note_on,25,0,0,,,,,,,,,0,,,74,80
24480,note_on,13,0,1,,,,,,,,,0,,,47,80
24707,note_on,227,0,0,,,,,,,,,0,,,74,0
24720,note_on,13,0,0,,,,,,,,,0,,,72,80
24935,note_on,455,0,1,,,,,,,,,0,,,47,0
24947,note_on,227,0,0,,,,,,,,,0,,,72,0
24960,note_on,13,0,0,,,,,,,,,0,,,71,80
24960,note_on,25,0,1,,,,,,,,,0,,,48,80
25187,note_on,227,0,0,,,,,,,,,0,,,71,0
25187,note_on,227,0,1,,,,,,,,,0,,,48,0
25200,note_on,13,0,0,,,,,,,,,0,,,71,80
25200,note_on,13,0,1,,,,,,,,,0,,,55,80
25255,note_on,55,0,0,,,,,,,,,0,,,71,0
25260,note_on,5,0,0,,,,,,,,,0,,,72,80
25315,note_on,55,0,0,,,,,,,,,0,,,72,0
25320,note_on,5,0,0,,,,,,,,,0,,,71,80
25375,note_on,55,0,0,,,,,,,,,0,,,71,0
25380,note_on,5,0,0,,,,,,,,,0,,,72,80
25427,note_on,227,0,1,,,,,,,,,0,,,55,0
25435,note_on,55,0,0,,,,,,,,,0,,,72,0
25440,note_on,5,0,0,,,,,,,,,0,,,71,80
25440,note_on,13,0,1,,,,,,,,,0,,,43,80
25495,note_on,55,0,0,,,,,,,,,0,,,71,0
25500,note_on,5,0,0,,,,,,,,,0,,,72,80
25555,note_on,55,0,0,,,,,,,,,0,,,72,0
25560,note_on,5,0,0,,,,,,,,,0,,,71,80
25615,note_on,55,0,0,,,,,,,,,0,,,71,0
25620,note_on,5,0,0,,,,,,,,,0,,,72,80
25667,note_on,227,0,1,,,,,,,,,0,,,43,0
25675,note_on,55,0,0,,,,,,,,,0,,,72,0
25680,note_on,5,0,0,,,,,,,,,0,,,69,80
25680,note_on,13,0,1,,,,,,,,,0,,,50,80
25907,note_on,227,0,0,,,,,,,,,0,,,69,0
25907,note_on,227,0,1,,,,,,,,,0,,,50,0
25920,note_on,13,0,1,,,,,,,,,0,,,48,80
25920,note_on,13,0,0,,,,,,,,,0,,,76,80
26147,note_on,227,0,1,,,,,,,,,0,,,48,0
26147,note_on,227,0,0,,,,,,,,,0,,,76,0
26160,note_on,13,0,0,,,,,,,,,0,,,81,80
26160,note_on,13,0,1,,,,,,,,,0,,,52,80
26215,note_on,55,0,0,,,,,,,,,0,,,81,0
26220,note_on,5,0,0,,,,,,,,,0,,,83,80
26275,note_on,55,0,0,,,,,,,,,0,,,83,0
26280,note_on,5,0,0,,,,,,,,,0,,,81,80
26335,note_on,55,0,0,,,,,,,,,0,,,81,0
26340,note_on,5,0,0,,,,,,,,,0,,,83,80
26387,note_on,227,0,1,,,,,,,,,0,,,52,0
26395,note_on,55,0,0,,,,,,,,,0,,,83,0
26400,note_on,13,0,1,,,,,,,,,0,,,48,80
26400,note_on,5,0,0,,,,,,,,,0,,,81,80
26455,note_on,55,0,0,,,,,,,,,0,,,81,0
26460,note_on,5,0,0,,,,,,,,,0,,,83,80
26515,note_on,55,0,0,,,,,,,,,0,,,83,0
26520,note_on,5,0,0,,,,,,,,,0,,,81,80
26575,note_on,55,0,0,,,,,,,,,0,,,81,0
26580,note_on,5,0,0,,,,,,,,,0,,,83,80
26627,note_on,227,0,1,,,,,,,,,0,,,48,0
26635,note_on,55,0,0,,,,,,,,,0,,,83,0
26640,note_on,5,0,0,,,,,,,,,0,,,74,80
26640,note_on,13,0,1,,,,,,,,,0,,,47,80
26867,note_on,227,0,1,,,,,,,,,0,,,47,0
26867,note_on,227,0,0,,,,,,,,,0,,,74,0
26880,note_on,13,0,0,,,,,,,,,0,,,79,80
26880,note_on,13,0,1,,,,,,,,,0,,,50,80
26935,note_on,55,0,0,,,,,,,,,0,,,79,0
26940,note_on,5,0,0,,,,,,,,,0,,,81,80
26995,note_on,55,0,0,,,,,,,,,0,,,81,0
27000,note_on,5,0,0,,,,,,,,,0,,,79,80
27055,note_on,55,0,0,,,,,,,,,0,,,79,0
27060,note_on,5,0,0,,,,,,,,,0,,,81,80
27107,note_on,227,0,1,,,,,,,,,0,,,50,0
27115,note_on,55,0,0,,,,,,,,,0,,,81,0
27120,note_on,5,0,0,,,,,,,,,0,,,79,80
27120,note_on,13,0,1,,,,,,,,,0,,,47,80
27175,note_on,55,0,0,,,,,,,,,0,,,79,0
27180,note_on,5,0,0,,,,,,,,,0,,,81,80
27235,note_on,55,0,0,,,,,,,,,0,,,81,0
27240,note_on,5,0,0,,,,,,,,,0,,,79,80
27295,note_on,55,0,0,,,,,,,,,0,,,79,0
27300,note_on,5,0,0,,,,,,,,,0,,,81,80
27347,note_on,227,0,1,,,,,,,,,0,,,47,0
27355,note_on,55,0,0,,,,,,,,,0,,,81,0
27360,note_on,13,0,1,,,,,,,,,0,,,45,80
27360,note_on,5,0,0,,,,,,,,,0,,,84,80
27587,note_on,227,0,0,,,,,,,,,0,,,84,0
27600,note_on,13,0,0,,,,,,,,,0,,,81,80
27655,note_on,55,0,0,,,,,,,,,0,,,81,0
27660,note_on,5,0,0,,,,,,,,,0,,,83,80
27715,note_on,55,0,0,,,,,,,,,0,,,83,0
27720,note_on,5,0,0,,,,,,,,,0,,,81,80
27775,note_on,55,0,0,,,,,,,,,0,,,81,0
27780,note_on,5,0,0,,,,,,,,,0,,,83,80
27815,note_on,455,0,1,,,,,,,,,0,,,45,0
27835,note_on,55,0,0,,,,,,,,,0,,,83,0
27840,note_on,5,0,0,,,,,,,,,0,,,81,80
27840,note_on,25,0,1,,,,,,,,,0,,,50,80
27895,note_on,55,0,0,,,,,,,,,0,,,81,0
27900,note_on,5,0,0,,,,,,,,,0,,,83,80
27955,note_on,55,0,0,,,,,,,,,0,,,83,0
27960,note_on,5,0,0,,,,,,,,,0,,,81,80
28015,note_on,55,0,0,,,,,,,,,0,,,81,0
28020,note_on,5,0,0,,,,,,,,,0,,,83,80
28067,note_on,227,0,1,,,,,,,,,0,,,50,0
28075,note_on,55,0,0,,,,,,,,,0,,,83,0
28080,note_on,5,0,0,,,,,,,,,0,,,83,80
28080,note_on,13,0,1,,,,,,,,,0,,,43,80
28307,note_on,227,0,0,,,,,,,,,0,,,83,0
28320,note_on,13,0,0,,,,,,,,,0,,,79,80
28375,note_on,55,0,0,,,,,,,,,0,,,79,0
28380,note_on,5,0,0,,,,,,,,,0,,,81,80
28435,note_on,55,0,0,,,,,,,,,0,,,81,0
28440,note_on,5,0,0,,,,,,,,,0,,,79,80
28495,note_on,55,0,0,,,,,,,,,0,,,79,0
28500,note_on,5,0,0,,,,,,,,,0,,,81,80
28535,note_on,455,0,1,,,,,,,,,0,,,43,0
28555,note_on,55,0,0,,,,,,,,,0,,,81,0
28560,note_on,25,0,1,,,,,,,,,0,,,48,80
28560,note_on,5,0,0,,,,,,,,,0,,,79,80
28615,note_on,55,0,0,,,,,,,,,0,,,79,0
28620,note_on,5,0,0,,,,,,,,,0,,,81,80
28675,note_on,55,0,0,,,,,,,,,0,,,81,0
28680,note_on,5,0,0,,,,,,,,,0,,,79,80
28735,note_on,55,0,0,,,,,,,,,0,,,79,0
28740,note_on,5,0,0,,,,,,,,,0,,,81,80
28787,note_on,227,0,1,,,,,,,,,0,,,48,0
28795,note_on,55,0,0,,,,,,,,,0,,,81,0
28800,note_on,13,0,1,,,,,,,,,0,,,50,80
28800,note_on,5,0,0,,,,,,,,,0,,,81,80
29027,note_on,227,0,0,,,,,,,,,0,,,81,0
29040,note_on,13,0,0,,,,,,,,,0,,,78,80
29267,note_on,227,0,0,,,,,,,,,0,,,78,0
29280,note_on,13,0,0,,,,,,,,,0,,,74,80
29483,note_on,683,0,1,,,,,,,,,0,,,50,0
29507,note_on,227,0,0,,,,,,,,,0,,,74,0
29520,note_on,13,0,0,,,,,,,,,0,,,79,80
29520,note_on,37,0,1,,,,,,,,,0,,,52,80
29747,note_on,227,0,0,,,,,,,,,0,,,79,0
29760,note_on,13,0,0,,,,,,,,,0,,,72,80
29815,note_on,55,0,0,,,,,,,,,0,,,72,0
29820,note_on,5,0,0,,,,,,,,,0,,,74,80
29875,note_on,55,0,0,,,,,,,,,0,,,74,0
29880,note_on,5,0,0,,,,,,,,,0,,,72,80
29935,note_on,55,0,0,,,,,,,,,0,,,72,0
29940,note_on,5,0,0,,,,,,,,,0,,,74,80
29995,note_on,55,0,0,,,,,,,,,0,,,74,0
30000,note_on,5,0,0,,,,,,,,,0,,,72,80
30055,note_on,55,0,0,,,,,,,,,0,,,72,0
30060,note_on,5,0,0,,,,,,,,,0,,,74,80
30115,note_on,55,0,0,,,,,,,,,0,,,74,0
30120,note_on,5,0,0,,,,,,,,,0,,,72,80
30175,note_on,55,0,0,,,,,,,,,0,,,72,0
30180,note_on,5,0,0,,,,,,,,,0,,,74,80
30203,note_on,683,0,1,,,,,,,,,0,,,52,0
30235,note_on,55,0,0,,,,,,,,,0,,,74,0
30240,note_on,37,0,1,,,,,,,,,0,,,54,80
30240,note_on,5,0,0,,,,,,,,,0,,,81,80
30467,note_on,227,0,1,,,,,,,,,0,,,54,0
30480,note_on,13,0,1,,,,,,,,,0,,,59,80
30581,note_on,341,0,0,,,,,,,,,0,,,81,0
30600,note_on,19,0,0,,,,,,,,,0,,,74,80
30707,note_on,227,0,1,,,,,,,,,0,,,59,0
30713,note_on,113,0,0,,,,,,,,,0,,,74,0
30720,note_on,13,0,1,,,,,,,,,0,,,55,80
30720,note_on,7,0,0,,,,,,,,,0,,,72,80
30833,note_on,113,0,0,,,,,,,,,0,,,72,0
30840,note_on,7,0,0,,,,,,,,,0,,,71,80
30947,note_on,227,0,1,,,,,,,,,0,,,55,0
30953,note_on,113,0,0,,,,,,,,,0,,,71,0
30960,note_on,13,0,1,,,,,,,,,0,,,57,80
30960,note_on,7,0,0,,,,,,,,,0,,,72,80
31073,note_on,113,0,0,,,,,,,,,0,,,72,0
31080,note_on,7,0,0,,,,,,,,,0,,,79,80
31187,note_on,227,0,1,,,,,,,,,0,,,57,0
31193,note_on,113,0,0,,,,,,,,,0,,,79,0
31200,note_on,7,0,0,,,,,,,,,0,,,69,80
31200,note_on,13,0,1,,,,,,,,,0,,,48,80
31313,note_on,113,0,0,,,,,,,,,0,,,69,0
31320,note_on,7,0,0,,,,,,,,,0,,,79,80
31427,note_on,227,0,1,,,,,,,,,0,,,48,0
31433,note_on,113,0,0,,,,,,,,,0,,,79,0
31440,note_on,7,0,0,,,,,,,,,0,,,74,80
31440,note_on,13,0,1,,,,,,,,,0,,,50,80
31553,note_on,113,0,0,,,,,,,,,0,,,74,0
31560,note_on,7,0,0,,,,,,,,,0,,,78,80
31667,note_on,227,0,1,,,,,,,,,0,,,50,0
31673,note_on,113,0,0,,,,,,,,,0,,,78,0
31680,note_on,13,0,1,,,,,,,,,0,,,52,80
31680,note_on,7,0,0,,,,,,,,,0,,,79,80
32021,note_on,341,0,0,,,,,,,,,0,,,79,0
32040,note_on,19,0,0,,,,,,,,,0,,,72,80
32135,note_on,455,0,1,,,,,,,,,0,,,52,0
32153,note_on,113,0,0,,,,,,,,,0,,,72,0
32160,note_on,7,0,0,,,,,,,,,0,,,71,80
32160,note_on,25,0,1,,,,,,,,,0,,,54,80
32273,note_on,113,0,0,,,,,,,,,0,,,71,0
32280,note_on,7,0,0,,,,,,,,,0,,,69,80
32387,note_on,227,0,1,,,,,,,,,0,,,54,0
32393,note_on,113,0,0,,,,,,,,,0,,,69,0
32400,note_on,13,0,1,,,,,,,,,0,,,55,80
32400,note_on,7,0,0,,,,,,,,,0,,,71,80
32513,note_on,113,0,0,,,,,,,,,0,,,71,0
32520,note_on,7,0,0,,,,,,,,,0,,,74,80
32627,note_on,227,0,1,,,,,,,,,0,,,55,0
32633,note_on,113,0,0,,,,,,,,,0,,,74,0
32640,note_on,7,0,0,,,,,,,,,0,,,67,80
32640,note_on,13,0,1,,,,,,,,,0,,,47,80
32753,note_on,113,0,0,,,,,,,,,0,,,67,0
32760,note_on,7,0,0,,,,,,,,,0,,,71,80
32867,note_on,227,0,1,,,,,,,,,0,,,47,0
32873,note_on,113,0,0,,,,,,,,,0,,,71,0
32880,note_on,13,0,1,,,,,,,,,0,,,50,80
32880,note_on,7,0,0,,,,,,,,,0,,,62,80
32993,note_on,113,0,0,,,,,,,,,0,,,62,0
33000,note_on,7,0,0,,,,,,,,,0,,,66,80
33107,note_on,227,0,1,,,,,,,,,0,,,50,0
33113,note_on,113,0,0,,,,,,,,,0,,,66,0
33120,note_on,13,0,1,,,,,,,,,0,,,52,80
33120,note_on,7,0,0,,,,,,,,,0,,,67,80
33233,note_on,113,0,0,,,,,,,,,0,,,67,0
33240,note_on,7,0,0,,,,,,,,,0,,,69,80
33347,note_on,227,0,1,,,,,,,,,0,,,52,0
33353,note_on,113,0,0,,,,,,,,,0,,,69,0
33360,note_on,13,0,1,,,,,,,,,0,,,47,80
33360,note_on,7,0,0,,,,,,,,,0,,,62,80
33587,note_on,227,0,0,,,,,,,,,0,,,62,0
33587,note_on,227,0,1,,,,,,,,,0,,,47,0
33600,note_on,13,0,1,,,,,,,,,0,,,50,80
33600,note_on,13,0,0,,,,,,,,,0,,,66,80
33655,note_on,55,0,0,,,,,,,,,0,,,66,0
33660,note_on,5,0,0,,,,,,,,,0,,,67,80
33715,note_on,55,0,0,,,,,,,,,0,,,67,0
33720,note_on,5,0,0,,,,,,,,,0,,,66,80
33775,note_on,55,0,0,,,,,,,,,0,,,66,0
33780,note_on,5,0,0,,,,,,,,,0,,,67,80
33827,note_on,227,0,1,,,,,,,,,0,,,50,0
33835,note_on,55,0,0,,,,,,,,,0,,,67,0
33840,note_on,5,0,0,,,,,,,,,0,,,67,80
33840,note_on,13,0,1,,,,,,,,,0,,,43,80
34523,note_on,683,0,0,,,,,,,,,0,,,67,0
34523,note_on,683,0,1,,,,,,,,,0,,,43,0
34560,note_on,37,0,0,,,,,,,,,0,,,76,80
34560,note_on,37,0,1,,,,,,,,,0,,,48,80
34787,note_on,227,0,0,,,,,,,,,0,,,76,0
34787,note_on,227,0,1,,,,,,,,,0,,,48,0
34800,note_on,13,0,1,,,,,,,,,0,,,47,80
34800,note_on,13,0,0,,,,,,,,,0,,,81,80
35027,note_on,227,0,1,,,,,,,,,0,,,47,0
35040,note_on,13,0,1,,,,,,,,,0,,,45,80
35255,note_on,455,0,0,,,,,,,,,0,,,81,0
35267,note_on,227,0,1,,,,,,,,,0,,,45,0
35280,note_on,25,0,0,,,,,,,,,0,,,74,80
35280,note_on,13,0,1,,,,,,,,,0,,,47,80
35507,note_on,227,0,1,,,,,,,,,0,,,47,0
35507,note_on,227,0,0,,,,,,,,,0,,,74,0
35520,note_on,13,0,0,,,,,,,,,0,,,79,80
35520,note_on,13,0,1,,,,,,,,,0,,,45,80
35747,note_on,227,0,1,,,,,,,,,0,,,45,0
35760,note_on,13,0,1,,,,,,,,,0,,,43,80
35975,note_on,455,0,0,,,,,,,,,0,,,79,0
35987,note_on,227,0,1,,,,,,,,,0,,,43,0
36000,note_on,25,0,0,,,,,,,,,0,,,74,80
36000,note_on,13,0,1,,,,,,,,,0,,,47,80
36227,note_on,227,0,0,,,,,,,,,0,,,74,0
36240,note_on,13,0,0,,,,,,,,,0,,,72,80
36455,note_on,455,0,1,,,,,,,,,0,,,47,0
36467,note_on,227,0,0,,,,,,,,,0,,,72,0
36480,note_on,25,0,1,,,,,,,,,0,,,48,80
36480,note_on,13,0,0,,,,,,,,,0,,,71,80
36707,note_on,227,0,0,,,,,,,,,0,,,71,0
36707,note_on,227,0,1,,,,,,,,,0,,,48,0
36720,note_on,13,0,0,,,,,,,,,0,,,71,80
36720,note_on,13,0,1,,,,,,,,,0,,,55,80
36775,note_on,55,0,0,,,,,,,,,0,,,71,0
36780,note_on,5,0,0,,,,,,,,,0,,,72,80
36835,note_on,55,0,0,,,,,,,,,0,,,72,0
36840,note_on,5,0,0,,,,,,,,,0,,,71,80
36895,note_on,55,0,0,,,,,,,,,0,,,71,0
36900,note_on,5,0,0,,,,,,,,,0,,,72,80
36947,note_on,227,0,1,,,,,,,,,0,,,55,0
36955,note_on,55,0,0,,,,,,,,,0,,,72,0
36960,note_on,5,0,0,,,,,,,,,0,,,71,80
36960,note_on,13,0,1,,,,,,,,,0,,,43,80
37015,note_on,55,0,0,,,,,,,,,0,,,71,0
37020,note_on,5,0,0,,,,,,,,,0,,,72,80
37075,note_on,55,0,0,,,,,,,,,0,,,72,0
37080,note_on,5,0,0,,,,,,,,,0,,,71,80
37135,note_on,55,0,0,,,,,,,,,0,,,71,0
37140,note_on,5,0,0,,,,,,,,,0,,,72,80
37187,note_on,227,0,1,,,,,,,,,0,,,43,0
37195,note_on,55,0,0,,,,,,,,,0,,,72,0
37200,note_on,13,0,1,,,,,,,,,0,,,50,80
37200,note_on,5,0,0,,,,,,,,,0,,,69,80
37427,note_on,227,0,0,,,,,,,,,0,,,69,0
37427,note_on,227,0,1,,,,,,,,,0,,,50,0
37440,note_on,13,0,1,,,,,,,,,0,,,48,80
37440,note_on,13,0,0,,,,,,,,,0,,,76,80
37667,note_on,227,0,0,,,,,,,,,0,,,76,0
37667,note_on,227,0,1,,,,,,,,,0,,,48,0
37680,note_on,13,0,1,,,,,,,,,0,,,52,80
37680,note_on,13,0,0,,,,,,,,,0,,,81,80
37735,note_on,55,0,0,,,,,,,,,0,,,81,0
37740,note_on,5,0,0,,,,,,,,,0,,,83,80
37795,note_on,55,0,0,,,,,,,,,0,,,83,0
37800,note_on,5,0,0,,,,,,,,,0,,,81,80
37855,note_on,55,0,0,,,,,,,,,0,,,81,0
37860,note_on,5,0,0,,,,,,,,,0,,,83,80
37907,note_on,227,0,1,,,,,,,,,0,,,52,0
37915,note_on,55,0,0,,,,,,,,,0,,,83,0
37920,note_on,5,0,0,,,,,,,,,0,,,81,80
37920,note_on,13,0,1,,,,,,,,,0,,,48,80
37975,note_on,55,0,0,,,,,,,,,0,,,81,0
37980,note_on,5,0,0,,,,,,,,,0,,,83,80
38035,note_on,55,0,0,,,,,,,,,0,,,83,0
38040,note_on,5,0,0,,,,,,,,,0,,,81,80
38095,note_on,55,0,0,,,,,,,,,0,,,81,0
38100,note_on,5,0,0,,,,,,,,,0,,,83,80
38147,note_on,227,0,1,,,,,,,,,0,,,48,0
38155,note_on,55,0,0,,,,,,,,,0,,,83,0
38160,note_on,5,0,0,,,,,,,,,0,,,74,80
38160,note_on,13,0,1,,,,,,,,,0,,,47,80
38387,note_on,227,0,1,,,,,,,,,0,,,47,0
38387,note_on,227,0,0,,,,,,,,,0,,,74,0
38400,note_on,13,0,0,,,,,,,,,0,,,79,80
38400,note_on,13,0,1,,,,,,,,,0,,,50,80
38455,note_on,55,0,0,,,,,,,,,0,,,79,0
38460,note_on,5,0,0,,,,,,,,,0,,,81,80
38515,note_on,55,0,0,,,,,,,,,0,,,81,0
38520,note_on,5,0,0,,,,,,,,,0,,,79,80
38575,note_on,55,0,0,,,,,,,,,0,,,79,0
38580,note_on,5,0,0,,,,,,,,,0,,,81,80
38627,note_on,227,0,1,,,,,,,,,0,,,50,0
38635,note_on,55,0,0,,,,,,,,,0,,,81,0
38640,note_on,13,0,1,,,,,,,,,0,,,47,80
38640,note_on,5,0,0,,,,,,,,,0,,,79,80
38695,note_on,55,0,0,,,,,,,,,0,,,79,0
38700,note_on,5,0,0,,,,,,,,,0,,,81,80
38755,note_on,55,0,0,,,,,,,,,0,,,81,0
38760,note_on,5,0,0,,,,,,,,,0,,,79,80
38815,note_on,55,0,0,,,,,,,,,0,,,79,0
38820,note_on,5,0,0,,,,,,,,,0,,,81,80
38867,note_on,227,0,1,,,,,,,,,0,,,47,0
38875,note_on,55,0,0,,,,,,,,,0,,,81,0
38880,note_on,5,0,0,,,,,,,,,0,,,84,80
38880,note_on,13,0,1,,,,,,,,,0,,,45,80
39107,note_on,227,0,0,,,,,,,,,0,,,84,0
39120,note_on,13,0,0,,,,,,,,,0,,,81,80
39175,note_on,55,0,0,,,,,,,,,0,,,81,0
39180,note_on,5,0,0,,,,,,,,,0,,,83,80
39235,note_on,55,0,0,,,,,,,,,0,,,83,0
39240,note_on,5,0,0,,,,,,,,,0,,,81,80
39295,note_on,55,0,0,,,,,,,,,0,,,81,0
39300,note_on,5,0,0,,,,,,,,,0,,,83,80
39335,note_on,455,0,1,,,,,,,,,0,,,45,0
39355,note_on,55,0,0,,,,,,,,,0,,,83,0
39360,note_on,5,0,0,,,,,,,,,0,,,81,80
39360,note_on,25,0,1,,,,,,,,,0,,,50,80
39415,note_on,55,0,0,,,,,,,,,0,,,81,0
39420,note_on,5,0,0,,,,,,,,,0,,,83,80
39475,note_on,55,0,0,,,,,,,,,0,,,83,0
39480,note_on,5,0,0,,,,,,,,,0,,,81,80
39535,note_on,55,0,0,,,,,,,,,0,,,81,0
39540,note_on,5,0,0,,,,,,,,,0,,,83,80
39587,note_on,227,0,1,,,,,,,,,0,,,50,0
39595,note_on,55,0,0,,,,,,,,,0,,,83,0
39600,note_on,5,0,0,,,,,,,,,0,,,83,80
39600,note_on,13,0,1,,,,,,,,,0,,,43,80
39827,note_on,227,0,0,,,,,,,,,0,,,83,0
39840,note_on,13,0,0,,,,,,,,,0,,,79,80
39895,note_on,55,0,0,,,,,,,,,0,,,79,0
39900,note_on,5,0,0,,,,,,,,,0,,,81,80
39955,note_on,55,0,0,,,,,,,,,0,,,81,0
39960,note_on,5,0,0,,,,,,,,,0,,,79,80
40015,note_on,55,0,0,,,,,,,,,0,,,79,0
40020,note_on,5,0,0,,,,,,,,,0,,,81,80
40055,note_on,455,0,1,,,,,,,,,0,,,43,0
40075,note_on,55,0,0,,,,,,,,,0,,,81,0
40080,note_on,5,0,0,,,,,,,,,0,,,79,80
40080,note_on,25,0,1,,,,,,,,,0,,,48,80
40135,note_on,55,0,0,,,,,,,,,0,,,79,0
40140,note_on,5,0,0,,,,,,,,,0,,,81,80
40195,note_on,55,0,0,,,,,,,,,0,,,81,0
40200,note_on,5,0,0,,,,,,,,,0,,,79,80
40255,note_on,55,0,0,,,,,,,,,0,,,79,0
40260,note_on,5,0,0,,,,,,,,,0,,,81,80
40307,note_on,227,0,1,,,,,,,,,0,,,48,0
40315,note_on,55,0,0,,,,,,,,,0,,,81,0
40320,note_on,5,0,0,,,,,,,,,0,,,81,80
40320,note_on,13,0,1,,,,,,,,,0,,,50,80
40547,note_on,227,0,0,,,,,,,,,0,,,81,0
40560,note_on,13,0,0,,,,,,,,,0,,,78,80
40787,note_on,227,0,0,,,,,,,,,0,,,78,0
40800,note_on,13,0,0,,,,,,,,,0,,,74,80
41003,note_on,683,0,1,,,,,,,,,0,,,50,0
41027,note_on,227,0,0,,,,,,,,,0,,,74,0
41040,note_on,37,0,1,,,,,,,,,0,,,52,80
41040,note_on,13,0,0,,,,,,,,,0,,,79,80
41267,note_on,227,0,0,,,,,,,,,0,,,79,0
41280,note_on,13,0,0,,,,,,,,,0,,,72,80
41335,note_on,55,0,0,,,,,,,,,0,,,72,0
41340,note_on,5,0,0,,,,,,,,,0,,,74,80
41395,note_on,55,0,0,,,,,,,,,0,,,74,0
41400,note_on,5,0,0,,,,,,,,,0,,,72,80
41455,note_on,55,0,0,,,,,,,,,0,,,72,0
41460,note_on,5,0,0,,,,,,,,,0,,,74,80
41515,note_on,55,0,0,,,,,,,,,0,,,74,0
41520,note_on,5,0,0,,,,,,,,,0,,,72,80
41575,note_on,55,0,0,,,,,,,,,0,,,72,0
41580,note_on,5,0,0,,,,,,,,,0,,,74,80
41635,note_on,55,0,0,,,,,,,,,0,,,74,0
41640,note_on,5,0,0,,,,,,,,,0,,,72,80
41695,note_on,55,0,0,,,,,,,,,0,,,72,0
41700,note_on,5,0,0,,,,,,,,,0,,,74,80
41723,note_on,683,0,1,,,,,,,,,0,,,52,0
41755,note_on,55,0,0,,,,,,,,,0,,,74,0
41760,note_on,5,0,0,,,,,,,,,0,,,81,80
41760,note_on,37,0,1,,,,,,,,,0,,,54,80
41987,note_on,227,0,1,,,,,,,,,0,,,54,0
42000,note_on,13,0,1,,,,,,,,,0,,,59,80
42101,note_on,341,0,0,,,,,,,,,0,,,81,0
42120,note_on,19,0,0,,,,,,,,,0,,,74,80
42227,note_on,227,0,1,,,,,,,,,0,,,59,0
42233,note_on,113,0,0,,,,,,,,,0,,,74,0
42240,note_on,13,0,1,,,,,,,,,0,,,55,80
42240,note_on,7,0,0,,,,,,,,,0,,,72,80
42353,note_on,113,0,0,,,,,,,,,0,,,72,0
42360,note_on,7,0,0,,,,,,,,,0,,,71,80
42467,note_on,227,0,1,,,,,,,,,0,,,55,0
42473,note_on,113,0,0,,,,,,,,,0,,,71,0
42480,note_on,13,0,1,,,,,,,,,0,,,57,80
42480,note_on,7,0,0,,,,,,,,,0,,,72,80
42593,note_on,113,0,0,,,,,,,,,0,,,72,0
42600,note_on,7,0,0,,,,,,,,,0,,,79,80
42707,note_on,227,0,1,,,,,,,,,0,,,57,0
42713,note_on,113,0,0,,,,,,,,,0,,,79,0
42720,note_on,7,0,0,,,,,,,,,0,,,69,80
42720,note_on,13,0,1,,,,,,,,,0,,,48,80
42833,note_on,113,0,0,,,,,,,,,0,,,69,0
42840,note_on,7,0,0,,,,,,,,,0,,,79,80
42947,note_on,227,0,1,,,,,,,,,0,,,48,0
42953,note_on,113,0,0,,,,,,,,,0,,,79,0
42960,note_on,7,0,0,,,,,,,,,0,,,74,80
42960,note_on,13,0,1,,,,,,,,,0,,,50,80
43073,note_on,113,0,0,,,,,,,,,0,,,74,0
43080,note_on,7,0,0,,,,,,,,,0,,,78,80
43187,note_on,227,0,1,,,,,,,,,0,,,50,0
43193,note_on,113,0,0,,,,,,,,,0,,,78,0
43200,note_on,13,0,1,,,,,,,,,0,,,52,80
43200,note_on,7,0,0,,,,,,,,,0,,,79,80
43541,note_on,341,0,0,,,,,,,,,0,,,79,0
43560,note_on,19,0,0,,,,,,,,,0,,,72,80
43655,note_on,455,0,1,,,,,,,,,0,,,52,0
43673,note_on,113,0,0,,,,,,,,,0,,,72,0
43680,note_on,7,0,0,,,,,,,,,0,,,71,80
43680,note_on,25,0,1,,,,,,,,,0,,,54,80
43793,note_on,113,0,0,,,,,,,,,0,,,71,0
43800,note_on,7,0,0,,,,,,,,,0,,,69,80
43907,note_on,227,0,1,,,,,,,,,0,,,54,0
43913,note_on,113,0,0,,,,,,,,,0,,,69,0
43920,note_on,7,0,0,,,,,,,,,0,,,71,80
43920,note_on,13,0,1,,,,,,,,,0,,,55,80
44033,note_on,113,0,0,,,,,,,,,0,,,71,0
44040,note_on,7,0,0,,,,,,,,,0,,,74,80
44147,note_on,227,0,1,,,,,,,,,0,,,55,0
44153,note_on,113,0,0,,,,,,,,,0,,,74,0
44160,note_on,13,0,1,,,,,,,,,0,,,47,80
44160,note_on,7,0,0,,,,,,,,,0,,,67,80
44273,note_on,113,0,0,,,,,,,,,0,,,67,0
44280,note_on,7,0,0,,,,,,,,,0,,,71,80
44387,note_on,227,0,1,,,,,,,,,0,,,47,0
44393,note_on,113,0,0,,,,,,,,,0,,,71,0
44400,note_on,13,0,1,,,,,,,,,0,,,50,80
44400,note_on,7,0,0,,,,,,,,,0,,,62,80
44513,note_on,113,0,0,,,,,,,,,0,,,62,0
44520,note_on,7,0,0,,,,,,,,,0,,,66,80
44627,note_on,227,0,1,,,,,,,,,0,,,50,0
44633,note_on,113,0,0,,,,,,,,,0,,,66,0
44640,note_on,7,0,0,,,,,,,,,0,,,67,80
44640,note_on,13,0,1,,,,,,,,,0,,,52,80
44753,note_on,113,0,0,,,,,,,,,0,,,67,0
44760,note_on,7,0,0,,,,,,,,,0,,,69,80
44867,note_on,227,0,1,,,,,,,,,0,,,52,0
44873,note_on,113,0,0,,,,,,,,,0,,,69,0
44880,note_on,7,0,0,,,,,,,,,0,,,62,80
44880,note_on,13,0,1,,,,,,,,,0,,,47,80
45107,note_on,227,0,1,,,,,,,,,0,,,47,0
45107,note_on,227,0,0,,,,,,,,,0,,,62,0
45120,note_on,13,0,1,,,,,,,,,0,,,50,80
45120,note_on,13,0,0,,,,,,,,,0,,,66,80
45175,note_on,55,0,0,,,,,,,,,0,,,66,0
45180,note_on,5,0,0,,,,,,,,,0,,,67,80
45235,note_on,55,0,0,,,,,,,,,0,,,67,0
45240,note_on,5,0,0,,,,,,,,,0,,,66,80
45295,note_on,55,0,0,,,,,,,,,0,,,66,0
45300,note_on,5,0,0,,,,,,,,,0,,,67,80
45347,note_on,227,0,1,,,,,,,,,0,,,50,0
45355,note_on,55,0,0,,,,,,,,,0,,,67,0
45360,note_on,5,0,0,,,,,,,,,0,,,67,80
45360,note_on,13,0,1,,,,,,,,,0,,,43,80
46043,note_on,683,0,0,,,,,,,,,0,,,67,0
46043,note_on,683,0,1,,,,,,,,,0,,,43,0
46044,end_of_track,1,1,1,,,,,,,,,,,,,
46044,end_of_track,1,1,0,,,,,,,,,,,,,
