tick,type,time,meta,track,numerator,denominator,clocks_per_click,notated_32nd_notes_per_beat,key,tempo,control,value,channel,program,port,note,velocity
0,control_change,0,0,0,,,,,,,121,0,0,,,,
0,time_signature,0,1,0,3,4,24,8,,,,,,,,,
0,set_tempo,0,1,0,,,,,,500000,,,,,,,
0,program_change,0,0,0,,,,,,,,,0,0,,,
0,track_name,0,1,0,,,,,,,,,,,,,
0,note_on,0,0,1,,,,,,,,,0,,,55,80
0,note_on,0,0,0,,,,,,,,,0,,,71,80
0,midi_port,0,1,1,,,,,,,,,,,0,,
0,midi_port,0,1,0,,,,,,,,,,,0,,
0,key_signature,0,1,1,,,,,G,,,,,,,,
0,key_signature,0,1,0,,,,,G,,,,,,,,
0,track_name,0,1,1,,,,,,,,,,,,,
0,control_change,0,0,0,,,,,,,101,0,0,,,,
0,control_change,0,0,0,,,,,,,100,0,0,,,,
0,control_change,0,0,0,,,,,,,93,0,0,,,,
0,control_change,0,0,0,,,,,,,91,0,0,,,,
0,control_change,0,0,0,,,,,,,10,64,0,,,,
0,control_change,0,0,0,,,,,,,7,99,0,,,,
0,control_change,0,0,0,,,,,,,100,127,0,,,,
0,control_change,0,0,0,,,,,,,101,127,0,,,,
0,control_change,0,0,0,,,,,,,6,12,0,,,,
455,note_on,455,0,0,,,,,,,,,0,,,71,0
455,note_on,455,0,1,,,,,,,,,0,,,55,0
480,note_on,25,0,0,,,,,,,,,0,,,72,80
480,note_on,25,0,1,,,,,,,,,0,,,50,80
707,note_on,227,0,0,,,,,,,,,0,,,72,0
720,note_on,13,0,0,,,,,,,,,0,,,71,80
935,note_on,455,0,1,,,,,,,,,0,,,50,0
947,note_on,227,0,0,,,,,,,,,0,,,71,0
960,note_on,13,0,0,,,,,,,,,0,,,69,80
960,note_on,25,0,1,,,,,,,,,0,,,52,80
1187,note_on,227,0,0,,,,,,,,,0,,,69,0
1200,note_on,13,0,0,,,,,,,,,0,,,67,80
1415,note_on,455,0,1,,,,,,,,,0,,,52,0
1427,note_on,227,0,0,,,,,,,,,0,,,67,0
1440,note_on,13,0,0,,,,,,,,,0,,,74,80
1440,note_on,25,0,1,,,,,,,,,0,,,47,80
1895,note_on,455,0,1,,,,,,,,,0,,,47,0
1895,note_on,455,0,0,,,,,,,,,0,,,74,0
1920,note_on,25,0,1,,,,,,,,,0,,,43,80
1920,note_on,25,0,0,,,,,,,,,0,,,79,80
2375,note_on,455,0,1,,,,,,,,,0,,,43,0
2375,note_on,455,0,0,,,,,,,,,0,,,79,0
2880,note_on,505,0,0,,,,,,,,,0,,,78,80
2880,note_on,505,0,1,,,,,,,,,0,,,50,80
3335,note_on,455,0,0,,,,,,,,,0,,,78,0
3335,note_on,455,0,1,,,,,,,,,0,,,50,0
3360,note_on,25,0,1,,,,,,,,,0,,,52,80
3360,note_on,25,0,0,,,,,,,,,0,,,79,80
3587,note_on,227,0,0,,,,,,,,,0,,,79,0
3587,note_on,227,0,1,,,,,,,,,0,,,52,0
3600,note_on,13,0,0,,,,,,,,,0,,,78,80
3600,note_on,13,0,1,,,,,,,,,0,,,50,80
3827,note_on,227,0,0,,,,,,,,,0,,,78,0
3827,note_on,227,0,1,,,,,,,,,0,,,50,0
3840,note_on,13,0,0,,,,,,,,,0,,,79,80
3840,note_on,13,0,1,,,,,,,,,0,,,52,80
4295,note_on,455,0,1,,,,,,,,,0,,,52,0
4295,note_on,455,0,0,,,,,,,,,0,,,79,0
4320,note_on,25,0,0,,,,,,,,,0,,,74,80
4320,note_on,25,0,1,,,,,,,,,0,,,47,80
4775,note_on,455,0,0,,,,,,,,,0,,,74,0
4775,note_on,455,0,1,,,,,,,,,0,,,47,0
4800,note_on,25,0,0,,,,,,,,,0,,,76,80
4800,note_on,25,0,1,,,,,,,,,0,,,48,80
5255,note_on,455,0,0,,,,,,,,,0,,,76,0
5255,note_on,455,0,1,,,,,,,,,0,,,48,0
5760,note_on,505,0,1,,,,,,,,,0,,,55,80
5760,note_on,505,0,0,,,,,,,,,0,,,71,80
6215,note_on,455,0,1,,,,,,,,,0,,,55,0
6215,note_on,455,0,0,,,,,,,,,0,,,71,0
6240,note_on,25,0,1,,,,,,,,,0,,,50,80
6240,note_on,25,0,0,,,,,,,,,0,,,72,80
6467,note_on,227,0,0,,,,,,,,,0,,,72,0
6480,note_on,13,0,0,,,,,,,,,0,,,71,80
6695,note_on,455,0,1,,,,,,,,,0,,,50,0
6707,note_on,227,0,0,,,,,,,,,0,,,71,0
6720,note_on,13,0,0,,,,,,,,,0,,,69,80
6720,note_on,25,0,1,,,,,,,,,0,,,52,80
6947,note_on,227,0,0,,,,,,,,,0,,,69,0
6960,note_on,13,0,0,,,,,,,,,0,,,67,80
7175,note_on,455,0,1,,,,,,,,,0,,,52,0
7187,note_on,227,0,0,,,,,,,,,0,,,67,0
7200,note_on,13,0,0,,,,,,,,,0,,,74,80
7200,note_on,25,0,1,,,,,,,,,0,,,47,80
7655,note_on,455,0,0,,,,,,,,,0,,,74,0
7655,note_on,455,0,1,,,,,,,,,0,,,47,0
7680,note_on,25,0,1,,,,,,,,,0,,,50,80
7680,note_on,25,0,0,,,,,,,,,0,,,69,80
8135,note_on,455,0,1,,,,,,,,,0,,,50,0
8135,note_on,455,0,0,,,,,,,,,0,,,69,0
8640,note_on,505,0,0,,,,,,,,,0,,,79,80
8640,note_on,505,0,1,,,,,,,,,0,,,52,80
8867,note_on,227,0,0,,,,,,,,,0,,,79,0
8880,note_on,13,0,0,,,,,,,,,0,,,78,80
9095,note_on,455,0,1,,,,,,,,,0,,,52,0
9107,note_on,227,0,0,,,,,,,,,0,,,78,0
9120,note_on,25,0,1,,,,,,,,,0,,,54,80
9120,note_on,13,0,0,,,,,,,,,0,,,76,80
9347,note_on,227,0,0,,,,,,,,,0,,,76,0
9360,note_on,13,0,0,,,,,,,,,0,,,74,80
9575,note_on,455,0,1,,,,,,,,,0,,,54,0
9587,note_on,227,0,0,,,,,,,,,0,,,74,0
9600,note_on,25,0,1,,,,,,,,,0,,,55,80
9600,note_on,13,0,0,,,,,,,,,0,,,72,80
9827,note_on,227,0,0,,,,,,,,,0,,,72,0
9840,note_on,13,0,0,,,,,,,,,0,,,71,80
10055,note_on,455,0,1,,,,,,,,,0,,,55,0
10067,note_on,227,0,0,,,,,,,,,0,,,71,0
10080,note_on,13,0,0,,,,,,,,,0,,,69,80
10080,note_on,25,0,1,,,,,,,,,0,,,50,80
10535,note_on,455,0,1,,,,,,,,,0,,,50,0
10560,note_on,25,0,1,,,,,,,,,0,,,54,80
11015,note_on,455,0,1,,,,,,,,,0,,,54,0
11040,note_on,25,0,1,,,,,,,,,0,,,50,80
11447,note_on,1367,0,0,,,,,,,,,0,,,69,0
11495,note_on,455,0,1,,,,,,,,,0,,,50,0
11520,key_signature,25,1,1,,,,,G,,,,,,,,
11520,set_tempo,0,1,0,,,,,,500000,,,,,,,
11520,key_signature,0,1,0,,,,,G,,,,,,,,
11520,note_on,0,0,0,,,,,,,,,0,,,71,80
11520,time_signature,73,1,0,3,4,24,8,,,,,,,,,
11520,note_on,0,0,1,,,,,,,,,0,,,55,80
11975,note_on,455,0,0,,,,,,,,,0,,,71,0
11975,note_on,455,0,1,,,,,,,,,0,,,55,0
12000,note_on,25,0,0,,,,,,,,,0,,,72,80
12000,note_on,25,0,1,,,,,,,,,0,,,50,80
12227,note_on,227,0,0,,,,,,,,,0,,,72,0
12240,note_on,13,0,0,,,,,,,,,0,,,71,80
12455,note_on,455,0,1,,,,,,,,,0,,,50,0
12467,note_on,227,0,0,,,,,,,,,0,,,71,0
12480,note_on,13,0,0,,,,,,,,,0,,,69,80
12480,note_on,25,0,1,,,,,,,,,0,,,52,80
12707,note_on,227,0,0,,,,,,,,,0,,,69,0
12720,note_on,13,0,0,,,,,,,,,0,,,67,80
12935,note_on,455,0,1,,,,,,,,,0,,,52,0
12947,note_on,227,0,0,,,,,,,,,0,,,67,0
12960,note_on,13,0,0,,,,,,,,,0,,,74,80
12960,note_on,25,0,1,,,,,,,,,0,,,47,80
13415,note_on,455,0,0,,,,,,,,,0,,,74,0
13415,note_on,455,0,1,,,,,,,,,0,,,47,0
13440,note_on,25,0,0,,,,,,,,,0,,,79,80
13440,note_on,25,0,1,,,,,,,,,0,,,43,80
13895,note_on,455,0,1,,,,,,,,,0,,,43,0
13895,note_on,455,0,0,,,,,,,,,0,,,79,0
14400,note_on,505,0,0,,,,,,,,,0,,,78,80
14400,note_on,505,0,1,,,,,,,,,0,,,50,80
14855,note_on,455,0,1,,,,,,,,,0,,,50,0
14855,note_on,455,0,0,,,,,,,,,0,,,78,0
14880,note_on,25,0,1,,,,,,,,,0,,,52,80
14880,note_on,25,0,0,,,,,,,,,0,,,79,80
15107,note_on,227,0,1,,,,,,,,,0,,,52,0
15107,note_on,227,0,0,,,,,,,,,0,,,79,0
15120,note_on,13,0,1,,,,,,,,,0,,,50,80
15120,note_on,13,0,0,,,,,,,,,0,,,78,80
15347,note_on,227,0,1,,,,,,,,,0,,,50,0
15347,note_on,227,0,0,,,,,,,,,0,,,78,0
15360,note_on,13,0,0,,,,,,,,,0,,,79,80
15360,note_on,13,0,1,,,,,,,,,0,,,52,80
15815,note_on,455,0,1,,,,,,,,,0,,,52,0
15815,note_on,455,0,0,,,,,,,,,0,,,79,0
15840,note_on,25,0,1,,,,,,,,,0,,,47,80
15840,note_on,25,0,0,,,,,,,,,0,,,74,80
16295,note_on,455,0,1,,,,,,,,,0,,,47,0
16295,note_on,455,0,0,,,,,,,,,0,,,74,0
16320,note_on,25,0,0,,,,,,,,,0,,,76,80
16320,note_on,25,0,1,,,,,,,,,0,,,48,80
16775,note_on,455,0,0,,,,,,,,,0,,,76,0
16775,note_on,455,0,1,,,,,,,,,0,,,48,0
17280,note_on,505,0,0,,,,,,,,,0,,,71,80
17280,note_on,505,0,1,,,,,,,,,0,,,55,80
17735,note_on,455,0,1,,,,,,,,,0,,,55,0
17735,note_on,455,0,0,,,,,,,,,0,,,71,0
17760,note_on,25,0,0,,,,,,,,,0,,,72,80
17760,note_on,25,0,1,,,,,,,,,0,,,50,80
17987,note_on,227,0,0,,,,,,,,,0,,,72,0
18000,note_on,13,0,0,,,,,,,,,0,,,71,80
18215,note_on,455,0,1,,,,,,,,,0,,,50,0
18227,note_on,227,0,0,,,,,,,,,0,,,71,0
18240,note_on,13,0,0,,,,,,,,,0,,,69,80
18240,note_on,25,0,1,,,,,,,,,0,,,52,80
18467,note_on,227,0,0,,,,,,,,,0,,,69,0
18480,note_on,13,0,0,,,,,,,,,0,,,67,80
18695,note_on,455,0,1,,,,,,,,,0,,,52,0
18707,note_on,227,0,0,,,,,,,,,0,,,67,0
18720,note_on,13,0,0,,,,,,,,,0,,,74,80
18720,note_on,25,0,1,,,,,,,,,0,,,47,80
19175,note_on,455,0,0,,,,,,,,,0,,,74,0
19175,note_on,455,0,1,,,,,,,,,0,,,47,0
19200,note_on,25,0,0,,,,,,,,,0,,,69,80
19200,note_on,25,0,1,,,,,,,,,0,,,50,80
19655,note_on,455,0,1,,,,,,,,,0,,,50,0
19655,note_on,455,0,0,,,,,,,,,0,,,69,0
20160,note_on,505,0,1,,,,,,,,,0,,,52,80
20160,note_on,505,0,0,,,,,,,,,0,,,79,80
20387,note_on,227,0,0,,,,,,,,,0,,,79,0
20400,note_on,13,0,0,,,,,,,,,0,,,78,80
20615,note_on,455,0,1,,,,,,,,,0,,,52,0
20627,note_on,227,0,0,,,,,,,,,0,,,78,0
20640,note_on,13,0,0,,,,,,,,,0,,,76,80
20640,note_on,25,0,1,,,,,,,,,0,,,54,80
20867,note_on,227,0,0,,,,,,,,,0,,,76,0
20880,note_on,13,0,0,,,,,,,,,0,,,74,80
21095,note_on,455,0,1,,,,,,,,,0,,,54,0
21107,note_on,227,0,0,,,,,,,,,0,,,74,0
21120,note_on,13,0,0,,,,,,,,,0,,,72,80
21120,note_on,25,0,1,,,,,,,,,0,,,55,80
21347,note_on,227,0,0,,,,,,,,,0,,,72,0
21360,note_on,13,0,0,,,,,,,,,0,,,71,80
21575,note_on,455,0,1,,,,,,,,,0,,,55,0
21587,note_on,227,0,0,,,,,,,,,0,,,71,0
21600,note_on,13,0,0,,,,,,,,,0,,,69,80
21600,note_on,25,0,1,,,,,,,,,0,,,50,80
22055,note_on,455,0,1,,,,,,,,,0,,,50,0
22080,note_on,25,0,1,,,,,,,,,0,,,54,80
22535,note_on,455,0,1,,,,,,,,,0,,,54,0
22560,note_on,25,0,1,,,,,,,,,0,,,50,80
22967,note_on,1367,0,0,,,,,,,,,0,,,69,0
23015,note_on,455,0,1,,,,,,,,,0,,,50,0
23040,note_on,25,0,1,,,,,,,,,0,,,54,80
23040,note_on,73,0,0,,,,,,,,,0,,,81,80
23495,note_on,455,0,1,,,,,,,,,0,,,54,0
23495,note_on,455,0,0,,,,,,,,,0,,,81,0
23520,note_on,25,0,1,,,,,,,,,0,,,55,80
23520,note_on,25,0,0,,,,,,,,,0,,,83,80
23747,note_on,227,0,0,,,,,,,,,0,,,83,0
23747,note_on,227,0,1,,,,,,,,,0,,,55,0
23760,note_on,13,0,1,,,,,,,,,0,,,54,80
23760,note_on,13,0,0,,,,,,,,,0,,,81,80
23987,note_on,227,0,0,,,,,,,,,0,,,81,0
23987,note_on,227,0,1,,,,,,,,,0,,,54,0
24000,note_on,13,0,0,,,,,,,,,0,,,83,80
24000,note_on,13,0,1,,,,,,,,,0,,,55,80
24455,note_on,455,0,0,,,,,,,,,0,,,83,0
24455,note_on,455,0,1,,,,,,,,,0,,,55,0
24480,note_on,25,0,1,,,,,,,,,0,,,50,80
24480,note_on,25,0,0,,,,,,,,,0,,,78,80
24935,note_on,455,0,0,,,,,,,,,0,,,78,0
24935,note_on,455,0,1,,,,,,,,,0,,,50,0
24960,note_on,25,0,1,,,,,,,,,0,,,52,80
24960,note_on,25,0,0,,,,,,,,,0,,,79,80
25415,note_on,455,0,0,,,,,,,,,0,,,79,0
25415,note_on,455,0,1,,,,,,,,,0,,,52,0
25920,note_on,505,0,0,,,,,,,,,0,,,76,80
25920,note_on,505,0,1,,,,,,,,,0,,,60,80
26375,note_on,455,0,1,,,,,,,,,0,,,60,0
26375,note_on,455,0,0,,,,,,,,,0,,,76,0
26400,note_on,25,0,0,,,,,,,,,0,,,81,80
26400,note_on,25,0,1,,,,,,,,,0,,,57,80
26627,note_on,227,0,0,,,,,,,,,0,,,81,0
26640,note_on,13,0,0,,,,,,,,,0,,,79,80
26855,note_on,455,0,1,,,,,,,,,0,,,57,0
26867,note_on,227,0,0,,,,,,,,,0,,,79,0
26880,note_on,13,0,0,,,,,,,,,0,,,81,80
27335,note_on,455,0,0,,,,,,,,,0,,,81,0
27360,note_on,505,0,1,,,,,,,,,0,,,59,80
27360,note_on,25,0,0,,,,,,,,,0,,,74,80
27815,note_on,455,0,0,,,,,,,,,0,,,74,0
27815,note_on,455,0,1,,,,,,,,,0,,,59,0
27840,note_on,25,0,1,,,,,,,,,0,,,52,80
27840,note_on,25,0,0,,,,,,,,,0,,,79,80
28295,note_on,455,0,0,,,,,,,,,0,,,79,0
28295,note_on,455,0,1,,,,,,,,,0,,,52,0
28800,note_on,505,0,0,,,,,,,,,0,,,72,80
28800,note_on,505,0,1,,,,,,,,,0,,,57,80
29255,note_on,455,0,1,,,,,,,,,0,,,57,0
29255,note_on,455,0,0,,,,,,,,,0,,,72,0
29280,note_on,25,0,1,,,,,,,,,0,,,54,80
29280,note_on,25,0,0,,,,,,,,,0,,,74,80
29507,note_on,227,0,0,,,,,,,,,0,,,74,0
29520,note_on,13,0,0,,,,,,,,,0,,,72,80
29735,note_on,455,0,1,,,,,,,,,0,,,54,0
29747,note_on,227,0,0,,,,,,,,,0,,,72,0
29760,note_on,13,0,0,,,,,,,,,0,,,71,80
29760,note_on,25,0,1,,,,,,,,,0,,,50,80
29987,note_on,227,0,0,,,,,,,,,0,,,71,0
30000,note_on,13,0,0,,,,,,,,,0,,,69,80
30215,note_on,455,0,1,,,,,,,,,0,,,50,0
30227,note_on,227,0,0,,,,,,,,,0,,,69,0
30240,note_on,13,0,0,,,,,,,,,0,,,79,80
30240,note_on,25,0,1,,,,,,,,,0,,,47,80
30695,note_on,455,0,0,,,,,,,,,0,,,79,0
30720,note_on,25,0,0,,,,,,,,,0,,,78,80
30947,note_on,227,0,0,,,,,,,,,0,,,78,0
30960,note_on,13,0,0,,,,,,,,,0,,,76,80
31151,note_on,911,0,1,,,,,,,,,0,,,47,0
31187,note_on,227,0,0,,,,,,,,,0,,,76,0
31200,note_on,13,0,0,,,,,,,,,0,,,74,80
31200,note_on,49,0,1,,,,,,,,,0,,,48,80
31427,note_on,227,0,0,,,,,,,,,0,,,74,0
31440,note_on,13,0,0,,,,,,,,,0,,,72,80
31655,note_on,455,0,1,,,,,,,,,0,,,48,0
31667,note_on,227,0,0,,,,,,,,,0,,,72,0
31680,note_on,13,0,0,,,,,,,,,0,,,71,80
31680,note_on,25,0,1,,,,,,,,,0,,,50,80
31907,note_on,227,0,0,,,,,,,,,0,,,71,0
31920,note_on,13,0,0,,,,,,,,,0,,,72,80
32135,note_on,455,0,1,,,,,,,,,0,,,50,0
32147,note_on,227,0,0,,,,,,,,,0,,,72,0
32160,note_on,13,0,0,,,,,,,,,0,,,69,80
32160,note_on,25,0,1,,,,,,,,,0,,,38,80
33071,note_on,911,0,1,,,,,,,,,0,,,38,0
33071,note_on,911,0,0,,,,,,,,,0,,,69,0
33120,note_on,49,0,1,,,,,,,,,0,,,55,80
33120,note_on,49,0,0,,,,,,,,,0,,,67,80
33575,note_on,455,0,1,,,,,,,,,0,,,55,0
33600,note_on,25,0,1,,,,,,,,,0,,,57,80
34055,note_on,455,0,1,,,,,,,,,0,,,57,0
34080,note_on,25,0,1,,,,,,,,,0,,,62,80
34487,note_on,1367,0,0,,,,,,,,,0,,,67,0
34535,note_on,455,0,1,,,,,,,,,0,,,62,0
34559,set_tempo,72,1,0,,,,,,500000,,,,,,,
34560,note_on,1,0,0,,,,,,,,,0,,,81,80
34560,note_on,25,0,1,,,,,,,,,0,,,54,80
35015,note_on,455,0,0,,,,,,,,,0,,,81,0
35015,note_on,455,0,1,,,,,,,,,0,,,54,0
35040,note_on,25,0,0,,,,,,,,,0,,,83,80
35040,note_on,25,0,1,,,,,,,,,0,,,55,80
35267,note_on,227,0,1,,,,,,,,,0,,,55,0
35267,note_on,227,0,0,,,,,,,,,0,,,83,0
35280,note_on,13,0,0,,,,,,,,,0,,,81,80
35280,note_on,13,0,1,,,,,,,,,0,,,54,80
35507,note_on,227,0,1,,,,,,,,,0,,,54,0
35507,note_on,227,0,0,,,,,,,,,0,,,81,0
35520,note_on,13,0,0,,,,,,,,,0,,,83,80
35520,note_on,13,0,1,,,,,,,,,0,,,55,80
35975,note_on,455,0,1,,,,,,,,,0,,,55,0
35975,note_on,455,0,0,,,,,,,,,0,,,83,0
36000,note_on,25,0,1,,,,,,,,,0,,,50,80
36000,note_on,25,0,0,,,,,,,,,0,,,78,80
36455,note_on,455,0,1,,,,,,,,,0,,,50,0
36455,note_on,455,0,0,,,,,,,,,0,,,78,0
36480,note_on,25,0,1,,,,,,,,,0,,,52,80
36480,note_on,25,0,0,,,,,,,,,0,,,79,80
36935,note_on,455,0,1,,,,,,,,,0,,,52,0
36935,note_on,455,0,0,,,,,,,,,0,,,79,0
37440,note_on,505,0,1,,,,,,,,,0,,,60,80
37440,note_on,505,0,0,,,,,,,,,0,,,76,80
37895,note_on,455,0,1,,,,,,,,,0,,,60,0
37895,note_on,455,0,0,,,,,,,,,0,,,76,0
37920,note_on,25,0,1,,,,,,,,,0,,,57,80
37920,note_on,25,0,0,,,,,,,,,0,,,81,80
38147,note_on,227,0,0,,,,,,,,,0,,,81,0
38160,note_on,13,0,0,,,,,,,,,0,,,79,80
38375,note_on,455,0,1,,,,,,,,,0,,,57,0
38387,note_on,227,0,0,,,,,,,,,0,,,79,0
38400,note_on,13,0,0,,,,,,,,,0,,,81,80
38855,note_on,455,0,0,,,,,,,,,0,,,81,0
38880,note_on,25,0,0,,,,,,,,,0,,,74,80
38880,note_on,505,0,1,,,,,,,,,0,,,59,80
39335,note_on,455,0,1,,,,,,,,,0,,,59,0
39335,note_on,455,0,0,,,,,,,,,0,,,74,0
39360,note_on,25,0,1,,,,,,,,,0,,,52,80
39360,note_on,25,0,0,,,,,,,,,0,,,79,80
39815,note_on,455,0,0,,,,,,,,,0,,,79,0
39815,note_on,455,0,1,,,,,,,,,0,,,52,0
40320,note_on,505,0,0,,,,,,,,,0,,,72,80
40320,note_on,505,0,1,,,,,,,,,0,,,57,80
40775,note_on,455,0,0,,,,,,,,,0,,,72,0
40775,note_on,455,0,1,,,,,,,,,0,,,57,0
40800,note_on,25,0,1,,,,,,,,,0,,,54,80
40800,note_on,25,0,0,,,,,,,,,0,,,74,80
41027,note_on,227,0,0,,,,,,,,,0,,,74,0
41040,note_on,13,0,0,,,,,,,,,0,,,72,80
41255,note_on,455,0,1,,,,,,,,,0,,,54,0
41267,note_on,227,0,0,,,,,,,,,0,,,72,0
41280,note_on,13,0,0,,,,,,,,,0,,,71,80
41280,note_on,25,0,1,,,,,,,,,0,,,50,80
41507,note_on,227,0,0,,,,,,,,,0,,,71,0
41520,note_on,13,0,0,,,,,,,,,0,,,69,80
41735,note_on,455,0,1,,,,,,,,,0,,,50,0
41747,note_on,227,0,0,,,,,,,,,0,,,69,0
41760,note_on,25,0,1,,,,,,,,,0,,,47,80
41760,note_on,13,0,0,,,,,,,,,0,,,79,80
42215,note_on,455,0,0,,,,,,,,,0,,,79,0
42240,note_on,25,0,0,,,,,,,,,0,,,78,80
42467,note_on,227,0,0,,,,,,,,,0,,,78,0
42480,note_on,13,0,0,,,,,,,,,0,,,76,80
42671,note_on,911,0,1,,,,,,,,,0,,,47,0
42707,note_on,227,0,0,,,,,,,,,0,,,76,0
42720,note_on,13,0,0,,,,,,,,,0,,,74,80
42720,note_on,49,0,1,,,,,,,,,0,,,48,80
42947,note_on,227,0,0,,,,,,,,,0,,,74,0
42960,note_on,13,0,0,,,,,,,,,0,,,72,80
43175,note_on,455,0,1,,,,,,,,,0,,,48,0
43187,note_on,227,0,0,,,,,,,,,0,,,72,0
43200,note_on,25,0,1,,,,,,,,,0,,,50,80
43200,note_on,13,0,0,,,,,,,,,0,,,71,80
43427,note_on,227,0,0,,,,,,,,,0,,,71,0
43440,note_on,13,0,0,,,,,,,,,0,,,72,80
43655,note_on,455,0,1,,,,,,,,,0,,,50,0
43667,note_on,227,0,0,,,,,,,,,0,,,72,0
43680,note_on,25,0,1,,,,,,,,,0,,,38,80
43680,note_on,13,0,0,,,,,,,,,0,,,69,80
44591,note_on,911,0,1,,,,,,,,,0,,,38,0
44591,note_on,911,0,0,,,,,,,,,0,,,69,0
44640,note_on,49,0,1,,,,,,,,,0,,,43,80
44640,note_on,49,0,0,,,,,,,,,0,,,67,80
46007,note_on,1367,0,1,,,,,,,,,0,,,43,0
46007,note_on,1367,0,0,,,,,,,,,0,,,67,0
46008,end_of_track,1,1,1,,,,,,,,,,,,,
46008,end_of_track,1,1,0,,,,,,,,,,,,,
