tick,type,time,meta,track,numerator,denominator,clocks_per_click,notated_32nd_notes_per_beat,key,tempo,control,value,channel,program,port,note,velocity
0,control_change,0,0,0,,,,,,,121,0,0,,,,
0,time_signature,0,1,0,3,8,24,8,,,,,,,,,
0,set_tempo,0,1,0,,,,,,500000,,,,,,,
0,program_change,0,0,0,,,,,,,,,0,0,,,
0,track_name,0,1,0,,,,,,,,,,,,,
0,note_on,0,0,1,,,,,,,,,0,,,43,80
0,note_on,0,0,0,,,,,,,,,0,,,71,80
0,midi_port,0,1,1,,,,,,,,,,,0,,
0,midi_port,0,1,0,,,,,,,,,,,0,,
0,key_signature,0,1,1,,,,,G,,,,,,,,
0,key_signature,0,1,0,,,,,G,,,,,,,,
0,track_name,0,1,1,,,,,,,,,,,,,
0,control_change,0,0,0,,,,,,,6,12,0,,,,
0,control_change,0,0,0,,,,,,,100,127,0,,,,
0,control_change,0,0,0,,,,,,,93,0,0,,,,
0,control_change,0,0,0,,,,,,,101,0,0,,,,
0,control_change,0,0,0,,,,,,,100,0,0,,,,
0,control_change,0,0,0,,,,,,,91,0,0,,,,
0,control_change,0,0,0,,,,,,,10,64,0,,,,
0,control_change,0,0,0,,,,,,,7,99,0,,,,
0,control_change,0,0,0,,,,,,,101,127,0,,,,
227,note_on,227,0,1,,,,,,,,,0,,,43,0
240,note_on,13,0,1,,,,,,,,,0,,,47,80
455,note_on,455,0,0,,,,,,,,,0,,,71,0
467,note_on,227,0,1,,,,,,,,,0,,,47,0
480,note_on,13,0,1,,,,,,,,,0,,,43,80
707,note_on,227,0,1,,,,,,,,,0,,,43,0
720,note_on,13,0,1,,,,,,,,,0,,,50,80
720,note_on,265,0,0,,,,,,,,,0,,,69,80
833,note_on,113,0,0,,,,,,,,,0,,,69,0
840,note_on,7,0,0,,,,,,,,,0,,,72,80
947,note_on,227,0,1,,,,,,,,,0,,,50,0
953,note_on,113,0,0,,,,,,,,,0,,,72,0
960,note_on,7,0,0,,,,,,,,,0,,,71,80
960,note_on,13,0,1,,,,,,,,,0,,,47,80
1073,note_on,113,0,0,,,,,,,,,0,,,71,0
1080,note_on,7,0,0,,,,,,,,,0,,,69,80
1187,note_on,227,0,1,,,,,,,,,0,,,47,0
1193,note_on,113,0,0,,,,,,,,,0,,,69,0
1200,note_on,7,0,0,,,,,,,,,0,,,67,80
1200,note_on,13,0,1,,,,,,,,,0,,,52,80
1427,note_on,227,0,1,,,,,,,,,0,,,52,0
1427,note_on,227,0,0,,,,,,,,,0,,,67,0
1440,note_on,13,0,1,,,,,,,,,0,,,48,80
1440,note_on,13,0,0,,,,,,,,,0,,,72,80
1667,note_on,227,0,1,,,,,,,,,0,,,48,0
1667,note_on,227,0,0,,,,,,,,,0,,,72,0
1680,note_on,13,0,1,,,,,,,,,0,,,50,80
1680,note_on,13,0,0,,,,,,,,,0,,,69,80
1735,note_on,55,0,0,,,,,,,,,0,,,69,0
1739,note_on,4,0,0,,,,,,,,,0,,,71,80
1794,note_on,55,0,0,,,,,,,,,0,,,71,0
1799,note_on,5,0,0,,,,,,,,,0,,,69,80
1854,note_on,55,0,0,,,,,,,,,0,,,69,0
1860,note_on,6,0,0,,,,,,,,,0,,,71,80
1907,note_on,227,0,1,,,,,,,,,0,,,50,0
1915,note_on,55,0,0,,,,,,,,,0,,,71,0
1919,note_on,4,0,0,,,,,,,,,0,,,69,80
1920,note_on,13,0,1,,,,,,,,,0,,,38,80
1974,note_on,55,0,0,,,,,,,,,0,,,69,0
1979,note_on,5,0,0,,,,,,,,,0,,,71,80
2034,note_on,55,0,0,,,,,,,,,0,,,71,0
2040,note_on,6,0,0,,,,,,,,,0,,,67,80
2096,note_on,56,0,0,,,,,,,,,0,,,67,0
2100,note_on,4,0,0,,,,,,,,,0,,,69,80
2147,note_on,227,0,1,,,,,,,,,0,,,38,0
2156,note_on,56,0,0,,,,,,,,,0,,,69,0
2160,note_on,4,0,0,,,,,,,,,0,,,71,80
2160,note_on,13,0,1,,,,,,,,,0,,,43,80
2615,note_on,455,0,1,,,,,,,,,0,,,43,0
2615,note_on,455,0,0,,,,,,,,,0,,,71,0
2880,note_on,265,0,0,,,,,,,,,0,,,76,80
2880,note_on,265,0,1,,,,,,,,,0,,,60,80
3107,note_on,227,0,0,,,,,,,,,0,,,76,0
3107,note_on,227,0,1,,,,,,,,,0,,,60,0
3120,note_on,13,0,1,,,,,,,,,0,,,57,80
3120,note_on,13,0,0,,,,,,,,,0,,,72,80
3175,note_on,55,0,0,,,,,,,,,0,,,72,0
3179,note_on,4,0,0,,,,,,,,,0,,,74,80
3234,note_on,55,0,0,,,,,,,,,0,,,74,0
3239,note_on,5,0,0,,,,,,,,,0,,,72,80
3294,note_on,55,0,0,,,,,,,,,0,,,72,0
3300,note_on,6,0,0,,,,,,,,,0,,,74,80
3347,note_on,227,0,1,,,,,,,,,0,,,57,0
3355,note_on,55,0,0,,,,,,,,,0,,,74,0
3359,note_on,4,0,0,,,,,,,,,0,,,72,80
3414,note_on,55,0,0,,,,,,,,,0,,,72,0
3419,note_on,5,0,0,,,,,,,,,0,,,74,80
3474,note_on,55,0,0,,,,,,,,,0,,,74,0
3480,note_on,6,0,0,,,,,,,,,0,,,71,80
3536,note_on,56,0,0,,,,,,,,,0,,,71,0
3540,note_on,4,0,0,,,,,,,,,0,,,72,80
3596,note_on,56,0,0,,,,,,,,,0,,,72,0
3600,note_on,4,0,0,,,,,,,,,0,,,79,80
3600,note_on,253,0,1,,,,,,,,,0,,,59,80
3827,note_on,227,0,0,,,,,,,,,0,,,79,0
3827,note_on,227,0,1,,,,,,,,,0,,,59,0
3840,note_on,13,0,1,,,,,,,,,0,,,54,80
3840,note_on,13,0,0,,,,,,,,,0,,,78,80
3953,note_on,113,0,0,,,,,,,,,0,,,78,0
3960,note_on,7,0,0,,,,,,,,,0,,,76,80
4067,note_on,227,0,1,,,,,,,,,0,,,54,0
4073,note_on,113,0,0,,,,,,,,,0,,,76,0
4080,note_on,7,0,0,,,,,,,,,0,,,74,80
4193,note_on,113,0,0,,,,,,,,,0,,,74,0
4200,note_on,7,0,0,,,,,,,,,0,,,72,80
4313,note_on,113,0,0,,,,,,,,,0,,,72,0
4320,note_on,253,0,1,,,,,,,,,0,,,55,80
4320,note_on,7,0,0,,,,,,,,,0,,,71,80
4433,note_on,113,0,0,,,,,,,,,0,,,71,0
4440,note_on,7,0,0,,,,,,,,,0,,,74,80
4547,note_on,227,0,1,,,,,,,,,0,,,55,0
4553,note_on,113,0,0,,,,,,,,,0,,,74,0
4560,note_on,13,0,1,,,,,,,,,0,,,52,80
4560,note_on,7,0,0,,,,,,,,,0,,,72,80
4673,note_on,113,0,0,,,,,,,,,0,,,72,0
4680,note_on,7,0,0,,,,,,,,,0,,,71,80
4787,note_on,227,0,1,,,,,,,,,0,,,52,0
4793,note_on,113,0,0,,,,,,,,,0,,,71,0
4800,note_on,7,0,0,,,,,,,,,0,,,69,80
4800,note_on,13,0,1,,,,,,,,,0,,,48,80
4913,note_on,113,0,0,,,,,,,,,0,,,69,0
4920,note_on,7,0,0,,,,,,,,,0,,,67,80
5027,note_on,227,0,1,,,,,,,,,0,,,48,0
5033,note_on,113,0,0,,,,,,,,,0,,,67,0
5040,note_on,7,0,0,,,,,,,,,0,,,67,80
5040,note_on,13,0,1,,,,,,,,,0,,,50,80
5095,note_on,55,0,0,,,,,,,,,0,,,67,0
5100,note_on,5,0,0,,,,,,,,,0,,,69,80
5155,note_on,55,0,0,,,,,,,,,0,,,69,0
5160,note_on,5,0,0,,,,,,,,,0,,,67,80
5215,note_on,55,0,0,,,,,,,,,0,,,67,0
5220,note_on,5,0,0,,,,,,,,,0,,,69,80
5275,note_on,55,0,0,,,,,,,,,0,,,69,0
5280,note_on,5,0,0,,,,,,,,,0,,,66,80
5495,note_on,455,0,1,,,,,,,,,0,,,50,0
5507,note_on,227,0,0,,,,,,,,,0,,,66,0
5760,note_on,253,0,0,,,,,,,,,0,,,78,80
5760,note_on,265,0,1,,,,,,,,,0,,,57,80
5873,note_on,113,0,0,,,,,,,,,0,,,78,0
5880,note_on,7,0,0,,,,,,,,,0,,,81,80
5987,note_on,227,0,1,,,,,,,,,0,,,57,0
5993,note_on,113,0,0,,,,,,,,,0,,,81,0
6000,note_on,13,0,1,,,,,,,,,0,,,60,80
6000,note_on,7,0,0,,,,,,,,,0,,,79,80
6113,note_on,113,0,0,,,,,,,,,0,,,79,0
6120,note_on,7,0,0,,,,,,,,,0,,,78,80
6227,note_on,227,0,1,,,,,,,,,0,,,60,0
6233,note_on,113,0,0,,,,,,,,,0,,,78,0
6240,note_on,13,0,1,,,,,,,,,0,,,59,80
6240,note_on,7,0,0,,,,,,,,,0,,,79,80
6467,note_on,227,0,1,,,,,,,,,0,,,59,0
6467,note_on,227,0,0,,,,,,,,,0,,,79,0
6480,note_on,13,0,1,,,,,,,,,0,,,57,80
6480,note_on,13,0,0,,,,,,,,,0,,,66,80
6593,note_on,113,0,0,,,,,,,,,0,,,66,0
6600,note_on,7,0,0,,,,,,,,,0,,,72,80
6707,note_on,227,0,1,,,,,,,,,0,,,57,0
6713,note_on,113,0,0,,,,,,,,,0,,,72,0
6720,note_on,13,0,1,,,,,,,,,0,,,50,80
6720,note_on,7,0,0,,,,,,,,,0,,,71,80
6833,note_on,113,0,0,,,,,,,,,0,,,71,0
6840,note_on,7,0,0,,,,,,,,,0,,,69,80
6947,note_on,227,0,1,,,,,,,,,0,,,50,0
6953,note_on,113,0,0,,,,,,,,,0,,,69,0
6960,note_on,13,0,1,,,,,,,,,0,,,55,80
6960,note_on,7,0,0,,,,,,,,,0,,,71,80
7187,note_on,227,0,0,,,,,,,,,0,,,71,0
7187,note_on,227,0,1,,,,,,,,,0,,,55,0
7200,note_on,13,0,0,,,,,,,,,0,,,78,80
7200,note_on,13,0,1,,,,,,,,,0,,,57,80
7313,note_on,113,0,0,,,,,,,,,0,,,78,0
7320,note_on,7,0,0,,,,,,,,,0,,,81,80
7427,note_on,227,0,1,,,,,,,,,0,,,57,0
7433,note_on,113,0,0,,,,,,,,,0,,,81,0
7440,note_on,13,0,1,,,,,,,,,0,,,60,80
7440,note_on,7,0,0,,,,,,,,,0,,,79,80
7553,note_on,113,0,0,,,,,,,,,0,,,79,0
7560,note_on,7,0,0,,,,,,,,,0,,,78,80
7667,note_on,227,0,1,,,,,,,,,0,,,60,0
7673,note_on,113,0,0,,,,,,,,,0,,,78,0
7680,note_on,13,0,1,,,,,,,,,0,,,59,80
7680,note_on,7,0,0,,,,,,,,,0,,,79,80
7907,note_on,227,0,1,,,,,,,,,0,,,59,0
7907,note_on,227,0,0,,,,,,,,,0,,,79,0
7920,note_on,13,0,1,,,,,,,,,0,,,57,80
7920,note_on,13,0,0,,,,,,,,,0,,,66,80
8033,note_on,113,0,0,,,,,,,,,0,,,66,0
8040,note_on,7,0,0,,,,,,,,,0,,,72,80
8147,note_on,227,0,1,,,,,,,,,0,,,57,0
8153,note_on,113,0,0,,,,,,,,,0,,,72,0
8160,note_on,13,0,1,,,,,,,,,0,,,50,80
8160,note_on,7,0,0,,,,,,,,,0,,,71,80
8273,note_on,113,0,0,,,,,,,,,0,,,71,0
8280,note_on,7,0,0,,,,,,,,,0,,,69,80
8387,note_on,227,0,1,,,,,,,,,0,,,50,0
8393,note_on,113,0,0,,,,,,,,,0,,,69,0
8400,note_on,7,0,0,,,,,,,,,0,,,71,80
8400,note_on,13,0,1,,,,,,,,,0,,,55,80
8627,note_on,227,0,1,,,,,,,,,0,,,55,0
8627,note_on,227,0,0,,,,,,,,,0,,,71,0
8640,note_on,13,0,1,,,,,,,,,0,,,48,80
8640,note_on,13,0,0,,,,,,,,,0,,,76,80
9095,note_on,455,0,1,,,,,,,,,0,,,48,0
9095,note_on,455,0,0,,,,,,,,,0,,,76,0
9360,note_on,265,0,0,,,,,,,,,0,,,66,80
9360,note_on,265,0,1,,,,,,,,,0,,,50,80
9415,note_on,55,0,0,,,,,,,,,0,,,66,0
9419,note_on,4,0,0,,,,,,,,,0,,,67,80
9474,note_on,55,0,0,,,,,,,,,0,,,67,0
9479,note_on,5,0,0,,,,,,,,,0,,,66,80
9534,note_on,55,0,0,,,,,,,,,0,,,66,0
9540,note_on,6,0,0,,,,,,,,,0,,,67,80
9595,note_on,55,0,0,,,,,,,,,0,,,67,0
9599,note_on,4,0,0,,,,,,,,,0,,,66,80
9654,note_on,55,0,0,,,,,,,,,0,,,66,0
9659,note_on,5,0,0,,,,,,,,,0,,,67,80
9714,note_on,55,0,0,,,,,,,,,0,,,67,0
9720,note_on,6,0,0,,,,,,,,,0,,,64,80
9815,note_on,455,0,1,,,,,,,,,0,,,50,0
9833,note_on,113,0,0,,,,,,,,,0,,,64,0
9840,note_on,7,0,0,,,,,,,,,0,,,62,80
10067,note_on,227,0,0,,,,,,,,,0,,,62,0
10080,note_on,265,0,1,,,,,,,,,0,,,55,80
10080,note_on,13,0,0,,,,,,,,,0,,,72,80
10155,note_on,75,0,0,,,,,,,,,0,,,72,0
10160,note_on,5,0,0,,,,,,,,,0,,,71,80
10235,note_on,75,0,0,,,,,,,,,0,,,71,0
10240,note_on,5,0,0,,,,,,,,,0,,,69,80
10307,note_on,227,0,1,,,,,,,,,0,,,55,0
10315,note_on,75,0,0,,,,,,,,,0,,,69,0
10320,note_on,5,0,0,,,,,,,,,0,,,69,80
10320,note_on,13,0,1,,,,,,,,,0,,,50,80
10375,note_on,55,0,0,,,,,,,,,0,,,69,0
10379,note_on,4,0,0,,,,,,,,,0,,,71,80
10434,note_on,55,0,0,,,,,,,,,0,,,71,0
10439,note_on,5,0,0,,,,,,,,,0,,,69,80
10494,note_on,55,0,0,,,,,,,,,0,,,69,0
10500,note_on,6,0,0,,,,,,,,,0,,,71,80
10547,note_on,227,0,1,,,,,,,,,0,,,50,0
10555,note_on,55,0,0,,,,,,,,,0,,,71,0
10559,note_on,4,0,0,,,,,,,,,0,,,69,80
10560,note_on,13,0,1,,,,,,,,,0,,,38,80
10614,note_on,55,0,0,,,,,,,,,0,,,69,0
10619,note_on,5,0,0,,,,,,,,,0,,,71,80
10674,note_on,55,0,0,,,,,,,,,0,,,71,0
10680,note_on,6,0,0,,,,,,,,,0,,,67,80
10787,note_on,227,0,1,,,,,,,,,0,,,38,0
10793,note_on,113,0,0,,,,,,,,,0,,,67,0
10800,note_on,7,0,0,,,,,,,,,0,,,67,80
10800,note_on,13,0,1,,,,,,,,,0,,,43,80
11483,note_on,683,0,0,,,,,,,,,0,,,67,0
11483,note_on,683,0,1,,,,,,,,,0,,,43,0
11520,note_on,0,0,0,,,,,,,,,0,,,71,80
11520,set_tempo,0,1,0,,,,,,500000,,,,,,,
11520,key_signature,37,1,1,,,,,G,,,,,,,,
11520,key_signature,0,1,0,,,,,G,,,,,,,,
11520,time_signature,37,1,0,3,8,24,8,,,,,,,,,
11520,note_on,0,0,1,,,,,,,,,0,,,43,80
11747,note_on,227,0,1,,,,,,,,,0,,,43,0
11760,note_on,13,0,1,,,,,,,,,0,,,47,80
11975,note_on,455,0,0,,,,,,,,,0,,,71,0
11987,note_on,227,0,1,,,,,,,,,0,,,47,0
12000,note_on,13,0,1,,,,,,,,,0,,,43,80
12227,note_on,227,0,1,,,,,,,,,0,,,43,0
12240,note_on,265,0,0,,,,,,,,,0,,,69,80
12240,note_on,13,0,1,,,,,,,,,0,,,50,80
12353,note_on,113,0,0,,,,,,,,,0,,,69,0
12360,note_on,7,0,0,,,,,,,,,0,,,72,80
12467,note_on,227,0,1,,,,,,,,,0,,,50,0
12473,note_on,113,0,0,,,,,,,,,0,,,72,0
12480,note_on,7,0,0,,,,,,,,,0,,,71,80
12480,note_on,13,0,1,,,,,,,,,0,,,47,80
12593,note_on,113,0,0,,,,,,,,,0,,,71,0
12600,note_on,7,0,0,,,,,,,,,0,,,69,80
12707,note_on,227,0,1,,,,,,,,,0,,,47,0
12713,note_on,113,0,0,,,,,,,,,0,,,69,0
12720,note_on,7,0,0,,,,,,,,,0,,,67,80
12720,note_on,13,0,1,,,,,,,,,0,,,52,80
12947,note_on,227,0,0,,,,,,,,,0,,,67,0
12947,note_on,227,0,1,,,,,,,,,0,,,52,0
12960,note_on,13,0,0,,,,,,,,,0,,,72,80
12960,note_on,13,0,1,,,,,,,,,0,,,48,80
13187,note_on,227,0,1,,,,,,,,,0,,,48,0
13187,note_on,227,0,0,,,,,,,,,0,,,72,0
13200,note_on,13,0,0,,,,,,,,,0,,,69,80
13200,note_on,13,0,1,,,,,,,,,0,,,50,80
13255,note_on,55,0,0,,,,,,,,,0,,,69,0
13259,note_on,4,0,0,,,,,,,,,0,,,71,80
13314,note_on,55,0,0,,,,,,,,,0,,,71,0
13319,note_on,5,0,0,,,,,,,,,0,,,69,80
13374,note_on,55,0,0,,,,,,,,,0,,,69,0
13380,note_on,6,0,0,,,,,,,,,0,,,71,80
13427,note_on,227,0,1,,,,,,,,,0,,,50,0
13435,note_on,55,0,0,,,,,,,,,0,,,71,0
13439,note_on,4,0,0,,,,,,,,,0,,,69,80
13440,note_on,13,0,1,,,,,,,,,0,,,38,80
13494,note_on,55,0,0,,,,,,,,,0,,,69,0
13499,note_on,5,0,0,,,,,,,,,0,,,71,80
13554,note_on,55,0,0,,,,,,,,,0,,,71,0
13560,note_on,6,0,0,,,,,,,,,0,,,67,80
13616,note_on,56,0,0,,,,,,,,,0,,,67,0
13620,note_on,4,0,0,,,,,,,,,0,,,69,80
13667,note_on,227,0,1,,,,,,,,,0,,,38,0
13676,note_on,56,0,0,,,,,,,,,0,,,69,0
13680,note_on,13,0,1,,,,,,,,,0,,,43,80
13680,note_on,4,0,0,,,,,,,,,0,,,71,80
14135,note_on,455,0,0,,,,,,,,,0,,,71,0
14135,note_on,455,0,1,,,,,,,,,0,,,43,0
14400,note_on,265,0,0,,,,,,,,,0,,,76,80
14400,note_on,265,0,1,,,,,,,,,0,,,60,80
14627,note_on,227,0,1,,,,,,,,,0,,,60,0
14627,note_on,227,0,0,,,,,,,,,0,,,76,0
14640,note_on,13,0,0,,,,,,,,,0,,,72,80
14640,note_on,13,0,1,,,,,,,,,0,,,57,80
14695,note_on,55,0,0,,,,,,,,,0,,,72,0
14699,note_on,4,0,0,,,,,,,,,0,,,74,80
14754,note_on,55,0,0,,,,,,,,,0,,,74,0
14759,note_on,5,0,0,,,,,,,,,0,,,72,80
14814,note_on,55,0,0,,,,,,,,,0,,,72,0
14820,note_on,6,0,0,,,,,,,,,0,,,74,80
14867,note_on,227,0,1,,,,,,,,,0,,,57,0
14875,note_on,55,0,0,,,,,,,,,0,,,74,0
14879,note_on,4,0,0,,,,,,,,,0,,,72,80
14934,note_on,55,0,0,,,,,,,,,0,,,72,0
14939,note_on,5,0,0,,,,,,,,,0,,,74,80
14994,note_on,55,0,0,,,,,,,,,0,,,74,0
15000,note_on,6,0,0,,,,,,,,,0,,,71,80
15056,note_on,56,0,0,,,,,,,,,0,,,71,0
15060,note_on,4,0,0,,,,,,,,,0,,,72,80
15116,note_on,56,0,0,,,,,,,,,0,,,72,0
15120,note_on,253,0,1,,,,,,,,,0,,,59,80
15120,note_on,4,0,0,,,,,,,,,0,,,79,80
15347,note_on,227,0,1,,,,,,,,,0,,,59,0
15347,note_on,227,0,0,,,,,,,,,0,,,79,0
15360,note_on,13,0,1,,,,,,,,,0,,,54,80
15360,note_on,13,0,0,,,,,,,,,0,,,78,80
15473,note_on,113,0,0,,,,,,,,,0,,,78,0
15480,note_on,7,0,0,,,,,,,,,0,,,76,80
15587,note_on,227,0,1,,,,,,,,,0,,,54,0
15593,note_on,113,0,0,,,,,,,,,0,,,76,0
15600,note_on,7,0,0,,,,,,,,,0,,,74,80
15713,note_on,113,0,0,,,,,,,,,0,,,74,0
15720,note_on,7,0,0,,,,,,,,,0,,,72,80
15833,note_on,113,0,0,,,,,,,,,0,,,72,0
15840,note_on,7,0,0,,,,,,,,,0,,,71,80
15840,note_on,253,0,1,,,,,,,,,0,,,55,80
15953,note_on,113,0,0,,,,,,,,,0,,,71,0
15960,note_on,7,0,0,,,,,,,,,0,,,74,80
16067,note_on,227,0,1,,,,,,,,,0,,,55,0
16073,note_on,113,0,0,,,,,,,,,0,,,74,0
16080,note_on,7,0,0,,,,,,,,,0,,,72,80
16080,note_on,13,0,1,,,,,,,,,0,,,52,80
16193,note_on,113,0,0,,,,,,,,,0,,,72,0
16200,note_on,7,0,0,,,,,,,,,0,,,71,80
16307,note_on,227,0,1,,,,,,,,,0,,,52,0
16313,note_on,113,0,0,,,,,,,,,0,,,71,0
16320,note_on,7,0,0,,,,,,,,,0,,,69,80
16320,note_on,13,0,1,,,,,,,,,0,,,48,80
16433,note_on,113,0,0,,,,,,,,,0,,,69,0
16440,note_on,7,0,0,,,,,,,,,0,,,67,80
16547,note_on,227,0,1,,,,,,,,,0,,,48,0
16553,note_on,113,0,0,,,,,,,,,0,,,67,0
16560,note_on,13,0,1,,,,,,,,,0,,,50,80
16560,note_on,7,0,0,,,,,,,,,0,,,67,80
16615,note_on,55,0,0,,,,,,,,,0,,,67,0
16620,note_on,5,0,0,,,,,,,,,0,,,69,80
16675,note_on,55,0,0,,,,,,,,,0,,,69,0
16680,note_on,5,0,0,,,,,,,,,0,,,67,80
16735,note_on,55,0,0,,,,,,,,,0,,,67,0
16740,note_on,5,0,0,,,,,,,,,0,,,69,80
16795,note_on,55,0,0,,,,,,,,,0,,,69,0
16800,note_on,5,0,0,,,,,,,,,0,,,66,80
17015,note_on,455,0,1,,,,,,,,,0,,,50,0
17027,note_on,227,0,0,,,,,,,,,0,,,66,0
17280,note_on,265,0,1,,,,,,,,,0,,,57,80
17280,note_on,253,0,0,,,,,,,,,0,,,78,80
17393,note_on,113,0,0,,,,,,,,,0,,,78,0
17400,note_on,7,0,0,,,,,,,,,0,,,81,80
17507,note_on,227,0,1,,,,,,,,,0,,,57,0
17513,note_on,113,0,0,,,,,,,,,0,,,81,0
17520,note_on,7,0,0,,,,,,,,,0,,,79,80
17520,note_on,13,0,1,,,,,,,,,0,,,60,80
17633,note_on,113,0,0,,,,,,,,,0,,,79,0
17640,note_on,7,0,0,,,,,,,,,0,,,78,80
17747,note_on,227,0,1,,,,,,,,,0,,,60,0
17753,note_on,113,0,0,,,,,,,,,0,,,78,0
17760,note_on,7,0,0,,,,,,,,,0,,,79,80
17760,note_on,13,0,1,,,,,,,,,0,,,59,80
17987,note_on,227,0,0,,,,,,,,,0,,,79,0
17987,note_on,227,0,1,,,,,,,,,0,,,59,0
18000,note_on,13,0,0,,,,,,,,,0,,,66,80
18000,note_on,13,0,1,,,,,,,,,0,,,57,80
18113,note_on,113,0,0,,,,,,,,,0,,,66,0
18120,note_on,7,0,0,,,,,,,,,0,,,72,80
18227,note_on,227,0,1,,,,,,,,,0,,,57,0
18233,note_on,113,0,0,,,,,,,,,0,,,72,0
18240,note_on,13,0,1,,,,,,,,,0,,,50,80
18240,note_on,7,0,0,,,,,,,,,0,,,71,80
18353,note_on,113,0,0,,,,,,,,,0,,,71,0
18360,note_on,7,0,0,,,,,,,,,0,,,69,80
18467,note_on,227,0,1,,,,,,,,,0,,,50,0
18473,note_on,113,0,0,,,,,,,,,0,,,69,0
18480,note_on,13,0,1,,,,,,,,,0,,,55,80
18480,note_on,7,0,0,,,,,,,,,0,,,71,80
18707,note_on,227,0,0,,,,,,,,,0,,,71,0
18707,note_on,227,0,1,,,,,,,,,0,,,55,0
18720,note_on,13,0,0,,,,,,,,,0,,,78,80
18720,note_on,13,0,1,,,,,,,,,0,,,57,80
18833,note_on,113,0,0,,,,,,,,,0,,,78,0
18840,note_on,7,0,0,,,,,,,,,0,,,81,80
18947,note_on,227,0,1,,,,,,,,,0,,,57,0
18953,note_on,113,0,0,,,,,,,,,0,,,81,0
18960,note_on,13,0,1,,,,,,,,,0,,,60,80
18960,note_on,7,0,0,,,,,,,,,0,,,79,80
19073,note_on,113,0,0,,,,,,,,,0,,,79,0
19080,note_on,7,0,0,,,,,,,,,0,,,78,80
19187,note_on,227,0,1,,,,,,,,,0,,,60,0
19193,note_on,113,0,0,,,,,,,,,0,,,78,0
19200,note_on,7,0,0,,,,,,,,,0,,,79,80
19200,note_on,13,0,1,,,,,,,,,0,,,59,80
19427,note_on,227,0,1,,,,,,,,,0,,,59,0
19427,note_on,227,0,0,,,,,,,,,0,,,79,0
19440,note_on,13,0,0,,,,,,,,,0,,,66,80
19440,note_on,13,0,1,,,,,,,,,0,,,57,80
19553,note_on,113,0,0,,,,,,,,,0,,,66,0
19560,note_on,7,0,0,,,,,,,,,0,,,72,80
19667,note_on,227,0,1,,,,,,,,,0,,,57,0
19673,note_on,113,0,0,,,,,,,,,0,,,72,0
19680,note_on,7,0,0,,,,,,,,,0,,,71,80
19680,note_on,13,0,1,,,,,,,,,0,,,50,80
19793,note_on,113,0,0,,,,,,,,,0,,,71,0
19800,note_on,7,0,0,,,,,,,,,0,,,69,80
19907,note_on,227,0,1,,,,,,,,,0,,,50,0
19913,note_on,113,0,0,,,,,,,,,0,,,69,0
19920,note_on,13,0,1,,,,,,,,,0,,,55,80
19920,note_on,7,0,0,,,,,,,,,0,,,71,80
20147,note_on,227,0,0,,,,,,,,,0,,,71,0
20147,note_on,227,0,1,,,,,,,,,0,,,55,0
20160,note_on,13,0,1,,,,,,,,,0,,,48,80
20160,note_on,13,0,0,,,,,,,,,0,,,76,80
20615,note_on,455,0,1,,,,,,,,,0,,,48,0
20615,note_on,455,0,0,,,,,,,,,0,,,76,0
20880,note_on,265,0,0,,,,,,,,,0,,,66,80
20880,note_on,265,0,1,,,,,,,,,0,,,50,80
20935,note_on,55,0,0,,,,,,,,,0,,,66,0
20939,note_on,4,0,0,,,,,,,,,0,,,67,80
20994,note_on,55,0,0,,,,,,,,,0,,,67,0
20999,note_on,5,0,0,,,,,,,,,0,,,66,80
21054,note_on,55,0,0,,,,,,,,,0,,,66,0
21060,note_on,6,0,0,,,,,,,,,0,,,67,80
21115,note_on,55,0,0,,,,,,,,,0,,,67,0
21119,note_on,4,0,0,,,,,,,,,0,,,66,80
21174,note_on,55,0,0,,,,,,,,,0,,,66,0
21179,note_on,5,0,0,,,,,,,,,0,,,67,80
21234,note_on,55,0,0,,,,,,,,,0,,,67,0
21240,note_on,6,0,0,,,,,,,,,0,,,64,80
21335,note_on,455,0,1,,,,,,,,,0,,,50,0
21353,note_on,113,0,0,,,,,,,,,0,,,64,0
21360,note_on,7,0,0,,,,,,,,,0,,,62,80
21587,note_on,227,0,0,,,,,,,,,0,,,62,0
21600,note_on,13,0,0,,,,,,,,,0,,,72,80
21600,note_on,265,0,1,,,,,,,,,0,,,55,80
21675,note_on,75,0,0,,,,,,,,,0,,,72,0
21680,note_on,5,0,0,,,,,,,,,0,,,71,80
21755,note_on,75,0,0,,,,,,,,,0,,,71,0
21760,note_on,5,0,0,,,,,,,,,0,,,69,80
21827,note_on,227,0,1,,,,,,,,,0,,,55,0
21835,note_on,75,0,0,,,,,,,,,0,,,69,0
21840,note_on,5,0,0,,,,,,,,,0,,,69,80
21840,note_on,13,0,1,,,,,,,,,0,,,50,80
21895,note_on,55,0,0,,,,,,,,,0,,,69,0
21899,note_on,4,0,0,,,,,,,,,0,,,71,80
21954,note_on,55,0,0,,,,,,,,,0,,,71,0
21959,note_on,5,0,0,,,,,,,,,0,,,69,80
22014,note_on,55,0,0,,,,,,,,,0,,,69,0
22020,note_on,6,0,0,,,,,,,,,0,,,71,80
22067,note_on,227,0,1,,,,,,,,,0,,,50,0
22075,note_on,55,0,0,,,,,,,,,0,,,71,0
22079,note_on,4,0,0,,,,,,,,,0,,,69,80
22080,note_on,13,0,1,,,,,,,,,0,,,38,80
22134,note_on,55,0,0,,,,,,,,,0,,,69,0
22139,note_on,5,0,0,,,,,,,,,0,,,71,80
22194,note_on,55,0,0,,,,,,,,,0,,,71,0
22200,note_on,6,0,0,,,,,,,,,0,,,67,80
22307,note_on,227,0,1,,,,,,,,,0,,,38,0
22313,note_on,113,0,0,,,,,,,,,0,,,67,0
22320,note_on,13,0,1,,,,,,,,,0,,,43,80
22320,note_on,7,0,0,,,,,,,,,0,,,67,80
23003,note_on,683,0,0,,,,,,,,,0,,,67,0
23003,note_on,683,0,1,,,,,,,,,0,,,43,0
23040,note_on,37,0,0,,,,,,,,,0,,,71,80
23040,note_on,37,0,1,,,,,,,,,0,,,43,80
23495,note_on,455,0,0,,,,,,,,,0,,,71,0
23495,note_on,455,0,1,,,,,,,,,0,,,43,0
23760,note_on,265,0,0,,,,,,,,,0,,,74,80
23760,note_on,265,0,1,,,,,,,,,0,,,47,80
23987,note_on,227,0,0,,,,,,,,,0,,,74,0
24000,note_on,13,0,0,,,,,,,,,0,,,67,80
24215,note_on,455,0,1,,,,,,,,,0,,,47,0
24227,note_on,227,0,0,,,,,,,,,0,,,67,0
24240,note_on,13,0,0,,,,,,,,,0,,,66,80
24295,note_on,55,0,0,,,,,,,,,0,,,66,0
24300,note_on,5,0,0,,,,,,,,,0,,,67,80
24355,note_on,55,0,0,,,,,,,,,0,,,67,0
24360,note_on,5,0,0,,,,,,,,,0,,,66,80
24415,note_on,55,0,0,,,,,,,,,0,,,66,0
24420,note_on,5,0,0,,,,,,,,,0,,,67,80
24475,note_on,55,0,0,,,,,,,,,0,,,67,0
24480,note_on,265,0,1,,,,,,,,,0,,,48,80
24480,note_on,5,0,0,,,,,,,,,0,,,64,80
24593,note_on,113,0,0,,,,,,,,,0,,,64,0
24600,note_on,7,0,0,,,,,,,,,0,,,69,80
24713,note_on,113,0,0,,,,,,,,,0,,,69,0
24720,note_on,7,0,0,,,,,,,,,0,,,67,80
24935,note_on,455,0,1,,,,,,,,,0,,,48,0
24947,note_on,227,0,0,,,,,,,,,0,,,67,0
24960,note_on,25,0,1,,,,,,,,,0,,,50,80
24960,note_on,13,0,0,,,,,,,,,0,,,66,80
25187,note_on,227,0,0,,,,,,,,,0,,,66,0
25187,note_on,227,0,1,,,,,,,,,0,,,50,0
25200,note_on,13,0,0,,,,,,,,,0,,,67,80
25200,note_on,13,0,1,,,,,,,,,0,,,52,80
25313,note_on,113,0,0,,,,,,,,,0,,,67,0
25320,note_on,7,0,0,,,,,,,,,0,,,72,80
25433,note_on,113,0,0,,,,,,,,,0,,,72,0
25440,note_on,7,0,0,,,,,,,,,0,,,71,80
25655,note_on,455,0,1,,,,,,,,,0,,,52,0
25667,note_on,227,0,0,,,,,,,,,0,,,71,0
25680,note_on,25,0,1,,,,,,,,,0,,,54,80
25680,note_on,13,0,0,,,,,,,,,0,,,69,80
25907,note_on,227,0,0,,,,,,,,,0,,,69,0
25907,note_on,227,0,1,,,,,,,,,0,,,54,0
25920,note_on,13,0,0,,,,,,,,,0,,,71,80
25920,note_on,13,0,1,,,,,,,,,0,,,55,80
26033,note_on,113,0,0,,,,,,,,,0,,,71,0
26040,note_on,7,0,0,,,,,,,,,0,,,76,80
26153,note_on,113,0,0,,,,,,,,,0,,,76,0
26160,note_on,7,0,0,,,,,,,,,0,,,74,80
26375,note_on,455,0,1,,,,,,,,,0,,,55,0
26387,note_on,227,0,0,,,,,,,,,0,,,74,0
26400,note_on,25,0,1,,,,,,,,,0,,,57,80
26400,note_on,13,0,0,,,,,,,,,0,,,72,80
26627,note_on,227,0,1,,,,,,,,,0,,,57,0
26627,note_on,227,0,0,,,,,,,,,0,,,72,0
26640,note_on,13,0,0,,,,,,,,,0,,,74,80
26640,note_on,13,0,1,,,,,,,,,0,,,59,80
26867,note_on,227,0,0,,,,,,,,,0,,,74,0
26880,note_on,13,0,0,,,,,,,,,0,,,67,80
26993,note_on,113,0,0,,,,,,,,,0,,,67,0
27000,note_on,7,0,0,,,,,,,,,0,,,71,80
27095,note_on,455,0,1,,,,,,,,,0,,,59,0
27113,note_on,113,0,0,,,,,,,,,0,,,71,0
27120,note_on,7,0,0,,,,,,,,,0,,,69,80
27233,note_on,113,0,0,,,,,,,,,0,,,69,0
27240,note_on,7,0,0,,,,,,,,,0,,,67,80
27353,note_on,113,0,0,,,,,,,,,0,,,67,0
27360,note_on,7,0,0,,,,,,,,,0,,,76,80
27360,note_on,265,0,1,,,,,,,,,0,,,60,80
27587,note_on,227,0,0,,,,,,,,,0,,,76,0
27600,note_on,13,0,0,,,,,,,,,0,,,67,80
27713,note_on,113,0,0,,,,,,,,,0,,,67,0
27720,note_on,7,0,0,,,,,,,,,0,,,71,80
27815,note_on,455,0,1,,,,,,,,,0,,,60,0
27833,note_on,113,0,0,,,,,,,,,0,,,71,0
27840,note_on,7,0,0,,,,,,,,,0,,,69,80
27953,note_on,113,0,0,,,,,,,,,0,,,69,0
27960,note_on,7,0,0,,,,,,,,,0,,,67,80
28073,note_on,113,0,0,,,,,,,,,0,,,67,0
28080,note_on,7,0,0,,,,,,,,,0,,,74,80
28080,note_on,265,0,1,,,,,,,,,0,,,59,80
28307,note_on,227,0,0,,,,,,,,,0,,,74,0
28320,note_on,13,0,0,,,,,,,,,0,,,67,80
28433,note_on,113,0,0,,,,,,,,,0,,,67,0
28440,note_on,7,0,0,,,,,,,,,0,,,71,80
28535,note_on,455,0,1,,,,,,,,,0,,,59,0
28553,note_on,113,0,0,,,,,,,,,0,,,71,0
28560,note_on,7,0,0,,,,,,,,,0,,,69,80
28673,note_on,113,0,0,,,,,,,,,0,,,69,0
28680,note_on,7,0,0,,,,,,,,,0,,,67,80
28793,note_on,113,0,0,,,,,,,,,0,,,67,0
28800,note_on,265,0,1,,,,,,,,,0,,,60,80
28800,note_on,7,0,0,,,,,,,,,0,,,76,80
29027,note_on,227,0,0,,,,,,,,,0,,,76,0
29040,note_on,13,0,0,,,,,,,,,0,,,67,80
29153,note_on,113,0,0,,,,,,,,,0,,,67,0
29160,note_on,7,0,0,,,,,,,,,0,,,71,80
29255,note_on,455,0,1,,,,,,,,,0,,,60,0
29273,note_on,113,0,0,,,,,,,,,0,,,71,0
29280,note_on,7,0,0,,,,,,,,,0,,,69,80
29393,note_on,113,0,0,,,,,,,,,0,,,69,0
29400,note_on,7,0,0,,,,,,,,,0,,,67,80
29513,note_on,113,0,0,,,,,,,,,0,,,67,0
29520,note_on,265,0,1,,,,,,,,,0,,,59,80
29520,note_on,7,0,0,,,,,,,,,0,,,74,80
29747,note_on,227,0,1,,,,,,,,,0,,,59,0
29747,note_on,227,0,0,,,,,,,,,0,,,74,0
29760,note_on,13,0,0,,,,,,,,,0,,,72,80
29760,note_on,13,0,1,,,,,,,,,0,,,47,80
29873,note_on,113,0,0,,,,,,,,,0,,,72,0
29880,note_on,7,0,0,,,,,,,,,0,,,71,80
29987,note_on,227,0,1,,,,,,,,,0,,,47,0
29993,note_on,113,0,0,,,,,,,,,0,,,71,0
30000,note_on,13,0,1,,,,,,,,,0,,,48,80
30000,note_on,7,0,0,,,,,,,,,0,,,69,80
30113,note_on,113,0,0,,,,,,,,,0,,,69,0
30120,note_on,7,0,0,,,,,,,,,0,,,67,80
30227,note_on,227,0,1,,,,,,,,,0,,,48,0
30233,note_on,113,0,0,,,,,,,,,0,,,67,0
30240,note_on,13,0,1,,,,,,,,,0,,,50,80
30240,note_on,7,0,0,,,,,,,,,0,,,66,80
30267,note_on,27,0,0,,,,,,,,,0,,,66,0
30270,note_on,3,0,0,,,,,,,,,0,,,67,80
30297,note_on,27,0,0,,,,,,,,,0,,,67,0
30300,note_on,3,0,0,,,,,,,,,0,,,66,80
30327,note_on,27,0,0,,,,,,,,,0,,,66,0
30330,note_on,3,0,0,,,,,,,,,0,,,67,80
30357,note_on,27,0,0,,,,,,,,,0,,,67,0
30360,note_on,3,0,0,,,,,,,,,0,,,64,80
30467,note_on,227,0,1,,,,,,,,,0,,,50,0
30473,note_on,113,0,0,,,,,,,,,0,,,64,0
30480,note_on,13,0,1,,,,,,,,,0,,,38,80
30480,note_on,7,0,0,,,,,,,,,0,,,62,80
30707,note_on,227,0,0,,,,,,,,,0,,,62,0
30707,note_on,227,0,1,,,,,,,,,0,,,38,0
30960,note_on,253,0,0,,,,,,,,,0,,,71,80
30960,note_on,253,0,1,,,,,,,,,0,,,55,80
31187,note_on,227,0,0,,,,,,,,,0,,,71,0
31187,note_on,227,0,1,,,,,,,,,0,,,55,0
31200,note_on,13,0,1,,,,,,,,,0,,,60,80
31200,note_on,13,0,0,,,,,,,,,0,,,76,80
31427,note_on,227,0,0,,,,,,,,,0,,,76,0
31427,note_on,227,0,1,,,,,,,,,0,,,60,0
31440,note_on,13,0,0,,,,,,,,,0,,,74,80
31440,note_on,13,0,1,,,,,,,,,0,,,59,80
31667,note_on,227,0,1,,,,,,,,,0,,,59,0
31667,note_on,227,0,0,,,,,,,,,0,,,74,0
31680,note_on,13,0,0,,,,,,,,,0,,,72,80
31680,note_on,13,0,1,,,,,,,,,0,,,57,80
31907,note_on,227,0,0,,,,,,,,,0,,,72,0
31907,note_on,227,0,1,,,,,,,,,0,,,57,0
31920,note_on,13,0,1,,,,,,,,,0,,,50,80
31920,note_on,13,0,0,,,,,,,,,0,,,71,80
32147,note_on,227,0,1,,,,,,,,,0,,,50,0
32147,note_on,227,0,0,,,,,,,,,0,,,71,0
32160,note_on,13,0,1,,,,,,,,,0,,,48,80
32160,note_on,13,0,0,,,,,,,,,0,,,69,80
32387,note_on,227,0,0,,,,,,,,,0,,,69,0
32387,note_on,227,0,1,,,,,,,,,0,,,48,0
32400,note_on,13,0,0,,,,,,,,,0,,,71,80
32400,note_on,13,0,1,,,,,,,,,0,,,47,80
32570,note_on,170,0,0,,,,,,,,,0,,,71,0
32580,note_on,10,0,0,,,,,,,,,0,,,72,80
32636,note_on,56,0,0,,,,,,,,,0,,,72,0
32640,note_on,4,0,0,,,,,,,,,0,,,74,80
32741,note_on,341,0,1,,,,,,,,,0,,,47,0
32760,note_on,19,0,1,,,,,,,,,0,,,50,80
32810,note_on,170,0,0,,,,,,,,,0,,,74,0
32820,note_on,10,0,0,,,,,,,,,0,,,66,80
32873,note_on,113,0,1,,,,,,,,,0,,,50,0
32876,note_on,56,0,0,,,,,,,,,0,,,66,0
32880,note_on,7,0,1,,,,,,,,,0,,,52,80
32880,note_on,4,0,0,,,,,,,,,0,,,67,80
33107,note_on,227,0,1,,,,,,,,,0,,,52,0
33120,note_on,13,0,1,,,,,,,,,0,,,48,80
33221,note_on,341,0,0,,,,,,,,,0,,,67,0
33240,note_on,19,0,0,,,,,,,,,0,,,72,80
33347,note_on,227,0,1,,,,,,,,,0,,,48,0
33353,note_on,113,0,0,,,,,,,,,0,,,72,0
33360,note_on,13,0,1,,,,,,,,,0,,,50,80
33360,note_on,7,0,0,,,,,,,,,0,,,69,80
33415,note_on,55,0,0,,,,,,,,,0,,,69,0
33420,note_on,5,0,0,,,,,,,,,0,,,71,80
33475,note_on,55,0,0,,,,,,,,,0,,,71,0
33480,note_on,5,0,0,,,,,,,,,0,,,69,80
33535,note_on,55,0,0,,,,,,,,,0,,,69,0
33540,note_on,5,0,0,,,,,,,,,0,,,71,80
33587,note_on,227,0,1,,,,,,,,,0,,,50,0
33595,note_on,55,0,0,,,,,,,,,0,,,71,0
33600,note_on,5,0,0,,,,,,,,,0,,,69,80
33600,note_on,13,0,1,,,,,,,,,0,,,38,80
33655,note_on,55,0,0,,,,,,,,,0,,,69,0
33660,note_on,5,0,0,,,,,,,,,0,,,71,80
33715,note_on,55,0,0,,,,,,,,,0,,,71,0
33720,note_on,5,0,0,,,,,,,,,0,,,69,80
33775,note_on,55,0,0,,,,,,,,,0,,,69,0
33780,note_on,5,0,0,,,,,,,,,0,,,71,80
33827,note_on,227,0,1,,,,,,,,,0,,,38,0
33835,note_on,55,0,0,,,,,,,,,0,,,71,0
33840,note_on,5,0,0,,,,,,,,,0,,,67,80
33840,note_on,13,0,1,,,,,,,,,0,,,43,80
34523,note_on,683,0,1,,,,,,,,,0,,,43,0
34523,note_on,683,0,0,,,,,,,,,0,,,67,0
34560,key_signature,0,1,0,,,,,G,,,,,,,,
34560,key_signature,37,1,1,,,,,G,,,,,,,,
34560,set_tempo,0,1,0,,,,,,500000,,,,,,,
34560,note_on,0,0,0,,,,,,,,,0,,,71,80
34560,time_signature,37,1,0,3,8,24,8,,,,,,,,,
34560,note_on,0,0,1,,,,,,,,,0,,,43,80
34787,note_on,227,0,1,,,,,,,,,0,,,43,0
34800,note_on,13,0,1,,,,,,,,,0,,,47,80
35015,note_on,455,0,0,,,,,,,,,0,,,71,0
35027,note_on,227,0,1,,,,,,,,,0,,,47,0
35040,note_on,13,0,1,,,,,,,,,0,,,43,80
35267,note_on,227,0,1,,,,,,,,,0,,,43,0
35280,note_on,265,0,0,,,,,,,,,0,,,69,80
35280,note_on,13,0,1,,,,,,,,,0,,,50,80
35393,note_on,113,0,0,,,,,,,,,0,,,69,0
35400,note_on,7,0,0,,,,,,,,,0,,,72,80
35507,note_on,227,0,1,,,,,,,,,0,,,50,0
35513,note_on,113,0,0,,,,,,,,,0,,,72,0
35520,note_on,7,0,0,,,,,,,,,0,,,71,80
35520,note_on,13,0,1,,,,,,,,,0,,,47,80
35633,note_on,113,0,0,,,,,,,,,0,,,71,0
35640,note_on,7,0,0,,,,,,,,,0,,,69,80
35747,note_on,227,0,1,,,,,,,,,0,,,47,0
35753,note_on,113,0,0,,,,,,,,,0,,,69,0
35760,note_on,13,0,1,,,,,,,,,0,,,52,80
35760,note_on,7,0,0,,,,,,,,,0,,,67,80
35987,note_on,227,0,0,,,,,,,,,0,,,67,0
35987,note_on,227,0,1,,,,,,,,,0,,,52,0
36000,note_on,13,0,1,,,,,,,,,0,,,48,80
36000,note_on,13,0,0,,,,,,,,,0,,,72,80
36227,note_on,227,0,0,,,,,,,,,0,,,72,0
36227,note_on,227,0,1,,,,,,,,,0,,,48,0
36240,note_on,13,0,0,,,,,,,,,0,,,69,80
36240,note_on,13,0,1,,,,,,,,,0,,,50,80
36295,note_on,55,0,0,,,,,,,,,0,,,69,0
36299,note_on,4,0,0,,,,,,,,,0,,,71,80
36354,note_on,55,0,0,,,,,,,,,0,,,71,0
36359,note_on,5,0,0,,,,,,,,,0,,,69,80
36414,note_on,55,0,0,,,,,,,,,0,,,69,0
36420,note_on,6,0,0,,,,,,,,,0,,,71,80
36467,note_on,227,0,1,,,,,,,,,0,,,50,0
36475,note_on,55,0,0,,,,,,,,,0,,,71,0
36479,note_on,4,0,0,,,,,,,,,0,,,69,80
36480,note_on,13,0,1,,,,,,,,,0,,,38,80
36534,note_on,55,0,0,,,,,,,,,0,,,69,0
36539,note_on,5,0,0,,,,,,,,,0,,,71,80
36594,note_on,55,0,0,,,,,,,,,0,,,71,0
36600,note_on,6,0,0,,,,,,,,,0,,,67,80
36656,note_on,56,0,0,,,,,,,,,0,,,67,0
36660,note_on,4,0,0,,,,,,,,,0,,,69,80
36707,note_on,227,0,1,,,,,,,,,0,,,38,0
36716,note_on,56,0,0,,,,,,,,,0,,,69,0
36720,note_on,4,0,0,,,,,,,,,0,,,71,80
36720,note_on,13,0,1,,,,,,,,,0,,,43,80
37175,note_on,455,0,1,,,,,,,,,0,,,43,0
37175,note_on,455,0,0,,,,,,,,,0,,,71,0
37440,note_on,265,0,1,,,,,,,,,0,,,60,80
37440,note_on,265,0,0,,,,,,,,,0,,,76,80
37667,note_on,227,0,1,,,,,,,,,0,,,60,0
37667,note_on,227,0,0,,,,,,,,,0,,,76,0
37680,note_on,13,0,1,,,,,,,,,0,,,57,80
37680,note_on,13,0,0,,,,,,,,,0,,,72,80
37735,note_on,55,0,0,,,,,,,,,0,,,72,0
37739,note_on,4,0,0,,,,,,,,,0,,,74,80
37794,note_on,55,0,0,,,,,,,,,0,,,74,0
37799,note_on,5,0,0,,,,,,,,,0,,,72,80
37854,note_on,55,0,0,,,,,,,,,0,,,72,0
37860,note_on,6,0,0,,,,,,,,,0,,,74,80
37907,note_on,227,0,1,,,,,,,,,0,,,57,0
37915,note_on,55,0,0,,,,,,,,,0,,,74,0
37919,note_on,4,0,0,,,,,,,,,0,,,72,80
37974,note_on,55,0,0,,,,,,,,,0,,,72,0
37979,note_on,5,0,0,,,,,,,,,0,,,74,80
38034,note_on,55,0,0,,,,,,,,,0,,,74,0
38040,note_on,6,0,0,,,,,,,,,0,,,71,80
38096,note_on,56,0,0,,,,,,,,,0,,,71,0
38100,note_on,4,0,0,,,,,,,,,0,,,72,80
38156,note_on,56,0,0,,,,,,,,,0,,,72,0
38160,note_on,4,0,0,,,,,,,,,0,,,79,80
38160,note_on,253,0,1,,,,,,,,,0,,,59,80
38387,note_on,227,0,0,,,,,,,,,0,,,79,0
38387,note_on,227,0,1,,,,,,,,,0,,,59,0
38400,note_on,13,0,0,,,,,,,,,0,,,78,80
38400,note_on,13,0,1,,,,,,,,,0,,,54,80
38513,note_on,113,0,0,,,,,,,,,0,,,78,0
38520,note_on,7,0,0,,,,,,,,,0,,,76,80
38627,note_on,227,0,1,,,,,,,,,0,,,54,0
38633,note_on,113,0,0,,,,,,,,,0,,,76,0
38640,note_on,7,0,0,,,,,,,,,0,,,74,80
38753,note_on,113,0,0,,,,,,,,,0,,,74,0
38760,note_on,7,0,0,,,,,,,,,0,,,72,80
38873,note_on,113,0,0,,,,,,,,,0,,,72,0
38880,note_on,7,0,0,,,,,,,,,0,,,71,80
38880,note_on,253,0,1,,,,,,,,,0,,,55,80
38993,note_on,113,0,0,,,,,,,,,0,,,71,0
39000,note_on,7,0,0,,,,,,,,,0,,,74,80
39107,note_on,227,0,1,,,,,,,,,0,,,55,0
39113,note_on,113,0,0,,,,,,,,,0,,,74,0
39120,note_on,13,0,1,,,,,,,,,0,,,52,80
39120,note_on,7,0,0,,,,,,,,,0,,,72,80
39233,note_on,113,0,0,,,,,,,,,0,,,72,0
39240,note_on,7,0,0,,,,,,,,,0,,,71,80
39347,note_on,227,0,1,,,,,,,,,0,,,52,0
39353,note_on,113,0,0,,,,,,,,,0,,,71,0
39360,note_on,7,0,0,,,,,,,,,0,,,69,80
39360,note_on,13,0,1,,,,,,,,,0,,,48,80
39473,note_on,113,0,0,,,,,,,,,0,,,69,0
39480,note_on,7,0,0,,,,,,,,,0,,,67,80
39587,note_on,227,0,1,,,,,,,,,0,,,48,0
39593,note_on,113,0,0,,,,,,,,,0,,,67,0
39600,note_on,13,0,1,,,,,,,,,0,,,50,80
39600,note_on,7,0,0,,,,,,,,,0,,,67,80
39655,note_on,55,0,0,,,,,,,,,0,,,67,0
39660,note_on,5,0,0,,,,,,,,,0,,,69,80
39715,note_on,55,0,0,,,,,,,,,0,,,69,0
39720,note_on,5,0,0,,,,,,,,,0,,,67,80
39775,note_on,55,0,0,,,,,,,,,0,,,67,0
39780,note_on,5,0,0,,,,,,,,,0,,,69,80
39835,note_on,55,0,0,,,,,,,,,0,,,69,0
39840,note_on,5,0,0,,,,,,,,,0,,,66,80
40055,note_on,455,0,1,,,,,,,,,0,,,50,0
40067,note_on,227,0,0,,,,,,,,,0,,,66,0
40320,note_on,265,0,1,,,,,,,,,0,,,57,80
40320,note_on,253,0,0,,,,,,,,,0,,,78,80
40433,note_on,113,0,0,,,,,,,,,0,,,78,0
40440,note_on,7,0,0,,,,,,,,,0,,,81,80
40547,note_on,227,0,1,,,,,,,,,0,,,57,0
40553,note_on,113,0,0,,,,,,,,,0,,,81,0
40560,note_on,13,0,1,,,,,,,,,0,,,60,80
40560,note_on,7,0,0,,,,,,,,,0,,,79,80
40673,note_on,113,0,0,,,,,,,,,0,,,79,0
40680,note_on,7,0,0,,,,,,,,,0,,,78,80
40787,note_on,227,0,1,,,,,,,,,0,,,60,0
40793,note_on,113,0,0,,,,,,,,,0,,,78,0
40800,note_on,7,0,0,,,,,,,,,0,,,79,80
40800,note_on,13,0,1,,,,,,,,,0,,,59,80
41027,note_on,227,0,0,,,,,,,,,0,,,79,0
41027,note_on,227,0,1,,,,,,,,,0,,,59,0
41040,note_on,13,0,0,,,,,,,,,0,,,66,80
41040,note_on,13,0,1,,,,,,,,,0,,,57,80
41153,note_on,113,0,0,,,,,,,,,0,,,66,0
41160,note_on,7,0,0,,,,,,,,,0,,,72,80
41267,note_on,227,0,1,,,,,,,,,0,,,57,0
41273,note_on,113,0,0,,,,,,,,,0,,,72,0
41280,note_on,13,0,1,,,,,,,,,0,,,50,80
41280,note_on,7,0,0,,,,,,,,,0,,,71,80
41393,note_on,113,0,0,,,,,,,,,0,,,71,0
41400,note_on,7,0,0,,,,,,,,,0,,,69,80
41507,note_on,227,0,1,,,,,,,,,0,,,50,0
41513,note_on,113,0,0,,,,,,,,,0,,,69,0
41520,note_on,13,0,1,,,,,,,,,0,,,55,80
41520,note_on,7,0,0,,,,,,,,,0,,,71,80
41747,note_on,227,0,0,,,,,,,,,0,,,71,0
41747,note_on,227,0,1,,,,,,,,,0,,,55,0
41760,note_on,13,0,0,,,,,,,,,0,,,78,80
41760,note_on,13,0,1,,,,,,,,,0,,,57,80
41873,note_on,113,0,0,,,,,,,,,0,,,78,0
41880,note_on,7,0,0,,,,,,,,,0,,,81,80
41987,note_on,227,0,1,,,,,,,,,0,,,57,0
41993,note_on,113,0,0,,,,,,,,,0,,,81,0
42000,note_on,7,0,0,,,,,,,,,0,,,79,80
42000,note_on,13,0,1,,,,,,,,,0,,,60,80
42113,note_on,113,0,0,,,,,,,,,0,,,79,0
42120,note_on,7,0,0,,,,,,,,,0,,,78,80
42227,note_on,227,0,1,,,,,,,,,0,,,60,0
42233,note_on,113,0,0,,,,,,,,,0,,,78,0
42240,note_on,13,0,1,,,,,,,,,0,,,59,80
42240,note_on,7,0,0,,,,,,,,,0,,,79,80
42467,note_on,227,0,0,,,,,,,,,0,,,79,0
42467,note_on,227,0,1,,,,,,,,,0,,,59,0
42480,note_on,13,0,0,,,,,,,,,0,,,66,80
42480,note_on,13,0,1,,,,,,,,,0,,,57,80
42593,note_on,113,0,0,,,,,,,,,0,,,66,0
42600,note_on,7,0,0,,,,,,,,,0,,,72,80
42707,note_on,227,0,1,,,,,,,,,0,,,57,0
42713,note_on,113,0,0,,,,,,,,,0,,,72,0
42720,note_on,13,0,1,,,,,,,,,0,,,50,80
42720,note_on,7,0,0,,,,,,,,,0,,,71,80
42833,note_on,113,0,0,,,,,,,,,0,,,71,0
42840,note_on,7,0,0,,,,,,,,,0,,,69,80
42947,note_on,227,0,1,,,,,,,,,0,,,50,0
42953,note_on,113,0,0,,,,,,,,,0,,,69,0
42960,note_on,7,0,0,,,,,,,,,0,,,71,80
42960,note_on,13,0,1,,,,,,,,,0,,,55,80
43187,note_on,227,0,1,,,,,,,,,0,,,55,0
43187,note_on,227,0,0,,,,,,,,,0,,,71,0
43200,note_on,13,0,1,,,,,,,,,0,,,48,80
43200,note_on,13,0,0,,,,,,,,,0,,,76,80
43655,note_on,455,0,1,,,,,,,,,0,,,48,0
43655,note_on,455,0,0,,,,,,,,,0,,,76,0
43920,note_on,265,0,1,,,,,,,,,0,,,50,80
43920,note_on,265,0,0,,,,,,,,,0,,,66,80
43975,note_on,55,0,0,,,,,,,,,0,,,66,0
43979,note_on,4,0,0,,,,,,,,,0,,,67,80
44034,note_on,55,0,0,,,,,,,,,0,,,67,0
44039,note_on,5,0,0,,,,,,,,,0,,,66,80
44094,note_on,55,0,0,,,,,,,,,0,,,66,0
44100,note_on,6,0,0,,,,,,,,,0,,,67,80
44155,note_on,55,0,0,,,,,,,,,0,,,67,0
44159,note_on,4,0,0,,,,,,,,,0,,,66,80
44214,note_on,55,0,0,,,,,,,,,0,,,66,0
44219,note_on,5,0,0,,,,,,,,,0,,,67,80
44274,note_on,55,0,0,,,,,,,,,0,,,67,0
44280,note_on,6,0,0,,,,,,,,,0,,,64,80
44375,note_on,455,0,1,,,,,,,,,0,,,50,0
44393,note_on,113,0,0,,,,,,,,,0,,,64,0
44400,note_on,7,0,0,,,,,,,,,0,,,62,80
44627,note_on,227,0,0,,,,,,,,,0,,,62,0
44640,note_on,265,0,1,,,,,,,,,0,,,55,80
44640,note_on,13,0,0,,,,,,,,,0,,,72,80
44715,note_on,75,0,0,,,,,,,,,0,,,72,0
44720,note_on,5,0,0,,,,,,,,,0,,,71,80
44795,note_on,75,0,0,,,,,,,,,0,,,71,0
44800,note_on,5,0,0,,,,,,,,,0,,,69,80
44867,note_on,227,0,1,,,,,,,,,0,,,55,0
44875,note_on,75,0,0,,,,,,,,,0,,,69,0
44880,note_on,5,0,0,,,,,,,,,0,,,69,80
44880,note_on,13,0,1,,,,,,,,,0,,,50,80
44935,note_on,55,0,0,,,,,,,,,0,,,69,0
44939,note_on,4,0,0,,,,,,,,,0,,,71,80
44994,note_on,55,0,0,,,,,,,,,0,,,71,0
44999,note_on,5,0,0,,,,,,,,,0,,,69,80
45054,note_on,55,0,0,,,,,,,,,0,,,69,0
45060,note_on,6,0,0,,,,,,,,,0,,,71,80
45107,note_on,227,0,1,,,,,,,,,0,,,50,0
45115,note_on,55,0,0,,,,,,,,,0,,,71,0
45119,note_on,4,0,0,,,,,,,,,0,,,69,80
45120,note_on,13,0,1,,,,,,,,,0,,,38,80
45174,note_on,55,0,0,,,,,,,,,0,,,69,0
45179,note_on,5,0,0,,,,,,,,,0,,,71,80
45234,note_on,55,0,0,,,,,,,,,0,,,71,0
45240,note_on,6,0,0,,,,,,,,,0,,,67,80
45347,note_on,227,0,1,,,,,,,,,0,,,38,0
45353,note_on,113,0,0,,,,,,,,,0,,,67,0
45360,note_on,7,0,0,,,,,,,,,0,,,67,80
45360,note_on,13,0,1,,,,,,,,,0,,,43,80
46043,note_on,683,0,1,,,,,,,,,0,,,43,0
46043,note_on,683,0,0,,,,,,,,,0,,,67,0
46080,note_on,37,0,0,,,,,,,,,0,,,71,80
46080,note_on,37,0,1,,,,,,,,,0,,,43,80
46535,note_on,455,0,0,,,,,,,,,0,,,71,0
46535,note_on,455,0,1,,,,,,,,,0,,,43,0
46800,note_on,265,0,0,,,,,,,,,0,,,74,80
46800,note_on,265,0,1,,,,,,,,,0,,,47,80
47027,note_on,227,0,0,,,,,,,,,0,,,74,0
47040,note_on,13,0,0,,,,,,,,,0,,,67,80
47255,note_on,455,0,1,,,,,,,,,0,,,47,0
47267,note_on,227,0,0,,,,,,,,,0,,,67,0
47280,note_on,13,0,0,,,,,,,,,0,,,66,80
47335,note_on,55,0,0,,,,,,,,,0,,,66,0
47340,note_on,5,0,0,,,,,,,,,0,,,67,80
47395,note_on,55,0,0,,,,,,,,,0,,,67,0
47400,note_on,5,0,0,,,,,,,,,0,,,66,80
47455,note_on,55,0,0,,,,,,,,,0,,,66,0
47460,note_on,5,0,0,,,,,,,,,0,,,67,80
47515,note_on,55,0,0,,,,,,,,,0,,,67,0
47520,note_on,5,0,0,,,,,,,,,0,,,64,80
47520,note_on,265,0,1,,,,,,,,,0,,,48,80
47633,note_on,113,0,0,,,,,,,,,0,,,64,0
47640,note_on,7,0,0,,,,,,,,,0,,,69,80
47753,note_on,113,0,0,,,,,,,,,0,,,69,0
47760,note_on,7,0,0,,,,,,,,,0,,,67,80
47975,note_on,455,0,1,,,,,,,,,0,,,48,0
47987,note_on,227,0,0,,,,,,,,,0,,,67,0
48000,note_on,13,0,0,,,,,,,,,0,,,66,80
48000,note_on,25,0,1,,,,,,,,,0,,,50,80
48227,note_on,227,0,1,,,,,,,,,0,,,50,0
48227,note_on,227,0,0,,,,,,,,,0,,,66,0
48240,note_on,13,0,0,,,,,,,,,0,,,67,80
48240,note_on,13,0,1,,,,,,,,,0,,,52,80
48353,note_on,113,0,0,,,,,,,,,0,,,67,0
48360,note_on,7,0,0,,,,,,,,,0,,,72,80
48473,note_on,113,0,0,,,,,,,,,0,,,72,0
48480,note_on,7,0,0,,,,,,,,,0,,,71,80
48695,note_on,455,0,1,,,,,,,,,0,,,52,0
48707,note_on,227,0,0,,,,,,,,,0,,,71,0
48720,note_on,25,0,1,,,,,,,,,0,,,54,80
48720,note_on,13,0,0,,,,,,,,,0,,,69,80
48947,note_on,227,0,1,,,,,,,,,0,,,54,0
48947,note_on,227,0,0,,,,,,,,,0,,,69,0
48960,note_on,13,0,0,,,,,,,,,0,,,71,80
48960,note_on,13,0,1,,,,,,,,,0,,,55,80
49073,note_on,113,0,0,,,,,,,,,0,,,71,0
49080,note_on,7,0,0,,,,,,,,,0,,,76,80
49193,note_on,113,0,0,,,,,,,,,0,,,76,0
49200,note_on,7,0,0,,,,,,,,,0,,,74,80
49415,note_on,455,0,1,,,,,,,,,0,,,55,0
49427,note_on,227,0,0,,,,,,,,,0,,,74,0
49440,note_on,13,0,0,,,,,,,,,0,,,72,80
49440,note_on,25,0,1,,,,,,,,,0,,,57,80
49667,note_on,227,0,0,,,,,,,,,0,,,72,0
49667,note_on,227,0,1,,,,,,,,,0,,,57,0
49680,note_on,13,0,1,,,,,,,,,0,,,59,80
49680,note_on,13,0,0,,,,,,,,,0,,,74,80
49907,note_on,227,0,0,,,,,,,,,0,,,74,0
49920,note_on,13,0,0,,,,,,,,,0,,,67,80
50033,note_on,113,0,0,,,,,,,,,0,,,67,0
50040,note_on,7,0,0,,,,,,,,,0,,,71,80
50135,note_on,455,0,1,,,,,,,,,0,,,59,0
50153,note_on,113,0,0,,,,,,,,,0,,,71,0
50160,note_on,7,0,0,,,,,,,,,0,,,69,80
50273,note_on,113,0,0,,,,,,,,,0,,,69,0
50280,note_on,7,0,0,,,,,,,,,0,,,67,80
50393,note_on,113,0,0,,,,,,,,,0,,,67,0
50400,note_on,7,0,0,,,,,,,,,0,,,76,80
50400,note_on,265,0,1,,,,,,,,,0,,,60,80
50627,note_on,227,0,0,,,,,,,,,0,,,76,0
50640,note_on,13,0,0,,,,,,,,,0,,,67,80
50753,note_on,113,0,0,,,,,,,,,0,,,67,0
50760,note_on,7,0,0,,,,,,,,,0,,,71,80
50855,note_on,455,0,1,,,,,,,,,0,,,60,0
50873,note_on,113,0,0,,,,,,,,,0,,,71,0
50880,note_on,7,0,0,,,,,,,,,0,,,69,80
50993,note_on,113,0,0,,,,,,,,,0,,,69,0
51000,note_on,7,0,0,,,,,,,,,0,,,67,80
51113,note_on,113,0,0,,,,,,,,,0,,,67,0
51120,note_on,265,0,1,,,,,,,,,0,,,59,80
51120,note_on,7,0,0,,,,,,,,,0,,,74,80
51347,note_on,227,0,0,,,,,,,,,0,,,74,0
51360,note_on,13,0,0,,,,,,,,,0,,,67,80
51473,note_on,113,0,0,,,,,,,,,0,,,67,0
51480,note_on,7,0,0,,,,,,,,,0,,,71,80
51575,note_on,455,0,1,,,,,,,,,0,,,59,0
51593,note_on,113,0,0,,,,,,,,,0,,,71,0
51600,note_on,7,0,0,,,,,,,,,0,,,69,80
51713,note_on,113,0,0,,,,,,,,,0,,,69,0
51720,note_on,7,0,0,,,,,,,,,0,,,67,80
51833,note_on,113,0,0,,,,,,,,,0,,,67,0
51840,note_on,265,0,1,,,,,,,,,0,,,60,80
51840,note_on,7,0,0,,,,,,,,,0,,,76,80
52067,note_on,227,0,0,,,,,,,,,0,,,76,0
52080,note_on,13,0,0,,,,,,,,,0,,,67,80
52193,note_on,113,0,0,,,,,,,,,0,,,67,0
52200,note_on,7,0,0,,,,,,,,,0,,,71,80
52295,note_on,455,0,1,,,,,,,,,0,,,60,0
52313,note_on,113,0,0,,,,,,,,,0,,,71,0
52320,note_on,7,0,0,,,,,,,,,0,,,69,80
52433,note_on,113,0,0,,,,,,,,,0,,,69,0
52440,note_on,7,0,0,,,,,,,,,0,,,67,80
52553,note_on,113,0,0,,,,,,,,,0,,,67,0
52560,note_on,7,0,0,,,,,,,,,0,,,74,80
52560,note_on,265,0,1,,,,,,,,,0,,,59,80
52787,note_on,227,0,0,,,,,,,,,0,,,74,0
52787,note_on,227,0,1,,,,,,,,,0,,,59,0
52800,note_on,13,0,1,,,,,,,,,0,,,47,80
52800,note_on,13,0,0,,,,,,,,,0,,,72,80
52913,note_on,113,0,0,,,,,,,,,0,,,72,0
52920,note_on,7,0,0,,,,,,,,,0,,,71,80
53027,note_on,227,0,1,,,,,,,,,0,,,47,0
53033,note_on,113,0,0,,,,,,,,,0,,,71,0
53040,note_on,7,0,0,,,,,,,,,0,,,69,80
53040,note_on,13,0,1,,,,,,,,,0,,,48,80
53153,note_on,113,0,0,,,,,,,,,0,,,69,0
53160,note_on,7,0,0,,,,,,,,,0,,,67,80
53267,note_on,227,0,1,,,,,,,,,0,,,48,0
53273,note_on,113,0,0,,,,,,,,,0,,,67,0
53280,note_on,13,0,1,,,,,,,,,0,,,50,80
53280,note_on,7,0,0,,,,,,,,,0,,,66,80
53307,note_on,27,0,0,,,,,,,,,0,,,66,0
53310,note_on,3,0,0,,,,,,,,,0,,,67,80
53337,note_on,27,0,0,,,,,,,,,0,,,67,0
53340,note_on,3,0,0,,,,,,,,,0,,,66,80
53367,note_on,27,0,0,,,,,,,,,0,,,66,0
53370,note_on,3,0,0,,,,,,,,,0,,,67,80
53397,note_on,27,0,0,,,,,,,,,0,,,67,0
53400,note_on,3,0,0,,,,,,,,,0,,,64,80
53507,note_on,227,0,1,,,,,,,,,0,,,50,0
53513,note_on,113,0,0,,,,,,,,,0,,,64,0
53520,note_on,13,0,1,,,,,,,,,0,,,38,80
53520,note_on,7,0,0,,,,,,,,,0,,,62,80
53747,note_on,227,0,1,,,,,,,,,0,,,38,0
53747,note_on,227,0,0,,,,,,,,,0,,,62,0
54000,note_on,253,0,1,,,,,,,,,0,,,55,80
54000,note_on,253,0,0,,,,,,,,,0,,,71,80
54227,note_on,227,0,0,,,,,,,,,0,,,71,0
54227,note_on,227,0,1,,,,,,,,,0,,,55,0
54240,note_on,13,0,1,,,,,,,,,0,,,60,80
54240,note_on,13,0,0,,,,,,,,,0,,,76,80
54467,note_on,227,0,1,,,,,,,,,0,,,60,0
54467,note_on,227,0,0,,,,,,,,,0,,,76,0
54480,note_on,13,0,1,,,,,,,,,0,,,59,80
54480,note_on,13,0,0,,,,,,,,,0,,,74,80
54707,note_on,227,0,0,,,,,,,,,0,,,74,0
54707,note_on,227,0,1,,,,,,,,,0,,,59,0
54720,note_on,13,0,1,,,,,,,,,0,,,57,80
54720,note_on,13,0,0,,,,,,,,,0,,,72,80
54947,note_on,227,0,0,,,,,,,,,0,,,72,0
54947,note_on,227,0,1,,,,,,,,,0,,,57,0
54960,note_on,13,0,1,,,,,,,,,0,,,50,80
54960,note_on,13,0,0,,,,,,,,,0,,,71,80
55187,note_on,227,0,0,,,,,,,,,0,,,71,0
55187,note_on,227,0,1,,,,,,,,,0,,,50,0
55200,note_on,13,0,1,,,,,,,,,0,,,48,80
55200,note_on,13,0,0,,,,,,,,,0,,,69,80
55427,note_on,227,0,0,,,,,,,,,0,,,69,0
55427,note_on,227,0,1,,,,,,,,,0,,,48,0
55440,note_on,13,0,1,,,,,,,,,0,,,47,80
55440,note_on,13,0,0,,,,,,,,,0,,,71,80
55610,note_on,170,0,0,,,,,,,,,0,,,71,0
55620,note_on,10,0,0,,,,,,,,,0,,,72,80
55676,note_on,56,0,0,,,,,,,,,0,,,72,0
55680,note_on,4,0,0,,,,,,,,,0,,,74,80
55781,note_on,341,0,1,,,,,,,,,0,,,47,0
55800,note_on,19,0,1,,,,,,,,,0,,,50,80
55850,note_on,170,0,0,,,,,,,,,0,,,74,0
55860,note_on,10,0,0,,,,,,,,,0,,,66,80
55913,note_on,113,0,1,,,,,,,,,0,,,50,0
55916,note_on,56,0,0,,,,,,,,,0,,,66,0
55920,note_on,4,0,0,,,,,,,,,0,,,67,80
55920,note_on,7,0,1,,,,,,,,,0,,,52,80
56147,note_on,227,0,1,,,,,,,,,0,,,52,0
56160,note_on,13,0,1,,,,,,,,,0,,,48,80
56261,note_on,341,0,0,,,,,,,,,0,,,67,0
56280,note_on,19,0,0,,,,,,,,,0,,,72,80
56387,note_on,227,0,1,,,,,,,,,0,,,48,0
56393,note_on,113,0,0,,,,,,,,,0,,,72,0
56400,note_on,7,0,0,,,,,,,,,0,,,69,80
56400,note_on,13,0,1,,,,,,,,,0,,,50,80
56455,note_on,55,0,0,,,,,,,,,0,,,69,0
56460,note_on,5,0,0,,,,,,,,,0,,,71,80
56515,note_on,55,0,0,,,,,,,,,0,,,71,0
56520,note_on,5,0,0,,,,,,,,,0,,,69,80
56575,note_on,55,0,0,,,,,,,,,0,,,69,0
56580,note_on,5,0,0,,,,,,,,,0,,,71,80
56627,note_on,227,0,1,,,,,,,,,0,,,50,0
56635,note_on,55,0,0,,,,,,,,,0,,,71,0
56640,note_on,13,0,1,,,,,,,,,0,,,38,80
56640,note_on,5,0,0,,,,,,,,,0,,,69,80
56695,note_on,55,0,0,,,,,,,,,0,,,69,0
56700,note_on,5,0,0,,,,,,,,,0,,,71,80
56755,note_on,55,0,0,,,,,,,,,0,,,71,0
56760,note_on,5,0,0,,,,,,,,,0,,,69,80
56815,note_on,55,0,0,,,,,,,,,0,,,69,0
56820,note_on,5,0,0,,,,,,,,,0,,,71,80
56867,note_on,227,0,1,,,,,,,,,0,,,38,0
56875,note_on,55,0,0,,,,,,,,,0,,,71,0
56880,note_on,5,0,0,,,,,,,,,0,,,67,80
56880,note_on,13,0,1,,,,,,,,,0,,,43,80
57563,note_on,683,0,1,,,,,,,,,0,,,43,0
57563,note_on,683,0,0,,,,,,,,,0,,,67,0
57564,end_of_track,1,1,1,,,,,,,,,,,,,
57564,end_of_track,1,1,0,,,,,,,,,,,,,
