tick,type,time,meta,track,numerator,denominator,clocks_per_click,notated_32nd_notes_per_beat,key,tempo,control,value,channel,program,port,note,velocity
0,control_change,0,0,0,,,,,,,121,0,0,,,,
0,time_signature,0,1,0,3,4,24,8,,,,,,,,,
0,set_tempo,0,1,0,,,,,,500000,,,,,,,
0,program_change,0,0,0,,,,,,,,,0,0,,,
0,track_name,0,1,0,,,,,,,,,,,,,
0,note_on,0,0,1,,,,,,,,,0,,,57,80
0,note_on,0,0,0,,,,,,,,,0,,,69,80
0,midi_port,0,1,1,,,,,,,,,,,0,,
0,midi_port,0,1,0,,,,,,,,,,,0,,
0,key_signature,0,1,1,,,,,C,,,,,,,,
0,key_signature,0,1,0,,,,,C,,,,,,,,
0,track_name,0,1,1,,,,,,,,,,,,,
0,control_change,0,0,0,,,,,,,100,0,0,,,,
0,control_change,0,0,0,,,,,,,93,0,0,,,,
0,control_change,0,0,0,,,,,,,101,0,0,,,,
0,control_change,0,0,0,,,,,,,91,0,0,,,,
0,control_change,0,0,0,,,,,,,10,64,0,,,,
0,control_change,0,0,0,,,,,,,7,99,0,,,,
0,control_change,0,0,0,,,,,,,6,12,0,,,,
0,control_change,0,0,0,,,,,,,101,127,0,,,,
0,control_change,0,0,0,,,,,,,100,127,0,,,,
227,note_on,227,0,0,,,,,,,,,0,,,69,0
240,note_on,13,0,0,,,,,,,,,0,,,71,80
455,note_on,455,0,1,,,,,,,,,0,,,57,0
467,note_on,227,0,0,,,,,,,,,0,,,71,0
480,note_on,25,0,1,,,,,,,,,0,,,52,80
480,note_on,13,0,0,,,,,,,,,0,,,71,80
535,note_on,55,0,0,,,,,,,,,0,,,71,0
539,note_on,4,0,0,,,,,,,,,0,,,72,80
594,note_on,55,0,0,,,,,,,,,0,,,72,0
599,note_on,5,0,0,,,,,,,,,0,,,71,80
654,note_on,55,0,0,,,,,,,,,0,,,71,0
660,note_on,6,0,0,,,,,,,,,0,,,72,80
715,note_on,55,0,0,,,,,,,,,0,,,72,0
719,note_on,4,0,0,,,,,,,,,0,,,71,80
774,note_on,55,0,0,,,,,,,,,0,,,71,0
779,note_on,5,0,0,,,,,,,,,0,,,72,80
834,note_on,55,0,0,,,,,,,,,0,,,72,0
840,note_on,6,0,0,,,,,,,,,0,,,71,80
895,note_on,55,0,0,,,,,,,,,0,,,71,0
899,note_on,4,0,0,,,,,,,,,0,,,72,80
935,note_on,455,0,1,,,,,,,,,0,,,52,0
954,note_on,55,0,0,,,,,,,,,0,,,72,0
959,note_on,5,0,0,,,,,,,,,0,,,71,80
1014,note_on,55,0,0,,,,,,,,,0,,,71,0
1020,note_on,6,0,0,,,,,,,,,0,,,72,80
1075,note_on,55,0,0,,,,,,,,,0,,,72,0
1079,note_on,4,0,0,,,,,,,,,0,,,71,80
1134,note_on,55,0,0,,,,,,,,,0,,,71,0
1139,note_on,5,0,0,,,,,,,,,0,,,72,80
1194,note_on,55,0,0,,,,,,,,,0,,,72,0
1200,note_on,6,0,0,,,,,,,,,0,,,69,80
1313,note_on,113,0,0,,,,,,,,,0,,,69,0
1320,note_on,7,0,0,,,,,,,,,0,,,71,80
1433,note_on,113,0,0,,,,,,,,,0,,,71,0
1440,note_on,7,0,0,,,,,,,,,0,,,72,80
1440,note_on,505,0,1,,,,,,,,,0,,,45,80
1667,note_on,227,0,0,,,,,,,,,0,,,72,0
1680,note_on,13,0,0,,,,,,,,,0,,,69,80
1907,note_on,227,0,0,,,,,,,,,0,,,69,0
1920,note_on,13,0,0,,,,,,,,,0,,,68,80
2147,note_on,227,0,0,,,,,,,,,0,,,68,0
2160,note_on,13,0,0,,,,,,,,,0,,,69,80
2351,note_on,911,0,1,,,,,,,,,0,,,45,0
2387,note_on,227,0,0,,,,,,,,,0,,,69,0
2400,note_on,13,0,0,,,,,,,,,0,,,77,80
2400,note_on,49,0,1,,,,,,,,,0,,,62,80
2855,note_on,455,0,0,,,,,,,,,0,,,77,0
2855,note_on,455,0,1,,,,,,,,,0,,,62,0
2880,note_on,25,0,0,,,,,,,,,0,,,76,80
2880,note_on,25,0,1,,,,,,,,,0,,,60,80
3335,note_on,455,0,1,,,,,,,,,0,,,60,0
3335,note_on,455,0,0,,,,,,,,,0,,,76,0
3360,note_on,25,0,1,,,,,,,,,0,,,59,80
3360,note_on,25,0,0,,,,,,,,,0,,,74,80
3587,note_on,227,0,0,,,,,,,,,0,,,74,0
3600,note_on,13,0,0,,,,,,,,,0,,,72,80
3815,note_on,455,0,1,,,,,,,,,0,,,59,0
3827,note_on,227,0,0,,,,,,,,,0,,,72,0
3840,note_on,25,0,1,,,,,,,,,0,,,52,80
3840,note_on,13,0,0,,,,,,,,,0,,,71,80
4067,note_on,227,0,0,,,,,,,,,0,,,71,0
4080,note_on,13,0,0,,,,,,,,,0,,,72,80
4295,note_on,455,0,1,,,,,,,,,0,,,52,0
4307,note_on,227,0,0,,,,,,,,,0,,,72,0
4320,note_on,13,0,0,,,,,,,,,0,,,72,80
4320,note_on,25,0,1,,,,,,,,,0,,,57,80
4375,note_on,55,0,0,,,,,,,,,0,,,72,0
4379,note_on,4,0,0,,,,,,,,,0,,,74,80
4434,note_on,55,0,0,,,,,,,,,0,,,74,0
4439,note_on,5,0,0,,,,,,,,,0,,,72,80
4494,note_on,55,0,0,,,,,,,,,0,,,72,0
4500,note_on,6,0,0,,,,,,,,,0,,,74,80
4555,note_on,55,0,0,,,,,,,,,0,,,74,0
4559,note_on,4,0,0,,,,,,,,,0,,,72,80
4614,note_on,55,0,0,,,,,,,,,0,,,72,0
4619,note_on,5,0,0,,,,,,,,,0,,,74,80
4674,note_on,55,0,0,,,,,,,,,0,,,74,0
4680,note_on,6,0,0,,,,,,,,,0,,,72,80
4735,note_on,55,0,0,,,,,,,,,0,,,72,0
4739,note_on,4,0,0,,,,,,,,,0,,,74,80
4775,note_on,455,0,1,,,,,,,,,0,,,57,0
4794,note_on,55,0,0,,,,,,,,,0,,,74,0
4799,note_on,5,0,0,,,,,,,,,0,,,72,80
4800,note_on,25,0,1,,,,,,,,,0,,,45,80
4854,note_on,55,0,0,,,,,,,,,0,,,72,0
4860,note_on,6,0,0,,,,,,,,,0,,,74,80
4915,note_on,55,0,0,,,,,,,,,0,,,74,0
4919,note_on,4,0,0,,,,,,,,,0,,,72,80
4974,note_on,55,0,0,,,,,,,,,0,,,72,0
4979,note_on,5,0,0,,,,,,,,,0,,,74,80
5034,note_on,55,0,0,,,,,,,,,0,,,74,0
5040,note_on,6,0,0,,,,,,,,,0,,,71,80
5255,note_on,455,0,1,,,,,,,,,0,,,45,0
5267,note_on,227,0,0,,,,,,,,,0,,,71,0
5280,note_on,13,0,0,,,,,,,,,0,,,69,80
5735,note_on,455,0,0,,,,,,,,,0,,,69,0
5760,note_on,25,0,0,,,,,,,,,0,,,72,80
5760,note_on,505,0,1,,,,,,,,,0,,,57,80
5987,note_on,227,0,0,,,,,,,,,0,,,72,0
6000,note_on,13,0,0,,,,,,,,,0,,,74,80
6215,note_on,455,0,1,,,,,,,,,0,,,57,0
6227,note_on,227,0,0,,,,,,,,,0,,,74,0
6240,note_on,25,0,1,,,,,,,,,0,,,53,80
6240,note_on,13,0,0,,,,,,,,,0,,,74,80
6295,note_on,55,0,0,,,,,,,,,0,,,74,0
6299,note_on,4,0,0,,,,,,,,,0,,,76,80
6354,note_on,55,0,0,,,,,,,,,0,,,76,0
6359,note_on,5,0,0,,,,,,,,,0,,,74,80
6414,note_on,55,0,0,,,,,,,,,0,,,74,0
6420,note_on,6,0,0,,,,,,,,,0,,,76,80
6475,note_on,55,0,0,,,,,,,,,0,,,76,0
6479,note_on,4,0,0,,,,,,,,,0,,,74,80
6534,note_on,55,0,0,,,,,,,,,0,,,74,0
6539,note_on,5,0,0,,,,,,,,,0,,,76,80
6594,note_on,55,0,0,,,,,,,,,0,,,76,0
6600,note_on,6,0,0,,,,,,,,,0,,,74,80
6655,note_on,55,0,0,,,,,,,,,0,,,74,0
6659,note_on,4,0,0,,,,,,,,,0,,,76,80
6695,note_on,455,0,1,,,,,,,,,0,,,53,0
6714,note_on,55,0,0,,,,,,,,,0,,,76,0
6719,note_on,5,0,0,,,,,,,,,0,,,74,80
6720,note_on,25,0,1,,,,,,,,,0,,,55,80
6774,note_on,55,0,0,,,,,,,,,0,,,74,0
6780,note_on,6,0,0,,,,,,,,,0,,,76,80
6835,note_on,55,0,0,,,,,,,,,0,,,76,0
6839,note_on,4,0,0,,,,,,,,,0,,,74,80
6894,note_on,55,0,0,,,,,,,,,0,,,74,0
6899,note_on,5,0,0,,,,,,,,,0,,,76,80
6954,note_on,55,0,0,,,,,,,,,0,,,76,0
6960,note_on,6,0,0,,,,,,,,,0,,,72,80
7073,note_on,113,0,0,,,,,,,,,0,,,72,0
7080,note_on,7,0,0,,,,,,,,,0,,,74,80
7175,note_on,455,0,1,,,,,,,,,0,,,55,0
7193,note_on,113,0,0,,,,,,,,,0,,,74,0
7200,note_on,25,0,1,,,,,,,,,0,,,48,80
7200,note_on,7,0,0,,,,,,,,,0,,,76,80
7427,note_on,227,0,0,,,,,,,,,0,,,76,0
7440,note_on,13,0,0,,,,,,,,,0,,,72,80
7667,note_on,227,0,0,,,,,,,,,0,,,72,0
7680,note_on,13,0,0,,,,,,,,,0,,,71,80
7907,note_on,227,0,0,,,,,,,,,0,,,71,0
7920,note_on,13,0,0,,,,,,,,,0,,,72,80
8111,note_on,911,0,1,,,,,,,,,0,,,48,0
8147,note_on,227,0,0,,,,,,,,,0,,,72,0
8160,note_on,49,0,1,,,,,,,,,0,,,65,80
8160,note_on,13,0,0,,,,,,,,,0,,,81,80
8615,note_on,455,0,0,,,,,,,,,0,,,81,0
8615,note_on,455,0,1,,,,,,,,,0,,,65,0
8640,note_on,25,0,0,,,,,,,,,0,,,79,80
8640,note_on,25,0,1,,,,,,,,,0,,,64,80
9095,note_on,455,0,1,,,,,,,,,0,,,64,0
9095,note_on,455,0,0,,,,,,,,,0,,,79,0
9120,note_on,25,0,0,,,,,,,,,0,,,77,80
9120,note_on,25,0,1,,,,,,,,,0,,,62,80
9174,note_on,54,0,0,,,,,,,,,0,,,77,0
9179,note_on,5,0,0,,,,,,,,,0,,,79,80
9233,note_on,54,0,0,,,,,,,,,0,,,79,0
9240,note_on,7,0,0,,,,,,,,,0,,,77,80
9294,note_on,54,0,0,,,,,,,,,0,,,77,0
9299,note_on,5,0,0,,,,,,,,,0,,,79,80
9353,note_on,54,0,0,,,,,,,,,0,,,79,0
9360,note_on,7,0,0,,,,,,,,,0,,,77,80
9414,note_on,54,0,0,,,,,,,,,0,,,77,0
9419,note_on,5,0,0,,,,,,,,,0,,,79,80
9473,note_on,54,0,0,,,,,,,,,0,,,79,0
9480,note_on,7,0,0,,,,,,,,,0,,,77,80
9534,note_on,54,0,0,,,,,,,,,0,,,77,0
9539,note_on,5,0,0,,,,,,,,,0,,,79,80
9593,note_on,54,0,0,,,,,,,,,0,,,79,0
9600,note_on,7,0,0,,,,,,,,,0,,,77,80
9654,note_on,54,0,0,,,,,,,,,0,,,77,0
9659,note_on,5,0,0,,,,,,,,,0,,,79,80
9713,note_on,54,0,0,,,,,,,,,0,,,79,0
9720,note_on,7,0,0,,,,,,,,,0,,,77,80
9774,note_on,54,0,0,,,,,,,,,0,,,77,0
9779,note_on,5,0,0,,,,,,,,,0,,,79,80
9833,note_on,54,0,0,,,,,,,,,0,,,79,0
9840,note_on,7,0,0,,,,,,,,,0,,,77,80
9894,note_on,54,0,0,,,,,,,,,0,,,77,0
9899,note_on,5,0,0,,,,,,,,,0,,,79,80
9953,note_on,54,0,0,,,,,,,,,0,,,79,0
9960,note_on,7,0,0,,,,,,,,,0,,,77,80
10014,note_on,54,0,0,,,,,,,,,0,,,77,0
10019,note_on,5,0,0,,,,,,,,,0,,,79,80
10031,note_on,911,0,1,,,,,,,,,0,,,62,0
10073,note_on,54,0,0,,,,,,,,,0,,,79,0
10080,note_on,49,0,1,,,,,,,,,0,,,60,80
10080,note_on,7,0,0,,,,,,,,,0,,,76,80
10535,note_on,455,0,0,,,,,,,,,0,,,76,0
10560,note_on,25,0,0,,,,,,,,,0,,,74,80
10787,note_on,227,0,0,,,,,,,,,0,,,74,0
10800,note_on,13,0,0,,,,,,,,,0,,,72,80
10919,note_on,119,0,0,,,,,,,,,0,,,72,0
10991,note_on,911,0,1,,,,,,,,,0,,,60,0
11040,note_on,49,0,1,,,,,,,,,0,,,53,80
11040,note_on,121,0,0,,,,,,,,,0,,,71,80
11267,note_on,227,0,0,,,,,,,,,0,,,71,0
11280,note_on,13,0,0,,,,,,,,,0,,,69,80
11399,note_on,119,0,0,,,,,,,,,0,,,69,0
11495,note_on,455,0,1,,,,,,,,,0,,,53,0
11520,note_on,25,0,1,,,,,,,,,0,,,52,80
11520,note_on,121,0,0,,,,,,,,,0,,,67,80
11975,note_on,455,0,1,,,,,,,,,0,,,52,0
11975,note_on,455,0,0,,,,,,,,,0,,,67,0
12000,note_on,25,0,1,,,,,,,,,0,,,50,80
12000,note_on,25,0,0,,,,,,,,,0,,,65,80
12054,note_on,54,0,0,,,,,,,,,0,,,65,0
12059,note_on,5,0,0,,,,,,,,,0,,,67,80
12113,note_on,54,0,0,,,,,,,,,0,,,67,0
12120,note_on,7,0,0,,,,,,,,,0,,,65,80
12174,note_on,54,0,0,,,,,,,,,0,,,65,0
12179,note_on,5,0,0,,,,,,,,,0,,,67,80
12233,note_on,54,0,0,,,,,,,,,0,,,67,0
12240,note_on,7,0,0,,,,,,,,,0,,,65,80
12294,note_on,54,0,0,,,,,,,,,0,,,65,0
12299,note_on,5,0,0,,,,,,,,,0,,,67,80
12353,note_on,54,0,0,,,,,,,,,0,,,67,0
12360,note_on,7,0,0,,,,,,,,,0,,,65,80
12414,note_on,54,0,0,,,,,,,,,0,,,65,0
12419,note_on,5,0,0,,,,,,,,,0,,,67,80
12473,note_on,54,0,0,,,,,,,,,0,,,67,0
12480,note_on,7,0,0,,,,,,,,,0,,,65,80
12534,note_on,54,0,0,,,,,,,,,0,,,65,0
12539,note_on,5,0,0,,,,,,,,,0,,,67,80
12593,note_on,54,0,0,,,,,,,,,0,,,67,0
12600,note_on,7,0,0,,,,,,,,,0,,,65,80
12654,note_on,54,0,0,,,,,,,,,0,,,65,0
12659,note_on,5,0,0,,,,,,,,,0,,,67,80
12713,note_on,54,0,0,,,,,,,,,0,,,67,0
12720,note_on,7,0,0,,,,,,,,,0,,,65,80
12774,note_on,54,0,0,,,,,,,,,0,,,65,0
12779,note_on,5,0,0,,,,,,,,,0,,,67,80
12833,note_on,54,0,0,,,,,,,,,0,,,67,0
12840,note_on,7,0,0,,,,,,,,,0,,,65,80
12894,note_on,54,0,0,,,,,,,,,0,,,65,0
12899,note_on,5,0,0,,,,,,,,,0,,,67,80
12911,note_on,911,0,1,,,,,,,,,0,,,50,0
12953,note_on,54,0,0,,,,,,,,,0,,,67,0
12960,note_on,49,0,1,,,,,,,,,0,,,48,80
12960,note_on,7,0,0,,,,,,,,,0,,,64,80
13187,note_on,227,0,0,,,,,,,,,0,,,64,0
13200,note_on,13,0,0,,,,,,,,,0,,,67,80
13427,note_on,227,0,0,,,,,,,,,0,,,67,0
13440,note_on,13,0,0,,,,,,,,,0,,,69,80
13667,note_on,227,0,0,,,,,,,,,0,,,69,0
13680,note_on,13,0,0,,,,,,,,,0,,,71,80
13871,note_on,911,0,1,,,,,,,,,0,,,48,0
13907,note_on,227,0,0,,,,,,,,,0,,,71,0
13920,note_on,49,0,1,,,,,,,,,0,,,57,80
13920,note_on,13,0,0,,,,,,,,,0,,,72,80
14375,note_on,455,0,1,,,,,,,,,0,,,57,0
14375,note_on,455,0,0,,,,,,,,,0,,,72,0
14400,note_on,25,0,0,,,,,,,,,0,,,77,80
14400,note_on,25,0,1,,,,,,,,,0,,,53,80
14855,note_on,455,0,0,,,,,,,,,0,,,77,0
14855,note_on,455,0,1,,,,,,,,,0,,,53,0
14880,note_on,25,0,0,,,,,,,,,0,,,74,80
14880,note_on,25,0,1,,,,,,,,,0,,,55,80
14934,note_on,54,0,0,,,,,,,,,0,,,74,0
14939,note_on,5,0,0,,,,,,,,,0,,,76,80
14993,note_on,54,0,0,,,,,,,,,0,,,76,0
15000,note_on,7,0,0,,,,,,,,,0,,,74,80
15054,note_on,54,0,0,,,,,,,,,0,,,74,0
15059,note_on,5,0,0,,,,,,,,,0,,,76,80
15113,note_on,54,0,0,,,,,,,,,0,,,76,0
15120,note_on,7,0,0,,,,,,,,,0,,,74,80
15174,note_on,54,0,0,,,,,,,,,0,,,74,0
15179,note_on,5,0,0,,,,,,,,,0,,,76,80
15233,note_on,54,0,0,,,,,,,,,0,,,76,0
15240,note_on,7,0,0,,,,,,,,,0,,,74,80
15294,note_on,54,0,0,,,,,,,,,0,,,74,0
15299,note_on,5,0,0,,,,,,,,,0,,,76,80
15335,note_on,455,0,1,,,,,,,,,0,,,55,0
15353,note_on,54,0,0,,,,,,,,,0,,,76,0
15360,note_on,25,0,1,,,,,,,,,0,,,43,80
15360,note_on,7,0,0,,,,,,,,,0,,,74,80
15414,note_on,54,0,0,,,,,,,,,0,,,74,0
15419,note_on,5,0,0,,,,,,,,,0,,,76,80
15473,note_on,54,0,0,,,,,,,,,0,,,76,0
15480,note_on,7,0,0,,,,,,,,,0,,,74,80
15534,note_on,54,0,0,,,,,,,,,0,,,74,0
15539,note_on,5,0,0,,,,,,,,,0,,,76,80
15593,note_on,54,0,0,,,,,,,,,0,,,76,0
15600,note_on,7,0,0,,,,,,,,,0,,,74,80
15654,note_on,54,0,0,,,,,,,,,0,,,74,0
15659,note_on,5,0,0,,,,,,,,,0,,,76,80
15713,note_on,54,0,0,,,,,,,,,0,,,76,0
15720,note_on,7,0,0,,,,,,,,,0,,,74,80
15774,note_on,54,0,0,,,,,,,,,0,,,74,0
15779,note_on,5,0,0,,,,,,,,,0,,,76,80
15815,note_on,455,0,1,,,,,,,,,0,,,43,0
15833,note_on,54,0,0,,,,,,,,,0,,,76,0
15840,note_on,25,0,1,,,,,,,,,0,,,48,80
15840,note_on,7,0,0,,,,,,,,,0,,,72,80
16751,note_on,911,0,1,,,,,,,,,0,,,48,0
16800,note_on,49,0,1,,,,,,,,,0,,,52,80
17207,note_on,1367,0,0,,,,,,,,,0,,,72,0
17255,note_on,455,0,1,,,,,,,,,0,,,52,0
17280,note_on,0,0,0,,,,,,,,,0,,,69,80
17280,set_tempo,0,1,0,,,,,,500000,,,,,,,
17280,key_signature,25,1,1,,,,,C,,,,,,,,
17280,key_signature,0,1,0,,,,,C,,,,,,,,
17280,time_signature,73,1,0,3,4,24,8,,,,,,,,,
17280,note_on,0,0,1,,,,,,,,,0,,,57,80
17507,note_on,227,0,0,,,,,,,,,0,,,69,0
17520,note_on,13,0,0,,,,,,,,,0,,,71,80
17735,note_on,455,0,1,,,,,,,,,0,,,57,0
17747,note_on,227,0,0,,,,,,,,,0,,,71,0
17760,note_on,13,0,0,,,,,,,,,0,,,71,80
17760,note_on,25,0,1,,,,,,,,,0,,,52,80
17815,note_on,55,0,0,,,,,,,,,0,,,71,0
17819,note_on,4,0,0,,,,,,,,,0,,,72,80
17874,note_on,55,0,0,,,,,,,,,0,,,72,0
17879,note_on,5,0,0,,,,,,,,,0,,,71,80
17934,note_on,55,0,0,,,,,,,,,0,,,71,0
17940,note_on,6,0,0,,,,,,,,,0,,,72,80
17995,note_on,55,0,0,,,,,,,,,0,,,72,0
17999,note_on,4,0,0,,,,,,,,,0,,,71,80
18054,note_on,55,0,0,,,,,,,,,0,,,71,0
18059,note_on,5,0,0,,,,,,,,,0,,,72,80
18114,note_on,55,0,0,,,,,,,,,0,,,72,0
18120,note_on,6,0,0,,,,,,,,,0,,,71,80
18175,note_on,55,0,0,,,,,,,,,0,,,71,0
18179,note_on,4,0,0,,,,,,,,,0,,,72,80
18215,note_on,455,0,1,,,,,,,,,0,,,52,0
18234,note_on,55,0,0,,,,,,,,,0,,,72,0
18239,note_on,5,0,0,,,,,,,,,0,,,71,80
18294,note_on,55,0,0,,,,,,,,,0,,,71,0
18300,note_on,6,0,0,,,,,,,,,0,,,72,80
18355,note_on,55,0,0,,,,,,,,,0,,,72,0
18359,note_on,4,0,0,,,,,,,,,0,,,71,80
18414,note_on,55,0,0,,,,,,,,,0,,,71,0
18419,note_on,5,0,0,,,,,,,,,0,,,72,80
18474,note_on,55,0,0,,,,,,,,,0,,,72,0
18480,note_on,6,0,0,,,,,,,,,0,,,69,80
18593,note_on,113,0,0,,,,,,,,,0,,,69,0
18600,note_on,7,0,0,,,,,,,,,0,,,71,80
18713,note_on,113,0,0,,,,,,,,,0,,,71,0
18720,note_on,505,0,1,,,,,,,,,0,,,45,80
18720,note_on,7,0,0,,,,,,,,,0,,,72,80
18947,note_on,227,0,0,,,,,,,,,0,,,72,0
18960,note_on,13,0,0,,,,,,,,,0,,,69,80
19187,note_on,227,0,0,,,,,,,,,0,,,69,0
19200,note_on,13,0,0,,,,,,,,,0,,,68,80
19427,note_on,227,0,0,,,,,,,,,0,,,68,0
19440,note_on,13,0,0,,,,,,,,,0,,,69,80
19631,note_on,911,0,1,,,,,,,,,0,,,45,0
19667,note_on,227,0,0,,,,,,,,,0,,,69,0
19680,note_on,13,0,0,,,,,,,,,0,,,77,80
19680,note_on,49,0,1,,,,,,,,,0,,,62,80
20135,note_on,455,0,1,,,,,,,,,0,,,62,0
20135,note_on,455,0,0,,,,,,,,,0,,,77,0
20160,note_on,25,0,0,,,,,,,,,0,,,76,80
20160,note_on,25,0,1,,,,,,,,,0,,,60,80
20615,note_on,455,0,0,,,,,,,,,0,,,76,0
20615,note_on,455,0,1,,,,,,,,,0,,,60,0
20640,note_on,25,0,1,,,,,,,,,0,,,59,80
20640,note_on,25,0,0,,,,,,,,,0,,,74,80
20867,note_on,227,0,0,,,,,,,,,0,,,74,0
20880,note_on,13,0,0,,,,,,,,,0,,,72,80
21095,note_on,455,0,1,,,,,,,,,0,,,59,0
21107,note_on,227,0,0,,,,,,,,,0,,,72,0
21120,note_on,25,0,1,,,,,,,,,0,,,52,80
21120,note_on,13,0,0,,,,,,,,,0,,,71,80
21347,note_on,227,0,0,,,,,,,,,0,,,71,0
21360,note_on,13,0,0,,,,,,,,,0,,,72,80
21575,note_on,455,0,1,,,,,,,,,0,,,52,0
21587,note_on,227,0,0,,,,,,,,,0,,,72,0
21600,note_on,25,0,1,,,,,,,,,0,,,57,80
21600,note_on,13,0,0,,,,,,,,,0,,,72,80
21655,note_on,55,0,0,,,,,,,,,0,,,72,0
21659,note_on,4,0,0,,,,,,,,,0,,,74,80
21714,note_on,55,0,0,,,,,,,,,0,,,74,0
21719,note_on,5,0,0,,,,,,,,,0,,,72,80
21774,note_on,55,0,0,,,,,,,,,0,,,72,0
21780,note_on,6,0,0,,,,,,,,,0,,,74,80
21835,note_on,55,0,0,,,,,,,,,0,,,74,0
21839,note_on,4,0,0,,,,,,,,,0,,,72,80
21894,note_on,55,0,0,,,,,,,,,0,,,72,0
21899,note_on,5,0,0,,,,,,,,,0,,,74,80
21954,note_on,55,0,0,,,,,,,,,0,,,74,0
21960,note_on,6,0,0,,,,,,,,,0,,,72,80
22015,note_on,55,0,0,,,,,,,,,0,,,72,0
22019,note_on,4,0,0,,,,,,,,,0,,,74,80
22055,note_on,455,0,1,,,,,,,,,0,,,57,0
22074,note_on,55,0,0,,,,,,,,,0,,,74,0
22079,note_on,5,0,0,,,,,,,,,0,,,72,80
22080,note_on,25,0,1,,,,,,,,,0,,,45,80
22134,note_on,55,0,0,,,,,,,,,0,,,72,0
22140,note_on,6,0,0,,,,,,,,,0,,,74,80
22195,note_on,55,0,0,,,,,,,,,0,,,74,0
22199,note_on,4,0,0,,,,,,,,,0,,,72,80
22254,note_on,55,0,0,,,,,,,,,0,,,72,0
22259,note_on,5,0,0,,,,,,,,,0,,,74,80
22314,note_on,55,0,0,,,,,,,,,0,,,74,0
22320,note_on,6,0,0,,,,,,,,,0,,,71,80
22535,note_on,455,0,1,,,,,,,,,0,,,45,0
22547,note_on,227,0,0,,,,,,,,,0,,,71,0
22560,note_on,13,0,0,,,,,,,,,0,,,69,80
23015,note_on,455,0,0,,,,,,,,,0,,,69,0
23040,note_on,505,0,1,,,,,,,,,0,,,57,80
23040,note_on,25,0,0,,,,,,,,,0,,,72,80
23267,note_on,227,0,0,,,,,,,,,0,,,72,0
23280,note_on,13,0,0,,,,,,,,,0,,,74,80
23495,note_on,455,0,1,,,,,,,,,0,,,57,0
23507,note_on,227,0,0,,,,,,,,,0,,,74,0
23520,note_on,25,0,1,,,,,,,,,0,,,53,80
23520,note_on,13,0,0,,,,,,,,,0,,,74,80
23575,note_on,55,0,0,,,,,,,,,0,,,74,0
23579,note_on,4,0,0,,,,,,,,,0,,,76,80
23634,note_on,55,0,0,,,,,,,,,0,,,76,0
23639,note_on,5,0,0,,,,,,,,,0,,,74,80
23694,note_on,55,0,0,,,,,,,,,0,,,74,0
23700,note_on,6,0,0,,,,,,,,,0,,,76,80
23755,note_on,55,0,0,,,,,,,,,0,,,76,0
23759,note_on,4,0,0,,,,,,,,,0,,,74,80
23814,note_on,55,0,0,,,,,,,,,0,,,74,0
23819,note_on,5,0,0,,,,,,,,,0,,,76,80
23874,note_on,55,0,0,,,,,,,,,0,,,76,0
23880,note_on,6,0,0,,,,,,,,,0,,,74,80
23935,note_on,55,0,0,,,,,,,,,0,,,74,0
23939,note_on,4,0,0,,,,,,,,,0,,,76,80
23975,note_on,455,0,1,,,,,,,,,0,,,53,0
23994,note_on,55,0,0,,,,,,,,,0,,,76,0
23999,note_on,5,0,0,,,,,,,,,0,,,74,80
24000,note_on,25,0,1,,,,,,,,,0,,,55,80
24054,note_on,55,0,0,,,,,,,,,0,,,74,0
24060,note_on,6,0,0,,,,,,,,,0,,,76,80
24115,note_on,55,0,0,,,,,,,,,0,,,76,0
24119,note_on,4,0,0,,,,,,,,,0,,,74,80
24174,note_on,55,0,0,,,,,,,,,0,,,74,0
24179,note_on,5,0,0,,,,,,,,,0,,,76,80
24234,note_on,55,0,0,,,,,,,,,0,,,76,0
24240,note_on,6,0,0,,,,,,,,,0,,,72,80
24353,note_on,113,0,0,,,,,,,,,0,,,72,0
24360,note_on,7,0,0,,,,,,,,,0,,,74,80
24455,note_on,455,0,1,,,,,,,,,0,,,55,0
24473,note_on,113,0,0,,,,,,,,,0,,,74,0
24480,note_on,25,0,1,,,,,,,,,0,,,48,80
24480,note_on,7,0,0,,,,,,,,,0,,,76,80
24707,note_on,227,0,0,,,,,,,,,0,,,76,0
24720,note_on,13,0,0,,,,,,,,,0,,,72,80
24947,note_on,227,0,0,,,,,,,,,0,,,72,0
24960,note_on,13,0,0,,,,,,,,,0,,,71,80
25187,note_on,227,0,0,,,,,,,,,0,,,71,0
25200,note_on,13,0,0,,,,,,,,,0,,,72,80
25391,note_on,911,0,1,,,,,,,,,0,,,48,0
25427,note_on,227,0,0,,,,,,,,,0,,,72,0
25440,note_on,13,0,0,,,,,,,,,0,,,81,80
25440,note_on,49,0,1,,,,,,,,,0,,,65,80
25895,note_on,455,0,0,,,,,,,,,0,,,81,0
25895,note_on,455,0,1,,,,,,,,,0,,,65,0
25920,note_on,25,0,1,,,,,,,,,0,,,64,80
25920,note_on,25,0,0,,,,,,,,,0,,,79,80
26375,note_on,455,0,0,,,,,,,,,0,,,79,0
26375,note_on,455,0,1,,,,,,,,,0,,,64,0
26400,note_on,25,0,1,,,,,,,,,0,,,62,80
26400,note_on,25,0,0,,,,,,,,,0,,,77,80
26454,note_on,54,0,0,,,,,,,,,0,,,77,0
26459,note_on,5,0,0,,,,,,,,,0,,,79,80
26513,note_on,54,0,0,,,,,,,,,0,,,79,0
26520,note_on,7,0,0,,,,,,,,,0,,,77,80
26574,note_on,54,0,0,,,,,,,,,0,,,77,0
26579,note_on,5,0,0,,,,,,,,,0,,,79,80
26633,note_on,54,0,0,,,,,,,,,0,,,79,0
26640,note_on,7,0,0,,,,,,,,,0,,,77,80
26694,note_on,54,0,0,,,,,,,,,0,,,77,0
26699,note_on,5,0,0,,,,,,,,,0,,,79,80
26753,note_on,54,0,0,,,,,,,,,0,,,79,0
26760,note_on,7,0,0,,,,,,,,,0,,,77,80
26814,note_on,54,0,0,,,,,,,,,0,,,77,0
26819,note_on,5,0,0,,,,,,,,,0,,,79,80
26873,note_on,54,0,0,,,,,,,,,0,,,79,0
26880,note_on,7,0,0,,,,,,,,,0,,,77,80
26934,note_on,54,0,0,,,,,,,,,0,,,77,0
26939,note_on,5,0,0,,,,,,,,,0,,,79,80
26993,note_on,54,0,0,,,,,,,,,0,,,79,0
27000,note_on,7,0,0,,,,,,,,,0,,,77,80
27054,note_on,54,0,0,,,,,,,,,0,,,77,0
27059,note_on,5,0,0,,,,,,,,,0,,,79,80
27113,note_on,54,0,0,,,,,,,,,0,,,79,0
27120,note_on,7,0,0,,,,,,,,,0,,,77,80
27174,note_on,54,0,0,,,,,,,,,0,,,77,0
27179,note_on,5,0,0,,,,,,,,,0,,,79,80
27233,note_on,54,0,0,,,,,,,,,0,,,79,0
27240,note_on,7,0,0,,,,,,,,,0,,,77,80
27294,note_on,54,0,0,,,,,,,,,0,,,77,0
27299,note_on,5,0,0,,,,,,,,,0,,,79,80
27311,note_on,911,0,1,,,,,,,,,0,,,62,0
27353,note_on,54,0,0,,,,,,,,,0,,,79,0
27360,note_on,7,0,0,,,,,,,,,0,,,76,80
27360,note_on,49,0,1,,,,,,,,,0,,,60,80
27815,note_on,455,0,0,,,,,,,,,0,,,76,0
27840,note_on,25,0,0,,,,,,,,,0,,,74,80
28067,note_on,227,0,0,,,,,,,,,0,,,74,0
28080,note_on,13,0,0,,,,,,,,,0,,,72,80
28199,note_on,119,0,0,,,,,,,,,0,,,72,0
28271,note_on,911,0,1,,,,,,,,,0,,,60,0
28320,note_on,49,0,1,,,,,,,,,0,,,53,80
28320,note_on,121,0,0,,,,,,,,,0,,,71,80
28547,note_on,227,0,0,,,,,,,,,0,,,71,0
28560,note_on,13,0,0,,,,,,,,,0,,,69,80
28679,note_on,119,0,0,,,,,,,,,0,,,69,0
28775,note_on,455,0,1,,,,,,,,,0,,,53,0
28800,note_on,25,0,1,,,,,,,,,0,,,52,80
28800,note_on,121,0,0,,,,,,,,,0,,,67,80
29255,note_on,455,0,0,,,,,,,,,0,,,67,0
29255,note_on,455,0,1,,,,,,,,,0,,,52,0
29280,note_on,25,0,1,,,,,,,,,0,,,50,80
29280,note_on,25,0,0,,,,,,,,,0,,,65,80
29334,note_on,54,0,0,,,,,,,,,0,,,65,0
29339,note_on,5,0,0,,,,,,,,,0,,,67,80
29393,note_on,54,0,0,,,,,,,,,0,,,67,0
29400,note_on,7,0,0,,,,,,,,,0,,,65,80
29454,note_on,54,0,0,,,,,,,,,0,,,65,0
29459,note_on,5,0,0,,,,,,,,,0,,,67,80
29513,note_on,54,0,0,,,,,,,,,0,,,67,0
29520,note_on,7,0,0,,,,,,,,,0,,,65,80
29574,note_on,54,0,0,,,,,,,,,0,,,65,0
29579,note_on,5,0,0,,,,,,,,,0,,,67,80
29633,note_on,54,0,0,,,,,,,,,0,,,67,0
29640,note_on,7,0,0,,,,,,,,,0,,,65,80
29694,note_on,54,0,0,,,,,,,,,0,,,65,0
29699,note_on,5,0,0,,,,,,,,,0,,,67,80
29753,note_on,54,0,0,,,,,,,,,0,,,67,0
29760,note_on,7,0,0,,,,,,,,,0,,,65,80
29814,note_on,54,0,0,,,,,,,,,0,,,65,0
29819,note_on,5,0,0,,,,,,,,,0,,,67,80
29873,note_on,54,0,0,,,,,,,,,0,,,67,0
29880,note_on,7,0,0,,,,,,,,,0,,,65,80
29934,note_on,54,0,0,,,,,,,,,0,,,65,0
29939,note_on,5,0,0,,,,,,,,,0,,,67,80
29993,note_on,54,0,0,,,,,,,,,0,,,67,0
30000,note_on,7,0,0,,,,,,,,,0,,,65,80
30054,note_on,54,0,0,,,,,,,,,0,,,65,0
30059,note_on,5,0,0,,,,,,,,,0,,,67,80
30113,note_on,54,0,0,,,,,,,,,0,,,67,0
30120,note_on,7,0,0,,,,,,,,,0,,,65,80
30174,note_on,54,0,0,,,,,,,,,0,,,65,0
30179,note_on,5,0,0,,,,,,,,,0,,,67,80
30191,note_on,911,0,1,,,,,,,,,0,,,50,0
30233,note_on,54,0,0,,,,,,,,,0,,,67,0
30240,note_on,7,0,0,,,,,,,,,0,,,64,80
30240,note_on,49,0,1,,,,,,,,,0,,,48,80
30467,note_on,227,0,0,,,,,,,,,0,,,64,0
30480,note_on,13,0,0,,,,,,,,,0,,,67,80
30707,note_on,227,0,0,,,,,,,,,0,,,67,0
30720,note_on,13,0,0,,,,,,,,,0,,,69,80
30947,note_on,227,0,0,,,,,,,,,0,,,69,0
30960,note_on,13,0,0,,,,,,,,,0,,,71,80
31151,note_on,911,0,1,,,,,,,,,0,,,48,0
31187,note_on,227,0,0,,,,,,,,,0,,,71,0
31200,note_on,49,0,1,,,,,,,,,0,,,57,80
31200,note_on,13,0,0,,,,,,,,,0,,,72,80
31655,note_on,455,0,1,,,,,,,,,0,,,57,0
31655,note_on,455,0,0,,,,,,,,,0,,,72,0
31680,note_on,25,0,0,,,,,,,,,0,,,77,80
31680,note_on,25,0,1,,,,,,,,,0,,,53,80
32135,note_on,455,0,1,,,,,,,,,0,,,53,0
32135,note_on,455,0,0,,,,,,,,,0,,,77,0
32160,note_on,25,0,0,,,,,,,,,0,,,74,80
32160,note_on,25,0,1,,,,,,,,,0,,,55,80
32214,note_on,54,0,0,,,,,,,,,0,,,74,0
32219,note_on,5,0,0,,,,,,,,,0,,,76,80
32273,note_on,54,0,0,,,,,,,,,0,,,76,0
32280,note_on,7,0,0,,,,,,,,,0,,,74,80
32334,note_on,54,0,0,,,,,,,,,0,,,74,0
32339,note_on,5,0,0,,,,,,,,,0,,,76,80
32393,note_on,54,0,0,,,,,,,,,0,,,76,0
32400,note_on,7,0,0,,,,,,,,,0,,,74,80
32454,note_on,54,0,0,,,,,,,,,0,,,74,0
32459,note_on,5,0,0,,,,,,,,,0,,,76,80
32513,note_on,54,0,0,,,,,,,,,0,,,76,0
32520,note_on,7,0,0,,,,,,,,,0,,,74,80
32574,note_on,54,0,0,,,,,,,,,0,,,74,0
32579,note_on,5,0,0,,,,,,,,,0,,,76,80
32615,note_on,455,0,1,,,,,,,,,0,,,55,0
32633,note_on,54,0,0,,,,,,,,,0,,,76,0
32640,note_on,25,0,1,,,,,,,,,0,,,43,80
32640,note_on,7,0,0,,,,,,,,,0,,,74,80
32694,note_on,54,0,0,,,,,,,,,0,,,74,0
32699,note_on,5,0,0,,,,,,,,,0,,,76,80
32753,note_on,54,0,0,,,,,,,,,0,,,76,0
32760,note_on,7,0,0,,,,,,,,,0,,,74,80
32814,note_on,54,0,0,,,,,,,,,0,,,74,0
32819,note_on,5,0,0,,,,,,,,,0,,,76,80
32873,note_on,54,0,0,,,,,,,,,0,,,76,0
32880,note_on,7,0,0,,,,,,,,,0,,,74,80
32934,note_on,54,0,0,,,,,,,,,0,,,74,0
32939,note_on,5,0,0,,,,,,,,,0,,,76,80
32993,note_on,54,0,0,,,,,,,,,0,,,76,0
33000,note_on,7,0,0,,,,,,,,,0,,,74,80
33054,note_on,54,0,0,,,,,,,,,0,,,74,0
33059,note_on,5,0,0,,,,,,,,,0,,,76,80
33095,note_on,455,0,1,,,,,,,,,0,,,43,0
33113,note_on,54,0,0,,,,,,,,,0,,,76,0
33120,note_on,7,0,0,,,,,,,,,0,,,72,80
33120,note_on,25,0,1,,,,,,,,,0,,,48,80
34031,note_on,911,0,1,,,,,,,,,0,,,48,0
34080,note_on,49,0,1,,,,,,,,,0,,,52,80
34487,note_on,1367,0,0,,,,,,,,,0,,,72,0
34535,note_on,455,0,1,,,,,,,,,0,,,52,0
34560,note_on,25,0,1,,,,,,,,,0,,,49,80
35015,note_on,455,0,1,,,,,,,,,0,,,49,0
35040,note_on,25,0,1,,,,,,,,,0,,,45,80
35040,note_on,553,0,0,,,,,,,,,0,,,76,80
35495,note_on,455,0,0,,,,,,,,,0,,,76,0
35495,note_on,455,0,1,,,,,,,,,0,,,45,0
35520,note_on,25,0,0,,,,,,,,,0,,,77,80
35520,note_on,25,0,1,,,,,,,,,0,,,50,80
35975,note_on,455,0,1,,,,,,,,,0,,,50,0
35975,note_on,455,0,0,,,,,,,,,0,,,77,0
36000,note_on,25,0,1,,,,,,,,,0,,,57,80
36000,note_on,25,0,0,,,,,,,,,0,,,73,80
36054,note_on,54,0,0,,,,,,,,,0,,,73,0
36059,note_on,5,0,0,,,,,,,,,0,,,74,80
36113,note_on,54,0,0,,,,,,,,,0,,,74,0
36120,note_on,7,0,0,,,,,,,,,0,,,73,80
36174,note_on,54,0,0,,,,,,,,,0,,,73,0
36179,note_on,5,0,0,,,,,,,,,0,,,74,80
36233,note_on,54,0,0,,,,,,,,,0,,,74,0
36240,note_on,7,0,0,,,,,,,,,0,,,73,80
36294,note_on,54,0,0,,,,,,,,,0,,,73,0
36299,note_on,5,0,0,,,,,,,,,0,,,74,80
36353,note_on,54,0,0,,,,,,,,,0,,,74,0
36360,note_on,7,0,0,,,,,,,,,0,,,73,80
36414,note_on,54,0,0,,,,,,,,,0,,,73,0
36419,note_on,5,0,0,,,,,,,,,0,,,74,80
36473,note_on,54,0,0,,,,,,,,,0,,,74,0
36480,note_on,7,0,0,,,,,,,,,0,,,73,80
36534,note_on,54,0,0,,,,,,,,,0,,,73,0
36539,note_on,5,0,0,,,,,,,,,0,,,74,80
36593,note_on,54,0,0,,,,,,,,,0,,,74,0
36600,note_on,7,0,0,,,,,,,,,0,,,73,80
36654,note_on,54,0,0,,,,,,,,,0,,,73,0
36659,note_on,5,0,0,,,,,,,,,0,,,74,80
36713,note_on,54,0,0,,,,,,,,,0,,,74,0
36720,note_on,7,0,0,,,,,,,,,0,,,73,80
36774,note_on,54,0,0,,,,,,,,,0,,,73,0
36779,note_on,5,0,0,,,,,,,,,0,,,74,80
36833,note_on,54,0,0,,,,,,,,,0,,,74,0
36840,note_on,7,0,0,,,,,,,,,0,,,73,80
36894,note_on,54,0,0,,,,,,,,,0,,,73,0
36899,note_on,5,0,0,,,,,,,,,0,,,74,80
36911,note_on,911,0,1,,,,,,,,,0,,,57,0
36953,note_on,54,0,0,,,,,,,,,0,,,74,0
36960,note_on,7,0,0,,,,,,,,,0,,,74,80
36960,note_on,49,0,1,,,,,,,,,0,,,62,80
37415,note_on,455,0,1,,,,,,,,,0,,,62,0
37415,note_on,455,0,0,,,,,,,,,0,,,74,0
37440,note_on,25,0,1,,,,,,,,,0,,,57,80
37440,note_on,25,0,0,,,,,,,,,0,,,76,80
37895,note_on,455,0,0,,,,,,,,,0,,,76,0
37920,note_on,25,0,0,,,,,,,,,0,,,77,80
38351,note_on,911,0,1,,,,,,,,,0,,,57,0
38400,note_on,49,0,1,,,,,,,,,0,,,62,80
38831,note_on,911,0,0,,,,,,,,,0,,,77,0
38855,note_on,455,0,1,,,,,,,,,0,,,62,0
38880,note_on,25,0,1,,,,,,,,,0,,,57,80
38880,note_on,49,0,0,,,,,,,,,0,,,73,80
38934,note_on,54,0,0,,,,,,,,,0,,,73,0
38939,note_on,5,0,0,,,,,,,,,0,,,74,80
38993,note_on,54,0,0,,,,,,,,,0,,,74,0
39000,note_on,7,0,0,,,,,,,,,0,,,73,80
39054,note_on,54,0,0,,,,,,,,,0,,,73,0
39059,note_on,5,0,0,,,,,,,,,0,,,74,80
39113,note_on,54,0,0,,,,,,,,,0,,,74,0
39120,note_on,7,0,0,,,,,,,,,0,,,73,80
39174,note_on,54,0,0,,,,,,,,,0,,,73,0
39179,note_on,5,0,0,,,,,,,,,0,,,74,80
39233,note_on,54,0,0,,,,,,,,,0,,,74,0
39240,note_on,7,0,0,,,,,,,,,0,,,73,80
39294,note_on,54,0,0,,,,,,,,,0,,,73,0
39299,note_on,5,0,0,,,,,,,,,0,,,74,80
39353,note_on,54,0,0,,,,,,,,,0,,,74,0
39360,note_on,7,0,0,,,,,,,,,0,,,73,80
39414,note_on,54,0,0,,,,,,,,,0,,,73,0
39419,note_on,5,0,0,,,,,,,,,0,,,74,80
39473,note_on,54,0,0,,,,,,,,,0,,,74,0
39480,note_on,7,0,0,,,,,,,,,0,,,73,80
39534,note_on,54,0,0,,,,,,,,,0,,,73,0
39539,note_on,5,0,0,,,,,,,,,0,,,74,80
39593,note_on,54,0,0,,,,,,,,,0,,,74,0
39600,note_on,7,0,0,,,,,,,,,0,,,73,80
39654,note_on,54,0,0,,,,,,,,,0,,,73,0
39659,note_on,5,0,0,,,,,,,,,0,,,74,80
39713,note_on,54,0,0,,,,,,,,,0,,,74,0
39720,note_on,7,0,0,,,,,,,,,0,,,73,80
39774,note_on,54,0,0,,,,,,,,,0,,,73,0
39779,note_on,5,0,0,,,,,,,,,0,,,74,80
39791,note_on,911,0,1,,,,,,,,,0,,,57,0
39833,note_on,54,0,0,,,,,,,,,0,,,74,0
39840,note_on,49,0,1,,,,,,,,,0,,,50,80
39840,note_on,7,0,0,,,,,,,,,0,,,74,80
40295,note_on,455,0,1,,,,,,,,,0,,,50,0
40295,note_on,455,0,0,,,,,,,,,0,,,74,0
40320,note_on,25,0,1,,,,,,,,,0,,,55,80
40775,note_on,455,0,1,,,,,,,,,0,,,55,0
40800,note_on,505,0,0,,,,,,,,,0,,,74,80
40800,note_on,25,0,1,,,,,,,,,0,,,59,80
41255,note_on,455,0,1,,,,,,,,,0,,,59,0
41255,note_on,455,0,0,,,,,,,,,0,,,74,0
41280,note_on,25,0,0,,,,,,,,,0,,,76,80
41280,note_on,25,0,1,,,,,,,,,0,,,60,80
41735,note_on,455,0,1,,,,,,,,,0,,,60,0
41735,note_on,455,0,0,,,,,,,,,0,,,76,0
41760,note_on,25,0,0,,,,,,,,,0,,,71,80
41760,note_on,25,0,1,,,,,,,,,0,,,55,80
41814,note_on,54,0,0,,,,,,,,,0,,,71,0
41819,note_on,5,0,0,,,,,,,,,0,,,72,80
41873,note_on,54,0,0,,,,,,,,,0,,,72,0
41880,note_on,7,0,0,,,,,,,,,0,,,71,80
41934,note_on,54,0,0,,,,,,,,,0,,,71,0
41939,note_on,5,0,0,,,,,,,,,0,,,72,80
41993,note_on,54,0,0,,,,,,,,,0,,,72,0
42000,note_on,7,0,0,,,,,,,,,0,,,71,80
42054,note_on,54,0,0,,,,,,,,,0,,,71,0
42059,note_on,5,0,0,,,,,,,,,0,,,72,80
42113,note_on,54,0,0,,,,,,,,,0,,,72,0
42120,note_on,7,0,0,,,,,,,,,0,,,71,80
42174,note_on,54,0,0,,,,,,,,,0,,,71,0
42179,note_on,5,0,0,,,,,,,,,0,,,72,80
42233,note_on,54,0,0,,,,,,,,,0,,,72,0
42240,note_on,7,0,0,,,,,,,,,0,,,71,80
42294,note_on,54,0,0,,,,,,,,,0,,,71,0
42299,note_on,5,0,0,,,,,,,,,0,,,72,80
42353,note_on,54,0,0,,,,,,,,,0,,,72,0
42360,note_on,7,0,0,,,,,,,,,0,,,71,80
42414,note_on,54,0,0,,,,,,,,,0,,,71,0
42419,note_on,5,0,0,,,,,,,,,0,,,72,80
42473,note_on,54,0,0,,,,,,,,,0,,,72,0
42480,note_on,7,0,0,,,,,,,,,0,,,71,80
42534,note_on,54,0,0,,,,,,,,,0,,,71,0
42539,note_on,5,0,0,,,,,,,,,0,,,72,80
42593,note_on,54,0,0,,,,,,,,,0,,,72,0
42600,note_on,7,0,0,,,,,,,,,0,,,71,80
42654,note_on,54,0,0,,,,,,,,,0,,,71,0
42659,note_on,5,0,0,,,,,,,,,0,,,72,80
42671,note_on,911,0,1,,,,,,,,,0,,,55,0
42713,note_on,54,0,0,,,,,,,,,0,,,72,0
42720,note_on,7,0,0,,,,,,,,,0,,,72,80
42720,note_on,49,0,1,,,,,,,,,0,,,60,80
43175,note_on,455,0,1,,,,,,,,,0,,,60,0
43175,note_on,455,0,0,,,,,,,,,0,,,72,0
43200,note_on,25,0,1,,,,,,,,,0,,,55,80
43200,note_on,25,0,0,,,,,,,,,0,,,74,80
44111,note_on,911,0,0,,,,,,,,,0,,,74,0
44111,note_on,911,0,1,,,,,,,,,0,,,55,0
44160,note_on,49,0,0,,,,,,,,,0,,,76,80
44160,note_on,49,0,1,,,,,,,,,0,,,60,80
44615,note_on,455,0,1,,,,,,,,,0,,,60,0
44615,note_on,455,0,0,,,,,,,,,0,,,76,0
44640,note_on,25,0,1,,,,,,,,,0,,,55,80
44640,note_on,25,0,0,,,,,,,,,0,,,71,80
44694,note_on,54,0,0,,,,,,,,,0,,,71,0
44699,note_on,5,0,0,,,,,,,,,0,,,72,80
44753,note_on,54,0,0,,,,,,,,,0,,,72,0
44760,note_on,7,0,0,,,,,,,,,0,,,71,80
44814,note_on,54,0,0,,,,,,,,,0,,,71,0
44819,note_on,5,0,0,,,,,,,,,0,,,72,80
44873,note_on,54,0,0,,,,,,,,,0,,,72,0
44880,note_on,7,0,0,,,,,,,,,0,,,71,80
44934,note_on,54,0,0,,,,,,,,,0,,,71,0
44939,note_on,5,0,0,,,,,,,,,0,,,72,80
44993,note_on,54,0,0,,,,,,,,,0,,,72,0
45000,note_on,7,0,0,,,,,,,,,0,,,71,80
45054,note_on,54,0,0,,,,,,,,,0,,,71,0
45059,note_on,5,0,0,,,,,,,,,0,,,72,80
45113,note_on,54,0,0,,,,,,,,,0,,,72,0
45120,note_on,7,0,0,,,,,,,,,0,,,71,80
45174,note_on,54,0,0,,,,,,,,,0,,,71,0
45179,note_on,5,0,0,,,,,,,,,0,,,72,80
45233,note_on,54,0,0,,,,,,,,,0,,,72,0
45240,note_on,7,0,0,,,,,,,,,0,,,71,80
45294,note_on,54,0,0,,,,,,,,,0,,,71,0
45299,note_on,5,0,0,,,,,,,,,0,,,72,80
45353,note_on,54,0,0,,,,,,,,,0,,,72,0
45360,note_on,7,0,0,,,,,,,,,0,,,71,80
45414,note_on,54,0,0,,,,,,,,,0,,,71,0
45419,note_on,5,0,0,,,,,,,,,0,,,72,80
45473,note_on,54,0,0,,,,,,,,,0,,,72,0
45480,note_on,7,0,0,,,,,,,,,0,,,71,80
45534,note_on,54,0,0,,,,,,,,,0,,,71,0
45539,note_on,5,0,0,,,,,,,,,0,,,72,80
45551,note_on,911,0,1,,,,,,,,,0,,,55,0
45593,note_on,54,0,0,,,,,,,,,0,,,72,0
45600,note_on,7,0,0,,,,,,,,,0,,,72,80
45600,note_on,49,0,1,,,,,,,,,0,,,48,80
46055,note_on,455,0,1,,,,,,,,,0,,,48,0
46055,note_on,455,0,0,,,,,,,,,0,,,72,0
46080,note_on,25,0,1,,,,,,,,,0,,,52,80
46535,note_on,455,0,1,,,,,,,,,0,,,52,0
46560,note_on,505,0,0,,,,,,,,,0,,,71,80
46560,note_on,25,0,1,,,,,,,,,0,,,56,80
47015,note_on,455,0,0,,,,,,,,,0,,,71,0
47015,note_on,455,0,1,,,,,,,,,0,,,56,0
47040,note_on,25,0,0,,,,,,,,,0,,,72,80
47040,note_on,25,0,1,,,,,,,,,0,,,57,80
47495,note_on,455,0,1,,,,,,,,,0,,,57,0
47495,note_on,455,0,0,,,,,,,,,0,,,72,0
47520,note_on,25,0,1,,,,,,,,,0,,,52,80
47520,note_on,25,0,0,,,,,,,,,0,,,68,80
48431,note_on,911,0,1,,,,,,,,,0,,,52,0
48431,note_on,911,0,0,,,,,,,,,0,,,68,0
48480,note_on,49,0,0,,,,,,,,,0,,,69,80
48480,note_on,49,0,1,,,,,,,,,0,,,45,80
48935,note_on,455,0,0,,,,,,,,,0,,,69,0
48935,note_on,455,0,1,,,,,,,,,0,,,45,0
48960,note_on,25,0,1,,,,,,,,,0,,,48,80
48960,note_on,25,0,0,,,,,,,,,0,,,64,80
49415,note_on,455,0,0,,,,,,,,,0,,,64,0
49415,note_on,455,0,1,,,,,,,,,0,,,48,0
49440,note_on,25,0,1,,,,,,,,,0,,,50,80
49440,note_on,25,0,0,,,,,,,,,0,,,65,80
49494,note_on,54,0,0,,,,,,,,,0,,,65,0
49499,note_on,5,0,0,,,,,,,,,0,,,67,80
49553,note_on,54,0,0,,,,,,,,,0,,,67,0
49560,note_on,7,0,0,,,,,,,,,0,,,65,80
49614,note_on,54,0,0,,,,,,,,,0,,,65,0
49619,note_on,5,0,0,,,,,,,,,0,,,67,80
49673,note_on,54,0,0,,,,,,,,,0,,,67,0
49680,note_on,7,0,0,,,,,,,,,0,,,65,80
49734,note_on,54,0,0,,,,,,,,,0,,,65,0
49739,note_on,5,0,0,,,,,,,,,0,,,67,80
49793,note_on,54,0,0,,,,,,,,,0,,,67,0
49800,note_on,7,0,0,,,,,,,,,0,,,65,80
49854,note_on,54,0,0,,,,,,,,,0,,,65,0
49859,note_on,5,0,0,,,,,,,,,0,,,67,80
49913,note_on,54,0,0,,,,,,,,,0,,,67,0
49920,note_on,7,0,0,,,,,,,,,0,,,65,80
49974,note_on,54,0,0,,,,,,,,,0,,,65,0
49979,note_on,5,0,0,,,,,,,,,0,,,67,80
50033,note_on,54,0,0,,,,,,,,,0,,,67,0
50040,note_on,7,0,0,,,,,,,,,0,,,65,80
50094,note_on,54,0,0,,,,,,,,,0,,,65,0
50099,note_on,5,0,0,,,,,,,,,0,,,67,80
50153,note_on,54,0,0,,,,,,,,,0,,,67,0
50160,note_on,7,0,0,,,,,,,,,0,,,65,80
50214,note_on,54,0,0,,,,,,,,,0,,,65,0
50219,note_on,5,0,0,,,,,,,,,0,,,67,80
50273,note_on,54,0,0,,,,,,,,,0,,,67,0
50280,note_on,7,0,0,,,,,,,,,0,,,65,80
50334,note_on,54,0,0,,,,,,,,,0,,,65,0
50339,note_on,5,0,0,,,,,,,,,0,,,67,80
50351,note_on,911,0,1,,,,,,,,,0,,,50,0
50393,note_on,54,0,0,,,,,,,,,0,,,67,0
50400,note_on,7,0,0,,,,,,,,,0,,,64,80
50400,note_on,49,0,1,,,,,,,,,0,,,52,80
51767,note_on,1367,0,0,,,,,,,,,0,,,64,0
51767,note_on,1367,0,1,,,,,,,,,0,,,52,0
51840,note_on,73,0,0,,,,,,,,,0,,,81,80
51840,note_on,73,0,1,,,,,,,,,0,,,48,80
52295,note_on,455,0,0,,,,,,,,,0,,,81,0
52295,note_on,455,0,1,,,,,,,,,0,,,48,0
52320,note_on,25,0,1,,,,,,,,,0,,,57,80
52320,note_on,25,0,0,,,,,,,,,0,,,79,80
52547,note_on,227,0,0,,,,,,,,,0,,,79,0
52560,note_on,13,0,0,,,,,,,,,0,,,77,80
52775,note_on,455,0,1,,,,,,,,,0,,,57,0
52787,note_on,227,0,0,,,,,,,,,0,,,77,0
52800,note_on,13,0,0,,,,,,,,,0,,,76,80
52800,note_on,25,0,1,,,,,,,,,0,,,47,80
53027,note_on,227,0,0,,,,,,,,,0,,,76,0
53040,note_on,13,0,0,,,,,,,,,0,,,74,80
53255,note_on,455,0,1,,,,,,,,,0,,,47,0
53267,note_on,227,0,0,,,,,,,,,0,,,74,0
53280,note_on,13,0,0,,,,,,,,,0,,,72,80
53280,note_on,25,0,1,,,,,,,,,0,,,45,80
53335,note_on,55,0,0,,,,,,,,,0,,,72,0
53339,note_on,4,0,0,,,,,,,,,0,,,74,80
53394,note_on,55,0,0,,,,,,,,,0,,,74,0
53399,note_on,5,0,0,,,,,,,,,0,,,72,80
53454,note_on,55,0,0,,,,,,,,,0,,,72,0
53460,note_on,6,0,0,,,,,,,,,0,,,74,80
53515,note_on,55,0,0,,,,,,,,,0,,,74,0
53519,note_on,4,0,0,,,,,,,,,0,,,72,80
53574,note_on,55,0,0,,,,,,,,,0,,,72,0
53579,note_on,5,0,0,,,,,,,,,0,,,74,80
53634,note_on,55,0,0,,,,,,,,,0,,,74,0
53640,note_on,6,0,0,,,,,,,,,0,,,72,80
53695,note_on,55,0,0,,,,,,,,,0,,,72,0
53699,note_on,4,0,0,,,,,,,,,0,,,74,80
53735,note_on,455,0,1,,,,,,,,,0,,,45,0
53754,note_on,55,0,0,,,,,,,,,0,,,74,0
53759,note_on,5,0,0,,,,,,,,,0,,,72,80
53760,note_on,25,0,1,,,,,,,,,0,,,52,80
53814,note_on,55,0,0,,,,,,,,,0,,,72,0
53820,note_on,6,0,0,,,,,,,,,0,,,74,80
53875,note_on,55,0,0,,,,,,,,,0,,,74,0
53879,note_on,4,0,0,,,,,,,,,0,,,72,80
53934,note_on,55,0,0,,,,,,,,,0,,,72,0
53939,note_on,5,0,0,,,,,,,,,0,,,74,80
53994,note_on,55,0,0,,,,,,,,,0,,,74,0
54000,note_on,6,0,0,,,,,,,,,0,,,71,80
54215,note_on,455,0,1,,,,,,,,,0,,,52,0
54227,note_on,227,0,0,,,,,,,,,0,,,71,0
54240,note_on,25,0,1,,,,,,,,,0,,,53,80
54240,note_on,13,0,0,,,,,,,,,0,,,69,80
54695,note_on,455,0,0,,,,,,,,,0,,,69,0
54695,note_on,455,0,1,,,,,,,,,0,,,53,0
54720,note_on,25,0,1,,,,,,,,,0,,,50,80
54720,note_on,25,0,0,,,,,,,,,0,,,71,80
55175,note_on,455,0,0,,,,,,,,,0,,,71,0
55175,note_on,455,0,1,,,,,,,,,0,,,50,0
55200,note_on,25,0,1,,,,,,,,,0,,,52,80
55200,note_on,25,0,0,,,,,,,,,0,,,68,80
55254,note_on,54,0,0,,,,,,,,,0,,,68,0
55259,note_on,5,0,0,,,,,,,,,0,,,69,80
55313,note_on,54,0,0,,,,,,,,,0,,,69,0
55320,note_on,7,0,0,,,,,,,,,0,,,68,80
55374,note_on,54,0,0,,,,,,,,,0,,,68,0
55379,note_on,5,0,0,,,,,,,,,0,,,69,80
55433,note_on,54,0,0,,,,,,,,,0,,,69,0
55440,note_on,7,0,0,,,,,,,,,0,,,68,80
55494,note_on,54,0,0,,,,,,,,,0,,,68,0
55499,note_on,5,0,0,,,,,,,,,0,,,69,80
55553,note_on,54,0,0,,,,,,,,,0,,,69,0
55560,note_on,7,0,0,,,,,,,,,0,,,68,80
55614,note_on,54,0,0,,,,,,,,,0,,,68,0
55619,note_on,5,0,0,,,,,,,,,0,,,69,80
55655,note_on,455,0,1,,,,,,,,,0,,,52,0
55673,note_on,54,0,0,,,,,,,,,0,,,69,0
55680,note_on,7,0,0,,,,,,,,,0,,,68,80
55680,note_on,25,0,1,,,,,,,,,0,,,40,80
55734,note_on,54,0,0,,,,,,,,,0,,,68,0
55739,note_on,5,0,0,,,,,,,,,0,,,69,80
55793,note_on,54,0,0,,,,,,,,,0,,,69,0
55800,note_on,7,0,0,,,,,,,,,0,,,68,80
55854,note_on,54,0,0,,,,,,,,,0,,,68,0
55859,note_on,5,0,0,,,,,,,,,0,,,69,80
55913,note_on,54,0,0,,,,,,,,,0,,,69,0
55920,note_on,7,0,0,,,,,,,,,0,,,68,80
55974,note_on,54,0,0,,,,,,,,,0,,,68,0
55979,note_on,5,0,0,,,,,,,,,0,,,69,80
56033,note_on,54,0,0,,,,,,,,,0,,,69,0
56040,note_on,7,0,0,,,,,,,,,0,,,68,80
56094,note_on,54,0,0,,,,,,,,,0,,,68,0
56099,note_on,5,0,0,,,,,,,,,0,,,69,80
56135,note_on,455,0,1,,,,,,,,,0,,,40,0
56153,note_on,54,0,0,,,,,,,,,0,,,69,0
56160,note_on,25,0,1,,,,,,,,,0,,,45,80
56160,note_on,7,0,0,,,,,,,,,0,,,69,80
57527,note_on,1367,0,0,,,,,,,,,0,,,69,0
57527,note_on,1367,0,1,,,,,,,,,0,,,45,0
57600,note_on,73,0,1,,,,,,,,,0,,,49,80
58055,note_on,455,0,1,,,,,,,,,0,,,49,0
58080,note_on,25,0,1,,,,,,,,,0,,,45,80
58080,note_on,553,0,0,,,,,,,,,0,,,76,80
58535,note_on,455,0,1,,,,,,,,,0,,,45,0
58535,note_on,455,0,0,,,,,,,,,0,,,76,0
58560,note_on,25,0,1,,,,,,,,,0,,,50,80
58560,note_on,25,0,0,,,,,,,,,0,,,77,80
59015,note_on,455,0,1,,,,,,,,,0,,,50,0
59015,note_on,455,0,0,,,,,,,,,0,,,77,0
59040,note_on,25,0,1,,,,,,,,,0,,,57,80
59040,note_on,25,0,0,,,,,,,,,0,,,73,80
59094,note_on,54,0,0,,,,,,,,,0,,,73,0
59099,note_on,5,0,0,,,,,,,,,0,,,74,80
59153,note_on,54,0,0,,,,,,,,,0,,,74,0
59160,note_on,7,0,0,,,,,,,,,0,,,73,80
59214,note_on,54,0,0,,,,,,,,,0,,,73,0
59219,note_on,5,0,0,,,,,,,,,0,,,74,80
59273,note_on,54,0,0,,,,,,,,,0,,,74,0
59280,note_on,7,0,0,,,,,,,,,0,,,73,80
59334,note_on,54,0,0,,,,,,,,,0,,,73,0
59339,note_on,5,0,0,,,,,,,,,0,,,74,80
59393,note_on,54,0,0,,,,,,,,,0,,,74,0
59400,note_on,7,0,0,,,,,,,,,0,,,73,80
59454,note_on,54,0,0,,,,,,,,,0,,,73,0
59459,note_on,5,0,0,,,,,,,,,0,,,74,80
59513,note_on,54,0,0,,,,,,,,,0,,,74,0
59520,note_on,7,0,0,,,,,,,,,0,,,73,80
59574,note_on,54,0,0,,,,,,,,,0,,,73,0
59579,note_on,5,0,0,,,,,,,,,0,,,74,80
59633,note_on,54,0,0,,,,,,,,,0,,,74,0
59640,note_on,7,0,0,,,,,,,,,0,,,73,80
59694,note_on,54,0,0,,,,,,,,,0,,,73,0
59699,note_on,5,0,0,,,,,,,,,0,,,74,80
59753,note_on,54,0,0,,,,,,,,,0,,,74,0
59760,note_on,7,0,0,,,,,,,,,0,,,73,80
59814,note_on,54,0,0,,,,,,,,,0,,,73,0
59819,note_on,5,0,0,,,,,,,,,0,,,74,80
59873,note_on,54,0,0,,,,,,,,,0,,,74,0
59880,note_on,7,0,0,,,,,,,,,0,,,73,80
59934,note_on,54,0,0,,,,,,,,,0,,,73,0
59939,note_on,5,0,0,,,,,,,,,0,,,74,80
59951,note_on,911,0,1,,,,,,,,,0,,,57,0
59993,note_on,54,0,0,,,,,,,,,0,,,74,0
60000,note_on,7,0,0,,,,,,,,,0,,,74,80
60000,note_on,49,0,1,,,,,,,,,0,,,62,80
60455,note_on,455,0,1,,,,,,,,,0,,,62,0
60455,note_on,455,0,0,,,,,,,,,0,,,74,0
60480,note_on,25,0,1,,,,,,,,,0,,,57,80
60480,note_on,25,0,0,,,,,,,,,0,,,76,80
60935,note_on,455,0,0,,,,,,,,,0,,,76,0
60960,note_on,25,0,0,,,,,,,,,0,,,77,80
61391,note_on,911,0,1,,,,,,,,,0,,,57,0
61440,note_on,49,0,1,,,,,,,,,0,,,62,80
61871,note_on,911,0,0,,,,,,,,,0,,,77,0
61895,note_on,455,0,1,,,,,,,,,0,,,62,0
61920,note_on,49,0,0,,,,,,,,,0,,,73,80
61920,note_on,25,0,1,,,,,,,,,0,,,57,80
61974,note_on,54,0,0,,,,,,,,,0,,,73,0
61979,note_on,5,0,0,,,,,,,,,0,,,74,80
62033,note_on,54,0,0,,,,,,,,,0,,,74,0
62040,note_on,7,0,0,,,,,,,,,0,,,73,80
62094,note_on,54,0,0,,,,,,,,,0,,,73,0
62099,note_on,5,0,0,,,,,,,,,0,,,74,80
62153,note_on,54,0,0,,,,,,,,,0,,,74,0
62160,note_on,7,0,0,,,,,,,,,0,,,73,80
62214,note_on,54,0,0,,,,,,,,,0,,,73,0
62219,note_on,5,0,0,,,,,,,,,0,,,74,80
62273,note_on,54,0,0,,,,,,,,,0,,,74,0
62280,note_on,7,0,0,,,,,,,,,0,,,73,80
62334,note_on,54,0,0,,,,,,,,,0,,,73,0
62339,note_on,5,0,0,,,,,,,,,0,,,74,80
62393,note_on,54,0,0,,,,,,,,,0,,,74,0
62400,note_on,7,0,0,,,,,,,,,0,,,73,80
62454,note_on,54,0,0,,,,,,,,,0,,,73,0
62459,note_on,5,0,0,,,,,,,,,0,,,74,80
62513,note_on,54,0,0,,,,,,,,,0,,,74,0
62520,note_on,7,0,0,,,,,,,,,0,,,73,80
62574,note_on,54,0,0,,,,,,,,,0,,,73,0
62579,note_on,5,0,0,,,,,,,,,0,,,74,80
62633,note_on,54,0,0,,,,,,,,,0,,,74,0
62640,note_on,7,0,0,,,,,,,,,0,,,73,80
62694,note_on,54,0,0,,,,,,,,,0,,,73,0
62699,note_on,5,0,0,,,,,,,,,0,,,74,80
62753,note_on,54,0,0,,,,,,,,,0,,,74,0
62760,note_on,7,0,0,,,,,,,,,0,,,73,80
62814,note_on,54,0,0,,,,,,,,,0,,,73,0
62819,note_on,5,0,0,,,,,,,,,0,,,74,80
62831,note_on,911,0,1,,,,,,,,,0,,,57,0
62873,note_on,54,0,0,,,,,,,,,0,,,74,0
62880,note_on,49,0,1,,,,,,,,,0,,,50,80
62880,note_on,7,0,0,,,,,,,,,0,,,74,80
63335,note_on,455,0,1,,,,,,,,,0,,,50,0
63335,note_on,455,0,0,,,,,,,,,0,,,74,0
63360,note_on,25,0,1,,,,,,,,,0,,,55,80
63815,note_on,455,0,1,,,,,,,,,0,,,55,0
63840,note_on,25,0,1,,,,,,,,,0,,,59,80
63840,note_on,505,0,0,,,,,,,,,0,,,74,80
64295,note_on,455,0,0,,,,,,,,,0,,,74,0
64295,note_on,455,0,1,,,,,,,,,0,,,59,0
64320,note_on,25,0,1,,,,,,,,,0,,,60,80
64320,note_on,25,0,0,,,,,,,,,0,,,76,80
64775,note_on,455,0,1,,,,,,,,,0,,,60,0
64775,note_on,455,0,0,,,,,,,,,0,,,76,0
64800,note_on,25,0,0,,,,,,,,,0,,,71,80
64800,note_on,25,0,1,,,,,,,,,0,,,55,80
64854,note_on,54,0,0,,,,,,,,,0,,,71,0
64859,note_on,5,0,0,,,,,,,,,0,,,72,80
64913,note_on,54,0,0,,,,,,,,,0,,,72,0
64920,note_on,7,0,0,,,,,,,,,0,,,71,80
64974,note_on,54,0,0,,,,,,,,,0,,,71,0
64979,note_on,5,0,0,,,,,,,,,0,,,72,80
65033,note_on,54,0,0,,,,,,,,,0,,,72,0
65040,note_on,7,0,0,,,,,,,,,0,,,71,80
65094,note_on,54,0,0,,,,,,,,,0,,,71,0
65099,note_on,5,0,0,,,,,,,,,0,,,72,80
65153,note_on,54,0,0,,,,,,,,,0,,,72,0
65160,note_on,7,0,0,,,,,,,,,0,,,71,80
65214,note_on,54,0,0,,,,,,,,,0,,,71,0
65219,note_on,5,0,0,,,,,,,,,0,,,72,80
65273,note_on,54,0,0,,,,,,,,,0,,,72,0
65280,note_on,7,0,0,,,,,,,,,0,,,71,80
65334,note_on,54,0,0,,,,,,,,,0,,,71,0
65339,note_on,5,0,0,,,,,,,,,0,,,72,80
65393,note_on,54,0,0,,,,,,,,,0,,,72,0
65400,note_on,7,0,0,,,,,,,,,0,,,71,80
65454,note_on,54,0,0,,,,,,,,,0,,,71,0
65459,note_on,5,0,0,,,,,,,,,0,,,72,80
65513,note_on,54,0,0,,,,,,,,,0,,,72,0
65520,note_on,7,0,0,,,,,,,,,0,,,71,80
65574,note_on,54,0,0,,,,,,,,,0,,,71,0
65579,note_on,5,0,0,,,,,,,,,0,,,72,80
65633,note_on,54,0,0,,,,,,,,,0,,,72,0
65640,note_on,7,0,0,,,,,,,,,0,,,71,80
65694,note_on,54,0,0,,,,,,,,,0,,,71,0
65699,note_on,5,0,0,,,,,,,,,0,,,72,80
65711,note_on,911,0,1,,,,,,,,,0,,,55,0
65753,note_on,54,0,0,,,,,,,,,0,,,72,0
65760,note_on,49,0,1,,,,,,,,,0,,,60,80
65760,note_on,7,0,0,,,,,,,,,0,,,72,80
66215,note_on,455,0,1,,,,,,,,,0,,,60,0
66215,note_on,455,0,0,,,,,,,,,0,,,72,0
66240,note_on,25,0,0,,,,,,,,,0,,,74,80
66240,note_on,25,0,1,,,,,,,,,0,,,55,80
67151,note_on,911,0,0,,,,,,,,,0,,,74,0
67151,note_on,911,0,1,,,,,,,,,0,,,55,0
67200,note_on,49,0,1,,,,,,,,,0,,,60,80
67200,note_on,49,0,0,,,,,,,,,0,,,76,80
67655,note_on,455,0,0,,,,,,,,,0,,,76,0
67655,note_on,455,0,1,,,,,,,,,0,,,60,0
67680,note_on,25,0,1,,,,,,,,,0,,,55,80
67680,note_on,25,0,0,,,,,,,,,0,,,71,80
67734,note_on,54,0,0,,,,,,,,,0,,,71,0
67739,note_on,5,0,0,,,,,,,,,0,,,72,80
67793,note_on,54,0,0,,,,,,,,,0,,,72,0
67800,note_on,7,0,0,,,,,,,,,0,,,71,80
67854,note_on,54,0,0,,,,,,,,,0,,,71,0
67859,note_on,5,0,0,,,,,,,,,0,,,72,80
67913,note_on,54,0,0,,,,,,,,,0,,,72,0
67920,note_on,7,0,0,,,,,,,,,0,,,71,80
67974,note_on,54,0,0,,,,,,,,,0,,,71,0
67979,note_on,5,0,0,,,,,,,,,0,,,72,80
68033,note_on,54,0,0,,,,,,,,,0,,,72,0
68040,note_on,7,0,0,,,,,,,,,0,,,71,80
68094,note_on,54,0,0,,,,,,,,,0,,,71,0
68099,note_on,5,0,0,,,,,,,,,0,,,72,80
68153,note_on,54,0,0,,,,,,,,,0,,,72,0
68160,note_on,7,0,0,,,,,,,,,0,,,71,80
68214,note_on,54,0,0,,,,,,,,,0,,,71,0
68219,note_on,5,0,0,,,,,,,,,0,,,72,80
68273,note_on,54,0,0,,,,,,,,,0,,,72,0
68280,note_on,7,0,0,,,,,,,,,0,,,71,80
68334,note_on,54,0,0,,,,,,,,,0,,,71,0
68339,note_on,5,0,0,,,,,,,,,0,,,72,80
68393,note_on,54,0,0,,,,,,,,,0,,,72,0
68400,note_on,7,0,0,,,,,,,,,0,,,71,80
68454,note_on,54,0,0,,,,,,,,,0,,,71,0
68459,note_on,5,0,0,,,,,,,,,0,,,72,80
68513,note_on,54,0,0,,,,,,,,,0,,,72,0
68520,note_on,7,0,0,,,,,,,,,0,,,71,80
68574,note_on,54,0,0,,,,,,,,,0,,,71,0
68579,note_on,5,0,0,,,,,,,,,0,,,72,80
68591,note_on,911,0,1,,,,,,,,,0,,,55,0
68633,note_on,54,0,0,,,,,,,,,0,,,72,0
68640,note_on,49,0,1,,,,,,,,,0,,,48,80
68640,note_on,7,0,0,,,,,,,,,0,,,72,80
69095,note_on,455,0,0,,,,,,,,,0,,,72,0
69095,note_on,455,0,1,,,,,,,,,0,,,48,0
69120,note_on,25,0,1,,,,,,,,,0,,,52,80
69575,note_on,455,0,1,,,,,,,,,0,,,52,0
69600,note_on,25,0,1,,,,,,,,,0,,,56,80
69600,note_on,505,0,0,,,,,,,,,0,,,71,80
70055,note_on,455,0,1,,,,,,,,,0,,,56,0
70055,note_on,455,0,0,,,,,,,,,0,,,71,0
70080,note_on,25,0,0,,,,,,,,,0,,,72,80
70080,note_on,25,0,1,,,,,,,,,0,,,57,80
70535,note_on,455,0,0,,,,,,,,,0,,,72,0
70535,note_on,455,0,1,,,,,,,,,0,,,57,0
70560,note_on,25,0,0,,,,,,,,,0,,,68,80
70560,note_on,25,0,1,,,,,,,,,0,,,52,80
71471,note_on,911,0,0,,,,,,,,,0,,,68,0
71471,note_on,911,0,1,,,,,,,,,0,,,52,0
71520,note_on,49,0,0,,,,,,,,,0,,,69,80
71520,note_on,49,0,1,,,,,,,,,0,,,45,80
71975,note_on,455,0,1,,,,,,,,,0,,,45,0
71975,note_on,455,0,0,,,,,,,,,0,,,69,0
72000,note_on,25,0,1,,,,,,,,,0,,,48,80
72000,note_on,25,0,0,,,,,,,,,0,,,64,80
72455,note_on,455,0,0,,,,,,,,,0,,,64,0
72455,note_on,455,0,1,,,,,,,,,0,,,48,0
72480,note_on,25,0,0,,,,,,,,,0,,,65,80
72480,note_on,25,0,1,,,,,,,,,0,,,50,80
72534,note_on,54,0,0,,,,,,,,,0,,,65,0
72539,note_on,5,0,0,,,,,,,,,0,,,67,80
72593,note_on,54,0,0,,,,,,,,,0,,,67,0
72600,note_on,7,0,0,,,,,,,,,0,,,65,80
72654,note_on,54,0,0,,,,,,,,,0,,,65,0
72659,note_on,5,0,0,,,,,,,,,0,,,67,80
72713,note_on,54,0,0,,,,,,,,,0,,,67,0
72720,note_on,7,0,0,,,,,,,,,0,,,65,80
72774,note_on,54,0,0,,,,,,,,,0,,,65,0
72779,note_on,5,0,0,,,,,,,,,0,,,67,80
72833,note_on,54,0,0,,,,,,,,,0,,,67,0
72840,note_on,7,0,0,,,,,,,,,0,,,65,80
72894,note_on,54,0,0,,,,,,,,,0,,,65,0
72899,note_on,5,0,0,,,,,,,,,0,,,67,80
72953,note_on,54,0,0,,,,,,,,,0,,,67,0
72960,note_on,7,0,0,,,,,,,,,0,,,65,80
73014,note_on,54,0,0,,,,,,,,,0,,,65,0
73019,note_on,5,0,0,,,,,,,,,0,,,67,80
73073,note_on,54,0,0,,,,,,,,,0,,,67,0
73080,note_on,7,0,0,,,,,,,,,0,,,65,80
73134,note_on,54,0,0,,,,,,,,,0,,,65,0
73139,note_on,5,0,0,,,,,,,,,0,,,67,80
73193,note_on,54,0,0,,,,,,,,,0,,,67,0
73200,note_on,7,0,0,,,,,,,,,0,,,65,80
73254,note_on,54,0,0,,,,,,,,,0,,,65,0
73259,note_on,5,0,0,,,,,,,,,0,,,67,80
73313,note_on,54,0,0,,,,,,,,,0,,,67,0
73320,note_on,7,0,0,,,,,,,,,0,,,65,80
73374,note_on,54,0,0,,,,,,,,,0,,,65,0
73379,note_on,5,0,0,,,,,,,,,0,,,67,80
73391,note_on,911,0,1,,,,,,,,,0,,,50,0
73433,note_on,54,0,0,,,,,,,,,0,,,67,0
73440,note_on,7,0,0,,,,,,,,,0,,,64,80
73440,note_on,49,0,1,,,,,,,,,0,,,52,80
74807,note_on,1367,0,0,,,,,,,,,0,,,64,0
74807,note_on,1367,0,1,,,,,,,,,0,,,52,0
74880,note_on,73,0,1,,,,,,,,,0,,,48,80
74880,note_on,73,0,0,,,,,,,,,0,,,81,80
75335,note_on,455,0,0,,,,,,,,,0,,,81,0
75335,note_on,455,0,1,,,,,,,,,0,,,48,0
75360,note_on,25,0,0,,,,,,,,,0,,,79,80
75360,note_on,25,0,1,,,,,,,,,0,,,57,80
75587,note_on,227,0,0,,,,,,,,,0,,,79,0
75600,note_on,13,0,0,,,,,,,,,0,,,77,80
75815,note_on,455,0,1,,,,,,,,,0,,,57,0
75827,note_on,227,0,0,,,,,,,,,0,,,77,0
75840,note_on,25,0,1,,,,,,,,,0,,,47,80
75840,note_on,13,0,0,,,,,,,,,0,,,76,80
76067,note_on,227,0,0,,,,,,,,,0,,,76,0
76080,note_on,13,0,0,,,,,,,,,0,,,74,80
76295,note_on,455,0,1,,,,,,,,,0,,,47,0
76307,note_on,227,0,0,,,,,,,,,0,,,74,0
76320,note_on,13,0,0,,,,,,,,,0,,,72,80
76320,note_on,25,0,1,,,,,,,,,0,,,45,80
76375,note_on,55,0,0,,,,,,,,,0,,,72,0
76379,note_on,4,0,0,,,,,,,,,0,,,74,80
76434,note_on,55,0,0,,,,,,,,,0,,,74,0
76439,note_on,5,0,0,,,,,,,,,0,,,72,80
76494,note_on,55,0,0,,,,,,,,,0,,,72,0
76500,note_on,6,0,0,,,,,,,,,0,,,74,80
76555,note_on,55,0,0,,,,,,,,,0,,,74,0
76559,note_on,4,0,0,,,,,,,,,0,,,72,80
76614,note_on,55,0,0,,,,,,,,,0,,,72,0
76619,note_on,5,0,0,,,,,,,,,0,,,74,80
76674,note_on,55,0,0,,,,,,,,,0,,,74,0
76680,note_on,6,0,0,,,,,,,,,0,,,72,80
76735,note_on,55,0,0,,,,,,,,,0,,,72,0
76739,note_on,4,0,0,,,,,,,,,0,,,74,80
76775,note_on,455,0,1,,,,,,,,,0,,,45,0
76794,note_on,55,0,0,,,,,,,,,0,,,74,0
76799,note_on,5,0,0,,,,,,,,,0,,,72,80
76800,note_on,25,0,1,,,,,,,,,0,,,52,80
76854,note_on,55,0,0,,,,,,,,,0,,,72,0
76860,note_on,6,0,0,,,,,,,,,0,,,74,80
76915,note_on,55,0,0,,,,,,,,,0,,,74,0
76919,note_on,4,0,0,,,,,,,,,0,,,72,80
76974,note_on,55,0,0,,,,,,,,,0,,,72,0
76979,note_on,5,0,0,,,,,,,,,0,,,74,80
77034,note_on,55,0,0,,,,,,,,,0,,,74,0
77040,note_on,6,0,0,,,,,,,,,0,,,71,80
77255,note_on,455,0,1,,,,,,,,,0,,,52,0
77267,note_on,227,0,0,,,,,,,,,0,,,71,0
77280,note_on,13,0,0,,,,,,,,,0,,,69,80
77280,note_on,25,0,1,,,,,,,,,0,,,53,80
77735,note_on,455,0,0,,,,,,,,,0,,,69,0
77735,note_on,455,0,1,,,,,,,,,0,,,53,0
77760,note_on,25,0,0,,,,,,,,,0,,,71,80
77760,note_on,25,0,1,,,,,,,,,0,,,50,80
78215,note_on,455,0,0,,,,,,,,,0,,,71,0
78215,note_on,455,0,1,,,,,,,,,0,,,50,0
78240,note_on,25,0,1,,,,,,,,,0,,,52,80
78240,note_on,25,0,0,,,,,,,,,0,,,68,80
78294,note_on,54,0,0,,,,,,,,,0,,,68,0
78299,note_on,5,0,0,,,,,,,,,0,,,69,80
78353,note_on,54,0,0,,,,,,,,,0,,,69,0
78360,note_on,7,0,0,,,,,,,,,0,,,68,80
78414,note_on,54,0,0,,,,,,,,,0,,,68,0
78419,note_on,5,0,0,,,,,,,,,0,,,69,80
78473,note_on,54,0,0,,,,,,,,,0,,,69,0
78480,note_on,7,0,0,,,,,,,,,0,,,68,80
78534,note_on,54,0,0,,,,,,,,,0,,,68,0
78539,note_on,5,0,0,,,,,,,,,0,,,69,80
78593,note_on,54,0,0,,,,,,,,,0,,,69,0
78600,note_on,7,0,0,,,,,,,,,0,,,68,80
78654,note_on,54,0,0,,,,,,,,,0,,,68,0
78659,note_on,5,0,0,,,,,,,,,0,,,69,80
78695,note_on,455,0,1,,,,,,,,,0,,,52,0
78713,note_on,54,0,0,,,,,,,,,0,,,69,0
78720,note_on,7,0,0,,,,,,,,,0,,,68,80
78720,note_on,25,0,1,,,,,,,,,0,,,40,80
78774,note_on,54,0,0,,,,,,,,,0,,,68,0
78779,note_on,5,0,0,,,,,,,,,0,,,69,80
78833,note_on,54,0,0,,,,,,,,,0,,,69,0
78840,note_on,7,0,0,,,,,,,,,0,,,68,80
78894,note_on,54,0,0,,,,,,,,,0,,,68,0
78899,note_on,5,0,0,,,,,,,,,0,,,69,80
78953,note_on,54,0,0,,,,,,,,,0,,,69,0
78960,note_on,7,0,0,,,,,,,,,0,,,68,80
79014,note_on,54,0,0,,,,,,,,,0,,,68,0
79019,note_on,5,0,0,,,,,,,,,0,,,69,80
79073,note_on,54,0,0,,,,,,,,,0,,,69,0
79080,note_on,7,0,0,,,,,,,,,0,,,68,80
79134,note_on,54,0,0,,,,,,,,,0,,,68,0
79139,note_on,5,0,0,,,,,,,,,0,,,69,80
79175,note_on,455,0,1,,,,,,,,,0,,,40,0
79193,note_on,54,0,0,,,,,,,,,0,,,69,0
79200,note_on,25,0,1,,,,,,,,,0,,,45,80
79200,note_on,7,0,0,,,,,,,,,0,,,69,80
80567,note_on,1367,0,0,,,,,,,,,0,,,69,0
80567,note_on,1367,0,1,,,,,,,,,0,,,45,0
80568,end_of_track,1,1,1,,,,,,,,,,,,,
80568,end_of_track,1,1,0,,,,,,,,,,,,,
