tick,type,time,meta,track,numerator,denominator,clocks_per_click,notated_32nd_notes_per_beat,key,tempo,control,value,channel,program,port,note,velocity
0,control_change,0,0,0,,,,,,,121,0,0,,,,
0,time_signature,0,1,0,6,8,24,8,,,,,,,,,
0,set_tempo,0,1,0,,,,,,500000,,,,,,,
0,program_change,0,0,0,,,,,,,,,0,0,,,
0,track_name,0,1,0,,,,,,,,,,,,,
0,note_on,0,0,1,,,,,,,,,0,,,50,80
0,note_on,0,0,0,,,,,,,,,0,,,74,80
0,midi_port,0,1,1,,,,,,,,,,,0,,
0,midi_port,0,1,0,,,,,,,,,,,0,,
0,key_signature,0,1,1,,,,,C,,,,,,,,
0,key_signature,0,1,0,,,,,C,,,,,,,,
0,track_name,0,1,1,,,,,,,,,,,,,
0,control_change,0,0,0,,,,,,,93,0,0,,,,
0,control_change,0,0,0,,,,,,,100,0,0,,,,
0,control_change,0,0,0,,,,,,,91,0,0,,,,
0,control_change,0,0,0,,,,,,,10,64,0,,,,
0,control_change,0,0,0,,,,,,,7,99,0,,,,
0,control_change,0,0,0,,,,,,,101,0,0,,,,
0,control_change,0,0,0,,,,,,,101,127,0,,,,
0,control_change,0,0,0,,,,,,,6,12,0,,,,
0,control_change,0,0,0,,,,,,,100,127,0,,,,
227,note_on,227,0,0,,,,,,,,,0,,,74,0
240,note_on,13,0,0,,,,,,,,,0,,,78,80
353,note_on,113,0,0,,,,,,,,,0,,,78,0
360,note_on,7,0,0,,,,,,,,,0,,,76,80
455,note_on,455,0,1,,,,,,,,,0,,,50,0
473,note_on,113,0,0,,,,,,,,,0,,,76,0
480,note_on,7,0,0,,,,,,,,,0,,,74,80
593,note_on,113,0,0,,,,,,,,,0,,,74,0
600,note_on,7,0,0,,,,,,,,,0,,,78,80
713,note_on,113,0,0,,,,,,,,,0,,,78,0
720,note_on,7,0,0,,,,,,,,,0,,,76,80
720,note_on,265,0,1,,,,,,,,,0,,,57,80
947,note_on,227,0,0,,,,,,,,,0,,,76,0
960,note_on,13,0,0,,,,,,,,,0,,,69,80
1175,note_on,455,0,1,,,,,,,,,0,,,57,0
1415,note_on,455,0,0,,,,,,,,,0,,,69,0
1440,note_on,265,0,1,,,,,,,,,0,,,54,80
1440,note_on,25,0,0,,,,,,,,,0,,,74,80
1553,note_on,113,0,0,,,,,,,,,0,,,74,0
1560,note_on,7,0,0,,,,,,,,,0,,,76,80
1673,note_on,113,0,0,,,,,,,,,0,,,76,0
1680,note_on,7,0,0,,,,,,,,,0,,,78,80
1793,note_on,113,0,0,,,,,,,,,0,,,78,0
1800,note_on,7,0,0,,,,,,,,,0,,,76,80
1895,note_on,455,0,1,,,,,,,,,0,,,54,0
1913,note_on,113,0,0,,,,,,,,,0,,,76,0
1920,note_on,7,0,0,,,,,,,,,0,,,78,80
2033,note_on,113,0,0,,,,,,,,,0,,,78,0
2040,note_on,7,0,0,,,,,,,,,0,,,74,80
2153,note_on,113,0,0,,,,,,,,,0,,,74,0
2160,note_on,265,0,1,,,,,,,,,0,,,52,80
2160,note_on,7,0,0,,,,,,,,,0,,,79,80
2387,note_on,227,0,0,,,,,,,,,0,,,79,0
2387,note_on,227,0,1,,,,,,,,,0,,,52,0
2400,note_on,13,0,0,,,,,,,,,0,,,76,80
2400,note_on,13,0,1,,,,,,,,,0,,,57,80
2455,note_on,55,0,0,,,,,,,,,0,,,76,0
2460,note_on,5,0,0,,,,,,,,,0,,,78,80
2515,note_on,55,0,0,,,,,,,,,0,,,78,0
2520,note_on,5,0,0,,,,,,,,,0,,,76,80
2575,note_on,55,0,0,,,,,,,,,0,,,76,0
2580,note_on,5,0,0,,,,,,,,,0,,,78,80
2635,note_on,55,0,0,,,,,,,,,0,,,78,0
2640,note_on,5,0,0,,,,,,,,,0,,,76,80
2695,note_on,55,0,0,,,,,,,,,0,,,76,0
2700,note_on,5,0,0,,,,,,,,,0,,,78,80
2755,note_on,55,0,0,,,,,,,,,0,,,78,0
2760,note_on,5,0,0,,,,,,,,,0,,,76,80
2815,note_on,55,0,0,,,,,,,,,0,,,76,0
2820,note_on,5,0,0,,,,,,,,,0,,,78,80
2855,note_on,455,0,1,,,,,,,,,0,,,57,0
2875,note_on,55,0,0,,,,,,,,,0,,,78,0
2880,note_on,5,0,0,,,,,,,,,0,,,74,80
2880,note_on,25,0,1,,,,,,,,,0,,,54,80
3107,note_on,227,0,1,,,,,,,,,0,,,54,0
3107,note_on,227,0,0,,,,,,,,,0,,,74,0
3120,note_on,13,0,1,,,,,,,,,0,,,50,80
3120,note_on,13,0,0,,,,,,,,,0,,,78,80
3233,note_on,113,0,0,,,,,,,,,0,,,78,0
3240,note_on,7,0,0,,,,,,,,,0,,,76,80
3353,note_on,113,0,0,,,,,,,,,0,,,76,0
3360,note_on,7,0,0,,,,,,,,,0,,,74,80
3473,note_on,113,0,0,,,,,,,,,0,,,74,0
3480,note_on,7,0,0,,,,,,,,,0,,,78,80
3575,note_on,455,0,1,,,,,,,,,0,,,50,0
3593,note_on,113,0,0,,,,,,,,,0,,,78,0
3600,note_on,7,0,0,,,,,,,,,0,,,76,80
3600,note_on,25,0,1,,,,,,,,,0,,,57,80
3827,note_on,227,0,0,,,,,,,,,0,,,76,0
3827,note_on,227,0,1,,,,,,,,,0,,,57,0
3840,note_on,13,0,1,,,,,,,,,0,,,54,80
3840,note_on,13,0,0,,,,,,,,,0,,,69,80
4067,note_on,227,0,0,,,,,,,,,0,,,69,0
4067,note_on,227,0,1,,,,,,,,,0,,,54,0
4080,note_on,13,0,0,,,,,,,,,0,,,74,80
4080,note_on,13,0,1,,,,,,,,,0,,,59,80
4307,note_on,227,0,1,,,,,,,,,0,,,59,0
4307,note_on,227,0,0,,,,,,,,,0,,,74,0
4320,note_on,13,0,1,,,,,,,,,0,,,55,80
4320,note_on,13,0,0,,,,,,,,,0,,,79,80
4433,note_on,113,0,0,,,,,,,,,0,,,79,0
4440,note_on,7,0,0,,,,,,,,,0,,,76,80
4547,note_on,227,0,1,,,,,,,,,0,,,55,0
4553,note_on,113,0,0,,,,,,,,,0,,,76,0
4560,note_on,13,0,1,,,,,,,,,0,,,57,80
4560,note_on,7,0,0,,,,,,,,,0,,,78,80
4673,note_on,113,0,0,,,,,,,,,0,,,78,0
4680,note_on,7,0,0,,,,,,,,,0,,,74,80
4787,note_on,227,0,1,,,,,,,,,0,,,57,0
4793,note_on,113,0,0,,,,,,,,,0,,,74,0
4800,note_on,7,0,0,,,,,,,,,0,,,76,80
4800,note_on,13,0,1,,,,,,,,,0,,,45,80
4913,note_on,113,0,0,,,,,,,,,0,,,76,0
4920,note_on,7,0,0,,,,,,,,,0,,,73,80
5027,note_on,227,0,1,,,,,,,,,0,,,45,0
5033,note_on,113,0,0,,,,,,,,,0,,,73,0
5040,note_on,7,0,0,,,,,,,,,0,,,73,80
5040,note_on,13,0,1,,,,,,,,,0,,,50,80
5278,note_on,238,0,0,,,,,,,,,0,,,73,0
5279,note_on,1,0,0,,,,,,,,,0,,,74,80
5723,note_on,683,0,1,,,,,,,,,0,,,50,0
5733,note_on,454,0,0,,,,,,,,,0,,,74,0
5760,set_tempo,0,1,0,,,,,,500000,,,,,,,
5760,time_signature,27,1,0,6,8,24,8,,,,,,,,,
5760,note_on,37,0,1,,,,,,,,,0,,,50,80
5760,note_on,0,0,0,,,,,,,,,0,,,74,80
5987,note_on,227,0,0,,,,,,,,,0,,,74,0
6000,note_on,13,0,0,,,,,,,,,0,,,78,80
6113,note_on,113,0,0,,,,,,,,,0,,,78,0
6120,note_on,7,0,0,,,,,,,,,0,,,76,80
6215,note_on,455,0,1,,,,,,,,,0,,,50,0
6233,note_on,113,0,0,,,,,,,,,0,,,76,0
6240,note_on,7,0,0,,,,,,,,,0,,,74,80
6353,note_on,113,0,0,,,,,,,,,0,,,74,0
6360,note_on,7,0,0,,,,,,,,,0,,,78,80
6473,note_on,113,0,0,,,,,,,,,0,,,78,0
6480,note_on,7,0,0,,,,,,,,,0,,,76,80
6480,note_on,265,0,1,,,,,,,,,0,,,57,80
6707,note_on,227,0,0,,,,,,,,,0,,,76,0
6720,note_on,13,0,0,,,,,,,,,0,,,69,80
6935,note_on,455,0,1,,,,,,,,,0,,,57,0
7175,note_on,455,0,0,,,,,,,,,0,,,69,0
7200,note_on,25,0,0,,,,,,,,,0,,,74,80
7200,note_on,265,0,1,,,,,,,,,0,,,54,80
7313,note_on,113,0,0,,,,,,,,,0,,,74,0
7320,note_on,7,0,0,,,,,,,,,0,,,76,80
7433,note_on,113,0,0,,,,,,,,,0,,,76,0
7440,note_on,7,0,0,,,,,,,,,0,,,78,80
7553,note_on,113,0,0,,,,,,,,,0,,,78,0
7560,note_on,7,0,0,,,,,,,,,0,,,76,80
7655,note_on,455,0,1,,,,,,,,,0,,,54,0
7673,note_on,113,0,0,,,,,,,,,0,,,76,0
7680,note_on,7,0,0,,,,,,,,,0,,,78,80
7793,note_on,113,0,0,,,,,,,,,0,,,78,0
7800,note_on,7,0,0,,,,,,,,,0,,,74,80
7913,note_on,113,0,0,,,,,,,,,0,,,74,0
7920,note_on,7,0,0,,,,,,,,,0,,,79,80
7920,note_on,265,0,1,,,,,,,,,0,,,52,80
8147,note_on,227,0,0,,,,,,,,,0,,,79,0
8147,note_on,227,0,1,,,,,,,,,0,,,52,0
8160,note_on,13,0,1,,,,,,,,,0,,,57,80
8160,note_on,13,0,0,,,,,,,,,0,,,76,80
8215,note_on,55,0,0,,,,,,,,,0,,,76,0
8220,note_on,5,0,0,,,,,,,,,0,,,78,80
8275,note_on,55,0,0,,,,,,,,,0,,,78,0
8280,note_on,5,0,0,,,,,,,,,0,,,76,80
8335,note_on,55,0,0,,,,,,,,,0,,,76,0
8340,note_on,5,0,0,,,,,,,,,0,,,78,80
8395,note_on,55,0,0,,,,,,,,,0,,,78,0
8400,note_on,5,0,0,,,,,,,,,0,,,76,80
8455,note_on,55,0,0,,,,,,,,,0,,,76,0
8460,note_on,5,0,0,,,,,,,,,0,,,78,80
8515,note_on,55,0,0,,,,,,,,,0,,,78,0
8520,note_on,5,0,0,,,,,,,,,0,,,76,80
8575,note_on,55,0,0,,,,,,,,,0,,,76,0
8580,note_on,5,0,0,,,,,,,,,0,,,78,80
8615,note_on,455,0,1,,,,,,,,,0,,,57,0
8635,note_on,55,0,0,,,,,,,,,0,,,78,0
8640,note_on,5,0,0,,,,,,,,,0,,,74,80
8640,note_on,25,0,1,,,,,,,,,0,,,54,80
8867,note_on,227,0,1,,,,,,,,,0,,,54,0
8867,note_on,227,0,0,,,,,,,,,0,,,74,0
8880,note_on,13,0,0,,,,,,,,,0,,,78,80
8880,note_on,13,0,1,,,,,,,,,0,,,50,80
8993,note_on,113,0,0,,,,,,,,,0,,,78,0
9000,note_on,7,0,0,,,,,,,,,0,,,76,80
9113,note_on,113,0,0,,,,,,,,,0,,,76,0
9120,note_on,7,0,0,,,,,,,,,0,,,74,80
9233,note_on,113,0,0,,,,,,,,,0,,,74,0
9240,note_on,7,0,0,,,,,,,,,0,,,78,80
9335,note_on,455,0,1,,,,,,,,,0,,,50,0
9353,note_on,113,0,0,,,,,,,,,0,,,78,0
9360,note_on,25,0,1,,,,,,,,,0,,,57,80
9360,note_on,7,0,0,,,,,,,,,0,,,76,80
9587,note_on,227,0,1,,,,,,,,,0,,,57,0
9587,note_on,227,0,0,,,,,,,,,0,,,76,0
9600,note_on,13,0,0,,,,,,,,,0,,,69,80
9600,note_on,13,0,1,,,,,,,,,0,,,54,80
9827,note_on,227,0,0,,,,,,,,,0,,,69,0
9827,note_on,227,0,1,,,,,,,,,0,,,54,0
9840,note_on,13,0,0,,,,,,,,,0,,,74,80
9840,note_on,13,0,1,,,,,,,,,0,,,59,80
10067,note_on,227,0,1,,,,,,,,,0,,,59,0
10067,note_on,227,0,0,,,,,,,,,0,,,74,0
10080,note_on,13,0,1,,,,,,,,,0,,,55,80
10080,note_on,13,0,0,,,,,,,,,0,,,79,80
10193,note_on,113,0,0,,,,,,,,,0,,,79,0
10200,note_on,7,0,0,,,,,,,,,0,,,76,80
10307,note_on,227,0,1,,,,,,,,,0,,,55,0
10313,note_on,113,0,0,,,,,,,,,0,,,76,0
10320,note_on,7,0,0,,,,,,,,,0,,,78,80
10320,note_on,13,0,1,,,,,,,,,0,,,57,80
10433,note_on,113,0,0,,,,,,,,,0,,,78,0
10440,note_on,7,0,0,,,,,,,,,0,,,74,80
10547,note_on,227,0,1,,,,,,,,,0,,,57,0
10553,note_on,113,0,0,,,,,,,,,0,,,74,0
10560,note_on,7,0,0,,,,,,,,,0,,,76,80
10560,note_on,13,0,1,,,,,,,,,0,,,45,80
10673,note_on,113,0,0,,,,,,,,,0,,,76,0
10680,note_on,7,0,0,,,,,,,,,0,,,73,80
10787,note_on,227,0,1,,,,,,,,,0,,,45,0
10793,note_on,113,0,0,,,,,,,,,0,,,73,0
10800,note_on,13,0,1,,,,,,,,,0,,,50,80
10800,note_on,7,0,0,,,,,,,,,0,,,73,80
11038,note_on,238,0,0,,,,,,,,,0,,,73,0
11039,note_on,1,0,0,,,,,,,,,0,,,74,80
11483,note_on,683,0,1,,,,,,,,,0,,,50,0
11493,note_on,454,0,0,,,,,,,,,0,,,74,0
11520,note_on,37,0,1,,,,,,,,,0,,,62,80
11520,note_on,27,0,0,,,,,,,,,0,,,78,80
11747,note_on,227,0,0,,,,,,,,,0,,,78,0
11760,note_on,13,0,0,,,,,,,,,0,,,81,80
11873,note_on,113,0,0,,,,,,,,,0,,,81,0
11880,note_on,7,0,0,,,,,,,,,0,,,79,80
11975,note_on,455,0,1,,,,,,,,,0,,,62,0
11993,note_on,113,0,0,,,,,,,,,0,,,79,0
12000,note_on,7,0,0,,,,,,,,,0,,,81,80
12113,note_on,113,0,0,,,,,,,,,0,,,81,0
12120,note_on,7,0,0,,,,,,,,,0,,,78,80
12233,note_on,113,0,0,,,,,,,,,0,,,78,0
12240,note_on,7,0,0,,,,,,,,,0,,,83,80
12240,note_on,265,0,1,,,,,,,,,0,,,55,80
12467,note_on,227,0,0,,,,,,,,,0,,,83,0
12467,note_on,227,0,1,,,,,,,,,0,,,55,0
12480,note_on,13,0,1,,,,,,,,,0,,,50,80
12480,note_on,13,0,0,,,,,,,,,0,,,79,80
12535,note_on,55,0,0,,,,,,,,,0,,,79,0
12540,note_on,5,0,0,,,,,,,,,0,,,81,80
12595,note_on,55,0,0,,,,,,,,,0,,,81,0
12600,note_on,5,0,0,,,,,,,,,0,,,79,80
12655,note_on,55,0,0,,,,,,,,,0,,,79,0
12660,note_on,5,0,0,,,,,,,,,0,,,81,80
12715,note_on,55,0,0,,,,,,,,,0,,,81,0
12720,note_on,5,0,0,,,,,,,,,0,,,79,80
12775,note_on,55,0,0,,,,,,,,,0,,,79,0
12780,note_on,5,0,0,,,,,,,,,0,,,81,80
12835,note_on,55,0,0,,,,,,,,,0,,,81,0
12840,note_on,5,0,0,,,,,,,,,0,,,79,80
12895,note_on,55,0,0,,,,,,,,,0,,,79,0
12900,note_on,5,0,0,,,,,,,,,0,,,81,80
12935,note_on,455,0,1,,,,,,,,,0,,,50,0
12955,note_on,55,0,0,,,,,,,,,0,,,81,0
12960,note_on,5,0,0,,,,,,,,,0,,,76,80
12960,note_on,25,0,1,,,,,,,,,0,,,57,80
13073,note_on,113,0,0,,,,,,,,,0,,,76,0
13080,note_on,7,0,0,,,,,,,,,0,,,78,80
13193,note_on,113,0,0,,,,,,,,,0,,,78,0
13200,note_on,7,0,0,,,,,,,,,0,,,79,80
13313,note_on,113,0,0,,,,,,,,,0,,,79,0
13320,note_on,7,0,0,,,,,,,,,0,,,78,80
13415,note_on,455,0,1,,,,,,,,,0,,,57,0
13433,note_on,113,0,0,,,,,,,,,0,,,78,0
13440,note_on,7,0,0,,,,,,,,,0,,,79,80
13553,note_on,113,0,0,,,,,,,,,0,,,79,0
13560,note_on,7,0,0,,,,,,,,,0,,,76,80
13673,note_on,113,0,0,,,,,,,,,0,,,76,0
13680,note_on,265,0,1,,,,,,,,,0,,,54,80
13680,note_on,7,0,0,,,,,,,,,0,,,81,80
13907,note_on,227,0,0,,,,,,,,,0,,,81,0
13907,note_on,227,0,1,,,,,,,,,0,,,54,0
13920,note_on,13,0,1,,,,,,,,,0,,,50,80
13920,note_on,13,0,0,,,,,,,,,0,,,78,80
13975,note_on,55,0,0,,,,,,,,,0,,,78,0
13980,note_on,5,0,0,,,,,,,,,0,,,79,80
14035,note_on,55,0,0,,,,,,,,,0,,,79,0
14040,note_on,5,0,0,,,,,,,,,0,,,78,80
14095,note_on,55,0,0,,,,,,,,,0,,,78,0
14100,note_on,5,0,0,,,,,,,,,0,,,79,80
14155,note_on,55,0,0,,,,,,,,,0,,,79,0
14160,note_on,5,0,0,,,,,,,,,0,,,78,80
14215,note_on,55,0,0,,,,,,,,,0,,,78,0
14220,note_on,5,0,0,,,,,,,,,0,,,79,80
14275,note_on,55,0,0,,,,,,,,,0,,,79,0
14280,note_on,5,0,0,,,,,,,,,0,,,78,80
14335,note_on,55,0,0,,,,,,,,,0,,,78,0
14340,note_on,5,0,0,,,,,,,,,0,,,79,80
14375,note_on,455,0,1,,,,,,,,,0,,,50,0
14395,note_on,55,0,0,,,,,,,,,0,,,79,0
14400,note_on,25,0,1,,,,,,,,,0,,,59,80
14400,note_on,5,0,0,,,,,,,,,0,,,74,80
14627,note_on,227,0,0,,,,,,,,,0,,,74,0
14640,note_on,13,0,0,,,,,,,,,0,,,78,80
14753,note_on,113,0,0,,,,,,,,,0,,,78,0
14760,note_on,7,0,0,,,,,,,,,0,,,76,80
14855,note_on,455,0,1,,,,,,,,,0,,,59,0
14873,note_on,113,0,0,,,,,,,,,0,,,76,0
14880,note_on,7,0,0,,,,,,,,,0,,,78,80
14993,note_on,113,0,0,,,,,,,,,0,,,78,0
15000,note_on,7,0,0,,,,,,,,,0,,,74,80
15113,note_on,113,0,0,,,,,,,,,0,,,74,0
15120,note_on,265,0,1,,,,,,,,,0,,,52,80
15120,note_on,7,0,0,,,,,,,,,0,,,79,80
15347,note_on,227,0,1,,,,,,,,,0,,,52,0
15347,note_on,227,0,0,,,,,,,,,0,,,79,0
15360,note_on,13,0,1,,,,,,,,,0,,,57,80
15360,note_on,13,0,0,,,,,,,,,0,,,76,80
15415,note_on,55,0,0,,,,,,,,,0,,,76,0
15420,note_on,5,0,0,,,,,,,,,0,,,78,80
15475,note_on,55,0,0,,,,,,,,,0,,,78,0
15480,note_on,5,0,0,,,,,,,,,0,,,76,80
15535,note_on,55,0,0,,,,,,,,,0,,,76,0
15540,note_on,5,0,0,,,,,,,,,0,,,78,80
15595,note_on,55,0,0,,,,,,,,,0,,,78,0
15600,note_on,5,0,0,,,,,,,,,0,,,76,80
15655,note_on,55,0,0,,,,,,,,,0,,,76,0
15660,note_on,5,0,0,,,,,,,,,0,,,78,80
15715,note_on,55,0,0,,,,,,,,,0,,,78,0
15720,note_on,5,0,0,,,,,,,,,0,,,76,80
15775,note_on,55,0,0,,,,,,,,,0,,,76,0
15780,note_on,5,0,0,,,,,,,,,0,,,78,80
15815,note_on,455,0,1,,,,,,,,,0,,,57,0
15835,note_on,55,0,0,,,,,,,,,0,,,78,0
15840,note_on,25,0,1,,,,,,,,,0,,,62,80
15840,note_on,5,0,0,,,,,,,,,0,,,78,80
15953,note_on,113,0,0,,,,,,,,,0,,,78,0
15960,note_on,7,0,0,,,,,,,,,0,,,80,80
16067,note_on,227,0,1,,,,,,,,,0,,,62,0
16073,note_on,113,0,0,,,,,,,,,0,,,80,0
16080,note_on,13,0,1,,,,,,,,,0,,,59,80
16080,note_on,7,0,0,,,,,,,,,0,,,80,80
16135,note_on,55,0,0,,,,,,,,,0,,,80,0
16140,note_on,5,0,0,,,,,,,,,0,,,81,80
16195,note_on,55,0,0,,,,,,,,,0,,,81,0
16200,note_on,5,0,0,,,,,,,,,0,,,80,80
16255,note_on,55,0,0,,,,,,,,,0,,,80,0
16260,note_on,5,0,0,,,,,,,,,0,,,81,80
16315,note_on,55,0,0,,,,,,,,,0,,,81,0
16320,note_on,5,0,0,,,,,,,,,0,,,80,80
16375,note_on,55,0,0,,,,,,,,,0,,,80,0
16380,note_on,5,0,0,,,,,,,,,0,,,81,80
16435,note_on,55,0,0,,,,,,,,,0,,,81,0
16440,note_on,5,0,0,,,,,,,,,0,,,80,80
16495,note_on,55,0,0,,,,,,,,,0,,,80,0
16500,note_on,5,0,0,,,,,,,,,0,,,81,80
16535,note_on,455,0,1,,,,,,,,,0,,,59,0
16555,note_on,55,0,0,,,,,,,,,0,,,81,0
16560,note_on,5,0,0,,,,,,,,,0,,,80,80
16560,note_on,25,0,1,,,,,,,,,0,,,57,80
16673,note_on,113,0,1,,,,,,,,,0,,,57,0
16680,note_on,7,0,1,,,,,,,,,0,,,59,80
16793,note_on,113,0,1,,,,,,,,,0,,,59,0
16799,note_on,239,0,0,,,,,,,,,0,,,80,0
16800,note_on,7,0,1,,,,,,,,,0,,,57,80
16800,note_on,1,0,0,,,,,,,,,0,,,81,80
16913,note_on,113,0,1,,,,,,,,,0,,,57,0
16920,note_on,7,0,1,,,,,,,,,0,,,55,80
17027,note_on,227,0,0,,,,,,,,,0,,,81,0
17033,note_on,113,0,1,,,,,,,,,0,,,55,0
17040,note_on,13,0,0,,,,,,,,,0,,,69,80
17040,note_on,7,0,1,,,,,,,,,0,,,54,80
17153,note_on,113,0,1,,,,,,,,,0,,,54,0
17160,note_on,7,0,1,,,,,,,,,0,,,52,80
17267,note_on,227,0,0,,,,,,,,,0,,,69,0
17273,note_on,113,0,1,,,,,,,,,0,,,52,0
17280,note_on,13,0,0,,,,,,,,,0,,,74,80
17280,note_on,7,0,1,,,,,,,,,0,,,50,80
17507,note_on,227,0,0,,,,,,,,,0,,,74,0
17520,note_on,13,0,0,,,,,,,,,0,,,78,80
17633,note_on,113,0,0,,,,,,,,,0,,,78,0
17640,note_on,7,0,0,,,,,,,,,0,,,76,80
17735,note_on,455,0,1,,,,,,,,,0,,,50,0
17753,note_on,113,0,0,,,,,,,,,0,,,76,0
17760,note_on,7,0,0,,,,,,,,,0,,,74,80
17873,note_on,113,0,0,,,,,,,,,0,,,74,0
17880,note_on,7,0,0,,,,,,,,,0,,,78,80
17993,note_on,113,0,0,,,,,,,,,0,,,78,0
18000,note_on,7,0,0,,,,,,,,,0,,,76,80
18000,note_on,265,0,1,,,,,,,,,0,,,57,80
18227,note_on,227,0,0,,,,,,,,,0,,,76,0
18240,note_on,13,0,0,,,,,,,,,0,,,69,80
18455,note_on,455,0,1,,,,,,,,,0,,,57,0
18695,note_on,455,0,0,,,,,,,,,0,,,69,0
18720,note_on,25,0,0,,,,,,,,,0,,,74,80
18720,note_on,265,0,1,,,,,,,,,0,,,54,80
18833,note_on,113,0,0,,,,,,,,,0,,,74,0
18840,note_on,7,0,0,,,,,,,,,0,,,76,80
18947,note_on,227,0,1,,,,,,,,,0,,,54,0
18953,note_on,113,0,0,,,,,,,,,0,,,76,0
18960,note_on,7,0,0,,,,,,,,,0,,,78,80
18960,note_on,13,0,1,,,,,,,,,0,,,50,80
19073,note_on,113,0,0,,,,,,,,,0,,,78,0
19080,note_on,7,0,0,,,,,,,,,0,,,76,80
19187,note_on,227,0,1,,,,,,,,,0,,,50,0
19193,note_on,113,0,0,,,,,,,,,0,,,76,0
19200,note_on,7,0,0,,,,,,,,,0,,,78,80
19200,note_on,13,0,1,,,,,,,,,0,,,59,80
19313,note_on,113,0,0,,,,,,,,,0,,,78,0
19320,note_on,7,0,0,,,,,,,,,0,,,74,80
19427,note_on,227,0,1,,,,,,,,,0,,,59,0
19433,note_on,113,0,0,,,,,,,,,0,,,74,0
19440,note_on,13,0,1,,,,,,,,,0,,,52,80
19440,note_on,7,0,0,,,,,,,,,0,,,79,80
19667,note_on,227,0,1,,,,,,,,,0,,,52,0
19667,note_on,227,0,0,,,,,,,,,0,,,79,0
19680,note_on,13,0,1,,,,,,,,,0,,,57,80
19680,note_on,13,0,0,,,,,,,,,0,,,76,80
19735,note_on,55,0,0,,,,,,,,,0,,,76,0
19740,note_on,5,0,0,,,,,,,,,0,,,78,80
19795,note_on,55,0,0,,,,,,,,,0,,,78,0
19800,note_on,5,0,0,,,,,,,,,0,,,76,80
19855,note_on,55,0,0,,,,,,,,,0,,,76,0
19860,note_on,5,0,0,,,,,,,,,0,,,78,80
19915,note_on,55,0,0,,,,,,,,,0,,,78,0
19920,note_on,5,0,0,,,,,,,,,0,,,76,80
19975,note_on,55,0,0,,,,,,,,,0,,,76,0
19980,note_on,5,0,0,,,,,,,,,0,,,78,80
20035,note_on,55,0,0,,,,,,,,,0,,,78,0
20040,note_on,5,0,0,,,,,,,,,0,,,76,80
20095,note_on,55,0,0,,,,,,,,,0,,,76,0
20100,note_on,5,0,0,,,,,,,,,0,,,78,80
20135,note_on,455,0,1,,,,,,,,,0,,,57,0
20155,note_on,55,0,0,,,,,,,,,0,,,78,0
20160,note_on,5,0,0,,,,,,,,,0,,,74,80
20160,note_on,25,0,1,,,,,,,,,0,,,54,80
20387,note_on,227,0,0,,,,,,,,,0,,,74,0
20387,note_on,227,0,1,,,,,,,,,0,,,54,0
20400,note_on,13,0,1,,,,,,,,,0,,,50,80
20400,note_on,13,0,0,,,,,,,,,0,,,78,80
20513,note_on,113,0,0,,,,,,,,,0,,,78,0
20520,note_on,7,0,0,,,,,,,,,0,,,76,80
20633,note_on,113,0,0,,,,,,,,,0,,,76,0
20640,note_on,7,0,0,,,,,,,,,0,,,74,80
20753,note_on,113,0,0,,,,,,,,,0,,,74,0
20760,note_on,7,0,0,,,,,,,,,0,,,78,80
20855,note_on,455,0,1,,,,,,,,,0,,,50,0
20873,note_on,113,0,0,,,,,,,,,0,,,78,0
20880,note_on,25,0,1,,,,,,,,,0,,,57,80
20880,note_on,7,0,0,,,,,,,,,0,,,76,80
21107,note_on,227,0,1,,,,,,,,,0,,,57,0
21107,note_on,227,0,0,,,,,,,,,0,,,76,0
21120,note_on,13,0,1,,,,,,,,,0,,,54,80
21120,note_on,13,0,0,,,,,,,,,0,,,69,80
21347,note_on,227,0,0,,,,,,,,,0,,,69,0
21347,note_on,227,0,1,,,,,,,,,0,,,54,0
21360,note_on,13,0,1,,,,,,,,,0,,,59,80
21360,note_on,13,0,0,,,,,,,,,0,,,74,80
21587,note_on,227,0,1,,,,,,,,,0,,,59,0
21587,note_on,227,0,0,,,,,,,,,0,,,74,0
21600,note_on,13,0,1,,,,,,,,,0,,,55,80
21600,note_on,13,0,0,,,,,,,,,0,,,79,80
21713,note_on,113,0,0,,,,,,,,,0,,,79,0
21720,note_on,7,0,0,,,,,,,,,0,,,76,80
21827,note_on,227,0,1,,,,,,,,,0,,,55,0
21833,note_on,113,0,0,,,,,,,,,0,,,76,0
21840,note_on,7,0,0,,,,,,,,,0,,,78,80
21840,note_on,13,0,1,,,,,,,,,0,,,57,80
21953,note_on,113,0,0,,,,,,,,,0,,,78,0
21960,note_on,7,0,0,,,,,,,,,0,,,74,80
22067,note_on,227,0,1,,,,,,,,,0,,,57,0
22073,note_on,113,0,0,,,,,,,,,0,,,74,0
22080,note_on,13,0,1,,,,,,,,,0,,,45,80
22080,note_on,7,0,0,,,,,,,,,0,,,76,80
22193,note_on,113,0,0,,,,,,,,,0,,,76,0
22200,note_on,7,0,0,,,,,,,,,0,,,73,80
22307,note_on,227,0,1,,,,,,,,,0,,,45,0
22313,note_on,113,0,0,,,,,,,,,0,,,73,0
22320,note_on,13,0,1,,,,,,,,,0,,,50,80
22320,note_on,7,0,0,,,,,,,,,0,,,74,80
22775,note_on,455,0,0,,,,,,,,,0,,,74,0
22800,note_on,25,0,0,,,,,,,,,0,,,62,80
23003,note_on,683,0,1,,,,,,,,,0,,,50,0
23027,note_on,227,0,0,,,,,,,,,0,,,62,0
23040,note_on,13,0,0,,,,,,,,,0,,,74,80
23040,note_on,37,0,1,,,,,,,,,0,,,54,80
23267,note_on,227,0,1,,,,,,,,,0,,,54,0
23267,note_on,227,0,0,,,,,,,,,0,,,74,0
23280,note_on,13,0,0,,,,,,,,,0,,,78,80
23280,note_on,13,0,1,,,,,,,,,0,,,50,80
23507,note_on,227,0,0,,,,,,,,,0,,,78,0
23507,note_on,227,0,1,,,,,,,,,0,,,50,0
23520,note_on,13,0,0,,,,,,,,,0,,,74,80
23520,note_on,13,0,1,,,,,,,,,0,,,54,80
23747,note_on,227,0,1,,,,,,,,,0,,,54,0
23747,note_on,227,0,0,,,,,,,,,0,,,74,0
23760,note_on,13,0,1,,,,,,,,,0,,,55,80
23760,note_on,13,0,0,,,,,,,,,0,,,71,80
23873,note_on,113,0,0,,,,,,,,,0,,,71,0
23880,note_on,7,0,0,,,,,,,,,0,,,74,80
23993,note_on,113,0,0,,,,,,,,,0,,,74,0
24000,note_on,7,0,0,,,,,,,,,0,,,73,80
24113,note_on,113,0,0,,,,,,,,,0,,,73,0
24120,note_on,7,0,0,,,,,,,,,0,,,71,80
24215,note_on,455,0,1,,,,,,,,,0,,,55,0
24233,note_on,113,0,0,,,,,,,,,0,,,71,0
24240,note_on,7,0,0,,,,,,,,,0,,,73,80
24353,note_on,113,0,0,,,,,,,,,0,,,73,0
24360,note_on,7,0,0,,,,,,,,,0,,,74,80
24473,note_on,113,0,0,,,,,,,,,0,,,74,0
24480,note_on,7,0,0,,,,,,,,,0,,,76,80
24480,note_on,265,0,1,,,,,,,,,0,,,52,80
24707,note_on,227,0,0,,,,,,,,,0,,,76,0
24720,note_on,13,0,0,,,,,,,,,0,,,79,80
24833,note_on,113,0,0,,,,,,,,,0,,,79,0
24840,note_on,7,0,0,,,,,,,,,0,,,76,80
24935,note_on,455,0,1,,,,,,,,,0,,,52,0
24953,note_on,113,0,0,,,,,,,,,0,,,76,0
24960,note_on,7,0,0,,,,,,,,,0,,,78,80
25073,note_on,113,0,0,,,,,,,,,0,,,78,0
25080,note_on,7,0,0,,,,,,,,,0,,,74,80
25193,note_on,113,0,0,,,,,,,,,0,,,74,0
25200,note_on,265,0,1,,,,,,,,,0,,,57,80
25200,note_on,7,0,0,,,,,,,,,0,,,73,80
25313,note_on,113,0,0,,,,,,,,,0,,,73,0
25320,note_on,7,0,0,,,,,,,,,0,,,76,80
25433,note_on,113,0,0,,,,,,,,,0,,,76,0
25440,note_on,7,0,0,,,,,,,,,0,,,74,80
25553,note_on,113,0,0,,,,,,,,,0,,,74,0
25560,note_on,7,0,0,,,,,,,,,0,,,73,80
25655,note_on,455,0,1,,,,,,,,,0,,,57,0
25673,note_on,113,0,0,,,,,,,,,0,,,73,0
25680,note_on,7,0,0,,,,,,,,,0,,,74,80
25793,note_on,113,0,0,,,,,,,,,0,,,74,0
25800,note_on,7,0,0,,,,,,,,,0,,,76,80
25913,note_on,113,0,0,,,,,,,,,0,,,76,0
25920,note_on,7,0,0,,,,,,,,,0,,,78,80
25920,note_on,265,0,1,,,,,,,,,0,,,54,80
26033,note_on,113,0,0,,,,,,,,,0,,,78,0
26040,note_on,7,0,0,,,,,,,,,0,,,79,80
26153,note_on,113,0,0,,,,,,,,,0,,,79,0
26160,note_on,7,0,0,,,,,,,,,0,,,81,80
26273,note_on,113,0,0,,,,,,,,,0,,,81,0
26280,note_on,7,0,0,,,,,,,,,0,,,78,80
26375,note_on,455,0,1,,,,,,,,,0,,,54,0
26393,note_on,113,0,0,,,,,,,,,0,,,78,0
26400,note_on,7,0,0,,,,,,,,,0,,,79,80
26513,note_on,113,0,0,,,,,,,,,0,,,79,0
26520,note_on,7,0,0,,,,,,,,,0,,,76,80
26633,note_on,113,0,0,,,,,,,,,0,,,76,0
26640,note_on,7,0,0,,,,,,,,,0,,,74,80
26640,note_on,265,0,1,,,,,,,,,0,,,59,80
26753,note_on,113,0,0,,,,,,,,,0,,,74,0
26760,note_on,7,0,0,,,,,,,,,0,,,78,80
26873,note_on,113,0,0,,,,,,,,,0,,,78,0
26880,note_on,7,0,0,,,,,,,,,0,,,76,80
26993,note_on,113,0,0,,,,,,,,,0,,,76,0
27000,note_on,7,0,0,,,,,,,,,0,,,74,80
27095,note_on,455,0,1,,,,,,,,,0,,,59,0
27113,note_on,113,0,0,,,,,,,,,0,,,74,0
27120,note_on,7,0,0,,,,,,,,,0,,,76,80
27233,note_on,113,0,0,,,,,,,,,0,,,76,0
27240,note_on,7,0,0,,,,,,,,,0,,,78,80
27353,note_on,113,0,0,,,,,,,,,0,,,78,0
27360,note_on,7,0,0,,,,,,,,,0,,,79,80
27360,note_on,265,0,1,,,,,,,,,0,,,64,80
27587,note_on,227,0,0,,,,,,,,,0,,,79,0
27600,note_on,13,0,0,,,,,,,,,0,,,83,80
27713,note_on,113,0,0,,,,,,,,,0,,,83,0
27720,note_on,7,0,0,,,,,,,,,0,,,79,80
27815,note_on,455,0,1,,,,,,,,,0,,,64,0
27833,note_on,113,0,0,,,,,,,,,0,,,79,0
27840,note_on,7,0,0,,,,,,,,,0,,,81,80
27953,note_on,113,0,0,,,,,,,,,0,,,81,0
27960,note_on,7,0,0,,,,,,,,,0,,,78,80
28073,note_on,113,0,0,,,,,,,,,0,,,78,0
28080,note_on,265,0,1,,,,,,,,,0,,,61,80
28080,note_on,7,0,0,,,,,,,,,0,,,78,80
28307,note_on,227,0,1,,,,,,,,,0,,,61,0
28319,note_on,239,0,0,,,,,,,,,0,,,78,0
28320,note_on,1,0,0,,,,,,,,,0,,,76,80
28320,note_on,13,0,1,,,,,,,,,0,,,57,80
28547,note_on,227,0,1,,,,,,,,,0,,,57,0
28547,note_on,227,0,0,,,,,,,,,0,,,76,0
28560,note_on,13,0,1,,,,,,,,,0,,,61,80
28560,note_on,13,0,0,,,,,,,,,0,,,76,80
28787,note_on,227,0,0,,,,,,,,,0,,,76,0
28787,note_on,227,0,1,,,,,,,,,0,,,61,0
28800,note_on,13,0,0,,,,,,,,,0,,,78,80
28800,note_on,13,0,1,,,,,,,,,0,,,62,80
28913,note_on,113,0,0,,,,,,,,,0,,,78,0
28920,note_on,7,0,0,,,,,,,,,0,,,79,80
29027,note_on,227,0,1,,,,,,,,,0,,,62,0
29033,note_on,113,0,0,,,,,,,,,0,,,79,0
29040,note_on,13,0,1,,,,,,,,,0,,,61,80
29040,note_on,7,0,0,,,,,,,,,0,,,81,80
29267,note_on,227,0,1,,,,,,,,,0,,,61,0
29280,note_on,13,0,1,,,,,,,,,0,,,57,80
29495,note_on,455,0,0,,,,,,,,,0,,,81,0
29507,note_on,227,0,1,,,,,,,,,0,,,57,0
29520,note_on,13,0,1,,,,,,,,,0,,,62,80
29520,note_on,25,0,0,,,,,,,,,0,,,78,80
29595,note_on,75,0,0,,,,,,,,,0,,,78,0
29600,note_on,5,0,0,,,,,,,,,0,,,79,80
29675,note_on,75,0,0,,,,,,,,,0,,,79,0
29680,note_on,5,0,0,,,,,,,,,0,,,78,80
29747,note_on,227,0,1,,,,,,,,,0,,,62,0
29755,note_on,75,0,0,,,,,,,,,0,,,78,0
29760,note_on,5,0,0,,,,,,,,,0,,,81,80
29760,note_on,13,0,1,,,,,,,,,0,,,61,80
29987,note_on,227,0,1,,,,,,,,,0,,,61,0
30000,note_on,13,0,1,,,,,,,,,0,,,57,80
30215,note_on,455,0,0,,,,,,,,,0,,,81,0
30227,note_on,227,0,1,,,,,,,,,0,,,57,0
30240,key_signature,25,1,0,,,,,D,,,,,,,,
30240,note_on,0,0,0,,,,,,,,,0,,,78,80
30240,note_on,13,0,1,,,,,,,,,0,,,62,80
30353,note_on,113,0,0,,,,,,,,,0,,,78,0
30360,note_on,7,0,0,,,,,,,,,0,,,74,80
30467,note_on,227,0,1,,,,,,,,,0,,,62,0
30473,note_on,113,0,0,,,,,,,,,0,,,74,0
30480,note_on,13,0,1,,,,,,,,,0,,,61,80
30480,note_on,7,0,0,,,,,,,,,0,,,81,80
30707,note_on,227,0,1,,,,,,,,,0,,,61,0
30720,note_on,13,0,1,,,,,,,,,0,,,57,80
30935,note_on,455,0,0,,,,,,,,,0,,,81,0
30947,note_on,227,0,1,,,,,,,,,0,,,57,0
30960,note_on,25,0,0,,,,,,,,,0,,,78,80
30960,note_on,13,0,1,,,,,,,,,0,,,62,80
31073,note_on,113,0,0,,,,,,,,,0,,,78,0
31080,note_on,7,0,0,,,,,,,,,0,,,83,80
31187,note_on,227,0,1,,,,,,,,,0,,,62,0
31193,note_on,113,0,0,,,,,,,,,0,,,83,0
31200,note_on,13,0,1,,,,,,,,,0,,,61,80
31200,note_on,7,0,0,,,,,,,,,0,,,81,80
31255,note_on,55,0,0,,,,,,,,,0,,,81,0
31260,note_on,5,0,0,,,,,,,,,0,,,83,80
31315,note_on,55,0,0,,,,,,,,,0,,,83,0
31320,note_on,5,0,0,,,,,,,,,0,,,81,80
31375,note_on,55,0,0,,,,,,,,,0,,,81,0
31380,note_on,5,0,0,,,,,,,,,0,,,83,80
31427,note_on,227,0,1,,,,,,,,,0,,,61,0
31435,note_on,55,0,0,,,,,,,,,0,,,83,0
31440,note_on,5,0,0,,,,,,,,,0,,,81,80
31440,note_on,13,0,1,,,,,,,,,0,,,57,80
31495,note_on,55,0,0,,,,,,,,,0,,,81,0
31500,note_on,5,0,0,,,,,,,,,0,,,83,80
31555,note_on,55,0,0,,,,,,,,,0,,,83,0
31560,note_on,5,0,0,,,,,,,,,0,,,81,80
31615,note_on,55,0,0,,,,,,,,,0,,,81,0
31620,note_on,5,0,0,,,,,,,,,0,,,83,80
31667,note_on,227,0,1,,,,,,,,,0,,,57,0
31675,note_on,55,0,0,,,,,,,,,0,,,83,0
31680,note_on,13,0,1,,,,,,,,,0,,,62,80
31680,note_on,5,0,0,,,,,,,,,0,,,83,80
31793,note_on,113,0,0,,,,,,,,,0,,,83,0
31800,note_on,7,0,0,,,,,,,,,0,,,80,80
31907,note_on,227,0,1,,,,,,,,,0,,,62,0
31913,note_on,113,0,0,,,,,,,,,0,,,80,0
31920,note_on,13,0,1,,,,,,,,,0,,,61,80
31920,note_on,7,0,0,,,,,,,,,0,,,81,80
32147,note_on,227,0,1,,,,,,,,,0,,,61,0
32160,note_on,13,0,1,,,,,,,,,0,,,57,80
32375,note_on,455,0,0,,,,,,,,,0,,,81,0
32387,note_on,227,0,1,,,,,,,,,0,,,57,0
32400,note_on,13,0,1,,,,,,,,,0,,,62,80
32400,note_on,25,0,0,,,,,,,,,0,,,83,80
32513,note_on,113,0,0,,,,,,,,,0,,,83,0
32520,note_on,7,0,0,,,,,,,,,0,,,86,80
32627,note_on,227,0,1,,,,,,,,,0,,,62,0
32633,note_on,113,0,0,,,,,,,,,0,,,86,0
32640,note_on,13,0,1,,,,,,,,,0,,,61,80
32640,note_on,7,0,0,,,,,,,,,0,,,81,80
32867,note_on,227,0,1,,,,,,,,,0,,,61,0
32880,note_on,13,0,1,,,,,,,,,0,,,57,80
33095,note_on,455,0,0,,,,,,,,,0,,,81,0
33107,note_on,227,0,1,,,,,,,,,0,,,57,0
33120,note_on,13,0,1,,,,,,,,,0,,,62,80
33120,note_on,25,0,0,,,,,,,,,0,,,83,80
33233,note_on,113,0,0,,,,,,,,,0,,,83,0
33240,note_on,7,0,0,,,,,,,,,0,,,81,80
33347,note_on,227,0,1,,,,,,,,,0,,,62,0
33353,note_on,113,0,0,,,,,,,,,0,,,81,0
33360,note_on,7,0,0,,,,,,,,,0,,,79,80
33360,note_on,13,0,1,,,,,,,,,0,,,55,80
33473,note_on,113,0,0,,,,,,,,,0,,,79,0
33480,note_on,7,0,0,,,,,,,,,0,,,78,80
33587,note_on,227,0,1,,,,,,,,,0,,,55,0
33593,note_on,113,0,0,,,,,,,,,0,,,78,0
33600,note_on,13,0,1,,,,,,,,,0,,,59,80
33600,note_on,7,0,0,,,,,,,,,0,,,76,80
33713,note_on,113,0,0,,,,,,,,,0,,,76,0
33720,note_on,7,0,0,,,,,,,,,0,,,74,80
33827,note_on,227,0,1,,,,,,,,,0,,,59,0
33833,note_on,113,0,0,,,,,,,,,0,,,74,0
33840,note_on,13,0,1,,,,,,,,,0,,,57,80
33840,note_on,7,0,0,,,,,,,,,0,,,76,80
33895,note_on,55,0,0,,,,,,,,,0,,,76,0
33900,note_on,5,0,0,,,,,,,,,0,,,78,80
33955,note_on,55,0,0,,,,,,,,,0,,,78,0
33960,note_on,5,0,0,,,,,,,,,0,,,76,80
34015,note_on,55,0,0,,,,,,,,,0,,,76,0
34020,note_on,5,0,0,,,,,,,,,0,,,78,80
34075,note_on,55,0,0,,,,,,,,,0,,,78,0
34080,note_on,5,0,0,,,,,,,,,0,,,76,80
34135,note_on,55,0,0,,,,,,,,,0,,,76,0
34140,note_on,5,0,0,,,,,,,,,0,,,78,80
34252,note_on,112,0,0,,,,,,,,,0,,,78,0
34295,note_on,455,0,1,,,,,,,,,0,,,57,0
34560,note_on,308,0,0,,,,,,,,,0,,,74,80
34560,note_on,265,0,1,,,,,,,,,0,,,54,80
34787,note_on,227,0,0,,,,,,,,,0,,,74,0
34787,note_on,227,0,1,,,,,,,,,0,,,54,0
34800,note_on,13,0,1,,,,,,,,,0,,,50,80
34800,note_on,13,0,0,,,,,,,,,0,,,78,80
34913,note_on,113,0,0,,,,,,,,,0,,,78,0
34920,note_on,7,0,0,,,,,,,,,0,,,76,80
35033,note_on,113,0,0,,,,,,,,,0,,,76,0
35040,note_on,7,0,0,,,,,,,,,0,,,74,80
35153,note_on,113,0,0,,,,,,,,,0,,,74,0
35160,note_on,7,0,0,,,,,,,,,0,,,78,80
35255,note_on,455,0,1,,,,,,,,,0,,,50,0
35273,note_on,113,0,0,,,,,,,,,0,,,78,0
35280,note_on,25,0,1,,,,,,,,,0,,,57,80
35280,note_on,7,0,0,,,,,,,,,0,,,76,80
35507,note_on,227,0,0,,,,,,,,,0,,,76,0
35520,note_on,13,0,0,,,,,,,,,0,,,69,80
35963,note_on,683,0,1,,,,,,,,,0,,,57,0
35975,note_on,455,0,0,,,,,,,,,0,,,69,0
36000,note_on,37,0,1,,,,,,,,,0,,,54,80
36000,note_on,25,0,0,,,,,,,,,0,,,74,80
36113,note_on,113,0,0,,,,,,,,,0,,,74,0
36120,note_on,7,0,0,,,,,,,,,0,,,76,80
36227,note_on,227,0,1,,,,,,,,,0,,,54,0
36233,note_on,113,0,0,,,,,,,,,0,,,76,0
36240,note_on,7,0,0,,,,,,,,,0,,,78,80
36240,note_on,13,0,1,,,,,,,,,0,,,59,80
36353,note_on,113,0,0,,,,,,,,,0,,,78,0
36360,note_on,7,0,0,,,,,,,,,0,,,76,80
36473,note_on,113,0,0,,,,,,,,,0,,,76,0
36480,note_on,7,0,0,,,,,,,,,0,,,78,80
36593,note_on,113,0,0,,,,,,,,,0,,,78,0
36600,note_on,7,0,0,,,,,,,,,0,,,74,80
36695,note_on,455,0,1,,,,,,,,,0,,,59,0
36713,note_on,113,0,0,,,,,,,,,0,,,74,0
36720,note_on,25,0,1,,,,,,,,,0,,,52,80
36720,note_on,7,0,0,,,,,,,,,0,,,79,80
36947,note_on,227,0,0,,,,,,,,,0,,,79,0
36947,note_on,227,0,1,,,,,,,,,0,,,52,0
36960,note_on,13,0,1,,,,,,,,,0,,,57,80
36960,note_on,13,0,0,,,,,,,,,0,,,76,80
37015,note_on,55,0,0,,,,,,,,,0,,,76,0
37020,note_on,5,0,0,,,,,,,,,0,,,78,80
37075,note_on,55,0,0,,,,,,,,,0,,,78,0
37080,note_on,5,0,0,,,,,,,,,0,,,76,80
37135,note_on,55,0,0,,,,,,,,,0,,,76,0
37140,note_on,5,0,0,,,,,,,,,0,,,78,80
37195,note_on,55,0,0,,,,,,,,,0,,,78,0
37200,note_on,5,0,0,,,,,,,,,0,,,76,80
37255,note_on,55,0,0,,,,,,,,,0,,,76,0
37260,note_on,5,0,0,,,,,,,,,0,,,78,80
37315,note_on,55,0,0,,,,,,,,,0,,,78,0
37320,note_on,5,0,0,,,,,,,,,0,,,76,80
37375,note_on,55,0,0,,,,,,,,,0,,,76,0
37380,note_on,5,0,0,,,,,,,,,0,,,78,80
37415,note_on,455,0,1,,,,,,,,,0,,,57,0
37435,note_on,55,0,0,,,,,,,,,0,,,78,0
37440,note_on,5,0,0,,,,,,,,,0,,,74,80
37440,note_on,25,0,1,,,,,,,,,0,,,54,80
37667,note_on,227,0,0,,,,,,,,,0,,,74,0
37667,note_on,227,0,1,,,,,,,,,0,,,54,0
37680,note_on,13,0,0,,,,,,,,,0,,,78,80
37680,note_on,13,0,1,,,,,,,,,0,,,50,80
37793,note_on,113,0,0,,,,,,,,,0,,,78,0
37800,note_on,7,0,0,,,,,,,,,0,,,76,80
37913,note_on,113,0,0,,,,,,,,,0,,,76,0
37920,note_on,7,0,0,,,,,,,,,0,,,74,80
38033,note_on,113,0,0,,,,,,,,,0,,,74,0
38040,note_on,7,0,0,,,,,,,,,0,,,78,80
38135,note_on,455,0,1,,,,,,,,,0,,,50,0
38153,note_on,113,0,0,,,,,,,,,0,,,78,0
38160,note_on,25,0,1,,,,,,,,,0,,,57,80
38160,note_on,7,0,0,,,,,,,,,0,,,76,80
38387,note_on,227,0,1,,,,,,,,,0,,,57,0
38387,note_on,227,0,0,,,,,,,,,0,,,76,0
38400,note_on,13,0,0,,,,,,,,,0,,,69,80
38400,note_on,13,0,1,,,,,,,,,0,,,54,80
38627,note_on,227,0,0,,,,,,,,,0,,,69,0
38627,note_on,227,0,1,,,,,,,,,0,,,54,0
38640,note_on,13,0,0,,,,,,,,,0,,,74,80
38640,note_on,13,0,1,,,,,,,,,0,,,59,80
38867,note_on,227,0,1,,,,,,,,,0,,,59,0
38867,note_on,227,0,0,,,,,,,,,0,,,74,0
38880,note_on,13,0,0,,,,,,,,,0,,,79,80
38880,note_on,13,0,1,,,,,,,,,0,,,55,80
38993,note_on,113,0,0,,,,,,,,,0,,,79,0
39000,note_on,7,0,0,,,,,,,,,0,,,76,80
39107,note_on,227,0,1,,,,,,,,,0,,,55,0
39113,note_on,113,0,0,,,,,,,,,0,,,76,0
39120,note_on,13,0,1,,,,,,,,,0,,,57,80
39120,note_on,7,0,0,,,,,,,,,0,,,78,80
39233,note_on,113,0,0,,,,,,,,,0,,,78,0
39240,note_on,7,0,0,,,,,,,,,0,,,74,80
39347,note_on,227,0,1,,,,,,,,,0,,,57,0
39353,note_on,113,0,0,,,,,,,,,0,,,74,0
39360,note_on,13,0,1,,,,,,,,,0,,,45,80
39360,note_on,7,0,0,,,,,,,,,0,,,76,80
39473,note_on,113,0,0,,,,,,,,,0,,,76,0
39480,note_on,7,0,0,,,,,,,,,0,,,73,80
39587,note_on,227,0,1,,,,,,,,,0,,,45,0
39593,note_on,113,0,0,,,,,,,,,0,,,73,0
39600,note_on,13,0,1,,,,,,,,,0,,,50,80
39600,note_on,7,0,0,,,,,,,,,0,,,73,80
39838,note_on,238,0,0,,,,,,,,,0,,,73,0
39839,note_on,1,0,0,,,,,,,,,0,,,74,80
40283,note_on,683,0,1,,,,,,,,,0,,,50,0
40293,note_on,454,0,0,,,,,,,,,0,,,74,0
40320,note_on,37,0,1,,,,,,,,,0,,,62,80
40320,note_on,27,0,0,,,,,,,,,0,,,78,80
40547,note_on,227,0,0,,,,,,,,,0,,,78,0
40560,note_on,13,0,0,,,,,,,,,0,,,81,80
40673,note_on,113,0,0,,,,,,,,,0,,,81,0
40680,note_on,7,0,0,,,,,,,,,0,,,79,80
40775,note_on,455,0,1,,,,,,,,,0,,,62,0
40793,note_on,113,0,0,,,,,,,,,0,,,79,0
40800,note_on,7,0,0,,,,,,,,,0,,,81,80
40913,note_on,113,0,0,,,,,,,,,0,,,81,0
40920,note_on,7,0,0,,,,,,,,,0,,,78,80
41033,note_on,113,0,0,,,,,,,,,0,,,78,0
41040,note_on,7,0,0,,,,,,,,,0,,,83,80
41040,note_on,265,0,1,,,,,,,,,0,,,55,80
41267,note_on,227,0,0,,,,,,,,,0,,,83,0
41267,note_on,227,0,1,,,,,,,,,0,,,55,0
41280,note_on,13,0,1,,,,,,,,,0,,,50,80
41280,note_on,13,0,0,,,,,,,,,0,,,79,80
41335,note_on,55,0,0,,,,,,,,,0,,,79,0
41340,note_on,5,0,0,,,,,,,,,0,,,81,80
41395,note_on,55,0,0,,,,,,,,,0,,,81,0
41400,note_on,5,0,0,,,,,,,,,0,,,79,80
41455,note_on,55,0,0,,,,,,,,,0,,,79,0
41460,note_on,5,0,0,,,,,,,,,0,,,81,80
41515,note_on,55,0,0,,,,,,,,,0,,,81,0
41520,note_on,5,0,0,,,,,,,,,0,,,79,80
41575,note_on,55,0,0,,,,,,,,,0,,,79,0
41580,note_on,5,0,0,,,,,,,,,0,,,81,80
41635,note_on,55,0,0,,,,,,,,,0,,,81,0
41640,note_on,5,0,0,,,,,,,,,0,,,79,80
41695,note_on,55,0,0,,,,,,,,,0,,,79,0
41700,note_on,5,0,0,,,,,,,,,0,,,81,80
41735,note_on,455,0,1,,,,,,,,,0,,,50,0
41755,note_on,55,0,0,,,,,,,,,0,,,81,0
41760,note_on,25,0,1,,,,,,,,,0,,,57,80
41760,note_on,5,0,0,,,,,,,,,0,,,76,80
41873,note_on,113,0,0,,,,,,,,,0,,,76,0
41880,note_on,7,0,0,,,,,,,,,0,,,78,80
41993,note_on,113,0,0,,,,,,,,,0,,,78,0
42000,note_on,7,0,0,,,,,,,,,0,,,79,80
42113,note_on,113,0,0,,,,,,,,,0,,,79,0
42120,note_on,7,0,0,,,,,,,,,0,,,78,80
42215,note_on,455,0,1,,,,,,,,,0,,,57,0
42233,note_on,113,0,0,,,,,,,,,0,,,78,0
42240,note_on,7,0,0,,,,,,,,,0,,,79,80
42353,note_on,113,0,0,,,,,,,,,0,,,79,0
42360,note_on,7,0,0,,,,,,,,,0,,,76,80
42473,note_on,113,0,0,,,,,,,,,0,,,76,0
42480,note_on,7,0,0,,,,,,,,,0,,,81,80
42480,note_on,265,0,1,,,,,,,,,0,,,54,80
42707,note_on,227,0,0,,,,,,,,,0,,,81,0
42707,note_on,227,0,1,,,,,,,,,0,,,54,0
42720,note_on,13,0,0,,,,,,,,,0,,,78,80
42720,note_on,13,0,1,,,,,,,,,0,,,50,80
42775,note_on,55,0,0,,,,,,,,,0,,,78,0
42780,note_on,5,0,0,,,,,,,,,0,,,79,80
42835,note_on,55,0,0,,,,,,,,,0,,,79,0
42840,note_on,5,0,0,,,,,,,,,0,,,78,80
42895,note_on,55,0,0,,,,,,,,,0,,,78,0
42900,note_on,5,0,0,,,,,,,,,0,,,79,80
42955,note_on,55,0,0,,,,,,,,,0,,,79,0
42960,note_on,5,0,0,,,,,,,,,0,,,78,80
43015,note_on,55,0,0,,,,,,,,,0,,,78,0
43020,note_on,5,0,0,,,,,,,,,0,,,79,80
43075,note_on,55,0,0,,,,,,,,,0,,,79,0
43080,note_on,5,0,0,,,,,,,,,0,,,78,80
43135,note_on,55,0,0,,,,,,,,,0,,,78,0
43140,note_on,5,0,0,,,,,,,,,0,,,79,80
43175,note_on,455,0,1,,,,,,,,,0,,,50,0
43195,note_on,55,0,0,,,,,,,,,0,,,79,0
43200,note_on,25,0,1,,,,,,,,,0,,,59,80
43200,note_on,5,0,0,,,,,,,,,0,,,74,80
43427,note_on,227,0,0,,,,,,,,,0,,,74,0
43440,note_on,13,0,0,,,,,,,,,0,,,78,80
43553,note_on,113,0,0,,,,,,,,,0,,,78,0
43560,note_on,7,0,0,,,,,,,,,0,,,76,80
43655,note_on,455,0,1,,,,,,,,,0,,,59,0
43673,note_on,113,0,0,,,,,,,,,0,,,76,0
43680,note_on,7,0,0,,,,,,,,,0,,,78,80
43793,note_on,113,0,0,,,,,,,,,0,,,78,0
43800,note_on,7,0,0,,,,,,,,,0,,,74,80
43913,note_on,113,0,0,,,,,,,,,0,,,74,0
43920,note_on,7,0,0,,,,,,,,,0,,,79,80
43920,note_on,265,0,1,,,,,,,,,0,,,52,80
44147,note_on,227,0,1,,,,,,,,,0,,,52,0
44147,note_on,227,0,0,,,,,,,,,0,,,79,0
44160,note_on,13,0,0,,,,,,,,,0,,,76,80
44160,note_on,13,0,1,,,,,,,,,0,,,57,80
44215,note_on,55,0,0,,,,,,,,,0,,,76,0
44220,note_on,5,0,0,,,,,,,,,0,,,78,80
44275,note_on,55,0,0,,,,,,,,,0,,,78,0
44280,note_on,5,0,0,,,,,,,,,0,,,76,80
44335,note_on,55,0,0,,,,,,,,,0,,,76,0
44340,note_on,5,0,0,,,,,,,,,0,,,78,80
44395,note_on,55,0,0,,,,,,,,,0,,,78,0
44400,note_on,5,0,0,,,,,,,,,0,,,76,80
44455,note_on,55,0,0,,,,,,,,,0,,,76,0
44460,note_on,5,0,0,,,,,,,,,0,,,78,80
44515,note_on,55,0,0,,,,,,,,,0,,,78,0
44520,note_on,5,0,0,,,,,,,,,0,,,76,80
44575,note_on,55,0,0,,,,,,,,,0,,,76,0
44580,note_on,5,0,0,,,,,,,,,0,,,78,80
44615,note_on,455,0,1,,,,,,,,,0,,,57,0
44635,note_on,55,0,0,,,,,,,,,0,,,78,0
44640,note_on,5,0,0,,,,,,,,,0,,,78,80
44640,note_on,25,0,1,,,,,,,,,0,,,62,80
44753,note_on,113,0,0,,,,,,,,,0,,,78,0
44760,note_on,7,0,0,,,,,,,,,0,,,80,80
44867,note_on,227,0,1,,,,,,,,,0,,,62,0
44873,note_on,113,0,0,,,,,,,,,0,,,80,0
44880,note_on,13,0,1,,,,,,,,,0,,,59,80
44880,note_on,7,0,0,,,,,,,,,0,,,80,80
44935,note_on,55,0,0,,,,,,,,,0,,,80,0
44940,note_on,5,0,0,,,,,,,,,0,,,81,80
44995,note_on,55,0,0,,,,,,,,,0,,,81,0
45000,note_on,5,0,0,,,,,,,,,0,,,80,80
45055,note_on,55,0,0,,,,,,,,,0,,,80,0
45060,note_on,5,0,0,,,,,,,,,0,,,81,80
45115,note_on,55,0,0,,,,,,,,,0,,,81,0
45120,note_on,5,0,0,,,,,,,,,0,,,80,80
45175,note_on,55,0,0,,,,,,,,,0,,,80,0
45180,note_on,5,0,0,,,,,,,,,0,,,81,80
45235,note_on,55,0,0,,,,,,,,,0,,,81,0
45240,note_on,5,0,0,,,,,,,,,0,,,80,80
45295,note_on,55,0,0,,,,,,,,,0,,,80,0
45300,note_on,5,0,0,,,,,,,,,0,,,81,80
45335,note_on,455,0,1,,,,,,,,,0,,,59,0
45355,note_on,55,0,0,,,,,,,,,0,,,81,0
45360,note_on,5,0,0,,,,,,,,,0,,,80,80
45360,note_on,25,0,1,,,,,,,,,0,,,57,80
45473,note_on,113,0,1,,,,,,,,,0,,,57,0
45480,note_on,7,0,1,,,,,,,,,0,,,59,80
45593,note_on,113,0,1,,,,,,,,,0,,,59,0
45599,note_on,239,0,0,,,,,,,,,0,,,80,0
45600,note_on,7,0,1,,,,,,,,,0,,,57,80
45600,note_on,1,0,0,,,,,,,,,0,,,81,80
45713,note_on,113,0,1,,,,,,,,,0,,,57,0
45720,note_on,7,0,1,,,,,,,,,0,,,55,80
45827,note_on,227,0,0,,,,,,,,,0,,,81,0
45833,note_on,113,0,1,,,,,,,,,0,,,55,0
45840,note_on,7,0,1,,,,,,,,,0,,,54,80
45840,note_on,13,0,0,,,,,,,,,0,,,69,80
45953,note_on,113,0,1,,,,,,,,,0,,,54,0
45960,note_on,7,0,1,,,,,,,,,0,,,52,80
46067,note_on,227,0,0,,,,,,,,,0,,,69,0
46073,note_on,113,0,1,,,,,,,,,0,,,52,0
46080,note_on,13,0,0,,,,,,,,,0,,,74,80
46080,note_on,7,0,1,,,,,,,,,0,,,50,80
46307,note_on,227,0,0,,,,,,,,,0,,,74,0
46320,note_on,13,0,0,,,,,,,,,0,,,78,80
46433,note_on,113,0,0,,,,,,,,,0,,,78,0
46440,note_on,7,0,0,,,,,,,,,0,,,76,80
46535,note_on,455,0,1,,,,,,,,,0,,,50,0
46553,note_on,113,0,0,,,,,,,,,0,,,76,0
46560,note_on,7,0,0,,,,,,,,,0,,,74,80
46673,note_on,113,0,0,,,,,,,,,0,,,74,0
46680,note_on,7,0,0,,,,,,,,,0,,,78,80
46793,note_on,113,0,0,,,,,,,,,0,,,78,0
46800,note_on,7,0,0,,,,,,,,,0,,,76,80
46800,note_on,265,0,1,,,,,,,,,0,,,57,80
47027,note_on,227,0,0,,,,,,,,,0,,,76,0
47040,note_on,13,0,0,,,,,,,,,0,,,69,80
47255,note_on,455,0,1,,,,,,,,,0,,,57,0
47495,note_on,455,0,0,,,,,,,,,0,,,69,0
47520,note_on,25,0,0,,,,,,,,,0,,,74,80
47520,note_on,265,0,1,,,,,,,,,0,,,54,80
47633,note_on,113,0,0,,,,,,,,,0,,,74,0
47640,note_on,7,0,0,,,,,,,,,0,,,76,80
47747,note_on,227,0,1,,,,,,,,,0,,,54,0
47753,note_on,113,0,0,,,,,,,,,0,,,76,0
47760,note_on,13,0,1,,,,,,,,,0,,,50,80
47760,note_on,7,0,0,,,,,,,,,0,,,78,80
47873,note_on,113,0,0,,,,,,,,,0,,,78,0
47880,note_on,7,0,0,,,,,,,,,0,,,76,80
47987,note_on,227,0,1,,,,,,,,,0,,,50,0
47993,note_on,113,0,0,,,,,,,,,0,,,76,0
48000,note_on,7,0,0,,,,,,,,,0,,,78,80
48000,note_on,13,0,1,,,,,,,,,0,,,59,80
48113,note_on,113,0,0,,,,,,,,,0,,,78,0
48120,note_on,7,0,0,,,,,,,,,0,,,74,80
48227,note_on,227,0,1,,,,,,,,,0,,,59,0
48233,note_on,113,0,0,,,,,,,,,0,,,74,0
48240,note_on,13,0,1,,,,,,,,,0,,,52,80
48240,note_on,7,0,0,,,,,,,,,0,,,79,80
48467,note_on,227,0,1,,,,,,,,,0,,,52,0
48467,note_on,227,0,0,,,,,,,,,0,,,79,0
48480,note_on,13,0,0,,,,,,,,,0,,,76,80
48480,note_on,13,0,1,,,,,,,,,0,,,57,80
48535,note_on,55,0,0,,,,,,,,,0,,,76,0
48540,note_on,5,0,0,,,,,,,,,0,,,78,80
48595,note_on,55,0,0,,,,,,,,,0,,,78,0
48600,note_on,5,0,0,,,,,,,,,0,,,76,80
48655,note_on,55,0,0,,,,,,,,,0,,,76,0
48660,note_on,5,0,0,,,,,,,,,0,,,78,80
48715,note_on,55,0,0,,,,,,,,,0,,,78,0
48720,note_on,5,0,0,,,,,,,,,0,,,76,80
48775,note_on,55,0,0,,,,,,,,,0,,,76,0
48780,note_on,5,0,0,,,,,,,,,0,,,78,80
48835,note_on,55,0,0,,,,,,,,,0,,,78,0
48840,note_on,5,0,0,,,,,,,,,0,,,76,80
48895,note_on,55,0,0,,,,,,,,,0,,,76,0
48900,note_on,5,0,0,,,,,,,,,0,,,78,80
48935,note_on,455,0,1,,,,,,,,,0,,,57,0
48955,note_on,55,0,0,,,,,,,,,0,,,78,0
48960,note_on,5,0,0,,,,,,,,,0,,,74,80
48960,note_on,25,0,1,,,,,,,,,0,,,54,80
49187,note_on,227,0,1,,,,,,,,,0,,,54,0
49187,note_on,227,0,0,,,,,,,,,0,,,74,0
49200,note_on,13,0,1,,,,,,,,,0,,,50,80
49200,note_on,13,0,0,,,,,,,,,0,,,78,80
49313,note_on,113,0,0,,,,,,,,,0,,,78,0
49320,note_on,7,0,0,,,,,,,,,0,,,76,80
49433,note_on,113,0,0,,,,,,,,,0,,,76,0
49440,note_on,7,0,0,,,,,,,,,0,,,74,80
49553,note_on,113,0,0,,,,,,,,,0,,,74,0
49560,note_on,7,0,0,,,,,,,,,0,,,78,80
49655,note_on,455,0,1,,,,,,,,,0,,,50,0
49673,note_on,113,0,0,,,,,,,,,0,,,78,0
49680,note_on,25,0,1,,,,,,,,,0,,,57,80
49680,note_on,7,0,0,,,,,,,,,0,,,76,80
49907,note_on,227,0,1,,,,,,,,,0,,,57,0
49907,note_on,227,0,0,,,,,,,,,0,,,76,0
49920,note_on,13,0,0,,,,,,,,,0,,,69,80
49920,note_on,13,0,1,,,,,,,,,0,,,54,80
50147,note_on,227,0,0,,,,,,,,,0,,,69,0
50147,note_on,227,0,1,,,,,,,,,0,,,54,0
50160,note_on,13,0,0,,,,,,,,,0,,,74,80
50160,note_on,13,0,1,,,,,,,,,0,,,59,80
50387,note_on,227,0,0,,,,,,,,,0,,,74,0
50387,note_on,227,0,1,,,,,,,,,0,,,59,0
50400,note_on,13,0,1,,,,,,,,,0,,,55,80
50400,note_on,13,0,0,,,,,,,,,0,,,79,80
50513,note_on,113,0,0,,,,,,,,,0,,,79,0
50520,note_on,7,0,0,,,,,,,,,0,,,76,80
50627,note_on,227,0,1,,,,,,,,,0,,,55,0
50633,note_on,113,0,0,,,,,,,,,0,,,76,0
50640,note_on,7,0,0,,,,,,,,,0,,,78,80
50640,note_on,13,0,1,,,,,,,,,0,,,57,80
50753,note_on,113,0,0,,,,,,,,,0,,,78,0
50760,note_on,7,0,0,,,,,,,,,0,,,74,80
50867,note_on,227,0,1,,,,,,,,,0,,,57,0
50873,note_on,113,0,0,,,,,,,,,0,,,74,0
50880,note_on,7,0,0,,,,,,,,,0,,,76,80
50880,note_on,13,0,1,,,,,,,,,0,,,45,80
50993,note_on,113,0,0,,,,,,,,,0,,,76,0
51000,note_on,7,0,0,,,,,,,,,0,,,73,80
51107,note_on,227,0,1,,,,,,,,,0,,,45,0
51113,note_on,113,0,0,,,,,,,,,0,,,73,0
51120,note_on,13,0,1,,,,,,,,,0,,,50,80
51120,note_on,7,0,0,,,,,,,,,0,,,74,80
51575,note_on,455,0,0,,,,,,,,,0,,,74,0
51600,note_on,25,0,0,,,,,,,,,0,,,62,80
51803,note_on,683,0,1,,,,,,,,,0,,,50,0
51827,note_on,227,0,0,,,,,,,,,0,,,62,0
51840,note_on,13,0,0,,,,,,,,,0,,,74,80
51840,note_on,37,0,1,,,,,,,,,0,,,54,80
52067,note_on,227,0,1,,,,,,,,,0,,,54,0
52067,note_on,227,0,0,,,,,,,,,0,,,74,0
52080,note_on,13,0,0,,,,,,,,,0,,,78,80
52080,note_on,13,0,1,,,,,,,,,0,,,50,80
52307,note_on,227,0,1,,,,,,,,,0,,,50,0
52307,note_on,227,0,0,,,,,,,,,0,,,78,0
52320,note_on,13,0,1,,,,,,,,,0,,,54,80
52320,note_on,13,0,0,,,,,,,,,0,,,74,80
52547,note_on,227,0,1,,,,,,,,,0,,,54,0
52547,note_on,227,0,0,,,,,,,,,0,,,74,0
52560,note_on,13,0,1,,,,,,,,,0,,,55,80
52560,note_on,13,0,0,,,,,,,,,0,,,71,80
52673,note_on,113,0,0,,,,,,,,,0,,,71,0
52680,note_on,7,0,0,,,,,,,,,0,,,74,80
52793,note_on,113,0,0,,,,,,,,,0,,,74,0
52800,note_on,7,0,0,,,,,,,,,0,,,73,80
52913,note_on,113,0,0,,,,,,,,,0,,,73,0
52920,note_on,7,0,0,,,,,,,,,0,,,71,80
53015,note_on,455,0,1,,,,,,,,,0,,,55,0
53033,note_on,113,0,0,,,,,,,,,0,,,71,0
53040,note_on,7,0,0,,,,,,,,,0,,,73,80
53153,note_on,113,0,0,,,,,,,,,0,,,73,0
53160,note_on,7,0,0,,,,,,,,,0,,,74,80
53273,note_on,113,0,0,,,,,,,,,0,,,74,0
53280,note_on,265,0,1,,,,,,,,,0,,,52,80
53280,note_on,7,0,0,,,,,,,,,0,,,76,80
53507,note_on,227,0,0,,,,,,,,,0,,,76,0
53520,note_on,13,0,0,,,,,,,,,0,,,79,80
53633,note_on,113,0,0,,,,,,,,,0,,,79,0
53640,note_on,7,0,0,,,,,,,,,0,,,76,80
53735,note_on,455,0,1,,,,,,,,,0,,,52,0
53753,note_on,113,0,0,,,,,,,,,0,,,76,0
53760,note_on,7,0,0,,,,,,,,,0,,,78,80
53873,note_on,113,0,0,,,,,,,,,0,,,78,0
53880,note_on,7,0,0,,,,,,,,,0,,,74,80
53993,note_on,113,0,0,,,,,,,,,0,,,74,0
54000,note_on,7,0,0,,,,,,,,,0,,,73,80
54000,note_on,265,0,1,,,,,,,,,0,,,57,80
54113,note_on,113,0,0,,,,,,,,,0,,,73,0
54120,note_on,7,0,0,,,,,,,,,0,,,76,80
54233,note_on,113,0,0,,,,,,,,,0,,,76,0
54240,note_on,7,0,0,,,,,,,,,0,,,74,80
54353,note_on,113,0,0,,,,,,,,,0,,,74,0
54360,note_on,7,0,0,,,,,,,,,0,,,73,80
54455,note_on,455,0,1,,,,,,,,,0,,,57,0
54473,note_on,113,0,0,,,,,,,,,0,,,73,0
54480,note_on,7,0,0,,,,,,,,,0,,,74,80
54593,note_on,113,0,0,,,,,,,,,0,,,74,0
54600,note_on,7,0,0,,,,,,,,,0,,,76,80
54713,note_on,113,0,0,,,,,,,,,0,,,76,0
54720,note_on,7,0,0,,,,,,,,,0,,,78,80
54720,note_on,265,0,1,,,,,,,,,0,,,54,80
54833,note_on,113,0,0,,,,,,,,,0,,,78,0
54840,note_on,7,0,0,,,,,,,,,0,,,79,80
54953,note_on,113,0,0,,,,,,,,,0,,,79,0
54960,note_on,7,0,0,,,,,,,,,0,,,81,80
55073,note_on,113,0,0,,,,,,,,,0,,,81,0
55080,note_on,7,0,0,,,,,,,,,0,,,78,80
55175,note_on,455,0,1,,,,,,,,,0,,,54,0
55193,note_on,113,0,0,,,,,,,,,0,,,78,0
55200,note_on,7,0,0,,,,,,,,,0,,,79,80
55313,note_on,113,0,0,,,,,,,,,0,,,79,0
55320,note_on,7,0,0,,,,,,,,,0,,,76,80
55433,note_on,113,0,0,,,,,,,,,0,,,76,0
55440,note_on,265,0,1,,,,,,,,,0,,,59,80
55440,note_on,7,0,0,,,,,,,,,0,,,74,80
55553,note_on,113,0,0,,,,,,,,,0,,,74,0
55560,note_on,7,0,0,,,,,,,,,0,,,78,80
55673,note_on,113,0,0,,,,,,,,,0,,,78,0
55680,note_on,7,0,0,,,,,,,,,0,,,76,80
55793,note_on,113,0,0,,,,,,,,,0,,,76,0
55800,note_on,7,0,0,,,,,,,,,0,,,74,80
55895,note_on,455,0,1,,,,,,,,,0,,,59,0
55913,note_on,113,0,0,,,,,,,,,0,,,74,0
55920,note_on,7,0,0,,,,,,,,,0,,,76,80
56033,note_on,113,0,0,,,,,,,,,0,,,76,0
56040,note_on,7,0,0,,,,,,,,,0,,,78,80
56153,note_on,113,0,0,,,,,,,,,0,,,78,0
56160,note_on,265,0,1,,,,,,,,,0,,,64,80
56160,note_on,7,0,0,,,,,,,,,0,,,79,80
56387,note_on,227,0,0,,,,,,,,,0,,,79,0
56400,note_on,13,0,0,,,,,,,,,0,,,83,80
56513,note_on,113,0,0,,,,,,,,,0,,,83,0
56520,note_on,7,0,0,,,,,,,,,0,,,79,80
56615,note_on,455,0,1,,,,,,,,,0,,,64,0
56633,note_on,113,0,0,,,,,,,,,0,,,79,0
56640,note_on,7,0,0,,,,,,,,,0,,,81,80
56753,note_on,113,0,0,,,,,,,,,0,,,81,0
56760,note_on,7,0,0,,,,,,,,,0,,,78,80
56873,note_on,113,0,0,,,,,,,,,0,,,78,0
56880,note_on,265,0,1,,,,,,,,,0,,,61,80
56880,note_on,7,0,0,,,,,,,,,0,,,78,80
57107,note_on,227,0,1,,,,,,,,,0,,,61,0
57119,note_on,239,0,0,,,,,,,,,0,,,78,0
57120,note_on,13,0,1,,,,,,,,,0,,,57,80
57120,note_on,1,0,0,,,,,,,,,0,,,76,80
57347,note_on,227,0,1,,,,,,,,,0,,,57,0
57347,note_on,227,0,0,,,,,,,,,0,,,76,0
57360,note_on,13,0,0,,,,,,,,,0,,,76,80
57360,note_on,13,0,1,,,,,,,,,0,,,61,80
57587,note_on,227,0,1,,,,,,,,,0,,,61,0
57587,note_on,227,0,0,,,,,,,,,0,,,76,0
57600,note_on,13,0,1,,,,,,,,,0,,,62,80
57600,note_on,13,0,0,,,,,,,,,0,,,78,80
57713,note_on,113,0,0,,,,,,,,,0,,,78,0
57720,note_on,7,0,0,,,,,,,,,0,,,79,80
57827,note_on,227,0,1,,,,,,,,,0,,,62,0
57833,note_on,113,0,0,,,,,,,,,0,,,79,0
57840,note_on,7,0,0,,,,,,,,,0,,,81,80
57840,note_on,13,0,1,,,,,,,,,0,,,61,80
58067,note_on,227,0,1,,,,,,,,,0,,,61,0
58080,note_on,13,0,1,,,,,,,,,0,,,57,80
58295,note_on,455,0,0,,,,,,,,,0,,,81,0
58307,note_on,227,0,1,,,,,,,,,0,,,57,0
58320,note_on,13,0,1,,,,,,,,,0,,,62,80
58320,note_on,25,0,0,,,,,,,,,0,,,78,80
58395,note_on,75,0,0,,,,,,,,,0,,,78,0
58400,note_on,5,0,0,,,,,,,,,0,,,79,80
58475,note_on,75,0,0,,,,,,,,,0,,,79,0
58480,note_on,5,0,0,,,,,,,,,0,,,78,80
58547,note_on,227,0,1,,,,,,,,,0,,,62,0
58555,note_on,75,0,0,,,,,,,,,0,,,78,0
58560,note_on,5,0,0,,,,,,,,,0,,,81,80
58560,note_on,13,0,1,,,,,,,,,0,,,61,80
58787,note_on,227,0,1,,,,,,,,,0,,,61,0
58800,note_on,13,0,1,,,,,,,,,0,,,57,80
59015,note_on,455,0,0,,,,,,,,,0,,,81,0
59027,note_on,227,0,1,,,,,,,,,0,,,57,0
59040,key_signature,25,1,0,,,,,D,,,,,,,,
59040,note_on,13,0,1,,,,,,,,,0,,,62,80
59040,note_on,0,0,0,,,,,,,,,0,,,78,80
59153,note_on,113,0,0,,,,,,,,,0,,,78,0
59160,note_on,7,0,0,,,,,,,,,0,,,74,80
59267,note_on,227,0,1,,,,,,,,,0,,,62,0
59273,note_on,113,0,0,,,,,,,,,0,,,74,0
59280,note_on,13,0,1,,,,,,,,,0,,,61,80
59280,note_on,7,0,0,,,,,,,,,0,,,81,80
59507,note_on,227,0,1,,,,,,,,,0,,,61,0
59520,note_on,13,0,1,,,,,,,,,0,,,57,80
59735,note_on,455,0,0,,,,,,,,,0,,,81,0
59747,note_on,227,0,1,,,,,,,,,0,,,57,0
59760,note_on,13,0,1,,,,,,,,,0,,,62,80
59760,note_on,25,0,0,,,,,,,,,0,,,78,80
59873,note_on,113,0,0,,,,,,,,,0,,,78,0
59880,note_on,7,0,0,,,,,,,,,0,,,83,80
59987,note_on,227,0,1,,,,,,,,,0,,,62,0
59993,note_on,113,0,0,,,,,,,,,0,,,83,0
60000,note_on,7,0,0,,,,,,,,,0,,,81,80
60000,note_on,13,0,1,,,,,,,,,0,,,61,80
60055,note_on,55,0,0,,,,,,,,,0,,,81,0
60060,note_on,5,0,0,,,,,,,,,0,,,83,80
60115,note_on,55,0,0,,,,,,,,,0,,,83,0
60120,note_on,5,0,0,,,,,,,,,0,,,81,80
60175,note_on,55,0,0,,,,,,,,,0,,,81,0
60180,note_on,5,0,0,,,,,,,,,0,,,83,80
60227,note_on,227,0,1,,,,,,,,,0,,,61,0
60235,note_on,55,0,0,,,,,,,,,0,,,83,0
60240,note_on,13,0,1,,,,,,,,,0,,,57,80
60240,note_on,5,0,0,,,,,,,,,0,,,81,80
60295,note_on,55,0,0,,,,,,,,,0,,,81,0
60300,note_on,5,0,0,,,,,,,,,0,,,83,80
60355,note_on,55,0,0,,,,,,,,,0,,,83,0
60360,note_on,5,0,0,,,,,,,,,0,,,81,80
60415,note_on,55,0,0,,,,,,,,,0,,,81,0
60420,note_on,5,0,0,,,,,,,,,0,,,83,80
60467,note_on,227,0,1,,,,,,,,,0,,,57,0
60475,note_on,55,0,0,,,,,,,,,0,,,83,0
60480,note_on,13,0,1,,,,,,,,,0,,,62,80
60480,note_on,5,0,0,,,,,,,,,0,,,83,80
60593,note_on,113,0,0,,,,,,,,,0,,,83,0
60600,note_on,7,0,0,,,,,,,,,0,,,80,80
60707,note_on,227,0,1,,,,,,,,,0,,,62,0
60713,note_on,113,0,0,,,,,,,,,0,,,80,0
60720,note_on,7,0,0,,,,,,,,,0,,,81,80
60720,note_on,13,0,1,,,,,,,,,0,,,61,80
60947,note_on,227,0,1,,,,,,,,,0,,,61,0
60960,note_on,13,0,1,,,,,,,,,0,,,57,80
61175,note_on,455,0,0,,,,,,,,,0,,,81,0
61187,note_on,227,0,1,,,,,,,,,0,,,57,0
61200,note_on,13,0,1,,,,,,,,,0,,,62,80
61200,note_on,25,0,0,,,,,,,,,0,,,83,80
61313,note_on,113,0,0,,,,,,,,,0,,,83,0
61320,note_on,7,0,0,,,,,,,,,0,,,86,80
61427,note_on,227,0,1,,,,,,,,,0,,,62,0
61433,note_on,113,0,0,,,,,,,,,0,,,86,0
61440,note_on,13,0,1,,,,,,,,,0,,,61,80
61440,note_on,7,0,0,,,,,,,,,0,,,81,80
61667,note_on,227,0,1,,,,,,,,,0,,,61,0
61680,note_on,13,0,1,,,,,,,,,0,,,57,80
61895,note_on,455,0,0,,,,,,,,,0,,,81,0
61907,note_on,227,0,1,,,,,,,,,0,,,57,0
61920,note_on,25,0,0,,,,,,,,,0,,,83,80
61920,note_on,13,0,1,,,,,,,,,0,,,62,80
62033,note_on,113,0,0,,,,,,,,,0,,,83,0
62040,note_on,7,0,0,,,,,,,,,0,,,81,80
62147,note_on,227,0,1,,,,,,,,,0,,,62,0
62153,note_on,113,0,0,,,,,,,,,0,,,81,0
62160,note_on,13,0,1,,,,,,,,,0,,,55,80
62160,note_on,7,0,0,,,,,,,,,0,,,79,80
62273,note_on,113,0,0,,,,,,,,,0,,,79,0
62280,note_on,7,0,0,,,,,,,,,0,,,78,80
62387,note_on,227,0,1,,,,,,,,,0,,,55,0
62393,note_on,113,0,0,,,,,,,,,0,,,78,0
62400,note_on,13,0,1,,,,,,,,,0,,,59,80
62400,note_on,7,0,0,,,,,,,,,0,,,76,80
62513,note_on,113,0,0,,,,,,,,,0,,,76,0
62520,note_on,7,0,0,,,,,,,,,0,,,74,80
62627,note_on,227,0,1,,,,,,,,,0,,,59,0
62633,note_on,113,0,0,,,,,,,,,0,,,74,0
62640,note_on,7,0,0,,,,,,,,,0,,,76,80
62640,note_on,13,0,1,,,,,,,,,0,,,57,80
62695,note_on,55,0,0,,,,,,,,,0,,,76,0
62700,note_on,5,0,0,,,,,,,,,0,,,78,80
62755,note_on,55,0,0,,,,,,,,,0,,,78,0
62760,note_on,5,0,0,,,,,,,,,0,,,76,80
62815,note_on,55,0,0,,,,,,,,,0,,,76,0
62820,note_on,5,0,0,,,,,,,,,0,,,78,80
62875,note_on,55,0,0,,,,,,,,,0,,,78,0
62880,note_on,5,0,0,,,,,,,,,0,,,76,80
62935,note_on,55,0,0,,,,,,,,,0,,,76,0
62940,note_on,5,0,0,,,,,,,,,0,,,78,80
63052,note_on,112,0,0,,,,,,,,,0,,,78,0
63095,note_on,455,0,1,,,,,,,,,0,,,57,0
63360,note_on,308,0,0,,,,,,,,,0,,,74,80
63360,note_on,265,0,1,,,,,,,,,0,,,54,80
63587,note_on,227,0,1,,,,,,,,,0,,,54,0
63587,note_on,227,0,0,,,,,,,,,0,,,74,0
63600,note_on,13,0,0,,,,,,,,,0,,,78,80
63600,note_on,13,0,1,,,,,,,,,0,,,50,80
63713,note_on,113,0,0,,,,,,,,,0,,,78,0
63720,note_on,7,0,0,,,,,,,,,0,,,76,80
63833,note_on,113,0,0,,,,,,,,,0,,,76,0
63840,note_on,7,0,0,,,,,,,,,0,,,74,80
63953,note_on,113,0,0,,,,,,,,,0,,,74,0
63960,note_on,7,0,0,,,,,,,,,0,,,78,80
64055,note_on,455,0,1,,,,,,,,,0,,,50,0
64073,note_on,113,0,0,,,,,,,,,0,,,78,0
64080,note_on,25,0,1,,,,,,,,,0,,,57,80
64080,note_on,7,0,0,,,,,,,,,0,,,76,80
64307,note_on,227,0,0,,,,,,,,,0,,,76,0
64320,note_on,13,0,0,,,,,,,,,0,,,69,80
64763,note_on,683,0,1,,,,,,,,,0,,,57,0
64775,note_on,455,0,0,,,,,,,,,0,,,69,0
64800,note_on,25,0,0,,,,,,,,,0,,,74,80
64800,note_on,37,0,1,,,,,,,,,0,,,54,80
64913,note_on,113,0,0,,,,,,,,,0,,,74,0
64920,note_on,7,0,0,,,,,,,,,0,,,76,80
65027,note_on,227,0,1,,,,,,,,,0,,,54,0
65033,note_on,113,0,0,,,,,,,,,0,,,76,0
65040,note_on,13,0,1,,,,,,,,,0,,,59,80
65040,note_on,7,0,0,,,,,,,,,0,,,78,80
65153,note_on,113,0,0,,,,,,,,,0,,,78,0
65160,note_on,7,0,0,,,,,,,,,0,,,76,80
65273,note_on,113,0,0,,,,,,,,,0,,,76,0
65280,note_on,7,0,0,,,,,,,,,0,,,78,80
65393,note_on,113,0,0,,,,,,,,,0,,,78,0
65400,note_on,7,0,0,,,,,,,,,0,,,74,80
65495,note_on,455,0,1,,,,,,,,,0,,,59,0
65513,note_on,113,0,0,,,,,,,,,0,,,74,0
65520,note_on,25,0,1,,,,,,,,,0,,,52,80
65520,note_on,7,0,0,,,,,,,,,0,,,79,80
65747,note_on,227,0,1,,,,,,,,,0,,,52,0
65747,note_on,227,0,0,,,,,,,,,0,,,79,0
65760,note_on,13,0,0,,,,,,,,,0,,,76,80
65760,note_on,13,0,1,,,,,,,,,0,,,57,80
65815,note_on,55,0,0,,,,,,,,,0,,,76,0
65820,note_on,5,0,0,,,,,,,,,0,,,78,80
65875,note_on,55,0,0,,,,,,,,,0,,,78,0
65880,note_on,5,0,0,,,,,,,,,0,,,76,80
65935,note_on,55,0,0,,,,,,,,,0,,,76,0
65940,note_on,5,0,0,,,,,,,,,0,,,78,80
65995,note_on,55,0,0,,,,,,,,,0,,,78,0
66000,note_on,5,0,0,,,,,,,,,0,,,76,80
66055,note_on,55,0,0,,,,,,,,,0,,,76,0
66060,note_on,5,0,0,,,,,,,,,0,,,78,80
66115,note_on,55,0,0,,,,,,,,,0,,,78,0
66120,note_on,5,0,0,,,,,,,,,0,,,76,80
66175,note_on,55,0,0,,,,,,,,,0,,,76,0
66180,note_on,5,0,0,,,,,,,,,0,,,78,80
66215,note_on,455,0,1,,,,,,,,,0,,,57,0
66235,note_on,55,0,0,,,,,,,,,0,,,78,0
66240,note_on,25,0,1,,,,,,,,,0,,,54,80
66240,note_on,5,0,0,,,,,,,,,0,,,74,80
66467,note_on,227,0,1,,,,,,,,,0,,,54,0
66467,note_on,227,0,0,,,,,,,,,0,,,74,0
66480,note_on,13,0,0,,,,,,,,,0,,,78,80
66480,note_on,13,0,1,,,,,,,,,0,,,50,80
66593,note_on,113,0,0,,,,,,,,,0,,,78,0
66600,note_on,7,0,0,,,,,,,,,0,,,76,80
66713,note_on,113,0,0,,,,,,,,,0,,,76,0
66720,note_on,7,0,0,,,,,,,,,0,,,74,80
66833,note_on,113,0,0,,,,,,,,,0,,,74,0
66840,note_on,7,0,0,,,,,,,,,0,,,78,80
66935,note_on,455,0,1,,,,,,,,,0,,,50,0
66953,note_on,113,0,0,,,,,,,,,0,,,78,0
66960,note_on,7,0,0,,,,,,,,,0,,,76,80
66960,note_on,25,0,1,,,,,,,,,0,,,57,80
67187,note_on,227,0,1,,,,,,,,,0,,,57,0
67187,note_on,227,0,0,,,,,,,,,0,,,76,0
67200,note_on,13,0,0,,,,,,,,,0,,,69,80
67200,note_on,13,0,1,,,,,,,,,0,,,54,80
67427,note_on,227,0,0,,,,,,,,,0,,,69,0
67427,note_on,227,0,1,,,,,,,,,0,,,54,0
67440,note_on,13,0,1,,,,,,,,,0,,,59,80
67440,note_on,13,0,0,,,,,,,,,0,,,74,80
67667,note_on,227,0,0,,,,,,,,,0,,,74,0
67667,note_on,227,0,1,,,,,,,,,0,,,59,0
67680,note_on,13,0,0,,,,,,,,,0,,,79,80
67680,note_on,13,0,1,,,,,,,,,0,,,55,80
67793,note_on,113,0,0,,,,,,,,,0,,,79,0
67800,note_on,7,0,0,,,,,,,,,0,,,76,80
67907,note_on,227,0,1,,,,,,,,,0,,,55,0
67913,note_on,113,0,0,,,,,,,,,0,,,76,0
67920,note_on,7,0,0,,,,,,,,,0,,,78,80
67920,note_on,13,0,1,,,,,,,,,0,,,57,80
68033,note_on,113,0,0,,,,,,,,,0,,,78,0
68040,note_on,7,0,0,,,,,,,,,0,,,74,80
68147,note_on,227,0,1,,,,,,,,,0,,,57,0
68153,note_on,113,0,0,,,,,,,,,0,,,74,0
68160,note_on,13,0,1,,,,,,,,,0,,,45,80
68160,note_on,7,0,0,,,,,,,,,0,,,76,80
68273,note_on,113,0,0,,,,,,,,,0,,,76,0
68280,note_on,7,0,0,,,,,,,,,0,,,73,80
68387,note_on,227,0,1,,,,,,,,,0,,,45,0
68393,note_on,113,0,0,,,,,,,,,0,,,73,0
68400,note_on,13,0,1,,,,,,,,,0,,,50,80
68400,note_on,7,0,0,,,,,,,,,0,,,73,80
68638,note_on,238,0,0,,,,,,,,,0,,,73,0
68639,note_on,1,0,0,,,,,,,,,0,,,74,80
69083,note_on,683,0,1,,,,,,,,,0,,,50,0
69084,end_of_track,1,1,1,,,,,,,,,,,,,
69093,note_on,454,0,0,,,,,,,,,0,,,74,0
69094,end_of_track,1,1,0,,,,,,,,,,,,,
