tick,type,numerator,denominator,clocks_per_click,notated_32nd_notes_per_beat,time,meta,track,tempo,key,program,channel,control,value,note,velocity
0,control_change,,,,,0,0,1,,,,0,7,127,,
0,instrument_name,,,,,0,1,3,,,,,,,,
0,instrument_name,,,,,0,1,4,,,,,,,,
0,key_signature,,,,,0,1,1,,F#,,,,,,
0,key_signature,,,,,0,1,2,,F#,,,,,,
0,key_signature,,,,,0,1,3,,F#,,,,,,
0,key_signature,,,,,0,1,4,,F#,,,,,,
0,note_on,,,,,0,0,1,,,,0,,,61,107
0,instrument_name,,,,,0,1,2,,,,,,,,
0,track_name,,,,,0,1,3,,,,,,,,
0,program_change,,,,,0,0,2,,,0,1,,,,
0,program_change,,,,,0,0,3,,,0,2,,,,
0,program_change,,,,,0,0,4,,,0,3,,,,
0,set_tempo,,,,,0,1,0,1000000,,,,,,,
0,time_signature,2,4,24,8,0,1,0,,,,,,,,
0,track_name,,,,,0,1,1,,,,,,,,
0,track_name,,,,,0,1,2,,,,,,,,
0,program_change,,,,,0,0,1,,,0,0,,,,
0,instrument_name,,,,,0,1,1,,,,,,,,
0,track_name,,,,,0,1,4,,,,,,,,
0,control_change,,,,,0,0,4,,,,3,100,1,,
0,control_change,,,,,0,0,4,,,,3,101,0,,
0,control_change,,,,,0,0,4,,,,3,101,0,,
0,control_change,,,,,0,0,4,,,,3,101,0,,
0,control_change,,,,,0,0,4,,,,3,100,0,,
0,control_change,,,,,0,0,4,,,,3,6,76,,
0,control_change,,,,,0,0,4,,,,3,6,64,,
0,control_change,,,,,0,0,2,,,,1,100,0,,
0,control_change,,,,,0,0,4,,,,3,100,2,,
0,control_change,,,,,0,0,2,,,,1,100,1,,
0,control_change,,,,,0,0,2,,,,1,101,0,,
0,control_change,,,,,0,0,2,,,,1,101,0,,
0,control_change,,,,,0,0,2,,,,1,101,0,,
0,control_change,,,,,0,0,2,,,,1,6,64,,
0,control_change,,,,,0,0,2,,,,1,6,52,,
0,control_change,,,,,0,0,2,,,,1,6,12,,
0,control_change,,,,,0,0,2,,,,1,100,2,,
0,control_change,,,,,0,0,4,,,,3,6,12,,
60,note_off,,,,,60,0,1,,,,0,,,61,64
60,note_on,,,,,0,0,1,,,,0,,,61,103
480,note_on,,,,,0,0,2,,,,1,,,53,97
480,note_on,,,,,480,0,2,,,,1,,,37,103
480,note_on,,,,,0,0,2,,,,1,,,44,91
480,note_on,,,,,0,0,2,,,,1,,,56,87
540,note_off,,,,,60,0,2,,,,1,,,37,64
540,note_off,,,,,0,0,2,,,,1,,,56,64
540,note_off,,,,,0,0,2,,,,1,,,53,64
540,note_on,,,,,0,0,2,,,,1,,,44,83
540,note_on,,,,,0,0,2,,,,1,,,53,107
540,note_on,,,,,0,0,2,,,,1,,,56,115
540,note_off,,,,,0,0,2,,,,1,,,44,64
540,note_on,,,,,0,0,2,,,,1,,,37,107
720,note_off,,,,,0,0,2,,,,1,,,56,64
720,note_off,,,,,180,0,2,,,,1,,,37,64
720,note_off,,,,,0,0,2,,,,1,,,53,64
720,note_off,,,,,0,0,2,,,,1,,,44,64
899,note_off,,,,,839,0,1,,,,0,,,61,64
960,note_on,,,,,61,0,1,,,,0,,,61,97
990,note_off,,,,,30,0,1,,,,0,,,61,64
990,note_on,,,,,0,0,1,,,,0,,,59,97
1020,note_on,,,,,0,0,1,,,,0,,,61,97
1020,note_off,,,,,30,0,1,,,,0,,,59,64
1050,note_on,,,,,0,0,1,,,,0,,,59,93
1050,note_off,,,,,30,0,1,,,,0,,,61,64
1440,note_on,,,,,0,0,2,,,,1,,,44,79
1440,note_on,,,,,0,0,2,,,,1,,,54,79
1440,note_on,,,,,0,0,2,,,,1,,,50,83
1440,note_on,,,,,720,0,2,,,,1,,,32,97
1500,note_on,,,,,0,0,2,,,,1,,,32,97
1500,note_off,,,,,0,0,2,,,,1,,,50,64
1500,note_off,,,,,0,0,2,,,,1,,,44,64
1500,note_on,,,,,0,0,2,,,,1,,,44,83
1500,note_on,,,,,0,0,2,,,,1,,,50,87
1500,note_on,,,,,0,0,2,,,,1,,,54,77
1500,note_off,,,,,60,0,2,,,,1,,,32,64
1500,note_off,,,,,0,0,2,,,,1,,,54,64
1649,note_off,,,,,599,0,1,,,,0,,,59,64
1680,note_off,,,,,0,0,2,,,,1,,,44,64
1680,note_off,,,,,180,0,2,,,,1,,,32,64
1680,note_off,,,,,0,0,2,,,,1,,,54,64
1680,note_on,,,,,31,0,1,,,,0,,,61,97
1680,note_off,,,,,0,0,2,,,,1,,,50,64
1740,note_off,,,,,60,0,1,,,,0,,,61,64
1740,note_on,,,,,0,0,1,,,,0,,,64,93
1800,note_on,,,,,0,0,1,,,,0,,,62,97
1800,note_off,,,,,60,0,1,,,,0,,,64,64
1860,note_on,,,,,0,0,1,,,,0,,,61,97
1860,note_off,,,,,60,0,1,,,,0,,,62,64
1920,note_off,,,,,60,0,1,,,,0,,,61,64
1920,note_on,,,,,0,0,1,,,,0,,,61,103
2400,note_on,,,,,720,0,2,,,,1,,,37,103
2400,note_on,,,,,0,0,2,,,,1,,,44,87
2400,note_on,,,,,0,0,2,,,,1,,,53,83
2400,note_on,,,,,0,0,2,,,,1,,,56,87
2460,note_off,,,,,60,0,2,,,,1,,,37,64
2460,note_on,,,,,0,0,2,,,,1,,,37,97
2460,note_on,,,,,0,0,2,,,,1,,,44,77
2460,note_on,,,,,0,0,2,,,,1,,,53,83
2460,note_on,,,,,0,0,2,,,,1,,,56,87
2460,note_off,,,,,0,0,2,,,,1,,,44,64
2460,note_off,,,,,0,0,2,,,,1,,,53,64
2460,note_off,,,,,0,0,2,,,,1,,,56,64
2640,note_off,,,,,0,0,2,,,,1,,,56,64
2640,note_off,,,,,0,0,2,,,,1,,,53,64
2640,note_off,,,,,180,0,2,,,,1,,,37,64
2640,note_off,,,,,0,0,2,,,,1,,,44,64
2880,note_on,,,,,0,0,1,,,,0,,,61,97
2880,note_off,,,,,960,0,1,,,,0,,,61,64
2910,note_off,,,,,30,0,1,,,,0,,,61,64
2910,note_on,,,,,0,0,1,,,,0,,,59,93
2940,note_off,,,,,30,0,1,,,,0,,,59,64
2940,note_on,,,,,0,0,1,,,,0,,,61,103
2970,note_on,,,,,0,0,1,,,,0,,,59,97
2970,note_off,,,,,30,0,1,,,,0,,,61,64
3360,note_on,,,,,0,0,2,,,,1,,,44,87
3360,note_on,,,,,0,0,2,,,,1,,,50,91
3360,note_on,,,,,0,0,2,,,,1,,,54,83
3360,note_on,,,,,720,0,2,,,,1,,,32,97
3420,note_on,,,,,0,0,2,,,,1,,,54,83
3420,note_off,,,,,0,0,2,,,,1,,,54,64
3420,note_off,,,,,0,0,2,,,,1,,,50,64
3420,note_off,,,,,0,0,2,,,,1,,,44,64
3420,note_off,,,,,60,0,2,,,,1,,,32,64
3420,note_on,,,,,0,0,2,,,,1,,,32,93
3420,note_on,,,,,0,0,2,,,,1,,,44,83
3420,note_on,,,,,0,0,2,,,,1,,,50,87
3540,note_on,,,,,570,0,1,,,,0,,,57,91
3569,note_off,,,,,29,0,1,,,,0,,,59,64
3600,note_off,,,,,180,0,2,,,,1,,,32,64
3600,note_off,,,,,0,0,2,,,,1,,,54,64
3600,note_off,,,,,31,0,1,,,,0,,,57,64
3600,note_off,,,,,0,0,2,,,,1,,,50,64
3600,note_on,,,,,0,0,1,,,,0,,,56,93
3600,note_off,,,,,0,0,2,,,,1,,,44,64
3660,note_off,,,,,60,0,1,,,,0,,,56,64
3660,note_on,,,,,0,0,1,,,,0,,,59,97
3720,note_off,,,,,60,0,1,,,,0,,,59,64
3720,note_on,,,,,0,0,1,,,,0,,,57,97
3780,note_on,,,,,0,0,1,,,,0,,,56,103
3780,note_off,,,,,60,0,1,,,,0,,,57,64
3840,note_off,,,,,60,0,1,,,,0,,,56,64
3840,note_on,,,,,0,0,1,,,,0,,,56,97
4320,note_on,,,,,0,0,2,,,,1,,,44,77
4320,note_on,,,,,0,0,2,,,,1,,,53,87
4320,note_on,,,,,720,0,2,,,,1,,,37,93
4320,note_on,,,,,0,0,2,,,,1,,,49,93
4380,note_on,,,,,0,0,2,,,,1,,,53,77
4380,note_on,,,,,0,0,2,,,,1,,,37,91
4380,note_off,,,,,0,0,2,,,,1,,,49,64
4380,note_off,,,,,0,0,2,,,,1,,,53,64
4380,note_on,,,,,0,0,2,,,,1,,,49,83
4380,note_on,,,,,0,0,2,,,,1,,,44,71
4380,note_off,,,,,0,0,2,,,,1,,,44,64
4380,note_off,,,,,60,0,2,,,,1,,,37,64
4560,note_off,,,,,180,0,2,,,,1,,,37,64
4560,note_off,,,,,0,0,2,,,,1,,,53,64
4560,note_off,,,,,0,0,2,,,,1,,,49,64
4560,note_off,,,,,0,0,2,,,,1,,,44,64
4800,note_on,,,,,0,0,1,,,,0,,,56,103
4800,note_off,,,,,960,0,1,,,,0,,,56,64
4860,note_off,,,,,60,0,1,,,,0,,,56,64
4860,note_on,,,,,0,0,1,,,,0,,,56,103
5280,note_on,,,,,720,0,2,,,,1,,,40,91
5280,note_on,,,,,0,0,2,,,,1,,,52,83
5280,note_on,,,,,0,0,2,,,,1,,,49,83
5280,note_on,,,,,0,0,2,,,,1,,,44,73
5340,note_on,,,,,0,0,2,,,,1,,,49,77
5340,note_on,,,,,0,0,2,,,,1,,,52,75
5340,note_off,,,,,0,0,2,,,,1,,,49,64
5340,note_off,,,,,60,0,2,,,,1,,,40,64
5340,note_off,,,,,0,0,2,,,,1,,,44,64
5340,note_on,,,,,0,0,2,,,,1,,,44,69
5340,note_off,,,,,0,0,2,,,,1,,,52,64
5340,note_on,,,,,0,0,2,,,,1,,,40,93
5459,note_off,,,,,599,0,1,,,,0,,,56,64
5460,note_on,,,,,1,0,1,,,,0,,,57,97
5520,note_off,,,,,60,0,1,,,,0,,,57,64
5520,note_off,,,,,0,0,2,,,,1,,,52,64
5520,note_off,,,,,0,0,2,,,,1,,,49,64
5520,note_off,,,,,0,0,2,,,,1,,,44,64
5520,note_off,,,,,180,0,2,,,,1,,,40,64
5520,note_on,,,,,0,0,1,,,,0,,,56,103
5580,note_off,,,,,60,0,1,,,,0,,,56,64
5580,note_on,,,,,0,0,1,,,,0,,,59,91
5640,note_on,,,,,0,0,1,,,,0,,,57,91
5640,note_off,,,,,60,0,1,,,,0,,,59,64
5700,note_on,,,,,0,0,1,,,,0,,,56,97
5700,note_off,,,,,60,0,1,,,,0,,,57,64
5760,note_off,,,,,60,0,1,,,,0,,,56,64
5760,note_on,,,,,0,0,1,,,,0,,,56,97
6240,note_on,,,,,0,0,2,,,,1,,,49,91
6240,note_on,,,,,720,0,2,,,,1,,,51,87
6240,note_on,,,,,0,0,2,,,,1,,,44,87
6300,note_on,,,,,0,0,2,,,,1,,,44,75
6300,note_off,,,,,60,0,2,,,,1,,,51,64
6300,note_off,,,,,0,0,2,,,,1,,,49,64
6300,note_on,,,,,0,0,2,,,,1,,,49,77
6300,note_off,,,,,0,0,2,,,,1,,,44,64
6300,note_on,,,,,0,0,2,,,,1,,,51,77
6480,note_off,,,,,0,0,2,,,,1,,,49,64
6480,note_off,,,,,180,0,2,,,,1,,,51,64
6720,note_on,,,,,240,0,2,,,,1,,,54,69
6720,note_on,,,,,0,0,2,,,,1,,,48,75
6720,note_on,,,,,0,0,2,,,,1,,,51,79
6760,set_tempo,,,,,6760,1,0,1016949,,,,,,,
6779,note_off,,,,,59,0,2,,,,1,,,44,64
6800,note_on,,,,,21,0,2,,,,1,,,45,73
6850,set_tempo,,,,,90,1,0,1052631,,,,,,,
6880,note_off,,,,,80,0,2,,,,1,,,45,64
6880,note_on,,,,,0,0,2,,,,1,,,44,83
6940,set_tempo,,,,,90,1,0,1071428,,,,,,,
6960,note_off,,,,,0,0,2,,,,1,,,48,64
6960,note_off,,,,,0,0,2,,,,1,,,51,64
6960,note_on,,,,,0,0,2,,,,1,,,47,79
6960,note_off,,,,,80,0,2,,,,1,,,54,64
6960,note_off,,,,,0,0,2,,,,1,,,44,64
7020,set_tempo,,,,,80,1,0,1090909,,,,,,,
7040,note_on,,,,,0,0,2,,,,1,,,45,83
7040,note_off,,,,,80,0,2,,,,1,,,47,64
7120,note_on,,,,,0,0,2,,,,1,,,44,87
7120,note_off,,,,,80,0,2,,,,1,,,45,64
7160,set_tempo,,,,,140,1,0,1111111,,,,,,,
7180,set_tempo,,,,,20,1,0,1132075,,,,,,,
7199,note_off,,,,,1439,0,1,,,,0,,,56,64
7200,note_off,,,,,80,0,2,,,,1,,,44,64
7200,note_on,,,,,0,0,2,,,,1,,,42,91
7220,set_tempo,,,,,40,1,0,1153846,,,,,,,
7280,note_off,,,,,80,0,2,,,,1,,,42,64
7280,note_on,,,,,0,0,2,,,,1,,,40,93
7290,set_tempo,,,,,70,1,0,1200000,,,,,,,
7360,note_off,,,,,80,0,2,,,,1,,,40,64
7360,note_on,,,,,0,0,2,,,,1,,,42,91
7420,set_tempo,,,,,130,1,0,1250000,,,,,,,
7440,note_off,,,,,80,0,2,,,,1,,,42,64
7440,note_on,,,,,0,0,2,,,,1,,,39,93
7520,note_off,,,,,80,0,2,,,,1,,,39,64
7520,note_on,,,,,0,0,2,,,,1,,,45,87
7550,set_tempo,,,,,130,1,0,1304347,,,,,,,
7600,set_tempo,,,,,50,1,0,1333333,,,,,,,
7640,note_on,,,,,0,0,2,,,,1,,,44,91
7640,note_off,,,,,120,0,2,,,,1,,,45,64
7670,note_off,,,,,30,0,2,,,,1,,,44,64
7680,note_on,,,,,10,0,2,,,,1,,,37,103
7760,set_tempo,,,,,160,1,0,750000,,,,,,,
8040,note_on,,,,,360,0,2,,,,1,,,44,91
8160,note_on,,,,,0,0,2,,,,1,,,49,91
8160,note_off,,,,,120,0,2,,,,1,,,44,64
8640,note_on,,,,,0,0,2,,,,1,,,37,103
8640,note_off,,,,,480,0,2,,,,1,,,37,64
8640,note_off,,,,,0,0,2,,,,1,,,49,64
9000,note_on,,,,,360,0,2,,,,1,,,44,97
9120,note_off,,,,,120,0,2,,,,1,,,44,64
9120,note_on,,,,,0,0,2,,,,1,,,49,91
9480,note_on,,,,,2281,0,1,,,,0,,,56,107
9540,note_off,,,,,60,0,1,,,,0,,,56,64
9540,note_on,,,,,0,0,1,,,,0,,,56,103
9600,note_off,,,,,480,0,2,,,,1,,,37,64
9600,note_off,,,,,0,0,2,,,,1,,,49,64
9600,note_off,,,,,60,0,1,,,,0,,,56,64
9600,note_on,,,,,0,0,1,,,,0,,,61,93
9600,note_on,,,,,0,0,2,,,,1,,,37,103
9720,note_off,,,,,120,0,1,,,,0,,,61,64
9960,note_on,,,,,360,0,2,,,,1,,,44,97
10080,note_on,,,,,0,0,1,,,,0,,,52,91
10080,note_on,,,,,0,0,2,,,,1,,,49,87
10080,note_on,,,,,360,0,1,,,,0,,,56,93
10080,note_on,,,,,0,0,1,,,,0,,,61,83
10080,note_off,,,,,120,0,2,,,,1,,,44,64
10320,note_off,,,,,0,0,1,,,,0,,,52,64
10320,note_off,,,,,240,0,1,,,,0,,,56,64
10560,note_off,,,,,480,0,2,,,,1,,,37,64
10560,note_on,,,,,0,0,2,,,,1,,,37,103
10560,note_off,,,,,0,0,2,,,,1,,,49,64
10679,note_off,,,,,359,0,1,,,,0,,,61,64
10680,note_on,,,,,1,0,1,,,,0,,,60,103
10800,note_on,,,,,0,0,1,,,,0,,,61,83
10800,note_off,,,,,120,0,1,,,,0,,,60,64
10920,note_off,,,,,120,0,1,,,,0,,,61,64
10920,note_on,,,,,0,0,1,,,,0,,,63,93
10920,note_on,,,,,360,0,2,,,,1,,,45,93
11040,note_off,,,,,120,0,1,,,,0,,,63,64
11040,note_off,,,,,120,0,2,,,,1,,,45,64
11040,note_on,,,,,0,0,2,,,,1,,,49,79
11040,note_on,,,,,0,0,1,,,,0,,,54,91
11070,note_on,,,,,30,0,1,,,,0,,,57,93
11100,note_on,,,,,30,0,1,,,,0,,,64,97
11160,note_off,,,,,0,0,1,,,,0,,,64,64
11160,note_off,,,,,0,0,1,,,,0,,,57,64
11160,note_off,,,,,60,0,1,,,,0,,,54,64
11160,note_on,,,,,0,0,1,,,,0,,,57,103
11280,note_on,,,,,0,0,1,,,,0,,,64,97
11280,note_off,,,,,120,0,1,,,,0,,,57,64
11400,note_on,,,,,0,0,1,,,,0,,,63,97
11400,note_off,,,,,120,0,1,,,,0,,,64,64
11520,note_on,,,,,0,0,1,,,,0,,,61,97
11520,note_on,,,,,0,0,2,,,,1,,,37,97
11520,note_off,,,,,0,0,2,,,,1,,,49,64
11520,note_off,,,,,480,0,2,,,,1,,,37,64
11520,note_off,,,,,120,0,1,,,,0,,,63,64
11880,note_on,,,,,360,0,2,,,,1,,,44,93
12000,note_off,,,,,480,0,1,,,,0,,,61,64
12000,note_off,,,,,120,0,2,,,,1,,,44,64
12000,note_on,,,,,0,0,2,,,,1,,,49,91
12000,note_on,,,,,0,0,1,,,,0,,,61,97
12030,note_on,,,,,0,0,1,,,,0,,,63,83
12030,note_off,,,,,30,0,1,,,,0,,,61,64
12060,note_on,,,,,0,0,1,,,,0,,,52,91
12060,note_on,,,,,0,0,1,,,,0,,,56,79
12060,note_on,,,,,0,0,1,,,,0,,,61,73
12060,note_off,,,,,30,0,1,,,,0,,,63,64
12240,note_off,,,,,180,0,1,,,,0,,,56,64
12240,note_off,,,,,0,0,1,,,,0,,,52,64
12360,note_on,,,,,0,0,1,,,,0,,,60,103
12360,note_off,,,,,120,0,1,,,,0,,,61,64
12480,note_off,,,,,120,0,1,,,,0,,,60,64
12480,note_off,,,,,0,0,2,,,,1,,,49,64
12480,note_on,,,,,0,0,1,,,,0,,,61,91
12480,note_on,,,,,0,0,2,,,,1,,,37,103
12480,note_off,,,,,480,0,2,,,,1,,,37,64
12840,note_on,,,,,360,0,2,,,,1,,,44,97
12960,note_on,,,,,0,0,2,,,,1,,,49,87
12960,note_off,,,,,120,0,2,,,,1,,,44,64
12960,note_on,,,,,0,0,1,,,,0,,,52,93
12960,note_on,,,,,480,0,1,,,,0,,,56,91
13200,note_off,,,,,240,0,1,,,,0,,,56,64
13200,note_off,,,,,0,0,1,,,,0,,,52,64
13319,note_off,,,,,119,0,1,,,,0,,,61,64
13320,note_on,,,,,1,0,1,,,,0,,,63,93
13440,note_on,,,,,0,0,2,,,,1,,,35,93
13440,note_on,,,,,0,0,1,,,,0,,,64,103
13440,note_off,,,,,120,0,1,,,,0,,,63,64
13440,note_off,,,,,0,0,2,,,,1,,,49,64
13440,note_off,,,,,480,0,2,,,,1,,,37,64
13560,note_off,,,,,120,0,1,,,,0,,,64,64
13800,note_on,,,,,360,0,2,,,,1,,,47,97
13920,note_on,,,,,0,0,1,,,,0,,,64,93
13920,note_on,,,,,360,0,1,,,,0,,,59,93
13920,note_off,,,,,120,0,2,,,,1,,,47,64
13920,note_on,,,,,0,0,1,,,,0,,,56,93
13920,note_on,,,,,0,0,2,,,,1,,,52,83
14160,note_off,,,,,240,0,1,,,,0,,,59,64
14160,note_off,,,,,0,0,1,,,,0,,,56,64
14400,note_off,,,,,480,0,2,,,,1,,,35,64
14400,note_on,,,,,0,0,2,,,,1,,,35,97
14400,note_off,,,,,0,0,2,,,,1,,,52,64
14519,note_off,,,,,359,0,1,,,,0,,,64,64
14520,note_on,,,,,1,0,1,,,,0,,,63,107
14640,note_on,,,,,0,0,1,,,,0,,,64,97
14640,note_off,,,,,120,0,1,,,,0,,,63,64
14760,note_on,,,,,360,0,2,,,,1,,,47,103
14760,note_off,,,,,120,0,1,,,,0,,,64,64
14760,note_on,,,,,0,0,1,,,,0,,,66,97
14880,note_on,,,,,0,0,1,,,,0,,,57,77
14880,note_on,,,,,0,0,1,,,,0,,,59,97
14880,note_off,,,,,120,0,2,,,,1,,,47,64
14880,note_on,,,,,0,0,2,,,,1,,,51,91
14880,note_off,,,,,120,0,1,,,,0,,,66,64
14880,note_on,,,,,0,0,1,,,,0,,,68,91
15000,note_off,,,,,120,0,1,,,,0,,,68,64
15000,note_on,,,,,0,0,1,,,,0,,,63,97
15120,note_on,,,,,0,0,1,,,,0,,,59,97
15120,note_on,,,,,0,0,1,,,,0,,,68,103
15120,note_off,,,,,0,0,1,,,,0,,,63,64
15120,note_off,,,,,120,0,1,,,,0,,,57,64
15240,note_on,,,,,0,0,1,,,,0,,,66,97
15240,note_off,,,,,120,0,1,,,,0,,,68,64
15360,note_on,,,,,0,0,1,,,,0,,,64,107
15360,note_off,,,,,120,0,1,,,,0,,,66,64
15360,note_off,,,,,480,0,2,,,,1,,,35,64
15360,note_on,,,,,0,0,2,,,,1,,,40,97
15360,note_off,,,,,0,0,2,,,,1,,,51,64
15720,note_on,,,,,360,0,2,,,,1,,,47,93
15840,note_off,,,,,120,0,2,,,,1,,,47,64
15840,note_off,,,,,480,0,1,,,,0,,,64,64
15840,note_on,,,,,0,0,1,,,,0,,,64,97
15840,note_on,,,,,0,0,2,,,,1,,,52,91
15870,note_on,,,,,0,0,1,,,,0,,,66,83
15870,note_off,,,,,30,0,1,,,,0,,,64,64
15900,note_on,,,,,0,0,1,,,,0,,,56,93
15900,note_on,,,,,0,0,1,,,,0,,,59,93
15900,note_on,,,,,0,0,1,,,,0,,,64,91
15900,note_off,,,,,30,0,1,,,,0,,,66,64
16079,note_off,,,,,179,0,1,,,,0,,,59,64
16080,note_off,,,,,1,0,1,,,,0,,,56,64
16200,note_on,,,,,0,0,1,,,,0,,,63,97
16200,note_off,,,,,120,0,1,,,,0,,,64,64
16320,note_on,,,,,0,0,1,,,,0,,,64,97
16320,note_off,,,,,480,0,2,,,,1,,,40,64
16320,note_on,,,,,0,0,2,,,,1,,,40,93
16320,note_off,,,,,120,0,1,,,,0,,,63,64
16320,note_off,,,,,0,0,2,,,,1,,,52,64
16510,set_tempo,,,,,8750,1,0,769230,,,,,,,
16600,set_tempo,,,,,90,1,0,779220,,,,,,,
16680,set_tempo,,,,,80,1,0,789473,,,,,,,
16680,note_on,,,,,0,0,2,,,,1,,,47,83
16680,note_off,,,,,360,0,2,,,,1,,,40,64
16770,set_tempo,,,,,90,1,0,800000,,,,,,,
16800,note_off,,,,,120,0,2,,,,1,,,47,64
16800,note_off,,,,,480,0,1,,,,0,,,64,64
16800,note_on,,,,,0,0,1,,,,0,,,68,87
16800,note_on,,,,,0,0,1,,,,0,,,56,93
16800,note_on,,,,,0,0,2,,,,1,,,48,118
16800,note_on,,,,,0,0,1,,,,0,,,54,93
16800,note_on,,,,,0,0,2,,,,1,,,32,118
16800,note_on,,,,,0,0,1,,,,0,,,64,97
16800,note_on,,,,,0,0,1,,,,0,,,60,93
17010,set_tempo,,,,,240,1,0,789473,,,,,,,
17080,set_tempo,,,,,70,1,0,779220,,,,,,,
17160,note_off,,,,,360,0,1,,,,0,,,64,64
17160,set_tempo,,,,,80,1,0,769230,,,,,,,
17160,note_on,,,,,0,0,1,,,,0,,,63,103
17250,set_tempo,,,,,90,1,0,750000,,,,,,,
17280,note_on,,,,,0,0,1,,,,0,,,56,97
17280,note_off,,,,,480,0,2,,,,1,,,32,64
17280,note_off,,,,,0,0,1,,,,0,,,63,64
17280,note_off,,,,,0,0,1,,,,0,,,68,64
17280,note_off,,,,,0,0,1,,,,0,,,56,64
17280,note_off,,,,,0,0,2,,,,1,,,48,64
17280,note_off,,,,,120,0,1,,,,0,,,54,64
17280,note_off,,,,,0,0,1,,,,0,,,60,64
17280,note_on,,,,,0,0,2,,,,1,,,37,103
17310,note_on,,,,,0,0,1,,,,0,,,61,93
17310,note_off,,,,,30,0,1,,,,0,,,56,64
17340,note_on,,,,,0,0,1,,,,0,,,64,93
17340,note_off,,,,,30,0,1,,,,0,,,61,64
17370,note_off,,,,,30,0,1,,,,0,,,64,64
17370,note_on,,,,,0,0,1,,,,0,,,68,97
17400,note_off,,,,,30,0,1,,,,0,,,68,64
17430,note_on,,,,,30,0,1,,,,0,,,73,91
17459,note_off,,,,,29,0,1,,,,0,,,59,64
17519,note_off,,,,,60,0,1,,,,0,,,59,64
17550,note_off,,,,,31,0,1,,,,0,,,73,64
17640,note_on,,,,,360,0,2,,,,1,,,44,91
17760,note_off,,,,,120,0,2,,,,1,,,44,64
17760,note_on,,,,,0,0,1,,,,0,,,64,93
17760,note_on,,,,,0,0,2,,,,1,,,49,93
17760,note_on,,,,,210,0,1,,,,0,,,68,83
17760,note_on,,,,,0,0,2,,,,1,,,52,97
17790,note_on,,,,,0,0,1,,,,0,,,61,93
17790,note_on,,,,,30,0,1,,,,0,,,73,83
18000,note_off,,,,,210,0,1,,,,0,,,68,64
18000,note_off,,,,,0,0,1,,,,0,,,64,64
18240,note_off,,,,,480,0,2,,,,1,,,37,64
18240,note_on,,,,,0,0,1,,,,0,,,66,93
18240,note_on,,,,,0,0,2,,,,1,,,30,121
18240,note_off,,,,,0,0,2,,,,1,,,52,64
18240,note_off,,,,,0,0,2,,,,1,,,49,64
18240,note_on,,,,,240,0,1,,,,0,,,69,107
18359,note_off,,,,,0,0,1,,,,0,,,61,64
18359,note_off,,,,,119,0,1,,,,0,,,73,64
18360,note_on,,,,,1,0,1,,,,0,,,60,97
18360,note_on,,,,,0,0,1,,,,0,,,72,103
18480,note_on,,,,,0,0,1,,,,0,,,61,87
18480,note_on,,,,,0,0,1,,,,0,,,73,97
18480,note_off,,,,,0,0,1,,,,0,,,72,64
18480,note_off,,,,,120,0,1,,,,0,,,69,64
18480,note_off,,,,,0,0,1,,,,0,,,66,64
18480,note_off,,,,,0,0,1,,,,0,,,60,64
18600,note_off,,,,,120,0,1,,,,0,,,61,64
18600,note_off,,,,,0,0,1,,,,0,,,73,64
18600,note_on,,,,,360,0,2,,,,1,,,49,97
18600,note_on,,,,,0,0,1,,,,0,,,63,91
18600,note_on,,,,,0,0,1,,,,0,,,75,93
18720,note_off,,,,,120,0,1,,,,0,,,63,64
18720,note_off,,,,,120,0,2,,,,1,,,49,64
18720,note_on,,,,,0,0,1,,,,0,,,76,107
18720,note_on,,,,,0,0,1,,,,0,,,64,93
18720,note_on,,,,,0,0,2,,,,1,,,57,103
18720,note_on,,,,,0,0,2,,,,1,,,54,79
18720,note_off,,,,,0,0,1,,,,0,,,75,64
18840,note_off,,,,,120,0,1,,,,0,,,76,64
18840,note_on,,,,,0,0,1,,,,0,,,69,107
18840,note_off,,,,,0,0,1,,,,0,,,64,64
18960,note_on,,,,,0,0,1,,,,0,,,76,107
18960,note_on,,,,,0,0,1,,,,0,,,64,103
18960,note_off,,,,,120,0,1,,,,0,,,69,64
19080,note_off,,,,,120,0,1,,,,0,,,76,64
19080,note_off,,,,,0,0,1,,,,0,,,64,64
19080,note_on,,,,,0,0,1,,,,0,,,63,107
19080,note_on,,,,,0,0,1,,,,0,,,75,93
19200,note_off,,,,,120,0,1,,,,0,,,75,64
19200,note_on,,,,,0,0,2,,,,1,,,25,122
19200,note_on,,,,,0,0,1,,,,0,,,61,97
19200,note_on,,,,,0,0,1,,,,0,,,73,91
19200,note_off,,,,,0,0,1,,,,0,,,63,64
19200,note_off,,,,,0,0,2,,,,1,,,57,64
19200,note_off,,,,,0,0,2,,,,1,,,54,64
19200,note_off,,,,,480,0,2,,,,1,,,30,64
19320,note_off,,,,,120,0,1,,,,0,,,73,64
19320,note_off,,,,,0,0,1,,,,0,,,61,64
19560,note_on,,,,,360,0,2,,,,1,,,44,93
19680,note_off,,,,,120,0,2,,,,1,,,44,64
19680,note_on,,,,,0,0,2,,,,1,,,49,107
19680,note_on,,,,,360,0,1,,,,0,,,73,103
19680,note_on,,,,,0,0,2,,,,1,,,52,93
19710,note_on,,,,,0,0,1,,,,0,,,75,107
19710,note_off,,,,,30,0,1,,,,0,,,73,64
19740,note_on,,,,,0,0,1,,,,0,,,61,107
19740,note_on,,,,,0,0,1,,,,0,,,68,93
19740,note_on,,,,,0,0,1,,,,0,,,73,97
19740,note_off,,,,,30,0,1,,,,0,,,75,64
19920,note_off,,,,,180,0,1,,,,0,,,68,64
20040,note_on,,,,,0,0,1,,,,0,,,60,91
20040,note_on,,,,,0,0,1,,,,0,,,72,103
20040,note_off,,,,,120,0,1,,,,0,,,61,64
20040,note_off,,,,,0,0,1,,,,0,,,73,64
20160,note_off,,,,,480,0,2,,,,1,,,25,64
20160,note_off,,,,,0,0,2,,,,1,,,49,64
20160,note_off,,,,,0,0,2,,,,1,,,52,64
20160,note_off,,,,,120,0,1,,,,0,,,60,64
20160,note_off,,,,,0,0,1,,,,0,,,72,64
20160,note_on,,,,,0,0,2,,,,1,,,37,97
20160,note_on,,,,,0,0,1,,,,0,,,61,107
20160,note_on,,,,,0,0,1,,,,0,,,73,93
20520,note_on,,,,,360,0,2,,,,1,,,44,93
20640,note_on,,,,,0,0,2,,,,1,,,64,91
20640,note_off,,,,,120,0,2,,,,1,,,37,64
20640,note_on,,,,,0,0,2,,,,1,,,68,93
20640,note_off,,,,,0,0,2,,,,1,,,44,64
20640,note_on,,,,,0,0,2,,,,1,,,49,103
20640,note_on,,,,,0,0,2,,,,1,,,56,79
20999,note_off,,,,,839,0,1,,,,0,,,73,64
20999,note_off,,,,,0,0,1,,,,0,,,61,64
21000,note_off,,,,,0,0,2,,,,1,,,56,64
21000,note_on,,,,,0,0,1,,,,0,,,68,91
21000,note_on,,,,,1,0,1,,,,0,,,64,77
21000,note_on,,,,,0,0,2,,,,1,,,50,93
21000,note_off,,,,,0,0,2,,,,1,,,49,64
21000,note_on,,,,,0,0,1,,,,0,,,76,93
21000,note_off,,,,,0,0,2,,,,1,,,64,64
21000,note_off,,,,,360,0,2,,,,1,,,68,64
21000,note_on,,,,,0,0,1,,,,0,,,71,93
21000,note_on,,,,,0,0,2,,,,1,,,38,91
21120,note_off,,,,,0,0,1,,,,0,,,76,64
21120,note_off,,,,,120,0,2,,,,1,,,50,64
21120,note_off,,,,,0,0,1,,,,0,,,71,64
21120,note_on,,,,,0,0,2,,,,1,,,51,87
21120,note_on,,,,,0,0,2,,,,1,,,39,103
21120,note_on,,,,,0,0,1,,,,0,,,80,97
21120,note_off,,,,,0,0,1,,,,0,,,68,64
21120,note_on,,,,,0,0,1,,,,0,,,68,97
21120,note_off,,,,,120,0,1,,,,0,,,64,64
21120,note_off,,,,,0,0,2,,,,1,,,38,64
21120,note_on,,,,,0,0,1,,,,0,,,71,115
21240,note_off,,,,,0,0,1,,,,0,,,68,64
21240,note_off,,,,,0,0,1,,,,0,,,71,64
21240,note_off,,,,,120,0,1,,,,0,,,80,64
21480,note_on,,,,,0,0,2,,,,1,,,51,97
21480,note_on,,,,,0,0,2,,,,1,,,56,91
21480,note_off,,,,,360,0,2,,,,1,,,39,64
21480,note_off,,,,,0,0,2,,,,1,,,51,64
21600,note_on,,,,,0,0,2,,,,1,,,59,97
21600,note_on,,,,,0,0,2,,,,1,,,63,77
21600,note_off,,,,,120,0,2,,,,1,,,51,64
21600,note_on,,,,,360,0,1,,,,0,,,68,107
21600,note_off,,,,,0,0,2,,,,1,,,56,64
22080,note_off,,,,,0,0,2,,,,1,,,59,64
22080,note_on,,,,,0,0,2,,,,1,,,51,97
22080,note_on,,,,,0,0,2,,,,1,,,39,97
22080,note_off,,,,,480,0,2,,,,1,,,63,64
22080,note_off,,,,,480,0,1,,,,0,,,68,64
22080,note_on,,,,,0,0,1,,,,0,,,68,103
22110,note_off,,,,,30,0,1,,,,0,,,68,64
22110,note_on,,,,,0,0,1,,,,0,,,67,97
22140,note_on,,,,,0,0,1,,,,0,,,68,107
22140,note_off,,,,,30,0,1,,,,0,,,67,64
22170,note_on,,,,,0,0,1,,,,0,,,67,103
22170,note_off,,,,,30,0,1,,,,0,,,68,64
22200,note_off,,,,,30,0,1,,,,0,,,67,64
22200,note_on,,,,,0,0,1,,,,0,,,64,115
22320,note_off,,,,,120,0,1,,,,0,,,64,64
22320,note_on,,,,,0,0,1,,,,0,,,67,103
22330,set_tempo,,,,,5080,1,0,731707,,,,,,,
22440,note_off,,,,,120,0,1,,,,0,,,67,64
22440,note_off,,,,,0,0,2,,,,1,,,51,64
22440,note_on,,,,,0,0,2,,,,1,,,51,93
22440,note_on,,,,,0,0,1,,,,0,,,68,118
22440,note_on,,,,,0,0,2,,,,1,,,58,87
22440,note_off,,,,,360,0,2,,,,1,,,39,64
22510,set_tempo,,,,,180,1,0,722891,,,,,,,
22560,note_off,,,,,120,0,1,,,,0,,,68,64
22560,note_on,,,,,0,0,2,,,,1,,,61,93
22560,note_on,,,,,0,0,2,,,,1,,,63,93
22560,note_off,,,,,120,0,2,,,,1,,,51,64
22560,note_off,,,,,0,0,2,,,,1,,,58,64
22560,note_on,,,,,0,0,1,,,,0,,,70,107
22600,set_tempo,,,,,90,1,0,705882,,,,,,,
22680,note_off,,,,,120,0,1,,,,0,,,70,64
22680,note_on,,,,,0,0,1,,,,0,,,71,118
22690,set_tempo,,,,,90,1,0,697674,,,,,,,
22790,set_tempo,,,,,100,1,0,689655,,,,,,,
22800,note_off,,,,,0,0,2,,,,1,,,61,64
22800,note_off,,,,,120,0,1,,,,0,,,71,64
22800,note_on,,,,,0,0,1,,,,0,,,73,118
22800,note_off,,,,,240,0,2,,,,1,,,63,64
22900,set_tempo,,,,,110,1,0,681818,,,,,,,
22920,note_off,,,,,120,0,1,,,,0,,,73,64
22920,note_on,,,,,0,0,1,,,,0,,,75,115
22990,set_tempo,,,,,90,1,0,674157,,,,,,,
23040,note_off,,,,,120,0,1,,,,0,,,75,64
23040,note_on,,,,,0,0,1,,,,0,,,76,107
23160,note_on,,,,,0,0,1,,,,0,,,79,118
23160,note_off,,,,,120,0,1,,,,0,,,76,64
23190,set_tempo,,,,,200,1,0,666666,,,,,,,
23280,note_on,,,,,0,0,1,,,,0,,,80,121
23280,note_off,,,,,120,0,1,,,,0,,,79,64
23300,set_tempo,,,,,110,1,0,659340,,,,,,,
23400,note_on,,,,,0,0,1,,,,0,,,82,115
23400,set_tempo,,,,,100,1,0,645161,,,,,,,
23400,note_off,,,,,120,0,1,,,,0,,,80,64
23520,note_off,,,,,120,0,1,,,,0,,,82,64
23520,note_on,,,,,0,0,1,,,,0,,,83,107
23610,set_tempo,,,,,210,1,0,638297,,,,,,,
23640,note_off,,,,,120,0,1,,,,0,,,83,64
23640,note_on,,,,,0,0,1,,,,0,,,85,122
23720,set_tempo,,,,,110,1,0,625000,,,,,,,
23760,note_on,,,,,0,0,1,,,,0,,,87,122
23760,note_off,,,,,120,0,1,,,,0,,,85,64
23880,note_on,,,,,0,0,1,,,,0,,,88,115
23880,note_off,,,,,120,0,1,,,,0,,,87,64
23940,set_tempo,,,,,220,1,0,618556,,,,,,,
24000,note_off,,,,,120,0,1,,,,0,,,88,64
24000,note_on,,,,,0,0,1,,,,0,,,87,121
24050,set_tempo,,,,,110,1,0,612244,,,,,,,
24120,note_off,,,,,120,0,1,,,,0,,,87,64
24120,note_on,,,,,0,0,1,,,,0,,,85,118
24160,set_tempo,,,,,110,1,0,600000,,,,,,,
24240,note_off,,,,,120,0,1,,,,0,,,85,64
24240,note_on,,,,,0,0,1,,,,0,,,83,121
24280,set_tempo,,,,,120,1,0,594059,,,,,,,
24360,note_off,,,,,120,0,1,,,,0,,,83,64
24360,note_on,,,,,0,0,1,,,,0,,,82,125
24400,set_tempo,,,,,120,1,0,588235,,,,,,,
24480,note_off,,,,,120,0,1,,,,0,,,82,64
24480,note_on,,,,,0,0,1,,,,0,,,80,118
24600,note_off,,,,,120,0,1,,,,0,,,80,64
24600,note_on,,,,,0,0,1,,,,0,,,79,118
24720,note_on,,,,,0,0,1,,,,0,,,83,121
24720,note_off,,,,,120,0,1,,,,0,,,79,64
24840,note_off,,,,,120,0,1,,,,0,,,83,64
24840,note_on,,,,,0,0,1,,,,0,,,82,122
24910,set_tempo,,,,,510,1,0,594059,,,,,,,
24960,note_off,,,,,120,0,1,,,,0,,,82,64
24960,note_on,,,,,0,0,1,,,,0,,,80,121
25030,set_tempo,,,,,120,1,0,600000,,,,,,,
25080,note_on,,,,,0,0,1,,,,0,,,79,122
25080,note_off,,,,,120,0,1,,,,0,,,80,64
25140,set_tempo,,,,,110,1,0,612244,,,,,,,
25200,note_off,,,,,120,0,1,,,,0,,,79,64
25200,note_on,,,,,0,0,1,,,,0,,,76,121
25260,set_tempo,,,,,120,1,0,618556,,,,,,,
25320,note_off,,,,,120,0,1,,,,0,,,76,64
25320,note_on,,,,,0,0,1,,,,0,,,75,118
25360,set_tempo,,,,,100,1,0,625000,,,,,,,
25440,note_on,,,,,0,0,1,,,,0,,,73,118
25440,note_off,,,,,120,0,1,,,,0,,,75,64
25560,note_on,,,,,0,0,1,,,,0,,,76,121
25560,note_off,,,,,120,0,1,,,,0,,,73,64
25590,set_tempo,,,,,230,1,0,638297,,,,,,,
25680,note_on,,,,,0,0,1,,,,0,,,75,118
25680,note_off,,,,,120,0,1,,,,0,,,76,64
25700,set_tempo,,,,,110,1,0,645161,,,,,,,
25800,note_on,,,,,0,0,1,,,,0,,,73,115
25800,note_off,,,,,120,0,1,,,,0,,,75,64
25920,note_on,,,,,0,0,1,,,,0,,,71,115
25920,note_off,,,,,120,0,1,,,,0,,,73,64
25940,set_tempo,,,,,240,1,0,659340,,,,,,,
26040,note_off,,,,,120,0,1,,,,0,,,71,64
26040,note_on,,,,,0,0,1,,,,0,,,70,118
26060,set_tempo,,,,,120,1,0,666666,,,,,,,
26160,note_on,,,,,0,0,1,,,,0,,,68,118
26160,note_off,,,,,120,0,1,,,,0,,,70,64
26180,set_tempo,,,,,120,1,0,674157,,,,,,,
26280,note_on,,,,,0,0,1,,,,0,,,67,121
26280,note_off,,,,,120,0,1,,,,0,,,68,64
26450,set_tempo,,,,,270,1,0,681818,,,,,,,
26519,note_off,,,,,239,0,1,,,,0,,,67,64
26520,note_on,,,,,1,0,1,,,,0,,,68,121
26590,set_tempo,,,,,140,1,0,689655,,,,,,,
26730,set_tempo,,,,,140,1,0,697674,,,,,,,
26760,note_off,,,,,240,0,1,,,,0,,,68,64
26760,note_on,,,,,0,0,1,,,,0,,,67,115
26870,set_tempo,,,,,140,1,0,705882,,,,,,,
26999,note_off,,,,,239,0,1,,,,0,,,67,64
27000,note_on,,,,,1,0,1,,,,0,,,64,115
27050,set_tempo,,,,,180,1,0,722891,,,,,,,
27230,set_tempo,,,,,180,1,0,731707,,,,,,,
27240,note_on,,,,,0,0,1,,,,0,,,67,93
27240,note_off,,,,,240,0,1,,,,0,,,64,64
27479,note_off,,,,,239,0,1,,,,0,,,67,64
27480,note_on,,,,,1,0,1,,,,0,,,71,118
27720,note_off,,,,,240,0,1,,,,0,,,71,64
27720,note_on,,,,,0,0,1,,,,0,,,71,121
27750,set_tempo,,,,,520,1,0,750000,,,,,,,
27840,note_off,,,,,120,0,1,,,,0,,,71,64
27840,note_on,,,,,0,0,1,,,,0,,,71,118
27960,note_on,,,,,0,0,1,,,,0,,,71,115
27960,note_off,,,,,120,0,1,,,,0,,,71,64
28080,note_off,,,,,120,0,1,,,,0,,,71,64
28080,note_on,,,,,0,0,1,,,,0,,,71,121
28679,note_off,,,,,599,0,1,,,,0,,,71,64
28680,note_on,,,,,1,0,1,,,,0,,,70,121
28790,note_off,,,,,110,0,1,,,,0,,,70,64
28800,note_on,,,,,6000,0,2,,,,1,,,32,93
28800,note_on,,,,,0,0,2,,,,1,,,44,79
28800,note_on,,,,,10,0,1,,,,0,,,68,97
29160,note_off,,,,,0,0,2,,,,1,,,44,64
29160,note_on,,,,,0,0,2,,,,1,,,51,91
29160,note_on,,,,,0,0,2,,,,1,,,44,103
29160,note_off,,,,,360,0,2,,,,1,,,32,64
29280,note_off,,,,,480,0,1,,,,0,,,68,64
29280,note_on,,,,,0,0,2,,,,1,,,51,97
29280,note_on,,,,,0,0,2,,,,1,,,56,87
29280,note_off,,,,,120,0,2,,,,1,,,44,64
29280,note_on,,,,,0,0,1,,,,0,,,68,79
29280,note_off,,,,,0,0,2,,,,1,,,51,64
29310,note_on,,,,,0,0,1,,,,0,,,70,79
29310,note_off,,,,,30,0,1,,,,0,,,68,64
29340,note_on,,,,,0,0,1,,,,0,,,63,79
29340,note_on,,,,,0,0,1,,,,0,,,68,75
29340,note_off,,,,,30,0,1,,,,0,,,70,64
29340,note_on,,,,,0,0,1,,,,0,,,59,91
29520,note_off,,,,,180,0,1,,,,0,,,63,64
29520,note_off,,,,,0,0,1,,,,0,,,59,64
29640,note_off,,,,,120,0,1,,,,0,,,68,64
29640,note_on,,,,,0,0,1,,,,0,,,67,93
29760,note_off,,,,,480,0,2,,,,1,,,56,64
29760,note_on,,,,,0,0,2,,,,1,,,32,91
29760,note_off,,,,,120,0,1,,,,0,,,67,64
29760,note_on,,,,,0,0,2,,,,1,,,44,87
29760,note_off,,,,,0,0,2,,,,1,,,51,64
29760,note_on,,,,,0,0,1,,,,0,,,68,83
30120,note_on,,,,,0,0,2,,,,1,,,44,93
30120,note_off,,,,,360,0,2,,,,1,,,32,64
30120,note_off,,,,,0,0,2,,,,1,,,44,64
30120,note_on,,,,,0,0,2,,,,1,,,51,79
30240,note_on,,,,,0,0,2,,,,1,,,51,87
30240,note_on,,,,,0,0,2,,,,1,,,56,83
30240,note_on,,,,,0,0,1,,,,0,,,59,61
30240,note_off,,,,,480,0,1,,,,0,,,68,64
30240,note_off,,,,,120,0,2,,,,1,,,44,64
30240,note_on,,,,,0,0,1,,,,0,,,63,75
30240,note_off,,,,,0,0,2,,,,1,,,51,64
30480,note_off,,,,,240,0,1,,,,0,,,63,64
30480,note_off,,,,,0,0,1,,,,0,,,59,64
30510,set_tempo,,,,,2760,1,0,769230,,,,,,,
30580,set_tempo,,,,,70,1,0,779220,,,,,,,
30600,note_on,,,,,120,0,1,,,,0,,,68,69
30660,note_off,,,,,60,0,1,,,,0,,,68,64
30660,set_tempo,,,,,80,1,0,789473,,,,,,,
30660,note_on,,,,,0,0,1,,,,0,,,68,63
30720,note_on,,,,,0,0,1,,,,0,,,80,75
30720,note_off,,,,,0,0,2,,,,1,,,51,64
30720,note_on,,,,,0,0,1,,,,0,,,76,73
30720,note_on,,,,,0,0,2,,,,1,,,40,63
30720,note_off,,,,,480,0,2,,,,1,,,56,64
30720,note_off,,,,,60,0,1,,,,0,,,68,64
30720,note_on,,,,,0,0,2,,,,1,,,52,57
30750,set_tempo,,,,,90,1,0,779220,,,,,,,
30840,note_off,,,,,120,0,1,,,,0,,,80,64
30840,note_off,,,,,0,0,1,,,,0,,,76,64
30860,set_tempo,,,,,110,1,0,769230,,,,,,,
30950,set_tempo,,,,,90,1,0,750000,,,,,,,
30960,note_off,,,,,240,0,2,,,,1,,,52,64
30960,note_off,,,,,0,0,2,,,,1,,,40,64
31080,note_on,,,,,0,0,2,,,,1,,,59,69
31080,note_on,,,,,0,0,2,,,,1,,,56,59
31080,note_on,,,,,120,0,2,,,,1,,,64,79
31200,note_on,,,,,0,0,2,,,,1,,,68,73
31200,note_on,,,,,360,0,1,,,,0,,,71,61
31200,note_off,,,,,120,0,2,,,,1,,,64,64
31200,note_on,,,,,0,0,2,,,,1,,,59,69
31200,note_off,,,,,0,0,2,,,,1,,,56,64
31200,note_off,,,,,0,0,2,,,,1,,,59,64
31200,note_on,,,,,0,0,2,,,,1,,,64,87
31230,note_on,,,,,30,0,1,,,,0,,,76,69
31260,note_on,,,,,30,0,1,,,,0,,,80,77
31440,note_off,,,,,180,0,1,,,,0,,,71,64
31680,note_on,,,,,0,0,2,,,,1,,,52,63
31680,note_off,,,,,0,0,2,,,,1,,,64,64
31680,note_on,,,,,0,0,2,,,,1,,,40,49
31680,note_off,,,,,480,0,2,,,,1,,,68,64
31680,note_off,,,,,0,0,2,,,,1,,,59,64
31800,note_on,,,,,0,0,1,,,,0,,,78,57
31800,note_on,,,,,360,0,1,,,,0,,,75,59
31829,note_off,,,,,29,0,1,,,,0,,,76,64
31859,note_off,,,,,30,0,1,,,,0,,,80,64
31920,note_off,,,,,0,0,2,,,,1,,,40,64
31920,note_off,,,,,0,0,1,,,,0,,,78,64
31920,note_off,,,,,61,0,1,,,,0,,,75,64
31920,note_off,,,,,240,0,2,,,,1,,,52,64
31920,note_on,,,,,0,0,1,,,,0,,,80,69
31920,note_on,,,,,0,0,1,,,,0,,,76,69
32040,note_on,,,,,0,0,2,,,,1,,,56,14
32040,note_on,,,,,0,0,2,,,,1,,,59,71
32040,note_on,,,,,0,0,1,,,,0,,,81,71
32040,note_on,,,,,120,0,2,,,,1,,,64,73
32040,note_on,,,,,0,0,1,,,,0,,,78,61
32040,note_off,,,,,120,0,1,,,,0,,,76,64
32040,note_off,,,,,0,0,1,,,,0,,,80,64
32160,note_on,,,,,0,0,2,,,,1,,,59,73
32160,note_on,,,,,0,0,2,,,,1,,,64,79
32160,note_off,,,,,120,0,2,,,,1,,,64,64
32160,note_off,,,,,0,0,2,,,,1,,,59,64
32160,note_on,,,,,0,0,2,,,,1,,,68,71
32160,note_off,,,,,120,0,1,,,,0,,,78,64
32160,note_on,,,,,0,0,1,,,,0,,,80,73
32160,note_on,,,,,0,0,1,,,,0,,,83,71
32160,note_off,,,,,0,0,2,,,,1,,,56,64
32160,note_off,,,,,0,0,1,,,,0,,,81,64
32280,note_on,,,,,0,0,1,,,,0,,,71,59
32280,note_on,,,,,0,0,1,,,,0,,,76,67
32280,note_off,,,,,120,0,1,,,,0,,,80,64
32280,note_off,,,,,0,0,1,,,,0,,,83,64
32400,note_off,,,,,120,0,1,,,,0,,,71,64
32400,note_on,,,,,0,0,1,,,,0,,,78,65
32400,note_on,,,,,0,0,1,,,,0,,,81,63
32400,note_off,,,,,0,0,1,,,,0,,,76,64
32520,note_off,,,,,120,0,1,,,,0,,,78,64
32520,note_on,,,,,0,0,1,,,,0,,,76,63
32520,note_on,,,,,0,0,1,,,,0,,,80,73
32520,note_off,,,,,0,0,1,,,,0,,,81,64
32640,note_off,,,,,120,0,1,,,,0,,,76,64
32640,note_off,,,,,0,0,1,,,,0,,,80,64
32640,note_off,,,,,0,0,2,,,,1,,,59,64
32640,note_off,,,,,480,0,2,,,,1,,,68,64
32640,note_off,,,,,0,0,2,,,,1,,,64,64
32640,note_on,,,,,0,0,1,,,,0,,,75,59
32640,note_on,,,,,0,0,1,,,,0,,,78,53
32640,note_on,,,,,0,0,2,,,,1,,,35,77
32640,note_on,,,,,0,0,2,,,,1,,,47,57
32880,note_off,,,,,240,0,2,,,,1,,,35,64
32880,note_off,,,,,0,0,2,,,,1,,,47,64
32880,note_off,,,,,240,0,1,,,,0,,,78,64
32880,note_off,,,,,0,0,1,,,,0,,,75,64
33000,note_on,,,,,120,0,2,,,,1,,,63,73
33000,note_on,,,,,0,0,2,,,,1,,,54,45
33000,note_on,,,,,0,0,2,,,,1,,,59,77
33120,note_on,,,,,0,0,2,,,,1,,,66,59
33120,note_on,,,,,0,0,2,,,,1,,,63,77
33120,note_off,,,,,0,0,2,,,,1,,,59,64
33120,note_on,,,,,240,0,1,,,,0,,,78,69
33120,note_off,,,,,0,0,2,,,,1,,,54,64
33120,note_off,,,,,120,0,2,,,,1,,,63,64
33120,note_on,,,,,0,0,2,,,,1,,,59,59
33150,note_off,,,,,30,0,1,,,,0,,,78,64
33150,note_on,,,,,0,0,1,,,,0,,,78,69
33180,note_off,,,,,30,0,1,,,,0,,,78,64
33180,note_on,,,,,0,0,1,,,,0,,,80,71
33210,note_on,,,,,0,0,1,,,,0,,,78,67
33210,note_off,,,,,30,0,1,,,,0,,,80,64
33210,note_on,,,,,0,0,1,,,,0,,,75,61
33360,note_off,,,,,150,0,1,,,,0,,,75,64
33360,note_off,,,,,0,0,1,,,,0,,,78,64
33540,note_on,,,,,0,0,1,,,,0,,,74,43
33540,note_on,,,,,180,0,1,,,,0,,,77,65
33600,note_on,,,,,0,0,1,,,,0,,,78,65
33600,note_off,,,,,0,0,1,,,,0,,,74,64
33600,note_on,,,,,0,0,2,,,,1,,,47,79
33600,note_on,,,,,0,0,1,,,,0,,,75,65
33600,note_off,,,,,0,0,2,,,,1,,,59,64
33600,note_off,,,,,0,0,2,,,,1,,,63,64
33600,note_off,,,,,480,0,2,,,,1,,,66,64
33600,note_off,,,,,60,0,1,,,,0,,,77,64
33720,note_off,,,,,0,0,1,,,,0,,,75,64
33720,note_off,,,,,120,0,1,,,,0,,,78,64
33840,note_off,,,,,240,0,2,,,,1,,,47,64
33960,note_on,,,,,0,0,2,,,,1,,,59,69
33960,note_on,,,,,0,0,2,,,,1,,,54,43
33960,note_on,,,,,120,0,2,,,,1,,,63,69
34080,note_off,,,,,0,0,2,,,,1,,,54,64
34080,note_on,,,,,0,0,2,,,,1,,,48,69
34080,note_off,,,,,0,0,2,,,,1,,,59,64
34080,note_on,,,,,0,0,1,,,,0,,,75,67
34080,note_on,,,,,360,0,1,,,,0,,,80,59
34080,note_on,,,,,0,0,1,,,,0,,,68,45
34080,note_off,,,,,120,0,2,,,,1,,,63,64
34320,note_off,,,,,240,0,2,,,,1,,,48,64
34440,note_on,,,,,0,0,2,,,,1,,,63,69
34440,note_on,,,,,0,0,2,,,,1,,,56,67
34440,note_on,,,,,120,0,2,,,,1,,,68,67
34560,note_off,,,,,120,0,2,,,,1,,,68,64
34560,note_on,,,,,0,0,1,,,,0,,,76,75
34560,note_off,,,,,0,0,1,,,,0,,,75,64
34560,note_on,,,,,0,0,1,,,,0,,,73,55
34560,note_on,,,,,0,0,2,,,,1,,,37,77
34560,note_off,,,,,480,0,1,,,,0,,,80,64
34560,note_off,,,,,0,0,2,,,,1,,,63,64
34560,note_off,,,,,0,0,2,,,,1,,,56,64
34560,note_off,,,,,0,0,1,,,,0,,,68,64
34560,note_on,,,,,0,0,2,,,,1,,,49,51
34680,note_off,,,,,0,0,1,,,,0,,,73,64
34680,note_off,,,,,120,0,1,,,,0,,,76,64
34800,note_off,,,,,240,0,2,,,,1,,,37,64
34800,note_off,,,,,0,0,2,,,,1,,,49,64
34920,note_on,,,,,0,0,2,,,,1,,,52,41
34920,note_on,,,,,0,0,2,,,,1,,,56,83
34920,note_on,,,,,120,0,2,,,,1,,,61,53
35040,note_on,,,,,0,0,2,,,,1,,,56,67
35040,note_off,,,,,0,0,2,,,,1,,,52,64
35040,note_on,,,,,0,0,2,,,,1,,,61,79
35040,note_on,,,,,0,0,2,,,,1,,,64,77
35040,note_on,,,,,360,0,1,,,,0,,,68,63
35040,note_off,,,,,120,0,2,,,,1,,,61,64
35040,note_off,,,,,0,0,2,,,,1,,,56,64
35070,note_on,,,,,30,0,1,,,,0,,,73,71
35100,note_on,,,,,30,0,1,,,,0,,,76,79
35280,note_off,,,,,180,0,1,,,,0,,,68,64
35520,note_off,,,,,480,0,2,,,,1,,,64,64
35520,note_off,,,,,0,0,2,,,,1,,,56,64
35520,note_off,,,,,0,0,2,,,,1,,,61,64
35520,note_on,,,,,0,0,2,,,,1,,,52,55
35520,note_on,,,,,0,0,2,,,,1,,,40,69
35579,note_off,,,,,299,0,1,,,,0,,,76,64
35640,note_on,,,,,0,0,1,,,,0,,,72,37
35640,note_on,,,,,61,0,1,,,,0,,,75,57
35760,note_on,,,,,0,0,1,,,,0,,,76,75
35760,note_off,,,,,120,0,1,,,,0,,,75,64
35760,note_off,,,,,0,0,2,,,,1,,,40,64
35760,note_on,,,,,0,0,1,,,,0,,,73,55
35760,note_off,,,,,240,0,2,,,,1,,,52,64
35760,note_off,,,,,0,0,1,,,,0,,,72,64
35789,note_off,,,,,29,0,1,,,,0,,,73,64
35880,note_off,,,,,91,0,1,,,,0,,,73,64
35880,note_on,,,,,0,0,2,,,,1,,,61,71
35880,note_on,,,,,0,0,2,,,,1,,,56,55
35880,note_on,,,,,120,0,2,,,,1,,,64,71
35880,note_off,,,,,0,0,1,,,,0,,,76,64
35880,note_on,,,,,0,0,1,,,,0,,,78,65
35880,note_on,,,,,0,0,1,,,,0,,,75,65
36000,note_on,,,,,0,0,1,,,,0,,,73,51
36000,note_off,,,,,0,0,2,,,,1,,,61,64
36000,note_off,,,,,0,0,2,,,,1,,,56,64
36000,note_off,,,,,120,0,2,,,,1,,,64,64
36000,note_on,,,,,0,0,2,,,,1,,,64,83
36000,note_on,,,,,0,0,1,,,,0,,,76,73
36000,note_on,,,,,0,0,2,,,,1,,,68,73
36000,note_off,,,,,0,0,1,,,,0,,,78,64
36000,note_on,,,,,0,0,2,,,,1,,,61,25
36000,note_off,,,,,120,0,1,,,,0,,,75,64
36030,note_off,,,,,30,0,1,,,,0,,,73,64
36030,note_on,,,,,0,0,1,,,,0,,,75,49
36030,note_on,,,,,0,0,1,,,,0,,,78,59
36030,note_off,,,,,0,0,1,,,,0,,,76,64
36060,note_on,,,,,0,0,1,,,,0,,,76,55
36060,note_on,,,,,0,0,1,,,,0,,,80,61
36060,note_off,,,,,30,0,1,,,,0,,,75,64
36060,note_off,,,,,0,0,1,,,,0,,,78,64
36120,note_off,,,,,60,0,1,,,,0,,,76,64
36120,note_off,,,,,0,0,1,,,,0,,,80,64
36180,note_on,,,,,0,0,1,,,,0,,,73,59
36180,note_on,,,,,60,0,1,,,,0,,,68,57
36240,note_off,,,,,60,0,1,,,,0,,,68,64
36240,note_on,,,,,0,0,1,,,,0,,,75,49
36240,note_off,,,,,0,0,1,,,,0,,,73,64
36240,note_on,,,,,0,0,1,,,,0,,,78,65
36360,note_on,,,,,0,0,1,,,,0,,,76,79
36360,note_on,,,,,0,0,1,,,,0,,,73,51
36360,note_off,,,,,0,0,1,,,,0,,,78,64
36360,note_off,,,,,120,0,1,,,,0,,,75,64
36480,note_on,,,,,0,0,1,,,,0,,,75,69
36480,note_off,,,,,120,0,1,,,,0,,,73,64
36480,note_on,,,,,0,0,1,,,,0,,,72,57
36480,note_on,,,,,0,0,2,,,,1,,,44,69
36480,note_off,,,,,0,0,2,,,,1,,,61,64
36480,note_off,,,,,0,0,1,,,,0,,,76,64
36480,note_off,,,,,0,0,2,,,,1,,,64,64
36480,note_off,,,,,480,0,2,,,,1,,,68,64
36600,note_off,,,,,120,0,1,,,,0,,,75,64
36600,note_off,,,,,0,0,1,,,,0,,,72,64
36720,note_off,,,,,240,0,2,,,,1,,,44,64
36840,note_on,,,,,0,0,2,,,,1,,,56,77
36840,note_on,,,,,0,0,2,,,,1,,,51,49
36840,note_on,,,,,120,0,2,,,,1,,,60,61
36960,note_off,,,,,0,0,2,,,,1,,,51,64
36960,note_off,,,,,0,0,2,,,,1,,,56,64
36960,note_on,,,,,0,0,2,,,,1,,,56,59
36960,note_off,,,,,120,0,2,,,,1,,,60,64
36960,note_on,,,,,0,0,2,,,,1,,,60,77
36960,note_on,,,,,360,0,1,,,,0,,,75,69
36960,note_on,,,,,0,0,2,,,,1,,,63,57
36990,note_on,,,,,0,0,1,,,,0,,,75,69
36990,note_off,,,,,30,0,1,,,,0,,,75,64
37020,note_off,,,,,30,0,1,,,,0,,,75,64
37020,note_on,,,,,0,0,1,,,,0,,,76,87
37050,note_on,,,,,0,0,1,,,,0,,,75,71
37050,note_on,,,,,0,0,1,,,,0,,,72,63
37050,note_off,,,,,30,0,1,,,,0,,,76,64
37200,note_off,,,,,0,0,1,,,,0,,,75,64
37200,note_off,,,,,150,0,1,,,,0,,,72,64
37250,set_tempo,,,,,6300,1,0,769230,,,,,,,
37350,set_tempo,,,,,100,1,0,779220,,,,,,,
37380,note_on,,,,,0,0,1,,,,0,,,70,51
37380,note_on,,,,,180,0,1,,,,0,,,73,57
37440,note_on,,,,,0,0,1,,,,0,,,75,67
37440,note_off,,,,,0,0,1,,,,0,,,70,64
37440,note_off,,,,,60,0,1,,,,0,,,73,64
37440,note_on,,,,,0,0,1,,,,0,,,72,49
37440,note_off,,,,,0,0,2,,,,1,,,56,64
37440,note_off,,,,,0,0,2,,,,1,,,60,64
37440,note_on,,,,,0,0,2,,,,1,,,44,65
37440,set_tempo,,,,,90,1,0,789473,,,,,,,
37440,note_off,,,,,480,0,2,,,,1,,,63,64
37520,set_tempo,,,,,80,1,0,800000,,,,,,,
37680,note_off,,,,,240,0,2,,,,1,,,44,64
37690,set_tempo,,,,,170,1,0,821917,,,,,,,
37780,set_tempo,,,,,90,1,0,833333,,,,,,,
37800,note_on,,,,,0,0,2,,,,1,,,60,79
37800,note_on,,,,,0,0,2,,,,1,,,56,39
37800,note_on,,,,,120,0,2,,,,1,,,63,49
37920,note_off,,,,,0,0,2,,,,1,,,60,64
37920,note_off,,,,,0,0,1,,,,0,,,75,64
37920,note_on,,,,,0,0,2,,,,1,,,60,49
37920,note_on,,,,,0,0,2,,,,1,,,63,67
37920,note_off,,,,,120,0,2,,,,1,,,63,64
37920,note_on,,,,,0,0,2,,,,1,,,68,53
37920,note_off,,,,,480,0,1,,,,0,,,72,64
37920,note_off,,,,,0,0,2,,,,1,,,56,64
37960,set_tempo,,,,,180,1,0,821917,,,,,,,
38060,set_tempo,,,,,100,1,0,800000,,,,,,,
38240,set_tempo,,,,,180,1,0,789473,,,,,,,
38340,set_tempo,,,,,100,1,0,779220,,,,,,,
38400,note_on,,,,,0,0,2,,,,1,,,32,77
38400,note_off,,,,,0,0,2,,,,1,,,63,64
38400,note_on,,,,,38400,0,3,,,,2,,,75,79
38400,note_off,,,,,480,0,2,,,,1,,,68,64
38400,note_on,,,,,480,0,1,,,,0,,,75,65
38400,note_off,,,,,0,0,2,,,,1,,,60,64
38430,note_on,,,,,0,0,1,,,,0,,,75,69
38430,note_off,,,,,30,0,1,,,,0,,,75,64
38440,set_tempo,,,,,100,1,0,769230,,,,,,,
38460,note_off,,,,,30,0,1,,,,0,,,75,64
38460,note_on,,,,,0,0,1,,,,0,,,80,71
38530,set_tempo,,,,,90,1,0,750000,,,,,,,
38640,note_off,,,,,240,0,2,,,,1,,,32,64
38760,note_on,,,,,0,0,3,,,,2,,,68,83
38760,note_off,,,,,360,0,3,,,,2,,,75,64
38880,note_on,,,,,0,0,3,,,,2,,,72,77
38880,note_off,,,,,120,0,3,,,,2,,,68,64
38880,note_on,,,,,0,0,1,,,,0,,,72,73
38880,note_off,,,,,420,0,1,,,,0,,,80,64
38880,note_on,,,,,240,0,2,,,,1,,,51,69
38910,note_on,,,,,0,0,1,,,,0,,,80,73
38910,note_off,,,,,30,0,1,,,,0,,,72,64
38910,note_off,,,,,30,0,2,,,,1,,,51,64
38910,note_on,,,,,0,0,2,,,,1,,,56,71
38940,note_on,,,,,0,0,2,,,,1,,,63,71
38940,note_off,,,,,30,0,2,,,,1,,,56,64
38970,note_on,,,,,0,0,2,,,,1,,,60,75
38970,note_off,,,,,30,0,2,,,,1,,,63,64
39240,note_off,,,,,360,0,3,,,,2,,,72,64
39240,note_on,,,,,0,0,3,,,,2,,,73,79
39360,note_on,,,,,0,0,3,,,,2,,,75,77
39360,note_off,,,,,390,0,2,,,,1,,,60,64
39360,note_on,,,,,0,0,1,,,,0,,,75,69
39360,note_off,,,,,450,0,1,,,,0,,,80,64
39360,note_on,,,,,0,0,2,,,,1,,,44,51
39360,note_off,,,,,120,0,3,,,,2,,,73,64
39370,set_tempo,,,,,840,1,0,731707,,,,,,,
39390,note_on,,,,,0,0,1,,,,0,,,80,67
39390,note_off,,,,,30,0,1,,,,0,,,75,64
39600,note_off,,,,,240,0,2,,,,1,,,44,64
39720,note_on,,,,,0,0,3,,,,2,,,78,73
39720,note_off,,,,,360,0,3,,,,2,,,75,64
39840,note_off,,,,,120,0,3,,,,2,,,78,64
39840,note_on,,,,,0,0,1,,,,0,,,76,73
39840,note_on,,,,,0,0,3,,,,2,,,76,87
39840,note_off,,,,,450,0,1,,,,0,,,80,64
39840,note_on,,,,,240,0,2,,,,1,,,56,73
39870,note_off,,,,,30,0,2,,,,1,,,56,64
39870,note_on,,,,,0,0,2,,,,1,,,60,53
39870,note_on,,,,,0,0,1,,,,0,,,80,67
39870,note_off,,,,,30,0,1,,,,0,,,76,64
39900,note_on,,,,,0,0,2,,,,1,,,68,75
39900,note_off,,,,,30,0,2,,,,1,,,60,64
39930,note_on,,,,,0,0,2,,,,1,,,63,73
39930,note_off,,,,,30,0,2,,,,1,,,68,64
40200,note_off,,,,,360,0,3,,,,2,,,76,64
40200,note_on,,,,,0,0,3,,,,2,,,75,87
40320,note_on,,,,,0,0,2,,,,1,,,32,75
40320,note_off,,,,,450,0,1,,,,0,,,80,64
40320,note_on,,,,,0,0,1,,,,0,,,73,63
40320,note_off,,,,,120,0,3,,,,2,,,75,64
40320,note_off,,,,,390,0,2,,,,1,,,63,64
40320,note_on,,,,,0,0,3,,,,2,,,73,79
40350,note_on,,,,,0,0,1,,,,0,,,80,67
40350,set_tempo,,,,,980,1,0,722891,,,,,,,
40350,note_off,,,,,30,0,1,,,,0,,,73,64
40560,note_off,,,,,240,0,2,,,,1,,,32,64
40680,note_off,,,,,360,0,3,,,,2,,,73,64
40680,note_on,,,,,0,0,3,,,,2,,,68,73
40800,note_off,,,,,450,0,1,,,,0,,,80,64
40800,note_on,,,,,0,0,1,,,,0,,,73,63
40800,note_on,,,,,240,0,2,,,,1,,,52,45
40800,note_on,,,,,0,0,3,,,,2,,,73,71
40800,note_off,,,,,120,0,3,,,,2,,,68,64
40830,note_off,,,,,30,0,2,,,,1,,,52,64
40830,note_on,,,,,0,0,1,,,,0,,,80,57
40830,note_off,,,,,30,0,1,,,,0,,,73,64
40830,note_on,,,,,0,0,2,,,,1,,,56,49
40860,note_off,,,,,30,0,2,,,,1,,,56,64
40860,note_on,,,,,0,0,2,,,,1,,,64,71
40890,note_off,,,,,30,0,2,,,,1,,,64,64
40890,note_on,,,,,0,0,2,,,,1,,,61,69
41090,set_tempo,,,,,740,1,0,705882,,,,,,,
41160,note_off,,,,,360,0,3,,,,2,,,73,64
41160,note_on,,,,,0,0,3,,,,2,,,75,83
41280,note_on,,,,,0,0,3,,,,2,,,76,87
41280,note_on,,,,,0,0,1,,,,0,,,76,69
41280,note_on,,,,,0,0,2,,,,1,,,44,65
41280,note_off,,,,,120,0,3,,,,2,,,75,64
41280,note_off,,,,,390,0,2,,,,1,,,61,64
41280,note_off,,,,,450,0,1,,,,0,,,80,64
41310,note_off,,,,,30,0,1,,,,0,,,76,64
41310,note_on,,,,,0,0,1,,,,0,,,80,61
41310,set_tempo,,,,,220,1,0,697674,,,,,,,
41520,note_off,,,,,240,0,2,,,,1,,,44,64
41640,note_off,,,,,360,0,3,,,,2,,,76,64
41640,note_on,,,,,0,0,3,,,,2,,,80,79
41760,note_on,,,,,0,0,1,,,,0,,,78,59
41760,note_on,,,,,240,0,2,,,,1,,,56,69
41760,note_off,,,,,120,0,3,,,,2,,,80,64
41760,note_off,,,,,450,0,1,,,,0,,,80,64
41760,note_on,,,,,0,0,3,,,,2,,,78,87
41790,note_off,,,,,30,0,1,,,,0,,,78,64
41790,note_on,,,,,0,0,1,,,,0,,,80,63
41790,note_off,,,,,30,0,2,,,,1,,,56,64
41790,note_on,,,,,0,0,2,,,,1,,,61,63
41820,note_off,,,,,30,0,2,,,,1,,,61,64
41820,note_on,,,,,0,0,2,,,,1,,,68,73
41850,note_on,,,,,0,0,2,,,,1,,,64,79
41850,note_off,,,,,30,0,2,,,,1,,,68,64
42120,note_on,,,,,0,0,3,,,,2,,,76,93
42120,note_off,,,,,360,0,3,,,,2,,,78,64
42240,note_off,,,,,390,0,2,,,,1,,,64,64
42240,note_off,,,,,120,0,3,,,,2,,,76,64
42240,note_on,,,,,0,0,1,,,,0,,,75,59
42240,note_on,,,,,0,0,3,,,,2,,,75,87
42240,note_off,,,,,450,0,1,,,,0,,,80,64
42240,note_on,,,,,0,0,2,,,,1,,,32,77
42250,set_tempo,,,,,940,1,0,689655,,,,,,,
42270,note_off,,,,,30,0,1,,,,0,,,75,64
42270,note_on,,,,,0,0,1,,,,0,,,80,67
42480,note_off,,,,,240,0,2,,,,1,,,32,64
42480,note_off,,,,,210,0,1,,,,0,,,80,64
42480,note_off,,,,,240,0,3,,,,2,,,75,64
42480,note_on,,,,,0,0,3,,,,2,,,68,77
42480,note_on,,,,,0,0,1,,,,0,,,68,67
42510,note_off,,,,,30,0,1,,,,0,,,68,64
42510,note_on,,,,,0,0,1,,,,0,,,80,71
42720,note_on,,,,,240,0,2,,,,1,,,51,45
42720,note_on,,,,,0,0,3,,,,2,,,72,73
42720,note_off,,,,,240,0,3,,,,2,,,68,64
42720,note_off,,,,,210,0,1,,,,0,,,80,64
42720,note_on,,,,,0,0,1,,,,0,,,72,63
42750,note_on,,,,,0,0,1,,,,0,,,80,69
42750,note_on,,,,,0,0,2,,,,1,,,56,59
42750,note_off,,,,,30,0,2,,,,1,,,51,64
42750,note_off,,,,,30,0,1,,,,0,,,72,64
42780,note_off,,,,,30,0,2,,,,1,,,56,64
42780,note_on,,,,,0,0,2,,,,1,,,63,73
42810,note_on,,,,,0,0,2,,,,1,,,60,71
42810,note_off,,,,,30,0,2,,,,1,,,63,64
42960,note_off,,,,,210,0,1,,,,0,,,80,64
42960,note_on,,,,,0,0,3,,,,2,,,73,83
42960,note_on,,,,,0,0,1,,,,0,,,73,63
42960,note_off,,,,,240,0,3,,,,2,,,72,64
42990,note_off,,,,,30,0,1,,,,0,,,73,64
42990,note_on,,,,,0,0,1,,,,0,,,80,75
43160,set_tempo,,,,,910,1,0,681818,,,,,,,
43200,note_on,,,,,0,0,2,,,,1,,,44,73
43200,note_off,,,,,210,0,1,,,,0,,,80,64
43200,note_off,,,,,240,0,3,,,,2,,,73,64
43200,note_on,,,,,0,0,3,,,,2,,,75,91
43200,note_off,,,,,390,0,2,,,,1,,,60,64
43200,note_on,,,,,0,0,1,,,,0,,,75,67
43230,note_on,,,,,0,0,1,,,,0,,,80,69
43230,note_off,,,,,30,0,1,,,,0,,,75,64
43440,note_on,,,,,0,0,1,,,,0,,,78,51
43440,note_on,,,,,0,0,3,,,,2,,,78,83
43440,note_off,,,,,240,0,3,,,,2,,,75,64
43440,note_off,,,,,210,0,1,,,,0,,,80,64
43440,note_off,,,,,240,0,2,,,,1,,,44,64
43470,note_on,,,,,0,0,1,,,,0,,,80,47
43470,note_off,,,,,30,0,1,,,,0,,,78,64
43680,note_on,,,,,0,0,3,,,,2,,,76,87
43680,note_off,,,,,240,0,3,,,,2,,,78,64
43680,note_off,,,,,210,0,1,,,,0,,,80,64
43680,note_on,,,,,0,0,1,,,,0,,,76,77
43680,note_on,,,,,240,0,2,,,,1,,,56,41
43710,note_on,,,,,0,0,2,,,,1,,,60,65
43710,note_off,,,,,30,0,2,,,,1,,,56,64
43710,note_off,,,,,30,0,1,,,,0,,,76,64
43710,note_on,,,,,0,0,1,,,,0,,,80,69
43740,note_off,,,,,30,0,2,,,,1,,,60,64
43740,note_on,,,,,0,0,2,,,,1,,,68,65
43770,note_on,,,,,0,0,2,,,,1,,,63,59
43770,note_off,,,,,30,0,2,,,,1,,,68,64
43920,note_off,,,,,210,0,1,,,,0,,,80,64
43920,note_on,,,,,0,0,3,,,,2,,,75,91
43920,note_off,,,,,240,0,3,,,,2,,,76,64
43920,note_on,,,,,0,0,1,,,,0,,,75,55
43950,note_on,,,,,0,0,1,,,,0,,,80,61
43950,note_off,,,,,30,0,1,,,,0,,,75,64
44140,set_tempo,,,,,980,1,0,674157,,,,,,,
44160,note_off,,,,,240,0,3,,,,2,,,75,64
44160,note_off,,,,,210,0,1,,,,0,,,80,64
44160,note_off,,,,,390,0,2,,,,1,,,63,64
44160,note_on,,,,,0,0,2,,,,1,,,32,77
44160,note_on,,,,,0,0,1,,,,0,,,80,63
44160,note_on,,,,,0,0,3,,,,2,,,73,79
44220,note_on,,,,,0,0,1,,,,0,,,78,57
44220,note_off,,,,,60,0,1,,,,0,,,80,64
44280,note_off,,,,,60,0,1,,,,0,,,78,64
44280,note_on,,,,,0,0,1,,,,0,,,80,63
44280,note_off,,,,,120,0,3,,,,2,,,73,64
44340,note_off,,,,,60,0,1,,,,0,,,80,64
44340,note_on,,,,,0,0,1,,,,0,,,78,59
44400,note_on,,,,,0,0,1,,,,0,,,80,57
44400,note_off,,,,,60,0,1,,,,0,,,78,64
44400,note_off,,,,,240,0,2,,,,1,,,32,64
44460,note_off,,,,,60,0,1,,,,0,,,80,64
44460,note_on,,,,,0,0,1,,,,0,,,78,69
44520,note_off,,,,,60,0,1,,,,0,,,78,64
44520,note_on,,,,,0,0,1,,,,0,,,80,55
44580,note_on,,,,,0,0,1,,,,0,,,78,55
44580,note_off,,,,,60,0,1,,,,0,,,80,64
44640,note_on,,,,,0,0,1,,,,0,,,80,57
44640,note_off,,,,,60,0,1,,,,0,,,78,64
44640,note_on,,,,,360,0,3,,,,2,,,73,77
44640,note_on,,,,,240,0,2,,,,1,,,52,51
44670,note_on,,,,,0,0,2,,,,1,,,56,63
44670,note_off,,,,,30,0,2,,,,1,,,52,64
44700,note_off,,,,,30,0,2,,,,1,,,56,64
44700,note_off,,,,,60,0,1,,,,0,,,80,64
44700,note_on,,,,,0,0,2,,,,1,,,64,69
44700,note_on,,,,,0,0,1,,,,0,,,78,61
44710,set_tempo,,,,,570,1,0,666666,,,,,,,
44730,note_on,,,,,0,0,2,,,,1,,,61,63
44730,note_off,,,,,30,0,2,,,,1,,,64,64
44760,note_off,,,,,60,0,1,,,,0,,,78,64
44760,note_off,,,,,120,0,3,,,,2,,,73,64
44760,note_on,,,,,0,0,1,,,,0,,,80,61
44820,note_on,,,,,0,0,1,,,,0,,,78,57
44820,note_off,,,,,60,0,1,,,,0,,,80,64
44880,note_on,,,,,0,0,1,,,,0,,,80,65
44880,note_off,,,,,60,0,1,,,,0,,,78,64
44940,note_on,,,,,0,0,1,,,,0,,,78,63
44940,note_off,,,,,60,0,1,,,,0,,,80,64
45000,note_off,,,,,60,0,1,,,,0,,,78,64
45000,note_on,,,,,0,0,1,,,,0,,,80,67
45000,note_on,,,,,240,0,3,,,,2,,,75,83
45060,note_off,,,,,60,0,1,,,,0,,,80,64
45060,note_on,,,,,0,0,1,,,,0,,,78,65
45120,note_off,,,,,390,0,2,,,,1,,,61,64
45120,note_off,,,,,120,0,3,,,,2,,,75,64
45120,note_off,,,,,60,0,1,,,,0,,,78,64
45120,note_on,,,,,0,0,1,,,,0,,,80,53
45120,note_on,,,,,0,0,2,,,,1,,,44,67
45120,note_on,,,,,0,0,3,,,,2,,,76,91
45140,set_tempo,,,,,430,1,0,659340,,,,,,,
45180,note_off,,,,,60,0,1,,,,0,,,80,64
45180,note_on,,,,,0,0,1,,,,0,,,78,59
45240,note_on,,,,,0,0,1,,,,0,,,80,65
45240,note_off,,,,,60,0,1,,,,0,,,78,64
45240,note_off,,,,,120,0,3,,,,2,,,76,64
45300,note_off,,,,,60,0,1,,,,0,,,80,64
45300,note_on,,,,,0,0,1,,,,0,,,78,67
45360,note_on,,,,,120,0,3,,,,2,,,80,87
45360,note_off,,,,,240,0,2,,,,1,,,44,64
45360,note_on,,,,,0,0,1,,,,0,,,80,65
45360,note_off,,,,,60,0,1,,,,0,,,78,64
45420,note_off,,,,,60,0,1,,,,0,,,80,64
45420,note_on,,,,,0,0,1,,,,0,,,78,63
45480,note_off,,,,,120,0,3,,,,2,,,80,64
45480,note_on,,,,,0,0,1,,,,0,,,80,59
45480,note_off,,,,,60,0,1,,,,0,,,78,64
45540,note_on,,,,,0,0,1,,,,0,,,78,59
45540,note_off,,,,,60,0,1,,,,0,,,80,64
45590,set_tempo,,,,,450,1,0,645161,,,,,,,
45600,note_on,,,,,240,0,2,,,,1,,,56,71
45600,note_on,,,,,0,0,1,,,,0,,,80,61
45600,note_on,,,,,120,0,3,,,,2,,,85,87
45600,note_off,,,,,60,0,1,,,,0,,,78,64
45630,note_off,,,,,30,0,2,,,,1,,,56,64
45630,note_on,,,,,0,0,2,,,,1,,,61,63
45660,note_off,,,,,60,0,1,,,,0,,,80,64
45660,note_off,,,,,30,0,2,,,,1,,,61,64
45660,note_on,,,,,0,0,2,,,,1,,,68,57
45660,note_on,,,,,0,0,1,,,,0,,,78,63
45690,note_off,,,,,30,0,2,,,,1,,,68,64
45690,note_on,,,,,0,0,2,,,,1,,,64,67
45720,note_on,,,,,0,0,1,,,,0,,,80,63
45720,note_off,,,,,120,0,3,,,,2,,,85,64
45720,note_off,,,,,60,0,1,,,,0,,,78,64
45780,note_off,,,,,60,0,1,,,,0,,,80,64
45780,note_on,,,,,0,0,1,,,,0,,,78,61
45840,note_on,,,,,120,0,3,,,,2,,,88,83
45840,note_on,,,,,0,0,1,,,,0,,,80,57
45840,note_off,,,,,60,0,1,,,,0,,,78,64
45900,note_off,,,,,60,0,1,,,,0,,,80,64
45900,note_on,,,,,0,0,1,,,,0,,,78,63
45960,note_off,,,,,120,0,3,,,,2,,,88,64
45960,note_on,,,,,0,0,1,,,,0,,,76,57
45960,note_off,,,,,60,0,1,,,,0,,,78,64
46020,note_on,,,,,0,0,1,,,,0,,,78,59
46020,note_off,,,,,60,0,1,,,,0,,,76,64
46070,note_off,,,,,380,0,2,,,,1,,,64,64
46070,note_off,,,,,50,0,1,,,,0,,,78,64
46080,note_on,,,,,10,0,1,,,,0,,,80,47
46080,note_on,,,,,10,0,2,,,,1,,,32,55
46140,note_on,,,,,0,0,1,,,,0,,,87,63
46140,note_off,,,,,60,0,1,,,,0,,,80,64
46200,note_off,,,,,60,0,1,,,,0,,,87,64
46200,note_on,,,,,0,0,1,,,,0,,,92,75
46260,note_off,,,,,60,0,1,,,,0,,,92,64
46260,note_on,,,,,0,0,1,,,,0,,,87,75
46320,note_off,,,,,60,0,1,,,,0,,,87,64
46320,note_on,,,,,360,0,3,,,,2,,,80,85
46380,note_on,,,,,60,0,1,,,,0,,,80,37
46440,note_off,,,,,120,0,3,,,,2,,,80,64
46440,note_off,,,,,60,0,1,,,,0,,,80,64
46440,note_on,,,,,0,0,1,,,,0,,,92,57
46500,note_off,,,,,60,0,1,,,,0,,,92,64
46500,note_on,,,,,0,0,1,,,,0,,,80,57
46560,note_on,,,,,0,0,2,,,,1,,,56,61
46560,note_on,,,,,120,0,3,,,,2,,,84,97
46560,note_off,,,,,60,0,1,,,,0,,,80,64
46560,note_off,,,,,480,0,2,,,,1,,,32,64
46590,note_on,,,,,0,0,2,,,,1,,,60,47
46590,note_off,,,,,30,0,2,,,,1,,,56,64
46620,note_off,,,,,30,0,2,,,,1,,,60,64
46620,note_on,,,,,60,0,1,,,,0,,,92,51
46620,note_on,,,,,0,0,2,,,,1,,,68,57
46650,note_off,,,,,30,0,2,,,,1,,,68,64
46650,note_on,,,,,0,0,2,,,,1,,,63,55
46680,note_off,,,,,60,0,1,,,,0,,,92,64
46680,note_on,,,,,0,0,1,,,,0,,,84,63
46680,note_off,,,,,120,0,3,,,,2,,,84,64
46740,note_off,,,,,60,0,1,,,,0,,,84,64
46740,note_on,,,,,0,0,1,,,,0,,,80,57
46800,note_on,,,,,120,0,3,,,,2,,,85,83
46800,note_off,,,,,60,0,1,,,,0,,,80,64
46860,note_on,,,,,60,0,1,,,,0,,,92,57
46920,note_off,,,,,60,0,1,,,,0,,,92,64
46920,note_on,,,,,0,0,1,,,,0,,,85,63
46920,note_off,,,,,120,0,3,,,,2,,,85,64
46980,note_off,,,,,60,0,1,,,,0,,,85,64
46980,note_on,,,,,0,0,1,,,,0,,,80,45
47020,set_tempo,,,,,1430,1,0,638297,,,,,,,
47040,note_off,,,,,60,0,1,,,,0,,,80,64
47040,note_on,,,,,120,0,3,,,,2,,,87,89
47040,note_off,,,,,390,0,2,,,,1,,,63,64
47040,note_on,,,,,0,0,2,,,,1,,,44,55
47100,note_on,,,,,60,0,1,,,,0,,,92,67
47160,note_off,,,,,120,0,3,,,,2,,,87,64
47160,note_off,,,,,60,0,1,,,,0,,,92,64
47160,note_on,,,,,0,0,1,,,,0,,,87,51
47220,note_on,,,,,0,0,1,,,,0,,,80,37
47220,note_off,,,,,60,0,1,,,,0,,,87,64
47280,note_on,,,,,120,0,3,,,,2,,,90,87
47280,note_off,,,,,60,0,1,,,,0,,,80,64
47340,note_on,,,,,60,0,1,,,,0,,,92,14
47400,note_on,,,,,0,0,1,,,,0,,,90,69
47400,note_off,,,,,60,0,1,,,,0,,,92,64
47400,note_off,,,,,120,0,3,,,,2,,,90,64
47460,note_on,,,,,0,0,1,,,,0,,,80,59
47460,note_off,,,,,60,0,1,,,,0,,,90,64
47520,note_on,,,,,0,0,2,,,,1,,,63,43
47520,note_off,,,,,480,0,2,,,,1,,,44,64
47520,note_on,,,,,120,0,3,,,,2,,,88,85
47520,note_off,,,,,60,0,1,,,,0,,,80,64
47550,note_on,,,,,0,0,2,,,,1,,,72,57
47550,note_off,,,,,30,0,2,,,,1,,,63,64
47580,note_on,,,,,0,0,2,,,,1,,,75,37
47580,note_on,,,,,60,0,1,,,,0,,,92,53
47580,note_off,,,,,30,0,2,,,,1,,,72,64
47610,note_on,,,,,0,0,2,,,,1,,,68,29
47610,note_off,,,,,30,0,2,,,,1,,,75,64
47640,note_on,,,,,0,0,1,,,,0,,,88,51
47640,note_off,,,,,120,0,3,,,,2,,,88,64
47640,note_off,,,,,60,0,1,,,,0,,,92,64
47700,note_off,,,,,60,0,1,,,,0,,,88,64
47700,note_on,,,,,0,0,1,,,,0,,,80,35
47760,note_off,,,,,60,0,1,,,,0,,,80,64
47760,note_on,,,,,120,0,3,,,,2,,,87,85
47820,note_on,,,,,60,0,1,,,,0,,,92,59
47880,note_off,,,,,120,0,3,,,,2,,,87,64
47880,note_off,,,,,60,0,1,,,,0,,,92,64
47880,note_on,,,,,0,0,1,,,,0,,,87,69
47940,note_off,,,,,60,0,1,,,,0,,,87,64
47940,note_on,,,,,0,0,1,,,,0,,,80,47
48000,note_on,,,,,0,0,2,,,,1,,,32,57
48000,note_off,,,,,390,0,2,,,,1,,,68,64
48000,note_on,,,,,0,0,1,,,,0,,,80,45
48000,note_off,,,,,60,0,1,,,,0,,,80,64
48010,set_tempo,,,,,990,1,0,625000,,,,,,,
48060,note_off,,,,,60,0,1,,,,0,,,80,64
48060,note_on,,,,,0,0,1,,,,0,,,85,63
48120,note_off,,,,,60,0,1,,,,0,,,85,64
48120,note_on,,,,,0,0,1,,,,0,,,92,61
48180,note_on,,,,,0,0,1,,,,0,,,85,45
48180,note_off,,,,,60,0,1,,,,0,,,92,64
48240,note_on,,,,,360,0,3,,,,2,,,80,75
48240,note_off,,,,,60,0,1,,,,0,,,85,64
48300,note_on,,,,,60,0,1,,,,0,,,80,49
48360,note_on,,,,,0,0,1,,,,0,,,92,41
48360,note_off,,,,,60,0,1,,,,0,,,80,64
48360,note_off,,,,,120,0,3,,,,2,,,80,64
48420,note_on,,,,,0,0,1,,,,0,,,80,55
48420,note_off,,,,,60,0,1,,,,0,,,92,64
48480,note_off,,,,,60,0,1,,,,0,,,80,64
48480,note_on,,,,,120,0,3,,,,2,,,85,85
48480,note_off,,,,,480,0,2,,,,1,,,32,64
48480,note_on,,,,,0,0,2,,,,1,,,56,39
48510,note_off,,,,,30,0,2,,,,1,,,56,64
48510,note_on,,,,,0,0,2,,,,1,,,61,53
48540,note_on,,,,,0,0,2,,,,1,,,68,29
48540,note_off,,,,,30,0,2,,,,1,,,61,64
48540,note_on,,,,,60,0,1,,,,0,,,92,59
48570,note_on,,,,,0,0,2,,,,1,,,64,45
48570,note_off,,,,,30,0,2,,,,1,,,68,64
48600,note_on,,,,,0,0,1,,,,0,,,85,65
48600,note_off,,,,,60,0,1,,,,0,,,92,64
48600,note_off,,,,,120,0,3,,,,2,,,85,64
48660,note_on,,,,,0,0,1,,,,0,,,80,47
48660,note_off,,,,,60,0,1,,,,0,,,85,64
48720,note_off,,,,,60,0,1,,,,0,,,80,64
48720,note_on,,,,,120,0,3,,,,2,,,87,87
48780,note_on,,,,,60,0,1,,,,0,,,92,65
48840,note_off,,,,,120,0,3,,,,2,,,87,64
48840,note_on,,,,,0,0,1,,,,0,,,87,69
48840,note_off,,,,,60,0,1,,,,0,,,92,64
48900,note_off,,,,,60,0,1,,,,0,,,87,64
48900,note_on,,,,,0,0,1,,,,0,,,80,53
48960,note_on,,,,,120,0,3,,,,2,,,88,93
48960,note_off,,,,,390,0,2,,,,1,,,64,64
48960,note_off,,,,,60,0,1,,,,0,,,80,64
48960,note_on,,,,,0,0,2,,,,1,,,44,55
49020,note_on,,,,,60,0,1,,,,0,,,92,57
49080,note_off,,,,,120,0,3,,,,2,,,88,64
49080,note_on,,,,,0,0,1,,,,0,,,88,51
49080,note_off,,,,,60,0,1,,,,0,,,92,64
49140,note_on,,,,,0,0,1,,,,0,,,80,47
49140,note_off,,,,,60,0,1,,,,0,,,88,64
49200,note_off,,,,,60,0,1,,,,0,,,80,64
49200,note_on,,,,,120,0,3,,,,2,,,92,89
49260,note_on,,,,,60,0,1,,,,0,,,80,49
49320,note_off,,,,,120,0,3,,,,2,,,92,64
49320,note_off,,,,,60,0,1,,,,0,,,80,64
49320,note_on,,,,,0,0,1,,,,0,,,92,63
49380,note_off,,,,,60,0,1,,,,0,,,92,64
49380,note_on,,,,,0,0,1,,,,0,,,80,47
49440,note_off,,,,,480,0,2,,,,1,,,44,64
49440,note_off,,,,,60,0,1,,,,0,,,80,64
49440,note_on,,,,,120,0,3,,,,2,,,90,87
49440,note_on,,,,,0,0,2,,,,1,,,64,51
49470,note_off,,,,,30,0,2,,,,1,,,64,64
49470,note_on,,,,,0,0,2,,,,1,,,73,49
49500,note_on,,,,,0,0,2,,,,1,,,76,67
49500,note_on,,,,,60,0,1,,,,0,,,92,61
49500,note_off,,,,,30,0,2,,,,1,,,73,64
49530,note_off,,,,,30,0,2,,,,1,,,76,64
49530,note_on,,,,,0,0,2,,,,1,,,68,37
49560,note_off,,,,,120,0,3,,,,2,,,90,64
49560,note_on,,,,,0,0,1,,,,0,,,90,55
49560,note_off,,,,,60,0,1,,,,0,,,92,64
49620,note_on,,,,,0,0,1,,,,0,,,80,63
49620,note_off,,,,,60,0,1,,,,0,,,90,64
49680,note_on,,,,,120,0,3,,,,2,,,88,97
49680,note_off,,,,,60,0,1,,,,0,,,80,64
49740,note_on,,,,,60,0,1,,,,0,,,92,61
49800,note_off,,,,,120,0,3,,,,2,,,88,64
49800,note_on,,,,,0,0,1,,,,0,,,88,71
49800,note_off,,,,,60,0,1,,,,0,,,92,64
49860,note_off,,,,,60,0,1,,,,0,,,88,64
49860,note_on,,,,,0,0,1,,,,0,,,80,57
49910,set_tempo,,,,,1900,1,0,618556,,,,,,,
49920,note_off,,,,,60,0,1,,,,0,,,80,64
49920,note_on,,,,,0,0,2,,,,1,,,32,47
49920,note_on,,,,,120,0,3,,,,2,,,87,89
49920,note_off,,,,,390,0,2,,,,1,,,68,64
49980,note_on,,,,,60,0,1,,,,0,,,92,53
50040,note_off,,,,,120,0,3,,,,2,,,87,64
50040,note_off,,,,,60,0,1,,,,0,,,92,64
50040,note_on,,,,,0,0,1,,,,0,,,93,67
50100,note_off,,,,,60,0,1,,,,0,,,93,64
50100,note_on,,,,,0,0,1,,,,0,,,92,71
50160,note_on,,,,,120,0,3,,,,2,,,80,67
50160,note_off,,,,,60,0,1,,,,0,,,92,64
50220,note_on,,,,,60,0,1,,,,0,,,92,41
50280,note_on,,,,,0,0,1,,,,0,,,93,45
50280,note_off,,,,,120,0,3,,,,2,,,80,64
50280,note_off,,,,,60,0,1,,,,0,,,92,64
50340,note_on,,,,,0,0,1,,,,0,,,92,63
50340,note_off,,,,,60,0,1,,,,0,,,93,64
50400,note_off,,,,,480,0,2,,,,1,,,32,64
50400,note_off,,,,,60,0,1,,,,0,,,92,64
50400,note_on,,,,,120,0,3,,,,2,,,84,77
50400,note_on,,,,,0,0,2,,,,1,,,56,47
50430,note_on,,,,,0,0,2,,,,1,,,60,57
50430,note_off,,,,,30,0,2,,,,1,,,56,64
50460,note_on,,,,,0,0,2,,,,1,,,68,61
50460,note_off,,,,,30,0,2,,,,1,,,60,64
50460,note_on,,,,,60,0,1,,,,0,,,92,53
50490,note_off,,,,,30,0,2,,,,1,,,68,64
50490,note_on,,,,,0,0,2,,,,1,,,63,49
50520,note_on,,,,,0,0,1,,,,0,,,93,61
50520,note_off,,,,,120,0,3,,,,2,,,84,64
50520,note_off,,,,,60,0,1,,,,0,,,92,64
50580,note_on,,,,,0,0,1,,,,0,,,92,67
50580,note_off,,,,,60,0,1,,,,0,,,93,64
50640,note_off,,,,,60,0,1,,,,0,,,92,64
50640,note_on,,,,,120,0,3,,,,2,,,85,85
50700,note_on,,,,,60,0,1,,,,0,,,92,51
50760,note_on,,,,,0,0,1,,,,0,,,93,65
50760,note_off,,,,,120,0,3,,,,2,,,85,64
50760,note_off,,,,,60,0,1,,,,0,,,92,64
50820,note_on,,,,,0,0,1,,,,0,,,92,61
50820,note_off,,,,,60,0,1,,,,0,,,93,64
50880,note_off,,,,,60,0,1,,,,0,,,92,64
50880,note_off,,,,,390,0,2,,,,1,,,63,64
50880,note_on,,,,,120,0,3,,,,2,,,87,89
50880,note_on,,,,,0,0,2,,,,1,,,44,53
50940,note_on,,,,,60,0,1,,,,0,,,92,55
51000,note_off,,,,,120,0,3,,,,2,,,87,64
51000,note_off,,,,,60,0,1,,,,0,,,92,64
51000,note_on,,,,,0,0,1,,,,0,,,93,63
51060,note_on,,,,,0,0,1,,,,0,,,92,53
51060,note_off,,,,,60,0,1,,,,0,,,93,64
51120,note_off,,,,,60,0,1,,,,0,,,92,64
51120,note_on,,,,,120,0,3,,,,2,,,90,89
51180,note_on,,,,,60,0,1,,,,0,,,92,71
51240,note_off,,,,,120,0,3,,,,2,,,90,64
51240,note_on,,,,,0,0,1,,,,0,,,93,69
51240,note_off,,,,,60,0,1,,,,0,,,92,64
51300,note_on,,,,,0,0,1,,,,0,,,92,77
51300,note_off,,,,,60,0,1,,,,0,,,93,64
51360,note_on,,,,,120,0,3,,,,2,,,88,83
51360,note_off,,,,,60,0,1,,,,0,,,92,64
51360,note_on,,,,,0,0,2,,,,1,,,63,57
51360,note_off,,,,,480,0,2,,,,1,,,44,64
51390,note_on,,,,,0,0,2,,,,1,,,72,55
51390,note_off,,,,,30,0,2,,,,1,,,63,64
51420,note_on,,,,,60,0,1,,,,0,,,92,59
51420,note_off,,,,,30,0,2,,,,1,,,72,64
51420,note_on,,,,,0,0,2,,,,1,,,75,45
51450,note_on,,,,,0,0,2,,,,1,,,68,61
51450,note_off,,,,,30,0,2,,,,1,,,75,64
51480,note_on,,,,,0,0,1,,,,0,,,93,65
51480,note_off,,,,,60,0,1,,,,0,,,92,64
51480,note_off,,,,,120,0,3,,,,2,,,88,64
51540,note_on,,,,,0,0,1,,,,0,,,92,65
51540,note_off,,,,,60,0,1,,,,0,,,93,64
51600,note_off,,,,,60,0,1,,,,0,,,92,64
51600,note_on,,,,,120,0,3,,,,2,,,87,87
51660,note_on,,,,,60,0,1,,,,0,,,92,71
51720,note_off,,,,,120,0,3,,,,2,,,87,64
51720,note_on,,,,,0,0,1,,,,0,,,93,49
51720,note_off,,,,,60,0,1,,,,0,,,92,64
51780,note_on,,,,,0,0,1,,,,0,,,92,63
51780,note_off,,,,,60,0,1,,,,0,,,93,64
51840,note_off,,,,,60,0,1,,,,0,,,92,64
51840,note_on,,,,,0,0,1,,,,0,,,92,49
51840,note_off,,,,,390,0,2,,,,1,,,68,64
51840,note_on,,,,,0,0,2,,,,1,,,32,41
51840,note_on,,,,,120,0,3,,,,2,,,85,79
51900,note_on,,,,,0,0,1,,,,0,,,90,31
51900,note_off,,,,,60,0,1,,,,0,,,92,64
51960,note_off,,,,,120,0,3,,,,2,,,85,64
51960,note_off,,,,,60,0,1,,,,0,,,90,64
51960,note_on,,,,,0,0,1,,,,0,,,92,51
52020,note_off,,,,,60,0,1,,,,0,,,92,64
52020,note_on,,,,,0,0,1,,,,0,,,90,53
52080,note_on,,,,,0,0,1,,,,0,,,92,53
52080,note_off,,,,,60,0,1,,,,0,,,90,64
52140,note_off,,,,,60,0,1,,,,0,,,92,64
52140,note_on,,,,,0,0,1,,,,0,,,90,63
52200,note_off,,,,,60,0,1,,,,0,,,90,64
52200,note_on,,,,,0,0,1,,,,0,,,92,53
52260,note_on,,,,,0,0,1,,,,0,,,90,57
52260,note_off,,,,,60,0,1,,,,0,,,92,64
52320,note_on,,,,,0,0,1,,,,0,,,92,53
52320,note_off,,,,,480,0,2,,,,1,,,32,64
52320,note_off,,,,,60,0,1,,,,0,,,90,64
52320,note_on,,,,,360,0,3,,,,2,,,85,89
52320,note_on,,,,,0,0,2,,,,1,,,56,33
52330,set_tempo,,,,,2420,1,0,625000,,,,,,,
52350,note_off,,,,,30,0,2,,,,1,,,56,64
52350,note_on,,,,,0,0,2,,,,1,,,61,19
52380,note_off,,,,,30,0,2,,,,1,,,61,64
52380,note_off,,,,,60,0,1,,,,0,,,92,64
52380,note_on,,,,,0,0,2,,,,1,,,68,23
52380,note_on,,,,,0,0,1,,,,0,,,90,59
52410,note_on,,,,,0,0,2,,,,1,,,64,53
52410,note_off,,,,,30,0,2,,,,1,,,68,64
52440,note_off,,,,,60,0,1,,,,0,,,90,64
52440,note_on,,,,,0,0,1,,,,0,,,92,53
52440,note_off,,,,,120,0,3,,,,2,,,85,64
52500,note_off,,,,,60,0,1,,,,0,,,92,64
52500,note_on,,,,,0,0,1,,,,0,,,90,75
52560,note_off,,,,,60,0,1,,,,0,,,90,64
52560,note_on,,,,,0,0,1,,,,0,,,92,49
52620,note_off,,,,,60,0,1,,,,0,,,92,64
52620,note_on,,,,,0,0,1,,,,0,,,90,55
52680,note_off,,,,,60,0,1,,,,0,,,90,64
52680,note_on,,,,,0,0,1,,,,0,,,92,47
52680,note_on,,,,,240,0,3,,,,2,,,84,73
52740,note_off,,,,,60,0,1,,,,0,,,92,64
52740,note_on,,,,,0,0,1,,,,0,,,90,71
52800,note_off,,,,,390,0,2,,,,1,,,64,64
52800,note_off,,,,,120,0,3,,,,2,,,84,64
52800,note_off,,,,,60,0,1,,,,0,,,90,64
52800,note_on,,,,,0,0,2,,,,1,,,44,41
52800,note_on,,,,,0,0,3,,,,2,,,85,79
52800,note_on,,,,,0,0,1,,,,0,,,92,67
52860,note_on,,,,,0,0,1,,,,0,,,90,41
52860,note_off,,,,,60,0,1,,,,0,,,92,64
52920,note_on,,,,,0,0,1,,,,0,,,92,51
52920,note_off,,,,,60,0,1,,,,0,,,90,64
52980,note_on,,,,,0,0,1,,,,0,,,90,57
52980,note_off,,,,,60,0,1,,,,0,,,92,64
53040,note_off,,,,,60,0,1,,,,0,,,90,64
53040,note_on,,,,,0,0,1,,,,0,,,92,35
53100,note_on,,,,,0,0,1,,,,0,,,90,73
53100,note_off,,,,,60,0,1,,,,0,,,92,64
53110,set_tempo,,,,,780,1,0,638297,,,,,,,
53160,note_off,,,,,60,0,1,,,,0,,,90,64
53160,note_on,,,,,0,0,1,,,,0,,,88,51
53210,set_tempo,,,,,100,1,0,645161,,,,,,,
53220,note_on,,,,,0,0,1,,,,0,,,90,65
53220,note_off,,,,,60,0,1,,,,0,,,88,64
53270,note_off,,,,,50,0,1,,,,0,,,90,64
53270,note_off,,,,,470,0,3,,,,2,,,85,64
53280,note_on,,,,,0,0,2,,,,1,,,64,53
53280,note_off,,,,,480,0,2,,,,1,,,44,64
53310,note_off,,,,,30,0,2,,,,1,,,64,64
53310,note_on,,,,,0,0,2,,,,1,,,73,55
53320,note_on,,,,,53320,0,4,,,,3,,,88,63
53340,note_on,,,,,0,0,2,,,,1,,,76,47
53340,note_off,,,,,30,0,2,,,,1,,,73,64
53360,note_off,,,,,40,0,4,,,,3,,,88,64
53360,note_on,,,,,0,0,4,,,,3,,,92,73
53370,note_on,,,,,0,0,2,,,,1,,,68,37
53370,note_off,,,,,30,0,2,,,,1,,,76,64
53400,note_on,,,,,0,0,4,,,,3,,,100,73
53400,note_off,,,,,40,0,4,,,,3,,,92,64
53420,set_tempo,,,,,210,1,0,659340,,,,,,,
53440,note_off,,,,,40,0,4,,,,3,,,100,64
53440,note_on,,,,,0,0,4,,,,3,,,99,71
53480,note_on,,,,,0,0,4,,,,3,,,97,71
53480,note_off,,,,,40,0,4,,,,3,,,99,64
53520,note_on,,,,,0,0,4,,,,3,,,92,77
53520,note_off,,,,,40,0,4,,,,3,,,97,64
53520,set_tempo,,,,,100,1,0,666666,,,,,,,
53560,note_on,,,,,0,0,4,,,,3,,,88,63
53560,note_off,,,,,40,0,4,,,,3,,,92,64
53600,note_on,,,,,0,0,4,,,,3,,,87,67
53600,note_off,,,,,40,0,4,,,,3,,,88,64
53610,set_tempo,,,,,90,1,0,674157,,,,,,,
53640,note_off,,,,,40,0,4,,,,3,,,87,64
53640,note_on,,,,,0,0,4,,,,3,,,85,65
53680,note_on,,,,,0,0,4,,,,3,,,80,75
53680,note_off,,,,,40,0,4,,,,3,,,85,64
53720,note_off,,,,,40,0,4,,,,3,,,80,64
53720,note_on,,,,,0,0,4,,,,3,,,76,63
53750,note_off,,,,,30,0,4,,,,3,,,76,64
53750,note_off,,,,,380,0,2,,,,1,,,68,64
53760,note_on,,,,,10,0,2,,,,1,,,44,63
53760,note_on,,,,,490,0,1,,,,0,,,75,67
53790,set_tempo,,,,,180,1,0,681818,,,,,,,
53880,note_off,,,,,120,0,1,,,,0,,,75,64
53880,note_off,,,,,120,0,2,,,,1,,,44,64
53880,note_on,,,,,0,0,2,,,,1,,,51,67
53890,set_tempo,,,,,100,1,0,689655,,,,,,,
53940,note_on,,,,,60,0,1,,,,0,,,76,65
53980,set_tempo,,,,,90,1,0,697674,,,,,,,
54000,note_on,,,,,0,0,2,,,,1,,,54,63
54000,note_off,,,,,60,0,1,,,,0,,,76,64
54000,note_on,,,,,0,0,1,,,,0,,,78,61
54000,note_off,,,,,120,0,2,,,,1,,,51,64
54080,set_tempo,,,,,100,1,0,705882,,,,,,,
54120,note_off,,,,,120,0,1,,,,0,,,78,64
54120,note_on,,,,,0,0,2,,,,1,,,60,63
54120,note_off,,,,,120,0,2,,,,1,,,54,64
54180,set_tempo,,,,,100,1,0,722891,,,,,,,
54180,note_on,,,,,60,0,1,,,,0,,,80,45
54240,note_off,,,,,60,0,1,,,,0,,,80,64
54240,note_on,,,,,0,0,2,,,,1,,,63,67
54240,note_on,,,,,0,0,1,,,,0,,,81,71
54240,note_off,,,,,120,0,2,,,,1,,,60,64
54310,set_tempo,,,,,130,1,0,731707,,,,,,,
54360,note_off,,,,,120,0,2,,,,1,,,63,64
54360,note_off,,,,,120,0,1,,,,0,,,81,64
54360,note_on,,,,,0,0,2,,,,1,,,68,67
54420,note_on,,,,,60,0,1,,,,0,,,80,61
54480,note_off,,,,,60,0,1,,,,0,,,80,64
54480,note_on,,,,,0,0,1,,,,0,,,83,57
54480,note_off,,,,,120,0,2,,,,1,,,68,64
54480,note_on,,,,,0,0,2,,,,1,,,63,67
54600,note_off,,,,,120,0,1,,,,0,,,83,64
54600,note_off,,,,,120,0,2,,,,1,,,63,64
54600,note_on,,,,,0,0,2,,,,1,,,68,61
54660,note_on,,,,,60,0,1,,,,0,,,81,69
54720,note_off,,,,,60,0,1,,,,0,,,81,64
54720,note_on,,,,,0,0,2,,,,1,,,44,65
54720,note_off,,,,,120,0,2,,,,1,,,68,64
54720,note_on,,,,,0,0,1,,,,0,,,80,61
54840,note_on,,,,,0,0,2,,,,1,,,51,51
54840,note_off,,,,,120,0,1,,,,0,,,80,64
54840,note_off,,,,,120,0,2,,,,1,,,44,64
54960,note_off,,,,,120,0,2,,,,1,,,51,64
54960,note_on,,,,,120,0,1,,,,0,,,68,61
54960,note_on,,,,,0,0,2,,,,1,,,54,47
54990,note_on,,,,,30,0,1,,,,0,,,80,77
55080,note_off,,,,,120,0,2,,,,1,,,54,64
55080,note_on,,,,,0,0,2,,,,1,,,60,61
55200,note_off,,,,,210,0,1,,,,0,,,68,64
55200,note_on,,,,,0,0,2,,,,1,,,63,61
55200,note_on,,,,,0,0,1,,,,0,,,70,41
55200,note_off,,,,,0,0,1,,,,0,,,80,64
55200,note_off,,,,,120,0,2,,,,1,,,60,64
55230,note_on,,,,,30,0,1,,,,0,,,80,65
55320,note_off,,,,,120,0,2,,,,1,,,63,64
55320,note_on,,,,,0,0,2,,,,1,,,68,59
55440,note_off,,,,,0,0,1,,,,0,,,80,64
55440,note_off,,,,,120,0,2,,,,1,,,68,64
55440,note_on,,,,,0,0,2,,,,1,,,63,57
55440,note_off,,,,,210,0,1,,,,0,,,70,64
55440,note_on,,,,,0,0,1,,,,0,,,72,55
55470,note_on,,,,,30,0,1,,,,0,,,80,71
55560,note_off,,,,,120,0,2,,,,1,,,63,64
55560,note_on,,,,,0,0,2,,,,1,,,68,63
55650,set_tempo,,,,,1340,1,0,750000,,,,,,,
55670,note_off,,,,,200,0,1,,,,0,,,72,64
55670,note_off,,,,,0,0,1,,,,0,,,80,64
55680,note_on,,,,,0,0,2,,,,1,,,44,43
55680,note_on,,,,,10,0,1,,,,0,,,73,43
55680,note_off,,,,,120,0,2,,,,1,,,68,64
55710,note_on,,,,,0,0,1,,,,0,,,75,57
55710,note_off,,,,,30,0,1,,,,0,,,73,64
55740,note_on,,,,,0,0,1,,,,0,,,73,61
55740,note_off,,,,,30,0,1,,,,0,,,75,64
55800,note_off,,,,,120,0,2,,,,1,,,44,64
55800,note_on,,,,,0,0,2,,,,1,,,52,53
55800,note_off,,,,,60,0,1,,,,0,,,73,64
55860,note_on,,,,,60,0,1,,,,0,,,72,57
55920,note_on,,,,,0,0,1,,,,0,,,73,43
55920,note_on,,,,,0,0,2,,,,1,,,56,51
55920,note_off,,,,,60,0,1,,,,0,,,72,64
55920,note_off,,,,,120,0,2,,,,1,,,52,64
56040,note_off,,,,,120,0,1,,,,0,,,73,64
56040,note_off,,,,,120,0,2,,,,1,,,56,64
56040,note_on,,,,,0,0,2,,,,1,,,61,41
56100,note_on,,,,,60,0,1,,,,0,,,75,49
56160,note_on,,,,,0,0,2,,,,1,,,64,77
56160,note_off,,,,,60,0,1,,,,0,,,75,64
56160,note_on,,,,,0,0,1,,,,0,,,76,65
56160,note_off,,,,,120,0,2,,,,1,,,61,64
56190,note_on,,,,,0,0,1,,,,0,,,78,45
56190,note_off,,,,,30,0,1,,,,0,,,76,64
56220,note_on,,,,,0,0,1,,,,0,,,76,55
56220,note_off,,,,,30,0,1,,,,0,,,78,64
56280,note_on,,,,,0,0,2,,,,1,,,68,61
56280,note_off,,,,,120,0,2,,,,1,,,64,64
56280,note_off,,,,,60,0,1,,,,0,,,76,64
56340,note_on,,,,,60,0,1,,,,0,,,75,63
56400,note_off,,,,,120,0,2,,,,1,,,68,64
56400,note_on,,,,,0,0,1,,,,0,,,76,57
56400,note_off,,,,,60,0,1,,,,0,,,75,64
56400,note_on,,,,,0,0,2,,,,1,,,64,65
56520,note_on,,,,,0,0,2,,,,1,,,68,55
56520,note_off,,,,,120,0,2,,,,1,,,64,64
56520,note_off,,,,,120,0,1,,,,0,,,76,64
56580,note_on,,,,,60,0,1,,,,0,,,78,57
56640,note_off,,,,,120,0,2,,,,1,,,68,64
56640,note_off,,,,,60,0,1,,,,0,,,78,64
56640,note_on,,,,,0,0,1,,,,0,,,79,57
56640,note_on,,,,,0,0,2,,,,1,,,44,57
56760,note_on,,,,,0,0,2,,,,1,,,52,25
56760,note_off,,,,,120,0,2,,,,1,,,44,64
56760,note_off,,,,,120,0,1,,,,0,,,79,64
56820,note_on,,,,,60,0,1,,,,0,,,80,55
56880,note_on,,,,,0,0,2,,,,1,,,56,55
56880,note_off,,,,,120,0,2,,,,1,,,52,64
56880,note_on,,,,,0,0,1,,,,0,,,81,63
56880,note_off,,,,,60,0,1,,,,0,,,80,64
57000,note_on,,,,,0,0,2,,,,1,,,61,67
57000,note_off,,,,,120,0,2,,,,1,,,56,64
57000,note_off,,,,,120,0,1,,,,0,,,81,64
57060,note_on,,,,,60,0,1,,,,0,,,80,59
57120,note_on,,,,,0,0,1,,,,0,,,78,35
57120,note_off,,,,,120,0,2,,,,1,,,61,64
57120,note_off,,,,,60,0,1,,,,0,,,80,64
57120,note_on,,,,,0,0,2,,,,1,,,64,75
57240,note_on,,,,,0,0,2,,,,1,,,68,71
57240,note_off,,,,,120,0,2,,,,1,,,64,64
57240,note_off,,,,,120,0,1,,,,0,,,78,64
57300,note_on,,,,,60,0,1,,,,0,,,76,59
57360,note_on,,,,,0,0,1,,,,0,,,75,47
57360,note_off,,,,,120,0,2,,,,1,,,68,64
57360,note_on,,,,,0,0,1,,,,0,,,80,73
57360,note_on,,,,,0,0,2,,,,1,,,64,73
57360,note_off,,,,,60,0,1,,,,0,,,76,64
57480,note_on,,,,,0,0,2,,,,1,,,68,63
57480,note_off,,,,,120,0,1,,,,0,,,75,64
57480,note_off,,,,,120,0,2,,,,1,,,64,64
57540,note_on,,,,,60,0,1,,,,0,,,73,43
57600,note_on,,,,,0,0,1,,,,0,,,72,55
57600,note_on,,,,,0,0,2,,,,1,,,44,37
57600,note_off,,,,,120,0,2,,,,1,,,68,64
57600,note_off,,,,,60,0,1,,,,0,,,80,64
57600,note_off,,,,,0,0,1,,,,0,,,73,64
57630,note_off,,,,,30,0,1,,,,0,,,72,64
57630,note_on,,,,,0,0,1,,,,0,,,87,51
57720,note_on,,,,,0,0,2,,,,1,,,51,55
57720,note_off,,,,,90,0,1,,,,0,,,87,64
57720,note_off,,,,,120,0,2,,,,1,,,44,64
57780,note_on,,,,,60,0,1,,,,0,,,88,67
57840,note_off,,,,,60,0,1,,,,0,,,88,64
57840,note_on,,,,,0,0,2,,,,1,,,54,65
57840,note_off,,,,,120,0,2,,,,1,,,51,64
57840,note_on,,,,,0,0,1,,,,0,,,90,73
57960,note_on,,,,,0,0,2,,,,1,,,60,65
57960,note_off,,,,,120,0,1,,,,0,,,90,64
57960,note_off,,,,,120,0,2,,,,1,,,54,64
58020,note_on,,,,,60,0,1,,,,0,,,92,67
58080,note_on,,,,,0,0,1,,,,0,,,93,69
58080,note_on,,,,,0,0,2,,,,1,,,63,71
58080,note_off,,,,,120,0,2,,,,1,,,60,64
58080,note_off,,,,,60,0,1,,,,0,,,92,64
58200,note_on,,,,,0,0,2,,,,1,,,68,57
58200,note_off,,,,,120,0,2,,,,1,,,63,64
58200,note_off,,,,,120,0,1,,,,0,,,93,64
58260,note_on,,,,,60,0,1,,,,0,,,92,53
58320,note_off,,,,,60,0,1,,,,0,,,92,64
58320,note_on,,,,,0,0,1,,,,0,,,95,65
58320,note_off,,,,,120,0,2,,,,1,,,68,64
58320,note_on,,,,,0,0,2,,,,1,,,63,39
58440,note_off,,,,,120,0,1,,,,0,,,95,64
58440,note_on,,,,,0,0,2,,,,1,,,68,43
58440,note_off,,,,,120,0,2,,,,1,,,63,64
58500,note_on,,,,,60,0,1,,,,0,,,93,71
58560,note_on,,,,,0,0,1,,,,0,,,92,71
58560,note_on,,,,,0,0,2,,,,1,,,44,57
58560,note_off,,,,,120,0,2,,,,1,,,68,64
58560,note_off,,,,,60,0,1,,,,0,,,93,64
58680,note_on,,,,,0,0,2,,,,1,,,51,23
58680,note_off,,,,,120,0,2,,,,1,,,44,64
58800,note_off,,,,,120,0,2,,,,1,,,51,64
58800,note_on,,,,,0,0,1,,,,0,,,68,71
58800,note_off,,,,,240,0,1,,,,0,,,92,64
58800,note_on,,,,,0,0,2,,,,1,,,54,25
58830,note_off,,,,,30,0,1,,,,0,,,68,64
58830,note_on,,,,,0,0,1,,,,0,,,80,63
58920,note_on,,,,,0,0,2,,,,1,,,60,45
58920,note_off,,,,,120,0,2,,,,1,,,54,64
59040,note_on,,,,,0,0,1,,,,0,,,70,45
59040,note_off,,,,,210,0,1,,,,0,,,80,64
59040,note_on,,,,,0,0,2,,,,1,,,63,35
59040,note_off,,,,,120,0,2,,,,1,,,60,64
59070,note_off,,,,,30,0,1,,,,0,,,70,64
59070,note_on,,,,,0,0,1,,,,0,,,80,51
59070,note_on,,,,,0,0,1,,,,0,,,82,27
59160,note_on,,,,,0,0,2,,,,1,,,68,69
59160,note_off,,,,,120,0,2,,,,1,,,63,64
59280,note_off,,,,,120,0,2,,,,1,,,68,64
59280,note_off,,,,,210,0,1,,,,0,,,80,64
59280,note_on,,,,,0,0,2,,,,1,,,63,35
59280,note_on,,,,,0,0,1,,,,0,,,72,33
59280,note_off,,,,,0,0,1,,,,0,,,82,64
59310,note_off,,,,,30,0,1,,,,0,,,72,64
59310,note_on,,,,,0,0,1,,,,0,,,84,53
59310,note_on,,,,,0,0,1,,,,0,,,80,37
59400,note_on,,,,,0,0,2,,,,1,,,68,67
59400,note_off,,,,,120,0,2,,,,1,,,63,64
59520,note_off,,,,,0,0,1,,,,0,,,84,64
59520,note_on,,,,,0,0,2,,,,1,,,37,55
59520,note_off,,,,,120,0,2,,,,1,,,68,64
59520,note_off,,,,,210,0,1,,,,0,,,80,64
59520,note_on,,,,,0,0,1,,,,0,,,73,63
59550,note_on,,,,,0,0,1,,,,0,,,80,77
59550,note_off,,,,,30,0,1,,,,0,,,73,64
59580,note_off,,,,,30,0,1,,,,0,,,80,64
59580,note_on,,,,,0,0,1,,,,0,,,87,79
59610,note_off,,,,,30,0,1,,,,0,,,87,64
59610,note_on,,,,,0,0,1,,,,0,,,85,69
59640,note_on,,,,,0,0,2,,,,1,,,44,47
59640,note_off,,,,,30,0,1,,,,0,,,85,64
59640,note_off,,,,,120,0,2,,,,1,,,37,64
59670,note_on,,,,,30,0,1,,,,0,,,84,77
59730,note_on,,,,,0,0,1,,,,0,,,85,63
59730,note_off,,,,,60,0,1,,,,0,,,84,64
59760,note_on,,,,,0,0,2,,,,1,,,53,43
59760,note_off,,,,,120,0,2,,,,1,,,44,64
59790,note_off,,,,,60,0,1,,,,0,,,85,64
59790,note_on,,,,,0,0,1,,,,0,,,84,65
59820,note_on,,,,,30,0,1,,,,0,,,85,75
59850,note_off,,,,,30,0,1,,,,0,,,84,64
59880,note_off,,,,,30,0,1,,,,0,,,85,64
59880,note_off,,,,,120,0,2,,,,1,,,53,64
59880,note_on,,,,,0,0,2,,,,1,,,56,67
59880,note_on,,,,,0,0,1,,,,0,,,84,77
59940,note_off,,,,,60,0,1,,,,0,,,84,64
59940,note_on,,,,,0,0,1,,,,0,,,85,57
60000,note_off,,,,,60,0,1,,,,0,,,85,64
60000,note_on,,,,,0,0,1,,,,0,,,84,83
60000,note_off,,,,,120,0,2,,,,1,,,56,64
60000,note_on,,,,,0,0,2,,,,1,,,61,37
60060,note_on,,,,,0,0,1,,,,0,,,85,61
60060,note_off,,,,,60,0,1,,,,0,,,84,64
60120,note_on,,,,,0,0,1,,,,0,,,84,75
60120,note_off,,,,,120,0,2,,,,1,,,61,64
60120,note_off,,,,,60,0,1,,,,0,,,85,64
60120,note_on,,,,,0,0,2,,,,1,,,68,67
60180,note_off,,,,,60,0,1,,,,0,,,84,64
60180,note_on,,,,,0,0,1,,,,0,,,85,79
60240,note_on,,,,,0,0,2,,,,1,,,61,57
60240,note_off,,,,,120,0,2,,,,1,,,68,64
60240,note_off,,,,,60,0,1,,,,0,,,85,64
60240,note_on,,,,,0,0,1,,,,0,,,84,65
60300,note_on,,,,,0,0,1,,,,0,,,85,77
60300,note_off,,,,,60,0,1,,,,0,,,84,64
60360,note_on,,,,,0,0,2,,,,1,,,68,53
60360,note_on,,,,,0,0,1,,,,0,,,84,45
60360,note_off,,,,,120,0,2,,,,1,,,61,64
60360,note_off,,,,,60,0,1,,,,0,,,85,64
60420,note_on,,,,,0,0,1,,,,0,,,85,59
60420,note_off,,,,,60,0,1,,,,0,,,84,64
60480,note_off,,,,,60,0,1,,,,0,,,85,64
60480,note_off,,,,,120,0,2,,,,1,,,68,64
60480,note_on,,,,,0,0,1,,,,0,,,84,75
60480,note_on,,,,,0,0,2,,,,1,,,49,35
60540,note_on,,,,,0,0,1,,,,0,,,85,73
60540,note_off,,,,,60,0,1,,,,0,,,84,64
60600,note_on,,,,,0,0,1,,,,0,,,84,73
60600,note_off,,,,,120,0,2,,,,1,,,49,64
60600,note_off,,,,,60,0,1,,,,0,,,85,64
60600,note_on,,,,,0,0,2,,,,1,,,56,61
60660,note_on,,,,,0,0,1,,,,0,,,85,63
60660,note_off,,,,,60,0,1,,,,0,,,84,64
60720,note_off,,,,,120,0,2,,,,1,,,56,64
60720,note_on,,,,,0,0,1,,,,0,,,84,81
60720,note_on,,,,,0,0,2,,,,1,,,65,67
60720,note_off,,,,,60,0,1,,,,0,,,85,64
60780,note_on,,,,,0,0,1,,,,0,,,85,83
60780,note_off,,,,,60,0,1,,,,0,,,84,64
60840,note_on,,,,,0,0,1,,,,0,,,84,75
60840,note_off,,,,,60,0,1,,,,0,,,85,64
60840,note_on,,,,,0,0,2,,,,1,,,68,45
60840,note_off,,,,,120,0,2,,,,1,,,65,64
60900,note_on,,,,,0,0,1,,,,0,,,85,73
60900,note_off,,,,,60,0,1,,,,0,,,84,64
60960,note_off,,,,,120,0,2,,,,1,,,68,64
60960,note_on,,,,,0,0,1,,,,0,,,84,65
60960,note_off,,,,,60,0,1,,,,0,,,85,64
60960,note_on,,,,,0,0,2,,,,1,,,73,55
61020,note_off,,,,,60,0,1,,,,0,,,84,64
61020,note_on,,,,,0,0,1,,,,0,,,85,63
61080,note_off,,,,,120,0,2,,,,1,,,73,64
61080,note_on,,,,,0,0,1,,,,0,,,84,51
61080,note_off,,,,,60,0,1,,,,0,,,85,64
61080,note_on,,,,,0,0,2,,,,1,,,80,55
61140,note_on,,,,,0,0,1,,,,0,,,81,61
61140,note_off,,,,,60,0,1,,,,0,,,84,64
61200,note_off,,,,,120,0,2,,,,1,,,80,64
61200,note_on,,,,,0,0,2,,,,1,,,73,49
61200,note_off,,,,,60,0,1,,,,0,,,81,64
61200,note_on,,,,,0,0,1,,,,0,,,84,77
61260,note_off,,,,,60,0,1,,,,0,,,84,64
61260,note_on,,,,,0,0,1,,,,0,,,85,63
61320,note_off,,,,,120,0,2,,,,1,,,73,64
61320,note_on,,,,,0,0,1,,,,0,,,84,67
61320,note_off,,,,,60,0,1,,,,0,,,85,64
61320,note_on,,,,,0,0,2,,,,1,,,80,67
61380,note_off,,,,,60,0,1,,,,0,,,84,64
61380,note_on,,,,,0,0,1,,,,0,,,85,49
61440,note_off,,,,,120,0,2,,,,1,,,80,64
61440,note_on,,,,,0,0,2,,,,1,,,73,41
61440,note_on,,,,,0,0,1,,,,0,,,85,55
61440,note_on,,,,,0,0,1,,,,0,,,77,55
61440,note_off,,,,,60,0,1,,,,0,,,85,64
61500,note_off,,,,,0,0,1,,,,0,,,77,64
61500,note_on,,,,,0,0,2,,,,1,,,80,51
61500,note_off,,,,,60,0,1,,,,0,,,85,64
61500,note_on,,,,,0,0,1,,,,0,,,87,71
61500,note_off,,,,,60,0,2,,,,1,,,73,64
61560,note_off,,,,,60,0,1,,,,0,,,87,64
61560,note_on,,,,,0,0,1,,,,0,,,77,47
61560,note_on,,,,,0,0,1,,,,0,,,85,59
61560,note_off,,,,,60,0,2,,,,1,,,80,64
61560,note_on,,,,,0,0,2,,,,1,,,73,63
61620,note_on,,,,,0,0,2,,,,1,,,80,69
61620,note_on,,,,,0,0,1,,,,0,,,87,63
61620,note_off,,,,,60,0,1,,,,0,,,85,64
61620,note_off,,,,,60,0,2,,,,1,,,73,64
61620,note_off,,,,,0,0,1,,,,0,,,77,64
61680,note_on,,,,,0,0,2,,,,1,,,73,61
61680,note_on,,,,,0,0,1,,,,0,,,85,51
61680,note_off,,,,,60,0,1,,,,0,,,87,64
61680,note_on,,,,,0,0,1,,,,0,,,77,37
61680,note_off,,,,,60,0,2,,,,1,,,80,64
61740,note_on,,,,,0,0,2,,,,1,,,80,69
61740,note_off,,,,,60,0,2,,,,1,,,73,64
61740,note_off,,,,,0,0,1,,,,0,,,77,64
61740,note_off,,,,,60,0,1,,,,0,,,85,64
61740,note_on,,,,,0,0,1,,,,0,,,87,75
61800,note_off,,,,,60,0,1,,,,0,,,87,64
61800,note_on,,,,,0,0,1,,,,0,,,77,53
61800,note_on,,,,,0,0,1,,,,0,,,85,57
61800,note_off,,,,,60,0,2,,,,1,,,80,64
61800,note_on,,,,,0,0,2,,,,1,,,73,45
61860,note_off,,,,,60,0,1,,,,0,,,85,64
61860,note_off,,,,,0,0,1,,,,0,,,77,64
61860,note_off,,,,,60,0,2,,,,1,,,73,64
61860,note_on,,,,,0,0,1,,,,0,,,87,75
61860,note_on,,,,,0,0,2,,,,1,,,80,71
61920,note_on,,,,,0,0,1,,,,0,,,85,51
61920,note_off,,,,,60,0,2,,,,1,,,80,64
61920,note_off,,,,,60,0,1,,,,0,,,87,64
61920,note_on,,,,,0,0,2,,,,1,,,73,55
61980,note_off,,,,,60,0,2,,,,1,,,73,64
61980,note_on,,,,,0,0,2,,,,1,,,80,69
61980,note_off,,,,,60,0,1,,,,0,,,85,64
61980,note_on,,,,,0,0,1,,,,0,,,87,61
62040,note_off,,,,,60,0,1,,,,0,,,87,64
62040,note_on,,,,,0,0,2,,,,1,,,73,61
62040,note_off,,,,,60,0,2,,,,1,,,80,64
62040,note_on,,,,,0,0,1,,,,0,,,85,51
62100,note_off,,,,,60,0,2,,,,1,,,73,64
62100,note_on,,,,,0,0,2,,,,1,,,80,73
62110,note_on,,,,,0,0,1,,,,0,,,87,49
62110,note_off,,,,,70,0,1,,,,0,,,85,64
62160,note_on,,,,,50,0,1,,,,0,,,85,73
62160,note_on,,,,,0,0,2,,,,1,,,73,59
62160,note_off,,,,,60,0,2,,,,1,,,80,64
62170,note_off,,,,,10,0,1,,,,0,,,87,64
62220,note_on,,,,,0,0,1,,,,0,,,87,37
62220,note_on,,,,,0,0,2,,,,1,,,80,59
62220,note_off,,,,,60,0,2,,,,1,,,73,64
62220,note_off,,,,,50,0,1,,,,0,,,85,64
62280,note_on,,,,,0,0,2,,,,1,,,73,49
62280,note_on,,,,,0,0,1,,,,0,,,85,59
62280,note_off,,,,,60,0,2,,,,1,,,80,64
62280,note_off,,,,,60,0,1,,,,0,,,87,64
62340,note_off,,,,,60,0,1,,,,0,,,85,64
62340,note_off,,,,,60,0,2,,,,1,,,73,64
62340,note_on,,,,,0,0,1,,,,0,,,87,33
62340,note_on,,,,,0,0,2,,,,1,,,80,69
62390,note_off,,,,,50,0,1,,,,0,,,87,64
62390,note_off,,,,,50,0,2,,,,1,,,80,64
62400,note_on,,,,,0,0,1,,,,0,,,77,55
62400,note_on,,,,,10,0,2,,,,1,,,80,67
62400,note_on,,,,,0,0,1,,,,0,,,85,55
62400,note_on,,,,,0,0,2,,,,1,,,73,41
62400,note_on,,,,,10,0,1,,,,0,,,85,49
62401,note_off,,,,,1,0,2,,,,1,,,80,64
62401,note_off,,,,,1,0,1,,,,0,,,85,64
62460,note_off,,,,,0,0,1,,,,0,,,77,64
62460,note_off,,,,,59,0,1,,,,0,,,85,64
62460,note_on,,,,,0,0,2,,,,1,,,80,51
62460,note_on,,,,,0,0,1,,,,0,,,87,71
62460,note_off,,,,,59,0,2,,,,1,,,73,64
62520,note_off,,,,,60,0,1,,,,0,,,87,64
62520,note_on,,,,,0,0,2,,,,1,,,73,63
62520,note_off,,,,,60,0,2,,,,1,,,80,64
62520,note_on,,,,,0,0,1,,,,0,,,77,47
62520,note_on,,,,,0,0,1,,,,0,,,85,59
62580,note_off,,,,,60,0,1,,,,0,,,85,64
62580,note_on,,,,,0,0,1,,,,0,,,87,63
62580,note_on,,,,,0,0,2,,,,1,,,80,69
62580,note_off,,,,,0,0,1,,,,0,,,77,64
62580,note_off,,,,,60,0,2,,,,1,,,73,64
62640,note_off,,,,,60,0,2,,,,1,,,80,64
62640,note_off,,,,,60,0,1,,,,0,,,87,64
62640,note_on,,,,,0,0,1,,,,0,,,77,37
62640,note_on,,,,,0,0,1,,,,0,,,85,51
62640,note_on,,,,,0,0,2,,,,1,,,73,61
62700,note_on,,,,,0,0,2,,,,1,,,80,69
62700,note_on,,,,,0,0,1,,,,0,,,87,75
62700,note_off,,,,,0,0,1,,,,0,,,77,64
62700,note_off,,,,,60,0,1,,,,0,,,85,64
62700,note_off,,,,,60,0,2,,,,1,,,73,64
62760,note_on,,,,,0,0,1,,,,0,,,77,53
62760,note_off,,,,,60,0,1,,,,0,,,87,64
62760,note_on,,,,,0,0,1,,,,0,,,85,57
62760,note_off,,,,,60,0,2,,,,1,,,80,64
62760,note_on,,,,,0,0,2,,,,1,,,73,45
62820,note_off,,,,,60,0,1,,,,0,,,85,64
62820,note_on,,,,,0,0,2,,,,1,,,80,71
62820,note_off,,,,,60,0,2,,,,1,,,73,64
62820,note_on,,,,,0,0,1,,,,0,,,87,75
62820,note_off,,,,,0,0,1,,,,0,,,77,64
62880,note_off,,,,,60,0,2,,,,1,,,80,64
62880,note_on,,,,,0,0,2,,,,1,,,73,55
62880,note_off,,,,,60,0,1,,,,0,,,87,64
62880,note_on,,,,,0,0,1,,,,0,,,85,51
62940,note_on,,,,,0,0,1,,,,0,,,87,61
62940,note_on,,,,,0,0,2,,,,1,,,80,69
62940,note_off,,,,,60,0,1,,,,0,,,85,64
62940,note_off,,,,,60,0,2,,,,1,,,73,64
63000,note_on,,,,,0,0,1,,,,0,,,85,51
63000,note_off,,,,,60,0,1,,,,0,,,87,64
63000,note_on,,,,,0,0,2,,,,1,,,73,61
63000,note_off,,,,,60,0,2,,,,1,,,80,64
63060,note_on,,,,,0,0,2,,,,1,,,80,73
63060,note_off,,,,,60,0,2,,,,1,,,73,64
63070,note_on,,,,,0,0,1,,,,0,,,87,49
63070,note_off,,,,,70,0,1,,,,0,,,85,64
63120,note_off,,,,,60,0,2,,,,1,,,80,64
63120,note_on,,,,,50,0,1,,,,0,,,85,73
63120,note_on,,,,,0,0,2,,,,1,,,73,59
63130,note_off,,,,,10,0,1,,,,0,,,87,64
63180,note_off,,,,,50,0,1,,,,0,,,85,64
63180,note_on,,,,,0,0,1,,,,0,,,87,37
63180,note_off,,,,,60,0,2,,,,1,,,73,64
63180,note_on,,,,,0,0,2,,,,1,,,80,59
63240,note_on,,,,,0,0,2,,,,1,,,73,49
63240,note_off,,,,,60,0,2,,,,1,,,80,64
63240,note_on,,,,,0,0,1,,,,0,,,85,59
63240,note_off,,,,,60,0,1,,,,0,,,87,64
63300,note_off,,,,,60,0,2,,,,1,,,73,64
63300,note_on,,,,,0,0,1,,,,0,,,87,33
63300,note_off,,,,,60,0,1,,,,0,,,85,64
63300,note_on,,,,,0,0,2,,,,1,,,80,69
63350,note_off,,,,,50,0,1,,,,0,,,87,64
63350,note_off,,,,,50,0,2,,,,1,,,80,64
63360,note_on,,,,,0,0,4,,,,3,,,77,51
63360,note_on,,,,,0,0,4,,,,3,,,73,63
63360,note_on,,,,,9610,0,4,,,,3,,,85,53
63360,note_on,,,,,0,0,4,,,,3,,,80,37
63420,note_off,,,,,0,0,4,,,,3,,,80,64
63420,note_off,,,,,0,0,4,,,,3,,,77,64
63420,note_off,,,,,0,0,4,,,,3,,,73,64
63420,note_off,,,,,60,0,4,,,,3,,,85,64
63420,note_on,,,,,0,0,4,,,,3,,,84,59
63480,note_on,,,,,0,0,4,,,,3,,,87,51
63480,note_off,,,,,60,0,4,,,,3,,,84,64
63500,set_tempo,,,,,7850,1,0,731707,,,,,,,
63540,note_on,,,,,0,0,4,,,,3,,,85,45
63540,note_off,,,,,60,0,4,,,,3,,,87,64
63600,note_on,,,,,0,0,4,,,,3,,,89,63
63600,note_off,,,,,60,0,4,,,,3,,,85,64
63660,note_off,,,,,60,0,4,,,,3,,,89,64
63660,note_on,,,,,0,0,4,,,,3,,,87,69
63680,set_tempo,,,,,180,1,0,722891,,,,,,,
63720,note_on,,,,,0,0,4,,,,3,,,85,57
63720,note_off,,,,,60,0,4,,,,3,,,87,64
63780,set_tempo,,,,,100,1,0,705882,,,,,,,
63780,note_off,,,,,60,0,4,,,,3,,,85,64
63780,note_on,,,,,0,0,4,,,,3,,,80,49
63840,note_on,,,,,0,0,4,,,,3,,,77,41
63840,note_off,,,,,60,0,4,,,,3,,,80,64
63870,set_tempo,,,,,90,1,0,697674,,,,,,,
63900,note_off,,,,,60,0,4,,,,3,,,77,64
63900,note_on,,,,,0,0,4,,,,3,,,75,45
63960,note_on,,,,,0,0,4,,,,3,,,73,59
63960,note_off,,,,,60,0,4,,,,3,,,75,64
63970,set_tempo,,,,,100,1,0,689655,,,,,,,
64020,note_off,,,,,60,0,4,,,,3,,,73,64
64020,note_on,,,,,0,0,4,,,,3,,,68,53
64070,set_tempo,,,,,100,1,0,681818,,,,,,,
64080,note_on,,,,,0,0,4,,,,3,,,65,55
64080,note_off,,,,,60,0,4,,,,3,,,68,64
64140,note_on,,,,,0,0,4,,,,3,,,68,53
64140,note_off,,,,,60,0,4,,,,3,,,65,64
64170,set_tempo,,,,,100,1,0,674157,,,,,,,
64200,note_on,,,,,0,0,4,,,,3,,,73,65
64200,note_off,,,,,60,0,4,,,,3,,,68,64
64260,note_off,,,,,60,0,4,,,,3,,,73,64
64260,note_on,,,,,0,0,4,,,,3,,,75,61
64320,note_on,,,,,0,0,4,,,,3,,,77,63
64320,note_off,,,,,60,0,4,,,,3,,,75,64
64380,note_on,,,,,0,0,4,,,,3,,,80,63
64380,note_off,,,,,60,0,4,,,,3,,,77,64
64440,note_off,,,,,60,0,4,,,,3,,,80,64
64440,note_on,,,,,0,0,4,,,,3,,,85,69
64500,note_off,,,,,60,0,4,,,,3,,,85,64
64500,note_on,,,,,0,0,4,,,,3,,,87,67
64520,set_tempo,,,,,350,1,0,681818,,,,,,,
64560,note_off,,,,,60,0,4,,,,3,,,87,64
64560,note_on,,,,,0,0,4,,,,3,,,89,53
64620,note_off,,,,,60,0,4,,,,3,,,89,64
64620,note_on,,,,,0,0,4,,,,3,,,92,49
64630,set_tempo,,,,,110,1,0,689655,,,,,,,
64680,note_off,,,,,60,0,4,,,,3,,,92,64
64680,note_on,,,,,0,0,4,,,,3,,,97,59
64740,note_on,,,,,0,0,4,,,,3,,,92,65
64740,note_off,,,,,60,0,4,,,,3,,,97,64
64750,set_tempo,,,,,120,1,0,697674,,,,,,,
64800,note_off,,,,,60,0,4,,,,3,,,92,64
64800,note_on,,,,,0,0,4,,,,3,,,99,69
64850,set_tempo,,,,,100,1,0,705882,,,,,,,
64860,note_on,,,,,0,0,4,,,,3,,,97,51
64860,note_off,,,,,60,0,4,,,,3,,,99,64
64920,note_off,,,,,60,0,4,,,,3,,,97,64
64920,note_on,,,,,0,0,4,,,,3,,,104,61
64960,set_tempo,,,,,110,1,0,722891,,,,,,,
64980,note_on,,,,,0,0,4,,,,3,,,102,59
64980,note_off,,,,,60,0,4,,,,3,,,104,64
65040,note_off,,,,,60,0,4,,,,3,,,102,64
65040,note_on,,,,,0,0,4,,,,3,,,101,67
65050,set_tempo,,,,,90,1,0,731707,,,,,,,
65100,note_on,,,,,0,0,4,,,,3,,,92,61
65100,note_off,,,,,60,0,4,,,,3,,,101,64
65160,note_off,,,,,60,0,4,,,,3,,,92,64
65160,note_on,,,,,0,0,4,,,,3,,,89,43
65220,note_off,,,,,60,0,4,,,,3,,,89,64
65220,note_on,,,,,0,0,4,,,,3,,,97,47
65250,set_tempo,,,,,200,1,0,750000,,,,,,,
65280,note_off,,,,,60,0,4,,,,3,,,97,64
65280,note_on,,,,,0,0,4,,,,3,,,92,51
65340,note_on,,,,,0,0,4,,,,3,,,89,71
65340,note_off,,,,,60,0,4,,,,3,,,92,64
65400,note_on,,,,,0,0,4,,,,3,,,87,43
65400,note_off,,,,,60,0,4,,,,3,,,89,64
65460,note_on,,,,,0,0,4,,,,3,,,85,67
65460,note_off,,,,,60,0,4,,,,3,,,87,64
65470,set_tempo,,,,,220,1,0,769230,,,,,,,
65520,note_on,,,,,0,0,4,,,,3,,,88,65
65520,note_off,,,,,60,0,4,,,,3,,,85,64
65580,note_on,,,,,0,0,4,,,,3,,,87,71
65580,note_off,,,,,60,0,4,,,,3,,,88,64
65590,set_tempo,,,,,120,1,0,779220,,,,,,,
65640,note_off,,,,,60,0,4,,,,3,,,87,64
65640,note_on,,,,,0,0,4,,,,3,,,85,63
65700,note_on,,,,,0,0,4,,,,3,,,80,71
65700,note_off,,,,,60,0,4,,,,3,,,85,64
65720,set_tempo,,,,,130,1,0,789473,,,,,,,
65760,note_on,,,,,0,0,4,,,,3,,,77,61
65760,note_off,,,,,60,0,4,,,,3,,,80,64
65820,note_on,,,,,0,0,4,,,,3,,,85,69
65820,note_off,,,,,60,0,4,,,,3,,,77,64
65830,set_tempo,,,,,110,1,0,800000,,,,,,,
65880,note_on,,,,,0,0,4,,,,3,,,80,71
65880,note_off,,,,,60,0,4,,,,3,,,85,64
65940,note_off,,,,,60,0,4,,,,3,,,80,64
65940,note_on,,,,,0,0,4,,,,3,,,77,73
66000,note_off,,,,,60,0,4,,,,3,,,77,64
66000,note_on,,,,,0,0,4,,,,3,,,75,73
66040,set_tempo,,,,,210,1,0,821917,,,,,,,
66060,note_on,,,,,0,0,4,,,,3,,,73,75
66060,note_off,,,,,60,0,4,,,,3,,,75,64
66120,note_off,,,,,60,0,4,,,,3,,,73,64
66120,note_on,,,,,0,0,4,,,,3,,,77,77
66130,set_tempo,,,,,90,1,0,833333,,,,,,,
66180,note_off,,,,,60,0,4,,,,3,,,77,64
66180,note_on,,,,,0,0,4,,,,3,,,75,75
66240,note_off,,,,,60,0,4,,,,3,,,75,64
66240,note_on,,,,,0,0,4,,,,3,,,73,93
66280,set_tempo,,,,,150,1,0,845070,,,,,,,
66300,note_on,,,,,0,0,4,,,,3,,,68,77
66300,note_off,,,,,60,0,4,,,,3,,,73,64
66350,set_tempo,,,,,70,1,0,869565,,,,,,,
66360,note_off,,,,,60,0,4,,,,3,,,68,64
66360,note_on,,,,,0,0,4,,,,3,,,65,93
66420,note_on,,,,,0,0,4,,,,3,,,73,107
66420,note_off,,,,,60,0,4,,,,3,,,65,64
66480,note_on,,,,,0,0,4,,,,3,,,68,97
66480,note_off,,,,,60,0,4,,,,3,,,73,64
66500,set_tempo,,,,,150,1,0,895522,,,,,,,
66540,note_on,,,,,0,0,4,,,,3,,,65,97
66540,note_off,,,,,60,0,4,,,,3,,,68,64
66600,note_on,,,,,0,0,4,,,,3,,,63,115
66600,note_off,,,,,60,0,4,,,,3,,,65,64
66650,set_tempo,,,,,150,1,0,923076,,,,,,,
66660,note_off,,,,,60,0,4,,,,3,,,63,64
66660,note_on,,,,,0,0,4,,,,3,,,61,115
66720,note_off,,,,,60,0,4,,,,3,,,61,64
66720,note_on,,,,,0,0,4,,,,3,,,65,115
66720,set_tempo,,,,,70,1,0,937500,,,,,,,
66780,note_off,,,,,60,0,4,,,,3,,,65,64
66780,note_on,,,,,0,0,4,,,,3,,,63,118
66840,note_off,,,,,60,0,4,,,,3,,,63,64
66840,note_on,,,,,0,0,4,,,,3,,,61,115
66880,set_tempo,,,,,160,1,0,967741,,,,,,,
66900,note_off,,,,,60,0,4,,,,3,,,61,64
66900,note_on,,,,,0,0,4,,,,3,,,59,115
66960,note_off,,,,,60,0,4,,,,3,,,59,64
66960,note_on,,,,,0,0,4,,,,3,,,61,107
66960,set_tempo,,,,,80,1,0,983606,,,,,,,
67020,note_on,,,,,0,0,4,,,,3,,,59,125
67020,note_off,,,,,60,0,4,,,,3,,,61,64
67040,set_tempo,,,,,80,1,0,1000000,,,,,,,
67080,note_off,,,,,60,0,4,,,,3,,,59,64
67080,note_on,,,,,0,0,4,,,,3,,,61,122
67140,note_off,,,,,60,0,4,,,,3,,,61,64
67140,note_on,,,,,0,0,4,,,,3,,,59,118
67190,note_off,,,,,50,0,4,,,,3,,,59,64
67200,note_on,,,,,3850,0,1,,,,0,,,61,118
67680,note_on,,,,,0,0,2,,,,1,,,44,103
67680,note_on,,,,,0,0,2,,,,1,,,49,87
67680,note_on,,,,,0,0,2,,,,1,,,53,91
67680,note_on,,,,,4330,0,2,,,,1,,,37,93
67680,note_on,,,,,0,0,2,,,,1,,,56,91
67740,note_on,,,,,0,0,2,,,,1,,,37,91
67740,note_on,,,,,0,0,2,,,,1,,,44,103
67740,note_on,,,,,0,0,2,,,,1,,,49,93
67740,note_off,,,,,0,0,2,,,,1,,,44,64
67740,note_off,,,,,60,0,2,,,,1,,,37,64
67740,note_off,,,,,0,0,2,,,,1,,,49,64
67740,note_off,,,,,0,0,2,,,,1,,,53,64
67740,note_off,,,,,0,0,2,,,,1,,,56,64
67740,note_on,,,,,0,0,2,,,,1,,,56,115
67740,note_on,,,,,0,0,2,,,,1,,,53,115
67920,note_off,,,,,0,0,2,,,,1,,,44,64
67920,note_off,,,,,0,0,2,,,,1,,,49,64
67920,note_off,,,,,180,0,2,,,,1,,,37,64
67920,note_off,,,,,0,0,2,,,,1,,,56,64
67920,note_off,,,,,0,0,2,,,,1,,,53,64
68160,note_on,,,,,0,0,1,,,,0,,,61,97
68160,note_off,,,,,960,0,1,,,,0,,,61,64
68190,note_off,,,,,30,0,1,,,,0,,,61,64
68190,note_on,,,,,0,0,1,,,,0,,,59,93
68220,note_off,,,,,30,0,1,,,,0,,,59,64
68220,note_on,,,,,0,0,1,,,,0,,,61,103
68250,note_on,,,,,0,0,1,,,,0,,,59,91
68250,note_off,,,,,30,0,1,,,,0,,,61,64
68640,note_on,,,,,0,0,2,,,,1,,,42,91
68640,note_on,,,,,0,0,2,,,,1,,,50,97
68640,note_on,,,,,720,0,2,,,,1,,,38,87
68640,note_on,,,,,0,0,2,,,,1,,,47,79
68640,note_on,,,,,0,0,2,,,,1,,,54,103
68700,note_on,,,,,0,0,2,,,,1,,,38,79
68700,note_off,,,,,0,0,2,,,,1,,,42,64
68700,note_off,,,,,0,0,2,,,,1,,,47,64
68700,note_off,,,,,0,0,2,,,,1,,,50,64
68700,note_on,,,,,0,0,2,,,,1,,,54,93
68700,note_on,,,,,0,0,2,,,,1,,,50,97
68700,note_off,,,,,0,0,2,,,,1,,,54,64
68700,note_off,,,,,60,0,2,,,,1,,,38,64
68700,note_on,,,,,0,0,2,,,,1,,,47,83
68700,note_on,,,,,0,0,2,,,,1,,,42,91
68849,note_off,,,,,599,0,1,,,,0,,,59,64
68880,note_off,,,,,180,0,2,,,,1,,,38,64
68880,note_on,,,,,31,0,1,,,,0,,,61,103
68880,note_off,,,,,0,0,2,,,,1,,,42,64
68880,note_off,,,,,0,0,2,,,,1,,,47,64
68880,note_off,,,,,0,0,2,,,,1,,,54,64
68880,note_off,,,,,0,0,2,,,,1,,,50,64
68940,note_on,,,,,0,0,1,,,,0,,,64,97
68940,note_off,,,,,60,0,1,,,,0,,,61,64
69000,note_on,,,,,0,0,1,,,,0,,,62,115
69000,note_off,,,,,60,0,1,,,,0,,,64,64
69060,note_off,,,,,60,0,1,,,,0,,,62,64
69060,note_on,,,,,0,0,1,,,,0,,,61,97
69120,note_off,,,,,60,0,1,,,,0,,,61,64
69120,note_on,,,,,0,0,1,,,,0,,,61,103
69600,note_on,,,,,0,0,2,,,,1,,,53,83
69600,note_on,,,,,0,0,2,,,,1,,,56,83
69600,note_on,,,,,0,0,2,,,,1,,,49,83
69600,note_on,,,,,0,0,2,,,,1,,,44,97
69600,note_on,,,,,720,0,2,,,,1,,,37,93
69660,note_on,,,,,0,0,2,,,,1,,,53,87
69660,note_off,,,,,0,0,2,,,,1,,,44,64
69660,note_on,,,,,0,0,2,,,,1,,,56,93
69660,note_off,,,,,0,0,2,,,,1,,,49,64
69660,note_off,,,,,60,0,2,,,,1,,,37,64
69660,note_off,,,,,0,0,2,,,,1,,,56,64
69660,note_off,,,,,0,0,2,,,,1,,,53,64
69660,note_on,,,,,0,0,2,,,,1,,,37,103
69660,note_on,,,,,0,0,2,,,,1,,,44,103
69660,note_on,,,,,0,0,2,,,,1,,,49,91
69840,note_off,,,,,0,0,2,,,,1,,,56,64
69840,note_off,,,,,0,0,2,,,,1,,,53,64
69840,note_off,,,,,0,0,2,,,,1,,,49,64
69840,note_off,,,,,0,0,2,,,,1,,,44,64
69840,note_off,,,,,180,0,2,,,,1,,,37,64
70080,note_on,,,,,0,0,1,,,,0,,,61,107
70080,note_off,,,,,960,0,1,,,,0,,,61,64
70110,note_on,,,,,0,0,1,,,,0,,,59,97
70110,note_off,,,,,30,0,1,,,,0,,,61,64
70140,note_off,,,,,30,0,1,,,,0,,,59,64
70140,note_on,,,,,0,0,1,,,,0,,,61,97
70170,note_on,,,,,0,0,1,,,,0,,,59,97
70170,note_off,,,,,30,0,1,,,,0,,,61,64
70560,note_on,,,,,0,0,2,,,,1,,,47,93
70560,note_on,,,,,0,0,2,,,,1,,,54,87
70560,note_on,,,,,0,0,2,,,,1,,,50,93
70560,note_on,,,,,0,0,2,,,,1,,,42,91
70560,note_on,,,,,720,0,2,,,,1,,,38,87
70620,note_on,,,,,0,0,2,,,,1,,,50,87
70620,note_on,,,,,0,0,2,,,,1,,,47,91
70620,note_off,,,,,60,0,2,,,,1,,,38,64
70620,note_on,,,,,0,0,2,,,,1,,,42,93
70620,note_on,,,,,0,0,2,,,,1,,,38,93
70620,note_off,,,,,0,0,2,,,,1,,,42,64
70620,note_on,,,,,0,0,2,,,,1,,,54,83
70620,note_off,,,,,0,0,2,,,,1,,,50,64
70620,note_off,,,,,0,0,2,,,,1,,,47,64
70620,note_off,,,,,0,0,2,,,,1,,,54,64
70740,note_on,,,,,570,0,1,,,,0,,,57,97
70769,note_off,,,,,29,0,1,,,,0,,,59,64
70800,note_off,,,,,31,0,1,,,,0,,,57,64
70800,note_off,,,,,0,0,2,,,,1,,,50,64
70800,note_off,,,,,0,0,2,,,,1,,,47,64
70800,note_off,,,,,0,0,2,,,,1,,,42,64
70800,note_off,,,,,0,0,2,,,,1,,,54,64
70800,note_on,,,,,0,0,1,,,,0,,,56,103
70800,note_off,,,,,180,0,2,,,,1,,,38,64
70860,note_off,,,,,60,0,1,,,,0,,,56,64
70860,note_on,,,,,0,0,1,,,,0,,,59,103
70920,note_off,,,,,60,0,1,,,,0,,,59,64
70920,note_on,,,,,0,0,1,,,,0,,,57,103
70980,note_off,,,,,60,0,1,,,,0,,,57,64
70980,note_on,,,,,0,0,1,,,,0,,,56,118
71040,note_off,,,,,60,0,1,,,,0,,,56,64
71040,note_on,,,,,0,0,1,,,,0,,,56,118
71520,note_on,,,,,0,0,2,,,,1,,,53,93
71520,note_on,,,,,0,0,2,,,,1,,,44,83
71520,note_on,,,,,720,0,2,,,,1,,,37,93
71520,note_on,,,,,0,0,2,,,,1,,,49,97
71580,note_off,,,,,0,0,2,,,,1,,,53,64
71580,note_on,,,,,0,0,2,,,,1,,,53,93
71580,note_on,,,,,0,0,2,,,,1,,,37,103
71580,note_on,,,,,0,0,2,,,,1,,,49,97
71580,note_off,,,,,0,0,2,,,,1,,,49,64
71580,note_off,,,,,0,0,2,,,,1,,,44,64
71580,note_off,,,,,60,0,2,,,,1,,,37,64
71580,note_on,,,,,0,0,2,,,,1,,,44,83
71760,note_off,,,,,0,0,2,,,,1,,,53,64
71760,note_off,,,,,180,0,2,,,,1,,,37,64
71760,note_off,,,,,0,0,2,,,,1,,,44,64
71760,note_off,,,,,0,0,2,,,,1,,,49,64
72000,note_on,,,,,0,0,1,,,,0,,,56,118
72000,note_off,,,,,960,0,1,,,,0,,,56,64
72060,note_off,,,,,60,0,1,,,,0,,,56,64
72060,note_on,,,,,0,0,1,,,,0,,,56,107
72480,note_on,,,,,0,0,2,,,,1,,,52,83
72480,note_on,,,,,0,0,2,,,,1,,,49,93
72480,note_on,,,,,0,0,2,,,,1,,,44,91
72480,note_on,,,,,720,0,2,,,,1,,,40,115
72540,note_off,,,,,0,0,2,,,,1,,,49,64
72540,note_off,,,,,0,0,2,,,,1,,,44,64
72540,note_on,,,,,0,0,2,,,,1,,,40,107
72540,note_off,,,,,0,0,2,,,,1,,,52,64
72540,note_on,,,,,0,0,2,,,,1,,,52,91
72540,note_on,,,,,0,0,2,,,,1,,,44,83
72540,note_off,,,,,60,0,2,,,,1,,,40,64
72540,note_on,,,,,0,0,2,,,,1,,,49,91
72660,note_on,,,,,600,0,1,,,,0,,,57,103
72720,note_off,,,,,180,0,2,,,,1,,,40,64
72720,note_off,,,,,0,0,2,,,,1,,,44,64
72720,note_off,,,,,0,0,2,,,,1,,,49,64
72720,note_off,,,,,0,0,2,,,,1,,,52,64
72720,note_off,,,,,60,0,1,,,,0,,,57,64
72720,note_on,,,,,0,0,1,,,,0,,,56,115
72779,note_off,,,,,59,0,1,,,,0,,,56,64
72780,note_on,,,,,1,0,1,,,,0,,,59,103
72840,note_off,,,,,60,0,1,,,,0,,,59,64
72840,note_on,,,,,0,0,1,,,,0,,,57,103
72900,note_on,,,,,0,0,1,,,,0,,,56,115
72900,note_off,,,,,60,0,1,,,,0,,,57,64
72960,note_on,,,,,0,0,1,,,,0,,,56,103
72960,note_off,,,,,60,0,1,,,,0,,,56,64
72990,note_off,,,,,30,0,1,,,,0,,,56,64
73440,note_on,,,,,720,0,2,,,,1,,,44,87
73440,note_on,,,,,0,0,2,,,,1,,,49,93
73440,note_on,,,,,0,0,2,,,,1,,,51,97
73500,note_off,,,,,0,0,2,,,,1,,,51,64
73500,note_off,,,,,0,0,2,,,,1,,,49,64
73500,note_on,,,,,0,0,2,,,,1,,,49,91
73500,note_on,,,,,0,0,2,,,,1,,,51,93
73500,note_on,,,,,0,0,2,,,,1,,,44,83
73500,note_off,,,,,60,0,2,,,,1,,,44,64
73680,note_off,,,,,0,0,2,,,,1,,,49,64
73680,note_off,,,,,0,0,2,,,,1,,,51,64
73680,note_off,,,,,180,0,2,,,,1,,,44,64
74400,note_on,,,,,0,0,2,,,,1,,,51,97
74400,note_on,,,,,0,0,2,,,,1,,,48,93
74400,note_on,,,,,0,0,2,,,,1,,,44,87
74400,note_on,,,,,720,0,2,,,,1,,,54,103
74520,note_off,,,,,0,0,2,,,,1,,,48,64
74520,note_off,,,,,0,0,2,,,,1,,,44,64
74520,note_off,,,,,120,0,2,,,,1,,,54,64
74520,note_off,,,,,0,0,2,,,,1,,,51,64
74570,set_tempo,,,,,7530,1,0,983606,,,,,,,
74630,set_tempo,,,,,60,1,0,967741,,,,,,,
74639,note_off,,,,,1649,0,1,,,,0,,,56,64
74690,set_tempo,,,,,60,1,0,937500,,,,,,,
74840,set_tempo,,,,,150,1,0,923076,,,,,,,
74910,set_tempo,,,,,70,1,0,895522,,,,,,,
75060,set_tempo,,,,,150,1,0,869565,,,,,,,
75220,set_tempo,,,,,160,1,0,845070,,,,,,,
75240,note_on,,,,,720,0,2,,,,1,,,32,118
75290,set_tempo,,,,,70,1,0,833333,,,,,,,
75360,note_off,,,,,120,0,2,,,,1,,,32,64
75360,note_on,,,,,0,0,2,,,,1,,,33,107
75470,set_tempo,,,,,180,1,0,821917,,,,,,,
75550,set_tempo,,,,,80,1,0,800000,,,,,,,
75720,note_off,,,,,360,0,2,,,,1,,,33,64
75720,note_on,,,,,0,0,2,,,,1,,,35,107
75730,set_tempo,,,,,180,1,0,789473,,,,,,,
75820,set_tempo,,,,,90,1,0,779220,,,,,,,
75840,note_off,,,,,120,0,2,,,,1,,,35,64
75840,note_on,,,,,0,0,2,,,,1,,,37,107
75900,set_tempo,,,,,80,1,0,769230,,,,,,,
75960,note_off,,,,,120,0,2,,,,1,,,37,64
75990,set_tempo,,,,,90,1,0,750000,,,,,,,
76320,note_on,,,,,0,0,1,,,,0,,,64,115
76320,note_on,,,,,0,0,1,,,,0,,,61,118
76320,note_on,,,,,0,0,1,,,,0,,,56,121
76320,note_on,,,,,360,0,2,,,,1,,,37,103
76320,note_on,,,,,1681,0,1,,,,0,,,52,93
76350,note_off,,,,,30,0,2,,,,1,,,37,64
76350,note_on,,,,,0,0,2,,,,1,,,49,115
76800,note_off,,,,,0,0,1,,,,0,,,61,64
76800,note_off,,,,,0,0,1,,,,0,,,64,64
76800,note_off,,,,,480,0,1,,,,0,,,52,64
76800,note_on,,,,,450,0,2,,,,1,,,30,118
76800,note_off,,,,,0,0,1,,,,0,,,56,64
76920,note_on,,,,,120,0,2,,,,1,,,48,97
76949,note_off,,,,,29,0,2,,,,1,,,49,64
77040,note_off,,,,,91,0,2,,,,1,,,30,64
77040,note_on,,,,,0,0,2,,,,1,,,49,103
77040,note_off,,,,,0,0,2,,,,1,,,48,64
77160,note_off,,,,,120,0,2,,,,1,,,49,64
77160,note_on,,,,,0,0,2,,,,1,,,51,83
77280,note_off,,,,,120,0,2,,,,1,,,51,64
77280,note_on,,,,,0,0,1,,,,0,,,69,115
77280,note_on,,,,,0,0,1,,,,0,,,66,118
77280,note_on,,,,,0,0,1,,,,0,,,61,107
77280,note_on,,,,,0,0,2,,,,1,,,52,97
77280,note_on,,,,,480,0,1,,,,0,,,57,97
77400,note_on,,,,,0,0,2,,,,1,,,44,97
77400,note_off,,,,,120,0,2,,,,1,,,52,64
77520,note_off,,,,,120,0,2,,,,1,,,44,64
77520,note_on,,,,,0,0,2,,,,1,,,52,91
77640,note_on,,,,,0,0,2,,,,1,,,51,91
77640,note_off,,,,,120,0,2,,,,1,,,52,64
77760,note_on,,,,,0,0,2,,,,1,,,49,107
77760,note_off,,,,,0,0,1,,,,0,,,66,64
77760,note_off,,,,,0,0,1,,,,0,,,61,64
77760,note_off,,,,,0,0,1,,,,0,,,69,64
77760,note_off,,,,,120,0,2,,,,1,,,51,64
77760,note_off,,,,,480,0,1,,,,0,,,57,64
77880,note_off,,,,,120,0,2,,,,1,,,49,64
78240,note_on,,,,,480,0,1,,,,0,,,52,87
78240,note_on,,,,,360,0,2,,,,1,,,37,97
78240,note_on,,,,,0,0,1,,,,0,,,56,115
78240,note_on,,,,,0,0,1,,,,0,,,61,107
78240,note_on,,,,,0,0,1,,,,0,,,64,107
78270,note_on,,,,,0,0,2,,,,1,,,44,97
78270,note_off,,,,,30,0,2,,,,1,,,37,64
78300,note_off,,,,,30,0,2,,,,1,,,44,64
78300,note_on,,,,,0,0,2,,,,1,,,49,97
78330,note_on,,,,,0,0,2,,,,1,,,51,97
78330,note_off,,,,,30,0,2,,,,1,,,49,64
78360,note_on,,,,,0,0,2,,,,1,,,49,97
78360,note_off,,,,,30,0,2,,,,1,,,51,64
78600,note_off,,,,,240,0,2,,,,1,,,49,64
78600,note_on,,,,,0,0,2,,,,1,,,48,87
78720,note_off,,,,,480,0,1,,,,0,,,52,64
78720,note_on,,,,,0,0,2,,,,1,,,49,97
78720,note_off,,,,,0,0,1,,,,0,,,61,64
78720,note_off,,,,,120,0,2,,,,1,,,48,64
78720,note_off,,,,,0,0,1,,,,0,,,64,64
78720,note_off,,,,,0,0,1,,,,0,,,56,64
79200,note_on,,,,,0,0,1,,,,0,,,61,118
79200,note_on,,,,,0,0,1,,,,0,,,56,118
79200,note_on,,,,,0,0,1,,,,0,,,64,107
79200,note_on,,,,,480,0,1,,,,0,,,52,97
79200,note_on,,,,,480,0,2,,,,1,,,37,97
79440,note_off,,,,,240,0,2,,,,1,,,37,64
79559,note_off,,,,,119,0,2,,,,1,,,49,64
79560,note_on,,,,,1,0,2,,,,1,,,51,103
79680,note_off,,,,,0,0,1,,,,0,,,64,64
79680,note_off,,,,,120,0,2,,,,1,,,51,64
79680,note_on,,,,,0,0,2,,,,1,,,35,93
79680,note_off,,,,,0,0,1,,,,0,,,61,64
79680,note_off,,,,,0,0,1,,,,0,,,56,64
79680,note_off,,,,,480,0,1,,,,0,,,52,64
79710,note_off,,,,,30,0,2,,,,1,,,35,64
79710,note_on,,,,,0,0,2,,,,1,,,52,97
79800,note_off,,,,,90,0,2,,,,1,,,52,64
80160,note_on,,,,,360,0,2,,,,1,,,52,103
80160,note_on,,,,,0,0,1,,,,0,,,59,103
80160,note_on,,,,,0,0,1,,,,0,,,64,115
80160,note_on,,,,,0,0,1,,,,0,,,68,97
80160,note_on,,,,,480,0,1,,,,0,,,56,103
80640,note_off,,,,,0,0,1,,,,0,,,68,64
80640,note_on,,,,,480,0,2,,,,1,,,35,107
80640,note_off,,,,,0,0,1,,,,0,,,64,64
80640,note_off,,,,,480,0,1,,,,0,,,56,64
80640,note_off,,,,,0,0,1,,,,0,,,59,64
80759,note_off,,,,,119,0,2,,,,1,,,52,64
80760,note_off,,,,,1,0,2,,,,1,,,35,64
80760,note_on,,,,,0,0,2,,,,1,,,51,103
80880,note_off,,,,,120,0,2,,,,1,,,51,64
80880,note_on,,,,,0,0,2,,,,1,,,52,91
81000,note_on,,,,,0,0,2,,,,1,,,54,97
81000,note_off,,,,,120,0,2,,,,1,,,52,64
81120,note_on,,,,,0,0,1,,,,0,,,59,103
81120,note_off,,,,,120,0,2,,,,1,,,54,64
81120,note_on,,,,,0,0,1,,,,0,,,63,121
81120,note_on,,,,,0,0,1,,,,0,,,71,115
81120,note_on,,,,,0,0,2,,,,1,,,56,103
81120,note_on,,,,,480,0,1,,,,0,,,57,93
81240,note_off,,,,,120,0,2,,,,1,,,56,64
81240,note_on,,,,,0,0,2,,,,1,,,47,107
81360,note_off,,,,,120,0,2,,,,1,,,47,64
81360,note_on,,,,,0,0,2,,,,1,,,56,97
81480,note_off,,,,,120,0,2,,,,1,,,56,64
81480,note_on,,,,,0,0,2,,,,1,,,54,93
81600,note_off,,,,,0,0,1,,,,0,,,63,64
81600,note_off,,,,,480,0,1,,,,0,,,57,64
81600,note_off,,,,,0,0,1,,,,0,,,71,64
81600,note_off,,,,,120,0,2,,,,1,,,54,64
81600,note_on,,,,,0,0,2,,,,1,,,52,97
81600,note_off,,,,,0,0,1,,,,0,,,59,64
82080,note_on,,,,,480,0,1,,,,0,,,56,118
82080,note_off,,,,,480,0,2,,,,1,,,52,64
82080,note_on,,,,,0,0,2,,,,1,,,40,87
82080,note_on,,,,,0,0,1,,,,0,,,59,97
82080,note_on,,,,,0,0,1,,,,0,,,64,107
82080,note_on,,,,,0,0,1,,,,0,,,68,115
82110,note_off,,,,,30,0,2,,,,1,,,40,64
82110,note_on,,,,,0,0,2,,,,1,,,47,97
82140,note_off,,,,,30,0,2,,,,1,,,47,64
82140,note_on,,,,,0,0,2,,,,1,,,52,91
82170,note_on,,,,,0,0,2,,,,1,,,54,93
82170,note_off,,,,,30,0,2,,,,1,,,52,64
82200,note_on,,,,,0,0,2,,,,1,,,52,93
82200,note_off,,,,,30,0,2,,,,1,,,54,64
82320,note_off,,,,,120,0,2,,,,1,,,52,64
82440,note_on,,,,,120,0,2,,,,1,,,51,93
82560,note_off,,,,,120,0,2,,,,1,,,51,64
82560,note_off,,,,,480,0,1,,,,0,,,56,64
82560,note_on,,,,,0,0,2,,,,1,,,52,93
82560,note_off,,,,,0,0,1,,,,0,,,59,64
82560,note_off,,,,,0,0,1,,,,0,,,68,64
82560,note_off,,,,,0,0,1,,,,0,,,64,64
82680,note_off,,,,,120,0,2,,,,1,,,52,64
82950,set_tempo,,,,,6960,1,0,769230,,,,,,,
83030,set_tempo,,,,,80,1,0,779220,,,,,,,
83040,note_on,,,,,360,0,2,,,,1,,,52,93
83040,note_on,,,,,0,0,2,,,,1,,,44,103
83040,note_on,,,,,0,0,1,,,,0,,,56,115
83040,note_on,,,,,0,0,1,,,,0,,,60,97
83040,note_on,,,,,0,0,1,,,,0,,,54,118
83040,note_on,,,,,0,0,1,,,,0,,,68,118
83040,note_on,,,,,480,0,1,,,,0,,,64,122
83120,set_tempo,,,,,90,1,0,789473,,,,,,,
83190,set_tempo,,,,,70,1,0,800000,,,,,,,
83290,set_tempo,,,,,100,1,0,789473,,,,,,,
83390,set_tempo,,,,,100,1,0,779220,,,,,,,
83400,note_off,,,,,360,0,1,,,,0,,,64,64
83400,note_on,,,,,0,0,2,,,,1,,,51,107
83400,note_off,,,,,360,0,2,,,,1,,,52,64
83400,note_on,,,,,0,0,1,,,,0,,,63,121
83470,set_tempo,,,,,80,1,0,769230,,,,,,,
83520,note_off,,,,,120,0,2,,,,1,,,44,64
83520,note_off,,,,,0,0,1,,,,0,,,68,64
83520,note_on,,,,,0,0,2,,,,1,,,37,97
83520,note_off,,,,,0,0,2,,,,1,,,51,64
83520,note_off,,,,,0,0,1,,,,0,,,63,64
83520,note_off,,,,,0,0,1,,,,0,,,60,64
83520,note_off,,,,,0,0,1,,,,0,,,56,64
83520,note_off,,,,,120,0,1,,,,0,,,54,64
83550,note_on,,,,,0,0,2,,,,1,,,49,107
83550,note_off,,,,,30,0,2,,,,1,,,37,64
83550,set_tempo,,,,,80,1,0,750000,,,,,,,
83580,note_off,,,,,30,0,2,,,,1,,,49,64
83580,note_on,,,,,0,0,2,,,,1,,,61,97
83750,note_off,,,,,170,0,2,,,,1,,,61,64
84000,note_on,,,,,0,0,1,,,,0,,,73,115
84000,note_on,,,,,0,0,1,,,,0,,,61,115
84000,note_on,,,,,480,0,1,,,,0,,,64,115
84000,note_on,,,,,250,0,2,,,,1,,,49,122
84000,note_on,,,,,0,0,1,,,,0,,,68,121
84470,note_off,,,,,470,0,2,,,,1,,,49,64
84480,note_on,,,,,10,0,2,,,,1,,,30,107
84480,note_off,,,,,480,0,1,,,,0,,,64,64
84480,note_off,,,,,0,0,1,,,,0,,,68,64
84480,note_on,,,,,0,0,1,,,,0,,,66,118
84480,note_on,,,,,0,0,1,,,,0,,,69,118
84599,note_off,,,,,119,0,1,,,,0,,,61,64
84600,note_on,,,,,120,0,2,,,,1,,,48,103
84600,note_on,,,,,1,0,1,,,,0,,,60,115
84719,note_off,,,,,119,0,1,,,,0,,,73,64
84720,note_off,,,,,0,0,2,,,,1,,,48,64
84720,note_off,,,,,1,0,1,,,,0,,,66,64
84720,note_off,,,,,0,0,1,,,,0,,,60,64
84720,note_on,,,,,0,0,2,,,,1,,,49,103
84720,note_off,,,,,120,0,2,,,,1,,,30,64
84720,note_off,,,,,0,0,1,,,,0,,,69,64
84720,note_on,,,,,0,0,1,,,,0,,,61,107
84840,note_on,,,,,0,0,1,,,,0,,,63,107
84840,note_off,,,,,120,0,2,,,,1,,,49,64
84840,note_on,,,,,0,0,2,,,,1,,,51,107
84840,note_off,,,,,120,0,1,,,,0,,,61,64
84960,note_on,,,,,0,0,1,,,,0,,,64,115
84960,note_off,,,,,120,0,1,,,,0,,,63,64
84960,note_on,,,,,0,0,2,,,,1,,,52,103
84960,note_off,,,,,120,0,2,,,,1,,,51,64
85080,note_on,,,,,0,0,1,,,,0,,,57,115
85080,note_on,,,,,0,0,2,,,,1,,,45,97
85080,note_off,,,,,120,0,1,,,,0,,,64,64
85080,note_off,,,,,120,0,2,,,,1,,,52,64
85200,note_on,,,,,0,0,2,,,,1,,,52,107
85200,note_off,,,,,120,0,2,,,,1,,,45,64
85200,note_off,,,,,120,0,1,,,,0,,,57,64
85200,note_on,,,,,0,0,1,,,,0,,,64,118
85320,note_on,,,,,0,0,1,,,,0,,,63,121
85320,note_on,,,,,0,0,2,,,,1,,,51,107
85320,note_off,,,,,120,0,1,,,,0,,,64,64
85320,note_off,,,,,120,0,2,,,,1,,,52,64
85440,note_off,,,,,120,0,2,,,,1,,,51,64
85440,note_on,,,,,0,0,1,,,,0,,,61,118
85440,note_on,,,,,0,0,2,,,,1,,,49,107
85440,note_off,,,,,120,0,1,,,,0,,,63,64
85560,note_off,,,,,120,0,1,,,,0,,,61,64
85680,note_off,,,,,240,0,2,,,,1,,,49,64
85920,note_on,,,,,240,0,2,,,,1,,,49,91
85920,note_on,,,,,360,0,1,,,,0,,,61,115
85920,note_on,,,,,0,0,2,,,,1,,,37,93
85950,note_off,,,,,30,0,1,,,,0,,,61,64
85950,note_on,,,,,0,0,1,,,,0,,,63,118
85980,note_on,,,,,0,0,1,,,,0,,,73,93
85980,note_on,,,,,0,0,1,,,,0,,,64,107
85980,note_off,,,,,30,0,1,,,,0,,,63,64
85980,note_on,,,,,0,0,1,,,,0,,,68,93
85980,note_on,,,,,0,0,1,,,,0,,,61,97
86040,note_off,,,,,120,0,2,,,,1,,,49,64
86160,note_off,,,,,180,0,1,,,,0,,,61,64
86160,note_off,,,,,120,0,2,,,,1,,,37,64
86160,note_off,,,,,0,0,1,,,,0,,,73,64
86160,note_off,,,,,0,0,1,,,,0,,,64,64
86160,note_off,,,,,0,0,1,,,,0,,,68,64
86280,note_on,,,,,120,0,1,,,,0,,,60,121
86280,note_on,,,,,120,0,2,,,,1,,,48,97
86400,note_on,,,,,0,0,1,,,,0,,,61,122
86400,note_off,,,,,120,0,1,,,,0,,,60,64
86400,note_off,,,,,120,0,2,,,,1,,,48,64
86400,note_on,,,,,0,0,2,,,,1,,,49,103
86640,note_off,,,,,240,0,2,,,,1,,,49,64
86640,note_off,,,,,240,0,1,,,,0,,,61,64
86880,note_on,,,,,240,0,1,,,,0,,,76,118
86880,note_on,,,,,0,0,1,,,,0,,,64,118
86880,note_on,,,,,0,0,2,,,,1,,,52,93
86880,note_on,,,,,0,0,2,,,,1,,,55,103
86880,note_on,,,,,0,0,1,,,,0,,,73,118
86880,note_on,,,,,0,0,1,,,,0,,,67,121
86880,note_on,,,,,0,0,2,,,,1,,,49,107
86880,note_on,,,,,240,0,2,,,,1,,,46,121
87120,note_off,,,,,240,0,2,,,,1,,,46,64
87120,note_on,,,,,0,0,2,,,,1,,,45,115
87360,note_off,,,,,0,0,1,,,,0,,,67,64
87360,note_on,,,,,0,0,2,,,,1,,,44,107
87360,note_on,,,,,0,0,1,,,,0,,,68,118
87360,note_on,,,,,0,0,1,,,,0,,,73,118
87360,note_off,,,,,0,0,2,,,,1,,,45,64
87360,note_on,,,,,0,0,1,,,,0,,,80,118
87360,note_off,,,,,0,0,1,,,,0,,,64,64
87360,note_off,,,,,0,0,2,,,,1,,,49,64
87360,note_off,,,,,480,0,1,,,,0,,,76,64
87360,note_off,,,,,0,0,1,,,,0,,,73,64
87360,note_off,,,,,240,0,2,,,,1,,,55,64
87360,note_off,,,,,0,0,2,,,,1,,,52,64
87390,note_on,,,,,30,0,2,,,,1,,,52,118
87420,note_on,,,,,30,0,2,,,,1,,,56,118
87450,note_on,,,,,30,0,2,,,,1,,,64,107
87600,note_off,,,,,150,0,2,,,,1,,,44,64
87600,note_off,,,,,0,0,1,,,,0,,,68,64
87600,note_off,,,,,0,0,2,,,,1,,,52,64
87600,note_off,,,,,0,0,1,,,,0,,,73,64
87600,note_off,,,,,0,0,2,,,,1,,,56,64
87600,note_off,,,,,240,0,1,,,,0,,,80,64
87600,note_off,,,,,0,0,2,,,,1,,,64,64
87840,note_on,,,,,240,0,2,,,,1,,,32,118
88310,note_off,,,,,470,0,2,,,,1,,,32,64
88320,note_on,,,,,0,0,1,,,,0,,,72,103
88320,note_on,,,,,0,0,1,,,,0,,,66,118
88320,note_on,,,,,720,0,1,,,,0,,,81,121
88320,note_on,,,,,0,0,1,,,,0,,,75,122
88380,note_on,,,,,70,0,2,,,,1,,,31,118
88420,set_tempo,,,,,4870,1,0,731707,,,,,,,
88440,note_on,,,,,0,0,2,,,,1,,,32,121
88440,note_off,,,,,60,0,2,,,,1,,,31,64
88500,note_on,,,,,0,0,2,,,,1,,,33,107
88500,note_off,,,,,60,0,2,,,,1,,,32,64
88560,note_on,,,,,0,0,2,,,,1,,,36,107
88560,note_off,,,,,240,0,1,,,,0,,,81,64
88560,note_off,,,,,0,0,1,,,,0,,,72,64
88560,note_off,,,,,0,0,1,,,,0,,,75,64
88560,note_off,,,,,60,0,2,,,,1,,,33,64
88560,note_off,,,,,0,0,1,,,,0,,,66,64
88610,set_tempo,,,,,190,1,0,722891,,,,,,,
88620,note_on,,,,,0,0,2,,,,1,,,37,115
88620,note_off,,,,,60,0,2,,,,1,,,36,64
88680,note_on,,,,,0,0,2,,,,1,,,39,118
88680,note_off,,,,,60,0,2,,,,1,,,37,64
88700,set_tempo,,,,,90,1,0,705882,,,,,,,
88740,note_on,,,,,0,0,2,,,,1,,,40,115
88740,note_off,,,,,60,0,2,,,,1,,,39,64
88790,set_tempo,,,,,90,1,0,697674,,,,,,,
88800,note_off,,,,,60,0,2,,,,1,,,40,64
88800,note_on,,,,,0,0,2,,,,1,,,42,118
88860,note_off,,,,,60,0,2,,,,1,,,42,64
88860,note_on,,,,,0,0,2,,,,1,,,44,118
88890,set_tempo,,,,,100,1,0,689655,,,,,,,
88920,note_off,,,,,60,0,2,,,,1,,,44,64
88920,note_on,,,,,0,0,2,,,,1,,,47,107
88970,set_tempo,,,,,80,1,0,681818,,,,,,,
88980,note_on,,,,,0,0,2,,,,1,,,45,103
88980,note_off,,,,,60,0,2,,,,1,,,47,64
89040,note_on,,,,,0,0,2,,,,1,,,44,118
89040,note_off,,,,,60,0,2,,,,1,,,45,64
89070,set_tempo,,,,,100,1,0,674157,,,,,,,
89100,note_off,,,,,60,0,2,,,,1,,,44,64
89100,note_on,,,,,0,0,2,,,,1,,,43,103
89160,note_off,,,,,60,0,2,,,,1,,,43,64
89160,note_on,,,,,0,0,2,,,,1,,,44,118
89220,note_on,,,,,0,0,2,,,,1,,,45,93
89220,note_off,,,,,60,0,2,,,,1,,,44,64
89280,note_on,,,,,0,0,2,,,,1,,,48,107
89280,set_tempo,,,,,210,1,0,666666,,,,,,,
89280,note_off,,,,,60,0,2,,,,1,,,45,64
89340,note_off,,,,,60,0,2,,,,1,,,48,64
89340,note_on,,,,,0,0,2,,,,1,,,49,115
89400,note_off,,,,,60,0,2,,,,1,,,49,64
89400,note_on,,,,,0,0,2,,,,1,,,51,118
89460,note_on,,,,,0,0,2,,,,1,,,52,97
89460,note_off,,,,,60,0,2,,,,1,,,51,64
89520,note_off,,,,,60,0,2,,,,1,,,52,64
89520,note_on,,,,,0,0,2,,,,1,,,54,103
89580,note_on,,,,,0,0,2,,,,1,,,55,103
89580,note_off,,,,,60,0,2,,,,1,,,54,64
89640,note_on,,,,,0,0,2,,,,1,,,56,115
89640,note_off,,,,,60,0,2,,,,1,,,55,64
89700,note_off,,,,,60,0,2,,,,1,,,56,64
89700,note_on,,,,,0,0,2,,,,1,,,59,103
89760,note_on,,,,,0,0,2,,,,1,,,57,107
89760,note_off,,,,,60,0,2,,,,1,,,59,64
89820,note_on,,,,,0,0,2,,,,1,,,56,97
89820,note_off,,,,,60,0,2,,,,1,,,57,64
89880,note_off,,,,,60,0,2,,,,1,,,56,64
89880,note_on,,,,,0,0,2,,,,1,,,57,91
89940,note_off,,,,,60,0,2,,,,1,,,57,64
89940,note_on,,,,,0,0,2,,,,1,,,60,87
90000,note_on,,,,,0,0,2,,,,1,,,61,118
90000,note_off,,,,,60,0,2,,,,1,,,60,64
90060,note_on,,,,,0,0,2,,,,1,,,63,115
90060,note_off,,,,,60,0,2,,,,1,,,61,64
90120,note_on,,,,,0,0,2,,,,1,,,64,107
90120,note_off,,,,,60,0,2,,,,1,,,63,64
90180,note_off,,,,,60,0,2,,,,1,,,64,64
90180,note_on,,,,,0,0,2,,,,1,,,66,118
90240,note_on,,,,,0,0,2,,,,1,,,67,107
90240,note_off,,,,,60,0,2,,,,1,,,66,64
90270,set_tempo,,,,,990,1,0,674157,,,,,,,
90300,note_on,,,,,0,0,2,,,,1,,,68,118
90300,note_off,,,,,60,0,2,,,,1,,,67,64
90360,note_off,,,,,60,0,2,,,,1,,,68,64
90360,note_on,,,,,0,0,2,,,,1,,,71,107
90420,note_off,,,,,60,0,2,,,,1,,,71,64
90420,note_on,,,,,0,0,2,,,,1,,,69,115
90480,note_on,,,,,0,0,2,,,,1,,,68,103
90480,note_off,,,,,60,0,2,,,,1,,,69,64
90540,note_off,,,,,60,0,2,,,,1,,,68,64
90540,note_on,,,,,0,0,2,,,,1,,,69,97
90580,set_tempo,,,,,310,1,0,681818,,,,,,,
90600,note_off,,,,,60,0,2,,,,1,,,69,64
90600,note_on,,,,,0,0,2,,,,1,,,70,118
90660,note_off,,,,,60,0,2,,,,1,,,70,64
90660,note_on,,,,,0,0,2,,,,1,,,73,121
90720,note_on,,,,,0,0,2,,,,1,,,75,115
90720,note_off,,,,,60,0,2,,,,1,,,73,64
90780,note_off,,,,,60,0,2,,,,1,,,75,64
90780,note_on,,,,,0,0,2,,,,1,,,76,121
90840,note_off,,,,,60,0,2,,,,1,,,76,64
90840,note_on,,,,,0,0,2,,,,1,,,78,118
90900,note_off,,,,,60,0,2,,,,1,,,78,64
90900,note_on,,,,,0,0,2,,,,1,,,79,118
90960,note_off,,,,,60,0,2,,,,1,,,79,64
90960,note_on,,,,,0,0,2,,,,1,,,80,122
91020,note_off,,,,,60,0,2,,,,1,,,80,64
91020,note_on,,,,,0,0,2,,,,1,,,83,118
91080,note_on,,,,,0,0,2,,,,1,,,81,118
91080,note_off,,,,,60,0,2,,,,1,,,83,64
91140,note_on,,,,,0,0,2,,,,1,,,80,115
91140,note_off,,,,,60,0,2,,,,1,,,81,64
91200,note_off,,,,,60,0,2,,,,1,,,80,64
91200,note_on,,,,,0,0,2,,,,1,,,81,115
91210,set_tempo,,,,,630,1,0,689655,,,,,,,
91260,note_off,,,,,60,0,2,,,,1,,,81,64
91260,note_on,,,,,0,0,2,,,,1,,,80,97
91320,note_on,,,,,0,0,2,,,,1,,,81,107
91320,note_off,,,,,60,0,2,,,,1,,,80,64
91380,note_off,,,,,60,0,2,,,,1,,,81,64
91380,note_on,,,,,0,0,2,,,,1,,,80,107
91440,note_on,,,,,0,0,2,,,,1,,,81,107
91440,note_off,,,,,60,0,2,,,,1,,,80,64
91500,note_off,,,,,60,0,2,,,,1,,,81,64
91500,note_on,,,,,0,0,2,,,,1,,,80,91
91530,set_tempo,,,,,320,1,0,697674,,,,,,,
91560,note_off,,,,,60,0,2,,,,1,,,80,64
91560,note_on,,,,,0,0,2,,,,1,,,81,107
91620,note_off,,,,,60,0,2,,,,1,,,81,64
91620,note_on,,,,,0,0,2,,,,1,,,80,103
91660,set_tempo,,,,,130,1,0,705882,,,,,,,
91680,note_off,,,,,60,0,2,,,,1,,,80,64
91680,note_on,,,,,0,0,2,,,,1,,,81,103
91800,set_tempo,,,,,140,1,0,722891,,,,,,,
91800,note_on,,,,,0,0,2,,,,1,,,80,107
91800,note_off,,,,,120,0,2,,,,1,,,81,64
91920,note_on,,,,,0,0,2,,,,1,,,79,103
91920,note_off,,,,,120,0,2,,,,1,,,80,64
91980,set_tempo,,,,,180,1,0,731707,,,,,,,
92040,note_on,,,,,0,0,2,,,,1,,,80,107
92040,note_off,,,,,120,0,2,,,,1,,,79,64
92160,note_on,,,,,0,0,2,,,,1,,,81,115
92160,note_off,,,,,120,0,2,,,,1,,,80,64
92280,note_off,,,,,120,0,2,,,,1,,,81,64
92280,note_on,,,,,0,0,2,,,,1,,,80,107
92370,set_tempo,,,,,390,1,0,750000,,,,,,,
92400,note_off,,,,,120,0,2,,,,1,,,80,64
92400,note_on,,,,,0,0,2,,,,1,,,79,107
92520,note_off,,,,,120,0,2,,,,1,,,79,64
92520,note_on,,,,,0,0,2,,,,1,,,80,107
92640,note_off,,,,,120,0,2,,,,1,,,80,64
92640,note_on,,,,,0,0,2,,,,1,,,81,103
92760,note_off,,,,,120,0,2,,,,1,,,81,64
92760,note_on,,,,,0,0,2,,,,1,,,82,91
92880,note_off,,,,,120,0,2,,,,1,,,82,64
92880,note_on,,,,,0,0,2,,,,1,,,83,91
93000,note_on,,,,,0,0,2,,,,1,,,84,91
93000,note_off,,,,,120,0,2,,,,1,,,83,64
93110,note_off,,,,,110,0,2,,,,1,,,84,64
93120,note_on,,,,,10,0,2,,,,1,,,45,87
93120,note_on,,,,,4560,0,1,,,,0,,,85,92
93240,note_off,,,,,120,0,1,,,,0,,,85,64
93360,note_off,,,,,240,0,2,,,,1,,,45,64
93480,note_on,,,,,0,0,2,,,,1,,,64,97
93480,note_on,,,,,120,0,2,,,,1,,,69,93
93480,note_on,,,,,0,0,2,,,,1,,,61,73
93600,note_on,,,,,0,0,2,,,,1,,,73,71
93600,note_off,,,,,120,0,2,,,,1,,,69,64
93600,note_on,,,,,0,0,2,,,,1,,,64,77
93600,note_off,,,,,0,0,2,,,,1,,,64,64
93600,note_off,,,,,0,0,2,,,,1,,,61,64
93600,note_on,,,,,360,0,1,,,,0,,,76,100
93600,note_on,,,,,0,0,2,,,,1,,,69,93
93630,note_on,,,,,30,0,1,,,,0,,,81,106
93660,note_on,,,,,30,0,1,,,,0,,,85,106
94080,note_off,,,,,0,0,2,,,,1,,,64,64
94080,note_off,,,,,0,0,2,,,,1,,,69,64
94080,note_on,,,,,0,0,2,,,,1,,,49,103
94080,note_off,,,,,420,0,1,,,,0,,,76,64
94080,note_off,,,,,480,0,2,,,,1,,,73,64
94139,note_off,,,,,59,0,1,,,,0,,,85,64
94200,note_on,,,,,61,0,1,,,,0,,,84,100
94200,note_on,,,,,0,0,1,,,,0,,,80,76
94320,note_on,,,,,0,0,1,,,,0,,,85,84
94320,note_on,,,,,0,0,1,,,,0,,,81,92
94320,note_off,,,,,0,0,1,,,,0,,,80,64
94320,note_off,,,,,240,0,2,,,,1,,,49,64
94320,note_off,,,,,120,0,1,,,,0,,,84,64
94349,note_off,,,,,29,0,1,,,,0,,,81,64
94440,note_off,,,,,91,0,1,,,,0,,,85,64
94440,note_on,,,,,0,0,2,,,,1,,,64,91
94440,note_on,,,,,0,0,2,,,,1,,,61,61
94440,note_on,,,,,0,0,1,,,,0,,,83,88
94440,note_off,,,,,0,0,1,,,,0,,,81,64
94440,note_on,,,,,120,0,2,,,,1,,,69,69
94440,note_on,,,,,0,0,1,,,,0,,,87,88
94560,note_off,,,,,0,0,2,,,,1,,,61,64
94560,note_off,,,,,0,0,2,,,,1,,,64,64
94560,note_off,,,,,0,0,1,,,,0,,,83,64
94560,note_off,,,,,120,0,1,,,,0,,,87,64
94560,note_on,,,,,0,0,1,,,,0,,,88,96
94560,note_on,,,,,0,0,2,,,,1,,,73,87
94560,note_on,,,,,0,0,1,,,,0,,,85,86
94560,note_on,,,,,0,0,2,,,,1,,,69,93
94560,note_on,,,,,0,0,2,,,,1,,,64,83
94560,note_off,,,,,120,0,2,,,,1,,,69,64
94680,note_on,,,,,0,0,1,,,,0,,,80,62
94680,note_on,,,,,0,0,1,,,,0,,,85,78
94680,note_off,,,,,0,0,1,,,,0,,,88,64
94680,note_off,,,,,120,0,1,,,,0,,,85,64
94800,note_on,,,,,0,0,1,,,,0,,,83,84
94800,note_on,,,,,0,0,1,,,,0,,,87,84
94800,note_off,,,,,0,0,1,,,,0,,,85,64
94800,note_off,,,,,120,0,1,,,,0,,,80,64
94920,note_on,,,,,0,0,1,,,,0,,,85,78
94920,note_off,,,,,120,0,1,,,,0,,,83,64
94920,note_on,,,,,0,0,1,,,,0,,,81,88
94920,note_off,,,,,0,0,1,,,,0,,,87,64
95040,note_off,,,,,120,0,1,,,,0,,,81,64
95040,note_off,,,,,0,0,1,,,,0,,,85,64
95040,note_off,,,,,480,0,2,,,,1,,,69,64
95040,note_on,,,,,0,0,2,,,,1,,,40,97
95040,note_on,,,,,0,0,2,,,,1,,,73,51
95040,note_off,,,,,0,0,2,,,,1,,,64,64
95040,note_on,,,,,0,0,1,,,,0,,,80,82
95040,note_on,,,,,0,0,1,,,,0,,,83,82
95160,note_off,,,,,120,0,1,,,,0,,,83,64
95160,note_off,,,,,0,0,1,,,,0,,,80,64
95280,note_off,,,,,240,0,2,,,,1,,,40,64
95400,note_on,,,,,120,0,2,,,,1,,,69,63
95400,note_on,,,,,0,0,2,,,,1,,,61,49
95400,note_on,,,,,0,0,2,,,,1,,,64,87
95520,note_off,,,,,0,0,2,,,,1,,,64,64
95520,note_on,,,,,360,0,1,,,,0,,,83,84
95520,note_off,,,,,0,0,2,,,,1,,,61,64
95520,note_on,,,,,0,0,2,,,,1,,,64,77
95520,note_on,,,,,0,0,2,,,,1,,,68,77
95520,note_on,,,,,0,0,2,,,,1,,,71,93
95520,note_off,,,,,120,0,2,,,,1,,,69,64
95550,note_off,,,,,30,0,1,,,,0,,,83,64
95550,note_on,,,,,0,0,1,,,,0,,,85,92
95580,note_on,,,,,0,0,1,,,,0,,,83,96
95580,note_on,,,,,0,0,1,,,,0,,,80,82
95580,note_off,,,,,30,0,1,,,,0,,,85,64
95880,note_on,,,,,0,0,1,,,,0,,,79,78
95880,note_off,,,,,300,0,1,,,,0,,,83,64
95880,note_off,,,,,0,0,1,,,,0,,,80,64
95880,note_on,,,,,0,0,1,,,,0,,,82,88
96000,note_off,,,,,480,0,2,,,,1,,,71,64
96000,note_on,,,,,0,0,1,,,,0,,,80,86
96000,note_on,,,,,0,0,1,,,,0,,,83,86
96000,note_off,,,,,0,0,2,,,,1,,,64,64
96000,note_off,,,,,0,0,2,,,,1,,,68,64
96000,note_off,,,,,0,0,1,,,,0,,,79,64
96000,note_off,,,,,120,0,1,,,,0,,,82,64
96120,note_off,,,,,120,0,1,,,,0,,,83,64
96120,note_off,,,,,0,0,1,,,,0,,,80,64
96480,note_on,,,,,480,0,2,,,,1,,,68,97
96480,note_on,,,,,0,0,2,,,,1,,,53,79
96480,note_on,,,,,360,0,1,,,,0,,,85,88
96480,note_on,,,,,0,0,1,,,,0,,,80,86
96480,note_on,,,,,0,0,1,,,,0,,,73,66
96480,note_on,,,,,0,0,2,,,,1,,,61,87
96960,note_on,,,,,0,0,1,,,,0,,,81,80
96960,note_off,,,,,0,0,2,,,,1,,,61,64
96960,note_off,,,,,0,0,1,,,,0,,,73,64
96960,note_off,,,,,480,0,2,,,,1,,,68,64
96960,note_off,,,,,480,0,1,,,,0,,,85,64
96960,note_on,,,,,0,0,1,,,,0,,,78,88
96960,note_on,,,,,0,0,1,,,,0,,,73,78
96960,note_on,,,,,0,0,2,,,,1,,,42,87
96960,note_off,,,,,0,0,2,,,,1,,,53,64
96960,note_off,,,,,0,0,1,,,,0,,,80,64
97080,note_off,,,,,0,0,1,,,,0,,,78,64
97080,note_off,,,,,120,0,1,,,,0,,,81,64
97080,note_off,,,,,0,0,1,,,,0,,,73,64
97200,note_off,,,,,240,0,2,,,,1,,,42,64
97320,note_on,,,,,120,0,2,,,,1,,,66,87
97320,note_on,,,,,0,0,2,,,,1,,,57,75
97320,note_on,,,,,0,0,2,,,,1,,,61,83
97440,note_on,,,,,0,0,2,,,,1,,,61,77
97440,note_off,,,,,120,0,2,,,,1,,,66,64
97440,note_on,,,,,0,0,2,,,,1,,,66,73
97440,note_on,,,,,0,0,1,,,,0,,,78,88
97440,note_on,,,,,0,0,2,,,,1,,,69,75
97440,note_off,,,,,0,0,2,,,,1,,,61,64
97440,note_on,,,,,360,0,1,,,,0,,,81,82
97440,note_off,,,,,0,0,2,,,,1,,,57,64
97440,note_on,,,,,0,0,1,,,,0,,,73,74
97920,note_on,,,,,0,0,2,,,,1,,,45,79
97920,note_off,,,,,0,0,2,,,,1,,,61,64
97920,note_off,,,,,0,0,2,,,,1,,,66,64
97920,note_off,,,,,480,0,2,,,,1,,,69,64
98039,note_off,,,,,599,0,1,,,,0,,,81,64
98039,note_off,,,,,0,0,1,,,,0,,,73,64
98039,note_off,,,,,0,0,1,,,,0,,,78,64
98040,note_on,,,,,0,0,1,,,,0,,,77,82
98040,note_on,,,,,1,0,1,,,,0,,,80,78
98160,note_off,,,,,0,0,1,,,,0,,,77,64
98160,note_off,,,,,120,0,1,,,,0,,,80,64
98160,note_off,,,,,240,0,2,,,,1,,,45,64
98160,note_on,,,,,0,0,1,,,,0,,,81,96
98160,note_on,,,,,0,0,1,,,,0,,,78,78
98280,note_off,,,,,120,0,1,,,,0,,,81,64
98280,note_on,,,,,0,0,2,,,,1,,,61,71
98280,note_on,,,,,0,0,2,,,,1,,,57,67
98280,note_on,,,,,0,0,1,,,,0,,,80,84
98280,note_on,,,,,0,0,1,,,,0,,,83,88
98280,note_off,,,,,0,0,1,,,,0,,,78,64
98280,note_on,,,,,120,0,2,,,,1,,,66,75
98400,note_off,,,,,0,0,2,,,,1,,,57,64
98400,note_off,,,,,0,0,2,,,,1,,,61,64
98400,note_off,,,,,0,0,1,,,,0,,,80,64
98400,note_on,,,,,0,0,2,,,,1,,,69,77
98400,note_off,,,,,120,0,2,,,,1,,,66,64
98400,note_off,,,,,120,0,1,,,,0,,,83,64
98400,note_on,,,,,0,0,2,,,,1,,,61,73
98400,note_on,,,,,0,0,2,,,,1,,,66,77
98400,note_on,,,,,0,0,1,,,,0,,,81,86
98400,note_on,,,,,0,0,1,,,,0,,,85,82
98520,note_off,,,,,0,0,1,,,,0,,,81,64
98520,note_off,,,,,120,0,1,,,,0,,,85,64
98520,note_on,,,,,0,0,1,,,,0,,,73,88
98520,note_on,,,,,0,0,1,,,,0,,,78,80
98640,note_off,,,,,120,0,1,,,,0,,,78,64
98640,note_off,,,,,0,0,1,,,,0,,,73,64
98640,note_on,,,,,0,0,1,,,,0,,,80,82
98640,note_on,,,,,0,0,1,,,,0,,,83,88
98760,note_off,,,,,120,0,1,,,,0,,,83,64
98760,note_on,,,,,0,0,1,,,,0,,,81,96
98760,note_off,,,,,0,0,1,,,,0,,,80,64
98760,note_on,,,,,0,0,1,,,,0,,,78,82
98880,note_off,,,,,120,0,1,,,,0,,,81,64
98880,note_off,,,,,480,0,2,,,,1,,,69,64
98880,note_off,,,,,0,0,1,,,,0,,,78,64
98880,note_on,,,,,0,0,1,,,,0,,,80,86
98880,note_off,,,,,0,0,2,,,,1,,,66,64
98880,note_off,,,,,0,0,2,,,,1,,,61,64
98880,note_on,,,,,0,0,2,,,,1,,,49,87
98880,note_on,,,,,0,0,1,,,,0,,,76,74
99120,note_off,,,,,0,0,1,,,,0,,,76,64
99120,note_off,,,,,240,0,2,,,,1,,,49,64
99120,note_off,,,,,240,0,1,,,,0,,,80,64
99240,note_on,,,,,120,0,2,,,,1,,,64,71
99240,note_on,,,,,0,0,2,,,,1,,,56,63
99240,note_on,,,,,0,0,2,,,,1,,,61,77
99360,note_off,,,,,0,0,2,,,,1,,,56,64
99360,note_on,,,,,0,0,2,,,,1,,,64,91
99360,note_on,,,,,240,0,1,,,,0,,,80,96
99360,note_off,,,,,120,0,2,,,,1,,,64,64
99360,note_on,,,,,0,0,2,,,,1,,,68,67
99360,note_on,,,,,0,0,2,,,,1,,,61,71
99360,note_off,,,,,0,0,2,,,,1,,,61,64
99390,note_off,,,,,30,0,1,,,,0,,,80,64
99390,note_on,,,,,0,0,1,,,,0,,,81,102
99420,note_on,,,,,0,0,1,,,,0,,,80,88
99420,note_on,,,,,0,0,1,,,,0,,,76,70
99420,note_off,,,,,30,0,1,,,,0,,,81,64
99720,note_off,,,,,0,0,1,,,,0,,,76,64
99720,note_on,,,,,0,0,1,,,,0,,,79,96
99720,note_on,,,,,0,0,1,,,,0,,,75,62
99720,note_off,,,,,300,0,1,,,,0,,,80,64
99840,note_on,,,,,0,0,1,,,,0,,,80,84
99840,note_off,,,,,480,0,2,,,,1,,,68,64
99840,note_on,,,,,0,0,1,,,,0,,,76,82
99840,note_off,,,,,0,0,2,,,,1,,,61,64
99840,note_off,,,,,120,0,1,,,,0,,,79,64
99840,note_off,,,,,0,0,1,,,,0,,,75,64
99840,note_off,,,,,0,0,2,,,,1,,,64,64
100560,note_off,,,,,720,0,1,,,,0,,,80,64
100560,note_off,,,,,0,0,1,,,,0,,,76,64
100620,note_on,,,,,780,0,2,,,,1,,,37,91
100680,note_off,,,,,60,0,2,,,,1,,,37,64
100680,note_on,,,,,0,0,2,,,,1,,,39,77
100740,note_off,,,,,60,0,2,,,,1,,,39,64
100740,note_on,,,,,0,0,2,,,,1,,,40,87
100800,note_off,,,,,60,0,2,,,,1,,,40,64
100800,note_on,,,,,0,0,2,,,,1,,,42,77
100920,note_off,,,,,120,0,2,,,,1,,,42,64
101280,note_on,,,,,720,0,1,,,,0,,,69,68
101280,note_on,,,,,360,0,2,,,,1,,,66,67
101280,note_on,,,,,0,0,2,,,,1,,,57,93
101280,note_on,,,,,0,0,2,,,,1,,,62,83
101280,note_on,,,,,0,0,2,,,,1,,,54,55
101310,note_on,,,,,0,0,1,,,,0,,,74,88
101310,note_off,,,,,30,0,1,,,,0,,,69,64
101340,note_on,,,,,0,0,1,,,,0,,,80,88
101340,note_off,,,,,30,0,1,,,,0,,,74,64
101370,note_off,,,,,30,0,1,,,,0,,,80,64
101370,note_on,,,,,0,0,1,,,,0,,,69,62
101370,note_on,,,,,0,0,1,,,,0,,,78,72
101370,note_on,,,,,0,0,1,,,,0,,,74,76
101640,note_off,,,,,0,0,1,,,,0,,,78,64
101640,note_on,,,,,0,0,1,,,,0,,,77,82
101640,note_on,,,,,0,0,1,,,,0,,,73,80
101640,note_off,,,,,270,0,1,,,,0,,,74,64
101760,note_off,,,,,0,0,1,,,,0,,,77,64
101760,note_off,,,,,120,0,1,,,,0,,,73,64
101760,note_on,,,,,0,0,1,,,,0,,,78,76
101760,note_on,,,,,0,0,1,,,,0,,,74,82
101969,note_off,,,,,209,0,1,,,,0,,,69,64
101999,note_off,,,,,0,0,2,,,,1,,,54,64
101999,note_off,,,,,0,0,2,,,,1,,,57,64
101999,note_off,,,,,0,0,2,,,,1,,,62,64
101999,note_off,,,,,719,0,2,,,,1,,,66,64
102000,note_off,,,,,31,0,1,,,,0,,,74,64
102000,note_off,,,,,0,0,1,,,,0,,,78,64
102540,note_on,,,,,541,0,2,,,,1,,,38,83
102600,note_off,,,,,60,0,2,,,,1,,,38,64
102600,note_on,,,,,0,0,2,,,,1,,,40,73
102660,note_off,,,,,60,0,2,,,,1,,,40,64
102660,note_on,,,,,0,0,2,,,,1,,,42,77
102720,note_on,,,,,0,0,2,,,,1,,,44,75
102720,note_off,,,,,60,0,2,,,,1,,,42,64
102840,note_off,,,,,120,0,2,,,,1,,,44,64
103200,note_on,,,,,0,0,2,,,,1,,,57,75
103200,note_on,,,,,0,0,2,,,,1,,,60,79
103200,note_on,,,,,360,0,2,,,,1,,,62,77
103200,note_on,,,,,1200,0,1,,,,0,,,66,76
103200,note_on,,,,,0,0,2,,,,1,,,54,51
103230,note_off,,,,,30,0,1,,,,0,,,66,64
103230,note_on,,,,,0,0,1,,,,0,,,69,74
103260,note_on,,,,,0,0,1,,,,0,,,76,88
103260,note_off,,,,,30,0,1,,,,0,,,69,64
103290,note_on,,,,,0,0,1,,,,0,,,66,74
103290,note_off,,,,,30,0,1,,,,0,,,76,64
103290,note_on,,,,,0,0,1,,,,0,,,69,100
103290,note_on,,,,,0,0,1,,,,0,,,74,96
103560,note_off,,,,,0,0,1,,,,0,,,74,64
103560,note_on,,,,,0,0,1,,,,0,,,73,92
103560,note_off,,,,,270,0,1,,,,0,,,66,64
103560,note_on,,,,,0,0,1,,,,0,,,65,86
103680,note_off,,,,,0,0,1,,,,0,,,73,64
103680,note_on,,,,,0,0,1,,,,0,,,74,100
103680,note_on,,,,,0,0,1,,,,0,,,66,84
103680,note_off,,,,,120,0,1,,,,0,,,65,64
103970,set_tempo,,,,,11600,1,0,769230,,,,,,,
104110,set_tempo,,,,,140,1,0,779220,,,,,,,
104159,note_off,,,,,959,0,2,,,,1,,,62,64
104159,note_off,,,,,0,0,2,,,,1,,,60,64
104159,note_off,,,,,0,0,2,,,,1,,,57,64
104159,note_off,,,,,0,0,2,,,,1,,,54,64
104220,set_tempo,,,,,110,1,0,789473,,,,,,,
104350,set_tempo,,,,,130,1,0,779220,,,,,,,
104519,note_off,,,,,0,0,1,,,,0,,,66,64
104519,note_off,,,,,839,0,1,,,,0,,,74,64
104520,note_on,,,,,1,0,1,,,,0,,,73,92
104520,note_on,,,,,0,0,1,,,,0,,,64,84
104609,note_off,,,,,89,0,1,,,,0,,,69,64
104640,note_off,,,,,0,0,1,,,,0,,,64,64
104640,note_on,,,,,481,0,2,,,,1,,,45,69
104640,set_tempo,,,,,290,1,0,769230,,,,,,,
104640,note_off,,,,,31,0,1,,,,0,,,73,64
104640,note_on,,,,,0,0,1,,,,0,,,64,86
104640,note_on,,,,,0,0,1,,,,0,,,73,100
104840,set_tempo,,,,,200,1,0,750000,,,,,,,
104880,note_off,,,,,0,0,1,,,,0,,,64,64
104880,note_off,,,,,240,0,2,,,,1,,,45,64
104880,note_off,,,,,240,0,1,,,,0,,,73,64
105120,note_on,,,,,240,0,2,,,,1,,,61,59
105120,note_on,,,,,240,0,1,,,,0,,,64,72
105120,note_on,,,,,0,0,1,,,,0,,,69,80
105120,note_on,,,,,0,0,1,,,,0,,,73,78
105120,note_on,,,,,0,0,2,,,,1,,,52,49
105120,note_on,,,,,0,0,2,,,,1,,,57,77
105600,note_off,,,,,480,0,2,,,,1,,,61,64
105600,note_off,,,,,0,0,2,,,,1,,,57,64
105600,note_off,,,,,0,0,2,,,,1,,,52,64
105600,note_on,,,,,0,0,2,,,,1,,,49,65
105719,note_off,,,,,599,0,1,,,,0,,,64,64
105719,note_off,,,,,0,0,1,,,,0,,,73,64
105719,note_off,,,,,0,0,1,,,,0,,,69,64
105720,note_on,,,,,1,0,1,,,,0,,,68,74
105720,note_on,,,,,0,0,1,,,,0,,,72,80
105840,note_off,,,,,240,0,2,,,,1,,,49,64
105840,note_on,,,,,0,0,1,,,,0,,,73,80
105840,note_on,,,,,0,0,1,,,,0,,,69,80
105840,note_off,,,,,0,0,1,,,,0,,,72,64
105840,note_off,,,,,120,0,1,,,,0,,,68,64
105960,note_on,,,,,0,0,1,,,,0,,,71,78
105960,note_on,,,,,0,0,1,,,,0,,,75,78
105960,note_off,,,,,120,0,1,,,,0,,,69,64
105960,note_off,,,,,0,0,1,,,,0,,,73,64
106080,note_off,,,,,0,0,1,,,,0,,,75,64
106080,note_on,,,,,0,0,1,,,,0,,,76,78
106080,note_on,,,,,0,0,2,,,,1,,,57,83
106080,note_off,,,,,120,0,1,,,,0,,,71,64
106080,note_on,,,,,0,0,2,,,,1,,,52,57
106080,note_on,,,,,240,0,2,,,,1,,,61,67
106080,note_on,,,,,0,0,1,,,,0,,,73,72
106200,note_off,,,,,0,0,1,,,,0,,,73,64
106200,note_off,,,,,120,0,1,,,,0,,,76,64
106200,note_on,,,,,0,0,1,,,,0,,,64,72
106200,note_on,,,,,0,0,1,,,,0,,,69,86
106320,note_on,,,,,0,0,1,,,,0,,,71,84
106320,note_on,,,,,0,0,1,,,,0,,,75,76
106320,note_off,,,,,0,0,1,,,,0,,,64,64
106320,note_off,,,,,120,0,1,,,,0,,,69,64
106440,note_off,,,,,0,0,1,,,,0,,,71,64
106440,note_on,,,,,0,0,1,,,,0,,,73,82
106440,note_on,,,,,0,0,1,,,,0,,,69,74
106440,note_off,,,,,120,0,1,,,,0,,,75,64
106560,note_on,,,,,0,0,2,,,,1,,,40,73
106560,note_off,,,,,480,0,2,,,,1,,,61,64
106560,note_on,,,,,0,0,1,,,,0,,,71,86
106560,note_off,,,,,0,0,2,,,,1,,,52,64
106560,note_off,,,,,0,0,2,,,,1,,,57,64
106560,note_off,,,,,120,0,1,,,,0,,,73,64
106560,note_on,,,,,0,0,1,,,,0,,,68,86
106560,note_off,,,,,0,0,1,,,,0,,,69,64
106680,note_off,,,,,0,0,1,,,,0,,,71,64
106680,note_off,,,,,120,0,1,,,,0,,,68,64
106800,note_off,,,,,240,0,2,,,,1,,,40,64
107040,note_on,,,,,0,0,2,,,,1,,,52,53
107040,note_on,,,,,360,0,1,,,,0,,,71,92
107040,note_on,,,,,0,0,2,,,,1,,,56,71
107040,note_on,,,,,240,0,2,,,,1,,,59,67
107070,note_on,,,,,0,0,1,,,,0,,,73,84
107070,note_off,,,,,30,0,1,,,,0,,,71,64
107100,note_off,,,,,30,0,1,,,,0,,,73,64
107100,note_on,,,,,0,0,1,,,,0,,,68,80
107100,note_on,,,,,0,0,1,,,,0,,,71,76
107400,note_on,,,,,0,0,1,,,,0,,,67,72
107400,note_off,,,,,300,0,1,,,,0,,,68,64
107400,note_on,,,,,0,0,1,,,,0,,,70,72
107400,note_off,,,,,0,0,1,,,,0,,,71,64
107520,note_on,,,,,0,0,1,,,,0,,,71,86
107520,note_on,,,,,0,0,1,,,,0,,,68,86
107520,note_off,,,,,0,0,1,,,,0,,,70,64
107520,note_off,,,,,120,0,1,,,,0,,,67,64
107520,note_off,,,,,480,0,2,,,,1,,,59,64
107520,note_off,,,,,0,0,2,,,,1,,,56,64
107520,note_off,,,,,0,0,2,,,,1,,,52,64
107640,note_off,,,,,120,0,1,,,,0,,,68,64
107640,note_off,,,,,0,0,1,,,,0,,,71,64
108000,note_on,,,,,480,0,2,,,,1,,,41,75
108000,note_on,,,,,0,0,2,,,,1,,,49,77
108000,note_on,,,,,0,0,2,,,,1,,,56,93
108000,note_on,,,,,0,0,1,,,,0,,,68,86
108000,note_on,,,,,360,0,1,,,,0,,,61,70
108000,note_on,,,,,0,0,1,,,,0,,,73,70
108480,note_off,,,,,0,0,2,,,,1,,,56,64
108480,note_on,,,,,0,0,1,,,,0,,,69,78
108480,note_off,,,,,480,0,2,,,,1,,,41,64
108480,note_off,,,,,0,0,1,,,,0,,,73,64
108480,note_off,,,,,0,0,2,,,,1,,,49,64
108480,note_off,,,,,0,0,1,,,,0,,,68,64
108480,note_on,,,,,0,0,2,,,,1,,,42,87
108480,note_off,,,,,480,0,1,,,,0,,,61,64
108480,note_on,,,,,0,0,1,,,,0,,,66,70
108480,note_on,,,,,0,0,1,,,,0,,,61,76
108600,note_off,,,,,0,0,1,,,,0,,,69,64
108600,note_off,,,,,0,0,1,,,,0,,,66,64
108600,note_off,,,,,120,0,1,,,,0,,,61,64
108600,note_off,,,,,120,0,2,,,,1,,,42,64
108960,note_on,,,,,0,0,2,,,,1,,,54,71
108960,note_on,,,,,360,0,2,,,,1,,,57,83
108960,note_on,,,,,360,0,1,,,,0,,,61,72
108960,note_on,,,,,0,0,1,,,,0,,,66,78
108960,note_on,,,,,0,0,2,,,,1,,,49,73
108960,note_on,,,,,0,0,1,,,,0,,,69,86
109440,note_off,,,,,0,0,2,,,,1,,,49,64
109440,note_off,,,,,0,0,2,,,,1,,,54,64
109440,note_on,,,,,0,0,2,,,,1,,,45,71
109440,note_off,,,,,480,0,2,,,,1,,,57,64
109559,note_off,,,,,0,0,1,,,,0,,,66,64
109559,note_off,,,,,0,0,1,,,,0,,,69,64
109559,note_off,,,,,599,0,1,,,,0,,,61,64
109560,note_on,,,,,1,0,1,,,,0,,,65,78
109560,note_on,,,,,0,0,1,,,,0,,,68,84
109680,note_off,,,,,240,0,2,,,,1,,,45,64
109680,note_off,,,,,120,0,1,,,,0,,,65,64
109680,note_off,,,,,0,0,1,,,,0,,,68,64
109680,note_on,,,,,0,0,1,,,,0,,,66,58
109680,note_on,,,,,0,0,1,,,,0,,,69,84
109800,note_on,,,,,0,0,1,,,,0,,,68,74
109800,note_on,,,,,0,0,1,,,,0,,,71,80
109800,note_off,,,,,0,0,1,,,,0,,,69,64
109800,note_off,,,,,120,0,1,,,,0,,,66,64
109920,note_off,,,,,0,0,1,,,,0,,,71,64
109920,note_on,,,,,240,0,2,,,,1,,,57,77
109920,note_on,,,,,0,0,1,,,,0,,,66,70
109920,note_on,,,,,0,0,1,,,,0,,,69,80
109920,note_on,,,,,0,0,2,,,,1,,,49,69
109920,note_on,,,,,0,0,2,,,,1,,,54,75
109920,note_off,,,,,120,0,1,,,,0,,,68,64
109950,note_on,,,,,0,0,1,,,,0,,,68,80
109950,note_off,,,,,0,0,1,,,,0,,,69,64
109950,note_on,,,,,0,0,1,,,,0,,,71,84
109950,note_off,,,,,30,0,1,,,,0,,,66,64
109980,note_off,,,,,0,0,1,,,,0,,,71,64
109980,note_on,,,,,0,0,1,,,,0,,,69,76
109980,note_on,,,,,0,0,1,,,,0,,,73,78
109980,note_off,,,,,30,0,1,,,,0,,,68,64
110040,note_on,,,,,0,0,1,,,,0,,,66,82
110040,note_off,,,,,0,0,1,,,,0,,,73,64
110040,note_on,,,,,0,0,1,,,,0,,,61,86
110040,note_off,,,,,60,0,1,,,,0,,,69,64
110160,note_off,,,,,120,0,1,,,,0,,,61,64
110160,note_off,,,,,0,0,1,,,,0,,,66,64
110160,note_on,,,,,0,0,1,,,,0,,,71,66
110160,note_on,,,,,0,0,1,,,,0,,,68,80
110280,note_on,,,,,0,0,1,,,,0,,,66,84
110280,note_off,,,,,120,0,1,,,,0,,,68,64
110280,note_on,,,,,0,0,1,,,,0,,,69,92
110280,note_off,,,,,0,0,1,,,,0,,,71,64
110400,note_off,,,,,480,0,2,,,,1,,,57,64
110400,note_off,,,,,0,0,1,,,,0,,,69,64
110400,note_on,,,,,0,0,1,,,,0,,,64,82
110400,note_off,,,,,0,0,2,,,,1,,,49,64
110400,note_off,,,,,0,0,2,,,,1,,,54,64
110400,note_on,,,,,0,0,2,,,,1,,,37,79
110400,note_off,,,,,120,0,1,,,,0,,,66,64
110400,note_on,,,,,0,0,1,,,,0,,,68,76
110520,note_off,,,,,120,0,1,,,,0,,,64,64
110520,note_off,,,,,0,0,1,,,,0,,,68,64
110640,note_off,,,,,240,0,2,,,,1,,,37,64
110880,note_on,,,,,0,0,2,,,,1,,,52,77
110880,note_on,,,,,360,0,1,,,,0,,,68,82
110880,note_on,,,,,240,0,2,,,,1,,,56,83
110880,note_on,,,,,0,0,2,,,,1,,,49,61
110910,note_on,,,,,0,0,1,,,,0,,,69,82
110910,note_off,,,,,30,0,1,,,,0,,,68,64
110940,note_on,,,,,0,0,1,,,,0,,,68,82
110940,note_off,,,,,30,0,1,,,,0,,,69,64
110940,note_on,,,,,0,0,1,,,,0,,,64,76
111240,note_on,,,,,0,0,1,,,,0,,,63,88
111240,note_off,,,,,300,0,1,,,,0,,,64,64
111240,note_on,,,,,0,0,1,,,,0,,,67,86
111240,note_on,,,,,0,0,1,,,,0,,,68,10
111360,note_off,,,,,120,0,1,,,,0,,,67,64
111360,note_off,,,,,0,0,2,,,,1,,,49,64
111360,note_on,,,,,0,0,1,,,,0,,,68,84
111360,note_off,,,,,0,0,1,,,,0,,,63,64
111360,note_off,,,,,0,0,2,,,,1,,,52,64
111360,note_off,,,,,480,0,2,,,,1,,,56,64
111360,note_on,,,,,0,0,1,,,,0,,,64,74
112079,note_off,,,,,719,0,1,,,,0,,,68,64
112080,note_off,,,,,1,0,1,,,,0,,,64,64
112140,note_on,,,,,780,0,2,,,,1,,,37,75
112200,note_on,,,,,0,0,2,,,,1,,,39,79
112200,note_off,,,,,60,0,2,,,,1,,,37,64
112260,note_off,,,,,60,0,2,,,,1,,,39,64
112260,note_on,,,,,0,0,2,,,,1,,,40,83
112320,note_off,,,,,60,0,2,,,,1,,,40,64
112320,note_on,,,,,0,0,2,,,,1,,,30,83
112440,note_off,,,,,120,0,2,,,,1,,,30,64
112800,note_on,,,,,0,0,2,,,,1,,,50,73
112800,note_on,,,,,0,0,2,,,,1,,,54,27
112800,note_on,,,,,360,0,2,,,,1,,,42,69
112800,note_on,,,,,720,0,1,,,,0,,,57,70
112800,note_on,,,,,0,0,2,,,,1,,,45,73
112830,note_on,,,,,0,0,1,,,,0,,,62,92
112830,note_off,,,,,30,0,1,,,,0,,,57,64
112860,note_off,,,,,30,0,1,,,,0,,,62,64
112860,note_on,,,,,0,0,1,,,,0,,,68,84
112890,note_off,,,,,30,0,1,,,,0,,,68,64
112890,note_on,,,,,0,0,1,,,,0,,,62,86
112890,note_on,,,,,0,0,1,,,,0,,,57,72
112890,note_on,,,,,0,0,1,,,,0,,,66,82
113160,note_off,,,,,0,0,1,,,,0,,,66,64
113160,note_on,,,,,0,0,1,,,,0,,,61,82
113160,note_off,,,,,270,0,1,,,,0,,,62,64
113160,note_on,,,,,0,0,1,,,,0,,,65,86
113280,note_off,,,,,0,0,1,,,,0,,,65,64
113280,note_on,,,,,0,0,1,,,,0,,,66,60
113280,note_off,,,,,120,0,1,,,,0,,,57,64
113280,note_on,,,,,0,0,1,,,,0,,,57,52
113280,note_on,,,,,0,0,1,,,,0,,,62,88
113280,note_off,,,,,0,0,1,,,,0,,,61,64
113519,note_off,,,,,0,0,2,,,,1,,,50,64
113519,note_off,,,,,0,0,2,,,,1,,,54,64
113519,note_off,,,,,0,0,2,,,,1,,,45,64
113519,note_off,,,,,719,0,2,,,,1,,,42,64
113520,note_off,,,,,0,0,1,,,,0,,,62,64
113520,note_off,,,,,0,0,1,,,,0,,,57,64
113520,note_off,,,,,240,0,1,,,,0,,,66,64
114060,note_on,,,,,541,0,2,,,,1,,,38,73
114120,note_on,,,,,0,0,2,,,,1,,,40,73
114120,note_off,,,,,60,0,2,,,,1,,,38,64
114180,note_on,,,,,0,0,2,,,,1,,,42,69
114180,note_off,,,,,60,0,2,,,,1,,,40,64
114240,note_off,,,,,60,0,2,,,,1,,,42,64
114240,note_on,,,,,0,0,2,,,,1,,,32,77
114360,note_off,,,,,120,0,2,,,,1,,,32,64
114720,note_on,,,,,0,0,2,,,,1,,,45,73
114720,note_on,,,,,0,0,2,,,,1,,,48,75
114720,note_on,,,,,360,0,2,,,,1,,,42,77
114720,note_on,,,,,0,0,2,,,,1,,,50,61
114720,note_on,,,,,1200,0,1,,,,0,,,57,64
114720,note_on,,,,,0,0,1,,,,0,,,54,86
115080,note_on,,,,,0,0,1,,,,0,,,53,78
115080,note_off,,,,,0,0,1,,,,0,,,54,64
115080,note_off,,,,,360,0,1,,,,0,,,57,64
115080,note_on,,,,,0,0,1,,,,0,,,56,88
115200,note_off,,,,,120,0,1,,,,0,,,56,64
115200,note_on,,,,,0,0,1,,,,0,,,57,86
115200,note_on,,,,,0,0,1,,,,0,,,54,82
115200,note_off,,,,,0,0,1,,,,0,,,53,64
116159,note_off,,,,,0,0,2,,,,1,,,50,64
116159,note_off,,,,,1439,0,2,,,,1,,,42,64
116159,note_off,,,,,0,0,2,,,,1,,,48,64
116159,note_off,,,,,0,0,2,,,,1,,,45,64
116639,note_off,,,,,0,0,1,,,,0,,,54,64
116639,note_off,,,,,1439,0,1,,,,0,,,57,64
116640,note_on,,,,,0,0,1,,,,0,,,48,92
116640,note_on,,,,,0,0,1,,,,0,,,50,76
116640,note_on,,,,,0,0,1,,,,0,,,54,80
116640,note_on,,,,,1,0,1,,,,0,,,56,68
116940,note_on,,,,,781,0,2,,,,1,,,32,75
117000,note_on,,,,,0,0,2,,,,1,,,33,75
117000,note_off,,,,,60,0,2,,,,1,,,32,64
117060,note_on,,,,,0,0,2,,,,1,,,36,77
117060,note_off,,,,,60,0,2,,,,1,,,33,64
117120,note_off,,,,,60,0,2,,,,1,,,36,64
117120,note_off,,,,,0,0,1,,,,0,,,50,64
117120,note_off,,,,,480,0,1,,,,0,,,56,64
117120,note_off,,,,,0,0,1,,,,0,,,48,64
117120,note_on,,,,,0,0,2,,,,1,,,37,83
117120,note_off,,,,,0,0,1,,,,0,,,54,64
117580,set_tempo,,,,,12740,1,0,769230,,,,,,,
117600,note_on,,,,,480,0,1,,,,0,,,56,74
117600,note_on,,,,,0,0,1,,,,0,,,53,78
117600,note_on,,,,,0,0,1,,,,0,,,49,80
118080,note_off,,,,,960,0,2,,,,1,,,37,64
118080,note_on,,,,,0,0,2,,,,1,,,37,87
118080,note_off,,,,,480,0,1,,,,0,,,56,64
118080,note_off,,,,,0,0,1,,,,0,,,53,64
118080,note_off,,,,,0,0,1,,,,0,,,49,64
118140,note_on,,,,,0,0,2,,,,1,,,35,83
118140,note_off,,,,,60,0,2,,,,1,,,37,64
118200,note_off,,,,,60,0,2,,,,1,,,35,64
118200,note_on,,,,,0,0,2,,,,1,,,37,83
118260,note_off,,,,,60,0,2,,,,1,,,37,64
118260,note_on,,,,,0,0,2,,,,1,,,35,79
118330,set_tempo,,,,,750,1,0,779220,,,,,,,
118560,note_on,,,,,0,0,1,,,,0,,,50,86
118560,note_on,,,,,480,0,1,,,,0,,,56,56
118560,note_on,,,,,0,0,1,,,,0,,,54,92
118800,note_on,,,,,0,0,2,,,,1,,,37,77
118800,note_off,,,,,540,0,2,,,,1,,,35,64
118860,note_off,,,,,60,0,2,,,,1,,,37,64
118860,note_on,,,,,0,0,2,,,,1,,,40,83
118920,note_off,,,,,60,0,2,,,,1,,,40,64
118920,note_on,,,,,0,0,2,,,,1,,,38,79
118980,note_off,,,,,60,0,2,,,,1,,,38,64
118980,note_on,,,,,0,0,2,,,,1,,,37,87
119040,note_off,,,,,0,0,1,,,,0,,,54,64
119040,note_off,,,,,0,0,1,,,,0,,,50,64
119040,note_off,,,,,480,0,1,,,,0,,,56,64
119090,set_tempo,,,,,760,1,0,789473,,,,,,,
119520,note_on,,,,,0,0,1,,,,0,,,49,82
119520,note_on,,,,,0,0,1,,,,0,,,53,96
119520,note_on,,,,,480,0,1,,,,0,,,56,72
120000,note_off,,,,,0,0,1,,,,0,,,53,64
120000,note_off,,,,,0,0,1,,,,0,,,49,64
120000,note_on,,,,,0,0,2,,,,1,,,37,69
120000,note_off,,,,,1020,0,2,,,,1,,,37,64
120000,note_off,,,,,480,0,1,,,,0,,,56,64
120060,note_on,,,,,0,0,2,,,,1,,,35,73
120060,note_off,,,,,60,0,2,,,,1,,,37,64
120120,note_on,,,,,0,0,2,,,,1,,,37,75
120120,note_off,,,,,60,0,2,,,,1,,,35,64
120180,note_off,,,,,60,0,2,,,,1,,,37,64
120180,note_on,,,,,0,0,2,,,,1,,,35,83
120480,note_on,,,,,0,0,1,,,,0,,,50,82
120480,note_on,,,,,480,0,1,,,,0,,,56,48
120480,note_on,,,,,0,0,1,,,,0,,,54,74
120560,set_tempo,,,,,1470,1,0,800000,,,,,,,
120660,note_off,,,,,480,0,2,,,,1,,,35,64
120660,note_on,,,,,0,0,2,,,,1,,,33,73
120720,note_off,,,,,60,0,2,,,,1,,,33,64
120720,note_on,,,,,0,0,2,,,,1,,,32,79
120780,note_on,,,,,0,0,2,,,,1,,,35,73
120780,note_off,,,,,60,0,2,,,,1,,,32,64
120840,note_on,,,,,0,0,2,,,,1,,,33,73
120840,note_off,,,,,60,0,2,,,,1,,,35,64
120900,note_off,,,,,60,0,2,,,,1,,,33,64
120900,note_on,,,,,0,0,2,,,,1,,,32,71
120960,note_off,,,,,480,0,1,,,,0,,,56,64
120960,note_on,,,,,0,0,2,,,,1,,,32,87
120960,note_off,,,,,0,0,1,,,,0,,,54,64
120960,note_off,,,,,60,0,2,,,,1,,,32,64
120960,note_off,,,,,0,0,1,,,,0,,,50,64
121440,note_on,,,,,0,0,1,,,,0,,,53,84
121440,note_on,,,,,0,0,1,,,,0,,,49,36
121440,note_on,,,,,480,0,1,,,,0,,,56,46
121920,note_off,,,,,0,0,1,,,,0,,,49,64
121920,note_off,,,,,480,0,1,,,,0,,,56,64
121920,note_on,,,,,0,0,2,,,,1,,,32,79
121920,note_off,,,,,960,0,2,,,,1,,,32,64
121920,note_off,,,,,0,0,1,,,,0,,,53,64
122020,set_tempo,,,,,1460,1,0,821917,,,,,,,
122160,set_tempo,,,,,140,1,0,833333,,,,,,,
122400,note_on,,,,,480,0,1,,,,0,,,56,48
122400,note_on,,,,,0,0,1,,,,0,,,54,86
122400,note_on,,,,,0,0,1,,,,0,,,51,82
122400,note_on,,,,,0,0,1,,,,0,,,48,86
122610,set_tempo,,,,,450,1,0,845070,,,,,,,
122860,set_tempo,,,,,250,1,0,869565,,,,,,,
122880,note_off,,,,,0,0,1,,,,0,,,48,64
122880,note_on,,,,,0,0,1,,,,0,,,44,75
122880,note_on,,,,,0,0,1,,,,0,,,53,91
122880,note_off,,,,,960,0,2,,,,1,,,32,64
122880,note_on,,,,,0,0,2,,,,1,,,37,77
122880,note_off,,,,,480,0,1,,,,0,,,56,64
122880,note_on,,,,,0,0,1,,,,0,,,56,11
122880,note_off,,,,,0,0,1,,,,0,,,54,64
122880,note_off,,,,,0,0,1,,,,0,,,51,64
122880,note_on,,,,,0,0,2,,,,1,,,25,97
122880,note_on,,,,,0,0,1,,,,0,,,49,77
124319,note_off,,,,,1439,0,2,,,,1,,,25,64
124319,note_off,,,,,0,0,1,,,,0,,,53,64
124319,note_off,,,,,0,0,1,,,,0,,,49,64
124319,note_off,,,,,0,0,2,,,,1,,,37,64
124319,note_off,,,,,0,0,1,,,,0,,,44,64
124319,note_off,,,,,1439,0,1,,,,0,,,56,64
124739,note_off,,,,,420,0,1,,,,0,,,68,64
124799,note_off,,,,,0,0,2,,,,1,,,73,64
124799,note_off,,,,,480,0,2,,,,1,,,73,64
124799,note_off,,,,,60,0,1,,,,0,,,68,64
124800,note_on,,,,,71530,0,3,,,,2,,,80,91
124800,set_tempo,,,,,1940,1,0,413793,,,,,,,
124800,note_on,,,,,1,0,1,,,,0,,,73,69
124830,note_on,,,,,0,0,1,,,,0,,,80,83
124830,note_off,,,,,30,0,1,,,,0,,,73,64
124860,note_off,,,,,30,0,1,,,,0,,,80,64
124860,note_on,,,,,0,0,1,,,,0,,,85,83
125160,note_off,,,,,360,0,3,,,,2,,,80,64
125160,note_on,,,,,0,0,3,,,,2,,,73,77
125280,note_off,,,,,120,0,3,,,,2,,,73,64
125280,note_on,,,,,0,0,3,,,,2,,,80,83
125640,note_off,,,,,360,0,3,,,,2,,,80,64
125640,note_on,,,,,0,0,3,,,,2,,,81,91
125699,note_off,,,,,839,0,1,,,,0,,,85,64
125760,note_off,,,,,120,0,3,,,,2,,,81,64
125760,note_on,,,,,61,0,1,,,,0,,,73,59
125760,note_on,,,,,0,0,3,,,,2,,,80,91
125790,note_off,,,,,30,0,1,,,,0,,,73,64
125790,note_on,,,,,0,0,1,,,,0,,,80,63
125820,note_on,,,,,0,0,1,,,,0,,,85,93
125820,note_off,,,,,30,0,1,,,,0,,,80,64
126120,note_on,,,,,0,0,3,,,,2,,,83,93
126120,note_off,,,,,360,0,3,,,,2,,,80,64
126240,note_off,,,,,120,0,3,,,,2,,,83,64
126240,note_on,,,,,0,0,3,,,,2,,,81,103
126600,note_off,,,,,360,0,3,,,,2,,,81,64
126600,note_on,,,,,0,0,3,,,,2,,,80,91
126659,note_off,,,,,839,0,1,,,,0,,,85,64
126720,note_on,,,,,61,0,1,,,,0,,,73,57
126720,note_on,,,,,0,0,3,,,,2,,,78,91
126720,note_off,,,,,120,0,3,,,,2,,,80,64
126750,note_on,,,,,0,0,1,,,,0,,,78,73
126750,note_off,,,,,30,0,1,,,,0,,,73,64
126780,note_on,,,,,0,0,1,,,,0,,,85,73
126780,note_off,,,,,30,0,1,,,,0,,,78,64
126840,note_off,,,,,60,0,1,,,,0,,,85,64
127080,note_off,,,,,360,0,3,,,,2,,,78,64
127080,note_on,,,,,0,0,3,,,,2,,,73,83
127200,note_off,,,,,120,0,3,,,,2,,,73,64
127200,note_on,,,,,0,0,3,,,,2,,,78,87
127560,note_on,,,,,0,0,3,,,,2,,,80,83
127560,note_off,,,,,360,0,3,,,,2,,,78,64
127680,note_on,,,,,840,0,1,,,,0,,,73,43
127680,note_off,,,,,120,0,3,,,,2,,,80,64
127680,note_on,,,,,0,0,3,,,,2,,,81,93
127710,note_on,,,,,0,0,1,,,,0,,,81,67
127710,note_off,,,,,30,0,1,,,,0,,,73,64
127740,note_off,,,,,30,0,1,,,,0,,,81,64
127740,note_on,,,,,0,0,1,,,,0,,,85,79
128040,note_on,,,,,0,0,3,,,,2,,,85,91
128040,note_off,,,,,360,0,3,,,,2,,,81,64
128160,note_off,,,,,120,0,3,,,,2,,,85,64
128160,note_on,,,,,0,0,3,,,,2,,,83,97
128520,note_on,,,,,0,0,3,,,,2,,,81,97
128520,note_off,,,,,360,0,3,,,,2,,,83,64
128579,note_off,,,,,839,0,1,,,,0,,,85,64
128640,note_off,,,,,120,0,3,,,,2,,,81,64
128640,note_on,,,,,61,0,1,,,,0,,,73,65
128640,note_on,,,,,0,0,3,,,,2,,,80,91
128670,note_off,,,,,30,0,1,,,,0,,,73,64
128670,note_on,,,,,0,0,1,,,,0,,,80,65
128700,note_off,,,,,30,0,1,,,,0,,,80,64
128700,note_on,,,,,0,0,1,,,,0,,,85,75
129000,note_on,,,,,0,0,3,,,,2,,,73,87
129000,note_off,,,,,360,0,3,,,,2,,,80,64
129120,note_on,,,,,0,0,3,,,,2,,,80,93
129120,note_off,,,,,120,0,3,,,,2,,,73,64
129480,note_off,,,,,360,0,3,,,,2,,,80,64
129480,note_on,,,,,0,0,3,,,,2,,,81,97
129539,note_off,,,,,839,0,1,,,,0,,,85,64
129600,note_on,,,,,61,0,1,,,,0,,,73,51
129600,note_off,,,,,120,0,3,,,,2,,,81,64
129600,note_on,,,,,0,0,3,,,,2,,,80,103
129630,note_on,,,,,0,0,1,,,,0,,,80,75
129630,note_off,,,,,30,0,1,,,,0,,,73,64
129660,note_off,,,,,30,0,1,,,,0,,,80,64
129660,note_on,,,,,0,0,1,,,,0,,,85,77
129960,note_on,,,,,0,0,3,,,,2,,,83,97
129960,note_off,,,,,360,0,3,,,,2,,,80,64
130080,note_off,,,,,120,0,3,,,,2,,,83,64
130080,note_on,,,,,0,0,3,,,,2,,,81,107
130440,note_on,,,,,0,0,3,,,,2,,,80,97
130440,note_off,,,,,360,0,3,,,,2,,,81,64
130499,note_off,,,,,839,0,1,,,,0,,,85,64
130560,note_off,,,,,120,0,3,,,,2,,,80,64
130560,note_on,,,,,0,0,3,,,,2,,,78,93
130560,note_on,,,,,61,0,1,,,,0,,,73,49
130590,note_on,,,,,0,0,1,,,,0,,,78,59
130590,note_off,,,,,30,0,1,,,,0,,,73,64
130620,note_on,,,,,0,0,1,,,,0,,,85,75
130620,note_off,,,,,30,0,1,,,,0,,,78,64
130920,note_on,,,,,0,0,3,,,,2,,,73,75
130920,note_off,,,,,360,0,3,,,,2,,,78,64
131040,note_off,,,,,120,0,3,,,,2,,,73,64
131040,note_on,,,,,0,0,3,,,,2,,,78,97
131400,note_on,,,,,0,0,3,,,,2,,,80,91
131400,note_off,,,,,360,0,3,,,,2,,,78,64
131459,note_off,,,,,839,0,1,,,,0,,,85,64
131520,note_on,,,,,0,0,3,,,,2,,,78,93
131520,note_off,,,,,120,0,3,,,,2,,,80,64
131520,note_on,,,,,61,0,1,,,,0,,,73,65
131550,note_on,,,,,0,0,1,,,,0,,,78,63
131550,note_off,,,,,30,0,1,,,,0,,,73,64
131580,note_off,,,,,30,0,1,,,,0,,,78,64
131580,note_on,,,,,0,0,1,,,,0,,,85,69
131880,note_off,,,,,360,0,3,,,,2,,,78,64
131880,note_on,,,,,0,0,3,,,,2,,,73,79
132000,note_off,,,,,120,0,3,,,,2,,,73,64
132000,note_on,,,,,0,0,3,,,,2,,,81,103
132360,note_off,,,,,360,0,3,,,,2,,,81,64
132360,note_on,,,,,0,0,3,,,,2,,,73,87
132419,note_off,,,,,839,0,1,,,,0,,,85,64
132470,note_off,,,,,110,0,3,,,,2,,,73,64
132480,control_change,,,,,7681,0,2,,,,1,0,0,,
132480,control_change,,,,,61,0,1,,,,0,0,0,,
132480,control_change,,,,,10,0,3,,,,2,0,0,,
132480,note_on,,,,,0,0,1,,,,0,,,73,69
132480,note_on,,,,,0,0,3,,,,2,,,80,91
132510,note_off,,,,,30,0,1,,,,0,,,73,64
132510,note_on,,,,,0,0,1,,,,0,,,80,83
132540,note_off,,,,,30,0,1,,,,0,,,80,64
132540,note_on,,,,,0,0,1,,,,0,,,85,83
132840,note_on,,,,,0,0,3,,,,2,,,73,77
132840,note_off,,,,,360,0,3,,,,2,,,80,64
132960,note_on,,,,,0,0,3,,,,2,,,80,83
132960,note_off,,,,,120,0,3,,,,2,,,73,64
132960,note_on,,,,,65770,0,4,,,,3,,,68,79
132990,note_on,,,,,0,0,4,,,,3,,,77,63
132990,note_off,,,,,30,0,4,,,,3,,,68,64
133020,note_on,,,,,0,0,4,,,,3,,,68,77
133020,note_off,,,,,30,0,4,,,,3,,,77,64
133320,note_off,,,,,360,0,3,,,,2,,,80,64
133320,note_on,,,,,0,0,3,,,,2,,,81,91
133379,note_off,,,,,839,0,1,,,,0,,,85,64
133440,note_on,,,,,0,0,3,,,,2,,,80,91
133440,note_off,,,,,420,0,4,,,,3,,,68,64
133440,note_on,,,,,61,0,1,,,,0,,,73,59
133440,note_off,,,,,120,0,3,,,,2,,,81,64
133470,note_on,,,,,0,0,1,,,,0,,,80,63
133470,note_off,,,,,30,0,1,,,,0,,,73,64
133500,note_off,,,,,30,0,1,,,,0,,,80,64
133500,note_on,,,,,0,0,1,,,,0,,,85,93
133800,note_off,,,,,360,0,3,,,,2,,,80,64
133800,note_on,,,,,0,0,3,,,,2,,,83,93
133920,note_on,,,,,480,0,4,,,,3,,,92,67
133920,note_on,,,,,0,0,3,,,,2,,,81,103
133920,note_off,,,,,120,0,3,,,,2,,,83,64
133950,note_off,,,,,30,0,4,,,,3,,,92,64
133950,note_on,,,,,0,0,4,,,,3,,,97,69
133980,note_off,,,,,30,0,4,,,,3,,,97,64
133980,note_on,,,,,0,0,4,,,,3,,,92,77
134280,note_off,,,,,360,0,3,,,,2,,,81,64
134280,note_on,,,,,0,0,3,,,,2,,,80,91
134339,note_off,,,,,839,0,1,,,,0,,,85,64
134400,note_on,,,,,61,0,1,,,,0,,,73,57
134400,note_off,,,,,120,0,3,,,,2,,,80,64
134400,note_on,,,,,0,0,3,,,,2,,,78,91
134400,note_off,,,,,420,0,4,,,,3,,,92,64
134430,note_on,,,,,0,0,1,,,,0,,,78,73
134430,note_off,,,,,30,0,1,,,,0,,,73,64
134460,note_off,,,,,30,0,1,,,,0,,,78,64
134460,note_on,,,,,0,0,1,,,,0,,,85,73
134520,note_off,,,,,60,0,1,,,,0,,,85,64
134760,note_off,,,,,360,0,3,,,,2,,,78,64
134760,note_on,,,,,0,0,3,,,,2,,,73,83
134880,note_off,,,,,120,0,3,,,,2,,,73,64
134880,note_on,,,,,480,0,4,,,,3,,,61,57
134880,note_on,,,,,0,0,3,,,,2,,,78,87
134910,note_on,,,,,0,0,4,,,,3,,,69,69
134910,note_off,,,,,30,0,4,,,,3,,,61,64
134940,note_on,,,,,0,0,4,,,,3,,,61,71
134940,note_off,,,,,30,0,4,,,,3,,,69,64
135240,note_on,,,,,0,0,3,,,,2,,,80,83
135240,note_off,,,,,360,0,3,,,,2,,,78,64
135350,note_off,,,,,410,0,4,,,,3,,,61,64
135360,note_on,,,,,840,0,1,,,,0,,,73,43
135360,note_on,,,,,0,0,3,,,,2,,,81,93
135360,note_off,,,,,120,0,3,,,,2,,,80,64
135390,note_off,,,,,30,0,1,,,,0,,,73,64
135390,note_on,,,,,0,0,1,,,,0,,,81,67
135420,note_off,,,,,30,0,1,,,,0,,,81,64
135420,note_on,,,,,0,0,1,,,,0,,,85,79
135720,note_on,,,,,0,0,3,,,,2,,,85,91
135720,note_off,,,,,360,0,3,,,,2,,,81,64
135840,note_on,,,,,490,0,4,,,,3,,,90,69
135840,note_on,,,,,0,0,3,,,,2,,,83,97
135840,note_off,,,,,120,0,3,,,,2,,,85,64
135870,note_off,,,,,30,0,4,,,,3,,,90,64
135870,note_on,,,,,0,0,4,,,,3,,,97,79
135900,note_on,,,,,0,0,4,,,,3,,,90,69
135900,note_off,,,,,30,0,4,,,,3,,,97,64
136200,note_on,,,,,0,0,3,,,,2,,,81,97
136200,note_off,,,,,360,0,3,,,,2,,,83,64
136259,note_off,,,,,839,0,1,,,,0,,,85,64
136320,note_off,,,,,420,0,4,,,,3,,,90,64
136320,note_on,,,,,61,0,1,,,,0,,,73,65
136320,note_off,,,,,120,0,3,,,,2,,,81,64
136320,note_on,,,,,0,0,3,,,,2,,,80,91
136350,note_on,,,,,0,0,1,,,,0,,,80,65
136350,note_off,,,,,30,0,1,,,,0,,,73,64
136380,note_off,,,,,30,0,1,,,,0,,,80,64
136380,note_on,,,,,0,0,1,,,,0,,,85,75
136680,note_off,,,,,360,0,3,,,,2,,,80,64
136680,note_on,,,,,0,0,3,,,,2,,,73,87
136800,note_on,,,,,0,0,3,,,,2,,,80,93
136800,note_off,,,,,120,0,3,,,,2,,,73,64
136800,note_on,,,,,480,0,4,,,,3,,,68,79
136830,note_on,,,,,0,0,4,,,,3,,,77,63
136830,note_off,,,,,30,0,4,,,,3,,,68,64
136860,note_on,,,,,0,0,4,,,,3,,,68,77
136860,note_off,,,,,30,0,4,,,,3,,,77,64
137160,note_off,,,,,360,0,3,,,,2,,,80,64
137160,note_on,,,,,0,0,3,,,,2,,,81,97
137219,note_off,,,,,839,0,1,,,,0,,,85,64
137280,note_on,,,,,61,0,1,,,,0,,,73,51
137280,note_on,,,,,0,0,3,,,,2,,,80,103
137280,note_off,,,,,420,0,4,,,,3,,,68,64
137280,note_off,,,,,120,0,3,,,,2,,,81,64
137310,note_off,,,,,30,0,1,,,,0,,,73,64
137310,note_on,,,,,0,0,1,,,,0,,,80,75
137340,note_off,,,,,30,0,1,,,,0,,,80,64
137340,note_on,,,,,0,0,1,,,,0,,,85,77
137640,note_on,,,,,0,0,3,,,,2,,,83,97
137640,note_off,,,,,360,0,3,,,,2,,,80,64
137760,note_on,,,,,0,0,3,,,,2,,,81,107
137760,note_on,,,,,480,0,4,,,,3,,,92,67
137760,note_off,,,,,120,0,3,,,,2,,,83,64
137790,note_off,,,,,30,0,4,,,,3,,,92,64
137790,note_on,,,,,0,0,4,,,,3,,,97,69
137820,note_off,,,,,30,0,4,,,,3,,,97,64
137820,note_on,,,,,0,0,4,,,,3,,,92,77
138120,note_off,,,,,360,0,3,,,,2,,,81,64
138120,note_on,,,,,0,0,3,,,,2,,,80,97
138179,note_off,,,,,839,0,1,,,,0,,,85,64
138240,note_on,,,,,0,0,3,,,,2,,,78,93
138240,note_off,,,,,420,0,4,,,,3,,,92,64
138240,note_off,,,,,120,0,3,,,,2,,,80,64
138240,note_on,,,,,61,0,1,,,,0,,,73,49
138270,note_on,,,,,0,0,1,,,,0,,,78,59
138270,note_off,,,,,30,0,1,,,,0,,,73,64
138300,note_off,,,,,30,0,1,,,,0,,,78,64
138300,note_on,,,,,0,0,1,,,,0,,,85,75
138600,note_off,,,,,360,0,3,,,,2,,,78,64
138600,note_on,,,,,0,0,3,,,,2,,,73,75
138720,note_on,,,,,0,0,3,,,,2,,,78,97
138720,note_off,,,,,120,0,3,,,,2,,,73,64
138720,note_on,,,,,480,0,4,,,,3,,,61,57
138750,note_off,,,,,30,0,4,,,,3,,,61,64
138750,note_on,,,,,0,0,4,,,,3,,,69,69
138780,note_off,,,,,30,0,4,,,,3,,,69,64
138780,note_on,,,,,0,0,4,,,,3,,,61,71
139080,note_on,,,,,0,0,3,,,,2,,,80,91
139080,note_off,,,,,360,0,3,,,,2,,,78,64
139139,note_off,,,,,839,0,1,,,,0,,,85,64
139190,note_off,,,,,410,0,4,,,,3,,,61,64
139200,note_on,,,,,0,0,3,,,,2,,,78,93
139200,note_off,,,,,120,0,3,,,,2,,,80,64
139200,note_on,,,,,61,0,1,,,,0,,,73,65
139230,note_on,,,,,0,0,1,,,,0,,,78,63
139230,note_off,,,,,30,0,1,,,,0,,,73,64
139260,note_on,,,,,0,0,1,,,,0,,,85,69
139260,note_off,,,,,30,0,1,,,,0,,,78,64
139560,note_off,,,,,360,0,3,,,,2,,,78,64
139560,note_on,,,,,0,0,3,,,,2,,,73,79
139680,note_on,,,,,0,0,3,,,,2,,,81,103
139680,note_off,,,,,120,0,3,,,,2,,,73,64
139680,note_on,,,,,490,0,4,,,,3,,,90,69
139710,note_on,,,,,0,0,4,,,,3,,,97,79
139710,note_off,,,,,30,0,4,,,,3,,,90,64
139740,note_on,,,,,0,0,4,,,,3,,,90,69
139740,note_off,,,,,30,0,4,,,,3,,,97,64
140040,note_off,,,,,360,0,3,,,,2,,,81,64
140040,note_on,,,,,0,0,3,,,,2,,,73,87
140099,note_off,,,,,839,0,1,,,,0,,,85,64
140150,note_off,,,,,110,0,3,,,,2,,,73,64
140160,note_on,,,,,61,0,1,,,,0,,,80,75
140160,control_change,,,,,0,0,4,,,,3,0,0,,
140160,control_change,,,,,10,0,3,,,,2,0,0,,
140160,control_change,,,,,7680,0,2,,,,1,0,0,,
140160,note_off,,,,,420,0,4,,,,3,,,90,64
140190,note_on,,,,,0,0,1,,,,0,,,85,75
140190,note_off,,,,,30,0,1,,,,0,,,80,64
140220,note_on,,,,,0,0,1,,,,0,,,80,77
140220,note_off,,,,,30,0,1,,,,0,,,85,64
140520,note_on,,,,,0,0,1,,,,0,,,73,65
140520,note_off,,,,,300,0,1,,,,0,,,80,64
140640,note_off,,,,,120,0,1,,,,0,,,73,64
140640,note_on,,,,,0,0,1,,,,0,,,85,83
140640,note_on,,,,,480,0,4,,,,3,,,68,79
140670,note_on,,,,,0,0,4,,,,3,,,77,63
140670,note_off,,,,,30,0,4,,,,3,,,68,64
140700,note_on,,,,,0,0,4,,,,3,,,68,77
140700,note_off,,,,,30,0,4,,,,3,,,77,64
141000,note_off,,,,,360,0,1,,,,0,,,85,64
141000,note_on,,,,,0,0,1,,,,0,,,73,75
141120,note_off,,,,,120,0,1,,,,0,,,73,64
141120,note_off,,,,,420,0,4,,,,3,,,68,64
141120,note_on,,,,,0,0,1,,,,0,,,80,65
141150,note_off,,,,,30,0,1,,,,0,,,80,64
141150,note_on,,,,,0,0,1,,,,0,,,85,79
141180,note_on,,,,,0,0,1,,,,0,,,80,83
141180,note_off,,,,,30,0,1,,,,0,,,85,64
141480,note_off,,,,,300,0,1,,,,0,,,80,64
141480,note_on,,,,,0,0,1,,,,0,,,73,57
141600,note_on,,,,,480,0,4,,,,3,,,92,67
141600,note_on,,,,,0,0,1,,,,0,,,85,77
141600,note_off,,,,,120,0,1,,,,0,,,73,64
141630,note_on,,,,,0,0,4,,,,3,,,97,69
141630,note_off,,,,,30,0,4,,,,3,,,92,64
141660,note_off,,,,,30,0,4,,,,3,,,97,64
141660,note_on,,,,,0,0,4,,,,3,,,92,77
141960,note_on,,,,,0,0,1,,,,0,,,73,69
141960,note_off,,,,,360,0,1,,,,0,,,85,64
142080,note_off,,,,,420,0,4,,,,3,,,92,64
142080,note_off,,,,,120,0,1,,,,0,,,73,64
142080,note_on,,,,,0,0,1,,,,0,,,78,77
142110,note_off,,,,,30,0,1,,,,0,,,78,64
142110,note_on,,,,,0,0,1,,,,0,,,85,79
142140,note_off,,,,,30,0,1,,,,0,,,85,64
142140,note_on,,,,,0,0,1,,,,0,,,78,73
142440,note_off,,,,,300,0,1,,,,0,,,78,64
142440,note_on,,,,,0,0,1,,,,0,,,73,63
142560,note_on,,,,,0,0,1,,,,0,,,85,87
142560,note_on,,,,,480,0,4,,,,3,,,61,57
142560,note_off,,,,,120,0,1,,,,0,,,73,64
142590,note_on,,,,,0,0,4,,,,3,,,69,69
142590,note_off,,,,,30,0,4,,,,3,,,61,64
142620,note_on,,,,,0,0,4,,,,3,,,61,71
142620,note_off,,,,,30,0,4,,,,3,,,69,64
142920,note_on,,,,,0,0,1,,,,0,,,73,61
142920,note_off,,,,,360,0,1,,,,0,,,85,64
143030,note_off,,,,,410,0,4,,,,3,,,61,64
143040,note_off,,,,,120,0,1,,,,0,,,73,64
143040,note_on,,,,,0,0,1,,,,0,,,81,73
143070,note_on,,,,,0,0,1,,,,0,,,85,79
143070,note_off,,,,,30,0,1,,,,0,,,81,64
143100,note_on,,,,,0,0,1,,,,0,,,81,79
143100,note_off,,,,,30,0,1,,,,0,,,85,64
143400,note_off,,,,,300,0,1,,,,0,,,81,64
143400,note_on,,,,,0,0,1,,,,0,,,73,71
143520,note_on,,,,,490,0,4,,,,3,,,90,69
143520,note_on,,,,,0,0,1,,,,0,,,85,77
143520,note_off,,,,,120,0,1,,,,0,,,73,64
143550,note_off,,,,,30,0,4,,,,3,,,90,64
143550,note_on,,,,,0,0,4,,,,3,,,97,79
143580,note_on,,,,,0,0,4,,,,3,,,90,69
143580,note_off,,,,,30,0,4,,,,3,,,97,64
143880,note_on,,,,,0,0,1,,,,0,,,73,75
143880,note_off,,,,,360,0,1,,,,0,,,85,64
144000,note_off,,,,,120,0,1,,,,0,,,73,64
144000,note_on,,,,,0,0,1,,,,0,,,80,87
144000,note_off,,,,,420,0,4,,,,3,,,90,64
144030,note_on,,,,,0,0,1,,,,0,,,85,75
144030,note_off,,,,,30,0,1,,,,0,,,80,64
144060,note_on,,,,,0,0,1,,,,0,,,80,83
144060,note_off,,,,,30,0,1,,,,0,,,85,64
144360,note_on,,,,,0,0,1,,,,0,,,73,63
144360,note_off,,,,,300,0,1,,,,0,,,80,64
144480,note_off,,,,,120,0,1,,,,0,,,73,64
144480,note_on,,,,,480,0,4,,,,3,,,68,79
144480,note_on,,,,,0,0,1,,,,0,,,85,79
144510,note_on,,,,,0,0,4,,,,3,,,77,63
144510,note_off,,,,,30,0,4,,,,3,,,68,64
144540,note_off,,,,,30,0,4,,,,3,,,77,64
144540,note_on,,,,,0,0,4,,,,3,,,68,77
144840,note_on,,,,,0,0,1,,,,0,,,73,69
144840,note_off,,,,,360,0,1,,,,0,,,85,64
144960,note_on,,,,,0,0,1,,,,0,,,80,77
144960,note_off,,,,,120,0,1,,,,0,,,73,64
144960,note_off,,,,,420,0,4,,,,3,,,68,64
144990,note_on,,,,,0,0,1,,,,0,,,85,77
144990,note_off,,,,,30,0,1,,,,0,,,80,64
145020,note_on,,,,,0,0,1,,,,0,,,80,73
145020,note_off,,,,,30,0,1,,,,0,,,85,64
145320,note_off,,,,,300,0,1,,,,0,,,80,64
145320,note_on,,,,,0,0,1,,,,0,,,73,61
145440,note_on,,,,,480,0,4,,,,3,,,92,67
145440,note_off,,,,,120,0,1,,,,0,,,73,64
145440,note_on,,,,,0,0,1,,,,0,,,85,77
145470,note_on,,,,,0,0,4,,,,3,,,97,69
145470,note_off,,,,,30,0,4,,,,3,,,92,64
145500,note_off,,,,,30,0,4,,,,3,,,97,64
145500,note_on,,,,,0,0,4,,,,3,,,92,77
145800,note_off,,,,,360,0,1,,,,0,,,85,64
145800,note_on,,,,,0,0,1,,,,0,,,73,65
145920,note_off,,,,,120,0,1,,,,0,,,73,64
145920,note_on,,,,,0,0,1,,,,0,,,78,73
145920,note_off,,,,,420,0,4,,,,3,,,92,64
145950,note_on,,,,,0,0,1,,,,0,,,85,83
145950,note_off,,,,,30,0,1,,,,0,,,78,64
145980,note_on,,,,,0,0,1,,,,0,,,78,77
145980,note_off,,,,,30,0,1,,,,0,,,85,64
146280,note_off,,,,,300,0,1,,,,0,,,78,64
146280,note_on,,,,,0,0,1,,,,0,,,73,49
146400,note_on,,,,,480,0,4,,,,3,,,61,57
146400,note_off,,,,,120,0,1,,,,0,,,73,64
146400,note_on,,,,,0,0,1,,,,0,,,85,75
146430,note_off,,,,,30,0,4,,,,3,,,61,64
146430,note_on,,,,,0,0,4,,,,3,,,69,69
146460,note_on,,,,,0,0,4,,,,3,,,61,71
146460,note_off,,,,,30,0,4,,,,3,,,69,64
146760,note_on,,,,,0,0,1,,,,0,,,73,79
146760,note_off,,,,,360,0,1,,,,0,,,85,64
146870,note_off,,,,,410,0,4,,,,3,,,61,64
146880,note_off,,,,,120,0,1,,,,0,,,73,64
146880,note_on,,,,,0,0,1,,,,0,,,81,65
146910,note_off,,,,,30,0,1,,,,0,,,81,64
146910,note_on,,,,,0,0,1,,,,0,,,85,79
146940,note_on,,,,,0,0,1,,,,0,,,81,71
146940,note_off,,,,,30,0,1,,,,0,,,85,64
147240,note_off,,,,,300,0,1,,,,0,,,81,64
147240,note_on,,,,,0,0,1,,,,0,,,73,75
147360,note_on,,,,,0,0,1,,,,0,,,85,87
147360,note_on,,,,,490,0,4,,,,3,,,90,69
147360,note_off,,,,,120,0,1,,,,0,,,73,64
147390,note_on,,,,,0,0,4,,,,3,,,97,79
147390,note_off,,,,,30,0,4,,,,3,,,90,64
147420,note_off,,,,,30,0,4,,,,3,,,97,64
147420,note_on,,,,,0,0,4,,,,3,,,90,69
147720,note_on,,,,,0,0,1,,,,0,,,73,65
147720,note_off,,,,,360,0,1,,,,0,,,85,64
147830,note_off,,,,,110,0,1,,,,0,,,73,64
147840,note_on,,,,,7680,0,3,,,,2,,,68,89
147840,note_off,,,,,420,0,4,,,,3,,,90,64
147960,note_on,,,,,130,0,1,,,,0,,,73,71
148080,note_on,,,,,7920,0,2,,,,1,,,49,71
148080,note_on,,,,,0,0,1,,,,0,,,73,73
148080,note_off,,,,,120,0,1,,,,0,,,73,64
148200,note_off,,,,,120,0,2,,,,1,,,49,64
148200,note_on,,,,,0,0,1,,,,0,,,73,81
148200,note_off,,,,,120,0,1,,,,0,,,73,64
148320,note_on,,,,,120,0,2,,,,1,,,59,57
148320,note_off,,,,,120,0,1,,,,0,,,73,64
148320,note_on,,,,,0,0,1,,,,0,,,73,65
148440,note_off,,,,,120,0,2,,,,1,,,59,64
148440,note_off,,,,,120,0,1,,,,0,,,73,64
148440,note_on,,,,,0,0,1,,,,0,,,73,77
148560,note_on,,,,,120,0,2,,,,1,,,65,61
148560,note_off,,,,,120,0,1,,,,0,,,73,64
148560,note_off,,,,,720,0,3,,,,2,,,68,64
148560,note_on,,,,,0,0,1,,,,0,,,73,71
148680,note_off,,,,,120,0,2,,,,1,,,65,64
148680,note_on,,,,,0,0,1,,,,0,,,73,71
148680,note_off,,,,,120,0,1,,,,0,,,73,64
148800,note_on,,,,,120,0,2,,,,1,,,69,69
148800,note_off,,,,,120,0,1,,,,0,,,73,64
148920,note_on,,,,,120,0,1,,,,0,,,73,73
148920,note_off,,,,,120,0,2,,,,1,,,69,64
149040,note_on,,,,,0,0,1,,,,0,,,73,65
149040,note_on,,,,,120,0,2,,,,1,,,61,71
149040,note_off,,,,,120,0,1,,,,0,,,73,64
149160,note_off,,,,,120,0,2,,,,1,,,61,64
149160,note_off,,,,,120,0,1,,,,0,,,73,64
149160,note_on,,,,,0,0,1,,,,0,,,73,77
149280,note_on,,,,,120,0,2,,,,1,,,68,65
149280,note_off,,,,,120,0,1,,,,0,,,73,64
149400,note_off,,,,,120,0,2,,,,1,,,68,64
149400,note_on,,,,,120,0,1,,,,0,,,73,61
149520,note_on,,,,,0,0,1,,,,0,,,73,67
149520,note_off,,,,,120,0,1,,,,0,,,73,64
149520,note_on,,,,,120,0,2,,,,1,,,61,65
149640,note_off,,,,,120,0,1,,,,0,,,73,64
149640,note_off,,,,,120,0,2,,,,1,,,61,64
149640,note_on,,,,,0,0,1,,,,0,,,73,67
149760,note_off,,,,,120,0,1,,,,0,,,73,64
149760,note_on,,,,,1200,0,3,,,,2,,,66,89
149880,note_on,,,,,120,0,1,,,,0,,,73,63
150000,note_off,,,,,120,0,1,,,,0,,,73,64
150000,note_on,,,,,0,0,1,,,,0,,,73,71
150000,note_on,,,,,360,0,2,,,,1,,,49,57
150120,note_on,,,,,0,0,1,,,,0,,,73,55
150120,note_off,,,,,120,0,2,,,,1,,,49,64
150120,note_off,,,,,120,0,1,,,,0,,,73,64
150240,note_on,,,,,0,0,1,,,,0,,,73,59
150240,note_off,,,,,120,0,1,,,,0,,,73,64
150240,note_on,,,,,120,0,2,,,,1,,,57,69
150360,note_on,,,,,0,0,1,,,,0,,,73,67
150360,note_off,,,,,120,0,1,,,,0,,,73,64
150360,note_off,,,,,120,0,2,,,,1,,,57,64
150480,note_on,,,,,120,0,2,,,,1,,,61,65
150480,note_on,,,,,0,0,1,,,,0,,,73,77
150480,note_off,,,,,120,0,1,,,,0,,,73,64
150599,note_off,,,,,839,0,3,,,,2,,,66,64
150600,note_off,,,,,120,0,1,,,,0,,,73,64
150600,note_on,,,,,1,0,3,,,,2,,,68,93
150600,note_off,,,,,120,0,2,,,,1,,,61,64
150720,note_off,,,,,120,0,3,,,,2,,,68,64
150720,note_on,,,,,120,0,2,,,,1,,,69,61
150840,note_off,,,,,120,0,2,,,,1,,,69,64
150840,note_on,,,,,240,0,1,,,,0,,,73,59
150960,note_on,,,,,120,0,2,,,,1,,,61,43
150960,note_off,,,,,120,0,1,,,,0,,,73,64
150960,note_on,,,,,0,0,1,,,,0,,,73,65
151080,note_off,,,,,120,0,2,,,,1,,,61,64
151080,note_off,,,,,120,0,1,,,,0,,,73,64
151080,note_on,,,,,0,0,1,,,,0,,,73,71
151200,note_on,,,,,120,0,2,,,,1,,,66,67
151200,note_off,,,,,120,0,1,,,,0,,,73,64
151320,note_off,,,,,120,0,2,,,,1,,,66,64
151320,note_on,,,,,120,0,1,,,,0,,,73,65
151440,note_on,,,,,0,0,1,,,,0,,,73,69
151440,note_off,,,,,120,0,1,,,,0,,,73,64
151440,note_on,,,,,120,0,2,,,,1,,,61,51
151560,note_off,,,,,120,0,1,,,,0,,,73,64
151560,note_on,,,,,0,0,1,,,,0,,,73,63
151560,note_off,,,,,120,0,2,,,,1,,,61,64
151680,note_off,,,,,120,0,1,,,,0,,,73,64
151680,note_on,,,,,960,0,3,,,,2,,,68,93
151800,note_on,,,,,120,0,1,,,,0,,,73,67
151920,note_off,,,,,120,0,1,,,,0,,,73,64
151920,note_on,,,,,360,0,2,,,,1,,,49,43
151920,note_on,,,,,0,0,1,,,,0,,,73,61
152040,note_off,,,,,120,0,2,,,,1,,,49,64
152040,note_on,,,,,0,0,1,,,,0,,,73,65
152040,note_off,,,,,120,0,1,,,,0,,,73,64
152160,note_off,,,,,120,0,1,,,,0,,,73,64
152160,note_on,,,,,120,0,2,,,,1,,,59,69
152160,note_on,,,,,0,0,1,,,,0,,,73,63
152280,note_on,,,,,0,0,1,,,,0,,,73,63
152280,note_off,,,,,120,0,2,,,,1,,,59,64
152280,note_off,,,,,120,0,1,,,,0,,,73,64
152400,note_on,,,,,0,0,1,,,,0,,,73,69
152400,note_off,,,,,120,0,1,,,,0,,,73,64
152400,note_on,,,,,120,0,2,,,,1,,,65,69
152519,note_off,,,,,839,0,3,,,,2,,,68,64
152520,note_off,,,,,120,0,2,,,,1,,,65,64
152520,note_on,,,,,1,0,3,,,,2,,,71,79
152520,note_off,,,,,120,0,1,,,,0,,,73,64
152640,note_off,,,,,120,0,3,,,,2,,,71,64
152640,note_on,,,,,120,0,2,,,,1,,,69,69
152760,note_on,,,,,240,0,1,,,,0,,,73,61
152760,note_off,,,,,120,0,2,,,,1,,,69,64
152880,note_on,,,,,120,0,2,,,,1,,,61,51
152880,note_off,,,,,120,0,1,,,,0,,,73,64
152880,note_on,,,,,0,0,1,,,,0,,,73,59
153000,note_off,,,,,120,0,1,,,,0,,,73,64
153000,note_off,,,,,120,0,2,,,,1,,,61,64
153000,note_on,,,,,0,0,1,,,,0,,,73,77
153120,note_on,,,,,120,0,2,,,,1,,,68,77
153120,note_off,,,,,120,0,1,,,,0,,,73,64
153240,note_on,,,,,120,0,1,,,,0,,,73,61
153240,note_off,,,,,120,0,2,,,,1,,,68,64
153360,note_off,,,,,120,0,1,,,,0,,,73,64
153360,note_on,,,,,0,0,1,,,,0,,,73,69
153360,note_on,,,,,120,0,2,,,,1,,,61,69
153480,note_off,,,,,120,0,1,,,,0,,,73,64
153480,note_on,,,,,0,0,1,,,,0,,,73,71
153480,note_off,,,,,120,0,2,,,,1,,,61,64
153590,note_off,,,,,110,0,1,,,,0,,,73,64
153600,note_on,,,,,960,0,3,,,,2,,,66,79
153720,note_on,,,,,130,0,1,,,,0,,,73,71
153840,note_on,,,,,360,0,2,,,,1,,,49,59
153840,note_off,,,,,120,0,1,,,,0,,,73,64
153840,note_on,,,,,0,0,1,,,,0,,,73,77
153960,note_off,,,,,120,0,1,,,,0,,,73,64
153960,note_on,,,,,0,0,1,,,,0,,,73,71
153960,note_off,,,,,120,0,2,,,,1,,,49,64
154080,note_on,,,,,120,0,2,,,,1,,,57,69
154080,note_off,,,,,120,0,1,,,,0,,,73,64
154080,note_on,,,,,0,0,1,,,,0,,,73,65
154200,note_off,,,,,120,0,2,,,,1,,,57,64
154200,note_on,,,,,0,0,1,,,,0,,,73,65
154200,note_off,,,,,120,0,1,,,,0,,,73,64
154320,note_on,,,,,120,0,2,,,,1,,,61,69
154320,note_off,,,,,120,0,1,,,,0,,,73,64
154320,note_on,,,,,0,0,1,,,,0,,,73,55
154439,note_off,,,,,839,0,3,,,,2,,,66,64
154440,note_off,,,,,120,0,2,,,,1,,,61,64
154440,note_on,,,,,1,0,3,,,,2,,,68,79
154440,note_off,,,,,120,0,1,,,,0,,,73,64
154560,note_off,,,,,120,0,3,,,,2,,,68,64
154560,note_on,,,,,120,0,2,,,,1,,,69,75
154680,note_off,,,,,120,0,2,,,,1,,,69,64
154680,note_on,,,,,240,0,1,,,,0,,,73,61
154800,note_off,,,,,120,0,1,,,,0,,,73,64
154800,note_on,,,,,120,0,2,,,,1,,,61,65
154800,note_on,,,,,0,0,1,,,,0,,,73,65
154920,note_off,,,,,120,0,1,,,,0,,,73,64
154920,note_off,,,,,120,0,2,,,,1,,,61,64
154920,note_on,,,,,0,0,1,,,,0,,,73,65
155040,note_on,,,,,120,0,2,,,,1,,,66,75
155040,note_off,,,,,120,0,1,,,,0,,,73,64
155160,note_off,,,,,120,0,2,,,,1,,,66,64
155160,note_on,,,,,120,0,1,,,,0,,,73,59
155280,note_off,,,,,120,0,1,,,,0,,,73,64
155280,note_on,,,,,120,0,2,,,,1,,,61,65
155280,note_on,,,,,0,0,1,,,,0,,,73,59
155400,note_off,,,,,120,0,1,,,,0,,,73,64
155400,note_on,,,,,0,0,1,,,,0,,,73,69
155400,note_off,,,,,120,0,2,,,,1,,,61,64
155520,note_on,,,,,960,0,3,,,,2,,,80,87
155520,note_on,,,,,0,0,3,,,,2,,,68,77
155520,note_off,,,,,120,0,1,,,,0,,,73,64
155640,note_on,,,,,120,0,1,,,,0,,,73,45
155760,note_off,,,,,240,0,3,,,,2,,,80,64
155760,note_off,,,,,120,0,1,,,,0,,,73,64
155760,note_off,,,,,0,0,3,,,,2,,,68,64
155760,note_on,,,,,360,0,2,,,,1,,,49,71
155760,note_on,,,,,0,0,1,,,,0,,,73,57
155880,note_on,,,,,0,0,1,,,,0,,,73,61
155880,note_off,,,,,120,0,1,,,,0,,,73,64
155880,note_off,,,,,120,0,2,,,,1,,,49,64
156000,note_on,,,,,0,0,1,,,,0,,,73,65
156000,note_on,,,,,120,0,2,,,,1,,,59,75
156000,note_off,,,,,120,0,1,,,,0,,,73,64
156120,note_off,,,,,120,0,2,,,,1,,,59,64
156120,note_off,,,,,120,0,1,,,,0,,,73,64
156120,note_on,,,,,0,0,1,,,,0,,,73,57
156240,note_on,,,,,0,0,1,,,,0,,,73,61
156240,note_on,,,,,120,0,2,,,,1,,,65,73
156240,note_off,,,,,120,0,1,,,,0,,,73,64
156360,note_off,,,,,120,0,1,,,,0,,,73,64
156360,note_off,,,,,120,0,2,,,,1,,,65,64
156360,note_on,,,,,0,0,1,,,,0,,,73,49
156480,note_off,,,,,120,0,1,,,,0,,,73,64
156480,note_on,,,,,720,0,3,,,,2,,,81,79
156480,note_on,,,,,0,0,3,,,,2,,,69,83
156600,note_on,,,,,120,0,1,,,,0,,,73,49
156720,note_on,,,,,360,0,2,,,,1,,,65,71
156720,note_off,,,,,120,0,1,,,,0,,,73,64
156720,note_off,,,,,0,0,3,,,,2,,,69,64
156720,note_on,,,,,0,0,1,,,,0,,,73,53
156720,note_off,,,,,240,0,3,,,,2,,,81,64
156840,note_off,,,,,120,0,1,,,,0,,,73,64
156840,note_off,,,,,120,0,2,,,,1,,,65,64
156840,note_on,,,,,0,0,1,,,,0,,,73,59
156960,note_on,,,,,0,0,3,,,,2,,,68,83
156960,note_on,,,,,120,0,2,,,,1,,,59,69
156960,note_on,,,,,240,0,3,,,,2,,,80,91
156960,note_off,,,,,120,0,1,,,,0,,,73,64
157080,note_off,,,,,120,0,2,,,,1,,,59,64
157080,note_on,,,,,120,0,1,,,,0,,,73,57
157200,note_on,,,,,0,0,1,,,,0,,,73,35
157200,note_off,,,,,240,0,3,,,,2,,,80,64
157200,note_off,,,,,0,0,3,,,,2,,,68,64
157200,note_on,,,,,120,0,2,,,,1,,,49,69
157200,note_off,,,,,120,0,1,,,,0,,,73,64
157320,note_off,,,,,120,0,2,,,,1,,,49,64
157320,note_off,,,,,120,0,1,,,,0,,,73,64
157320,note_on,,,,,0,0,1,,,,0,,,73,61
157440,note_off,,,,,120,0,1,,,,0,,,73,64
157440,note_on,,,,,0,0,3,,,,2,,,66,79
157440,note_on,,,,,240,0,3,,,,2,,,78,87
157560,note_on,,,,,120,0,1,,,,0,,,73,45
157680,note_on,,,,,0,0,1,,,,0,,,73,59
157680,note_off,,,,,120,0,1,,,,0,,,73,64
157680,note_on,,,,,360,0,2,,,,1,,,49,71
157800,note_on,,,,,0,0,1,,,,0,,,73,47
157800,note_off,,,,,120,0,2,,,,1,,,49,64
157800,note_off,,,,,120,0,1,,,,0,,,73,64
157920,note_on,,,,,120,0,2,,,,1,,,57,69
157920,note_on,,,,,0,0,1,,,,0,,,73,51
157920,note_off,,,,,120,0,1,,,,0,,,73,64
158040,note_on,,,,,0,0,1,,,,0,,,73,55
158040,note_off,,,,,120,0,2,,,,1,,,57,64
158040,note_off,,,,,120,0,1,,,,0,,,73,64
158160,note_on,,,,,120,0,2,,,,1,,,66,67
158160,note_on,,,,,0,0,1,,,,0,,,73,57
158160,note_off,,,,,120,0,1,,,,0,,,73,64
158279,note_off,,,,,839,0,3,,,,2,,,78,64
158279,note_off,,,,,0,0,3,,,,2,,,66,64
158280,note_on,,,,,1,0,3,,,,2,,,80,87
158280,note_on,,,,,0,0,3,,,,2,,,68,77
158280,note_off,,,,,120,0,1,,,,0,,,73,64
158280,note_off,,,,,120,0,2,,,,1,,,66,64
158400,note_off,,,,,0,0,3,,,,2,,,68,64
158400,note_on,,,,,0,0,3,,,,2,,,81,93
158400,note_on,,,,,0,0,3,,,,2,,,69,83
158400,note_off,,,,,120,0,3,,,,2,,,80,64
158520,note_on,,,,,240,0,1,,,,0,,,73,57
158640,note_on,,,,,360,0,2,,,,1,,,66,73
158640,note_on,,,,,0,0,1,,,,0,,,73,69
158640,note_off,,,,,120,0,1,,,,0,,,73,64
158760,note_off,,,,,120,0,1,,,,0,,,73,64
158760,note_off,,,,,120,0,2,,,,1,,,66,64
158760,note_on,,,,,0,0,1,,,,0,,,73,59
158880,note_off,,,,,0,0,3,,,,2,,,69,64
158880,note_on,,,,,120,0,2,,,,1,,,57,63
158880,note_off,,,,,480,0,3,,,,2,,,81,64
158880,note_on,,,,,0,0,3,,,,2,,,78,93
158880,note_on,,,,,0,0,3,,,,2,,,66,83
158880,note_off,,,,,120,0,1,,,,0,,,73,64
159000,note_on,,,,,120,0,1,,,,0,,,73,39
159000,note_off,,,,,120,0,2,,,,1,,,57,64
159120,note_on,,,,,120,0,2,,,,1,,,49,53
159120,note_on,,,,,0,0,1,,,,0,,,73,55
159120,note_off,,,,,120,0,1,,,,0,,,73,64
159240,note_off,,,,,120,0,1,,,,0,,,73,64
159240,note_on,,,,,0,0,1,,,,0,,,73,63
159240,note_off,,,,,120,0,2,,,,1,,,49,64
159360,note_off,,,,,120,0,1,,,,0,,,73,64
159360,note_on,,,,,0,0,3,,,,2,,,68,75
159360,note_on,,,,,0,0,3,,,,2,,,80,83
159360,note_off,,,,,480,0,3,,,,2,,,78,64
159360,note_off,,,,,0,0,3,,,,2,,,66,64
159480,note_on,,,,,120,0,1,,,,0,,,73,65
159600,note_on,,,,,0,0,1,,,,0,,,73,45
159600,note_off,,,,,120,0,1,,,,0,,,73,64
159600,note_on,,,,,360,0,2,,,,1,,,49,73
159720,note_on,,,,,0,0,1,,,,0,,,73,59
159720,note_off,,,,,120,0,1,,,,0,,,73,64
159720,note_off,,,,,120,0,2,,,,1,,,49,64
159840,note_on,,,,,0,0,1,,,,0,,,73,57
159840,note_off,,,,,480,0,3,,,,2,,,80,64
159840,note_off,,,,,0,0,3,,,,2,,,68,64
159840,note_on,,,,,120,0,2,,,,1,,,59,77
159840,note_off,,,,,120,0,1,,,,0,,,73,64
159960,note_off,,,,,120,0,1,,,,0,,,73,64
159960,note_off,,,,,120,0,2,,,,1,,,59,64
159960,note_on,,,,,0,0,1,,,,0,,,73,47
160080,note_on,,,,,120,0,2,,,,1,,,65,61
160080,note_on,,,,,0,0,3,,,,2,,,71,75
160080,note_on,,,,,240,0,3,,,,2,,,83,79
160080,note_off,,,,,120,0,1,,,,0,,,73,64
160200,note_on,,,,,120,0,1,,,,0,,,73,65
160200,note_off,,,,,120,0,2,,,,1,,,65,64
160320,note_on,,,,,0,0,3,,,,2,,,69,77
160320,note_on,,,,,0,0,3,,,,2,,,81,91
160320,note_off,,,,,0,0,3,,,,2,,,71,64
160320,note_off,,,,,240,0,3,,,,2,,,83,64
160320,note_off,,,,,120,0,1,,,,0,,,73,64
160440,note_on,,,,,120,0,1,,,,0,,,73,45
160560,note_on,,,,,360,0,2,,,,1,,,65,77
160560,note_off,,,,,240,0,3,,,,2,,,81,64
160560,note_on,,,,,0,0,1,,,,0,,,73,55
160560,note_off,,,,,0,0,3,,,,2,,,69,64
160560,note_off,,,,,120,0,1,,,,0,,,73,64
160680,note_off,,,,,120,0,2,,,,1,,,65,64
160680,note_on,,,,,0,0,1,,,,0,,,73,53
160680,note_off,,,,,120,0,1,,,,0,,,73,64
160800,note_on,,,,,120,0,2,,,,1,,,59,63
160800,note_off,,,,,120,0,1,,,,0,,,73,64
160800,note_on,,,,,240,0,3,,,,2,,,80,83
160800,note_on,,,,,0,0,3,,,,2,,,68,77
160920,note_off,,,,,120,0,2,,,,1,,,59,64
160920,note_on,,,,,120,0,1,,,,0,,,73,47
161040,note_off,,,,,240,0,3,,,,2,,,80,64
161040,note_off,,,,,0,0,3,,,,2,,,68,64
161040,note_on,,,,,120,0,2,,,,1,,,49,67
161040,note_off,,,,,120,0,1,,,,0,,,73,64
161040,note_on,,,,,0,0,1,,,,0,,,73,59
161160,note_off,,,,,120,0,1,,,,0,,,73,64
161160,note_on,,,,,0,0,1,,,,0,,,73,59
161160,note_off,,,,,120,0,2,,,,1,,,49,64
161280,note_off,,,,,120,0,1,,,,0,,,73,64
161280,note_on,,,,,240,0,3,,,,2,,,78,87
161280,note_on,,,,,0,0,3,,,,2,,,66,77
161400,note_on,,,,,120,0,1,,,,0,,,73,63
161520,note_on,,,,,0,0,1,,,,0,,,73,63
161520,note_off,,,,,120,0,1,,,,0,,,73,64
161520,note_on,,,,,360,0,2,,,,1,,,49,71
161640,note_off,,,,,120,0,1,,,,0,,,73,64
161640,note_on,,,,,0,0,1,,,,0,,,73,45
161640,note_off,,,,,120,0,2,,,,1,,,49,64
161760,note_off,,,,,120,0,1,,,,0,,,73,64
161760,note_on,,,,,120,0,2,,,,1,,,57,75
161760,note_on,,,,,0,0,1,,,,0,,,73,59
161880,note_off,,,,,120,0,1,,,,0,,,73,64
161880,note_off,,,,,120,0,2,,,,1,,,57,64
161880,note_on,,,,,0,0,1,,,,0,,,73,47
162000,note_on,,,,,0,0,1,,,,0,,,73,59
162000,note_on,,,,,120,0,2,,,,1,,,66,79
162000,note_off,,,,,120,0,1,,,,0,,,73,64
162119,note_off,,,,,839,0,3,,,,2,,,78,64
162119,note_off,,,,,0,0,3,,,,2,,,66,64
162120,note_on,,,,,1,0,3,,,,2,,,80,83
162120,note_off,,,,,120,0,1,,,,0,,,73,64
162120,note_off,,,,,120,0,2,,,,1,,,66,64
162120,note_on,,,,,0,0,3,,,,2,,,68,77
162240,note_off,,,,,0,0,3,,,,2,,,68,64
162240,note_on,,,,,0,0,3,,,,2,,,69,77
162240,note_on,,,,,0,0,3,,,,2,,,81,87
162240,note_off,,,,,120,0,3,,,,2,,,80,64
162360,note_on,,,,,240,0,1,,,,0,,,73,49
162480,note_off,,,,,120,0,1,,,,0,,,73,64
162480,note_on,,,,,360,0,2,,,,1,,,66,69
162480,note_on,,,,,0,0,1,,,,0,,,73,63
162600,note_on,,,,,0,0,1,,,,0,,,73,63
162600,note_off,,,,,120,0,2,,,,1,,,66,64
162600,note_off,,,,,120,0,1,,,,0,,,73,64
162720,note_off,,,,,120,0,1,,,,0,,,73,64
162720,note_off,,,,,480,0,3,,,,2,,,81,64
162720,note_on,,,,,0,0,3,,,,2,,,66,79
162720,note_on,,,,,0,0,3,,,,2,,,78,87
162720,note_on,,,,,120,0,2,,,,1,,,57,77
162720,note_off,,,,,0,0,3,,,,2,,,69,64
162840,note_on,,,,,120,0,1,,,,0,,,73,57
162840,note_off,,,,,120,0,2,,,,1,,,57,64
162960,note_on,,,,,0,0,1,,,,0,,,73,55
162960,note_on,,,,,120,0,2,,,,1,,,49,69
162960,note_off,,,,,120,0,1,,,,0,,,73,64
163080,note_off,,,,,120,0,2,,,,1,,,49,64
163080,note_off,,,,,120,0,1,,,,0,,,73,64
163080,note_on,,,,,0,0,1,,,,0,,,73,49
163190,note_off,,,,,110,0,1,,,,0,,,73,64
163190,note_off,,,,,0,0,3,,,,2,,,66,64
163190,note_off,,,,,470,0,3,,,,2,,,78,64
163200,note_on,,,,,10,0,1,,,,0,,,85,77
163200,note_on,,,,,120,0,2,,,,1,,,56,69
163320,note_on,,,,,0,0,1,,,,0,,,73,65
163320,note_off,,,,,120,0,1,,,,0,,,85,64
163440,note_on,,,,,0,0,1,,,,0,,,73,63
163440,note_off,,,,,120,0,1,,,,0,,,73,64
163560,note_off,,,,,120,0,1,,,,0,,,73,64
163560,note_on,,,,,0,0,1,,,,0,,,73,69
163680,note_on,,,,,0,0,1,,,,0,,,85,77
163680,note_on,,,,,0,0,2,,,,1,,,61,45
163680,note_off,,,,,120,0,1,,,,0,,,73,64
163680,note_on,,,,,0,0,2,,,,1,,,65,75
163680,note_off,,,,,480,0,2,,,,1,,,56,64
163680,note_on,,,,,0,0,2,,,,1,,,73,71
163800,note_off,,,,,120,0,1,,,,0,,,85,64
163800,note_on,,,,,0,0,1,,,,0,,,73,61
163920,note_on,,,,,0,0,1,,,,0,,,73,69
163920,note_off,,,,,120,0,1,,,,0,,,73,64
164040,note_off,,,,,120,0,1,,,,0,,,73,64
164040,note_on,,,,,0,0,1,,,,0,,,73,73
164150,note_off,,,,,110,0,1,,,,0,,,73,64
164160,note_off,,,,,0,0,2,,,,1,,,61,64
164160,note_on,,,,,10,0,1,,,,0,,,85,77
164160,note_off,,,,,0,0,2,,,,1,,,65,64
164160,note_on,,,,,0,0,2,,,,1,,,49,75
164160,note_off,,,,,480,0,2,,,,1,,,73,64
164180,set_tempo,,,,,39380,1,0,408163,,,,,,,
164280,note_on,,,,,0,0,1,,,,0,,,73,65
164280,note_off,,,,,120,0,1,,,,0,,,85,64
164280,note_off,,,,,120,0,2,,,,1,,,49,64
164400,note_off,,,,,120,0,1,,,,0,,,73,64
164400,note_on,,,,,0,0,2,,,,1,,,61,45
164400,note_on,,,,,0,0,2,,,,1,,,65,83
164400,note_on,,,,,0,0,1,,,,0,,,73,63
164400,note_on,,,,,120,0,2,,,,1,,,71,37
164520,note_off,,,,,120,0,1,,,,0,,,73,64
164520,note_on,,,,,0,0,1,,,,0,,,73,69
164520,note_off,,,,,120,0,2,,,,1,,,71,64
164520,note_off,,,,,0,0,2,,,,1,,,65,64
164520,note_off,,,,,0,0,2,,,,1,,,61,64
164640,note_off,,,,,120,0,1,,,,0,,,73,64
164640,note_on,,,,,0,0,1,,,,0,,,85,77
164640,note_on,,,,,120,0,2,,,,1,,,59,63
164760,note_off,,,,,120,0,1,,,,0,,,85,64
164760,note_off,,,,,120,0,2,,,,1,,,59,64
164760,note_on,,,,,0,0,1,,,,0,,,73,61
164880,note_on,,,,,0,0,2,,,,1,,,65,73
164880,note_on,,,,,120,0,2,,,,1,,,69,75
164880,note_off,,,,,120,0,1,,,,0,,,73,64
164880,note_on,,,,,0,0,1,,,,0,,,73,69
164880,note_on,,,,,0,0,2,,,,1,,,61,53
165000,note_on,,,,,0,0,1,,,,0,,,73,73
165000,note_off,,,,,0,0,2,,,,1,,,61,64
165000,note_off,,,,,0,0,2,,,,1,,,65,64
165000,note_off,,,,,120,0,2,,,,1,,,69,64
165000,note_off,,,,,120,0,1,,,,0,,,73,64
165110,note_off,,,,,110,0,1,,,,0,,,73,64
165120,note_on,,,,,10,0,1,,,,0,,,85,77
165120,note_on,,,,,120,0,2,,,,1,,,54,65
165180,set_tempo,,,,,1000,1,0,405405,,,,,,,
165240,note_on,,,,,0,0,1,,,,0,,,73,65
165240,note_off,,,,,120,0,1,,,,0,,,85,64
165360,note_off,,,,,120,0,1,,,,0,,,73,64
165360,note_on,,,,,0,0,1,,,,0,,,73,63
165480,note_off,,,,,120,0,1,,,,0,,,73,64
165480,note_on,,,,,0,0,1,,,,0,,,73,69
165600,note_on,,,,,0,0,2,,,,1,,,69,77
165600,note_off,,,,,120,0,1,,,,0,,,73,64
165600,note_on,,,,,0,0,1,,,,0,,,85,77
165600,note_off,,,,,480,0,2,,,,1,,,54,64
165600,note_on,,,,,0,0,2,,,,1,,,66,69
165600,note_on,,,,,0,0,2,,,,1,,,61,55
165720,note_off,,,,,120,0,1,,,,0,,,85,64
165720,note_on,,,,,0,0,1,,,,0,,,73,61
165840,note_on,,,,,0,0,1,,,,0,,,73,69
165840,note_off,,,,,120,0,1,,,,0,,,73,64
165960,note_on,,,,,0,0,1,,,,0,,,73,73
165960,note_off,,,,,120,0,1,,,,0,,,73,64
166070,note_off,,,,,110,0,1,,,,0,,,73,64
166080,note_off,,,,,480,0,2,,,,1,,,69,64
166080,note_off,,,,,0,0,2,,,,1,,,61,64
166080,note_off,,,,,0,0,2,,,,1,,,66,64
166080,note_on,,,,,0,0,2,,,,1,,,49,65
166080,note_on,,,,,10,0,1,,,,0,,,85,77
166200,note_on,,,,,0,0,1,,,,0,,,73,65
166200,note_off,,,,,120,0,1,,,,0,,,85,64
166320,note_on,,,,,0,0,2,,,,1,,,57,57
166320,note_on,,,,,240,0,2,,,,1,,,68,75
166320,note_on,,,,,0,0,1,,,,0,,,73,63
166320,note_off,,,,,120,0,1,,,,0,,,73,64
166320,note_on,,,,,0,0,2,,,,1,,,61,63
166440,note_off,,,,,0,0,2,,,,1,,,61,64
166440,note_off,,,,,120,0,1,,,,0,,,73,64
166440,note_off,,,,,120,0,2,,,,1,,,68,64
166440,note_on,,,,,0,0,1,,,,0,,,73,69
166440,note_off,,,,,0,0,2,,,,1,,,57,64
166560,note_on,,,,,0,0,2,,,,1,,,54,63
166560,note_off,,,,,120,0,1,,,,0,,,73,64
166560,note_off,,,,,120,0,2,,,,1,,,49,64
166560,note_on,,,,,0,0,1,,,,0,,,85,77
166680,note_off,,,,,120,0,1,,,,0,,,85,64
166680,note_on,,,,,0,0,1,,,,0,,,73,61
166680,note_off,,,,,120,0,2,,,,1,,,54,64
166800,note_on,,,,,0,0,1,,,,0,,,73,69
166800,note_on,,,,,0,0,2,,,,1,,,61,73
166800,note_on,,,,,0,0,2,,,,1,,,57,59
166800,note_on,,,,,120,0,2,,,,1,,,66,79
166800,note_off,,,,,120,0,1,,,,0,,,73,64
166920,note_off,,,,,120,0,1,,,,0,,,73,64
166920,note_off,,,,,0,0,2,,,,1,,,57,64
166920,note_off,,,,,0,0,2,,,,1,,,61,64
166920,note_off,,,,,120,0,2,,,,1,,,66,64
166920,note_on,,,,,0,0,1,,,,0,,,73,73
167030,note_off,,,,,110,0,1,,,,0,,,73,64
167040,note_on,,,,,10,0,1,,,,0,,,85,77
167040,note_on,,,,,120,0,2,,,,1,,,56,69
167160,note_on,,,,,0,0,1,,,,0,,,73,65
167160,note_off,,,,,120,0,1,,,,0,,,85,64
167280,note_off,,,,,120,0,1,,,,0,,,73,64
167280,note_on,,,,,0,0,1,,,,0,,,73,63
167400,note_off,,,,,120,0,1,,,,0,,,73,64
167400,note_on,,,,,0,0,1,,,,0,,,73,69
167520,note_on,,,,,0,0,2,,,,1,,,65,69
167520,note_on,,,,,0,0,2,,,,1,,,61,53
167520,note_on,,,,,0,0,2,,,,1,,,73,53
167520,note_off,,,,,120,0,1,,,,0,,,73,64
167520,note_on,,,,,0,0,1,,,,0,,,85,77
167520,note_off,,,,,480,0,2,,,,1,,,56,64
167640,note_off,,,,,120,0,1,,,,0,,,85,64
167640,note_on,,,,,0,0,1,,,,0,,,73,61
167760,note_off,,,,,120,0,1,,,,0,,,73,64
167760,note_on,,,,,0,0,1,,,,0,,,73,69
167880,note_on,,,,,0,0,1,,,,0,,,73,73
167880,note_off,,,,,120,0,1,,,,0,,,73,64
167990,note_off,,,,,110,0,1,,,,0,,,73,64
168000,note_on,,,,,10,0,1,,,,0,,,85,77
168000,note_off,,,,,0,0,2,,,,1,,,61,64
168000,note_off,,,,,0,0,2,,,,1,,,65,64
168000,note_off,,,,,480,0,2,,,,1,,,73,64
168000,note_on,,,,,0,0,2,,,,1,,,49,71
168120,note_off,,,,,120,0,1,,,,0,,,85,64
168120,note_on,,,,,0,0,1,,,,0,,,73,65
168240,note_on,,,,,240,0,2,,,,1,,,71,65
168240,note_on,,,,,0,0,2,,,,1,,,61,51
168240,note_on,,,,,0,0,2,,,,1,,,65,83
168240,note_on,,,,,0,0,1,,,,0,,,73,63
168240,note_off,,,,,120,0,1,,,,0,,,73,64
168360,note_off,,,,,0,0,2,,,,1,,,65,64
168360,note_on,,,,,0,0,1,,,,0,,,73,69
168360,note_off,,,,,120,0,2,,,,1,,,71,64
168360,note_off,,,,,120,0,1,,,,0,,,73,64
168360,note_off,,,,,0,0,2,,,,1,,,61,64
168480,note_off,,,,,120,0,2,,,,1,,,49,64
168480,note_off,,,,,120,0,1,,,,0,,,73,64
168480,note_on,,,,,0,0,2,,,,1,,,59,75
168480,note_on,,,,,0,0,1,,,,0,,,85,77
168600,note_off,,,,,120,0,2,,,,1,,,59,64
168600,note_on,,,,,0,0,1,,,,0,,,73,61
168600,note_off,,,,,120,0,1,,,,0,,,85,64
168720,note_on,,,,,0,0,2,,,,1,,,61,25
168720,note_off,,,,,120,0,1,,,,0,,,73,64
168720,note_on,,,,,0,0,1,,,,0,,,73,69
168720,note_on,,,,,0,0,2,,,,1,,,65,77
168720,note_on,,,,,120,0,2,,,,1,,,69,69
168840,note_off,,,,,120,0,2,,,,1,,,69,64
168840,note_off,,,,,0,0,2,,,,1,,,61,64
168840,note_off,,,,,120,0,1,,,,0,,,73,64
168840,note_off,,,,,0,0,2,,,,1,,,65,64
168840,note_on,,,,,0,0,1,,,,0,,,73,73
168950,note_off,,,,,110,0,1,,,,0,,,73,64
168960,note_on,,,,,10,0,1,,,,0,,,85,77
168960,note_on,,,,,120,0,2,,,,1,,,54,69
169080,note_on,,,,,0,0,1,,,,0,,,73,65
169080,note_off,,,,,120,0,1,,,,0,,,85,64
169200,note_on,,,,,0,0,1,,,,0,,,73,63
169200,note_off,,,,,120,0,1,,,,0,,,73,64
169320,note_off,,,,,120,0,1,,,,0,,,73,64
169320,note_on,,,,,0,0,1,,,,0,,,73,69
169440,note_on,,,,,0,0,1,,,,0,,,85,77
169440,note_off,,,,,120,0,1,,,,0,,,73,64
169440,note_on,,,,,0,0,2,,,,1,,,61,35
169440,note_on,,,,,0,0,2,,,,1,,,66,59
169440,note_off,,,,,480,0,2,,,,1,,,54,64
169440,note_on,,,,,0,0,2,,,,1,,,69,71
169560,note_on,,,,,0,0,1,,,,0,,,73,61
169560,note_off,,,,,120,0,1,,,,0,,,85,64
169680,note_on,,,,,0,0,1,,,,0,,,73,69
169680,note_off,,,,,120,0,1,,,,0,,,73,64
169800,note_off,,,,,120,0,1,,,,0,,,73,64
169800,note_on,,,,,0,0,1,,,,0,,,73,73
169910,note_off,,,,,110,0,1,,,,0,,,73,64
169920,note_on,,,,,10,0,1,,,,0,,,85,77
169920,note_on,,,,,0,0,2,,,,1,,,49,55
169920,note_off,,,,,0,0,2,,,,1,,,61,64
169920,note_off,,,,,0,0,2,,,,1,,,66,64
169920,note_off,,,,,480,0,2,,,,1,,,69,64
170040,note_off,,,,,120,0,1,,,,0,,,85,64
170040,note_on,,,,,0,0,1,,,,0,,,73,65
170160,note_on,,,,,0,0,1,,,,0,,,73,63
170160,note_off,,,,,120,0,1,,,,0,,,73,64
170160,note_on,,,,,0,0,2,,,,1,,,57,47
170160,note_on,,,,,0,0,2,,,,1,,,61,59
170160,note_on,,,,,240,0,2,,,,1,,,68,57
170280,note_off,,,,,120,0,1,,,,0,,,73,64
170280,note_off,,,,,120,0,2,,,,1,,,68,64
170280,note_off,,,,,0,0,2,,,,1,,,57,64
170280,note_off,,,,,0,0,2,,,,1,,,61,64
170280,note_on,,,,,0,0,1,,,,0,,,73,69
170400,note_off,,,,,120,0,2,,,,1,,,49,64
170400,note_on,,,,,0,0,1,,,,0,,,85,77
170400,note_off,,,,,120,0,1,,,,0,,,73,64
170400,note_on,,,,,0,0,2,,,,1,,,54,57
170520,note_off,,,,,120,0,2,,,,1,,,54,64
170520,note_on,,,,,0,0,1,,,,0,,,73,61
170520,note_off,,,,,120,0,1,,,,0,,,85,64
170640,note_on,,,,,120,0,2,,,,1,,,66,65
170640,note_on,,,,,0,0,2,,,,1,,,57,51
170640,note_on,,,,,0,0,2,,,,1,,,61,47
170640,note_off,,,,,120,0,1,,,,0,,,73,64
170640,note_on,,,,,0,0,1,,,,0,,,73,69
170760,note_off,,,,,120,0,1,,,,0,,,73,64
170760,note_off,,,,,120,0,2,,,,1,,,66,64
170760,note_on,,,,,0,0,1,,,,0,,,73,73
170760,note_off,,,,,0,0,2,,,,1,,,57,64
170760,note_off,,,,,0,0,2,,,,1,,,61,64
170870,note_off,,,,,110,0,1,,,,0,,,73,64
170880,note_on,,,,,23040,0,4,,,,3,,,85,83
170880,note_on,,,,,120,0,2,,,,1,,,56,73
171000,note_off,,,,,120,0,4,,,,3,,,85,64
171000,note_on,,,,,0,0,4,,,,3,,,73,75
171120,note_on,,,,,0,0,4,,,,3,,,85,87
171120,note_off,,,,,120,0,4,,,,3,,,73,64
171240,note_off,,,,,120,0,4,,,,3,,,85,64
171240,note_on,,,,,0,0,4,,,,3,,,85,91
171360,note_on,,,,,0,0,2,,,,1,,,65,73
171360,note_on,,,,,0,0,4,,,,3,,,97,91
171360,note_off,,,,,120,0,4,,,,3,,,85,64
171360,note_off,,,,,480,0,2,,,,1,,,56,64
171360,note_on,,,,,0,0,2,,,,1,,,61,21
171360,note_on,,,,,0,0,2,,,,1,,,73,45
171480,note_on,,,,,0,0,4,,,,3,,,85,75
171480,note_off,,,,,120,0,4,,,,3,,,97,64
171600,note_on,,,,,0,0,4,,,,3,,,85,91
171600,note_off,,,,,120,0,4,,,,3,,,85,64
171720,note_on,,,,,0,0,4,,,,3,,,73,87
171720,note_off,,,,,120,0,4,,,,3,,,85,64
171840,note_off,,,,,480,0,2,,,,1,,,73,64
171840,note_off,,,,,0,0,2,,,,1,,,65,64
171840,note_on,,,,,0,0,4,,,,3,,,85,91
171840,note_on,,,,,0,0,2,,,,1,,,49,69
171840,note_off,,,,,0,0,2,,,,1,,,61,64
171840,note_off,,,,,120,0,4,,,,3,,,73,64
171960,note_on,,,,,0,0,4,,,,3,,,73,83
171960,note_off,,,,,120,0,4,,,,3,,,85,64
172080,note_off,,,,,120,0,4,,,,3,,,73,64
172080,note_on,,,,,0,0,4,,,,3,,,73,97
172200,note_off,,,,,120,0,4,,,,3,,,73,64
172200,note_on,,,,,0,0,4,,,,3,,,73,87
172320,note_on,,,,,0,0,2,,,,1,,,73,39
172320,note_off,,,,,480,0,2,,,,1,,,49,64
172320,note_off,,,,,120,0,4,,,,3,,,73,64
172320,note_on,,,,,0,0,2,,,,1,,,65,77
172320,note_on,,,,,0,0,4,,,,3,,,85,97
172320,note_on,,,,,0,0,2,,,,1,,,61,12
172440,note_on,,,,,0,0,4,,,,3,,,73,83
172440,note_off,,,,,120,0,4,,,,3,,,85,64
172560,note_on,,,,,0,0,4,,,,3,,,73,83
172560,note_off,,,,,120,0,4,,,,3,,,73,64
172680,note_off,,,,,120,0,4,,,,3,,,73,64
172680,note_on,,,,,0,0,4,,,,3,,,73,91
172800,note_on,,,,,0,0,2,,,,1,,,54,69
172800,note_off,,,,,0,0,2,,,,1,,,65,64
172800,note_off,,,,,0,0,2,,,,1,,,61,64
172800,note_off,,,,,120,0,4,,,,3,,,73,64
172800,note_off,,,,,480,0,2,,,,1,,,73,64
172800,note_on,,,,,0,0,4,,,,3,,,85,87
172920,note_off,,,,,120,0,4,,,,3,,,85,64
172920,note_on,,,,,0,0,4,,,,3,,,73,107
172920,note_off,,,,,120,0,2,,,,1,,,54,64
173040,note_on,,,,,0,0,4,,,,3,,,85,91
173040,note_off,,,,,120,0,4,,,,3,,,73,64
173160,note_on,,,,,0,0,4,,,,3,,,85,107
173160,note_off,,,,,120,0,4,,,,3,,,85,64
173280,note_on,,,,,0,0,2,,,,1,,,66,71
173280,note_on,,,,,0,0,2,,,,1,,,61,53
173280,note_on,,,,,0,0,4,,,,3,,,97,97
173280,note_off,,,,,120,0,4,,,,3,,,85,64
173280,note_on,,,,,360,0,2,,,,1,,,70,55
173400,note_off,,,,,120,0,4,,,,3,,,97,64
173400,note_on,,,,,0,0,4,,,,3,,,85,91
173520,note_off,,,,,120,0,4,,,,3,,,85,64
173520,note_on,,,,,0,0,4,,,,3,,,85,103
173640,note_off,,,,,120,0,4,,,,3,,,85,64
173640,note_on,,,,,0,0,4,,,,3,,,73,87
173760,note_off,,,,,120,0,4,,,,3,,,73,64
173760,note_on,,,,,0,0,4,,,,3,,,85,91
173760,note_off,,,,,0,0,2,,,,1,,,66,64
173760,note_off,,,,,0,0,2,,,,1,,,61,64
173760,note_off,,,,,480,0,2,,,,1,,,70,64
173760,note_on,,,,,0,0,2,,,,1,,,49,77
173880,note_on,,,,,0,0,4,,,,3,,,73,97
173880,note_off,,,,,120,0,4,,,,3,,,85,64
174000,note_on,,,,,0,0,4,,,,3,,,73,83
174000,note_off,,,,,120,0,4,,,,3,,,73,64
174120,note_on,,,,,0,0,4,,,,3,,,73,97
174120,note_off,,,,,120,0,4,,,,3,,,73,64
174240,note_on,,,,,0,0,4,,,,3,,,85,87
174240,note_off,,,,,480,0,2,,,,1,,,49,64
174240,note_on,,,,,0,0,2,,,,1,,,70,71
174240,note_on,,,,,0,0,2,,,,1,,,61,65
174240,note_off,,,,,120,0,4,,,,3,,,73,64
174240,note_on,,,,,0,0,2,,,,1,,,66,77
174360,note_on,,,,,0,0,4,,,,3,,,73,83
174360,note_off,,,,,120,0,4,,,,3,,,85,64
174480,note_off,,,,,120,0,4,,,,3,,,73,64
174480,note_on,,,,,0,0,4,,,,3,,,73,107
174600,note_off,,,,,120,0,4,,,,3,,,73,64
174600,note_on,,,,,0,0,4,,,,3,,,73,107
174720,note_off,,,,,0,0,2,,,,1,,,66,64
174720,note_on,,,,,0,0,2,,,,1,,,56,79
174720,note_off,,,,,480,0,2,,,,1,,,70,64
174720,note_off,,,,,0,0,2,,,,1,,,61,64
174720,note_on,,,,,0,0,4,,,,3,,,85,97
174720,note_off,,,,,120,0,4,,,,3,,,73,64
174750,set_tempo,,,,,9570,1,0,408163,,,,,,,
174840,note_on,,,,,0,0,4,,,,3,,,73,97
174840,note_off,,,,,120,0,2,,,,1,,,56,64
174840,note_off,,,,,120,0,4,,,,3,,,85,64
174960,note_on,,,,,0,0,2,,,,1,,,61,57
174960,note_on,,,,,0,0,4,,,,3,,,85,77
174960,note_on,,,,,120,0,2,,,,1,,,73,57
174960,note_on,,,,,0,0,2,,,,1,,,65,93
174960,note_off,,,,,120,0,4,,,,3,,,73,64
175080,note_off,,,,,0,0,2,,,,1,,,61,64
175080,note_off,,,,,0,0,2,,,,1,,,65,64
175080,note_off,,,,,120,0,4,,,,3,,,85,64
175080,note_on,,,,,0,0,4,,,,3,,,85,91
175080,note_off,,,,,120,0,2,,,,1,,,73,64
175200,note_off,,,,,120,0,4,,,,3,,,85,64
175200,note_on,,,,,0,0,4,,,,3,,,97,97
175200,note_on,,,,,120,0,2,,,,1,,,49,83
175220,set_tempo,,,,,470,1,0,413793,,,,,,,
175320,note_on,,,,,0,0,4,,,,3,,,85,118
175320,note_off,,,,,120,0,4,,,,3,,,97,64
175320,note_off,,,,,120,0,2,,,,1,,,49,64
175440,note_on,,,,,0,0,2,,,,1,,,65,97
175440,note_on,,,,,0,0,2,,,,1,,,61,73
175440,note_on,,,,,0,0,4,,,,3,,,85,115
175440,note_off,,,,,120,0,4,,,,3,,,85,64
175440,note_on,,,,,120,0,2,,,,1,,,73,79
175560,note_off,,,,,0,0,2,,,,1,,,61,64
175560,note_off,,,,,120,0,4,,,,3,,,85,64
175560,note_off,,,,,120,0,2,,,,1,,,73,64
175560,note_off,,,,,0,0,2,,,,1,,,65,64
175560,note_on,,,,,0,0,4,,,,3,,,73,107
175680,note_on,,,,,120,0,2,,,,1,,,56,79
175680,note_on,,,,,0,0,4,,,,3,,,85,93
175680,note_off,,,,,120,0,4,,,,3,,,73,64
175800,note_off,,,,,120,0,2,,,,1,,,56,64
175800,note_on,,,,,0,0,4,,,,3,,,73,93
175800,note_off,,,,,120,0,4,,,,3,,,85,64
175920,note_on,,,,,120,0,2,,,,1,,,73,55
175920,note_on,,,,,0,0,4,,,,3,,,73,97
175920,note_on,,,,,0,0,2,,,,1,,,65,93
175920,note_off,,,,,120,0,4,,,,3,,,73,64
175920,note_on,,,,,0,0,2,,,,1,,,61,49
176040,note_off,,,,,120,0,4,,,,3,,,73,64
176040,note_off,,,,,0,0,2,,,,1,,,65,64
176040,note_on,,,,,0,0,4,,,,3,,,73,93
176040,note_off,,,,,0,0,2,,,,1,,,61,64
176040,note_off,,,,,120,0,2,,,,1,,,73,64
176160,note_on,,,,,120,0,2,,,,1,,,49,73
176160,note_on,,,,,0,0,4,,,,3,,,85,87
176160,note_off,,,,,120,0,4,,,,3,,,73,64
176240,set_tempo,,,,,1020,1,0,419580,,,,,,,
176280,note_off,,,,,120,0,4,,,,3,,,85,64
176280,note_off,,,,,120,0,2,,,,1,,,49,64
176280,note_on,,,,,0,0,4,,,,3,,,73,91
176400,note_off,,,,,120,0,4,,,,3,,,73,64
176400,note_on,,,,,0,0,2,,,,1,,,65,93
176400,note_on,,,,,120,0,2,,,,1,,,73,71
176400,note_on,,,,,0,0,2,,,,1,,,61,63
176400,note_on,,,,,0,0,4,,,,3,,,73,93
176520,note_off,,,,,0,0,2,,,,1,,,65,64
176520,note_off,,,,,120,0,4,,,,3,,,73,64
176520,note_off,,,,,120,0,2,,,,1,,,73,64
176520,note_off,,,,,0,0,2,,,,1,,,61,64
176520,note_on,,,,,0,0,4,,,,3,,,73,83
176640,note_on,,,,,0,0,4,,,,3,,,85,103
176640,note_on,,,,,120,0,2,,,,1,,,54,77
176640,note_off,,,,,120,0,4,,,,3,,,73,64
176760,note_off,,,,,120,0,2,,,,1,,,54,64
176760,note_off,,,,,120,0,4,,,,3,,,85,64
176760,note_on,,,,,0,0,4,,,,3,,,73,97
176880,note_on,,,,,0,0,2,,,,1,,,66,83
176880,note_on,,,,,0,0,2,,,,1,,,61,65
176880,note_on,,,,,0,0,4,,,,3,,,85,107
176880,note_on,,,,,120,0,2,,,,1,,,70,71
176880,note_off,,,,,120,0,4,,,,3,,,73,64
177000,note_off,,,,,0,0,2,,,,1,,,61,64
177000,note_off,,,,,120,0,2,,,,1,,,70,64
177000,note_on,,,,,0,0,4,,,,3,,,85,103
177000,note_off,,,,,0,0,2,,,,1,,,66,64
177000,note_off,,,,,120,0,4,,,,3,,,85,64
177120,note_on,,,,,0,0,4,,,,3,,,97,107
177120,note_off,,,,,120,0,4,,,,3,,,85,64
177120,note_on,,,,,120,0,2,,,,1,,,49,79
177170,set_tempo,,,,,930,1,0,422535,,,,,,,
177240,note_off,,,,,120,0,4,,,,3,,,97,64
177240,note_on,,,,,0,0,4,,,,3,,,85,115
177240,note_off,,,,,120,0,2,,,,1,,,49,64
177360,note_on,,,,,0,0,4,,,,3,,,85,107
177360,note_on,,,,,120,0,2,,,,1,,,70,79
177360,note_on,,,,,0,0,2,,,,1,,,61,69
177360,note_on,,,,,0,0,2,,,,1,,,66,83
177360,note_off,,,,,120,0,4,,,,3,,,85,64
177480,note_off,,,,,120,0,4,,,,3,,,85,64
177480,note_on,,,,,0,0,4,,,,3,,,73,91
177480,note_off,,,,,0,0,2,,,,1,,,66,64
177480,note_off,,,,,120,0,2,,,,1,,,70,64
177480,note_off,,,,,0,0,2,,,,1,,,61,64
177600,note_on,,,,,0,0,4,,,,3,,,85,93
177600,note_off,,,,,120,0,4,,,,3,,,73,64
177600,note_on,,,,,120,0,2,,,,1,,,54,87
177630,set_tempo,,,,,460,1,0,428571,,,,,,,
177720,note_off,,,,,120,0,4,,,,3,,,85,64
177720,note_off,,,,,120,0,2,,,,1,,,54,64
177720,note_on,,,,,0,0,4,,,,3,,,73,91
177840,note_on,,,,,0,0,4,,,,3,,,73,107
177840,note_on,,,,,0,0,2,,,,1,,,61,73
177840,note_on,,,,,120,0,2,,,,1,,,70,87
177840,note_off,,,,,120,0,4,,,,3,,,73,64
177840,note_on,,,,,0,0,2,,,,1,,,66,87
177960,note_off,,,,,0,0,2,,,,1,,,66,64
177960,note_off,,,,,0,0,2,,,,1,,,61,64
177960,note_off,,,,,120,0,2,,,,1,,,70,64
177960,note_on,,,,,0,0,4,,,,3,,,73,103
177960,note_off,,,,,120,0,4,,,,3,,,73,64
178080,note_off,,,,,120,0,4,,,,3,,,73,64
178080,note_on,,,,,0,0,4,,,,3,,,85,118
178080,note_on,,,,,120,0,2,,,,1,,,49,87
178200,note_off,,,,,120,0,4,,,,3,,,85,64
178200,note_off,,,,,120,0,2,,,,1,,,49,64
178200,note_on,,,,,0,0,4,,,,3,,,73,97
178320,note_on,,,,,120,0,2,,,,1,,,70,83
178320,note_on,,,,,0,0,4,,,,3,,,73,103
178320,note_on,,,,,0,0,2,,,,1,,,61,73
178320,note_off,,,,,120,0,4,,,,3,,,73,64
178320,note_on,,,,,0,0,2,,,,1,,,66,91
178440,note_off,,,,,120,0,4,,,,3,,,73,64
178440,note_off,,,,,0,0,2,,,,1,,,66,64
178440,note_off,,,,,120,0,2,,,,1,,,70,64
178440,note_on,,,,,0,0,4,,,,3,,,73,115
178440,note_off,,,,,0,0,2,,,,1,,,61,64
178560,note_on,,,,,120,0,2,,,,1,,,56,87
178560,note_on,,,,,0,0,4,,,,3,,,85,115
178560,note_off,,,,,120,0,4,,,,3,,,73,64
178600,set_tempo,,,,,970,1,0,434782,,,,,,,
178680,note_off,,,,,120,0,2,,,,1,,,56,64
178680,note_on,,,,,0,0,4,,,,3,,,73,107
178680,note_off,,,,,120,0,4,,,,3,,,85,64
178800,note_on,,,,,120,0,2,,,,1,,,73,77
178800,note_on,,,,,0,0,2,,,,1,,,61,71
178800,note_on,,,,,0,0,4,,,,3,,,85,118
178800,note_on,,,,,0,0,2,,,,1,,,65,97
178800,note_off,,,,,120,0,4,,,,3,,,73,64
178920,note_off,,,,,0,0,2,,,,1,,,61,64
178920,note_off,,,,,0,0,2,,,,1,,,65,64
178920,note_off,,,,,120,0,2,,,,1,,,73,64
178920,note_off,,,,,120,0,4,,,,3,,,85,64
178920,note_on,,,,,0,0,4,,,,3,,,85,122
179020,set_tempo,,,,,420,1,0,437956,,,,,,,
179040,note_on,,,,,120,0,2,,,,1,,,49,97
179040,note_on,,,,,0,0,4,,,,3,,,97,107
179040,note_off,,,,,120,0,4,,,,3,,,85,64
179160,note_on,,,,,0,0,4,,,,3,,,85,118
179160,note_off,,,,,120,0,2,,,,1,,,49,64
179160,note_off,,,,,120,0,4,,,,3,,,97,64
179280,note_on,,,,,0,0,2,,,,1,,,61,63
179280,note_on,,,,,0,0,2,,,,1,,,65,103
179280,note_on,,,,,120,0,2,,,,1,,,73,73
179280,note_off,,,,,120,0,4,,,,3,,,85,64
179280,note_on,,,,,0,0,4,,,,3,,,85,107
179400,note_off,,,,,120,0,4,,,,3,,,85,64
179400,note_on,,,,,0,0,4,,,,3,,,73,115
179400,note_off,,,,,0,0,2,,,,1,,,65,64
179400,note_off,,,,,120,0,2,,,,1,,,73,64
179400,note_off,,,,,0,0,2,,,,1,,,61,64
179520,note_on,,,,,120,0,2,,,,1,,,56,93
179520,note_on,,,,,0,0,4,,,,3,,,85,121
179520,note_off,,,,,120,0,4,,,,3,,,73,64
179550,set_tempo,,,,,530,1,0,441176,,,,,,,
179640,note_off,,,,,120,0,4,,,,3,,,85,64
179640,note_off,,,,,120,0,2,,,,1,,,56,64
179640,note_on,,,,,0,0,4,,,,3,,,73,121
179760,note_on,,,,,0,0,2,,,,1,,,61,71
179760,note_on,,,,,0,0,2,,,,1,,,65,107
179760,note_on,,,,,120,0,2,,,,1,,,73,87
179760,note_off,,,,,120,0,4,,,,3,,,73,64
179760,note_on,,,,,0,0,4,,,,3,,,85,121
179790,set_tempo,,,,,240,1,0,444444,,,,,,,
179880,note_on,,,,,0,0,4,,,,3,,,85,122
179880,note_off,,,,,120,0,2,,,,1,,,73,64
179880,note_off,,,,,0,0,2,,,,1,,,65,64
179880,note_off,,,,,0,0,2,,,,1,,,61,64
179880,note_off,,,,,120,0,4,,,,3,,,85,64
180000,note_on,,,,,0,0,4,,,,3,,,97,115
180000,note_on,,,,,120,0,2,,,,1,,,49,107
180000,note_off,,,,,120,0,4,,,,3,,,85,64
180050,set_tempo,,,,,260,1,0,447761,,,,,,,
180120,note_on,,,,,0,0,4,,,,3,,,85,115
180120,note_off,,,,,120,0,2,,,,1,,,49,64
180120,note_off,,,,,120,0,4,,,,3,,,97,64
180240,note_on,,,,,120,0,2,,,,1,,,73,77
180240,note_on,,,,,0,0,4,,,,3,,,85,118
180240,note_on,,,,,0,0,2,,,,1,,,65,107
180240,note_off,,,,,120,0,4,,,,3,,,85,64
180240,note_on,,,,,0,0,2,,,,1,,,61,71
180280,set_tempo,,,,,230,1,0,454545,,,,,,,
180360,note_on,,,,,0,0,4,,,,3,,,73,118
180360,note_off,,,,,0,0,2,,,,1,,,65,64
180360,note_off,,,,,0,0,2,,,,1,,,61,64
180360,note_off,,,,,120,0,2,,,,1,,,73,64
180360,note_off,,,,,120,0,4,,,,3,,,85,64
180480,note_on,,,,,120,0,2,,,,1,,,54,107
180480,note_off,,,,,120,0,4,,,,3,,,73,64
180480,note_on,,,,,0,0,4,,,,3,,,85,122
180600,note_off,,,,,120,0,4,,,,3,,,85,64
180600,note_on,,,,,0,0,4,,,,3,,,73,118
180600,note_off,,,,,120,0,2,,,,1,,,54,64
180720,note_on,,,,,120,0,2,,,,1,,,70,91
180720,note_on,,,,,0,0,2,,,,1,,,66,97
180720,note_on,,,,,0,0,2,,,,1,,,61,79
180720,note_off,,,,,120,0,4,,,,3,,,73,64
180720,note_on,,,,,0,0,4,,,,3,,,85,121
180770,set_tempo,,,,,490,1,0,458015,,,,,,,
180840,note_on,,,,,0,0,4,,,,3,,,85,121
180840,note_off,,,,,120,0,4,,,,3,,,85,64
180840,note_off,,,,,0,0,2,,,,1,,,66,64
180840,note_off,,,,,0,0,2,,,,1,,,61,64
180840,note_off,,,,,120,0,2,,,,1,,,70,64
180960,note_on,,,,,0,0,4,,,,3,,,97,121
180960,note_off,,,,,120,0,4,,,,3,,,85,64
180960,note_on,,,,,120,0,2,,,,1,,,49,107
181030,set_tempo,,,,,260,1,0,461538,,,,,,,
181080,note_off,,,,,120,0,2,,,,1,,,49,64
181080,note_on,,,,,0,0,4,,,,3,,,85,121
181080,note_off,,,,,120,0,4,,,,3,,,97,64
181200,note_on,,,,,120,0,2,,,,1,,,70,97
181200,note_on,,,,,0,0,2,,,,1,,,66,97
181200,note_on,,,,,0,0,2,,,,1,,,61,87
181200,note_on,,,,,0,0,4,,,,3,,,85,122
181200,note_off,,,,,120,0,4,,,,3,,,85,64
181280,set_tempo,,,,,250,1,0,465116,,,,,,,
181320,note_off,,,,,0,0,2,,,,1,,,61,64
181320,note_off,,,,,0,0,2,,,,1,,,66,64
181320,note_off,,,,,120,0,4,,,,3,,,85,64
181320,note_on,,,,,0,0,4,,,,3,,,73,121
181320,note_off,,,,,120,0,2,,,,1,,,70,64
181440,note_on,,,,,0,0,4,,,,3,,,85,121
181440,note_on,,,,,120,0,2,,,,1,,,54,121
181440,note_off,,,,,120,0,4,,,,3,,,73,64
181520,set_tempo,,,,,240,1,0,468750,,,,,,,
181560,note_off,,,,,120,0,4,,,,3,,,85,64
181560,note_on,,,,,0,0,4,,,,3,,,73,122
181560,note_off,,,,,120,0,2,,,,1,,,54,64
181680,note_off,,,,,120,0,4,,,,3,,,73,64
181680,note_on,,,,,0,0,2,,,,1,,,66,107
181680,note_on,,,,,120,0,2,,,,1,,,70,97
181680,note_on,,,,,0,0,2,,,,1,,,61,97
181680,note_on,,,,,0,0,4,,,,3,,,85,122
181760,set_tempo,,,,,240,1,0,476190,,,,,,,
181800,note_off,,,,,120,0,2,,,,1,,,70,64
181800,note_on,,,,,0,0,4,,,,3,,,85,125
181800,note_off,,,,,0,0,2,,,,1,,,66,64
181800,note_off,,,,,0,0,2,,,,1,,,61,64
181800,note_off,,,,,120,0,4,,,,3,,,85,64
181920,note_on,,,,,120,0,2,,,,1,,,49,115
181920,note_on,,,,,0,0,4,,,,3,,,97,122
181920,note_off,,,,,120,0,4,,,,3,,,85,64
182040,note_on,,,,,0,0,4,,,,3,,,85,122
182040,note_off,,,,,120,0,2,,,,1,,,49,64
182040,note_off,,,,,120,0,4,,,,3,,,97,64
182160,note_on,,,,,0,0,4,,,,3,,,85,122
182160,note_on,,,,,120,0,2,,,,1,,,70,107
182160,note_on,,,,,0,0,2,,,,1,,,66,118
182160,note_on,,,,,0,0,2,,,,1,,,61,103
182160,note_off,,,,,120,0,4,,,,3,,,85,64
182250,set_tempo,,,,,490,1,0,480000,,,,,,,
182280,note_on,,,,,0,0,4,,,,3,,,73,125
182280,note_off,,,,,120,0,4,,,,3,,,85,64
182280,note_off,,,,,0,0,2,,,,1,,,61,64
182280,note_off,,,,,0,0,2,,,,1,,,66,64
182280,note_off,,,,,120,0,2,,,,1,,,70,64
182390,note_off,,,,,110,0,4,,,,3,,,73,64
182400,note_on,,,,,120,0,2,,,,1,,,56,122
182400,note_on,,,,,0,0,2,,,,1,,,44,118
182400,note_on,,,,,0,0,1,,,,0,,,72,127
182400,note_on,,,,,0,0,1,,,,0,,,77,127
182400,note_on,,,,,11530,0,1,,,,0,,,84,127
182520,note_off,,,,,120,0,2,,,,1,,,56,64
182520,note_off,,,,,120,0,1,,,,0,,,84,64
182520,note_off,,,,,0,0,1,,,,0,,,77,64
182520,note_off,,,,,0,0,2,,,,1,,,44,64
182520,note_off,,,,,0,0,1,,,,0,,,72,64
182640,note_on,,,,,0,0,2,,,,1,,,61,122
182640,note_on,,,,,0,0,1,,,,0,,,80,127
182640,note_on,,,,,0,0,1,,,,0,,,73,127
182640,note_on,,,,,120,0,1,,,,0,,,85,117
182640,note_on,,,,,0,0,2,,,,1,,,56,118
182640,note_on,,,,,120,0,2,,,,1,,,65,121
182760,note_off,,,,,0,0,1,,,,0,,,73,64
182760,note_off,,,,,0,0,2,,,,1,,,56,64
182760,note_off,,,,,120,0,1,,,,0,,,85,64
182760,note_off,,,,,0,0,2,,,,1,,,61,64
182760,note_off,,,,,120,0,2,,,,1,,,65,64
182760,note_off,,,,,0,0,1,,,,0,,,80,64
182880,note_on,,,,,0,0,1,,,,0,,,77,127
182880,note_on,,,,,0,0,2,,,,1,,,49,122
182880,set_tempo,,,,,630,1,0,476190,,,,,,,
182880,note_on,,,,,120,0,1,,,,0,,,83,125
182880,note_on,,,,,0,0,1,,,,0,,,71,117
182880,note_on,,,,,120,0,2,,,,1,,,37,122
183000,note_off,,,,,120,0,2,,,,1,,,37,64
183000,note_off,,,,,0,0,2,,,,1,,,49,64
183120,note_on,,,,,0,0,2,,,,1,,,56,118
183120,note_on,,,,,0,0,2,,,,1,,,61,122
183120,note_on,,,,,120,0,2,,,,1,,,65,118
183240,note_off,,,,,0,0,1,,,,0,,,71,64
183240,note_off,,,,,120,0,2,,,,1,,,65,64
183240,note_off,,,,,0,0,1,,,,0,,,77,64
183240,note_on,,,,,0,0,1,,,,0,,,85,127
183240,note_on,,,,,0,0,1,,,,0,,,73,127
183240,note_off,,,,,360,0,1,,,,0,,,83,64
183240,note_off,,,,,0,0,2,,,,1,,,61,64
183240,note_off,,,,,0,0,2,,,,1,,,56,64
183360,note_on,,,,,0,0,1,,,,0,,,77,127
183360,note_off,,,,,0,0,1,,,,0,,,73,64
183360,note_on,,,,,0,0,1,,,,0,,,84,127
183360,note_on,,,,,120,0,2,,,,1,,,56,121
183360,note_on,,,,,0,0,1,,,,0,,,72,117
183360,note_off,,,,,120,0,1,,,,0,,,85,64
183360,note_on,,,,,0,0,2,,,,1,,,44,118
183380,set_tempo,,,,,500,1,0,468750,,,,,,,
183480,note_off,,,,,0,0,1,,,,0,,,72,64
183480,note_off,,,,,0,0,2,,,,1,,,44,64
183480,note_off,,,,,0,0,1,,,,0,,,77,64
183480,note_off,,,,,120,0,1,,,,0,,,84,64
183480,note_off,,,,,120,0,2,,,,1,,,56,64
183600,note_on,,,,,0,0,2,,,,1,,,56,121
183600,note_on,,,,,120,0,2,,,,1,,,65,122
183600,note_on,,,,,0,0,1,,,,0,,,73,127
183600,note_on,,,,,0,0,1,,,,0,,,80,127
183600,note_on,,,,,120,0,1,,,,0,,,85,127
183600,note_on,,,,,0,0,2,,,,1,,,61,122
183610,set_tempo,,,,,230,1,0,465116,,,,,,,
183640,set_tempo,,,,,30,1,0,461538,,,,,,,
183720,note_off,,,,,120,0,1,,,,0,,,85,64
183720,note_off,,,,,120,0,2,,,,1,,,65,64
183720,note_off,,,,,0,0,2,,,,1,,,61,64
183720,note_off,,,,,0,0,2,,,,1,,,56,64
183720,note_off,,,,,0,0,1,,,,0,,,80,64
183720,note_off,,,,,0,0,1,,,,0,,,73,64
183840,note_on,,,,,0,0,1,,,,0,,,71,117
183840,note_on,,,,,0,0,1,,,,0,,,77,127
183840,note_on,,,,,120,0,1,,,,0,,,83,125
183840,note_on,,,,,120,0,2,,,,1,,,37,121
183840,note_on,,,,,0,0,2,,,,1,,,49,122
183860,set_tempo,,,,,220,1,0,458015,,,,,,,
183960,note_off,,,,,0,0,2,,,,1,,,49,64
183960,note_off,,,,,120,0,2,,,,1,,,37,64
184080,note_on,,,,,0,0,2,,,,1,,,56,118
184080,note_on,,,,,120,0,2,,,,1,,,65,122
184080,note_on,,,,,0,0,2,,,,1,,,61,121
184100,set_tempo,,,,,240,1,0,454545,,,,,,,
184200,note_off,,,,,0,0,2,,,,1,,,56,64
184200,note_off,,,,,360,0,1,,,,0,,,83,64
184200,note_on,,,,,0,0,1,,,,0,,,85,125
184200,note_off,,,,,0,0,1,,,,0,,,71,64
184200,note_off,,,,,0,0,2,,,,1,,,61,64
184200,note_off,,,,,0,0,1,,,,0,,,77,64
184200,note_off,,,,,120,0,2,,,,1,,,65,64
184200,note_on,,,,,0,0,1,,,,0,,,73,127
184320,note_on,,,,,120,0,2,,,,1,,,54,121
184320,note_off,,,,,120,0,1,,,,0,,,85,64
184320,note_off,,,,,0,0,1,,,,0,,,73,64
184320,note_on,,,,,0,0,1,,,,0,,,84,125
184320,note_on,,,,,0,0,1,,,,0,,,81,127
184320,note_on,,,,,0,0,1,,,,0,,,72,117
184320,note_on,,,,,0,0,2,,,,1,,,42,118
184440,note_off,,,,,0,0,1,,,,0,,,72,64
184440,note_off,,,,,120,0,1,,,,0,,,84,64
184440,note_off,,,,,120,0,2,,,,1,,,54,64
184440,note_off,,,,,0,0,1,,,,0,,,81,64
184440,note_off,,,,,0,0,2,,,,1,,,42,64
184560,note_on,,,,,120,0,1,,,,0,,,85,125
184560,note_on,,,,,0,0,1,,,,0,,,82,125
184560,note_on,,,,,0,0,1,,,,0,,,73,127
184560,note_on,,,,,0,0,2,,,,1,,,58,121
184560,note_on,,,,,0,0,2,,,,1,,,61,122
184560,note_on,,,,,120,0,2,,,,1,,,66,118
184560,set_tempo,,,,,460,1,0,447761,,,,,,,
184680,note_off,,,,,0,0,2,,,,1,,,61,64
184680,note_off,,,,,0,0,2,,,,1,,,58,64
184680,note_off,,,,,0,0,1,,,,0,,,82,64
184680,note_off,,,,,0,0,1,,,,0,,,73,64
184680,note_off,,,,,120,0,2,,,,1,,,66,64
184680,note_off,,,,,120,0,1,,,,0,,,85,64
184800,note_on,,,,,0,0,2,,,,1,,,49,125
184800,note_on,,,,,120,0,1,,,,0,,,82,127
184800,note_on,,,,,0,0,1,,,,0,,,70,127
184800,note_on,,,,,120,0,2,,,,1,,,37,121
184800,note_on,,,,,0,0,1,,,,0,,,78,125
184800,set_tempo,,,,,240,1,0,444444,,,,,,,
184920,note_off,,,,,0,0,2,,,,1,,,49,64
184920,note_off,,,,,120,0,2,,,,1,,,37,64
185030,set_tempo,,,,,230,1,0,441176,,,,,,,
185040,note_on,,,,,0,0,2,,,,1,,,58,121
185040,note_on,,,,,120,0,2,,,,1,,,66,121
185040,note_on,,,,,0,0,2,,,,1,,,61,122
185160,note_on,,,,,0,0,1,,,,0,,,73,127
185160,note_off,,,,,120,0,2,,,,1,,,66,64
185160,note_off,,,,,0,0,2,,,,1,,,61,64
185160,note_off,,,,,0,0,1,,,,0,,,78,64
185160,note_off,,,,,0,0,1,,,,0,,,70,64
185160,note_off,,,,,0,0,2,,,,1,,,58,64
185160,note_on,,,,,0,0,1,,,,0,,,85,125
185160,note_on,,,,,0,0,1,,,,0,,,82,127
185160,note_off,,,,,360,0,1,,,,0,,,82,64
185250,set_tempo,,,,,220,1,0,437956,,,,,,,
185280,note_off,,,,,120,0,1,,,,0,,,85,64
185280,note_on,,,,,0,0,2,,,,1,,,42,118
185280,note_off,,,,,0,0,1,,,,0,,,73,64
185280,note_off,,,,,0,0,1,,,,0,,,82,64
185280,note_on,,,,,120,0,2,,,,1,,,54,121
185280,note_on,,,,,0,0,1,,,,0,,,84,127
185280,note_on,,,,,0,0,1,,,,0,,,81,127
185280,note_on,,,,,0,0,1,,,,0,,,72,117
185400,note_off,,,,,0,0,1,,,,0,,,81,64
185400,note_off,,,,,0,0,2,,,,1,,,42,64
185400,note_off,,,,,120,0,1,,,,0,,,84,64
185400,note_off,,,,,0,0,1,,,,0,,,72,64
185400,note_off,,,,,120,0,2,,,,1,,,54,64
185520,note_on,,,,,0,0,1,,,,0,,,82,127
185520,note_on,,,,,0,0,1,,,,0,,,73,127
185520,note_on,,,,,120,0,1,,,,0,,,85,127
185520,note_on,,,,,0,0,2,,,,1,,,58,122
185520,note_on,,,,,0,0,2,,,,1,,,61,121
185520,note_on,,,,,120,0,2,,,,1,,,66,118
185640,note_off,,,,,0,0,1,,,,0,,,73,64
185640,note_off,,,,,0,0,1,,,,0,,,82,64
185640,note_off,,,,,0,0,2,,,,1,,,58,64
185640,note_off,,,,,120,0,2,,,,1,,,66,64
185640,note_off,,,,,120,0,1,,,,0,,,85,64
185640,note_off,,,,,0,0,2,,,,1,,,61,64
185710,set_tempo,,,,,460,1,0,434782,,,,,,,
185760,note_on,,,,,120,0,2,,,,1,,,37,118
185760,note_on,,,,,0,0,2,,,,1,,,49,122
185760,note_on,,,,,120,0,1,,,,0,,,82,125
185760,note_on,,,,,0,0,1,,,,0,,,70,117
185760,note_on,,,,,0,0,1,,,,0,,,78,127
185880,note_off,,,,,120,0,2,,,,1,,,37,64
185880,note_off,,,,,0,0,2,,,,1,,,49,64
185940,set_tempo,,,,,230,1,0,428571,,,,,,,
186000,note_on,,,,,120,0,2,,,,1,,,66,118
186000,note_on,,,,,0,0,2,,,,1,,,58,122
186000,note_on,,,,,0,0,2,,,,1,,,61,122
186120,note_on,,,,,0,0,1,,,,0,,,73,127
186120,note_off,,,,,0,0,1,,,,0,,,70,64
186120,note_off,,,,,0,0,2,,,,1,,,61,64
186120,note_off,,,,,0,0,2,,,,1,,,58,64
186120,note_off,,,,,0,0,1,,,,0,,,78,64
186120,note_off,,,,,360,0,1,,,,0,,,82,64
186120,note_on,,,,,0,0,1,,,,0,,,85,125
186120,note_on,,,,,0,0,1,,,,0,,,82,127
186120,note_off,,,,,120,0,2,,,,1,,,66,64
186240,note_on,,,,,0,0,1,,,,0,,,84,127
186240,note_on,,,,,0,0,1,,,,0,,,72,127
186240,note_on,,,,,120,0,2,,,,1,,,56,122
186240,note_off,,,,,0,0,1,,,,0,,,73,64
186240,note_off,,,,,0,0,1,,,,0,,,82,64
186240,note_on,,,,,0,0,2,,,,1,,,44,121
186240,note_off,,,,,120,0,1,,,,0,,,85,64
186360,note_off,,,,,0,0,1,,,,0,,,72,64
186360,note_off,,,,,0,0,2,,,,1,,,44,64
186360,note_off,,,,,120,0,1,,,,0,,,84,64
186360,note_off,,,,,120,0,2,,,,1,,,56,64
186410,set_tempo,,,,,470,1,0,422535,,,,,,,
186480,note_on,,,,,0,0,1,,,,0,,,80,127
186480,note_on,,,,,120,0,1,,,,0,,,85,117
186480,note_on,,,,,0,0,2,,,,1,,,61,122
186480,note_on,,,,,0,0,1,,,,0,,,73,127
186480,note_on,,,,,120,0,2,,,,1,,,65,121
186600,note_off,,,,,0,0,2,,,,1,,,61,64
186600,note_off,,,,,120,0,2,,,,1,,,65,64
186600,note_off,,,,,120,0,1,,,,0,,,85,64
186600,note_off,,,,,0,0,1,,,,0,,,73,64
186600,note_off,,,,,0,0,1,,,,0,,,80,64
186680,set_tempo,,,,,270,1,0,419580,,,,,,,
186720,note_on,,,,,120,0,2,,,,1,,,37,118
186720,note_on,,,,,0,0,2,,,,1,,,49,122
186720,note_on,,,,,0,0,1,,,,0,,,75,127
186720,note_on,,,,,0,0,1,,,,0,,,83,127
186720,note_on,,,,,120,0,1,,,,0,,,87,125
186840,note_off,,,,,120,0,2,,,,1,,,37,64
186840,note_off,,,,,0,0,2,,,,1,,,49,64
186960,note_on,,,,,0,0,2,,,,1,,,61,122
186960,note_on,,,,,120,0,2,,,,1,,,65,121
186960,note_on,,,,,0,0,2,,,,1,,,59,122
187080,note_on,,,,,0,0,1,,,,0,,,80,127
187080,note_off,,,,,360,0,1,,,,0,,,87,64
187080,note_off,,,,,0,0,2,,,,1,,,59,64
187080,note_on,,,,,0,0,1,,,,0,,,85,127
187080,note_off,,,,,0,0,2,,,,1,,,61,64
187080,note_off,,,,,120,0,2,,,,1,,,65,64
187080,note_on,,,,,0,0,1,,,,0,,,73,127
187080,note_off,,,,,0,0,1,,,,0,,,83,64
187080,note_off,,,,,0,0,1,,,,0,,,75,64
187150,set_tempo,,,,,470,1,0,413793,,,,,,,
187200,note_on,,,,,120,0,2,,,,1,,,56,121
187200,note_off,,,,,0,0,1,,,,0,,,80,64
187200,note_on,,,,,0,0,1,,,,0,,,72,127
187200,note_on,,,,,0,0,2,,,,1,,,44,121
187200,note_off,,,,,120,0,1,,,,0,,,85,64
187200,note_off,,,,,0,0,1,,,,0,,,73,64
187200,note_on,,,,,0,0,1,,,,0,,,84,127
187320,note_off,,,,,0,0,1,,,,0,,,72,64
187320,note_off,,,,,0,0,2,,,,1,,,44,64
187320,note_off,,,,,120,0,2,,,,1,,,56,64
187320,note_off,,,,,120,0,1,,,,0,,,84,64
187440,note_on,,,,,120,0,1,,,,0,,,85,127
187440,note_on,,,,,0,0,2,,,,1,,,59,122
187440,note_on,,,,,0,0,1,,,,0,,,73,127
187440,note_on,,,,,0,0,1,,,,0,,,80,125
187440,note_on,,,,,120,0,2,,,,1,,,65,121
187440,note_on,,,,,0,0,2,,,,1,,,61,121
187560,note_off,,,,,120,0,1,,,,0,,,85,64
187560,note_off,,,,,0,0,2,,,,1,,,61,64
187560,note_off,,,,,0,0,2,,,,1,,,59,64
187560,note_off,,,,,0,0,1,,,,0,,,73,64
187560,note_off,,,,,120,0,2,,,,1,,,65,64
187560,note_off,,,,,0,0,1,,,,0,,,80,64
187640,set_tempo,,,,,490,1,0,408163,,,,,,,
187680,note_on,,,,,0,0,1,,,,0,,,75,125
187680,note_on,,,,,0,0,2,,,,1,,,49,121
187680,note_on,,,,,120,0,2,,,,1,,,37,118
187680,note_on,,,,,120,0,1,,,,0,,,87,125
187680,note_on,,,,,0,0,1,,,,0,,,83,127
187800,note_off,,,,,120,0,2,,,,1,,,37,64
187800,note_off,,,,,0,0,2,,,,1,,,49,64
187870,set_tempo,,,,,230,1,0,405405,,,,,,,
187920,note_on,,,,,120,0,2,,,,1,,,65,121
187920,note_on,,,,,0,0,2,,,,1,,,59,122
187920,note_on,,,,,0,0,2,,,,1,,,61,122
188040,note_off,,,,,0,0,2,,,,1,,,59,64
188040,note_off,,,,,0,0,2,,,,1,,,61,64
188040,note_off,,,,,0,0,1,,,,0,,,75,64
188040,note_off,,,,,0,0,1,,,,0,,,83,64
188040,note_off,,,,,120,0,2,,,,1,,,65,64
188040,note_on,,,,,0,0,1,,,,0,,,73,127
188040,note_on,,,,,0,0,1,,,,0,,,80,125
188040,note_on,,,,,0,0,1,,,,0,,,85,125
188040,note_off,,,,,360,0,1,,,,0,,,87,64
188160,note_off,,,,,0,0,1,,,,0,,,73,64
188160,note_off,,,,,120,0,1,,,,0,,,85,64
188160,note_on,,,,,0,0,2,,,,1,,,42,118
188160,note_on,,,,,0,0,1,,,,0,,,72,117
188160,note_on,,,,,0,0,1,,,,0,,,81,127
188160,note_on,,,,,0,0,1,,,,0,,,84,127
188160,note_on,,,,,120,0,2,,,,1,,,54,121
188160,note_off,,,,,0,0,1,,,,0,,,80,64
188280,note_off,,,,,120,0,2,,,,1,,,54,64
188280,note_off,,,,,120,0,1,,,,0,,,84,64
188280,note_off,,,,,0,0,2,,,,1,,,42,64
188280,note_off,,,,,0,0,1,,,,0,,,72,64
188280,note_off,,,,,0,0,1,,,,0,,,81,64
188370,set_tempo,,,,,500,1,0,400000,,,,,,,
188400,note_on,,,,,120,0,2,,,,1,,,66,121
188400,note_on,,,,,0,0,1,,,,0,,,73,127
188400,note_on,,,,,0,0,1,,,,0,,,82,125
188400,note_on,,,,,120,0,1,,,,0,,,85,125
188400,note_on,,,,,0,0,2,,,,1,,,58,122
188400,note_on,,,,,0,0,2,,,,1,,,61,122
188520,note_off,,,,,0,0,1,,,,0,,,73,64
188520,note_off,,,,,0,0,1,,,,0,,,82,64
188520,note_off,,,,,120,0,2,,,,1,,,66,64
188520,note_off,,,,,120,0,1,,,,0,,,85,64
188520,note_off,,,,,0,0,2,,,,1,,,58,64
188520,note_off,,,,,0,0,2,,,,1,,,61,64
188640,note_on,,,,,120,0,1,,,,0,,,90,127
188640,note_on,,,,,0,0,2,,,,1,,,49,121
188640,note_on,,,,,120,0,2,,,,1,,,37,122
188640,note_on,,,,,0,0,1,,,,0,,,82,127
188640,note_on,,,,,0,0,1,,,,0,,,78,127
188760,note_off,,,,,120,0,2,,,,1,,,37,64
188760,note_off,,,,,0,0,2,,,,1,,,49,64
188860,set_tempo,,,,,490,1,0,397350,,,,,,,
188880,note_on,,,,,0,0,2,,,,1,,,58,122
188880,note_on,,,,,120,0,2,,,,1,,,66,121
188880,note_on,,,,,0,0,2,,,,1,,,61,122
189000,note_off,,,,,0,0,2,,,,1,,,61,64
189000,note_off,,,,,0,0,1,,,,0,,,78,64
189000,note_off,,,,,0,0,1,,,,0,,,82,64
189000,note_off,,,,,360,0,1,,,,0,,,90,64
189000,note_off,,,,,0,0,2,,,,1,,,58,64
189000,note_on,,,,,0,0,1,,,,0,,,73,127
189000,note_on,,,,,0,0,1,,,,0,,,85,127
189000,note_off,,,,,120,0,2,,,,1,,,66,64
189100,set_tempo,,,,,240,1,0,394736,,,,,,,
189120,note_on,,,,,0,0,1,,,,0,,,72,127
189120,note_off,,,,,120,0,1,,,,0,,,85,64
189120,note_on,,,,,0,0,2,,,,1,,,42,118
189120,note_on,,,,,120,0,2,,,,1,,,54,122
189120,note_on,,,,,0,0,1,,,,0,,,84,125
189120,note_off,,,,,0,0,1,,,,0,,,73,64
189120,note_on,,,,,0,0,1,,,,0,,,81,127
189240,note_off,,,,,120,0,1,,,,0,,,84,64
189240,note_off,,,,,120,0,2,,,,1,,,54,64
189240,note_off,,,,,0,0,1,,,,0,,,81,64
189240,note_off,,,,,0,0,1,,,,0,,,72,64
189240,note_off,,,,,0,0,2,,,,1,,,42,64
189340,set_tempo,,,,,240,1,0,389610,,,,,,,
189360,note_on,,,,,0,0,1,,,,0,,,73,127
189360,note_on,,,,,0,0,1,,,,0,,,82,127
189360,note_on,,,,,120,0,2,,,,1,,,66,118
189360,note_on,,,,,0,0,2,,,,1,,,61,122
189360,note_on,,,,,0,0,2,,,,1,,,58,122
189360,note_on,,,,,120,0,1,,,,0,,,85,127
189480,note_off,,,,,0,0,1,,,,0,,,82,64
189480,note_off,,,,,120,0,2,,,,1,,,66,64
189480,note_off,,,,,120,0,1,,,,0,,,85,64
189480,note_off,,,,,0,0,2,,,,1,,,61,64
189480,note_off,,,,,0,0,1,,,,0,,,73,64
189480,note_off,,,,,0,0,2,,,,1,,,58,64
189600,note_on,,,,,120,0,1,,,,0,,,90,127
189600,note_on,,,,,0,0,2,,,,1,,,49,121
189600,note_on,,,,,0,0,1,,,,0,,,82,127
189600,note_on,,,,,120,0,2,,,,1,,,37,118
189600,note_on,,,,,0,0,1,,,,0,,,78,127
189720,note_off,,,,,120,0,2,,,,1,,,37,64
189720,note_off,,,,,0,0,2,,,,1,,,49,64
189840,note_on,,,,,0,0,2,,,,1,,,61,122
189840,note_on,,,,,120,0,2,,,,1,,,66,121
189840,note_on,,,,,0,0,2,,,,1,,,58,122
189860,set_tempo,,,,,520,1,0,384615,,,,,,,
189960,note_off,,,,,0,0,1,,,,0,,,82,64
189960,note_off,,,,,0,0,2,,,,1,,,61,64
189960,note_off,,,,,360,0,1,,,,0,,,90,64
189960,note_off,,,,,0,0,1,,,,0,,,78,64
189960,note_off,,,,,120,0,2,,,,1,,,66,64
189960,note_off,,,,,0,0,2,,,,1,,,58,64
189960,note_on,,,,,0,0,1,,,,0,,,73,127
189960,note_on,,,,,0,0,1,,,,0,,,85,127
190070,note_off,,,,,110,0,1,,,,0,,,85,64
190070,note_off,,,,,0,0,1,,,,0,,,73,64
190080,note_on,,,,,10,0,1,,,,0,,,84,111
190080,note_on,,,,,120,0,2,,,,1,,,56,97
190080,note_on,,,,,0,0,1,,,,0,,,72,111
190080,note_on,,,,,0,0,1,,,,0,,,77,112
190200,note_off,,,,,0,0,1,,,,0,,,72,64
190200,note_off,,,,,120,0,1,,,,0,,,84,64
190200,note_off,,,,,0,0,1,,,,0,,,77,64
190320,note_on,,,,,0,0,2,,,,1,,,65,83
190320,note_on,,,,,0,0,1,,,,0,,,80,111
190320,note_on,,,,,120,0,1,,,,0,,,85,97
190320,note_off,,,,,240,0,2,,,,1,,,56,64
190320,note_on,,,,,0,0,2,,,,1,,,61,93
190320,note_on,,,,,0,0,1,,,,0,,,73,108
190350,set_tempo,,,,,490,1,0,382165,,,,,,,
190440,note_off,,,,,120,0,1,,,,0,,,85,64
190440,note_off,,,,,0,0,1,,,,0,,,73,64
190440,note_off,,,,,0,0,1,,,,0,,,80,64
190560,note_on,,,,,0,0,2,,,,1,,,49,97
190560,note_on,,,,,0,0,1,,,,0,,,71,97
190560,note_on,,,,,120,0,1,,,,0,,,83,105
190560,note_off,,,,,240,0,2,,,,1,,,65,64
190560,note_on,,,,,0,0,1,,,,0,,,77,111
190560,note_off,,,,,0,0,2,,,,1,,,61,64
190800,note_off,,,,,240,0,2,,,,1,,,49,64
190800,note_on,,,,,0,0,2,,,,1,,,65,93
190800,note_on,,,,,0,0,2,,,,1,,,61,93
190800,note_on,,,,,0,0,2,,,,1,,,56,77
190920,note_on,,,,,0,0,1,,,,0,,,73,111
190920,note_off,,,,,0,0,1,,,,0,,,71,64
190920,note_off,,,,,0,0,1,,,,0,,,77,64
190920,note_off,,,,,360,0,1,,,,0,,,83,64
190920,note_on,,,,,0,0,1,,,,0,,,85,111
190950,set_tempo,,,,,600,1,0,377358,,,,,,,
191040,note_on,,,,,0,0,2,,,,1,,,44,83
191040,note_off,,,,,240,0,2,,,,1,,,65,64
191040,note_off,,,,,120,0,1,,,,0,,,85,64
191040,note_on,,,,,0,0,1,,,,0,,,84,108
191040,note_on,,,,,0,0,1,,,,0,,,72,97
191040,note_off,,,,,0,0,1,,,,0,,,73,64
191040,note_off,,,,,0,0,2,,,,1,,,61,64
191040,note_off,,,,,0,0,2,,,,1,,,56,64
191040,note_on,,,,,0,0,1,,,,0,,,77,111
191160,note_off,,,,,0,0,1,,,,0,,,72,64
191160,note_off,,,,,120,0,1,,,,0,,,84,64
191160,note_off,,,,,0,0,1,,,,0,,,77,64
191280,note_on,,,,,0,0,2,,,,1,,,61,93
191280,note_on,,,,,0,0,2,,,,1,,,56,87
191280,note_on,,,,,0,0,1,,,,0,,,73,111
191280,note_off,,,,,240,0,2,,,,1,,,44,64
191280,note_on,,,,,0,0,1,,,,0,,,80,111
191280,note_on,,,,,0,0,2,,,,1,,,65,97
191280,note_on,,,,,120,0,1,,,,0,,,85,111
191400,note_off,,,,,120,0,1,,,,0,,,85,64
191400,note_off,,,,,0,0,1,,,,0,,,80,64
191400,note_off,,,,,0,0,1,,,,0,,,73,64
191510,set_tempo,,,,,560,1,0,375000,,,,,,,
191520,note_on,,,,,0,0,2,,,,1,,,37,115
191520,note_off,,,,,240,0,2,,,,1,,,65,64
191520,note_on,,,,,0,0,1,,,,0,,,77,111
191520,note_off,,,,,0,0,2,,,,1,,,61,64
191520,note_off,,,,,0,0,2,,,,1,,,56,64
191520,note_on,,,,,120,0,1,,,,0,,,83,105
191520,note_on,,,,,0,0,1,,,,0,,,71,97
191760,note_off,,,,,240,0,2,,,,1,,,37,64
191760,note_on,,,,,0,0,2,,,,1,,,56,83
191760,note_on,,,,,0,0,2,,,,1,,,61,93
191760,note_on,,,,,0,0,2,,,,1,,,65,97
191880,note_off,,,,,360,0,1,,,,0,,,83,64
191880,note_on,,,,,0,0,1,,,,0,,,73,111
191880,note_off,,,,,0,0,1,,,,0,,,77,64
191880,note_off,,,,,0,0,1,,,,0,,,71,64
191880,note_on,,,,,0,0,1,,,,0,,,85,105
192000,note_off,,,,,240,0,2,,,,1,,,65,64
192000,note_on,,,,,0,0,1,,,,0,,,72,97
192000,note_on,,,,,0,0,1,,,,0,,,84,105
192000,note_on,,,,,0,0,1,,,,0,,,81,111
192000,note_off,,,,,120,0,1,,,,0,,,85,64
192000,note_off,,,,,0,0,2,,,,1,,,61,64
192000,note_off,,,,,0,0,1,,,,0,,,73,64
192000,note_off,,,,,0,0,2,,,,1,,,56,64
192000,note_on,,,,,0,0,2,,,,1,,,54,97
192120,note_off,,,,,120,0,1,,,,0,,,84,64
192120,note_off,,,,,0,0,1,,,,0,,,72,64
192120,note_off,,,,,0,0,1,,,,0,,,81,64
192240,note_off,,,,,240,0,2,,,,1,,,54,64
192240,note_on,,,,,0,0,1,,,,0,,,82,105
192240,note_on,,,,,0,0,2,,,,1,,,61,103
192240,note_on,,,,,0,0,2,,,,1,,,66,93
192240,note_on,,,,,0,0,1,,,,0,,,73,108
192240,note_on,,,,,0,0,2,,,,1,,,58,91
192240,note_on,,,,,120,0,1,,,,0,,,85,105
192360,note_off,,,,,120,0,1,,,,0,,,85,64
192360,note_off,,,,,0,0,1,,,,0,,,73,64
192360,note_off,,,,,0,0,1,,,,0,,,82,64
192480,note_on,,,,,120,0,1,,,,0,,,82,111
192480,note_on,,,,,0,0,1,,,,0,,,70,108
192480,note_off,,,,,0,0,2,,,,1,,,58,64
192480,note_off,,,,,0,0,2,,,,1,,,61,64
192480,note_off,,,,,240,0,2,,,,1,,,66,64
192480,note_on,,,,,0,0,1,,,,0,,,78,105
192480,note_on,,,,,0,0,2,,,,1,,,49,107
192720,note_off,,,,,240,0,2,,,,1,,,49,64
192720,note_on,,,,,0,0,2,,,,1,,,66,91
192720,note_on,,,,,0,0,2,,,,1,,,58,83
192720,note_on,,,,,0,0,2,,,,1,,,61,97
192840,note_on,,,,,0,0,1,,,,0,,,85,105
192840,note_off,,,,,360,0,1,,,,0,,,82,64
192840,note_on,,,,,0,0,1,,,,0,,,82,112
192840,note_on,,,,,0,0,1,,,,0,,,73,111
192840,note_off,,,,,0,0,1,,,,0,,,70,64
192840,note_off,,,,,0,0,1,,,,0,,,78,64
192960,note_off,,,,,0,0,2,,,,1,,,58,64
192960,note_off,,,,,0,0,2,,,,1,,,61,64
192960,note_off,,,,,0,0,1,,,,0,,,82,64
192960,note_on,,,,,0,0,1,,,,0,,,84,108
192960,note_on,,,,,0,0,1,,,,0,,,81,111
192960,note_on,,,,,0,0,1,,,,0,,,72,97
192960,note_off,,,,,120,0,1,,,,0,,,85,64
192960,note_on,,,,,0,0,2,,,,1,,,42,91
192960,note_off,,,,,0,0,1,,,,0,,,73,64
192960,note_off,,,,,240,0,2,,,,1,,,66,64
193080,note_off,,,,,0,0,1,,,,0,,,81,64
193080,note_off,,,,,0,0,1,,,,0,,,72,64
193080,note_off,,,,,120,0,1,,,,0,,,84,64
193200,note_off,,,,,240,0,2,,,,1,,,42,64
193200,note_on,,,,,120,0,1,,,,0,,,85,108
193200,note_on,,,,,0,0,1,,,,0,,,82,111
193200,note_on,,,,,0,0,1,,,,0,,,73,111
193200,note_on,,,,,0,0,2,,,,1,,,58,79
193200,note_on,,,,,0,0,2,,,,1,,,61,97
193200,note_on,,,,,0,0,2,,,,1,,,66,93
193320,note_off,,,,,0,0,1,,,,0,,,73,64
193320,note_off,,,,,0,0,1,,,,0,,,82,64
193320,note_off,,,,,120,0,1,,,,0,,,85,64
193440,note_off,,,,,240,0,2,,,,1,,,66,64
193440,note_off,,,,,0,0,2,,,,1,,,61,64
193440,note_on,,,,,0,0,1,,,,0,,,78,108
193440,note_on,,,,,120,0,1,,,,0,,,82,105
193440,note_on,,,,,0,0,2,,,,1,,,37,103
193440,note_off,,,,,0,0,2,,,,1,,,58,64
193440,note_on,,,,,0,0,1,,,,0,,,70,97
193680,note_on,,,,,0,0,2,,,,1,,,61,103
193680,note_on,,,,,0,0,2,,,,1,,,58,91
193680,note_on,,,,,0,0,2,,,,1,,,66,93
193680,note_off,,,,,240,0,2,,,,1,,,37,64
193800,note_off,,,,,0,0,1,,,,0,,,70,64
193800,note_on,,,,,0,0,1,,,,0,,,73,108
193800,note_on,,,,,0,0,1,,,,0,,,82,108
193800,note_on,,,,,0,0,1,,,,0,,,85,105
193800,note_off,,,,,360,0,1,,,,0,,,82,64
193800,note_off,,,,,0,0,1,,,,0,,,78,64
193920,note_off,,,,,0,0,1,,,,0,,,73,64
193920,note_off,,,,,0,0,1,,,,0,,,82,64
193920,note_off,,,,,0,0,2,,,,1,,,58,64
193920,note_off,,,,,120,0,1,,,,0,,,85,64
193920,note_on,,,,,0,0,1,,,,0,,,72,108
193920,note_on,,,,,0,0,2,,,,1,,,56,97
193920,note_off,,,,,0,0,2,,,,1,,,61,64
193920,note_off,,,,,240,0,2,,,,1,,,66,64
193920,note_on,,,,,0,0,1,,,,0,,,84,108
194040,note_off,,,,,0,0,1,,,,0,,,72,64
194040,note_off,,,,,120,0,1,,,,0,,,84,64
194160,note_on,,,,,0,0,2,,,,1,,,61,118
194160,note_on,,,,,120,0,1,,,,0,,,85,97
194160,note_on,,,,,0,0,1,,,,0,,,80,111
194160,note_on,,,,,0,0,1,,,,0,,,73,108
194160,note_on,,,,,0,0,2,,,,1,,,65,107
194160,note_off,,,,,240,0,2,,,,1,,,56,64
194280,note_off,,,,,120,0,1,,,,0,,,85,64
194280,note_off,,,,,0,0,1,,,,0,,,80,64
194280,note_off,,,,,0,0,1,,,,0,,,73,64
194400,note_off,,,,,240,0,2,,,,1,,,65,64
194400,note_on,,,,,120,0,1,,,,0,,,87,105
194400,note_off,,,,,0,0,2,,,,1,,,61,64
194400,note_on,,,,,0,0,2,,,,1,,,49,107
194400,note_on,,,,,0,0,1,,,,0,,,75,108
194400,note_on,,,,,0,0,1,,,,0,,,83,108
194640,note_on,,,,,0,0,2,,,,1,,,65,97
194640,note_on,,,,,0,0,2,,,,1,,,61,103
194640,note_on,,,,,0,0,2,,,,1,,,56,87
194640,note_off,,,,,240,0,2,,,,1,,,49,64
194760,note_on,,,,,0,0,1,,,,0,,,85,108
194760,note_on,,,,,0,0,1,,,,0,,,73,108
194760,note_on,,,,,0,0,1,,,,0,,,80,108
194760,note_off,,,,,0,0,1,,,,0,,,83,64
194760,note_off,,,,,360,0,1,,,,0,,,87,64
194760,note_off,,,,,0,0,1,,,,0,,,75,64
194880,note_on,,,,,0,0,2,,,,1,,,44,107
194880,note_off,,,,,240,0,2,,,,1,,,65,64
194880,note_off,,,,,0,0,1,,,,0,,,73,64
194880,note_off,,,,,0,0,1,,,,0,,,80,64
194880,note_on,,,,,0,0,1,,,,0,,,84,108
194880,note_off,,,,,0,0,2,,,,1,,,56,64
194880,note_off,,,,,120,0,1,,,,0,,,85,64
194880,note_on,,,,,0,0,1,,,,0,,,72,111
194880,note_off,,,,,0,0,2,,,,1,,,61,64
195000,note_off,,,,,120,0,1,,,,0,,,84,64
195000,note_off,,,,,0,0,1,,,,0,,,72,64
195120,note_off,,,,,240,0,2,,,,1,,,44,64
195120,note_on,,,,,0,0,1,,,,0,,,73,108
195120,note_on,,,,,0,0,1,,,,0,,,80,105
195120,note_on,,,,,0,0,2,,,,1,,,56,87
195120,note_on,,,,,0,0,2,,,,1,,,65,93
195120,note_on,,,,,0,0,2,,,,1,,,61,93
195120,note_on,,,,,120,0,1,,,,0,,,85,108
195240,note_off,,,,,120,0,1,,,,0,,,85,64
195240,note_off,,,,,0,0,1,,,,0,,,80,64
195240,note_off,,,,,0,0,1,,,,0,,,73,64
195360,note_on,,,,,120,0,1,,,,0,,,87,105
195360,note_off,,,,,240,0,2,,,,1,,,65,64
195360,note_on,,,,,0,0,1,,,,0,,,83,108
195360,note_off,,,,,0,0,2,,,,1,,,61,64
195360,note_on,,,,,0,0,1,,,,0,,,75,105
195360,note_off,,,,,0,0,2,,,,1,,,56,64
195360,note_on,,,,,0,0,2,,,,1,,,37,121
195600,note_off,,,,,240,0,2,,,,1,,,37,64
195600,note_on,,,,,0,0,2,,,,1,,,65,103
195600,note_on,,,,,0,0,2,,,,1,,,61,97
195600,note_on,,,,,0,0,2,,,,1,,,56,91
195720,note_on,,,,,0,0,1,,,,0,,,85,105
195720,note_off,,,,,0,0,1,,,,0,,,75,64
195720,note_on,,,,,0,0,1,,,,0,,,73,108
195720,note_on,,,,,0,0,1,,,,0,,,80,105
195720,note_off,,,,,360,0,1,,,,0,,,87,64
195720,note_off,,,,,0,0,1,,,,0,,,83,64
195840,note_off,,,,,120,0,1,,,,0,,,85,64
195840,note_off,,,,,0,0,1,,,,0,,,80,64
195840,note_off,,,,,0,0,2,,,,1,,,56,64
195840,note_on,,,,,0,0,1,,,,0,,,81,112
195840,note_on,,,,,0,0,1,,,,0,,,84,108
195840,note_off,,,,,0,0,2,,,,1,,,61,64
195840,note_off,,,,,240,0,2,,,,1,,,65,64
195840,note_on,,,,,0,0,2,,,,1,,,54,118
195840,note_on,,,,,0,0,1,,,,0,,,72,97
195840,note_off,,,,,0,0,1,,,,0,,,73,64
195960,note_off,,,,,0,0,1,,,,0,,,72,64
195960,note_off,,,,,0,0,1,,,,0,,,81,64
195960,note_off,,,,,120,0,1,,,,0,,,84,64
196080,note_off,,,,,240,0,2,,,,1,,,54,64
196080,note_on,,,,,0,0,2,,,,1,,,66,93
196080,note_on,,,,,0,0,2,,,,1,,,61,115
196080,note_on,,,,,0,0,2,,,,1,,,58,91
196080,note_on,,,,,120,0,1,,,,0,,,85,105
196080,note_on,,,,,0,0,1,,,,0,,,82,105
196080,note_on,,,,,0,0,1,,,,0,,,73,108
196200,note_off,,,,,0,0,1,,,,0,,,73,64
196200,note_off,,,,,0,0,1,,,,0,,,82,64
196200,note_off,,,,,120,0,1,,,,0,,,85,64
196320,note_on,,,,,0,0,2,,,,1,,,49,121
196320,note_on,,,,,120,0,1,,,,0,,,90,108
196320,note_off,,,,,0,0,2,,,,1,,,61,64
196320,note_off,,,,,0,0,2,,,,1,,,58,64
196320,note_on,,,,,0,0,1,,,,0,,,78,108
196320,note_on,,,,,0,0,1,,,,0,,,82,108
196320,note_off,,,,,240,0,2,,,,1,,,66,64
196560,note_on,,,,,0,0,2,,,,1,,,66,93
196560,note_on,,,,,0,0,2,,,,1,,,61,103
196560,note_off,,,,,240,0,2,,,,1,,,49,64
196560,note_on,,,,,0,0,2,,,,1,,,58,93
196680,note_on,,,,,0,0,1,,,,0,,,73,108
196680,note_on,,,,,0,0,1,,,,0,,,85,108
196680,note_off,,,,,360,0,1,,,,0,,,90,64
196680,note_off,,,,,0,0,1,,,,0,,,78,64
196680,note_off,,,,,0,0,1,,,,0,,,82,64
196800,note_off,,,,,120,0,1,,,,0,,,85,64
196800,note_off,,,,,0,0,2,,,,1,,,58,64
196800,note_off,,,,,0,0,2,,,,1,,,61,64
196800,note_off,,,,,240,0,2,,,,1,,,66,64
196800,note_on,,,,,0,0,1,,,,0,,,84,105
196800,note_on,,,,,0,0,1,,,,0,,,81,112
196800,note_on,,,,,0,0,1,,,,0,,,72,108
196800,note_off,,,,,0,0,1,,,,0,,,73,64
196800,note_on,,,,,0,0,2,,,,1,,,42,121
196920,note_off,,,,,0,0,1,,,,0,,,72,64
196920,note_off,,,,,0,0,1,,,,0,,,81,64
196920,note_off,,,,,120,0,1,,,,0,,,84,64
197040,note_on,,,,,0,0,2,,,,1,,,61,118
197040,note_on,,,,,0,0,2,,,,1,,,66,93
197040,note_on,,,,,120,0,1,,,,0,,,85,108
197040,note_on,,,,,0,0,1,,,,0,,,73,108
197040,note_on,,,,,0,0,1,,,,0,,,82,112
197040,note_on,,,,,0,0,2,,,,1,,,58,97
197040,note_off,,,,,240,0,2,,,,1,,,42,64
197160,note_off,,,,,0,0,1,,,,0,,,73,64
197160,note_off,,,,,0,0,1,,,,0,,,82,64
197160,note_off,,,,,120,0,1,,,,0,,,85,64
197280,note_on,,,,,0,0,1,,,,0,,,82,111
197280,note_on,,,,,0,0,2,,,,1,,,37,115
197280,note_on,,,,,120,0,1,,,,0,,,90,111
197280,note_on,,,,,0,0,1,,,,0,,,78,108
197280,note_off,,,,,0,0,2,,,,1,,,61,64
197280,note_off,,,,,0,0,2,,,,1,,,58,64
197280,note_off,,,,,240,0,2,,,,1,,,66,64
197520,note_on,,,,,0,0,2,,,,1,,,58,97
197520,note_on,,,,,0,0,2,,,,1,,,61,107
197520,note_on,,,,,0,0,2,,,,1,,,66,103
197520,note_off,,,,,240,0,2,,,,1,,,37,64
197640,note_off,,,,,0,0,1,,,,0,,,82,64
197640,note_off,,,,,360,0,1,,,,0,,,90,64
197640,note_off,,,,,0,0,1,,,,0,,,78,64
197640,note_on,,,,,0,0,1,,,,0,,,73,111
197640,note_on,,,,,0,0,1,,,,0,,,85,111
197750,note_off,,,,,110,0,1,,,,0,,,85,64
197750,note_off,,,,,0,0,2,,,,1,,,58,64
197750,note_off,,,,,0,0,2,,,,1,,,61,64
197750,note_off,,,,,230,0,2,,,,1,,,66,64
197750,note_off,,,,,0,0,1,,,,0,,,73,64
197760,note_on,,,,,10,0,2,,,,1,,,54,77
197760,note_on,,,,,0,0,1,,,,0,,,83,97
197760,note_on,,,,,0,0,1,,,,0,,,75,91
197760,note_on,,,,,10,0,1,,,,0,,,87,83
197880,note_off,,,,,120,0,1,,,,0,,,87,64
197880,note_off,,,,,0,0,1,,,,0,,,75,64
197880,note_off,,,,,0,0,1,,,,0,,,83,64
198000,note_on,,,,,120,0,1,,,,0,,,83,103
198000,note_on,,,,,0,0,2,,,,1,,,59,67
198000,note_on,,,,,0,0,1,,,,0,,,78,93
198000,note_off,,,,,240,0,2,,,,1,,,54,64
198000,note_on,,,,,0,0,2,,,,1,,,63,73
198120,note_off,,,,,0,0,1,,,,0,,,78,64
198120,note_off,,,,,120,0,1,,,,0,,,83,64
198240,note_on,,,,,0,0,1,,,,0,,,75,91
198240,note_on,,,,,120,0,1,,,,0,,,78,83
198240,note_off,,,,,0,0,2,,,,1,,,59,64
198240,note_off,,,,,240,0,2,,,,1,,,63,64
198240,note_on,,,,,0,0,2,,,,1,,,49,79
198360,note_off,,,,,0,0,1,,,,0,,,75,64
198360,note_off,,,,,120,0,1,,,,0,,,78,64
198480,note_on,,,,,120,0,1,,,,0,,,75,91
198480,note_on,,,,,0,0,2,,,,1,,,66,77
198480,note_off,,,,,240,0,2,,,,1,,,49,64
198480,note_on,,,,,0,0,1,,,,0,,,71,79
198480,note_on,,,,,0,0,2,,,,1,,,63,91
198600,note_off,,,,,0,0,1,,,,0,,,71,64
198600,note_off,,,,,120,0,1,,,,0,,,75,64
198720,note_off,,,,,240,0,2,,,,1,,,66,64
198720,note_on,,,,,0,0,2,,,,1,,,54,83
198720,note_on,,,,,0,0,1,,,,0,,,75,87
198720,note_off,,,,,0,0,2,,,,1,,,63,64
198720,note_on,,,,,120,0,1,,,,0,,,78,91
198840,note_off,,,,,120,0,1,,,,0,,,78,64
198840,note_off,,,,,0,0,1,,,,0,,,75,64
198960,note_on,,,,,0,0,2,,,,1,,,63,91
198960,note_on,,,,,0,0,1,,,,0,,,78,87
198960,note_off,,,,,240,0,2,,,,1,,,54,64
198960,note_on,,,,,120,0,1,,,,0,,,83,103
198960,note_on,,,,,0,0,2,,,,1,,,59,73
199080,note_off,,,,,120,0,1,,,,0,,,83,64
199080,note_off,,,,,0,0,1,,,,0,,,78,64
199200,note_on,,,,,0,0,2,,,,1,,,49,75
199200,note_off,,,,,240,0,2,,,,1,,,63,64
199200,note_on,,,,,120,0,1,,,,0,,,87,91
199200,note_off,,,,,0,0,2,,,,1,,,59,64
199200,note_on,,,,,0,0,1,,,,0,,,83,97
199320,note_off,,,,,120,0,1,,,,0,,,87,64
199320,note_off,,,,,0,0,1,,,,0,,,83,64
199440,note_on,,,,,0,0,2,,,,1,,,63,93
199440,note_off,,,,,240,0,2,,,,1,,,49,64
199440,note_on,,,,,0,0,1,,,,0,,,87,107
199440,note_on,,,,,0,0,2,,,,1,,,66,91
199440,note_on,,,,,120,0,1,,,,0,,,90,115
199560,note_off,,,,,0,0,1,,,,0,,,87,64
199560,note_off,,,,,120,0,1,,,,0,,,90,64
199680,note_off,,,,,0,0,2,,,,1,,,63,64
199680,note_on,,,,,120,0,1,,,,0,,,85,97
199680,note_on,,,,,0,0,1,,,,0,,,82,93
199680,note_on,,,,,0,0,2,,,,1,,,54,65
199680,note_off,,,,,240,0,2,,,,1,,,66,64
199680,note_on,,,,,0,0,1,,,,0,,,73,79
199800,note_off,,,,,120,0,1,,,,0,,,85,64
199800,note_off,,,,,0,0,1,,,,0,,,82,64
199800,note_off,,,,,0,0,1,,,,0,,,73,64
199920,note_on,,,,,0,0,1,,,,0,,,78,97
199920,note_on,,,,,120,0,1,,,,0,,,82,97
199920,note_off,,,,,240,0,2,,,,1,,,54,64
199920,note_on,,,,,0,0,2,,,,1,,,61,79
199920,note_on,,,,,0,0,2,,,,1,,,58,77
200040,note_off,,,,,0,0,1,,,,0,,,78,64
200040,note_off,,,,,120,0,1,,,,0,,,82,64
200160,note_on,,,,,120,0,1,,,,0,,,78,93
200160,note_off,,,,,0,0,2,,,,1,,,58,64
200160,note_off,,,,,240,0,2,,,,1,,,61,64
200160,note_on,,,,,0,0,1,,,,0,,,73,93
200160,note_on,,,,,0,0,2,,,,1,,,49,83
200280,note_off,,,,,0,0,1,,,,0,,,73,64
200280,note_off,,,,,120,0,1,,,,0,,,78,64
200400,note_on,,,,,0,0,2,,,,1,,,66,75
200400,note_on,,,,,0,0,2,,,,1,,,61,87
200400,note_on,,,,,120,0,1,,,,0,,,73,91
200400,note_off,,,,,240,0,2,,,,1,,,49,64
200400,note_on,,,,,0,0,1,,,,0,,,70,87
200520,note_off,,,,,0,0,1,,,,0,,,70,64
200520,note_off,,,,,120,0,1,,,,0,,,73,64
200640,note_on,,,,,120,0,1,,,,0,,,78,91
200640,note_on,,,,,0,0,2,,,,1,,,54,83
200640,note_off,,,,,0,0,2,,,,1,,,61,64
200640,note_on,,,,,0,0,1,,,,0,,,73,93
200640,note_off,,,,,240,0,2,,,,1,,,66,64
200760,note_off,,,,,0,0,1,,,,0,,,73,64
200760,note_off,,,,,120,0,1,,,,0,,,78,64
200880,note_on,,,,,120,0,1,,,,0,,,82,91
200880,note_on,,,,,0,0,1,,,,0,,,78,97
200880,note_off,,,,,240,0,2,,,,1,,,54,64
200880,note_on,,,,,0,0,2,,,,1,,,58,83
200880,note_on,,,,,0,0,2,,,,1,,,61,83
201000,note_off,,,,,0,0,1,,,,0,,,78,64
201000,note_off,,,,,120,0,1,,,,0,,,82,64
201120,note_on,,,,,0,0,2,,,,1,,,49,83
201120,note_on,,,,,0,0,1,,,,0,,,73,87
201120,note_on,,,,,0,0,1,,,,0,,,78,97
201120,note_off,,,,,0,0,2,,,,1,,,58,64
201120,note_off,,,,,240,0,2,,,,1,,,61,64
201120,note_on,,,,,120,0,1,,,,0,,,85,93
201120,note_on,,,,,0,0,1,,,,0,,,82,93
201360,note_on,,,,,0,0,2,,,,1,,,66,79
201360,note_on,,,,,0,0,2,,,,1,,,61,83
201360,note_off,,,,,240,0,2,,,,1,,,49,64
201600,note_off,,,,,0,0,1,,,,0,,,82,64
201600,note_off,,,,,0,0,2,,,,1,,,61,64
201600,note_off,,,,,480,0,1,,,,0,,,85,64
201600,note_off,,,,,0,0,1,,,,0,,,73,64
201600,note_off,,,,,0,0,1,,,,0,,,78,64
201600,note_on,,,,,0,0,1,,,,0,,,75,91
201600,note_off,,,,,240,0,2,,,,1,,,66,64
201600,note_on,,,,,0,0,2,,,,1,,,54,83
201630,note_on,,,,,30,0,1,,,,0,,,78,97
201660,note_on,,,,,30,0,1,,,,0,,,83,97
201690,note_on,,,,,30,0,1,,,,0,,,87,97
201840,note_on,,,,,0,0,1,,,,0,,,83,97
201840,note_on,,,,,0,0,1,,,,0,,,78,87
201840,note_off,,,,,240,0,2,,,,1,,,54,64
201840,note_on,,,,,0,0,2,,,,1,,,59,77
201840,note_off,,,,,150,0,1,,,,0,,,75,64
201840,note_on,,,,,0,0,2,,,,1,,,63,83
201840,note_off,,,,,0,0,1,,,,0,,,87,64
201840,note_off,,,,,0,0,1,,,,0,,,78,64
201840,note_off,,,,,0,0,1,,,,0,,,83,64
201960,note_off,,,,,120,0,1,,,,0,,,83,64
201960,note_off,,,,,0,0,1,,,,0,,,78,64
202080,note_off,,,,,240,0,2,,,,1,,,63,64
202080,note_on,,,,,0,0,1,,,,0,,,75,83
202080,note_off,,,,,0,0,2,,,,1,,,59,64
202080,note_on,,,,,0,0,2,,,,1,,,49,83
202080,note_on,,,,,120,0,1,,,,0,,,78,87
202200,note_off,,,,,0,0,1,,,,0,,,75,64
202200,note_off,,,,,120,0,1,,,,0,,,78,64
202320,note_on,,,,,0,0,1,,,,0,,,71,91
202320,note_off,,,,,240,0,2,,,,1,,,49,64
202320,note_on,,,,,0,0,2,,,,1,,,63,91
202320,note_on,,,,,0,0,2,,,,1,,,66,79
202320,note_on,,,,,120,0,1,,,,0,,,75,97
202440,note_off,,,,,0,0,1,,,,0,,,71,64
202440,note_off,,,,,120,0,1,,,,0,,,75,64
202560,note_off,,,,,0,0,2,,,,1,,,63,64
202560,note_on,,,,,120,0,1,,,,0,,,78,87
202560,note_on,,,,,0,0,2,,,,1,,,54,83
202560,note_on,,,,,0,0,1,,,,0,,,75,91
202560,note_off,,,,,240,0,2,,,,1,,,66,64
202680,note_off,,,,,120,0,1,,,,0,,,78,64
202680,note_off,,,,,0,0,1,,,,0,,,75,64
202800,note_on,,,,,0,0,2,,,,1,,,59,59
202800,note_on,,,,,0,0,2,,,,1,,,63,79
202800,note_on,,,,,0,0,1,,,,0,,,78,91
202800,note_off,,,,,240,0,2,,,,1,,,54,64
202800,note_on,,,,,120,0,1,,,,0,,,83,97
202920,note_off,,,,,0,0,1,,,,0,,,78,64
202920,note_off,,,,,120,0,1,,,,0,,,83,64
203040,note_on,,,,,120,0,1,,,,0,,,87,91
203040,note_on,,,,,0,0,1,,,,0,,,83,97
203040,note_on,,,,,0,0,2,,,,1,,,49,83
203040,note_off,,,,,240,0,2,,,,1,,,63,64
203040,note_off,,,,,0,0,2,,,,1,,,59,64
203160,note_off,,,,,120,0,1,,,,0,,,87,64
203160,note_off,,,,,0,0,1,,,,0,,,83,64
203280,note_off,,,,,240,0,2,,,,1,,,49,64
203280,note_on,,,,,120,0,1,,,,0,,,90,103
203280,note_on,,,,,0,0,2,,,,1,,,63,87
203280,note_on,,,,,0,0,2,,,,1,,,66,75
203280,note_on,,,,,0,0,1,,,,0,,,87,103
203400,note_off,,,,,0,0,1,,,,0,,,87,64
203400,note_off,,,,,120,0,1,,,,0,,,90,64
203520,note_off,,,,,0,0,2,,,,1,,,63,64
203520,note_off,,,,,240,0,2,,,,1,,,66,64
203520,note_on,,,,,0,0,2,,,,1,,,54,77
203520,note_on,,,,,120,0,1,,,,0,,,85,79
203520,note_on,,,,,0,0,1,,,,0,,,82,91
203640,note_off,,,,,0,0,1,,,,0,,,82,64
203640,note_off,,,,,120,0,1,,,,0,,,85,64
203760,note_off,,,,,240,0,2,,,,1,,,54,64
203760,note_on,,,,,0,0,1,,,,0,,,78,91
203760,note_on,,,,,0,0,2,,,,1,,,61,83
203760,note_on,,,,,0,0,2,,,,1,,,58,91
203760,note_on,,,,,120,0,1,,,,0,,,82,93
203880,note_off,,,,,120,0,1,,,,0,,,82,64
203880,note_off,,,,,0,0,1,,,,0,,,78,64
204000,note_on,,,,,0,0,1,,,,0,,,73,91
204000,note_on,,,,,0,0,2,,,,1,,,49,79
204000,note_off,,,,,240,0,2,,,,1,,,61,64
204000,note_on,,,,,120,0,1,,,,0,,,78,87
204000,note_off,,,,,0,0,2,,,,1,,,58,64
204120,note_off,,,,,0,0,1,,,,0,,,73,64
204120,note_off,,,,,120,0,1,,,,0,,,78,64
204240,note_on,,,,,0,0,1,,,,0,,,70,83
204240,note_on,,,,,0,0,2,,,,1,,,61,87
204240,note_off,,,,,240,0,2,,,,1,,,49,64
204240,note_on,,,,,0,0,2,,,,1,,,66,79
204240,note_on,,,,,120,0,1,,,,0,,,73,87
204360,note_off,,,,,0,0,1,,,,0,,,70,64
204360,note_off,,,,,120,0,1,,,,0,,,73,64
204480,note_on,,,,,120,0,1,,,,0,,,78,91
204480,note_on,,,,,0,0,1,,,,0,,,73,93
204480,note_off,,,,,0,0,2,,,,1,,,61,64
204480,note_off,,,,,240,0,2,,,,1,,,66,64
204480,note_on,,,,,0,0,2,,,,1,,,54,77
204600,note_off,,,,,120,0,1,,,,0,,,78,64
204600,note_off,,,,,0,0,1,,,,0,,,73,64
204720,note_on,,,,,0,0,2,,,,1,,,61,87
204720,note_on,,,,,0,0,2,,,,1,,,58,83
204720,note_on,,,,,120,0,1,,,,0,,,82,97
204720,note_on,,,,,0,0,1,,,,0,,,78,93
204720,note_off,,,,,240,0,2,,,,1,,,54,64
204840,note_off,,,,,0,0,1,,,,0,,,78,64
204840,note_off,,,,,120,0,1,,,,0,,,82,64
204960,note_on,,,,,0,0,1,,,,0,,,73,87
204960,note_on,,,,,0,0,1,,,,0,,,78,97
204960,note_on,,,,,0,0,2,,,,1,,,49,83
204960,note_off,,,,,0,0,2,,,,1,,,58,64
204960,note_on,,,,,120,0,1,,,,0,,,85,97
204960,note_off,,,,,240,0,2,,,,1,,,61,64
204960,note_on,,,,,0,0,1,,,,0,,,82,93
205200,note_on,,,,,0,0,2,,,,1,,,66,79
205200,note_off,,,,,240,0,2,,,,1,,,49,64
205200,note_on,,,,,0,0,2,,,,1,,,61,79
205430,note_off,,,,,0,0,1,,,,0,,,73,64
205430,note_off,,,,,0,0,1,,,,0,,,82,64
205430,note_off,,,,,470,0,1,,,,0,,,85,64
205430,note_off,,,,,230,0,2,,,,1,,,66,64
205430,note_off,,,,,0,0,1,,,,0,,,78,64
205430,note_off,,,,,0,0,2,,,,1,,,61,64
205440,note_on,,,,,10,0,2,,,,1,,,56,79
205440,note_on,,,,,10,0,1,,,,0,,,84,111
205560,note_off,,,,,120,0,1,,,,0,,,84,64
205560,note_on,,,,,23170,0,4,,,,3,,,97,93
205680,note_on,,,,,0,0,2,,,,1,,,65,87
205680,note_off,,,,,120,0,4,,,,3,,,97,64
205680,note_on,,,,,120,0,1,,,,0,,,85,111
205680,note_on,,,,,0,0,2,,,,1,,,61,77
205680,note_off,,,,,240,0,2,,,,1,,,56,64
205800,note_off,,,,,120,0,1,,,,0,,,85,64
205800,note_on,,,,,120,0,4,,,,3,,,97,91
205920,note_off,,,,,240,0,2,,,,1,,,65,64
205920,note_off,,,,,0,0,2,,,,1,,,61,64
205920,note_off,,,,,120,0,4,,,,3,,,97,64
205920,note_on,,,,,0,0,2,,,,1,,,49,91
205920,note_on,,,,,120,0,1,,,,0,,,83,105
206040,note_on,,,,,120,0,4,,,,3,,,97,79
206160,note_on,,,,,0,0,1,,,,0,,,85,111
206160,note_on,,,,,0,0,2,,,,1,,,61,69
206160,note_on,,,,,0,0,2,,,,1,,,65,83
206160,note_off,,,,,240,0,1,,,,0,,,83,64
206160,note_off,,,,,120,0,4,,,,3,,,97,64
206160,note_off,,,,,240,0,2,,,,1,,,49,64
206280,note_on,,,,,120,0,4,,,,3,,,97,87
206390,note_off,,,,,110,0,4,,,,3,,,97,64
206400,note_off,,,,,240,0,2,,,,1,,,65,64
206400,note_on,,,,,0,0,1,,,,0,,,84,105
206400,note_on,,,,,0,0,2,,,,1,,,68,79
206400,note_off,,,,,0,0,2,,,,1,,,61,64
206400,note_off,,,,,240,0,1,,,,0,,,85,64
206520,note_on,,,,,130,0,4,,,,3,,,97,93
206520,note_off,,,,,120,0,1,,,,0,,,84,64
206640,note_on,,,,,0,0,2,,,,1,,,77,79
206640,note_on,,,,,120,0,1,,,,0,,,85,101
206640,note_off,,,,,120,0,4,,,,3,,,97,64
206640,note_off,,,,,240,0,2,,,,1,,,68,64
206640,note_on,,,,,0,0,2,,,,1,,,73,75
206760,note_off,,,,,120,0,1,,,,0,,,85,64
206760,note_on,,,,,120,0,4,,,,3,,,97,91
206880,note_on,,,,,0,0,2,,,,1,,,61,75
206880,note_on,,,,,120,0,1,,,,0,,,83,101
206880,note_off,,,,,240,0,2,,,,1,,,77,64
206880,note_off,,,,,120,0,4,,,,3,,,97,64
206880,note_off,,,,,0,0,2,,,,1,,,73,64
207000,note_on,,,,,120,0,4,,,,3,,,97,79
207120,note_off,,,,,240,0,1,,,,0,,,83,64
207120,note_on,,,,,0,0,1,,,,0,,,85,105
207120,note_off,,,,,240,0,2,,,,1,,,61,64
207120,note_on,,,,,0,0,2,,,,1,,,73,77
207120,note_on,,,,,0,0,2,,,,1,,,77,97
207120,note_off,,,,,120,0,4,,,,3,,,97,64
207240,note_on,,,,,120,0,4,,,,3,,,97,87
207350,note_off,,,,,110,0,4,,,,3,,,97,64
207360,note_on,,,,,0,0,2,,,,1,,,54,77
207360,note_off,,,,,240,0,2,,,,1,,,77,64
207360,note_off,,,,,0,0,2,,,,1,,,73,64
207360,note_on,,,,,0,0,1,,,,0,,,84,111
207360,note_off,,,,,240,0,1,,,,0,,,85,64
207480,note_off,,,,,120,0,1,,,,0,,,84,64
207480,note_on,,,,,130,0,4,,,,3,,,97,93
207600,note_on,,,,,0,0,2,,,,1,,,66,79
207600,note_on,,,,,0,0,2,,,,1,,,61,83
207600,note_on,,,,,0,0,2,,,,1,,,58,77
207600,note_off,,,,,120,0,4,,,,3,,,97,64
207600,note_off,,,,,240,0,2,,,,1,,,54,64
207600,note_on,,,,,120,0,1,,,,0,,,85,111
207720,note_on,,,,,120,0,4,,,,3,,,97,91
207720,note_off,,,,,120,0,1,,,,0,,,85,64
207840,note_off,,,,,120,0,4,,,,3,,,97,64
207840,note_off,,,,,0,0,2,,,,1,,,58,64
207840,note_off,,,,,0,0,2,,,,1,,,61,64
207840,note_off,,,,,240,0,2,,,,1,,,66,64
207840,note_on,,,,,120,0,1,,,,0,,,82,101
207840,note_on,,,,,0,0,2,,,,1,,,49,75
207960,note_on,,,,,120,0,4,,,,3,,,97,79
208080,note_on,,,,,0,0,2,,,,1,,,58,77
208080,note_on,,,,,0,0,2,,,,1,,,66,87
208080,note_on,,,,,0,0,2,,,,1,,,61,91
208080,note_off,,,,,120,0,4,,,,3,,,97,64
208080,note_off,,,,,240,0,1,,,,0,,,82,64
208080,note_off,,,,,240,0,2,,,,1,,,49,64
208080,note_on,,,,,0,0,1,,,,0,,,85,101
208200,note_on,,,,,120,0,4,,,,3,,,97,87
208310,note_off,,,,,110,0,4,,,,3,,,97,64
208320,note_off,,,,,240,0,2,,,,1,,,66,64
208320,note_off,,,,,0,0,2,,,,1,,,58,64
208320,note_on,,,,,0,0,2,,,,1,,,70,91
208320,note_off,,,,,0,0,2,,,,1,,,61,64
208320,note_on,,,,,0,0,1,,,,0,,,84,99
208320,note_off,,,,,240,0,1,,,,0,,,85,64
208440,note_on,,,,,130,0,4,,,,3,,,97,93
208440,note_off,,,,,120,0,1,,,,0,,,84,64
208560,note_off,,,,,120,0,4,,,,3,,,97,64
208560,note_off,,,,,240,0,2,,,,1,,,70,64
208560,note_on,,,,,0,0,2,,,,1,,,73,75
208560,note_on,,,,,0,0,2,,,,1,,,78,91
208560,note_on,,,,,120,0,1,,,,0,,,85,105
208680,note_on,,,,,120,0,4,,,,3,,,97,91
208680,note_off,,,,,120,0,1,,,,0,,,85,64
208800,note_on,,,,,0,0,2,,,,1,,,66,83
208800,note_off,,,,,240,0,2,,,,1,,,78,64
208800,note_on,,,,,120,0,1,,,,0,,,82,105
208800,note_off,,,,,120,0,4,,,,3,,,97,64
208800,note_off,,,,,0,0,2,,,,1,,,73,64
208920,note_on,,,,,120,0,4,,,,3,,,97,79
209040,note_off,,,,,120,0,4,,,,3,,,97,64
209040,note_on,,,,,0,0,2,,,,1,,,78,97
209040,note_on,,,,,0,0,2,,,,1,,,73,83
209040,note_off,,,,,240,0,2,,,,1,,,66,64
209040,note_off,,,,,240,0,1,,,,0,,,82,64
209040,note_on,,,,,0,0,1,,,,0,,,85,101
209160,note_on,,,,,120,0,4,,,,3,,,97,87
209270,note_off,,,,,110,0,4,,,,3,,,97,64
209280,note_on,,,,,0,0,2,,,,1,,,56,71
209280,note_off,,,,,240,0,1,,,,0,,,85,64
209280,note_on,,,,,0,0,1,,,,0,,,84,101
209280,note_off,,,,,0,0,2,,,,1,,,73,64
209280,note_off,,,,,240,0,2,,,,1,,,78,64
209400,note_off,,,,,120,0,1,,,,0,,,84,64
209400,note_on,,,,,130,0,4,,,,3,,,97,93
209520,note_off,,,,,120,0,4,,,,3,,,97,64
209520,note_off,,,,,240,0,2,,,,1,,,56,64
209520,note_on,,,,,0,0,2,,,,1,,,65,75
209520,note_on,,,,,0,0,2,,,,1,,,61,79
209520,note_on,,,,,120,0,1,,,,0,,,85,99
209640,note_on,,,,,120,0,4,,,,3,,,97,91
209640,note_off,,,,,120,0,1,,,,0,,,85,64
209760,note_on,,,,,120,0,1,,,,0,,,89,99
209760,note_on,,,,,0,0,2,,,,1,,,49,87
209760,note_on,,,,,0,0,1,,,,0,,,83,99
209760,note_off,,,,,0,0,2,,,,1,,,61,64
209760,note_off,,,,,120,0,4,,,,3,,,97,64
209760,note_off,,,,,240,0,2,,,,1,,,65,64
209880,note_off,,,,,120,0,1,,,,0,,,83,64
209880,note_on,,,,,120,0,4,,,,3,,,97,79
210000,note_off,,,,,240,0,2,,,,1,,,49,64
210000,note_on,,,,,0,0,2,,,,1,,,61,79
210000,note_on,,,,,0,0,2,,,,1,,,65,93
210000,note_off,,,,,120,0,4,,,,3,,,97,64
210000,note_off,,,,,120,0,1,,,,0,,,89,64
210000,note_on,,,,,0,0,1,,,,0,,,85,99
210120,note_on,,,,,120,0,4,,,,3,,,97,87
210230,note_off,,,,,110,0,4,,,,3,,,97,64
210240,note_on,,,,,0,0,1,,,,0,,,84,99
210240,note_off,,,,,0,0,2,,,,1,,,61,64
210240,note_off,,,,,240,0,2,,,,1,,,65,64
210240,note_on,,,,,0,0,2,,,,1,,,68,83
210240,note_off,,,,,240,0,1,,,,0,,,85,64
210360,note_off,,,,,120,0,1,,,,0,,,84,64
210360,note_on,,,,,130,0,4,,,,3,,,97,93
210480,note_on,,,,,0,0,2,,,,1,,,73,65
210480,note_off,,,,,240,0,2,,,,1,,,68,64
210480,note_on,,,,,0,0,2,,,,1,,,77,79
210480,note_off,,,,,120,0,4,,,,3,,,97,64
210480,note_on,,,,,120,0,1,,,,0,,,85,99
210600,note_off,,,,,120,0,1,,,,0,,,85,64
210600,note_on,,,,,120,0,4,,,,3,,,97,91
210720,note_on,,,,,120,0,1,,,,0,,,89,101
210720,note_off,,,,,120,0,4,,,,3,,,97,64
210720,note_off,,,,,240,0,2,,,,1,,,77,64
210720,note_off,,,,,0,0,2,,,,1,,,73,64
210720,note_on,,,,,0,0,2,,,,1,,,61,73
210720,note_on,,,,,0,0,1,,,,0,,,83,99
210840,note_on,,,,,120,0,4,,,,3,,,97,79
210840,note_off,,,,,120,0,1,,,,0,,,83,64
210960,note_off,,,,,120,0,1,,,,0,,,89,64
210960,note_on,,,,,0,0,2,,,,1,,,77,91
210960,note_on,,,,,0,0,1,,,,0,,,85,99
210960,note_off,,,,,240,0,2,,,,1,,,61,64
210960,note_on,,,,,0,0,2,,,,1,,,73,75
210960,note_off,,,,,120,0,4,,,,3,,,97,64
211080,note_on,,,,,120,0,4,,,,3,,,97,87
211190,note_off,,,,,110,0,4,,,,3,,,97,64
211200,note_on,,,,,0,0,1,,,,0,,,82,85
211200,note_off,,,,,0,0,2,,,,1,,,73,64
211200,note_off,,,,,240,0,2,,,,1,,,77,64
211200,note_off,,,,,240,0,1,,,,0,,,85,64
211200,note_on,,,,,0,0,2,,,,1,,,54,69
211320,note_on,,,,,130,0,4,,,,3,,,97,93
211320,note_off,,,,,120,0,1,,,,0,,,82,64
211440,note_on,,,,,0,0,2,,,,1,,,66,79
211440,note_off,,,,,240,0,2,,,,1,,,54,64
211440,note_on,,,,,0,0,2,,,,1,,,58,69
211440,note_off,,,,,120,0,4,,,,3,,,97,64
211440,note_on,,,,,120,0,1,,,,0,,,85,101
211440,note_on,,,,,0,0,2,,,,1,,,61,83
211560,note_off,,,,,120,0,1,,,,0,,,85,64
211560,note_on,,,,,120,0,4,,,,3,,,97,91
211680,note_off,,,,,0,0,2,,,,1,,,58,64
211680,note_off,,,,,0,0,2,,,,1,,,61,64
211680,note_on,,,,,120,0,1,,,,0,,,90,99
211680,note_off,,,,,240,0,2,,,,1,,,66,64
211680,note_off,,,,,120,0,4,,,,3,,,97,64
211680,note_on,,,,,0,0,2,,,,1,,,49,87
211680,note_on,,,,,0,0,1,,,,0,,,82,79
211800,note_on,,,,,120,0,4,,,,3,,,97,79
211800,note_off,,,,,120,0,1,,,,0,,,82,64
211920,note_off,,,,,240,0,2,,,,1,,,49,64
211920,note_on,,,,,0,0,2,,,,1,,,66,87
211920,note_on,,,,,0,0,2,,,,1,,,61,83
211920,note_on,,,,,0,0,1,,,,0,,,85,87
211920,note_on,,,,,0,0,2,,,,1,,,58,77
211920,note_off,,,,,120,0,4,,,,3,,,97,64
211920,note_off,,,,,120,0,1,,,,0,,,90,64
212040,note_on,,,,,120,0,4,,,,3,,,97,87
212150,note_off,,,,,110,0,4,,,,3,,,97,64
212160,note_off,,,,,240,0,2,,,,1,,,66,64
212160,note_off,,,,,0,0,2,,,,1,,,58,64
212160,note_off,,,,,0,0,2,,,,1,,,61,64
212160,note_on,,,,,0,0,2,,,,1,,,70,93
212160,note_off,,,,,240,0,1,,,,0,,,85,64
212160,note_on,,,,,0,0,1,,,,0,,,82,95
212280,note_off,,,,,120,0,1,,,,0,,,82,64
212280,note_on,,,,,130,0,4,,,,3,,,97,93
212400,note_off,,,,,120,0,4,,,,3,,,97,64
212400,note_on,,,,,0,0,2,,,,1,,,73,87
212400,note_off,,,,,240,0,2,,,,1,,,70,64
212400,note_on,,,,,0,0,2,,,,1,,,78,87
212400,note_on,,,,,120,0,1,,,,0,,,85,91
212520,note_on,,,,,120,0,4,,,,3,,,97,91
212520,note_off,,,,,120,0,1,,,,0,,,85,64
212640,note_on,,,,,0,0,2,,,,1,,,66,83
212640,note_off,,,,,120,0,4,,,,3,,,97,64
212640,note_off,,,,,0,0,2,,,,1,,,73,64
212640,note_on,,,,,120,0,1,,,,0,,,90,101
212640,note_off,,,,,240,0,2,,,,1,,,78,64
212640,note_on,,,,,0,0,1,,,,0,,,82,83
212760,note_off,,,,,120,0,1,,,,0,,,82,64
212760,note_on,,,,,120,0,4,,,,3,,,97,79
212880,note_on,,,,,0,0,2,,,,1,,,78,91
212880,note_off,,,,,240,0,2,,,,1,,,66,64
212880,note_off,,,,,120,0,1,,,,0,,,90,64
212880,note_on,,,,,0,0,1,,,,0,,,85,95
212880,note_on,,,,,0,0,2,,,,1,,,73,83
212880,note_off,,,,,120,0,4,,,,3,,,97,64
213000,note_on,,,,,120,0,4,,,,3,,,97,87
213110,note_off,,,,,230,0,1,,,,0,,,85,64
213110,note_off,,,,,110,0,4,,,,3,,,97,64
213120,note_off,,,,,240,0,2,,,,1,,,78,64
213120,note_on,,,,,10,0,4,,,,3,,,87,79
213120,note_off,,,,,0,0,2,,,,1,,,73,64
213120,note_on,,,,,0,0,2,,,,1,,,66,57
213240,note_off,,,,,120,0,4,,,,3,,,87,64
213240,note_on,,,,,0,0,4,,,,3,,,97,87
213360,note_on,,,,,0,0,2,,,,1,,,75,77
213360,note_off,,,,,120,0,4,,,,3,,,97,64
213360,note_on,,,,,0,0,4,,,,3,,,83,91
213360,note_off,,,,,240,0,2,,,,1,,,66,64
213360,note_on,,,,,0,0,2,,,,1,,,71,61
213480,note_on,,,,,0,0,4,,,,3,,,97,91
213480,note_off,,,,,120,0,4,,,,3,,,83,64
213600,note_on,,,,,0,0,2,,,,1,,,61,69
213600,note_off,,,,,0,0,2,,,,1,,,71,64
213600,note_off,,,,,240,0,2,,,,1,,,75,64
213600,note_off,,,,,120,0,4,,,,3,,,97,64
213600,note_on,,,,,0,0,4,,,,3,,,82,67
213720,note_on,,,,,0,0,4,,,,3,,,97,87
213720,note_off,,,,,120,0,4,,,,3,,,82,64
213840,note_off,,,,,120,0,4,,,,3,,,97,64
213840,note_off,,,,,240,0,2,,,,1,,,61,64
213840,note_on,,,,,0,0,4,,,,3,,,83,93
213840,note_on,,,,,0,0,2,,,,1,,,75,77
213840,note_on,,,,,0,0,2,,,,1,,,78,65
213960,note_off,,,,,120,0,4,,,,3,,,83,64
213960,note_on,,,,,0,0,4,,,,3,,,97,97
214080,note_on,,,,,0,0,4,,,,3,,,87,75
214080,note_off,,,,,240,0,2,,,,1,,,78,64
214080,note_off,,,,,120,0,4,,,,3,,,97,64
214080,note_off,,,,,0,0,2,,,,1,,,75,64
214080,note_on,,,,,0,0,2,,,,1,,,66,75
214200,note_off,,,,,120,0,4,,,,3,,,87,64
214200,note_on,,,,,0,0,4,,,,3,,,97,91
214320,note_on,,,,,0,0,4,,,,3,,,83,103
214320,note_off,,,,,120,0,4,,,,3,,,97,64
214320,note_on,,,,,0,0,2,,,,1,,,78,71
214320,note_on,,,,,0,0,2,,,,1,,,75,77
214320,note_off,,,,,240,0,2,,,,1,,,66,64
214440,note_on,,,,,0,0,4,,,,3,,,97,83
214440,note_off,,,,,120,0,4,,,,3,,,83,64
214560,note_off,,,,,0,0,2,,,,1,,,75,64
214560,note_off,,,,,120,0,4,,,,3,,,97,64
214560,note_off,,,,,240,0,2,,,,1,,,78,64
214560,note_on,,,,,0,0,2,,,,1,,,70,83
214560,note_on,,,,,0,0,4,,,,3,,,90,91
214680,note_on,,,,,0,0,4,,,,3,,,97,77
214680,note_off,,,,,120,0,4,,,,3,,,90,64
214800,note_on,,,,,0,0,4,,,,3,,,87,75
214800,note_off,,,,,240,0,2,,,,1,,,70,64
214800,note_on,,,,,0,0,2,,,,1,,,75,67
214800,note_on,,,,,0,0,2,,,,1,,,78,73
214800,note_off,,,,,120,0,4,,,,3,,,97,64
214920,note_on,,,,,0,0,4,,,,3,,,97,73
214920,note_off,,,,,120,0,4,,,,3,,,87,64
215040,note_on,,,,,0,0,4,,,,3,,,85,87
215040,note_on,,,,,0,0,2,,,,1,,,66,69
215040,note_off,,,,,120,0,4,,,,3,,,97,64
215040,note_off,,,,,240,0,2,,,,1,,,78,64
215040,note_off,,,,,0,0,2,,,,1,,,75,64
215160,note_on,,,,,0,0,4,,,,3,,,97,77
215160,note_off,,,,,120,0,4,,,,3,,,85,64
215280,note_off,,,,,120,0,4,,,,3,,,97,64
215280,note_off,,,,,240,0,2,,,,1,,,66,64
215280,note_on,,,,,0,0,2,,,,1,,,70,77
215280,note_on,,,,,0,0,2,,,,1,,,73,77
215280,note_on,,,,,0,0,4,,,,3,,,82,67
215400,note_off,,,,,120,0,4,,,,3,,,82,64
215400,note_on,,,,,0,0,4,,,,3,,,97,91
215520,note_off,,,,,0,0,2,,,,1,,,70,64
215520,note_off,,,,,240,0,2,,,,1,,,73,64
215520,note_on,,,,,0,0,2,,,,1,,,61,61
215520,note_on,,,,,0,0,4,,,,3,,,81,87
215520,note_off,,,,,120,0,4,,,,3,,,97,64
215640,note_on,,,,,0,0,4,,,,3,,,97,91
215640,note_off,,,,,120,0,4,,,,3,,,81,64
215760,note_on,,,,,0,0,2,,,,1,,,78,69
215760,note_off,,,,,120,0,4,,,,3,,,97,64
215760,note_on,,,,,0,0,4,,,,3,,,82,77
215760,note_off,,,,,240,0,2,,,,1,,,61,64
215760,note_on,,,,,0,0,2,,,,1,,,73,75
215880,note_off,,,,,120,0,4,,,,3,,,82,64
215880,note_on,,,,,0,0,4,,,,3,,,97,77
216000,note_on,,,,,0,0,2,,,,1,,,66,77
216000,note_off,,,,,0,0,2,,,,1,,,73,64
216000,note_off,,,,,120,0,4,,,,3,,,97,64
216000,note_on,,,,,0,0,4,,,,3,,,85,83
216000,note_off,,,,,240,0,2,,,,1,,,78,64
216120,note_on,,,,,0,0,4,,,,3,,,97,83
216120,note_off,,,,,120,0,4,,,,3,,,85,64
216240,note_off,,,,,240,0,2,,,,1,,,66,64
216240,note_off,,,,,120,0,4,,,,3,,,97,64
216240,note_on,,,,,0,0,4,,,,3,,,82,77
216240,note_on,,,,,0,0,2,,,,1,,,73,75
216240,note_on,,,,,0,0,2,,,,1,,,78,69
216360,note_off,,,,,120,0,4,,,,3,,,82,64
216360,note_on,,,,,0,0,4,,,,3,,,97,77
216480,note_off,,,,,240,0,2,,,,1,,,78,64
216480,note_on,,,,,0,0,2,,,,1,,,70,79
216480,note_off,,,,,120,0,4,,,,3,,,97,64
216480,note_off,,,,,0,0,2,,,,1,,,73,64
216480,note_on,,,,,0,0,4,,,,3,,,90,87
216600,note_on,,,,,0,0,4,,,,3,,,97,77
216600,note_off,,,,,120,0,4,,,,3,,,90,64
216720,note_on,,,,,0,0,4,,,,3,,,85,75
216720,note_on,,,,,0,0,2,,,,1,,,73,75
216720,note_off,,,,,120,0,4,,,,3,,,97,64
216720,note_on,,,,,0,0,2,,,,1,,,78,63
216720,note_off,,,,,240,0,2,,,,1,,,70,64
216840,note_off,,,,,120,0,4,,,,3,,,85,64
216840,note_on,,,,,0,0,4,,,,3,,,97,87
216960,note_off,,,,,120,0,4,,,,3,,,97,64
216960,note_off,,,,,0,0,2,,,,1,,,73,64
216960,note_on,,,,,0,0,2,,,,1,,,66,73
216960,note_off,,,,,240,0,2,,,,1,,,78,64
216960,note_on,,,,,0,0,4,,,,3,,,87,75
217080,note_off,,,,,120,0,4,,,,3,,,87,64
217080,note_on,,,,,0,0,4,,,,3,,,97,83
217200,note_on,,,,,0,0,2,,,,1,,,75,59
217200,note_off,,,,,120,0,4,,,,3,,,97,64
217200,note_off,,,,,240,0,2,,,,1,,,66,64
217200,note_on,,,,,0,0,4,,,,3,,,83,83
217200,note_on,,,,,0,0,2,,,,1,,,71,69
217320,note_off,,,,,120,0,4,,,,3,,,83,64
217320,note_on,,,,,0,0,4,,,,3,,,97,83
217440,note_on,,,,,0,0,4,,,,3,,,82,83
217440,note_off,,,,,240,0,2,,,,1,,,75,64
217440,note_off,,,,,0,0,2,,,,1,,,71,64
217440,note_on,,,,,0,0,2,,,,1,,,61,77
217440,note_off,,,,,120,0,4,,,,3,,,97,64
217560,note_off,,,,,120,0,4,,,,3,,,82,64
217560,note_on,,,,,0,0,4,,,,3,,,97,83
217680,note_on,,,,,0,0,2,,,,1,,,78,77
217680,note_on,,,,,0,0,2,,,,1,,,75,73
217680,note_on,,,,,0,0,4,,,,3,,,83,91
217680,note_off,,,,,120,0,4,,,,3,,,97,64
217680,note_off,,,,,240,0,2,,,,1,,,61,64
217800,note_off,,,,,120,0,4,,,,3,,,83,64
217800,note_on,,,,,0,0,4,,,,3,,,97,83
217910,note_off,,,,,0,0,2,,,,1,,,75,64
217910,note_off,,,,,110,0,4,,,,3,,,97,64
217910,note_off,,,,,230,0,2,,,,1,,,78,64
217920,note_on,,,,,10,0,2,,,,1,,,66,73
217920,note_on,,,,,10,0,4,,,,3,,,87,67
218040,note_on,,,,,0,0,4,,,,3,,,97,83
218040,note_off,,,,,120,0,4,,,,3,,,87,64
218160,note_on,,,,,0,0,4,,,,3,,,83,91
218160,note_off,,,,,240,0,2,,,,1,,,66,64
218160,note_off,,,,,120,0,4,,,,3,,,97,64
218160,note_on,,,,,0,0,2,,,,1,,,78,59
218160,note_on,,,,,0,0,2,,,,1,,,75,77
218280,note_on,,,,,0,0,4,,,,3,,,97,73
218280,note_off,,,,,120,0,4,,,,3,,,83,64
218400,note_off,,,,,120,0,4,,,,3,,,97,64
218400,note_on,,,,,0,0,4,,,,3,,,90,73
218400,note_off,,,,,0,0,2,,,,1,,,75,64
218400,note_off,,,,,240,0,2,,,,1,,,78,64
218400,note_on,,,,,0,0,2,,,,1,,,71,77
218520,note_off,,,,,120,0,4,,,,3,,,90,64
218520,note_on,,,,,0,0,4,,,,3,,,97,75
218640,note_off,,,,,240,0,2,,,,1,,,71,64
218640,note_on,,,,,0,0,4,,,,3,,,87,75
218640,note_off,,,,,120,0,4,,,,3,,,97,64
218640,note_on,,,,,0,0,2,,,,1,,,78,53
218640,note_on,,,,,0,0,2,,,,1,,,75,69
218760,note_on,,,,,0,0,4,,,,3,,,97,87
218760,note_off,,,,,120,0,4,,,,3,,,87,64
218880,note_off,,,,,0,0,2,,,,1,,,75,64
218880,note_on,,,,,0,0,2,,,,1,,,66,73
218880,note_off,,,,,120,0,4,,,,3,,,97,64
218880,note_on,,,,,0,0,4,,,,3,,,85,79
218880,note_off,,,,,240,0,2,,,,1,,,78,64
219000,note_off,,,,,120,0,4,,,,3,,,85,64
219000,note_on,,,,,0,0,4,,,,3,,,97,77
219120,note_off,,,,,120,0,4,,,,3,,,97,64
219120,note_on,,,,,0,0,2,,,,1,,,73,77
219120,note_off,,,,,240,0,2,,,,1,,,66,64
219120,note_on,,,,,0,0,4,,,,3,,,82,77
219120,note_on,,,,,0,0,2,,,,1,,,70,77
219240,note_off,,,,,120,0,4,,,,3,,,82,64
219240,note_on,,,,,0,0,4,,,,3,,,97,75
219360,note_off,,,,,120,0,4,,,,3,,,97,64
219360,note_on,,,,,0,0,2,,,,1,,,61,59
219360,note_off,,,,,240,0,2,,,,1,,,73,64
219360,note_off,,,,,0,0,2,,,,1,,,70,64
219360,note_on,,,,,0,0,4,,,,3,,,81,93
219480,note_on,,,,,0,0,4,,,,3,,,97,83
219480,note_off,,,,,120,0,4,,,,3,,,81,64
219600,note_off,,,,,120,0,4,,,,3,,,97,64
219600,note_on,,,,,0,0,2,,,,1,,,78,83
219600,note_off,,,,,240,0,2,,,,1,,,61,64
219600,note_on,,,,,0,0,2,,,,1,,,73,87
219600,note_on,,,,,0,0,4,,,,3,,,82,91
219720,note_off,,,,,120,0,4,,,,3,,,82,64
219720,note_on,,,,,0,0,4,,,,3,,,97,91
219840,note_off,,,,,0,0,2,,,,1,,,73,64
219840,note_off,,,,,240,0,2,,,,1,,,78,64
219840,note_on,,,,,0,0,2,,,,1,,,66,73
219840,note_off,,,,,120,0,4,,,,3,,,97,64
219840,note_on,,,,,0,0,4,,,,3,,,85,91
219960,note_off,,,,,120,0,4,,,,3,,,85,64
219960,note_on,,,,,0,0,4,,,,3,,,97,91
220080,note_on,,,,,0,0,4,,,,3,,,82,83
220080,note_on,,,,,0,0,2,,,,1,,,73,75
220080,note_on,,,,,0,0,2,,,,1,,,78,79
220080,note_off,,,,,240,0,2,,,,1,,,66,64
220080,note_off,,,,,120,0,4,,,,3,,,97,64
220200,note_off,,,,,120,0,4,,,,3,,,82,64
220200,note_on,,,,,0,0,4,,,,3,,,97,91
220320,note_on,,,,,0,0,4,,,,3,,,90,97
220320,note_off,,,,,0,0,2,,,,1,,,73,64
220320,note_off,,,,,120,0,4,,,,3,,,97,64
220320,note_off,,,,,240,0,2,,,,1,,,78,64
220320,note_on,,,,,0,0,2,,,,1,,,70,77
220440,note_off,,,,,120,0,4,,,,3,,,90,64
220440,note_on,,,,,0,0,4,,,,3,,,97,97
220560,note_on,,,,,0,0,2,,,,1,,,73,79
220560,note_on,,,,,0,0,4,,,,3,,,85,79
220560,note_on,,,,,0,0,2,,,,1,,,78,77
220560,note_off,,,,,120,0,4,,,,3,,,97,64
220560,note_off,,,,,240,0,2,,,,1,,,70,64
220680,note_off,,,,,120,0,4,,,,3,,,85,64
220680,note_on,,,,,0,0,4,,,,3,,,97,91
220800,note_off,,,,,120,0,4,,,,3,,,97,64
220800,note_off,,,,,240,0,2,,,,1,,,78,64
220800,note_on,,,,,0,0,4,,,,3,,,83,77
220800,note_on,,,,,0,0,4,,,,3,,,89,87
220800,note_off,,,,,0,0,2,,,,1,,,73,64
220920,note_on,,,,,0,0,4,,,,3,,,97,93
220920,note_off,,,,,0,0,4,,,,3,,,83,64
220920,note_off,,,,,120,0,4,,,,3,,,89,64
221040,note_on,,,,,240,0,2,,,,1,,,60,79
221040,note_on,,,,,0,0,4,,,,3,,,85,91
221040,note_on,,,,,0,0,4,,,,3,,,92,83
221040,note_off,,,,,120,0,4,,,,3,,,97,64
221070,note_on,,,,,0,0,2,,,,1,,,61,83
221070,note_off,,,,,30,0,2,,,,1,,,60,64
221160,note_off,,,,,0,0,4,,,,3,,,85,64
221160,note_off,,,,,120,0,4,,,,3,,,92,64
221160,note_on,,,,,0,0,4,,,,3,,,97,91
221160,note_off,,,,,90,0,2,,,,1,,,61,64
221280,note_off,,,,,120,0,4,,,,3,,,97,64
221280,note_on,,,,,0,0,4,,,,3,,,83,83
221280,note_on,,,,,0,0,4,,,,3,,,89,87
221400,note_on,,,,,0,0,4,,,,3,,,97,91
221400,note_off,,,,,0,0,4,,,,3,,,83,64
221400,note_off,,,,,120,0,4,,,,3,,,89,64
221520,note_off,,,,,120,0,4,,,,3,,,97,64
221520,note_on,,,,,0,0,4,,,,3,,,92,91
221520,note_on,,,,,360,0,2,,,,1,,,67,87
221520,note_on,,,,,0,0,4,,,,3,,,85,91
221550,note_on,,,,,0,0,2,,,,1,,,68,79
221550,note_off,,,,,30,0,2,,,,1,,,67,64
221640,note_on,,,,,0,0,4,,,,3,,,97,91
221640,note_off,,,,,0,0,4,,,,3,,,85,64
221640,note_off,,,,,120,0,4,,,,3,,,92,64
221760,note_off,,,,,210,0,2,,,,1,,,68,64
221760,note_on,,,,,0,0,4,,,,3,,,83,91
221760,note_on,,,,,0,0,4,,,,3,,,89,91
221760,note_off,,,,,120,0,4,,,,3,,,97,64
221880,note_off,,,,,120,0,4,,,,3,,,89,64
221880,note_off,,,,,0,0,4,,,,3,,,83,64
221880,note_on,,,,,0,0,4,,,,3,,,97,91
222000,note_on,,,,,0,0,4,,,,3,,,85,91
222000,note_off,,,,,120,0,4,,,,3,,,97,64
222000,note_on,,,,,240,0,2,,,,1,,,69,79
222000,note_on,,,,,0,0,4,,,,3,,,92,87
222030,note_off,,,,,30,0,2,,,,1,,,69,64
222030,note_on,,,,,0,0,2,,,,1,,,70,83
222120,note_off,,,,,0,0,4,,,,3,,,85,64
222120,note_off,,,,,90,0,2,,,,1,,,70,64
222120,note_off,,,,,120,0,4,,,,3,,,92,64
222120,note_on,,,,,0,0,4,,,,3,,,97,93
222240,note_on,,,,,0,0,4,,,,3,,,83,87
222240,note_off,,,,,120,0,4,,,,3,,,97,64
222240,note_on,,,,,0,0,4,,,,3,,,89,83
222360,note_off,,,,,0,0,4,,,,3,,,83,64
222360,note_off,,,,,120,0,4,,,,3,,,89,64
222360,note_on,,,,,0,0,4,,,,3,,,97,97
222480,note_on,,,,,0,0,4,,,,3,,,85,91
222480,note_on,,,,,360,0,2,,,,1,,,67,75
222480,note_off,,,,,120,0,4,,,,3,,,97,64
222480,note_on,,,,,0,0,4,,,,3,,,92,83
222510,note_on,,,,,0,0,2,,,,1,,,68,75
222510,note_off,,,,,30,0,2,,,,1,,,67,64
222600,note_off,,,,,120,0,4,,,,3,,,92,64
222600,note_off,,,,,90,0,2,,,,1,,,68,64
222600,note_on,,,,,0,0,4,,,,3,,,97,91
222600,note_off,,,,,0,0,4,,,,3,,,85,64
222720,note_off,,,,,120,0,4,,,,3,,,97,64
222720,note_on,,,,,0,0,4,,,,3,,,90,77
222720,note_on,,,,,0,0,4,,,,3,,,82,87
222840,note_off,,,,,0,0,4,,,,3,,,82,64
222840,note_off,,,,,120,0,4,,,,3,,,90,64
222840,note_on,,,,,0,0,4,,,,3,,,97,97
222960,note_on,,,,,0,0,4,,,,3,,,94,93
222960,note_on,,,,,0,0,4,,,,3,,,85,97
222960,note_on,,,,,360,0,2,,,,1,,,65,71
222960,note_off,,,,,120,0,4,,,,3,,,97,64
222990,note_off,,,,,30,0,2,,,,1,,,65,64
222990,note_on,,,,,0,0,2,,,,1,,,66,77
223080,note_off,,,,,120,0,4,,,,3,,,94,64
223080,note_off,,,,,0,0,4,,,,3,,,85,64
223080,note_on,,,,,0,0,4,,,,3,,,97,103
223080,note_off,,,,,90,0,2,,,,1,,,66,64
223200,note_on,,,,,0,0,4,,,,3,,,82,91
223200,note_on,,,,,120,0,2,,,,1,,,64,65
223200,note_on,,,,,0,0,4,,,,3,,,90,87
223200,note_off,,,,,120,0,4,,,,3,,,97,64
223230,note_on,,,,,0,0,2,,,,1,,,65,65
223230,note_off,,,,,30,0,2,,,,1,,,64,64
223320,note_off,,,,,90,0,2,,,,1,,,65,64
223320,note_on,,,,,0,0,4,,,,3,,,97,103
223320,note_off,,,,,120,0,4,,,,3,,,90,64
223320,note_off,,,,,0,0,4,,,,3,,,82,64
223440,note_on,,,,,0,0,4,,,,3,,,94,97
223440,note_on,,,,,120,0,2,,,,1,,,63,73
223440,note_on,,,,,0,0,4,,,,3,,,85,97
223440,note_off,,,,,120,0,4,,,,3,,,97,64
223470,note_off,,,,,30,0,2,,,,1,,,63,64
223470,note_on,,,,,0,0,2,,,,1,,,64,71
223560,note_off,,,,,90,0,2,,,,1,,,64,64
223560,note_off,,,,,0,0,4,,,,3,,,85,64
223560,note_on,,,,,0,0,4,,,,3,,,97,103
223560,note_off,,,,,120,0,4,,,,3,,,94,64
223680,note_on,,,,,0,0,4,,,,3,,,82,77
223680,note_on,,,,,0,0,4,,,,3,,,90,103
223680,note_off,,,,,120,0,4,,,,3,,,97,64
223800,note_on,,,,,0,0,4,,,,3,,,97,107
223800,note_off,,,,,0,0,4,,,,3,,,82,64
223800,note_off,,,,,120,0,4,,,,3,,,90,64
223920,note_on,,,,,0,0,4,,,,3,,,85,91
223920,note_on,,,,,360,0,2,,,,1,,,62,73
223920,note_off,,,,,120,0,4,,,,3,,,97,64
223920,note_on,,,,,0,0,4,,,,3,,,94,87
223950,note_off,,,,,30,0,2,,,,1,,,62,64
223950,note_on,,,,,0,0,2,,,,1,,,63,73
224040,note_off,,,,,90,0,2,,,,1,,,63,64
224040,note_on,,,,,0,0,4,,,,3,,,97,103
224040,note_off,,,,,120,0,4,,,,3,,,94,64
224040,note_off,,,,,0,0,4,,,,3,,,85,64
224160,note_off,,,,,120,0,4,,,,3,,,97,64
224160,note_on,,,,,120,0,2,,,,1,,,61,63
224160,note_on,,,,,0,0,4,,,,3,,,82,83
224160,note_on,,,,,0,0,4,,,,3,,,90,91
224190,note_on,,,,,0,0,2,,,,1,,,62,69
224190,note_off,,,,,30,0,2,,,,1,,,61,64
224280,note_on,,,,,0,0,4,,,,3,,,97,107
224280,note_off,,,,,90,0,2,,,,1,,,62,64
224280,note_off,,,,,120,0,4,,,,3,,,90,64
224280,note_off,,,,,0,0,4,,,,3,,,82,64
224400,note_off,,,,,120,0,4,,,,3,,,97,64
224400,note_on,,,,,0,0,4,,,,3,,,85,93
224400,note_on,,,,,120,0,2,,,,1,,,60,55
224400,note_on,,,,,0,0,4,,,,3,,,94,97
224430,note_off,,,,,30,0,2,,,,1,,,60,64
224430,note_on,,,,,0,0,2,,,,1,,,61,67
224520,note_off,,,,,0,0,4,,,,3,,,85,64
224520,note_off,,,,,120,0,4,,,,3,,,94,64
224520,note_on,,,,,0,0,4,,,,3,,,97,107
224520,note_off,,,,,90,0,2,,,,1,,,61,64
224630,note_off,,,,,110,0,4,,,,3,,,97,64
224640,note_on,,,,,120,0,2,,,,1,,,78,77
224640,note_on,,,,,0,0,4,,,,3,,,83,77
224640,note_on,,,,,0,0,2,,,,1,,,73,79
224640,note_on,,,,,10,0,4,,,,3,,,97,91
224640,note_on,,,,,0,0,4,,,,3,,,89,87
224641,note_off,,,,,1,0,2,,,,1,,,78,64
224641,note_off,,,,,1,0,4,,,,3,,,97,64
224641,note_off,,,,,0,0,2,,,,1,,,73,64
224760,note_off,,,,,0,0,4,,,,3,,,83,64
224760,note_on,,,,,0,0,4,,,,3,,,97,93
224760,note_off,,,,,119,0,4,,,,3,,,89,64
224880,note_off,,,,,120,0,4,,,,3,,,97,64
224880,note_on,,,,,0,0,4,,,,3,,,85,91
224880,note_on,,,,,0,0,4,,,,3,,,92,83
224880,note_on,,,,,239,0,2,,,,1,,,60,79
224910,note_on,,,,,0,0,2,,,,1,,,61,83
224910,note_off,,,,,30,0,2,,,,1,,,60,64
225000,note_off,,,,,90,0,2,,,,1,,,61,64
225000,note_off,,,,,120,0,4,,,,3,,,92,64
225000,note_off,,,,,0,0,4,,,,3,,,85,64
225000,note_on,,,,,0,0,4,,,,3,,,97,91
225120,note_off,,,,,120,0,4,,,,3,,,97,64
225120,note_on,,,,,0,0,4,,,,3,,,83,83
225120,note_on,,,,,0,0,4,,,,3,,,89,87
225240,note_off,,,,,0,0,4,,,,3,,,83,64
225240,note_off,,,,,120,0,4,,,,3,,,89,64
225240,note_on,,,,,0,0,4,,,,3,,,97,91
225360,note_off,,,,,120,0,4,,,,3,,,97,64
225360,note_on,,,,,0,0,4,,,,3,,,85,91
225360,note_on,,,,,0,0,4,,,,3,,,92,91
225360,note_on,,,,,360,0,2,,,,1,,,67,87
225390,note_on,,,,,0,0,2,,,,1,,,68,79
225390,note_off,,,,,30,0,2,,,,1,,,67,64
225480,note_off,,,,,0,0,4,,,,3,,,85,64
225480,note_on,,,,,0,0,4,,,,3,,,97,91
225480,note_off,,,,,120,0,4,,,,3,,,92,64
225600,note_on,,,,,0,0,4,,,,3,,,89,91
225600,note_off,,,,,210,0,2,,,,1,,,68,64
225600,note_off,,,,,120,0,4,,,,3,,,97,64
225600,note_on,,,,,0,0,4,,,,3,,,83,91
225720,note_off,,,,,0,0,4,,,,3,,,83,64
225720,note_off,,,,,120,0,4,,,,3,,,89,64
225720,note_on,,,,,0,0,4,,,,3,,,97,91
225840,note_off,,,,,120,0,4,,,,3,,,97,64
225840,note_on,,,,,0,0,4,,,,3,,,92,87
225840,note_on,,,,,0,0,4,,,,3,,,85,91
225840,note_on,,,,,240,0,2,,,,1,,,69,79
225870,note_on,,,,,0,0,2,,,,1,,,70,83
225870,note_off,,,,,30,0,2,,,,1,,,69,64
225960,note_off,,,,,120,0,4,,,,3,,,92,64
225960,note_on,,,,,0,0,4,,,,3,,,97,93
225960,note_off,,,,,90,0,2,,,,1,,,70,64
225960,note_off,,,,,0,0,4,,,,3,,,85,64
226080,note_on,,,,,0,0,4,,,,3,,,89,83
226080,note_on,,,,,0,0,4,,,,3,,,83,87
226080,note_off,,,,,120,0,4,,,,3,,,97,64
226200,note_off,,,,,120,0,4,,,,3,,,89,64
226200,note_on,,,,,0,0,4,,,,3,,,97,97
226200,note_off,,,,,0,0,4,,,,3,,,83,64
226320,note_off,,,,,120,0,4,,,,3,,,97,64
226320,note_on,,,,,0,0,4,,,,3,,,92,83
226320,note_on,,,,,0,0,4,,,,3,,,85,91
226320,note_on,,,,,360,0,2,,,,1,,,67,75
226350,note_on,,,,,0,0,2,,,,1,,,68,75
226350,note_off,,,,,30,0,2,,,,1,,,67,64
226440,note_off,,,,,120,0,4,,,,3,,,92,64
226440,note_off,,,,,90,0,2,,,,1,,,68,64
226440,note_off,,,,,0,0,4,,,,3,,,85,64
226440,note_on,,,,,0,0,4,,,,3,,,97,91
226560,note_off,,,,,120,0,4,,,,3,,,97,64
226560,note_on,,,,,0,0,4,,,,3,,,82,87
226560,note_on,,,,,0,0,4,,,,3,,,90,77
226680,note_off,,,,,0,0,4,,,,3,,,82,64
226680,note_off,,,,,120,0,4,,,,3,,,90,64
226680,note_on,,,,,0,0,4,,,,3,,,97,97
226800,note_off,,,,,120,0,4,,,,3,,,97,64
226800,note_on,,,,,0,0,4,,,,3,,,85,97
226800,note_on,,,,,360,0,2,,,,1,,,65,71
226800,note_on,,,,,0,0,4,,,,3,,,94,93
226830,note_on,,,,,0,0,2,,,,1,,,66,77
226830,note_off,,,,,30,0,2,,,,1,,,65,64
226920,note_on,,,,,0,0,4,,,,3,,,97,103
226920,note_off,,,,,90,0,2,,,,1,,,66,64
226920,note_off,,,,,120,0,4,,,,3,,,94,64
226920,note_off,,,,,0,0,4,,,,3,,,85,64
227040,note_on,,,,,120,0,2,,,,1,,,64,65
227040,note_on,,,,,0,0,4,,,,3,,,90,87
227040,note_on,,,,,0,0,4,,,,3,,,82,91
227040,note_off,,,,,120,0,4,,,,3,,,97,64
227070,note_off,,,,,30,0,2,,,,1,,,64,64
227070,note_on,,,,,0,0,2,,,,1,,,65,65
227160,note_off,,,,,90,0,2,,,,1,,,65,64
227160,note_off,,,,,120,0,4,,,,3,,,90,64
227160,note_on,,,,,0,0,4,,,,3,,,97,103
227160,note_off,,,,,0,0,4,,,,3,,,82,64
227280,note_off,,,,,120,0,4,,,,3,,,97,64
227280,note_on,,,,,0,0,4,,,,3,,,94,97
227280,note_on,,,,,120,0,2,,,,1,,,63,73
227280,note_on,,,,,0,0,4,,,,3,,,85,97
227310,note_off,,,,,30,0,2,,,,1,,,63,64
227310,note_on,,,,,0,0,2,,,,1,,,64,71
227400,note_off,,,,,120,0,4,,,,3,,,94,64
227400,note_on,,,,,0,0,4,,,,3,,,97,103
227400,note_off,,,,,90,0,2,,,,1,,,64,64
227400,note_off,,,,,0,0,4,,,,3,,,85,64
227520,note_off,,,,,120,0,4,,,,3,,,97,64
227520,note_on,,,,,0,0,4,,,,3,,,82,77
227520,note_on,,,,,0,0,4,,,,3,,,90,103
227640,note_off,,,,,0,0,4,,,,3,,,82,64
227640,note_off,,,,,120,0,4,,,,3,,,90,64
227640,note_on,,,,,0,0,4,,,,3,,,97,107
227760,note_off,,,,,120,0,4,,,,3,,,97,64
227760,note_on,,,,,0,0,4,,,,3,,,85,91
227760,note_on,,,,,0,0,4,,,,3,,,94,87
227760,note_on,,,,,360,0,2,,,,1,,,62,73
227790,note_on,,,,,0,0,2,,,,1,,,63,73
227790,note_off,,,,,30,0,2,,,,1,,,62,64
227880,note_off,,,,,120,0,4,,,,3,,,94,64
227880,note_off,,,,,90,0,2,,,,1,,,63,64
227880,note_on,,,,,0,0,4,,,,3,,,97,103
227880,note_off,,,,,0,0,4,,,,3,,,85,64
228000,note_on,,,,,0,0,4,,,,3,,,82,83
228000,note_off,,,,,120,0,4,,,,3,,,97,64
228000,note_on,,,,,0,0,4,,,,3,,,90,91
228000,note_on,,,,,120,0,2,,,,1,,,61,63
228030,note_on,,,,,0,0,2,,,,1,,,62,69
228030,note_off,,,,,30,0,2,,,,1,,,61,64
228120,note_on,,,,,0,0,4,,,,3,,,97,107
228120,note_off,,,,,90,0,2,,,,1,,,62,64
228120,note_off,,,,,0,0,4,,,,3,,,82,64
228120,note_off,,,,,120,0,4,,,,3,,,90,64
228240,note_on,,,,,0,0,4,,,,3,,,85,93
228240,note_on,,,,,0,0,4,,,,3,,,94,97
228240,note_on,,,,,120,0,2,,,,1,,,60,55
228240,note_off,,,,,120,0,4,,,,3,,,97,64
228270,note_off,,,,,30,0,2,,,,1,,,60,64
228270,note_on,,,,,0,0,2,,,,1,,,61,67
228360,note_off,,,,,0,0,4,,,,3,,,85,64
228360,note_on,,,,,0,0,4,,,,3,,,97,107
228360,note_off,,,,,120,0,4,,,,3,,,94,64
228360,note_off,,,,,90,0,2,,,,1,,,61,64
228470,note_off,,,,,110,0,4,,,,3,,,97,64
228480,note_on,,,,,120,0,2,,,,1,,,56,93
228480,note_on,,,,,10,0,4,,,,3,,,89,87
228480,note_on,,,,,0,0,4,,,,3,,,83,65
228600,note_off,,,,,120,0,4,,,,3,,,89,64
228600,note_off,,,,,0,0,4,,,,3,,,83,64
228600,note_on,,,,,0,0,4,,,,3,,,97,83
228720,note_off,,,,,120,0,4,,,,3,,,97,64
228720,note_on,,,,,0,0,2,,,,1,,,61,71
228720,note_on,,,,,0,0,2,,,,1,,,65,79
228720,note_on,,,,,0,0,4,,,,3,,,92,91
228720,note_on,,,,,0,0,4,,,,3,,,85,73
228720,note_off,,,,,240,0,2,,,,1,,,56,64
228840,note_off,,,,,0,0,2,,,,1,,,61,64
228840,note_off,,,,,120,0,2,,,,1,,,65,64
228840,note_on,,,,,0,0,4,,,,3,,,97,87
228840,note_off,,,,,120,0,4,,,,3,,,92,64
228840,note_off,,,,,0,0,4,,,,3,,,85,64
228960,note_on,,,,,120,0,2,,,,1,,,49,73
228960,note_on,,,,,0,0,4,,,,3,,,89,93
228960,note_on,,,,,0,0,4,,,,3,,,83,71
228960,note_off,,,,,120,0,4,,,,3,,,97,64
229080,note_off,,,,,0,0,4,,,,3,,,83,64
229080,note_on,,,,,0,0,4,,,,3,,,97,87
229080,note_off,,,,,120,0,4,,,,3,,,89,64
229200,note_on,,,,,0,0,4,,,,3,,,85,73
229200,note_on,,,,,0,0,2,,,,1,,,65,83
229200,note_off,,,,,120,0,4,,,,3,,,97,64
229200,note_off,,,,,240,0,2,,,,1,,,49,64
229200,note_on,,,,,0,0,4,,,,3,,,92,79
229200,note_on,,,,,0,0,2,,,,1,,,61,73
229320,note_off,,,,,0,0,2,,,,1,,,61,64
229320,note_on,,,,,0,0,4,,,,3,,,97,87
229320,note_off,,,,,0,0,4,,,,3,,,85,64
229320,note_off,,,,,120,0,2,,,,1,,,65,64
229320,note_off,,,,,120,0,4,,,,3,,,92,64
229440,note_on,,,,,0,0,2,,,,1,,,68,57
229440,note_on,,,,,0,0,4,,,,3,,,89,93
229440,note_on,,,,,0,0,4,,,,3,,,83,75
229440,note_off,,,,,120,0,4,,,,3,,,97,64
229440,note_on,,,,,120,0,2,,,,1,,,72,79
229560,note_off,,,,,120,0,4,,,,3,,,89,64
229560,note_off,,,,,0,0,2,,,,1,,,68,64
229560,note_on,,,,,0,0,4,,,,3,,,97,77
229560,note_off,,,,,0,0,4,,,,3,,,83,64
229560,note_off,,,,,120,0,2,,,,1,,,72,64
229680,note_on,,,,,0,0,2,,,,1,,,65,63
229680,note_on,,,,,120,0,2,,,,1,,,73,75
229680,note_on,,,,,0,0,4,,,,3,,,92,87
229680,note_on,,,,,0,0,4,,,,3,,,85,61
229680,note_off,,,,,120,0,4,,,,3,,,97,64
229800,note_off,,,,,120,0,2,,,,1,,,73,64
229800,note_on,,,,,0,0,4,,,,3,,,97,83
229800,note_off,,,,,0,0,2,,,,1,,,65,64
229800,note_off,,,,,0,0,4,,,,3,,,85,64
229800,note_off,,,,,120,0,4,,,,3,,,92,64
229920,note_on,,,,,0,0,4,,,,3,,,89,79
229920,note_on,,,,,0,0,2,,,,1,,,68,75
229920,note_off,,,,,120,0,4,,,,3,,,97,64
229920,note_on,,,,,120,0,2,,,,1,,,71,79
229920,note_on,,,,,0,0,4,,,,3,,,77,71
229920,note_on,,,,,0,0,4,,,,3,,,85,77
230280,note_on,,,,,0,0,2,,,,1,,,73,79
230280,note_on,,,,,0,0,2,,,,1,,,65,71
230280,note_off,,,,,360,0,2,,,,1,,,71,64
230280,note_off,,,,,0,0,2,,,,1,,,68,64
230400,note_on,,,,,0,0,4,,,,3,,,82,73
230400,note_on,,,,,0,0,4,,,,3,,,90,87
230400,note_off,,,,,120,0,2,,,,1,,,73,64
230400,note_off,,,,,0,0,4,,,,3,,,77,64
230400,note_off,,,,,0,0,4,,,,3,,,85,64
230400,note_on,,,,,0,0,2,,,,1,,,54,79
230400,note_off,,,,,480,0,4,,,,3,,,89,64
230400,note_off,,,,,0,0,2,,,,1,,,65,64
230520,note_off,,,,,120,0,4,,,,3,,,90,64
230520,note_on,,,,,0,0,4,,,,3,,,97,77
230520,note_off,,,,,0,0,4,,,,3,,,82,64
230640,note_off,,,,,120,0,4,,,,3,,,97,64
230640,note_on,,,,,0,0,2,,,,1,,,66,71
230640,note_on,,,,,0,0,2,,,,1,,,61,75
230640,note_off,,,,,240,0,2,,,,1,,,54,64
230640,note_on,,,,,0,0,4,,,,3,,,94,83
230640,note_on,,,,,0,0,4,,,,3,,,85,77
230760,note_off,,,,,0,0,4,,,,3,,,85,64
230760,note_off,,,,,120,0,2,,,,1,,,66,64
230760,note_off,,,,,0,0,2,,,,1,,,61,64
230760,note_on,,,,,0,0,4,,,,3,,,97,79
230760,note_off,,,,,120,0,4,,,,3,,,94,64
230880,note_on,,,,,0,0,4,,,,3,,,90,79
230880,note_on,,,,,0,0,4,,,,3,,,82,67
230880,note_on,,,,,120,0,2,,,,1,,,49,75
230880,note_off,,,,,120,0,4,,,,3,,,97,64
231000,note_on,,,,,0,0,4,,,,3,,,97,87
231000,note_off,,,,,0,0,4,,,,3,,,82,64
231000,note_off,,,,,120,0,4,,,,3,,,90,64
231120,note_off,,,,,120,0,4,,,,3,,,97,64
231120,note_on,,,,,0,0,4,,,,3,,,94,87
231120,note_on,,,,,0,0,2,,,,1,,,61,75
231120,note_on,,,,,0,0,2,,,,1,,,66,69
231120,note_on,,,,,0,0,4,,,,3,,,85,79
231120,note_off,,,,,240,0,2,,,,1,,,49,64
231240,note_off,,,,,0,0,2,,,,1,,,61,64
231240,note_on,,,,,0,0,4,,,,3,,,97,83
231240,note_off,,,,,120,0,2,,,,1,,,66,64
231240,note_off,,,,,120,0,4,,,,3,,,94,64
231240,note_off,,,,,0,0,4,,,,3,,,85,64
231360,note_on,,,,,0,0,2,,,,1,,,69,77
231360,note_on,,,,,120,0,2,,,,1,,,72,83
231360,note_on,,,,,0,0,4,,,,3,,,82,75
231360,note_on,,,,,0,0,4,,,,3,,,90,77
231360,note_off,,,,,120,0,4,,,,3,,,97,64
231480,note_off,,,,,120,0,4,,,,3,,,90,64
231480,note_off,,,,,120,0,2,,,,1,,,72,64
231480,note_off,,,,,0,0,4,,,,3,,,82,64
231480,note_off,,,,,0,0,2,,,,1,,,69,64
231480,note_on,,,,,0,0,4,,,,3,,,97,91
231600,note_on,,,,,0,0,4,,,,3,,,85,79
231600,note_on,,,,,120,0,2,,,,1,,,73,91
231600,note_on,,,,,0,0,2,,,,1,,,70,77
231600,note_on,,,,,0,0,4,,,,3,,,94,87
231600,note_off,,,,,120,0,4,,,,3,,,97,64
231720,note_off,,,,,120,0,2,,,,1,,,73,64
231720,note_off,,,,,0,0,2,,,,1,,,70,64
231720,note_off,,,,,0,0,4,,,,3,,,85,64
231720,note_on,,,,,0,0,4,,,,3,,,97,83
231720,note_off,,,,,120,0,4,,,,3,,,94,64
231840,note_on,,,,,0,0,4,,,,3,,,78,65
231840,note_on,,,,,0,0,4,,,,3,,,90,73
231840,note_on,,,,,120,0,2,,,,1,,,70,79
231840,note_on,,,,,0,0,4,,,,3,,,85,79
231840,note_on,,,,,0,0,2,,,,1,,,66,69
231840,note_off,,,,,120,0,4,,,,3,,,97,64
232200,note_on,,,,,0,0,2,,,,1,,,73,83
232200,note_off,,,,,360,0,2,,,,1,,,70,64
232310,note_off,,,,,0,0,4,,,,3,,,78,64
232310,note_off,,,,,0,0,4,,,,3,,,85,64
232310,note_off,,,,,470,0,4,,,,3,,,90,64
232310,note_off,,,,,0,0,2,,,,1,,,73,64
232310,note_off,,,,,110,0,2,,,,1,,,66,64
232320,note_on,,,,,0,0,4,,,,3,,,83,65
232320,note_on,,,,,0,0,2,,,,1,,,56,93
232320,note_on,,,,,0,0,4,,,,3,,,89,87
232320,control_change,,,,,10,0,2,,,,1,0,0,,
232320,control_change,,,,,19210,0,1,,,,0,0,0,,
232320,control_change,,,,,69130,0,3,,,,2,0,0,,
232320,control_change,,,,,10,0,4,,,,3,0,0,,
232440,note_off,,,,,0,0,4,,,,3,,,83,64
232440,note_on,,,,,0,0,4,,,,3,,,97,83
232440,note_off,,,,,120,0,4,,,,3,,,89,64
232560,note_on,,,,,0,0,2,,,,1,,,61,71
232560,note_on,,,,,0,0,4,,,,3,,,92,91
232560,note_on,,,,,0,0,4,,,,3,,,85,73
232560,note_off,,,,,120,0,4,,,,3,,,97,64
232560,note_off,,,,,240,0,2,,,,1,,,56,64
232560,note_on,,,,,0,0,2,,,,1,,,65,79
232680,note_off,,,,,120,0,2,,,,1,,,65,64
232680,note_off,,,,,120,0,4,,,,3,,,92,64
232680,note_off,,,,,0,0,4,,,,3,,,85,64
232680,note_off,,,,,0,0,2,,,,1,,,61,64
232680,note_on,,,,,0,0,4,,,,3,,,97,87
232800,note_off,,,,,120,0,4,,,,3,,,97,64
232800,note_on,,,,,0,0,4,,,,3,,,83,71
232800,note_on,,,,,0,0,4,,,,3,,,89,93
232800,note_on,,,,,120,0,2,,,,1,,,49,73
232920,note_off,,,,,120,0,4,,,,3,,,89,64
232920,note_on,,,,,0,0,4,,,,3,,,97,87
232920,note_off,,,,,0,0,4,,,,3,,,83,64
233040,note_on,,,,,0,0,2,,,,1,,,65,83
233040,note_off,,,,,240,0,2,,,,1,,,49,64
233040,note_on,,,,,0,0,4,,,,3,,,85,73
233040,note_on,,,,,0,0,2,,,,1,,,61,73
233040,note_on,,,,,0,0,4,,,,3,,,92,79
233040,note_off,,,,,120,0,4,,,,3,,,97,64
233160,note_off,,,,,0,0,4,,,,3,,,85,64
233160,note_on,,,,,0,0,4,,,,3,,,97,87
233160,note_off,,,,,0,0,2,,,,1,,,65,64
233160,note_off,,,,,120,0,2,,,,1,,,61,64
233160,note_off,,,,,120,0,4,,,,3,,,92,64
233280,note_on,,,,,0,0,4,,,,3,,,89,93
233280,note_on,,,,,0,0,4,,,,3,,,83,75
233280,note_on,,,,,120,0,2,,,,1,,,72,79
233280,note_on,,,,,0,0,2,,,,1,,,68,57
233280,note_off,,,,,120,0,4,,,,3,,,97,64
233400,note_off,,,,,120,0,4,,,,3,,,89,64
233400,note_off,,,,,0,0,2,,,,1,,,68,64
233400,note_off,,,,,0,0,4,,,,3,,,83,64
233400,note_off,,,,,120,0,2,,,,1,,,72,64
233400,note_on,,,,,0,0,4,,,,3,,,97,77
233520,note_off,,,,,120,0,4,,,,3,,,97,64
233520,note_on,,,,,0,0,2,,,,1,,,65,63
233520,note_on,,,,,120,0,2,,,,1,,,73,75
233520,note_on,,,,,0,0,4,,,,3,,,92,87
233520,note_on,,,,,0,0,4,,,,3,,,85,61
233640,note_off,,,,,120,0,4,,,,3,,,92,64
233640,note_on,,,,,0,0,4,,,,3,,,97,83
233640,note_off,,,,,120,0,2,,,,1,,,73,64
233640,note_off,,,,,0,0,2,,,,1,,,65,64
233640,note_off,,,,,0,0,4,,,,3,,,85,64
233760,note_on,,,,,120,0,2,,,,1,,,71,79
233760,note_off,,,,,120,0,4,,,,3,,,97,64
233760,note_on,,,,,0,0,4,,,,3,,,85,77
233760,note_on,,,,,0,0,4,,,,3,,,77,71
233760,note_on,,,,,0,0,2,,,,1,,,68,75
233760,note_on,,,,,0,0,4,,,,3,,,89,79
234120,note_off,,,,,360,0,2,,,,1,,,71,64
234120,note_off,,,,,0,0,2,,,,1,,,68,64
234120,note_on,,,,,0,0,2,,,,1,,,65,71
234120,note_on,,,,,0,0,2,,,,1,,,73,79
234240,note_off,,,,,0,0,4,,,,3,,,85,64
234240,note_off,,,,,0,0,2,,,,1,,,65,64
234240,note_off,,,,,480,0,4,,,,3,,,89,64
234240,note_off,,,,,120,0,2,,,,1,,,73,64
234240,note_off,,,,,0,0,4,,,,3,,,77,64
234240,note_on,,,,,0,0,2,,,,1,,,54,79
234240,note_on,,,,,0,0,4,,,,3,,,82,73
234240,note_on,,,,,0,0,4,,,,3,,,90,87
234360,note_on,,,,,0,0,4,,,,3,,,97,77
234360,note_off,,,,,120,0,4,,,,3,,,90,64
234360,note_off,,,,,0,0,4,,,,3,,,82,64
234480,note_off,,,,,240,0,2,,,,1,,,54,64
234480,note_on,,,,,0,0,4,,,,3,,,85,77
234480,note_on,,,,,0,0,4,,,,3,,,94,83
234480,note_on,,,,,0,0,2,,,,1,,,66,71
234480,note_off,,,,,120,0,4,,,,3,,,97,64
234480,note_on,,,,,0,0,2,,,,1,,,61,75
234600,note_off,,,,,0,0,4,,,,3,,,85,64
234600,note_off,,,,,120,0,4,,,,3,,,94,64
234600,note_on,,,,,0,0,4,,,,3,,,97,79
234600,note_off,,,,,0,0,2,,,,1,,,61,64
234600,note_off,,,,,120,0,2,,,,1,,,66,64
234720,note_on,,,,,0,0,4,,,,3,,,82,67
234720,note_on,,,,,0,0,4,,,,3,,,90,79
234720,note_off,,,,,120,0,4,,,,3,,,97,64
234720,note_on,,,,,120,0,2,,,,1,,,49,75
234840,note_off,,,,,0,0,4,,,,3,,,82,64
234840,note_off,,,,,120,0,4,,,,3,,,90,64
234840,note_on,,,,,0,0,4,,,,3,,,97,87
234960,note_on,,,,,0,0,2,,,,1,,,61,75
234960,note_off,,,,,120,0,4,,,,3,,,97,64
234960,note_on,,,,,0,0,2,,,,1,,,66,69
234960,note_off,,,,,240,0,2,,,,1,,,49,64
234960,note_on,,,,,0,0,4,,,,3,,,94,87
234960,note_on,,,,,0,0,4,,,,3,,,85,79
235080,note_off,,,,,120,0,4,,,,3,,,94,64
235080,note_off,,,,,0,0,4,,,,3,,,85,64
235080,note_off,,,,,120,0,2,,,,1,,,66,64
235080,note_on,,,,,0,0,4,,,,3,,,97,83
235080,note_off,,,,,0,0,2,,,,1,,,61,64
235200,note_off,,,,,120,0,4,,,,3,,,97,64
235200,note_on,,,,,0,0,4,,,,3,,,90,77
235200,note_on,,,,,0,0,4,,,,3,,,82,75
235200,note_on,,,,,120,0,2,,,,1,,,72,83
235200,note_on,,,,,0,0,2,,,,1,,,69,77
235320,note_off,,,,,120,0,2,,,,1,,,72,64
235320,note_off,,,,,0,0,2,,,,1,,,69,64
235320,note_on,,,,,0,0,4,,,,3,,,97,91
235320,note_off,,,,,0,0,4,,,,3,,,82,64
235320,note_off,,,,,120,0,4,,,,3,,,90,64
235440,note_on,,,,,0,0,4,,,,3,,,94,87
235440,note_on,,,,,0,0,4,,,,3,,,85,79
235440,note_on,,,,,120,0,2,,,,1,,,73,91
235440,note_on,,,,,0,0,2,,,,1,,,70,77
235440,note_off,,,,,120,0,4,,,,3,,,97,64
235560,note_off,,,,,0,0,2,,,,1,,,70,64
235560,note_on,,,,,0,0,4,,,,3,,,97,83
235560,note_off,,,,,120,0,2,,,,1,,,73,64
235560,note_off,,,,,0,0,4,,,,3,,,85,64
235560,note_off,,,,,120,0,4,,,,3,,,94,64
235680,note_on,,,,,0,0,4,,,,3,,,90,73
235680,note_on,,,,,0,0,4,,,,3,,,85,79
235680,note_on,,,,,0,0,2,,,,1,,,66,69
235680,note_off,,,,,120,0,4,,,,3,,,97,64
235680,note_on,,,,,0,0,4,,,,3,,,78,65
235680,note_on,,,,,120,0,2,,,,1,,,70,79
236040,note_off,,,,,360,0,2,,,,1,,,70,64
236040,note_on,,,,,0,0,2,,,,1,,,73,83
236100,set_tempo,,,,,44590,1,0,500000,,,,,,,
236150,note_off,,,,,0,0,4,,,,3,,,78,64
236150,note_off,,,,,110,0,2,,,,1,,,66,64
236150,note_off,,,,,470,0,4,,,,3,,,90,64
236150,note_off,,,,,0,0,4,,,,3,,,85,64
236150,note_off,,,,,0,0,2,,,,1,,,73,64
236160,note_on,,,,,10,0,2,,,,1,,,56,97
236160,note_on,,,,,10,0,4,,,,3,,,83,93
236190,note_off,,,,,30,0,4,,,,3,,,83,64
236190,note_on,,,,,0,0,4,,,,3,,,99,101
236400,note_on,,,,,0,0,2,,,,1,,,73,67
236400,note_on,,,,,0,0,2,,,,1,,,65,87
236400,note_on,,,,,0,0,2,,,,1,,,61,65
236400,note_off,,,,,240,0,2,,,,1,,,56,64
236400,note_off,,,,,210,0,4,,,,3,,,99,64
236640,note_off,,,,,0,0,2,,,,1,,,61,64
236640,note_on,,,,,240,0,4,,,,3,,,80,113
236640,note_off,,,,,0,0,2,,,,1,,,65,64
236640,note_on,,,,,0,0,2,,,,1,,,49,91
236640,note_off,,,,,240,0,2,,,,1,,,73,64
236830,set_tempo,,,,,730,1,0,491803,,,,,,,
236880,note_on,,,,,0,0,2,,,,1,,,73,83
236880,note_on,,,,,0,0,2,,,,1,,,61,75
236880,note_off,,,,,240,0,2,,,,1,,,49,64
236880,note_on,,,,,0,0,2,,,,1,,,65,103
237120,note_off,,,,,240,0,2,,,,1,,,61,64
237120,note_on,,,,,0,0,2,,,,1,,,56,91
237120,note_off,,,,,0,0,2,,,,1,,,65,64
237120,note_off,,,,,0,0,2,,,,1,,,73,64
237220,set_tempo,,,,,390,1,0,487804,,,,,,,
237359,note_off,,,,,719,0,4,,,,3,,,80,64
237360,note_off,,,,,240,0,2,,,,1,,,56,64
237360,note_on,,,,,0,0,2,,,,1,,,61,73
237360,note_on,,,,,1,0,4,,,,3,,,82,97
237360,note_on,,,,,0,0,2,,,,1,,,65,97
237360,note_on,,,,,0,0,2,,,,1,,,73,75
237440,set_tempo,,,,,220,1,0,480000,,,,,,,
237480,note_off,,,,,120,0,4,,,,3,,,82,64
237600,note_off,,,,,240,0,2,,,,1,,,73,64
237600,note_off,,,,,0,0,2,,,,1,,,61,64
237600,note_on,,,,,0,0,2,,,,1,,,49,97
237600,note_on,,,,,120,0,4,,,,3,,,83,93
237600,note_off,,,,,0,0,2,,,,1,,,65,64
237610,set_tempo,,,,,170,1,0,476190,,,,,,,
237720,note_off,,,,,120,0,4,,,,3,,,83,64
237840,note_on,,,,,0,0,2,,,,1,,,65,93
237840,note_off,,,,,240,0,2,,,,1,,,49,64
237840,note_on,,,,,0,0,2,,,,1,,,73,77
237840,note_on,,,,,0,0,2,,,,1,,,61,69
237840,note_on,,,,,120,0,4,,,,3,,,80,101
237960,note_off,,,,,120,0,4,,,,3,,,80,64
238000,set_tempo,,,,,390,1,0,468750,,,,,,,
238080,note_on,,,,,120,0,4,,,,3,,,82,93
238080,note_off,,,,,0,0,2,,,,1,,,61,64
238080,note_off,,,,,240,0,2,,,,1,,,73,64
238080,note_off,,,,,0,0,2,,,,1,,,65,64
238080,note_on,,,,,0,0,2,,,,1,,,54,83
238110,note_on,,,,,0,0,4,,,,3,,,97,107
238110,note_off,,,,,30,0,4,,,,3,,,82,64
238240,set_tempo,,,,,240,1,0,465116,,,,,,,
238320,note_off,,,,,210,0,4,,,,3,,,97,64
238320,note_off,,,,,240,0,2,,,,1,,,54,64
238320,note_on,,,,,0,0,2,,,,1,,,70,91
238320,note_on,,,,,0,0,2,,,,1,,,66,91
238320,note_on,,,,,0,0,2,,,,1,,,61,75
238440,set_tempo,,,,,200,1,0,461538,,,,,,,
238560,note_on,,,,,240,0,4,,,,3,,,78,107
238560,note_off,,,,,0,0,2,,,,1,,,61,64
238560,note_off,,,,,0,0,2,,,,1,,,66,64
238560,note_on,,,,,0,0,2,,,,1,,,49,91
238560,note_off,,,,,240,0,2,,,,1,,,70,64
238650,set_tempo,,,,,210,1,0,458015,,,,,,,
238800,note_on,,,,,0,0,2,,,,1,,,61,73
238800,note_on,,,,,0,0,2,,,,1,,,66,93
238800,note_on,,,,,0,0,2,,,,1,,,70,91
238800,note_off,,,,,240,0,2,,,,1,,,49,64
238880,set_tempo,,,,,230,1,0,454545,,,,,,,
239040,note_off,,,,,0,0,2,,,,1,,,61,64
239040,note_off,,,,,0,0,2,,,,1,,,66,64
239040,note_on,,,,,0,0,2,,,,1,,,54,87
239040,note_off,,,,,240,0,2,,,,1,,,70,64
239230,set_tempo,,,,,350,1,0,447761,,,,,,,
239279,note_off,,,,,719,0,4,,,,3,,,78,64
239280,note_on,,,,,0,0,2,,,,1,,,70,93
239280,note_on,,,,,0,0,2,,,,1,,,61,67
239280,note_on,,,,,1,0,4,,,,3,,,80,97
239280,note_on,,,,,0,0,2,,,,1,,,66,87
239280,note_off,,,,,240,0,2,,,,1,,,54,64
239400,note_off,,,,,120,0,4,,,,3,,,80,64
239420,set_tempo,,,,,190,1,0,444444,,,,,,,
239520,note_on,,,,,120,0,4,,,,3,,,82,101
239520,note_off,,,,,240,0,2,,,,1,,,70,64
239520,note_off,,,,,0,0,2,,,,1,,,61,64
239520,note_off,,,,,0,0,2,,,,1,,,66,64
239520,note_on,,,,,0,0,2,,,,1,,,49,93
239620,set_tempo,,,,,200,1,0,441176,,,,,,,
239640,note_off,,,,,120,0,4,,,,3,,,82,64
239760,note_on,,,,,120,0,4,,,,3,,,78,101
239760,note_on,,,,,0,0,2,,,,1,,,70,91
239760,note_on,,,,,0,0,2,,,,1,,,61,75
239760,note_on,,,,,0,0,2,,,,1,,,66,87
239760,note_off,,,,,240,0,2,,,,1,,,49,64
239840,set_tempo,,,,,220,1,0,437956,,,,,,,
239880,note_off,,,,,120,0,4,,,,3,,,78,64
240000,note_off,,,,,0,0,2,,,,1,,,61,64
240000,note_off,,,,,0,0,2,,,,1,,,66,64
240000,note_on,,,,,120,0,4,,,,3,,,77,103
240000,note_off,,,,,240,0,2,,,,1,,,70,64
240000,note_on,,,,,0,0,2,,,,1,,,56,93
240120,note_off,,,,,120,0,4,,,,3,,,77,64
240200,set_tempo,,,,,360,1,0,434782,,,,,,,
240240,note_on,,,,,0,0,2,,,,1,,,61,73
240240,note_on,,,,,0,0,2,,,,1,,,73,91
240240,note_off,,,,,240,0,2,,,,1,,,56,64
240240,note_on,,,,,120,0,4,,,,3,,,78,101
240240,note_on,,,,,0,0,2,,,,1,,,65,103
240360,note_off,,,,,120,0,4,,,,3,,,78,64
240400,set_tempo,,,,,200,1,0,428571,,,,,,,
240480,note_off,,,,,240,0,2,,,,1,,,73,64
240480,note_on,,,,,120,0,4,,,,3,,,80,101
240480,note_off,,,,,0,0,2,,,,1,,,61,64
240480,note_off,,,,,0,0,2,,,,1,,,65,64
240480,note_on,,,,,0,0,2,,,,1,,,49,91
240600,note_off,,,,,120,0,4,,,,3,,,80,64
240720,note_on,,,,,0,0,2,,,,1,,,65,107
240720,note_on,,,,,0,0,2,,,,1,,,73,79
240720,note_on,,,,,0,0,2,,,,1,,,61,77
240720,note_on,,,,,120,0,4,,,,3,,,82,101
240720,note_off,,,,,240,0,2,,,,1,,,49,64
240770,set_tempo,,,,,370,1,0,422535,,,,,,,
240840,note_off,,,,,120,0,4,,,,3,,,82,64
240960,note_off,,,,,0,0,2,,,,1,,,61,64
240960,note_on,,,,,0,0,2,,,,1,,,56,91
240960,note_off,,,,,0,0,2,,,,1,,,65,64
240960,note_off,,,,,240,0,2,,,,1,,,73,64
240960,note_on,,,,,120,0,4,,,,3,,,83,107
240980,set_tempo,,,,,210,1,0,419580,,,,,,,
241080,note_off,,,,,120,0,4,,,,3,,,83,64
241200,note_on,,,,,0,0,2,,,,1,,,61,69
241200,note_on,,,,,120,0,4,,,,3,,,85,113
241200,note_on,,,,,0,0,2,,,,1,,,73,79
241200,note_on,,,,,0,0,2,,,,1,,,65,97
241200,note_off,,,,,240,0,2,,,,1,,,56,64
241320,note_off,,,,,120,0,4,,,,3,,,85,64
241380,set_tempo,,,,,400,1,0,413793,,,,,,,
241440,note_on,,,,,0,0,2,,,,1,,,49,97
241440,note_off,,,,,0,0,2,,,,1,,,61,64
241440,note_off,,,,,240,0,2,,,,1,,,73,64
241440,note_on,,,,,120,0,4,,,,3,,,87,103
241440,note_off,,,,,0,0,2,,,,1,,,65,64
241560,note_off,,,,,120,0,4,,,,3,,,87,64
241680,note_on,,,,,120,0,4,,,,3,,,89,103
241680,note_on,,,,,0,0,2,,,,1,,,73,83
241680,note_off,,,,,240,0,2,,,,1,,,49,64
241680,note_on,,,,,0,0,2,,,,1,,,65,103
241680,note_on,,,,,0,0,2,,,,1,,,61,75
241800,note_off,,,,,120,0,4,,,,3,,,89,64
241820,set_tempo,,,,,440,1,0,408163,,,,,,,
241920,note_on,,,,,120,0,4,,,,3,,,90,97
241920,note_off,,,,,240,0,2,,,,1,,,73,64
241920,note_off,,,,,0,0,2,,,,1,,,61,64
241920,note_off,,,,,0,0,2,,,,1,,,65,64
241920,note_on,,,,,0,0,2,,,,1,,,54,93
241950,note_on,,,,,0,0,4,,,,3,,,92,103
241950,note_off,,,,,30,0,4,,,,3,,,90,64
241980,note_off,,,,,30,0,4,,,,3,,,92,64
241980,note_on,,,,,0,0,4,,,,3,,,90,101
242030,set_tempo,,,,,210,1,0,405405,,,,,,,
242040,note_off,,,,,60,0,4,,,,3,,,90,64
242160,note_off,,,,,240,0,2,,,,1,,,54,64
242160,note_on,,,,,0,0,2,,,,1,,,66,91
242160,note_on,,,,,0,0,2,,,,1,,,61,75
242160,note_on,,,,,0,0,2,,,,1,,,70,93
242160,note_on,,,,,120,0,4,,,,3,,,89,101
242280,note_off,,,,,120,0,4,,,,3,,,89,64
242400,note_off,,,,,0,0,2,,,,1,,,66,64
242400,note_off,,,,,240,0,2,,,,1,,,70,64
242400,note_off,,,,,0,0,2,,,,1,,,61,64
242400,note_on,,,,,120,0,4,,,,3,,,90,101
242400,note_on,,,,,0,0,2,,,,1,,,49,97
242440,set_tempo,,,,,410,1,0,400000,,,,,,,
242520,note_off,,,,,120,0,4,,,,3,,,90,64
242640,note_on,,,,,0,0,2,,,,1,,,66,83
242640,note_on,,,,,0,0,2,,,,1,,,61,71
242640,note_on,,,,,120,0,4,,,,3,,,92,93
242640,note_on,,,,,0,0,2,,,,1,,,70,83
242640,note_off,,,,,240,0,2,,,,1,,,49,64
242760,note_off,,,,,120,0,4,,,,3,,,92,64
242870,set_tempo,,,,,430,1,0,397350,,,,,,,
242880,note_off,,,,,0,0,2,,,,1,,,61,64
242880,note_off,,,,,0,0,2,,,,1,,,66,64
242880,note_off,,,,,240,0,2,,,,1,,,70,64
242880,note_on,,,,,0,0,2,,,,1,,,54,87
242880,note_on,,,,,120,0,4,,,,3,,,94,89
243000,note_off,,,,,120,0,4,,,,3,,,94,64
243080,set_tempo,,,,,210,1,0,394736,,,,,,,
243120,note_on,,,,,0,0,2,,,,1,,,61,77
243120,note_on,,,,,0,0,2,,,,1,,,66,103
243120,note_on,,,,,0,0,2,,,,1,,,70,91
243120,note_off,,,,,240,0,2,,,,1,,,54,64
243120,note_on,,,,,120,0,4,,,,3,,,92,101
243240,note_off,,,,,120,0,4,,,,3,,,92,64
243310,set_tempo,,,,,230,1,0,389610,,,,,,,
243360,note_off,,,,,240,0,2,,,,1,,,70,64
243360,note_on,,,,,0,0,2,,,,1,,,49,91
243360,note_on,,,,,120,0,4,,,,3,,,94,101
243360,note_off,,,,,0,0,2,,,,1,,,66,64
243360,note_off,,,,,0,0,2,,,,1,,,61,64
243480,note_off,,,,,120,0,4,,,,3,,,94,64
243600,note_on,,,,,120,0,4,,,,3,,,90,103
243600,note_off,,,,,240,0,2,,,,1,,,49,64
243600,note_on,,,,,0,0,2,,,,1,,,70,93
243600,note_on,,,,,0,0,2,,,,1,,,66,87
243600,note_on,,,,,0,0,2,,,,1,,,61,71
243720,note_off,,,,,120,0,4,,,,3,,,90,64
243780,set_tempo,,,,,470,1,0,384615,,,,,,,
243840,note_on,,,,,0,0,2,,,,1,,,56,87
243840,note_on,,,,,120,0,4,,,,3,,,83,107
243840,note_off,,,,,240,0,2,,,,1,,,70,64
243840,note_off,,,,,0,0,2,,,,1,,,61,64
243840,note_off,,,,,0,0,2,,,,1,,,66,64
243870,note_on,,,,,0,0,4,,,,3,,,89,107
243870,note_off,,,,,30,0,4,,,,3,,,83,64
243900,note_on,,,,,0,0,4,,,,3,,,92,89
243900,note_off,,,,,30,0,4,,,,3,,,89,64
243930,note_off,,,,,30,0,4,,,,3,,,92,64
243930,note_on,,,,,0,0,4,,,,3,,,99,107
243960,note_off,,,,,30,0,4,,,,3,,,99,64
244080,note_on,,,,,0,0,2,,,,1,,,65,97
244080,note_on,,,,,0,0,2,,,,1,,,61,69
244080,note_off,,,,,240,0,2,,,,1,,,56,64
244080,note_on,,,,,0,0,2,,,,1,,,73,77
244290,set_tempo,,,,,510,1,0,382165,,,,,,,
244320,note_off,,,,,240,0,2,,,,1,,,73,64
244320,note_off,,,,,0,0,2,,,,1,,,61,64
244320,note_on,,,,,360,0,4,,,,3,,,80,89
244320,note_on,,,,,0,0,4,,,,3,,,77,93
244320,note_on,,,,,0,0,2,,,,1,,,49,91
244320,note_off,,,,,0,0,2,,,,1,,,65,64
244560,note_on,,,,,0,0,2,,,,1,,,61,77
244560,set_tempo,,,,,270,1,0,377358,,,,,,,
244560,note_on,,,,,0,0,2,,,,1,,,65,93
244560,note_off,,,,,240,0,2,,,,1,,,49,64
244560,note_on,,,,,0,0,2,,,,1,,,73,87
244800,note_off,,,,,240,0,2,,,,1,,,73,64
244800,note_off,,,,,0,0,2,,,,1,,,65,64
244800,note_off,,,,,0,0,2,,,,1,,,61,64
244800,note_on,,,,,0,0,2,,,,1,,,56,93
244840,set_tempo,,,,,280,1,0,375000,,,,,,,
245039,note_off,,,,,719,0,4,,,,3,,,80,64
245039,note_off,,,,,0,0,4,,,,3,,,77,64
245040,note_on,,,,,0,0,2,,,,1,,,61,71
245040,note_off,,,,,240,0,2,,,,1,,,56,64
245040,note_on,,,,,0,0,2,,,,1,,,73,77
245040,note_on,,,,,1,0,4,,,,3,,,82,87
245040,note_on,,,,,0,0,4,,,,3,,,78,97
245040,note_on,,,,,0,0,2,,,,1,,,65,103
245160,note_off,,,,,120,0,4,,,,3,,,82,64
245160,note_off,,,,,0,0,4,,,,3,,,78,64
245280,note_off,,,,,240,0,2,,,,1,,,73,64
245280,note_off,,,,,0,0,2,,,,1,,,65,64
245280,note_on,,,,,0,0,4,,,,3,,,80,101
245280,note_on,,,,,0,0,2,,,,1,,,49,83
245280,note_on,,,,,120,0,4,,,,3,,,83,101
245280,note_off,,,,,0,0,2,,,,1,,,61,64
245400,note_off,,,,,120,0,4,,,,3,,,83,64
245400,note_off,,,,,0,0,4,,,,3,,,80,64
245520,note_on,,,,,120,0,4,,,,3,,,80,89
245520,note_on,,,,,0,0,2,,,,1,,,73,87
245520,note_on,,,,,0,0,2,,,,1,,,65,103
245520,note_on,,,,,0,0,2,,,,1,,,61,77
245520,note_off,,,,,240,0,2,,,,1,,,49,64
245520,note_on,,,,,0,0,4,,,,3,,,77,87
245640,note_off,,,,,0,0,4,,,,3,,,77,64
245640,note_off,,,,,120,0,4,,,,3,,,80,64
245760,note_off,,,,,0,0,2,,,,1,,,61,64
245760,note_on,,,,,120,0,4,,,,3,,,82,87
245760,note_off,,,,,240,0,2,,,,1,,,73,64
245760,note_off,,,,,0,0,2,,,,1,,,65,64
245760,note_on,,,,,0,0,2,,,,1,,,54,83
245790,note_on,,,,,0,0,4,,,,3,,,85,85
245790,note_off,,,,,30,0,4,,,,3,,,82,64
245820,note_off,,,,,30,0,4,,,,3,,,85,64
245820,note_on,,,,,0,0,4,,,,3,,,92,101
245850,note_off,,,,,30,0,4,,,,3,,,92,64
245850,note_on,,,,,0,0,4,,,,3,,,97,101
245990,set_tempo,,,,,1150,1,0,377358,,,,,,,
246000,note_off,,,,,240,0,2,,,,1,,,54,64
246000,note_on,,,,,0,0,2,,,,1,,,66,87
246000,note_on,,,,,0,0,2,,,,1,,,70,93
246000,note_on,,,,,0,0,2,,,,1,,,61,77
246000,note_off,,,,,150,0,4,,,,3,,,97,64
246240,note_off,,,,,240,0,2,,,,1,,,70,64
246240,note_on,,,,,0,0,2,,,,1,,,49,91
246240,note_on,,,,,0,0,4,,,,3,,,70,85
246240,note_on,,,,,240,0,4,,,,3,,,78,93
246240,note_off,,,,,0,0,2,,,,1,,,66,64
246240,note_off,,,,,0,0,2,,,,1,,,61,64
246480,note_on,,,,,0,0,2,,,,1,,,66,87
246480,note_on,,,,,0,0,2,,,,1,,,61,75
246480,note_off,,,,,240,0,2,,,,1,,,49,64
246720,note_off,,,,,0,0,2,,,,1,,,61,64
246720,note_off,,,,,240,0,2,,,,1,,,66,64
246720,note_on,,,,,0,0,2,,,,1,,,54,87
246959,note_off,,,,,0,0,4,,,,3,,,70,64
246959,note_off,,,,,719,0,4,,,,3,,,78,64
246960,note_off,,,,,240,0,2,,,,1,,,54,64
246960,note_on,,,,,0,0,2,,,,1,,,66,91
246960,note_on,,,,,0,0,4,,,,3,,,71,87
246960,note_on,,,,,0,0,2,,,,1,,,61,73
246960,note_on,,,,,1,0,4,,,,3,,,80,101
247080,note_off,,,,,0,0,4,,,,3,,,71,64
247080,note_off,,,,,120,0,4,,,,3,,,80,64
247200,note_off,,,,,0,0,2,,,,1,,,61,64
247200,note_on,,,,,0,0,4,,,,3,,,73,93
247200,note_on,,,,,120,0,4,,,,3,,,82,97
247200,note_on,,,,,0,0,2,,,,1,,,49,87
247200,note_off,,,,,240,0,2,,,,1,,,66,64
247320,note_off,,,,,0,0,4,,,,3,,,73,64
247320,note_off,,,,,120,0,4,,,,3,,,82,64
247440,note_off,,,,,240,0,2,,,,1,,,49,64
247440,note_on,,,,,0,0,4,,,,3,,,70,81
247440,note_on,,,,,0,0,2,,,,1,,,66,93
247440,note_on,,,,,0,0,2,,,,1,,,61,77
247440,note_on,,,,,120,0,4,,,,3,,,78,93
247560,note_off,,,,,0,0,4,,,,3,,,70,64
247560,note_off,,,,,120,0,4,,,,3,,,78,64
247680,note_on,,,,,0,0,4,,,,3,,,68,89
247680,note_off,,,,,0,0,2,,,,1,,,61,64
247680,note_on,,,,,120,0,4,,,,3,,,77,93
247680,note_off,,,,,240,0,2,,,,1,,,66,64
247680,note_on,,,,,0,0,2,,,,1,,,56,91
247800,note_off,,,,,120,0,4,,,,3,,,77,64
247800,note_off,,,,,0,0,4,,,,3,,,68,64
247920,note_on,,,,,0,0,2,,,,1,,,59,77
247920,note_on,,,,,0,0,4,,,,3,,,70,89
247920,note_on,,,,,0,0,2,,,,1,,,61,83
247920,note_on,,,,,0,0,2,,,,1,,,65,97
247920,note_on,,,,,120,0,4,,,,3,,,78,97
247920,note_off,,,,,240,0,2,,,,1,,,56,64
248040,note_off,,,,,120,0,4,,,,3,,,78,64
248040,note_off,,,,,0,0,4,,,,3,,,70,64
248160,note_on,,,,,120,0,4,,,,3,,,80,97
248160,note_on,,,,,0,0,4,,,,3,,,71,93
248160,note_off,,,,,0,0,2,,,,1,,,61,64
248160,note_off,,,,,0,0,2,,,,1,,,59,64
248160,note_on,,,,,0,0,2,,,,1,,,49,87
248160,note_off,,,,,240,0,2,,,,1,,,65,64
248280,note_off,,,,,0,0,4,,,,3,,,71,64
248280,note_off,,,,,120,0,4,,,,3,,,80,64
248400,note_off,,,,,240,0,2,,,,1,,,49,64
248400,note_on,,,,,0,0,2,,,,1,,,59,77
248400,note_on,,,,,0,0,4,,,,3,,,73,89
248400,note_on,,,,,0,0,2,,,,1,,,65,93
248400,note_on,,,,,0,0,2,,,,1,,,61,87
248400,note_on,,,,,120,0,4,,,,3,,,82,101
248520,note_off,,,,,0,0,4,,,,3,,,73,64
248520,note_off,,,,,120,0,4,,,,3,,,82,64
248640,note_on,,,,,120,0,4,,,,3,,,83,113
248640,note_off,,,,,0,0,2,,,,1,,,59,64
248640,note_on,,,,,0,0,4,,,,3,,,75,93
248640,note_off,,,,,0,0,2,,,,1,,,61,64
248640,note_on,,,,,0,0,2,,,,1,,,56,87
248640,note_off,,,,,240,0,2,,,,1,,,65,64
248760,note_off,,,,,0,0,4,,,,3,,,75,64
248760,note_off,,,,,120,0,4,,,,3,,,83,64
248880,note_on,,,,,0,0,2,,,,1,,,59,87
248880,note_on,,,,,0,0,2,,,,1,,,61,87
248880,note_on,,,,,0,0,2,,,,1,,,65,97
248880,note_off,,,,,240,0,2,,,,1,,,56,64
248880,note_on,,,,,0,0,4,,,,3,,,77,89
248880,note_on,,,,,120,0,4,,,,3,,,85,97
249000,note_off,,,,,120,0,4,,,,3,,,85,64
249000,note_off,,,,,0,0,4,,,,3,,,77,64
249120,note_off,,,,,240,0,2,,,,1,,,65,64
249120,note_off,,,,,0,0,2,,,,1,,,59,64
249120,note_off,,,,,0,0,2,,,,1,,,61,64
249120,note_on,,,,,120,0,4,,,,3,,,87,101
249120,note_on,,,,,0,0,2,,,,1,,,49,97
249120,note_on,,,,,0,0,4,,,,3,,,78,87
249240,note_off,,,,,0,0,4,,,,3,,,78,64
249240,note_off,,,,,120,0,4,,,,3,,,87,64
249360,note_off,,,,,240,0,2,,,,1,,,49,64
249360,note_on,,,,,0,0,2,,,,1,,,65,97
249360,note_on,,,,,120,0,4,,,,3,,,89,101
249360,note_on,,,,,0,0,4,,,,3,,,80,93
249360,note_on,,,,,0,0,2,,,,1,,,61,83
249360,note_on,,,,,0,0,2,,,,1,,,59,87
249480,note_off,,,,,0,0,4,,,,3,,,80,64
249480,note_off,,,,,120,0,4,,,,3,,,89,64
249600,note_on,,,,,0,0,4,,,,3,,,82,89
249600,note_on,,,,,120,0,4,,,,3,,,90,103
249600,note_off,,,,,0,0,2,,,,1,,,61,64
249600,note_off,,,,,0,0,2,,,,1,,,59,64
249600,note_on,,,,,0,0,2,,,,1,,,54,91
249600,note_off,,,,,240,0,2,,,,1,,,65,64
249720,note_off,,,,,120,0,4,,,,3,,,90,64
249720,note_off,,,,,0,0,4,,,,3,,,82,64
249840,note_on,,,,,120,0,4,,,,3,,,89,107
249840,note_on,,,,,0,0,4,,,,3,,,80,97
249840,note_on,,,,,0,0,2,,,,1,,,61,91
249840,note_off,,,,,240,0,2,,,,1,,,54,64
249840,note_on,,,,,0,0,2,,,,1,,,66,77
249840,note_on,,,,,0,0,2,,,,1,,,58,73
249960,note_off,,,,,0,0,4,,,,3,,,80,64
249960,note_off,,,,,120,0,4,,,,3,,,89,64
250080,note_on,,,,,120,0,4,,,,3,,,90,107
250080,note_on,,,,,0,0,4,,,,3,,,82,97
250080,note_off,,,,,0,0,2,,,,1,,,61,64
250080,note_on,,,,,0,0,2,,,,1,,,49,91
250080,note_off,,,,,240,0,2,,,,1,,,66,64
250080,note_off,,,,,0,0,2,,,,1,,,58,64
250200,note_off,,,,,120,0,4,,,,3,,,90,64
250200,note_off,,,,,0,0,4,,,,3,,,82,64
250320,note_off,,,,,240,0,2,,,,1,,,49,64
250320,note_on,,,,,0,0,4,,,,3,,,83,93
250320,note_on,,,,,0,0,2,,,,1,,,58,75
250320,note_on,,,,,0,0,2,,,,1,,,61,93
250320,note_on,,,,,0,0,2,,,,1,,,66,91
250320,note_on,,,,,120,0,4,,,,3,,,92,101
250440,note_off,,,,,0,0,4,,,,3,,,83,64
250440,note_off,,,,,120,0,4,,,,3,,,92,64
250560,note_off,,,,,0,0,2,,,,1,,,58,64
250560,note_on,,,,,0,0,2,,,,1,,,54,87
250560,note_off,,,,,0,0,2,,,,1,,,61,64
250560,note_off,,,,,240,0,2,,,,1,,,66,64
250560,note_on,,,,,0,0,4,,,,3,,,85,87
250560,note_on,,,,,120,0,4,,,,3,,,94,103
250680,note_off,,,,,0,0,4,,,,3,,,85,64
250680,note_off,,,,,120,0,4,,,,3,,,94,64
250800,note_on,,,,,0,0,2,,,,1,,,58,77
250800,note_off,,,,,240,0,2,,,,1,,,54,64
250800,note_on,,,,,120,0,4,,,,3,,,92,113
250800,note_on,,,,,0,0,2,,,,1,,,66,93
250800,note_on,,,,,0,0,2,,,,1,,,61,93
250800,note_on,,,,,0,0,4,,,,3,,,83,93
250920,note_off,,,,,0,0,4,,,,3,,,83,64
250920,note_off,,,,,120,0,4,,,,3,,,92,64
251040,note_off,,,,,0,0,2,,,,1,,,61,64
251040,note_off,,,,,240,0,2,,,,1,,,66,64
251040,note_off,,,,,0,0,2,,,,1,,,58,64
251040,note_on,,,,,0,0,2,,,,1,,,49,91
251040,note_on,,,,,120,0,4,,,,3,,,94,103
251040,note_on,,,,,0,0,4,,,,3,,,85,103
251160,note_off,,,,,0,0,4,,,,3,,,85,64
251160,note_off,,,,,120,0,4,,,,3,,,94,64
251280,note_on,,,,,120,0,4,,,,3,,,90,103
251280,note_on,,,,,0,0,2,,,,1,,,58,79
251280,note_on,,,,,0,0,2,,,,1,,,61,93
251280,note_on,,,,,0,0,4,,,,3,,,82,97
251280,note_off,,,,,240,0,2,,,,1,,,49,64
251280,note_on,,,,,0,0,2,,,,1,,,66,91
251400,note_off,,,,,120,0,4,,,,3,,,90,64
251400,note_off,,,,,0,0,4,,,,3,,,82,64
251520,note_on,,,,,0,0,2,,,,1,,,51,93
251520,note_on,,,,,120,0,4,,,,3,,,87,93
251520,note_off,,,,,240,0,2,,,,1,,,66,64
251520,note_off,,,,,0,0,2,,,,1,,,58,64
251520,note_off,,,,,0,0,2,,,,1,,,61,64
251550,note_on,,,,,0,0,4,,,,3,,,94,107
251550,note_off,,,,,30,0,4,,,,3,,,87,64
251580,note_off,,,,,30,0,4,,,,3,,,94,64
251580,note_on,,,,,0,0,4,,,,3,,,102,107
251760,note_on,,,,,0,0,2,,,,1,,,66,97
251760,note_off,,,,,240,0,2,,,,1,,,51,64
251760,note_off,,,,,180,0,4,,,,3,,,102,64
251760,note_on,,,,,0,0,2,,,,1,,,56,93
251760,note_on,,,,,0,0,2,,,,1,,,60,93
252000,note_off,,,,,0,0,2,,,,1,,,56,64
252000,note_off,,,,,0,0,2,,,,1,,,60,64
252000,note_on,,,,,240,0,4,,,,3,,,75,107
252000,note_off,,,,,240,0,2,,,,1,,,66,64
252000,note_on,,,,,0,0,2,,,,1,,,44,97
252000,note_on,,,,,0,0,4,,,,3,,,66,103
252240,note_on,,,,,0,0,2,,,,1,,,56,87
252240,note_on,,,,,0,0,2,,,,1,,,60,103
252240,note_off,,,,,240,0,2,,,,1,,,44,64
252480,note_off,,,,,240,0,2,,,,1,,,60,64
252480,note_off,,,,,0,0,2,,,,1,,,56,64
252480,note_on,,,,,0,0,2,,,,1,,,51,107
252719,note_off,,,,,719,0,4,,,,3,,,75,64
252719,note_off,,,,,0,0,4,,,,3,,,66,64
252720,note_on,,,,,0,0,2,,,,1,,,60,103
252720,note_on,,,,,1,0,4,,,,3,,,77,117
252720,note_off,,,,,240,0,2,,,,1,,,51,64
252720,note_on,,,,,0,0,2,,,,1,,,56,79
252720,note_on,,,,,0,0,4,,,,3,,,68,113
252840,note_off,,,,,0,0,4,,,,3,,,68,64
252840,note_off,,,,,120,0,4,,,,3,,,77,64
252960,note_off,,,,,0,0,2,,,,1,,,56,64
252960,note_on,,,,,0,0,2,,,,1,,,44,103
252960,note_off,,,,,240,0,2,,,,1,,,60,64
252960,note_on,,,,,120,0,4,,,,3,,,78,113
252960,note_on,,,,,0,0,4,,,,3,,,70,113
253080,note_off,,,,,0,0,4,,,,3,,,70,64
253080,note_off,,,,,120,0,4,,,,3,,,78,64
253200,note_off,,,,,240,0,2,,,,1,,,44,64
253200,note_on,,,,,120,0,4,,,,3,,,75,107
253200,note_on,,,,,0,0,4,,,,3,,,66,103
253200,note_on,,,,,0,0,2,,,,1,,,56,77
253200,note_on,,,,,0,0,2,,,,1,,,60,103
253320,note_off,,,,,0,0,4,,,,3,,,66,64
253320,note_off,,,,,120,0,4,,,,3,,,75,64
253440,note_on,,,,,120,0,4,,,,3,,,85,103
253440,note_off,,,,,0,0,2,,,,1,,,56,64
253440,note_off,,,,,240,0,2,,,,1,,,60,64
253440,note_on,,,,,0,0,2,,,,1,,,49,103
253470,note_on,,,,,0,0,4,,,,3,,,92,125
253470,note_off,,,,,30,0,4,,,,3,,,85,64
253500,note_off,,,,,30,0,4,,,,3,,,92,64
253500,note_on,,,,,0,0,4,,,,3,,,101,127
253680,note_on,,,,,0,0,2,,,,1,,,61,97
253680,note_on,,,,,0,0,2,,,,1,,,65,97
253680,note_off,,,,,180,0,4,,,,3,,,101,64
253680,note_off,,,,,240,0,2,,,,1,,,49,64
253680,note_on,,,,,0,0,2,,,,1,,,56,87
253920,note_on,,,,,240,0,4,,,,3,,,73,117
253920,note_on,,,,,0,0,2,,,,1,,,44,103
253920,note_off,,,,,0,0,2,,,,1,,,61,64
253920,note_off,,,,,0,0,2,,,,1,,,56,64
253920,note_on,,,,,0,0,4,,,,3,,,65,93
253920,note_off,,,,,240,0,2,,,,1,,,65,64
254160,note_on,,,,,0,0,2,,,,1,,,61,103
254160,note_on,,,,,0,0,2,,,,1,,,56,87
254160,note_off,,,,,240,0,2,,,,1,,,44,64
254400,note_on,,,,,0,0,2,,,,1,,,49,103
254400,note_off,,,,,240,0,2,,,,1,,,61,64
254400,note_off,,,,,0,0,2,,,,1,,,56,64
254639,note_off,,,,,719,0,4,,,,3,,,73,64
254639,note_off,,,,,0,0,4,,,,3,,,65,64
254640,note_on,,,,,0,0,4,,,,3,,,75,107
254640,note_on,,,,,1,0,4,,,,3,,,66,107
254640,note_on,,,,,0,0,2,,,,1,,,56,97
254640,note_on,,,,,0,0,2,,,,1,,,61,107
254640,note_off,,,,,240,0,2,,,,1,,,49,64
254760,note_off,,,,,120,0,4,,,,3,,,66,64
254760,note_off,,,,,0,0,4,,,,3,,,75,64
254880,note_off,,,,,240,0,2,,,,1,,,61,64
254880,note_on,,,,,0,0,4,,,,3,,,68,117
254880,note_on,,,,,0,0,2,,,,1,,,44,103
254880,note_on,,,,,120,0,4,,,,3,,,77,125
254880,note_off,,,,,0,0,2,,,,1,,,56,64
255000,note_off,,,,,0,0,4,,,,3,,,68,64
255000,note_off,,,,,120,0,4,,,,3,,,77,64
255120,note_on,,,,,0,0,4,,,,3,,,65,113
255120,note_on,,,,,120,0,4,,,,3,,,73,107
255120,note_off,,,,,240,0,2,,,,1,,,44,64
255120,note_on,,,,,0,0,2,,,,1,,,61,103
255120,note_on,,,,,0,0,2,,,,1,,,56,91
255240,note_off,,,,,120,0,4,,,,3,,,73,64
255240,note_off,,,,,0,0,4,,,,3,,,65,64
255360,note_off,,,,,0,0,2,,,,1,,,56,64
255360,note_off,,,,,240,0,2,,,,1,,,61,64
255360,note_on,,,,,0,0,2,,,,1,,,51,103
255360,note_on,,,,,120,0,4,,,,3,,,72,117
255360,note_on,,,,,0,0,4,,,,3,,,63,103
255480,note_off,,,,,120,0,4,,,,3,,,72,64
255480,note_off,,,,,0,0,4,,,,3,,,63,64
255600,note_on,,,,,120,0,4,,,,3,,,73,117
255600,note_off,,,,,240,0,2,,,,1,,,51,64
255600,note_on,,,,,0,0,4,,,,3,,,65,103
255600,note_on,,,,,0,0,2,,,,1,,,54,77
255600,note_on,,,,,0,0,2,,,,1,,,60,97
255600,note_on,,,,,0,0,2,,,,1,,,56,91
255720,note_off,,,,,120,0,4,,,,3,,,73,64
255720,note_off,,,,,0,0,4,,,,3,,,65,64
255840,note_off,,,,,0,0,2,,,,1,,,56,64
255840,note_off,,,,,0,0,2,,,,1,,,54,64
255840,note_off,,,,,240,0,2,,,,1,,,60,64
255840,note_on,,,,,0,0,2,,,,1,,,44,107
255840,note_on,,,,,0,0,4,,,,3,,,66,113
255840,note_on,,,,,120,0,4,,,,3,,,75,113
255960,note_off,,,,,120,0,4,,,,3,,,75,64
255960,note_off,,,,,0,0,4,,,,3,,,66,64
256080,note_on,,,,,120,0,4,,,,3,,,77,125
256080,note_off,,,,,240,0,2,,,,1,,,44,64
256080,note_on,,,,,0,0,2,,,,1,,,54,83
256080,note_on,,,,,0,0,4,,,,3,,,68,125
256080,note_on,,,,,0,0,2,,,,1,,,56,87
256080,note_on,,,,,0,0,2,,,,1,,,60,97
256200,note_off,,,,,120,0,4,,,,3,,,77,64
256200,note_off,,,,,0,0,4,,,,3,,,68,64
256320,note_on,,,,,120,0,4,,,,3,,,78,117
256320,note_on,,,,,0,0,4,,,,3,,,70,113
256320,note_off,,,,,0,0,2,,,,1,,,54,64
256320,note_off,,,,,0,0,2,,,,1,,,56,64
256320,note_off,,,,,240,0,2,,,,1,,,60,64
256320,note_on,,,,,0,0,2,,,,1,,,51,103
256440,note_off,,,,,0,0,4,,,,3,,,70,64
256440,note_off,,,,,120,0,4,,,,3,,,78,64
256560,note_on,,,,,0,0,2,,,,1,,,56,83
256560,note_on,,,,,0,0,2,,,,1,,,60,93
256560,note_off,,,,,240,0,2,,,,1,,,51,64
256560,note_on,,,,,0,0,4,,,,3,,,72,125
256560,note_on,,,,,120,0,4,,,,3,,,80,127
256560,note_on,,,,,0,0,2,,,,1,,,66,91
256680,note_off,,,,,120,0,4,,,,3,,,80,64
256680,note_off,,,,,0,0,4,,,,3,,,72,64
256800,note_off,,,,,0,0,2,,,,1,,,56,64
256800,note_off,,,,,0,0,2,,,,1,,,60,64
256800,note_on,,,,,0,0,2,,,,1,,,44,97
256800,note_on,,,,,120,0,4,,,,3,,,82,125
256800,note_on,,,,,0,0,4,,,,3,,,73,113
256800,note_off,,,,,240,0,2,,,,1,,,66,64
256920,note_off,,,,,0,0,4,,,,3,,,73,64
256920,note_off,,,,,120,0,4,,,,3,,,82,64
257040,note_on,,,,,0,0,2,,,,1,,,60,107
257040,note_on,,,,,0,0,2,,,,1,,,56,91
257040,note_off,,,,,240,0,2,,,,1,,,44,64
257040,note_on,,,,,120,0,4,,,,3,,,84,117
257040,note_on,,,,,0,0,4,,,,3,,,75,117
257160,note_off,,,,,120,0,4,,,,3,,,84,64
257160,note_off,,,,,0,0,4,,,,3,,,75,64
257280,note_off,,,,,0,0,2,,,,1,,,56,64
257280,note_on,,,,,120,0,4,,,,3,,,85,125
257280,note_on,,,,,0,0,2,,,,1,,,49,103
257280,note_on,,,,,0,0,4,,,,3,,,77,127
257280,note_off,,,,,240,0,2,,,,1,,,60,64
257400,note_off,,,,,120,0,4,,,,3,,,85,64
257400,note_off,,,,,0,0,4,,,,3,,,77,64
257520,note_on,,,,,0,0,2,,,,1,,,56,87
257520,note_on,,,,,0,0,2,,,,1,,,61,97
257520,note_on,,,,,0,0,2,,,,1,,,65,97
257520,note_off,,,,,240,0,2,,,,1,,,49,64
257520,note_on,,,,,120,0,4,,,,3,,,84,117
257520,note_on,,,,,0,0,4,,,,3,,,75,125
257640,note_off,,,,,120,0,4,,,,3,,,84,64
257640,note_off,,,,,0,0,4,,,,3,,,75,64
257760,note_on,,,,,120,0,4,,,,3,,,85,117
257760,note_off,,,,,240,0,2,,,,1,,,65,64
257760,note_on,,,,,0,0,4,,,,3,,,77,125
257760,note_off,,,,,0,0,2,,,,1,,,56,64
257760,note_on,,,,,0,0,2,,,,1,,,44,103
257760,note_off,,,,,0,0,2,,,,1,,,61,64
257880,note_off,,,,,0,0,4,,,,3,,,77,64
257880,note_off,,,,,120,0,4,,,,3,,,85,64
258000,note_on,,,,,0,0,2,,,,1,,,56,83
258000,note_on,,,,,0,0,2,,,,1,,,61,97
258000,note_on,,,,,0,0,4,,,,3,,,78,113
258000,note_on,,,,,120,0,4,,,,3,,,87,125
258000,note_off,,,,,240,0,2,,,,1,,,44,64
258120,note_off,,,,,0,0,4,,,,3,,,78,64
258120,note_off,,,,,120,0,4,,,,3,,,87,64
258240,note_on,,,,,0,0,2,,,,1,,,49,118
258240,note_off,,,,,0,0,2,,,,1,,,56,64
258240,note_on,,,,,0,0,4,,,,3,,,80,125
258240,note_on,,,,,120,0,4,,,,3,,,89,125
258240,note_off,,,,,240,0,2,,,,1,,,61,64
258360,note_off,,,,,120,0,4,,,,3,,,89,64
258360,note_off,,,,,0,0,4,,,,3,,,80,64
258480,note_on,,,,,0,0,2,,,,1,,,61,93
258480,note_on,,,,,0,0,2,,,,1,,,56,87
258480,note_on,,,,,0,0,2,,,,1,,,65,97
258480,note_on,,,,,120,0,4,,,,3,,,87,125
258480,note_on,,,,,0,0,4,,,,3,,,78,117
258480,note_off,,,,,240,0,2,,,,1,,,49,64
258600,note_off,,,,,0,0,4,,,,3,,,78,64
258600,note_off,,,,,120,0,4,,,,3,,,87,64
258720,note_on,,,,,0,0,2,,,,1,,,44,103
258720,note_off,,,,,0,0,2,,,,1,,,61,64
258720,note_on,,,,,0,0,4,,,,3,,,80,125
258720,note_on,,,,,120,0,4,,,,3,,,89,125
258720,note_off,,,,,240,0,2,,,,1,,,65,64
258720,note_off,,,,,0,0,2,,,,1,,,56,64
258840,note_off,,,,,120,0,4,,,,3,,,89,64
258840,note_off,,,,,0,0,4,,,,3,,,80,64
258960,note_on,,,,,0,0,2,,,,1,,,61,103
258960,note_on,,,,,0,0,2,,,,1,,,56,91
258960,note_on,,,,,120,0,4,,,,3,,,85,117
258960,note_off,,,,,240,0,2,,,,1,,,44,64
258960,note_on,,,,,0,0,4,,,,3,,,77,127
259080,note_off,,,,,0,0,4,,,,3,,,77,64
259080,note_off,,,,,120,0,4,,,,3,,,85,64
259200,note_on,,,,,120,0,4,,,,3,,,87,107
259200,note_off,,,,,240,0,2,,,,1,,,61,64
259200,note_on,,,,,0,0,2,,,,1,,,51,97
259200,note_off,,,,,0,0,2,,,,1,,,56,64
259230,note_off,,,,,30,0,4,,,,3,,,87,64
259230,note_on,,,,,0,0,4,,,,3,,,94,117
259260,note_on,,,,,0,0,4,,,,3,,,102,127
259260,note_off,,,,,30,0,4,,,,3,,,94,64
259440,note_off,,,,,240,0,2,,,,1,,,51,64
259440,note_on,,,,,0,0,2,,,,1,,,66,97
259440,note_off,,,,,180,0,4,,,,3,,,102,64
259440,note_on,,,,,0,0,2,,,,1,,,56,93
259440,note_on,,,,,0,0,2,,,,1,,,60,103
259680,note_off,,,,,0,0,2,,,,1,,,60,64
259680,note_off,,,,,0,0,2,,,,1,,,56,64
259680,note_on,,,,,240,0,4,,,,3,,,75,107
259680,note_off,,,,,240,0,2,,,,1,,,66,64
259680,note_on,,,,,0,0,2,,,,1,,,44,103
259680,note_on,,,,,0,0,4,,,,3,,,66,101
259920,note_on,,,,,0,0,2,,,,1,,,60,107
259920,note_off,,,,,240,0,2,,,,1,,,44,64
259920,note_on,,,,,0,0,2,,,,1,,,56,91
260160,note_off,,,,,240,0,2,,,,1,,,60,64
260160,note_off,,,,,0,0,2,,,,1,,,56,64
260160,note_on,,,,,0,0,2,,,,1,,,51,118
260399,note_off,,,,,719,0,4,,,,3,,,75,64
260399,note_off,,,,,0,0,4,,,,3,,,66,64
260400,note_on,,,,,1,0,4,,,,3,,,77,113
260400,note_on,,,,,0,0,4,,,,3,,,68,103
260400,note_on,,,,,0,0,2,,,,1,,,56,91
260400,note_on,,,,,0,0,2,,,,1,,,60,103
260400,note_off,,,,,240,0,2,,,,1,,,51,64
260520,note_off,,,,,120,0,4,,,,3,,,77,64
260520,note_off,,,,,0,0,4,,,,3,,,68,64
260640,note_on,,,,,0,0,4,,,,3,,,70,97
260640,note_off,,,,,240,0,2,,,,1,,,60,64
260640,note_on,,,,,120,0,4,,,,3,,,78,107
260640,note_off,,,,,0,0,2,,,,1,,,56,64
260640,note_on,,,,,0,0,2,,,,1,,,44,107
260760,note_off,,,,,120,0,4,,,,3,,,78,64
260760,note_off,,,,,0,0,4,,,,3,,,70,64
260880,note_on,,,,,0,0,2,,,,1,,,56,91
260880,note_off,,,,,240,0,2,,,,1,,,44,64
260880,note_on,,,,,0,0,2,,,,1,,,60,107
260880,note_on,,,,,0,0,4,,,,3,,,66,113
260880,note_on,,,,,120,0,4,,,,3,,,75,117
261000,note_off,,,,,120,0,4,,,,3,,,75,64
261000,note_off,,,,,0,0,4,,,,3,,,66,64
261120,note_off,,,,,240,0,2,,,,1,,,60,64
261120,note_on,,,,,120,0,4,,,,3,,,85,101
261120,note_off,,,,,0,0,2,,,,1,,,56,64
261120,note_on,,,,,0,0,2,,,,1,,,49,118
261150,note_on,,,,,0,0,4,,,,3,,,92,113
261150,note_off,,,,,30,0,4,,,,3,,,85,64
261180,note_on,,,,,0,0,4,,,,3,,,101,125
261180,note_off,,,,,30,0,4,,,,3,,,92,64
261360,note_on,,,,,0,0,2,,,,1,,,61,103
261360,note_on,,,,,0,0,2,,,,1,,,65,103
261360,note_off,,,,,180,0,4,,,,3,,,101,64
261360,note_on,,,,,0,0,2,,,,1,,,56,87
261360,note_off,,,,,240,0,2,,,,1,,,49,64
261600,note_on,,,,,240,0,4,,,,3,,,73,117
261600,note_off,,,,,240,0,2,,,,1,,,65,64
261600,note_off,,,,,0,0,2,,,,1,,,61,64
261600,note_off,,,,,0,0,2,,,,1,,,56,64
261600,note_on,,,,,0,0,2,,,,1,,,44,107
261600,note_on,,,,,0,0,4,,,,3,,,65,117
261840,note_off,,,,,240,0,2,,,,1,,,44,64
261840,note_on,,,,,0,0,2,,,,1,,,61,103
261840,note_on,,,,,0,0,2,,,,1,,,56,93
262080,note_off,,,,,240,0,2,,,,1,,,61,64
262080,note_on,,,,,0,0,2,,,,1,,,49,97
262080,note_off,,,,,0,0,2,,,,1,,,56,64
262319,note_off,,,,,0,0,4,,,,3,,,65,64
262319,note_off,,,,,719,0,4,,,,3,,,73,64
262320,note_on,,,,,1,0,4,,,,3,,,66,117
262320,note_on,,,,,0,0,4,,,,3,,,75,127
262320,note_on,,,,,0,0,2,,,,1,,,56,83
262320,note_on,,,,,0,0,2,,,,1,,,61,97
262320,note_off,,,,,240,0,2,,,,1,,,49,64
262440,note_off,,,,,0,0,4,,,,3,,,75,64
262440,note_off,,,,,120,0,4,,,,3,,,66,64
262560,note_off,,,,,240,0,2,,,,1,,,61,64
262560,note_on,,,,,120,0,4,,,,3,,,77,117
262560,note_on,,,,,0,0,4,,,,3,,,68,117
262560,note_off,,,,,0,0,2,,,,1,,,56,64
262560,note_on,,,,,0,0,2,,,,1,,,44,103
262680,note_off,,,,,0,0,4,,,,3,,,68,64
262680,note_off,,,,,120,0,4,,,,3,,,77,64
262800,note_off,,,,,240,0,2,,,,1,,,44,64
262800,note_on,,,,,0,0,4,,,,3,,,65,101
262800,note_on,,,,,0,0,2,,,,1,,,56,83
262800,note_on,,,,,120,0,4,,,,3,,,73,117
262800,note_on,,,,,0,0,2,,,,1,,,61,97
262920,note_off,,,,,120,0,4,,,,3,,,73,64
262920,note_off,,,,,0,0,4,,,,3,,,65,64
263040,note_off,,,,,0,0,2,,,,1,,,56,64
263040,note_on,,,,,120,0,4,,,,3,,,72,117
263040,note_on,,,,,0,0,2,,,,1,,,51,97
263040,note_off,,,,,240,0,2,,,,1,,,61,64
263040,note_on,,,,,0,0,4,,,,3,,,63,117
263160,note_off,,,,,120,0,4,,,,3,,,72,64
263160,note_off,,,,,0,0,4,,,,3,,,63,64
263280,note_on,,,,,120,0,4,,,,3,,,73,117
263280,note_on,,,,,0,0,2,,,,1,,,54,79
263280,note_off,,,,,240,0,2,,,,1,,,51,64
263280,note_on,,,,,0,0,2,,,,1,,,60,97
263280,note_on,,,,,0,0,2,,,,1,,,56,83
263280,note_on,,,,,0,0,4,,,,3,,,65,117
263400,note_off,,,,,120,0,4,,,,3,,,73,64
263400,note_off,,,,,0,0,4,,,,3,,,65,64
263520,note_on,,,,,0,0,2,,,,1,,,44,93
263520,note_off,,,,,0,0,2,,,,1,,,54,64
263520,note_off,,,,,0,0,2,,,,1,,,56,64
263520,note_off,,,,,240,0,2,,,,1,,,60,64
263520,note_on,,,,,120,0,4,,,,3,,,75,113
263520,note_on,,,,,0,0,4,,,,3,,,66,117
263640,note_off,,,,,120,0,4,,,,3,,,75,64
263640,note_off,,,,,0,0,4,,,,3,,,66,64
263760,note_on,,,,,0,0,4,,,,3,,,68,107
263760,note_on,,,,,0,0,2,,,,1,,,54,91
263760,note_on,,,,,120,0,4,,,,3,,,77,127
263760,note_on,,,,,0,0,2,,,,1,,,56,91
263760,note_off,,,,,240,0,2,,,,1,,,44,64
263760,note_on,,,,,0,0,2,,,,1,,,60,91
263880,note_off,,,,,0,0,4,,,,3,,,68,64
263880,note_off,,,,,120,0,4,,,,3,,,77,64
264000,note_on,,,,,0,0,4,,,,3,,,70,103
264000,note_on,,,,,120,0,4,,,,3,,,78,107
264000,note_on,,,,,0,0,2,,,,1,,,51,97
264000,note_off,,,,,0,0,2,,,,1,,,56,64
264000,note_off,,,,,240,0,2,,,,1,,,60,64
264000,note_off,,,,,0,0,2,,,,1,,,54,64
264120,note_off,,,,,120,0,4,,,,3,,,78,64
264120,note_off,,,,,0,0,4,,,,3,,,70,64
264240,note_off,,,,,240,0,2,,,,1,,,51,64
264240,note_on,,,,,0,0,2,,,,1,,,56,83
264240,note_on,,,,,0,0,2,,,,1,,,60,103
264240,note_on,,,,,0,0,2,,,,1,,,66,93
264240,note_on,,,,,0,0,4,,,,3,,,72,113
264240,note_on,,,,,120,0,4,,,,3,,,80,103
264360,note_off,,,,,120,0,4,,,,3,,,80,64
264360,note_off,,,,,0,0,4,,,,3,,,72,64
264480,note_off,,,,,0,0,2,,,,1,,,60,64
264480,note_off,,,,,0,0,2,,,,1,,,56,64
264480,note_off,,,,,240,0,2,,,,1,,,66,64
264480,note_on,,,,,0,0,4,,,,3,,,73,117
264480,note_on,,,,,120,0,4,,,,3,,,82,107
264480,note_on,,,,,0,0,2,,,,1,,,44,97
264600,note_off,,,,,120,0,4,,,,3,,,82,64
264600,note_off,,,,,0,0,4,,,,3,,,73,64
264720,note_on,,,,,0,0,2,,,,1,,,56,79
264720,note_on,,,,,0,0,4,,,,3,,,75,127
264720,note_off,,,,,240,0,2,,,,1,,,44,64
264720,note_on,,,,,0,0,2,,,,1,,,60,107
264720,note_on,,,,,120,0,4,,,,3,,,84,127
264840,note_off,,,,,120,0,4,,,,3,,,84,64
264840,note_off,,,,,0,0,4,,,,3,,,75,64
264910,set_tempo,,,,,18920,1,0,382165,,,,,,,
264950,note_off,,,,,0,0,2,,,,1,,,56,64
264950,note_off,,,,,230,0,2,,,,1,,,60,64
264960,note_on,,,,,10,0,2,,,,1,,,61,87
264960,note_on,,,,,120,0,4,,,,3,,,85,93
264960,note_on,,,,,0,0,2,,,,1,,,56,93
264960,note_on,,,,,0,0,2,,,,1,,,49,103
264960,note_on,,,,,0,0,4,,,,3,,,77,103
264960,note_on,,,,,0,0,4,,,,3,,,73,97
265200,note_off,,,,,240,0,4,,,,3,,,85,64
265200,note_off,,,,,240,0,2,,,,1,,,61,64
265200,note_off,,,,,0,0,2,,,,1,,,56,64
265200,note_on,,,,,0,0,4,,,,3,,,84,118
265200,note_on,,,,,0,0,4,,,,3,,,72,115
265200,note_off,,,,,0,0,4,,,,3,,,73,64
265200,note_off,,,,,0,0,4,,,,3,,,77,64
265200,note_off,,,,,0,0,2,,,,1,,,49,64
265200,note_on,,,,,0,0,2,,,,1,,,50,103
265200,note_on,,,,,0,0,2,,,,1,,,62,93
265400,set_tempo,,,,,490,1,0,384615,,,,,,,
265440,note_on,,,,,0,0,2,,,,1,,,60,107
265440,note_off,,,,,240,0,4,,,,3,,,84,64
265440,note_off,,,,,0,0,2,,,,1,,,50,64
265440,note_on,,,,,0,0,4,,,,3,,,74,115
265440,note_on,,,,,0,0,4,,,,3,,,86,115
265440,note_on,,,,,0,0,2,,,,1,,,48,97
265440,note_off,,,,,0,0,4,,,,3,,,72,64
265440,note_off,,,,,240,0,2,,,,1,,,62,64
265680,note_on,,,,,0,0,2,,,,1,,,61,107
265680,note_on,,,,,0,0,2,,,,1,,,49,107
265680,note_off,,,,,0,0,4,,,,3,,,74,64
265680,note_on,,,,,0,0,4,,,,3,,,85,103
265680,note_off,,,,,240,0,4,,,,3,,,86,64
265680,note_off,,,,,240,0,2,,,,1,,,60,64
265680,note_on,,,,,0,0,4,,,,3,,,73,118
265680,note_off,,,,,0,0,2,,,,1,,,48,64
265920,note_off,,,,,0,0,2,,,,1,,,49,64
265920,note_off,,,,,0,0,4,,,,3,,,73,64
265920,note_on,,,,,0,0,2,,,,1,,,47,107
265920,note_on,,,,,0,0,2,,,,1,,,59,103
265920,note_off,,,,,240,0,2,,,,1,,,61,64
265920,note_off,,,,,240,0,4,,,,3,,,85,64
265920,note_on,,,,,0,0,4,,,,3,,,75,115
265920,note_on,,,,,0,0,4,,,,3,,,87,103
266160,note_off,,,,,0,0,2,,,,1,,,47,64
266160,note_off,,,,,240,0,2,,,,1,,,59,64
266160,note_on,,,,,0,0,2,,,,1,,,60,107
266160,note_on,,,,,0,0,2,,,,1,,,48,118
266160,note_off,,,,,0,0,4,,,,3,,,75,64
266160,note_on,,,,,0,0,4,,,,3,,,74,118
266160,note_on,,,,,0,0,4,,,,3,,,86,118
266160,note_off,,,,,240,0,4,,,,3,,,87,64
266400,note_on,,,,,0,0,2,,,,1,,,58,115
266400,note_on,,,,,0,0,2,,,,1,,,46,107
266400,note_off,,,,,0,0,4,,,,3,,,74,64
266400,note_on,,,,,0,0,4,,,,3,,,88,121
266400,note_off,,,,,240,0,4,,,,3,,,86,64
266400,note_off,,,,,240,0,2,,,,1,,,60,64
266400,note_off,,,,,0,0,2,,,,1,,,48,64
266400,note_on,,,,,0,0,4,,,,3,,,76,118
266640,note_on,,,,,0,0,4,,,,3,,,87,115
266640,note_on,,,,,0,0,4,,,,3,,,75,118
266640,note_off,,,,,240,0,2,,,,1,,,58,64
266640,note_off,,,,,0,0,4,,,,3,,,76,64
266640,note_on,,,,,0,0,2,,,,1,,,59,115
266640,note_off,,,,,0,0,2,,,,1,,,46,64
266640,note_off,,,,,240,0,4,,,,3,,,88,64
266640,note_on,,,,,0,0,2,,,,1,,,47,103
266840,set_tempo,,,,,1440,1,0,389610,,,,,,,
266880,note_off,,,,,0,0,4,,,,3,,,75,64
266880,note_off,,,,,0,0,2,,,,1,,,47,64
266880,note_on,,,,,0,0,2,,,,1,,,57,103
266880,note_off,,,,,240,0,2,,,,1,,,59,64
266880,note_on,,,,,0,0,2,,,,1,,,45,77
266880,note_on,,,,,0,0,4,,,,3,,,77,118
266880,note_on,,,,,0,0,4,,,,3,,,89,118
266880,note_off,,,,,240,0,4,,,,3,,,87,64
267120,note_on,,,,,0,0,2,,,,1,,,58,118
267120,note_on,,,,,0,0,4,,,,3,,,76,118
267120,note_off,,,,,240,0,4,,,,3,,,89,64
267120,note_off,,,,,0,0,4,,,,3,,,77,64
267120,note_off,,,,,240,0,2,,,,1,,,57,64
267120,note_off,,,,,0,0,2,,,,1,,,45,64
267120,note_on,,,,,0,0,4,,,,3,,,88,115
267120,note_on,,,,,0,0,2,,,,1,,,46,107
267360,note_off,,,,,240,0,4,,,,3,,,88,64
267360,note_off,,,,,240,0,2,,,,1,,,58,64
267360,note_off,,,,,0,0,2,,,,1,,,46,64
267360,note_off,,,,,0,0,4,,,,3,,,76,64
267360,note_on,,,,,0,0,4,,,,3,,,78,121
267360,note_on,,,,,0,0,4,,,,3,,,90,118
267360,note_on,,,,,0,0,2,,,,1,,,44,107
267360,note_on,,,,,0,0,2,,,,1,,,56,115
267600,note_on,,,,,0,0,4,,,,3,,,77,121
267600,note_on,,,,,0,0,4,,,,3,,,89,118
267600,note_off,,,,,240,0,2,,,,1,,,56,64
267600,note_off,,,,,0,0,2,,,,1,,,44,64
267600,note_off,,,,,0,0,4,,,,3,,,78,64
267600,note_off,,,,,240,0,4,,,,3,,,90,64
267600,note_on,,,,,0,0,2,,,,1,,,57,118
267600,note_on,,,,,0,0,2,,,,1,,,45,97
267840,note_off,,,,,0,0,4,,,,3,,,77,64
267840,note_off,,,,,240,0,4,,,,3,,,89,64
267840,note_off,,,,,0,0,2,,,,1,,,45,64
267840,note_on,,,,,0,0,2,,,,1,,,55,97
267840,note_on,,,,,0,0,4,,,,3,,,91,121
267840,note_on,,,,,0,0,4,,,,3,,,79,118
267840,note_off,,,,,240,0,2,,,,1,,,57,64
267840,note_on,,,,,0,0,2,,,,1,,,43,103
268080,note_on,,,,,0,0,4,,,,3,,,90,118
268080,note_off,,,,,240,0,4,,,,3,,,91,64
268080,note_on,,,,,0,0,4,,,,3,,,78,121
268080,note_off,,,,,0,0,4,,,,3,,,79,64
268080,note_off,,,,,0,0,2,,,,1,,,55,64
268080,note_off,,,,,240,0,2,,,,1,,,43,64
268080,note_on,,,,,0,0,2,,,,1,,,44,107
268080,note_on,,,,,0,0,2,,,,1,,,56,118
268320,note_off,,,,,0,0,4,,,,3,,,78,64
268320,note_off,,,,,0,0,2,,,,1,,,56,64
268320,note_on,,,,,0,0,4,,,,3,,,92,118
268320,note_off,,,,,240,0,2,,,,1,,,44,64
268320,note_on,,,,,0,0,2,,,,1,,,42,118
268320,note_on,,,,,0,0,4,,,,3,,,80,121
268320,note_off,,,,,240,0,4,,,,3,,,90,64
268320,note_on,,,,,0,0,2,,,,1,,,54,118
268560,note_off,,,,,0,0,4,,,,3,,,80,64
268560,note_off,,,,,0,0,2,,,,1,,,54,64
268560,note_off,,,,,240,0,2,,,,1,,,42,64
268560,note_on,,,,,0,0,4,,,,3,,,91,122
268560,note_on,,,,,0,0,2,,,,1,,,43,107
268560,note_off,,,,,240,0,4,,,,3,,,92,64
268560,note_on,,,,,0,0,2,,,,1,,,55,103
268560,note_on,,,,,0,0,4,,,,3,,,79,118
268800,note_on,,,,,0,0,4,,,,3,,,81,118
268800,note_on,,,,,0,0,2,,,,1,,,53,118
268800,note_off,,,,,240,0,2,,,,1,,,43,64
268800,note_off,,,,,0,0,2,,,,1,,,55,64
268800,note_on,,,,,0,0,2,,,,1,,,41,115
268800,note_off,,,,,0,0,4,,,,3,,,79,64
268800,note_off,,,,,240,0,4,,,,3,,,91,64
268800,note_on,,,,,0,0,4,,,,3,,,93,122
268840,set_tempo,,,,,2000,1,0,394736,,,,,,,
269040,note_on,,,,,0,0,4,,,,3,,,92,115
269040,note_on,,,,,0,0,4,,,,3,,,80,118
269040,note_on,,,,,0,0,2,,,,1,,,54,118
269040,note_off,,,,,240,0,2,,,,1,,,41,64
269040,note_off,,,,,0,0,2,,,,1,,,53,64
269040,note_off,,,,,0,0,4,,,,3,,,81,64
269040,note_off,,,,,240,0,4,,,,3,,,93,64
269040,note_on,,,,,0,0,2,,,,1,,,42,118
269280,note_off,,,,,240,0,4,,,,3,,,92,64
269280,note_on,,,,,0,0,4,,,,3,,,94,121
269280,note_off,,,,,0,0,2,,,,1,,,54,64
269280,note_off,,,,,0,0,4,,,,3,,,80,64
269280,note_on,,,,,0,0,4,,,,3,,,82,115
269280,note_on,,,,,0,0,2,,,,1,,,52,107
269280,note_on,,,,,0,0,2,,,,1,,,40,107
269280,note_off,,,,,240,0,2,,,,1,,,42,64
269520,note_on,,,,,0,0,2,,,,1,,,53,118
269520,note_on,,,,,0,0,4,,,,3,,,81,118
269520,note_on,,,,,0,0,4,,,,3,,,93,122
269520,note_on,,,,,0,0,2,,,,1,,,41,107
269520,note_off,,,,,240,0,4,,,,3,,,94,64
269520,note_off,,,,,240,0,2,,,,1,,,40,64
269520,note_off,,,,,0,0,2,,,,1,,,52,64
269520,note_off,,,,,0,0,4,,,,3,,,82,64
269760,note_on,,,,,0,0,4,,,,3,,,95,118
269760,note_on,,,,,0,0,4,,,,3,,,83,118
269760,note_off,,,,,0,0,2,,,,1,,,53,64
269760,note_off,,,,,240,0,4,,,,3,,,93,64
269760,note_on,,,,,0,0,2,,,,1,,,51,115
269760,note_on,,,,,0,0,2,,,,1,,,39,115
269760,note_off,,,,,240,0,2,,,,1,,,41,64
269760,note_off,,,,,0,0,4,,,,3,,,81,64
269780,set_tempo,,,,,940,1,0,397350,,,,,,,
270000,note_on,,,,,0,0,4,,,,3,,,94,118
270000,note_on,,,,,0,0,2,,,,1,,,40,115
270000,note_on,,,,,0,0,2,,,,1,,,52,115
270000,note_off,,,,,240,0,2,,,,1,,,39,64
270000,note_on,,,,,0,0,4,,,,3,,,82,118
270000,note_off,,,,,0,0,2,,,,1,,,51,64
270000,note_off,,,,,240,0,4,,,,3,,,95,64
270000,note_off,,,,,0,0,4,,,,3,,,83,64
270240,note_on,,,,,0,0,4,,,,3,,,83,115
270240,note_off,,,,,0,0,4,,,,3,,,82,64
270240,note_off,,,,,240,0,4,,,,3,,,94,64
270240,note_on,,,,,0,0,4,,,,3,,,95,121
270240,note_off,,,,,240,0,2,,,,1,,,40,64
270240,note_on,,,,,0,0,2,,,,1,,,38,107
270240,note_off,,,,,0,0,2,,,,1,,,52,64
270240,note_on,,,,,0,0,2,,,,1,,,50,107
270260,set_tempo,,,,,480,1,0,400000,,,,,,,
270480,note_off,,,,,0,0,4,,,,3,,,83,64
270480,note_off,,,,,0,0,2,,,,1,,,50,64
270480,note_on,,,,,0,0,4,,,,3,,,96,121
270480,note_on,,,,,0,0,4,,,,3,,,84,121
270480,note_on,,,,,0,0,2,,,,1,,,39,107
270480,note_on,,,,,0,0,2,,,,1,,,51,115
270480,note_off,,,,,240,0,4,,,,3,,,95,64
270480,note_off,,,,,240,0,2,,,,1,,,38,64
270720,note_on,,,,,0,0,2,,,,1,,,49,121
270720,note_on,,,,,0,0,2,,,,1,,,37,121
270720,note_off,,,,,0,0,2,,,,1,,,51,64
270720,note_off,,,,,240,0,2,,,,1,,,39,64
270720,note_on,,,,,0,0,4,,,,3,,,85,122
270720,note_on,,,,,0,0,4,,,,3,,,97,121
270720,note_off,,,,,0,0,4,,,,3,,,84,64
270720,note_off,,,,,240,0,4,,,,3,,,96,64
270960,note_on,,,,,0,0,2,,,,1,,,38,115
270960,note_off,,,,,0,0,2,,,,1,,,49,64
270960,note_on,,,,,0,0,4,,,,3,,,84,121
270960,note_off,,,,,240,0,2,,,,1,,,37,64
270960,note_on,,,,,0,0,2,,,,1,,,50,107
270960,note_on,,,,,0,0,4,,,,3,,,96,118
270960,note_off,,,,,0,0,4,,,,3,,,85,64
270960,note_off,,,,,240,0,4,,,,3,,,97,64
271020,set_tempo,,,,,760,1,0,405405,,,,,,,
271200,note_on,,,,,0,0,2,,,,1,,,49,115
271200,note_off,,,,,0,0,4,,,,3,,,84,64
271200,note_off,,,,,240,0,2,,,,1,,,38,64
271200,note_on,,,,,0,0,4,,,,3,,,85,118
271200,note_on,,,,,0,0,2,,,,1,,,44,107
271200,note_on,,,,,0,0,4,,,,3,,,89,121
271200,note_off,,,,,240,0,4,,,,3,,,96,64
271200,note_off,,,,,0,0,2,,,,1,,,50,64
271200,note_on,,,,,0,0,4,,,,3,,,97,121
271200,note_on,,,,,0,0,2,,,,1,,,37,97
271440,note_off,,,,,0,0,2,,,,1,,,44,64
271440,note_on,,,,,0,0,4,,,,3,,,84,115
271440,note_on,,,,,0,0,2,,,,1,,,38,115
271440,note_on,,,,,0,0,2,,,,1,,,50,115
271440,note_off,,,,,240,0,2,,,,1,,,37,64
271440,note_off,,,,,0,0,2,,,,1,,,49,64
271440,note_off,,,,,0,0,4,,,,3,,,85,64
271440,note_off,,,,,0,0,4,,,,3,,,89,64
271440,note_off,,,,,240,0,4,,,,3,,,97,64
271440,note_on,,,,,0,0,4,,,,3,,,90,118
271440,note_on,,,,,0,0,4,,,,3,,,96,118
271490,set_tempo,,,,,470,1,0,408163,,,,,,,
271680,note_on,,,,,0,0,2,,,,1,,,44,103
271680,note_on,,,,,0,0,2,,,,1,,,37,97
271680,note_on,,,,,0,0,2,,,,1,,,49,115
271680,note_off,,,,,0,0,2,,,,1,,,50,64
271680,note_on,,,,,0,0,4,,,,3,,,89,121
271680,note_off,,,,,240,0,4,,,,3,,,96,64
271680,note_off,,,,,0,0,4,,,,3,,,90,64
271680,note_on,,,,,0,0,4,,,,3,,,85,115
271680,note_off,,,,,240,0,2,,,,1,,,38,64
271680,note_off,,,,,0,0,4,,,,3,,,84,64
271680,note_on,,,,,0,0,4,,,,3,,,97,118
271750,set_tempo,,,,,260,1,0,413793,,,,,,,
271920,note_on,,,,,0,0,4,,,,3,,,90,122
271920,note_on,,,,,0,0,4,,,,3,,,96,122
271920,note_off,,,,,240,0,2,,,,1,,,37,64
271920,note_off,,,,,240,0,4,,,,3,,,97,64
271920,note_on,,,,,0,0,4,,,,3,,,84,118
271920,note_off,,,,,0,0,4,,,,3,,,89,64
271920,note_off,,,,,0,0,2,,,,1,,,44,64
271920,note_off,,,,,0,0,2,,,,1,,,49,64
271920,note_on,,,,,0,0,2,,,,1,,,50,91
271920,note_on,,,,,0,0,2,,,,1,,,38,115
271920,note_off,,,,,0,0,4,,,,3,,,85,64
272160,note_off,,,,,240,0,4,,,,3,,,96,64
272160,note_off,,,,,0,0,4,,,,3,,,90,64
272160,note_off,,,,,0,0,4,,,,3,,,84,64
272160,note_on,,,,,0,0,2,,,,1,,,37,107
272160,note_on,,,,,0,0,2,,,,1,,,44,107
272160,note_on,,,,,0,0,2,,,,1,,,49,115
272160,note_on,,,,,0,0,4,,,,3,,,89,121
272160,note_off,,,,,0,0,2,,,,1,,,50,64
272160,note_on,,,,,0,0,4,,,,3,,,97,121
272160,note_off,,,,,240,0,2,,,,1,,,38,64
272160,note_on,,,,,0,0,4,,,,3,,,85,118
272270,set_tempo,,,,,520,1,0,419580,,,,,,,
272400,note_off,,,,,0,0,2,,,,1,,,44,64
272400,note_on,,,,,0,0,4,,,,3,,,84,115
272400,note_on,,,,,0,0,4,,,,3,,,90,122
272400,note_on,,,,,0,0,4,,,,3,,,96,118
272400,note_off,,,,,0,0,2,,,,1,,,49,64
272400,note_on,,,,,0,0,2,,,,1,,,50,107
272400,note_off,,,,,0,0,4,,,,3,,,89,64
272400,note_off,,,,,0,0,4,,,,3,,,85,64
272400,note_off,,,,,240,0,2,,,,1,,,37,64
272400,note_on,,,,,0,0,2,,,,1,,,38,115
272400,note_off,,,,,240,0,4,,,,3,,,97,64
272640,note_off,,,,,0,0,4,,,,3,,,84,64
272640,note_off,,,,,240,0,2,,,,1,,,38,64
272640,note_off,,,,,0,0,4,,,,3,,,90,64
272640,note_off,,,,,0,0,2,,,,1,,,50,64
272640,note_on,,,,,0,0,4,,,,3,,,85,118
272640,note_on,,,,,0,0,4,,,,3,,,89,121
272640,note_on,,,,,0,0,4,,,,3,,,97,118
272640,note_on,,,,,0,0,2,,,,1,,,44,107
272640,note_on,,,,,0,0,2,,,,1,,,37,103
272640,note_off,,,,,240,0,4,,,,3,,,96,64
272640,note_on,,,,,0,0,2,,,,1,,,49,122
272750,set_tempo,,,,,480,1,0,422535,,,,,,,
272880,note_on,,,,,0,0,2,,,,1,,,60,118
272880,note_on,,,,,0,0,2,,,,1,,,48,107
272880,note_off,,,,,0,0,4,,,,3,,,85,64
272880,note_off,,,,,240,0,4,,,,3,,,97,64
272880,note_off,,,,,0,0,2,,,,1,,,44,64
272880,note_off,,,,,0,0,2,,,,1,,,49,64
272880,note_off,,,,,0,0,4,,,,3,,,89,64
272880,note_on,,,,,0,0,4,,,,3,,,72,115
272880,note_off,,,,,240,0,2,,,,1,,,37,64
272880,note_on,,,,,0,0,4,,,,3,,,84,118
272990,set_tempo,,,,,240,1,0,428571,,,,,,,
273120,note_on,,,,,0,0,4,,,,3,,,73,118
273120,note_on,,,,,0,0,2,,,,1,,,49,118
273120,note_off,,,,,240,0,2,,,,1,,,48,64
273120,note_on,,,,,0,0,2,,,,1,,,61,115
273120,note_off,,,,,0,0,4,,,,3,,,72,64
273120,note_off,,,,,240,0,4,,,,3,,,84,64
273120,note_off,,,,,0,0,2,,,,1,,,60,64
273120,note_on,,,,,0,0,4,,,,3,,,85,118
273360,note_on,,,,,0,0,4,,,,3,,,72,118
273360,note_on,,,,,0,0,4,,,,3,,,84,118
273360,note_off,,,,,240,0,4,,,,3,,,85,64
273360,note_off,,,,,240,0,2,,,,1,,,49,64
273360,note_on,,,,,0,0,2,,,,1,,,48,118
273360,note_off,,,,,0,0,4,,,,3,,,73,64
273360,note_on,,,,,0,0,2,,,,1,,,60,115
273360,note_off,,,,,0,0,2,,,,1,,,61,64
273480,set_tempo,,,,,490,1,0,434782,,,,,,,
273600,note_off,,,,,240,0,4,,,,3,,,84,64
273600,note_off,,,,,0,0,4,,,,3,,,72,64
273600,note_on,,,,,0,0,2,,,,1,,,49,127
273600,note_off,,,,,240,0,2,,,,1,,,48,64
273600,note_off,,,,,0,0,2,,,,1,,,60,64
273600,note_on,,,,,0,0,4,,,,3,,,73,127
273600,note_on,,,,,0,0,4,,,,3,,,85,127
273600,note_on,,,,,0,0,2,,,,1,,,61,127
273710,set_tempo,,,,,230,1,0,428571,,,,,,,
273840,note_off,,,,,0,0,4,,,,3,,,85,64
273840,note_on,,,,,0,0,2,,,,1,,,48,127
273840,note_on,,,,,0,0,4,,,,3,,,60,127
273840,note_off,,,,,240,0,2,,,,1,,,49,64
273840,note_off,,,,,0,0,2,,,,1,,,61,64
273840,note_on,,,,,0,0,4,,,,3,,,72,127
273840,note_on,,,,,0,0,2,,,,1,,,36,125
273840,note_off,,,,,240,0,4,,,,3,,,73,64
274040,set_tempo,,,,,330,1,0,422535,,,,,,,
274080,note_on,,,,,0,0,4,,,,3,,,73,127
274080,note_off,,,,,240,0,2,,,,1,,,36,64
274080,note_on,,,,,0,0,4,,,,3,,,61,127
274080,note_on,,,,,0,0,2,,,,1,,,49,127
274080,note_off,,,,,240,0,4,,,,3,,,60,64
274080,note_off,,,,,0,0,2,,,,1,,,48,64
274080,note_off,,,,,0,0,4,,,,3,,,72,64
274080,note_on,,,,,0,0,2,,,,1,,,37,127
274200,set_tempo,,,,,160,1,0,419580,,,,,,,
274320,note_on,,,,,0,0,4,,,,3,,,60,127
274320,note_off,,,,,0,0,2,,,,1,,,49,64
274320,note_off,,,,,0,0,4,,,,3,,,73,64
274320,note_on,,,,,0,0,2,,,,1,,,48,127
274320,note_off,,,,,240,0,4,,,,3,,,61,64
274320,note_on,,,,,0,0,2,,,,1,,,36,127
274320,note_off,,,,,240,0,2,,,,1,,,37,64
274320,note_on,,,,,0,0,4,,,,3,,,72,127
274550,note_off,,,,,0,0,2,,,,1,,,48,64
274550,note_off,,,,,0,0,4,,,,3,,,72,64
274550,note_off,,,,,230,0,2,,,,1,,,36,64
274550,note_off,,,,,230,0,4,,,,3,,,60,64
274560,note_on,,,,,0,0,2,,,,1,,,49,127
274560,set_tempo,,,,,360,1,0,413793,,,,,,,
274560,note_on,,,,,0,0,2,,,,1,,,37,127
274560,note_on,,,,,0,0,1,,,,0,,,61,127
274560,note_on,,,,,42240,0,1,,,,0,,,73,127
274560,note_on,,,,,10,0,2,,,,1,,,25,127
274800,note_on,,,,,42480,0,3,,,,2,,,53,117
274800,note_on,,,,,0,0,3,,,,2,,,56,113
274800,note_on,,,,,0,0,3,,,,2,,,65,127
274800,note_on,,,,,0,0,3,,,,2,,,68,127
274920,note_off,,,,,0,0,3,,,,2,,,56,64
274920,note_off,,,,,0,0,3,,,,2,,,65,64
274920,note_off,,,,,0,0,3,,,,2,,,68,64
274920,note_off,,,,,120,0,3,,,,2,,,53,64
275040,note_off,,,,,480,0,2,,,,1,,,25,64
275040,note_on,,,,,0,0,2,,,,1,,,29,127
275040,note_on,,,,,0,0,2,,,,1,,,41,127
275040,note_off,,,,,0,0,1,,,,0,,,61,64
275040,note_off,,,,,0,0,2,,,,1,,,49,64
275040,note_off,,,,,0,0,2,,,,1,,,37,64
275040,note_on,,,,,0,0,1,,,,0,,,65,127
275040,note_off,,,,,480,0,1,,,,0,,,73,64
275040,note_on,,,,,0,0,2,,,,1,,,53,127
275040,note_on,,,,,0,0,1,,,,0,,,77,127
275080,set_tempo,,,,,520,1,0,408163,,,,,,,
275280,note_on,,,,,0,0,3,,,,2,,,68,127
275280,note_on,,,,,0,0,3,,,,2,,,73,127
275280,note_on,,,,,0,0,3,,,,2,,,61,127
275280,note_on,,,,,360,0,3,,,,2,,,56,127
275300,set_tempo,,,,,220,1,0,405405,,,,,,,
275400,note_off,,,,,0,0,3,,,,2,,,61,64
275400,note_off,,,,,0,0,3,,,,2,,,73,64
275400,note_off,,,,,120,0,3,,,,2,,,56,64
275400,note_off,,,,,0,0,3,,,,2,,,68,64
275520,note_off,,,,,480,0,2,,,,1,,,29,64
275520,note_off,,,,,0,0,2,,,,1,,,41,64
275520,note_off,,,,,0,0,2,,,,1,,,53,64
275520,note_off,,,,,480,0,1,,,,0,,,77,64
275520,note_on,,,,,0,0,2,,,,1,,,34,127
275520,note_on,,,,,0,0,1,,,,0,,,70,127
275520,note_on,,,,,0,0,2,,,,1,,,46,127
275520,note_off,,,,,0,0,1,,,,0,,,65,64
275520,note_on,,,,,0,0,2,,,,1,,,58,127
275520,note_on,,,,,0,0,1,,,,0,,,82,127
275760,note_on,,,,,0,0,3,,,,2,,,61,127
275760,note_on,,,,,0,0,3,,,,2,,,65,127
275760,note_on,,,,,0,0,3,,,,2,,,73,127
275760,set_tempo,,,,,460,1,0,400000,,,,,,,
275760,note_on,,,,,360,0,3,,,,2,,,77,127
275880,note_off,,,,,0,0,3,,,,2,,,61,64
275880,note_off,,,,,0,0,3,,,,2,,,65,64
275880,note_off,,,,,0,0,3,,,,2,,,73,64
275880,note_off,,,,,120,0,3,,,,2,,,77,64
276000,note_on,,,,,0,0,3,,,,2,,,61,127
276000,note_on,,,,,120,0,3,,,,2,,,77,127
276000,note_on,,,,,0,0,3,,,,2,,,73,127
276000,note_on,,,,,0,0,3,,,,2,,,65,127
276120,note_off,,,,,120,0,3,,,,2,,,77,64
276120,note_off,,,,,0,0,3,,,,2,,,73,64
276120,note_off,,,,,0,0,3,,,,2,,,65,64
276120,note_off,,,,,0,0,3,,,,2,,,61,64
276240,note_off,,,,,0,0,1,,,,0,,,70,64
276240,note_on,,,,,0,0,2,,,,1,,,44,127
276240,note_off,,,,,720,0,2,,,,1,,,34,64
276240,note_off,,,,,720,0,1,,,,0,,,82,64
276240,note_off,,,,,0,0,2,,,,1,,,58,64
276240,note_on,,,,,0,0,1,,,,0,,,68,127
276240,note_on,,,,,0,0,1,,,,0,,,80,125
276240,note_on,,,,,0,0,2,,,,1,,,32,113
276240,note_off,,,,,0,0,2,,,,1,,,46,64
276240,note_on,,,,,0,0,2,,,,1,,,56,127
276270,set_tempo,,,,,510,1,0,397350,,,,,,,
276480,note_off,,,,,240,0,1,,,,0,,,80,64
276480,note_on,,,,,0,0,2,,,,1,,,54,127
276480,note_off,,,,,0,0,1,,,,0,,,68,64
276480,note_off,,,,,0,0,2,,,,1,,,44,64
276480,note_off,,,,,240,0,2,,,,1,,,32,64
276480,note_on,,,,,0,0,2,,,,1,,,42,127
276480,note_on,,,,,0,0,2,,,,1,,,46,127
276480,note_on,,,,,0,0,2,,,,1,,,49,117
276480,note_on,,,,,0,0,1,,,,0,,,66,127
276480,note_on,,,,,0,0,1,,,,0,,,70,127
276480,note_off,,,,,0,0,2,,,,1,,,56,64
276480,note_on,,,,,0,0,1,,,,0,,,73,127
276480,note_on,,,,,0,0,1,,,,0,,,78,127
276510,set_tempo,,,,,240,1,0,394736,,,,,,,
276600,note_off,,,,,120,0,1,,,,0,,,78,64
276600,note_off,,,,,120,0,2,,,,1,,,42,64
276600,note_off,,,,,0,0,1,,,,0,,,73,64
276600,note_off,,,,,0,0,1,,,,0,,,66,64
276600,note_off,,,,,0,0,2,,,,1,,,49,64
276600,note_off,,,,,0,0,2,,,,1,,,46,64
276600,note_off,,,,,0,0,1,,,,0,,,70,64
276600,note_off,,,,,0,0,2,,,,1,,,54,64
276720,note_on,,,,,0,0,2,,,,1,,,41,127
276720,note_on,,,,,0,0,1,,,,0,,,65,127
276720,set_tempo,,,,,210,1,0,389610,,,,,,,
276720,note_on,,,,,120,0,2,,,,1,,,53,127
276720,note_on,,,,,120,0,1,,,,0,,,77,127
276840,note_off,,,,,120,0,2,,,,1,,,53,64
276840,note_off,,,,,0,0,2,,,,1,,,41,64
276840,note_off,,,,,0,0,1,,,,0,,,65,64
276840,note_off,,,,,120,0,1,,,,0,,,77,64
276960,note_on,,,,,120,0,1,,,,0,,,76,127
276960,note_on,,,,,120,0,2,,,,1,,,52,127
276960,note_on,,,,,0,0,1,,,,0,,,64,127
276960,note_on,,,,,0,0,2,,,,1,,,40,127
277080,note_off,,,,,120,0,1,,,,0,,,76,64
277080,note_off,,,,,120,0,2,,,,1,,,52,64
277080,note_off,,,,,0,0,1,,,,0,,,64,64
277080,note_off,,,,,0,0,2,,,,1,,,40,64
277190,set_tempo,,,,,470,1,0,384615,,,,,,,
277200,note_on,,,,,0,0,2,,,,1,,,42,127
277200,note_on,,,,,0,0,2,,,,1,,,51,127
277200,note_on,,,,,120,0,1,,,,0,,,63,127
277200,note_on,,,,,0,0,1,,,,0,,,75,127
277200,note_on,,,,,0,0,1,,,,0,,,66,127
277200,note_on,,,,,120,0,2,,,,1,,,39,127
277200,note_on,,,,,0,0,1,,,,0,,,70,11
277200,note_on,,,,,0,0,2,,,,1,,,46,125
277320,note_off,,,,,0,0,2,,,,1,,,51,64
277320,note_off,,,,,120,0,1,,,,0,,,63,64
277320,note_off,,,,,120,0,2,,,,1,,,39,64
277320,note_off,,,,,0,0,2,,,,1,,,46,64
277320,note_off,,,,,0,0,1,,,,0,,,66,64
277320,note_off,,,,,0,0,1,,,,0,,,70,64
277320,note_off,,,,,0,0,1,,,,0,,,75,64
277320,note_off,,,,,0,0,2,,,,1,,,42,64
277440,note_on,,,,,0,0,1,,,,0,,,62,127
277440,note_on,,,,,0,0,2,,,,1,,,50,127
277440,note_on,,,,,120,0,1,,,,0,,,74,127
277440,note_on,,,,,120,0,2,,,,1,,,38,117
277560,note_off,,,,,120,0,1,,,,0,,,74,64
277560,note_off,,,,,0,0,2,,,,1,,,50,64
277560,note_off,,,,,0,0,1,,,,0,,,62,64
277560,note_off,,,,,120,0,2,,,,1,,,38,64
277680,note_on,,,,,0,0,1,,,,0,,,66,127
277680,note_on,,,,,0,0,1,,,,0,,,73,127
277680,note_on,,,,,0,0,1,,,,0,,,70,125
277680,note_on,,,,,0,0,2,,,,1,,,49,127
277680,note_on,,,,,120,0,2,,,,1,,,37,127
277680,note_on,,,,,0,0,2,,,,1,,,46,11
277680,note_on,,,,,0,0,2,,,,1,,,42,127
277680,note_on,,,,,120,0,1,,,,0,,,61,127
277800,note_off,,,,,0,0,1,,,,0,,,66,64
277800,note_off,,,,,0,0,1,,,,0,,,70,64
277800,note_off,,,,,0,0,1,,,,0,,,73,64
277800,note_off,,,,,120,0,1,,,,0,,,61,64
277800,note_off,,,,,120,0,2,,,,1,,,37,64
277800,note_off,,,,,0,0,2,,,,1,,,46,64
277800,note_off,,,,,0,0,2,,,,1,,,42,64
277800,note_off,,,,,0,0,2,,,,1,,,49,64
277920,note_on,,,,,0,0,2,,,,1,,,48,127
277920,note_on,,,,,0,0,1,,,,0,,,60,127
277920,note_on,,,,,120,0,2,,,,1,,,36,127
277920,note_on,,,,,120,0,1,,,,0,,,72,125
278040,note_off,,,,,120,0,2,,,,1,,,36,64
278040,note_off,,,,,120,0,1,,,,0,,,72,64
278040,note_off,,,,,0,0,2,,,,1,,,48,64
278040,note_off,,,,,0,0,1,,,,0,,,60,64
278160,note_on,,,,,120,0,2,,,,1,,,37,127
278160,note_on,,,,,120,0,1,,,,0,,,73,127
278160,note_on,,,,,0,0,1,,,,0,,,61,127
278160,note_on,,,,,0,0,2,,,,1,,,49,127
278280,note_off,,,,,0,0,1,,,,0,,,61,64
278280,note_off,,,,,120,0,2,,,,1,,,37,64
278280,note_off,,,,,120,0,1,,,,0,,,73,64
278280,note_off,,,,,0,0,2,,,,1,,,49,64
278400,note_on,,,,,120,0,2,,,,1,,,25,125
278400,note_on,,,,,0,0,1,,,,0,,,61,127
278400,note_on,,,,,0,0,2,,,,1,,,37,127
278400,note_on,,,,,0,0,2,,,,1,,,49,127
278400,note_on,,,,,120,0,1,,,,0,,,73,127
278640,note_on,,,,,0,0,3,,,,2,,,68,127
278640,note_on,,,,,0,0,3,,,,2,,,65,127
278640,note_on,,,,,0,0,3,,,,2,,,56,127
278640,note_on,,,,,2520,0,3,,,,2,,,53,127
278760,note_off,,,,,0,0,3,,,,2,,,68,64
278760,note_off,,,,,0,0,3,,,,2,,,65,64
278760,note_off,,,,,120,0,3,,,,2,,,53,64
278760,note_off,,,,,0,0,3,,,,2,,,56,64
278880,note_off,,,,,480,0,2,,,,1,,,25,64
278880,note_on,,,,,0,0,2,,,,1,,,41,127
278880,note_off,,,,,0,0,1,,,,0,,,61,64
278880,note_off,,,,,0,0,2,,,,1,,,49,64
278880,note_on,,,,,0,0,2,,,,1,,,29,117
278880,note_on,,,,,0,0,1,,,,0,,,77,127
278880,note_on,,,,,0,0,1,,,,0,,,65,127
278880,note_on,,,,,0,0,2,,,,1,,,53,127
278880,note_off,,,,,480,0,1,,,,0,,,73,64
278880,note_off,,,,,0,0,2,,,,1,,,37,64
279120,note_on,,,,,0,0,3,,,,2,,,73,127
279120,note_on,,,,,0,0,3,,,,2,,,68,127
279120,note_on,,,,,360,0,3,,,,2,,,56,127
279120,note_on,,,,,0,0,3,,,,2,,,61,127
279240,note_off,,,,,120,0,3,,,,2,,,56,64
279240,note_off,,,,,0,0,3,,,,2,,,61,64
279240,note_off,,,,,0,0,3,,,,2,,,68,64
279240,note_off,,,,,0,0,3,,,,2,,,73,64
279360,note_off,,,,,0,0,2,,,,1,,,53,64
279360,note_on,,,,,0,0,1,,,,0,,,82,127
279360,note_on,,,,,0,0,1,,,,0,,,70,127
279360,note_on,,,,,0,0,2,,,,1,,,46,113
279360,note_on,,,,,0,0,2,,,,1,,,34,125
279360,note_off,,,,,0,0,2,,,,1,,,41,64
279360,note_off,,,,,0,0,1,,,,0,,,65,64
279360,note_off,,,,,480,0,2,,,,1,,,29,64
279360,note_on,,,,,0,0,2,,,,1,,,58,127
279360,note_off,,,,,480,0,1,,,,0,,,77,64
279600,note_on,,,,,0,0,3,,,,2,,,73,127
279600,note_on,,,,,0,0,3,,,,2,,,65,127
279600,note_on,,,,,360,0,3,,,,2,,,77,127
279600,note_on,,,,,0,0,3,,,,2,,,61,127
279720,note_off,,,,,0,0,3,,,,2,,,61,64
279720,note_off,,,,,0,0,3,,,,2,,,65,64
279720,note_off,,,,,0,0,3,,,,2,,,73,64
279720,note_off,,,,,120,0,3,,,,2,,,77,64
279840,note_on,,,,,0,0,3,,,,2,,,65,127
279840,note_on,,,,,0,0,3,,,,2,,,61,127
279840,note_on,,,,,0,0,3,,,,2,,,73,127
279840,note_on,,,,,120,0,3,,,,2,,,77,127
279960,note_off,,,,,0,0,3,,,,2,,,61,64
279960,note_off,,,,,0,0,3,,,,2,,,65,64
279960,note_off,,,,,0,0,3,,,,2,,,73,64
279960,note_off,,,,,120,0,3,,,,2,,,77,64
280080,note_on,,,,,0,0,1,,,,0,,,68,127
280080,note_on,,,,,0,0,1,,,,0,,,80,127
280080,note_on,,,,,0,0,2,,,,1,,,32,117
280080,note_on,,,,,0,0,2,,,,1,,,44,113
280080,note_off,,,,,720,0,1,,,,0,,,82,64
280080,note_off,,,,,0,0,2,,,,1,,,46,64
280080,note_off,,,,,0,0,2,,,,1,,,58,64
280080,note_off,,,,,720,0,2,,,,1,,,34,64
280080,note_on,,,,,0,0,2,,,,1,,,56,127
280080,note_off,,,,,0,0,1,,,,0,,,70,64
280320,note_on,,,,,0,0,1,,,,0,,,73,127
280320,note_on,,,,,0,0,1,,,,0,,,70,127
280320,note_on,,,,,0,0,1,,,,0,,,66,127
280320,note_on,,,,,0,0,2,,,,1,,,49,125
280320,note_off,,,,,240,0,1,,,,0,,,80,64
280320,note_off,,,,,0,0,2,,,,1,,,56,64
280320,note_on,,,,,0,0,2,,,,1,,,42,113
280320,note_off,,,,,0,0,2,,,,1,,,44,64
280320,note_off,,,,,240,0,2,,,,1,,,32,64
280320,note_on,,,,,0,0,1,,,,0,,,78,127
280320,note_on,,,,,0,0,2,,,,1,,,54,107
280320,note_on,,,,,0,0,2,,,,1,,,46,103
280320,note_off,,,,,0,0,1,,,,0,,,68,64
280440,note_off,,,,,0,0,2,,,,1,,,46,64
280440,note_off,,,,,120,0,2,,,,1,,,42,64
280440,note_off,,,,,0,0,2,,,,1,,,54,64
280440,note_off,,,,,0,0,2,,,,1,,,49,64
280440,note_off,,,,,120,0,1,,,,0,,,78,64
280440,note_off,,,,,0,0,1,,,,0,,,66,64
280440,note_off,,,,,0,0,1,,,,0,,,70,64
280440,note_off,,,,,0,0,1,,,,0,,,73,64
280560,note_on,,,,,0,0,1,,,,0,,,65,127
280560,note_on,,,,,0,0,2,,,,1,,,41,125
280560,note_on,,,,,120,0,1,,,,0,,,77,125
280560,note_on,,,,,120,0,2,,,,1,,,53,127
280680,note_off,,,,,0,0,1,,,,0,,,65,64
280680,note_off,,,,,120,0,1,,,,0,,,77,64
280680,note_off,,,,,0,0,2,,,,1,,,41,64
280680,note_off,,,,,120,0,2,,,,1,,,53,64
280800,note_on,,,,,120,0,1,,,,0,,,75,127
280800,note_on,,,,,120,0,2,,,,1,,,51,127
280800,note_on,,,,,0,0,2,,,,1,,,39,113
280800,note_on,,,,,0,0,1,,,,0,,,63,127
280920,note_off,,,,,0,0,1,,,,0,,,63,64
280920,note_off,,,,,120,0,1,,,,0,,,75,64
280920,note_off,,,,,0,0,2,,,,1,,,39,64
280920,note_off,,,,,120,0,2,,,,1,,,51,64
281040,note_on,,,,,0,0,1,,,,0,,,73,127
281040,note_on,,,,,0,0,2,,,,1,,,42,77
281040,note_on,,,,,120,0,2,,,,1,,,37,117
281040,note_on,,,,,120,0,1,,,,0,,,61,127
281040,note_on,,,,,0,0,1,,,,0,,,70,127
281040,note_on,,,,,0,0,2,,,,1,,,46,127
281040,note_on,,,,,0,0,2,,,,1,,,49,127
281040,note_on,,,,,0,0,1,,,,0,,,66,125
281160,note_off,,,,,0,0,2,,,,1,,,49,64
281160,note_off,,,,,0,0,1,,,,0,,,73,64
281160,note_off,,,,,120,0,1,,,,0,,,61,64
281160,note_off,,,,,0,0,1,,,,0,,,66,64
281160,note_off,,,,,0,0,1,,,,0,,,70,64
281160,note_off,,,,,0,0,2,,,,1,,,46,64
281160,note_off,,,,,0,0,2,,,,1,,,42,64
281160,note_off,,,,,120,0,2,,,,1,,,37,64
281280,note_on,,,,,120,0,2,,,,1,,,42,127
281280,note_on,,,,,120,0,1,,,,0,,,78,127
281280,note_on,,,,,0,0,1,,,,0,,,73,125
281280,note_on,,,,,0,0,2,,,,1,,,46,127
281280,note_on,,,,,0,0,1,,,,0,,,70,127
281280,note_on,,,,,0,0,1,,,,0,,,66,127
281280,note_on,,,,,0,0,2,,,,1,,,49,127
281280,note_on,,,,,0,0,2,,,,1,,,54,127
281750,set_tempo,,,,,4560,1,0,382165,,,,,,,
281760,note_on,,,,,0,0,1,,,,0,,,78,101
281760,note_on,,,,,0,0,2,,,,1,,,46,127
281760,note_on,,,,,0,0,2,,,,1,,,49,127
281760,note_on,,,,,0,0,2,,,,1,,,54,127
281760,note_off,,,,,480,0,1,,,,0,,,78,64
281760,note_on,,,,,0,0,2,,,,1,,,58,127
281760,note_on,,,,,0,0,1,,,,0,,,82,127
281760,note_off,,,,,0,0,2,,,,1,,,49,64
281760,note_off,,,,,0,0,1,,,,0,,,73,64
281760,note_off,,,,,0,0,1,,,,0,,,70,64
281760,note_off,,,,,0,0,1,,,,0,,,66,64
281760,note_on,,,,,0,0,1,,,,0,,,70,127
281760,note_on,,,,,0,0,1,,,,0,,,73,127
281760,note_off,,,,,0,0,2,,,,1,,,54,64
281760,note_off,,,,,0,0,2,,,,1,,,46,64
281760,note_off,,,,,480,0,2,,,,1,,,42,64
282230,note_off,,,,,470,0,2,,,,1,,,58,64
282230,note_off,,,,,0,0,2,,,,1,,,49,64
282230,note_off,,,,,470,0,1,,,,0,,,82,64
282230,note_off,,,,,0,0,1,,,,0,,,70,64
282230,note_off,,,,,0,0,1,,,,0,,,73,64
282230,note_off,,,,,0,0,1,,,,0,,,78,64
282230,note_off,,,,,0,0,2,,,,1,,,46,64
282230,note_off,,,,,0,0,2,,,,1,,,54,64
282240,set_tempo,,,,,490,1,0,377358,,,,,,,
282240,note_on,,,,,0,0,4,,,,3,,,83,115
282240,note_on,,,,,10,0,2,,,,1,,,37,118
282240,note_on,,,,,0,0,2,,,,1,,,49,122
282240,note_on,,,,,7690,0,4,,,,3,,,89,125
282360,note_off,,,,,120,0,2,,,,1,,,37,64
282360,note_on,,,,,0,0,4,,,,3,,,97,118
282360,note_off,,,,,0,0,4,,,,3,,,83,64
282360,note_off,,,,,0,0,2,,,,1,,,49,64
282360,note_off,,,,,120,0,4,,,,3,,,89,64
282480,note_on,,,,,120,0,2,,,,1,,,61,125
282480,note_on,,,,,0,0,4,,,,3,,,85,107
282480,note_on,,,,,0,0,2,,,,1,,,49,125
282480,note_off,,,,,120,0,4,,,,3,,,97,64
282480,note_on,,,,,0,0,4,,,,3,,,92,118
282600,note_off,,,,,0,0,4,,,,3,,,85,64
282600,note_off,,,,,120,0,4,,,,3,,,92,64
282600,note_on,,,,,0,0,4,,,,3,,,97,122
282720,note_on,,,,,0,0,4,,,,3,,,84,118
282720,note_on,,,,,0,0,4,,,,3,,,89,122
282720,note_on,,,,,0,0,2,,,,1,,,44,125
282720,note_on,,,,,0,0,2,,,,1,,,56,122
282720,note_off,,,,,120,0,4,,,,3,,,97,64
282720,note_off,,,,,240,0,2,,,,1,,,61,64
282720,note_off,,,,,0,0,2,,,,1,,,49,64
282840,note_on,,,,,0,0,4,,,,3,,,97,121
282840,note_off,,,,,120,0,4,,,,3,,,89,64
282840,note_off,,,,,120,0,2,,,,1,,,56,64
282840,note_off,,,,,0,0,2,,,,1,,,44,64
282840,note_off,,,,,0,0,4,,,,3,,,84,64
282960,note_off,,,,,120,0,4,,,,3,,,97,64
282960,note_on,,,,,120,0,2,,,,1,,,65,125
282960,note_on,,,,,0,0,4,,,,3,,,85,103
282960,note_on,,,,,0,0,4,,,,3,,,92,121
282960,note_on,,,,,0,0,2,,,,1,,,53,125
283080,note_off,,,,,120,0,4,,,,3,,,92,64
283080,note_off,,,,,0,0,4,,,,3,,,85,64
283080,note_on,,,,,0,0,4,,,,3,,,97,122
283200,note_off,,,,,120,0,4,,,,3,,,97,64
283200,note_on,,,,,0,0,4,,,,3,,,89,122
283200,note_on,,,,,0,0,4,,,,3,,,83,121
283200,note_off,,,,,240,0,2,,,,1,,,65,64
283200,note_on,,,,,0,0,2,,,,1,,,49,125
283200,note_off,,,,,0,0,2,,,,1,,,53,64
283200,note_on,,,,,0,0,2,,,,1,,,61,125
283320,note_on,,,,,0,0,4,,,,3,,,97,122
283320,note_off,,,,,0,0,2,,,,1,,,49,64
283320,note_off,,,,,0,0,4,,,,3,,,83,64
283320,note_off,,,,,120,0,2,,,,1,,,61,64
283320,note_off,,,,,120,0,4,,,,3,,,89,64
283440,note_off,,,,,120,0,4,,,,3,,,97,64
283440,note_on,,,,,120,0,2,,,,1,,,70,125
283440,note_on,,,,,0,0,4,,,,3,,,85,115
283440,note_on,,,,,0,0,2,,,,1,,,58,122
283440,note_on,,,,,0,0,4,,,,3,,,92,121
283560,note_on,,,,,0,0,4,,,,3,,,97,125
283560,note_off,,,,,0,0,4,,,,3,,,85,64
283560,note_off,,,,,120,0,4,,,,3,,,92,64
283680,note_off,,,,,120,0,4,,,,3,,,97,64
283680,note_on,,,,,0,0,4,,,,3,,,84,121
283680,note_on,,,,,0,0,4,,,,3,,,89,122
283800,note_off,,,,,0,0,4,,,,3,,,84,64
283800,note_off,,,,,120,0,4,,,,3,,,89,64
283800,note_on,,,,,0,0,4,,,,3,,,97,122
283920,note_off,,,,,120,0,4,,,,3,,,97,64
283920,note_off,,,,,480,0,2,,,,1,,,70,64
283920,note_off,,,,,0,0,2,,,,1,,,58,64
283920,note_on,,,,,0,0,4,,,,3,,,92,122
283920,note_on,,,,,0,0,2,,,,1,,,68,127
283920,note_on,,,,,0,0,4,,,,3,,,85,118
283920,note_on,,,,,0,0,2,,,,1,,,56,122
284040,note_off,,,,,120,0,4,,,,3,,,92,64
284040,note_off,,,,,0,0,2,,,,1,,,56,64
284040,note_off,,,,,0,0,4,,,,3,,,85,64
284040,note_off,,,,,120,0,2,,,,1,,,68,64
284040,note_on,,,,,0,0,4,,,,3,,,97,122
284160,note_on,,,,,0,0,2,,,,1,,,54,122
284160,note_on,,,,,120,0,2,,,,1,,,66,122
284160,note_on,,,,,0,0,4,,,,3,,,82,107
284160,note_on,,,,,0,0,4,,,,3,,,90,122
284160,note_off,,,,,120,0,4,,,,3,,,97,64
284280,note_off,,,,,120,0,4,,,,3,,,90,64
284280,note_off,,,,,0,0,4,,,,3,,,82,64
284280,note_on,,,,,0,0,4,,,,3,,,97,122
284280,note_off,,,,,120,0,2,,,,1,,,66,64
284280,note_off,,,,,0,0,2,,,,1,,,54,64
284400,note_on,,,,,120,0,2,,,,1,,,65,122
284400,note_on,,,,,0,0,2,,,,1,,,53,122
284400,note_off,,,,,120,0,4,,,,3,,,97,64
284400,note_on,,,,,0,0,4,,,,3,,,85,107
284400,note_on,,,,,0,0,4,,,,3,,,94,122
284520,note_off,,,,,120,0,2,,,,1,,,65,64
284520,note_on,,,,,0,0,4,,,,3,,,97,125
284520,note_off,,,,,120,0,4,,,,3,,,94,64
284520,note_off,,,,,0,0,2,,,,1,,,53,64
284520,note_off,,,,,0,0,4,,,,3,,,85,64
284640,note_on,,,,,0,0,2,,,,1,,,52,122
284640,note_off,,,,,120,0,4,,,,3,,,97,64
284640,note_on,,,,,0,0,4,,,,3,,,84,118
284640,note_on,,,,,120,0,2,,,,1,,,64,125
284640,note_on,,,,,0,0,4,,,,3,,,90,122
284760,note_on,,,,,0,0,4,,,,3,,,97,122
284760,note_off,,,,,0,0,2,,,,1,,,52,64
284760,note_off,,,,,120,0,4,,,,3,,,90,64
284760,note_off,,,,,120,0,2,,,,1,,,64,64
284760,note_off,,,,,0,0,4,,,,3,,,84,64
284880,note_on,,,,,0,0,4,,,,3,,,94,125
284880,note_on,,,,,0,0,2,,,,1,,,51,122
284880,note_off,,,,,120,0,4,,,,3,,,97,64
284880,note_on,,,,,0,0,4,,,,3,,,85,118
284880,note_on,,,,,120,0,2,,,,1,,,63,122
285000,note_on,,,,,0,0,4,,,,3,,,97,125
285000,note_off,,,,,0,0,4,,,,3,,,85,64
285000,note_off,,,,,120,0,2,,,,1,,,63,64
285000,note_off,,,,,120,0,4,,,,3,,,94,64
285000,note_off,,,,,0,0,2,,,,1,,,51,64
285120,note_on,,,,,120,0,2,,,,1,,,62,125
285120,note_on,,,,,0,0,2,,,,1,,,50,125
285120,note_on,,,,,0,0,4,,,,3,,,90,118
285120,note_on,,,,,0,0,4,,,,3,,,82,115
285120,note_off,,,,,120,0,4,,,,3,,,97,64
285240,note_on,,,,,0,0,4,,,,3,,,97,122
285240,note_off,,,,,120,0,4,,,,3,,,90,64
285240,note_off,,,,,0,0,2,,,,1,,,50,64
285240,note_off,,,,,0,0,4,,,,3,,,82,64
285240,note_off,,,,,120,0,2,,,,1,,,62,64
285360,note_off,,,,,120,0,4,,,,3,,,97,64
285360,note_on,,,,,0,0,2,,,,1,,,49,125
285360,note_on,,,,,0,0,4,,,,3,,,85,118
285360,note_on,,,,,0,0,4,,,,3,,,94,122
285360,note_on,,,,,120,0,2,,,,1,,,61,122
285480,note_off,,,,,120,0,4,,,,3,,,94,64
285480,note_on,,,,,0,0,4,,,,3,,,97,122
285480,note_off,,,,,120,0,2,,,,1,,,61,64
285480,note_off,,,,,0,0,2,,,,1,,,49,64
285480,note_off,,,,,0,0,4,,,,3,,,85,64
285600,note_on,,,,,0,0,4,,,,3,,,90,122
285600,note_off,,,,,120,0,4,,,,3,,,97,64
285600,note_on,,,,,0,0,2,,,,1,,,46,125
285600,note_on,,,,,0,0,4,,,,3,,,84,121
285600,note_on,,,,,120,0,2,,,,1,,,58,125
285720,note_off,,,,,120,0,4,,,,3,,,90,64
285720,note_off,,,,,0,0,2,,,,1,,,46,64
285720,note_off,,,,,0,0,4,,,,3,,,84,64
285720,note_on,,,,,0,0,4,,,,3,,,97,125
285720,note_off,,,,,120,0,2,,,,1,,,58,64
285840,note_on,,,,,120,0,2,,,,1,,,54,125
285840,note_on,,,,,0,0,2,,,,1,,,42,122
285840,note_on,,,,,0,0,4,,,,3,,,85,118
285840,note_on,,,,,0,0,4,,,,3,,,94,122
285840,note_off,,,,,120,0,4,,,,3,,,97,64
285960,note_off,,,,,120,0,2,,,,1,,,54,64
285960,note_on,,,,,0,0,4,,,,3,,,97,122
285960,note_off,,,,,0,0,4,,,,3,,,85,64
285960,note_off,,,,,0,0,2,,,,1,,,42,64
285960,note_off,,,,,120,0,4,,,,3,,,94,64
286080,note_on,,,,,120,0,2,,,,1,,,37,125
286080,note_on,,,,,0,0,2,,,,1,,,49,127
286080,note_on,,,,,0,0,4,,,,3,,,89,122
286080,note_on,,,,,0,0,4,,,,3,,,83,121
286080,note_off,,,,,120,0,4,,,,3,,,97,64
286200,note_on,,,,,0,0,4,,,,3,,,97,125
286200,note_off,,,,,0,0,2,,,,1,,,49,64
286200,note_off,,,,,0,0,4,,,,3,,,83,64
286200,note_off,,,,,120,0,2,,,,1,,,37,64
286200,note_off,,,,,120,0,4,,,,3,,,89,64
286320,note_on,,,,,0,0,2,,,,1,,,49,122
286320,note_on,,,,,120,0,2,,,,1,,,61,125
286320,note_on,,,,,0,0,4,,,,3,,,92,122
286320,note_off,,,,,120,0,4,,,,3,,,97,64
286320,note_on,,,,,0,0,4,,,,3,,,85,118
286440,note_off,,,,,120,0,4,,,,3,,,92,64
286440,note_off,,,,,0,0,4,,,,3,,,85,64
286440,note_on,,,,,0,0,4,,,,3,,,97,125
286560,note_on,,,,,0,0,2,,,,1,,,56,125
286560,note_on,,,,,0,0,4,,,,3,,,89,125
286560,note_on,,,,,0,0,2,,,,1,,,44,122
286560,note_off,,,,,120,0,4,,,,3,,,97,64
286560,note_off,,,,,0,0,2,,,,1,,,49,64
286560,note_on,,,,,0,0,4,,,,3,,,84,122
286560,note_off,,,,,240,0,2,,,,1,,,61,64
286680,note_on,,,,,0,0,4,,,,3,,,97,125
286680,note_off,,,,,0,0,2,,,,1,,,44,64
286680,note_off,,,,,0,0,4,,,,3,,,84,64
286680,note_off,,,,,120,0,4,,,,3,,,89,64
286680,note_off,,,,,120,0,2,,,,1,,,56,64
286800,note_on,,,,,120,0,2,,,,1,,,65,125
286800,note_off,,,,,120,0,4,,,,3,,,97,64
286800,note_on,,,,,0,0,4,,,,3,,,92,125
286800,note_on,,,,,0,0,4,,,,3,,,85,118
286800,note_on,,,,,0,0,2,,,,1,,,53,125
286920,note_on,,,,,0,0,4,,,,3,,,97,125
286920,note_off,,,,,0,0,4,,,,3,,,85,64
286920,note_off,,,,,120,0,4,,,,3,,,92,64
287040,note_off,,,,,120,0,4,,,,3,,,97,64
287040,note_on,,,,,0,0,2,,,,1,,,61,127
287040,note_on,,,,,0,0,2,,,,1,,,49,125
287040,note_off,,,,,240,0,2,,,,1,,,65,64
287040,note_on,,,,,0,0,4,,,,3,,,89,122
287040,note_on,,,,,0,0,4,,,,3,,,83,118
287040,note_off,,,,,0,0,2,,,,1,,,53,64
287160,note_off,,,,,0,0,2,,,,1,,,49,64
287160,note_off,,,,,0,0,4,,,,3,,,83,64
287160,note_on,,,,,0,0,4,,,,3,,,97,127
287160,note_off,,,,,120,0,4,,,,3,,,89,64
287160,note_off,,,,,120,0,2,,,,1,,,61,64
287280,note_on,,,,,0,0,4,,,,3,,,85,118
287280,note_on,,,,,0,0,4,,,,3,,,92,127
287280,note_on,,,,,120,0,2,,,,1,,,70,127
287280,note_on,,,,,0,0,2,,,,1,,,58,125
287280,note_off,,,,,120,0,4,,,,3,,,97,64
287400,note_off,,,,,0,0,4,,,,3,,,85,64
287400,note_off,,,,,120,0,4,,,,3,,,92,64
287400,note_on,,,,,0,0,4,,,,3,,,97,127
287520,note_on,,,,,0,0,4,,,,3,,,89,125
287520,note_on,,,,,0,0,4,,,,3,,,84,118
287520,note_off,,,,,120,0,4,,,,3,,,97,64
287640,note_on,,,,,0,0,4,,,,3,,,97,125
287640,note_off,,,,,0,0,4,,,,3,,,84,64
287640,note_off,,,,,120,0,4,,,,3,,,89,64
287760,note_on,,,,,0,0,2,,,,1,,,68,122
287760,note_on,,,,,0,0,2,,,,1,,,56,122
287760,note_off,,,,,480,0,2,,,,1,,,70,64
287760,note_off,,,,,120,0,4,,,,3,,,97,64
287760,note_on,,,,,0,0,4,,,,3,,,92,125
287760,note_on,,,,,0,0,4,,,,3,,,85,118
287760,note_off,,,,,0,0,2,,,,1,,,58,64
287880,note_off,,,,,0,0,2,,,,1,,,56,64
287880,note_off,,,,,120,0,2,,,,1,,,68,64
287880,note_off,,,,,120,0,4,,,,3,,,92,64
287880,note_on,,,,,0,0,4,,,,3,,,97,125
287880,note_off,,,,,0,0,4,,,,3,,,85,64
288000,note_on,,,,,0,0,4,,,,3,,,90,122
288000,note_on,,,,,0,0,2,,,,1,,,54,125
288000,note_off,,,,,120,0,4,,,,3,,,97,64
288000,note_on,,,,,0,0,4,,,,3,,,82,115
288000,note_on,,,,,120,0,2,,,,1,,,66,122
288120,note_off,,,,,120,0,2,,,,1,,,66,64
288120,note_off,,,,,120,0,4,,,,3,,,90,64
288120,note_on,,,,,0,0,4,,,,3,,,97,125
288120,note_off,,,,,0,0,2,,,,1,,,54,64
288120,note_off,,,,,0,0,4,,,,3,,,82,64
288240,note_off,,,,,120,0,4,,,,3,,,97,64
288240,note_on,,,,,0,0,4,,,,3,,,85,115
288240,note_on,,,,,0,0,2,,,,1,,,53,125
288240,note_on,,,,,120,0,2,,,,1,,,65,122
288240,note_on,,,,,0,0,4,,,,3,,,94,122
288360,note_off,,,,,0,0,4,,,,3,,,85,64
288360,note_off,,,,,120,0,4,,,,3,,,94,64
288360,note_on,,,,,0,0,4,,,,3,,,97,122
288360,note_off,,,,,0,0,2,,,,1,,,53,64
288360,note_off,,,,,120,0,2,,,,1,,,65,64
288480,note_on,,,,,0,0,2,,,,1,,,52,122
288480,note_on,,,,,0,0,4,,,,3,,,84,121
288480,note_on,,,,,0,0,4,,,,3,,,90,122
288480,note_off,,,,,120,0,4,,,,3,,,97,64
288480,note_on,,,,,120,0,2,,,,1,,,64,125
288600,note_off,,,,,120,0,4,,,,3,,,90,64
288600,note_on,,,,,0,0,4,,,,3,,,97,125
288600,note_off,,,,,0,0,4,,,,3,,,84,64
288600,note_off,,,,,120,0,2,,,,1,,,64,64
288600,note_off,,,,,0,0,2,,,,1,,,52,64
288720,note_on,,,,,0,0,4,,,,3,,,85,118
288720,note_on,,,,,0,0,4,,,,3,,,94,121
288720,note_on,,,,,120,0,2,,,,1,,,63,125
288720,note_off,,,,,120,0,4,,,,3,,,97,64
288720,note_on,,,,,0,0,2,,,,1,,,51,122
288840,note_off,,,,,120,0,2,,,,1,,,63,64
288840,note_on,,,,,0,0,4,,,,3,,,97,125
288840,note_off,,,,,0,0,4,,,,3,,,85,64
288840,note_off,,,,,120,0,4,,,,3,,,94,64
288840,note_off,,,,,0,0,2,,,,1,,,51,64
288960,note_off,,,,,120,0,4,,,,3,,,97,64
288960,note_on,,,,,0,0,2,,,,1,,,50,122
288960,note_on,,,,,0,0,4,,,,3,,,90,121
288960,note_on,,,,,0,0,4,,,,3,,,82,118
288960,note_on,,,,,120,0,2,,,,1,,,62,122
289080,note_off,,,,,120,0,4,,,,3,,,90,64
289080,note_off,,,,,0,0,4,,,,3,,,82,64
289080,note_off,,,,,120,0,2,,,,1,,,62,64
289080,note_on,,,,,0,0,4,,,,3,,,97,125
289080,note_off,,,,,0,0,2,,,,1,,,50,64
289200,note_on,,,,,0,0,2,,,,1,,,49,125
289200,note_on,,,,,120,0,2,,,,1,,,61,125
289200,note_on,,,,,0,0,4,,,,3,,,94,122
289200,note_off,,,,,120,0,4,,,,3,,,97,64
289200,note_on,,,,,0,0,4,,,,3,,,85,118
289320,note_off,,,,,120,0,4,,,,3,,,94,64
289320,note_on,,,,,0,0,4,,,,3,,,97,125
289320,note_off,,,,,120,0,2,,,,1,,,61,64
289320,note_off,,,,,0,0,2,,,,1,,,49,64
289320,note_off,,,,,0,0,4,,,,3,,,85,64
289440,note_on,,,,,0,0,4,,,,3,,,90,125
289440,note_on,,,,,0,0,4,,,,3,,,82,121
289440,note_off,,,,,120,0,4,,,,3,,,97,64
289440,note_on,,,,,120,0,2,,,,1,,,60,122
289440,note_on,,,,,0,0,2,,,,1,,,48,127
289560,note_off,,,,,120,0,2,,,,1,,,60,64
289560,note_off,,,,,0,0,4,,,,3,,,82,64
289560,note_off,,,,,120,0,4,,,,3,,,90,64
289560,note_on,,,,,0,0,4,,,,3,,,97,125
289560,note_off,,,,,0,0,2,,,,1,,,48,64
289680,note_off,,,,,120,0,4,,,,3,,,97,64
289680,note_on,,,,,0,0,2,,,,1,,,49,125
289680,note_on,,,,,120,0,2,,,,1,,,61,125
289680,note_on,,,,,0,0,4,,,,3,,,94,122
289680,note_on,,,,,0,0,4,,,,3,,,85,115
289800,note_off,,,,,120,0,2,,,,1,,,61,64
289800,note_off,,,,,0,0,4,,,,3,,,85,64
289800,note_on,,,,,0,0,4,,,,3,,,97,127
289800,note_off,,,,,120,0,4,,,,3,,,94,64
289800,note_off,,,,,0,0,2,,,,1,,,49,64
289920,note_off,,,,,120,0,4,,,,3,,,97,64
289920,note_on,,,,,0,0,4,,,,3,,,83,121
289920,note_on,,,,,120,0,2,,,,1,,,56,118
289920,note_on,,,,,0,0,4,,,,3,,,89,122
290040,note_off,,,,,120,0,4,,,,3,,,89,64
290040,note_off,,,,,0,0,4,,,,3,,,83,64
290040,note_off,,,,,120,0,2,,,,1,,,56,64
290040,note_on,,,,,0,0,4,,,,3,,,97,122
290160,note_off,,,,,120,0,4,,,,3,,,97,64
290160,note_on,,,,,0,0,4,,,,3,,,92,121
290160,note_on,,,,,0,0,2,,,,1,,,65,107
290160,note_on,,,,,0,0,2,,,,1,,,61,77
290160,note_on,,,,,0,0,4,,,,3,,,85,93
290160,note_on,,,,,120,0,2,,,,1,,,73,75
290280,note_on,,,,,0,0,4,,,,3,,,97,122
290280,note_off,,,,,0,0,2,,,,1,,,61,64
290280,note_off,,,,,0,0,2,,,,1,,,65,64
290280,note_off,,,,,120,0,4,,,,3,,,92,64
290280,note_off,,,,,120,0,2,,,,1,,,73,64
290280,note_off,,,,,0,0,4,,,,3,,,85,64
290400,note_on,,,,,120,0,2,,,,1,,,49,103
290400,note_on,,,,,0,0,4,,,,3,,,83,122
290400,note_off,,,,,120,0,4,,,,3,,,97,64
290400,note_on,,,,,0,0,4,,,,3,,,89,121
290520,note_off,,,,,120,0,2,,,,1,,,49,64
290520,note_on,,,,,0,0,4,,,,3,,,97,118
290520,note_off,,,,,0,0,4,,,,3,,,83,64
290520,note_off,,,,,120,0,4,,,,3,,,89,64
290640,note_on,,,,,0,0,2,,,,1,,,65,107
290640,note_on,,,,,0,0,2,,,,1,,,61,73
290640,note_on,,,,,0,0,4,,,,3,,,85,107
290640,note_on,,,,,0,0,4,,,,3,,,92,122
290640,note_on,,,,,120,0,2,,,,1,,,73,87
290640,note_off,,,,,120,0,4,,,,3,,,97,64
290760,note_off,,,,,0,0,2,,,,1,,,61,64
290760,note_off,,,,,0,0,4,,,,3,,,85,64
290760,note_off,,,,,0,0,2,,,,1,,,65,64
290760,note_on,,,,,0,0,4,,,,3,,,97,118
290760,note_off,,,,,120,0,4,,,,3,,,92,64
290760,note_off,,,,,120,0,2,,,,1,,,73,64
290880,note_on,,,,,0,0,2,,,,1,,,68,87
290880,note_on,,,,,0,0,4,,,,3,,,89,121
290880,note_off,,,,,120,0,4,,,,3,,,97,64
290880,note_on,,,,,120,0,2,,,,1,,,72,103
290880,note_on,,,,,0,0,4,,,,3,,,83,107
291000,note_on,,,,,0,0,4,,,,3,,,97,121
291000,note_off,,,,,120,0,4,,,,3,,,89,64
291000,note_off,,,,,120,0,2,,,,1,,,72,64
291000,note_off,,,,,0,0,4,,,,3,,,83,64
291000,note_off,,,,,0,0,2,,,,1,,,68,64
291120,note_on,,,,,0,0,4,,,,3,,,92,118
291120,note_on,,,,,0,0,2,,,,1,,,65,91
291120,note_off,,,,,120,0,4,,,,3,,,97,64
291120,note_on,,,,,0,0,4,,,,3,,,85,103
291120,note_on,,,,,120,0,2,,,,1,,,73,103
291240,note_off,,,,,0,0,2,,,,1,,,65,64
291240,note_off,,,,,0,0,4,,,,3,,,85,64
291240,note_off,,,,,120,0,4,,,,3,,,92,64
291240,note_on,,,,,0,0,4,,,,3,,,97,121
291240,note_off,,,,,120,0,2,,,,1,,,73,64
291360,note_on,,,,,120,0,2,,,,1,,,71,97
291360,note_on,,,,,0,0,2,,,,1,,,68,93
291360,note_on,,,,,0,0,4,,,,3,,,85,107
291360,note_off,,,,,120,0,4,,,,3,,,97,64
291360,note_on,,,,,0,0,4,,,,3,,,89,103
291360,note_on,,,,,0,0,4,,,,3,,,77,103
291720,note_on,,,,,0,0,2,,,,1,,,73,97
291720,note_on,,,,,0,0,2,,,,1,,,65,93
291720,note_off,,,,,360,0,2,,,,1,,,71,64
291720,note_off,,,,,0,0,2,,,,1,,,68,64
291840,note_off,,,,,120,0,2,,,,1,,,73,64
291840,note_on,,,,,0,0,4,,,,3,,,82,91
291840,note_off,,,,,480,0,4,,,,3,,,89,64
291840,note_off,,,,,0,0,2,,,,1,,,65,64
291840,note_off,,,,,0,0,4,,,,3,,,77,64
291840,note_on,,,,,0,0,2,,,,1,,,54,115
291840,note_off,,,,,0,0,4,,,,3,,,85,64
291840,note_on,,,,,0,0,4,,,,3,,,90,118
291960,note_off,,,,,0,0,4,,,,3,,,82,64
291960,note_on,,,,,0,0,4,,,,3,,,97,121
291960,note_off,,,,,120,0,4,,,,3,,,90,64
291960,note_off,,,,,120,0,2,,,,1,,,54,64
292080,note_on,,,,,0,0,2,,,,1,,,61,87
292080,note_on,,,,,120,0,2,,,,1,,,70,97
292080,note_on,,,,,0,0,4,,,,3,,,94,118
292080,note_on,,,,,0,0,2,,,,1,,,66,103
292080,note_off,,,,,120,0,4,,,,3,,,97,64
292080,note_on,,,,,0,0,4,,,,3,,,85,93
292200,note_off,,,,,120,0,2,,,,1,,,70,64
292200,note_off,,,,,0,0,2,,,,1,,,61,64
292200,note_on,,,,,0,0,4,,,,3,,,97,107
292200,note_off,,,,,0,0,2,,,,1,,,66,64
292200,note_off,,,,,120,0,4,,,,3,,,94,64
292200,note_off,,,,,0,0,4,,,,3,,,85,64
292320,note_on,,,,,0,0,4,,,,3,,,82,87
292320,note_on,,,,,0,0,4,,,,3,,,90,118
292320,note_on,,,,,120,0,2,,,,1,,,49,118
292320,note_off,,,,,120,0,4,,,,3,,,97,64
292440,note_off,,,,,120,0,4,,,,3,,,90,64
292440,note_off,,,,,120,0,2,,,,1,,,49,64
292440,note_on,,,,,0,0,4,,,,3,,,97,121
292440,note_off,,,,,0,0,4,,,,3,,,82,64
292560,note_on,,,,,0,0,4,,,,3,,,94,121
292560,note_on,,,,,0,0,4,,,,3,,,85,103
292560,note_off,,,,,120,0,4,,,,3,,,97,64
292560,note_on,,,,,0,0,2,,,,1,,,61,91
292560,note_on,,,,,0,0,2,,,,1,,,66,103
292560,note_on,,,,,120,0,2,,,,1,,,70,97
292680,note_off,,,,,0,0,2,,,,1,,,66,64
292680,note_off,,,,,0,0,4,,,,3,,,85,64
292680,note_off,,,,,0,0,2,,,,1,,,61,64
292680,note_on,,,,,0,0,4,,,,3,,,97,122
292680,note_off,,,,,120,0,4,,,,3,,,94,64
292680,note_off,,,,,120,0,2,,,,1,,,70,64
292800,note_on,,,,,0,0,4,,,,3,,,82,91
292800,note_on,,,,,0,0,4,,,,3,,,90,121
292800,note_on,,,,,0,0,2,,,,1,,,69,91
292800,note_on,,,,,120,0,2,,,,1,,,72,97
292800,note_off,,,,,120,0,4,,,,3,,,97,64
292920,note_off,,,,,0,0,4,,,,3,,,82,64
292920,note_off,,,,,120,0,2,,,,1,,,72,64
292920,note_off,,,,,120,0,4,,,,3,,,90,64
292920,note_off,,,,,0,0,2,,,,1,,,69,64
292920,note_on,,,,,0,0,4,,,,3,,,97,122
293040,note_off,,,,,120,0,4,,,,3,,,97,64
293040,note_on,,,,,0,0,2,,,,1,,,70,107
293040,note_on,,,,,0,0,4,,,,3,,,94,121
293040,note_on,,,,,120,0,2,,,,1,,,73,115
293040,note_on,,,,,0,0,4,,,,3,,,85,103
293160,note_off,,,,,120,0,2,,,,1,,,73,64
293160,note_off,,,,,0,0,4,,,,3,,,85,64
293160,note_off,,,,,120,0,4,,,,3,,,94,64
293160,note_on,,,,,0,0,4,,,,3,,,97,125
293160,note_off,,,,,0,0,2,,,,1,,,70,64
293280,note_on,,,,,120,0,2,,,,1,,,70,97
293280,note_off,,,,,120,0,4,,,,3,,,97,64
293280,note_on,,,,,0,0,2,,,,1,,,66,93
293280,note_on,,,,,0,0,4,,,,3,,,90,103
293280,note_on,,,,,0,0,4,,,,3,,,78,115
293280,note_on,,,,,0,0,4,,,,3,,,85,103
293640,note_off,,,,,360,0,2,,,,1,,,70,64
293640,note_on,,,,,0,0,2,,,,1,,,73,103
293760,note_off,,,,,120,0,2,,,,1,,,66,64
293760,note_on,,,,,0,0,4,,,,3,,,89,115
293760,note_on,,,,,0,0,4,,,,3,,,83,115
293760,note_off,,,,,0,0,2,,,,1,,,73,64
293760,note_off,,,,,480,0,4,,,,3,,,90,64
293760,note_on,,,,,0,0,2,,,,1,,,56,107
293760,note_off,,,,,0,0,4,,,,3,,,85,64
293760,note_off,,,,,0,0,4,,,,3,,,78,64
293880,note_off,,,,,120,0,2,,,,1,,,56,64
293880,note_off,,,,,120,0,4,,,,3,,,89,64
293880,note_on,,,,,0,0,4,,,,3,,,97,121
293880,note_off,,,,,0,0,4,,,,3,,,83,64
294000,note_on,,,,,0,0,4,,,,3,,,85,97
294000,note_on,,,,,0,0,2,,,,1,,,65,107
294000,note_on,,,,,0,0,2,,,,1,,,61,87
294000,note_off,,,,,120,0,4,,,,3,,,97,64
294000,note_on,,,,,0,0,4,,,,3,,,92,118
294000,note_on,,,,,120,0,2,,,,1,,,73,93
294120,note_off,,,,,0,0,2,,,,1,,,61,64
294120,note_off,,,,,120,0,4,,,,3,,,92,64
294120,note_off,,,,,120,0,2,,,,1,,,73,64
294120,note_off,,,,,0,0,4,,,,3,,,85,64
294120,note_off,,,,,0,0,2,,,,1,,,65,64
294120,note_on,,,,,0,0,4,,,,3,,,97,118
294240,note_on,,,,,120,0,2,,,,1,,,49,103
294240,note_on,,,,,0,0,4,,,,3,,,83,103
294240,note_on,,,,,0,0,4,,,,3,,,89,107
294240,note_off,,,,,120,0,4,,,,3,,,97,64
294360,note_off,,,,,0,0,4,,,,3,,,83,64
294360,note_off,,,,,120,0,4,,,,3,,,89,64
294360,note_on,,,,,0,0,4,,,,3,,,97,118
294360,note_off,,,,,120,0,2,,,,1,,,49,64
294480,note_on,,,,,0,0,2,,,,1,,,65,103
294480,note_on,,,,,0,0,2,,,,1,,,61,91
294480,note_on,,,,,0,0,4,,,,3,,,85,97
294480,note_on,,,,,0,0,4,,,,3,,,92,107
294480,note_on,,,,,120,0,2,,,,1,,,73,93
294480,note_off,,,,,120,0,4,,,,3,,,97,64
294600,note_off,,,,,0,0,2,,,,1,,,61,64
294600,note_off,,,,,0,0,2,,,,1,,,65,64
294600,note_off,,,,,0,0,4,,,,3,,,85,64
294600,note_on,,,,,0,0,4,,,,3,,,97,103
294600,note_off,,,,,120,0,4,,,,3,,,92,64
294600,note_off,,,,,120,0,2,,,,1,,,73,64
294720,note_on,,,,,0,0,2,,,,1,,,68,79
294720,note_on,,,,,0,0,4,,,,3,,,89,115
294720,note_on,,,,,120,0,2,,,,1,,,72,103
294720,note_off,,,,,120,0,4,,,,3,,,97,64
294720,note_on,,,,,0,0,4,,,,3,,,83,97
294840,note_off,,,,,120,0,2,,,,1,,,72,64
294840,note_off,,,,,0,0,2,,,,1,,,68,64
294840,note_off,,,,,0,0,4,,,,3,,,83,64
294840,note_off,,,,,120,0,4,,,,3,,,89,64
294840,note_on,,,,,0,0,4,,,,3,,,97,118
294960,note_off,,,,,120,0,4,,,,3,,,97,64
294960,note_on,,,,,0,0,2,,,,1,,,65,79
294960,note_on,,,,,0,0,4,,,,3,,,92,115
294960,note_on,,,,,0,0,4,,,,3,,,85,97
294960,note_on,,,,,120,0,2,,,,1,,,73,91
295080,note_off,,,,,0,0,2,,,,1,,,65,64
295080,note_on,,,,,0,0,4,,,,3,,,97,118
295080,note_off,,,,,0,0,4,,,,3,,,85,64
295080,note_off,,,,,120,0,2,,,,1,,,73,64
295080,note_off,,,,,120,0,4,,,,3,,,92,64
295200,note_off,,,,,120,0,4,,,,3,,,97,64
295200,note_on,,,,,120,0,2,,,,1,,,71,103
295200,note_on,,,,,0,0,2,,,,1,,,68,79
295200,note_on,,,,,0,0,4,,,,3,,,77,79
295200,note_on,,,,,0,0,4,,,,3,,,89,103
295200,note_on,,,,,0,0,4,,,,3,,,85,87
295560,note_on,,,,,0,0,2,,,,1,,,73,93
295560,note_on,,,,,0,0,2,,,,1,,,65,91
295560,note_off,,,,,0,0,2,,,,1,,,68,64
295560,note_off,,,,,360,0,2,,,,1,,,71,64
295680,note_on,,,,,0,0,2,,,,1,,,54,107
295680,note_off,,,,,0,0,4,,,,3,,,85,64
295680,note_off,,,,,0,0,2,,,,1,,,65,64
295680,note_off,,,,,120,0,2,,,,1,,,73,64
295680,note_on,,,,,0,0,4,,,,3,,,90,115
295680,note_off,,,,,480,0,4,,,,3,,,89,64
295680,note_off,,,,,0,0,4,,,,3,,,77,64
295680,note_on,,,,,0,0,4,,,,3,,,82,91
295800,note_off,,,,,120,0,4,,,,3,,,90,64
295800,note_off,,,,,0,0,4,,,,3,,,82,64
295800,note_on,,,,,0,0,4,,,,3,,,97,121
295800,note_off,,,,,120,0,2,,,,1,,,54,64
295920,note_on,,,,,0,0,4,,,,3,,,85,97
295920,note_on,,,,,0,0,4,,,,3,,,94,103
295920,note_on,,,,,120,0,2,,,,1,,,70,97
295920,note_on,,,,,0,0,2,,,,1,,,61,79
295920,note_on,,,,,0,0,2,,,,1,,,66,97
295920,note_off,,,,,120,0,4,,,,3,,,97,64
296040,note_off,,,,,120,0,2,,,,1,,,70,64
296040,note_off,,,,,0,0,2,,,,1,,,61,64
296040,note_off,,,,,0,0,4,,,,3,,,85,64
296040,note_off,,,,,120,0,4,,,,3,,,94,64
296040,note_on,,,,,0,0,4,,,,3,,,97,97
296040,note_off,,,,,0,0,2,,,,1,,,66,64
296160,note_on,,,,,120,0,2,,,,1,,,49,103
296160,note_off,,,,,120,0,4,,,,3,,,97,64
296160,note_on,,,,,0,0,4,,,,3,,,90,118
296160,note_on,,,,,0,0,4,,,,3,,,82,91
296280,note_off,,,,,120,0,4,,,,3,,,90,64
296280,note_on,,,,,0,0,4,,,,3,,,97,97
296280,note_off,,,,,0,0,4,,,,3,,,82,64
296280,note_off,,,,,120,0,2,,,,1,,,49,64
296400,note_on,,,,,0,0,4,,,,3,,,85,83
296400,note_on,,,,,0,0,4,,,,3,,,94,107
296400,note_off,,,,,120,0,4,,,,3,,,97,64
296400,note_on,,,,,0,0,2,,,,1,,,61,77
296400,note_on,,,,,0,0,2,,,,1,,,66,97
296400,note_on,,,,,120,0,2,,,,1,,,70,97
296520,note_off,,,,,120,0,4,,,,3,,,94,64
296520,note_off,,,,,120,0,2,,,,1,,,70,64
296520,note_on,,,,,0,0,4,,,,3,,,97,93
296520,note_off,,,,,0,0,2,,,,1,,,66,64
296520,note_off,,,,,0,0,2,,,,1,,,61,64
296520,note_off,,,,,0,0,4,,,,3,,,85,64
296640,note_on,,,,,0,0,2,,,,1,,,69,97
296640,note_on,,,,,0,0,4,,,,3,,,82,83
296640,note_on,,,,,0,0,4,,,,3,,,90,103
296640,note_off,,,,,120,0,4,,,,3,,,97,64
296640,note_on,,,,,120,0,2,,,,1,,,72,93
296760,note_on,,,,,0,0,4,,,,3,,,97,97
296760,note_off,,,,,0,0,2,,,,1,,,69,64
296760,note_off,,,,,120,0,2,,,,1,,,72,64
296760,note_off,,,,,120,0,4,,,,3,,,90,64
296760,note_off,,,,,0,0,4,,,,3,,,82,64
296880,note_on,,,,,0,0,4,,,,3,,,85,93
296880,note_on,,,,,0,0,4,,,,3,,,94,97
296880,note_on,,,,,0,0,2,,,,1,,,70,97
296880,note_off,,,,,120,0,4,,,,3,,,97,64
296880,note_on,,,,,120,0,2,,,,1,,,73,91
297000,note_off,,,,,0,0,2,,,,1,,,70,64
297000,note_off,,,,,120,0,4,,,,3,,,94,64
297000,note_off,,,,,0,0,4,,,,3,,,85,64
297000,note_on,,,,,0,0,4,,,,3,,,97,93
297000,note_off,,,,,120,0,2,,,,1,,,73,64
297120,note_on,,,,,0,0,2,,,,1,,,66,87
297120,note_off,,,,,120,0,4,,,,3,,,97,64
297120,note_on,,,,,0,0,4,,,,3,,,90,75
297120,note_on,,,,,120,0,2,,,,1,,,70,87
297120,note_on,,,,,0,0,4,,,,3,,,78,67
297120,note_on,,,,,0,0,4,,,,3,,,85,83
297480,note_on,,,,,0,0,2,,,,1,,,73,91
297480,note_off,,,,,360,0,2,,,,1,,,70,64
297590,note_off,,,,,470,0,4,,,,3,,,90,64
297590,note_off,,,,,0,0,4,,,,3,,,85,64
297590,note_off,,,,,0,0,4,,,,3,,,78,64
297590,note_off,,,,,110,0,2,,,,1,,,66,64
297590,note_off,,,,,0,0,2,,,,1,,,73,64
297600,note_on,,,,,10,0,2,,,,1,,,66,73
297600,note_on,,,,,10,0,4,,,,3,,,87,87
297720,note_off,,,,,120,0,4,,,,3,,,87,64
297720,note_off,,,,,120,0,2,,,,1,,,66,64
297720,note_on,,,,,0,0,4,,,,3,,,97,91
297840,note_on,,,,,0,0,4,,,,3,,,83,93
297840,note_off,,,,,120,0,4,,,,3,,,97,64
297840,note_on,,,,,0,0,2,,,,1,,,71,73
297840,note_on,,,,,120,0,2,,,,1,,,75,73
297960,note_off,,,,,0,0,2,,,,1,,,71,64
297960,note_on,,,,,0,0,4,,,,3,,,97,79
297960,note_off,,,,,120,0,4,,,,3,,,83,64
297960,note_off,,,,,120,0,2,,,,1,,,75,64
298080,note_on,,,,,0,0,4,,,,3,,,82,75
298080,note_on,,,,,120,0,2,,,,1,,,61,51
298080,note_off,,,,,120,0,4,,,,3,,,97,64
298200,note_off,,,,,120,0,4,,,,3,,,82,64
298200,note_off,,,,,120,0,2,,,,1,,,61,64
298200,note_on,,,,,0,0,4,,,,3,,,97,77
298320,note_on,,,,,0,0,2,,,,1,,,75,67
298320,note_on,,,,,0,0,4,,,,3,,,83,87
298320,note_off,,,,,120,0,4,,,,3,,,97,64
298320,note_on,,,,,120,0,2,,,,1,,,78,75
298440,note_off,,,,,120,0,4,,,,3,,,83,64
298440,note_off,,,,,120,0,2,,,,1,,,78,64
298440,note_off,,,,,0,0,2,,,,1,,,75,64
298440,note_on,,,,,0,0,4,,,,3,,,97,87
298560,note_on,,,,,120,0,2,,,,1,,,66,73
298560,note_on,,,,,0,0,4,,,,3,,,87,79
298560,note_off,,,,,120,0,4,,,,3,,,97,64
298680,note_off,,,,,120,0,2,,,,1,,,66,64
298680,note_off,,,,,120,0,4,,,,3,,,87,64
298680,note_on,,,,,0,0,4,,,,3,,,97,87
298800,note_off,,,,,120,0,4,,,,3,,,97,64
298800,note_on,,,,,120,0,2,,,,1,,,75,67
298800,note_on,,,,,0,0,4,,,,3,,,83,77
298800,note_on,,,,,0,0,2,,,,1,,,71,71
298920,note_on,,,,,0,0,4,,,,3,,,97,79
298920,note_off,,,,,120,0,4,,,,3,,,83,64
298920,note_off,,,,,0,0,2,,,,1,,,71,64
298920,note_off,,,,,120,0,2,,,,1,,,75,64
299040,note_on,,,,,120,0,2,,,,1,,,71,75
299040,note_off,,,,,120,0,4,,,,3,,,97,64
299040,note_on,,,,,0,0,4,,,,3,,,90,73
299160,note_on,,,,,0,0,4,,,,3,,,97,87
299160,note_off,,,,,120,0,2,,,,1,,,71,64
299160,note_off,,,,,120,0,4,,,,3,,,90,64
299280,note_on,,,,,0,0,4,,,,3,,,87,71
299280,note_on,,,,,120,0,2,,,,1,,,78,75
299280,note_on,,,,,0,0,2,,,,1,,,75,77
299280,note_off,,,,,120,0,4,,,,3,,,97,64
299400,note_off,,,,,120,0,2,,,,1,,,78,64
299400,note_off,,,,,0,0,2,,,,1,,,75,64
299400,note_on,,,,,0,0,4,,,,3,,,97,79
299400,note_off,,,,,120,0,4,,,,3,,,87,64
299520,note_on,,,,,0,0,4,,,,3,,,85,87
299520,note_off,,,,,120,0,4,,,,3,,,97,64
299520,note_on,,,,,120,0,2,,,,1,,,66,75
299640,note_off,,,,,120,0,2,,,,1,,,66,64
299640,note_on,,,,,0,0,4,,,,3,,,97,87
299640,note_off,,,,,120,0,4,,,,3,,,85,64
299760,note_off,,,,,120,0,4,,,,3,,,97,64
299760,note_on,,,,,0,0,4,,,,3,,,82,77
299760,note_on,,,,,0,0,2,,,,1,,,70,91
299760,note_on,,,,,120,0,2,,,,1,,,73,75
299880,note_on,,,,,0,0,4,,,,3,,,97,87
299880,note_off,,,,,120,0,4,,,,3,,,82,64
299880,note_off,,,,,0,0,2,,,,1,,,70,64
299880,note_off,,,,,120,0,2,,,,1,,,73,64
300000,note_off,,,,,120,0,4,,,,3,,,97,64
300000,note_on,,,,,0,0,4,,,,3,,,81,79
300000,note_on,,,,,120,0,2,,,,1,,,61,67
300120,note_on,,,,,0,0,4,,,,3,,,97,91
300120,note_off,,,,,120,0,4,,,,3,,,81,64
300120,note_off,,,,,120,0,2,,,,1,,,61,64
300240,note_on,,,,,0,0,2,,,,1,,,73,61
300240,note_off,,,,,120,0,4,,,,3,,,97,64
300240,note_on,,,,,0,0,4,,,,3,,,82,77
300240,note_on,,,,,120,0,2,,,,1,,,78,59
300360,note_off,,,,,0,0,2,,,,1,,,73,64
300360,note_off,,,,,120,0,4,,,,3,,,82,64
300360,note_off,,,,,120,0,2,,,,1,,,78,64
300360,note_on,,,,,0,0,4,,,,3,,,97,79
300480,note_on,,,,,0,0,4,,,,3,,,85,79
300480,note_off,,,,,120,0,4,,,,3,,,97,64
300480,note_on,,,,,120,0,2,,,,1,,,66,67
300600,note_off,,,,,120,0,2,,,,1,,,66,64
300600,note_off,,,,,120,0,4,,,,3,,,85,64
300600,note_on,,,,,0,0,4,,,,3,,,97,77
300720,note_off,,,,,120,0,4,,,,3,,,97,64
300720,note_on,,,,,0,0,4,,,,3,,,82,75
300720,note_on,,,,,0,0,2,,,,1,,,73,71
300720,note_on,,,,,120,0,2,,,,1,,,78,65
300840,note_off,,,,,120,0,4,,,,3,,,82,64
300840,note_on,,,,,0,0,4,,,,3,,,97,91
300840,note_off,,,,,0,0,2,,,,1,,,73,64
300840,note_off,,,,,120,0,2,,,,1,,,78,64
300960,note_on,,,,,0,0,4,,,,3,,,90,77
300960,note_off,,,,,120,0,4,,,,3,,,97,64
300960,note_on,,,,,120,0,2,,,,1,,,70,73
301080,note_off,,,,,120,0,4,,,,3,,,90,64
301080,note_off,,,,,120,0,2,,,,1,,,70,64
301080,note_on,,,,,0,0,4,,,,3,,,97,77
301200,note_on,,,,,0,0,4,,,,3,,,85,79
301200,note_on,,,,,0,0,2,,,,1,,,73,69
301200,note_off,,,,,120,0,4,,,,3,,,97,64
301200,note_on,,,,,120,0,2,,,,1,,,78,71
301320,note_on,,,,,0,0,4,,,,3,,,97,83
301320,note_off,,,,,0,0,2,,,,1,,,73,64
301320,note_off,,,,,120,0,4,,,,3,,,85,64
301320,note_off,,,,,120,0,2,,,,1,,,78,64
301420,set_tempo,,,,,19180,1,0,375000,,,,,,,
301440,note_off,,,,,120,0,4,,,,3,,,97,64
301440,note_on,,,,,120,0,2,,,,1,,,66,65
301440,note_on,,,,,0,0,4,,,,3,,,87,77
301560,note_on,,,,,0,0,4,,,,3,,,97,83
301560,note_off,,,,,120,0,4,,,,3,,,87,64
301560,note_off,,,,,120,0,2,,,,1,,,66,64
301680,note_on,,,,,0,0,4,,,,3,,,83,87
301680,note_on,,,,,120,0,2,,,,1,,,75,75
301680,note_on,,,,,0,0,2,,,,1,,,71,59
301680,note_off,,,,,120,0,4,,,,3,,,97,64
301800,note_on,,,,,0,0,4,,,,3,,,97,73
301800,note_off,,,,,120,0,4,,,,3,,,83,64
301800,note_off,,,,,0,0,2,,,,1,,,71,64
301800,note_off,,,,,120,0,2,,,,1,,,75,64
301920,note_on,,,,,120,0,2,,,,1,,,61,73
301920,note_off,,,,,120,0,4,,,,3,,,97,64
301920,note_on,,,,,0,0,4,,,,3,,,82,75
302040,note_off,,,,,120,0,4,,,,3,,,82,64
302040,note_off,,,,,120,0,2,,,,1,,,61,64
302040,note_on,,,,,0,0,4,,,,3,,,97,75
302160,note_off,,,,,120,0,4,,,,3,,,97,64
302160,note_on,,,,,0,0,2,,,,1,,,75,75
302160,note_on,,,,,120,0,2,,,,1,,,78,65
302160,note_on,,,,,0,0,4,,,,3,,,83,87
302280,note_off,,,,,120,0,2,,,,1,,,78,64
302280,note_on,,,,,0,0,4,,,,3,,,97,83
302280,note_off,,,,,120,0,4,,,,3,,,83,64
302280,note_off,,,,,0,0,2,,,,1,,,75,64
302400,note_on,,,,,120,0,2,,,,1,,,66,69
302400,note_on,,,,,0,0,4,,,,3,,,87,77
302400,note_off,,,,,120,0,4,,,,3,,,97,64
302520,note_off,,,,,120,0,2,,,,1,,,66,64
302520,note_off,,,,,120,0,4,,,,3,,,87,64
302520,note_on,,,,,0,0,4,,,,3,,,97,63
302640,note_on,,,,,120,0,2,,,,1,,,78,75
302640,note_on,,,,,0,0,2,,,,1,,,75,75
302640,note_off,,,,,120,0,4,,,,3,,,97,64
302640,note_on,,,,,0,0,4,,,,3,,,85,73
302760,note_off,,,,,0,0,2,,,,1,,,75,64
302760,note_off,,,,,120,0,2,,,,1,,,78,64
302760,note_off,,,,,120,0,4,,,,3,,,85,64
302760,note_on,,,,,0,0,4,,,,3,,,97,65
302880,note_on,,,,,0,0,4,,,,3,,,90,75
302880,note_on,,,,,120,0,2,,,,1,,,71,63
302880,note_off,,,,,120,0,4,,,,3,,,97,64
303000,note_on,,,,,0,0,4,,,,3,,,97,87
303000,note_off,,,,,120,0,2,,,,1,,,71,64
303000,note_off,,,,,120,0,4,,,,3,,,90,64
303120,note_on,,,,,0,0,4,,,,3,,,87,87
303120,note_off,,,,,120,0,4,,,,3,,,97,64
303120,note_on,,,,,120,0,2,,,,1,,,78,73
303120,note_on,,,,,0,0,2,,,,1,,,75,71
303240,note_off,,,,,0,0,2,,,,1,,,75,64
303240,note_on,,,,,0,0,4,,,,3,,,97,83
303240,note_off,,,,,120,0,2,,,,1,,,78,64
303240,note_off,,,,,120,0,4,,,,3,,,87,64
303360,note_on,,,,,0,0,4,,,,3,,,85,77
303360,note_on,,,,,120,0,2,,,,1,,,66,77
303360,note_off,,,,,120,0,4,,,,3,,,97,64
303480,note_on,,,,,0,0,4,,,,3,,,97,87
303480,note_off,,,,,120,0,2,,,,1,,,66,64
303480,note_off,,,,,120,0,4,,,,3,,,85,64
303600,note_on,,,,,0,0,2,,,,1,,,70,77
303600,note_on,,,,,120,0,2,,,,1,,,73,73
303600,note_off,,,,,120,0,4,,,,3,,,97,64
303600,note_on,,,,,0,0,4,,,,3,,,82,79
303720,note_on,,,,,0,0,4,,,,3,,,97,83
303720,note_off,,,,,0,0,2,,,,1,,,70,64
303720,note_off,,,,,120,0,4,,,,3,,,82,64
303720,note_off,,,,,120,0,2,,,,1,,,73,64
303840,note_off,,,,,120,0,4,,,,3,,,97,64
303840,note_on,,,,,120,0,2,,,,1,,,61,59
303840,note_on,,,,,0,0,4,,,,3,,,81,87
303960,note_on,,,,,0,0,4,,,,3,,,97,83
303960,note_off,,,,,120,0,4,,,,3,,,81,64
303960,note_off,,,,,120,0,2,,,,1,,,61,64
304080,note_off,,,,,120,0,4,,,,3,,,97,64
304080,note_on,,,,,120,0,2,,,,1,,,78,75
304080,note_on,,,,,0,0,4,,,,3,,,82,79
304080,note_on,,,,,0,0,2,,,,1,,,73,73
304200,note_off,,,,,120,0,4,,,,3,,,82,64
304200,note_off,,,,,120,0,2,,,,1,,,78,64
304200,note_on,,,,,0,0,4,,,,3,,,97,77
304200,note_off,,,,,0,0,2,,,,1,,,73,64
304320,note_on,,,,,0,0,4,,,,3,,,85,87
304320,note_on,,,,,120,0,2,,,,1,,,66,69
304320,note_off,,,,,120,0,4,,,,3,,,97,64
304440,note_on,,,,,0,0,4,,,,3,,,97,83
304440,note_off,,,,,120,0,2,,,,1,,,66,64
304440,note_off,,,,,120,0,4,,,,3,,,85,64
304560,note_off,,,,,120,0,4,,,,3,,,97,64
304560,note_on,,,,,120,0,2,,,,1,,,78,83
304560,note_on,,,,,0,0,2,,,,1,,,73,77
304560,note_on,,,,,0,0,4,,,,3,,,82,77
304680,note_off,,,,,120,0,4,,,,3,,,82,64
304680,note_off,,,,,120,0,2,,,,1,,,78,64
304680,note_on,,,,,0,0,4,,,,3,,,97,91
304680,note_off,,,,,0,0,2,,,,1,,,73,64
304800,note_off,,,,,120,0,4,,,,3,,,97,64
304800,note_on,,,,,120,0,2,,,,1,,,70,75
304800,note_on,,,,,0,0,4,,,,3,,,90,83
304920,note_off,,,,,120,0,4,,,,3,,,90,64
304920,note_off,,,,,120,0,2,,,,1,,,70,64
304920,note_on,,,,,0,0,4,,,,3,,,97,93
305040,note_on,,,,,120,0,2,,,,1,,,78,75
305040,note_on,,,,,0,0,2,,,,1,,,73,71
305040,note_off,,,,,120,0,4,,,,3,,,97,64
305160,note_off,,,,,0,0,2,,,,1,,,73,64
305160,note_off,,,,,120,0,2,,,,1,,,78,64
305280,note_on,,,,,23050,0,1,,,,0,,,49,91
305280,note_on,,,,,120,0,2,,,,1,,,56,47
305400,note_off,,,,,120,0,2,,,,1,,,56,64
305400,note_off,,,,,120,0,1,,,,0,,,49,64
305520,note_on,,,,,120,0,2,,,,1,,,71,53
305520,note_on,,,,,0,0,2,,,,1,,,65,29
305520,note_on,,,,,120,0,1,,,,0,,,51,73
305640,note_off,,,,,120,0,2,,,,1,,,71,64
305640,note_off,,,,,0,0,2,,,,1,,,65,64
305640,note_off,,,,,120,0,1,,,,0,,,51,64
305760,note_on,,,,,120,0,2,,,,1,,,61,55
305760,note_on,,,,,120,0,1,,,,0,,,53,83
305880,note_off,,,,,120,0,1,,,,0,,,53,64
305880,note_off,,,,,120,0,2,,,,1,,,61,64
306000,note_on,,,,,0,0,2,,,,1,,,65,37
306000,note_on,,,,,120,0,2,,,,1,,,71,67
306000,note_on,,,,,120,0,1,,,,0,,,54,87
306120,note_off,,,,,120,0,2,,,,1,,,71,64
306120,note_off,,,,,120,0,1,,,,0,,,54,64
306120,note_off,,,,,0,0,2,,,,1,,,65,64
306240,note_on,,,,,120,0,1,,,,0,,,58,77
306270,note_off,,,,,30,0,1,,,,0,,,58,64
306270,note_on,,,,,0,0,1,,,,0,,,56,79
306360,note_off,,,,,90,0,1,,,,0,,,56,64
306480,note_on,,,,,0,0,2,,,,1,,,65,41
306480,note_on,,,,,360,0,2,,,,1,,,71,63
306480,note_on,,,,,120,0,1,,,,0,,,55,83
306600,note_off,,,,,120,0,1,,,,0,,,55,64
306600,note_off,,,,,0,0,2,,,,1,,,65,64
306600,note_off,,,,,120,0,2,,,,1,,,71,64
306720,note_on,,,,,120,0,1,,,,0,,,56,91
306720,note_on,,,,,120,0,2,,,,1,,,61,61
306840,note_off,,,,,120,0,1,,,,0,,,56,64
306840,note_off,,,,,120,0,2,,,,1,,,61,64
306960,note_on,,,,,0,0,2,,,,1,,,65,37
306960,note_on,,,,,120,0,1,,,,0,,,53,67
306960,note_on,,,,,120,0,2,,,,1,,,71,59
307080,note_off,,,,,0,0,2,,,,1,,,65,64
307080,note_off,,,,,120,0,2,,,,1,,,71,64
307080,note_off,,,,,120,0,1,,,,0,,,53,64
307200,note_on,,,,,120,0,1,,,,0,,,54,79
307200,note_on,,,,,120,0,2,,,,1,,,58,51
307320,note_off,,,,,120,0,1,,,,0,,,54,64
307440,note_off,,,,,240,0,2,,,,1,,,58,64
307440,note_on,,,,,0,0,2,,,,1,,,66,55
307440,note_on,,,,,0,0,2,,,,1,,,70,53
307440,note_on,,,,,120,0,1,,,,0,,,56,67
307560,note_off,,,,,120,0,1,,,,0,,,56,64
307680,note_off,,,,,240,0,2,,,,1,,,70,64
307680,note_off,,,,,0,0,2,,,,1,,,66,64
307680,note_on,,,,,120,0,1,,,,0,,,58,79
307680,note_on,,,,,0,0,2,,,,1,,,61,47
307800,note_off,,,,,120,0,1,,,,0,,,58,64
307920,note_on,,,,,0,0,2,,,,1,,,70,49
307920,note_on,,,,,0,0,2,,,,1,,,66,57
307920,note_on,,,,,120,0,1,,,,0,,,59,75
307920,note_off,,,,,240,0,2,,,,1,,,61,64
308040,note_off,,,,,120,0,1,,,,0,,,59,64
308160,note_on,,,,,120,0,1,,,,0,,,63,65
308160,note_off,,,,,240,0,2,,,,1,,,70,64
308160,note_off,,,,,0,0,2,,,,1,,,66,64
308160,note_on,,,,,0,0,2,,,,1,,,58,61
308190,note_off,,,,,30,0,1,,,,0,,,63,64
308190,note_on,,,,,0,0,1,,,,0,,,61,77
308280,note_off,,,,,90,0,1,,,,0,,,61,64
308400,note_on,,,,,0,0,2,,,,1,,,66,57
308400,note_off,,,,,240,0,2,,,,1,,,58,64
308400,note_on,,,,,120,0,1,,,,0,,,60,65
308400,note_on,,,,,0,0,2,,,,1,,,70,47
308520,note_off,,,,,120,0,1,,,,0,,,60,64
308640,note_off,,,,,0,0,2,,,,1,,,66,64
308640,note_on,,,,,120,0,1,,,,0,,,61,79
308640,note_off,,,,,240,0,2,,,,1,,,70,64
308760,note_off,,,,,120,0,1,,,,0,,,61,64
308880,note_on,,,,,0,0,2,,,,1,,,66,49
308880,note_on,,,,,120,0,1,,,,0,,,58,71
308880,note_on,,,,,240,0,2,,,,1,,,70,53
309000,note_off,,,,,120,0,1,,,,0,,,58,64
309120,note_on,,,,,120,0,1,,,,0,,,59,73
309120,set_tempo,,,,,7700,1,0,377358,,,,,,,
309120,note_off,,,,,0,0,2,,,,1,,,66,64
309120,note_off,,,,,240,0,2,,,,1,,,70,64
309120,note_on,,,,,0,0,2,,,,1,,,56,59
309240,note_off,,,,,120,0,1,,,,0,,,59,64
309360,note_off,,,,,240,0,2,,,,1,,,56,64
309360,note_on,,,,,120,0,1,,,,0,,,62,65
309360,note_on,,,,,0,0,2,,,,1,,,71,67
309360,note_on,,,,,0,0,2,,,,1,,,65,51
309390,note_off,,,,,30,0,1,,,,0,,,62,64
309390,note_on,,,,,0,0,1,,,,0,,,63,71
309480,note_off,,,,,90,0,1,,,,0,,,63,64
309600,note_on,,,,,120,0,1,,,,0,,,56,75
309600,note_on,,,,,0,0,2,,,,1,,,61,61
309600,note_off,,,,,240,0,2,,,,1,,,71,64
309600,note_off,,,,,0,0,2,,,,1,,,65,64
309720,note_off,,,,,120,0,1,,,,0,,,56,64
309840,note_on,,,,,120,0,1,,,,0,,,58,51
309840,note_on,,,,,0,0,2,,,,1,,,65,43
309840,note_on,,,,,0,0,2,,,,1,,,71,65
309840,note_off,,,,,240,0,2,,,,1,,,61,64
309870,note_off,,,,,30,0,1,,,,0,,,58,64
309870,note_on,,,,,0,0,1,,,,0,,,59,69
309960,note_off,,,,,90,0,1,,,,0,,,59,64
310080,note_off,,,,,0,0,2,,,,1,,,65,64
310080,note_on,,,,,120,0,1,,,,0,,,53,71
310080,note_off,,,,,240,0,2,,,,1,,,71,64
310080,note_on,,,,,0,0,2,,,,1,,,56,59
310100,set_tempo,,,,,980,1,0,382165,,,,,,,
310200,note_off,,,,,120,0,1,,,,0,,,53,64
310320,note_on,,,,,120,0,1,,,,0,,,55,69
310320,note_on,,,,,0,0,2,,,,1,,,65,51
310320,note_off,,,,,240,0,2,,,,1,,,56,64
310320,note_on,,,,,0,0,2,,,,1,,,71,67
310350,note_off,,,,,30,0,1,,,,0,,,55,64
310350,note_on,,,,,0,0,1,,,,0,,,56,75
310440,note_off,,,,,90,0,1,,,,0,,,56,64
310560,note_on,,,,,120,0,1,,,,0,,,49,65
310560,note_off,,,,,0,0,2,,,,1,,,65,64
310560,note_off,,,,,240,0,2,,,,1,,,71,64
310560,note_on,,,,,0,0,2,,,,1,,,61,59
310680,note_off,,,,,120,0,1,,,,0,,,49,64
310800,note_on,,,,,0,0,2,,,,1,,,71,67
310800,note_on,,,,,120,0,1,,,,0,,,52,49
310800,note_on,,,,,0,0,2,,,,1,,,65,47
310800,note_off,,,,,240,0,2,,,,1,,,61,64
310830,note_off,,,,,30,0,1,,,,0,,,52,64
310830,note_on,,,,,0,0,1,,,,0,,,53,49
310920,note_off,,,,,90,0,1,,,,0,,,53,64
311040,note_on,,,,,0,0,2,,,,1,,,58,57
311040,note_off,,,,,240,0,2,,,,1,,,71,64
311040,note_on,,,,,120,0,1,,,,0,,,54,77
311040,note_off,,,,,0,0,2,,,,1,,,65,64
311070,set_tempo,,,,,970,1,0,384615,,,,,,,
311160,note_off,,,,,120,0,1,,,,0,,,54,64
311280,note_on,,,,,0,0,2,,,,1,,,66,61
311280,note_off,,,,,240,0,2,,,,1,,,58,64
311280,note_on,,,,,120,0,1,,,,0,,,57,75
311280,note_on,,,,,0,0,2,,,,1,,,70,57
311310,note_off,,,,,30,0,1,,,,0,,,57,64
311310,note_on,,,,,0,0,1,,,,0,,,58,63
311400,note_off,,,,,90,0,1,,,,0,,,58,64
311520,note_on,,,,,0,0,2,,,,1,,,61,63
311520,note_on,,,,,120,0,1,,,,0,,,49,71
311520,note_off,,,,,240,0,2,,,,1,,,70,64
311520,note_off,,,,,0,0,2,,,,1,,,66,64
311640,note_off,,,,,120,0,1,,,,0,,,49,64
311760,note_off,,,,,240,0,2,,,,1,,,61,64
311760,note_on,,,,,120,0,1,,,,0,,,53,61
311760,note_on,,,,,0,0,2,,,,1,,,70,57
311760,note_on,,,,,0,0,2,,,,1,,,66,65
311790,note_off,,,,,30,0,1,,,,0,,,53,64
311790,note_on,,,,,0,0,1,,,,0,,,54,75
311880,note_off,,,,,90,0,1,,,,0,,,54,64
312000,note_off,,,,,240,0,2,,,,1,,,70,64
312000,note_on,,,,,0,0,2,,,,1,,,58,59
312000,note_off,,,,,0,0,2,,,,1,,,66,64
312000,note_on,,,,,120,0,1,,,,0,,,46,67
312120,note_off,,,,,120,0,1,,,,0,,,46,64
312240,note_on,,,,,120,0,1,,,,0,,,48,69
312240,note_on,,,,,0,0,2,,,,1,,,66,59
312240,note_off,,,,,240,0,2,,,,1,,,58,64
312240,note_on,,,,,0,0,2,,,,1,,,70,47
312270,note_off,,,,,30,0,1,,,,0,,,48,64
312270,note_on,,,,,0,0,1,,,,0,,,49,65
312360,note_off,,,,,90,0,1,,,,0,,,49,64
312480,note_on,,,,,0,0,2,,,,1,,,61,65
312480,note_off,,,,,0,0,2,,,,1,,,66,64
312480,note_off,,,,,240,0,2,,,,1,,,70,64
312480,note_on,,,,,120,0,1,,,,0,,,42,79
312600,note_off,,,,,120,0,1,,,,0,,,42,64
312720,note_on,,,,,0,0,2,,,,1,,,66,59
312720,note_on,,,,,0,0,2,,,,1,,,70,61
312720,note_off,,,,,240,0,2,,,,1,,,61,64
312950,note_off,,,,,230,0,2,,,,1,,,70,64
312950,note_off,,,,,0,0,2,,,,1,,,66,64
312960,note_on,,,,,10,0,2,,,,1,,,56,83
312960,note_on,,,,,0,0,1,,,,0,,,73,87
312960,note_on,,,,,360,0,1,,,,0,,,61,91
313200,note_off,,,,,240,0,2,,,,1,,,56,64
313200,note_off,,,,,240,0,1,,,,0,,,61,64
313200,note_on,,,,,0,0,1,,,,0,,,75,79
313200,note_on,,,,,0,0,1,,,,0,,,63,79
313200,note_on,,,,,0,0,2,,,,1,,,65,91
313200,note_off,,,,,0,0,1,,,,0,,,73,64
313200,note_on,,,,,0,0,2,,,,1,,,59,71
313440,note_on,,,,,0,0,1,,,,0,,,77,87
313440,note_off,,,,,0,0,2,,,,1,,,59,64
313440,note_off,,,,,0,0,1,,,,0,,,75,64
313440,note_off,,,,,240,0,2,,,,1,,,65,64
313440,note_off,,,,,240,0,1,,,,0,,,63,64
313440,note_on,,,,,0,0,2,,,,1,,,49,71
313440,note_on,,,,,0,0,1,,,,0,,,65,91
313680,note_on,,,,,0,0,2,,,,1,,,59,75
313680,note_on,,,,,0,0,2,,,,1,,,61,87
313680,note_on,,,,,0,0,1,,,,0,,,66,83
313680,note_off,,,,,240,0,1,,,,0,,,65,64
313680,note_off,,,,,0,0,1,,,,0,,,77,64
313680,note_off,,,,,240,0,2,,,,1,,,49,64
313680,note_on,,,,,0,0,1,,,,0,,,78,99
313920,note_on,,,,,0,0,1,,,,0,,,82,87
313920,note_on,,,,,0,0,2,,,,1,,,56,87
313920,note_off,,,,,240,0,1,,,,0,,,66,64
313920,note_off,,,,,0,0,1,,,,0,,,78,64
313920,note_off,,,,,240,0,2,,,,1,,,61,64
313920,note_off,,,,,0,0,2,,,,1,,,59,64
313950,note_on,,,,,0,0,1,,,,0,,,68,65
313950,note_off,,,,,30,0,1,,,,0,,,82,64
313950,note_on,,,,,0,0,1,,,,0,,,80,95
314160,note_off,,,,,0,0,1,,,,0,,,80,64
314160,note_off,,,,,240,0,2,,,,1,,,56,64
314160,note_on,,,,,0,0,2,,,,1,,,59,83
314160,note_off,,,,,210,0,1,,,,0,,,68,64
314160,note_on,,,,,0,0,2,,,,1,,,65,83
314160,note_on,,,,,0,0,1,,,,0,,,79,91
314160,note_on,,,,,0,0,1,,,,0,,,67,71
314400,note_off,,,,,240,0,1,,,,0,,,79,64
314400,note_off,,,,,240,0,2,,,,1,,,65,64
314400,note_on,,,,,0,0,1,,,,0,,,68,87
314400,note_off,,,,,0,0,2,,,,1,,,59,64
314400,note_on,,,,,0,0,1,,,,0,,,80,79
314400,note_off,,,,,0,0,1,,,,0,,,67,64
314400,note_on,,,,,0,0,2,,,,1,,,49,75
314640,note_on,,,,,0,0,2,,,,1,,,61,87
314640,note_off,,,,,240,0,1,,,,0,,,80,64
314640,note_on,,,,,0,0,2,,,,1,,,59,83
314640,note_off,,,,,240,0,2,,,,1,,,49,64
314640,note_on,,,,,0,0,1,,,,0,,,77,85
314640,note_on,,,,,0,0,1,,,,0,,,65,73
314640,note_off,,,,,0,0,1,,,,0,,,68,64
314880,note_on,,,,,0,0,1,,,,0,,,78,91
314880,note_on,,,,,0,0,1,,,,0,,,66,63
314880,note_on,,,,,0,0,2,,,,1,,,54,91
314880,note_off,,,,,0,0,2,,,,1,,,59,64
314880,note_off,,,,,240,0,1,,,,0,,,77,64
314880,note_off,,,,,240,0,2,,,,1,,,61,64
314880,note_off,,,,,0,0,1,,,,0,,,65,64
315120,note_off,,,,,240,0,2,,,,1,,,54,64
315120,note_off,,,,,0,0,1,,,,0,,,66,64
315120,note_off,,,,,240,0,1,,,,0,,,78,64
315120,note_on,,,,,0,0,1,,,,0,,,68,79
315120,note_on,,,,,0,0,1,,,,0,,,80,81
315120,note_on,,,,,0,0,2,,,,1,,,66,83
315120,note_on,,,,,0,0,2,,,,1,,,58,71
315360,note_on,,,,,0,0,1,,,,0,,,70,87
315360,note_off,,,,,240,0,2,,,,1,,,66,64
315360,note_off,,,,,240,0,1,,,,0,,,80,64
315360,note_off,,,,,0,0,2,,,,1,,,58,64
315360,note_off,,,,,0,0,1,,,,0,,,68,64
315360,note_on,,,,,0,0,2,,,,1,,,49,87
315360,note_on,,,,,0,0,1,,,,0,,,82,85
315600,note_on,,,,,0,0,1,,,,0,,,71,91
315600,note_on,,,,,0,0,1,,,,0,,,83,83
315600,note_on,,,,,0,0,2,,,,1,,,58,69
315600,note_off,,,,,240,0,1,,,,0,,,82,64
315600,note_on,,,,,0,0,2,,,,1,,,61,93
315600,note_off,,,,,0,0,1,,,,0,,,70,64
315600,note_off,,,,,240,0,2,,,,1,,,49,64
315840,note_off,,,,,240,0,1,,,,0,,,83,64
315840,note_on,,,,,0,0,1,,,,0,,,87,91
315840,note_on,,,,,0,0,2,,,,1,,,54,83
315840,note_off,,,,,0,0,1,,,,0,,,71,64
315840,note_off,,,,,0,0,2,,,,1,,,58,64
315840,note_off,,,,,240,0,2,,,,1,,,61,64
315870,note_on,,,,,0,0,1,,,,0,,,85,87
315870,note_on,,,,,0,0,1,,,,0,,,73,85
315870,note_off,,,,,30,0,1,,,,0,,,87,64
316080,note_on,,,,,0,0,1,,,,0,,,84,91
316080,note_on,,,,,0,0,1,,,,0,,,72,83
316080,note_off,,,,,240,0,2,,,,1,,,54,64
316080,note_off,,,,,210,0,1,,,,0,,,73,64
316080,note_on,,,,,0,0,2,,,,1,,,58,75
316080,note_on,,,,,0,0,2,,,,1,,,66,93
316080,note_off,,,,,0,0,1,,,,0,,,85,64
316320,note_off,,,,,0,0,2,,,,1,,,58,64
316320,note_off,,,,,240,0,2,,,,1,,,66,64
316320,note_off,,,,,0,0,1,,,,0,,,84,64
316320,note_on,,,,,0,0,2,,,,1,,,49,83
316320,note_off,,,,,240,0,1,,,,0,,,72,64
316320,note_on,,,,,0,0,1,,,,0,,,73,77
316320,note_on,,,,,0,0,1,,,,0,,,85,91
316560,note_off,,,,,0,0,1,,,,0,,,85,64
316560,note_on,,,,,0,0,2,,,,1,,,58,69
316560,note_on,,,,,0,0,2,,,,1,,,61,91
316560,note_on,,,,,0,0,1,,,,0,,,70,81
316560,note_off,,,,,240,0,1,,,,0,,,73,64
316560,note_on,,,,,0,0,1,,,,0,,,82,99
316560,note_off,,,,,240,0,2,,,,1,,,49,64
316800,note_on,,,,,0,0,1,,,,0,,,75,75
316800,note_on,,,,,0,0,1,,,,0,,,83,95
316800,note_off,,,,,0,0,1,,,,0,,,70,64
316800,note_off,,,,,0,0,2,,,,1,,,58,64
316800,note_on,,,,,0,0,2,,,,1,,,56,87
316800,note_off,,,,,240,0,1,,,,0,,,82,64
316800,note_off,,,,,240,0,2,,,,1,,,61,64
317040,note_off,,,,,240,0,2,,,,1,,,56,64
317040,note_on,,,,,0,0,1,,,,0,,,86,95
317040,note_off,,,,,240,0,1,,,,0,,,83,64
317040,note_on,,,,,0,0,2,,,,1,,,59,83
317040,note_on,,,,,0,0,2,,,,1,,,65,93
317040,note_off,,,,,0,0,1,,,,0,,,75,64
317070,note_off,,,,,30,0,1,,,,0,,,86,64
317070,note_on,,,,,0,0,1,,,,0,,,87,83
317160,note_off,,,,,90,0,1,,,,0,,,87,64
317280,note_off,,,,,0,0,2,,,,1,,,59,64
317280,note_on,,,,,0,0,1,,,,0,,,71,77
317280,note_on,,,,,0,0,2,,,,1,,,49,83
317280,note_on,,,,,120,0,1,,,,0,,,80,87
317280,note_off,,,,,240,0,2,,,,1,,,65,64
317520,note_on,,,,,0,0,2,,,,1,,,61,87
317520,note_on,,,,,0,0,2,,,,1,,,59,83
317520,note_off,,,,,0,0,1,,,,0,,,71,64
317520,note_off,,,,,240,0,1,,,,0,,,80,64
317520,note_on,,,,,0,0,1,,,,0,,,82,85
317520,note_off,,,,,240,0,2,,,,1,,,49,64
317550,note_off,,,,,30,0,1,,,,0,,,82,64
317550,note_on,,,,,0,0,1,,,,0,,,83,91
317750,note_off,,,,,200,0,1,,,,0,,,83,64
317760,note_off,,,,,240,0,2,,,,1,,,61,64
317760,note_off,,,,,0,0,2,,,,1,,,59,64
317760,note_on,,,,,10,0,1,,,,0,,,77,87
317760,note_on,,,,,0,0,1,,,,0,,,68,81
317760,note_on,,,,,0,0,2,,,,1,,,56,93
318000,note_on,,,,,0,0,2,,,,1,,,65,91
318000,note_on,,,,,0,0,2,,,,1,,,59,79
318000,note_off,,,,,0,0,1,,,,0,,,68,64
318000,note_off,,,,,240,0,2,,,,1,,,56,64
318000,note_off,,,,,240,0,1,,,,0,,,77,64
318000,note_on,,,,,0,0,1,,,,0,,,79,87
318030,note_off,,,,,30,0,1,,,,0,,,79,64
318030,note_on,,,,,0,0,1,,,,0,,,80,83
318240,note_off,,,,,0,0,2,,,,1,,,59,64
318240,note_on,,,,,0,0,2,,,,1,,,49,91
318240,note_off,,,,,210,0,1,,,,0,,,80,64
318240,note_on,,,,,0,0,1,,,,0,,,65,81
318240,note_on,,,,,0,0,1,,,,0,,,73,87
318240,note_off,,,,,240,0,2,,,,1,,,65,64
318480,note_on,,,,,0,0,2,,,,1,,,61,79
318480,note_off,,,,,240,0,1,,,,0,,,73,64
318480,note_on,,,,,0,0,1,,,,0,,,76,87
318480,note_on,,,,,0,0,2,,,,1,,,59,75
318480,note_off,,,,,240,0,2,,,,1,,,49,64
318480,note_off,,,,,0,0,1,,,,0,,,65,64
318510,note_off,,,,,30,0,1,,,,0,,,76,64
318510,note_on,,,,,0,0,1,,,,0,,,77,91
318720,note_off,,,,,0,0,2,,,,1,,,59,64
318720,note_off,,,,,240,0,2,,,,1,,,61,64
318720,note_on,,,,,0,0,2,,,,1,,,54,91
318720,note_off,,,,,210,0,1,,,,0,,,77,64
318720,note_on,,,,,0,0,1,,,,0,,,70,79
318720,note_on,,,,,0,0,1,,,,0,,,78,91
318960,note_off,,,,,240,0,2,,,,1,,,54,64
318960,note_off,,,,,240,0,1,,,,0,,,78,64
318960,note_on,,,,,0,0,2,,,,1,,,66,91
318960,note_on,,,,,0,0,2,,,,1,,,58,71
318960,note_off,,,,,0,0,1,,,,0,,,70,64
318960,note_on,,,,,0,0,1,,,,0,,,81,87
318990,note_on,,,,,0,0,1,,,,0,,,82,91
318990,note_off,,,,,30,0,1,,,,0,,,81,64
319200,note_on,,,,,0,0,1,,,,0,,,66,65
319200,note_on,,,,,0,0,1,,,,0,,,73,83
319200,note_on,,,,,0,0,2,,,,1,,,49,87
319200,note_off,,,,,240,0,2,,,,1,,,66,64
319200,note_off,,,,,0,0,2,,,,1,,,58,64
319200,note_off,,,,,210,0,1,,,,0,,,82,64
319440,note_on,,,,,0,0,1,,,,0,,,77,95
319440,note_on,,,,,0,0,2,,,,1,,,58,71
319440,note_off,,,,,240,0,2,,,,1,,,49,64
319440,note_on,,,,,0,0,2,,,,1,,,61,97
319440,note_off,,,,,240,0,1,,,,0,,,73,64
319440,note_off,,,,,0,0,1,,,,0,,,66,64
319470,note_on,,,,,0,0,1,,,,0,,,78,91
319470,note_off,,,,,30,0,1,,,,0,,,77,64
319680,note_off,,,,,210,0,1,,,,0,,,78,64
319680,note_off,,,,,240,0,2,,,,1,,,61,64
319680,note_off,,,,,0,0,2,,,,1,,,58,64
319680,note_on,,,,,0,0,2,,,,1,,,54,83
319680,note_on,,,,,0,0,1,,,,0,,,70,87
319680,note_on,,,,,0,0,1,,,,0,,,61,81
319920,note_on,,,,,0,0,2,,,,1,,,66,87
319920,note_on,,,,,0,0,2,,,,1,,,58,73
319920,note_off,,,,,0,0,1,,,,0,,,61,64
319920,note_on,,,,,0,0,1,,,,0,,,72,79
319920,note_off,,,,,240,0,2,,,,1,,,54,64
319920,note_off,,,,,240,0,1,,,,0,,,70,64
319950,note_off,,,,,30,0,1,,,,0,,,72,64
319950,note_on,,,,,0,0,1,,,,0,,,73,83
320160,note_on,,,,,0,0,1,,,,0,,,58,79
320160,note_on,,,,,0,0,1,,,,0,,,66,85
320160,note_off,,,,,0,0,2,,,,1,,,58,64
320160,note_on,,,,,0,0,2,,,,1,,,49,79
320160,note_off,,,,,210,0,1,,,,0,,,73,64
320160,note_off,,,,,240,0,2,,,,1,,,66,64
320400,note_on,,,,,0,0,2,,,,1,,,58,73
320400,note_on,,,,,0,0,2,,,,1,,,61,87
320400,note_off,,,,,240,0,2,,,,1,,,49,64
320630,note_off,,,,,230,0,2,,,,1,,,61,64
320630,note_off,,,,,470,0,1,,,,0,,,66,64
320630,note_off,,,,,0,0,2,,,,1,,,58,64
320630,note_off,,,,,0,0,1,,,,0,,,58,64
320640,note_on,,,,,10,0,2,,,,1,,,51,57
320640,note_on,,,,,10,0,1,,,,0,,,44,73
320760,note_off,,,,,120,0,1,,,,0,,,44,64
320880,note_on,,,,,0,0,2,,,,1,,,60,39
320880,note_on,,,,,120,0,1,,,,0,,,46,73
320880,note_on,,,,,0,0,2,,,,1,,,66,29
320880,note_off,,,,,240,0,2,,,,1,,,51,64
321000,note_off,,,,,120,0,1,,,,0,,,46,64
321120,note_on,,,,,0,0,2,,,,1,,,56,51
321120,note_on,,,,,120,0,1,,,,0,,,48,75
321120,note_off,,,,,240,0,2,,,,1,,,66,64
321120,note_off,,,,,0,0,2,,,,1,,,60,64
321240,note_off,,,,,120,0,1,,,,0,,,48,64
321360,note_on,,,,,0,0,2,,,,1,,,60,51
321360,note_off,,,,,240,0,2,,,,1,,,56,64
321360,note_on,,,,,120,0,1,,,,0,,,49,79
321360,note_on,,,,,0,0,2,,,,1,,,66,41
321480,note_off,,,,,120,0,1,,,,0,,,49,64
321600,note_off,,,,,0,0,2,,,,1,,,60,64
321600,note_on,,,,,120,0,1,,,,0,,,53,63
321600,note_off,,,,,240,0,2,,,,1,,,66,64
321630,note_on,,,,,0,0,1,,,,0,,,51,81
321630,note_off,,,,,30,0,1,,,,0,,,53,64
321720,note_off,,,,,90,0,1,,,,0,,,51,64
321840,note_on,,,,,240,0,2,,,,1,,,66,45
321840,note_on,,,,,120,0,1,,,,0,,,50,71
321840,note_on,,,,,0,0,2,,,,1,,,60,25
321960,note_off,,,,,120,0,1,,,,0,,,50,64
322080,note_off,,,,,240,0,2,,,,1,,,66,64
322080,note_on,,,,,0,0,2,,,,1,,,56,61
322080,note_off,,,,,0,0,2,,,,1,,,60,64
322080,note_on,,,,,120,0,1,,,,0,,,51,79
322200,note_off,,,,,120,0,1,,,,0,,,51,64
322320,note_on,,,,,0,0,2,,,,1,,,66,33
322320,note_on,,,,,0,0,2,,,,1,,,60,45
322320,note_on,,,,,120,0,1,,,,0,,,48,83
322320,note_off,,,,,240,0,2,,,,1,,,56,64
322440,note_off,,,,,120,0,1,,,,0,,,48,64
322560,note_off,,,,,0,0,2,,,,1,,,60,64
322560,note_on,,,,,120,0,1,,,,0,,,49,75
322560,note_on,,,,,0,0,2,,,,1,,,53,57
322560,note_off,,,,,240,0,2,,,,1,,,66,64
322680,note_off,,,,,120,0,1,,,,0,,,49,64
322800,note_on,,,,,120,0,1,,,,0,,,51,73
322800,note_on,,,,,0,0,2,,,,1,,,61,55
322800,note_on,,,,,0,0,2,,,,1,,,65,65
322800,note_off,,,,,240,0,2,,,,1,,,53,64
322920,note_off,,,,,120,0,1,,,,0,,,51,64
323040,note_on,,,,,120,0,1,,,,0,,,53,81
323040,note_off,,,,,0,0,2,,,,1,,,61,64
323040,note_off,,,,,240,0,2,,,,1,,,65,64
323040,note_on,,,,,0,0,2,,,,1,,,56,63
323160,note_off,,,,,120,0,1,,,,0,,,53,64
323280,note_on,,,,,0,0,2,,,,1,,,65,73
323280,note_off,,,,,240,0,2,,,,1,,,56,64
323280,note_on,,,,,0,0,2,,,,1,,,61,61
323280,note_on,,,,,120,0,1,,,,0,,,54,63
323400,note_off,,,,,120,0,1,,,,0,,,54,64
323520,note_on,,,,,0,0,2,,,,1,,,53,67
323520,note_off,,,,,0,0,2,,,,1,,,61,64
323520,note_on,,,,,120,0,1,,,,0,,,58,73
323520,note_off,,,,,240,0,2,,,,1,,,65,64
323550,note_off,,,,,30,0,1,,,,0,,,58,64
323550,note_on,,,,,0,0,1,,,,0,,,56,73
323630,note_off,,,,,80,0,1,,,,0,,,56,64
323760,note_off,,,,,240,0,2,,,,1,,,53,64
323760,note_on,,,,,0,0,2,,,,1,,,61,45
323760,note_on,,,,,130,0,1,,,,0,,,55,71
323760,note_on,,,,,0,0,2,,,,1,,,65,65
323880,note_off,,,,,120,0,1,,,,0,,,55,64
324000,note_off,,,,,0,0,2,,,,1,,,61,64
324000,note_off,,,,,240,0,2,,,,1,,,65,64
324000,note_on,,,,,120,0,1,,,,0,,,56,79
324120,note_off,,,,,120,0,1,,,,0,,,56,64
324240,note_on,,,,,240,0,2,,,,1,,,65,61
324240,note_on,,,,,0,0,2,,,,1,,,61,59
324240,note_on,,,,,120,0,1,,,,0,,,53,61
324360,note_off,,,,,120,0,1,,,,0,,,53,64
324480,note_on,,,,,0,0,2,,,,1,,,51,45
324480,note_on,,,,,120,0,1,,,,0,,,54,77
324480,note_off,,,,,0,0,2,,,,1,,,61,64
324480,note_off,,,,,240,0,2,,,,1,,,65,64
324600,note_off,,,,,120,0,1,,,,0,,,54,64
324720,note_on,,,,,0,0,2,,,,1,,,60,39
324720,note_on,,,,,0,0,2,,,,1,,,66,67
324720,note_off,,,,,240,0,2,,,,1,,,51,64
324720,note_on,,,,,120,0,1,,,,0,,,57,49
324750,note_off,,,,,30,0,1,,,,0,,,57,64
324750,note_on,,,,,0,0,1,,,,0,,,58,69
324840,note_off,,,,,90,0,1,,,,0,,,58,64
324960,note_on,,,,,0,0,2,,,,1,,,56,51
324960,note_off,,,,,0,0,2,,,,1,,,60,64
324960,note_on,,,,,120,0,1,,,,0,,,51,63
324960,note_off,,,,,240,0,2,,,,1,,,66,64
325080,note_off,,,,,120,0,1,,,,0,,,51,64
325200,note_on,,,,,120,0,1,,,,0,,,53,63
325200,note_off,,,,,240,0,2,,,,1,,,56,64
325200,note_on,,,,,0,0,2,,,,1,,,60,51
325200,note_on,,,,,0,0,2,,,,1,,,66,57
325230,note_off,,,,,30,0,1,,,,0,,,53,64
325230,note_on,,,,,0,0,1,,,,0,,,54,59
325320,note_off,,,,,90,0,1,,,,0,,,54,64
325440,note_on,,,,,0,0,2,,,,1,,,51,47
325440,note_off,,,,,0,0,2,,,,1,,,60,64
325440,note_off,,,,,240,0,2,,,,1,,,66,64
325440,note_on,,,,,120,0,1,,,,0,,,48,71
325560,note_off,,,,,120,0,1,,,,0,,,48,64
325680,note_on,,,,,0,0,2,,,,1,,,60,43
325680,note_on,,,,,0,0,2,,,,1,,,66,53
325680,note_on,,,,,120,0,1,,,,0,,,50,53
325680,note_off,,,,,240,0,2,,,,1,,,51,64
325710,note_on,,,,,0,0,1,,,,0,,,51,57
325710,note_off,,,,,30,0,1,,,,0,,,50,64
325800,note_off,,,,,90,0,1,,,,0,,,51,64
325920,note_off,,,,,0,0,2,,,,1,,,60,64
325920,note_on,,,,,120,0,1,,,,0,,,44,69
325920,note_off,,,,,240,0,2,,,,1,,,66,64
325920,note_on,,,,,0,0,2,,,,1,,,56,65
326040,note_off,,,,,120,0,1,,,,0,,,44,64
326160,note_on,,,,,0,0,2,,,,1,,,66,55
326160,note_on,,,,,120,0,1,,,,0,,,47,57
326160,note_on,,,,,0,0,2,,,,1,,,60,45
326160,note_off,,,,,240,0,2,,,,1,,,56,64
326190,note_on,,,,,0,0,1,,,,0,,,48,55
326190,note_off,,,,,30,0,1,,,,0,,,47,64
326280,note_off,,,,,90,0,1,,,,0,,,48,64
326400,note_on,,,,,120,0,1,,,,0,,,49,67
326400,note_off,,,,,240,0,2,,,,1,,,66,64
326400,note_off,,,,,0,0,2,,,,1,,,60,64
326400,note_on,,,,,0,0,2,,,,1,,,53,55
326520,note_off,,,,,120,0,1,,,,0,,,49,64
326640,note_off,,,,,240,0,2,,,,1,,,53,64
326640,note_on,,,,,0,0,2,,,,1,,,65,63
326640,note_on,,,,,0,0,2,,,,1,,,61,67
326640,note_on,,,,,120,0,1,,,,0,,,52,61
326670,note_off,,,,,30,0,1,,,,0,,,52,64
326670,note_on,,,,,0,0,1,,,,0,,,53,51
326760,note_off,,,,,90,0,1,,,,0,,,53,64
326880,note_off,,,,,0,0,2,,,,1,,,61,64
326880,note_on,,,,,120,0,1,,,,0,,,44,59
326880,note_off,,,,,240,0,2,,,,1,,,65,64
326880,note_on,,,,,0,0,2,,,,1,,,56,63
327000,note_off,,,,,120,0,1,,,,0,,,44,64
327120,note_off,,,,,240,0,2,,,,1,,,56,64
327120,note_on,,,,,120,0,1,,,,0,,,48,57
327120,note_on,,,,,0,0,2,,,,1,,,65,55
327120,note_on,,,,,0,0,2,,,,1,,,61,41
327150,note_on,,,,,0,0,1,,,,0,,,49,53
327150,note_off,,,,,30,0,1,,,,0,,,48,64
327240,note_off,,,,,90,0,1,,,,0,,,49,64
327360,note_off,,,,,240,0,2,,,,1,,,65,64
327360,note_on,,,,,0,0,2,,,,1,,,53,19
327360,note_on,,,,,120,0,1,,,,0,,,41,75
327360,note_off,,,,,0,0,2,,,,1,,,61,64
327480,note_off,,,,,120,0,1,,,,0,,,41,64
327600,note_on,,,,,120,0,1,,,,0,,,43,65
327600,note_on,,,,,0,0,2,,,,1,,,65,63
327600,note_on,,,,,0,0,2,,,,1,,,61,47
327600,note_off,,,,,240,0,2,,,,1,,,53,64
327630,note_off,,,,,30,0,1,,,,0,,,43,64
327630,note_on,,,,,0,0,1,,,,0,,,44,63
327720,note_off,,,,,90,0,1,,,,0,,,44,64
327840,note_off,,,,,0,0,2,,,,1,,,61,64
327840,note_on,,,,,0,0,2,,,,1,,,56,57
327840,note_on,,,,,120,0,1,,,,0,,,37,73
327840,note_off,,,,,240,0,2,,,,1,,,65,64
327960,note_off,,,,,120,0,1,,,,0,,,37,64
328080,note_off,,,,,240,0,2,,,,1,,,56,64
328080,note_on,,,,,0,0,2,,,,1,,,65,71
328080,note_on,,,,,0,0,2,,,,1,,,61,69
328310,note_off,,,,,230,0,2,,,,1,,,65,64
328310,note_off,,,,,0,0,2,,,,1,,,61,64
328320,note_on,,,,,360,0,1,,,,0,,,80,73
328320,note_on,,,,,10,0,2,,,,1,,,51,77
328320,note_on,,,,,0,0,1,,,,0,,,68,69
328320,note_on,,,,,0,0,1,,,,0,,,72,83
328560,note_on,,,,,0,0,2,,,,1,,,56,47
328560,note_on,,,,,0,0,1,,,,0,,,70,71
328560,note_on,,,,,0,0,1,,,,0,,,73,93
328560,note_off,,,,,0,0,1,,,,0,,,68,64
328560,note_off,,,,,0,0,1,,,,0,,,72,64
328560,note_off,,,,,240,0,2,,,,1,,,51,64
328560,note_off,,,,,240,0,1,,,,0,,,80,64
328560,note_on,,,,,0,0,1,,,,0,,,82,73
328560,note_on,,,,,0,0,2,,,,1,,,66,63
328560,note_on,,,,,0,0,2,,,,1,,,60,73
328800,note_off,,,,,0,0,1,,,,0,,,70,64
328800,note_off,,,,,0,0,1,,,,0,,,73,64
328800,note_off,,,,,0,0,2,,,,1,,,56,64
328800,note_off,,,,,240,0,1,,,,0,,,82,64
328800,note_off,,,,,240,0,2,,,,1,,,66,64
328800,note_on,,,,,0,0,1,,,,0,,,72,67
328800,note_on,,,,,0,0,1,,,,0,,,75,83
328800,note_on,,,,,0,0,1,,,,0,,,84,79
328800,note_off,,,,,0,0,2,,,,1,,,60,64
328800,note_on,,,,,0,0,2,,,,1,,,44,73
329040,note_off,,,,,240,0,1,,,,0,,,84,64
329040,note_on,,,,,0,0,2,,,,1,,,60,79
329040,note_on,,,,,0,0,2,,,,1,,,66,55
329040,note_on,,,,,0,0,2,,,,1,,,56,53
329040,note_off,,,,,0,0,1,,,,0,,,75,64
329040,note_off,,,,,0,0,1,,,,0,,,72,64
329040,note_on,,,,,0,0,1,,,,0,,,85,73
329040,note_on,,,,,0,0,1,,,,0,,,77,93
329040,note_on,,,,,0,0,1,,,,0,,,73,45
329040,note_off,,,,,240,0,2,,,,1,,,44,64
329280,note_off,,,,,240,0,1,,,,0,,,85,64
329280,note_on,,,,,0,0,1,,,,0,,,78,91
329280,note_on,,,,,0,0,1,,,,0,,,87,83
329280,note_on,,,,,0,0,1,,,,0,,,75,67
329280,note_on,,,,,0,0,2,,,,1,,,51,69
329280,note_off,,,,,0,0,2,,,,1,,,60,64
329280,note_off,,,,,0,0,1,,,,0,,,73,64
329280,note_off,,,,,0,0,1,,,,0,,,77,64
329280,note_off,,,,,0,0,2,,,,1,,,56,64
329280,note_off,,,,,240,0,2,,,,1,,,66,64
329520,note_off,,,,,0,0,1,,,,0,,,78,64
329520,note_on,,,,,0,0,2,,,,1,,,56,53
329520,note_off,,,,,240,0,1,,,,0,,,87,64
329520,note_off,,,,,0,0,1,,,,0,,,75,64
329520,note_on,,,,,0,0,2,,,,1,,,60,75
329520,note_on,,,,,0,0,2,,,,1,,,66,65
329520,note_on,,,,,0,0,1,,,,0,,,74,75
329520,note_on,,,,,0,0,1,,,,0,,,77,91
329520,note_on,,,,,0,0,1,,,,0,,,86,77
329520,note_off,,,,,240,0,2,,,,1,,,51,64
329760,note_on,,,,,0,0,1,,,,0,,,87,79
329760,note_off,,,,,0,0,1,,,,0,,,77,64
329760,note_off,,,,,0,0,1,,,,0,,,74,64
329760,note_on,,,,,0,0,1,,,,0,,,75,67
329760,note_off,,,,,0,0,2,,,,1,,,56,64
329760,note_off,,,,,0,0,2,,,,1,,,60,64
329760,note_off,,,,,240,0,1,,,,0,,,86,64
329760,note_off,,,,,240,0,2,,,,1,,,66,64
329760,note_on,,,,,0,0,1,,,,0,,,78,87
329760,note_on,,,,,0,0,2,,,,1,,,44,63
330000,note_on,,,,,0,0,1,,,,0,,,72,63
330000,note_off,,,,,0,0,1,,,,0,,,78,64
330000,note_off,,,,,240,0,2,,,,1,,,44,64
330000,note_off,,,,,0,0,1,,,,0,,,75,64
330000,note_on,,,,,0,0,1,,,,0,,,84,91
330000,note_on,,,,,0,0,1,,,,0,,,75,75
330000,note_on,,,,,0,0,2,,,,1,,,66,69
330000,note_on,,,,,0,0,2,,,,1,,,60,77
330000,note_on,,,,,0,0,2,,,,1,,,56,57
330000,note_off,,,,,240,0,1,,,,0,,,87,64
330240,note_on,,,,,0,0,1,,,,0,,,73,53
330240,note_on,,,,,0,0,2,,,,1,,,49,77
330240,note_on,,,,,0,0,1,,,,0,,,85,69
330240,note_off,,,,,240,0,1,,,,0,,,84,64
330240,note_off,,,,,0,0,2,,,,1,,,56,64
330240,note_on,,,,,0,0,1,,,,0,,,77,93
330240,note_off,,,,,0,0,2,,,,1,,,60,64
330240,note_off,,,,,240,0,2,,,,1,,,66,64
330240,note_off,,,,,0,0,1,,,,0,,,72,64
330240,note_off,,,,,0,0,1,,,,0,,,75,64
330480,note_off,,,,,0,0,1,,,,0,,,73,64
330480,note_off,,,,,0,0,1,,,,0,,,77,64
330480,note_off,,,,,240,0,2,,,,1,,,49,64
330480,note_on,,,,,0,0,1,,,,0,,,80,87
330480,note_on,,,,,0,0,1,,,,0,,,75,69
330480,note_on,,,,,0,0,2,,,,1,,,56,67
330480,note_on,,,,,0,0,1,,,,0,,,87,73
330480,note_on,,,,,0,0,2,,,,1,,,65,73
330480,note_off,,,,,240,0,1,,,,0,,,85,64
330480,note_on,,,,,0,0,2,,,,1,,,61,75
330720,note_off,,,,,0,0,1,,,,0,,,80,64
330720,note_on,,,,,0,0,2,,,,1,,,44,63
330720,note_off,,,,,0,0,2,,,,1,,,56,64
330720,note_off,,,,,0,0,2,,,,1,,,61,64
330720,note_on,,,,,0,0,1,,,,0,,,77,59
330720,note_off,,,,,0,0,1,,,,0,,,75,64
330720,note_off,,,,,240,0,2,,,,1,,,65,64
330720,note_on,,,,,0,0,1,,,,0,,,89,91
330720,note_on,,,,,0,0,1,,,,0,,,85,75
330720,note_off,,,,,240,0,1,,,,0,,,87,64
330960,note_on,,,,,0,0,2,,,,1,,,65,67
330960,note_off,,,,,240,0,1,,,,0,,,89,64
330960,note_off,,,,,240,0,2,,,,1,,,44,64
330960,note_on,,,,,0,0,2,,,,1,,,56,61
330960,note_on,,,,,0,0,1,,,,0,,,90,79
330960,note_on,,,,,0,0,2,,,,1,,,61,75
330960,note_on,,,,,0,0,1,,,,0,,,78,75
330960,note_off,,,,,0,0,1,,,,0,,,85,64
330960,note_off,,,,,0,0,1,,,,0,,,77,64
330960,note_on,,,,,0,0,1,,,,0,,,87,83
331200,note_off,,,,,0,0,1,,,,0,,,87,64
331200,note_off,,,,,0,0,1,,,,0,,,78,64
331200,note_on,,,,,0,0,1,,,,0,,,89,93
331200,note_on,,,,,0,0,1,,,,0,,,80,67
331200,note_off,,,,,0,0,2,,,,1,,,56,64
331200,note_off,,,,,0,0,2,,,,1,,,61,64
331200,note_on,,,,,0,0,1,,,,0,,,92,69
331200,note_on,,,,,0,0,2,,,,1,,,49,83
331200,note_off,,,,,240,0,1,,,,0,,,90,64
331200,note_off,,,,,240,0,2,,,,1,,,65,64
331440,note_on,,,,,0,0,2,,,,1,,,61,75
331440,note_off,,,,,0,0,1,,,,0,,,92,64
331440,note_off,,,,,240,0,2,,,,1,,,49,64
331440,note_on,,,,,0,0,2,,,,1,,,65,65
331440,note_on,,,,,0,0,1,,,,0,,,91,77
331440,note_on,,,,,0,0,1,,,,0,,,88,79
331440,note_off,,,,,240,0,1,,,,0,,,89,64
331440,note_on,,,,,0,0,1,,,,0,,,80,65
331440,note_on,,,,,0,0,1,,,,0,,,79,75
331440,note_on,,,,,0,0,2,,,,1,,,56,47
331680,note_on,,,,,0,0,1,,,,0,,,89,93
331680,note_on,,,,,0,0,1,,,,0,,,92,75
331680,note_on,,,,,0,0,1,,,,0,,,80,75
331680,note_off,,,,,0,0,2,,,,1,,,61,64
331680,note_off,,,,,240,0,1,,,,0,,,79,64
331680,note_off,,,,,0,0,2,,,,1,,,56,64
331680,note_off,,,,,0,0,1,,,,0,,,88,64
331680,note_on,,,,,0,0,2,,,,1,,,44,63
331680,note_off,,,,,240,0,2,,,,1,,,65,64
331680,note_off,,,,,0,0,1,,,,0,,,91,64
331920,note_on,,,,,0,0,1,,,,0,,,89,75
331920,note_on,,,,,0,0,1,,,,0,,,85,69
331920,note_on,,,,,0,0,1,,,,0,,,77,61
331920,note_off,,,,,0,0,1,,,,0,,,89,64
331920,note_on,,,,,0,0,2,,,,1,,,61,73
331920,note_on,,,,,0,0,2,,,,1,,,56,69
331920,note_off,,,,,240,0,1,,,,0,,,80,64
331920,note_off,,,,,0,0,1,,,,0,,,92,64
331920,note_off,,,,,240,0,2,,,,1,,,44,64
331920,note_on,,,,,0,0,2,,,,1,,,65,71
332160,note_off,,,,,0,0,2,,,,1,,,61,64
332160,note_off,,,,,0,0,2,,,,1,,,56,64
332160,note_on,,,,,0,0,1,,,,0,,,90,87
332160,note_off,,,,,0,0,1,,,,0,,,89,64
332160,note_off,,,,,240,0,1,,,,0,,,77,64
332160,note_off,,,,,0,0,1,,,,0,,,85,64
332160,note_on,,,,,0,0,2,,,,1,,,51,71
332160,note_off,,,,,240,0,2,,,,1,,,65,64
332160,note_on,,,,,0,0,1,,,,0,,,82,75
332400,note_on,,,,,0,0,2,,,,1,,,60,75
332400,note_on,,,,,0,0,2,,,,1,,,56,53
332400,note_off,,,,,0,0,1,,,,0,,,82,64
332400,note_off,,,,,240,0,2,,,,1,,,51,64
332400,note_off,,,,,240,0,1,,,,0,,,90,64
332400,note_on,,,,,0,0,1,,,,0,,,91,87
332400,note_on,,,,,0,0,2,,,,1,,,66,67
332430,note_on,,,,,0,0,1,,,,0,,,92,91
332430,note_off,,,,,30,0,1,,,,0,,,91,64
332520,note_off,,,,,90,0,1,,,,0,,,92,64
332640,note_on,,,,,120,0,1,,,,0,,,87,75
332640,note_off,,,,,0,0,2,,,,1,,,60,64
332640,note_off,,,,,240,0,2,,,,1,,,66,64
332640,note_on,,,,,0,0,2,,,,1,,,44,75
332640,note_off,,,,,0,0,2,,,,1,,,56,64
332640,note_on,,,,,0,0,1,,,,0,,,78,77
332880,note_on,,,,,0,0,2,,,,1,,,60,79
332880,note_off,,,,,240,0,2,,,,1,,,44,64
332880,note_on,,,,,0,0,2,,,,1,,,56,55
332880,note_off,,,,,240,0,1,,,,0,,,87,64
332880,note_off,,,,,0,0,1,,,,0,,,78,64
332880,note_on,,,,,0,0,1,,,,0,,,89,87
332880,note_on,,,,,0,0,2,,,,1,,,66,71
332910,note_off,,,,,30,0,1,,,,0,,,89,64
332910,note_on,,,,,0,0,1,,,,0,,,90,91
333000,note_off,,,,,90,0,1,,,,0,,,90,64
333120,note_on,,,,,0,0,1,,,,0,,,75,69
333120,note_off,,,,,0,0,2,,,,1,,,56,64
333120,note_off,,,,,240,0,2,,,,1,,,66,64
333120,note_on,,,,,120,0,1,,,,0,,,84,83
333120,note_off,,,,,0,0,2,,,,1,,,60,64
333120,note_on,,,,,0,0,2,,,,1,,,51,67
333360,note_on,,,,,0,0,1,,,,0,,,86,73
333360,note_off,,,,,240,0,1,,,,0,,,84,64
333360,note_off,,,,,0,0,1,,,,0,,,75,64
333360,note_on,,,,,0,0,2,,,,1,,,60,83
333360,note_on,,,,,0,0,2,,,,1,,,66,73
333360,note_on,,,,,0,0,2,,,,1,,,56,59
333360,note_off,,,,,240,0,2,,,,1,,,51,64
333390,note_on,,,,,0,0,1,,,,0,,,87,87
333390,note_off,,,,,30,0,1,,,,0,,,86,64
333480,note_off,,,,,90,0,1,,,,0,,,87,64
333600,note_on,,,,,120,0,1,,,,0,,,80,77
333600,note_on,,,,,0,0,1,,,,0,,,72,67
333600,note_off,,,,,0,0,2,,,,1,,,60,64
333600,note_off,,,,,0,0,2,,,,1,,,56,64
333600,note_off,,,,,240,0,2,,,,1,,,66,64
333600,note_on,,,,,0,0,2,,,,1,,,44,75
333840,note_on,,,,,0,0,1,,,,0,,,83,79
333840,note_on,,,,,0,0,2,,,,1,,,66,71
333840,note_on,,,,,0,0,2,,,,1,,,60,77
333840,note_off,,,,,240,0,2,,,,1,,,44,64
333840,note_on,,,,,0,0,2,,,,1,,,56,61
333840,note_off,,,,,0,0,1,,,,0,,,72,64
333840,note_off,,,,,240,0,1,,,,0,,,80,64
333870,note_off,,,,,30,0,1,,,,0,,,83,64
333870,note_on,,,,,0,0,1,,,,0,,,84,75
333960,note_off,,,,,90,0,1,,,,0,,,84,64
334080,note_on,,,,,0,0,1,,,,0,,,77,75
334080,note_on,,,,,0,0,2,,,,1,,,49,75
334080,note_on,,,,,120,0,1,,,,0,,,85,91
334080,note_off,,,,,240,0,2,,,,1,,,66,64
334080,note_off,,,,,0,0,2,,,,1,,,56,64
334080,note_off,,,,,0,0,2,,,,1,,,60,64
334320,note_on,,,,,0,0,2,,,,1,,,65,75
334320,note_on,,,,,0,0,2,,,,1,,,56,57
334320,note_on,,,,,0,0,2,,,,1,,,61,77
334320,note_off,,,,,0,0,1,,,,0,,,77,64
334320,note_off,,,,,240,0,2,,,,1,,,49,64
334320,note_off,,,,,240,0,1,,,,0,,,85,64
334320,note_on,,,,,0,0,1,,,,0,,,88,77
334350,note_off,,,,,30,0,1,,,,0,,,88,64
334350,note_on,,,,,0,0,1,,,,0,,,89,87
334440,note_off,,,,,90,0,1,,,,0,,,89,64
334560,note_on,,,,,0,0,2,,,,1,,,44,71
334560,note_on,,,,,0,0,1,,,,0,,,73,67
334560,note_off,,,,,240,0,2,,,,1,,,65,64
334560,note_off,,,,,0,0,2,,,,1,,,56,64
334560,note_off,,,,,0,0,2,,,,1,,,61,64
334560,note_on,,,,,120,0,1,,,,0,,,80,77
334800,note_on,,,,,0,0,1,,,,0,,,84,73
334800,note_off,,,,,240,0,1,,,,0,,,80,64
334800,note_on,,,,,0,0,2,,,,1,,,56,61
334800,note_on,,,,,0,0,2,,,,1,,,61,75
334800,note_on,,,,,0,0,2,,,,1,,,65,71
334800,note_off,,,,,240,0,2,,,,1,,,44,64
334800,note_off,,,,,0,0,1,,,,0,,,73,64
334830,note_on,,,,,0,0,1,,,,0,,,85,77
334830,note_off,,,,,30,0,1,,,,0,,,84,64
334920,note_off,,,,,90,0,1,,,,0,,,85,64
335040,note_on,,,,,0,0,1,,,,0,,,68,67
335040,note_off,,,,,0,0,2,,,,1,,,56,64
335040,note_off,,,,,0,0,2,,,,1,,,61,64
335040,note_on,,,,,0,0,2,,,,1,,,49,65
335040,note_off,,,,,240,0,2,,,,1,,,65,64
335040,note_on,,,,,120,0,1,,,,0,,,77,71
335280,note_off,,,,,240,0,2,,,,1,,,49,64
335280,note_on,,,,,0,0,2,,,,1,,,61,75
335280,note_on,,,,,0,0,2,,,,1,,,65,77
335280,note_on,,,,,0,0,2,,,,1,,,56,69
335280,note_off,,,,,240,0,1,,,,0,,,77,64
335280,note_on,,,,,0,0,1,,,,0,,,79,87
335280,note_off,,,,,0,0,1,,,,0,,,68,64
335310,note_on,,,,,0,0,1,,,,0,,,80,73
335310,note_off,,,,,30,0,1,,,,0,,,79,64
335400,note_off,,,,,90,0,1,,,,0,,,80,64
335520,note_off,,,,,0,0,2,,,,1,,,61,64
335520,note_on,,,,,0,0,2,,,,1,,,44,55
335520,note_off,,,,,0,0,2,,,,1,,,56,64
335520,note_on,,,,,0,0,1,,,,0,,,65,75
335520,note_on,,,,,120,0,1,,,,0,,,73,79
335520,note_off,,,,,240,0,2,,,,1,,,65,64
335760,note_on,,,,,0,0,2,,,,1,,,65,77
335760,note_on,,,,,0,0,2,,,,1,,,56,71
335760,note_off,,,,,240,0,2,,,,1,,,44,64
335760,note_on,,,,,0,0,2,,,,1,,,61,63
335990,note_off,,,,,0,0,1,,,,0,,,65,64
335990,note_off,,,,,230,0,2,,,,1,,,65,64
335990,note_off,,,,,0,0,2,,,,1,,,61,64
335990,note_off,,,,,0,0,2,,,,1,,,56,64
335990,note_off,,,,,470,0,1,,,,0,,,73,64
335999,note_off,,,,,0,0,1,,,,0,,,80,64
335999,note_off,,,,,9,0,1,,,,0,,,80,64
336000,note_on,,,,,10,0,2,,,,1,,,51,77
336000,note_on,,,,,0,0,4,,,,3,,,84,93
336000,note_on,,,,,30960,0,4,,,,3,,,92,93
336000,note_on,,,,,0,0,4,,,,3,,,80,83
336240,note_on,,,,,0,0,2,,,,1,,,60,83
336240,note_on,,,,,0,0,2,,,,1,,,56,53
336240,note_off,,,,,240,0,2,,,,1,,,51,64
336240,note_on,,,,,0,0,2,,,,1,,,66,65
336240,note_off,,,,,0,0,4,,,,3,,,80,64
336240,note_off,,,,,0,0,4,,,,3,,,84,64
336240,note_on,,,,,0,0,4,,,,3,,,82,87
336240,note_on,,,,,0,0,4,,,,3,,,85,107
336240,note_on,,,,,0,0,4,,,,3,,,94,97
336240,note_off,,,,,240,0,4,,,,3,,,92,64
336480,note_on,,,,,0,0,4,,,,3,,,84,91
336480,note_on,,,,,0,0,4,,,,3,,,87,97
336480,note_on,,,,,0,0,4,,,,3,,,96,93
336480,note_off,,,,,0,0,2,,,,1,,,56,64
336480,note_off,,,,,0,0,2,,,,1,,,60,64
336480,note_off,,,,,240,0,2,,,,1,,,66,64
336480,note_on,,,,,0,0,2,,,,1,,,44,69
336480,note_off,,,,,0,0,4,,,,3,,,82,64
336480,note_off,,,,,0,0,4,,,,3,,,85,64
336480,note_off,,,,,240,0,4,,,,3,,,94,64
336720,note_off,,,,,0,0,4,,,,3,,,84,64
336720,note_on,,,,,0,0,4,,,,3,,,97,107
336720,note_on,,,,,0,0,2,,,,1,,,66,47
336720,note_on,,,,,0,0,2,,,,1,,,60,77
336720,note_on,,,,,0,0,2,,,,1,,,56,45
336720,note_off,,,,,240,0,2,,,,1,,,44,64
336720,note_on,,,,,0,0,4,,,,3,,,89,97
336720,note_on,,,,,0,0,4,,,,3,,,85,93
336720,note_off,,,,,0,0,4,,,,3,,,87,64
336720,note_off,,,,,240,0,4,,,,3,,,96,64
336960,note_off,,,,,0,0,2,,,,1,,,60,64
336960,note_off,,,,,0,0,4,,,,3,,,85,64
336960,note_on,,,,,0,0,2,,,,1,,,51,61
336960,note_off,,,,,240,0,2,,,,1,,,66,64
336960,note_off,,,,,0,0,2,,,,1,,,56,64
336960,note_off,,,,,0,0,4,,,,3,,,89,64
336960,note_off,,,,,240,0,4,,,,3,,,97,64
336960,note_on,,,,,0,0,4,,,,3,,,87,103
336960,note_on,,,,,0,0,4,,,,3,,,99,107
336960,note_on,,,,,0,0,4,,,,3,,,90,107
337200,note_off,,,,,240,0,4,,,,3,,,99,64
337200,note_off,,,,,0,0,4,,,,3,,,90,64
337200,note_off,,,,,0,0,4,,,,3,,,87,64
337200,note_on,,,,,0,0,2,,,,1,,,56,71
337200,note_on,,,,,0,0,2,,,,1,,,60,91
337200,note_on,,,,,0,0,2,,,,1,,,66,75
337200,note_on,,,,,0,0,4,,,,3,,,98,115
337200,note_on,,,,,0,0,4,,,,3,,,89,118
337200,note_on,,,,,0,0,4,,,,3,,,86,107
337200,note_off,,,,,240,0,2,,,,1,,,51,64
337440,note_on,,,,,0,0,4,,,,3,,,87,103
337440,note_off,,,,,0,0,2,,,,1,,,56,64
337440,note_off,,,,,0,0,2,,,,1,,,60,64
337440,note_off,,,,,240,0,4,,,,3,,,98,64
337440,note_on,,,,,0,0,4,,,,3,,,90,103
337440,note_off,,,,,240,0,2,,,,1,,,66,64
337440,note_off,,,,,0,0,4,,,,3,,,89,64
337440,note_on,,,,,0,0,2,,,,1,,,44,77
337440,note_off,,,,,0,0,4,,,,3,,,86,64
337440,note_on,,,,,0,0,4,,,,3,,,99,115
337680,note_on,,,,,0,0,2,,,,1,,,60,77
337680,note_on,,,,,0,0,2,,,,1,,,66,67
337680,note_off,,,,,240,0,4,,,,3,,,99,64
337680,note_off,,,,,240,0,2,,,,1,,,44,64
337680,note_on,,,,,0,0,2,,,,1,,,56,47
337680,note_off,,,,,0,0,4,,,,3,,,87,64
337680,note_off,,,,,0,0,4,,,,3,,,90,64
337680,note_on,,,,,0,0,4,,,,3,,,87,118
337680,note_on,,,,,0,0,4,,,,3,,,96,97
337680,note_on,,,,,0,0,4,,,,3,,,84,97
337920,note_off,,,,,0,0,4,,,,3,,,84,64
337920,note_off,,,,,0,0,4,,,,3,,,87,64
337920,note_off,,,,,240,0,2,,,,1,,,66,64
337920,note_off,,,,,240,0,4,,,,3,,,96,64
337920,note_off,,,,,0,0,2,,,,1,,,60,64
337920,note_off,,,,,0,0,2,,,,1,,,56,64
337920,note_on,,,,,0,0,2,,,,1,,,49,83
337920,note_on,,,,,0,0,4,,,,3,,,97,91
337920,note_on,,,,,0,0,4,,,,3,,,85,87
337920,note_on,,,,,0,0,4,,,,3,,,89,107
338160,note_off,,,,,0,0,4,,,,3,,,85,64
338160,note_on,,,,,0,0,4,,,,3,,,87,97
338160,note_off,,,,,240,0,4,,,,3,,,97,64
338160,note_on,,,,,0,0,2,,,,1,,,56,69
338160,note_on,,,,,0,0,4,,,,3,,,92,87
338160,note_on,,,,,0,0,4,,,,3,,,99,103
338160,note_on,,,,,0,0,2,,,,1,,,65,79
338160,note_off,,,,,0,0,4,,,,3,,,89,64
338160,note_off,,,,,240,0,2,,,,1,,,49,64
338160,note_on,,,,,0,0,2,,,,1,,,61,77
338400,note_on,,,,,0,0,2,,,,1,,,44,83
338400,note_off,,,,,0,0,4,,,,3,,,87,64
338400,note_off,,,,,0,0,4,,,,3,,,92,64
338400,note_off,,,,,240,0,2,,,,1,,,65,64
338400,note_on,,,,,0,0,4,,,,3,,,101,115
338400,note_on,,,,,0,0,4,,,,3,,,97,103
338400,note_off,,,,,240,0,4,,,,3,,,99,64
338400,note_on,,,,,0,0,4,,,,3,,,89,93
338400,note_off,,,,,0,0,2,,,,1,,,61,64
338400,note_off,,,,,0,0,2,,,,1,,,56,64
338640,note_on,,,,,0,0,4,,,,3,,,99,93
338640,note_off,,,,,0,0,4,,,,3,,,89,64
338640,note_on,,,,,0,0,2,,,,1,,,61,77
338640,note_off,,,,,240,0,2,,,,1,,,44,64
338640,note_on,,,,,0,0,4,,,,3,,,102,103
338640,note_on,,,,,0,0,2,,,,1,,,65,77
338640,note_on,,,,,0,0,4,,,,3,,,90,107
338640,note_off,,,,,0,0,4,,,,3,,,97,64
338640,note_on,,,,,0,0,2,,,,1,,,56,67
338640,note_off,,,,,240,0,4,,,,3,,,101,64
338880,note_off,,,,,0,0,2,,,,1,,,61,64
338880,note_on,,,,,0,0,2,,,,1,,,49,77
338880,note_on,,,,,0,0,4,,,,3,,,92,93
338880,note_on,,,,,0,0,4,,,,3,,,101,115
338880,note_off,,,,,0,0,2,,,,1,,,56,64
338880,note_off,,,,,0,0,4,,,,3,,,90,64
338880,note_on,,,,,0,0,4,,,,3,,,104,115
338880,note_off,,,,,240,0,2,,,,1,,,65,64
338880,note_off,,,,,0,0,4,,,,3,,,99,64
338880,note_off,,,,,240,0,4,,,,3,,,102,64
339120,note_on,,,,,0,0,2,,,,1,,,56,65
339120,note_on,,,,,0,0,4,,,,3,,,103,103
339120,note_off,,,,,0,0,4,,,,3,,,92,64
339120,note_on,,,,,0,0,4,,,,3,,,91,103
339120,note_on,,,,,0,0,2,,,,1,,,61,75
339120,note_on,,,,,0,0,2,,,,1,,,65,75
339120,note_off,,,,,240,0,4,,,,3,,,104,64
339120,note_off,,,,,0,0,4,,,,3,,,101,64
339120,note_on,,,,,0,0,4,,,,3,,,100,115
339120,note_off,,,,,240,0,2,,,,1,,,49,64
339360,note_off,,,,,0,0,4,,,,3,,,100,64
339360,note_on,,,,,0,0,2,,,,1,,,44,73
339360,note_off,,,,,240,0,4,,,,3,,,103,64
339360,note_off,,,,,0,0,4,,,,3,,,91,64
339360,note_on,,,,,0,0,4,,,,3,,,92,97
339360,note_on,,,,,0,0,4,,,,3,,,101,103
339360,note_on,,,,,0,0,4,,,,3,,,104,115
339360,note_off,,,,,0,0,2,,,,1,,,56,64
339360,note_off,,,,,0,0,2,,,,1,,,61,64
339360,note_off,,,,,240,0,2,,,,1,,,65,64
339600,note_on,,,,,0,0,4,,,,3,,,89,107
339600,note_on,,,,,0,0,4,,,,3,,,97,115
339600,note_on,,,,,0,0,4,,,,3,,,101,115
339600,note_off,,,,,240,0,4,,,,3,,,104,64
339600,note_off,,,,,0,0,4,,,,3,,,92,64
339600,note_off,,,,,0,0,4,,,,3,,,101,64
339600,note_off,,,,,240,0,2,,,,1,,,44,64
339600,note_on,,,,,0,0,2,,,,1,,,56,67
339600,note_on,,,,,0,0,2,,,,1,,,61,77
339600,note_on,,,,,0,0,2,,,,1,,,65,77
339840,note_off,,,,,240,0,2,,,,1,,,65,64
339840,note_on,,,,,0,0,4,,,,3,,,93,97
339840,note_off,,,,,240,0,4,,,,3,,,101,64
339840,note_off,,,,,0,0,4,,,,3,,,89,64
339840,note_off,,,,,0,0,4,,,,3,,,97,64
339840,note_off,,,,,0,0,2,,,,1,,,61,64
339840,note_on,,,,,0,0,2,,,,1,,,51,59
339840,note_off,,,,,0,0,2,,,,1,,,56,64
339870,note_on,,,,,0,0,4,,,,3,,,102,93
339870,note_on,,,,,0,0,4,,,,3,,,94,77
339870,note_off,,,,,30,0,4,,,,3,,,93,64
340080,note_off,,,,,0,0,4,,,,3,,,94,64
340080,note_on,,,,,0,0,4,,,,3,,,90,97
340080,note_on,,,,,0,0,2,,,,1,,,60,71
340080,note_on,,,,,0,0,2,,,,1,,,56,63
340080,note_off,,,,,210,0,4,,,,3,,,102,64
340080,note_off,,,,,240,0,2,,,,1,,,51,64
340080,note_on,,,,,0,0,2,,,,1,,,66,69
340320,note_off,,,,,0,0,2,,,,1,,,56,64
340320,note_off,,,,,0,0,2,,,,1,,,60,64
340320,note_off,,,,,240,0,2,,,,1,,,66,64
340320,note_on,,,,,0,0,2,,,,1,,,44,77
340320,note_on,,,,,0,0,4,,,,3,,,89,93
340320,note_off,,,,,240,0,4,,,,3,,,90,64
340350,note_off,,,,,30,0,4,,,,3,,,89,64
340350,note_on,,,,,0,0,4,,,,3,,,99,97
340350,note_on,,,,,0,0,4,,,,3,,,90,83
340560,note_off,,,,,0,0,4,,,,3,,,90,64
340560,note_on,,,,,0,0,2,,,,1,,,66,67
340560,note_on,,,,,0,0,4,,,,3,,,87,93
340560,note_on,,,,,0,0,2,,,,1,,,60,83
340560,note_on,,,,,0,0,2,,,,1,,,56,61
340560,note_off,,,,,210,0,4,,,,3,,,99,64
340560,note_off,,,,,240,0,2,,,,1,,,44,64
340800,note_off,,,,,0,0,2,,,,1,,,56,64
340800,note_off,,,,,240,0,2,,,,1,,,66,64
340800,note_off,,,,,240,0,4,,,,3,,,87,64
340800,note_on,,,,,0,0,4,,,,3,,,86,91
340800,note_off,,,,,0,0,2,,,,1,,,60,64
340800,note_on,,,,,0,0,2,,,,1,,,51,67
340830,note_on,,,,,0,0,4,,,,3,,,96,93
340830,note_off,,,,,30,0,4,,,,3,,,86,64
340830,note_on,,,,,0,0,4,,,,3,,,87,103
341040,note_on,,,,,0,0,2,,,,1,,,66,59
341040,note_off,,,,,240,0,2,,,,1,,,51,64
341040,note_off,,,,,210,0,4,,,,3,,,96,64
341040,note_on,,,,,0,0,2,,,,1,,,60,77
341040,note_on,,,,,0,0,2,,,,1,,,56,45
341040,note_on,,,,,0,0,4,,,,3,,,84,97
341040,note_off,,,,,0,0,4,,,,3,,,87,64
341280,note_off,,,,,0,0,2,,,,1,,,56,64
341280,note_off,,,,,240,0,4,,,,3,,,84,64
341280,note_on,,,,,0,0,4,,,,3,,,83,103
341280,note_off,,,,,240,0,2,,,,1,,,66,64
341280,note_on,,,,,0,0,2,,,,1,,,44,75
341280,note_off,,,,,0,0,2,,,,1,,,60,64
341310,note_on,,,,,0,0,4,,,,3,,,84,93
341310,note_on,,,,,0,0,4,,,,3,,,92,91
341310,note_off,,,,,30,0,4,,,,3,,,83,64
341520,note_on,,,,,0,0,2,,,,1,,,66,69
341520,note_on,,,,,0,0,2,,,,1,,,60,75
341520,note_on,,,,,0,0,2,,,,1,,,56,53
341520,note_off,,,,,240,0,2,,,,1,,,44,64
341520,note_off,,,,,210,0,4,,,,3,,,92,64
341520,note_on,,,,,0,0,4,,,,3,,,80,97
341520,note_off,,,,,0,0,4,,,,3,,,84,64
341760,note_off,,,,,0,0,2,,,,1,,,60,64
341760,note_off,,,,,0,0,2,,,,1,,,56,64
341760,note_on,,,,,0,0,2,,,,1,,,61,73
341760,note_on,,,,,0,0,2,,,,1,,,49,67
341760,note_off,,,,,240,0,4,,,,3,,,80,64
341760,note_on,,,,,0,0,4,,,,3,,,73,79
341760,note_on,,,,,0,0,4,,,,3,,,77,87
341760,note_on,,,,,0,0,4,,,,3,,,85,77
341760,note_off,,,,,240,0,2,,,,1,,,66,64
342000,note_on,,,,,0,0,4,,,,3,,,74,91
342000,note_off,,,,,0,0,4,,,,3,,,73,64
342000,note_off,,,,,0,0,4,,,,3,,,77,64
342000,note_off,,,,,240,0,2,,,,1,,,61,64
342000,note_on,,,,,0,0,2,,,,1,,,48,73
342000,note_on,,,,,0,0,2,,,,1,,,60,77
342000,note_on,,,,,0,0,4,,,,3,,,86,97
342000,note_on,,,,,0,0,4,,,,3,,,78,97
342000,note_off,,,,,0,0,2,,,,1,,,49,64
342000,note_off,,,,,240,0,4,,,,3,,,85,64
342240,note_off,,,,,0,0,4,,,,3,,,78,64
342240,note_on,,,,,0,0,4,,,,3,,,87,97
342240,note_off,,,,,0,0,4,,,,3,,,74,64
342240,note_on,,,,,0,0,2,,,,1,,,59,77
342240,note_on,,,,,0,0,2,,,,1,,,47,77
342240,note_off,,,,,240,0,4,,,,3,,,86,64
342240,note_off,,,,,240,0,2,,,,1,,,60,64
342240,note_off,,,,,0,0,2,,,,1,,,48,64
342240,note_on,,,,,0,0,4,,,,3,,,75,97
342240,note_on,,,,,0,0,4,,,,3,,,79,103
342480,note_on,,,,,0,0,2,,,,1,,,58,97
342480,note_on,,,,,0,0,2,,,,1,,,46,77
342480,note_on,,,,,0,0,4,,,,3,,,80,93
342480,note_off,,,,,240,0,4,,,,3,,,87,64
342480,note_off,,,,,0,0,4,,,,3,,,75,64
342480,note_off,,,,,0,0,4,,,,3,,,79,64
342480,note_on,,,,,0,0,4,,,,3,,,88,103
342480,note_off,,,,,240,0,2,,,,1,,,59,64
342480,note_off,,,,,0,0,2,,,,1,,,47,64
342480,note_on,,,,,0,0,4,,,,3,,,76,93
342640,set_tempo,,,,,31570,1,0,389610,,,,,,,
342720,note_off,,,,,0,0,4,,,,3,,,80,64
342720,note_off,,,,,0,0,4,,,,3,,,76,64
342720,note_on,,,,,0,0,4,,,,3,,,89,107
342720,note_on,,,,,0,0,4,,,,3,,,81,115
342720,note_on,,,,,0,0,4,,,,3,,,77,97
342720,note_off,,,,,0,0,2,,,,1,,,46,64
342720,note_off,,,,,240,0,4,,,,3,,,88,64
342720,note_off,,,,,240,0,2,,,,1,,,58,64
342720,note_on,,,,,0,0,2,,,,1,,,45,91
342720,note_on,,,,,0,0,2,,,,1,,,57,97
342960,note_off,,,,,0,0,2,,,,1,,,45,64
342960,note_off,,,,,240,0,4,,,,3,,,89,64
342960,note_on,,,,,0,0,4,,,,3,,,88,115
342960,note_off,,,,,0,0,4,,,,3,,,77,64
342960,note_on,,,,,0,0,4,,,,3,,,76,115
342960,note_on,,,,,0,0,4,,,,3,,,80,118
342960,note_on,,,,,0,0,2,,,,1,,,46,73
342960,note_on,,,,,0,0,2,,,,1,,,58,77
342960,note_off,,,,,240,0,2,,,,1,,,57,64
342960,note_off,,,,,0,0,4,,,,3,,,81,64
343200,note_off,,,,,240,0,2,,,,1,,,58,64
343200,note_off,,,,,0,0,2,,,,1,,,46,64
343200,note_on,,,,,0,0,4,,,,3,,,75,91
343200,note_on,,,,,0,0,4,,,,3,,,79,97
343200,note_on,,,,,0,0,2,,,,1,,,47,87
343200,note_off,,,,,0,0,4,,,,3,,,80,64
343200,note_off,,,,,0,0,4,,,,3,,,76,64
343200,note_on,,,,,0,0,4,,,,3,,,87,97
343200,note_off,,,,,240,0,4,,,,3,,,88,64
343200,note_on,,,,,0,0,2,,,,1,,,59,73
343440,note_off,,,,,240,0,2,,,,1,,,59,64
343440,note_off,,,,,240,0,4,,,,3,,,87,64
343440,note_on,,,,,0,0,2,,,,1,,,60,73
343440,note_on,,,,,0,0,4,,,,3,,,78,83
343440,note_on,,,,,0,0,4,,,,3,,,74,91
343440,note_on,,,,,0,0,2,,,,1,,,48,63
343440,note_off,,,,,0,0,4,,,,3,,,79,64
343440,note_off,,,,,0,0,2,,,,1,,,47,64
343440,note_on,,,,,0,0,4,,,,3,,,86,97
343440,note_off,,,,,0,0,4,,,,3,,,75,64
343680,note_on,,,,,0,0,4,,,,3,,,87,73
343680,note_off,,,,,0,0,2,,,,1,,,48,64
343680,note_on,,,,,0,0,4,,,,3,,,79,93
343680,note_off,,,,,240,0,2,,,,1,,,60,64
343680,note_off,,,,,0,0,4,,,,3,,,74,64
343680,note_off,,,,,0,0,4,,,,3,,,78,64
343680,note_on,,,,,0,0,4,,,,3,,,75,69
343680,note_off,,,,,240,0,4,,,,3,,,86,64
343680,note_on,,,,,0,0,2,,,,1,,,47,73
343680,note_on,,,,,0,0,2,,,,1,,,59,77
343920,note_on,,,,,0,0,2,,,,1,,,58,79
343920,note_on,,,,,0,0,4,,,,3,,,88,103
343920,note_on,,,,,0,0,4,,,,3,,,80,91
343920,note_on,,,,,0,0,4,,,,3,,,76,83
343920,note_off,,,,,240,0,4,,,,3,,,87,64
343920,note_off,,,,,0,0,2,,,,1,,,47,64
343920,note_on,,,,,0,0,2,,,,1,,,46,75
343920,note_off,,,,,240,0,2,,,,1,,,59,64
343920,note_off,,,,,0,0,4,,,,3,,,75,64
343920,note_off,,,,,0,0,4,,,,3,,,79,64
344160,note_off,,,,,0,0,2,,,,1,,,46,64
344160,note_on,,,,,0,0,4,,,,3,,,89,97
344160,note_off,,,,,0,0,4,,,,3,,,76,64
344160,note_on,,,,,0,0,2,,,,1,,,45,91
344160,note_on,,,,,0,0,4,,,,3,,,81,103
344160,note_off,,,,,0,0,4,,,,3,,,80,64
344160,note_off,,,,,240,0,4,,,,3,,,88,64
344160,note_off,,,,,240,0,2,,,,1,,,58,64
344160,note_on,,,,,0,0,2,,,,1,,,57,103
344160,note_on,,,,,0,0,4,,,,3,,,77,93
344400,note_off,,,,,0,0,4,,,,3,,,77,64
344400,note_off,,,,,0,0,2,,,,1,,,45,64
344400,note_off,,,,,240,0,4,,,,3,,,89,64
344400,note_off,,,,,0,0,4,,,,3,,,81,64
344400,note_off,,,,,240,0,2,,,,1,,,57,64
344400,note_on,,,,,0,0,4,,,,3,,,90,107
344400,note_on,,,,,0,0,4,,,,3,,,82,97
344400,note_on,,,,,0,0,2,,,,1,,,56,97
344400,note_on,,,,,0,0,2,,,,1,,,44,97
344400,note_on,,,,,0,0,4,,,,3,,,78,115
344640,note_on,,,,,0,0,2,,,,1,,,55,91
344640,note_on,,,,,0,0,4,,,,3,,,83,118
344640,note_off,,,,,0,0,2,,,,1,,,44,64
344640,note_on,,,,,0,0,4,,,,3,,,79,107
344640,note_on,,,,,0,0,2,,,,1,,,43,87
344640,note_off,,,,,240,0,4,,,,3,,,90,64
344640,note_on,,,,,0,0,4,,,,3,,,91,118
344640,note_off,,,,,240,0,2,,,,1,,,56,64
344640,note_off,,,,,0,0,4,,,,3,,,82,64
344640,note_off,,,,,0,0,4,,,,3,,,78,64
344880,note_off,,,,,240,0,2,,,,1,,,43,64
344880,note_off,,,,,0,0,4,,,,3,,,83,64
344880,note_off,,,,,0,0,4,,,,3,,,79,64
344880,note_off,,,,,240,0,4,,,,3,,,91,64
344880,note_off,,,,,0,0,2,,,,1,,,55,64
344880,note_on,,,,,0,0,4,,,,3,,,82,97
344880,note_on,,,,,0,0,4,,,,3,,,78,107
344880,note_on,,,,,0,0,2,,,,1,,,44,87
344880,note_on,,,,,0,0,2,,,,1,,,56,91
344880,note_on,,,,,0,0,4,,,,3,,,90,115
345120,note_on,,,,,0,0,4,,,,3,,,77,91
345120,note_on,,,,,0,0,4,,,,3,,,89,97
345120,note_on,,,,,0,0,2,,,,1,,,45,69
345120,note_on,,,,,0,0,2,,,,1,,,57,79
345120,note_off,,,,,0,0,4,,,,3,,,82,64
345120,note_on,,,,,0,0,4,,,,3,,,81,91
345120,note_off,,,,,0,0,4,,,,3,,,78,64
345120,note_off,,,,,240,0,2,,,,1,,,44,64
345120,note_off,,,,,0,0,2,,,,1,,,56,64
345120,note_off,,,,,240,0,4,,,,3,,,90,64
345360,note_off,,,,,0,0,2,,,,1,,,57,64
345360,note_on,,,,,0,0,4,,,,3,,,88,103
345360,note_on,,,,,0,0,4,,,,3,,,80,93
345360,note_on,,,,,0,0,4,,,,3,,,76,93
345360,note_off,,,,,0,0,4,,,,3,,,77,64
345360,note_off,,,,,0,0,4,,,,3,,,81,64
345360,note_off,,,,,240,0,4,,,,3,,,89,64
345360,note_off,,,,,240,0,2,,,,1,,,45,64
345360,note_on,,,,,0,0,2,,,,1,,,46,77
345360,note_on,,,,,0,0,2,,,,1,,,58,77
345600,note_off,,,,,0,0,4,,,,3,,,80,64
345600,note_off,,,,,240,0,2,,,,1,,,46,64
345600,note_on,,,,,0,0,4,,,,3,,,89,93
345600,note_off,,,,,240,0,4,,,,3,,,88,64
345600,note_off,,,,,0,0,2,,,,1,,,58,64
345600,note_on,,,,,0,0,2,,,,1,,,57,83
345600,note_on,,,,,0,0,2,,,,1,,,45,79
345600,note_on,,,,,0,0,4,,,,3,,,77,83
345600,note_off,,,,,0,0,4,,,,3,,,76,64
345600,note_on,,,,,0,0,4,,,,3,,,81,97
345840,note_on,,,,,0,0,2,,,,1,,,44,79
345840,note_on,,,,,0,0,2,,,,1,,,56,93
345840,note_off,,,,,0,0,2,,,,1,,,57,64
345840,note_on,,,,,0,0,4,,,,3,,,82,107
345840,note_off,,,,,240,0,2,,,,1,,,45,64
345840,note_on,,,,,0,0,4,,,,3,,,90,103
345840,note_off,,,,,0,0,4,,,,3,,,81,64
345840,note_off,,,,,0,0,4,,,,3,,,77,64
345840,note_off,,,,,240,0,4,,,,3,,,89,64
345840,note_on,,,,,0,0,4,,,,3,,,78,107
346080,note_on,,,,,0,0,2,,,,1,,,55,83
346080,note_off,,,,,0,0,4,,,,3,,,82,64
346080,note_on,,,,,0,0,2,,,,1,,,43,79
346080,note_off,,,,,0,0,4,,,,3,,,78,64
346080,note_off,,,,,240,0,2,,,,1,,,44,64
346080,note_off,,,,,0,0,2,,,,1,,,56,64
346080,note_on,,,,,0,0,4,,,,3,,,91,118
346080,note_on,,,,,0,0,4,,,,3,,,83,118
346080,note_on,,,,,0,0,4,,,,3,,,79,103
346080,note_off,,,,,240,0,4,,,,3,,,90,64
346320,note_off,,,,,0,0,2,,,,1,,,55,64
346320,note_on,,,,,0,0,2,,,,1,,,42,97
346320,note_on,,,,,0,0,2,,,,1,,,54,87
346320,note_off,,,,,0,0,4,,,,3,,,83,64
346320,note_on,,,,,0,0,4,,,,3,,,80,115
346320,note_on,,,,,0,0,4,,,,3,,,84,121
346320,note_on,,,,,0,0,4,,,,3,,,92,115
346320,note_off,,,,,240,0,2,,,,1,,,43,64
346320,note_off,,,,,0,0,4,,,,3,,,79,64
346320,note_off,,,,,240,0,4,,,,3,,,91,64
346550,set_tempo,,,,,3910,1,0,394736,,,,,,,
346560,note_off,,,,,240,0,2,,,,1,,,42,64
346560,note_off,,,,,0,0,4,,,,3,,,80,64
346560,note_off,,,,,0,0,4,,,,3,,,84,64
346560,note_on,,,,,0,0,2,,,,1,,,53,107
346560,note_off,,,,,0,0,2,,,,1,,,54,64
346560,note_on,,,,,0,0,2,,,,1,,,41,93
346560,note_on,,,,,0,0,4,,,,3,,,81,107
346560,note_on,,,,,0,0,4,,,,3,,,85,121
346560,note_on,,,,,0,0,4,,,,3,,,93,115
346560,note_off,,,,,240,0,4,,,,3,,,92,64
346800,note_off,,,,,0,0,2,,,,1,,,53,64
346800,note_off,,,,,240,0,4,,,,3,,,93,64
346800,note_off,,,,,0,0,4,,,,3,,,81,64
346800,note_off,,,,,0,0,4,,,,3,,,85,64
346800,note_on,,,,,0,0,4,,,,3,,,92,115
346800,note_on,,,,,0,0,4,,,,3,,,80,107
346800,note_on,,,,,0,0,2,,,,1,,,42,91
346800,note_on,,,,,0,0,2,,,,1,,,54,83
346800,note_off,,,,,240,0,2,,,,1,,,41,64
346800,note_on,,,,,0,0,4,,,,3,,,84,118
347040,note_off,,,,,0,0,4,,,,3,,,80,64
347040,note_on,,,,,0,0,2,,,,1,,,43,75
347040,note_on,,,,,0,0,2,,,,1,,,55,75
347040,note_off,,,,,0,0,4,,,,3,,,84,64
347040,note_off,,,,,240,0,2,,,,1,,,42,64
347040,note_on,,,,,0,0,4,,,,3,,,91,103
347040,note_on,,,,,0,0,4,,,,3,,,83,103
347040,note_on,,,,,0,0,4,,,,3,,,79,83
347040,note_off,,,,,0,0,2,,,,1,,,54,64
347040,note_off,,,,,240,0,4,,,,3,,,92,64
347280,note_on,,,,,0,0,4,,,,3,,,90,107
347280,note_off,,,,,240,0,2,,,,1,,,43,64
347280,note_on,,,,,0,0,4,,,,3,,,78,87
347280,note_off,,,,,0,0,4,,,,3,,,79,64
347280,note_on,,,,,0,0,4,,,,3,,,82,91
347280,note_off,,,,,0,0,4,,,,3,,,83,64
347280,note_off,,,,,0,0,2,,,,1,,,55,64
347280,note_on,,,,,0,0,2,,,,1,,,56,77
347280,note_on,,,,,0,0,2,,,,1,,,44,77
347280,note_off,,,,,240,0,4,,,,3,,,91,64
347510,note_off,,,,,0,0,4,,,,3,,,82,64
347510,note_off,,,,,0,0,2,,,,1,,,56,64
347510,note_off,,,,,0,0,4,,,,3,,,78,64
347510,note_off,,,,,230,0,4,,,,3,,,90,64
347510,note_off,,,,,230,0,2,,,,1,,,44,64
347520,note_on,,,,,0,0,2,,,,1,,,55,91
347520,note_on,,,,,0,0,4,,,,3,,,83,91
347520,note_on,,,,,0,0,4,,,,3,,,79,77
347520,note_on,,,,,10,0,4,,,,3,,,91,91
347520,note_on,,,,,10,0,2,,,,1,,,43,93
347760,note_on,,,,,0,0,4,,,,3,,,84,107
347760,note_off,,,,,0,0,2,,,,1,,,55,64
347760,note_on,,,,,0,0,4,,,,3,,,92,97
347760,note_on,,,,,0,0,2,,,,1,,,54,115
347760,note_off,,,,,0,0,4,,,,3,,,79,64
347760,note_off,,,,,0,0,4,,,,3,,,83,64
347760,note_on,,,,,0,0,2,,,,1,,,42,103
347760,note_off,,,,,240,0,2,,,,1,,,43,64
347760,note_off,,,,,240,0,4,,,,3,,,91,64
347760,note_on,,,,,0,0,4,,,,3,,,80,91
348000,note_on,,,,,0,0,4,,,,3,,,93,97
348000,note_off,,,,,240,0,4,,,,3,,,92,64
348000,note_on,,,,,0,0,2,,,,1,,,41,93
348000,note_on,,,,,0,0,2,,,,1,,,53,107
348000,note_on,,,,,0,0,4,,,,3,,,81,83
348000,note_off,,,,,0,0,2,,,,1,,,54,64
348000,note_off,,,,,0,0,4,,,,3,,,84,64
348000,note_off,,,,,0,0,4,,,,3,,,80,64
348000,note_off,,,,,240,0,2,,,,1,,,42,64
348000,note_on,,,,,0,0,4,,,,3,,,85,87
348240,note_off,,,,,0,0,2,,,,1,,,53,64
348240,note_off,,,,,0,0,4,,,,3,,,85,64
348240,note_on,,,,,0,0,2,,,,1,,,40,107
348240,note_on,,,,,0,0,4,,,,3,,,82,77
348240,note_off,,,,,240,0,2,,,,1,,,41,64
348240,note_off,,,,,240,0,4,,,,3,,,93,64
348240,note_on,,,,,0,0,4,,,,3,,,86,103
348240,note_off,,,,,0,0,4,,,,3,,,81,64
348240,note_on,,,,,0,0,4,,,,3,,,94,87
348240,note_on,,,,,0,0,2,,,,1,,,52,93
348480,note_on,,,,,0,0,4,,,,3,,,83,87
348480,note_on,,,,,0,0,4,,,,3,,,87,93
348480,note_on,,,,,0,0,4,,,,3,,,95,103
348480,note_off,,,,,0,0,2,,,,1,,,52,64
348480,note_on,,,,,0,0,2,,,,1,,,51,115
348480,note_off,,,,,240,0,4,,,,3,,,94,64
348480,note_off,,,,,240,0,2,,,,1,,,40,64
348480,note_off,,,,,0,0,4,,,,3,,,82,64
348480,note_off,,,,,0,0,4,,,,3,,,86,64
348480,note_on,,,,,0,0,2,,,,1,,,39,115
348530,set_tempo,,,,,1980,1,0,397350,,,,,,,
348720,note_on,,,,,0,0,2,,,,1,,,50,121
348720,note_off,,,,,0,0,2,,,,1,,,51,64
348720,note_off,,,,,0,0,4,,,,3,,,83,64
348720,note_on,,,,,0,0,2,,,,1,,,38,118
348720,note_on,,,,,0,0,4,,,,3,,,96,97
348720,note_on,,,,,0,0,4,,,,3,,,88,97
348720,note_off,,,,,240,0,2,,,,1,,,39,64
348720,note_off,,,,,240,0,4,,,,3,,,95,64
348720,note_on,,,,,0,0,4,,,,3,,,84,79
348720,note_off,,,,,0,0,4,,,,3,,,87,64
348960,note_on,,,,,0,0,2,,,,1,,,49,121
348960,note_off,,,,,0,0,4,,,,3,,,88,64
348960,note_off,,,,,0,0,2,,,,1,,,50,64
348960,note_off,,,,,240,0,2,,,,1,,,38,64
348960,note_on,,,,,0,0,4,,,,3,,,97,103
348960,note_off,,,,,0,0,4,,,,3,,,84,64
348960,note_on,,,,,0,0,4,,,,3,,,89,115
348960,note_off,,,,,240,0,4,,,,3,,,96,64
348960,note_on,,,,,0,0,2,,,,1,,,37,107
348960,note_on,,,,,0,0,4,,,,3,,,85,97
349200,note_off,,,,,0,0,4,,,,3,,,85,64
349200,note_off,,,,,0,0,4,,,,3,,,89,64
349200,note_off,,,,,240,0,2,,,,1,,,37,64
349200,note_off,,,,,240,0,4,,,,3,,,97,64
349200,note_on,,,,,0,0,4,,,,3,,,98,115
349200,note_on,,,,,0,0,4,,,,3,,,90,107
349200,note_on,,,,,0,0,4,,,,3,,,86,103
349200,note_off,,,,,0,0,2,,,,1,,,49,64
349200,note_on,,,,,0,0,2,,,,1,,,48,121
349200,note_on,,,,,0,0,2,,,,1,,,36,118
349440,note_on,,,,,0,0,4,,,,3,,,87,97
349440,note_off,,,,,240,0,4,,,,3,,,98,64
349440,note_on,,,,,0,0,2,,,,1,,,47,121
349440,note_on,,,,,0,0,2,,,,1,,,35,118
349440,note_on,,,,,0,0,4,,,,3,,,99,97
349440,note_on,,,,,0,0,4,,,,3,,,91,115
349440,note_off,,,,,240,0,2,,,,1,,,36,64
349440,note_off,,,,,0,0,4,,,,3,,,90,64
349440,note_off,,,,,0,0,2,,,,1,,,48,64
349440,set_tempo,,,,,910,1,0,400000,,,,,,,
349440,note_off,,,,,0,0,4,,,,3,,,86,64
349680,note_on,,,,,0,0,2,,,,1,,,46,118
349680,note_on,,,,,0,0,2,,,,1,,,34,118
349680,note_off,,,,,0,0,4,,,,3,,,91,64
349680,note_off,,,,,240,0,2,,,,1,,,35,64
349680,note_off,,,,,240,0,4,,,,3,,,99,64
349680,note_on,,,,,0,0,4,,,,3,,,100,103
349680,note_on,,,,,0,0,4,,,,3,,,92,103
349680,note_on,,,,,0,0,4,,,,3,,,88,93
349680,note_off,,,,,0,0,4,,,,3,,,87,64
349680,note_off,,,,,0,0,2,,,,1,,,47,64
349920,note_off,,,,,0,0,4,,,,3,,,92,64
349920,note_on,,,,,0,0,2,,,,1,,,33,107
349920,note_off,,,,,0,0,4,,,,3,,,88,64
349920,note_off,,,,,240,0,4,,,,3,,,100,64
349920,note_off,,,,,240,0,2,,,,1,,,34,64
349920,note_on,,,,,0,0,2,,,,1,,,45,118
349920,note_on,,,,,0,0,4,,,,3,,,89,107
349920,note_on,,,,,0,0,4,,,,3,,,93,115
349920,note_on,,,,,0,0,4,,,,3,,,101,115
349920,note_off,,,,,0,0,2,,,,1,,,46,64
350160,note_off,,,,,0,0,2,,,,1,,,45,64
350160,note_on,,,,,0,0,4,,,,3,,,88,115
350160,note_on,,,,,0,0,4,,,,3,,,100,107
350160,note_on,,,,,0,0,4,,,,3,,,92,121
350160,note_on,,,,,0,0,2,,,,1,,,46,115
350160,note_off,,,,,240,0,4,,,,3,,,101,64
350160,note_off,,,,,0,0,4,,,,3,,,89,64
350160,note_off,,,,,0,0,4,,,,3,,,93,64
350160,note_on,,,,,0,0,2,,,,1,,,34,115
350160,note_off,,,,,240,0,2,,,,1,,,33,64
350400,note_on,,,,,0,0,2,,,,1,,,35,107
350400,note_off,,,,,240,0,2,,,,1,,,34,64
350400,note_off,,,,,0,0,4,,,,3,,,92,64
350400,note_off,,,,,0,0,4,,,,3,,,88,64
350400,note_off,,,,,0,0,2,,,,1,,,46,64
350400,note_on,,,,,0,0,4,,,,3,,,99,107
350400,note_on,,,,,0,0,4,,,,3,,,91,115
350400,note_on,,,,,0,0,4,,,,3,,,87,107
350400,note_on,,,,,0,0,2,,,,1,,,47,118
350400,note_off,,,,,240,0,4,,,,3,,,100,64
350640,note_on,,,,,0,0,4,,,,3,,,86,107
350640,note_on,,,,,0,0,4,,,,3,,,90,118
350640,note_on,,,,,0,0,4,,,,3,,,98,115
350640,note_off,,,,,0,0,4,,,,3,,,91,64
350640,note_off,,,,,0,0,2,,,,1,,,47,64
350640,note_off,,,,,0,0,4,,,,3,,,87,64
350640,note_off,,,,,240,0,2,,,,1,,,35,64
350640,note_on,,,,,0,0,2,,,,1,,,36,118
350640,note_on,,,,,0,0,2,,,,1,,,48,121
350640,note_off,,,,,240,0,4,,,,3,,,99,64
350880,note_on,,,,,0,0,4,,,,3,,,85,107
350880,note_off,,,,,0,0,2,,,,1,,,48,64
350880,note_on,,,,,0,0,4,,,,3,,,89,107
350880,note_on,,,,,0,0,4,,,,3,,,97,107
350880,note_on,,,,,0,0,2,,,,1,,,49,121
350880,note_on,,,,,0,0,2,,,,1,,,37,121
350880,note_off,,,,,240,0,2,,,,1,,,36,64
350880,note_off,,,,,0,0,4,,,,3,,,86,64
350880,note_off,,,,,0,0,4,,,,3,,,90,64
350880,note_off,,,,,240,0,4,,,,3,,,98,64
351120,note_off,,,,,0,0,4,,,,3,,,89,64
351120,note_off,,,,,240,0,2,,,,1,,,37,64
351120,note_off,,,,,0,0,2,,,,1,,,49,64
351120,note_off,,,,,0,0,4,,,,3,,,85,64
351120,note_on,,,,,0,0,4,,,,3,,,84,107
351120,note_on,,,,,0,0,4,,,,3,,,88,118
351120,note_on,,,,,0,0,4,,,,3,,,96,118
351120,note_off,,,,,240,0,4,,,,3,,,97,64
351120,note_on,,,,,0,0,2,,,,1,,,50,121
351120,note_on,,,,,0,0,2,,,,1,,,38,122
351360,note_on,,,,,0,0,4,,,,3,,,95,118
351360,note_on,,,,,0,0,4,,,,3,,,83,118
351360,note_off,,,,,240,0,4,,,,3,,,96,64
351360,note_on,,,,,0,0,4,,,,3,,,87,122
351360,note_off,,,,,0,0,4,,,,3,,,88,64
351360,note_off,,,,,240,0,2,,,,1,,,38,64
351360,note_on,,,,,0,0,2,,,,1,,,51,122
351360,note_on,,,,,0,0,2,,,,1,,,39,122
351360,note_off,,,,,0,0,2,,,,1,,,50,64
351360,note_off,,,,,0,0,4,,,,3,,,84,64
351600,note_on,,,,,0,0,4,,,,3,,,82,118
351600,note_on,,,,,0,0,4,,,,3,,,86,118
351600,note_on,,,,,0,0,4,,,,3,,,94,118
351600,note_off,,,,,0,0,2,,,,1,,,51,64
351600,note_on,,,,,0,0,2,,,,1,,,40,118
351600,note_off,,,,,0,0,4,,,,3,,,87,64
351600,note_off,,,,,0,0,4,,,,3,,,83,64
351600,note_on,,,,,0,0,2,,,,1,,,52,121
351600,note_off,,,,,240,0,2,,,,1,,,39,64
351600,note_off,,,,,240,0,4,,,,3,,,95,64
351840,note_on,,,,,0,0,2,,,,1,,,53,122
351840,note_on,,,,,0,0,2,,,,1,,,41,121
351840,note_on,,,,,0,0,4,,,,3,,,85,121
351840,note_on,,,,,0,0,4,,,,3,,,81,118
351840,note_off,,,,,0,0,4,,,,3,,,86,64
351840,note_off,,,,,0,0,4,,,,3,,,82,64
351840,note_off,,,,,240,0,4,,,,3,,,94,64
351840,note_on,,,,,0,0,4,,,,3,,,93,115
351840,note_off,,,,,240,0,2,,,,1,,,40,64
351840,note_off,,,,,0,0,2,,,,1,,,52,64
352080,note_on,,,,,0,0,2,,,,1,,,52,122
352080,note_off,,,,,0,0,4,,,,3,,,81,64
352080,note_off,,,,,0,0,4,,,,3,,,85,64
352080,note_on,,,,,0,0,2,,,,1,,,40,121
352080,note_off,,,,,240,0,4,,,,3,,,93,64
352080,note_on,,,,,0,0,4,,,,3,,,94,107
352080,note_off,,,,,240,0,2,,,,1,,,41,64
352080,note_on,,,,,0,0,4,,,,3,,,82,121
352080,note_on,,,,,0,0,4,,,,3,,,86,121
352080,note_off,,,,,0,0,2,,,,1,,,53,64
352320,note_on,,,,,0,0,4,,,,3,,,95,118
352320,note_off,,,,,0,0,2,,,,1,,,52,64
352320,note_off,,,,,0,0,4,,,,3,,,82,64
352320,note_off,,,,,240,0,4,,,,3,,,94,64
352320,note_on,,,,,0,0,2,,,,1,,,51,118
352320,note_off,,,,,0,0,4,,,,3,,,86,64
352320,note_off,,,,,240,0,2,,,,1,,,40,64
352320,note_on,,,,,0,0,4,,,,3,,,83,118
352320,note_on,,,,,0,0,4,,,,3,,,87,121
352320,note_on,,,,,0,0,2,,,,1,,,39,122
352560,note_off,,,,,0,0,2,,,,1,,,51,64
352560,note_off,,,,,240,0,2,,,,1,,,39,64
352560,note_off,,,,,0,0,4,,,,3,,,87,64
352560,note_off,,,,,0,0,4,,,,3,,,83,64
352560,note_on,,,,,0,0,2,,,,1,,,50,122
352560,note_on,,,,,0,0,2,,,,1,,,38,118
352560,note_on,,,,,0,0,4,,,,3,,,96,118
352560,note_on,,,,,0,0,4,,,,3,,,88,121
352560,note_on,,,,,0,0,4,,,,3,,,84,115
352560,note_off,,,,,240,0,4,,,,3,,,95,64
352800,note_off,,,,,0,0,4,,,,3,,,88,64
352800,note_off,,,,,0,0,4,,,,3,,,84,64
352800,note_off,,,,,240,0,4,,,,3,,,96,64
352800,note_on,,,,,0,0,2,,,,1,,,37,121
352800,note_on,,,,,0,0,2,,,,1,,,49,121
352800,note_off,,,,,240,0,2,,,,1,,,38,64
352800,note_off,,,,,0,0,2,,,,1,,,50,64
352800,note_on,,,,,0,0,4,,,,3,,,97,107
352800,note_on,,,,,0,0,4,,,,3,,,89,118
352800,note_on,,,,,0,0,4,,,,3,,,85,115
352820,set_tempo,,,,,3380,1,0,405405,,,,,,,
353040,note_off,,,,,240,0,2,,,,1,,,37,64
353040,note_on,,,,,0,0,2,,,,1,,,48,122
353040,note_off,,,,,0,0,2,,,,1,,,49,64
353040,note_on,,,,,0,0,2,,,,1,,,36,121
353040,note_off,,,,,240,0,4,,,,3,,,97,64
353040,note_on,,,,,0,0,4,,,,3,,,98,118
353040,note_on,,,,,0,0,4,,,,3,,,90,118
353040,note_off,,,,,0,0,4,,,,3,,,89,64
353040,note_on,,,,,0,0,4,,,,3,,,86,115
353040,note_off,,,,,0,0,4,,,,3,,,85,64
353280,note_off,,,,,240,0,4,,,,3,,,98,64
353280,note_on,,,,,0,0,4,,,,3,,,99,118
353280,note_off,,,,,240,0,2,,,,1,,,36,64
353280,note_on,,,,,0,0,2,,,,1,,,47,122
353280,note_on,,,,,0,0,2,,,,1,,,35,122
353280,note_on,,,,,0,0,4,,,,3,,,91,121
353280,note_on,,,,,0,0,4,,,,3,,,87,118
353280,note_off,,,,,0,0,4,,,,3,,,86,64
353280,note_off,,,,,0,0,4,,,,3,,,90,64
353280,note_off,,,,,0,0,2,,,,1,,,48,64
353520,note_on,,,,,0,0,2,,,,1,,,34,122
353520,note_on,,,,,0,0,2,,,,1,,,46,122
353520,note_off,,,,,240,0,4,,,,3,,,99,64
353520,note_on,,,,,0,0,4,,,,3,,,100,115
353520,note_off,,,,,240,0,2,,,,1,,,35,64
353520,note_off,,,,,0,0,4,,,,3,,,87,64
353520,note_off,,,,,0,0,4,,,,3,,,91,64
353520,note_off,,,,,0,0,2,,,,1,,,47,64
353520,note_on,,,,,0,0,4,,,,3,,,88,118
353520,note_on,,,,,0,0,4,,,,3,,,92,121
353760,note_on,,,,,0,0,2,,,,1,,,45,122
353760,note_off,,,,,240,0,2,,,,1,,,34,64
353760,note_off,,,,,240,0,4,,,,3,,,100,64
353760,note_on,,,,,0,0,2,,,,1,,,33,122
353760,note_off,,,,,0,0,2,,,,1,,,46,64
353760,note_off,,,,,0,0,4,,,,3,,,92,64
353760,note_on,,,,,0,0,4,,,,3,,,93,115
353760,note_on,,,,,0,0,4,,,,3,,,101,118
353760,note_off,,,,,0,0,4,,,,3,,,88,64
353760,note_on,,,,,0,0,4,,,,3,,,89,118
354000,note_on,,,,,0,0,4,,,,3,,,100,118
354000,note_off,,,,,240,0,4,,,,3,,,101,64
354000,note_on,,,,,0,0,2,,,,1,,,46,122
354000,note_off,,,,,0,0,4,,,,3,,,89,64
354000,note_on,,,,,0,0,4,,,,3,,,88,121
354000,note_on,,,,,0,0,2,,,,1,,,34,121
354000,note_off,,,,,240,0,2,,,,1,,,33,64
354000,note_off,,,,,0,0,4,,,,3,,,93,64
354000,note_on,,,,,0,0,4,,,,3,,,92,122
354000,note_off,,,,,0,0,2,,,,1,,,45,64
354240,note_on,,,,,0,0,4,,,,3,,,87,107
354240,note_on,,,,,0,0,4,,,,3,,,91,118
354240,note_on,,,,,0,0,4,,,,3,,,99,115
354240,note_off,,,,,240,0,2,,,,1,,,34,64
354240,note_off,,,,,0,0,4,,,,3,,,92,64
354240,note_off,,,,,240,0,4,,,,3,,,100,64
354240,note_on,,,,,0,0,2,,,,1,,,47,125
354240,note_off,,,,,0,0,4,,,,3,,,88,64
354240,note_off,,,,,0,0,2,,,,1,,,46,64
354240,note_on,,,,,0,0,2,,,,1,,,35,122
354480,note_off,,,,,0,0,2,,,,1,,,47,64
354480,note_off,,,,,240,0,4,,,,3,,,99,64
354480,note_on,,,,,0,0,2,,,,1,,,36,125
354480,note_on,,,,,0,0,2,,,,1,,,48,125
354480,note_off,,,,,0,0,4,,,,3,,,87,64
354480,note_off,,,,,240,0,2,,,,1,,,35,64
354480,note_off,,,,,0,0,4,,,,3,,,91,64
354480,note_on,,,,,0,0,4,,,,3,,,86,115
354480,note_on,,,,,0,0,4,,,,3,,,90,118
354480,note_on,,,,,0,0,4,,,,3,,,98,118
354710,set_tempo,,,,,1890,1,0,408163,,,,,,,
354720,note_off,,,,,0,0,2,,,,1,,,48,64
354720,note_off,,,,,240,0,2,,,,1,,,36,64
354720,note_off,,,,,0,0,4,,,,3,,,90,64
354720,note_off,,,,,240,0,4,,,,3,,,98,64
354720,note_on,,,,,0,0,4,,,,3,,,89,118
354720,note_on,,,,,0,0,4,,,,3,,,97,115
354720,note_on,,,,,0,0,2,,,,1,,,49,127
354720,note_on,,,,,0,0,2,,,,1,,,44,121
354720,note_on,,,,,0,0,2,,,,1,,,37,107
354720,note_on,,,,,0,0,4,,,,3,,,85,118
354720,note_off,,,,,0,0,4,,,,3,,,86,64
354960,note_on,,,,,0,0,2,,,,1,,,50,122
354960,note_off,,,,,240,0,2,,,,1,,,37,64
354960,note_on,,,,,0,0,2,,,,1,,,38,121
354960,note_off,,,,,0,0,2,,,,1,,,44,64
354960,note_on,,,,,0,0,4,,,,3,,,84,107
354960,note_off,,,,,240,0,4,,,,3,,,97,64
354960,note_off,,,,,0,0,4,,,,3,,,89,64
354960,note_off,,,,,0,0,4,,,,3,,,85,64
354960,note_on,,,,,0,0,4,,,,3,,,90,121
354960,note_on,,,,,0,0,4,,,,3,,,96,118
354960,note_off,,,,,0,0,2,,,,1,,,49,64
355200,note_off,,,,,0,0,4,,,,3,,,90,64
355200,note_off,,,,,0,0,4,,,,3,,,84,64
355200,note_on,,,,,0,0,4,,,,3,,,85,121
355200,note_on,,,,,0,0,4,,,,3,,,89,122
355200,note_on,,,,,0,0,2,,,,1,,,37,118
355200,note_on,,,,,0,0,2,,,,1,,,49,127
355200,note_off,,,,,0,0,2,,,,1,,,50,64
355200,note_off,,,,,240,0,4,,,,3,,,96,64
355200,note_on,,,,,0,0,2,,,,1,,,44,118
355200,note_off,,,,,240,0,2,,,,1,,,38,64
355200,note_on,,,,,0,0,4,,,,3,,,97,118
355440,note_off,,,,,0,0,4,,,,3,,,89,64
355440,note_off,,,,,0,0,2,,,,1,,,44,64
355440,note_off,,,,,0,0,2,,,,1,,,49,64
355440,note_on,,,,,0,0,2,,,,1,,,50,122
355440,note_on,,,,,0,0,2,,,,1,,,38,107
355440,note_off,,,,,0,0,4,,,,3,,,85,64
355440,note_on,,,,,0,0,4,,,,3,,,96,121
355440,note_off,,,,,240,0,2,,,,1,,,37,64
355440,note_on,,,,,0,0,4,,,,3,,,90,122
355440,note_on,,,,,0,0,4,,,,3,,,84,121
355440,note_off,,,,,240,0,4,,,,3,,,97,64
355660,set_tempo,,,,,950,1,0,413793,,,,,,,
355680,note_on,,,,,0,0,2,,,,1,,,49,127
355680,note_off,,,,,240,0,2,,,,1,,,38,64
355680,note_off,,,,,0,0,4,,,,3,,,90,64
355680,note_off,,,,,0,0,4,,,,3,,,84,64
355680,note_on,,,,,0,0,2,,,,1,,,44,121
355680,note_on,,,,,0,0,2,,,,1,,,37,115
355680,note_on,,,,,0,0,4,,,,3,,,85,121
355680,note_on,,,,,0,0,4,,,,3,,,89,122
355680,note_on,,,,,0,0,4,,,,3,,,97,121
355680,note_off,,,,,240,0,4,,,,3,,,96,64
355680,note_off,,,,,0,0,2,,,,1,,,50,64
355920,note_off,,,,,240,0,4,,,,3,,,97,64
355920,note_on,,,,,0,0,4,,,,3,,,96,121
355920,note_on,,,,,0,0,2,,,,1,,,38,121
355920,note_off,,,,,0,0,2,,,,1,,,49,64
355920,note_on,,,,,0,0,4,,,,3,,,90,122
355920,note_on,,,,,0,0,2,,,,1,,,50,125
355920,note_on,,,,,0,0,4,,,,3,,,84,121
355920,note_off,,,,,0,0,4,,,,3,,,89,64
355920,note_off,,,,,0,0,4,,,,3,,,85,64
355920,note_off,,,,,240,0,2,,,,1,,,37,64
355920,note_off,,,,,0,0,2,,,,1,,,44,64
356160,note_off,,,,,0,0,2,,,,1,,,50,64
356160,note_on,,,,,0,0,4,,,,3,,,97,121
356160,note_on,,,,,0,0,4,,,,3,,,89,122
356160,note_off,,,,,240,0,2,,,,1,,,38,64
356160,note_on,,,,,0,0,2,,,,1,,,49,122
356160,note_off,,,,,240,0,4,,,,3,,,96,64
356160,note_on,,,,,0,0,2,,,,1,,,37,118
356160,note_off,,,,,0,0,4,,,,3,,,84,64
356160,note_on,,,,,0,0,4,,,,3,,,85,121
356160,note_off,,,,,0,0,4,,,,3,,,90,64
356160,note_on,,,,,0,0,2,,,,1,,,44,122
356400,note_off,,,,,0,0,2,,,,1,,,49,64
356400,note_off,,,,,0,0,4,,,,3,,,85,64
356400,note_off,,,,,0,0,4,,,,3,,,89,64
356400,note_on,,,,,0,0,2,,,,1,,,60,122
356400,note_on,,,,,0,0,4,,,,3,,,84,118
356400,note_off,,,,,0,0,2,,,,1,,,44,64
356400,note_on,,,,,0,0,4,,,,3,,,72,118
356400,note_off,,,,,240,0,2,,,,1,,,37,64
356400,note_off,,,,,240,0,4,,,,3,,,97,64
356400,note_on,,,,,0,0,2,,,,1,,,48,122
356600,set_tempo,,,,,940,1,0,419580,,,,,,,
356640,note_on,,,,,0,0,4,,,,3,,,73,122
356640,note_off,,,,,240,0,4,,,,3,,,84,64
356640,note_off,,,,,240,0,2,,,,1,,,48,64
356640,note_off,,,,,0,0,4,,,,3,,,72,64
356640,note_on,,,,,0,0,4,,,,3,,,85,118
356640,note_on,,,,,0,0,2,,,,1,,,49,125
356640,note_on,,,,,0,0,2,,,,1,,,61,125
356640,note_off,,,,,0,0,2,,,,1,,,60,64
356790,set_tempo,,,,,190,1,0,413793,,,,,,,
356880,note_off,,,,,0,0,4,,,,3,,,73,64
356880,note_on,,,,,0,0,4,,,,3,,,72,118
356880,note_on,,,,,0,0,4,,,,3,,,84,118
356880,note_off,,,,,240,0,2,,,,1,,,49,64
356880,note_off,,,,,240,0,4,,,,3,,,85,64
356880,note_on,,,,,0,0,2,,,,1,,,60,125
356880,note_off,,,,,0,0,2,,,,1,,,61,64
356880,note_on,,,,,0,0,2,,,,1,,,48,122
357120,note_off,,,,,240,0,2,,,,1,,,48,64
357120,note_off,,,,,0,0,4,,,,3,,,72,64
357120,note_off,,,,,240,0,4,,,,3,,,84,64
357120,note_off,,,,,0,0,2,,,,1,,,60,64
357120,note_on,,,,,0,0,2,,,,1,,,49,122
357120,note_on,,,,,0,0,2,,,,1,,,61,125
357120,note_on,,,,,0,0,4,,,,3,,,85,125
357120,note_on,,,,,0,0,4,,,,3,,,73,125
357180,set_tempo,,,,,390,1,0,408163,,,,,,,
357360,note_on,,,,,0,0,2,,,,1,,,49,122
357360,note_on,,,,,0,0,2,,,,1,,,37,125
357360,note_off,,,,,240,0,4,,,,3,,,85,64
357360,note_off,,,,,240,0,2,,,,1,,,49,64
357360,note_on,,,,,0,0,4,,,,3,,,73,127
357360,note_off,,,,,0,0,4,,,,3,,,73,64
357360,note_on,,,,,0,0,4,,,,3,,,61,125
357360,note_off,,,,,0,0,2,,,,1,,,61,64
357380,set_tempo,,,,,200,1,0,405405,,,,,,,
357600,note_on,,,,,0,0,4,,,,3,,,74,125
357600,note_on,,,,,0,0,4,,,,3,,,62,127
357600,note_off,,,,,240,0,4,,,,3,,,73,64
357600,note_off,,,,,0,0,4,,,,3,,,61,64
357600,note_off,,,,,0,0,2,,,,1,,,49,64
357600,note_on,,,,,0,0,2,,,,1,,,50,122
357600,note_off,,,,,240,0,2,,,,1,,,37,64
357600,note_on,,,,,0,0,2,,,,1,,,38,125
357830,set_tempo,,,,,450,1,0,400000,,,,,,,
357840,note_on,,,,,0,0,4,,,,3,,,75,125
357840,note_on,,,,,0,0,4,,,,3,,,63,122
357840,note_off,,,,,0,0,2,,,,1,,,50,64
357840,note_off,,,,,240,0,4,,,,3,,,74,64
357840,note_off,,,,,0,0,4,,,,3,,,62,64
357840,note_on,,,,,0,0,2,,,,1,,,39,125
357840,note_on,,,,,0,0,2,,,,1,,,51,125
357840,note_off,,,,,240,0,2,,,,1,,,38,64
358070,note_off,,,,,0,0,2,,,,1,,,51,64
358070,note_off,,,,,0,0,4,,,,3,,,63,64
358070,note_off,,,,,230,0,2,,,,1,,,39,64
358070,note_off,,,,,230,0,4,,,,3,,,75,64
358080,note_on,,,,,0,0,2,,,,1,,,52,125
358080,note_on,,,,,10,0,2,,,,1,,,28,121
358080,note_on,,,,,22081,0,1,,,,0,,,76,127
358080,note_on,,,,,0,0,2,,,,1,,,40,121
358080,note_on,,,,,0,0,1,,,,0,,,64,125
358320,note_on,,,,,0,0,3,,,,2,,,59,122
358320,note_on,,,,,0,0,3,,,,2,,,71,125
358320,note_on,,,,,78360,0,3,,,,2,,,56,122
358320,note_on,,,,,0,0,3,,,,2,,,68,122
358440,note_off,,,,,0,0,3,,,,2,,,71,64
358440,note_off,,,,,0,0,3,,,,2,,,68,64
358440,note_off,,,,,0,0,3,,,,2,,,59,64
358440,note_off,,,,,120,0,3,,,,2,,,56,64
358560,note_on,,,,,0,0,2,,,,1,,,32,118
358560,note_on,,,,,0,0,2,,,,1,,,44,118
358560,note_on,,,,,0,0,2,,,,1,,,56,125
358560,note_off,,,,,480,0,2,,,,1,,,28,64
358560,note_off,,,,,480,0,1,,,,0,,,76,64
358560,note_off,,,,,0,0,2,,,,1,,,40,64
358560,note_on,,,,,0,0,1,,,,0,,,80,125
358560,note_off,,,,,0,0,2,,,,1,,,52,64
358560,note_off,,,,,0,0,1,,,,0,,,64,64
358560,note_on,,,,,0,0,1,,,,0,,,68,122
358800,note_on,,,,,0,0,3,,,,2,,,71,125
358800,note_on,,,,,360,0,3,,,,2,,,59,115
358800,note_on,,,,,0,0,3,,,,2,,,76,122
358800,note_on,,,,,0,0,3,,,,2,,,64,122
358920,note_off,,,,,0,0,3,,,,2,,,76,64
358920,note_off,,,,,0,0,3,,,,2,,,71,64
358920,note_off,,,,,120,0,3,,,,2,,,59,64
358920,note_off,,,,,0,0,3,,,,2,,,64,64
359040,note_on,,,,,0,0,2,,,,1,,,61,122
359040,note_off,,,,,480,0,1,,,,0,,,80,64
359040,note_off,,,,,0,0,2,,,,1,,,44,64
359040,note_off,,,,,0,0,2,,,,1,,,56,64
359040,note_on,,,,,0,0,1,,,,0,,,85,122
359040,note_off,,,,,480,0,2,,,,1,,,32,64
359040,note_on,,,,,0,0,1,,,,0,,,73,127
359040,note_on,,,,,0,0,2,,,,1,,,49,122
359040,note_on,,,,,0,0,2,,,,1,,,37,121
359040,note_off,,,,,0,0,1,,,,0,,,68,64
359280,note_on,,,,,0,0,3,,,,2,,,64,115
359280,note_on,,,,,0,0,3,,,,2,,,68,122
359280,note_on,,,,,0,0,3,,,,2,,,76,122
359280,note_on,,,,,360,0,3,,,,2,,,80,125
359400,note_off,,,,,0,0,3,,,,2,,,64,64
359400,note_off,,,,,0,0,3,,,,2,,,68,64
359400,note_off,,,,,120,0,3,,,,2,,,80,64
359400,note_off,,,,,0,0,3,,,,2,,,76,64
359520,note_on,,,,,120,0,3,,,,2,,,80,125
359520,note_on,,,,,0,0,3,,,,2,,,76,121
359520,note_on,,,,,0,0,3,,,,2,,,64,115
359520,note_on,,,,,0,0,3,,,,2,,,68,125
359640,note_off,,,,,120,0,3,,,,2,,,80,64
359640,note_off,,,,,0,0,3,,,,2,,,76,64
359640,note_off,,,,,0,0,3,,,,2,,,68,64
359640,note_off,,,,,0,0,3,,,,2,,,64,64
359760,note_on,,,,,0,0,1,,,,0,,,71,122
359760,note_off,,,,,0,0,1,,,,0,,,73,64
359760,note_off,,,,,0,0,2,,,,1,,,49,64
359760,note_on,,,,,0,0,2,,,,1,,,59,127
359760,note_on,,,,,0,0,2,,,,1,,,35,118
359760,note_off,,,,,720,0,1,,,,0,,,85,64
359760,note_off,,,,,720,0,2,,,,1,,,37,64
359760,note_on,,,,,0,0,2,,,,1,,,47,115
359760,note_on,,,,,0,0,1,,,,0,,,83,125
359760,note_off,,,,,0,0,2,,,,1,,,61,64
359980,set_tempo,,,,,2150,1,0,397350,,,,,,,
360000,note_on,,,,,0,0,2,,,,1,,,57,115
360000,note_off,,,,,0,0,2,,,,1,,,47,64
360000,note_off,,,,,0,0,2,,,,1,,,59,64
360000,note_on,,,,,0,0,2,,,,1,,,49,121
360000,note_on,,,,,0,0,1,,,,0,,,76,121
360000,note_on,,,,,0,0,1,,,,0,,,73,121
360000,note_off,,,,,240,0,2,,,,1,,,35,64
360000,note_off,,,,,240,0,1,,,,0,,,83,64
360000,note_on,,,,,0,0,2,,,,1,,,45,118
360000,note_off,,,,,0,0,1,,,,0,,,71,64
360000,note_on,,,,,0,0,1,,,,0,,,81,115
360000,note_on,,,,,0,0,2,,,,1,,,52,121
360000,note_on,,,,,0,0,1,,,,0,,,69,118
360120,note_off,,,,,120,0,2,,,,1,,,57,64
360120,note_off,,,,,0,0,2,,,,1,,,52,64
360120,note_off,,,,,0,0,2,,,,1,,,49,64
360120,note_off,,,,,0,0,2,,,,1,,,45,64
360120,note_off,,,,,0,0,1,,,,0,,,69,64
360120,note_off,,,,,0,0,1,,,,0,,,73,64
360120,note_off,,,,,0,0,1,,,,0,,,76,64
360120,note_off,,,,,120,0,1,,,,0,,,81,64
360240,note_on,,,,,120,0,1,,,,0,,,80,121
360240,note_on,,,,,120,0,2,,,,1,,,56,118
360240,note_on,,,,,0,0,2,,,,1,,,44,122
360240,note_on,,,,,0,0,1,,,,0,,,68,121
360360,note_off,,,,,120,0,1,,,,0,,,80,64
360360,note_off,,,,,0,0,1,,,,0,,,68,64
360360,note_off,,,,,0,0,2,,,,1,,,44,64
360360,note_off,,,,,120,0,2,,,,1,,,56,64
360480,note_on,,,,,120,0,1,,,,0,,,79,121
360480,note_on,,,,,120,0,2,,,,1,,,55,121
360480,note_on,,,,,0,0,1,,,,0,,,67,118
360480,note_on,,,,,0,0,2,,,,1,,,43,118
360600,note_off,,,,,120,0,1,,,,0,,,79,64
360600,note_off,,,,,120,0,2,,,,1,,,55,64
360600,note_off,,,,,0,0,2,,,,1,,,43,64
360600,note_off,,,,,0,0,1,,,,0,,,67,64
360680,set_tempo,,,,,700,1,0,394736,,,,,,,
360720,note_on,,,,,0,0,2,,,,1,,,49,118
360720,note_on,,,,,0,0,2,,,,1,,,45,121
360720,note_on,,,,,0,0,1,,,,0,,,73,91
360720,note_on,,,,,0,0,2,,,,1,,,54,118
360720,note_on,,,,,0,0,1,,,,0,,,69,121
360720,note_on,,,,,0,0,1,,,,0,,,66,118
360720,note_on,,,,,120,0,2,,,,1,,,42,122
360720,note_on,,,,,120,0,1,,,,0,,,78,107
360840,note_off,,,,,0,0,2,,,,1,,,54,64
360840,note_off,,,,,0,0,2,,,,1,,,45,64
360840,note_off,,,,,0,0,1,,,,0,,,66,64
360840,note_off,,,,,0,0,1,,,,0,,,73,64
360840,note_off,,,,,0,0,1,,,,0,,,69,64
360840,note_off,,,,,0,0,2,,,,1,,,49,64
360840,note_off,,,,,120,0,2,,,,1,,,42,64
360840,note_off,,,,,120,0,1,,,,0,,,78,64
360960,note_on,,,,,120,0,2,,,,1,,,53,121
360960,note_on,,,,,120,0,1,,,,0,,,77,118
360960,note_on,,,,,0,0,1,,,,0,,,65,118
360960,note_on,,,,,0,0,2,,,,1,,,41,118
361080,note_off,,,,,0,0,2,,,,1,,,41,64
361080,note_off,,,,,120,0,2,,,,1,,,53,64
361080,note_off,,,,,120,0,1,,,,0,,,77,64
361080,note_off,,,,,0,0,1,,,,0,,,65,64
361200,note_on,,,,,120,0,1,,,,0,,,76,107
361200,note_on,,,,,0,0,2,,,,1,,,52,121
361200,note_on,,,,,0,0,1,,,,0,,,73,115
361200,note_on,,,,,0,0,1,,,,0,,,69,118
361200,note_on,,,,,0,0,2,,,,1,,,49,122
361200,note_on,,,,,0,0,2,,,,1,,,45,122
361200,note_on,,,,,0,0,1,,,,0,,,64,118
361200,note_on,,,,,120,0,2,,,,1,,,40,125
361220,set_tempo,,,,,540,1,0,389610,,,,,,,
361320,note_off,,,,,0,0,2,,,,1,,,45,64
361320,note_off,,,,,0,0,1,,,,0,,,69,64
361320,note_off,,,,,0,0,1,,,,0,,,64,64
361320,note_off,,,,,0,0,1,,,,0,,,73,64
361320,note_off,,,,,120,0,2,,,,1,,,40,64
361320,note_off,,,,,120,0,1,,,,0,,,76,64
361320,note_off,,,,,0,0,2,,,,1,,,52,64
361320,note_off,,,,,0,0,2,,,,1,,,49,64
361440,note_on,,,,,0,0,1,,,,0,,,63,121
361440,note_on,,,,,0,0,2,,,,1,,,39,121
361440,note_on,,,,,120,0,2,,,,1,,,51,118
361440,note_on,,,,,120,0,1,,,,0,,,75,118
361560,note_off,,,,,0,0,1,,,,0,,,63,64
361560,note_off,,,,,120,0,2,,,,1,,,51,64
361560,note_off,,,,,0,0,2,,,,1,,,39,64
361560,note_off,,,,,120,0,1,,,,0,,,75,64
361680,note_on,,,,,0,0,1,,,,0,,,64,107
361680,note_on,,,,,0,0,1,,,,0,,,69,118
361680,note_on,,,,,0,0,2,,,,1,,,45,118
361680,note_on,,,,,120,0,1,,,,0,,,76,118
361680,note_on,,,,,0,0,1,,,,0,,,73,118
361680,note_on,,,,,0,0,2,,,,1,,,49,122
361680,note_on,,,,,0,0,2,,,,1,,,52,121
361680,note_on,,,,,120,0,2,,,,1,,,40,118
361800,note_off,,,,,0,0,2,,,,1,,,49,64
361800,note_off,,,,,0,0,2,,,,1,,,52,64
361800,note_off,,,,,120,0,1,,,,0,,,76,64
361800,note_off,,,,,120,0,2,,,,1,,,40,64
361800,note_off,,,,,0,0,1,,,,0,,,64,64
361800,note_off,,,,,0,0,1,,,,0,,,69,64
361800,note_off,,,,,0,0,1,,,,0,,,73,64
361800,note_off,,,,,0,0,2,,,,1,,,45,64
361920,note_on,,,,,0,0,2,,,,1,,,52,125
361920,note_on,,,,,120,0,1,,,,0,,,76,118
361920,note_on,,,,,0,0,2,,,,1,,,40,121
361920,note_on,,,,,120,0,2,,,,1,,,28,107
361920,note_on,,,,,0,0,1,,,,0,,,64,118
362160,note_on,,,,,0,0,3,,,,2,,,71,125
362160,note_on,,,,,0,0,3,,,,2,,,59,125
362160,note_on,,,,,0,0,3,,,,2,,,68,122
362160,note_on,,,,,2520,0,3,,,,2,,,56,121
362280,note_off,,,,,0,0,3,,,,2,,,59,64
362280,note_off,,,,,0,0,3,,,,2,,,68,64
362280,note_off,,,,,120,0,3,,,,2,,,56,64
362280,note_off,,,,,0,0,3,,,,2,,,71,64
362400,note_off,,,,,0,0,1,,,,0,,,64,64
362400,note_off,,,,,0,0,2,,,,1,,,52,64
362400,note_off,,,,,0,0,2,,,,1,,,40,64
362400,note_on,,,,,0,0,2,,,,1,,,32,121
362400,note_on,,,,,0,0,2,,,,1,,,44,121
362400,note_on,,,,,0,0,1,,,,0,,,80,122
362400,note_on,,,,,0,0,2,,,,1,,,56,122
362400,note_off,,,,,480,0,1,,,,0,,,76,64
362400,note_off,,,,,480,0,2,,,,1,,,28,64
362400,note_on,,,,,0,0,1,,,,0,,,68,122
362640,note_on,,,,,360,0,3,,,,2,,,59,118
362640,note_on,,,,,0,0,3,,,,2,,,64,121
362640,note_on,,,,,0,0,3,,,,2,,,76,122
362640,note_on,,,,,0,0,3,,,,2,,,71,122
362760,note_off,,,,,0,0,3,,,,2,,,76,64
362760,note_off,,,,,0,0,3,,,,2,,,71,64
362760,note_off,,,,,0,0,3,,,,2,,,64,64
362760,note_off,,,,,120,0,3,,,,2,,,59,64
362880,note_off,,,,,0,0,1,,,,0,,,68,64
362880,note_off,,,,,480,0,2,,,,1,,,32,64
362880,note_off,,,,,0,0,2,,,,1,,,56,64
362880,note_off,,,,,0,0,2,,,,1,,,44,64
362880,note_off,,,,,480,0,1,,,,0,,,80,64
362880,note_on,,,,,0,0,2,,,,1,,,49,121
362880,note_on,,,,,0,0,1,,,,0,,,73,122
362880,note_on,,,,,0,0,1,,,,0,,,85,121
362880,note_on,,,,,0,0,2,,,,1,,,37,115
362880,note_on,,,,,0,0,2,,,,1,,,61,122
363120,note_on,,,,,0,0,3,,,,2,,,76,122
363120,note_on,,,,,0,0,3,,,,2,,,68,118
363120,note_on,,,,,0,0,3,,,,2,,,64,121
363120,note_on,,,,,360,0,3,,,,2,,,80,125
363240,note_off,,,,,0,0,3,,,,2,,,64,64
363240,note_off,,,,,0,0,3,,,,2,,,68,64
363240,note_off,,,,,120,0,3,,,,2,,,80,64
363240,note_off,,,,,0,0,3,,,,2,,,76,64
363360,note_on,,,,,120,0,3,,,,2,,,80,125
363360,note_on,,,,,0,0,3,,,,2,,,64,122
363360,note_on,,,,,0,0,3,,,,2,,,68,122
363360,note_on,,,,,0,0,3,,,,2,,,76,122
363480,note_off,,,,,120,0,3,,,,2,,,80,64
363480,note_off,,,,,0,0,3,,,,2,,,64,64
363480,note_off,,,,,0,0,3,,,,2,,,68,64
363480,note_off,,,,,0,0,3,,,,2,,,76,64
363600,note_on,,,,,0,0,1,,,,0,,,71,118
363600,note_off,,,,,0,0,1,,,,0,,,73,64
363600,note_on,,,,,0,0,1,,,,0,,,83,121
363600,note_off,,,,,0,0,2,,,,1,,,49,64
363600,note_on,,,,,0,0,2,,,,1,,,35,121
363600,note_on,,,,,0,0,2,,,,1,,,47,118
363600,note_off,,,,,0,0,2,,,,1,,,61,64
363600,note_off,,,,,720,0,1,,,,0,,,85,64
363600,note_off,,,,,720,0,2,,,,1,,,37,64
363600,note_on,,,,,0,0,2,,,,1,,,59,125
363840,note_off,,,,,0,0,2,,,,1,,,47,64
363840,note_on,,,,,0,0,2,,,,1,,,57,115
363840,note_on,,,,,0,0,2,,,,1,,,52,122
363840,note_on,,,,,0,0,2,,,,1,,,49,122
363840,note_on,,,,,0,0,2,,,,1,,,45,115
363840,note_off,,,,,0,0,2,,,,1,,,59,64
363840,note_off,,,,,240,0,1,,,,0,,,83,64
363840,note_on,,,,,0,0,1,,,,0,,,73,121
363840,note_on,,,,,0,0,1,,,,0,,,76,121
363840,note_on,,,,,0,0,1,,,,0,,,81,115
363840,note_off,,,,,0,0,1,,,,0,,,71,64
363840,set_tempo,,,,,2620,1,0,384615,,,,,,,
363840,note_off,,,,,240,0,2,,,,1,,,35,64
363840,note_on,,,,,0,0,1,,,,0,,,69,118
363960,note_off,,,,,0,0,2,,,,1,,,45,64
363960,note_off,,,,,120,0,2,,,,1,,,57,64
363960,note_off,,,,,0,0,2,,,,1,,,52,64
363960,note_off,,,,,0,0,2,,,,1,,,49,64
363960,note_off,,,,,0,0,1,,,,0,,,76,64
363960,note_off,,,,,0,0,1,,,,0,,,69,64
363960,note_off,,,,,0,0,1,,,,0,,,73,64
363960,note_off,,,,,120,0,1,,,,0,,,81,64
364080,note_on,,,,,120,0,2,,,,1,,,56,118
364080,note_on,,,,,0,0,1,,,,0,,,68,122
364080,note_on,,,,,120,0,1,,,,0,,,80,118
364080,note_on,,,,,0,0,2,,,,1,,,44,121
364200,note_off,,,,,120,0,2,,,,1,,,56,64
364200,note_off,,,,,0,0,1,,,,0,,,68,64
364200,note_off,,,,,0,0,2,,,,1,,,44,64
364200,note_off,,,,,120,0,1,,,,0,,,80,64
364320,note_on,,,,,120,0,2,,,,1,,,54,122
364320,note_on,,,,,0,0,1,,,,0,,,66,121
364320,note_on,,,,,120,0,1,,,,0,,,78,121
364320,note_on,,,,,0,0,2,,,,1,,,42,118
364440,note_off,,,,,120,0,2,,,,1,,,54,64
364440,note_off,,,,,0,0,1,,,,0,,,66,64
364440,note_off,,,,,120,0,1,,,,0,,,78,64
364440,note_off,,,,,0,0,2,,,,1,,,42,64
364560,note_on,,,,,120,0,2,,,,1,,,40,121
364560,note_on,,,,,0,0,2,,,,1,,,52,121
364560,note_on,,,,,0,0,1,,,,0,,,73,122
364560,note_on,,,,,0,0,1,,,,0,,,64,121
364560,note_on,,,,,0,0,2,,,,1,,,49,122
364560,note_on,,,,,0,0,2,,,,1,,,45,121
364560,note_on,,,,,0,0,1,,,,0,,,69,122
364560,note_on,,,,,120,0,1,,,,0,,,76,115
364680,note_off,,,,,120,0,2,,,,1,,,40,64
364680,note_off,,,,,0,0,1,,,,0,,,73,64
364680,note_off,,,,,120,0,1,,,,0,,,76,64
364680,note_off,,,,,0,0,1,,,,0,,,69,64
364680,note_off,,,,,0,0,1,,,,0,,,64,64
364680,note_off,,,,,0,0,2,,,,1,,,45,64
364680,note_off,,,,,0,0,2,,,,1,,,49,64
364680,note_off,,,,,0,0,2,,,,1,,,52,64
364800,note_on,,,,,0,0,2,,,,1,,,57,121
364800,note_on,,,,,0,0,2,,,,1,,,52,122
364800,note_on,,,,,120,0,2,,,,1,,,33,127
364800,note_on,,,,,0,0,2,,,,1,,,45,118
364800,note_on,,,,,120,0,1,,,,0,,,81,121
364800,note_on,,,,,0,0,1,,,,0,,,76,122
364800,note_on,,,,,0,0,1,,,,0,,,73,121
364800,note_on,,,,,0,0,2,,,,1,,,49,122
364800,note_on,,,,,0,0,1,,,,0,,,69,121
365260,set_tempo,,,,,1420,1,0,382165,,,,,,,
365280,note_off,,,,,0,0,2,,,,1,,,49,64
365280,note_off,,,,,0,0,2,,,,1,,,45,64
365280,note_off,,,,,0,0,1,,,,0,,,76,64
365280,note_off,,,,,0,0,1,,,,0,,,69,64
365280,note_on,,,,,0,0,2,,,,1,,,61,115
365280,note_on,,,,,0,0,1,,,,0,,,85,125
365280,note_on,,,,,0,0,1,,,,0,,,81,121
365280,note_on,,,,,0,0,1,,,,0,,,76,125
365280,note_on,,,,,0,0,1,,,,0,,,73,122
365280,note_off,,,,,0,0,2,,,,1,,,52,64
365280,note_on,,,,,0,0,2,,,,1,,,57,115
365280,note_on,,,,,0,0,2,,,,1,,,52,118
365280,note_on,,,,,0,0,2,,,,1,,,49,121
365280,note_off,,,,,480,0,1,,,,0,,,81,64
365280,note_off,,,,,480,0,2,,,,1,,,33,64
365280,note_off,,,,,0,0,1,,,,0,,,73,64
365280,note_off,,,,,0,0,2,,,,1,,,57,64
365280,note_on,,,,,0,0,2,,,,1,,,37,125
365730,set_tempo,,,,,470,1,0,377358,,,,,,,
365750,note_off,,,,,0,0,2,,,,1,,,57,64
365750,note_off,,,,,0,0,1,,,,0,,,81,64
365750,note_off,,,,,470,0,1,,,,0,,,85,64
365750,note_off,,,,,470,0,2,,,,1,,,61,64
365750,note_off,,,,,0,0,1,,,,0,,,73,64
365750,note_off,,,,,0,0,1,,,,0,,,76,64
365750,note_off,,,,,0,0,2,,,,1,,,37,64
365750,note_off,,,,,0,0,2,,,,1,,,49,64
365750,note_off,,,,,0,0,2,,,,1,,,52,64
365760,note_on,,,,,0,0,2,,,,1,,,52,125
365760,note_on,,,,,7690,0,4,,,,3,,,92,122
365760,note_on,,,,,0,0,4,,,,3,,,86,118
365760,note_on,,,,,0,0,2,,,,1,,,40,122
365760,note_on,,,,,10,0,2,,,,1,,,28,121
365880,note_off,,,,,120,0,4,,,,3,,,92,64
365880,note_off,,,,,120,0,2,,,,1,,,28,64
365880,note_on,,,,,0,0,4,,,,3,,,100,121
365880,note_off,,,,,0,0,4,,,,3,,,86,64
365880,note_off,,,,,0,0,2,,,,1,,,52,64
365880,note_off,,,,,0,0,2,,,,1,,,40,64
366000,note_off,,,,,120,0,4,,,,3,,,100,64
366000,note_on,,,,,0,0,4,,,,3,,,88,115
366000,note_on,,,,,120,0,2,,,,1,,,64,122
366000,note_on,,,,,0,0,4,,,,3,,,95,121
366000,note_on,,,,,0,0,2,,,,1,,,52,121
366120,note_off,,,,,0,0,4,,,,3,,,88,64
366120,note_off,,,,,120,0,4,,,,3,,,95,64
366120,note_on,,,,,0,0,4,,,,3,,,100,121
366240,note_on,,,,,0,0,2,,,,1,,,59,127
366240,note_on,,,,,0,0,2,,,,1,,,47,115
366240,note_on,,,,,0,0,4,,,,3,,,92,122
366240,note_on,,,,,0,0,4,,,,3,,,86,115
366240,note_on,,,,,0,0,2,,,,1,,,35,121
366240,note_off,,,,,0,0,2,,,,1,,,52,64
366240,note_off,,,,,240,0,2,,,,1,,,64,64
366240,note_off,,,,,120,0,4,,,,3,,,100,64
366360,note_off,,,,,120,0,2,,,,1,,,35,64
366360,note_off,,,,,120,0,4,,,,3,,,92,64
366360,note_off,,,,,0,0,2,,,,1,,,59,64
366360,note_off,,,,,0,0,4,,,,3,,,86,64
366360,note_on,,,,,0,0,4,,,,3,,,100,121
366360,note_off,,,,,0,0,2,,,,1,,,47,64
366480,note_on,,,,,0,0,2,,,,1,,,44,118
366480,note_on,,,,,0,0,4,,,,3,,,95,122
366480,note_on,,,,,120,0,2,,,,1,,,56,122
366480,note_off,,,,,120,0,4,,,,3,,,100,64
366480,note_on,,,,,0,0,4,,,,3,,,88,121
366600,note_off,,,,,120,0,4,,,,3,,,95,64
366600,note_off,,,,,0,0,4,,,,3,,,88,64
366600,note_on,,,,,0,0,4,,,,3,,,100,122
366720,note_on,,,,,0,0,4,,,,3,,,92,122
366720,note_on,,,,,0,0,4,,,,3,,,86,121
366720,note_off,,,,,120,0,4,,,,3,,,100,64
366720,note_off,,,,,0,0,2,,,,1,,,44,64
366720,note_on,,,,,0,0,2,,,,1,,,64,125
366720,note_on,,,,,0,0,2,,,,1,,,40,115
366720,note_off,,,,,240,0,2,,,,1,,,56,64
366720,note_on,,,,,0,0,2,,,,1,,,52,121
366840,note_on,,,,,0,0,4,,,,3,,,100,122
366840,note_off,,,,,120,0,2,,,,1,,,64,64
366840,note_off,,,,,0,0,2,,,,1,,,40,64
366840,note_off,,,,,120,0,4,,,,3,,,92,64
366840,note_off,,,,,0,0,2,,,,1,,,52,64
366840,note_off,,,,,0,0,4,,,,3,,,86,64
366960,note_on,,,,,0,0,2,,,,1,,,61,121
366960,note_on,,,,,120,0,2,,,,1,,,73,118
366960,note_off,,,,,120,0,4,,,,3,,,100,64
366960,note_on,,,,,0,0,4,,,,3,,,95,125
366960,note_on,,,,,0,0,4,,,,3,,,88,118
367080,note_off,,,,,0,0,4,,,,3,,,88,64
367080,note_on,,,,,0,0,4,,,,3,,,100,125
367080,note_off,,,,,120,0,4,,,,3,,,95,64
367200,note_on,,,,,0,0,4,,,,3,,,86,118
367200,note_on,,,,,0,0,4,,,,3,,,92,125
367200,note_off,,,,,120,0,4,,,,3,,,100,64
367320,note_on,,,,,0,0,4,,,,3,,,100,122
367320,note_off,,,,,0,0,4,,,,3,,,86,64
367320,note_off,,,,,120,0,4,,,,3,,,92,64
367440,note_on,,,,,0,0,2,,,,1,,,71,122
367440,note_on,,,,,0,0,2,,,,1,,,59,121
367440,note_off,,,,,120,0,4,,,,3,,,100,64
367440,note_off,,,,,480,0,2,,,,1,,,73,64
367440,note_on,,,,,0,0,4,,,,3,,,88,118
367440,note_off,,,,,0,0,2,,,,1,,,61,64
367440,note_on,,,,,0,0,4,,,,3,,,95,122
367560,note_off,,,,,120,0,4,,,,3,,,95,64
367560,note_off,,,,,0,0,4,,,,3,,,88,64
367560,note_on,,,,,0,0,4,,,,3,,,100,125
367680,note_off,,,,,0,0,2,,,,1,,,59,64
367680,note_on,,,,,0,0,2,,,,1,,,69,121
367680,note_on,,,,,0,0,2,,,,1,,,57,118
367680,note_off,,,,,240,0,2,,,,1,,,71,64
367680,note_on,,,,,0,0,4,,,,3,,,85,115
367680,note_off,,,,,120,0,4,,,,3,,,100,64
367680,note_on,,,,,0,0,4,,,,3,,,93,118
367800,note_on,,,,,0,0,4,,,,3,,,100,125
367800,note_off,,,,,120,0,4,,,,3,,,93,64
367800,note_off,,,,,0,0,4,,,,3,,,85,64
367800,note_off,,,,,120,0,2,,,,1,,,69,64
367800,note_off,,,,,0,0,2,,,,1,,,57,64
367920,note_on,,,,,0,0,4,,,,3,,,88,118
367920,note_off,,,,,120,0,4,,,,3,,,100,64
367920,note_on,,,,,120,0,2,,,,1,,,68,118
367920,note_on,,,,,0,0,4,,,,3,,,97,118
367920,note_on,,,,,0,0,2,,,,1,,,56,118
368040,note_on,,,,,0,0,4,,,,3,,,100,122
368040,note_off,,,,,0,0,2,,,,1,,,56,64
368040,note_off,,,,,120,0,2,,,,1,,,68,64
368040,note_off,,,,,120,0,4,,,,3,,,97,64
368040,note_off,,,,,0,0,4,,,,3,,,88,64
368160,note_on,,,,,120,0,2,,,,1,,,67,121
368160,note_on,,,,,0,0,4,,,,3,,,93,115
368160,note_on,,,,,0,0,4,,,,3,,,85,118
368160,note_on,,,,,0,0,2,,,,1,,,55,121
368160,note_off,,,,,120,0,4,,,,3,,,100,64
368280,note_off,,,,,0,0,4,,,,3,,,85,64
368280,note_off,,,,,120,0,2,,,,1,,,67,64
368280,note_off,,,,,120,0,4,,,,3,,,93,64
368280,note_off,,,,,0,0,2,,,,1,,,55,64
368280,note_on,,,,,0,0,4,,,,3,,,100,122
368400,note_off,,,,,120,0,4,,,,3,,,100,64
368400,note_on,,,,,0,0,2,,,,1,,,54,121
368400,note_on,,,,,0,0,4,,,,3,,,88,118
368400,note_on,,,,,120,0,2,,,,1,,,66,118
368400,note_on,,,,,0,0,4,,,,3,,,97,121
368520,note_off,,,,,120,0,4,,,,3,,,97,64
368520,note_off,,,,,0,0,4,,,,3,,,88,64
368520,note_on,,,,,0,0,4,,,,3,,,100,122
368520,note_off,,,,,0,0,2,,,,1,,,54,64
368520,note_off,,,,,120,0,2,,,,1,,,66,64
368640,note_on,,,,,0,0,4,,,,3,,,85,107
368640,note_off,,,,,120,0,4,,,,3,,,100,64
368640,note_on,,,,,0,0,4,,,,3,,,93,118
368640,note_on,,,,,0,0,2,,,,1,,,53,118
368640,note_on,,,,,120,0,2,,,,1,,,65,118
368760,note_on,,,,,0,0,4,,,,3,,,100,122
368760,note_off,,,,,0,0,2,,,,1,,,53,64
368760,note_off,,,,,120,0,4,,,,3,,,93,64
368760,note_off,,,,,120,0,2,,,,1,,,65,64
368760,note_off,,,,,0,0,4,,,,3,,,85,64
368880,note_off,,,,,120,0,4,,,,3,,,100,64
368880,note_on,,,,,120,0,2,,,,1,,,64,122
368880,note_on,,,,,0,0,2,,,,1,,,52,118
368880,note_on,,,,,0,0,4,,,,3,,,88,115
368880,note_on,,,,,0,0,4,,,,3,,,97,122
369000,note_off,,,,,120,0,4,,,,3,,,97,64
369000,note_off,,,,,120,0,2,,,,1,,,64,64
369000,note_off,,,,,0,0,4,,,,3,,,88,64
369000,note_off,,,,,0,0,2,,,,1,,,52,64
369000,note_on,,,,,0,0,4,,,,3,,,100,125
369120,note_on,,,,,0,0,2,,,,1,,,49,121
369120,note_on,,,,,0,0,4,,,,3,,,85,115
369120,note_on,,,,,0,0,4,,,,3,,,93,118
369120,note_off,,,,,120,0,4,,,,3,,,100,64
369120,note_on,,,,,120,0,2,,,,1,,,61,115
369240,note_off,,,,,0,0,2,,,,1,,,49,64
369240,note_on,,,,,0,0,4,,,,3,,,100,125
369240,note_off,,,,,0,0,4,,,,3,,,85,64
369240,note_off,,,,,120,0,4,,,,3,,,93,64
369240,note_off,,,,,120,0,2,,,,1,,,61,64
369360,note_on,,,,,0,0,2,,,,1,,,45,118
369360,note_off,,,,,120,0,4,,,,3,,,100,64
369360,note_on,,,,,0,0,4,,,,3,,,88,118
369360,note_on,,,,,0,0,4,,,,3,,,97,118
369360,note_on,,,,,120,0,2,,,,1,,,57,122
369480,note_on,,,,,0,0,4,,,,3,,,100,122
369480,note_off,,,,,120,0,2,,,,1,,,57,64
369480,note_off,,,,,120,0,4,,,,3,,,97,64
369480,note_off,,,,,0,0,4,,,,3,,,88,64
369480,note_off,,,,,0,0,2,,,,1,,,45,64
369600,note_on,,,,,0,0,2,,,,1,,,40,121
369600,note_on,,,,,0,0,4,,,,3,,,92,122
369600,note_on,,,,,0,0,4,,,,3,,,86,118
369600,note_on,,,,,120,0,2,,,,1,,,28,115
369600,note_off,,,,,120,0,4,,,,3,,,100,64
369600,note_on,,,,,0,0,2,,,,1,,,52,125
369720,note_off,,,,,0,0,2,,,,1,,,52,64
369720,note_on,,,,,0,0,4,,,,3,,,100,125
369720,note_off,,,,,120,0,2,,,,1,,,28,64
369720,note_off,,,,,0,0,2,,,,1,,,40,64
369720,note_off,,,,,0,0,4,,,,3,,,86,64
369720,note_off,,,,,120,0,4,,,,3,,,92,64
369840,note_off,,,,,120,0,4,,,,3,,,100,64
369840,note_on,,,,,0,0,4,,,,3,,,88,115
369840,note_on,,,,,0,0,4,,,,3,,,95,122
369840,note_on,,,,,120,0,2,,,,1,,,64,125
369840,note_on,,,,,0,0,2,,,,1,,,52,122
369960,note_off,,,,,0,0,4,,,,3,,,88,64
369960,note_off,,,,,120,0,4,,,,3,,,95,64
369960,note_on,,,,,0,0,4,,,,3,,,100,122
370080,note_on,,,,,0,0,4,,,,3,,,86,118
370080,note_on,,,,,0,0,4,,,,3,,,92,121
370080,note_off,,,,,120,0,4,,,,3,,,100,64
370080,note_on,,,,,0,0,2,,,,1,,,59,125
370080,note_on,,,,,0,0,2,,,,1,,,47,122
370080,note_off,,,,,0,0,2,,,,1,,,52,64
370080,note_off,,,,,240,0,2,,,,1,,,64,64
370080,note_on,,,,,0,0,2,,,,1,,,35,107
370200,note_off,,,,,0,0,2,,,,1,,,47,64
370200,note_off,,,,,120,0,4,,,,3,,,92,64
370200,note_off,,,,,120,0,2,,,,1,,,35,64
370200,note_on,,,,,0,0,4,,,,3,,,100,125
370200,note_off,,,,,0,0,4,,,,3,,,86,64
370200,note_off,,,,,0,0,2,,,,1,,,59,64
370320,note_on,,,,,0,0,4,,,,3,,,95,122
370320,note_off,,,,,120,0,4,,,,3,,,100,64
370320,note_on,,,,,0,0,2,,,,1,,,56,122
370320,note_on,,,,,0,0,4,,,,3,,,88,118
370320,note_on,,,,,120,0,2,,,,1,,,68,125
370440,note_off,,,,,0,0,4,,,,3,,,88,64
370440,note_on,,,,,0,0,4,,,,3,,,100,122
370440,note_off,,,,,120,0,4,,,,3,,,95,64
370560,note_off,,,,,240,0,2,,,,1,,,68,64
370560,note_off,,,,,0,0,2,,,,1,,,56,64
370560,note_on,,,,,0,0,2,,,,1,,,64,125
370560,note_on,,,,,0,0,2,,,,1,,,52,122
370560,note_off,,,,,120,0,4,,,,3,,,100,64
370560,note_on,,,,,0,0,2,,,,1,,,40,121
370560,note_on,,,,,0,0,4,,,,3,,,86,121
370560,note_on,,,,,0,0,4,,,,3,,,92,122
370680,note_off,,,,,120,0,2,,,,1,,,64,64
370680,note_off,,,,,120,0,4,,,,3,,,92,64
370680,note_on,,,,,0,0,4,,,,3,,,100,122
370680,note_off,,,,,0,0,4,,,,3,,,86,64
370680,note_off,,,,,0,0,2,,,,1,,,52,64
370680,note_off,,,,,0,0,2,,,,1,,,40,64
370800,note_on,,,,,120,0,2,,,,1,,,73,125
370800,note_on,,,,,0,0,4,,,,3,,,88,118
370800,note_on,,,,,0,0,4,,,,3,,,95,122
370800,note_off,,,,,120,0,4,,,,3,,,100,64
370800,note_on,,,,,0,0,2,,,,1,,,61,125
370920,note_on,,,,,0,0,4,,,,3,,,100,125
370920,note_off,,,,,0,0,4,,,,3,,,88,64
370920,note_off,,,,,120,0,4,,,,3,,,95,64
371040,note_off,,,,,120,0,4,,,,3,,,100,64
371040,note_on,,,,,0,0,4,,,,3,,,92,125
371040,note_on,,,,,0,0,4,,,,3,,,86,118
371160,note_on,,,,,0,0,4,,,,3,,,100,125
371160,note_off,,,,,0,0,4,,,,3,,,86,64
371160,note_off,,,,,120,0,4,,,,3,,,92,64
371280,note_on,,,,,0,0,4,,,,3,,,95,122
371280,note_off,,,,,120,0,4,,,,3,,,100,64
371280,note_on,,,,,0,0,2,,,,1,,,59,125
371280,note_on,,,,,0,0,2,,,,1,,,71,125
371280,note_off,,,,,0,0,2,,,,1,,,61,64
371280,note_off,,,,,480,0,2,,,,1,,,73,64
371280,note_on,,,,,0,0,4,,,,3,,,88,118
371400,note_off,,,,,0,0,4,,,,3,,,88,64
371400,note_on,,,,,0,0,4,,,,3,,,100,125
371400,note_off,,,,,120,0,2,,,,1,,,71,64
371400,note_off,,,,,120,0,4,,,,3,,,95,64
371400,note_off,,,,,0,0,2,,,,1,,,59,64
371520,note_off,,,,,120,0,4,,,,3,,,100,64
371520,note_on,,,,,0,0,4,,,,3,,,93,122
371520,note_on,,,,,0,0,2,,,,1,,,57,125
371520,note_on,,,,,0,0,4,,,,3,,,85,115
371520,note_on,,,,,120,0,2,,,,1,,,69,125
371540,set_tempo,,,,,5810,1,0,382165,,,,,,,
371640,note_off,,,,,0,0,4,,,,3,,,85,64
371640,note_off,,,,,120,0,4,,,,3,,,93,64
371640,note_off,,,,,120,0,2,,,,1,,,69,64
371640,note_off,,,,,0,0,2,,,,1,,,57,64
371640,note_on,,,,,0,0,4,,,,3,,,100,125
371760,note_off,,,,,120,0,4,,,,3,,,100,64
371760,note_on,,,,,0,0,4,,,,3,,,97,121
371760,note_on,,,,,0,0,4,,,,3,,,88,115
371760,note_on,,,,,0,0,2,,,,1,,,56,122
371760,note_on,,,,,120,0,2,,,,1,,,68,122
371880,note_on,,,,,0,0,4,,,,3,,,100,122
371880,note_off,,,,,120,0,2,,,,1,,,68,64
371880,note_off,,,,,0,0,2,,,,1,,,56,64
371880,note_off,,,,,120,0,4,,,,3,,,97,64
371880,note_off,,,,,0,0,4,,,,3,,,88,64
372000,note_off,,,,,120,0,4,,,,3,,,100,64
372000,note_on,,,,,0,0,4,,,,3,,,93,121
372000,note_on,,,,,0,0,2,,,,1,,,55,122
372000,note_on,,,,,120,0,2,,,,1,,,67,127
372000,note_on,,,,,0,0,4,,,,3,,,85,115
372120,note_off,,,,,120,0,4,,,,3,,,93,64
372120,note_on,,,,,0,0,4,,,,3,,,100,125
372120,note_off,,,,,0,0,4,,,,3,,,85,64
372120,note_off,,,,,120,0,2,,,,1,,,67,64
372120,note_off,,,,,0,0,2,,,,1,,,55,64
372240,note_on,,,,,0,0,4,,,,3,,,88,118
372240,note_on,,,,,0,0,4,,,,3,,,97,121
372240,note_on,,,,,120,0,2,,,,1,,,66,125
372240,note_off,,,,,120,0,4,,,,3,,,100,64
372240,note_on,,,,,0,0,2,,,,1,,,54,125
372360,note_on,,,,,0,0,4,,,,3,,,100,125
372360,note_off,,,,,0,0,4,,,,3,,,88,64
372360,note_off,,,,,0,0,2,,,,1,,,54,64
372360,note_off,,,,,120,0,4,,,,3,,,97,64
372360,note_off,,,,,120,0,2,,,,1,,,66,64
372480,note_on,,,,,0,0,4,,,,3,,,85,118
372480,note_off,,,,,120,0,4,,,,3,,,100,64
372480,note_on,,,,,0,0,4,,,,3,,,93,118
372480,note_on,,,,,120,0,2,,,,1,,,65,125
372480,note_on,,,,,0,0,2,,,,1,,,53,125
372600,note_off,,,,,120,0,2,,,,1,,,65,64
372600,note_off,,,,,0,0,2,,,,1,,,53,64
372600,note_off,,,,,120,0,4,,,,3,,,93,64
372600,note_off,,,,,0,0,4,,,,3,,,85,64
372600,note_on,,,,,0,0,4,,,,3,,,100,127
372720,note_off,,,,,120,0,4,,,,3,,,100,64
372720,note_on,,,,,0,0,2,,,,1,,,52,125
372720,note_on,,,,,0,0,4,,,,3,,,97,121
372720,note_on,,,,,0,0,4,,,,3,,,88,118
372720,note_on,,,,,120,0,2,,,,1,,,64,125
372840,note_off,,,,,120,0,2,,,,1,,,64,64
372840,note_off,,,,,120,0,4,,,,3,,,97,64
372840,note_on,,,,,0,0,4,,,,3,,,100,125
372840,note_off,,,,,0,0,2,,,,1,,,52,64
372840,note_off,,,,,0,0,4,,,,3,,,88,64
372950,set_tempo,,,,,1410,1,0,377358,,,,,,,
372960,note_on,,,,,0,0,2,,,,1,,,51,127
372960,note_on,,,,,0,0,4,,,,3,,,85,118
372960,note_on,,,,,0,0,4,,,,3,,,93,118
372960,note_on,,,,,120,0,2,,,,1,,,63,125
372960,note_off,,,,,120,0,4,,,,3,,,100,64
373080,note_off,,,,,120,0,4,,,,3,,,93,64
373080,note_off,,,,,120,0,2,,,,1,,,63,64
373080,note_off,,,,,0,0,2,,,,1,,,51,64
373080,note_off,,,,,0,0,4,,,,3,,,85,64
373080,note_on,,,,,0,0,4,,,,3,,,100,125
373200,note_on,,,,,0,0,4,,,,3,,,88,121
373200,note_on,,,,,0,0,4,,,,3,,,97,121
373200,note_on,,,,,120,0,2,,,,1,,,64,127
373200,note_off,,,,,120,0,4,,,,3,,,100,64
373200,note_on,,,,,0,0,2,,,,1,,,52,122
373320,note_on,,,,,0,0,4,,,,3,,,100,125
373320,note_off,,,,,0,0,4,,,,3,,,88,64
373320,note_off,,,,,120,0,4,,,,3,,,97,64
373320,note_off,,,,,0,0,2,,,,1,,,52,64
373320,note_off,,,,,120,0,2,,,,1,,,64,64
373360,set_tempo,,,,,410,1,0,375000,,,,,,,
373430,note_off,,,,,110,0,4,,,,3,,,100,64
373440,note_on,,,,,0,0,2,,,,1,,,62,112
373440,note_on,,,,,0,0,2,,,,1,,,56,112
373440,note_on,,,,,10,0,4,,,,3,,,98,122
373440,note_on,,,,,0,0,4,,,,3,,,90,121
373440,note_on,,,,,120,0,2,,,,1,,,64,112
373500,note_on,,,,,0,0,4,,,,3,,,100,122
373500,note_off,,,,,0,0,4,,,,3,,,90,64
373500,note_off,,,,,60,0,4,,,,3,,,98,64
373560,note_off,,,,,60,0,4,,,,3,,,100,64
373560,note_on,,,,,0,0,4,,,,3,,,102,125
373620,note_off,,,,,60,0,4,,,,3,,,102,64
373680,note_off,,,,,0,0,2,,,,1,,,56,64
373680,note_on,,,,,0,0,2,,,,1,,,52,112
373680,note_off,,,,,0,0,2,,,,1,,,62,64
373680,note_off,,,,,240,0,2,,,,1,,,64,64
373920,note_off,,,,,240,0,2,,,,1,,,52,64
373920,note_on,,,,,300,0,4,,,,3,,,95,122
373920,note_on,,,,,0,0,4,,,,3,,,86,118
373920,note_on,,,,,0,0,2,,,,1,,,64,115
373920,note_on,,,,,0,0,2,,,,1,,,62,115
373920,note_on,,,,,0,0,2,,,,1,,,56,115
373980,note_on,,,,,0,0,4,,,,3,,,97,122
373980,note_off,,,,,0,0,4,,,,3,,,86,64
373980,note_off,,,,,60,0,4,,,,3,,,95,64
374040,note_off,,,,,60,0,4,,,,3,,,97,64
374040,note_on,,,,,0,0,4,,,,3,,,98,125
374100,note_off,,,,,60,0,4,,,,3,,,98,64
374160,note_on,,,,,0,0,2,,,,1,,,47,115
374160,note_off,,,,,0,0,2,,,,1,,,62,64
374160,note_off,,,,,0,0,2,,,,1,,,56,64
374160,note_off,,,,,240,0,2,,,,1,,,64,64
374400,note_on,,,,,300,0,4,,,,3,,,92,122
374400,note_on,,,,,0,0,2,,,,1,,,56,112
374400,note_on,,,,,0,0,2,,,,1,,,62,115
374400,note_on,,,,,0,0,4,,,,3,,,83,122
374400,note_on,,,,,0,0,2,,,,1,,,64,112
374400,note_off,,,,,240,0,2,,,,1,,,47,64
374460,note_off,,,,,60,0,4,,,,3,,,92,64
374460,note_on,,,,,0,0,4,,,,3,,,93,125
374460,note_off,,,,,0,0,4,,,,3,,,83,64
374520,note_on,,,,,0,0,4,,,,3,,,95,125
374520,note_off,,,,,60,0,4,,,,3,,,93,64
374580,note_off,,,,,60,0,4,,,,3,,,95,64
374640,note_off,,,,,240,0,2,,,,1,,,64,64
374640,note_off,,,,,0,0,2,,,,1,,,56,64
374640,note_off,,,,,0,0,2,,,,1,,,62,64
374640,note_on,,,,,0,0,2,,,,1,,,40,117
374880,note_off,,,,,240,0,2,,,,1,,,40,64
374880,note_on,,,,,0,0,2,,,,1,,,62,115
374880,note_on,,,,,0,0,2,,,,1,,,56,112
374880,note_on,,,,,0,0,2,,,,1,,,64,115
374880,note_on,,,,,0,0,4,,,,3,,,80,121
374880,note_on,,,,,300,0,4,,,,3,,,88,121
374940,note_on,,,,,0,0,4,,,,3,,,90,122
374940,note_off,,,,,60,0,4,,,,3,,,88,64
374940,note_off,,,,,0,0,4,,,,3,,,80,64
375000,note_on,,,,,0,0,4,,,,3,,,92,125
375000,note_off,,,,,60,0,4,,,,3,,,90,64
375060,note_off,,,,,60,0,4,,,,3,,,92,64
375120,note_off,,,,,0,0,2,,,,1,,,62,64
375120,note_off,,,,,0,0,2,,,,1,,,56,64
375120,note_on,,,,,0,0,2,,,,1,,,47,117
375120,note_off,,,,,240,0,2,,,,1,,,64,64
375360,note_on,,,,,0,0,2,,,,1,,,57,111
375360,note_on,,,,,0,0,2,,,,1,,,61,111
375360,note_on,,,,,0,0,2,,,,1,,,64,111
375360,note_on,,,,,300,0,4,,,,3,,,69,125
375360,note_off,,,,,240,0,2,,,,1,,,47,64
375440,note_off,,,,,80,0,4,,,,3,,,69,64
375440,note_on,,,,,0,0,4,,,,3,,,71,125
375520,note_off,,,,,80,0,4,,,,3,,,71,64
375520,note_on,,,,,0,0,4,,,,3,,,73,125
375600,note_on,,,,,0,0,4,,,,3,,,76,122
375600,note_on,,,,,0,0,2,,,,1,,,52,115
375600,note_off,,,,,0,0,2,,,,1,,,57,64
375600,note_off,,,,,0,0,2,,,,1,,,61,64
375600,note_off,,,,,240,0,2,,,,1,,,64,64
375600,note_off,,,,,80,0,4,,,,3,,,73,64
375680,note_on,,,,,0,0,4,,,,3,,,78,122
375680,note_off,,,,,80,0,4,,,,3,,,76,64
375760,note_off,,,,,80,0,4,,,,3,,,78,64
375760,note_on,,,,,0,0,4,,,,3,,,80,122
375840,note_off,,,,,80,0,4,,,,3,,,80,64
375840,note_on,,,,,0,0,2,,,,1,,,57,115
375840,note_off,,,,,240,0,2,,,,1,,,52,64
375840,note_on,,,,,0,0,4,,,,3,,,81,127
375840,note_on,,,,,0,0,2,,,,1,,,64,112
375840,note_on,,,,,0,0,2,,,,1,,,61,112
375920,note_off,,,,,80,0,4,,,,3,,,81,64
375920,note_on,,,,,0,0,4,,,,3,,,83,127
376000,note_on,,,,,0,0,4,,,,3,,,85,127
376000,note_off,,,,,80,0,4,,,,3,,,83,64
376080,note_off,,,,,0,0,2,,,,1,,,57,64
376080,note_off,,,,,0,0,2,,,,1,,,61,64
376080,note_on,,,,,0,0,4,,,,3,,,88,122
376080,note_on,,,,,0,0,2,,,,1,,,49,115
376080,note_off,,,,,240,0,2,,,,1,,,64,64
376080,note_off,,,,,80,0,4,,,,3,,,85,64
376160,note_off,,,,,80,0,4,,,,3,,,88,64
376160,note_on,,,,,0,0,4,,,,3,,,90,125
376240,note_off,,,,,80,0,4,,,,3,,,90,64
376240,note_on,,,,,0,0,4,,,,3,,,92,125
376320,note_on,,,,,0,0,2,,,,1,,,57,112
376320,note_off,,,,,80,0,4,,,,3,,,92,64
376320,note_off,,,,,240,0,2,,,,1,,,49,64
376320,note_on,,,,,0,0,4,,,,3,,,93,122
376320,note_on,,,,,0,0,2,,,,1,,,64,112
376320,note_on,,,,,0,0,2,,,,1,,,61,111
376400,note_off,,,,,80,0,4,,,,3,,,93,64
376400,note_on,,,,,0,0,4,,,,3,,,95,125
376480,note_on,,,,,0,0,4,,,,3,,,97,125
376480,note_off,,,,,80,0,4,,,,3,,,95,64
376560,note_on,,,,,0,0,4,,,,3,,,100,125
376560,note_on,,,,,0,0,2,,,,1,,,40,117
376560,note_off,,,,,0,0,2,,,,1,,,57,64
376560,note_off,,,,,0,0,2,,,,1,,,61,64
376560,note_off,,,,,80,0,4,,,,3,,,97,64
376560,note_off,,,,,240,0,2,,,,1,,,64,64
376640,note_off,,,,,80,0,4,,,,3,,,100,64
376640,note_on,,,,,0,0,4,,,,3,,,102,125
376720,note_off,,,,,80,0,4,,,,3,,,102,64
376720,note_on,,,,,0,0,4,,,,3,,,104,122
376800,note_off,,,,,240,0,2,,,,1,,,40,64
376800,note_on,,,,,0,0,4,,,,3,,,105,125
376800,note_on,,,,,0,0,2,,,,1,,,61,112
376800,note_on,,,,,0,0,2,,,,1,,,57,115
376800,note_off,,,,,80,0,4,,,,3,,,104,64
376800,note_on,,,,,0,0,2,,,,1,,,64,112
376920,note_off,,,,,120,0,4,,,,3,,,105,64
377040,note_off,,,,,240,0,2,,,,1,,,64,64
377040,note_on,,,,,0,0,2,,,,1,,,49,115
377040,note_on,,,,,0,0,4,,,,3,,,93,107
377040,note_off,,,,,0,0,2,,,,1,,,57,64
377040,note_off,,,,,0,0,2,,,,1,,,61,64
377040,note_on,,,,,120,0,4,,,,3,,,97,122
377160,note_off,,,,,0,0,4,,,,3,,,93,64
377160,note_off,,,,,120,0,4,,,,3,,,97,64
377280,note_on,,,,,0,0,2,,,,1,,,62,112
377280,note_on,,,,,120,0,4,,,,3,,,98,122
377280,note_on,,,,,0,0,2,,,,1,,,64,112
377280,note_on,,,,,0,0,4,,,,3,,,90,121
377280,note_on,,,,,0,0,2,,,,1,,,56,115
377280,note_off,,,,,240,0,2,,,,1,,,49,64
377340,note_on,,,,,0,0,4,,,,3,,,100,122
377340,note_off,,,,,0,0,4,,,,3,,,90,64
377340,note_off,,,,,60,0,4,,,,3,,,98,64
377400,note_off,,,,,60,0,4,,,,3,,,100,64
377400,note_on,,,,,0,0,4,,,,3,,,102,125
377460,note_off,,,,,60,0,4,,,,3,,,102,64
377520,note_off,,,,,0,0,2,,,,1,,,56,64
377520,note_off,,,,,240,0,2,,,,1,,,64,64
377520,note_off,,,,,0,0,2,,,,1,,,62,64
377520,note_on,,,,,0,0,2,,,,1,,,52,115
377760,note_on,,,,,0,0,4,,,,3,,,86,118
377760,note_on,,,,,0,0,2,,,,1,,,64,112
377760,note_on,,,,,0,0,2,,,,1,,,62,112
377760,note_off,,,,,240,0,2,,,,1,,,52,64
377760,note_on,,,,,300,0,4,,,,3,,,95,122
377760,note_on,,,,,0,0,2,,,,1,,,56,115
377820,note_off,,,,,60,0,4,,,,3,,,95,64
377820,note_off,,,,,0,0,4,,,,3,,,86,64
377820,note_on,,,,,0,0,4,,,,3,,,97,122
377880,note_off,,,,,60,0,4,,,,3,,,97,64
377880,note_on,,,,,0,0,4,,,,3,,,98,125
377940,note_off,,,,,60,0,4,,,,3,,,98,64
378000,note_off,,,,,240,0,2,,,,1,,,64,64
378000,note_on,,,,,0,0,2,,,,1,,,47,117
378000,note_off,,,,,0,0,2,,,,1,,,56,64
378000,note_off,,,,,0,0,2,,,,1,,,62,64
378240,note_on,,,,,0,0,2,,,,1,,,64,115
378240,note_off,,,,,240,0,2,,,,1,,,47,64
378240,note_on,,,,,300,0,4,,,,3,,,92,122
378240,note_on,,,,,0,0,2,,,,1,,,56,117
378240,note_on,,,,,0,0,2,,,,1,,,62,112
378240,note_on,,,,,0,0,4,,,,3,,,83,122
378300,note_off,,,,,60,0,4,,,,3,,,92,64
378300,note_off,,,,,0,0,4,,,,3,,,83,64
378300,note_on,,,,,0,0,4,,,,3,,,93,125
378360,note_off,,,,,60,0,4,,,,3,,,93,64
378360,note_on,,,,,0,0,4,,,,3,,,95,125
378420,note_off,,,,,60,0,4,,,,3,,,95,64
378480,note_on,,,,,0,0,2,,,,1,,,40,117
378480,note_off,,,,,240,0,2,,,,1,,,64,64
378480,note_off,,,,,0,0,2,,,,1,,,62,64
378480,note_off,,,,,0,0,2,,,,1,,,56,64
378720,note_on,,,,,300,0,4,,,,3,,,88,121
378720,note_on,,,,,0,0,2,,,,1,,,62,115
378720,note_on,,,,,0,0,2,,,,1,,,64,112
378720,note_off,,,,,240,0,2,,,,1,,,40,64
378720,note_on,,,,,0,0,2,,,,1,,,56,115
378720,note_on,,,,,0,0,4,,,,3,,,80,121
378780,note_off,,,,,0,0,4,,,,3,,,80,64
378780,note_on,,,,,0,0,4,,,,3,,,90,122
378780,note_off,,,,,60,0,4,,,,3,,,88,64
378840,note_off,,,,,60,0,4,,,,3,,,90,64
378840,note_on,,,,,0,0,4,,,,3,,,92,125
378900,note_off,,,,,60,0,4,,,,3,,,92,64
378960,note_on,,,,,0,0,2,,,,1,,,47,115
378960,note_off,,,,,240,0,2,,,,1,,,64,64
378960,note_off,,,,,0,0,2,,,,1,,,62,64
378960,note_off,,,,,0,0,2,,,,1,,,56,64
379200,note_on,,,,,0,0,2,,,,1,,,57,112
379200,note_on,,,,,0,0,2,,,,1,,,61,112
379200,note_on,,,,,0,0,2,,,,1,,,64,112
379200,note_off,,,,,240,0,2,,,,1,,,47,64
379200,note_on,,,,,300,0,4,,,,3,,,69,125
379280,note_off,,,,,80,0,4,,,,3,,,69,64
379280,note_on,,,,,0,0,4,,,,3,,,71,125
379360,note_on,,,,,0,0,4,,,,3,,,73,125
379360,note_off,,,,,80,0,4,,,,3,,,71,64
379440,note_off,,,,,0,0,2,,,,1,,,57,64
379440,note_off,,,,,80,0,4,,,,3,,,73,64
379440,note_off,,,,,0,0,2,,,,1,,,61,64
379440,note_off,,,,,240,0,2,,,,1,,,64,64
379440,note_on,,,,,0,0,4,,,,3,,,76,122
379440,note_on,,,,,0,0,2,,,,1,,,52,115
379520,note_off,,,,,80,0,4,,,,3,,,76,64
379520,note_on,,,,,0,0,4,,,,3,,,78,122
379600,note_on,,,,,0,0,4,,,,3,,,80,122
379600,note_off,,,,,80,0,4,,,,3,,,78,64
379680,note_on,,,,,0,0,4,,,,3,,,81,127
379680,note_on,,,,,0,0,2,,,,1,,,64,112
379680,note_on,,,,,0,0,2,,,,1,,,57,117
379680,note_off,,,,,80,0,4,,,,3,,,80,64
379680,note_on,,,,,0,0,2,,,,1,,,61,112
379680,note_off,,,,,240,0,2,,,,1,,,52,64
379760,note_on,,,,,0,0,4,,,,3,,,83,127
379760,note_off,,,,,80,0,4,,,,3,,,81,64
379840,note_off,,,,,80,0,4,,,,3,,,83,64
379840,note_on,,,,,0,0,4,,,,3,,,85,127
379920,note_off,,,,,0,0,2,,,,1,,,57,64
379920,note_off,,,,,80,0,4,,,,3,,,85,64
379920,note_on,,,,,0,0,2,,,,1,,,49,115
379920,note_off,,,,,240,0,2,,,,1,,,64,64
379920,note_off,,,,,0,0,2,,,,1,,,61,64
379920,note_on,,,,,0,0,4,,,,3,,,88,122
380000,note_off,,,,,80,0,4,,,,3,,,88,64
380000,note_on,,,,,0,0,4,,,,3,,,90,125
380080,note_off,,,,,80,0,4,,,,3,,,90,64
380080,note_on,,,,,0,0,4,,,,3,,,92,125
380160,note_on,,,,,0,0,2,,,,1,,,61,112
380160,note_on,,,,,0,0,2,,,,1,,,64,115
380160,note_on,,,,,0,0,2,,,,1,,,57,115
380160,note_off,,,,,80,0,4,,,,3,,,92,64
380160,note_on,,,,,0,0,4,,,,3,,,93,122
380160,note_off,,,,,240,0,2,,,,1,,,49,64
380240,note_off,,,,,80,0,4,,,,3,,,93,64
380240,note_on,,,,,0,0,4,,,,3,,,95,125
380320,note_on,,,,,0,0,4,,,,3,,,97,125
380320,note_off,,,,,80,0,4,,,,3,,,95,64
380400,note_on,,,,,0,0,4,,,,3,,,100,125
380400,note_off,,,,,0,0,2,,,,1,,,57,64
380400,note_off,,,,,240,0,2,,,,1,,,64,64
380400,note_on,,,,,0,0,2,,,,1,,,40,115
380400,note_off,,,,,80,0,4,,,,3,,,97,64
380400,note_off,,,,,0,0,2,,,,1,,,61,64
380480,note_off,,,,,80,0,4,,,,3,,,100,64
380480,note_on,,,,,0,0,4,,,,3,,,102,125
380560,note_off,,,,,80,0,4,,,,3,,,102,64
380560,note_on,,,,,0,0,4,,,,3,,,104,122
380640,note_off,,,,,80,0,4,,,,3,,,104,64
380640,note_on,,,,,0,0,2,,,,1,,,64,115
380640,note_on,,,,,0,0,2,,,,1,,,61,112
380640,note_on,,,,,0,0,2,,,,1,,,57,117
380640,note_off,,,,,240,0,2,,,,1,,,40,64
380640,note_on,,,,,0,0,4,,,,3,,,105,125
380760,note_off,,,,,120,0,4,,,,3,,,105,64
380880,note_off,,,,,240,0,2,,,,1,,,64,64
380880,note_on,,,,,0,0,2,,,,1,,,49,115
380880,note_off,,,,,0,0,2,,,,1,,,61,64
380880,note_off,,,,,0,0,2,,,,1,,,57,64
381110,note_off,,,,,230,0,2,,,,1,,,49,64
381120,note_on,,,,,360,0,4,,,,3,,,95,121
381120,note_on,,,,,10,0,2,,,,1,,,65,122
381120,note_on,,,,,0,0,2,,,,1,,,61,122
381120,note_on,,,,,0,0,4,,,,3,,,87,118
381120,note_on,,,,,0,0,2,,,,1,,,56,122
381180,note_off,,,,,60,0,4,,,,3,,,95,64
381180,note_on,,,,,0,0,4,,,,3,,,97,125
381180,note_off,,,,,0,0,4,,,,3,,,87,64
381240,note_off,,,,,60,0,4,,,,3,,,97,64
381240,note_on,,,,,0,0,4,,,,3,,,99,125
381300,note_off,,,,,60,0,4,,,,3,,,99,64
381360,note_on,,,,,0,0,2,,,,1,,,49,122
381360,note_off,,,,,0,0,2,,,,1,,,56,64
381360,note_off,,,,,240,0,2,,,,1,,,65,64
381360,note_off,,,,,0,0,2,,,,1,,,61,64
381600,note_on,,,,,0,0,4,,,,3,,,83,121
381600,note_on,,,,,0,0,2,,,,1,,,56,122
381600,note_on,,,,,0,0,2,,,,1,,,61,121
381600,note_on,,,,,0,0,2,,,,1,,,65,122
381600,note_on,,,,,300,0,4,,,,3,,,92,122
381600,note_off,,,,,240,0,2,,,,1,,,49,64
381660,note_off,,,,,0,0,4,,,,3,,,83,64
381660,note_on,,,,,0,0,4,,,,3,,,94,122
381660,note_off,,,,,60,0,4,,,,3,,,92,64
381720,note_on,,,,,0,0,4,,,,3,,,95,127
381720,note_off,,,,,60,0,4,,,,3,,,94,64
381780,note_off,,,,,60,0,4,,,,3,,,95,64
381840,note_off,,,,,0,0,2,,,,1,,,61,64
381840,note_off,,,,,0,0,2,,,,1,,,56,64
381840,note_on,,,,,0,0,2,,,,1,,,44,125
381840,note_off,,,,,240,0,2,,,,1,,,65,64
382080,note_on,,,,,0,0,2,,,,1,,,61,122
382080,note_on,,,,,0,0,2,,,,1,,,56,125
382080,note_on,,,,,0,0,2,,,,1,,,65,122
382080,note_off,,,,,240,0,2,,,,1,,,44,64
382080,note_on,,,,,300,0,4,,,,3,,,88,122
382080,note_on,,,,,0,0,4,,,,3,,,80,121
382140,note_off,,,,,60,0,4,,,,3,,,88,64
382140,note_on,,,,,0,0,4,,,,3,,,90,122
382140,note_off,,,,,0,0,4,,,,3,,,80,64
382200,note_off,,,,,60,0,4,,,,3,,,90,64
382200,note_on,,,,,0,0,4,,,,3,,,92,127
382260,note_off,,,,,60,0,4,,,,3,,,92,64
382320,note_off,,,,,0,0,2,,,,1,,,56,64
382320,note_off,,,,,240,0,2,,,,1,,,65,64
382320,note_on,,,,,0,0,2,,,,1,,,37,125
382320,note_off,,,,,0,0,2,,,,1,,,61,64
382560,note_on,,,,,0,0,4,,,,3,,,77,121
382560,note_off,,,,,240,0,2,,,,1,,,37,64
382560,note_on,,,,,0,0,2,,,,1,,,61,122
382560,note_on,,,,,0,0,2,,,,1,,,65,121
382560,note_on,,,,,300,0,4,,,,3,,,85,122
382560,note_on,,,,,0,0,2,,,,1,,,56,125
382620,note_off,,,,,0,0,4,,,,3,,,77,64
382620,note_off,,,,,60,0,4,,,,3,,,85,64
382620,note_on,,,,,0,0,4,,,,3,,,87,125
382680,note_off,,,,,60,0,4,,,,3,,,87,64
382680,note_on,,,,,0,0,4,,,,3,,,89,125
382740,note_off,,,,,60,0,4,,,,3,,,89,64
382800,note_off,,,,,0,0,2,,,,1,,,61,64
382800,note_off,,,,,0,0,2,,,,1,,,56,64
382800,note_off,,,,,240,0,2,,,,1,,,65,64
382800,note_on,,,,,0,0,2,,,,1,,,49,125
383040,note_on,,,,,0,0,2,,,,1,,,58,125
383040,note_on,,,,,300,0,4,,,,3,,,66,118
383040,note_on,,,,,240,0,2,,,,1,,,61,125
383120,note_on,,,,,0,0,4,,,,3,,,68,121
383120,note_off,,,,,80,0,4,,,,3,,,66,64
383200,note_on,,,,,0,0,4,,,,3,,,70,121
383200,note_off,,,,,80,0,4,,,,3,,,68,64
383280,note_on,,,,,0,0,4,,,,3,,,73,125
383280,note_off,,,,,80,0,4,,,,3,,,70,64
383280,note_off,,,,,0,0,2,,,,1,,,58,64
383280,note_off,,,,,240,0,2,,,,1,,,61,64
383280,note_on,,,,,0,0,2,,,,1,,,49,125
383360,note_on,,,,,0,0,4,,,,3,,,75,122
383360,note_off,,,,,80,0,4,,,,3,,,73,64
383440,note_off,,,,,80,0,4,,,,3,,,75,64
383440,note_on,,,,,0,0,4,,,,3,,,77,122
383519,note_off,,,,,239,0,2,,,,1,,,49,64
383520,note_off,,,,,80,0,4,,,,3,,,77,64
383520,note_on,,,,,1,0,2,,,,1,,,66,121
383520,note_on,,,,,0,0,2,,,,1,,,58,125
383520,note_on,,,,,0,0,2,,,,1,,,61,125
383520,note_on,,,,,0,0,4,,,,3,,,78,125
383600,note_on,,,,,0,0,4,,,,3,,,80,122
383600,note_off,,,,,80,0,4,,,,3,,,78,64
383680,note_on,,,,,0,0,4,,,,3,,,82,125
383680,note_off,,,,,80,0,4,,,,3,,,80,64
383760,note_on,,,,,0,0,4,,,,3,,,85,125
383760,note_off,,,,,80,0,4,,,,3,,,82,64
383760,note_on,,,,,0,0,2,,,,1,,,46,125
383760,note_off,,,,,0,0,2,,,,1,,,61,64
383760,note_off,,,,,0,0,2,,,,1,,,58,64
383760,note_off,,,,,240,0,2,,,,1,,,66,64
383840,note_on,,,,,0,0,4,,,,3,,,87,122
383840,note_off,,,,,80,0,4,,,,3,,,85,64
383920,note_off,,,,,80,0,4,,,,3,,,87,64
383920,note_on,,,,,0,0,4,,,,3,,,89,125
383990,note_off,,,,,230,0,2,,,,1,,,46,64
384000,note_off,,,,,80,0,4,,,,3,,,89,64
384000,note_on,,,,,0,0,2,,,,1,,,61,122
384000,note_on,,,,,0,0,2,,,,1,,,58,122
384000,note_on,,,,,0,0,4,,,,3,,,90,125
384000,note_on,,,,,10,0,2,,,,1,,,66,122
384080,note_off,,,,,80,0,4,,,,3,,,90,64
384080,note_on,,,,,0,0,4,,,,3,,,92,125
384160,note_on,,,,,0,0,4,,,,3,,,94,125
384160,note_off,,,,,80,0,4,,,,3,,,92,64
384240,note_off,,,,,0,0,2,,,,1,,,61,64
384240,note_on,,,,,0,0,4,,,,3,,,97,125
384240,note_on,,,,,0,0,2,,,,1,,,37,125
384240,note_off,,,,,0,0,2,,,,1,,,58,64
384240,note_off,,,,,240,0,2,,,,1,,,66,64
384240,note_off,,,,,80,0,4,,,,3,,,94,64
384320,note_on,,,,,0,0,4,,,,3,,,99,125
384320,note_off,,,,,80,0,4,,,,3,,,97,64
384400,note_off,,,,,80,0,4,,,,3,,,99,64
384400,note_on,,,,,0,0,4,,,,3,,,101,125
384480,note_on,,,,,0,0,2,,,,1,,,66,118
384480,note_on,,,,,0,0,4,,,,3,,,102,125
384480,note_off,,,,,80,0,4,,,,3,,,101,64
384480,note_on,,,,,0,0,2,,,,1,,,61,122
384480,note_off,,,,,240,0,2,,,,1,,,37,64
384480,note_on,,,,,0,0,2,,,,1,,,58,125
384600,note_off,,,,,120,0,4,,,,3,,,102,64
384720,note_on,,,,,120,0,4,,,,3,,,94,125
384720,note_on,,,,,0,0,2,,,,1,,,49,127
384720,note_off,,,,,240,0,2,,,,1,,,66,64
384720,note_on,,,,,0,0,4,,,,3,,,90,122
384720,note_off,,,,,0,0,2,,,,1,,,58,64
384720,note_off,,,,,0,0,2,,,,1,,,61,64
384950,note_off,,,,,0,0,4,,,,3,,,90,64
384950,note_off,,,,,230,0,4,,,,3,,,94,64
384960,note_on,,,,,10,0,4,,,,3,,,95,121
384960,note_on,,,,,0,0,2,,,,1,,,61,125
384960,note_on,,,,,0,0,2,,,,1,,,56,127
384960,note_on,,,,,240,0,2,,,,1,,,65,122
384960,note_on,,,,,0,0,4,,,,3,,,87,118
385020,note_off,,,,,0,0,4,,,,3,,,87,64
385020,note_off,,,,,60,0,4,,,,3,,,95,64
385020,note_on,,,,,0,0,4,,,,3,,,97,125
385080,note_off,,,,,60,0,4,,,,3,,,97,64
385080,note_on,,,,,0,0,4,,,,3,,,99,125
385140,note_off,,,,,60,0,4,,,,3,,,99,64
385200,note_on,,,,,0,0,2,,,,1,,,49,125
385200,note_off,,,,,240,0,2,,,,1,,,65,64
385200,note_off,,,,,0,0,2,,,,1,,,56,64
385200,note_off,,,,,0,0,2,,,,1,,,61,64
385439,note_off,,,,,239,0,2,,,,1,,,49,64
385440,note_on,,,,,300,0,4,,,,3,,,92,122
385440,note_on,,,,,0,0,2,,,,1,,,56,122
385440,note_on,,,,,0,0,2,,,,1,,,61,121
385440,note_on,,,,,0,0,4,,,,3,,,83,121
385440,note_on,,,,,1,0,2,,,,1,,,65,122
385500,note_off,,,,,60,0,4,,,,3,,,92,64
385500,note_on,,,,,0,0,4,,,,3,,,94,122
385500,note_off,,,,,0,0,4,,,,3,,,83,64
385560,note_off,,,,,60,0,4,,,,3,,,94,64
385560,note_on,,,,,0,0,4,,,,3,,,95,127
385620,note_off,,,,,60,0,4,,,,3,,,95,64
385680,note_on,,,,,0,0,2,,,,1,,,44,122
385680,note_off,,,,,0,0,2,,,,1,,,56,64
385680,note_off,,,,,240,0,2,,,,1,,,65,64
385680,note_off,,,,,0,0,2,,,,1,,,61,64
385920,note_off,,,,,240,0,2,,,,1,,,44,64
385920,note_on,,,,,0,0,4,,,,3,,,80,121
385920,note_on,,,,,0,0,2,,,,1,,,65,122
385920,note_on,,,,,300,0,4,,,,3,,,88,122
385920,note_on,,,,,0,0,2,,,,1,,,56,122
385920,note_on,,,,,0,0,2,,,,1,,,61,122
385980,note_on,,,,,0,0,4,,,,3,,,90,122
385980,note_off,,,,,60,0,4,,,,3,,,88,64
385980,note_off,,,,,0,0,4,,,,3,,,80,64
386040,note_off,,,,,60,0,4,,,,3,,,90,64
386040,note_on,,,,,0,0,4,,,,3,,,92,127
386100,note_off,,,,,60,0,4,,,,3,,,92,64
386160,note_off,,,,,0,0,2,,,,1,,,56,64
386160,note_off,,,,,240,0,2,,,,1,,,65,64
386160,note_off,,,,,0,0,2,,,,1,,,61,64
386160,note_on,,,,,0,0,2,,,,1,,,37,125
386400,note_off,,,,,240,0,2,,,,1,,,37,64
386400,note_on,,,,,300,0,4,,,,3,,,85,122
386400,note_on,,,,,0,0,2,,,,1,,,56,122
386400,note_on,,,,,0,0,4,,,,3,,,77,121
386400,note_on,,,,,0,0,2,,,,1,,,65,125
386400,note_on,,,,,0,0,2,,,,1,,,61,125
386460,note_off,,,,,0,0,4,,,,3,,,77,64
386460,note_on,,,,,0,0,4,,,,3,,,87,125
386460,note_off,,,,,60,0,4,,,,3,,,85,64
386520,note_off,,,,,60,0,4,,,,3,,,87,64
386520,note_on,,,,,0,0,4,,,,3,,,89,125
386580,note_off,,,,,60,0,4,,,,3,,,89,64
386640,note_off,,,,,0,0,2,,,,1,,,61,64
386640,note_on,,,,,0,0,2,,,,1,,,49,122
386640,note_off,,,,,240,0,2,,,,1,,,65,64
386640,note_off,,,,,0,0,2,,,,1,,,56,64
386880,note_on,,,,,0,0,2,,,,1,,,61,125
386880,note_on,,,,,300,0,4,,,,3,,,66,118
386880,note_off,,,,,240,0,2,,,,1,,,49,64
386880,note_on,,,,,0,0,2,,,,1,,,58,122
386960,note_off,,,,,80,0,4,,,,3,,,66,64
386960,note_on,,,,,0,0,4,,,,3,,,68,121
387040,note_off,,,,,80,0,4,,,,3,,,68,64
387040,note_on,,,,,0,0,4,,,,3,,,70,121
387120,note_on,,,,,0,0,2,,,,1,,,49,127
387120,note_off,,,,,240,0,2,,,,1,,,61,64
387120,note_off,,,,,0,0,2,,,,1,,,58,64
387120,note_on,,,,,0,0,4,,,,3,,,73,125
387120,note_off,,,,,80,0,4,,,,3,,,70,64
387200,note_off,,,,,80,0,4,,,,3,,,73,64
387200,note_on,,,,,0,0,4,,,,3,,,75,122
387280,note_on,,,,,0,0,4,,,,3,,,77,122
387280,note_off,,,,,80,0,4,,,,3,,,75,64
387360,note_on,,,,,0,0,4,,,,3,,,78,125
387360,note_off,,,,,80,0,4,,,,3,,,77,64
387360,note_on,,,,,0,0,2,,,,1,,,66,121
387360,note_on,,,,,0,0,2,,,,1,,,61,125
387360,note_on,,,,,0,0,2,,,,1,,,58,125
387360,note_off,,,,,240,0,2,,,,1,,,49,64
387440,note_on,,,,,0,0,4,,,,3,,,80,122
387440,note_off,,,,,80,0,4,,,,3,,,78,64
387520,note_on,,,,,0,0,4,,,,3,,,82,125
387520,note_off,,,,,80,0,4,,,,3,,,80,64
387600,note_off,,,,,240,0,2,,,,1,,,66,64
387600,note_off,,,,,0,0,2,,,,1,,,58,64
387600,note_on,,,,,0,0,2,,,,1,,,46,127
387600,note_on,,,,,0,0,4,,,,3,,,85,125
387600,note_off,,,,,80,0,4,,,,3,,,82,64
387600,note_off,,,,,0,0,2,,,,1,,,61,64
387680,note_on,,,,,0,0,4,,,,3,,,87,122
387680,note_off,,,,,80,0,4,,,,3,,,85,64
387760,note_on,,,,,0,0,4,,,,3,,,89,125
387760,note_off,,,,,80,0,4,,,,3,,,87,64
387840,note_on,,,,,0,0,4,,,,3,,,90,125
387840,note_off,,,,,80,0,4,,,,3,,,89,64
387840,note_on,,,,,0,0,2,,,,1,,,58,122
387840,note_off,,,,,240,0,2,,,,1,,,46,64
387840,note_on,,,,,0,0,2,,,,1,,,61,122
387840,note_on,,,,,0,0,2,,,,1,,,66,118
387960,note_off,,,,,120,0,4,,,,3,,,90,64
387960,note_on,,,,,0,0,4,,,,3,,,92,125
388080,note_off,,,,,0,0,2,,,,1,,,58,64
388080,note_off,,,,,240,0,2,,,,1,,,66,64
388080,note_on,,,,,0,0,2,,,,1,,,37,125
388080,note_on,,,,,0,0,4,,,,3,,,94,125
388080,note_off,,,,,0,0,2,,,,1,,,61,64
388080,note_off,,,,,120,0,4,,,,3,,,92,64
388200,note_on,,,,,0,0,4,,,,3,,,97,125
388200,note_off,,,,,120,0,4,,,,3,,,94,64
388320,note_off,,,,,120,0,4,,,,3,,,97,64
388320,note_off,,,,,240,0,2,,,,1,,,37,64
388320,note_on,,,,,0,0,2,,,,1,,,66,121
388320,note_on,,,,,0,0,2,,,,1,,,61,122
388320,note_on,,,,,0,0,2,,,,1,,,58,122
388320,note_on,,,,,0,0,4,,,,3,,,99,125
388440,note_off,,,,,120,0,4,,,,3,,,99,64
388440,note_on,,,,,0,0,4,,,,3,,,97,125
388560,note_on,,,,,0,0,2,,,,1,,,49,127
388560,note_on,,,,,0,0,4,,,,3,,,96,127
388560,note_off,,,,,240,0,2,,,,1,,,66,64
388560,note_off,,,,,0,0,2,,,,1,,,58,64
388560,note_off,,,,,120,0,4,,,,3,,,97,64
388560,note_off,,,,,0,0,2,,,,1,,,61,64
388680,note_off,,,,,120,0,4,,,,3,,,96,64
388680,note_on,,,,,0,0,4,,,,3,,,99,125
388790,note_off,,,,,230,0,2,,,,1,,,49,64
388790,note_off,,,,,110,0,4,,,,3,,,99,64
388799,note_off,,,,,0,0,2,,,,1,,,49,64
388799,note_off,,,,,9,0,2,,,,1,,,49,64
388800,note_on,,,,,1,0,2,,,,1,,,56,125
388800,note_on,,,,,10,0,4,,,,3,,,101,122
388920,note_off,,,,,120,0,4,,,,3,,,101,64
388920,note_on,,,,,0,0,4,,,,3,,,97,121
389040,note_on,,,,,0,0,4,,,,3,,,97,121
389040,note_off,,,,,240,0,2,,,,1,,,56,64
389040,note_on,,,,,0,0,2,,,,1,,,61,118
389040,note_on,,,,,0,0,2,,,,1,,,73,103
389040,note_off,,,,,120,0,4,,,,3,,,97,64
389040,note_on,,,,,0,0,2,,,,1,,,65,118
389160,note_on,,,,,0,0,4,,,,3,,,97,122
389160,note_off,,,,,120,0,4,,,,3,,,97,64
389280,note_off,,,,,240,0,2,,,,1,,,73,64
389280,note_off,,,,,0,0,2,,,,1,,,65,64
389280,note_off,,,,,120,0,4,,,,3,,,97,64
389280,note_on,,,,,0,0,4,,,,3,,,92,125
389280,note_off,,,,,0,0,2,,,,1,,,61,64
389280,note_on,,,,,0,0,2,,,,1,,,49,125
389400,note_on,,,,,0,0,4,,,,3,,,97,122
389400,note_off,,,,,120,0,4,,,,3,,,92,64
389520,note_on,,,,,0,0,4,,,,3,,,97,122
389520,note_on,,,,,0,0,2,,,,1,,,73,115
389520,note_off,,,,,240,0,2,,,,1,,,49,64
389520,note_on,,,,,0,0,2,,,,1,,,65,121
389520,note_on,,,,,0,0,2,,,,1,,,61,121
389520,note_off,,,,,120,0,4,,,,3,,,97,64
389640,note_on,,,,,0,0,4,,,,3,,,97,122
389640,note_off,,,,,120,0,4,,,,3,,,97,64
389760,note_off,,,,,0,0,2,,,,1,,,65,64
389760,note_on,,,,,0,0,2,,,,1,,,68,121
389760,note_on,,,,,0,0,2,,,,1,,,72,121
389760,note_on,,,,,0,0,4,,,,3,,,101,125
389760,note_off,,,,,240,0,2,,,,1,,,73,64
389760,note_off,,,,,0,0,2,,,,1,,,61,64
389760,note_off,,,,,120,0,4,,,,3,,,97,64
389880,note_off,,,,,0,0,2,,,,1,,,68,64
389880,note_off,,,,,120,0,4,,,,3,,,101,64
389880,note_on,,,,,0,0,4,,,,3,,,97,122
389880,note_off,,,,,120,0,2,,,,1,,,72,64
390000,note_off,,,,,120,0,4,,,,3,,,97,64
390000,note_on,,,,,0,0,4,,,,3,,,97,122
390000,note_on,,,,,0,0,2,,,,1,,,65,107
390000,note_on,,,,,120,0,2,,,,1,,,73,118
390120,note_on,,,,,0,0,4,,,,3,,,97,122
390120,note_off,,,,,0,0,2,,,,1,,,65,64
390120,note_off,,,,,120,0,4,,,,3,,,97,64
390120,note_off,,,,,120,0,2,,,,1,,,73,64
390240,note_on,,,,,0,0,2,,,,1,,,68,122
390240,note_off,,,,,120,0,4,,,,3,,,97,64
390240,note_on,,,,,120,0,2,,,,1,,,71,121
390240,note_on,,,,,0,0,4,,,,3,,,92,122
390360,note_off,,,,,120,0,4,,,,3,,,92,64
390360,note_on,,,,,0,0,4,,,,3,,,97,125
390480,note_off,,,,,120,0,4,,,,3,,,97,64
390480,note_on,,,,,0,0,4,,,,3,,,97,122
390600,note_off,,,,,120,0,4,,,,3,,,97,64
390600,note_on,,,,,0,0,4,,,,3,,,97,122
390600,note_on,,,,,0,0,2,,,,1,,,73,122
390600,note_off,,,,,360,0,2,,,,1,,,71,64
390720,note_on,,,,,0,0,4,,,,3,,,102,127
390720,note_off,,,,,0,0,2,,,,1,,,73,64
390720,set_tempo,,,,,17360,1,0,377358,,,,,,,
390720,note_off,,,,,120,0,2,,,,1,,,68,64
390720,note_on,,,,,0,0,2,,,,1,,,54,122
390720,note_off,,,,,120,0,4,,,,3,,,97,64
390840,note_on,,,,,0,0,4,,,,3,,,97,121
390840,note_off,,,,,120,0,4,,,,3,,,102,64
390960,note_off,,,,,120,0,4,,,,3,,,97,64
390960,note_on,,,,,0,0,2,,,,1,,,70,118
390960,note_on,,,,,0,0,2,,,,1,,,66,122
390960,note_on,,,,,0,0,2,,,,1,,,61,118
390960,note_off,,,,,240,0,2,,,,1,,,54,64
390960,note_on,,,,,0,0,4,,,,3,,,97,122
391080,note_off,,,,,120,0,4,,,,3,,,97,64
391080,note_on,,,,,0,0,4,,,,3,,,97,122
391200,note_on,,,,,0,0,2,,,,1,,,49,122
391200,note_off,,,,,120,0,4,,,,3,,,97,64
391200,note_off,,,,,0,0,2,,,,1,,,66,64
391200,note_off,,,,,0,0,2,,,,1,,,61,64
391200,note_on,,,,,0,0,4,,,,3,,,94,125
391200,note_off,,,,,240,0,2,,,,1,,,70,64
391320,note_off,,,,,120,0,4,,,,3,,,94,64
391320,note_on,,,,,0,0,4,,,,3,,,97,122
391440,note_on,,,,,0,0,2,,,,1,,,70,118
391440,note_on,,,,,0,0,2,,,,1,,,66,122
391440,note_on,,,,,0,0,2,,,,1,,,61,118
391440,note_off,,,,,240,0,2,,,,1,,,49,64
391440,note_on,,,,,0,0,4,,,,3,,,97,122
391440,note_off,,,,,120,0,4,,,,3,,,97,64
391560,note_off,,,,,120,0,4,,,,3,,,97,64
391560,note_on,,,,,0,0,4,,,,3,,,97,122
391680,note_off,,,,,0,0,2,,,,1,,,66,64
391680,note_on,,,,,0,0,2,,,,1,,,72,127
391680,note_on,,,,,0,0,2,,,,1,,,69,125
391680,note_off,,,,,0,0,2,,,,1,,,61,64
391680,note_off,,,,,240,0,2,,,,1,,,70,64
391680,note_off,,,,,120,0,4,,,,3,,,97,64
391680,note_on,,,,,0,0,4,,,,3,,,102,125
391720,set_tempo,,,,,1000,1,0,382165,,,,,,,
391800,note_off,,,,,0,0,2,,,,1,,,69,64
391800,note_off,,,,,120,0,2,,,,1,,,72,64
391800,note_on,,,,,0,0,4,,,,3,,,97,122
391800,note_off,,,,,120,0,4,,,,3,,,102,64
391920,note_on,,,,,0,0,2,,,,1,,,70,122
391920,note_on,,,,,0,0,4,,,,3,,,97,122
391920,note_off,,,,,120,0,4,,,,3,,,97,64
391920,note_on,,,,,120,0,2,,,,1,,,73,122
392040,note_off,,,,,0,0,2,,,,1,,,70,64
392040,note_on,,,,,0,0,4,,,,3,,,97,122
392040,note_off,,,,,120,0,2,,,,1,,,73,64
392040,note_off,,,,,120,0,4,,,,3,,,97,64
392160,note_on,,,,,120,0,2,,,,1,,,70,122
392160,note_on,,,,,0,0,2,,,,1,,,66,122
392160,note_on,,,,,0,0,4,,,,3,,,94,122
392160,note_off,,,,,120,0,4,,,,3,,,97,64
392280,note_off,,,,,120,0,4,,,,3,,,94,64
392280,note_on,,,,,0,0,4,,,,3,,,97,122
392400,note_off,,,,,120,0,4,,,,3,,,97,64
392400,note_on,,,,,0,0,4,,,,3,,,97,122
392520,note_on,,,,,0,0,4,,,,3,,,97,122
392520,note_off,,,,,360,0,2,,,,1,,,70,64
392520,note_on,,,,,0,0,2,,,,1,,,73,121
392520,note_off,,,,,120,0,4,,,,3,,,97,64
392630,note_off,,,,,110,0,4,,,,3,,,97,64
392640,note_on,,,,,0,0,2,,,,1,,,56,125
392640,note_off,,,,,0,0,2,,,,1,,,73,64
392640,note_off,,,,,120,0,2,,,,1,,,66,64
392640,note_on,,,,,10,0,4,,,,3,,,101,122
392670,set_tempo,,,,,950,1,0,384615,,,,,,,
392760,note_off,,,,,120,0,4,,,,3,,,101,64
392760,note_on,,,,,0,0,4,,,,3,,,97,121
392880,note_off,,,,,120,0,4,,,,3,,,97,64
392880,note_on,,,,,0,0,4,,,,3,,,97,121
392880,note_off,,,,,240,0,2,,,,1,,,56,64
392880,note_on,,,,,0,0,2,,,,1,,,73,115
392880,note_on,,,,,0,0,2,,,,1,,,65,121
392880,note_on,,,,,0,0,2,,,,1,,,61,118
393000,note_on,,,,,0,0,4,,,,3,,,97,122
393000,note_off,,,,,120,0,4,,,,3,,,97,64
393120,note_on,,,,,0,0,4,,,,3,,,92,125
393120,note_off,,,,,120,0,4,,,,3,,,97,64
393120,note_off,,,,,240,0,2,,,,1,,,73,64
393120,note_off,,,,,0,0,2,,,,1,,,65,64
393120,note_off,,,,,0,0,2,,,,1,,,61,64
393120,note_on,,,,,0,0,2,,,,1,,,49,125
393240,note_on,,,,,0,0,4,,,,3,,,97,122
393240,note_off,,,,,120,0,4,,,,3,,,92,64
393360,note_off,,,,,120,0,4,,,,3,,,97,64
393360,note_on,,,,,0,0,4,,,,3,,,97,122
393360,note_on,,,,,0,0,2,,,,1,,,73,107
393360,note_on,,,,,0,0,2,,,,1,,,65,121
393360,note_on,,,,,0,0,2,,,,1,,,61,121
393360,note_off,,,,,240,0,2,,,,1,,,49,64
393480,note_off,,,,,120,0,4,,,,3,,,97,64
393480,note_on,,,,,0,0,4,,,,3,,,97,122
393600,note_off,,,,,240,0,2,,,,1,,,73,64
393600,note_on,,,,,0,0,4,,,,3,,,101,125
393600,note_off,,,,,120,0,4,,,,3,,,97,64
393600,note_on,,,,,0,0,2,,,,1,,,68,122
393600,note_off,,,,,0,0,2,,,,1,,,61,64
393600,note_off,,,,,0,0,2,,,,1,,,65,64
393600,note_on,,,,,0,0,2,,,,1,,,72,125
393650,set_tempo,,,,,980,1,0,389610,,,,,,,
393720,note_on,,,,,0,0,4,,,,3,,,97,122
393720,note_off,,,,,120,0,4,,,,3,,,101,64
393720,note_off,,,,,120,0,2,,,,1,,,72,64
393720,note_off,,,,,0,0,2,,,,1,,,68,64
393840,note_on,,,,,0,0,2,,,,1,,,65,121
393840,note_off,,,,,120,0,4,,,,3,,,97,64
393840,note_on,,,,,120,0,2,,,,1,,,73,122
393840,note_on,,,,,0,0,4,,,,3,,,97,122
393960,note_on,,,,,0,0,4,,,,3,,,97,122
393960,note_off,,,,,120,0,2,,,,1,,,73,64
393960,note_off,,,,,120,0,4,,,,3,,,97,64
393960,note_off,,,,,0,0,2,,,,1,,,65,64
394080,note_on,,,,,0,0,4,,,,3,,,92,122
394080,note_off,,,,,120,0,4,,,,3,,,97,64
394080,note_on,,,,,120,0,2,,,,1,,,71,122
394080,note_on,,,,,0,0,2,,,,1,,,68,122
394200,note_off,,,,,120,0,4,,,,3,,,92,64
394200,note_on,,,,,0,0,4,,,,3,,,97,125
394320,note_off,,,,,120,0,4,,,,3,,,97,64
394320,note_on,,,,,0,0,4,,,,3,,,97,122
394440,note_off,,,,,360,0,2,,,,1,,,71,64
394440,note_on,,,,,0,0,4,,,,3,,,97,122
394440,note_on,,,,,0,0,2,,,,1,,,73,125
394440,note_off,,,,,120,0,4,,,,3,,,97,64
394560,note_off,,,,,0,0,2,,,,1,,,73,64
394560,note_off,,,,,120,0,4,,,,3,,,97,64
394560,note_on,,,,,0,0,4,,,,3,,,102,127
394560,note_on,,,,,0,0,2,,,,1,,,54,122
394560,note_off,,,,,120,0,2,,,,1,,,68,64
394590,set_tempo,,,,,940,1,0,394736,,,,,,,
394680,note_on,,,,,0,0,4,,,,3,,,97,121
394680,note_off,,,,,120,0,4,,,,3,,,102,64
394800,note_on,,,,,0,0,4,,,,3,,,97,122
394800,note_off,,,,,120,0,4,,,,3,,,97,64
394800,note_on,,,,,0,0,2,,,,1,,,70,121
394800,note_on,,,,,0,0,2,,,,1,,,66,125
394800,note_on,,,,,0,0,2,,,,1,,,61,122
394800,note_off,,,,,240,0,2,,,,1,,,54,64
394920,note_off,,,,,120,0,4,,,,3,,,97,64
394920,note_on,,,,,0,0,4,,,,3,,,97,122
395040,note_on,,,,,0,0,4,,,,3,,,94,125
395040,note_off,,,,,240,0,2,,,,1,,,70,64
395040,note_off,,,,,0,0,2,,,,1,,,66,64
395040,note_on,,,,,0,0,2,,,,1,,,49,122
395040,note_off,,,,,120,0,4,,,,3,,,97,64
395040,note_off,,,,,0,0,2,,,,1,,,61,64
395160,note_off,,,,,120,0,4,,,,3,,,94,64
395160,note_on,,,,,0,0,4,,,,3,,,97,122
395280,note_on,,,,,0,0,4,,,,3,,,97,122
395280,note_off,,,,,120,0,4,,,,3,,,97,64
395280,note_on,,,,,0,0,2,,,,1,,,70,121
395280,note_on,,,,,0,0,2,,,,1,,,61,118
395280,note_on,,,,,0,0,2,,,,1,,,66,122
395280,note_off,,,,,240,0,2,,,,1,,,49,64
395400,note_off,,,,,120,0,4,,,,3,,,97,64
395400,note_on,,,,,0,0,4,,,,3,,,97,122
395520,note_on,,,,,0,0,4,,,,3,,,102,125
395520,note_on,,,,,0,0,2,,,,1,,,72,122
395520,note_on,,,,,0,0,2,,,,1,,,69,121
395520,note_off,,,,,240,0,2,,,,1,,,61,64
395520,note_off,,,,,0,0,2,,,,1,,,66,64
395520,note_off,,,,,0,0,2,,,,1,,,70,64
395520,note_off,,,,,120,0,4,,,,3,,,97,64
395560,set_tempo,,,,,970,1,0,397350,,,,,,,
395640,note_off,,,,,120,0,4,,,,3,,,102,64
395640,note_on,,,,,0,0,4,,,,3,,,97,122
395640,note_off,,,,,120,0,2,,,,1,,,72,64
395640,note_off,,,,,0,0,2,,,,1,,,69,64
395760,note_on,,,,,0,0,2,,,,1,,,70,122
395760,note_off,,,,,120,0,4,,,,3,,,97,64
395760,note_on,,,,,120,0,2,,,,1,,,73,125
395760,note_on,,,,,0,0,4,,,,3,,,97,122
395880,note_off,,,,,120,0,2,,,,1,,,73,64
395880,note_off,,,,,120,0,4,,,,3,,,97,64
395880,note_on,,,,,0,0,4,,,,3,,,97,122
395880,note_off,,,,,0,0,2,,,,1,,,70,64
396000,note_on,,,,,0,0,2,,,,1,,,66,122
396000,note_off,,,,,120,0,4,,,,3,,,97,64
396000,note_on,,,,,120,0,2,,,,1,,,70,125
396000,note_on,,,,,0,0,4,,,,3,,,94,122
396120,note_on,,,,,0,0,4,,,,3,,,97,122
396120,note_off,,,,,120,0,4,,,,3,,,94,64
396240,note_on,,,,,0,0,4,,,,3,,,97,122
396240,note_off,,,,,120,0,4,,,,3,,,97,64
396360,note_on,,,,,0,0,2,,,,1,,,73,122
396360,note_off,,,,,360,0,2,,,,1,,,70,64
396360,note_on,,,,,0,0,4,,,,3,,,97,122
396360,note_off,,,,,120,0,4,,,,3,,,97,64
396470,note_off,,,,,110,0,4,,,,3,,,97,64
396480,note_off,,,,,120,0,2,,,,1,,,66,64
396480,note_on,,,,,10,0,4,,,,3,,,101,122
396480,note_off,,,,,0,0,2,,,,1,,,73,64
396480,note_on,,,,,0,0,2,,,,1,,,56,125
396530,set_tempo,,,,,970,1,0,400000,,,,,,,
396600,note_on,,,,,0,0,4,,,,3,,,97,121
396600,note_off,,,,,120,0,4,,,,3,,,101,64
396720,note_off,,,,,120,0,4,,,,3,,,97,64
396720,note_on,,,,,0,0,4,,,,3,,,97,121
396720,note_on,,,,,0,0,2,,,,1,,,61,118
396720,note_on,,,,,0,0,2,,,,1,,,65,121
396720,note_on,,,,,0,0,2,,,,1,,,73,107
396720,note_off,,,,,240,0,2,,,,1,,,56,64
396840,note_on,,,,,0,0,4,,,,3,,,97,122
396840,note_off,,,,,120,0,4,,,,3,,,97,64
396960,note_off,,,,,240,0,2,,,,1,,,73,64
396960,note_on,,,,,0,0,4,,,,3,,,92,125
396960,note_off,,,,,0,0,2,,,,1,,,65,64
396960,note_off,,,,,0,0,2,,,,1,,,61,64
396960,note_off,,,,,120,0,4,,,,3,,,97,64
396960,note_on,,,,,0,0,2,,,,1,,,49,125
397080,note_on,,,,,0,0,4,,,,3,,,97,122
397080,note_off,,,,,120,0,4,,,,3,,,92,64
397200,note_on,,,,,0,0,4,,,,3,,,97,122
397200,note_off,,,,,120,0,4,,,,3,,,97,64
397200,note_on,,,,,0,0,2,,,,1,,,73,115
397200,note_on,,,,,0,0,2,,,,1,,,65,121
397200,note_on,,,,,0,0,2,,,,1,,,61,121
397200,note_off,,,,,240,0,2,,,,1,,,49,64
397320,note_on,,,,,0,0,4,,,,3,,,97,122
397320,note_off,,,,,120,0,4,,,,3,,,97,64
397440,note_off,,,,,120,0,4,,,,3,,,97,64
397440,note_on,,,,,0,0,2,,,,1,,,72,125
397440,note_on,,,,,0,0,2,,,,1,,,68,121
397440,note_off,,,,,240,0,2,,,,1,,,61,64
397440,note_on,,,,,0,0,4,,,,3,,,101,125
397440,note_off,,,,,0,0,2,,,,1,,,73,64
397440,note_off,,,,,0,0,2,,,,1,,,65,64
397490,set_tempo,,,,,960,1,0,405405,,,,,,,
397560,note_off,,,,,120,0,4,,,,3,,,101,64
397560,note_on,,,,,0,0,4,,,,3,,,97,122
397560,note_off,,,,,0,0,2,,,,1,,,68,64
397560,note_off,,,,,120,0,2,,,,1,,,72,64
397680,note_on,,,,,120,0,2,,,,1,,,73,121
397680,note_on,,,,,0,0,2,,,,1,,,65,115
397680,note_off,,,,,120,0,4,,,,3,,,97,64
397680,note_on,,,,,0,0,4,,,,3,,,97,122
397800,note_off,,,,,0,0,2,,,,1,,,65,64
397800,note_off,,,,,120,0,4,,,,3,,,97,64
397800,note_off,,,,,120,0,2,,,,1,,,73,64
397800,note_on,,,,,0,0,4,,,,3,,,97,122
397920,note_on,,,,,0,0,4,,,,3,,,92,122
397920,note_off,,,,,120,0,4,,,,3,,,97,64
397920,note_on,,,,,0,0,2,,,,1,,,68,118
397920,note_on,,,,,120,0,2,,,,1,,,71,118
398040,note_off,,,,,120,0,4,,,,3,,,92,64
398040,note_on,,,,,0,0,4,,,,3,,,97,125
398160,note_on,,,,,0,0,4,,,,3,,,97,122
398160,note_off,,,,,120,0,4,,,,3,,,97,64
398280,note_off,,,,,120,0,4,,,,3,,,97,64
398280,note_on,,,,,0,0,2,,,,1,,,73,122
398280,note_off,,,,,360,0,2,,,,1,,,71,64
398280,note_on,,,,,0,0,4,,,,3,,,97,122
398390,note_off,,,,,0,0,2,,,,1,,,73,64
398390,note_off,,,,,110,0,2,,,,1,,,68,64
398400,note_off,,,,,120,0,4,,,,3,,,97,64
398400,note_on,,,,,34920,0,3,,,,2,,,80,122
398400,note_on,,,,,0,0,4,,,,3,,,101,122
398400,note_on,,,,,0,0,3,,,,2,,,84,122
398520,note_off,,,,,120,0,3,,,,2,,,80,64
398520,note_off,,,,,120,0,4,,,,3,,,101,64
398520,note_on,,,,,0,0,4,,,,3,,,97,121
398520,note_off,,,,,0,0,3,,,,2,,,84,64
398640,note_on,,,,,0,0,4,,,,3,,,97,121
398640,note_on,,,,,120,0,3,,,,2,,,77,115
398640,note_on,,,,,0,0,3,,,,2,,,85,121
398640,note_off,,,,,120,0,4,,,,3,,,97,64
398760,note_on,,,,,0,0,4,,,,3,,,97,122
398760,note_off,,,,,120,0,3,,,,2,,,77,64
398760,note_off,,,,,120,0,4,,,,3,,,97,64
398760,note_off,,,,,0,0,3,,,,2,,,85,64
398880,note_off,,,,,120,0,4,,,,3,,,97,64
398880,note_on,,,,,0,0,4,,,,3,,,92,125
398880,note_on,,,,,0,0,3,,,,2,,,80,121
398880,note_on,,,,,120,0,3,,,,2,,,83,122
399000,note_off,,,,,120,0,4,,,,3,,,92,64
399000,note_on,,,,,0,0,4,,,,3,,,97,122
399120,note_on,,,,,0,0,4,,,,3,,,97,122
399120,note_off,,,,,120,0,4,,,,3,,,97,64
399240,note_on,,,,,0,0,3,,,,2,,,85,122
399240,note_off,,,,,360,0,3,,,,2,,,83,64
399240,note_on,,,,,0,0,4,,,,3,,,97,122
399240,note_off,,,,,120,0,4,,,,3,,,97,64
399360,note_on,,,,,0,0,3,,,,2,,,80,121
399360,note_on,,,,,0,0,4,,,,3,,,101,125
399360,note_off,,,,,120,0,4,,,,3,,,97,64
399360,note_off,,,,,120,0,3,,,,2,,,80,64
399360,note_off,,,,,0,0,3,,,,2,,,85,64
399360,note_on,,,,,0,0,3,,,,2,,,84,122
399390,set_tempo,,,,,1900,1,0,408163,,,,,,,
399480,note_off,,,,,120,0,3,,,,2,,,84,64
399480,note_off,,,,,120,0,4,,,,3,,,101,64
399480,note_off,,,,,0,0,3,,,,2,,,80,64
399480,note_on,,,,,0,0,4,,,,3,,,97,122
399600,note_on,,,,,0,0,3,,,,2,,,77,121
399600,note_on,,,,,0,0,4,,,,3,,,97,122
399600,note_on,,,,,120,0,3,,,,2,,,85,121
399600,note_off,,,,,120,0,4,,,,3,,,97,64
399720,note_off,,,,,120,0,4,,,,3,,,97,64
399720,note_off,,,,,0,0,3,,,,2,,,77,64
399720,note_off,,,,,120,0,3,,,,2,,,85,64
399720,note_on,,,,,0,0,4,,,,3,,,97,122
399840,note_on,,,,,120,0,3,,,,2,,,87,122
399840,note_off,,,,,120,0,4,,,,3,,,97,64
399840,note_on,,,,,0,0,4,,,,3,,,92,122
399840,note_on,,,,,0,0,3,,,,2,,,83,122
399870,set_tempo,,,,,480,1,0,413793,,,,,,,
399960,note_off,,,,,120,0,4,,,,3,,,92,64
399960,note_on,,,,,0,0,4,,,,3,,,97,125
400080,note_off,,,,,120,0,4,,,,3,,,97,64
400080,note_on,,,,,0,0,4,,,,3,,,97,122
400200,note_off,,,,,120,0,4,,,,3,,,97,64
400200,note_off,,,,,0,0,3,,,,2,,,83,64
400200,note_off,,,,,360,0,3,,,,2,,,87,64
400200,note_on,,,,,0,0,3,,,,2,,,80,122
400200,note_on,,,,,0,0,3,,,,2,,,85,121
400200,note_on,,,,,0,0,4,,,,3,,,97,122
400310,note_off,,,,,0,0,3,,,,2,,,80,64
400310,note_off,,,,,110,0,3,,,,2,,,85,64
400320,note_on,,,,,0,0,4,,,,3,,,101,122
400320,note_off,,,,,120,0,4,,,,3,,,97,64
400440,note_on,,,,,0,0,4,,,,3,,,97,121
400440,note_off,,,,,120,0,4,,,,3,,,101,64
400560,note_on,,,,,0,0,4,,,,3,,,97,121
400560,note_off,,,,,120,0,4,,,,3,,,97,64
400680,note_on,,,,,0,0,4,,,,3,,,97,122
400680,note_off,,,,,120,0,4,,,,3,,,97,64
400800,note_off,,,,,120,0,4,,,,3,,,97,64
400800,note_on,,,,,0,0,4,,,,3,,,92,125
400850,set_tempo,,,,,980,1,0,419580,,,,,,,
400920,note_on,,,,,0,0,4,,,,3,,,97,122
400920,note_off,,,,,120,0,4,,,,3,,,92,64
401040,note_on,,,,,0,0,4,,,,3,,,97,122
401040,note_off,,,,,120,0,4,,,,3,,,97,64
401160,note_off,,,,,120,0,4,,,,3,,,97,64
401160,note_on,,,,,0,0,4,,,,3,,,97,122
401280,note_off,,,,,120,0,4,,,,3,,,97,64
401280,note_on,,,,,0,0,4,,,,3,,,101,125
401330,set_tempo,,,,,480,1,0,422535,,,,,,,
401400,note_on,,,,,0,0,4,,,,3,,,97,122
401400,note_off,,,,,120,0,4,,,,3,,,101,64
401520,note_off,,,,,120,0,4,,,,3,,,97,64
401520,note_on,,,,,0,0,4,,,,3,,,97,122
401640,note_on,,,,,0,0,4,,,,3,,,97,122
401640,note_off,,,,,120,0,4,,,,3,,,97,64
401760,note_off,,,,,120,0,4,,,,3,,,97,64
401760,note_on,,,,,0,0,4,,,,3,,,92,122
401820,set_tempo,,,,,490,1,0,428571,,,,,,,
401880,note_on,,,,,0,0,4,,,,3,,,97,125
401880,note_off,,,,,120,0,4,,,,3,,,92,64
402000,note_off,,,,,120,0,4,,,,3,,,97,64
402000,note_on,,,,,0,0,4,,,,3,,,97,122
402120,note_off,,,,,120,0,4,,,,3,,,97,64
402120,note_on,,,,,0,0,4,,,,3,,,97,122
402240,note_off,,,,,120,0,4,,,,3,,,97,64
402240,note_on,,,,,0,0,4,,,,3,,,101,122
402360,note_on,,,,,0,0,4,,,,3,,,97,118
402360,note_off,,,,,120,0,4,,,,3,,,101,64
402480,note_on,,,,,0,0,4,,,,3,,,97,115
402480,note_off,,,,,120,0,4,,,,3,,,97,64
402600,note_off,,,,,120,0,4,,,,3,,,97,64
402600,note_on,,,,,0,0,4,,,,3,,,97,118
402720,note_off,,,,,120,0,4,,,,3,,,97,64
402720,note_on,,,,,0,0,4,,,,3,,,92,97
402790,set_tempo,,,,,970,1,0,434782,,,,,,,
402840,note_off,,,,,120,0,4,,,,3,,,92,64
402840,note_on,,,,,0,0,4,,,,3,,,97,115
402960,note_on,,,,,0,0,4,,,,3,,,97,107
402960,note_off,,,,,120,0,4,,,,3,,,97,64
403080,note_on,,,,,0,0,4,,,,3,,,97,107
403080,note_off,,,,,120,0,4,,,,3,,,97,64
403200,note_off,,,,,120,0,4,,,,3,,,97,64
403200,note_on,,,,,0,0,4,,,,3,,,101,107
403250,set_tempo,,,,,460,1,0,437956,,,,,,,
403320,note_on,,,,,0,0,4,,,,3,,,97,107
403320,note_off,,,,,120,0,4,,,,3,,,101,64
403440,note_off,,,,,120,0,4,,,,3,,,97,64
403440,note_on,,,,,0,0,4,,,,3,,,97,103
403560,note_off,,,,,120,0,4,,,,3,,,97,64
403560,note_on,,,,,0,0,4,,,,3,,,97,97
403680,note_on,,,,,0,0,4,,,,3,,,92,103
403680,note_off,,,,,120,0,4,,,,3,,,97,64
403800,note_off,,,,,120,0,4,,,,3,,,92,64
403800,note_on,,,,,0,0,4,,,,3,,,97,79
403920,note_on,,,,,0,0,4,,,,3,,,97,97
403920,note_off,,,,,120,0,4,,,,3,,,97,64
404040,note_on,,,,,0,0,4,,,,3,,,97,107
404040,note_off,,,,,120,0,4,,,,3,,,97,64
404160,note_off,,,,,120,0,4,,,,3,,,97,64
404160,note_on,,,,,5770,0,2,,,,1,,,54,77
404160,note_on,,,,,0,0,4,,,,3,,,102,107
404190,set_tempo,,,,,940,1,0,441176,,,,,,,
404280,note_off,,,,,120,0,4,,,,3,,,102,64
404400,note_off,,,,,240,0,2,,,,1,,,54,64
404400,note_on,,,,,0,0,2,,,,1,,,61,41
404400,note_on,,,,,0,0,2,,,,1,,,66,75
404400,note_on,,,,,0,0,2,,,,1,,,70,57
404640,note_off,,,,,0,0,2,,,,1,,,61,64
404640,note_off,,,,,0,0,2,,,,1,,,66,64
404640,note_off,,,,,240,0,2,,,,1,,,70,64
404640,note_on,,,,,360,0,4,,,,3,,,78,87
404640,note_on,,,,,0,0,2,,,,1,,,49,73
404880,note_on,,,,,0,0,2,,,,1,,,61,57
404880,note_on,,,,,0,0,2,,,,1,,,66,71
404880,note_on,,,,,0,0,2,,,,1,,,70,77
404880,note_off,,,,,240,0,2,,,,1,,,49,64
405120,note_off,,,,,240,0,2,,,,1,,,70,64
405120,note_off,,,,,0,0,2,,,,1,,,66,64
405120,note_on,,,,,0,0,2,,,,1,,,54,77
405120,note_on,,,,,0,0,4,,,,3,,,81,97
405120,note_off,,,,,480,0,4,,,,3,,,78,64
405120,note_off,,,,,0,0,2,,,,1,,,61,64
405360,note_off,,,,,240,0,2,,,,1,,,54,64
405360,note_on,,,,,0,0,2,,,,1,,,66,79
405360,note_on,,,,,0,0,2,,,,1,,,69,75
405360,note_on,,,,,0,0,2,,,,1,,,61,59
405600,note_off,,,,,0,0,2,,,,1,,,61,64
405600,note_off,,,,,0,0,2,,,,1,,,66,64
405600,note_on,,,,,0,0,2,,,,1,,,49,79
405600,note_off,,,,,240,0,2,,,,1,,,69,64
405840,note_off,,,,,240,0,2,,,,1,,,49,64
405840,note_on,,,,,0,0,2,,,,1,,,61,59
405840,note_on,,,,,0,0,2,,,,1,,,66,75
405840,note_on,,,,,0,0,2,,,,1,,,69,71
406080,note_off,,,,,240,0,2,,,,1,,,69,64
406080,note_off,,,,,0,0,2,,,,1,,,66,64
406080,note_off,,,,,0,0,2,,,,1,,,61,64
406080,note_on,,,,,0,0,4,,,,3,,,80,97
406080,note_off,,,,,960,0,4,,,,3,,,81,64
406080,note_on,,,,,0,0,2,,,,1,,,56,79
406200,note_off,,,,,120,0,4,,,,3,,,80,64
406320,note_off,,,,,240,0,2,,,,1,,,56,64
406320,note_on,,,,,0,0,2,,,,1,,,73,69
406320,note_on,,,,,0,0,2,,,,1,,,65,83
406320,note_on,,,,,0,0,2,,,,1,,,61,63
406440,note_on,,,,,240,0,4,,,,3,,,81,93
406560,note_on,,,,,0,0,4,,,,3,,,83,97
406560,note_off,,,,,120,0,4,,,,3,,,81,64
406560,note_off,,,,,0,0,2,,,,1,,,65,64
406560,note_off,,,,,0,0,2,,,,1,,,61,64
406560,note_off,,,,,240,0,2,,,,1,,,73,64
406560,note_on,,,,,0,0,2,,,,1,,,49,79
406680,note_off,,,,,120,0,4,,,,3,,,83,64
406800,note_on,,,,,0,0,2,,,,1,,,65,87
406800,note_on,,,,,0,0,2,,,,1,,,73,51
406800,note_off,,,,,240,0,2,,,,1,,,49,64
406800,note_on,,,,,0,0,2,,,,1,,,61,43
406920,note_on,,,,,240,0,4,,,,3,,,86,97
407040,note_off,,,,,0,0,2,,,,1,,,65,64
407040,note_off,,,,,0,0,2,,,,1,,,61,64
407040,note_on,,,,,0,0,2,,,,1,,,56,75
407040,note_on,,,,,0,0,4,,,,3,,,85,91
407040,note_off,,,,,240,0,2,,,,1,,,73,64
407040,note_off,,,,,120,0,4,,,,3,,,86,64
407280,note_off,,,,,240,0,2,,,,1,,,56,64
407280,note_on,,,,,0,0,2,,,,1,,,61,39
407280,note_on,,,,,0,0,2,,,,1,,,65,79
407280,note_on,,,,,0,0,2,,,,1,,,73,43
407280,note_off,,,,,240,0,4,,,,3,,,85,64
407400,note_on,,,,,120,0,4,,,,3,,,73,93
407520,note_on,,,,,0,0,2,,,,1,,,49,71
407520,note_off,,,,,240,0,2,,,,1,,,73,64
407520,note_off,,,,,120,0,4,,,,3,,,73,64
407520,note_off,,,,,0,0,2,,,,1,,,61,64
407520,note_off,,,,,0,0,2,,,,1,,,65,64
407520,note_on,,,,,0,0,4,,,,3,,,75,91
407640,note_off,,,,,120,0,4,,,,3,,,75,64
407760,note_on,,,,,0,0,2,,,,1,,,65,93
407760,note_on,,,,,0,0,2,,,,1,,,61,69
407760,note_on,,,,,0,0,2,,,,1,,,73,75
407760,note_off,,,,,240,0,2,,,,1,,,49,64
407880,note_on,,,,,240,0,4,,,,3,,,80,83
407980,set_tempo,,,,,3790,1,0,437956,,,,,,,
408000,note_on,,,,,0,0,4,,,,3,,,78,83
408000,note_off,,,,,240,0,2,,,,1,,,73,64
408000,note_off,,,,,0,0,2,,,,1,,,65,64
408000,note_off,,,,,0,0,2,,,,1,,,61,64
408000,note_off,,,,,120,0,4,,,,3,,,80,64
408000,note_on,,,,,0,0,2,,,,1,,,54,77
408030,note_off,,,,,30,0,4,,,,3,,,78,64
408030,note_on,,,,,0,0,4,,,,3,,,80,79
408060,note_off,,,,,30,0,4,,,,3,,,80,64
408060,note_on,,,,,0,0,4,,,,3,,,78,83
408120,note_off,,,,,60,0,4,,,,3,,,78,64
408240,note_on,,,,,0,0,2,,,,1,,,61,59
408240,note_on,,,,,0,0,2,,,,1,,,66,77
408240,note_on,,,,,0,0,2,,,,1,,,70,69
408240,note_off,,,,,240,0,2,,,,1,,,54,64
408360,note_on,,,,,240,0,4,,,,3,,,77,93
408480,note_off,,,,,120,0,4,,,,3,,,77,64
408480,note_off,,,,,240,0,2,,,,1,,,70,64
408480,note_off,,,,,0,0,2,,,,1,,,61,64
408480,note_off,,,,,0,0,2,,,,1,,,66,64
408480,note_on,,,,,0,0,2,,,,1,,,49,83
408480,note_on,,,,,0,0,4,,,,3,,,78,91
408600,note_off,,,,,120,0,4,,,,3,,,78,64
408720,note_on,,,,,0,0,2,,,,1,,,70,73
408720,note_on,,,,,0,0,2,,,,1,,,66,71
408720,note_on,,,,,0,0,2,,,,1,,,61,59
408720,note_off,,,,,240,0,2,,,,1,,,49,64
408840,note_on,,,,,240,0,4,,,,3,,,80,93
408960,note_on,,,,,0,0,4,,,,3,,,81,97
408960,note_off,,,,,0,0,2,,,,1,,,66,64
408960,note_off,,,,,0,0,2,,,,1,,,61,64
408960,note_off,,,,,120,0,4,,,,3,,,80,64
408960,note_on,,,,,0,0,2,,,,1,,,54,75
408960,note_off,,,,,240,0,2,,,,1,,,70,64
409200,note_on,,,,,0,0,2,,,,1,,,66,71
409200,note_on,,,,,0,0,2,,,,1,,,69,79
409200,note_off,,,,,240,0,2,,,,1,,,54,64
409200,note_on,,,,,0,0,2,,,,1,,,61,53
409440,note_on,,,,,0,0,2,,,,1,,,49,79
409440,note_off,,,,,0,0,2,,,,1,,,66,64
409440,note_off,,,,,240,0,2,,,,1,,,69,64
409440,note_off,,,,,0,0,2,,,,1,,,61,64
409680,note_on,,,,,0,0,2,,,,1,,,61,61
409680,note_on,,,,,0,0,2,,,,1,,,66,75
409680,note_on,,,,,0,0,2,,,,1,,,69,79
409680,note_off,,,,,240,0,2,,,,1,,,49,64
409920,note_on,,,,,0,0,2,,,,1,,,56,77
409920,note_off,,,,,960,0,4,,,,3,,,81,64
409920,note_off,,,,,0,0,2,,,,1,,,61,64
409920,note_off,,,,,240,0,2,,,,1,,,69,64
409920,note_on,,,,,0,0,4,,,,3,,,80,79
409920,note_off,,,,,0,0,2,,,,1,,,66,64
410040,note_off,,,,,120,0,4,,,,3,,,80,64
410160,note_off,,,,,240,0,2,,,,1,,,56,64
410160,note_on,,,,,0,0,2,,,,1,,,61,55
410160,note_on,,,,,0,0,2,,,,1,,,65,87
410160,note_on,,,,,0,0,2,,,,1,,,73,65
410280,note_on,,,,,240,0,4,,,,3,,,81,83
410400,note_off,,,,,240,0,2,,,,1,,,73,64
410400,note_on,,,,,0,0,4,,,,3,,,83,87
410400,note_on,,,,,0,0,2,,,,1,,,49,83
410400,note_off,,,,,0,0,2,,,,1,,,61,64
410400,note_off,,,,,120,0,4,,,,3,,,81,64
410400,note_off,,,,,0,0,2,,,,1,,,65,64
410520,note_off,,,,,120,0,4,,,,3,,,83,64
410640,note_on,,,,,0,0,2,,,,1,,,61,59
410640,note_on,,,,,0,0,2,,,,1,,,73,63
410640,note_off,,,,,240,0,2,,,,1,,,49,64
410640,note_on,,,,,0,0,2,,,,1,,,65,91
410760,note_on,,,,,240,0,4,,,,3,,,86,93
410880,note_off,,,,,240,0,2,,,,1,,,73,64
410880,note_off,,,,,120,0,4,,,,3,,,86,64
410880,note_on,,,,,0,0,2,,,,1,,,56,77
410880,note_off,,,,,0,0,2,,,,1,,,61,64
410880,note_off,,,,,0,0,2,,,,1,,,65,64
410880,note_on,,,,,0,0,4,,,,3,,,85,83
411000,note_off,,,,,120,0,4,,,,3,,,85,64
411120,note_off,,,,,240,0,2,,,,1,,,56,64
411120,note_on,,,,,0,0,2,,,,1,,,73,75
411120,note_on,,,,,0,0,2,,,,1,,,61,63
411120,note_on,,,,,0,0,2,,,,1,,,65,93
411240,note_on,,,,,240,0,4,,,,3,,,73,73
411360,note_off,,,,,240,0,2,,,,1,,,73,64
411360,note_off,,,,,120,0,4,,,,3,,,73,64
411360,note_on,,,,,0,0,4,,,,3,,,75,87
411360,note_on,,,,,0,0,2,,,,1,,,49,91
411360,note_off,,,,,0,0,2,,,,1,,,61,64
411360,note_off,,,,,0,0,2,,,,1,,,65,64
411480,note_off,,,,,120,0,4,,,,3,,,75,64
411600,note_off,,,,,240,0,2,,,,1,,,49,64
411600,note_on,,,,,0,0,2,,,,1,,,73,73
411600,note_on,,,,,0,0,2,,,,1,,,65,83
411600,note_on,,,,,0,0,2,,,,1,,,61,29
411720,note_on,,,,,240,0,4,,,,3,,,77,91
411840,note_off,,,,,240,0,2,,,,1,,,73,64
411840,note_off,,,,,0,0,2,,,,1,,,61,64
411840,note_off,,,,,120,0,4,,,,3,,,77,64
411840,note_off,,,,,0,0,2,,,,1,,,65,64
411840,note_on,,,,,0,0,4,,,,3,,,78,83
411840,note_on,,,,,0,0,2,,,,1,,,54,77
411860,set_tempo,,,,,3880,1,0,434782,,,,,,,
411870,note_off,,,,,30,0,4,,,,3,,,78,64
411870,note_on,,,,,0,0,4,,,,3,,,80,91
411900,note_off,,,,,30,0,4,,,,3,,,80,64
411900,note_on,,,,,0,0,4,,,,3,,,78,83
411960,note_off,,,,,60,0,4,,,,3,,,78,64
412080,note_off,,,,,240,0,2,,,,1,,,54,64
412080,note_on,,,,,0,0,2,,,,1,,,61,61
412080,note_on,,,,,0,0,2,,,,1,,,70,73
412080,note_on,,,,,0,0,2,,,,1,,,66,79
412200,note_on,,,,,240,0,4,,,,3,,,77,79
412320,note_off,,,,,0,0,2,,,,1,,,61,64
412320,note_off,,,,,120,0,4,,,,3,,,77,64
412320,note_on,,,,,0,0,4,,,,3,,,78,87
412320,note_off,,,,,240,0,2,,,,1,,,70,64
412320,note_on,,,,,0,0,2,,,,1,,,49,87
412320,note_off,,,,,0,0,2,,,,1,,,66,64
412440,note_off,,,,,120,0,4,,,,3,,,78,64
412560,note_on,,,,,0,0,2,,,,1,,,70,67
412560,note_off,,,,,240,0,2,,,,1,,,49,64
412560,note_on,,,,,0,0,2,,,,1,,,66,73
412560,note_on,,,,,0,0,2,,,,1,,,61,59
412680,note_on,,,,,240,0,4,,,,3,,,80,91
412800,note_off,,,,,0,0,2,,,,1,,,66,64
412800,note_off,,,,,0,0,2,,,,1,,,61,64
412800,note_on,,,,,0,0,2,,,,1,,,54,77
412800,note_on,,,,,0,0,4,,,,3,,,78,79
412800,note_off,,,,,120,0,4,,,,3,,,80,64
412800,note_off,,,,,240,0,2,,,,1,,,70,64
412830,note_on,,,,,0,0,4,,,,3,,,80,91
412830,note_off,,,,,30,0,4,,,,3,,,78,64
412860,note_off,,,,,30,0,4,,,,3,,,80,64
412860,note_on,,,,,0,0,4,,,,3,,,81,91
412920,note_off,,,,,60,0,4,,,,3,,,81,64
413040,note_on,,,,,0,0,2,,,,1,,,61,55
413040,note_on,,,,,0,0,2,,,,1,,,66,67
413040,note_on,,,,,0,0,2,,,,1,,,69,71
413040,note_off,,,,,240,0,2,,,,1,,,54,64
413280,note_on,,,,,0,0,2,,,,1,,,49,79
413280,note_on,,,,,360,0,4,,,,3,,,81,97
413280,note_off,,,,,240,0,2,,,,1,,,69,64
413280,note_off,,,,,0,0,2,,,,1,,,66,64
413280,note_off,,,,,0,0,2,,,,1,,,61,64
413520,note_on,,,,,0,0,2,,,,1,,,61,59
413520,note_on,,,,,0,0,2,,,,1,,,66,77
413520,note_on,,,,,0,0,2,,,,1,,,69,79
413520,note_off,,,,,240,0,2,,,,1,,,49,64
413750,set_tempo,,,,,1890,1,0,437956,,,,,,,
413760,note_on,,,,,0,0,2,,,,1,,,56,87
413760,note_off,,,,,480,0,4,,,,3,,,81,64
413760,note_off,,,,,0,0,2,,,,1,,,61,64
413760,note_off,,,,,0,0,2,,,,1,,,66,64
413760,note_on,,,,,0,0,4,,,,3,,,80,87
413760,note_off,,,,,240,0,2,,,,1,,,69,64
413880,note_off,,,,,120,0,4,,,,3,,,80,64
414000,note_on,,,,,0,0,2,,,,1,,,73,71
414000,note_on,,,,,0,0,2,,,,1,,,65,91
414000,note_on,,,,,0,0,2,,,,1,,,61,59
414000,note_off,,,,,240,0,2,,,,1,,,56,64
414120,note_on,,,,,240,0,4,,,,3,,,81,87
414240,note_off,,,,,120,0,4,,,,3,,,81,64
414240,note_off,,,,,0,0,2,,,,1,,,61,64
414240,note_off,,,,,0,0,2,,,,1,,,65,64
414240,note_off,,,,,240,0,2,,,,1,,,73,64
414240,note_on,,,,,0,0,4,,,,3,,,83,93
414240,note_on,,,,,0,0,2,,,,1,,,49,79
414360,note_off,,,,,120,0,4,,,,3,,,83,64
414480,note_on,,,,,0,0,2,,,,1,,,61,55
414480,note_on,,,,,0,0,2,,,,1,,,65,93
414480,note_on,,,,,0,0,2,,,,1,,,73,77
414480,note_off,,,,,240,0,2,,,,1,,,49,64
414600,note_on,,,,,240,0,4,,,,3,,,86,91
414710,note_off,,,,,0,0,2,,,,1,,,65,64
414710,note_off,,,,,230,0,2,,,,1,,,73,64
414710,note_off,,,,,0,0,2,,,,1,,,61,64
414720,note_off,,,,,120,0,4,,,,3,,,86,64
414720,note_on,,,,,0,0,4,,,,3,,,85,91
414790,set_tempo,,,,,1040,1,0,441176,,,,,,,
414950,set_tempo,,,,,160,1,0,444444,,,,,,,
415670,note_off,,,,,950,0,4,,,,3,,,85,64
416640,set_tempo,,,,,1690,1,0,382165,,,,,,,
416640,note_on,,,,,1930,0,2,,,,1,,,37,97
416760,note_off,,,,,120,0,2,,,,1,,,37,64
416760,note_on,,,,,0,0,2,,,,1,,,61,93
416760,note_on,,,,,0,0,2,,,,1,,,49,91
416880,note_off,,,,,0,0,2,,,,1,,,61,64
416880,note_off,,,,,120,0,2,,,,1,,,49,64
416880,note_on,,,,,0,0,2,,,,1,,,39,97
417000,note_on,,,,,0,0,2,,,,1,,,51,83
417000,note_on,,,,,0,0,2,,,,1,,,63,93
417000,note_off,,,,,120,0,2,,,,1,,,39,64
417120,note_off,,,,,120,0,2,,,,1,,,51,64
417120,note_off,,,,,0,0,2,,,,1,,,63,64
417120,note_on,,,,,0,0,2,,,,1,,,41,87
417240,note_off,,,,,120,0,2,,,,1,,,41,64
417240,note_on,,,,,0,0,2,,,,1,,,65,91
417240,note_on,,,,,0,0,2,,,,1,,,53,87
417360,note_off,,,,,120,0,2,,,,1,,,65,64
417360,note_off,,,,,0,0,2,,,,1,,,53,64
417360,note_on,,,,,0,0,2,,,,1,,,42,91
417480,note_off,,,,,120,0,2,,,,1,,,42,64
417480,note_on,,,,,0,0,2,,,,1,,,66,87
417480,note_on,,,,,0,0,2,,,,1,,,54,93
417600,note_off,,,,,120,0,2,,,,1,,,66,64
417600,note_on,,,,,0,0,2,,,,1,,,49,97
417600,note_on,,,,,0,0,2,,,,1,,,44,97
417600,note_off,,,,,0,0,2,,,,1,,,54,64
417720,note_on,,,,,0,0,2,,,,1,,,68,83
417720,note_on,,,,,0,0,2,,,,1,,,61,93
417720,note_on,,,,,0,0,2,,,,1,,,56,69
417720,note_off,,,,,120,0,2,,,,1,,,49,64
417720,note_off,,,,,0,0,2,,,,1,,,44,64
417840,note_on,,,,,0,0,2,,,,1,,,43,91
417840,note_off,,,,,0,0,2,,,,1,,,56,64
417840,note_off,,,,,0,0,2,,,,1,,,61,64
417840,note_off,,,,,120,0,2,,,,1,,,68,64
417960,note_on,,,,,0,0,2,,,,1,,,67,93
417960,note_off,,,,,120,0,2,,,,1,,,43,64
417960,note_on,,,,,0,0,2,,,,1,,,55,79
418080,note_on,,,,,0,0,2,,,,1,,,44,83
418080,note_off,,,,,0,0,2,,,,1,,,55,64
418080,note_off,,,,,120,0,2,,,,1,,,67,64
418200,note_on,,,,,0,0,2,,,,1,,,56,93
418200,note_on,,,,,0,0,2,,,,1,,,68,87
418200,note_off,,,,,120,0,2,,,,1,,,44,64
418320,note_on,,,,,0,0,2,,,,1,,,41,97
418320,note_off,,,,,120,0,2,,,,1,,,68,64
418320,note_off,,,,,0,0,2,,,,1,,,56,64
418440,note_on,,,,,0,0,2,,,,1,,,53,73
418440,note_on,,,,,0,0,2,,,,1,,,65,87
418440,note_off,,,,,120,0,2,,,,1,,,41,64
418560,note_off,,,,,0,0,2,,,,1,,,53,64
418560,note_on,,,,,0,0,2,,,,1,,,42,91
418560,note_off,,,,,120,0,2,,,,1,,,65,64
418600,set_tempo,,,,,1960,1,0,377358,,,,,,,
418680,note_on,,,,,0,0,2,,,,1,,,54,93
418680,note_off,,,,,120,0,2,,,,1,,,42,64
418680,note_on,,,,,0,0,2,,,,1,,,66,91
418800,note_off,,,,,120,0,2,,,,1,,,66,64
418800,note_on,,,,,0,0,2,,,,1,,,44,97
418800,note_off,,,,,0,0,2,,,,1,,,54,64
418920,note_on,,,,,0,0,2,,,,1,,,56,83
418920,note_on,,,,,0,0,2,,,,1,,,68,83
418920,note_off,,,,,120,0,2,,,,1,,,44,64
419040,note_off,,,,,120,0,2,,,,1,,,68,64
419040,note_off,,,,,0,0,2,,,,1,,,56,64
419040,note_on,,,,,0,0,2,,,,1,,,46,87
419160,note_off,,,,,120,0,2,,,,1,,,46,64
419160,note_on,,,,,0,0,2,,,,1,,,70,91
419160,note_on,,,,,0,0,2,,,,1,,,58,83
419280,note_off,,,,,120,0,2,,,,1,,,70,64
419280,note_off,,,,,0,0,2,,,,1,,,58,64
419280,note_on,,,,,0,0,2,,,,1,,,47,91
419400,note_on,,,,,0,0,2,,,,1,,,71,103
419400,note_on,,,,,0,0,2,,,,1,,,59,91
419400,note_off,,,,,120,0,2,,,,1,,,47,64
419520,note_on,,,,,0,0,2,,,,1,,,54,83
419520,note_off,,,,,0,0,2,,,,1,,,59,64
419520,note_off,,,,,120,0,2,,,,1,,,71,64
419520,note_on,,,,,0,0,2,,,,1,,,49,91
419640,note_on,,,,,0,0,2,,,,1,,,73,93
419640,note_off,,,,,0,0,2,,,,1,,,49,64
419640,note_on,,,,,0,0,2,,,,1,,,66,93
419640,note_on,,,,,0,0,2,,,,1,,,61,79
419640,note_off,,,,,120,0,2,,,,1,,,54,64
419760,note_off,,,,,120,0,2,,,,1,,,73,64
419760,note_off,,,,,0,0,2,,,,1,,,66,64
419760,note_off,,,,,0,0,2,,,,1,,,61,64
419760,note_on,,,,,0,0,2,,,,1,,,48,91
419880,note_on,,,,,0,0,2,,,,1,,,72,93
419880,note_on,,,,,0,0,2,,,,1,,,60,69
419880,note_off,,,,,120,0,2,,,,1,,,48,64
420000,note_on,,,,,0,0,2,,,,1,,,49,93
420000,note_off,,,,,120,0,2,,,,1,,,72,64
420000,note_off,,,,,0,0,2,,,,1,,,60,64
420120,note_on,,,,,0,0,2,,,,1,,,73,87
420120,note_off,,,,,120,0,2,,,,1,,,49,64
420120,note_on,,,,,0,0,2,,,,1,,,61,91
420240,note_on,,,,,0,0,2,,,,1,,,46,93
420240,note_off,,,,,120,0,2,,,,1,,,73,64
420240,note_off,,,,,0,0,2,,,,1,,,61,64
420360,note_on,,,,,0,0,2,,,,1,,,58,87
420360,note_on,,,,,0,0,2,,,,1,,,70,91
420360,note_off,,,,,120,0,2,,,,1,,,46,64
420480,note_off,,,,,0,0,2,,,,1,,,58,64
420480,note_off,,,,,120,0,2,,,,1,,,70,64
420480,note_on,,,,,0,0,2,,,,1,,,47,93
420560,set_tempo,,,,,1960,1,0,375000,,,,,,,
420600,note_on,,,,,0,0,2,,,,1,,,59,107
420600,note_off,,,,,120,0,2,,,,1,,,47,64
420600,note_on,,,,,0,0,2,,,,1,,,71,97
420720,note_off,,,,,120,0,2,,,,1,,,71,64
420720,note_off,,,,,0,0,2,,,,1,,,59,64
420720,note_on,,,,,0,0,2,,,,1,,,51,97
420840,note_on,,,,,0,0,2,,,,1,,,75,97
420840,note_on,,,,,0,0,2,,,,1,,,63,107
420840,note_off,,,,,120,0,2,,,,1,,,51,64
420960,note_off,,,,,120,0,2,,,,1,,,75,64
420960,note_off,,,,,0,0,2,,,,1,,,63,64
420960,note_on,,,,,0,0,2,,,,1,,,44,97
421080,note_on,,,,,0,0,2,,,,1,,,68,93
421080,note_off,,,,,120,0,2,,,,1,,,44,64
421080,note_on,,,,,0,0,2,,,,1,,,56,103
421200,note_on,,,,,0,0,2,,,,1,,,47,118
421200,note_off,,,,,120,0,2,,,,1,,,68,64
421200,note_off,,,,,0,0,2,,,,1,,,56,64
421320,note_on,,,,,0,0,2,,,,1,,,71,107
421320,note_on,,,,,0,0,2,,,,1,,,59,115
421320,note_off,,,,,120,0,2,,,,1,,,47,64
421440,note_on,,,,,0,0,2,,,,1,,,41,115
421440,note_off,,,,,0,0,2,,,,1,,,59,64
421440,note_off,,,,,120,0,2,,,,1,,,71,64
421560,note_on,,,,,0,0,2,,,,1,,,53,103
421560,note_on,,,,,0,0,2,,,,1,,,65,97
421560,note_off,,,,,120,0,2,,,,1,,,41,64
421680,note_off,,,,,0,0,2,,,,1,,,53,64
421680,note_off,,,,,120,0,2,,,,1,,,65,64
421680,note_on,,,,,0,0,2,,,,1,,,44,118
421800,note_on,,,,,0,0,2,,,,1,,,56,115
421800,note_on,,,,,0,0,2,,,,1,,,68,97
421800,note_off,,,,,120,0,2,,,,1,,,44,64
421920,note_on,,,,,0,0,2,,,,1,,,37,118
421920,note_off,,,,,0,0,2,,,,1,,,56,64
421920,note_off,,,,,120,0,2,,,,1,,,68,64
422040,note_on,,,,,0,0,2,,,,1,,,61,97
422040,note_off,,,,,120,0,2,,,,1,,,37,64
422040,note_on,,,,,0,0,2,,,,1,,,49,115
422160,note_off,,,,,120,0,2,,,,1,,,49,64
422160,note_on,,,,,0,0,2,,,,1,,,41,121
422160,note_off,,,,,0,0,2,,,,1,,,61,64
422280,note_off,,,,,120,0,2,,,,1,,,41,64
422280,note_on,,,,,0,0,2,,,,1,,,53,115
422280,note_on,,,,,0,0,2,,,,1,,,65,107
422400,note_off,,,,,0,0,2,,,,1,,,65,64
422400,note_off,,,,,120,0,2,,,,1,,,53,64
422400,note_on,,,,,0,0,2,,,,1,,,42,121
422520,note_off,,,,,120,0,2,,,,1,,,42,64
422520,note_on,,,,,0,0,2,,,,1,,,54,118
422520,note_on,,,,,0,0,2,,,,1,,,66,107
422640,note_off,,,,,0,0,2,,,,1,,,54,64
422640,note_off,,,,,120,0,2,,,,1,,,66,64
422640,note_on,,,,,0,0,2,,,,1,,,46,122
422760,note_off,,,,,120,0,2,,,,1,,,46,64
422760,note_on,,,,,0,0,2,,,,1,,,70,118
422760,note_on,,,,,0,0,2,,,,1,,,58,118
422880,note_on,,,,,0,0,2,,,,1,,,37,122
422880,note_off,,,,,120,0,2,,,,1,,,70,64
422880,note_off,,,,,0,0,2,,,,1,,,58,64
423000,note_on,,,,,0,0,2,,,,1,,,49,121
423000,note_on,,,,,0,0,2,,,,1,,,61,115
423000,note_off,,,,,120,0,2,,,,1,,,37,64
423120,note_off,,,,,120,0,2,,,,1,,,49,64
423120,note_on,,,,,0,0,2,,,,1,,,42,122
423120,note_off,,,,,0,0,2,,,,1,,,61,64
423240,note_on,,,,,0,0,2,,,,1,,,54,118
423240,note_on,,,,,0,0,2,,,,1,,,66,107
423240,note_off,,,,,120,0,2,,,,1,,,42,64
423360,note_on,,,,,0,0,2,,,,1,,,34,127
423360,note_off,,,,,120,0,2,,,,1,,,54,64
423360,note_off,,,,,0,0,2,,,,1,,,66,64
423480,note_off,,,,,120,0,2,,,,1,,,34,64
423480,note_on,,,,,0,0,2,,,,1,,,46,121
423480,note_on,,,,,0,0,2,,,,1,,,58,118
423600,note_on,,,,,0,0,2,,,,1,,,41,122
423600,note_off,,,,,120,0,2,,,,1,,,46,64
423600,note_off,,,,,0,0,2,,,,1,,,58,64
423720,note_off,,,,,120,0,2,,,,1,,,41,64
423720,note_on,,,,,0,0,2,,,,1,,,53,121
423720,note_on,,,,,0,0,2,,,,1,,,65,115
423840,note_off,,,,,120,0,2,,,,1,,,53,64
423840,note_on,,,,,0,0,2,,,,1,,,42,122
423840,note_off,,,,,0,0,2,,,,1,,,65,64
423960,note_off,,,,,120,0,2,,,,1,,,42,64
423960,note_on,,,,,0,0,2,,,,1,,,54,118
423960,note_on,,,,,0,0,2,,,,1,,,66,97
424080,note_off,,,,,120,0,2,,,,1,,,66,64
424080,note_off,,,,,0,0,2,,,,1,,,54,64
424080,note_on,,,,,0,0,2,,,,1,,,46,122
424200,note_off,,,,,120,0,2,,,,1,,,46,64
424200,note_on,,,,,0,0,2,,,,1,,,58,118
424200,note_on,,,,,0,0,2,,,,1,,,70,115
424320,note_off,,,,,120,0,2,,,,1,,,70,64
424320,note_on,,,,,0,0,2,,,,1,,,37,103
424320,note_on,,,,,0,0,2,,,,1,,,41,107
424320,note_on,,,,,0,0,2,,,,1,,,44,107
424320,note_off,,,,,0,0,2,,,,1,,,58,64
424320,note_on,,,,,0,0,2,,,,1,,,49,97
424440,note_off,,,,,0,0,2,,,,1,,,41,64
424440,note_off,,,,,0,0,2,,,,1,,,37,64
424440,note_on,,,,,0,0,2,,,,1,,,73,118
424440,note_on,,,,,0,0,2,,,,1,,,68,103
424440,note_on,,,,,0,0,2,,,,1,,,65,118
424440,note_on,,,,,0,0,2,,,,1,,,61,115
424440,note_off,,,,,120,0,2,,,,1,,,49,64
424440,note_off,,,,,0,0,2,,,,1,,,44,64
424560,note_off,,,,,0,0,2,,,,1,,,61,64
424560,note_off,,,,,0,0,2,,,,1,,,65,64
424560,note_off,,,,,0,0,2,,,,1,,,68,64
424560,note_on,,,,,0,0,2,,,,1,,,51,115
424560,note_on,,,,,0,0,2,,,,1,,,39,115
424560,note_off,,,,,120,0,2,,,,1,,,73,64
424680,note_on,,,,,0,0,2,,,,1,,,75,118
424680,note_on,,,,,0,0,2,,,,1,,,63,122
424680,note_off,,,,,120,0,2,,,,1,,,51,64
424680,note_off,,,,,0,0,2,,,,1,,,39,64
424800,note_on,,,,,0,0,2,,,,1,,,41,122
424800,note_on,,,,,0,0,2,,,,1,,,53,118
424800,note_off,,,,,120,0,2,,,,1,,,75,64
424800,note_off,,,,,0,0,2,,,,1,,,63,64
424920,note_off,,,,,0,0,2,,,,1,,,41,64
424920,note_on,,,,,0,0,2,,,,1,,,65,121
424920,note_on,,,,,0,0,2,,,,1,,,77,122
424920,note_off,,,,,120,0,2,,,,1,,,53,64
425040,note_on,,,,,0,0,2,,,,1,,,42,115
425040,note_on,,,,,0,0,2,,,,1,,,54,121
425040,note_off,,,,,0,0,2,,,,1,,,65,64
425040,note_off,,,,,120,0,2,,,,1,,,77,64
425160,note_on,,,,,0,0,2,,,,1,,,78,121
425160,note_off,,,,,120,0,2,,,,1,,,54,64
425160,note_on,,,,,0,0,2,,,,1,,,66,121
425160,note_off,,,,,0,0,2,,,,1,,,42,64
425280,note_on,,,,,0,0,2,,,,1,,,56,118
425280,note_on,,,,,0,0,2,,,,1,,,49,115
425280,note_on,,,,,0,0,2,,,,1,,,44,107
425280,note_off,,,,,0,0,2,,,,1,,,66,64
425280,note_off,,,,,120,0,2,,,,1,,,78,64
425400,note_off,,,,,0,0,2,,,,1,,,44,64
425400,note_off,,,,,0,0,2,,,,1,,,49,64
425400,note_on,,,,,0,0,2,,,,1,,,73,118
425400,note_on,,,,,0,0,2,,,,1,,,80,121
425400,note_off,,,,,120,0,2,,,,1,,,56,64
425400,note_on,,,,,0,0,2,,,,1,,,68,121
425520,note_on,,,,,0,0,2,,,,1,,,43,118
425520,note_off,,,,,0,0,2,,,,1,,,68,64
425520,note_off,,,,,0,0,2,,,,1,,,73,64
425520,note_on,,,,,0,0,2,,,,1,,,55,118
425520,note_off,,,,,120,0,2,,,,1,,,80,64
425640,note_on,,,,,0,0,2,,,,1,,,67,121
425640,note_off,,,,,120,0,2,,,,1,,,55,64
425640,note_on,,,,,0,0,2,,,,1,,,79,122
425640,note_off,,,,,0,0,2,,,,1,,,43,64
425760,note_off,,,,,0,0,2,,,,1,,,67,64
425760,note_off,,,,,120,0,2,,,,1,,,79,64
425760,note_on,,,,,0,0,2,,,,1,,,56,121
425760,note_on,,,,,0,0,2,,,,1,,,44,118
425880,note_off,,,,,120,0,2,,,,1,,,56,64
425880,note_off,,,,,0,0,2,,,,1,,,44,64
425880,note_on,,,,,0,0,2,,,,1,,,80,121
425880,note_on,,,,,0,0,2,,,,1,,,68,121
426000,note_on,,,,,0,0,2,,,,1,,,41,118
426000,note_on,,,,,0,0,2,,,,1,,,53,118
426000,note_off,,,,,120,0,2,,,,1,,,80,64
426000,note_off,,,,,0,0,2,,,,1,,,68,64
426120,note_off,,,,,120,0,2,,,,1,,,53,64
426120,note_off,,,,,0,0,2,,,,1,,,41,64
426120,note_on,,,,,0,0,2,,,,1,,,77,122
426120,note_on,,,,,0,0,2,,,,1,,,65,122
426240,note_on,,,,,0,0,2,,,,1,,,54,115
426240,note_on,,,,,0,0,2,,,,1,,,49,118
426240,note_off,,,,,120,0,2,,,,1,,,77,64
426240,note_on,,,,,0,0,2,,,,1,,,42,118
426240,note_off,,,,,0,0,2,,,,1,,,65,64
426240,note_on,,,,,0,0,2,,,,1,,,46,103
426360,note_on,,,,,0,0,2,,,,1,,,66,121
426360,note_on,,,,,0,0,2,,,,1,,,73,107
426360,note_on,,,,,0,0,2,,,,1,,,78,118
426360,note_off,,,,,0,0,2,,,,1,,,42,64
426360,note_off,,,,,0,0,2,,,,1,,,46,64
426360,note_off,,,,,120,0,2,,,,1,,,54,64
426360,note_off,,,,,0,0,2,,,,1,,,49,64
426360,note_on,,,,,0,0,2,,,,1,,,70,121
426480,note_off,,,,,120,0,2,,,,1,,,78,64
426480,note_off,,,,,0,0,2,,,,1,,,66,64
426480,note_on,,,,,0,0,2,,,,1,,,56,121
426480,note_off,,,,,0,0,2,,,,1,,,70,64
426480,note_off,,,,,0,0,2,,,,1,,,73,64
426480,note_on,,,,,0,0,2,,,,1,,,44,118
426600,note_off,,,,,0,0,2,,,,1,,,44,64
426600,note_off,,,,,120,0,2,,,,1,,,56,64
426600,note_on,,,,,0,0,2,,,,1,,,80,122
426600,note_on,,,,,0,0,2,,,,1,,,68,122
426720,note_off,,,,,0,0,2,,,,1,,,68,64
426720,note_on,,,,,0,0,2,,,,1,,,46,118
426720,note_off,,,,,120,0,2,,,,1,,,80,64
426720,note_on,,,,,0,0,2,,,,1,,,58,121
426840,note_off,,,,,0,0,2,,,,1,,,46,64
426840,note_on,,,,,0,0,2,,,,1,,,70,122
426840,note_on,,,,,0,0,2,,,,1,,,82,121
426840,note_off,,,,,120,0,2,,,,1,,,58,64
426960,note_on,,,,,0,0,2,,,,1,,,47,121
426960,note_on,,,,,0,0,2,,,,1,,,59,122
426960,note_off,,,,,120,0,2,,,,1,,,82,64
426960,note_off,,,,,0,0,2,,,,1,,,70,64
427080,note_on,,,,,0,0,2,,,,1,,,83,122
427080,note_off,,,,,120,0,2,,,,1,,,59,64
427080,note_off,,,,,0,0,2,,,,1,,,47,64
427080,note_on,,,,,0,0,2,,,,1,,,71,121
427200,note_on,,,,,0,0,2,,,,1,,,56,118
427200,note_on,,,,,0,0,2,,,,1,,,61,115
427200,note_off,,,,,120,0,2,,,,1,,,83,64
427200,note_off,,,,,0,0,2,,,,1,,,71,64
427200,note_on,,,,,0,0,2,,,,1,,,49,122
427320,note_on,,,,,61570,0,1,,,,0,,,85,118
427320,note_off,,,,,0,0,2,,,,1,,,49,64
427320,note_on,,,,,0,0,1,,,,0,,,78,115
427320,note_off,,,,,0,0,2,,,,1,,,56,64
427320,note_off,,,,,120,0,2,,,,1,,,61,64
427320,note_on,,,,,0,0,1,,,,0,,,73,122
427440,note_on,,,,,120,0,2,,,,1,,,60,121
427440,note_off,,,,,0,0,1,,,,0,,,73,64
427440,note_off,,,,,0,0,1,,,,0,,,78,64
427440,note_off,,,,,120,0,1,,,,0,,,85,64
427440,note_on,,,,,0,0,2,,,,1,,,48,121
427560,note_off,,,,,120,0,2,,,,1,,,60,64
427560,note_on,,,,,0,0,1,,,,0,,,72,118
427560,note_off,,,,,0,0,2,,,,1,,,48,64
427560,note_on,,,,,120,0,1,,,,0,,,84,118
427680,note_on,,,,,120,0,2,,,,1,,,61,118
427680,note_off,,,,,0,0,1,,,,0,,,72,64
427680,note_off,,,,,120,0,1,,,,0,,,84,64
427680,note_on,,,,,0,0,2,,,,1,,,49,122
427680,note_on,,,,,0,0,2,,,,1,,,56,121
427800,note_off,,,,,120,0,2,,,,1,,,61,64
427800,note_on,,,,,0,0,1,,,,0,,,73,121
427800,note_off,,,,,0,0,2,,,,1,,,56,64
427800,note_off,,,,,0,0,2,,,,1,,,49,64
427800,note_on,,,,,0,0,1,,,,0,,,78,118
427800,note_on,,,,,120,0,1,,,,0,,,85,118
427920,note_on,,,,,0,0,2,,,,1,,,46,121
427920,note_off,,,,,0,0,1,,,,0,,,78,64
427920,note_off,,,,,0,0,1,,,,0,,,73,64
427920,note_off,,,,,120,0,1,,,,0,,,85,64
427920,note_on,,,,,120,0,2,,,,1,,,58,118
428040,note_off,,,,,0,0,2,,,,1,,,46,64
428040,note_off,,,,,120,0,2,,,,1,,,58,64
428040,note_on,,,,,0,0,1,,,,0,,,70,118
428040,note_on,,,,,120,0,1,,,,0,,,82,118
428160,note_off,,,,,0,0,1,,,,0,,,70,64
428160,note_off,,,,,120,0,1,,,,0,,,82,64
428160,note_on,,,,,120,0,2,,,,1,,,61,118
428160,note_on,,,,,0,0,2,,,,1,,,53,121
428160,note_on,,,,,0,0,2,,,,1,,,56,115
428160,note_on,,,,,0,0,2,,,,1,,,49,122
428280,note_on,,,,,0,0,4,,,,3,,,73,122
428280,note_off,,,,,0,0,2,,,,1,,,53,64
428280,note_off,,,,,0,0,2,,,,1,,,49,64
428280,note_on,,,,,12610,0,4,,,,3,,,85,118
428280,note_on,,,,,0,0,4,,,,3,,,80,107
428280,note_off,,,,,0,0,2,,,,1,,,56,64
428280,note_off,,,,,120,0,2,,,,1,,,61,64
428280,note_on,,,,,0,0,4,,,,3,,,77,122
428400,note_off,,,,,0,0,4,,,,3,,,80,64
428400,note_off,,,,,0,0,4,,,,3,,,77,64
428400,note_off,,,,,0,0,4,,,,3,,,73,64
428400,note_on,,,,,120,0,2,,,,1,,,63,121
428400,note_off,,,,,120,0,4,,,,3,,,85,64
428400,note_on,,,,,0,0,2,,,,1,,,51,122
428520,note_off,,,,,120,0,2,,,,1,,,63,64
428520,note_on,,,,,120,0,4,,,,3,,,87,118
428520,note_off,,,,,0,0,2,,,,1,,,51,64
428520,note_on,,,,,0,0,4,,,,3,,,75,122
428640,note_on,,,,,0,0,2,,,,1,,,53,121
428640,note_off,,,,,120,0,4,,,,3,,,87,64
428640,note_off,,,,,0,0,4,,,,3,,,75,64
428640,note_on,,,,,120,0,2,,,,1,,,65,121
428760,note_off,,,,,120,0,2,,,,1,,,65,64
428760,note_on,,,,,120,0,4,,,,3,,,89,121
428760,note_on,,,,,0,0,4,,,,3,,,77,122
428760,note_off,,,,,0,0,2,,,,1,,,53,64
428880,note_on,,,,,0,0,2,,,,1,,,54,121
428880,note_off,,,,,120,0,4,,,,3,,,89,64
428880,note_off,,,,,0,0,4,,,,3,,,77,64
428880,note_on,,,,,120,0,2,,,,1,,,66,121
429000,note_off,,,,,0,0,2,,,,1,,,54,64
429000,note_off,,,,,120,0,2,,,,1,,,66,64
429000,note_on,,,,,120,0,4,,,,3,,,90,121
429000,note_on,,,,,0,0,4,,,,3,,,78,122
429120,note_off,,,,,0,0,4,,,,3,,,78,64
429120,note_off,,,,,120,0,4,,,,3,,,90,64
429120,note_on,,,,,0,0,2,,,,1,,,56,122
429120,note_on,,,,,120,0,2,,,,1,,,68,121
429120,note_on,,,,,0,0,2,,,,1,,,61,107
429240,note_on,,,,,0,0,4,,,,3,,,80,122
429240,note_off,,,,,0,0,2,,,,1,,,61,64
429240,note_on,,,,,120,0,4,,,,3,,,92,118
429240,note_off,,,,,0,0,2,,,,1,,,56,64
429240,note_on,,,,,0,0,4,,,,3,,,85,115
429240,note_off,,,,,120,0,2,,,,1,,,68,64
429360,note_on,,,,,0,0,2,,,,1,,,55,121
429360,note_on,,,,,120,0,2,,,,1,,,67,121
429360,note_off,,,,,0,0,4,,,,3,,,80,64
429360,note_off,,,,,0,0,4,,,,3,,,85,64
429360,note_off,,,,,120,0,4,,,,3,,,92,64
429480,note_on,,,,,120,0,4,,,,3,,,91,121
429480,note_off,,,,,120,0,2,,,,1,,,67,64
429480,note_on,,,,,0,0,4,,,,3,,,79,121
429480,note_off,,,,,0,0,2,,,,1,,,55,64
429600,note_on,,,,,0,0,2,,,,1,,,56,121
429600,note_on,,,,,120,0,2,,,,1,,,68,121
429600,note_off,,,,,0,0,4,,,,3,,,79,64
429600,note_off,,,,,120,0,4,,,,3,,,91,64
429720,note_on,,,,,120,0,4,,,,3,,,92,122
429720,note_off,,,,,120,0,2,,,,1,,,68,64
429720,note_on,,,,,0,0,4,,,,3,,,80,122
429720,note_off,,,,,0,0,2,,,,1,,,56,64
429720,note_on,,,,,0,0,4,,,,3,,,85,121
429840,note_off,,,,,0,0,4,,,,3,,,80,64
429840,note_on,,,,,120,0,2,,,,1,,,65,118
429840,note_off,,,,,0,0,4,,,,3,,,85,64
429840,note_on,,,,,0,0,2,,,,1,,,53,122
429840,note_off,,,,,120,0,4,,,,3,,,92,64
429960,note_off,,,,,120,0,2,,,,1,,,65,64
429960,note_on,,,,,0,0,4,,,,3,,,77,121
429960,note_off,,,,,0,0,2,,,,1,,,53,64
429960,note_on,,,,,120,0,4,,,,3,,,89,115
430080,note_off,,,,,0,0,4,,,,3,,,77,64
430080,note_on,,,,,120,0,2,,,,1,,,66,121
430080,note_on,,,,,0,0,2,,,,1,,,61,115
430080,note_on,,,,,0,0,2,,,,1,,,58,122
430080,note_off,,,,,120,0,4,,,,3,,,89,64
430080,note_on,,,,,0,0,2,,,,1,,,54,121
430200,note_on,,,,,120,0,4,,,,3,,,90,118
430200,note_off,,,,,0,0,2,,,,1,,,54,64
430200,note_off,,,,,0,0,2,,,,1,,,58,64
430200,note_on,,,,,0,0,4,,,,3,,,85,121
430200,note_off,,,,,0,0,2,,,,1,,,61,64
430200,note_on,,,,,0,0,4,,,,3,,,82,121
430200,note_off,,,,,120,0,2,,,,1,,,66,64
430320,note_off,,,,,0,0,4,,,,3,,,82,64
430320,note_off,,,,,0,0,4,,,,3,,,85,64
430320,note_on,,,,,0,0,2,,,,1,,,56,122
430320,note_on,,,,,120,0,2,,,,1,,,68,118
430320,note_off,,,,,120,0,4,,,,3,,,90,64
430440,note_on,,,,,0,0,4,,,,3,,,80,121
430440,note_off,,,,,0,0,2,,,,1,,,56,64
430440,note_on,,,,,120,0,4,,,,3,,,92,118
430440,note_off,,,,,120,0,2,,,,1,,,68,64
430560,note_off,,,,,120,0,4,,,,3,,,92,64
430560,note_on,,,,,0,0,2,,,,1,,,58,122
430560,note_off,,,,,0,0,4,,,,3,,,80,64
430560,note_on,,,,,120,0,2,,,,1,,,70,121
430680,note_off,,,,,120,0,2,,,,1,,,70,64
430680,note_on,,,,,120,0,4,,,,3,,,94,118
430680,note_on,,,,,0,0,4,,,,3,,,82,122
430680,note_off,,,,,0,0,2,,,,1,,,58,64
430800,note_on,,,,,0,0,2,,,,1,,,59,121
430800,note_on,,,,,120,0,2,,,,1,,,71,122
430800,note_off,,,,,0,0,4,,,,3,,,82,64
430800,note_off,,,,,120,0,4,,,,3,,,94,64
430920,note_off,,,,,0,0,2,,,,1,,,59,64
430920,note_on,,,,,120,0,4,,,,3,,,95,118
430920,note_off,,,,,120,0,2,,,,1,,,71,64
430920,note_on,,,,,0,0,4,,,,3,,,83,122
431040,note_on,,,,,0,0,2,,,,1,,,61,122
431040,note_off,,,,,0,0,4,,,,3,,,83,64
431040,note_on,,,,,120,0,2,,,,1,,,73,121
431040,note_on,,,,,0,0,2,,,,1,,,66,118
431040,note_off,,,,,120,0,4,,,,3,,,95,64
431160,note_off,,,,,0,0,2,,,,1,,,66,64
431160,note_off,,,,,120,0,2,,,,1,,,73,64
431160,note_on,,,,,0,0,4,,,,3,,,85,121
431160,note_on,,,,,0,0,4,,,,3,,,90,118
431160,note_on,,,,,120,0,4,,,,3,,,97,121
431160,note_off,,,,,0,0,2,,,,1,,,61,64
431280,note_on,,,,,120,0,2,,,,1,,,72,121
431280,note_on,,,,,0,0,2,,,,1,,,60,121
431280,note_off,,,,,120,0,4,,,,3,,,97,64
431280,note_off,,,,,0,0,4,,,,3,,,90,64
431280,note_off,,,,,0,0,4,,,,3,,,85,64
431400,note_on,,,,,120,0,4,,,,3,,,96,121
431400,note_off,,,,,120,0,2,,,,1,,,72,64
431400,note_off,,,,,0,0,2,,,,1,,,60,64
431400,note_on,,,,,0,0,4,,,,3,,,84,122
431520,note_on,,,,,0,0,2,,,,1,,,66,118
431520,note_on,,,,,0,0,2,,,,1,,,61,125
431520,note_off,,,,,120,0,4,,,,3,,,96,64
431520,note_on,,,,,120,0,2,,,,1,,,73,121
431520,note_off,,,,,0,0,4,,,,3,,,84,64
431640,note_on,,,,,120,0,4,,,,3,,,97,118
431640,note_off,,,,,120,0,2,,,,1,,,73,64
431640,note_on,,,,,0,0,4,,,,3,,,90,107
431640,note_on,,,,,0,0,4,,,,3,,,85,121
431640,note_off,,,,,0,0,2,,,,1,,,66,64
431640,note_off,,,,,0,0,2,,,,1,,,61,64
431760,note_off,,,,,120,0,4,,,,3,,,97,64
431760,note_off,,,,,0,0,4,,,,3,,,85,64
431760,note_off,,,,,0,0,4,,,,3,,,90,64
431760,note_on,,,,,120,0,2,,,,1,,,70,121
431760,note_on,,,,,0,0,2,,,,1,,,58,122
431880,note_off,,,,,0,0,2,,,,1,,,58,64
431880,note_on,,,,,0,0,4,,,,3,,,82,122
431880,note_off,,,,,120,0,2,,,,1,,,70,64
431880,note_on,,,,,120,0,4,,,,3,,,94,115
432000,note_off,,,,,0,0,4,,,,3,,,82,64
432000,note_on,,,,,0,0,2,,,,1,,,59,121
432000,note_on,,,,,120,0,2,,,,1,,,71,121
432000,note_off,,,,,120,0,4,,,,3,,,94,64
432120,note_off,,,,,0,0,2,,,,1,,,59,64
432120,note_off,,,,,120,0,2,,,,1,,,71,64
432120,note_on,,,,,0,0,4,,,,3,,,83,121
432120,note_on,,,,,120,0,4,,,,3,,,95,118
432240,note_off,,,,,120,0,4,,,,3,,,95,64
432240,note_on,,,,,0,0,2,,,,1,,,63,121
432240,note_off,,,,,0,0,4,,,,3,,,83,64
432240,note_on,,,,,120,0,2,,,,1,,,75,118
432360,note_off,,,,,120,0,2,,,,1,,,75,64
432360,note_off,,,,,0,0,2,,,,1,,,63,64
432360,note_on,,,,,0,0,4,,,,3,,,87,122
432360,note_on,,,,,120,0,4,,,,3,,,99,121
432480,note_on,,,,,0,0,2,,,,1,,,56,121
432480,note_on,,,,,120,0,2,,,,1,,,68,115
432480,note_off,,,,,120,0,4,,,,3,,,99,64
432480,note_off,,,,,0,0,4,,,,3,,,87,64
432600,note_off,,,,,0,0,2,,,,1,,,56,64
432600,note_off,,,,,120,0,2,,,,1,,,68,64
432600,note_on,,,,,0,0,4,,,,3,,,80,121
432600,note_on,,,,,120,0,4,,,,3,,,92,118
432720,note_off,,,,,120,0,4,,,,3,,,92,64
432720,note_on,,,,,0,0,2,,,,1,,,59,121
432720,note_on,,,,,120,0,2,,,,1,,,71,121
432720,note_off,,,,,0,0,4,,,,3,,,80,64
432840,note_off,,,,,120,0,2,,,,1,,,71,64
432840,note_on,,,,,120,0,4,,,,3,,,95,118
432840,note_on,,,,,0,0,4,,,,3,,,83,122
432840,note_off,,,,,0,0,2,,,,1,,,59,64
432960,note_off,,,,,0,0,4,,,,3,,,83,64
432960,note_on,,,,,120,0,2,,,,1,,,65,115
432960,note_off,,,,,120,0,4,,,,3,,,95,64
432960,note_on,,,,,0,0,2,,,,1,,,53,121
433080,note_on,,,,,0,0,4,,,,3,,,77,118
433080,note_off,,,,,0,0,2,,,,1,,,53,64
433080,note_off,,,,,120,0,2,,,,1,,,65,64
433080,note_on,,,,,120,0,4,,,,3,,,89,121
433200,note_off,,,,,0,0,4,,,,3,,,77,64
433200,note_off,,,,,120,0,4,,,,3,,,89,64
433200,note_on,,,,,120,0,2,,,,1,,,68,121
433200,note_on,,,,,0,0,2,,,,1,,,56,118
433320,note_off,,,,,0,0,2,,,,1,,,56,64
433320,note_off,,,,,120,0,2,,,,1,,,68,64
433320,note_on,,,,,0,0,4,,,,3,,,80,121
433320,note_on,,,,,120,0,4,,,,3,,,92,121
433440,note_off,,,,,0,0,4,,,,3,,,80,64
433440,note_on,,,,,120,0,2,,,,1,,,61,115
433440,note_off,,,,,120,0,4,,,,3,,,92,64
433440,note_on,,,,,0,0,2,,,,1,,,49,121
433560,note_on,,,,,120,0,4,,,,3,,,85,115
433560,note_off,,,,,120,0,2,,,,1,,,61,64
433560,note_on,,,,,0,0,4,,,,3,,,73,122
433560,note_off,,,,,0,0,2,,,,1,,,49,64
433680,note_off,,,,,120,0,4,,,,3,,,85,64
433680,note_off,,,,,0,0,4,,,,3,,,73,64
433680,note_on,,,,,120,0,2,,,,1,,,65,115
433680,note_on,,,,,0,0,2,,,,1,,,53,122
433800,note_off,,,,,0,0,2,,,,1,,,53,64
433800,note_off,,,,,120,0,2,,,,1,,,65,64
433800,note_on,,,,,120,0,4,,,,3,,,89,121
433800,note_on,,,,,0,0,4,,,,3,,,77,122
433920,note_off,,,,,120,0,4,,,,3,,,89,64
433920,note_on,,,,,120,0,2,,,,1,,,58,115
433920,note_off,,,,,0,0,4,,,,3,,,77,64
433920,note_on,,,,,0,0,2,,,,1,,,46,122
434040,note_off,,,,,120,0,2,,,,1,,,58,64
434040,note_on,,,,,120,0,4,,,,3,,,82,118
434040,note_off,,,,,0,0,2,,,,1,,,46,64
434040,note_on,,,,,0,0,4,,,,3,,,70,121
434160,note_on,,,,,0,0,2,,,,1,,,49,121
434160,note_off,,,,,0,0,4,,,,3,,,70,64
434160,note_on,,,,,120,0,2,,,,1,,,61,115
434160,note_off,,,,,120,0,4,,,,3,,,82,64
434280,note_on,,,,,120,0,4,,,,3,,,85,118
434280,note_on,,,,,0,0,4,,,,3,,,73,122
434280,note_off,,,,,120,0,2,,,,1,,,61,64
434280,note_off,,,,,0,0,2,,,,1,,,49,64
434400,note_on,,,,,120,0,2,,,,1,,,54,118
434400,note_off,,,,,0,0,4,,,,3,,,73,64
434400,note_off,,,,,120,0,4,,,,3,,,85,64
434400,note_on,,,,,0,0,2,,,,1,,,42,121
434520,note_off,,,,,0,0,2,,,,1,,,42,64
434520,note_on,,,,,0,0,4,,,,3,,,66,121
434520,note_off,,,,,120,0,2,,,,1,,,54,64
434520,note_on,,,,,120,0,4,,,,3,,,78,115
434640,note_on,,,,,120,0,2,,,,1,,,58,118
434640,note_off,,,,,120,0,4,,,,3,,,78,64
434640,note_off,,,,,0,0,4,,,,3,,,66,64
434640,note_on,,,,,0,0,2,,,,1,,,46,118
434760,note_on,,,,,120,0,4,,,,3,,,82,118
434760,note_off,,,,,0,0,2,,,,1,,,46,64
434760,note_off,,,,,120,0,2,,,,1,,,58,64
434760,note_on,,,,,0,0,4,,,,3,,,70,121
434880,note_on,,,,,120,0,2,,,,1,,,51,122
434880,note_off,,,,,120,0,4,,,,3,,,82,64
434880,note_off,,,,,0,0,4,,,,3,,,70,64
434880,note_on,,,,,0,0,2,,,,1,,,39,121
435000,note_on,,,,,0,0,2,,,,1,,,75,118
435000,note_off,,,,,120,0,2,,,,1,,,51,64
435000,note_on,,,,,0,0,2,,,,1,,,63,122
435000,note_off,,,,,0,0,2,,,,1,,,39,64
435120,note_off,,,,,120,0,2,,,,1,,,75,64
435120,note_off,,,,,0,0,2,,,,1,,,63,64
435120,note_on,,,,,0,0,2,,,,1,,,42,115
435120,note_on,,,,,0,0,2,,,,1,,,54,122
435240,note_off,,,,,0,0,2,,,,1,,,42,64
435240,note_off,,,,,120,0,2,,,,1,,,54,64
435240,note_on,,,,,0,0,2,,,,1,,,66,121
435240,note_on,,,,,0,0,2,,,,1,,,78,118
435360,note_off,,,,,0,0,2,,,,1,,,66,64
435360,note_off,,,,,120,0,2,,,,1,,,78,64
435360,note_on,,,,,0,0,2,,,,1,,,35,118
435360,note_on,,,,,0,0,2,,,,1,,,47,118
435480,note_on,,,,,0,0,2,,,,1,,,71,121
435480,note_on,,,,,0,0,2,,,,1,,,59,121
435480,note_off,,,,,120,0,2,,,,1,,,47,64
435480,note_off,,,,,0,0,2,,,,1,,,35,64
435600,note_on,,,,,0,0,2,,,,1,,,51,121
435600,note_off,,,,,0,0,2,,,,1,,,59,64
435600,note_off,,,,,120,0,2,,,,1,,,71,64
435600,note_on,,,,,0,0,2,,,,1,,,39,107
435720,note_on,,,,,0,0,2,,,,1,,,63,122
435720,note_on,,,,,0,0,2,,,,1,,,75,121
435720,note_off,,,,,0,0,2,,,,1,,,39,64
435720,note_off,,,,,120,0,2,,,,1,,,51,64
435840,note_on,,,,,0,0,2,,,,1,,,32,107
435840,note_on,,,,,0,0,2,,,,1,,,44,122
435840,note_off,,,,,0,0,2,,,,1,,,63,64
435840,note_off,,,,,120,0,2,,,,1,,,75,64
435960,note_on,,,,,0,0,2,,,,1,,,56,121
435960,note_off,,,,,120,0,2,,,,1,,,44,64
435960,note_on,,,,,0,0,2,,,,1,,,68,118
435960,note_off,,,,,0,0,2,,,,1,,,32,64
436080,note_on,,,,,0,0,2,,,,1,,,47,118
436080,note_on,,,,,0,0,2,,,,1,,,35,118
436080,note_off,,,,,0,0,2,,,,1,,,56,64
436080,note_off,,,,,120,0,2,,,,1,,,68,64
436200,note_on,,,,,0,0,2,,,,1,,,59,122
436200,note_on,,,,,0,0,2,,,,1,,,71,118
436200,note_off,,,,,0,0,2,,,,1,,,35,64
436200,note_off,,,,,120,0,2,,,,1,,,47,64
436320,note_on,,,,,0,0,2,,,,1,,,29,121
436320,note_on,,,,,0,0,2,,,,1,,,41,118
436320,note_off,,,,,0,0,2,,,,1,,,59,64
436320,note_off,,,,,120,0,2,,,,1,,,71,64
436440,note_off,,,,,120,0,2,,,,1,,,29,64
436440,note_on,,,,,0,0,2,,,,1,,,65,118
436440,note_on,,,,,0,0,2,,,,1,,,53,122
436440,note_off,,,,,0,0,2,,,,1,,,41,64
436560,note_on,,,,,0,0,2,,,,1,,,44,118
436560,note_off,,,,,120,0,2,,,,1,,,53,64
436560,note_off,,,,,0,0,2,,,,1,,,65,64
436560,note_on,,,,,0,0,2,,,,1,,,32,115
436680,note_off,,,,,120,0,2,,,,1,,,32,64
436680,note_on,,,,,0,0,2,,,,1,,,68,118
436680,note_on,,,,,0,0,2,,,,1,,,56,122
436680,note_off,,,,,0,0,2,,,,1,,,44,64
436800,note_on,,,,,0,0,2,,,,1,,,37,122
436800,note_off,,,,,120,0,2,,,,1,,,56,64
436800,note_off,,,,,0,0,2,,,,1,,,68,64
436920,note_on,,,,,0,0,2,,,,1,,,61,107
436920,note_off,,,,,120,0,2,,,,1,,,37,64
436920,note_on,,,,,0,0,2,,,,1,,,49,121
437040,note_off,,,,,0,0,2,,,,1,,,61,64
437040,note_on,,,,,0,0,2,,,,1,,,41,122
437040,note_off,,,,,120,0,2,,,,1,,,49,64
437160,note_on,,,,,0,0,2,,,,1,,,53,118
437160,note_on,,,,,0,0,2,,,,1,,,65,118
437160,note_off,,,,,120,0,2,,,,1,,,41,64
437280,note_off,,,,,120,0,2,,,,1,,,53,64
437280,note_off,,,,,0,0,2,,,,1,,,65,64
437280,note_on,,,,,0,0,2,,,,1,,,34,125
437400,note_on,,,,,0,0,2,,,,1,,,46,118
437400,note_on,,,,,0,0,2,,,,1,,,58,115
437400,note_off,,,,,120,0,2,,,,1,,,34,64
437520,note_on,,,,,0,0,2,,,,1,,,37,125
437520,note_off,,,,,0,0,2,,,,1,,,58,64
437520,note_off,,,,,120,0,2,,,,1,,,46,64
437640,note_on,,,,,0,0,2,,,,1,,,49,122
437640,note_off,,,,,120,0,2,,,,1,,,37,64
437640,note_on,,,,,0,0,2,,,,1,,,61,115
437760,note_on,,,,,0,0,2,,,,1,,,42,122
437760,note_off,,,,,120,0,2,,,,1,,,49,64
437760,note_off,,,,,0,0,2,,,,1,,,61,64
437760,note_on,,,,,0,0,2,,,,1,,,30,118
437880,note_off,,,,,120,0,2,,,,1,,,30,64
437880,note_off,,,,,0,0,2,,,,1,,,42,64
437880,note_on,,,,,0,0,2,,,,1,,,54,122
438000,note_on,,,,,0,0,2,,,,1,,,44,118
438000,note_on,,,,,0,0,2,,,,1,,,32,122
438000,note_off,,,,,120,0,2,,,,1,,,54,64
438120,note_off,,,,,0,0,2,,,,1,,,44,64
438120,note_off,,,,,120,0,2,,,,1,,,32,64
438120,note_on,,,,,0,0,2,,,,1,,,56,125
438240,note_on,,,,,0,0,2,,,,1,,,39,125
438240,note_off,,,,,120,0,2,,,,1,,,56,64
438360,note_on,,,,,0,0,2,,,,1,,,51,125
438360,note_off,,,,,120,0,2,,,,1,,,39,64
438480,note_on,,,,,0,0,2,,,,1,,,42,125
438480,note_off,,,,,120,0,2,,,,1,,,51,64
438600,note_on,,,,,0,0,2,,,,1,,,54,122
438600,note_off,,,,,120,0,2,,,,1,,,42,64
438720,note_on,,,,,0,0,2,,,,1,,,35,125
438720,note_on,,,,,0,0,2,,,,1,,,47,122
438720,note_off,,,,,120,0,2,,,,1,,,54,64
438960,note_off,,,,,0,0,2,,,,1,,,47,64
438960,note_off,,,,,240,0,2,,,,1,,,35,64
440640,note_on,,,,,0,0,2,,,,1,,,47,118
440640,note_on,,,,,5760,0,4,,,,3,,,63,107
440640,note_on,,,,,0,0,4,,,,3,,,71,121
440640,note_on,,,,,0,0,4,,,,3,,,75,121
440640,set_tempo,,,,,20080,1,0,1000000,,,,,,,
440640,note_on,,,,,1680,0,2,,,,1,,,35,121
440700,note_off,,,,,60,0,2,,,,1,,,35,64
440700,note_on,,,,,0,0,2,,,,1,,,59,121
440700,note_on,,,,,0,0,2,,,,1,,,54,125
440700,note_on,,,,,0,0,2,,,,1,,,51,122
440700,note_on,,,,,0,0,4,,,,3,,,75,118
440700,note_on,,,,,0,0,4,,,,3,,,63,97
440700,note_off,,,,,60,0,4,,,,3,,,63,64
440700,note_off,,,,,0,0,2,,,,1,,,47,64
440700,note_off,,,,,0,0,4,,,,3,,,75,64
440700,note_on,,,,,0,0,4,,,,3,,,71,118
440700,note_off,,,,,0,0,4,,,,3,,,71,64
441120,note_on,,,,,0,0,2,,,,1,,,49,122
441120,note_off,,,,,420,0,2,,,,1,,,51,64
441120,note_on,,,,,0,0,2,,,,1,,,37,118
441120,note_on,,,,,0,0,4,,,,3,,,68,97
441120,note_off,,,,,0,0,4,,,,3,,,71,64
441120,note_on,,,,,0,0,4,,,,3,,,71,107
441120,note_off,,,,,0,0,4,,,,3,,,75,64
441120,note_off,,,,,0,0,2,,,,1,,,59,64
441120,note_off,,,,,0,0,2,,,,1,,,54,64
441120,note_on,,,,,0,0,4,,,,3,,,77,118
441120,note_on,,,,,0,0,4,,,,3,,,65,107
441120,note_off,,,,,420,0,4,,,,3,,,63,64
441180,note_on,,,,,0,0,2,,,,1,,,61,121
441180,note_on,,,,,0,0,2,,,,1,,,53,118
441180,note_on,,,,,0,0,2,,,,1,,,56,115
441180,note_off,,,,,60,0,4,,,,3,,,65,64
441180,note_on,,,,,0,0,2,,,,1,,,49,97
441180,note_off,,,,,60,0,2,,,,1,,,37,64
441180,note_on,,,,,0,0,4,,,,3,,,65,107
441180,note_on,,,,,0,0,4,,,,3,,,68,97
441180,note_on,,,,,0,0,4,,,,3,,,71,115
441180,note_on,,,,,0,0,4,,,,3,,,77,107
441180,note_off,,,,,0,0,4,,,,3,,,77,64
441180,note_off,,,,,0,0,4,,,,3,,,71,64
441180,note_off,,,,,0,0,4,,,,3,,,68,64
441180,note_off,,,,,0,0,2,,,,1,,,49,64
441600,note_off,,,,,0,0,4,,,,3,,,68,64
441600,note_off,,,,,0,0,4,,,,3,,,77,64
441600,note_off,,,,,0,0,4,,,,3,,,71,64
441600,note_off,,,,,0,0,2,,,,1,,,53,64
441600,note_off,,,,,0,0,2,,,,1,,,56,64
441600,note_off,,,,,0,0,2,,,,1,,,61,64
441600,note_off,,,,,420,0,4,,,,3,,,65,64
441600,note_off,,,,,420,0,2,,,,1,,,49,64
441600,note_on,,,,,0,0,2,,,,1,,,30,118
441600,note_on,,,,,0,0,2,,,,1,,,42,122
441600,note_on,,,,,0,0,4,,,,3,,,78,121
441600,note_on,,,,,0,0,4,,,,3,,,73,118
441600,note_on,,,,,0,0,4,,,,3,,,70,107
441600,note_on,,,,,0,0,4,,,,3,,,66,115
441660,note_off,,,,,0,0,2,,,,1,,,42,64
441660,note_on,,,,,0,0,2,,,,1,,,49,107
441660,note_on,,,,,0,0,2,,,,1,,,54,97
441660,note_on,,,,,0,0,2,,,,1,,,58,103
441660,note_on,,,,,0,0,2,,,,1,,,61,115
441660,note_off,,,,,0,0,4,,,,3,,,66,64
441660,note_off,,,,,0,0,4,,,,3,,,70,64
441660,note_off,,,,,0,0,4,,,,3,,,73,64
441660,note_off,,,,,60,0,2,,,,1,,,30,64
441660,note_off,,,,,60,0,4,,,,3,,,78,64
441660,note_on,,,,,0,0,4,,,,3,,,66,103
441660,note_on,,,,,0,0,4,,,,3,,,70,103
441660,note_on,,,,,0,0,4,,,,3,,,73,115
441660,note_on,,,,,0,0,4,,,,3,,,78,121
442499,note_off,,,,,0,0,2,,,,1,,,61,64
442499,note_off,,,,,0,0,4,,,,3,,,70,64
442499,note_off,,,,,0,0,4,,,,3,,,73,64
442499,note_off,,,,,839,0,2,,,,1,,,49,64
442499,note_off,,,,,839,0,4,,,,3,,,78,64
442499,note_off,,,,,0,0,4,,,,3,,,66,64
442499,note_off,,,,,0,0,2,,,,1,,,58,64
442499,note_off,,,,,0,0,2,,,,1,,,54,64
442560,set_tempo,,,,,1920,1,0,342857,,,,,,,
442560,note_on,,,,,0,0,4,,,,3,,,78,122
442560,note_on,,,,,0,0,4,,,,3,,,61,122
442560,note_on,,,,,0,0,4,,,,3,,,82,121
442560,note_on,,,,,0,0,4,,,,3,,,54,71
442560,note_on,,,,,0,0,4,,,,3,,,49,115
442560,note_on,,,,,61,0,4,,,,3,,,90,118
442560,note_on,,,,,0,0,4,,,,3,,,58,122
442560,note_on,,,,,0,0,4,,,,3,,,85,59
442680,note_off,,,,,120,0,4,,,,3,,,90,64
442680,note_off,,,,,0,0,4,,,,3,,,78,64
442680,note_off,,,,,0,0,4,,,,3,,,58,64
442680,note_off,,,,,0,0,4,,,,3,,,85,64
442680,note_off,,,,,0,0,4,,,,3,,,82,64
442680,note_off,,,,,0,0,4,,,,3,,,61,64
442680,note_off,,,,,0,0,4,,,,3,,,54,64
442680,note_off,,,,,0,0,4,,,,3,,,49,64
443040,note_on,,,,,0,0,4,,,,3,,,94,118
443040,note_on,,,,,0,0,4,,,,3,,,70,107
443040,note_on,,,,,0,0,4,,,,3,,,90,118
443040,note_on,,,,,0,0,4,,,,3,,,61,97
443040,note_on,,,,,0,0,4,,,,3,,,66,91
443040,note_on,,,,,360,0,4,,,,3,,,102,122
443040,note_on,,,,,0,0,4,,,,3,,,97,63
443040,note_on,,,,,0,0,4,,,,3,,,73,121
443160,note_off,,,,,120,0,4,,,,3,,,102,64
443160,note_off,,,,,0,0,4,,,,3,,,97,64
443160,note_off,,,,,0,0,4,,,,3,,,94,64
443160,note_off,,,,,0,0,4,,,,3,,,90,64
443160,note_off,,,,,0,0,4,,,,3,,,70,64
443160,note_off,,,,,0,0,4,,,,3,,,66,64
443160,note_off,,,,,0,0,4,,,,3,,,61,64
443160,note_off,,,,,0,0,4,,,,3,,,73,64
443520,note_on,,,,,1021,0,2,,,,1,,,30,115
443520,note_on,,,,,360,0,4,,,,3,,,54,115
443520,note_on,,,,,0,0,2,,,,1,,,42,125
443520,note_on,,,,,0,0,4,,,,3,,,66,121
443640,note_off,,,,,120,0,4,,,,3,,,54,64
443640,note_off,,,,,120,0,2,,,,1,,,30,64
443640,note_off,,,,,0,0,2,,,,1,,,42,64
443640,note_off,,,,,0,0,4,,,,3,,,66,64
445440,end_of_track,,,,,17280,1,1,,,,,,,,
445440,end_of_track,,,,,2880,1,0,,,,,,,,
445440,end_of_track,,,,,1800,1,4,,,,,,,,
445440,end_of_track,,,,,1800,1,2,,,,,,,,
445440,end_of_track,,,,,45130,1,3,,,,,,,,
