tick,type,numerator,denominator,clocks_per_click,notated_32nd_notes_per_beat,time,meta,track,key,tempo,port,program,channel,control,value,note,velocity
0,control_change,,,,,0,0,1,,,,,0,7,127,,
0,track_name,,,,,0,1,1,,,,,,,,,
0,time_signature,4,4,24,8,0,1,0,,,,,,,,,
0,set_tempo,,,,,0,1,0,,600000,,,,,,,
0,program_change,,,,,0,0,1,,,,0,0,,,,
0,track_name,,,,,0,1,2,,,,,,,,,
0,midi_port,,,,,0,1,3,,,0,,,,,,
0,midi_port,,,,,0,1,2,,,0,,,,,,
0,midi_port,,,,,0,1,1,,,0,,,,,,
0,key_signature,,,,,0,1,0,C,,,,,,,,
0,end_of_track,,,,,0,1,3,,,,,,,,,
0,end_of_track,,,,,0,1,2,,,,,,,,,
0,track_name,,,,,0,1,3,,,,,,,,,
481,control_change,,,,,481,0,1,,,,,0,91,127,,
562,note_on,,,,,81,0,1,,,,,0,,,53,60
565,control_change,,,,,3,0,1,,,,,0,64,24,,
569,control_change,,,,,4,0,1,,,,,0,64,56,,
573,control_change,,,,,4,0,1,,,,,0,64,88,,
578,control_change,,,,,5,0,1,,,,,0,64,127,,
718,note_on,,,,,140,0,1,,,,,0,,,53,0
722,note_on,,,,,4,0,1,,,,,0,,,51,62
759,control_change,,,,,37,0,1,,,,,0,64,104,,
763,control_change,,,,,4,0,1,,,,,0,64,40,,
767,control_change,,,,,4,0,1,,,,,0,64,0,,
807,control_change,,,,,40,0,1,,,,,0,64,56,,
811,control_change,,,,,4,0,1,,,,,0,64,104,,
815,control_change,,,,,4,0,1,,,,,0,64,127,,
836,note_on,,,,,21,0,1,,,,,0,,,51,0
956,note_on,,,,,120,0,1,,,,,0,,,49,54
964,control_change,,,,,8,0,1,,,,,0,64,88,,
968,control_change,,,,,4,0,1,,,,,0,64,0,,
997,control_change,,,,,29,0,1,,,,,0,64,127,,
1002,note_on,,,,,5,0,1,,,,,0,,,42,40
1017,note_on,,,,,15,0,1,,,,,0,,,49,0
1021,note_on,,,,,4,0,1,,,,,0,,,58,46
1043,note_on,,,,,22,0,1,,,,,0,,,49,58
1053,note_on,,,,,10,0,1,,,,,0,,,58,0
1061,note_on,,,,,8,0,1,,,,,0,,,66,50
1092,note_on,,,,,31,0,1,,,,,0,,,73,52
1094,note_on,,,,,2,0,1,,,,,0,,,66,0
1109,note_on,,,,,15,0,1,,,,,0,,,73,0
1141,note_on,,,,,32,0,1,,,,,0,,,61,40
1146,note_on,,,,,5,0,1,,,,,0,,,75,50
1158,note_on,,,,,12,0,1,,,,,0,,,61,0
1162,note_on,,,,,4,0,1,,,,,0,,,75,0
1166,note_on,,,,,4,0,1,,,,,0,,,42,0
1179,note_on,,,,,13,0,1,,,,,0,,,49,0
1183,note_on,,,,,4,0,1,,,,,0,,,73,51
1190,note_on,,,,,7,0,1,,,,,0,,,66,33
1198,note_on,,,,,8,0,1,,,,,0,,,66,0
1205,note_on,,,,,7,0,1,,,,,0,,,73,0
1223,note_on,,,,,18,0,1,,,,,0,,,75,40
1225,note_on,,,,,2,0,1,,,,,0,,,70,43
1235,note_on,,,,,10,0,1,,,,,0,,,75,0
1240,note_on,,,,,5,0,1,,,,,0,,,70,0
1259,note_on,,,,,19,0,1,,,,,0,,,73,51
1280,note_on,,,,,21,0,1,,,,,0,,,73,0
1299,note_on,,,,,19,0,1,,,,,0,,,75,47
1301,note_on,,,,,2,0,1,,,,,0,,,70,38
1315,note_on,,,,,14,0,1,,,,,0,,,75,0
1318,note_on,,,,,3,0,1,,,,,0,,,70,0
1342,note_on,,,,,0,0,1,,,,,0,,,66,30
1342,note_on,,,,,24,0,1,,,,,0,,,73,49
1369,note_on,,,,,27,0,1,,,,,0,,,66,0
1369,note_on,,,,,0,0,1,,,,,0,,,73,0
1382,note_on,,,,,13,0,1,,,,,0,,,75,38
1384,note_on,,,,,2,0,1,,,,,0,,,61,32
1391,note_on,,,,,7,0,1,,,,,0,,,75,0
1397,note_on,,,,,6,0,1,,,,,0,,,61,0
1416,note_on,,,,,19,0,1,,,,,0,,,54,64
1425,note_on,,,,,9,0,1,,,,,0,,,58,43
1429,note_on,,,,,4,0,1,,,,,0,,,73,37
1433,note_on,,,,,4,0,1,,,,,0,,,58,0
1445,note_on,,,,,12,0,1,,,,,0,,,73,0
1467,note_on,,,,,22,0,1,,,,,0,,,61,49
1471,note_on,,,,,4,0,1,,,,,0,,,75,36
1481,note_on,,,,,10,0,1,,,,,0,,,61,0
1482,note_on,,,,,1,0,1,,,,,0,,,75,0
1506,note_on,,,,,0,0,1,,,,,0,,,66,30
1506,note_on,,,,,24,0,1,,,,,0,,,73,53
1530,note_on,,,,,0,0,1,,,,,0,,,73,0
1530,note_on,,,,,24,0,1,,,,,0,,,66,0
1543,note_on,,,,,13,0,1,,,,,0,,,75,46
1554,note_on,,,,,11,0,1,,,,,0,,,70,28
1563,note_on,,,,,9,0,1,,,,,0,,,75,0
1565,note_on,,,,,2,0,1,,,,,0,,,70,0
1586,note_on,,,,,21,0,1,,,,,0,,,56,69
1589,note_on,,,,,3,0,1,,,,,0,,,73,49
1592,note_on,,,,,3,0,1,,,,,0,,,54,0
1611,note_on,,,,,19,0,1,,,,,0,,,73,0
1626,note_on,,,,,15,0,1,,,,,0,,,75,48
1635,note_on,,,,,9,0,1,,,,,0,,,70,30
1646,note_on,,,,,11,0,1,,,,,0,,,70,0
1648,note_on,,,,,0,0,1,,,,,0,,,56,0
1648,note_on,,,,,2,0,1,,,,,0,,,75,0
1667,note_on,,,,,19,0,1,,,,,0,,,73,45
1667,note_on,,,,,0,0,1,,,,,0,,,66,32
1693,note_on,,,,,26,0,1,,,,,0,,,66,0
1693,note_on,,,,,0,0,1,,,,,0,,,73,0
1702,note_on,,,,,9,0,1,,,,,0,,,61,39
1706,control_change,,,,,4,0,1,,,,,0,64,72,,
1708,note_on,,,,,2,0,1,,,,,0,,,75,38
1710,control_change,,,,,2,0,1,,,,,0,64,0,,
1714,note_on,,,,,4,0,1,,,,,0,,,42,55
1726,note_on,,,,,12,0,1,,,,,0,,,61,0
1730,note_on,,,,,4,0,1,,,,,0,,,75,0
1735,control_change,,,,,5,0,1,,,,,0,64,88,,
1739,control_change,,,,,4,0,1,,,,,0,64,127,,
1740,note_on,,,,,1,0,1,,,,,0,,,42,0
1751,note_on,,,,,11,0,1,,,,,0,,,58,69
1762,note_on,,,,,11,0,1,,,,,0,,,73,43
1766,note_on,,,,,4,0,1,,,,,0,,,58,0
1783,note_on,,,,,17,0,1,,,,,0,,,73,0
1797,note_on,,,,,0,0,1,,,,,0,,,61,33
1797,note_on,,,,,14,0,1,,,,,0,,,75,45
1809,note_on,,,,,12,0,1,,,,,0,,,61,0
1809,note_on,,,,,0,0,1,,,,,0,,,75,0
1834,note_on,,,,,25,0,1,,,,,0,,,73,46
1834,note_on,,,,,0,0,1,,,,,0,,,66,32
1859,note_on,,,,,25,0,1,,,,,0,,,66,0
1859,note_on,,,,,0,0,1,,,,,0,,,73,0
1874,note_on,,,,,15,0,1,,,,,0,,,75,44
1882,note_on,,,,,8,0,1,,,,,0,,,70,32
1893,note_on,,,,,11,0,1,,,,,0,,,75,0
1905,note_on,,,,,12,0,1,,,,,0,,,70,0
1915,note_on,,,,,10,0,1,,,,,0,,,73,50
1939,note_on,,,,,24,0,1,,,,,0,,,73,0
1952,note_on,,,,,13,0,1,,,,,0,,,75,53
1958,note_on,,,,,6,0,1,,,,,0,,,70,42
1971,note_on,,,,,13,0,1,,,,,0,,,75,0
1974,note_on,,,,,3,0,1,,,,,0,,,70,0
1993,note_on,,,,,19,0,1,,,,,0,,,73,47
1993,note_on,,,,,0,0,1,,,,,0,,,66,31
2022,note_on,,,,,29,0,1,,,,,0,,,66,0
2022,note_on,,,,,0,0,1,,,,,0,,,73,0
2032,note_on,,,,,10,0,1,,,,,0,,,75,49
2034,note_on,,,,,2,0,1,,,,,0,,,61,38
2051,note_on,,,,,17,0,1,,,,,0,,,75,0
2053,note_on,,,,,2,0,1,,,,,0,,,61,0
2070,note_on,,,,,17,0,1,,,,,0,,,73,51
2095,note_on,,,,,25,0,1,,,,,0,,,73,0
2110,note_on,,,,,15,0,1,,,,,0,,,61,44
2111,note_on,,,,,1,0,1,,,,,0,,,75,49
2124,note_on,,,,,13,0,1,,,,,0,,,61,0
2128,note_on,,,,,4,0,1,,,,,0,,,75,0
2149,note_on,,,,,21,0,1,,,,,0,,,73,42
2154,note_on,,,,,5,0,1,,,,,0,,,66,23
2163,note_on,,,,,9,0,1,,,,,0,,,66,0
2171,note_on,,,,,8,0,1,,,,,0,,,73,0
2193,note_on,,,,,22,0,1,,,,,0,,,75,22
2194,note_on,,,,,1,0,1,,,,,0,,,70,34
2204,note_on,,,,,10,0,1,,,,,0,,,75,0
2209,note_on,,,,,5,0,1,,,,,0,,,70,0
2227,note_on,,,,,18,0,1,,,,,0,,,54,62
2229,note_on,,,,,2,0,1,,,,,0,,,73,48
2254,note_on,,,,,25,0,1,,,,,0,,,73,0
2275,note_on,,,,,21,0,1,,,,,0,,,75,43
2283,note_on,,,,,8,0,1,,,,,0,,,70,35
2293,note_on,,,,,10,0,1,,,,,0,,,70,0
2294,note_on,,,,,1,0,1,,,,,0,,,75,0
2304,note_on,,,,,10,0,1,,,,,0,,,54,0
2313,note_on,,,,,0,0,1,,,,,0,,,66,30
2313,note_on,,,,,9,0,1,,,,,0,,,73,45
2347,note_on,,,,,34,0,1,,,,,0,,,66,0
2347,note_on,,,,,0,0,1,,,,,0,,,73,0
2357,note_on,,,,,0,0,1,,,,,0,,,61,30
2357,note_on,,,,,10,0,1,,,,,0,,,75,42
2384,control_change,,,,,27,0,1,,,,,0,64,40,,
2387,control_change,,,,,3,0,1,,,,,0,64,0,,
2389,note_on,,,,,0,0,1,,,,,0,,,75,0
2389,note_on,,,,,2,0,1,,,,,0,,,61,0
2393,note_on,,,,,4,0,1,,,,,0,,,42,48
2406,note_on,,,,,13,0,1,,,,,0,,,63,53
2420,control_change,,,,,14,0,1,,,,,0,64,56,,
2424,control_change,,,,,4,0,1,,,,,0,64,127,,
2430,note_on,,,,,6,0,1,,,,,0,,,63,0
2434,note_on,,,,,4,0,1,,,,,0,,,51,53
2438,note_on,,,,,4,0,1,,,,,0,,,71,53
2451,note_on,,,,,13,0,1,,,,,0,,,78,57
2458,note_on,,,,,7,0,1,,,,,0,,,71,0
2473,note_on,,,,,15,0,1,,,,,0,,,78,0
2496,note_on,,,,,23,0,1,,,,,0,,,66,42
2499,note_on,,,,,3,0,1,,,,,0,,,80,55
2504,note_on,,,,,5,0,1,,,,,0,,,66,0
2513,note_on,,,,,9,0,1,,,,,0,,,42,0
2514,note_on,,,,,1,0,1,,,,,0,,,80,0
2527,note_on,,,,,13,0,1,,,,,0,,,51,0
2531,note_on,,,,,4,0,1,,,,,0,,,78,62
2531,note_on,,,,,0,0,1,,,,,0,,,71,35
2556,note_on,,,,,25,0,1,,,,,0,,,71,0
2556,note_on,,,,,0,0,1,,,,,0,,,78,0
2572,note_on,,,,,16,0,1,,,,,0,,,80,55
2573,note_on,,,,,1,0,1,,,,,0,,,75,50
2589,note_on,,,,,16,0,1,,,,,0,,,80,0
2592,note_on,,,,,3,0,1,,,,,0,,,75,0
2608,note_on,,,,,16,0,1,,,,,0,,,78,54
2614,note_on,,,,,6,0,1,,,,,0,,,54,64
2630,note_on,,,,,16,0,1,,,,,0,,,78,0
2649,note_on,,,,,19,0,1,,,,,0,,,80,58
2652,note_on,,,,,3,0,1,,,,,0,,,75,42
2665,note_on,,,,,13,0,1,,,,,0,,,75,0
2670,note_on,,,,,5,0,1,,,,,0,,,80,0
2692,note_on,,,,,22,0,1,,,,,0,,,78,56
2692,note_on,,,,,0,0,1,,,,,0,,,71,35
2716,note_on,,,,,24,0,1,,,,,0,,,71,0
2716,note_on,,,,,0,0,1,,,,,0,,,78,0
2729,note_on,,,,,13,0,1,,,,,0,,,80,60
2734,note_on,,,,,5,0,1,,,,,0,,,66,30
2743,note_on,,,,,9,0,1,,,,,0,,,66,0
2744,note_on,,,,,1,0,1,,,,,0,,,80,0
2770,note_on,,,,,26,0,1,,,,,0,,,54,0
2770,note_on,,,,,0,0,1,,,,,0,,,59,69
2772,note_on,,,,,2,0,1,,,,,0,,,78,44
2794,note_on,,,,,22,0,1,,,,,0,,,78,0
2810,note_on,,,,,16,0,1,,,,,0,,,66,46
2812,note_on,,,,,2,0,1,,,,,0,,,80,64
2826,note_on,,,,,14,0,1,,,,,0,,,66,0
2828,note_on,,,,,2,0,1,,,,,0,,,80,0
2850,note_on,,,,,22,0,1,,,,,0,,,78,52
2860,note_on,,,,,10,0,1,,,,,0,,,71,30
2866,note_on,,,,,6,0,1,,,,,0,,,71,0
2870,note_on,,,,,4,0,1,,,,,0,,,78,0
2889,note_on,,,,,19,0,1,,,,,0,,,80,58
2893,note_on,,,,,4,0,1,,,,,0,,,75,40
2903,note_on,,,,,10,0,1,,,,,0,,,75,0
2908,note_on,,,,,5,0,1,,,,,0,,,80,0
2924,note_on,,,,,16,0,1,,,,,0,,,59,0
2926,note_on,,,,,2,0,1,,,,,0,,,63,74
2934,note_on,,,,,8,0,1,,,,,0,,,78,54
2952,note_on,,,,,18,0,1,,,,,0,,,78,0
2970,note_on,,,,,18,0,1,,,,,0,,,80,61
2978,note_on,,,,,8,0,1,,,,,0,,,75,34
2987,note_on,,,,,9,0,1,,,,,0,,,75,0
2989,note_on,,,,,2,0,1,,,,,0,,,80,0
2998,note_on,,,,,9,0,1,,,,,0,,,63,0
3010,note_on,,,,,12,0,1,,,,,0,,,78,56
3010,note_on,,,,,0,0,1,,,,,0,,,71,33
3038,note_on,,,,,28,0,1,,,,,0,,,71,0
3038,note_on,,,,,0,0,1,,,,,0,,,78,0
3050,note_on,,,,,12,0,1,,,,,0,,,75,50
3050,note_on,,,,,0,0,1,,,,,0,,,66,30
3061,note_on,,,,,0,0,1,,,,,0,,,75,0
3061,note_on,,,,,11,0,1,,,,,0,,,66,0
3073,control_change,,,,,12,0,1,,,,,0,64,56,,
3077,note_on,,,,,4,0,1,,,,,0,,,42,47
3078,control_change,,,,,1,0,1,,,,,0,64,0,,
3094,note_on,,,,,16,0,1,,,,,0,,,58,43
3098,control_change,,,,,0,0,1,,,,,0,64,72,,
3098,note_on,,,,,4,0,1,,,,,0,,,42,0
3102,control_change,,,,,0,0,1,,,,,0,64,127,,
3102,note_on,,,,,4,0,1,,,,,0,,,58,0
3119,note_on,,,,,17,0,1,,,,,0,,,66,28
3121,note_on,,,,,2,0,1,,,,,0,,,73,42
3132,note_on,,,,,0,0,1,,,,,0,,,66,0
3132,note_on,,,,,0,0,1,,,,,0,,,61,73
3132,note_on,,,,,11,0,1,,,,,0,,,73,0
3147,note_on,,,,,15,0,1,,,,,0,,,61,0
3169,note_on,,,,,22,0,1,,,,,0,,,61,37
3174,note_on,,,,,5,0,1,,,,,0,,,75,38
3181,note_on,,,,,7,0,1,,,,,0,,,61,0
3191,note_on,,,,,10,0,1,,,,,0,,,75,0
3208,note_on,,,,,17,0,1,,,,,0,,,73,46
3216,note_on,,,,,8,0,1,,,,,0,,,66,19
3224,note_on,,,,,8,0,1,,,,,0,,,66,0
3230,note_on,,,,,6,0,1,,,,,0,,,73,0
3247,note_on,,,,,17,0,1,,,,,0,,,75,47
3252,note_on,,,,,5,0,1,,,,,0,,,70,39
3263,note_on,,,,,11,0,1,,,,,0,,,70,0
3264,note_on,,,,,1,0,1,,,,,0,,,75,0
3288,note_on,,,,,24,0,1,,,,,0,,,73,53
3309,note_on,,,,,21,0,1,,,,,0,,,73,0
3329,note_on,,,,,20,0,1,,,,,0,,,70,38
3329,note_on,,,,,0,0,1,,,,,0,,,75,36
3342,note_on,,,,,13,0,1,,,,,0,,,75,0
3346,note_on,,,,,4,0,1,,,,,0,,,70,0
3364,note_on,,,,,18,0,1,,,,,0,,,73,53
3364,note_on,,,,,0,0,1,,,,,0,,,66,32
3390,note_on,,,,,26,0,1,,,,,0,,,66,0
3390,note_on,,,,,0,0,1,,,,,0,,,73,0
3406,note_on,,,,,16,0,1,,,,,0,,,75,42
3410,note_on,,,,,4,0,1,,,,,0,,,61,26
3422,note_on,,,,,12,0,1,,,,,0,,,75,0
3426,note_on,,,,,4,0,1,,,,,0,,,61,0
3440,note_on,,,,,14,0,1,,,,,0,,,58,51
3450,note_on,,,,,10,0,1,,,,,0,,,73,33
3464,note_on,,,,,14,0,1,,,,,0,,,73,0
3483,note_on,,,,,19,0,1,,,,,0,,,61,40
3489,note_on,,,,,6,0,1,,,,,0,,,75,27
3498,note_on,,,,,9,0,1,,,,,0,,,75,0
3500,note_on,,,,,2,0,1,,,,,0,,,61,0
3524,note_on,,,,,24,0,1,,,,,0,,,73,37
3528,note_on,,,,,4,0,1,,,,,0,,,66,29
3540,note_on,,,,,12,0,1,,,,,0,,,66,0
3547,note_on,,,,,7,0,1,,,,,0,,,73,0
3565,note_on,,,,,18,0,1,,,,,0,,,75,33
3570,note_on,,,,,5,0,1,,,,,0,,,70,30
3578,note_on,,,,,8,0,1,,,,,0,,,75,0
3579,note_on,,,,,1,0,1,,,,,0,,,58,0
3580,note_on,,,,,1,0,1,,,,,0,,,70,0
3604,note_on,,,,,24,0,1,,,,,0,,,73,39
3624,note_on,,,,,20,0,1,,,,,0,,,73,0
3644,note_on,,,,,20,0,1,,,,,0,,,75,30
3646,note_on,,,,,2,0,1,,,,,0,,,70,31
3658,note_on,,,,,12,0,1,,,,,0,,,75,0
3660,note_on,,,,,2,0,1,,,,,0,,,70,0
3683,note_on,,,,,23,0,1,,,,,0,,,73,45
3683,note_on,,,,,0,0,1,,,,,0,,,66,28
3715,note_on,,,,,0,0,1,,,,,0,,,73,0
3715,note_on,,,,,32,0,1,,,,,0,,,66,0
3729,note_on,,,,,14,0,1,,,,,0,,,75,43
3733,note_on,,,,,4,0,1,,,,,0,,,61,30
3743,note_on,,,,,10,0,1,,,,,0,,,61,0
3747,control_change,,,,,4,0,1,,,,,0,64,56,,
3751,control_change,,,,,4,0,1,,,,,0,64,0,,
3757,note_on,,,,,6,0,1,,,,,0,,,47,46
3758,note_on,,,,,1,0,1,,,,,0,,,75,0
3778,note_on,,,,,20,0,1,,,,,0,,,53,47
3780,control_change,,,,,2,0,1,,,,,0,64,72,,
3784,control_change,,,,,4,0,1,,,,,0,64,127,,
3787,note_on,,,,,0,0,1,,,,,0,,,73,51
3787,note_on,,,,,3,0,1,,,,,0,,,47,0
3797,note_on,,,,,10,0,1,,,,,0,,,56,67
3807,note_on,,,,,10,0,1,,,,,0,,,53,0
3818,note_on,,,,,0,0,1,,,,,0,,,73,0
3818,note_on,,,,,11,0,1,,,,,0,,,56,0
3833,note_on,,,,,15,0,1,,,,,0,,,75,54
3836,note_on,,,,,3,0,1,,,,,0,,,65,47
3851,note_on,,,,,15,0,1,,,,,0,,,65,0
3852,note_on,,,,,1,0,1,,,,,0,,,75,0
3876,note_on,,,,,24,0,1,,,,,0,,,73,48
3878,note_on,,,,,2,0,1,,,,,0,,,68,39
3890,note_on,,,,,12,0,1,,,,,0,,,68,0
3900,note_on,,,,,10,0,1,,,,,0,,,73,0
3911,note_on,,,,,11,0,1,,,,,0,,,75,54
3916,note_on,,,,,5,0,1,,,,,0,,,65,43
3929,note_on,,,,,13,0,1,,,,,0,,,65,0
3935,note_on,,,,,6,0,1,,,,,0,,,75,0
3950,note_on,,,,,15,0,1,,,,,0,,,63,73
3956,note_on,,,,,6,0,1,,,,,0,,,73,55
3964,note_on,,,,,8,0,1,,,,,0,,,68,31
3983,note_on,,,,,19,0,1,,,,,0,,,73,0
3986,note_on,,,,,3,0,1,,,,,0,,,68,0
3996,note_on,,,,,10,0,1,,,,,0,,,75,50
4002,note_on,,,,,6,0,1,,,,,0,,,65,34
4014,note_on,,,,,12,0,1,,,,,0,,,65,0
4018,note_on,,,,,4,0,1,,,,,0,,,75,0
4024,note_on,,,,,6,0,1,,,,,0,,,63,0
4038,note_on,,,,,14,0,1,,,,,0,,,73,51
4065,note_on,,,,,27,0,1,,,,,0,,,73,0
4078,note_on,,,,,13,0,1,,,,,0,,,61,64
4080,note_on,,,,,2,0,1,,,,,0,,,75,54
4110,note_on,,,,,30,0,1,,,,,0,,,61,0
4113,note_on,,,,,3,0,1,,,,,0,,,75,0
4128,note_on,,,,,15,0,1,,,,,0,,,46,58
4132,note_on,,,,,4,0,1,,,,,0,,,54,39
4134,control_change,,,,,2,0,1,,,,,0,64,88,,
4138,control_change,,,,,4,0,1,,,,,0,64,0,,
4148,note_on,,,,,10,0,1,,,,,0,,,73,49
4158,note_on,,,,,10,0,1,,,,,0,,,61,65
4167,note_on,,,,,9,0,1,,,,,0,,,46,0
4173,note_on,,,,,6,0,1,,,,,0,,,73,0
4175,control_change,,,,,2,0,1,,,,,0,64,104,,
4179,control_change,,,,,4,0,1,,,,,0,64,127,,
4186,note_on,,,,,7,0,1,,,,,0,,,54,0
4192,note_on,,,,,0,0,1,,,,,0,,,61,34
4192,note_on,,,,,6,0,1,,,,,0,,,75,50
4206,note_on,,,,,14,0,1,,,,,0,,,61,0
4213,note_on,,,,,7,0,1,,,,,0,,,75,0
4213,note_on,,,,,0,0,1,,,,,0,,,61,0
4227,note_on,,,,,14,0,1,,,,,0,,,73,49
4236,note_on,,,,,9,0,1,,,,,0,,,66,30
4244,note_on,,,,,8,0,1,,,,,0,,,66,0
4255,note_on,,,,,11,0,1,,,,,0,,,73,0
4268,note_on,,,,,13,0,1,,,,,0,,,75,48
4276,note_on,,,,,8,0,1,,,,,0,,,70,36
4286,note_on,,,,,10,0,1,,,,,0,,,70,0
4287,note_on,,,,,1,0,1,,,,,0,,,75,0
4310,note_on,,,,,23,0,1,,,,,0,,,73,49
4333,note_on,,,,,23,0,1,,,,,0,,,73,0
4351,note_on,,,,,18,0,1,,,,,0,,,75,46
4356,note_on,,,,,5,0,1,,,,,0,,,70,35
4372,note_on,,,,,16,0,1,,,,,0,,,70,0
4372,note_on,,,,,0,0,1,,,,,0,,,75,0
4394,note_on,,,,,22,0,1,,,,,0,,,73,46
4395,note_on,,,,,1,0,1,,,,,0,,,54,62
4423,note_on,,,,,28,0,1,,,,,0,,,73,0
4438,note_on,,,,,15,0,1,,,,,0,,,75,44
4443,note_on,,,,,5,0,1,,,,,0,,,61,33
4451,note_on,,,,,8,0,1,,,,,0,,,54,0
4457,note_on,,,,,6,0,1,,,,,0,,,75,0
4464,note_on,,,,,7,0,1,,,,,0,,,44,37
4469,note_on,,,,,5,0,1,,,,,0,,,61,0
4482,control_change,,,,,13,0,1,,,,,0,64,104,,
4485,note_on,,,,,3,0,1,,,,,0,,,53,65
4486,control_change,,,,,1,0,1,,,,,0,64,24,,
4488,note_on,,,,,2,0,1,,,,,0,,,73,56
4490,control_change,,,,,2,0,1,,,,,0,64,0,,
4515,note_on,,,,,25,0,1,,,,,0,,,73,0
4517,control_change,,,,,2,0,1,,,,,0,64,72,,
4521,control_change,,,,,4,0,1,,,,,0,64,127,,
4531,note_on,,,,,0,0,1,,,,,0,,,61,27
4531,note_on,,,,,10,0,1,,,,,0,,,75,56
4533,note_on,,,,,2,0,1,,,,,0,,,44,0
4537,note_on,,,,,4,0,1,,,,,0,,,61,0
4538,note_on,,,,,1,0,1,,,,,0,,,53,0
4550,note_on,,,,,12,0,1,,,,,0,,,75,0
4567,note_on,,,,,17,0,1,,,,,0,,,73,56
4573,note_on,,,,,6,0,1,,,,,0,,,65,32
4585,note_on,,,,,12,0,1,,,,,0,,,65,0
4592,note_on,,,,,7,0,1,,,,,0,,,73,0
4608,note_on,,,,,16,0,1,,,,,0,,,75,40
4608,note_on,,,,,0,0,1,,,,,0,,,71,48
4625,note_on,,,,,17,0,1,,,,,0,,,75,0
4628,note_on,,,,,3,0,1,,,,,0,,,71,0
4646,note_on,,,,,18,0,1,,,,,0,,,73,53
4647,note_on,,,,,1,0,1,,,,,0,,,59,63
4655,control_change,,,,,8,0,1,,,,,0,64,104,,
4659,control_change,,,,,4,0,1,,,,,0,64,72,,
4670,control_change,,,,,11,0,1,,,,,0,64,127,,
4672,note_on,,,,,2,0,1,,,,,0,,,73,0
4690,note_on,,,,,18,0,1,,,,,0,,,75,35
4697,note_on,,,,,7,0,1,,,,,0,,,71,26
4707,note_on,,,,,10,0,1,,,,,0,,,71,0
4711,note_on,,,,,4,0,1,,,,,0,,,75,0
4730,note_on,,,,,19,0,1,,,,,0,,,59,0
4730,note_on,,,,,0,0,1,,,,,0,,,65,33
4730,note_on,,,,,0,0,1,,,,,0,,,73,47
4755,note_on,,,,,0,0,1,,,,,0,,,73,0
4755,note_on,,,,,25,0,1,,,,,0,,,65,0
4776,note_on,,,,,21,0,1,,,,,0,,,75,58
4778,note_on,,,,,2,0,1,,,,,0,,,61,39
4785,note_on,,,,,7,0,1,,,,,0,,,58,56
4794,note_on,,,,,9,0,1,,,,,0,,,61,0
4800,note_on,,,,,6,0,1,,,,,0,,,75,0
4804,note_on,,,,,4,0,1,,,,,0,,,58,0
4815,control_change,,,,,11,0,1,,,,,0,64,72,,
4816,note_on,,,,,1,0,1,,,,,0,,,42,44
4820,control_change,,,,,4,0,1,,,,,0,64,0,,
4834,note_on,,,,,14,0,1,,,,,0,,,42,0
4839,note_on,,,,,5,0,1,,,,,0,,,73,54
4844,control_change,,,,,5,0,1,,,,,0,64,88,,
4847,note_on,,,,,3,0,1,,,,,0,,,58,57
4848,control_change,,,,,1,0,1,,,,,0,64,127,,
4862,note_on,,,,,14,0,1,,,,,0,,,58,0
4863,note_on,,,,,1,0,1,,,,,0,,,73,0
4882,note_on,,,,,19,0,1,,,,,0,,,75,63
4883,note_on,,,,,1,0,1,,,,,0,,,61,40
4893,note_on,,,,,10,0,1,,,,,0,,,61,0
4900,note_on,,,,,7,0,1,,,,,0,,,75,0
4919,note_on,,,,,19,0,1,,,,,0,,,73,50
4922,note_on,,,,,3,0,1,,,,,0,,,66,36
4932,note_on,,,,,10,0,1,,,,,0,,,66,0
4943,note_on,,,,,11,0,1,,,,,0,,,73,0
4959,note_on,,,,,16,0,1,,,,,0,,,75,49
4965,note_on,,,,,6,0,1,,,,,0,,,70,37
4974,note_on,,,,,9,0,1,,,,,0,,,70,0
4976,note_on,,,,,2,0,1,,,,,0,,,75,0
4999,note_on,,,,,23,0,1,,,,,0,,,73,47
5022,note_on,,,,,23,0,1,,,,,0,,,73,0
5038,note_on,,,,,16,0,1,,,,,0,,,75,43
5044,note_on,,,,,6,0,1,,,,,0,,,70,36
5055,note_on,,,,,11,0,1,,,,,0,,,70,0
5057,note_on,,,,,2,0,1,,,,,0,,,75,0
5080,note_on,,,,,23,0,1,,,,,0,,,57,61
5083,note_on,,,,,3,0,1,,,,,0,,,73,50
5083,note_on,,,,,0,0,1,,,,,0,,,66,34
5103,note_on,,,,,20,0,1,,,,,0,,,57,0
5113,note_on,,,,,0,0,1,,,,,0,,,73,0
5113,note_on,,,,,10,0,1,,,,,0,,,66,0
5123,note_on,,,,,10,0,1,,,,,0,,,75,53
5130,note_on,,,,,7,0,1,,,,,0,,,61,32
5152,note_on,,,,,22,0,1,,,,,0,,,61,0
5162,note_on,,,,,10,0,1,,,,,0,,,75,0
5162,note_on,,,,,0,0,1,,,,,0,,,41,40
5167,control_change,,,,,5,0,1,,,,,0,64,104,,
5171,control_change,,,,,4,0,1,,,,,0,64,40,,
5175,control_change,,,,,4,0,1,,,,,0,64,0,,
5184,note_on,,,,,9,0,1,,,,,0,,,73,53
5191,note_on,,,,,7,0,1,,,,,0,,,56,60
5195,control_change,,,,,4,0,1,,,,,0,64,88,,
5199,control_change,,,,,4,0,1,,,,,0,64,127,,
5208,note_on,,,,,9,0,1,,,,,0,,,41,0
5214,note_on,,,,,6,0,1,,,,,0,,,73,0
5223,note_on,,,,,9,0,1,,,,,0,,,56,0
5228,note_on,,,,,5,0,1,,,,,0,,,75,63
5228,note_on,,,,,0,0,1,,,,,0,,,61,35
5251,note_on,,,,,23,0,1,,,,,0,,,61,0
5251,note_on,,,,,0,0,1,,,,,0,,,75,0
5268,note_on,,,,,17,0,1,,,,,0,,,73,65
5270,note_on,,,,,2,0,1,,,,,0,,,65,55
5284,note_on,,,,,14,0,1,,,,,0,,,65,0
5294,note_on,,,,,10,0,1,,,,,0,,,73,0
5307,note_on,,,,,13,0,1,,,,,0,,,75,70
5310,note_on,,,,,3,0,1,,,,,0,,,68,45
5320,note_on,,,,,10,0,1,,,,,0,,,68,0
5328,note_on,,,,,8,0,1,,,,,0,,,75,0
5342,note_on,,,,,14,0,1,,,,,0,,,46,47
5348,control_change,,,,,6,0,1,,,,,0,64,40,,
5352,note_on,,,,,4,0,1,,,,,0,,,75,74
5353,control_change,,,,,1,0,1,,,,,0,64,0,,
5360,note_on,,,,,7,0,1,,,,,0,,,61,66
5373,control_change,,,,,13,0,1,,,,,0,64,72,,
5377,control_change,,,,,4,0,1,,,,,0,64,127,,
5384,note_on,,,,,7,0,1,,,,,0,,,75,0
5392,note_on,,,,,0,0,1,,,,,0,,,73,50
5392,note_on,,,,,8,0,1,,,,,0,,,77,75
5398,note_on,,,,,6,0,1,,,,,0,,,61,0
5413,note_on,,,,,0,0,1,,,,,0,,,77,0
5413,note_on,,,,,15,0,1,,,,,0,,,73,0
5417,note_on,,,,,4,0,1,,,,,0,,,46,0
5433,note_on,,,,,0,0,1,,,,,0,,,67,51
5433,note_on,,,,,16,0,1,,,,,0,,,75,74
5453,note_on,,,,,20,0,1,,,,,0,,,67,0
5459,note_on,,,,,6,0,1,,,,,0,,,75,0
5476,note_on,,,,,17,0,1,,,,,0,,,77,71
5489,note_on,,,,,13,0,1,,,,,0,,,73,42
5499,note_on,,,,,10,0,1,,,,,0,,,77,0
5505,note_on,,,,,6,0,1,,,,,0,,,73,0
5520,note_on,,,,,15,0,1,,,,,0,,,77,73
5524,note_on,,,,,4,0,1,,,,,0,,,44,53
5534,control_change,,,,,10,0,1,,,,,0,64,104,,
5537,control_change,,,,,3,0,1,,,,,0,64,0,,
5559,note_on,,,,,22,0,1,,,,,0,,,77,0
5568,note_on,,,,,9,0,1,,,,,0,,,65,60
5573,note_on,,,,,5,0,1,,,,,0,,,78,53
5574,control_change,,,,,1,0,1,,,,,0,64,72,,
5576,note_on,,,,,2,0,1,,,,,0,,,65,0
5578,control_change,,,,,2,0,1,,,,,0,64,127,,
5595,note_on,,,,,17,0,1,,,,,0,,,78,0
5611,note_on,,,,,16,0,1,,,,,0,,,77,64
5612,note_on,,,,,1,0,1,,,,,0,,,68,37
5627,note_on,,,,,15,0,1,,,,,0,,,68,0
5628,note_on,,,,,1,0,1,,,,,0,,,44,0
5636,note_on,,,,,8,0,1,,,,,0,,,77,0
5648,note_on,,,,,12,0,1,,,,,0,,,78,52
5650,note_on,,,,,2,0,1,,,,,0,,,73,50
5670,note_on,,,,,20,0,1,,,,,0,,,78,0
5671,note_on,,,,,1,0,1,,,,,0,,,73,0
5691,note_on,,,,,20,0,1,,,,,0,,,77,61
5714,note_on,,,,,23,0,1,,,,,0,,,77,0
5728,note_on,,,,,14,0,1,,,,,0,,,78,40
5729,note_on,,,,,1,0,1,,,,,0,,,73,43
5745,note_on,,,,,16,0,1,,,,,0,,,78,0
5752,note_on,,,,,7,0,1,,,,,0,,,73,0
5766,note_on,,,,,14,0,1,,,,,0,,,60,62
5768,note_on,,,,,2,0,1,,,,,0,,,77,64
5768,note_on,,,,,0,0,1,,,,,0,,,68,34
5779,note_on,,,,,11,0,1,,,,,0,,,68,0
5788,note_on,,,,,9,0,1,,,,,0,,,77,0
5810,note_on,,,,,0,0,1,,,,,0,,,65,48
5810,note_on,,,,,22,0,1,,,,,0,,,78,64
5820,note_on,,,,,10,0,1,,,,,0,,,65,0
5830,note_on,,,,,10,0,1,,,,,0,,,78,0
5851,note_on,,,,,21,0,1,,,,,0,,,60,0
5851,note_on,,,,,0,0,1,,,,,0,,,63,68
5853,note_on,,,,,2,0,1,,,,,0,,,77,67
5878,note_on,,,,,25,0,1,,,,,0,,,77,0
5898,note_on,,,,,0,0,1,,,,,0,,,65,33
5898,note_on,,,,,20,0,1,,,,,0,,,78,53
5921,note_on,,,,,0,0,1,,,,,0,,,78,0
5921,note_on,,,,,23,0,1,,,,,0,,,65,0
5934,note_on,,,,,13,0,1,,,,,0,,,61,69
5938,note_on,,,,,4,0,1,,,,,0,,,68,40
5938,note_on,,,,,0,0,1,,,,,0,,,77,63
5944,note_on,,,,,6,0,1,,,,,0,,,63,0
5952,note_on,,,,,8,0,1,,,,,0,,,68,0
5963,note_on,,,,,11,0,1,,,,,0,,,77,0
5978,note_on,,,,,0,0,1,,,,,0,,,78,40
5978,note_on,,,,,15,0,1,,,,,0,,,73,43
6002,note_on,,,,,0,0,1,,,,,0,,,73,0
6002,note_on,,,,,24,0,1,,,,,0,,,78,0
6013,note_on,,,,,11,0,1,,,,,0,,,61,0
6015,note_on,,,,,2,0,1,,,,,0,,,53,70
6019,note_on,,,,,4,0,1,,,,,0,,,77,62
6043,note_on,,,,,24,0,1,,,,,0,,,77,0
6057,note_on,,,,,14,0,1,,,,,0,,,73,48
6057,note_on,,,,,0,0,1,,,,,0,,,78,46
6078,note_on,,,,,21,0,1,,,,,0,,,78,0
6082,note_on,,,,,4,0,1,,,,,0,,,73,0
6096,note_on,,,,,14,0,1,,,,,0,,,58,63
6099,note_on,,,,,3,0,1,,,,,0,,,68,33
6100,note_on,,,,,1,0,1,,,,,0,,,77,51
6110,note_on,,,,,10,0,1,,,,,0,,,53,0
6118,note_on,,,,,8,0,1,,,,,0,,,68,0
6120,note_on,,,,,2,0,1,,,,,0,,,77,0
6142,note_on,,,,,22,0,1,,,,,0,,,78,53
6143,note_on,,,,,1,0,1,,,,,0,,,65,38
6154,note_on,,,,,11,0,1,,,,,0,,,65,0
6161,note_on,,,,,7,0,1,,,,,0,,,78,0
6182,note_on,,,,,21,0,1,,,,,0,,,56,67
6185,note_on,,,,,3,0,1,,,,,0,,,58,0
6200,control_change,,,,,15,0,1,,,,,0,64,104,,
6204,control_change,,,,,4,0,1,,,,,0,64,40,,
6208,control_change,,,,,4,0,1,,,,,0,64,0,,
6226,note_on,,,,,18,0,1,,,,,0,,,66,44
6227,note_on,,,,,1,0,1,,,,,0,,,80,57
6234,note_on,,,,,7,0,1,,,,,0,,,66,0
6240,control_change,,,,,6,0,1,,,,,0,64,88,,
6244,control_change,,,,,4,0,1,,,,,0,64,127,,
6250,note_on,,,,,6,0,1,,,,,0,,,80,0
6267,note_on,,,,,17,0,1,,,,,0,,,68,34
6268,note_on,,,,,1,0,1,,,,,0,,,82,61
6278,note_on,,,,,10,0,1,,,,,0,,,68,0
6287,note_on,,,,,9,0,1,,,,,0,,,82,0
6302,note_on,,,,,15,0,1,,,,,0,,,80,71
6310,note_on,,,,,8,0,1,,,,,0,,,72,38
6320,note_on,,,,,10,0,1,,,,,0,,,72,0
6328,note_on,,,,,8,0,1,,,,,0,,,80,0
6339,note_on,,,,,11,0,1,,,,,0,,,56,0
6345,note_on,,,,,6,0,1,,,,,0,,,60,69
6346,note_on,,,,,1,0,1,,,,,0,,,82,59
6347,note_on,,,,,1,0,1,,,,,0,,,75,54
6366,note_on,,,,,19,0,1,,,,,0,,,75,0
6366,note_on,,,,,0,0,1,,,,,0,,,82,0
6385,note_on,,,,,19,0,1,,,,,0,,,80,57
6391,note_on,,,,,6,0,1,,,,,0,,,72,33
6399,note_on,,,,,8,0,1,,,,,0,,,72,0
6408,note_on,,,,,9,0,1,,,,,0,,,80,0
6424,note_on,,,,,0,0,1,,,,,0,,,68,37
6424,note_on,,,,,16,0,1,,,,,0,,,82,60
6442,note_on,,,,,0,0,1,,,,,0,,,82,0
6442,note_on,,,,,18,0,1,,,,,0,,,68,0
6467,note_on,,,,,25,0,1,,,,,0,,,80,60
6467,note_on,,,,,0,0,1,,,,,0,,,66,56
6483,note_on,,,,,16,0,1,,,,,0,,,66,0
6491,note_on,,,,,8,0,1,,,,,0,,,80,0
6516,note_on,,,,,25,0,1,,,,,0,,,60,0
6519,note_on,,,,,3,0,1,,,,,0,,,65,74
6562,note_on,,,,,43,0,1,,,,,0,,,66,58
6564,note_on,,,,,2,0,1,,,,,0,,,80,49
6573,note_on,,,,,9,0,1,,,,,0,,,66,0
6585,note_on,,,,,12,0,1,,,,,0,,,80,0
6604,note_on,,,,,19,0,1,,,,,0,,,68,50
6608,note_on,,,,,4,0,1,,,,,0,,,82,32
6613,note_on,,,,,5,0,1,,,,,0,,,68,0
6625,note_on,,,,,12,0,1,,,,,0,,,82,0
6645,note_on,,,,,20,0,1,,,,,0,,,80,50
6653,note_on,,,,,8,0,1,,,,,0,,,72,39
6668,note_on,,,,,15,0,1,,,,,0,,,72,0
6674,note_on,,,,,6,0,1,,,,,0,,,80,0
6696,note_on,,,,,22,0,1,,,,,0,,,82,50
6701,note_on,,,,,5,0,1,,,,,0,,,78,39
6709,note_on,,,,,8,0,1,,,,,0,,,78,0
6716,note_on,,,,,7,0,1,,,,,0,,,82,0
6746,note_on,,,,,30,0,1,,,,,0,,,80,48
6747,note_on,,,,,1,0,1,,,,,0,,,72,36
6758,note_on,,,,,11,0,1,,,,,0,,,72,0
6770,note_on,,,,,12,0,1,,,,,0,,,80,0
6786,note_on,,,,,16,0,1,,,,,0,,,63,60
6792,note_on,,,,,6,0,1,,,,,0,,,82,53
6799,note_on,,,,,7,0,1,,,,,0,,,68,40
6800,note_on,,,,,1,0,1,,,,,0,,,65,0
6807,note_on,,,,,0,0,1,,,,,0,,,68,0
6807,note_on,,,,,7,0,1,,,,,0,,,63,0
6812,note_on,,,,,5,0,1,,,,,0,,,82,0
6840,note_on,,,,,28,0,1,,,,,0,,,80,52
6858,note_on,,,,,18,0,1,,,,,0,,,80,0
6881,control_change,,,,,23,0,1,,,,,0,64,40,,
6885,control_change,,,,,0,0,1,,,,,0,64,0,,
6885,note_on,,,,,4,0,1,,,,,0,,,65,40
6889,note_on,,,,,4,0,1,,,,,0,,,37,40
6904,note_on,,,,,15,0,1,,,,,0,,,65,0
6904,note_on,,,,,0,0,1,,,,,0,,,71,51
6906,control_change,,,,,2,0,1,,,,,0,64,40,,
6910,control_change,,,,,4,0,1,,,,,0,64,127,,
6914,note_on,,,,,4,0,1,,,,,0,,,37,0
6942,note_on,,,,,28,0,1,,,,,0,,,71,0
6946,note_on,,,,,4,0,1,,,,,0,,,80,58
6954,note_on,,,,,8,0,1,,,,,0,,,61,68
6968,note_on,,,,,14,0,1,,,,,0,,,80,0
6997,note_on,,,,,29,0,1,,,,,0,,,82,54
6999,note_on,,,,,2,0,1,,,,,0,,,71,51
7014,note_on,,,,,15,0,1,,,,,0,,,71,0
7017,note_on,,,,,3,0,1,,,,,0,,,82,0
7040,note_on,,,,,0,0,1,,,,,0,,,75,35
7040,note_on,,,,,23,0,1,,,,,0,,,80,55
7063,note_on,,,,,0,0,1,,,,,0,,,80,0
7063,note_on,,,,,23,0,1,,,,,0,,,75,0
7075,note_on,,,,,12,0,1,,,,,0,,,82,54
7081,note_on,,,,,6,0,1,,,,,0,,,71,33
7090,note_on,,,,,9,0,1,,,,,0,,,71,0
7098,note_on,,,,,8,0,1,,,,,0,,,82,0
7115,note_on,,,,,0,0,1,,,,,0,,,70,52
7115,note_on,,,,,17,0,1,,,,,0,,,61,0
7117,note_on,,,,,2,0,1,,,,,0,,,78,57
7125,note_on,,,,,8,0,1,,,,,0,,,70,0
7141,note_on,,,,,16,0,1,,,,,0,,,78,0
7154,note_on,,,,,13,0,1,,,,,0,,,80,60
7159,note_on,,,,,5,0,1,,,,,0,,,73,35
7171,note_on,,,,,12,0,1,,,,,0,,,73,0
7177,note_on,,,,,6,0,1,,,,,0,,,80,0
7194,note_on,,,,,0,0,1,,,,,0,,,75,45
7194,note_on,,,,,17,0,1,,,,,0,,,78,54
7220,note_on,,,,,0,0,1,,,,,0,,,78,0
7220,note_on,,,,,26,0,1,,,,,0,,,75,0
7233,note_on,,,,,13,0,1,,,,,0,,,73,47
7234,note_on,,,,,1,0,1,,,,,0,,,80,57
7248,note_on,,,,,14,0,1,,,,,0,,,73,0
7253,note_on,,,,,5,0,1,,,,,0,,,80,0
7274,note_on,,,,,21,0,1,,,,,0,,,68,46
7276,note_on,,,,,2,0,1,,,,,0,,,77,60
7295,note_on,,,,,19,0,1,,,,,0,,,68,0
7302,note_on,,,,,7,0,1,,,,,0,,,77,0
7315,note_on,,,,,13,0,1,,,,,0,,,78,58
7317,note_on,,,,,2,0,1,,,,,0,,,71,51
7330,note_on,,,,,13,0,1,,,,,0,,,71,0
7336,note_on,,,,,6,0,1,,,,,0,,,78,0
7357,note_on,,,,,21,0,1,,,,,0,,,77,60
7359,note_on,,,,,2,0,1,,,,,0,,,73,33
7371,note_on,,,,,12,0,1,,,,,0,,,73,0
7380,note_on,,,,,9,0,1,,,,,0,,,77,0
7394,note_on,,,,,14,0,1,,,,,0,,,78,45
7396,note_on,,,,,2,0,1,,,,,0,,,71,49
7406,note_on,,,,,10,0,1,,,,,0,,,71,0
7412,note_on,,,,,6,0,1,,,,,0,,,78,0
7438,note_on,,,,,26,0,1,,,,,0,,,66,63
7439,note_on,,,,,1,0,1,,,,,0,,,75,55
7450,note_on,,,,,11,0,1,,,,,0,,,66,0
7466,note_on,,,,,16,0,1,,,,,0,,,75,0
7482,note_on,,,,,16,0,1,,,,,0,,,77,48
7482,note_on,,,,,0,0,1,,,,,0,,,70,38
7494,note_on,,,,,12,0,1,,,,,0,,,77,0
7499,note_on,,,,,5,0,1,,,,,0,,,70,0
7522,note_on,,,,,23,0,1,,,,,0,,,75,45
7530,note_on,,,,,8,0,1,,,,,0,,,71,33
7545,note_on,,,,,15,0,1,,,,,0,,,71,0
7549,note_on,,,,,4,0,1,,,,,0,,,75,0
7562,note_on,,,,,13,0,1,,,,,0,,,77,53
7564,note_on,,,,,2,0,1,,,,,0,,,70,33
7572,note_on,,,,,8,0,1,,,,,0,,,77,0
7574,note_on,,,,,2,0,1,,,,,0,,,70,0
7603,note_on,,,,,29,0,1,,,,,0,,,73,61
7605,note_on,,,,,2,0,1,,,,,0,,,65,50
7620,note_on,,,,,15,0,1,,,,,0,,,65,0
7628,note_on,,,,,8,0,1,,,,,0,,,73,0
7644,note_on,,,,,16,0,1,,,,,0,,,75,53
7653,note_on,,,,,9,0,1,,,,,0,,,68,34
7663,note_on,,,,,10,0,1,,,,,0,,,75,0
7675,note_on,,,,,12,0,1,,,,,0,,,68,0
7686,note_on,,,,,11,0,1,,,,,0,,,73,54
7710,note_on,,,,,24,0,1,,,,,0,,,73,0
7727,note_on,,,,,17,0,1,,,,,0,,,75,50
7730,note_on,,,,,3,0,1,,,,,0,,,68,38
7746,note_on,,,,,16,0,1,,,,,0,,,75,0
7750,note_on,,,,,4,0,1,,,,,0,,,68,0
7773,note_on,,,,,23,0,1,,,,,0,,,63,46
7775,note_on,,,,,2,0,1,,,,,0,,,73,46
7781,control_change,,,,,6,0,1,,,,,0,64,72,,
7785,control_change,,,,,4,0,1,,,,,0,64,24,,
7792,note_on,,,,,7,0,1,,,,,0,,,63,0
7797,control_change,,,,,5,0,1,,,,,0,64,127,,
7804,note_on,,,,,7,0,1,,,,,0,,,73,0
7814,note_on,,,,,10,0,1,,,,,0,,,66,46
7820,note_on,,,,,6,0,1,,,,,0,,,75,33
7836,note_on,,,,,16,0,1,,,,,0,,,75,0
7837,note_on,,,,,1,0,1,,,,,0,,,66,0
7859,note_on,,,,,22,0,1,,,,,0,,,73,45
7870,note_on,,,,,11,0,1,,,,,0,,,71,32
7878,note_on,,,,,8,0,1,,,,,0,,,71,0
7886,note_on,,,,,8,0,1,,,,,0,,,73,0
7904,note_on,,,,,18,0,1,,,,,0,,,75,50
7904,note_on,,,,,0,0,1,,,,,0,,,66,36
7914,note_on,,,,,10,0,1,,,,,0,,,66,0
7925,note_on,,,,,11,0,1,,,,,0,,,75,0
7946,note_on,,,,,21,0,1,,,,,0,,,61,47
7954,note_on,,,,,8,0,1,,,,,0,,,73,32
7959,note_on,,,,,5,0,1,,,,,0,,,61,0
7974,note_on,,,,,15,0,1,,,,,0,,,73,0
7994,note_on,,,,,20,0,1,,,,,0,,,75,55
7998,note_on,,,,,4,0,1,,,,,0,,,65,42
8008,note_on,,,,,10,0,1,,,,,0,,,65,0
8013,note_on,,,,,5,0,1,,,,,0,,,75,0
8039,note_on,,,,,26,0,1,,,,,0,,,73,49
8045,note_on,,,,,6,0,1,,,,,0,,,70,34
8055,note_on,,,,,10,0,1,,,,,0,,,70,0
8068,note_on,,,,,13,0,1,,,,,0,,,73,0
8088,note_on,,,,,20,0,1,,,,,0,,,75,51
8089,note_on,,,,,1,0,1,,,,,0,,,65,40
8102,note_on,,,,,13,0,1,,,,,0,,,65,0
8106,note_on,,,,,4,0,1,,,,,0,,,75,0
8143,note_on,,,,,37,0,1,,,,,0,,,53,59
8144,control_change,,,,,1,0,1,,,,,0,64,24,,
8146,note_on,,,,,2,0,1,,,,,0,,,73,43
8147,control_change,,,,,1,0,1,,,,,0,64,0,,
8150,note_on,,,,,3,0,1,,,,,0,,,59,24
8160,control_change,,,,,10,0,1,,,,,0,64,24,,
8164,control_change,,,,,0,0,1,,,,,0,64,104,,
8164,note_on,,,,,4,0,1,,,,,0,,,59,0
8168,control_change,,,,,4,0,1,,,,,0,64,127,,
8173,note_on,,,,,5,0,1,,,,,0,,,73,0
8203,note_on,,,,,0,0,1,,,,,0,,,65,42
8203,note_on,,,,,30,0,1,,,,,0,,,75,52
8221,note_on,,,,,18,0,1,,,,,0,,,65,0
8221,note_on,,,,,0,0,1,,,,,0,,,75,0
8255,note_on,,,,,0,0,1,,,,,0,,,68,46
8255,note_on,,,,,34,0,1,,,,,0,,,51,51
8257,note_on,,,,,2,0,1,,,,,0,,,73,50
8259,note_on,,,,,2,0,1,,,,,0,,,53,0
8275,note_on,,,,,16,0,1,,,,,0,,,73,0
8275,note_on,,,,,0,0,1,,,,,0,,,68,0
8310,note_on,,,,,35,0,1,,,,,0,,,65,40
8316,note_on,,,,,6,0,1,,,,,0,,,75,48
8325,note_on,,,,,9,0,1,,,,,0,,,75,0
8327,note_on,,,,,2,0,1,,,,,0,,,65,0
8346,note_on,,,,,19,0,1,,,,,0,,,49,58
8349,note_on,,,,,3,0,1,,,,,0,,,51,0
8368,note_on,,,,,19,0,1,,,,,0,,,49,0
8411,note_on,,,,,43,0,1,,,,,0,,,42,46
8418,control_change,,,,,7,0,1,,,,,0,64,24,,
8422,control_change,,,,,4,0,1,,,,,0,64,0,,
8426,note_on,,,,,4,0,1,,,,,0,,,58,46
8449,note_on,,,,,23,0,1,,,,,0,,,49,59
8458,control_change,,,,,9,0,1,,,,,0,64,56,,
8462,control_change,,,,,0,0,1,,,,,0,64,127,,
8462,note_on,,,,,4,0,1,,,,,0,,,58,0
8463,note_on,,,,,1,0,1,,,,,0,,,66,49
8464,note_on,,,,,1,0,1,,,,,0,,,42,0
8494,note_on,,,,,30,0,1,,,,,0,,,73,53
8498,note_on,,,,,4,0,1,,,,,0,,,66,0
8512,note_on,,,,,14,0,1,,,,,0,,,73,0
8537,note_on,,,,,25,0,1,,,,,0,,,61,40
8544,note_on,,,,,7,0,1,,,,,0,,,75,51
8556,note_on,,,,,12,0,1,,,,,0,,,61,0
8560,note_on,,,,,4,0,1,,,,,0,,,75,0
8579,note_on,,,,,19,0,1,,,,,0,,,73,51
8587,note_on,,,,,8,0,1,,,,,0,,,66,27
8595,note_on,,,,,8,0,1,,,,,0,,,66,0
8604,note_on,,,,,9,0,1,,,,,0,,,73,0
8622,note_on,,,,,0,0,1,,,,,0,,,75,40
8622,note_on,,,,,18,0,1,,,,,0,,,49,0
8625,note_on,,,,,3,0,1,,,,,0,,,70,39
8633,note_on,,,,,8,0,1,,,,,0,,,75,0
8635,note_on,,,,,2,0,1,,,,,0,,,70,0
8659,note_on,,,,,24,0,1,,,,,0,,,73,51
8679,note_on,,,,,20,0,1,,,,,0,,,73,0
8700,note_on,,,,,21,0,1,,,,,0,,,70,42
8700,note_on,,,,,0,0,1,,,,,0,,,75,42
8715,note_on,,,,,15,0,1,,,,,0,,,75,0
8718,note_on,,,,,3,0,1,,,,,0,,,70,0
8738,note_on,,,,,20,0,1,,,,,0,,,73,57
8738,note_on,,,,,0,0,1,,,,,0,,,66,42
8766,note_on,,,,,0,0,1,,,,,0,,,73,0
8766,note_on,,,,,28,0,1,,,,,0,,,66,0
8779,note_on,,,,,13,0,1,,,,,0,,,75,51
8781,note_on,,,,,2,0,1,,,,,0,,,61,34
8788,note_on,,,,,7,0,1,,,,,0,,,75,0
8792,note_on,,,,,4,0,1,,,,,0,,,61,0
8815,note_on,,,,,23,0,1,,,,,0,,,54,61
8822,note_on,,,,,7,0,1,,,,,0,,,58,43
8826,note_on,,,,,4,0,1,,,,,0,,,73,31
8830,note_on,,,,,4,0,1,,,,,0,,,58,0
8842,note_on,,,,,12,0,1,,,,,0,,,73,0
8864,note_on,,,,,22,0,1,,,,,0,,,61,45
8866,note_on,,,,,2,0,1,,,,,0,,,75,39
8875,note_on,,,,,9,0,1,,,,,0,,,75,0
8881,note_on,,,,,6,0,1,,,,,0,,,61,0
8902,note_on,,,,,21,0,1,,,,,0,,,73,51
8906,note_on,,,,,4,0,1,,,,,0,,,66,34
8914,note_on,,,,,8,0,1,,,,,0,,,66,0
8923,note_on,,,,,9,0,1,,,,,0,,,73,0
8941,note_on,,,,,18,0,1,,,,,0,,,75,43
8949,note_on,,,,,8,0,1,,,,,0,,,70,29
8957,note_on,,,,,8,0,1,,,,,0,,,70,0
8960,note_on,,,,,3,0,1,,,,,0,,,75,0
8980,note_on,,,,,20,0,1,,,,,0,,,56,69
8981,note_on,,,,,1,0,1,,,,,0,,,73,50
8984,note_on,,,,,3,0,1,,,,,0,,,54,0
9004,note_on,,,,,20,0,1,,,,,0,,,73,0
9024,note_on,,,,,20,0,1,,,,,0,,,75,46
9024,note_on,,,,,0,0,1,,,,,0,,,70,40
9037,note_on,,,,,13,0,1,,,,,0,,,56,0
9040,note_on,,,,,3,0,1,,,,,0,,,70,0
9041,note_on,,,,,1,0,1,,,,,0,,,75,0
9062,note_on,,,,,21,0,1,,,,,0,,,73,53
9062,note_on,,,,,0,0,1,,,,,0,,,66,40
9090,note_on,,,,,0,0,1,,,,,0,,,73,0
9090,note_on,,,,,28,0,1,,,,,0,,,66,0
9096,control_change,,,,,6,0,1,,,,,0,64,88,,
9100,control_change,,,,,4,0,1,,,,,0,64,0,,
9102,note_on,,,,,2,0,1,,,,,0,,,61,40
9103,note_on,,,,,1,0,1,,,,,0,,,75,42
9106,note_on,,,,,3,0,1,,,,,0,,,42,49
9119,control_change,,,,,13,0,1,,,,,0,64,88,,
9123,note_on,,,,,4,0,1,,,,,0,,,75,0
9124,control_change,,,,,1,0,1,,,,,0,64,127,,
9125,note_on,,,,,1,0,1,,,,,0,,,61,0
9128,note_on,,,,,3,0,1,,,,,0,,,42,0
9148,note_on,,,,,20,0,1,,,,,0,,,58,70
9150,note_on,,,,,2,0,1,,,,,0,,,73,46
9163,note_on,,,,,13,0,1,,,,,0,,,58,0
9175,note_on,,,,,12,0,1,,,,,0,,,73,0
9190,note_on,,,,,15,0,1,,,,,0,,,61,44
9191,note_on,,,,,1,0,1,,,,,0,,,75,53
9199,note_on,,,,,8,0,1,,,,,0,,,61,0
9208,note_on,,,,,9,0,1,,,,,0,,,75,0
9229,note_on,,,,,21,0,1,,,,,0,,,73,42
9235,note_on,,,,,6,0,1,,,,,0,,,66,27
9245,note_on,,,,,10,0,1,,,,,0,,,66,0
9254,note_on,,,,,9,0,1,,,,,0,,,73,0
9266,note_on,,,,,12,0,1,,,,,0,,,75,50
9278,note_on,,,,,12,0,1,,,,,0,,,70,26
9287,note_on,,,,,9,0,1,,,,,0,,,75,0
9288,note_on,,,,,1,0,1,,,,,0,,,70,0
9307,note_on,,,,,19,0,1,,,,,0,,,73,51
9328,note_on,,,,,21,0,1,,,,,0,,,73,0
9344,note_on,,,,,16,0,1,,,,,0,,,75,53
9346,note_on,,,,,2,0,1,,,,,0,,,70,44
9361,note_on,,,,,15,0,1,,,,,0,,,75,0
9363,note_on,,,,,2,0,1,,,,,0,,,70,0
9385,note_on,,,,,0,0,1,,,,,0,,,66,42
9385,note_on,,,,,22,0,1,,,,,0,,,73,53
9408,note_on,,,,,0,0,1,,,,,0,,,73,0
9408,note_on,,,,,23,0,1,,,,,0,,,66,0
9420,note_on,,,,,12,0,1,,,,,0,,,61,46
9424,note_on,,,,,4,0,1,,,,,0,,,75,40
9433,note_on,,,,,9,0,1,,,,,0,,,75,0
9439,note_on,,,,,6,0,1,,,,,0,,,61,0
9461,note_on,,,,,22,0,1,,,,,0,,,73,47
9485,note_on,,,,,24,0,1,,,,,0,,,73,0
9499,note_on,,,,,14,0,1,,,,,0,,,61,33
9504,note_on,,,,,5,0,1,,,,,0,,,75,27
9510,note_on,,,,,6,0,1,,,,,0,,,61,0
9516,note_on,,,,,6,0,1,,,,,0,,,75,0
9537,note_on,,,,,21,0,1,,,,,0,,,73,48
9542,note_on,,,,,5,0,1,,,,,0,,,66,26
9551,note_on,,,,,9,0,1,,,,,0,,,66,0
9558,note_on,,,,,7,0,1,,,,,0,,,73,0
9580,note_on,,,,,22,0,1,,,,,0,,,75,25
9582,note_on,,,,,2,0,1,,,,,0,,,70,33
9590,note_on,,,,,8,0,1,,,,,0,,,75,0
9592,note_on,,,,,2,0,1,,,,,0,,,70,0
9616,note_on,,,,,24,0,1,,,,,0,,,54,57
9617,note_on,,,,,1,0,1,,,,,0,,,73,46
9638,note_on,,,,,21,0,1,,,,,0,,,73,0
9663,note_on,,,,,25,0,1,,,,,0,,,75,36
9666,note_on,,,,,3,0,1,,,,,0,,,70,30
9677,note_on,,,,,11,0,1,,,,,0,,,70,0
9680,note_on,,,,,3,0,1,,,,,0,,,75,0
9698,note_on,,,,,18,0,1,,,,,0,,,73,48
9698,note_on,,,,,0,0,1,,,,,0,,,66,38
9733,note_on,,,,,35,0,1,,,,,0,,,66,0
9733,note_on,,,,,0,0,1,,,,,0,,,73,0
9735,note_on,,,,,2,0,1,,,,,0,,,54,0
9747,note_on,,,,,12,0,1,,,,,0,,,75,43
9781,control_change,,,,,34,0,1,,,,,0,64,0,,
9785,note_on,,,,,4,0,1,,,,,0,,,42,47
9800,note_on,,,,,15,0,1,,,,,0,,,75,0
9807,note_on,,,,,7,0,1,,,,,0,,,62,42
9820,note_on,,,,,13,0,1,,,,,0,,,62,0
9822,control_change,,,,,2,0,1,,,,,0,64,88,,
9826,control_change,,,,,4,0,1,,,,,0,64,127,,
9830,note_on,,,,,4,0,1,,,,,0,,,50,62
9851,note_on,,,,,21,0,1,,,,,0,,,78,64
9872,note_on,,,,,21,0,1,,,,,0,,,78,0
9884,note_on,,,,,12,0,1,,,,,0,,,42,0
9894,note_on,,,,,10,0,1,,,,,0,,,66,35
9900,note_on,,,,,6,0,1,,,,,0,,,80,55
9901,note_on,,,,,1,0,1,,,,,0,,,50,0
9904,note_on,,,,,3,0,1,,,,,0,,,66,0
9913,note_on,,,,,9,0,1,,,,,0,,,80,0
9932,note_on,,,,,19,0,1,,,,,0,,,78,58
9938,note_on,,,,,6,0,1,,,,,0,,,69,27
9946,note_on,,,,,8,0,1,,,,,0,,,69,0
9955,note_on,,,,,9,0,1,,,,,0,,,78,0
9969,note_on,,,,,14,0,1,,,,,0,,,80,54
9975,note_on,,,,,6,0,1,,,,,0,,,74,45
9986,note_on,,,,,11,0,1,,,,,0,,,74,0
9990,note_on,,,,,4,0,1,,,,,0,,,80,0
10008,note_on,,,,,18,0,1,,,,,0,,,78,53
10012,note_on,,,,,4,0,1,,,,,0,,,54,67
10035,note_on,,,,,23,0,1,,,,,0,,,78,0
10052,note_on,,,,,17,0,1,,,,,0,,,80,40
10054,note_on,,,,,2,0,1,,,,,0,,,74,49
10066,note_on,,,,,12,0,1,,,,,0,,,74,0
10072,note_on,,,,,6,0,1,,,,,0,,,80,0
10091,note_on,,,,,19,0,1,,,,,0,,,69,54
10093,note_on,,,,,2,0,1,,,,,0,,,78,48
10101,note_on,,,,,8,0,1,,,,,0,,,69,0
10116,note_on,,,,,15,0,1,,,,,0,,,78,0
10130,note_on,,,,,14,0,1,,,,,0,,,80,55
10135,note_on,,,,,5,0,1,,,,,0,,,66,38
10144,note_on,,,,,9,0,1,,,,,0,,,54,0
10151,note_on,,,,,7,0,1,,,,,0,,,66,0
10152,note_on,,,,,1,0,1,,,,,0,,,80,0
10174,note_on,,,,,22,0,1,,,,,0,,,57,69
10180,note_on,,,,,6,0,1,,,,,0,,,78,57
10207,note_on,,,,,27,0,1,,,,,0,,,78,0
10220,note_on,,,,,13,0,1,,,,,0,,,66,47
10223,note_on,,,,,3,0,1,,,,,0,,,80,56
10236,note_on,,,,,13,0,1,,,,,0,,,66,0
10242,note_on,,,,,6,0,1,,,,,0,,,80,0
10262,note_on,,,,,20,0,1,,,,,0,,,78,56
10263,note_on,,,,,1,0,1,,,,,0,,,69,45
10273,note_on,,,,,10,0,1,,,,,0,,,69,0
10283,note_on,,,,,10,0,1,,,,,0,,,78,0
10300,note_on,,,,,17,0,1,,,,,0,,,80,58
10302,note_on,,,,,2,0,1,,,,,0,,,74,57
10314,note_on,,,,,12,0,1,,,,,0,,,74,0
10317,note_on,,,,,3,0,1,,,,,0,,,80,0
10339,note_on,,,,,22,0,1,,,,,0,,,62,69
10340,note_on,,,,,1,0,1,,,,,0,,,78,57
10346,note_on,,,,,6,0,1,,,,,0,,,57,0
10364,note_on,,,,,18,0,1,,,,,0,,,78,0
10379,note_on,,,,,15,0,1,,,,,0,,,80,57
10379,note_on,,,,,0,0,1,,,,,0,,,74,42
10402,note_on,,,,,23,0,1,,,,,0,,,74,0
10402,note_on,,,,,0,0,1,,,,,0,,,80,0
10418,note_on,,,,,16,0,1,,,,,0,,,78,56
10422,note_on,,,,,4,0,1,,,,,0,,,62,0
10426,note_on,,,,,4,0,1,,,,,0,,,69,34
10434,note_on,,,,,8,0,1,,,,,0,,,69,0
10445,note_on,,,,,11,0,1,,,,,0,,,78,0
10461,note_on,,,,,16,0,1,,,,,0,,,74,52
10461,note_on,,,,,0,0,1,,,,,0,,,66,35
10469,note_on,,,,,8,0,1,,,,,0,,,66,0
10469,note_on,,,,,0,0,1,,,,,0,,,74,0
10491,control_change,,,,,22,0,1,,,,,0,64,40,,
10495,control_change,,,,,4,0,1,,,,,0,64,0,,
10498,note_on,,,,,3,0,1,,,,,0,,,42,49
10507,note_on,,,,,9,0,1,,,,,0,,,58,46
10515,control_change,,,,,8,0,1,,,,,0,64,40,,
10518,note_on,,,,,3,0,1,,,,,0,,,42,0
10519,control_change,,,,,0,0,1,,,,,0,64,127,,
10519,note_on,,,,,1,0,1,,,,,0,,,58,0
10530,note_on,,,,,11,0,1,,,,,0,,,66,45
10540,note_on,,,,,10,0,1,,,,,0,,,73,46
10546,note_on,,,,,6,0,1,,,,,0,,,61,67
10548,note_on,,,,,0,0,1,,,,,0,,,66,0
10548,note_on,,,,,2,0,1,,,,,0,,,73,0
10561,note_on,,,,,13,0,1,,,,,0,,,61,0
10581,note_on,,,,,20,0,1,,,,,0,,,61,43
10583,note_on,,,,,2,0,1,,,,,0,,,75,63
10591,note_on,,,,,8,0,1,,,,,0,,,61,0
10597,note_on,,,,,6,0,1,,,,,0,,,75,0
10620,note_on,,,,,23,0,1,,,,,0,,,73,54
10625,note_on,,,,,5,0,1,,,,,0,,,66,29
10634,note_on,,,,,9,0,1,,,,,0,,,66,0
10643,note_on,,,,,9,0,1,,,,,0,,,73,0
10660,note_on,,,,,17,0,1,,,,,0,,,75,40
10662,note_on,,,,,2,0,1,,,,,0,,,70,42
10673,note_on,,,,,11,0,1,,,,,0,,,75,0
10674,note_on,,,,,1,0,1,,,,,0,,,70,0
10697,note_on,,,,,23,0,1,,,,,0,,,73,46
10718,note_on,,,,,21,0,1,,,,,0,,,73,0
10738,note_on,,,,,20,0,1,,,,,0,,,70,40
10740,note_on,,,,,2,0,1,,,,,0,,,75,34
10750,note_on,,,,,10,0,1,,,,,0,,,75,0
10755,note_on,,,,,5,0,1,,,,,0,,,70,0
10777,note_on,,,,,0,0,1,,,,,0,,,66,40
10777,note_on,,,,,22,0,1,,,,,0,,,73,50
10802,note_on,,,,,0,0,1,,,,,0,,,73,0
10802,note_on,,,,,25,0,1,,,,,0,,,66,0
10815,note_on,,,,,13,0,1,,,,,0,,,61,42
10821,note_on,,,,,6,0,1,,,,,0,,,75,30
10831,note_on,,,,,10,0,1,,,,,0,,,75,0
10833,note_on,,,,,2,0,1,,,,,0,,,61,0
10858,note_on,,,,,25,0,1,,,,,0,,,58,51
10859,note_on,,,,,1,0,1,,,,,0,,,73,53
10880,note_on,,,,,21,0,1,,,,,0,,,58,0
10883,note_on,,,,,3,0,1,,,,,0,,,73,0
10898,note_on,,,,,15,0,1,,,,,0,,,61,42
10906,note_on,,,,,8,0,1,,,,,0,,,75,27
10914,note_on,,,,,8,0,1,,,,,0,,,61,0
10915,note_on,,,,,1,0,1,,,,,0,,,75,0
10937,note_on,,,,,22,0,1,,,,,0,,,73,42
10943,note_on,,,,,6,0,1,,,,,0,,,66,28
10953,note_on,,,,,10,0,1,,,,,0,,,66,0
10958,note_on,,,,,5,0,1,,,,,0,,,73,0
10981,note_on,,,,,23,0,1,,,,,0,,,75,29
10982,note_on,,,,,1,0,1,,,,,0,,,70,30
10991,note_on,,,,,0,0,1,,,,,0,,,75,0
10991,note_on,,,,,9,0,1,,,,,0,,,70,0
11014,note_on,,,,,23,0,1,,,,,0,,,73,46
11036,note_on,,,,,22,0,1,,,,,0,,,73,0
11057,note_on,,,,,21,0,1,,,,,0,,,70,32
11060,note_on,,,,,3,0,1,,,,,0,,,75,29
11069,note_on,,,,,9,0,1,,,,,0,,,75,0
11073,note_on,,,,,4,0,1,,,,,0,,,70,0
11094,note_on,,,,,21,0,1,,,,,0,,,73,51
11094,note_on,,,,,0,0,1,,,,,0,,,66,40
11123,note_on,,,,,0,0,1,,,,,0,,,73,0
11123,note_on,,,,,29,0,1,,,,,0,,,66,0
11135,note_on,,,,,12,0,1,,,,,0,,,61,46
11138,note_on,,,,,3,0,1,,,,,0,,,75,47
11144,control_change,,,,,6,0,1,,,,,0,64,0,,
11148,note_on,,,,,4,0,1,,,,,0,,,61,0
11152,note_on,,,,,4,0,1,,,,,0,,,41,48
11164,note_on,,,,,12,0,1,,,,,0,,,41,0
11173,control_change,,,,,9,0,1,,,,,0,64,104,,
11177,control_change,,,,,4,0,1,,,,,0,64,127,,
11185,note_on,,,,,8,0,1,,,,,0,,,75,0
11197,note_on,,,,,12,0,1,,,,,0,,,58,73
11231,note_on,,,,,0,0,1,,,,,0,,,62,45
11231,note_on,,,,,34,0,1,,,,,0,,,74,60
11256,note_on,,,,,25,0,1,,,,,0,,,62,0
11256,note_on,,,,,0,0,1,,,,,0,,,74,0
11271,note_on,,,,,15,0,1,,,,,0,,,75,56
11278,note_on,,,,,7,0,1,,,,,0,,,68,41
11288,note_on,,,,,0,0,1,,,,,0,,,75,0
11288,note_on,,,,,10,0,1,,,,,0,,,68,0
11310,note_on,,,,,0,0,1,,,,,0,,,70,45
11310,note_on,,,,,22,0,1,,,,,0,,,74,58
11336,note_on,,,,,26,0,1,,,,,0,,,70,0
11336,note_on,,,,,0,0,1,,,,,0,,,74,0
11346,note_on,,,,,10,0,1,,,,,0,,,58,0
11347,note_on,,,,,1,0,1,,,,,0,,,59,78
11352,note_on,,,,,5,0,1,,,,,0,,,75,59
11365,note_on,,,,,13,0,1,,,,,0,,,68,34
11375,note_on,,,,,0,0,1,,,,,0,,,75,0
11375,note_on,,,,,10,0,1,,,,,0,,,68,0
11396,note_on,,,,,0,0,1,,,,,0,,,70,42
11396,note_on,,,,,21,0,1,,,,,0,,,74,56
11423,note_on,,,,,0,0,1,,,,,0,,,74,0
11423,note_on,,,,,27,0,1,,,,,0,,,70,0
11442,note_on,,,,,19,0,1,,,,,0,,,75,48
11446,note_on,,,,,4,0,1,,,,,0,,,68,31
11447,note_on,,,,,1,0,1,,,,,0,,,59,0
11462,note_on,,,,,15,0,1,,,,,0,,,75,0
11464,note_on,,,,,2,0,1,,,,,0,,,68,0
11469,note_on,,,,,5,0,1,,,,,0,,,58,71
11484,note_on,,,,,15,0,1,,,,,0,,,58,0
11512,note_on,,,,,28,0,1,,,,,0,,,39,60
11516,control_change,,,,,4,0,1,,,,,0,64,56,,
11520,control_change,,,,,4,0,1,,,,,0,64,0,,
11527,note_on,,,,,7,0,1,,,,,0,,,39,0
11540,control_change,,,,,13,0,1,,,,,0,64,127,,
11545,note_on,,,,,5,0,1,,,,,0,,,58,74
11557,note_on,,,,,12,0,1,,,,,0,,,58,0
11576,note_on,,,,,0,0,1,,,,,0,,,63,50
11576,note_on,,,,,19,0,1,,,,,0,,,75,65
11584,note_on,,,,,8,0,1,,,,,0,,,63,0
11606,note_on,,,,,22,0,1,,,,,0,,,75,0
11620,note_on,,,,,0,0,1,,,,,0,,,66,38
11620,note_on,,,,,14,0,1,,,,,0,,,77,66
11638,note_on,,,,,0,0,1,,,,,0,,,77,0
11638,note_on,,,,,18,0,1,,,,,0,,,66,0
11660,note_on,,,,,0,0,1,,,,,0,,,70,38
11660,note_on,,,,,22,0,1,,,,,0,,,75,57
11668,note_on,,,,,8,0,1,,,,,0,,,70,0
11689,note_on,,,,,21,0,1,,,,,0,,,75,0
11696,note_on,,,,,7,0,1,,,,,0,,,77,54
11700,note_on,,,,,4,0,1,,,,,0,,,66,40
11710,note_on,,,,,10,0,1,,,,,0,,,66,0
11712,note_on,,,,,2,0,1,,,,,0,,,77,0
11731,note_on,,,,,19,0,1,,,,,0,,,75,57
11731,note_on,,,,,0,0,1,,,,,0,,,70,40
11764,note_on,,,,,33,0,1,,,,,0,,,70,0
11764,note_on,,,,,0,0,1,,,,,0,,,75,0
11774,note_on,,,,,10,0,1,,,,,0,,,77,67
11775,note_on,,,,,1,0,1,,,,,0,,,57,71
11778,note_on,,,,,3,0,1,,,,,0,,,66,40
11788,note_on,,,,,10,0,1,,,,,0,,,57,0
11791,note_on,,,,,3,0,1,,,,,0,,,66,0
11793,note_on,,,,,2,0,1,,,,,0,,,77,0
11820,note_on,,,,,27,0,1,,,,,0,,,63,43
11822,note_on,,,,,2,0,1,,,,,0,,,75,45
11832,note_on,,,,,10,0,1,,,,,0,,,63,0
11841,control_change,,,,,9,0,1,,,,,0,64,0,,
11843,note_on,,,,,2,0,1,,,,,0,,,75,0
11852,note_on,,,,,9,0,1,,,,,0,,,38,59
11859,note_on,,,,,7,0,1,,,,,0,,,38,0
11870,control_change,,,,,11,0,1,,,,,0,64,72,,
11874,control_change,,,,,4,0,1,,,,,0,64,127,,
11886,note_on,,,,,12,0,1,,,,,0,,,58,76
11900,note_on,,,,,14,0,1,,,,,0,,,58,0
11919,note_on,,,,,19,0,1,,,,,0,,,77,61
11922,note_on,,,,,3,0,1,,,,,0,,,65,39
11931,note_on,,,,,9,0,1,,,,,0,,,65,0
11947,note_on,,,,,16,0,1,,,,,0,,,77,0
11962,note_on,,,,,15,0,1,,,,,0,,,68,48
11963,note_on,,,,,1,0,1,,,,,0,,,78,52
11981,note_on,,,,,0,0,1,,,,,0,,,68,0
11981,note_on,,,,,18,0,1,,,,,0,,,78,0
11999,note_on,,,,,0,0,1,,,,,0,,,70,50
11999,note_on,,,,,18,0,1,,,,,0,,,77,63
12038,note_on,,,,,0,0,1,,,,,0,,,77,0
12038,note_on,,,,,39,0,1,,,,,0,,,70,0
12047,note_on,,,,,9,0,1,,,,,0,,,66,69
12050,note_on,,,,,3,0,1,,,,,0,,,68,45
12053,note_on,,,,,3,0,1,,,,,0,,,78,45
12068,note_on,,,,,15,0,1,,,,,0,,,68,0
12074,note_on,,,,,6,0,1,,,,,0,,,78,0
12091,note_on,,,,,17,0,1,,,,,0,,,70,33
12093,note_on,,,,,2,0,1,,,,,0,,,77,62
12107,note_on,,,,,14,0,1,,,,,0,,,70,0
12128,note_on,,,,,21,0,1,,,,,0,,,68,40
12130,note_on,,,,,2,0,1,,,,,0,,,77,0
12132,note_on,,,,,2,0,1,,,,,0,,,78,58
12148,note_on,,,,,0,0,1,,,,,0,,,68,0
12148,note_on,,,,,16,0,1,,,,,0,,,78,0
12167,note_on,,,,,19,0,1,,,,,0,,,66,0
12167,note_on,,,,,0,0,1,,,,,0,,,65,68
12175,note_on,,,,,8,0,1,,,,,0,,,65,0
12176,note_on,,,,,1,0,1,,,,,0,,,77,56
12193,note_on,,,,,17,0,1,,,,,0,,,77,0
12209,control_change,,,,,16,0,1,,,,,0,64,40,,
12213,control_change,,,,,4,0,1,,,,,0,64,0,,
12215,note_on,,,,,2,0,1,,,,,0,,,39,57
12232,note_on,,,,,17,0,1,,,,,0,,,39,0
12233,control_change,,,,,1,0,1,,,,,0,64,88,,
12237,control_change,,,,,4,0,1,,,,,0,64,127,,
12250,note_on,,,,,13,0,1,,,,,0,,,58,58
12260,note_on,,,,,10,0,1,,,,,0,,,58,0
12283,note_on,,,,,23,0,1,,,,,0,,,66,34
12287,note_on,,,,,4,0,1,,,,,0,,,78,55
12292,note_on,,,,,5,0,1,,,,,0,,,66,0
12308,note_on,,,,,16,0,1,,,,,0,,,78,0
12326,note_on,,,,,18,0,1,,,,,0,,,80,57
12328,note_on,,,,,2,0,1,,,,,0,,,70,44
12342,note_on,,,,,14,0,1,,,,,0,,,70,0
12343,note_on,,,,,1,0,1,,,,,0,,,80,0
12368,note_on,,,,,25,0,1,,,,,0,,,78,52
12370,note_on,,,,,2,0,1,,,,,0,,,75,44
12388,note_on,,,,,18,0,1,,,,,0,,,78,0
12390,note_on,,,,,2,0,1,,,,,0,,,75,0
12406,note_on,,,,,16,0,1,,,,,0,,,80,58
12411,note_on,,,,,5,0,1,,,,,0,,,70,32
12426,note_on,,,,,15,0,1,,,,,0,,,70,0
12428,note_on,,,,,2,0,1,,,,,0,,,80,0
12449,note_on,,,,,21,0,1,,,,,0,,,78,60
12453,note_on,,,,,4,0,1,,,,,0,,,75,36
12461,note_on,,,,,8,0,1,,,,,0,,,75,0
12469,note_on,,,,,8,0,1,,,,,0,,,78,0
12486,note_on,,,,,17,0,1,,,,,0,,,58,54
12492,note_on,,,,,6,0,1,,,,,0,,,80,64
12500,note_on,,,,,8,0,1,,,,,0,,,70,37
12501,note_on,,,,,1,0,1,,,,,0,,,58,0
12508,note_on,,,,,7,0,1,,,,,0,,,70,0
12513,note_on,,,,,5,0,1,,,,,0,,,80,0
12523,control_change,,,,,10,0,1,,,,,0,64,72,,
12528,control_change,,,,,5,0,1,,,,,0,64,0,,
12531,note_on,,,,,3,0,1,,,,,0,,,78,60
12536,note_on,,,,,5,0,1,,,,,0,,,37,42
12538,note_on,,,,,2,0,1,,,,,0,,,66,57
12540,control_change,,,,,2,0,1,,,,,0,64,56,,
12544,control_change,,,,,4,0,1,,,,,0,64,127,,
12550,note_on,,,,,6,0,1,,,,,0,,,37,0
12554,note_on,,,,,4,0,1,,,,,0,,,66,0
12561,note_on,,,,,7,0,1,,,,,0,,,78,0
12575,note_on,,,,,14,0,1,,,,,0,,,58,65
12590,note_on,,,,,15,0,1,,,,,0,,,58,0
12614,note_on,,,,,24,0,1,,,,,0,,,77,63
12623,note_on,,,,,9,0,1,,,,,0,,,65,44
12630,note_on,,,,,7,0,1,,,,,0,,,65,0
12643,note_on,,,,,13,0,1,,,,,0,,,77,0
12654,note_on,,,,,11,0,1,,,,,0,,,70,55
12655,note_on,,,,,1,0,1,,,,,0,,,78,56
12670,note_on,,,,,15,0,1,,,,,0,,,78,0
12670,note_on,,,,,0,0,1,,,,,0,,,70,0
12691,note_on,,,,,0,0,1,,,,,0,,,65,46
12691,note_on,,,,,21,0,1,,,,,0,,,77,70
12697,control_change,,,,,6,0,1,,,,,0,64,104,,
12701,control_change,,,,,4,0,1,,,,,0,64,0,,
12707,note_on,,,,,6,0,1,,,,,0,,,42,57
12725,note_on,,,,,18,0,1,,,,,0,,,65,0
12725,note_on,,,,,0,0,1,,,,,0,,,77,0
12726,note_on,,,,,1,0,1,,,,,0,,,42,0
12730,control_change,,,,,4,0,1,,,,,0,64,56,,
12734,control_change,,,,,4,0,1,,,,,0,64,127,,
12748,note_on,,,,,14,0,1,,,,,0,,,60,68
12755,note_on,,,,,7,0,1,,,,,0,,,70,47
12767,note_on,,,,,12,0,1,,,,,0,,,60,0
12777,note_on,,,,,10,0,1,,,,,0,,,70,0
12798,note_on,,,,,0,0,1,,,,,0,,,63,46
12798,note_on,,,,,21,0,1,,,,,0,,,75,62
12815,note_on,,,,,17,0,1,,,,,0,,,63,0
12827,note_on,,,,,12,0,1,,,,,0,,,75,0
12843,note_on,,,,,16,0,1,,,,,0,,,77,57
12850,note_on,,,,,7,0,1,,,,,0,,,70,43
12854,note_on,,,,,4,0,1,,,,,0,,,77,0
12861,note_on,,,,,7,0,1,,,,,0,,,70,0
12884,note_on,,,,,23,0,1,,,,,0,,,75,53
12884,note_on,,,,,0,0,1,,,,,0,,,63,40
12914,note_on,,,,,30,0,1,,,,,0,,,63,0
12914,note_on,,,,,0,0,1,,,,,0,,,75,0
12915,control_change,,,,,1,0,1,,,,,0,64,88,,
12916,note_on,,,,,1,0,1,,,,,0,,,41,59
12919,control_change,,,,,3,0,1,,,,,0,64,0,,
12924,note_on,,,,,5,0,1,,,,,0,,,41,0
12947,control_change,,,,,23,0,1,,,,,0,64,104,,
12951,control_change,,,,,4,0,1,,,,,0,64,127,,
12962,note_on,,,,,11,0,1,,,,,0,,,61,65
13000,note_on,,,,,0,0,1,,,,,0,,,77,62
13000,note_on,,,,,38,0,1,,,,,0,,,70,40
13027,note_on,,,,,27,0,1,,,,,0,,,77,0
13027,note_on,,,,,0,0,1,,,,,0,,,70,0
13036,note_on,,,,,9,0,1,,,,,0,,,78,53
13037,note_on,,,,,1,0,1,,,,,0,,,65,43
13052,note_on,,,,,15,0,1,,,,,0,,,65,0
13054,note_on,,,,,2,0,1,,,,,0,,,78,0
13073,note_on,,,,,19,0,1,,,,,0,,,77,63
13076,note_on,,,,,3,0,1,,,,,0,,,70,29
13089,note_on,,,,,13,0,1,,,,,0,,,70,0
13096,note_on,,,,,7,0,1,,,,,0,,,77,0
13114,note_on,,,,,18,0,1,,,,,0,,,78,44
13118,note_on,,,,,4,0,1,,,,,0,,,73,43
13128,note_on,,,,,10,0,1,,,,,0,,,73,0
13137,note_on,,,,,9,0,1,,,,,0,,,78,0
13152,note_on,,,,,15,0,1,,,,,0,,,77,54
13162,note_on,,,,,10,0,1,,,,,0,,,70,32
13174,note_on,,,,,12,0,1,,,,,0,,,70,0
13181,note_on,,,,,7,0,1,,,,,0,,,77,0
13195,note_on,,,,,14,0,1,,,,,0,,,60,70
13199,note_on,,,,,4,0,1,,,,,0,,,61,0
13205,note_on,,,,,0,0,1,,,,,0,,,78,44
13205,note_on,,,,,6,0,1,,,,,0,,,65,41
13220,note_on,,,,,15,0,1,,,,,0,,,65,0
13222,note_on,,,,,2,0,1,,,,,0,,,78,0
13244,note_on,,,,,22,0,1,,,,,0,,,77,57
13245,note_on,,,,,1,0,1,,,,,0,,,70,33
13256,note_on,,,,,11,0,1,,,,,0,,,70,0
13276,note_on,,,,,0,0,1,,,,,0,,,60,0
13276,note_on,,,,,20,0,1,,,,,0,,,77,0
13280,note_on,,,,,4,0,1,,,,,0,,,63,75
13290,control_change,,,,,10,0,1,,,,,0,64,104,,
13293,control_change,,,,,3,0,1,,,,,0,64,56,,
13298,control_change,,,,,5,0,1,,,,,0,64,40,,
13302,control_change,,,,,4,0,1,,,,,0,64,72,,
13306,control_change,,,,,4,0,1,,,,,0,64,127,,
13322,note_on,,,,,16,0,1,,,,,0,,,70,43
13324,note_on,,,,,2,0,1,,,,,0,,,77,50
13340,note_on,,,,,16,0,1,,,,,0,,,70,0
13345,note_on,,,,,5,0,1,,,,,0,,,77,0
13358,note_on,,,,,13,0,1,,,,,0,,,61,70
13363,note_on,,,,,5,0,1,,,,,0,,,65,48
13365,note_on,,,,,2,0,1,,,,,0,,,78,43
13367,note_on,,,,,2,0,1,,,,,0,,,63,0
13381,note_on,,,,,14,0,1,,,,,0,,,65,0
13383,note_on,,,,,2,0,1,,,,,0,,,78,0
13401,note_on,,,,,18,0,1,,,,,0,,,70,54
13404,note_on,,,,,3,0,1,,,,,0,,,77,59
13424,note_on,,,,,20,0,1,,,,,0,,,70,0
13425,note_on,,,,,1,0,1,,,,,0,,,77,0
13436,note_on,,,,,11,0,1,,,,,0,,,61,0
13442,note_on,,,,,6,0,1,,,,,0,,,53,64
13446,note_on,,,,,4,0,1,,,,,0,,,78,50
13448,note_on,,,,,2,0,1,,,,,0,,,73,49
13464,note_on,,,,,16,0,1,,,,,0,,,73,0
13465,note_on,,,,,1,0,1,,,,,0,,,78,0
13481,note_on,,,,,16,0,1,,,,,0,,,77,65
13486,note_on,,,,,5,0,1,,,,,0,,,70,40
13503,note_on,,,,,17,0,1,,,,,0,,,70,0
13514,note_on,,,,,11,0,1,,,,,0,,,77,0
13524,note_on,,,,,10,0,1,,,,,0,,,58,63
13525,note_on,,,,,1,0,1,,,,,0,,,65,56
13530,note_on,,,,,5,0,1,,,,,0,,,53,0
13530,note_on,,,,,0,0,1,,,,,0,,,78,57
13543,note_on,,,,,13,0,1,,,,,0,,,65,0
13544,note_on,,,,,1,0,1,,,,,0,,,78,0
13568,note_on,,,,,24,0,1,,,,,0,,,77,64
13572,note_on,,,,,4,0,1,,,,,0,,,70,30
13580,note_on,,,,,8,0,1,,,,,0,,,70,0
13592,note_on,,,,,12,0,1,,,,,0,,,77,0
13601,note_on,,,,,9,0,1,,,,,0,,,58,0
13607,note_on,,,,,6,0,1,,,,,0,,,57,64
13613,control_change,,,,,6,0,1,,,,,0,64,88,,
13617,control_change,,,,,4,0,1,,,,,0,64,0,,
13643,note_on,,,,,26,0,1,,,,,0,,,65,52
13648,note_on,,,,,5,0,1,,,,,0,,,77,61
13649,control_change,,,,,1,0,1,,,,,0,64,72,,
13653,control_change,,,,,0,0,1,,,,,0,64,127,,
13653,note_on,,,,,4,0,1,,,,,0,,,65,0
13670,note_on,,,,,17,0,1,,,,,0,,,77,0
13686,note_on,,,,,16,0,1,,,,,0,,,78,60
13692,note_on,,,,,6,0,1,,,,,0,,,69,39
13702,note_on,,,,,10,0,1,,,,,0,,,69,0
13707,note_on,,,,,5,0,1,,,,,0,,,78,0
13729,note_on,,,,,22,0,1,,,,,0,,,77,55
13729,note_on,,,,,0,0,1,,,,,0,,,72,40
13754,note_on,,,,,25,0,1,,,,,0,,,72,0
13754,note_on,,,,,0,0,1,,,,,0,,,77,0
13758,note_on,,,,,4,0,1,,,,,0,,,57,0
13766,note_on,,,,,8,0,1,,,,,0,,,60,70
13770,note_on,,,,,0,0,1,,,,,0,,,75,45
13770,note_on,,,,,4,0,1,,,,,0,,,78,53
13789,note_on,,,,,0,0,1,,,,,0,,,78,0
13789,note_on,,,,,19,0,1,,,,,0,,,75,0
13810,note_on,,,,,0,0,1,,,,,0,,,72,45
13810,note_on,,,,,21,0,1,,,,,0,,,77,63
13843,note_on,,,,,33,0,1,,,,,0,,,72,0
13843,note_on,,,,,0,0,1,,,,,0,,,77,0
13855,note_on,,,,,12,0,1,,,,,0,,,78,54
13859,note_on,,,,,4,0,1,,,,,0,,,69,48
13871,note_on,,,,,12,0,1,,,,,0,,,69,0
13876,note_on,,,,,5,0,1,,,,,0,,,78,0
13900,note_on,,,,,24,0,1,,,,,0,,,77,56
13900,note_on,,,,,0,0,1,,,,,0,,,72,43
13904,note_on,,,,,4,0,1,,,,,0,,,63,65
13908,note_on,,,,,4,0,1,,,,,0,,,60,0
13915,note_on,,,,,7,0,1,,,,,0,,,77,0
13915,note_on,,,,,0,0,1,,,,,0,,,72,0
14004,note_on,,,,,89,0,1,,,,,0,,,63,0
14008,note_on,,,,,4,0,1,,,,,0,,,66,64
14068,control_change,,,,,60,0,1,,,,,0,64,56,,
14072,control_change,,,,,4,0,1,,,,,0,64,0,,
14101,control_change,,,,,29,0,1,,,,,0,64,88,,
14105,control_change,,,,,4,0,1,,,,,0,64,127,,
14148,note_on,,,,,43,0,1,,,,,0,,,66,0
14262,note_on,,,,,114,0,1,,,,,0,,,65,57
14298,control_change,,,,,36,0,1,,,,,0,64,72,,
14302,control_change,,,,,4,0,1,,,,,0,64,0,,
14307,note_on,,,,,5,0,1,,,,,0,,,46,48
14326,note_on,,,,,19,0,1,,,,,0,,,65,0
14330,control_change,,,,,4,0,1,,,,,0,64,127,,
14347,note_on,,,,,17,0,1,,,,,0,,,46,0
14390,note_on,,,,,43,0,1,,,,,0,,,61,44
14401,note_on,,,,,11,0,1,,,,,0,,,65,70
14415,note_on,,,,,14,0,1,,,,,0,,,61,0
14419,note_on,,,,,4,0,1,,,,,0,,,65,0
14475,note_on,,,,,56,0,1,,,,,0,,,77,60
14478,note_on,,,,,3,0,1,,,,,0,,,70,22
14492,note_on,,,,,14,0,1,,,,,0,,,70,0
14499,note_on,,,,,7,0,1,,,,,0,,,77,0
14516,note_on,,,,,17,0,1,,,,,0,,,78,47
14519,note_on,,,,,3,0,1,,,,,0,,,73,46
14539,note_on,,,,,20,0,1,,,,,0,,,78,0
14542,note_on,,,,,3,0,1,,,,,0,,,73,0
14556,note_on,,,,,14,0,1,,,,,0,,,70,46
14558,note_on,,,,,2,0,1,,,,,0,,,77,66
14574,note_on,,,,,16,0,1,,,,,0,,,70,0
14578,note_on,,,,,4,0,1,,,,,0,,,77,0
14599,note_on,,,,,21,0,1,,,,,0,,,80,62
14600,note_on,,,,,1,0,1,,,,,0,,,73,57
14614,note_on,,,,,14,0,1,,,,,0,,,80,0
14617,note_on,,,,,3,0,1,,,,,0,,,73,0
14641,note_on,,,,,0,0,1,,,,,0,,,70,42
14641,note_on,,,,,24,0,1,,,,,0,,,78,62
14655,note_on,,,,,0,0,1,,,,,0,,,78,0
14655,note_on,,,,,14,0,1,,,,,0,,,70,0
14678,note_on,,,,,23,0,1,,,,,0,,,78,50
14678,note_on,,,,,0,0,1,,,,,0,,,73,40
14694,note_on,,,,,0,0,1,,,,,0,,,78,0
14694,note_on,,,,,16,0,1,,,,,0,,,73,0
14717,note_on,,,,,0,0,1,,,,,0,,,70,40
14717,note_on,,,,,23,0,1,,,,,0,,,77,66
14727,note_on,,,,,0,0,1,,,,,0,,,77,0
14727,note_on,,,,,10,0,1,,,,,0,,,70,0
14756,note_on,,,,,29,0,1,,,,,0,,,75,64
14764,note_on,,,,,8,0,1,,,,,0,,,70,36
14772,note_on,,,,,8,0,1,,,,,0,,,70,0
14779,note_on,,,,,7,0,1,,,,,0,,,75,0
14798,note_on,,,,,0,0,1,,,,,0,,,65,48
14798,note_on,,,,,19,0,1,,,,,0,,,73,54
14810,note_on,,,,,12,0,1,,,,,0,,,65,0
14816,note_on,,,,,6,0,1,,,,,0,,,73,0
14837,note_on,,,,,21,0,1,,,,,0,,,70,52
14838,note_on,,,,,1,0,1,,,,,0,,,77,63
14849,note_on,,,,,11,0,1,,,,,0,,,77,0
14856,note_on,,,,,7,0,1,,,,,0,,,70,0
14874,note_on,,,,,18,0,1,,,,,0,,,73,60
14880,note_on,,,,,6,0,1,,,,,0,,,65,38
14890,note_on,,,,,10,0,1,,,,,0,,,73,0
14892,note_on,,,,,2,0,1,,,,,0,,,65,0
14917,note_on,,,,,25,0,1,,,,,0,,,72,60
14917,note_on,,,,,0,0,1,,,,,0,,,65,42
14926,note_on,,,,,0,0,1,,,,,0,,,72,0
14926,note_on,,,,,9,0,1,,,,,0,,,65,0
14954,note_on,,,,,28,0,1,,,,,0,,,70,62
14955,note_on,,,,,1,0,1,,,,,0,,,61,53
14971,note_on,,,,,16,0,1,,,,,0,,,61,0
14977,note_on,,,,,6,0,1,,,,,0,,,70,0
14994,note_on,,,,,17,0,1,,,,,0,,,73,54
15000,note_on,,,,,6,0,1,,,,,0,,,65,45
15012,note_on,,,,,0,0,1,,,,,0,,,73,0
15012,note_on,,,,,12,0,1,,,,,0,,,65,0
15031,note_on,,,,,19,0,1,,,,,0,,,70,58
15035,note_on,,,,,4,0,1,,,,,0,,,61,42
15048,note_on,,,,,13,0,1,,,,,0,,,70,0
15051,note_on,,,,,3,0,1,,,,,0,,,61,0
15075,note_on,,,,,24,0,1,,,,,0,,,66,50
15077,note_on,,,,,2,0,1,,,,,0,,,61,37
15087,note_on,,,,,10,0,1,,,,,0,,,61,0
15096,note_on,,,,,9,0,1,,,,,0,,,66,0
15115,note_on,,,,,19,0,1,,,,,0,,,65,53
15116,note_on,,,,,1,0,1,,,,,0,,,58,28
15135,note_on,,,,,19,0,1,,,,,0,,,58,0
15137,note_on,,,,,2,0,1,,,,,0,,,65,0
15154,note_on,,,,,17,0,1,,,,,0,,,66,50
15158,note_on,,,,,4,0,1,,,,,0,,,61,38
15170,note_on,,,,,12,0,1,,,,,0,,,61,0
15174,note_on,,,,,4,0,1,,,,,0,,,66,0
15195,note_on,,,,,21,0,1,,,,,0,,,65,61
15197,note_on,,,,,2,0,1,,,,,0,,,58,33
15211,note_on,,,,,14,0,1,,,,,0,,,58,0
15216,note_on,,,,,5,0,1,,,,,0,,,65,0
15236,note_on,,,,,20,0,1,,,,,0,,,68,60
15238,note_on,,,,,2,0,1,,,,,0,,,61,40
15248,note_on,,,,,10,0,1,,,,,0,,,68,0
15251,note_on,,,,,3,0,1,,,,,0,,,61,0
15277,note_on,,,,,26,0,1,,,,,0,,,66,56
15279,note_on,,,,,2,0,1,,,,,0,,,58,33
15292,note_on,,,,,13,0,1,,,,,0,,,58,0
15294,note_on,,,,,2,0,1,,,,,0,,,66,0
15315,note_on,,,,,21,0,1,,,,,0,,,66,52
15326,note_on,,,,,11,0,1,,,,,0,,,61,33
15332,note_on,,,,,6,0,1,,,,,0,,,66,0
15337,note_on,,,,,5,0,1,,,,,0,,,61,0
15355,note_on,,,,,18,0,1,,,,,0,,,65,55
15358,note_on,,,,,3,0,1,,,,,0,,,58,25
15364,note_on,,,,,6,0,1,,,,,0,,,65,0
15370,note_on,,,,,6,0,1,,,,,0,,,58,0
15395,note_on,,,,,25,0,1,,,,,0,,,63,53
15418,note_on,,,,,23,0,1,,,,,0,,,63,0
15436,note_on,,,,,18,0,1,,,,,0,,,61,49
15437,note_on,,,,,1,0,1,,,,,0,,,53,42
15447,note_on,,,,,10,0,1,,,,,0,,,53,0
15456,note_on,,,,,9,0,1,,,,,0,,,61,0
15478,note_on,,,,,22,0,1,,,,,0,,,65,47
15480,note_on,,,,,2,0,1,,,,,0,,,58,29
15489,note_on,,,,,9,0,1,,,,,0,,,65,0
15494,note_on,,,,,5,0,1,,,,,0,,,58,0
15519,note_on,,,,,0,0,1,,,,,0,,,53,38
15519,note_on,,,,,25,0,1,,,,,0,,,61,47
15532,note_on,,,,,13,0,1,,,,,0,,,53,0
15532,note_on,,,,,0,0,1,,,,,0,,,61,0
15567,note_on,,,,,0,0,1,,,,,0,,,53,35
15567,note_on,,,,,35,0,1,,,,,0,,,60,51
15580,note_on,,,,,13,0,1,,,,,0,,,53,0
15580,note_on,,,,,0,0,1,,,,,0,,,60,0
15610,note_on,,,,,30,0,1,,,,,0,,,58,48
15610,note_on,,,,,0,0,1,,,,,0,,,49,33
15636,note_on,,,,,0,0,1,,,,,0,,,58,0
15636,note_on,,,,,26,0,1,,,,,0,,,49,0
15662,note_on,,,,,26,0,1,,,,,0,,,61,46
15662,note_on,,,,,0,0,1,,,,,0,,,53,33
15687,note_on,,,,,25,0,1,,,,,0,,,53,0
15687,note_on,,,,,0,0,1,,,,,0,,,61,0
15715,note_on,,,,,0,0,1,,,,,0,,,49,30
15715,note_on,,,,,28,0,1,,,,,0,,,58,44
15740,note_on,,,,,0,0,1,,,,,0,,,58,0
15740,note_on,,,,,25,0,1,,,,,0,,,49,0
15802,note_on,,,,,62,0,1,,,,,0,,,56,56
15843,control_change,,,,,41,0,1,,,,,0,64,56,,
15847,control_change,,,,,4,0,1,,,,,0,64,0,,
15850,note_on,,,,,3,0,1,,,,,0,,,53,55
15882,note_on,,,,,32,0,1,,,,,0,,,53,0
15891,control_change,,,,,9,0,1,,,,,0,64,24,,
15891,note_on,,,,,0,0,1,,,,,0,,,49,35
15895,control_change,,,,,4,0,1,,,,,0,64,88,,
15897,note_on,,,,,2,0,1,,,,,0,,,35,40
15899,control_change,,,,,2,0,1,,,,,0,64,127,,
15915,note_on,,,,,16,0,1,,,,,0,,,49,0
15938,note_on,,,,,23,0,1,,,,,0,,,53,36
15958,note_on,,,,,20,0,1,,,,,0,,,53,0
15975,note_on,,,,,17,0,1,,,,,0,,,35,0
15978,note_on,,,,,3,0,1,,,,,0,,,49,26
15978,note_on,,,,,0,0,1,,,,,0,,,41,37
15990,note_on,,,,,12,0,1,,,,,0,,,49,0
16017,note_on,,,,,27,0,1,,,,,0,,,53,47
16041,note_on,,,,,24,0,1,,,,,0,,,53,0
16043,note_on,,,,,2,0,1,,,,,0,,,41,0
16054,note_on,,,,,0,0,1,,,,,0,,,44,35
16054,note_on,,,,,11,0,1,,,,,0,,,49,32
16083,note_on,,,,,29,0,1,,,,,0,,,49,0
16093,note_on,,,,,0,0,1,,,,,0,,,53,51
16093,note_on,,,,,10,0,1,,,,,0,,,44,0
16102,note_on,,,,,9,0,1,,,,,0,,,53,0
16106,note_on,,,,,4,0,1,,,,,0,,,56,0
16146,note_on,,,,,40,0,1,,,,,0,,,63,69
16188,note_on,,,,,42,0,1,,,,,0,,,56,46
16190,control_change,,,,,2,0,1,,,,,0,64,40,,
16194,control_change,,,,,4,0,1,,,,,0,64,0,,
16220,note_on,,,,,26,0,1,,,,,0,,,56,0
16226,note_on,,,,,6,0,1,,,,,0,,,35,59
16230,control_change,,,,,4,0,1,,,,,0,64,104,,
16232,note_on,,,,,2,0,1,,,,,0,,,53,34
16234,control_change,,,,,2,0,1,,,,,0,64,127,,
16253,note_on,,,,,19,0,1,,,,,0,,,53,0
16255,note_on,,,,,2,0,1,,,,,0,,,35,0
16268,note_on,,,,,13,0,1,,,,,0,,,56,43
16298,note_on,,,,,30,0,1,,,,,0,,,56,0
16310,note_on,,,,,12,0,1,,,,,0,,,53,44
16314,note_on,,,,,4,0,1,,,,,0,,,44,33
16334,note_on,,,,,20,0,1,,,,,0,,,53,0
16348,note_on,,,,,14,0,1,,,,,0,,,56,49
16366,note_on,,,,,18,0,1,,,,,0,,,63,0
16373,note_on,,,,,7,0,1,,,,,0,,,56,0
16373,note_on,,,,,0,0,1,,,,,0,,,44,0
16394,note_on,,,,,21,0,1,,,,,0,,,63,77
16397,note_on,,,,,3,0,1,,,,,0,,,49,40
16426,note_on,,,,,29,0,1,,,,,0,,,49,0
16443,note_on,,,,,17,0,1,,,,,0,,,56,44
16449,note_on,,,,,6,0,1,,,,,0,,,63,0
16466,note_on,,,,,17,0,1,,,,,0,,,56,0
16492,note_on,,,,,26,0,1,,,,,0,,,63,70
16528,control_change,,,,,36,0,1,,,,,0,64,56,,
16532,control_change,,,,,4,0,1,,,,,0,64,0,,
16536,note_on,,,,,4,0,1,,,,,0,,,55,43
16560,note_on,,,,,24,0,1,,,,,0,,,55,0
16569,control_change,,,,,9,0,1,,,,,0,64,104,,
16572,note_on,,,,,3,0,1,,,,,0,,,52,46
16573,control_change,,,,,1,0,1,,,,,0,64,127,,
16576,note_on,,,,,3,0,1,,,,,0,,,34,49
16594,note_on,,,,,18,0,1,,,,,0,,,52,0
16606,note_on,,,,,12,0,1,,,,,0,,,34,0
16616,note_on,,,,,10,0,1,,,,,0,,,55,38
16638,note_on,,,,,22,0,1,,,,,0,,,55,0
16653,note_on,,,,,15,0,1,,,,,0,,,52,33
16662,note_on,,,,,9,0,1,,,,,0,,,43,43
16670,note_on,,,,,8,0,1,,,,,0,,,52,0
16693,note_on,,,,,23,0,1,,,,,0,,,55,45
16711,note_on,,,,,18,0,1,,,,,0,,,43,0
16721,note_on,,,,,10,0,1,,,,,0,,,55,0
16732,note_on,,,,,11,0,1,,,,,0,,,52,48
16738,note_on,,,,,6,0,1,,,,,0,,,49,38
16757,note_on,,,,,19,0,1,,,,,0,,,49,0
16769,note_on,,,,,12,0,1,,,,,0,,,52,0
16774,note_on,,,,,5,0,1,,,,,0,,,55,51
16798,note_on,,,,,24,0,1,,,,,0,,,63,0
16806,note_on,,,,,8,0,1,,,,,0,,,55,0
16816,note_on,,,,,10,0,1,,,,,0,,,61,61
16843,control_change,,,,,27,0,1,,,,,0,64,104,,
16847,control_change,,,,,4,0,1,,,,,0,64,24,,
16851,control_change,,,,,4,0,1,,,,,0,64,0,,
16862,note_on,,,,,11,0,1,,,,,0,,,55,46
16887,control_change,,,,,25,0,1,,,,,0,64,40,,
16891,control_change,,,,,4,0,1,,,,,0,64,104,,
16892,note_on,,,,,1,0,1,,,,,0,,,55,0
16895,control_change,,,,,3,0,1,,,,,0,64,127,,
16896,note_on,,,,,1,0,1,,,,,0,,,33,55
16902,note_on,,,,,6,0,1,,,,,0,,,52,47
16918,note_on,,,,,16,0,1,,,,,0,,,33,0
16922,note_on,,,,,4,0,1,,,,,0,,,52,0
16943,note_on,,,,,21,0,1,,,,,0,,,55,45
16966,note_on,,,,,23,0,1,,,,,0,,,55,0
16980,note_on,,,,,14,0,1,,,,,0,,,52,40
16986,note_on,,,,,6,0,1,,,,,0,,,43,43
17001,note_on,,,,,15,0,1,,,,,0,,,52,0
17017,note_on,,,,,16,0,1,,,,,0,,,55,50
17029,note_on,,,,,12,0,1,,,,,0,,,61,0
17032,note_on,,,,,3,0,1,,,,,0,,,43,0
17042,note_on,,,,,10,0,1,,,,,0,,,55,0
17057,note_on,,,,,15,0,1,,,,,0,,,60,68
17060,note_on,,,,,3,0,1,,,,,0,,,52,46
17062,note_on,,,,,2,0,1,,,,,0,,,49,37
17079,note_on,,,,,17,0,1,,,,,0,,,49,0
17096,note_on,,,,,17,0,1,,,,,0,,,52,0
17097,note_on,,,,,1,0,1,,,,,0,,,55,63
17110,note_on,,,,,13,0,1,,,,,0,,,60,0
17128,note_on,,,,,18,0,1,,,,,0,,,55,0
17137,note_on,,,,,9,0,1,,,,,0,,,61,70
17178,control_change,,,,,41,0,1,,,,,0,64,88,,
17182,control_change,,,,,4,0,1,,,,,0,64,0,,
17182,note_on,,,,,0,0,1,,,,,0,,,59,52
17212,note_on,,,,,30,0,1,,,,,0,,,59,0
17214,control_change,,,,,2,0,1,,,,,0,64,56,,
17214,note_on,,,,,0,0,1,,,,,0,,,32,48
17218,control_change,,,,,4,0,1,,,,,0,64,127,,
17221,note_on,,,,,3,0,1,,,,,0,,,53,41
17240,note_on,,,,,19,0,1,,,,,0,,,32,0
17244,note_on,,,,,4,0,1,,,,,0,,,53,0
17254,note_on,,,,,10,0,1,,,,,0,,,59,45
17261,note_on,,,,,7,0,1,,,,,0,,,37,43
17267,note_on,,,,,6,0,1,,,,,0,,,61,0
17278,note_on,,,,,11,0,1,,,,,0,,,59,0
17282,note_on,,,,,4,0,1,,,,,0,,,37,0
17292,note_on,,,,,10,0,1,,,,,0,,,63,77
17298,note_on,,,,,0,0,1,,,,,0,,,53,48
17298,note_on,,,,,6,0,1,,,,,0,,,47,44
17308,note_on,,,,,10,0,1,,,,,0,,,53,0
17326,note_on,,,,,18,0,1,,,,,0,,,47,0
17335,note_on,,,,,9,0,1,,,,,0,,,59,57
17361,note_on,,,,,26,0,1,,,,,0,,,59,0
17374,note_on,,,,,13,0,1,,,,,0,,,53,37
17389,note_on,,,,,15,0,1,,,,,0,,,63,0
17393,note_on,,,,,4,0,1,,,,,0,,,53,0
17410,note_on,,,,,17,0,1,,,,,0,,,59,66
17438,note_on,,,,,28,0,1,,,,,0,,,59,0
17449,note_on,,,,,11,0,1,,,,,0,,,65,77
17472,control_change,,,,,23,0,1,,,,,0,64,56,,
17476,control_change,,,,,4,0,1,,,,,0,64,0,,
17491,note_on,,,,,15,0,1,,,,,0,,,59,52
17508,control_change,,,,,17,0,1,,,,,0,64,127,,
17509,note_on,,,,,1,0,1,,,,,0,,,30,50
17521,note_on,,,,,12,0,1,,,,,0,,,59,0
17534,note_on,,,,,13,0,1,,,,,0,,,30,0
17536,note_on,,,,,2,0,1,,,,,0,,,54,51
17543,note_on,,,,,7,0,1,,,,,0,,,65,0
17550,note_on,,,,,7,0,1,,,,,0,,,37,51
17560,note_on,,,,,10,0,1,,,,,0,,,54,0
17577,note_on,,,,,17,0,1,,,,,0,,,59,62
17580,note_on,,,,,3,0,1,,,,,0,,,37,0
17599,note_on,,,,,19,0,1,,,,,0,,,47,48
17606,note_on,,,,,7,0,1,,,,,0,,,59,0
17613,note_on,,,,,7,0,1,,,,,0,,,66,75
17615,note_on,,,,,2,0,1,,,,,0,,,54,67
17637,note_on,,,,,22,0,1,,,,,0,,,54,0
17641,note_on,,,,,4,0,1,,,,,0,,,47,0
17656,note_on,,,,,15,0,1,,,,,0,,,66,0
17664,note_on,,,,,8,0,1,,,,,0,,,59,57
17679,note_on,,,,,15,0,1,,,,,0,,,49,47
17690,note_on,,,,,11,0,1,,,,,0,,,54,67
17701,note_on,,,,,11,0,1,,,,,0,,,49,0
17725,note_on,,,,,24,0,1,,,,,0,,,63,65
17745,note_on,,,,,20,0,1,,,,,0,,,54,0
17749,note_on,,,,,4,0,1,,,,,0,,,59,0
17760,note_on,,,,,11,0,1,,,,,0,,,71,75
17780,note_on,,,,,20,0,1,,,,,0,,,63,0
17815,note_on,,,,,35,0,1,,,,,0,,,71,0
17830,note_on,,,,,15,0,1,,,,,0,,,70,67
17861,control_change,,,,,31,0,1,,,,,0,64,88,,
17865,control_change,,,,,4,0,1,,,,,0,64,0,,
17877,note_on,,,,,12,0,1,,,,,0,,,61,46
17902,control_change,,,,,25,0,1,,,,,0,64,56,,
17904,note_on,,,,,2,0,1,,,,,0,,,61,0
17906,control_change,,,,,2,0,1,,,,,0,64,127,,
17910,note_on,,,,,4,0,1,,,,,0,,,59,48
17917,note_on,,,,,7,0,1,,,,,0,,,29,48
17932,note_on,,,,,15,0,1,,,,,0,,,59,0
17952,note_on,,,,,20,0,1,,,,,0,,,61,43
17978,note_on,,,,,26,0,1,,,,,0,,,61,0
17986,note_on,,,,,8,0,1,,,,,0,,,29,0
17993,note_on,,,,,0,0,1,,,,,0,,,59,35
17993,note_on,,,,,7,0,1,,,,,0,,,41,27
18005,note_on,,,,,12,0,1,,,,,0,,,41,0
18016,note_on,,,,,11,0,1,,,,,0,,,59,0
18034,note_on,,,,,18,0,1,,,,,0,,,61,35
18061,note_on,,,,,27,0,1,,,,,0,,,61,0
18074,note_on,,,,,13,0,1,,,,,0,,,59,40
18082,note_on,,,,,8,0,1,,,,,0,,,44,33
18105,note_on,,,,,23,0,1,,,,,0,,,59,0
18115,note_on,,,,,10,0,1,,,,,0,,,61,42
18140,note_on,,,,,25,0,1,,,,,0,,,61,0
18160,note_on,,,,,20,0,1,,,,,0,,,68,53
18162,note_on,,,,,2,0,1,,,,,0,,,59,30
18164,note_on,,,,,2,0,1,,,,,0,,,49,44
18166,note_on,,,,,2,0,1,,,,,0,,,70,0
18172,control_change,,,,,6,0,1,,,,,0,64,88,,
18176,control_change,,,,,4,0,1,,,,,0,64,0,,
18192,note_on,,,,,16,0,1,,,,,0,,,59,0
18192,control_change,,,,,0,0,1,,,,,0,64,56,,
18196,control_change,,,,,4,0,1,,,,,0,64,127,,
18207,note_on,,,,,11,0,1,,,,,0,,,61,38
18237,note_on,,,,,30,0,1,,,,,0,,,61,0
18242,note_on,,,,,5,0,1,,,,,0,,,49,0
18243,note_on,,,,,1,0,1,,,,,0,,,44,0
18247,note_on,,,,,4,0,1,,,,,0,,,59,43
18256,note_on,,,,,9,0,1,,,,,0,,,53,28
18270,note_on,,,,,14,0,1,,,,,0,,,59,0
18288,note_on,,,,,18,0,1,,,,,0,,,61,33
18328,note_on,,,,,40,0,1,,,,,0,,,61,0
18332,note_on,,,,,4,0,1,,,,,0,,,53,0
18334,note_on,,,,,2,0,1,,,,,0,,,59,36
18338,note_on,,,,,4,0,1,,,,,0,,,56,25
18374,note_on,,,,,36,0,1,,,,,0,,,59,0
18376,note_on,,,,,2,0,1,,,,,0,,,56,0
18379,note_on,,,,,3,0,1,,,,,0,,,61,37
18417,note_on,,,,,38,0,1,,,,,0,,,61,0
18427,note_on,,,,,10,0,1,,,,,0,,,59,29
18494,note_on,,,,,67,0,1,,,,,0,,,59,0
18495,note_on,,,,,1,0,1,,,,,0,,,61,27
18513,note_on,,,,,18,0,1,,,,,0,,,61,0
18524,note_on,,,,,11,0,1,,,,,0,,,68,0
18611,note_on,,,,,87,0,1,,,,,0,,,80,73
18612,control_change,,,,,1,0,1,,,,,0,64,72,,
18615,control_change,,,,,3,0,1,,,,,0,64,0,,
18619,note_on,,,,,4,0,1,,,,,0,,,40,42
18631,note_on,,,,,12,0,1,,,,,0,,,40,0
18640,control_change,,,,,9,0,1,,,,,0,64,104,,
18644,control_change,,,,,4,0,1,,,,,0,64,127,,
18683,note_on,,,,,39,0,1,,,,,0,,,62,44
18688,note_on,,,,,5,0,1,,,,,0,,,56,26
18712,note_on,,,,,24,0,1,,,,,0,,,56,0
18714,note_on,,,,,2,0,1,,,,,0,,,62,0
18727,note_on,,,,,13,0,1,,,,,0,,,64,35
18731,note_on,,,,,4,0,1,,,,,0,,,59,39
18741,note_on,,,,,10,0,1,,,,,0,,,64,0
18744,note_on,,,,,3,0,1,,,,,0,,,59,0
18766,note_on,,,,,22,0,1,,,,,0,,,62,52
18791,note_on,,,,,25,0,1,,,,,0,,,62,0
18803,note_on,,,,,12,0,1,,,,,0,,,66,43
18811,note_on,,,,,8,0,1,,,,,0,,,59,36
18821,note_on,,,,,10,0,1,,,,,0,,,59,0
18822,note_on,,,,,1,0,1,,,,,0,,,66,0
18844,note_on,,,,,22,0,1,,,,,0,,,62,45
18845,note_on,,,,,1,0,1,,,,,0,,,56,32
18859,note_on,,,,,14,0,1,,,,,0,,,62,0
18871,note_on,,,,,12,0,1,,,,,0,,,56,0
18882,note_on,,,,,11,0,1,,,,,0,,,64,48
18886,note_on,,,,,4,0,1,,,,,0,,,59,43
18893,note_on,,,,,7,0,1,,,,,0,,,64,0
18900,note_on,,,,,7,0,1,,,,,0,,,59,0
18903,note_on,,,,,3,0,1,,,,,0,,,80,0
18919,note_on,,,,,16,0,1,,,,,0,,,62,54
18928,note_on,,,,,9,0,1,,,,,0,,,56,27
18952,note_on,,,,,24,0,1,,,,,0,,,56,0
18954,note_on,,,,,2,0,1,,,,,0,,,62,0
18968,note_on,,,,,14,0,1,,,,,0,,,80,79
18971,note_on,,,,,3,0,1,,,,,0,,,68,44
18974,note_on,,,,,3,0,1,,,,,0,,,59,38
18986,note_on,,,,,12,0,1,,,,,0,,,59,0
18994,note_on,,,,,8,0,1,,,,,0,,,68,0
19006,note_on,,,,,12,0,1,,,,,0,,,62,54
19018,note_on,,,,,12,0,1,,,,,0,,,56,28
19034,note_on,,,,,16,0,1,,,,,0,,,62,0
19046,note_on,,,,,12,0,1,,,,,0,,,56,0
19052,note_on,,,,,6,0,1,,,,,0,,,64,34
19056,note_on,,,,,4,0,1,,,,,0,,,59,33
19066,note_on,,,,,10,0,1,,,,,0,,,64,0
19088,note_on,,,,,22,0,1,,,,,0,,,62,39
19092,note_on,,,,,4,0,1,,,,,0,,,56,37
19098,note_on,,,,,6,0,1,,,,,0,,,80,0
19105,note_on,,,,,7,0,1,,,,,0,,,59,0
19111,note_on,,,,,6,0,1,,,,,0,,,56,0
19114,note_on,,,,,3,0,1,,,,,0,,,62,0
19144,note_on,,,,,30,0,1,,,,,0,,,80,75
19252,note_on,,,,,108,0,1,,,,,0,,,80,0
19316,control_change,,,,,64,0,1,,,,,0,64,72,,
19318,note_on,,,,,2,0,1,,,,,0,,,80,83
19321,control_change,,,,,3,0,1,,,,,0,64,0,,
19324,note_on,,,,,3,0,1,,,,,0,,,40,56
19332,note_on,,,,,8,0,1,,,,,0,,,40,0
19337,control_change,,,,,5,0,1,,,,,0,64,56,,
19341,control_change,,,,,4,0,1,,,,,0,64,127,,
19376,note_on,,,,,35,0,1,,,,,0,,,64,58
19378,note_on,,,,,2,0,1,,,,,0,,,57,41
19394,note_on,,,,,16,0,1,,,,,0,,,57,0
19407,note_on,,,,,13,0,1,,,,,0,,,64,0
19423,note_on,,,,,16,0,1,,,,,0,,,66,37
19424,note_on,,,,,1,0,1,,,,,0,,,61,32
19438,note_on,,,,,14,0,1,,,,,0,,,66,0
19442,note_on,,,,,4,0,1,,,,,0,,,61,0
19459,note_on,,,,,17,0,1,,,,,0,,,64,45
19468,note_on,,,,,9,0,1,,,,,0,,,57,32
19479,note_on,,,,,11,0,1,,,,,0,,,57,0
19481,note_on,,,,,2,0,1,,,,,0,,,64,0
19497,note_on,,,,,16,0,1,,,,,0,,,68,43
19502,note_on,,,,,5,0,1,,,,,0,,,61,34
19517,note_on,,,,,15,0,1,,,,,0,,,68,0
19519,note_on,,,,,2,0,1,,,,,0,,,61,0
19533,note_on,,,,,14,0,1,,,,,0,,,64,51
19545,note_on,,,,,12,0,1,,,,,0,,,57,36
19556,note_on,,,,,11,0,1,,,,,0,,,64,0
19558,note_on,,,,,2,0,1,,,,,0,,,57,0
19576,note_on,,,,,18,0,1,,,,,0,,,66,40
19578,note_on,,,,,2,0,1,,,,,0,,,61,36
19597,note_on,,,,,19,0,1,,,,,0,,,66,0
19598,note_on,,,,,1,0,1,,,,,0,,,61,0
19616,note_on,,,,,18,0,1,,,,,0,,,64,38
19624,note_on,,,,,8,0,1,,,,,0,,,57,31
19636,note_on,,,,,12,0,1,,,,,0,,,57,0
19636,note_on,,,,,0,0,1,,,,,0,,,64,0
19655,note_on,,,,,19,0,1,,,,,0,,,61,44
19657,note_on,,,,,2,0,1,,,,,0,,,69,47
19669,note_on,,,,,12,0,1,,,,,0,,,69,0
19678,note_on,,,,,9,0,1,,,,,0,,,61,0
19703,note_on,,,,,25,0,1,,,,,0,,,64,25
19705,note_on,,,,,2,0,1,,,,,0,,,57,29
19715,note_on,,,,,10,0,1,,,,,0,,,64,0
19718,note_on,,,,,3,0,1,,,,,0,,,57,0
19726,note_on,,,,,8,0,1,,,,,0,,,80,0
19742,note_on,,,,,16,0,1,,,,,0,,,78,73
19748,note_on,,,,,6,0,1,,,,,0,,,61,34
19752,note_on,,,,,4,0,1,,,,,0,,,66,26
19783,note_on,,,,,31,0,1,,,,,0,,,66,0
19788,note_on,,,,,5,0,1,,,,,0,,,64,45
19839,note_on,,,,,51,0,1,,,,,0,,,78,0
19846,note_on,,,,,7,0,1,,,,,0,,,80,74
19885,note_on,,,,,39,0,1,,,,,0,,,64,0
19901,note_on,,,,,16,0,1,,,,,0,,,61,0
19940,note_on,,,,,39,0,1,,,,,0,,,81,80
19953,note_on,,,,,13,0,1,,,,,0,,,80,0
19976,note_on,,,,,23,0,1,,,,,0,,,81,0
20039,control_change,,,,,63,0,1,,,,,0,64,24,,
20040,note_on,,,,,1,0,1,,,,,0,,,81,80
20042,control_change,,,,,2,0,1,,,,,0,64,0,,
20046,note_on,,,,,4,0,1,,,,,0,,,40,48
20056,note_on,,,,,10,0,1,,,,,0,,,40,0
20063,control_change,,,,,7,0,1,,,,,0,64,56,,
20067,control_change,,,,,4,0,1,,,,,0,64,127,,
20101,note_on,,,,,34,0,1,,,,,0,,,62,44
20112,note_on,,,,,11,0,1,,,,,0,,,54,34
20122,note_on,,,,,10,0,1,,,,,0,,,54,0
20129,note_on,,,,,7,0,1,,,,,0,,,62,0
20143,note_on,,,,,14,0,1,,,,,0,,,64,45
20157,note_on,,,,,14,0,1,,,,,0,,,57,25
20161,note_on,,,,,4,0,1,,,,,0,,,64,0
20178,note_on,,,,,17,0,1,,,,,0,,,57,0
20186,note_on,,,,,8,0,1,,,,,0,,,62,46
20192,note_on,,,,,6,0,1,,,,,0,,,54,28
20204,note_on,,,,,12,0,1,,,,,0,,,54,0
20217,note_on,,,,,13,0,1,,,,,0,,,62,0
20220,note_on,,,,,3,0,1,,,,,0,,,81,0
20228,note_on,,,,,8,0,1,,,,,0,,,66,43
20230,note_on,,,,,2,0,1,,,,,0,,,71,58
20240,note_on,,,,,10,0,1,,,,,0,,,57,33
20251,note_on,,,,,11,0,1,,,,,0,,,57,0
20255,note_on,,,,,4,0,1,,,,,0,,,66,0
20269,note_on,,,,,14,0,1,,,,,0,,,62,49
20282,note_on,,,,,13,0,1,,,,,0,,,54,23
20293,note_on,,,,,11,0,1,,,,,0,,,62,0
20304,note_on,,,,,11,0,1,,,,,0,,,54,0
20310,note_on,,,,,6,0,1,,,,,0,,,64,46
20319,note_on,,,,,9,0,1,,,,,0,,,57,33
20332,note_on,,,,,13,0,1,,,,,0,,,64,0
20350,note_on,,,,,18,0,1,,,,,0,,,57,0
20354,note_on,,,,,4,0,1,,,,,0,,,62,32
20358,note_on,,,,,4,0,1,,,,,0,,,54,28
20364,note_on,,,,,6,0,1,,,,,0,,,71,0
20366,note_on,,,,,2,0,1,,,,,0,,,54,0
20368,note_on,,,,,2,0,1,,,,,0,,,62,0
20482,note_on,,,,,114,0,1,,,,,0,,,71,63
20567,note_on,,,,,85,0,1,,,,,0,,,73,68
20569,note_on,,,,,2,0,1,,,,,0,,,71,0
20654,note_on,,,,,85,0,1,,,,,0,,,74,75
20656,note_on,,,,,2,0,1,,,,,0,,,73,0
20745,note_on,,,,,89,0,1,,,,,0,,,74,0
20749,note_on,,,,,4,0,1,,,,,0,,,78,72
20765,control_change,,,,,16,0,1,,,,,0,64,104,,
20769,control_change,,,,,4,0,1,,,,,0,64,56,,
20780,control_change,,,,,11,0,1,,,,,0,64,127,,
20818,note_on,,,,,38,0,1,,,,,0,,,78,0
20829,note_on,,,,,11,0,1,,,,,0,,,69,66
20846,note_on,,,,,17,0,1,,,,,0,,,69,0
20887,note_on,,,,,41,0,1,,,,,0,,,40,38
20894,control_change,,,,,7,0,1,,,,,0,64,0,,
20910,note_on,,,,,16,0,1,,,,,0,,,56,47
20922,control_change,,,,,12,0,1,,,,,0,64,40,,
20926,control_change,,,,,4,0,1,,,,,0,64,127,,
20938,note_on,,,,,12,0,1,,,,,0,,,56,0
20942,note_on,,,,,4,0,1,,,,,0,,,62,59
20954,note_on,,,,,12,0,1,,,,,0,,,62,0
20994,note_on,,,,,40,0,1,,,,,0,,,73,67
21059,control_change,,,,,65,0,1,,,,,0,64,104,,
21063,control_change,,,,,4,0,1,,,,,0,64,127,,
21093,note_on,,,,,30,0,1,,,,,0,,,40,0
21346,note_on,,,,,253,0,1,,,,,0,,,73,0
21366,note_on,,,,,20,0,1,,,,,0,,,71,38
21413,note_on,,,,,47,0,1,,,,,0,,,71,0
21498,note_on,,,,,85,0,1,,,,,0,,,61,46
21527,control_change,,,,,29,0,1,,,,,0,64,88,,
21531,control_change,,,,,4,0,1,,,,,0,64,0,,
21567,control_change,,,,,36,0,1,,,,,0,64,24,,
21571,control_change,,,,,4,0,1,,,,,0,64,72,,
21575,control_change,,,,,4,0,1,,,,,0,64,127,,
21579,note_on,,,,,4,0,1,,,,,0,,,61,0
21587,note_on,,,,,8,0,1,,,,,0,,,60,53
21608,control_change,,,,,21,0,1,,,,,0,64,72,,
21612,control_change,,,,,4,0,1,,,,,0,64,0,,
21633,note_on,,,,,21,0,1,,,,,0,,,57,51
21636,control_change,,,,,3,0,1,,,,,0,64,56,,
21640,control_change,,,,,4,0,1,,,,,0,64,127,,
21660,note_on,,,,,20,0,1,,,,,0,,,57,0
21672,note_on,,,,,12,0,1,,,,,0,,,53,30
21683,note_on,,,,,11,0,1,,,,,0,,,39,32
21688,note_on,,,,,5,0,1,,,,,0,,,53,0
21698,note_on,,,,,10,0,1,,,,,0,,,60,0
21708,note_on,,,,,10,0,1,,,,,0,,,57,37
21729,note_on,,,,,21,0,1,,,,,0,,,57,0
21746,note_on,,,,,17,0,1,,,,,0,,,53,36
21754,note_on,,,,,8,0,1,,,,,0,,,39,0
21757,note_on,,,,,3,0,1,,,,,0,,,45,31
21761,note_on,,,,,4,0,1,,,,,0,,,53,0
21783,note_on,,,,,22,0,1,,,,,0,,,57,46
21789,note_on,,,,,6,0,1,,,,,0,,,45,0
21812,note_on,,,,,23,0,1,,,,,0,,,57,0
21819,note_on,,,,,7,0,1,,,,,0,,,53,46
21823,note_on,,,,,4,0,1,,,,,0,,,48,35
21835,note_on,,,,,12,0,1,,,,,0,,,48,0
21852,note_on,,,,,17,0,1,,,,,0,,,53,0
21852,note_on,,,,,0,0,1,,,,,0,,,57,53
21865,note_on,,,,,13,0,1,,,,,0,,,57,0
21901,note_on,,,,,36,0,1,,,,,0,,,67,72
21930,control_change,,,,,29,0,1,,,,,0,64,72,,
21933,control_change,,,,,3,0,1,,,,,0,64,0,,
21948,note_on,,,,,15,0,1,,,,,0,,,60,42
21962,control_change,,,,,14,0,1,,,,,0,64,56,,
21966,control_change,,,,,4,0,1,,,,,0,64,127,,
21969,note_on,,,,,3,0,1,,,,,0,,,60,0
21974,note_on,,,,,5,0,1,,,,,0,,,39,42
21976,note_on,,,,,2,0,1,,,,,0,,,57,45
22003,note_on,,,,,0,0,1,,,,,0,,,39,0
22003,note_on,,,,,27,0,1,,,,,0,,,57,0
22016,note_on,,,,,13,0,1,,,,,0,,,60,44
22038,note_on,,,,,22,0,1,,,,,0,,,60,0
22051,note_on,,,,,13,0,1,,,,,0,,,57,36
22060,note_on,,,,,9,0,1,,,,,0,,,48,38
22075,note_on,,,,,15,0,1,,,,,0,,,48,0
22075,note_on,,,,,0,0,1,,,,,0,,,57,0
22088,note_on,,,,,13,0,1,,,,,0,,,60,59
22096,note_on,,,,,8,0,1,,,,,0,,,67,0
22110,note_on,,,,,14,0,1,,,,,0,,,60,0
22133,note_on,,,,,23,0,1,,,,,0,,,67,74
22140,note_on,,,,,7,0,1,,,,,0,,,53,39
22141,note_on,,,,,1,0,1,,,,,0,,,57,31
22153,note_on,,,,,12,0,1,,,,,0,,,53,0
22154,note_on,,,,,1,0,1,,,,,0,,,57,0
22175,note_on,,,,,21,0,1,,,,,0,,,67,0
22181,note_on,,,,,6,0,1,,,,,0,,,60,44
22208,note_on,,,,,27,0,1,,,,,0,,,60,0
22222,note_on,,,,,14,0,1,,,,,0,,,67,73
22245,control_change,,,,,23,0,1,,,,,0,64,104,,
22249,control_change,,,,,4,0,1,,,,,0,64,0,,
22266,note_on,,,,,17,0,1,,,,,0,,,59,47
22276,control_change,,,,,10,0,1,,,,,0,64,72,,
22280,control_change,,,,,4,0,1,,,,,0,64,127,,
22294,note_on,,,,,14,0,1,,,,,0,,,59,0
22297,note_on,,,,,3,0,1,,,,,0,,,38,37
22304,note_on,,,,,7,0,1,,,,,0,,,56,30
22308,note_on,,,,,4,0,1,,,,,0,,,38,0
22325,note_on,,,,,17,0,1,,,,,0,,,56,0
22338,note_on,,,,,13,0,1,,,,,0,,,59,44
22366,note_on,,,,,28,0,1,,,,,0,,,59,0
22370,note_on,,,,,4,0,1,,,,,0,,,47,62
22372,note_on,,,,,2,0,1,,,,,0,,,56,38
22400,note_on,,,,,28,0,1,,,,,0,,,56,0
22410,note_on,,,,,10,0,1,,,,,0,,,59,46
22436,note_on,,,,,26,0,1,,,,,0,,,59,0
22444,note_on,,,,,8,0,1,,,,,0,,,56,38
22450,note_on,,,,,6,0,1,,,,,0,,,53,33
22460,note_on,,,,,0,0,1,,,,,0,,,47,0
22460,note_on,,,,,10,0,1,,,,,0,,,53,0
22481,note_on,,,,,21,0,1,,,,,0,,,56,0
22482,note_on,,,,,1,0,1,,,,,0,,,59,52
22496,note_on,,,,,14,0,1,,,,,0,,,67,0
22514,note_on,,,,,18,0,1,,,,,0,,,59,0
22522,note_on,,,,,8,0,1,,,,,0,,,65,64
22543,control_change,,,,,21,0,1,,,,,0,64,88,,
22547,control_change,,,,,4,0,1,,,,,0,64,0,,
22564,note_on,,,,,17,0,1,,,,,0,,,59,42
22575,control_change,,,,,11,0,1,,,,,0,64,72,,
22580,control_change,,,,,5,0,1,,,,,0,64,127,,
22590,note_on,,,,,10,0,1,,,,,0,,,59,0
22594,note_on,,,,,4,0,1,,,,,0,,,37,47
22598,note_on,,,,,4,0,1,,,,,0,,,56,38
22613,note_on,,,,,15,0,1,,,,,0,,,37,0
22631,note_on,,,,,18,0,1,,,,,0,,,56,0
22643,note_on,,,,,12,0,1,,,,,0,,,59,39
22652,note_on,,,,,9,0,1,,,,,0,,,65,0
22665,note_on,,,,,13,0,1,,,,,0,,,59,0
22673,note_on,,,,,8,0,1,,,,,0,,,56,36
22678,note_on,,,,,5,0,1,,,,,0,,,47,40
22696,note_on,,,,,18,0,1,,,,,0,,,56,0
22708,note_on,,,,,12,0,1,,,,,0,,,59,51
22733,note_on,,,,,25,0,1,,,,,0,,,59,0
22745,note_on,,,,,12,0,1,,,,,0,,,64,71
22749,note_on,,,,,4,0,1,,,,,0,,,53,43
22752,note_on,,,,,3,0,1,,,,,0,,,56,34
22761,note_on,,,,,9,0,1,,,,,0,,,53,0
22770,note_on,,,,,9,0,1,,,,,0,,,47,0
22788,note_on,,,,,18,0,1,,,,,0,,,59,46
22793,note_on,,,,,5,0,1,,,,,0,,,64,0
22800,note_on,,,,,7,0,1,,,,,0,,,56,0
22813,note_on,,,,,13,0,1,,,,,0,,,59,0
22826,note_on,,,,,13,0,1,,,,,0,,,65,72
22842,control_change,,,,,16,0,1,,,,,0,64,40,,
22846,control_change,,,,,4,0,1,,,,,0,64,0,,
22865,note_on,,,,,19,0,1,,,,,0,,,63,50
22870,control_change,,,,,5,0,1,,,,,0,64,72,,
22874,control_change,,,,,4,0,1,,,,,0,64,127,,
22892,note_on,,,,,18,0,1,,,,,0,,,36,40
22894,note_on,,,,,2,0,1,,,,,0,,,63,0
22905,note_on,,,,,11,0,1,,,,,0,,,57,37
22908,note_on,,,,,3,0,1,,,,,0,,,36,0
22922,note_on,,,,,14,0,1,,,,,0,,,57,0
22934,note_on,,,,,0,0,1,,,,,0,,,63,47
22934,note_on,,,,,12,0,1,,,,,0,,,65,0
22935,note_on,,,,,1,0,1,,,,,0,,,45,51
22956,note_on,,,,,21,0,1,,,,,0,,,45,0
22962,note_on,,,,,6,0,1,,,,,0,,,63,0
22970,note_on,,,,,8,0,1,,,,,0,,,67,81
22976,note_on,,,,,6,0,1,,,,,0,,,57,44
22979,note_on,,,,,3,0,1,,,,,0,,,51,37
22988,note_on,,,,,9,0,1,,,,,0,,,57,0
23005,note_on,,,,,17,0,1,,,,,0,,,51,0
23010,note_on,,,,,5,0,1,,,,,0,,,63,60
23035,note_on,,,,,25,0,1,,,,,0,,,53,47
23040,note_on,,,,,5,0,1,,,,,0,,,63,0
23043,note_on,,,,,3,0,1,,,,,0,,,53,0
23045,note_on,,,,,2,0,1,,,,,0,,,57,44
23070,note_on,,,,,25,0,1,,,,,0,,,57,0
23072,note_on,,,,,0,0,1,,,,,0,,,63,62
23072,note_on,,,,,2,0,1,,,,,0,,,67,0
23105,note_on,,,,,33,0,1,,,,,0,,,63,0
23110,note_on,,,,,5,0,1,,,,,0,,,69,82
23124,control_change,,,,,14,0,1,,,,,0,64,56,,
23128,control_change,,,,,4,0,1,,,,,0,64,0,,
23148,control_change,,,,,20,0,1,,,,,0,64,72,,
23150,note_on,,,,,2,0,1,,,,,0,,,63,57
23151,control_change,,,,,1,0,1,,,,,0,64,127,,
23179,note_on,,,,,28,0,1,,,,,0,,,63,0
23183,note_on,,,,,4,0,1,,,,,0,,,58,57
23183,note_on,,,,,0,0,1,,,,,0,,,34,48
23206,note_on,,,,,23,0,1,,,,,0,,,34,0
23210,note_on,,,,,4,0,1,,,,,0,,,58,0
23222,note_on,,,,,12,0,1,,,,,0,,,63,62
23226,note_on,,,,,4,0,1,,,,,0,,,43,45
23227,note_on,,,,,1,0,1,,,,,0,,,69,0
23251,note_on,,,,,24,0,1,,,,,0,,,63,0
23256,note_on,,,,,5,0,1,,,,,0,,,43,0
23260,note_on,,,,,4,0,1,,,,,0,,,58,45
23264,note_on,,,,,4,0,1,,,,,0,,,70,77
23275,note_on,,,,,11,0,1,,,,,0,,,51,36
23277,note_on,,,,,2,0,1,,,,,0,,,58,0
23303,note_on,,,,,26,0,1,,,,,0,,,63,51
23311,note_on,,,,,8,0,1,,,,,0,,,58,50
23312,note_on,,,,,1,0,1,,,,,0,,,63,0
23326,note_on,,,,,14,0,1,,,,,0,,,51,0
23328,note_on,,,,,2,0,1,,,,,0,,,55,45
23341,note_on,,,,,13,0,1,,,,,0,,,58,0
23344,note_on,,,,,3,0,1,,,,,0,,,63,50
23354,note_on,,,,,10,0,1,,,,,0,,,55,0
23357,note_on,,,,,3,0,1,,,,,0,,,70,0
23364,note_on,,,,,7,0,1,,,,,0,,,67,64
23365,note_on,,,,,1,0,1,,,,,0,,,63,0
23385,note_on,,,,,20,0,1,,,,,0,,,67,0
23397,note_on,,,,,12,0,1,,,,,0,,,75,84
23419,note_on,,,,,22,0,1,,,,,0,,,75,0
23445,note_on,,,,,26,0,1,,,,,0,,,74,81
23463,control_change,,,,,18,0,1,,,,,0,64,104,,
23467,control_change,,,,,4,0,1,,,,,0,64,0,,
23489,note_on,,,,,22,0,1,,,,,0,,,65,48
23507,control_change,,,,,18,0,1,,,,,0,64,72,,
23511,control_change,,,,,4,0,1,,,,,0,64,127,,
23518,note_on,,,,,7,0,1,,,,,0,,,33,54
23523,note_on,,,,,0,0,1,,,,,0,,,63,43
23523,note_on,,,,,5,0,1,,,,,0,,,65,0
23547,note_on,,,,,24,0,1,,,,,0,,,63,0
23560,note_on,,,,,13,0,1,,,,,0,,,65,44
23593,note_on,,,,,33,0,1,,,,,0,,,65,0
23595,note_on,,,,,2,0,1,,,,,0,,,33,0
23596,note_on,,,,,1,0,1,,,,,0,,,63,39
23603,note_on,,,,,7,0,1,,,,,0,,,45,42
23614,note_on,,,,,11,0,1,,,,,0,,,45,0
23627,note_on,,,,,13,0,1,,,,,0,,,63,0
23634,note_on,,,,,7,0,1,,,,,0,,,65,51
23666,note_on,,,,,32,0,1,,,,,0,,,65,0
23670,note_on,,,,,4,0,1,,,,,0,,,63,41
23678,note_on,,,,,8,0,1,,,,,0,,,48,55
23706,note_on,,,,,28,0,1,,,,,0,,,63,0
23706,note_on,,,,,0,0,1,,,,,0,,,65,55
23710,note_on,,,,,4,0,1,,,,,0,,,74,0
23738,note_on,,,,,28,0,1,,,,,0,,,65,0
23748,note_on,,,,,10,0,1,,,,,0,,,72,62
23754,note_on,,,,,6,0,1,,,,,0,,,63,45
23758,note_on,,,,,4,0,1,,,,,0,,,53,51
23761,control_change,,,,,3,0,1,,,,,0,64,104,,
23765,control_change,,,,,4,0,1,,,,,0,64,24,,
23769,control_change,,,,,4,0,1,,,,,0,64,0,,
23786,note_on,,,,,17,0,1,,,,,0,,,63,0
23790,note_on,,,,,0,0,1,,,,,0,,,65,47
23790,control_change,,,,,4,0,1,,,,,0,64,56,,
23794,control_change,,,,,4,0,1,,,,,0,64,127,,
23821,note_on,,,,,27,0,1,,,,,0,,,65,0
23824,note_on,,,,,3,0,1,,,,,0,,,53,0
23826,note_on,,,,,2,0,1,,,,,0,,,48,0
23827,note_on,,,,,1,0,1,,,,,0,,,63,38
23837,note_on,,,,,10,0,1,,,,,0,,,57,40
23864,note_on,,,,,27,0,1,,,,,0,,,63,0
23868,note_on,,,,,4,0,1,,,,,0,,,65,49
23887,note_on,,,,,19,0,1,,,,,0,,,57,0
23907,note_on,,,,,20,0,1,,,,,0,,,65,0
23914,note_on,,,,,7,0,1,,,,,0,,,60,46
23917,note_on,,,,,3,0,1,,,,,0,,,63,25
23939,note_on,,,,,22,0,1,,,,,0,,,60,0
23945,note_on,,,,,6,0,1,,,,,0,,,63,0
23957,note_on,,,,,12,0,1,,,,,0,,,65,40
23982,note_on,,,,,25,0,1,,,,,0,,,72,0
23992,note_on,,,,,10,0,1,,,,,0,,,65,0
24000,note_on,,,,,8,0,1,,,,,0,,,63,33
24034,note_on,,,,,34,0,1,,,,,0,,,63,0
24050,note_on,,,,,16,0,1,,,,,0,,,65,34
24058,note_on,,,,,8,0,1,,,,,0,,,65,0
24140,control_change,,,,,82,0,1,,,,,0,64,104,,
24142,note_on,,,,,2,0,1,,,,,0,,,84,70
24144,control_change,,,,,2,0,1,,,,,0,64,24,,
24145,note_on,,,,,1,0,1,,,,,0,,,44,46
24148,control_change,,,,,3,0,1,,,,,0,64,0,,
24164,note_on,,,,,16,0,1,,,,,0,,,44,0
24168,control_change,,,,,4,0,1,,,,,0,64,88,,
24172,control_change,,,,,4,0,1,,,,,0,64,127,,
24207,note_on,,,,,35,0,1,,,,,0,,,66,49
24211,note_on,,,,,4,0,1,,,,,0,,,60,48
24222,note_on,,,,,11,0,1,,,,,0,,,60,0
24230,note_on,,,,,8,0,1,,,,,0,,,66,0
24242,note_on,,,,,12,0,1,,,,,0,,,68,37
24250,note_on,,,,,8,0,1,,,,,0,,,63,38
24265,note_on,,,,,15,0,1,,,,,0,,,68,0
24266,note_on,,,,,1,0,1,,,,,0,,,63,0
24282,note_on,,,,,16,0,1,,,,,0,,,66,45
24288,note_on,,,,,6,0,1,,,,,0,,,60,46
24298,note_on,,,,,10,0,1,,,,,0,,,60,0
24304,note_on,,,,,6,0,1,,,,,0,,,66,0
24323,note_on,,,,,19,0,1,,,,,0,,,63,46
24325,note_on,,,,,2,0,1,,,,,0,,,70,29
24336,note_on,,,,,11,0,1,,,,,0,,,70,0
24345,note_on,,,,,9,0,1,,,,,0,,,63,0
24358,note_on,,,,,13,0,1,,,,,0,,,66,54
24367,note_on,,,,,9,0,1,,,,,0,,,60,47
24378,note_on,,,,,0,0,1,,,,,0,,,66,0
24378,note_on,,,,,11,0,1,,,,,0,,,60,0
24397,note_on,,,,,19,0,1,,,,,0,,,68,46
24398,note_on,,,,,1,0,1,,,,,0,,,63,49
24414,note_on,,,,,16,0,1,,,,,0,,,68,0
24418,note_on,,,,,4,0,1,,,,,0,,,63,0
24420,note_on,,,,,2,0,1,,,,,0,,,84,0
24433,note_on,,,,,13,0,1,,,,,0,,,66,49
24437,note_on,,,,,4,0,1,,,,,0,,,60,40
24448,note_on,,,,,11,0,1,,,,,0,,,60,0
24470,note_on,,,,,22,0,1,,,,,0,,,66,0
24472,note_on,,,,,2,0,1,,,,,0,,,84,74
24474,note_on,,,,,2,0,1,,,,,0,,,63,54
24476,note_on,,,,,2,0,1,,,,,0,,,72,60
24494,note_on,,,,,18,0,1,,,,,0,,,72,0
24505,note_on,,,,,11,0,1,,,,,0,,,63,0
24512,note_on,,,,,7,0,1,,,,,0,,,66,48
24525,note_on,,,,,13,0,1,,,,,0,,,60,38
24542,note_on,,,,,17,0,1,,,,,0,,,66,0
24548,note_on,,,,,6,0,1,,,,,0,,,60,0
24556,note_on,,,,,8,0,1,,,,,0,,,68,37
24557,note_on,,,,,1,0,1,,,,,0,,,63,38
24584,note_on,,,,,27,0,1,,,,,0,,,84,0
24590,note_on,,,,,6,0,1,,,,,0,,,66,44
24592,note_on,,,,,2,0,1,,,,,0,,,68,0
24594,note_on,,,,,2,0,1,,,,,0,,,60,42
24604,note_on,,,,,10,0,1,,,,,0,,,60,0
24608,note_on,,,,,4,0,1,,,,,0,,,63,0
24611,note_on,,,,,3,0,1,,,,,0,,,66,0
24640,note_on,,,,,29,0,1,,,,,0,,,84,79
24738,note_on,,,,,98,0,1,,,,,0,,,84,0
24802,control_change,,,,,64,0,1,,,,,0,64,0,,
24806,note_on,,,,,4,0,1,,,,,0,,,84,84
24811,note_on,,,,,5,0,1,,,,,0,,,43,55
24819,note_on,,,,,8,0,1,,,,,0,,,43,0
24822,control_change,,,,,3,0,1,,,,,0,64,40,,
24826,control_change,,,,,4,0,1,,,,,0,64,127,,
24861,note_on,,,,,35,0,1,,,,,0,,,67,58
24862,note_on,,,,,1,0,1,,,,,0,,,60,53
24887,note_on,,,,,25,0,1,,,,,0,,,67,0
24888,note_on,,,,,1,0,1,,,,,0,,,60,0
24898,note_on,,,,,10,0,1,,,,,0,,,69,46
24904,note_on,,,,,6,0,1,,,,,0,,,64,36
24916,note_on,,,,,12,0,1,,,,,0,,,69,0
24917,note_on,,,,,1,0,1,,,,,0,,,64,0
24933,note_on,,,,,16,0,1,,,,,0,,,67,52
24936,note_on,,,,,3,0,1,,,,,0,,,60,52
24947,note_on,,,,,11,0,1,,,,,0,,,60,0
24953,note_on,,,,,6,0,1,,,,,0,,,67,0
24970,note_on,,,,,17,0,1,,,,,0,,,71,53
24974,note_on,,,,,4,0,1,,,,,0,,,64,46
24981,note_on,,,,,7,0,1,,,,,0,,,71,0
24983,note_on,,,,,2,0,1,,,,,0,,,64,0
25007,note_on,,,,,24,0,1,,,,,0,,,67,52
25011,note_on,,,,,4,0,1,,,,,0,,,60,49
25024,note_on,,,,,13,0,1,,,,,0,,,60,0
25028,note_on,,,,,4,0,1,,,,,0,,,67,0
25043,note_on,,,,,15,0,1,,,,,0,,,69,51
25047,note_on,,,,,4,0,1,,,,,0,,,64,42
25057,note_on,,,,,10,0,1,,,,,0,,,69,0
25059,note_on,,,,,2,0,1,,,,,0,,,64,0
25080,note_on,,,,,21,0,1,,,,,0,,,67,52
25082,note_on,,,,,2,0,1,,,,,0,,,60,53
25106,note_on,,,,,24,0,1,,,,,0,,,60,0
25106,note_on,,,,,0,0,1,,,,,0,,,67,0
25121,note_on,,,,,15,0,1,,,,,0,,,64,51
25122,note_on,,,,,1,0,1,,,,,0,,,72,44
25138,note_on,,,,,16,0,1,,,,,0,,,72,0
25140,note_on,,,,,2,0,1,,,,,0,,,84,0
25146,note_on,,,,,6,0,1,,,,,0,,,64,0
25157,note_on,,,,,11,0,1,,,,,0,,,67,60
25168,note_on,,,,,11,0,1,,,,,0,,,60,43
25185,note_on,,,,,17,0,1,,,,,0,,,67,0
25192,note_on,,,,,7,0,1,,,,,0,,,60,0
25206,note_on,,,,,14,0,1,,,,,0,,,76,76
25208,note_on,,,,,2,0,1,,,,,0,,,64,18
25209,note_on,,,,,1,0,1,,,,,0,,,69,50
25237,note_on,,,,,28,0,1,,,,,0,,,69,0
25241,note_on,,,,,4,0,1,,,,,0,,,64,0
25244,note_on,,,,,3,0,1,,,,,0,,,67,31
25251,note_on,,,,,7,0,1,,,,,0,,,60,45
25266,note_on,,,,,15,0,1,,,,,0,,,60,0
25281,note_on,,,,,15,0,1,,,,,0,,,67,0
25293,note_on,,,,,12,0,1,,,,,0,,,76,0
25297,note_on,,,,,4,0,1,,,,,0,,,77,84
25381,note_on,,,,,84,0,1,,,,,0,,,79,84
25386,note_on,,,,,5,0,1,,,,,0,,,77,0
25471,control_change,,,,,85,0,1,,,,,0,64,72,,
25475,note_on,,,,,4,0,1,,,,,0,,,81,80
25475,control_change,,,,,0,0,1,,,,,0,64,0,,
25481,note_on,,,,,6,0,1,,,,,0,,,79,0
25486,note_on,,,,,5,0,1,,,,,0,,,43,56
25494,note_on,,,,,8,0,1,,,,,0,,,43,0
25504,control_change,,,,,10,0,1,,,,,0,64,72,,
25508,control_change,,,,,4,0,1,,,,,0,64,127,,
25535,note_on,,,,,27,0,1,,,,,0,,,62,56
25535,note_on,,,,,0,0,1,,,,,0,,,53,40
25560,note_on,,,,,25,0,1,,,,,0,,,53,0
25560,note_on,,,,,0,0,1,,,,,0,,,62,0
25578,note_on,,,,,18,0,1,,,,,0,,,64,52
25588,note_on,,,,,10,0,1,,,,,0,,,57,42
25603,note_on,,,,,15,0,1,,,,,0,,,64,0
25610,note_on,,,,,7,0,1,,,,,0,,,57,0
25615,note_on,,,,,5,0,1,,,,,0,,,62,52
25625,note_on,,,,,10,0,1,,,,,0,,,53,37
25632,note_on,,,,,7,0,1,,,,,0,,,81,0
25636,note_on,,,,,4,0,1,,,,,0,,,53,0
25650,note_on,,,,,14,0,1,,,,,0,,,62,0
25663,note_on,,,,,13,0,1,,,,,0,,,65,50
25664,note_on,,,,,1,0,1,,,,,0,,,72,70
25668,note_on,,,,,4,0,1,,,,,0,,,57,33
25684,note_on,,,,,16,0,1,,,,,0,,,65,0
25694,note_on,,,,,10,0,1,,,,,0,,,57,0
25702,note_on,,,,,8,0,1,,,,,0,,,62,41
25718,note_on,,,,,16,0,1,,,,,0,,,53,25
25731,note_on,,,,,13,0,1,,,,,0,,,53,0
25735,note_on,,,,,4,0,1,,,,,0,,,62,0
25749,note_on,,,,,14,0,1,,,,,0,,,64,40
25754,note_on,,,,,5,0,1,,,,,0,,,57,19
25768,note_on,,,,,14,0,1,,,,,0,,,64,0
25786,note_on,,,,,18,0,1,,,,,0,,,57,0
25788,note_on,,,,,2,0,1,,,,,0,,,62,34
25790,note_on,,,,,2,0,1,,,,,0,,,53,34
25802,note_on,,,,,12,0,1,,,,,0,,,53,0
25805,note_on,,,,,3,0,1,,,,,0,,,62,0
25806,note_on,,,,,1,0,1,,,,,0,,,72,0
25912,note_on,,,,,106,0,1,,,,,0,,,72,74
26003,note_on,,,,,91,0,1,,,,,0,,,74,75
26004,note_on,,,,,1,0,1,,,,,0,,,72,0
26084,note_on,,,,,80,0,1,,,,,0,,,76,75
26085,note_on,,,,,1,0,1,,,,,0,,,74,0
26112,control_change,,,,,27,0,1,,,,,0,64,72,,
26116,control_change,,,,,4,0,1,,,,,0,64,24,,
26120,control_change,,,,,4,0,1,,,,,0,64,0,,
26124,control_change,,,,,4,0,1,,,,,0,64,40,,
26128,control_change,,,,,4,0,1,,,,,0,64,88,,
26132,control_change,,,,,4,0,1,,,,,0,64,127,,
26162,note_on,,,,,30,0,1,,,,,0,,,76,0
26166,note_on,,,,,4,0,1,,,,,0,,,77,76
26173,control_change,,,,,7,0,1,,,,,0,64,88,,
26177,control_change,,,,,4,0,1,,,,,0,64,0,,
26205,control_change,,,,,28,0,1,,,,,0,64,72,,
26209,control_change,,,,,4,0,1,,,,,0,64,127,,
26248,note_on,,,,,39,0,1,,,,,0,,,69,74
26250,note_on,,,,,2,0,1,,,,,0,,,77,0
26267,note_on,,,,,17,0,1,,,,,0,,,69,0
26277,note_on,,,,,10,0,1,,,,,0,,,43,39
26315,note_on,,,,,38,0,1,,,,,0,,,59,45
26345,note_on,,,,,30,0,1,,,,,0,,,65,47
26386,note_on,,,,,41,0,1,,,,,0,,,76,77
26419,control_change,,,,,33,0,1,,,,,0,64,104,,
26423,control_change,,,,,4,0,1,,,,,0,64,40,,
26427,control_change,,,,,4,0,1,,,,,0,64,0,,
26475,control_change,,,,,48,0,1,,,,,0,64,24,,
26479,control_change,,,,,4,0,1,,,,,0,64,72,,
26483,control_change,,,,,4,0,1,,,,,0,64,104,,
26487,control_change,,,,,4,0,1,,,,,0,64,127,,
26548,note_on,,,,,0,0,1,,,,,0,,,43,0
26548,note_on,,,,,61,0,1,,,,,0,,,59,0
26552,note_on,,,,,4,0,1,,,,,0,,,65,0
26630,note_on,,,,,78,0,1,,,,,0,,,76,0
26640,note_on,,,,,10,0,1,,,,,0,,,74,68
26721,note_on,,,,,81,0,1,,,,,0,,,74,0
26725,note_on,,,,,4,0,1,,,,,0,,,76,69
26754,note_on,,,,,29,0,1,,,,,0,,,76,0
26756,note_on,,,,,2,0,1,,,,,0,,,74,76
26789,note_on,,,,,33,0,1,,,,,0,,,74,0
26791,note_on,,,,,2,0,1,,,,,0,,,73,73
26822,control_change,,,,,31,0,1,,,,,0,64,56,,
26826,control_change,,,,,4,0,1,,,,,0,64,0,,
26850,control_change,,,,,24,0,1,,,,,0,64,56,,
26854,control_change,,,,,4,0,1,,,,,0,64,127,,
26870,note_on,,,,,16,0,1,,,,,0,,,74,84
26878,control_change,,,,,8,0,1,,,,,0,64,88,,
26882,control_change,,,,,4,0,1,,,,,0,64,0,,
26884,note_on,,,,,2,0,1,,,,,0,,,73,0
26890,control_change,,,,,6,0,1,,,,,0,64,24,,
26895,control_change,,,,,5,0,1,,,,,0,64,56,,
26899,control_change,,,,,4,0,1,,,,,0,64,127,,
26950,note_on,,,,,51,0,1,,,,,0,,,77,83
26964,note_on,,,,,14,0,1,,,,,0,,,74,0
26971,control_change,,,,,7,0,1,,,,,0,64,24,,
26975,control_change,,,,,4,0,1,,,,,0,64,0,,
26987,control_change,,,,,12,0,1,,,,,0,64,40,,
26991,control_change,,,,,4,0,1,,,,,0,64,104,,
26996,control_change,,,,,5,0,1,,,,,0,64,127,,
27016,note_on,,,,,20,0,1,,,,,0,,,77,0
27023,note_on,,,,,7,0,1,,,,,0,,,76,75
27028,control_change,,,,,5,0,1,,,,,0,64,72,,
27032,control_change,,,,,4,0,1,,,,,0,64,88,,
27035,control_change,,,,,3,0,1,,,,,0,64,127,,
27050,note_on,,,,,15,0,1,,,,,0,,,76,0
27052,note_on,,,,,2,0,1,,,,,0,,,44,51
27072,note_on,,,,,20,0,1,,,,,0,,,44,0
27088,note_on,,,,,16,0,1,,,,,0,,,59,36
27103,note_on,,,,,15,0,1,,,,,0,,,65,42
27132,note_on,,,,,29,0,1,,,,,0,,,73,65
27169,control_change,,,,,37,0,1,,,,,0,64,88,,
27173,control_change,,,,,4,0,1,,,,,0,64,0,,
27184,control_change,,,,,11,0,1,,,,,0,64,40,,
27188,control_change,,,,,4,0,1,,,,,0,64,127,,
27202,note_on,,,,,14,0,1,,,,,0,,,59,0
27239,note_on,,,,,37,0,1,,,,,0,,,73,0
27246,note_on,,,,,7,0,1,,,,,0,,,74,59
27252,note_on,,,,,6,0,1,,,,,0,,,65,0
27264,note_on,,,,,12,0,1,,,,,0,,,74,0
27324,note_on,,,,,60,0,1,,,,,0,,,59,43
27342,control_change,,,,,18,0,1,,,,,0,64,40,,
27346,control_change,,,,,4,0,1,,,,,0,64,0,,
27352,note_on,,,,,6,0,1,,,,,0,,,66,43
27357,note_on,,,,,5,0,1,,,,,0,,,59,0
27362,control_change,,,,,5,0,1,,,,,0,64,56,,
27366,control_change,,,,,4,0,1,,,,,0,64,127,,
27382,note_on,,,,,16,0,1,,,,,0,,,68,38
27388,note_on,,,,,6,0,1,,,,,0,,,66,0
27409,note_on,,,,,21,0,1,,,,,0,,,68,0
27440,note_on,,,,,31,0,1,,,,,0,,,75,69
27488,note_on,,,,,48,0,1,,,,,0,,,75,0
27521,note_on,,,,,33,0,1,,,,,0,,,37,28
27579,note_on,,,,,58,0,1,,,,,0,,,37,0
27593,note_on,,,,,14,0,1,,,,,0,,,47,48
27631,note_on,,,,,38,0,1,,,,,0,,,47,0
27647,note_on,,,,,16,0,1,,,,,0,,,51,49
27677,note_on,,,,,30,0,1,,,,,0,,,51,0
27684,note_on,,,,,7,0,1,,,,,0,,,54,51
27714,note_on,,,,,30,0,1,,,,,0,,,54,0
27722,note_on,,,,,8,0,1,,,,,0,,,56,46
27756,note_on,,,,,34,0,1,,,,,0,,,56,0
27762,note_on,,,,,6,0,1,,,,,0,,,59,62
27790,note_on,,,,,28,0,1,,,,,0,,,59,0
27800,note_on,,,,,10,0,1,,,,,0,,,63,51
27834,note_on,,,,,34,0,1,,,,,0,,,63,0
27835,note_on,,,,,1,0,1,,,,,0,,,66,53
27862,note_on,,,,,27,0,1,,,,,0,,,66,0
27868,note_on,,,,,6,0,1,,,,,0,,,68,58
27899,note_on,,,,,31,0,1,,,,,0,,,68,0
27906,note_on,,,,,7,0,1,,,,,0,,,71,65
27934,note_on,,,,,28,0,1,,,,,0,,,71,0
27946,note_on,,,,,12,0,1,,,,,0,,,75,62
27969,note_on,,,,,23,0,1,,,,,0,,,75,0
27983,note_on,,,,,14,0,1,,,,,0,,,78,52
28011,note_on,,,,,28,0,1,,,,,0,,,78,0
28025,note_on,,,,,14,0,1,,,,,0,,,80,49
28055,note_on,,,,,30,0,1,,,,,0,,,80,0
28065,note_on,,,,,10,0,1,,,,,0,,,83,52
28103,note_on,,,,,38,0,1,,,,,0,,,85,60
28108,note_on,,,,,5,0,1,,,,,0,,,83,0
28116,note_on,,,,,8,0,1,,,,,0,,,85,0
28157,note_on,,,,,41,0,1,,,,,0,,,87,62
28161,note_on,,,,,4,0,1,,,,,0,,,71,49
28163,note_on,,,,,2,0,1,,,,,0,,,80,36
28178,note_on,,,,,15,0,1,,,,,0,,,80,0
28182,note_on,,,,,4,0,1,,,,,0,,,71,0
28184,note_on,,,,,2,0,1,,,,,0,,,87,0
28194,note_on,,,,,10,0,1,,,,,0,,,75,42
28196,note_on,,,,,2,0,1,,,,,0,,,90,50
28201,note_on,,,,,5,0,1,,,,,0,,,83,48
28213,note_on,,,,,12,0,1,,,,,0,,,83,0
28216,note_on,,,,,3,0,1,,,,,0,,,90,0
28217,note_on,,,,,1,0,1,,,,,0,,,75,0
28232,note_on,,,,,15,0,1,,,,,0,,,80,48
28233,note_on,,,,,1,0,1,,,,,0,,,77,46
28234,note_on,,,,,1,0,1,,,,,0,,,85,54
28252,note_on,,,,,18,0,1,,,,,0,,,77,0
28252,note_on,,,,,0,0,1,,,,,0,,,80,0
28261,note_on,,,,,9,0,1,,,,,0,,,85,0
28268,note_on,,,,,0,0,1,,,,,0,,,83,39
28268,note_on,,,,,7,0,1,,,,,0,,,89,58
28273,note_on,,,,,5,0,1,,,,,0,,,68,28
28292,note_on,,,,,19,0,1,,,,,0,,,83,0
28292,note_on,,,,,0,0,1,,,,,0,,,89,0
28300,note_on,,,,,8,0,1,,,,,0,,,68,0
28304,note_on,,,,,4,0,1,,,,,0,,,80,44
28308,note_on,,,,,4,0,1,,,,,0,,,70,36
28309,note_on,,,,,1,0,1,,,,,0,,,85,50
28327,note_on,,,,,18,0,1,,,,,0,,,80,0
28333,note_on,,,,,6,0,1,,,,,0,,,85,0
28334,note_on,,,,,1,0,1,,,,,0,,,70,0
28341,note_on,,,,,7,0,1,,,,,0,,,89,60
28341,note_on,,,,,0,0,1,,,,,0,,,82,38
28350,note_on,,,,,9,0,1,,,,,0,,,73,30
28365,note_on,,,,,15,0,1,,,,,0,,,82,0
28365,note_on,,,,,0,0,1,,,,,0,,,89,0
28371,note_on,,,,,6,0,1,,,,,0,,,73,0
28381,note_on,,,,,10,0,1,,,,,0,,,85,50
28382,note_on,,,,,1,0,1,,,,,0,,,78,38
28386,note_on,,,,,4,0,1,,,,,0,,,75,34
28403,note_on,,,,,17,0,1,,,,,0,,,85,0
28404,note_on,,,,,1,0,1,,,,,0,,,78,0
28406,note_on,,,,,2,0,1,,,,,0,,,75,0
28416,note_on,,,,,10,0,1,,,,,0,,,87,54
28420,note_on,,,,,0,0,1,,,,,0,,,66,38
28420,note_on,,,,,4,0,1,,,,,0,,,82,41
28440,note_on,,,,,0,0,1,,,,,0,,,87,0
28440,note_on,,,,,20,0,1,,,,,0,,,82,0
28446,note_on,,,,,6,0,1,,,,,0,,,66,0
28451,control_change,,,,,5,0,1,,,,,0,64,104,,
28453,note_on,,,,,2,0,1,,,,,0,,,78,44
28454,note_on,,,,,1,0,1,,,,,0,,,68,35
28456,control_change,,,,,0,0,1,,,,,0,64,88,,
28456,note_on,,,,,2,0,1,,,,,0,,,83,62
28459,control_change,,,,,3,0,1,,,,,0,64,104,,
28464,control_change,,,,,5,0,1,,,,,0,64,127,,
28474,note_on,,,,,10,0,1,,,,,0,,,78,0
28476,note_on,,,,,2,0,1,,,,,0,,,68,0
28485,note_on,,,,,9,0,1,,,,,0,,,83,0
28490,note_on,,,,,5,0,1,,,,,0,,,87,63
28490,note_on,,,,,0,0,1,,,,,0,,,82,40
28497,note_on,,,,,7,0,1,,,,,0,,,71,35
28514,note_on,,,,,0,0,1,,,,,0,,,87,0
28514,note_on,,,,,17,0,1,,,,,0,,,82,0
28518,note_on,,,,,4,0,1,,,,,0,,,71,0
28529,note_on,,,,,11,0,1,,,,,0,,,83,58
28530,note_on,,,,,1,0,1,,,,,0,,,77,48
28530,note_on,,,,,0,0,1,,,,,0,,,73,40
28548,note_on,,,,,18,0,1,,,,,0,,,77,0
28556,note_on,,,,,8,0,1,,,,,0,,,83,0
28557,note_on,,,,,1,0,1,,,,,0,,,73,0
28563,note_on,,,,,0,0,1,,,,,0,,,80,39
28563,note_on,,,,,6,0,1,,,,,0,,,85,61
28571,note_on,,,,,8,0,1,,,,,0,,,65,36
28588,note_on,,,,,17,0,1,,,,,0,,,65,0
28589,note_on,,,,,0,0,1,,,,,0,,,85,0
28589,note_on,,,,,1,0,1,,,,,0,,,80,0
28600,note_on,,,,,11,0,1,,,,,0,,,82,55
28604,control_change,,,,,0,0,1,,,,,0,64,88,,
28604,note_on,,,,,4,0,1,,,,,0,,,66,34
28606,note_on,,,,,2,0,1,,,,,0,,,77,36
28609,control_change,,,,,3,0,1,,,,,0,64,104,,
28613,control_change,,,,,4,0,1,,,,,0,64,127,,
28618,note_on,,,,,5,0,1,,,,,0,,,77,0
28629,note_on,,,,,11,0,1,,,,,0,,,66,0
28635,note_on,,,,,0,0,1,,,,,0,,,78,39
28635,note_on,,,,,6,0,1,,,,,0,,,85,57
28636,note_on,,,,,1,0,1,,,,,0,,,82,0
28640,note_on,,,,,4,0,1,,,,,0,,,70,38
28660,note_on,,,,,20,0,1,,,,,0,,,78,0
28660,note_on,,,,,0,0,1,,,,,0,,,85,0
28661,note_on,,,,,1,0,1,,,,,0,,,70,0
28675,note_on,,,,,0,0,1,,,,,0,,,75,47
28675,note_on,,,,,14,0,1,,,,,0,,,82,52
28676,note_on,,,,,1,0,1,,,,,0,,,71,41
28698,note_on,,,,,22,0,1,,,,,0,,,75,0
28701,note_on,,,,,3,0,1,,,,,0,,,71,0
28702,note_on,,,,,1,0,1,,,,,0,,,82,0
28710,note_on,,,,,0,0,1,,,,,0,,,78,38
28710,note_on,,,,,8,0,1,,,,,0,,,83,61
28722,note_on,,,,,0,0,1,,,,,0,,,63,33
28722,control_change,,,,,12,0,1,,,,,0,64,88,,
28726,control_change,,,,,4,0,1,,,,,0,64,104,,
28730,control_change,,,,,4,0,1,,,,,0,64,127,,
28733,note_on,,,,,0,0,1,,,,,0,,,83,0
28733,note_on,,,,,3,0,1,,,,,0,,,78,0
28745,note_on,,,,,12,0,1,,,,,0,,,75,52
28749,note_on,,,,,4,0,1,,,,,0,,,63,0
28750,note_on,,,,,1,0,1,,,,,0,,,80,54
28758,note_on,,,,,8,0,1,,,,,0,,,65,27
28772,note_on,,,,,14,0,1,,,,,0,,,75,0
28775,note_on,,,,,3,0,1,,,,,0,,,65,0
28782,note_on,,,,,7,0,1,,,,,0,,,80,0
28786,note_on,,,,,0,0,1,,,,,0,,,77,39
28786,note_on,,,,,4,0,1,,,,,0,,,83,62
28788,note_on,,,,,2,0,1,,,,,0,,,68,40
28807,note_on,,,,,0,0,1,,,,,0,,,83,0
28807,note_on,,,,,19,0,1,,,,,0,,,77,0
28814,note_on,,,,,7,0,1,,,,,0,,,68,0
28824,note_on,,,,,10,0,1,,,,,0,,,73,50
28826,note_on,,,,,2,0,1,,,,,0,,,80,52
28826,note_on,,,,,0,0,1,,,,,0,,,70,37
28832,note_on,,,,,6,0,1,,,,,0,,,77,29
28845,note_on,,,,,13,0,1,,,,,0,,,77,0
28849,note_on,,,,,4,0,1,,,,,0,,,73,0
28851,note_on,,,,,2,0,1,,,,,0,,,70,0
28861,note_on,,,,,10,0,1,,,,,0,,,82,51
28862,note_on,,,,,1,0,1,,,,,0,,,61,48
28864,note_on,,,,,2,0,1,,,,,0,,,80,0
28886,note_on,,,,,22,0,1,,,,,0,,,82,0
28894,note_on,,,,,8,0,1,,,,,0,,,61,0
28899,control_change,,,,,5,0,1,,,,,0,64,88,,
28900,note_on,,,,,1,0,1,,,,,0,,,73,45
28901,note_on,,,,,1,0,1,,,,,0,,,78,57
28901,note_on,,,,,0,0,1,,,,,0,,,63,36
28903,control_change,,,,,2,0,1,,,,,0,64,24,,
28907,control_change,,,,,4,0,1,,,,,0,64,0,,
28911,control_change,,,,,4,0,1,,,,,0,64,40,,
28915,control_change,,,,,4,0,1,,,,,0,64,88,,
28919,control_change,,,,,4,0,1,,,,,0,64,127,,
28926,note_on,,,,,7,0,1,,,,,0,,,73,0
28929,note_on,,,,,3,0,1,,,,,0,,,63,0
28930,note_on,,,,,1,0,1,,,,,0,,,78,0
28935,note_on,,,,,5,0,1,,,,,0,,,82,57
28935,note_on,,,,,0,0,1,,,,,0,,,78,37
28939,note_on,,,,,4,0,1,,,,,0,,,66,36
28960,note_on,,,,,21,0,1,,,,,0,,,78,0
28960,note_on,,,,,0,0,1,,,,,0,,,82,0
28966,note_on,,,,,6,0,1,,,,,0,,,66,0
28974,note_on,,,,,8,0,1,,,,,0,,,78,55
28975,note_on,,,,,1,0,1,,,,,0,,,71,38
28976,note_on,,,,,1,0,1,,,,,0,,,68,36
28998,note_on,,,,,22,0,1,,,,,0,,,71,0
28999,note_on,,,,,1,0,1,,,,,0,,,78,0
29004,note_on,,,,,5,0,1,,,,,0,,,68,0
29010,note_on,,,,,0,0,1,,,,,0,,,75,37
29010,note_on,,,,,6,0,1,,,,,0,,,80,60
29016,note_on,,,,,6,0,1,,,,,0,,,59,42
29033,note_on,,,,,17,0,1,,,,,0,,,75,0
29033,note_on,,,,,0,0,1,,,,,0,,,80,0
29043,note_on,,,,,10,0,1,,,,,0,,,59,0
29048,control_change,,,,,5,0,1,,,,,0,64,104,,
29050,note_on,,,,,2,0,1,,,,,0,,,77,64
29052,note_on,,,,,2,0,1,,,,,0,,,61,42
29052,control_change,,,,,0,0,1,,,,,0,64,40,,
29054,note_on,,,,,2,0,1,,,,,0,,,71,31
29056,control_change,,,,,2,0,1,,,,,0,64,0,,
29060,control_change,,,,,4,0,1,,,,,0,64,24,,
29064,control_change,,,,,4,0,1,,,,,0,64,56,,
29068,note_on,,,,,4,0,1,,,,,0,,,71,0
29069,control_change,,,,,1,0,1,,,,,0,64,127,,
29085,note_on,,,,,16,0,1,,,,,0,,,61,0
29090,note_on,,,,,5,0,1,,,,,0,,,80,54
29090,note_on,,,,,0,0,1,,,,,0,,,73,38
29094,note_on,,,,,4,0,1,,,,,0,,,65,36
29095,note_on,,,,,1,0,1,,,,,0,,,77,0
29111,note_on,,,,,16,0,1,,,,,0,,,80,0
29111,note_on,,,,,0,0,1,,,,,0,,,73,0
29116,note_on,,,,,5,0,1,,,,,0,,,65,0
29124,note_on,,,,,8,0,1,,,,,0,,,70,43
29128,note_on,,,,,4,0,1,,,,,0,,,66,35
29128,note_on,,,,,0,0,1,,,,,0,,,77,60
29152,note_on,,,,,24,0,1,,,,,0,,,70,0
29157,note_on,,,,,5,0,1,,,,,0,,,77,0
29157,note_on,,,,,0,0,1,,,,,0,,,66,0
29163,note_on,,,,,6,0,1,,,,,0,,,78,57
29163,note_on,,,,,0,0,1,,,,,0,,,73,36
29171,note_on,,,,,8,0,1,,,,,0,,,58,34
29188,note_on,,,,,0,0,1,,,,,0,,,78,0
29188,note_on,,,,,17,0,1,,,,,0,,,73,0
29200,note_on,,,,,12,0,1,,,,,0,,,58,0
29202,control_change,,,,,2,0,1,,,,,0,64,88,,
29203,note_on,,,,,1,0,1,,,,,0,,,75,57
29205,note_on,,,,,2,0,1,,,,,0,,,70,38
29206,control_change,,,,,1,0,1,,,,,0,64,0,,
29212,note_on,,,,,6,0,1,,,,,0,,,59,32
29218,control_change,,,,,6,0,1,,,,,0,64,24,,
29222,control_change,,,,,4,0,1,,,,,0,64,72,,
29226,control_change,,,,,4,0,1,,,,,0,64,127,,
29230,note_on,,,,,4,0,1,,,,,0,,,70,0
29233,note_on,,,,,3,0,1,,,,,0,,,75,0
29238,note_on,,,,,5,0,1,,,,,0,,,59,0
29241,note_on,,,,,3,0,1,,,,,0,,,78,52
29241,note_on,,,,,0,0,1,,,,,0,,,71,36
29246,note_on,,,,,5,0,1,,,,,0,,,63,38
29261,note_on,,,,,15,0,1,,,,,0,,,71,0
29261,note_on,,,,,0,0,1,,,,,0,,,78,0
29277,note_on,,,,,16,0,1,,,,,0,,,63,0
29281,note_on,,,,,4,0,1,,,,,0,,,68,38
29283,note_on,,,,,2,0,1,,,,,0,,,75,52
29288,note_on,,,,,5,0,1,,,,,0,,,65,41
29311,note_on,,,,,23,0,1,,,,,0,,,68,0
29313,note_on,,,,,2,0,1,,,,,0,,,65,0
29314,note_on,,,,,1,0,1,,,,,0,,,75,0
29322,note_on,,,,,0,0,1,,,,,0,,,71,39
29322,note_on,,,,,8,0,1,,,,,0,,,77,55
29327,note_on,,,,,5,0,1,,,,,0,,,56,40
29343,note_on,,,,,0,0,1,,,,,0,,,77,0
29343,note_on,,,,,16,0,1,,,,,0,,,71,0
29358,note_on,,,,,15,0,1,,,,,0,,,56,0
29366,note_on,,,,,8,0,1,,,,,0,,,68,36
29369,note_on,,,,,3,0,1,,,,,0,,,73,53
29371,note_on,,,,,2,0,1,,,,,0,,,58,52
29375,control_change,,,,,4,0,1,,,,,0,64,56,,
29379,control_change,,,,,4,0,1,,,,,0,64,0,,
29390,note_on,,,,,11,0,1,,,,,0,,,68,0
29399,control_change,,,,,9,0,1,,,,,0,64,88,,
29401,note_on,,,,,2,0,1,,,,,0,,,73,0
29403,control_change,,,,,2,0,1,,,,,0,64,127,,
29408,note_on,,,,,5,0,1,,,,,0,,,58,0
29409,note_on,,,,,1,0,1,,,,,0,,,77,56
29416,note_on,,,,,7,0,1,,,,,0,,,70,33
29418,note_on,,,,,2,0,1,,,,,0,,,61,55
29426,note_on,,,,,8,0,1,,,,,0,,,70,0
29432,note_on,,,,,6,0,1,,,,,0,,,77,0
29443,note_on,,,,,11,0,1,,,,,0,,,61,0
29449,note_on,,,,,6,0,1,,,,,0,,,66,30
29453,note_on,,,,,4,0,1,,,,,0,,,63,57
29455,note_on,,,,,2,0,1,,,,,0,,,73,53
29474,note_on,,,,,19,0,1,,,,,0,,,66,0
29484,control_change,,,,,10,0,1,,,,,0,64,72,,
29487,note_on,,,,,3,0,1,,,,,0,,,73,0
29488,control_change,,,,,1,0,1,,,,,0,64,0,,
29495,note_on,,,,,0,0,1,,,,,0,,,70,38
29495,note_on,,,,,7,0,1,,,,,0,,,77,57
29496,control_change,,,,,1,0,1,,,,,0,64,40,,
29500,control_change,,,,,4,0,1,,,,,0,64,88,,
29504,control_change,,,,,4,0,1,,,,,0,64,127,,
29516,note_on,,,,,0,0,1,,,,,0,,,77,0
29516,note_on,,,,,12,0,1,,,,,0,,,70,0
29532,note_on,,,,,16,0,1,,,,,0,,,66,29
29538,note_on,,,,,6,0,1,,,,,0,,,73,40
29555,note_on,,,,,17,0,1,,,,,0,,,66,0
29563,note_on,,,,,8,0,1,,,,,0,,,73,0
29575,note_on,,,,,12,0,1,,,,,0,,,77,49
29575,note_on,,,,,0,0,1,,,,,0,,,70,33
29594,note_on,,,,,0,0,1,,,,,0,,,77,0
29594,note_on,,,,,19,0,1,,,,,0,,,70,0
29612,note_on,,,,,18,0,1,,,,,0,,,58,53
29614,note_on,,,,,2,0,1,,,,,0,,,63,0
29615,note_on,,,,,1,0,1,,,,,0,,,66,26
29618,note_on,,,,,3,0,1,,,,,0,,,73,38
29637,note_on,,,,,19,0,1,,,,,0,,,66,0
29640,note_on,,,,,3,0,1,,,,,0,,,73,0
29658,note_on,,,,,0,0,1,,,,,0,,,70,31
29658,note_on,,,,,18,0,1,,,,,0,,,75,43
29670,note_on,,,,,12,0,1,,,,,0,,,70,0
29677,note_on,,,,,7,0,1,,,,,0,,,75,0
29692,note_on,,,,,15,0,1,,,,,0,,,66,35
29697,note_on,,,,,5,0,1,,,,,0,,,73,40
29718,note_on,,,,,21,0,1,,,,,0,,,73,0
29720,note_on,,,,,2,0,1,,,,,0,,,66,0
29735,note_on,,,,,15,0,1,,,,,0,,,75,36
29737,note_on,,,,,2,0,1,,,,,0,,,70,23
29748,note_on,,,,,11,0,1,,,,,0,,,75,0
29749,note_on,,,,,1,0,1,,,,,0,,,70,0
29770,note_on,,,,,0,0,1,,,,,0,,,51,63
29770,note_on,,,,,21,0,1,,,,,0,,,58,0
29774,note_on,,,,,4,0,1,,,,,0,,,66,28
29780,note_on,,,,,6,0,1,,,,,0,,,71,49
29787,control_change,,,,,7,0,1,,,,,0,64,72,,
29791,control_change,,,,,4,0,1,,,,,0,64,24,,
29795,control_change,,,,,4,0,1,,,,,0,64,0,,
29800,note_on,,,,,5,0,1,,,,,0,,,66,0
29803,control_change,,,,,3,0,1,,,,,0,64,40,,
29805,note_on,,,,,2,0,1,,,,,0,,,71,0
29807,control_change,,,,,2,0,1,,,,,0,64,88,,
29811,control_change,,,,,4,0,1,,,,,0,64,127,,
29813,note_on,,,,,0,0,1,,,,,0,,,70,35
29813,note_on,,,,,2,0,1,,,,,0,,,75,54
29834,note_on,,,,,21,0,1,,,,,0,,,70,0
29834,note_on,,,,,0,0,1,,,,,0,,,75,0
29850,note_on,,,,,16,0,1,,,,,0,,,66,35
29857,note_on,,,,,7,0,1,,,,,0,,,71,33
29881,note_on,,,,,24,0,1,,,,,0,,,66,0
29882,note_on,,,,,1,0,1,,,,,0,,,71,0
29891,note_on,,,,,9,0,1,,,,,0,,,75,53
29894,note_on,,,,,3,0,1,,,,,0,,,70,35
29914,note_on,,,,,20,0,1,,,,,0,,,70,0
29919,note_on,,,,,5,0,1,,,,,0,,,75,0
29936,note_on,,,,,17,0,1,,,,,0,,,44,64
29940,note_on,,,,,4,0,1,,,,,0,,,66,33
29942,note_on,,,,,2,0,1,,,,,0,,,71,53
29945,note_on,,,,,3,0,1,,,,,0,,,51,0
29964,control_change,,,,,19,0,1,,,,,0,64,56,,
29966,note_on,,,,,2,0,1,,,,,0,,,66,0
29968,control_change,,,,,2,0,1,,,,,0,64,0,,
29973,note_on,,,,,5,0,1,,,,,0,,,71,0
29982,note_on,,,,,9,0,1,,,,,0,,,75,53
29982,note_on,,,,,0,0,1,,,,,0,,,70,37
29988,control_change,,,,,6,0,1,,,,,0,64,56,,
29992,control_change,,,,,4,0,1,,,,,0,64,127,,
30008,note_on,,,,,0,0,1,,,,,0,,,75,0
30008,note_on,,,,,16,0,1,,,,,0,,,70,0
30022,note_on,,,,,14,0,1,,,,,0,,,66,33
30026,note_on,,,,,4,0,1,,,,,0,,,71,46
30049,note_on,,,,,23,0,1,,,,,0,,,66,0
30053,note_on,,,,,4,0,1,,,,,0,,,71,0
30061,note_on,,,,,0,0,1,,,,,0,,,70,34
30061,note_on,,,,,8,0,1,,,,,0,,,75,53
30087,note_on,,,,,0,0,1,,,,,0,,,75,0
30087,note_on,,,,,26,0,1,,,,,0,,,70,0
30103,note_on,,,,,16,0,1,,,,,0,,,44,0
30106,note_on,,,,,3,0,1,,,,,0,,,66,33
30109,note_on,,,,,3,0,1,,,,,0,,,37,43
30111,note_on,,,,,2,0,1,,,,,0,,,71,47
30130,control_change,,,,,19,0,1,,,,,0,64,72,,
30134,control_change,,,,,4,0,1,,,,,0,64,0,,
30140,note_on,,,,,6,0,1,,,,,0,,,66,0
30151,note_on,,,,,11,0,1,,,,,0,,,71,0
30151,note_on,,,,,0,0,1,,,,,0,,,75,45
30151,note_on,,,,,0,0,1,,,,,0,,,68,34
30154,control_change,,,,,3,0,1,,,,,0,64,24,,
30158,control_change,,,,,4,0,1,,,,,0,64,104,,
30161,control_change,,,,,3,0,1,,,,,0,64,127,,
30169,note_on,,,,,0,0,1,,,,,0,,,75,0
30169,note_on,,,,,8,0,1,,,,,0,,,68,0
30190,note_on,,,,,21,0,1,,,,,0,,,66,35
30192,note_on,,,,,2,0,1,,,,,0,,,71,53
30223,note_on,,,,,31,0,1,,,,,0,,,66,0
30228,note_on,,,,,5,0,1,,,,,0,,,71,0
30234,note_on,,,,,0,0,1,,,,,0,,,68,35
30234,note_on,,,,,6,0,1,,,,,0,,,75,52
30256,note_on,,,,,0,0,1,,,,,0,,,75,0
30256,note_on,,,,,22,0,1,,,,,0,,,68,0
30278,note_on,,,,,22,0,1,,,,,0,,,65,59
30282,note_on,,,,,4,0,1,,,,,0,,,71,61
30295,control_change,,,,,13,0,1,,,,,0,64,56,,
30299,control_change,,,,,4,0,1,,,,,0,64,0,,
30315,control_change,,,,,16,0,1,,,,,0,64,72,,
30318,note_on,,,,,3,0,1,,,,,0,,,65,0
30319,control_change,,,,,1,0,1,,,,,0,64,127,,
30326,note_on,,,,,7,0,1,,,,,0,,,71,0
30326,note_on,,,,,0,0,1,,,,,0,,,68,34
30326,note_on,,,,,0,0,1,,,,,0,,,73,53
30352,note_on,,,,,0,0,1,,,,,0,,,73,0
30352,note_on,,,,,26,0,1,,,,,0,,,68,0
30366,note_on,,,,,14,0,1,,,,,0,,,65,66
30370,note_on,,,,,4,0,1,,,,,0,,,71,60
30405,note_on,,,,,35,0,1,,,,,0,,,65,0
30412,note_on,,,,,7,0,1,,,,,0,,,71,0
30419,note_on,,,,,0,0,1,,,,,0,,,68,32
30419,note_on,,,,,7,0,1,,,,,0,,,73,47
30434,note_on,,,,,15,0,1,,,,,0,,,37,0
30442,note_on,,,,,0,0,1,,,,,0,,,73,0
30442,note_on,,,,,8,0,1,,,,,0,,,68,0
30454,note_on,,,,,12,0,1,,,,,0,,,63,61
30463,note_on,,,,,9,0,1,,,,,0,,,71,42
30489,note_on,,,,,26,0,1,,,,,0,,,71,0
30491,note_on,,,,,2,0,1,,,,,0,,,63,0
30509,note_on,,,,,0,0,1,,,,,0,,,68,30
30509,note_on,,,,,18,0,1,,,,,0,,,73,44
30530,note_on,,,,,0,0,1,,,,,0,,,73,0
30530,note_on,,,,,21,0,1,,,,,0,,,68,0
30552,note_on,,,,,22,0,1,,,,,0,,,63,55
30560,note_on,,,,,0,0,1,,,,,0,,,71,36
30560,note_on,,,,,8,0,1,,,,,0,,,53,41
30565,note_on,,,,,5,0,1,,,,,0,,,68,19
30577,control_change,,,,,12,0,1,,,,,0,64,104,,
30581,control_change,,,,,4,0,1,,,,,0,64,40,,
30585,control_change,,,,,4,0,1,,,,,0,64,0,,
30601,control_change,,,,,16,0,1,,,,,0,64,24,,
30606,control_change,,,,,5,0,1,,,,,0,64,88,,
30607,note_on,,,,,1,0,1,,,,,0,,,63,0
30610,control_change,,,,,3,0,1,,,,,0,64,127,,
30611,note_on,,,,,1,0,1,,,,,0,,,73,40
30622,note_on,,,,,11,0,1,,,,,0,,,68,0
30622,note_on,,,,,0,0,1,,,,,0,,,71,0
30642,note_on,,,,,20,0,1,,,,,0,,,73,0
30660,note_on,,,,,18,0,1,,,,,0,,,71,21
30660,note_on,,,,,0,0,1,,,,,0,,,61,53
30674,control_change,,,,,14,0,1,,,,,0,64,40,,
30678,control_change,,,,,4,0,1,,,,,0,64,0,,
30693,control_change,,,,,15,0,1,,,,,0,64,72,,
30697,note_on,,,,,4,0,1,,,,,0,,,71,0
30697,control_change,,,,,0,0,1,,,,,0,64,127,,
30709,note_on,,,,,12,0,1,,,,,0,,,53,0
30711,note_on,,,,,2,0,1,,,,,0,,,61,0
30730,note_on,,,,,19,0,1,,,,,0,,,68,20
30730,note_on,,,,,0,0,1,,,,,0,,,73,33
30752,note_on,,,,,22,0,1,,,,,0,,,73,0
30780,note_on,,,,,28,0,1,,,,,0,,,68,0
30803,control_change,,,,,23,0,1,,,,,0,64,104,,
30807,control_change,,,,,4,0,1,,,,,0,64,0,,
30816,note_on,,,,,9,0,1,,,,,0,,,61,67
30819,note_on,,,,,3,0,1,,,,,0,,,30,35
30820,note_on,,,,,1,0,1,,,,,0,,,42,27
30823,control_change,,,,,3,0,1,,,,,0,64,56,,
30827,control_change,,,,,4,0,1,,,,,0,64,127,,
30837,note_on,,,,,10,0,1,,,,,0,,,30,0
30840,note_on,,,,,3,0,1,,,,,0,,,42,0
30842,note_on,,,,,2,0,1,,,,,0,,,61,0
30862,note_on,,,,,20,0,1,,,,,0,,,66,39
30877,note_on,,,,,15,0,1,,,,,0,,,66,0
30877,note_on,,,,,0,0,1,,,,,0,,,70,40
30890,note_on,,,,,0,0,1,,,,,0,,,49,35
30890,note_on,,,,,13,0,1,,,,,0,,,63,35
30904,note_on,,,,,14,0,1,,,,,0,,,73,48
30906,note_on,,,,,2,0,1,,,,,0,,,70,0
30913,note_on,,,,,7,0,1,,,,,0,,,63,0
30913,note_on,,,,,0,0,1,,,,,0,,,49,0
30935,note_on,,,,,22,0,1,,,,,0,,,54,51
30937,note_on,,,,,2,0,1,,,,,0,,,61,34
30949,note_on,,,,,12,0,1,,,,,0,,,61,0
30957,note_on,,,,,8,0,1,,,,,0,,,54,0
30976,note_on,,,,,19,0,1,,,,,0,,,63,44
30980,note_on,,,,,4,0,1,,,,,0,,,58,39
30988,note_on,,,,,8,0,1,,,,,0,,,63,0
30990,note_on,,,,,2,0,1,,,,,0,,,58,0
31019,note_on,,,,,29,0,1,,,,,0,,,61,39
31031,note_on,,,,,12,0,1,,,,,0,,,61,0
31059,note_on,,,,,0,0,1,,,,,0,,,58,35
31059,note_on,,,,,28,0,1,,,,,0,,,63,44
31072,note_on,,,,,0,0,1,,,,,0,,,63,0
31072,note_on,,,,,13,0,1,,,,,0,,,58,0
31102,note_on,,,,,30,0,1,,,,,0,,,61,46
31102,note_on,,,,,0,0,1,,,,,0,,,54,46
31125,note_on,,,,,0,0,1,,,,,0,,,61,0
31125,note_on,,,,,23,0,1,,,,,0,,,54,0
31143,note_on,,,,,18,0,1,,,,,0,,,63,48
31149,note_on,,,,,6,0,1,,,,,0,,,49,37
31150,note_on,,,,,1,0,1,,,,,0,,,63,0
31164,note_on,,,,,14,0,1,,,,,0,,,49,0
31195,note_on,,,,,31,0,1,,,,,0,,,73,0
31196,note_on,,,,,1,0,1,,,,,0,,,66,74
31206,control_change,,,,,10,0,1,,,,,0,64,104,,
31209,note_on,,,,,3,0,1,,,,,0,,,42,28
31210,control_change,,,,,1,0,1,,,,,0,64,40,,
31214,control_change,,,,,4,0,1,,,,,0,64,0,,
31226,control_change,,,,,12,0,1,,,,,0,64,72,,
31228,note_on,,,,,2,0,1,,,,,0,,,42,0
31230,control_change,,,,,2,0,1,,,,,0,64,127,,
31241,note_on,,,,,11,0,1,,,,,0,,,70,30
31244,note_on,,,,,3,0,1,,,,,0,,,73,52
31255,note_on,,,,,11,0,1,,,,,0,,,70,0
31256,note_on,,,,,0,0,1,,,,,0,,,49,36
31256,note_on,,,,,1,0,1,,,,,0,,,63,47
31260,note_on,,,,,4,0,1,,,,,0,,,66,0
31265,note_on,,,,,0,0,1,,,,,0,,,63,0
31265,note_on,,,,,5,0,1,,,,,0,,,49,0
31270,note_on,,,,,5,0,1,,,,,0,,,78,52
31294,note_on,,,,,24,0,1,,,,,0,,,61,42
31295,note_on,,,,,1,0,1,,,,,0,,,54,46
31299,note_on,,,,,4,0,1,,,,,0,,,73,0
31301,note_on,,,,,2,0,1,,,,,0,,,61,0
31307,note_on,,,,,6,0,1,,,,,0,,,54,0
31330,note_on,,,,,23,0,1,,,,,0,,,63,36
31338,note_on,,,,,8,0,1,,,,,0,,,58,19
31340,note_on,,,,,2,0,1,,,,,0,,,63,0
31346,note_on,,,,,6,0,1,,,,,0,,,58,0
31357,note_on,,,,,11,0,1,,,,,0,,,78,0
31360,note_on,,,,,3,0,1,,,,,0,,,68,68
31371,note_on,,,,,11,0,1,,,,,0,,,61,44
31386,note_on,,,,,15,0,1,,,,,0,,,61,0
31398,note_on,,,,,12,0,1,,,,,0,,,70,44
31402,note_on,,,,,4,0,1,,,,,0,,,73,56
31413,note_on,,,,,11,0,1,,,,,0,,,63,54
31417,note_on,,,,,4,0,1,,,,,0,,,58,37
31423,note_on,,,,,6,0,1,,,,,0,,,70,0
31425,note_on,,,,,2,0,1,,,,,0,,,58,0
31427,note_on,,,,,2,0,1,,,,,0,,,63,0
31431,note_on,,,,,4,0,1,,,,,0,,,80,58
31432,note_on,,,,,1,0,1,,,,,0,,,73,0
31451,note_on,,,,,19,0,1,,,,,0,,,61,46
31451,note_on,,,,,0,0,1,,,,,0,,,54,51
31454,note_on,,,,,3,0,1,,,,,0,,,68,0
31482,note_on,,,,,28,0,1,,,,,0,,,54,0
31482,note_on,,,,,0,0,1,,,,,0,,,61,0
31494,note_on,,,,,12,0,1,,,,,0,,,63,45
31494,note_on,,,,,0,0,1,,,,,0,,,49,42
31506,note_on,,,,,12,0,1,,,,,0,,,49,0
31506,note_on,,,,,0,0,1,,,,,0,,,63,0
31554,note_on,,,,,48,0,1,,,,,0,,,80,0
31555,note_on,,,,,1,0,1,,,,,0,,,70,72
31561,note_on,,,,,6,0,1,,,,,0,,,30,35
31565,control_change,,,,,4,0,1,,,,,0,64,88,,
31569,control_change,,,,,4,0,1,,,,,0,64,0,,
31586,note_on,,,,,17,0,1,,,,,0,,,30,0
31590,control_change,,,,,4,0,1,,,,,0,64,88,,
31594,control_change,,,,,4,0,1,,,,,0,64,127,,
31596,note_on,,,,,2,0,1,,,,,0,,,73,39
31608,note_on,,,,,12,0,1,,,,,0,,,78,53
31621,note_on,,,,,13,0,1,,,,,0,,,73,0
31627,note_on,,,,,0,0,1,,,,,0,,,49,36
31627,note_on,,,,,6,0,1,,,,,0,,,63,45
31639,note_on,,,,,12,0,1,,,,,0,,,82,63
31646,note_on,,,,,0,0,1,,,,,0,,,63,0
31646,note_on,,,,,7,0,1,,,,,0,,,49,0
31664,note_on,,,,,18,0,1,,,,,0,,,61,39
31665,note_on,,,,,1,0,1,,,,,0,,,54,48
31675,note_on,,,,,10,0,1,,,,,0,,,61,0
31683,note_on,,,,,8,0,1,,,,,0,,,54,0
31702,note_on,,,,,19,0,1,,,,,0,,,63,49
31706,note_on,,,,,4,0,1,,,,,0,,,58,38
31714,note_on,,,,,0,0,1,,,,,0,,,63,0
31714,note_on,,,,,8,0,1,,,,,0,,,58,0
31741,note_on,,,,,27,0,1,,,,,0,,,61,53
31757,note_on,,,,,16,0,1,,,,,0,,,61,0
31782,note_on,,,,,25,0,1,,,,,0,,,63,58
31789,note_on,,,,,7,0,1,,,,,0,,,58,31
31797,note_on,,,,,0,0,1,,,,,0,,,63,0
31797,note_on,,,,,8,0,1,,,,,0,,,58,0
31822,note_on,,,,,25,0,1,,,,,0,,,54,46
31826,note_on,,,,,4,0,1,,,,,0,,,61,47
31836,note_on,,,,,10,0,1,,,,,0,,,61,0
31842,note_on,,,,,6,0,1,,,,,0,,,54,0
31861,note_on,,,,,19,0,1,,,,,0,,,63,58
31864,note_on,,,,,3,0,1,,,,,0,,,49,60
31868,note_on,,,,,4,0,1,,,,,0,,,63,0
31878,note_on,,,,,10,0,1,,,,,0,,,49,0
31907,note_on,,,,,29,0,1,,,,,0,,,42,57
31916,note_on,,,,,9,0,1,,,,,0,,,42,0
31946,note_on,,,,,0,0,1,,,,,0,,,49,45
31946,note_on,,,,,30,0,1,,,,,0,,,63,60
31954,note_on,,,,,0,0,1,,,,,0,,,63,0
31954,note_on,,,,,8,0,1,,,,,0,,,49,0
31983,note_on,,,,,29,0,1,,,,,0,,,78,0
31985,note_on,,,,,2,0,1,,,,,0,,,54,44
31986,note_on,,,,,1,0,1,,,,,0,,,61,55
31987,note_on,,,,,1,0,1,,,,,0,,,82,0
31988,note_on,,,,,1,0,1,,,,,0,,,70,0
31996,note_on,,,,,8,0,1,,,,,0,,,61,0
32002,note_on,,,,,6,0,1,,,,,0,,,54,0
32022,note_on,,,,,20,0,1,,,,,0,,,63,50
32024,note_on,,,,,2,0,1,,,,,0,,,58,44
32032,note_on,,,,,0,0,1,,,,,0,,,63,0
32032,note_on,,,,,8,0,1,,,,,0,,,58,0
32061,note_on,,,,,29,0,1,,,,,0,,,66,77
32066,note_on,,,,,0,0,1,,,,,0,,,61,42
32066,control_change,,,,,5,0,1,,,,,0,64,88,,
32070,control_change,,,,,4,0,1,,,,,0,64,56,,
32074,control_change,,,,,4,0,1,,,,,0,64,88,,
32078,control_change,,,,,4,0,1,,,,,0,64,127,,
32082,note_on,,,,,4,0,1,,,,,0,,,61,0
32096,note_on,,,,,14,0,1,,,,,0,,,70,34
32100,note_on,,,,,4,0,1,,,,,0,,,73,40
32110,note_on,,,,,10,0,1,,,,,0,,,63,44
32111,note_on,,,,,1,0,1,,,,,0,,,58,42
32113,note_on,,,,,2,0,1,,,,,0,,,78,55
32119,note_on,,,,,6,0,1,,,,,0,,,58,0
32120,note_on,,,,,1,0,1,,,,,0,,,63,0
32145,note_on,,,,,25,0,1,,,,,0,,,78,0
32149,note_on,,,,,0,0,1,,,,,0,,,54,44
32149,note_on,,,,,4,0,1,,,,,0,,,61,46
32151,note_on,,,,,2,0,1,,,,,0,,,73,0
32152,note_on,,,,,1,0,1,,,,,0,,,70,0
32159,note_on,,,,,7,0,1,,,,,0,,,66,0
32175,note_on,,,,,16,0,1,,,,,0,,,54,0
32175,note_on,,,,,0,0,1,,,,,0,,,61,0
32197,note_on,,,,,0,0,1,,,,,0,,,49,49
32197,note_on,,,,,22,0,1,,,,,0,,,63,49
32209,note_on,,,,,0,0,1,,,,,0,,,63,0
32209,note_on,,,,,12,0,1,,,,,0,,,49,0
32252,note_on,,,,,43,0,1,,,,,0,,,63,77
32263,control_change,,,,,11,0,1,,,,,0,64,40,,
32267,note_on,,,,,0,0,1,,,,,0,,,30,35
32267,control_change,,,,,4,0,1,,,,,0,64,0,,
32269,note_on,,,,,2,0,1,,,,,0,,,42,42
32275,note_on,,,,,6,0,1,,,,,0,,,30,0
32276,note_on,,,,,1,0,1,,,,,0,,,42,0
32283,control_change,,,,,7,0,1,,,,,0,64,40,,
32287,control_change,,,,,4,0,1,,,,,0,64,127,,
32293,note_on,,,,,6,0,1,,,,,0,,,66,34
32304,note_on,,,,,11,0,1,,,,,0,,,71,41
32309,note_on,,,,,0,0,1,,,,,0,,,63,0
32309,note_on,,,,,5,0,1,,,,,0,,,66,0
32316,note_on,,,,,7,0,1,,,,,0,,,75,54
32323,note_on,,,,,0,0,1,,,,,0,,,54,46
32323,note_on,,,,,7,0,1,,,,,0,,,61,46
32325,note_on,,,,,2,0,1,,,,,0,,,71,0
32332,note_on,,,,,0,0,1,,,,,0,,,61,0
32332,note_on,,,,,7,0,1,,,,,0,,,54,0
32356,note_on,,,,,24,0,1,,,,,0,,,59,62
32356,note_on,,,,,0,0,1,,,,,0,,,51,46
32381,note_on,,,,,0,0,1,,,,,0,,,59,0
32381,note_on,,,,,25,0,1,,,,,0,,,51,0
32391,note_on,,,,,10,0,1,,,,,0,,,75,0
32393,note_on,,,,,2,0,1,,,,,0,,,61,60
32394,note_on,,,,,1,0,1,,,,,0,,,51,50
32401,note_on,,,,,7,0,1,,,,,0,,,51,0
32407,note_on,,,,,6,0,1,,,,,0,,,61,0
32426,note_on,,,,,19,0,1,,,,,0,,,66,78
32432,note_on,,,,,6,0,1,,,,,0,,,63,56
32432,note_on,,,,,0,0,1,,,,,0,,,54,40
32457,note_on,,,,,0,0,1,,,,,0,,,63,0
32457,note_on,,,,,25,0,1,,,,,0,,,54,0
32466,note_on,,,,,9,0,1,,,,,0,,,75,62
32466,note_on,,,,,0,0,1,,,,,0,,,71,37
32467,note_on,,,,,1,0,1,,,,,0,,,66,0
32474,note_on,,,,,7,0,1,,,,,0,,,65,39
32474,note_on,,,,,0,0,1,,,,,0,,,59,51
32476,note_on,,,,,2,0,1,,,,,0,,,71,0
32486,note_on,,,,,10,0,1,,,,,0,,,65,0
32487,note_on,,,,,1,0,1,,,,,0,,,59,0
32490,note_on,,,,,3,0,1,,,,,0,,,75,0
32491,note_on,,,,,1,0,1,,,,,0,,,78,58
32506,note_on,,,,,15,0,1,,,,,0,,,63,64
32509,note_on,,,,,3,0,1,,,,,0,,,78,0
32534,note_on,,,,,25,0,1,,,,,0,,,63,0
32542,note_on,,,,,8,0,1,,,,,0,,,65,58
32544,note_on,,,,,2,0,1,,,,,0,,,54,36
32550,note_on,,,,,6,0,1,,,,,0,,,59,36
32551,note_on,,,,,1,0,1,,,,,0,,,65,0
32559,note_on,,,,,8,0,1,,,,,0,,,59,0
32562,note_on,,,,,3,0,1,,,,,0,,,54,0
32582,note_on,,,,,20,0,1,,,,,0,,,71,79
32586,control_change,,,,,4,0,1,,,,,0,64,56,,
32590,control_change,,,,,4,0,1,,,,,0,64,0,,
32592,note_on,,,,,2,0,1,,,,,0,,,42,67
32600,note_on,,,,,8,0,1,,,,,0,,,42,0
32606,control_change,,,,,6,0,1,,,,,0,64,56,,
32610,control_change,,,,,4,0,1,,,,,0,64,127,,
32616,note_on,,,,,6,0,1,,,,,0,,,75,53
32621,note_on,,,,,5,0,1,,,,,0,,,78,50
32628,note_on,,,,,7,0,1,,,,,0,,,71,0
32635,note_on,,,,,7,0,1,,,,,0,,,59,59
32638,note_on,,,,,3,0,1,,,,,0,,,65,49
32640,note_on,,,,,2,0,1,,,,,0,,,75,0
32644,note_on,,,,,0,0,1,,,,,0,,,83,65
32644,note_on,,,,,4,0,1,,,,,0,,,78,0
32647,note_on,,,,,3,0,1,,,,,0,,,65,0
32654,note_on,,,,,7,0,1,,,,,0,,,83,0
32658,note_on,,,,,4,0,1,,,,,0,,,59,0
32670,note_on,,,,,0,0,1,,,,,0,,,63,64
32670,note_on,,,,,12,0,1,,,,,0,,,54,31
32686,note_on,,,,,16,0,1,,,,,0,,,54,0
32708,note_on,,,,,22,0,1,,,,,0,,,65,48
32708,note_on,,,,,0,0,1,,,,,0,,,59,36
32712,note_on,,,,,4,0,1,,,,,0,,,63,0
32723,note_on,,,,,11,0,1,,,,,0,,,59,0
32723,note_on,,,,,0,0,1,,,,,0,,,65,0
32744,note_on,,,,,21,0,1,,,,,0,,,75,71
32747,note_on,,,,,3,0,1,,,,,0,,,66,50
32753,note_on,,,,,6,0,1,,,,,0,,,59,40
32765,note_on,,,,,12,0,1,,,,,0,,,59,0
32770,note_on,,,,,5,0,1,,,,,0,,,66,0
32773,note_on,,,,,3,0,1,,,,,0,,,78,46
32778,note_on,,,,,5,0,1,,,,,0,,,75,0
32788,note_on,,,,,10,0,1,,,,,0,,,83,46
32790,note_on,,,,,0,0,1,,,,,0,,,63,47
32790,note_on,,,,,2,0,1,,,,,0,,,68,52
32791,note_on,,,,,1,0,1,,,,,0,,,78,0
32797,note_on,,,,,6,0,1,,,,,0,,,87,70
32798,note_on,,,,,1,0,1,,,,,0,,,83,0
32807,note_on,,,,,9,0,1,,,,,0,,,68,0
32810,note_on,,,,,3,0,1,,,,,0,,,63,0
32811,note_on,,,,,1,0,1,,,,,0,,,87,0
32828,note_on,,,,,0,0,1,,,,,0,,,59,46
32828,note_on,,,,,17,0,1,,,,,0,,,66,55
32849,note_on,,,,,21,0,1,,,,,0,,,59,0
32849,note_on,,,,,0,0,1,,,,,0,,,66,0
32868,note_on,,,,,19,0,1,,,,,0,,,68,55
32872,note_on,,,,,4,0,1,,,,,0,,,63,33
32882,note_on,,,,,10,0,1,,,,,0,,,63,0
32883,note_on,,,,,1,0,1,,,,,0,,,68,0
32921,note_on,,,,,38,0,1,,,,,0,,,73,65
32929,control_change,,,,,8,0,1,,,,,0,64,56,,
32933,control_change,,,,,4,0,1,,,,,0,64,0,,
32935,note_on,,,,,2,0,1,,,,,0,,,42,46
32953,note_on,,,,,18,0,1,,,,,0,,,42,0
32955,note_on,,,,,2,0,1,,,,,0,,,78,55
32956,control_change,,,,,1,0,1,,,,,0,64,40,,
32958,note_on,,,,,2,0,1,,,,,0,,,73,0
32961,control_change,,,,,3,0,1,,,,,0,64,127,,
32972,note_on,,,,,11,0,1,,,,,0,,,82,55
32982,note_on,,,,,10,0,1,,,,,0,,,78,0
32995,note_on,,,,,13,0,1,,,,,0,,,61,50
32997,note_on,,,,,2,0,1,,,,,0,,,70,44
32999,note_on,,,,,2,0,1,,,,,0,,,82,0
33000,note_on,,,,,1,0,1,,,,,0,,,85,67
33008,note_on,,,,,8,0,1,,,,,0,,,70,0
33014,note_on,,,,,6,0,1,,,,,0,,,61,0
33031,note_on,,,,,17,0,1,,,,,0,,,66,61
33036,note_on,,,,,5,0,1,,,,,0,,,58,37
33047,note_on,,,,,11,0,1,,,,,0,,,58,0
33054,note_on,,,,,7,0,1,,,,,0,,,66,0
33070,note_on,,,,,16,0,1,,,,,0,,,61,48
33072,note_on,,,,,2,0,1,,,,,0,,,70,47
33078,note_on,,,,,6,0,1,,,,,0,,,61,0
33086,note_on,,,,,8,0,1,,,,,0,,,70,0
33107,note_on,,,,,21,0,1,,,,,0,,,73,48
33107,note_on,,,,,0,0,1,,,,,0,,,66,54
33126,note_on,,,,,19,0,1,,,,,0,,,66,0
33126,note_on,,,,,0,0,1,,,,,0,,,73,0
33147,note_on,,,,,21,0,1,,,,,0,,,75,60
33148,note_on,,,,,1,0,1,,,,,0,,,70,43
33167,note_on,,,,,19,0,1,,,,,0,,,75,0
33168,note_on,,,,,1,0,1,,,,,0,,,70,0
33181,note_on,,,,,13,0,1,,,,,0,,,85,0
33183,note_on,,,,,2,0,1,,,,,0,,,66,58
33184,note_on,,,,,1,0,1,,,,,0,,,73,50
33190,note_on,,,,,6,0,1,,,,,0,,,73,0
33196,note_on,,,,,6,0,1,,,,,0,,,66,0
33216,note_on,,,,,20,0,1,,,,,0,,,70,53
33221,note_on,,,,,5,0,1,,,,,0,,,63,39
33230,note_on,,,,,0,0,1,,,,,0,,,70,0
33230,note_on,,,,,9,0,1,,,,,0,,,63,0
33254,note_on,,,,,24,0,1,,,,,0,,,70,57
33266,note_on,,,,,12,0,1,,,,,0,,,66,40
33266,note_on,,,,,0,0,1,,,,,0,,,73,53
33270,note_on,,,,,4,0,1,,,,,0,,,70,0
33270,note_on,,,,,0,0,1,,,,,0,,,61,34
33276,note_on,,,,,6,0,1,,,,,0,,,66,0
33279,note_on,,,,,3,0,1,,,,,0,,,61,0
33288,note_on,,,,,9,0,1,,,,,0,,,73,0
33289,note_on,,,,,1,0,1,,,,,0,,,78,54
33308,note_on,,,,,19,0,1,,,,,0,,,70,44
33310,note_on,,,,,2,0,1,,,,,0,,,63,34
33314,note_on,,,,,0,0,1,,,,,0,,,82,56
33314,note_on,,,,,4,0,1,,,,,0,,,78,0
33324,note_on,,,,,10,0,1,,,,,0,,,63,0
33327,note_on,,,,,3,0,1,,,,,0,,,70,0
33339,note_on,,,,,12,0,1,,,,,0,,,66,34
33340,note_on,,,,,1,0,1,,,,,0,,,61,43
33346,note_on,,,,,6,0,1,,,,,0,,,66,0
33351,note_on,,,,,5,0,1,,,,,0,,,61,0
33376,note_on,,,,,25,0,1,,,,,0,,,63,44
33379,note_on,,,,,3,0,1,,,,,0,,,58,39
33389,note_on,,,,,10,0,1,,,,,0,,,58,0
33393,note_on,,,,,4,0,1,,,,,0,,,63,0
33419,note_on,,,,,26,0,1,,,,,0,,,61,42
33428,note_on,,,,,9,0,1,,,,,0,,,61,0
33428,note_on,,,,,0,0,1,,,,,0,,,54,28
33438,note_on,,,,,10,0,1,,,,,0,,,54,0
33455,note_on,,,,,17,0,1,,,,,0,,,63,48
33459,note_on,,,,,4,0,1,,,,,0,,,58,35
33478,note_on,,,,,19,0,1,,,,,0,,,63,0
33496,note_on,,,,,18,0,1,,,,,0,,,61,44
33498,note_on,,,,,2,0,1,,,,,0,,,58,0
33500,note_on,,,,,2,0,1,,,,,0,,,54,35
33504,note_on,,,,,4,0,1,,,,,0,,,61,0
33508,note_on,,,,,4,0,1,,,,,0,,,54,0
33536,note_on,,,,,28,0,1,,,,,0,,,58,42
33536,note_on,,,,,0,0,1,,,,,0,,,49,44
33542,note_on,,,,,6,0,1,,,,,0,,,82,0
33546,note_on,,,,,4,0,1,,,,,0,,,49,0
33546,note_on,,,,,0,0,1,,,,,0,,,58,0
33596,note_on,,,,,50,0,1,,,,,0,,,68,75
33602,control_change,,,,,6,0,1,,,,,0,64,104,,
33606,control_change,,,,,4,0,1,,,,,0,64,0,,
33612,note_on,,,,,6,0,1,,,,,0,,,35,40
33616,note_on,,,,,4,0,1,,,,,0,,,47,44
33620,note_on,,,,,4,0,1,,,,,0,,,35,0
33626,note_on,,,,,6,0,1,,,,,0,,,47,0
33627,control_change,,,,,1,0,1,,,,,0,64,40,,
33631,control_change,,,,,4,0,1,,,,,0,64,127,,
33632,note_on,,,,,1,0,1,,,,,0,,,73,32
33639,note_on,,,,,7,0,1,,,,,0,,,77,66
33646,note_on,,,,,7,0,1,,,,,0,,,68,0
33654,note_on,,,,,8,0,1,,,,,0,,,73,0
33661,note_on,,,,,7,0,1,,,,,0,,,80,55
33662,note_on,,,,,1,0,1,,,,,0,,,77,0
33662,note_on,,,,,0,0,1,,,,,0,,,63,55
33662,note_on,,,,,0,0,1,,,,,0,,,56,50
33680,note_on,,,,,18,0,1,,,,,0,,,80,0
33685,note_on,,,,,5,0,1,,,,,0,,,56,0
33685,note_on,,,,,0,0,1,,,,,0,,,63,0
33695,note_on,,,,,10,0,1,,,,,0,,,61,57
33704,note_on,,,,,9,0,1,,,,,0,,,53,35
33724,note_on,,,,,20,0,1,,,,,0,,,61,0
33730,note_on,,,,,6,0,1,,,,,0,,,63,64
33730,note_on,,,,,0,0,1,,,,,0,,,56,40
33736,note_on,,,,,6,0,1,,,,,0,,,53,0
33746,note_on,,,,,10,0,1,,,,,0,,,56,0
33746,note_on,,,,,0,0,1,,,,,0,,,63,0
33764,note_on,,,,,18,0,1,,,,,0,,,75,84
33774,note_on,,,,,10,0,1,,,,,0,,,65,55
33774,note_on,,,,,0,0,1,,,,,0,,,61,42
33795,note_on,,,,,21,0,1,,,,,0,,,61,0
33795,note_on,,,,,0,0,1,,,,,0,,,65,0
33802,note_on,,,,,0,0,1,,,,,0,,,77,36
33802,note_on,,,,,7,0,1,,,,,0,,,80,60
33810,note_on,,,,,8,0,1,,,,,0,,,75,0
33811,note_on,,,,,1,0,1,,,,,0,,,68,52
33812,note_on,,,,,1,0,1,,,,,0,,,77,0
33818,note_on,,,,,6,0,1,,,,,0,,,63,35
33825,note_on,,,,,0,0,1,,,,,0,,,87,65
33825,note_on,,,,,7,0,1,,,,,0,,,80,0
33830,note_on,,,,,5,0,1,,,,,0,,,63,0
33836,note_on,,,,,6,0,1,,,,,0,,,68,0
33845,note_on,,,,,9,0,1,,,,,0,,,87,0
33856,note_on,,,,,11,0,1,,,,,0,,,65,52
33858,note_on,,,,,2,0,1,,,,,0,,,61,44
33878,note_on,,,,,20,0,1,,,,,0,,,61,0
33884,note_on,,,,,6,0,1,,,,,0,,,65,0
33895,note_on,,,,,0,0,1,,,,,0,,,56,44
33895,note_on,,,,,11,0,1,,,,,0,,,63,50
33912,note_on,,,,,17,0,1,,,,,0,,,73,77
33915,note_on,,,,,3,0,1,,,,,0,,,56,0
33915,note_on,,,,,0,0,1,,,,,0,,,63,0
33935,note_on,,,,,20,0,1,,,,,0,,,73,0
33951,note_on,,,,,16,0,1,,,,,0,,,73,74
33957,control_change,,,,,6,0,1,,,,,0,64,56,,
33961,note_on,,,,,4,0,1,,,,,0,,,46,43
33962,control_change,,,,,1,0,1,,,,,0,64,0,,
33962,note_on,,,,,0,0,1,,,,,0,,,34,45
33974,note_on,,,,,12,0,1,,,,,0,,,34,0
33982,note_on,,,,,8,0,1,,,,,0,,,46,0
33986,control_change,,,,,4,0,1,,,,,0,64,56,,
33986,note_on,,,,,0,0,1,,,,,0,,,78,53
33988,note_on,,,,,2,0,1,,,,,0,,,73,0
33990,control_change,,,,,2,0,1,,,,,0,64,127,,
34006,note_on,,,,,16,0,1,,,,,0,,,82,61
34011,note_on,,,,,5,0,1,,,,,0,,,78,0
34022,note_on,,,,,11,0,1,,,,,0,,,63,52
34022,note_on,,,,,0,0,1,,,,,0,,,58,47
34030,note_on,,,,,0,0,1,,,,,0,,,85,67
34030,note_on,,,,,8,0,1,,,,,0,,,58,0
34030,note_on,,,,,0,0,1,,,,,0,,,63,0
34060,note_on,,,,,30,0,1,,,,,0,,,61,63
34067,note_on,,,,,7,0,1,,,,,0,,,54,49
34090,note_on,,,,,23,0,1,,,,,0,,,54,0
34094,note_on,,,,,4,0,1,,,,,0,,,63,63
34100,note_on,,,,,6,0,1,,,,,0,,,61,0
34109,note_on,,,,,9,0,1,,,,,0,,,63,0
34137,note_on,,,,,28,0,1,,,,,0,,,82,0
34138,note_on,,,,,0,0,1,,,,,0,,,61,38
34138,note_on,,,,,1,0,1,,,,,0,,,66,57
34150,note_on,,,,,12,0,1,,,,,0,,,61,0
34150,note_on,,,,,0,0,1,,,,,0,,,66,0
34161,note_on,,,,,11,0,1,,,,,0,,,85,0
34176,note_on,,,,,0,0,1,,,,,0,,,63,45
34176,note_on,,,,,15,0,1,,,,,0,,,70,58
34183,note_on,,,,,0,0,1,,,,,0,,,70,0
34183,note_on,,,,,7,0,1,,,,,0,,,63,0
34214,note_on,,,,,31,0,1,,,,,0,,,66,81
34220,note_on,,,,,6,0,1,,,,,0,,,61,47
34230,note_on,,,,,10,0,1,,,,,0,,,61,0
34249,note_on,,,,,19,0,1,,,,,0,,,63,52
34249,note_on,,,,,0,0,1,,,,,0,,,58,49
34257,note_on,,,,,0,0,1,,,,,0,,,63,0
34257,note_on,,,,,8,0,1,,,,,0,,,58,0
34258,note_on,,,,,1,0,1,,,,,0,,,66,0
34301,note_on,,,,,43,0,1,,,,,0,,,65,82
34303,control_change,,,,,2,0,1,,,,,0,64,40,,
34308,control_change,,,,,5,0,1,,,,,0,64,0,,
34314,note_on,,,,,6,0,1,,,,,0,,,32,60
34315,note_on,,,,,1,0,1,,,,,0,,,44,42
34329,note_on,,,,,14,0,1,,,,,0,,,32,0
34331,note_on,,,,,2,0,1,,,,,0,,,44,0
34331,note_on,,,,,0,0,1,,,,,0,,,73,56
34332,control_change,,,,,1,0,1,,,,,0,64,127,,
34340,note_on,,,,,8,0,1,,,,,0,,,71,33
34346,note_on,,,,,6,0,1,,,,,0,,,65,0
34350,note_on,,,,,4,0,1,,,,,0,,,71,0
34354,note_on,,,,,4,0,1,,,,,0,,,77,67
34363,note_on,,,,,9,0,1,,,,,0,,,73,0
34365,note_on,,,,,0,0,1,,,,,0,,,59,48
34365,note_on,,,,,2,0,1,,,,,0,,,63,66
34372,note_on,,,,,7,0,1,,,,,0,,,77,0
34389,note_on,,,,,17,0,1,,,,,0,,,59,0
34389,note_on,,,,,0,0,1,,,,,0,,,63,0
34400,note_on,,,,,11,0,1,,,,,0,,,53,47
34400,note_on,,,,,0,0,1,,,,,0,,,61,67
34419,note_on,,,,,19,0,1,,,,,0,,,53,0
34434,note_on,,,,,0,0,1,,,,,0,,,59,44
34434,note_on,,,,,15,0,1,,,,,0,,,63,64
34443,note_on,,,,,9,0,1,,,,,0,,,61,0
34447,note_on,,,,,4,0,1,,,,,0,,,59,0
34447,note_on,,,,,0,0,1,,,,,0,,,63,0
34466,note_on,,,,,19,0,1,,,,,0,,,71,82
34477,note_on,,,,,11,0,1,,,,,0,,,65,58
34481,note_on,,,,,4,0,1,,,,,0,,,61,42
34485,note_on,,,,,4,0,1,,,,,0,,,73,40
34493,note_on,,,,,8,0,1,,,,,0,,,77,61
34496,note_on,,,,,3,0,1,,,,,0,,,65,0
34499,note_on,,,,,3,0,1,,,,,0,,,71,0
34512,note_on,,,,,13,0,1,,,,,0,,,73,0
34512,note_on,,,,,0,0,1,,,,,0,,,83,70
34514,note_on,,,,,2,0,1,,,,,0,,,77,0
34524,note_on,,,,,10,0,1,,,,,0,,,61,0
34526,note_on,,,,,0,0,1,,,,,0,,,61,48
34526,note_on,,,,,2,0,1,,,,,0,,,71,60
34528,note_on,,,,,2,0,1,,,,,0,,,83,0
34570,note_on,,,,,0,0,1,,,,,0,,,65,51
34570,note_on,,,,,0,0,1,,,,,0,,,61,43
34570,note_on,,,,,0,0,1,,,,,0,,,71,0
34570,note_on,,,,,42,0,1,,,,,0,,,61,0
34596,note_on,,,,,0,0,1,,,,,0,,,61,0
34596,note_on,,,,,26,0,1,,,,,0,,,65,0
34610,note_on,,,,,14,0,1,,,,,0,,,59,38
34610,note_on,,,,,0,0,1,,,,,0,,,63,48
34625,note_on,,,,,15,0,1,,,,,0,,,70,68
34636,note_on,,,,,11,0,1,,,,,0,,,63,0
34636,note_on,,,,,0,0,1,,,,,0,,,59,0
34640,note_on,,,,,4,0,1,,,,,0,,,70,0
34662,note_on,,,,,22,0,1,,,,,0,,,70,76
34675,control_change,,,,,13,0,1,,,,,0,64,24,,
34679,control_change,,,,,4,0,1,,,,,0,64,0,,
34682,note_on,,,,,3,0,1,,,,,0,,,30,36
34683,note_on,,,,,1,0,1,,,,,0,,,42,23
34696,note_on,,,,,13,0,1,,,,,0,,,30,0
34702,note_on,,,,,6,0,1,,,,,0,,,42,0
34704,control_change,,,,,2,0,1,,,,,0,64,88,,
34704,note_on,,,,,0,0,1,,,,,0,,,73,49
34708,control_change,,,,,4,0,1,,,,,0,64,127,,
34716,note_on,,,,,8,0,1,,,,,0,,,70,0
34723,note_on,,,,,7,0,1,,,,,0,,,78,59
34729,note_on,,,,,6,0,1,,,,,0,,,73,0
34745,note_on,,,,,16,0,1,,,,,0,,,63,53
34745,note_on,,,,,0,0,1,,,,,0,,,58,46
34762,note_on,,,,,17,0,1,,,,,0,,,82,64
34768,note_on,,,,,6,0,1,,,,,0,,,78,0
34774,note_on,,,,,0,0,1,,,,,0,,,58,0
34774,note_on,,,,,6,0,1,,,,,0,,,63,0
34785,note_on,,,,,11,0,1,,,,,0,,,61,55
34793,note_on,,,,,8,0,1,,,,,0,,,54,40
34818,note_on,,,,,25,0,1,,,,,0,,,61,0
34820,note_on,,,,,2,0,1,,,,,0,,,63,60
34820,note_on,,,,,0,0,1,,,,,0,,,58,42
34822,note_on,,,,,2,0,1,,,,,0,,,54,0
34831,note_on,,,,,9,0,1,,,,,0,,,58,0
34831,note_on,,,,,0,0,1,,,,,0,,,63,0
34855,note_on,,,,,24,0,1,,,,,0,,,66,62
34855,note_on,,,,,0,0,1,,,,,0,,,61,43
34860,note_on,,,,,5,0,1,,,,,0,,,82,0
34878,note_on,,,,,0,0,1,,,,,0,,,66,0
34878,note_on,,,,,18,0,1,,,,,0,,,61,0
34895,note_on,,,,,0,0,1,,,,,0,,,63,46
34895,note_on,,,,,17,0,1,,,,,0,,,70,67
34909,note_on,,,,,14,0,1,,,,,0,,,63,0
34909,note_on,,,,,0,0,1,,,,,0,,,70,0
34942,note_on,,,,,33,0,1,,,,,0,,,69,84
34944,note_on,,,,,0,0,1,,,,,0,,,61,40
34944,note_on,,,,,2,0,1,,,,,0,,,66,47
34969,note_on,,,,,25,0,1,,,,,0,,,69,0
34979,note_on,,,,,0,0,1,,,,,0,,,63,47
34979,note_on,,,,,10,0,1,,,,,0,,,57,42
34980,note_on,,,,,1,0,1,,,,,0,,,61,0
34980,note_on,,,,,0,0,1,,,,,0,,,66,0
34991,note_on,,,,,11,0,1,,,,,0,,,63,0
34994,note_on,,,,,3,0,1,,,,,0,,,57,0
35030,note_on,,,,,36,0,1,,,,,0,,,68,86
35034,control_change,,,,,4,0,1,,,,,0,64,56,,
35038,control_change,,,,,4,0,1,,,,,0,64,0,,
35040,note_on,,,,,2,0,1,,,,,0,,,29,47
35042,note_on,,,,,2,0,1,,,,,0,,,41,25
35049,note_on,,,,,7,0,1,,,,,0,,,29,0
35058,note_on,,,,,9,0,1,,,,,0,,,41,0
35058,control_change,,,,,0,0,1,,,,,0,64,104,,
35062,control_change,,,,,4,0,1,,,,,0,64,127,,
35068,note_on,,,,,6,0,1,,,,,0,,,73,44
35076,note_on,,,,,8,0,1,,,,,0,,,77,73
35083,note_on,,,,,7,0,1,,,,,0,,,68,0
35091,note_on,,,,,0,0,1,,,,,0,,,56,45
35091,note_on,,,,,8,0,1,,,,,0,,,63,60
35097,note_on,,,,,6,0,1,,,,,0,,,73,0
35109,note_on,,,,,12,0,1,,,,,0,,,80,56
35110,note_on,,,,,1,0,1,,,,,0,,,77,0
35113,note_on,,,,,3,0,1,,,,,0,,,56,0
35113,note_on,,,,,0,0,1,,,,,0,,,63,0
35128,note_on,,,,,15,0,1,,,,,0,,,61,64
35138,note_on,,,,,10,0,1,,,,,0,,,53,46
35147,note_on,,,,,9,0,1,,,,,0,,,53,0
35150,note_on,,,,,3,0,1,,,,,0,,,61,0
35163,note_on,,,,,13,0,1,,,,,0,,,56,55
35165,note_on,,,,,2,0,1,,,,,0,,,63,56
35170,note_on,,,,,5,0,1,,,,,0,,,56,0
35173,note_on,,,,,3,0,1,,,,,0,,,63,0
35186,note_on,,,,,13,0,1,,,,,0,,,80,0
35206,note_on,,,,,20,0,1,,,,,0,,,73,87
35216,control_change,,,,,0,0,1,,,,,0,64,24,,
35216,note_on,,,,,10,0,1,,,,,0,,,34,64
35217,note_on,,,,,1,0,1,,,,,0,,,46,59
35219,control_change,,,,,2,0,1,,,,,0,64,0,,
35223,note_on,,,,,4,0,1,,,,,0,,,34,0
35224,note_on,,,,,1,0,1,,,,,0,,,46,0
35232,control_change,,,,,8,0,1,,,,,0,64,40,,
35236,control_change,,,,,4,0,1,,,,,0,64,127,,
35242,note_on,,,,,6,0,1,,,,,0,,,75,42
35252,note_on,,,,,10,0,1,,,,,0,,,79,63
35263,note_on,,,,,11,0,1,,,,,0,,,75,0
35267,note_on,,,,,0,0,1,,,,,0,,,61,42
35267,note_on,,,,,4,0,1,,,,,0,,,65,56
35273,note_on,,,,,6,0,1,,,,,0,,,85,68
35277,note_on,,,,,4,0,1,,,,,0,,,79,0
35281,note_on,,,,,0,0,1,,,,,0,,,65,0
35281,note_on,,,,,4,0,1,,,,,0,,,61,0
35288,note_on,,,,,7,0,1,,,,,0,,,73,0
35302,note_on,,,,,14,0,1,,,,,0,,,63,70
35313,note_on,,,,,11,0,1,,,,,0,,,55,47
35322,note_on,,,,,9,0,1,,,,,0,,,55,0
35327,note_on,,,,,5,0,1,,,,,0,,,63,0
35342,note_on,,,,,15,0,1,,,,,0,,,65,70
35344,note_on,,,,,2,0,1,,,,,0,,,61,64
35349,note_on,,,,,5,0,1,,,,,0,,,65,0
35354,note_on,,,,,5,0,1,,,,,0,,,61,0
35358,note_on,,,,,4,0,1,,,,,0,,,85,0
35405,note_on,,,,,47,0,1,,,,,0,,,73,93
35414,control_change,,,,,9,0,1,,,,,0,64,0,,
35415,note_on,,,,,1,0,1,,,,,0,,,44,47
35418,note_on,,,,,3,0,1,,,,,0,,,32,52
35425,note_on,,,,,7,0,1,,,,,0,,,32,0
35430,note_on,,,,,5,0,1,,,,,0,,,44,0
35430,control_change,,,,,0,0,1,,,,,0,64,72,,
35434,control_change,,,,,4,0,1,,,,,0,64,127,,
35445,note_on,,,,,11,0,1,,,,,0,,,80,60
35454,note_on,,,,,9,0,1,,,,,0,,,77,42
35467,note_on,,,,,13,0,1,,,,,0,,,85,64
35471,note_on,,,,,4,0,1,,,,,0,,,61,48
35474,note_on,,,,,3,0,1,,,,,0,,,66,60
35480,note_on,,,,,6,0,1,,,,,0,,,77,0
35481,note_on,,,,,1,0,1,,,,,0,,,80,0
35482,note_on,,,,,1,0,1,,,,,0,,,66,0
35490,note_on,,,,,8,0,1,,,,,0,,,61,0
35508,note_on,,,,,18,0,1,,,,,0,,,65,64
35511,note_on,,,,,3,0,1,,,,,0,,,85,0
35515,note_on,,,,,4,0,1,,,,,0,,,56,48
35523,note_on,,,,,8,0,1,,,,,0,,,56,0
35525,note_on,,,,,2,0,1,,,,,0,,,65,0
35540,note_on,,,,,15,0,1,,,,,0,,,73,0
35555,note_on,,,,,0,0,1,,,,,0,,,66,62
35555,note_on,,,,,15,0,1,,,,,0,,,61,49
35561,note_on,,,,,6,0,1,,,,,0,,,66,0
35563,note_on,,,,,2,0,1,,,,,0,,,61,0
35582,note_on,,,,,19,0,1,,,,,0,,,75,86
35590,note_on,,,,,0,0,1,,,,,0,,,61,48
35590,note_on,,,,,8,0,1,,,,,0,,,68,62
35608,note_on,,,,,18,0,1,,,,,0,,,61,0
35608,note_on,,,,,0,0,1,,,,,0,,,68,0
35631,note_on,,,,,23,0,1,,,,,0,,,70,64
35633,note_on,,,,,2,0,1,,,,,0,,,65,55
35648,note_on,,,,,15,0,1,,,,,0,,,70,0
35650,note_on,,,,,2,0,1,,,,,0,,,65,0
35654,note_on,,,,,4,0,1,,,,,0,,,75,0
35665,note_on,,,,,11,0,1,,,,,0,,,77,99
35666,note_on,,,,,0,0,1,,,,,0,,,61,49
35666,note_on,,,,,1,0,1,,,,,0,,,68,65
35703,note_on,,,,,37,0,1,,,,,0,,,70,60
35705,note_on,,,,,0,0,1,,,,,0,,,68,0
35705,note_on,,,,,2,0,1,,,,,0,,,61,0
35708,note_on,,,,,3,0,1,,,,,0,,,65,52
35710,note_on,,,,,2,0,1,,,,,0,,,70,0
35716,note_on,,,,,6,0,1,,,,,0,,,65,0
35750,note_on,,,,,34,0,1,,,,,0,,,77,0
35758,note_on,,,,,8,0,1,,,,,0,,,78,89
35772,control_change,,,,,14,0,1,,,,,0,64,0,,
35773,note_on,,,,,1,0,1,,,,,0,,,32,60
35778,note_on,,,,,5,0,1,,,,,0,,,44,38
35788,note_on,,,,,10,0,1,,,,,0,,,32,0
35791,note_on,,,,,3,0,1,,,,,0,,,44,0
35797,control_change,,,,,6,0,1,,,,,0,64,127,,
35813,note_on,,,,,16,0,1,,,,,0,,,78,0
35826,note_on,,,,,0,0,1,,,,,0,,,61,47
35826,note_on,,,,,0,0,1,,,,,0,,,58,47
35826,note_on,,,,,13,0,1,,,,,0,,,66,60
35834,note_on,,,,,8,0,1,,,,,0,,,58,0
35834,note_on,,,,,0,0,1,,,,,0,,,61,0
35834,note_on,,,,,0,0,1,,,,,0,,,66,0
35852,note_on,,,,,18,0,1,,,,,0,,,70,83
35868,note_on,,,,,16,0,1,,,,,0,,,70,0
35870,note_on,,,,,2,0,1,,,,,0,,,78,65
35870,note_on,,,,,0,0,1,,,,,0,,,61,46
35873,note_on,,,,,3,0,1,,,,,0,,,63,40
35879,note_on,,,,,6,0,1,,,,,0,,,54,44
35880,note_on,,,,,1,0,1,,,,,0,,,82,67
35886,note_on,,,,,6,0,1,,,,,0,,,78,0
35899,note_on,,,,,13,0,1,,,,,0,,,63,0
35901,note_on,,,,,2,0,1,,,,,0,,,61,0
35904,note_on,,,,,3,0,1,,,,,0,,,90,84
35905,note_on,,,,,1,0,1,,,,,0,,,82,0
35914,note_on,,,,,9,0,1,,,,,0,,,54,0
35919,note_on,,,,,5,0,1,,,,,0,,,90,0
35923,note_on,,,,,4,0,1,,,,,0,,,61,51
35925,note_on,,,,,2,0,1,,,,,0,,,66,65
35925,note_on,,,,,0,0,1,,,,,0,,,58,53
35932,note_on,,,,,7,0,1,,,,,0,,,66,0
35937,note_on,,,,,5,0,1,,,,,0,,,61,0
35940,note_on,,,,,3,0,1,,,,,0,,,58,0
35973,note_on,,,,,33,0,1,,,,,0,,,77,93
35982,control_change,,,,,0,0,1,,,,,0,64,0,,
35982,note_on,,,,,9,0,1,,,,,0,,,44,60
35982,note_on,,,,,0,0,1,,,,,0,,,32,65
35990,note_on,,,,,8,0,1,,,,,0,,,32,0
35995,note_on,,,,,5,0,1,,,,,0,,,44,0
36002,control_change,,,,,7,0,1,,,,,0,64,56,,
36006,control_change,,,,,4,0,1,,,,,0,64,127,,
36010,note_on,,,,,4,0,1,,,,,0,,,77,0
36035,note_on,,,,,25,0,1,,,,,0,,,68,63
36035,note_on,,,,,0,0,1,,,,,0,,,60,50
36035,note_on,,,,,0,0,1,,,,,0,,,56,50
36055,note_on,,,,,20,0,1,,,,,0,,,56,0
36055,note_on,,,,,0,0,1,,,,,0,,,60,0
36055,note_on,,,,,0,0,1,,,,,0,,,68,0
36060,note_on,,,,,5,0,1,,,,,0,,,80,69
36068,note_on,,,,,8,0,1,,,,,0,,,84,62
36078,note_on,,,,,10,0,1,,,,,0,,,87,53
36078,note_on,,,,,0,0,1,,,,,0,,,60,26
36082,note_on,,,,,4,0,1,,,,,0,,,63,47
36083,note_on,,,,,1,0,1,,,,,0,,,54,53
36090,note_on,,,,,0,0,1,,,,,0,,,92,74
36090,note_on,,,,,7,0,1,,,,,0,,,84,0
36093,note_on,,,,,3,0,1,,,,,0,,,80,0
36097,note_on,,,,,4,0,1,,,,,0,,,87,0
36100,note_on,,,,,3,0,1,,,,,0,,,63,0
36105,note_on,,,,,5,0,1,,,,,0,,,92,0
36109,note_on,,,,,4,0,1,,,,,0,,,60,0
36111,note_on,,,,,2,0,1,,,,,0,,,54,0
36123,note_on,,,,,12,0,1,,,,,0,,,60,45
36124,note_on,,,,,1,0,1,,,,,0,,,68,71
36126,note_on,,,,,2,0,1,,,,,0,,,56,49
36136,note_on,,,,,10,0,1,,,,,0,,,68,0
36139,note_on,,,,,3,0,1,,,,,0,,,60,0
36147,note_on,,,,,8,0,1,,,,,0,,,56,0
36151,note_on,,,,,4,0,1,,,,,0,,,75,86
36174,note_on,,,,,23,0,1,,,,,0,,,75,0
36202,note_on,,,,,28,0,1,,,,,0,,,75,91
36214,note_on,,,,,12,0,1,,,,,0,,,37,50
36214,note_on,,,,,0,0,1,,,,,0,,,25,62
36215,control_change,,,,,1,0,1,,,,,0,64,24,,
36220,control_change,,,,,5,0,1,,,,,0,64,0,,
36228,note_on,,,,,8,0,1,,,,,0,,,25,0
36229,note_on,,,,,1,0,1,,,,,0,,,37,0
36236,control_change,,,,,7,0,1,,,,,0,64,88,,
36240,control_change,,,,,4,0,1,,,,,0,64,127,,
36260,note_on,,,,,20,0,1,,,,,0,,,75,0
36288,note_on,,,,,0,0,1,,,,,0,,,59,44
36288,note_on,,,,,28,0,1,,,,,0,,,68,48
36307,note_on,,,,,19,0,1,,,,,0,,,68,0
36310,note_on,,,,,3,0,1,,,,,0,,,59,0
36316,note_on,,,,,6,0,1,,,,,0,,,80,75
36326,note_on,,,,,10,0,1,,,,,0,,,63,55
36335,note_on,,,,,9,0,1,,,,,0,,,53,41
36337,note_on,,,,,2,0,1,,,,,0,,,83,59
36339,note_on,,,,,2,0,1,,,,,0,,,87,64
36351,note_on,,,,,12,0,1,,,,,0,,,53,0
36362,note_on,,,,,11,0,1,,,,,0,,,92,77
36366,note_on,,,,,4,0,1,,,,,0,,,83,0
36368,note_on,,,,,2,0,1,,,,,0,,,63,0
36381,note_on,,,,,0,0,1,,,,,0,,,59,50
36381,note_on,,,,,13,0,1,,,,,0,,,68,62
36394,note_on,,,,,0,0,1,,,,,0,,,68,0
36394,note_on,,,,,13,0,1,,,,,0,,,59,0
36409,note_on,,,,,15,0,1,,,,,0,,,87,0
36413,note_on,,,,,4,0,1,,,,,0,,,92,0
36416,note_on,,,,,3,0,1,,,,,0,,,68,54
36419,note_on,,,,,3,0,1,,,,,0,,,80,0
36421,note_on,,,,,2,0,1,,,,,0,,,59,48
36434,note_on,,,,,13,0,1,,,,,0,,,59,0
36442,note_on,,,,,8,0,1,,,,,0,,,68,0
36455,note_on,,,,,13,0,1,,,,,0,,,70,60
36463,note_on,,,,,8,0,1,,,,,0,,,65,37
36466,note_on,,,,,3,0,1,,,,,0,,,70,0
36471,note_on,,,,,5,0,1,,,,,0,,,65,0
36492,note_on,,,,,21,0,1,,,,,0,,,68,59
36498,note_on,,,,,6,0,1,,,,,0,,,73,70
36506,note_on,,,,,8,0,1,,,,,0,,,59,33
36519,note_on,,,,,13,0,1,,,,,0,,,68,0
36526,note_on,,,,,7,0,1,,,,,0,,,59,0
36537,note_on,,,,,11,0,1,,,,,0,,,70,56
36537,note_on,,,,,0,0,1,,,,,0,,,65,40
36546,note_on,,,,,0,0,1,,,,,0,,,70,0
36546,note_on,,,,,9,0,1,,,,,0,,,65,0
36575,note_on,,,,,0,0,1,,,,,0,,,58,51
36575,note_on,,,,,29,0,1,,,,,0,,,66,56
36579,control_change,,,,,4,0,1,,,,,0,64,88,,
36586,note_on,,,,,7,0,1,,,,,0,,,66,0
36591,control_change,,,,,5,0,1,,,,,0,64,127,,
36594,note_on,,,,,3,0,1,,,,,0,,,58,0
36610,note_on,,,,,16,0,1,,,,,0,,,68,56
36616,note_on,,,,,6,0,1,,,,,0,,,61,43
36626,note_on,,,,,10,0,1,,,,,0,,,61,0
36629,note_on,,,,,3,0,1,,,,,0,,,68,0
36648,note_on,,,,,19,0,1,,,,,0,,,66,58
36653,note_on,,,,,5,0,1,,,,,0,,,58,43
36669,note_on,,,,,16,0,1,,,,,0,,,66,0
36674,note_on,,,,,5,0,1,,,,,0,,,58,0
36682,note_on,,,,,8,0,1,,,,,0,,,68,48
36684,note_on,,,,,2,0,1,,,,,0,,,63,49
36699,note_on,,,,,15,0,1,,,,,0,,,63,0
36699,note_on,,,,,0,0,1,,,,,0,,,68,0
36724,control_change,,,,,25,0,1,,,,,0,64,104,,
36724,note_on,,,,,0,0,1,,,,,0,,,65,66
36727,note_on,,,,,3,0,1,,,,,0,,,56,50
36728,control_change,,,,,1,0,1,,,,,0,64,72,,
36732,control_change,,,,,4,0,1,,,,,0,64,88,,
36736,control_change,,,,,4,0,1,,,,,0,64,127,,
36742,note_on,,,,,6,0,1,,,,,0,,,65,0
36747,note_on,,,,,5,0,1,,,,,0,,,56,0
36751,note_on,,,,,4,0,1,,,,,0,,,73,0
36765,note_on,,,,,14,0,1,,,,,0,,,66,50
36765,note_on,,,,,0,0,1,,,,,0,,,61,38
36779,note_on,,,,,14,0,1,,,,,0,,,66,0
36784,note_on,,,,,5,0,1,,,,,0,,,61,0
36800,note_on,,,,,16,0,1,,,,,0,,,65,62
36812,note_on,,,,,12,0,1,,,,,0,,,56,36
36819,note_on,,,,,7,0,1,,,,,0,,,65,0
36837,note_on,,,,,18,0,1,,,,,0,,,66,56
36837,note_on,,,,,0,0,1,,,,,0,,,61,37
36853,note_on,,,,,16,0,1,,,,,0,,,61,0
36853,note_on,,,,,0,0,1,,,,,0,,,66,0
36854,note_on,,,,,1,0,1,,,,,0,,,56,0
36872,note_on,,,,,0,0,1,,,,,0,,,63,58
36872,note_on,,,,,18,0,1,,,,,0,,,54,35
36890,note_on,,,,,18,0,1,,,,,0,,,54,0
36895,note_on,,,,,5,0,1,,,,,0,,,63,0
36911,note_on,,,,,16,0,1,,,,,0,,,65,62
36911,note_on,,,,,0,0,1,,,,,0,,,58,40
36926,note_on,,,,,15,0,1,,,,,0,,,58,0
36926,note_on,,,,,0,0,1,,,,,0,,,65,0
36951,note_on,,,,,25,0,1,,,,,0,,,61,57
36958,note_on,,,,,7,0,1,,,,,0,,,53,49
36962,control_change,,,,,4,0,1,,,,,0,64,104,,
36966,control_change,,,,,4,0,1,,,,,0,64,127,,
36971,note_on,,,,,5,0,1,,,,,0,,,53,0
36972,note_on,,,,,1,0,1,,,,,0,,,61,0
36988,note_on,,,,,16,0,1,,,,,0,,,63,55
36992,note_on,,,,,4,0,1,,,,,0,,,56,36
37004,note_on,,,,,12,0,1,,,,,0,,,56,0
37007,note_on,,,,,3,0,1,,,,,0,,,63,0
37026,note_on,,,,,19,0,1,,,,,0,,,61,57
37036,note_on,,,,,10,0,1,,,,,0,,,53,35
37052,note_on,,,,,16,0,1,,,,,0,,,61,0
37056,note_on,,,,,4,0,1,,,,,0,,,53,0
37065,note_on,,,,,9,0,1,,,,,0,,,63,56
37065,note_on,,,,,0,0,1,,,,,0,,,56,35
37083,note_on,,,,,0,0,1,,,,,0,,,63,0
37083,note_on,,,,,18,0,1,,,,,0,,,56,0
37106,note_on,,,,,23,0,1,,,,,0,,,51,42
37106,note_on,,,,,0,0,1,,,,,0,,,59,61
37116,control_change,,,,,10,0,1,,,,,0,64,104,,
37120,control_change,,,,,4,0,1,,,,,0,64,72,,
37124,control_change,,,,,4,0,1,,,,,0,64,88,,
37128,control_change,,,,,4,0,1,,,,,0,64,127,,
37129,note_on,,,,,0,0,1,,,,,0,,,51,0
37129,note_on,,,,,1,0,1,,,,,0,,,59,0
37143,note_on,,,,,14,0,1,,,,,0,,,61,54
37143,note_on,,,,,0,0,1,,,,,0,,,54,40
37168,note_on,,,,,25,0,1,,,,,0,,,54,0
37168,note_on,,,,,0,0,1,,,,,0,,,61,0
37185,note_on,,,,,17,0,1,,,,,0,,,59,58
37191,note_on,,,,,6,0,1,,,,,0,,,51,35
37205,note_on,,,,,14,0,1,,,,,0,,,59,0
37218,note_on,,,,,0,0,1,,,,,0,,,54,36
37218,note_on,,,,,13,0,1,,,,,0,,,61,50
37222,note_on,,,,,4,0,1,,,,,0,,,51,0
37242,note_on,,,,,20,0,1,,,,,0,,,54,0
37242,note_on,,,,,0,0,1,,,,,0,,,61,0
37261,note_on,,,,,19,0,1,,,,,0,,,58,40
37267,note_on,,,,,6,0,1,,,,,0,,,49,47
37268,control_change,,,,,1,0,1,,,,,0,64,56,,
37273,control_change,,,,,5,0,1,,,,,0,64,24,,
37277,control_change,,,,,4,0,1,,,,,0,64,72,,
37280,control_change,,,,,3,0,1,,,,,0,64,127,,
37305,note_on,,,,,0,0,1,,,,,0,,,53,41
37305,note_on,,,,,25,0,1,,,,,0,,,59,58
37308,note_on,,,,,3,0,1,,,,,0,,,49,0
37308,note_on,,,,,0,0,1,,,,,0,,,58,0
37327,note_on,,,,,19,0,1,,,,,0,,,59,0
37327,note_on,,,,,0,0,1,,,,,0,,,53,0
37329,note_on,,,,,2,0,1,,,,,0,,,61,50
37342,note_on,,,,,13,0,1,,,,,0,,,61,0
37346,note_on,,,,,4,0,1,,,,,0,,,68,47
37356,note_on,,,,,10,0,1,,,,,0,,,71,66
37367,note_on,,,,,11,0,1,,,,,0,,,68,0
37373,note_on,,,,,6,0,1,,,,,0,,,58,52
37373,note_on,,,,,0,0,1,,,,,0,,,49,40
37380,note_on,,,,,7,0,1,,,,,0,,,77,80
37385,note_on,,,,,5,0,1,,,,,0,,,71,0
37396,note_on,,,,,11,0,1,,,,,0,,,77,0
37421,note_on,,,,,25,0,1,,,,,0,,,49,0
37421,note_on,,,,,0,0,1,,,,,0,,,58,0
37430,note_on,,,,,9,0,1,,,,,0,,,59,50
37430,note_on,,,,,0,0,1,,,,,0,,,53,40
37448,note_on,,,,,0,0,1,,,,,0,,,59,0
37448,note_on,,,,,18,0,1,,,,,0,,,53,0
37484,note_on,,,,,36,0,1,,,,,0,,,56,49
37484,note_on,,,,,0,0,1,,,,,0,,,75,65
37486,note_on,,,,,2,0,1,,,,,0,,,47,36
37495,control_change,,,,,9,0,1,,,,,0,64,88,,
37499,control_change,,,,,4,0,1,,,,,0,64,24,,
37503,control_change,,,,,4,0,1,,,,,0,64,0,,
37508,note_on,,,,,5,0,1,,,,,0,,,47,0
37515,control_change,,,,,7,0,1,,,,,0,64,104,,
37517,note_on,,,,,2,0,1,,,,,0,,,75,0
37519,note_on,,,,,2,0,1,,,,,0,,,56,0
37519,control_change,,,,,0,0,1,,,,,0,64,127,,
37538,note_on,,,,,0,0,1,,,,,0,,,53,33
37538,note_on,,,,,19,0,1,,,,,0,,,58,48
37557,note_on,,,,,0,0,1,,,,,0,,,58,0
37557,note_on,,,,,19,0,1,,,,,0,,,53,0
37598,note_on,,,,,41,0,1,,,,,0,,,73,55
37622,note_on,,,,,24,0,1,,,,,0,,,73,0
37652,note_on,,,,,30,0,1,,,,,0,,,61,57
37656,control_change,,,,,4,0,1,,,,,0,64,88,,
37660,control_change,,,,,4,0,1,,,,,0,64,0,,
37662,note_on,,,,,2,0,1,,,,,0,,,30,39
37667,note_on,,,,,5,0,1,,,,,0,,,42,30
37681,note_on,,,,,14,0,1,,,,,0,,,66,43
37682,note_on,,,,,1,0,1,,,,,0,,,30,0
37682,note_on,,,,,0,0,1,,,,,0,,,61,0
37684,note_on,,,,,2,0,1,,,,,0,,,42,0
37684,control_change,,,,,0,0,1,,,,,0,64,127,,
37693,note_on,,,,,9,0,1,,,,,0,,,70,60
37697,note_on,,,,,4,0,1,,,,,0,,,66,0
37707,note_on,,,,,10,0,1,,,,,0,,,70,0
37720,note_on,,,,,13,0,1,,,,,0,,,73,69
37727,note_on,,,,,7,0,1,,,,,0,,,49,40
37727,note_on,,,,,0,0,1,,,,,0,,,63,55
37739,note_on,,,,,12,0,1,,,,,0,,,73,0
37746,note_on,,,,,0,0,1,,,,,0,,,49,0
37746,note_on,,,,,0,0,1,,,,,0,,,78,63
37746,note_on,,,,,7,0,1,,,,,0,,,63,0
37753,note_on,,,,,7,0,1,,,,,0,,,82,67
37757,note_on,,,,,4,0,1,,,,,0,,,78,0
37772,note_on,,,,,15,0,1,,,,,0,,,54,46
37772,note_on,,,,,0,0,1,,,,,0,,,61,49
37773,note_on,,,,,1,0,1,,,,,0,,,82,0
37778,note_on,,,,,5,0,1,,,,,0,,,85,70
37784,note_on,,,,,6,0,1,,,,,0,,,61,0
37792,note_on,,,,,8,0,1,,,,,0,,,54,0
37815,note_on,,,,,23,0,1,,,,,0,,,63,47
37816,note_on,,,,,1,0,1,,,,,0,,,58,42
37822,note_on,,,,,6,0,1,,,,,0,,,63,0
37824,note_on,,,,,2,0,1,,,,,0,,,58,0
37855,note_on,,,,,31,0,1,,,,,0,,,61,42
37867,note_on,,,,,12,0,1,,,,,0,,,61,0
37896,note_on,,,,,0,0,1,,,,,0,,,58,37
37896,note_on,,,,,29,0,1,,,,,0,,,63,45
37906,note_on,,,,,0,0,1,,,,,0,,,63,0
37906,note_on,,,,,10,0,1,,,,,0,,,58,0
37929,note_on,,,,,23,0,1,,,,,0,,,85,0
37936,note_on,,,,,0,0,1,,,,,0,,,54,35
37936,note_on,,,,,7,0,1,,,,,0,,,61,52
37958,note_on,,,,,22,0,1,,,,,0,,,54,0
37958,note_on,,,,,0,0,1,,,,,0,,,61,0
37974,note_on,,,,,16,0,1,,,,,0,,,63,38
37979,note_on,,,,,5,0,1,,,,,0,,,49,46
37981,note_on,,,,,2,0,1,,,,,0,,,63,0
37991,note_on,,,,,10,0,1,,,,,0,,,49,0
38011,control_change,,,,,20,0,1,,,,,0,64,104,,
38014,control_change,,,,,3,0,1,,,,,0,64,24,,
38016,note_on,,,,,0,0,1,,,,,0,,,42,48
38016,note_on,,,,,2,0,1,,,,,0,,,66,70
38019,control_change,,,,,3,0,1,,,,,0,64,0,,
38023,control_change,,,,,4,0,1,,,,,0,64,40,,
38027,control_change,,,,,4,0,1,,,,,0,64,127,,
38039,note_on,,,,,0,0,1,,,,,0,,,66,0
38039,note_on,,,,,12,0,1,,,,,0,,,42,0
38041,note_on,,,,,2,0,1,,,,,0,,,70,45
38050,note_on,,,,,9,0,1,,,,,0,,,70,0
38051,note_on,,,,,1,0,1,,,,,0,,,73,63
38057,note_on,,,,,6,0,1,,,,,0,,,73,0
38064,note_on,,,,,7,0,1,,,,,0,,,63,49
38069,note_on,,,,,5,0,1,,,,,0,,,49,26
38072,note_on,,,,,3,0,1,,,,,0,,,63,0
38076,note_on,,,,,4,0,1,,,,,0,,,78,56
38084,note_on,,,,,8,0,1,,,,,0,,,49,0
38094,note_on,,,,,10,0,1,,,,,0,,,78,0
38095,note_on,,,,,1,0,1,,,,,0,,,82,59
38100,note_on,,,,,5,0,1,,,,,0,,,85,75
38105,note_on,,,,,5,0,1,,,,,0,,,61,50
38107,note_on,,,,,2,0,1,,,,,0,,,54,51
38109,note_on,,,,,2,0,1,,,,,0,,,82,0
38116,note_on,,,,,7,0,1,,,,,0,,,61,0
38119,note_on,,,,,3,0,1,,,,,0,,,85,0
38121,note_on,,,,,2,0,1,,,,,0,,,90,57
38123,note_on,,,,,2,0,1,,,,,0,,,54,0
38128,note_on,,,,,5,0,1,,,,,0,,,90,0
38146,note_on,,,,,0,0,1,,,,,0,,,58,40
38146,note_on,,,,,18,0,1,,,,,0,,,63,58
38157,note_on,,,,,0,0,1,,,,,0,,,63,0
38157,note_on,,,,,11,0,1,,,,,0,,,58,0
38182,note_on,,,,,25,0,1,,,,,0,,,68,78
38190,note_on,,,,,8,0,1,,,,,0,,,61,48
38205,note_on,,,,,0,0,1,,,,,0,,,70,49
38205,note_on,,,,,15,0,1,,,,,0,,,61,0
38208,note_on,,,,,3,0,1,,,,,0,,,68,0
38217,note_on,,,,,9,0,1,,,,,0,,,73,62
38221,note_on,,,,,4,0,1,,,,,0,,,70,0
38226,note_on,,,,,5,0,1,,,,,0,,,73,0
38231,note_on,,,,,5,0,1,,,,,0,,,63,49
38234,note_on,,,,,3,0,1,,,,,0,,,58,40
38242,note_on,,,,,8,0,1,,,,,0,,,80,73
38245,note_on,,,,,3,0,1,,,,,0,,,63,0
38252,note_on,,,,,7,0,1,,,,,0,,,58,0
38260,note_on,,,,,8,0,1,,,,,0,,,80,0
38264,note_on,,,,,4,0,1,,,,,0,,,82,62
38271,note_on,,,,,7,0,1,,,,,0,,,85,71
38279,note_on,,,,,8,0,1,,,,,0,,,61,48
38279,note_on,,,,,0,0,1,,,,,0,,,54,38
38281,note_on,,,,,2,0,1,,,,,0,,,82,0
38290,note_on,,,,,9,0,1,,,,,0,,,85,0
38290,note_on,,,,,0,0,1,,,,,0,,,92,73
38302,note_on,,,,,12,0,1,,,,,0,,,92,0
38320,note_on,,,,,18,0,1,,,,,0,,,63,48
38321,note_on,,,,,1,0,1,,,,,0,,,49,53
38327,note_on,,,,,6,0,1,,,,,0,,,63,0
38328,note_on,,,,,0,0,1,,,,,0,,,61,0
38328,note_on,,,,,1,0,1,,,,,0,,,54,0
38333,note_on,,,,,5,0,1,,,,,0,,,49,0
38364,note_on,,,,,31,0,1,,,,,0,,,70,82
38374,control_change,,,,,0,0,1,,,,,0,64,24,,
38374,note_on,,,,,10,0,1,,,,,0,,,30,38
38378,control_change,,,,,4,0,1,,,,,0,64,0,,
38386,note_on,,,,,8,0,1,,,,,0,,,42,39
38389,control_change,,,,,3,0,1,,,,,0,64,88,,
38393,note_on,,,,,0,0,1,,,,,0,,,73,60
38393,note_on,,,,,4,0,1,,,,,0,,,42,0
38394,control_change,,,,,0,0,1,,,,,0,64,127,,
38394,note_on,,,,,1,0,1,,,,,0,,,30,0
38398,note_on,,,,,4,0,1,,,,,0,,,70,0
38404,note_on,,,,,6,0,1,,,,,0,,,78,64
38409,note_on,,,,,5,0,1,,,,,0,,,73,0
38411,note_on,,,,,2,0,1,,,,,0,,,78,0
38428,note_on,,,,,17,0,1,,,,,0,,,82,77
38435,note_on,,,,,7,0,1,,,,,0,,,63,50
38435,note_on,,,,,0,0,1,,,,,0,,,49,35
38447,note_on,,,,,12,0,1,,,,,0,,,82,0
38449,note_on,,,,,2,0,1,,,,,0,,,85,67
38455,note_on,,,,,6,0,1,,,,,0,,,90,69
38457,note_on,,,,,0,0,1,,,,,0,,,63,0
38457,note_on,,,,,2,0,1,,,,,0,,,49,0
38465,note_on,,,,,8,0,1,,,,,0,,,85,0
38473,note_on,,,,,8,0,1,,,,,0,,,54,43
38474,note_on,,,,,1,0,1,,,,,0,,,61,47
38479,note_on,,,,,5,0,1,,,,,0,,,94,75
38480,note_on,,,,,1,0,1,,,,,0,,,90,0
38482,note_on,,,,,2,0,1,,,,,0,,,61,0
38493,note_on,,,,,11,0,1,,,,,0,,,54,0
38512,note_on,,,,,19,0,1,,,,,0,,,63,47
38517,note_on,,,,,5,0,1,,,,,0,,,58,30
38521,note_on,,,,,4,0,1,,,,,0,,,63,0
38524,note_on,,,,,3,0,1,,,,,0,,,58,0
38548,note_on,,,,,24,0,1,,,,,0,,,61,56
38563,note_on,,,,,15,0,1,,,,,0,,,61,0
38589,note_on,,,,,26,0,1,,,,,0,,,63,55
38592,note_on,,,,,3,0,1,,,,,0,,,58,45
38600,note_on,,,,,8,0,1,,,,,0,,,58,0
38602,note_on,,,,,2,0,1,,,,,0,,,63,0
38629,note_on,,,,,27,0,1,,,,,0,,,54,54
38629,note_on,,,,,0,0,1,,,,,0,,,61,42
38638,note_on,,,,,9,0,1,,,,,0,,,61,0
38647,note_on,,,,,9,0,1,,,,,0,,,54,0
38665,note_on,,,,,18,0,1,,,,,0,,,63,56
38668,note_on,,,,,3,0,1,,,,,0,,,49,42
38672,note_on,,,,,4,0,1,,,,,0,,,63,0
38681,note_on,,,,,9,0,1,,,,,0,,,49,0
38697,control_change,,,,,16,0,1,,,,,0,64,72,,
38701,control_change,,,,,4,0,1,,,,,0,64,0,,
38707,note_on,,,,,6,0,1,,,,,0,,,42,55
38713,note_on,,,,,6,0,1,,,,,0,,,42,0
38713,control_change,,,,,0,0,1,,,,,0,64,127,,
38722,note_on,,,,,9,0,1,,,,,0,,,94,0
38745,note_on,,,,,0,0,1,,,,,0,,,58,40
38745,note_on,,,,,23,0,1,,,,,0,,,63,51
38760,note_on,,,,,0,0,1,,,,,0,,,63,0
38760,note_on,,,,,15,0,1,,,,,0,,,58,0
38781,note_on,,,,,21,0,1,,,,,0,,,61,51
38786,note_on,,,,,5,0,1,,,,,0,,,54,42
38794,note_on,,,,,8,0,1,,,,,0,,,54,0
38796,note_on,,,,,2,0,1,,,,,0,,,61,0
38818,note_on,,,,,22,0,1,,,,,0,,,58,54
38820,note_on,,,,,2,0,1,,,,,0,,,63,35
38828,note_on,,,,,8,0,1,,,,,0,,,63,0
38833,note_on,,,,,5,0,1,,,,,0,,,58,0
38854,note_on,,,,,21,0,1,,,,,0,,,66,71
38859,note_on,,,,,5,0,1,,,,,0,,,61,53
38876,note_on,,,,,17,0,1,,,,,0,,,61,0
38883,note_on,,,,,7,0,1,,,,,0,,,66,0
38884,note_on,,,,,1,0,1,,,,,0,,,70,46
38895,note_on,,,,,11,0,1,,,,,0,,,73,61
38900,note_on,,,,,5,0,1,,,,,0,,,70,0
38906,note_on,,,,,6,0,1,,,,,0,,,63,39
38907,note_on,,,,,1,0,1,,,,,0,,,58,39
38908,note_on,,,,,1,0,1,,,,,0,,,73,0
38916,note_on,,,,,8,0,1,,,,,0,,,63,0
38923,note_on,,,,,7,0,1,,,,,0,,,58,0
38927,note_on,,,,,4,0,1,,,,,0,,,78,63
38943,note_on,,,,,16,0,1,,,,,0,,,78,0
38949,note_on,,,,,6,0,1,,,,,0,,,61,47
38951,note_on,,,,,2,0,1,,,,,0,,,82,56
38955,note_on,,,,,4,0,1,,,,,0,,,85,68
38963,note_on,,,,,8,0,1,,,,,0,,,82,0
38974,note_on,,,,,11,0,1,,,,,0,,,85,0
38978,note_on,,,,,4,0,1,,,,,0,,,90,70
38993,note_on,,,,,15,0,1,,,,,0,,,90,0
39012,note_on,,,,,0,0,1,,,,,0,,,49,40
39012,note_on,,,,,19,0,1,,,,,0,,,58,45
39014,note_on,,,,,2,0,1,,,,,0,,,61,0
39021,note_on,,,,,7,0,1,,,,,0,,,49,0
39021,note_on,,,,,0,0,1,,,,,0,,,58,0
39067,note_on,,,,,46,0,1,,,,,0,,,62,74
39072,note_on,,,,,5,0,1,,,,,0,,,30,44
39072,control_change,,,,,0,0,1,,,,,0,64,56,,
39076,control_change,,,,,4,0,1,,,,,0,64,0,,
39085,note_on,,,,,9,0,1,,,,,0,,,42,43
39088,control_change,,,,,3,0,1,,,,,0,64,127,,
39090,note_on,,,,,2,0,1,,,,,0,,,30,0
39094,note_on,,,,,4,0,1,,,,,0,,,66,40
39095,note_on,,,,,1,0,1,,,,,0,,,42,0
39098,note_on,,,,,3,0,1,,,,,0,,,62,0
39104,note_on,,,,,6,0,1,,,,,0,,,69,66
39109,note_on,,,,,5,0,1,,,,,0,,,66,0
39111,note_on,,,,,2,0,1,,,,,0,,,69,0
39125,note_on,,,,,0,0,1,,,,,0,,,59,56
39125,note_on,,,,,14,0,1,,,,,0,,,54,42
39140,note_on,,,,,15,0,1,,,,,0,,,74,53
39150,note_on,,,,,10,0,1,,,,,0,,,74,0
39156,note_on,,,,,6,0,1,,,,,0,,,78,49
39159,note_on,,,,,3,0,1,,,,,0,,,81,71
39166,note_on,,,,,0,0,1,,,,,0,,,54,0
39166,note_on,,,,,7,0,1,,,,,0,,,59,0
39167,note_on,,,,,0,0,1,,,,,0,,,57,51
39167,note_on,,,,,1,0,1,,,,,0,,,50,42
39170,note_on,,,,,3,0,1,,,,,0,,,78,0
39175,note_on,,,,,5,0,1,,,,,0,,,86,75
39179,note_on,,,,,4,0,1,,,,,0,,,81,0
39187,note_on,,,,,8,0,1,,,,,0,,,86,0
39192,note_on,,,,,0,0,1,,,,,0,,,57,0
39192,note_on,,,,,5,0,1,,,,,0,,,50,0
39200,note_on,,,,,8,0,1,,,,,0,,,54,26
39203,note_on,,,,,3,0,1,,,,,0,,,61,54
39211,note_on,,,,,8,0,1,,,,,0,,,54,0
39216,note_on,,,,,5,0,1,,,,,0,,,61,0
39244,note_on,,,,,28,0,1,,,,,0,,,66,76
39244,note_on,,,,,0,0,1,,,,,0,,,62,59
39254,note_on,,,,,10,0,1,,,,,0,,,54,47
39262,note_on,,,,,8,0,1,,,,,0,,,66,0
39263,note_on,,,,,1,0,1,,,,,0,,,69,31
39268,note_on,,,,,5,0,1,,,,,0,,,74,68
39270,note_on,,,,,2,0,1,,,,,0,,,69,0
39272,note_on,,,,,2,0,1,,,,,0,,,54,0
39274,note_on,,,,,2,0,1,,,,,0,,,62,0
39278,note_on,,,,,4,0,1,,,,,0,,,74,0
39290,note_on,,,,,12,0,1,,,,,0,,,64,57
39293,note_on,,,,,3,0,1,,,,,0,,,57,49
39297,note_on,,,,,4,0,1,,,,,0,,,78,75
39309,note_on,,,,,12,0,1,,,,,0,,,64,0
39313,note_on,,,,,4,0,1,,,,,0,,,78,0
39317,note_on,,,,,4,0,1,,,,,0,,,57,0
39318,note_on,,,,,1,0,1,,,,,0,,,86,60
39326,note_on,,,,,8,0,1,,,,,0,,,81,34
39335,note_on,,,,,9,0,1,,,,,0,,,90,77
39336,note_on,,,,,1,0,1,,,,,0,,,81,0
39339,note_on,,,,,0,0,1,,,,,0,,,54,46
39339,note_on,,,,,3,0,1,,,,,0,,,62,53
39341,note_on,,,,,2,0,1,,,,,0,,,86,0
39351,note_on,,,,,10,0,1,,,,,0,,,90,0
39369,note_on,,,,,0,0,1,,,,,0,,,54,0
39369,note_on,,,,,18,0,1,,,,,0,,,62,0
39370,note_on,,,,,1,0,1,,,,,0,,,54,51
39370,note_on,,,,,0,0,1,,,,,0,,,64,58
39376,note_on,,,,,6,0,1,,,,,0,,,64,0
39393,note_on,,,,,17,0,1,,,,,0,,,54,0
39403,note_on,,,,,0,0,1,,,,,0,,,69,82
39403,control_change,,,,,10,0,1,,,,,0,64,72,,
39407,control_change,,,,,4,0,1,,,,,0,64,0,,
39409,note_on,,,,,2,0,1,,,,,0,,,42,69
39417,note_on,,,,,8,0,1,,,,,0,,,42,0
39419,control_change,,,,,2,0,1,,,,,0,64,56,,
39419,note_on,,,,,0,0,1,,,,,0,,,74,39
39423,control_change,,,,,4,0,1,,,,,0,64,127,,
39424,note_on,,,,,1,0,1,,,,,0,,,69,0
39430,note_on,,,,,6,0,1,,,,,0,,,78,71
39433,note_on,,,,,3,0,1,,,,,0,,,74,0
39442,note_on,,,,,9,0,1,,,,,0,,,78,0
39452,note_on,,,,,10,0,1,,,,,0,,,64,63
39452,note_on,,,,,0,0,1,,,,,0,,,57,48
39460,note_on,,,,,8,0,1,,,,,0,,,81,51
39467,note_on,,,,,7,0,1,,,,,0,,,83,36
39474,note_on,,,,,7,0,1,,,,,0,,,83,0
39476,note_on,,,,,2,0,1,,,,,0,,,90,71
39477,note_on,,,,,0,0,1,,,,,0,,,57,0
39477,note_on,,,,,1,0,1,,,,,0,,,64,0
39480,note_on,,,,,3,0,1,,,,,0,,,81,0
39491,note_on,,,,,0,0,1,,,,,0,,,54,50
39491,note_on,,,,,11,0,1,,,,,0,,,62,60
39498,note_on,,,,,0,0,1,,,,,0,,,93,84
39498,note_on,,,,,7,0,1,,,,,0,,,90,0
39508,note_on,,,,,10,0,1,,,,,0,,,93,0
39522,note_on,,,,,0,0,1,,,,,0,,,62,0
39522,note_on,,,,,14,0,1,,,,,0,,,54,0
39524,note_on,,,,,0,0,1,,,,,0,,,57,50
39524,note_on,,,,,2,0,1,,,,,0,,,64,77
39542,note_on,,,,,0,0,1,,,,,0,,,64,0
39542,note_on,,,,,18,0,1,,,,,0,,,57,0
39559,note_on,,,,,17,0,1,,,,,0,,,74,84
39570,note_on,,,,,0,0,1,,,,,0,,,78,59
39570,note_on,,,,,11,0,1,,,,,0,,,57,60
39575,note_on,,,,,5,0,1,,,,,0,,,66,23
39582,note_on,,,,,7,0,1,,,,,0,,,74,0
39586,note_on,,,,,4,0,1,,,,,0,,,81,74
39588,note_on,,,,,2,0,1,,,,,0,,,57,0
39592,note_on,,,,,4,0,1,,,,,0,,,78,0
39595,note_on,,,,,3,0,1,,,,,0,,,81,0
39610,note_on,,,,,15,0,1,,,,,0,,,68,58
39612,note_on,,,,,2,0,1,,,,,0,,,62,48
39616,note_on,,,,,4,0,1,,,,,0,,,86,57
39618,note_on,,,,,2,0,1,,,,,0,,,66,0
39626,note_on,,,,,8,0,1,,,,,0,,,62,0
39629,note_on,,,,,3,0,1,,,,,0,,,68,0
39634,note_on,,,,,5,0,1,,,,,0,,,90,67
39638,note_on,,,,,4,0,1,,,,,0,,,86,0
39640,note_on,,,,,2,0,1,,,,,0,,,93,82
39648,note_on,,,,,8,0,1,,,,,0,,,57,45
39648,note_on,,,,,0,0,1,,,,,0,,,66,53
39652,note_on,,,,,4,0,1,,,,,0,,,90,0
39658,note_on,,,,,6,0,1,,,,,0,,,98,82
39659,note_on,,,,,1,0,1,,,,,0,,,93,0
39665,note_on,,,,,6,0,1,,,,,0,,,98,0
39686,note_on,,,,,21,0,1,,,,,0,,,57,0
39690,note_on,,,,,4,0,1,,,,,0,,,68,62
39690,note_on,,,,,0,0,1,,,,,0,,,62,50
39699,note_on,,,,,9,0,1,,,,,0,,,66,0
39703,note_on,,,,,4,0,1,,,,,0,,,62,0
39703,note_on,,,,,0,0,1,,,,,0,,,68,0
39732,note_on,,,,,29,0,1,,,,,0,,,73,85
39734,control_change,,,,,2,0,1,,,,,0,64,88,,
39738,note_on,,,,,0,0,1,,,,,0,,,30,50
39738,note_on,,,,,0,0,1,,,,,0,,,42,77
39738,control_change,,,,,4,0,1,,,,,0,64,0,,
39753,note_on,,,,,15,0,1,,,,,0,,,78,64
39754,note_on,,,,,1,0,1,,,,,0,,,30,0
39754,note_on,,,,,0,0,1,,,,,0,,,42,0
39758,control_change,,,,,4,0,1,,,,,0,64,127,,
39761,note_on,,,,,3,0,1,,,,,0,,,73,0
39765,note_on,,,,,4,0,1,,,,,0,,,82,71
39772,note_on,,,,,7,0,1,,,,,0,,,78,0
39775,note_on,,,,,3,0,1,,,,,0,,,82,0
39794,note_on,,,,,19,0,1,,,,,0,,,85,72
39794,note_on,,,,,0,0,1,,,,,0,,,61,51
39794,note_on,,,,,0,0,1,,,,,0,,,70,66
39810,note_on,,,,,16,0,1,,,,,0,,,90,62
39811,note_on,,,,,1,0,1,,,,,0,,,85,0
39815,note_on,,,,,0,0,1,,,,,0,,,61,0
39815,note_on,,,,,4,0,1,,,,,0,,,70,0
39817,note_on,,,,,2,0,1,,,,,0,,,94,73
39827,note_on,,,,,10,0,1,,,,,0,,,90,0
39834,note_on,,,,,7,0,1,,,,,0,,,66,53
39842,note_on,,,,,8,0,1,,,,,0,,,94,0
39844,note_on,,,,,2,0,1,,,,,0,,,58,35
39846,note_on,,,,,2,0,1,,,,,0,,,97,84
39867,note_on,,,,,21,0,1,,,,,0,,,66,0
39871,note_on,,,,,4,0,1,,,,,0,,,58,0
39873,note_on,,,,,2,0,1,,,,,0,,,70,54
39873,note_on,,,,,0,0,1,,,,,0,,,61,36
39888,note_on,,,,,15,0,1,,,,,0,,,61,0
39888,note_on,,,,,0,0,1,,,,,0,,,70,0
39909,note_on,,,,,0,0,1,,,,,0,,,73,67
39909,note_on,,,,,21,0,1,,,,,0,,,66,43
39921,note_on,,,,,12,0,1,,,,,0,,,66,0
39929,note_on,,,,,8,0,1,,,,,0,,,73,0
39936,note_on,,,,,7,0,1,,,,,0,,,97,0
39946,note_on,,,,,0,0,1,,,,,0,,,75,51
39946,note_on,,,,,10,0,1,,,,,0,,,70,35
39966,note_on,,,,,20,0,1,,,,,0,,,75,0
39970,note_on,,,,,4,0,1,,,,,0,,,70,0
39978,note_on,,,,,0,0,1,,,,,0,,,66,45
39978,note_on,,,,,8,0,1,,,,,0,,,73,59
39996,note_on,,,,,18,0,1,,,,,0,,,66,0
39996,note_on,,,,,0,0,1,,,,,0,,,73,0
40012,note_on,,,,,16,0,1,,,,,0,,,70,62
40020,note_on,,,,,8,0,1,,,,,0,,,63,38
40026,note_on,,,,,6,0,1,,,,,0,,,70,0
40028,note_on,,,,,2,0,1,,,,,0,,,63,0
40048,note_on,,,,,20,0,1,,,,,0,,,70,70
40054,note_on,,,,,0,0,1,,,,,0,,,61,46
40054,note_on,,,,,6,0,1,,,,,0,,,66,58
40068,note_on,,,,,14,0,1,,,,,0,,,73,59
40072,note_on,,,,,4,0,1,,,,,0,,,70,0
40076,note_on,,,,,4,0,1,,,,,0,,,66,0
40076,note_on,,,,,0,0,1,,,,,0,,,61,0
40084,note_on,,,,,8,0,1,,,,,0,,,78,64
40087,note_on,,,,,3,0,1,,,,,0,,,73,0
40094,note_on,,,,,7,0,1,,,,,0,,,70,48
40098,note_on,,,,,4,0,1,,,,,0,,,78,0
40103,note_on,,,,,5,0,1,,,,,0,,,63,46
40103,note_on,,,,,0,0,1,,,,,0,,,58,37
40115,note_on,,,,,12,0,1,,,,,0,,,82,49
40119,note_on,,,,,4,0,1,,,,,0,,,58,0
40119,note_on,,,,,0,0,1,,,,,0,,,63,0
40121,note_on,,,,,2,0,1,,,,,0,,,70,0
40126,note_on,,,,,5,0,1,,,,,0,,,66,37
40127,note_on,,,,,1,0,1,,,,,0,,,61,32
40132,note_on,,,,,5,0,1,,,,,0,,,82,0
40133,note_on,,,,,1,0,1,,,,,0,,,85,60
40143,note_on,,,,,10,0,1,,,,,0,,,90,62
40144,note_on,,,,,1,0,1,,,,,0,,,66,0
40148,note_on,,,,,4,0,1,,,,,0,,,61,0
40150,note_on,,,,,2,0,1,,,,,0,,,85,0
40166,note_on,,,,,16,0,1,,,,,0,,,90,0
40168,note_on,,,,,2,0,1,,,,,0,,,94,73
40175,note_on,,,,,7,0,1,,,,,0,,,58,42
40175,note_on,,,,,0,0,1,,,,,0,,,63,47
40179,note_on,,,,,4,0,1,,,,,0,,,94,0
40200,note_on,,,,,21,0,1,,,,,0,,,63,0
40200,note_on,,,,,0,0,1,,,,,0,,,58,0
40220,note_on,,,,,0,0,1,,,,,0,,,54,36
40220,note_on,,,,,20,0,1,,,,,0,,,61,58
40243,note_on,,,,,23,0,1,,,,,0,,,54,0
40243,note_on,,,,,0,0,1,,,,,0,,,61,0
40260,note_on,,,,,17,0,1,,,,,0,,,63,49
40267,note_on,,,,,7,0,1,,,,,0,,,58,34
40282,note_on,,,,,15,0,1,,,,,0,,,63,0
40317,note_on,,,,,35,0,1,,,,,0,,,66,50
40319,note_on,,,,,2,0,1,,,,,0,,,61,35
40329,note_on,,,,,10,0,1,,,,,0,,,66,0
40330,note_on,,,,,0,0,1,,,,,0,,,58,0
40330,note_on,,,,,1,0,1,,,,,0,,,61,0
40365,note_on,,,,,35,0,1,,,,,0,,,70,57
40366,note_on,,,,,1,0,1,,,,,0,,,82,67
40383,note_on,,,,,17,0,1,,,,,0,,,70,0
40405,note_on,,,,,22,0,1,,,,,0,,,82,0
40425,note_on,,,,,20,0,1,,,,,0,,,70,54
40435,control_change,,,,,10,0,1,,,,,0,64,88,,
40439,control_change,,,,,4,0,1,,,,,0,64,0,,
40443,note_on,,,,,4,0,1,,,,,0,,,74,52
40452,note_on,,,,,9,0,1,,,,,0,,,80,63
40470,note_on,,,,,18,0,1,,,,,0,,,53,48
40471,note_on,,,,,1,0,1,,,,,0,,,41,44
40474,note_on,,,,,3,0,1,,,,,0,,,82,84
40475,control_change,,,,,1,0,1,,,,,0,64,88,,
40480,control_change,,,,,0,0,1,,,,,0,64,127,,
40480,note_on,,,,,5,0,1,,,,,0,,,41,0
40489,note_on,,,,,9,0,1,,,,,0,,,53,0
40524,note_on,,,,,35,0,1,,,,,0,,,74,0
40524,note_on,,,,,0,0,1,,,,,0,,,56,45
40527,note_on,,,,,3,0,1,,,,,0,,,62,54
40540,note_on,,,,,13,0,1,,,,,0,,,62,0
40544,note_on,,,,,4,0,1,,,,,0,,,56,0
40553,note_on,,,,,9,0,1,,,,,0,,,70,0
40560,note_on,,,,,0,0,1,,,,,0,,,58,49
40560,note_on,,,,,7,0,1,,,,,0,,,53,36
40578,note_on,,,,,18,0,1,,,,,0,,,53,0
40603,note_on,,,,,25,0,1,,,,,0,,,82,0
40603,note_on,,,,,0,0,1,,,,,0,,,62,55
40603,note_on,,,,,0,0,1,,,,,0,,,56,35
40609,note_on,,,,,6,0,1,,,,,0,,,58,0
40613,note_on,,,,,0,0,1,,,,,0,,,62,0
40613,note_on,,,,,4,0,1,,,,,0,,,56,0
40615,note_on,,,,,2,0,1,,,,,0,,,80,0
40638,note_on,,,,,23,0,1,,,,,0,,,83,85
40640,note_on,,,,,2,0,1,,,,,0,,,71,65
40680,note_on,,,,,40,0,1,,,,,0,,,62,60
40682,note_on,,,,,2,0,1,,,,,0,,,56,44
40698,note_on,,,,,16,0,1,,,,,0,,,56,0
40700,note_on,,,,,2,0,1,,,,,0,,,62,0
40703,note_on,,,,,3,0,1,,,,,0,,,71,0
40715,note_on,,,,,12,0,1,,,,,0,,,83,0
40721,note_on,,,,,6,0,1,,,,,0,,,68,49
40726,note_on,,,,,5,0,1,,,,,0,,,58,34
40748,note_on,,,,,22,0,1,,,,,0,,,68,0
40760,note_on,,,,,0,0,1,,,,,0,,,56,36
40760,note_on,,,,,12,0,1,,,,,0,,,62,48
40764,note_on,,,,,4,0,1,,,,,0,,,82,77
40764,note_on,,,,,0,0,1,,,,,0,,,70,67
40766,note_on,,,,,2,0,1,,,,,0,,,58,0
40773,note_on,,,,,0,0,1,,,,,0,,,56,0
40773,note_on,,,,,7,0,1,,,,,0,,,62,0
40781,note_on,,,,,8,0,1,,,,,0,,,70,0
40785,note_on,,,,,4,0,1,,,,,0,,,82,0
40822,note_on,,,,,37,0,1,,,,,0,,,82,73
40823,note_on,,,,,1,0,1,,,,,0,,,70,69
40825,note_on,,,,,2,0,1,,,,,0,,,78,49
40826,control_change,,,,,1,0,1,,,,,0,64,0,,
40827,note_on,,,,,0,0,1,,,,,0,,,75,45
40827,note_on,,,,,1,0,1,,,,,0,,,51,47
40828,note_on,,,,,1,0,1,,,,,0,,,39,50
40837,note_on,,,,,9,0,1,,,,,0,,,75,0
40844,note_on,,,,,7,0,1,,,,,0,,,51,0
40844,note_on,,,,,0,0,1,,,,,0,,,39,0
40855,control_change,,,,,11,0,1,,,,,0,64,88,,
40859,control_change,,,,,4,0,1,,,,,0,64,127,,
40876,note_on,,,,,17,0,1,,,,,0,,,54,62
40877,note_on,,,,,1,0,1,,,,,0,,,63,55
40888,note_on,,,,,11,0,1,,,,,0,,,70,0
40893,note_on,,,,,5,0,1,,,,,0,,,54,0
40895,note_on,,,,,2,0,1,,,,,0,,,63,0
40911,note_on,,,,,16,0,1,,,,,0,,,58,57
40911,note_on,,,,,0,0,1,,,,,0,,,51,45
40939,note_on,,,,,0,0,1,,,,,0,,,58,0
40939,note_on,,,,,28,0,1,,,,,0,,,51,0
40948,note_on,,,,,9,0,1,,,,,0,,,63,65
40949,note_on,,,,,1,0,1,,,,,0,,,54,47
40955,note_on,,,,,6,0,1,,,,,0,,,54,0
40959,note_on,,,,,4,0,1,,,,,0,,,63,0
40962,note_on,,,,,3,0,1,,,,,0,,,82,0
40965,note_on,,,,,3,0,1,,,,,0,,,78,0
40990,note_on,,,,,25,0,1,,,,,0,,,66,61
40994,note_on,,,,,4,0,1,,,,,0,,,58,29
41004,note_on,,,,,10,0,1,,,,,0,,,58,0
41008,note_on,,,,,4,0,1,,,,,0,,,66,0
41025,note_on,,,,,17,0,1,,,,,0,,,70,59
41026,note_on,,,,,1,0,1,,,,,0,,,63,57
41040,note_on,,,,,14,0,1,,,,,0,,,70,0
41044,note_on,,,,,4,0,1,,,,,0,,,63,0
41064,note_on,,,,,0,0,1,,,,,0,,,69,80
41064,note_on,,,,,20,0,1,,,,,0,,,81,86
41064,note_on,,,,,0,0,1,,,,,0,,,66,56
41064,note_on,,,,,0,0,1,,,,,0,,,58,47
41080,note_on,,,,,16,0,1,,,,,0,,,69,0
41080,note_on,,,,,0,0,1,,,,,0,,,66,0
41080,note_on,,,,,0,0,1,,,,,0,,,58,0
41089,note_on,,,,,9,0,1,,,,,0,,,81,0
41104,note_on,,,,,15,0,1,,,,,0,,,63,52
41112,note_on,,,,,8,0,1,,,,,0,,,63,0
41112,note_on,,,,,0,0,1,,,,,0,,,54,43
41118,note_on,,,,,6,0,1,,,,,0,,,54,0
41166,note_on,,,,,48,0,1,,,,,0,,,82,87
41168,note_on,,,,,2,0,1,,,,,0,,,70,69
41168,note_on,,,,,0,0,1,,,,,0,,,80,68
41169,control_change,,,,,1,0,1,,,,,0,64,72,,
41172,note_on,,,,,3,0,1,,,,,0,,,77,65
41174,control_change,,,,,2,0,1,,,,,0,64,0,,
41180,note_on,,,,,6,0,1,,,,,0,,,38,48
41185,note_on,,,,,5,0,1,,,,,0,,,50,46
41188,note_on,,,,,3,0,1,,,,,0,,,38,0
41193,note_on,,,,,5,0,1,,,,,0,,,50,0
41197,control_change,,,,,4,0,1,,,,,0,64,88,,
41201,control_change,,,,,4,0,1,,,,,0,64,127,,
41208,note_on,,,,,7,0,1,,,,,0,,,70,0
41214,note_on,,,,,6,0,1,,,,,0,,,77,0
41220,note_on,,,,,6,0,1,,,,,0,,,80,0
41222,note_on,,,,,2,0,1,,,,,0,,,56,68
41225,note_on,,,,,3,0,1,,,,,0,,,65,56
41234,note_on,,,,,9,0,1,,,,,0,,,65,0
41237,note_on,,,,,3,0,1,,,,,0,,,82,0
41240,note_on,,,,,3,0,1,,,,,0,,,56,0
41257,note_on,,,,,17,0,1,,,,,0,,,53,46
41257,note_on,,,,,0,0,1,,,,,0,,,58,64
41280,note_on,,,,,23,0,1,,,,,0,,,53,0
41297,note_on,,,,,0,0,1,,,,,0,,,56,46
41297,note_on,,,,,17,0,1,,,,,0,,,65,53
41305,note_on,,,,,8,0,1,,,,,0,,,58,0
41308,note_on,,,,,0,0,1,,,,,0,,,65,0
41308,note_on,,,,,3,0,1,,,,,0,,,56,0
41331,note_on,,,,,23,0,1,,,,,0,,,90,91
41333,note_on,,,,,2,0,1,,,,,0,,,78,78
41334,note_on,,,,,1,0,1,,,,,0,,,82,75
41372,note_on,,,,,38,0,1,,,,,0,,,68,60
41373,note_on,,,,,1,0,1,,,,,0,,,58,45
41383,note_on,,,,,10,0,1,,,,,0,,,78,0
41390,note_on,,,,,7,0,1,,,,,0,,,58,0
41391,note_on,,,,,1,0,1,,,,,0,,,68,0
41404,note_on,,,,,13,0,1,,,,,0,,,90,0
41415,note_on,,,,,11,0,1,,,,,0,,,70,57
41415,note_on,,,,,0,0,1,,,,,0,,,65,47
41440,note_on,,,,,25,0,1,,,,,0,,,65,0
41443,note_on,,,,,3,0,1,,,,,0,,,70,0
41468,note_on,,,,,25,0,1,,,,,0,,,89,78
41469,note_on,,,,,0,0,1,,,,,0,,,68,54
41469,note_on,,,,,0,0,1,,,,,0,,,58,45
41469,note_on,,,,,1,0,1,,,,,0,,,77,75
41478,note_on,,,,,9,0,1,,,,,0,,,82,0
41484,note_on,,,,,6,0,1,,,,,0,,,89,0
41486,note_on,,,,,0,0,1,,,,,0,,,77,0
41486,note_on,,,,,2,0,1,,,,,0,,,68,0
41486,note_on,,,,,0,0,1,,,,,0,,,58,0
41520,note_on,,,,,0,0,1,,,,,0,,,75,60
41520,note_on,,,,,34,0,1,,,,,0,,,78,53
41520,note_on,,,,,0,0,1,,,,,0,,,82,74
41522,note_on,,,,,0,0,1,,,,,0,,,39,39
41522,note_on,,,,,2,0,1,,,,,0,,,70,69
41524,control_change,,,,,2,0,1,,,,,0,64,40,,
41528,control_change,,,,,4,0,1,,,,,0,64,0,,
41530,note_on,,,,,2,0,1,,,,,0,,,51,19
41532,note_on,,,,,2,0,1,,,,,0,,,39,0
41536,note_on,,,,,4,0,1,,,,,0,,,51,0
41545,control_change,,,,,9,0,1,,,,,0,64,56,,
41549,control_change,,,,,4,0,1,,,,,0,64,127,,
41567,note_on,,,,,18,0,1,,,,,0,,,54,62
41568,note_on,,,,,1,0,1,,,,,0,,,63,56
41580,note_on,,,,,12,0,1,,,,,0,,,63,0
41586,note_on,,,,,6,0,1,,,,,0,,,54,0
41603,note_on,,,,,17,0,1,,,,,0,,,58,60
41606,note_on,,,,,3,0,1,,,,,0,,,78,0
41609,note_on,,,,,3,0,1,,,,,0,,,51,54
41610,note_on,,,,,1,0,1,,,,,0,,,70,0
41630,note_on,,,,,20,0,1,,,,,0,,,58,0
41634,note_on,,,,,4,0,1,,,,,0,,,51,0
41638,note_on,,,,,4,0,1,,,,,0,,,63,65
41638,note_on,,,,,0,0,1,,,,,0,,,54,48
41650,note_on,,,,,12,0,1,,,,,0,,,54,0
41650,note_on,,,,,0,0,1,,,,,0,,,63,0
41674,note_on,,,,,24,0,1,,,,,0,,,66,62
41674,note_on,,,,,0,0,1,,,,,0,,,58,48
41686,note_on,,,,,12,0,1,,,,,0,,,58,0
41686,note_on,,,,,0,0,1,,,,,0,,,66,0
41692,note_on,,,,,0,0,1,,,,,0,,,82,0
41692,note_on,,,,,6,0,1,,,,,0,,,75,0
41712,note_on,,,,,0,0,1,,,,,0,,,63,42
41712,note_on,,,,,20,0,1,,,,,0,,,70,55
41738,note_on,,,,,26,0,1,,,,,0,,,70,0
41744,note_on,,,,,6,0,1,,,,,0,,,66,62
41746,note_on,,,,,2,0,1,,,,,0,,,86,87
41748,note_on,,,,,2,0,1,,,,,0,,,74,75
41750,note_on,,,,,2,0,1,,,,,0,,,63,0
41758,note_on,,,,,8,0,1,,,,,0,,,58,44
41760,note_on,,,,,2,0,1,,,,,0,,,66,0
41764,note_on,,,,,4,0,1,,,,,0,,,58,0
41784,note_on,,,,,0,0,1,,,,,0,,,63,54
41784,note_on,,,,,0,0,1,,,,,0,,,54,48
41784,note_on,,,,,20,0,1,,,,,0,,,74,0
41793,note_on,,,,,9,0,1,,,,,0,,,86,0
41797,note_on,,,,,0,0,1,,,,,0,,,63,0
41797,note_on,,,,,4,0,1,,,,,0,,,54,0
41842,note_on,,,,,45,0,1,,,,,0,,,87,92
41843,control_change,,,,,0,0,1,,,,,0,64,72,,
41843,note_on,,,,,1,0,1,,,,,0,,,75,84
41844,note_on,,,,,1,0,1,,,,,0,,,82,73
41845,note_on,,,,,1,0,1,,,,,0,,,37,60
41845,note_on,,,,,0,0,1,,,,,0,,,79,78
41847,note_on,,,,,2,0,1,,,,,0,,,49,46
41848,control_change,,,,,1,0,1,,,,,0,64,0,,
41858,note_on,,,,,10,0,1,,,,,0,,,37,0
41860,note_on,,,,,2,0,1,,,,,0,,,49,0
41868,control_change,,,,,8,0,1,,,,,0,64,127,,
41891,note_on,,,,,0,0,1,,,,,0,,,63,63
41891,note_on,,,,,23,0,1,,,,,0,,,55,46
41900,note_on,,,,,9,0,1,,,,,0,,,55,0
41909,note_on,,,,,9,0,1,,,,,0,,,63,0
41913,note_on,,,,,4,0,1,,,,,0,,,75,0
41921,note_on,,,,,8,0,1,,,,,0,,,79,0
41934,note_on,,,,,13,0,1,,,,,0,,,58,59
41938,note_on,,,,,4,0,1,,,,,0,,,51,48
41944,note_on,,,,,6,0,1,,,,,0,,,51,0
41945,note_on,,,,,1,0,1,,,,,0,,,58,0
41959,note_on,,,,,14,0,1,,,,,0,,,87,0
41969,note_on,,,,,10,0,1,,,,,0,,,63,69
41970,note_on,,,,,1,0,1,,,,,0,,,55,49
41977,note_on,,,,,7,0,1,,,,,0,,,55,0
41982,note_on,,,,,0,0,1,,,,,0,,,82,0
41982,note_on,,,,,5,0,1,,,,,0,,,63,0
42006,note_on,,,,,24,0,1,,,,,0,,,88,92
42008,note_on,,,,,2,0,1,,,,,0,,,76,82
42044,note_on,,,,,36,0,1,,,,,0,,,67,76
42051,note_on,,,,,7,0,1,,,,,0,,,58,50
42062,note_on,,,,,11,0,1,,,,,0,,,58,0
42068,note_on,,,,,6,0,1,,,,,0,,,67,0
42083,note_on,,,,,0,0,1,,,,,0,,,63,54
42083,note_on,,,,,15,0,1,,,,,0,,,76,0
42085,note_on,,,,,2,0,1,,,,,0,,,70,65
42089,note_on,,,,,4,0,1,,,,,0,,,88,0
42110,note_on,,,,,21,0,1,,,,,0,,,70,0
42118,note_on,,,,,8,0,1,,,,,0,,,67,60
42118,note_on,,,,,0,0,1,,,,,0,,,58,50
42122,note_on,,,,,4,0,1,,,,,0,,,63,0
42124,note_on,,,,,2,0,1,,,,,0,,,87,90
42124,note_on,,,,,0,0,1,,,,,0,,,75,86
42130,note_on,,,,,0,0,1,,,,,0,,,67,0
42130,note_on,,,,,6,0,1,,,,,0,,,58,0
42152,note_on,,,,,22,0,1,,,,,0,,,75,0
42156,note_on,,,,,4,0,1,,,,,0,,,87,0
42180,note_on,,,,,24,0,1,,,,,0,,,87,93
42182,control_change,,,,,0,0,1,,,,,0,64,0,,
42182,note_on,,,,,2,0,1,,,,,0,,,75,90
42183,note_on,,,,,1,0,1,,,,,0,,,35,70
42185,note_on,,,,,2,0,1,,,,,0,,,83,71
42185,note_on,,,,,0,0,1,,,,,0,,,80,58
42188,note_on,,,,,3,0,1,,,,,0,,,47,64
42191,note_on,,,,,3,0,1,,,,,0,,,83,0
42192,note_on,,,,,1,0,1,,,,,0,,,80,0
42195,note_on,,,,,3,0,1,,,,,0,,,35,0
42198,note_on,,,,,3,0,1,,,,,0,,,47,0
42206,control_change,,,,,8,0,1,,,,,0,64,127,,
42236,note_on,,,,,30,0,1,,,,,0,,,56,50
42240,note_on,,,,,4,0,1,,,,,0,,,63,60
42248,note_on,,,,,8,0,1,,,,,0,,,63,0
42255,note_on,,,,,7,0,1,,,,,0,,,56,0
42271,note_on,,,,,16,0,1,,,,,0,,,59,66
42282,note_on,,,,,11,0,1,,,,,0,,,51,47
42309,note_on,,,,,0,0,1,,,,,0,,,56,50
42309,note_on,,,,,0,0,1,,,,,0,,,63,59
42309,note_on,,,,,27,0,1,,,,,0,,,51,0
42311,note_on,,,,,2,0,1,,,,,0,,,59,0
42319,note_on,,,,,8,0,1,,,,,0,,,63,0
42319,note_on,,,,,0,0,1,,,,,0,,,56,0
42327,note_on,,,,,8,0,1,,,,,0,,,75,0
42344,note_on,,,,,17,0,1,,,,,0,,,68,72
42354,note_on,,,,,10,0,1,,,,,0,,,59,48
42360,note_on,,,,,6,0,1,,,,,0,,,68,0
42366,note_on,,,,,6,0,1,,,,,0,,,59,0
42369,note_on,,,,,3,0,1,,,,,0,,,87,0
42383,note_on,,,,,14,0,1,,,,,0,,,71,72
42389,note_on,,,,,6,0,1,,,,,0,,,63,47
42398,note_on,,,,,9,0,1,,,,,0,,,63,0
42402,note_on,,,,,4,0,1,,,,,0,,,71,0
42416,note_on,,,,,0,0,1,,,,,0,,,86,93
42416,note_on,,,,,14,0,1,,,,,0,,,68,65
42417,note_on,,,,,1,0,1,,,,,0,,,59,45
42419,note_on,,,,,2,0,1,,,,,0,,,74,83
42431,note_on,,,,,12,0,1,,,,,0,,,68,0
42435,note_on,,,,,4,0,1,,,,,0,,,59,0
42444,note_on,,,,,9,0,1,,,,,0,,,74,0
42452,note_on,,,,,8,0,1,,,,,0,,,86,0
42456,note_on,,,,,4,0,1,,,,,0,,,63,71
42458,note_on,,,,,2,0,1,,,,,0,,,56,59
42466,note_on,,,,,8,0,1,,,,,0,,,56,0
42466,note_on,,,,,0,0,1,,,,,0,,,63,0
42501,control_change,,,,,35,0,1,,,,,0,64,56,,
42504,note_on,,,,,3,0,1,,,,,0,,,87,96
42505,note_on,,,,,0,0,1,,,,,0,,,75,91
42505,control_change,,,,,1,0,1,,,,,0,64,0,,
42508,note_on,,,,,0,0,1,,,,,0,,,85,60
42508,note_on,,,,,3,0,1,,,,,0,,,79,82
42509,note_on,,,,,1,0,1,,,,,0,,,34,67
42510,note_on,,,,,1,0,1,,,,,0,,,82,57
42510,note_on,,,,,0,0,1,,,,,0,,,46,72
42517,note_on,,,,,0,0,1,,,,,0,,,34,0
42517,note_on,,,,,7,0,1,,,,,0,,,46,0
42525,control_change,,,,,8,0,1,,,,,0,64,127,,
42536,note_on,,,,,11,0,1,,,,,0,,,79,0
42537,note_on,,,,,1,0,1,,,,,0,,,75,0
42539,note_on,,,,,2,0,1,,,,,0,,,82,0
42550,note_on,,,,,11,0,1,,,,,0,,,63,73
42553,note_on,,,,,3,0,1,,,,,0,,,85,0
42557,note_on,,,,,4,0,1,,,,,0,,,55,45
42562,note_on,,,,,5,0,1,,,,,0,,,87,0
42566,note_on,,,,,4,0,1,,,,,0,,,55,0
42570,note_on,,,,,4,0,1,,,,,0,,,63,0
42589,note_on,,,,,19,0,1,,,,,0,,,61,77
42593,note_on,,,,,4,0,1,,,,,0,,,51,66
42600,note_on,,,,,7,0,1,,,,,0,,,51,0
42605,note_on,,,,,5,0,1,,,,,0,,,61,0
42625,note_on,,,,,20,0,1,,,,,0,,,63,80
42626,note_on,,,,,1,0,1,,,,,0,,,55,47
42638,note_on,,,,,12,0,1,,,,,0,,,63,0
42642,note_on,,,,,4,0,1,,,,,0,,,55,0
42690,control_change,,,,,48,0,1,,,,,0,64,40,,
42694,note_on,,,,,4,0,1,,,,,0,,,95,102
42694,note_on,,,,,0,0,1,,,,,0,,,87,84
42694,control_change,,,,,0,0,1,,,,,0,64,0,,
42695,note_on,,,,,1,0,1,,,,,0,,,83,92
42700,note_on,,,,,5,0,1,,,,,0,,,27,64
42706,note_on,,,,,6,0,1,,,,,0,,,39,27
42710,control_change,,,,,4,0,1,,,,,0,64,88,,
42713,note_on,,,,,3,0,1,,,,,0,,,39,0
42715,control_change,,,,,2,0,1,,,,,0,64,127,,
42716,note_on,,,,,1,0,1,,,,,0,,,27,0
42751,note_on,,,,,35,0,1,,,,,0,,,71,74
42756,note_on,,,,,5,0,1,,,,,0,,,63,55
42760,note_on,,,,,4,0,1,,,,,0,,,71,0
42764,note_on,,,,,4,0,1,,,,,0,,,63,0
42772,note_on,,,,,8,0,1,,,,,0,,,83,0
42778,note_on,,,,,6,0,1,,,,,0,,,95,0
42787,note_on,,,,,9,0,1,,,,,0,,,63,77
42788,note_on,,,,,1,0,1,,,,,0,,,55,52
42797,note_on,,,,,9,0,1,,,,,0,,,55,0
42822,note_on,,,,,25,0,1,,,,,0,,,87,0
42836,note_on,,,,,14,0,1,,,,,0,,,94,98
42837,note_on,,,,,0,0,1,,,,,0,,,61,52
42837,note_on,,,,,1,0,1,,,,,0,,,70,60
42837,note_on,,,,,0,0,1,,,,,0,,,82,88
42844,note_on,,,,,0,0,1,,,,,0,,,70,0
42844,note_on,,,,,7,0,1,,,,,0,,,61,0
42847,note_on,,,,,3,0,1,,,,,0,,,63,0
42875,note_on,,,,,28,0,1,,,,,0,,,82,0
42888,note_on,,,,,13,0,1,,,,,0,,,94,0
42909,note_on,,,,,0,0,1,,,,,0,,,82,90
42909,note_on,,,,,21,0,1,,,,,0,,,94,97
42911,note_on,,,,,2,0,1,,,,,0,,,87,77
42912,control_change,,,,,0,0,1,,,,,0,64,24,,
42912,note_on,,,,,1,0,1,,,,,0,,,90,70
42913,note_on,,,,,0,0,1,,,,,0,,,32,71
42913,note_on,,,,,1,0,1,,,,,0,,,44,78
42916,control_change,,,,,3,0,1,,,,,0,64,0,,
42926,note_on,,,,,10,0,1,,,,,0,,,32,0
42926,note_on,,,,,0,0,1,,,,,0,,,44,0
42932,control_change,,,,,6,0,1,,,,,0,64,72,,
42936,control_change,,,,,4,0,1,,,,,0,64,127,,
42963,note_on,,,,,27,0,1,,,,,0,,,63,71
42965,note_on,,,,,2,0,1,,,,,0,,,54,53
42970,note_on,,,,,5,0,1,,,,,0,,,63,0
42980,note_on,,,,,10,0,1,,,,,0,,,54,0
42998,note_on,,,,,18,0,1,,,,,0,,,70,68
43002,note_on,,,,,4,0,1,,,,,0,,,60,66
43010,note_on,,,,,8,0,1,,,,,0,,,60,0
43012,note_on,,,,,2,0,1,,,,,0,,,70,0
43030,note_on,,,,,18,0,1,,,,,0,,,63,73
43030,note_on,,,,,0,0,1,,,,,0,,,54,52
43041,note_on,,,,,11,0,1,,,,,0,,,54,0
43041,note_on,,,,,0,0,1,,,,,0,,,63,0
43068,note_on,,,,,27,0,1,,,,,0,,,63,67
43075,note_on,,,,,7,0,1,,,,,0,,,54,52
43085,note_on,,,,,10,0,1,,,,,0,,,63,0
43092,note_on,,,,,7,0,1,,,,,0,,,54,0
43107,note_on,,,,,15,0,1,,,,,0,,,56,70
43118,note_on,,,,,11,0,1,,,,,0,,,48,50
43126,note_on,,,,,8,0,1,,,,,0,,,48,0
43132,note_on,,,,,6,0,1,,,,,0,,,56,0
43149,note_on,,,,,17,0,1,,,,,0,,,63,67
43149,note_on,,,,,0,0,1,,,,,0,,,54,50
43165,note_on,,,,,0,0,1,,,,,0,,,63,0
43165,note_on,,,,,16,0,1,,,,,0,,,54,0
43184,note_on,,,,,19,0,1,,,,,0,,,54,69
43190,note_on,,,,,6,0,1,,,,,0,,,63,66
43199,note_on,,,,,9,0,1,,,,,0,,,63,0
43207,note_on,,,,,8,0,1,,,,,0,,,54,0
43229,note_on,,,,,22,0,1,,,,,0,,,94,0
43230,note_on,,,,,1,0,1,,,,,0,,,82,0
43232,note_on,,,,,2,0,1,,,,,0,,,70,73
43232,note_on,,,,,0,0,1,,,,,0,,,60,55
43238,note_on,,,,,6,0,1,,,,,0,,,90,0
43271,note_on,,,,,33,0,1,,,,,0,,,70,0
43272,note_on,,,,,1,0,1,,,,,0,,,60,0
43304,note_on,,,,,32,0,1,,,,,0,,,87,0
43310,note_on,,,,,6,0,1,,,,,0,,,92,95
43312,note_on,,,,,2,0,1,,,,,0,,,80,85
43357,note_on,,,,,45,0,1,,,,,0,,,92,0
43362,note_on,,,,,5,0,1,,,,,0,,,80,0
43396,note_on,,,,,34,0,1,,,,,0,,,90,91
43397,note_on,,,,,1,0,1,,,,,0,,,78,80
43457,note_on,,,,,60,0,1,,,,,0,,,90,0
43465,note_on,,,,,8,0,1,,,,,0,,,78,0
43510,note_on,,,,,45,0,1,,,,,0,,,75,84
43510,note_on,,,,,0,0,1,,,,,0,,,87,87
43534,note_on,,,,,24,0,1,,,,,0,,,75,0
43544,note_on,,,,,10,0,1,,,,,0,,,87,0
43567,note_on,,,,,23,0,1,,,,,0,,,87,92
43568,note_on,,,,,1,0,1,,,,,0,,,75,91
43572,note_on,,,,,0,0,1,,,,,0,,,78,58
43572,note_on,,,,,4,0,1,,,,,0,,,82,55
43573,control_change,,,,,1,0,1,,,,,0,64,56,,
43575,note_on,,,,,2,0,1,,,,,0,,,34,43
43578,control_change,,,,,3,0,1,,,,,0,64,0,,
43580,note_on,,,,,2,0,1,,,,,0,,,46,38
43583,note_on,,,,,3,0,1,,,,,0,,,34,0
43587,note_on,,,,,4,0,1,,,,,0,,,46,0
43590,control_change,,,,,3,0,1,,,,,0,64,72,,
43594,control_change,,,,,4,0,1,,,,,0,64,127,,
43631,note_on,,,,,37,0,1,,,,,0,,,58,47
43633,note_on,,,,,2,0,1,,,,,0,,,66,55
43638,note_on,,,,,5,0,1,,,,,0,,,58,0
43649,note_on,,,,,11,0,1,,,,,0,,,66,0
43672,note_on,,,,,23,0,1,,,,,0,,,70,60
43672,note_on,,,,,0,0,1,,,,,0,,,61,42
43682,note_on,,,,,10,0,1,,,,,0,,,61,0
43682,note_on,,,,,0,0,1,,,,,0,,,70,0
43701,note_on,,,,,19,0,1,,,,,0,,,66,60
43710,note_on,,,,,9,0,1,,,,,0,,,58,46
43713,note_on,,,,,3,0,1,,,,,0,,,66,0
43718,note_on,,,,,5,0,1,,,,,0,,,58,0
43744,note_on,,,,,26,0,1,,,,,0,,,61,60
43748,note_on,,,,,4,0,1,,,,,0,,,54,44
43757,note_on,,,,,9,0,1,,,,,0,,,54,0
43761,note_on,,,,,4,0,1,,,,,0,,,61,0
43782,note_on,,,,,21,0,1,,,,,0,,,58,51
43790,note_on,,,,,8,0,1,,,,,0,,,49,44
43822,note_on,,,,,32,0,1,,,,,0,,,49,0
43823,note_on,,,,,1,0,1,,,,,0,,,54,40
43825,note_on,,,,,2,0,1,,,,,0,,,58,0
43831,note_on,,,,,6,0,1,,,,,0,,,54,0
43832,note_on,,,,,1,0,1,,,,,0,,,61,52
43848,note_on,,,,,16,0,1,,,,,0,,,61,0
43864,note_on,,,,,16,0,1,,,,,0,,,58,61
43867,note_on,,,,,3,0,1,,,,,0,,,66,50
43897,note_on,,,,,30,0,1,,,,,0,,,58,0
43900,note_on,,,,,3,0,1,,,,,0,,,87,0
43906,note_on,,,,,6,0,1,,,,,0,,,66,0
43908,note_on,,,,,2,0,1,,,,,0,,,61,37
43910,note_on,,,,,2,0,1,,,,,0,,,70,59
43912,note_on,,,,,2,0,1,,,,,0,,,75,0
43923,note_on,,,,,11,0,1,,,,,0,,,70,0
43927,note_on,,,,,4,0,1,,,,,0,,,61,0
43949,note_on,,,,,22,0,1,,,,,0,,,82,0
43970,note_on,,,,,21,0,1,,,,,0,,,85,86
43972,note_on,,,,,2,0,1,,,,,0,,,73,76
43975,note_on,,,,,3,0,1,,,,,0,,,78,0
44012,note_on,,,,,37,0,1,,,,,0,,,73,0
44022,note_on,,,,,10,0,1,,,,,0,,,85,0
44041,note_on,,,,,19,0,1,,,,,0,,,82,87
44042,note_on,,,,,1,0,1,,,,,0,,,70,83
44057,note_on,,,,,15,0,1,,,,,0,,,70,0
44078,note_on,,,,,21,0,1,,,,,0,,,82,0
44094,note_on,,,,,16,0,1,,,,,0,,,85,96
44094,note_on,,,,,0,0,1,,,,,0,,,73,74
44105,note_on,,,,,11,0,1,,,,,0,,,73,0
44113,note_on,,,,,8,0,1,,,,,0,,,85,0
44138,note_on,,,,,0,0,1,,,,,0,,,78,85
44138,note_on,,,,,25,0,1,,,,,0,,,90,95
44149,note_on,,,,,11,0,1,,,,,0,,,78,0
44152,note_on,,,,,3,0,1,,,,,0,,,90,0
44199,control_change,,,,,47,0,1,,,,,0,64,40,,
44203,control_change,,,,,4,0,1,,,,,0,64,0,,
44207,note_on,,,,,0,0,1,,,,,0,,,82,95
44207,note_on,,,,,4,0,1,,,,,0,,,94,105
44210,note_on,,,,,0,0,1,,,,,0,,,90,71
44210,note_on,,,,,3,0,1,,,,,0,,,87,75
44212,note_on,,,,,2,0,1,,,,,0,,,44,59
44212,note_on,,,,,0,0,1,,,,,0,,,32,57
44218,note_on,,,,,6,0,1,,,,,0,,,32,0
44219,control_change,,,,,1,0,1,,,,,0,64,72,,
44223,control_change,,,,,4,0,1,,,,,0,64,127,,
44226,note_on,,,,,3,0,1,,,,,0,,,44,0
44261,note_on,,,,,35,0,1,,,,,0,,,63,67
44262,note_on,,,,,1,0,1,,,,,0,,,54,56
44270,note_on,,,,,8,0,1,,,,,0,,,54,0
44278,note_on,,,,,8,0,1,,,,,0,,,63,0
44297,note_on,,,,,19,0,1,,,,,0,,,70,71
44299,note_on,,,,,2,0,1,,,,,0,,,60,54
44310,note_on,,,,,11,0,1,,,,,0,,,60,0
44313,note_on,,,,,3,0,1,,,,,0,,,70,0
44342,note_on,,,,,29,0,1,,,,,0,,,63,66
44342,note_on,,,,,0,0,1,,,,,0,,,54,54
44351,note_on,,,,,9,0,1,,,,,0,,,54,0
44351,note_on,,,,,0,0,1,,,,,0,,,63,0
44374,note_on,,,,,23,0,1,,,,,0,,,63,64
44376,note_on,,,,,2,0,1,,,,,0,,,54,52
44387,note_on,,,,,11,0,1,,,,,0,,,63,0
44392,note_on,,,,,5,0,1,,,,,0,,,54,0
44409,note_on,,,,,17,0,1,,,,,0,,,56,64
44419,note_on,,,,,10,0,1,,,,,0,,,48,44
44429,note_on,,,,,10,0,1,,,,,0,,,48,0
44448,note_on,,,,,0,0,1,,,,,0,,,54,48
44448,note_on,,,,,19,0,1,,,,,0,,,63,63
44450,note_on,,,,,2,0,1,,,,,0,,,56,0
44464,note_on,,,,,0,0,1,,,,,0,,,54,0
44464,note_on,,,,,14,0,1,,,,,0,,,63,0
44480,note_on,,,,,16,0,1,,,,,0,,,54,64
44483,note_on,,,,,3,0,1,,,,,0,,,63,66
44502,note_on,,,,,19,0,1,,,,,0,,,54,0
44528,note_on,,,,,0,0,1,,,,,0,,,60,49
44528,note_on,,,,,26,0,1,,,,,0,,,70,71
44539,note_on,,,,,11,0,1,,,,,0,,,60,0
44542,note_on,,,,,3,0,1,,,,,0,,,94,0
44542,note_on,,,,,0,0,1,,,,,0,,,70,0
44544,note_on,,,,,0,0,1,,,,,0,,,82,0
44544,note_on,,,,,2,0,1,,,,,0,,,90,0
44546,note_on,,,,,2,0,1,,,,,0,,,63,0
44602,note_on,,,,,56,0,1,,,,,0,,,87,0
44609,note_on,,,,,7,0,1,,,,,0,,,92,90
44611,note_on,,,,,2,0,1,,,,,0,,,80,81
44638,note_on,,,,,27,0,1,,,,,0,,,80,0
44644,note_on,,,,,6,0,1,,,,,0,,,92,0
44718,note_on,,,,,74,0,1,,,,,0,,,90,78
44720,note_on,,,,,2,0,1,,,,,0,,,78,65
44787,note_on,,,,,67,0,1,,,,,0,,,90,0
44796,note_on,,,,,9,0,1,,,,,0,,,78,0
44871,note_on,,,,,75,0,1,,,,,0,,,75,50
44872,note_on,,,,,1,0,1,,,,,0,,,87,61
44895,note_on,,,,,23,0,1,,,,,0,,,75,0
44905,note_on,,,,,10,0,1,,,,,0,,,87,0
44933,control_change,,,,,28,0,1,,,,,0,64,104,,
44937,control_change,,,,,4,0,1,,,,,0,64,0,,
44944,note_on,,,,,7,0,1,,,,,0,,,46,43
44945,note_on,,,,,1,0,1,,,,,0,,,34,48
44949,note_on,,,,,4,0,1,,,,,0,,,87,74
44949,note_on,,,,,0,0,1,,,,,0,,,75,71
44952,note_on,,,,,3,0,1,,,,,0,,,78,43
44954,note_on,,,,,2,0,1,,,,,0,,,34,0
44958,note_on,,,,,4,0,1,,,,,0,,,82,23
44961,control_change,,,,,3,0,1,,,,,0,64,127,,
44962,note_on,,,,,1,0,1,,,,,0,,,46,0
45003,note_on,,,,,0,0,1,,,,,0,,,54,45
45003,note_on,,,,,41,0,1,,,,,0,,,61,56
45021,note_on,,,,,0,0,1,,,,,0,,,61,0
45021,note_on,,,,,18,0,1,,,,,0,,,54,0
45038,note_on,,,,,17,0,1,,,,,0,,,58,49
45040,note_on,,,,,2,0,1,,,,,0,,,63,46
45050,note_on,,,,,10,0,1,,,,,0,,,58,0
45052,note_on,,,,,2,0,1,,,,,0,,,63,0
45082,note_on,,,,,0,0,1,,,,,0,,,61,43
45082,note_on,,,,,30,0,1,,,,,0,,,66,54
45096,note_on,,,,,14,0,1,,,,,0,,,61,0
45096,note_on,,,,,0,0,1,,,,,0,,,66,0
45117,note_on,,,,,21,0,1,,,,,0,,,70,56
45118,note_on,,,,,1,0,1,,,,,0,,,63,46
45132,note_on,,,,,14,0,1,,,,,0,,,70,0
45137,note_on,,,,,5,0,1,,,,,0,,,63,0
45149,note_on,,,,,12,0,1,,,,,0,,,66,67
45149,note_on,,,,,0,0,1,,,,,0,,,61,46
45159,note_on,,,,,10,0,1,,,,,0,,,87,0
45165,note_on,,,,,6,0,1,,,,,0,,,66,0
45165,note_on,,,,,0,0,1,,,,,0,,,61,0
45170,note_on,,,,,5,0,1,,,,,0,,,75,0
45186,note_on,,,,,16,0,1,,,,,0,,,78,0
45188,note_on,,,,,2,0,1,,,,,0,,,82,0
45194,note_on,,,,,6,0,1,,,,,0,,,63,60
45194,note_on,,,,,0,0,1,,,,,0,,,58,46
45198,note_on,,,,,4,0,1,,,,,0,,,85,77
45200,note_on,,,,,2,0,1,,,,,0,,,73,65
45211,note_on,,,,,11,0,1,,,,,0,,,58,0
45211,note_on,,,,,0,0,1,,,,,0,,,63,0
45231,note_on,,,,,20,0,1,,,,,0,,,73,0
45235,note_on,,,,,4,0,1,,,,,0,,,61,57
45235,note_on,,,,,0,0,1,,,,,0,,,54,48
45238,note_on,,,,,3,0,1,,,,,0,,,85,0
45252,note_on,,,,,0,0,1,,,,,0,,,61,0
45252,note_on,,,,,14,0,1,,,,,0,,,54,0
45296,control_change,,,,,44,0,1,,,,,0,64,104,,
45299,note_on,,,,,3,0,1,,,,,0,,,85,82
45300,note_on,,,,,0,0,1,,,,,0,,,73,67
45300,control_change,,,,,1,0,1,,,,,0,64,0,,
45302,note_on,,,,,2,0,1,,,,,0,,,80,61
45304,note_on,,,,,0,0,1,,,,,0,,,77,67
45304,note_on,,,,,2,0,1,,,,,0,,,35,65
45310,note_on,,,,,0,0,1,,,,,0,,,47,55
45310,note_on,,,,,6,0,1,,,,,0,,,35,0
45317,note_on,,,,,7,0,1,,,,,0,,,47,0
45323,control_change,,,,,6,0,1,,,,,0,64,127,,
45344,note_on,,,,,21,0,1,,,,,0,,,77,0
45349,note_on,,,,,5,0,1,,,,,0,,,80,0
45354,note_on,,,,,5,0,1,,,,,0,,,61,54
45356,note_on,,,,,2,0,1,,,,,0,,,53,44
45359,note_on,,,,,3,0,1,,,,,0,,,73,0
45362,note_on,,,,,3,0,1,,,,,0,,,61,0
45368,note_on,,,,,6,0,1,,,,,0,,,53,0
45386,note_on,,,,,18,0,1,,,,,0,,,56,44
45391,note_on,,,,,5,0,1,,,,,0,,,63,64
45402,note_on,,,,,11,0,1,,,,,0,,,56,0
45405,note_on,,,,,3,0,1,,,,,0,,,63,0
45426,note_on,,,,,21,0,1,,,,,0,,,65,64
45426,note_on,,,,,0,0,1,,,,,0,,,61,46
45448,note_on,,,,,22,0,1,,,,,0,,,61,0
45448,note_on,,,,,0,0,1,,,,,0,,,65,0
45452,note_on,,,,,4,0,1,,,,,0,,,85,0
45466,note_on,,,,,14,0,1,,,,,0,,,87,79
45469,note_on,,,,,3,0,1,,,,,0,,,63,46
45470,note_on,,,,,1,0,1,,,,,0,,,75,73
45472,note_on,,,,,2,0,1,,,,,0,,,68,55
45486,note_on,,,,,14,0,1,,,,,0,,,68,0
45490,note_on,,,,,4,0,1,,,,,0,,,63,0
45505,note_on,,,,,0,0,1,,,,,0,,,61,42
45505,note_on,,,,,15,0,1,,,,,0,,,65,54
45515,note_on,,,,,0,0,1,,,,,0,,,65,0
45515,note_on,,,,,10,0,1,,,,,0,,,61,0
45544,note_on,,,,,29,0,1,,,,,0,,,63,65
45548,note_on,,,,,4,0,1,,,,,0,,,56,42
45554,note_on,,,,,6,0,1,,,,,0,,,75,0
45556,note_on,,,,,2,0,1,,,,,0,,,56,0
45558,note_on,,,,,2,0,1,,,,,0,,,63,0
45571,note_on,,,,,13,0,1,,,,,0,,,87,0
45577,note_on,,,,,6,0,1,,,,,0,,,61,67
45580,note_on,,,,,3,0,1,,,,,0,,,53,45
45585,note_on,,,,,5,0,1,,,,,0,,,85,84
45587,note_on,,,,,2,0,1,,,,,0,,,61,0
45587,note_on,,,,,0,0,1,,,,,0,,,73,78
45589,note_on,,,,,2,0,1,,,,,0,,,53,0
45602,note_on,,,,,13,0,1,,,,,0,,,73,0
45625,note_on,,,,,23,0,1,,,,,0,,,85,0
45643,control_change,,,,,18,0,1,,,,,0,64,104,,
45647,control_change,,,,,4,0,1,,,,,0,64,0,,
45647,note_on,,,,,0,0,1,,,,,0,,,88,93
45649,note_on,,,,,2,0,1,,,,,0,,,76,85
45651,note_on,,,,,2,0,1,,,,,0,,,85,61
45652,note_on,,,,,1,0,1,,,,,0,,,79,74
45652,note_on,,,,,0,0,1,,,,,0,,,34,75
45653,note_on,,,,,1,0,1,,,,,0,,,46,72
45666,note_on,,,,,0,0,1,,,,,0,,,34,0
45666,note_on,,,,,13,0,1,,,,,0,,,46,0
45667,control_change,,,,,1,0,1,,,,,0,64,88,,
45671,control_change,,,,,4,0,1,,,,,0,64,127,,
45701,note_on,,,,,30,0,1,,,,,0,,,61,60
45701,note_on,,,,,0,0,1,,,,,0,,,52,47
45721,note_on,,,,,20,0,1,,,,,0,,,61,0
45732,note_on,,,,,11,0,1,,,,,0,,,52,0
45738,note_on,,,,,0,0,1,,,,,0,,,55,50
45738,note_on,,,,,6,0,1,,,,,0,,,63,73
45754,note_on,,,,,0,0,1,,,,,0,,,63,0
45754,note_on,,,,,16,0,1,,,,,0,,,55,0
45773,note_on,,,,,19,0,1,,,,,0,,,64,81
45773,note_on,,,,,0,0,1,,,,,0,,,61,54
45794,note_on,,,,,21,0,1,,,,,0,,,61,0
45794,note_on,,,,,0,0,1,,,,,0,,,64,0
45812,note_on,,,,,18,0,1,,,,,0,,,67,66
45813,note_on,,,,,1,0,1,,,,,0,,,63,70
45834,note_on,,,,,21,0,1,,,,,0,,,67,0
45835,note_on,,,,,1,0,1,,,,,0,,,63,0
45848,note_on,,,,,13,0,1,,,,,0,,,64,64
45848,note_on,,,,,0,0,1,,,,,0,,,61,52
45863,note_on,,,,,0,0,1,,,,,0,,,64,0
45863,note_on,,,,,15,0,1,,,,,0,,,61,0
45885,note_on,,,,,22,0,1,,,,,0,,,63,72
45886,note_on,,,,,1,0,1,,,,,0,,,55,65
45902,note_on,,,,,16,0,1,,,,,0,,,63,0
45906,note_on,,,,,4,0,1,,,,,0,,,55,0
45917,note_on,,,,,11,0,1,,,,,0,,,88,0
45918,note_on,,,,,1,0,1,,,,,0,,,79,0
45922,note_on,,,,,4,0,1,,,,,0,,,61,79
45924,note_on,,,,,2,0,1,,,,,0,,,52,64
45926,note_on,,,,,0,0,1,,,,,0,,,76,0
45926,note_on,,,,,2,0,1,,,,,0,,,85,0
45932,note_on,,,,,6,0,1,,,,,0,,,52,0
45933,note_on,,,,,1,0,1,,,,,0,,,61,0
45981,note_on,,,,,48,0,1,,,,,0,,,85,89
45982,note_on,,,,,0,0,1,,,,,0,,,73,82
45982,control_change,,,,,1,0,1,,,,,0,64,0,,
45984,note_on,,,,,2,0,1,,,,,0,,,80,71
45986,note_on,,,,,2,0,1,,,,,0,,,77,79
45987,note_on,,,,,1,0,1,,,,,0,,,35,66
45992,note_on,,,,,5,0,1,,,,,0,,,47,66
45995,note_on,,,,,3,0,1,,,,,0,,,35,0
46004,note_on,,,,,9,0,1,,,,,0,,,47,0
46006,control_change,,,,,2,0,1,,,,,0,64,104,,
46010,control_change,,,,,4,0,1,,,,,0,64,127,,
46028,note_on,,,,,18,0,1,,,,,0,,,80,0
46030,note_on,,,,,2,0,1,,,,,0,,,77,0
46034,note_on,,,,,4,0,1,,,,,0,,,61,63
46039,note_on,,,,,5,0,1,,,,,0,,,53,47
46047,note_on,,,,,0,0,1,,,,,0,,,61,0
46047,note_on,,,,,8,0,1,,,,,0,,,53,0
46058,note_on,,,,,11,0,1,,,,,0,,,73,0
46067,note_on,,,,,9,0,1,,,,,0,,,56,53
46076,note_on,,,,,9,0,1,,,,,0,,,63,60
46084,note_on,,,,,8,0,1,,,,,0,,,63,0
46084,note_on,,,,,0,0,1,,,,,0,,,56,0
46107,note_on,,,,,0,0,1,,,,,0,,,61,54
46107,note_on,,,,,23,0,1,,,,,0,,,65,74
46124,note_on,,,,,17,0,1,,,,,0,,,85,0
46125,note_on,,,,,1,0,1,,,,,0,,,61,0
46125,note_on,,,,,0,0,1,,,,,0,,,65,0
46137,note_on,,,,,12,0,1,,,,,0,,,87,91
46141,note_on,,,,,4,0,1,,,,,0,,,75,85
46144,note_on,,,,,3,0,1,,,,,0,,,68,58
46144,note_on,,,,,0,0,1,,,,,0,,,63,55
46162,note_on,,,,,18,0,1,,,,,0,,,63,0
46171,note_on,,,,,9,0,1,,,,,0,,,68,0
46179,note_on,,,,,8,0,1,,,,,0,,,65,63
46181,note_on,,,,,2,0,1,,,,,0,,,61,50
46189,note_on,,,,,8,0,1,,,,,0,,,61,0
46194,note_on,,,,,5,0,1,,,,,0,,,65,0
46213,note_on,,,,,19,0,1,,,,,0,,,63,72
46218,note_on,,,,,0,0,1,,,,,0,,,56,52
46218,note_on,,,,,5,0,1,,,,,0,,,75,0
46226,note_on,,,,,8,0,1,,,,,0,,,56,0
46229,note_on,,,,,3,0,1,,,,,0,,,63,0
46230,note_on,,,,,1,0,1,,,,,0,,,87,0
46245,note_on,,,,,15,0,1,,,,,0,,,73,90
46246,note_on,,,,,1,0,1,,,,,0,,,85,90
46246,note_on,,,,,0,0,1,,,,,0,,,53,52
46246,note_on,,,,,0,0,1,,,,,0,,,61,63
46266,note_on,,,,,20,0,1,,,,,0,,,73,0
46288,note_on,,,,,0,0,1,,,,,0,,,61,0
46288,note_on,,,,,0,0,1,,,,,0,,,53,0
46288,note_on,,,,,22,0,1,,,,,0,,,85,0
46304,control_change,,,,,16,0,1,,,,,0,64,72,,
46308,control_change,,,,,4,0,1,,,,,0,64,0,,
46309,note_on,,,,,0,0,1,,,,,0,,,85,79
46309,note_on,,,,,1,0,1,,,,,0,,,88,102
46310,note_on,,,,,0,0,1,,,,,0,,,79,84
46310,note_on,,,,,1,0,1,,,,,0,,,76,94
46311,note_on,,,,,1,0,1,,,,,0,,,34,75
46313,note_on,,,,,2,0,1,,,,,0,,,46,80
46324,note_on,,,,,11,0,1,,,,,0,,,34,0
46326,note_on,,,,,2,0,1,,,,,0,,,46,0
46328,control_change,,,,,2,0,1,,,,,0,64,88,,
46332,control_change,,,,,4,0,1,,,,,0,64,127,,
46356,note_on,,,,,24,0,1,,,,,0,,,61,72
46361,note_on,,,,,5,0,1,,,,,0,,,55,52
46374,note_on,,,,,13,0,1,,,,,0,,,61,0
46398,note_on,,,,,24,0,1,,,,,0,,,63,74
46398,note_on,,,,,0,0,1,,,,,0,,,55,53
46401,note_on,,,,,3,0,1,,,,,0,,,55,0
46411,note_on,,,,,0,0,1,,,,,0,,,63,0
46411,note_on,,,,,10,0,1,,,,,0,,,55,0
46431,note_on,,,,,0,0,1,,,,,0,,,61,55
46431,note_on,,,,,20,0,1,,,,,0,,,64,76
46452,note_on,,,,,0,0,1,,,,,0,,,64,0
46452,note_on,,,,,21,0,1,,,,,0,,,61,0
46469,note_on,,,,,17,0,1,,,,,0,,,63,72
46470,note_on,,,,,1,0,1,,,,,0,,,67,74
46493,note_on,,,,,23,0,1,,,,,0,,,67,0
46494,note_on,,,,,1,0,1,,,,,0,,,63,0
46508,note_on,,,,,14,0,1,,,,,0,,,64,82
46510,note_on,,,,,2,0,1,,,,,0,,,61,50
46514,note_on,,,,,4,0,1,,,,,0,,,76,0
46517,note_on,,,,,3,0,1,,,,,0,,,61,0
46518,note_on,,,,,1,0,1,,,,,0,,,88,0
46524,note_on,,,,,6,0,1,,,,,0,,,85,0
46529,note_on,,,,,5,0,1,,,,,0,,,79,0
46546,note_on,,,,,0,0,1,,,,,0,,,55,53
46546,note_on,,,,,17,0,1,,,,,0,,,63,78
46547,note_on,,,,,1,0,1,,,,,0,,,88,93
46549,note_on,,,,,0,0,1,,,,,0,,,76,88
46549,note_on,,,,,2,0,1,,,,,0,,,85,81
46550,note_on,,,,,1,0,1,,,,,0,,,79,78
46551,note_on,,,,,1,0,1,,,,,0,,,64,0
46582,note_on,,,,,0,0,1,,,,,0,,,52,50
46582,note_on,,,,,31,0,1,,,,,0,,,61,77
46589,note_on,,,,,0,0,1,,,,,0,,,55,0
46589,note_on,,,,,7,0,1,,,,,0,,,63,0
46594,note_on,,,,,5,0,1,,,,,0,,,52,0
46594,note_on,,,,,0,0,1,,,,,0,,,61,0
46627,control_change,,,,,33,0,1,,,,,0,64,104,,
46631,control_change,,,,,4,0,1,,,,,0,64,0,,
46636,note_on,,,,,5,0,1,,,,,0,,,33,78
46637,note_on,,,,,1,0,1,,,,,0,,,45,69
46643,note_on,,,,,6,0,1,,,,,0,,,79,0
46651,note_on,,,,,8,0,1,,,,,0,,,33,0
46651,control_change,,,,,0,0,1,,,,,0,64,127,,
46654,note_on,,,,,3,0,1,,,,,0,,,76,0
46654,note_on,,,,,0,0,1,,,,,0,,,45,0
46663,note_on,,,,,9,0,1,,,,,0,,,88,0
46668,note_on,,,,,5,0,1,,,,,0,,,85,0
46680,note_on,,,,,0,0,1,,,,,0,,,52,53
46680,note_on,,,,,12,0,1,,,,,0,,,61,76
46695,note_on,,,,,15,0,1,,,,,0,,,52,0
46695,note_on,,,,,0,0,1,,,,,0,,,61,0
46714,note_on,,,,,19,0,1,,,,,0,,,64,78
46714,note_on,,,,,0,0,1,,,,,0,,,57,55
46725,note_on,,,,,11,0,1,,,,,0,,,88,97
46727,note_on,,,,,0,0,1,,,,,0,,,76,90
46727,note_on,,,,,2,0,1,,,,,0,,,85,77
46728,note_on,,,,,1,0,1,,,,,0,,,81,81
46742,note_on,,,,,0,0,1,,,,,0,,,64,0
46742,note_on,,,,,14,0,1,,,,,0,,,57,0
46758,note_on,,,,,16,0,1,,,,,0,,,69,66
46759,note_on,,,,,1,0,1,,,,,0,,,61,55
46766,note_on,,,,,7,0,1,,,,,0,,,69,0
46770,note_on,,,,,4,0,1,,,,,0,,,61,0
46783,note_on,,,,,13,0,1,,,,,0,,,81,0
46804,note_on,,,,,0,0,1,,,,,0,,,43,86
46804,control_change,,,,,21,0,1,,,,,0,64,0,,
46808,note_on,,,,,4,0,1,,,,,0,,,31,65
46820,note_on,,,,,12,0,1,,,,,0,,,43,0
46821,control_change,,,,,1,0,1,,,,,0,64,127,,
46822,note_on,,,,,1,0,1,,,,,0,,,31,0
46823,note_on,,,,,1,0,1,,,,,0,,,76,0
46828,note_on,,,,,5,0,1,,,,,0,,,88,0
46831,note_on,,,,,3,0,1,,,,,0,,,85,0
46860,note_on,,,,,29,0,1,,,,,0,,,61,78
46864,note_on,,,,,4,0,1,,,,,0,,,52,56
46873,note_on,,,,,0,0,1,,,,,0,,,61,0
46873,note_on,,,,,9,0,1,,,,,0,,,52,0
46899,note_on,,,,,26,0,1,,,,,0,,,88,96
46899,note_on,,,,,0,0,1,,,,,0,,,82,75
46900,note_on,,,,,0,0,1,,,,,0,,,64,75
46900,note_on,,,,,1,0,1,,,,,0,,,58,55
46900,note_on,,,,,0,0,1,,,,,0,,,76,88
46901,note_on,,,,,1,0,1,,,,,0,,,85,67
46902,note_on,,,,,1,0,1,,,,,0,,,79,70
46913,note_on,,,,,11,0,1,,,,,0,,,79,0
46914,note_on,,,,,1,0,1,,,,,0,,,76,0
46919,note_on,,,,,5,0,1,,,,,0,,,82,0
46926,note_on,,,,,7,0,1,,,,,0,,,85,0
46930,note_on,,,,,4,0,1,,,,,0,,,88,0
46933,note_on,,,,,3,0,1,,,,,0,,,64,0
46943,note_on,,,,,10,0,1,,,,,0,,,70,79
46949,note_on,,,,,6,0,1,,,,,0,,,61,58
46953,note_on,,,,,4,0,1,,,,,0,,,70,0
46960,note_on,,,,,7,0,1,,,,,0,,,61,0
46963,note_on,,,,,3,0,1,,,,,0,,,58,0
47018,control_change,,,,,55,0,1,,,,,0,64,24,,
47022,note_on,,,,,4,0,1,,,,,0,,,91,103
47022,control_change,,,,,0,0,1,,,,,0,64,0,,
47023,note_on,,,,,1,0,1,,,,,0,,,86,89
47024,note_on,,,,,1,0,1,,,,,0,,,82,76
47024,note_on,,,,,0,0,1,,,,,0,,,79,86
47028,note_on,,,,,4,0,1,,,,,0,,,29,66
47030,note_on,,,,,2,0,1,,,,,0,,,41,61
47036,note_on,,,,,6,0,1,,,,,0,,,29,0
47042,control_change,,,,,6,0,1,,,,,0,64,127,,
47044,note_on,,,,,2,0,1,,,,,0,,,41,0
47089,note_on,,,,,45,0,1,,,,,0,,,67,54
47093,note_on,,,,,4,0,1,,,,,0,,,53,44
47104,note_on,,,,,11,0,1,,,,,0,,,53,0
47105,note_on,,,,,1,0,1,,,,,0,,,67,0
47125,note_on,,,,,20,0,1,,,,,0,,,58,42
47129,note_on,,,,,4,0,1,,,,,0,,,65,63
47135,note_on,,,,,6,0,1,,,,,0,,,62,36
47139,note_on,,,,,4,0,1,,,,,0,,,65,0
47145,note_on,,,,,0,0,1,,,,,0,,,62,0
47145,note_on,,,,,6,0,1,,,,,0,,,58,0
47168,note_on,,,,,0,0,1,,,,,0,,,53,50
47168,note_on,,,,,23,0,1,,,,,0,,,67,68
47179,note_on,,,,,11,0,1,,,,,0,,,67,0
47184,note_on,,,,,5,0,1,,,,,0,,,53,0
47204,note_on,,,,,20,0,1,,,,,0,,,58,54
47206,note_on,,,,,2,0,1,,,,,0,,,62,58
47209,note_on,,,,,3,0,1,,,,,0,,,65,55
47218,note_on,,,,,9,0,1,,,,,0,,,65,0
47221,note_on,,,,,3,0,1,,,,,0,,,62,0
47224,note_on,,,,,3,0,1,,,,,0,,,58,0
47243,note_on,,,,,19,0,1,,,,,0,,,53,62
47245,note_on,,,,,2,0,1,,,,,0,,,67,68
47260,note_on,,,,,0,0,1,,,,,0,,,53,0
47260,note_on,,,,,15,0,1,,,,,0,,,67,0
47280,note_on,,,,,20,0,1,,,,,0,,,58,51
47282,note_on,,,,,0,0,1,,,,,0,,,62,48
47282,note_on,,,,,2,0,1,,,,,0,,,65,57
47290,note_on,,,,,8,0,1,,,,,0,,,91,0
47292,note_on,,,,,2,0,1,,,,,0,,,65,0
47292,note_on,,,,,0,0,1,,,,,0,,,62,0
47299,note_on,,,,,7,0,1,,,,,0,,,79,0
47303,note_on,,,,,4,0,1,,,,,0,,,58,0
47318,note_on,,,,,15,0,1,,,,,0,,,53,62
47320,note_on,,,,,2,0,1,,,,,0,,,67,64
47332,note_on,,,,,12,0,1,,,,,0,,,67,0
47336,note_on,,,,,0,0,1,,,,,0,,,82,0
47336,note_on,,,,,4,0,1,,,,,0,,,86,0
47357,note_on,,,,,0,0,1,,,,,0,,,89,92
47357,note_on,,,,,21,0,1,,,,,0,,,53,0
47360,note_on,,,,,0,0,1,,,,,0,,,82,67
47360,note_on,,,,,0,0,1,,,,,0,,,86,74
47360,note_on,,,,,3,0,1,,,,,0,,,77,82
47361,note_on,,,,,1,0,1,,,,,0,,,58,48
47366,note_on,,,,,5,0,1,,,,,0,,,62,51
47376,note_on,,,,,10,0,1,,,,,0,,,62,0
47385,note_on,,,,,9,0,1,,,,,0,,,58,0
47401,note_on,,,,,16,0,1,,,,,0,,,67,74
47401,note_on,,,,,0,0,1,,,,,0,,,53,50
47416,note_on,,,,,15,0,1,,,,,0,,,53,0
47416,note_on,,,,,0,0,1,,,,,0,,,67,0
47433,note_on,,,,,17,0,1,,,,,0,,,65,62
47433,note_on,,,,,0,0,1,,,,,0,,,62,50
47438,note_on,,,,,5,0,1,,,,,0,,,58,63
47454,note_on,,,,,0,0,1,,,,,0,,,65,0
47454,note_on,,,,,16,0,1,,,,,0,,,62,0
47465,note_on,,,,,11,0,1,,,,,0,,,58,0
47475,note_on,,,,,10,0,1,,,,,0,,,67,73
47475,note_on,,,,,0,0,1,,,,,0,,,53,52
47491,note_on,,,,,0,0,1,,,,,0,,,67,0
47491,note_on,,,,,16,0,1,,,,,0,,,53,0
47501,note_on,,,,,10,0,1,,,,,0,,,89,0
47504,note_on,,,,,3,0,1,,,,,0,,,77,0
47507,note_on,,,,,3,0,1,,,,,0,,,86,0
47508,note_on,,,,,0,0,1,,,,,0,,,65,58
47508,note_on,,,,,0,0,1,,,,,0,,,62,41
47508,note_on,,,,,1,0,1,,,,,0,,,58,57
47510,note_on,,,,,2,0,1,,,,,0,,,82,0
47532,note_on,,,,,0,0,1,,,,,0,,,65,0
47532,note_on,,,,,22,0,1,,,,,0,,,62,0
47536,note_on,,,,,4,0,1,,,,,0,,,58,0
47551,note_on,,,,,15,0,1,,,,,0,,,67,74
47554,note_on,,,,,3,0,1,,,,,0,,,53,55
47577,note_on,,,,,23,0,1,,,,,0,,,67,0
47589,note_on,,,,,12,0,1,,,,,0,,,86,94
47591,note_on,,,,,0,0,1,,,,,0,,,82,67
47591,note_on,,,,,0,0,1,,,,,0,,,58,51
47591,note_on,,,,,0,0,1,,,,,0,,,62,51
47591,note_on,,,,,2,0,1,,,,,0,,,65,58
47591,note_on,,,,,0,0,1,,,,,0,,,74,78
47594,note_on,,,,,3,0,1,,,,,0,,,77,74
47615,note_on,,,,,21,0,1,,,,,0,,,53,0
47620,note_on,,,,,5,0,1,,,,,0,,,77,0
47620,note_on,,,,,0,0,1,,,,,0,,,53,73
47626,note_on,,,,,6,0,1,,,,,0,,,53,0
47627,note_on,,,,,0,0,1,,,,,0,,,62,0
47627,note_on,,,,,0,0,1,,,,,0,,,58,0
47627,note_on,,,,,1,0,1,,,,,0,,,65,0
47632,note_on,,,,,5,0,1,,,,,0,,,74,0
47651,note_on,,,,,19,0,1,,,,,0,,,86,0
47660,note_on,,,,,9,0,1,,,,,0,,,82,0
47680,control_change,,,,,20,0,1,,,,,0,64,0,,
47682,note_on,,,,,0,0,1,,,,,0,,,82,71
47682,note_on,,,,,2,0,1,,,,,0,,,86,94
47682,note_on,,,,,0,0,1,,,,,0,,,29,68
47683,note_on,,,,,1,0,1,,,,,0,,,74,82
47684,note_on,,,,,1,0,1,,,,,0,,,79,77
47688,note_on,,,,,4,0,1,,,,,0,,,41,61
47696,note_on,,,,,8,0,1,,,,,0,,,29,0
47696,control_change,,,,,0,0,1,,,,,0,64,40,,
47700,note_on,,,,,4,0,1,,,,,0,,,41,0
47700,control_change,,,,,0,0,1,,,,,0,64,127,,
47732,note_on,,,,,32,0,1,,,,,0,,,74,0
47736,note_on,,,,,4,0,1,,,,,0,,,67,81
47740,note_on,,,,,4,0,1,,,,,0,,,63,47
47742,note_on,,,,,2,0,1,,,,,0,,,53,46
47746,note_on,,,,,0,0,1,,,,,0,,,67,0
47746,note_on,,,,,4,0,1,,,,,0,,,63,0
47750,note_on,,,,,4,0,1,,,,,0,,,53,0
47771,note_on,,,,,21,0,1,,,,,0,,,58,58
47772,note_on,,,,,1,0,1,,,,,0,,,63,56
47774,note_on,,,,,2,0,1,,,,,0,,,65,60
47782,note_on,,,,,8,0,1,,,,,0,,,65,0
47786,note_on,,,,,4,0,1,,,,,0,,,63,0
47788,note_on,,,,,2,0,1,,,,,0,,,58,0
47790,note_on,,,,,2,0,1,,,,,0,,,86,0
47793,note_on,,,,,3,0,1,,,,,0,,,79,0
47808,note_on,,,,,15,0,1,,,,,0,,,67,77
47810,note_on,,,,,2,0,1,,,,,0,,,53,54
47819,note_on,,,,,9,0,1,,,,,0,,,82,0
47820,note_on,,,,,0,0,1,,,,,0,,,67,0
47820,note_on,,,,,1,0,1,,,,,0,,,53,0
47843,note_on,,,,,23,0,1,,,,,0,,,87,90
47845,note_on,,,,,2,0,1,,,,,0,,,75,86
47846,note_on,,,,,1,0,1,,,,,0,,,82,77
47848,note_on,,,,,0,0,1,,,,,0,,,58,60
47848,note_on,,,,,2,0,1,,,,,0,,,79,77
47848,note_on,,,,,0,0,1,,,,,0,,,63,62
47850,note_on,,,,,2,0,1,,,,,0,,,65,59
47858,note_on,,,,,8,0,1,,,,,0,,,65,0
47862,note_on,,,,,4,0,1,,,,,0,,,63,0
47864,note_on,,,,,2,0,1,,,,,0,,,58,0
47880,note_on,,,,,16,0,1,,,,,0,,,75,0
47882,note_on,,,,,2,0,1,,,,,0,,,79,0
47885,note_on,,,,,3,0,1,,,,,0,,,67,72
47891,note_on,,,,,6,0,1,,,,,0,,,53,53
47897,note_on,,,,,6,0,1,,,,,0,,,67,0
47900,note_on,,,,,3,0,1,,,,,0,,,53,0
47901,note_on,,,,,1,0,1,,,,,0,,,87,0
47910,note_on,,,,,9,0,1,,,,,0,,,82,0
47920,note_on,,,,,10,0,1,,,,,0,,,58,58
47922,note_on,,,,,2,0,1,,,,,0,,,65,64
47922,note_on,,,,,0,0,1,,,,,0,,,63,57
47938,note_on,,,,,16,0,1,,,,,0,,,63,0
47938,note_on,,,,,0,0,1,,,,,0,,,65,0
47946,note_on,,,,,8,0,1,,,,,0,,,58,0
47956,note_on,,,,,0,0,1,,,,,0,,,53,50
47956,note_on,,,,,10,0,1,,,,,0,,,67,71
47964,note_on,,,,,0,0,1,,,,,0,,,67,0
47964,note_on,,,,,8,0,1,,,,,0,,,53,0
47970,note_on,,,,,6,0,1,,,,,0,,,67,56
47985,note_on,,,,,15,0,1,,,,,0,,,70,67
47989,note_on,,,,,0,0,1,,,,,0,,,75,75
47989,note_on,,,,,4,0,1,,,,,0,,,67,0
48004,note_on,,,,,0,0,1,,,,,0,,,79,94
48004,note_on,,,,,15,0,1,,,,,0,,,70,0
48012,note_on,,,,,8,0,1,,,,,0,,,75,0
48036,note_on,,,,,24,0,1,,,,,0,,,67,73
48039,note_on,,,,,3,0,1,,,,,0,,,53,50
48050,note_on,,,,,11,0,1,,,,,0,,,67,0
48055,note_on,,,,,5,0,1,,,,,0,,,53,0
48074,note_on,,,,,19,0,1,,,,,0,,,58,66
48075,note_on,,,,,1,0,1,,,,,0,,,63,51
48077,note_on,,,,,2,0,1,,,,,0,,,65,67
48086,note_on,,,,,9,0,1,,,,,0,,,65,0
48088,note_on,,,,,2,0,1,,,,,0,,,63,0
48094,note_on,,,,,6,0,1,,,,,0,,,58,0
48105,note_on,,,,,11,0,1,,,,,0,,,79,0
48108,note_on,,,,,3,0,1,,,,,0,,,67,73
48113,note_on,,,,,5,0,1,,,,,0,,,65,56
48115,note_on,,,,,2,0,1,,,,,0,,,53,40
48121,note_on,,,,,6,0,1,,,,,0,,,65,0
48125,note_on,,,,,4,0,1,,,,,0,,,67,0
48127,note_on,,,,,2,0,1,,,,,0,,,53,0
48146,note_on,,,,,19,0,1,,,,,0,,,69,82
48147,note_on,,,,,0,0,1,,,,,0,,,81,89
48147,note_on,,,,,1,0,1,,,,,0,,,75,75
48148,control_change,,,,,1,0,1,,,,,0,64,40,,
48150,note_on,,,,,2,0,1,,,,,0,,,60,70
48150,note_on,,,,,0,0,1,,,,,0,,,72,77
48150,note_on,,,,,0,0,1,,,,,0,,,65,55
48151,control_change,,,,,1,0,1,,,,,0,64,0,,
48156,control_change,,,,,0,0,1,,,,,0,64,40,,
48156,note_on,,,,,5,0,1,,,,,0,,,63,42
48160,control_change,,,,,4,0,1,,,,,0,64,127,,
48162,note_on,,,,,2,0,1,,,,,0,,,65,0
48163,note_on,,,,,1,0,1,,,,,0,,,72,0
48163,note_on,,,,,0,0,1,,,,,0,,,63,0
48165,note_on,,,,,2,0,1,,,,,0,,,69,0
48174,note_on,,,,,9,0,1,,,,,0,,,60,0
48179,note_on,,,,,5,0,1,,,,,0,,,75,0
48188,note_on,,,,,9,0,1,,,,,0,,,53,24
48188,note_on,,,,,0,0,1,,,,,0,,,67,71
48192,note_on,,,,,4,0,1,,,,,0,,,81,0
48195,note_on,,,,,3,0,1,,,,,0,,,53,0
48202,note_on,,,,,7,0,1,,,,,0,,,67,0
48225,note_on,,,,,23,0,1,,,,,0,,,60,55
48227,note_on,,,,,2,0,1,,,,,0,,,65,69
48227,note_on,,,,,0,0,1,,,,,0,,,63,55
48245,note_on,,,,,18,0,1,,,,,0,,,63,0
48245,note_on,,,,,0,0,1,,,,,0,,,65,0
48258,note_on,,,,,13,0,1,,,,,0,,,53,56
48260,note_on,,,,,2,0,1,,,,,0,,,67,82
48268,note_on,,,,,8,0,1,,,,,0,,,67,0
48272,note_on,,,,,4,0,1,,,,,0,,,53,0
48274,note_on,,,,,2,0,1,,,,,0,,,60,0
48330,control_change,,,,,56,0,1,,,,,0,64,72,,
48330,note_on,,,,,0,0,1,,,,,0,,,91,107
48332,note_on,,,,,2,0,1,,,,,0,,,86,88
48332,note_on,,,,,0,0,1,,,,,0,,,82,80
48332,note_on,,,,,0,0,1,,,,,0,,,79,90
48333,note_on,,,,,1,0,1,,,,,0,,,29,68
48334,control_change,,,,,1,0,1,,,,,0,64,0,,
48337,note_on,,,,,3,0,1,,,,,0,,,41,52
48348,note_on,,,,,11,0,1,,,,,0,,,29,0
48353,control_change,,,,,5,0,1,,,,,0,64,127,,
48354,note_on,,,,,1,0,1,,,,,0,,,41,0
48399,note_on,,,,,45,0,1,,,,,0,,,67,66
48403,note_on,,,,,4,0,1,,,,,0,,,53,48
48414,note_on,,,,,11,0,1,,,,,0,,,67,0
48415,note_on,,,,,1,0,1,,,,,0,,,53,0
48436,note_on,,,,,21,0,1,,,,,0,,,58,55
48436,note_on,,,,,0,0,1,,,,,0,,,65,67
48438,note_on,,,,,2,0,1,,,,,0,,,62,58
48446,note_on,,,,,8,0,1,,,,,0,,,62,0
48450,note_on,,,,,4,0,1,,,,,0,,,65,0
48453,note_on,,,,,3,0,1,,,,,0,,,58,0
48474,note_on,,,,,0,0,1,,,,,0,,,53,61
48474,note_on,,,,,21,0,1,,,,,0,,,67,68
48490,note_on,,,,,16,0,1,,,,,0,,,67,0
48491,note_on,,,,,1,0,1,,,,,0,,,53,0
48510,note_on,,,,,19,0,1,,,,,0,,,58,57
48512,note_on,,,,,2,0,1,,,,,0,,,62,49
48514,note_on,,,,,2,0,1,,,,,0,,,65,65
48523,note_on,,,,,9,0,1,,,,,0,,,65,0
48529,note_on,,,,,6,0,1,,,,,0,,,62,0
48533,note_on,,,,,4,0,1,,,,,0,,,58,0
48548,note_on,,,,,15,0,1,,,,,0,,,67,72
48549,note_on,,,,,1,0,1,,,,,0,,,53,60
48564,note_on,,,,,0,0,1,,,,,0,,,67,0
48564,note_on,,,,,15,0,1,,,,,0,,,53,0
48572,note_on,,,,,8,0,1,,,,,0,,,91,0
48585,note_on,,,,,13,0,1,,,,,0,,,58,57
48586,note_on,,,,,1,0,1,,,,,0,,,65,59
48588,note_on,,,,,2,0,1,,,,,0,,,62,59
48589,note_on,,,,,1,0,1,,,,,0,,,79,0
48595,note_on,,,,,6,0,1,,,,,0,,,65,0
48599,note_on,,,,,4,0,1,,,,,0,,,62,0
48606,note_on,,,,,7,0,1,,,,,0,,,58,0
48620,note_on,,,,,0,0,1,,,,,0,,,67,74
48620,note_on,,,,,14,0,1,,,,,0,,,53,57
48624,note_on,,,,,4,0,1,,,,,0,,,82,0
48625,note_on,,,,,1,0,1,,,,,0,,,86,0
48635,note_on,,,,,10,0,1,,,,,0,,,67,0
48636,note_on,,,,,1,0,1,,,,,0,,,53,0
48658,note_on,,,,,22,0,1,,,,,0,,,89,93
48660,note_on,,,,,2,0,1,,,,,0,,,77,82
48661,note_on,,,,,0,0,1,,,,,0,,,82,69
48661,note_on,,,,,0,0,1,,,,,0,,,62,56
48661,note_on,,,,,1,0,1,,,,,0,,,86,80
48662,note_on,,,,,1,0,1,,,,,0,,,58,55
48666,note_on,,,,,4,0,1,,,,,0,,,65,36
48675,note_on,,,,,9,0,1,,,,,0,,,65,0
48680,note_on,,,,,5,0,1,,,,,0,,,62,0
48685,note_on,,,,,5,0,1,,,,,0,,,58,0
48697,note_on,,,,,12,0,1,,,,,0,,,53,34
48698,note_on,,,,,1,0,1,,,,,0,,,67,73
48713,note_on,,,,,15,0,1,,,,,0,,,67,0
48713,note_on,,,,,0,0,1,,,,,0,,,53,0
48737,note_on,,,,,24,0,1,,,,,0,,,58,55
48739,note_on,,,,,2,0,1,,,,,0,,,62,46
48741,note_on,,,,,2,0,1,,,,,0,,,65,49
48749,note_on,,,,,8,0,1,,,,,0,,,65,0
48756,note_on,,,,,7,0,1,,,,,0,,,62,0
48757,note_on,,,,,1,0,1,,,,,0,,,58,0
48773,note_on,,,,,16,0,1,,,,,0,,,67,74
48774,note_on,,,,,1,0,1,,,,,0,,,89,0
48774,note_on,,,,,0,0,1,,,,,0,,,53,50
48776,note_on,,,,,2,0,1,,,,,0,,,86,0
48779,note_on,,,,,3,0,1,,,,,0,,,82,0
48784,note_on,,,,,5,0,1,,,,,0,,,77,0
48784,note_on,,,,,0,0,1,,,,,0,,,53,0
48788,note_on,,,,,4,0,1,,,,,0,,,67,0
48812,note_on,,,,,24,0,1,,,,,0,,,58,59
48815,note_on,,,,,3,0,1,,,,,0,,,62,53
48815,note_on,,,,,0,0,1,,,,,0,,,65,68
48825,note_on,,,,,10,0,1,,,,,0,,,65,0
48825,note_on,,,,,0,0,1,,,,,0,,,62,0
48849,note_on,,,,,24,0,1,,,,,0,,,67,76
48850,note_on,,,,,1,0,1,,,,,0,,,53,54
48858,note_on,,,,,8,0,1,,,,,0,,,58,0
48877,note_on,,,,,19,0,1,,,,,0,,,67,0
48880,note_on,,,,,3,0,1,,,,,0,,,86,96
48881,note_on,,,,,1,0,1,,,,,0,,,82,73
48882,note_on,,,,,0,0,1,,,,,0,,,74,79
48882,note_on,,,,,1,0,1,,,,,0,,,77,83
48885,note_on,,,,,0,0,1,,,,,0,,,58,49
48885,note_on,,,,,0,0,1,,,,,0,,,62,49
48885,note_on,,,,,3,0,1,,,,,0,,,65,60
48907,note_on,,,,,22,0,1,,,,,0,,,77,0
48909,note_on,,,,,2,0,1,,,,,0,,,53,0
48910,note_on,,,,,1,0,1,,,,,0,,,65,0
48910,note_on,,,,,0,0,1,,,,,0,,,62,0
48910,note_on,,,,,0,0,1,,,,,0,,,58,0
48917,note_on,,,,,7,0,1,,,,,0,,,67,76
48917,note_on,,,,,0,0,1,,,,,0,,,53,57
48919,note_on,,,,,2,0,1,,,,,0,,,74,0
48927,note_on,,,,,8,0,1,,,,,0,,,86,0
48931,note_on,,,,,4,0,1,,,,,0,,,67,0
48931,note_on,,,,,0,0,1,,,,,0,,,53,0
48948,note_on,,,,,17,0,1,,,,,0,,,82,0
48971,control_change,,,,,23,0,1,,,,,0,64,104,,
48975,note_on,,,,,4,0,1,,,,,0,,,86,97
48975,control_change,,,,,0,0,1,,,,,0,64,0,,
48976,note_on,,,,,1,0,1,,,,,0,,,82,79
48977,note_on,,,,,1,0,1,,,,,0,,,74,85
48977,note_on,,,,,0,0,1,,,,,0,,,29,66
48977,note_on,,,,,0,0,1,,,,,0,,,79,78
48983,note_on,,,,,6,0,1,,,,,0,,,41,55
48990,note_on,,,,,7,0,1,,,,,0,,,29,0
48993,note_on,,,,,3,0,1,,,,,0,,,41,0
48995,control_change,,,,,2,0,1,,,,,0,64,104,,
48999,control_change,,,,,4,0,1,,,,,0,64,127,,
49024,note_on,,,,,25,0,1,,,,,0,,,74,0
49034,note_on,,,,,10,0,1,,,,,0,,,53,73
49035,note_on,,,,,1,0,1,,,,,0,,,67,60
49043,note_on,,,,,8,0,1,,,,,0,,,67,0
49043,note_on,,,,,0,0,1,,,,,0,,,53,0
49071,note_on,,,,,28,0,1,,,,,0,,,86,0
49072,note_on,,,,,1,0,1,,,,,0,,,63,47
49072,note_on,,,,,0,0,1,,,,,0,,,65,62
49072,note_on,,,,,0,0,1,,,,,0,,,58,51
49077,note_on,,,,,5,0,1,,,,,0,,,79,0
49080,note_on,,,,,3,0,1,,,,,0,,,58,0
49080,note_on,,,,,0,0,1,,,,,0,,,65,0
49082,note_on,,,,,2,0,1,,,,,0,,,63,0
49105,note_on,,,,,23,0,1,,,,,0,,,82,0
49105,note_on,,,,,0,0,1,,,,,0,,,67,68
49110,note_on,,,,,5,0,1,,,,,0,,,53,50
49117,note_on,,,,,7,0,1,,,,,0,,,67,0
49119,note_on,,,,,2,0,1,,,,,0,,,53,0
49142,note_on,,,,,23,0,1,,,,,0,,,87,86
49142,note_on,,,,,0,0,1,,,,,0,,,63,65
49143,note_on,,,,,1,0,1,,,,,0,,,75,78
49145,note_on,,,,,2,0,1,,,,,0,,,82,71
49145,note_on,,,,,0,0,1,,,,,0,,,58,62
49146,note_on,,,,,1,0,1,,,,,0,,,79,71
49149,note_on,,,,,3,0,1,,,,,0,,,65,41
49157,note_on,,,,,8,0,1,,,,,0,,,65,0
49161,note_on,,,,,4,0,1,,,,,0,,,63,0
49163,note_on,,,,,2,0,1,,,,,0,,,58,0
49171,note_on,,,,,8,0,1,,,,,0,,,75,0
49171,note_on,,,,,0,0,1,,,,,0,,,79,0
49178,note_on,,,,,7,0,1,,,,,0,,,87,0
49181,note_on,,,,,3,0,1,,,,,0,,,82,0
49182,note_on,,,,,1,0,1,,,,,0,,,67,69
49185,note_on,,,,,3,0,1,,,,,0,,,53,55
49196,note_on,,,,,0,0,1,,,,,0,,,67,0
49196,note_on,,,,,11,0,1,,,,,0,,,53,0
49219,note_on,,,,,23,0,1,,,,,0,,,65,60
49220,note_on,,,,,0,0,1,,,,,0,,,63,52
49220,note_on,,,,,1,0,1,,,,,0,,,58,52
49227,note_on,,,,,7,0,1,,,,,0,,,58,0
49232,note_on,,,,,5,0,1,,,,,0,,,63,0
49248,note_on,,,,,16,0,1,,,,,0,,,53,50
49250,note_on,,,,,2,0,1,,,,,0,,,67,76
49260,note_on,,,,,10,0,1,,,,,0,,,67,0
49262,note_on,,,,,2,0,1,,,,,0,,,53,0
49266,note_on,,,,,4,0,1,,,,,0,,,65,0
49276,note_on,,,,,10,0,1,,,,,0,,,67,63
49279,note_on,,,,,3,0,1,,,,,0,,,70,57
49281,note_on,,,,,2,0,1,,,,,0,,,75,73
49295,note_on,,,,,14,0,1,,,,,0,,,67,0
49299,note_on,,,,,4,0,1,,,,,0,,,79,93
49302,note_on,,,,,3,0,1,,,,,0,,,70,0
49306,note_on,,,,,4,0,1,,,,,0,,,75,0
49327,note_on,,,,,21,0,1,,,,,0,,,79,0
49335,note_on,,,,,8,0,1,,,,,0,,,67,76
49335,note_on,,,,,0,0,1,,,,,0,,,53,58
49349,note_on,,,,,14,0,1,,,,,0,,,67,0
49352,note_on,,,,,3,0,1,,,,,0,,,53,0
49375,note_on,,,,,0,0,1,,,,,0,,,65,70
49375,note_on,,,,,23,0,1,,,,,0,,,58,57
49378,note_on,,,,,3,0,1,,,,,0,,,63,54
49390,note_on,,,,,12,0,1,,,,,0,,,65,0
49397,note_on,,,,,7,0,1,,,,,0,,,63,0
49408,note_on,,,,,11,0,1,,,,,0,,,53,58
49412,note_on,,,,,4,0,1,,,,,0,,,67,70
49419,note_on,,,,,7,0,1,,,,,0,,,67,0
49422,note_on,,,,,3,0,1,,,,,0,,,53,0
49424,note_on,,,,,2,0,1,,,,,0,,,58,0
49463,note_on,,,,,39,0,1,,,,,0,,,81,100
49464,note_on,,,,,1,0,1,,,,,0,,,77,85
49464,note_on,,,,,0,0,1,,,,,0,,,72,84
49464,note_on,,,,,0,0,1,,,,,0,,,69,88
49464,control_change,,,,,0,0,1,,,,,0,64,88,,
49467,control_change,,,,,3,0,1,,,,,0,64,0,,
49468,note_on,,,,,1,0,1,,,,,0,,,39,82
49468,note_on,,,,,0,0,1,,,,,0,,,27,77
49474,note_on,,,,,6,0,1,,,,,0,,,39,0
49475,note_on,,,,,1,0,1,,,,,0,,,27,0
49488,control_change,,,,,0,0,1,,,,,0,64,127,,
49488,note_on,,,,,13,0,1,,,,,0,,,69,0
49490,note_on,,,,,2,0,1,,,,,0,,,72,0
49502,note_on,,,,,12,0,1,,,,,0,,,77,0
49516,note_on,,,,,14,0,1,,,,,0,,,65,79
49517,note_on,,,,,1,0,1,,,,,0,,,81,0
49517,note_on,,,,,0,0,1,,,,,0,,,53,54
49533,note_on,,,,,16,0,1,,,,,0,,,65,0
49540,note_on,,,,,7,0,1,,,,,0,,,53,0
49555,note_on,,,,,15,0,1,,,,,0,,,60,70
49557,note_on,,,,,2,0,1,,,,,0,,,67,82
49558,note_on,,,,,1,0,1,,,,,0,,,57,51
49569,note_on,,,,,11,0,1,,,,,0,,,67,0
49571,note_on,,,,,2,0,1,,,,,0,,,57,0
49574,note_on,,,,,3,0,1,,,,,0,,,60,0
49596,note_on,,,,,22,0,1,,,,,0,,,65,84
49600,note_on,,,,,4,0,1,,,,,0,,,53,69
49602,note_on,,,,,2,0,1,,,,,0,,,65,0
49614,note_on,,,,,12,0,1,,,,,0,,,53,0
49677,control_change,,,,,63,0,1,,,,,0,64,72,,
49681,control_change,,,,,4,0,1,,,,,0,64,0,,
49685,note_on,,,,,4,0,1,,,,,0,,,92,108
49685,note_on,,,,,0,0,1,,,,,0,,,85,85
49686,note_on,,,,,0,0,1,,,,,0,,,82,79
49686,note_on,,,,,1,0,1,,,,,0,,,80,91
49687,note_on,,,,,1,0,1,,,,,0,,,25,74
49689,note_on,,,,,2,0,1,,,,,0,,,37,86
49699,note_on,,,,,10,0,1,,,,,0,,,25,0
49701,note_on,,,,,2,0,1,,,,,0,,,37,0
49701,control_change,,,,,0,0,1,,,,,0,64,127,,
49747,note_on,,,,,46,0,1,,,,,0,,,54,57
49749,note_on,,,,,2,0,1,,,,,0,,,68,77
49757,note_on,,,,,8,0,1,,,,,0,,,68,0
49763,note_on,,,,,6,0,1,,,,,0,,,54,0
49782,note_on,,,,,19,0,1,,,,,0,,,61,50
49784,note_on,,,,,2,0,1,,,,,0,,,66,70
49785,note_on,,,,,1,0,1,,,,,0,,,58,50
49796,note_on,,,,,11,0,1,,,,,0,,,61,0
49800,note_on,,,,,0,0,1,,,,,0,,,58,0
49800,note_on,,,,,4,0,1,,,,,0,,,66,0
49821,note_on,,,,,0,0,1,,,,,0,,,54,63
49821,note_on,,,,,21,0,1,,,,,0,,,68,70
49834,note_on,,,,,13,0,1,,,,,0,,,68,0
49842,note_on,,,,,8,0,1,,,,,0,,,54,0
49857,note_on,,,,,15,0,1,,,,,0,,,58,64
49858,note_on,,,,,0,0,1,,,,,0,,,61,64
49858,note_on,,,,,1,0,1,,,,,0,,,66,69
49871,note_on,,,,,0,0,1,,,,,0,,,66,0
49871,note_on,,,,,13,0,1,,,,,0,,,61,0
49873,note_on,,,,,2,0,1,,,,,0,,,58,0
49894,note_on,,,,,21,0,1,,,,,0,,,54,65
49896,note_on,,,,,2,0,1,,,,,0,,,68,72
49904,note_on,,,,,8,0,1,,,,,0,,,68,0
49912,note_on,,,,,8,0,1,,,,,0,,,54,0
49930,note_on,,,,,18,0,1,,,,,0,,,58,58
49931,note_on,,,,,1,0,1,,,,,0,,,61,61
49932,note_on,,,,,1,0,1,,,,,0,,,66,70
49938,note_on,,,,,6,0,1,,,,,0,,,92,0
49942,note_on,,,,,4,0,1,,,,,0,,,66,0
49946,note_on,,,,,4,0,1,,,,,0,,,80,0
49946,note_on,,,,,0,0,1,,,,,0,,,61,0
49948,note_on,,,,,2,0,1,,,,,0,,,58,0
49966,note_on,,,,,18,0,1,,,,,0,,,54,67
49966,note_on,,,,,0,0,1,,,,,0,,,68,69
49979,note_on,,,,,13,0,1,,,,,0,,,82,0
49980,note_on,,,,,1,0,1,,,,,0,,,68,0
49981,note_on,,,,,1,0,1,,,,,0,,,85,0
49985,note_on,,,,,4,0,1,,,,,0,,,54,0
50004,note_on,,,,,19,0,1,,,,,0,,,90,91
50006,note_on,,,,,2,0,1,,,,,0,,,78,88
50006,note_on,,,,,0,0,1,,,,,0,,,82,76
50007,note_on,,,,,1,0,1,,,,,0,,,85,75
50008,note_on,,,,,0,0,1,,,,,0,,,66,48
50008,note_on,,,,,1,0,1,,,,,0,,,58,55
50010,note_on,,,,,2,0,1,,,,,0,,,61,45
50016,note_on,,,,,6,0,1,,,,,0,,,61,0
50018,note_on,,,,,2,0,1,,,,,0,,,66,0
50026,note_on,,,,,8,0,1,,,,,0,,,58,0
50046,note_on,,,,,20,0,1,,,,,0,,,54,59
50047,note_on,,,,,1,0,1,,,,,0,,,68,62
50056,note_on,,,,,9,0,1,,,,,0,,,68,0
50062,note_on,,,,,6,0,1,,,,,0,,,54,0
50081,note_on,,,,,19,0,1,,,,,0,,,58,61
50084,note_on,,,,,3,0,1,,,,,0,,,61,50
50085,note_on,,,,,1,0,1,,,,,0,,,66,73
50092,note_on,,,,,7,0,1,,,,,0,,,61,0
50093,note_on,,,,,1,0,1,,,,,0,,,66,0
50101,note_on,,,,,8,0,1,,,,,0,,,58,0
50120,note_on,,,,,0,0,1,,,,,0,,,54,54
50120,note_on,,,,,19,0,1,,,,,0,,,68,75
50135,note_on,,,,,15,0,1,,,,,0,,,54,0
50135,note_on,,,,,0,0,1,,,,,0,,,68,0
50156,note_on,,,,,21,0,1,,,,,0,,,61,65
50158,note_on,,,,,2,0,1,,,,,0,,,66,53
50159,note_on,,,,,1,0,1,,,,,0,,,58,56
50165,note_on,,,,,6,0,1,,,,,0,,,90,0
50168,note_on,,,,,3,0,1,,,,,0,,,66,0
50169,note_on,,,,,1,0,1,,,,,0,,,78,0
50170,note_on,,,,,1,0,1,,,,,0,,,85,0
50171,note_on,,,,,1,0,1,,,,,0,,,82,0
50175,note_on,,,,,4,0,1,,,,,0,,,61,0
50194,note_on,,,,,19,0,1,,,,,0,,,68,77
50198,note_on,,,,,4,0,1,,,,,0,,,54,53
50211,note_on,,,,,13,0,1,,,,,0,,,58,0
50223,note_on,,,,,12,0,1,,,,,0,,,68,0
50234,note_on,,,,,11,0,1,,,,,0,,,82,89
50237,note_on,,,,,0,0,1,,,,,0,,,73,73
50237,note_on,,,,,0,0,1,,,,,0,,,78,74
50237,note_on,,,,,3,0,1,,,,,0,,,70,77
50244,note_on,,,,,0,0,1,,,,,0,,,61,55
50244,note_on,,,,,0,0,1,,,,,0,,,58,55
50244,note_on,,,,,7,0,1,,,,,0,,,66,70
50263,note_on,,,,,19,0,1,,,,,0,,,73,0
50270,note_on,,,,,7,0,1,,,,,0,,,54,0
50271,note_on,,,,,1,0,1,,,,,0,,,66,0
50271,note_on,,,,,0,0,1,,,,,0,,,61,0
50271,note_on,,,,,0,0,1,,,,,0,,,58,0
50274,note_on,,,,,3,0,1,,,,,0,,,78,0
50278,note_on,,,,,4,0,1,,,,,0,,,54,65
50279,note_on,,,,,1,0,1,,,,,0,,,70,0
50287,note_on,,,,,8,0,1,,,,,0,,,54,0
50295,note_on,,,,,8,0,1,,,,,0,,,82,0
50342,note_on,,,,,47,0,1,,,,,0,,,82,73
50343,control_change,,,,,1,0,1,,,,,0,64,104,,
50345,note_on,,,,,2,0,1,,,,,0,,,70,55
50345,note_on,,,,,0,0,1,,,,,0,,,78,56
50346,control_change,,,,,0,0,1,,,,,0,64,0,,
50346,note_on,,,,,1,0,1,,,,,0,,,75,57
50350,note_on,,,,,4,0,1,,,,,0,,,37,37
50354,note_on,,,,,4,0,1,,,,,0,,,25,40
50358,note_on,,,,,4,0,1,,,,,0,,,37,0
50363,control_change,,,,,5,0,1,,,,,0,64,127,,
50364,note_on,,,,,1,0,1,,,,,0,,,25,0
50391,note_on,,,,,27,0,1,,,,,0,,,70,0
50406,note_on,,,,,15,0,1,,,,,0,,,82,0
50407,note_on,,,,,1,0,1,,,,,0,,,68,60
50407,note_on,,,,,0,0,1,,,,,0,,,54,51
50418,note_on,,,,,11,0,1,,,,,0,,,78,0
50418,note_on,,,,,0,0,1,,,,,0,,,75,0
50420,note_on,,,,,0,0,1,,,,,0,,,54,0
50420,note_on,,,,,2,0,1,,,,,0,,,68,0
50436,note_on,,,,,16,0,1,,,,,0,,,83,86
50436,note_on,,,,,0,0,1,,,,,0,,,78,59
50437,note_on,,,,,1,0,1,,,,,0,,,71,67
50438,note_on,,,,,1,0,1,,,,,0,,,75,61
50442,note_on,,,,,4,0,1,,,,,0,,,66,60
50443,note_on,,,,,1,0,1,,,,,0,,,59,48
50449,note_on,,,,,6,0,1,,,,,0,,,63,46
50453,note_on,,,,,4,0,1,,,,,0,,,59,0
50456,note_on,,,,,3,0,1,,,,,0,,,66,0
50457,note_on,,,,,1,0,1,,,,,0,,,63,0
50480,note_on,,,,,23,0,1,,,,,0,,,54,54
50483,note_on,,,,,3,0,1,,,,,0,,,68,65
50492,note_on,,,,,9,0,1,,,,,0,,,68,0
50498,note_on,,,,,6,0,1,,,,,0,,,54,0
50505,note_on,,,,,7,0,1,,,,,0,,,71,0
50513,note_on,,,,,8,0,1,,,,,0,,,59,58
50513,note_on,,,,,0,0,1,,,,,0,,,63,60
50513,note_on,,,,,0,0,1,,,,,0,,,66,67
50527,note_on,,,,,0,0,1,,,,,0,,,63,0
50527,note_on,,,,,14,0,1,,,,,0,,,66,0
50530,note_on,,,,,3,0,1,,,,,0,,,59,0
50532,note_on,,,,,2,0,1,,,,,0,,,83,0
50532,note_on,,,,,0,0,1,,,,,0,,,78,0
50536,note_on,,,,,4,0,1,,,,,0,,,75,0
50546,note_on,,,,,10,0,1,,,,,0,,,54,64
50546,note_on,,,,,0,0,1,,,,,0,,,68,71
50561,note_on,,,,,15,0,1,,,,,0,,,68,0
50566,note_on,,,,,5,0,1,,,,,0,,,54,0
50580,note_on,,,,,14,0,1,,,,,0,,,85,88
50582,note_on,,,,,2,0,1,,,,,0,,,73,87
50583,note_on,,,,,1,0,1,,,,,0,,,78,73
50584,note_on,,,,,1,0,1,,,,,0,,,75,74
50584,note_on,,,,,0,0,1,,,,,0,,,59,56
50584,note_on,,,,,0,0,1,,,,,0,,,66,42
50586,note_on,,,,,2,0,1,,,,,0,,,63,40
50594,note_on,,,,,8,0,1,,,,,0,,,63,0
50598,note_on,,,,,4,0,1,,,,,0,,,59,0
50600,note_on,,,,,2,0,1,,,,,0,,,66,0
50620,note_on,,,,,20,0,1,,,,,0,,,54,59
50622,note_on,,,,,0,0,1,,,,,0,,,68,57
50622,note_on,,,,,2,0,1,,,,,0,,,75,0
50625,note_on,,,,,3,0,1,,,,,0,,,78,0
50630,note_on,,,,,5,0,1,,,,,0,,,68,0
50638,note_on,,,,,8,0,1,,,,,0,,,54,0
50652,note_on,,,,,14,0,1,,,,,0,,,66,67
50652,note_on,,,,,0,0,1,,,,,0,,,63,60
50654,note_on,,,,,2,0,1,,,,,0,,,59,54
50666,note_on,,,,,12,0,1,,,,,0,,,63,0
50666,note_on,,,,,0,0,1,,,,,0,,,66,0
50669,note_on,,,,,3,0,1,,,,,0,,,73,0
50670,note_on,,,,,1,0,1,,,,,0,,,59,0
50686,note_on,,,,,16,0,1,,,,,0,,,68,62
50687,note_on,,,,,1,0,1,,,,,0,,,54,57
50700,note_on,,,,,13,0,1,,,,,0,,,68,0
50706,note_on,,,,,6,0,1,,,,,0,,,85,0
50708,note_on,,,,,2,0,1,,,,,0,,,54,0
50720,note_on,,,,,0,0,1,,,,,0,,,63,55
50720,note_on,,,,,12,0,1,,,,,0,,,66,65
50722,note_on,,,,,0,0,1,,,,,0,,,83,57
50722,note_on,,,,,2,0,1,,,,,0,,,86,93
50724,note_on,,,,,2,0,1,,,,,0,,,74,84
50724,note_on,,,,,0,0,1,,,,,0,,,59,62
50725,note_on,,,,,1,0,1,,,,,0,,,78,73
50737,note_on,,,,,0,0,1,,,,,0,,,66,0
50737,note_on,,,,,12,0,1,,,,,0,,,63,0
50743,note_on,,,,,6,0,1,,,,,0,,,59,0
50758,note_on,,,,,15,0,1,,,,,0,,,68,81
50764,note_on,,,,,6,0,1,,,,,0,,,54,34
50772,note_on,,,,,8,0,1,,,,,0,,,68,0
50774,note_on,,,,,2,0,1,,,,,0,,,74,0
50775,note_on,,,,,1,0,1,,,,,0,,,54,0
50791,note_on,,,,,16,0,1,,,,,0,,,66,63
50795,note_on,,,,,4,0,1,,,,,0,,,59,62
50797,note_on,,,,,2,0,1,,,,,0,,,63,46
50804,note_on,,,,,7,0,1,,,,,0,,,63,0
50806,note_on,,,,,2,0,1,,,,,0,,,66,0
50810,note_on,,,,,4,0,1,,,,,0,,,86,0
50813,note_on,,,,,3,0,1,,,,,0,,,59,0
50818,note_on,,,,,5,0,1,,,,,0,,,83,0
50826,note_on,,,,,8,0,1,,,,,0,,,68,81
50828,note_on,,,,,2,0,1,,,,,0,,,54,56
50841,note_on,,,,,13,0,1,,,,,0,,,54,0
50841,note_on,,,,,0,0,1,,,,,0,,,68,0
50845,note_on,,,,,4,0,1,,,,,0,,,78,0
50860,note_on,,,,,15,0,1,,,,,0,,,87,90
50863,note_on,,,,,3,0,1,,,,,0,,,75,89
50864,note_on,,,,,1,0,1,,,,,0,,,78,73
50865,note_on,,,,,1,0,1,,,,,0,,,83,81
50865,note_on,,,,,0,0,1,,,,,0,,,63,60
50866,note_on,,,,,1,0,1,,,,,0,,,66,53
50871,note_on,,,,,5,0,1,,,,,0,,,54,58
50872,note_on,,,,,1,0,1,,,,,0,,,59,41
50881,note_on,,,,,9,0,1,,,,,0,,,66,0
50886,note_on,,,,,5,0,1,,,,,0,,,59,0
50888,note_on,,,,,2,0,1,,,,,0,,,63,0
50890,note_on,,,,,2,0,1,,,,,0,,,54,0
50906,note_on,,,,,16,0,1,,,,,0,,,68,65
50907,note_on,,,,,1,0,1,,,,,0,,,54,50
50912,note_on,,,,,5,0,1,,,,,0,,,68,0
50917,note_on,,,,,5,0,1,,,,,0,,,78,0
50920,note_on,,,,,3,0,1,,,,,0,,,54,0
50951,note_on,,,,,31,0,1,,,,,0,,,83,0
50960,control_change,,,,,9,0,1,,,,,0,64,24,,
50963,note_on,,,,,3,0,1,,,,,0,,,25,88
50964,note_on,,,,,1,0,1,,,,,0,,,37,86
50964,control_change,,,,,0,0,1,,,,,0,64,0,,
50974,note_on,,,,,10,0,1,,,,,0,,,37,0
50976,control_change,,,,,2,0,1,,,,,0,64,72,,
50977,note_on,,,,,0,0,1,,,,,0,,,75,0
50977,note_on,,,,,1,0,1,,,,,0,,,25,0
50980,control_change,,,,,3,0,1,,,,,0,64,127,,
51004,note_on,,,,,24,0,1,,,,,0,,,87,0
51023,note_on,,,,,19,0,1,,,,,0,,,68,75
51025,note_on,,,,,2,0,1,,,,,0,,,54,49
51033,note_on,,,,,8,0,1,,,,,0,,,54,0
51037,note_on,,,,,4,0,1,,,,,0,,,68,0
51056,note_on,,,,,19,0,1,,,,,0,,,89,97
51056,note_on,,,,,0,0,1,,,,,0,,,87,73
51057,note_on,,,,,1,0,1,,,,,0,,,77,88
51059,note_on,,,,,2,0,1,,,,,0,,,66,56
51060,note_on,,,,,1,0,1,,,,,0,,,84,76
51060,note_on,,,,,0,0,1,,,,,0,,,60,63
51061,note_on,,,,,1,0,1,,,,,0,,,63,64
51069,note_on,,,,,8,0,1,,,,,0,,,63,0
51075,note_on,,,,,6,0,1,,,,,0,,,66,0
51077,note_on,,,,,2,0,1,,,,,0,,,60,0
51092,note_on,,,,,15,0,1,,,,,0,,,54,40
51100,note_on,,,,,8,0,1,,,,,0,,,68,57
51106,note_on,,,,,6,0,1,,,,,0,,,77,0
51109,note_on,,,,,3,0,1,,,,,0,,,68,0
51114,note_on,,,,,5,0,1,,,,,0,,,54,0
51124,note_on,,,,,10,0,1,,,,,0,,,89,0
51129,note_on,,,,,5,0,1,,,,,0,,,66,57
51131,note_on,,,,,0,0,1,,,,,0,,,63,65
51131,note_on,,,,,2,0,1,,,,,0,,,60,68
51147,note_on,,,,,16,0,1,,,,,0,,,63,0
51147,note_on,,,,,0,0,1,,,,,0,,,66,0
51151,note_on,,,,,4,0,1,,,,,0,,,60,0
51166,note_on,,,,,15,0,1,,,,,0,,,54,69
51166,note_on,,,,,0,0,1,,,,,0,,,68,75
51167,note_on,,,,,1,0,1,,,,,0,,,84,0
51184,note_on,,,,,17,0,1,,,,,0,,,68,0
51187,note_on,,,,,3,0,1,,,,,0,,,54,0
51188,note_on,,,,,1,0,1,,,,,0,,,87,0
51203,note_on,,,,,15,0,1,,,,,0,,,90,90
51203,note_on,,,,,0,0,1,,,,,0,,,87,71
51204,note_on,,,,,0,0,1,,,,,0,,,78,86
51204,note_on,,,,,0,0,1,,,,,0,,,60,71
51204,note_on,,,,,1,0,1,,,,,0,,,66,63
51206,note_on,,,,,2,0,1,,,,,0,,,63,64
51207,note_on,,,,,1,0,1,,,,,0,,,84,80
51221,note_on,,,,,14,0,1,,,,,0,,,66,0
51223,note_on,,,,,2,0,1,,,,,0,,,63,0
51227,note_on,,,,,4,0,1,,,,,0,,,60,0
51243,note_on,,,,,16,0,1,,,,,0,,,68,72
51243,note_on,,,,,0,0,1,,,,,0,,,54,54
51253,note_on,,,,,10,0,1,,,,,0,,,54,0
51256,note_on,,,,,3,0,1,,,,,0,,,68,0
51275,note_on,,,,,19,0,1,,,,,0,,,63,64
51275,note_on,,,,,0,0,1,,,,,0,,,66,64
51276,note_on,,,,,1,0,1,,,,,0,,,60,62
51278,note_on,,,,,2,0,1,,,,,0,,,78,0
51287,note_on,,,,,9,0,1,,,,,0,,,84,0
51291,note_on,,,,,4,0,1,,,,,0,,,66,0
51293,note_on,,,,,2,0,1,,,,,0,,,63,0
51299,note_on,,,,,6,0,1,,,,,0,,,60,0
51311,note_on,,,,,12,0,1,,,,,0,,,68,81
51312,note_on,,,,,1,0,1,,,,,0,,,90,0
51316,note_on,,,,,4,0,1,,,,,0,,,54,57
51324,note_on,,,,,8,0,1,,,,,0,,,54,0
51326,note_on,,,,,2,0,1,,,,,0,,,68,0
51333,note_on,,,,,7,0,1,,,,,0,,,87,0
51342,note_on,,,,,9,0,1,,,,,0,,,91,97
51344,note_on,,,,,2,0,1,,,,,0,,,87,59
51345,note_on,,,,,1,0,1,,,,,0,,,79,84
51346,note_on,,,,,0,0,1,,,,,0,,,63,70
51346,note_on,,,,,0,0,1,,,,,0,,,84,82
51346,note_on,,,,,1,0,1,,,,,0,,,66,64
51347,note_on,,,,,1,0,1,,,,,0,,,60,64
51352,note_on,,,,,5,0,1,,,,,0,,,54,51
51363,note_on,,,,,11,0,1,,,,,0,,,66,0
51366,note_on,,,,,3,0,1,,,,,0,,,63,0
51367,note_on,,,,,1,0,1,,,,,0,,,54,0
51370,note_on,,,,,3,0,1,,,,,0,,,60,0
51373,note_on,,,,,3,0,1,,,,,0,,,79,0
51380,note_on,,,,,7,0,1,,,,,0,,,91,0
51384,note_on,,,,,4,0,1,,,,,0,,,68,77
51386,note_on,,,,,2,0,1,,,,,0,,,54,57
51397,note_on,,,,,11,0,1,,,,,0,,,54,0
51399,note_on,,,,,2,0,1,,,,,0,,,68,0
51399,note_on,,,,,0,0,1,,,,,0,,,84,0
51403,note_on,,,,,4,0,1,,,,,0,,,87,0
51418,note_on,,,,,0,0,1,,,,,0,,,80,88
51418,note_on,,,,,0,0,1,,,,,0,,,87,69
51418,note_on,,,,,15,0,1,,,,,0,,,92,97
51420,note_on,,,,,2,0,1,,,,,0,,,66,75
51421,note_on,,,,,1,0,1,,,,,0,,,84,79
51422,note_on,,,,,1,0,1,,,,,0,,,63,63
51428,note_on,,,,,6,0,1,,,,,0,,,60,57
51436,note_on,,,,,8,0,1,,,,,0,,,66,0
51440,note_on,,,,,4,0,1,,,,,0,,,60,0
51441,note_on,,,,,1,0,1,,,,,0,,,63,0
51450,note_on,,,,,9,0,1,,,,,0,,,80,0
51452,note_on,,,,,2,0,1,,,,,0,,,84,0
51458,note_on,,,,,6,0,1,,,,,0,,,68,80
51460,note_on,,,,,2,0,1,,,,,0,,,54,59
51468,note_on,,,,,8,0,1,,,,,0,,,92,0
51469,note_on,,,,,1,0,1,,,,,0,,,87,0
51473,note_on,,,,,4,0,1,,,,,0,,,68,0
51476,note_on,,,,,3,0,1,,,,,0,,,54,0
51496,note_on,,,,,20,0,1,,,,,0,,,63,60
51498,note_on,,,,,2,0,1,,,,,0,,,93,105
51499,note_on,,,,,1,0,1,,,,,0,,,87,81
51501,note_on,,,,,2,0,1,,,,,0,,,81,83
51502,note_on,,,,,0,0,1,,,,,0,,,84,75
51502,note_on,,,,,1,0,1,,,,,0,,,60,67
51504,note_on,,,,,2,0,1,,,,,0,,,66,77
51513,note_on,,,,,9,0,1,,,,,0,,,66,0
51527,note_on,,,,,14,0,1,,,,,0,,,63,0
51529,note_on,,,,,2,0,1,,,,,0,,,84,0
51532,note_on,,,,,3,0,1,,,,,0,,,81,0
51538,note_on,,,,,6,0,1,,,,,0,,,54,55
51544,note_on,,,,,6,0,1,,,,,0,,,68,78
51548,note_on,,,,,4,0,1,,,,,0,,,87,0
51550,note_on,,,,,0,0,1,,,,,0,,,93,0
51550,note_on,,,,,2,0,1,,,,,0,,,54,0
51551,note_on,,,,,1,0,1,,,,,0,,,60,0
51552,note_on,,,,,1,0,1,,,,,0,,,68,0
51610,control_change,,,,,58,0,1,,,,,0,64,104,,
51614,note_on,,,,,4,0,1,,,,,0,,,94,103
51614,control_change,,,,,0,0,1,,,,,0,64,0,,
51615,note_on,,,,,1,0,1,,,,,0,,,82,89
51616,note_on,,,,,1,0,1,,,,,0,,,85,84
51617,note_on,,,,,1,0,1,,,,,0,,,89,90
51617,note_on,,,,,0,0,1,,,,,0,,,25,80
51620,note_on,,,,,3,0,1,,,,,0,,,37,79
51631,note_on,,,,,11,0,1,,,,,0,,,37,0
51631,note_on,,,,,0,0,1,,,,,0,,,25,0
51634,control_change,,,,,3,0,1,,,,,0,64,104,,
51638,control_change,,,,,4,0,1,,,,,0,64,127,,
51703,note_on,,,,,65,0,1,,,,,0,,,70,75
51707,note_on,,,,,4,0,1,,,,,0,,,59,58
51714,note_on,,,,,7,0,1,,,,,0,,,59,0
51720,note_on,,,,,6,0,1,,,,,0,,,70,0
51750,note_on,,,,,30,0,1,,,,,0,,,68,74
51751,note_on,,,,,1,0,1,,,,,0,,,61,53
51753,note_on,,,,,2,0,1,,,,,0,,,65,64
51769,note_on,,,,,16,0,1,,,,,0,,,68,0
51770,note_on,,,,,1,0,1,,,,,0,,,61,0
51772,note_on,,,,,2,0,1,,,,,0,,,65,0
51774,note_on,,,,,2,0,1,,,,,0,,,82,0
51782,note_on,,,,,8,0,1,,,,,0,,,85,0
51784,note_on,,,,,2,0,1,,,,,0,,,94,0
51786,note_on,,,,,2,0,1,,,,,0,,,89,0
51790,note_on,,,,,4,0,1,,,,,0,,,70,83
51793,note_on,,,,,3,0,1,,,,,0,,,59,55
51803,note_on,,,,,10,0,1,,,,,0,,,59,0
51808,note_on,,,,,5,0,1,,,,,0,,,70,0
51831,note_on,,,,,23,0,1,,,,,0,,,68,74
51832,note_on,,,,,1,0,1,,,,,0,,,94,92
51833,note_on,,,,,1,0,1,,,,,0,,,65,64
51834,note_on,,,,,1,0,1,,,,,0,,,82,86
51835,note_on,,,,,1,0,1,,,,,0,,,61,55
51836,note_on,,,,,1,0,1,,,,,0,,,85,78
51836,note_on,,,,,0,0,1,,,,,0,,,89,82
51852,note_on,,,,,16,0,1,,,,,0,,,68,0
51853,note_on,,,,,1,0,1,,,,,0,,,61,0
51854,note_on,,,,,1,0,1,,,,,0,,,65,0
51871,note_on,,,,,17,0,1,,,,,0,,,70,80
51875,note_on,,,,,4,0,1,,,,,0,,,59,56
51890,note_on,,,,,15,0,1,,,,,0,,,59,0
51890,note_on,,,,,0,0,1,,,,,0,,,70,0
51908,note_on,,,,,18,0,1,,,,,0,,,68,75
51910,note_on,,,,,2,0,1,,,,,0,,,61,51
51911,note_on,,,,,1,0,1,,,,,0,,,65,50
51927,note_on,,,,,16,0,1,,,,,0,,,68,0
51928,note_on,,,,,1,0,1,,,,,0,,,65,0
51932,note_on,,,,,4,0,1,,,,,0,,,61,0
51948,note_on,,,,,16,0,1,,,,,0,,,70,82
51952,note_on,,,,,4,0,1,,,,,0,,,59,57
51962,note_on,,,,,10,0,1,,,,,0,,,59,0
51970,note_on,,,,,8,0,1,,,,,0,,,70,0
51983,note_on,,,,,13,0,1,,,,,0,,,68,67
51987,note_on,,,,,4,0,1,,,,,0,,,65,64
51988,note_on,,,,,1,0,1,,,,,0,,,61,54
52008,note_on,,,,,20,0,1,,,,,0,,,65,0
52008,note_on,,,,,0,0,1,,,,,0,,,68,0
52012,note_on,,,,,4,0,1,,,,,0,,,61,0
52028,note_on,,,,,16,0,1,,,,,0,,,70,84
52033,note_on,,,,,5,0,1,,,,,0,,,59,56
52042,note_on,,,,,9,0,1,,,,,0,,,59,0
52049,note_on,,,,,7,0,1,,,,,0,,,70,0
52070,note_on,,,,,21,0,1,,,,,0,,,68,75
52071,note_on,,,,,1,0,1,,,,,0,,,61,63
52072,note_on,,,,,1,0,1,,,,,0,,,65,59
52086,note_on,,,,,14,0,1,,,,,0,,,68,0
52089,note_on,,,,,3,0,1,,,,,0,,,65,0
52103,note_on,,,,,14,0,1,,,,,0,,,85,0
52104,note_on,,,,,1,0,1,,,,,0,,,61,0
52106,note_on,,,,,2,0,1,,,,,0,,,94,0
52109,note_on,,,,,3,0,1,,,,,0,,,82,0
52111,note_on,,,,,2,0,1,,,,,0,,,89,0
52113,note_on,,,,,2,0,1,,,,,0,,,70,73
52122,note_on,,,,,9,0,1,,,,,0,,,59,56
52134,note_on,,,,,12,0,1,,,,,0,,,70,0
52158,note_on,,,,,24,0,1,,,,,0,,,59,0
52163,note_on,,,,,5,0,1,,,,,0,,,59,60
52180,note_on,,,,,17,0,1,,,,,0,,,61,65
52187,note_on,,,,,7,0,1,,,,,0,,,59,0
52190,note_on,,,,,3,0,1,,,,,0,,,65,70
52201,note_on,,,,,11,0,1,,,,,0,,,68,74
52204,note_on,,,,,3,0,1,,,,,0,,,61,0
52210,note_on,,,,,6,0,1,,,,,0,,,73,80
52213,note_on,,,,,3,0,1,,,,,0,,,94,100
52213,note_on,,,,,0,0,1,,,,,0,,,82,86
52214,note_on,,,,,1,0,1,,,,,0,,,65,0
52215,note_on,,,,,1,0,1,,,,,0,,,85,78
52215,note_on,,,,,0,0,1,,,,,0,,,89,88
52222,note_on,,,,,7,0,1,,,,,0,,,68,0
52231,note_on,,,,,9,0,1,,,,,0,,,73,0
52346,note_on,,,,,115,0,1,,,,,0,,,94,0
52380,note_on,,,,,34,0,1,,,,,0,,,82,0
52411,note_on,,,,,31,0,1,,,,,0,,,89,0
52473,note_on,,,,,0,0,1,,,,,0,,,92,102
52473,note_on,,,,,62,0,1,,,,,0,,,85,0
52474,note_on,,,,,0,0,1,,,,,0,,,80,89
52474,control_change,,,,,1,0,1,,,,,0,64,72,,
52477,control_change,,,,,3,0,1,,,,,0,64,0,,
52485,note_on,,,,,8,0,1,,,,,0,,,42,69
52496,note_on,,,,,11,0,1,,,,,0,,,92,0
52498,control_change,,,,,0,0,1,,,,,0,64,127,,
52498,note_on,,,,,2,0,1,,,,,0,,,80,0
52504,note_on,,,,,6,0,1,,,,,0,,,49,58
52507,note_on,,,,,3,0,1,,,,,0,,,42,0
52521,note_on,,,,,14,0,1,,,,,0,,,49,0
52525,note_on,,,,,4,0,1,,,,,0,,,58,70
52541,note_on,,,,,16,0,1,,,,,0,,,58,0
52564,note_on,,,,,23,0,1,,,,,0,,,90,92
52566,note_on,,,,,0,0,1,,,,,0,,,66,65
52566,note_on,,,,,2,0,1,,,,,0,,,78,74
52569,note_on,,,,,0,0,1,,,,,0,,,85,56
52569,note_on,,,,,3,0,1,,,,,0,,,82,58
52581,note_on,,,,,12,0,1,,,,,0,,,66,0
52597,note_on,,,,,16,0,1,,,,,0,,,90,0
52602,note_on,,,,,5,0,1,,,,,0,,,85,0
52602,note_on,,,,,0,0,1,,,,,0,,,82,0
52603,note_on,,,,,1,0,1,,,,,0,,,78,0
52704,note_on,,,,,101,0,1,,,,,0,,,75,68
52705,note_on,,,,,1,0,1,,,,,0,,,61,51
52724,note_on,,,,,19,0,1,,,,,0,,,61,0
52736,note_on,,,,,12,0,1,,,,,0,,,75,0
52748,note_on,,,,,12,0,1,,,,,0,,,73,66
52753,note_on,,,,,5,0,1,,,,,0,,,66,53
52773,note_on,,,,,20,0,1,,,,,0,,,66,0
52779,note_on,,,,,6,0,1,,,,,0,,,73,0
52793,note_on,,,,,14,0,1,,,,,0,,,75,64
52796,note_on,,,,,3,0,1,,,,,0,,,70,59
52816,note_on,,,,,20,0,1,,,,,0,,,75,0
52818,note_on,,,,,2,0,1,,,,,0,,,70,0
52837,note_on,,,,,19,0,1,,,,,0,,,73,56
52845,note_on,,,,,8,0,1,,,,,0,,,66,43
52862,note_on,,,,,17,0,1,,,,,0,,,66,0
52871,note_on,,,,,9,0,1,,,,,0,,,73,0
52883,note_on,,,,,12,0,1,,,,,0,,,75,53
52890,note_on,,,,,7,0,1,,,,,0,,,61,33
52898,note_on,,,,,8,0,1,,,,,0,,,61,0
52899,note_on,,,,,1,0,1,,,,,0,,,75,0
52928,note_on,,,,,0,0,1,,,,,0,,,73,71
52928,note_on,,,,,29,0,1,,,,,0,,,58,56
52944,note_on,,,,,16,0,1,,,,,0,,,58,0
52951,note_on,,,,,7,0,1,,,,,0,,,73,0
52974,note_on,,,,,23,0,1,,,,,0,,,61,44
52976,note_on,,,,,2,0,1,,,,,0,,,75,55
52988,note_on,,,,,12,0,1,,,,,0,,,61,0
52994,note_on,,,,,6,0,1,,,,,0,,,75,0
53015,note_on,,,,,21,0,1,,,,,0,,,73,54
53017,note_on,,,,,2,0,1,,,,,0,,,66,43
53026,note_on,,,,,9,0,1,,,,,0,,,66,0
53039,note_on,,,,,13,0,1,,,,,0,,,73,0
53058,note_on,,,,,19,0,1,,,,,0,,,75,46
53060,note_on,,,,,2,0,1,,,,,0,,,70,44
53076,note_on,,,,,16,0,1,,,,,0,,,75,0
53083,note_on,,,,,7,0,1,,,,,0,,,70,0
53099,note_on,,,,,16,0,1,,,,,0,,,73,53
53123,note_on,,,,,24,0,1,,,,,0,,,73,0
53141,note_on,,,,,18,0,1,,,,,0,,,75,37
53145,note_on,,,,,4,0,1,,,,,0,,,70,29
53159,note_on,,,,,14,0,1,,,,,0,,,70,0
53164,note_on,,,,,5,0,1,,,,,0,,,75,0
53180,note_on,,,,,16,0,1,,,,,0,,,54,68
53182,note_on,,,,,2,0,1,,,,,0,,,73,48
53224,note_on,,,,,42,0,1,,,,,0,,,73,0
53224,note_on,,,,,0,0,1,,,,,0,,,75,49
53232,note_on,,,,,8,0,1,,,,,0,,,61,38
53238,note_on,,,,,6,0,1,,,,,0,,,54,0
53246,note_on,,,,,8,0,1,,,,,0,,,75,0
53250,note_on,,,,,4,0,1,,,,,0,,,61,0
53279,note_on,,,,,29,0,1,,,,,0,,,42,46
53285,note_on,,,,,6,0,1,,,,,0,,,59,56
53292,control_change,,,,,7,0,1,,,,,0,64,88,,
53296,control_change,,,,,4,0,1,,,,,0,64,0,,
53307,note_on,,,,,11,0,1,,,,,0,,,53,70
53309,note_on,,,,,2,0,1,,,,,0,,,73,56
53310,note_on,,,,,1,0,1,,,,,0,,,59,0
53327,note_on,,,,,17,0,1,,,,,0,,,73,0
53332,control_change,,,,,5,0,1,,,,,0,64,72,,
53336,control_change,,,,,4,0,1,,,,,0,64,127,,
53356,note_on,,,,,20,0,1,,,,,0,,,61,44
53362,note_on,,,,,6,0,1,,,,,0,,,75,67
53371,note_on,,,,,9,0,1,,,,,0,,,61,0
53380,note_on,,,,,9,0,1,,,,,0,,,75,0
53398,note_on,,,,,18,0,1,,,,,0,,,73,55
53401,note_on,,,,,3,0,1,,,,,0,,,65,45
53417,note_on,,,,,16,0,1,,,,,0,,,65,0
53424,note_on,,,,,7,0,1,,,,,0,,,73,0
53441,note_on,,,,,0,0,1,,,,,0,,,75,42
53441,note_on,,,,,17,0,1,,,,,0,,,68,55
53458,note_on,,,,,17,0,1,,,,,0,,,68,0
53459,note_on,,,,,1,0,1,,,,,0,,,75,0
53481,note_on,,,,,22,0,1,,,,,0,,,73,56
53493,note_on,,,,,12,0,1,,,,,0,,,42,0
53508,note_on,,,,,15,0,1,,,,,0,,,73,0
53523,note_on,,,,,15,0,1,,,,,0,,,51,75
53528,note_on,,,,,5,0,1,,,,,0,,,75,47
53534,note_on,,,,,6,0,1,,,,,0,,,68,45
53538,note_on,,,,,4,0,1,,,,,0,,,53,0
53548,note_on,,,,,0,0,1,,,,,0,,,75,0
53548,note_on,,,,,10,0,1,,,,,0,,,68,0
53564,note_on,,,,,16,0,1,,,,,0,,,73,58
53564,note_on,,,,,0,0,1,,,,,0,,,65,45
53598,note_on,,,,,34,0,1,,,,,0,,,65,0
53598,note_on,,,,,0,0,1,,,,,0,,,73,0
53614,note_on,,,,,16,0,1,,,,,0,,,49,69
53614,note_on,,,,,0,0,1,,,,,0,,,75,71
53615,note_on,,,,,1,0,1,,,,,0,,,51,0
53615,note_on,,,,,0,0,1,,,,,0,,,61,50
53629,note_on,,,,,0,0,1,,,,,0,,,75,0
53629,note_on,,,,,14,0,1,,,,,0,,,61,0
53634,note_on,,,,,5,0,1,,,,,0,,,49,0
53662,note_on,,,,,28,0,1,,,,,0,,,73,65
53664,note_on,,,,,0,0,1,,,,,0,,,59,45
53664,note_on,,,,,2,0,1,,,,,0,,,49,75
53667,control_change,,,,,3,0,1,,,,,0,64,0,,
53673,note_on,,,,,6,0,1,,,,,0,,,59,0
53683,note_on,,,,,10,0,1,,,,,0,,,73,0
53687,control_change,,,,,4,0,1,,,,,0,64,56,,
53691,control_change,,,,,4,0,1,,,,,0,64,127,,
53704,note_on,,,,,0,0,1,,,,,0,,,61,45
53704,note_on,,,,,13,0,1,,,,,0,,,75,73
53716,note_on,,,,,12,0,1,,,,,0,,,61,0
53726,note_on,,,,,10,0,1,,,,,0,,,75,0
53739,note_on,,,,,13,0,1,,,,,0,,,49,0
53745,note_on,,,,,6,0,1,,,,,0,,,73,58
53747,note_on,,,,,2,0,1,,,,,0,,,53,74
53750,note_on,,,,,3,0,1,,,,,0,,,65,46
53772,note_on,,,,,22,0,1,,,,,0,,,65,0
53774,note_on,,,,,2,0,1,,,,,0,,,73,0
53780,note_on,,,,,6,0,1,,,,,0,,,53,0
53793,note_on,,,,,0,0,1,,,,,0,,,68,52
53793,note_on,,,,,13,0,1,,,,,0,,,75,44
53810,note_on,,,,,17,0,1,,,,,0,,,68,0
53811,note_on,,,,,1,0,1,,,,,0,,,75,0
53839,note_on,,,,,28,0,1,,,,,0,,,73,48
53844,note_on,,,,,5,0,1,,,,,0,,,63,70
53864,note_on,,,,,20,0,1,,,,,0,,,73,0
53878,note_on,,,,,14,0,1,,,,,0,,,75,61
53890,note_on,,,,,12,0,1,,,,,0,,,68,46
53900,note_on,,,,,10,0,1,,,,,0,,,68,0
53901,note_on,,,,,1,0,1,,,,,0,,,75,0
53923,note_on,,,,,22,0,1,,,,,0,,,73,59
53929,note_on,,,,,6,0,1,,,,,0,,,65,40
53952,note_on,,,,,23,0,1,,,,,0,,,63,0
53956,note_on,,,,,4,0,1,,,,,0,,,73,0
53966,note_on,,,,,10,0,1,,,,,0,,,65,0
53970,note_on,,,,,4,0,1,,,,,0,,,75,63
53971,note_on,,,,,1,0,1,,,,,0,,,61,65
53981,note_on,,,,,10,0,1,,,,,0,,,61,0
53991,note_on,,,,,10,0,1,,,,,0,,,75,0
54022,note_on,,,,,31,0,1,,,,,0,,,42,50
54024,note_on,,,,,2,0,1,,,,,0,,,58,49
54026,control_change,,,,,2,0,1,,,,,0,64,24,,
54030,control_change,,,,,4,0,1,,,,,0,64,0,,
54042,note_on,,,,,12,0,1,,,,,0,,,58,0
54045,note_on,,,,,3,0,1,,,,,0,,,66,57
54050,note_on,,,,,5,0,1,,,,,0,,,42,0
54054,control_change,,,,,4,0,1,,,,,0,64,127,,
54066,note_on,,,,,12,0,1,,,,,0,,,73,45
54074,note_on,,,,,8,0,1,,,,,0,,,66,0
54076,note_on,,,,,2,0,1,,,,,0,,,61,77
54082,note_on,,,,,6,0,1,,,,,0,,,73,0
54090,note_on,,,,,8,0,1,,,,,0,,,61,0
54112,note_on,,,,,22,0,1,,,,,0,,,61,56
54113,note_on,,,,,1,0,1,,,,,0,,,75,64
54124,note_on,,,,,11,0,1,,,,,0,,,61,0
54132,note_on,,,,,8,0,1,,,,,0,,,75,0
54156,note_on,,,,,24,0,1,,,,,0,,,73,50
54157,note_on,,,,,1,0,1,,,,,0,,,66,42
54169,note_on,,,,,12,0,1,,,,,0,,,66,0
54179,note_on,,,,,10,0,1,,,,,0,,,73,0
54189,note_on,,,,,0,0,1,,,,,0,,,70,45
54189,note_on,,,,,10,0,1,,,,,0,,,75,64
54204,note_on,,,,,15,0,1,,,,,0,,,61,55
54210,note_on,,,,,6,0,1,,,,,0,,,70,0
54210,note_on,,,,,0,0,1,,,,,0,,,75,0
54220,note_on,,,,,10,0,1,,,,,0,,,70,60
54221,note_on,,,,,1,0,1,,,,,0,,,61,0
54237,note_on,,,,,16,0,1,,,,,0,,,70,0
54244,note_on,,,,,7,0,1,,,,,0,,,78,70
54266,note_on,,,,,22,0,1,,,,,0,,,78,0
54283,note_on,,,,,17,0,1,,,,,0,,,80,73
54285,note_on,,,,,2,0,1,,,,,0,,,66,51
54293,note_on,,,,,8,0,1,,,,,0,,,66,0
54301,note_on,,,,,8,0,1,,,,,0,,,80,0
54314,note_on,,,,,13,0,1,,,,,0,,,78,65
54318,note_on,,,,,4,0,1,,,,,0,,,70,46
54342,note_on,,,,,24,0,1,,,,,0,,,70,0
54345,note_on,,,,,3,0,1,,,,,0,,,78,0
54349,note_on,,,,,4,0,1,,,,,0,,,80,73
54349,note_on,,,,,0,0,1,,,,,0,,,73,50
54367,note_on,,,,,18,0,1,,,,,0,,,73,0
54367,note_on,,,,,0,0,1,,,,,0,,,80,0
54376,note_on,,,,,9,0,1,,,,,0,,,66,48
54389,note_on,,,,,13,0,1,,,,,0,,,66,0
54392,note_on,,,,,3,0,1,,,,,0,,,73,58
54399,note_on,,,,,7,0,1,,,,,0,,,73,0
54407,note_on,,,,,8,0,1,,,,,0,,,82,76
54431,note_on,,,,,24,0,1,,,,,0,,,82,0
54450,note_on,,,,,0,0,1,,,,,0,,,70,54
54450,note_on,,,,,19,0,1,,,,,0,,,83,78
54463,note_on,,,,,13,0,1,,,,,0,,,70,0
54465,note_on,,,,,2,0,1,,,,,0,,,83,0
54487,note_on,,,,,22,0,1,,,,,0,,,82,67
54490,note_on,,,,,3,0,1,,,,,0,,,58,58
54496,note_on,,,,,6,0,1,,,,,0,,,73,45
54505,note_on,,,,,9,0,1,,,,,0,,,73,0
54516,note_on,,,,,11,0,1,,,,,0,,,82,0
54529,note_on,,,,,13,0,1,,,,,0,,,83,70
54529,note_on,,,,,0,0,1,,,,,0,,,78,48
54548,note_on,,,,,19,0,1,,,,,0,,,78,0
54548,note_on,,,,,0,0,1,,,,,0,,,83,0
54550,note_on,,,,,2,0,1,,,,,0,,,70,61
54560,note_on,,,,,10,0,1,,,,,0,,,78,54
54564,note_on,,,,,4,0,1,,,,,0,,,70,0
54567,note_on,,,,,3,0,1,,,,,0,,,78,0
54575,note_on,,,,,8,0,1,,,,,0,,,85,62
54579,note_on,,,,,4,0,1,,,,,0,,,56,54
54593,note_on,,,,,14,0,1,,,,,0,,,58,0
54599,note_on,,,,,6,0,1,,,,,0,,,85,0
54619,note_on,,,,,20,0,1,,,,,0,,,87,78
54619,note_on,,,,,0,0,1,,,,,0,,,73,48
54644,note_on,,,,,25,0,1,,,,,0,,,73,0
54644,note_on,,,,,0,0,1,,,,,0,,,87,0
54661,note_on,,,,,17,0,1,,,,,0,,,85,64
54661,note_on,,,,,0,0,1,,,,,0,,,78,47
54666,note_on,,,,,5,0,1,,,,,0,,,54,62
54675,note_on,,,,,9,0,1,,,,,0,,,56,0
54688,note_on,,,,,13,0,1,,,,,0,,,54,0
54697,note_on,,,,,9,0,1,,,,,0,,,78,0
54697,note_on,,,,,0,0,1,,,,,0,,,85,0
54711,note_on,,,,,14,0,1,,,,,0,,,87,67
54711,note_on,,,,,0,0,1,,,,,0,,,82,45
54727,note_on,,,,,16,0,1,,,,,0,,,82,0
54727,note_on,,,,,0,0,1,,,,,0,,,87,0
54750,note_on,,,,,23,0,1,,,,,0,,,42,46
54769,note_on,,,,,19,0,1,,,,,0,,,49,32
54772,control_change,,,,,3,0,1,,,,,0,64,88,,
54776,control_change,,,,,4,0,1,,,,,0,64,0,,
54779,note_on,,,,,3,0,1,,,,,0,,,85,58
54780,note_on,,,,,1,0,1,,,,,0,,,71,43
54783,note_on,,,,,3,0,1,,,,,0,,,53,73
54785,note_on,,,,,2,0,1,,,,,0,,,80,36
54793,note_on,,,,,8,0,1,,,,,0,,,71,0
54794,note_on,,,,,1,0,1,,,,,0,,,80,0
54800,note_on,,,,,6,0,1,,,,,0,,,85,0
54808,control_change,,,,,8,0,1,,,,,0,64,104,,
54813,control_change,,,,,5,0,1,,,,,0,64,127,,
54824,note_on,,,,,0,0,1,,,,,0,,,73,56
54824,note_on,,,,,11,0,1,,,,,0,,,87,71
54840,note_on,,,,,16,0,1,,,,,0,,,73,0
54844,note_on,,,,,4,0,1,,,,,0,,,87,0
54858,note_on,,,,,14,0,1,,,,,0,,,85,53
54866,note_on,,,,,8,0,1,,,,,0,,,49,0
54868,note_on,,,,,2,0,1,,,,,0,,,80,42
54879,note_on,,,,,11,0,1,,,,,0,,,80,0
54883,note_on,,,,,4,0,1,,,,,0,,,85,0
54901,note_on,,,,,18,0,1,,,,,0,,,87,56
54905,note_on,,,,,4,0,1,,,,,0,,,83,55
54914,note_on,,,,,9,0,1,,,,,0,,,83,0
54918,note_on,,,,,4,0,1,,,,,0,,,87,0
54940,note_on,,,,,22,0,1,,,,,0,,,85,61
54965,note_on,,,,,25,0,1,,,,,0,,,85,0
54982,note_on,,,,,17,0,1,,,,,0,,,87,54
54984,note_on,,,,,2,0,1,,,,,0,,,51,67
54986,note_on,,,,,2,0,1,,,,,0,,,83,56
55000,note_on,,,,,14,0,1,,,,,0,,,83,0
55000,note_on,,,,,0,0,1,,,,,0,,,42,0
55004,note_on,,,,,4,0,1,,,,,0,,,87,0
55024,note_on,,,,,20,0,1,,,,,0,,,85,58
55024,note_on,,,,,0,0,1,,,,,0,,,80,50
55034,note_on,,,,,10,0,1,,,,,0,,,53,0
55056,note_on,,,,,22,0,1,,,,,0,,,80,0
55056,note_on,,,,,0,0,1,,,,,0,,,85,0
55059,note_on,,,,,3,0,1,,,,,0,,,51,0
55069,note_on,,,,,10,0,1,,,,,0,,,49,67
55070,note_on,,,,,1,0,1,,,,,0,,,87,56
55073,note_on,,,,,3,0,1,,,,,0,,,73,42
55081,note_on,,,,,0,0,1,,,,,0,,,87,0
55081,note_on,,,,,8,0,1,,,,,0,,,73,0
55090,note_on,,,,,9,0,1,,,,,0,,,49,0
55115,control_change,,,,,25,0,1,,,,,0,64,24,,
55116,note_on,,,,,1,0,1,,,,,0,,,85,55
55116,note_on,,,,,0,0,1,,,,,0,,,71,47
55116,note_on,,,,,0,0,1,,,,,0,,,49,57
55119,control_change,,,,,3,0,1,,,,,0,64,0,,
55139,control_change,,,,,20,0,1,,,,,0,64,72,,
55143,control_change,,,,,4,0,1,,,,,0,64,127,,
55160,note_on,,,,,17,0,1,,,,,0,,,73,56
55162,note_on,,,,,2,0,1,,,,,0,,,87,56
55176,note_on,,,,,14,0,1,,,,,0,,,73,0
55181,note_on,,,,,5,0,1,,,,,0,,,87,0
55190,note_on,,,,,0,0,1,,,,,0,,,49,0
55190,note_on,,,,,9,0,1,,,,,0,,,85,0
55190,note_on,,,,,0,0,1,,,,,0,,,71,0
55198,note_on,,,,,0,0,1,,,,,0,,,80,46
55198,note_on,,,,,0,0,1,,,,,0,,,53,67
55198,note_on,,,,,8,0,1,,,,,0,,,85,53
55226,note_on,,,,,28,0,1,,,,,0,,,80,0
55226,note_on,,,,,0,0,1,,,,,0,,,85,0
55237,note_on,,,,,0,0,1,,,,,0,,,83,47
55237,note_on,,,,,11,0,1,,,,,0,,,87,67
55265,note_on,,,,,28,0,1,,,,,0,,,83,0
55265,note_on,,,,,0,0,1,,,,,0,,,87,0
55277,note_on,,,,,12,0,1,,,,,0,,,85,58
55278,note_on,,,,,1,0,1,,,,,0,,,63,74
55305,note_on,,,,,27,0,1,,,,,0,,,85,0
55319,note_on,,,,,0,0,1,,,,,0,,,83,45
55319,note_on,,,,,14,0,1,,,,,0,,,87,54
55344,note_on,,,,,0,0,1,,,,,0,,,87,0
55344,note_on,,,,,25,0,1,,,,,0,,,83,0
55362,note_on,,,,,0,0,1,,,,,0,,,80,47
55362,note_on,,,,,18,0,1,,,,,0,,,85,61
55363,note_on,,,,,1,0,1,,,,,0,,,61,72
55370,note_on,,,,,7,0,1,,,,,0,,,63,0
55372,note_on,,,,,2,0,1,,,,,0,,,53,0
55378,note_on,,,,,6,0,1,,,,,0,,,61,0
55397,note_on,,,,,19,0,1,,,,,0,,,85,0
55397,note_on,,,,,0,0,1,,,,,0,,,80,0
55404,note_on,,,,,7,0,1,,,,,0,,,87,59
55404,note_on,,,,,0,0,1,,,,,0,,,73,44
55427,note_on,,,,,23,0,1,,,,,0,,,73,0
55427,note_on,,,,,0,0,1,,,,,0,,,87,0
55432,note_on,,,,,5,0,1,,,,,0,,,42,49
55439,note_on,,,,,7,0,1,,,,,0,,,52,52
55442,control_change,,,,,3,0,1,,,,,0,64,88,,
55446,note_on,,,,,4,0,1,,,,,0,,,42,0
55446,control_change,,,,,0,0,1,,,,,0,64,0,,
55460,note_on,,,,,14,0,1,,,,,0,,,52,0
55464,note_on,,,,,4,0,1,,,,,0,,,58,58
55466,control_change,,,,,2,0,1,,,,,0,64,72,,
55470,control_change,,,,,4,0,1,,,,,0,64,127,,
55485,note_on,,,,,15,0,1,,,,,0,,,85,67
55490,note_on,,,,,5,0,1,,,,,0,,,78,55
55491,note_on,,,,,1,0,1,,,,,0,,,61,77
55497,note_on,,,,,6,0,1,,,,,0,,,58,0
55510,note_on,,,,,13,0,1,,,,,0,,,85,0
55510,note_on,,,,,0,0,1,,,,,0,,,61,0
55512,note_on,,,,,2,0,1,,,,,0,,,78,0
55533,note_on,,,,,21,0,1,,,,,0,,,87,72
55542,note_on,,,,,9,0,1,,,,,0,,,82,37
55550,note_on,,,,,8,0,1,,,,,0,,,82,0
55554,note_on,,,,,4,0,1,,,,,0,,,87,0
55572,note_on,,,,,18,0,1,,,,,0,,,85,68
55582,note_on,,,,,10,0,1,,,,,0,,,78,35
55603,note_on,,,,,21,0,1,,,,,0,,,85,0
55608,note_on,,,,,5,0,1,,,,,0,,,82,55
55611,note_on,,,,,3,0,1,,,,,0,,,78,0
55618,note_on,,,,,7,0,1,,,,,0,,,75,56
55620,note_on,,,,,2,0,1,,,,,0,,,82,0
55627,note_on,,,,,7,0,1,,,,,0,,,75,0
55648,note_on,,,,,21,0,1,,,,,0,,,78,58
55656,note_on,,,,,8,0,1,,,,,0,,,73,42
55663,note_on,,,,,7,0,1,,,,,0,,,73,0
55670,note_on,,,,,7,0,1,,,,,0,,,78,0
55688,note_on,,,,,0,0,1,,,,,0,,,70,50
55688,note_on,,,,,18,0,1,,,,,0,,,75,53
55712,note_on,,,,,24,0,1,,,,,0,,,75,0
55715,note_on,,,,,3,0,1,,,,,0,,,70,0
55726,note_on,,,,,11,0,1,,,,,0,,,73,36
55727,note_on,,,,,1,0,1,,,,,0,,,66,43
55733,note_on,,,,,6,0,1,,,,,0,,,73,0
55740,note_on,,,,,7,0,1,,,,,0,,,66,0
55764,note_on,,,,,24,0,1,,,,,0,,,70,44
55765,note_on,,,,,1,0,1,,,,,0,,,63,50
55779,note_on,,,,,14,0,1,,,,,0,,,70,0
55783,note_on,,,,,4,0,1,,,,,0,,,63,0
55803,note_on,,,,,20,0,1,,,,,0,,,61,33
55804,note_on,,,,,1,0,1,,,,,0,,,66,42
55824,note_on,,,,,20,0,1,,,,,0,,,61,0
55829,note_on,,,,,5,0,1,,,,,0,,,66,0
55844,note_on,,,,,15,0,1,,,,,0,,,63,44
55844,note_on,,,,,0,0,1,,,,,0,,,70,53
55862,note_on,,,,,0,0,1,,,,,0,,,63,0
55862,note_on,,,,,18,0,1,,,,,0,,,70,0
55884,note_on,,,,,22,0,1,,,,,0,,,66,35
55886,note_on,,,,,2,0,1,,,,,0,,,58,64
55892,note_on,,,,,6,0,1,,,,,0,,,73,39
55900,note_on,,,,,8,0,1,,,,,0,,,66,0
55901,note_on,,,,,1,0,1,,,,,0,,,73,0
55929,note_on,,,,,28,0,1,,,,,0,,,75,54
55932,note_on,,,,,3,0,1,,,,,0,,,70,34
55938,note_on,,,,,6,0,1,,,,,0,,,70,0
55946,note_on,,,,,8,0,1,,,,,0,,,75,0
55975,note_on,,,,,29,0,1,,,,,0,,,56,58
55977,note_on,,,,,2,0,1,,,,,0,,,73,34
55978,note_on,,,,,1,0,1,,,,,0,,,78,59
55992,note_on,,,,,14,0,1,,,,,0,,,73,0
55998,note_on,,,,,6,0,1,,,,,0,,,58,0
56003,note_on,,,,,5,0,1,,,,,0,,,78,0
56023,note_on,,,,,20,0,1,,,,,0,,,75,44
56023,note_on,,,,,0,0,1,,,,,0,,,82,53
56031,note_on,,,,,8,0,1,,,,,0,,,75,0
56043,note_on,,,,,12,0,1,,,,,0,,,82,0
56069,note_on,,,,,26,0,1,,,,,0,,,54,57
56072,note_on,,,,,3,0,1,,,,,0,,,78,46
56074,note_on,,,,,2,0,1,,,,,0,,,85,62
56082,note_on,,,,,8,0,1,,,,,0,,,56,0
56084,note_on,,,,,2,0,1,,,,,0,,,78,0
56090,note_on,,,,,6,0,1,,,,,0,,,85,0
56093,note_on,,,,,3,0,1,,,,,0,,,54,0
56114,note_on,,,,,21,0,1,,,,,0,,,87,57
56114,note_on,,,,,0,0,1,,,,,0,,,82,46
56145,note_on,,,,,31,0,1,,,,,0,,,82,0
56145,note_on,,,,,0,0,1,,,,,0,,,87,0
56159,note_on,,,,,14,0,1,,,,,0,,,42,62
56172,control_change,,,,,13,0,1,,,,,0,64,40,,
56176,control_change,,,,,4,0,1,,,,,0,64,0,,
56190,note_on,,,,,14,0,1,,,,,0,,,51,70
56199,control_change,,,,,9,0,1,,,,,0,64,88,,
56204,control_change,,,,,5,0,1,,,,,0,64,127,,
56223,note_on,,,,,19,0,1,,,,,0,,,42,0
56229,note_on,,,,,6,0,1,,,,,0,,,90,56
56230,note_on,,,,,0,0,1,,,,,0,,,85,46
56230,note_on,,,,,1,0,1,,,,,0,,,51,0
56240,note_on,,,,,10,0,1,,,,,0,,,85,0
56242,note_on,,,,,2,0,1,,,,,0,,,90,0
56265,note_on,,,,,23,0,1,,,,,0,,,87,68
56274,note_on,,,,,9,0,1,,,,,0,,,83,44
56284,note_on,,,,,10,0,1,,,,,0,,,83,0
56292,note_on,,,,,8,0,1,,,,,0,,,87,0
56304,note_on,,,,,12,0,1,,,,,0,,,85,61
56308,note_on,,,,,4,0,1,,,,,0,,,78,56
56321,note_on,,,,,13,0,1,,,,,0,,,85,0
56323,note_on,,,,,2,0,1,,,,,0,,,78,0
56347,note_on,,,,,0,0,1,,,,,0,,,75,56
56347,note_on,,,,,24,0,1,,,,,0,,,83,74
56348,note_on,,,,,1,0,1,,,,,0,,,54,67
56364,note_on,,,,,0,0,1,,,,,0,,,83,0
56364,note_on,,,,,16,0,1,,,,,0,,,75,0
56387,note_on,,,,,0,0,1,,,,,0,,,78,71
56387,note_on,,,,,23,0,1,,,,,0,,,73,65
56404,note_on,,,,,17,0,1,,,,,0,,,73,0
56408,note_on,,,,,4,0,1,,,,,0,,,78,0
56428,note_on,,,,,20,0,1,,,,,0,,,75,72
56432,note_on,,,,,4,0,1,,,,,0,,,71,44
56438,note_on,,,,,6,0,1,,,,,0,,,71,0
56445,note_on,,,,,7,0,1,,,,,0,,,75,0
56469,note_on,,,,,24,0,1,,,,,0,,,73,67
56474,note_on,,,,,5,0,1,,,,,0,,,66,40
56482,note_on,,,,,8,0,1,,,,,0,,,66,0
56493,note_on,,,,,11,0,1,,,,,0,,,73,0
56508,note_on,,,,,15,0,1,,,,,0,,,54,0
56509,note_on,,,,,1,0,1,,,,,0,,,59,78
56512,note_on,,,,,3,0,1,,,,,0,,,63,54
56517,note_on,,,,,5,0,1,,,,,0,,,71,64
56519,note_on,,,,,2,0,1,,,,,0,,,63,0
56540,note_on,,,,,21,0,1,,,,,0,,,71,0
56558,note_on,,,,,18,0,1,,,,,0,,,66,36
56559,note_on,,,,,1,0,1,,,,,0,,,73,50
56569,note_on,,,,,10,0,1,,,,,0,,,66,0
56577,note_on,,,,,8,0,1,,,,,0,,,73,0
56597,note_on,,,,,20,0,1,,,,,0,,,75,50
56602,note_on,,,,,5,0,1,,,,,0,,,71,35
56618,note_on,,,,,16,0,1,,,,,0,,,71,0
56625,note_on,,,,,7,0,1,,,,,0,,,75,0
56637,note_on,,,,,12,0,1,,,,,0,,,78,59
56640,note_on,,,,,3,0,1,,,,,0,,,73,30
56648,note_on,,,,,8,0,1,,,,,0,,,73,0
56651,note_on,,,,,3,0,1,,,,,0,,,78,0
56684,note_on,,,,,33,0,1,,,,,0,,,75,55
56686,note_on,,,,,2,0,1,,,,,0,,,83,71
56689,note_on,,,,,3,0,1,,,,,0,,,63,49
56701,note_on,,,,,12,0,1,,,,,0,,,75,0
56712,note_on,,,,,11,0,1,,,,,0,,,83,0
56726,note_on,,,,,14,0,1,,,,,0,,,78,56
56730,note_on,,,,,4,0,1,,,,,0,,,85,58
56736,note_on,,,,,6,0,1,,,,,0,,,78,0
56748,note_on,,,,,12,0,1,,,,,0,,,85,0
56782,note_on,,,,,34,0,1,,,,,0,,,87,61
56782,note_on,,,,,0,0,1,,,,,0,,,83,50
56793,note_on,,,,,0,0,1,,,,,0,,,87,0
56793,note_on,,,,,11,0,1,,,,,0,,,83,0
56794,note_on,,,,,1,0,1,,,,,0,,,63,0
56796,note_on,,,,,2,0,1,,,,,0,,,59,0
56830,note_on,,,,,34,0,1,,,,,0,,,90,74
56874,control_change,,,,,44,0,1,,,,,0,64,24,,
56877,control_change,,,,,0,0,1,,,,,0,64,0,,
56877,note_on,,,,,3,0,1,,,,,0,,,42,45
56890,note_on,,,,,13,0,1,,,,,0,,,50,45
56898,control_change,,,,,8,0,1,,,,,0,64,127,,
56900,note_on,,,,,2,0,1,,,,,0,,,50,0
56900,note_on,,,,,0,0,1,,,,,0,,,42,0
56910,note_on,,,,,10,0,1,,,,,0,,,54,52
56922,note_on,,,,,12,0,1,,,,,0,,,54,0
56927,note_on,,,,,5,0,1,,,,,0,,,57,52
56939,note_on,,,,,12,0,1,,,,,0,,,57,0
56950,note_on,,,,,11,0,1,,,,,0,,,62,56
56985,note_on,,,,,35,0,1,,,,,0,,,66,67
56989,note_on,,,,,4,0,1,,,,,0,,,90,0
56996,note_on,,,,,7,0,1,,,,,0,,,62,0
57004,note_on,,,,,8,0,1,,,,,0,,,66,0
57034,note_on,,,,,0,0,1,,,,,0,,,93,65
57034,note_on,,,,,30,0,1,,,,,0,,,90,55
57054,note_on,,,,,20,0,1,,,,,0,,,93,0
57057,note_on,,,,,3,0,1,,,,,0,,,90,0
57075,note_on,,,,,18,0,1,,,,,0,,,92,64
57079,note_on,,,,,4,0,1,,,,,0,,,86,55
57102,note_on,,,,,23,0,1,,,,,0,,,86,0
57110,note_on,,,,,8,0,1,,,,,0,,,92,0
57113,note_on,,,,,3,0,1,,,,,0,,,90,53
57120,note_on,,,,,7,0,1,,,,,0,,,81,42
57128,note_on,,,,,8,0,1,,,,,0,,,90,0
57136,note_on,,,,,8,0,1,,,,,0,,,81,0
57156,note_on,,,,,20,0,1,,,,,0,,,86,53
57164,note_on,,,,,8,0,1,,,,,0,,,78,48
57171,note_on,,,,,7,0,1,,,,,0,,,78,0
57175,note_on,,,,,4,0,1,,,,,0,,,86,0
57201,note_on,,,,,0,0,1,,,,,0,,,76,45
57201,note_on,,,,,26,0,1,,,,,0,,,81,51
57210,note_on,,,,,9,0,1,,,,,0,,,76,0
57210,note_on,,,,,0,0,1,,,,,0,,,81,0
57237,note_on,,,,,0,0,1,,,,,0,,,74,42
57237,note_on,,,,,27,0,1,,,,,0,,,78,50
57260,note_on,,,,,23,0,1,,,,,0,,,74,0
57260,note_on,,,,,0,0,1,,,,,0,,,78,0
57264,note_on,,,,,4,0,1,,,,,0,,,42,34
57269,note_on,,,,,5,0,1,,,,,0,,,50,40
57278,note_on,,,,,9,0,1,,,,,0,,,50,0
57278,note_on,,,,,0,0,1,,,,,0,,,42,0
57280,note_on,,,,,2,0,1,,,,,0,,,69,33
57280,note_on,,,,,0,0,1,,,,,0,,,76,61
57290,note_on,,,,,10,0,1,,,,,0,,,69,0
57290,note_on,,,,,0,0,1,,,,,0,,,57,45
57302,note_on,,,,,12,0,1,,,,,0,,,76,0
57303,note_on,,,,,1,0,1,,,,,0,,,57,0
57320,note_on,,,,,17,0,1,,,,,0,,,62,64
57328,note_on,,,,,8,0,1,,,,,0,,,66,44
57332,note_on,,,,,4,0,1,,,,,0,,,74,68
57336,note_on,,,,,4,0,1,,,,,0,,,62,0
57338,note_on,,,,,2,0,1,,,,,0,,,66,0
57340,note_on,,,,,2,0,1,,,,,0,,,74,0
57369,note_on,,,,,29,0,1,,,,,0,,,76,70
57371,note_on,,,,,2,0,1,,,,,0,,,69,43
57381,note_on,,,,,10,0,1,,,,,0,,,69,0
57387,note_on,,,,,6,0,1,,,,,0,,,76,0
57406,note_on,,,,,19,0,1,,,,,0,,,78,62
57421,note_on,,,,,15,0,1,,,,,0,,,74,31
57443,note_on,,,,,22,0,1,,,,,0,,,74,0
57444,note_on,,,,,1,0,1,,,,,0,,,42,47
57446,note_on,,,,,2,0,1,,,,,0,,,78,0
57447,note_on,,,,,0,0,1,,,,,0,,,76,45
57447,note_on,,,,,1,0,1,,,,,0,,,81,66
57454,note_on,,,,,0,0,1,,,,,0,,,81,0
57454,note_on,,,,,7,0,1,,,,,0,,,76,0
57462,note_on,,,,,8,0,1,,,,,0,,,42,0
57471,note_on,,,,,9,0,1,,,,,0,,,57,44
57479,note_on,,,,,8,0,1,,,,,0,,,57,0
57499,note_on,,,,,20,0,1,,,,,0,,,62,64
57507,note_on,,,,,8,0,1,,,,,0,,,78,38
57508,note_on,,,,,1,0,1,,,,,0,,,86,70
57514,note_on,,,,,0,0,1,,,,,0,,,66,46
57514,note_on,,,,,6,0,1,,,,,0,,,78,0
57526,note_on,,,,,12,0,1,,,,,0,,,62,0
57530,note_on,,,,,4,0,1,,,,,0,,,86,0
57538,note_on,,,,,8,0,1,,,,,0,,,66,0
57551,note_on,,,,,0,0,1,,,,,0,,,81,42
57551,note_on,,,,,13,0,1,,,,,0,,,88,61
57564,note_on,,,,,13,0,1,,,,,0,,,81,0
57574,note_on,,,,,10,0,1,,,,,0,,,88,0
57592,note_on,,,,,18,0,1,,,,,0,,,90,64
57599,note_on,,,,,7,0,1,,,,,0,,,86,52
57607,note_on,,,,,8,0,1,,,,,0,,,86,0
57619,note_on,,,,,12,0,1,,,,,0,,,90,0
57646,note_on,,,,,27,0,1,,,,,0,,,93,68
57670,note_on,,,,,24,0,1,,,,,0,,,42,46
57672,control_change,,,,,2,0,1,,,,,0,64,104,,
57676,control_change,,,,,4,0,1,,,,,0,64,0,,
57682,note_on,,,,,6,0,1,,,,,0,,,49,43
57690,note_on,,,,,8,0,1,,,,,0,,,49,0
57693,note_on,,,,,3,0,1,,,,,0,,,42,0
57696,note_on,,,,,3,0,1,,,,,0,,,54,43
57700,control_change,,,,,4,0,1,,,,,0,64,72,,
57704,control_change,,,,,4,0,1,,,,,0,64,127,,
57708,note_on,,,,,4,0,1,,,,,0,,,93,0
57710,note_on,,,,,2,0,1,,,,,0,,,54,0
57722,note_on,,,,,12,0,1,,,,,0,,,58,50
57742,note_on,,,,,20,0,1,,,,,0,,,58,0
57750,note_on,,,,,8,0,1,,,,,0,,,61,48
57758,note_on,,,,,8,0,1,,,,,0,,,61,0
57774,note_on,,,,,16,0,1,,,,,0,,,66,56
57800,note_on,,,,,26,0,1,,,,,0,,,70,64
57805,note_on,,,,,5,0,1,,,,,0,,,66,0
57816,note_on,,,,,11,0,1,,,,,0,,,70,0
57849,note_on,,,,,33,0,1,,,,,0,,,90,55
57852,note_on,,,,,3,0,1,,,,,0,,,94,59
57870,note_on,,,,,18,0,1,,,,,0,,,90,0
57871,note_on,,,,,1,0,1,,,,,0,,,94,0
57894,note_on,,,,,23,0,1,,,,,0,,,85,64
57894,note_on,,,,,0,0,1,,,,,0,,,92,64
57913,note_on,,,,,19,0,1,,,,,0,,,92,0
57913,note_on,,,,,0,0,1,,,,,0,,,85,0
57931,note_on,,,,,18,0,1,,,,,0,,,90,60
57934,note_on,,,,,3,0,1,,,,,0,,,82,56
57946,note_on,,,,,12,0,1,,,,,0,,,90,0
57948,note_on,,,,,2,0,1,,,,,0,,,82,0
57975,note_on,,,,,27,0,1,,,,,0,,,85,51
57980,note_on,,,,,5,0,1,,,,,0,,,80,42
57989,note_on,,,,,9,0,1,,,,,0,,,80,0
57994,note_on,,,,,5,0,1,,,,,0,,,85,0
58018,note_on,,,,,24,0,1,,,,,0,,,82,53
58020,note_on,,,,,2,0,1,,,,,0,,,78,46
58039,note_on,,,,,0,0,1,,,,,0,,,82,0
58039,note_on,,,,,19,0,1,,,,,0,,,78,0
58056,note_on,,,,,17,0,1,,,,,0,,,73,33
58060,note_on,,,,,4,0,1,,,,,0,,,80,47
58066,note_on,,,,,6,0,1,,,,,0,,,73,0
58081,note_on,,,,,15,0,1,,,,,0,,,80,0
58097,note_on,,,,,16,0,1,,,,,0,,,78,51
58097,note_on,,,,,0,0,1,,,,,0,,,70,29
58107,note_on,,,,,10,0,1,,,,,0,,,70,0
58118,note_on,,,,,11,0,1,,,,,0,,,78,0
58120,control_change,,,,,2,0,1,,,,,0,64,104,,
58124,note_on,,,,,0,0,1,,,,,0,,,54,52
58124,control_change,,,,,4,0,1,,,,,0,64,40,,
58128,control_change,,,,,4,0,1,,,,,0,64,24,,
58132,control_change,,,,,4,0,1,,,,,0,64,72,,
58136,control_change,,,,,4,0,1,,,,,0,64,127,,
58148,note_on,,,,,12,0,1,,,,,0,,,54,0
58158,note_on,,,,,10,0,1,,,,,0,,,61,45
58180,note_on,,,,,22,0,1,,,,,0,,,65,70
58229,note_on,,,,,49,0,1,,,,,0,,,71,54
58239,note_on,,,,,10,0,1,,,,,0,,,99,59
58242,note_on,,,,,3,0,1,,,,,0,,,95,63
58260,note_on,,,,,0,0,1,,,,,0,,,99,0
58260,note_on,,,,,18,0,1,,,,,0,,,95,0
58279,note_on,,,,,0,0,1,,,,,0,,,92,64
58279,note_on,,,,,19,0,1,,,,,0,,,97,64
58306,note_on,,,,,27,0,1,,,,,0,,,92,0
58310,note_on,,,,,4,0,1,,,,,0,,,97,0
58318,note_on,,,,,8,0,1,,,,,0,,,95,58
58322,note_on,,,,,4,0,1,,,,,0,,,87,39
58330,note_on,,,,,8,0,1,,,,,0,,,95,0
58339,note_on,,,,,9,0,1,,,,,0,,,87,0
58366,note_on,,,,,27,0,1,,,,,0,,,65,0
58366,note_on,,,,,0,0,1,,,,,0,,,92,46
58368,note_on,,,,,2,0,1,,,,,0,,,85,42
58374,note_on,,,,,6,0,1,,,,,0,,,92,0
58377,note_on,,,,,3,0,1,,,,,0,,,85,0
58406,note_on,,,,,29,0,1,,,,,0,,,71,0
58409,note_on,,,,,0,0,1,,,,,0,,,83,44
58409,note_on,,,,,3,0,1,,,,,0,,,87,57
58411,note_on,,,,,2,0,1,,,,,0,,,63,56
58420,note_on,,,,,9,0,1,,,,,0,,,83,0
58420,note_on,,,,,0,0,1,,,,,0,,,87,0
58428,note_on,,,,,8,0,1,,,,,0,,,61,0
58453,note_on,,,,,25,0,1,,,,,0,,,85,53
58453,note_on,,,,,0,0,1,,,,,0,,,80,43
58477,note_on,,,,,24,0,1,,,,,0,,,80,0
58477,note_on,,,,,0,0,1,,,,,0,,,85,0
58498,note_on,,,,,21,0,1,,,,,0,,,83,52
58498,note_on,,,,,0,0,1,,,,,0,,,73,42
58502,note_on,,,,,4,0,1,,,,,0,,,61,46
58504,note_on,,,,,2,0,1,,,,,0,,,63,0
58522,note_on,,,,,18,0,1,,,,,0,,,83,0
58522,note_on,,,,,0,0,1,,,,,0,,,73,0
58529,note_on,,,,,7,0,1,,,,,0,,,61,0
58535,control_change,,,,,6,0,1,,,,,0,64,56,,
58539,note_on,,,,,4,0,1,,,,,0,,,54,47
58540,control_change,,,,,1,0,1,,,,,0,64,0,,
58554,note_on,,,,,14,0,1,,,,,0,,,54,0
58556,control_change,,,,,2,0,1,,,,,0,64,40,,
58556,note_on,,,,,0,0,1,,,,,0,,,61,52
58560,control_change,,,,,4,0,1,,,,,0,64,127,,
58571,note_on,,,,,11,0,1,,,,,0,,,61,0
58575,note_on,,,,,4,0,1,,,,,0,,,66,59
58594,note_on,,,,,0,0,1,,,,,0,,,70,62
58594,note_on,,,,,19,0,1,,,,,0,,,66,0
58607,note_on,,,,,13,0,1,,,,,0,,,70,0
58635,note_on,,,,,28,0,1,,,,,0,,,87,58
58638,note_on,,,,,3,0,1,,,,,0,,,82,49
58653,note_on,,,,,15,0,1,,,,,0,,,87,0
58654,note_on,,,,,1,0,1,,,,,0,,,82,0
58678,note_on,,,,,24,0,1,,,,,0,,,78,55
58678,note_on,,,,,0,0,1,,,,,0,,,85,50
58700,note_on,,,,,22,0,1,,,,,0,,,85,0
58700,note_on,,,,,0,0,1,,,,,0,,,78,0
58716,note_on,,,,,16,0,1,,,,,0,,,82,54
58718,note_on,,,,,2,0,1,,,,,0,,,75,54
58724,note_on,,,,,6,0,1,,,,,0,,,82,0
58732,note_on,,,,,8,0,1,,,,,0,,,75,0
58755,note_on,,,,,23,0,1,,,,,0,,,78,64
58765,note_on,,,,,10,0,1,,,,,0,,,73,25
58772,note_on,,,,,7,0,1,,,,,0,,,73,0
58778,note_on,,,,,6,0,1,,,,,0,,,78,0
58797,note_on,,,,,19,0,1,,,,,0,,,70,53
58799,note_on,,,,,2,0,1,,,,,0,,,75,51
58813,note_on,,,,,14,0,1,,,,,0,,,70,0
58820,note_on,,,,,7,0,1,,,,,0,,,75,0
58839,note_on,,,,,19,0,1,,,,,0,,,66,27
58839,note_on,,,,,0,0,1,,,,,0,,,73,53
58848,note_on,,,,,9,0,1,,,,,0,,,66,0
58861,note_on,,,,,13,0,1,,,,,0,,,73,0
58882,note_on,,,,,21,0,1,,,,,0,,,70,46
58882,note_on,,,,,0,0,1,,,,,0,,,61,38
58889,note_on,,,,,0,0,1,,,,,0,,,70,0
58889,note_on,,,,,7,0,1,,,,,0,,,61,0
58902,control_change,,,,,13,0,1,,,,,0,64,104,,
58906,control_change,,,,,4,0,1,,,,,0,64,40,,
58910,control_change,,,,,4,0,1,,,,,0,64,0,,
58916,note_on,,,,,6,0,1,,,,,0,,,54,48
58918,control_change,,,,,2,0,1,,,,,0,64,56,,
58923,control_change,,,,,5,0,1,,,,,0,64,127,,
58939,note_on,,,,,16,0,1,,,,,0,,,54,0
58942,note_on,,,,,3,0,1,,,,,0,,,61,53
58965,note_on,,,,,23,0,1,,,,,0,,,65,56
58976,note_on,,,,,11,0,1,,,,,0,,,61,0
58999,note_on,,,,,23,0,1,,,,,0,,,71,60
59022,note_on,,,,,0,0,1,,,,,0,,,95,65
59022,note_on,,,,,23,0,1,,,,,0,,,99,60
59036,note_on,,,,,14,0,1,,,,,0,,,95,0
59039,note_on,,,,,3,0,1,,,,,0,,,99,0
59061,note_on,,,,,22,0,1,,,,,0,,,97,62
59063,note_on,,,,,2,0,1,,,,,0,,,92,61
59086,note_on,,,,,0,0,1,,,,,0,,,97,0
59086,note_on,,,,,23,0,1,,,,,0,,,92,0
59101,note_on,,,,,15,0,1,,,,,0,,,95,63
59104,note_on,,,,,3,0,1,,,,,0,,,87,51
59108,note_on,,,,,4,0,1,,,,,0,,,95,0
59119,note_on,,,,,11,0,1,,,,,0,,,87,0
59129,note_on,,,,,10,0,1,,,,,0,,,65,0
59143,note_on,,,,,14,0,1,,,,,0,,,92,67
59144,note_on,,,,,1,0,1,,,,,0,,,85,69
59159,note_on,,,,,15,0,1,,,,,0,,,85,0
59161,note_on,,,,,2,0,1,,,,,0,,,92,0
59171,note_on,,,,,10,0,1,,,,,0,,,71,0
59189,note_on,,,,,0,0,1,,,,,0,,,83,44
59189,note_on,,,,,18,0,1,,,,,0,,,63,51
59190,note_on,,,,,1,0,1,,,,,0,,,87,50
59199,note_on,,,,,9,0,1,,,,,0,,,83,0
59206,note_on,,,,,7,0,1,,,,,0,,,87,0
59231,note_on,,,,,0,0,1,,,,,0,,,80,45
59231,note_on,,,,,25,0,1,,,,,0,,,85,50
59251,note_on,,,,,0,0,1,,,,,0,,,85,0
59251,note_on,,,,,20,0,1,,,,,0,,,80,0
59266,note_on,,,,,15,0,1,,,,,0,,,63,0
59274,note_on,,,,,8,0,1,,,,,0,,,61,42
59276,note_on,,,,,2,0,1,,,,,0,,,83,49
59276,note_on,,,,,0,0,1,,,,,0,,,73,40
59302,note_on,,,,,26,0,1,,,,,0,,,73,0
59302,control_change,,,,,0,0,1,,,,,0,64,104,,
59302,note_on,,,,,0,0,1,,,,,0,,,83,0
59303,note_on,,,,,1,0,1,,,,,0,,,61,0
59305,control_change,,,,,2,0,1,,,,,0,64,40,,
59310,note_on,,,,,5,0,1,,,,,0,,,54,50
59310,control_change,,,,,0,0,1,,,,,0,64,0,,
59318,note_on,,,,,8,0,1,,,,,0,,,54,0
59322,control_change,,,,,4,0,1,,,,,0,64,56,,
59323,note_on,,,,,1,0,1,,,,,0,,,61,52
59326,control_change,,,,,3,0,1,,,,,0,64,127,,
59340,note_on,,,,,14,0,1,,,,,0,,,61,0
59341,note_on,,,,,1,0,1,,,,,0,,,66,57
59361,note_on,,,,,20,0,1,,,,,0,,,70,54
59363,note_on,,,,,2,0,1,,,,,0,,,66,0
59373,note_on,,,,,10,0,1,,,,,0,,,70,0
59398,note_on,,,,,25,0,1,,,,,0,,,87,62
59404,note_on,,,,,6,0,1,,,,,0,,,82,33
59413,note_on,,,,,9,0,1,,,,,0,,,82,0
59417,note_on,,,,,4,0,1,,,,,0,,,87,0
59437,note_on,,,,,20,0,1,,,,,0,,,85,58
59439,note_on,,,,,2,0,1,,,,,0,,,78,59
59458,note_on,,,,,19,0,1,,,,,0,,,78,0
59460,note_on,,,,,2,0,1,,,,,0,,,85,0
59475,note_on,,,,,15,0,1,,,,,0,,,82,53
59480,note_on,,,,,5,0,1,,,,,0,,,75,53
59484,note_on,,,,,4,0,1,,,,,0,,,82,0
59492,note_on,,,,,8,0,1,,,,,0,,,75,0
59514,note_on,,,,,22,0,1,,,,,0,,,78,55
59520,note_on,,,,,6,0,1,,,,,0,,,73,40
59528,note_on,,,,,8,0,1,,,,,0,,,73,0
59534,note_on,,,,,6,0,1,,,,,0,,,78,0
59555,note_on,,,,,0,0,1,,,,,0,,,75,53
59555,note_on,,,,,21,0,1,,,,,0,,,70,51
59574,note_on,,,,,19,0,1,,,,,0,,,75,0
59575,note_on,,,,,1,0,1,,,,,0,,,70,0
59591,note_on,,,,,16,0,1,,,,,0,,,66,50
59595,note_on,,,,,4,0,1,,,,,0,,,73,49
59606,note_on,,,,,11,0,1,,,,,0,,,66,0
59616,note_on,,,,,10,0,1,,,,,0,,,73,0
59628,note_on,,,,,12,0,1,,,,,0,,,70,61
59640,note_on,,,,,12,0,1,,,,,0,,,54,40
59645,note_on,,,,,5,0,1,,,,,0,,,70,0
59659,note_on,,,,,14,0,1,,,,,0,,,54,0
59659,note_on,,,,,0,0,1,,,,,0,,,61,48
59680,note_on,,,,,21,0,1,,,,,0,,,66,50
59683,note_on,,,,,3,0,1,,,,,0,,,61,0
59696,note_on,,,,,0,0,1,,,,,0,,,70,56
59696,note_on,,,,,13,0,1,,,,,0,,,66,0
59704,note_on,,,,,8,0,1,,,,,0,,,70,0
59724,note_on,,,,,20,0,1,,,,,0,,,90,73
59727,note_on,,,,,3,0,1,,,,,0,,,85,60
59744,note_on,,,,,17,0,1,,,,,0,,,85,0
59746,note_on,,,,,2,0,1,,,,,0,,,90,0
59766,note_on,,,,,20,0,1,,,,,0,,,87,63
59768,note_on,,,,,2,0,1,,,,,0,,,82,54
59787,note_on,,,,,19,0,1,,,,,0,,,87,0
59789,note_on,,,,,2,0,1,,,,,0,,,82,0
59802,note_on,,,,,13,0,1,,,,,0,,,85,60
59804,note_on,,,,,2,0,1,,,,,0,,,78,46
59817,note_on,,,,,13,0,1,,,,,0,,,85,0
59818,note_on,,,,,1,0,1,,,,,0,,,78,0
59842,note_on,,,,,0,0,1,,,,,0,,,75,41
59842,note_on,,,,,24,0,1,,,,,0,,,82,48
59864,note_on,,,,,22,0,1,,,,,0,,,75,0
59864,note_on,,,,,0,0,1,,,,,0,,,82,0
59880,note_on,,,,,16,0,1,,,,,0,,,78,61
59882,note_on,,,,,2,0,1,,,,,0,,,73,56
59901,note_on,,,,,19,0,1,,,,,0,,,73,0
59902,note_on,,,,,1,0,1,,,,,0,,,78,0
59922,note_on,,,,,20,0,1,,,,,0,,,75,56
59925,note_on,,,,,3,0,1,,,,,0,,,70,37
59932,note_on,,,,,7,0,1,,,,,0,,,70,0
59944,note_on,,,,,12,0,1,,,,,0,,,75,0
59960,note_on,,,,,16,0,1,,,,,0,,,73,54
59960,note_on,,,,,0,0,1,,,,,0,,,66,40
59963,note_on,,,,,3,0,1,,,,,0,,,54,37
59975,note_on,,,,,0,0,1,,,,,0,,,73,0
59975,note_on,,,,,12,0,1,,,,,0,,,66,0
59978,note_on,,,,,0,0,1,,,,,0,,,61,44
59978,note_on,,,,,3,0,1,,,,,0,,,54,0
59989,note_on,,,,,11,0,1,,,,,0,,,61,0
60001,note_on,,,,,12,0,1,,,,,0,,,66,54
60010,note_on,,,,,9,0,1,,,,,0,,,66,0
60018,note_on,,,,,8,0,1,,,,,0,,,70,50
60025,note_on,,,,,7,0,1,,,,,0,,,70,0
60056,note_on,,,,,31,0,1,,,,,0,,,94,63
60058,note_on,,,,,2,0,1,,,,,0,,,87,60
60073,note_on,,,,,15,0,1,,,,,0,,,87,0
60077,note_on,,,,,4,0,1,,,,,0,,,94,0
60094,note_on,,,,,17,0,1,,,,,0,,,85,59
60096,note_on,,,,,2,0,1,,,,,0,,,90,48
60120,note_on,,,,,24,0,1,,,,,0,,,85,0
60122,note_on,,,,,2,0,1,,,,,0,,,90,0
60135,note_on,,,,,0,0,1,,,,,0,,,82,42
60135,note_on,,,,,13,0,1,,,,,0,,,87,55
60145,note_on,,,,,10,0,1,,,,,0,,,87,0
60150,note_on,,,,,5,0,1,,,,,0,,,82,0
60172,note_on,,,,,22,0,1,,,,,0,,,85,54
60172,note_on,,,,,0,0,1,,,,,0,,,78,42
60193,note_on,,,,,0,0,1,,,,,0,,,85,0
60193,note_on,,,,,21,0,1,,,,,0,,,78,0
60215,note_on,,,,,22,0,1,,,,,0,,,82,50
60217,note_on,,,,,2,0,1,,,,,0,,,75,42
60234,note_on,,,,,17,0,1,,,,,0,,,82,0
60238,note_on,,,,,4,0,1,,,,,0,,,75,0
60258,note_on,,,,,20,0,1,,,,,0,,,78,52
60258,note_on,,,,,0,0,1,,,,,0,,,73,42
60269,note_on,,,,,0,0,1,,,,,0,,,78,0
60269,note_on,,,,,11,0,1,,,,,0,,,73,0
60298,note_on,,,,,29,0,1,,,,,0,,,75,55
60298,note_on,,,,,0,0,1,,,,,0,,,70,40
60302,note_on,,,,,4,0,1,,,,,0,,,54,37
60316,note_on,,,,,14,0,1,,,,,0,,,54,0
60316,note_on,,,,,0,0,1,,,,,0,,,75,0
60316,note_on,,,,,0,0,1,,,,,0,,,70,0
60319,note_on,,,,,3,0,1,,,,,0,,,61,40
60342,note_on,,,,,0,0,1,,,,,0,,,66,48
60342,note_on,,,,,23,0,1,,,,,0,,,61,0
60362,note_on,,,,,20,0,1,,,,,0,,,66,0
60365,note_on,,,,,3,0,1,,,,,0,,,70,65
60378,note_on,,,,,13,0,1,,,,,0,,,70,0
60414,note_on,,,,,36,0,1,,,,,0,,,99,62
60419,note_on,,,,,5,0,1,,,,,0,,,94,51
60433,note_on,,,,,14,0,1,,,,,0,,,99,0
60435,note_on,,,,,2,0,1,,,,,0,,,94,0
60457,note_on,,,,,22,0,1,,,,,0,,,90,64
60459,note_on,,,,,2,0,1,,,,,0,,,97,59
60482,note_on,,,,,23,0,1,,,,,0,,,90,0
60484,note_on,,,,,2,0,1,,,,,0,,,97,0
60497,note_on,,,,,0,0,1,,,,,0,,,87,49
60497,note_on,,,,,13,0,1,,,,,0,,,94,54
60511,note_on,,,,,14,0,1,,,,,0,,,94,0
60513,note_on,,,,,2,0,1,,,,,0,,,87,0
60534,note_on,,,,,21,0,1,,,,,0,,,90,53
60542,note_on,,,,,8,0,1,,,,,0,,,85,43
60552,note_on,,,,,10,0,1,,,,,0,,,85,0
60554,note_on,,,,,2,0,1,,,,,0,,,90,0
60577,note_on,,,,,23,0,1,,,,,0,,,87,55
60577,note_on,,,,,0,0,1,,,,,0,,,82,42
60598,note_on,,,,,21,0,1,,,,,0,,,82,0
60598,note_on,,,,,0,0,1,,,,,0,,,87,0
60614,note_on,,,,,16,0,1,,,,,0,,,70,38
60615,note_on,,,,,1,0,1,,,,,0,,,78,53
60615,note_on,,,,,0,0,1,,,,,0,,,85,61
60627,note_on,,,,,12,0,1,,,,,0,,,78,0
60629,note_on,,,,,2,0,1,,,,,0,,,70,0
60634,note_on,,,,,5,0,1,,,,,0,,,85,0
60651,note_on,,,,,17,0,1,,,,,0,,,87,70
60653,note_on,,,,,2,0,1,,,,,0,,,73,32
60660,note_on,,,,,7,0,1,,,,,0,,,82,32
60668,note_on,,,,,8,0,1,,,,,0,,,82,0
60677,note_on,,,,,9,0,1,,,,,0,,,73,0
60679,note_on,,,,,2,0,1,,,,,0,,,87,0
60692,note_on,,,,,13,0,1,,,,,0,,,90,65
60695,note_on,,,,,3,0,1,,,,,0,,,85,58
60696,note_on,,,,,1,0,1,,,,,0,,,75,44
60710,note_on,,,,,14,0,1,,,,,0,,,85,0
60714,note_on,,,,,4,0,1,,,,,0,,,90,0
60720,note_on,,,,,6,0,1,,,,,0,,,75,0
60730,note_on,,,,,10,0,1,,,,,0,,,78,49
60735,note_on,,,,,5,0,1,,,,,0,,,94,69
60736,note_on,,,,,1,0,1,,,,,0,,,87,61
60748,note_on,,,,,12,0,1,,,,,0,,,87,0
60752,note_on,,,,,4,0,1,,,,,0,,,94,0
60768,note_on,,,,,16,0,1,,,,,0,,,78,0
60770,note_on,,,,,2,0,1,,,,,0,,,90,62
60772,note_on,,,,,2,0,1,,,,,0,,,85,37
60774,note_on,,,,,2,0,1,,,,,0,,,75,40
60785,note_on,,,,,11,0,1,,,,,0,,,84,24
60790,note_on,,,,,5,0,1,,,,,0,,,85,0
60792,note_on,,,,,2,0,1,,,,,0,,,84,0
60799,note_on,,,,,7,0,1,,,,,0,,,90,0
60807,note_on,,,,,8,0,1,,,,,0,,,75,0
60808,note_on,,,,,1,0,1,,,,,0,,,87,62
60809,note_on,,,,,1,0,1,,,,,0,,,82,52
60811,note_on,,,,,2,0,1,,,,,0,,,73,46
60818,note_on,,,,,7,0,1,,,,,0,,,73,0
60822,note_on,,,,,4,0,1,,,,,0,,,87,0
60823,note_on,,,,,1,0,1,,,,,0,,,82,0
60843,note_on,,,,,20,0,1,,,,,0,,,70,49
60846,note_on,,,,,3,0,1,,,,,0,,,85,62
60852,note_on,,,,,6,0,1,,,,,0,,,78,52
60859,note_on,,,,,7,0,1,,,,,0,,,78,0
60865,note_on,,,,,6,0,1,,,,,0,,,85,0
60867,note_on,,,,,2,0,1,,,,,0,,,70,0
60882,note_on,,,,,15,0,1,,,,,0,,,82,57
60883,note_on,,,,,1,0,1,,,,,0,,,66,39
60888,note_on,,,,,5,0,1,,,,,0,,,75,36
60896,note_on,,,,,8,0,1,,,,,0,,,75,0
60908,note_on,,,,,12,0,1,,,,,0,,,66,0
60908,note_on,,,,,0,0,1,,,,,0,,,82,0
60922,note_on,,,,,14,0,1,,,,,0,,,78,67
60925,note_on,,,,,0,0,1,,,,,0,,,73,27
60925,note_on,,,,,3,0,1,,,,,0,,,63,42
60933,note_on,,,,,8,0,1,,,,,0,,,73,0
60942,note_on,,,,,9,0,1,,,,,0,,,78,0
60947,note_on,,,,,5,0,1,,,,,0,,,63,0
60961,note_on,,,,,14,0,1,,,,,0,,,75,47
60962,note_on,,,,,1,0,1,,,,,0,,,82,54
60966,note_on,,,,,4,0,1,,,,,0,,,66,25
60977,note_on,,,,,11,0,1,,,,,0,,,75,0
60982,note_on,,,,,5,0,1,,,,,0,,,82,0
60987,note_on,,,,,5,0,1,,,,,0,,,66,0
60996,note_on,,,,,9,0,1,,,,,0,,,85,58
60997,note_on,,,,,1,0,1,,,,,0,,,70,40
61000,note_on,,,,,3,0,1,,,,,0,,,78,53
61019,note_on,,,,,19,0,1,,,,,0,,,85,0
61021,note_on,,,,,2,0,1,,,,,0,,,78,0
61025,note_on,,,,,4,0,1,,,,,0,,,70,0
61033,note_on,,,,,8,0,1,,,,,0,,,82,55
61034,note_on,,,,,1,0,1,,,,,0,,,75,57
61035,note_on,,,,,1,0,1,,,,,0,,,66,37
61041,note_on,,,,,6,0,1,,,,,0,,,82,0
61047,note_on,,,,,6,0,1,,,,,0,,,75,0
61062,note_on,,,,,15,0,1,,,,,0,,,66,0
61071,note_on,,,,,9,0,1,,,,,0,,,78,62
61074,note_on,,,,,3,0,1,,,,,0,,,63,42
61075,note_on,,,,,1,0,1,,,,,0,,,73,53
61086,note_on,,,,,11,0,1,,,,,0,,,73,0
61090,note_on,,,,,4,0,1,,,,,0,,,78,0
61099,note_on,,,,,9,0,1,,,,,0,,,63,0
61107,note_on,,,,,8,0,1,,,,,0,,,75,62
61112,note_on,,,,,0,0,1,,,,,0,,,70,36
61112,note_on,,,,,5,0,1,,,,,0,,,61,38
61124,note_on,,,,,12,0,1,,,,,0,,,70,0
61130,note_on,,,,,6,0,1,,,,,0,,,75,0
61136,note_on,,,,,6,0,1,,,,,0,,,61,0
61145,note_on,,,,,9,0,1,,,,,0,,,66,50
61147,note_on,,,,,2,0,1,,,,,0,,,58,40
61149,note_on,,,,,2,0,1,,,,,0,,,73,48
61161,note_on,,,,,12,0,1,,,,,0,,,66,0
61168,note_on,,,,,7,0,1,,,,,0,,,73,0
61182,note_on,,,,,14,0,1,,,,,0,,,75,63
61183,note_on,,,,,1,0,1,,,,,0,,,58,0
61188,note_on,,,,,0,0,1,,,,,0,,,70,47
61188,note_on,,,,,5,0,1,,,,,0,,,61,34
61196,note_on,,,,,8,0,1,,,,,0,,,70,0
61207,note_on,,,,,11,0,1,,,,,0,,,75,0
61211,note_on,,,,,4,0,1,,,,,0,,,61,0
61221,note_on,,,,,10,0,1,,,,,0,,,78,54
61223,note_on,,,,,0,0,1,,,,,0,,,63,32
61223,note_on,,,,,2,0,1,,,,,0,,,73,53
61236,note_on,,,,,13,0,1,,,,,0,,,73,0
61238,note_on,,,,,2,0,1,,,,,0,,,78,0
61248,note_on,,,,,10,0,1,,,,,0,,,63,0
61258,note_on,,,,,0,0,1,,,,,0,,,66,35
61258,note_on,,,,,10,0,1,,,,,0,,,82,64
61259,note_on,,,,,1,0,1,,,,,0,,,75,62
61271,note_on,,,,,12,0,1,,,,,0,,,75,0
61275,note_on,,,,,4,0,1,,,,,0,,,82,0
61294,note_on,,,,,19,0,1,,,,,0,,,66,0
61296,note_on,,,,,0,0,1,,,,,0,,,73,52
61296,note_on,,,,,2,0,1,,,,,0,,,78,55
61302,note_on,,,,,6,0,1,,,,,0,,,63,32
61323,note_on,,,,,21,0,1,,,,,0,,,78,0
61326,note_on,,,,,3,0,1,,,,,0,,,73,0
61334,note_on,,,,,8,0,1,,,,,0,,,70,49
61335,note_on,,,,,1,0,1,,,,,0,,,75,47
61337,note_on,,,,,2,0,1,,,,,0,,,63,0
61340,note_on,,,,,3,0,1,,,,,0,,,61,32
61342,note_on,,,,,2,0,1,,,,,0,,,75,0
61346,note_on,,,,,4,0,1,,,,,0,,,70,0
61349,note_on,,,,,3,0,1,,,,,0,,,61,0
61373,note_on,,,,,0,0,1,,,,,0,,,66,33
61373,note_on,,,,,24,0,1,,,,,0,,,73,46
61375,note_on,,,,,2,0,1,,,,,0,,,58,30
61388,note_on,,,,,0,0,1,,,,,0,,,73,0
61388,note_on,,,,,13,0,1,,,,,0,,,66,0
61407,note_on,,,,,19,0,1,,,,,0,,,70,56
61410,note_on,,,,,0,0,1,,,,,0,,,54,43
61410,note_on,,,,,3,0,1,,,,,0,,,58,0
61412,note_on,,,,,2,0,1,,,,,0,,,63,39
61426,note_on,,,,,14,0,1,,,,,0,,,63,0
61430,note_on,,,,,4,0,1,,,,,0,,,70,0
61442,note_on,,,,,12,0,1,,,,,0,,,54,0
61447,note_on,,,,,5,0,1,,,,,0,,,66,51
61449,note_on,,,,,2,0,1,,,,,0,,,61,44
61457,note_on,,,,,8,0,1,,,,,0,,,51,33
61461,note_on,,,,,4,0,1,,,,,0,,,61,0
61472,note_on,,,,,11,0,1,,,,,0,,,66,0
61478,note_on,,,,,6,0,1,,,,,0,,,51,0
61488,note_on,,,,,0,0,1,,,,,0,,,54,40
61488,note_on,,,,,10,0,1,,,,,0,,,63,44
61490,note_on,,,,,2,0,1,,,,,0,,,70,49
61505,note_on,,,,,15,0,1,,,,,0,,,63,0
61510,note_on,,,,,5,0,1,,,,,0,,,70,0
61515,note_on,,,,,5,0,1,,,,,0,,,54,0
61525,note_on,,,,,10,0,1,,,,,0,,,73,49
61526,note_on,,,,,0,0,1,,,,,0,,,66,46
61526,note_on,,,,,1,0,1,,,,,0,,,58,38
61546,note_on,,,,,20,0,1,,,,,0,,,73,0
61552,note_on,,,,,6,0,1,,,,,0,,,66,0
61560,note_on,,,,,8,0,1,,,,,0,,,58,0
61563,note_on,,,,,3,0,1,,,,,0,,,63,48
61563,note_on,,,,,0,0,1,,,,,0,,,54,38
61565,note_on,,,,,2,0,1,,,,,0,,,70,28
61573,note_on,,,,,8,0,1,,,,,0,,,70,0
61578,note_on,,,,,5,0,1,,,,,0,,,63,0
61598,note_on,,,,,20,0,1,,,,,0,,,54,0
61602,note_on,,,,,4,0,1,,,,,0,,,66,51
61609,note_on,,,,,7,0,1,,,,,0,,,51,39
61614,note_on,,,,,5,0,1,,,,,0,,,61,30
61623,note_on,,,,,9,0,1,,,,,0,,,61,0
61623,note_on,,,,,0,0,1,,,,,0,,,66,0
61637,note_on,,,,,14,0,1,,,,,0,,,51,0
61642,note_on,,,,,0,0,1,,,,,0,,,49,32
61642,note_on,,,,,5,0,1,,,,,0,,,63,53
61642,note_on,,,,,0,0,1,,,,,0,,,58,37
61670,note_on,,,,,0,0,1,,,,,0,,,63,0
61670,note_on,,,,,0,0,1,,,,,0,,,49,0
61670,note_on,,,,,28,0,1,,,,,0,,,58,0
61689,note_on,,,,,19,0,1,,,,,0,,,54,53
61689,note_on,,,,,0,0,1,,,,,0,,,42,48
61693,note_on,,,,,4,0,1,,,,,0,,,61,50
61699,note_on,,,,,6,0,1,,,,,0,,,46,33
61702,control_change,,,,,3,0,1,,,,,0,64,88,,
61706,control_change,,,,,4,0,1,,,,,0,64,0,,
61712,note_on,,,,,6,0,1,,,,,0,,,54,0
61716,note_on,,,,,4,0,1,,,,,0,,,61,0
61718,control_change,,,,,2,0,1,,,,,0,64,40,,
61722,control_change,,,,,4,0,1,,,,,0,64,127,,
61728,note_on,,,,,6,0,1,,,,,0,,,63,54
61732,note_on,,,,,4,0,1,,,,,0,,,58,47
61735,note_on,,,,,3,0,1,,,,,0,,,49,43
61738,note_on,,,,,3,0,1,,,,,0,,,46,0
61761,note_on,,,,,23,0,1,,,,,0,,,58,0
61770,note_on,,,,,0,0,1,,,,,0,,,66,58
61770,note_on,,,,,9,0,1,,,,,0,,,63,0
61772,note_on,,,,,2,0,1,,,,,0,,,51,44
61773,note_on,,,,,1,0,1,,,,,0,,,42,0
61776,note_on,,,,,3,0,1,,,,,0,,,49,0
61782,note_on,,,,,6,0,1,,,,,0,,,51,0
61785,note_on,,,,,3,0,1,,,,,0,,,66,0
61811,note_on,,,,,0,0,1,,,,,0,,,63,44
61811,note_on,,,,,26,0,1,,,,,0,,,70,57
61816,note_on,,,,,5,0,1,,,,,0,,,54,45
61831,note_on,,,,,15,0,1,,,,,0,,,63,0
61831,note_on,,,,,0,0,1,,,,,0,,,70,0
61851,note_on,,,,,20,0,1,,,,,0,,,73,55
61858,note_on,,,,,0,0,1,,,,,0,,,58,32
61858,note_on,,,,,7,0,1,,,,,0,,,66,33
61877,note_on,,,,,19,0,1,,,,,0,,,66,0
61890,note_on,,,,,0,0,1,,,,,0,,,70,35
61890,note_on,,,,,13,0,1,,,,,0,,,75,64
61891,note_on,,,,,1,0,1,,,,,0,,,73,0
61898,note_on,,,,,7,0,1,,,,,0,,,61,34
61906,note_on,,,,,0,0,1,,,,,0,,,70,0
61906,note_on,,,,,8,0,1,,,,,0,,,75,0
61912,note_on,,,,,6,0,1,,,,,0,,,54,0
61915,note_on,,,,,3,0,1,,,,,0,,,58,0
61931,note_on,,,,,16,0,1,,,,,0,,,78,62
61932,note_on,,,,,1,0,1,,,,,0,,,73,31
61935,note_on,,,,,3,0,1,,,,,0,,,63,40
61944,note_on,,,,,0,0,1,,,,,0,,,61,0
61944,note_on,,,,,9,0,1,,,,,0,,,73,0
61950,note_on,,,,,6,0,1,,,,,0,,,63,0
61958,note_on,,,,,8,0,1,,,,,0,,,78,0
61979,note_on,,,,,21,0,1,,,,,0,,,75,30
61980,note_on,,,,,1,0,1,,,,,0,,,82,50
61982,note_on,,,,,2,0,1,,,,,0,,,66,44
61987,note_on,,,,,5,0,1,,,,,0,,,75,0
61997,note_on,,,,,10,0,1,,,,,0,,,82,0
62025,note_on,,,,,28,0,1,,,,,0,,,78,55
62028,note_on,,,,,3,0,1,,,,,0,,,85,60
62032,note_on,,,,,4,0,1,,,,,0,,,70,35
62039,note_on,,,,,7,0,1,,,,,0,,,78,0
62051,note_on,,,,,12,0,1,,,,,0,,,85,0
62074,note_on,,,,,23,0,1,,,,,0,,,87,55
62074,note_on,,,,,0,0,1,,,,,0,,,82,31
62082,note_on,,,,,8,0,1,,,,,0,,,82,0
62082,note_on,,,,,0,0,1,,,,,0,,,73,39
62087,note_on,,,,,5,0,1,,,,,0,,,70,0
62092,note_on,,,,,5,0,1,,,,,0,,,87,0
62120,note_on,,,,,28,0,1,,,,,0,,,85,53
62125,note_on,,,,,5,0,1,,,,,0,,,90,49
62127,note_on,,,,,2,0,1,,,,,0,,,66,0
62128,note_on,,,,,1,0,1,,,,,0,,,73,0
62132,note_on,,,,,4,0,1,,,,,0,,,90,0
62134,note_on,,,,,2,0,1,,,,,0,,,85,0
62136,note_on,,,,,2,0,1,,,,,0,,,75,28
62153,note_on,,,,,17,0,1,,,,,0,,,75,0
62180,note_on,,,,,27,0,1,,,,,0,,,78,36
62183,note_on,,,,,3,0,1,,,,,0,,,94,46
62186,note_on,,,,,3,0,1,,,,,0,,,87,25
62194,note_on,,,,,8,0,1,,,,,0,,,87,0
62202,note_on,,,,,8,0,1,,,,,0,,,94,0
62224,note_on,,,,,22,0,1,,,,,0,,,78,0
62239,note_on,,,,,15,0,1,,,,,0,,,90,42
62240,note_on,,,,,1,0,1,,,,,0,,,82,39
62242,note_on,,,,,2,0,1,,,,,0,,,97,50
62250,note_on,,,,,8,0,1,,,,,0,,,97,0
62256,note_on,,,,,6,0,1,,,,,0,,,90,0
62264,note_on,,,,,8,0,1,,,,,0,,,82,0
62310,note_on,,,,,46,0,1,,,,,0,,,85,48
62312,note_on,,,,,2,0,1,,,,,0,,,99,61
62316,note_on,,,,,4,0,1,,,,,0,,,85,0
62316,note_on,,,,,0,0,1,,,,,0,,,94,32
62318,note_on,,,,,2,0,1,,,,,0,,,90,19
62326,note_on,,,,,8,0,1,,,,,0,,,94,0
62329,note_on,,,,,3,0,1,,,,,0,,,90,0
62341,note_on,,,,,12,0,1,,,,,0,,,99,0
62372,note_on,,,,,31,0,1,,,,,0,,,66,25
62388,note_on,,,,,16,0,1,,,,,0,,,66,0
62430,note_on,,,,,42,0,1,,,,,0,,,102,60
62434,note_on,,,,,4,0,1,,,,,0,,,94,43
62435,note_on,,,,,1,0,1,,,,,0,,,90,33
62440,note_on,,,,,5,0,1,,,,,0,,,85,34
62450,note_on,,,,,10,0,1,,,,,0,,,85,0
62452,note_on,,,,,2,0,1,,,,,0,,,90,0
62453,note_on,,,,,1,0,1,,,,,0,,,94,0
62457,note_on,,,,,4,0,1,,,,,0,,,102,0
62760,note_on,,,,,303,0,1,,,,,0,,,66,34
62773,note_on,,,,,13,0,1,,,,,0,,,66,0
62857,note_on,,,,,84,0,1,,,,,0,,,102,54
62861,note_on,,,,,4,0,1,,,,,0,,,90,31
62862,note_on,,,,,1,0,1,,,,,0,,,94,38
62863,note_on,,,,,1,0,1,,,,,0,,,85,28
62873,note_on,,,,,10,0,1,,,,,0,,,85,0
62880,note_on,,,,,0,0,1,,,,,0,,,102,0
62880,note_on,,,,,7,0,1,,,,,0,,,94,0
62900,note_on,,,,,20,0,1,,,,,0,,,90,0
63225,note_on,,,,,325,0,1,,,,,0,,,66,28
63249,note_on,,,,,24,0,1,,,,,0,,,66,0
63291,control_change,,,,,42,0,1,,,,,0,67,127,,
63349,note_on,,,,,58,0,1,,,,,0,,,102,32
63353,note_on,,,,,0,0,1,,,,,0,,,90,22
63353,note_on,,,,,4,0,1,,,,,0,,,85,25
63356,note_on,,,,,3,0,1,,,,,0,,,94,27
63377,note_on,,,,,21,0,1,,,,,0,,,85,0
63378,note_on,,,,,1,0,1,,,,,0,,,94,0
63380,note_on,,,,,2,0,1,,,,,0,,,90,0
63384,note_on,,,,,4,0,1,,,,,0,,,102,0
63545,control_change,,,,,161,0,1,,,,,0,67,0,,
63750,control_change,,,,,205,0,1,,,,,0,64,104,,
63754,control_change,,,,,4,0,1,,,,,0,64,72,,
63758,control_change,,,,,4,0,1,,,,,0,64,24,,
63762,control_change,,,,,4,0,1,,,,,0,64,0,,
64081,control_change,,,,,319,0,1,,,,,0,64,127,,
64139,note_on,,,,,58,0,1,,,,,0,,,74,63
64145,note_on,,,,,0,0,1,,,,,0,,,69,41
64145,note_on,,,,,6,0,1,,,,,0,,,66,33
64158,note_on,,,,,13,0,1,,,,,0,,,69,0
64169,note_on,,,,,11,0,1,,,,,0,,,74,0
64172,note_on,,,,,3,0,1,,,,,0,,,66,0
64266,note_on,,,,,94,0,1,,,,,0,,,71,59
64270,note_on,,,,,4,0,1,,,,,0,,,62,30
64270,note_on,,,,,0,0,1,,,,,0,,,66,38
64284,note_on,,,,,14,0,1,,,,,0,,,62,0
64289,note_on,,,,,5,0,1,,,,,0,,,66,0
64290,note_on,,,,,1,0,1,,,,,0,,,71,0
64313,note_on,,,,,23,0,1,,,,,0,,,67,55
64319,note_on,,,,,6,0,1,,,,,0,,,62,27
64323,note_on,,,,,4,0,1,,,,,0,,,59,34
64340,control_change,,,,,17,0,1,,,,,0,64,56,,
64344,control_change,,,,,4,0,1,,,,,0,64,0,,
64379,control_change,,,,,35,0,1,,,,,0,64,104,,
64384,control_change,,,,,5,0,1,,,,,0,64,127,,
64391,note_on,,,,,7,0,1,,,,,0,,,59,0
64497,note_on,,,,,106,0,1,,,,,0,,,45,30
64513,control_change,,,,,16,0,1,,,,,0,64,72,,
64517,control_change,,,,,4,0,1,,,,,0,64,0,,
64537,control_change,,,,,20,0,1,,,,,0,64,40,,
64541,control_change,,,,,4,0,1,,,,,0,64,127,,
64542,note_on,,,,,1,0,1,,,,,0,,,45,0
64563,note_on,,,,,21,0,1,,,,,0,,,62,0
64568,note_on,,,,,5,0,1,,,,,0,,,67,0
64672,note_on,,,,,104,0,1,,,,,0,,,71,64
64677,note_on,,,,,5,0,1,,,,,0,,,66,30
64678,note_on,,,,,1,0,1,,,,,0,,,62,33
64694,control_change,,,,,16,0,1,,,,,0,64,72,,
64698,control_change,,,,,4,0,1,,,,,0,64,24,,
64710,control_change,,,,,12,0,1,,,,,0,64,88,,
64711,note_on,,,,,1,0,1,,,,,0,,,62,0
64712,note_on,,,,,1,0,1,,,,,0,,,71,0
64714,control_change,,,,,2,0,1,,,,,0,64,127,,
64718,note_on,,,,,4,0,1,,,,,0,,,66,0
64803,note_on,,,,,85,0,1,,,,,0,,,67,52
64805,note_on,,,,,2,0,1,,,,,0,,,59,36
64811,note_on,,,,,6,0,1,,,,,0,,,62,34
64819,note_on,,,,,8,0,1,,,,,0,,,59,0
64822,note_on,,,,,3,0,1,,,,,0,,,62,0
64826,note_on,,,,,4,0,1,,,,,0,,,67,0
64850,note_on,,,,,24,0,1,,,,,0,,,64,54
64856,note_on,,,,,6,0,1,,,,,0,,,59,26
64862,note_on,,,,,6,0,1,,,,,0,,,55,29
64875,control_change,,,,,13,0,1,,,,,0,64,88,,
64880,control_change,,,,,5,0,1,,,,,0,64,0,,
64916,control_change,,,,,36,0,1,,,,,0,64,72,,
64920,control_change,,,,,4,0,1,,,,,0,64,127,,
65018,note_on,,,,,98,0,1,,,,,0,,,45,35
65053,note_on,,,,,35,0,1,,,,,0,,,55,0
65056,note_on,,,,,3,0,1,,,,,0,,,64,0
65071,note_on,,,,,15,0,1,,,,,0,,,59,0
65187,note_on,,,,,116,0,1,,,,,0,,,64,62
65193,note_on,,,,,6,0,1,,,,,0,,,55,35
65194,note_on,,,,,1,0,1,,,,,0,,,59,36
65222,control_change,,,,,28,0,1,,,,,0,64,56,,
65226,control_change,,,,,4,0,1,,,,,0,64,0,,
65243,control_change,,,,,17,0,1,,,,,0,64,24,,
65247,control_change,,,,,4,0,1,,,,,0,64,104,,
65248,note_on,,,,,1,0,1,,,,,0,,,64,0
65249,note_on,,,,,1,0,1,,,,,0,,,59,0
65251,control_change,,,,,2,0,1,,,,,0,64,127,,
65274,note_on,,,,,23,0,1,,,,,0,,,55,0
65313,note_on,,,,,39,0,1,,,,,0,,,62,63
65317,note_on,,,,,4,0,1,,,,,0,,,54,40
65321,note_on,,,,,4,0,1,,,,,0,,,57,26
65333,note_on,,,,,12,0,1,,,,,0,,,57,0
65335,note_on,,,,,2,0,1,,,,,0,,,62,0
65350,note_on,,,,,15,0,1,,,,,0,,,54,0
65361,note_on,,,,,11,0,1,,,,,0,,,61,62
65367,note_on,,,,,6,0,1,,,,,0,,,55,40
65369,note_on,,,,,2,0,1,,,,,0,,,52,41
65384,control_change,,,,,15,0,1,,,,,0,64,56,,
65388,control_change,,,,,4,0,1,,,,,0,64,0,,
65412,control_change,,,,,24,0,1,,,,,0,64,56,,
65416,control_change,,,,,4,0,1,,,,,0,64,127,,
65438,note_on,,,,,22,0,1,,,,,0,,,52,0
65445,note_on,,,,,7,0,1,,,,,0,,,55,0
65449,note_on,,,,,4,0,1,,,,,0,,,62,78
65454,note_on,,,,,5,0,1,,,,,0,,,54,38
65456,note_on,,,,,2,0,1,,,,,0,,,57,49
65458,note_on,,,,,2,0,1,,,,,0,,,61,0
65464,note_on,,,,,6,0,1,,,,,0,,,57,0
65466,note_on,,,,,2,0,1,,,,,0,,,45,0
65475,note_on,,,,,9,0,1,,,,,0,,,62,0
65501,note_on,,,,,26,0,1,,,,,0,,,54,0
65512,note_on,,,,,11,0,1,,,,,0,,,45,43
65563,note_on,,,,,51,0,1,,,,,0,,,63,67
65571,note_on,,,,,8,0,1,,,,,0,,,60,44
65574,note_on,,,,,3,0,1,,,,,0,,,54,38
65582,control_change,,,,,8,0,1,,,,,0,64,104,,
65586,control_change,,,,,4,0,1,,,,,0,64,56,,
65590,control_change,,,,,4,0,1,,,,,0,64,0,,
65625,control_change,,,,,35,0,1,,,,,0,64,56,,
65630,control_change,,,,,5,0,1,,,,,0,64,127,,
65638,note_on,,,,,8,0,1,,,,,0,,,45,0
65714,note_on,,,,,0,0,1,,,,,0,,,54,0
65714,note_on,,,,,76,0,1,,,,,0,,,63,0
65731,note_on,,,,,17,0,1,,,,,0,,,45,32
65776,note_on,,,,,45,0,1,,,,,0,,,60,0
65812,note_on,,,,,36,0,1,,,,,0,,,64,60
65815,note_on,,,,,3,0,1,,,,,0,,,61,34
65819,note_on,,,,,4,0,1,,,,,0,,,55,35
65823,control_change,,,,,4,0,1,,,,,0,64,56,,
65828,control_change,,,,,5,0,1,,,,,0,64,0,,
65848,control_change,,,,,20,0,1,,,,,0,64,72,,
65852,control_change,,,,,4,0,1,,,,,0,64,127,,
65854,note_on,,,,,2,0,1,,,,,0,,,55,0
65856,note_on,,,,,2,0,1,,,,,0,,,61,0
65860,note_on,,,,,4,0,1,,,,,0,,,64,0
65890,note_on,,,,,30,0,1,,,,,0,,,59,34
65916,note_on,,,,,26,0,1,,,,,0,,,62,38
65927,note_on,,,,,11,0,1,,,,,0,,,56,25
65934,note_on,,,,,7,0,1,,,,,0,,,65,59
65948,control_change,,,,,14,0,1,,,,,0,64,72,,
65952,control_change,,,,,4,0,1,,,,,0,64,0,,
65985,control_change,,,,,33,0,1,,,,,0,64,24,,
65989,control_change,,,,,4,0,1,,,,,0,64,88,,
65993,control_change,,,,,4,0,1,,,,,0,64,127,,
66007,note_on,,,,,14,0,1,,,,,0,,,45,0
66010,note_on,,,,,3,0,1,,,,,0,,,59,0
66034,note_on,,,,,24,0,1,,,,,0,,,56,0
66086,note_on,,,,,52,0,1,,,,,0,,,45,28
66106,note_on,,,,,20,0,1,,,,,0,,,62,0
66114,note_on,,,,,8,0,1,,,,,0,,,65,0
66183,note_on,,,,,69,0,1,,,,,0,,,66,48
66189,note_on,,,,,6,0,1,,,,,0,,,57,28
66190,control_change,,,,,1,0,1,,,,,0,64,72,,
66192,note_on,,,,,2,0,1,,,,,0,,,62,30
66194,control_change,,,,,2,0,1,,,,,0,64,24,,
66198,control_change,,,,,4,0,1,,,,,0,64,0,,
66208,note_on,,,,,10,0,1,,,,,0,,,62,0
66212,note_on,,,,,4,0,1,,,,,0,,,45,0
66214,control_change,,,,,2,0,1,,,,,0,64,72,,
66218,control_change,,,,,4,0,1,,,,,0,64,127,,
66219,note_on,,,,,1,0,1,,,,,0,,,66,0
66226,note_on,,,,,7,0,1,,,,,0,,,57,0
66291,note_on,,,,,65,0,1,,,,,0,,,74,69
66297,note_on,,,,,6,0,1,,,,,0,,,69,39
66299,note_on,,,,,2,0,1,,,,,0,,,66,31
66303,control_change,,,,,4,0,1,,,,,0,64,72,,
66307,control_change,,,,,4,0,1,,,,,0,64,0,,
66332,control_change,,,,,25,0,1,,,,,0,64,72,,
66336,note_on,,,,,0,0,1,,,,,0,,,69,0
66336,note_on,,,,,0,0,1,,,,,0,,,74,0
66336,note_on,,,,,4,0,1,,,,,0,,,66,0
66336,control_change,,,,,0,0,1,,,,,0,64,127,,
66425,note_on,,,,,89,0,1,,,,,0,,,71,60
66426,note_on,,,,,1,0,1,,,,,0,,,66,37
66427,note_on,,,,,1,0,1,,,,,0,,,62,44
66440,note_on,,,,,13,0,1,,,,,0,,,62,0
66445,note_on,,,,,5,0,1,,,,,0,,,66,0
66450,note_on,,,,,5,0,1,,,,,0,,,71,0
66475,note_on,,,,,25,0,1,,,,,0,,,67,56
66481,note_on,,,,,6,0,1,,,,,0,,,62,36
66483,note_on,,,,,2,0,1,,,,,0,,,59,32
66489,control_change,,,,,6,0,1,,,,,0,64,104,,
66493,control_change,,,,,4,0,1,,,,,0,64,40,,
66497,control_change,,,,,4,0,1,,,,,0,64,0,,
66529,control_change,,,,,32,0,1,,,,,0,64,40,,
66533,control_change,,,,,4,0,1,,,,,0,64,104,,
66537,control_change,,,,,4,0,1,,,,,0,64,127,,
66545,note_on,,,,,8,0,1,,,,,0,,,59,0
66646,note_on,,,,,101,0,1,,,,,0,,,45,30
66685,note_on,,,,,39,0,1,,,,,0,,,45,0
66687,note_on,,,,,2,0,1,,,,,0,,,62,0
66692,note_on,,,,,5,0,1,,,,,0,,,67,0
66814,note_on,,,,,122,0,1,,,,,0,,,71,60
66816,note_on,,,,,0,0,1,,,,,0,,,66,34
66816,note_on,,,,,2,0,1,,,,,0,,,62,35
66836,control_change,,,,,20,0,1,,,,,0,64,88,,
66840,control_change,,,,,4,0,1,,,,,0,64,24,,
66844,control_change,,,,,4,0,1,,,,,0,64,0,,
66857,note_on,,,,,13,0,1,,,,,0,,,62,0
66859,control_change,,,,,0,0,1,,,,,0,64,40,,
66859,note_on,,,,,2,0,1,,,,,0,,,71,0
66863,control_change,,,,,4,0,1,,,,,0,64,127,,
66869,note_on,,,,,6,0,1,,,,,0,,,66,0
66945,note_on,,,,,76,0,1,,,,,0,,,67,56
66952,note_on,,,,,7,0,1,,,,,0,,,59,34
66958,note_on,,,,,6,0,1,,,,,0,,,62,34
66965,note_on,,,,,7,0,1,,,,,0,,,59,0
66968,note_on,,,,,3,0,1,,,,,0,,,67,0
66969,note_on,,,,,1,0,1,,,,,0,,,62,0
66992,note_on,,,,,23,0,1,,,,,0,,,64,58
66995,note_on,,,,,3,0,1,,,,,0,,,59,33
67002,note_on,,,,,7,0,1,,,,,0,,,55,33
67009,control_change,,,,,7,0,1,,,,,0,64,104,,
67012,control_change,,,,,3,0,1,,,,,0,64,40,,
67016,control_change,,,,,4,0,1,,,,,0,64,0,,
67057,control_change,,,,,41,0,1,,,,,0,64,56,,
67061,control_change,,,,,4,0,1,,,,,0,64,104,,
67065,control_change,,,,,4,0,1,,,,,0,64,127,,
67153,note_on,,,,,88,0,1,,,,,0,,,64,0
67160,note_on,,,,,7,0,1,,,,,0,,,59,0
67173,note_on,,,,,13,0,1,,,,,0,,,45,34
67204,note_on,,,,,31,0,1,,,,,0,,,55,0
67342,note_on,,,,,138,0,1,,,,,0,,,64,58
67350,note_on,,,,,8,0,1,,,,,0,,,59,33
67355,note_on,,,,,5,0,1,,,,,0,,,55,33
67364,control_change,,,,,9,0,1,,,,,0,64,104,,
67367,control_change,,,,,3,0,1,,,,,0,64,0,,
67392,control_change,,,,,25,0,1,,,,,0,64,40,,
67396,control_change,,,,,4,0,1,,,,,0,64,127,,
67402,note_on,,,,,6,0,1,,,,,0,,,59,0
67408,note_on,,,,,6,0,1,,,,,0,,,64,0
67433,note_on,,,,,25,0,1,,,,,0,,,55,0
67470,note_on,,,,,37,0,1,,,,,0,,,62,63
67476,note_on,,,,,0,0,1,,,,,0,,,54,34
67476,note_on,,,,,6,0,1,,,,,0,,,57,39
67488,note_on,,,,,12,0,1,,,,,0,,,57,0
67493,note_on,,,,,5,0,1,,,,,0,,,62,0
67516,note_on,,,,,23,0,1,,,,,0,,,54,0
67522,note_on,,,,,6,0,1,,,,,0,,,61,64
67526,note_on,,,,,4,0,1,,,,,0,,,52,45
67527,note_on,,,,,1,0,1,,,,,0,,,55,41
67533,control_change,,,,,6,0,1,,,,,0,64,40,,
67537,control_change,,,,,4,0,1,,,,,0,64,0,,
67542,note_on,,,,,5,0,1,,,,,0,,,55,0
67566,control_change,,,,,24,0,1,,,,,0,64,40,,
67570,control_change,,,,,4,0,1,,,,,0,64,104,,
67574,control_change,,,,,4,0,1,,,,,0,64,127,,
67599,note_on,,,,,0,0,1,,,,,0,,,61,0
67599,note_on,,,,,25,0,1,,,,,0,,,52,0
67609,note_on,,,,,10,0,1,,,,,0,,,62,75
67611,note_on,,,,,2,0,1,,,,,0,,,54,42
67617,note_on,,,,,6,0,1,,,,,0,,,57,35
67626,note_on,,,,,9,0,1,,,,,0,,,57,0
67627,note_on,,,,,1,0,1,,,,,0,,,45,0
67634,note_on,,,,,7,0,1,,,,,0,,,62,0
67659,note_on,,,,,25,0,1,,,,,0,,,54,0
67671,note_on,,,,,12,0,1,,,,,0,,,45,46
67724,note_on,,,,,53,0,1,,,,,0,,,66,68
67727,note_on,,,,,3,0,1,,,,,0,,,61,50
67739,note_on,,,,,12,0,1,,,,,0,,,57,40
67751,control_change,,,,,12,0,1,,,,,0,64,88,,
67754,control_change,,,,,3,0,1,,,,,0,64,40,,
67759,control_change,,,,,5,0,1,,,,,0,64,0,,
67795,control_change,,,,,36,0,1,,,,,0,64,40,,
67799,control_change,,,,,4,0,1,,,,,0,64,104,,
67803,control_change,,,,,4,0,1,,,,,0,64,127,,
67810,note_on,,,,,7,0,1,,,,,0,,,45,0
67894,note_on,,,,,84,0,1,,,,,0,,,45,37
67924,note_on,,,,,30,0,1,,,,,0,,,57,0
67925,note_on,,,,,1,0,1,,,,,0,,,61,0
67954,note_on,,,,,29,0,1,,,,,0,,,66,0
67994,note_on,,,,,40,0,1,,,,,0,,,64,53
67997,note_on,,,,,3,0,1,,,,,0,,,55,36
67998,note_on,,,,,1,0,1,,,,,0,,,61,23
68009,control_change,,,,,11,0,1,,,,,0,64,72,,
68013,control_change,,,,,4,0,1,,,,,0,64,0,,
68041,control_change,,,,,28,0,1,,,,,0,64,24,,
68045,control_change,,,,,4,0,1,,,,,0,64,88,,
68049,control_change,,,,,4,0,1,,,,,0,64,127,,
68054,note_on,,,,,5,0,1,,,,,0,,,61,0
68065,note_on,,,,,0,0,1,,,,,0,,,64,0
68065,note_on,,,,,11,0,1,,,,,0,,,55,0
68109,note_on,,,,,44,0,1,,,,,0,,,62,43
68113,note_on,,,,,4,0,1,,,,,0,,,54,31
68120,note_on,,,,,7,0,1,,,,,0,,,57,32
68130,control_change,,,,,10,0,1,,,,,0,64,88,,
68134,control_change,,,,,4,0,1,,,,,0,64,56,,
68138,control_change,,,,,4,0,1,,,,,0,64,0,,
68170,control_change,,,,,32,0,1,,,,,0,64,40,,
68174,control_change,,,,,4,0,1,,,,,0,64,127,,
68180,note_on,,,,,6,0,1,,,,,0,,,54,0
68183,note_on,,,,,3,0,1,,,,,0,,,45,0
68290,note_on,,,,,107,0,1,,,,,0,,,38,31
68299,control_change,,,,,9,0,1,,,,,0,64,104,,
68303,control_change,,,,,4,0,1,,,,,0,64,40,,
68308,control_change,,,,,5,0,1,,,,,0,64,0,,
68340,control_change,,,,,32,0,1,,,,,0,64,127,,
68341,note_on,,,,,1,0,1,,,,,0,,,57,0
68350,note_on,,,,,9,0,1,,,,,0,,,38,0
68357,note_on,,,,,7,0,1,,,,,0,,,62,0
68477,note_on,,,,,120,0,1,,,,,0,,,86,73
68479,note_on,,,,,2,0,1,,,,,0,,,74,52
68479,note_on,,,,,0,0,1,,,,,0,,,78,48
68481,note_on,,,,,2,0,1,,,,,0,,,69,51
68489,control_change,,,,,8,0,1,,,,,0,64,104,,
68493,control_change,,,,,4,0,1,,,,,0,64,40,,
68497,control_change,,,,,4,0,1,,,,,0,64,0,,
68500,control_change,,,,,3,0,1,,,,,0,64,40,,
68505,control_change,,,,,5,0,1,,,,,0,64,88,,
68506,note_on,,,,,1,0,1,,,,,0,,,69,0
68509,control_change,,,,,3,0,1,,,,,0,64,127,,
68513,note_on,,,,,4,0,1,,,,,0,,,86,0
68518,note_on,,,,,5,0,1,,,,,0,,,78,0
68528,note_on,,,,,10,0,1,,,,,0,,,74,0
68607,note_on,,,,,79,0,1,,,,,0,,,83,67
68609,note_on,,,,,2,0,1,,,,,0,,,66,38
68613,note_on,,,,,0,0,1,,,,,0,,,74,43
68613,note_on,,,,,4,0,1,,,,,0,,,71,33
68624,note_on,,,,,11,0,1,,,,,0,,,74,0
68624,note_on,,,,,0,0,1,,,,,0,,,71,0
68630,note_on,,,,,6,0,1,,,,,0,,,66,0
68630,note_on,,,,,0,0,1,,,,,0,,,83,0
68660,note_on,,,,,30,0,1,,,,,0,,,79,63
68663,note_on,,,,,3,0,1,,,,,0,,,71,42
68664,note_on,,,,,1,0,1,,,,,0,,,62,37
68664,note_on,,,,,0,0,1,,,,,0,,,74,33
68670,note_on,,,,,6,0,1,,,,,0,,,67,33
68670,control_change,,,,,0,0,1,,,,,0,64,88,,
68674,control_change,,,,,4,0,1,,,,,0,64,0,,
68709,note_on,,,,,35,0,1,,,,,0,,,67,0
68711,control_change,,,,,0,0,1,,,,,0,64,88,,
68711,note_on,,,,,2,0,1,,,,,0,,,62,0
68715,control_change,,,,,4,0,1,,,,,0,64,127,,
68818,note_on,,,,,103,0,1,,,,,0,,,33,21
68854,note_on,,,,,36,0,1,,,,,0,,,45,28
68855,note_on,,,,,1,0,1,,,,,0,,,71,0
68864,note_on,,,,,9,0,1,,,,,0,,,74,0
68872,note_on,,,,,8,0,1,,,,,0,,,33,0
68882,note_on,,,,,10,0,1,,,,,0,,,79,0
68890,note_on,,,,,8,0,1,,,,,0,,,45,0
69024,note_on,,,,,134,0,1,,,,,0,,,83,70
69030,note_on,,,,,6,0,1,,,,,0,,,74,42
69037,note_on,,,,,7,0,1,,,,,0,,,66,32
69037,note_on,,,,,0,0,1,,,,,0,,,71,29
69053,note_on,,,,,16,0,1,,,,,0,,,71,0
69054,note_on,,,,,1,0,1,,,,,0,,,83,0
69056,note_on,,,,,2,0,1,,,,,0,,,74,0
69060,note_on,,,,,4,0,1,,,,,0,,,66,0
69161,note_on,,,,,101,0,1,,,,,0,,,79,62
69167,note_on,,,,,6,0,1,,,,,0,,,67,36
69171,note_on,,,,,4,0,1,,,,,0,,,71,31
69172,note_on,,,,,1,0,1,,,,,0,,,62,34
69182,note_on,,,,,10,0,1,,,,,0,,,67,0
69184,note_on,,,,,0,0,1,,,,,0,,,71,0
69184,note_on,,,,,0,0,1,,,,,0,,,62,0
69184,note_on,,,,,2,0,1,,,,,0,,,79,0
69219,note_on,,,,,35,0,1,,,,,0,,,76,52
69220,note_on,,,,,1,0,1,,,,,0,,,67,21
69225,note_on,,,,,5,0,1,,,,,0,,,64,37
69225,note_on,,,,,0,0,1,,,,,0,,,59,34
69238,control_change,,,,,13,0,1,,,,,0,64,56,,
69243,control_change,,,,,5,0,1,,,,,0,64,0,,
69271,control_change,,,,,28,0,1,,,,,0,64,56,,
69272,note_on,,,,,1,0,1,,,,,0,,,64,0
69275,control_change,,,,,3,0,1,,,,,0,64,127,,
69277,note_on,,,,,2,0,1,,,,,0,,,59,0
69370,note_on,,,,,93,0,1,,,,,0,,,33,28
69407,note_on,,,,,37,0,1,,,,,0,,,45,31
69421,note_on,,,,,14,0,1,,,,,0,,,45,0
69425,note_on,,,,,4,0,1,,,,,0,,,33,0
69453,note_on,,,,,28,0,1,,,,,0,,,67,0
69458,note_on,,,,,5,0,1,,,,,0,,,76,0
69588,note_on,,,,,130,0,1,,,,,0,,,76,64
69596,note_on,,,,,8,0,1,,,,,0,,,59,29
69597,note_on,,,,,1,0,1,,,,,0,,,64,37
69598,note_on,,,,,1,0,1,,,,,0,,,67,33
69620,note_on,,,,,22,0,1,,,,,0,,,59,0
69621,note_on,,,,,1,0,1,,,,,0,,,64,0
69624,note_on,,,,,3,0,1,,,,,0,,,76,0
69636,note_on,,,,,12,0,1,,,,,0,,,67,0
69715,note_on,,,,,79,0,1,,,,,0,,,74,72
69720,note_on,,,,,5,0,1,,,,,0,,,66,38
69721,note_on,,,,,1,0,1,,,,,0,,,62,37
69722,note_on,,,,,1,0,1,,,,,0,,,57,33
69734,note_on,,,,,12,0,1,,,,,0,,,62,0
69738,note_on,,,,,4,0,1,,,,,0,,,57,0
69740,note_on,,,,,2,0,1,,,,,0,,,66,0
69742,note_on,,,,,2,0,1,,,,,0,,,74,0
69771,note_on,,,,,29,0,1,,,,,0,,,73,69
69777,note_on,,,,,6,0,1,,,,,0,,,64,51
69779,control_change,,,,,2,0,1,,,,,0,64,88,,
69781,note_on,,,,,2,0,1,,,,,0,,,55,43
69782,note_on,,,,,1,0,1,,,,,0,,,57,29
69783,control_change,,,,,1,0,1,,,,,0,64,0,,
69808,control_change,,,,,25,0,1,,,,,0,64,40,,
69810,note_on,,,,,2,0,1,,,,,0,,,64,0
69811,note_on,,,,,1,0,1,,,,,0,,,55,0
69812,control_change,,,,,1,0,1,,,,,0,64,127,,
69819,note_on,,,,,7,0,1,,,,,0,,,57,0
69831,note_on,,,,,12,0,1,,,,,0,,,73,0
69862,note_on,,,,,31,0,1,,,,,0,,,74,76
69863,note_on,,,,,1,0,1,,,,,0,,,66,49
69870,note_on,,,,,7,0,1,,,,,0,,,54,35
69872,note_on,,,,,2,0,1,,,,,0,,,57,35
69887,note_on,,,,,15,0,1,,,,,0,,,66,0
69897,note_on,,,,,10,0,1,,,,,0,,,74,0
69901,note_on,,,,,4,0,1,,,,,0,,,57,0
69972,note_on,,,,,71,0,1,,,,,0,,,75,73
69976,note_on,,,,,4,0,1,,,,,0,,,63,44
69978,note_on,,,,,2,0,1,,,,,0,,,69,57
69986,note_on,,,,,8,0,1,,,,,0,,,60,31
69987,note_on,,,,,1,0,1,,,,,0,,,57,25
69997,control_change,,,,,10,0,1,,,,,0,64,104,,
70001,control_change,,,,,4,0,1,,,,,0,64,24,,
70005,control_change,,,,,4,0,1,,,,,0,64,0,,
70034,control_change,,,,,29,0,1,,,,,0,64,72,,
70035,note_on,,,,,1,0,1,,,,,0,,,57,0
70036,note_on,,,,,1,0,1,,,,,0,,,60,0
70038,control_change,,,,,2,0,1,,,,,0,64,127,,
70042,note_on,,,,,4,0,1,,,,,0,,,54,0
70151,note_on,,,,,109,0,1,,,,,0,,,45,35
70158,note_on,,,,,7,0,1,,,,,0,,,63,0
70161,note_on,,,,,3,0,1,,,,,0,,,69,0
70172,note_on,,,,,11,0,1,,,,,0,,,45,0
70179,note_on,,,,,7,0,1,,,,,0,,,75,0
70250,note_on,,,,,71,0,1,,,,,0,,,76,62
70255,note_on,,,,,5,0,1,,,,,0,,,64,35
70255,note_on,,,,,0,0,1,,,,,0,,,69,50
70259,note_on,,,,,4,0,1,,,,,0,,,55,32
70259,note_on,,,,,0,0,1,,,,,0,,,61,31
70263,note_on,,,,,4,0,1,,,,,0,,,57,28
70267,control_change,,,,,4,0,1,,,,,0,64,56,,
70271,control_change,,,,,4,0,1,,,,,0,64,0,,
70284,control_change,,,,,13,0,1,,,,,0,64,56,,
70288,note_on,,,,,4,0,1,,,,,0,,,57,0
70288,control_change,,,,,0,0,1,,,,,0,64,127,,
70293,note_on,,,,,5,0,1,,,,,0,,,64,0
70293,note_on,,,,,0,0,1,,,,,0,,,55,0
70295,note_on,,,,,2,0,1,,,,,0,,,69,0
70302,note_on,,,,,7,0,1,,,,,0,,,76,0
70303,note_on,,,,,1,0,1,,,,,0,,,61,0
70367,note_on,,,,,64,0,1,,,,,0,,,77,61
70371,note_on,,,,,4,0,1,,,,,0,,,74,52
70372,note_on,,,,,1,0,1,,,,,0,,,65,29
70375,note_on,,,,,3,0,1,,,,,0,,,56,30
70377,note_on,,,,,2,0,1,,,,,0,,,62,30
70379,note_on,,,,,2,0,1,,,,,0,,,59,30
70396,control_change,,,,,17,0,1,,,,,0,64,56,,
70400,control_change,,,,,4,0,1,,,,,0,64,0,,
70437,control_change,,,,,37,0,1,,,,,0,64,104,,
70441,control_change,,,,,4,0,1,,,,,0,64,127,,
70442,note_on,,,,,1,0,1,,,,,0,,,59,0
70448,note_on,,,,,6,0,1,,,,,0,,,62,0
70451,note_on,,,,,3,0,1,,,,,0,,,56,0
70539,note_on,,,,,88,0,1,,,,,0,,,65,0
70544,note_on,,,,,5,0,1,,,,,0,,,45,37
70569,note_on,,,,,25,0,1,,,,,0,,,45,0
70576,note_on,,,,,7,0,1,,,,,0,,,77,0
70583,note_on,,,,,7,0,1,,,,,0,,,74,0
70652,note_on,,,,,69,0,1,,,,,0,,,78,43
70660,note_on,,,,,8,0,1,,,,,0,,,66,25
70663,control_change,,,,,3,0,1,,,,,0,64,104,,
70664,note_on,,,,,1,0,1,,,,,0,,,57,27
70666,note_on,,,,,2,0,1,,,,,0,,,74,25
70666,note_on,,,,,0,0,1,,,,,0,,,62,24
70667,control_change,,,,,1,0,1,,,,,0,64,24,,
70671,control_change,,,,,4,0,1,,,,,0,64,0,,
70691,control_change,,,,,20,0,1,,,,,0,64,56,,
70695,note_on,,,,,0,0,1,,,,,0,,,66,0
70695,control_change,,,,,0,0,1,,,,,0,64,127,,
70695,note_on,,,,,4,0,1,,,,,0,,,57,0
70697,note_on,,,,,2,0,1,,,,,0,,,62,0
70697,note_on,,,,,0,0,1,,,,,0,,,74,0
70709,note_on,,,,,12,0,1,,,,,0,,,78,0
70782,note_on,,,,,73,0,1,,,,,0,,,86,68
70784,note_on,,,,,2,0,1,,,,,0,,,74,45
70786,note_on,,,,,2,0,1,,,,,0,,,78,43
70790,note_on,,,,,4,0,1,,,,,0,,,66,34
70791,note_on,,,,,1,0,1,,,,,0,,,69,42
70796,control_change,,,,,5,0,1,,,,,0,64,56,,
70800,control_change,,,,,4,0,1,,,,,0,64,0,,
70819,note_on,,,,,19,0,1,,,,,0,,,66,0
70821,note_on,,,,,2,0,1,,,,,0,,,69,0
70824,control_change,,,,,3,0,1,,,,,0,64,56,,
70825,note_on,,,,,1,0,1,,,,,0,,,86,0
70828,control_change,,,,,3,0,1,,,,,0,64,127,,
70830,note_on,,,,,2,0,1,,,,,0,,,78,0
70842,note_on,,,,,12,0,1,,,,,0,,,74,0
70920,note_on,,,,,78,0,1,,,,,0,,,66,42
70920,note_on,,,,,0,0,1,,,,,0,,,78,47
70921,note_on,,,,,1,0,1,,,,,0,,,83,62
70921,note_on,,,,,0,0,1,,,,,0,,,71,41
70923,note_on,,,,,2,0,1,,,,,0,,,62,39
70930,note_on,,,,,7,0,1,,,,,0,,,71,0
70930,note_on,,,,,0,0,1,,,,,0,,,66,0
70933,note_on,,,,,3,0,1,,,,,0,,,62,0
70937,note_on,,,,,4,0,1,,,,,0,,,83,0
70941,note_on,,,,,4,0,1,,,,,0,,,78,0
70974,note_on,,,,,33,0,1,,,,,0,,,79,65
70976,note_on,,,,,2,0,1,,,,,0,,,71,41
70977,note_on,,,,,1,0,1,,,,,0,,,59,41
70977,control_change,,,,,0,0,1,,,,,0,64,72,,
70979,note_on,,,,,2,0,1,,,,,0,,,74,40
70979,note_on,,,,,0,0,1,,,,,0,,,67,38
70980,note_on,,,,,1,0,1,,,,,0,,,62,39
70981,control_change,,,,,1,0,1,,,,,0,64,24,,
70985,control_change,,,,,4,0,1,,,,,0,64,0,,
71014,control_change,,,,,29,0,1,,,,,0,64,56,,
71016,note_on,,,,,2,0,1,,,,,0,,,67,0
71018,control_change,,,,,0,0,1,,,,,0,64,127,,
71018,note_on,,,,,2,0,1,,,,,0,,,62,0
71026,note_on,,,,,8,0,1,,,,,0,,,59,0
71112,note_on,,,,,86,0,1,,,,,0,,,33,33
71149,note_on,,,,,37,0,1,,,,,0,,,33,0
71154,note_on,,,,,5,0,1,,,,,0,,,45,26
71169,note_on,,,,,15,0,1,,,,,0,,,71,0
71171,note_on,,,,,2,0,1,,,,,0,,,74,0
71180,note_on,,,,,9,0,1,,,,,0,,,45,0
71187,note_on,,,,,7,0,1,,,,,0,,,79,0
71330,note_on,,,,,143,0,1,,,,,0,,,83,68
71332,control_change,,,,,2,0,1,,,,,0,64,72,,
71334,note_on,,,,,2,0,1,,,,,0,,,71,34
71335,note_on,,,,,1,0,1,,,,,0,,,66,32
71335,note_on,,,,,0,0,1,,,,,0,,,62,36
71336,note_on,,,,,1,0,1,,,,,0,,,74,38
71336,note_on,,,,,0,0,1,,,,,0,,,78,39
71344,control_change,,,,,8,0,1,,,,,0,64,24,,
71344,control_change,,,,,0,0,1,,,,,0,64,56,,
71347,control_change,,,,,3,0,1,,,,,0,64,104,,
71351,control_change,,,,,4,0,1,,,,,0,64,127,,
71355,note_on,,,,,4,0,1,,,,,0,,,62,0
71356,note_on,,,,,1,0,1,,,,,0,,,71,0
71357,note_on,,,,,1,0,1,,,,,0,,,66,0
71357,note_on,,,,,0,0,1,,,,,0,,,78,0
71360,note_on,,,,,3,0,1,,,,,0,,,83,0
71361,note_on,,,,,1,0,1,,,,,0,,,74,0
71463,note_on,,,,,102,0,1,,,,,0,,,79,64
71466,note_on,,,,,3,0,1,,,,,0,,,67,36
71467,note_on,,,,,1,0,1,,,,,0,,,62,41
71469,note_on,,,,,2,0,1,,,,,0,,,59,38
71473,note_on,,,,,4,0,1,,,,,0,,,71,31
71475,note_on,,,,,2,0,1,,,,,0,,,67,0
71478,note_on,,,,,3,0,1,,,,,0,,,62,0
71479,note_on,,,,,1,0,1,,,,,0,,,59,0
71483,note_on,,,,,0,0,1,,,,,0,,,79,0
71483,note_on,,,,,4,0,1,,,,,0,,,71,0
71518,note_on,,,,,35,0,1,,,,,0,,,76,64
71520,note_on,,,,,2,0,1,,,,,0,,,67,42
71521,note_on,,,,,1,0,1,,,,,0,,,71,34
71523,note_on,,,,,2,0,1,,,,,0,,,59,30
71524,note_on,,,,,1,0,1,,,,,0,,,64,31
71526,control_change,,,,,2,0,1,,,,,0,64,104,,
71529,note_on,,,,,3,0,1,,,,,0,,,55,44
71529,control_change,,,,,0,0,1,,,,,0,64,24,,
71534,control_change,,,,,5,0,1,,,,,0,64,0,,
71562,note_on,,,,,28,0,1,,,,,0,,,64,0
71562,control_change,,,,,0,0,1,,,,,0,64,88,,
71564,note_on,,,,,2,0,1,,,,,0,,,59,0
71566,control_change,,,,,2,0,1,,,,,0,64,127,,
71572,note_on,,,,,6,0,1,,,,,0,,,55,0
71663,note_on,,,,,91,0,1,,,,,0,,,33,33
71704,note_on,,,,,41,0,1,,,,,0,,,33,0
71707,note_on,,,,,3,0,1,,,,,0,,,45,26
71733,note_on,,,,,26,0,1,,,,,0,,,45,0
71738,note_on,,,,,0,0,1,,,,,0,,,67,0
71738,note_on,,,,,5,0,1,,,,,0,,,76,0
71743,note_on,,,,,5,0,1,,,,,0,,,71,0
71871,note_on,,,,,128,0,1,,,,,0,,,76,67
71876,note_on,,,,,5,0,1,,,,,0,,,67,32
71877,note_on,,,,,1,0,1,,,,,0,,,71,46
71878,note_on,,,,,1,0,1,,,,,0,,,59,31
71882,note_on,,,,,4,0,1,,,,,0,,,64,29
71884,note_on,,,,,2,0,1,,,,,0,,,55,31
71898,note_on,,,,,14,0,1,,,,,0,,,59,0
71899,note_on,,,,,1,0,1,,,,,0,,,64,0
71902,note_on,,,,,3,0,1,,,,,0,,,71,0
71902,note_on,,,,,0,0,1,,,,,0,,,55,0
71906,note_on,,,,,4,0,1,,,,,0,,,76,0
71915,note_on,,,,,9,0,1,,,,,0,,,67,0
71994,note_on,,,,,79,0,1,,,,,0,,,74,70
72000,note_on,,,,,6,0,1,,,,,0,,,66,37
72002,note_on,,,,,0,0,1,,,,,0,,,62,35
72002,note_on,,,,,2,0,1,,,,,0,,,54,36
72012,note_on,,,,,10,0,1,,,,,0,,,57,19
72013,note_on,,,,,1,0,1,,,,,0,,,62,0
72017,note_on,,,,,4,0,1,,,,,0,,,74,0
72019,note_on,,,,,2,0,1,,,,,0,,,57,0
72020,note_on,,,,,0,0,1,,,,,0,,,66,0
72020,note_on,,,,,1,0,1,,,,,0,,,54,0
72042,note_on,,,,,22,0,1,,,,,0,,,73,69
72048,note_on,,,,,6,0,1,,,,,0,,,64,45
72050,note_on,,,,,2,0,1,,,,,0,,,67,37
72052,note_on,,,,,2,0,1,,,,,0,,,61,33
72054,control_change,,,,,2,0,1,,,,,0,64,56,,
72056,note_on,,,,,0,0,1,,,,,0,,,55,34
72056,note_on,,,,,2,0,1,,,,,0,,,52,36
72058,control_change,,,,,2,0,1,,,,,0,64,0,,
72066,note_on,,,,,8,0,1,,,,,0,,,64,0
72072,note_on,,,,,6,0,1,,,,,0,,,55,0
72075,note_on,,,,,3,0,1,,,,,0,,,67,0
72086,control_change,,,,,11,0,1,,,,,0,64,104,,
72090,note_on,,,,,4,0,1,,,,,0,,,73,0
72090,control_change,,,,,0,0,1,,,,,0,64,127,,
72091,note_on,,,,,1,0,1,,,,,0,,,61,0
72096,note_on,,,,,5,0,1,,,,,0,,,52,0
72132,note_on,,,,,36,0,1,,,,,0,,,54,43
72134,note_on,,,,,2,0,1,,,,,0,,,62,35
72134,note_on,,,,,0,0,1,,,,,0,,,74,66
72135,note_on,,,,,1,0,1,,,,,0,,,66,43
72141,note_on,,,,,6,0,1,,,,,0,,,69,37
72144,note_on,,,,,3,0,1,,,,,0,,,62,0
72149,note_on,,,,,5,0,1,,,,,0,,,69,0
72150,note_on,,,,,1,0,1,,,,,0,,,54,0
72153,note_on,,,,,3,0,1,,,,,0,,,66,0
72157,note_on,,,,,4,0,1,,,,,0,,,74,0
72206,note_on,,,,,49,0,1,,,,,0,,,45,50
72219,note_on,,,,,13,0,1,,,,,0,,,63,37
72239,note_on,,,,,20,0,1,,,,,0,,,69,40
72240,note_on,,,,,1,0,1,,,,,0,,,60,30
72252,control_change,,,,,12,0,1,,,,,0,64,104,,
72254,note_on,,,,,2,0,1,,,,,0,,,78,76
72255,control_change,,,,,1,0,1,,,,,0,64,72,,
72260,control_change,,,,,5,0,1,,,,,0,64,24,,
72264,control_change,,,,,4,0,1,,,,,0,64,0,,
72300,control_change,,,,,36,0,1,,,,,0,64,56,,
72304,control_change,,,,,4,0,1,,,,,0,64,127,,
72325,note_on,,,,,21,0,1,,,,,0,,,45,0
72329,note_on,,,,,4,0,1,,,,,0,,,60,0
72331,note_on,,,,,2,0,1,,,,,0,,,63,0
72372,note_on,,,,,41,0,1,,,,,0,,,69,0
72392,note_on,,,,,20,0,1,,,,,0,,,45,58
72394,note_on,,,,,2,0,1,,,,,0,,,78,0
72401,control_change,,,,,7,0,1,,,,,0,64,56,,
72405,control_change,,,,,4,0,1,,,,,0,64,0,,
72422,note_on,,,,,17,0,1,,,,,0,,,59,48
72425,control_change,,,,,3,0,1,,,,,0,64,88,,
72429,control_change,,,,,4,0,1,,,,,0,64,127,,
72437,note_on,,,,,8,0,1,,,,,0,,,67,39
72440,note_on,,,,,3,0,1,,,,,0,,,45,0
72457,note_on,,,,,17,0,1,,,,,0,,,59,0
72459,note_on,,,,,2,0,1,,,,,0,,,78,69
72550,note_on,,,,,91,0,1,,,,,0,,,61,40
72576,note_on,,,,,26,0,1,,,,,0,,,78,0
72581,note_on,,,,,5,0,1,,,,,0,,,61,0
72583,note_on,,,,,2,0,1,,,,,0,,,67,0
72593,note_on,,,,,10,0,1,,,,,0,,,76,62
72624,note_on,,,,,31,0,1,,,,,0,,,76,0
72655,note_on,,,,,31,0,1,,,,,0,,,74,62
72658,note_on,,,,,3,0,1,,,,,0,,,66,28
72659,control_change,,,,,1,0,1,,,,,0,64,104,,
72661,note_on,,,,,2,0,1,,,,,0,,,62,22
72663,control_change,,,,,0,0,1,,,,,0,64,40,,
72663,note_on,,,,,2,0,1,,,,,0,,,50,37
72667,control_change,,,,,0,0,1,,,,,0,64,0,,
72667,note_on,,,,,4,0,1,,,,,0,,,57,29
72691,control_change,,,,,24,0,1,,,,,0,64,56,,
72695,control_change,,,,,4,0,1,,,,,0,64,127,,
72709,note_on,,,,,14,0,1,,,,,0,,,62,0
72711,note_on,,,,,2,0,1,,,,,0,,,57,0
72717,note_on,,,,,6,0,1,,,,,0,,,74,0
72718,note_on,,,,,1,0,1,,,,,0,,,66,0
72719,note_on,,,,,1,0,1,,,,,0,,,50,0
72853,note_on,,,,,134,0,1,,,,,0,,,38,34
72896,note_on,,,,,43,0,1,,,,,0,,,38,0
73078,note_on,,,,,182,0,1,,,,,0,,,62,72
73080,note_on,,,,,2,0,1,,,,,0,,,54,40
73082,note_on,,,,,2,0,1,,,,,0,,,47,44
73094,control_change,,,,,12,0,1,,,,,0,64,56,,
73098,control_change,,,,,4,0,1,,,,,0,64,0,,
73131,control_change,,,,,33,0,1,,,,,0,64,72,,
73135,control_change,,,,,4,0,1,,,,,0,64,127,,
73151,note_on,,,,,16,0,1,,,,,0,,,47,0
73182,note_on,,,,,31,0,1,,,,,0,,,62,0
73208,note_on,,,,,26,0,1,,,,,0,,,54,0
73216,note_on,,,,,8,0,1,,,,,0,,,59,67
73249,note_on,,,,,33,0,1,,,,,0,,,59,0
73269,note_on,,,,,20,0,1,,,,,0,,,55,73
73278,note_on,,,,,9,0,1,,,,,0,,,52,32
73296,control_change,,,,,18,0,1,,,,,0,64,88,,
73300,control_change,,,,,4,0,1,,,,,0,64,0,,
73336,control_change,,,,,36,0,1,,,,,0,64,88,,
73340,control_change,,,,,4,0,1,,,,,0,64,127,,
73360,note_on,,,,,20,0,1,,,,,0,,,47,55
73440,note_on,,,,,80,0,1,,,,,0,,,47,0
73451,note_on,,,,,11,0,1,,,,,0,,,50,58
73488,note_on,,,,,37,0,1,,,,,0,,,55,0
73511,note_on,,,,,23,0,1,,,,,0,,,52,0
73521,note_on,,,,,10,0,1,,,,,0,,,50,0
73529,note_on,,,,,8,0,1,,,,,0,,,55,76
73531,note_on,,,,,2,0,1,,,,,0,,,47,55
73542,control_change,,,,,11,0,1,,,,,0,64,88,,
73546,control_change,,,,,4,0,1,,,,,0,64,24,,
73550,control_change,,,,,4,0,1,,,,,0,64,0,,
73554,note_on,,,,,4,0,1,,,,,0,,,47,0
73560,note_on,,,,,6,0,1,,,,,0,,,47,24
73562,control_change,,,,,2,0,1,,,,,0,64,56,,
73565,control_change,,,,,3,0,1,,,,,0,64,127,,
73578,note_on,,,,,13,0,1,,,,,0,,,55,0
73603,note_on,,,,,25,0,1,,,,,0,,,47,0
73619,note_on,,,,,16,0,1,,,,,0,,,59,76
73624,note_on,,,,,5,0,1,,,,,0,,,55,52
73624,note_on,,,,,0,0,1,,,,,0,,,43,44
73627,note_on,,,,,3,0,1,,,,,0,,,52,52
73635,control_change,,,,,8,0,1,,,,,0,64,40,,
73639,control_change,,,,,4,0,1,,,,,0,64,0,,
73653,note_on,,,,,14,0,1,,,,,0,,,55,0
73666,control_change,,,,,13,0,1,,,,,0,64,40,,
73671,control_change,,,,,5,0,1,,,,,0,64,127,,
73694,note_on,,,,,23,0,1,,,,,0,,,43,0
73706,note_on,,,,,12,0,1,,,,,0,,,40,42
73707,note_on,,,,,1,0,1,,,,,0,,,52,0
73726,note_on,,,,,19,0,1,,,,,0,,,40,0
73738,note_on,,,,,12,0,1,,,,,0,,,59,0
73749,note_on,,,,,11,0,1,,,,,0,,,58,67
73777,note_on,,,,,28,0,1,,,,,0,,,58,0
73810,note_on,,,,,33,0,1,,,,,0,,,62,68
73813,note_on,,,,,3,0,1,,,,,0,,,54,39
73814,note_on,,,,,1,0,1,,,,,0,,,59,56
73824,control_change,,,,,10,0,1,,,,,0,64,72,,
73828,control_change,,,,,4,0,1,,,,,0,64,0,,
73831,note_on,,,,,3,0,1,,,,,0,,,35,38
73885,control_change,,,,,54,0,1,,,,,0,64,72,,
73889,control_change,,,,,4,0,1,,,,,0,64,127,,
73948,note_on,,,,,59,0,1,,,,,0,,,38,40
73996,note_on,,,,,48,0,1,,,,,0,,,38,0
74006,note_on,,,,,10,0,1,,,,,0,,,42,33
74013,control_change,,,,,7,0,1,,,,,0,64,88,,
74017,control_change,,,,,4,0,1,,,,,0,64,40,,
74022,control_change,,,,,5,0,1,,,,,0,64,0,,
74054,control_change,,,,,32,0,1,,,,,0,64,40,,
74058,control_change,,,,,4,0,1,,,,,0,64,88,,
74061,control_change,,,,,3,0,1,,,,,0,64,127,,
74067,note_on,,,,,6,0,1,,,,,0,,,35,0
74079,note_on,,,,,12,0,1,,,,,0,,,42,0
74084,note_on,,,,,5,0,1,,,,,0,,,59,0
74086,note_on,,,,,2,0,1,,,,,0,,,62,0
74090,note_on,,,,,4,0,1,,,,,0,,,54,0
74221,note_on,,,,,131,0,1,,,,,0,,,62,61
74222,note_on,,,,,1,0,1,,,,,0,,,54,45
74228,note_on,,,,,6,0,1,,,,,0,,,47,45
74236,control_change,,,,,8,0,1,,,,,0,64,104,,
74240,control_change,,,,,4,0,1,,,,,0,64,72,,
74244,control_change,,,,,4,0,1,,,,,0,64,24,,
74248,control_change,,,,,4,0,1,,,,,0,64,0,,
74280,control_change,,,,,32,0,1,,,,,0,64,56,,
74284,control_change,,,,,4,0,1,,,,,0,64,127,,
74298,note_on,,,,,14,0,1,,,,,0,,,47,0
74316,note_on,,,,,18,0,1,,,,,0,,,62,0
74348,note_on,,,,,32,0,1,,,,,0,,,54,0
74353,note_on,,,,,5,0,1,,,,,0,,,59,61
74381,note_on,,,,,28,0,1,,,,,0,,,59,0
74405,note_on,,,,,24,0,1,,,,,0,,,55,63
74411,note_on,,,,,6,0,1,,,,,0,,,52,36
74425,control_change,,,,,14,0,1,,,,,0,64,88,,
74429,control_change,,,,,4,0,1,,,,,0,64,40,,
74433,control_change,,,,,4,0,1,,,,,0,64,0,,
74478,control_change,,,,,45,0,1,,,,,0,64,56,,
74482,control_change,,,,,4,0,1,,,,,0,64,104,,
74486,control_change,,,,,4,0,1,,,,,0,64,127,,
74490,note_on,,,,,4,0,1,,,,,0,,,47,42
74563,note_on,,,,,73,0,1,,,,,0,,,47,0
74576,note_on,,,,,13,0,1,,,,,0,,,50,54
74597,note_on,,,,,21,0,1,,,,,0,,,52,0
74604,note_on,,,,,7,0,1,,,,,0,,,55,0
74643,note_on,,,,,39,0,1,,,,,0,,,50,0
74663,control_change,,,,,0,0,1,,,,,0,64,72,,
74663,note_on,,,,,20,0,1,,,,,0,,,55,67
74664,note_on,,,,,1,0,1,,,,,0,,,47,38
74666,control_change,,,,,2,0,1,,,,,0,64,0,,
74695,control_change,,,,,29,0,1,,,,,0,64,72,,
74699,control_change,,,,,4,0,1,,,,,0,64,127,,
74705,note_on,,,,,6,0,1,,,,,0,,,55,0
74736,note_on,,,,,31,0,1,,,,,0,,,47,0
74760,note_on,,,,,24,0,1,,,,,0,,,59,52
74761,note_on,,,,,1,0,1,,,,,0,,,52,35
74765,note_on,,,,,4,0,1,,,,,0,,,55,28
74766,note_on,,,,,1,0,1,,,,,0,,,43,30
74768,control_change,,,,,2,0,1,,,,,0,64,104,,
74772,control_change,,,,,4,0,1,,,,,0,64,72,,
74776,control_change,,,,,0,0,1,,,,,0,64,0,,
74776,note_on,,,,,4,0,1,,,,,0,,,55,0
74816,control_change,,,,,40,0,1,,,,,0,64,40,,
74820,control_change,,,,,4,0,1,,,,,0,64,104,,
74824,control_change,,,,,4,0,1,,,,,0,64,127,,
74836,note_on,,,,,12,0,1,,,,,0,,,43,0
74854,note_on,,,,,18,0,1,,,,,0,,,40,42
74881,note_on,,,,,27,0,1,,,,,0,,,40,0
74885,note_on,,,,,4,0,1,,,,,0,,,52,0
74893,note_on,,,,,8,0,1,,,,,0,,,59,0
74901,note_on,,,,,8,0,1,,,,,0,,,58,54
74931,note_on,,,,,30,0,1,,,,,0,,,58,0
74974,note_on,,,,,43,0,1,,,,,0,,,63,56
74976,note_on,,,,,2,0,1,,,,,0,,,59,40
74978,note_on,,,,,2,0,1,,,,,0,,,54,25
74990,note_on,,,,,12,0,1,,,,,0,,,35,36
74994,control_change,,,,,4,0,1,,,,,0,64,88,,
74998,control_change,,,,,4,0,1,,,,,0,64,40,,
75002,control_change,,,,,4,0,1,,,,,0,64,0,,
75046,control_change,,,,,44,0,1,,,,,0,64,40,,
75050,control_change,,,,,4,0,1,,,,,0,64,72,,
75054,control_change,,,,,4,0,1,,,,,0,64,127,,
75125,note_on,,,,,71,0,1,,,,,0,,,54,0
75134,note_on,,,,,9,0,1,,,,,0,,,59,0
75134,note_on,,,,,0,0,1,,,,,0,,,39,34
75162,note_on,,,,,28,0,1,,,,,0,,,63,0
75194,note_on,,,,,32,0,1,,,,,0,,,42,33
75222,note_on,,,,,28,0,1,,,,,0,,,39,0
75224,control_change,,,,,2,0,1,,,,,0,64,72,,
75228,control_change,,,,,4,0,1,,,,,0,64,0,,
75240,control_change,,,,,12,0,1,,,,,0,64,40,,
75244,control_change,,,,,4,0,1,,,,,0,64,88,,
75248,control_change,,,,,4,0,1,,,,,0,64,127,,
75275,note_on,,,,,27,0,1,,,,,0,,,35,0
75290,note_on,,,,,15,0,1,,,,,0,,,42,0
75397,note_on,,,,,107,0,1,,,,,0,,,75,77
75402,note_on,,,,,0,0,1,,,,,0,,,63,34
75402,note_on,,,,,5,0,1,,,,,0,,,66,42
75405,note_on,,,,,3,0,1,,,,,0,,,54,36
75406,note_on,,,,,0,0,1,,,,,0,,,59,29
75406,note_on,,,,,1,0,1,,,,,0,,,47,45
75412,control_change,,,,,6,0,1,,,,,0,64,104,,
75417,control_change,,,,,5,0,1,,,,,0,64,24,,
75421,control_change,,,,,4,0,1,,,,,0,64,0,,
75443,note_on,,,,,22,0,1,,,,,0,,,47,0
75445,note_on,,,,,2,0,1,,,,,0,,,59,0
75446,control_change,,,,,1,0,1,,,,,0,64,88,,
75449,control_change,,,,,3,0,1,,,,,0,64,127,,
75451,note_on,,,,,2,0,1,,,,,0,,,54,0
75466,note_on,,,,,15,0,1,,,,,0,,,75,0
75470,note_on,,,,,4,0,1,,,,,0,,,66,0
75472,note_on,,,,,2,0,1,,,,,0,,,63,0
75539,note_on,,,,,67,0,1,,,,,0,,,71,79
75540,note_on,,,,,1,0,1,,,,,0,,,63,51
75542,note_on,,,,,2,0,1,,,,,0,,,54,43
75542,note_on,,,,,0,0,1,,,,,0,,,47,48
75543,note_on,,,,,1,0,1,,,,,0,,,59,41
75556,note_on,,,,,13,0,1,,,,,0,,,47,0
75558,note_on,,,,,2,0,1,,,,,0,,,63,0
75559,note_on,,,,,1,0,1,,,,,0,,,54,0
75561,note_on,,,,,2,0,1,,,,,0,,,59,0
75569,note_on,,,,,8,0,1,,,,,0,,,71,0
75598,note_on,,,,,29,0,1,,,,,0,,,66,74
75602,note_on,,,,,4,0,1,,,,,0,,,63,42
75606,note_on,,,,,4,0,1,,,,,0,,,54,35
75608,note_on,,,,,2,0,1,,,,,0,,,59,37
75609,note_on,,,,,1,0,1,,,,,0,,,47,37
75615,control_change,,,,,6,0,1,,,,,0,64,40,,
75619,control_change,,,,,4,0,1,,,,,0,64,0,,
75643,control_change,,,,,24,0,1,,,,,0,64,72,,
75646,control_change,,,,,3,0,1,,,,,0,64,127,,
75654,note_on,,,,,8,0,1,,,,,0,,,47,0
75659,note_on,,,,,5,0,1,,,,,0,,,59,0
75660,note_on,,,,,1,0,1,,,,,0,,,54,0
75852,note_on,,,,,192,0,1,,,,,0,,,66,0
75856,note_on,,,,,4,0,1,,,,,0,,,63,0
76015,note_on,,,,,159,0,1,,,,,0,,,74,54
76023,note_on,,,,,8,0,1,,,,,0,,,67,38
76024,note_on,,,,,1,0,1,,,,,0,,,62,33
76025,note_on,,,,,1,0,1,,,,,0,,,46,31
76026,note_on,,,,,1,0,1,,,,,0,,,58,28
76028,note_on,,,,,2,0,1,,,,,0,,,55,38
76046,control_change,,,,,18,0,1,,,,,0,64,104,,
76050,control_change,,,,,4,0,1,,,,,0,64,0,,
76086,control_change,,,,,36,0,1,,,,,0,64,104,,
76090,control_change,,,,,4,0,1,,,,,0,64,127,,
76098,note_on,,,,,8,0,1,,,,,0,,,55,0
76100,note_on,,,,,2,0,1,,,,,0,,,46,0
76102,note_on,,,,,2,0,1,,,,,0,,,74,0
76102,note_on,,,,,0,0,1,,,,,0,,,58,0
76107,note_on,,,,,5,0,1,,,,,0,,,62,0
76118,note_on,,,,,11,0,1,,,,,0,,,67,0
76165,note_on,,,,,47,0,1,,,,,0,,,70,50
76170,note_on,,,,,5,0,1,,,,,0,,,62,37
76171,note_on,,,,,1,0,1,,,,,0,,,67,27
76174,note_on,,,,,3,0,1,,,,,0,,,46,27
76176,note_on,,,,,0,0,1,,,,,0,,,55,41
76176,note_on,,,,,2,0,1,,,,,0,,,58,22
76189,note_on,,,,,13,0,1,,,,,0,,,67,0
76191,note_on,,,,,2,0,1,,,,,0,,,46,0
76191,note_on,,,,,0,0,1,,,,,0,,,55,0
76193,note_on,,,,,2,0,1,,,,,0,,,58,0
76194,note_on,,,,,1,0,1,,,,,0,,,62,0
76197,note_on,,,,,3,0,1,,,,,0,,,70,0
76245,note_on,,,,,48,0,1,,,,,0,,,67,57
76250,note_on,,,,,5,0,1,,,,,0,,,62,33
76256,note_on,,,,,0,0,1,,,,,0,,,46,25
76256,note_on,,,,,6,0,1,,,,,0,,,55,39
76261,note_on,,,,,5,0,1,,,,,0,,,58,14
76280,control_change,,,,,19,0,1,,,,,0,64,104,,
76284,control_change,,,,,4,0,1,,,,,0,64,56,,
76288,control_change,,,,,4,0,1,,,,,0,64,0,,
76332,control_change,,,,,44,0,1,,,,,0,64,72,,
76336,control_change,,,,,4,0,1,,,,,0,64,127,,
76413,note_on,,,,,77,0,1,,,,,0,,,55,0
76414,note_on,,,,,1,0,1,,,,,0,,,46,0
76415,note_on,,,,,1,0,1,,,,,0,,,62,0
76424,note_on,,,,,9,0,1,,,,,0,,,67,0
76424,note_on,,,,,0,0,1,,,,,0,,,58,0
76528,note_on,,,,,104,0,1,,,,,0,,,67,63
76534,note_on,,,,,6,0,1,,,,,0,,,58,23
76537,note_on,,,,,0,0,1,,,,,0,,,62,35
76537,note_on,,,,,3,0,1,,,,,0,,,46,25
76538,note_on,,,,,1,0,1,,,,,0,,,55,39
76542,control_change,,,,,4,0,1,,,,,0,64,88,,
76545,control_change,,,,,3,0,1,,,,,0,64,40,,
76550,control_change,,,,,5,0,1,,,,,0,64,0,,
76562,control_change,,,,,12,0,1,,,,,0,64,56,,
76566,control_change,,,,,0,0,1,,,,,0,64,127,,
76566,note_on,,,,,4,0,1,,,,,0,,,62,0
76569,note_on,,,,,3,0,1,,,,,0,,,58,0
76570,note_on,,,,,1,0,1,,,,,0,,,55,0
76588,note_on,,,,,18,0,1,,,,,0,,,67,0
76590,note_on,,,,,2,0,1,,,,,0,,,46,0
76636,note_on,,,,,46,0,1,,,,,0,,,74,71
76638,note_on,,,,,2,0,1,,,,,0,,,64,48
76640,note_on,,,,,2,0,1,,,,,0,,,46,35
76643,note_on,,,,,3,0,1,,,,,0,,,55,40
76667,control_change,,,,,24,0,1,,,,,0,64,24,,
76671,control_change,,,,,4,0,1,,,,,0,64,0,,
76695,control_change,,,,,24,0,1,,,,,0,64,104,,
76700,control_change,,,,,5,0,1,,,,,0,64,127,,
76714,note_on,,,,,14,0,1,,,,,0,,,55,0
76714,note_on,,,,,0,0,1,,,,,0,,,74,0
76727,note_on,,,,,13,0,1,,,,,0,,,64,0
76728,note_on,,,,,1,0,1,,,,,0,,,46,0
76772,note_on,,,,,44,0,1,,,,,0,,,72,74
76773,note_on,,,,,1,0,1,,,,,0,,,46,44
76774,note_on,,,,,1,0,1,,,,,0,,,55,45
76775,note_on,,,,,1,0,1,,,,,0,,,64,51
76788,note_on,,,,,13,0,1,,,,,0,,,55,0
76791,note_on,,,,,3,0,1,,,,,0,,,64,0
76795,note_on,,,,,4,0,1,,,,,0,,,46,0
76795,note_on,,,,,0,0,1,,,,,0,,,72,0
76832,note_on,,,,,37,0,1,,,,,0,,,72,75
76838,note_on,,,,,6,0,1,,,,,0,,,65,50
76840,note_on,,,,,2,0,1,,,,,0,,,53,35
76844,note_on,,,,,4,0,1,,,,,0,,,45,39
76857,control_change,,,,,13,0,1,,,,,0,64,56,,
76861,control_change,,,,,4,0,1,,,,,0,64,0,,
76893,control_change,,,,,32,0,1,,,,,0,64,88,,
76897,control_change,,,,,4,0,1,,,,,0,64,127,,
76956,note_on,,,,,59,0,1,,,,,0,,,65,0
76964,note_on,,,,,8,0,1,,,,,0,,,45,0
76991,note_on,,,,,27,0,1,,,,,0,,,53,0
76994,note_on,,,,,3,0,1,,,,,0,,,72,0
77032,note_on,,,,,38,0,1,,,,,0,,,69,71
77040,note_on,,,,,8,0,1,,,,,0,,,65,41
77040,note_on,,,,,0,0,1,,,,,0,,,53,32
77041,note_on,,,,,1,0,1,,,,,0,,,50,44
77062,control_change,,,,,21,0,1,,,,,0,64,72,,
77066,control_change,,,,,4,0,1,,,,,0,64,0,,
77099,control_change,,,,,33,0,1,,,,,0,64,88,,
77103,control_change,,,,,4,0,1,,,,,0,64,127,,
77120,note_on,,,,,17,0,1,,,,,0,,,53,0
77125,note_on,,,,,5,0,1,,,,,0,,,65,0
77126,note_on,,,,,1,0,1,,,,,0,,,50,0
77138,note_on,,,,,12,0,1,,,,,0,,,69,0
77218,note_on,,,,,80,0,1,,,,,0,,,72,75
77223,note_on,,,,,5,0,1,,,,,0,,,62,44
77224,note_on,,,,,1,0,1,,,,,0,,,53,39
77225,note_on,,,,,1,0,1,,,,,0,,,43,38
77248,control_change,,,,,23,0,1,,,,,0,64,88,,
77252,control_change,,,,,4,0,1,,,,,0,64,24,,
77256,control_change,,,,,4,0,1,,,,,0,64,0,,
77279,control_change,,,,,23,0,1,,,,,0,64,40,,
77283,control_change,,,,,4,0,1,,,,,0,64,127,,
77322,note_on,,,,,39,0,1,,,,,0,,,72,0
77355,note_on,,,,,33,0,1,,,,,0,,,70,69
77379,note_on,,,,,24,0,1,,,,,0,,,43,0
77388,note_on,,,,,9,0,1,,,,,0,,,70,0
77410,note_on,,,,,22,0,1,,,,,0,,,69,74
77413,control_change,,,,,3,0,1,,,,,0,64,104,,
77417,control_change,,,,,4,0,1,,,,,0,64,40,,
77420,note_on,,,,,3,0,1,,,,,0,,,45,39
77421,control_change,,,,,1,0,1,,,,,0,64,0,,
77454,control_change,,,,,33,0,1,,,,,0,64,72,,
77458,control_change,,,,,4,0,1,,,,,0,64,127,,
77491,note_on,,,,,33,0,1,,,,,0,,,45,0
77492,note_on,,,,,1,0,1,,,,,0,,,53,0
77580,note_on,,,,,88,0,1,,,,,0,,,62,0
77586,note_on,,,,,6,0,1,,,,,0,,,60,54
77715,note_on,,,,,129,0,1,,,,,0,,,60,0
77716,note_on,,,,,1,0,1,,,,,0,,,62,60
77724,note_on,,,,,8,0,1,,,,,0,,,62,0
77724,note_on,,,,,0,0,1,,,,,0,,,69,0
77770,note_on,,,,,46,0,1,,,,,0,,,72,66
77772,note_on,,,,,2,0,1,,,,,0,,,62,42
77776,note_on,,,,,4,0,1,,,,,0,,,43,33
77777,note_on,,,,,1,0,1,,,,,0,,,53,31
77800,control_change,,,,,23,0,1,,,,,0,64,88,,
77804,control_change,,,,,4,0,1,,,,,0,64,0,,
77832,control_change,,,,,28,0,1,,,,,0,64,72,,
77836,control_change,,,,,4,0,1,,,,,0,64,127,,
77874,note_on,,,,,38,0,1,,,,,0,,,72,0
77908,note_on,,,,,34,0,1,,,,,0,,,70,56
77923,note_on,,,,,15,0,1,,,,,0,,,43,0
77933,note_on,,,,,10,0,1,,,,,0,,,70,0
77959,note_on,,,,,26,0,1,,,,,0,,,69,65
77970,note_on,,,,,11,0,1,,,,,0,,,45,32
77994,control_change,,,,,24,0,1,,,,,0,64,104,,
77998,control_change,,,,,4,0,1,,,,,0,64,56,,
78002,control_change,,,,,4,0,1,,,,,0,64,0,,
78038,control_change,,,,,36,0,1,,,,,0,64,127,,
78089,note_on,,,,,51,0,1,,,,,0,,,62,0
78107,note_on,,,,,18,0,1,,,,,0,,,69,0
78108,note_on,,,,,1,0,1,,,,,0,,,60,51
78152,note_on,,,,,44,0,1,,,,,0,,,60,0
78162,note_on,,,,,10,0,1,,,,,0,,,62,52
78188,control_change,,,,,26,0,1,,,,,0,64,72,,
78192,control_change,,,,,4,0,1,,,,,0,64,0,,
78221,note_on,,,,,29,0,1,,,,,0,,,65,50
78233,note_on,,,,,12,0,1,,,,,0,,,62,0
78240,control_change,,,,,7,0,1,,,,,0,64,56,,
78244,control_change,,,,,4,0,1,,,,,0,64,104,,
78248,control_change,,,,,4,0,1,,,,,0,64,127,,
78317,note_on,,,,,69,0,1,,,,,0,,,53,0
78322,note_on,,,,,5,0,1,,,,,0,,,45,0
78328,note_on,,,,,6,0,1,,,,,0,,,64,59
78330,note_on,,,,,2,0,1,,,,,0,,,65,0
78342,note_on,,,,,12,0,1,,,,,0,,,64,0
78404,note_on,,,,,62,0,1,,,,,0,,,69,56
78410,note_on,,,,,6,0,1,,,,,0,,,62,32
78410,note_on,,,,,0,0,1,,,,,0,,,53,34
78412,note_on,,,,,2,0,1,,,,,0,,,43,37
78425,control_change,,,,,13,0,1,,,,,0,64,88,,
78429,control_change,,,,,4,0,1,,,,,0,64,24,,
78433,control_change,,,,,4,0,1,,,,,0,64,0,,
78466,control_change,,,,,33,0,1,,,,,0,64,40,,
78470,control_change,,,,,4,0,1,,,,,0,64,88,,
78474,control_change,,,,,4,0,1,,,,,0,64,104,,
78485,note_on,,,,,11,0,1,,,,,0,,,69,0
78487,note_on,,,,,2,0,1,,,,,0,,,72,59
78506,control_change,,,,,19,0,1,,,,,0,64,88,,
78510,control_change,,,,,4,0,1,,,,,0,64,56,,
78514,control_change,,,,,4,0,1,,,,,0,64,24,,
78518,control_change,,,,,4,0,1,,,,,0,64,0,,
78554,control_change,,,,,36,0,1,,,,,0,64,72,,
78558,control_change,,,,,4,0,1,,,,,0,64,127,,
78586,note_on,,,,,28,0,1,,,,,0,,,72,0
78586,note_on,,,,,0,0,1,,,,,0,,,43,0
78588,note_on,,,,,2,0,1,,,,,0,,,53,0
78638,note_on,,,,,50,0,1,,,,,0,,,70,52
78644,note_on,,,,,6,0,1,,,,,0,,,62,0
78670,note_on,,,,,26,0,1,,,,,0,,,70,0
78766,note_on,,,,,96,0,1,,,,,0,,,54,25
78768,note_on,,,,,2,0,1,,,,,0,,,69,47
78769,note_on,,,,,1,0,1,,,,,0,,,62,35
78770,note_on,,,,,1,0,1,,,,,0,,,45,37
78792,control_change,,,,,22,0,1,,,,,0,64,104,,
78796,control_change,,,,,4,0,1,,,,,0,64,56,,
78800,control_change,,,,,4,0,1,,,,,0,64,0,,
78837,control_change,,,,,37,0,1,,,,,0,64,72,,
78841,control_change,,,,,4,0,1,,,,,0,64,127,,
78909,control_change,,,,,68,0,1,,,,,0,64,56,,
78913,control_change,,,,,4,0,1,,,,,0,64,24,,
78925,control_change,,,,,12,0,1,,,,,0,64,127,,
78977,note_on,,,,,52,0,1,,,,,0,,,45,0
78979,note_on,,,,,2,0,1,,,,,0,,,62,0
78991,note_on,,,,,12,0,1,,,,,0,,,54,0
79001,note_on,,,,,10,0,1,,,,,0,,,69,0
79127,note_on,,,,,126,0,1,,,,,0,,,86,69
79130,note_on,,,,,0,0,1,,,,,0,,,78,46
79130,note_on,,,,,3,0,1,,,,,0,,,74,43
79136,note_on,,,,,6,0,1,,,,,0,,,69,39
79152,note_on,,,,,0,0,1,,,,,0,,,86,0
79152,note_on,,,,,16,0,1,,,,,0,,,69,0
79156,note_on,,,,,4,0,1,,,,,0,,,78,0
79160,note_on,,,,,4,0,1,,,,,0,,,74,0
79255,note_on,,,,,0,0,1,,,,,0,,,83,58
79255,note_on,,,,,95,0,1,,,,,0,,,66,35
79260,note_on,,,,,5,0,1,,,,,0,,,71,28
79262,note_on,,,,,2,0,1,,,,,0,,,74,36
79272,note_on,,,,,10,0,1,,,,,0,,,71,0
79273,note_on,,,,,1,0,1,,,,,0,,,83,0
79274,note_on,,,,,1,0,1,,,,,0,,,74,0
79276,note_on,,,,,2,0,1,,,,,0,,,66,0
79307,note_on,,,,,31,0,1,,,,,0,,,79,62
79308,note_on,,,,,1,0,1,,,,,0,,,62,40
79308,note_on,,,,,0,0,1,,,,,0,,,74,30
79309,note_on,,,,,1,0,1,,,,,0,,,71,33
79311,note_on,,,,,2,0,1,,,,,0,,,67,32
79316,control_change,,,,,5,0,1,,,,,0,64,72,,
79320,control_change,,,,,4,0,1,,,,,0,64,0,,
79350,note_on,,,,,30,0,1,,,,,0,,,67,0
79353,control_change,,,,,3,0,1,,,,,0,64,104,,
79357,note_on,,,,,4,0,1,,,,,0,,,62,0
79357,control_change,,,,,0,0,1,,,,,0,64,127,,
79453,note_on,,,,,96,0,1,,,,,0,,,33,32
79493,note_on,,,,,40,0,1,,,,,0,,,45,44
79498,note_on,,,,,5,0,1,,,,,0,,,33,0
79522,note_on,,,,,24,0,1,,,,,0,,,71,0
79524,note_on,,,,,0,0,1,,,,,0,,,74,0
79524,note_on,,,,,2,0,1,,,,,0,,,45,0
79540,note_on,,,,,16,0,1,,,,,0,,,79,0
79661,note_on,,,,,121,0,1,,,,,0,,,83,72
79666,note_on,,,,,5,0,1,,,,,0,,,74,41
79670,note_on,,,,,0,0,1,,,,,0,,,66,33
79670,note_on,,,,,4,0,1,,,,,0,,,71,37
79692,note_on,,,,,22,0,1,,,,,0,,,71,0
79694,note_on,,,,,2,0,1,,,,,0,,,66,0
79694,note_on,,,,,0,0,1,,,,,0,,,83,0
79700,note_on,,,,,6,0,1,,,,,0,,,74,0
79795,note_on,,,,,95,0,1,,,,,0,,,79,54
79801,note_on,,,,,6,0,1,,,,,0,,,67,41
79803,note_on,,,,,2,0,1,,,,,0,,,62,44
79805,note_on,,,,,2,0,1,,,,,0,,,71,31
79814,note_on,,,,,0,0,1,,,,,0,,,67,0
79814,note_on,,,,,9,0,1,,,,,0,,,62,0
79816,note_on,,,,,2,0,1,,,,,0,,,79,0
79824,note_on,,,,,8,0,1,,,,,0,,,71,0
79848,note_on,,,,,24,0,1,,,,,0,,,67,37
79850,note_on,,,,,2,0,1,,,,,0,,,76,58
79850,note_on,,,,,0,0,1,,,,,0,,,71,21
79857,note_on,,,,,7,0,1,,,,,0,,,59,35
79857,control_change,,,,,0,0,1,,,,,0,64,72,,
79857,note_on,,,,,0,0,1,,,,,0,,,64,27
79861,control_change,,,,,4,0,1,,,,,0,64,0,,
79889,control_change,,,,,0,0,1,,,,,0,64,72,,
79889,note_on,,,,,28,0,1,,,,,0,,,64,0
79893,control_change,,,,,4,0,1,,,,,0,64,127,,
79898,note_on,,,,,5,0,1,,,,,0,,,59,0
79997,note_on,,,,,99,0,1,,,,,0,,,33,31
80036,note_on,,,,,39,0,1,,,,,0,,,45,35
80047,note_on,,,,,11,0,1,,,,,0,,,33,0
80062,note_on,,,,,15,0,1,,,,,0,,,67,0
80070,note_on,,,,,8,0,1,,,,,0,,,71,0
80072,note_on,,,,,2,0,1,,,,,0,,,76,0
80076,note_on,,,,,4,0,1,,,,,0,,,45,0
80210,note_on,,,,,134,0,1,,,,,0,,,76,66
80214,note_on,,,,,4,0,1,,,,,0,,,67,40
80217,note_on,,,,,0,0,1,,,,,0,,,59,33
80217,note_on,,,,,3,0,1,,,,,0,,,64,38
80234,note_on,,,,,17,0,1,,,,,0,,,64,0
80238,note_on,,,,,4,0,1,,,,,0,,,59,0
80240,note_on,,,,,2,0,1,,,,,0,,,76,0
80247,note_on,,,,,7,0,1,,,,,0,,,67,0
80330,note_on,,,,,83,0,1,,,,,0,,,74,70
80331,note_on,,,,,1,0,1,,,,,0,,,66,48
80334,note_on,,,,,3,0,1,,,,,0,,,57,44
80338,note_on,,,,,4,0,1,,,,,0,,,62,33
80349,note_on,,,,,11,0,1,,,,,0,,,57,0
80350,note_on,,,,,1,0,1,,,,,0,,,62,0
80352,note_on,,,,,2,0,1,,,,,0,,,66,0
80352,note_on,,,,,0,0,1,,,,,0,,,74,0
80382,note_on,,,,,30,0,1,,,,,0,,,73,70
80385,control_change,,,,,3,0,1,,,,,0,64,72,,
80388,note_on,,,,,3,0,1,,,,,0,,,64,42
80389,control_change,,,,,1,0,1,,,,,0,64,0,,
80392,note_on,,,,,3,0,1,,,,,0,,,55,44
80395,note_on,,,,,3,0,1,,,,,0,,,57,33
80417,note_on,,,,,22,0,1,,,,,0,,,55,0
80417,control_change,,,,,0,0,1,,,,,0,64,56,,
80422,note_on,,,,,5,0,1,,,,,0,,,64,0
80422,control_change,,,,,0,0,1,,,,,0,64,127,,
80425,note_on,,,,,3,0,1,,,,,0,,,57,0
80436,note_on,,,,,11,0,1,,,,,0,,,73,0
80469,note_on,,,,,33,0,1,,,,,0,,,74,74
80472,note_on,,,,,3,0,1,,,,,0,,,66,50
80477,note_on,,,,,0,0,1,,,,,0,,,54,38
80477,note_on,,,,,5,0,1,,,,,0,,,57,41
80494,note_on,,,,,17,0,1,,,,,0,,,66,0
80501,note_on,,,,,7,0,1,,,,,0,,,74,0
80504,note_on,,,,,3,0,1,,,,,0,,,57,0
80578,note_on,,,,,74,0,1,,,,,0,,,75,76
80583,note_on,,,,,5,0,1,,,,,0,,,63,42
80586,note_on,,,,,3,0,1,,,,,0,,,69,54
80590,note_on,,,,,4,0,1,,,,,0,,,60,41
80596,note_on,,,,,6,0,1,,,,,0,,,57,24
80610,control_change,,,,,14,0,1,,,,,0,64,88,,
80615,control_change,,,,,5,0,1,,,,,0,64,0,,
80643,control_change,,,,,28,0,1,,,,,0,64,72,,
80644,note_on,,,,,1,0,1,,,,,0,,,57,0
80645,note_on,,,,,1,0,1,,,,,0,,,60,0
80647,control_change,,,,,2,0,1,,,,,0,64,127,,
80652,note_on,,,,,5,0,1,,,,,0,,,54,0
80740,note_on,,,,,88,0,1,,,,,0,,,45,48
80742,note_on,,,,,2,0,1,,,,,0,,,63,0
80761,note_on,,,,,19,0,1,,,,,0,,,45,0
80765,note_on,,,,,4,0,1,,,,,0,,,69,0
80774,note_on,,,,,9,0,1,,,,,0,,,75,0
80839,note_on,,,,,65,0,1,,,,,0,,,76,65
80843,note_on,,,,,4,0,1,,,,,0,,,69,52
80846,note_on,,,,,3,0,1,,,,,0,,,64,47
80849,note_on,,,,,3,0,1,,,,,0,,,55,40
80850,note_on,,,,,1,0,1,,,,,0,,,61,32
80856,control_change,,,,,6,0,1,,,,,0,64,56,,
80859,note_on,,,,,3,0,1,,,,,0,,,57,19
80860,control_change,,,,,1,0,1,,,,,0,64,0,,
80878,note_on,,,,,18,0,1,,,,,0,,,57,0
80879,note_on,,,,,1,0,1,,,,,0,,,55,0
80881,control_change,,,,,2,0,1,,,,,0,64,56,,
80883,note_on,,,,,2,0,1,,,,,0,,,64,0
80885,control_change,,,,,2,0,1,,,,,0,64,127,,
80889,note_on,,,,,4,0,1,,,,,0,,,69,0
80893,note_on,,,,,4,0,1,,,,,0,,,76,0
80896,note_on,,,,,3,0,1,,,,,0,,,61,0
80961,note_on,,,,,65,0,1,,,,,0,,,77,62
80964,note_on,,,,,3,0,1,,,,,0,,,65,42
80967,note_on,,,,,3,0,1,,,,,0,,,74,45
80967,note_on,,,,,0,0,1,,,,,0,,,62,28
80967,note_on,,,,,0,0,1,,,,,0,,,56,20
80970,note_on,,,,,3,0,1,,,,,0,,,59,35
80978,control_change,,,,,8,0,1,,,,,0,64,104,,
80982,control_change,,,,,4,0,1,,,,,0,64,56,,
80986,control_change,,,,,4,0,1,,,,,0,64,0,,
81022,control_change,,,,,36,0,1,,,,,0,64,56,,
81026,control_change,,,,,0,0,1,,,,,0,64,127,,
81026,note_on,,,,,4,0,1,,,,,0,,,59,0
81030,note_on,,,,,4,0,1,,,,,0,,,62,0
81038,note_on,,,,,8,0,1,,,,,0,,,56,0
81072,note_on,,,,,34,0,1,,,,,0,,,74,0
81124,note_on,,,,,52,0,1,,,,,0,,,65,0
81127,note_on,,,,,3,0,1,,,,,0,,,45,41
81139,note_on,,,,,12,0,1,,,,,0,,,45,0
81154,note_on,,,,,15,0,1,,,,,0,,,77,0
81230,note_on,,,,,76,0,1,,,,,0,,,78,44
81240,note_on,,,,,0,0,1,,,,,0,,,66,25
81240,note_on,,,,,0,0,1,,,,,0,,,74,35
81240,control_change,,,,,0,0,1,,,,,0,64,104,,
81240,note_on,,,,,10,0,1,,,,,0,,,57,34
81244,control_change,,,,,4,0,1,,,,,0,64,56,,
81246,note_on,,,,,2,0,1,,,,,0,,,62,24
81247,control_change,,,,,1,0,1,,,,,0,64,24,,
81252,control_change,,,,,5,0,1,,,,,0,64,0,,
81256,control_change,,,,,4,0,1,,,,,0,64,24,,
81260,control_change,,,,,4,0,1,,,,,0,64,56,,
81264,control_change,,,,,4,0,1,,,,,0,64,127,,
81269,note_on,,,,,5,0,1,,,,,0,,,57,0
81270,note_on,,,,,1,0,1,,,,,0,,,66,0
81272,note_on,,,,,2,0,1,,,,,0,,,74,0
81274,note_on,,,,,2,0,1,,,,,0,,,62,0
81288,note_on,,,,,14,0,1,,,,,0,,,78,0
81362,note_on,,,,,74,0,1,,,,,0,,,86,71
81365,control_change,,,,,3,0,1,,,,,0,64,104,,
81366,note_on,,,,,1,0,1,,,,,0,,,74,39
81367,note_on,,,,,1,0,1,,,,,0,,,78,49
81369,note_on,,,,,2,0,1,,,,,0,,,66,34
81369,control_change,,,,,0,0,1,,,,,0,64,0,,
81371,note_on,,,,,2,0,1,,,,,0,,,69,42
81400,note_on,,,,,29,0,1,,,,,0,,,66,0
81402,note_on,,,,,2,0,1,,,,,0,,,78,0
81402,note_on,,,,,0,0,1,,,,,0,,,86,0
81402,control_change,,,,,0,0,1,,,,,0,64,104,,
81402,note_on,,,,,0,0,1,,,,,0,,,69,0
81406,control_change,,,,,4,0,1,,,,,0,64,127,,
81418,note_on,,,,,12,0,1,,,,,0,,,74,0
81497,note_on,,,,,79,0,1,,,,,0,,,83,62
81497,note_on,,,,,0,0,1,,,,,0,,,78,46
81498,note_on,,,,,1,0,1,,,,,0,,,71,44
81498,note_on,,,,,0,0,1,,,,,0,,,66,34
81500,note_on,,,,,2,0,1,,,,,0,,,62,41
81507,note_on,,,,,7,0,1,,,,,0,,,71,0
81508,note_on,,,,,1,0,1,,,,,0,,,66,0
81509,note_on,,,,,1,0,1,,,,,0,,,62,0
81513,note_on,,,,,4,0,1,,,,,0,,,83,0
81514,note_on,,,,,1,0,1,,,,,0,,,78,0
81550,note_on,,,,,36,0,1,,,,,0,,,79,68
81553,note_on,,,,,3,0,1,,,,,0,,,71,45
81555,note_on,,,,,2,0,1,,,,,0,,,74,43
81557,note_on,,,,,2,0,1,,,,,0,,,67,33
81557,note_on,,,,,0,0,1,,,,,0,,,59,36
81559,control_change,,,,,2,0,1,,,,,0,64,104,,
81559,note_on,,,,,0,0,1,,,,,0,,,62,26
81563,control_change,,,,,4,0,1,,,,,0,64,40,,
81567,control_change,,,,,4,0,1,,,,,0,64,0,,
81597,note_on,,,,,30,0,1,,,,,0,,,67,0
81599,control_change,,,,,2,0,1,,,,,0,64,127,,
81600,note_on,,,,,1,0,1,,,,,0,,,62,0
81606,note_on,,,,,6,0,1,,,,,0,,,59,0
81693,note_on,,,,,87,0,1,,,,,0,,,33,33
81742,note_on,,,,,49,0,1,,,,,0,,,45,30
81743,note_on,,,,,1,0,1,,,,,0,,,33,0
81746,note_on,,,,,3,0,1,,,,,0,,,71,0
81747,note_on,,,,,1,0,1,,,,,0,,,74,0
81763,note_on,,,,,16,0,1,,,,,0,,,45,0
81774,note_on,,,,,11,0,1,,,,,0,,,79,0
81913,note_on,,,,,139,0,1,,,,,0,,,83,74
81915,note_on,,,,,2,0,1,,,,,0,,,78,46
81918,note_on,,,,,3,0,1,,,,,0,,,62,42
81919,note_on,,,,,1,0,1,,,,,0,,,71,38
81919,note_on,,,,,0,0,1,,,,,0,,,66,33
81922,note_on,,,,,3,0,1,,,,,0,,,74,30
81943,note_on,,,,,21,0,1,,,,,0,,,74,0
81943,note_on,,,,,0,0,1,,,,,0,,,71,0
81945,note_on,,,,,2,0,1,,,,,0,,,62,0
81946,note_on,,,,,1,0,1,,,,,0,,,66,0
81947,note_on,,,,,1,0,1,,,,,0,,,83,0
81948,note_on,,,,,1,0,1,,,,,0,,,78,0
82048,note_on,,,,,0,0,1,,,,,0,,,74,40
82048,note_on,,,,,0,0,1,,,,,0,,,71,40
82048,note_on,,,,,0,0,1,,,,,0,,,67,49
82048,note_on,,,,,100,0,1,,,,,0,,,79,68
82056,note_on,,,,,8,0,1,,,,,0,,,59,33
82058,note_on,,,,,2,0,1,,,,,0,,,67,0
82059,note_on,,,,,1,0,1,,,,,0,,,62,22
82065,note_on,,,,,6,0,1,,,,,0,,,62,0
82066,note_on,,,,,1,0,1,,,,,0,,,59,0
82068,note_on,,,,,0,0,1,,,,,0,,,74,0
82068,note_on,,,,,2,0,1,,,,,0,,,79,0
82068,note_on,,,,,0,0,1,,,,,0,,,71,0
82106,note_on,,,,,38,0,1,,,,,0,,,76,61
82107,note_on,,,,,1,0,1,,,,,0,,,67,49
82108,note_on,,,,,1,0,1,,,,,0,,,71,44
82111,note_on,,,,,3,0,1,,,,,0,,,59,22
82111,note_on,,,,,0,0,1,,,,,0,,,64,24
82115,note_on,,,,,4,0,1,,,,,0,,,55,33
82123,control_change,,,,,8,0,1,,,,,0,64,104,,
82127,control_change,,,,,4,0,1,,,,,0,64,40,,
82132,control_change,,,,,5,0,1,,,,,0,64,0,,
82156,note_on,,,,,24,0,1,,,,,0,,,64,0
82160,note_on,,,,,4,0,1,,,,,0,,,59,0
82160,control_change,,,,,0,0,1,,,,,0,64,88,,
82164,control_change,,,,,4,0,1,,,,,0,64,127,,
82168,note_on,,,,,4,0,1,,,,,0,,,55,0
82259,note_on,,,,,91,0,1,,,,,0,,,33,38
82303,note_on,,,,,44,0,1,,,,,0,,,33,0
82306,note_on,,,,,3,0,1,,,,,0,,,45,36
82317,note_on,,,,,11,0,1,,,,,0,,,76,0
82322,note_on,,,,,0,0,1,,,,,0,,,71,0
82322,note_on,,,,,5,0,1,,,,,0,,,67,0
82330,note_on,,,,,8,0,1,,,,,0,,,45,0
82470,note_on,,,,,140,0,1,,,,,0,,,76,70
82473,control_change,,,,,3,0,1,,,,,0,64,104,,
82475,note_on,,,,,0,0,1,,,,,0,,,67,33
82475,note_on,,,,,2,0,1,,,,,0,,,71,47
82477,control_change,,,,,2,0,1,,,,,0,64,24,,
82482,note_on,,,,,5,0,1,,,,,0,,,55,45
82482,control_change,,,,,0,0,1,,,,,0,64,0,,
82482,note_on,,,,,0,0,1,,,,,0,,,64,37
82483,note_on,,,,,1,0,1,,,,,0,,,59,17
82508,note_on,,,,,0,0,1,,,,,0,,,71,0
82508,note_on,,,,,25,0,1,,,,,0,,,59,0
82510,control_change,,,,,2,0,1,,,,,0,64,72,,
82512,note_on,,,,,2,0,1,,,,,0,,,76,0
82514,note_on,,,,,2,0,1,,,,,0,,,64,0
82514,control_change,,,,,0,0,1,,,,,0,64,127,,
82520,note_on,,,,,6,0,1,,,,,0,,,67,0
82520,note_on,,,,,0,0,1,,,,,0,,,55,0
82597,note_on,,,,,77,0,1,,,,,0,,,74,66
82599,note_on,,,,,2,0,1,,,,,0,,,62,40
82605,note_on,,,,,6,0,1,,,,,0,,,57,30
82605,note_on,,,,,0,0,1,,,,,0,,,66,30
82606,note_on,,,,,1,0,1,,,,,0,,,54,37
82607,note_on,,,,,1,0,1,,,,,0,,,69,29
82611,note_on,,,,,4,0,1,,,,,0,,,62,0
82617,note_on,,,,,6,0,1,,,,,0,,,57,0
82618,note_on,,,,,1,0,1,,,,,0,,,74,0
82620,note_on,,,,,2,0,1,,,,,0,,,69,0
82622,note_on,,,,,2,0,1,,,,,0,,,54,0
82628,note_on,,,,,6,0,1,,,,,0,,,66,0
82644,control_change,,,,,16,0,1,,,,,0,64,104,,
82646,note_on,,,,,2,0,1,,,,,0,,,73,71
82648,control_change,,,,,2,0,1,,,,,0,64,40,,
82652,control_change,,,,,4,0,1,,,,,0,64,0,,
82653,note_on,,,,,0,0,1,,,,,0,,,64,45
82653,note_on,,,,,1,0,1,,,,,0,,,67,47
82657,note_on,,,,,4,0,1,,,,,0,,,61,34
82659,note_on,,,,,2,0,1,,,,,0,,,52,47
82663,note_on,,,,,4,0,1,,,,,0,,,55,30
82680,note_on,,,,,17,0,1,,,,,0,,,64,0
82684,control_change,,,,,4,0,1,,,,,0,64,72,,
82688,control_change,,,,,4,0,1,,,,,0,64,127,,
82692,note_on,,,,,4,0,1,,,,,0,,,67,0
82694,note_on,,,,,2,0,1,,,,,0,,,73,0
82701,note_on,,,,,7,0,1,,,,,0,,,61,0
82703,note_on,,,,,2,0,1,,,,,0,,,55,0
82717,note_on,,,,,14,0,1,,,,,0,,,52,0
82750,note_on,,,,,33,0,1,,,,,0,,,74,82
82756,note_on,,,,,6,0,1,,,,,0,,,69,43
82757,note_on,,,,,1,0,1,,,,,0,,,66,39
82760,note_on,,,,,3,0,1,,,,,0,,,62,42
82761,note_on,,,,,1,0,1,,,,,0,,,54,42
82766,note_on,,,,,5,0,1,,,,,0,,,57,35
82773,control_change,,,,,7,0,1,,,,,0,64,40,,
82777,control_change,,,,,4,0,1,,,,,0,64,0,,
82786,note_on,,,,,9,0,1,,,,,0,,,62,0
82787,note_on,,,,,1,0,1,,,,,0,,,57,0
82789,note_on,,,,,2,0,1,,,,,0,,,54,0
82796,note_on,,,,,7,0,1,,,,,0,,,66,0
82797,note_on,,,,,1,0,1,,,,,0,,,69,0
82800,control_change,,,,,3,0,1,,,,,0,64,104,,
82804,control_change,,,,,4,0,1,,,,,0,64,127,,
82808,note_on,,,,,4,0,1,,,,,0,,,74,0
82896,note_on,,,,,88,0,1,,,,,0,,,78,77
82900,note_on,,,,,4,0,1,,,,,0,,,73,54
82900,note_on,,,,,0,0,1,,,,,0,,,66,43
82904,note_on,,,,,4,0,1,,,,,0,,,54,40
82905,note_on,,,,,1,0,1,,,,,0,,,46,37
82907,note_on,,,,,2,0,1,,,,,0,,,61,34
82942,control_change,,,,,35,0,1,,,,,0,64,88,,
82946,control_change,,,,,4,0,1,,,,,0,64,24,,
82949,control_change,,,,,3,0,1,,,,,0,64,0,,
82998,control_change,,,,,49,0,1,,,,,0,64,40,,
83002,control_change,,,,,4,0,1,,,,,0,64,127,,
83043,note_on,,,,,41,0,1,,,,,0,,,46,0
83045,note_on,,,,,2,0,1,,,,,0,,,61,0
83048,note_on,,,,,3,0,1,,,,,0,,,54,0
83238,note_on,,,,,190,0,1,,,,,0,,,66,0
83241,note_on,,,,,3,0,1,,,,,0,,,73,0
83304,note_on,,,,,0,0,1,,,,,0,,,46,32
83304,note_on,,,,,63,0,1,,,,,0,,,73,46
83306,note_on,,,,,2,0,1,,,,,0,,,54,37
83307,note_on,,,,,1,0,1,,,,,0,,,61,25
83308,note_on,,,,,1,0,1,,,,,0,,,66,26
83317,control_change,,,,,9,0,1,,,,,0,64,72,,
83321,control_change,,,,,4,0,1,,,,,0,64,40,,
83333,control_change,,,,,12,0,1,,,,,0,64,127,,
83343,note_on,,,,,10,0,1,,,,,0,,,54,0
83344,note_on,,,,,1,0,1,,,,,0,,,61,0
83345,note_on,,,,,1,0,1,,,,,0,,,46,0
83356,note_on,,,,,11,0,1,,,,,0,,,73,0
83362,note_on,,,,,6,0,1,,,,,0,,,66,0
83398,note_on,,,,,36,0,1,,,,,0,,,73,55
83400,note_on,,,,,2,0,1,,,,,0,,,66,31
83401,note_on,,,,,1,0,1,,,,,0,,,46,39
83402,note_on,,,,,1,0,1,,,,,0,,,61,29
83405,note_on,,,,,3,0,1,,,,,0,,,54,28
83422,note_on,,,,,17,0,1,,,,,0,,,61,0
83426,note_on,,,,,4,0,1,,,,,0,,,46,0
83428,note_on,,,,,2,0,1,,,,,0,,,66,0
83428,note_on,,,,,0,0,1,,,,,0,,,78,0
83434,note_on,,,,,0,0,1,,,,,0,,,54,0
83434,note_on,,,,,6,0,1,,,,,0,,,73,0
83474,control_change,,,,,40,0,1,,,,,0,64,88,,
83474,note_on,,,,,0,0,1,,,,,0,,,47,36
83477,note_on,,,,,3,0,1,,,,,0,,,54,46
83478,control_change,,,,,1,0,1,,,,,0,64,24,,
83482,control_change,,,,,4,0,1,,,,,0,64,0,,
83483,note_on,,,,,0,0,1,,,,,0,,,78,70
83483,note_on,,,,,1,0,1,,,,,0,,,47,0
83486,control_change,,,,,3,0,1,,,,,0,64,24,,
83488,note_on,,,,,2,0,1,,,,,0,,,66,39
83490,note_on,,,,,2,0,1,,,,,0,,,74,54
83490,control_change,,,,,0,0,1,,,,,0,64,88,,
83494,control_change,,,,,4,0,1,,,,,0,64,127,,
83500,note_on,,,,,6,0,1,,,,,0,,,62,38
83512,note_on,,,,,12,0,1,,,,,0,,,62,0
83513,note_on,,,,,1,0,1,,,,,0,,,54,0
83515,note_on,,,,,2,0,1,,,,,0,,,74,0
83517,note_on,,,,,2,0,1,,,,,0,,,66,0
83535,note_on,,,,,18,0,1,,,,,0,,,78,0
83544,note_on,,,,,9,0,1,,,,,0,,,47,48
83552,note_on,,,,,8,0,1,,,,,0,,,47,0
83559,note_on,,,,,7,0,1,,,,,0,,,54,23
83562,note_on,,,,,3,0,1,,,,,0,,,78,62
83567,note_on,,,,,5,0,1,,,,,0,,,66,39
83569,note_on,,,,,2,0,1,,,,,0,,,74,60
83573,note_on,,,,,4,0,1,,,,,0,,,62,34
83589,note_on,,,,,16,0,1,,,,,0,,,54,0
83591,note_on,,,,,2,0,1,,,,,0,,,62,0
83596,note_on,,,,,5,0,1,,,,,0,,,74,0
83604,note_on,,,,,8,0,1,,,,,0,,,66,0
83645,note_on,,,,,41,0,1,,,,,0,,,70,65
83646,note_on,,,,,1,0,1,,,,,0,,,66,40
83652,note_on,,,,,6,0,1,,,,,0,,,49,45
83653,note_on,,,,,1,0,1,,,,,0,,,58,33
83654,note_on,,,,,1,0,1,,,,,0,,,54,37
83660,control_change,,,,,6,0,1,,,,,0,64,40,,
83664,control_change,,,,,4,0,1,,,,,0,64,0,,
83676,control_change,,,,,12,0,1,,,,,0,64,40,,
83679,control_change,,,,,3,0,1,,,,,0,64,104,,
83681,note_on,,,,,2,0,1,,,,,0,,,58,0
83681,note_on,,,,,0,0,1,,,,,0,,,49,0
83684,control_change,,,,,3,0,1,,,,,0,64,127,,
83685,note_on,,,,,1,0,1,,,,,0,,,70,0
83688,note_on,,,,,3,0,1,,,,,0,,,54,0
83692,note_on,,,,,4,0,1,,,,,0,,,66,0
83722,note_on,,,,,30,0,1,,,,,0,,,70,67
83724,note_on,,,,,2,0,1,,,,,0,,,49,43
83726,note_on,,,,,2,0,1,,,,,0,,,58,42
83726,note_on,,,,,0,0,1,,,,,0,,,66,35
83728,note_on,,,,,2,0,1,,,,,0,,,54,43
83741,note_on,,,,,13,0,1,,,,,0,,,78,0
83751,note_on,,,,,10,0,1,,,,,0,,,66,0
83754,note_on,,,,,3,0,1,,,,,0,,,54,0
83756,note_on,,,,,2,0,1,,,,,0,,,49,0
83756,note_on,,,,,0,0,1,,,,,0,,,70,0
83758,note_on,,,,,2,0,1,,,,,0,,,58,0
83801,note_on,,,,,43,0,1,,,,,0,,,78,79
83805,note_on,,,,,4,0,1,,,,,0,,,66,46
83807,note_on,,,,,0,0,1,,,,,0,,,59,46
83807,note_on,,,,,2,0,1,,,,,0,,,71,62
83809,note_on,,,,,2,0,1,,,,,0,,,50,50
83810,note_on,,,,,1,0,1,,,,,0,,,54,43
83813,control_change,,,,,3,0,1,,,,,0,64,40,,
83817,control_change,,,,,4,0,1,,,,,0,64,0,,
83834,control_change,,,,,0,0,1,,,,,0,64,88,,
83834,note_on,,,,,17,0,1,,,,,0,,,71,0
83836,note_on,,,,,2,0,1,,,,,0,,,54,0
83838,note_on,,,,,2,0,1,,,,,0,,,59,0
83838,control_change,,,,,0,0,1,,,,,0,64,127,,
83840,note_on,,,,,0,0,1,,,,,0,,,66,0
83840,note_on,,,,,2,0,1,,,,,0,,,50,0
83842,note_on,,,,,2,0,1,,,,,0,,,78,0
83880,note_on,,,,,0,0,1,,,,,0,,,66,61
83880,note_on,,,,,38,0,1,,,,,0,,,78,84
83885,note_on,,,,,5,0,1,,,,,0,,,71,62
83886,note_on,,,,,1,0,1,,,,,0,,,59,49
83887,note_on,,,,,1,0,1,,,,,0,,,50,54
83887,note_on,,,,,0,0,1,,,,,0,,,54,46
83892,note_on,,,,,5,0,1,,,,,0,,,71,0
83896,note_on,,,,,4,0,1,,,,,0,,,66,0
83898,note_on,,,,,2,0,1,,,,,0,,,50,0
83904,note_on,,,,,6,0,1,,,,,0,,,78,0
83904,note_on,,,,,0,0,1,,,,,0,,,59,0
83905,note_on,,,,,1,0,1,,,,,0,,,54,0
83969,note_on,,,,,64,0,1,,,,,0,,,83,82
83972,note_on,,,,,3,0,1,,,,,0,,,78,62
83972,note_on,,,,,0,0,1,,,,,0,,,71,64
83979,control_change,,,,,7,0,1,,,,,0,64,56,,
83980,note_on,,,,,1,0,1,,,,,0,,,59,53
83980,note_on,,,,,0,0,1,,,,,0,,,51,60
83983,control_change,,,,,3,0,1,,,,,0,64,0,,
84003,note_on,,,,,20,0,1,,,,,0,,,51,0
84003,control_change,,,,,0,0,1,,,,,0,64,40,,
84007,control_change,,,,,4,0,1,,,,,0,64,127,,
84008,note_on,,,,,1,0,1,,,,,0,,,71,0
84010,note_on,,,,,2,0,1,,,,,0,,,78,0
84012,note_on,,,,,2,0,1,,,,,0,,,59,0
84025,note_on,,,,,13,0,1,,,,,0,,,83,0
84056,note_on,,,,,31,0,1,,,,,0,,,83,87
84058,note_on,,,,,2,0,1,,,,,0,,,78,71
84060,note_on,,,,,0,0,1,,,,,0,,,66,46
84060,note_on,,,,,2,0,1,,,,,0,,,71,57
84063,note_on,,,,,3,0,1,,,,,0,,,59,50
84064,note_on,,,,,1,0,1,,,,,0,,,51,40
84081,note_on,,,,,17,0,1,,,,,0,,,51,0
84086,note_on,,,,,5,0,1,,,,,0,,,71,0
84089,note_on,,,,,3,0,1,,,,,0,,,59,0
84097,note_on,,,,,8,0,1,,,,,0,,,78,0
84099,note_on,,,,,2,0,1,,,,,0,,,66,0
84119,note_on,,,,,20,0,1,,,,,0,,,52,54
84128,control_change,,,,,9,0,1,,,,,0,64,72,,
84129,note_on,,,,,1,0,1,,,,,0,,,59,36
84132,control_change,,,,,0,0,1,,,,,0,64,24,,
84132,note_on,,,,,3,0,1,,,,,0,,,52,0
84136,control_change,,,,,0,0,1,,,,,0,64,0,,
84136,note_on,,,,,4,0,1,,,,,0,,,79,74
84139,note_on,,,,,3,0,1,,,,,0,,,71,55
84140,control_change,,,,,1,0,1,,,,,0,64,24,,
84144,control_change,,,,,4,0,1,,,,,0,64,88,,
84148,note_on,,,,,4,0,1,,,,,0,,,67,53
84148,control_change,,,,,0,0,1,,,,,0,64,127,,
84158,note_on,,,,,10,0,1,,,,,0,,,59,0
84160,note_on,,,,,2,0,1,,,,,0,,,67,0
84176,note_on,,,,,16,0,1,,,,,0,,,71,0
84176,note_on,,,,,0,0,1,,,,,0,,,79,0
84188,note_on,,,,,12,0,1,,,,,0,,,52,61
84200,note_on,,,,,12,0,1,,,,,0,,,59,25
84203,note_on,,,,,3,0,1,,,,,0,,,52,0
84210,note_on,,,,,7,0,1,,,,,0,,,79,81
84215,note_on,,,,,5,0,1,,,,,0,,,83,0
84216,note_on,,,,,1,0,1,,,,,0,,,71,56
84218,note_on,,,,,2,0,1,,,,,0,,,67,43
84219,note_on,,,,,1,0,1,,,,,0,,,59,0
84229,note_on,,,,,10,0,1,,,,,0,,,67,0
84233,note_on,,,,,4,0,1,,,,,0,,,71,0
84242,note_on,,,,,9,0,1,,,,,0,,,79,0
84285,control_change,,,,,0,0,1,,,,,0,64,88,,
84285,note_on,,,,,43,0,1,,,,,0,,,83,90
84287,note_on,,,,,2,0,1,,,,,0,,,75,67
84288,note_on,,,,,1,0,1,,,,,0,,,71,59
84290,control_change,,,,,2,0,1,,,,,0,64,0,,
84292,note_on,,,,,0,0,1,,,,,0,,,63,40
84292,note_on,,,,,2,0,1,,,,,0,,,54,53
84294,note_on,,,,,2,0,1,,,,,0,,,59,53
84310,control_change,,,,,16,0,1,,,,,0,64,56,,
84312,note_on,,,,,2,0,1,,,,,0,,,54,0
84314,control_change,,,,,2,0,1,,,,,0,64,127,,
84315,note_on,,,,,1,0,1,,,,,0,,,71,0
84317,note_on,,,,,2,0,1,,,,,0,,,59,0
84323,note_on,,,,,6,0,1,,,,,0,,,75,0
84323,note_on,,,,,0,0,1,,,,,0,,,63,0
84335,note_on,,,,,12,0,1,,,,,0,,,83,0
84364,note_on,,,,,29,0,1,,,,,0,,,83,86
84366,note_on,,,,,0,0,1,,,,,0,,,54,51
84366,note_on,,,,,2,0,1,,,,,0,,,75,69
84367,note_on,,,,,1,0,1,,,,,0,,,63,47
84369,note_on,,,,,2,0,1,,,,,0,,,71,60
84372,note_on,,,,,3,0,1,,,,,0,,,59,45
84388,note_on,,,,,16,0,1,,,,,0,,,54,0
84395,note_on,,,,,7,0,1,,,,,0,,,75,0
84406,note_on,,,,,11,0,1,,,,,0,,,59,0
84412,note_on,,,,,6,0,1,,,,,0,,,63,0
84420,note_on,,,,,8,0,1,,,,,0,,,71,0
84442,note_on,,,,,22,0,1,,,,,0,,,76,79
84445,note_on,,,,,3,0,1,,,,,0,,,59,37
84451,note_on,,,,,6,0,1,,,,,0,,,71,26
84452,note_on,,,,,1,0,1,,,,,0,,,64,45
84453,note_on,,,,,1,0,1,,,,,0,,,55,49
84455,control_change,,,,,2,0,1,,,,,0,64,56,,
84459,control_change,,,,,4,0,1,,,,,0,64,0,,
84474,control_change,,,,,15,0,1,,,,,0,64,72,,
84479,control_change,,,,,5,0,1,,,,,0,64,127,,
84486,note_on,,,,,7,0,1,,,,,0,,,59,0
84488,note_on,,,,,2,0,1,,,,,0,,,64,0
84489,note_on,,,,,1,0,1,,,,,0,,,76,0
84490,note_on,,,,,0,0,1,,,,,0,,,71,0
84490,note_on,,,,,1,0,1,,,,,0,,,55,0
84519,note_on,,,,,29,0,1,,,,,0,,,76,87
84523,note_on,,,,,4,0,1,,,,,0,,,71,55
84527,note_on,,,,,4,0,1,,,,,0,,,64,57
84532,note_on,,,,,0,0,1,,,,,0,,,59,41
84532,note_on,,,,,5,0,1,,,,,0,,,71,0
84533,note_on,,,,,1,0,1,,,,,0,,,83,0
84533,note_on,,,,,0,0,1,,,,,0,,,55,39
84557,note_on,,,,,24,0,1,,,,,0,,,55,0
84559,note_on,,,,,2,0,1,,,,,0,,,59,0
84571,note_on,,,,,12,0,1,,,,,0,,,64,0
84585,note_on,,,,,14,0,1,,,,,0,,,76,0
84608,note_on,,,,,23,0,1,,,,,0,,,83,89
84614,note_on,,,,,0,0,1,,,,,0,,,74,64
84614,note_on,,,,,6,0,1,,,,,0,,,76,64
84615,control_change,,,,,1,0,1,,,,,0,64,40,,
84618,note_on,,,,,3,0,1,,,,,0,,,64,37
84618,note_on,,,,,0,0,1,,,,,0,,,62,46
84619,note_on,,,,,1,0,1,,,,,0,,,55,41
84620,note_on,,,,,1,0,1,,,,,0,,,59,40
84620,control_change,,,,,0,0,1,,,,,0,64,0,,
84629,note_on,,,,,9,0,1,,,,,0,,,76,0
84632,control_change,,,,,3,0,1,,,,,0,64,127,,
84634,note_on,,,,,2,0,1,,,,,0,,,74,0
84650,note_on,,,,,0,0,1,,,,,0,,,59,0
84650,note_on,,,,,16,0,1,,,,,0,,,62,0
84652,note_on,,,,,0,0,1,,,,,0,,,64,0
84652,note_on,,,,,2,0,1,,,,,0,,,55,0
84657,note_on,,,,,5,0,1,,,,,0,,,83,0
84700,note_on,,,,,43,0,1,,,,,0,,,83,92
84706,note_on,,,,,6,0,1,,,,,0,,,76,60
84706,note_on,,,,,0,0,1,,,,,0,,,55,43
84706,note_on,,,,,0,0,1,,,,,0,,,74,58
84707,note_on,,,,,1,0,1,,,,,0,,,64,46
84709,note_on,,,,,2,0,1,,,,,0,,,59,37
84710,note_on,,,,,1,0,1,,,,,0,,,62,44
84714,note_on,,,,,4,0,1,,,,,0,,,74,0
84718,note_on,,,,,4,0,1,,,,,0,,,76,0
84728,note_on,,,,,10,0,1,,,,,0,,,55,0
84732,note_on,,,,,4,0,1,,,,,0,,,83,0
84742,note_on,,,,,10,0,1,,,,,0,,,62,0
84742,note_on,,,,,0,0,1,,,,,0,,,59,0
84743,note_on,,,,,1,0,1,,,,,0,,,64,0
84795,note_on,,,,,52,0,1,,,,,0,,,85,86
84802,note_on,,,,,7,0,1,,,,,0,,,62,44
84802,note_on,,,,,0,0,1,,,,,0,,,54,50
84803,note_on,,,,,1,0,1,,,,,0,,,74,49
84804,note_on,,,,,0,0,1,,,,,0,,,76,47
84804,note_on,,,,,1,0,1,,,,,0,,,64,51
84805,note_on,,,,,1,0,1,,,,,0,,,81,34
84809,note_on,,,,,4,0,1,,,,,0,,,57,40
84814,control_change,,,,,5,0,1,,,,,0,64,56,,
84818,note_on,,,,,4,0,1,,,,,0,,,76,0
84818,control_change,,,,,0,0,1,,,,,0,64,0,,
84818,note_on,,,,,0,0,1,,,,,0,,,74,0
84820,note_on,,,,,2,0,1,,,,,0,,,81,0
84830,control_change,,,,,10,0,1,,,,,0,64,40,,
84834,control_change,,,,,4,0,1,,,,,0,64,127,,
84842,note_on,,,,,8,0,1,,,,,0,,,57,0
84844,note_on,,,,,2,0,1,,,,,0,,,62,0
84845,note_on,,,,,1,0,1,,,,,0,,,54,0
84846,note_on,,,,,1,0,1,,,,,0,,,85,0
84846,note_on,,,,,0,0,1,,,,,0,,,64,0
84888,note_on,,,,,42,0,1,,,,,0,,,85,84
84893,note_on,,,,,5,0,1,,,,,0,,,64,50
84895,note_on,,,,,2,0,1,,,,,0,,,54,35
84896,note_on,,,,,1,0,1,,,,,0,,,62,45
84896,note_on,,,,,0,0,1,,,,,0,,,74,41
84896,note_on,,,,,0,0,1,,,,,0,,,76,42
84898,note_on,,,,,2,0,1,,,,,0,,,57,39
84907,note_on,,,,,9,0,1,,,,,0,,,76,0
84907,note_on,,,,,0,0,1,,,,,0,,,62,0
84907,note_on,,,,,0,0,1,,,,,0,,,74,0
84915,note_on,,,,,8,0,1,,,,,0,,,57,0
84920,note_on,,,,,5,0,1,,,,,0,,,64,0
84922,note_on,,,,,2,0,1,,,,,0,,,54,0
84938,note_on,,,,,16,0,1,,,,,0,,,85,0
84996,note_on,,,,,58,0,1,,,,,0,,,86,80
85000,note_on,,,,,4,0,1,,,,,0,,,52,46
85002,note_on,,,,,2,0,1,,,,,0,,,83,56
85002,note_on,,,,,0,0,1,,,,,0,,,76,45
85003,note_on,,,,,1,0,1,,,,,0,,,74,44
85004,note_on,,,,,1,0,1,,,,,0,,,79,49
85008,note_on,,,,,0,0,1,,,,,0,,,55,36
85008,note_on,,,,,4,0,1,,,,,0,,,59,37
85008,note_on,,,,,0,0,1,,,,,0,,,64,30
85010,note_on,,,,,2,0,1,,,,,0,,,62,25
85016,control_change,,,,,6,0,1,,,,,0,64,88,,
85020,control_change,,,,,4,0,1,,,,,0,64,0,,
85052,control_change,,,,,32,0,1,,,,,0,64,127,,
85053,note_on,,,,,1,0,1,,,,,0,,,52,0
85054,note_on,,,,,0,0,1,,,,,0,,,79,0
85054,note_on,,,,,1,0,1,,,,,0,,,59,0
85055,note_on,,,,,1,0,1,,,,,0,,,55,0
85056,note_on,,,,,1,0,1,,,,,0,,,62,0
85058,note_on,,,,,2,0,1,,,,,0,,,64,0
85058,note_on,,,,,0,0,1,,,,,0,,,74,0
85060,note_on,,,,,2,0,1,,,,,0,,,76,0
85060,note_on,,,,,0,0,1,,,,,0,,,86,0
85060,note_on,,,,,0,0,1,,,,,0,,,83,0
85145,note_on,,,,,85,0,1,,,,,0,,,86,70
85151,note_on,,,,,6,0,1,,,,,0,,,76,40
85151,note_on,,,,,0,0,1,,,,,0,,,74,39
85153,note_on,,,,,0,0,1,,,,,0,,,79,47
85153,note_on,,,,,2,0,1,,,,,0,,,83,53
85153,note_on,,,,,0,0,1,,,,,0,,,52,31
85154,note_on,,,,,1,0,1,,,,,0,,,64,28
85155,note_on,,,,,0,0,1,,,,,0,,,59,40
85155,note_on,,,,,1,0,1,,,,,0,,,62,25
85160,note_on,,,,,5,0,1,,,,,0,,,55,30
85185,control_change,,,,,25,0,1,,,,,0,64,72,,
85189,control_change,,,,,4,0,1,,,,,0,64,0,,
85209,control_change,,,,,20,0,1,,,,,0,64,56,,
85213,control_change,,,,,4,0,1,,,,,0,64,127,,
85259,note_on,,,,,0,0,1,,,,,0,,,64,0
85259,note_on,,,,,46,0,1,,,,,0,,,62,0
85262,note_on,,,,,3,0,1,,,,,0,,,59,0
85262,note_on,,,,,0,0,1,,,,,0,,,52,0
85262,note_on,,,,,0,0,1,,,,,0,,,55,0
85284,note_on,,,,,22,0,1,,,,,0,,,74,0
85285,note_on,,,,,1,0,1,,,,,0,,,76,0
85296,note_on,,,,,11,0,1,,,,,0,,,86,0
85298,note_on,,,,,2,0,1,,,,,0,,,79,0
85298,note_on,,,,,0,0,1,,,,,0,,,83,0
85515,note_on,,,,,217,0,1,,,,,0,,,74,69
85630,note_on,,,,,115,0,1,,,,,0,,,74,0
85645,note_on,,,,,15,0,1,,,,,0,,,71,61
85693,note_on,,,,,0,0,1,,,,,0,,,67,63
85693,note_on,,,,,48,0,1,,,,,0,,,71,0
85779,note_on,,,,,86,0,1,,,,,0,,,67,0
86018,note_on,,,,,239,0,1,,,,,0,,,71,69
86120,note_on,,,,,102,0,1,,,,,0,,,71,0
86153,note_on,,,,,33,0,1,,,,,0,,,67,53
86192,note_on,,,,,39,0,1,,,,,0,,,67,0
86208,note_on,,,,,16,0,1,,,,,0,,,64,55
86288,note_on,,,,,80,0,1,,,,,0,,,64,0
86455,control_change,,,,,167,0,1,,,,,0,67,127,,
86561,note_on,,,,,106,0,1,,,,,0,,,86,58
86563,note_on,,,,,2,0,1,,,,,0,,,55,44
86566,note_on,,,,,3,0,1,,,,,0,,,83,52
86567,note_on,,,,,1,0,1,,,,,0,,,76,42
86582,note_on,,,,,15,0,1,,,,,0,,,83,0
86586,note_on,,,,,0,0,1,,,,,0,,,55,0
86586,note_on,,,,,4,0,1,,,,,0,,,76,0
86595,note_on,,,,,9,0,1,,,,,0,,,86,0
86698,note_on,,,,,0,0,1,,,,,0,,,76,41
86698,note_on,,,,,103,0,1,,,,,0,,,83,48
86700,note_on,,,,,2,0,1,,,,,0,,,59,26
86702,note_on,,,,,2,0,1,,,,,0,,,79,28
86713,note_on,,,,,11,0,1,,,,,0,,,79,0
86714,note_on,,,,,1,0,1,,,,,0,,,76,0
86715,note_on,,,,,1,0,1,,,,,0,,,83,0
86720,note_on,,,,,5,0,1,,,,,0,,,59,0
86756,note_on,,,,,36,0,1,,,,,0,,,79,60
86760,note_on,,,,,4,0,1,,,,,0,,,76,48
86763,note_on,,,,,3,0,1,,,,,0,,,64,40
86791,note_on,,,,,28,0,1,,,,,0,,,64,0
86799,note_on,,,,,8,0,1,,,,,0,,,76,0
86802,note_on,,,,,3,0,1,,,,,0,,,79,0
87123,note_on,,,,,321,0,1,,,,,0,,,83,56
87130,note_on,,,,,0,0,1,,,,,0,,,74,31
87130,note_on,,,,,7,0,1,,,,,0,,,67,40
87131,note_on,,,,,1,0,1,,,,,0,,,76,39
87150,note_on,,,,,19,0,1,,,,,0,,,67,0
87156,note_on,,,,,6,0,1,,,,,0,,,76,0
87161,note_on,,,,,5,0,1,,,,,0,,,74,0
87162,note_on,,,,,1,0,1,,,,,0,,,83,0
87274,note_on,,,,,112,0,1,,,,,0,,,79,54
87275,note_on,,,,,1,0,1,,,,,0,,,71,40
87277,note_on,,,,,2,0,1,,,,,0,,,74,32
87280,note_on,,,,,3,0,1,,,,,0,,,76,28
87286,note_on,,,,,6,0,1,,,,,0,,,71,0
87290,note_on,,,,,4,0,1,,,,,0,,,76,0
87291,note_on,,,,,1,0,1,,,,,0,,,74,0
87297,note_on,,,,,6,0,1,,,,,0,,,79,0
87352,note_on,,,,,55,0,1,,,,,0,,,76,52
87358,note_on,,,,,6,0,1,,,,,0,,,74,44
87464,note_on,,,,,106,0,1,,,,,0,,,76,0
87465,note_on,,,,,1,0,1,,,,,0,,,74,0
87759,note_on,,,,,294,0,1,,,,,0,,,64,63
87766,note_on,,,,,7,0,1,,,,,0,,,59,32
87766,note_on,,,,,0,0,1,,,,,0,,,55,29
87768,note_on,,,,,2,0,1,,,,,0,,,43,31
87773,note_on,,,,,5,0,1,,,,,0,,,31,24
87790,control_change,,,,,17,0,1,,,,,0,64,88,,
87794,control_change,,,,,4,0,1,,,,,0,64,0,,
87822,control_change,,,,,28,0,1,,,,,0,64,127,,
87826,control_change,,,,,4,0,1,,,,,0,67,0,,
87835,note_on,,,,,9,0,1,,,,,0,,,64,0
87846,note_on,,,,,11,0,1,,,,,0,,,59,0
87884,note_on,,,,,38,0,1,,,,,0,,,55,0
87896,note_on,,,,,12,0,1,,,,,0,,,31,0
87910,note_on,,,,,14,0,1,,,,,0,,,62,61
87912,note_on,,,,,2,0,1,,,,,0,,,54,42
87920,note_on,,,,,8,0,1,,,,,0,,,43,0
87929,note_on,,,,,9,0,1,,,,,0,,,54,0
87941,note_on,,,,,12,0,1,,,,,0,,,62,0
87980,note_on,,,,,39,0,1,,,,,0,,,61,62
87984,note_on,,,,,4,0,1,,,,,0,,,55,50
87988,note_on,,,,,4,0,1,,,,,0,,,52,37
87991,note_on,,,,,3,0,1,,,,,0,,,45,38
87999,control_change,,,,,8,0,1,,,,,0,64,56,,
88002,note_on,,,,,3,0,1,,,,,0,,,33,27
88004,control_change,,,,,2,0,1,,,,,0,64,0,,
88008,control_change,,,,,4,0,1,,,,,0,67,127,,
88029,note_on,,,,,21,0,1,,,,,0,,,55,0
88032,control_change,,,,,0,0,1,,,,,0,67,0,,
88032,control_change,,,,,3,0,1,,,,,0,64,72,,
88036,control_change,,,,,4,0,1,,,,,0,64,127,,
88064,note_on,,,,,28,0,1,,,,,0,,,52,0
88070,note_on,,,,,6,0,1,,,,,0,,,61,0
88086,note_on,,,,,16,0,1,,,,,0,,,62,74
88088,note_on,,,,,2,0,1,,,,,0,,,54,47
88113,note_on,,,,,25,0,1,,,,,0,,,54,0
88121,note_on,,,,,8,0,1,,,,,0,,,62,0
88129,note_on,,,,,8,0,1,,,,,0,,,33,0
88140,note_on,,,,,11,0,1,,,,,0,,,45,0
88217,note_on,,,,,77,0,1,,,,,0,,,66,69
88223,note_on,,,,,6,0,1,,,,,0,,,61,44
88225,note_on,,,,,2,0,1,,,,,0,,,45,39
88226,note_on,,,,,1,0,1,,,,,0,,,57,43
88226,note_on,,,,,0,0,1,,,,,0,,,33,33
88246,control_change,,,,,20,0,1,,,,,0,64,104,,
88250,control_change,,,,,4,0,1,,,,,0,64,56,,
88254,control_change,,,,,4,0,1,,,,,0,64,0,,
88298,control_change,,,,,44,0,1,,,,,0,64,88,,
88302,control_change,,,,,4,0,1,,,,,0,64,127,,
88360,note_on,,,,,58,0,1,,,,,0,,,45,0
88362,note_on,,,,,2,0,1,,,,,0,,,33,0
88364,note_on,,,,,2,0,1,,,,,0,,,57,0
88367,note_on,,,,,3,0,1,,,,,0,,,66,0
88373,note_on,,,,,6,0,1,,,,,0,,,61,0
88467,note_on,,,,,94,0,1,,,,,0,,,66,50
88471,note_on,,,,,4,0,1,,,,,0,,,61,37
88473,note_on,,,,,2,0,1,,,,,0,,,55,41
88480,note_on,,,,,7,0,1,,,,,0,,,45,34
88483,note_on,,,,,3,0,1,,,,,0,,,33,24
88524,control_change,,,,,41,0,1,,,,,0,64,88,,
88528,control_change,,,,,4,0,1,,,,,0,64,24,,
88531,control_change,,,,,3,0,1,,,,,0,64,0,,
88560,control_change,,,,,29,0,1,,,,,0,64,40,,
88564,control_change,,,,,4,0,1,,,,,0,64,127,,
88624,note_on,,,,,60,0,1,,,,,0,,,61,0
88651,note_on,,,,,27,0,1,,,,,0,,,33,0
88669,note_on,,,,,18,0,1,,,,,0,,,66,0
88682,note_on,,,,,13,0,1,,,,,0,,,45,0
88700,note_on,,,,,18,0,1,,,,,0,,,55,0
88713,note_on,,,,,13,0,1,,,,,0,,,64,45
88752,note_on,,,,,39,0,1,,,,,0,,,64,0
88818,note_on,,,,,66,0,1,,,,,0,,,62,49
88822,note_on,,,,,4,0,1,,,,,0,,,45,32
88824,note_on,,,,,2,0,1,,,,,0,,,54,26
88828,note_on,,,,,4,0,1,,,,,0,,,38,34
88850,control_change,,,,,22,0,1,,,,,0,64,72,,
88854,control_change,,,,,4,0,1,,,,,0,64,0,,
88911,control_change,,,,,57,0,1,,,,,0,64,40,,
88915,control_change,,,,,4,0,1,,,,,0,64,72,,
88919,control_change,,,,,4,0,1,,,,,0,64,104,,
88923,control_change,,,,,4,0,1,,,,,0,64,127,,
88956,note_on,,,,,33,0,1,,,,,0,,,38,0
88963,note_on,,,,,7,0,1,,,,,0,,,45,0
89136,note_on,,,,,173,0,1,,,,,0,,,54,0
89237,control_change,,,,,101,0,1,,,,,0,64,104,,
89242,control_change,,,,,5,0,1,,,,,0,64,72,,
89246,control_change,,,,,4,0,1,,,,,0,64,40,,
89250,control_change,,,,,4,0,1,,,,,0,64,0,,
89310,control_change,,,,,60,0,1,,,,,0,64,24,,
89314,control_change,,,,,4,0,1,,,,,0,64,56,,
89318,control_change,,,,,4,0,1,,,,,0,64,88,,
89322,control_change,,,,,4,0,1,,,,,0,64,104,,
89326,control_change,,,,,4,0,1,,,,,0,64,127,,
89370,note_on,,,,,44,0,1,,,,,0,,,62,0
89473,note_on,,,,,103,0,1,,,,,0,,,62,44
89609,note_on,,,,,136,0,1,,,,,0,,,34,26
89611,note_on,,,,,2,0,1,,,,,0,,,46,24
89624,control_change,,,,,13,0,1,,,,,0,64,104,,
89628,control_change,,,,,4,0,1,,,,,0,64,56,,
89632,control_change,,,,,4,0,1,,,,,0,64,0,,
89657,control_change,,,,,25,0,1,,,,,0,64,72,,
89661,control_change,,,,,4,0,1,,,,,0,64,127,,
89682,note_on,,,,,21,0,1,,,,,0,,,53,27
89725,note_on,,,,,43,0,1,,,,,0,,,62,0
89730,note_on,,,,,5,0,1,,,,,0,,,58,35
89734,note_on,,,,,4,0,1,,,,,0,,,53,0
89773,note_on,,,,,39,0,1,,,,,0,,,58,0
89781,note_on,,,,,8,0,1,,,,,0,,,62,55
89836,note_on,,,,,55,0,1,,,,,0,,,58,26
89866,note_on,,,,,30,0,1,,,,,0,,,58,0
89877,note_on,,,,,11,0,1,,,,,0,,,62,0
89878,note_on,,,,,1,0,1,,,,,0,,,53,31
89913,note_on,,,,,35,0,1,,,,,0,,,53,0
89925,note_on,,,,,12,0,1,,,,,0,,,63,62
89963,control_change,,,,,38,0,1,,,,,0,64,56,,
89967,control_change,,,,,4,0,1,,,,,0,64,0,,
89973,note_on,,,,,6,0,1,,,,,0,,,53,37
89991,control_change,,,,,18,0,1,,,,,0,64,56,,
89996,control_change,,,,,5,0,1,,,,,0,64,127,,
90014,note_on,,,,,18,0,1,,,,,0,,,58,31
90018,note_on,,,,,4,0,1,,,,,0,,,63,0
90024,note_on,,,,,6,0,1,,,,,0,,,53,0
90050,note_on,,,,,26,0,1,,,,,0,,,34,0
90057,note_on,,,,,7,0,1,,,,,0,,,58,0
90060,note_on,,,,,3,0,1,,,,,0,,,46,0
90068,note_on,,,,,8,0,1,,,,,0,,,65,58
90070,note_on,,,,,2,0,1,,,,,0,,,62,44
90108,note_on,,,,,38,0,1,,,,,0,,,62,0
90113,note_on,,,,,5,0,1,,,,,0,,,53,38
90160,note_on,,,,,47,0,1,,,,,0,,,58,46
90163,note_on,,,,,3,0,1,,,,,0,,,53,0
90173,note_on,,,,,10,0,1,,,,,0,,,65,0
90190,note_on,,,,,17,0,1,,,,,0,,,58,0
90221,note_on,,,,,31,0,1,,,,,0,,,67,66
90258,control_change,,,,,37,0,1,,,,,0,64,104,,
90262,control_change,,,,,4,0,1,,,,,0,64,72,,
90266,control_change,,,,,4,0,1,,,,,0,64,0,,
90279,note_on,,,,,13,0,1,,,,,0,,,53,48
90298,control_change,,,,,19,0,1,,,,,0,64,72,,
90302,control_change,,,,,4,0,1,,,,,0,64,127,,
90331,note_on,,,,,29,0,1,,,,,0,,,53,0
90332,note_on,,,,,1,0,1,,,,,0,,,57,36
90370,note_on,,,,,38,0,1,,,,,0,,,57,0
90374,note_on,,,,,4,0,1,,,,,0,,,63,37
90386,control_change,,,,,12,0,1,,,,,0,64,104,,
90391,control_change,,,,,5,0,1,,,,,0,64,56,,
90395,control_change,,,,,4,0,1,,,,,0,64,0,,
90403,control_change,,,,,8,0,1,,,,,0,64,40,,
90407,control_change,,,,,4,0,1,,,,,0,64,72,,
90411,control_change,,,,,4,0,1,,,,,0,64,127,,
90422,note_on,,,,,11,0,1,,,,,0,,,57,41
90453,note_on,,,,,31,0,1,,,,,0,,,57,0
90463,note_on,,,,,10,0,1,,,,,0,,,63,0
90466,note_on,,,,,3,0,1,,,,,0,,,53,42
90492,note_on,,,,,26,0,1,,,,,0,,,53,0
90508,note_on,,,,,16,0,1,,,,,0,,,67,0
90514,note_on,,,,,6,0,1,,,,,0,,,65,48
90552,control_change,,,,,38,0,1,,,,,0,64,56,,
90556,control_change,,,,,4,0,1,,,,,0,64,0,,
90574,note_on,,,,,18,0,1,,,,,0,,,53,33
90588,control_change,,,,,14,0,1,,,,,0,64,72,,
90592,control_change,,,,,4,0,1,,,,,0,64,127,,
90612,note_on,,,,,20,0,1,,,,,0,,,53,0
90615,note_on,,,,,3,0,1,,,,,0,,,57,32
90616,note_on,,,,,1,0,1,,,,,0,,,65,0
90655,note_on,,,,,39,0,1,,,,,0,,,57,0
90662,note_on,,,,,7,0,1,,,,,0,,,63,30
90711,note_on,,,,,49,0,1,,,,,0,,,57,34
90742,note_on,,,,,31,0,1,,,,,0,,,63,0
90744,note_on,,,,,2,0,1,,,,,0,,,57,0
90758,note_on,,,,,14,0,1,,,,,0,,,53,34
90791,note_on,,,,,33,0,1,,,,,0,,,53,0
90792,note_on,,,,,1,0,1,,,,,0,,,34,27
90831,note_on,,,,,39,0,1,,,,,0,,,46,35
90838,control_change,,,,,7,0,1,,,,,0,64,104,,
90842,control_change,,,,,4,0,1,,,,,0,64,56,,
90846,control_change,,,,,4,0,1,,,,,0,64,0,,
90882,control_change,,,,,36,0,1,,,,,0,64,56,,
90884,note_on,,,,,2,0,1,,,,,0,,,53,44
90887,control_change,,,,,3,0,1,,,,,0,64,127,,
90927,note_on,,,,,40,0,1,,,,,0,,,53,0
90931,note_on,,,,,4,0,1,,,,,0,,,57,31
90969,note_on,,,,,38,0,1,,,,,0,,,57,0
90973,note_on,,,,,4,0,1,,,,,0,,,63,61
91022,note_on,,,,,49,0,1,,,,,0,,,57,43
91060,note_on,,,,,38,0,1,,,,,0,,,57,0
91066,note_on,,,,,0,0,1,,,,,0,,,53,49
91066,note_on,,,,,6,0,1,,,,,0,,,63,0
91101,note_on,,,,,35,0,1,,,,,0,,,53,0
91116,note_on,,,,,15,0,1,,,,,0,,,65,71
91166,note_on,,,,,50,0,1,,,,,0,,,53,35
91203,note_on,,,,,37,0,1,,,,,0,,,53,0
91209,note_on,,,,,6,0,1,,,,,0,,,57,55
91211,note_on,,,,,2,0,1,,,,,0,,,65,0
91248,note_on,,,,,37,0,1,,,,,0,,,57,0
91258,note_on,,,,,10,0,1,,,,,0,,,67,74
91260,note_on,,,,,2,0,1,,,,,0,,,63,30
91275,note_on,,,,,15,0,1,,,,,0,,,34,0
91289,note_on,,,,,14,0,1,,,,,0,,,46,0
91303,note_on,,,,,14,0,1,,,,,0,,,57,43
91311,note_on,,,,,8,0,1,,,,,0,,,67,0
91314,note_on,,,,,3,0,1,,,,,0,,,63,0
91338,note_on,,,,,24,0,1,,,,,0,,,57,0
91349,note_on,,,,,11,0,1,,,,,0,,,53,53
91376,note_on,,,,,27,0,1,,,,,0,,,53,0
91425,note_on,,,,,49,0,1,,,,,0,,,69,76
91455,control_change,,,,,30,0,1,,,,,0,64,88,,
91459,control_change,,,,,4,0,1,,,,,0,64,24,,
91463,control_change,,,,,4,0,1,,,,,0,64,0,,
91481,note_on,,,,,18,0,1,,,,,0,,,53,52
91512,control_change,,,,,31,0,1,,,,,0,64,88,,
91516,control_change,,,,,4,0,1,,,,,0,64,127,,
91527,note_on,,,,,11,0,1,,,,,0,,,58,37
91552,control_change,,,,,25,0,1,,,,,0,64,40,,
91556,control_change,,,,,4,0,1,,,,,0,64,0,,
91575,note_on,,,,,19,0,1,,,,,0,,,62,45
91576,control_change,,,,,0,0,1,,,,,0,64,88,,
91576,note_on,,,,,1,0,1,,,,,0,,,58,0
91580,control_change,,,,,4,0,1,,,,,0,64,127,,
91593,note_on,,,,,13,0,1,,,,,0,,,53,0
91624,note_on,,,,,31,0,1,,,,,0,,,62,0
91624,note_on,,,,,0,0,1,,,,,0,,,58,34
91653,note_on,,,,,29,0,1,,,,,0,,,58,0
91670,note_on,,,,,17,0,1,,,,,0,,,53,34
91692,note_on,,,,,22,0,1,,,,,0,,,53,0
91713,note_on,,,,,21,0,1,,,,,0,,,67,57
91717,note_on,,,,,4,0,1,,,,,0,,,69,0
91768,note_on,,,,,51,0,1,,,,,0,,,53,35
91769,control_change,,,,,1,0,1,,,,,0,64,104,,
91774,control_change,,,,,5,0,1,,,,,0,64,72,,
91778,control_change,,,,,4,0,1,,,,,0,64,0,,
91808,note_on,,,,,30,0,1,,,,,0,,,58,32
91814,control_change,,,,,6,0,1,,,,,0,64,56,,
91818,control_change,,,,,4,0,1,,,,,0,64,127,,
91848,note_on,,,,,30,0,1,,,,,0,,,67,0
91861,note_on,,,,,13,0,1,,,,,0,,,53,0
91864,note_on,,,,,3,0,1,,,,,0,,,58,0
91866,note_on,,,,,2,0,1,,,,,0,,,62,33
91917,note_on,,,,,51,0,1,,,,,0,,,58,22
91965,note_on,,,,,48,0,1,,,,,0,,,62,0
91974,note_on,,,,,9,0,1,,,,,0,,,53,29
91986,note_on,,,,,12,0,1,,,,,0,,,58,0
92023,note_on,,,,,37,0,1,,,,,0,,,53,0
92058,note_on,,,,,35,0,1,,,,,0,,,45,26
92059,control_change,,,,,1,0,1,,,,,0,64,104,,
92062,note_on,,,,,3,0,1,,,,,0,,,33,33
92062,note_on,,,,,0,0,1,,,,,0,,,65,66
92064,control_change,,,,,2,0,1,,,,,0,64,40,,
92068,control_change,,,,,4,0,1,,,,,0,64,0,,
92092,control_change,,,,,24,0,1,,,,,0,64,40,,
92094,note_on,,,,,2,0,1,,,,,0,,,33,0
92096,control_change,,,,,2,0,1,,,,,0,64,127,,
92103,note_on,,,,,7,0,1,,,,,0,,,45,0
92116,note_on,,,,,13,0,1,,,,,0,,,53,46
92149,note_on,,,,,33,0,1,,,,,0,,,65,0
92153,note_on,,,,,4,0,1,,,,,0,,,53,0
92157,note_on,,,,,4,0,1,,,,,0,,,57,48
92201,note_on,,,,,0,0,1,,,,,0,,,67,70
92201,note_on,,,,,44,0,1,,,,,0,,,57,0
92208,note_on,,,,,7,0,1,,,,,0,,,62,49
92248,note_on,,,,,40,0,1,,,,,0,,,62,0
92252,note_on,,,,,4,0,1,,,,,0,,,57,51
92275,note_on,,,,,23,0,1,,,,,0,,,57,0
92285,note_on,,,,,10,0,1,,,,,0,,,53,53
92302,note_on,,,,,17,0,1,,,,,0,,,53,0
92302,note_on,,,,,0,0,1,,,,,0,,,67,0
92312,note_on,,,,,10,0,1,,,,,0,,,69,71
92353,note_on,,,,,41,0,1,,,,,0,,,69,0
92358,note_on,,,,,5,0,1,,,,,0,,,70,74
92379,control_change,,,,,21,0,1,,,,,0,64,72,,
92383,control_change,,,,,4,0,1,,,,,0,64,0,,
92413,note_on,,,,,30,0,1,,,,,0,,,55,39
92422,control_change,,,,,9,0,1,,,,,0,64,40,,
92427,control_change,,,,,5,0,1,,,,,0,64,88,,
92431,control_change,,,,,4,0,1,,,,,0,64,127,,
92451,note_on,,,,,20,0,1,,,,,0,,,55,0
92455,note_on,,,,,4,0,1,,,,,0,,,61,34
92501,note_on,,,,,46,0,1,,,,,0,,,70,0
92505,note_on,,,,,4,0,1,,,,,0,,,61,0
92512,note_on,,,,,7,0,1,,,,,0,,,69,59
92515,note_on,,,,,3,0,1,,,,,0,,,64,51
92537,note_on,,,,,22,0,1,,,,,0,,,69,0
92562,note_on,,,,,25,0,1,,,,,0,,,61,31
92596,note_on,,,,,34,0,1,,,,,0,,,64,0
92597,note_on,,,,,1,0,1,,,,,0,,,61,0
92616,note_on,,,,,19,0,1,,,,,0,,,55,47
92646,note_on,,,,,30,0,1,,,,,0,,,55,0
92686,note_on,,,,,40,0,1,,,,,0,,,65,62
92689,control_change,,,,,3,0,1,,,,,0,64,56,,
92693,control_change,,,,,4,0,1,,,,,0,64,0,,
92694,note_on,,,,,1,0,1,,,,,0,,,45,32
92696,note_on,,,,,2,0,1,,,,,0,,,33,34
92721,note_on,,,,,25,0,1,,,,,0,,,33,0
92726,control_change,,,,,5,0,1,,,,,0,64,104,,
92730,control_change,,,,,0,0,1,,,,,0,64,127,,
92730,note_on,,,,,4,0,1,,,,,0,,,45,0
92742,note_on,,,,,12,0,1,,,,,0,,,53,39
92757,note_on,,,,,15,0,1,,,,,0,,,65,0
92768,note_on,,,,,11,0,1,,,,,0,,,53,0
92777,note_on,,,,,9,0,1,,,,,0,,,57,43
92813,note_on,,,,,36,0,1,,,,,0,,,57,0
92823,note_on,,,,,10,0,1,,,,,0,,,67,64
92825,note_on,,,,,2,0,1,,,,,0,,,62,47
92862,note_on,,,,,37,0,1,,,,,0,,,62,0
92867,note_on,,,,,5,0,1,,,,,0,,,57,42
92895,note_on,,,,,28,0,1,,,,,0,,,57,0
92899,note_on,,,,,4,0,1,,,,,0,,,53,46
92910,note_on,,,,,11,0,1,,,,,0,,,53,0
92918,note_on,,,,,8,0,1,,,,,0,,,67,0
92932,note_on,,,,,14,0,1,,,,,0,,,69,68
92974,note_on,,,,,42,0,1,,,,,0,,,69,0
92976,note_on,,,,,2,0,1,,,,,0,,,70,67
92988,control_change,,,,,12,0,1,,,,,0,64,72,,
92992,control_change,,,,,4,0,1,,,,,0,64,0,,
93019,note_on,,,,,27,0,1,,,,,0,,,55,37
93024,control_change,,,,,5,0,1,,,,,0,64,40,,
93028,control_change,,,,,4,0,1,,,,,0,64,104,,
93032,control_change,,,,,4,0,1,,,,,0,64,127,,
93061,note_on,,,,,29,0,1,,,,,0,,,55,0
93072,note_on,,,,,11,0,1,,,,,0,,,61,33
93131,note_on,,,,,59,0,1,,,,,0,,,70,0
93134,note_on,,,,,3,0,1,,,,,0,,,61,0
93139,note_on,,,,,5,0,1,,,,,0,,,69,53
93143,note_on,,,,,4,0,1,,,,,0,,,64,41
93164,note_on,,,,,21,0,1,,,,,0,,,69,0
93191,note_on,,,,,27,0,1,,,,,0,,,61,33
93228,note_on,,,,,37,0,1,,,,,0,,,64,0
93237,note_on,,,,,9,0,1,,,,,0,,,55,35
93249,note_on,,,,,12,0,1,,,,,0,,,61,0
93256,note_on,,,,,7,0,1,,,,,0,,,55,0
93314,control_change,,,,,58,0,1,,,,,0,64,88,,
93318,control_change,,,,,4,0,1,,,,,0,64,0,,
93323,note_on,,,,,5,0,1,,,,,0,,,38,42
93336,note_on,,,,,13,0,1,,,,,0,,,69,67
93338,note_on,,,,,2,0,1,,,,,0,,,45,36
93342,note_on,,,,,4,0,1,,,,,0,,,38,0
93346,control_change,,,,,4,0,1,,,,,0,64,72,,
93350,control_change,,,,,4,0,1,,,,,0,64,127,,
93360,note_on,,,,,10,0,1,,,,,0,,,45,0
93373,note_on,,,,,13,0,1,,,,,0,,,53,50
93391,note_on,,,,,18,0,1,,,,,0,,,57,47
93396,note_on,,,,,5,0,1,,,,,0,,,53,0
93418,note_on,,,,,22,0,1,,,,,0,,,57,0
93428,note_on,,,,,10,0,1,,,,,0,,,69,0
93430,note_on,,,,,2,0,1,,,,,0,,,62,53
93464,note_on,,,,,34,0,1,,,,,0,,,62,0
93476,note_on,,,,,12,0,1,,,,,0,,,65,48
93519,note_on,,,,,0,0,1,,,,,0,,,62,51
93519,note_on,,,,,43,0,1,,,,,0,,,65,0
93553,note_on,,,,,34,0,1,,,,,0,,,62,0
93560,note_on,,,,,7,0,1,,,,,0,,,57,43
93589,note_on,,,,,29,0,1,,,,,0,,,57,0
93602,note_on,,,,,13,0,1,,,,,0,,,74,78
93637,note_on,,,,,35,0,1,,,,,0,,,74,0
93652,note_on,,,,,15,0,1,,,,,0,,,57,42
93696,note_on,,,,,44,0,1,,,,,0,,,62,42
93705,note_on,,,,,9,0,1,,,,,0,,,57,0
93730,note_on,,,,,25,0,1,,,,,0,,,62,0
93734,note_on,,,,,4,0,1,,,,,0,,,65,59
93784,note_on,,,,,50,0,1,,,,,0,,,62,49
93815,note_on,,,,,31,0,1,,,,,0,,,62,0
93826,note_on,,,,,11,0,1,,,,,0,,,57,52
93842,note_on,,,,,16,0,1,,,,,0,,,57,0
93873,note_on,,,,,31,0,1,,,,,0,,,65,0
93883,note_on,,,,,10,0,1,,,,,0,,,53,59
93896,note_on,,,,,13,0,1,,,,,0,,,35,38
93903,control_change,,,,,7,0,1,,,,,0,64,104,,
93907,control_change,,,,,4,0,1,,,,,0,64,24,,
93911,control_change,,,,,4,0,1,,,,,0,64,0,,
93929,note_on,,,,,18,0,1,,,,,0,,,56,56
93943,control_change,,,,,14,0,1,,,,,0,64,127,,
93968,note_on,,,,,25,0,1,,,,,0,,,56,0
93970,note_on,,,,,2,0,1,,,,,0,,,62,66
93997,note_on,,,,,27,0,1,,,,,0,,,53,0
94013,note_on,,,,,16,0,1,,,,,0,,,62,0
94014,note_on,,,,,1,0,1,,,,,0,,,65,69
94016,note_on,,,,,2,0,1,,,,,0,,,35,0
94051,note_on,,,,,35,0,1,,,,,0,,,65,0
94054,note_on,,,,,3,0,1,,,,,0,,,62,55
94094,note_on,,,,,40,0,1,,,,,0,,,56,64
94098,note_on,,,,,4,0,1,,,,,0,,,62,0
94143,note_on,,,,,45,0,1,,,,,0,,,56,0
94146,note_on,,,,,3,0,1,,,,,0,,,74,81
94193,note_on,,,,,47,0,1,,,,,0,,,56,54
94212,note_on,,,,,19,0,1,,,,,0,,,74,0
94222,note_on,,,,,10,0,1,,,,,0,,,56,0
94234,note_on,,,,,12,0,1,,,,,0,,,62,63
94272,note_on,,,,,38,0,1,,,,,0,,,62,0
94278,note_on,,,,,6,0,1,,,,,0,,,65,64
94310,note_on,,,,,32,0,1,,,,,0,,,65,0
94314,note_on,,,,,4,0,1,,,,,0,,,62,59
94356,note_on,,,,,42,0,1,,,,,0,,,56,61
94365,note_on,,,,,9,0,1,,,,,0,,,62,0
94371,note_on,,,,,6,0,1,,,,,0,,,56,0
94400,note_on,,,,,29,0,1,,,,,0,,,36,42
94415,control_change,,,,,15,0,1,,,,,0,64,24,,
94419,control_change,,,,,4,0,1,,,,,0,64,0,,
94436,note_on,,,,,17,0,1,,,,,0,,,74,82
94443,control_change,,,,,7,0,1,,,,,0,64,56,,
94447,control_change,,,,,4,0,1,,,,,0,64,127,,
94448,note_on,,,,,1,0,1,,,,,0,,,36,0
94490,note_on,,,,,42,0,1,,,,,0,,,53,49
94503,note_on,,,,,13,0,1,,,,,0,,,74,0
94519,note_on,,,,,16,0,1,,,,,0,,,55,53
94530,note_on,,,,,11,0,1,,,,,0,,,53,0
94532,note_on,,,,,2,0,1,,,,,0,,,55,0
94579,note_on,,,,,47,0,1,,,,,0,,,58,45
94622,note_on,,,,,43,0,1,,,,,0,,,58,0
94627,note_on,,,,,5,0,1,,,,,0,,,62,38
94672,note_on,,,,,45,0,1,,,,,0,,,62,0
94679,note_on,,,,,7,0,1,,,,,0,,,65,51
94726,note_on,,,,,47,0,1,,,,,0,,,65,0
94736,note_on,,,,,10,0,1,,,,,0,,,62,46
94788,note_on,,,,,52,0,1,,,,,0,,,58,36
94810,note_on,,,,,22,0,1,,,,,0,,,62,0
94840,note_on,,,,,30,0,1,,,,,0,,,58,0
94987,note_on,,,,,147,0,1,,,,,0,,,64,60
95032,control_change,,,,,45,0,1,,,,,0,64,40,,
95036,control_change,,,,,4,0,1,,,,,0,64,0,,
95068,control_change,,,,,32,0,1,,,,,0,64,56,,
95072,control_change,,,,,4,0,1,,,,,0,64,127,,
95102,note_on,,,,,30,0,1,,,,,0,,,65,69
95104,note_on,,,,,2,0,1,,,,,0,,,64,0
95109,control_change,,,,,5,0,1,,,,,0,64,72,,
95113,control_change,,,,,4,0,1,,,,,0,64,0,,
95133,control_change,,,,,20,0,1,,,,,0,64,24,,
95137,control_change,,,,,4,0,1,,,,,0,64,88,,
95141,control_change,,,,,4,0,1,,,,,0,64,127,,
95189,note_on,,,,,48,0,1,,,,,0,,,70,71
95197,note_on,,,,,8,0,1,,,,,0,,,65,0
95197,control_change,,,,,0,0,1,,,,,0,64,56,,
95201,control_change,,,,,4,0,1,,,,,0,64,0,,
95234,control_change,,,,,33,0,1,,,,,0,64,88,,
95238,control_change,,,,,4,0,1,,,,,0,64,127,,
95263,note_on,,,,,25,0,1,,,,,0,,,70,0
95265,note_on,,,,,2,0,1,,,,,0,,,69,75
95266,control_change,,,,,1,0,1,,,,,0,64,88,,
95270,control_change,,,,,4,0,1,,,,,0,64,0,,
95294,control_change,,,,,24,0,1,,,,,0,64,40,,
95297,control_change,,,,,3,0,1,,,,,0,64,127,,
95327,note_on,,,,,30,0,1,,,,,0,,,58,39
95338,control_change,,,,,11,0,1,,,,,0,64,88,,
95342,control_change,,,,,4,0,1,,,,,0,64,24,,
95346,control_change,,,,,4,0,1,,,,,0,64,0,,
95367,note_on,,,,,0,0,1,,,,,0,,,61,53
95367,note_on,,,,,21,0,1,,,,,0,,,58,0
95367,control_change,,,,,0,0,1,,,,,0,64,72,,
95371,control_change,,,,,4,0,1,,,,,0,64,127,,
95404,note_on,,,,,33,0,1,,,,,0,,,61,0
95408,note_on,,,,,4,0,1,,,,,0,,,36,44
95415,note_on,,,,,7,0,1,,,,,0,,,64,40
95462,note_on,,,,,47,0,1,,,,,0,,,61,34
95474,note_on,,,,,12,0,1,,,,,0,,,64,0
95493,note_on,,,,,19,0,1,,,,,0,,,61,0
95499,note_on,,,,,6,0,1,,,,,0,,,58,33
95538,note_on,,,,,39,0,1,,,,,0,,,58,0
95552,note_on,,,,,14,0,1,,,,,0,,,52,45
95568,control_change,,,,,16,0,1,,,,,0,64,88,,
95572,control_change,,,,,4,0,1,,,,,0,64,24,,
95576,control_change,,,,,4,0,1,,,,,0,64,0,,
95597,note_on,,,,,21,0,1,,,,,0,,,69,0
95600,note_on,,,,,3,0,1,,,,,0,,,58,37
95605,control_change,,,,,5,0,1,,,,,0,64,56,,
95609,control_change,,,,,4,0,1,,,,,0,64,104,,
95613,control_change,,,,,4,0,1,,,,,0,64,127,,
95640,note_on,,,,,27,0,1,,,,,0,,,58,0
95646,note_on,,,,,6,0,1,,,,,0,,,60,51
95681,note_on,,,,,35,0,1,,,,,0,,,60,0
95698,note_on,,,,,17,0,1,,,,,0,,,67,59
95702,note_on,,,,,4,0,1,,,,,0,,,64,45
95734,control_change,,,,,32,0,1,,,,,0,64,88,,
95738,control_change,,,,,4,0,1,,,,,0,64,40,,
95739,note_on,,,,,1,0,1,,,,,0,,,64,0
95741,control_change,,,,,2,0,1,,,,,0,64,0,,
95754,note_on,,,,,13,0,1,,,,,0,,,60,46
95774,control_change,,,,,20,0,1,,,,,0,64,72,,
95778,control_change,,,,,4,0,1,,,,,0,64,104,,
95782,control_change,,,,,4,0,1,,,,,0,64,127,,
95802,note_on,,,,,20,0,1,,,,,0,,,60,0
95804,note_on,,,,,2,0,1,,,,,0,,,58,34
95813,note_on,,,,,9,0,1,,,,,0,,,36,0
95819,note_on,,,,,6,0,1,,,,,0,,,52,0
95836,note_on,,,,,17,0,1,,,,,0,,,67,0
95847,note_on,,,,,11,0,1,,,,,0,,,58,0
95861,note_on,,,,,14,0,1,,,,,0,,,65,51
95890,control_change,,,,,29,0,1,,,,,0,64,104,,
95894,control_change,,,,,4,0,1,,,,,0,64,88,,
95899,control_change,,,,,5,0,1,,,,,0,64,56,,
95903,control_change,,,,,4,0,1,,,,,0,64,0,,
95912,note_on,,,,,9,0,1,,,,,0,,,57,38
95948,control_change,,,,,36,0,1,,,,,0,64,72,,
95952,note_on,,,,,4,0,1,,,,,0,,,57,0
95952,control_change,,,,,0,0,1,,,,,0,64,127,,
95954,note_on,,,,,2,0,1,,,,,0,,,60,40
96002,note_on,,,,,48,0,1,,,,,0,,,41,38
96016,note_on,,,,,14,0,1,,,,,0,,,60,0
96055,note_on,,,,,39,0,1,,,,,0,,,57,33
96093,note_on,,,,,38,0,1,,,,,0,,,57,0
96101,note_on,,,,,8,0,1,,,,,0,,,60,43
96134,note_on,,,,,33,0,1,,,,,0,,,60,0
96153,note_on,,,,,19,0,1,,,,,0,,,53,30
96169,control_change,,,,,16,0,1,,,,,0,64,72,,
96173,control_change,,,,,4,0,1,,,,,0,64,0,,
96206,note_on,,,,,0,0,1,,,,,0,,,56,33
96206,control_change,,,,,33,0,1,,,,,0,64,56,,
96210,control_change,,,,,4,0,1,,,,,0,64,104,,
96214,control_change,,,,,4,0,1,,,,,0,64,127,,
96247,note_on,,,,,33,0,1,,,,,0,,,56,0
96250,note_on,,,,,3,0,1,,,,,0,,,53,0
96258,note_on,,,,,8,0,1,,,,,0,,,60,39
96298,note_on,,,,,40,0,1,,,,,0,,,60,0
96316,note_on,,,,,18,0,1,,,,,0,,,53,33
96372,note_on,,,,,56,0,1,,,,,0,,,56,26
96377,note_on,,,,,5,0,1,,,,,0,,,53,0
96392,note_on,,,,,15,0,1,,,,,0,,,41,0
96414,note_on,,,,,22,0,1,,,,,0,,,65,0
96423,note_on,,,,,9,0,1,,,,,0,,,56,0
96431,note_on,,,,,8,0,1,,,,,0,,,60,35
96443,note_on,,,,,12,0,1,,,,,0,,,60,0
96468,control_change,,,,,25,0,1,,,,,0,64,56,,
96472,control_change,,,,,4,0,1,,,,,0,64,0,,
96478,note_on,,,,,6,0,1,,,,,0,,,37,37
96496,control_change,,,,,0,0,1,,,,,0,64,40,,
96496,note_on,,,,,18,0,1,,,,,0,,,37,0
96500,control_change,,,,,4,0,1,,,,,0,64,104,,
96504,control_change,,,,,4,0,1,,,,,0,64,127,,
96520,note_on,,,,,16,0,1,,,,,0,,,53,42
96562,note_on,,,,,42,0,1,,,,,0,,,56,36
96570,note_on,,,,,8,0,1,,,,,0,,,53,0
96601,note_on,,,,,31,0,1,,,,,0,,,56,0
96607,note_on,,,,,6,0,1,,,,,0,,,61,31
96644,note_on,,,,,37,0,1,,,,,0,,,61,0
96655,note_on,,,,,11,0,1,,,,,0,,,65,64
96706,note_on,,,,,51,0,1,,,,,0,,,61,30
96751,note_on,,,,,45,0,1,,,,,0,,,65,0
96756,note_on,,,,,5,0,1,,,,,0,,,56,35
96793,note_on,,,,,37,0,1,,,,,0,,,61,0
96796,note_on,,,,,3,0,1,,,,,0,,,56,0
96800,note_on,,,,,4,0,1,,,,,0,,,66,67
96844,note_on,,,,,44,0,1,,,,,0,,,56,36
96886,note_on,,,,,42,0,1,,,,,0,,,61,42
96894,note_on,,,,,8,0,1,,,,,0,,,66,0
96925,note_on,,,,,0,0,1,,,,,0,,,56,0
96925,note_on,,,,,31,0,1,,,,,0,,,61,0
96929,note_on,,,,,4,0,1,,,,,0,,,68,67
96938,note_on,,,,,9,0,1,,,,,0,,,65,40
96979,note_on,,,,,41,0,1,,,,,0,,,56,42
97012,note_on,,,,,33,0,1,,,,,0,,,68,0
97014,note_on,,,,,2,0,1,,,,,0,,,61,43
97047,note_on,,,,,33,0,1,,,,,0,,,37,33
97063,note_on,,,,,16,0,1,,,,,0,,,56,0
97067,note_on,,,,,4,0,1,,,,,0,,,61,0
97081,note_on,,,,,14,0,1,,,,,0,,,70,71
97093,control_change,,,,,12,0,1,,,,,0,64,88,,
97097,control_change,,,,,4,0,1,,,,,0,64,24,,
97101,control_change,,,,,4,0,1,,,,,0,64,0,,
97107,note_on,,,,,6,0,1,,,,,0,,,65,0
97122,note_on,,,,,15,0,1,,,,,0,,,51,46
97145,control_change,,,,,23,0,1,,,,,0,64,40,,
97149,control_change,,,,,4,0,1,,,,,0,64,104,,
97153,control_change,,,,,4,0,1,,,,,0,64,127,,
97155,note_on,,,,,2,0,1,,,,,0,,,70,0
97158,note_on,,,,,3,0,1,,,,,0,,,56,51
97200,note_on,,,,,0,0,1,,,,,0,,,60,43
97200,note_on,,,,,42,0,1,,,,,0,,,56,0
97235,note_on,,,,,35,0,1,,,,,0,,,60,0
97238,note_on,,,,,3,0,1,,,,,0,,,66,43
97284,note_on,,,,,46,0,1,,,,,0,,,60,44
97320,note_on,,,,,36,0,1,,,,,0,,,56,38
97322,note_on,,,,,2,0,1,,,,,0,,,66,0
97323,note_on,,,,,1,0,1,,,,,0,,,60,0
97368,note_on,,,,,45,0,1,,,,,0,,,56,0
97374,note_on,,,,,6,0,1,,,,,0,,,68,50
97422,note_on,,,,,48,0,1,,,,,0,,,56,36
97427,control_change,,,,,5,0,1,,,,,0,64,88,,
97431,control_change,,,,,4,0,1,,,,,0,64,0,,
97452,control_change,,,,,21,0,1,,,,,0,64,40,,
97456,control_change,,,,,4,0,1,,,,,0,64,104,,
97460,control_change,,,,,4,0,1,,,,,0,64,127,,
97467,note_on,,,,,7,0,1,,,,,0,,,60,37
97469,note_on,,,,,2,0,1,,,,,0,,,56,0
97484,note_on,,,,,15,0,1,,,,,0,,,68,0
97500,note_on,,,,,16,0,1,,,,,0,,,60,0
97504,note_on,,,,,4,0,1,,,,,0,,,51,0
97506,note_on,,,,,2,0,1,,,,,0,,,37,0
97510,note_on,,,,,4,0,1,,,,,0,,,66,37
97549,note_on,,,,,39,0,1,,,,,0,,,66,0
97553,note_on,,,,,4,0,1,,,,,0,,,60,48
97578,note_on,,,,,25,0,1,,,,,0,,,60,0
97581,control_change,,,,,3,0,1,,,,,0,64,56,,
97585,control_change,,,,,4,0,1,,,,,0,64,0,,
97587,note_on,,,,,2,0,1,,,,,0,,,37,43
97593,control_change,,,,,6,0,1,,,,,0,64,40,,
97597,control_change,,,,,4,0,1,,,,,0,64,88,,
97601,control_change,,,,,4,0,1,,,,,0,64,127,,
97608,note_on,,,,,7,0,1,,,,,0,,,44,40
97613,note_on,,,,,5,0,1,,,,,0,,,37,0
97618,note_on,,,,,5,0,1,,,,,0,,,44,0
97638,note_on,,,,,20,0,1,,,,,0,,,51,44
97661,note_on,,,,,23,0,1,,,,,0,,,51,0
97671,note_on,,,,,10,0,1,,,,,0,,,54,46
97698,note_on,,,,,27,0,1,,,,,0,,,54,0
97722,note_on,,,,,24,0,1,,,,,0,,,56,43
97762,note_on,,,,,0,0,1,,,,,0,,,60,58
97762,note_on,,,,,40,0,1,,,,,0,,,56,0
97802,note_on,,,,,40,0,1,,,,,0,,,60,0
97806,note_on,,,,,4,0,1,,,,,0,,,66,69
97848,note_on,,,,,42,0,1,,,,,0,,,60,60
97888,note_on,,,,,40,0,1,,,,,0,,,56,42
97890,note_on,,,,,2,0,1,,,,,0,,,66,0
97909,note_on,,,,,19,0,1,,,,,0,,,60,0
97932,note_on,,,,,23,0,1,,,,,0,,,68,73
97938,note_on,,,,,6,0,1,,,,,0,,,56,0
97979,note_on,,,,,41,0,1,,,,,0,,,56,47
98020,note_on,,,,,41,0,1,,,,,0,,,56,0
98025,note_on,,,,,5,0,1,,,,,0,,,68,0
98028,note_on,,,,,3,0,1,,,,,0,,,60,46
98056,note_on,,,,,28,0,1,,,,,0,,,60,0
98066,note_on,,,,,10,0,1,,,,,0,,,70,78
98068,note_on,,,,,2,0,1,,,,,0,,,66,47
98107,note_on,,,,,39,0,1,,,,,0,,,60,58
98112,note_on,,,,,5,0,1,,,,,0,,,70,0
98114,note_on,,,,,2,0,1,,,,,0,,,66,0
98141,note_on,,,,,27,0,1,,,,,0,,,60,0
98141,note_on,,,,,0,0,1,,,,,0,,,56,45
98155,note_on,,,,,14,0,1,,,,,0,,,56,0
98202,control_change,,,,,47,0,1,,,,,0,64,104,,
98204,note_on,,,,,2,0,1,,,,,0,,,37,36
98205,control_change,,,,,1,0,1,,,,,0,64,40,,
98210,control_change,,,,,5,0,1,,,,,0,64,0,,
98213,note_on,,,,,3,0,1,,,,,0,,,72,74
98242,control_change,,,,,29,0,1,,,,,0,64,104,,
98246,control_change,,,,,4,0,1,,,,,0,64,127,,
98252,note_on,,,,,6,0,1,,,,,0,,,37,0
98254,note_on,,,,,2,0,1,,,,,0,,,72,0
98278,note_on,,,,,24,0,1,,,,,0,,,53,46
98293,note_on,,,,,15,0,1,,,,,0,,,53,0
98308,note_on,,,,,15,0,1,,,,,0,,,56,38
98340,note_on,,,,,32,0,1,,,,,0,,,56,0
98345,note_on,,,,,5,0,1,,,,,0,,,61,34
98372,note_on,,,,,27,0,1,,,,,0,,,61,0
98384,note_on,,,,,12,0,1,,,,,0,,,65,50
98422,note_on,,,,,38,0,1,,,,,0,,,65,0
98432,note_on,,,,,10,0,1,,,,,0,,,61,29
98462,note_on,,,,,30,0,1,,,,,0,,,61,0
98465,note_on,,,,,3,0,1,,,,,0,,,56,32
98494,note_on,,,,,29,0,1,,,,,0,,,56,0
98518,note_on,,,,,24,0,1,,,,,0,,,70,58
98568,note_on,,,,,50,0,1,,,,,0,,,56,30
98569,control_change,,,,,1,0,1,,,,,0,64,104,,
98573,control_change,,,,,4,0,1,,,,,0,64,127,,
98605,note_on,,,,,32,0,1,,,,,0,,,56,0
98612,note_on,,,,,7,0,1,,,,,0,,,61,31
98633,note_on,,,,,21,0,1,,,,,0,,,70,0
98650,note_on,,,,,17,0,1,,,,,0,,,61,0
98663,note_on,,,,,13,0,1,,,,,0,,,65,39
98694,note_on,,,,,31,0,1,,,,,0,,,65,0
98713,note_on,,,,,19,0,1,,,,,0,,,61,32
98757,note_on,,,,,44,0,1,,,,,0,,,61,0
98767,note_on,,,,,10,0,1,,,,,0,,,56,30
98814,control_change,,,,,47,0,1,,,,,0,64,56,,
98819,control_change,,,,,5,0,1,,,,,0,64,0,,
98826,note_on,,,,,7,0,1,,,,,0,,,36,27
98833,note_on,,,,,7,0,1,,,,,0,,,56,0
98836,note_on,,,,,3,0,1,,,,,0,,,36,0
98841,note_on,,,,,5,0,1,,,,,0,,,68,63
98847,control_change,,,,,6,0,1,,,,,0,64,72,,
98851,control_change,,,,,4,0,1,,,,,0,64,127,,
98872,note_on,,,,,21,0,1,,,,,0,,,53,40
98887,note_on,,,,,15,0,1,,,,,0,,,53,0
98893,note_on,,,,,6,0,1,,,,,0,,,56,40
98924,note_on,,,,,31,0,1,,,,,0,,,56,0
98930,note_on,,,,,6,0,1,,,,,0,,,60,58
98963,note_on,,,,,33,0,1,,,,,0,,,68,0
98976,note_on,,,,,13,0,1,,,,,0,,,60,0
98979,note_on,,,,,3,0,1,,,,,0,,,65,49
98982,note_on,,,,,3,0,1,,,,,0,,,70,73
99027,note_on,,,,,45,0,1,,,,,0,,,60,58
99028,note_on,,,,,1,0,1,,,,,0,,,65,0
99056,note_on,,,,,28,0,1,,,,,0,,,60,0
99060,note_on,,,,,4,0,1,,,,,0,,,56,56
99069,note_on,,,,,9,0,1,,,,,0,,,70,0
99083,note_on,,,,,14,0,1,,,,,0,,,56,0
99090,note_on,,,,,7,0,1,,,,,0,,,72,81
99129,note_on,,,,,39,0,1,,,,,0,,,72,0
99131,note_on,,,,,2,0,1,,,,,0,,,73,77
99141,control_change,,,,,10,0,1,,,,,0,64,72,,
99145,control_change,,,,,4,0,1,,,,,0,64,0,,
99168,note_on,,,,,23,0,1,,,,,0,,,58,42
99178,control_change,,,,,10,0,1,,,,,0,64,72,,
99182,control_change,,,,,4,0,1,,,,,0,64,127,,
99213,note_on,,,,,31,0,1,,,,,0,,,58,0
99218,note_on,,,,,5,0,1,,,,,0,,,64,44
99254,note_on,,,,,36,0,1,,,,,0,,,73,0
99263,note_on,,,,,9,0,1,,,,,0,,,64,0
99271,note_on,,,,,8,0,1,,,,,0,,,72,66
99274,note_on,,,,,3,0,1,,,,,0,,,67,54
99290,note_on,,,,,16,0,1,,,,,0,,,72,0
99314,note_on,,,,,24,0,1,,,,,0,,,67,0
99321,note_on,,,,,7,0,1,,,,,0,,,64,44
99364,note_on,,,,,43,0,1,,,,,0,,,58,39
99374,note_on,,,,,10,0,1,,,,,0,,,64,0
99379,note_on,,,,,5,0,1,,,,,0,,,58,0
99436,control_change,,,,,57,0,1,,,,,0,64,40,,
99440,control_change,,,,,4,0,1,,,,,0,64,0,,
99441,note_on,,,,,1,0,1,,,,,0,,,36,42
99445,note_on,,,,,4,0,1,,,,,0,,,69,67
99451,note_on,,,,,6,0,1,,,,,0,,,36,0
99468,control_change,,,,,17,0,1,,,,,0,64,127,,
99497,note_on,,,,,29,0,1,,,,,0,,,57,46
99498,note_on,,,,,1,0,1,,,,,0,,,69,0
99521,note_on,,,,,23,0,1,,,,,0,,,57,0
99530,note_on,,,,,9,0,1,,,,,0,,,60,63
99575,note_on,,,,,45,0,1,,,,,0,,,60,0
99581,note_on,,,,,6,0,1,,,,,0,,,65,56
99583,note_on,,,,,2,0,1,,,,,0,,,70,74
99621,note_on,,,,,38,0,1,,,,,0,,,60,64
99629,note_on,,,,,8,0,1,,,,,0,,,65,0
99650,note_on,,,,,21,0,1,,,,,0,,,60,0
99651,note_on,,,,,1,0,1,,,,,0,,,57,52
99670,note_on,,,,,19,0,1,,,,,0,,,70,0
99682,note_on,,,,,12,0,1,,,,,0,,,72,82
99683,note_on,,,,,1,0,1,,,,,0,,,57,0
99728,note_on,,,,,45,0,1,,,,,0,,,72,0
99730,note_on,,,,,2,0,1,,,,,0,,,73,77
99758,control_change,,,,,28,0,1,,,,,0,64,104,,
99762,control_change,,,,,4,0,1,,,,,0,64,24,,
99766,control_change,,,,,4,0,1,,,,,0,64,0,,
99777,note_on,,,,,11,0,1,,,,,0,,,58,44
99794,control_change,,,,,17,0,1,,,,,0,64,72,,
99798,control_change,,,,,4,0,1,,,,,0,64,127,,
99820,note_on,,,,,22,0,1,,,,,0,,,64,43
99821,note_on,,,,,1,0,1,,,,,0,,,58,0
99870,note_on,,,,,49,0,1,,,,,0,,,64,0
99870,note_on,,,,,0,0,1,,,,,0,,,72,70
99875,note_on,,,,,5,0,1,,,,,0,,,73,0
99878,note_on,,,,,3,0,1,,,,,0,,,67,50
99883,control_change,,,,,5,0,1,,,,,0,64,88,,
99887,control_change,,,,,4,0,1,,,,,0,64,24,,
99891,control_change,,,,,4,0,1,,,,,0,64,0,,
99895,control_change,,,,,4,0,1,,,,,0,64,24,,
99900,control_change,,,,,5,0,1,,,,,0,64,72,,
99902,note_on,,,,,2,0,1,,,,,0,,,72,0
99904,control_change,,,,,2,0,1,,,,,0,64,127,,
99926,note_on,,,,,22,0,1,,,,,0,,,67,0
99929,note_on,,,,,3,0,1,,,,,0,,,64,43
99974,note_on,,,,,45,0,1,,,,,0,,,58,37
99979,note_on,,,,,5,0,1,,,,,0,,,64,0
99993,note_on,,,,,14,0,1,,,,,0,,,58,0
100044,control_change,,,,,51,0,1,,,,,0,64,40,,
100046,note_on,,,,,0,0,1,,,,,0,,,41,49
100046,note_on,,,,,2,0,1,,,,,0,,,72,80
100048,control_change,,,,,2,0,1,,,,,0,64,0,,
100069,note_on,,,,,21,0,1,,,,,0,,,48,42
100069,control_change,,,,,0,0,1,,,,,0,64,56,,
100071,note_on,,,,,2,0,1,,,,,0,,,41,0
100073,control_change,,,,,2,0,1,,,,,0,64,127,,
100078,note_on,,,,,5,0,1,,,,,0,,,48,0
100096,note_on,,,,,18,0,1,,,,,0,,,57,49
100112,note_on,,,,,16,0,1,,,,,0,,,60,48
100115,note_on,,,,,3,0,1,,,,,0,,,57,0
100137,note_on,,,,,22,0,1,,,,,0,,,60,0
100141,note_on,,,,,4,0,1,,,,,0,,,72,0
100148,note_on,,,,,7,0,1,,,,,0,,,65,54
100178,note_on,,,,,30,0,1,,,,,0,,,65,0
100187,note_on,,,,,9,0,1,,,,,0,,,69,64
100233,note_on,,,,,46,0,1,,,,,0,,,65,56
100266,note_on,,,,,33,0,1,,,,,0,,,69,0
100272,note_on,,,,,6,0,1,,,,,0,,,65,0
100273,note_on,,,,,1,0,1,,,,,0,,,60,66
100303,note_on,,,,,30,0,1,,,,,0,,,60,0
100325,note_on,,,,,22,0,1,,,,,0,,,77,84
100372,note_on,,,,,47,0,1,,,,,0,,,60,50
100402,note_on,,,,,30,0,1,,,,,0,,,60,0
100413,note_on,,,,,11,0,1,,,,,0,,,65,44
100452,note_on,,,,,39,0,1,,,,,0,,,65,0
100463,note_on,,,,,11,0,1,,,,,0,,,72,59
100493,note_on,,,,,30,0,1,,,,,0,,,77,0
100516,note_on,,,,,23,0,1,,,,,0,,,72,0
100522,note_on,,,,,6,0,1,,,,,0,,,69,35
100580,note_on,,,,,58,0,1,,,,,0,,,65,30
100592,note_on,,,,,0,0,1,,,,,0,,,69,0
100592,note_on,,,,,12,0,1,,,,,0,,,65,0
100646,note_on,,,,,54,0,1,,,,,0,,,44,35
100666,control_change,,,,,20,0,1,,,,,0,64,88,,
100667,note_on,,,,,1,0,1,,,,,0,,,75,73
100670,control_change,,,,,3,0,1,,,,,0,64,0,,
100693,note_on,,,,,23,0,1,,,,,0,,,51,38
100698,control_change,,,,,5,0,1,,,,,0,64,56,,
100702,control_change,,,,,4,0,1,,,,,0,64,127,,
100703,note_on,,,,,1,0,1,,,,,0,,,44,0
100726,note_on,,,,,23,0,1,,,,,0,,,59,40
100736,note_on,,,,,10,0,1,,,,,0,,,51,0
100750,note_on,,,,,14,0,1,,,,,0,,,63,44
100771,note_on,,,,,21,0,1,,,,,0,,,59,0
100783,note_on,,,,,12,0,1,,,,,0,,,63,0
100795,note_on,,,,,12,0,1,,,,,0,,,68,42
100803,note_on,,,,,8,0,1,,,,,0,,,59,30
100813,note_on,,,,,10,0,1,,,,,0,,,75,0
100827,note_on,,,,,14,0,1,,,,,0,,,68,0
100838,note_on,,,,,11,0,1,,,,,0,,,71,51
100850,note_on,,,,,12,0,1,,,,,0,,,59,0
100879,note_on,,,,,29,0,1,,,,,0,,,68,42
100888,note_on,,,,,9,0,1,,,,,0,,,71,0
100919,note_on,,,,,31,0,1,,,,,0,,,68,0
100924,note_on,,,,,5,0,1,,,,,0,,,63,34
100934,note_on,,,,,10,0,1,,,,,0,,,63,0
100969,note_on,,,,,35,0,1,,,,,0,,,68,45
100991,note_on,,,,,22,0,1,,,,,0,,,68,0
101015,note_on,,,,,24,0,1,,,,,0,,,59,42
101063,note_on,,,,,48,0,1,,,,,0,,,63,39
101072,note_on,,,,,9,0,1,,,,,0,,,59,0
101110,note_on,,,,,38,0,1,,,,,0,,,63,0
101113,note_on,,,,,3,0,1,,,,,0,,,68,38
101164,note_on,,,,,0,0,1,,,,,0,,,63,33
101164,note_on,,,,,51,0,1,,,,,0,,,68,0
101210,note_on,,,,,46,0,1,,,,,0,,,59,37
101237,note_on,,,,,27,0,1,,,,,0,,,59,0
101272,note_on,,,,,35,0,1,,,,,0,,,63,0
101283,note_on,,,,,11,0,1,,,,,0,,,40,36
101303,control_change,,,,,20,0,1,,,,,0,64,56,,
101304,note_on,,,,,1,0,1,,,,,0,,,68,67
101307,control_change,,,,,3,0,1,,,,,0,64,0,,
101323,note_on,,,,,16,0,1,,,,,0,,,47,44
101338,control_change,,,,,15,0,1,,,,,0,64,72,,
101340,note_on,,,,,2,0,1,,,,,0,,,52,36
101343,control_change,,,,,3,0,1,,,,,0,64,127,,
101347,note_on,,,,,4,0,1,,,,,0,,,40,0
101362,note_on,,,,,15,0,1,,,,,0,,,47,0
101363,note_on,,,,,1,0,1,,,,,0,,,52,0
101363,note_on,,,,,0,0,1,,,,,0,,,56,46
101394,note_on,,,,,31,0,1,,,,,0,,,68,0
101402,note_on,,,,,8,0,1,,,,,0,,,56,0
101404,note_on,,,,,2,0,1,,,,,0,,,59,46
101437,note_on,,,,,33,0,1,,,,,0,,,59,0
101444,note_on,,,,,7,0,1,,,,,0,,,64,49
101480,note_on,,,,,36,0,1,,,,,0,,,64,0
101480,note_on,,,,,0,0,1,,,,,0,,,59,37
101505,note_on,,,,,25,0,1,,,,,0,,,59,0
101507,note_on,,,,,2,0,1,,,,,0,,,69,68
101534,note_on,,,,,27,0,1,,,,,0,,,69,0
101537,note_on,,,,,3,0,1,,,,,0,,,68,65
101550,note_on,,,,,13,0,1,,,,,0,,,56,35
101565,note_on,,,,,15,0,1,,,,,0,,,68,0
101570,note_on,,,,,5,0,1,,,,,0,,,66,62
101578,note_on,,,,,8,0,1,,,,,0,,,56,0
101598,note_on,,,,,0,0,1,,,,,0,,,68,73
101598,note_on,,,,,20,0,1,,,,,0,,,66,0
101625,note_on,,,,,27,0,1,,,,,0,,,68,0
101663,note_on,,,,,38,0,1,,,,,0,,,73,74
101698,control_change,,,,,35,0,1,,,,,0,64,56,,
101702,control_change,,,,,4,0,1,,,,,0,64,0,,
101712,note_on,,,,,10,0,1,,,,,0,,,59,44
101730,control_change,,,,,18,0,1,,,,,0,64,88,,
101733,control_change,,,,,3,0,1,,,,,0,64,127,,
101742,note_on,,,,,9,0,1,,,,,0,,,73,0
101757,note_on,,,,,15,0,1,,,,,0,,,64,39
101760,note_on,,,,,3,0,1,,,,,0,,,73,31
101776,note_on,,,,,16,0,1,,,,,0,,,73,0
101794,note_on,,,,,18,0,1,,,,,0,,,64,0
101799,note_on,,,,,5,0,1,,,,,0,,,68,53
101840,note_on,,,,,41,0,1,,,,,0,,,68,0
101846,note_on,,,,,6,0,1,,,,,0,,,64,54
101848,note_on,,,,,2,0,1,,,,,0,,,59,0
101896,note_on,,,,,48,0,1,,,,,0,,,64,0
101904,note_on,,,,,8,0,1,,,,,0,,,71,61
101920,control_change,,,,,16,0,1,,,,,0,64,56,,
101924,control_change,,,,,4,0,1,,,,,0,64,0,,
101940,control_change,,,,,16,0,1,,,,,0,64,72,,
101944,control_change,,,,,4,0,1,,,,,0,64,127,,
101946,note_on,,,,,2,0,1,,,,,0,,,71,0
101946,note_on,,,,,0,0,1,,,,,0,,,35,34
101958,note_on,,,,,12,0,1,,,,,0,,,35,0
101966,note_on,,,,,8,0,1,,,,,0,,,71,60
102004,note_on,,,,,38,0,1,,,,,0,,,51,36
102020,note_on,,,,,16,0,1,,,,,0,,,59,38
102039,note_on,,,,,19,0,1,,,,,0,,,51,0
102054,note_on,,,,,15,0,1,,,,,0,,,59,0
102057,note_on,,,,,3,0,1,,,,,0,,,63,35
102096,note_on,,,,,39,0,1,,,,,0,,,63,0
102103,note_on,,,,,7,0,1,,,,,0,,,66,34
102142,note_on,,,,,39,0,1,,,,,0,,,66,0
102150,note_on,,,,,8,0,1,,,,,0,,,63,25
102186,note_on,,,,,36,0,1,,,,,0,,,63,0
102187,note_on,,,,,1,0,1,,,,,0,,,71,0
102195,note_on,,,,,8,0,1,,,,,0,,,59,35
102222,note_on,,,,,27,0,1,,,,,0,,,59,0
102246,note_on,,,,,24,0,1,,,,,0,,,66,49
102265,note_on,,,,,19,0,1,,,,,0,,,66,0
102297,note_on,,,,,32,0,1,,,,,0,,,59,41
102338,note_on,,,,,41,0,1,,,,,0,,,59,0
102348,note_on,,,,,10,0,1,,,,,0,,,63,36
102394,note_on,,,,,46,0,1,,,,,0,,,63,0
102407,note_on,,,,,13,0,1,,,,,0,,,59,40
102445,note_on,,,,,38,0,1,,,,,0,,,59,0
102465,note_on,,,,,20,0,1,,,,,0,,,58,33
102524,note_on,,,,,59,0,1,,,,,0,,,58,0
102527,note_on,,,,,3,0,1,,,,,0,,,63,30
102561,control_change,,,,,34,0,1,,,,,0,64,40,,
102565,control_change,,,,,4,0,1,,,,,0,64,0,,
102578,note_on,,,,,13,0,1,,,,,0,,,36,36
102589,control_change,,,,,11,0,1,,,,,0,64,56,,
102593,control_change,,,,,4,0,1,,,,,0,64,127,,
102618,note_on,,,,,25,0,1,,,,,0,,,63,0
102626,note_on,,,,,8,0,1,,,,,0,,,57,53
102671,note_on,,,,,45,0,1,,,,,0,,,63,43
102680,note_on,,,,,9,0,1,,,,,0,,,57,0
102719,note_on,,,,,39,0,1,,,,,0,,,63,0
102730,note_on,,,,,11,0,1,,,,,0,,,66,55
102743,note_on,,,,,13,0,1,,,,,0,,,51,26
102754,control_change,,,,,11,0,1,,,,,0,64,56,,
102758,control_change,,,,,4,0,1,,,,,0,64,0,,
102774,control_change,,,,,16,0,1,,,,,0,64,72,,
102778,control_change,,,,,4,0,1,,,,,0,64,127,,
102780,note_on,,,,,2,0,1,,,,,0,,,63,34
102824,note_on,,,,,0,0,1,,,,,0,,,57,33
102824,note_on,,,,,44,0,1,,,,,0,,,66,0
102857,note_on,,,,,33,0,1,,,,,0,,,57,0
102865,note_on,,,,,8,0,1,,,,,0,,,67,69
102871,note_on,,,,,6,0,1,,,,,0,,,51,0
102872,note_on,,,,,1,0,1,,,,,0,,,63,0
102911,note_on,,,,,39,0,1,,,,,0,,,57,33
102952,note_on,,,,,41,0,1,,,,,0,,,63,26
102968,note_on,,,,,16,0,1,,,,,0,,,67,0
102982,note_on,,,,,14,0,1,,,,,0,,,63,0
102987,note_on,,,,,5,0,1,,,,,0,,,66,40
103000,note_on,,,,,13,0,1,,,,,0,,,36,0
103020,note_on,,,,,20,0,1,,,,,0,,,66,0
103020,note_on,,,,,0,0,1,,,,,0,,,63,42
103043,note_on,,,,,23,0,1,,,,,0,,,57,0
103055,note_on,,,,,12,0,1,,,,,0,,,69,73
103058,note_on,,,,,3,0,1,,,,,0,,,63,0
103092,note_on,,,,,34,0,1,,,,,0,,,57,37
103105,note_on,,,,,13,0,1,,,,,0,,,69,0
103119,note_on,,,,,14,0,1,,,,,0,,,57,0
103137,note_on,,,,,18,0,1,,,,,0,,,70,69
103140,note_on,,,,,3,0,1,,,,,0,,,38,40
103158,control_change,,,,,18,0,1,,,,,0,64,72,,
103162,control_change,,,,,4,0,1,,,,,0,64,0,,
103185,note_on,,,,,23,0,1,,,,,0,,,57,40
103194,control_change,,,,,9,0,1,,,,,0,64,127,,
103198,note_on,,,,,4,0,1,,,,,0,,,38,0
103216,note_on,,,,,18,0,1,,,,,0,,,70,0
103225,note_on,,,,,9,0,1,,,,,0,,,57,0
103227,note_on,,,,,2,0,1,,,,,0,,,62,47
103252,note_on,,,,,25,0,1,,,,,0,,,62,0
103260,note_on,,,,,8,0,1,,,,,0,,,66,37
103264,note_on,,,,,4,0,1,,,,,0,,,54,69
103293,note_on,,,,,29,0,1,,,,,0,,,66,0
103303,note_on,,,,,10,0,1,,,,,0,,,62,34
103315,note_on,,,,,12,0,1,,,,,0,,,62,0
103328,note_on,,,,,13,0,1,,,,,0,,,57,39
103359,note_on,,,,,31,0,1,,,,,0,,,62,41
103386,note_on,,,,,27,0,1,,,,,0,,,57,0
103392,note_on,,,,,0,0,1,,,,,0,,,54,0
103392,note_on,,,,,6,0,1,,,,,0,,,62,0
103400,note_on,,,,,8,0,1,,,,,0,,,69,60
103400,note_on,,,,,0,0,1,,,,,0,,,55,60
103432,control_change,,,,,32,0,1,,,,,0,64,104,,
103436,control_change,,,,,4,0,1,,,,,0,64,40,,
103440,control_change,,,,,4,0,1,,,,,0,64,0,,
103442,note_on,,,,,2,0,1,,,,,0,,,57,38
103456,control_change,,,,,14,0,1,,,,,0,64,40,,
103460,control_change,,,,,4,0,1,,,,,0,64,127,,
103478,note_on,,,,,18,0,1,,,,,0,,,62,40
103480,note_on,,,,,2,0,1,,,,,0,,,69,0
103508,note_on,,,,,28,0,1,,,,,0,,,62,0
103508,note_on,,,,,0,0,1,,,,,0,,,57,0
103512,note_on,,,,,0,0,1,,,,,0,,,66,48
103512,note_on,,,,,4,0,1,,,,,0,,,55,0
103548,note_on,,,,,36,0,1,,,,,0,,,62,56
103580,note_on,,,,,32,0,1,,,,,0,,,62,0
103584,note_on,,,,,4,0,1,,,,,0,,,57,70
103586,note_on,,,,,2,0,1,,,,,0,,,66,0
103607,note_on,,,,,21,0,1,,,,,0,,,57,0
103634,note_on,,,,,27,0,1,,,,,0,,,39,36
103655,note_on,,,,,21,0,1,,,,,0,,,58,72
103670,control_change,,,,,15,0,1,,,,,0,64,24,,
103674,control_change,,,,,4,0,1,,,,,0,64,0,,
103701,note_on,,,,,27,0,1,,,,,0,,,60,56
103702,control_change,,,,,1,0,1,,,,,0,64,88,,
103706,control_change,,,,,4,0,1,,,,,0,64,127,,
103715,note_on,,,,,9,0,1,,,,,0,,,39,0
103729,note_on,,,,,14,0,1,,,,,0,,,60,0
103737,note_on,,,,,8,0,1,,,,,0,,,58,0
103743,note_on,,,,,6,0,1,,,,,0,,,63,51
103775,note_on,,,,,32,0,1,,,,,0,,,63,0
103791,note_on,,,,,0,0,1,,,,,0,,,57,66
103791,note_on,,,,,16,0,1,,,,,0,,,66,58
103837,note_on,,,,,0,0,1,,,,,0,,,60,63
103837,note_on,,,,,46,0,1,,,,,0,,,66,0
103839,control_change,,,,,2,0,1,,,,,0,64,56,,
103843,control_change,,,,,4,0,1,,,,,0,64,0,,
103855,control_change,,,,,12,0,1,,,,,0,64,72,,
103859,control_change,,,,,4,0,1,,,,,0,64,127,,
103872,note_on,,,,,13,0,1,,,,,0,,,63,57
103888,note_on,,,,,16,0,1,,,,,0,,,60,0
103909,note_on,,,,,21,0,1,,,,,0,,,63,0
103913,note_on,,,,,4,0,1,,,,,0,,,67,76
103952,note_on,,,,,39,0,1,,,,,0,,,60,54
103954,note_on,,,,,2,0,1,,,,,0,,,57,0
103968,note_on,,,,,14,0,1,,,,,0,,,67,0
103986,note_on,,,,,18,0,1,,,,,0,,,63,48
104000,note_on,,,,,14,0,1,,,,,0,,,60,0
104021,note_on,,,,,21,0,1,,,,,0,,,63,0
104023,note_on,,,,,2,0,1,,,,,0,,,66,57
104056,note_on,,,,,33,0,1,,,,,0,,,63,48
104070,note_on,,,,,14,0,1,,,,,0,,,66,0
104085,note_on,,,,,15,0,1,,,,,0,,,69,82
104095,note_on,,,,,10,0,1,,,,,0,,,63,0
104118,note_on,,,,,23,0,1,,,,,0,,,69,0
104120,note_on,,,,,2,0,1,,,,,0,,,60,56
104147,note_on,,,,,27,0,1,,,,,0,,,38,37
104155,note_on,,,,,8,0,1,,,,,0,,,60,0
104158,control_change,,,,,3,0,1,,,,,0,64,104,,
104161,note_on,,,,,3,0,1,,,,,0,,,71,82
104162,control_change,,,,,1,0,1,,,,,0,64,0,,
104194,control_change,,,,,32,0,1,,,,,0,64,127,,
104198,note_on,,,,,4,0,1,,,,,0,,,71,0
104201,note_on,,,,,3,0,1,,,,,0,,,38,0
104211,note_on,,,,,10,0,1,,,,,0,,,57,53
104244,note_on,,,,,33,0,1,,,,,0,,,60,55
104246,note_on,,,,,2,0,1,,,,,0,,,57,0
104274,note_on,,,,,28,0,1,,,,,0,,,60,0
104280,note_on,,,,,6,0,1,,,,,0,,,54,71
104282,note_on,,,,,2,0,1,,,,,0,,,66,38
104318,note_on,,,,,36,0,1,,,,,0,,,60,44
104321,note_on,,,,,3,0,1,,,,,0,,,66,0
104339,note_on,,,,,18,0,1,,,,,0,,,60,0
104341,note_on,,,,,2,0,1,,,,,0,,,57,54
104374,note_on,,,,,33,0,1,,,,,0,,,57,0
104399,note_on,,,,,25,0,1,,,,,0,,,54,0
104401,note_on,,,,,2,0,1,,,,,0,,,69,69
104403,note_on,,,,,2,0,1,,,,,0,,,56,65
104436,control_change,,,,,33,0,1,,,,,0,64,88,,
104440,control_change,,,,,4,0,1,,,,,0,64,0,,
104453,note_on,,,,,13,0,1,,,,,0,,,57,53
104468,control_change,,,,,15,0,1,,,,,0,64,104,,
104472,control_change,,,,,4,0,1,,,,,0,64,127,,
104486,note_on,,,,,14,0,1,,,,,0,,,69,0
104492,note_on,,,,,6,0,1,,,,,0,,,57,0
104493,note_on,,,,,1,0,1,,,,,0,,,60,51
104499,note_on,,,,,6,0,1,,,,,0,,,56,0
104519,note_on,,,,,20,0,1,,,,,0,,,60,0
104526,note_on,,,,,7,0,1,,,,,0,,,66,43
104566,note_on,,,,,40,0,1,,,,,0,,,60,59
104582,note_on,,,,,16,0,1,,,,,0,,,66,0
104608,note_on,,,,,26,0,1,,,,,0,,,60,0
104610,note_on,,,,,2,0,1,,,,,0,,,57,71
104634,note_on,,,,,24,0,1,,,,,0,,,57,0
104691,note_on,,,,,57,0,1,,,,,0,,,58,63
104707,note_on,,,,,16,0,1,,,,,0,,,49,25
104708,note_on,,,,,1,0,1,,,,,0,,,37,34
104710,control_change,,,,,2,0,1,,,,,0,64,72,,
104714,control_change,,,,,4,0,1,,,,,0,64,0,,
104747,control_change,,,,,33,0,1,,,,,0,64,88,,
104748,note_on,,,,,1,0,1,,,,,0,,,37,0
104750,note_on,,,,,2,0,1,,,,,0,,,49,0
104751,control_change,,,,,1,0,1,,,,,0,64,127,,
104767,note_on,,,,,0,0,1,,,,,0,,,61,54
104767,note_on,,,,,16,0,1,,,,,0,,,58,0
104782,note_on,,,,,15,0,1,,,,,0,,,54,51
104790,note_on,,,,,8,0,1,,,,,0,,,61,0
104800,note_on,,,,,10,0,1,,,,,0,,,54,0
104811,note_on,,,,,11,0,1,,,,,0,,,66,58
104815,note_on,,,,,4,0,1,,,,,0,,,58,57
104831,note_on,,,,,0,0,1,,,,,0,,,66,0
104831,note_on,,,,,16,0,1,,,,,0,,,58,0
104858,note_on,,,,,27,0,1,,,,,0,,,70,74
104860,note_on,,,,,2,0,1,,,,,0,,,66,58
104885,note_on,,,,,25,0,1,,,,,0,,,66,0
104894,note_on,,,,,9,0,1,,,,,0,,,58,46
104898,note_on,,,,,4,0,1,,,,,0,,,61,58
104907,note_on,,,,,9,0,1,,,,,0,,,70,0
104912,note_on,,,,,5,0,1,,,,,0,,,58,0
104927,note_on,,,,,15,0,1,,,,,0,,,61,0
104936,note_on,,,,,9,0,1,,,,,0,,,58,57
104937,note_on,,,,,1,0,1,,,,,0,,,54,44
104949,note_on,,,,,12,0,1,,,,,0,,,58,0
104957,note_on,,,,,8,0,1,,,,,0,,,54,0
104976,note_on,,,,,19,0,1,,,,,0,,,71,77
104979,note_on,,,,,3,0,1,,,,,0,,,49,49
104980,note_on,,,,,1,0,1,,,,,0,,,68,64
105002,note_on,,,,,22,0,1,,,,,0,,,49,0
105009,note_on,,,,,7,0,1,,,,,0,,,71,0
105014,note_on,,,,,5,0,1,,,,,0,,,68,0
105019,note_on,,,,,5,0,1,,,,,0,,,61,57
105023,note_on,,,,,4,0,1,,,,,0,,,54,40
105040,note_on,,,,,17,0,1,,,,,0,,,61,0
105046,note_on,,,,,6,0,1,,,,,0,,,54,0
105053,note_on,,,,,7,0,1,,,,,0,,,66,62
105064,note_on,,,,,11,0,1,,,,,0,,,58,29
105081,note_on,,,,,17,0,1,,,,,0,,,66,0
105090,note_on,,,,,0,0,1,,,,,0,,,73,77
105090,note_on,,,,,9,0,1,,,,,0,,,58,0
105092,note_on,,,,,2,0,1,,,,,0,,,70,62
105099,note_on,,,,,7,0,1,,,,,0,,,61,46
105119,note_on,,,,,20,0,1,,,,,0,,,70,0
105125,note_on,,,,,6,0,1,,,,,0,,,61,0
105132,note_on,,,,,7,0,1,,,,,0,,,58,46
105134,note_on,,,,,2,0,1,,,,,0,,,61,45
105158,note_on,,,,,24,0,1,,,,,0,,,58,0
105162,note_on,,,,,4,0,1,,,,,0,,,66,60
105171,note_on,,,,,0,0,1,,,,,0,,,73,0
105171,note_on,,,,,9,0,1,,,,,0,,,61,0
105204,note_on,,,,,33,0,1,,,,,0,,,66,0
105230,note_on,,,,,26,0,1,,,,,0,,,74,81
105234,note_on,,,,,4,0,1,,,,,0,,,71,56
105235,control_change,,,,,1,0,1,,,,,0,64,104,,
105239,control_change,,,,,4,0,1,,,,,0,64,24,,
105243,control_change,,,,,0,0,1,,,,,0,64,0,,
105243,note_on,,,,,4,0,1,,,,,0,,,37,47
105266,control_change,,,,,23,0,1,,,,,0,64,88,,
105270,note_on,,,,,4,0,1,,,,,0,,,37,0
105271,control_change,,,,,1,0,1,,,,,0,64,127,,
105273,note_on,,,,,2,0,1,,,,,0,,,62,62
105295,note_on,,,,,22,0,1,,,,,0,,,71,0
105303,note_on,,,,,8,0,1,,,,,0,,,62,0
105307,note_on,,,,,4,0,1,,,,,0,,,65,51
105336,note_on,,,,,29,0,1,,,,,0,,,65,0
105346,note_on,,,,,10,0,1,,,,,0,,,68,38
105350,note_on,,,,,4,0,1,,,,,0,,,58,76
105381,note_on,,,,,31,0,1,,,,,0,,,68,0
105382,note_on,,,,,1,0,1,,,,,0,,,65,56
105416,note_on,,,,,34,0,1,,,,,0,,,65,0
105416,note_on,,,,,0,0,1,,,,,0,,,62,62
105450,note_on,,,,,34,0,1,,,,,0,,,62,0
105450,note_on,,,,,0,0,1,,,,,0,,,58,0
105460,note_on,,,,,10,0,1,,,,,0,,,59,82
105484,note_on,,,,,24,0,1,,,,,0,,,74,0
105496,note_on,,,,,12,0,1,,,,,0,,,62,62
105501,control_change,,,,,5,0,1,,,,,0,64,104,,
105504,control_change,,,,,3,0,1,,,,,0,64,88,,
105508,control_change,,,,,4,0,1,,,,,0,64,104,,
105513,control_change,,,,,5,0,1,,,,,0,64,127,,
105522,note_on,,,,,9,0,1,,,,,0,,,65,52
105537,note_on,,,,,15,0,1,,,,,0,,,62,0
105559,note_on,,,,,22,0,1,,,,,0,,,65,0
105566,note_on,,,,,7,0,1,,,,,0,,,68,47
105567,note_on,,,,,1,0,1,,,,,0,,,73,83
105599,note_on,,,,,32,0,1,,,,,0,,,65,56
105626,note_on,,,,,0,0,1,,,,,0,,,59,0
105626,note_on,,,,,27,0,1,,,,,0,,,65,0
105628,note_on,,,,,2,0,1,,,,,0,,,61,78
105659,note_on,,,,,31,0,1,,,,,0,,,68,0
105660,note_on,,,,,1,0,1,,,,,0,,,61,0
105692,note_on,,,,,32,0,1,,,,,0,,,63,81
105694,control_change,,,,,2,0,1,,,,,0,64,104,,
105698,control_change,,,,,4,0,1,,,,,0,64,0,,
105715,note_on,,,,,17,0,1,,,,,0,,,63,0
105720,note_on,,,,,5,0,1,,,,,0,,,73,0
105723,control_change,,,,,3,0,1,,,,,0,64,104,,
105727,control_change,,,,,4,0,1,,,,,0,64,127,,
105737,note_on,,,,,10,0,1,,,,,0,,,58,46
105754,note_on,,,,,17,0,1,,,,,0,,,49,37
105765,note_on,,,,,11,0,1,,,,,0,,,58,0
105776,note_on,,,,,11,0,1,,,,,0,,,49,0
105776,note_on,,,,,0,0,1,,,,,0,,,66,50
105779,note_on,,,,,3,0,1,,,,,0,,,54,44
105805,note_on,,,,,26,0,1,,,,,0,,,66,0
105807,note_on,,,,,2,0,1,,,,,0,,,54,0
105814,note_on,,,,,7,0,1,,,,,0,,,61,73
105816,note_on,,,,,2,0,1,,,,,0,,,70,69
105838,note_on,,,,,22,0,1,,,,,0,,,61,0
105851,note_on,,,,,13,0,1,,,,,0,,,66,62
105852,note_on,,,,,1,0,1,,,,,0,,,58,55
105856,note_on,,,,,4,0,1,,,,,0,,,70,0
105878,note_on,,,,,22,0,1,,,,,0,,,58,0
105886,note_on,,,,,8,0,1,,,,,0,,,66,0
105890,note_on,,,,,4,0,1,,,,,0,,,54,53
105890,note_on,,,,,0,0,1,,,,,0,,,61,62
105917,note_on,,,,,27,0,1,,,,,0,,,54,0
105921,note_on,,,,,4,0,1,,,,,0,,,61,0
105928,note_on,,,,,7,0,1,,,,,0,,,49,53
105931,note_on,,,,,3,0,1,,,,,0,,,71,84
105933,note_on,,,,,2,0,1,,,,,0,,,68,65
105959,note_on,,,,,26,0,1,,,,,0,,,49,0
105967,note_on,,,,,8,0,1,,,,,0,,,71,0
105968,note_on,,,,,1,0,1,,,,,0,,,61,54
105969,note_on,,,,,1,0,1,,,,,0,,,68,0
105975,note_on,,,,,6,0,1,,,,,0,,,54,40
105999,note_on,,,,,24,0,1,,,,,0,,,54,0
106000,note_on,,,,,1,0,1,,,,,0,,,61,0
106008,note_on,,,,,8,0,1,,,,,0,,,66,46
106009,note_on,,,,,1,0,1,,,,,0,,,58,48
106034,note_on,,,,,25,0,1,,,,,0,,,66,0
106044,note_on,,,,,0,0,1,,,,,0,,,73,87
106044,note_on,,,,,10,0,1,,,,,0,,,58,0
106047,note_on,,,,,3,0,1,,,,,0,,,61,54
106048,note_on,,,,,1,0,1,,,,,0,,,70,65
106077,note_on,,,,,29,0,1,,,,,0,,,61,0
106079,note_on,,,,,2,0,1,,,,,0,,,70,0
106085,note_on,,,,,6,0,1,,,,,0,,,58,48
106088,note_on,,,,,3,0,1,,,,,0,,,61,55
106118,note_on,,,,,30,0,1,,,,,0,,,58,0
106122,note_on,,,,,4,0,1,,,,,0,,,54,55
106122,note_on,,,,,0,0,1,,,,,0,,,66,58
106126,note_on,,,,,4,0,1,,,,,0,,,73,0
106128,note_on,,,,,2,0,1,,,,,0,,,54,0
106133,note_on,,,,,5,0,1,,,,,0,,,61,0
106178,note_on,,,,,45,0,1,,,,,0,,,66,0
106182,note_on,,,,,4,0,1,,,,,0,,,75,86
106188,note_on,,,,,6,0,1,,,,,0,,,71,65
106199,control_change,,,,,11,0,1,,,,,0,64,40,,
106200,note_on,,,,,1,0,1,,,,,0,,,37,40
106201,note_on,,,,,1,0,1,,,,,0,,,25,44
106203,control_change,,,,,2,0,1,,,,,0,64,0,,
106222,note_on,,,,,19,0,1,,,,,0,,,25,0
106225,note_on,,,,,3,0,1,,,,,0,,,63,60
106227,control_change,,,,,2,0,1,,,,,0,64,104,,
106229,note_on,,,,,2,0,1,,,,,0,,,37,0
106230,control_change,,,,,1,0,1,,,,,0,64,127,,
106234,note_on,,,,,4,0,1,,,,,0,,,71,0
106259,note_on,,,,,25,0,1,,,,,0,,,66,57
106261,note_on,,,,,2,0,1,,,,,0,,,63,0
106294,note_on,,,,,33,0,1,,,,,0,,,66,0
106296,note_on,,,,,2,0,1,,,,,0,,,68,54
106310,note_on,,,,,14,0,1,,,,,0,,,58,73
106344,note_on,,,,,34,0,1,,,,,0,,,68,0
106355,note_on,,,,,11,0,1,,,,,0,,,63,47
106376,note_on,,,,,21,0,1,,,,,0,,,63,0
106397,note_on,,,,,21,0,1,,,,,0,,,58,0
106416,note_on,,,,,19,0,1,,,,,0,,,59,72
106457,note_on,,,,,41,0,1,,,,,0,,,66,58
106487,note_on,,,,,30,0,1,,,,,0,,,66,0
106491,note_on,,,,,4,0,1,,,,,0,,,68,61
106522,note_on,,,,,31,0,1,,,,,0,,,68,0
106534,note_on,,,,,12,0,1,,,,,0,,,71,55
106578,note_on,,,,,44,0,1,,,,,0,,,66,55
106583,note_on,,,,,5,0,1,,,,,0,,,71,0
106590,note_on,,,,,7,0,1,,,,,0,,,61,71
106593,note_on,,,,,3,0,1,,,,,0,,,59,0
106608,note_on,,,,,15,0,1,,,,,0,,,66,0
106619,note_on,,,,,11,0,1,,,,,0,,,68,63
106645,note_on,,,,,26,0,1,,,,,0,,,68,0
106656,note_on,,,,,11,0,1,,,,,0,,,61,0
106659,note_on,,,,,3,0,1,,,,,0,,,63,77
106685,control_change,,,,,26,0,1,,,,,0,64,104,,
106687,note_on,,,,,2,0,1,,,,,0,,,75,0
106690,control_change,,,,,3,0,1,,,,,0,64,0,,
106698,note_on,,,,,8,0,1,,,,,0,,,66,44
106714,control_change,,,,,16,0,1,,,,,0,64,104,,
106718,control_change,,,,,4,0,1,,,,,0,64,127,,
106733,note_on,,,,,15,0,1,,,,,0,,,66,0
106738,note_on,,,,,5,0,1,,,,,0,,,68,62
106776,note_on,,,,,38,0,1,,,,,0,,,68,0
106785,note_on,,,,,9,0,1,,,,,0,,,75,78
106795,note_on,,,,,10,0,1,,,,,0,,,71,46
106801,note_on,,,,,6,0,1,,,,,0,,,56,48
106828,note_on,,,,,27,0,1,,,,,0,,,71,0
106837,note_on,,,,,9,0,1,,,,,0,,,66,50
106843,note_on,,,,,6,0,1,,,,,0,,,63,0
106876,note_on,,,,,33,0,1,,,,,0,,,68,53
106877,note_on,,,,,1,0,1,,,,,0,,,66,0
106923,note_on,,,,,46,0,1,,,,,0,,,59,65
106956,note_on,,,,,33,0,1,,,,,0,,,68,0
106975,note_on,,,,,19,0,1,,,,,0,,,75,0
106975,note_on,,,,,0,0,1,,,,,0,,,63,54
107023,note_on,,,,,48,0,1,,,,,0,,,56,0
107036,note_on,,,,,13,0,1,,,,,0,,,66,62
107041,note_on,,,,,5,0,1,,,,,0,,,63,0
107059,note_on,,,,,18,0,1,,,,,0,,,59,0
107064,note_on,,,,,5,0,1,,,,,0,,,66,0
107080,note_on,,,,,16,0,1,,,,,0,,,49,43
107101,control_change,,,,,21,0,1,,,,,0,64,104,,
107105,control_change,,,,,4,0,1,,,,,0,64,0,,
107109,note_on,,,,,4,0,1,,,,,0,,,59,54
107121,note_on,,,,,12,0,1,,,,,0,,,65,47
107133,control_change,,,,,12,0,1,,,,,0,64,24,,
107137,control_change,,,,,4,0,1,,,,,0,64,88,,
107141,control_change,,,,,4,0,1,,,,,0,64,127,,
107152,note_on,,,,,11,0,1,,,,,0,,,68,58
107206,note_on,,,,,54,0,1,,,,,0,,,75,75
107222,note_on,,,,,16,0,1,,,,,0,,,65,0
107237,note_on,,,,,15,0,1,,,,,0,,,68,0
107322,note_on,,,,,85,0,1,,,,,0,,,65,35
107323,note_on,,,,,1,0,1,,,,,0,,,68,28
107383,control_change,,,,,60,0,1,,,,,0,64,104,,
107387,control_change,,,,,4,0,1,,,,,0,64,40,,
107391,control_change,,,,,4,0,1,,,,,0,64,0,,
107411,control_change,,,,,20,0,1,,,,,0,64,88,,
107415,control_change,,,,,4,0,1,,,,,0,64,127,,
107442,note_on,,,,,27,0,1,,,,,0,,,59,0
107446,note_on,,,,,4,0,1,,,,,0,,,49,0
107503,note_on,,,,,57,0,1,,,,,0,,,65,0
107516,note_on,,,,,13,0,1,,,,,0,,,75,0
107543,note_on,,,,,27,0,1,,,,,0,,,73,54
107551,note_on,,,,,8,0,1,,,,,0,,,68,0
107576,control_change,,,,,25,0,1,,,,,0,64,88,,
107580,control_change,,,,,4,0,1,,,,,0,64,24,,
107585,control_change,,,,,5,0,1,,,,,0,64,0,,
107593,control_change,,,,,8,0,1,,,,,0,64,40,,
107597,control_change,,,,,4,0,1,,,,,0,64,104,,
107601,control_change,,,,,4,0,1,,,,,0,64,127,,
107619,note_on,,,,,18,0,1,,,,,0,,,73,0
107662,set_tempo,,,,,107662,1,0,,545455,,,,,,,
107662,note_on,,,,,43,0,1,,,,,0,,,61,48
107664,control_change,,,,,2,0,1,,,,,0,64,56,,
107667,control_change,,,,,3,0,1,,,,,0,64,104,,
107671,control_change,,,,,4,0,1,,,,,0,64,127,,
107683,note_on,,,,,12,0,1,,,,,0,,,66,47
107689,note_on,,,,,6,0,1,,,,,0,,,61,0
107694,note_on,,,,,5,0,1,,,,,0,,,70,61
107698,note_on,,,,,4,0,1,,,,,0,,,42,34
107710,note_on,,,,,12,0,1,,,,,0,,,66,0
107715,note_on,,,,,5,0,1,,,,,0,,,73,76
107719,note_on,,,,,4,0,1,,,,,0,,,70,0
107734,note_on,,,,,15,0,1,,,,,0,,,73,0
107751,note_on,,,,,17,0,1,,,,,0,,,42,0
107753,note_on,,,,,2,0,1,,,,,0,,,49,51
107783,note_on,,,,,30,0,1,,,,,0,,,49,0
107788,note_on,,,,,5,0,1,,,,,0,,,51,44
107810,note_on,,,,,22,0,1,,,,,0,,,51,0
107818,note_on,,,,,8,0,1,,,,,0,,,54,44
107839,note_on,,,,,21,0,1,,,,,0,,,54,0
107847,note_on,,,,,8,0,1,,,,,0,,,58,47
107867,note_on,,,,,20,0,1,,,,,0,,,58,0
107874,note_on,,,,,7,0,1,,,,,0,,,61,51
107901,note_on,,,,,27,0,1,,,,,0,,,61,0
107907,note_on,,,,,6,0,1,,,,,0,,,63,50
107935,note_on,,,,,28,0,1,,,,,0,,,63,0
107939,note_on,,,,,4,0,1,,,,,0,,,61,44
107958,note_on,,,,,19,0,1,,,,,0,,,61,0
107962,note_on,,,,,4,0,1,,,,,0,,,58,39
107977,note_on,,,,,15,0,1,,,,,0,,,58,0
107994,note_on,,,,,17,0,1,,,,,0,,,54,40
108020,note_on,,,,,0,0,1,,,,,0,,,51,48
108020,note_on,,,,,26,0,1,,,,,0,,,54,0
108042,note_on,,,,,22,0,1,,,,,0,,,51,0
108048,note_on,,,,,0,0,1,,,,,0,,,49,35
108048,note_on,,,,,6,0,1,,,,,0,,,66,39
108067,note_on,,,,,19,0,1,,,,,0,,,70,48
108072,note_on,,,,,5,0,1,,,,,0,,,73,62
108077,note_on,,,,,5,0,1,,,,,0,,,49,0
108077,control_change,,,,,0,0,1,,,,,0,64,56,,
108081,control_change,,,,,4,0,1,,,,,0,64,0,,
108081,note_on,,,,,0,0,1,,,,,0,,,42,39
108086,note_on,,,,,5,0,1,,,,,0,,,66,0
108092,note_on,,,,,6,0,1,,,,,0,,,78,78
108093,note_on,,,,,1,0,1,,,,,0,,,70,0
108097,note_on,,,,,4,0,1,,,,,0,,,73,0
108103,control_change,,,,,6,0,1,,,,,0,64,56,,
108107,control_change,,,,,4,0,1,,,,,0,64,127,,
108122,note_on,,,,,15,0,1,,,,,0,,,78,0
108127,note_on,,,,,5,0,1,,,,,0,,,49,54
108130,note_on,,,,,3,0,1,,,,,0,,,42,0
108149,note_on,,,,,19,0,1,,,,,0,,,49,0
108155,note_on,,,,,6,0,1,,,,,0,,,51,64
108180,note_on,,,,,25,0,1,,,,,0,,,51,0
108184,note_on,,,,,4,0,1,,,,,0,,,54,60
108209,note_on,,,,,25,0,1,,,,,0,,,54,0
108213,note_on,,,,,4,0,1,,,,,0,,,58,58
108236,note_on,,,,,23,0,1,,,,,0,,,58,0
108237,note_on,,,,,1,0,1,,,,,0,,,68,45
108243,note_on,,,,,6,0,1,,,,,0,,,61,60
108252,note_on,,,,,9,0,1,,,,,0,,,70,58
108257,note_on,,,,,5,0,1,,,,,0,,,73,64
108260,note_on,,,,,3,0,1,,,,,0,,,68,0
108271,note_on,,,,,11,0,1,,,,,0,,,70,0
108273,note_on,,,,,2,0,1,,,,,0,,,61,0
108276,note_on,,,,,3,0,1,,,,,0,,,80,81
108278,note_on,,,,,2,0,1,,,,,0,,,63,48
108281,note_on,,,,,3,0,1,,,,,0,,,73,0
108292,note_on,,,,,11,0,1,,,,,0,,,80,0
108311,note_on,,,,,19,0,1,,,,,0,,,63,0
108312,note_on,,,,,1,0,1,,,,,0,,,61,47
108336,note_on,,,,,24,0,1,,,,,0,,,61,0
108338,note_on,,,,,2,0,1,,,,,0,,,58,47
108356,note_on,,,,,18,0,1,,,,,0,,,58,0
108373,note_on,,,,,17,0,1,,,,,0,,,54,45
108393,note_on,,,,,20,0,1,,,,,0,,,54,0
108393,note_on,,,,,0,0,1,,,,,0,,,51,54
108418,note_on,,,,,25,0,1,,,,,0,,,70,52
108419,note_on,,,,,1,0,1,,,,,0,,,51,0
108422,note_on,,,,,3,0,1,,,,,0,,,49,44
108435,note_on,,,,,13,0,1,,,,,0,,,73,40
108445,note_on,,,,,10,0,1,,,,,0,,,78,62
108447,control_change,,,,,2,0,1,,,,,0,64,88,,
108452,control_change,,,,,5,0,1,,,,,0,64,0,,
108454,note_on,,,,,2,0,1,,,,,0,,,49,0
108461,note_on,,,,,7,0,1,,,,,0,,,42,47
108464,note_on,,,,,3,0,1,,,,,0,,,82,76
108491,control_change,,,,,27,0,1,,,,,0,64,72,,
108495,control_change,,,,,4,0,1,,,,,0,64,127,,
108499,note_on,,,,,4,0,1,,,,,0,,,49,45
108500,note_on,,,,,1,0,1,,,,,0,,,42,0
108527,note_on,,,,,27,0,1,,,,,0,,,49,0
108530,note_on,,,,,3,0,1,,,,,0,,,51,49
108552,note_on,,,,,22,0,1,,,,,0,,,51,0
108561,note_on,,,,,9,0,1,,,,,0,,,54,47
108581,note_on,,,,,20,0,1,,,,,0,,,54,0
108588,note_on,,,,,7,0,1,,,,,0,,,58,50
108607,note_on,,,,,19,0,1,,,,,0,,,58,0
108616,note_on,,,,,9,0,1,,,,,0,,,61,56
108642,note_on,,,,,26,0,1,,,,,0,,,61,0
108647,note_on,,,,,5,0,1,,,,,0,,,63,46
108674,note_on,,,,,27,0,1,,,,,0,,,63,0
108677,note_on,,,,,3,0,1,,,,,0,,,61,47
108703,note_on,,,,,0,0,1,,,,,0,,,58,50
108703,note_on,,,,,26,0,1,,,,,0,,,61,0
108724,note_on,,,,,21,0,1,,,,,0,,,58,0
108736,note_on,,,,,12,0,1,,,,,0,,,54,51
108765,note_on,,,,,29,0,1,,,,,0,,,51,50
108767,note_on,,,,,2,0,1,,,,,0,,,54,0
108790,note_on,,,,,23,0,1,,,,,0,,,51,0
108795,note_on,,,,,5,0,1,,,,,0,,,49,45
108824,note_on,,,,,29,0,1,,,,,0,,,49,0
108830,note_on,,,,,6,0,1,,,,,0,,,42,55
108847,control_change,,,,,17,0,1,,,,,0,64,56,,
108851,control_change,,,,,4,0,1,,,,,0,64,0,,
108866,note_on,,,,,15,0,1,,,,,0,,,49,48
108868,note_on,,,,,2,0,1,,,,,0,,,42,0
108876,control_change,,,,,8,0,1,,,,,0,64,104,,
108880,control_change,,,,,4,0,1,,,,,0,64,127,,
108888,note_on,,,,,8,0,1,,,,,0,,,49,0
108893,note_on,,,,,5,0,1,,,,,0,,,51,47
108914,note_on,,,,,21,0,1,,,,,0,,,51,0
108919,note_on,,,,,5,0,1,,,,,0,,,82,0
108921,note_on,,,,,2,0,1,,,,,0,,,54,49
108922,note_on,,,,,1,0,1,,,,,0,,,78,0
108928,note_on,,,,,6,0,1,,,,,0,,,73,0
108935,note_on,,,,,7,0,1,,,,,0,,,70,0
108943,note_on,,,,,8,0,1,,,,,0,,,54,0
108949,note_on,,,,,6,0,1,,,,,0,,,58,47
108970,note_on,,,,,21,0,1,,,,,0,,,58,0
108980,note_on,,,,,10,0,1,,,,,0,,,66,40
108981,note_on,,,,,1,0,1,,,,,0,,,61,49
108993,note_on,,,,,12,0,1,,,,,0,,,70,55
108999,note_on,,,,,6,0,1,,,,,0,,,73,59
109003,note_on,,,,,4,0,1,,,,,0,,,66,0
109006,note_on,,,,,3,0,1,,,,,0,,,61,0
109011,note_on,,,,,5,0,1,,,,,0,,,70,0
109014,note_on,,,,,3,0,1,,,,,0,,,78,74
109016,note_on,,,,,0,0,1,,,,,0,,,63,37
109016,note_on,,,,,2,0,1,,,,,0,,,73,0
109028,note_on,,,,,12,0,1,,,,,0,,,78,0
109044,note_on,,,,,16,0,1,,,,,0,,,63,0
109045,note_on,,,,,1,0,1,,,,,0,,,61,44
109067,note_on,,,,,22,0,1,,,,,0,,,61,0
109072,note_on,,,,,5,0,1,,,,,0,,,58,46
109088,note_on,,,,,16,0,1,,,,,0,,,58,0
109107,note_on,,,,,19,0,1,,,,,0,,,54,44
109128,note_on,,,,,0,0,1,,,,,0,,,51,54
109128,note_on,,,,,21,0,1,,,,,0,,,54,0
109147,note_on,,,,,19,0,1,,,,,0,,,51,0
109151,note_on,,,,,4,0,1,,,,,0,,,49,43
109160,note_on,,,,,9,0,1,,,,,0,,,63,38
109175,note_on,,,,,15,0,1,,,,,0,,,66,37
109181,note_on,,,,,6,0,1,,,,,0,,,71,62
109188,control_change,,,,,7,0,1,,,,,0,64,40,,
109190,note_on,,,,,2,0,1,,,,,0,,,49,0
109191,note_on,,,,,1,0,1,,,,,0,,,63,0
109192,control_change,,,,,1,0,1,,,,,0,64,127,,
109198,note_on,,,,,6,0,1,,,,,0,,,75,79
109201,note_on,,,,,3,0,1,,,,,0,,,66,0
109202,note_on,,,,,1,0,1,,,,,0,,,42,55
109205,note_on,,,,,3,0,1,,,,,0,,,71,0
109214,control_change,,,,,9,0,1,,,,,0,64,56,,
109217,control_change,,,,,3,0,1,,,,,0,64,127,,
109228,note_on,,,,,11,0,1,,,,,0,,,75,0
109238,note_on,,,,,10,0,1,,,,,0,,,42,0
109240,note_on,,,,,2,0,1,,,,,0,,,51,50
109259,note_on,,,,,19,0,1,,,,,0,,,51,0
109264,note_on,,,,,5,0,1,,,,,0,,,54,44
109280,note_on,,,,,16,0,1,,,,,0,,,54,0
109291,note_on,,,,,11,0,1,,,,,0,,,56,43
109318,note_on,,,,,27,0,1,,,,,0,,,56,0
109321,note_on,,,,,3,0,1,,,,,0,,,59,45
109334,note_on,,,,,13,0,1,,,,,0,,,66,45
109343,note_on,,,,,9,0,1,,,,,0,,,59,0
109344,note_on,,,,,1,0,1,,,,,0,,,61,50
109350,note_on,,,,,6,0,1,,,,,0,,,71,56
109355,note_on,,,,,5,0,1,,,,,0,,,75,68
109363,note_on,,,,,8,0,1,,,,,0,,,66,0
109367,note_on,,,,,4,0,1,,,,,0,,,71,0
109372,note_on,,,,,5,0,1,,,,,0,,,61,0
109374,note_on,,,,,2,0,1,,,,,0,,,78,73
109376,note_on,,,,,2,0,1,,,,,0,,,63,46
109379,note_on,,,,,3,0,1,,,,,0,,,75,0
109388,note_on,,,,,9,0,1,,,,,0,,,78,0
109406,note_on,,,,,18,0,1,,,,,0,,,61,51
109407,note_on,,,,,1,0,1,,,,,0,,,63,0
109435,note_on,,,,,28,0,1,,,,,0,,,59,43
109443,note_on,,,,,8,0,1,,,,,0,,,61,0
109449,note_on,,,,,6,0,1,,,,,0,,,59,0
109452,note_on,,,,,3,0,1,,,,,0,,,56,51
109473,note_on,,,,,21,0,1,,,,,0,,,56,0
109484,note_on,,,,,11,0,1,,,,,0,,,54,46
109504,note_on,,,,,20,0,1,,,,,0,,,71,61
109505,note_on,,,,,1,0,1,,,,,0,,,51,49
109506,note_on,,,,,1,0,1,,,,,0,,,54,0
109515,note_on,,,,,9,0,1,,,,,0,,,75,55
109521,note_on,,,,,6,0,1,,,,,0,,,78,67
109525,note_on,,,,,4,0,1,,,,,0,,,71,0
109537,note_on,,,,,0,0,1,,,,,0,,,75,0
109537,note_on,,,,,12,0,1,,,,,0,,,51,0
109540,note_on,,,,,3,0,1,,,,,0,,,83,84
109541,note_on,,,,,1,0,1,,,,,0,,,78,0
109548,note_on,,,,,7,0,1,,,,,0,,,42,50
109551,note_on,,,,,3,0,1,,,,,0,,,83,0
109583,note_on,,,,,32,0,1,,,,,0,,,51,43
109588,note_on,,,,,5,0,1,,,,,0,,,42,0
109600,note_on,,,,,12,0,1,,,,,0,,,51,0
109606,note_on,,,,,6,0,1,,,,,0,,,54,45
109621,note_on,,,,,15,0,1,,,,,0,,,54,0
109629,note_on,,,,,8,0,1,,,,,0,,,56,45
109656,note_on,,,,,27,0,1,,,,,0,,,56,0
109658,note_on,,,,,2,0,1,,,,,0,,,59,63
109660,note_on,,,,,2,0,1,,,,,0,,,75,49
109675,note_on,,,,,15,0,1,,,,,0,,,78,55
109680,note_on,,,,,5,0,1,,,,,0,,,75,0
109684,note_on,,,,,4,0,1,,,,,0,,,83,66
109687,note_on,,,,,3,0,1,,,,,0,,,59,0
109691,note_on,,,,,4,0,1,,,,,0,,,61,54
109697,note_on,,,,,6,0,1,,,,,0,,,78,0
109706,note_on,,,,,9,0,1,,,,,0,,,87,81
109710,note_on,,,,,4,0,1,,,,,0,,,83,0
109715,note_on,,,,,5,0,1,,,,,0,,,61,0
109720,note_on,,,,,5,0,1,,,,,0,,,63,53
109721,note_on,,,,,1,0,1,,,,,0,,,87,0
109745,note_on,,,,,24,0,1,,,,,0,,,61,46
109748,note_on,,,,,3,0,1,,,,,0,,,63,0
109773,note_on,,,,,25,0,1,,,,,0,,,59,46
109783,note_on,,,,,10,0,1,,,,,0,,,61,0
109791,note_on,,,,,8,0,1,,,,,0,,,59,0
109799,note_on,,,,,8,0,1,,,,,0,,,56,53
109821,note_on,,,,,22,0,1,,,,,0,,,56,0
109829,note_on,,,,,8,0,1,,,,,0,,,54,45
109850,note_on,,,,,21,0,1,,,,,0,,,51,56
109853,note_on,,,,,3,0,1,,,,,0,,,54,0
109867,note_on,,,,,14,0,1,,,,,0,,,73,54
109884,note_on,,,,,17,0,1,,,,,0,,,78,55
109891,note_on,,,,,7,0,1,,,,,0,,,82,61
109892,note_on,,,,,1,0,1,,,,,0,,,51,0
109892,control_change,,,,,0,0,1,,,,,0,64,72,,
109896,control_change,,,,,4,0,1,,,,,0,64,0,,
109900,note_on,,,,,4,0,1,,,,,0,,,42,50
109910,note_on,,,,,10,0,1,,,,,0,,,85,73
109940,control_change,,,,,30,0,1,,,,,0,64,127,,
109940,note_on,,,,,0,0,1,,,,,0,,,49,55
109943,note_on,,,,,3,0,1,,,,,0,,,42,0
109967,note_on,,,,,24,0,1,,,,,0,,,49,0
109971,note_on,,,,,4,0,1,,,,,0,,,51,59
109994,note_on,,,,,23,0,1,,,,,0,,,51,0
109999,note_on,,,,,5,0,1,,,,,0,,,54,52
110024,note_on,,,,,25,0,1,,,,,0,,,54,0
110025,note_on,,,,,1,0,1,,,,,0,,,58,56
110046,note_on,,,,,21,0,1,,,,,0,,,58,0
110053,note_on,,,,,7,0,1,,,,,0,,,61,64
110082,note_on,,,,,29,0,1,,,,,0,,,61,0
110087,note_on,,,,,5,0,1,,,,,0,,,63,50
110114,note_on,,,,,27,0,1,,,,,0,,,63,0
110118,note_on,,,,,4,0,1,,,,,0,,,61,47
110140,note_on,,,,,22,0,1,,,,,0,,,58,49
110141,note_on,,,,,1,0,1,,,,,0,,,61,0
110158,note_on,,,,,17,0,1,,,,,0,,,58,0
110168,note_on,,,,,10,0,1,,,,,0,,,82,0
110169,note_on,,,,,1,0,1,,,,,0,,,85,0
110171,note_on,,,,,2,0,1,,,,,0,,,54,56
110172,note_on,,,,,1,0,1,,,,,0,,,78,0
110191,note_on,,,,,19,0,1,,,,,0,,,73,0
110200,note_on,,,,,9,0,1,,,,,0,,,54,0
110201,note_on,,,,,1,0,1,,,,,0,,,51,44
110215,note_on,,,,,14,0,1,,,,,0,,,51,0
110237,note_on,,,,,22,0,1,,,,,0,,,70,43
110250,note_on,,,,,13,0,1,,,,,0,,,73,42
110259,note_on,,,,,9,0,1,,,,,0,,,78,54
110270,note_on,,,,,11,0,1,,,,,0,,,42,46
110270,control_change,,,,,0,0,1,,,,,0,64,88,,
110274,control_change,,,,,4,0,1,,,,,0,64,0,,
110275,note_on,,,,,1,0,1,,,,,0,,,82,63
110289,note_on,,,,,14,0,1,,,,,0,,,78,0
110306,control_change,,,,,17,0,1,,,,,0,64,127,,
110309,note_on,,,,,3,0,1,,,,,0,,,49,46
110311,note_on,,,,,2,0,1,,,,,0,,,42,0
110339,note_on,,,,,0,0,1,,,,,0,,,51,47
110339,note_on,,,,,28,0,1,,,,,0,,,49,0
110361,note_on,,,,,22,0,1,,,,,0,,,51,0
110367,note_on,,,,,6,0,1,,,,,0,,,54,46
110392,note_on,,,,,25,0,1,,,,,0,,,54,0
110396,note_on,,,,,4,0,1,,,,,0,,,58,40
110419,note_on,,,,,23,0,1,,,,,0,,,58,0
110421,note_on,,,,,2,0,1,,,,,0,,,61,57
110448,note_on,,,,,27,0,1,,,,,0,,,61,0
110452,note_on,,,,,4,0,1,,,,,0,,,63,49
110480,note_on,,,,,28,0,1,,,,,0,,,63,0
110482,note_on,,,,,2,0,1,,,,,0,,,61,46
110506,note_on,,,,,24,0,1,,,,,0,,,58,43
110508,note_on,,,,,2,0,1,,,,,0,,,61,0
110526,note_on,,,,,18,0,1,,,,,0,,,58,0
110546,note_on,,,,,20,0,1,,,,,0,,,54,40
110576,note_on,,,,,30,0,1,,,,,0,,,54,0
110578,note_on,,,,,2,0,1,,,,,0,,,82,0
110579,note_on,,,,,1,0,1,,,,,0,,,51,40
110596,note_on,,,,,17,0,1,,,,,0,,,51,0
110596,note_on,,,,,0,0,1,,,,,0,,,73,0
110597,note_on,,,,,1,0,1,,,,,0,,,70,0
110599,note_on,,,,,2,0,1,,,,,0,,,49,39
110623,note_on,,,,,24,0,1,,,,,0,,,68,45
110627,note_on,,,,,4,0,1,,,,,0,,,49,0
110639,note_on,,,,,12,0,1,,,,,0,,,73,53
110640,control_change,,,,,1,0,1,,,,,0,64,24,,
110640,note_on,,,,,0,0,1,,,,,0,,,77,62
110644,control_change,,,,,4,0,1,,,,,0,64,0,,
110647,note_on,,,,,3,0,1,,,,,0,,,47,53
110659,note_on,,,,,12,0,1,,,,,0,,,80,77
110666,note_on,,,,,7,0,1,,,,,0,,,68,0
110668,note_on,,,,,0,0,1,,,,,0,,,77,0
110668,note_on,,,,,2,0,1,,,,,0,,,73,0
110669,control_change,,,,,1,0,1,,,,,0,64,127,,
110680,note_on,,,,,11,0,1,,,,,0,,,47,0
110681,note_on,,,,,1,0,1,,,,,0,,,80,0
110694,note_on,,,,,13,0,1,,,,,0,,,53,33
110715,note_on,,,,,21,0,1,,,,,0,,,53,0
110717,note_on,,,,,2,0,1,,,,,0,,,56,56
110741,note_on,,,,,24,0,1,,,,,0,,,56,0
110747,note_on,,,,,6,0,1,,,,,0,,,59,55
110770,note_on,,,,,23,0,1,,,,,0,,,61,58
110776,note_on,,,,,6,0,1,,,,,0,,,59,0
110801,note_on,,,,,25,0,1,,,,,0,,,75,53
110802,note_on,,,,,1,0,1,,,,,0,,,63,53
110807,note_on,,,,,5,0,1,,,,,0,,,61,0
110811,note_on,,,,,4,0,1,,,,,0,,,77,56
110818,note_on,,,,,7,0,1,,,,,0,,,80,65
110829,note_on,,,,,11,0,1,,,,,0,,,63,0
110830,note_on,,,,,1,0,1,,,,,0,,,77,0
110836,note_on,,,,,6,0,1,,,,,0,,,65,52
110837,note_on,,,,,1,0,1,,,,,0,,,87,90
110846,note_on,,,,,9,0,1,,,,,0,,,80,0
110865,note_on,,,,,19,0,1,,,,,0,,,65,0
110866,note_on,,,,,1,0,1,,,,,0,,,63,49
110890,note_on,,,,,24,0,1,,,,,0,,,61,42
110893,note_on,,,,,3,0,1,,,,,0,,,63,0
110905,note_on,,,,,12,0,1,,,,,0,,,61,0
110915,note_on,,,,,10,0,1,,,,,0,,,59,58
110936,note_on,,,,,21,0,1,,,,,0,,,75,0
110937,note_on,,,,,1,0,1,,,,,0,,,59,0
110941,note_on,,,,,4,0,1,,,,,0,,,56,42
110953,note_on,,,,,12,0,1,,,,,0,,,87,0
110959,note_on,,,,,6,0,1,,,,,0,,,56,0
110966,note_on,,,,,7,0,1,,,,,0,,,53,44
110968,note_on,,,,,2,0,1,,,,,0,,,85,78
110969,note_on,,,,,1,0,1,,,,,0,,,73,57
110989,note_on,,,,,20,0,1,,,,,0,,,73,0
110995,note_on,,,,,6,0,1,,,,,0,,,85,0
111003,note_on,,,,,8,0,1,,,,,0,,,53,0
111018,note_on,,,,,15,0,1,,,,,0,,,46,52
111025,note_on,,,,,0,0,1,,,,,0,,,73,67
111025,note_on,,,,,7,0,1,,,,,0,,,85,77
111028,note_on,,,,,3,0,1,,,,,0,,,82,47
111028,note_on,,,,,0,0,1,,,,,0,,,78,47
111036,control_change,,,,,8,0,1,,,,,0,64,56,,
111040,control_change,,,,,4,0,1,,,,,0,64,0,,
111062,note_on,,,,,22,0,1,,,,,0,,,46,0
111062,note_on,,,,,0,0,1,,,,,0,,,54,51
111065,control_change,,,,,3,0,1,,,,,0,64,72,,
111069,control_change,,,,,4,0,1,,,,,0,64,127,,
111090,note_on,,,,,21,0,1,,,,,0,,,54,0
111092,note_on,,,,,2,0,1,,,,,0,,,56,49
111116,note_on,,,,,24,0,1,,,,,0,,,56,0
111120,note_on,,,,,4,0,1,,,,,0,,,58,47
111149,note_on,,,,,0,0,1,,,,,0,,,61,55
111149,note_on,,,,,29,0,1,,,,,0,,,58,0
111172,note_on,,,,,23,0,1,,,,,0,,,61,0
111177,note_on,,,,,5,0,1,,,,,0,,,63,59
111205,note_on,,,,,0,0,1,,,,,0,,,82,0
111205,note_on,,,,,28,0,1,,,,,0,,,63,0
111206,note_on,,,,,1,0,1,,,,,0,,,85,0
111206,note_on,,,,,0,0,1,,,,,0,,,78,0
111208,note_on,,,,,2,0,1,,,,,0,,,66,57
111211,note_on,,,,,3,0,1,,,,,0,,,73,0
111238,note_on,,,,,27,0,1,,,,,0,,,66,0
111242,note_on,,,,,4,0,1,,,,,0,,,63,46
111265,note_on,,,,,23,0,1,,,,,0,,,61,44
111266,note_on,,,,,1,0,1,,,,,0,,,63,0
111274,note_on,,,,,8,0,1,,,,,0,,,61,0
111290,note_on,,,,,0,0,1,,,,,0,,,58,43
111290,note_on,,,,,16,0,1,,,,,0,,,78,75
111292,note_on,,,,,2,0,1,,,,,0,,,66,57
111315,note_on,,,,,23,0,1,,,,,0,,,66,0
111320,note_on,,,,,5,0,1,,,,,0,,,56,40
111321,note_on,,,,,1,0,1,,,,,0,,,58,0
111324,note_on,,,,,3,0,1,,,,,0,,,78,0
111337,note_on,,,,,13,0,1,,,,,0,,,56,0
111339,note_on,,,,,2,0,1,,,,,0,,,54,40
111346,note_on,,,,,7,0,1,,,,,0,,,54,0
111356,note_on,,,,,10,0,1,,,,,0,,,65,62
111372,note_on,,,,,16,0,1,,,,,0,,,71,45
111374,note_on,,,,,2,0,1,,,,,0,,,73,63
111384,control_change,,,,,10,0,1,,,,,0,64,56,,
111388,control_change,,,,,4,0,1,,,,,0,64,0,,
111390,note_on,,,,,2,0,1,,,,,0,,,77,80
111393,note_on,,,,,3,0,1,,,,,0,,,44,50
111402,note_on,,,,,9,0,1,,,,,0,,,71,0
111404,note_on,,,,,2,0,1,,,,,0,,,73,0
111414,control_change,,,,,10,0,1,,,,,0,64,40,,
111417,control_change,,,,,3,0,1,,,,,0,64,127,,
111422,note_on,,,,,5,0,1,,,,,0,,,44,0
111424,note_on,,,,,2,0,1,,,,,0,,,49,49
111436,note_on,,,,,12,0,1,,,,,0,,,65,0
111453,note_on,,,,,17,0,1,,,,,0,,,49,0
111454,note_on,,,,,1,0,1,,,,,0,,,53,64
111476,note_on,,,,,22,0,1,,,,,0,,,53,0
111487,note_on,,,,,11,0,1,,,,,0,,,59,38
111496,note_on,,,,,9,0,1,,,,,0,,,77,0
111517,note_on,,,,,21,0,1,,,,,0,,,59,0
111519,note_on,,,,,2,0,1,,,,,0,,,60,59
111542,note_on,,,,,23,0,1,,,,,0,,,60,0
111544,note_on,,,,,2,0,1,,,,,0,,,61,67
111571,note_on,,,,,27,0,1,,,,,0,,,61,0
111574,note_on,,,,,3,0,1,,,,,0,,,83,82
111576,note_on,,,,,2,0,1,,,,,0,,,71,56
111578,note_on,,,,,2,0,1,,,,,0,,,73,48
111579,note_on,,,,,1,0,1,,,,,0,,,77,54
111582,note_on,,,,,3,0,1,,,,,0,,,63,48
111607,note_on,,,,,25,0,1,,,,,0,,,63,0
111612,note_on,,,,,5,0,1,,,,,0,,,61,56
111637,note_on,,,,,25,0,1,,,,,0,,,59,43
111640,note_on,,,,,3,0,1,,,,,0,,,61,0
111659,note_on,,,,,19,0,1,,,,,0,,,83,0
111670,note_on,,,,,11,0,1,,,,,0,,,71,0
111674,note_on,,,,,4,0,1,,,,,0,,,59,0
111675,note_on,,,,,1,0,1,,,,,0,,,56,48
111688,note_on,,,,,13,0,1,,,,,0,,,56,0
111708,note_on,,,,,20,0,1,,,,,0,,,53,62
111722,note_on,,,,,14,0,1,,,,,0,,,82,69
111726,note_on,,,,,4,0,1,,,,,0,,,70,48
111728,note_on,,,,,2,0,1,,,,,0,,,53,0
111729,note_on,,,,,1,0,1,,,,,0,,,77,0
111736,note_on,,,,,7,0,1,,,,,0,,,49,45
111737,note_on,,,,,1,0,1,,,,,0,,,73,0
111745,note_on,,,,,8,0,1,,,,,0,,,70,0
111750,note_on,,,,,5,0,1,,,,,0,,,82,0
111776,note_on,,,,,26,0,1,,,,,0,,,49,0
111779,note_on,,,,,3,0,1,,,,,0,,,82,77
111779,note_on,,,,,0,0,1,,,,,0,,,70,67
111783,note_on,,,,,0,0,1,,,,,0,,,78,44
111783,note_on,,,,,4,0,1,,,,,0,,,73,46
111787,note_on,,,,,4,0,1,,,,,0,,,42,52
111790,control_change,,,,,3,0,1,,,,,0,64,88,,
111795,control_change,,,,,5,0,1,,,,,0,64,0,,
111825,note_on,,,,,30,0,1,,,,,0,,,49,51
111827,note_on,,,,,2,0,1,,,,,0,,,42,0
111838,control_change,,,,,11,0,1,,,,,0,64,127,,
111852,note_on,,,,,14,0,1,,,,,0,,,49,0
111855,note_on,,,,,3,0,1,,,,,0,,,51,53
111877,note_on,,,,,22,0,1,,,,,0,,,51,0
111884,note_on,,,,,7,0,1,,,,,0,,,54,44
111905,note_on,,,,,21,0,1,,,,,0,,,54,0
111912,note_on,,,,,7,0,1,,,,,0,,,58,46
111935,note_on,,,,,23,0,1,,,,,0,,,58,0
111941,note_on,,,,,6,0,1,,,,,0,,,61,57
111973,note_on,,,,,32,0,1,,,,,0,,,61,0
111977,note_on,,,,,4,0,1,,,,,0,,,63,49
112005,note_on,,,,,28,0,1,,,,,0,,,82,0
112007,note_on,,,,,2,0,1,,,,,0,,,63,0
112010,note_on,,,,,3,0,1,,,,,0,,,61,50
112015,note_on,,,,,5,0,1,,,,,0,,,70,0
112026,note_on,,,,,11,0,1,,,,,0,,,61,0
112033,note_on,,,,,7,0,1,,,,,0,,,58,50
112046,note_on,,,,,13,0,1,,,,,0,,,58,0
112059,note_on,,,,,13,0,1,,,,,0,,,73,0
112063,note_on,,,,,4,0,1,,,,,0,,,78,0
112067,note_on,,,,,4,0,1,,,,,0,,,81,78
112068,note_on,,,,,1,0,1,,,,,0,,,54,45
112072,note_on,,,,,4,0,1,,,,,0,,,69,62
112075,note_on,,,,,3,0,1,,,,,0,,,54,0
112095,note_on,,,,,20,0,1,,,,,0,,,51,50
112112,note_on,,,,,17,0,1,,,,,0,,,69,0
112115,note_on,,,,,3,0,1,,,,,0,,,81,0
112118,note_on,,,,,3,0,1,,,,,0,,,49,51
112135,note_on,,,,,17,0,1,,,,,0,,,51,0
112142,note_on,,,,,7,0,1,,,,,0,,,49,0
112165,note_on,,,,,23,0,1,,,,,0,,,80,83
112167,note_on,,,,,2,0,1,,,,,0,,,68,64
112168,note_on,,,,,1,0,1,,,,,0,,,41,55
112170,note_on,,,,,2,0,1,,,,,0,,,73,58
112179,control_change,,,,,9,0,1,,,,,0,64,88,,
112182,control_change,,,,,3,0,1,,,,,0,64,0,,
112195,note_on,,,,,13,0,1,,,,,0,,,41,0
112200,note_on,,,,,5,0,1,,,,,0,,,49,64
112212,control_change,,,,,12,0,1,,,,,0,64,127,,
112233,note_on,,,,,21,0,1,,,,,0,,,51,62
112234,note_on,,,,,1,0,1,,,,,0,,,49,0
112259,note_on,,,,,25,0,1,,,,,0,,,51,0
112266,note_on,,,,,0,0,1,,,,,0,,,53,55
112266,note_on,,,,,7,0,1,,,,,0,,,68,0
112268,note_on,,,,,2,0,1,,,,,0,,,73,0
112286,note_on,,,,,18,0,1,,,,,0,,,53,0
112294,note_on,,,,,8,0,1,,,,,0,,,56,58
112318,note_on,,,,,24,0,1,,,,,0,,,80,0
112320,note_on,,,,,2,0,1,,,,,0,,,56,0
112325,note_on,,,,,5,0,1,,,,,0,,,61,65
112339,note_on,,,,,14,0,1,,,,,0,,,61,0
112364,note_on,,,,,25,0,1,,,,,0,,,85,88
112367,note_on,,,,,0,0,1,,,,,0,,,75,64
112367,note_on,,,,,3,0,1,,,,,0,,,73,64
112370,note_on,,,,,3,0,1,,,,,0,,,79,63
112376,control_change,,,,,6,0,1,,,,,0,64,56,,
112378,note_on,,,,,2,0,1,,,,,0,,,46,58
112379,control_change,,,,,1,0,1,,,,,0,64,0,,
112403,note_on,,,,,24,0,1,,,,,0,,,51,62
112404,note_on,,,,,1,0,1,,,,,0,,,46,0
112408,control_change,,,,,4,0,1,,,,,0,64,72,,
112412,control_change,,,,,4,0,1,,,,,0,64,127,,
112435,note_on,,,,,23,0,1,,,,,0,,,51,0
112437,note_on,,,,,2,0,1,,,,,0,,,55,57
112454,note_on,,,,,17,0,1,,,,,0,,,55,0
112463,note_on,,,,,9,0,1,,,,,0,,,60,57
112489,note_on,,,,,26,0,1,,,,,0,,,61,69
112494,note_on,,,,,5,0,1,,,,,0,,,79,0
112498,note_on,,,,,4,0,1,,,,,0,,,60,0
112503,note_on,,,,,5,0,1,,,,,0,,,75,0
112515,note_on,,,,,12,0,1,,,,,0,,,73,0
112518,note_on,,,,,0,0,1,,,,,0,,,63,71
112518,note_on,,,,,3,0,1,,,,,0,,,85,0
112522,note_on,,,,,4,0,1,,,,,0,,,61,0
112534,note_on,,,,,12,0,1,,,,,0,,,63,0
112566,note_on,,,,,32,0,1,,,,,0,,,85,87
112567,note_on,,,,,1,0,1,,,,,0,,,80,71
112569,note_on,,,,,2,0,1,,,,,0,,,73,61
112572,note_on,,,,,3,0,1,,,,,0,,,77,65
112575,note_on,,,,,3,0,1,,,,,0,,,44,61
112583,control_change,,,,,8,0,1,,,,,0,64,104,,
112586,control_change,,,,,3,0,1,,,,,0,64,0,,
112612,note_on,,,,,26,0,1,,,,,0,,,53,60
112613,note_on,,,,,1,0,1,,,,,0,,,44,0
112614,control_change,,,,,1,0,1,,,,,0,64,127,,
112628,note_on,,,,,14,0,1,,,,,0,,,80,0
112630,note_on,,,,,2,0,1,,,,,0,,,53,0
112633,note_on,,,,,3,0,1,,,,,0,,,77,0
112642,note_on,,,,,9,0,1,,,,,0,,,56,53
112661,note_on,,,,,19,0,1,,,,,0,,,56,0
112669,note_on,,,,,8,0,1,,,,,0,,,61,63
112670,note_on,,,,,1,0,1,,,,,0,,,73,0
112689,note_on,,,,,19,0,1,,,,,0,,,61,0
112696,note_on,,,,,7,0,1,,,,,0,,,65,55
112726,note_on,,,,,30,0,1,,,,,0,,,68,69
112727,note_on,,,,,1,0,1,,,,,0,,,65,0
112734,note_on,,,,,7,0,1,,,,,0,,,85,0
112750,note_on,,,,,16,0,1,,,,,0,,,68,0
112754,note_on,,,,,4,0,1,,,,,0,,,70,62
112756,note_on,,,,,2,0,1,,,,,0,,,87,90
112758,note_on,,,,,2,0,1,,,,,0,,,75,82
112785,note_on,,,,,27,0,1,,,,,0,,,68,58
112787,note_on,,,,,2,0,1,,,,,0,,,70,0
112803,note_on,,,,,16,0,1,,,,,0,,,68,0
112808,note_on,,,,,5,0,1,,,,,0,,,75,0
112813,note_on,,,,,5,0,1,,,,,0,,,65,64
112836,note_on,,,,,23,0,1,,,,,0,,,87,0
112839,note_on,,,,,3,0,1,,,,,0,,,65,0
112842,note_on,,,,,3,0,1,,,,,0,,,61,58
112845,note_on,,,,,3,0,1,,,,,0,,,89,99
112846,note_on,,,,,1,0,1,,,,,0,,,77,89
112876,note_on,,,,,30,0,1,,,,,0,,,61,0
112877,note_on,,,,,1,0,1,,,,,0,,,56,52
112895,note_on,,,,,18,0,1,,,,,0,,,56,0
112900,note_on,,,,,5,0,1,,,,,0,,,77,0
112906,note_on,,,,,6,0,1,,,,,0,,,53,67
112907,note_on,,,,,1,0,1,,,,,0,,,89,0
112918,note_on,,,,,11,0,1,,,,,0,,,53,0
112939,note_on,,,,,21,0,1,,,,,0,,,90,93
112940,note_on,,,,,1,0,1,,,,,0,,,78,77
112942,note_on,,,,,2,0,1,,,,,0,,,82,67
112954,note_on,,,,,12,0,1,,,,,0,,,44,57
112956,control_change,,,,,2,0,1,,,,,0,64,104,,
112960,control_change,,,,,4,0,1,,,,,0,64,0,,
112985,control_change,,,,,25,0,1,,,,,0,64,88,,
112987,note_on,,,,,2,0,1,,,,,0,,,44,0
112987,note_on,,,,,0,0,1,,,,,0,,,51,60
112989,control_change,,,,,2,0,1,,,,,0,64,127,,
112993,note_on,,,,,4,0,1,,,,,0,,,90,0
112999,note_on,,,,,6,0,1,,,,,0,,,82,0
113000,note_on,,,,,1,0,1,,,,,0,,,78,0
113012,note_on,,,,,12,0,1,,,,,0,,,51,0
113016,note_on,,,,,4,0,1,,,,,0,,,54,59
113038,note_on,,,,,22,0,1,,,,,0,,,54,0
113045,note_on,,,,,7,0,1,,,,,0,,,82,86
113046,note_on,,,,,1,0,1,,,,,0,,,70,81
113048,note_on,,,,,2,0,1,,,,,0,,,61,49
113070,note_on,,,,,22,0,1,,,,,0,,,70,0
113081,note_on,,,,,11,0,1,,,,,0,,,63,56
113085,note_on,,,,,4,0,1,,,,,0,,,61,0
113090,note_on,,,,,5,0,1,,,,,0,,,82,0
113101,note_on,,,,,11,0,1,,,,,0,,,63,0
113101,note_on,,,,,0,0,1,,,,,0,,,66,65
113113,note_on,,,,,12,0,1,,,,,0,,,66,0
113152,note_on,,,,,39,0,1,,,,,0,,,89,93
113154,note_on,,,,,2,0,1,,,,,0,,,77,81
113155,note_on,,,,,1,0,1,,,,,0,,,80,70
113165,note_on,,,,,10,0,1,,,,,0,,,44,56
113170,control_change,,,,,5,0,1,,,,,0,64,24,,
113174,control_change,,,,,4,0,1,,,,,0,64,0,,
113192,note_on,,,,,18,0,1,,,,,0,,,44,0
113196,note_on,,,,,4,0,1,,,,,0,,,51,58
113200,control_change,,,,,4,0,1,,,,,0,64,127,,
113219,note_on,,,,,19,0,1,,,,,0,,,51,0
113223,note_on,,,,,4,0,1,,,,,0,,,54,57
113238,note_on,,,,,15,0,1,,,,,0,,,89,0
113247,note_on,,,,,9,0,1,,,,,0,,,54,0
113257,note_on,,,,,10,0,1,,,,,0,,,77,0
113258,note_on,,,,,1,0,1,,,,,0,,,60,54
113285,note_on,,,,,27,0,1,,,,,0,,,63,57
113289,note_on,,,,,4,0,1,,,,,0,,,60,0
113306,note_on,,,,,17,0,1,,,,,0,,,80,0
113310,note_on,,,,,4,0,1,,,,,0,,,87,85
113311,note_on,,,,,1,0,1,,,,,0,,,75,72
113317,note_on,,,,,6,0,1,,,,,0,,,63,0
113325,note_on,,,,,8,0,1,,,,,0,,,66,55
113338,note_on,,,,,13,0,1,,,,,0,,,66,0
113342,note_on,,,,,4,0,1,,,,,0,,,75,0
113344,note_on,,,,,2,0,1,,,,,0,,,87,0
113386,note_on,,,,,42,0,1,,,,,0,,,87,80
113387,note_on,,,,,1,0,1,,,,,0,,,75,68
113390,note_on,,,,,3,0,1,,,,,0,,,83,67
113390,note_on,,,,,0,0,1,,,,,0,,,80,58
113397,note_on,,,,,7,0,1,,,,,0,,,37,55
113403,control_change,,,,,6,0,1,,,,,0,64,40,,
113407,control_change,,,,,4,0,1,,,,,0,64,0,,
113430,note_on,,,,,23,0,1,,,,,0,,,37,0
113432,control_change,,,,,2,0,1,,,,,0,64,72,,
113435,control_change,,,,,0,0,1,,,,,0,64,127,,
113435,note_on,,,,,3,0,1,,,,,0,,,47,52
113442,note_on,,,,,7,0,1,,,,,0,,,47,0
113463,note_on,,,,,21,0,1,,,,,0,,,51,59
113487,note_on,,,,,24,0,1,,,,,0,,,51,0
113493,note_on,,,,,6,0,1,,,,,0,,,54,59
113516,note_on,,,,,23,0,1,,,,,0,,,54,0
113522,note_on,,,,,6,0,1,,,,,0,,,56,62
113542,note_on,,,,,20,0,1,,,,,0,,,56,0
113554,note_on,,,,,12,0,1,,,,,0,,,59,58
113562,note_on,,,,,8,0,1,,,,,0,,,59,0
113586,note_on,,,,,24,0,1,,,,,0,,,63,53
113610,note_on,,,,,24,0,1,,,,,0,,,63,0
113611,note_on,,,,,1,0,1,,,,,0,,,66,61
113618,note_on,,,,,7,0,1,,,,,0,,,75,0
113637,note_on,,,,,19,0,1,,,,,0,,,66,0
113644,note_on,,,,,7,0,1,,,,,0,,,68,64
113665,note_on,,,,,21,0,1,,,,,0,,,68,0
113672,note_on,,,,,7,0,1,,,,,0,,,71,62
113691,note_on,,,,,19,0,1,,,,,0,,,71,0
113700,note_on,,,,,9,0,1,,,,,0,,,75,63
113720,note_on,,,,,20,0,1,,,,,0,,,75,0
113731,note_on,,,,,11,0,1,,,,,0,,,67,60
113750,note_on,,,,,19,0,1,,,,,0,,,67,0
113758,note_on,,,,,8,0,1,,,,,0,,,70,57
113772,note_on,,,,,14,0,1,,,,,0,,,83,0
113775,note_on,,,,,3,0,1,,,,,0,,,80,0
113787,note_on,,,,,12,0,1,,,,,0,,,68,58
113789,note_on,,,,,2,0,1,,,,,0,,,70,0
113807,note_on,,,,,18,0,1,,,,,0,,,68,0
113818,note_on,,,,,11,0,1,,,,,0,,,71,58
113834,note_on,,,,,16,0,1,,,,,0,,,87,0
113839,note_on,,,,,5,0,1,,,,,0,,,71,0
113848,note_on,,,,,9,0,1,,,,,0,,,85,76
113851,note_on,,,,,3,0,1,,,,,0,,,73,58
113857,note_on,,,,,6,0,1,,,,,0,,,64,58
113857,control_change,,,,,0,0,1,,,,,0,64,88,,
113860,control_change,,,,,3,0,1,,,,,0,64,0,,
113880,note_on,,,,,20,0,1,,,,,0,,,64,0
113880,note_on,,,,,0,0,1,,,,,0,,,67,55
113886,control_change,,,,,6,0,1,,,,,0,64,88,,
113889,control_change,,,,,3,0,1,,,,,0,64,127,,
113907,note_on,,,,,18,0,1,,,,,0,,,67,0
113916,note_on,,,,,9,0,1,,,,,0,,,65,47
113927,note_on,,,,,11,0,1,,,,,0,,,65,0
113936,note_on,,,,,9,0,1,,,,,0,,,68,48
113945,note_on,,,,,9,0,1,,,,,0,,,68,0
113967,note_on,,,,,22,0,1,,,,,0,,,60,60
113991,note_on,,,,,24,0,1,,,,,0,,,60,0
113991,note_on,,,,,0,0,1,,,,,0,,,64,56
114013,note_on,,,,,22,0,1,,,,,0,,,64,0
114017,note_on,,,,,4,0,1,,,,,0,,,61,46
114036,note_on,,,,,19,0,1,,,,,0,,,61,0
114042,note_on,,,,,6,0,1,,,,,0,,,65,60
114052,control_change,,,,,10,0,1,,,,,0,64,72,,
114055,control_change,,,,,3,0,1,,,,,0,64,0,,
114062,note_on,,,,,7,0,1,,,,,0,,,65,0
114070,note_on,,,,,8,0,1,,,,,0,,,55,64
114074,control_change,,,,,4,0,1,,,,,0,64,56,,
114078,control_change,,,,,4,0,1,,,,,0,64,127,,
114094,note_on,,,,,16,0,1,,,,,0,,,73,0
114096,note_on,,,,,2,0,1,,,,,0,,,55,0
114098,note_on,,,,,2,0,1,,,,,0,,,58,53
114101,note_on,,,,,3,0,1,,,,,0,,,85,0
114122,note_on,,,,,21,0,1,,,,,0,,,58,0
114123,note_on,,,,,1,0,1,,,,,0,,,56,61
114148,note_on,,,,,25,0,1,,,,,0,,,56,0
114155,note_on,,,,,7,0,1,,,,,0,,,59,56
114178,note_on,,,,,0,0,1,,,,,0,,,52,64
114178,note_on,,,,,23,0,1,,,,,0,,,59,0
114180,control_change,,,,,2,0,1,,,,,0,64,56,,
114182,control_change,,,,,2,0,1,,,,,0,64,0,,
114194,control_change,,,,,12,0,1,,,,,0,64,40,,
114198,control_change,,,,,4,0,1,,,,,0,64,88,,
114201,control_change,,,,,3,0,1,,,,,0,64,127,,
114204,note_on,,,,,3,0,1,,,,,0,,,55,55
114206,note_on,,,,,2,0,1,,,,,0,,,52,0
114230,note_on,,,,,24,0,1,,,,,0,,,55,0
114231,note_on,,,,,1,0,1,,,,,0,,,53,63
114248,note_on,,,,,17,0,1,,,,,0,,,53,0
114257,note_on,,,,,9,0,1,,,,,0,,,56,59
114273,note_on,,,,,16,0,1,,,,,0,,,56,0
114285,control_change,,,,,12,0,1,,,,,0,64,72,,
114287,note_on,,,,,2,0,1,,,,,0,,,48,64
114289,control_change,,,,,2,0,1,,,,,0,64,0,,
114299,control_change,,,,,10,0,1,,,,,0,64,24,,
114303,control_change,,,,,4,0,1,,,,,0,64,72,,
114307,control_change,,,,,4,0,1,,,,,0,64,127,,
114313,note_on,,,,,6,0,1,,,,,0,,,52,59
114316,note_on,,,,,3,0,1,,,,,0,,,48,0
114338,note_on,,,,,22,0,1,,,,,0,,,52,0
114339,note_on,,,,,1,0,1,,,,,0,,,49,52
114359,note_on,,,,,20,0,1,,,,,0,,,49,0
114365,note_on,,,,,6,0,1,,,,,0,,,53,60
114386,note_on,,,,,21,0,1,,,,,0,,,53,0
114390,note_on,,,,,4,0,1,,,,,0,,,43,70
114418,note_on,,,,,28,0,1,,,,,0,,,43,0
114420,note_on,,,,,2,0,1,,,,,0,,,46,58
114444,note_on,,,,,24,0,1,,,,,0,,,46,0
114446,note_on,,,,,2,0,1,,,,,0,,,44,61
114474,note_on,,,,,28,0,1,,,,,0,,,44,0
114479,note_on,,,,,5,0,1,,,,,0,,,47,57
114505,note_on,,,,,26,0,1,,,,,0,,,47,0
114517,control_change,,,,,12,0,1,,,,,0,64,104,,
114521,note_on,,,,,0,0,1,,,,,0,,,37,72
114521,control_change,,,,,4,0,1,,,,,0,64,24,,
114524,control_change,,,,,3,0,1,,,,,0,64,0,,
114550,control_change,,,,,26,0,1,,,,,0,64,72,,
114551,note_on,,,,,1,0,1,,,,,0,,,37,0
114551,note_on,,,,,0,0,1,,,,,0,,,44,64
114554,control_change,,,,,3,0,1,,,,,0,64,127,,
114583,note_on,,,,,29,0,1,,,,,0,,,44,0
114585,note_on,,,,,2,0,1,,,,,0,,,47,70
114604,note_on,,,,,19,0,1,,,,,0,,,47,0
114615,note_on,,,,,11,0,1,,,,,0,,,53,56
114637,note_on,,,,,22,0,1,,,,,0,,,53,0
114649,note_on,,,,,12,0,1,,,,,0,,,56,62
114682,note_on,,,,,33,0,1,,,,,0,,,59,76
114721,control_change,,,,,39,0,1,,,,,0,64,72,,
114724,control_change,,,,,3,0,1,,,,,0,64,0,,
114734,note_on,,,,,10,0,1,,,,,0,,,65,79
114742,control_change,,,,,8,0,1,,,,,0,64,88,,
114746,control_change,,,,,4,0,1,,,,,0,64,127,,
114749,note_on,,,,,3,0,1,,,,,0,,,56,0
114751,note_on,,,,,2,0,1,,,,,0,,,65,0
114753,note_on,,,,,2,0,1,,,,,0,,,59,0
114808,note_on,,,,,55,0,1,,,,,0,,,63,75
114847,control_change,,,,,39,0,1,,,,,0,64,104,,
114851,control_change,,,,,4,0,1,,,,,0,64,72,,
114855,control_change,,,,,4,0,1,,,,,0,64,88,,
114858,control_change,,,,,3,0,1,,,,,0,64,127,,
114895,note_on,,,,,37,0,1,,,,,0,,,63,0
114945,note_on,,,,,50,0,1,,,,,0,,,61,68
114967,note_on,,,,,22,0,1,,,,,0,,,61,0
114993,control_change,,,,,0,0,1,,,,,0,64,72,,
114993,note_on,,,,,26,0,1,,,,,0,,,61,69
114996,control_change,,,,,3,0,1,,,,,0,64,0,,
115000,note_on,,,,,4,0,1,,,,,0,,,30,47
115018,control_change,,,,,18,0,1,,,,,0,64,56,,
115022,control_change,,,,,4,0,1,,,,,0,64,127,,
115025,note_on,,,,,3,0,1,,,,,0,,,61,0
115027,note_on,,,,,2,0,1,,,,,0,,,66,57
115037,note_on,,,,,10,0,1,,,,,0,,,30,0
115037,note_on,,,,,0,0,1,,,,,0,,,42,43
115046,note_on,,,,,9,0,1,,,,,0,,,42,0
115046,note_on,,,,,0,0,1,,,,,0,,,66,0
115047,note_on,,,,,1,0,1,,,,,0,,,70,62
115054,note_on,,,,,7,0,1,,,,,0,,,70,0
115072,note_on,,,,,18,0,1,,,,,0,,,73,62
115086,note_on,,,,,14,0,1,,,,,0,,,73,0
115088,note_on,,,,,2,0,1,,,,,0,,,49,25
115093,note_on,,,,,5,0,1,,,,,0,,,78,55
115098,note_on,,,,,5,0,1,,,,,0,,,82,69
115105,note_on,,,,,7,0,1,,,,,0,,,78,0
115108,note_on,,,,,3,0,1,,,,,0,,,49,0
115110,note_on,,,,,2,0,1,,,,,0,,,54,51
115117,note_on,,,,,7,0,1,,,,,0,,,82,0
115119,note_on,,,,,2,0,1,,,,,0,,,85,74
115133,note_on,,,,,14,0,1,,,,,0,,,85,0
115135,note_on,,,,,2,0,1,,,,,0,,,54,0
115143,note_on,,,,,8,0,1,,,,,0,,,58,50
115171,note_on,,,,,28,0,1,,,,,0,,,58,0
115174,note_on,,,,,3,0,1,,,,,0,,,61,64
115195,note_on,,,,,21,0,1,,,,,0,,,61,0
115205,note_on,,,,,10,0,1,,,,,0,,,63,61
115228,note_on,,,,,23,0,1,,,,,0,,,63,0
115239,note_on,,,,,11,0,1,,,,,0,,,61,52
115263,note_on,,,,,24,0,1,,,,,0,,,61,0
115265,note_on,,,,,2,0,1,,,,,0,,,58,44
115291,note_on,,,,,26,0,1,,,,,0,,,54,58
115297,note_on,,,,,6,0,1,,,,,0,,,58,0
115318,note_on,,,,,21,0,1,,,,,0,,,49,49
115320,note_on,,,,,2,0,1,,,,,0,,,54,0
115325,note_on,,,,,5,0,1,,,,,0,,,49,0
115349,note_on,,,,,24,0,1,,,,,0,,,42,65
115379,note_on,,,,,30,0,1,,,,,0,,,42,0
115384,control_change,,,,,5,0,1,,,,,0,64,56,,
115385,note_on,,,,,1,0,1,,,,,0,,,66,77
115387,control_change,,,,,2,0,1,,,,,0,64,0,,
115394,note_on,,,,,7,0,1,,,,,0,,,30,46
115410,control_change,,,,,16,0,1,,,,,0,64,104,,
115414,note_on,,,,,4,0,1,,,,,0,,,70,53
115414,control_change,,,,,0,0,1,,,,,0,64,127,,
115415,note_on,,,,,1,0,1,,,,,0,,,66,0
115416,note_on,,,,,1,0,1,,,,,0,,,42,37
115419,note_on,,,,,3,0,1,,,,,0,,,30,0
115424,note_on,,,,,5,0,1,,,,,0,,,42,0
115426,note_on,,,,,2,0,1,,,,,0,,,73,61
115427,note_on,,,,,1,0,1,,,,,0,,,70,0
115432,note_on,,,,,5,0,1,,,,,0,,,73,0
115449,note_on,,,,,17,0,1,,,,,0,,,78,64
115462,note_on,,,,,0,0,1,,,,,0,,,82,56
115462,note_on,,,,,13,0,1,,,,,0,,,49,34
115465,note_on,,,,,3,0,1,,,,,0,,,78,0
115469,note_on,,,,,4,0,1,,,,,0,,,85,71
115478,note_on,,,,,9,0,1,,,,,0,,,82,0
115485,note_on,,,,,7,0,1,,,,,0,,,90,82
115486,note_on,,,,,1,0,1,,,,,0,,,85,0
115493,note_on,,,,,7,0,1,,,,,0,,,49,0
115497,note_on,,,,,4,0,1,,,,,0,,,90,0
115497,note_on,,,,,0,0,1,,,,,0,,,54,44
115523,note_on,,,,,26,0,1,,,,,0,,,54,0
115525,note_on,,,,,2,0,1,,,,,0,,,58,52
115551,note_on,,,,,26,0,1,,,,,0,,,58,0
115554,note_on,,,,,3,0,1,,,,,0,,,61,68
115576,note_on,,,,,22,0,1,,,,,0,,,61,0
115580,note_on,,,,,4,0,1,,,,,0,,,68,83
115584,note_on,,,,,4,0,1,,,,,0,,,63,57
115603,note_on,,,,,19,0,1,,,,,0,,,70,57
115607,note_on,,,,,4,0,1,,,,,0,,,68,0
115609,note_on,,,,,2,0,1,,,,,0,,,63,0
115617,note_on,,,,,8,0,1,,,,,0,,,61,38
115619,note_on,,,,,2,0,1,,,,,0,,,70,0
115619,note_on,,,,,0,0,1,,,,,0,,,73,59
115625,note_on,,,,,6,0,1,,,,,0,,,73,0
115638,note_on,,,,,13,0,1,,,,,0,,,61,0
115642,note_on,,,,,4,0,1,,,,,0,,,80,63
115652,note_on,,,,,10,0,1,,,,,0,,,82,63
115655,note_on,,,,,3,0,1,,,,,0,,,80,0
115660,note_on,,,,,5,0,1,,,,,0,,,85,73
115667,note_on,,,,,0,0,1,,,,,0,,,54,52
115667,note_on,,,,,7,0,1,,,,,0,,,82,0
115676,note_on,,,,,9,0,1,,,,,0,,,85,0
115677,note_on,,,,,1,0,1,,,,,0,,,92,85
115687,note_on,,,,,10,0,1,,,,,0,,,92,0
115695,note_on,,,,,8,0,1,,,,,0,,,49,51
115697,note_on,,,,,2,0,1,,,,,0,,,54,0
115709,note_on,,,,,12,0,1,,,,,0,,,49,0
115730,note_on,,,,,21,0,1,,,,,0,,,42,54
115761,note_on,,,,,31,0,1,,,,,0,,,42,0
115762,control_change,,,,,1,0,1,,,,,0,64,88,,
115765,note_on,,,,,3,0,1,,,,,0,,,70,83
115765,control_change,,,,,0,0,1,,,,,0,64,0,,
115770,note_on,,,,,5,0,1,,,,,0,,,30,50
115788,control_change,,,,,18,0,1,,,,,0,64,40,,
115791,control_change,,,,,0,0,1,,,,,0,64,127,,
115791,note_on,,,,,3,0,1,,,,,0,,,73,63
115794,note_on,,,,,3,0,1,,,,,0,,,70,0
115796,note_on,,,,,2,0,1,,,,,0,,,42,46
115798,note_on,,,,,2,0,1,,,,,0,,,30,0
115805,note_on,,,,,7,0,1,,,,,0,,,78,70
115807,note_on,,,,,2,0,1,,,,,0,,,42,0
115809,note_on,,,,,2,0,1,,,,,0,,,73,0
115817,note_on,,,,,8,0,1,,,,,0,,,78,0
115828,note_on,,,,,11,0,1,,,,,0,,,82,77
115840,note_on,,,,,12,0,1,,,,,0,,,82,0
115845,note_on,,,,,5,0,1,,,,,0,,,85,61
115856,note_on,,,,,11,0,1,,,,,0,,,90,72
115861,note_on,,,,,5,0,1,,,,,0,,,85,0
115868,note_on,,,,,7,0,1,,,,,0,,,49,45
115872,note_on,,,,,4,0,1,,,,,0,,,94,77
115873,note_on,,,,,1,0,1,,,,,0,,,90,0
115884,note_on,,,,,0,0,1,,,,,0,,,49,0
115884,note_on,,,,,11,0,1,,,,,0,,,94,0
115892,note_on,,,,,8,0,1,,,,,0,,,54,32
115915,note_on,,,,,23,0,1,,,,,0,,,58,58
115916,note_on,,,,,1,0,1,,,,,0,,,54,0
115944,note_on,,,,,28,0,1,,,,,0,,,58,0
115946,note_on,,,,,2,0,1,,,,,0,,,61,71
115976,note_on,,,,,30,0,1,,,,,0,,,61,0
115977,note_on,,,,,1,0,1,,,,,0,,,63,61
116004,note_on,,,,,27,0,1,,,,,0,,,63,0
116011,note_on,,,,,7,0,1,,,,,0,,,61,42
116037,note_on,,,,,26,0,1,,,,,0,,,61,0
116040,note_on,,,,,3,0,1,,,,,0,,,58,46
116065,note_on,,,,,25,0,1,,,,,0,,,54,54
116068,note_on,,,,,3,0,1,,,,,0,,,58,0
116091,note_on,,,,,23,0,1,,,,,0,,,49,53
116095,note_on,,,,,4,0,1,,,,,0,,,54,0
116105,note_on,,,,,10,0,1,,,,,0,,,49,0
116126,note_on,,,,,21,0,1,,,,,0,,,42,57
116152,note_on,,,,,26,0,1,,,,,0,,,42,0
116159,note_on,,,,,7,0,1,,,,,0,,,30,59
116161,control_change,,,,,2,0,1,,,,,0,64,40,,
116164,control_change,,,,,3,0,1,,,,,0,64,0,,
116183,control_change,,,,,19,0,1,,,,,0,64,40,,
116185,note_on,,,,,2,0,1,,,,,0,,,30,0
116186,note_on,,,,,1,0,1,,,,,0,,,42,58
116187,control_change,,,,,1,0,1,,,,,0,64,127,,
116197,note_on,,,,,10,0,1,,,,,0,,,42,0
116220,note_on,,,,,23,0,1,,,,,0,,,49,65
116241,note_on,,,,,21,0,1,,,,,0,,,49,0
116250,note_on,,,,,9,0,1,,,,,0,,,54,57
116273,note_on,,,,,23,0,1,,,,,0,,,54,0
116280,note_on,,,,,7,0,1,,,,,0,,,58,61
116306,note_on,,,,,26,0,1,,,,,0,,,58,0
116309,note_on,,,,,3,0,1,,,,,0,,,61,65
116326,note_on,,,,,17,0,1,,,,,0,,,61,0
116334,note_on,,,,,8,0,1,,,,,0,,,66,73
116340,note_on,,,,,6,0,1,,,,,0,,,63,63
116355,note_on,,,,,15,0,1,,,,,0,,,66,0
116358,note_on,,,,,3,0,1,,,,,0,,,63,0
116361,note_on,,,,,3,0,1,,,,,0,,,70,32
116367,note_on,,,,,6,0,1,,,,,0,,,73,69
116368,note_on,,,,,1,0,1,,,,,0,,,70,0
116374,note_on,,,,,0,0,1,,,,,0,,,61,45
116374,note_on,,,,,6,0,1,,,,,0,,,73,0
116391,note_on,,,,,17,0,1,,,,,0,,,78,69
116396,note_on,,,,,5,0,1,,,,,0,,,61,0
116407,note_on,,,,,11,0,1,,,,,0,,,82,62
116408,note_on,,,,,1,0,1,,,,,0,,,78,0
116412,note_on,,,,,4,0,1,,,,,0,,,85,68
116420,note_on,,,,,8,0,1,,,,,0,,,82,0
116423,note_on,,,,,3,0,1,,,,,0,,,54,53
116426,note_on,,,,,3,0,1,,,,,0,,,85,0
116427,note_on,,,,,1,0,1,,,,,0,,,90,81
116436,note_on,,,,,9,0,1,,,,,0,,,90,0
116454,note_on,,,,,18,0,1,,,,,0,,,49,54
116455,note_on,,,,,1,0,1,,,,,0,,,54,0
116466,note_on,,,,,11,0,1,,,,,0,,,49,0
116489,note_on,,,,,23,0,1,,,,,0,,,42,64
116523,note_on,,,,,34,0,1,,,,,0,,,42,0
116532,control_change,,,,,9,0,1,,,,,0,64,40,,
116534,note_on,,,,,2,0,1,,,,,0,,,62,65
116535,control_change,,,,,1,0,1,,,,,0,64,0,,
116537,note_on,,,,,2,0,1,,,,,0,,,30,52
116556,note_on,,,,,19,0,1,,,,,0,,,66,51
116557,control_change,,,,,1,0,1,,,,,0,64,72,,
116561,note_on,,,,,4,0,1,,,,,0,,,62,0
116561,control_change,,,,,0,0,1,,,,,0,64,127,,
116562,note_on,,,,,1,0,1,,,,,0,,,42,39
116563,note_on,,,,,1,0,1,,,,,0,,,30,0
116570,note_on,,,,,7,0,1,,,,,0,,,42,0
116574,note_on,,,,,4,0,1,,,,,0,,,69,64
116577,note_on,,,,,3,0,1,,,,,0,,,66,0
116579,note_on,,,,,2,0,1,,,,,0,,,69,0
116600,note_on,,,,,21,0,1,,,,,0,,,74,70
116607,note_on,,,,,7,0,1,,,,,0,,,50,44
116614,note_on,,,,,7,0,1,,,,,0,,,74,0
116616,note_on,,,,,2,0,1,,,,,0,,,78,52
116621,note_on,,,,,5,0,1,,,,,0,,,81,72
116630,note_on,,,,,9,0,1,,,,,0,,,78,0
116634,note_on,,,,,4,0,1,,,,,0,,,86,79
116635,note_on,,,,,1,0,1,,,,,0,,,81,0
116635,note_on,,,,,0,0,1,,,,,0,,,50,0
116637,note_on,,,,,2,0,1,,,,,0,,,54,38
116643,note_on,,,,,6,0,1,,,,,0,,,86,0
116664,note_on,,,,,0,0,1,,,,,0,,,57,59
116664,note_on,,,,,21,0,1,,,,,0,,,54,0
116684,note_on,,,,,20,0,1,,,,,0,,,57,0
116692,note_on,,,,,8,0,1,,,,,0,,,62,66
116713,note_on,,,,,21,0,1,,,,,0,,,62,0
116724,note_on,,,,,11,0,1,,,,,0,,,64,58
116725,note_on,,,,,1,0,1,,,,,0,,,66,77
116745,note_on,,,,,20,0,1,,,,,0,,,66,0
116745,note_on,,,,,0,0,1,,,,,0,,,69,58
116746,note_on,,,,,1,0,1,,,,,0,,,64,0
116757,note_on,,,,,11,0,1,,,,,0,,,74,72
116759,note_on,,,,,2,0,1,,,,,0,,,69,0
116759,note_on,,,,,0,0,1,,,,,0,,,62,51
116769,note_on,,,,,10,0,1,,,,,0,,,74,0
116785,note_on,,,,,16,0,1,,,,,0,,,62,0
116785,note_on,,,,,0,0,1,,,,,0,,,78,69
116799,note_on,,,,,14,0,1,,,,,0,,,78,0
116800,note_on,,,,,1,0,1,,,,,0,,,57,24
116802,note_on,,,,,2,0,1,,,,,0,,,86,53
116805,note_on,,,,,3,0,1,,,,,0,,,81,63
116814,note_on,,,,,9,0,1,,,,,0,,,81,0
116814,note_on,,,,,0,0,1,,,,,0,,,54,47
116819,note_on,,,,,5,0,1,,,,,0,,,90,85
116821,note_on,,,,,2,0,1,,,,,0,,,86,0
116823,note_on,,,,,2,0,1,,,,,0,,,57,0
116832,note_on,,,,,9,0,1,,,,,0,,,90,0
116841,note_on,,,,,9,0,1,,,,,0,,,50,62
116849,note_on,,,,,8,0,1,,,,,0,,,54,0
116852,note_on,,,,,3,0,1,,,,,0,,,50,0
116874,note_on,,,,,22,0,1,,,,,0,,,42,68
116901,note_on,,,,,27,0,1,,,,,0,,,42,0
116909,control_change,,,,,8,0,1,,,,,0,64,40,,
116912,note_on,,,,,3,0,1,,,,,0,,,69,87
116913,control_change,,,,,1,0,1,,,,,0,64,0,,
116914,note_on,,,,,1,0,1,,,,,0,,,30,63
116927,control_change,,,,,13,0,1,,,,,0,64,40,,
116931,control_change,,,,,4,0,1,,,,,0,64,127,,
116938,note_on,,,,,7,0,1,,,,,0,,,74,58
116940,note_on,,,,,2,0,1,,,,,0,,,42,53
116941,note_on,,,,,1,0,1,,,,,0,,,69,0
116944,note_on,,,,,3,0,1,,,,,0,,,30,0
116950,note_on,,,,,6,0,1,,,,,0,,,78,71
116952,note_on,,,,,2,0,1,,,,,0,,,42,0
116954,note_on,,,,,2,0,1,,,,,0,,,74,0
116962,note_on,,,,,8,0,1,,,,,0,,,78,0
116977,note_on,,,,,15,0,1,,,,,0,,,81,80
116996,note_on,,,,,19,0,1,,,,,0,,,86,49
116997,note_on,,,,,0,0,1,,,,,0,,,90,67
116997,note_on,,,,,1,0,1,,,,,0,,,81,0
117004,note_on,,,,,7,0,1,,,,,0,,,86,0
117011,note_on,,,,,7,0,1,,,,,0,,,93,89
117012,note_on,,,,,1,0,1,,,,,0,,,90,0
117017,note_on,,,,,5,0,1,,,,,0,,,54,60
117023,note_on,,,,,6,0,1,,,,,0,,,93,0
117046,note_on,,,,,23,0,1,,,,,0,,,57,56
117052,note_on,,,,,6,0,1,,,,,0,,,54,0
117067,note_on,,,,,15,0,1,,,,,0,,,57,0
117070,note_on,,,,,3,0,1,,,,,0,,,62,67
117093,note_on,,,,,23,0,1,,,,,0,,,62,0
117105,note_on,,,,,0,0,1,,,,,0,,,64,55
117105,note_on,,,,,12,0,1,,,,,0,,,74,88
117126,note_on,,,,,21,0,1,,,,,0,,,64,0
117128,note_on,,,,,2,0,1,,,,,0,,,78,49
117132,note_on,,,,,4,0,1,,,,,0,,,74,0
117140,note_on,,,,,8,0,1,,,,,0,,,62,53
117141,note_on,,,,,1,0,1,,,,,0,,,81,63
117143,note_on,,,,,2,0,1,,,,,0,,,78,0
117147,note_on,,,,,4,0,1,,,,,0,,,81,0
117164,note_on,,,,,17,0,1,,,,,0,,,86,78
117166,note_on,,,,,2,0,1,,,,,0,,,62,0
117177,note_on,,,,,11,0,1,,,,,0,,,57,38
117180,note_on,,,,,3,0,1,,,,,0,,,90,56
117182,note_on,,,,,2,0,1,,,,,0,,,86,0
117187,note_on,,,,,5,0,1,,,,,0,,,93,81
117192,note_on,,,,,5,0,1,,,,,0,,,54,47
117197,note_on,,,,,5,0,1,,,,,0,,,57,0
117201,note_on,,,,,4,0,1,,,,,0,,,90,0
117202,note_on,,,,,1,0,1,,,,,0,,,93,0
117208,note_on,,,,,6,0,1,,,,,0,,,98,71
117217,note_on,,,,,9,0,1,,,,,0,,,98,0
117225,note_on,,,,,8,0,1,,,,,0,,,50,64
117236,note_on,,,,,11,0,1,,,,,0,,,54,0
117241,note_on,,,,,5,0,1,,,,,0,,,50,0
117260,note_on,,,,,19,0,1,,,,,0,,,42,58
117290,control_change,,,,,30,0,1,,,,,0,64,88,,
117293,note_on,,,,,3,0,1,,,,,0,,,42,0
117293,note_on,,,,,0,0,1,,,,,0,,,73,86
117294,control_change,,,,,1,0,1,,,,,0,64,0,,
117304,note_on,,,,,10,0,1,,,,,0,,,30,59
117318,note_on,,,,,14,0,1,,,,,0,,,78,60
117319,control_change,,,,,1,0,1,,,,,0,64,104,,
117321,note_on,,,,,2,0,1,,,,,0,,,42,35
117323,control_change,,,,,2,0,1,,,,,0,64,127,,
117326,note_on,,,,,3,0,1,,,,,0,,,73,0
117328,note_on,,,,,2,0,1,,,,,0,,,30,0
117331,note_on,,,,,3,0,1,,,,,0,,,82,64
117337,note_on,,,,,0,0,1,,,,,0,,,42,0
117337,note_on,,,,,6,0,1,,,,,0,,,78,0
117344,note_on,,,,,7,0,1,,,,,0,,,82,0
117357,note_on,,,,,13,0,1,,,,,0,,,85,70
117369,note_on,,,,,12,0,1,,,,,0,,,85,0
117371,note_on,,,,,2,0,1,,,,,0,,,49,40
117372,note_on,,,,,1,0,1,,,,,0,,,90,62
117379,note_on,,,,,7,0,1,,,,,0,,,94,67
117385,note_on,,,,,6,0,1,,,,,0,,,90,0
117395,note_on,,,,,10,0,1,,,,,0,,,94,0
117395,note_on,,,,,0,0,1,,,,,0,,,97,85
117400,note_on,,,,,5,0,1,,,,,0,,,49,0
117403,note_on,,,,,3,0,1,,,,,0,,,54,50
117408,note_on,,,,,5,0,1,,,,,0,,,97,0
117427,note_on,,,,,19,0,1,,,,,0,,,54,0
117429,note_on,,,,,2,0,1,,,,,0,,,58,48
117453,note_on,,,,,24,0,1,,,,,0,,,58,0
117457,note_on,,,,,4,0,1,,,,,0,,,61,69
117480,note_on,,,,,23,0,1,,,,,0,,,61,0
117487,note_on,,,,,7,0,1,,,,,0,,,63,56
117511,note_on,,,,,24,0,1,,,,,0,,,63,0
117520,note_on,,,,,9,0,1,,,,,0,,,61,56
117546,note_on,,,,,26,0,1,,,,,0,,,61,0
117547,note_on,,,,,1,0,1,,,,,0,,,58,49
117575,note_on,,,,,28,0,1,,,,,0,,,54,52
117577,note_on,,,,,2,0,1,,,,,0,,,58,0
117602,note_on,,,,,25,0,1,,,,,0,,,49,51
117607,note_on,,,,,5,0,1,,,,,0,,,54,0
117617,note_on,,,,,10,0,1,,,,,0,,,49,0
117636,note_on,,,,,19,0,1,,,,,0,,,42,56
117662,note_on,,,,,26,0,1,,,,,0,,,42,0
117663,note_on,,,,,1,0,1,,,,,0,,,70,67
117664,control_change,,,,,1,0,1,,,,,0,64,72,,
117668,control_change,,,,,4,0,1,,,,,0,64,0,,
117676,note_on,,,,,8,0,1,,,,,0,,,30,50
117685,note_on,,,,,9,0,1,,,,,0,,,73,53
117690,control_change,,,,,5,0,1,,,,,0,64,56,,
117693,note_on,,,,,3,0,1,,,,,0,,,70,0
117693,control_change,,,,,0,0,1,,,,,0,64,127,,
117695,note_on,,,,,2,0,1,,,,,0,,,42,44
117699,note_on,,,,,4,0,1,,,,,0,,,78,65
117700,note_on,,,,,1,0,1,,,,,0,,,30,0
117703,note_on,,,,,3,0,1,,,,,0,,,73,0
117705,note_on,,,,,2,0,1,,,,,0,,,42,0
117712,note_on,,,,,7,0,1,,,,,0,,,78,0
117723,note_on,,,,,11,0,1,,,,,0,,,82,71
117736,note_on,,,,,13,0,1,,,,,0,,,82,0
117737,note_on,,,,,1,0,1,,,,,0,,,85,61
117738,note_on,,,,,1,0,1,,,,,0,,,49,46
117750,note_on,,,,,12,0,1,,,,,0,,,90,65
117752,note_on,,,,,2,0,1,,,,,0,,,85,0
117762,note_on,,,,,10,0,1,,,,,0,,,94,71
117763,note_on,,,,,1,0,1,,,,,0,,,90,0
117765,note_on,,,,,2,0,1,,,,,0,,,49,0
117765,note_on,,,,,0,0,1,,,,,0,,,54,39
117774,note_on,,,,,9,0,1,,,,,0,,,94,0
117781,note_on,,,,,7,0,1,,,,,0,,,54,0
117799,note_on,,,,,18,0,1,,,,,0,,,58,54
117824,note_on,,,,,25,0,1,,,,,0,,,58,0
117828,note_on,,,,,4,0,1,,,,,0,,,61,57
117854,note_on,,,,,26,0,1,,,,,0,,,61,0
117858,note_on,,,,,4,0,1,,,,,0,,,63,57
117880,note_on,,,,,22,0,1,,,,,0,,,63,0
117890,note_on,,,,,10,0,1,,,,,0,,,61,43
117915,note_on,,,,,25,0,1,,,,,0,,,61,0
117919,note_on,,,,,4,0,1,,,,,0,,,58,35
117940,note_on,,,,,21,0,1,,,,,0,,,58,0
117945,note_on,,,,,5,0,1,,,,,0,,,54,52
117981,note_on,,,,,36,0,1,,,,,0,,,49,45
117982,note_on,,,,,1,0,1,,,,,0,,,54,0
117997,note_on,,,,,15,0,1,,,,,0,,,49,0
117997,note_on,,,,,0,0,1,,,,,0,,,82,73
117998,note_on,,,,,1,0,1,,,,,0,,,70,65
118015,note_on,,,,,17,0,1,,,,,0,,,70,0
118022,note_on,,,,,7,0,1,,,,,0,,,82,0
118060,control_change,,,,,0,0,1,,,,,0,64,88,,
118060,note_on,,,,,38,0,1,,,,,0,,,82,71
118061,note_on,,,,,1,0,1,,,,,0,,,70,60
118064,note_on,,,,,0,0,1,,,,,0,,,74,58
118064,control_change,,,,,3,0,1,,,,,0,64,0,,
118065,note_on,,,,,1,0,1,,,,,0,,,80,38
118066,note_on,,,,,1,0,1,,,,,0,,,41,57
118093,control_change,,,,,27,0,1,,,,,0,64,56,,
118096,control_change,,,,,3,0,1,,,,,0,64,127,,
118102,note_on,,,,,6,0,1,,,,,0,,,41,0
118105,note_on,,,,,3,0,1,,,,,0,,,50,63
118131,note_on,,,,,26,0,1,,,,,0,,,50,0
118138,note_on,,,,,7,0,1,,,,,0,,,53,59
118159,note_on,,,,,0,0,1,,,,,0,,,70,0
118159,note_on,,,,,21,0,1,,,,,0,,,53,0
118175,note_on,,,,,0,0,1,,,,,0,,,56,30
118175,note_on,,,,,16,0,1,,,,,0,,,80,0
118191,note_on,,,,,16,0,1,,,,,0,,,56,0
118194,note_on,,,,,3,0,1,,,,,0,,,58,57
118201,note_on,,,,,7,0,1,,,,,0,,,82,0
118219,note_on,,,,,18,0,1,,,,,0,,,58,0
118226,note_on,,,,,7,0,1,,,,,0,,,62,64
118243,note_on,,,,,17,0,1,,,,,0,,,74,0
118252,note_on,,,,,9,0,1,,,,,0,,,83,83
118255,note_on,,,,,3,0,1,,,,,0,,,71,61
118256,note_on,,,,,1,0,1,,,,,0,,,62,0
118259,note_on,,,,,3,0,1,,,,,0,,,65,67
118283,note_on,,,,,24,0,1,,,,,0,,,65,0
118292,note_on,,,,,9,0,1,,,,,0,,,62,64
118318,note_on,,,,,26,0,1,,,,,0,,,58,43
118325,note_on,,,,,7,0,1,,,,,0,,,62,0
118344,note_on,,,,,19,0,1,,,,,0,,,56,51
118349,note_on,,,,,5,0,1,,,,,0,,,58,0
118358,note_on,,,,,9,0,1,,,,,0,,,56,0
118371,note_on,,,,,13,0,1,,,,,0,,,71,0
118372,note_on,,,,,1,0,1,,,,,0,,,53,47
118377,note_on,,,,,5,0,1,,,,,0,,,83,0
118391,note_on,,,,,14,0,1,,,,,0,,,53,0
118400,note_on,,,,,0,0,1,,,,,0,,,82,77
118400,note_on,,,,,9,0,1,,,,,0,,,50,46
118402,note_on,,,,,2,0,1,,,,,0,,,70,67
118417,note_on,,,,,15,0,1,,,,,0,,,50,0
118419,note_on,,,,,2,0,1,,,,,0,,,70,0
118426,note_on,,,,,7,0,1,,,,,0,,,82,0
118447,note_on,,,,,21,0,1,,,,,0,,,82,79
118449,note_on,,,,,2,0,1,,,,,0,,,70,67
118452,note_on,,,,,3,0,1,,,,,0,,,75,49
118453,note_on,,,,,0,0,1,,,,,0,,,78,42
118453,note_on,,,,,1,0,1,,,,,0,,,39,52
118459,control_change,,,,,6,0,1,,,,,0,64,40,,
118463,control_change,,,,,4,0,1,,,,,0,64,0,,
118485,control_change,,,,,22,0,1,,,,,0,64,56,,
118488,note_on,,,,,3,0,1,,,,,0,,,46,62
118488,control_change,,,,,0,0,1,,,,,0,64,127,,
118489,note_on,,,,,1,0,1,,,,,0,,,39,0
118515,note_on,,,,,26,0,1,,,,,0,,,46,0
118518,note_on,,,,,3,0,1,,,,,0,,,51,67
118543,note_on,,,,,25,0,1,,,,,0,,,51,0
118544,note_on,,,,,1,0,1,,,,,0,,,54,60
118566,note_on,,,,,22,0,1,,,,,0,,,54,0
118579,note_on,,,,,13,0,1,,,,,0,,,58,67
118583,note_on,,,,,4,0,1,,,,,0,,,70,0
118602,note_on,,,,,19,0,1,,,,,0,,,58,0
118606,note_on,,,,,4,0,1,,,,,0,,,63,69
118637,note_on,,,,,31,0,1,,,,,0,,,63,0
118638,note_on,,,,,1,0,1,,,,,0,,,66,71
118640,note_on,,,,,2,0,1,,,,,0,,,82,0
118666,note_on,,,,,26,0,1,,,,,0,,,66,0
118666,note_on,,,,,0,0,1,,,,,0,,,63,59
118682,note_on,,,,,16,0,1,,,,,0,,,78,0
118703,note_on,,,,,21,0,1,,,,,0,,,58,53
118707,note_on,,,,,4,0,1,,,,,0,,,63,0
118720,note_on,,,,,13,0,1,,,,,0,,,58,0
118727,note_on,,,,,7,0,1,,,,,0,,,75,0
118731,note_on,,,,,4,0,1,,,,,0,,,81,93
118732,note_on,,,,,1,0,1,,,,,0,,,69,82
118740,note_on,,,,,8,0,1,,,,,0,,,54,48
118749,note_on,,,,,9,0,1,,,,,0,,,69,0
118759,note_on,,,,,10,0,1,,,,,0,,,81,0
118762,note_on,,,,,3,0,1,,,,,0,,,54,0
118766,note_on,,,,,4,0,1,,,,,0,,,51,61
118792,note_on,,,,,26,0,1,,,,,0,,,46,65
118794,note_on,,,,,2,0,1,,,,,0,,,51,0
118806,note_on,,,,,12,0,1,,,,,0,,,46,0
118834,note_on,,,,,28,0,1,,,,,0,,,82,87
118835,note_on,,,,,1,0,1,,,,,0,,,70,71
118837,note_on,,,,,2,0,1,,,,,0,,,80,64
118841,note_on,,,,,4,0,1,,,,,0,,,77,62
118844,control_change,,,,,3,0,1,,,,,0,64,72,,
118848,note_on,,,,,4,0,1,,,,,0,,,77,0
118848,control_change,,,,,0,0,1,,,,,0,64,0,,
118851,note_on,,,,,3,0,1,,,,,0,,,38,62
118877,control_change,,,,,26,0,1,,,,,0,64,127,,
118883,note_on,,,,,6,0,1,,,,,0,,,46,60
118894,note_on,,,,,11,0,1,,,,,0,,,38,0
118905,note_on,,,,,11,0,1,,,,,0,,,50,62
118907,note_on,,,,,2,0,1,,,,,0,,,46,0
118912,note_on,,,,,5,0,1,,,,,0,,,50,0
118923,note_on,,,,,11,0,1,,,,,0,,,70,0
118936,note_on,,,,,13,0,1,,,,,0,,,53,68
118938,note_on,,,,,2,0,1,,,,,0,,,80,0
118957,note_on,,,,,19,0,1,,,,,0,,,53,0
118968,note_on,,,,,11,0,1,,,,,0,,,56,67
118970,note_on,,,,,2,0,1,,,,,0,,,82,0
118992,note_on,,,,,22,0,1,,,,,0,,,56,0
118992,note_on,,,,,0,0,1,,,,,0,,,58,71
119019,note_on,,,,,27,0,1,,,,,0,,,58,0
119030,note_on,,,,,11,0,1,,,,,0,,,66,58
119032,note_on,,,,,2,0,1,,,,,0,,,78,77
119032,note_on,,,,,0,0,1,,,,,0,,,90,85
119033,note_on,,,,,1,0,1,,,,,0,,,82,68
119044,note_on,,,,,11,0,1,,,,,0,,,66,0
119055,note_on,,,,,11,0,1,,,,,0,,,90,0
119063,note_on,,,,,8,0,1,,,,,0,,,65,75
119084,note_on,,,,,21,0,1,,,,,0,,,65,0
119093,note_on,,,,,9,0,1,,,,,0,,,58,64
119110,note_on,,,,,17,0,1,,,,,0,,,78,0
119120,note_on,,,,,10,0,1,,,,,0,,,58,0
119121,note_on,,,,,1,0,1,,,,,0,,,56,61
119139,note_on,,,,,18,0,1,,,,,0,,,56,0
119153,note_on,,,,,14,0,1,,,,,0,,,53,68
119173,note_on,,,,,20,0,1,,,,,0,,,89,90
119173,note_on,,,,,0,0,1,,,,,0,,,77,81
119175,note_on,,,,,2,0,1,,,,,0,,,53,0
119185,note_on,,,,,10,0,1,,,,,0,,,82,0
119189,note_on,,,,,0,0,1,,,,,0,,,77,0
119189,note_on,,,,,4,0,1,,,,,0,,,89,0
119194,note_on,,,,,5,0,1,,,,,0,,,46,68
119216,note_on,,,,,22,0,1,,,,,0,,,46,0
119224,note_on,,,,,8,0,1,,,,,0,,,82,77
119226,note_on,,,,,2,0,1,,,,,0,,,70,73
119226,note_on,,,,,0,0,1,,,,,0,,,78,57
119228,note_on,,,,,2,0,1,,,,,0,,,75,51
119232,control_change,,,,,4,0,1,,,,,0,64,72,,
119235,note_on,,,,,3,0,1,,,,,0,,,75,0
119236,control_change,,,,,0,0,1,,,,,0,64,0,,
119236,note_on,,,,,1,0,1,,,,,0,,,39,56
119262,control_change,,,,,26,0,1,,,,,0,64,104,,
119265,control_change,,,,,3,0,1,,,,,0,64,127,,
119269,note_on,,,,,4,0,1,,,,,0,,,46,62
119270,note_on,,,,,1,0,1,,,,,0,,,39,0
119298,note_on,,,,,28,0,1,,,,,0,,,51,61
119300,note_on,,,,,2,0,1,,,,,0,,,46,0
119318,note_on,,,,,18,0,1,,,,,0,,,51,0
119324,note_on,,,,,6,0,1,,,,,0,,,54,57
119334,note_on,,,,,10,0,1,,,,,0,,,70,0
119339,note_on,,,,,5,0,1,,,,,0,,,54,0
119351,note_on,,,,,12,0,1,,,,,0,,,58,68
119358,note_on,,,,,7,0,1,,,,,0,,,78,0
119375,note_on,,,,,17,0,1,,,,,0,,,58,0
119378,note_on,,,,,3,0,1,,,,,0,,,63,73
119405,note_on,,,,,27,0,1,,,,,0,,,82,0
119407,note_on,,,,,2,0,1,,,,,0,,,63,0
119409,note_on,,,,,2,0,1,,,,,0,,,66,64
119436,note_on,,,,,27,0,1,,,,,0,,,66,0
119438,note_on,,,,,2,0,1,,,,,0,,,63,59
119470,note_on,,,,,32,0,1,,,,,0,,,58,55
119471,note_on,,,,,1,0,1,,,,,0,,,63,0
119483,note_on,,,,,12,0,1,,,,,0,,,58,0
119491,note_on,,,,,8,0,1,,,,,0,,,86,90
119493,note_on,,,,,2,0,1,,,,,0,,,74,82
119501,note_on,,,,,8,0,1,,,,,0,,,54,55
119515,note_on,,,,,14,0,1,,,,,0,,,74,0
119523,note_on,,,,,8,0,1,,,,,0,,,51,56
119524,note_on,,,,,1,0,1,,,,,0,,,54,0
119525,note_on,,,,,1,0,1,,,,,0,,,86,0
119546,note_on,,,,,21,0,1,,,,,0,,,46,69
119551,note_on,,,,,5,0,1,,,,,0,,,51,0
119562,note_on,,,,,11,0,1,,,,,0,,,46,0
119585,note_on,,,,,23,0,1,,,,,0,,,87,89
119586,note_on,,,,,1,0,1,,,,,0,,,75,82
119588,note_on,,,,,0,0,1,,,,,0,,,82,64
119588,control_change,,,,,2,0,1,,,,,0,64,56,,
119590,note_on,,,,,2,0,1,,,,,0,,,79,75
119591,note_on,,,,,1,0,1,,,,,0,,,37,72
119591,control_change,,,,,0,0,1,,,,,0,64,0,,
119614,control_change,,,,,23,0,1,,,,,0,64,56,,
119616,note_on,,,,,2,0,1,,,,,0,,,37,0
119617,control_change,,,,,1,0,1,,,,,0,64,127,,
119621,note_on,,,,,4,0,1,,,,,0,,,49,61
119630,note_on,,,,,9,0,1,,,,,0,,,49,0
119659,note_on,,,,,29,0,1,,,,,0,,,55,44
119670,note_on,,,,,11,0,1,,,,,0,,,55,0
119682,note_on,,,,,12,0,1,,,,,0,,,75,0
119684,note_on,,,,,2,0,1,,,,,0,,,58,58
119693,note_on,,,,,9,0,1,,,,,0,,,79,0
119699,note_on,,,,,6,0,1,,,,,0,,,82,0
119704,note_on,,,,,5,0,1,,,,,0,,,58,0
119712,note_on,,,,,8,0,1,,,,,0,,,63,67
119722,note_on,,,,,10,0,1,,,,,0,,,87,0
119729,note_on,,,,,7,0,1,,,,,0,,,63,0
119737,note_on,,,,,8,0,1,,,,,0,,,67,77
119758,note_on,,,,,21,0,1,,,,,0,,,67,0
119768,note_on,,,,,10,0,1,,,,,0,,,70,60
119770,note_on,,,,,2,0,1,,,,,0,,,88,90
119772,note_on,,,,,2,0,1,,,,,0,,,76,78
119790,note_on,,,,,18,0,1,,,,,0,,,70,0
119797,note_on,,,,,7,0,1,,,,,0,,,67,60
119823,note_on,,,,,26,0,1,,,,,0,,,63,55
119825,note_on,,,,,2,0,1,,,,,0,,,67,0
119852,note_on,,,,,27,0,1,,,,,0,,,58,64
119853,note_on,,,,,1,0,1,,,,,0,,,76,0
119855,note_on,,,,,2,0,1,,,,,0,,,63,0
119855,note_on,,,,,0,0,1,,,,,0,,,88,0
119870,note_on,,,,,15,0,1,,,,,0,,,58,0
119884,note_on,,,,,14,0,1,,,,,0,,,55,62
119896,note_on,,,,,12,0,1,,,,,0,,,55,0
119910,note_on,,,,,14,0,1,,,,,0,,,87,86
119910,note_on,,,,,0,0,1,,,,,0,,,75,81
119910,note_on,,,,,0,0,1,,,,,0,,,49,70
119923,note_on,,,,,13,0,1,,,,,0,,,49,0
119928,note_on,,,,,5,0,1,,,,,0,,,75,0
119936,note_on,,,,,8,0,1,,,,,0,,,87,0
119960,note_on,,,,,24,0,1,,,,,0,,,87,92
119962,control_change,,,,,0,0,1,,,,,0,64,24,,
119962,note_on,,,,,0,0,1,,,,,0,,,83,78
119962,note_on,,,,,2,0,1,,,,,0,,,75,84
119963,note_on,,,,,0,0,1,,,,,0,,,35,65
119963,note_on,,,,,1,0,1,,,,,0,,,80,67
119966,control_change,,,,,3,0,1,,,,,0,64,0,,
119987,note_on,,,,,21,0,1,,,,,0,,,35,0
119991,control_change,,,,,4,0,1,,,,,0,64,127,,
119992,note_on,,,,,1,0,1,,,,,0,,,47,65
120000,note_on,,,,,8,0,1,,,,,0,,,47,0
120025,note_on,,,,,25,0,1,,,,,0,,,51,59
120043,note_on,,,,,18,0,1,,,,,0,,,51,0
120050,note_on,,,,,7,0,1,,,,,0,,,56,67
120072,note_on,,,,,22,0,1,,,,,0,,,56,0
120077,note_on,,,,,5,0,1,,,,,0,,,59,66
120095,note_on,,,,,18,0,1,,,,,0,,,59,0
120107,note_on,,,,,12,0,1,,,,,0,,,63,78
120130,note_on,,,,,23,0,1,,,,,0,,,63,0
120138,note_on,,,,,8,0,1,,,,,0,,,71,74
120166,note_on,,,,,28,0,1,,,,,0,,,68,71
120167,note_on,,,,,1,0,1,,,,,0,,,71,0
120195,note_on,,,,,28,0,1,,,,,0,,,63,67
120198,note_on,,,,,3,0,1,,,,,0,,,68,0
120201,note_on,,,,,3,0,1,,,,,0,,,75,0
120212,note_on,,,,,11,0,1,,,,,0,,,63,0
120213,note_on,,,,,1,0,1,,,,,0,,,87,0
120216,note_on,,,,,3,0,1,,,,,0,,,83,0
120225,note_on,,,,,9,0,1,,,,,0,,,80,0
120230,note_on,,,,,5,0,1,,,,,0,,,86,97
120231,note_on,,,,,1,0,1,,,,,0,,,59,68
120232,note_on,,,,,1,0,1,,,,,0,,,74,85
120258,note_on,,,,,26,0,1,,,,,0,,,56,57
120260,note_on,,,,,2,0,1,,,,,0,,,59,0
120268,note_on,,,,,8,0,1,,,,,0,,,74,0
120271,note_on,,,,,3,0,1,,,,,0,,,86,0
120278,note_on,,,,,7,0,1,,,,,0,,,51,77
120283,note_on,,,,,5,0,1,,,,,0,,,56,0
120290,note_on,,,,,7,0,1,,,,,0,,,51,0
120324,note_on,,,,,0,0,1,,,,,0,,,75,87
120324,control_change,,,,,0,0,1,,,,,0,64,40,,
120324,note_on,,,,,34,0,1,,,,,0,,,87,96
120326,note_on,,,,,2,0,1,,,,,0,,,82,67
120326,note_on,,,,,0,0,1,,,,,0,,,79,81
120327,note_on,,,,,1,0,1,,,,,0,,,34,74
120328,control_change,,,,,0,0,1,,,,,0,64,0,,
120328,note_on,,,,,1,0,1,,,,,0,,,85,52
120349,note_on,,,,,21,0,1,,,,,0,,,34,0
120351,control_change,,,,,2,0,1,,,,,0,64,127,,
120354,note_on,,,,,3,0,1,,,,,0,,,46,64
120360,note_on,,,,,6,0,1,,,,,0,,,46,0
120361,note_on,,,,,0,0,1,,,,,0,,,79,0
120361,note_on,,,,,1,0,1,,,,,0,,,75,0
120372,note_on,,,,,11,0,1,,,,,0,,,82,0
120377,note_on,,,,,5,0,1,,,,,0,,,85,0
120389,note_on,,,,,12,0,1,,,,,0,,,55,67
120391,note_on,,,,,2,0,1,,,,,0,,,87,0
120415,note_on,,,,,24,0,1,,,,,0,,,55,0
120415,note_on,,,,,0,0,1,,,,,0,,,61,74
120443,note_on,,,,,28,0,1,,,,,0,,,63,72
120452,note_on,,,,,9,0,1,,,,,0,,,61,0
120472,note_on,,,,,20,0,1,,,,,0,,,67,82
120475,note_on,,,,,3,0,1,,,,,0,,,63,0
120484,note_on,,,,,9,0,1,,,,,0,,,67,0
120515,note_on,,,,,31,0,1,,,,,0,,,95,103
120516,note_on,,,,,1,0,1,,,,,0,,,87,78
120517,note_on,,,,,1,0,1,,,,,0,,,83,84
120518,control_change,,,,,1,0,1,,,,,0,64,56,,
120521,control_change,,,,,0,0,1,,,,,0,64,0,,
120521,note_on,,,,,3,0,1,,,,,0,,,39,81
120539,control_change,,,,,18,0,1,,,,,0,64,72,,
120543,control_change,,,,,4,0,1,,,,,0,64,127,,
120544,note_on,,,,,1,0,1,,,,,0,,,39,0
120548,note_on,,,,,4,0,1,,,,,0,,,51,73
120558,note_on,,,,,10,0,1,,,,,0,,,51,0
120586,note_on,,,,,28,0,1,,,,,0,,,55,72
120602,note_on,,,,,16,0,1,,,,,0,,,55,0
120602,note_on,,,,,0,0,1,,,,,0,,,95,0
120605,note_on,,,,,3,0,1,,,,,0,,,83,0
120616,note_on,,,,,11,0,1,,,,,0,,,61,72
120647,note_on,,,,,31,0,1,,,,,0,,,63,58
120653,note_on,,,,,6,0,1,,,,,0,,,87,0
120675,note_on,,,,,22,0,1,,,,,0,,,94,102
120676,note_on,,,,,1,0,1,,,,,0,,,82,90
120682,note_on,,,,,6,0,1,,,,,0,,,61,0
120695,note_on,,,,,13,0,1,,,,,0,,,70,73
120697,note_on,,,,,2,0,1,,,,,0,,,63,0
120707,note_on,,,,,10,0,1,,,,,0,,,94,0
120710,note_on,,,,,3,0,1,,,,,0,,,70,0
120712,note_on,,,,,2,0,1,,,,,0,,,82,0
120743,control_change,,,,,31,0,1,,,,,0,64,40,,
120746,control_change,,,,,3,0,1,,,,,0,64,0,,
120754,note_on,,,,,8,0,1,,,,,0,,,94,96
120755,note_on,,,,,1,0,1,,,,,0,,,82,78
120756,note_on,,,,,0,0,1,,,,,0,,,87,73
120756,note_on,,,,,0,0,1,,,,,0,,,44,77
120756,note_on,,,,,1,0,1,,,,,0,,,90,71
120759,note_on,,,,,3,0,1,,,,,0,,,32,60
120761,control_change,,,,,2,0,1,,,,,0,64,56,,
120764,control_change,,,,,3,0,1,,,,,0,64,127,,
120766,note_on,,,,,2,0,1,,,,,0,,,32,0
120769,note_on,,,,,3,0,1,,,,,0,,,44,0
120815,note_on,,,,,46,0,1,,,,,0,,,54,60
120840,note_on,,,,,25,0,1,,,,,0,,,54,0
120843,note_on,,,,,3,0,1,,,,,0,,,60,63
120868,note_on,,,,,25,0,1,,,,,0,,,60,0
120871,note_on,,,,,3,0,1,,,,,0,,,63,65
120891,note_on,,,,,20,0,1,,,,,0,,,63,0
120899,note_on,,,,,8,0,1,,,,,0,,,70,69
120922,note_on,,,,,23,0,1,,,,,0,,,70,0
120927,note_on,,,,,5,0,1,,,,,0,,,63,67
120955,note_on,,,,,28,0,1,,,,,0,,,60,64
120960,note_on,,,,,5,0,1,,,,,0,,,63,0
120972,note_on,,,,,12,0,1,,,,,0,,,60,0
120983,note_on,,,,,11,0,1,,,,,0,,,54,62
121000,note_on,,,,,17,0,1,,,,,0,,,54,0
121001,note_on,,,,,1,0,1,,,,,0,,,48,62
121016,note_on,,,,,15,0,1,,,,,0,,,48,0
121028,note_on,,,,,12,0,1,,,,,0,,,54,65
121046,note_on,,,,,18,0,1,,,,,0,,,54,0
121050,note_on,,,,,4,0,1,,,,,0,,,63,39
121067,note_on,,,,,17,0,1,,,,,0,,,56,68
121071,note_on,,,,,4,0,1,,,,,0,,,63,0
121075,note_on,,,,,4,0,1,,,,,0,,,54,64
121080,note_on,,,,,5,0,1,,,,,0,,,60,70
121088,note_on,,,,,8,0,1,,,,,0,,,56,0
121088,note_on,,,,,0,0,1,,,,,0,,,63,58
121106,note_on,,,,,18,0,1,,,,,0,,,54,0
121107,note_on,,,,,1,0,1,,,,,0,,,70,71
121111,note_on,,,,,4,0,1,,,,,0,,,60,0
121116,note_on,,,,,5,0,1,,,,,0,,,90,0
121117,note_on,,,,,1,0,1,,,,,0,,,70,0
121118,note_on,,,,,1,0,1,,,,,0,,,63,0
121128,note_on,,,,,10,0,1,,,,,0,,,82,0
121131,note_on,,,,,3,0,1,,,,,0,,,94,0
121187,note_on,,,,,56,0,1,,,,,0,,,87,0
121194,note_on,,,,,7,0,1,,,,,0,,,92,93
121195,note_on,,,,,1,0,1,,,,,0,,,80,83
121238,note_on,,,,,43,0,1,,,,,0,,,92,0
121247,note_on,,,,,9,0,1,,,,,0,,,80,0
121289,note_on,,,,,0,0,1,,,,,0,,,78,84
121289,note_on,,,,,42,0,1,,,,,0,,,90,95
121364,note_on,,,,,75,0,1,,,,,0,,,90,0
121376,note_on,,,,,12,0,1,,,,,0,,,78,0
121423,note_on,,,,,47,0,1,,,,,0,,,87,90
121424,note_on,,,,,1,0,1,,,,,0,,,75,89
121440,note_on,,,,,16,0,1,,,,,0,,,75,0
121448,note_on,,,,,8,0,1,,,,,0,,,87,0
121465,control_change,,,,,17,0,1,,,,,0,64,104,,
121468,control_change,,,,,3,0,1,,,,,0,64,0,,
121472,note_on,,,,,0,0,1,,,,,0,,,75,91
121472,note_on,,,,,4,0,1,,,,,0,,,87,87
121474,note_on,,,,,2,0,1,,,,,0,,,78,65
121475,note_on,,,,,1,0,1,,,,,0,,,82,63
121479,note_on,,,,,4,0,1,,,,,0,,,46,56
121481,note_on,,,,,2,0,1,,,,,0,,,34,54
121490,control_change,,,,,9,0,1,,,,,0,64,56,,
121494,note_on,,,,,4,0,1,,,,,0,,,34,0
121494,control_change,,,,,0,0,1,,,,,0,64,127,,
121498,note_on,,,,,4,0,1,,,,,0,,,46,0
121544,note_on,,,,,46,0,1,,,,,0,,,54,61
121568,note_on,,,,,24,0,1,,,,,0,,,54,0
121575,note_on,,,,,7,0,1,,,,,0,,,58,60
121596,note_on,,,,,0,0,1,,,,,0,,,61,60
121596,note_on,,,,,21,0,1,,,,,0,,,58,0
121614,note_on,,,,,18,0,1,,,,,0,,,61,0
121621,note_on,,,,,7,0,1,,,,,0,,,70,65
121643,note_on,,,,,22,0,1,,,,,0,,,61,64
121646,note_on,,,,,3,0,1,,,,,0,,,70,0
121664,note_on,,,,,18,0,1,,,,,0,,,58,58
121672,note_on,,,,,8,0,1,,,,,0,,,61,0
121684,note_on,,,,,12,0,1,,,,,0,,,54,37
121686,note_on,,,,,2,0,1,,,,,0,,,58,0
121690,note_on,,,,,4,0,1,,,,,0,,,54,0
121714,note_on,,,,,24,0,1,,,,,0,,,49,69
121732,note_on,,,,,0,0,1,,,,,0,,,54,61
121732,note_on,,,,,18,0,1,,,,,0,,,49,0
121752,note_on,,,,,20,0,1,,,,,0,,,58,46
121754,note_on,,,,,2,0,1,,,,,0,,,54,0
121768,note_on,,,,,14,0,1,,,,,0,,,66,58
121769,note_on,,,,,1,0,1,,,,,0,,,58,0
121785,note_on,,,,,16,0,1,,,,,0,,,54,64
121786,note_on,,,,,1,0,1,,,,,0,,,66,0
121800,note_on,,,,,14,0,1,,,,,0,,,87,0
121805,note_on,,,,,0,0,1,,,,,0,,,61,55
121805,note_on,,,,,5,0,1,,,,,0,,,54,0
121806,note_on,,,,,1,0,1,,,,,0,,,58,60
121819,note_on,,,,,13,0,1,,,,,0,,,75,0
121820,note_on,,,,,1,0,1,,,,,0,,,70,73
121827,note_on,,,,,7,0,1,,,,,0,,,58,0
121829,note_on,,,,,2,0,1,,,,,0,,,70,0
121831,note_on,,,,,2,0,1,,,,,0,,,61,0
121839,note_on,,,,,8,0,1,,,,,0,,,82,0
121883,note_on,,,,,44,0,1,,,,,0,,,78,0
121892,note_on,,,,,9,0,1,,,,,0,,,85,88
121895,note_on,,,,,3,0,1,,,,,0,,,73,79
121930,note_on,,,,,35,0,1,,,,,0,,,73,0
121940,note_on,,,,,10,0,1,,,,,0,,,85,0
121964,note_on,,,,,24,0,1,,,,,0,,,82,84
121965,note_on,,,,,1,0,1,,,,,0,,,70,77
121984,note_on,,,,,19,0,1,,,,,0,,,70,0
122010,note_on,,,,,26,0,1,,,,,0,,,82,0
122022,note_on,,,,,12,0,1,,,,,0,,,73,77
122023,note_on,,,,,1,0,1,,,,,0,,,85,91
122034,note_on,,,,,11,0,1,,,,,0,,,73,0
122041,note_on,,,,,7,0,1,,,,,0,,,85,0
122072,note_on,,,,,31,0,1,,,,,0,,,90,91
122074,note_on,,,,,2,0,1,,,,,0,,,78,79
122080,note_on,,,,,6,0,1,,,,,0,,,78,0
122085,note_on,,,,,5,0,1,,,,,0,,,90,0
122129,control_change,,,,,44,0,1,,,,,0,64,88,,
122133,control_change,,,,,4,0,1,,,,,0,64,0,,
122138,note_on,,,,,5,0,1,,,,,0,,,94,96
122139,note_on,,,,,1,0,1,,,,,0,,,82,95
122141,note_on,,,,,2,0,1,,,,,0,,,90,65
122142,note_on,,,,,1,0,1,,,,,0,,,87,67
122145,note_on,,,,,3,0,1,,,,,0,,,32,61
122146,note_on,,,,,1,0,1,,,,,0,,,44,69
122148,note_on,,,,,0,0,1,,,,,0,,,90,0
122148,note_on,,,,,2,0,1,,,,,0,,,87,0
122156,note_on,,,,,8,0,1,,,,,0,,,90,22
122158,control_change,,,,,0,0,1,,,,,0,64,127,,
122158,note_on,,,,,2,0,1,,,,,0,,,87,20
122160,note_on,,,,,2,0,1,,,,,0,,,32,0
122161,note_on,,,,,1,0,1,,,,,0,,,44,0
122213,note_on,,,,,52,0,1,,,,,0,,,54,59
122238,note_on,,,,,25,0,1,,,,,0,,,54,0
122244,note_on,,,,,6,0,1,,,,,0,,,60,63
122266,note_on,,,,,22,0,1,,,,,0,,,63,60
122270,note_on,,,,,4,0,1,,,,,0,,,60,0
122283,note_on,,,,,13,0,1,,,,,0,,,63,0
122288,note_on,,,,,5,0,1,,,,,0,,,70,59
122309,note_on,,,,,0,0,1,,,,,0,,,63,50
122309,note_on,,,,,21,0,1,,,,,0,,,70,0
122332,note_on,,,,,23,0,1,,,,,0,,,60,63
122341,note_on,,,,,9,0,1,,,,,0,,,63,0
122348,note_on,,,,,7,0,1,,,,,0,,,60,0
122348,note_on,,,,,0,0,1,,,,,0,,,54,58
122355,note_on,,,,,7,0,1,,,,,0,,,54,0
122382,note_on,,,,,27,0,1,,,,,0,,,48,60
122393,note_on,,,,,0,0,1,,,,,0,,,54,64
122393,note_on,,,,,11,0,1,,,,,0,,,48,0
122409,note_on,,,,,16,0,1,,,,,0,,,56,67
122418,note_on,,,,,0,0,1,,,,,0,,,54,0
122418,note_on,,,,,9,0,1,,,,,0,,,56,0
122424,note_on,,,,,6,0,1,,,,,0,,,63,67
122439,note_on,,,,,15,0,1,,,,,0,,,63,0
122442,note_on,,,,,3,0,1,,,,,0,,,54,60
122458,note_on,,,,,16,0,1,,,,,0,,,60,63
122462,note_on,,,,,4,0,1,,,,,0,,,63,66
122463,note_on,,,,,1,0,1,,,,,0,,,54,0
122483,note_on,,,,,20,0,1,,,,,0,,,70,70
122486,note_on,,,,,3,0,1,,,,,0,,,60,0
122492,note_on,,,,,0,0,1,,,,,0,,,70,0
122492,note_on,,,,,6,0,1,,,,,0,,,63,0
122507,note_on,,,,,15,0,1,,,,,0,,,90,0
122513,note_on,,,,,6,0,1,,,,,0,,,94,0
122516,note_on,,,,,3,0,1,,,,,0,,,82,0
122559,note_on,,,,,43,0,1,,,,,0,,,87,0
122568,note_on,,,,,9,0,1,,,,,0,,,92,90
122569,note_on,,,,,1,0,1,,,,,0,,,80,76
122612,note_on,,,,,43,0,1,,,,,0,,,92,0
122620,note_on,,,,,8,0,1,,,,,0,,,80,0
122672,note_on,,,,,52,0,1,,,,,0,,,90,85
122673,note_on,,,,,1,0,1,,,,,0,,,78,73
122753,note_on,,,,,80,0,1,,,,,0,,,90,0
122764,note_on,,,,,11,0,1,,,,,0,,,78,0
122839,note_on,,,,,75,0,1,,,,,0,,,87,73
122840,note_on,,,,,1,0,1,,,,,0,,,75,64
122872,note_on,,,,,32,0,1,,,,,0,,,75,0
122875,note_on,,,,,3,0,1,,,,,0,,,87,0
122913,control_change,,,,,38,0,1,,,,,0,64,24,,
122916,note_on,,,,,3,0,1,,,,,0,,,87,70
122917,control_change,,,,,1,0,1,,,,,0,64,0,,
122917,note_on,,,,,0,0,1,,,,,0,,,75,51
122918,note_on,,,,,1,0,1,,,,,0,,,78,44
122920,note_on,,,,,2,0,1,,,,,0,,,82,42
122922,note_on,,,,,2,0,1,,,,,0,,,46,51
122922,note_on,,,,,0,0,1,,,,,0,,,34,45
122935,note_on,,,,,13,0,1,,,,,0,,,34,0
122939,control_change,,,,,0,0,1,,,,,0,64,88,,
122939,note_on,,,,,4,0,1,,,,,0,,,46,0
122942,control_change,,,,,3,0,1,,,,,0,64,127,,
122962,note_on,,,,,20,0,1,,,,,0,,,49,54
122981,note_on,,,,,19,0,1,,,,,0,,,49,0
122995,note_on,,,,,14,0,1,,,,,0,,,51,57
123007,note_on,,,,,12,0,1,,,,,0,,,51,0
123019,note_on,,,,,12,0,1,,,,,0,,,54,60
123044,note_on,,,,,25,0,1,,,,,0,,,54,0
123049,note_on,,,,,5,0,1,,,,,0,,,58,57
123077,note_on,,,,,28,0,1,,,,,0,,,58,0
123079,note_on,,,,,2,0,1,,,,,0,,,61,61
123102,note_on,,,,,23,0,1,,,,,0,,,61,0
123108,note_on,,,,,6,0,1,,,,,0,,,63,51
123133,note_on,,,,,25,0,1,,,,,0,,,63,0
123143,note_on,,,,,10,0,1,,,,,0,,,61,44
123145,note_on,,,,,2,0,1,,,,,0,,,87,0
123161,note_on,,,,,16,0,1,,,,,0,,,75,0
123165,note_on,,,,,4,0,1,,,,,0,,,61,0
123167,note_on,,,,,2,0,1,,,,,0,,,58,49
123178,note_on,,,,,11,0,1,,,,,0,,,82,0
123194,note_on,,,,,16,0,1,,,,,0,,,54,59
123196,note_on,,,,,2,0,1,,,,,0,,,58,0
123197,note_on,,,,,1,0,1,,,,,0,,,85,77
123198,note_on,,,,,1,0,1,,,,,0,,,73,64
123206,note_on,,,,,8,0,1,,,,,0,,,78,0
123230,note_on,,,,,24,0,1,,,,,0,,,51,50
123231,note_on,,,,,1,0,1,,,,,0,,,54,0
123243,note_on,,,,,12,0,1,,,,,0,,,73,0
123249,note_on,,,,,6,0,1,,,,,0,,,85,0
123259,note_on,,,,,10,0,1,,,,,0,,,49,54
123265,note_on,,,,,6,0,1,,,,,0,,,51,0
123272,note_on,,,,,7,0,1,,,,,0,,,49,0
123296,note_on,,,,,24,0,1,,,,,0,,,85,80
123298,note_on,,,,,2,0,1,,,,,0,,,73,65
123300,note_on,,,,,2,0,1,,,,,0,,,80,61
123302,control_change,,,,,2,0,1,,,,,0,64,40,,
123302,note_on,,,,,0,0,1,,,,,0,,,77,62
123303,note_on,,,,,1,0,1,,,,,0,,,35,59
123305,control_change,,,,,2,0,1,,,,,0,64,0,,
123307,note_on,,,,,2,0,1,,,,,0,,,47,51
123320,note_on,,,,,13,0,1,,,,,0,,,35,0
123324,note_on,,,,,4,0,1,,,,,0,,,47,0
123326,control_change,,,,,2,0,1,,,,,0,64,88,,
123331,control_change,,,,,5,0,1,,,,,0,64,127,,
123354,note_on,,,,,23,0,1,,,,,0,,,49,50
123378,note_on,,,,,24,0,1,,,,,0,,,49,0
123380,note_on,,,,,2,0,1,,,,,0,,,73,0
123381,note_on,,,,,1,0,1,,,,,0,,,53,63
123386,note_on,,,,,5,0,1,,,,,0,,,77,0
123394,note_on,,,,,8,0,1,,,,,0,,,80,0
123405,note_on,,,,,11,0,1,,,,,0,,,53,0
123406,note_on,,,,,1,0,1,,,,,0,,,56,57
123429,note_on,,,,,23,0,1,,,,,0,,,85,0
123432,note_on,,,,,3,0,1,,,,,0,,,59,62
123433,note_on,,,,,1,0,1,,,,,0,,,56,0
123459,note_on,,,,,26,0,1,,,,,0,,,59,0
123462,note_on,,,,,3,0,1,,,,,0,,,61,67
123487,note_on,,,,,25,0,1,,,,,0,,,61,0
123491,note_on,,,,,4,0,1,,,,,0,,,63,64
123492,note_on,,,,,1,0,1,,,,,0,,,87,87
123495,note_on,,,,,3,0,1,,,,,0,,,75,64
123496,note_on,,,,,0,0,1,,,,,0,,,77,65
123496,note_on,,,,,1,0,1,,,,,0,,,80,64
123520,note_on,,,,,24,0,1,,,,,0,,,63,0
123521,note_on,,,,,1,0,1,,,,,0,,,61,49
123530,note_on,,,,,9,0,1,,,,,0,,,87,0
123537,note_on,,,,,7,0,1,,,,,0,,,61,0
123545,note_on,,,,,8,0,1,,,,,0,,,75,0
123547,note_on,,,,,2,0,1,,,,,0,,,59,68
123571,note_on,,,,,24,0,1,,,,,0,,,59,0
123573,note_on,,,,,2,0,1,,,,,0,,,56,55
123595,note_on,,,,,22,0,1,,,,,0,,,53,65
123603,note_on,,,,,8,0,1,,,,,0,,,77,0
123614,note_on,,,,,11,0,1,,,,,0,,,80,0
123617,note_on,,,,,3,0,1,,,,,0,,,56,0
123624,note_on,,,,,7,0,1,,,,,0,,,85,87
123624,note_on,,,,,0,0,1,,,,,0,,,80,70
123624,note_on,,,,,0,0,1,,,,,0,,,73,84
123624,note_on,,,,,0,0,1,,,,,0,,,77,70
123627,note_on,,,,,3,0,1,,,,,0,,,53,0
123638,note_on,,,,,11,0,1,,,,,0,,,73,0
123641,note_on,,,,,3,0,1,,,,,0,,,49,64
123650,note_on,,,,,9,0,1,,,,,0,,,85,0
123650,note_on,,,,,0,0,1,,,,,0,,,77,0
123650,note_on,,,,,0,0,1,,,,,0,,,80,0
123656,note_on,,,,,6,0,1,,,,,0,,,49,0
123683,control_change,,,,,27,0,1,,,,,0,64,88,,
123686,control_change,,,,,3,0,1,,,,,0,64,0,,
123688,note_on,,,,,2,0,1,,,,,0,,,88,93
123689,note_on,,,,,1,0,1,,,,,0,,,85,64
123690,note_on,,,,,1,0,1,,,,,0,,,76,82
123691,note_on,,,,,1,0,1,,,,,0,,,79,67
123692,note_on,,,,,1,0,1,,,,,0,,,34,53
123694,note_on,,,,,2,0,1,,,,,0,,,46,69
123699,note_on,,,,,5,0,1,,,,,0,,,34,0
123705,note_on,,,,,6,0,1,,,,,0,,,46,0
123712,control_change,,,,,7,0,1,,,,,0,64,104,,
123716,control_change,,,,,4,0,1,,,,,0,64,127,,
123725,note_on,,,,,9,0,1,,,,,0,,,49,76
123746,note_on,,,,,21,0,1,,,,,0,,,49,0
123754,note_on,,,,,8,0,1,,,,,0,,,52,70
123777,note_on,,,,,23,0,1,,,,,0,,,52,0
123783,note_on,,,,,6,0,1,,,,,0,,,55,66
123803,note_on,,,,,20,0,1,,,,,0,,,55,0
123812,note_on,,,,,9,0,1,,,,,0,,,58,62
123831,note_on,,,,,19,0,1,,,,,0,,,58,0
123836,note_on,,,,,5,0,1,,,,,0,,,61,67
123860,note_on,,,,,24,0,1,,,,,0,,,61,0
123865,note_on,,,,,5,0,1,,,,,0,,,64,71
123891,note_on,,,,,26,0,1,,,,,0,,,61,64
123892,note_on,,,,,1,0,1,,,,,0,,,64,0
123915,note_on,,,,,23,0,1,,,,,0,,,58,56
123916,note_on,,,,,1,0,1,,,,,0,,,61,0
123929,note_on,,,,,13,0,1,,,,,0,,,58,0
123943,note_on,,,,,14,0,1,,,,,0,,,55,74
123962,note_on,,,,,19,0,1,,,,,0,,,55,0
123965,note_on,,,,,3,0,1,,,,,0,,,52,60
123979,note_on,,,,,14,0,1,,,,,0,,,88,0
123980,note_on,,,,,1,0,1,,,,,0,,,79,0
123982,note_on,,,,,2,0,1,,,,,0,,,52,0
123989,note_on,,,,,7,0,1,,,,,0,,,49,62
123991,note_on,,,,,2,0,1,,,,,0,,,85,0
123995,note_on,,,,,4,0,1,,,,,0,,,76,0
124004,note_on,,,,,9,0,1,,,,,0,,,49,0
124042,control_change,,,,,38,0,1,,,,,0,64,88,,
124045,note_on,,,,,3,0,1,,,,,0,,,85,89
124046,note_on,,,,,1,0,1,,,,,0,,,73,85
124046,control_change,,,,,0,0,1,,,,,0,64,0,,
124046,note_on,,,,,0,0,1,,,,,0,,,80,77
124049,note_on,,,,,3,0,1,,,,,0,,,77,82
124049,note_on,,,,,0,0,1,,,,,0,,,35,68
124053,note_on,,,,,4,0,1,,,,,0,,,47,69
124062,note_on,,,,,9,0,1,,,,,0,,,35,0
124066,note_on,,,,,4,0,1,,,,,0,,,47,0
124068,control_change,,,,,2,0,1,,,,,0,64,127,,
124089,note_on,,,,,21,0,1,,,,,0,,,49,71
124113,note_on,,,,,24,0,1,,,,,0,,,49,0
124118,note_on,,,,,5,0,1,,,,,0,,,53,74
124136,note_on,,,,,18,0,1,,,,,0,,,73,0
124138,note_on,,,,,2,0,1,,,,,0,,,53,0
124143,note_on,,,,,5,0,1,,,,,0,,,77,0
124143,note_on,,,,,0,0,1,,,,,0,,,56,65
124150,note_on,,,,,7,0,1,,,,,0,,,80,0
124172,note_on,,,,,22,0,1,,,,,0,,,85,0
124173,note_on,,,,,1,0,1,,,,,0,,,56,0
124174,note_on,,,,,1,0,1,,,,,0,,,59,66
124200,note_on,,,,,26,0,1,,,,,0,,,61,74
124204,note_on,,,,,4,0,1,,,,,0,,,59,0
124225,note_on,,,,,21,0,1,,,,,0,,,61,0
124228,note_on,,,,,3,0,1,,,,,0,,,87,89
124230,note_on,,,,,0,0,1,,,,,0,,,80,73
124230,note_on,,,,,2,0,1,,,,,0,,,63,70
124231,note_on,,,,,0,0,1,,,,,0,,,75,69
124231,note_on,,,,,1,0,1,,,,,0,,,77,75
124258,note_on,,,,,27,0,1,,,,,0,,,63,0
124258,note_on,,,,,0,0,1,,,,,0,,,61,62
124263,note_on,,,,,5,0,1,,,,,0,,,87,0
124276,note_on,,,,,13,0,1,,,,,0,,,75,0
124277,note_on,,,,,1,0,1,,,,,0,,,61,0
124291,note_on,,,,,14,0,1,,,,,0,,,59,72
124315,note_on,,,,,24,0,1,,,,,0,,,59,0
124321,note_on,,,,,6,0,1,,,,,0,,,56,61
124328,note_on,,,,,7,0,1,,,,,0,,,77,0
124342,note_on,,,,,14,0,1,,,,,0,,,80,0
124351,note_on,,,,,0,0,1,,,,,0,,,73,84
124351,note_on,,,,,9,0,1,,,,,0,,,53,66
124352,note_on,,,,,0,0,1,,,,,0,,,77,70
124352,note_on,,,,,0,0,1,,,,,0,,,80,70
124352,note_on,,,,,1,0,1,,,,,0,,,85,95
124360,note_on,,,,,8,0,1,,,,,0,,,56,0
124367,note_on,,,,,7,0,1,,,,,0,,,73,0
124376,note_on,,,,,0,0,1,,,,,0,,,53,0
124376,note_on,,,,,0,0,1,,,,,0,,,77,0
124376,note_on,,,,,0,0,1,,,,,0,,,80,0
124376,note_on,,,,,9,0,1,,,,,0,,,85,0
124385,note_on,,,,,9,0,1,,,,,0,,,49,60
124397,note_on,,,,,12,0,1,,,,,0,,,49,0
124409,control_change,,,,,12,0,1,,,,,0,64,104,,
124412,control_change,,,,,3,0,1,,,,,0,64,0,,
124418,note_on,,,,,6,0,1,,,,,0,,,88,96
124418,note_on,,,,,0,0,1,,,,,0,,,85,76
124419,note_on,,,,,1,0,1,,,,,0,,,34,67
124419,note_on,,,,,0,0,1,,,,,0,,,76,87
124419,note_on,,,,,0,0,1,,,,,0,,,79,77
124421,note_on,,,,,2,0,1,,,,,0,,,46,75
124429,note_on,,,,,8,0,1,,,,,0,,,34,0
124432,note_on,,,,,3,0,1,,,,,0,,,46,0
124433,control_change,,,,,1,0,1,,,,,0,64,88,,
124438,control_change,,,,,5,0,1,,,,,0,64,127,,
124454,note_on,,,,,16,0,1,,,,,0,,,49,80
124474,note_on,,,,,20,0,1,,,,,0,,,49,0
124482,note_on,,,,,8,0,1,,,,,0,,,52,70
124503,note_on,,,,,21,0,1,,,,,0,,,52,0
124507,note_on,,,,,4,0,1,,,,,0,,,55,70
124526,note_on,,,,,19,0,1,,,,,0,,,55,0
124536,note_on,,,,,10,0,1,,,,,0,,,58,67
124554,note_on,,,,,18,0,1,,,,,0,,,58,0
124557,note_on,,,,,3,0,1,,,,,0,,,61,59
124580,note_on,,,,,23,0,1,,,,,0,,,61,0
124583,note_on,,,,,3,0,1,,,,,0,,,64,78
124610,note_on,,,,,27,0,1,,,,,0,,,61,70
124611,note_on,,,,,1,0,1,,,,,0,,,64,0
124632,note_on,,,,,21,0,1,,,,,0,,,58,58
124636,note_on,,,,,4,0,1,,,,,0,,,61,0
124641,note_on,,,,,5,0,1,,,,,0,,,88,0
124643,note_on,,,,,2,0,1,,,,,0,,,85,0
124646,note_on,,,,,3,0,1,,,,,0,,,76,0
124648,note_on,,,,,2,0,1,,,,,0,,,58,0
124652,note_on,,,,,4,0,1,,,,,0,,,79,0
124664,note_on,,,,,12,0,1,,,,,0,,,55,70
124672,note_on,,,,,8,0,1,,,,,0,,,88,99
124673,note_on,,,,,0,0,1,,,,,0,,,85,75
124673,note_on,,,,,1,0,1,,,,,0,,,76,92
124673,note_on,,,,,0,0,1,,,,,0,,,79,88
124693,note_on,,,,,20,0,1,,,,,0,,,55,0
124693,note_on,,,,,0,0,1,,,,,0,,,52,66
124712,note_on,,,,,19,0,1,,,,,0,,,52,0
124720,note_on,,,,,8,0,1,,,,,0,,,49,62
124727,note_on,,,,,7,0,1,,,,,0,,,49,0
124757,control_change,,,,,30,0,1,,,,,0,64,40,,
124761,control_change,,,,,4,0,1,,,,,0,64,0,,
124765,note_on,,,,,4,0,1,,,,,0,,,33,85
124765,note_on,,,,,0,0,1,,,,,0,,,45,92
124775,note_on,,,,,10,0,1,,,,,0,,,33,0
124779,control_change,,,,,0,0,1,,,,,0,64,127,,
124779,note_on,,,,,4,0,1,,,,,0,,,45,0
124783,note_on,,,,,4,0,1,,,,,0,,,79,0
124796,note_on,,,,,13,0,1,,,,,0,,,88,0
124801,note_on,,,,,5,0,1,,,,,0,,,49,78
124802,note_on,,,,,1,0,1,,,,,0,,,76,0
124804,note_on,,,,,2,0,1,,,,,0,,,85,0
124820,note_on,,,,,16,0,1,,,,,0,,,49,0
124829,note_on,,,,,9,0,1,,,,,0,,,52,80
124855,note_on,,,,,26,0,1,,,,,0,,,52,0
124857,note_on,,,,,2,0,1,,,,,0,,,57,68
124862,note_on,,,,,0,0,1,,,,,0,,,76,89
124862,note_on,,,,,5,0,1,,,,,0,,,88,94
124863,note_on,,,,,1,0,1,,,,,0,,,81,82
124863,note_on,,,,,0,0,1,,,,,0,,,85,75
124880,note_on,,,,,17,0,1,,,,,0,,,57,0
124895,note_on,,,,,15,0,1,,,,,0,,,61,64
124919,note_on,,,,,24,0,1,,,,,0,,,61,0
124921,note_on,,,,,2,0,1,,,,,0,,,64,74
124928,note_on,,,,,7,0,1,,,,,0,,,64,0
124957,control_change,,,,,29,0,1,,,,,0,64,104,,
124959,note_on,,,,,2,0,1,,,,,0,,,81,0
124961,note_on,,,,,2,0,1,,,,,0,,,43,90
124961,control_change,,,,,0,0,1,,,,,0,64,0,,
124964,note_on,,,,,3,0,1,,,,,0,,,31,80
124970,note_on,,,,,6,0,1,,,,,0,,,31,0
124972,note_on,,,,,2,0,1,,,,,0,,,43,0
124977,note_on,,,,,5,0,1,,,,,0,,,88,0
124979,control_change,,,,,2,0,1,,,,,0,64,127,,
124982,note_on,,,,,3,0,1,,,,,0,,,85,0
124989,note_on,,,,,7,0,1,,,,,0,,,76,0
125000,note_on,,,,,11,0,1,,,,,0,,,49,84
125018,note_on,,,,,18,0,1,,,,,0,,,49,0
125022,note_on,,,,,4,0,1,,,,,0,,,52,85
125054,note_on,,,,,32,0,1,,,,,0,,,52,0
125058,note_on,,,,,4,0,1,,,,,0,,,58,73
125063,note_on,,,,,5,0,1,,,,,0,,,88,97
125064,note_on,,,,,0,0,1,,,,,0,,,82,71
125064,note_on,,,,,0,0,1,,,,,0,,,85,71
125064,note_on,,,,,1,0,1,,,,,0,,,76,88
125065,note_on,,,,,1,0,1,,,,,0,,,79,74
125075,note_on,,,,,10,0,1,,,,,0,,,58,0
125076,note_on,,,,,1,0,1,,,,,0,,,76,0
125078,note_on,,,,,2,0,1,,,,,0,,,79,0
125085,note_on,,,,,7,0,1,,,,,0,,,82,0
125092,note_on,,,,,7,0,1,,,,,0,,,85,0
125094,note_on,,,,,2,0,1,,,,,0,,,61,84
125096,note_on,,,,,2,0,1,,,,,0,,,88,0
125126,note_on,,,,,30,0,1,,,,,0,,,61,0
125130,note_on,,,,,4,0,1,,,,,0,,,64,83
125138,note_on,,,,,8,0,1,,,,,0,,,64,0
125186,control_change,,,,,48,0,1,,,,,0,64,104,,
125189,control_change,,,,,3,0,1,,,,,0,64,0,,
125200,note_on,,,,,11,0,1,,,,,0,,,91,99
125200,set_tempo,,,,,17538,1,0,,582524,,,,,,,
125202,note_on,,,,,2,0,1,,,,,0,,,86,81
125202,note_on,,,,,0,0,1,,,,,0,,,79,80
125202,note_on,,,,,0,0,1,,,,,0,,,82,76
125203,control_change,,,,,1,0,1,,,,,0,64,104,,
125204,note_on,,,,,1,0,1,,,,,0,,,29,60
125206,control_change,,,,,2,0,1,,,,,0,64,127,,
125207,note_on,,,,,1,0,1,,,,,0,,,41,62
125211,note_on,,,,,4,0,1,,,,,0,,,29,0
125218,note_on,,,,,7,0,1,,,,,0,,,41,0
125241,note_on,,,,,23,0,1,,,,,0,,,46,62
125263,note_on,,,,,22,0,1,,,,,0,,,46,0
125264,note_on,,,,,1,0,1,,,,,0,,,50,78
125280,note_on,,,,,16,0,1,,,,,0,,,50,0
125285,note_on,,,,,5,0,1,,,,,0,,,53,70
125298,note_on,,,,,13,0,1,,,,,0,,,53,0
125311,note_on,,,,,13,0,1,,,,,0,,,58,65
125332,note_on,,,,,21,0,1,,,,,0,,,62,59
125333,note_on,,,,,1,0,1,,,,,0,,,58,0
125334,note_on,,,,,1,0,1,,,,,0,,,91,0
125335,note_on,,,,,1,0,1,,,,,0,,,82,0
125340,note_on,,,,,0,0,1,,,,,0,,,79,0
125340,note_on,,,,,5,0,1,,,,,0,,,86,0
125347,note_on,,,,,7,0,1,,,,,0,,,62,0
125351,note_on,,,,,4,0,1,,,,,0,,,67,67
125371,control_change,,,,,0,0,1,,,,,0,64,72,,
125371,note_on,,,,,20,0,1,,,,,0,,,67,0
125372,note_on,,,,,1,0,1,,,,,0,,,89,94
125373,control_change,,,,,1,0,1,,,,,0,64,0,,
125374,note_on,,,,,0,0,1,,,,,0,,,65,80
125374,note_on,,,,,1,0,1,,,,,0,,,82,71
125374,note_on,,,,,0,0,1,,,,,0,,,77,81
125374,note_on,,,,,0,0,1,,,,,0,,,86,82
125381,set_tempo,,,,,181,1,0,,576923,,,,,,,
125386,control_change,,,,,12,0,1,,,,,0,64,40,,
125387,note_on,,,,,1,0,1,,,,,0,,,65,0
125389,control_change,,,,,2,0,1,,,,,0,64,127,,
125407,note_on,,,,,18,0,1,,,,,0,,,89,0
125408,note_on,,,,,1,0,1,,,,,0,,,86,0
125408,note_on,,,,,0,0,1,,,,,0,,,82,0
125415,note_on,,,,,7,0,1,,,,,0,,,77,0
125448,note_on,,,,,33,0,1,,,,,0,,,58,54
125448,note_on,,,,,0,0,1,,,,,0,,,62,73
125451,note_on,,,,,3,0,1,,,,,0,,,53,59
125456,note_on,,,,,5,0,1,,,,,0,,,53,0
125457,note_on,,,,,1,0,1,,,,,0,,,58,0
125458,note_on,,,,,1,0,1,,,,,0,,,62,0
125483,note_on,,,,,25,0,1,,,,,0,,,86,87
125484,note_on,,,,,1,0,1,,,,,0,,,82,65
125485,note_on,,,,,1,0,1,,,,,0,,,77,69
125486,note_on,,,,,1,0,1,,,,,0,,,74,64
125496,note_on,,,,,10,0,1,,,,,0,,,77,0
125499,note_on,,,,,3,0,1,,,,,0,,,74,0
125504,note_on,,,,,5,0,1,,,,,0,,,86,0
125512,note_on,,,,,8,0,1,,,,,0,,,82,0
125520,control_change,,,,,8,0,1,,,,,0,64,72,,
125522,note_on,,,,,2,0,1,,,,,0,,,62,85
125523,control_change,,,,,0,0,1,,,,,0,64,0,,
125523,note_on,,,,,1,0,1,,,,,0,,,58,61
125524,note_on,,,,,0,0,1,,,,,0,,,55,64
125524,note_on,,,,,1,0,1,,,,,0,,,53,66
125529,note_on,,,,,5,0,1,,,,,0,,,53,0
125536,control_change,,,,,7,0,1,,,,,0,64,24,,
125537,note_on,,,,,1,0,1,,,,,0,,,55,0
125537,note_on,,,,,0,0,1,,,,,0,,,62,0
125538,control_change,,,,,0,0,1,,,,,0,64,88,,
125538,note_on,,,,,1,0,1,,,,,0,,,58,0
125541,control_change,,,,,3,0,1,,,,,0,64,127,,
125557,note_on,,,,,16,0,1,,,,,0,,,86,89
125557,note_on,,,,,0,0,1,,,,,0,,,82,69
125558,note_on,,,,,1,0,1,,,,,0,,,74,74
125560,note_on,,,,,2,0,1,,,,,0,,,79,70
125563,set_tempo,,,,,182,1,0,,571429,,,,,,,
125568,note_on,,,,,8,0,1,,,,,0,,,74,0
125573,note_on,,,,,5,0,1,,,,,0,,,79,0
125575,note_on,,,,,2,0,1,,,,,0,,,86,0
125577,note_on,,,,,2,0,1,,,,,0,,,82,0
125592,note_on,,,,,15,0,1,,,,,0,,,63,85
125593,note_on,,,,,1,0,1,,,,,0,,,55,72
125594,note_on,,,,,1,0,1,,,,,0,,,53,64
125595,note_on,,,,,1,0,1,,,,,0,,,58,60
125600,note_on,,,,,5,0,1,,,,,0,,,58,0
125602,note_on,,,,,2,0,1,,,,,0,,,63,0
125604,note_on,,,,,0,0,1,,,,,0,,,55,0
125604,note_on,,,,,2,0,1,,,,,0,,,53,0
125628,note_on,,,,,24,0,1,,,,,0,,,87,84
125631,note_on,,,,,3,0,1,,,,,0,,,82,67
125631,note_on,,,,,0,0,1,,,,,0,,,75,68
125635,note_on,,,,,4,0,1,,,,,0,,,79,36
125641,note_on,,,,,6,0,1,,,,,0,,,79,0
125643,note_on,,,,,2,0,1,,,,,0,,,75,0
125644,note_on,,,,,1,0,1,,,,,0,,,82,0
125644,control_change,,,,,0,0,1,,,,,0,64,104,,
125644,note_on,,,,,0,0,1,,,,,0,,,87,0
125646,control_change,,,,,2,0,1,,,,,0,64,56,,
125649,control_change,,,,,3,0,1,,,,,0,64,0,,
125650,note_on,,,,,1,0,1,,,,,0,,,41,64
125653,note_on,,,,,3,0,1,,,,,0,,,46,65
125659,note_on,,,,,6,0,1,,,,,0,,,51,60
125662,control_change,,,,,3,0,1,,,,,0,64,24,,
125663,note_on,,,,,1,0,1,,,,,0,,,41,0
125664,control_change,,,,,1,0,1,,,,,0,64,88,,
125666,note_on,,,,,2,0,1,,,,,0,,,55,88
125667,control_change,,,,,1,0,1,,,,,0,64,127,,
125672,note_on,,,,,5,0,1,,,,,0,,,51,0
125672,note_on,,,,,0,0,1,,,,,0,,,46,0
125675,note_on,,,,,3,0,1,,,,,0,,,55,0
125703,note_on,,,,,28,0,1,,,,,0,,,79,88
125703,note_on,,,,,0,0,1,,,,,0,,,75,69
125704,note_on,,,,,1,0,1,,,,,0,,,70,65
125704,note_on,,,,,0,0,1,,,,,0,,,67,69
125715,note_on,,,,,11,0,1,,,,,0,,,67,0
125716,note_on,,,,,1,0,1,,,,,0,,,70,0
125722,control_change,,,,,0,0,1,,,,,0,64,88,,
125722,note_on,,,,,0,0,1,,,,,0,,,41,60
125722,note_on,,,,,6,0,1,,,,,0,,,75,0
125723,note_on,,,,,1,0,1,,,,,0,,,79,0
125725,control_change,,,,,2,0,1,,,,,0,64,40,,
125727,control_change,,,,,2,0,1,,,,,0,64,0,,
125730,note_on,,,,,3,0,1,,,,,0,,,51,56
125732,note_on,,,,,2,0,1,,,,,0,,,48,70
125736,note_on,,,,,4,0,1,,,,,0,,,41,0
125743,control_change,,,,,0,0,1,,,,,0,64,72,,
125743,note_on,,,,,7,0,1,,,,,0,,,57,79
125745,set_tempo,,,,,182,1,0,,566038,,,,,,,
125746,control_change,,,,,3,0,1,,,,,0,64,127,,
125747,note_on,,,,,1,0,1,,,,,0,,,48,0
125750,note_on,,,,,3,0,1,,,,,0,,,51,0
125753,note_on,,,,,3,0,1,,,,,0,,,57,0
125771,note_on,,,,,18,0,1,,,,,0,,,75,77
125772,note_on,,,,,1,0,1,,,,,0,,,81,87
125772,note_on,,,,,0,0,1,,,,,0,,,69,78
125774,note_on,,,,,2,0,1,,,,,0,,,72,70
125778,note_on,,,,,0,0,1,,,,,0,,,69,0
125778,note_on,,,,,4,0,1,,,,,0,,,72,0
125784,note_on,,,,,6,0,1,,,,,0,,,75,0
125787,note_on,,,,,3,0,1,,,,,0,,,81,0
125806,control_change,,,,,19,0,1,,,,,0,64,104,,
125809,control_change,,,,,3,0,1,,,,,0,64,88,,
125811,control_change,,,,,2,0,1,,,,,0,64,40,,
125814,control_change,,,,,3,0,1,,,,,0,64,0,,
125824,note_on,,,,,10,0,1,,,,,0,,,91,99
125825,note_on,,,,,1,0,1,,,,,0,,,82,77
125825,note_on,,,,,0,0,1,,,,,0,,,79,85
125825,note_on,,,,,0,0,1,,,,,0,,,86,87
125826,note_on,,,,,1,0,1,,,,,0,,,29,67
125828,note_on,,,,,2,0,1,,,,,0,,,41,74
125832,control_change,,,,,4,0,1,,,,,0,64,104,,
125835,control_change,,,,,3,0,1,,,,,0,64,127,,
125837,note_on,,,,,2,0,1,,,,,0,,,29,0
125843,note_on,,,,,6,0,1,,,,,0,,,41,0
125864,note_on,,,,,21,0,1,,,,,0,,,46,69
125882,note_on,,,,,18,0,1,,,,,0,,,46,0
125884,note_on,,,,,2,0,1,,,,,0,,,50,72
125896,note_on,,,,,12,0,1,,,,,0,,,50,0
125901,note_on,,,,,5,0,1,,,,,0,,,53,70
125913,note_on,,,,,12,0,1,,,,,0,,,53,0
125926,set_tempo,,,,,181,1,0,,560748,,,,,,,
125927,note_on,,,,,14,0,1,,,,,0,,,58,73
125933,note_on,,,,,6,0,1,,,,,0,,,91,0
125939,note_on,,,,,6,0,1,,,,,0,,,82,0
125940,note_on,,,,,1,0,1,,,,,0,,,86,0
125944,note_on,,,,,4,0,1,,,,,0,,,62,70
125945,note_on,,,,,1,0,1,,,,,0,,,79,0
125946,note_on,,,,,1,0,1,,,,,0,,,58,0
125957,note_on,,,,,11,0,1,,,,,0,,,62,0
125961,note_on,,,,,4,0,1,,,,,0,,,67,71
125978,note_on,,,,,17,0,1,,,,,0,,,67,0
125979,control_change,,,,,1,0,1,,,,,0,64,56,,
125981,note_on,,,,,2,0,1,,,,,0,,,89,93
125982,control_change,,,,,1,0,1,,,,,0,64,0,,
125982,note_on,,,,,0,0,1,,,,,0,,,65,82
125983,note_on,,,,,0,0,1,,,,,0,,,77,80
125983,note_on,,,,,1,0,1,,,,,0,,,82,71
125984,note_on,,,,,1,0,1,,,,,0,,,86,79
125993,note_on,,,,,9,0,1,,,,,0,,,65,0
125995,control_change,,,,,2,0,1,,,,,0,64,88,,
125997,control_change,,,,,2,0,1,,,,,0,64,127,,
126009,note_on,,,,,12,0,1,,,,,0,,,89,0
126010,note_on,,,,,1,0,1,,,,,0,,,86,0
126011,note_on,,,,,1,0,1,,,,,0,,,82,0
126019,note_on,,,,,8,0,1,,,,,0,,,77,0
126055,note_on,,,,,36,0,1,,,,,0,,,58,60
126055,note_on,,,,,0,0,1,,,,,0,,,62,76
126057,note_on,,,,,2,0,1,,,,,0,,,53,56
126063,note_on,,,,,6,0,1,,,,,0,,,53,0
126065,note_on,,,,,0,0,1,,,,,0,,,58,0
126065,note_on,,,,,2,0,1,,,,,0,,,62,0
126089,note_on,,,,,0,0,1,,,,,0,,,86,84
126089,note_on,,,,,24,0,1,,,,,0,,,82,64
126090,note_on,,,,,1,0,1,,,,,0,,,77,66
126091,note_on,,,,,1,0,1,,,,,0,,,74,66
126100,note_on,,,,,9,0,1,,,,,0,,,77,0
126104,note_on,,,,,4,0,1,,,,,0,,,74,0
126108,set_tempo,,,,,182,1,0,,555556,,,,,,,
126110,note_on,,,,,6,0,1,,,,,0,,,86,0
126113,note_on,,,,,3,0,1,,,,,0,,,82,0
126126,control_change,,,,,13,0,1,,,,,0,64,88,,
126127,note_on,,,,,0,0,1,,,,,0,,,58,65
126127,note_on,,,,,1,0,1,,,,,0,,,62,83
126128,control_change,,,,,1,0,1,,,,,0,64,0,,
126129,note_on,,,,,1,0,1,,,,,0,,,53,65
126130,note_on,,,,,1,0,1,,,,,0,,,55,54
126135,note_on,,,,,5,0,1,,,,,0,,,53,0
126142,note_on,,,,,7,0,1,,,,,0,,,62,0
126142,control_change,,,,,0,0,1,,,,,0,64,56,,
126143,note_on,,,,,1,0,1,,,,,0,,,58,0
126144,control_change,,,,,1,0,1,,,,,0,64,127,,
126146,note_on,,,,,2,0,1,,,,,0,,,55,0
126164,note_on,,,,,18,0,1,,,,,0,,,86,87
126165,note_on,,,,,1,0,1,,,,,0,,,82,65
126167,note_on,,,,,2,0,1,,,,,0,,,74,62
126168,note_on,,,,,1,0,1,,,,,0,,,79,57
126172,note_on,,,,,4,0,1,,,,,0,,,74,0
126180,note_on,,,,,8,0,1,,,,,0,,,86,0
126182,note_on,,,,,2,0,1,,,,,0,,,79,0
126183,note_on,,,,,1,0,1,,,,,0,,,82,0
126195,note_on,,,,,12,0,1,,,,,0,,,53,68
126196,note_on,,,,,1,0,1,,,,,0,,,63,79
126197,note_on,,,,,1,0,1,,,,,0,,,58,59
126199,note_on,,,,,2,0,1,,,,,0,,,55,55
126203,note_on,,,,,4,0,1,,,,,0,,,55,0
126206,note_on,,,,,0,0,1,,,,,0,,,63,0
126206,note_on,,,,,3,0,1,,,,,0,,,58,0
126208,note_on,,,,,2,0,1,,,,,0,,,53,0
126229,note_on,,,,,21,0,1,,,,,0,,,87,84
126230,note_on,,,,,1,0,1,,,,,0,,,82,67
126231,note_on,,,,,1,0,1,,,,,0,,,75,74
126234,note_on,,,,,3,0,1,,,,,0,,,79,54
126239,note_on,,,,,5,0,1,,,,,0,,,79,0
126241,note_on,,,,,2,0,1,,,,,0,,,82,0
126243,note_on,,,,,2,0,1,,,,,0,,,75,0
126243,note_on,,,,,0,0,1,,,,,0,,,87,0
126249,control_change,,,,,0,0,1,,,,,0,64,88,,
126249,note_on,,,,,6,0,1,,,,,0,,,39,63
126251,note_on,,,,,2,0,1,,,,,0,,,48,65
126252,control_change,,,,,1,0,1,,,,,0,64,40,,
126255,control_change,,,,,3,0,1,,,,,0,64,0,,
126256,note_on,,,,,1,0,1,,,,,0,,,48,0
126259,note_on,,,,,3,0,1,,,,,0,,,39,0
126261,note_on,,,,,0,0,1,,,,,0,,,55,84
126261,note_on,,,,,2,0,1,,,,,0,,,53,74
126262,control_change,,,,,1,0,1,,,,,0,64,88,,
126265,control_change,,,,,3,0,1,,,,,0,64,127,,
126266,note_on,,,,,1,0,1,,,,,0,,,53,0
126276,note_on,,,,,10,0,1,,,,,0,,,55,0
126290,set_tempo,,,,,182,1,0,,550459,,,,,,,
126299,note_on,,,,,23,0,1,,,,,0,,,79,87
126300,note_on,,,,,1,0,1,,,,,0,,,67,73
126300,note_on,,,,,0,0,1,,,,,0,,,75,64
126300,note_on,,,,,0,0,1,,,,,0,,,70,63
126313,note_on,,,,,13,0,1,,,,,0,,,70,0
126320,note_on,,,,,7,0,1,,,,,0,,,67,0
126326,note_on,,,,,6,0,1,,,,,0,,,79,0
126326,note_on,,,,,0,0,1,,,,,0,,,39,60
126328,control_change,,,,,0,0,1,,,,,0,64,72,,
126328,note_on,,,,,2,0,1,,,,,0,,,75,0
126330,control_change,,,,,2,0,1,,,,,0,64,0,,
126338,control_change,,,,,0,0,1,,,,,0,64,40,,
126338,note_on,,,,,8,0,1,,,,,0,,,39,0
126339,note_on,,,,,1,0,1,,,,,0,,,51,48
126340,note_on,,,,,1,0,1,,,,,0,,,57,85
126341,note_on,,,,,1,0,1,,,,,0,,,48,63
126341,control_change,,,,,0,0,1,,,,,0,64,104,,
126343,control_change,,,,,2,0,1,,,,,0,64,127,,
126344,note_on,,,,,1,0,1,,,,,0,,,51,0
126349,note_on,,,,,5,0,1,,,,,0,,,57,0
126354,note_on,,,,,5,0,1,,,,,0,,,48,0
126374,note_on,,,,,20,0,1,,,,,0,,,75,84
126375,note_on,,,,,0,0,1,,,,,0,,,69,81
126375,note_on,,,,,1,0,1,,,,,0,,,81,92
126377,note_on,,,,,2,0,1,,,,,0,,,72,73
126380,note_on,,,,,3,0,1,,,,,0,,,69,0
126381,note_on,,,,,1,0,1,,,,,0,,,72,0
126387,note_on,,,,,6,0,1,,,,,0,,,75,0
126390,note_on,,,,,3,0,1,,,,,0,,,81,0
126426,control_change,,,,,36,0,1,,,,,0,64,56,,
126429,control_change,,,,,3,0,1,,,,,0,64,0,,
126432,note_on,,,,,0,0,1,,,,,0,,,82,77
126432,note_on,,,,,0,0,1,,,,,0,,,85,80
126432,note_on,,,,,0,0,1,,,,,0,,,25,82
126432,note_on,,,,,0,0,1,,,,,0,,,80,86
126432,note_on,,,,,3,0,1,,,,,0,,,92,103
126433,note_on,,,,,1,0,1,,,,,0,,,37,90
126442,control_change,,,,,0,0,1,,,,,0,64,72,,
126442,note_on,,,,,9,0,1,,,,,0,,,25,0
126443,note_on,,,,,1,0,1,,,,,0,,,37,0
126445,control_change,,,,,2,0,1,,,,,0,64,127,,
126466,note_on,,,,,21,0,1,,,,,0,,,46,71
126471,set_tempo,,,,,181,1,0,,545455,,,,,,,
126486,note_on,,,,,20,0,1,,,,,0,,,49,74
126488,note_on,,,,,2,0,1,,,,,0,,,46,0
126499,note_on,,,,,11,0,1,,,,,0,,,49,0
126503,note_on,,,,,4,0,1,,,,,0,,,54,76
126517,note_on,,,,,14,0,1,,,,,0,,,54,0
126519,note_on,,,,,2,0,1,,,,,0,,,58,78
126531,note_on,,,,,12,0,1,,,,,0,,,58,0
126537,note_on,,,,,6,0,1,,,,,0,,,61,77
126541,note_on,,,,,4,0,1,,,,,0,,,92,0
126544,note_on,,,,,3,0,1,,,,,0,,,80,0
126552,note_on,,,,,0,0,1,,,,,0,,,85,0
126552,note_on,,,,,8,0,1,,,,,0,,,61,0
126555,note_on,,,,,3,0,1,,,,,0,,,68,76
126557,note_on,,,,,2,0,1,,,,,0,,,82,0
126571,note_on,,,,,14,0,1,,,,,0,,,68,0
126576,note_on,,,,,5,0,1,,,,,0,,,66,85
126578,note_on,,,,,2,0,1,,,,,0,,,90,90
126579,note_on,,,,,0,0,1,,,,,0,,,78,81
126579,control_change,,,,,1,0,1,,,,,0,64,40,,
126580,note_on,,,,,1,0,1,,,,,0,,,85,75
126581,note_on,,,,,1,0,1,,,,,0,,,82,73
126581,control_change,,,,,0,0,1,,,,,0,64,0,,
126591,note_on,,,,,10,0,1,,,,,0,,,66,0
126592,control_change,,,,,1,0,1,,,,,0,64,72,,
126594,control_change,,,,,2,0,1,,,,,0,64,127,,
126609,note_on,,,,,15,0,1,,,,,0,,,90,0
126610,note_on,,,,,1,0,1,,,,,0,,,82,0
126613,note_on,,,,,3,0,1,,,,,0,,,85,0
126615,note_on,,,,,2,0,1,,,,,0,,,78,0
126648,note_on,,,,,33,0,1,,,,,0,,,54,70
126650,note_on,,,,,2,0,1,,,,,0,,,58,62
126650,note_on,,,,,0,0,1,,,,,0,,,49,55
126653,set_tempo,,,,,182,1,0,,540541,,,,,,,
126654,control_change,,,,,4,0,1,,,,,0,64,88,,
126658,note_on,,,,,4,0,1,,,,,0,,,54,0
126659,note_on,,,,,1,0,1,,,,,0,,,49,0
126661,note_on,,,,,2,0,1,,,,,0,,,58,0
126662,control_change,,,,,1,0,1,,,,,0,64,127,,
126678,note_on,,,,,16,0,1,,,,,0,,,82,74
126679,note_on,,,,,1,0,1,,,,,0,,,70,56
126680,note_on,,,,,0,0,1,,,,,0,,,73,56
126680,note_on,,,,,1,0,1,,,,,0,,,78,61
126691,note_on,,,,,11,0,1,,,,,0,,,73,0
126696,note_on,,,,,5,0,1,,,,,0,,,70,0
126697,note_on,,,,,1,0,1,,,,,0,,,82,0
126698,note_on,,,,,1,0,1,,,,,0,,,78,0
126710,note_on,,,,,12,0,1,,,,,0,,,58,73
126712,note_on,,,,,0,0,1,,,,,0,,,49,49
126712,note_on,,,,,2,0,1,,,,,0,,,56,55
126714,note_on,,,,,2,0,1,,,,,0,,,54,34
126715,control_change,,,,,1,0,1,,,,,0,64,88,,
126718,control_change,,,,,3,0,1,,,,,0,64,72,,
126719,note_on,,,,,1,0,1,,,,,0,,,54,0
126720,control_change,,,,,1,0,1,,,,,0,64,88,,
126723,control_change,,,,,0,0,1,,,,,0,64,127,,
126723,note_on,,,,,3,0,1,,,,,0,,,56,0
126724,note_on,,,,,1,0,1,,,,,0,,,49,0
126725,note_on,,,,,1,0,1,,,,,0,,,58,0
126743,note_on,,,,,18,0,1,,,,,0,,,82,73
126744,note_on,,,,,1,0,1,,,,,0,,,70,60
126745,note_on,,,,,1,0,1,,,,,0,,,78,55
126746,note_on,,,,,1,0,1,,,,,0,,,75,57
126757,note_on,,,,,11,0,1,,,,,0,,,70,0
126761,note_on,,,,,4,0,1,,,,,0,,,78,0
126763,note_on,,,,,2,0,1,,,,,0,,,75,0
126764,note_on,,,,,1,0,1,,,,,0,,,82,0
126774,note_on,,,,,10,0,1,,,,,0,,,56,68
126775,control_change,,,,,0,0,1,,,,,0,64,104,,
126775,note_on,,,,,1,0,1,,,,,0,,,49,60
126775,note_on,,,,,0,0,1,,,,,0,,,59,63
126776,note_on,,,,,1,0,1,,,,,0,,,51,51
126778,control_change,,,,,2,0,1,,,,,0,64,56,,
126781,note_on,,,,,3,0,1,,,,,0,,,51,0
126784,note_on,,,,,3,0,1,,,,,0,,,56,0
126786,control_change,,,,,2,0,1,,,,,0,64,127,,
126788,note_on,,,,,2,0,1,,,,,0,,,49,0
126792,note_on,,,,,4,0,1,,,,,0,,,59,0
126804,note_on,,,,,12,0,1,,,,,0,,,83,82
126806,note_on,,,,,2,0,1,,,,,0,,,78,61
126806,note_on,,,,,0,0,1,,,,,0,,,71,59
126807,note_on,,,,,1,0,1,,,,,0,,,75,58
126814,note_on,,,,,7,0,1,,,,,0,,,71,0
126820,note_on,,,,,6,0,1,,,,,0,,,83,0
126822,note_on,,,,,2,0,1,,,,,0,,,75,0
126823,note_on,,,,,1,0,1,,,,,0,,,78,0
126833,control_change,,,,,10,0,1,,,,,0,64,88,,
126835,note_on,,,,,2,0,1,,,,,0,,,61,73
126835,set_tempo,,,,,182,1,0,,535714,,,,,,,
126835,control_change,,,,,0,0,1,,,,,0,64,40,,
126835,note_on,,,,,0,0,1,,,,,0,,,56,67
126837,note_on,,,,,0,0,1,,,,,0,,,49,46
126837,note_on,,,,,2,0,1,,,,,0,,,51,50
126840,note_on,,,,,3,0,1,,,,,0,,,54,37
126843,control_change,,,,,3,0,1,,,,,0,64,127,,
126844,note_on,,,,,1,0,1,,,,,0,,,54,0
126852,note_on,,,,,8,0,1,,,,,0,,,56,0
126858,note_on,,,,,6,0,1,,,,,0,,,49,0
126859,note_on,,,,,1,0,1,,,,,0,,,51,0
126862,note_on,,,,,3,0,1,,,,,0,,,85,81
126863,note_on,,,,,0,0,1,,,,,0,,,73,65
126863,note_on,,,,,1,0,1,,,,,0,,,75,71
126864,note_on,,,,,1,0,1,,,,,0,,,78,61
126865,note_on,,,,,1,0,1,,,,,0,,,61,0
126878,note_on,,,,,13,0,1,,,,,0,,,73,0
126883,note_on,,,,,5,0,1,,,,,0,,,75,0
126884,note_on,,,,,1,0,1,,,,,0,,,78,0
126891,control_change,,,,,7,0,1,,,,,0,64,88,,
126893,note_on,,,,,0,0,1,,,,,0,,,51,22
126893,control_change,,,,,0,0,1,,,,,0,64,40,,
126893,note_on,,,,,2,0,1,,,,,0,,,49,48
126894,note_on,,,,,1,0,1,,,,,0,,,56,50
126895,note_on,,,,,1,0,1,,,,,0,,,62,87
126896,control_change,,,,,1,0,1,,,,,0,64,56,,
126899,control_change,,,,,3,0,1,,,,,0,64,88,,
126901,control_change,,,,,2,0,1,,,,,0,64,127,,
126903,note_on,,,,,2,0,1,,,,,0,,,49,0
126904,note_on,,,,,1,0,1,,,,,0,,,56,0
126907,note_on,,,,,3,0,1,,,,,0,,,51,0
126909,note_on,,,,,0,0,1,,,,,0,,,62,0
126909,note_on,,,,,2,0,1,,,,,0,,,85,0
126922,note_on,,,,,13,0,1,,,,,0,,,75,69
126923,note_on,,,,,1,0,1,,,,,0,,,78,70
126924,note_on,,,,,1,0,1,,,,,0,,,86,86
126925,note_on,,,,,1,0,1,,,,,0,,,74,71
126930,note_on,,,,,5,0,1,,,,,0,,,74,0
126936,note_on,,,,,6,0,1,,,,,0,,,78,0
126937,note_on,,,,,1,0,1,,,,,0,,,75,0
126941,note_on,,,,,4,0,1,,,,,0,,,86,0
126953,note_on,,,,,12,0,1,,,,,0,,,63,91
126954,control_change,,,,,1,0,1,,,,,0,64,72,,
126955,note_on,,,,,1,0,1,,,,,0,,,54,64
126956,control_change,,,,,1,0,1,,,,,0,64,0,,
126957,note_on,,,,,0,0,1,,,,,0,,,59,49
126957,note_on,,,,,1,0,1,,,,,0,,,56,48
126961,control_change,,,,,4,0,1,,,,,0,64,24,,
126964,control_change,,,,,3,0,1,,,,,0,64,56,,
126967,note_on,,,,,3,0,1,,,,,0,,,59,0
126967,control_change,,,,,0,0,1,,,,,0,64,127,,
126971,note_on,,,,,4,0,1,,,,,0,,,54,0
126974,note_on,,,,,3,0,1,,,,,0,,,56,0
126975,note_on,,,,,1,0,1,,,,,0,,,63,0
126983,note_on,,,,,8,0,1,,,,,0,,,87,85
126984,note_on,,,,,0,0,1,,,,,0,,,78,71
126984,note_on,,,,,1,0,1,,,,,0,,,75,80
126986,note_on,,,,,2,0,1,,,,,0,,,83,62
126987,note_on,,,,,1,0,1,,,,,0,,,84,65
126992,note_on,,,,,5,0,1,,,,,0,,,84,0
126995,note_on,,,,,3,0,1,,,,,0,,,78,0
126997,note_on,,,,,2,0,1,,,,,0,,,83,0
127000,note_on,,,,,3,0,1,,,,,0,,,75,0
127005,note_on,,,,,5,0,1,,,,,0,,,87,0
127014,control_change,,,,,9,0,1,,,,,0,64,104,,
127014,note_on,,,,,0,0,1,,,,,0,,,65,84
127015,note_on,,,,,1,0,1,,,,,0,,,63,67
127016,set_tempo,,,,,181,1,0,,530973,,,,,,,
127016,note_on,,,,,1,0,1,,,,,0,,,56,48
127016,note_on,,,,,0,0,1,,,,,0,,,59,63
127017,note_on,,,,,1,0,1,,,,,0,,,54,55
127017,control_change,,,,,0,0,1,,,,,0,64,56,,
127024,control_change,,,,,7,0,1,,,,,0,64,127,,
127032,note_on,,,,,8,0,1,,,,,0,,,65,0
127033,note_on,,,,,1,0,1,,,,,0,,,54,0
127034,note_on,,,,,1,0,1,,,,,0,,,59,0
127037,note_on,,,,,0,0,1,,,,,0,,,63,0
127037,note_on,,,,,3,0,1,,,,,0,,,56,0
127042,note_on,,,,,5,0,1,,,,,0,,,89,92
127043,note_on,,,,,1,0,1,,,,,0,,,87,70
127044,note_on,,,,,1,0,1,,,,,0,,,77,80
127045,note_on,,,,,1,0,1,,,,,0,,,83,78
127052,note_on,,,,,7,0,1,,,,,0,,,77,0
127061,note_on,,,,,9,0,1,,,,,0,,,83,0
127063,note_on,,,,,2,0,1,,,,,0,,,89,0
127064,note_on,,,,,1,0,1,,,,,0,,,87,0
127071,note_on,,,,,7,0,1,,,,,0,,,66,80
127072,control_change,,,,,0,0,1,,,,,0,64,104,,
127072,note_on,,,,,0,0,1,,,,,0,,,56,55
127072,note_on,,,,,0,0,1,,,,,0,,,63,71
127072,note_on,,,,,1,0,1,,,,,0,,,54,64
127073,note_on,,,,,1,0,1,,,,,0,,,59,64
127074,control_change,,,,,1,0,1,,,,,0,64,56,,
127082,control_change,,,,,8,0,1,,,,,0,64,127,,
127089,note_on,,,,,0,0,1,,,,,0,,,54,0
127089,note_on,,,,,7,0,1,,,,,0,,,59,0
127091,note_on,,,,,2,0,1,,,,,0,,,63,0
127094,note_on,,,,,0,0,1,,,,,0,,,56,0
127094,note_on,,,,,3,0,1,,,,,0,,,66,0
127101,note_on,,,,,7,0,1,,,,,0,,,90,90
127102,note_on,,,,,0,0,1,,,,,0,,,78,88
127102,note_on,,,,,1,0,1,,,,,0,,,87,77
127104,note_on,,,,,2,0,1,,,,,0,,,83,79
127122,note_on,,,,,18,0,1,,,,,0,,,83,0
127127,note_on,,,,,5,0,1,,,,,0,,,78,0
127127,control_change,,,,,0,0,1,,,,,0,64,88,,
127128,note_on,,,,,1,0,1,,,,,0,,,90,0
127129,note_on,,,,,1,0,1,,,,,0,,,87,0
127129,control_change,,,,,0,0,1,,,,,0,64,40,,
127130,note_on,,,,,1,0,1,,,,,0,,,56,47
127131,note_on,,,,,0,0,1,,,,,0,,,63,71
127131,note_on,,,,,1,0,1,,,,,0,,,67,86
127132,note_on,,,,,1,0,1,,,,,0,,,54,65
127133,note_on,,,,,1,0,1,,,,,0,,,59,66
127137,control_change,,,,,0,0,1,,,,,0,64,104,,
127137,note_on,,,,,4,0,1,,,,,0,,,59,0
127140,control_change,,,,,3,0,1,,,,,0,64,127,,
127145,note_on,,,,,5,0,1,,,,,0,,,54,0
127148,note_on,,,,,3,0,1,,,,,0,,,63,0
127150,note_on,,,,,2,0,1,,,,,0,,,67,0
127152,note_on,,,,,2,0,1,,,,,0,,,56,0
127158,note_on,,,,,6,0,1,,,,,0,,,91,97
127159,note_on,,,,,1,0,1,,,,,0,,,87,77
127160,note_on,,,,,1,0,1,,,,,0,,,79,82
127161,note_on,,,,,1,0,1,,,,,0,,,83,56
127169,control_change,,,,,0,0,1,,,,,0,64,72,,
127169,note_on,,,,,8,0,1,,,,,0,,,83,0
127171,control_change,,,,,2,0,1,,,,,0,64,0,,
127176,note_on,,,,,5,0,1,,,,,0,,,79,0
127179,control_change,,,,,3,0,1,,,,,0,64,56,,
127181,note_on,,,,,0,0,1,,,,,0,,,54,74
127181,note_on,,,,,2,0,1,,,,,0,,,91,0
127181,note_on,,,,,0,0,1,,,,,0,,,56,34
127182,control_change,,,,,1,0,1,,,,,0,64,127,,
127185,note_on,,,,,3,0,1,,,,,0,,,60,66
127186,note_on,,,,,1,0,1,,,,,0,,,63,61
127188,note_on,,,,,2,0,1,,,,,0,,,87,0
127191,note_on,,,,,3,0,1,,,,,0,,,68,85
127193,note_on,,,,,2,0,1,,,,,0,,,54,0
127198,set_tempo,,,,,182,1,0,,526316,,,,,,,
127198,note_on,,,,,5,0,1,,,,,0,,,56,0
127208,note_on,,,,,10,0,1,,,,,0,,,68,0
127209,note_on,,,,,1,0,1,,,,,0,,,63,0
127209,note_on,,,,,0,0,1,,,,,0,,,60,0
127217,note_on,,,,,8,0,1,,,,,0,,,92,97
127217,note_on,,,,,0,0,1,,,,,0,,,87,83
127218,note_on,,,,,1,0,1,,,,,0,,,80,86
127219,note_on,,,,,1,0,1,,,,,0,,,84,83
127233,note_on,,,,,14,0,1,,,,,0,,,54,60
127234,control_change,,,,,1,0,1,,,,,0,64,24,,
127237,control_change,,,,,3,0,1,,,,,0,64,0,,
127239,note_on,,,,,2,0,1,,,,,0,,,84,0
127241,note_on,,,,,2,0,1,,,,,0,,,80,0
127241,note_on,,,,,0,0,1,,,,,0,,,63,40
127242,note_on,,,,,1,0,1,,,,,0,,,60,64
127245,control_change,,,,,3,0,1,,,,,0,64,56,,
127247,note_on,,,,,2,0,1,,,,,0,,,54,0
127247,note_on,,,,,0,0,1,,,,,0,,,87,0
127247,control_change,,,,,0,0,1,,,,,0,64,127,,
127248,note_on,,,,,1,0,1,,,,,0,,,92,0
127250,note_on,,,,,2,0,1,,,,,0,,,69,88
127255,note_on,,,,,5,0,1,,,,,0,,,60,0
127258,note_on,,,,,3,0,1,,,,,0,,,69,0
127262,note_on,,,,,4,0,1,,,,,0,,,63,0
127278,note_on,,,,,16,0,1,,,,,0,,,93,100
127279,note_on,,,,,1,0,1,,,,,0,,,87,77
127280,note_on,,,,,0,0,1,,,,,0,,,81,79
127280,note_on,,,,,1,0,1,,,,,0,,,84,71
127302,control_change,,,,,22,0,1,,,,,0,64,88,,
127305,control_change,,,,,3,0,1,,,,,0,64,0,,
127313,note_on,,,,,8,0,1,,,,,0,,,25,83
127314,note_on,,,,,1,0,1,,,,,0,,,37,100
127316,note_on,,,,,2,0,1,,,,,0,,,84,0
127321,note_on,,,,,5,0,1,,,,,0,,,25,0
127321,control_change,,,,,0,0,1,,,,,0,64,72,,
127323,note_on,,,,,2,0,1,,,,,0,,,81,0
127323,note_on,,,,,0,0,1,,,,,0,,,37,0
127323,control_change,,,,,0,0,1,,,,,0,64,127,,
127324,note_on,,,,,1,0,1,,,,,0,,,87,0
127326,note_on,,,,,2,0,1,,,,,0,,,93,0
127380,set_tempo,,,,,182,1,0,,521739,,,,,,,
127380,note_on,,,,,54,0,1,,,,,0,,,94,93
127381,note_on,,,,,1,0,1,,,,,0,,,82,85
127381,set_tempo,,,,,1,1,0,,566038,,,,,,,
127382,note_on,,,,,1,0,1,,,,,0,,,85,80
127382,note_on,,,,,0,0,1,,,,,0,,,89,85
127383,note_on,,,,,0,0,1,,,,,0,,,59,68
127383,note_on,,,,,1,0,1,,,,,0,,,70,83
127383,note_on,,,,,0,0,1,,,,,0,,,65,74
127383,note_on,,,,,0,0,1,,,,,0,,,61,63
127434,control_change,,,,,51,0,1,,,,,0,64,40,,
127436,control_change,,,,,2,0,1,,,,,0,64,0,,
127447,control_change,,,,,11,0,1,,,,,0,64,88,,
127449,control_change,,,,,2,0,1,,,,,0,64,127,,
127487,note_on,,,,,38,0,1,,,,,0,,,89,0
127490,note_on,,,,,3,0,1,,,,,0,,,85,0
127493,note_on,,,,,3,0,1,,,,,0,,,59,0
127493,note_on,,,,,0,0,1,,,,,0,,,94,0
127494,note_on,,,,,1,0,1,,,,,0,,,65,0
127496,note_on,,,,,2,0,1,,,,,0,,,82,0
127499,note_on,,,,,3,0,1,,,,,0,,,61,0
127504,note_on,,,,,5,0,1,,,,,0,,,70,0
127538,note_on,,,,,34,0,1,,,,,0,,,94,92
127540,note_on,,,,,2,0,1,,,,,0,,,82,73
127540,note_on,,,,,0,0,1,,,,,0,,,85,71
127541,note_on,,,,,1,0,1,,,,,0,,,70,65
127541,note_on,,,,,0,0,1,,,,,0,,,89,75
127542,note_on,,,,,1,0,1,,,,,0,,,61,46
127543,note_on,,,,,1,0,1,,,,,0,,,65,64
127544,note_on,,,,,1,0,1,,,,,0,,,59,53
127550,note_on,,,,,6,0,1,,,,,0,,,59,0
127557,note_on,,,,,0,0,1,,,,,0,,,82,0
127557,note_on,,,,,7,0,1,,,,,0,,,65,0
127558,note_on,,,,,1,0,1,,,,,0,,,61,0
127559,note_on,,,,,1,0,1,,,,,0,,,70,0
127561,note_on,,,,,2,0,1,,,,,0,,,85,0
127562,note_on,,,,,1,0,1,,,,,0,,,94,0
127562,note_on,,,,,0,0,1,,,,,0,,,89,0
127577,note_on,,,,,15,0,1,,,,,0,,,94,99
127577,note_on,,,,,0,0,1,,,,,0,,,70,63
127578,note_on,,,,,0,0,1,,,,,0,,,85,71
127578,note_on,,,,,1,0,1,,,,,0,,,82,81
127579,note_on,,,,,0,0,1,,,,,0,,,89,80
127579,note_on,,,,,1,0,1,,,,,0,,,65,56
127580,note_on,,,,,0,0,1,,,,,0,,,61,46
127580,note_on,,,,,1,0,1,,,,,0,,,59,57
127592,note_on,,,,,12,0,1,,,,,0,,,59,0
127593,note_on,,,,,1,0,1,,,,,0,,,82,0
127594,note_on,,,,,0,0,1,,,,,0,,,65,0
127594,note_on,,,,,0,0,1,,,,,0,,,85,0
127594,note_on,,,,,0,0,1,,,,,0,,,70,0
127594,note_on,,,,,1,0,1,,,,,0,,,61,0
127596,note_on,,,,,0,0,1,,,,,0,,,89,0
127596,note_on,,,,,2,0,1,,,,,0,,,94,0
127608,note_on,,,,,12,0,1,,,,,0,,,94,85
127609,note_on,,,,,1,0,1,,,,,0,,,82,85
127609,note_on,,,,,0,0,1,,,,,0,,,85,79
127610,note_on,,,,,1,0,1,,,,,0,,,89,77
127610,note_on,,,,,0,0,1,,,,,0,,,70,69
127611,note_on,,,,,1,0,1,,,,,0,,,65,58
127612,note_on,,,,,1,0,1,,,,,0,,,59,55
127613,note_on,,,,,1,0,1,,,,,0,,,61,39
127619,note_on,,,,,6,0,1,,,,,0,,,59,0
127621,note_on,,,,,2,0,1,,,,,0,,,82,0
127622,note_on,,,,,1,0,1,,,,,0,,,61,0
127623,note_on,,,,,1,0,1,,,,,0,,,70,0
127623,note_on,,,,,0,0,1,,,,,0,,,65,0
127624,note_on,,,,,0,0,1,,,,,0,,,89,0
127624,note_on,,,,,1,0,1,,,,,0,,,85,0
127626,note_on,,,,,2,0,1,,,,,0,,,94,0
127638,note_on,,,,,12,0,1,,,,,0,,,94,82
127639,note_on,,,,,1,0,1,,,,,0,,,70,64
127640,note_on,,,,,0,0,1,,,,,0,,,89,78
127640,note_on,,,,,1,0,1,,,,,0,,,82,85
127641,note_on,,,,,1,0,1,,,,,0,,,85,76
127641,note_on,,,,,0,0,1,,,,,0,,,65,62
127642,note_on,,,,,0,0,1,,,,,0,,,61,39
127642,note_on,,,,,1,0,1,,,,,0,,,59,52
127648,note_on,,,,,6,0,1,,,,,0,,,59,0
127650,note_on,,,,,2,0,1,,,,,0,,,61,0
127650,note_on,,,,,0,0,1,,,,,0,,,82,0
127650,note_on,,,,,0,0,1,,,,,0,,,65,0
127652,note_on,,,,,0,0,1,,,,,0,,,70,0
127652,note_on,,,,,2,0,1,,,,,0,,,85,0
127654,note_on,,,,,2,0,1,,,,,0,,,89,0
127655,note_on,,,,,1,0,1,,,,,0,,,94,0
127667,note_on,,,,,12,0,1,,,,,0,,,94,80
127668,note_on,,,,,0,0,1,,,,,0,,,85,76
127668,note_on,,,,,1,0,1,,,,,0,,,82,84
127669,note_on,,,,,0,0,1,,,,,0,,,89,74
127669,note_on,,,,,1,0,1,,,,,0,,,70,65
127671,note_on,,,,,0,0,1,,,,,0,,,61,44
127671,note_on,,,,,0,0,1,,,,,0,,,65,68
127671,note_on,,,,,2,0,1,,,,,0,,,59,54
127681,note_on,,,,,10,0,1,,,,,0,,,82,0
127682,note_on,,,,,0,0,1,,,,,0,,,59,0
127682,note_on,,,,,1,0,1,,,,,0,,,70,0
127683,note_on,,,,,1,0,1,,,,,0,,,61,0
127684,note_on,,,,,1,0,1,,,,,0,,,89,0
127684,note_on,,,,,0,0,1,,,,,0,,,65,0
127684,note_on,,,,,0,0,1,,,,,0,,,85,0
127685,note_on,,,,,1,0,1,,,,,0,,,94,0
127703,note_on,,,,,18,0,1,,,,,0,,,94,90
127704,note_on,,,,,0,0,1,,,,,0,,,85,77
127704,note_on,,,,,0,0,1,,,,,0,,,89,86
127704,note_on,,,,,1,0,1,,,,,0,,,82,87
127705,note_on,,,,,0,0,1,,,,,0,,,59,50
127705,note_on,,,,,1,0,1,,,,,0,,,70,69
127706,note_on,,,,,1,0,1,,,,,0,,,65,55
127708,note_on,,,,,2,0,1,,,,,0,,,61,43
127718,note_on,,,,,10,0,1,,,,,0,,,65,0
127721,note_on,,,,,3,0,1,,,,,0,,,61,0
127721,note_on,,,,,0,0,1,,,,,0,,,59,0
127722,note_on,,,,,1,0,1,,,,,0,,,70,0
127723,note_on,,,,,1,0,1,,,,,0,,,82,0
127726,note_on,,,,,3,0,1,,,,,0,,,85,0
127728,note_on,,,,,0,0,1,,,,,0,,,94,0
127728,note_on,,,,,2,0,1,,,,,0,,,89,0
127756,note_on,,,,,0,0,1,,,,,0,,,68,68
127756,note_on,,,,,0,0,1,,,,,0,,,80,85
127756,note_on,,,,,28,0,1,,,,,0,,,92,89
127756,note_on,,,,,0,0,1,,,,,0,,,85,76
127757,note_on,,,,,1,0,1,,,,,0,,,89,80
127758,note_on,,,,,1,0,1,,,,,0,,,65,67
127759,note_on,,,,,0,0,1,,,,,0,,,59,55
127759,note_on,,,,,1,0,1,,,,,0,,,61,57
127766,note_on,,,,,7,0,1,,,,,0,,,59,0
127772,note_on,,,,,0,0,1,,,,,0,,,80,0
127772,note_on,,,,,6,0,1,,,,,0,,,68,0
127773,note_on,,,,,1,0,1,,,,,0,,,61,0
127775,note_on,,,,,2,0,1,,,,,0,,,85,0
127776,note_on,,,,,1,0,1,,,,,0,,,89,0
127776,note_on,,,,,0,0,1,,,,,0,,,65,0
127783,note_on,,,,,7,0,1,,,,,0,,,92,0
127800,note_on,,,,,17,0,1,,,,,0,,,94,93
127801,note_on,,,,,1,0,1,,,,,0,,,82,81
127801,note_on,,,,,0,0,1,,,,,0,,,70,69
127801,note_on,,,,,0,0,1,,,,,0,,,85,73
127802,note_on,,,,,1,0,1,,,,,0,,,89,82
127803,note_on,,,,,1,0,1,,,,,0,,,65,64
127804,note_on,,,,,1,0,1,,,,,0,,,61,53
127804,note_on,,,,,0,0,1,,,,,0,,,59,57
127810,note_on,,,,,6,0,1,,,,,0,,,85,0
127813,note_on,,,,,3,0,1,,,,,0,,,82,0
127814,note_on,,,,,1,0,1,,,,,0,,,89,0
127817,note_on,,,,,3,0,1,,,,,0,,,59,0
127820,note_on,,,,,3,0,1,,,,,0,,,94,0
127821,note_on,,,,,1,0,1,,,,,0,,,70,0
127824,note_on,,,,,3,0,1,,,,,0,,,65,0
127850,note_on,,,,,26,0,1,,,,,0,,,97,92
127851,note_on,,,,,1,0,1,,,,,0,,,92,87
127852,note_on,,,,,1,0,1,,,,,0,,,85,81
127853,note_on,,,,,1,0,1,,,,,0,,,73,75
127854,note_on,,,,,1,0,1,,,,,0,,,89,82
127854,note_on,,,,,0,0,1,,,,,0,,,65,63
127855,note_on,,,,,1,0,1,,,,,0,,,59,53
127861,note_on,,,,,6,0,1,,,,,0,,,59,0
127862,note_on,,,,,1,0,1,,,,,0,,,73,0
127866,note_on,,,,,4,0,1,,,,,0,,,89,0
127867,note_on,,,,,1,0,1,,,,,0,,,97,0
127868,note_on,,,,,1,0,1,,,,,0,,,85,0
127868,note_on,,,,,0,0,1,,,,,0,,,92,0
127870,note_on,,,,,2,0,1,,,,,0,,,65,0
127873,note_on,,,,,3,0,1,,,,,0,,,61,0
127900,note_on,,,,,27,0,1,,,,,0,,,92,92
127901,note_on,,,,,1,0,1,,,,,0,,,68,76
127902,note_on,,,,,0,0,1,,,,,0,,,85,69
127902,note_on,,,,,1,0,1,,,,,0,,,80,79
127902,note_on,,,,,0,0,1,,,,,0,,,59,63
127902,note_on,,,,,0,0,1,,,,,0,,,89,82
127903,note_on,,,,,1,0,1,,,,,0,,,61,45
127903,note_on,,,,,0,0,1,,,,,0,,,65,63
127913,note_on,,,,,10,0,1,,,,,0,,,80,0
127914,note_on,,,,,1,0,1,,,,,0,,,59,0
127916,note_on,,,,,2,0,1,,,,,0,,,68,0
127917,note_on,,,,,1,0,1,,,,,0,,,85,0
127918,note_on,,,,,1,0,1,,,,,0,,,65,0
127918,note_on,,,,,0,0,1,,,,,0,,,61,0
127920,note_on,,,,,2,0,1,,,,,0,,,89,0
127925,note_on,,,,,5,0,1,,,,,0,,,92,0
127959,note_on,,,,,34,0,1,,,,,0,,,94,95
127960,note_on,,,,,1,0,1,,,,,0,,,82,85
127960,note_on,,,,,0,0,1,,,,,0,,,85,74
127961,note_on,,,,,1,0,1,,,,,0,,,89,84
127962,note_on,,,,,1,0,1,,,,,0,,,70,77
127963,note_on,,,,,1,0,1,,,,,0,,,65,67
127964,note_on,,,,,1,0,1,,,,,0,,,59,59
127966,note_on,,,,,2,0,1,,,,,0,,,61,42
127971,note_on,,,,,5,0,1,,,,,0,,,61,0
127976,note_on,,,,,5,0,1,,,,,0,,,59,0
127980,note_on,,,,,4,0,1,,,,,0,,,82,0
127980,note_on,,,,,0,0,1,,,,,0,,,70,0
127981,note_on,,,,,1,0,1,,,,,0,,,65,0
127985,note_on,,,,,4,0,1,,,,,0,,,85,0
127987,note_on,,,,,2,0,1,,,,,0,,,89,0
127988,note_on,,,,,1,0,1,,,,,0,,,94,0
128030,note_on,,,,,42,0,1,,,,,0,,,94,95
128032,note_on,,,,,2,0,1,,,,,0,,,82,84
128032,note_on,,,,,0,0,1,,,,,0,,,85,78
128033,note_on,,,,,1,0,1,,,,,0,,,89,86
128033,note_on,,,,,0,0,1,,,,,0,,,70,79
128035,note_on,,,,,0,0,1,,,,,0,,,61,61
128035,note_on,,,,,2,0,1,,,,,0,,,65,72
128036,note_on,,,,,1,0,1,,,,,0,,,59,64
128074,control_change,,,,,38,0,1,,,,,0,64,104,,
128076,control_change,,,,,2,0,1,,,,,0,64,56,,
128129,control_change,,,,,53,0,1,,,,,0,64,0,,
128137,control_change,,,,,8,0,1,,,,,0,64,24,,
128139,control_change,,,,,2,0,1,,,,,0,64,104,,
128142,control_change,,,,,3,0,1,,,,,0,64,127,,
128167,note_on,,,,,25,0,1,,,,,0,,,94,0
128169,note_on,,,,,2,0,1,,,,,0,,,59,0
128172,note_on,,,,,3,0,1,,,,,0,,,61,0
128173,note_on,,,,,1,0,1,,,,,0,,,70,0
128174,note_on,,,,,1,0,1,,,,,0,,,65,0
128178,note_on,,,,,4,0,1,,,,,0,,,85,0
128178,note_on,,,,,0,0,1,,,,,0,,,89,0
128181,note_on,,,,,3,0,1,,,,,0,,,82,0
128275,control_change,,,,,94,0,1,,,,,0,64,88,,
128278,control_change,,,,,3,0,1,,,,,0,64,0,,
128285,note_on,,,,,0,0,1,,,,,0,,,92,99
128285,set_tempo,,,,,904,1,0,,631579,,,,,,,
128285,note_on,,,,,7,0,1,,,,,0,,,68,64
128286,note_on,,,,,1,0,1,,,,,0,,,80,88
128287,note_on,,,,,0,0,1,,,,,0,,,89,81
128287,note_on,,,,,1,0,1,,,,,0,,,65,64
128287,note_on,,,,,0,0,1,,,,,0,,,61,46
128287,note_on,,,,,0,0,1,,,,,0,,,85,73
128288,note_on,,,,,1,0,1,,,,,0,,,59,55
128289,control_change,,,,,1,0,1,,,,,0,64,40,,
128291,control_change,,,,,2,0,1,,,,,0,64,127,,
128294,note_on,,,,,3,0,1,,,,,0,,,65,0
128296,note_on,,,,,2,0,1,,,,,0,,,68,0
128297,note_on,,,,,1,0,1,,,,,0,,,61,0
128302,note_on,,,,,5,0,1,,,,,0,,,59,0
128325,control_change,,,,,23,0,1,,,,,0,64,88,,
128328,control_change,,,,,3,0,1,,,,,0,64,0,,
128333,note_on,,,,,5,0,1,,,,,0,,,42,62
128341,control_change,,,,,8,0,1,,,,,0,64,104,,
128344,note_on,,,,,3,0,1,,,,,0,,,49,56
128344,control_change,,,,,0,0,1,,,,,0,64,127,,
128347,note_on,,,,,0,0,1,,,,,0,,,85,0
128347,note_on,,,,,3,0,1,,,,,0,,,89,0
128347,note_on,,,,,0,0,1,,,,,0,,,92,0
128350,note_on,,,,,3,0,1,,,,,0,,,42,0
128358,note_on,,,,,8,0,1,,,,,0,,,80,0
128359,note_on,,,,,1,0,1,,,,,0,,,49,0
128360,note_on,,,,,1,0,1,,,,,0,,,58,76
128371,note_on,,,,,11,0,1,,,,,0,,,58,0
128388,note_on,,,,,17,0,1,,,,,0,,,66,81
128390,set_tempo,,,,,105,1,0,,545455,,,,,,,
128390,note_on,,,,,2,0,1,,,,,0,,,90,90
128392,note_on,,,,,2,0,1,,,,,0,,,78,78
128393,note_on,,,,,1,0,1,,,,,0,,,85,69
128393,note_on,,,,,0,0,1,,,,,0,,,82,63
128396,note_on,,,,,3,0,1,,,,,0,,,66,0
128398,note_on,,,,,2,0,1,,,,,0,,,82,0
128401,control_change,,,,,3,0,1,,,,,0,64,127,,
128405,note_on,,,,,4,0,1,,,,,0,,,78,0
128408,note_on,,,,,3,0,1,,,,,0,,,85,0
128413,note_on,,,,,5,0,1,,,,,0,,,90,0
128500,set_tempo,,,,,110,1,0,,458015,,,,,,,
128500,note_on,,,,,87,0,1,,,,,0,,,61,52
128520,note_on,,,,,20,0,1,,,,,0,,,61,0
128533,note_on,,,,,13,0,1,,,,,0,,,66,54
128542,note_on,,,,,9,0,1,,,,,0,,,66,0
128558,note_on,,,,,16,0,1,,,,,0,,,70,57
128576,note_on,,,,,18,0,1,,,,,0,,,70,0
128584,note_on,,,,,8,0,1,,,,,0,,,73,59
128600,note_on,,,,,16,0,1,,,,,0,,,73,0
128609,note_on,,,,,9,0,1,,,,,0,,,75,60
128624,note_on,,,,,15,0,1,,,,,0,,,75,0
128634,note_on,,,,,10,0,1,,,,,0,,,73,58
128651,note_on,,,,,17,0,1,,,,,0,,,73,0
128662,note_on,,,,,11,0,1,,,,,0,,,70,58
128681,note_on,,,,,19,0,1,,,,,0,,,70,0
128688,note_on,,,,,7,0,1,,,,,0,,,66,50
128714,note_on,,,,,26,0,1,,,,,0,,,70,52
128719,note_on,,,,,5,0,1,,,,,0,,,66,0
128740,note_on,,,,,21,0,1,,,,,0,,,70,0
128740,note_on,,,,,0,0,1,,,,,0,,,73,54
128749,note_on,,,,,9,0,1,,,,,0,,,73,0
128765,note_on,,,,,16,0,1,,,,,0,,,78,58
128782,note_on,,,,,17,0,1,,,,,0,,,78,0
128794,note_on,,,,,12,0,1,,,,,0,,,82,60
128810,note_on,,,,,16,0,1,,,,,0,,,82,0
128817,note_on,,,,,7,0,1,,,,,0,,,87,64
128838,note_on,,,,,21,0,1,,,,,0,,,87,0
128844,note_on,,,,,6,0,1,,,,,0,,,85,65
128864,note_on,,,,,20,0,1,,,,,0,,,85,0
128871,note_on,,,,,7,0,1,,,,,0,,,82,64
128892,note_on,,,,,21,0,1,,,,,0,,,82,0
128895,note_on,,,,,3,0,1,,,,,0,,,78,62
128919,note_on,,,,,24,0,1,,,,,0,,,82,60
128926,note_on,,,,,7,0,1,,,,,0,,,78,0
128943,note_on,,,,,17,0,1,,,,,0,,,85,69
128944,note_on,,,,,1,0,1,,,,,0,,,82,0
128953,note_on,,,,,9,0,1,,,,,0,,,85,0
128967,note_on,,,,,14,0,1,,,,,0,,,90,71
128986,note_on,,,,,19,0,1,,,,,0,,,90,0
128994,note_on,,,,,8,0,1,,,,,0,,,94,66
129012,note_on,,,,,18,0,1,,,,,0,,,94,0
129019,note_on,,,,,7,0,1,,,,,0,,,99,79
129044,note_on,,,,,25,0,1,,,,,0,,,99,0
129047,note_on,,,,,3,0,1,,,,,0,,,97,76
129071,note_on,,,,,24,0,1,,,,,0,,,94,68
129084,note_on,,,,,13,0,1,,,,,0,,,97,0
129095,note_on,,,,,11,0,1,,,,,0,,,94,0
129096,note_on,,,,,1,0,1,,,,,0,,,90,68
129108,note_on,,,,,12,0,1,,,,,0,,,90,0
129124,note_on,,,,,16,0,1,,,,,0,,,87,63
129147,note_on,,,,,23,0,1,,,,,0,,,87,0
129151,note_on,,,,,4,0,1,,,,,0,,,85,67
129173,note_on,,,,,22,0,1,,,,,0,,,85,0
129179,note_on,,,,,6,0,1,,,,,0,,,82,58
129194,note_on,,,,,15,0,1,,,,,0,,,82,0
129198,note_on,,,,,4,0,1,,,,,0,,,78,60
129222,note_on,,,,,24,0,1,,,,,0,,,78,0
129226,note_on,,,,,4,0,1,,,,,0,,,87,70
129251,note_on,,,,,25,0,1,,,,,0,,,85,66
129253,note_on,,,,,2,0,1,,,,,0,,,87,0
129275,note_on,,,,,22,0,1,,,,,0,,,82,52
129285,note_on,,,,,10,0,1,,,,,0,,,85,0
129296,note_on,,,,,11,0,1,,,,,0,,,82,0
129297,note_on,,,,,1,0,1,,,,,0,,,78,64
129307,note_on,,,,,10,0,1,,,,,0,,,78,0
129325,note_on,,,,,18,0,1,,,,,0,,,75,55
129347,note_on,,,,,22,0,1,,,,,0,,,75,0
129351,note_on,,,,,4,0,1,,,,,0,,,73,56
129374,note_on,,,,,23,0,1,,,,,0,,,73,0
129376,note_on,,,,,2,0,1,,,,,0,,,70,55
129393,note_on,,,,,17,0,1,,,,,0,,,70,0
129399,note_on,,,,,6,0,1,,,,,0,,,66,49
129422,note_on,,,,,23,0,1,,,,,0,,,66,0
129429,note_on,,,,,7,0,1,,,,,0,,,75,61
129452,note_on,,,,,23,0,1,,,,,0,,,75,0
129455,note_on,,,,,3,0,1,,,,,0,,,73,46
129475,note_on,,,,,20,0,1,,,,,0,,,73,0
129478,note_on,,,,,3,0,1,,,,,0,,,70,38
129493,note_on,,,,,15,0,1,,,,,0,,,70,0
129502,note_on,,,,,9,0,1,,,,,0,,,66,36
129518,note_on,,,,,16,0,1,,,,,0,,,66,0
129530,note_on,,,,,12,0,1,,,,,0,,,54,64
129541,note_on,,,,,11,0,1,,,,,0,,,70,40
129560,note_on,,,,,19,0,1,,,,,0,,,70,0
129563,note_on,,,,,3,0,1,,,,,0,,,66,42
129582,note_on,,,,,19,0,1,,,,,0,,,66,0
129585,note_on,,,,,3,0,1,,,,,0,,,63,42
129603,note_on,,,,,18,0,1,,,,,0,,,63,0
129608,note_on,,,,,5,0,1,,,,,0,,,61,42
129619,note_on,,,,,11,0,1,,,,,0,,,54,0
129625,note_on,,,,,6,0,1,,,,,0,,,61,0
129634,note_on,,,,,9,0,1,,,,,0,,,42,40
129653,note_on,,,,,19,0,1,,,,,0,,,49,30
129663,note_on,,,,,10,0,1,,,,,0,,,53,74
129671,control_change,,,,,8,0,1,,,,,0,64,72,,
129674,control_change,,,,,3,0,1,,,,,0,64,0,,
129702,control_change,,,,,28,0,1,,,,,0,64,104,,
129705,control_change,,,,,3,0,1,,,,,0,64,127,,
129708,note_on,,,,,3,0,1,,,,,0,,,59,42
129718,note_on,,,,,10,0,1,,,,,0,,,59,0
129733,note_on,,,,,15,0,1,,,,,0,,,61,61
129753,note_on,,,,,20,0,1,,,,,0,,,61,0
129764,note_on,,,,,11,0,1,,,,,0,,,68,55
129784,note_on,,,,,20,0,1,,,,,0,,,68,0
129787,note_on,,,,,3,0,1,,,,,0,,,71,66
129809,note_on,,,,,22,0,1,,,,,0,,,73,64
129817,note_on,,,,,8,0,1,,,,,0,,,71,0
129832,note_on,,,,,15,0,1,,,,,0,,,73,0
129837,note_on,,,,,5,0,1,,,,,0,,,75,58
129857,note_on,,,,,20,0,1,,,,,0,,,73,56
129858,note_on,,,,,1,0,1,,,,,0,,,75,0
129882,note_on,,,,,24,0,1,,,,,0,,,73,0
129887,note_on,,,,,5,0,1,,,,,0,,,49,0
129887,note_on,,,,,0,0,1,,,,,0,,,71,53
129906,note_on,,,,,19,0,1,,,,,0,,,71,0
129907,note_on,,,,,1,0,1,,,,,0,,,68,60
129929,note_on,,,,,22,0,1,,,,,0,,,51,73
129930,note_on,,,,,1,0,1,,,,,0,,,53,0
129933,note_on,,,,,3,0,1,,,,,0,,,68,0
129933,note_on,,,,,0,0,1,,,,,0,,,71,64
129938,note_on,,,,,5,0,1,,,,,0,,,42,0
129939,note_on,,,,,1,0,1,,,,,0,,,71,0
129959,note_on,,,,,20,0,1,,,,,0,,,73,58
129980,note_on,,,,,21,0,1,,,,,0,,,73,0
129983,note_on,,,,,3,0,1,,,,,0,,,80,58
130001,note_on,,,,,18,0,1,,,,,0,,,80,0
130005,note_on,,,,,4,0,1,,,,,0,,,83,69
130036,note_on,,,,,31,0,1,,,,,0,,,87,59
130037,note_on,,,,,1,0,1,,,,,0,,,83,0
130057,note_on,,,,,20,0,1,,,,,0,,,85,63
130058,note_on,,,,,1,0,1,,,,,0,,,87,0
130084,note_on,,,,,26,0,1,,,,,0,,,85,0
130087,note_on,,,,,3,0,1,,,,,0,,,83,59
130100,note_on,,,,,13,0,1,,,,,0,,,83,0
130107,note_on,,,,,7,0,1,,,,,0,,,80,67
130130,control_change,,,,,23,0,1,,,,,0,64,88,,
130134,control_change,,,,,4,0,1,,,,,0,64,56,,
130136,note_on,,,,,2,0,1,,,,,0,,,49,68
130137,control_change,,,,,1,0,1,,,,,0,64,72,,
130137,note_on,,,,,0,0,1,,,,,0,,,83,75
130139,note_on,,,,,2,0,1,,,,,0,,,80,0
130140,control_change,,,,,1,0,1,,,,,0,64,127,,
130143,note_on,,,,,0,0,1,,,,,0,,,83,0
130143,note_on,,,,,3,0,1,,,,,0,,,51,0
130168,note_on,,,,,25,0,1,,,,,0,,,85,55
130186,note_on,,,,,18,0,1,,,,,0,,,49,0
130190,note_on,,,,,4,0,1,,,,,0,,,85,0
130195,note_on,,,,,5,0,1,,,,,0,,,92,59
130214,note_on,,,,,19,0,1,,,,,0,,,92,0
130217,note_on,,,,,3,0,1,,,,,0,,,95,74
130244,note_on,,,,,27,0,1,,,,,0,,,49,69
130251,note_on,,,,,7,0,1,,,,,0,,,95,0
130254,note_on,,,,,3,0,1,,,,,0,,,99,68
130277,note_on,,,,,0,0,1,,,,,0,,,97,64
130277,note_on,,,,,23,0,1,,,,,0,,,99,0
130278,control_change,,,,,1,0,1,,,,,0,64,40,,
130281,control_change,,,,,3,0,1,,,,,0,64,0,,
130302,control_change,,,,,21,0,1,,,,,0,64,88,,
130303,note_on,,,,,1,0,1,,,,,0,,,97,0
130303,note_on,,,,,0,0,1,,,,,0,,,95,72
130305,control_change,,,,,2,0,1,,,,,0,64,127,,
130326,note_on,,,,,21,0,1,,,,,0,,,92,63
130334,note_on,,,,,8,0,1,,,,,0,,,95,0
130343,note_on,,,,,9,0,1,,,,,0,,,92,0
130347,note_on,,,,,4,0,1,,,,,0,,,87,64
130362,note_on,,,,,15,0,1,,,,,0,,,87,0
130377,note_on,,,,,15,0,1,,,,,0,,,85,47
130395,note_on,,,,,18,0,1,,,,,0,,,85,0
130404,note_on,,,,,9,0,1,,,,,0,,,83,50
130422,note_on,,,,,18,0,1,,,,,0,,,80,60
130424,note_on,,,,,2,0,1,,,,,0,,,83,0
130441,note_on,,,,,17,0,1,,,,,0,,,80,0
130451,note_on,,,,,10,0,1,,,,,0,,,87,61
130473,note_on,,,,,22,0,1,,,,,0,,,87,0
130474,note_on,,,,,1,0,1,,,,,0,,,85,60
130502,note_on,,,,,28,0,1,,,,,0,,,85,0
130507,note_on,,,,,5,0,1,,,,,0,,,83,49
130524,note_on,,,,,17,0,1,,,,,0,,,80,53
130525,note_on,,,,,1,0,1,,,,,0,,,83,0
130544,note_on,,,,,19,0,1,,,,,0,,,80,0
130546,note_on,,,,,2,0,1,,,,,0,,,49,0
130547,note_on,,,,,1,0,1,,,,,0,,,53,69
130547,note_on,,,,,0,0,1,,,,,0,,,75,59
130561,note_on,,,,,14,0,1,,,,,0,,,75,0
130576,note_on,,,,,15,0,1,,,,,0,,,73,47
130593,note_on,,,,,17,0,1,,,,,0,,,53,0
130596,note_on,,,,,3,0,1,,,,,0,,,73,0
130607,note_on,,,,,11,0,1,,,,,0,,,53,27
130626,note_on,,,,,19,0,1,,,,,0,,,68,54
130645,note_on,,,,,19,0,1,,,,,0,,,68,0
130654,note_on,,,,,9,0,1,,,,,0,,,63,70
130659,note_on,,,,,5,0,1,,,,,0,,,75,61
130682,note_on,,,,,23,0,1,,,,,0,,,75,0
130685,note_on,,,,,3,0,1,,,,,0,,,73,48
130695,note_on,,,,,10,0,1,,,,,0,,,63,0
130701,note_on,,,,,6,0,1,,,,,0,,,53,0
130706,note_on,,,,,5,0,1,,,,,0,,,73,0
130710,note_on,,,,,4,0,1,,,,,0,,,71,47
130720,note_on,,,,,10,0,1,,,,,0,,,71,0
130728,note_on,,,,,8,0,1,,,,,0,,,68,36
130744,note_on,,,,,16,0,1,,,,,0,,,68,0
130748,note_on,,,,,4,0,1,,,,,0,,,71,53
130768,note_on,,,,,20,0,1,,,,,0,,,71,0
130774,note_on,,,,,6,0,1,,,,,0,,,68,48
130797,note_on,,,,,23,0,1,,,,,0,,,68,0
130805,note_on,,,,,8,0,1,,,,,0,,,63,55
130830,note_on,,,,,25,0,1,,,,,0,,,63,0
130844,note_on,,,,,14,0,1,,,,,0,,,61,70
130866,note_on,,,,,22,0,1,,,,,0,,,61,0
130896,note_on,,,,,30,0,1,,,,,0,,,61,66
130925,control_change,,,,,29,0,1,,,,,0,64,88,,
130929,control_change,,,,,4,0,1,,,,,0,64,0,,
130945,note_on,,,,,16,0,1,,,,,0,,,42,49
130956,control_change,,,,,11,0,1,,,,,0,64,88,,
130960,control_change,,,,,4,0,1,,,,,0,64,127,,
130970,note_on,,,,,10,0,1,,,,,0,,,42,0
130973,note_on,,,,,3,0,1,,,,,0,,,61,0
130979,note_on,,,,,6,0,1,,,,,0,,,49,33
130988,note_on,,,,,9,0,1,,,,,0,,,49,0
131000,note_on,,,,,12,0,1,,,,,0,,,54,51
131024,note_on,,,,,0,0,1,,,,,0,,,58,45
131024,note_on,,,,,24,0,1,,,,,0,,,54,0
131037,note_on,,,,,13,0,1,,,,,0,,,58,0
131051,note_on,,,,,14,0,1,,,,,0,,,66,53
131078,note_on,,,,,27,0,1,,,,,0,,,66,0
131078,note_on,,,,,0,0,1,,,,,0,,,70,53
131100,note_on,,,,,22,0,1,,,,,0,,,70,0
131102,note_on,,,,,2,0,1,,,,,0,,,73,56
131127,note_on,,,,,0,0,1,,,,,0,,,75,58
131127,note_on,,,,,25,0,1,,,,,0,,,73,0
131147,note_on,,,,,20,0,1,,,,,0,,,75,0
131151,note_on,,,,,4,0,1,,,,,0,,,73,53
131171,note_on,,,,,20,0,1,,,,,0,,,73,0
131174,note_on,,,,,3,0,1,,,,,0,,,70,59
131194,note_on,,,,,20,0,1,,,,,0,,,70,0
131195,note_on,,,,,1,0,1,,,,,0,,,66,66
131219,note_on,,,,,24,0,1,,,,,0,,,70,55
131222,note_on,,,,,3,0,1,,,,,0,,,66,0
131242,note_on,,,,,20,0,1,,,,,0,,,73,64
131244,note_on,,,,,2,0,1,,,,,0,,,70,0
131257,note_on,,,,,13,0,1,,,,,0,,,73,0
131273,note_on,,,,,16,0,1,,,,,0,,,78,47
131291,note_on,,,,,18,0,1,,,,,0,,,78,0
131296,note_on,,,,,5,0,1,,,,,0,,,82,52
131316,note_on,,,,,20,0,1,,,,,0,,,82,0
131317,note_on,,,,,1,0,1,,,,,0,,,87,63
131342,note_on,,,,,25,0,1,,,,,0,,,87,0
131342,note_on,,,,,0,0,1,,,,,0,,,85,63
131365,note_on,,,,,23,0,1,,,,,0,,,85,0
131367,note_on,,,,,2,0,1,,,,,0,,,82,60
131388,note_on,,,,,21,0,1,,,,,0,,,82,0
131388,note_on,,,,,0,0,1,,,,,0,,,78,59
131411,note_on,,,,,23,0,1,,,,,0,,,82,64
131418,note_on,,,,,7,0,1,,,,,0,,,78,0
131434,note_on,,,,,16,0,1,,,,,0,,,85,69
131436,note_on,,,,,2,0,1,,,,,0,,,82,0
131447,note_on,,,,,11,0,1,,,,,0,,,85,0
131463,note_on,,,,,16,0,1,,,,,0,,,90,57
131483,note_on,,,,,20,0,1,,,,,0,,,90,0
131491,note_on,,,,,8,0,1,,,,,0,,,94,47
131507,note_on,,,,,16,0,1,,,,,0,,,94,0
131513,note_on,,,,,6,0,1,,,,,0,,,99,61
131537,note_on,,,,,24,0,1,,,,,0,,,97,63
131538,note_on,,,,,1,0,1,,,,,0,,,99,0
131561,note_on,,,,,23,0,1,,,,,0,,,94,59
131563,note_on,,,,,2,0,1,,,,,0,,,97,0
131581,note_on,,,,,18,0,1,,,,,0,,,94,0
131584,note_on,,,,,3,0,1,,,,,0,,,90,57
131596,note_on,,,,,12,0,1,,,,,0,,,90,0
131617,note_on,,,,,21,0,1,,,,,0,,,58,74
131618,note_on,,,,,1,0,1,,,,,0,,,87,58
131645,note_on,,,,,27,0,1,,,,,0,,,87,0
131647,note_on,,,,,2,0,1,,,,,0,,,85,52
131665,note_on,,,,,18,0,1,,,,,0,,,85,0
131668,note_on,,,,,3,0,1,,,,,0,,,82,50
131686,note_on,,,,,18,0,1,,,,,0,,,82,0
131688,note_on,,,,,2,0,1,,,,,0,,,78,47
131713,note_on,,,,,25,0,1,,,,,0,,,78,0
131717,note_on,,,,,4,0,1,,,,,0,,,87,51
131737,note_on,,,,,20,0,1,,,,,0,,,87,0
131737,note_on,,,,,0,0,1,,,,,0,,,85,55
131758,note_on,,,,,21,0,1,,,,,0,,,82,50
131767,note_on,,,,,9,0,1,,,,,0,,,85,0
131776,note_on,,,,,9,0,1,,,,,0,,,82,0
131780,note_on,,,,,4,0,1,,,,,0,,,78,57
131796,note_on,,,,,16,0,1,,,,,0,,,78,0
131813,note_on,,,,,17,0,1,,,,,0,,,56,61
131818,note_on,,,,,5,0,1,,,,,0,,,75,38
131822,note_on,,,,,4,0,1,,,,,0,,,58,0
131836,note_on,,,,,14,0,1,,,,,0,,,75,0
131841,note_on,,,,,5,0,1,,,,,0,,,73,46
131863,note_on,,,,,22,0,1,,,,,0,,,73,0
131866,note_on,,,,,3,0,1,,,,,0,,,70,47
131881,note_on,,,,,15,0,1,,,,,0,,,70,0
131887,note_on,,,,,6,0,1,,,,,0,,,66,37
131910,note_on,,,,,23,0,1,,,,,0,,,66,0
131919,note_on,,,,,9,0,1,,,,,0,,,75,60
131940,note_on,,,,,21,0,1,,,,,0,,,75,0
131946,note_on,,,,,6,0,1,,,,,0,,,73,40
131965,note_on,,,,,19,0,1,,,,,0,,,73,0
131966,note_on,,,,,1,0,1,,,,,0,,,70,50
131983,note_on,,,,,17,0,1,,,,,0,,,70,0
131989,note_on,,,,,6,0,1,,,,,0,,,66,46
132010,note_on,,,,,21,0,1,,,,,0,,,66,0
132017,note_on,,,,,7,0,1,,,,,0,,,54,68
132026,note_on,,,,,9,0,1,,,,,0,,,70,50
132029,note_on,,,,,3,0,1,,,,,0,,,56,0
132046,note_on,,,,,17,0,1,,,,,0,,,70,0
132048,note_on,,,,,2,0,1,,,,,0,,,66,36
132055,note_on,,,,,7,0,1,,,,,0,,,54,0
132070,note_on,,,,,15,0,1,,,,,0,,,66,0
132071,note_on,,,,,1,0,1,,,,,0,,,63,46
132093,note_on,,,,,22,0,1,,,,,0,,,61,52
132096,note_on,,,,,3,0,1,,,,,0,,,63,0
132114,note_on,,,,,18,0,1,,,,,0,,,61,0
132129,note_on,,,,,15,0,1,,,,,0,,,42,52
132142,note_on,,,,,13,0,1,,,,,0,,,49,44
132160,control_change,,,,,18,0,1,,,,,0,64,40,,
132160,note_on,,,,,0,0,1,,,,,0,,,53,71
132163,control_change,,,,,3,0,1,,,,,0,64,0,,
132190,control_change,,,,,27,0,1,,,,,0,64,104,,
132193,control_change,,,,,3,0,1,,,,,0,64,127,,
132197,note_on,,,,,4,0,1,,,,,0,,,59,50
132209,note_on,,,,,12,0,1,,,,,0,,,59,0
132223,note_on,,,,,14,0,1,,,,,0,,,61,60
132241,note_on,,,,,18,0,1,,,,,0,,,61,0
132253,note_on,,,,,12,0,1,,,,,0,,,68,56
132273,note_on,,,,,20,0,1,,,,,0,,,68,0
132276,note_on,,,,,3,0,1,,,,,0,,,71,68
132302,note_on,,,,,26,0,1,,,,,0,,,73,55
132304,note_on,,,,,2,0,1,,,,,0,,,71,0
132322,note_on,,,,,18,0,1,,,,,0,,,73,0
132325,note_on,,,,,3,0,1,,,,,0,,,75,66
132349,note_on,,,,,24,0,1,,,,,0,,,73,58
132350,note_on,,,,,1,0,1,,,,,0,,,75,0
132374,note_on,,,,,24,0,1,,,,,0,,,73,0
132376,note_on,,,,,2,0,1,,,,,0,,,71,64
132380,note_on,,,,,4,0,1,,,,,0,,,49,0
132396,note_on,,,,,16,0,1,,,,,0,,,71,0
132397,note_on,,,,,1,0,1,,,,,0,,,68,63
132417,note_on,,,,,20,0,1,,,,,0,,,53,0
132427,note_on,,,,,10,0,1,,,,,0,,,71,66
132428,note_on,,,,,1,0,1,,,,,0,,,68,0
132430,note_on,,,,,2,0,1,,,,,0,,,51,57
132438,note_on,,,,,8,0,1,,,,,0,,,71,0
132442,note_on,,,,,4,0,1,,,,,0,,,42,0
132456,note_on,,,,,14,0,1,,,,,0,,,73,57
132475,note_on,,,,,19,0,1,,,,,0,,,73,0
132481,note_on,,,,,6,0,1,,,,,0,,,80,58
132500,note_on,,,,,19,0,1,,,,,0,,,80,0
132504,note_on,,,,,4,0,1,,,,,0,,,83,72
132531,note_on,,,,,27,0,1,,,,,0,,,87,68
132532,note_on,,,,,1,0,1,,,,,0,,,83,0
132552,note_on,,,,,20,0,1,,,,,0,,,85,63
132554,note_on,,,,,2,0,1,,,,,0,,,87,0
132580,note_on,,,,,26,0,1,,,,,0,,,85,0
132582,note_on,,,,,2,0,1,,,,,0,,,83,64
132597,note_on,,,,,15,0,1,,,,,0,,,83,0
132600,note_on,,,,,3,0,1,,,,,0,,,80,69
132622,note_on,,,,,22,0,1,,,,,0,,,51,0
132622,note_on,,,,,0,0,1,,,,,0,,,49,71
132626,note_on,,,,,4,0,1,,,,,0,,,83,72
132630,note_on,,,,,4,0,1,,,,,0,,,80,0
132640,note_on,,,,,10,0,1,,,,,0,,,83,0
132659,note_on,,,,,19,0,1,,,,,0,,,85,37
132670,note_on,,,,,11,0,1,,,,,0,,,49,0
132679,note_on,,,,,9,0,1,,,,,0,,,85,0
132684,note_on,,,,,5,0,1,,,,,0,,,92,42
132700,note_on,,,,,16,0,1,,,,,0,,,92,0
132702,note_on,,,,,2,0,1,,,,,0,,,95,69
132728,note_on,,,,,26,0,1,,,,,0,,,49,73
132733,note_on,,,,,5,0,1,,,,,0,,,95,0
132736,note_on,,,,,3,0,1,,,,,0,,,99,54
132753,control_change,,,,,17,0,1,,,,,0,64,56,,
132756,control_change,,,,,3,0,1,,,,,0,64,0,,
132758,note_on,,,,,2,0,1,,,,,0,,,97,68
132760,note_on,,,,,2,0,1,,,,,0,,,99,0
132780,control_change,,,,,20,0,1,,,,,0,64,88,,
132784,control_change,,,,,4,0,1,,,,,0,64,127,,
132785,note_on,,,,,1,0,1,,,,,0,,,95,70
132786,note_on,,,,,1,0,1,,,,,0,,,97,0
132806,note_on,,,,,20,0,1,,,,,0,,,92,63
132810,note_on,,,,,4,0,1,,,,,0,,,95,0
132827,note_on,,,,,17,0,1,,,,,0,,,92,0
132830,note_on,,,,,3,0,1,,,,,0,,,87,49
132846,note_on,,,,,16,0,1,,,,,0,,,87,0
132888,note_on,,,,,42,0,1,,,,,0,,,83,60
132905,note_on,,,,,17,0,1,,,,,0,,,80,60
132910,note_on,,,,,5,0,1,,,,,0,,,83,0
132929,note_on,,,,,19,0,1,,,,,0,,,80,0
132939,note_on,,,,,10,0,1,,,,,0,,,87,67
132963,note_on,,,,,0,0,1,,,,,0,,,85,68
132963,note_on,,,,,24,0,1,,,,,0,,,87,0
132990,note_on,,,,,27,0,1,,,,,0,,,85,0
132993,note_on,,,,,3,0,1,,,,,0,,,83,59
133010,note_on,,,,,17,0,1,,,,,0,,,80,59
133013,note_on,,,,,3,0,1,,,,,0,,,83,0
133034,note_on,,,,,21,0,1,,,,,0,,,80,0
133036,note_on,,,,,2,0,1,,,,,0,,,75,66
133040,note_on,,,,,4,0,1,,,,,0,,,49,0
133043,note_on,,,,,3,0,1,,,,,0,,,53,63
133051,note_on,,,,,8,0,1,,,,,0,,,75,0
133065,note_on,,,,,14,0,1,,,,,0,,,73,57
133082,note_on,,,,,17,0,1,,,,,0,,,53,0
133083,note_on,,,,,1,0,1,,,,,0,,,73,0
133102,note_on,,,,,19,0,1,,,,,0,,,71,34
133116,note_on,,,,,14,0,1,,,,,0,,,68,48
133120,note_on,,,,,4,0,1,,,,,0,,,71,0
133138,note_on,,,,,18,0,1,,,,,0,,,68,0
133151,note_on,,,,,13,0,1,,,,,0,,,63,70
133153,note_on,,,,,2,0,1,,,,,0,,,75,60
133174,note_on,,,,,21,0,1,,,,,0,,,63,0
133177,note_on,,,,,3,0,1,,,,,0,,,75,0
133183,note_on,,,,,6,0,1,,,,,0,,,73,56
133209,note_on,,,,,26,0,1,,,,,0,,,73,0
133210,note_on,,,,,1,0,1,,,,,0,,,71,55
133225,note_on,,,,,15,0,1,,,,,0,,,71,0
133230,note_on,,,,,5,0,1,,,,,0,,,68,53
133249,note_on,,,,,19,0,1,,,,,0,,,68,0
133253,note_on,,,,,4,0,1,,,,,0,,,71,53
133275,note_on,,,,,22,0,1,,,,,0,,,71,0
133280,note_on,,,,,5,0,1,,,,,0,,,68,52
133299,note_on,,,,,19,0,1,,,,,0,,,68,0
133306,note_on,,,,,7,0,1,,,,,0,,,63,54
133330,note_on,,,,,24,0,1,,,,,0,,,63,0
133343,note_on,,,,,13,0,1,,,,,0,,,61,67
133362,note_on,,,,,19,0,1,,,,,0,,,61,0
133388,note_on,,,,,26,0,1,,,,,0,,,61,67
133414,control_change,,,,,26,0,1,,,,,0,64,24,,
133418,control_change,,,,,4,0,1,,,,,0,64,0,,
133429,note_on,,,,,11,0,1,,,,,0,,,42,51
133441,control_change,,,,,12,0,1,,,,,0,64,40,,
133444,control_change,,,,,3,0,1,,,,,0,64,127,,
133454,note_on,,,,,10,0,1,,,,,0,,,42,0
133464,note_on,,,,,10,0,1,,,,,0,,,61,0
133471,note_on,,,,,7,0,1,,,,,0,,,52,49
133499,note_on,,,,,28,0,1,,,,,0,,,58,55
133510,note_on,,,,,11,0,1,,,,,0,,,52,0
133517,note_on,,,,,7,0,1,,,,,0,,,58,0
133530,note_on,,,,,13,0,1,,,,,0,,,66,55
133555,note_on,,,,,25,0,1,,,,,0,,,66,0
133555,note_on,,,,,0,0,1,,,,,0,,,70,53
133578,note_on,,,,,23,0,1,,,,,0,,,70,0
133578,note_on,,,,,0,0,1,,,,,0,,,73,60
133604,note_on,,,,,26,0,1,,,,,0,,,73,0
133605,note_on,,,,,1,0,1,,,,,0,,,75,54
133624,note_on,,,,,19,0,1,,,,,0,,,75,0
133627,note_on,,,,,3,0,1,,,,,0,,,73,58
133652,note_on,,,,,25,0,1,,,,,0,,,73,0
133653,note_on,,,,,1,0,1,,,,,0,,,70,51
133670,note_on,,,,,17,0,1,,,,,0,,,70,0
133672,note_on,,,,,2,0,1,,,,,0,,,66,44
133694,note_on,,,,,22,0,1,,,,,0,,,70,55
133696,note_on,,,,,2,0,1,,,,,0,,,66,0
133713,note_on,,,,,17,0,1,,,,,0,,,70,0
133716,note_on,,,,,3,0,1,,,,,0,,,73,49
133723,note_on,,,,,7,0,1,,,,,0,,,73,0
133742,note_on,,,,,19,0,1,,,,,0,,,78,54
133760,note_on,,,,,18,0,1,,,,,0,,,78,0
133764,note_on,,,,,4,0,1,,,,,0,,,82,52
133784,note_on,,,,,20,0,1,,,,,0,,,82,0
133789,note_on,,,,,5,0,1,,,,,0,,,87,69
133811,note_on,,,,,22,0,1,,,,,0,,,87,0
133814,note_on,,,,,3,0,1,,,,,0,,,85,64
133838,note_on,,,,,24,0,1,,,,,0,,,85,0
133841,note_on,,,,,3,0,1,,,,,0,,,82,58
133861,note_on,,,,,20,0,1,,,,,0,,,82,0
133861,note_on,,,,,0,0,1,,,,,0,,,78,68
133886,note_on,,,,,25,0,1,,,,,0,,,82,57
133889,note_on,,,,,3,0,1,,,,,0,,,78,0
133907,note_on,,,,,18,0,1,,,,,0,,,85,64
133908,note_on,,,,,1,0,1,,,,,0,,,82,0
133921,note_on,,,,,13,0,1,,,,,0,,,85,0
133937,note_on,,,,,16,0,1,,,,,0,,,90,57
133958,note_on,,,,,21,0,1,,,,,0,,,90,0
133958,note_on,,,,,0,0,1,,,,,0,,,94,61
133983,note_on,,,,,25,0,1,,,,,0,,,94,0
133986,note_on,,,,,3,0,1,,,,,0,,,99,73
134009,note_on,,,,,23,0,1,,,,,0,,,97,70
134013,note_on,,,,,4,0,1,,,,,0,,,99,0
134032,note_on,,,,,19,0,1,,,,,0,,,94,60
134042,note_on,,,,,10,0,1,,,,,0,,,97,0
134057,note_on,,,,,15,0,1,,,,,0,,,94,0
134058,note_on,,,,,1,0,1,,,,,0,,,90,60
134072,note_on,,,,,14,0,1,,,,,0,,,90,0
134093,note_on,,,,,21,0,1,,,,,0,,,58,60
134095,note_on,,,,,2,0,1,,,,,0,,,87,33
134113,note_on,,,,,18,0,1,,,,,0,,,87,0
134116,note_on,,,,,3,0,1,,,,,0,,,85,59
134137,note_on,,,,,21,0,1,,,,,0,,,85,0
134141,note_on,,,,,4,0,1,,,,,0,,,82,60
134159,note_on,,,,,18,0,1,,,,,0,,,82,0
134161,note_on,,,,,2,0,1,,,,,0,,,78,59
134185,note_on,,,,,24,0,1,,,,,0,,,78,0
134192,note_on,,,,,7,0,1,,,,,0,,,87,61
134214,note_on,,,,,22,0,1,,,,,0,,,85,55
134215,note_on,,,,,1,0,1,,,,,0,,,87,0
134235,note_on,,,,,20,0,1,,,,,0,,,82,44
134247,note_on,,,,,12,0,1,,,,,0,,,85,0
134257,note_on,,,,,0,0,1,,,,,0,,,78,58
134257,note_on,,,,,10,0,1,,,,,0,,,82,0
134272,note_on,,,,,15,0,1,,,,,0,,,78,0
134291,note_on,,,,,19,0,1,,,,,0,,,56,70
134292,note_on,,,,,1,0,1,,,,,0,,,75,46
134296,note_on,,,,,4,0,1,,,,,0,,,58,0
134311,note_on,,,,,15,0,1,,,,,0,,,75,0
134317,note_on,,,,,6,0,1,,,,,0,,,73,51
134342,note_on,,,,,0,0,1,,,,,0,,,70,50
134342,note_on,,,,,25,0,1,,,,,0,,,73,0
134362,note_on,,,,,20,0,1,,,,,0,,,70,0
134367,note_on,,,,,5,0,1,,,,,0,,,66,48
134391,note_on,,,,,24,0,1,,,,,0,,,66,0
134398,note_on,,,,,7,0,1,,,,,0,,,75,61
134419,note_on,,,,,21,0,1,,,,,0,,,75,0
134421,note_on,,,,,2,0,1,,,,,0,,,73,50
134442,note_on,,,,,21,0,1,,,,,0,,,73,0
134443,note_on,,,,,1,0,1,,,,,0,,,70,32
134452,note_on,,,,,9,0,1,,,,,0,,,70,0
134458,note_on,,,,,6,0,1,,,,,0,,,66,47
134478,note_on,,,,,20,0,1,,,,,0,,,66,0
134493,note_on,,,,,15,0,1,,,,,0,,,54,63
134496,note_on,,,,,3,0,1,,,,,0,,,70,48
134512,note_on,,,,,16,0,1,,,,,0,,,56,0
134516,note_on,,,,,4,0,1,,,,,0,,,70,0
134517,note_on,,,,,1,0,1,,,,,0,,,66,46
134531,note_on,,,,,14,0,1,,,,,0,,,54,0
134536,note_on,,,,,5,0,1,,,,,0,,,63,50
134541,note_on,,,,,5,0,1,,,,,0,,,66,0
134554,note_on,,,,,13,0,1,,,,,0,,,63,0
134559,note_on,,,,,5,0,1,,,,,0,,,61,57
134579,note_on,,,,,20,0,1,,,,,0,,,61,0
134605,note_on,,,,,26,0,1,,,,,0,,,42,55
134640,note_on,,,,,35,0,1,,,,,0,,,51,70
134665,control_change,,,,,25,0,1,,,,,0,64,88,,
134669,control_change,,,,,4,0,1,,,,,0,64,0,,
134695,control_change,,,,,26,0,1,,,,,0,64,56,,
134699,control_change,,,,,4,0,1,,,,,0,64,127,,
134702,note_on,,,,,3,0,1,,,,,0,,,59,56
134720,note_on,,,,,18,0,1,,,,,0,,,59,0
134730,note_on,,,,,10,0,1,,,,,0,,,61,46
134750,note_on,,,,,20,0,1,,,,,0,,,63,54
134755,note_on,,,,,5,0,1,,,,,0,,,61,0
134775,note_on,,,,,20,0,1,,,,,0,,,66,46
134778,note_on,,,,,3,0,1,,,,,0,,,63,0
134781,note_on,,,,,3,0,1,,,,,0,,,66,0
134802,note_on,,,,,21,0,1,,,,,0,,,71,58
134814,note_on,,,,,12,0,1,,,,,0,,,71,0
134827,note_on,,,,,13,0,1,,,,,0,,,73,56
134844,note_on,,,,,17,0,1,,,,,0,,,73,0
134854,note_on,,,,,10,0,1,,,,,0,,,78,62
134855,note_on,,,,,1,0,1,,,,,0,,,75,61
134868,note_on,,,,,13,0,1,,,,,0,,,78,0
134874,note_on,,,,,6,0,1,,,,,0,,,75,0
134883,note_on,,,,,9,0,1,,,,,0,,,73,63
134896,note_on,,,,,13,0,1,,,,,0,,,42,0
134901,note_on,,,,,5,0,1,,,,,0,,,73,0
134903,note_on,,,,,2,0,1,,,,,0,,,51,0
134908,note_on,,,,,5,0,1,,,,,0,,,71,68
134931,note_on,,,,,23,0,1,,,,,0,,,71,0
134933,note_on,,,,,2,0,1,,,,,0,,,73,67
134956,note_on,,,,,23,0,1,,,,,0,,,75,59
134964,note_on,,,,,8,0,1,,,,,0,,,73,0
134976,note_on,,,,,12,0,1,,,,,0,,,78,55
134978,note_on,,,,,2,0,1,,,,,0,,,75,0
134980,note_on,,,,,2,0,1,,,,,0,,,78,0
134998,note_on,,,,,18,0,1,,,,,0,,,83,72
135007,note_on,,,,,9,0,1,,,,,0,,,83,0
135021,note_on,,,,,14,0,1,,,,,0,,,85,57
135041,note_on,,,,,20,0,1,,,,,0,,,85,0
135051,note_on,,,,,10,0,1,,,,,0,,,90,67
135052,note_on,,,,,0,0,1,,,,,0,,,54,65
135052,note_on,,,,,1,0,1,,,,,0,,,87,60
135069,note_on,,,,,17,0,1,,,,,0,,,90,0
135080,note_on,,,,,11,0,1,,,,,0,,,85,73
135092,note_on,,,,,12,0,1,,,,,0,,,87,0
135102,note_on,,,,,10,0,1,,,,,0,,,85,0
135104,note_on,,,,,2,0,1,,,,,0,,,83,73
135125,note_on,,,,,21,0,1,,,,,0,,,85,67
135132,note_on,,,,,7,0,1,,,,,0,,,83,0
135148,note_on,,,,,16,0,1,,,,,0,,,87,61
135164,note_on,,,,,16,0,1,,,,,0,,,85,0
135170,note_on,,,,,6,0,1,,,,,0,,,90,60
135176,note_on,,,,,6,0,1,,,,,0,,,87,0
135181,note_on,,,,,5,0,1,,,,,0,,,90,0
135196,note_on,,,,,15,0,1,,,,,0,,,95,78
135213,note_on,,,,,17,0,1,,,,,0,,,95,0
135219,note_on,,,,,6,0,1,,,,,0,,,97,67
135241,note_on,,,,,22,0,1,,,,,0,,,97,0
135249,note_on,,,,,0,0,1,,,,,0,,,102,71
135249,note_on,,,,,8,0,1,,,,,0,,,54,0
135250,note_on,,,,,1,0,1,,,,,0,,,99,67
135252,note_on,,,,,2,0,1,,,,,0,,,59,70
135278,note_on,,,,,0,0,1,,,,,0,,,97,70
135278,note_on,,,,,26,0,1,,,,,0,,,102,0
135300,note_on,,,,,22,0,1,,,,,0,,,99,0
135301,note_on,,,,,1,0,1,,,,,0,,,97,0
135305,note_on,,,,,4,0,1,,,,,0,,,95,76
135311,note_on,,,,,6,0,1,,,,,0,,,95,0
135331,note_on,,,,,20,0,1,,,,,0,,,90,66
135349,note_on,,,,,18,0,1,,,,,0,,,90,0
135352,note_on,,,,,3,0,1,,,,,0,,,87,61
135378,note_on,,,,,26,0,1,,,,,0,,,85,48
135379,note_on,,,,,1,0,1,,,,,0,,,87,0
135394,note_on,,,,,15,0,1,,,,,0,,,85,0
135398,note_on,,,,,4,0,1,,,,,0,,,83,48
135419,note_on,,,,,21,0,1,,,,,0,,,83,0
135423,note_on,,,,,4,0,1,,,,,0,,,85,61
135447,note_on,,,,,24,0,1,,,,,0,,,63,73
135451,note_on,,,,,4,0,1,,,,,0,,,90,63
135454,note_on,,,,,3,0,1,,,,,0,,,85,0
135460,note_on,,,,,6,0,1,,,,,0,,,87,44
135474,note_on,,,,,14,0,1,,,,,0,,,90,0
135485,note_on,,,,,11,0,1,,,,,0,,,59,0
135485,note_on,,,,,0,0,1,,,,,0,,,85,56
135500,note_on,,,,,15,0,1,,,,,0,,,87,0
135505,note_on,,,,,5,0,1,,,,,0,,,85,0
135508,note_on,,,,,3,0,1,,,,,0,,,83,70
135515,note_on,,,,,7,0,1,,,,,0,,,83,0
135533,note_on,,,,,18,0,1,,,,,0,,,78,55
135550,note_on,,,,,17,0,1,,,,,0,,,78,0
135551,note_on,,,,,1,0,1,,,,,0,,,75,59
135576,note_on,,,,,25,0,1,,,,,0,,,75,0
135578,note_on,,,,,2,0,1,,,,,0,,,73,46
135593,note_on,,,,,15,0,1,,,,,0,,,73,0
135596,note_on,,,,,3,0,1,,,,,0,,,71,52
135615,note_on,,,,,19,0,1,,,,,0,,,71,0
135617,note_on,,,,,2,0,1,,,,,0,,,73,67
135639,note_on,,,,,22,0,1,,,,,0,,,73,0
135641,note_on,,,,,2,0,1,,,,,0,,,66,76
135644,note_on,,,,,3,0,1,,,,,0,,,78,53
135660,note_on,,,,,16,0,1,,,,,0,,,75,40
135667,note_on,,,,,7,0,1,,,,,0,,,78,0
135681,note_on,,,,,14,0,1,,,,,0,,,73,49
135691,note_on,,,,,0,0,1,,,,,0,,,66,0
135691,note_on,,,,,10,0,1,,,,,0,,,75,0
135692,note_on,,,,,1,0,1,,,,,0,,,63,0
135699,note_on,,,,,7,0,1,,,,,0,,,73,0
135704,note_on,,,,,5,0,1,,,,,0,,,71,57
135713,note_on,,,,,9,0,1,,,,,0,,,71,0
135737,note_on,,,,,24,0,1,,,,,0,,,66,42
135754,note_on,,,,,17,0,1,,,,,0,,,66,0
135756,note_on,,,,,2,0,1,,,,,0,,,63,49
135780,note_on,,,,,24,0,1,,,,,0,,,63,0
135782,note_on,,,,,2,0,1,,,,,0,,,61,47
135804,note_on,,,,,22,0,1,,,,,0,,,61,0
135812,note_on,,,,,8,0,1,,,,,0,,,59,40
135832,note_on,,,,,20,0,1,,,,,0,,,59,0
135839,note_on,,,,,7,0,1,,,,,0,,,61,48
135854,note_on,,,,,15,0,1,,,,,0,,,61,0
135872,control_change,,,,,18,0,1,,,,,0,64,88,,
135872,note_on,,,,,0,0,1,,,,,0,,,42,52
135876,control_change,,,,,4,0,1,,,,,0,64,0,,
135894,note_on,,,,,18,0,1,,,,,0,,,42,0
135895,control_change,,,,,1,0,1,,,,,0,64,72,,
135898,note_on,,,,,3,0,1,,,,,0,,,50,52
135900,control_change,,,,,2,0,1,,,,,0,64,127,,
135909,note_on,,,,,9,0,1,,,,,0,,,50,0
135919,note_on,,,,,10,0,1,,,,,0,,,57,49
135939,note_on,,,,,20,0,1,,,,,0,,,57,0
135957,note_on,,,,,18,0,1,,,,,0,,,62,72
135975,note_on,,,,,18,0,1,,,,,0,,,62,0
136001,note_on,,,,,26,0,1,,,,,0,,,66,40
136015,note_on,,,,,14,0,1,,,,,0,,,66,0
136029,note_on,,,,,14,0,1,,,,,0,,,69,57
136042,note_on,,,,,13,0,1,,,,,0,,,69,0
136056,note_on,,,,,14,0,1,,,,,0,,,74,44
136076,note_on,,,,,20,0,1,,,,,0,,,74,0
136080,note_on,,,,,4,0,1,,,,,0,,,76,53
136101,note_on,,,,,21,0,1,,,,,0,,,76,0
136103,note_on,,,,,2,0,1,,,,,0,,,78,56
136127,note_on,,,,,24,0,1,,,,,0,,,76,56
136129,note_on,,,,,2,0,1,,,,,0,,,78,0
136151,note_on,,,,,22,0,1,,,,,0,,,76,0
136152,note_on,,,,,1,0,1,,,,,0,,,74,53
136170,note_on,,,,,18,0,1,,,,,0,,,74,0
136175,note_on,,,,,5,0,1,,,,,0,,,69,50
136194,note_on,,,,,19,0,1,,,,,0,,,69,0
136203,note_on,,,,,9,0,1,,,,,0,,,74,52
136207,note_on,,,,,4,0,1,,,,,0,,,78,58
136209,note_on,,,,,2,0,1,,,,,0,,,74,0
136220,note_on,,,,,11,0,1,,,,,0,,,78,0
136233,note_on,,,,,13,0,1,,,,,0,,,81,60
136246,note_on,,,,,13,0,1,,,,,0,,,81,0
136257,note_on,,,,,11,0,1,,,,,0,,,86,57
136277,note_on,,,,,20,0,1,,,,,0,,,86,0
136279,note_on,,,,,2,0,1,,,,,0,,,88,60
136299,note_on,,,,,20,0,1,,,,,0,,,88,0
136300,note_on,,,,,1,0,1,,,,,0,,,90,64
136328,note_on,,,,,28,0,1,,,,,0,,,90,0
136328,note_on,,,,,0,0,1,,,,,0,,,88,64
136345,note_on,,,,,17,0,1,,,,,0,,,88,0
136347,note_on,,,,,2,0,1,,,,,0,,,86,69
136365,note_on,,,,,18,0,1,,,,,0,,,86,0
136371,note_on,,,,,6,0,1,,,,,0,,,81,58
136393,note_on,,,,,22,0,1,,,,,0,,,81,0
136394,note_on,,,,,1,0,1,,,,,0,,,86,48
136399,note_on,,,,,5,0,1,,,,,0,,,90,63
136403,note_on,,,,,4,0,1,,,,,0,,,86,0
136414,note_on,,,,,11,0,1,,,,,0,,,90,0
136426,note_on,,,,,12,0,1,,,,,0,,,93,67
136440,note_on,,,,,14,0,1,,,,,0,,,93,0
136450,note_on,,,,,10,0,1,,,,,0,,,98,52
136470,note_on,,,,,20,0,1,,,,,0,,,100,69
136472,note_on,,,,,2,0,1,,,,,0,,,98,0
136487,note_on,,,,,15,0,1,,,,,0,,,100,0
136493,set_tempo,,,,,7993,1,0,,487805,,,,,,,
136493,note_on,,,,,6,0,1,,,,,0,,,102,67
136518,note_on,,,,,25,0,1,,,,,0,,,100,61
136522,note_on,,,,,4,0,1,,,,,0,,,102,0
136536,note_on,,,,,14,0,1,,,,,0,,,100,0
136538,note_on,,,,,2,0,1,,,,,0,,,98,60
136549,note_on,,,,,11,0,1,,,,,0,,,98,0
136566,note_on,,,,,17,0,1,,,,,0,,,93,53
136575,note_on,,,,,9,0,1,,,,,0,,,93,0
136589,note_on,,,,,14,0,1,,,,,0,,,90,47
136595,note_on,,,,,6,0,1,,,,,0,,,90,0
136610,note_on,,,,,15,0,1,,,,,0,,,93,69
136626,note_on,,,,,16,0,1,,,,,0,,,93,0
136634,note_on,,,,,8,0,1,,,,,0,,,98,70
136643,note_on,,,,,9,0,1,,,,,0,,,66,32
136657,note_on,,,,,14,0,1,,,,,0,,,98,0
136658,note_on,,,,,1,0,1,,,,,0,,,100,76
136662,note_on,,,,,4,0,1,,,,,0,,,66,0
136672,note_on,,,,,10,0,1,,,,,0,,,72,34
136676,note_on,,,,,4,0,1,,,,,0,,,74,44
136683,note_on,,,,,7,0,1,,,,,0,,,100,0
136684,note_on,,,,,1,0,1,,,,,0,,,102,66
136690,note_on,,,,,6,0,1,,,,,0,,,72,0
136697,note_on,,,,,7,0,1,,,,,0,,,81,48
136698,note_on,,,,,1,0,1,,,,,0,,,74,0
136709,note_on,,,,,11,0,1,,,,,0,,,100,74
136710,note_on,,,,,1,0,1,,,,,0,,,81,0
136714,note_on,,,,,4,0,1,,,,,0,,,102,0
136735,note_on,,,,,21,0,1,,,,,0,,,100,0
136735,note_on,,,,,0,0,1,,,,,0,,,98,70
136751,note_on,,,,,16,0,1,,,,,0,,,98,0
136761,note_on,,,,,10,0,1,,,,,0,,,93,55
136779,note_on,,,,,18,0,1,,,,,0,,,93,0
136783,note_on,,,,,4,0,1,,,,,0,,,90,51
136790,note_on,,,,,7,0,1,,,,,0,,,90,0
136804,note_on,,,,,14,0,1,,,,,0,,,93,70
136814,note_on,,,,,10,0,1,,,,,0,,,93,0
136826,note_on,,,,,12,0,1,,,,,0,,,98,72
136844,note_on,,,,,18,0,1,,,,,0,,,66,44
136849,note_on,,,,,5,0,1,,,,,0,,,98,0
136850,note_on,,,,,1,0,1,,,,,0,,,100,72
136860,note_on,,,,,10,0,1,,,,,0,,,66,0
136863,note_on,,,,,3,0,1,,,,,0,,,72,58
136872,note_on,,,,,9,0,1,,,,,0,,,74,55
136875,note_on,,,,,3,0,1,,,,,0,,,100,0
136876,note_on,,,,,1,0,1,,,,,0,,,72,0
136878,note_on,,,,,2,0,1,,,,,0,,,102,68
136882,note_on,,,,,4,0,1,,,,,0,,,74,0
136886,note_on,,,,,4,0,1,,,,,0,,,81,75
136901,note_on,,,,,15,0,1,,,,,0,,,81,0
136906,note_on,,,,,5,0,1,,,,,0,,,100,61
136910,note_on,,,,,4,0,1,,,,,0,,,102,0
136927,note_on,,,,,17,0,1,,,,,0,,,100,0
136931,note_on,,,,,4,0,1,,,,,0,,,98,69
136944,note_on,,,,,13,0,1,,,,,0,,,98,0
136955,note_on,,,,,11,0,1,,,,,0,,,93,56
136970,note_on,,,,,15,0,1,,,,,0,,,93,0
136979,note_on,,,,,9,0,1,,,,,0,,,90,58
136992,note_on,,,,,13,0,1,,,,,0,,,90,0
137003,note_on,,,,,11,0,1,,,,,0,,,93,53
137013,note_on,,,,,10,0,1,,,,,0,,,93,0
137023,note_on,,,,,10,0,1,,,,,0,,,98,69
137048,note_on,,,,,25,0,1,,,,,0,,,100,58
137048,set_tempo,,,,,555,1,0,,413793,,,,,,,
137049,note_on,,,,,1,0,1,,,,,0,,,98,0
137051,control_change,,,,,2,0,1,,,,,0,64,88,,
137055,set_tempo,,,,,7,1,0,,444444,,,,,,,
137055,control_change,,,,,4,0,1,,,,,0,64,24,,
137055,note_on,,,,,0,0,1,,,,,0,,,66,37
137057,note_on,,,,,2,0,1,,,,,0,,,100,0
137060,control_change,,,,,3,0,1,,,,,0,64,72,,
137063,control_change,,,,,3,0,1,,,,,0,64,127,,
137074,note_on,,,,,11,0,1,,,,,0,,,66,0
137078,note_on,,,,,4,0,1,,,,,0,,,73,40
137099,note_on,,,,,21,0,1,,,,,0,,,78,48
137101,note_on,,,,,2,0,1,,,,,0,,,73,0
137126,note_on,,,,,25,0,1,,,,,0,,,82,40
137128,note_on,,,,,2,0,1,,,,,0,,,78,0
137129,note_on,,,,,1,0,1,,,,,0,,,102,62
137134,note_on,,,,,5,0,1,,,,,0,,,94,43
137140,note_on,,,,,6,0,1,,,,,0,,,82,0
137154,note_on,,,,,14,0,1,,,,,0,,,102,0
137158,note_on,,,,,4,0,1,,,,,0,,,94,0
137162,note_on,,,,,4,0,1,,,,,0,,,99,63
137183,note_on,,,,,21,0,1,,,,,0,,,99,0
137192,note_on,,,,,9,0,1,,,,,0,,,97,58
137208,note_on,,,,,16,0,1,,,,,0,,,97,0
137216,note_on,,,,,8,0,1,,,,,0,,,94,58
137240,note_on,,,,,24,0,1,,,,,0,,,94,0
137246,note_on,,,,,6,0,1,,,,,0,,,90,56
137269,note_on,,,,,23,0,1,,,,,0,,,90,0
137273,note_on,,,,,4,0,1,,,,,0,,,94,56
137296,note_on,,,,,23,0,1,,,,,0,,,94,0
137302,note_on,,,,,6,0,1,,,,,0,,,97,61
137324,note_on,,,,,22,0,1,,,,,0,,,97,0
137329,note_on,,,,,5,0,1,,,,,0,,,99,71
137355,note_on,,,,,26,0,1,,,,,0,,,99,0
137358,note_on,,,,,3,0,1,,,,,0,,,97,54
137382,note_on,,,,,24,0,1,,,,,0,,,97,0
137384,note_on,,,,,2,0,1,,,,,0,,,94,51
137406,note_on,,,,,22,0,1,,,,,0,,,94,0
137412,note_on,,,,,6,0,1,,,,,0,,,90,42
137422,note_on,,,,,10,0,1,,,,,0,,,90,0
137434,note_on,,,,,12,0,1,,,,,0,,,87,53
137453,note_on,,,,,19,0,1,,,,,0,,,87,0
137461,note_on,,,,,8,0,1,,,,,0,,,85,61
137478,note_on,,,,,17,0,1,,,,,0,,,85,0
137486,note_on,,,,,8,0,1,,,,,0,,,87,55
137505,note_on,,,,,19,0,1,,,,,0,,,87,0
137515,note_on,,,,,10,0,1,,,,,0,,,90,55
137537,note_on,,,,,22,0,1,,,,,0,,,90,0
137542,note_on,,,,,5,0,1,,,,,0,,,94,60
137562,note_on,,,,,20,0,1,,,,,0,,,94,0
137570,note_on,,,,,8,0,1,,,,,0,,,90,50
137595,note_on,,,,,25,0,1,,,,,0,,,87,58
137597,note_on,,,,,2,0,1,,,,,0,,,90,0
137621,note_on,,,,,24,0,1,,,,,0,,,87,0
137623,note_on,,,,,2,0,1,,,,,0,,,85,57
137636,note_on,,,,,13,0,1,,,,,0,,,85,0
137653,note_on,,,,,17,0,1,,,,,0,,,82,60
137676,note_on,,,,,23,0,1,,,,,0,,,82,0
137682,note_on,,,,,6,0,1,,,,,0,,,78,58
137701,note_on,,,,,19,0,1,,,,,0,,,78,0
137708,note_on,,,,,7,0,1,,,,,0,,,82,62
137740,note_on,,,,,32,0,1,,,,,0,,,85,46
137743,note_on,,,,,3,0,1,,,,,0,,,82,0
137766,note_on,,,,,23,0,1,,,,,0,,,87,67
137769,note_on,,,,,3,0,1,,,,,0,,,85,0
137784,control_change,,,,,0,0,1,,,,,0,64,56,,
137784,note_on,,,,,15,0,1,,,,,0,,,54,33
137787,control_change,,,,,3,0,1,,,,,0,64,0,,
137796,note_on,,,,,9,0,1,,,,,0,,,54,0
137796,note_on,,,,,0,0,1,,,,,0,,,87,0
137801,note_on,,,,,5,0,1,,,,,0,,,61,44
137807,control_change,,,,,6,0,1,,,,,0,64,56,,
137811,note_on,,,,,4,0,1,,,,,0,,,80,61
137811,control_change,,,,,0,0,1,,,,,0,64,127,,
137811,note_on,,,,,0,0,1,,,,,0,,,85,58
137819,note_on,,,,,8,0,1,,,,,0,,,65,35
137822,note_on,,,,,3,0,1,,,,,0,,,61,0
137830,note_on,,,,,8,0,1,,,,,0,,,80,0
137830,note_on,,,,,0,0,1,,,,,0,,,65,0
137832,note_on,,,,,0,0,1,,,,,0,,,71,33
137832,note_on,,,,,2,0,1,,,,,0,,,85,0
137841,note_on,,,,,9,0,1,,,,,0,,,82,55
137843,note_on,,,,,2,0,1,,,,,0,,,71,0
137866,note_on,,,,,23,0,1,,,,,0,,,80,60
137870,note_on,,,,,4,0,1,,,,,0,,,82,0
137888,note_on,,,,,18,0,1,,,,,0,,,80,0
137891,note_on,,,,,3,0,1,,,,,0,,,75,57
137911,note_on,,,,,20,0,1,,,,,0,,,75,0
137921,note_on,,,,,10,0,1,,,,,0,,,73,53
137936,note_on,,,,,15,0,1,,,,,0,,,73,0
137950,note_on,,,,,14,0,1,,,,,0,,,75,60
137968,note_on,,,,,18,0,1,,,,,0,,,75,0
137977,note_on,,,,,9,0,1,,,,,0,,,80,58
137995,note_on,,,,,18,0,1,,,,,0,,,80,0
138004,note_on,,,,,9,0,1,,,,,0,,,82,56
138026,note_on,,,,,22,0,1,,,,,0,,,82,0
138033,note_on,,,,,7,0,1,,,,,0,,,80,61
138053,note_on,,,,,20,0,1,,,,,0,,,80,0
138059,note_on,,,,,6,0,1,,,,,0,,,75,54
138072,note_on,,,,,13,0,1,,,,,0,,,75,0
138084,note_on,,,,,12,0,1,,,,,0,,,73,53
138100,note_on,,,,,16,0,1,,,,,0,,,73,0
138112,note_on,,,,,12,0,1,,,,,0,,,70,59
138133,note_on,,,,,21,0,1,,,,,0,,,70,0
138142,note_on,,,,,9,0,1,,,,,0,,,68,55
138162,note_on,,,,,20,0,1,,,,,0,,,68,0
138168,note_on,,,,,6,0,1,,,,,0,,,70,57
138188,note_on,,,,,20,0,1,,,,,0,,,70,0
138199,note_on,,,,,11,0,1,,,,,0,,,73,56
138226,note_on,,,,,27,0,1,,,,,0,,,75,50
138227,note_on,,,,,1,0,1,,,,,0,,,73,0
138240,note_on,,,,,13,0,1,,,,,0,,,75,0
138254,note_on,,,,,14,0,1,,,,,0,,,73,56
138281,note_on,,,,,27,0,1,,,,,0,,,73,0
138283,note_on,,,,,2,0,1,,,,,0,,,75,57
138309,note_on,,,,,0,0,1,,,,,0,,,80,58
138309,note_on,,,,,26,0,1,,,,,0,,,75,0
138344,note_on,,,,,35,0,1,,,,,0,,,82,55
138349,note_on,,,,,5,0,1,,,,,0,,,82,0
138351,note_on,,,,,2,0,1,,,,,0,,,80,0
138366,note_on,,,,,15,0,1,,,,,0,,,80,48
138389,note_on,,,,,23,0,1,,,,,0,,,80,0
138398,note_on,,,,,9,0,1,,,,,0,,,82,49
138424,note_on,,,,,26,0,1,,,,,0,,,85,57
138428,control_change,,,,,4,0,1,,,,,0,64,88,,
138429,note_on,,,,,1,0,1,,,,,0,,,82,0
138431,control_change,,,,,2,0,1,,,,,0,64,24,,
138435,control_change,,,,,4,0,1,,,,,0,64,0,,
138448,note_on,,,,,13,0,1,,,,,0,,,87,59
138455,control_change,,,,,7,0,1,,,,,0,64,56,,
138456,note_on,,,,,1,0,1,,,,,0,,,85,0
138459,control_change,,,,,3,0,1,,,,,0,64,127,,
138460,note_on,,,,,1,0,1,,,,,0,,,66,43
138461,note_on,,,,,1,0,1,,,,,0,,,87,0
138473,note_on,,,,,12,0,1,,,,,0,,,66,0
138476,note_on,,,,,3,0,1,,,,,0,,,73,37
138486,note_on,,,,,10,0,1,,,,,0,,,85,62
138495,note_on,,,,,9,0,1,,,,,0,,,78,39
138511,note_on,,,,,16,0,1,,,,,0,,,85,0
138515,note_on,,,,,4,0,1,,,,,0,,,82,40
138518,note_on,,,,,3,0,1,,,,,0,,,102,68
138528,note_on,,,,,10,0,1,,,,,0,,,78,0
138530,note_on,,,,,2,0,1,,,,,0,,,73,0
138536,note_on,,,,,6,0,1,,,,,0,,,82,0
138543,note_on,,,,,7,0,1,,,,,0,,,102,0
138546,note_on,,,,,3,0,1,,,,,0,,,99,65
138569,note_on,,,,,23,0,1,,,,,0,,,99,0
138576,note_on,,,,,7,0,1,,,,,0,,,97,64
138596,note_on,,,,,20,0,1,,,,,0,,,97,0
138602,note_on,,,,,6,0,1,,,,,0,,,94,61
138625,note_on,,,,,23,0,1,,,,,0,,,94,0
138631,note_on,,,,,6,0,1,,,,,0,,,90,55
138656,note_on,,,,,25,0,1,,,,,0,,,90,0
138657,note_on,,,,,1,0,1,,,,,0,,,94,56
138678,note_on,,,,,21,0,1,,,,,0,,,94,0
138685,note_on,,,,,7,0,1,,,,,0,,,97,61
138704,note_on,,,,,19,0,1,,,,,0,,,97,0
138710,note_on,,,,,6,0,1,,,,,0,,,99,67
138738,note_on,,,,,28,0,1,,,,,0,,,99,0
138739,note_on,,,,,1,0,1,,,,,0,,,97,54
138762,note_on,,,,,23,0,1,,,,,0,,,97,0
138764,note_on,,,,,2,0,1,,,,,0,,,94,56
138785,note_on,,,,,21,0,1,,,,,0,,,94,0
138787,note_on,,,,,2,0,1,,,,,0,,,90,48
138800,note_on,,,,,13,0,1,,,,,0,,,90,0
138814,note_on,,,,,14,0,1,,,,,0,,,87,52
138834,note_on,,,,,20,0,1,,,,,0,,,87,0
138838,note_on,,,,,4,0,1,,,,,0,,,85,51
138856,note_on,,,,,18,0,1,,,,,0,,,85,0
138863,note_on,,,,,7,0,1,,,,,0,,,87,43
138886,note_on,,,,,23,0,1,,,,,0,,,87,0
138893,note_on,,,,,7,0,1,,,,,0,,,90,53
138918,note_on,,,,,25,0,1,,,,,0,,,90,0
138921,note_on,,,,,3,0,1,,,,,0,,,94,56
138945,note_on,,,,,24,0,1,,,,,0,,,94,0
138949,note_on,,,,,4,0,1,,,,,0,,,90,47
138973,note_on,,,,,24,0,1,,,,,0,,,90,0
138976,note_on,,,,,3,0,1,,,,,0,,,87,54
138996,note_on,,,,,20,0,1,,,,,0,,,87,0
138998,note_on,,,,,2,0,1,,,,,0,,,85,54
139011,note_on,,,,,13,0,1,,,,,0,,,85,0
139028,note_on,,,,,17,0,1,,,,,0,,,82,42
139045,note_on,,,,,17,0,1,,,,,0,,,82,0
139052,note_on,,,,,7,0,1,,,,,0,,,78,49
139074,note_on,,,,,22,0,1,,,,,0,,,78,0
139076,note_on,,,,,2,0,1,,,,,0,,,82,54
139104,note_on,,,,,28,0,1,,,,,0,,,85,47
139108,note_on,,,,,4,0,1,,,,,0,,,82,0
139130,note_on,,,,,22,0,1,,,,,0,,,87,58
139134,note_on,,,,,4,0,1,,,,,0,,,85,0
139152,note_on,,,,,18,0,1,,,,,0,,,54,43
139155,control_change,,,,,3,0,1,,,,,0,64,88,,
139158,control_change,,,,,0,0,1,,,,,0,64,0,,
139158,note_on,,,,,3,0,1,,,,,0,,,87,0
139162,note_on,,,,,4,0,1,,,,,0,,,54,0
139170,note_on,,,,,8,0,1,,,,,0,,,61,42
139171,note_on,,,,,1,0,1,,,,,0,,,80,65
139174,note_on,,,,,3,0,1,,,,,0,,,85,62
139179,control_change,,,,,5,0,1,,,,,0,64,56,,
139182,control_change,,,,,3,0,1,,,,,0,64,127,,
139185,note_on,,,,,3,0,1,,,,,0,,,65,42
139191,note_on,,,,,6,0,1,,,,,0,,,61,0
139194,note_on,,,,,3,0,1,,,,,0,,,80,0
139198,note_on,,,,,4,0,1,,,,,0,,,71,46
139199,note_on,,,,,1,0,1,,,,,0,,,85,0
139205,note_on,,,,,6,0,1,,,,,0,,,82,55
139209,note_on,,,,,4,0,1,,,,,0,,,65,0
139218,note_on,,,,,9,0,1,,,,,0,,,71,0
139229,note_on,,,,,11,0,1,,,,,0,,,82,0
139229,note_on,,,,,0,0,1,,,,,0,,,80,61
139249,note_on,,,,,20,0,1,,,,,0,,,80,0
139254,note_on,,,,,5,0,1,,,,,0,,,75,60
139274,note_on,,,,,20,0,1,,,,,0,,,75,0
139285,note_on,,,,,11,0,1,,,,,0,,,73,25
139297,note_on,,,,,12,0,1,,,,,0,,,73,0
139308,note_on,,,,,11,0,1,,,,,0,,,75,58
139328,note_on,,,,,20,0,1,,,,,0,,,75,0
139338,note_on,,,,,10,0,1,,,,,0,,,80,56
139356,note_on,,,,,18,0,1,,,,,0,,,80,0
139363,note_on,,,,,7,0,1,,,,,0,,,82,52
139384,note_on,,,,,21,0,1,,,,,0,,,82,0
139393,note_on,,,,,9,0,1,,,,,0,,,80,56
139413,note_on,,,,,20,0,1,,,,,0,,,80,0
139416,note_on,,,,,3,0,1,,,,,0,,,75,56
139433,note_on,,,,,17,0,1,,,,,0,,,75,0
139444,note_on,,,,,11,0,1,,,,,0,,,73,54
139462,note_on,,,,,18,0,1,,,,,0,,,73,0
139471,note_on,,,,,9,0,1,,,,,0,,,70,55
139490,note_on,,,,,19,0,1,,,,,0,,,70,0
139500,note_on,,,,,10,0,1,,,,,0,,,68,49
139500,set_tempo,,,,,2445,1,0,,434783,,,,,,,
139518,note_on,,,,,18,0,1,,,,,0,,,68,0
139528,note_on,,,,,10,0,1,,,,,0,,,70,45
139551,note_on,,,,,23,0,1,,,,,0,,,70,0
139557,note_on,,,,,6,0,1,,,,,0,,,73,46
139583,note_on,,,,,26,0,1,,,,,0,,,75,54
139588,note_on,,,,,5,0,1,,,,,0,,,73,0
139600,note_on,,,,,12,0,1,,,,,0,,,75,0
139610,note_on,,,,,10,0,1,,,,,0,,,73,58
139637,note_on,,,,,27,0,1,,,,,0,,,73,0
139639,note_on,,,,,2,0,1,,,,,0,,,75,54
139671,note_on,,,,,32,0,1,,,,,0,,,75,0
139671,note_on,,,,,0,0,1,,,,,0,,,80,57
139699,note_on,,,,,28,0,1,,,,,0,,,82,55
139708,note_on,,,,,9,0,1,,,,,0,,,80,0
139715,note_on,,,,,7,0,1,,,,,0,,,82,0
139729,note_on,,,,,14,0,1,,,,,0,,,80,57
139756,note_on,,,,,27,0,1,,,,,0,,,82,64
139758,note_on,,,,,2,0,1,,,,,0,,,80,0
139788,note_on,,,,,30,0,1,,,,,0,,,85,56
139792,note_on,,,,,4,0,1,,,,,0,,,82,0
139819,note_on,,,,,27,0,1,,,,,0,,,87,58
139821,note_on,,,,,2,0,1,,,,,0,,,85,0
139837,note_on,,,,,16,0,1,,,,,0,,,87,0
139840,control_change,,,,,3,0,1,,,,,0,64,40,,
139842,set_tempo,,,,,342,1,0,,444444,,,,,,,
139842,note_on,,,,,2,0,1,,,,,0,,,54,38
139844,control_change,,,,,2,0,1,,,,,0,64,0,,
139849,note_on,,,,,5,0,1,,,,,0,,,54,0
139853,note_on,,,,,4,0,1,,,,,0,,,61,46
139858,note_on,,,,,5,0,1,,,,,0,,,85,67
139858,note_on,,,,,0,0,1,,,,,0,,,78,54
139864,control_change,,,,,6,0,1,,,,,0,64,56,,
139868,control_change,,,,,4,0,1,,,,,0,64,127,,
139873,note_on,,,,,5,0,1,,,,,0,,,66,34
139875,note_on,,,,,2,0,1,,,,,0,,,61,0
139880,note_on,,,,,5,0,1,,,,,0,,,85,0
139880,note_on,,,,,0,0,1,,,,,0,,,78,0
139887,note_on,,,,,7,0,1,,,,,0,,,70,31
139889,note_on,,,,,2,0,1,,,,,0,,,66,0
139890,note_on,,,,,1,0,1,,,,,0,,,82,54
139911,note_on,,,,,21,0,1,,,,,0,,,70,0
139913,note_on,,,,,2,0,1,,,,,0,,,78,62
139914,note_on,,,,,1,0,1,,,,,0,,,82,0
139936,note_on,,,,,22,0,1,,,,,0,,,78,0
139939,note_on,,,,,3,0,1,,,,,0,,,75,47
139957,note_on,,,,,18,0,1,,,,,0,,,75,0
139962,note_on,,,,,5,0,1,,,,,0,,,73,54
139975,note_on,,,,,13,0,1,,,,,0,,,73,0
139990,note_on,,,,,15,0,1,,,,,0,,,75,64
140011,note_on,,,,,21,0,1,,,,,0,,,75,0
140017,note_on,,,,,6,0,1,,,,,0,,,78,61
140042,note_on,,,,,25,0,1,,,,,0,,,78,0
140046,note_on,,,,,4,0,1,,,,,0,,,82,55
140071,note_on,,,,,25,0,1,,,,,0,,,82,0
140074,note_on,,,,,3,0,1,,,,,0,,,85,60
140097,note_on,,,,,23,0,1,,,,,0,,,85,0
140105,note_on,,,,,8,0,1,,,,,0,,,82,50
140123,note_on,,,,,18,0,1,,,,,0,,,82,0
140130,note_on,,,,,7,0,1,,,,,0,,,78,56
140152,note_on,,,,,22,0,1,,,,,0,,,78,0
140155,note_on,,,,,3,0,1,,,,,0,,,75,53
140174,note_on,,,,,19,0,1,,,,,0,,,75,0
140184,note_on,,,,,10,0,1,,,,,0,,,73,63
140197,note_on,,,,,13,0,1,,,,,0,,,73,0
140205,note_on,,,,,8,0,1,,,,,0,,,75,53
140235,note_on,,,,,30,0,1,,,,,0,,,78,57
140239,note_on,,,,,4,0,1,,,,,0,,,75,0
140261,note_on,,,,,22,0,1,,,,,0,,,78,0
140263,note_on,,,,,2,0,1,,,,,0,,,87,55
140269,control_change,,,,,6,0,1,,,,,0,64,88,,
140271,control_change,,,,,2,0,1,,,,,0,64,0,,
140273,note_on,,,,,2,0,1,,,,,0,,,54,43
140281,note_on,,,,,8,0,1,,,,,0,,,54,0
140281,note_on,,,,,0,0,1,,,,,0,,,87,0
140284,note_on,,,,,3,0,1,,,,,0,,,61,29
140291,note_on,,,,,7,0,1,,,,,0,,,65,42
140293,control_change,,,,,2,0,1,,,,,0,64,88,,
140296,note_on,,,,,3,0,1,,,,,0,,,61,0
140296,note_on,,,,,0,0,1,,,,,0,,,80,69
140296,control_change,,,,,0,0,1,,,,,0,64,127,,
140300,note_on,,,,,4,0,1,,,,,0,,,85,67
140303,note_on,,,,,3,0,1,,,,,0,,,65,0
140303,note_on,,,,,0,0,1,,,,,0,,,71,55
140313,note_on,,,,,10,0,1,,,,,0,,,80,0
140322,note_on,,,,,9,0,1,,,,,0,,,85,0
140328,note_on,,,,,6,0,1,,,,,0,,,71,0
140331,note_on,,,,,3,0,1,,,,,0,,,82,52
140347,note_on,,,,,16,0,1,,,,,0,,,82,0
140349,note_on,,,,,2,0,1,,,,,0,,,80,56
140378,note_on,,,,,29,0,1,,,,,0,,,80,0
140379,note_on,,,,,1,0,1,,,,,0,,,75,45
140398,note_on,,,,,19,0,1,,,,,0,,,75,0
140403,note_on,,,,,5,0,1,,,,,0,,,73,54
140417,note_on,,,,,14,0,1,,,,,0,,,73,0
140424,note_on,,,,,7,0,1,,,,,0,,,75,53
140451,note_on,,,,,27,0,1,,,,,0,,,80,66
140457,note_on,,,,,6,0,1,,,,,0,,,75,0
140477,note_on,,,,,20,0,1,,,,,0,,,87,57
140488,note_on,,,,,11,0,1,,,,,0,,,80,0
140495,control_change,,,,,0,0,1,,,,,0,64,40,,
140495,note_on,,,,,7,0,1,,,,,0,,,87,0
140498,note_on,,,,,3,0,1,,,,,0,,,54,33
140499,control_change,,,,,1,0,1,,,,,0,64,0,,
140504,note_on,,,,,5,0,1,,,,,0,,,54,0
140505,note_on,,,,,1,0,1,,,,,0,,,61,43
140514,note_on,,,,,9,0,1,,,,,0,,,85,67
140516,note_on,,,,,2,0,1,,,,,0,,,78,58
140518,control_change,,,,,2,0,1,,,,,0,64,104,,
140523,control_change,,,,,5,0,1,,,,,0,64,127,,
140531,note_on,,,,,8,0,1,,,,,0,,,61,0
140533,note_on,,,,,2,0,1,,,,,0,,,78,0
140535,note_on,,,,,2,0,1,,,,,0,,,85,0
140540,note_on,,,,,5,0,1,,,,,0,,,70,30
140544,note_on,,,,,4,0,1,,,,,0,,,82,51
140561,note_on,,,,,17,0,1,,,,,0,,,70,0
140566,note_on,,,,,5,0,1,,,,,0,,,78,51
140568,note_on,,,,,2,0,1,,,,,0,,,82,0
140587,note_on,,,,,19,0,1,,,,,0,,,75,46
140589,note_on,,,,,2,0,1,,,,,0,,,78,0
140607,note_on,,,,,18,0,1,,,,,0,,,75,0
140617,note_on,,,,,10,0,1,,,,,0,,,73,53
140629,note_on,,,,,12,0,1,,,,,0,,,73,0
140642,note_on,,,,,13,0,1,,,,,0,,,75,53
140664,note_on,,,,,22,0,1,,,,,0,,,75,0
140668,note_on,,,,,4,0,1,,,,,0,,,78,59
140693,note_on,,,,,25,0,1,,,,,0,,,78,0
140697,note_on,,,,,4,0,1,,,,,0,,,82,51
140721,note_on,,,,,24,0,1,,,,,0,,,82,0
140724,note_on,,,,,3,0,1,,,,,0,,,85,51
140745,note_on,,,,,21,0,1,,,,,0,,,85,0
140749,note_on,,,,,4,0,1,,,,,0,,,82,38
140769,note_on,,,,,20,0,1,,,,,0,,,82,0
140777,note_on,,,,,8,0,1,,,,,0,,,78,47
140801,note_on,,,,,24,0,1,,,,,0,,,78,0
140803,note_on,,,,,2,0,1,,,,,0,,,75,36
140819,note_on,,,,,16,0,1,,,,,0,,,75,0
140828,note_on,,,,,9,0,1,,,,,0,,,73,49
140841,note_on,,,,,13,0,1,,,,,0,,,73,0
140853,note_on,,,,,12,0,1,,,,,0,,,75,48
140879,note_on,,,,,26,0,1,,,,,0,,,78,53
140887,note_on,,,,,8,0,1,,,,,0,,,75,0
140903,note_on,,,,,16,0,1,,,,,0,,,78,0
140907,note_on,,,,,4,0,1,,,,,0,,,87,56
140913,control_change,,,,,6,0,1,,,,,0,64,104,,
140917,note_on,,,,,0,0,1,,,,,0,,,54,54
140917,control_change,,,,,4,0,1,,,,,0,64,0,,
140924,note_on,,,,,7,0,1,,,,,0,,,87,0
140927,note_on,,,,,3,0,1,,,,,0,,,61,44
140930,note_on,,,,,3,0,1,,,,,0,,,54,0
140937,control_change,,,,,7,0,1,,,,,0,64,56,,
140939,note_on,,,,,2,0,1,,,,,0,,,80,60
140941,control_change,,,,,2,0,1,,,,,0,64,127,,
140943,note_on,,,,,2,0,1,,,,,0,,,65,39
140945,note_on,,,,,2,0,1,,,,,0,,,85,54
140946,note_on,,,,,1,0,1,,,,,0,,,61,0
140952,note_on,,,,,6,0,1,,,,,0,,,71,43
140953,note_on,,,,,1,0,1,,,,,0,,,65,0
140958,note_on,,,,,5,0,1,,,,,0,,,80,0
140968,note_on,,,,,10,0,1,,,,,0,,,85,0
140977,note_on,,,,,0,0,1,,,,,0,,,82,43
140977,note_on,,,,,9,0,1,,,,,0,,,71,0
140990,note_on,,,,,13,0,1,,,,,0,,,80,58
140991,note_on,,,,,1,0,1,,,,,0,,,82,0
141011,note_on,,,,,20,0,1,,,,,0,,,80,0
141015,note_on,,,,,4,0,1,,,,,0,,,75,55
141034,note_on,,,,,19,0,1,,,,,0,,,75,0
141043,note_on,,,,,9,0,1,,,,,0,,,73,57
141054,note_on,,,,,11,0,1,,,,,0,,,73,0
141060,note_on,,,,,6,0,1,,,,,0,,,75,42
141083,note_on,,,,,23,0,1,,,,,0,,,80,51
141095,note_on,,,,,12,0,1,,,,,0,,,75,0
141113,note_on,,,,,18,0,1,,,,,0,,,87,44
141115,note_on,,,,,2,0,1,,,,,0,,,80,0
141126,note_on,,,,,11,0,1,,,,,0,,,87,0
141136,control_change,,,,,10,0,1,,,,,0,64,56,,
141137,note_on,,,,,1,0,1,,,,,0,,,54,43
141140,control_change,,,,,3,0,1,,,,,0,64,0,,
141144,note_on,,,,,4,0,1,,,,,0,,,54,0
141144,note_on,,,,,0,0,1,,,,,0,,,61,42
141147,note_on,,,,,3,0,1,,,,,0,,,85,58
141148,note_on,,,,,1,0,1,,,,,0,,,78,53
141160,control_change,,,,,12,0,1,,,,,0,64,104,,
141164,control_change,,,,,0,0,1,,,,,0,64,127,,
141164,note_on,,,,,4,0,1,,,,,0,,,78,0
141165,note_on,,,,,1,0,1,,,,,0,,,66,42
141166,note_on,,,,,1,0,1,,,,,0,,,61,0
141170,note_on,,,,,4,0,1,,,,,0,,,85,0
141177,note_on,,,,,7,0,1,,,,,0,,,82,46
141183,note_on,,,,,0,0,1,,,,,0,,,70,34
141183,note_on,,,,,6,0,1,,,,,0,,,66,0
141197,note_on,,,,,14,0,1,,,,,0,,,82,0
141197,note_on,,,,,0,0,1,,,,,0,,,78,51
141199,note_on,,,,,2,0,1,,,,,0,,,70,0
141218,note_on,,,,,19,0,1,,,,,0,,,78,0
141219,note_on,,,,,1,0,1,,,,,0,,,75,37
141238,note_on,,,,,19,0,1,,,,,0,,,75,0
141247,note_on,,,,,9,0,1,,,,,0,,,73,43
141255,note_on,,,,,8,0,1,,,,,0,,,73,0
141272,note_on,,,,,17,0,1,,,,,0,,,75,37
141290,note_on,,,,,18,0,1,,,,,0,,,78,46
141303,note_on,,,,,13,0,1,,,,,0,,,75,0
141316,note_on,,,,,13,0,1,,,,,0,,,78,0
141318,note_on,,,,,2,0,1,,,,,0,,,87,50
141332,control_change,,,,,14,0,1,,,,,0,64,104,,
141335,control_change,,,,,3,0,1,,,,,0,64,24,,
141335,note_on,,,,,0,0,1,,,,,0,,,54,54
141336,note_on,,,,,1,0,1,,,,,0,,,87,0
141338,control_change,,,,,2,0,1,,,,,0,64,0,,
141348,note_on,,,,,10,0,1,,,,,0,,,61,34
141351,note_on,,,,,3,0,1,,,,,0,,,54,0
141352,control_change,,,,,1,0,1,,,,,0,64,40,,
141353,note_on,,,,,0,0,1,,,,,0,,,85,55
141353,note_on,,,,,1,0,1,,,,,0,,,80,55
141356,control_change,,,,,3,0,1,,,,,0,64,104,,
141359,control_change,,,,,3,0,1,,,,,0,64,127,,
141362,note_on,,,,,3,0,1,,,,,0,,,65,46
141367,note_on,,,,,5,0,1,,,,,0,,,61,0
141372,note_on,,,,,5,0,1,,,,,0,,,80,0
141374,note_on,,,,,2,0,1,,,,,0,,,85,0
141374,note_on,,,,,0,0,1,,,,,0,,,65,0
141381,note_on,,,,,7,0,1,,,,,0,,,71,36
141386,note_on,,,,,5,0,1,,,,,0,,,82,38
141401,note_on,,,,,15,0,1,,,,,0,,,82,0
141402,note_on,,,,,1,0,1,,,,,0,,,80,54
141407,note_on,,,,,5,0,1,,,,,0,,,71,0
141421,note_on,,,,,14,0,1,,,,,0,,,75,43
141422,note_on,,,,,1,0,1,,,,,0,,,80,0
141439,note_on,,,,,17,0,1,,,,,0,,,75,0
141451,note_on,,,,,12,0,1,,,,,0,,,73,53
141464,note_on,,,,,13,0,1,,,,,0,,,73,0
141468,note_on,,,,,4,0,1,,,,,0,,,75,42
141494,note_on,,,,,26,0,1,,,,,0,,,80,50
141501,note_on,,,,,7,0,1,,,,,0,,,75,0
141522,note_on,,,,,21,0,1,,,,,0,,,87,37
141525,note_on,,,,,3,0,1,,,,,0,,,80,0
141537,note_on,,,,,12,0,1,,,,,0,,,87,0
141540,note_on,,,,,3,0,1,,,,,0,,,54,42
141547,control_change,,,,,7,0,1,,,,,0,64,56,,
141551,control_change,,,,,4,0,1,,,,,0,64,0,,
141557,note_on,,,,,6,0,1,,,,,0,,,54,0
141558,note_on,,,,,0,0,1,,,,,0,,,61,34
141558,note_on,,,,,1,0,1,,,,,0,,,85,51
141560,note_on,,,,,2,0,1,,,,,0,,,78,45
141568,control_change,,,,,8,0,1,,,,,0,64,56,,
141572,control_change,,,,,4,0,1,,,,,0,64,127,,
141574,note_on,,,,,2,0,1,,,,,0,,,78,0
141579,note_on,,,,,5,0,1,,,,,0,,,85,0
141581,note_on,,,,,2,0,1,,,,,0,,,61,0
141583,note_on,,,,,2,0,1,,,,,0,,,66,30
141586,note_on,,,,,3,0,1,,,,,0,,,82,42
141592,note_on,,,,,6,0,1,,,,,0,,,66,0
141595,note_on,,,,,3,0,1,,,,,0,,,70,30
141608,note_on,,,,,0,0,1,,,,,0,,,78,38
141608,note_on,,,,,13,0,1,,,,,0,,,82,0
141615,note_on,,,,,7,0,1,,,,,0,,,70,0
141629,note_on,,,,,14,0,1,,,,,0,,,78,0
141629,note_on,,,,,0,0,1,,,,,0,,,75,40
141648,note_on,,,,,19,0,1,,,,,0,,,75,0
141658,note_on,,,,,10,0,1,,,,,0,,,73,49
141668,note_on,,,,,10,0,1,,,,,0,,,73,0
141682,note_on,,,,,14,0,1,,,,,0,,,75,46
141708,note_on,,,,,26,0,1,,,,,0,,,78,53
141715,note_on,,,,,7,0,1,,,,,0,,,75,0
141734,note_on,,,,,0,0,1,,,,,0,,,87,58
141734,note_on,,,,,19,0,1,,,,,0,,,78,0
141750,note_on,,,,,16,0,1,,,,,0,,,54,45
141753,control_change,,,,,3,0,1,,,,,0,64,72,,
141756,note_on,,,,,3,0,1,,,,,0,,,87,0
141757,control_change,,,,,1,0,1,,,,,0,64,0,,
141764,note_on,,,,,0,0,1,,,,,0,,,61,38
141764,note_on,,,,,7,0,1,,,,,0,,,54,0
141771,note_on,,,,,7,0,1,,,,,0,,,80,55
141773,note_on,,,,,2,0,1,,,,,0,,,85,54
141774,control_change,,,,,1,0,1,,,,,0,64,56,,
141777,control_change,,,,,3,0,1,,,,,0,64,127,,
141779,note_on,,,,,2,0,1,,,,,0,,,65,38
141787,note_on,,,,,8,0,1,,,,,0,,,80,0
141789,note_on,,,,,2,0,1,,,,,0,,,61,0
141794,note_on,,,,,5,0,1,,,,,0,,,85,0
141794,note_on,,,,,0,0,1,,,,,0,,,71,43
141802,note_on,,,,,8,0,1,,,,,0,,,82,47
141804,note_on,,,,,2,0,1,,,,,0,,,65,0
141815,note_on,,,,,11,0,1,,,,,0,,,71,0
141820,note_on,,,,,5,0,1,,,,,0,,,82,0
141820,note_on,,,,,0,0,1,,,,,0,,,80,64
141841,note_on,,,,,21,0,1,,,,,0,,,80,0
141843,note_on,,,,,2,0,1,,,,,0,,,75,51
141861,note_on,,,,,18,0,1,,,,,0,,,75,0
141868,note_on,,,,,7,0,1,,,,,0,,,73,49
141883,note_on,,,,,15,0,1,,,,,0,,,73,0
141887,note_on,,,,,4,0,1,,,,,0,,,75,46
141912,note_on,,,,,25,0,1,,,,,0,,,80,53
141920,note_on,,,,,8,0,1,,,,,0,,,54,33
141920,set_tempo,,,,,2078,1,0,,428571,,,,,,,
141921,note_on,,,,,1,0,1,,,,,0,,,75,0
141934,note_on,,,,,13,0,1,,,,,0,,,54,0
141936,note_on,,,,,2,0,1,,,,,0,,,87,54
141940,note_on,,,,,4,0,1,,,,,0,,,80,0
141944,note_on,,,,,4,0,1,,,,,0,,,61,23
141953,note_on,,,,,9,0,1,,,,,0,,,87,0
141962,note_on,,,,,9,0,1,,,,,0,,,61,0
141967,note_on,,,,,5,0,1,,,,,0,,,66,27
141979,note_on,,,,,12,0,1,,,,,0,,,85,57
141980,note_on,,,,,1,0,1,,,,,0,,,78,54
141982,note_on,,,,,2,0,1,,,,,0,,,70,35
141985,note_on,,,,,3,0,1,,,,,0,,,66,0
141990,note_on,,,,,5,0,1,,,,,0,,,70,0
141997,note_on,,,,,7,0,1,,,,,0,,,85,0
142005,note_on,,,,,8,0,1,,,,,0,,,78,0
142015,note_on,,,,,10,0,1,,,,,0,,,82,51
142034,note_on,,,,,19,0,1,,,,,0,,,82,0
142044,note_on,,,,,10,0,1,,,,,0,,,78,51
142069,note_on,,,,,25,0,1,,,,,0,,,78,0
142072,note_on,,,,,3,0,1,,,,,0,,,75,54
142102,note_on,,,,,30,0,1,,,,,0,,,75,0
142104,note_on,,,,,2,0,1,,,,,0,,,73,49
142117,note_on,,,,,13,0,1,,,,,0,,,73,0
142135,note_on,,,,,18,0,1,,,,,0,,,70,42
142158,note_on,,,,,23,0,1,,,,,0,,,70,0
142166,note_on,,,,,8,0,1,,,,,0,,,66,54
142188,note_on,,,,,22,0,1,,,,,0,,,66,0
142196,note_on,,,,,8,0,1,,,,,0,,,63,53
142220,note_on,,,,,24,0,1,,,,,0,,,63,0
142227,note_on,,,,,7,0,1,,,,,0,,,61,48
142241,note_on,,,,,14,0,1,,,,,0,,,61,0
142259,note_on,,,,,18,0,1,,,,,0,,,63,54
142261,note_on,,,,,2,0,1,,,,,0,,,54,46
142265,control_change,,,,,4,0,1,,,,,0,64,88,,
142268,control_change,,,,,3,0,1,,,,,0,64,72,,
142277,note_on,,,,,9,0,1,,,,,0,,,63,0
142277,control_change,,,,,0,0,1,,,,,0,64,127,,
142284,note_on,,,,,7,0,1,,,,,0,,,54,0
142291,note_on,,,,,7,0,1,,,,,0,,,66,47
142292,note_on,,,,,1,0,1,,,,,0,,,58,32
142318,note_on,,,,,26,0,1,,,,,0,,,58,0
142320,note_on,,,,,2,0,1,,,,,0,,,61,37
142321,note_on,,,,,1,0,1,,,,,0,,,70,51
142326,note_on,,,,,5,0,1,,,,,0,,,66,0
142337,note_on,,,,,11,0,1,,,,,0,,,70,0
142345,note_on,,,,,8,0,1,,,,,0,,,61,0
142350,note_on,,,,,5,0,1,,,,,0,,,73,60
142350,note_on,,,,,0,0,1,,,,,0,,,63,49
142369,note_on,,,,,19,0,1,,,,,0,,,73,0
142378,note_on,,,,,9,0,1,,,,,0,,,63,0
142380,note_on,,,,,2,0,1,,,,,0,,,75,69
142382,note_on,,,,,2,0,1,,,,,0,,,66,46
142401,note_on,,,,,19,0,1,,,,,0,,,66,0
142402,note_on,,,,,1,0,1,,,,,0,,,75,0
142410,note_on,,,,,8,0,1,,,,,0,,,78,65
142415,note_on,,,,,5,0,1,,,,,0,,,70,30
142438,note_on,,,,,0,0,1,,,,,0,,,82,62
142438,note_on,,,,,23,0,1,,,,,0,,,70,0
142440,note_on,,,,,2,0,1,,,,,0,,,73,54
142446,note_on,,,,,6,0,1,,,,,0,,,78,0
142453,note_on,,,,,7,0,1,,,,,0,,,82,0
142462,note_on,,,,,9,0,1,,,,,0,,,73,0
142469,note_on,,,,,7,0,1,,,,,0,,,85,69
142471,note_on,,,,,2,0,1,,,,,0,,,75,58
142488,note_on,,,,,17,0,1,,,,,0,,,85,0
142490,note_on,,,,,2,0,1,,,,,0,,,75,0
142498,note_on,,,,,8,0,1,,,,,0,,,78,44
142501,note_on,,,,,3,0,1,,,,,0,,,87,73
142519,note_on,,,,,18,0,1,,,,,0,,,78,0
142520,note_on,,,,,1,0,1,,,,,0,,,87,0
142531,note_on,,,,,11,0,1,,,,,0,,,90,73
142531,note_on,,,,,0,0,1,,,,,0,,,82,51
142555,note_on,,,,,24,0,1,,,,,0,,,90,0
142561,note_on,,,,,6,0,1,,,,,0,,,94,75
142562,note_on,,,,,1,0,1,,,,,0,,,85,56
142564,note_on,,,,,2,0,1,,,,,0,,,82,0
142587,note_on,,,,,23,0,1,,,,,0,,,94,0
142592,note_on,,,,,5,0,1,,,,,0,,,85,0
142593,note_on,,,,,1,0,1,,,,,0,,,97,73
142594,note_on,,,,,1,0,1,,,,,0,,,87,56
142614,note_on,,,,,20,0,1,,,,,0,,,97,0
142623,note_on,,,,,9,0,1,,,,,0,,,94,61
142625,note_on,,,,,2,0,1,,,,,0,,,85,51
142629,note_on,,,,,4,0,1,,,,,0,,,87,0
142643,note_on,,,,,14,0,1,,,,,0,,,94,0
142650,note_on,,,,,7,0,1,,,,,0,,,85,0
142653,note_on,,,,,3,0,1,,,,,0,,,82,50
142655,note_on,,,,,2,0,1,,,,,0,,,90,51
142671,note_on,,,,,16,0,1,,,,,0,,,82,0
142680,note_on,,,,,9,0,1,,,,,0,,,90,0
142682,note_on,,,,,2,0,1,,,,,0,,,87,56
142687,note_on,,,,,5,0,1,,,,,0,,,78,45
142711,note_on,,,,,24,0,1,,,,,0,,,87,0
142713,note_on,,,,,2,0,1,,,,,0,,,85,50
142714,note_on,,,,,1,0,1,,,,,0,,,78,0
142718,note_on,,,,,4,0,1,,,,,0,,,75,57
142724,note_on,,,,,6,0,1,,,,,0,,,85,0
142741,note_on,,,,,17,0,1,,,,,0,,,75,0
142743,note_on,,,,,2,0,1,,,,,0,,,82,51
142746,note_on,,,,,3,0,1,,,,,0,,,73,47
142765,note_on,,,,,19,0,1,,,,,0,,,73,0
142767,note_on,,,,,2,0,1,,,,,0,,,82,0
142771,note_on,,,,,4,0,1,,,,,0,,,70,36
142773,note_on,,,,,2,0,1,,,,,0,,,78,56
142785,note_on,,,,,12,0,1,,,,,0,,,70,0
142800,note_on,,,,,15,0,1,,,,,0,,,75,62
142801,note_on,,,,,1,0,1,,,,,0,,,78,0
142805,note_on,,,,,4,0,1,,,,,0,,,66,37
142828,note_on,,,,,23,0,1,,,,,0,,,75,0
142830,note_on,,,,,2,0,1,,,,,0,,,66,0
142832,note_on,,,,,2,0,1,,,,,0,,,73,43
142840,note_on,,,,,8,0,1,,,,,0,,,73,0
142840,note_on,,,,,0,0,1,,,,,0,,,63,36
142863,note_on,,,,,0,0,1,,,,,0,,,70,47
142863,note_on,,,,,23,0,1,,,,,0,,,63,0
142870,note_on,,,,,7,0,1,,,,,0,,,61,37
142886,note_on,,,,,16,0,1,,,,,0,,,70,0
142888,note_on,,,,,2,0,1,,,,,0,,,61,0
142895,note_on,,,,,7,0,1,,,,,0,,,66,45
142897,note_on,,,,,2,0,1,,,,,0,,,58,31
142917,note_on,,,,,20,0,1,,,,,0,,,66,0
142923,note_on,,,,,6,0,1,,,,,0,,,58,0
142926,note_on,,,,,3,0,1,,,,,0,,,63,39
142937,note_on,,,,,11,0,1,,,,,0,,,54,28
142949,note_on,,,,,12,0,1,,,,,0,,,63,0
142959,note_on,,,,,10,0,1,,,,,0,,,54,0
142961,note_on,,,,,2,0,1,,,,,0,,,66,46
142964,note_on,,,,,3,0,1,,,,,0,,,58,34
142967,control_change,,,,,3,0,1,,,,,0,64,104,,
142970,control_change,,,,,3,0,1,,,,,0,64,56,,
142973,control_change,,,,,3,0,1,,,,,0,64,24,,
142976,control_change,,,,,3,0,1,,,,,0,64,0,,
142982,note_on,,,,,6,0,1,,,,,0,,,66,0
142989,note_on,,,,,7,0,1,,,,,0,,,58,0
142991,control_change,,,,,0,0,1,,,,,0,64,56,,
142991,note_on,,,,,2,0,1,,,,,0,,,61,37
142993,note_on,,,,,2,0,1,,,,,0,,,70,50
142994,control_change,,,,,1,0,1,,,,,0,64,127,,
143010,note_on,,,,,16,0,1,,,,,0,,,70,0
143020,note_on,,,,,10,0,1,,,,,0,,,61,0
143021,note_on,,,,,1,0,1,,,,,0,,,73,55
143026,note_on,,,,,5,0,1,,,,,0,,,63,34
143051,note_on,,,,,25,0,1,,,,,0,,,63,0
143053,note_on,,,,,2,0,1,,,,,0,,,73,0
143053,note_on,,,,,0,0,1,,,,,0,,,75,55
143054,note_on,,,,,1,0,1,,,,,0,,,66,48
143067,note_on,,,,,13,0,1,,,,,0,,,75,0
143068,note_on,,,,,1,0,1,,,,,0,,,66,0
143082,note_on,,,,,14,0,1,,,,,0,,,78,58
143088,note_on,,,,,6,0,1,,,,,0,,,70,36
143100,note_on,,,,,12,0,1,,,,,0,,,78,0
143103,note_on,,,,,3,0,1,,,,,0,,,70,0
143112,note_on,,,,,9,0,1,,,,,0,,,82,65
143113,note_on,,,,,1,0,1,,,,,0,,,73,49
143134,note_on,,,,,0,0,1,,,,,0,,,82,0
143134,note_on,,,,,21,0,1,,,,,0,,,73,0
143141,note_on,,,,,7,0,1,,,,,0,,,85,63
143144,note_on,,,,,3,0,1,,,,,0,,,75,50
143167,note_on,,,,,23,0,1,,,,,0,,,75,0
143172,note_on,,,,,5,0,1,,,,,0,,,87,68
143173,note_on,,,,,1,0,1,,,,,0,,,78,47
143180,note_on,,,,,7,0,1,,,,,0,,,85,0
143187,note_on,,,,,7,0,1,,,,,0,,,87,0
143191,note_on,,,,,4,0,1,,,,,0,,,78,0
143201,note_on,,,,,10,0,1,,,,,0,,,90,69
143204,note_on,,,,,3,0,1,,,,,0,,,82,47
143221,note_on,,,,,17,0,1,,,,,0,,,90,0
143226,note_on,,,,,5,0,1,,,,,0,,,82,0
143232,note_on,,,,,6,0,1,,,,,0,,,85,47
143233,note_on,,,,,1,0,1,,,,,0,,,94,61
143251,note_on,,,,,18,0,1,,,,,0,,,94,0
143254,note_on,,,,,3,0,1,,,,,0,,,85,0
143262,note_on,,,,,8,0,1,,,,,0,,,97,63
143263,note_on,,,,,1,0,1,,,,,0,,,87,50
143282,note_on,,,,,19,0,1,,,,,0,,,97,0
143291,note_on,,,,,9,0,1,,,,,0,,,99,68
143292,note_on,,,,,1,0,1,,,,,0,,,87,0
143297,note_on,,,,,5,0,1,,,,,0,,,90,49
143319,note_on,,,,,22,0,1,,,,,0,,,90,0
143326,note_on,,,,,7,0,1,,,,,0,,,99,0
143332,note_on,,,,,6,0,1,,,,,0,,,94,54
143334,note_on,,,,,2,0,1,,,,,0,,,102,74
143363,note_on,,,,,29,0,1,,,,,0,,,94,0
143370,note_on,,,,,7,0,1,,,,,0,,,102,0
143372,note_on,,,,,2,0,1,,,,,0,,,99,70
143373,note_on,,,,,1,0,1,,,,,0,,,90,45
143394,note_on,,,,,21,0,1,,,,,0,,,99,0
143397,note_on,,,,,3,0,1,,,,,0,,,90,0
143403,note_on,,,,,6,0,1,,,,,0,,,97,56
143404,note_on,,,,,1,0,1,,,,,0,,,87,54
143425,note_on,,,,,21,0,1,,,,,0,,,97,0
143428,note_on,,,,,3,0,1,,,,,0,,,87,0
143431,note_on,,,,,3,0,1,,,,,0,,,94,56
143433,note_on,,,,,2,0,1,,,,,0,,,85,40
143454,note_on,,,,,21,0,1,,,,,0,,,94,0
143456,note_on,,,,,2,0,1,,,,,0,,,85,0
143463,note_on,,,,,7,0,1,,,,,0,,,90,45
143465,note_on,,,,,2,0,1,,,,,0,,,82,34
143475,note_on,,,,,10,0,1,,,,,0,,,82,0
143476,note_on,,,,,1,0,1,,,,,0,,,90,0
143496,note_on,,,,,20,0,1,,,,,0,,,78,46
143496,note_on,,,,,0,0,1,,,,,0,,,87,53
143516,note_on,,,,,20,0,1,,,,,0,,,87,0
143522,note_on,,,,,6,0,1,,,,,0,,,78,0
143526,note_on,,,,,4,0,1,,,,,0,,,85,55
143527,note_on,,,,,1,0,1,,,,,0,,,75,50
143546,note_on,,,,,19,0,1,,,,,0,,,85,0
143553,note_on,,,,,7,0,1,,,,,0,,,75,0
143554,note_on,,,,,1,0,1,,,,,0,,,82,55
143559,note_on,,,,,5,0,1,,,,,0,,,73,39
143580,note_on,,,,,21,0,1,,,,,0,,,73,0
143582,note_on,,,,,2,0,1,,,,,0,,,82,0
143587,note_on,,,,,5,0,1,,,,,0,,,78,49
143591,note_on,,,,,4,0,1,,,,,0,,,70,30
143598,note_on,,,,,7,0,1,,,,,0,,,78,0
143599,note_on,,,,,1,0,1,,,,,0,,,70,0
143615,note_on,,,,,16,0,1,,,,,0,,,66,34
143618,note_on,,,,,3,0,1,,,,,0,,,75,54
143641,note_on,,,,,23,0,1,,,,,0,,,75,0
143643,note_on,,,,,2,0,1,,,,,0,,,66,0
143649,note_on,,,,,6,0,1,,,,,0,,,63,42
143652,note_on,,,,,3,0,1,,,,,0,,,73,43
143670,note_on,,,,,18,0,1,,,,,0,,,73,0
143677,note_on,,,,,7,0,1,,,,,0,,,63,0
143678,note_on,,,,,1,0,1,,,,,0,,,70,50
143682,note_on,,,,,4,0,1,,,,,0,,,61,40
143704,note_on,,,,,22,0,1,,,,,0,,,70,0
143708,note_on,,,,,4,0,1,,,,,0,,,61,0
143712,note_on,,,,,4,0,1,,,,,0,,,66,46
143719,note_on,,,,,7,0,1,,,,,0,,,58,26
143727,note_on,,,,,8,0,1,,,,,0,,,66,0
143733,note_on,,,,,6,0,1,,,,,0,,,58,0
143745,note_on,,,,,12,0,1,,,,,0,,,63,43
143749,note_on,,,,,4,0,1,,,,,0,,,54,30
143774,note_on,,,,,25,0,1,,,,,0,,,63,0
143777,note_on,,,,,3,0,1,,,,,0,,,54,0
143781,note_on,,,,,4,0,1,,,,,0,,,61,37
143785,note_on,,,,,4,0,1,,,,,0,,,51,36
143802,note_on,,,,,17,0,1,,,,,0,,,61,0
143805,note_on,,,,,3,0,1,,,,,0,,,51,0
143812,note_on,,,,,7,0,1,,,,,0,,,58,34
143817,note_on,,,,,5,0,1,,,,,0,,,49,38
143844,note_on,,,,,27,0,1,,,,,0,,,58,0
143846,note_on,,,,,2,0,1,,,,,0,,,49,0
143852,note_on,,,,,6,0,1,,,,,0,,,46,39
143853,note_on,,,,,1,0,1,,,,,0,,,54,42
143868,note_on,,,,,15,0,1,,,,,0,,,54,0
143869,note_on,,,,,1,0,1,,,,,0,,,46,0
143889,note_on,,,,,20,0,1,,,,,0,,,42,34
143890,note_on,,,,,1,0,1,,,,,0,,,51,49
143920,note_on,,,,,30,0,1,,,,,0,,,51,0
143924,note_on,,,,,4,0,1,,,,,0,,,42,0
143930,note_on,,,,,6,0,1,,,,,0,,,49,43
143934,note_on,,,,,4,0,1,,,,,0,,,39,31
143952,note_on,,,,,18,0,1,,,,,0,,,49,0
143955,note_on,,,,,3,0,1,,,,,0,,,39,0
143966,note_on,,,,,11,0,1,,,,,0,,,46,43
143974,note_on,,,,,8,0,1,,,,,0,,,37,34
144010,note_on,,,,,36,0,1,,,,,0,,,37,0
144012,note_on,,,,,2,0,1,,,,,0,,,46,0
144021,note_on,,,,,9,0,1,,,,,0,,,42,45
144028,note_on,,,,,7,0,1,,,,,0,,,34,32
144035,control_change,,,,,7,0,1,,,,,0,64,104,,
144038,control_change,,,,,3,0,1,,,,,0,64,40,,
144041,control_change,,,,,3,0,1,,,,,0,64,0,,
144064,note_on,,,,,23,0,1,,,,,0,,,42,0
144065,control_change,,,,,1,0,1,,,,,0,64,40,,
144068,control_change,,,,,3,0,1,,,,,0,64,104,,
144069,note_on,,,,,1,0,1,,,,,0,,,46,46
144071,control_change,,,,,2,0,1,,,,,0,64,127,,
144076,note_on,,,,,0,0,1,,,,,0,,,37,38
144076,note_on,,,,,5,0,1,,,,,0,,,34,0
144091,note_on,,,,,15,0,1,,,,,0,,,46,0
144107,note_on,,,,,16,0,1,,,,,0,,,37,0
144108,note_on,,,,,1,0,1,,,,,0,,,49,35
144111,note_on,,,,,3,0,1,,,,,0,,,39,32
144135,note_on,,,,,24,0,1,,,,,0,,,39,0
144139,note_on,,,,,4,0,1,,,,,0,,,42,35
144143,note_on,,,,,4,0,1,,,,,0,,,51,55
144145,note_on,,,,,2,0,1,,,,,0,,,49,0
144158,note_on,,,,,13,0,1,,,,,0,,,51,0
144158,note_on,,,,,0,0,1,,,,,0,,,42,0
144174,note_on,,,,,16,0,1,,,,,0,,,54,50
144175,note_on,,,,,1,0,1,,,,,0,,,46,34
144191,note_on,,,,,16,0,1,,,,,0,,,54,0
144199,note_on,,,,,8,0,1,,,,,0,,,46,0
144203,note_on,,,,,4,0,1,,,,,0,,,49,44
144207,note_on,,,,,4,0,1,,,,,0,,,58,43
144225,note_on,,,,,18,0,1,,,,,0,,,58,0
144230,note_on,,,,,5,0,1,,,,,0,,,49,0
144237,note_on,,,,,7,0,1,,,,,0,,,51,46
144240,note_on,,,,,3,0,1,,,,,0,,,61,39
144266,note_on,,,,,26,0,1,,,,,0,,,61,0
144268,note_on,,,,,2,0,1,,,,,0,,,51,0
144274,note_on,,,,,0,0,1,,,,,0,,,63,39
144274,note_on,,,,,6,0,1,,,,,0,,,54,47
144288,note_on,,,,,14,0,1,,,,,0,,,63,0
144296,note_on,,,,,8,0,1,,,,,0,,,54,0
144309,note_on,,,,,13,0,1,,,,,0,,,66,40
144310,note_on,,,,,1,0,1,,,,,0,,,58,33
144327,note_on,,,,,17,0,1,,,,,0,,,66,0
144334,note_on,,,,,7,0,1,,,,,0,,,58,0
144341,note_on,,,,,7,0,1,,,,,0,,,61,42
144344,note_on,,,,,3,0,1,,,,,0,,,70,46
144360,note_on,,,,,16,0,1,,,,,0,,,70,0
144375,note_on,,,,,15,0,1,,,,,0,,,61,0
144380,note_on,,,,,5,0,1,,,,,0,,,73,46
144384,note_on,,,,,4,0,1,,,,,0,,,63,25
144409,note_on,,,,,25,0,1,,,,,0,,,73,0
144412,note_on,,,,,3,0,1,,,,,0,,,63,0
144417,note_on,,,,,5,0,1,,,,,0,,,75,46
144423,note_on,,,,,6,0,1,,,,,0,,,66,19
144429,note_on,,,,,6,0,1,,,,,0,,,75,0
144442,note_on,,,,,13,0,1,,,,,0,,,66,0
144455,note_on,,,,,13,0,1,,,,,0,,,78,54
144456,note_on,,,,,1,0,1,,,,,0,,,70,34
144473,note_on,,,,,17,0,1,,,,,0,,,78,0
144485,note_on,,,,,12,0,1,,,,,0,,,70,0
144492,note_on,,,,,7,0,1,,,,,0,,,73,33
144493,note_on,,,,,1,0,1,,,,,0,,,82,47
144513,note_on,,,,,20,0,1,,,,,0,,,82,0
144523,note_on,,,,,10,0,1,,,,,0,,,73,0
144531,note_on,,,,,8,0,1,,,,,0,,,85,46
144539,note_on,,,,,8,0,1,,,,,0,,,75,32
144570,note_on,,,,,0,0,1,,,,,0,,,85,0
144570,note_on,,,,,31,0,1,,,,,0,,,75,0
144576,note_on,,,,,6,0,1,,,,,0,,,87,45
144579,note_on,,,,,3,0,1,,,,,0,,,78,35
144595,note_on,,,,,16,0,1,,,,,0,,,87,0
144623,note_on,,,,,28,0,1,,,,,0,,,90,48
144627,note_on,,,,,4,0,1,,,,,0,,,78,0
144630,note_on,,,,,3,0,1,,,,,0,,,82,39
144657,note_on,,,,,27,0,1,,,,,0,,,90,0
144672,note_on,,,,,15,0,1,,,,,0,,,82,0
144675,note_on,,,,,0,0,1,,,,,0,,,85,36
144675,note_on,,,,,3,0,1,,,,,0,,,94,47
144701,note_on,,,,,26,0,1,,,,,0,,,94,0
144728,note_on,,,,,27,0,1,,,,,0,,,97,44
144729,note_on,,,,,1,0,1,,,,,0,,,85,0
144733,note_on,,,,,4,0,1,,,,,0,,,87,40
144760,note_on,,,,,27,0,1,,,,,0,,,97,0
144779,note_on,,,,,19,0,1,,,,,0,,,87,0
144783,note_on,,,,,4,0,1,,,,,0,,,99,49
144788,note_on,,,,,5,0,1,,,,,0,,,90,37
144833,note_on,,,,,45,0,1,,,,,0,,,90,0
144858,note_on,,,,,25,0,1,,,,,0,,,99,0
144882,note_on,,,,,24,0,1,,,,,0,,,102,38
144883,note_on,,,,,1,0,1,,,,,0,,,94,27
144901,note_on,,,,,18,0,1,,,,,0,,,94,0
144906,note_on,,,,,5,0,1,,,,,0,,,102,0
145127,control_change,,,,,221,0,1,,,,,0,64,104,,
145130,control_change,,,,,3,0,1,,,,,0,64,88,,
145133,control_change,,,,,3,0,1,,,,,0,64,72,,
145136,control_change,,,,,3,0,1,,,,,0,64,56,,
145145,control_change,,,,,9,0,1,,,,,0,64,40,,
145157,control_change,,,,,12,0,1,,,,,0,64,24,,
145160,control_change,,,,,3,0,1,,,,,0,64,0,,
145441,control_change,,,,,281,0,1,,,,,0,64,24,,
145445,control_change,,,,,4,0,1,,,,,0,64,72,,
145449,note_on,,,,,4,0,1,,,,,0,,,42,38
145449,end_of_track,,,,,0,1,0,,,,,,,,,
145449,set_tempo,,,,,3529,1,0,,600000,,,,,,,
145449,control_change,,,,,0,0,1,,,,,0,64,127,,
145459,note_on,,,,,10,0,1,,,,,0,,,49,34
145469,note_on,,,,,10,0,1,,,,,0,,,58,31
145471,note_on,,,,,2,0,1,,,,,0,,,54,37
145479,note_on,,,,,8,0,1,,,,,0,,,42,0
145484,note_on,,,,,0,0,1,,,,,0,,,54,0
145484,note_on,,,,,5,0,1,,,,,0,,,49,0
145484,note_on,,,,,0,0,1,,,,,0,,,61,47
145491,note_on,,,,,7,0,1,,,,,0,,,66,59
145493,note_on,,,,,2,0,1,,,,,0,,,58,0
145500,note_on,,,,,7,0,1,,,,,0,,,61,0
145502,note_on,,,,,2,0,1,,,,,0,,,70,74
145510,note_on,,,,,8,0,1,,,,,0,,,66,0
145518,note_on,,,,,8,0,1,,,,,0,,,70,0
145583,note_on,,,,,65,0,1,,,,,0,,,42,44
145590,note_on,,,,,7,0,1,,,,,0,,,49,55
145600,note_on,,,,,10,0,1,,,,,0,,,58,33
145602,note_on,,,,,2,0,1,,,,,0,,,54,40
145611,note_on,,,,,9,0,1,,,,,0,,,42,0
145612,note_on,,,,,1,0,1,,,,,0,,,61,51
145614,note_on,,,,,2,0,1,,,,,0,,,49,0
145616,note_on,,,,,2,0,1,,,,,0,,,54,0
145618,note_on,,,,,2,0,1,,,,,0,,,58,0
145619,note_on,,,,,1,0,1,,,,,0,,,66,63
145633,note_on,,,,,14,0,1,,,,,0,,,61,0
145636,note_on,,,,,3,0,1,,,,,0,,,71,82
145641,note_on,,,,,5,0,1,,,,,0,,,66,0
145650,note_on,,,,,9,0,1,,,,,0,,,71,0
145705,note_on,,,,,55,0,1,,,,,0,,,42,40
145720,note_on,,,,,15,0,1,,,,,0,,,42,0
145722,note_on,,,,,2,0,1,,,,,0,,,49,49
145743,note_on,,,,,21,0,1,,,,,0,,,54,53
145746,note_on,,,,,3,0,1,,,,,0,,,49,0
145749,note_on,,,,,3,0,1,,,,,0,,,61,48
145752,note_on,,,,,3,0,1,,,,,0,,,58,47
145753,note_on,,,,,1,0,1,,,,,0,,,54,0
145762,note_on,,,,,9,0,1,,,,,0,,,58,0
145766,note_on,,,,,4,0,1,,,,,0,,,66,64
145771,note_on,,,,,5,0,1,,,,,0,,,61,0
145786,note_on,,,,,15,0,1,,,,,0,,,73,85
145788,note_on,,,,,2,0,1,,,,,0,,,66,0
145801,note_on,,,,,13,0,1,,,,,0,,,73,0
145893,note_on,,,,,92,0,1,,,,,0,,,42,53
145909,control_change,,,,,16,0,1,,,,,0,64,24,,
145913,control_change,,,,,4,0,1,,,,,0,64,0,,
145924,note_on,,,,,11,0,1,,,,,0,,,42,0
145926,note_on,,,,,2,0,1,,,,,0,,,49,53
145933,control_change,,,,,7,0,1,,,,,0,64,56,,
145937,control_change,,,,,4,0,1,,,,,0,64,127,,
145957,note_on,,,,,20,0,1,,,,,0,,,49,0
145958,note_on,,,,,1,0,1,,,,,0,,,53,60
145993,note_on,,,,,35,0,1,,,,,0,,,59,52
145997,note_on,,,,,4,0,1,,,,,0,,,53,0
146005,note_on,,,,,8,0,1,,,,,0,,,59,0
146032,note_on,,,,,27,0,1,,,,,0,,,61,55
146052,note_on,,,,,20,0,1,,,,,0,,,61,0
146065,note_on,,,,,13,0,1,,,,,0,,,68,64
146137,note_on,,,,,72,0,1,,,,,0,,,68,0
146150,note_on,,,,,13,0,1,,,,,0,,,75,76
146511,note_on,,,,,361,0,1,,,,,0,,,73,43
146521,note_on,,,,,10,0,1,,,,,0,,,75,0
146589,note_on,,,,,68,0,1,,,,,0,,,73,0
146832,control_change,,,,,243,0,1,,,,,0,64,72,,
146836,control_change,,,,,4,0,1,,,,,0,64,0,,
146841,note_on,,,,,5,0,1,,,,,0,,,42,40
146858,note_on,,,,,17,0,1,,,,,0,,,42,0
146860,note_on,,,,,2,0,1,,,,,0,,,49,45
146864,control_change,,,,,4,0,1,,,,,0,64,88,,
146864,note_on,,,,,0,0,1,,,,,0,,,59,44
146868,control_change,,,,,4,0,1,,,,,0,64,127,,
146874,note_on,,,,,6,0,1,,,,,0,,,61,44
146876,note_on,,,,,2,0,1,,,,,0,,,49,0
146882,note_on,,,,,0,0,1,,,,,0,,,65,56
146882,note_on,,,,,6,0,1,,,,,0,,,53,24
146883,note_on,,,,,1,0,1,,,,,0,,,56,43
146886,note_on,,,,,3,0,1,,,,,0,,,59,0
146889,note_on,,,,,3,0,1,,,,,0,,,53,0
146891,note_on,,,,,2,0,1,,,,,0,,,56,0
146893,note_on,,,,,2,0,1,,,,,0,,,61,0
146901,note_on,,,,,8,0,1,,,,,0,,,71,73
146903,note_on,,,,,2,0,1,,,,,0,,,65,0
146914,note_on,,,,,11,0,1,,,,,0,,,71,0
146988,note_on,,,,,74,0,1,,,,,0,,,59,56
146996,note_on,,,,,8,0,1,,,,,0,,,53,48
147003,note_on,,,,,7,0,1,,,,,0,,,61,34
147007,note_on,,,,,4,0,1,,,,,0,,,65,66
147009,note_on,,,,,2,0,1,,,,,0,,,59,0
147010,note_on,,,,,1,0,1,,,,,0,,,56,33
147013,note_on,,,,,3,0,1,,,,,0,,,53,0
147017,note_on,,,,,4,0,1,,,,,0,,,61,0
147018,note_on,,,,,1,0,1,,,,,0,,,56,0
147027,note_on,,,,,9,0,1,,,,,0,,,65,0
147034,note_on,,,,,7,0,1,,,,,0,,,73,85
147046,note_on,,,,,12,0,1,,,,,0,,,73,0
147098,note_on,,,,,52,0,1,,,,,0,,,42,37
147104,note_on,,,,,6,0,1,,,,,0,,,42,0
147111,note_on,,,,,7,0,1,,,,,0,,,49,46
147119,note_on,,,,,8,0,1,,,,,0,,,53,40
147127,note_on,,,,,8,0,1,,,,,0,,,49,0
147136,note_on,,,,,9,0,1,,,,,0,,,59,49
147141,note_on,,,,,5,0,1,,,,,0,,,53,0
147145,note_on,,,,,4,0,1,,,,,0,,,59,0
147149,note_on,,,,,4,0,1,,,,,0,,,61,43
147164,note_on,,,,,15,0,1,,,,,0,,,68,67
147170,note_on,,,,,6,0,1,,,,,0,,,61,0
147187,note_on,,,,,17,0,1,,,,,0,,,75,86
147188,note_on,,,,,1,0,1,,,,,0,,,68,0
147202,note_on,,,,,14,0,1,,,,,0,,,75,0
147277,note_on,,,,,75,0,1,,,,,0,,,42,57
147288,control_change,,,,,11,0,1,,,,,0,64,56,,
147292,control_change,,,,,4,0,1,,,,,0,64,0,,
147316,control_change,,,,,24,0,1,,,,,0,64,40,,
147320,control_change,,,,,4,0,1,,,,,0,64,127,,
147323,note_on,,,,,3,0,1,,,,,0,,,42,0
147327,note_on,,,,,4,0,1,,,,,0,,,49,58
147361,note_on,,,,,34,0,1,,,,,0,,,54,60
147362,note_on,,,,,1,0,1,,,,,0,,,49,0
147392,note_on,,,,,30,0,1,,,,,0,,,58,50
147395,note_on,,,,,3,0,1,,,,,0,,,54,0
147400,note_on,,,,,5,0,1,,,,,0,,,58,0
147424,note_on,,,,,24,0,1,,,,,0,,,61,58
147453,note_on,,,,,29,0,1,,,,,0,,,66,58
147454,note_on,,,,,1,0,1,,,,,0,,,61,0
147483,note_on,,,,,29,0,1,,,,,0,,,70,63
147484,note_on,,,,,1,0,1,,,,,0,,,66,0
147501,note_on,,,,,17,0,1,,,,,0,,,70,0
147512,note_on,,,,,11,0,1,,,,,0,,,70,71
147557,note_on,,,,,45,0,1,,,,,0,,,70,0
147598,note_on,,,,,41,0,1,,,,,0,,,77,82
147941,note_on,,,,,343,0,1,,,,,0,,,75,55
147949,note_on,,,,,8,0,1,,,,,0,,,77,0
148042,note_on,,,,,93,0,1,,,,,0,,,75,0
148284,control_change,,,,,242,0,1,,,,,0,64,56,,
148288,control_change,,,,,4,0,1,,,,,0,64,0,,
148310,note_on,,,,,22,0,1,,,,,0,,,41,45
148315,control_change,,,,,5,0,1,,,,,0,64,40,,
148320,control_change,,,,,5,0,1,,,,,0,64,104,,
148324,control_change,,,,,4,0,1,,,,,0,64,127,,
148326,note_on,,,,,2,0,1,,,,,0,,,49,57
148328,note_on,,,,,2,0,1,,,,,0,,,41,0
148349,note_on,,,,,21,0,1,,,,,0,,,49,0
148354,note_on,,,,,5,0,1,,,,,0,,,53,53
148378,note_on,,,,,24,0,1,,,,,0,,,53,0
148378,note_on,,,,,0,0,1,,,,,0,,,58,57
148394,note_on,,,,,16,0,1,,,,,0,,,58,0
148396,note_on,,,,,2,0,1,,,,,0,,,61,50
148412,note_on,,,,,16,0,1,,,,,0,,,61,0
148414,note_on,,,,,2,0,1,,,,,0,,,65,35
148424,note_on,,,,,10,0,1,,,,,0,,,70,61
148428,note_on,,,,,4,0,1,,,,,0,,,65,0
148450,note_on,,,,,22,0,1,,,,,0,,,73,77
148457,note_on,,,,,7,0,1,,,,,0,,,70,0
148554,note_on,,,,,97,0,1,,,,,0,,,73,0
148625,note_on,,,,,71,0,1,,,,,0,,,75,82
148763,note_on,,,,,138,0,1,,,,,0,,,77,86
148767,control_change,,,,,4,0,1,,,,,0,64,56,,
148772,control_change,,,,,5,0,1,,,,,0,64,0,,
148774,note_on,,,,,2,0,1,,,,,0,,,75,0
148780,note_on,,,,,6,0,1,,,,,0,,,41,45
148787,note_on,,,,,7,0,1,,,,,0,,,77,0
148792,control_change,,,,,5,0,1,,,,,0,64,40,,
148794,note_on,,,,,2,0,1,,,,,0,,,41,0
148796,control_change,,,,,0,0,1,,,,,0,64,127,,
148796,note_on,,,,,2,0,1,,,,,0,,,51,58
148811,note_on,,,,,15,0,1,,,,,0,,,51,0
148819,note_on,,,,,8,0,1,,,,,0,,,57,46
148839,note_on,,,,,20,0,1,,,,,0,,,60,67
148840,note_on,,,,,1,0,1,,,,,0,,,57,0
148850,note_on,,,,,10,0,1,,,,,0,,,60,0
148858,note_on,,,,,8,0,1,,,,,0,,,63,50
148876,note_on,,,,,18,0,1,,,,,0,,,63,0
148876,note_on,,,,,0,0,1,,,,,0,,,69,61
148888,note_on,,,,,12,0,1,,,,,0,,,72,69
148891,note_on,,,,,3,0,1,,,,,0,,,69,0
148916,note_on,,,,,25,0,1,,,,,0,,,72,0
148935,note_on,,,,,19,0,1,,,,,0,,,78,78
149217,note_on,,,,,282,0,1,,,,,0,,,78,0
149259,note_on,,,,,42,0,1,,,,,0,,,77,56
149284,note_on,,,,,25,0,1,,,,,0,,,77,0
149368,control_change,,,,,84,0,1,,,,,0,64,104,,
149372,control_change,,,,,4,0,1,,,,,0,64,24,,
149374,note_on,,,,,2,0,1,,,,,0,,,41,45
149377,control_change,,,,,3,0,1,,,,,0,64,0,,
149401,control_change,,,,,24,0,1,,,,,0,64,56,,
149405,control_change,,,,,4,0,1,,,,,0,64,127,,
149408,note_on,,,,,3,0,1,,,,,0,,,41,0
149409,note_on,,,,,1,0,1,,,,,0,,,50,48
149424,note_on,,,,,15,0,1,,,,,0,,,50,0
149431,note_on,,,,,7,0,1,,,,,0,,,53,52
149446,note_on,,,,,15,0,1,,,,,0,,,53,0
149457,note_on,,,,,11,0,1,,,,,0,,,58,50
149474,note_on,,,,,17,0,1,,,,,0,,,58,0
149482,note_on,,,,,8,0,1,,,,,0,,,62,54
149496,note_on,,,,,14,0,1,,,,,0,,,65,56
149504,note_on,,,,,8,0,1,,,,,0,,,62,0
149511,note_on,,,,,7,0,1,,,,,0,,,70,60
149518,note_on,,,,,7,0,1,,,,,0,,,65,0
149540,note_on,,,,,22,0,1,,,,,0,,,70,0
149540,note_on,,,,,0,0,1,,,,,0,,,74,76
149629,note_on,,,,,89,0,1,,,,,0,,,74,0
149717,note_on,,,,,88,0,1,,,,,0,,,75,78
149844,note_on,,,,,127,0,1,,,,,0,,,75,0
149907,note_on,,,,,63,0,1,,,,,0,,,77,71
149937,control_change,,,,,30,0,1,,,,,0,64,24,,
149941,control_change,,,,,4,0,1,,,,,0,64,0,,
149956,note_on,,,,,15,0,1,,,,,0,,,41,41
149959,note_on,,,,,3,0,1,,,,,0,,,77,0
149965,control_change,,,,,6,0,1,,,,,0,64,104,,
149969,control_change,,,,,4,0,1,,,,,0,64,127,,
149980,note_on,,,,,11,0,1,,,,,0,,,41,0
149990,note_on,,,,,10,0,1,,,,,0,,,51,53
150017,note_on,,,,,27,0,1,,,,,0,,,51,0
150027,note_on,,,,,10,0,1,,,,,0,,,57,39
150054,note_on,,,,,27,0,1,,,,,0,,,57,0
150057,note_on,,,,,3,0,1,,,,,0,,,60,46
150073,note_on,,,,,16,0,1,,,,,0,,,60,0
150095,note_on,,,,,22,0,1,,,,,0,,,63,37
150118,note_on,,,,,23,0,1,,,,,0,,,63,0
150128,note_on,,,,,10,0,1,,,,,0,,,69,48
150146,note_on,,,,,18,0,1,,,,,0,,,69,0
150155,note_on,,,,,9,0,1,,,,,0,,,72,66
150173,note_on,,,,,18,0,1,,,,,0,,,72,0
150230,note_on,,,,,57,0,1,,,,,0,,,79,74
150557,note_on,,,,,327,0,1,,,,,0,,,79,0
150640,note_on,,,,,83,0,1,,,,,0,,,77,64
150668,note_on,,,,,28,0,1,,,,,0,,,77,0
150747,note_on,,,,,79,0,1,,,,,0,,,77,61
150784,control_change,,,,,37,0,1,,,,,0,64,104,,
150788,control_change,,,,,4,0,1,,,,,0,64,24,,
150792,control_change,,,,,4,0,1,,,,,0,64,0,,
150813,note_on,,,,,21,0,1,,,,,0,,,46,35
150823,control_change,,,,,10,0,1,,,,,0,64,56,,
150828,control_change,,,,,5,0,1,,,,,0,64,127,,
150850,note_on,,,,,22,0,1,,,,,0,,,46,0
150862,note_on,,,,,12,0,1,,,,,0,,,53,36
150897,note_on,,,,,35,0,1,,,,,0,,,53,0
150908,note_on,,,,,11,0,1,,,,,0,,,58,40
150949,note_on,,,,,41,0,1,,,,,0,,,58,0
150955,note_on,,,,,6,0,1,,,,,0,,,62,45
150977,note_on,,,,,22,0,1,,,,,0,,,62,0
151008,note_on,,,,,31,0,1,,,,,0,,,65,44
151054,note_on,,,,,46,0,1,,,,,0,,,70,40
151102,note_on,,,,,48,0,1,,,,,0,,,74,50
151103,note_on,,,,,1,0,1,,,,,0,,,65,0
151116,note_on,,,,,13,0,1,,,,,0,,,70,0
151120,note_on,,,,,4,0,1,,,,,0,,,74,0
151184,note_on,,,,,64,0,1,,,,,0,,,77,0
151188,note_on,,,,,4,0,1,,,,,0,,,82,70
151590,note_on,,,,,402,0,1,,,,,0,,,80,65
151601,note_on,,,,,11,0,1,,,,,0,,,82,0
151651,control_change,,,,,50,0,1,,,,,0,64,88,,
151655,control_change,,,,,4,0,1,,,,,0,64,0,,
151673,note_on,,,,,18,0,1,,,,,0,,,37,34
151682,control_change,,,,,9,0,1,,,,,0,64,56,,
151687,control_change,,,,,5,0,1,,,,,0,64,127,,
151712,note_on,,,,,25,0,1,,,,,0,,,37,0
151725,note_on,,,,,13,0,1,,,,,0,,,44,37
151760,note_on,,,,,35,0,1,,,,,0,,,44,0
151772,note_on,,,,,12,0,1,,,,,0,,,52,43
151797,note_on,,,,,25,0,1,,,,,0,,,52,0
151818,note_on,,,,,21,0,1,,,,,0,,,56,37
151860,note_on,,,,,42,0,1,,,,,0,,,56,0
151862,note_on,,,,,2,0,1,,,,,0,,,61,36
151896,note_on,,,,,34,0,1,,,,,0,,,61,0
151907,note_on,,,,,11,0,1,,,,,0,,,64,40
151942,note_on,,,,,35,0,1,,,,,0,,,64,0
151947,note_on,,,,,5,0,1,,,,,0,,,68,43
151966,note_on,,,,,19,0,1,,,,,0,,,68,0
152006,note_on,,,,,40,0,1,,,,,0,,,73,54
152013,note_on,,,,,7,0,1,,,,,0,,,80,0
152108,note_on,,,,,95,0,1,,,,,0,,,73,0
152350,note_on,,,,,242,0,1,,,,,0,,,73,65
152376,note_on,,,,,26,0,1,,,,,0,,,73,0
152428,note_on,,,,,52,0,1,,,,,0,,,73,72
152461,control_change,,,,,33,0,1,,,,,0,64,72,,
152465,control_change,,,,,4,0,1,,,,,0,64,0,,
152482,note_on,,,,,17,0,1,,,,,0,,,45,51
152498,control_change,,,,,16,0,1,,,,,0,64,88,,
152502,control_change,,,,,4,0,1,,,,,0,64,127,,
152530,note_on,,,,,28,0,1,,,,,0,,,45,0
152531,note_on,,,,,1,0,1,,,,,0,,,52,49
152561,note_on,,,,,30,0,1,,,,,0,,,52,0
152574,note_on,,,,,13,0,1,,,,,0,,,57,42
152604,note_on,,,,,30,0,1,,,,,0,,,57,0
152609,note_on,,,,,5,0,1,,,,,0,,,61,46
152640,note_on,,,,,31,0,1,,,,,0,,,61,0
152650,note_on,,,,,10,0,1,,,,,0,,,64,43
152679,note_on,,,,,29,0,1,,,,,0,,,69,52
152680,note_on,,,,,1,0,1,,,,,0,,,64,0
152681,note_on,,,,,1,0,1,,,,,0,,,73,0
152688,note_on,,,,,7,0,1,,,,,0,,,69,0
152706,note_on,,,,,18,0,1,,,,,0,,,73,68
152726,note_on,,,,,20,0,1,,,,,0,,,73,0
152740,note_on,,,,,14,0,1,,,,,0,,,73,70
152778,note_on,,,,,38,0,1,,,,,0,,,73,0
152795,note_on,,,,,17,0,1,,,,,0,,,74,72
152824,note_on,,,,,29,0,1,,,,,0,,,74,0
152832,note_on,,,,,8,0,1,,,,,0,,,73,69
152855,note_on,,,,,23,0,1,,,,,0,,,73,0
152863,note_on,,,,,8,0,1,,,,,0,,,72,74
152882,note_on,,,,,19,0,1,,,,,0,,,72,0
152894,note_on,,,,,12,0,1,,,,,0,,,73,75
152911,note_on,,,,,17,0,1,,,,,0,,,73,0
152927,note_on,,,,,16,0,1,,,,,0,,,73,67
152950,note_on,,,,,23,0,1,,,,,0,,,73,0
152973,note_on,,,,,23,0,1,,,,,0,,,78,70
153014,control_change,,,,,41,0,1,,,,,0,64,72,,
153018,control_change,,,,,4,0,1,,,,,0,64,0,,
153090,control_change,,,,,72,0,1,,,,,0,64,24,,
153093,control_change,,,,,3,0,1,,,,,0,64,72,,
153098,control_change,,,,,5,0,1,,,,,0,64,127,,
153147,note_on,,,,,49,0,1,,,,,0,,,78,0
153158,note_on,,,,,11,0,1,,,,,0,,,76,55
153177,note_on,,,,,19,0,1,,,,,0,,,76,0
153227,note_on,,,,,50,0,1,,,,,0,,,76,64
153276,control_change,,,,,49,0,1,,,,,0,64,88,,
153280,control_change,,,,,4,0,1,,,,,0,64,0,,
153295,note_on,,,,,15,0,1,,,,,0,,,40,35
153304,control_change,,,,,9,0,1,,,,,0,64,56,,
153308,control_change,,,,,4,0,1,,,,,0,64,127,,
153345,note_on,,,,,37,0,1,,,,,0,,,40,0
153347,note_on,,,,,2,0,1,,,,,0,,,47,30
153373,note_on,,,,,26,0,1,,,,,0,,,47,0
153388,note_on,,,,,15,0,1,,,,,0,,,52,40
153419,note_on,,,,,31,0,1,,,,,0,,,52,0
153431,note_on,,,,,12,0,1,,,,,0,,,56,30
153473,note_on,,,,,42,0,1,,,,,0,,,56,0
153481,note_on,,,,,8,0,1,,,,,0,,,59,37
153506,note_on,,,,,25,0,1,,,,,0,,,59,0
153525,note_on,,,,,19,0,1,,,,,0,,,64,33
153561,note_on,,,,,36,0,1,,,,,0,,,64,0
153564,note_on,,,,,3,0,1,,,,,0,,,68,43
153588,note_on,,,,,24,0,1,,,,,0,,,68,0
153624,note_on,,,,,36,0,1,,,,,0,,,71,50
153625,note_on,,,,,1,0,1,,,,,0,,,76,0
153692,note_on,,,,,67,0,1,,,,,0,,,71,0
154034,note_on,,,,,342,0,1,,,,,0,,,71,45
154050,control_change,,,,,16,0,1,,,,,0,64,72,,
154054,control_change,,,,,4,0,1,,,,,0,64,0,,
154070,control_change,,,,,16,0,1,,,,,0,64,24,,
154074,note_on,,,,,4,0,1,,,,,0,,,71,0
154074,control_change,,,,,0,0,1,,,,,0,64,88,,
154078,control_change,,,,,4,0,1,,,,,0,64,127,,
154154,note_on,,,,,76,0,1,,,,,0,,,71,63
154176,note_on,,,,,22,0,1,,,,,0,,,71,0
154247,note_on,,,,,71,0,1,,,,,0,,,71,69
154268,note_on,,,,,21,0,1,,,,,0,,,71,0
154342,note_on,,,,,74,0,1,,,,,0,,,71,62
154363,note_on,,,,,21,0,1,,,,,0,,,71,0
154483,note_on,,,,,120,0,1,,,,,0,,,71,33
154555,note_on,,,,,72,0,1,,,,,0,,,71,0
154782,note_on,,,,,227,0,1,,,,,0,,,71,56
154805,note_on,,,,,23,0,1,,,,,0,,,71,0
154945,note_on,,,,,140,0,1,,,,,0,,,71,63
154956,note_on,,,,,11,0,1,,,,,0,,,41,36
154981,control_change,,,,,25,0,1,,,,,0,64,56,,
154985,control_change,,,,,4,0,1,,,,,0,64,0,,
155005,control_change,,,,,20,0,1,,,,,0,64,24,,
155009,control_change,,,,,4,0,1,,,,,0,64,88,,
155013,control_change,,,,,4,0,1,,,,,0,64,127,,
155028,note_on,,,,,15,0,1,,,,,0,,,41,0
155050,note_on,,,,,22,0,1,,,,,0,,,49,37
155053,note_on,,,,,3,0,1,,,,,0,,,61,26
155118,note_on,,,,,65,0,1,,,,,0,,,61,0
155121,note_on,,,,,3,0,1,,,,,0,,,49,0
155129,note_on,,,,,8,0,1,,,,,0,,,59,31
155130,note_on,,,,,1,0,1,,,,,0,,,56,25
155152,note_on,,,,,22,0,1,,,,,0,,,71,0
155195,note_on,,,,,43,0,1,,,,,0,,,61,51
155197,note_on,,,,,2,0,1,,,,,0,,,59,0
155213,note_on,,,,,16,0,1,,,,,0,,,49,25
155224,note_on,,,,,11,0,1,,,,,0,,,56,0
155264,note_on,,,,,40,0,1,,,,,0,,,49,0
155268,note_on,,,,,4,0,1,,,,,0,,,61,0
155272,note_on,,,,,4,0,1,,,,,0,,,70,67
155286,note_on,,,,,14,0,1,,,,,0,,,42,29
155320,control_change,,,,,34,0,1,,,,,0,64,56,,
155324,control_change,,,,,4,0,1,,,,,0,64,0,,
155352,note_on,,,,,28,0,1,,,,,0,,,49,32
155352,control_change,,,,,0,0,1,,,,,0,64,40,,
155355,control_change,,,,,3,0,1,,,,,0,64,127,,
155358,note_on,,,,,3,0,1,,,,,0,,,61,28
155379,note_on,,,,,21,0,1,,,,,0,,,42,0
155414,note_on,,,,,0,0,1,,,,,0,,,61,0
155414,note_on,,,,,35,0,1,,,,,0,,,70,0
155419,note_on,,,,,0,0,1,,,,,0,,,58,43
155419,note_on,,,,,5,0,1,,,,,0,,,49,0
155426,note_on,,,,,7,0,1,,,,,0,,,54,32
155483,note_on,,,,,57,0,1,,,,,0,,,58,0
155492,note_on,,,,,9,0,1,,,,,0,,,70,77
155501,note_on,,,,,9,0,1,,,,,0,,,49,23
155511,note_on,,,,,10,0,1,,,,,0,,,54,0
155526,note_on,,,,,15,0,1,,,,,0,,,70,0
155584,note_on,,,,,58,0,1,,,,,0,,,49,0
155590,note_on,,,,,6,0,1,,,,,0,,,70,65
155602,note_on,,,,,12,0,1,,,,,0,,,47,35
155614,control_change,,,,,12,0,1,,,,,0,64,56,,
155618,control_change,,,,,4,0,1,,,,,0,64,0,,
155654,control_change,,,,,36,0,1,,,,,0,64,56,,
155658,control_change,,,,,4,0,1,,,,,0,64,127,,
155665,note_on,,,,,7,0,1,,,,,0,,,49,35
155673,note_on,,,,,8,0,1,,,,,0,,,61,25
155695,note_on,,,,,22,0,1,,,,,0,,,70,0
155721,note_on,,,,,26,0,1,,,,,0,,,61,0
155723,note_on,,,,,2,0,1,,,,,0,,,49,0
155734,note_on,,,,,11,0,1,,,,,0,,,68,63
155738,note_on,,,,,4,0,1,,,,,0,,,53,32
155742,note_on,,,,,4,0,1,,,,,0,,,56,27
155801,note_on,,,,,59,0,1,,,,,0,,,47,0
155803,note_on,,,,,2,0,1,,,,,0,,,56,0
155810,note_on,,,,,7,0,1,,,,,0,,,61,34
155812,note_on,,,,,2,0,1,,,,,0,,,49,30
155828,note_on,,,,,16,0,1,,,,,0,,,53,0
155844,note_on,,,,,16,0,1,,,,,0,,,68,0
155875,note_on,,,,,31,0,1,,,,,0,,,61,0
155883,note_on,,,,,8,0,1,,,,,0,,,66,57
155886,note_on,,,,,3,0,1,,,,,0,,,49,0
155894,note_on,,,,,8,0,1,,,,,0,,,46,34
155913,control_change,,,,,19,0,1,,,,,0,64,88,,
155917,control_change,,,,,4,0,1,,,,,0,64,24,,
155921,control_change,,,,,4,0,1,,,,,0,64,0,,
155953,control_change,,,,,32,0,1,,,,,0,64,88,,
155956,note_on,,,,,3,0,1,,,,,0,,,49,30
155957,control_change,,,,,1,0,1,,,,,0,64,127,,
155958,note_on,,,,,1,0,1,,,,,0,,,61,35
156012,note_on,,,,,54,0,1,,,,,0,,,61,0
156013,note_on,,,,,1,0,1,,,,,0,,,49,0
156020,note_on,,,,,7,0,1,,,,,0,,,58,29
156024,note_on,,,,,4,0,1,,,,,0,,,54,23
156084,note_on,,,,,60,0,1,,,,,0,,,46,0
156097,note_on,,,,,13,0,1,,,,,0,,,61,45
156103,note_on,,,,,6,0,1,,,,,0,,,49,26
156105,note_on,,,,,2,0,1,,,,,0,,,58,0
156115,note_on,,,,,10,0,1,,,,,0,,,66,0
156117,note_on,,,,,2,0,1,,,,,0,,,61,0
156119,note_on,,,,,2,0,1,,,,,0,,,49,0
156136,note_on,,,,,17,0,1,,,,,0,,,54,0
156212,note_on,,,,,76,0,1,,,,,0,,,47,38
156213,note_on,,,,,1,0,1,,,,,0,,,75,75
156223,control_change,,,,,10,0,1,,,,,0,64,88,,
156227,control_change,,,,,4,0,1,,,,,0,64,24,,
156231,control_change,,,,,4,0,1,,,,,0,64,0,,
156260,control_change,,,,,29,0,1,,,,,0,64,40,,
156264,control_change,,,,,4,0,1,,,,,0,64,104,,
156268,control_change,,,,,4,0,1,,,,,0,64,127,,
156289,note_on,,,,,21,0,1,,,,,0,,,54,28
156292,note_on,,,,,3,0,1,,,,,0,,,66,38
156341,note_on,,,,,49,0,1,,,,,0,,,54,0
156347,note_on,,,,,6,0,1,,,,,0,,,66,0
156357,note_on,,,,,10,0,1,,,,,0,,,63,32
156359,note_on,,,,,2,0,1,,,,,0,,,59,31
156405,note_on,,,,,46,0,1,,,,,0,,,47,0
156421,note_on,,,,,16,0,1,,,,,0,,,66,45
156425,note_on,,,,,4,0,1,,,,,0,,,63,0
156427,note_on,,,,,2,0,1,,,,,0,,,54,25
156431,note_on,,,,,4,0,1,,,,,0,,,75,0
156445,note_on,,,,,14,0,1,,,,,0,,,59,0
156448,note_on,,,,,3,0,1,,,,,0,,,66,0
156469,note_on,,,,,21,0,1,,,,,0,,,46,37
156474,note_on,,,,,5,0,1,,,,,0,,,54,0
156520,note_on,,,,,46,0,1,,,,,0,,,75,65
156530,control_change,,,,,10,0,1,,,,,0,64,104,,
156534,control_change,,,,,4,0,1,,,,,0,64,56,,
156538,control_change,,,,,4,0,1,,,,,0,64,0,,
156582,control_change,,,,,44,0,1,,,,,0,64,72,,
156586,control_change,,,,,4,0,1,,,,,0,64,127,,
156593,note_on,,,,,7,0,1,,,,,0,,,54,27
156604,note_on,,,,,11,0,1,,,,,0,,,66,25
156616,note_on,,,,,12,0,1,,,,,0,,,75,0
156649,note_on,,,,,33,0,1,,,,,0,,,54,0
156652,note_on,,,,,3,0,1,,,,,0,,,66,0
156655,note_on,,,,,3,0,1,,,,,0,,,61,38
156659,note_on,,,,,4,0,1,,,,,0,,,58,30
156717,note_on,,,,,58,0,1,,,,,0,,,46,0
156719,note_on,,,,,2,0,1,,,,,0,,,54,31
156729,note_on,,,,,10,0,1,,,,,0,,,58,0
156738,note_on,,,,,9,0,1,,,,,0,,,73,67
156754,note_on,,,,,16,0,1,,,,,0,,,61,0
156772,note_on,,,,,18,0,1,,,,,0,,,73,0
156793,note_on,,,,,21,0,1,,,,,0,,,54,0
156815,note_on,,,,,22,0,1,,,,,0,,,73,64
156820,note_on,,,,,5,0,1,,,,,0,,,44,34
156828,control_change,,,,,8,0,1,,,,,0,64,56,,
156832,control_change,,,,,4,0,1,,,,,0,64,0,,
156860,control_change,,,,,28,0,1,,,,,0,64,40,,
156864,control_change,,,,,4,0,1,,,,,0,64,127,,
156886,note_on,,,,,22,0,1,,,,,0,,,44,0
156893,note_on,,,,,7,0,1,,,,,0,,,65,36
156899,note_on,,,,,0,0,1,,,,,0,,,53,31
156899,note_on,,,,,6,0,1,,,,,0,,,73,0
156936,note_on,,,,,37,0,1,,,,,0,,,65,0
156945,note_on,,,,,9,0,1,,,,,0,,,53,0
156947,note_on,,,,,2,0,1,,,,,0,,,71,70
156953,note_on,,,,,6,0,1,,,,,0,,,59,32
156956,note_on,,,,,3,0,1,,,,,0,,,61,25
157019,note_on,,,,,63,0,1,,,,,0,,,65,37
157022,note_on,,,,,3,0,1,,,,,0,,,59,0
157052,note_on,,,,,30,0,1,,,,,0,,,65,0
157056,note_on,,,,,4,0,1,,,,,0,,,71,0
157090,note_on,,,,,34,0,1,,,,,0,,,70,62
157091,note_on,,,,,1,0,1,,,,,0,,,61,0
157108,note_on,,,,,17,0,1,,,,,0,,,42,34
157122,control_change,,,,,14,0,1,,,,,0,64,88,,
157126,control_change,,,,,4,0,1,,,,,0,64,24,,
157130,control_change,,,,,4,0,1,,,,,0,64,0,,
157167,control_change,,,,,37,0,1,,,,,0,64,88,,
157171,control_change,,,,,4,0,1,,,,,0,64,127,,
157172,note_on,,,,,1,0,1,,,,,0,,,66,35
157174,note_on,,,,,2,0,1,,,,,0,,,42,0
157176,note_on,,,,,2,0,1,,,,,0,,,49,31
157224,note_on,,,,,48,0,1,,,,,0,,,49,0
157242,note_on,,,,,18,0,1,,,,,0,,,66,0
157243,note_on,,,,,1,0,1,,,,,0,,,58,25
157244,note_on,,,,,1,0,1,,,,,0,,,61,26
157320,note_on,,,,,76,0,1,,,,,0,,,58,0
157322,note_on,,,,,2,0,1,,,,,0,,,66,35
157323,note_on,,,,,1,0,1,,,,,0,,,49,39
157331,note_on,,,,,8,0,1,,,,,0,,,61,0
157337,note_on,,,,,6,0,1,,,,,0,,,70,0
157346,note_on,,,,,9,0,1,,,,,0,,,49,0
157347,note_on,,,,,1,0,1,,,,,0,,,66,0
157424,note_on,,,,,77,0,1,,,,,0,,,68,59
157432,note_on,,,,,8,0,1,,,,,0,,,39,40
157432,control_change,,,,,0,0,1,,,,,0,64,56,,
157437,control_change,,,,,5,0,1,,,,,0,64,0,,
157465,control_change,,,,,0,0,1,,,,,0,64,88,,
157465,note_on,,,,,28,0,1,,,,,0,,,39,0
157469,control_change,,,,,4,0,1,,,,,0,64,127,,
157519,note_on,,,,,50,0,1,,,,,0,,,66,35
157525,note_on,,,,,6,0,1,,,,,0,,,48,37
157564,note_on,,,,,39,0,1,,,,,0,,,48,0
157572,note_on,,,,,8,0,1,,,,,0,,,66,0
157579,note_on,,,,,7,0,1,,,,,0,,,60,37
157581,note_on,,,,,2,0,1,,,,,0,,,56,30
157586,note_on,,,,,5,0,1,,,,,0,,,54,27
157636,note_on,,,,,50,0,1,,,,,0,,,54,0
157637,note_on,,,,,1,0,1,,,,,0,,,68,0
157641,note_on,,,,,4,0,1,,,,,0,,,66,48
157652,note_on,,,,,11,0,1,,,,,0,,,48,28
157654,note_on,,,,,2,0,1,,,,,0,,,60,0
157663,note_on,,,,,9,0,1,,,,,0,,,56,0
157696,note_on,,,,,33,0,1,,,,,0,,,66,0
157701,note_on,,,,,5,0,1,,,,,0,,,48,0
157707,note_on,,,,,6,0,1,,,,,0,,,68,68
157713,note_on,,,,,6,0,1,,,,,0,,,60,48
157715,note_on,,,,,2,0,1,,,,,0,,,56,25
157718,note_on,,,,,3,0,1,,,,,0,,,54,23
157765,note_on,,,,,47,0,1,,,,,0,,,60,0
157767,note_on,,,,,2,0,1,,,,,0,,,54,0
157778,note_on,,,,,11,0,1,,,,,0,,,66,50
157784,note_on,,,,,6,0,1,,,,,0,,,48,43
157794,note_on,,,,,10,0,1,,,,,0,,,56,0
157833,note_on,,,,,39,0,1,,,,,0,,,48,0
157837,note_on,,,,,4,0,1,,,,,0,,,66,0
157845,note_on,,,,,8,0,1,,,,,0,,,60,28
157849,note_on,,,,,4,0,1,,,,,0,,,56,26
157850,note_on,,,,,1,0,1,,,,,0,,,54,25
157884,note_on,,,,,34,0,1,,,,,0,,,68,0
157920,note_on,,,,,36,0,1,,,,,0,,,66,33
157926,note_on,,,,,6,0,1,,,,,0,,,48,12
157932,note_on,,,,,6,0,1,,,,,0,,,56,0
157936,note_on,,,,,4,0,1,,,,,0,,,54,0
157943,note_on,,,,,7,0,1,,,,,0,,,48,0
157950,note_on,,,,,7,0,1,,,,,0,,,60,0
157956,note_on,,,,,6,0,1,,,,,0,,,70,69
157962,note_on,,,,,6,0,1,,,,,0,,,66,0
157978,note_on,,,,,16,0,1,,,,,0,,,70,0
158017,note_on,,,,,39,0,1,,,,,0,,,70,69
158030,control_change,,,,,13,0,1,,,,,0,64,104,,
158033,note_on,,,,,3,0,1,,,,,0,,,37,37
158034,control_change,,,,,1,0,1,,,,,0,64,40,,
158038,control_change,,,,,4,0,1,,,,,0,64,0,,
158063,note_on,,,,,25,0,1,,,,,0,,,37,0
158066,control_change,,,,,3,0,1,,,,,0,64,72,,
158070,control_change,,,,,4,0,1,,,,,0,64,127,,
158120,note_on,,,,,50,0,1,,,,,0,,,66,37
158121,note_on,,,,,1,0,1,,,,,0,,,49,37
158170,note_on,,,,,49,0,1,,,,,0,,,49,0
158178,note_on,,,,,8,0,1,,,,,0,,,66,0
158183,note_on,,,,,5,0,1,,,,,0,,,61,29
158183,note_on,,,,,0,0,1,,,,,0,,,58,25
158219,note_on,,,,,36,0,1,,,,,0,,,54,30
158234,note_on,,,,,15,0,1,,,,,0,,,61,0
158248,note_on,,,,,14,0,1,,,,,0,,,66,37
158249,note_on,,,,,1,0,1,,,,,0,,,54,0
158255,note_on,,,,,6,0,1,,,,,0,,,49,23
158257,note_on,,,,,2,0,1,,,,,0,,,58,0
158305,note_on,,,,,48,0,1,,,,,0,,,49,0
158306,note_on,,,,,1,0,1,,,,,0,,,66,0
158308,note_on,,,,,2,0,1,,,,,0,,,61,38
158316,note_on,,,,,8,0,1,,,,,0,,,58,23
158319,note_on,,,,,3,0,1,,,,,0,,,54,22
158332,note_on,,,,,13,0,1,,,,,0,,,70,0
158373,note_on,,,,,41,0,1,,,,,0,,,54,0
158377,note_on,,,,,4,0,1,,,,,0,,,61,0
158378,note_on,,,,,1,0,1,,,,,0,,,66,48
158386,note_on,,,,,8,0,1,,,,,0,,,49,28
158399,note_on,,,,,13,0,1,,,,,0,,,58,0
158433,note_on,,,,,34,0,1,,,,,0,,,66,0
158435,note_on,,,,,2,0,1,,,,,0,,,49,0
158441,note_on,,,,,6,0,1,,,,,0,,,70,69
158449,note_on,,,,,8,0,1,,,,,0,,,58,20
158451,note_on,,,,,2,0,1,,,,,0,,,61,25
158453,note_on,,,,,2,0,1,,,,,0,,,54,22
158510,note_on,,,,,57,0,1,,,,,0,,,58,0
158510,note_on,,,,,0,0,1,,,,,0,,,66,42
158512,note_on,,,,,2,0,1,,,,,0,,,70,0
158513,note_on,,,,,1,0,1,,,,,0,,,54,0
158514,note_on,,,,,1,0,1,,,,,0,,,61,0
158515,note_on,,,,,1,0,1,,,,,0,,,49,27
158523,note_on,,,,,8,0,1,,,,,0,,,49,0
158555,note_on,,,,,32,0,1,,,,,0,,,66,0
158592,note_on,,,,,37,0,1,,,,,0,,,70,72
158602,note_on,,,,,10,0,1,,,,,0,,,39,40
158603,control_change,,,,,1,0,1,,,,,0,64,72,,
158607,control_change,,,,,4,0,1,,,,,0,64,0,,
158631,note_on,,,,,24,0,1,,,,,0,,,39,0
158631,control_change,,,,,0,0,1,,,,,0,64,40,,
158635,control_change,,,,,4,0,1,,,,,0,64,104,,
158639,control_change,,,,,4,0,1,,,,,0,64,127,,
158677,note_on,,,,,38,0,1,,,,,0,,,48,52
158677,note_on,,,,,0,0,1,,,,,0,,,66,30
158718,note_on,,,,,0,0,1,,,,,0,,,70,0
158718,note_on,,,,,41,0,1,,,,,0,,,66,0
158724,note_on,,,,,6,0,1,,,,,0,,,48,0
158733,note_on,,,,,9,0,1,,,,,0,,,68,64
158737,note_on,,,,,4,0,1,,,,,0,,,56,31
158738,note_on,,,,,1,0,1,,,,,0,,,54,35
158740,note_on,,,,,2,0,1,,,,,0,,,60,36
158791,note_on,,,,,51,0,1,,,,,0,,,60,0
158797,note_on,,,,,6,0,1,,,,,0,,,68,0
158799,note_on,,,,,2,0,1,,,,,0,,,66,43
158800,note_on,,,,,1,0,1,,,,,0,,,54,0
158807,note_on,,,,,7,0,1,,,,,0,,,56,0
158809,note_on,,,,,2,0,1,,,,,0,,,48,47
158819,note_on,,,,,10,0,1,,,,,0,,,48,0
158840,note_on,,,,,21,0,1,,,,,0,,,66,0
158863,note_on,,,,,23,0,1,,,,,0,,,68,68
158868,note_on,,,,,0,0,1,,,,,0,,,54,30
158868,note_on,,,,,5,0,1,,,,,0,,,56,25
158869,note_on,,,,,1,0,1,,,,,0,,,60,48
158917,note_on,,,,,48,0,1,,,,,0,,,60,0
158922,note_on,,,,,5,0,1,,,,,0,,,54,0
158930,note_on,,,,,8,0,1,,,,,0,,,66,46
158933,note_on,,,,,3,0,1,,,,,0,,,48,48
158935,note_on,,,,,2,0,1,,,,,0,,,56,0
158941,note_on,,,,,6,0,1,,,,,0,,,68,0
158978,note_on,,,,,37,0,1,,,,,0,,,48,0
158982,note_on,,,,,4,0,1,,,,,0,,,66,0
158989,note_on,,,,,7,0,1,,,,,0,,,70,74
158995,note_on,,,,,6,0,1,,,,,0,,,56,28
158995,note_on,,,,,0,0,1,,,,,0,,,54,32
158997,note_on,,,,,2,0,1,,,,,0,,,60,42
159064,note_on,,,,,67,0,1,,,,,0,,,60,0
159065,note_on,,,,,1,0,1,,,,,0,,,66,40
159066,note_on,,,,,1,0,1,,,,,0,,,48,42
159073,note_on,,,,,7,0,1,,,,,0,,,56,0
159080,note_on,,,,,7,0,1,,,,,0,,,54,0
159087,note_on,,,,,7,0,1,,,,,0,,,48,0
159103,note_on,,,,,16,0,1,,,,,0,,,70,0
159118,note_on,,,,,15,0,1,,,,,0,,,66,0
159171,note_on,,,,,53,0,1,,,,,0,,,73,68
159185,note_on,,,,,14,0,1,,,,,0,,,37,37
159192,control_change,,,,,7,0,1,,,,,0,64,72,,
159196,control_change,,,,,4,0,1,,,,,0,64,0,,
159224,control_change,,,,,28,0,1,,,,,0,64,56,,
159227,note_on,,,,,3,0,1,,,,,0,,,37,0
159228,control_change,,,,,1,0,1,,,,,0,64,127,,
159278,note_on,,,,,50,0,1,,,,,0,,,70,33
159330,note_on,,,,,52,0,1,,,,,0,,,70,0
159340,note_on,,,,,0,0,1,,,,,0,,,58,22
159340,note_on,,,,,10,0,1,,,,,0,,,61,31
159342,note_on,,,,,2,0,1,,,,,0,,,54,26
159392,note_on,,,,,50,0,1,,,,,0,,,54,0
159395,note_on,,,,,3,0,1,,,,,0,,,61,0
159400,note_on,,,,,5,0,1,,,,,0,,,58,0
159404,note_on,,,,,4,0,1,,,,,0,,,70,32
159406,note_on,,,,,2,0,1,,,,,0,,,49,32
159455,note_on,,,,,49,0,1,,,,,0,,,49,0
159462,note_on,,,,,7,0,1,,,,,0,,,70,0
159472,note_on,,,,,10,0,1,,,,,0,,,61,23
159473,note_on,,,,,1,0,1,,,,,0,,,54,25
159474,note_on,,,,,1,0,1,,,,,0,,,58,15
159537,note_on,,,,,0,0,1,,,,,0,,,61,0
159537,note_on,,,,,63,0,1,,,,,0,,,54,0
159542,note_on,,,,,5,0,1,,,,,0,,,70,27
159546,note_on,,,,,4,0,1,,,,,0,,,58,0
159547,note_on,,,,,1,0,1,,,,,0,,,49,27
159607,note_on,,,,,60,0,1,,,,,0,,,49,0
159616,note_on,,,,,9,0,1,,,,,0,,,70,0
159621,note_on,,,,,5,0,1,,,,,0,,,61,25
159630,note_on,,,,,9,0,1,,,,,0,,,54,17
159692,note_on,,,,,62,0,1,,,,,0,,,73,0
159698,note_on,,,,,6,0,1,,,,,0,,,54,0
159706,note_on,,,,,8,0,1,,,,,0,,,61,0
159712,note_on,,,,,6,0,1,,,,,0,,,70,22
159714,note_on,,,,,2,0,1,,,,,0,,,49,25
159826,note_on,,,,,112,0,1,,,,,0,,,61,20
159841,note_on,,,,,15,0,1,,,,,0,,,58,11
159905,note_on,,,,,64,0,1,,,,,0,,,54,1
159927,note_on,,,,,22,0,1,,,,,0,,,61,0
159942,note_on,,,,,0,0,1,,,,,0,,,49,0
159942,note_on,,,,,15,0,1,,,,,0,,,70,0
159950,note_on,,,,,8,0,1,,,,,0,,,54,0
159958,note_on,,,,,8,0,1,,,,,0,,,58,0
160291,note_on,,,,,333,0,1,,,,,0,,,90,61
160297,note_on,,,,,6,0,1,,,,,0,,,78,30
160297,note_on,,,,,0,0,1,,,,,0,,,73,33
160299,note_on,,,,,2,0,1,,,,,0,,,82,42
160345,note_on,,,,,0,0,1,,,,,0,,,90,0
160345,note_on,,,,,46,0,1,,,,,0,,,73,0
160349,note_on,,,,,4,0,1,,,,,0,,,78,0
160351,note_on,,,,,2,0,1,,,,,0,,,82,0
160441,note_on,,,,,90,0,1,,,,,0,,,87,59
160444,note_on,,,,,3,0,1,,,,,0,,,75,33
160446,note_on,,,,,2,0,1,,,,,0,,,78,40
160448,note_on,,,,,2,0,1,,,,,0,,,70,32
160465,note_on,,,,,17,0,1,,,,,0,,,75,0
160466,note_on,,,,,1,0,1,,,,,0,,,87,0
160468,note_on,,,,,2,0,1,,,,,0,,,78,0
160469,note_on,,,,,1,0,1,,,,,0,,,70,0
160502,note_on,,,,,0,0,1,,,,,0,,,83,55
160502,note_on,,,,,33,0,1,,,,,0,,,75,31
160504,note_on,,,,,2,0,1,,,,,0,,,71,41
160505,note_on,,,,,1,0,1,,,,,0,,,66,25
160530,control_change,,,,,25,0,1,,,,,0,64,56,,
160534,control_change,,,,,4,0,1,,,,,0,64,0,,
160558,control_change,,,,,24,0,1,,,,,0,64,88,,
160562,control_change,,,,,4,0,1,,,,,0,64,127,,
160564,note_on,,,,,2,0,1,,,,,0,,,78,1
160578,note_on,,,,,14,0,1,,,,,0,,,71,0
160587,note_on,,,,,9,0,1,,,,,0,,,66,0
160708,note_on,,,,,121,0,1,,,,,0,,,37,20
160747,note_on,,,,,39,0,1,,,,,0,,,75,0
160750,note_on,,,,,3,0,1,,,,,0,,,37,0
160778,note_on,,,,,28,0,1,,,,,0,,,78,0
160788,note_on,,,,,10,0,1,,,,,0,,,83,0
160918,note_on,,,,,130,0,1,,,,,0,,,87,70
160919,note_on,,,,,1,0,1,,,,,0,,,75,34
160921,note_on,,,,,2,0,1,,,,,0,,,78,44
160925,note_on,,,,,4,0,1,,,,,0,,,70,37
160944,note_on,,,,,19,0,1,,,,,0,,,75,0
160946,note_on,,,,,2,0,1,,,,,0,,,87,0
160948,note_on,,,,,2,0,1,,,,,0,,,70,0
160950,note_on,,,,,2,0,1,,,,,0,,,78,0
161074,note_on,,,,,0,0,1,,,,,0,,,75,45
161074,note_on,,,,,124,0,1,,,,,0,,,83,62
161080,note_on,,,,,6,0,1,,,,,0,,,71,31
161082,note_on,,,,,2,0,1,,,,,0,,,66,26
161093,note_on,,,,,11,0,1,,,,,0,,,71,0
161095,note_on,,,,,2,0,1,,,,,0,,,66,0
161095,note_on,,,,,0,0,1,,,,,0,,,83,0
161103,note_on,,,,,8,0,1,,,,,0,,,75,0
161141,note_on,,,,,38,0,1,,,,,0,,,80,54
161145,note_on,,,,,4,0,1,,,,,0,,,71,38
161147,note_on,,,,,2,0,1,,,,,0,,,68,27
161151,note_on,,,,,4,0,1,,,,,0,,,63,20
161219,note_on,,,,,68,0,1,,,,,0,,,68,0
161223,note_on,,,,,4,0,1,,,,,0,,,63,0
161360,note_on,,,,,137,0,1,,,,,0,,,37,32
161427,note_on,,,,,0,0,1,,,,,0,,,80,0
161427,note_on,,,,,67,0,1,,,,,0,,,37,0
161431,note_on,,,,,4,0,1,,,,,0,,,71,0
161570,note_on,,,,,139,0,1,,,,,0,,,68,60
161576,note_on,,,,,6,0,1,,,,,0,,,63,35
161580,note_on,,,,,4,0,1,,,,,0,,,59,30
161624,note_on,,,,,44,0,1,,,,,0,,,63,0
161694,note_on,,,,,70,0,1,,,,,0,,,68,0
161698,note_on,,,,,4,0,1,,,,,0,,,59,0
161719,note_on,,,,,21,0,1,,,,,0,,,66,57
161722,note_on,,,,,3,0,1,,,,,0,,,58,28
161723,note_on,,,,,1,0,1,,,,,0,,,61,39
161746,note_on,,,,,23,0,1,,,,,0,,,61,0
161750,note_on,,,,,4,0,1,,,,,0,,,58,0
161752,note_on,,,,,2,0,1,,,,,0,,,66,0
161783,note_on,,,,,31,0,1,,,,,0,,,65,61
161785,note_on,,,,,0,0,1,,,,,0,,,59,39
161785,note_on,,,,,2,0,1,,,,,0,,,56,35
161791,note_on,,,,,6,0,1,,,,,0,,,49,30
161800,control_change,,,,,9,0,1,,,,,0,64,88,,
161804,control_change,,,,,4,0,1,,,,,0,64,0,,
161833,control_change,,,,,29,0,1,,,,,0,64,40,,
161837,control_change,,,,,4,0,1,,,,,0,64,127,,
161854,note_on,,,,,17,0,1,,,,,0,,,65,0
161882,note_on,,,,,28,0,1,,,,,0,,,56,0
161882,note_on,,,,,0,0,1,,,,,0,,,59,0
161884,note_on,,,,,2,0,1,,,,,0,,,66,70
161887,note_on,,,,,3,0,1,,,,,0,,,61,52
161893,note_on,,,,,6,0,1,,,,,0,,,58,30
161895,note_on,,,,,2,0,1,,,,,0,,,61,0
161907,note_on,,,,,12,0,1,,,,,0,,,49,0
161915,note_on,,,,,8,0,1,,,,,0,,,66,0
161950,note_on,,,,,35,0,1,,,,,0,,,58,0
161961,note_on,,,,,11,0,1,,,,,0,,,49,39
162006,note_on,,,,,45,0,1,,,,,0,,,67,68
162014,note_on,,,,,8,0,1,,,,,0,,,58,36
162015,note_on,,,,,1,0,1,,,,,0,,,64,37
162038,control_change,,,,,23,0,1,,,,,0,64,104,,
162042,control_change,,,,,4,0,1,,,,,0,64,40,,
162046,control_change,,,,,4,0,1,,,,,0,64,0,,
162075,control_change,,,,,29,0,1,,,,,0,64,72,,
162079,control_change,,,,,4,0,1,,,,,0,64,127,,
162102,note_on,,,,,23,0,1,,,,,0,,,49,0
162213,note_on,,,,,111,0,1,,,,,0,,,49,31
162244,note_on,,,,,31,0,1,,,,,0,,,67,0
162252,note_on,,,,,8,0,1,,,,,0,,,58,0
162291,note_on,,,,,39,0,1,,,,,0,,,64,0
162310,note_on,,,,,19,0,1,,,,,0,,,68,58
162318,note_on,,,,,0,0,1,,,,,0,,,65,28
162318,note_on,,,,,8,0,1,,,,,0,,,59,36
162331,note_on,,,,,13,0,1,,,,,0,,,65,0
162347,note_on,,,,,0,0,1,,,,,0,,,68,0
162347,note_on,,,,,16,0,1,,,,,0,,,49,0
162375,note_on,,,,,28,0,1,,,,,0,,,49,20
162377,note_on,,,,,2,0,1,,,,,0,,,59,0
162393,note_on,,,,,16,0,1,,,,,0,,,63,36
162423,note_on,,,,,30,0,1,,,,,0,,,66,37
162457,note_on,,,,,34,0,1,,,,,0,,,60,27
162457,note_on,,,,,0,0,1,,,,,0,,,69,59
162486,control_change,,,,,29,0,1,,,,,0,64,104,,
162490,control_change,,,,,4,0,1,,,,,0,64,40,,
162494,control_change,,,,,4,0,1,,,,,0,64,0,,
162526,control_change,,,,,32,0,1,,,,,0,64,104,,
162530,control_change,,,,,4,0,1,,,,,0,64,127,,
162554,note_on,,,,,24,0,1,,,,,0,,,49,0
162635,note_on,,,,,81,0,1,,,,,0,,,66,0
162642,note_on,,,,,7,0,1,,,,,0,,,49,29
162646,note_on,,,,,4,0,1,,,,,0,,,63,0
162653,note_on,,,,,7,0,1,,,,,0,,,69,0
162654,note_on,,,,,1,0,1,,,,,0,,,60,0
162740,note_on,,,,,86,0,1,,,,,0,,,70,56
162749,note_on,,,,,9,0,1,,,,,0,,,61,25
162751,note_on,,,,,2,0,1,,,,,0,,,66,26
162755,control_change,,,,,4,0,1,,,,,0,64,72,,
162759,control_change,,,,,4,0,1,,,,,0,64,0,,
162782,note_on,,,,,23,0,1,,,,,0,,,66,0
162784,control_change,,,,,2,0,1,,,,,0,64,56,,
162788,control_change,,,,,0,0,1,,,,,0,64,127,,
162788,note_on,,,,,4,0,1,,,,,0,,,49,0
162794,note_on,,,,,6,0,1,,,,,0,,,70,0
162800,note_on,,,,,6,0,1,,,,,0,,,61,0
162884,note_on,,,,,84,0,1,,,,,0,,,78,67
162891,note_on,,,,,7,0,1,,,,,0,,,73,32
162894,note_on,,,,,3,0,1,,,,,0,,,70,30
162901,control_change,,,,,7,0,1,,,,,0,64,104,,
162905,control_change,,,,,4,0,1,,,,,0,64,127,,
162926,note_on,,,,,21,0,1,,,,,0,,,70,0
162931,note_on,,,,,5,0,1,,,,,0,,,78,0
162932,note_on,,,,,1,0,1,,,,,0,,,73,0
163030,note_on,,,,,98,0,1,,,,,0,,,75,61
163035,note_on,,,,,5,0,1,,,,,0,,,66,38
163037,note_on,,,,,2,0,1,,,,,0,,,70,35
163050,note_on,,,,,13,0,1,,,,,0,,,70,0
163051,note_on,,,,,1,0,1,,,,,0,,,66,0
163054,note_on,,,,,3,0,1,,,,,0,,,75,0
163087,note_on,,,,,33,0,1,,,,,0,,,71,61
163092,note_on,,,,,5,0,1,,,,,0,,,66,22
163098,note_on,,,,,6,0,1,,,,,0,,,63,29
163107,control_change,,,,,9,0,1,,,,,0,64,104,,
163111,control_change,,,,,4,0,1,,,,,0,64,40,,
163115,control_change,,,,,4,0,1,,,,,0,64,0,,
163143,control_change,,,,,28,0,1,,,,,0,64,104,,
163147,control_change,,,,,4,0,1,,,,,0,64,127,,
163162,note_on,,,,,15,0,1,,,,,0,,,63,0
163294,note_on,,,,,132,0,1,,,,,0,,,37,22
163331,note_on,,,,,37,0,1,,,,,0,,,37,0
163335,note_on,,,,,4,0,1,,,,,0,,,66,0
163354,note_on,,,,,19,0,1,,,,,0,,,71,0
163488,note_on,,,,,134,0,1,,,,,0,,,75,58
163494,note_on,,,,,6,0,1,,,,,0,,,66,30
163496,note_on,,,,,2,0,1,,,,,0,,,70,34
163521,note_on,,,,,25,0,1,,,,,0,,,75,0
163524,note_on,,,,,0,0,1,,,,,0,,,66,0
163524,note_on,,,,,3,0,1,,,,,0,,,70,0
163649,note_on,,,,,125,0,1,,,,,0,,,71,49
163650,note_on,,,,,1,0,1,,,,,0,,,63,33
163652,note_on,,,,,2,0,1,,,,,0,,,66,33
163670,note_on,,,,,18,0,1,,,,,0,,,63,0
163673,note_on,,,,,3,0,1,,,,,0,,,71,0
163678,note_on,,,,,5,0,1,,,,,0,,,66,0
163726,note_on,,,,,48,0,1,,,,,0,,,68,44
163730,note_on,,,,,4,0,1,,,,,0,,,63,23
163742,note_on,,,,,12,0,1,,,,,0,,,59,12
163764,control_change,,,,,22,0,1,,,,,0,64,72,,
163768,control_change,,,,,4,0,1,,,,,0,64,0,,
163792,control_change,,,,,24,0,1,,,,,0,64,88,,
163796,control_change,,,,,4,0,1,,,,,0,64,127,,
163815,note_on,,,,,19,0,1,,,,,0,,,59,0
163943,note_on,,,,,128,0,1,,,,,0,,,37,31
163988,note_on,,,,,45,0,1,,,,,0,,,37,0
164014,note_on,,,,,26,0,1,,,,,0,,,68,0
164015,note_on,,,,,1,0,1,,,,,0,,,63,0
164179,note_on,,,,,164,0,1,,,,,0,,,56,50
164184,note_on,,,,,5,0,1,,,,,0,,,51,29
164195,note_on,,,,,11,0,1,,,,,0,,,47,26
164208,control_change,,,,,13,0,1,,,,,0,64,72,,
164212,control_change,,,,,4,0,1,,,,,0,64,0,,
164232,control_change,,,,,20,0,1,,,,,0,64,24,,
164236,control_change,,,,,4,0,1,,,,,0,64,88,,
164240,control_change,,,,,0,0,1,,,,,0,64,127,,
164240,note_on,,,,,4,0,1,,,,,0,,,51,0
164290,note_on,,,,,50,0,1,,,,,0,,,47,0
164314,note_on,,,,,24,0,1,,,,,0,,,56,0
164342,note_on,,,,,28,0,1,,,,,0,,,58,58
164344,note_on,,,,,2,0,1,,,,,0,,,54,35
164348,note_on,,,,,4,0,1,,,,,0,,,51,27
164357,note_on,,,,,9,0,1,,,,,0,,,54,0
164360,note_on,,,,,3,0,1,,,,,0,,,51,0
164373,note_on,,,,,13,0,1,,,,,0,,,58,0
164412,note_on,,,,,39,0,1,,,,,0,,,59,68
164424,note_on,,,,,12,0,1,,,,,0,,,56,36
164445,control_change,,,,,21,0,1,,,,,0,64,24,,
164450,control_change,,,,,5,0,1,,,,,0,64,0,,
164478,control_change,,,,,28,0,1,,,,,0,64,56,,
164482,control_change,,,,,4,0,1,,,,,0,64,127,,
164487,note_on,,,,,5,0,1,,,,,0,,,59,0
164507,note_on,,,,,20,0,1,,,,,0,,,56,0
164551,note_on,,,,,44,0,1,,,,,0,,,63,61
164555,note_on,,,,,4,0,1,,,,,0,,,58,48
164557,note_on,,,,,2,0,1,,,,,0,,,54,27
164571,control_change,,,,,14,0,1,,,,,0,64,88,,
164575,control_change,,,,,4,0,1,,,,,0,64,24,,
164579,control_change,,,,,4,0,1,,,,,0,64,0,,
164590,control_change,,,,,11,0,1,,,,,0,64,24,,
164594,note_on,,,,,4,0,1,,,,,0,,,54,0
164595,control_change,,,,,1,0,1,,,,,0,64,72,,
164599,control_change,,,,,4,0,1,,,,,0,64,127,,
164625,note_on,,,,,26,0,1,,,,,0,,,58,0
164628,note_on,,,,,3,0,1,,,,,0,,,63,0
164757,note_on,,,,,129,0,1,,,,,0,,,63,50
164759,note_on,,,,,2,0,1,,,,,0,,,59,44
164761,note_on,,,,,2,0,1,,,,,0,,,53,39
164761,note_on,,,,,0,0,1,,,,,0,,,56,34
164801,control_change,,,,,40,0,1,,,,,0,64,88,,
164805,control_change,,,,,4,0,1,,,,,0,64,24,,
164809,control_change,,,,,4,0,1,,,,,0,64,0,,
164849,control_change,,,,,40,0,1,,,,,0,64,72,,
164853,control_change,,,,,4,0,1,,,,,0,64,127,,
165024,note_on,,,,,171,0,1,,,,,0,,,25,27
165081,note_on,,,,,57,0,1,,,,,0,,,25,0
165176,note_on,,,,,95,0,1,,,,,0,,,63,0
165212,note_on,,,,,36,0,1,,,,,0,,,59,0
165249,note_on,,,,,37,0,1,,,,,0,,,61,34
165327,note_on,,,,,78,0,1,,,,,0,,,61,0
165327,note_on,,,,,0,0,1,,,,,0,,,53,0
165331,note_on,,,,,4,0,1,,,,,0,,,56,0
165851,note_on,,,,,520,0,1,,,,,0,,,58,42
165856,note_on,,,,,5,0,1,,,,,0,,,49,22
165860,note_on,,,,,4,0,1,,,,,0,,,52,39
165864,note_on,,,,,4,0,1,,,,,0,,,42,20
165870,note_on,,,,,6,0,1,,,,,0,,,30,20
165889,control_change,,,,,19,0,1,,,,,0,64,88,,
165893,control_change,,,,,4,0,1,,,,,0,64,0,,
165922,control_change,,,,,29,0,1,,,,,0,64,56,,
165926,control_change,,,,,4,0,1,,,,,0,64,127,,
165943,note_on,,,,,17,0,1,,,,,0,,,42,0
165944,note_on,,,,,1,0,1,,,,,0,,,30,0
165945,note_on,,,,,1,0,1,,,,,0,,,52,0
165949,note_on,,,,,4,0,1,,,,,0,,,58,0
165951,note_on,,,,,2,0,1,,,,,0,,,49,0
166058,note_on,,,,,107,0,1,,,,,0,,,59,66
166060,note_on,,,,,0,0,1,,,,,0,,,42,26
166060,note_on,,,,,2,0,1,,,,,0,,,30,28
166061,note_on,,,,,1,0,1,,,,,0,,,49,25
166062,note_on,,,,,1,0,1,,,,,0,,,56,38
166066,note_on,,,,,4,0,1,,,,,0,,,52,39
166079,control_change,,,,,13,0,1,,,,,0,64,56,,
166083,control_change,,,,,4,0,1,,,,,0,64,0,,
166102,control_change,,,,,19,0,1,,,,,0,64,24,,
166106,control_change,,,,,4,0,1,,,,,0,64,104,,
166111,control_change,,,,,5,0,1,,,,,0,64,127,,
166128,note_on,,,,,0,0,1,,,,,0,,,30,0
166128,note_on,,,,,17,0,1,,,,,0,,,42,0
166135,note_on,,,,,7,0,1,,,,,0,,,52,0
166138,note_on,,,,,3,0,1,,,,,0,,,49,0
166145,note_on,,,,,7,0,1,,,,,0,,,56,0
166145,note_on,,,,,0,0,1,,,,,0,,,59,0
166248,note_on,,,,,103,0,1,,,,,0,,,61,76
166250,note_on,,,,,2,0,1,,,,,0,,,30,37
166250,note_on,,,,,0,0,1,,,,,0,,,58,51
166253,note_on,,,,,0,0,1,,,,,0,,,42,30
166253,note_on,,,,,3,0,1,,,,,0,,,52,56
166276,control_change,,,,,23,0,1,,,,,0,64,72,,
166280,control_change,,,,,4,0,1,,,,,0,64,0,,
166300,control_change,,,,,20,0,1,,,,,0,64,40,,
166305,control_change,,,,,5,0,1,,,,,0,64,104,,
166309,control_change,,,,,4,0,1,,,,,0,64,127,,
166320,note_on,,,,,11,0,1,,,,,0,,,30,0
166324,note_on,,,,,4,0,1,,,,,0,,,42,0
166333,note_on,,,,,9,0,1,,,,,0,,,52,0
166344,note_on,,,,,11,0,1,,,,,0,,,61,0
166346,note_on,,,,,2,0,1,,,,,0,,,58,0
166457,note_on,,,,,111,0,1,,,,,0,,,63,73
166462,note_on,,,,,5,0,1,,,,,0,,,58,46
166464,note_on,,,,,2,0,1,,,,,0,,,52,53
166467,note_on,,,,,3,0,1,,,,,0,,,30,32
166470,note_on,,,,,3,0,1,,,,,0,,,42,27
166506,control_change,,,,,36,0,1,,,,,0,64,72,,
166510,control_change,,,,,4,0,1,,,,,0,64,0,,
166559,control_change,,,,,49,0,1,,,,,0,64,56,,
166563,control_change,,,,,4,0,1,,,,,0,64,104,,
166567,control_change,,,,,4,0,1,,,,,0,64,127,,
166975,note_on,,,,,408,0,1,,,,,0,,,61,34
166976,note_on,,,,,1,0,1,,,,,0,,,63,0
167022,control_change,,,,,46,0,1,,,,,0,64,88,,
167026,control_change,,,,,4,0,1,,,,,0,64,24,,
167030,control_change,,,,,4,0,1,,,,,0,64,0,,
167054,control_change,,,,,24,0,1,,,,,0,64,56,,
167058,control_change,,,,,4,0,1,,,,,0,64,127,,
167062,note_on,,,,,4,0,1,,,,,0,,,52,0
167075,note_on,,,,,13,0,1,,,,,0,,,30,0
167078,note_on,,,,,3,0,1,,,,,0,,,58,0
167078,note_on,,,,,0,0,1,,,,,0,,,42,0
167084,note_on,,,,,6,0,1,,,,,0,,,61,0
167409,note_on,,,,,325,0,1,,,,,0,,,66,53
167415,note_on,,,,,0,0,1,,,,,0,,,42,27
167415,note_on,,,,,6,0,1,,,,,0,,,57,29
167416,note_on,,,,,1,0,1,,,,,0,,,62,41
167417,note_on,,,,,1,0,1,,,,,0,,,30,27
167453,control_change,,,,,36,0,1,,,,,0,64,56,,
167457,control_change,,,,,4,0,1,,,,,0,64,0,,
167478,control_change,,,,,21,0,1,,,,,0,64,24,,
167482,control_change,,,,,4,0,1,,,,,0,64,88,,
167486,control_change,,,,,4,0,1,,,,,0,64,127,,
167510,note_on,,,,,24,0,1,,,,,0,,,42,0
167535,note_on,,,,,25,0,1,,,,,0,,,30,0
167539,note_on,,,,,4,0,1,,,,,0,,,62,0
167552,note_on,,,,,13,0,1,,,,,0,,,57,0
167567,note_on,,,,,15,0,1,,,,,0,,,66,0
167596,note_on,,,,,29,0,1,,,,,0,,,68,55
167602,note_on,,,,,6,0,1,,,,,0,,,40,29
167603,note_on,,,,,1,0,1,,,,,0,,,57,24
167604,note_on,,,,,1,0,1,,,,,0,,,64,46
167610,note_on,,,,,6,0,1,,,,,0,,,28,26
167639,control_change,,,,,29,0,1,,,,,0,64,56,,
167643,control_change,,,,,4,0,1,,,,,0,64,0,,
167664,control_change,,,,,21,0,1,,,,,0,64,72,,
167668,control_change,,,,,4,0,1,,,,,0,64,127,,
167682,note_on,,,,,14,0,1,,,,,0,,,64,0
167691,note_on,,,,,9,0,1,,,,,0,,,40,0
167696,note_on,,,,,5,0,1,,,,,0,,,28,0
167718,note_on,,,,,22,0,1,,,,,0,,,68,0
167722,note_on,,,,,4,0,1,,,,,0,,,57,0
167786,note_on,,,,,0,0,1,,,,,0,,,57,24
167786,note_on,,,,,64,0,1,,,,,0,,,69,53
167788,note_on,,,,,2,0,1,,,,,0,,,66,27
167791,note_on,,,,,3,0,1,,,,,0,,,38,24
167794,note_on,,,,,3,0,1,,,,,0,,,62,31
167796,note_on,,,,,2,0,1,,,,,0,,,26,34
167817,control_change,,,,,21,0,1,,,,,0,64,104,,
167821,control_change,,,,,4,0,1,,,,,0,64,40,,
167825,control_change,,,,,4,0,1,,,,,0,64,0,,
167852,control_change,,,,,27,0,1,,,,,0,64,88,,
167854,note_on,,,,,2,0,1,,,,,0,,,26,0
167857,note_on,,,,,3,0,1,,,,,0,,,38,0
167857,control_change,,,,,0,0,1,,,,,0,64,127,,
167932,note_on,,,,,75,0,1,,,,,0,,,66,0
167960,note_on,,,,,28,0,1,,,,,0,,,26,33
167970,control_change,,,,,10,0,1,,,,,0,64,72,,
167974,control_change,,,,,4,0,1,,,,,0,64,0,,
167990,control_change,,,,,16,0,1,,,,,0,64,24,,
167994,control_change,,,,,4,0,1,,,,,0,64,104,,
167996,note_on,,,,,2,0,1,,,,,0,,,62,0
167998,control_change,,,,,2,0,1,,,,,0,64,127,,
168009,note_on,,,,,11,0,1,,,,,0,,,38,43
168021,note_on,,,,,12,0,1,,,,,0,,,57,0
168058,note_on,,,,,37,0,1,,,,,0,,,57,34
168094,note_on,,,,,36,0,1,,,,,0,,,62,42
168098,note_on,,,,,4,0,1,,,,,0,,,57,0
168104,note_on,,,,,6,0,1,,,,,0,,,69,0
168128,note_on,,,,,24,0,1,,,,,0,,,62,0
168129,note_on,,,,,1,0,1,,,,,0,,,66,44
168195,note_on,,,,,66,0,1,,,,,0,,,71,62
168522,note_on,,,,,327,0,1,,,,,0,,,71,0
168593,note_on,,,,,71,0,1,,,,,0,,,69,33
168604,note_on,,,,,11,0,1,,,,,0,,,66,0
168672,note_on,,,,,68,0,1,,,,,0,,,69,0
168715,note_on,,,,,43,0,1,,,,,0,,,26,0
168724,note_on,,,,,9,0,1,,,,,0,,,38,0
169134,note_on,,,,,410,0,1,,,,,0,,,73,39
169138,note_on,,,,,4,0,1,,,,,0,,,58,22
169138,note_on,,,,,0,0,1,,,,,0,,,66,38
169146,note_on,,,,,0,0,1,,,,,0,,,37,19
169146,note_on,,,,,8,0,1,,,,,0,,,25,23
169163,control_change,,,,,17,0,1,,,,,0,64,72,,
169167,control_change,,,,,4,0,1,,,,,0,64,0,,
169196,control_change,,,,,29,0,1,,,,,0,64,40,,
169200,control_change,,,,,4,0,1,,,,,0,64,104,,
169204,control_change,,,,,4,0,1,,,,,0,64,127,,
169230,note_on,,,,,26,0,1,,,,,0,,,25,0
169236,note_on,,,,,6,0,1,,,,,0,,,37,0
169238,note_on,,,,,2,0,1,,,,,0,,,73,0
169238,note_on,,,,,0,0,1,,,,,0,,,58,0
169246,note_on,,,,,8,0,1,,,,,0,,,66,0
169610,note_on,,,,,364,0,1,,,,,0,,,73,26
169613,note_on,,,,,3,0,1,,,,,0,,,68,34
169616,note_on,,,,,3,0,1,,,,,0,,,59,20
169616,note_on,,,,,0,0,1,,,,,0,,,65,39
169618,note_on,,,,,2,0,1,,,,,0,,,37,20
169619,note_on,,,,,1,0,1,,,,,0,,,25,25
169639,control_change,,,,,20,0,1,,,,,0,64,72,,
169643,control_change,,,,,4,0,1,,,,,0,64,24,,
169647,control_change,,,,,4,0,1,,,,,0,64,0,,
169676,control_change,,,,,29,0,1,,,,,0,64,56,,
169680,control_change,,,,,4,0,1,,,,,0,64,127,,
169715,note_on,,,,,35,0,1,,,,,0,,,25,0
169717,note_on,,,,,2,0,1,,,,,0,,,37,0
169724,note_on,,,,,7,0,1,,,,,0,,,59,0
169735,note_on,,,,,11,0,1,,,,,0,,,65,0
169736,note_on,,,,,1,0,1,,,,,0,,,73,0
169738,note_on,,,,,2,0,1,,,,,0,,,68,0
170134,note_on,,,,,396,0,1,,,,,0,,,73,22
170136,note_on,,,,,2,0,1,,,,,0,,,58,15
170140,note_on,,,,,4,0,1,,,,,0,,,66,32
170142,note_on,,,,,2,0,1,,,,,0,,,42,25
170142,note_on,,,,,0,0,1,,,,,0,,,30,25
170144,note_on,,,,,2,0,1,,,,,0,,,37,19
170175,control_change,,,,,31,0,1,,,,,0,64,88,,
170180,control_change,,,,,5,0,1,,,,,0,64,40,,
170184,control_change,,,,,4,0,1,,,,,0,64,0,,
170228,control_change,,,,,44,0,1,,,,,0,64,24,,
170232,control_change,,,,,4,0,1,,,,,0,64,56,,
170236,control_change,,,,,4,0,1,,,,,0,64,104,,
170240,control_change,,,,,4,0,1,,,,,0,64,127,,
170368,note_on,,,,,128,0,1,,,,,0,,,37,0
170369,note_on,,,,,1,0,1,,,,,0,,,42,0
170369,note_on,,,,,0,0,1,,,,,0,,,30,0
170438,note_on,,,,,69,0,1,,,,,0,,,73,0
170439,note_on,,,,,1,0,1,,,,,0,,,58,0
170440,note_on,,,,,1,0,1,,,,,0,,,66,0
171062,control_change,,,,,622,0,1,,,,,0,64,104,,
171066,control_change,,,,,4,0,1,,,,,0,64,88,,
171070,control_change,,,,,4,0,1,,,,,0,64,56,,
171074,control_change,,,,,4,0,1,,,,,0,64,0,,
171074,end_of_track,,,,,0,1,1,,,,,,,,,
