tick,type,numerator,denominator,clocks_per_click,notated_32nd_notes_per_beat,time,meta,track,data,tempo,control,value,channel,program,key,note,velocity
0,control_change,,,,,0,0,1,,,0,0,0,,,,
0,end_of_track,,,,,0,1,4,,,,,,,,,
0,end_of_track,,,,,0,1,5,,,,,,,,,
0,end_of_track,,,,,0,1,6,,,,,,,,,
0,end_of_track,,,,,0,1,7,,,,,,,,,
0,end_of_track,,,,,0,1,8,,,,,,,,,
0,end_of_track,,,,,0,1,9,,,,,,,,,
0,end_of_track,,,,,0,1,10,,,,,,,,,
0,key_signature,,,,,0,1,1,,,,,,,C,,
0,key_signature,,,,,0,1,2,,,,,,,C,,
0,key_signature,,,,,0,1,3,,,,,,,C,,
0,end_of_track,,,,,0,1,3,,,,,,,,,
0,key_signature,,,,,0,1,4,,,,,,,C,,
0,key_signature,,,,,0,1,6,,,,,,,C,,
0,key_signature,,,,,0,1,7,,,,,,,C,,
0,key_signature,,,,,0,1,8,,,,,,,C,,
0,key_signature,,,,,0,1,9,,,,,,,C,,
0,key_signature,,,,,0,1,10,,,,,,,C,,
0,track_name,,,,,0,1,1,,,,,,,,,
0,program_change,,,,,0,0,1,,,,,0,0,,,
0,sequencer_specific,,,,,0,1,0,"(0, 0, 65)",,,,,,,,
0,set_tempo,,,,,0,1,0,,545454,,,,,,,
0,time_signature,4,4,96,8,0,1,0,,,,,,,,,
0,key_signature,,,,,0,1,5,,,,,,,C,,
0,end_of_track,,,,,0,1,2,,,,,,,,,
0,track_name,,,,,0,1,2,,,,,,,,,
60,control_change,,,,,60,0,1,,,64,24,0,,,,
84,control_change,,,,,24,0,1,,,64,40,0,,,,
144,control_change,,,,,60,0,1,,,64,24,0,,,,
176,control_change,,,,,32,0,1,,,64,72,0,,,,
184,control_change,,,,,8,0,1,,,64,88,0,,,,
192,control_change,,,,,8,0,1,,,64,104,0,,,,
200,control_change,,,,,8,0,1,,,64,127,0,,,,
296,note_on,,,,,96,0,1,,,,,0,,,70,78
392,note_off,,,,,96,0,1,,,,,0,,,70,0
440,control_change,,,,,48,0,1,,,64,88,0,,,,
444,note_on,,,,,4,0,1,,,,,0,,,68,82
448,control_change,,,,,4,0,1,,,64,0,0,,,,
452,note_on,,,,,4,0,1,,,,,0,,,59,66
480,control_change,,,,,28,0,1,,,64,40,0,,,,
484,control_change,,,,,4,0,1,,,64,127,0,,,,
516,note_off,,,,,32,0,1,,,,,0,,,59,0
524,note_on,,,,,8,0,1,,,,,0,,,62,46
560,note_off,,,,,36,0,1,,,,,0,,,62,0
580,note_on,,,,,20,0,1,,,,,0,,,59,43
624,note_off,,,,,44,0,1,,,,,0,,,59,0
628,note_on,,,,,4,0,1,,,,,0,,,62,45
676,note_off,,,,,48,0,1,,,,,0,,,62,0
688,note_on,,,,,12,0,1,,,,,0,,,59,53
740,note_off,,,,,52,0,1,,,,,0,,,59,0
748,note_on,,,,,8,0,1,,,,,0,,,62,48
796,note_off,,,,,48,0,1,,,,,0,,,62,0
808,note_on,,,,,12,0,1,,,,,0,,,59,44
856,note_off,,,,,48,0,1,,,,,0,,,59,0
860,note_on,,,,,4,0,1,,,,,0,,,62,43
912,note_off,,,,,52,0,1,,,,,0,,,62,0
916,note_on,,,,,4,0,1,,,,,0,,,59,48
972,note_off,,,,,56,0,1,,,,,0,,,59,0
980,note_on,,,,,8,0,1,,,,,0,,,62,47
1032,note_off,,,,,52,0,1,,,,,0,,,62,0
1040,note_on,,,,,8,0,1,,,,,0,,,59,44
1096,note_off,,,,,56,0,1,,,,,0,,,59,0
1112,note_on,,,,,16,0,1,,,,,0,,,62,51
1160,note_off,,,,,48,0,1,,,,,0,,,62,0
1172,note_on,,,,,12,0,1,,,,,0,,,59,43
1216,note_off,,,,,44,0,1,,,,,0,,,59,0
1228,note_on,,,,,12,0,1,,,,,0,,,62,48
1276,note_off,,,,,48,0,1,,,,,0,,,62,0
1284,note_on,,,,,8,0,1,,,,,0,,,66,81
1296,note_on,,,,,12,0,1,,,,,0,,,59,45
1304,note_off,,,,,8,0,1,,,,,0,,,68,0
1340,note_off,,,,,36,0,1,,,,,0,,,59,0
1356,note_on,,,,,16,0,1,,,,,0,,,62,42
1384,note_off,,,,,28,0,1,,,,,0,,,62,0
1436,note_off,,,,,52,0,1,,,,,0,,,66,0
1436,note_on,,,,,0,0,1,,,,,0,,,65,87
1440,control_change,,,,,4,0,1,,,64,104,0,,,,
1448,control_change,,,,,8,0,1,,,64,0,0,,,,
1452,note_on,,,,,4,0,1,,,,,0,,,59,41
1452,note_on,,,,,0,0,1,,,,,0,,,56,40
1496,note_off,,,,,44,0,1,,,,,0,,,59,0
1504,note_on,,,,,0,0,1,,,,,0,,,62,45
1504,note_off,,,,,8,0,1,,,,,0,,,56,0
1508,control_change,,,,,4,0,1,,,64,104,0,,,,
1516,control_change,,,,,8,0,1,,,64,127,0,,,,
1552,note_off,,,,,36,0,1,,,,,0,,,62,0
1568,note_on,,,,,16,0,1,,,,,0,,,59,41
1572,note_on,,,,,4,0,1,,,,,0,,,56,30
1612,note_off,,,,,40,0,1,,,,,0,,,59,0
1620,note_off,,,,,8,0,1,,,,,0,,,56,0
1624,note_on,,,,,4,0,1,,,,,0,,,62,50
1672,note_off,,,,,48,0,1,,,,,0,,,62,0
1680,note_on,,,,,8,0,1,,,,,0,,,56,34
1696,note_on,,,,,16,0,1,,,,,0,,,59,32
1720,note_off,,,,,24,0,1,,,,,0,,,59,0
1736,note_off,,,,,16,0,1,,,,,0,,,56,0
1740,note_on,,,,,4,0,1,,,,,0,,,62,44
1796,note_on,,,,,0,0,1,,,,,0,,,56,34
1796,note_off,,,,,56,0,1,,,,,0,,,62,0
1804,note_on,,,,,8,0,1,,,,,0,,,59,39
1844,note_off,,,,,40,0,1,,,,,0,,,59,0
1848,note_off,,,,,4,0,1,,,,,0,,,56,0
1856,note_on,,,,,8,0,1,,,,,0,,,62,56
1900,note_off,,,,,44,0,1,,,,,0,,,62,0
1908,note_on,,,,,0,0,1,,,,,0,,,56,42
1908,note_on,,,,,8,0,1,,,,,0,,,59,45
1948,note_off,,,,,40,0,1,,,,,0,,,59,0
1960,note_on,,,,,0,0,1,,,,,0,,,62,56
1960,note_off,,,,,12,0,1,,,,,0,,,56,0
2012,note_on,,,,,0,0,1,,,,,0,,,56,43
2012,note_off,,,,,52,0,1,,,,,0,,,62,0
2020,note_on,,,,,8,0,1,,,,,0,,,59,41
2056,note_off,,,,,36,0,1,,,,,0,,,59,0
2068,note_off,,,,,12,0,1,,,,,0,,,56,0
2072,note_on,,,,,4,0,1,,,,,0,,,62,57
2116,note_off,,,,,44,0,1,,,,,0,,,62,0
2128,note_on,,,,,12,0,1,,,,,0,,,56,43
2132,note_on,,,,,4,0,1,,,,,0,,,59,47
2172,note_off,,,,,40,0,1,,,,,0,,,59,0
2184,note_off,,,,,12,0,1,,,,,0,,,56,0
2188,note_on,,,,,4,0,1,,,,,0,,,62,60
2240,note_off,,,,,52,0,1,,,,,0,,,62,0
2248,note_on,,,,,8,0,1,,,,,0,,,66,80
2260,note_off,,,,,12,0,1,,,,,0,,,65,0
2260,note_on,,,,,0,0,1,,,,,0,,,59,32
2268,note_on,,,,,8,0,1,,,,,0,,,56,37
2308,note_off,,,,,40,0,1,,,,,0,,,59,0
2320,note_off,,,,,12,0,1,,,,,0,,,56,0
2320,note_on,,,,,0,0,1,,,,,0,,,62,53
2336,note_off,,,,,16,0,1,,,,,0,,,62,0
2452,note_on,,,,,116,0,1,,,,,0,,,62,81
2464,note_off,,,,,12,0,1,,,,,0,,,66,0
2468,note_on,,,,,4,0,1,,,,,0,,,54,48
2472,control_change,,,,,4,0,1,,,64,72,0,,,,
2480,control_change,,,,,8,0,1,,,64,0,0,,,,
2520,note_off,,,,,40,0,1,,,,,0,,,54,0
2524,note_on,,,,,4,0,1,,,,,0,,,58,34
2540,control_change,,,,,16,0,1,,,64,88,0,,,,
2548,control_change,,,,,8,0,1,,,64,127,0,,,,
2572,note_off,,,,,24,0,1,,,,,0,,,58,0
2584,note_on,,,,,12,0,1,,,,,0,,,54,43
2624,note_off,,,,,40,0,1,,,,,0,,,54,0
2636,note_on,,,,,12,0,1,,,,,0,,,58,31
2680,note_off,,,,,44,0,1,,,,,0,,,58,0
2688,note_on,,,,,8,0,1,,,,,0,,,54,43
2728,note_off,,,,,40,0,1,,,,,0,,,54,0
2740,note_on,,,,,12,0,1,,,,,0,,,58,27
2788,note_on,,,,,0,0,1,,,,,0,,,54,38
2788,note_off,,,,,48,0,1,,,,,0,,,58,0
2836,note_off,,,,,48,0,1,,,,,0,,,54,0
2844,note_on,,,,,8,0,1,,,,,0,,,58,38
2892,note_off,,,,,48,0,1,,,,,0,,,58,0
2896,note_on,,,,,4,0,1,,,,,0,,,54,43
2940,note_off,,,,,44,0,1,,,,,0,,,54,0
2948,note_on,,,,,8,0,1,,,,,0,,,58,32
3000,note_off,,,,,52,0,1,,,,,0,,,58,0
3000,note_on,,,,,0,0,1,,,,,0,,,54,39
3052,note_off,,,,,52,0,1,,,,,0,,,54,0
3056,note_on,,,,,4,0,1,,,,,0,,,58,33
3108,note_off,,,,,52,0,1,,,,,0,,,58,0
3108,note_on,,,,,0,0,1,,,,,0,,,54,43
3156,note_off,,,,,48,0,1,,,,,0,,,54,0
3160,note_on,,,,,4,0,1,,,,,0,,,58,34
3216,note_off,,,,,56,0,1,,,,,0,,,58,0
3216,note_on,,,,,0,0,1,,,,,0,,,54,47
3256,note_off,,,,,40,0,1,,,,,0,,,62,64
3264,note_off,,,,,8,0,1,,,,,0,,,54,0
3272,note_on,,,,,8,0,1,,,,,0,,,58,40
3320,note_on,,,,,48,0,1,,,,,0,,,54,46
3324,note_off,,,,,4,0,1,,,,,0,,,58,0
3368,note_off,,,,,44,0,1,,,,,0,,,54,0
3376,note_on,,,,,8,0,1,,,,,0,,,58,40
3428,note_off,,,,,52,0,1,,,,,0,,,58,0
3428,note_on,,,,,0,0,1,,,,,0,,,54,39
3476,note_off,,,,,48,0,1,,,,,0,,,54,0
3484,note_on,,,,,8,0,1,,,,,0,,,58,35
3536,note_off,,,,,52,0,1,,,,,0,,,58,0
3540,note_on,,,,,4,0,1,,,,,0,,,54,35
3584,note_off,,,,,44,0,1,,,,,0,,,54,0
3592,note_on,,,,,8,0,1,,,,,0,,,58,30
3640,note_off,,,,,48,0,1,,,,,0,,,58,0
3644,note_on,,,,,4,0,1,,,,,0,,,54,32
3688,note_off,,,,,44,0,1,,,,,0,,,54,0
3704,note_on,,,,,16,0,1,,,,,0,,,58,33
3748,note_off,,,,,44,0,1,,,,,0,,,58,0
3756,note_on,,,,,8,0,1,,,,,0,,,54,37
3792,note_off,,,,,36,0,1,,,,,0,,,54,0
3812,note_on,,,,,20,0,1,,,,,0,,,58,34
3852,note_off,,,,,40,0,1,,,,,0,,,58,0
3868,note_on,,,,,16,0,1,,,,,0,,,54,34
3912,note_off,,,,,44,0,1,,,,,0,,,54,0
4116,note_on,,,,,204,0,1,,,,,0,,,63,71
4260,note_off,,,,,144,0,1,,,,,0,,,63,0
4284,note_on,,,,,24,0,1,,,,,0,,,61,78
4300,note_on,,,,,16,0,1,,,,,0,,,54,49
4304,control_change,,,,,4,0,1,,,64,40,0,,,,
4312,control_change,,,,,8,0,1,,,64,0,0,,,,
4344,note_off,,,,,32,0,1,,,,,0,,,54,0
4356,note_on,,,,,12,0,1,,,,,0,,,57,30
4368,control_change,,,,,12,0,1,,,64,127,0,,,,
4380,note_off,,,,,12,0,1,,,,,0,,,57,0
4400,note_on,,,,,20,0,1,,,,,0,,,54,43
4440,note_off,,,,,40,0,1,,,,,0,,,54,0
4456,note_on,,,,,16,0,1,,,,,0,,,57,34
4488,note_off,,,,,32,0,1,,,,,0,,,57,0
4504,note_on,,,,,16,0,1,,,,,0,,,54,46
4552,note_off,,,,,48,0,1,,,,,0,,,54,0
4568,note_on,,,,,16,0,1,,,,,0,,,57,38
4604,note_off,,,,,36,0,1,,,,,0,,,57,0
4624,note_on,,,,,20,0,1,,,,,0,,,54,38
4668,note_off,,,,,44,0,1,,,,,0,,,54,0
4692,note_on,,,,,24,0,1,,,,,0,,,57,26
4724,note_off,,,,,32,0,1,,,,,0,,,57,0
4736,note_on,,,,,12,0,1,,,,,0,,,54,42
4784,note_off,,,,,48,0,1,,,,,0,,,54,0
4804,note_on,,,,,20,0,1,,,,,0,,,57,34
4844,note_off,,,,,40,0,1,,,,,0,,,57,0
4856,note_on,,,,,12,0,1,,,,,0,,,54,46
4904,note_off,,,,,48,0,1,,,,,0,,,54,0
4916,note_on,,,,,12,0,1,,,,,0,,,57,37
4964,note_off,,,,,48,0,1,,,,,0,,,57,0
4972,note_on,,,,,8,0,1,,,,,0,,,54,46
5012,note_off,,,,,40,0,1,,,,,0,,,54,0
5032,note_on,,,,,20,0,1,,,,,0,,,57,32
5060,note_off,,,,,28,0,1,,,,,0,,,57,0
5088,note_on,,,,,28,0,1,,,,,0,,,54,42
5092,note_on,,,,,4,0,1,,,,,0,,,60,78
5108,note_off,,,,,16,0,1,,,,,0,,,61,0
5136,note_off,,,,,28,0,1,,,,,0,,,54,0
5156,note_on,,,,,20,0,1,,,,,0,,,57,29
5188,note_off,,,,,32,0,1,,,,,0,,,57,0
5228,control_change,,,,,40,0,1,,,64,104,0,,,,
5232,note_on,,,,,4,0,1,,,,,0,,,59,76
5236,control_change,,,,,4,0,1,,,64,0,0,,,,
5240,note_off,,,,,4,0,1,,,,,0,,,60,0
5244,note_on,,,,,4,0,1,,,,,0,,,51,46
5248,note_on,,,,,4,0,1,,,,,0,,,54,40
5288,note_off,,,,,0,0,1,,,,,0,,,54,0
5288,note_off,,,,,40,0,1,,,,,0,,,51,0
5296,note_on,,,,,8,0,1,,,,,0,,,57,36
5296,control_change,,,,,0,0,1,,,64,104,0,,,,
5304,control_change,,,,,8,0,1,,,64,127,0,,,,
5340,note_off,,,,,36,0,1,,,,,0,,,57,0
5356,note_on,,,,,16,0,1,,,,,0,,,54,38
5360,note_on,,,,,4,0,1,,,,,0,,,51,37
5396,note_off,,,,,36,0,1,,,,,0,,,54,0
5404,note_off,,,,,8,0,1,,,,,0,,,51,0
5412,note_on,,,,,8,0,1,,,,,0,,,57,40
5460,note_off,,,,,48,0,1,,,,,0,,,57,0
5464,note_on,,,,,4,0,1,,,,,0,,,54,40
5472,note_on,,,,,8,0,1,,,,,0,,,51,28
5504,note_off,,,,,32,0,1,,,,,0,,,54,0
5508,note_off,,,,,4,0,1,,,,,0,,,51,0
5524,note_on,,,,,16,0,1,,,,,0,,,57,43
5568,note_off,,,,,44,0,1,,,,,0,,,57,0
5576,note_on,,,,,8,0,1,,,,,0,,,54,36
5580,note_on,,,,,4,0,1,,,,,0,,,51,37
5616,note_off,,,,,36,0,1,,,,,0,,,54,0
5620,note_off,,,,,4,0,1,,,,,0,,,51,0
5632,note_on,,,,,12,0,1,,,,,0,,,57,44
5676,note_off,,,,,44,0,1,,,,,0,,,57,0
5688,note_on,,,,,12,0,1,,,,,0,,,54,32
5692,note_on,,,,,4,0,1,,,,,0,,,51,37
5724,note_off,,,,,32,0,1,,,,,0,,,54,0
5732,note_off,,,,,8,0,1,,,,,0,,,51,0
5748,note_on,,,,,16,0,1,,,,,0,,,57,41
5788,note_off,,,,,40,0,1,,,,,0,,,57,0
5808,note_on,,,,,0,0,1,,,,,0,,,51,35
5808,note_on,,,,,20,0,1,,,,,0,,,54,33
5844,note_off,,,,,36,0,1,,,,,0,,,54,0
5852,note_off,,,,,8,0,1,,,,,0,,,51,0
5868,note_on,,,,,16,0,1,,,,,0,,,57,42
5908,note_off,,,,,40,0,1,,,,,0,,,57,0
5916,note_on,,,,,8,0,1,,,,,0,,,54,32
5924,note_on,,,,,8,0,1,,,,,0,,,51,42
5952,note_off,,,,,28,0,1,,,,,0,,,54,0
5964,note_off,,,,,12,0,1,,,,,0,,,51,0
5972,note_on,,,,,8,0,1,,,,,0,,,57,46
6016,note_off,,,,,44,0,1,,,,,0,,,57,0
6028,note_on,,,,,12,0,1,,,,,0,,,61,71
6032,note_on,,,,,4,0,1,,,,,0,,,54,34
6040,note_on,,,,,8,0,1,,,,,0,,,51,36
6052,note_off,,,,,12,0,1,,,,,0,,,59,0
6080,note_off,,,,,28,0,1,,,,,0,,,54,0
6088,note_off,,,,,8,0,1,,,,,0,,,51,0
6108,note_on,,,,,20,0,1,,,,,0,,,57,34
6128,note_off,,,,,20,0,1,,,,,0,,,57,0
6208,note_on,,,,,80,0,1,,,,,0,,,57,70
6216,note_off,,,,,8,0,1,,,,,0,,,61,0
6224,note_on,,,,,8,0,1,,,,,0,,,50,63
6232,control_change,,,,,8,0,1,,,64,40,0,,,,
6244,control_change,,,,,12,0,1,,,64,0,0,,,,
6284,note_off,,,,,40,0,1,,,,,0,,,50,0
6296,note_on,,,,,12,0,1,,,,,0,,,53,38
6304,control_change,,,,,8,0,1,,,64,127,0,,,,
6336,note_off,,,,,32,0,1,,,,,0,,,53,0
6356,note_on,,,,,20,0,1,,,,,0,,,50,49
6392,note_off,,,,,36,0,1,,,,,0,,,50,0
6412,note_on,,,,,20,0,1,,,,,0,,,53,26
6444,note_off,,,,,32,0,1,,,,,0,,,53,0
6460,note_on,,,,,16,0,1,,,,,0,,,50,45
6500,note_off,,,,,40,0,1,,,,,0,,,50,0
6520,note_on,,,,,20,0,1,,,,,0,,,53,31
6556,note_off,,,,,36,0,1,,,,,0,,,53,0
6568,note_on,,,,,12,0,1,,,,,0,,,50,46
6604,note_off,,,,,36,0,1,,,,,0,,,50,0
6620,note_on,,,,,16,0,1,,,,,0,,,53,42
6656,note_off,,,,,36,0,1,,,,,0,,,53,0
6668,note_on,,,,,12,0,1,,,,,0,,,50,50
6708,note_off,,,,,40,0,1,,,,,0,,,50,0
6724,note_on,,,,,16,0,1,,,,,0,,,53,37
6768,note_off,,,,,44,0,1,,,,,0,,,53,0
6780,note_on,,,,,12,0,1,,,,,0,,,50,48
6816,note_off,,,,,36,0,1,,,,,0,,,50,0
6836,note_on,,,,,20,0,1,,,,,0,,,53,32
6868,note_off,,,,,32,0,1,,,,,0,,,53,0
6884,note_on,,,,,16,0,1,,,,,0,,,50,49
6924,note_off,,,,,40,0,1,,,,,0,,,50,0
6940,note_on,,,,,16,0,1,,,,,0,,,53,32
6988,note_off,,,,,48,0,1,,,,,0,,,53,0
6992,note_on,,,,,4,0,1,,,,,0,,,50,46
7040,note_off,,,,,48,0,1,,,,,0,,,50,0
7052,note_on,,,,,12,0,1,,,,,0,,,53,48
7100,note_off,,,,,48,0,1,,,,,0,,,53,0
7104,note_on,,,,,4,0,1,,,,,0,,,50,48
7160,note_off,,,,,56,0,1,,,,,0,,,50,0
7168,note_on,,,,,8,0,1,,,,,0,,,53,39
7220,note_off,,,,,52,0,1,,,,,0,,,53,0
7228,note_on,,,,,8,0,1,,,,,0,,,50,41
7272,note_off,,,,,44,0,1,,,,,0,,,50,0
7284,note_on,,,,,12,0,1,,,,,0,,,53,35
7328,note_off,,,,,44,0,1,,,,,0,,,53,0
7344,note_on,,,,,16,0,1,,,,,0,,,50,42
7384,note_off,,,,,40,0,1,,,,,0,,,50,0
7400,note_on,,,,,16,0,1,,,,,0,,,53,37
7436,note_off,,,,,36,0,1,,,,,0,,,53,0
7456,note_on,,,,,20,0,1,,,,,0,,,50,45
7488,note_off,,,,,32,0,1,,,,,0,,,50,0
7512,note_on,,,,,24,0,1,,,,,0,,,53,33
7540,note_off,,,,,28,0,1,,,,,0,,,53,0
7572,note_on,,,,,32,0,1,,,,,0,,,50,39
7596,note_off,,,,,24,0,1,,,,,0,,,50,0
7636,note_on,,,,,40,0,1,,,,,0,,,53,18
7656,note_off,,,,,20,0,1,,,,,0,,,53,0
7828,note_on,,,,,172,0,1,,,,,0,,,58,73
7832,note_off,,,,,4,0,1,,,,,0,,,57,0
8056,control_change,,,,,224,0,1,,,67,127,0,,,,
8064,note_on,,,,,8,0,1,,,,,0,,,56,81
8072,control_change,,,,,8,0,1,,,64,88,0,,,,
8080,control_change,,,,,8,0,1,,,64,0,0,,,,
8088,note_off,,,,,8,0,1,,,,,0,,,58,0
8092,note_on,,,,,4,0,1,,,,,0,,,47,47
8132,note_off,,,,,40,0,1,,,,,0,,,47,0
8148,control_change,,,,,0,0,1,,,64,127,0,,,,
8148,note_on,,,,,16,0,1,,,,,0,,,50,45
8172,note_off,,,,,24,0,1,,,,,0,,,50,0
8200,note_on,,,,,28,0,1,,,,,0,,,47,40
8208,control_change,,,,,8,0,1,,,67,0,0,,,,
8224,note_off,,,,,16,0,1,,,,,0,,,47,0
8240,note_on,,,,,16,0,1,,,,,0,,,50,41
8268,note_off,,,,,28,0,1,,,,,0,,,50,0
8292,note_on,,,,,24,0,1,,,,,0,,,47,49
8324,note_off,,,,,32,0,1,,,,,0,,,47,0
8344,note_on,,,,,20,0,1,,,,,0,,,50,42
8368,note_off,,,,,24,0,1,,,,,0,,,50,0
8392,note_on,,,,,24,0,1,,,,,0,,,47,49
8432,note_off,,,,,40,0,1,,,,,0,,,47,0
8440,note_on,,,,,8,0,1,,,,,0,,,50,44
8484,note_off,,,,,44,0,1,,,,,0,,,50,0
8496,note_on,,,,,12,0,1,,,,,0,,,47,45
8536,note_off,,,,,40,0,1,,,,,0,,,47,0
8552,note_on,,,,,16,0,1,,,,,0,,,50,41
8580,note_off,,,,,28,0,1,,,,,0,,,50,0
8608,note_on,,,,,28,0,1,,,,,0,,,47,48
8648,note_off,,,,,40,0,1,,,,,0,,,47,0
8664,note_on,,,,,16,0,1,,,,,0,,,50,44
8708,note_off,,,,,44,0,1,,,,,0,,,50,0
8720,note_on,,,,,12,0,1,,,,,0,,,47,51
8760,note_off,,,,,40,0,1,,,,,0,,,47,0
8772,note_on,,,,,12,0,1,,,,,0,,,50,51
8820,note_off,,,,,48,0,1,,,,,0,,,50,0
8836,note_on,,,,,16,0,1,,,,,0,,,54,76
8836,note_on,,,,,0,0,1,,,,,0,,,47,38
8860,note_off,,,,,24,0,1,,,,,0,,,56,0
8876,note_off,,,,,16,0,1,,,,,0,,,47,0
8904,note_on,,,,,28,0,1,,,,,0,,,50,21
8932,note_off,,,,,28,0,1,,,,,0,,,50,0
8968,note_on,,,,,36,0,1,,,,,0,,,53,85
8984,control_change,,,,,16,0,1,,,64,40,0,,,,
8992,note_on,,,,,8,0,1,,,,,0,,,44,35
8992,control_change,,,,,0,0,1,,,64,0,0,,,,
8996,note_off,,,,,4,0,1,,,,,0,,,54,0
9000,note_on,,,,,4,0,1,,,,,0,,,47,34
9024,note_off,,,,,24,0,1,,,,,0,,,47,0
9036,note_on,,,,,0,0,1,,,,,0,,,50,41
9036,note_off,,,,,12,0,1,,,,,0,,,44,0
9052,control_change,,,,,16,0,1,,,64,127,0,,,,
9088,note_off,,,,,36,0,1,,,,,0,,,50,0
9100,note_on,,,,,12,0,1,,,,,0,,,44,25
9112,note_on,,,,,12,0,1,,,,,0,,,47,26
9132,note_off,,,,,20,0,1,,,,,0,,,47,0
9140,note_off,,,,,8,0,1,,,,,0,,,44,0
9148,note_on,,,,,8,0,1,,,,,0,,,50,45
9200,note_off,,,,,52,0,1,,,,,0,,,50,0
9212,note_on,,,,,12,0,1,,,,,0,,,44,29
9224,note_on,,,,,12,0,1,,,,,0,,,47,24
9248,note_off,,,,,24,0,1,,,,,0,,,47,0
9252,note_off,,,,,4,0,1,,,,,0,,,44,0
9264,note_on,,,,,12,0,1,,,,,0,,,50,48
9312,note_off,,,,,48,0,1,,,,,0,,,50,0
9328,note_on,,,,,16,0,1,,,,,0,,,44,30
9332,note_on,,,,,4,0,1,,,,,0,,,47,22
9352,note_off,,,,,20,0,1,,,,,0,,,47,0
9360,note_off,,,,,8,0,1,,,,,0,,,44,0
9372,note_on,,,,,12,0,1,,,,,0,,,50,42
9416,note_off,,,,,44,0,1,,,,,0,,,50,0
9424,note_on,,,,,0,0,1,,,,,0,,,47,33
9424,note_on,,,,,8,0,1,,,,,0,,,44,26
9460,note_off,,,,,36,0,1,,,,,0,,,47,0
9472,note_off,,,,,12,0,1,,,,,0,,,44,0
9484,note_on,,,,,12,0,1,,,,,0,,,50,48
9528,note_off,,,,,44,0,1,,,,,0,,,50,0
9536,note_on,,,,,8,0,1,,,,,0,,,44,34
9544,note_on,,,,,8,0,1,,,,,0,,,47,38
9572,note_off,,,,,28,0,1,,,,,0,,,47,0
9584,note_off,,,,,12,0,1,,,,,0,,,44,0
9596,note_on,,,,,12,0,1,,,,,0,,,50,47
9612,note_off,,,,,16,0,1,,,,,0,,,53,0
9640,note_off,,,,,28,0,1,,,,,0,,,50,0
9648,note_on,,,,,8,0,1,,,,,0,,,44,30
9660,note_on,,,,,12,0,1,,,,,0,,,47,28
9680,note_off,,,,,20,0,1,,,,,0,,,47,0
9692,note_off,,,,,12,0,1,,,,,0,,,44,0
9700,note_on,,,,,8,0,1,,,,,0,,,50,53
9744,note_off,,,,,44,0,1,,,,,0,,,50,0
9756,note_on,,,,,12,0,1,,,,,0,,,54,73
9764,note_on,,,,,8,0,1,,,,,0,,,47,29
9768,note_on,,,,,4,0,1,,,,,0,,,44,32
9800,note_off,,,,,32,0,1,,,,,0,,,47,0
9820,note_off,,,,,20,0,1,,,,,0,,,44,0
9824,note_on,,,,,4,0,1,,,,,0,,,50,48
9844,note_off,,,,,20,0,1,,,,,0,,,50,0
9948,note_on,,,,,104,0,1,,,,,0,,,50,79
9968,note_on,,,,,20,0,1,,,,,0,,,42,48
9968,control_change,,,,,0,0,1,,,64,40,0,,,,
9976,control_change,,,,,8,0,1,,,64,0,0,,,,
9984,note_off,,,,,8,0,1,,,,,0,,,54,0
10016,control_change,,,,,0,0,1,,,67,127,0,,,,
10016,note_off,,,,,32,0,1,,,,,0,,,42,0
10020,note_on,,,,,4,0,1,,,,,0,,,46,30
10036,control_change,,,,,16,0,1,,,64,56,0,,,,
10040,control_change,,,,,4,0,1,,,67,0,0,,,,
10048,control_change,,,,,8,0,1,,,64,127,0,,,,
10064,note_off,,,,,16,0,1,,,,,0,,,46,0
10072,note_on,,,,,8,0,1,,,,,0,,,42,40
10112,note_off,,,,,40,0,1,,,,,0,,,42,0
10120,note_on,,,,,8,0,1,,,,,0,,,46,34
10160,note_off,,,,,40,0,1,,,,,0,,,46,0
10172,note_on,,,,,12,0,1,,,,,0,,,42,36
10212,note_off,,,,,40,0,1,,,,,0,,,42,0
10228,note_on,,,,,16,0,1,,,,,0,,,46,26
10268,note_off,,,,,40,0,1,,,,,0,,,46,0
10272,note_on,,,,,4,0,1,,,,,0,,,42,36
10320,note_off,,,,,48,0,1,,,,,0,,,42,0
10328,note_on,,,,,8,0,1,,,,,0,,,46,33
10384,note_off,,,,,56,0,1,,,,,0,,,46,0
10384,note_on,,,,,0,0,1,,,,,0,,,42,32
10416,note_off,,,,,32,0,1,,,,,0,,,42,0
10432,note_on,,,,,16,0,1,,,,,0,,,46,44
10468,note_on,,,,,0,0,1,,,,,0,,,42,43
10468,note_off,,,,,36,0,1,,,,,0,,,46,0
10516,note_off,,,,,48,0,1,,,,,0,,,42,0
10524,note_on,,,,,8,0,1,,,,,0,,,46,40
10564,note_off,,,,,40,0,1,,,,,0,,,46,0
10568,note_on,,,,,4,0,1,,,,,0,,,42,40
10612,note_off,,,,,44,0,1,,,,,0,,,42,0
10628,note_on,,,,,16,0,1,,,,,0,,,46,27
10672,note_on,,,,,0,0,1,,,,,0,,,42,40
10672,note_off,,,,,44,0,1,,,,,0,,,46,0
10720,note_off,,,,,48,0,1,,,,,0,,,42,0
10728,note_on,,,,,8,0,1,,,,,0,,,46,40
10796,note_on,,,,,68,0,1,,,,,0,,,42,27
10816,note_off,,,,,20,0,1,,,,,0,,,42,0
10864,note_off,,,,,48,0,1,,,,,0,,,46,0
10864,note_on,,,,,0,0,1,,,,,0,,,42,37
10904,note_off,,,,,40,0,1,,,,,0,,,42,0
10916,note_on,,,,,12,0,1,,,,,0,,,46,42
10960,note_off,,,,,44,0,1,,,,,0,,,46,0
10964,note_on,,,,,4,0,1,,,,,0,,,42,40
11008,note_off,,,,,44,0,1,,,,,0,,,42,0
11020,note_on,,,,,12,0,1,,,,,0,,,46,30
11064,note_off,,,,,44,0,1,,,,,0,,,46,0
11068,note_on,,,,,4,0,1,,,,,0,,,42,37
11112,note_off,,,,,44,0,1,,,,,0,,,42,0
11120,note_on,,,,,8,0,1,,,,,0,,,46,34
11168,note_off,,,,,48,0,1,,,,,0,,,46,0
11176,note_on,,,,,8,0,1,,,,,0,,,42,39
11220,note_off,,,,,44,0,1,,,,,0,,,42,0
11232,note_on,,,,,12,0,1,,,,,0,,,46,37
11280,note_off,,,,,48,0,1,,,,,0,,,46,0
11280,note_on,,,,,0,0,1,,,,,0,,,42,37
11328,note_off,,,,,48,0,1,,,,,0,,,42,0
11344,note_on,,,,,16,0,1,,,,,0,,,46,33
11380,note_off,,,,,36,0,1,,,,,0,,,46,0
11388,note_on,,,,,8,0,1,,,,,0,,,42,33
11456,note_off,,,,,68,0,1,,,,,0,,,42,0
11456,note_on,,,,,0,0,1,,,,,0,,,46,26
11484,note_off,,,,,28,0,1,,,,,0,,,46,0
11556,note_off,,,,,72,0,1,,,,,0,,,50,0
11556,note_on,,,,,0,0,1,,,,,0,,,51,80
11796,control_change,,,,,0,0,1,,,64,56,0,,,,
11796,note_on,,,,,240,0,1,,,,,0,,,49,79
11804,control_change,,,,,8,0,1,,,64,0,0,,,,
11808,note_on,,,,,4,0,1,,,,,0,,,42,56
11812,note_off,,,,,4,0,1,,,,,0,,,51,0
11864,note_off,,,,,52,0,1,,,,,0,,,42,0
11876,note_on,,,,,12,0,1,,,,,0,,,45,42
11880,control_change,,,,,4,0,1,,,64,127,0,,,,
11908,note_off,,,,,28,0,1,,,,,0,,,45,0
11916,note_on,,,,,8,0,1,,,,,0,,,42,46
11964,note_off,,,,,48,0,1,,,,,0,,,42,0
11976,note_on,,,,,12,0,1,,,,,0,,,45,43
12016,note_off,,,,,40,0,1,,,,,0,,,45,0
12028,note_on,,,,,12,0,1,,,,,0,,,42,47
12072,note_off,,,,,44,0,1,,,,,0,,,42,0
12084,note_on,,,,,12,0,1,,,,,0,,,45,44
12128,note_off,,,,,44,0,1,,,,,0,,,45,0
12132,note_on,,,,,4,0,1,,,,,0,,,42,51
12176,note_off,,,,,44,0,1,,,,,0,,,42,0
12192,note_on,,,,,16,0,1,,,,,0,,,45,55
12232,note_off,,,,,40,0,1,,,,,0,,,45,0
12240,note_on,,,,,8,0,1,,,,,0,,,42,54
12288,note_off,,,,,48,0,1,,,,,0,,,42,0
12300,note_on,,,,,12,0,1,,,,,0,,,45,49
12336,note_off,,,,,36,0,1,,,,,0,,,45,0
12344,note_on,,,,,8,0,1,,,,,0,,,42,49
12388,note_off,,,,,44,0,1,,,,,0,,,42,0
12408,note_on,,,,,20,0,1,,,,,0,,,45,38
12432,note_off,,,,,24,0,1,,,,,0,,,45,0
12448,note_on,,,,,16,0,1,,,,,0,,,42,44
12480,note_off,,,,,32,0,1,,,,,0,,,42,0
12496,note_on,,,,,16,0,1,,,,,0,,,45,46
12532,note_off,,,,,36,0,1,,,,,0,,,45,0
12548,note_on,,,,,16,0,1,,,,,0,,,42,50
12584,note_off,,,,,36,0,1,,,,,0,,,42,0
12588,note_off,,,,,4,0,1,,,,,0,,,49,0
12592,note_on,,,,,4,0,1,,,,,0,,,48,82
12608,note_on,,,,,16,0,1,,,,,0,,,45,25
12664,note_off,,,,,56,0,1,,,,,0,,,45,0
12724,note_on,,,,,60,0,1,,,,,0,,,47,74
12724,control_change,,,,,0,0,1,,,67,127,0,,,,
12728,note_off,,,,,4,0,1,,,,,0,,,48,0
12740,note_on,,,,,12,0,1,,,,,0,,,39,47
12740,note_on,,,,,0,0,1,,,,,0,,,42,34
12748,control_change,,,,,8,0,1,,,64,56,0,,,,
12756,control_change,,,,,8,0,1,,,64,0,0,,,,
12792,note_off,,,,,36,0,1,,,,,0,,,42,0
12800,note_on,,,,,0,0,1,,,,,0,,,45,36
12800,note_off,,,,,8,0,1,,,,,0,,,39,0
12816,control_change,,,,,16,0,1,,,64,88,0,,,,
12828,control_change,,,,,12,0,1,,,64,127,0,,,,
12836,note_off,,,,,8,0,1,,,,,0,,,45,0
12856,note_on,,,,,20,0,1,,,,,0,,,42,32
12856,note_on,,,,,0,0,1,,,,,0,,,39,30
12892,note_off,,,,,36,0,1,,,,,0,,,42,0
12904,note_off,,,,,12,0,1,,,,,0,,,39,0
12908,note_on,,,,,4,0,1,,,,,0,,,45,37
12952,note_off,,,,,44,0,1,,,,,0,,,45,0
12964,note_on,,,,,12,0,1,,,,,0,,,39,32
12964,note_on,,,,,0,0,1,,,,,0,,,42,30
13000,note_off,,,,,36,0,1,,,,,0,,,42,0
13012,note_off,,,,,12,0,1,,,,,0,,,39,0
13024,note_on,,,,,12,0,1,,,,,0,,,45,40
13068,note_off,,,,,44,0,1,,,,,0,,,45,0
13072,note_on,,,,,4,0,1,,,,,0,,,39,30
13080,note_on,,,,,8,0,1,,,,,0,,,42,30
13108,note_off,,,,,28,0,1,,,,,0,,,42,0
13120,note_off,,,,,12,0,1,,,,,0,,,39,0
13140,note_on,,,,,20,0,1,,,,,0,,,45,41
13176,note_off,,,,,36,0,1,,,,,0,,,45,0
13188,note_on,,,,,12,0,1,,,,,0,,,39,23
13188,note_on,,,,,0,0,1,,,,,0,,,42,34
13224,note_off,,,,,36,0,1,,,,,0,,,42,0
13232,note_off,,,,,8,0,1,,,,,0,,,39,0
13244,note_on,,,,,12,0,1,,,,,0,,,45,40
13276,note_off,,,,,32,0,1,,,,,0,,,45,0
13292,note_on,,,,,16,0,1,,,,,0,,,39,27
13296,note_on,,,,,4,0,1,,,,,0,,,42,33
13328,note_off,,,,,32,0,1,,,,,0,,,42,0
13340,note_off,,,,,12,0,1,,,,,0,,,39,0
13352,note_on,,,,,12,0,1,,,,,0,,,45,36
13388,note_off,,,,,36,0,1,,,,,0,,,45,0
13408,note_on,,,,,0,0,1,,,,,0,,,42,29
13408,note_on,,,,,20,0,1,,,,,0,,,39,25
13436,note_off,,,,,28,0,1,,,,,0,,,42,0
13448,note_off,,,,,12,0,1,,,,,0,,,39,0
13460,note_on,,,,,12,0,1,,,,,0,,,45,42
13500,note_off,,,,,40,0,1,,,,,0,,,45,0
13520,note_on,,,,,0,0,1,,,,,0,,,42,25
13520,note_on,,,,,20,0,1,,,,,0,,,39,25
13544,note_off,,,,,24,0,1,,,,,0,,,42,0
13552,note_on,,,,,8,0,1,,,,,0,,,49,69
13568,note_off,,,,,16,0,1,,,,,0,,,47,0
13608,note_off,,,,,40,0,1,,,,,0,,,39,0
13696,note_off,,,,,88,0,1,,,,,0,,,49,0
13712,note_on,,,,,16,0,1,,,,,0,,,45,80
13740,control_change,,,,,0,0,1,,,64,104,0,,,,
13740,note_on,,,,,28,0,1,,,,,0,,,38,42
13748,control_change,,,,,8,0,1,,,64,0,0,,,,
13784,note_off,,,,,36,0,1,,,,,0,,,38,0
13800,note_on,,,,,16,0,1,,,,,0,,,41,36
13820,control_change,,,,,20,0,1,,,64,127,0,,,,
13832,note_off,,,,,12,0,1,,,,,0,,,41,0
13844,note_on,,,,,12,0,1,,,,,0,,,38,46
13888,note_off,,,,,44,0,1,,,,,0,,,38,0
13900,note_on,,,,,12,0,1,,,,,0,,,41,31
13932,note_off,,,,,32,0,1,,,,,0,,,41,0
13952,note_on,,,,,20,0,1,,,,,0,,,38,45
13964,control_change,,,,,12,0,1,,,67,0,0,,,,
13988,note_off,,,,,24,0,1,,,,,0,,,38,0
14012,note_on,,,,,24,0,1,,,,,0,,,41,28
14040,note_off,,,,,28,0,1,,,,,0,,,41,0
14056,note_on,,,,,16,0,1,,,,,0,,,38,40
14092,note_off,,,,,36,0,1,,,,,0,,,38,0
14112,note_on,,,,,20,0,1,,,,,0,,,41,26
14144,note_off,,,,,32,0,1,,,,,0,,,41,0
14156,note_on,,,,,12,0,1,,,,,0,,,38,39
14196,note_off,,,,,40,0,1,,,,,0,,,38,0
14216,note_on,,,,,20,0,1,,,,,0,,,41,26
14248,note_off,,,,,32,0,1,,,,,0,,,41,0
14264,note_on,,,,,16,0,1,,,,,0,,,38,38
14304,note_off,,,,,40,0,1,,,,,0,,,38,0
14320,note_on,,,,,16,0,1,,,,,0,,,41,28
14352,note_off,,,,,32,0,1,,,,,0,,,41,0
14368,note_on,,,,,16,0,1,,,,,0,,,38,38
14408,note_off,,,,,40,0,1,,,,,0,,,38,0
14424,note_on,,,,,16,0,1,,,,,0,,,41,31
14460,note_off,,,,,36,0,1,,,,,0,,,41,0
14476,note_on,,,,,16,0,1,,,,,0,,,38,36
14516,note_off,,,,,40,0,1,,,,,0,,,38,0
14536,note_on,,,,,20,0,1,,,,,0,,,41,25
14568,note_off,,,,,32,0,1,,,,,0,,,41,0
14580,note_on,,,,,12,0,1,,,,,0,,,38,36
14632,note_off,,,,,52,0,1,,,,,0,,,38,0
14652,note_on,,,,,20,0,1,,,,,0,,,41,30
14688,note_off,,,,,36,0,1,,,,,0,,,41,0
14700,note_on,,,,,12,0,1,,,,,0,,,38,33
14744,note_off,,,,,44,0,1,,,,,0,,,38,0
14760,note_on,,,,,16,0,1,,,,,0,,,41,25
14796,note_off,,,,,36,0,1,,,,,0,,,41,0
14808,note_on,,,,,12,0,1,,,,,0,,,38,33
14848,note_off,,,,,40,0,1,,,,,0,,,38,0
14884,note_on,,,,,36,0,1,,,,,0,,,41,22
14912,note_off,,,,,28,0,1,,,,,0,,,41,0
14920,note_on,,,,,8,0,1,,,,,0,,,38,37
14960,note_off,,,,,40,0,1,,,,,0,,,38,0
15000,note_on,,,,,40,0,1,,,,,0,,,41,24
15032,note_off,,,,,32,0,1,,,,,0,,,45,0
15032,note_off,,,,,0,0,1,,,,,0,,,41,0
15036,note_on,,,,,4,0,1,,,,,0,,,46,59
15044,note_on,,,,,8,0,1,,,,,0,,,38,39
15080,note_off,,,,,36,0,1,,,,,0,,,38,0
15116,note_on,,,,,36,0,1,,,,,0,,,41,18
15140,note_off,,,,,24,0,1,,,,,0,,,41,0
15152,note_on,,,,,12,0,1,,,,,0,,,38,38
15184,note_off,,,,,32,0,1,,,,,0,,,38,0
15196,note_off,,,,,12,0,1,,,,,0,,,46,0
15208,note_on,,,,,12,0,1,,,,,0,,,41,30
15248,note_off,,,,,40,0,1,,,,,0,,,41,0
15264,note_on,,,,,16,0,1,,,,,0,,,38,40
15268,control_change,,,,,4,0,1,,,67,127,0,,,,
15296,note_off,,,,,28,0,1,,,,,0,,,38,0
15324,note_on,,,,,28,0,1,,,,,0,,,41,25
15352,note_off,,,,,28,0,1,,,,,0,,,41,0
15380,note_on,,,,,28,0,1,,,,,0,,,38,33
15404,note_off,,,,,24,0,1,,,,,0,,,38,0
15540,control_change,,,,,136,0,1,,,64,104,0,,,,
15544,control_change,,,,,4,0,1,,,64,0,0,,,,
15560,note_on,,,,,16,0,1,,,,,0,,,35,48
15608,control_change,,,,,48,0,1,,,64,88,0,,,,
15616,control_change,,,,,0,0,1,,,64,127,0,,,,
15616,note_off,,,,,8,0,1,,,,,0,,,35,0
15632,note_on,,,,,16,0,1,,,,,0,,,47,30
15664,note_off,,,,,32,0,1,,,,,0,,,47,0
15688,note_on,,,,,24,0,1,,,,,0,,,35,33
15716,note_off,,,,,28,0,1,,,,,0,,,35,0
15736,note_on,,,,,20,0,1,,,,,0,,,47,33
15768,note_off,,,,,32,0,1,,,,,0,,,47,0
15800,note_on,,,,,32,0,1,,,,,0,,,35,44
15824,note_off,,,,,24,0,1,,,,,0,,,35,0
15852,note_on,,,,,28,0,1,,,,,0,,,47,29
15888,note_off,,,,,36,0,1,,,,,0,,,47,0
15916,note_on,,,,,28,0,1,,,,,0,,,35,35
15940,note_off,,,,,24,0,1,,,,,0,,,35,0
16016,note_on,,,,,76,0,1,,,,,0,,,35,46
16040,note_off,,,,,24,0,1,,,,,0,,,35,0
16072,note_on,,,,,32,0,1,,,,,0,,,47,28
16100,note_off,,,,,28,0,1,,,,,0,,,47,0
16124,note_on,,,,,24,0,1,,,,,0,,,35,44
16144,note_off,,,,,20,0,1,,,,,0,,,35,0
16176,note_on,,,,,32,0,1,,,,,0,,,47,44
16200,note_off,,,,,24,0,1,,,,,0,,,47,0
16228,note_on,,,,,28,0,1,,,,,0,,,35,45
16248,note_off,,,,,20,0,1,,,,,0,,,35,0
16280,note_on,,,,,32,0,1,,,,,0,,,47,44
16304,note_off,,,,,24,0,1,,,,,0,,,47,0
16336,note_on,,,,,32,0,1,,,,,0,,,35,41
16356,note_off,,,,,20,0,1,,,,,0,,,35,0
16388,note_on,,,,,32,0,1,,,,,0,,,47,44
16412,note_off,,,,,24,0,1,,,,,0,,,47,0
16444,note_on,,,,,32,0,1,,,,,0,,,35,43
16464,note_off,,,,,20,0,1,,,,,0,,,35,0
16496,note_on,,,,,32,0,1,,,,,0,,,47,25
16528,note_off,,,,,32,0,1,,,,,0,,,47,0
16560,note_on,,,,,32,0,1,,,,,0,,,35,35
16580,note_off,,,,,20,0,1,,,,,0,,,35,0
16604,note_on,,,,,24,0,1,,,,,0,,,47,25
16640,note_off,,,,,36,0,1,,,,,0,,,47,0
16664,note_on,,,,,24,0,1,,,,,0,,,35,37
16684,note_off,,,,,20,0,1,,,,,0,,,35,0
16712,note_on,,,,,28,0,1,,,,,0,,,47,30
16748,note_off,,,,,36,0,1,,,,,0,,,47,0
16776,note_on,,,,,28,0,1,,,,,0,,,35,41
16796,note_off,,,,,20,0,1,,,,,0,,,35,0
16828,note_on,,,,,32,0,1,,,,,0,,,47,22
16856,note_off,,,,,28,0,1,,,,,0,,,47,0
16884,note_on,,,,,28,0,1,,,,,0,,,35,42
16904,note_off,,,,,20,0,1,,,,,0,,,35,0
16936,note_on,,,,,32,0,1,,,,,0,,,47,44
16960,note_off,,,,,24,0,1,,,,,0,,,47,0
16992,note_on,,,,,32,0,1,,,,,0,,,35,44
17024,note_off,,,,,32,0,1,,,,,0,,,35,0
17052,note_on,,,,,28,0,1,,,,,0,,,47,44
17092,note_off,,,,,40,0,1,,,,,0,,,47,0
17108,note_on,,,,,16,0,1,,,,,0,,,35,43
17136,note_off,,,,,28,0,1,,,,,0,,,35,0
17164,note_on,,,,,28,0,1,,,,,0,,,47,33
17204,note_off,,,,,40,0,1,,,,,0,,,47,0
17236,note_on,,,,,32,0,1,,,,,0,,,35,41
17256,note_off,,,,,20,0,1,,,,,0,,,35,0
17288,note_on,,,,,32,0,1,,,,,0,,,47,35
17336,note_off,,,,,48,0,1,,,,,0,,,47,0
17388,note_on,,,,,52,0,1,,,,,0,,,35,31
17444,note_on,,,,,56,0,1,,,,,0,,,47,37
17452,note_off,,,,,8,0,1,,,,,0,,,35,0
17504,note_off,,,,,52,0,1,,,,,0,,,47,0
18684,control_change,,,,,1180,0,1,,,64,24,0,,,,
18688,control_change,,,,,4,0,1,,,64,40,0,,,,
18696,control_change,,,,,8,0,1,,,64,72,0,,,,
18704,control_change,,,,,8,0,1,,,64,88,0,,,,
18708,control_change,,,,,4,0,1,,,64,104,0,,,,
18716,control_change,,,,,8,0,1,,,64,127,0,,,,
19048,note_on,,,,,332,0,1,,,,,0,,,34,58
19144,note_off,,,,,96,0,1,,,,,0,,,34,0
19168,note_on,,,,,24,0,1,,,,,0,,,39,67
19172,control_change,,,,,4,0,1,,,64,88,0,,,,
19176,note_on,,,,,4,0,1,,,,,0,,,42,33
19180,control_change,,,,,4,0,1,,,64,24,0,,,,
19188,control_change,,,,,8,0,1,,,64,0,0,,,,
19208,control_change,,,,,20,0,1,,,64,24,0,,,,
19212,control_change,,,,,4,0,1,,,64,88,0,,,,
19220,control_change,,,,,8,0,1,,,64,127,0,,,,
19232,note_off,,,,,12,0,1,,,,,0,,,42,0
19268,note_on,,,,,36,0,1,,,,,0,,,46,19
19292,note_off,,,,,24,0,1,,,,,0,,,46,0
19308,note_on,,,,,16,0,1,,,,,0,,,42,34
19348,note_off,,,,,40,0,1,,,,,0,,,42,0
19360,note_on,,,,,12,0,1,,,,,0,,,46,32
19404,note_off,,,,,44,0,1,,,,,0,,,46,0
19416,note_on,,,,,12,0,1,,,,,0,,,42,39
19460,note_off,,,,,44,0,1,,,,,0,,,42,0
19472,note_on,,,,,12,0,1,,,,,0,,,46,33
19508,note_off,,,,,36,0,1,,,,,0,,,46,0
19528,note_on,,,,,20,0,1,,,,,0,,,42,34
19572,note_off,,,,,44,0,1,,,,,0,,,42,0
19580,note_on,,,,,8,0,1,,,,,0,,,46,29
19620,note_off,,,,,40,0,1,,,,,0,,,46,0
19632,note_on,,,,,12,0,1,,,,,0,,,42,35
19680,note_off,,,,,48,0,1,,,,,0,,,42,0
19696,note_on,,,,,16,0,1,,,,,0,,,46,31
19740,note_off,,,,,44,0,1,,,,,0,,,46,0
19748,note_on,,,,,8,0,1,,,,,0,,,42,37
19792,note_off,,,,,44,0,1,,,,,0,,,42,0
19808,note_on,,,,,16,0,1,,,,,0,,,46,31
19856,note_off,,,,,48,0,1,,,,,0,,,46,0
19872,note_on,,,,,16,0,1,,,,,0,,,42,38
19916,note_off,,,,,44,0,1,,,,,0,,,42,0
19928,note_on,,,,,12,0,1,,,,,0,,,46,33
19932,note_off,,,,,4,0,1,,,,,0,,,39,0
19972,note_off,,,,,40,0,1,,,,,0,,,46,0
19980,note_on,,,,,8,0,1,,,,,0,,,38,77
19992,note_on,,,,,12,0,1,,,,,0,,,42,37
20028,note_off,,,,,36,0,1,,,,,0,,,42,0
20044,note_on,,,,,16,0,1,,,,,0,,,46,30
20068,note_off,,,,,24,0,1,,,,,0,,,46,0
20084,note_off,,,,,16,0,1,,,,,0,,,38,0
20116,note_on,,,,,32,0,1,,,,,0,,,39,68
20132,control_change,,,,,16,0,1,,,64,88,0,,,,
20136,note_on,,,,,4,0,1,,,,,0,,,42,38
20140,control_change,,,,,4,0,1,,,64,0,0,,,,
20184,note_off,,,,,44,0,1,,,,,0,,,42,0
20192,note_on,,,,,8,0,1,,,,,0,,,46,37
20200,control_change,,,,,8,0,1,,,64,56,0,,,,
20208,control_change,,,,,8,0,1,,,64,127,0,,,,
20232,note_off,,,,,24,0,1,,,,,0,,,46,0
20244,note_on,,,,,12,0,1,,,,,0,,,42,43
20296,note_off,,,,,52,0,1,,,,,0,,,42,0
20304,note_on,,,,,8,0,1,,,,,0,,,46,34
20344,note_off,,,,,40,0,1,,,,,0,,,46,0
20356,note_on,,,,,12,0,1,,,,,0,,,42,39
20400,note_off,,,,,44,0,1,,,,,0,,,42,0
20408,note_on,,,,,8,0,1,,,,,0,,,46,33
20452,note_off,,,,,44,0,1,,,,,0,,,46,0
20460,note_on,,,,,8,0,1,,,,,0,,,42,37
20508,note_off,,,,,48,0,1,,,,,0,,,42,0
20520,note_on,,,,,12,0,1,,,,,0,,,46,35
20560,note_off,,,,,40,0,1,,,,,0,,,46,0
20572,note_on,,,,,12,0,1,,,,,0,,,42,38
20616,note_off,,,,,44,0,1,,,,,0,,,42,0
20628,note_on,,,,,12,0,1,,,,,0,,,46,35
20672,note_off,,,,,44,0,1,,,,,0,,,46,0
20692,note_on,,,,,20,0,1,,,,,0,,,42,33
20736,note_off,,,,,44,0,1,,,,,0,,,42,0
20748,note_on,,,,,12,0,1,,,,,0,,,46,27
20784,note_off,,,,,36,0,1,,,,,0,,,39,0
20796,note_off,,,,,12,0,1,,,,,0,,,46,0
20808,note_on,,,,,12,0,1,,,,,0,,,42,27
20824,note_off,,,,,16,0,1,,,,,0,,,42,0
20920,note_on,,,,,96,0,1,,,,,0,,,41,76
21036,note_off,,,,,116,0,1,,,,,0,,,41,0
21056,note_on,,,,,20,0,1,,,,,0,,,42,83
21072,control_change,,,,,16,0,1,,,64,72,0,,,,
21076,note_on,,,,,4,0,1,,,,,0,,,46,42
21080,control_change,,,,,4,0,1,,,64,0,0,,,,
21120,note_off,,,,,40,0,1,,,,,0,,,46,0
21132,note_on,,,,,12,0,1,,,,,0,,,51,36
21132,control_change,,,,,0,0,1,,,64,40,0,,,,
21140,control_change,,,,,8,0,1,,,64,127,0,,,,
21164,note_off,,,,,24,0,1,,,,,0,,,51,0
21184,note_on,,,,,20,0,1,,,,,0,,,46,44
21216,note_off,,,,,32,0,1,,,,,0,,,46,0
21236,note_on,,,,,20,0,1,,,,,0,,,51,19
21276,note_off,,,,,40,0,1,,,,,0,,,51,0
21284,note_on,,,,,8,0,1,,,,,0,,,46,37
21324,note_off,,,,,40,0,1,,,,,0,,,46,0
21336,note_on,,,,,12,0,1,,,,,0,,,51,39
21384,note_off,,,,,48,0,1,,,,,0,,,51,0
21392,note_on,,,,,8,0,1,,,,,0,,,46,44
21428,note_off,,,,,36,0,1,,,,,0,,,46,0
21436,note_on,,,,,8,0,1,,,,,0,,,51,42
21492,note_off,,,,,56,0,1,,,,,0,,,51,0
21500,note_on,,,,,8,0,1,,,,,0,,,46,50
21544,note_off,,,,,44,0,1,,,,,0,,,46,0
21552,note_on,,,,,8,0,1,,,,,0,,,51,47
21592,note_off,,,,,40,0,1,,,,,0,,,51,0
21608,note_on,,,,,16,0,1,,,,,0,,,46,44
21644,note_off,,,,,36,0,1,,,,,0,,,46,0
21660,note_on,,,,,16,0,1,,,,,0,,,51,32
21700,note_off,,,,,40,0,1,,,,,0,,,51,0
21708,note_on,,,,,8,0,1,,,,,0,,,46,42
21740,note_off,,,,,32,0,1,,,,,0,,,46,0
21756,note_on,,,,,16,0,1,,,,,0,,,51,39
21792,note_on,,,,,36,0,1,,,,,0,,,44,79
21812,note_off,,,,,0,0,1,,,,,0,,,51,0
21812,note_off,,,,,20,0,1,,,,,0,,,42,0
21820,note_on,,,,,8,0,1,,,,,0,,,46,38
21848,note_off,,,,,28,0,1,,,,,0,,,46,0
21864,note_on,,,,,16,0,1,,,,,0,,,51,35
21888,note_on,,,,,24,0,1,,,,,0,,,42,81
21896,note_off,,,,,8,0,1,,,,,0,,,44,0
21904,note_off,,,,,8,0,1,,,,,0,,,51,0
21916,note_on,,,,,12,0,1,,,,,0,,,46,38
21944,note_off,,,,,28,0,1,,,,,0,,,46,0
21960,note_on,,,,,0,0,1,,,,,0,,,51,34
21960,note_off,,,,,16,0,1,,,,,0,,,42,0
21968,note_on,,,,,8,0,1,,,,,0,,,41,80
22000,note_off,,,,,32,0,1,,,,,0,,,51,0
22024,note_off,,,,,24,0,1,,,,,0,,,41,0
22060,note_on,,,,,0,0,1,,,,,0,,,42,83
22060,note_on,,,,,36,0,1,,,,,0,,,46,54
22060,control_change,,,,,0,0,1,,,64,72,0,,,,
22068,control_change,,,,,8,0,1,,,64,0,0,,,,
22104,note_off,,,,,36,0,1,,,,,0,,,46,0
22112,note_on,,,,,8,0,1,,,,,0,,,51,32
22120,control_change,,,,,8,0,1,,,64,104,0,,,,
22128,control_change,,,,,8,0,1,,,64,127,0,,,,
22152,note_off,,,,,24,0,1,,,,,0,,,51,0
22168,note_on,,,,,16,0,1,,,,,0,,,46,39
22204,note_off,,,,,36,0,1,,,,,0,,,46,0
22216,note_on,,,,,12,0,1,,,,,0,,,51,35
22268,note_off,,,,,52,0,1,,,,,0,,,51,0
22276,note_on,,,,,8,0,1,,,,,0,,,46,37
22308,note_off,,,,,32,0,1,,,,,0,,,46,0
22320,note_on,,,,,12,0,1,,,,,0,,,51,42
22376,note_off,,,,,56,0,1,,,,,0,,,51,0
22380,note_on,,,,,4,0,1,,,,,0,,,46,39
22420,note_off,,,,,40,0,1,,,,,0,,,46,0
22432,note_on,,,,,12,0,1,,,,,0,,,51,42
22484,note_off,,,,,52,0,1,,,,,0,,,51,0
22488,note_on,,,,,4,0,1,,,,,0,,,46,46
22524,note_off,,,,,36,0,1,,,,,0,,,46,0
22532,note_on,,,,,8,0,1,,,,,0,,,51,42
22580,note_off,,,,,48,0,1,,,,,0,,,51,0
22584,note_on,,,,,4,0,1,,,,,0,,,46,43
22624,note_off,,,,,40,0,1,,,,,0,,,46,0
22632,note_on,,,,,8,0,1,,,,,0,,,51,49
22676,note_off,,,,,0,0,1,,,,,0,,,51,0
22676,note_off,,,,,44,0,1,,,,,0,,,42,0
22712,note_on,,,,,36,0,1,,,,,0,,,46,25
22736,note_off,,,,,24,0,1,,,,,0,,,46,0
22816,note_on,,,,,80,0,1,,,,,0,,,44,71
22900,control_change,,,,,84,0,1,,,64,56,0,,,,
22904,control_change,,,,,4,0,1,,,64,0,0,,,,
22948,note_off,,,,,44,0,1,,,,,0,,,44,0
22960,note_on,,,,,12,0,1,,,,,0,,,46,81
22972,note_on,,,,,12,0,1,,,,,0,,,51,54
23008,control_change,,,,,36,0,1,,,64,127,0,,,,
23024,note_off,,,,,16,0,1,,,,,0,,,51,0
23032,note_on,,,,,8,0,1,,,,,0,,,54,42
23076,note_off,,,,,44,0,1,,,,,0,,,54,0
23092,note_on,,,,,16,0,1,,,,,0,,,51,48
23136,note_off,,,,,44,0,1,,,,,0,,,51,0
23144,note_on,,,,,8,0,1,,,,,0,,,54,33
23196,note_off,,,,,52,0,1,,,,,0,,,54,0
23200,note_on,,,,,4,0,1,,,,,0,,,51,40
23248,note_off,,,,,48,0,1,,,,,0,,,51,0
23248,note_on,,,,,0,0,1,,,,,0,,,54,39
23304,note_off,,,,,56,0,1,,,,,0,,,54,0
23312,note_on,,,,,8,0,1,,,,,0,,,51,48
23356,note_off,,,,,44,0,1,,,,,0,,,51,0
23364,note_on,,,,,8,0,1,,,,,0,,,54,37
23416,note_off,,,,,52,0,1,,,,,0,,,54,0
23428,note_on,,,,,12,0,1,,,,,0,,,51,43
23464,note_off,,,,,36,0,1,,,,,0,,,51,0
23468,note_on,,,,,4,0,1,,,,,0,,,54,31
23520,note_off,,,,,52,0,1,,,,,0,,,54,0
23540,note_on,,,,,20,0,1,,,,,0,,,51,36
23592,note_off,,,,,52,0,1,,,,,0,,,46,0
23604,note_off,,,,,12,0,1,,,,,0,,,51,0
23744,note_on,,,,,140,0,1,,,,,0,,,47,81
23840,note_off,,,,,96,0,1,,,,,0,,,47,0
23884,control_change,,,,,44,0,1,,,64,72,0,,,,
23888,note_on,,,,,4,0,1,,,,,0,,,50,87
23892,control_change,,,,,4,0,1,,,64,0,0,,,,
23904,note_on,,,,,12,0,1,,,,,0,,,54,48
23960,control_change,,,,,0,0,1,,,64,127,0,,,,
23960,note_off,,,,,56,0,1,,,,,0,,,54,0
23972,note_on,,,,,12,0,1,,,,,0,,,58,37
24016,note_off,,,,,44,0,1,,,,,0,,,58,0
24028,note_on,,,,,12,0,1,,,,,0,,,54,46
24072,note_off,,,,,44,0,1,,,,,0,,,54,0
24084,note_on,,,,,12,0,1,,,,,0,,,58,28
24132,note_off,,,,,48,0,1,,,,,0,,,58,0
24136,note_on,,,,,4,0,1,,,,,0,,,54,43
24184,note_off,,,,,48,0,1,,,,,0,,,54,0
24192,note_on,,,,,8,0,1,,,,,0,,,58,32
24240,note_off,,,,,48,0,1,,,,,0,,,58,0
24244,note_on,,,,,4,0,1,,,,,0,,,54,46
24288,note_off,,,,,44,0,1,,,,,0,,,54,0
24300,note_on,,,,,12,0,1,,,,,0,,,58,32
24344,note_off,,,,,44,0,1,,,,,0,,,58,0
24352,note_on,,,,,8,0,1,,,,,0,,,54,47
24400,note_off,,,,,48,0,1,,,,,0,,,54,0
24408,note_on,,,,,8,0,1,,,,,0,,,58,33
24460,note_off,,,,,52,0,1,,,,,0,,,58,0
24468,note_on,,,,,8,0,1,,,,,0,,,54,43
24512,note_off,,,,,44,0,1,,,,,0,,,54,0
24532,note_on,,,,,20,0,1,,,,,0,,,58,32
24576,note_off,,,,,44,0,1,,,,,0,,,58,0
24680,note_off,,,,,104,0,1,,,,,0,,,50,0
24712,note_on,,,,,32,0,1,,,,,0,,,51,79
24848,note_on,,,,,136,0,1,,,,,0,,,49,78
24848,control_change,,,,,0,0,1,,,64,56,0,,,,
24852,note_off,,,,,4,0,1,,,,,0,,,51,0
24852,control_change,,,,,0,0,1,,,64,0,0,,,,
24864,note_on,,,,,12,0,1,,,,,0,,,56,44
24864,note_on,,,,,0,0,1,,,,,0,,,53,56
24912,note_off,,,,,48,0,1,,,,,0,,,53,0
24916,note_off,,,,,4,0,1,,,,,0,,,56,0
24920,control_change,,,,,0,0,1,,,64,127,0,,,,
24920,note_on,,,,,4,0,1,,,,,0,,,61,31
24956,note_off,,,,,36,0,1,,,,,0,,,61,0
24984,note_on,,,,,28,0,1,,,,,0,,,56,33
25012,note_off,,,,,28,0,1,,,,,0,,,56,0
25020,note_on,,,,,8,0,1,,,,,0,,,61,31
25064,note_off,,,,,44,0,1,,,,,0,,,61,0
25088,note_on,,,,,24,0,1,,,,,0,,,56,32
25116,note_off,,,,,28,0,1,,,,,0,,,56,0
25128,note_on,,,,,12,0,1,,,,,0,,,61,31
25180,note_off,,,,,52,0,1,,,,,0,,,61,0
25188,note_on,,,,,8,0,1,,,,,0,,,56,37
25220,note_off,,,,,32,0,1,,,,,0,,,56,0
25228,note_on,,,,,8,0,1,,,,,0,,,61,38
25268,note_off,,,,,40,0,1,,,,,0,,,61,0
25292,note_on,,,,,24,0,1,,,,,0,,,56,42
25296,note_on,,,,,4,0,1,,,,,0,,,53,49
25328,note_off,,,,,32,0,1,,,,,0,,,53,0
25332,note_off,,,,,4,0,1,,,,,0,,,56,0
25336,note_on,,,,,4,0,1,,,,,0,,,61,32
25392,note_off,,,,,56,0,1,,,,,0,,,61,0
25400,note_on,,,,,8,0,1,,,,,0,,,56,48
25404,note_on,,,,,4,0,1,,,,,0,,,53,44
25428,note_off,,,,,24,0,1,,,,,0,,,53,0
25444,note_off,,,,,16,0,1,,,,,0,,,56,0
25448,note_on,,,,,4,0,1,,,,,0,,,61,29
25492,note_off,,,,,44,0,1,,,,,0,,,61,0
25512,note_on,,,,,20,0,1,,,,,0,,,56,42
25520,note_on,,,,,8,0,1,,,,,0,,,53,39
25544,note_off,,,,,0,0,1,,,,,0,,,53,0
25544,note_off,,,,,24,0,1,,,,,0,,,49,0
25548,note_off,,,,,4,0,1,,,,,0,,,56,0
25556,note_on,,,,,8,0,1,,,,,0,,,61,35
25592,note_off,,,,,36,0,1,,,,,0,,,61,0
25620,note_on,,,,,28,0,1,,,,,0,,,47,74
25628,note_on,,,,,8,0,1,,,,,0,,,56,31
25636,note_on,,,,,8,0,1,,,,,0,,,53,25
25660,note_off,,,,,24,0,1,,,,,0,,,56,0
25660,note_off,,,,,0,0,1,,,,,0,,,53,0
25672,note_on,,,,,12,0,1,,,,,0,,,61,23
25704,note_off,,,,,32,0,1,,,,,0,,,61,0
25712,note_off,,,,,8,0,1,,,,,0,,,47,0
25760,note_on,,,,,48,0,1,,,,,0,,,46,82
25768,control_change,,,,,8,0,1,,,64,88,0,,,,
25772,control_change,,,,,4,0,1,,,64,0,0,,,,
25788,note_on,,,,,16,0,1,,,,,0,,,54,32
25792,note_on,,,,,4,0,1,,,,,0,,,58,30
25840,note_off,,,,,48,0,1,,,,,0,,,58,0
25844,note_on,,,,,0,0,1,,,,,0,,,61,39
25844,note_off,,,,,4,0,1,,,,,0,,,54,0
25868,control_change,,,,,24,0,1,,,64,127,0,,,,
25892,note_off,,,,,24,0,1,,,,,0,,,61,0
25912,note_on,,,,,0,0,1,,,,,0,,,58,28
25912,note_on,,,,,20,0,1,,,,,0,,,54,34
25944,note_off,,,,,32,0,1,,,,,0,,,58,0
25952,note_off,,,,,8,0,1,,,,,0,,,54,0
25956,note_on,,,,,4,0,1,,,,,0,,,61,31
26000,note_off,,,,,44,0,1,,,,,0,,,61,0
26012,note_on,,,,,0,0,1,,,,,0,,,58,31
26012,note_on,,,,,12,0,1,,,,,0,,,54,25
26040,note_off,,,,,28,0,1,,,,,0,,,58,0
26044,note_off,,,,,4,0,1,,,,,0,,,54,0
26052,note_on,,,,,8,0,1,,,,,0,,,61,34
26104,note_off,,,,,52,0,1,,,,,0,,,61,0
26112,note_on,,,,,0,0,1,,,,,0,,,58,35
26112,note_on,,,,,8,0,1,,,,,0,,,54,34
26144,note_off,,,,,32,0,1,,,,,0,,,58,0
26148,note_off,,,,,4,0,1,,,,,0,,,54,0
26152,note_on,,,,,4,0,1,,,,,0,,,61,39
26212,note_off,,,,,60,0,1,,,,,0,,,61,0
26220,note_on,,,,,0,0,1,,,,,0,,,54,38
26220,note_on,,,,,8,0,1,,,,,0,,,58,34
26252,note_off,,,,,32,0,1,,,,,0,,,58,0
26256,note_off,,,,,4,0,1,,,,,0,,,54,0
26260,note_on,,,,,4,0,1,,,,,0,,,61,47
26304,note_off,,,,,44,0,1,,,,,0,,,61,0
26316,note_on,,,,,0,0,1,,,,,0,,,54,32
26316,note_on,,,,,12,0,1,,,,,0,,,58,34
26348,note_off,,,,,32,0,1,,,,,0,,,58,0
26356,note_off,,,,,8,0,1,,,,,0,,,54,0
26360,note_on,,,,,4,0,1,,,,,0,,,61,35
26408,note_off,,,,,48,0,1,,,,,0,,,61,0
26412,note_on,,,,,4,0,1,,,,,0,,,54,32
26420,note_on,,,,,8,0,1,,,,,0,,,58,29
26452,note_off,,,,,32,0,1,,,,,0,,,58,0
26456,note_off,,,,,4,0,1,,,,,0,,,54,0
26460,note_on,,,,,4,0,1,,,,,0,,,61,38
26512,note_off,,,,,52,0,1,,,,,0,,,61,0
26520,note_on,,,,,8,0,1,,,,,0,,,58,32
26524,note_on,,,,,4,0,1,,,,,0,,,54,33
26552,note_off,,,,,28,0,1,,,,,0,,,58,0
26560,note_on,,,,,8,0,1,,,,,0,,,61,45
26564,note_off,,,,,4,0,1,,,,,0,,,54,0
26624,note_on,,,,,60,0,1,,,,,0,,,54,45
26628,note_off,,,,,4,0,1,,,,,0,,,61,0
26628,note_on,,,,,0,0,1,,,,,0,,,58,43
26632,control_change,,,,,4,0,1,,,64,40,0,,,,
26640,control_change,,,,,8,0,1,,,64,0,0,,,,
26664,note_off,,,,,24,0,1,,,,,0,,,58,0
26664,control_change,,,,,0,0,1,,,64,72,0,,,,
26672,note_on,,,,,0,0,1,,,,,0,,,61,47
26672,control_change,,,,,0,0,1,,,64,127,0,,,,
26672,note_off,,,,,8,0,1,,,,,0,,,54,0
26720,note_off,,,,,48,0,1,,,,,0,,,61,0
26728,note_on,,,,,8,0,1,,,,,0,,,54,37
26732,note_on,,,,,4,0,1,,,,,0,,,58,32
26752,note_off,,,,,20,0,1,,,,,0,,,58,0
26764,note_off,,,,,12,0,1,,,,,0,,,54,0
26772,note_on,,,,,8,0,1,,,,,0,,,61,34
26824,note_off,,,,,52,0,1,,,,,0,,,61,0
26828,note_on,,,,,4,0,1,,,,,0,,,54,43
26832,note_on,,,,,4,0,1,,,,,0,,,58,31
26852,note_off,,,,,20,0,1,,,,,0,,,58,0
26864,note_off,,,,,12,0,1,,,,,0,,,54,0
26876,note_on,,,,,12,0,1,,,,,0,,,61,37
26920,note_on,,,,,0,0,1,,,,,0,,,54,35
26920,note_off,,,,,44,0,1,,,,,0,,,61,0
26932,note_on,,,,,12,0,1,,,,,0,,,58,25
26952,note_off,,,,,20,0,1,,,,,0,,,58,0
26964,note_off,,,,,12,0,1,,,,,0,,,54,0
26972,note_on,,,,,8,0,1,,,,,0,,,61,37
26996,note_off,,,,,24,0,1,,,,,0,,,46,0
27036,note_on,,,,,40,0,1,,,,,0,,,46,83
27044,note_off,,,,,8,0,1,,,,,0,,,61,0
27056,note_on,,,,,12,0,1,,,,,0,,,54,34
27064,note_on,,,,,8,0,1,,,,,0,,,58,26
27084,note_off,,,,,20,0,1,,,,,0,,,58,0
27088,note_off,,,,,4,0,1,,,,,0,,,54,0
27096,note_on,,,,,8,0,1,,,,,0,,,61,35
27144,note_off,,,,,48,0,1,,,,,0,,,61,0
27152,note_on,,,,,8,0,1,,,,,0,,,54,36
27160,note_on,,,,,8,0,1,,,,,0,,,58,26
27172,note_off,,,,,12,0,1,,,,,0,,,54,0
27188,note_off,,,,,16,0,1,,,,,0,,,58,0
27196,note_on,,,,,8,0,1,,,,,0,,,61,35
27252,note_off,,,,,56,0,1,,,,,0,,,61,0
27260,note_on,,,,,8,0,1,,,,,0,,,58,30
27272,note_on,,,,,12,0,1,,,,,0,,,54,18
27288,note_off,,,,,16,0,1,,,,,0,,,58,0
27292,note_off,,,,,4,0,1,,,,,0,,,54,0
27308,note_on,,,,,16,0,1,,,,,0,,,61,34
27356,note_off,,,,,48,0,1,,,,,0,,,61,0
27360,note_on,,,,,4,0,1,,,,,0,,,54,40
27364,note_off,,,,,4,0,1,,,,,0,,,46,0
27372,note_on,,,,,8,0,1,,,,,0,,,58,23
27388,note_off,,,,,16,0,1,,,,,0,,,58,0
27396,note_off,,,,,8,0,1,,,,,0,,,54,0
27400,note_on,,,,,4,0,1,,,,,0,,,46,71
27408,note_on,,,,,8,0,1,,,,,0,,,61,42
27444,note_off,,,,,36,0,1,,,,,0,,,46,0
27448,note_on,,,,,4,0,1,,,,,0,,,49,74
27484,note_off,,,,,36,0,1,,,,,0,,,61,0
27504,note_off,,,,,20,0,1,,,,,0,,,49,0
27512,note_on,,,,,8,0,1,,,,,0,,,47,84
27536,note_on,,,,,24,0,1,,,,,0,,,54,44
27540,note_on,,,,,4,0,1,,,,,0,,,58,27
27548,control_change,,,,,8,0,1,,,64,40,0,,,,
27552,control_change,,,,,4,0,1,,,64,0,0,,,,
27576,note_off,,,,,24,0,1,,,,,0,,,58,0
27584,note_off,,,,,8,0,1,,,,,0,,,54,0
27584,note_on,,,,,0,0,1,,,,,0,,,61,33
27608,control_change,,,,,24,0,1,,,64,127,0,,,,
27632,note_off,,,,,24,0,1,,,,,0,,,61,0
27640,note_on,,,,,8,0,1,,,,,0,,,58,33
27644,note_on,,,,,4,0,1,,,,,0,,,54,32
27676,note_off,,,,,32,0,1,,,,,0,,,58,0
27688,note_on,,,,,0,0,1,,,,,0,,,61,32
27688,note_off,,,,,12,0,1,,,,,0,,,54,0
27740,note_off,,,,,52,0,1,,,,,0,,,61,0
27748,note_on,,,,,8,0,1,,,,,0,,,54,34
27752,note_on,,,,,4,0,1,,,,,0,,,58,34
27784,note_off,,,,,32,0,1,,,,,0,,,58,0
27792,note_off,,,,,8,0,1,,,,,0,,,54,0
27800,note_on,,,,,8,0,1,,,,,0,,,61,38
27860,note_on,,,,,0,0,1,,,,,0,,,54,33
27860,note_off,,,,,60,0,1,,,,,0,,,61,0
27864,note_on,,,,,4,0,1,,,,,0,,,58,33
27900,note_off,,,,,36,0,1,,,,,0,,,54,0
27900,note_off,,,,,0,0,1,,,,,0,,,58,0
27908,note_on,,,,,8,0,1,,,,,0,,,61,29
27960,note_on,,,,,52,0,1,,,,,0,,,54,43
27964,note_off,,,,,4,0,1,,,,,0,,,61,0
27968,note_on,,,,,4,0,1,,,,,0,,,58,35
28004,note_off,,,,,36,0,1,,,,,0,,,58,0
28008,note_off,,,,,4,0,1,,,,,0,,,54,0
28016,note_on,,,,,8,0,1,,,,,0,,,61,27
28068,note_off,,,,,52,0,1,,,,,0,,,47,0
28076,note_on,,,,,8,0,1,,,,,0,,,54,43
28080,note_off,,,,,4,0,1,,,,,0,,,61,0
28084,note_on,,,,,4,0,1,,,,,0,,,58,36
28112,note_off,,,,,28,0,1,,,,,0,,,58,0
28124,note_off,,,,,12,0,1,,,,,0,,,54,0
28124,note_on,,,,,0,0,1,,,,,0,,,61,43
28172,note_on,,,,,48,0,1,,,,,0,,,46,81
28192,note_on,,,,,20,0,1,,,,,0,,,54,46
28196,note_off,,,,,4,0,1,,,,,0,,,61,0
28200,note_on,,,,,4,0,1,,,,,0,,,58,35
28240,note_off,,,,,40,0,1,,,,,0,,,58,0
28244,note_off,,,,,4,0,1,,,,,0,,,54,0
28260,note_on,,,,,16,0,1,,,,,0,,,61,42
28300,note_off,,,,,40,0,1,,,,,0,,,61,0
28320,note_off,,,,,20,0,1,,,,,0,,,46,0
28336,note_on,,,,,16,0,1,,,,,0,,,54,18
28356,note_off,,,,,20,0,1,,,,,0,,,54,0
28360,note_on,,,,,4,0,1,,,,,0,,,61,44
28408,note_off,,,,,48,0,1,,,,,0,,,61,0
28436,note_on,,,,,28,0,1,,,,,0,,,46,80
28456,note_on,,,,,20,0,1,,,,,0,,,56,50
28460,note_on,,,,,4,0,1,,,,,0,,,53,52
28460,control_change,,,,,0,0,1,,,64,40,0,,,,
28464,control_change,,,,,4,0,1,,,64,0,0,,,,
28512,note_off,,,,,48,0,1,,,,,0,,,56,0
28516,note_off,,,,,4,0,1,,,,,0,,,53,0
28524,note_on,,,,,8,0,1,,,,,0,,,62,44
28540,control_change,,,,,16,0,1,,,64,127,0,,,,
28564,note_off,,,,,24,0,1,,,,,0,,,62,0
28572,note_on,,,,,8,0,1,,,,,0,,,56,40
28576,note_on,,,,,4,0,1,,,,,0,,,53,41
28612,note_off,,,,,36,0,1,,,,,0,,,53,0
28616,note_off,,,,,4,0,1,,,,,0,,,56,0
28620,note_on,,,,,4,0,1,,,,,0,,,62,46
28664,note_off,,,,,44,0,1,,,,,0,,,62,0
28680,note_on,,,,,16,0,1,,,,,0,,,56,33
28680,note_on,,,,,0,0,1,,,,,0,,,53,43
28712,note_off,,,,,32,0,1,,,,,0,,,53,0
28720,note_off,,,,,8,0,1,,,,,0,,,56,0
28724,note_on,,,,,4,0,1,,,,,0,,,62,47
28772,note_off,,,,,48,0,1,,,,,0,,,62,0
28780,note_on,,,,,8,0,1,,,,,0,,,56,38
28792,note_on,,,,,12,0,1,,,,,0,,,53,33
28812,note_off,,,,,20,0,1,,,,,0,,,56,0
28812,note_off,,,,,0,0,1,,,,,0,,,53,0
28824,note_on,,,,,12,0,1,,,,,0,,,62,39
28864,note_off,,,,,40,0,1,,,,,0,,,62,0
28880,note_on,,,,,16,0,1,,,,,0,,,56,48
28884,note_on,,,,,4,0,1,,,,,0,,,53,57
28920,note_off,,,,,0,0,1,,,,,0,,,53,0
28920,note_off,,,,,36,0,1,,,,,0,,,56,0
28932,note_on,,,,,12,0,1,,,,,0,,,62,43
28980,note_off,,,,,48,0,1,,,,,0,,,62,0
28988,note_on,,,,,8,0,1,,,,,0,,,53,52
28988,note_on,,,,,0,0,1,,,,,0,,,56,36
29024,note_off,,,,,36,0,1,,,,,0,,,53,0
29024,note_off,,,,,0,0,1,,,,,0,,,56,0
29036,note_on,,,,,12,0,1,,,,,0,,,62,54
29084,note_on,,,,,0,0,1,,,,,0,,,56,33
29084,note_off,,,,,48,0,1,,,,,0,,,62,0
29092,note_on,,,,,8,0,1,,,,,0,,,53,30
29124,note_off,,,,,32,0,1,,,,,0,,,56,0
29124,note_off,,,,,0,0,1,,,,,0,,,53,0
29136,note_on,,,,,12,0,1,,,,,0,,,62,52
29144,note_on,,,,,8,0,1,,,,,0,,,44,74
29176,note_off,,,,,32,0,1,,,,,0,,,46,0
29176,note_off,,,,,0,0,1,,,,,0,,,62,0
29188,note_on,,,,,12,0,1,,,,,0,,,53,39
29192,note_on,,,,,4,0,1,,,,,0,,,56,31
29212,note_off,,,,,20,0,1,,,,,0,,,56,0
29216,note_off,,,,,4,0,1,,,,,0,,,53,0
29228,note_on,,,,,12,0,1,,,,,0,,,62,53
29252,note_on,,,,,24,0,1,,,,,0,,,42,82
29268,note_off,,,,,16,0,1,,,,,0,,,44,0
29268,note_off,,,,,0,0,1,,,,,0,,,62,0
29280,note_on,,,,,12,0,1,,,,,0,,,56,40
29284,note_on,,,,,4,0,1,,,,,0,,,53,42
29300,note_off,,,,,16,0,1,,,,,0,,,56,0
29304,note_off,,,,,4,0,1,,,,,0,,,53,0
29316,note_off,,,,,12,0,1,,,,,0,,,42,0
29324,note_on,,,,,8,0,1,,,,,0,,,62,44
29372,note_off,,,,,48,0,1,,,,,0,,,62,0
29384,note_on,,,,,12,0,1,,,,,0,,,41,82
29404,note_on,,,,,20,0,1,,,,,0,,,53,46
29404,note_on,,,,,0,0,1,,,,,0,,,56,40
29408,control_change,,,,,4,0,1,,,64,88,0,,,,
29412,control_change,,,,,4,0,1,,,64,0,0,,,,
29444,note_off,,,,,32,0,1,,,,,0,,,56,0
29452,note_off,,,,,8,0,1,,,,,0,,,53,0
29452,note_on,,,,,0,0,1,,,,,0,,,62,44
29468,control_change,,,,,16,0,1,,,64,72,0,,,,
29472,control_change,,,,,4,0,1,,,64,127,0,,,,
29492,note_off,,,,,20,0,1,,,,,0,,,62,0
29512,note_on,,,,,20,0,1,,,,,0,,,56,38
29516,note_on,,,,,4,0,1,,,,,0,,,53,42
29540,note_off,,,,,24,0,1,,,,,0,,,53,0
29552,note_off,,,,,12,0,1,,,,,0,,,56,0
29564,note_on,,,,,12,0,1,,,,,0,,,62,39
29608,note_off,,,,,44,0,1,,,,,0,,,62,0
29612,note_on,,,,,4,0,1,,,,,0,,,56,43
29620,note_on,,,,,8,0,1,,,,,0,,,53,43
29648,note_off,,,,,28,0,1,,,,,0,,,53,0
29652,note_off,,,,,4,0,1,,,,,0,,,56,0
29668,note_on,,,,,16,0,1,,,,,0,,,62,39
29708,note_off,,,,,40,0,1,,,,,0,,,62,0
29720,note_on,,,,,12,0,1,,,,,0,,,56,32
29728,note_on,,,,,8,0,1,,,,,0,,,53,38
29748,note_off,,,,,20,0,1,,,,,0,,,53,0
29752,note_off,,,,,4,0,1,,,,,0,,,56,0
29760,note_on,,,,,8,0,1,,,,,0,,,62,45
29804,note_off,,,,,44,0,1,,,,,0,,,62,0
29828,note_on,,,,,24,0,1,,,,,0,,,56,45
29828,note_on,,,,,0,0,1,,,,,0,,,53,53
29864,note_off,,,,,0,0,1,,,,,0,,,53,0
29864,note_off,,,,,36,0,1,,,,,0,,,56,0
29876,note_on,,,,,12,0,1,,,,,0,,,62,44
29916,note_off,,,,,40,0,1,,,,,0,,,62,0
29924,note_on,,,,,8,0,1,,,,,0,,,56,42
29928,note_on,,,,,4,0,1,,,,,0,,,53,45
29948,note_off,,,,,20,0,1,,,,,0,,,53,0
29956,note_off,,,,,8,0,1,,,,,0,,,56,0
29972,note_on,,,,,16,0,1,,,,,0,,,62,43
30008,note_off,,,,,36,0,1,,,,,0,,,62,0
30020,note_on,,,,,12,0,1,,,,,0,,,56,38
30024,note_on,,,,,4,0,1,,,,,0,,,53,39
30048,note_off,,,,,24,0,1,,,,,0,,,53,0
30052,note_off,,,,,4,0,1,,,,,0,,,56,0
30064,note_on,,,,,12,0,1,,,,,0,,,62,52
30108,note_off,,,,,44,0,1,,,,,0,,,62,0
30120,note_on,,,,,12,0,1,,,,,0,,,56,40
30124,note_on,,,,,4,0,1,,,,,0,,,53,46
30144,note_off,,,,,20,0,1,,,,,0,,,53,0
30152,note_off,,,,,8,0,1,,,,,0,,,56,0
30164,note_on,,,,,12,0,1,,,,,0,,,62,45
30212,note_off,,,,,48,0,1,,,,,0,,,62,0
30228,note_on,,,,,16,0,1,,,,,0,,,56,40
30232,note_on,,,,,4,0,1,,,,,0,,,53,51
30256,note_off,,,,,24,0,1,,,,,0,,,53,0
30264,note_off,,,,,8,0,1,,,,,0,,,56,0
30276,note_on,,,,,12,0,1,,,,,0,,,62,44
30324,note_off,,,,,48,0,1,,,,,0,,,62,0
30324,note_on,,,,,0,0,1,,,,,0,,,56,36
30340,note_on,,,,,16,0,1,,,,,0,,,53,32
30364,note_off,,,,,24,0,1,,,,,0,,,56,0
30364,note_off,,,,,0,0,1,,,,,0,,,53,0
30380,note_on,,,,,16,0,1,,,,,0,,,62,42
30424,note_off,,,,,44,0,1,,,,,0,,,62,0
30436,note_on,,,,,12,0,1,,,,,0,,,56,30
30440,note_on,,,,,4,0,1,,,,,0,,,53,39
30464,note_off,,,,,24,0,1,,,,,0,,,56,0
30464,note_off,,,,,0,0,1,,,,,0,,,53,0
30484,note_on,,,,,20,0,1,,,,,0,,,62,41
30532,note_off,,,,,48,0,1,,,,,0,,,62,0
30548,note_on,,,,,16,0,1,,,,,0,,,53,37
30552,note_on,,,,,4,0,1,,,,,0,,,56,36
30572,note_off,,,,,20,0,1,,,,,0,,,53,0
30576,note_off,,,,,4,0,1,,,,,0,,,56,0
30588,note_on,,,,,12,0,1,,,,,0,,,62,49
30608,note_off,,,,,20,0,1,,,,,0,,,41,0
30636,note_off,,,,,28,0,1,,,,,0,,,62,0
30660,note_on,,,,,24,0,1,,,,,0,,,41,85
30668,control_change,,,,,8,0,1,,,64,88,0,,,,
30672,note_on,,,,,4,0,1,,,,,0,,,56,45
30676,control_change,,,,,0,0,1,,,64,24,0,,,,
30676,note_on,,,,,4,0,1,,,,,0,,,53,41
30684,control_change,,,,,8,0,1,,,64,0,0,,,,
30700,note_off,,,,,16,0,1,,,,,0,,,53,0
30708,control_change,,,,,8,0,1,,,64,72,0,,,,
30712,note_off,,,,,4,0,1,,,,,0,,,56,0
30716,control_change,,,,,4,0,1,,,64,127,0,,,,
30720,note_on,,,,,4,0,1,,,,,0,,,62,43
30768,note_off,,,,,48,0,1,,,,,0,,,62,0
30780,note_on,,,,,12,0,1,,,,,0,,,56,34
30780,note_on,,,,,0,0,1,,,,,0,,,53,46
30816,note_off,,,,,36,0,1,,,,,0,,,53,0
30820,note_off,,,,,4,0,1,,,,,0,,,56,0
30828,note_on,,,,,8,0,1,,,,,0,,,62,41
30884,note_off,,,,,56,0,1,,,,,0,,,62,0
30888,note_on,,,,,4,0,1,,,,,0,,,56,31
30892,note_on,,,,,4,0,1,,,,,0,,,53,38
30912,note_off,,,,,20,0,1,,,,,0,,,53,0
30924,note_off,,,,,12,0,1,,,,,0,,,56,0
30940,note_on,,,,,16,0,1,,,,,0,,,62,45
30976,note_off,,,,,36,0,1,,,,,0,,,62,0
31000,note_off,,,,,24,0,1,,,,,0,,,41,0
31004,note_on,,,,,0,0,1,,,,,0,,,53,24
31004,note_on,,,,,4,0,1,,,,,0,,,56,32
31028,note_off,,,,,0,0,1,,,,,0,,,53,0
31028,note_off,,,,,24,0,1,,,,,0,,,56,0
31164,note_on,,,,,136,0,1,,,,,0,,,41,82
31204,control_change,,,,,40,0,1,,,64,104,0,,,,
31212,control_change,,,,,8,0,1,,,64,0,0,,,,
31264,control_change,,,,,52,0,1,,,64,88,0,,,,
31272,control_change,,,,,8,0,1,,,64,127,0,,,,
31428,note_off,,,,,156,0,1,,,,,0,,,41,0
31456,note_on,,,,,28,0,1,,,,,0,,,42,84
31496,control_change,,,,,40,0,1,,,64,24,0,,,,
31500,control_change,,,,,4,0,1,,,64,0,0,,,,
31548,control_change,,,,,48,0,1,,,64,127,0,,,,
31612,note_off,,,,,64,0,1,,,,,0,,,42,0
31708,note_on,,,,,96,0,1,,,,,0,,,44,85
31744,control_change,,,,,36,0,1,,,64,72,0,,,,
31748,control_change,,,,,4,0,1,,,64,0,0,,,,
31796,control_change,,,,,48,0,1,,,64,127,0,,,,
31832,note_off,,,,,36,0,1,,,,,0,,,44,0
31952,note_on,,,,,120,0,1,,,,,0,,,46,87
31972,note_on,,,,,0,0,1,,,,,0,,,54,44
31972,note_on,,,,,20,0,1,,,,,0,,,51,40
31984,control_change,,,,,12,0,1,,,64,88,0,,,,
31992,control_change,,,,,8,0,1,,,64,0,0,,,,
32028,note_off,,,,,36,0,1,,,,,0,,,54,0
32032,note_on,,,,,4,0,1,,,,,0,,,63,30
32048,note_off,,,,,16,0,1,,,,,0,,,51,0
32056,control_change,,,,,8,0,1,,,64,127,0,,,,
32080,note_off,,,,,24,0,1,,,,,0,,,63,0
32100,note_on,,,,,20,0,1,,,,,0,,,51,37
32108,note_on,,,,,8,0,1,,,,,0,,,54,37
32128,note_off,,,,,20,0,1,,,,,0,,,54,0
32144,note_off,,,,,16,0,1,,,,,0,,,51,0
32144,note_on,,,,,0,0,1,,,,,0,,,63,34
32184,note_off,,,,,40,0,1,,,,,0,,,63,0
32204,note_on,,,,,20,0,1,,,,,0,,,51,34
32204,note_on,,,,,0,0,1,,,,,0,,,54,32
32232,note_off,,,,,28,0,1,,,,,0,,,54,0
32244,note_off,,,,,12,0,1,,,,,0,,,51,0
32248,note_on,,,,,4,0,1,,,,,0,,,63,35
32288,note_off,,,,,40,0,1,,,,,0,,,63,0
32300,note_on,,,,,12,0,1,,,,,0,,,51,39
32308,note_on,,,,,8,0,1,,,,,0,,,54,30
32328,note_off,,,,,20,0,1,,,,,0,,,54,0
32340,note_off,,,,,12,0,1,,,,,0,,,51,0
32340,note_on,,,,,0,0,1,,,,,0,,,63,38
32384,note_off,,,,,44,0,1,,,,,0,,,63,0
32412,note_on,,,,,0,0,1,,,,,0,,,54,38
32412,note_on,,,,,28,0,1,,,,,0,,,51,48
32448,note_off,,,,,0,0,1,,,,,0,,,54,0
32448,note_off,,,,,36,0,1,,,,,0,,,51,0
32456,note_on,,,,,8,0,1,,,,,0,,,63,34
32496,note_off,,,,,40,0,1,,,,,0,,,63,0
32512,note_on,,,,,0,0,1,,,,,0,,,54,36
32512,note_on,,,,,16,0,1,,,,,0,,,51,42
32544,note_off,,,,,32,0,1,,,,,0,,,54,0
32548,note_off,,,,,4,0,1,,,,,0,,,51,0
32548,note_on,,,,,0,0,1,,,,,0,,,63,32
32596,note_off,,,,,48,0,1,,,,,0,,,63,0
32608,note_on,,,,,12,0,1,,,,,0,,,51,42
32608,note_on,,,,,0,0,1,,,,,0,,,54,32
32640,note_off,,,,,0,0,1,,,,,0,,,54,0
32640,note_off,,,,,32,0,1,,,,,0,,,51,0
32652,note_on,,,,,12,0,1,,,,,0,,,63,33
32700,note_off,,,,,48,0,1,,,,,0,,,63,0
32704,note_on,,,,,4,0,1,,,,,0,,,54,37
32704,note_on,,,,,0,0,1,,,,,0,,,51,40
32740,note_off,,,,,0,0,1,,,,,0,,,51,0
32740,note_off,,,,,36,0,1,,,,,0,,,54,0
32748,note_on,,,,,8,0,1,,,,,0,,,63,29
32792,note_off,,,,,44,0,1,,,,,0,,,63,0
32808,note_on,,,,,16,0,1,,,,,0,,,51,42
32812,note_on,,,,,4,0,1,,,,,0,,,54,39
32844,note_off,,,,,0,0,1,,,,,0,,,54,0
32844,note_off,,,,,32,0,1,,,,,0,,,51,0
32860,note_on,,,,,16,0,1,,,,,0,,,63,32
32904,note_off,,,,,44,0,1,,,,,0,,,63,0
32908,note_on,,,,,4,0,1,,,,,0,,,51,38
32912,note_on,,,,,4,0,1,,,,,0,,,54,34
32944,note_off,,,,,0,0,1,,,,,0,,,54,0
32944,note_off,,,,,32,0,1,,,,,0,,,51,0
32952,note_on,,,,,8,0,1,,,,,0,,,63,46
33012,note_on,,,,,60,0,1,,,,,0,,,44,79
33020,note_off,,,,,8,0,1,,,,,0,,,63,0
33024,note_on,,,,,4,0,1,,,,,0,,,54,45
33028,note_on,,,,,4,0,1,,,,,0,,,51,32
33048,note_off,,,,,20,0,1,,,,,0,,,46,0
33052,note_off,,,,,4,0,1,,,,,0,,,51,0
33060,note_off,,,,,8,0,1,,,,,0,,,54,0
33076,note_on,,,,,16,0,1,,,,,0,,,63,40
33148,note_on,,,,,0,0,1,,,,,0,,,51,32
33148,note_off,,,,,72,0,1,,,,,0,,,63,0
33152,note_on,,,,,4,0,1,,,,,0,,,54,37
33184,note_off,,,,,32,0,1,,,,,0,,,54,0
33192,note_on,,,,,0,0,1,,,,,0,,,63,42
33192,note_off,,,,,8,0,1,,,,,0,,,51,0
33244,note_off,,,,,52,0,1,,,,,0,,,63,0
33252,note_on,,,,,8,0,1,,,,,0,,,42,84
33256,note_on,,,,,4,0,1,,,,,0,,,51,49
33260,note_on,,,,,4,0,1,,,,,0,,,54,44
33264,note_off,,,,,4,0,1,,,,,0,,,44,0
33296,note_off,,,,,32,0,1,,,,,0,,,51,0
33296,note_off,,,,,0,0,1,,,,,0,,,54,0
33308,note_on,,,,,12,0,1,,,,,0,,,63,37
33356,note_on,,,,,48,0,1,,,,,0,,,51,47
33360,note_off,,,,,4,0,1,,,,,0,,,63,0
33360,note_on,,,,,0,0,1,,,,,0,,,54,39
33380,note_off,,,,,20,0,1,,,,,0,,,42,0
33396,note_off,,,,,16,0,1,,,,,0,,,54,0
33400,note_off,,,,,4,0,1,,,,,0,,,51,0
33404,note_on,,,,,4,0,1,,,,,0,,,63,48
33452,note_off,,,,,48,0,1,,,,,0,,,63,0
33468,note_on,,,,,16,0,1,,,,,0,,,51,40
33468,note_on,,,,,0,0,1,,,,,0,,,41,84
33468,note_on,,,,,0,0,1,,,,,0,,,54,42
33504,note_off,,,,,36,0,1,,,,,0,,,51,0
33504,note_off,,,,,0,0,1,,,,,0,,,54,0
33512,note_on,,,,,8,0,1,,,,,0,,,63,37
33552,note_off,,,,,40,0,1,,,,,0,,,63,0
33572,note_on,,,,,20,0,1,,,,,0,,,54,40
33572,note_on,,,,,0,0,1,,,,,0,,,51,35
33576,note_off,,,,,4,0,1,,,,,0,,,41,0
33604,note_off,,,,,28,0,1,,,,,0,,,54,0
33612,note_off,,,,,8,0,1,,,,,0,,,51,0
33616,note_on,,,,,4,0,1,,,,,0,,,63,47
33668,note_off,,,,,52,0,1,,,,,0,,,63,0
33688,note_on,,,,,20,0,1,,,,,0,,,39,82
33696,note_on,,,,,8,0,1,,,,,0,,,54,45
33700,note_on,,,,,4,0,1,,,,,0,,,51,42
33704,control_change,,,,,4,0,1,,,64,104,0,,,,
33708,control_change,,,,,4,0,1,,,64,24,0,,,,
33716,control_change,,,,,8,0,1,,,64,0,0,,,,
33732,note_off,,,,,16,0,1,,,,,0,,,54,0
33740,note_off,,,,,8,0,1,,,,,0,,,51,0
33752,note_on,,,,,12,0,1,,,,,0,,,63,31
33756,control_change,,,,,4,0,1,,,64,88,0,,,,
33764,control_change,,,,,8,0,1,,,64,127,0,,,,
33796,note_off,,,,,32,0,1,,,,,0,,,63,0
33804,note_on,,,,,8,0,1,,,,,0,,,54,38
33808,note_on,,,,,4,0,1,,,,,0,,,51,31
33840,note_off,,,,,32,0,1,,,,,0,,,54,0
33840,note_off,,,,,0,0,1,,,,,0,,,51,0
33852,note_on,,,,,12,0,1,,,,,0,,,63,36
33892,note_off,,,,,40,0,1,,,,,0,,,63,0
33908,note_on,,,,,16,0,1,,,,,0,,,51,37
33908,note_on,,,,,0,0,1,,,,,0,,,54,32
33936,note_off,,,,,28,0,1,,,,,0,,,54,0
33944,note_off,,,,,8,0,1,,,,,0,,,51,0
33952,note_on,,,,,8,0,1,,,,,0,,,63,36
33988,note_off,,,,,36,0,1,,,,,0,,,63,0
34012,note_on,,,,,24,0,1,,,,,0,,,54,27
34016,note_on,,,,,4,0,1,,,,,0,,,51,33
34044,note_off,,,,,28,0,1,,,,,0,,,54,0
34048,note_off,,,,,4,0,1,,,,,0,,,39,0
34048,note_on,,,,,0,0,1,,,,,0,,,63,32
34056,note_off,,,,,8,0,1,,,,,0,,,51,0
34068,note_off,,,,,12,0,1,,,,,0,,,63,0
34144,note_on,,,,,76,0,1,,,,,0,,,38,87
34208,control_change,,,,,64,0,1,,,64,104,0,,,,
34212,control_change,,,,,4,0,1,,,64,0,0,,,,
34252,control_change,,,,,40,0,1,,,64,72,0,,,,
34260,control_change,,,,,8,0,1,,,64,127,0,,,,
34380,note_off,,,,,120,0,1,,,,,0,,,38,0
34560,note_on,,,,,180,0,1,,,,,0,,,37,80
34624,control_change,,,,,64,0,1,,,64,104,0,,,,
34628,control_change,,,,,4,0,1,,,64,0,0,,,,
34676,control_change,,,,,48,0,1,,,64,56,0,,,,
34684,control_change,,,,,8,0,1,,,64,127,0,,,,
34804,note_off,,,,,120,0,1,,,,,0,,,37,0
35004,note_on,,,,,200,0,1,,,,,0,,,36,82
35048,control_change,,,,,44,0,1,,,64,88,0,,,,
35052,control_change,,,,,4,0,1,,,64,0,0,,,,
35112,control_change,,,,,60,0,1,,,64,72,0,,,,
35120,control_change,,,,,8,0,1,,,64,127,0,,,,
35220,note_off,,,,,100,0,1,,,,,0,,,36,0
35456,note_on,,,,,236,0,1,,,,,0,,,35,84
35460,control_change,,,,,4,0,1,,,64,56,0,,,,
35464,note_on,,,,,4,0,1,,,,,0,,,54,46
35468,control_change,,,,,4,0,1,,,64,0,0,,,,
35472,note_on,,,,,4,0,1,,,,,0,,,58,40
35508,control_change,,,,,36,0,1,,,64,104,0,,,,
35512,note_off,,,,,0,0,1,,,,,0,,,58,0
35512,note_off,,,,,4,0,1,,,,,0,,,54,0
35516,control_change,,,,,4,0,1,,,64,127,0,,,,
35532,note_on,,,,,16,0,1,,,,,0,,,63,19
35568,note_off,,,,,36,0,1,,,,,0,,,63,0
35584,note_on,,,,,16,0,1,,,,,0,,,54,29
35596,note_on,,,,,12,0,1,,,,,0,,,58,19
35616,note_on,,,,,0,0,1,,,,,0,,,63,34
35616,note_off,,,,,20,0,1,,,,,0,,,58,0
35620,note_off,,,,,4,0,1,,,,,0,,,54,0
35672,note_off,,,,,52,0,1,,,,,0,,,63,0
35688,note_on,,,,,16,0,1,,,,,0,,,58,26
35692,note_on,,,,,4,0,1,,,,,0,,,54,29
35712,note_off,,,,,20,0,1,,,,,0,,,58,0
35720,note_on,,,,,8,0,1,,,,,0,,,63,34
35724,note_off,,,,,4,0,1,,,,,0,,,54,0
35780,note_off,,,,,56,0,1,,,,,0,,,63,0
35788,note_on,,,,,8,0,1,,,,,0,,,54,30
35792,note_on,,,,,4,0,1,,,,,0,,,58,31
35812,note_off,,,,,20,0,1,,,,,0,,,58,0
35820,note_off,,,,,8,0,1,,,,,0,,,54,0
35828,note_on,,,,,8,0,1,,,,,0,,,63,36
35868,note_off,,,,,40,0,1,,,,,0,,,63,0
35888,note_on,,,,,20,0,1,,,,,0,,,54,45
35892,note_on,,,,,4,0,1,,,,,0,,,58,32
35920,note_off,,,,,28,0,1,,,,,0,,,58,0
35928,note_off,,,,,8,0,1,,,,,0,,,54,0
35928,note_on,,,,,0,0,1,,,,,0,,,63,37
35992,note_on,,,,,0,0,1,,,,,0,,,54,40
35992,note_off,,,,,64,0,1,,,,,0,,,63,0
35996,note_on,,,,,4,0,1,,,,,0,,,58,33
36024,note_off,,,,,28,0,1,,,,,0,,,58,0
36032,note_off,,,,,8,0,1,,,,,0,,,54,0
36032,note_on,,,,,0,0,1,,,,,0,,,63,43
36096,note_on,,,,,64,0,1,,,,,0,,,54,48
36100,note_off,,,,,4,0,1,,,,,0,,,63,0
36104,note_on,,,,,4,0,1,,,,,0,,,58,33
36132,note_off,,,,,28,0,1,,,,,0,,,58,0
36144,note_on,,,,,0,0,1,,,,,0,,,63,44
36144,note_off,,,,,12,0,1,,,,,0,,,54,0
36200,note_on,,,,,56,0,1,,,,,0,,,54,32
36204,note_off,,,,,4,0,1,,,,,0,,,63,0
36240,note_off,,,,,36,0,1,,,,,0,,,54,0
36252,note_on,,,,,12,0,1,,,,,0,,,63,44
36312,note_off,,,,,60,0,1,,,,,0,,,63,0
36320,control_change,,,,,8,0,1,,,64,56,0,,,,
36328,control_change,,,,,8,0,1,,,64,0,0,,,,
36336,note_on,,,,,8,0,1,,,,,0,,,53,56
36340,note_on,,,,,4,0,1,,,,,0,,,57,47
36368,control_change,,,,,28,0,1,,,64,56,0,,,,
36372,control_change,,,,,0,0,1,,,64,127,0,,,,
36372,note_on,,,,,4,0,1,,,,,0,,,63,28
36376,note_off,,,,,4,0,1,,,,,0,,,57,0
36380,note_off,,,,,4,0,1,,,,,0,,,53,0
36432,note_off,,,,,52,0,1,,,,,0,,,63,0
36436,note_on,,,,,4,0,1,,,,,0,,,57,39
36440,note_on,,,,,4,0,1,,,,,0,,,53,42
36456,note_off,,,,,16,0,1,,,,,0,,,53,0
36472,note_off,,,,,16,0,1,,,,,0,,,57,0
36476,note_on,,,,,4,0,1,,,,,0,,,63,43
36528,note_off,,,,,52,0,1,,,,,0,,,63,0
36532,note_on,,,,,4,0,1,,,,,0,,,57,37
36536,note_on,,,,,4,0,1,,,,,0,,,53,47
36556,note_off,,,,,20,0,1,,,,,0,,,53,0
36568,note_off,,,,,12,0,1,,,,,0,,,57,0
36572,note_on,,,,,4,0,1,,,,,0,,,63,46
36628,note_off,,,,,56,0,1,,,,,0,,,63,0
36636,note_on,,,,,8,0,1,,,,,0,,,57,45
36640,note_on,,,,,4,0,1,,,,,0,,,53,53
36660,note_off,,,,,20,0,1,,,,,0,,,53,0
36672,note_off,,,,,12,0,1,,,,,0,,,57,0
36676,note_on,,,,,4,0,1,,,,,0,,,63,43
36724,note_off,,,,,48,0,1,,,,,0,,,63,0
36744,note_on,,,,,20,0,1,,,,,0,,,57,42
36744,note_on,,,,,0,0,1,,,,,0,,,53,54
36764,note_off,,,,,20,0,1,,,,,0,,,53,0
36772,note_off,,,,,8,0,1,,,,,0,,,57,0
36776,note_on,,,,,4,0,1,,,,,0,,,63,39
36836,note_off,,,,,60,0,1,,,,,0,,,63,0
36848,note_on,,,,,12,0,1,,,,,0,,,57,33
36852,note_on,,,,,4,0,1,,,,,0,,,53,42
36884,note_off,,,,,32,0,1,,,,,0,,,57,0
36888,note_off,,,,,4,0,1,,,,,0,,,53,0
36892,note_on,,,,,4,0,1,,,,,0,,,63,30
36932,note_off,,,,,40,0,1,,,,,0,,,35,0
36936,note_off,,,,,4,0,1,,,,,0,,,63,0
36964,note_on,,,,,28,0,1,,,,,0,,,57,41
36968,note_on,,,,,4,0,1,,,,,0,,,53,40
36988,note_off,,,,,20,0,1,,,,,0,,,53,0
37000,note_on,,,,,0,0,1,,,,,0,,,63,46
37000,note_off,,,,,12,0,1,,,,,0,,,57,0
37056,note_off,,,,,56,0,1,,,,,0,,,63,0
37068,note_on,,,,,12,0,1,,,,,0,,,35,82
37076,note_on,,,,,8,0,1,,,,,0,,,57,30
37076,note_on,,,,,0,0,1,,,,,0,,,53,49
37112,note_off,,,,,36,0,1,,,,,0,,,57,0
37116,note_off,,,,,4,0,1,,,,,0,,,53,0
37132,note_on,,,,,16,0,1,,,,,0,,,63,33
37192,note_off,,,,,60,0,1,,,,,0,,,63,0
37196,note_off,,,,,4,0,1,,,,,0,,,35,0
37228,note_on,,,,,32,0,1,,,,,0,,,34,82
37248,note_on,,,,,20,0,1,,,,,0,,,58,48
37248,note_on,,,,,0,0,1,,,,,0,,,53,55
37256,control_change,,,,,8,0,1,,,64,88,0,,,,
37260,control_change,,,,,4,0,1,,,64,0,0,,,,
37296,note_off,,,,,36,0,1,,,,,0,,,58,0
37300,note_off,,,,,4,0,1,,,,,0,,,53,0
37308,note_on,,,,,8,0,1,,,,,0,,,62,45
37312,control_change,,,,,4,0,1,,,64,88,0,,,,
37320,control_change,,,,,8,0,1,,,64,127,0,,,,
37352,note_off,,,,,32,0,1,,,,,0,,,62,0
37368,note_on,,,,,16,0,1,,,,,0,,,58,37
37372,note_on,,,,,4,0,1,,,,,0,,,53,39
37400,note_off,,,,,28,0,1,,,,,0,,,53,0
37404,note_off,,,,,4,0,1,,,,,0,,,58,0
37412,note_on,,,,,8,0,1,,,,,0,,,62,42
37460,note_off,,,,,48,0,1,,,,,0,,,62,0
37472,note_off,,,,,12,0,1,,,,,0,,,34,0
37476,note_on,,,,,4,0,1,,,,,0,,,58,32
37480,note_on,,,,,4,0,1,,,,,0,,,53,38
37508,note_off,,,,,28,0,1,,,,,0,,,58,0
37516,note_off,,,,,8,0,1,,,,,0,,,53,0
37520,note_on,,,,,4,0,1,,,,,0,,,62,38
37572,note_on,,,,,0,0,1,,,,,0,,,58,40
37572,note_off,,,,,52,0,1,,,,,0,,,62,0
37580,note_on,,,,,8,0,1,,,,,0,,,53,42
37608,note_off,,,,,28,0,1,,,,,0,,,58,0
37624,note_off,,,,,16,0,1,,,,,0,,,53,0
37628,note_on,,,,,4,0,1,,,,,0,,,62,47
37680,note_off,,,,,52,0,1,,,,,0,,,62,0
37684,note_on,,,,,4,0,1,,,,,0,,,58,44
37688,note_on,,,,,4,0,1,,,,,0,,,53,43
37720,note_off,,,,,32,0,1,,,,,0,,,53,0
37728,note_off,,,,,8,0,1,,,,,0,,,58,0
37736,note_on,,,,,8,0,1,,,,,0,,,62,45
37784,note_off,,,,,48,0,1,,,,,0,,,62,0
37788,note_on,,,,,0,0,1,,,,,0,,,53,39
37788,note_on,,,,,4,0,1,,,,,0,,,58,37
37820,note_off,,,,,32,0,1,,,,,0,,,58,0
37828,note_off,,,,,8,0,1,,,,,0,,,53,0
37836,note_on,,,,,8,0,1,,,,,0,,,62,47
37884,note_off,,,,,48,0,1,,,,,0,,,62,0
37888,note_on,,,,,4,0,1,,,,,0,,,58,39
37892,note_on,,,,,4,0,1,,,,,0,,,53,33
37920,note_off,,,,,28,0,1,,,,,0,,,58,0
37936,note_off,,,,,16,0,1,,,,,0,,,53,0
37936,note_on,,,,,0,0,1,,,,,0,,,62,54
37992,note_on,,,,,56,0,1,,,,,0,,,58,37
37996,note_off,,,,,4,0,1,,,,,0,,,62,0
38000,note_on,,,,,4,0,1,,,,,0,,,53,45
38028,note_off,,,,,28,0,1,,,,,0,,,58,0
38036,note_off,,,,,8,0,1,,,,,0,,,53,0
38060,note_on,,,,,24,0,1,,,,,0,,,62,31
38092,note_on,,,,,0,0,1,,,,,0,,,53,59
38092,note_on,,,,,32,0,1,,,,,0,,,58,44
38096,note_off,,,,,4,0,1,,,,,0,,,62,0
38128,note_off,,,,,32,0,1,,,,,0,,,58,0
38132,note_off,,,,,4,0,1,,,,,0,,,53,0
38144,note_on,,,,,12,0,1,,,,,0,,,62,44
38188,note_off,,,,,44,0,1,,,,,0,,,62,0
38188,note_on,,,,,0,0,1,,,,,0,,,58,38
38192,note_on,,,,,4,0,1,,,,,0,,,53,36
38224,note_off,,,,,32,0,1,,,,,0,,,58,0
38236,note_off,,,,,12,0,1,,,,,0,,,53,0
38240,note_on,,,,,4,0,1,,,,,0,,,62,46
38288,note_off,,,,,48,0,1,,,,,0,,,62,0
38292,note_on,,,,,4,0,1,,,,,0,,,58,37
38296,note_on,,,,,4,0,1,,,,,0,,,53,47
38328,note_off,,,,,32,0,1,,,,,0,,,58,0
38336,note_off,,,,,8,0,1,,,,,0,,,53,0
38340,note_on,,,,,4,0,1,,,,,0,,,62,45
38388,note_off,,,,,48,0,1,,,,,0,,,62,0
38392,note_on,,,,,4,0,1,,,,,0,,,58,37
38396,note_on,,,,,4,0,1,,,,,0,,,53,33
38424,note_off,,,,,28,0,1,,,,,0,,,58,0
38428,note_off,,,,,4,0,1,,,,,0,,,53,0
38444,note_on,,,,,16,0,1,,,,,0,,,62,37
38484,note_off,,,,,40,0,1,,,,,0,,,62,0
38492,note_on,,,,,8,0,1,,,,,0,,,58,35
38504,note_on,,,,,12,0,1,,,,,0,,,53,30
38528,note_off,,,,,24,0,1,,,,,0,,,58,0
38532,note_off,,,,,4,0,1,,,,,0,,,53,0
38540,note_on,,,,,8,0,1,,,,,0,,,62,45
38584,note_off,,,,,44,0,1,,,,,0,,,62,0
38596,note_on,,,,,12,0,1,,,,,0,,,58,32
38616,note_off,,,,,20,0,1,,,,,0,,,58,0
38952,note_on,,,,,336,0,1,,,,,0,,,70,83
39048,note_off,,,,,96,0,1,,,,,0,,,70,0
39072,note_on,,,,,24,0,1,,,,,0,,,68,85
39084,note_on,,,,,12,0,1,,,,,0,,,59,49
39096,control_change,,,,,12,0,1,,,64,0,0,,,,
39132,note_off,,,,,36,0,1,,,,,0,,,59,0
39140,note_on,,,,,8,0,1,,,,,0,,,62,34
39156,control_change,,,,,16,0,1,,,64,127,0,,,,
39176,note_off,,,,,20,0,1,,,,,0,,,62,0
39192,note_on,,,,,16,0,1,,,,,0,,,59,38
39224,note_off,,,,,32,0,1,,,,,0,,,59,0
39228,note_on,,,,,4,0,1,,,,,0,,,62,36
39268,note_off,,,,,40,0,1,,,,,0,,,62,0
39280,note_on,,,,,12,0,1,,,,,0,,,59,38
39320,note_off,,,,,40,0,1,,,,,0,,,59,0
39332,note_on,,,,,12,0,1,,,,,0,,,62,29
39384,note_off,,,,,52,0,1,,,,,0,,,62,0
39396,note_on,,,,,12,0,1,,,,,0,,,59,35
39436,note_off,,,,,40,0,1,,,,,0,,,59,0
39460,note_on,,,,,24,0,1,,,,,0,,,62,22
39500,note_off,,,,,40,0,1,,,,,0,,,62,0
39500,note_on,,,,,0,0,1,,,,,0,,,59,41
39544,note_off,,,,,44,0,1,,,,,0,,,59,0
39556,note_on,,,,,12,0,1,,,,,0,,,62,33
39600,note_off,,,,,44,0,1,,,,,0,,,62,0
39620,note_on,,,,,20,0,1,,,,,0,,,59,41
39660,note_off,,,,,40,0,1,,,,,0,,,59,0
39676,note_on,,,,,16,0,1,,,,,0,,,62,27
39720,note_off,,,,,44,0,1,,,,,0,,,62,0
39736,note_on,,,,,16,0,1,,,,,0,,,59,32
39764,note_off,,,,,28,0,1,,,,,0,,,59,0
39784,note_on,,,,,20,0,1,,,,,0,,,62,30
39820,note_off,,,,,36,0,1,,,,,0,,,62,0
39840,note_on,,,,,20,0,1,,,,,0,,,59,28
39860,note_on,,,,,20,0,1,,,,,0,,,66,73
39876,note_off,,,,,16,0,1,,,,,0,,,59,0
39880,note_off,,,,,4,0,1,,,,,0,,,68,0
39896,note_on,,,,,16,0,1,,,,,0,,,62,24
39948,note_off,,,,,52,0,1,,,,,0,,,62,0
39976,note_on,,,,,0,0,1,,,,,0,,,65,79
39976,note_off,,,,,28,0,1,,,,,0,,,66,0
39992,note_on,,,,,0,0,1,,,,,0,,,56,37
39992,note_on,,,,,16,0,1,,,,,0,,,59,46
40000,control_change,,,,,8,0,1,,,64,104,0,,,,
40008,control_change,,,,,8,0,1,,,64,0,0,,,,
40032,note_off,,,,,24,0,1,,,,,0,,,59,0
40040,note_on,,,,,8,0,1,,,,,0,,,62,40
40044,note_off,,,,,4,0,1,,,,,0,,,56,0
40060,control_change,,,,,16,0,1,,,64,127,0,,,,
40088,note_off,,,,,28,0,1,,,,,0,,,62,0
40096,note_on,,,,,8,0,1,,,,,0,,,56,34
40100,note_on,,,,,4,0,1,,,,,0,,,59,36
40132,note_off,,,,,32,0,1,,,,,0,,,59,0
40144,note_off,,,,,12,0,1,,,,,0,,,56,0
40148,note_on,,,,,4,0,1,,,,,0,,,62,36
40196,note_on,,,,,0,0,1,,,,,0,,,56,32
40196,note_off,,,,,48,0,1,,,,,0,,,62,0
40204,note_on,,,,,8,0,1,,,,,0,,,59,41
40236,note_off,,,,,32,0,1,,,,,0,,,59,0
40244,note_off,,,,,8,0,1,,,,,0,,,56,0
40256,note_on,,,,,12,0,1,,,,,0,,,62,36
40300,note_off,,,,,44,0,1,,,,,0,,,62,0
40300,note_on,,,,,0,0,1,,,,,0,,,56,27
40308,note_on,,,,,8,0,1,,,,,0,,,59,32
40336,note_off,,,,,28,0,1,,,,,0,,,59,0
40344,note_off,,,,,8,0,1,,,,,0,,,56,0
40356,note_on,,,,,12,0,1,,,,,0,,,62,33
40400,note_on,,,,,0,0,1,,,,,0,,,56,27
40400,note_off,,,,,44,0,1,,,,,0,,,62,0
40404,note_on,,,,,4,0,1,,,,,0,,,59,41
40440,note_off,,,,,36,0,1,,,,,0,,,59,0
40452,note_off,,,,,12,0,1,,,,,0,,,56,0
40464,note_on,,,,,12,0,1,,,,,0,,,62,31
40516,note_on,,,,,52,0,1,,,,,0,,,56,27
40520,note_on,,,,,0,0,1,,,,,0,,,59,36
40520,note_off,,,,,4,0,1,,,,,0,,,62,0
40548,note_off,,,,,28,0,1,,,,,0,,,59,0
40560,note_off,,,,,12,0,1,,,,,0,,,56,0
40572,note_on,,,,,12,0,1,,,,,0,,,62,37
40620,note_on,,,,,48,0,1,,,,,0,,,56,37
40624,note_off,,,,,4,0,1,,,,,0,,,62,0
40632,note_on,,,,,8,0,1,,,,,0,,,59,32
40656,note_off,,,,,24,0,1,,,,,0,,,59,0
40668,note_off,,,,,12,0,1,,,,,0,,,56,0
40680,note_on,,,,,12,0,1,,,,,0,,,62,37
40728,note_on,,,,,48,0,1,,,,,0,,,66,79
40732,note_off,,,,,4,0,1,,,,,0,,,62,0
40740,note_off,,,,,8,0,1,,,,,0,,,65,0
40744,note_on,,,,,4,0,1,,,,,0,,,56,32
40748,note_on,,,,,4,0,1,,,,,0,,,59,30
40776,note_off,,,,,28,0,1,,,,,0,,,59,0
40796,note_on,,,,,20,0,1,,,,,0,,,62,53
40800,note_off,,,,,4,0,1,,,,,0,,,56,0
40824,note_off,,,,,24,0,1,,,,,0,,,62,0
40904,note_on,,,,,80,0,1,,,,,0,,,62,80
40908,note_off,,,,,4,0,1,,,,,0,,,66,0
40928,note_on,,,,,20,0,1,,,,,0,,,54,50
40940,control_change,,,,,12,0,1,,,64,88,0,,,,
40948,control_change,,,,,8,0,1,,,64,0,0,,,,
40976,note_on,,,,,0,0,1,,,,,0,,,58,35
40976,note_off,,,,,28,0,1,,,,,0,,,54,0
41016,control_change,,,,,40,0,1,,,64,127,0,,,,
41024,note_off,,,,,8,0,1,,,,,0,,,58,0
41024,note_on,,,,,0,0,1,,,,,0,,,54,44
41064,note_off,,,,,40,0,1,,,,,0,,,54,0
41076,note_on,,,,,12,0,1,,,,,0,,,58,23
41124,note_on,,,,,0,0,1,,,,,0,,,54,42
41124,note_off,,,,,48,0,1,,,,,0,,,58,0
41168,note_off,,,,,44,0,1,,,,,0,,,54,0
41180,note_on,,,,,12,0,1,,,,,0,,,58,25
41224,note_off,,,,,44,0,1,,,,,0,,,58,0
41228,note_on,,,,,4,0,1,,,,,0,,,54,42
41264,note_off,,,,,36,0,1,,,,,0,,,54,0
41276,note_on,,,,,12,0,1,,,,,0,,,58,27
41324,note_off,,,,,48,0,1,,,,,0,,,58,0
41328,note_on,,,,,4,0,1,,,,,0,,,54,42
41372,note_off,,,,,44,0,1,,,,,0,,,54,0
41384,note_on,,,,,12,0,1,,,,,0,,,58,27
41432,note_off,,,,,48,0,1,,,,,0,,,58,0
41436,note_on,,,,,4,0,1,,,,,0,,,54,34
41476,note_off,,,,,40,0,1,,,,,0,,,54,0
41492,note_on,,,,,16,0,1,,,,,0,,,58,25
41540,note_on,,,,,0,0,1,,,,,0,,,54,37
41540,note_off,,,,,48,0,1,,,,,0,,,58,0
41580,note_off,,,,,40,0,1,,,,,0,,,54,0
41592,note_on,,,,,12,0,1,,,,,0,,,58,26
41640,note_off,,,,,48,0,1,,,,,0,,,58,0
41644,note_on,,,,,4,0,1,,,,,0,,,54,38
41680,note_off,,,,,36,0,1,,,,,0,,,54,0
41692,note_on,,,,,12,0,1,,,,,0,,,58,27
41736,note_off,,,,,44,0,1,,,,,0,,,58,0
41736,note_on,,,,,0,0,1,,,,,0,,,54,35
41776,note_off,,,,,40,0,1,,,,,0,,,54,0
41792,note_on,,,,,16,0,1,,,,,0,,,58,25
41836,note_off,,,,,44,0,1,,,,,0,,,58,0
41840,note_on,,,,,4,0,1,,,,,0,,,54,38
41876,note_off,,,,,36,0,1,,,,,0,,,54,0
41888,note_on,,,,,12,0,1,,,,,0,,,58,25
41936,note_off,,,,,48,0,1,,,,,0,,,58,0
41940,note_on,,,,,4,0,1,,,,,0,,,54,34
41976,note_off,,,,,36,0,1,,,,,0,,,54,0
41996,note_on,,,,,20,0,1,,,,,0,,,58,25
42036,note_off,,,,,40,0,1,,,,,0,,,58,0
42044,note_on,,,,,8,0,1,,,,,0,,,54,34
42076,note_off,,,,,32,0,1,,,,,0,,,54,0
42096,note_on,,,,,20,0,1,,,,,0,,,58,25
42132,note_off,,,,,36,0,1,,,,,0,,,58,0
42144,note_on,,,,,12,0,1,,,,,0,,,54,33
42176,note_off,,,,,32,0,1,,,,,0,,,54,0
42200,note_on,,,,,24,0,1,,,,,0,,,58,23
42232,note_off,,,,,32,0,1,,,,,0,,,58,0
42244,note_on,,,,,12,0,1,,,,,0,,,54,31
42272,note_off,,,,,28,0,1,,,,,0,,,54,0
42416,note_on,,,,,144,0,1,,,,,0,,,63,81
42432,note_off,,,,,16,0,1,,,,,0,,,62,0
42648,note_on,,,,,216,0,1,,,,,0,,,61,85
42652,note_off,,,,,4,0,1,,,,,0,,,63,0
42664,note_on,,,,,12,0,1,,,,,0,,,54,43
42680,control_change,,,,,16,0,1,,,64,72,0,,,,
42688,control_change,,,,,8,0,1,,,64,0,0,,,,
42712,note_off,,,,,24,0,1,,,,,0,,,54,0
42724,note_on,,,,,12,0,1,,,,,0,,,57,32
42740,control_change,,,,,16,0,1,,,64,104,0,,,,
42744,control_change,,,,,4,0,1,,,64,127,0,,,,
42752,note_off,,,,,8,0,1,,,,,0,,,57,0
42768,note_on,,,,,16,0,1,,,,,0,,,54,47
42808,note_off,,,,,40,0,1,,,,,0,,,54,0
42820,note_on,,,,,12,0,1,,,,,0,,,57,36
42860,note_off,,,,,40,0,1,,,,,0,,,57,0
42872,note_on,,,,,12,0,1,,,,,0,,,54,44
42908,note_off,,,,,36,0,1,,,,,0,,,54,0
42928,note_on,,,,,20,0,1,,,,,0,,,57,29
42956,note_off,,,,,28,0,1,,,,,0,,,57,0
42968,note_on,,,,,12,0,1,,,,,0,,,54,43
43012,note_off,,,,,44,0,1,,,,,0,,,54,0
43028,note_on,,,,,16,0,1,,,,,0,,,57,34
43064,note_off,,,,,36,0,1,,,,,0,,,57,0
43072,note_on,,,,,8,0,1,,,,,0,,,54,43
43116,note_off,,,,,44,0,1,,,,,0,,,54,0
43136,note_on,,,,,20,0,1,,,,,0,,,57,29
43176,note_on,,,,,0,0,1,,,,,0,,,54,37
43176,note_off,,,,,40,0,1,,,,,0,,,57,0
43216,note_off,,,,,40,0,1,,,,,0,,,54,0
43236,note_on,,,,,20,0,1,,,,,0,,,57,24
43264,note_off,,,,,28,0,1,,,,,0,,,57,0
43280,note_on,,,,,16,0,1,,,,,0,,,54,31
43316,note_off,,,,,36,0,1,,,,,0,,,54,0
43348,note_on,,,,,32,0,1,,,,,0,,,57,27
43364,note_on,,,,,16,0,1,,,,,0,,,60,80
43368,note_off,,,,,4,0,1,,,,,0,,,61,0
43376,note_off,,,,,8,0,1,,,,,0,,,57,0
43384,note_on,,,,,8,0,1,,,,,0,,,54,44
43424,note_off,,,,,40,0,1,,,,,0,,,54,0
43436,note_on,,,,,12,0,1,,,,,0,,,57,29
43468,note_off,,,,,32,0,1,,,,,0,,,57,0
43504,note_on,,,,,36,0,1,,,,,0,,,59,83
43512,note_off,,,,,8,0,1,,,,,0,,,60,0
43516,note_on,,,,,4,0,1,,,,,0,,,54,42
43520,note_on,,,,,4,0,1,,,,,0,,,51,42
43524,control_change,,,,,4,0,1,,,64,24,0,,,,
43532,control_change,,,,,8,0,1,,,64,0,0,,,,
43560,note_off,,,,,28,0,1,,,,,0,,,54,0
43564,note_on,,,,,4,0,1,,,,,0,,,57,33
43568,note_off,,,,,4,0,1,,,,,0,,,51,0
43584,control_change,,,,,16,0,1,,,64,127,0,,,,
43616,note_off,,,,,32,0,1,,,,,0,,,57,0
43624,note_on,,,,,8,0,1,,,,,0,,,54,35
43632,note_on,,,,,8,0,1,,,,,0,,,51,34
43660,note_off,,,,,28,0,1,,,,,0,,,54,0
43668,note_off,,,,,8,0,1,,,,,0,,,51,0
43672,note_on,,,,,4,0,1,,,,,0,,,57,35
43712,note_off,,,,,40,0,1,,,,,0,,,57,0
43724,note_on,,,,,12,0,1,,,,,0,,,54,37
43728,note_on,,,,,4,0,1,,,,,0,,,51,36
43764,note_off,,,,,36,0,1,,,,,0,,,54,0
43768,note_off,,,,,4,0,1,,,,,0,,,51,0
43780,note_on,,,,,12,0,1,,,,,0,,,57,38
43824,note_off,,,,,44,0,1,,,,,0,,,57,0
43828,note_on,,,,,4,0,1,,,,,0,,,51,39
43832,note_on,,,,,4,0,1,,,,,0,,,54,35
43864,note_off,,,,,32,0,1,,,,,0,,,54,0
43872,note_off,,,,,8,0,1,,,,,0,,,51,0
43884,note_on,,,,,12,0,1,,,,,0,,,57,36
43920,note_off,,,,,36,0,1,,,,,0,,,57,0
43924,note_on,,,,,0,0,1,,,,,0,,,54,42
43924,note_on,,,,,4,0,1,,,,,0,,,51,40
43960,note_off,,,,,36,0,1,,,,,0,,,54,0
43968,note_off,,,,,8,0,1,,,,,0,,,51,0
43984,note_on,,,,,16,0,1,,,,,0,,,57,33
44020,note_off,,,,,36,0,1,,,,,0,,,57,0
44020,note_on,,,,,0,0,1,,,,,0,,,51,31
44024,note_on,,,,,4,0,1,,,,,0,,,54,39
44056,note_off,,,,,32,0,1,,,,,0,,,54,0
44064,note_off,,,,,8,0,1,,,,,0,,,51,0
44080,note_on,,,,,16,0,1,,,,,0,,,57,31
44112,note_off,,,,,32,0,1,,,,,0,,,57,0
44128,note_on,,,,,0,0,1,,,,,0,,,54,35
44128,note_on,,,,,16,0,1,,,,,0,,,51,37
44164,note_off,,,,,0,0,1,,,,,0,,,54,0
44164,note_off,,,,,36,0,1,,,,,0,,,51,0
44176,note_on,,,,,12,0,1,,,,,0,,,57,46
44212,note_off,,,,,36,0,1,,,,,0,,,57,0
44228,note_on,,,,,16,0,1,,,,,0,,,61,75
44240,note_off,,,,,12,0,1,,,,,0,,,59,0
44244,note_on,,,,,0,0,1,,,,,0,,,51,25
44244,note_on,,,,,4,0,1,,,,,0,,,54,20
44280,note_off,,,,,0,0,1,,,,,0,,,51,0
44280,note_off,,,,,36,0,1,,,,,0,,,54,0
44296,note_on,,,,,16,0,1,,,,,0,,,57,32
44320,note_off,,,,,24,0,1,,,,,0,,,57,0
44396,note_on,,,,,76,0,1,,,,,0,,,57,86
44408,note_off,,,,,12,0,1,,,,,0,,,61,0
44424,note_on,,,,,16,0,1,,,,,0,,,50,45
44440,control_change,,,,,16,0,1,,,64,104,0,,,,
44444,control_change,,,,,4,0,1,,,64,0,0,,,,
44468,note_off,,,,,24,0,1,,,,,0,,,50,0
44468,note_on,,,,,0,0,1,,,,,0,,,53,41
44512,note_off,,,,,44,0,1,,,,,0,,,53,0
44512,control_change,,,,,0,0,1,,,64,127,0,,,,
44524,note_on,,,,,12,0,1,,,,,0,,,50,46
44560,note_off,,,,,36,0,1,,,,,0,,,50,0
44572,note_on,,,,,12,0,1,,,,,0,,,53,37
44612,note_off,,,,,40,0,1,,,,,0,,,53,0
44624,note_on,,,,,12,0,1,,,,,0,,,50,42
44660,note_off,,,,,36,0,1,,,,,0,,,50,0
44676,note_on,,,,,16,0,1,,,,,0,,,53,31
44708,note_off,,,,,32,0,1,,,,,0,,,53,0
44724,note_on,,,,,16,0,1,,,,,0,,,50,36
44768,note_off,,,,,44,0,1,,,,,0,,,50,0
44784,note_on,,,,,16,0,1,,,,,0,,,53,30
44828,note_off,,,,,44,0,1,,,,,0,,,53,0
44836,note_on,,,,,8,0,1,,,,,0,,,50,51
44876,note_off,,,,,40,0,1,,,,,0,,,50,0
44888,note_on,,,,,12,0,1,,,,,0,,,53,31
44932,note_off,,,,,44,0,1,,,,,0,,,53,0
44936,note_on,,,,,4,0,1,,,,,0,,,50,42
44976,note_off,,,,,40,0,1,,,,,0,,,50,0
44992,note_on,,,,,16,0,1,,,,,0,,,53,33
45028,note_off,,,,,36,0,1,,,,,0,,,53,0
45032,note_on,,,,,4,0,1,,,,,0,,,50,43
45076,note_off,,,,,44,0,1,,,,,0,,,50,0
45088,note_on,,,,,12,0,1,,,,,0,,,53,36
45128,note_off,,,,,40,0,1,,,,,0,,,53,0
45132,note_on,,,,,4,0,1,,,,,0,,,50,44
45176,note_off,,,,,44,0,1,,,,,0,,,50,0
45188,note_on,,,,,12,0,1,,,,,0,,,53,37
45232,note_off,,,,,44,0,1,,,,,0,,,53,0
45236,note_on,,,,,4,0,1,,,,,0,,,50,44
45280,note_off,,,,,44,0,1,,,,,0,,,50,0
45296,note_on,,,,,16,0,1,,,,,0,,,53,32
45324,note_off,,,,,28,0,1,,,,,0,,,53,0
45336,note_on,,,,,12,0,1,,,,,0,,,50,44
45376,note_off,,,,,40,0,1,,,,,0,,,50,0
45396,note_on,,,,,20,0,1,,,,,0,,,53,35
45436,note_off,,,,,40,0,1,,,,,0,,,53,0
45444,note_on,,,,,8,0,1,,,,,0,,,50,40
45476,note_off,,,,,32,0,1,,,,,0,,,50,0
45496,note_on,,,,,20,0,1,,,,,0,,,53,36
45524,note_off,,,,,28,0,1,,,,,0,,,53,0
45552,note_on,,,,,28,0,1,,,,,0,,,50,39
45576,note_off,,,,,24,0,1,,,,,0,,,50,0
45608,note_on,,,,,32,0,1,,,,,0,,,53,24
45632,note_off,,,,,24,0,1,,,,,0,,,53,0
45652,note_on,,,,,20,0,1,,,,,0,,,50,39
45688,note_off,,,,,36,0,1,,,,,0,,,50,0
45716,note_on,,,,,28,0,1,,,,,0,,,53,25
45768,note_off,,,,,52,0,1,,,,,0,,,53,0
45772,note_on,,,,,4,0,1,,,,,0,,,50,38
45792,note_off,,,,,20,0,1,,,,,0,,,50,0
45840,note_off,,,,,48,0,1,,,,,0,,,57,0
45900,note_on,,,,,60,0,1,,,,,0,,,58,77
46132,note_on,,,,,232,0,1,,,,,0,,,56,79
46148,note_off,,,,,16,0,1,,,,,0,,,58,0
46156,note_on,,,,,8,0,1,,,,,0,,,47,48
46156,control_change,,,,,0,0,1,,,64,0,0,,,,
46200,note_off,,,,,44,0,1,,,,,0,,,47,0
46212,note_on,,,,,12,0,1,,,,,0,,,50,36
46220,control_change,,,,,8,0,1,,,64,88,0,,,,
46224,control_change,,,,,4,0,1,,,64,127,0,,,,
46240,note_off,,,,,16,0,1,,,,,0,,,50,0
46252,note_on,,,,,12,0,1,,,,,0,,,47,45
46288,note_off,,,,,36,0,1,,,,,0,,,47,0
46296,note_on,,,,,8,0,1,,,,,0,,,50,41
46332,note_off,,,,,36,0,1,,,,,0,,,50,0
46348,note_on,,,,,16,0,1,,,,,0,,,47,41
46388,note_off,,,,,40,0,1,,,,,0,,,47,0
46400,note_on,,,,,12,0,1,,,,,0,,,50,34
46448,note_off,,,,,48,0,1,,,,,0,,,50,0
46452,note_on,,,,,4,0,1,,,,,0,,,47,45
46492,note_off,,,,,40,0,1,,,,,0,,,47,0
46508,note_on,,,,,16,0,1,,,,,0,,,50,39
46540,note_off,,,,,32,0,1,,,,,0,,,50,0
46552,note_on,,,,,12,0,1,,,,,0,,,47,48
46588,note_off,,,,,36,0,1,,,,,0,,,47,0
46604,note_on,,,,,16,0,1,,,,,0,,,50,44
46636,note_off,,,,,32,0,1,,,,,0,,,50,0
46660,note_on,,,,,24,0,1,,,,,0,,,47,44
46692,note_off,,,,,32,0,1,,,,,0,,,47,0
46708,note_on,,,,,16,0,1,,,,,0,,,50,35
46748,note_off,,,,,40,0,1,,,,,0,,,50,0
46764,note_on,,,,,16,0,1,,,,,0,,,47,40
46792,note_off,,,,,28,0,1,,,,,0,,,47,0
46804,note_on,,,,,12,0,1,,,,,0,,,50,54
46856,note_off,,,,,52,0,1,,,,,0,,,50,0
46860,note_on,,,,,4,0,1,,,,,0,,,54,80
46872,note_on,,,,,12,0,1,,,,,0,,,47,38
46880,note_off,,,,,8,0,1,,,,,0,,,56,0
46904,note_off,,,,,24,0,1,,,,,0,,,47,0
46916,note_on,,,,,12,0,1,,,,,0,,,50,42
46972,note_off,,,,,56,0,1,,,,,0,,,50,0
46984,note_off,,,,,12,0,1,,,,,0,,,54,0
46984,note_on,,,,,0,0,1,,,,,0,,,53,89
47004,note_on,,,,,20,0,1,,,,,0,,,44,40
47008,note_on,,,,,4,0,1,,,,,0,,,47,38
47012,control_change,,,,,4,0,1,,,64,104,0,,,,
47016,control_change,,,,,4,0,1,,,64,0,0,,,,
47040,note_off,,,,,24,0,1,,,,,0,,,47,0
47044,note_on,,,,,4,0,1,,,,,0,,,50,51
47048,note_off,,,,,4,0,1,,,,,0,,,44,0
47076,control_change,,,,,28,0,1,,,64,127,0,,,,
47092,note_off,,,,,16,0,1,,,,,0,,,50,0
47104,note_on,,,,,12,0,1,,,,,0,,,47,44
47108,note_on,,,,,4,0,1,,,,,0,,,44,34
47136,note_off,,,,,28,0,1,,,,,0,,,47,0
47144,note_off,,,,,8,0,1,,,,,0,,,44,0
47148,note_on,,,,,4,0,1,,,,,0,,,50,51
47196,note_off,,,,,48,0,1,,,,,0,,,50,0
47204,note_on,,,,,8,0,1,,,,,0,,,44,37
47208,note_on,,,,,4,0,1,,,,,0,,,47,43
47236,note_off,,,,,28,0,1,,,,,0,,,47,0
47248,note_off,,,,,12,0,1,,,,,0,,,44,0
47252,note_on,,,,,4,0,1,,,,,0,,,50,45
47304,note_off,,,,,52,0,1,,,,,0,,,50,0
47308,note_on,,,,,4,0,1,,,,,0,,,44,35
47316,note_on,,,,,8,0,1,,,,,0,,,47,41
47340,note_off,,,,,24,0,1,,,,,0,,,47,0
47352,note_off,,,,,12,0,1,,,,,0,,,44,0
47360,note_on,,,,,8,0,1,,,,,0,,,50,43
47408,note_off,,,,,48,0,1,,,,,0,,,50,0
47412,note_on,,,,,4,0,1,,,,,0,,,44,33
47416,note_on,,,,,4,0,1,,,,,0,,,47,48
47452,note_off,,,,,36,0,1,,,,,0,,,47,0
47456,note_off,,,,,4,0,1,,,,,0,,,44,0
47468,note_on,,,,,12,0,1,,,,,0,,,50,43
47512,note_off,,,,,44,0,1,,,,,0,,,50,0
47516,note_on,,,,,4,0,1,,,,,0,,,44,36
47524,note_on,,,,,8,0,1,,,,,0,,,47,36
47548,note_off,,,,,24,0,1,,,,,0,,,47,0
47560,note_off,,,,,12,0,1,,,,,0,,,44,0
47572,note_on,,,,,12,0,1,,,,,0,,,50,40
47616,note_off,,,,,44,0,1,,,,,0,,,50,0
47624,note_on,,,,,8,0,1,,,,,0,,,44,39
47628,note_on,,,,,4,0,1,,,,,0,,,47,44
47664,note_off,,,,,36,0,1,,,,,0,,,47,0
47672,note_off,,,,,8,0,1,,,,,0,,,44,0
47676,note_on,,,,,4,0,1,,,,,0,,,50,45
47724,note_off,,,,,48,0,1,,,,,0,,,50,0
47736,note_on,,,,,12,0,1,,,,,0,,,54,81
47740,note_on,,,,,4,0,1,,,,,0,,,44,34
47744,note_on,,,,,4,0,1,,,,,0,,,47,35
47752,note_off,,,,,8,0,1,,,,,0,,,53,0
47784,note_off,,,,,32,0,1,,,,,0,,,47,0
47792,note_off,,,,,8,0,1,,,,,0,,,44,0
47800,note_on,,,,,8,0,1,,,,,0,,,50,49
47828,note_off,,,,,28,0,1,,,,,0,,,50,0
47904,note_on,,,,,76,0,1,,,,,0,,,50,82
47916,note_off,,,,,12,0,1,,,,,0,,,54,0
47920,note_on,,,,,4,0,1,,,,,0,,,42,53
47936,control_change,,,,,16,0,1,,,64,24,0,,,,
47944,control_change,,,,,8,0,1,,,64,0,0,,,,
47972,note_off,,,,,28,0,1,,,,,0,,,42,0
47976,note_on,,,,,4,0,1,,,,,0,,,46,36
48004,control_change,,,,,28,0,1,,,64,127,0,,,,
48016,note_off,,,,,12,0,1,,,,,0,,,46,0
48024,note_on,,,,,8,0,1,,,,,0,,,42,36
48064,note_off,,,,,40,0,1,,,,,0,,,42,0
48072,note_on,,,,,8,0,1,,,,,0,,,46,28
48108,note_off,,,,,36,0,1,,,,,0,,,46,0
48116,note_on,,,,,8,0,1,,,,,0,,,42,35
48156,note_off,,,,,40,0,1,,,,,0,,,42,0
48168,note_on,,,,,12,0,1,,,,,0,,,46,26
48212,note_off,,,,,44,0,1,,,,,0,,,46,0
48220,note_on,,,,,8,0,1,,,,,0,,,42,39
48256,note_off,,,,,36,0,1,,,,,0,,,42,0
48264,note_on,,,,,8,0,1,,,,,0,,,46,32
48312,note_off,,,,,48,0,1,,,,,0,,,46,0
48312,note_on,,,,,0,0,1,,,,,0,,,42,43
48356,note_off,,,,,44,0,1,,,,,0,,,42,0
48364,note_on,,,,,8,0,1,,,,,0,,,46,31
48408,note_off,,,,,44,0,1,,,,,0,,,46,0
48416,note_on,,,,,8,0,1,,,,,0,,,42,42
48456,note_off,,,,,40,0,1,,,,,0,,,42,0
48468,note_on,,,,,12,0,1,,,,,0,,,46,29
48512,note_off,,,,,44,0,1,,,,,0,,,46,0
48516,note_on,,,,,4,0,1,,,,,0,,,42,39
48548,note_off,,,,,32,0,1,,,,,0,,,42,0
48560,note_on,,,,,12,0,1,,,,,0,,,46,42
48608,note_off,,,,,48,0,1,,,,,0,,,46,0
48612,note_on,,,,,4,0,1,,,,,0,,,42,40
48652,note_off,,,,,40,0,1,,,,,0,,,42,0
48664,note_on,,,,,12,0,1,,,,,0,,,46,28
48704,note_off,,,,,40,0,1,,,,,0,,,46,0
48708,note_on,,,,,4,0,1,,,,,0,,,42,42
48744,note_off,,,,,36,0,1,,,,,0,,,42,0
48756,note_on,,,,,12,0,1,,,,,0,,,46,28
48800,note_off,,,,,44,0,1,,,,,0,,,46,0
48804,note_on,,,,,4,0,1,,,,,0,,,42,35
48836,note_off,,,,,32,0,1,,,,,0,,,42,0
48856,note_on,,,,,20,0,1,,,,,0,,,46,26
48892,note_off,,,,,36,0,1,,,,,0,,,46,0
48900,note_on,,,,,8,0,1,,,,,0,,,42,37
48936,note_off,,,,,36,0,1,,,,,0,,,42,0
48952,note_on,,,,,16,0,1,,,,,0,,,46,26
48988,note_off,,,,,36,0,1,,,,,0,,,46,0
48996,note_on,,,,,8,0,1,,,,,0,,,42,34
49032,note_off,,,,,36,0,1,,,,,0,,,42,0
49044,note_on,,,,,12,0,1,,,,,0,,,46,32
49088,note_off,,,,,44,0,1,,,,,0,,,46,0
49092,note_on,,,,,4,0,1,,,,,0,,,42,34
49128,note_off,,,,,36,0,1,,,,,0,,,42,0
49148,note_on,,,,,20,0,1,,,,,0,,,46,27
49168,note_off,,,,,20,0,1,,,,,0,,,46,0
49192,note_on,,,,,24,0,1,,,,,0,,,42,34
49224,note_off,,,,,32,0,1,,,,,0,,,42,0
49236,note_on,,,,,12,0,1,,,,,0,,,46,26
49252,note_off,,,,,16,0,1,,,,,0,,,46,0
49256,note_off,,,,,4,0,1,,,,,0,,,50,0
49320,note_on,,,,,64,0,1,,,,,0,,,51,81
49540,note_on,,,,,220,0,1,,,,,0,,,49,77
49548,note_off,,,,,8,0,1,,,,,0,,,51,0
49556,note_on,,,,,8,0,1,,,,,0,,,42,38
49572,control_change,,,,,16,0,1,,,64,56,0,,,,
49580,control_change,,,,,8,0,1,,,64,0,0,,,,
49596,note_off,,,,,16,0,1,,,,,0,,,42,0
49620,note_on,,,,,24,0,1,,,,,0,,,45,22
49632,control_change,,,,,12,0,1,,,64,88,0,,,,
49640,control_change,,,,,8,0,1,,,64,127,0,,,,
49644,note_off,,,,,4,0,1,,,,,0,,,45,0
49656,note_on,,,,,12,0,1,,,,,0,,,42,38
49692,note_off,,,,,36,0,1,,,,,0,,,42,0
49700,note_on,,,,,8,0,1,,,,,0,,,45,38
49744,note_off,,,,,44,0,1,,,,,0,,,45,0
49752,note_on,,,,,8,0,1,,,,,0,,,42,45
49792,note_off,,,,,40,0,1,,,,,0,,,42,0
49808,note_on,,,,,16,0,1,,,,,0,,,45,34
49848,note_off,,,,,40,0,1,,,,,0,,,45,0
49852,note_on,,,,,4,0,1,,,,,0,,,42,43
49896,note_off,,,,,44,0,1,,,,,0,,,42,0
49916,note_on,,,,,20,0,1,,,,,0,,,45,32
49956,note_off,,,,,40,0,1,,,,,0,,,45,0
49956,note_on,,,,,0,0,1,,,,,0,,,42,42
50000,note_off,,,,,44,0,1,,,,,0,,,42,0
50020,note_on,,,,,20,0,1,,,,,0,,,45,29
50068,note_on,,,,,0,0,1,,,,,0,,,42,39
50068,note_off,,,,,48,0,1,,,,,0,,,45,0
50112,note_off,,,,,44,0,1,,,,,0,,,42,0
50132,note_on,,,,,20,0,1,,,,,0,,,45,40
50168,note_on,,,,,0,0,1,,,,,0,,,42,39
50168,note_off,,,,,36,0,1,,,,,0,,,45,0
50212,note_off,,,,,44,0,1,,,,,0,,,42,0
50232,note_on,,,,,20,0,1,,,,,0,,,45,24
50244,note_on,,,,,12,0,1,,,,,0,,,48,74
50256,note_off,,,,,12,0,1,,,,,0,,,49,0
50260,note_off,,,,,4,0,1,,,,,0,,,45,0
50268,note_on,,,,,8,0,1,,,,,0,,,42,40
50300,note_off,,,,,32,0,1,,,,,0,,,42,0
50416,note_off,,,,,116,0,1,,,,,0,,,48,0
50420,note_on,,,,,4,0,1,,,,,0,,,42,25
50420,note_on,,,,,0,0,1,,,,,0,,,47,73
50424,note_on,,,,,4,0,1,,,,,0,,,39,35
50428,control_change,,,,,4,0,1,,,64,104,0,,,,
50432,control_change,,,,,4,0,1,,,64,0,0,,,,
50456,note_on,,,,,24,0,1,,,,,0,,,45,37
50460,note_off,,,,,4,0,1,,,,,0,,,42,0
50484,note_off,,,,,24,0,1,,,,,0,,,39,0
50488,control_change,,,,,4,0,1,,,64,127,0,,,,
50520,note_off,,,,,32,0,1,,,,,0,,,45,0
50536,note_on,,,,,16,0,1,,,,,0,,,42,39
50544,note_on,,,,,8,0,1,,,,,0,,,39,34
50572,note_off,,,,,28,0,1,,,,,0,,,42,0
50580,note_off,,,,,8,0,1,,,,,0,,,39,0
50584,note_on,,,,,4,0,1,,,,,0,,,45,37
50628,note_off,,,,,44,0,1,,,,,0,,,45,0
50636,note_on,,,,,0,0,1,,,,,0,,,42,35
50636,note_on,,,,,8,0,1,,,,,0,,,39,28
50676,note_off,,,,,40,0,1,,,,,0,,,42,0
50680,note_off,,,,,4,0,1,,,,,0,,,39,0
50696,note_on,,,,,16,0,1,,,,,0,,,45,27
50740,note_off,,,,,44,0,1,,,,,0,,,45,0
50744,note_on,,,,,0,0,1,,,,,0,,,42,33
50744,note_on,,,,,4,0,1,,,,,0,,,39,27
50780,note_off,,,,,36,0,1,,,,,0,,,42,0
50788,note_off,,,,,8,0,1,,,,,0,,,39,0
50804,note_on,,,,,16,0,1,,,,,0,,,45,34
50836,note_off,,,,,32,0,1,,,,,0,,,45,0
50844,note_on,,,,,8,0,1,,,,,0,,,39,30
50852,note_on,,,,,8,0,1,,,,,0,,,42,25
50892,note_off,,,,,40,0,1,,,,,0,,,42,0
50896,note_off,,,,,4,0,1,,,,,0,,,39,0
50924,note_on,,,,,28,0,1,,,,,0,,,45,25
50952,note_off,,,,,28,0,1,,,,,0,,,45,0
50956,note_on,,,,,4,0,1,,,,,0,,,39,28
50964,note_on,,,,,8,0,1,,,,,0,,,42,26
50992,note_off,,,,,28,0,1,,,,,0,,,42,0
50996,note_off,,,,,4,0,1,,,,,0,,,39,0
51020,note_on,,,,,24,0,1,,,,,0,,,45,24
51044,note_off,,,,,24,0,1,,,,,0,,,45,0
51060,note_on,,,,,16,0,1,,,,,0,,,42,31
51064,note_on,,,,,4,0,1,,,,,0,,,39,29
51088,note_off,,,,,24,0,1,,,,,0,,,42,0
51100,note_off,,,,,12,0,1,,,,,0,,,39,0
51116,note_on,,,,,16,0,1,,,,,0,,,45,30
51140,note_off,,,,,24,0,1,,,,,0,,,45,0
51168,note_on,,,,,28,0,1,,,,,0,,,49,61
51172,note_on,,,,,4,0,1,,,,,0,,,42,20
51176,note_off,,,,,4,0,1,,,,,0,,,47,0
51176,note_on,,,,,0,0,1,,,,,0,,,39,25
51204,note_off,,,,,28,0,1,,,,,0,,,42,0
51212,note_off,,,,,8,0,1,,,,,0,,,39,0
51232,note_on,,,,,20,0,1,,,,,0,,,45,21
51248,note_off,,,,,16,0,1,,,,,0,,,45,0
51296,note_off,,,,,48,0,1,,,,,0,,,49,0
51304,note_on,,,,,8,0,1,,,,,0,,,45,75
51324,note_on,,,,,20,0,1,,,,,0,,,38,46
51336,control_change,,,,,12,0,1,,,64,40,0,,,,
51340,control_change,,,,,4,0,1,,,64,0,0,,,,
51360,note_off,,,,,20,0,1,,,,,0,,,38,0
51376,note_on,,,,,16,0,1,,,,,0,,,41,34
51396,control_change,,,,,20,0,1,,,64,127,0,,,,
51404,note_off,,,,,8,0,1,,,,,0,,,41,0
51420,note_on,,,,,16,0,1,,,,,0,,,38,37
51456,note_off,,,,,36,0,1,,,,,0,,,38,0
51472,note_on,,,,,16,0,1,,,,,0,,,41,24
51508,note_off,,,,,36,0,1,,,,,0,,,41,0
51512,note_on,,,,,4,0,1,,,,,0,,,38,43
51556,note_off,,,,,44,0,1,,,,,0,,,38,0
51572,note_on,,,,,16,0,1,,,,,0,,,41,31
51608,note_off,,,,,36,0,1,,,,,0,,,41,0
51616,note_on,,,,,8,0,1,,,,,0,,,38,39
51656,note_off,,,,,40,0,1,,,,,0,,,38,0
51676,note_on,,,,,20,0,1,,,,,0,,,41,27
51708,note_off,,,,,32,0,1,,,,,0,,,41,0
51724,note_on,,,,,16,0,1,,,,,0,,,38,44
51764,note_off,,,,,40,0,1,,,,,0,,,38,0
51776,note_on,,,,,12,0,1,,,,,0,,,41,28
51812,note_off,,,,,36,0,1,,,,,0,,,41,0
51820,note_on,,,,,8,0,1,,,,,0,,,38,45
51860,note_off,,,,,40,0,1,,,,,0,,,38,0
51872,note_on,,,,,12,0,1,,,,,0,,,41,36
51908,note_off,,,,,36,0,1,,,,,0,,,41,0
51916,note_on,,,,,8,0,1,,,,,0,,,38,44
51956,note_off,,,,,40,0,1,,,,,0,,,38,0
51976,note_on,,,,,20,0,1,,,,,0,,,41,24
52012,note_off,,,,,36,0,1,,,,,0,,,41,0
52020,note_on,,,,,8,0,1,,,,,0,,,38,35
52064,note_off,,,,,44,0,1,,,,,0,,,38,0
52076,note_on,,,,,12,0,1,,,,,0,,,41,35
52120,note_off,,,,,44,0,1,,,,,0,,,41,0
52124,note_on,,,,,4,0,1,,,,,0,,,38,35
52168,note_off,,,,,44,0,1,,,,,0,,,38,0
52180,note_on,,,,,12,0,1,,,,,0,,,41,37
52220,note_off,,,,,40,0,1,,,,,0,,,41,0
52228,note_on,,,,,8,0,1,,,,,0,,,38,37
52268,note_off,,,,,40,0,1,,,,,0,,,38,0
52284,note_on,,,,,16,0,1,,,,,0,,,41,31
52320,note_off,,,,,36,0,1,,,,,0,,,41,0
52332,note_on,,,,,12,0,1,,,,,0,,,38,33
52372,note_off,,,,,40,0,1,,,,,0,,,38,0
52392,note_on,,,,,20,0,1,,,,,0,,,41,31
52440,note_off,,,,,48,0,1,,,,,0,,,41,0
52444,note_on,,,,,4,0,1,,,,,0,,,38,34
52480,note_off,,,,,36,0,1,,,,,0,,,38,0
52508,note_on,,,,,28,0,1,,,,,0,,,41,21
52536,note_on,,,,,0,0,1,,,,,0,,,46,58
52536,note_off,,,,,28,0,1,,,,,0,,,45,0
52540,note_off,,,,,4,0,1,,,,,0,,,41,0
52548,note_on,,,,,8,0,1,,,,,0,,,38,32
52580,note_off,,,,,32,0,1,,,,,0,,,38,0
52604,note_on,,,,,24,0,1,,,,,0,,,41,30
52628,note_off,,,,,24,0,1,,,,,0,,,41,0
52636,note_on,,,,,8,0,1,,,,,0,,,38,38
52676,note_off,,,,,40,0,1,,,,,0,,,38,0
52692,note_on,,,,,16,0,1,,,,,0,,,41,28
52720,note_off,,,,,28,0,1,,,,,0,,,41,0
52736,note_on,,,,,16,0,1,,,,,0,,,38,31
52744,note_off,,,,,8,0,1,,,,,0,,,46,0
52772,note_off,,,,,28,0,1,,,,,0,,,38,0
52792,note_on,,,,,20,0,1,,,,,0,,,41,32
52824,note_off,,,,,32,0,1,,,,,0,,,41,0
52844,note_on,,,,,20,0,1,,,,,0,,,38,38
52876,note_off,,,,,32,0,1,,,,,0,,,38,0
52892,note_on,,,,,16,0,1,,,,,0,,,41,29
52936,note_off,,,,,44,0,1,,,,,0,,,41,0
52944,note_on,,,,,8,0,1,,,,,0,,,38,47
52988,note_off,,,,,44,0,1,,,,,0,,,38,0
53008,note_on,,,,,20,0,1,,,,,0,,,41,29
53044,note_off,,,,,36,0,1,,,,,0,,,41,0
53052,note_on,,,,,8,0,1,,,,,0,,,38,37
53092,note_off,,,,,40,0,1,,,,,0,,,38,0
53108,note_on,,,,,16,0,1,,,,,0,,,41,35
53136,note_off,,,,,28,0,1,,,,,0,,,41,0
53156,note_on,,,,,20,0,1,,,,,0,,,38,40
53188,note_off,,,,,32,0,1,,,,,0,,,38,0
53208,note_on,,,,,20,0,1,,,,,0,,,41,30
53240,note_off,,,,,32,0,1,,,,,0,,,41,0
53252,note_on,,,,,12,0,1,,,,,0,,,38,36
53284,note_off,,,,,32,0,1,,,,,0,,,38,0
53300,note_on,,,,,16,0,1,,,,,0,,,41,29
53364,note_off,,,,,64,0,1,,,,,0,,,41,0
53380,note_on,,,,,16,0,1,,,,,0,,,38,68
53380,note_on,,,,,0,0,1,,,,,0,,,35,63
53400,control_change,,,,,20,0,1,,,64,72,0,,,,
53408,control_change,,,,,8,0,1,,,64,0,0,,,,
53424,note_on,,,,,16,0,1,,,,,0,,,41,41
53428,note_off,,,,,4,0,1,,,,,0,,,38,0
53436,note_off,,,,,8,0,1,,,,,0,,,35,0
53436,control_change,,,,,0,0,1,,,64,24,0,,,,
53444,control_change,,,,,8,0,1,,,64,88,0,,,,
53448,control_change,,,,,4,0,1,,,64,127,0,,,,
53480,note_off,,,,,32,0,1,,,,,0,,,41,0
53492,note_on,,,,,12,0,1,,,,,0,,,35,37
53496,note_on,,,,,4,0,1,,,,,0,,,38,37
53516,note_off,,,,,20,0,1,,,,,0,,,38,0
53528,note_off,,,,,12,0,1,,,,,0,,,35,0
53536,note_on,,,,,8,0,1,,,,,0,,,41,38
53572,note_off,,,,,36,0,1,,,,,0,,,41,0
53600,note_on,,,,,28,0,1,,,,,0,,,35,33
53628,note_off,,,,,28,0,1,,,,,0,,,35,0
53648,note_on,,,,,20,0,1,,,,,0,,,41,21
53672,note_off,,,,,24,0,1,,,,,0,,,41,0
53744,note_on,,,,,72,0,1,,,,,0,,,41,38
53808,note_off,,,,,64,0,1,,,,,0,,,41,0
53820,note_on,,,,,12,0,1,,,,,0,,,34,60
53824,note_on,,,,,4,0,1,,,,,0,,,38,60
53836,control_change,,,,,12,0,1,,,64,40,0,,,,
53844,control_change,,,,,8,0,1,,,64,0,0,,,,
53860,note_off,,,,,16,0,1,,,,,0,,,38,0
53864,note_on,,,,,4,0,1,,,,,0,,,41,41
53876,note_off,,,,,12,0,1,,,,,0,,,34,0
53876,control_change,,,,,0,0,1,,,64,88,0,,,,
53884,control_change,,,,,8,0,1,,,64,127,0,,,,
53920,note_off,,,,,36,0,1,,,,,0,,,41,0
53924,note_on,,,,,4,0,1,,,,,0,,,34,40
53928,note_on,,,,,4,0,1,,,,,0,,,38,47
53964,note_off,,,,,36,0,1,,,,,0,,,38,0
53972,note_off,,,,,8,0,1,,,,,0,,,34,0
53976,note_on,,,,,4,0,1,,,,,0,,,41,49
54036,note_off,,,,,60,0,1,,,,,0,,,41,0
54040,note_on,,,,,0,0,1,,,,,0,,,38,31
54040,note_on,,,,,4,0,1,,,,,0,,,34,29
54064,note_off,,,,,24,0,1,,,,,0,,,38,0
54076,note_off,,,,,12,0,1,,,,,0,,,34,0
54088,note_on,,,,,12,0,1,,,,,0,,,41,35
54124,note_on,,,,,36,0,1,,,,,0,,,34,37
54136,note_off,,,,,12,0,1,,,,,0,,,41,0
54172,note_off,,,,,36,0,1,,,,,0,,,34,0
54188,note_on,,,,,16,0,1,,,,,0,,,41,33
54236,note_off,,,,,48,0,1,,,,,0,,,41,0
54236,note_on,,,,,0,0,1,,,,,0,,,32,58
54240,note_on,,,,,4,0,1,,,,,0,,,38,63
54240,control_change,,,,,0,0,1,,,64,56,0,,,,
54248,control_change,,,,,8,0,1,,,64,0,0,,,,
54268,control_change,,,,,20,0,1,,,64,40,0,,,,
54276,control_change,,,,,0,0,1,,,64,127,0,,,,
54276,note_off,,,,,8,0,1,,,,,0,,,38,0
54284,note_on,,,,,8,0,1,,,,,0,,,41,51
54292,note_off,,,,,8,0,1,,,,,0,,,32,0
54336,note_on,,,,,0,0,1,,,,,0,,,38,55
54336,note_off,,,,,44,0,1,,,,,0,,,41,0
54344,note_on,,,,,8,0,1,,,,,0,,,32,34
54372,note_off,,,,,28,0,1,,,,,0,,,38,0
54384,note_off,,,,,12,0,1,,,,,0,,,32,0
54388,note_on,,,,,4,0,1,,,,,0,,,41,40
54428,note_off,,,,,40,0,1,,,,,0,,,41,0
54440,note_on,,,,,12,0,1,,,,,0,,,38,48
54456,note_on,,,,,16,0,1,,,,,0,,,32,29
54472,note_off,,,,,16,0,1,,,,,0,,,38,0
54492,note_off,,,,,20,0,1,,,,,0,,,32,0
54540,note_on,,,,,0,0,1,,,,,0,,,58,69
54540,set_tempo,,,,,54540,1,0,,500000,,,,,,,
54540,note_on,,,,,48,0,1,,,,,0,,,70,78
54552,note_on,,,,,12,0,1,,,,,0,,,38,43
54616,note_off,,,,,64,0,1,,,,,0,,,38,0
54644,note_on,,,,,28,0,1,,,,,0,,,41,44
54680,note_off,,,,,36,0,1,,,,,0,,,41,0
54708,note_on,,,,,28,0,1,,,,,0,,,38,45
54744,note_off,,,,,36,0,1,,,,,0,,,58,0
54764,note_off,,,,,20,0,1,,,,,0,,,38,0
54772,note_off,,,,,8,0,1,,,,,0,,,70,0
54788,note_on,,,,,16,0,1,,,,,0,,,41,44
54832,note_off,,,,,44,0,1,,,,,0,,,41,0
54912,note_on,,,,,80,0,1,,,,,0,,,75,90
54916,note_on,,,,,4,0,1,,,,,0,,,63,79
54928,note_on,,,,,12,0,1,,,,,0,,,32,34
54940,control_change,,,,,12,0,1,,,64,88,0,,,,
54944,note_on,,,,,4,0,1,,,,,0,,,34,42
54944,control_change,,,,,0,0,1,,,64,24,0,,,,
54956,control_change,,,,,0,0,1,,,64,0,0,,,,
54956,note_off,,,,,12,0,1,,,,,0,,,32,0
54984,note_on,,,,,28,0,1,,,,,0,,,39,50
54988,note_off,,,,,4,0,1,,,,,0,,,34,0
54996,control_change,,,,,8,0,1,,,64,88,0,,,,
55004,control_change,,,,,8,0,1,,,64,127,0,,,,
55052,note_off,,,,,48,0,1,,,,,0,,,39,0
55060,note_on,,,,,8,0,1,,,,,0,,,34,47
55072,note_on,,,,,12,0,1,,,,,0,,,30,44
55104,note_off,,,,,32,0,1,,,,,0,,,34,0
55116,note_off,,,,,12,0,1,,,,,0,,,30,0
55120,note_on,,,,,4,0,1,,,,,0,,,39,35
55192,note_on,,,,,0,0,1,,,,,0,,,34,46
55192,note_off,,,,,72,0,1,,,,,0,,,39,0
55196,note_on,,,,,4,0,1,,,,,0,,,30,29
55236,note_off,,,,,40,0,1,,,,,0,,,34,0
55248,note_off,,,,,12,0,1,,,,,0,,,30,0
55252,note_on,,,,,4,0,1,,,,,0,,,39,30
55316,note_on,,,,,64,0,1,,,,,0,,,34,42
55324,note_off,,,,,8,0,1,,,,,0,,,39,0
55328,note_on,,,,,4,0,1,,,,,0,,,30,22
55364,note_off,,,,,36,0,1,,,,,0,,,34,0
55376,note_on,,,,,12,0,1,,,,,0,,,39,43
55380,note_off,,,,,4,0,1,,,,,0,,,30,0
55452,note_off,,,,,72,0,1,,,,,0,,,39,0
55456,note_on,,,,,4,0,1,,,,,0,,,34,30
55460,note_on,,,,,4,0,1,,,,,0,,,30,37
55508,note_on,,,,,0,0,1,,,,,0,,,39,37
55508,note_off,,,,,48,0,1,,,,,0,,,34,0
55512,note_off,,,,,4,0,1,,,,,0,,,30,0
55576,note_off,,,,,64,0,1,,,,,0,,,39,0
55576,note_on,,,,,0,0,1,,,,,0,,,34,51
55584,note_on,,,,,8,0,1,,,,,0,,,30,32
55628,note_off,,,,,44,0,1,,,,,0,,,34,0
55632,note_on,,,,,0,0,1,,,,,0,,,39,42
55632,note_off,,,,,4,0,1,,,,,0,,,30,0
55700,note_on,,,,,68,0,1,,,,,0,,,34,42
55704,note_off,,,,,4,0,1,,,,,0,,,39,0
55704,note_on,,,,,0,0,1,,,,,0,,,30,27
55748,note_off,,,,,44,0,1,,,,,0,,,34,0
55756,note_off,,,,,8,0,1,,,,,0,,,30,0
55760,note_on,,,,,4,0,1,,,,,0,,,39,44
55796,note_off,,,,,36,0,1,,,,,0,,,75,0
55808,note_off,,,,,12,0,1,,,,,0,,,63,0
55852,note_off,,,,,44,0,1,,,,,0,,,39,0
55856,note_on,,,,,0,0,1,,,,,0,,,34,39
55856,note_on,,,,,4,0,1,,,,,0,,,74,82
55860,note_on,,,,,4,0,1,,,,,0,,,62,69
55864,note_on,,,,,4,0,1,,,,,0,,,30,34
55904,note_off,,,,,40,0,1,,,,,0,,,34,0
55908,note_on,,,,,4,0,1,,,,,0,,,39,36
55916,note_off,,,,,8,0,1,,,,,0,,,62,0
55916,note_off,,,,,0,0,1,,,,,0,,,30,0
55928,note_off,,,,,12,0,1,,,,,0,,,74,0
56008,note_on,,,,,0,0,1,,,,,0,,,75,90
56008,note_on,,,,,0,0,1,,,,,0,,,63,76
56008,note_off,,,,,80,0,1,,,,,0,,,39,0
56016,note_on,,,,,8,0,1,,,,,0,,,34,48
56016,note_on,,,,,0,0,1,,,,,0,,,30,40
56020,control_change,,,,,4,0,1,,,64,72,0,,,,
56028,control_change,,,,,8,0,1,,,64,24,0,,,,
56036,control_change,,,,,8,0,1,,,64,0,0,,,,
56060,control_change,,,,,24,0,1,,,64,56,0,,,,
56068,note_off,,,,,8,0,1,,,,,0,,,34,0
56068,control_change,,,,,0,0,1,,,64,127,0,,,,
56072,note_off,,,,,4,0,1,,,,,0,,,30,0
56076,note_on,,,,,4,0,1,,,,,0,,,39,44
56140,note_on,,,,,64,0,1,,,,,0,,,34,48
56144,note_off,,,,,4,0,1,,,,,0,,,39,0
56148,note_on,,,,,4,0,1,,,,,0,,,30,27
56184,note_off,,,,,36,0,1,,,,,0,,,34,0
56200,note_off,,,,,16,0,1,,,,,0,,,30,0
56200,note_on,,,,,0,0,1,,,,,0,,,39,46
56264,note_off,,,,,64,0,1,,,,,0,,,39,0
56268,note_on,,,,,0,0,1,,,,,0,,,30,33
56268,note_on,,,,,4,0,1,,,,,0,,,34,42
56312,note_off,,,,,44,0,1,,,,,0,,,34,0
56320,note_on,,,,,0,0,1,,,,,0,,,39,49
56320,note_off,,,,,8,0,1,,,,,0,,,30,0
56392,note_on,,,,,0,0,1,,,,,0,,,34,39
56392,note_off,,,,,72,0,1,,,,,0,,,39,0
56396,note_on,,,,,4,0,1,,,,,0,,,30,27
56432,note_off,,,,,36,0,1,,,,,0,,,34,0
56436,note_off,,,,,4,0,1,,,,,0,,,30,0
56444,note_on,,,,,8,0,1,,,,,0,,,39,44
56508,note_off,,,,,64,0,1,,,,,0,,,39,0
56508,note_on,,,,,0,0,1,,,,,0,,,34,55
56508,note_on,,,,,0,0,1,,,,,0,,,30,43
56552,note_off,,,,,44,0,1,,,,,0,,,34,0
56560,note_off,,,,,8,0,1,,,,,0,,,30,0
56560,note_on,,,,,0,0,1,,,,,0,,,39,45
56624,note_off,,,,,64,0,1,,,,,0,,,39,0
56624,note_on,,,,,0,0,1,,,,,0,,,30,42
56624,note_on,,,,,0,0,1,,,,,0,,,34,52
56664,note_off,,,,,40,0,1,,,,,0,,,34,0
56676,note_on,,,,,0,0,1,,,,,0,,,39,44
56676,note_off,,,,,12,0,1,,,,,0,,,30,0
56704,note_off,,,,,28,0,1,,,,,0,,,63,0
56748,note_off,,,,,44,0,1,,,,,0,,,75,0
56748,note_on,,,,,0,0,1,,,,,0,,,30,40
56748,note_on,,,,,0,0,1,,,,,0,,,34,51
56752,note_off,,,,,4,0,1,,,,,0,,,39,0
56788,note_off,,,,,36,0,1,,,,,0,,,34,0
56800,note_off,,,,,12,0,1,,,,,0,,,30,0
56800,note_on,,,,,0,0,1,,,,,0,,,39,46
56864,note_on,,,,,64,0,1,,,,,0,,,77,88
56868,note_on,,,,,4,0,1,,,,,0,,,65,71
56872,note_on,,,,,0,0,1,,,,,0,,,34,48
56872,note_off,,,,,4,0,1,,,,,0,,,39,0
56880,note_on,,,,,8,0,1,,,,,0,,,30,31
56912,note_off,,,,,32,0,1,,,,,0,,,65,0
56916,note_off,,,,,4,0,1,,,,,0,,,34,0
56928,note_on,,,,,12,0,1,,,,,0,,,39,49
56932,note_off,,,,,0,0,1,,,,,0,,,30,0
56932,note_off,,,,,4,0,1,,,,,0,,,77,0
57020,note_off,,,,,88,0,1,,,,,0,,,39,0
57020,note_on,,,,,0,0,1,,,,,0,,,78,93
57024,note_on,,,,,4,0,1,,,,,0,,,66,76
57032,note_on,,,,,0,0,1,,,,,0,,,30,46
57032,note_on,,,,,8,0,1,,,,,0,,,34,55
57044,control_change,,,,,12,0,1,,,64,24,0,,,,
57052,control_change,,,,,8,0,1,,,64,0,0,,,,
57080,note_off,,,,,28,0,1,,,,,0,,,34,0
57088,note_on,,,,,8,0,1,,,,,0,,,39,45
57096,note_off,,,,,8,0,1,,,,,0,,,30,0
57108,control_change,,,,,12,0,1,,,64,127,0,,,,
57144,note_off,,,,,36,0,1,,,,,0,,,39,0
57152,note_on,,,,,8,0,1,,,,,0,,,34,54
57156,note_on,,,,,4,0,1,,,,,0,,,30,39
57192,note_off,,,,,36,0,1,,,,,0,,,34,0
57208,note_off,,,,,16,0,1,,,,,0,,,30,0
57208,note_on,,,,,0,0,1,,,,,0,,,39,45
57268,note_on,,,,,60,0,1,,,,,0,,,34,49
57272,note_on,,,,,0,0,1,,,,,0,,,30,39
57272,note_off,,,,,4,0,1,,,,,0,,,39,0
57316,note_off,,,,,44,0,1,,,,,0,,,34,0
57324,note_on,,,,,8,0,1,,,,,0,,,39,54
57332,note_off,,,,,8,0,1,,,,,0,,,30,0
57396,note_on,,,,,64,0,1,,,,,0,,,34,51
57400,note_on,,,,,0,0,1,,,,,0,,,30,37
57400,note_off,,,,,4,0,1,,,,,0,,,39,0
57436,note_off,,,,,36,0,1,,,,,0,,,34,0
57448,note_off,,,,,12,0,1,,,,,0,,,30,0
57452,note_on,,,,,4,0,1,,,,,0,,,39,46
57504,note_off,,,,,52,0,1,,,,,0,,,39,0
57516,note_on,,,,,12,0,1,,,,,0,,,34,58
57520,note_on,,,,,4,0,1,,,,,0,,,30,42
57556,note_off,,,,,36,0,1,,,,,0,,,34,0
57564,note_off,,,,,8,0,1,,,,,0,,,30,0
57568,note_on,,,,,4,0,1,,,,,0,,,39,48
57632,note_off,,,,,64,0,1,,,,,0,,,39,0
57632,note_on,,,,,0,0,1,,,,,0,,,34,55
57640,note_on,,,,,8,0,1,,,,,0,,,30,39
57676,note_off,,,,,36,0,1,,,,,0,,,34,0
57688,note_on,,,,,12,0,1,,,,,0,,,39,50
57692,note_off,,,,,4,0,1,,,,,0,,,30,0
57764,note_on,,,,,72,0,1,,,,,0,,,80,90
57772,note_on,,,,,0,0,1,,,,,0,,,30,40
57772,note_on,,,,,8,0,1,,,,,0,,,34,50
57776,note_off,,,,,4,0,1,,,,,0,,,78,0
57776,note_off,,,,,0,0,1,,,,,0,,,39,0
57812,note_off,,,,,36,0,1,,,,,0,,,34,0
57824,note_off,,,,,12,0,1,,,,,0,,,30,0
57828,note_on,,,,,4,0,1,,,,,0,,,39,50
57856,note_off,,,,,28,0,1,,,,,0,,,80,0
57864,note_on,,,,,8,0,1,,,,,0,,,78,92
57908,note_on,,,,,44,0,1,,,,,0,,,34,43
57908,note_on,,,,,0,0,1,,,,,0,,,30,35
57912,note_off,,,,,4,0,1,,,,,0,,,39,0
57928,note_off,,,,,16,0,1,,,,,0,,,78,0
57940,note_on,,,,,12,0,1,,,,,0,,,77,91
57948,note_off,,,,,8,0,1,,,,,0,,,34,0
57960,note_off,,,,,12,0,1,,,,,0,,,30,0
57964,note_on,,,,,4,0,1,,,,,0,,,39,55
58008,note_off,,,,,44,0,1,,,,,0,,,77,0
58012,note_off,,,,,4,0,1,,,,,0,,,66,0
58040,note_on,,,,,28,0,1,,,,,0,,,78,93
58044,control_change,,,,,0,0,1,,,64,104,0,,,,
58044,note_on,,,,,4,0,1,,,,,0,,,66,77
58048,note_on,,,,,0,0,1,,,,,0,,,34,54
58048,note_off,,,,,4,0,1,,,,,0,,,39,0
58052,control_change,,,,,0,0,1,,,64,40,0,,,,
58052,note_on,,,,,4,0,1,,,,,0,,,30,43
58064,control_change,,,,,12,0,1,,,64,0,0,,,,
58092,control_change,,,,,28,0,1,,,64,56,0,,,,
58100,note_off,,,,,8,0,1,,,,,0,,,34,0
58100,control_change,,,,,0,0,1,,,64,127,0,,,,
58104,note_on,,,,,4,0,1,,,,,0,,,39,45
58116,note_off,,,,,12,0,1,,,,,0,,,30,0
58172,note_off,,,,,56,0,1,,,,,0,,,39,0
58172,note_on,,,,,0,0,1,,,,,0,,,34,55
58180,note_on,,,,,8,0,1,,,,,0,,,30,35
58212,note_off,,,,,32,0,1,,,,,0,,,34,0
58224,note_on,,,,,12,0,1,,,,,0,,,39,48
58228,note_off,,,,,4,0,1,,,,,0,,,30,0
58288,note_off,,,,,60,0,1,,,,,0,,,39,0
58292,note_on,,,,,4,0,1,,,,,0,,,34,48
58296,note_on,,,,,4,0,1,,,,,0,,,30,32
58332,note_off,,,,,36,0,1,,,,,0,,,34,0
58340,note_on,,,,,8,0,1,,,,,0,,,39,49
58348,note_off,,,,,8,0,1,,,,,0,,,30,0
58408,note_off,,,,,60,0,1,,,,,0,,,39,0
58408,note_on,,,,,0,0,1,,,,,0,,,34,50
58416,note_on,,,,,8,0,1,,,,,0,,,30,32
58448,note_off,,,,,32,0,1,,,,,0,,,34,0
58456,note_on,,,,,8,0,1,,,,,0,,,39,51
58464,note_off,,,,,8,0,1,,,,,0,,,30,0
58516,note_off,,,,,52,0,1,,,,,0,,,39,0
58528,note_on,,,,,12,0,1,,,,,0,,,34,54
58532,note_on,,,,,4,0,1,,,,,0,,,30,43
58568,note_off,,,,,36,0,1,,,,,0,,,34,0
58576,note_on,,,,,8,0,1,,,,,0,,,39,48
58580,note_off,,,,,4,0,1,,,,,0,,,30,0
58644,note_off,,,,,64,0,1,,,,,0,,,39,0
58644,note_on,,,,,0,0,1,,,,,0,,,34,54
58652,note_on,,,,,8,0,1,,,,,0,,,30,35
58688,note_off,,,,,36,0,1,,,,,0,,,34,0
58700,note_off,,,,,12,0,1,,,,,0,,,30,0
58704,note_on,,,,,4,0,1,,,,,0,,,39,39
58764,note_on,,,,,60,0,1,,,,,0,,,34,49
58764,note_on,,,,,0,0,1,,,,,0,,,30,37
58772,note_off,,,,,8,0,1,,,,,0,,,66,0
58772,note_off,,,,,0,0,1,,,,,0,,,39,0
58808,note_off,,,,,36,0,1,,,,,0,,,34,0
58816,note_off,,,,,8,0,1,,,,,0,,,30,0
58824,note_on,,,,,8,0,1,,,,,0,,,39,55
58892,note_on,,,,,0,0,1,,,,,0,,,80,90
58892,note_off,,,,,68,0,1,,,,,0,,,39,0
58892,note_on,,,,,0,0,1,,,,,0,,,68,79
58896,note_on,,,,,4,0,1,,,,,0,,,34,53
58904,note_off,,,,,8,0,1,,,,,0,,,78,0
58904,note_on,,,,,0,0,1,,,,,0,,,30,39
58944,note_off,,,,,40,0,1,,,,,0,,,34,0
58956,note_off,,,,,0,0,1,,,,,0,,,30,0
58956,note_on,,,,,0,0,1,,,,,0,,,39,54
58956,note_off,,,,,12,0,1,,,,,0,,,68,0
58980,note_off,,,,,24,0,1,,,,,0,,,80,0
59040,note_on,,,,,0,0,1,,,,,0,,,82,94
59040,note_off,,,,,60,0,1,,,,,0,,,39,0
59044,control_change,,,,,0,0,1,,,64,104,0,,,,
59044,note_on,,,,,4,0,1,,,,,0,,,70,86
59048,note_on,,,,,4,0,1,,,,,0,,,34,53
59048,note_on,,,,,0,0,1,,,,,0,,,30,44
59056,control_change,,,,,8,0,1,,,64,24,0,,,,
59064,control_change,,,,,8,0,1,,,64,0,0,,,,
59096,note_off,,,,,32,0,1,,,,,0,,,34,0
59108,note_on,,,,,0,0,1,,,,,0,,,39,49
59108,note_off,,,,,12,0,1,,,,,0,,,30,0
59112,control_change,,,,,4,0,1,,,64,88,0,,,,
59116,control_change,,,,,4,0,1,,,64,127,0,,,,
59164,note_off,,,,,48,0,1,,,,,0,,,39,0
59172,note_on,,,,,8,0,1,,,,,0,,,34,51
59176,note_on,,,,,4,0,1,,,,,0,,,30,39
59208,note_off,,,,,32,0,1,,,,,0,,,34,0
59224,note_off,,,,,16,0,1,,,,,0,,,30,0
59228,note_on,,,,,4,0,1,,,,,0,,,39,43
59288,note_on,,,,,60,0,1,,,,,0,,,34,38
59288,note_on,,,,,0,0,1,,,,,0,,,30,26
59292,note_off,,,,,4,0,1,,,,,0,,,39,0
59328,note_off,,,,,36,0,1,,,,,0,,,34,0
59340,note_off,,,,,12,0,1,,,,,0,,,30,0
59344,note_on,,,,,4,0,1,,,,,0,,,39,47
59412,note_on,,,,,0,0,1,,,,,0,,,34,46
59412,note_off,,,,,68,0,1,,,,,0,,,39,0
59416,note_on,,,,,4,0,1,,,,,0,,,30,27
59452,note_off,,,,,36,0,1,,,,,0,,,34,0
59464,note_on,,,,,12,0,1,,,,,0,,,39,53
59468,note_off,,,,,4,0,1,,,,,0,,,30,0
59524,note_off,,,,,56,0,1,,,,,0,,,39,0
59532,note_on,,,,,8,0,1,,,,,0,,,34,59
59540,note_on,,,,,8,0,1,,,,,0,,,30,36
59572,note_off,,,,,32,0,1,,,,,0,,,34,0
59592,note_on,,,,,20,0,1,,,,,0,,,39,55
59596,note_off,,,,,4,0,1,,,,,0,,,30,0
59652,note_off,,,,,56,0,1,,,,,0,,,39,0
59660,note_on,,,,,8,0,1,,,,,0,,,34,53
59664,note_on,,,,,4,0,1,,,,,0,,,30,37
59704,note_off,,,,,40,0,1,,,,,0,,,34,0
59716,note_on,,,,,12,0,1,,,,,0,,,39,53
59720,note_off,,,,,4,0,1,,,,,0,,,30,0
59776,note_off,,,,,56,0,1,,,,,0,,,39,0
59780,note_on,,,,,4,0,1,,,,,0,,,34,53
59788,note_on,,,,,8,0,1,,,,,0,,,30,29
59820,note_off,,,,,32,0,1,,,,,0,,,34,0
59832,note_off,,,,,12,0,1,,,,,0,,,30,0
59832,note_on,,,,,0,0,1,,,,,0,,,39,47
59888,note_off,,,,,56,0,1,,,,,0,,,39,0
59892,note_on,,,,,4,0,1,,,,,0,,,34,51
59896,note_off,,,,,4,0,1,,,,,0,,,70,0
59904,note_on,,,,,8,0,1,,,,,0,,,30,27
59928,note_off,,,,,24,0,1,,,,,0,,,34,0
59944,note_on,,,,,16,0,1,,,,,0,,,39,47
59948,note_off,,,,,4,0,1,,,,,0,,,30,0
59952,note_off,,,,,4,0,1,,,,,0,,,82,0
59992,note_on,,,,,40,0,1,,,,,0,,,83,91
59996,note_on,,,,,4,0,1,,,,,0,,,71,78
60004,note_off,,,,,8,0,1,,,,,0,,,39,0
60012,note_on,,,,,8,0,1,,,,,0,,,34,44
60016,note_on,,,,,4,0,1,,,,,0,,,30,29
60028,note_off,,,,,12,0,1,,,,,0,,,71,0
60044,note_off,,,,,0,0,1,,,,,0,,,34,0
60044,note_off,,,,,16,0,1,,,,,0,,,83,0
60068,note_on,,,,,0,0,1,,,,,0,,,39,50
60068,note_off,,,,,24,0,1,,,,,0,,,30,0
60128,note_off,,,,,60,0,1,,,,,0,,,39,0
60140,note_on,,,,,12,0,1,,,,,0,,,86,96
60144,note_on,,,,,4,0,1,,,,,0,,,74,85
60148,note_on,,,,,4,0,1,,,,,0,,,34,51
60152,control_change,,,,,4,0,1,,,64,56,0,,,,
60156,note_on,,,,,4,0,1,,,,,0,,,30,43
60160,control_change,,,,,4,0,1,,,64,0,0,,,,
60196,note_off,,,,,36,0,1,,,,,0,,,34,0
60200,control_change,,,,,4,0,1,,,64,56,0,,,,
60204,control_change,,,,,0,0,1,,,64,127,0,,,,
60204,note_on,,,,,4,0,1,,,,,0,,,39,48
60208,note_off,,,,,4,0,1,,,,,0,,,30,0
60252,note_off,,,,,44,0,1,,,,,0,,,39,0
60264,note_on,,,,,12,0,1,,,,,0,,,34,55
60276,note_on,,,,,12,0,1,,,,,0,,,30,30
60300,note_off,,,,,24,0,1,,,,,0,,,34,0
60312,note_off,,,,,12,0,1,,,,,0,,,30,0
60316,note_on,,,,,4,0,1,,,,,0,,,39,48
60376,note_off,,,,,60,0,1,,,,,0,,,39,0
60380,note_on,,,,,0,0,1,,,,,0,,,30,43
60380,note_on,,,,,4,0,1,,,,,0,,,34,51
60416,note_off,,,,,36,0,1,,,,,0,,,34,0
60428,note_on,,,,,12,0,1,,,,,0,,,39,48
60432,note_off,,,,,4,0,1,,,,,0,,,30,0
60492,note_on,,,,,60,0,1,,,,,0,,,34,50
60500,note_off,,,,,8,0,1,,,,,0,,,39,0
60500,note_on,,,,,0,0,1,,,,,0,,,30,31
60528,note_off,,,,,28,0,1,,,,,0,,,34,0
60544,note_off,,,,,16,0,1,,,,,0,,,30,0
60552,note_on,,,,,8,0,1,,,,,0,,,39,48
60604,note_on,,,,,52,0,1,,,,,0,,,34,54
60608,note_off,,,,,4,0,1,,,,,0,,,39,0
60612,note_on,,,,,4,0,1,,,,,0,,,30,39
60652,note_off,,,,,40,0,1,,,,,0,,,34,0
60656,note_off,,,,,4,0,1,,,,,0,,,30,0
60660,note_on,,,,,4,0,1,,,,,0,,,39,51
60728,note_off,,,,,68,0,1,,,,,0,,,39,0
60728,note_on,,,,,0,0,1,,,,,0,,,34,52
60728,note_on,,,,,0,0,1,,,,,0,,,30,39
60764,note_off,,,,,36,0,1,,,,,0,,,34,0
60772,note_off,,,,,8,0,1,,,,,0,,,30,0
60780,note_on,,,,,8,0,1,,,,,0,,,39,43
60820,note_off,,,,,40,0,1,,,,,0,,,74,0
60828,note_off,,,,,8,0,1,,,,,0,,,86,0
60836,note_on,,,,,8,0,1,,,,,0,,,34,55
60844,note_on,,,,,8,0,1,,,,,0,,,30,33
60848,note_off,,,,,4,0,1,,,,,0,,,39,0
60888,note_off,,,,,40,0,1,,,,,0,,,34,0
60896,note_off,,,,,8,0,1,,,,,0,,,30,0
60904,note_on,,,,,8,0,1,,,,,0,,,39,43
60948,note_on,,,,,0,0,1,,,,,0,,,75,86
60948,note_on,,,,,44,0,1,,,,,0,,,87,98
60956,note_on,,,,,8,0,1,,,,,0,,,34,48
60964,note_off,,,,,8,0,1,,,,,0,,,39,0
60964,note_on,,,,,0,0,1,,,,,0,,,30,32
61008,note_off,,,,,44,0,1,,,,,0,,,34,0
61028,note_off,,,,,20,0,1,,,,,0,,,30,0
61032,note_on,,,,,4,0,1,,,,,0,,,39,43
61048,note_off,,,,,16,0,1,,,,,0,,,87,0
61052,note_off,,,,,4,0,1,,,,,0,,,75,0
61084,note_off,,,,,32,0,1,,,,,0,,,39,0
61120,note_on,,,,,36,0,1,,,,,0,,,85,96
61124,note_on,,,,,4,0,1,,,,,0,,,73,81
61140,note_on,,,,,16,0,1,,,,,0,,,32,45
61140,note_on,,,,,0,0,1,,,,,0,,,29,66
61144,control_change,,,,,4,0,1,,,64,88,0,,,,
61152,control_change,,,,,8,0,1,,,64,0,0,,,,
61188,note_off,,,,,36,0,1,,,,,0,,,32,0
61192,note_on,,,,,4,0,1,,,,,0,,,37,44
61216,control_change,,,,,24,0,1,,,64,127,0,,,,
61228,note_off,,,,,12,0,1,,,,,0,,,29,0
61236,note_off,,,,,8,0,1,,,,,0,,,37,0
61252,note_on,,,,,16,0,1,,,,,0,,,32,48
61268,note_on,,,,,16,0,1,,,,,0,,,29,41
61296,note_off,,,,,0,0,1,,,,,0,,,29,0
61296,note_off,,,,,28,0,1,,,,,0,,,32,0
61304,note_on,,,,,8,0,1,,,,,0,,,37,39
61352,note_off,,,,,48,0,1,,,,,0,,,37,0
61360,note_on,,,,,8,0,1,,,,,0,,,32,49
61380,note_on,,,,,20,0,1,,,,,0,,,29,25
61408,note_off,,,,,28,0,1,,,,,0,,,32,0
61412,note_off,,,,,4,0,1,,,,,0,,,29,0
61416,note_on,,,,,4,0,1,,,,,0,,,37,43
61460,note_off,,,,,44,0,1,,,,,0,,,37,0
61484,note_on,,,,,24,0,1,,,,,0,,,32,50
61496,note_on,,,,,12,0,1,,,,,0,,,29,40
61528,note_off,,,,,32,0,1,,,,,0,,,32,0
61532,note_on,,,,,4,0,1,,,,,0,,,37,45
61536,note_off,,,,,4,0,1,,,,,0,,,29,0
61584,note_off,,,,,48,0,1,,,,,0,,,37,0
61604,note_on,,,,,20,0,1,,,,,0,,,32,55
61624,note_on,,,,,20,0,1,,,,,0,,,29,43
61648,note_off,,,,,24,0,1,,,,,0,,,32,0
61656,note_off,,,,,8,0,1,,,,,0,,,29,0
61660,note_on,,,,,4,0,1,,,,,0,,,37,42
61708,note_off,,,,,48,0,1,,,,,0,,,37,0
61728,note_on,,,,,20,0,1,,,,,0,,,32,50
61744,note_on,,,,,16,0,1,,,,,0,,,29,27
61772,note_off,,,,,28,0,1,,,,,0,,,32,0
61772,note_off,,,,,0,0,1,,,,,0,,,29,0
61788,note_on,,,,,16,0,1,,,,,0,,,37,33
61828,note_off,,,,,40,0,1,,,,,0,,,37,0
61840,note_off,,,,,12,0,1,,,,,0,,,85,0
61844,note_on,,,,,4,0,1,,,,,0,,,32,50
61860,note_on,,,,,16,0,1,,,,,0,,,29,45
61868,note_off,,,,,8,0,1,,,,,0,,,73,0
61888,note_off,,,,,20,0,1,,,,,0,,,32,0
61896,note_off,,,,,8,0,1,,,,,0,,,29,0
61912,note_on,,,,,16,0,1,,,,,0,,,37,28
61960,note_off,,,,,48,0,1,,,,,0,,,37,0
61964,note_on,,,,,4,0,1,,,,,0,,,83,85
61968,note_on,,,,,4,0,1,,,,,0,,,71,74
61976,note_on,,,,,8,0,1,,,,,0,,,32,38
61988,note_on,,,,,12,0,1,,,,,0,,,29,43
62004,note_off,,,,,16,0,1,,,,,0,,,32,0
62016,note_off,,,,,12,0,1,,,,,0,,,71,0
62028,note_off,,,,,12,0,1,,,,,0,,,29,0
62032,note_on,,,,,4,0,1,,,,,0,,,37,29
62056,note_off,,,,,24,0,1,,,,,0,,,83,0
62084,note_off,,,,,28,0,1,,,,,0,,,37,0
62116,note_on,,,,,32,0,1,,,,,0,,,82,83
62120,note_on,,,,,4,0,1,,,,,0,,,70,70
62128,control_change,,,,,8,0,1,,,64,56,0,,,,
62136,control_change,,,,,8,0,1,,,64,0,0,,,,
62172,note_on,,,,,36,0,1,,,,,0,,,37,34
62200,control_change,,,,,28,0,1,,,64,88,0,,,,
62208,control_change,,,,,8,0,1,,,64,127,0,,,,
62232,note_off,,,,,24,0,1,,,,,0,,,37,0
62232,note_on,,,,,0,0,1,,,,,0,,,30,61
62288,note_on,,,,,56,0,1,,,,,0,,,37,31
62320,note_off,,,,,32,0,1,,,,,0,,,30,0
62340,note_off,,,,,20,0,1,,,,,0,,,37,0
62352,note_on,,,,,12,0,1,,,,,0,,,30,41
62396,note_off,,,,,44,0,1,,,,,0,,,30,0
62404,note_on,,,,,8,0,1,,,,,0,,,37,33
62456,note_off,,,,,52,0,1,,,,,0,,,37,0
62464,note_on,,,,,8,0,1,,,,,0,,,30,43
62512,note_off,,,,,48,0,1,,,,,0,,,30,0
62516,note_on,,,,,4,0,1,,,,,0,,,37,35
62584,note_off,,,,,68,0,1,,,,,0,,,37,0
62588,note_on,,,,,4,0,1,,,,,0,,,30,45
62644,note_on,,,,,56,0,1,,,,,0,,,37,28
62648,note_off,,,,,4,0,1,,,,,0,,,30,0
62700,note_off,,,,,52,0,1,,,,,0,,,37,0
62700,note_on,,,,,0,0,1,,,,,0,,,30,44
62760,note_off,,,,,60,0,1,,,,,0,,,30,0
62768,note_on,,,,,8,0,1,,,,,0,,,37,27
62784,note_off,,,,,16,0,1,,,,,0,,,82,0
62788,note_off,,,,,4,0,1,,,,,0,,,70,0
62816,note_off,,,,,28,0,1,,,,,0,,,37,0
62824,note_on,,,,,8,0,1,,,,,0,,,30,42
62880,note_off,,,,,56,0,1,,,,,0,,,30,0
62884,note_on,,,,,4,0,1,,,,,0,,,37,25
62940,note_on,,,,,0,0,1,,,,,0,,,30,39
62940,note_off,,,,,56,0,1,,,,,0,,,37,0
62996,note_off,,,,,56,0,1,,,,,0,,,30,0
63000,note_on,,,,,4,0,1,,,,,0,,,37,29
63060,note_off,,,,,60,0,1,,,,,0,,,37,0
63060,note_on,,,,,0,0,1,,,,,0,,,30,48
63116,note_off,,,,,56,0,1,,,,,0,,,30,0
63120,note_on,,,,,4,0,1,,,,,0,,,37,27
63176,note_off,,,,,56,0,1,,,,,0,,,37,0
63176,note_on,,,,,0,0,1,,,,,0,,,30,36
63232,note_off,,,,,56,0,1,,,,,0,,,30,0
63240,note_on,,,,,8,0,1,,,,,0,,,37,30
63292,note_off,,,,,52,0,1,,,,,0,,,37,0
63300,note_on,,,,,8,0,1,,,,,0,,,30,36
63352,note_off,,,,,52,0,1,,,,,0,,,30,0
63360,note_on,,,,,8,0,1,,,,,0,,,37,32
63412,note_on,,,,,0,0,1,,,,,0,,,30,30
63412,note_off,,,,,52,0,1,,,,,0,,,37,0
63468,note_off,,,,,56,0,1,,,,,0,,,30,0
63480,note_on,,,,,12,0,1,,,,,0,,,37,32
63564,note_off,,,,,84,0,1,,,,,0,,,37,0
63572,note_on,,,,,8,0,1,,,,,0,,,70,80
63572,note_on,,,,,0,0,1,,,,,0,,,58,67
63576,note_on,,,,,4,0,1,,,,,0,,,30,43
63632,note_off,,,,,56,0,1,,,,,0,,,30,0
63644,note_on,,,,,12,0,1,,,,,0,,,37,27
63692,note_off,,,,,48,0,1,,,,,0,,,37,0
63696,note_on,,,,,4,0,1,,,,,0,,,30,42
63748,note_off,,,,,52,0,1,,,,,0,,,30,0
63760,note_on,,,,,12,0,1,,,,,0,,,37,32
63820,note_off,,,,,60,0,1,,,,,0,,,37,0
63824,note_on,,,,,4,0,1,,,,,0,,,30,35
63876,note_off,,,,,52,0,1,,,,,0,,,30,0
63888,note_on,,,,,12,0,1,,,,,0,,,37,27
63936,note_off,,,,,48,0,1,,,,,0,,,58,0
63944,note_off,,,,,8,0,1,,,,,0,,,37,0
63952,note_on,,,,,8,0,1,,,,,0,,,30,36
63988,note_off,,,,,36,0,1,,,,,0,,,70,0
64008,note_off,,,,,20,0,1,,,,,0,,,30,0
64032,note_on,,,,,24,0,1,,,,,0,,,37,20
64052,note_on,,,,,20,0,1,,,,,0,,,71,86
64056,note_on,,,,,4,0,1,,,,,0,,,59,73
64088,note_on,,,,,32,0,1,,,,,0,,,30,48
64092,note_off,,,,,4,0,1,,,,,0,,,37,0
64140,note_off,,,,,48,0,1,,,,,0,,,30,0
64148,note_on,,,,,8,0,1,,,,,0,,,37,32
64200,note_off,,,,,52,0,1,,,,,0,,,37,0
64204,note_on,,,,,4,0,1,,,,,0,,,30,42
64256,note_off,,,,,52,0,1,,,,,0,,,30,0
64264,note_on,,,,,8,0,1,,,,,0,,,37,29
64316,note_off,,,,,52,0,1,,,,,0,,,37,0
64324,note_on,,,,,8,0,1,,,,,0,,,30,49
64372,note_off,,,,,48,0,1,,,,,0,,,30,0
64376,note_on,,,,,4,0,1,,,,,0,,,37,37
64432,note_on,,,,,56,0,1,,,,,0,,,30,45
64436,note_off,,,,,4,0,1,,,,,0,,,37,0
64488,note_off,,,,,52,0,1,,,,,0,,,30,0
64492,note_on,,,,,4,0,1,,,,,0,,,37,38
64548,note_off,,,,,56,0,1,,,,,0,,,37,0
64552,note_on,,,,,4,0,1,,,,,0,,,30,56
64608,note_off,,,,,56,0,1,,,,,0,,,30,0
64616,note_on,,,,,8,0,1,,,,,0,,,37,35
64676,note_off,,,,,0,0,1,,,,,0,,,37,0
64676,note_off,,,,,60,0,1,,,,,0,,,59,0
64680,note_off,,,,,4,0,1,,,,,0,,,71,0
64680,note_on,,,,,0,0,1,,,,,0,,,30,56
64728,note_off,,,,,48,0,1,,,,,0,,,30,0
64740,note_on,,,,,12,0,1,,,,,0,,,37,34
64784,note_on,,,,,44,0,1,,,,,0,,,70,82
64788,note_on,,,,,4,0,1,,,,,0,,,58,65
64804,note_on,,,,,16,0,1,,,,,0,,,30,57
64816,note_off,,,,,12,0,1,,,,,0,,,37,0
64860,note_off,,,,,44,0,1,,,,,0,,,30,0
64872,note_on,,,,,12,0,1,,,,,0,,,37,38
64916,note_off,,,,,44,0,1,,,,,0,,,37,0
64924,note_on,,,,,8,0,1,,,,,0,,,30,55
64952,note_off,,,,,28,0,1,,,,,0,,,58,0
64956,note_off,,,,,4,0,1,,,,,0,,,70,0
64964,note_off,,,,,8,0,1,,,,,0,,,30,0
65012,note_on,,,,,48,0,1,,,,,0,,,58,79
65068,note_on,,,,,56,0,1,,,,,0,,,32,45
65080,note_on,,,,,12,0,1,,,,,0,,,29,40
65108,note_on,,,,,28,0,1,,,,,0,,,70,88
65108,control_change,,,,,0,0,1,,,64,88,0,,,,
65116,control_change,,,,,8,0,1,,,64,0,0,,,,
65124,note_off,,,,,8,0,1,,,,,0,,,58,0
65136,note_off,,,,,12,0,1,,,,,0,,,32,0
65148,note_on,,,,,12,0,1,,,,,0,,,38,55
65156,note_off,,,,,8,0,1,,,,,0,,,29,0
65176,control_change,,,,,20,0,1,,,64,127,0,,,,
65192,note_off,,,,,16,0,1,,,,,0,,,38,0
65208,note_on,,,,,16,0,1,,,,,0,,,32,49
65224,note_on,,,,,16,0,1,,,,,0,,,29,42
65256,note_off,,,,,32,0,1,,,,,0,,,32,0
65264,note_off,,,,,8,0,1,,,,,0,,,29,0
65276,note_on,,,,,12,0,1,,,,,0,,,38,33
65304,note_off,,,,,28,0,1,,,,,0,,,38,0
65320,note_on,,,,,16,0,1,,,,,0,,,32,50
65332,note_on,,,,,12,0,1,,,,,0,,,29,37
65360,note_off,,,,,28,0,1,,,,,0,,,32,0
65376,note_off,,,,,16,0,1,,,,,0,,,29,0
65380,note_on,,,,,4,0,1,,,,,0,,,38,42
65432,note_on,,,,,52,0,1,,,,,0,,,32,47
65436,note_off,,,,,4,0,1,,,,,0,,,38,0
65444,note_on,,,,,8,0,1,,,,,0,,,29,32
65480,note_off,,,,,36,0,1,,,,,0,,,32,0
65492,note_off,,,,,12,0,1,,,,,0,,,29,0
65500,note_on,,,,,8,0,1,,,,,0,,,38,40
65548,note_off,,,,,48,0,1,,,,,0,,,38,0
65556,note_on,,,,,8,0,1,,,,,0,,,32,57
65568,note_on,,,,,12,0,1,,,,,0,,,29,38
65600,note_off,,,,,32,0,1,,,,,0,,,32,0
65616,note_off,,,,,16,0,1,,,,,0,,,29,0
65624,note_on,,,,,8,0,1,,,,,0,,,38,41
65664,note_off,,,,,40,0,1,,,,,0,,,38,0
65672,note_off,,,,,8,0,1,,,,,0,,,70,0
65672,note_on,,,,,0,0,1,,,,,0,,,32,47
65676,note_on,,,,,4,0,1,,,,,0,,,29,40
65716,note_off,,,,,40,0,1,,,,,0,,,32,0
65728,note_off,,,,,12,0,1,,,,,0,,,29,0
65740,note_on,,,,,12,0,1,,,,,0,,,38,46
65780,note_off,,,,,40,0,1,,,,,0,,,38,0
65792,note_on,,,,,12,0,1,,,,,0,,,32,47
65792,note_on,,,,,0,0,1,,,,,0,,,68,81
65800,note_on,,,,,8,0,1,,,,,0,,,56,67
65804,note_on,,,,,4,0,1,,,,,0,,,29,34
65832,note_off,,,,,28,0,1,,,,,0,,,32,0
65840,note_off,,,,,8,0,1,,,,,0,,,29,0
65848,note_on,,,,,8,0,1,,,,,0,,,38,37
65856,note_off,,,,,8,0,1,,,,,0,,,56,0
65872,note_off,,,,,16,0,1,,,,,0,,,68,0
65884,note_off,,,,,12,0,1,,,,,0,,,38,0
65900,note_on,,,,,16,0,1,,,,,0,,,32,44
65908,note_on,,,,,8,0,1,,,,,0,,,29,31
65924,note_on,,,,,16,0,1,,,,,0,,,66,83
65924,note_on,,,,,0,0,1,,,,,0,,,54,73
65932,note_off,,,,,8,0,1,,,,,0,,,32,0
65952,note_off,,,,,20,0,1,,,,,0,,,29,0
65952,note_on,,,,,0,0,1,,,,,0,,,38,42
65976,note_off,,,,,24,0,1,,,,,0,,,54,0
65980,note_off,,,,,4,0,1,,,,,0,,,66,0
66064,note_on,,,,,84,0,1,,,,,0,,,65,84
66068,note_on,,,,,4,0,1,,,,,0,,,53,70
66076,note_off,,,,,8,0,1,,,,,0,,,38,0
66076,control_change,,,,,0,0,1,,,64,40,0,,,,
66084,note_on,,,,,8,0,1,,,,,0,,,32,38
66084,control_change,,,,,0,0,1,,,64,0,0,,,,
66088,note_on,,,,,4,0,1,,,,,0,,,29,46
66124,control_change,,,,,36,0,1,,,64,72,0,,,,
66128,note_off,,,,,4,0,1,,,,,0,,,29,0
66132,note_off,,,,,4,0,1,,,,,0,,,32,0
66132,control_change,,,,,0,0,1,,,64,127,0,,,,
66140,note_on,,,,,8,0,1,,,,,0,,,38,45
66184,note_off,,,,,44,0,1,,,,,0,,,38,0
66196,note_on,,,,,12,0,1,,,,,0,,,32,43
66204,note_on,,,,,8,0,1,,,,,0,,,29,33
66240,note_off,,,,,36,0,1,,,,,0,,,32,0
66252,note_on,,,,,12,0,1,,,,,0,,,38,38
66256,note_off,,,,,4,0,1,,,,,0,,,29,0
66300,note_off,,,,,44,0,1,,,,,0,,,38,0
66308,note_on,,,,,8,0,1,,,,,0,,,32,48
66316,note_on,,,,,8,0,1,,,,,0,,,29,36
66356,note_off,,,,,40,0,1,,,,,0,,,32,0
66368,note_off,,,,,12,0,1,,,,,0,,,29,0
66376,note_on,,,,,8,0,1,,,,,0,,,38,44
66424,note_off,,,,,48,0,1,,,,,0,,,38,0
66424,note_on,,,,,0,0,1,,,,,0,,,32,47
66436,note_on,,,,,12,0,1,,,,,0,,,29,29
66468,note_off,,,,,32,0,1,,,,,0,,,32,0
66480,note_off,,,,,12,0,1,,,,,0,,,29,0
66488,note_on,,,,,8,0,1,,,,,0,,,38,47
66532,note_off,,,,,44,0,1,,,,,0,,,38,0
66548,note_on,,,,,16,0,1,,,,,0,,,32,60
66556,note_on,,,,,8,0,1,,,,,0,,,29,48
66592,note_off,,,,,36,0,1,,,,,0,,,32,0
66604,note_off,,,,,12,0,1,,,,,0,,,29,0
66612,note_on,,,,,8,0,1,,,,,0,,,38,47
66660,note_off,,,,,48,0,1,,,,,0,,,38,0
66664,note_on,,,,,4,0,1,,,,,0,,,32,51
66672,note_on,,,,,8,0,1,,,,,0,,,29,35
66700,note_off,,,,,28,0,1,,,,,0,,,32,0
66708,note_off,,,,,8,0,1,,,,,0,,,29,0
66724,note_on,,,,,16,0,1,,,,,0,,,38,35
66772,note_on,,,,,0,0,1,,,,,0,,,32,49
66772,note_off,,,,,48,0,1,,,,,0,,,38,0
66784,note_on,,,,,12,0,1,,,,,0,,,29,38
66820,note_off,,,,,36,0,1,,,,,0,,,32,0
66828,note_off,,,,,8,0,1,,,,,0,,,29,0
66836,note_on,,,,,8,0,1,,,,,0,,,38,49
66888,note_on,,,,,0,0,1,,,,,0,,,32,39
66888,note_off,,,,,52,0,1,,,,,0,,,38,0
66900,note_on,,,,,12,0,1,,,,,0,,,29,29
66928,note_off,,,,,28,0,1,,,,,0,,,32,0
66940,note_off,,,,,12,0,1,,,,,0,,,29,0
66956,note_on,,,,,16,0,1,,,,,0,,,38,34
67000,note_off,,,,,44,0,1,,,,,0,,,38,0
67008,note_on,,,,,8,0,1,,,,,0,,,32,62
67020,note_on,,,,,12,0,1,,,,,0,,,29,50
67060,note_off,,,,,40,0,1,,,,,0,,,32,0
67068,note_off,,,,,8,0,1,,,,,0,,,29,0
67076,note_on,,,,,8,0,1,,,,,0,,,38,51
67124,note_off,,,,,48,0,1,,,,,0,,,38,0
67124,note_on,,,,,0,0,1,,,,,0,,,32,58
67136,note_on,,,,,12,0,1,,,,,0,,,29,30
67164,note_off,,,,,28,0,1,,,,,0,,,32,0
67172,note_off,,,,,8,0,1,,,,,0,,,29,0
67188,note_on,,,,,16,0,1,,,,,0,,,38,44
67232,note_off,,,,,44,0,1,,,,,0,,,38,0
67240,note_on,,,,,8,0,1,,,,,0,,,32,54
67256,note_on,,,,,16,0,1,,,,,0,,,29,40
67280,note_off,,,,,24,0,1,,,,,0,,,32,0
67296,note_off,,,,,16,0,1,,,,,0,,,29,0
67304,note_on,,,,,8,0,1,,,,,0,,,38,44
67348,note_off,,,,,44,0,1,,,,,0,,,38,0
67364,note_on,,,,,16,0,1,,,,,0,,,32,49
67368,note_on,,,,,4,0,1,,,,,0,,,29,39
67396,note_off,,,,,28,0,1,,,,,0,,,32,0
67412,note_off,,,,,16,0,1,,,,,0,,,29,0
67424,note_on,,,,,0,0,1,,,,,0,,,38,51
67424,note_off,,,,,12,0,1,,,,,0,,,53,0
67440,note_off,,,,,16,0,1,,,,,0,,,65,0
67480,note_off,,,,,40,0,1,,,,,0,,,38,0
67492,note_on,,,,,12,0,1,,,,,0,,,65,83
67496,note_on,,,,,0,0,1,,,,,0,,,53,76
67496,note_on,,,,,4,0,1,,,,,0,,,32,54
67504,note_on,,,,,8,0,1,,,,,0,,,29,40
67508,control_change,,,,,4,0,1,,,64,104,0,,,,
67516,control_change,,,,,8,0,1,,,64,40,0,,,,
67524,control_change,,,,,8,0,1,,,64,0,0,,,,
67544,note_off,,,,,20,0,1,,,,,0,,,32,0
67552,note_off,,,,,8,0,1,,,,,0,,,29,0
67556,control_change,,,,,4,0,1,,,64,40,0,,,,
67564,note_on,,,,,8,0,1,,,,,0,,,38,45
67564,control_change,,,,,0,0,1,,,64,127,0,,,,
67608,note_off,,,,,44,0,1,,,,,0,,,38,0
67612,note_on,,,,,4,0,1,,,,,0,,,32,55
67620,note_on,,,,,8,0,1,,,,,0,,,29,35
67652,note_off,,,,,32,0,1,,,,,0,,,32,0
67660,note_off,,,,,8,0,1,,,,,0,,,29,0
67672,note_on,,,,,12,0,1,,,,,0,,,38,44
67724,note_off,,,,,52,0,1,,,,,0,,,38,0
67724,note_on,,,,,0,0,1,,,,,0,,,32,43
67736,note_on,,,,,12,0,1,,,,,0,,,29,33
67776,note_off,,,,,40,0,1,,,,,0,,,32,0
67788,note_off,,,,,12,0,1,,,,,0,,,29,0
67796,note_on,,,,,8,0,1,,,,,0,,,38,40
67844,note_off,,,,,48,0,1,,,,,0,,,38,0
67852,note_on,,,,,8,0,1,,,,,0,,,32,49
67864,note_on,,,,,12,0,1,,,,,0,,,29,33
67896,note_off,,,,,32,0,1,,,,,0,,,32,0
67904,note_off,,,,,8,0,1,,,,,0,,,29,0
67920,note_on,,,,,16,0,1,,,,,0,,,38,52
67932,note_off,,,,,12,0,1,,,,,0,,,53,0
67956,note_off,,,,,24,0,1,,,,,0,,,65,0
68016,note_on,,,,,0,0,1,,,,,0,,,32,45
68016,note_off,,,,,60,0,1,,,,,0,,,38,0
68024,note_on,,,,,0,0,1,,,,,0,,,29,40
68024,note_on,,,,,8,0,1,,,,,0,,,65,80
68028,note_on,,,,,4,0,1,,,,,0,,,53,71
68072,note_off,,,,,0,0,1,,,,,0,,,29,0
68072,note_off,,,,,44,0,1,,,,,0,,,32,0
68084,note_on,,,,,12,0,1,,,,,0,,,38,49
68132,note_off,,,,,48,0,1,,,,,0,,,38,0
68140,note_on,,,,,8,0,1,,,,,0,,,32,53
68148,note_on,,,,,8,0,1,,,,,0,,,29,38
68184,note_off,,,,,36,0,1,,,,,0,,,32,0
68188,note_off,,,,,4,0,1,,,,,0,,,29,0
68208,note_on,,,,,20,0,1,,,,,0,,,38,44
68244,note_off,,,,,0,0,1,,,,,0,,,53,0
68244,note_off,,,,,36,0,1,,,,,0,,,65,0
68252,note_off,,,,,8,0,1,,,,,0,,,38,0
68260,note_on,,,,,8,0,1,,,,,0,,,32,57
68272,note_on,,,,,12,0,1,,,,,0,,,29,41
68304,note_off,,,,,32,0,1,,,,,0,,,32,0
68316,note_off,,,,,12,0,1,,,,,0,,,29,0
68328,note_on,,,,,12,0,1,,,,,0,,,38,49
68388,note_off,,,,,60,0,1,,,,,0,,,38,0
68396,note_on,,,,,8,0,1,,,,,0,,,32,39
68404,note_on,,,,,8,0,1,,,,,0,,,29,38
68420,note_on,,,,,16,0,1,,,,,0,,,66,84
68420,note_on,,,,,0,0,1,,,,,0,,,54,68
68448,note_off,,,,,28,0,1,,,,,0,,,32,0
68456,note_off,,,,,8,0,1,,,,,0,,,29,0
68464,note_on,,,,,8,0,1,,,,,0,,,38,51
68516,note_off,,,,,52,0,1,,,,,0,,,38,0
68520,note_on,,,,,4,0,1,,,,,0,,,32,54
68536,note_on,,,,,16,0,1,,,,,0,,,29,40
68564,note_off,,,,,28,0,1,,,,,0,,,32,0
68572,note_off,,,,,8,0,1,,,,,0,,,29,0
68584,note_on,,,,,12,0,1,,,,,0,,,38,49
68632,note_off,,,,,48,0,1,,,,,0,,,54,0
68640,note_on,,,,,0,0,1,,,,,0,,,32,56
68640,note_off,,,,,8,0,1,,,,,0,,,38,0
68656,note_on,,,,,16,0,1,,,,,0,,,29,34
68680,note_off,,,,,24,0,1,,,,,0,,,32,0
68688,note_off,,,,,8,0,1,,,,,0,,,29,0
68708,note_on,,,,,20,0,1,,,,,0,,,38,42
68720,note_off,,,,,12,0,1,,,,,0,,,66,0
68756,note_off,,,,,36,0,1,,,,,0,,,38,0
68756,note_on,,,,,0,0,1,,,,,0,,,68,88
68760,note_on,,,,,4,0,1,,,,,0,,,56,71
68764,note_on,,,,,4,0,1,,,,,0,,,32,59
68776,note_on,,,,,12,0,1,,,,,0,,,29,42
68812,note_off,,,,,36,0,1,,,,,0,,,32,0
68824,note_off,,,,,12,0,1,,,,,0,,,29,0
68840,note_on,,,,,16,0,1,,,,,0,,,38,38
68872,note_off,,,,,32,0,1,,,,,0,,,38,0
68888,note_on,,,,,16,0,1,,,,,0,,,32,56
68900,note_on,,,,,12,0,1,,,,,0,,,29,48
68908,note_off,,,,,8,0,1,,,,,0,,,56,0
68932,note_off,,,,,24,0,1,,,,,0,,,32,0
68948,note_off,,,,,16,0,1,,,,,0,,,29,0
68964,note_on,,,,,16,0,1,,,,,0,,,38,26
68980,note_off,,,,,16,0,1,,,,,0,,,68,0
68992,note_off,,,,,12,0,1,,,,,0,,,38,0
69044,note_on,,,,,52,0,1,,,,,0,,,70,92
69048,note_on,,,,,4,0,1,,,,,0,,,58,76
69076,note_on,,,,,28,0,1,,,,,0,,,31,22
69076,control_change,,,,,0,0,1,,,64,88,0,,,,
69084,control_change,,,,,0,0,1,,,64,0,0,,,,
69084,note_on,,,,,8,0,1,,,,,0,,,34,23
69096,note_off,,,,,12,0,1,,,,,0,,,31,0
69124,note_off,,,,,28,0,1,,,,,0,,,34,0
69124,note_on,,,,,0,0,1,,,,,0,,,39,44
69144,control_change,,,,,20,0,1,,,64,104,0,,,,
69152,control_change,,,,,8,0,1,,,64,127,0,,,,
69172,note_off,,,,,20,0,1,,,,,0,,,39,0
69176,note_on,,,,,4,0,1,,,,,0,,,30,46
69180,note_on,,,,,4,0,1,,,,,0,,,34,37
69220,note_off,,,,,40,0,1,,,,,0,,,34,0
69228,note_on,,,,,0,0,1,,,,,0,,,39,48
69228,note_off,,,,,8,0,1,,,,,0,,,30,0
69280,note_off,,,,,52,0,1,,,,,0,,,39,0
69284,note_on,,,,,4,0,1,,,,,0,,,30,36
69292,note_on,,,,,8,0,1,,,,,0,,,34,36
69320,note_off,,,,,28,0,1,,,,,0,,,34,0
69328,note_off,,,,,8,0,1,,,,,0,,,30,0
69336,note_on,,,,,8,0,1,,,,,0,,,39,40
69388,note_off,,,,,52,0,1,,,,,0,,,39,0
69400,note_on,,,,,12,0,1,,,,,0,,,30,53
69412,note_on,,,,,12,0,1,,,,,0,,,34,32
69432,note_off,,,,,20,0,1,,,,,0,,,34,0
69452,note_off,,,,,20,0,1,,,,,0,,,30,0
69456,note_on,,,,,4,0,1,,,,,0,,,39,42
69520,note_off,,,,,64,0,1,,,,,0,,,39,0
69524,note_on,,,,,4,0,1,,,,,0,,,34,37
69548,note_off,,,,,24,0,1,,,,,0,,,34,0
69572,note_on,,,,,24,0,1,,,,,0,,,39,50
69628,note_off,,,,,56,0,1,,,,,0,,,39,0
69628,note_on,,,,,0,0,1,,,,,0,,,30,37
69632,note_on,,,,,4,0,1,,,,,0,,,34,39
69656,note_off,,,,,24,0,1,,,,,0,,,34,0
69676,note_off,,,,,20,0,1,,,,,0,,,30,0
69680,note_on,,,,,4,0,1,,,,,0,,,39,48
69740,note_off,,,,,60,0,1,,,,,0,,,39,0
69744,note_on,,,,,4,0,1,,,,,0,,,30,33
69756,note_on,,,,,12,0,1,,,,,0,,,34,28
69772,note_off,,,,,16,0,1,,,,,0,,,34,0
69788,note_off,,,,,16,0,1,,,,,0,,,30,0
69796,note_on,,,,,8,0,1,,,,,0,,,39,51
69848,note_off,,,,,52,0,1,,,,,0,,,39,0
69852,note_on,,,,,4,0,1,,,,,0,,,30,37
69864,note_on,,,,,12,0,1,,,,,0,,,34,36
69880,note_off,,,,,16,0,1,,,,,0,,,34,0
69892,note_off,,,,,12,0,1,,,,,0,,,30,0
69904,note_on,,,,,12,0,1,,,,,0,,,39,48
69952,note_off,,,,,48,0,1,,,,,0,,,39,0
69964,note_on,,,,,12,0,1,,,,,0,,,30,45
69972,note_on,,,,,8,0,1,,,,,0,,,34,35
69996,note_off,,,,,24,0,1,,,,,0,,,34,0
70012,note_off,,,,,16,0,1,,,,,0,,,30,0
70012,note_on,,,,,0,0,1,,,,,0,,,39,37
70072,note_off,,,,,60,0,1,,,,,0,,,39,0
70072,note_on,,,,,0,0,1,,,,,0,,,30,40
70088,note_on,,,,,16,0,1,,,,,0,,,34,32
70104,note_off,,,,,16,0,1,,,,,0,,,34,0
70120,note_off,,,,,16,0,1,,,,,0,,,30,0
70128,note_on,,,,,8,0,1,,,,,0,,,39,47
70160,note_off,,,,,32,0,1,,,,,0,,,70,0
70180,note_off,,,,,20,0,1,,,,,0,,,58,0
70228,note_on,,,,,0,0,1,,,,,0,,,68,86
70228,note_off,,,,,48,0,1,,,,,0,,,39,0
70232,note_on,,,,,4,0,1,,,,,0,,,30,37
70232,note_on,,,,,0,0,1,,,,,0,,,56,73
70236,note_on,,,,,4,0,1,,,,,0,,,34,38
70268,note_off,,,,,32,0,1,,,,,0,,,34,0
70280,note_off,,,,,12,0,1,,,,,0,,,30,0
70280,note_on,,,,,0,0,1,,,,,0,,,39,43
70344,note_on,,,,,64,0,1,,,,,0,,,30,44
70348,note_off,,,,,4,0,1,,,,,0,,,39,0
70360,note_on,,,,,12,0,1,,,,,0,,,34,34
70376,note_off,,,,,16,0,1,,,,,0,,,34,0
70392,note_off,,,,,16,0,1,,,,,0,,,30,0
70396,note_on,,,,,4,0,1,,,,,0,,,39,50
70412,note_off,,,,,16,0,1,,,,,0,,,68,0
70424,note_off,,,,,12,0,1,,,,,0,,,56,0
70460,note_off,,,,,36,0,1,,,,,0,,,39,0
70480,note_on,,,,,20,0,1,,,,,0,,,30,51
70488,note_on,,,,,0,0,1,,,,,0,,,34,42
70488,note_on,,,,,8,0,1,,,,,0,,,66,82
70492,note_on,,,,,4,0,1,,,,,0,,,54,68
70508,note_off,,,,,16,0,1,,,,,0,,,34,0
70528,note_off,,,,,20,0,1,,,,,0,,,30,0
70536,note_on,,,,,8,0,1,,,,,0,,,39,47
70596,note_on,,,,,0,0,1,,,,,0,,,30,50
70596,note_off,,,,,60,0,1,,,,,0,,,39,0
70604,note_on,,,,,8,0,1,,,,,0,,,34,40
70632,note_off,,,,,0,0,1,,,,,0,,,34,0
70632,note_off,,,,,28,0,1,,,,,0,,,54,0
70648,note_off,,,,,16,0,1,,,,,0,,,30,0
70652,note_off,,,,,4,0,1,,,,,0,,,66,0
70652,note_on,,,,,0,0,1,,,,,0,,,39,49
70728,note_on,,,,,0,0,1,,,,,0,,,30,44
70728,note_off,,,,,76,0,1,,,,,0,,,39,0
70732,note_on,,,,,4,0,1,,,,,0,,,34,39
70740,note_on,,,,,8,0,1,,,,,0,,,65,81
70748,note_on,,,,,8,0,1,,,,,0,,,53,68
70772,note_off,,,,,24,0,1,,,,,0,,,34,0
70788,note_off,,,,,16,0,1,,,,,0,,,30,0
70788,note_on,,,,,0,0,1,,,,,0,,,39,40
70852,note_off,,,,,64,0,1,,,,,0,,,65,0
70860,note_off,,,,,8,0,1,,,,,0,,,53,0
70860,note_on,,,,,0,0,1,,,,,0,,,30,46
70864,note_off,,,,,4,0,1,,,,,0,,,39,0
70868,note_on,,,,,4,0,1,,,,,0,,,34,39
70888,note_off,,,,,20,0,1,,,,,0,,,34,0
70908,note_off,,,,,20,0,1,,,,,0,,,30,0
70916,note_on,,,,,8,0,1,,,,,0,,,39,55
70976,note_off,,,,,60,0,1,,,,,0,,,39,0
70992,note_on,,,,,16,0,1,,,,,0,,,63,85
70996,note_on,,,,,4,0,1,,,,,0,,,51,82
71000,note_on,,,,,4,0,1,,,,,0,,,30,48
71000,note_on,,,,,0,0,1,,,,,0,,,34,48
71000,control_change,,,,,0,0,1,,,64,72,0,,,,
71008,control_change,,,,,8,0,1,,,64,0,0,,,,
71040,note_off,,,,,32,0,1,,,,,0,,,34,0
71052,note_on,,,,,12,0,1,,,,,0,,,39,47
71056,control_change,,,,,0,0,1,,,64,104,0,,,,
71056,note_off,,,,,4,0,1,,,,,0,,,30,0
71060,control_change,,,,,4,0,1,,,64,127,0,,,,
71112,note_off,,,,,52,0,1,,,,,0,,,39,0
71116,note_on,,,,,4,0,1,,,,,0,,,30,49
71120,note_on,,,,,4,0,1,,,,,0,,,34,45
71152,note_off,,,,,32,0,1,,,,,0,,,34,0
71168,note_off,,,,,16,0,1,,,,,0,,,30,0
71176,note_on,,,,,8,0,1,,,,,0,,,39,37
71232,note_on,,,,,56,0,1,,,,,0,,,30,43
71236,note_off,,,,,4,0,1,,,,,0,,,39,0
71240,note_on,,,,,4,0,1,,,,,0,,,34,44
71276,note_off,,,,,36,0,1,,,,,0,,,34,0
71284,note_off,,,,,8,0,1,,,,,0,,,30,0
71292,note_on,,,,,8,0,1,,,,,0,,,39,45
71356,note_on,,,,,0,0,1,,,,,0,,,30,38
71356,note_off,,,,,64,0,1,,,,,0,,,39,0
71368,note_on,,,,,12,0,1,,,,,0,,,34,34
71384,note_off,,,,,16,0,1,,,,,0,,,34,0
71400,note_off,,,,,16,0,1,,,,,0,,,30,0
71408,note_off,,,,,8,0,1,,,,,0,,,51,0
71412,note_on,,,,,4,0,1,,,,,0,,,39,46
71428,note_off,,,,,16,0,1,,,,,0,,,63,0
71468,note_on,,,,,40,0,1,,,,,0,,,62,83
71472,note_on,,,,,4,0,1,,,,,0,,,50,72
71480,note_off,,,,,8,0,1,,,,,0,,,39,0
71484,note_on,,,,,4,0,1,,,,,0,,,30,55
71492,note_on,,,,,8,0,1,,,,,0,,,34,47
71520,note_off,,,,,28,0,1,,,,,0,,,34,0
71532,note_off,,,,,12,0,1,,,,,0,,,30,0
71544,note_on,,,,,12,0,1,,,,,0,,,39,43
71600,note_on,,,,,56,0,1,,,,,0,,,30,46
71604,note_off,,,,,4,0,1,,,,,0,,,39,0
71608,note_on,,,,,4,0,1,,,,,0,,,34,39
71628,note_off,,,,,20,0,1,,,,,0,,,34,0
71644,note_off,,,,,16,0,1,,,,,0,,,30,0
71656,note_on,,,,,12,0,1,,,,,0,,,39,44
71708,note_off,,,,,52,0,1,,,,,0,,,39,0
71708,note_on,,,,,0,0,1,,,,,0,,,30,39
71720,note_on,,,,,12,0,1,,,,,0,,,34,34
71740,note_off,,,,,20,0,1,,,,,0,,,34,0
71752,note_off,,,,,12,0,1,,,,,0,,,30,0
71768,note_on,,,,,16,0,1,,,,,0,,,39,50
71820,note_off,,,,,52,0,1,,,,,0,,,39,0
71828,note_on,,,,,8,0,1,,,,,0,,,30,40
71828,note_on,,,,,0,0,1,,,,,0,,,34,44
71832,note_off,,,,,4,0,1,,,,,0,,,62,0
71852,note_off,,,,,20,0,1,,,,,0,,,50,0
71860,note_off,,,,,8,0,1,,,,,0,,,34,0
71872,note_off,,,,,12,0,1,,,,,0,,,30,0
71876,note_on,,,,,4,0,1,,,,,0,,,39,47
71928,note_on,,,,,52,0,1,,,,,0,,,61,85
71936,note_on,,,,,0,0,1,,,,,0,,,49,81
71936,note_off,,,,,8,0,1,,,,,0,,,39,0
71944,note_on,,,,,8,0,1,,,,,0,,,30,59
71948,note_on,,,,,4,0,1,,,,,0,,,34,56
71980,note_off,,,,,32,0,1,,,,,0,,,34,0
71988,note_off,,,,,8,0,1,,,,,0,,,30,0
72000,note_on,,,,,12,0,1,,,,,0,,,39,46
72044,note_off,,,,,44,0,1,,,,,0,,,39,0
72052,note_on,,,,,0,0,1,,,,,0,,,34,52
72052,note_on,,,,,8,0,1,,,,,0,,,30,50
72088,note_off,,,,,36,0,1,,,,,0,,,34,0
72100,note_off,,,,,12,0,1,,,,,0,,,30,0
72108,note_on,,,,,8,0,1,,,,,0,,,39,48
72164,note_on,,,,,56,0,1,,,,,0,,,30,47
72168,note_on,,,,,0,0,1,,,,,0,,,34,49
72168,note_off,,,,,4,0,1,,,,,0,,,39,0
72204,note_off,,,,,36,0,1,,,,,0,,,34,0
72216,note_off,,,,,12,0,1,,,,,0,,,30,0
72228,note_off,,,,,12,0,1,,,,,0,,,49,0
72228,note_on,,,,,0,0,1,,,,,0,,,39,39
72240,note_off,,,,,12,0,1,,,,,0,,,61,0
72284,note_on,,,,,44,0,1,,,,,0,,,30,51
72292,note_on,,,,,0,0,1,,,,,0,,,34,49
72292,note_off,,,,,8,0,1,,,,,0,,,39,0
72324,note_off,,,,,32,0,1,,,,,0,,,34,0
72336,note_off,,,,,12,0,1,,,,,0,,,30,0
72344,note_on,,,,,8,0,1,,,,,0,,,39,40
72384,note_on,,,,,40,0,1,,,,,0,,,60,90
72392,note_on,,,,,8,0,1,,,,,0,,,48,81
72400,note_on,,,,,8,0,1,,,,,0,,,30,54
72400,note_on,,,,,0,0,1,,,,,0,,,34,57
72408,note_off,,,,,8,0,1,,,,,0,,,39,0
72440,note_off,,,,,32,0,1,,,,,0,,,34,0
72448,note_off,,,,,8,0,1,,,,,0,,,30,0
72452,note_on,,,,,4,0,1,,,,,0,,,39,42
72508,note_on,,,,,56,0,1,,,,,0,,,30,46
72516,note_on,,,,,0,0,1,,,,,0,,,34,49
72516,note_off,,,,,8,0,1,,,,,0,,,39,0
72548,note_off,,,,,32,0,1,,,,,0,,,34,0
72560,note_off,,,,,12,0,1,,,,,0,,,30,0
72568,note_on,,,,,8,0,1,,,,,0,,,39,42
72620,note_on,,,,,52,0,1,,,,,0,,,30,44
72624,note_on,,,,,4,0,1,,,,,0,,,34,44
72632,note_off,,,,,8,0,1,,,,,0,,,39,0
72660,note_off,,,,,28,0,1,,,,,0,,,34,0
72676,note_off,,,,,16,0,1,,,,,0,,,30,0
72708,note_off,,,,,32,0,1,,,,,0,,,60,0
72716,note_off,,,,,8,0,1,,,,,0,,,48,0
72720,note_on,,,,,0,0,1,,,,,0,,,30,28
72720,note_on,,,,,4,0,1,,,,,0,,,34,45
72764,note_off,,,,,44,0,1,,,,,0,,,30,0
72764,note_on,,,,,0,0,1,,,,,0,,,39,46
72768,note_off,,,,,4,0,1,,,,,0,,,34,0
72844,note_off,,,,,76,0,1,,,,,0,,,39,0
72868,note_on,,,,,24,0,1,,,,,0,,,59,83
72872,note_on,,,,,4,0,1,,,,,0,,,47,74
72888,control_change,,,,,16,0,1,,,64,0,0,,,,
72892,note_on,,,,,0,0,1,,,,,0,,,38,58
72892,note_on,,,,,4,0,1,,,,,0,,,32,26
72908,note_off,,,,,16,0,1,,,,,0,,,38,0
72944,note_on,,,,,36,0,1,,,,,0,,,42,62
72944,control_change,,,,,0,0,1,,,64,72,0,,,,
72952,control_change,,,,,0,0,1,,,64,127,0,,,,
72952,note_off,,,,,8,0,1,,,,,0,,,32,0
72988,note_on,,,,,36,0,1,,,,,0,,,39,54
72996,note_off,,,,,8,0,1,,,,,0,,,42,0
73008,note_on,,,,,12,0,1,,,,,0,,,32,46
73028,note_off,,,,,20,0,1,,,,,0,,,39,0
73048,note_off,,,,,20,0,1,,,,,0,,,32,0
73048,note_on,,,,,0,0,1,,,,,0,,,42,51
73100,note_off,,,,,52,0,1,,,,,0,,,42,0
73100,note_on,,,,,0,0,1,,,,,0,,,39,58
73108,note_on,,,,,8,0,1,,,,,0,,,32,55
73144,note_off,,,,,36,0,1,,,,,0,,,39,0
73152,note_off,,,,,8,0,1,,,,,0,,,32,0
73160,note_on,,,,,8,0,1,,,,,0,,,42,54
73212,note_on,,,,,52,0,1,,,,,0,,,39,56
73216,note_off,,,,,4,0,1,,,,,0,,,42,0
73220,note_on,,,,,4,0,1,,,,,0,,,32,51
73248,note_off,,,,,28,0,1,,,,,0,,,39,0
73260,note_off,,,,,12,0,1,,,,,0,,,32,0
73276,note_on,,,,,16,0,1,,,,,0,,,42,35
73324,note_on,,,,,0,0,1,,,,,0,,,39,62
73324,note_off,,,,,48,0,1,,,,,0,,,42,0
73328,note_on,,,,,4,0,1,,,,,0,,,32,56
73360,note_off,,,,,32,0,1,,,,,0,,,39,0
73368,note_off,,,,,8,0,1,,,,,0,,,32,0
73376,note_on,,,,,8,0,1,,,,,0,,,42,52
73436,note_on,,,,,60,0,1,,,,,0,,,39,50
73440,note_on,,,,,0,0,1,,,,,0,,,32,53
73440,note_off,,,,,4,0,1,,,,,0,,,42,0
73480,note_off,,,,,0,0,1,,,,,0,,,32,0
73480,note_off,,,,,40,0,1,,,,,0,,,39,0
73492,note_on,,,,,12,0,1,,,,,0,,,42,50
73548,note_off,,,,,56,0,1,,,,,0,,,42,0
73552,note_on,,,,,4,0,1,,,,,0,,,32,49
73552,note_on,,,,,0,0,1,,,,,0,,,39,48
73588,note_off,,,,,36,0,1,,,,,0,,,39,0
73616,note_on,,,,,28,0,1,,,,,0,,,42,40
73660,note_on,,,,,44,0,1,,,,,0,,,39,43
73668,note_off,,,,,8,0,1,,,,,0,,,42,0
73704,note_off,,,,,36,0,1,,,,,0,,,39,0
73716,note_on,,,,,12,0,1,,,,,0,,,42,56
73724,note_off,,,,,8,0,1,,,,,0,,,32,0
73784,note_off,,,,,60,0,1,,,,,0,,,42,0
73800,note_on,,,,,16,0,1,,,,,0,,,39,55
73816,note_on,,,,,16,0,1,,,,,0,,,33,66
73816,control_change,,,,,0,0,1,,,64,72,0,,,,
73824,control_change,,,,,8,0,1,,,64,0,0,,,,
73856,note_on,,,,,32,0,1,,,,,0,,,42,48
73860,note_off,,,,,4,0,1,,,,,0,,,39,0
73868,note_off,,,,,8,0,1,,,,,0,,,33,0
73872,control_change,,,,,4,0,1,,,64,88,0,,,,
73880,control_change,,,,,8,0,1,,,64,127,0,,,,
73920,note_on,,,,,0,0,1,,,,,0,,,39,49
73920,note_off,,,,,40,0,1,,,,,0,,,42,0
73932,note_on,,,,,12,0,1,,,,,0,,,33,44
73960,note_off,,,,,28,0,1,,,,,0,,,39,0
73972,note_off,,,,,12,0,1,,,,,0,,,33,0
73972,note_on,,,,,0,0,1,,,,,0,,,42,48
74024,note_off,,,,,52,0,1,,,,,0,,,42,0
74032,note_on,,,,,8,0,1,,,,,0,,,39,51
74044,note_on,,,,,12,0,1,,,,,0,,,33,54
74076,note_off,,,,,32,0,1,,,,,0,,,39,0
74088,note_on,,,,,0,0,1,,,,,0,,,42,46
74088,note_off,,,,,12,0,1,,,,,0,,,33,0
74140,note_off,,,,,52,0,1,,,,,0,,,42,0
74152,note_on,,,,,12,0,1,,,,,0,,,39,55
74160,note_on,,,,,8,0,1,,,,,0,,,33,52
74192,note_off,,,,,32,0,1,,,,,0,,,39,0
74208,note_off,,,,,16,0,1,,,,,0,,,33,0
74208,note_on,,,,,0,0,1,,,,,0,,,42,40
74252,note_off,,,,,44,0,1,,,,,0,,,42,0
74272,note_on,,,,,20,0,1,,,,,0,,,39,56
74276,note_on,,,,,4,0,1,,,,,0,,,33,56
74312,note_off,,,,,36,0,1,,,,,0,,,39,0
74324,note_on,,,,,12,0,1,,,,,0,,,42,42
74328,note_off,,,,,4,0,1,,,,,0,,,33,0
74376,note_off,,,,,48,0,1,,,,,0,,,42,0
74392,note_on,,,,,16,0,1,,,,,0,,,39,60
74408,note_on,,,,,16,0,1,,,,,0,,,33,47
74432,note_off,,,,,24,0,1,,,,,0,,,39,0
74448,note_off,,,,,16,0,1,,,,,0,,,33,0
74456,note_off,,,,,8,0,1,,,,,0,,,47,0
74460,note_off,,,,,4,0,1,,,,,0,,,59,0
74464,note_on,,,,,4,0,1,,,,,0,,,42,22
74492,note_off,,,,,28,0,1,,,,,0,,,42,0
74504,note_on,,,,,12,0,1,,,,,0,,,59,82
74516,note_on,,,,,12,0,1,,,,,0,,,39,56
74520,note_on,,,,,4,0,1,,,,,0,,,33,54
74556,note_off,,,,,36,0,1,,,,,0,,,39,0
74572,note_off,,,,,16,0,1,,,,,0,,,33,0
74580,note_on,,,,,8,0,1,,,,,0,,,42,39
74616,note_off,,,,,36,0,1,,,,,0,,,59,0
74616,note_on,,,,,0,0,1,,,,,0,,,39,43
74620,note_off,,,,,4,0,1,,,,,0,,,42,0
74632,note_on,,,,,12,0,1,,,,,0,,,33,26
74660,note_off,,,,,28,0,1,,,,,0,,,39,0
74664,note_off,,,,,4,0,1,,,,,0,,,33,0
74672,note_on,,,,,8,0,1,,,,,0,,,42,28
74704,note_off,,,,,32,0,1,,,,,0,,,42,0
74764,note_on,,,,,60,0,1,,,,,0,,,58,85
74764,note_on,,,,,0,0,1,,,,,0,,,46,85
74768,note_on,,,,,4,0,1,,,,,0,,,34,62
74772,note_on,,,,,4,0,1,,,,,0,,,38,66
74784,control_change,,,,,12,0,1,,,64,40,0,,,,
74792,control_change,,,,,8,0,1,,,64,0,0,,,,
74812,note_off,,,,,20,0,1,,,,,0,,,38,0
74828,note_off,,,,,16,0,1,,,,,0,,,34,0
74828,note_on,,,,,0,0,1,,,,,0,,,41,46
74840,control_change,,,,,12,0,1,,,64,88,0,,,,
74848,control_change,,,,,8,0,1,,,64,127,0,,,,
74876,note_off,,,,,28,0,1,,,,,0,,,41,0
74880,note_on,,,,,4,0,1,,,,,0,,,34,47
74888,note_on,,,,,8,0,1,,,,,0,,,38,58
74920,note_off,,,,,32,0,1,,,,,0,,,38,0
74928,note_off,,,,,8,0,1,,,,,0,,,34,0
74940,note_on,,,,,12,0,1,,,,,0,,,41,47
74988,note_on,,,,,0,0,1,,,,,0,,,38,50
74988,note_on,,,,,0,0,1,,,,,0,,,34,49
74988,note_off,,,,,48,0,1,,,,,0,,,41,0
75020,note_off,,,,,32,0,1,,,,,0,,,38,0
75032,note_off,,,,,12,0,1,,,,,0,,,34,0
75048,note_on,,,,,16,0,1,,,,,0,,,41,30
75076,note_off,,,,,28,0,1,,,,,0,,,41,0
75092,note_on,,,,,16,0,1,,,,,0,,,38,55
75100,note_on,,,,,8,0,1,,,,,0,,,34,42
75128,note_off,,,,,28,0,1,,,,,0,,,38,0
75148,note_off,,,,,20,0,1,,,,,0,,,34,0
75164,note_on,,,,,16,0,1,,,,,0,,,41,54
75240,note_off,,,,,76,0,1,,,,,0,,,41,0
75260,note_on,,,,,20,0,1,,,,,0,,,38,67
75272,note_on,,,,,12,0,1,,,,,0,,,35,68
75316,note_off,,,,,44,0,1,,,,,0,,,35,0
75320,note_off,,,,,4,0,1,,,,,0,,,38,0
75324,note_on,,,,,4,0,1,,,,,0,,,41,62
75372,note_off,,,,,48,0,1,,,,,0,,,41,0
75376,note_on,,,,,0,0,1,,,,,0,,,35,47
75376,note_on,,,,,4,0,1,,,,,0,,,38,55
75384,note_off,,,,,8,0,1,,,,,0,,,46,0
75400,note_off,,,,,16,0,1,,,,,0,,,58,0
75416,note_off,,,,,16,0,1,,,,,0,,,38,0
75416,note_off,,,,,0,0,1,,,,,0,,,35,0
75428,note_on,,,,,12,0,1,,,,,0,,,41,54
75472,note_off,,,,,44,0,1,,,,,0,,,41,0
75484,note_on,,,,,12,0,1,,,,,0,,,38,39
75492,note_on,,,,,8,0,1,,,,,0,,,35,36
75516,note_off,,,,,24,0,1,,,,,0,,,38,0
75524,note_off,,,,,8,0,1,,,,,0,,,35,0
75536,note_on,,,,,12,0,1,,,,,0,,,41,45
75576,note_off,,,,,40,0,1,,,,,0,,,41,0
75632,note_on,,,,,56,0,1,,,,,0,,,41,61
75692,note_off,,,,,60,0,1,,,,,0,,,41,0
75708,note_on,,,,,16,0,1,,,,,0,,,38,78
75712,note_on,,,,,4,0,1,,,,,0,,,34,71
75732,control_change,,,,,20,0,1,,,64,72,0,,,,
75740,control_change,,,,,8,0,1,,,64,24,0,,,,
75760,note_off,,,,,20,0,1,,,,,0,,,38,0
75760,note_on,,,,,0,0,1,,,,,0,,,41,55
75764,note_off,,,,,4,0,1,,,,,0,,,34,0
75764,control_change,,,,,0,0,1,,,64,127,0,,,,
75812,note_off,,,,,48,0,1,,,,,0,,,41,0
75832,note_on,,,,,20,0,1,,,,,0,,,34,57
75840,note_on,,,,,8,0,1,,,,,0,,,38,35
75860,note_off,,,,,20,0,1,,,,,0,,,38,0
75872,note_off,,,,,12,0,1,,,,,0,,,34,0
75884,note_on,,,,,12,0,1,,,,,0,,,41,37
75920,note_off,,,,,36,0,1,,,,,0,,,41,0
75940,note_on,,,,,20,0,1,,,,,0,,,34,50
75940,note_on,,,,,0,0,1,,,,,0,,,38,48
75964,note_off,,,,,24,0,1,,,,,0,,,38,0
75972,note_off,,,,,8,0,1,,,,,0,,,34,0
75988,note_on,,,,,16,0,1,,,,,0,,,41,43
76032,note_off,,,,,44,0,1,,,,,0,,,41,0
76040,note_on,,,,,8,0,1,,,,,0,,,34,50
76052,note_on,,,,,12,0,1,,,,,0,,,38,37
76072,note_off,,,,,20,0,1,,,,,0,,,38,0
76088,note_off,,,,,16,0,1,,,,,0,,,34,0
76100,note_on,,,,,12,0,1,,,,,0,,,41,53
76148,note_off,,,,,48,0,1,,,,,0,,,41,0
76168,note_on,,,,,20,0,1,,,,,0,,,32,82
76172,note_on,,,,,4,0,1,,,,,0,,,38,70
76196,control_change,,,,,24,0,1,,,64,72,0,,,,
76204,control_change,,,,,8,0,1,,,64,0,0,,,,
76216,note_off,,,,,12,0,1,,,,,0,,,38,0
76220,note_on,,,,,4,0,1,,,,,0,,,41,47
76224,note_off,,,,,4,0,1,,,,,0,,,32,0
76228,control_change,,,,,4,0,1,,,64,56,0,,,,
76232,control_change,,,,,4,0,1,,,64,127,0,,,,
76280,note_off,,,,,48,0,1,,,,,0,,,41,0
76288,note_on,,,,,8,0,1,,,,,0,,,32,57
76292,note_on,,,,,4,0,1,,,,,0,,,38,61
76328,note_off,,,,,36,0,1,,,,,0,,,38,0
76332,note_off,,,,,4,0,1,,,,,0,,,32,0
76388,note_on,,,,,56,0,1,,,,,0,,,32,43
76396,note_on,,,,,8,0,1,,,,,0,,,38,40
76432,note_off,,,,,36,0,1,,,,,0,,,38,0
76444,note_off,,,,,12,0,1,,,,,0,,,32,0
76460,note_on,,,,,16,0,1,,,,,0,,,41,43
76624,note_off,,,,,164,0,1,,,,,0,,,41,0
76656,note_on,,,,,32,0,1,,,,,0,,,37,65
76660,note_on,,,,,4,0,1,,,,,0,,,31,84
76700,control_change,,,,,40,0,1,,,64,40,0,,,,
76704,note_off,,,,,4,0,1,,,,,0,,,37,0
76708,control_change,,,,,4,0,1,,,64,0,0,,,,
76712,note_on,,,,,4,0,1,,,,,0,,,40,74
76772,control_change,,,,,60,0,1,,,64,127,0,,,,
76796,note_on,,,,,24,0,1,,,,,0,,,37,63
76804,note_off,,,,,8,0,1,,,,,0,,,40,0
76812,note_off,,,,,8,0,1,,,,,0,,,31,0
76936,note_off,,,,,124,0,1,,,,,0,,,37,64
77128,control_change,,,,,192,0,1,,,64,40,0,,,,
77136,set_tempo,,,,,22596,1,0,,545454,,,,,,,
77136,control_change,,,,,0,0,1,,,64,88,0,,,,
77136,note_on,,,,,8,0,1,,,,,0,,,82,92
77140,note_on,,,,,4,0,1,,,,,0,,,70,75
77144,control_change,,,,,0,0,1,,,64,127,0,,,,
77144,note_on,,,,,4,0,1,,,,,0,,,58,55
77148,note_on,,,,,4,0,1,,,,,0,,,52,65
77192,note_off,,,,,44,0,1,,,,,0,,,52,0
77196,note_off,,,,,4,0,1,,,,,0,,,58,0
77204,note_on,,,,,8,0,1,,,,,0,,,61,27
77252,note_off,,,,,48,0,1,,,,,0,,,61,0
77256,note_on,,,,,4,0,1,,,,,0,,,58,45
77264,note_on,,,,,8,0,1,,,,,0,,,52,42
77300,note_off,,,,,0,0,1,,,,,0,,,52,0
77300,note_off,,,,,36,0,1,,,,,0,,,58,0
77312,note_on,,,,,12,0,1,,,,,0,,,61,33
77364,note_off,,,,,52,0,1,,,,,0,,,61,0
77368,note_on,,,,,4,0,1,,,,,0,,,58,34
77376,note_on,,,,,8,0,1,,,,,0,,,52,31
77400,note_off,,,,,24,0,1,,,,,0,,,52,0
77408,note_off,,,,,8,0,1,,,,,0,,,58,0
77424,note_on,,,,,16,0,1,,,,,0,,,61,33
77480,note_on,,,,,0,0,1,,,,,0,,,58,39
77480,note_off,,,,,56,0,1,,,,,0,,,61,0
77496,note_on,,,,,16,0,1,,,,,0,,,52,41
77520,note_off,,,,,0,0,1,,,,,0,,,52,0
77520,note_off,,,,,24,0,1,,,,,0,,,58,0
77532,note_on,,,,,12,0,1,,,,,0,,,61,35
77584,note_off,,,,,52,0,1,,,,,0,,,61,0
77596,note_on,,,,,12,0,1,,,,,0,,,58,53
77604,note_on,,,,,8,0,1,,,,,0,,,52,58
77620,note_off,,,,,16,0,1,,,,,0,,,52,0
77640,note_off,,,,,20,0,1,,,,,0,,,58,0
77648,note_on,,,,,8,0,1,,,,,0,,,61,46
77704,note_off,,,,,56,0,1,,,,,0,,,61,0
77708,note_on,,,,,4,0,1,,,,,0,,,58,46
77712,note_on,,,,,4,0,1,,,,,0,,,52,52
77744,note_off,,,,,32,0,1,,,,,0,,,52,0
77748,note_off,,,,,4,0,1,,,,,0,,,58,0
77760,note_on,,,,,12,0,1,,,,,0,,,61,44
77812,note_off,,,,,52,0,1,,,,,0,,,61,0
77812,note_on,,,,,0,0,1,,,,,0,,,58,47
77820,note_on,,,,,8,0,1,,,,,0,,,52,49
77848,note_off,,,,,28,0,1,,,,,0,,,52,0
77856,note_off,,,,,8,0,1,,,,,0,,,58,0
77864,note_on,,,,,8,0,1,,,,,0,,,61,44
77916,note_off,,,,,52,0,1,,,,,0,,,61,0
77916,note_on,,,,,0,0,1,,,,,0,,,58,50
77928,note_on,,,,,12,0,1,,,,,0,,,52,42
77948,note_off,,,,,20,0,1,,,,,0,,,52,0
77956,note_off,,,,,8,0,1,,,,,0,,,58,0
77968,note_on,,,,,12,0,1,,,,,0,,,61,42
78020,note_off,,,,,52,0,1,,,,,0,,,61,0
78024,note_on,,,,,4,0,1,,,,,0,,,58,44
78040,note_on,,,,,16,0,1,,,,,0,,,52,37
78064,note_off,,,,,24,0,1,,,,,0,,,58,0
78064,note_off,,,,,0,0,1,,,,,0,,,52,0
78076,note_on,,,,,12,0,1,,,,,0,,,61,40
78120,note_off,,,,,44,0,1,,,,,0,,,61,0
78136,note_on,,,,,16,0,1,,,,,0,,,58,28
78156,note_on,,,,,0,0,1,,,,,0,,,52,33
78156,note_off,,,,,20,0,1,,,,,0,,,70,0
78176,note_off,,,,,20,0,1,,,,,0,,,82,0
78176,note_off,,,,,0,0,1,,,,,0,,,52,0
78184,note_off,,,,,8,0,1,,,,,0,,,58,0
78248,note_on,,,,,64,0,1,,,,,0,,,83,86
78252,note_on,,,,,4,0,1,,,,,0,,,71,71
78280,note_off,,,,,28,0,1,,,,,0,,,71,0
78292,note_off,,,,,12,0,1,,,,,0,,,83,0
78372,note_on,,,,,80,0,1,,,,,0,,,85,90
78376,note_on,,,,,4,0,1,,,,,0,,,73,79
78408,note_off,,,,,32,0,1,,,,,0,,,73,0
78428,note_off,,,,,20,0,1,,,,,0,,,85,0
78432,note_on,,,,,4,0,1,,,,,0,,,32,80
78448,control_change,,,,,16,0,1,,,64,88,0,,,,
78456,control_change,,,,,0,0,1,,,64,40,0,,,,
78456,control_change,,,,,8,0,1,,,64,0,0,,,,
78468,note_on,,,,,12,0,1,,,,,0,,,39,62
78520,note_on,,,,,0,0,1,,,,,0,,,75,73
78520,note_on,,,,,52,0,1,,,,,0,,,87,97
78524,control_change,,,,,0,0,1,,,64,104,0,,,,
78524,note_on,,,,,4,0,1,,,,,0,,,47,71
78528,control_change,,,,,4,0,1,,,64,127,0,,,,
78540,note_off,,,,,12,0,1,,,,,0,,,39,0
78568,note_off,,,,,28,0,1,,,,,0,,,32,0
78640,note_off,,,,,72,0,1,,,,,0,,,47,0
78912,note_on,,,,,272,0,1,,,,,0,,,56,51
78916,note_on,,,,,4,0,1,,,,,0,,,51,48
78952,note_off,,,,,36,0,1,,,,,0,,,56,0
78956,note_off,,,,,4,0,1,,,,,0,,,51,0
78968,note_on,,,,,12,0,1,,,,,0,,,59,43
79012,note_off,,,,,44,0,1,,,,,0,,,59,0
79028,note_on,,,,,16,0,1,,,,,0,,,56,35
79032,note_on,,,,,4,0,1,,,,,0,,,51,44
79068,note_off,,,,,36,0,1,,,,,0,,,56,0
79076,note_on,,,,,0,0,1,,,,,0,,,59,42
79076,note_off,,,,,8,0,1,,,,,0,,,51,0
79132,note_on,,,,,56,0,1,,,,,0,,,56,56
79136,note_on,,,,,0,0,1,,,,,0,,,51,46
79136,note_off,,,,,4,0,1,,,,,0,,,59,0
79172,note_off,,,,,36,0,1,,,,,0,,,56,0
79176,note_off,,,,,4,0,1,,,,,0,,,51,0
79188,note_on,,,,,12,0,1,,,,,0,,,59,48
79216,note_off,,,,,28,0,1,,,,,0,,,59,0
79236,note_on,,,,,20,0,1,,,,,0,,,56,42
79244,note_on,,,,,8,0,1,,,,,0,,,51,37
79276,note_off,,,,,32,0,1,,,,,0,,,56,0
79280,note_off,,,,,4,0,1,,,,,0,,,51,0
79284,note_on,,,,,4,0,1,,,,,0,,,59,40
79328,note_off,,,,,44,0,1,,,,,0,,,59,0
79340,note_on,,,,,12,0,1,,,,,0,,,56,42
79352,note_on,,,,,12,0,1,,,,,0,,,51,40
79380,note_off,,,,,28,0,1,,,,,0,,,56,0
79392,note_off,,,,,12,0,1,,,,,0,,,51,0
79400,note_on,,,,,8,0,1,,,,,0,,,59,47
79428,note_off,,,,,28,0,1,,,,,0,,,75,0
79444,note_off,,,,,16,0,1,,,,,0,,,59,0
79448,note_on,,,,,4,0,1,,,,,0,,,56,35
79456,note_on,,,,,8,0,1,,,,,0,,,51,36
79492,note_off,,,,,0,0,1,,,,,0,,,56,0
79492,note_off,,,,,36,0,1,,,,,0,,,87,0
79500,note_off,,,,,8,0,1,,,,,0,,,51,0
79504,note_on,,,,,4,0,1,,,,,0,,,59,53
79512,note_on,,,,,8,0,1,,,,,0,,,85,81
79516,note_on,,,,,4,0,1,,,,,0,,,73,69
79552,note_off,,,,,36,0,1,,,,,0,,,59,0
79560,note_on,,,,,0,0,1,,,,,0,,,51,34
79560,note_on,,,,,8,0,1,,,,,0,,,56,45
79572,note_off,,,,,12,0,1,,,,,0,,,85,0
79580,note_off,,,,,8,0,1,,,,,0,,,73,0
79600,note_off,,,,,20,0,1,,,,,0,,,56,0
79604,note_off,,,,,4,0,1,,,,,0,,,51,0
79608,note_on,,,,,4,0,1,,,,,0,,,59,57
79648,note_off,,,,,40,0,1,,,,,0,,,59,0
79656,note_on,,,,,8,0,1,,,,,0,,,56,40
79660,note_on,,,,,4,0,1,,,,,0,,,51,43
79684,note_on,,,,,24,0,1,,,,,0,,,83,88
79688,note_on,,,,,4,0,1,,,,,0,,,71,72
79704,note_off,,,,,16,0,1,,,,,0,,,56,0
79712,note_on,,,,,0,0,1,,,,,0,,,59,48
79712,note_off,,,,,8,0,1,,,,,0,,,51,0
79728,note_off,,,,,16,0,1,,,,,0,,,71,0
79740,note_off,,,,,12,0,1,,,,,0,,,83,0
79772,note_off,,,,,32,0,1,,,,,0,,,59,0
79780,note_on,,,,,8,0,1,,,,,0,,,56,26
79784,note_on,,,,,4,0,1,,,,,0,,,51,35
79824,note_off,,,,,40,0,1,,,,,0,,,56,0
79824,note_off,,,,,0,0,1,,,,,0,,,51,0
79832,note_on,,,,,8,0,1,,,,,0,,,59,44
79832,note_on,,,,,0,0,1,,,,,0,,,83,94
79832,note_on,,,,,0,0,1,,,,,0,,,71,73
79888,note_off,,,,,56,0,1,,,,,0,,,59,0
79896,note_on,,,,,8,0,1,,,,,0,,,56,31
79900,note_on,,,,,4,0,1,,,,,0,,,51,37
79904,note_off,,,,,4,0,1,,,,,0,,,71,0
79932,note_off,,,,,0,0,1,,,,,0,,,51,0
79932,note_off,,,,,0,0,1,,,,,0,,,56,0
79932,note_off,,,,,28,0,1,,,,,0,,,83,0
79940,note_on,,,,,8,0,1,,,,,0,,,59,38
79976,note_on,,,,,36,0,1,,,,,0,,,82,85
79980,note_off,,,,,4,0,1,,,,,0,,,59,0
79984,note_on,,,,,4,0,1,,,,,0,,,70,71
79988,note_on,,,,,4,0,1,,,,,0,,,56,39
80004,note_on,,,,,16,0,1,,,,,0,,,51,35
80028,note_off,,,,,24,0,1,,,,,0,,,56,0
80040,note_on,,,,,12,0,1,,,,,0,,,59,48
80056,note_off,,,,,16,0,1,,,,,0,,,70,0
80056,note_off,,,,,0,0,1,,,,,0,,,51,0
80076,note_off,,,,,20,0,1,,,,,0,,,82,0
80092,note_on,,,,,16,0,1,,,,,0,,,56,25
80112,note_off,,,,,20,0,1,,,,,0,,,59,0
80116,note_on,,,,,4,0,1,,,,,0,,,80,87
80120,note_on,,,,,4,0,1,,,,,0,,,68,76
80128,note_off,,,,,8,0,1,,,,,0,,,56,0
80168,note_off,,,,,40,0,1,,,,,0,,,68,0
80176,note_off,,,,,8,0,1,,,,,0,,,80,0
80272,note_on,,,,,96,0,1,,,,,0,,,32,62
80276,control_change,,,,,4,0,1,,,64,56,0,,,,
80284,note_on,,,,,8,0,1,,,,,0,,,40,56
80284,control_change,,,,,0,0,1,,,64,0,0,,,,
80316,note_off,,,,,32,0,1,,,,,0,,,32,0
80328,note_on,,,,,12,0,1,,,,,0,,,80,95
80328,note_on,,,,,0,0,1,,,,,0,,,68,80
80328,control_change,,,,,0,0,1,,,64,104,0,,,,
80328,note_on,,,,,0,0,1,,,,,0,,,47,70
80336,control_change,,,,,8,0,1,,,64,127,0,,,,
80360,note_off,,,,,24,0,1,,,,,0,,,40,0
80376,control_change,,,,,16,0,1,,,64,72,0,,,,
80384,control_change,,,,,8,0,1,,,64,88,0,,,,
80392,control_change,,,,,8,0,1,,,64,104,0,,,,
80400,control_change,,,,,8,0,1,,,64,127,0,,,,
80412,note_off,,,,,12,0,1,,,,,0,,,47,0
80580,note_on,,,,,168,0,1,,,,,0,,,56,43
80592,note_on,,,,,12,0,1,,,,,0,,,52,36
80644,note_off,,,,,52,0,1,,,,,0,,,56,0
80648,note_off,,,,,4,0,1,,,,,0,,,52,0
80656,note_on,,,,,8,0,1,,,,,0,,,59,36
80716,note_off,,,,,60,0,1,,,,,0,,,59,0
80720,note_on,,,,,4,0,1,,,,,0,,,56,38
80724,note_on,,,,,4,0,1,,,,,0,,,52,47
80748,note_off,,,,,24,0,1,,,,,0,,,52,0
80776,note_off,,,,,28,0,1,,,,,0,,,56,0
80784,note_on,,,,,8,0,1,,,,,0,,,59,42
80848,note_off,,,,,64,0,1,,,,,0,,,59,0
80848,note_on,,,,,0,0,1,,,,,0,,,56,44
80860,note_on,,,,,12,0,1,,,,,0,,,52,44
80876,note_off,,,,,16,0,1,,,,,0,,,52,0
80900,note_off,,,,,24,0,1,,,,,0,,,56,0
80908,note_on,,,,,8,0,1,,,,,0,,,59,44
80940,note_off,,,,,32,0,1,,,,,0,,,68,0
80960,note_off,,,,,20,0,1,,,,,0,,,59,0
80984,note_on,,,,,24,0,1,,,,,0,,,56,25
80992,note_on,,,,,8,0,1,,,,,0,,,52,25
81020,note_off,,,,,0,0,1,,,,,0,,,52,0
81020,note_off,,,,,28,0,1,,,,,0,,,56,0
81028,note_on,,,,,8,0,1,,,,,0,,,59,37
81036,note_off,,,,,8,0,1,,,,,0,,,80,0
81076,note_off,,,,,40,0,1,,,,,0,,,59,0
81076,note_on,,,,,0,0,1,,,,,0,,,56,38
81100,note_on,,,,,24,0,1,,,,,0,,,52,32
81120,note_off,,,,,0,0,1,,,,,0,,,52,0
81120,note_off,,,,,20,0,1,,,,,0,,,56,0
81128,note_on,,,,,8,0,1,,,,,0,,,59,47
81172,note_off,,,,,44,0,1,,,,,0,,,59,0
81180,note_on,,,,,8,0,1,,,,,0,,,56,26
81196,note_on,,,,,16,0,1,,,,,0,,,52,38
81200,note_on,,,,,4,0,1,,,,,0,,,78,79
81204,note_on,,,,,4,0,1,,,,,0,,,66,64
81232,note_off,,,,,28,0,1,,,,,0,,,56,0
81236,note_off,,,,,4,0,1,,,,,0,,,52,0
81244,note_on,,,,,8,0,1,,,,,0,,,59,36
81252,note_off,,,,,8,0,1,,,,,0,,,66,0
81256,note_off,,,,,4,0,1,,,,,0,,,78,0
81328,note_on,,,,,72,0,1,,,,,0,,,76,85
81332,note_off,,,,,4,0,1,,,,,0,,,59,0
81336,note_on,,,,,0,0,1,,,,,0,,,56,33
81336,note_on,,,,,4,0,1,,,,,0,,,64,63
81336,note_on,,,,,0,0,1,,,,,0,,,52,35
81376,note_off,,,,,40,0,1,,,,,0,,,52,0
81384,note_off,,,,,8,0,1,,,,,0,,,56,0
81400,note_on,,,,,16,0,1,,,,,0,,,59,31
81408,set_tempo,,,,,4272,1,0,,545454,,,,,,,
81420,note_off,,,,,20,0,1,,,,,0,,,64,0
81448,note_off,,,,,28,0,1,,,,,0,,,76,0
81452,note_on,,,,,0,0,1,,,,,0,,,56,35
81452,note_off,,,,,4,0,1,,,,,0,,,59,0
81460,note_on,,,,,8,0,1,,,,,0,,,52,41
81492,note_off,,,,,32,0,1,,,,,0,,,52,0
81496,note_off,,,,,4,0,1,,,,,0,,,56,0
81508,note_on,,,,,12,0,1,,,,,0,,,59,44
81564,note_off,,,,,56,0,1,,,,,0,,,59,0
81564,note_on,,,,,0,0,1,,,,,0,,,76,86
81572,note_on,,,,,0,0,1,,,,,0,,,64,70
81572,note_on,,,,,8,0,1,,,,,0,,,56,31
81580,note_on,,,,,8,0,1,,,,,0,,,52,42
81620,note_off,,,,,40,0,1,,,,,0,,,56,0
81620,note_off,,,,,0,0,1,,,,,0,,,52,0
81628,note_on,,,,,0,0,1,,,,,0,,,59,36
81628,note_off,,,,,8,0,1,,,,,0,,,64,0
81684,note_off,,,,,56,0,1,,,,,0,,,59,0
81688,note_on,,,,,4,0,1,,,,,0,,,56,35
81692,set_tempo,,,,,284,1,0,,550458,,,,,,,
81692,note_on,,,,,4,0,1,,,,,0,,,52,33
81712,note_off,,,,,20,0,1,,,,,0,,,76,0
81724,note_off,,,,,12,0,1,,,,,0,,,52,0
81732,note_off,,,,,8,0,1,,,,,0,,,56,0
81752,note_on,,,,,20,0,1,,,,,0,,,59,27
81804,note_off,,,,,52,0,1,,,,,0,,,59,0
81804,note_on,,,,,0,0,1,,,,,0,,,78,80
81804,note_on,,,,,0,0,1,,,,,0,,,66,63
81816,note_on,,,,,12,0,1,,,,,0,,,56,28
81820,note_on,,,,,4,0,1,,,,,0,,,52,38
81868,note_off,,,,,0,0,1,,,,,0,,,52,0
81868,note_off,,,,,48,0,1,,,,,0,,,56,0
81876,note_on,,,,,8,0,1,,,,,0,,,59,32
81880,note_off,,,,,4,0,1,,,,,0,,,66,0
81904,note_off,,,,,24,0,1,,,,,0,,,78,0
81952,note_off,,,,,48,0,1,,,,,0,,,59,0
81956,note_on,,,,,4,0,1,,,,,0,,,56,38
81964,note_on,,,,,8,0,1,,,,,0,,,52,43
81976,set_tempo,,,,,284,1,0,,555555,,,,,,,
81984,note_off,,,,,20,0,1,,,,,0,,,52,0
82000,note_off,,,,,16,0,1,,,,,0,,,56,0
82012,note_on,,,,,12,0,1,,,,,0,,,59,35
82064,note_on,,,,,52,0,1,,,,,0,,,80,75
82072,note_on,,,,,8,0,1,,,,,0,,,68,62
82080,note_off,,,,,8,0,1,,,,,0,,,59,0
82084,note_on,,,,,4,0,1,,,,,0,,,56,36
82088,note_on,,,,,4,0,1,,,,,0,,,52,43
82116,note_off,,,,,28,0,1,,,,,0,,,68,0
82128,note_off,,,,,12,0,1,,,,,0,,,80,0
82132,note_off,,,,,4,0,1,,,,,0,,,56,0
82132,note_off,,,,,0,0,1,,,,,0,,,52,0
82140,note_on,,,,,8,0,1,,,,,0,,,59,36
82192,note_off,,,,,52,0,1,,,,,0,,,59,0
82192,note_on,,,,,0,0,1,,,,,0,,,56,28
82212,note_on,,,,,20,0,1,,,,,0,,,52,31
82256,note_off,,,,,44,0,1,,,,,0,,,56,0
82260,set_tempo,,,,,284,1,0,,560747,,,,,,,
82264,note_on,,,,,8,0,1,,,,,0,,,59,40
82300,note_off,,,,,36,0,1,,,,,0,,,52,0
82308,note_off,,,,,8,0,1,,,,,0,,,59,0
82412,note_on,,,,,104,0,1,,,,,0,,,69,65
82412,note_on,,,,,0,0,1,,,,,0,,,81,72
82444,control_change,,,,,32,0,1,,,64,88,0,,,,
82452,control_change,,,,,8,0,1,,,64,0,0,,,,
82544,set_tempo,,,,,284,1,0,,566037,,,,,,,
82584,control_change,,,,,132,0,1,,,64,104,0,,,,
82588,control_change,,,,,4,0,1,,,64,88,0,,,,
82596,control_change,,,,,8,0,1,,,64,72,0,,,,
82604,control_change,,,,,8,0,1,,,64,24,0,,,,
82612,control_change,,,,,8,0,1,,,64,0,0,,,,
82640,note_on,,,,,28,0,1,,,,,0,,,34,50
82672,control_change,,,,,32,0,1,,,64,88,0,,,,
82676,control_change,,,,,4,0,1,,,64,127,0,,,,
82728,note_on,,,,,52,0,1,,,,,0,,,46,46
82744,note_off,,,,,16,0,1,,,,,0,,,34,0
82764,note_off,,,,,20,0,1,,,,,0,,,69,0
82764,note_off,,,,,0,0,1,,,,,0,,,46,0
82764,note_off,,,,,0,0,1,,,,,0,,,81,0
82828,set_tempo,,,,,284,1,0,,571428,,,,,,,
82876,note_on,,,,,112,0,1,,,,,0,,,82,69
82884,note_on,,,,,8,0,1,,,,,0,,,70,54
82888,note_on,,,,,4,0,1,,,,,0,,,54,50
82900,note_on,,,,,12,0,1,,,,,0,,,58,32
82948,note_off,,,,,48,0,1,,,,,0,,,54,0
82952,note_off,,,,,4,0,1,,,,,0,,,58,0
82984,note_on,,,,,32,0,1,,,,,0,,,63,23
83016,note_off,,,,,32,0,1,,,,,0,,,63,0
83032,note_on,,,,,16,0,1,,,,,0,,,58,39
83044,note_on,,,,,12,0,1,,,,,0,,,54,31
83076,note_off,,,,,32,0,1,,,,,0,,,58,0
83080,note_off,,,,,4,0,1,,,,,0,,,54,0
83096,note_on,,,,,16,0,1,,,,,0,,,63,25
83112,set_tempo,,,,,284,1,0,,576923,,,,,,,
83144,note_off,,,,,48,0,1,,,,,0,,,63,0
83148,note_on,,,,,0,0,1,,,,,0,,,54,30
83148,note_on,,,,,4,0,1,,,,,0,,,58,36
83184,note_off,,,,,36,0,1,,,,,0,,,58,0
83188,note_off,,,,,4,0,1,,,,,0,,,54,0
83200,note_on,,,,,12,0,1,,,,,0,,,63,31
83260,note_on,,,,,0,0,1,,,,,0,,,58,35
83260,note_off,,,,,60,0,1,,,,,0,,,63,0
83264,note_on,,,,,4,0,1,,,,,0,,,54,30
83296,note_off,,,,,32,0,1,,,,,0,,,58,0
83304,note_off,,,,,8,0,1,,,,,0,,,54,0
83312,note_on,,,,,8,0,1,,,,,0,,,63,42
83364,note_on,,,,,0,0,1,,,,,0,,,54,34
83364,note_on,,,,,52,0,1,,,,,0,,,58,39
83368,note_off,,,,,4,0,1,,,,,0,,,63,0
83396,set_tempo,,,,,284,1,0,,582524,,,,,,,
83408,note_off,,,,,0,0,1,,,,,0,,,54,0
83408,note_off,,,,,40,0,1,,,,,0,,,58,0
83420,note_on,,,,,12,0,1,,,,,0,,,63,34
83476,note_off,,,,,56,0,1,,,,,0,,,63,0
83476,note_on,,,,,0,0,1,,,,,0,,,58,37
83476,note_on,,,,,0,0,1,,,,,0,,,54,33
83512,note_off,,,,,36,0,1,,,,,0,,,58,0
83520,note_off,,,,,8,0,1,,,,,0,,,54,0
83528,note_on,,,,,8,0,1,,,,,0,,,63,39
83580,note_on,,,,,52,0,1,,,,,0,,,54,35
83584,note_off,,,,,4,0,1,,,,,0,,,63,0
83592,note_on,,,,,8,0,1,,,,,0,,,58,20
83624,note_off,,,,,32,0,1,,,,,0,,,54,0
83632,note_off,,,,,8,0,1,,,,,0,,,58,0
83636,note_on,,,,,4,0,1,,,,,0,,,63,51
83680,set_tempo,,,,,284,1,0,,588235,,,,,,,
83692,note_off,,,,,56,0,1,,,,,0,,,63,0
83696,note_on,,,,,4,0,1,,,,,0,,,58,34
83700,note_on,,,,,4,0,1,,,,,0,,,54,32
83740,note_off,,,,,40,0,1,,,,,0,,,58,0
83744,note_on,,,,,4,0,1,,,,,0,,,63,46
83748,note_off,,,,,4,0,1,,,,,0,,,54,0
83820,note_on,,,,,0,0,1,,,,,0,,,58,52
83820,note_off,,,,,72,0,1,,,,,0,,,63,0
83824,note_on,,,,,4,0,1,,,,,0,,,53,57
83832,control_change,,,,,8,0,1,,,64,104,0,,,,
83840,control_change,,,,,8,0,1,,,64,40,0,,,,
83848,control_change,,,,,8,0,1,,,64,0,0,,,,
83868,control_change,,,,,20,0,1,,,64,24,0,,,,
83872,note_on,,,,,4,0,1,,,,,0,,,63,40
83876,note_off,,,,,4,0,1,,,,,0,,,58,0
83876,control_change,,,,,0,0,1,,,64,72,0,,,,
83880,note_off,,,,,4,0,1,,,,,0,,,53,0
83884,control_change,,,,,4,0,1,,,64,127,0,,,,
83932,note_off,,,,,48,0,1,,,,,0,,,63,0
83932,note_on,,,,,0,0,1,,,,,0,,,58,36
83944,note_on,,,,,12,0,1,,,,,0,,,53,45
83964,set_tempo,,,,,284,1,0,,594059,,,,,,,
83972,note_off,,,,,28,0,1,,,,,0,,,58,0
83976,note_off,,,,,4,0,1,,,,,0,,,53,0
83984,note_on,,,,,8,0,1,,,,,0,,,63,35
84040,note_on,,,,,0,0,1,,,,,0,,,58,32
84040,note_off,,,,,56,0,1,,,,,0,,,63,0
84048,note_off,,,,,8,0,1,,,,,0,,,70,0
84052,note_on,,,,,4,0,1,,,,,0,,,53,24
84060,note_off,,,,,8,0,1,,,,,0,,,82,0
84080,note_off,,,,,20,0,1,,,,,0,,,58,0
84084,note_off,,,,,4,0,1,,,,,0,,,53,0
84108,note_on,,,,,24,0,1,,,,,0,,,63,23
84164,note_on,,,,,0,0,1,,,,,0,,,58,32
84164,note_off,,,,,56,0,1,,,,,0,,,63,0
84176,note_on,,,,,12,0,1,,,,,0,,,53,24
84204,note_off,,,,,28,0,1,,,,,0,,,58,0
84208,note_off,,,,,4,0,1,,,,,0,,,53,0
84216,note_on,,,,,8,0,1,,,,,0,,,63,36
84248,set_tempo,,,,,284,1,0,,600000,,,,,,,
84268,note_on,,,,,52,0,1,,,,,0,,,82,76
84272,note_on,,,,,0,0,1,,,,,0,,,58,39
84272,note_on,,,,,4,0,1,,,,,0,,,70,59
84276,note_on,,,,,0,0,1,,,,,0,,,53,45
84276,note_off,,,,,4,0,1,,,,,0,,,63,0
84316,note_off,,,,,40,0,1,,,,,0,,,58,0
84328,note_off,,,,,12,0,1,,,,,0,,,53,0
84328,note_on,,,,,0,0,1,,,,,0,,,63,38
84380,note_off,,,,,52,0,1,,,,,0,,,63,0
84380,note_on,,,,,0,0,1,,,,,0,,,58,37
84388,note_on,,,,,8,0,1,,,,,0,,,53,36
84416,note_off,,,,,0,0,1,,,,,0,,,53,0
84416,note_off,,,,,28,0,1,,,,,0,,,58,0
84428,note_on,,,,,12,0,1,,,,,0,,,63,42
84480,note_off,,,,,52,0,1,,,,,0,,,63,0
84480,note_on,,,,,0,0,1,,,,,0,,,58,40
84488,note_on,,,,,8,0,1,,,,,0,,,53,44
84520,note_off,,,,,32,0,1,,,,,0,,,58,0
84532,note_off,,,,,12,0,1,,,,,0,,,53,0
84544,note_on,,,,,12,0,1,,,,,0,,,63,43
84596,note_off,,,,,52,0,1,,,,,0,,,63,0
84600,note_on,,,,,4,0,1,,,,,0,,,58,37
84616,note_on,,,,,16,0,1,,,,,0,,,53,35
84640,note_off,,,,,24,0,1,,,,,0,,,58,0
84652,note_off,,,,,12,0,1,,,,,0,,,53,0
84652,note_on,,,,,0,0,1,,,,,0,,,63,49
84708,note_off,,,,,56,0,1,,,,,0,,,63,0
84732,note_on,,,,,24,0,1,,,,,0,,,58,34
84748,note_on,,,,,0,0,1,,,,,0,,,56,44
84748,note_on,,,,,16,0,1,,,,,0,,,53,34
84752,control_change,,,,,4,0,1,,,64,104,0,,,,
84760,control_change,,,,,8,0,1,,,64,56,0,,,,
84768,control_change,,,,,8,0,1,,,64,0,0,,,,
84796,note_off,,,,,28,0,1,,,,,0,,,58,0
84796,control_change,,,,,0,0,1,,,64,40,0,,,,
84796,note_off,,,,,0,0,1,,,,,0,,,56,0
84804,note_on,,,,,8,0,1,,,,,0,,,62,48
84804,control_change,,,,,0,0,1,,,64,127,0,,,,
84808,note_off,,,,,4,0,1,,,,,0,,,53,0
84852,note_off,,,,,44,0,1,,,,,0,,,62,0
84856,note_on,,,,,4,0,1,,,,,0,,,58,38
84860,note_on,,,,,4,0,1,,,,,0,,,56,38
84868,note_on,,,,,8,0,1,,,,,0,,,53,44
84900,note_off,,,,,0,0,1,,,,,0,,,53,0
84900,note_off,,,,,32,0,1,,,,,0,,,58,0
84904,note_off,,,,,4,0,1,,,,,0,,,56,0
84916,note_on,,,,,12,0,1,,,,,0,,,62,45
84964,note_off,,,,,48,0,1,,,,,0,,,62,0
84968,note_on,,,,,4,0,1,,,,,0,,,56,36
84972,note_on,,,,,4,0,1,,,,,0,,,58,29
84976,note_on,,,,,4,0,1,,,,,0,,,53,30
85008,note_off,,,,,32,0,1,,,,,0,,,58,0
85012,note_off,,,,,4,0,1,,,,,0,,,56,0
85024,note_off,,,,,12,0,1,,,,,0,,,53,0
85024,note_on,,,,,0,0,1,,,,,0,,,62,48
85076,note_off,,,,,52,0,1,,,,,0,,,62,0
85084,note_on,,,,,8,0,1,,,,,0,,,58,34
85088,note_on,,,,,4,0,1,,,,,0,,,56,31
85092,note_on,,,,,4,0,1,,,,,0,,,53,32
85128,note_off,,,,,36,0,1,,,,,0,,,58,0
85136,note_off,,,,,8,0,1,,,,,0,,,56,0
85144,note_on,,,,,8,0,1,,,,,0,,,62,41
85152,note_off,,,,,8,0,1,,,,,0,,,53,0
85160,note_off,,,,,8,0,1,,,,,0,,,70,0
85184,note_off,,,,,24,0,1,,,,,0,,,82,0
85240,note_off,,,,,56,0,1,,,,,0,,,62,0
85240,note_on,,,,,0,0,1,,,,,0,,,82,63
85240,note_on,,,,,0,0,1,,,,,0,,,58,36
85244,note_on,,,,,0,0,1,,,,,0,,,56,38
85244,note_on,,,,,4,0,1,,,,,0,,,70,56
85260,note_on,,,,,16,0,1,,,,,0,,,53,47
85288,note_off,,,,,28,0,1,,,,,0,,,58,0
85292,note_off,,,,,4,0,1,,,,,0,,,56,0
85300,note_on,,,,,0,0,1,,,,,0,,,62,32
85300,note_off,,,,,8,0,1,,,,,0,,,53,0
85376,note_off,,,,,76,0,1,,,,,0,,,62,0
85376,note_on,,,,,0,0,1,,,,,0,,,58,38
85380,note_on,,,,,4,0,1,,,,,0,,,53,49
85380,note_on,,,,,0,0,1,,,,,0,,,56,36
85424,note_off,,,,,44,0,1,,,,,0,,,58,0
85428,note_off,,,,,4,0,1,,,,,0,,,56,0
85432,note_off,,,,,4,0,1,,,,,0,,,53,0
85440,note_on,,,,,8,0,1,,,,,0,,,62,30
85496,note_off,,,,,56,0,1,,,,,0,,,62,0
85500,note_on,,,,,0,0,1,,,,,0,,,56,36
85500,note_on,,,,,4,0,1,,,,,0,,,58,34
85504,note_on,,,,,4,0,1,,,,,0,,,53,35
85552,note_off,,,,,0,0,1,,,,,0,,,56,0
85552,note_off,,,,,48,0,1,,,,,0,,,58,0
85564,note_off,,,,,12,0,1,,,,,0,,,53,0
85572,note_on,,,,,8,0,1,,,,,0,,,62,26
85632,note_on,,,,,0,0,1,,,,,0,,,58,32
85632,note_off,,,,,60,0,1,,,,,0,,,62,0
85640,note_on,,,,,8,0,1,,,,,0,,,53,29
85644,note_on,,,,,4,0,1,,,,,0,,,56,37
85708,note_off,,,,,64,0,1,,,,,0,,,58,0
85712,note_off,,,,,4,0,1,,,,,0,,,56,0
85728,note_on,,,,,16,0,1,,,,,0,,,62,36
85732,note_off,,,,,4,0,1,,,,,0,,,53,0
85780,note_off,,,,,48,0,1,,,,,0,,,62,0
85800,note_off,,,,,20,0,1,,,,,0,,,70,0
85808,note_off,,,,,8,0,1,,,,,0,,,82,0
85980,end_of_track,,,,,0,1,0,,,,,,,,,
85980,note_on,,,,,172,0,1,,,,,0,,,39,51
85980,set_tempo,,,,,1732,1,0,,560747,,,,,,,
86004,control_change,,,,,24,0,1,,,64,104,0,,,,
86012,control_change,,,,,8,0,1,,,64,24,0,,,,
86020,control_change,,,,,8,0,1,,,64,0,0,,,,
86092,control_change,,,,,72,0,1,,,64,104,0,,,,
86100,control_change,,,,,8,0,1,,,64,127,0,,,,
86112,note_on,,,,,12,0,1,,,,,0,,,46,39
86176,note_off,,,,,64,0,1,,,,,0,,,46,0
86196,note_on,,,,,20,0,1,,,,,0,,,51,43
86228,note_off,,,,,32,0,1,,,,,0,,,39,0
86256,note_off,,,,,28,0,1,,,,,0,,,51,0
86272,note_on,,,,,16,0,1,,,,,0,,,55,44
86324,note_off,,,,,52,0,1,,,,,0,,,55,0
86344,note_on,,,,,20,0,1,,,,,0,,,58,40
86420,note_on,,,,,0,0,1,,,,,0,,,63,51
86420,note_off,,,,,76,0,1,,,,,0,,,58,0
86488,note_off,,,,,68,0,1,,,,,0,,,63,0
86504,note_on,,,,,16,0,1,,,,,0,,,67,55
86556,note_off,,,,,52,0,1,,,,,0,,,67,0
86576,note_on,,,,,20,0,1,,,,,0,,,70,55
86640,note_off,,,,,64,0,1,,,,,0,,,70,0
86644,note_on,,,,,4,0,1,,,,,0,,,75,65
86724,note_on,,,,,0,0,1,,,,,0,,,79,75
86724,note_off,,,,,80,0,1,,,,,0,,,75,0
86792,note_off,,,,,68,0,1,,,,,0,,,79,0
86804,note_on,,,,,12,0,1,,,,,0,,,75,56
86888,note_on,,,,,84,0,1,,,,,0,,,70,55
86892,note_off,,,,,4,0,1,,,,,0,,,75,0
86944,note_off,,,,,52,0,1,,,,,0,,,70,0
86976,note_on,,,,,32,0,1,,,,,0,,,67,44
87052,note_off,,,,,76,0,1,,,,,0,,,67,0
87056,note_on,,,,,4,0,1,,,,,0,,,63,42
87144,note_off,,,,,88,0,1,,,,,0,,,63,0
87156,note_on,,,,,12,0,1,,,,,0,,,58,39
87216,note_off,,,,,60,0,1,,,,,0,,,58,0
87240,note_on,,,,,24,0,1,,,,,0,,,55,56
87312,note_off,,,,,72,0,1,,,,,0,,,55,0
87316,note_on,,,,,4,0,1,,,,,0,,,51,48
87376,note_off,,,,,60,0,1,,,,,0,,,51,0
87392,note_on,,,,,16,0,1,,,,,0,,,46,35
87456,note_off,,,,,64,0,1,,,,,0,,,46,0
87480,note_on,,,,,24,0,1,,,,,0,,,39,37
87540,note_off,,,,,60,0,1,,,,,0,,,39,0
87752,note_on,,,,,212,0,1,,,,,0,,,94,77
87760,note_on,,,,,8,0,1,,,,,0,,,82,54
87824,note_off,,,,,64,0,1,,,,,0,,,82,0
87844,note_off,,,,,20,0,1,,,,,0,,,94,0
87896,note_on,,,,,52,0,1,,,,,0,,,94,72
87900,note_on,,,,,4,0,1,,,,,0,,,92,79
87900,note_on,,,,,0,0,1,,,,,0,,,82,69
87912,note_on,,,,,12,0,1,,,,,0,,,39,55
87924,control_change,,,,,12,0,1,,,64,56,0,,,,
87932,control_change,,,,,8,0,1,,,64,0,0,,,,
87984,control_change,,,,,52,0,1,,,64,72,0,,,,
87992,control_change,,,,,8,0,1,,,64,127,0,,,,
87996,note_off,,,,,4,0,1,,,,,0,,,39,0
88008,note_on,,,,,12,0,1,,,,,0,,,46,42
88076,note_off,,,,,68,0,1,,,,,0,,,46,0
88088,note_on,,,,,12,0,1,,,,,0,,,50,56
88132,note_off,,,,,44,0,1,,,,,0,,,50,0
88152,note_on,,,,,20,0,1,,,,,0,,,56,44
88228,note_off,,,,,76,0,1,,,,,0,,,56,0
88236,note_on,,,,,8,0,1,,,,,0,,,58,45
88316,note_off,,,,,80,0,1,,,,,0,,,58,0
88324,note_on,,,,,8,0,1,,,,,0,,,62,37
88376,note_off,,,,,52,0,1,,,,,0,,,62,0
88400,note_on,,,,,24,0,1,,,,,0,,,68,48
88468,note_off,,,,,68,0,1,,,,,0,,,68,0
88476,note_on,,,,,8,0,1,,,,,0,,,70,50
88516,note_off,,,,,40,0,1,,,,,0,,,70,0
88552,note_on,,,,,36,0,1,,,,,0,,,74,61
88636,note_off,,,,,0,0,1,,,,,0,,,74,0
88636,note_off,,,,,84,0,1,,,,,0,,,92,0
88640,note_on,,,,,0,0,1,,,,,0,,,80,69
88640,note_off,,,,,4,0,1,,,,,0,,,82,0
88692,note_off,,,,,52,0,1,,,,,0,,,80,0
88708,note_on,,,,,16,0,1,,,,,0,,,74,62
88712,note_off,,,,,4,0,1,,,,,0,,,94,0
88752,note_on,,,,,0,0,1,,,,,0,,,94,69
88752,note_on,,,,,40,0,1,,,,,0,,,91,74
88756,note_on,,,,,4,0,1,,,,,0,,,82,56
88796,note_on,,,,,0,0,1,,,,,0,,,70,46
88796,note_off,,,,,40,0,1,,,,,0,,,74,0
88812,note_off,,,,,16,0,1,,,,,0,,,94,0
88812,note_off,,,,,0,0,1,,,,,0,,,82,0
88820,note_off,,,,,8,0,1,,,,,0,,,91,0
88856,note_off,,,,,36,0,1,,,,,0,,,70,0
88896,note_on,,,,,40,0,1,,,,,0,,,94,74
88896,note_on,,,,,0,0,1,,,,,0,,,68,48
88900,note_on,,,,,4,0,1,,,,,0,,,82,58
88904,note_on,,,,,4,0,1,,,,,0,,,89,73
88976,note_off,,,,,72,0,1,,,,,0,,,68,0
88996,note_on,,,,,20,0,1,,,,,0,,,62,53
89068,note_off,,,,,72,0,1,,,,,0,,,62,0
89072,note_on,,,,,4,0,1,,,,,0,,,58,42
89116,note_off,,,,,44,0,1,,,,,0,,,58,0
89148,note_on,,,,,32,0,1,,,,,0,,,56,51
89212,note_off,,,,,64,0,1,,,,,0,,,56,0
89236,note_on,,,,,24,0,1,,,,,0,,,50,54
89304,note_off,,,,,68,0,1,,,,,0,,,50,0
89320,note_on,,,,,16,0,1,,,,,0,,,46,37
89396,note_off,,,,,76,0,1,,,,,0,,,46,0
89408,note_on,,,,,12,0,1,,,,,0,,,39,40
89500,note_off,,,,,92,0,1,,,,,0,,,39,0
89612,note_off,,,,,112,0,1,,,,,0,,,82,0
89612,note_off,,,,,0,0,1,,,,,0,,,94,0
89644,note_off,,,,,32,0,1,,,,,0,,,89,0
89744,note_on,,,,,100,0,1,,,,,0,,,94,65
89744,note_on,,,,,0,0,1,,,,,0,,,82,53
89744,note_on,,,,,0,0,1,,,,,0,,,91,68
89852,note_off,,,,,108,0,1,,,,,0,,,91,0
89856,note_off,,,,,4,0,1,,,,,0,,,94,0
89864,note_off,,,,,8,0,1,,,,,0,,,82,0
89908,note_on,,,,,44,0,1,,,,,0,,,94,63
89912,note_on,,,,,4,0,1,,,,,0,,,82,46
89916,note_on,,,,,4,0,1,,,,,0,,,87,62
89928,note_on,,,,,12,0,1,,,,,0,,,39,48
89956,control_change,,,,,28,0,1,,,64,88,0,,,,
89960,control_change,,,,,4,0,1,,,64,0,0,,,,
90020,control_change,,,,,60,0,1,,,64,56,0,,,,
90028,control_change,,,,,8,0,1,,,64,127,0,,,,
90048,note_off,,,,,20,0,1,,,,,0,,,39,0
90052,note_on,,,,,4,0,1,,,,,0,,,46,33
90100,note_off,,,,,48,0,1,,,,,0,,,46,0
90120,note_on,,,,,20,0,1,,,,,0,,,51,40
90172,note_off,,,,,52,0,1,,,,,0,,,51,0
90192,note_on,,,,,20,0,1,,,,,0,,,55,46
90236,note_off,,,,,44,0,1,,,,,0,,,55,0
90264,note_on,,,,,28,0,1,,,,,0,,,58,39
90328,note_off,,,,,64,0,1,,,,,0,,,58,0
90332,note_on,,,,,4,0,1,,,,,0,,,63,49
90400,note_off,,,,,68,0,1,,,,,0,,,63,0
90408,note_on,,,,,8,0,1,,,,,0,,,67,52
90468,note_off,,,,,60,0,1,,,,,0,,,67,0
90480,note_on,,,,,12,0,1,,,,,0,,,70,50
90532,note_off,,,,,52,0,1,,,,,0,,,70,0
90544,note_on,,,,,12,0,1,,,,,0,,,75,62
90612,note_off,,,,,68,0,1,,,,,0,,,75,0
90624,note_on,,,,,12,0,1,,,,,0,,,79,62
90672,note_off,,,,,48,0,1,,,,,0,,,79,0
90684,note_on,,,,,12,0,1,,,,,0,,,75,48
90752,note_off,,,,,68,0,1,,,,,0,,,75,0
90764,note_on,,,,,12,0,1,,,,,0,,,70,36
90808,note_off,,,,,44,0,1,,,,,0,,,70,0
90844,note_on,,,,,36,0,1,,,,,0,,,67,41
90896,note_off,,,,,52,0,1,,,,,0,,,67,0
90912,note_on,,,,,16,0,1,,,,,0,,,63,36
90988,note_off,,,,,76,0,1,,,,,0,,,63,0
90996,note_on,,,,,8,0,1,,,,,0,,,58,29
91048,note_off,,,,,52,0,1,,,,,0,,,58,0
91104,note_on,,,,,56,0,1,,,,,0,,,55,32
91140,note_off,,,,,36,0,1,,,,,0,,,55,0
91164,note_on,,,,,24,0,1,,,,,0,,,51,44
91220,note_off,,,,,56,0,1,,,,,0,,,51,0
91252,note_on,,,,,32,0,1,,,,,0,,,46,28
91284,note_off,,,,,32,0,1,,,,,0,,,94,0
91316,note_off,,,,,32,0,1,,,,,0,,,87,0
91328,note_off,,,,,12,0,1,,,,,0,,,82,0
91336,note_off,,,,,8,0,1,,,,,0,,,46,0
91356,note_on,,,,,20,0,1,,,,,0,,,39,28
91448,note_off,,,,,92,0,1,,,,,0,,,39,0
91788,note_on,,,,,340,0,1,,,,,0,,,63,72
91812,control_change,,,,,24,0,1,,,64,24,0,,,,
91820,control_change,,,,,8,0,1,,,64,40,0,,,,
91832,control_change,,,,,12,0,1,,,64,56,0,,,,
91876,control_change,,,,,44,0,1,,,64,40,0,,,,
91884,control_change,,,,,8,0,1,,,64,0,0,,,,
91888,note_off,,,,,4,0,1,,,,,0,,,63,0
91900,note_on,,,,,12,0,1,,,,,0,,,61,76
91912,note_on,,,,,12,0,1,,,,,0,,,54,55
91920,note_on,,,,,8,0,1,,,,,0,,,51,49
91928,control_change,,,,,8,0,1,,,64,56,0,,,,
91932,control_change,,,,,4,0,1,,,64,104,0,,,,
91944,control_change,,,,,12,0,1,,,64,127,0,,,,
91972,note_off,,,,,0,0,1,,,,,0,,,51,0
91972,note_off,,,,,28,0,1,,,,,0,,,54,0
91996,note_on,,,,,24,0,1,,,,,0,,,57,39
92020,note_off,,,,,24,0,1,,,,,0,,,57,0
92056,note_on,,,,,36,0,1,,,,,0,,,54,43
92068,note_on,,,,,12,0,1,,,,,0,,,51,34
92096,note_off,,,,,28,0,1,,,,,0,,,54,0
92104,note_off,,,,,8,0,1,,,,,0,,,51,0
92120,note_on,,,,,16,0,1,,,,,0,,,57,34
92172,note_off,,,,,52,0,1,,,,,0,,,57,0
92176,note_on,,,,,4,0,1,,,,,0,,,54,40
92184,note_on,,,,,8,0,1,,,,,0,,,51,35
92212,note_off,,,,,28,0,1,,,,,0,,,54,0
92220,note_off,,,,,8,0,1,,,,,0,,,51,0
92236,note_on,,,,,16,0,1,,,,,0,,,57,40
92292,note_off,,,,,56,0,1,,,,,0,,,57,0
92296,note_on,,,,,0,0,1,,,,,0,,,54,39
92296,note_on,,,,,4,0,1,,,,,0,,,51,39
92332,note_off,,,,,0,0,1,,,,,0,,,54,0
92332,note_off,,,,,36,0,1,,,,,0,,,51,0
92352,note_on,,,,,20,0,1,,,,,0,,,57,41
92400,note_on,,,,,0,0,1,,,,,0,,,54,40
92400,note_on,,,,,0,0,1,,,,,0,,,51,43
92400,note_off,,,,,48,0,1,,,,,0,,,57,0
92436,note_off,,,,,36,0,1,,,,,0,,,51,0
92440,note_off,,,,,4,0,1,,,,,0,,,54,0
92460,note_on,,,,,20,0,1,,,,,0,,,57,43
92508,note_on,,,,,0,0,1,,,,,0,,,54,38
92508,note_on,,,,,48,0,1,,,,,0,,,51,38
92512,note_off,,,,,4,0,1,,,,,0,,,57,0
92544,note_off,,,,,32,0,1,,,,,0,,,54,0
92552,note_off,,,,,8,0,1,,,,,0,,,51,0
92564,note_on,,,,,12,0,1,,,,,0,,,57,46
92600,note_off,,,,,36,0,1,,,,,0,,,57,0
92620,note_on,,,,,0,0,1,,,,,0,,,54,38
92620,note_on,,,,,20,0,1,,,,,0,,,51,38
92656,note_off,,,,,36,0,1,,,,,0,,,54,0
92660,note_off,,,,,4,0,1,,,,,0,,,51,0
92676,note_on,,,,,16,0,1,,,,,0,,,57,42
92716,note_on,,,,,40,0,1,,,,,0,,,60,79
92724,note_off,,,,,8,0,1,,,,,0,,,61,0
92728,note_off,,,,,4,0,1,,,,,0,,,57,0
92732,note_on,,,,,0,0,1,,,,,0,,,54,38
92732,note_on,,,,,4,0,1,,,,,0,,,51,35
92768,note_off,,,,,36,0,1,,,,,0,,,54,0
92772,note_off,,,,,4,0,1,,,,,0,,,51,0
92788,note_on,,,,,16,0,1,,,,,0,,,57,35
92840,control_change,,,,,0,0,1,,,64,72,0,,,,
92840,note_off,,,,,52,0,1,,,,,0,,,57,0
92844,control_change,,,,,4,0,1,,,64,0,0,,,,
92848,note_on,,,,,0,0,1,,,,,0,,,54,50
92848,note_off,,,,,4,0,1,,,,,0,,,60,0
92848,note_on,,,,,0,0,1,,,,,0,,,59,81
92852,note_on,,,,,4,0,1,,,,,0,,,51,46
92888,note_off,,,,,36,0,1,,,,,0,,,54,0
92896,note_off,,,,,8,0,1,,,,,0,,,51,0
92896,control_change,,,,,0,0,1,,,64,56,0,,,,
92900,note_on,,,,,4,0,1,,,,,0,,,57,36
92904,control_change,,,,,4,0,1,,,64,127,0,,,,
92952,note_off,,,,,48,0,1,,,,,0,,,57,0
92952,note_on,,,,,0,0,1,,,,,0,,,51,39
92956,note_on,,,,,4,0,1,,,,,0,,,54,39
92992,note_off,,,,,36,0,1,,,,,0,,,54,0
93000,note_off,,,,,8,0,1,,,,,0,,,51,0
93012,note_on,,,,,12,0,1,,,,,0,,,57,41
93052,note_on,,,,,0,0,1,,,,,0,,,51,45
93052,note_off,,,,,40,0,1,,,,,0,,,57,0
93060,note_on,,,,,8,0,1,,,,,0,,,54,35
93096,note_off,,,,,36,0,1,,,,,0,,,54,0
93100,note_off,,,,,4,0,1,,,,,0,,,51,0
93112,note_on,,,,,12,0,1,,,,,0,,,57,42
93160,note_on,,,,,48,0,1,,,,,0,,,51,40
93164,note_off,,,,,4,0,1,,,,,0,,,57,0
93164,note_on,,,,,0,0,1,,,,,0,,,54,42
93204,note_off,,,,,0,0,1,,,,,0,,,54,0
93204,note_off,,,,,40,0,1,,,,,0,,,51,0
93224,note_on,,,,,20,0,1,,,,,0,,,57,42
93240,note_off,,,,,16,0,1,,,,,0,,,59,0
93252,note_off,,,,,12,0,1,,,,,0,,,57,0
93268,note_on,,,,,16,0,1,,,,,0,,,51,43
93272,note_on,,,,,4,0,1,,,,,0,,,54,40
93312,note_off,,,,,40,0,1,,,,,0,,,54,0
93316,note_off,,,,,4,0,1,,,,,0,,,51,0
93332,note_on,,,,,16,0,1,,,,,0,,,57,43
93376,note_off,,,,,44,0,1,,,,,0,,,57,0
93384,note_on,,,,,8,0,1,,,,,0,,,51,38
93392,note_on,,,,,8,0,1,,,,,0,,,54,33
93428,note_off,,,,,36,0,1,,,,,0,,,51,0
93428,note_off,,,,,0,0,1,,,,,0,,,54,0
93436,note_on,,,,,8,0,1,,,,,0,,,57,43
93480,note_off,,,,,44,0,1,,,,,0,,,57,0
93496,note_on,,,,,16,0,1,,,,,0,,,54,31
93500,note_on,,,,,4,0,1,,,,,0,,,51,31
93540,note_off,,,,,40,0,1,,,,,0,,,54,0
93548,note_off,,,,,8,0,1,,,,,0,,,51,0
93556,note_on,,,,,8,0,1,,,,,0,,,57,42
93592,note_off,,,,,36,0,1,,,,,0,,,57,0
93928,control_change,,,,,336,0,1,,,64,104,0,,,,
93936,control_change,,,,,0,0,1,,,64,72,0,,,,
93936,note_on,,,,,8,0,1,,,,,0,,,39,48
93944,control_change,,,,,8,0,1,,,64,24,0,,,,
93952,control_change,,,,,8,0,1,,,64,0,0,,,,
94016,control_change,,,,,64,0,1,,,64,56,0,,,,
94024,control_change,,,,,8,0,1,,,64,127,0,,,,
94068,note_off,,,,,44,0,1,,,,,0,,,39,0
94080,note_on,,,,,12,0,1,,,,,0,,,46,27
94140,note_off,,,,,60,0,1,,,,,0,,,46,0
94152,note_on,,,,,12,0,1,,,,,0,,,51,43
94212,note_off,,,,,60,0,1,,,,,0,,,51,0
94236,note_on,,,,,24,0,1,,,,,0,,,55,36
94276,note_off,,,,,40,0,1,,,,,0,,,55,0
94308,note_on,,,,,32,0,1,,,,,0,,,58,38
94384,note_off,,,,,76,0,1,,,,,0,,,58,0
94388,note_on,,,,,4,0,1,,,,,0,,,63,46
94464,note_off,,,,,76,0,1,,,,,0,,,63,0
94476,note_on,,,,,12,0,1,,,,,0,,,67,49
94544,note_off,,,,,68,0,1,,,,,0,,,67,0
94552,note_on,,,,,8,0,1,,,,,0,,,70,54
94616,note_off,,,,,64,0,1,,,,,0,,,70,0
94628,note_on,,,,,12,0,1,,,,,0,,,75,57
94700,note_off,,,,,72,0,1,,,,,0,,,75,0
94712,note_on,,,,,12,0,1,,,,,0,,,79,65
94764,note_off,,,,,52,0,1,,,,,0,,,79,0
94784,note_on,,,,,20,0,1,,,,,0,,,75,56
94864,note_off,,,,,80,0,1,,,,,0,,,75,0
94864,note_on,,,,,0,0,1,,,,,0,,,70,49
94920,note_off,,,,,56,0,1,,,,,0,,,70,0
94952,note_on,,,,,32,0,1,,,,,0,,,67,42
95004,note_off,,,,,52,0,1,,,,,0,,,67,0
95028,note_on,,,,,24,0,1,,,,,0,,,63,38
95104,note_off,,,,,76,0,1,,,,,0,,,63,0
95104,note_on,,,,,0,0,1,,,,,0,,,58,38
95156,note_off,,,,,52,0,1,,,,,0,,,58,0
95192,note_on,,,,,36,0,1,,,,,0,,,55,48
95240,note_off,,,,,48,0,1,,,,,0,,,55,0
95272,note_on,,,,,32,0,1,,,,,0,,,51,40
95336,note_off,,,,,64,0,1,,,,,0,,,51,0
95376,note_on,,,,,40,0,1,,,,,0,,,46,31
95456,note_off,,,,,80,0,1,,,,,0,,,46,0
95472,note_on,,,,,16,0,1,,,,,0,,,39,33
95536,note_off,,,,,64,0,1,,,,,0,,,39,0
95656,note_on,,,,,0,0,1,,,,,0,,,82,59
95656,note_on,,,,,120,0,1,,,,,0,,,94,75
95736,note_off,,,,,80,0,1,,,,,0,,,82,0
95748,note_off,,,,,12,0,1,,,,,0,,,94,0
95808,note_on,,,,,0,0,1,,,,,0,,,92,76
95808,note_on,,,,,60,0,1,,,,,0,,,94,70
95808,note_on,,,,,0,0,1,,,,,0,,,82,65
95832,note_on,,,,,24,0,1,,,,,0,,,39,45
95848,control_change,,,,,16,0,1,,,64,88,0,,,,
95852,control_change,,,,,4,0,1,,,64,0,0,,,,
95904,control_change,,,,,52,0,1,,,64,72,0,,,,
95908,note_off,,,,,4,0,1,,,,,0,,,39,0
95912,control_change,,,,,4,0,1,,,64,127,0,,,,
95920,note_on,,,,,8,0,1,,,,,0,,,46,46
95984,note_off,,,,,64,0,1,,,,,0,,,46,0
96000,note_on,,,,,16,0,1,,,,,0,,,50,56
96048,note_off,,,,,48,0,1,,,,,0,,,50,0
96068,note_on,,,,,20,0,1,,,,,0,,,56,36
96152,note_off,,,,,84,0,1,,,,,0,,,56,0
96156,note_on,,,,,4,0,1,,,,,0,,,58,43
96240,note_off,,,,,84,0,1,,,,,0,,,58,0
96248,note_on,,,,,8,0,1,,,,,0,,,62,43
96304,note_off,,,,,56,0,1,,,,,0,,,62,0
96324,note_on,,,,,20,0,1,,,,,0,,,68,60
96400,note_off,,,,,76,0,1,,,,,0,,,68,0
96400,note_on,,,,,0,0,1,,,,,0,,,70,48
96472,note_off,,,,,72,0,1,,,,,0,,,70,0
96476,note_on,,,,,4,0,1,,,,,0,,,74,67
96560,note_off,,,,,84,0,1,,,,,0,,,74,0
96564,note_on,,,,,4,0,1,,,,,0,,,80,67
96584,note_off,,,,,20,0,1,,,,,0,,,82,0
96612,note_off,,,,,0,0,1,,,,,0,,,80,0
96612,note_off,,,,,28,0,1,,,,,0,,,92,0
96636,note_on,,,,,0,0,1,,,,,0,,,74,58
96636,note_off,,,,,24,0,1,,,,,0,,,94,0
96680,note_on,,,,,44,0,1,,,,,0,,,94,67
96684,note_on,,,,,0,0,1,,,,,0,,,82,56
96684,note_on,,,,,4,0,1,,,,,0,,,91,74
96732,note_on,,,,,0,0,1,,,,,0,,,70,49
96732,note_off,,,,,48,0,1,,,,,0,,,74,0
96748,note_off,,,,,16,0,1,,,,,0,,,82,0
96756,note_off,,,,,0,0,1,,,,,0,,,91,0
96756,note_off,,,,,8,0,1,,,,,0,,,94,0
96792,note_off,,,,,36,0,1,,,,,0,,,70,0
96824,note_on,,,,,32,0,1,,,,,0,,,94,75
96824,note_on,,,,,0,0,1,,,,,0,,,68,46
96828,note_on,,,,,4,0,1,,,,,0,,,82,55
96832,note_on,,,,,4,0,1,,,,,0,,,89,73
96892,note_off,,,,,60,0,1,,,,,0,,,68,0
96928,note_on,,,,,36,0,1,,,,,0,,,62,43
96996,note_off,,,,,68,0,1,,,,,0,,,62,0
97000,note_on,,,,,4,0,1,,,,,0,,,58,44
97044,note_off,,,,,44,0,1,,,,,0,,,58,0
97076,note_on,,,,,32,0,1,,,,,0,,,56,38
97140,note_off,,,,,64,0,1,,,,,0,,,56,0
97164,note_on,,,,,24,0,1,,,,,0,,,50,59
97228,note_off,,,,,64,0,1,,,,,0,,,50,0
97236,note_on,,,,,8,0,1,,,,,0,,,46,44
97316,note_off,,,,,80,0,1,,,,,0,,,46,0
97324,note_on,,,,,8,0,1,,,,,0,,,39,35
97444,note_off,,,,,120,0,1,,,,,0,,,39,0
97512,note_off,,,,,68,0,1,,,,,0,,,82,0
97528,note_off,,,,,16,0,1,,,,,0,,,94,0
97592,note_off,,,,,64,0,1,,,,,0,,,89,0
97632,note_on,,,,,0,0,1,,,,,0,,,82,47
97632,note_on,,,,,40,0,1,,,,,0,,,94,58
97632,note_on,,,,,0,0,1,,,,,0,,,91,62
97736,note_off,,,,,0,0,1,,,,,0,,,82,0
97736,note_off,,,,,104,0,1,,,,,0,,,94,0
97740,note_off,,,,,4,0,1,,,,,0,,,91,0
97792,note_on,,,,,52,0,1,,,,,0,,,82,36
97824,note_on,,,,,32,0,1,,,,,0,,,87,64
97856,note_on,,,,,32,0,1,,,,,0,,,39,34
97860,control_change,,,,,4,0,1,,,64,56,0,,,,
97868,control_change,,,,,8,0,1,,,64,0,0,,,,
97892,note_on,,,,,24,0,1,,,,,0,,,94,55
97928,control_change,,,,,36,0,1,,,64,88,0,,,,
97936,control_change,,,,,8,0,1,,,64,127,0,,,,
98000,note_off,,,,,64,0,1,,,,,0,,,39,0
98012,note_on,,,,,12,0,1,,,,,0,,,46,40
98080,note_off,,,,,68,0,1,,,,,0,,,46,0
98084,note_on,,,,,4,0,1,,,,,0,,,51,44
98152,note_off,,,,,68,0,1,,,,,0,,,51,0
98164,note_on,,,,,12,0,1,,,,,0,,,55,51
98224,note_off,,,,,60,0,1,,,,,0,,,55,0
98236,note_on,,,,,12,0,1,,,,,0,,,58,45
98292,note_off,,,,,56,0,1,,,,,0,,,82,0
98292,note_off,,,,,0,0,1,,,,,0,,,87,0
98308,note_off,,,,,16,0,1,,,,,0,,,94,0
98316,note_off,,,,,8,0,1,,,,,0,,,58,0
98316,note_on,,,,,0,0,1,,,,,0,,,63,44
98388,note_off,,,,,72,0,1,,,,,0,,,63,0
98400,note_on,,,,,12,0,1,,,,,0,,,67,55
98476,note_off,,,,,76,0,1,,,,,0,,,67,0
98476,note_on,,,,,0,0,1,,,,,0,,,70,56
98544,note_off,,,,,68,0,1,,,,,0,,,70,0
98552,note_on,,,,,8,0,1,,,,,0,,,75,64
98632,note_off,,,,,80,0,1,,,,,0,,,75,0
98640,note_on,,,,,8,0,1,,,,,0,,,79,62
98692,note_off,,,,,52,0,1,,,,,0,,,79,0
98712,note_on,,,,,20,0,1,,,,,0,,,75,53
98788,note_off,,,,,76,0,1,,,,,0,,,75,0
98792,note_on,,,,,4,0,1,,,,,0,,,70,45
98844,note_off,,,,,52,0,1,,,,,0,,,70,0
98884,note_on,,,,,40,0,1,,,,,0,,,67,48
98936,note_off,,,,,52,0,1,,,,,0,,,67,0
98960,note_on,,,,,24,0,1,,,,,0,,,63,40
99036,note_off,,,,,76,0,1,,,,,0,,,63,0
99040,note_on,,,,,4,0,1,,,,,0,,,58,33
99088,note_off,,,,,48,0,1,,,,,0,,,58,0
99132,note_on,,,,,44,0,1,,,,,0,,,55,49
99168,note_off,,,,,36,0,1,,,,,0,,,55,0
99204,note_on,,,,,36,0,1,,,,,0,,,51,44
99272,note_off,,,,,68,0,1,,,,,0,,,51,0
99292,note_on,,,,,20,0,1,,,,,0,,,46,29
99388,note_off,,,,,96,0,1,,,,,0,,,46,0
99408,note_on,,,,,20,0,1,,,,,0,,,39,31
99544,note_off,,,,,136,0,1,,,,,0,,,39,0
99824,note_on,,,,,280,0,1,,,,,0,,,63,77
99920,note_off,,,,,96,0,1,,,,,0,,,63,0
99940,note_on,,,,,20,0,1,,,,,0,,,61,86
99956,note_on,,,,,16,0,1,,,,,0,,,54,51
99960,note_on,,,,,4,0,1,,,,,0,,,51,51
99964,control_change,,,,,4,0,1,,,64,40,0,,,,
99972,control_change,,,,,8,0,1,,,64,0,0,,,,
100012,note_off,,,,,40,0,1,,,,,0,,,54,0
100016,control_change,,,,,4,0,1,,,64,72,0,,,,
100020,note_off,,,,,4,0,1,,,,,0,,,51,0
100024,control_change,,,,,4,0,1,,,64,127,0,,,,
100044,note_on,,,,,20,0,1,,,,,0,,,57,30
100088,note_on,,,,,0,0,1,,,,,0,,,54,44
100088,note_off,,,,,44,0,1,,,,,0,,,57,0
100096,note_on,,,,,8,0,1,,,,,0,,,51,36
100124,note_off,,,,,28,0,1,,,,,0,,,54,0
100136,note_off,,,,,12,0,1,,,,,0,,,51,0
100148,note_on,,,,,12,0,1,,,,,0,,,57,37
100208,note_on,,,,,0,0,1,,,,,0,,,54,42
100208,note_on,,,,,60,0,1,,,,,0,,,51,38
100212,note_off,,,,,4,0,1,,,,,0,,,57,0
100248,note_off,,,,,36,0,1,,,,,0,,,54,0
100256,note_off,,,,,8,0,1,,,,,0,,,51,0
100268,note_on,,,,,12,0,1,,,,,0,,,57,41
100324,note_off,,,,,56,0,1,,,,,0,,,57,0
100332,note_on,,,,,0,0,1,,,,,0,,,51,47
100332,note_on,,,,,8,0,1,,,,,0,,,54,45
100368,note_off,,,,,36,0,1,,,,,0,,,54,0
100376,note_off,,,,,8,0,1,,,,,0,,,51,0
100388,note_on,,,,,12,0,1,,,,,0,,,57,39
100440,note_off,,,,,52,0,1,,,,,0,,,57,0
100440,note_on,,,,,0,0,1,,,,,0,,,51,44
100440,note_on,,,,,0,0,1,,,,,0,,,54,42
100476,note_off,,,,,36,0,1,,,,,0,,,54,0
100484,note_off,,,,,8,0,1,,,,,0,,,51,0
100496,note_on,,,,,12,0,1,,,,,0,,,57,42
100536,note_off,,,,,40,0,1,,,,,0,,,57,0
100544,note_on,,,,,0,0,1,,,,,0,,,54,38
100544,note_on,,,,,8,0,1,,,,,0,,,51,42
100580,note_off,,,,,36,0,1,,,,,0,,,54,0
100588,note_off,,,,,8,0,1,,,,,0,,,51,0
100604,note_on,,,,,16,0,1,,,,,0,,,57,42
100652,note_off,,,,,48,0,1,,,,,0,,,57,0
100660,note_on,,,,,8,0,1,,,,,0,,,51,44
100664,note_on,,,,,4,0,1,,,,,0,,,54,37
100692,note_off,,,,,28,0,1,,,,,0,,,54,0
100700,note_off,,,,,8,0,1,,,,,0,,,51,0
100712,note_on,,,,,12,0,1,,,,,0,,,57,44
100760,note_off,,,,,48,0,1,,,,,0,,,57,0
100768,note_on,,,,,0,0,1,,,,,0,,,54,33
100768,note_on,,,,,0,0,1,,,,,0,,,51,38
100768,note_off,,,,,8,0,1,,,,,0,,,61,0
100768,note_on,,,,,0,0,1,,,,,0,,,60,81
100804,note_off,,,,,36,0,1,,,,,0,,,54,0
100808,note_off,,,,,4,0,1,,,,,0,,,51,0
100824,note_on,,,,,16,0,1,,,,,0,,,57,31
100872,note_off,,,,,48,0,1,,,,,0,,,57,0
100888,note_on,,,,,16,0,1,,,,,0,,,59,78
100892,note_on,,,,,0,0,1,,,,,0,,,54,37
100892,note_off,,,,,4,0,1,,,,,0,,,60,0
100896,note_on,,,,,4,0,1,,,,,0,,,51,42
100904,control_change,,,,,8,0,1,,,64,56,0,,,,
100912,control_change,,,,,8,0,1,,,64,0,0,,,,
100932,note_off,,,,,20,0,1,,,,,0,,,54,0
100944,note_off,,,,,12,0,1,,,,,0,,,51,0
100948,control_change,,,,,0,0,1,,,64,40,0,,,,
100948,note_on,,,,,4,0,1,,,,,0,,,57,43
100956,control_change,,,,,8,0,1,,,64,127,0,,,,
100996,note_off,,,,,40,0,1,,,,,0,,,57,0
101004,note_on,,,,,8,0,1,,,,,0,,,54,40
101008,note_on,,,,,4,0,1,,,,,0,,,51,43
101020,note_off,,,,,12,0,1,,,,,0,,,59,0
101040,note_off,,,,,20,0,1,,,,,0,,,54,0
101048,note_off,,,,,8,0,1,,,,,0,,,51,0
101060,note_on,,,,,12,0,1,,,,,0,,,57,39
101112,note_on,,,,,0,0,1,,,,,0,,,54,37
101112,note_off,,,,,52,0,1,,,,,0,,,57,0
101116,note_on,,,,,4,0,1,,,,,0,,,51,38
101148,note_off,,,,,32,0,1,,,,,0,,,54,0
101156,note_off,,,,,8,0,1,,,,,0,,,51,0
101168,note_on,,,,,12,0,1,,,,,0,,,57,37
101220,note_off,,,,,52,0,1,,,,,0,,,57,0
101224,note_on,,,,,4,0,1,,,,,0,,,54,34
101224,note_on,,,,,0,0,1,,,,,0,,,51,37
101264,note_off,,,,,40,0,1,,,,,0,,,54,0
101268,note_off,,,,,4,0,1,,,,,0,,,51,0
101280,note_on,,,,,12,0,1,,,,,0,,,57,40
101340,note_on,,,,,0,0,1,,,,,0,,,51,33
101340,note_off,,,,,60,0,1,,,,,0,,,57,0
101344,note_on,,,,,4,0,1,,,,,0,,,54,32
101380,note_off,,,,,36,0,1,,,,,0,,,54,0
101388,note_off,,,,,8,0,1,,,,,0,,,51,0
101400,note_on,,,,,12,0,1,,,,,0,,,57,32
101460,note_off,,,,,60,0,1,,,,,0,,,57,0
101468,note_on,,,,,8,0,1,,,,,0,,,51,23
101472,note_on,,,,,4,0,1,,,,,0,,,54,27
101520,note_off,,,,,48,0,1,,,,,0,,,54,0
101524,note_off,,,,,4,0,1,,,,,0,,,51,0
101548,note_on,,,,,24,0,1,,,,,0,,,57,41
101592,note_on,,,,,44,0,1,,,,,0,,,51,34
101596,note_off,,,,,4,0,1,,,,,0,,,57,0
101600,note_on,,,,,4,0,1,,,,,0,,,54,25
101640,note_off,,,,,40,0,1,,,,,0,,,54,0
101644,note_off,,,,,4,0,1,,,,,0,,,51,0
101708,note_on,,,,,64,0,1,,,,,0,,,51,73
101756,control_change,,,,,48,0,1,,,64,127,0,,,,
101816,note_off,,,,,60,0,1,,,,,0,,,51,0
101832,control_change,,,,,16,0,1,,,64,88,0,,,,
101840,control_change,,,,,0,0,1,,,64,24,0,,,,
101840,note_on,,,,,8,0,1,,,,,0,,,49,69
101848,note_on,,,,,8,0,1,,,,,0,,,51,20
101848,control_change,,,,,0,0,1,,,64,0,0,,,,
101856,note_on,,,,,8,0,1,,,,,0,,,45,47
101888,note_off,,,,,32,0,1,,,,,0,,,45,0
101904,control_change,,,,,16,0,1,,,64,56,0,,,,
101908,control_change,,,,,0,0,1,,,64,88,0,,,,
101908,note_off,,,,,4,0,1,,,,,0,,,51,0
101916,control_change,,,,,8,0,1,,,64,127,0,,,,
101976,note_on,,,,,60,0,1,,,,,0,,,51,31
101980,note_on,,,,,4,0,1,,,,,0,,,45,22
102004,note_off,,,,,24,0,1,,,,,0,,,45,0
102008,note_off,,,,,4,0,1,,,,,0,,,51,0
102016,note_on,,,,,8,0,1,,,,,0,,,54,26
102040,note_off,,,,,24,0,1,,,,,0,,,54,0
102080,note_on,,,,,40,0,1,,,,,0,,,51,46
102088,note_on,,,,,8,0,1,,,,,0,,,45,47
102108,note_off,,,,,20,0,1,,,,,0,,,45,0
102112,note_off,,,,,4,0,1,,,,,0,,,51,0
102132,note_on,,,,,20,0,1,,,,,0,,,54,27
102176,note_on,,,,,0,0,1,,,,,0,,,51,47
102176,note_off,,,,,44,0,1,,,,,0,,,54,0
102188,note_on,,,,,0,0,1,,,,,0,,,45,40
102188,note_off,,,,,12,0,1,,,,,0,,,49,0
102208,note_off,,,,,20,0,1,,,,,0,,,45,0
102212,note_off,,,,,4,0,1,,,,,0,,,51,0
102292,note_on,,,,,80,0,1,,,,,0,,,51,37
102292,note_on,,,,,0,0,1,,,,,0,,,45,39
102324,note_off,,,,,32,0,1,,,,,0,,,45,0
102328,note_off,,,,,4,0,1,,,,,0,,,51,0
102344,note_on,,,,,16,0,1,,,,,0,,,54,23
102392,note_off,,,,,48,0,1,,,,,0,,,54,0
102396,note_on,,,,,4,0,1,,,,,0,,,51,47
102400,note_on,,,,,4,0,1,,,,,0,,,45,53
102432,note_off,,,,,32,0,1,,,,,0,,,45,0
102436,note_off,,,,,4,0,1,,,,,0,,,51,0
102456,note_on,,,,,20,0,1,,,,,0,,,54,23
102504,note_off,,,,,48,0,1,,,,,0,,,54,0
102508,note_on,,,,,4,0,1,,,,,0,,,51,51
102520,note_on,,,,,12,0,1,,,,,0,,,45,33
102540,note_off,,,,,20,0,1,,,,,0,,,51,0
102544,note_off,,,,,4,0,1,,,,,0,,,45,0
102556,note_on,,,,,12,0,1,,,,,0,,,54,33
102584,note_off,,,,,28,0,1,,,,,0,,,54,0
102612,note_on,,,,,28,0,1,,,,,0,,,48,74
102628,note_on,,,,,16,0,1,,,,,0,,,51,30
102644,note_off,,,,,16,0,1,,,,,0,,,51,0
102672,note_on,,,,,28,0,1,,,,,0,,,54,25
102696,note_off,,,,,24,0,1,,,,,0,,,54,0
102724,note_off,,,,,28,0,1,,,,,0,,,48,0
102744,note_on,,,,,20,0,1,,,,,0,,,47,76
102748,control_change,,,,,4,0,1,,,64,88,0,,,,
102756,note_on,,,,,0,0,1,,,,,0,,,45,28
102756,control_change,,,,,0,0,1,,,64,40,0,,,,
102756,note_on,,,,,8,0,1,,,,,0,,,51,34
102764,control_change,,,,,8,0,1,,,64,0,0,,,,
102784,note_off,,,,,20,0,1,,,,,0,,,45,0
102792,note_off,,,,,8,0,1,,,,,0,,,51,0
102932,control_change,,,,,140,0,1,,,64,24,0,,,,
102940,control_change,,,,,8,0,1,,,64,56,0,,,,
102948,control_change,,,,,8,0,1,,,64,72,0,,,,
102968,control_change,,,,,20,0,1,,,64,0,0,,,,
102996,control_change,,,,,28,0,1,,,64,24,0,,,,
103004,control_change,,,,,8,0,1,,,64,72,0,,,,
103012,control_change,,,,,8,0,1,,,64,127,0,,,,
103160,note_off,,,,,148,0,1,,,,,0,,,47,0
103528,note_on,,,,,368,0,1,,,,,0,,,39,43
103648,note_off,,,,,120,0,1,,,,,0,,,39,0
103652,note_on,,,,,4,0,1,,,,,0,,,37,56
103664,control_change,,,,,0,0,1,,,64,56,0,,,,
103664,note_on,,,,,12,0,1,,,,,0,,,42,35
103672,control_change,,,,,8,0,1,,,64,0,0,,,,
103676,note_on,,,,,4,0,1,,,,,0,,,45,38
103712,note_off,,,,,0,0,1,,,,,0,,,45,0
103712,note_off,,,,,36,0,1,,,,,0,,,42,0
103720,control_change,,,,,0,0,1,,,64,56,0,,,,
103720,note_on,,,,,8,0,1,,,,,0,,,51,25
103728,control_change,,,,,8,0,1,,,64,127,0,,,,
103744,note_off,,,,,16,0,1,,,,,0,,,51,0
103784,note_on,,,,,40,0,1,,,,,0,,,42,35
103792,note_on,,,,,8,0,1,,,,,0,,,45,29
103816,note_off,,,,,24,0,1,,,,,0,,,45,0
103820,note_off,,,,,4,0,1,,,,,0,,,42,0
103828,note_on,,,,,8,0,1,,,,,0,,,51,22
103880,note_off,,,,,52,0,1,,,,,0,,,51,0
103904,note_on,,,,,24,0,1,,,,,0,,,45,26
103928,note_off,,,,,24,0,1,,,,,0,,,45,0
103940,note_on,,,,,12,0,1,,,,,0,,,51,26
103972,note_off,,,,,32,0,1,,,,,0,,,51,0
104016,note_on,,,,,44,0,1,,,,,0,,,45,33
104020,note_on,,,,,4,0,1,,,,,0,,,42,18
104040,note_off,,,,,20,0,1,,,,,0,,,45,0
104048,note_off,,,,,8,0,1,,,,,0,,,42,0
104052,note_on,,,,,4,0,1,,,,,0,,,51,22
104112,note_off,,,,,60,0,1,,,,,0,,,51,0
104124,note_on,,,,,12,0,1,,,,,0,,,42,26
104132,note_on,,,,,8,0,1,,,,,0,,,45,36
104168,note_off,,,,,36,0,1,,,,,0,,,42,0
104168,note_off,,,,,0,0,1,,,,,0,,,45,0
104184,note_on,,,,,16,0,1,,,,,0,,,51,17
104236,note_off,,,,,52,0,1,,,,,0,,,51,0
104240,note_on,,,,,4,0,1,,,,,0,,,42,26
104248,note_on,,,,,8,0,1,,,,,0,,,45,36
104276,note_off,,,,,28,0,1,,,,,0,,,45,0
104284,note_off,,,,,8,0,1,,,,,0,,,42,0
104368,note_on,,,,,84,0,1,,,,,0,,,42,30
104372,note_on,,,,,4,0,1,,,,,0,,,45,39
104404,note_off,,,,,32,0,1,,,,,0,,,37,0
104408,note_off,,,,,4,0,1,,,,,0,,,45,0
104420,note_off,,,,,12,0,1,,,,,0,,,42,0
104428,note_on,,,,,8,0,1,,,,,0,,,51,28
104488,note_off,,,,,60,0,1,,,,,0,,,51,0
104500,note_on,,,,,12,0,1,,,,,0,,,36,56
104500,note_on,,,,,0,0,1,,,,,0,,,42,23
104516,note_on,,,,,16,0,1,,,,,0,,,45,24
104540,note_off,,,,,24,0,1,,,,,0,,,45,0
104552,note_off,,,,,12,0,1,,,,,0,,,42,0
104568,note_on,,,,,16,0,1,,,,,0,,,51,22
104628,note_off,,,,,60,0,1,,,,,0,,,51,0
104672,note_off,,,,,44,0,1,,,,,0,,,36,0
104680,note_on,,,,,8,0,1,,,,,0,,,35,55
104748,control_change,,,,,68,0,1,,,64,72,0,,,,
104756,control_change,,,,,8,0,1,,,64,0,0,,,,
104816,control_change,,,,,60,0,1,,,64,40,0,,,,
104820,control_change,,,,,4,0,1,,,64,88,0,,,,
104828,control_change,,,,,8,0,1,,,64,127,0,,,,
104900,control_change,,,,,72,0,1,,,64,104,0,,,,
104904,control_change,,,,,4,0,1,,,64,72,0,,,,
104912,control_change,,,,,8,0,1,,,64,56,0,,,,
104944,control_change,,,,,32,0,1,,,64,104,0,,,,
104948,control_change,,,,,4,0,1,,,64,127,0,,,,
104976,control_change,,,,,28,0,1,,,64,88,0,,,,
104984,control_change,,,,,8,0,1,,,64,56,0,,,,
104992,control_change,,,,,8,0,1,,,64,40,0,,,,
105000,control_change,,,,,8,0,1,,,64,0,0,,,,
105020,control_change,,,,,20,0,1,,,64,56,0,,,,
105028,control_change,,,,,8,0,1,,,64,104,0,,,,
105032,control_change,,,,,4,0,1,,,64,127,0,,,,
105104,control_change,,,,,72,0,1,,,64,88,0,,,,
105112,control_change,,,,,8,0,1,,,64,56,0,,,,
105120,control_change,,,,,8,0,1,,,64,24,0,,,,
105128,control_change,,,,,8,0,1,,,64,0,0,,,,
105156,control_change,,,,,28,0,1,,,64,40,0,,,,
105160,control_change,,,,,4,0,1,,,64,88,0,,,,
105168,control_change,,,,,8,0,1,,,64,127,0,,,,
105304,note_off,,,,,136,0,1,,,,,0,,,35,0
105460,control_change,,,,,156,0,1,,,64,72,0,,,,
105468,control_change,,,,,8,0,1,,,64,24,0,,,,
105476,control_change,,,,,8,0,1,,,64,0,0,,,,
105476,end_of_track,,,,,0,1,1,,,,,,,,,
