tick,type,numerator,denominator,clocks_per_click,notated_32nd_notes_per_beat,time,meta,track,key,tempo,port,program,channel,control,value,note,velocity
0,control_change,,,,,0,0,1,,,,,0,7,120,,
0,set_tempo,,,,,0,1,0,,857142,,,,,,,
0,program_change,,,,,0,0,3,,,,0,2,,,,
0,program_change,,,,,0,0,2,,,,0,1,,,,
0,program_change,,,,,0,0,1,,,,42,0,,,,
0,midi_port,,,,,0,1,3,,,0,,,,,,
0,midi_port,,,,,0,1,2,,,0,,,,,,
0,midi_port,,,,,0,1,1,,,0,,,,,,
0,key_signature,,,,,0,1,0,F,,,,,,,,
0,control_change,,,,,0,0,3,,,,,2,10,64,,
0,control_change,,,,,0,0,3,,,,,2,7,105,,
0,time_signature,3,4,24,8,0,1,0,,,,,,,,,
0,control_change,,,,,0,0,2,,,,,1,7,127,,
0,control_change,,,,,0,0,2,,,,,1,10,64,,
0,control_change,,,,,0,0,1,,,,,0,10,64,,
120,text,,,,,0,1,1,,,,,,,,,
120,text,,,,,120,1,1,,,,,,,,,
120,control_change,,,,,0,0,3,,,,,2,91,88,,
120,control_change,,,,,0,0,3,,,,,2,11,75,,
120,control_change,,,,,0,0,2,,,,,1,11,75,,
120,control_change,,,,,0,0,2,,,,,1,91,88,,
120,text,,,,,0,1,1,,,,,,,,,
120,control_change,,,,,0,0,1,,,,,0,91,88,,
120,text,,,,,0,1,1,,,,,,,,,
120,control_change,,,,,0,0,1,,,,,0,11,75,,
120,control_change,,,,,120,0,2,,,,,1,64,127,,
120,note_on,,,,,0,0,3,,,,,2,,,50,101
120,note_on,,,,,0,0,3,,,,,2,,,38,101
120,control_change,,,,,120,0,3,,,,,2,64,127,,
180,note_on,,,,,0,0,2,,,,,1,,,62,101
180,note_on,,,,,60,0,2,,,,,1,,,57,101
203,note_on,,,,,23,0,2,,,,,1,,,62,0
203,note_on,,,,,0,0,2,,,,,1,,,57,0
240,note_on,,,,,0,0,2,,,,,1,,,65,101
240,note_on,,,,,37,0,2,,,,,1,,,62,101
263,note_on,,,,,0,0,2,,,,,1,,,62,0
263,note_on,,,,,23,0,2,,,,,1,,,65,0
300,note_on,,,,,37,0,2,,,,,1,,,57,101
300,note_on,,,,,0,0,2,,,,,1,,,62,101
323,note_on,,,,,23,0,2,,,,,1,,,62,0
323,note_on,,,,,0,0,2,,,,,1,,,57,0
345,note_on,,,,,225,0,3,,,,,2,,,50,0
345,note_on,,,,,0,0,3,,,,,2,,,38,0
360,note_on,,,,,37,0,2,,,,,1,,,62,101
360,note_on,,,,,0,0,2,,,,,1,,,65,101
383,note_on,,,,,0,0,2,,,,,1,,,62,0
383,note_on,,,,,23,0,2,,,,,1,,,65,0
420,note_on,,,,,0,0,2,,,,,1,,,62,101
420,note_on,,,,,37,0,2,,,,,1,,,57,101
443,note_on,,,,,23,0,2,,,,,1,,,62,0
443,note_on,,,,,0,0,2,,,,,1,,,57,0
456,control_change,,,,,13,0,2,,,,,1,64,0,,
456,control_change,,,,,111,0,3,,,,,2,64,0,,
480,note_on,,,,,0,0,3,,,,,2,,,34,101
480,note_on,,,,,0,0,3,,,,,2,,,46,101
480,control_change,,,,,24,0,3,,,,,2,64,127,,
480,control_change,,,,,24,0,2,,,,,1,64,127,,
540,note_on,,,,,0,0,2,,,,,1,,,62,101
540,note_on,,,,,60,0,2,,,,,1,,,58,101
563,note_on,,,,,23,0,2,,,,,1,,,62,0
563,note_on,,,,,0,0,2,,,,,1,,,58,0
600,note_on,,,,,37,0,2,,,,,1,,,62,101
600,note_on,,,,,0,0,2,,,,,1,,,65,101
623,note_on,,,,,0,0,2,,,,,1,,,62,0
623,note_on,,,,,23,0,2,,,,,1,,,65,0
660,note_on,,,,,37,0,2,,,,,1,,,58,101
660,note_on,,,,,0,0,2,,,,,1,,,62,101
683,note_on,,,,,23,0,2,,,,,1,,,62,0
683,note_on,,,,,0,0,2,,,,,1,,,58,0
705,note_on,,,,,225,0,3,,,,,2,,,46,0
705,note_on,,,,,0,0,3,,,,,2,,,34,0
720,note_on,,,,,0,0,2,,,,,1,,,65,101
720,note_on,,,,,37,0,2,,,,,1,,,62,101
743,note_on,,,,,0,0,2,,,,,1,,,62,0
743,note_on,,,,,23,0,2,,,,,1,,,65,0
780,note_on,,,,,0,0,2,,,,,1,,,62,101
780,note_on,,,,,37,0,2,,,,,1,,,58,101
803,note_on,,,,,23,0,2,,,,,1,,,62,0
803,note_on,,,,,0,0,2,,,,,1,,,58,0
816,control_change,,,,,13,0,2,,,,,1,64,0,,
816,control_change,,,,,111,0,3,,,,,2,64,0,,
840,note_on,,,,,0,0,3,,,,,2,,,31,101
840,control_change,,,,,24,0,2,,,,,1,64,127,,
840,note_on,,,,,0,0,3,,,,,2,,,43,101
840,control_change,,,,,24,0,3,,,,,2,64,127,,
900,note_on,,,,,60,0,2,,,,,1,,,58,101
900,note_on,,,,,0,0,2,,,,,1,,,62,101
923,note_on,,,,,23,0,2,,,,,1,,,62,0
923,note_on,,,,,0,0,2,,,,,1,,,58,0
960,note_on,,,,,37,0,2,,,,,1,,,62,101
960,note_on,,,,,0,0,2,,,,,1,,,64,101
983,note_on,,,,,0,0,2,,,,,1,,,62,0
983,note_on,,,,,23,0,2,,,,,1,,,64,0
1020,note_on,,,,,37,0,2,,,,,1,,,58,101
1020,note_on,,,,,0,0,2,,,,,1,,,62,101
1043,note_on,,,,,23,0,2,,,,,1,,,62,0
1043,note_on,,,,,0,0,2,,,,,1,,,58,0
1065,note_on,,,,,0,0,3,,,,,2,,,31,0
1065,note_on,,,,,225,0,3,,,,,2,,,43,0
1080,note_on,,,,,0,0,2,,,,,1,,,64,101
1080,note_on,,,,,37,0,2,,,,,1,,,62,101
1103,note_on,,,,,0,0,2,,,,,1,,,62,0
1103,note_on,,,,,23,0,2,,,,,1,,,64,0
1140,note_on,,,,,0,0,2,,,,,1,,,62,101
1140,note_on,,,,,37,0,2,,,,,1,,,58,101
1163,note_on,,,,,23,0,2,,,,,1,,,62,0
1163,note_on,,,,,0,0,2,,,,,1,,,58,0
1176,control_change,,,,,13,0,2,,,,,1,64,0,,
1176,control_change,,,,,111,0,3,,,,,2,64,0,,
1200,control_change,,,,,24,0,2,,,,,1,64,127,,
1200,note_on,,,,,0,0,3,,,,,2,,,45,101
1200,control_change,,,,,24,0,3,,,,,2,64,127,,
1200,note_on,,,,,0,0,3,,,,,2,,,33,101
1200,set_tempo,,,,,1200,1,0,,857142,,,,,,,
1210,set_tempo,,,,,10,1,0,,869565,,,,,,,
1250,set_tempo,,,,,40,1,0,,882352,,,,,,,
1260,note_on,,,,,60,0,2,,,,,1,,,55,101
1260,note_on,,,,,0,0,2,,,,,1,,,61,101
1270,set_tempo,,,,,20,1,0,,895522,,,,,,,
1280,set_tempo,,,,,10,1,0,,909090,,,,,,,
1283,note_on,,,,,0,0,2,,,,,1,,,55,0
1283,note_on,,,,,23,0,2,,,,,1,,,61,0
1290,set_tempo,,,,,10,1,0,,923076,,,,,,,
1310,set_tempo,,,,,20,1,0,,937500,,,,,,,
1320,set_tempo,,,,,10,1,0,,952380,,,,,,,
1320,note_on,,,,,0,0,2,,,,,1,,,64,101
1320,note_on,,,,,37,0,2,,,,,1,,,61,101
1330,set_tempo,,,,,10,1,0,,967741,,,,,,,
1343,note_on,,,,,0,0,2,,,,,1,,,61,0
1343,note_on,,,,,23,0,2,,,,,1,,,64,0
1350,set_tempo,,,,,20,1,0,,983606,,,,,,,
1370,set_tempo,,,,,20,1,0,,1000000,,,,,,,
1380,note_on,,,,,37,0,2,,,,,1,,,55,101
1380,note_on,,,,,0,0,2,,,,,1,,,61,101
1390,set_tempo,,,,,20,1,0,,1016949,,,,,,,
1403,note_on,,,,,0,0,2,,,,,1,,,55,0
1403,note_on,,,,,23,0,2,,,,,1,,,61,0
1420,set_tempo,,,,,30,1,0,,1034482,,,,,,,
1425,note_on,,,,,225,0,3,,,,,2,,,45,0
1425,note_on,,,,,0,0,3,,,,,2,,,33,0
1430,set_tempo,,,,,10,1,0,,1052631,,,,,,,
1440,note_on,,,,,37,0,2,,,,,1,,,61,101
1440,note_on,,,,,0,0,2,,,,,1,,,64,101
1450,set_tempo,,,,,20,1,0,,1071428,,,,,,,
1463,note_on,,,,,0,0,2,,,,,1,,,61,0
1463,note_on,,,,,23,0,2,,,,,1,,,64,0
1490,set_tempo,,,,,40,1,0,,1090909,,,,,,,
1500,note_on,,,,,0,0,2,,,,,1,,,61,101
1500,note_on,,,,,37,0,2,,,,,1,,,55,101
1510,set_tempo,,,,,20,1,0,,1111111,,,,,,,
1520,set_tempo,,,,,10,1,0,,1132075,,,,,,,
1523,note_on,,,,,23,0,2,,,,,1,,,61,0
1523,note_on,,,,,0,0,2,,,,,1,,,55,0
1536,control_change,,,,,13,0,2,,,,,1,64,0,,
1536,control_change,,,,,111,0,3,,,,,2,64,0,,
1550,set_tempo,,,,,30,1,0,,1153846,,,,,,,
1560,note_on,,,,,0,0,3,,,,,2,,,38,101
1560,note_on,,,,,1440,0,1,,,,,0,,,57,101
1560,set_tempo,,,,,10,1,0,,857142,,,,,,,
1560,control_change,,,,,24,0,3,,,,,2,64,127,,
1560,note_on,,,,,0,0,3,,,,,2,,,50,101
1560,control_change,,,,,24,0,2,,,,,1,64,127,,
1595,note_on,,,,,35,0,1,,,,,0,,,57,0
1599,note_on,,,,,4,0,1,,,,,0,,,58,101
1620,note_on,,,,,60,0,2,,,,,1,,,57,101
1620,note_on,,,,,0,0,2,,,,,1,,,62,101
1635,note_on,,,,,36,0,1,,,,,0,,,58,0
1639,note_on,,,,,4,0,1,,,,,0,,,57,101
1672,note_on,,,,,0,0,2,,,,,1,,,57,0
1672,note_on,,,,,52,0,2,,,,,1,,,62,0
1674,note_on,,,,,35,0,1,,,,,0,,,57,0
1680,note_on,,,,,6,0,1,,,,,0,,,62,101
1680,note_on,,,,,8,0,2,,,,,1,,,62,101
1680,note_on,,,,,0,0,2,,,,,1,,,65,101
1732,note_on,,,,,0,0,2,,,,,1,,,62,0
1732,note_on,,,,,52,0,2,,,,,1,,,65,0
1740,note_on,,,,,8,0,2,,,,,1,,,57,101
1740,note_on,,,,,0,0,2,,,,,1,,,62,101
1785,note_on,,,,,225,0,3,,,,,2,,,50,0
1785,note_on,,,,,0,0,3,,,,,2,,,38,0
1792,note_on,,,,,0,0,2,,,,,1,,,57,0
1792,note_on,,,,,52,0,2,,,,,1,,,62,0
1800,note_on,,,,,0,0,2,,,,,1,,,65,101
1800,note_on,,,,,8,0,2,,,,,1,,,62,101
1845,note_on,,,,,165,0,1,,,,,0,,,62,0
1852,note_on,,,,,0,0,2,,,,,1,,,62,0
1852,note_on,,,,,52,0,2,,,,,1,,,65,0
1860,note_on,,,,,0,0,2,,,,,1,,,62,101
1860,note_on,,,,,15,0,1,,,,,0,,,57,101
1860,note_on,,,,,8,0,2,,,,,1,,,57,101
1896,control_change,,,,,111,0,3,,,,,2,64,0,,
1896,control_change,,,,,36,0,2,,,,,1,64,0,,
1912,note_on,,,,,16,0,2,,,,,1,,,62,0
1912,note_on,,,,,0,0,2,,,,,1,,,57,0
1912,note_on,,,,,52,0,1,,,,,0,,,57,0
1920,control_change,,,,,24,0,3,,,,,2,64,127,,
1920,control_change,,,,,8,0,2,,,,,1,64,127,,
1920,note_on,,,,,8,0,1,,,,,0,,,55,101
1920,note_on,,,,,0,0,3,,,,,2,,,46,101
1920,note_on,,,,,0,0,3,,,,,2,,,34,101
1955,note_on,,,,,35,0,1,,,,,0,,,55,0
1959,note_on,,,,,4,0,1,,,,,0,,,57,101
1980,note_on,,,,,0,0,2,,,,,1,,,62,101
1980,note_on,,,,,60,0,2,,,,,1,,,55,101
1995,note_on,,,,,36,0,1,,,,,0,,,57,0
1999,note_on,,,,,4,0,1,,,,,0,,,55,101
2032,note_on,,,,,0,0,2,,,,,1,,,55,0
2032,note_on,,,,,52,0,2,,,,,1,,,62,0
2034,note_on,,,,,35,0,1,,,,,0,,,55,0
2040,note_on,,,,,0,0,2,,,,,1,,,64,101
2040,note_on,,,,,8,0,2,,,,,1,,,62,101
2040,note_on,,,,,6,0,1,,,,,0,,,62,101
2092,note_on,,,,,0,0,2,,,,,1,,,62,0
2092,note_on,,,,,52,0,2,,,,,1,,,64,0
2100,note_on,,,,,0,0,2,,,,,1,,,62,101
2100,note_on,,,,,8,0,2,,,,,1,,,55,101
2145,note_on,,,,,225,0,3,,,,,2,,,46,0
2145,note_on,,,,,105,0,1,,,,,0,,,62,0
2145,note_on,,,,,0,0,3,,,,,2,,,34,0
2152,note_on,,,,,52,0,2,,,,,1,,,62,0
2152,note_on,,,,,0,0,2,,,,,1,,,55,0
2160,note_on,,,,,8,0,2,,,,,1,,,62,101
2160,note_on,,,,,0,0,2,,,,,1,,,64,101
2160,note_on,,,,,15,0,1,,,,,0,,,55,101
2212,note_on,,,,,52,0,1,,,,,0,,,55,0
2212,note_on,,,,,0,0,2,,,,,1,,,62,0
2212,note_on,,,,,52,0,2,,,,,1,,,64,0
2220,note_on,,,,,8,0,2,,,,,1,,,55,101
2220,note_on,,,,,0,0,2,,,,,1,,,62,101
2256,control_change,,,,,111,0,3,,,,,2,64,0,,
2256,control_change,,,,,36,0,2,,,,,1,64,0,,
2272,note_on,,,,,16,0,2,,,,,1,,,62,0
2272,note_on,,,,,0,0,2,,,,,1,,,55,0
2280,note_on,,,,,0,0,3,,,,,2,,,33,101
2280,note_on,,,,,68,0,1,,,,,0,,,57,114
2280,control_change,,,,,8,0,2,,,,,1,64,127,,
2280,note_on,,,,,0,0,3,,,,,2,,,45,101
2280,control_change,,,,,24,0,3,,,,,2,64,127,,
2340,note_on,,,,,60,0,2,,,,,1,,,55,101
2340,note_on,,,,,0,0,2,,,,,1,,,61,101
2392,note_on,,,,,0,0,2,,,,,1,,,55,0
2392,note_on,,,,,52,0,2,,,,,1,,,61,0
2400,note_on,,,,,8,0,2,,,,,1,,,61,101
2400,note_on,,,,,0,0,2,,,,,1,,,64,101
2445,note_on,,,,,165,0,1,,,,,0,,,57,0
2452,note_on,,,,,52,0,2,,,,,1,,,64,0
2452,note_on,,,,,0,0,2,,,,,1,,,61,0
2460,note_on,,,,,15,0,1,,,,,0,,,55,101
2460,note_on,,,,,8,0,2,,,,,1,,,55,101
2460,note_on,,,,,0,0,2,,,,,1,,,61,101
2505,note_on,,,,,0,0,3,,,,,2,,,33,0
2505,note_on,,,,,225,0,3,,,,,2,,,45,0
2512,note_on,,,,,52,0,2,,,,,1,,,61,0
2512,note_on,,,,,52,0,1,,,,,0,,,55,0
2512,note_on,,,,,0,0,2,,,,,1,,,55,0
2520,note_on,,,,,8,0,1,,,,,0,,,55,101
2520,note_on,,,,,8,0,2,,,,,1,,,61,101
2520,note_on,,,,,0,0,2,,,,,1,,,64,101
2555,note_on,,,,,35,0,1,,,,,0,,,55,0
2559,note_on,,,,,4,0,1,,,,,0,,,53,101
2572,note_on,,,,,52,0,2,,,,,1,,,64,0
2572,note_on,,,,,0,0,2,,,,,1,,,61,0
2580,note_on,,,,,8,0,2,,,,,1,,,55,101
2580,note_on,,,,,0,0,2,,,,,1,,,61,101
2595,note_on,,,,,36,0,1,,,,,0,,,53,0
2599,note_on,,,,,4,0,1,,,,,0,,,52,101
2616,control_change,,,,,111,0,3,,,,,2,64,0,,
2616,control_change,,,,,36,0,2,,,,,1,64,0,,
2632,note_on,,,,,0,0,2,,,,,1,,,55,0
2632,note_on,,,,,16,0,2,,,,,1,,,61,0
2634,note_on,,,,,35,0,1,,,,,0,,,52,0
2640,note_on,,,,,0,0,3,,,,,2,,,38,101
2640,note_on,,,,,6,0,1,,,,,0,,,53,101
2640,control_change,,,,,8,0,2,,,,,1,64,127,,
2640,control_change,,,,,24,0,3,,,,,2,64,127,,
2640,note_on,,,,,0,0,3,,,,,2,,,50,101
2700,note_on,,,,,0,0,2,,,,,1,,,62,101
2700,note_on,,,,,60,0,2,,,,,1,,,57,101
2752,note_on,,,,,52,0,2,,,,,1,,,62,0
2752,note_on,,,,,0,0,2,,,,,1,,,57,0
2760,note_on,,,,,0,0,2,,,,,1,,,65,101
2760,note_on,,,,,8,0,2,,,,,1,,,62,101
2812,note_on,,,,,0,0,2,,,,,1,,,62,0
2812,note_on,,,,,52,0,2,,,,,1,,,65,0
2820,note_on,,,,,8,0,2,,,,,1,,,57,101
2820,note_on,,,,,0,0,2,,,,,1,,,62,101
2865,note_on,,,,,0,0,3,,,,,2,,,38,0
2865,note_on,,,,,225,0,1,,,,,0,,,53,0
2865,note_on,,,,,225,0,3,,,,,2,,,50,0
2872,note_on,,,,,0,0,2,,,,,1,,,57,0
2872,note_on,,,,,52,0,2,,,,,1,,,62,0
2880,note_on,,,,,0,0,2,,,,,1,,,65,101
2880,note_on,,,,,8,0,2,,,,,1,,,62,101
2932,note_on,,,,,52,0,2,,,,,1,,,65,0
2932,note_on,,,,,0,0,2,,,,,1,,,62,0
2940,note_on,,,,,0,0,2,,,,,1,,,62,101
2940,note_on,,,,,8,0,2,,,,,1,,,57,101
2976,control_change,,,,,111,0,3,,,,,2,64,0,,
2976,control_change,,,,,36,0,2,,,,,1,64,0,,
2992,note_on,,,,,16,0,2,,,,,1,,,62,0
2992,note_on,,,,,0,0,2,,,,,1,,,57,0
3000,control_change,,,,,24,0,3,,,,,2,64,127,,
3000,note_on,,,,,0,0,2,,,,,1,,,73,101
3000,control_change,,,,,8,0,2,,,,,1,64,127,,
3000,note_on,,,,,0,0,2,,,,,1,,,81,101
3000,note_on,,,,,0,0,3,,,,,2,,,33,101
3000,note_on,,,,,0,0,3,,,,,2,,,45,101
3052,note_on,,,,,52,0,3,,,,,2,,,45,0
3052,note_on,,,,,0,0,3,,,,,2,,,33,0
3060,note_on,,,,,8,0,3,,,,,2,,,57,101
3060,note_on,,,,,0,0,3,,,,,2,,,61,101
3112,note_on,,,,,52,0,3,,,,,2,,,61,0
3112,note_on,,,,,0,0,3,,,,,2,,,57,0
3120,note_on,,,,,8,0,3,,,,,2,,,64,101
3120,note_on,,,,,0,0,3,,,,,2,,,67,101
3165,note_on,,,,,165,0,2,,,,,1,,,81,0
3165,note_on,,,,,0,0,2,,,,,1,,,73,0
3172,note_on,,,,,0,0,3,,,,,2,,,64,0
3172,note_on,,,,,52,0,3,,,,,2,,,67,0
3180,note_on,,,,,0,0,3,,,,,2,,,61,101
3180,note_on,,,,,8,0,3,,,,,2,,,57,101
3180,note_on,,,,,15,0,2,,,,,1,,,76,101
3180,note_on,,,,,0,0,2,,,,,1,,,79,101
3232,note_on,,,,,0,0,2,,,,,1,,,76,0
3232,note_on,,,,,52,0,3,,,,,2,,,61,0
3232,note_on,,,,,0,0,3,,,,,2,,,57,0
3232,note_on,,,,,52,0,2,,,,,1,,,79,0
3240,note_on,,,,,0,0,2,,,,,1,,,79,101
3240,note_on,,,,,8,0,3,,,,,2,,,64,101
3240,note_on,,,,,0,0,3,,,,,2,,,67,101
3240,note_on,,,,,8,0,2,,,,,1,,,76,101
3275,note_on,,,,,0,0,2,,,,,1,,,76,0
3275,note_on,,,,,35,0,2,,,,,1,,,79,0
3279,note_on,,,,,4,0,2,,,,,1,,,74,101
3279,note_on,,,,,0,0,2,,,,,1,,,77,101
3292,note_on,,,,,52,0,3,,,,,2,,,67,0
3292,note_on,,,,,0,0,3,,,,,2,,,64,0
3300,note_on,,,,,0,0,3,,,,,2,,,61,101
3300,note_on,,,,,8,0,3,,,,,2,,,57,101
3315,note_on,,,,,36,0,2,,,,,1,,,77,0
3315,note_on,,,,,0,0,2,,,,,1,,,74,0
3319,note_on,,,,,0,0,2,,,,,1,,,76,101
3319,note_on,,,,,4,0,2,,,,,1,,,73,101
3336,control_change,,,,,36,0,3,,,,,2,64,0,,
3336,control_change,,,,,17,0,2,,,,,1,64,0,,
3352,note_on,,,,,0,0,3,,,,,2,,,57,0
3352,note_on,,,,,16,0,3,,,,,2,,,61,0
3354,note_on,,,,,18,0,2,,,,,1,,,76,0
3354,note_on,,,,,0,0,2,,,,,1,,,73,0
3360,control_change,,,,,8,0,3,,,,,2,64,127,,
3360,note_on,,,,,0,0,2,,,,,1,,,74,101
3360,note_on,,,,,0,0,3,,,,,2,,,38,101
3360,note_on,,,,,0,0,3,,,,,2,,,50,101
3360,control_change,,,,,6,0,2,,,,,1,64,127,,
3360,note_on,,,,,0,0,2,,,,,1,,,77,101
3412,note_on,,,,,0,0,3,,,,,2,,,38,0
3412,note_on,,,,,52,0,3,,,,,2,,,50,0
3420,note_on,,,,,8,0,3,,,,,2,,,57,101
3420,note_on,,,,,0,0,3,,,,,2,,,62,101
3472,note_on,,,,,52,0,3,,,,,2,,,62,0
3472,note_on,,,,,0,0,3,,,,,2,,,57,0
3480,note_on,,,,,8,0,3,,,,,2,,,62,101
3480,note_on,,,,,0,0,3,,,,,2,,,65,101
3532,note_on,,,,,52,0,3,,,,,2,,,65,0
3532,note_on,,,,,0,0,3,,,,,2,,,62,0
3540,note_on,,,,,8,0,3,,,,,2,,,57,101
3540,note_on,,,,,0,0,3,,,,,2,,,62,101
3592,note_on,,,,,0,0,3,,,,,2,,,57,0
3592,note_on,,,,,52,0,3,,,,,2,,,62,0
3600,note_on,,,,,8,0,3,,,,,2,,,62,101
3600,note_on,,,,,0,0,3,,,,,2,,,65,101
3652,note_on,,,,,52,0,3,,,,,2,,,65,0
3652,note_on,,,,,0,0,3,,,,,2,,,62,0
3660,note_on,,,,,0,0,3,,,,,2,,,62,101
3660,note_on,,,,,8,0,3,,,,,2,,,57,101
3696,control_change,,,,,336,0,2,,,,,1,64,0,,
3696,control_change,,,,,36,0,3,,,,,2,64,0,,
3705,note_on,,,,,9,0,2,,,,,1,,,77,0
3705,note_on,,,,,0,0,2,,,,,1,,,74,0
3712,note_on,,,,,0,0,3,,,,,2,,,57,0
3712,note_on,,,,,16,0,3,,,,,2,,,62,0
3720,note_on,,,,,0,0,3,,,,,2,,,38,101
3720,note_on,,,,,0,0,3,,,,,2,,,50,101
3720,control_change,,,,,8,0,3,,,,,2,64,127,,
3720,note_on,,,,,855,0,1,,,,,0,,,57,101
3720,control_change,,,,,15,0,2,,,,,1,64,127,,
3755,note_on,,,,,35,0,1,,,,,0,,,57,0
3759,note_on,,,,,4,0,1,,,,,0,,,58,101
3780,note_on,,,,,0,0,2,,,,,1,,,62,101
3780,note_on,,,,,60,0,2,,,,,1,,,57,101
3795,note_on,,,,,36,0,1,,,,,0,,,58,0
3799,note_on,,,,,4,0,1,,,,,0,,,57,101
3832,note_on,,,,,0,0,2,,,,,1,,,57,0
3832,note_on,,,,,52,0,2,,,,,1,,,62,0
3834,note_on,,,,,35,0,1,,,,,0,,,57,0
3840,note_on,,,,,0,0,2,,,,,1,,,65,101
3840,note_on,,,,,6,0,1,,,,,0,,,65,101
3840,note_on,,,,,8,0,2,,,,,1,,,62,101
3892,note_on,,,,,0,0,2,,,,,1,,,62,0
3892,note_on,,,,,52,0,2,,,,,1,,,65,0
3900,note_on,,,,,0,0,2,,,,,1,,,62,101
3900,note_on,,,,,8,0,2,,,,,1,,,57,101
3945,note_on,,,,,0,0,3,,,,,2,,,38,0
3945,note_on,,,,,225,0,3,,,,,2,,,50,0
3952,note_on,,,,,52,0,2,,,,,1,,,62,0
3952,note_on,,,,,0,0,2,,,,,1,,,57,0
3960,note_on,,,,,0,0,2,,,,,1,,,65,101
3960,note_on,,,,,8,0,2,,,,,1,,,62,101
4005,note_on,,,,,165,0,1,,,,,0,,,65,0
4012,note_on,,,,,52,0,2,,,,,1,,,65,0
4012,note_on,,,,,0,0,2,,,,,1,,,62,0
4020,note_on,,,,,15,0,1,,,,,0,,,57,101
4020,note_on,,,,,0,0,2,,,,,1,,,62,101
4020,note_on,,,,,8,0,2,,,,,1,,,57,101
4056,control_change,,,,,111,0,3,,,,,2,64,0,,
4056,control_change,,,,,36,0,2,,,,,1,64,0,,
4072,note_on,,,,,52,0,1,,,,,0,,,57,0
4072,note_on,,,,,16,0,2,,,,,1,,,62,0
4072,note_on,,,,,0,0,2,,,,,1,,,57,0
4080,control_change,,,,,8,0,2,,,,,1,64,127,,
4080,note_on,,,,,0,0,3,,,,,2,,,34,101
4080,note_on,,,,,0,0,3,,,,,2,,,46,101
4080,note_on,,,,,0,0,1,,,,,0,,,55,101
4080,control_change,,,,,8,0,1,,,,,0,11,75,,
4080,control_change,,,,,24,0,3,,,,,2,64,127,,
4093,control_change,,,,,13,0,1,,,,,0,11,76,,
4107,control_change,,,,,14,0,1,,,,,0,11,77,,
4115,note_on,,,,,8,0,1,,,,,0,,,55,0
4119,note_on,,,,,4,0,1,,,,,0,,,57,101
4121,control_change,,,,,2,0,1,,,,,0,11,78,,
4135,control_change,,,,,14,0,1,,,,,0,11,79,,
4140,note_on,,,,,0,0,2,,,,,1,,,62,101
4140,note_on,,,,,60,0,2,,,,,1,,,55,101
4149,control_change,,,,,14,0,1,,,,,0,11,80,,
4155,note_on,,,,,6,0,1,,,,,0,,,57,0
4159,note_on,,,,,4,0,1,,,,,0,,,55,101
4162,control_change,,,,,3,0,1,,,,,0,11,81,,
4176,control_change,,,,,14,0,1,,,,,0,11,82,,
4190,control_change,,,,,14,0,1,,,,,0,11,83,,
4192,note_on,,,,,52,0,2,,,,,1,,,62,0
4192,note_on,,,,,0,0,2,,,,,1,,,55,0
4194,note_on,,,,,4,0,1,,,,,0,,,55,0
4200,note_on,,,,,0,0,2,,,,,1,,,64,101
4200,note_on,,,,,8,0,2,,,,,1,,,62,101
4200,note_on,,,,,6,0,1,,,,,0,,,64,101
4204,control_change,,,,,4,0,1,,,,,0,11,84,,
4218,control_change,,,,,14,0,1,,,,,0,11,85,,
4232,control_change,,,,,14,0,1,,,,,0,11,86,,
4246,control_change,,,,,14,0,1,,,,,0,11,87,,
4252,note_on,,,,,0,0,2,,,,,1,,,62,0
4252,note_on,,,,,52,0,2,,,,,1,,,64,0
4260,note_on,,,,,0,0,2,,,,,1,,,62,101
4260,control_change,,,,,14,0,1,,,,,0,11,88,,
4260,note_on,,,,,8,0,2,,,,,1,,,55,101
4273,control_change,,,,,13,0,1,,,,,0,11,89,,
4287,control_change,,,,,14,0,1,,,,,0,11,90,,
4301,control_change,,,,,14,0,1,,,,,0,11,91,,
4305,note_on,,,,,225,0,3,,,,,2,,,46,0
4305,note_on,,,,,0,0,3,,,,,2,,,34,0
4312,note_on,,,,,0,0,2,,,,,1,,,55,0
4312,note_on,,,,,52,0,2,,,,,1,,,62,0
4315,control_change,,,,,14,0,1,,,,,0,11,92,,
4320,note_on,,,,,0,0,2,,,,,1,,,64,101
4320,note_on,,,,,8,0,2,,,,,1,,,62,101
4329,control_change,,,,,14,0,1,,,,,0,11,93,,
4342,control_change,,,,,13,0,1,,,,,0,11,94,,
4356,control_change,,,,,14,0,1,,,,,0,11,95,,
4365,note_on,,,,,9,0,1,,,,,0,,,64,0
4370,control_change,,,,,5,0,1,,,,,0,11,96,,
4372,note_on,,,,,52,0,2,,,,,1,,,64,0
4372,note_on,,,,,0,0,2,,,,,1,,,62,0
4380,note_on,,,,,0,0,2,,,,,1,,,62,101
4380,note_on,,,,,8,0,2,,,,,1,,,55,101
4380,note_on,,,,,10,0,1,,,,,0,,,62,101
4384,control_change,,,,,4,0,1,,,,,0,11,97,,
4398,control_change,,,,,14,0,1,,,,,0,11,98,,
4412,control_change,,,,,14,0,1,,,,,0,11,99,,
4416,control_change,,,,,111,0,3,,,,,2,64,0,,
4416,control_change,,,,,36,0,2,,,,,1,64,0,,
4426,control_change,,,,,14,0,1,,,,,0,11,100,,
4432,note_on,,,,,0,0,2,,,,,1,,,55,0
4432,note_on,,,,,16,0,2,,,,,1,,,62,0
4432,note_on,,,,,6,0,1,,,,,0,,,62,0
4440,control_change,,,,,24,0,3,,,,,2,64,127,,
4440,note_on,,,,,0,0,3,,,,,2,,,36,101
4440,control_change,,,,,8,0,1,,,,,0,11,101,,
4440,control_change,,,,,8,0,2,,,,,1,64,127,,
4440,note_on,,,,,0,0,3,,,,,2,,,48,101
4440,note_on,,,,,0,0,1,,,,,0,,,60,101
4440,set_tempo,,,,,2880,1,0,,869565,,,,,,,
4450,set_tempo,,,,,10,1,0,,882352,,,,,,,
4453,control_change,,,,,13,0,1,,,,,0,11,100,,
4460,set_tempo,,,,,10,1,0,,895522,,,,,,,
4467,control_change,,,,,14,0,1,,,,,0,11,99,,
4481,control_change,,,,,14,0,1,,,,,0,11,98,,
4495,control_change,,,,,14,0,1,,,,,0,11,97,,
4500,note_on,,,,,0,0,2,,,,,1,,,60,101
4500,note_on,,,,,60,0,2,,,,,1,,,55,101
4500,note_on,,,,,0,0,2,,,,,1,,,58,101
4509,control_change,,,,,14,0,1,,,,,0,11,96,,
4520,set_tempo,,,,,60,1,0,,909090,,,,,,,
4522,control_change,,,,,13,0,1,,,,,0,11,95,,
4536,control_change,,,,,14,0,1,,,,,0,11,94,,
4550,control_change,,,,,14,0,1,,,,,0,11,93,,
4550,set_tempo,,,,,30,1,0,,923076,,,,,,,
4552,note_on,,,,,0,0,2,,,,,1,,,58,0
4552,note_on,,,,,52,0,2,,,,,1,,,60,0
4552,note_on,,,,,0,0,2,,,,,1,,,55,0
4560,note_on,,,,,0,0,2,,,,,1,,,67,101
4560,note_on,,,,,0,0,2,,,,,1,,,60,101
4560,note_on,,,,,8,0,2,,,,,1,,,58,101
4564,control_change,,,,,14,0,1,,,,,0,11,92,,
4570,set_tempo,,,,,20,1,0,,937500,,,,,,,
4578,control_change,,,,,14,0,1,,,,,0,11,91,,
4580,set_tempo,,,,,10,1,0,,952380,,,,,,,
4592,control_change,,,,,14,0,1,,,,,0,11,90,,
4600,set_tempo,,,,,20,1,0,,967741,,,,,,,
4605,note_on,,,,,13,0,1,,,,,0,,,60,0
4606,control_change,,,,,1,0,1,,,,,0,11,89,,
4612,note_on,,,,,0,0,2,,,,,1,,,60,0
4612,note_on,,,,,52,0,2,,,,,1,,,67,0
4612,note_on,,,,,0,0,2,,,,,1,,,58,0
4620,note_on,,,,,8,0,2,,,,,1,,,55,101
4620,note_on,,,,,0,0,1,,,,,0,,,58,101
4620,note_on,,,,,0,0,2,,,,,1,,,60,101
4620,set_tempo,,,,,20,1,0,,983606,,,,,,,
4620,control_change,,,,,14,0,1,,,,,0,11,88,,
4620,note_on,,,,,0,0,2,,,,,1,,,58,101
4633,control_change,,,,,13,0,1,,,,,0,11,87,,
4640,set_tempo,,,,,20,1,0,,1000000,,,,,,,
4647,control_change,,,,,14,0,1,,,,,0,11,86,,
4650,set_tempo,,,,,10,1,0,,1016949,,,,,,,
4661,control_change,,,,,14,0,1,,,,,0,11,85,,
4665,note_on,,,,,0,0,3,,,,,2,,,36,0
4665,note_on,,,,,225,0,3,,,,,2,,,48,0
4672,note_on,,,,,0,0,2,,,,,1,,,55,0
4672,note_on,,,,,0,0,2,,,,,1,,,58,0
4672,note_on,,,,,52,0,2,,,,,1,,,60,0
4672,note_on,,,,,11,0,1,,,,,0,,,58,0
4675,control_change,,,,,3,0,1,,,,,0,11,84,,
4680,note_on,,,,,8,0,2,,,,,1,,,58,101
4680,note_on,,,,,5,0,1,,,,,0,,,58,101
4680,note_on,,,,,0,0,2,,,,,1,,,67,101
4680,note_on,,,,,0,0,2,,,,,1,,,60,101
4680,set_tempo,,,,,30,1,0,,857142,,,,,,,
4689,control_change,,,,,9,0,1,,,,,0,11,83,,
4702,control_change,,,,,13,0,1,,,,,0,11,82,,
4715,note_on,,,,,13,0,1,,,,,0,,,58,0
4716,control_change,,,,,1,0,1,,,,,0,11,81,,
4719,note_on,,,,,3,0,1,,,,,0,,,57,101
4730,control_change,,,,,11,0,1,,,,,0,11,80,,
4732,note_on,,,,,0,0,2,,,,,1,,,60,0
4732,note_on,,,,,52,0,2,,,,,1,,,67,0
4732,note_on,,,,,0,0,2,,,,,1,,,58,0
4740,note_on,,,,,0,0,2,,,,,1,,,58,101
4740,note_on,,,,,8,0,2,,,,,1,,,55,101
4740,note_on,,,,,0,0,2,,,,,1,,,60,101
4744,control_change,,,,,14,0,1,,,,,0,11,79,,
4755,note_on,,,,,11,0,1,,,,,0,,,57,0
4758,control_change,,,,,3,0,1,,,,,0,11,78,,
4759,note_on,,,,,1,0,1,,,,,0,,,55,101
4772,control_change,,,,,13,0,1,,,,,0,11,77,,
4776,control_change,,,,,111,0,3,,,,,2,64,0,,
4776,control_change,,,,,36,0,2,,,,,1,64,0,,
4786,control_change,,,,,14,0,1,,,,,0,11,76,,
4792,note_on,,,,,0,0,2,,,,,1,,,55,0
4792,note_on,,,,,0,0,2,,,,,1,,,58,0
4792,note_on,,,,,16,0,2,,,,,1,,,60,0
4794,note_on,,,,,8,0,1,,,,,0,,,55,0
4800,control_change,,,,,8,0,2,,,,,1,64,127,,
4800,note_on,,,,,0,0,3,,,,,2,,,29,101
4800,note_on,,,,,6,0,1,,,,,0,,,57,101
4800,control_change,,,,,24,0,3,,,,,2,64,127,,
4800,note_on,,,,,0,0,3,,,,,2,,,41,101
4860,note_on,,,,,0,0,2,,,,,1,,,57,101
4860,note_on,,,,,0,0,2,,,,,1,,,60,101
4860,note_on,,,,,60,0,2,,,,,1,,,53,101
4912,note_on,,,,,52,0,2,,,,,1,,,60,0
4912,note_on,,,,,0,0,2,,,,,1,,,57,0
4912,note_on,,,,,0,0,2,,,,,1,,,53,0
4920,note_on,,,,,0,0,2,,,,,1,,,60,101
4920,note_on,,,,,0,0,2,,,,,1,,,65,101
4920,note_on,,,,,8,0,2,,,,,1,,,57,101
4972,note_on,,,,,52,0,2,,,,,1,,,65,0
4972,note_on,,,,,0,0,2,,,,,1,,,57,0
4972,note_on,,,,,0,0,2,,,,,1,,,60,0
4980,note_on,,,,,8,0,2,,,,,1,,,53,101
4980,note_on,,,,,0,0,2,,,,,1,,,57,101
4980,note_on,,,,,0,0,2,,,,,1,,,60,101
5025,note_on,,,,,225,0,3,,,,,2,,,41,0
5025,note_on,,,,,0,0,3,,,,,2,,,29,0
5025,note_on,,,,,225,0,1,,,,,0,,,57,0
5032,note_on,,,,,0,0,2,,,,,1,,,53,0
5032,note_on,,,,,0,0,2,,,,,1,,,57,0
5032,note_on,,,,,52,0,2,,,,,1,,,60,0
5040,note_on,,,,,0,0,2,,,,,1,,,60,101
5040,note_on,,,,,0,0,2,,,,,1,,,65,101
5040,note_on,,,,,8,0,2,,,,,1,,,57,101
5092,note_on,,,,,52,0,2,,,,,1,,,65,0
5092,note_on,,,,,0,0,2,,,,,1,,,60,0
5092,note_on,,,,,0,0,2,,,,,1,,,57,0
5100,note_on,,,,,8,0,2,,,,,1,,,65,101
5100,note_on,,,,,0,0,2,,,,,1,,,74,101
5136,control_change,,,,,111,0,3,,,,,2,64,0,,
5136,control_change,,,,,36,0,2,,,,,1,64,0,,
5152,note_on,,,,,0,0,2,,,,,1,,,65,0
5152,note_on,,,,,16,0,2,,,,,1,,,74,0
5160,note_on,,,,,0,0,3,,,,,2,,,36,101
5160,control_change,,,,,24,0,3,,,,,2,64,127,,
5160,note_on,,,,,0,0,2,,,,,1,,,64,101
5160,note_on,,,,,0,0,2,,,,,1,,,72,101
5160,control_change,,,,,8,0,2,,,,,1,64,127,,
5170,set_tempo,,,,,490,1,0,,869565,,,,,,,
5180,set_tempo,,,,,10,1,0,,857142,,,,,,,
5200,set_tempo,,,,,20,1,0,,869565,,,,,,,
5210,set_tempo,,,,,10,1,0,,882352,,,,,,,
5212,note_on,,,,,52,0,3,,,,,2,,,36,0
5220,note_on,,,,,8,0,3,,,,,2,,,48,101
5220,note_on,,,,,0,0,3,,,,,2,,,55,101
5230,set_tempo,,,,,20,1,0,,895522,,,,,,,
5250,set_tempo,,,,,20,1,0,,909090,,,,,,,
5260,set_tempo,,,,,10,1,0,,923076,,,,,,,
5272,note_on,,,,,0,0,3,,,,,2,,,48,0
5272,note_on,,,,,52,0,3,,,,,2,,,55,0
5280,note_on,,,,,8,0,3,,,,,2,,,55,101
5280,set_tempo,,,,,20,1,0,,937500,,,,,,,
5280,note_on,,,,,0,0,3,,,,,2,,,58,101
5325,note_on,,,,,165,0,2,,,,,1,,,72,0
5325,note_on,,,,,0,0,2,,,,,1,,,64,0
5330,set_tempo,,,,,50,1,0,,952380,,,,,,,
5332,note_on,,,,,0,0,3,,,,,2,,,55,0
5332,note_on,,,,,52,0,3,,,,,2,,,58,0
5340,note_on,,,,,0,0,3,,,,,2,,,55,101
5340,note_on,,,,,15,0,2,,,,,1,,,67,101
5340,note_on,,,,,8,0,3,,,,,2,,,48,101
5340,note_on,,,,,0,0,2,,,,,1,,,70,101
5360,set_tempo,,,,,30,1,0,,967741,,,,,,,
5380,set_tempo,,,,,20,1,0,,983606,,,,,,,
5390,set_tempo,,,,,10,1,0,,1000000,,,,,,,
5392,note_on,,,,,52,0,2,,,,,1,,,70,0
5392,note_on,,,,,0,0,3,,,,,2,,,48,0
5392,note_on,,,,,0,0,2,,,,,1,,,67,0
5392,note_on,,,,,52,0,3,,,,,2,,,55,0
5400,set_tempo,,,,,10,1,0,,857142,,,,,,,
5400,note_on,,,,,8,0,2,,,,,1,,,67,101
5400,note_on,,,,,0,0,2,,,,,1,,,70,101
5400,note_on,,,,,0,0,3,,,,,2,,,58,101
5400,note_on,,,,,8,0,3,,,,,2,,,55,101
5435,note_on,,,,,35,0,2,,,,,1,,,70,0
5435,note_on,,,,,0,0,2,,,,,1,,,67,0
5439,note_on,,,,,4,0,2,,,,,1,,,65,101
5439,note_on,,,,,0,0,2,,,,,1,,,69,101
5452,note_on,,,,,52,0,3,,,,,2,,,58,0
5452,note_on,,,,,0,0,3,,,,,2,,,55,0
5460,note_on,,,,,8,0,3,,,,,2,,,48,101
5460,note_on,,,,,0,0,3,,,,,2,,,55,101
5475,note_on,,,,,0,0,2,,,,,1,,,65,0
5475,note_on,,,,,36,0,2,,,,,1,,,69,0
5479,note_on,,,,,0,0,2,,,,,1,,,67,101
5479,note_on,,,,,4,0,2,,,,,1,,,64,101
5496,control_change,,,,,17,0,2,,,,,1,64,0,,
5496,control_change,,,,,36,0,3,,,,,2,64,0,,
5512,note_on,,,,,0,0,3,,,,,2,,,48,0
5512,note_on,,,,,16,0,3,,,,,2,,,55,0
5514,note_on,,,,,0,0,2,,,,,1,,,64,0
5514,note_on,,,,,18,0,2,,,,,1,,,67,0
5520,note_on,,,,,0,0,2,,,,,1,,,69,101
5520,note_on,,,,,0,0,2,,,,,1,,,65,101
5520,control_change,,,,,8,0,3,,,,,2,64,127,,
5520,note_on,,,,,0,0,3,,,,,2,,,41,101
5520,control_change,,,,,6,0,2,,,,,1,64,127,,
5572,note_on,,,,,52,0,3,,,,,2,,,41,0
5580,note_on,,,,,0,0,3,,,,,2,,,53,101
5580,note_on,,,,,8,0,3,,,,,2,,,48,101
5632,note_on,,,,,0,0,3,,,,,2,,,48,0
5632,note_on,,,,,52,0,3,,,,,2,,,53,0
5640,note_on,,,,,8,0,3,,,,,2,,,53,101
5640,note_on,,,,,0,0,3,,,,,2,,,57,101
5692,note_on,,,,,52,0,3,,,,,2,,,57,0
5692,note_on,,,,,0,0,3,,,,,2,,,53,0
5700,note_on,,,,,8,0,3,,,,,2,,,48,101
5700,note_on,,,,,0,0,3,,,,,2,,,53,101
5752,note_on,,,,,0,0,3,,,,,2,,,48,0
5752,note_on,,,,,52,0,3,,,,,2,,,53,0
5760,note_on,,,,,8,0,3,,,,,2,,,53,101
5760,note_on,,,,,0,0,3,,,,,2,,,57,101
5812,note_on,,,,,52,0,3,,,,,2,,,57,0
5812,note_on,,,,,0,0,3,,,,,2,,,53,0
5820,note_on,,,,,8,0,3,,,,,2,,,48,101
5820,note_on,,,,,0,0,3,,,,,2,,,53,101
5856,control_change,,,,,336,0,2,,,,,1,64,0,,
5856,control_change,,,,,36,0,3,,,,,2,64,0,,
5865,note_on,,,,,0,0,2,,,,,1,,,65,0
5865,note_on,,,,,9,0,2,,,,,1,,,69,0
5872,note_on,,,,,16,0,3,,,,,2,,,53,0
5872,note_on,,,,,0,0,3,,,,,2,,,48,0
5880,note_on,,,,,0,0,3,,,,,2,,,33,101
5880,control_change,,,,,15,0,2,,,,,1,64,127,,
5880,control_change,,,,,8,0,3,,,,,2,64,127,,
5880,note_on,,,,,0,0,3,,,,,2,,,45,101
5880,note_on,,,,,0,0,1,,,,,0,,,57,101
5880,control_change,,,,,855,0,1,,,,,0,11,75,,
5893,control_change,,,,,13,0,1,,,,,0,11,76,,
5907,control_change,,,,,14,0,1,,,,,0,11,77,,
5921,control_change,,,,,14,0,1,,,,,0,11,78,,
5935,control_change,,,,,14,0,1,,,,,0,11,79,,
5940,note_on,,,,,60,0,2,,,,,1,,,55,101
5940,note_on,,,,,0,0,2,,,,,1,,,57,101
5949,control_change,,,,,14,0,1,,,,,0,11,80,,
5958,note_on,,,,,9,0,1,,,,,0,,,57,0
5962,control_change,,,,,4,0,1,,,,,0,11,81,,
5970,note_on,,,,,8,0,1,,,,,0,,,61,101
5976,control_change,,,,,6,0,1,,,,,0,11,82,,
5990,control_change,,,,,14,0,1,,,,,0,11,83,,
5992,note_on,,,,,52,0,2,,,,,1,,,57,0
5992,note_on,,,,,0,0,2,,,,,1,,,55,0
5996,note_on,,,,,6,0,1,,,,,0,,,61,0
6000,note_on,,,,,4,0,1,,,,,0,,,65,101
6000,note_on,,,,,8,0,2,,,,,1,,,57,101
6000,note_on,,,,,0,0,2,,,,,1,,,61,101
6004,control_change,,,,,4,0,1,,,,,0,11,84,,
6018,control_change,,,,,14,0,1,,,,,0,11,85,,
6032,control_change,,,,,14,0,1,,,,,0,11,86,,
6046,control_change,,,,,14,0,1,,,,,0,11,87,,
6052,note_on,,,,,52,0,2,,,,,1,,,61,0
6052,note_on,,,,,0,0,2,,,,,1,,,57,0
6060,note_on,,,,,8,0,2,,,,,1,,,55,101
6060,control_change,,,,,14,0,1,,,,,0,11,88,,
6060,note_on,,,,,0,0,2,,,,,1,,,57,101
6073,control_change,,,,,13,0,1,,,,,0,11,89,,
6087,control_change,,,,,14,0,1,,,,,0,11,90,,
6101,control_change,,,,,14,0,1,,,,,0,11,91,,
6105,note_on,,,,,225,0,3,,,,,2,,,45,0
6105,note_on,,,,,0,0,3,,,,,2,,,33,0
6112,note_on,,,,,0,0,2,,,,,1,,,55,0
6112,note_on,,,,,52,0,2,,,,,1,,,57,0
6115,control_change,,,,,14,0,1,,,,,0,11,92,,
6120,note_on,,,,,0,0,2,,,,,1,,,61,101
6120,note_on,,,,,8,0,2,,,,,1,,,57,101
6129,control_change,,,,,14,0,1,,,,,0,11,93,,
6142,control_change,,,,,13,0,1,,,,,0,11,94,,
6156,control_change,,,,,14,0,1,,,,,0,11,95,,
6165,note_on,,,,,9,0,1,,,,,0,,,65,0
6170,control_change,,,,,5,0,1,,,,,0,11,96,,
6172,note_on,,,,,52,0,2,,,,,1,,,61,0
6172,note_on,,,,,0,0,2,,,,,1,,,57,0
6180,note_on,,,,,10,0,1,,,,,0,,,64,101
6180,note_on,,,,,8,0,2,,,,,1,,,55,101
6180,note_on,,,,,0,0,2,,,,,1,,,57,101
6184,control_change,,,,,4,0,1,,,,,0,11,97,,
6198,control_change,,,,,14,0,1,,,,,0,11,98,,
6212,control_change,,,,,14,0,1,,,,,0,11,99,,
6216,control_change,,,,,36,0,2,,,,,1,64,0,,
6216,control_change,,,,,111,0,3,,,,,2,64,0,,
6226,control_change,,,,,14,0,1,,,,,0,11,100,,
6232,note_on,,,,,16,0,2,,,,,1,,,57,0
6232,note_on,,,,,6,0,1,,,,,0,,,64,0
6232,note_on,,,,,0,0,2,,,,,1,,,55,0
6240,note_on,,,,,0,0,3,,,,,2,,,38,101
6240,control_change,,,,,8,0,1,,,,,0,11,101,,
6240,note_on,,,,,0,0,1,,,,,0,,,62,101
6240,control_change,,,,,8,0,2,,,,,1,64,127,,
6240,control_change,,,,,24,0,3,,,,,2,64,127,,
6253,control_change,,,,,13,0,1,,,,,0,11,100,,
6267,control_change,,,,,14,0,1,,,,,0,11,99,,
6281,control_change,,,,,14,0,1,,,,,0,11,98,,
6295,control_change,,,,,14,0,1,,,,,0,11,97,,
6300,note_on,,,,,0,0,2,,,,,1,,,57,101
6300,note_on,,,,,60,0,2,,,,,1,,,53,101
6309,control_change,,,,,14,0,1,,,,,0,11,96,,
6318,note_on,,,,,9,0,1,,,,,0,,,62,0
6322,control_change,,,,,4,0,1,,,,,0,11,95,,
6330,note_on,,,,,8,0,1,,,,,0,,,57,101
6336,control_change,,,,,6,0,1,,,,,0,11,94,,
6350,control_change,,,,,14,0,1,,,,,0,11,93,,
6352,note_on,,,,,52,0,2,,,,,1,,,57,0
6352,note_on,,,,,0,0,2,,,,,1,,,53,0
6356,note_on,,,,,6,0,1,,,,,0,,,57,0
6360,note_on,,,,,8,0,2,,,,,1,,,57,101
6360,note_on,,,,,4,0,1,,,,,0,,,53,101
6360,note_on,,,,,0,0,2,,,,,1,,,62,101
6364,control_change,,,,,4,0,1,,,,,0,11,92,,
6378,control_change,,,,,14,0,1,,,,,0,11,91,,
6392,control_change,,,,,14,0,1,,,,,0,11,90,,
6406,control_change,,,,,14,0,1,,,,,0,11,89,,
6412,note_on,,,,,0,0,2,,,,,1,,,57,0
6412,note_on,,,,,52,0,2,,,,,1,,,62,0
6420,note_on,,,,,0,0,2,,,,,1,,,57,101
6420,control_change,,,,,14,0,1,,,,,0,11,88,,
6420,note_on,,,,,8,0,2,,,,,1,,,53,101
6433,control_change,,,,,13,0,1,,,,,0,11,87,,
6447,control_change,,,,,14,0,1,,,,,0,11,86,,
6461,control_change,,,,,14,0,1,,,,,0,11,85,,
6465,note_on,,,,,225,0,3,,,,,2,,,38,0
6472,note_on,,,,,0,0,2,,,,,1,,,53,0
6472,note_on,,,,,52,0,2,,,,,1,,,57,0
6475,control_change,,,,,14,0,1,,,,,0,11,84,,
6480,note_on,,,,,15,0,3,,,,,2,,,50,101
6480,note_on,,,,,0,0,2,,,,,1,,,62,101
6480,note_on,,,,,8,0,2,,,,,1,,,57,101
6489,control_change,,,,,14,0,1,,,,,0,11,83,,
6502,control_change,,,,,13,0,1,,,,,0,11,82,,
6516,control_change,,,,,14,0,1,,,,,0,11,81,,
6525,note_on,,,,,9,0,1,,,,,0,,,53,0
6530,control_change,,,,,5,0,1,,,,,0,11,80,,
6532,note_on,,,,,52,0,2,,,,,1,,,62,0
6532,note_on,,,,,0,0,2,,,,,1,,,57,0
6540,note_on,,,,,8,0,2,,,,,1,,,53,101
6540,note_on,,,,,0,0,2,,,,,1,,,57,101
6540,note_on,,,,,10,0,1,,,,,0,,,50,101
6544,control_change,,,,,4,0,1,,,,,0,11,79,,
6558,control_change,,,,,14,0,1,,,,,0,11,78,,
6570,note_on,,,,,12,0,1,,,,,0,,,58,101
6572,control_change,,,,,2,0,1,,,,,0,11,77,,
6576,control_change,,,,,36,0,2,,,,,1,64,0,,
6576,control_change,,,,,96,0,3,,,,,2,64,0,,
6583,note_on,,,,,11,0,1,,,,,0,,,58,0
6585,note_on,,,,,2,0,1,,,,,0,,,60,101
6585,note_on,,,,,9,0,3,,,,,2,,,50,0
6586,control_change,,,,,1,0,1,,,,,0,11,76,,
6592,note_on,,,,,0,0,2,,,,,1,,,53,0
6592,note_on,,,,,6,0,1,,,,,0,,,50,0
6592,note_on,,,,,16,0,2,,,,,1,,,57,0
6598,note_on,,,,,6,0,1,,,,,0,,,60,0
6600,control_change,,,,,15,0,3,,,,,2,64,127,,
6600,note_on,,,,,0,0,3,,,,,2,,,34,101
6600,control_change,,,,,8,0,2,,,,,1,64,127,,
6600,note_on,,,,,0,0,3,,,,,2,,,46,101
6600,note_on,,,,,2,0,1,,,,,0,,,58,101
6635,note_on,,,,,35,0,1,,,,,0,,,58,0
6639,note_on,,,,,4,0,1,,,,,0,,,57,101
6660,note_on,,,,,0,0,2,,,,,1,,,62,101
6660,note_on,,,,,0,0,2,,,,,1,,,58,101
6660,note_on,,,,,60,0,2,,,,,1,,,53,101
6675,note_on,,,,,36,0,1,,,,,0,,,57,0
6679,note_on,,,,,4,0,1,,,,,0,,,58,101
6712,note_on,,,,,0,0,2,,,,,1,,,53,0
6712,note_on,,,,,52,0,2,,,,,1,,,62,0
6712,note_on,,,,,0,0,2,,,,,1,,,58,0
6714,note_on,,,,,35,0,1,,,,,0,,,58,0
6720,note_on,,,,,0,0,2,,,,,1,,,65,101
6720,note_on,,,,,0,0,2,,,,,1,,,62,101
6720,note_on,,,,,8,0,2,,,,,1,,,58,101
6720,note_on,,,,,6,0,1,,,,,0,,,62,101
6772,note_on,,,,,52,0,2,,,,,1,,,65,0
6772,note_on,,,,,0,0,2,,,,,1,,,58,0
6772,note_on,,,,,0,0,2,,,,,1,,,62,0
6780,note_on,,,,,8,0,2,,,,,1,,,53,101
6780,note_on,,,,,0,0,2,,,,,1,,,62,101
6780,note_on,,,,,0,0,2,,,,,1,,,58,101
6825,note_on,,,,,225,0,3,,,,,2,,,46,0
6825,note_on,,,,,0,0,3,,,,,2,,,34,0
6832,note_on,,,,,0,0,2,,,,,1,,,58,0
6832,note_on,,,,,0,0,2,,,,,1,,,53,0
6832,note_on,,,,,52,0,2,,,,,1,,,62,0
6840,note_on,,,,,0,0,2,,,,,1,,,65,101
6840,note_on,,,,,8,0,2,,,,,1,,,58,101
6840,note_on,,,,,0,0,2,,,,,1,,,62,101
6885,note_on,,,,,165,0,1,,,,,0,,,62,0
6892,note_on,,,,,0,0,2,,,,,1,,,62,0
6892,note_on,,,,,52,0,2,,,,,1,,,65,0
6892,note_on,,,,,0,0,2,,,,,1,,,58,0
6900,note_on,,,,,0,0,2,,,,,1,,,58,101
6900,note_on,,,,,0,0,2,,,,,1,,,62,101
6900,note_on,,,,,8,0,2,,,,,1,,,53,101
6900,note_on,,,,,15,0,1,,,,,0,,,58,101
6936,control_change,,,,,111,0,3,,,,,2,64,0,,
6936,control_change,,,,,36,0,2,,,,,1,64,0,,
6952,note_on,,,,,52,0,1,,,,,0,,,58,0
6952,note_on,,,,,0,0,2,,,,,1,,,58,0
6952,note_on,,,,,0,0,2,,,,,1,,,53,0
6952,note_on,,,,,16,0,2,,,,,1,,,62,0
6960,note_on,,,,,0,0,3,,,,,2,,,29,101
6960,note_on,,,,,8,0,1,,,,,0,,,57,101
6960,control_change,,,,,8,0,2,,,,,1,64,127,,
6960,note_on,,,,,0,0,3,,,,,2,,,41,101
6960,control_change,,,,,24,0,3,,,,,2,64,127,,
7020,note_on,,,,,0,0,2,,,,,1,,,60,101
7020,note_on,,,,,0,0,2,,,,,1,,,57,101
7020,note_on,,,,,60,0,2,,,,,1,,,53,101
7072,note_on,,,,,52,0,2,,,,,1,,,60,0
7072,note_on,,,,,0,0,2,,,,,1,,,53,0
7072,note_on,,,,,0,0,2,,,,,1,,,57,0
7080,note_on,,,,,0,0,2,,,,,1,,,60,101
7080,note_on,,,,,0,0,2,,,,,1,,,65,101
7080,note_on,,,,,8,0,2,,,,,1,,,57,101
7132,note_on,,,,,0,0,2,,,,,1,,,60,0
7132,note_on,,,,,52,0,2,,,,,1,,,65,0
7132,note_on,,,,,0,0,2,,,,,1,,,57,0
7140,note_on,,,,,0,0,2,,,,,1,,,57,101
7140,note_on,,,,,0,0,2,,,,,1,,,60,101
7140,note_on,,,,,8,0,2,,,,,1,,,53,101
7185,note_on,,,,,225,0,3,,,,,2,,,41,0
7185,note_on,,,,,0,0,3,,,,,2,,,29,0
7192,note_on,,,,,0,0,2,,,,,1,,,53,0
7192,note_on,,,,,52,0,2,,,,,1,,,60,0
7192,note_on,,,,,0,0,2,,,,,1,,,57,0
7200,note_on,,,,,0,0,2,,,,,1,,,60,101
7200,note_on,,,,,0,0,2,,,,,1,,,65,101
7200,note_on,,,,,8,0,2,,,,,1,,,57,101
7252,note_on,,,,,0,0,2,,,,,1,,,57,0
7252,note_on,,,,,0,0,2,,,,,1,,,60,0
7252,note_on,,,,,52,0,2,,,,,1,,,65,0
7260,note_on,,,,,0,0,2,,,,,1,,,57,101
7260,note_on,,,,,0,0,2,,,,,1,,,60,101
7260,note_on,,,,,8,0,2,,,,,1,,,53,101
7290,note_on,,,,,330,0,1,,,,,0,,,55,101
7290,note_on,,,,,30,0,2,,,,,1,,,70,101
7296,control_change,,,,,6,0,2,,,,,1,64,0,,
7296,control_change,,,,,111,0,3,,,,,2,64,0,,
7303,note_on,,,,,7,0,2,,,,,1,,,70,0
7303,note_on,,,,,13,0,1,,,,,0,,,55,0
7305,note_on,,,,,0,0,1,,,,,0,,,57,101
7305,note_on,,,,,2,0,2,,,,,1,,,72,101
7305,note_on,,,,,2,0,1,,,,,0,,,57,0
7312,note_on,,,,,0,0,2,,,,,1,,,60,0
7312,note_on,,,,,7,0,2,,,,,1,,,53,0
7312,note_on,,,,,0,0,2,,,,,1,,,57,0
7318,note_on,,,,,6,0,2,,,,,1,,,72,0
7318,note_on,,,,,13,0,1,,,,,0,,,57,0
7320,control_change,,,,,24,0,3,,,,,2,64,127,,
7320,control_change,,,,,2,0,2,,,,,1,64,127,,
7320,note_on,,,,,2,0,1,,,,,0,,,55,101
7320,note_on,,,,,0,0,2,,,,,1,,,70,101
7320,note_on,,,,,0,0,3,,,,,2,,,36,101
7320,note_on,,,,,0,0,3,,,,,2,,,48,101
7330,set_tempo,,,,,1930,1,0,,1000000,,,,,,,
7355,note_on,,,,,35,0,1,,,,,0,,,55,0
7355,note_on,,,,,35,0,2,,,,,1,,,70,0
7359,note_on,,,,,4,0,1,,,,,0,,,54,101
7359,note_on,,,,,4,0,2,,,,,1,,,69,101
7372,note_on,,,,,0,0,3,,,,,2,,,36,0
7372,note_on,,,,,52,0,3,,,,,2,,,48,0
7380,note_on,,,,,0,0,3,,,,,2,,,60,101
7380,note_on,,,,,8,0,3,,,,,2,,,55,101
7395,note_on,,,,,36,0,2,,,,,1,,,69,0
7395,note_on,,,,,36,0,1,,,,,0,,,54,0
7399,note_on,,,,,4,0,1,,,,,0,,,55,101
7399,note_on,,,,,4,0,2,,,,,1,,,70,101
7432,note_on,,,,,52,0,3,,,,,2,,,60,0
7432,note_on,,,,,0,0,3,,,,,2,,,55,0
7434,note_on,,,,,35,0,2,,,,,1,,,70,0
7434,note_on,,,,,35,0,1,,,,,0,,,55,0
7440,note_on,,,,,6,0,1,,,,,0,,,58,114
7440,note_on,,,,,0,0,3,,,,,2,,,64,101
7440,note_on,,,,,8,0,3,,,,,2,,,60,101
7440,note_on,,,,,6,0,2,,,,,1,,,74,114
7492,note_on,,,,,52,0,3,,,,,2,,,64,0
7492,note_on,,,,,0,0,3,,,,,2,,,60,0
7500,note_on,,,,,8,0,3,,,,,2,,,55,101
7500,note_on,,,,,0,0,3,,,,,2,,,60,101
7552,note_on,,,,,0,0,3,,,,,2,,,55,0
7552,note_on,,,,,52,0,3,,,,,2,,,60,0
7560,note_on,,,,,0,0,3,,,,,2,,,64,101
7560,note_on,,,,,8,0,3,,,,,2,,,60,101
7605,note_on,,,,,165,0,2,,,,,1,,,74,0
7605,note_on,,,,,165,0,1,,,,,0,,,58,0
7612,note_on,,,,,0,0,3,,,,,2,,,60,0
7612,note_on,,,,,52,0,3,,,,,2,,,64,0
7620,note_on,,,,,15,0,1,,,,,0,,,55,101
7620,note_on,,,,,8,0,3,,,,,2,,,55,101
7620,note_on,,,,,15,0,2,,,,,1,,,70,101
7620,note_on,,,,,0,0,3,,,,,2,,,60,101
7656,control_change,,,,,36,0,3,,,,,2,64,0,,
7656,control_change,,,,,36,0,2,,,,,1,64,0,,
7672,note_on,,,,,16,0,3,,,,,2,,,60,0
7672,note_on,,,,,0,0,3,,,,,2,,,55,0
7672,note_on,,,,,52,0,1,,,,,0,,,55,0
7672,note_on,,,,,16,0,2,,,,,1,,,70,0
7680,control_change,,,,,8,0,3,,,,,2,64,127,,
7680,control_change,,,,,8,0,2,,,,,1,64,127,,
7680,note_on,,,,,0,0,3,,,,,2,,,41,101
7680,note_on,,,,,0,0,2,,,,,1,,,69,101
7680,note_on,,,,,8,0,1,,,,,0,,,53,101
7732,note_on,,,,,52,0,3,,,,,2,,,41,0
7740,note_on,,,,,8,0,3,,,,,2,,,53,101
7740,note_on,,,,,0,0,3,,,,,2,,,60,101
7740,note_on,,,,,0,0,3,,,,,2,,,57,101
7792,note_on,,,,,0,0,3,,,,,2,,,57,0
7792,note_on,,,,,0,0,3,,,,,2,,,53,0
7792,note_on,,,,,52,0,3,,,,,2,,,60,0
7800,note_on,,,,,8,0,3,,,,,2,,,57,101
7800,note_on,,,,,0,0,3,,,,,2,,,65,101
7800,note_on,,,,,0,0,3,,,,,2,,,60,101
7800,set_tempo,,,,,470,1,0,,857142,,,,,,,
7852,note_on,,,,,0,0,3,,,,,2,,,60,0
7852,note_on,,,,,52,0,3,,,,,2,,,65,0
7852,note_on,,,,,0,0,3,,,,,2,,,57,0
7860,note_on,,,,,0,0,3,,,,,2,,,57,101
7860,note_on,,,,,0,0,3,,,,,2,,,60,101
7860,note_on,,,,,8,0,3,,,,,2,,,53,101
7912,note_on,,,,,52,0,3,,,,,2,,,60,0
7912,note_on,,,,,0,0,3,,,,,2,,,53,0
7912,note_on,,,,,0,0,3,,,,,2,,,57,0
7920,note_on,,,,,0,0,3,,,,,2,,,60,101
7920,note_on,,,,,0,0,3,,,,,2,,,65,101
7920,note_on,,,,,8,0,3,,,,,2,,,57,101
7972,note_on,,,,,52,0,3,,,,,2,,,65,0
7972,note_on,,,,,0,0,3,,,,,2,,,57,0
7972,note_on,,,,,0,0,3,,,,,2,,,60,0
7980,note_on,,,,,8,0,3,,,,,2,,,53,101
7980,note_on,,,,,0,0,3,,,,,2,,,57,101
7980,note_on,,,,,0,0,3,,,,,2,,,60,101
8016,control_change,,,,,36,0,3,,,,,2,64,0,,
8016,control_change,,,,,336,0,2,,,,,1,64,0,,
8025,note_on,,,,,9,0,2,,,,,1,,,69,0
8025,note_on,,,,,345,0,1,,,,,0,,,53,0
8032,note_on,,,,,0,0,3,,,,,2,,,53,0
8032,note_on,,,,,16,0,3,,,,,2,,,60,0
8032,note_on,,,,,0,0,3,,,,,2,,,57,0
8040,control_change,,,,,15,0,2,,,,,1,64,127,,
8040,control_change,,,,,15,0,1,,,,,0,11,75,,
8040,note_on,,,,,0,0,3,,,,,2,,,45,101
8040,control_change,,,,,8,0,3,,,,,2,64,127,,
8040,note_on,,,,,0,0,3,,,,,2,,,33,101
8040,note_on,,,,,0,0,1,,,,,0,,,57,101
8053,control_change,,,,,13,0,1,,,,,0,11,76,,
8067,control_change,,,,,14,0,1,,,,,0,11,77,,
8081,control_change,,,,,14,0,1,,,,,0,11,78,,
8095,control_change,,,,,14,0,1,,,,,0,11,79,,
8100,note_on,,,,,0,0,2,,,,,1,,,57,101
8100,note_on,,,,,60,0,2,,,,,1,,,55,101
8109,control_change,,,,,14,0,1,,,,,0,11,80,,
8118,note_on,,,,,9,0,1,,,,,0,,,57,0
8122,control_change,,,,,4,0,1,,,,,0,11,81,,
8130,note_on,,,,,8,0,1,,,,,0,,,61,101
8136,control_change,,,,,6,0,1,,,,,0,11,82,,
8150,control_change,,,,,14,0,1,,,,,0,11,83,,
8152,note_on,,,,,52,0,2,,,,,1,,,57,0
8152,note_on,,,,,0,0,2,,,,,1,,,55,0
8156,note_on,,,,,6,0,1,,,,,0,,,61,0
8160,note_on,,,,,4,0,1,,,,,0,,,65,101
8160,note_on,,,,,0,0,2,,,,,1,,,61,101
8160,note_on,,,,,8,0,2,,,,,1,,,57,101
8164,control_change,,,,,4,0,1,,,,,0,11,84,,
8178,control_change,,,,,14,0,1,,,,,0,11,85,,
8192,control_change,,,,,14,0,1,,,,,0,11,86,,
8206,control_change,,,,,14,0,1,,,,,0,11,87,,
8212,note_on,,,,,0,0,2,,,,,1,,,57,0
8212,note_on,,,,,52,0,2,,,,,1,,,61,0
8220,note_on,,,,,0,0,2,,,,,1,,,57,101
8220,control_change,,,,,14,0,1,,,,,0,11,88,,
8220,note_on,,,,,8,0,2,,,,,1,,,55,101
8233,control_change,,,,,13,0,1,,,,,0,11,89,,
8247,control_change,,,,,14,0,1,,,,,0,11,90,,
8261,control_change,,,,,14,0,1,,,,,0,11,91,,
8265,note_on,,,,,0,0,3,,,,,2,,,33,0
8265,note_on,,,,,225,0,3,,,,,2,,,45,0
8272,note_on,,,,,52,0,2,,,,,1,,,57,0
8272,note_on,,,,,0,0,2,,,,,1,,,55,0
8275,control_change,,,,,14,0,1,,,,,0,11,92,,
8280,note_on,,,,,0,0,2,,,,,1,,,61,101
8280,note_on,,,,,8,0,2,,,,,1,,,57,101
8289,control_change,,,,,14,0,1,,,,,0,11,93,,
8302,control_change,,,,,13,0,1,,,,,0,11,94,,
8316,control_change,,,,,14,0,1,,,,,0,11,95,,
8325,note_on,,,,,9,0,1,,,,,0,,,65,0
8330,control_change,,,,,5,0,1,,,,,0,11,96,,
8332,note_on,,,,,0,0,2,,,,,1,,,57,0
8332,note_on,,,,,52,0,2,,,,,1,,,61,0
8340,note_on,,,,,10,0,1,,,,,0,,,64,101
8340,note_on,,,,,8,0,2,,,,,1,,,55,101
8340,note_on,,,,,0,0,2,,,,,1,,,57,101
8344,control_change,,,,,4,0,1,,,,,0,11,97,,
8358,control_change,,,,,14,0,1,,,,,0,11,98,,
8372,control_change,,,,,14,0,1,,,,,0,11,99,,
8376,control_change,,,,,36,0,2,,,,,1,64,0,,
8376,control_change,,,,,111,0,3,,,,,2,64,0,,
8386,control_change,,,,,14,0,1,,,,,0,11,100,,
8392,note_on,,,,,6,0,1,,,,,0,,,64,0
8392,note_on,,,,,16,0,2,,,,,1,,,57,0
8392,note_on,,,,,0,0,2,,,,,1,,,55,0
8400,note_on,,,,,0,0,3,,,,,2,,,50,101
8400,control_change,,,,,8,0,1,,,,,0,11,101,,
8400,control_change,,,,,24,0,3,,,,,2,64,127,,
8400,note_on,,,,,0,0,1,,,,,0,,,62,101
8400,control_change,,,,,8,0,2,,,,,1,64,127,,
8400,note_on,,,,,0,0,3,,,,,2,,,38,101
8413,control_change,,,,,13,0,1,,,,,0,11,100,,
8427,control_change,,,,,14,0,1,,,,,0,11,99,,
8441,control_change,,,,,14,0,1,,,,,0,11,98,,
8455,control_change,,,,,14,0,1,,,,,0,11,97,,
8460,note_on,,,,,60,0,2,,,,,1,,,54,101
8460,note_on,,,,,0,0,2,,,,,1,,,57,101
8469,control_change,,,,,14,0,1,,,,,0,11,96,,
8478,note_on,,,,,9,0,1,,,,,0,,,62,0
8482,control_change,,,,,4,0,1,,,,,0,11,95,,
8490,note_on,,,,,8,0,1,,,,,0,,,57,101
8496,control_change,,,,,6,0,1,,,,,0,11,94,,
8510,control_change,,,,,14,0,1,,,,,0,11,93,,
8512,note_on,,,,,0,0,2,,,,,1,,,54,0
8512,note_on,,,,,52,0,2,,,,,1,,,57,0
8516,note_on,,,,,6,0,1,,,,,0,,,57,0
8520,note_on,,,,,8,0,2,,,,,1,,,57,101
8520,note_on,,,,,0,0,2,,,,,1,,,62,101
8520,note_on,,,,,4,0,1,,,,,0,,,54,101
8524,control_change,,,,,4,0,1,,,,,0,11,92,,
8538,control_change,,,,,14,0,1,,,,,0,11,91,,
8552,control_change,,,,,14,0,1,,,,,0,11,90,,
8566,control_change,,,,,14,0,1,,,,,0,11,89,,
8572,note_on,,,,,0,0,2,,,,,1,,,57,0
8572,note_on,,,,,52,0,2,,,,,1,,,62,0
8580,note_on,,,,,0,0,2,,,,,1,,,57,101
8580,control_change,,,,,14,0,1,,,,,0,11,88,,
8580,note_on,,,,,8,0,2,,,,,1,,,54,101
8593,control_change,,,,,13,0,1,,,,,0,11,87,,
8607,control_change,,,,,14,0,1,,,,,0,11,86,,
8621,control_change,,,,,14,0,1,,,,,0,11,85,,
8625,note_on,,,,,225,0,3,,,,,2,,,50,0
8625,note_on,,,,,0,0,3,,,,,2,,,38,0
8632,note_on,,,,,52,0,2,,,,,1,,,57,0
8632,note_on,,,,,0,0,2,,,,,1,,,54,0
8635,control_change,,,,,14,0,1,,,,,0,11,84,,
8640,note_on,,,,,8,0,2,,,,,1,,,57,101
8640,note_on,,,,,0,0,2,,,,,1,,,62,101
8649,control_change,,,,,14,0,1,,,,,0,11,83,,
8662,control_change,,,,,13,0,1,,,,,0,11,82,,
8676,control_change,,,,,14,0,1,,,,,0,11,81,,
8685,note_on,,,,,9,0,1,,,,,0,,,54,0
8690,control_change,,,,,5,0,1,,,,,0,11,80,,
8692,note_on,,,,,52,0,2,,,,,1,,,62,0
8692,note_on,,,,,0,0,2,,,,,1,,,57,0
8700,note_on,,,,,8,0,2,,,,,1,,,54,101
8700,note_on,,,,,0,0,2,,,,,1,,,57,101
8700,note_on,,,,,10,0,1,,,,,0,,,50,101
8704,control_change,,,,,4,0,1,,,,,0,11,79,,
8718,control_change,,,,,14,0,1,,,,,0,11,78,,
8730,note_on,,,,,12,0,1,,,,,0,,,59,101
8732,control_change,,,,,2,0,1,,,,,0,11,77,,
8736,control_change,,,,,111,0,3,,,,,2,64,0,,
8736,control_change,,,,,36,0,2,,,,,1,64,0,,
8743,note_on,,,,,11,0,1,,,,,0,,,59,0
8745,note_on,,,,,2,0,1,,,,,0,,,61,101
8746,control_change,,,,,1,0,1,,,,,0,11,76,,
8752,note_on,,,,,0,0,2,,,,,1,,,54,0
8752,note_on,,,,,6,0,1,,,,,0,,,50,0
8752,note_on,,,,,16,0,2,,,,,1,,,57,0
8758,note_on,,,,,6,0,1,,,,,0,,,61,0
8760,note_on,,,,,0,0,3,,,,,2,,,31,101
8760,note_on,,,,,0,0,3,,,,,2,,,43,101
8760,control_change,,,,,24,0,3,,,,,2,64,127,,
8760,control_change,,,,,2,0,1,,,,,0,11,75,,
8760,control_change,,,,,8,0,2,,,,,1,64,127,,
8760,note_on,,,,,0,0,1,,,,,0,,,59,101
8787,control_change,,,,,27,0,1,,,,,0,11,76,,
8795,note_on,,,,,8,0,1,,,,,0,,,59,0
8799,note_on,,,,,4,0,1,,,,,0,,,58,101
8815,control_change,,,,,16,0,1,,,,,0,11,77,,
8820,note_on,,,,,0,0,2,,,,,1,,,59,101
8820,note_on,,,,,60,0,2,,,,,1,,,55,101
8820,note_on,,,,,0,0,2,,,,,1,,,62,101
8835,note_on,,,,,20,0,1,,,,,0,,,58,0
8839,note_on,,,,,4,0,1,,,,,0,,,59,101
8842,control_change,,,,,3,0,1,,,,,0,11,78,,
8870,control_change,,,,,28,0,1,,,,,0,11,79,,
8872,note_on,,,,,0,0,2,,,,,1,,,55,0
8872,note_on,,,,,0,0,2,,,,,1,,,59,0
8872,note_on,,,,,52,0,2,,,,,1,,,62,0
8874,note_on,,,,,4,0,1,,,,,0,,,59,0
8880,note_on,,,,,8,0,2,,,,,1,,,59,101
8880,note_on,,,,,6,0,1,,,,,0,,,62,101
8880,note_on,,,,,0,0,2,,,,,1,,,67,101
8880,note_on,,,,,0,0,2,,,,,1,,,62,101
8898,control_change,,,,,18,0,1,,,,,0,11,80,,
8926,control_change,,,,,28,0,1,,,,,0,11,81,,
8932,note_on,,,,,0,0,2,,,,,1,,,59,0
8932,note_on,,,,,0,0,2,,,,,1,,,62,0
8932,note_on,,,,,52,0,2,,,,,1,,,67,0
8940,note_on,,,,,8,0,2,,,,,1,,,55,101
8940,note_on,,,,,0,0,2,,,,,1,,,62,101
8940,note_on,,,,,0,0,2,,,,,1,,,59,101
8953,control_change,,,,,27,0,1,,,,,0,11,82,,
8981,control_change,,,,,28,0,1,,,,,0,11,83,,
8985,note_on,,,,,225,0,3,,,,,2,,,43,0
8985,note_on,,,,,0,0,3,,,,,2,,,31,0
8992,note_on,,,,,52,0,2,,,,,1,,,62,0
8992,note_on,,,,,0,0,2,,,,,1,,,59,0
8992,note_on,,,,,0,0,2,,,,,1,,,55,0
9000,note_on,,,,,0,0,2,,,,,1,,,67,101
9000,note_on,,,,,8,0,2,,,,,1,,,59,101
9000,note_on,,,,,0,0,2,,,,,1,,,62,101
9009,control_change,,,,,28,0,1,,,,,0,11,84,,
9036,control_change,,,,,27,0,1,,,,,0,11,85,,
9045,note_on,,,,,9,0,1,,,,,0,,,62,0
9052,note_on,,,,,0,0,2,,,,,1,,,62,0
9052,note_on,,,,,52,0,2,,,,,1,,,67,0
9052,note_on,,,,,0,0,2,,,,,1,,,59,0
9060,note_on,,,,,0,0,2,,,,,1,,,59,101
9060,note_on,,,,,0,0,2,,,,,1,,,62,101
9060,note_on,,,,,8,0,2,,,,,1,,,55,101
9060,note_on,,,,,15,0,1,,,,,0,,,59,101
9064,control_change,,,,,4,0,1,,,,,0,11,86,,
9092,control_change,,,,,28,0,1,,,,,0,11,87,,
9096,control_change,,,,,111,0,3,,,,,2,64,0,,
9096,control_change,,,,,36,0,2,,,,,1,64,0,,
9112,note_on,,,,,20,0,1,,,,,0,,,59,0
9112,note_on,,,,,0,0,2,,,,,1,,,55,0
9112,note_on,,,,,0,0,2,,,,,1,,,59,0
9112,note_on,,,,,16,0,2,,,,,1,,,62,0
9120,control_change,,,,,8,0,1,,,,,0,11,88,,
9120,note_on,,,,,0,0,3,,,,,2,,,50,101
9120,note_on,,,,,0,0,3,,,,,2,,,38,101
9120,note_on,,,,,0,0,1,,,,,0,,,57,101
9120,control_change,,,,,8,0,2,,,,,1,64,127,,
9120,control_change,,,,,24,0,3,,,,,2,64,127,,
9147,control_change,,,,,27,0,1,,,,,0,11,89,,
9175,control_change,,,,,28,0,1,,,,,0,11,90,,
9180,note_on,,,,,0,0,2,,,,,1,,,57,101
9180,note_on,,,,,60,0,2,,,,,1,,,54,101
9180,note_on,,,,,0,0,2,,,,,1,,,62,101
9202,control_change,,,,,27,0,1,,,,,0,11,91,,
9230,control_change,,,,,28,0,1,,,,,0,11,92,,
9232,note_on,,,,,52,0,2,,,,,1,,,62,0
9232,note_on,,,,,0,0,2,,,,,1,,,54,0
9232,note_on,,,,,0,0,2,,,,,1,,,57,0
9240,note_on,,,,,8,0,2,,,,,1,,,57,101
9240,note_on,,,,,0,0,2,,,,,1,,,66,101
9240,note_on,,,,,0,0,2,,,,,1,,,62,101
9258,control_change,,,,,28,0,1,,,,,0,11,93,,
9286,control_change,,,,,28,0,1,,,,,0,11,94,,
9292,note_on,,,,,0,0,2,,,,,1,,,62,0
9292,note_on,,,,,0,0,2,,,,,1,,,57,0
9292,note_on,,,,,52,0,2,,,,,1,,,66,0
9300,note_on,,,,,8,0,2,,,,,1,,,54,101
9300,note_on,,,,,0,0,2,,,,,1,,,62,101
9300,note_on,,,,,0,0,2,,,,,1,,,57,101
9313,control_change,,,,,27,0,1,,,,,0,11,95,,
9341,control_change,,,,,28,0,1,,,,,0,11,96,,
9345,note_on,,,,,0,0,3,,,,,2,,,38,0
9345,note_on,,,,,225,0,3,,,,,2,,,50,0
9352,note_on,,,,,52,0,2,,,,,1,,,62,0
9352,note_on,,,,,0,0,2,,,,,1,,,57,0
9352,note_on,,,,,0,0,2,,,,,1,,,54,0
9360,note_on,,,,,8,0,2,,,,,1,,,57,101
9360,note_on,,,,,0,0,2,,,,,1,,,62,101
9360,note_on,,,,,0,0,2,,,,,1,,,66,101
9369,control_change,,,,,28,0,1,,,,,0,11,97,,
9396,control_change,,,,,27,0,1,,,,,0,11,98,,
9412,note_on,,,,,0,0,2,,,,,1,,,57,0
9412,note_on,,,,,0,0,2,,,,,1,,,62,0
9412,note_on,,,,,52,0,2,,,,,1,,,66,0
9420,note_on,,,,,0,0,2,,,,,1,,,62,101
9420,note_on,,,,,8,0,2,,,,,1,,,54,101
9420,note_on,,,,,0,0,2,,,,,1,,,57,101
9424,control_change,,,,,28,0,1,,,,,0,11,99,,
9452,control_change,,,,,28,0,1,,,,,0,11,100,,
9456,control_change,,,,,36,0,2,,,,,1,64,0,,
9456,control_change,,,,,111,0,3,,,,,2,64,0,,
9465,note_on,,,,,13,0,1,,,,,0,,,57,0
9472,note_on,,,,,16,0,2,,,,,1,,,62,0
9472,note_on,,,,,0,0,2,,,,,1,,,54,0
9472,note_on,,,,,0,0,2,,,,,1,,,57,0
9480,control_change,,,,,0,0,3,,,,,2,11,85,,
9480,control_change,,,,,0,0,2,,,,,1,11,88,,
9480,note_on,,,,,15,0,1,,,,,0,,,64,101
9480,control_change,,,,,8,0,2,,,,,1,64,127,,
9480,control_change,,,,,24,0,3,,,,,2,64,127,,
9480,set_tempo,,,,,1680,1,0,,1000000,,,,,,,
9480,note_on,,,,,0,0,3,,,,,2,,,45,101
9480,note_on,,,,,0,0,2,,,,,1,,,79,101
9480,note_on,,,,,0,0,3,,,,,2,,,33,101
9480,note_on,,,,,0,0,2,,,,,1,,,67,101
9515,note_on,,,,,35,0,2,,,,,1,,,79,0
9515,note_on,,,,,0,0,2,,,,,1,,,67,0
9515,note_on,,,,,35,0,1,,,,,0,,,64,0
9519,note_on,,,,,4,0,1,,,,,0,,,63,101
9519,note_on,,,,,4,0,2,,,,,1,,,66,101
9519,note_on,,,,,0,0,2,,,,,1,,,78,101
9532,note_on,,,,,52,0,3,,,,,2,,,45,0
9532,note_on,,,,,0,0,3,,,,,2,,,33,0
9540,note_on,,,,,0,0,3,,,,,2,,,57,101
9540,note_on,,,,,8,0,3,,,,,2,,,52,101
9555,note_on,,,,,36,0,1,,,,,0,,,63,0
9555,note_on,,,,,0,0,2,,,,,1,,,66,0
9555,note_on,,,,,36,0,2,,,,,1,,,78,0
9559,note_on,,,,,4,0,2,,,,,1,,,67,101
9559,note_on,,,,,4,0,1,,,,,0,,,64,101
9559,note_on,,,,,0,0,2,,,,,1,,,79,101
9592,note_on,,,,,52,0,3,,,,,2,,,57,0
9592,note_on,,,,,0,0,3,,,,,2,,,52,0
9594,note_on,,,,,35,0,2,,,,,1,,,79,0
9594,note_on,,,,,35,0,1,,,,,0,,,64,0
9594,note_on,,,,,0,0,2,,,,,1,,,67,0
9600,note_on,,,,,6,0,1,,,,,0,,,67,101
9600,note_on,,,,,6,0,2,,,,,1,,,71,101
9600,note_on,,,,,8,0,3,,,,,2,,,57,101
9600,note_on,,,,,0,0,3,,,,,2,,,61,101
9600,note_on,,,,,0,0,2,,,,,1,,,83,101
9652,note_on,,,,,0,0,3,,,,,2,,,57,0
9652,note_on,,,,,52,0,3,,,,,2,,,61,0
9660,note_on,,,,,0,0,3,,,,,2,,,57,101
9660,note_on,,,,,8,0,3,,,,,2,,,52,101
9712,note_on,,,,,0,0,3,,,,,2,,,52,0
9712,note_on,,,,,52,0,3,,,,,2,,,57,0
9720,note_on,,,,,0,0,3,,,,,2,,,61,101
9720,note_on,,,,,8,0,3,,,,,2,,,57,101
9765,note_on,,,,,0,0,2,,,,,1,,,71,0
9765,note_on,,,,,165,0,2,,,,,1,,,83,0
9765,note_on,,,,,165,0,1,,,,,0,,,67,0
9772,note_on,,,,,0,0,3,,,,,2,,,57,0
9772,note_on,,,,,52,0,3,,,,,2,,,61,0
9780,note_on,,,,,15,0,1,,,,,0,,,61,101
9780,note_on,,,,,0,0,3,,,,,2,,,57,101
9780,note_on,,,,,8,0,3,,,,,2,,,52,101
9780,note_on,,,,,15,0,2,,,,,1,,,67,101
9780,note_on,,,,,0,0,2,,,,,1,,,79,101
9816,control_change,,,,,36,0,2,,,,,1,64,0,,
9816,control_change,,,,,36,0,3,,,,,2,64,0,,
9832,note_on,,,,,0,0,2,,,,,1,,,67,0
9832,note_on,,,,,0,0,3,,,,,2,,,52,0
9832,note_on,,,,,52,0,1,,,,,0,,,61,0
9832,note_on,,,,,16,0,3,,,,,2,,,57,0
9832,note_on,,,,,16,0,2,,,,,1,,,79,0
9840,control_change,,,,,8,0,2,,,,,1,64,127,,
9840,note_on,,,,,0,0,2,,,,,1,,,78,101
9840,control_change,,,,,8,0,3,,,,,2,64,127,,
9840,note_on,,,,,0,0,3,,,,,2,,,38,101
9840,note_on,,,,,0,0,2,,,,,1,,,66,101
9840,control_change,,,,,8,0,1,,,,,0,11,101,,
9840,note_on,,,,,0,0,1,,,,,0,,,62,101
9850,set_tempo,,,,,370,1,0,,857142,,,,,,,
9853,control_change,,,,,13,0,1,,,,,0,11,100,,
9867,control_change,,,,,14,0,1,,,,,0,11,99,,
9881,control_change,,,,,14,0,1,,,,,0,11,98,,
9892,note_on,,,,,52,0,3,,,,,2,,,38,0
9895,control_change,,,,,14,0,1,,,,,0,11,97,,
9900,note_on,,,,,0,0,3,,,,,2,,,54,101
9900,note_on,,,,,0,0,3,,,,,2,,,57,101
9900,note_on,,,,,8,0,3,,,,,2,,,50,101
9909,control_change,,,,,14,0,1,,,,,0,11,96,,
9922,control_change,,,,,13,0,1,,,,,0,11,95,,
9936,control_change,,,,,14,0,1,,,,,0,11,94,,
9950,control_change,,,,,14,0,1,,,,,0,11,93,,
9952,note_on,,,,,0,0,3,,,,,2,,,50,0
9952,note_on,,,,,0,0,3,,,,,2,,,54,0
9952,note_on,,,,,52,0,3,,,,,2,,,57,0
9960,note_on,,,,,0,0,3,,,,,2,,,62,101
9960,note_on,,,,,8,0,3,,,,,2,,,54,101
9960,note_on,,,,,0,0,3,,,,,2,,,57,101
9964,control_change,,,,,14,0,1,,,,,0,11,92,,
9978,control_change,,,,,14,0,1,,,,,0,11,91,,
9992,control_change,,,,,14,0,1,,,,,0,11,90,,
10006,control_change,,,,,14,0,1,,,,,0,11,89,,
10012,note_on,,,,,0,0,3,,,,,2,,,57,0
10012,note_on,,,,,52,0,3,,,,,2,,,62,0
10012,note_on,,,,,0,0,3,,,,,2,,,54,0
10020,control_change,,,,,14,0,1,,,,,0,11,88,,
10020,note_on,,,,,0,0,3,,,,,2,,,57,101
10020,note_on,,,,,8,0,3,,,,,2,,,50,101
10020,note_on,,,,,0,0,3,,,,,2,,,54,101
10033,control_change,,,,,13,0,1,,,,,0,11,87,,
10047,control_change,,,,,14,0,1,,,,,0,11,86,,
10061,control_change,,,,,14,0,1,,,,,0,11,85,,
10065,note_on,,,,,0,0,2,,,,,1,,,66,0
10065,note_on,,,,,4,0,1,,,,,0,,,62,0
10065,note_on,,,,,225,0,2,,,,,1,,,78,0
10072,note_on,,,,,52,0,3,,,,,2,,,57,0
10072,note_on,,,,,0,0,3,,,,,2,,,50,0
10072,note_on,,,,,0,0,3,,,,,2,,,54,0
10075,control_change,,,,,10,0,1,,,,,0,11,84,,
10080,note_on,,,,,0,0,3,,,,,2,,,57,101
10080,note_on,,,,,0,0,3,,,,,2,,,62,101
10080,note_on,,,,,8,0,3,,,,,2,,,54,101
10089,control_change,,,,,14,0,1,,,,,0,11,83,,
10102,control_change,,,,,13,0,1,,,,,0,11,82,,
10116,control_change,,,,,14,0,1,,,,,0,11,81,,
10130,control_change,,,,,14,0,1,,,,,0,11,80,,
10132,note_on,,,,,0,0,3,,,,,2,,,54,0
10132,note_on,,,,,52,0,3,,,,,2,,,62,0
10132,note_on,,,,,0,0,3,,,,,2,,,57,0
10140,note_on,,,,,0,0,3,,,,,2,,,54,101
10140,note_on,,,,,0,0,3,,,,,2,,,57,101
10140,note_on,,,,,8,0,3,,,,,2,,,50,101
10144,control_change,,,,,14,0,1,,,,,0,11,79,,
10158,control_change,,,,,14,0,1,,,,,0,11,78,,
10172,control_change,,,,,14,0,1,,,,,0,11,77,,
10176,control_change,,,,,36,0,3,,,,,2,64,0,,
10176,control_change,,,,,111,0,2,,,,,1,64,0,,
10186,control_change,,,,,14,0,1,,,,,0,11,76,,
10192,note_on,,,,,0,0,3,,,,,2,,,54,0
10192,note_on,,,,,16,0,3,,,,,2,,,57,0
10192,note_on,,,,,0,0,3,,,,,2,,,50,0
10200,control_change,,,,,8,0,3,,,,,2,11,88,,
10200,note_on,,,,,0,0,2,,,,,1,,,70,101
10200,note_on,,,,,0,0,2,,,,,1,,,67,101
10200,control_change,,,,,0,0,2,,,,,1,64,127,,
10200,note_on,,,,,0,0,3,,,,,2,,,50,101
10200,control_change,,,,,24,0,2,,,,,1,11,88,,
10200,note_on,,,,,0,0,3,,,,,2,,,38,101
10200,control_change,,,,,0,0,3,,,,,2,64,127,,
10210,set_tempo,,,,,360,1,0,,800000,,,,,,,
10252,note_on,,,,,52,0,3,,,,,2,,,50,0
10252,note_on,,,,,0,0,3,,,,,2,,,38,0
10260,note_on,,,,,0,0,3,,,,,2,,,55,101
10260,note_on,,,,,0,0,3,,,,,2,,,58,101
10260,note_on,,,,,8,0,3,,,,,2,,,50,101
10312,note_on,,,,,0,0,3,,,,,2,,,50,0
10312,note_on,,,,,52,0,3,,,,,2,,,58,0
10312,note_on,,,,,0,0,3,,,,,2,,,55,0
10320,note_on,,,,,0,0,3,,,,,2,,,58,101
10320,note_on,,,,,0,0,3,,,,,2,,,62,101
10320,note_on,,,,,8,0,3,,,,,2,,,55,101
10372,note_on,,,,,0,0,3,,,,,2,,,58,0
10372,note_on,,,,,52,0,3,,,,,2,,,62,0
10372,note_on,,,,,0,0,3,,,,,2,,,55,0
10380,note_on,,,,,0,0,3,,,,,2,,,55,101
10380,note_on,,,,,0,0,3,,,,,2,,,58,101
10380,note_on,,,,,8,0,3,,,,,2,,,50,101
10425,note_on,,,,,0,0,2,,,,,1,,,67,0
10425,note_on,,,,,225,0,2,,,,,1,,,70,0
10432,note_on,,,,,52,0,3,,,,,2,,,58,0
10432,note_on,,,,,0,0,3,,,,,2,,,50,0
10432,note_on,,,,,0,0,3,,,,,2,,,55,0
10440,note_on,,,,,15,0,2,,,,,1,,,70,114
10440,note_on,,,,,8,0,3,,,,,2,,,55,101
10440,note_on,,,,,0,0,2,,,,,1,,,74,114
10440,note_on,,,,,0,0,3,,,,,2,,,62,101
10440,note_on,,,,,0,0,3,,,,,2,,,58,101
10492,note_on,,,,,52,0,3,,,,,2,,,62,0
10492,note_on,,,,,0,0,3,,,,,2,,,58,0
10492,note_on,,,,,0,0,3,,,,,2,,,55,0
10500,note_on,,,,,8,0,3,,,,,2,,,50,101
10500,note_on,,,,,0,0,3,,,,,2,,,58,101
10500,note_on,,,,,0,0,3,,,,,2,,,55,101
10518,note_on,,,,,78,0,2,,,,,1,,,74,0
10518,note_on,,,,,0,0,2,,,,,1,,,70,0
10530,note_on,,,,,0,0,2,,,,,1,,,70,101
10530,note_on,,,,,12,0,2,,,,,1,,,67,101
10536,control_change,,,,,6,0,2,,,,,1,64,0,,
10536,control_change,,,,,36,0,3,,,,,2,64,0,,
10552,note_on,,,,,0,0,3,,,,,2,,,55,0
10552,note_on,,,,,16,0,3,,,,,2,,,58,0
10552,note_on,,,,,0,0,3,,,,,2,,,50,0
10556,note_on,,,,,20,0,2,,,,,1,,,70,0
10556,note_on,,,,,0,0,2,,,,,1,,,67,0
10560,note_on,,,,,0,0,3,,,,,2,,,38,101
10560,control_change,,,,,8,0,3,,,,,2,64,127,,
10560,note_on,,,,,0,0,2,,,,,1,,,69,101
10560,note_on,,,,,0,0,2,,,,,1,,,66,101
10560,control_change,,,,,4,0,2,,,,,1,64,127,,
10612,note_on,,,,,52,0,3,,,,,2,,,38,0
10620,note_on,,,,,0,0,3,,,,,2,,,57,101
10620,note_on,,,,,0,0,3,,,,,2,,,54,101
10620,note_on,,,,,8,0,3,,,,,2,,,50,101
10672,note_on,,,,,52,0,3,,,,,2,,,57,0
10672,note_on,,,,,0,0,3,,,,,2,,,50,0
10672,note_on,,,,,0,0,3,,,,,2,,,54,0
10680,note_on,,,,,8,0,3,,,,,2,,,54,101
10680,note_on,,,,,0,0,3,,,,,2,,,57,101
10680,note_on,,,,,0,0,3,,,,,2,,,62,101
10725,note_on,,,,,0,0,2,,,,,1,,,66,0
10725,note_on,,,,,165,0,2,,,,,1,,,69,0
10732,note_on,,,,,52,0,3,,,,,2,,,62,0
10732,note_on,,,,,0,0,3,,,,,2,,,54,0
10732,note_on,,,,,0,0,3,,,,,2,,,57,0
10740,note_on,,,,,8,0,3,,,,,2,,,50,101
10740,note_on,,,,,0,0,3,,,,,2,,,54,101
10740,note_on,,,,,15,0,2,,,,,1,,,66,101
10740,note_on,,,,,0,0,3,,,,,2,,,57,101
10740,note_on,,,,,0,0,2,,,,,1,,,69,101
10763,note_on,,,,,23,0,2,,,,,1,,,69,0
10763,note_on,,,,,0,0,2,,,,,1,,,66,0
10792,note_on,,,,,0,0,3,,,,,2,,,54,0
10792,note_on,,,,,52,0,3,,,,,2,,,57,0
10792,note_on,,,,,0,0,3,,,,,2,,,50,0
10800,note_on,,,,,37,0,2,,,,,1,,,66,101
10800,note_on,,,,,0,0,2,,,,,1,,,69,101
10800,set_tempo,,,,,590,1,0,,895522,,,,,,,
10800,note_on,,,,,8,0,3,,,,,2,,,54,101
10800,note_on,,,,,0,0,3,,,,,2,,,62,101
10800,note_on,,,,,0,0,3,,,,,2,,,57,101
10823,note_on,,,,,23,0,2,,,,,1,,,69,0
10823,note_on,,,,,0,0,2,,,,,1,,,66,0
10852,note_on,,,,,0,0,3,,,,,2,,,54,0
10852,note_on,,,,,52,0,3,,,,,2,,,62,0
10852,note_on,,,,,0,0,3,,,,,2,,,57,0
10860,note_on,,,,,0,0,3,,,,,2,,,57,101
10860,note_on,,,,,0,0,3,,,,,2,,,54,101
10860,note_on,,,,,37,0,2,,,,,1,,,66,101
10860,note_on,,,,,0,0,2,,,,,1,,,69,101
10860,note_on,,,,,8,0,3,,,,,2,,,50,101
10883,note_on,,,,,23,0,2,,,,,1,,,69,0
10883,note_on,,,,,0,0,2,,,,,1,,,66,0
10896,control_change,,,,,13,0,2,,,,,1,64,0,,
10896,control_change,,,,,36,0,3,,,,,2,64,0,,
10912,note_on,,,,,0,0,3,,,,,2,,,54,0
10912,note_on,,,,,0,0,3,,,,,2,,,50,0
10912,note_on,,,,,16,0,3,,,,,2,,,57,0
10920,note_on,,,,,0,0,3,,,,,2,,,45,101
10920,note_on,,,,,0,0,3,,,,,2,,,33,101
10920,note_on,,,,,0,0,2,,,,,1,,,67,101
10920,control_change,,,,,24,0,2,,,,,1,64,127,,
10920,note_on,,,,,0,0,2,,,,,1,,,69,101
10920,control_change,,,,,8,0,3,,,,,2,64,127,,
10972,note_on,,,,,0,0,3,,,,,2,,,33,0
10972,note_on,,,,,52,0,3,,,,,2,,,45,0
10980,note_on,,,,,0,0,3,,,,,2,,,57,101
10980,note_on,,,,,8,0,3,,,,,2,,,52,101
11032,note_on,,,,,52,0,3,,,,,2,,,57,0
11032,note_on,,,,,0,0,3,,,,,2,,,52,0
11040,note_on,,,,,0,0,3,,,,,2,,,61,101
11040,note_on,,,,,8,0,3,,,,,2,,,57,101
11085,note_on,,,,,165,0,2,,,,,1,,,69,0
11085,note_on,,,,,0,0,2,,,,,1,,,67,0
11092,note_on,,,,,52,0,3,,,,,2,,,61,0
11092,note_on,,,,,0,0,3,,,,,2,,,57,0
11100,note_on,,,,,15,0,2,,,,,1,,,61,101
11100,note_on,,,,,0,0,3,,,,,2,,,57,101
11100,note_on,,,,,0,0,2,,,,,1,,,69,101
11100,note_on,,,,,8,0,3,,,,,2,,,52,101
11123,note_on,,,,,23,0,2,,,,,1,,,69,0
11123,note_on,,,,,0,0,2,,,,,1,,,61,0
11152,note_on,,,,,52,0,3,,,,,2,,,57,0
11152,note_on,,,,,0,0,3,,,,,2,,,52,0
11160,note_on,,,,,0,0,2,,,,,1,,,69,101
11160,note_on,,,,,0,0,3,,,,,2,,,61,101
11160,note_on,,,,,8,0,3,,,,,2,,,57,101
11160,note_on,,,,,37,0,2,,,,,1,,,64,101
11170,set_tempo,,,,,370,1,0,,800000,,,,,,,
11183,note_on,,,,,0,0,2,,,,,1,,,64,0
11183,note_on,,,,,23,0,2,,,,,1,,,69,0
11212,note_on,,,,,52,0,3,,,,,2,,,61,0
11212,note_on,,,,,0,0,3,,,,,2,,,57,0
11220,note_on,,,,,37,0,2,,,,,1,,,67,101
11220,note_on,,,,,8,0,3,,,,,2,,,52,101
11220,note_on,,,,,0,0,2,,,,,1,,,69,101
11220,note_on,,,,,0,0,3,,,,,2,,,57,101
11243,note_on,,,,,23,0,2,,,,,1,,,69,0
11243,note_on,,,,,0,0,2,,,,,1,,,67,0
11256,control_change,,,,,13,0,2,,,,,1,64,0,,
11256,control_change,,,,,36,0,3,,,,,2,64,0,,
11272,note_on,,,,,16,0,3,,,,,2,,,57,0
11272,note_on,,,,,0,0,3,,,,,2,,,52,0
11280,note_on,,,,,0,0,2,,,,,1,,,66,101
11280,control_change,,,,,24,0,2,,,,,1,11,88,,
11280,control_change,,,,,0,0,3,,,,,2,64,127,,
11280,control_change,,,,,0,0,3,,,,,2,11,88,,
11280,note_on,,,,,0,0,2,,,,,1,,,69,101
11280,control_change,,,,,0,0,2,,,,,1,64,127,,
11280,control_change,,,,,8,0,3,,,,,2,11,88,,
11280,note_on,,,,,0,0,3,,,,,2,,,38,101
11307,control_change,,,,,27,0,2,,,,,1,11,87,,
11307,control_change,,,,,0,0,3,,,,,2,11,87,,
11307,control_change,,,,,27,0,3,,,,,2,11,87,,
11332,note_on,,,,,25,0,3,,,,,2,,,38,0
11335,control_change,,,,,0,0,3,,,,,2,11,86,,
11335,control_change,,,,,28,0,2,,,,,1,11,86,,
11335,control_change,,,,,3,0,3,,,,,2,11,86,,
11340,note_on,,,,,0,0,3,,,,,2,,,57,101
11340,note_on,,,,,5,0,3,,,,,2,,,54,101
11362,control_change,,,,,27,0,2,,,,,1,11,85,,
11362,control_change,,,,,0,0,3,,,,,2,11,85,,
11362,control_change,,,,,22,0,3,,,,,2,11,85,,
11390,control_change,,,,,0,0,3,,,,,2,11,84,,
11390,control_change,,,,,28,0,2,,,,,1,11,84,,
11390,control_change,,,,,28,0,3,,,,,2,11,84,,
11392,note_on,,,,,0,0,3,,,,,2,,,54,0
11392,note_on,,,,,2,0,3,,,,,2,,,57,0
11400,note_on,,,,,8,0,3,,,,,2,,,57,101
11400,note_on,,,,,0,0,3,,,,,2,,,62,101
11418,control_change,,,,,28,0,2,,,,,1,11,83,,
11418,control_change,,,,,0,0,3,,,,,2,11,83,,
11418,control_change,,,,,18,0,3,,,,,2,11,83,,
11446,control_change,,,,,0,0,3,,,,,2,11,82,,
11446,control_change,,,,,28,0,2,,,,,1,11,82,,
11446,control_change,,,,,28,0,3,,,,,2,11,82,,
11452,note_on,,,,,6,0,3,,,,,2,,,62,0
11452,note_on,,,,,0,0,3,,,,,2,,,57,0
11460,note_on,,,,,0,0,3,,,,,2,,,57,101
11460,note_on,,,,,8,0,3,,,,,2,,,54,101
11473,control_change,,,,,0,0,3,,,,,2,11,81,,
11473,control_change,,,,,13,0,3,,,,,2,11,81,,
11473,control_change,,,,,27,0,2,,,,,1,11,81,,
11501,control_change,,,,,28,0,3,,,,,2,11,80,,
11501,control_change,,,,,28,0,2,,,,,1,11,80,,
11501,control_change,,,,,0,0,3,,,,,2,11,80,,
11505,note_on,,,,,0,0,2,,,,,1,,,66,0
11505,note_on,,,,,4,0,2,,,,,1,,,69,0
11505,control_change,,,,,4,0,3,,,,,2,11,75,,
11507,control_change,,,,,2,0,3,,,,,2,11,59,,
11512,note_on,,,,,0,0,3,,,,,2,,,54,0
11512,note_on,,,,,5,0,3,,,,,2,,,57,0
11520,note_on,,,,,15,0,2,,,,,1,,,66,101
11520,note_on,,,,,8,0,3,,,,,2,,,57,101
11520,note_on,,,,,0,0,2,,,,,1,,,69,101
11520,note_on,,,,,0,0,3,,,,,2,,,62,101
11529,control_change,,,,,0,0,3,,,,,2,11,79,,
11529,control_change,,,,,9,0,3,,,,,2,11,79,,
11529,control_change,,,,,9,0,2,,,,,1,11,79,,
11556,control_change,,,,,27,0,3,,,,,2,11,78,,
11556,control_change,,,,,27,0,2,,,,,1,11,78,,
11556,control_change,,,,,0,0,3,,,,,2,11,78,,
11572,note_on,,,,,0,0,3,,,,,2,,,57,0
11572,note_on,,,,,16,0,3,,,,,2,,,62,0
11580,note_on,,,,,0,0,3,,,,,2,,,57,101
11580,note_on,,,,,8,0,3,,,,,2,,,54,101
11584,control_change,,,,,4,0,3,,,,,2,11,77,,
11584,control_change,,,,,28,0,2,,,,,1,11,77,,
11584,control_change,,,,,0,0,3,,,,,2,11,77,,
11612,control_change,,,,,28,0,2,,,,,1,11,76,,
11612,control_change,,,,,28,0,3,,,,,2,11,76,,
11612,control_change,,,,,0,0,3,,,,,2,11,76,,
11616,control_change,,,,,4,0,2,,,,,1,64,0,,
11616,control_change,,,,,4,0,3,,,,,2,64,0,,
11625,note_on,,,,,9,0,2,,,,,1,,,69,0
11625,note_on,,,,,0,0,2,,,,,1,,,66,0
11632,note_on,,,,,16,0,3,,,,,2,,,57,0
11632,note_on,,,,,0,0,3,,,,,2,,,54,0
11640,note_on,,,,,0,0,2,,,,,1,,,67,101
11640,note_on,,,,,0,0,2,,,,,1,,,71,101
11640,note_on,,,,,0,0,3,,,,,2,,,38,101
11640,control_change,,,,,15,0,2,,,,,1,64,127,,
11640,note_on,,,,,0,0,3,,,,,2,,,50,101
11640,control_change,,,,,8,0,3,,,,,2,64,127,,
11692,note_on,,,,,0,0,3,,,,,2,,,38,0
11692,note_on,,,,,52,0,3,,,,,2,,,50,0
11700,note_on,,,,,8,0,3,,,,,2,,,50,101
11700,note_on,,,,,0,0,3,,,,,2,,,59,101
11700,note_on,,,,,0,0,3,,,,,2,,,55,101
11752,note_on,,,,,0,0,3,,,,,2,,,55,0
11752,note_on,,,,,52,0,3,,,,,2,,,59,0
11752,note_on,,,,,0,0,3,,,,,2,,,50,0
11760,note_on,,,,,8,0,3,,,,,2,,,55,101
11760,note_on,,,,,0,0,3,,,,,2,,,62,101
11760,note_on,,,,,0,0,3,,,,,2,,,59,101
11812,note_on,,,,,52,0,3,,,,,2,,,62,0
11812,note_on,,,,,0,0,3,,,,,2,,,59,0
11812,note_on,,,,,0,0,3,,,,,2,,,55,0
11820,note_on,,,,,8,0,3,,,,,2,,,50,101
11820,note_on,,,,,0,0,3,,,,,2,,,59,101
11820,note_on,,,,,0,0,3,,,,,2,,,55,101
11865,note_on,,,,,0,0,2,,,,,1,,,67,0
11865,note_on,,,,,225,0,2,,,,,1,,,71,0
11872,note_on,,,,,0,0,3,,,,,2,,,50,0
11872,note_on,,,,,0,0,3,,,,,2,,,55,0
11872,note_on,,,,,52,0,3,,,,,2,,,59,0
11880,note_on,,,,,0,0,2,,,,,1,,,74,114
11880,note_on,,,,,8,0,3,,,,,2,,,55,101
11880,note_on,,,,,15,0,2,,,,,1,,,71,114
11880,note_on,,,,,0,0,3,,,,,2,,,62,101
11880,note_on,,,,,0,0,3,,,,,2,,,59,101
11932,note_on,,,,,0,0,3,,,,,2,,,59,0
11932,note_on,,,,,52,0,3,,,,,2,,,62,0
11932,note_on,,,,,0,0,3,,,,,2,,,55,0
11940,note_on,,,,,0,0,3,,,,,2,,,59,101
11940,note_on,,,,,0,0,3,,,,,2,,,55,101
11940,note_on,,,,,8,0,3,,,,,2,,,50,101
11958,note_on,,,,,78,0,2,,,,,1,,,74,0
11958,note_on,,,,,0,0,2,,,,,1,,,71,0
11970,note_on,,,,,12,0,2,,,,,1,,,67,101
11970,note_on,,,,,0,0,2,,,,,1,,,71,101
11976,control_change,,,,,36,0,3,,,,,2,64,0,,
11976,control_change,,,,,6,0,2,,,,,1,64,0,,
11992,note_on,,,,,16,0,3,,,,,2,,,59,0
11992,note_on,,,,,0,0,3,,,,,2,,,50,0
11992,note_on,,,,,0,0,3,,,,,2,,,55,0
11996,note_on,,,,,0,0,2,,,,,1,,,67,0
11996,note_on,,,,,20,0,2,,,,,1,,,71,0
12000,note_on,,,,,0,0,2,,,,,1,,,69,101
12000,note_on,,,,,0,0,2,,,,,1,,,66,101
12000,note_on,,,,,0,0,3,,,,,2,,,38,101
12000,control_change,,,,,4,0,2,,,,,1,64,127,,
12000,control_change,,,,,8,0,3,,,,,2,64,127,,
12052,note_on,,,,,52,0,3,,,,,2,,,38,0
12060,note_on,,,,,8,0,3,,,,,2,,,50,101
12060,note_on,,,,,0,0,3,,,,,2,,,54,101
12060,note_on,,,,,0,0,3,,,,,2,,,57,101
12112,note_on,,,,,52,0,3,,,,,2,,,57,0
12112,note_on,,,,,0,0,3,,,,,2,,,54,0
12112,note_on,,,,,0,0,3,,,,,2,,,50,0
12120,note_on,,,,,8,0,3,,,,,2,,,54,101
12120,note_on,,,,,0,0,3,,,,,2,,,57,101
12120,note_on,,,,,0,0,3,,,,,2,,,62,101
12165,note_on,,,,,165,0,2,,,,,1,,,69,0
12165,note_on,,,,,0,0,2,,,,,1,,,66,0
12172,note_on,,,,,0,0,3,,,,,2,,,54,0
12172,note_on,,,,,0,0,3,,,,,2,,,57,0
12172,note_on,,,,,52,0,3,,,,,2,,,62,0
12180,note_on,,,,,8,0,3,,,,,2,,,50,101
12180,note_on,,,,,0,0,2,,,,,1,,,69,101
12180,note_on,,,,,15,0,2,,,,,1,,,66,101
12180,note_on,,,,,0,0,3,,,,,2,,,54,101
12180,note_on,,,,,0,0,3,,,,,2,,,57,101
12203,note_on,,,,,0,0,2,,,,,1,,,66,0
12203,note_on,,,,,23,0,2,,,,,1,,,69,0
12232,note_on,,,,,0,0,3,,,,,2,,,54,0
12232,note_on,,,,,52,0,3,,,,,2,,,57,0
12232,note_on,,,,,0,0,3,,,,,2,,,50,0
12240,note_on,,,,,0,0,3,,,,,2,,,62,101
12240,note_on,,,,,0,0,2,,,,,1,,,69,101
12240,note_on,,,,,0,0,3,,,,,2,,,57,101
12240,set_tempo,,,,,1070,1,0,,857142,,,,,,,
12240,note_on,,,,,37,0,2,,,,,1,,,66,101
12240,note_on,,,,,8,0,3,,,,,2,,,54,101
12263,note_on,,,,,0,0,2,,,,,1,,,66,0
12263,note_on,,,,,23,0,2,,,,,1,,,69,0
12292,note_on,,,,,0,0,3,,,,,2,,,54,0
12292,note_on,,,,,52,0,3,,,,,2,,,62,0
12292,note_on,,,,,0,0,3,,,,,2,,,57,0
12300,note_on,,,,,0,0,3,,,,,2,,,57,101
12300,note_on,,,,,0,0,2,,,,,1,,,69,101
12300,note_on,,,,,0,0,3,,,,,2,,,54,101
12300,note_on,,,,,37,0,2,,,,,1,,,66,101
12300,note_on,,,,,8,0,3,,,,,2,,,50,101
12323,note_on,,,,,23,0,2,,,,,1,,,69,0
12323,note_on,,,,,0,0,2,,,,,1,,,66,0
12336,control_change,,,,,13,0,2,,,,,1,64,0,,
12336,control_change,,,,,36,0,3,,,,,2,64,0,,
12352,note_on,,,,,16,0,3,,,,,2,,,57,0
12352,note_on,,,,,0,0,3,,,,,2,,,50,0
12352,note_on,,,,,0,0,3,,,,,2,,,54,0
12360,control_change,,,,,8,0,3,,,,,2,64,127,,
12360,control_change,,,,,24,0,2,,,,,1,64,127,,
12360,note_on,,,,,0,0,2,,,,,1,,,67,101
12360,note_on,,,,,0,0,3,,,,,2,,,33,101
12360,note_on,,,,,0,0,3,,,,,2,,,45,101
12360,note_on,,,,,0,0,2,,,,,1,,,69,101
12412,note_on,,,,,0,0,3,,,,,2,,,33,0
12412,note_on,,,,,52,0,3,,,,,2,,,45,0
12420,note_on,,,,,8,0,3,,,,,2,,,52,101
12420,note_on,,,,,0,0,3,,,,,2,,,57,101
12472,note_on,,,,,0,0,3,,,,,2,,,52,0
12472,note_on,,,,,52,0,3,,,,,2,,,57,0
12480,note_on,,,,,0,0,3,,,,,2,,,61,101
12480,note_on,,,,,8,0,3,,,,,2,,,57,101
12525,note_on,,,,,0,0,2,,,,,1,,,67,0
12525,note_on,,,,,165,0,2,,,,,1,,,69,0
12532,note_on,,,,,0,0,3,,,,,2,,,57,0
12532,note_on,,,,,52,0,3,,,,,2,,,61,0
12540,note_on,,,,,15,0,2,,,,,1,,,61,101
12540,note_on,,,,,0,0,2,,,,,1,,,69,101
12540,note_on,,,,,0,0,3,,,,,2,,,57,101
12540,note_on,,,,,8,0,3,,,,,2,,,52,101
12563,note_on,,,,,0,0,2,,,,,1,,,61,0
12563,note_on,,,,,23,0,2,,,,,1,,,69,0
12592,note_on,,,,,52,0,3,,,,,2,,,57,0
12592,note_on,,,,,0,0,3,,,,,2,,,52,0
12600,note_on,,,,,37,0,2,,,,,1,,,64,101
12600,note_on,,,,,0,0,2,,,,,1,,,69,101
12600,note_on,,,,,8,0,3,,,,,2,,,57,101
12600,note_on,,,,,0,0,3,,,,,2,,,61,101
12623,note_on,,,,,0,0,2,,,,,1,,,64,0
12623,note_on,,,,,23,0,2,,,,,1,,,69,0
12652,note_on,,,,,52,0,3,,,,,2,,,61,0
12652,note_on,,,,,0,0,3,,,,,2,,,57,0
12660,note_on,,,,,0,0,3,,,,,2,,,57,101
12660,note_on,,,,,37,0,2,,,,,1,,,67,101
12660,note_on,,,,,8,0,3,,,,,2,,,52,101
12660,note_on,,,,,0,0,2,,,,,1,,,69,101
12683,note_on,,,,,23,0,2,,,,,1,,,69,0
12683,note_on,,,,,0,0,2,,,,,1,,,67,0
12696,control_change,,,,,36,0,3,,,,,2,64,0,,
12696,control_change,,,,,13,0,2,,,,,1,64,0,,
12712,note_on,,,,,16,0,3,,,,,2,,,57,0
12712,note_on,,,,,0,0,3,,,,,2,,,52,0
12720,control_change,,,,,8,0,3,,,,,2,64,127,,
12720,note_on,,,,,0,0,3,,,,,2,,,38,101
12720,note_on,,,,,0,0,2,,,,,1,,,66,101
12720,control_change,,,,,24,0,2,,,,,1,64,127,,
12720,note_on,,,,,0,0,2,,,,,1,,,69,101
12772,note_on,,,,,52,0,3,,,,,2,,,38,0
12780,note_on,,,,,8,0,3,,,,,2,,,54,101
12780,note_on,,,,,0,0,3,,,,,2,,,57,101
12832,note_on,,,,,52,0,3,,,,,2,,,57,0
12832,note_on,,,,,0,0,3,,,,,2,,,54,0
12840,note_on,,,,,0,0,3,,,,,2,,,62,101
12840,note_on,,,,,8,0,3,,,,,2,,,57,101
12892,note_on,,,,,52,0,3,,,,,2,,,62,0
12892,note_on,,,,,0,0,3,,,,,2,,,57,0
12900,note_on,,,,,8,0,3,,,,,2,,,54,101
12900,note_on,,,,,0,0,3,,,,,2,,,57,101
12952,note_on,,,,,52,0,3,,,,,2,,,57,0
12952,note_on,,,,,0,0,3,,,,,2,,,54,0
12960,note_on,,,,,8,0,3,,,,,2,,,57,101
12960,note_on,,,,,0,0,3,,,,,2,,,62,101
13012,note_on,,,,,52,0,3,,,,,2,,,62,0
13012,note_on,,,,,0,0,3,,,,,2,,,57,0
13020,note_on,,,,,8,0,3,,,,,2,,,54,101
13020,note_on,,,,,0,0,3,,,,,2,,,57,101
13056,control_change,,,,,336,0,2,,,,,1,64,0,,
13056,control_change,,,,,36,0,3,,,,,2,64,0,,
13065,note_on,,,,,0,0,2,,,,,1,,,66,0
13065,note_on,,,,,9,0,2,,,,,1,,,69,0
13072,note_on,,,,,16,0,3,,,,,2,,,57,0
13072,note_on,,,,,0,0,3,,,,,2,,,54,0
13080,note_on,,,,,0,0,3,,,,,2,,,38,101
13080,control_change,,,,,15,0,2,,,,,1,64,127,,
13080,note_on,,,,,0,0,1,,,,,0,,,57,101
13080,control_change,,,,,2894,0,1,,,,,0,11,75,,
13080,control_change,,,,,8,0,3,,,,,2,64,127,,
13080,note_on,,,,,0,0,3,,,,,2,,,50,101
13090,set_tempo,,,,,850,1,0,,857142,,,,,,,
13115,note_on,,,,,35,0,1,,,,,0,,,57,0
13119,note_on,,,,,4,0,1,,,,,0,,,58,101
13140,note_on,,,,,0,0,2,,,,,1,,,62,101
13140,note_on,,,,,60,0,2,,,,,1,,,57,101
13155,note_on,,,,,36,0,1,,,,,0,,,58,0
13159,note_on,,,,,4,0,1,,,,,0,,,57,101
13192,note_on,,,,,52,0,2,,,,,1,,,62,0
13192,note_on,,,,,0,0,2,,,,,1,,,57,0
13194,note_on,,,,,35,0,1,,,,,0,,,57,0
13200,note_on,,,,,8,0,2,,,,,1,,,62,101
13200,note_on,,,,,0,0,2,,,,,1,,,65,101
13200,note_on,,,,,6,0,1,,,,,0,,,62,101
13252,note_on,,,,,0,0,2,,,,,1,,,62,0
13252,note_on,,,,,52,0,2,,,,,1,,,65,0
13260,note_on,,,,,0,0,2,,,,,1,,,62,101
13260,note_on,,,,,8,0,2,,,,,1,,,57,101
13305,note_on,,,,,225,0,3,,,,,2,,,50,0
13305,note_on,,,,,0,0,3,,,,,2,,,38,0
13312,note_on,,,,,0,0,2,,,,,1,,,57,0
13312,note_on,,,,,52,0,2,,,,,1,,,62,0
13320,note_on,,,,,0,0,2,,,,,1,,,65,101
13320,note_on,,,,,8,0,2,,,,,1,,,62,101
13365,note_on,,,,,165,0,1,,,,,0,,,62,0
13372,note_on,,,,,0,0,2,,,,,1,,,62,0
13372,note_on,,,,,52,0,2,,,,,1,,,65,0
13380,note_on,,,,,0,0,2,,,,,1,,,62,101
13380,note_on,,,,,15,0,1,,,,,0,,,57,101
13380,note_on,,,,,8,0,2,,,,,1,,,57,101
13416,control_change,,,,,36,0,2,,,,,1,64,0,,
13416,control_change,,,,,111,0,3,,,,,2,64,0,,
13432,note_on,,,,,0,0,2,,,,,1,,,57,0
13432,note_on,,,,,52,0,1,,,,,0,,,57,0
13432,note_on,,,,,16,0,2,,,,,1,,,62,0
13440,note_on,,,,,0,0,3,,,,,2,,,34,101
13440,control_change,,,,,24,0,3,,,,,2,64,127,,
13440,note_on,,,,,0,0,3,,,,,2,,,46,101
13440,note_on,,,,,8,0,1,,,,,0,,,55,101
13440,control_change,,,,,8,0,2,,,,,1,64,127,,
13475,note_on,,,,,35,0,1,,,,,0,,,55,0
13479,note_on,,,,,4,0,1,,,,,0,,,57,101
13500,note_on,,,,,60,0,2,,,,,1,,,55,101
13500,note_on,,,,,0,0,2,,,,,1,,,62,101
13515,note_on,,,,,36,0,1,,,,,0,,,57,0
13519,note_on,,,,,4,0,1,,,,,0,,,55,101
13552,note_on,,,,,0,0,2,,,,,1,,,55,0
13552,note_on,,,,,52,0,2,,,,,1,,,62,0
13554,note_on,,,,,35,0,1,,,,,0,,,55,0
13560,note_on,,,,,8,0,2,,,,,1,,,62,101
13560,note_on,,,,,6,0,1,,,,,0,,,62,101
13560,note_on,,,,,0,0,2,,,,,1,,,64,101
13612,note_on,,,,,52,0,2,,,,,1,,,64,0
13612,note_on,,,,,0,0,2,,,,,1,,,62,0
13620,note_on,,,,,8,0,2,,,,,1,,,55,101
13620,note_on,,,,,0,0,2,,,,,1,,,62,101
13665,note_on,,,,,105,0,1,,,,,0,,,62,0
13665,note_on,,,,,225,0,3,,,,,2,,,46,0
13665,note_on,,,,,0,0,3,,,,,2,,,34,0
13672,note_on,,,,,0,0,2,,,,,1,,,55,0
13672,note_on,,,,,52,0,2,,,,,1,,,62,0
13680,note_on,,,,,15,0,1,,,,,0,,,55,101
13680,note_on,,,,,8,0,2,,,,,1,,,62,101
13680,note_on,,,,,0,0,2,,,,,1,,,64,101
13732,note_on,,,,,52,0,1,,,,,0,,,55,0
13732,note_on,,,,,52,0,2,,,,,1,,,64,0
13732,note_on,,,,,0,0,2,,,,,1,,,62,0
13740,note_on,,,,,0,0,2,,,,,1,,,62,101
13740,note_on,,,,,8,0,2,,,,,1,,,55,101
13776,control_change,,,,,111,0,3,,,,,2,64,0,,
13776,control_change,,,,,36,0,2,,,,,1,64,0,,
13792,note_on,,,,,0,0,2,,,,,1,,,55,0
13792,note_on,,,,,16,0,2,,,,,1,,,62,0
13800,control_change,,,,,24,0,3,,,,,2,64,127,,
13800,control_change,,,,,8,0,2,,,,,1,64,127,,
13800,note_on,,,,,0,0,3,,,,,2,,,45,101
13800,note_on,,,,,68,0,1,,,,,0,,,57,114
13800,note_on,,,,,0,0,3,,,,,2,,,33,101
13860,note_on,,,,,60,0,2,,,,,1,,,55,101
13860,note_on,,,,,0,0,2,,,,,1,,,61,101
13912,note_on,,,,,52,0,2,,,,,1,,,61,0
13912,note_on,,,,,0,0,2,,,,,1,,,55,0
13920,note_on,,,,,0,0,2,,,,,1,,,64,101
13920,note_on,,,,,8,0,2,,,,,1,,,61,101
13965,note_on,,,,,165,0,1,,,,,0,,,57,0
13972,note_on,,,,,0,0,2,,,,,1,,,61,0
13972,note_on,,,,,52,0,2,,,,,1,,,64,0
13980,note_on,,,,,0,0,2,,,,,1,,,61,101
13980,note_on,,,,,15,0,1,,,,,0,,,55,101
13980,note_on,,,,,8,0,2,,,,,1,,,55,101
14025,note_on,,,,,0,0,3,,,,,2,,,33,0
14025,note_on,,,,,225,0,3,,,,,2,,,45,0
14032,note_on,,,,,0,0,2,,,,,1,,,55,0
14032,note_on,,,,,52,0,1,,,,,0,,,55,0
14032,note_on,,,,,52,0,2,,,,,1,,,61,0
14040,note_on,,,,,0,0,2,,,,,1,,,64,101
14040,note_on,,,,,8,0,1,,,,,0,,,55,101
14040,note_on,,,,,8,0,2,,,,,1,,,61,101
14075,note_on,,,,,35,0,1,,,,,0,,,55,0
14079,note_on,,,,,4,0,1,,,,,0,,,53,101
14092,note_on,,,,,52,0,2,,,,,1,,,64,0
14092,note_on,,,,,0,0,2,,,,,1,,,61,0
14100,note_on,,,,,0,0,2,,,,,1,,,61,101
14100,note_on,,,,,8,0,2,,,,,1,,,55,101
14115,note_on,,,,,36,0,1,,,,,0,,,53,0
14119,note_on,,,,,4,0,1,,,,,0,,,52,101
14136,control_change,,,,,36,0,2,,,,,1,64,0,,
14136,control_change,,,,,111,0,3,,,,,2,64,0,,
14152,note_on,,,,,0,0,2,,,,,1,,,55,0
14152,note_on,,,,,16,0,2,,,,,1,,,61,0
14154,note_on,,,,,35,0,1,,,,,0,,,52,0
14160,note_on,,,,,0,0,3,,,,,2,,,50,101
14160,note_on,,,,,6,0,1,,,,,0,,,53,101
14160,control_change,,,,,24,0,3,,,,,2,64,127,,
14160,control_change,,,,,8,0,2,,,,,1,64,127,,
14160,note_on,,,,,0,0,3,,,,,2,,,38,101
14220,note_on,,,,,60,0,2,,,,,1,,,57,101
14220,note_on,,,,,0,0,2,,,,,1,,,62,101
14272,note_on,,,,,0,0,2,,,,,1,,,57,0
14272,note_on,,,,,52,0,2,,,,,1,,,62,0
14280,note_on,,,,,8,0,2,,,,,1,,,62,101
14280,note_on,,,,,0,0,2,,,,,1,,,65,101
14332,note_on,,,,,52,0,2,,,,,1,,,65,0
14332,note_on,,,,,0,0,2,,,,,1,,,62,0
14340,note_on,,,,,8,0,2,,,,,1,,,57,101
14340,note_on,,,,,0,0,2,,,,,1,,,62,101
14385,note_on,,,,,225,0,1,,,,,0,,,53,0
14385,note_on,,,,,0,0,3,,,,,2,,,38,0
14385,note_on,,,,,225,0,3,,,,,2,,,50,0
14392,note_on,,,,,0,0,2,,,,,1,,,57,0
14392,note_on,,,,,52,0,2,,,,,1,,,62,0
14400,note_on,,,,,0,0,2,,,,,1,,,65,101
14400,note_on,,,,,8,0,2,,,,,1,,,62,101
14452,note_on,,,,,52,0,2,,,,,1,,,65,0
14452,note_on,,,,,0,0,2,,,,,1,,,62,0
14460,note_on,,,,,8,0,2,,,,,1,,,57,101
14460,note_on,,,,,0,0,2,,,,,1,,,62,101
14496,control_change,,,,,111,0,3,,,,,2,64,0,,
14496,control_change,,,,,36,0,2,,,,,1,64,0,,
14512,note_on,,,,,16,0,2,,,,,1,,,62,0
14512,note_on,,,,,0,0,2,,,,,1,,,57,0
14520,control_change,,,,,8,0,2,,,,,1,64,127,,
14520,note_on,,,,,0,0,2,,,,,1,,,73,101
14520,control_change,,,,,24,0,3,,,,,2,64,127,,
14520,note_on,,,,,0,0,3,,,,,2,,,45,101
14520,note_on,,,,,0,0,3,,,,,2,,,33,101
14520,note_on,,,,,0,0,2,,,,,1,,,81,101
14572,note_on,,,,,0,0,3,,,,,2,,,33,0
14572,note_on,,,,,52,0,3,,,,,2,,,45,0
14580,note_on,,,,,8,0,3,,,,,2,,,57,101
14580,note_on,,,,,0,0,3,,,,,2,,,61,101
14632,note_on,,,,,52,0,3,,,,,2,,,61,0
14632,note_on,,,,,0,0,3,,,,,2,,,57,0
14640,note_on,,,,,0,0,3,,,,,2,,,67,101
14640,note_on,,,,,8,0,3,,,,,2,,,64,101
14685,note_on,,,,,165,0,2,,,,,1,,,81,0
14685,note_on,,,,,0,0,2,,,,,1,,,73,0
14692,note_on,,,,,52,0,3,,,,,2,,,67,0
14692,note_on,,,,,0,0,3,,,,,2,,,64,0
14700,note_on,,,,,0,0,3,,,,,2,,,61,101
14700,note_on,,,,,8,0,3,,,,,2,,,57,101
14700,note_on,,,,,15,0,2,,,,,1,,,76,101
14700,note_on,,,,,0,0,2,,,,,1,,,79,101
14752,note_on,,,,,0,0,3,,,,,2,,,57,0
14752,note_on,,,,,52,0,3,,,,,2,,,61,0
14752,note_on,,,,,52,0,2,,,,,1,,,79,0
14752,note_on,,,,,0,0,2,,,,,1,,,76,0
14760,note_on,,,,,8,0,3,,,,,2,,,64,101
14760,note_on,,,,,8,0,2,,,,,1,,,76,101
14760,note_on,,,,,0,0,3,,,,,2,,,67,101
14760,note_on,,,,,0,0,2,,,,,1,,,79,101
14795,note_on,,,,,35,0,2,,,,,1,,,79,0
14795,note_on,,,,,0,0,2,,,,,1,,,76,0
14799,note_on,,,,,0,0,2,,,,,1,,,77,101
14799,note_on,,,,,4,0,2,,,,,1,,,74,101
14812,note_on,,,,,52,0,3,,,,,2,,,67,0
14812,note_on,,,,,0,0,3,,,,,2,,,64,0
14820,note_on,,,,,0,0,3,,,,,2,,,61,101
14820,note_on,,,,,8,0,3,,,,,2,,,57,101
14835,note_on,,,,,36,0,2,,,,,1,,,77,0
14835,note_on,,,,,0,0,2,,,,,1,,,74,0
14839,note_on,,,,,4,0,2,,,,,1,,,73,101
14839,note_on,,,,,0,0,2,,,,,1,,,76,101
14856,control_change,,,,,17,0,2,,,,,1,64,0,,
14856,control_change,,,,,36,0,3,,,,,2,64,0,,
14872,note_on,,,,,16,0,3,,,,,2,,,61,0
14872,note_on,,,,,0,0,3,,,,,2,,,57,0
14874,note_on,,,,,0,0,2,,,,,1,,,73,0
14874,note_on,,,,,18,0,2,,,,,1,,,76,0
14880,control_change,,,,,6,0,2,,,,,1,64,127,,
14880,note_on,,,,,0,0,2,,,,,1,,,77,101
14880,note_on,,,,,0,0,3,,,,,2,,,38,101
14880,note_on,,,,,0,0,3,,,,,2,,,50,101
14880,control_change,,,,,8,0,3,,,,,2,64,127,,
14880,note_on,,,,,0,0,2,,,,,1,,,74,101
14932,note_on,,,,,0,0,3,,,,,2,,,38,0
14932,note_on,,,,,52,0,3,,,,,2,,,50,0
14940,note_on,,,,,8,0,3,,,,,2,,,57,101
14940,note_on,,,,,0,0,3,,,,,2,,,62,101
14992,note_on,,,,,52,0,3,,,,,2,,,62,0
14992,note_on,,,,,0,0,3,,,,,2,,,57,0
15000,note_on,,,,,8,0,3,,,,,2,,,62,101
15000,note_on,,,,,0,0,3,,,,,2,,,65,101
15052,note_on,,,,,0,0,3,,,,,2,,,62,0
15052,note_on,,,,,52,0,3,,,,,2,,,65,0
15060,note_on,,,,,0,0,3,,,,,2,,,62,101
15060,note_on,,,,,8,0,3,,,,,2,,,57,101
15112,note_on,,,,,52,0,3,,,,,2,,,62,0
15112,note_on,,,,,0,0,3,,,,,2,,,57,0
15120,note_on,,,,,0,0,3,,,,,2,,,65,101
15120,note_on,,,,,8,0,3,,,,,2,,,62,101
15172,note_on,,,,,52,0,3,,,,,2,,,65,0
15172,note_on,,,,,0,0,3,,,,,2,,,62,0
15180,note_on,,,,,8,0,3,,,,,2,,,57,101
15180,note_on,,,,,0,0,3,,,,,2,,,62,101
15216,control_change,,,,,36,0,3,,,,,2,64,0,,
15216,control_change,,,,,336,0,2,,,,,1,64,0,,
15225,note_on,,,,,0,0,2,,,,,1,,,74,0
15225,note_on,,,,,9,0,2,,,,,1,,,77,0
15232,note_on,,,,,0,0,3,,,,,2,,,57,0
15232,note_on,,,,,16,0,3,,,,,2,,,62,0
15240,note_on,,,,,0,0,3,,,,,2,,,38,101
15240,control_change,,,,,8,0,3,,,,,2,64,127,,
15240,note_on,,,,,0,0,3,,,,,2,,,50,101
15240,control_change,,,,,15,0,2,,,,,1,64,127,,
15240,note_on,,,,,855,0,1,,,,,0,,,57,101
15275,note_on,,,,,35,0,1,,,,,0,,,57,0
15279,note_on,,,,,4,0,1,,,,,0,,,58,101
15300,note_on,,,,,0,0,2,,,,,1,,,62,101
15300,note_on,,,,,60,0,2,,,,,1,,,57,101
15315,note_on,,,,,36,0,1,,,,,0,,,58,0
15319,note_on,,,,,4,0,1,,,,,0,,,57,101
15352,note_on,,,,,52,0,2,,,,,1,,,62,0
15352,note_on,,,,,0,0,2,,,,,1,,,57,0
15354,note_on,,,,,35,0,1,,,,,0,,,57,0
15360,note_on,,,,,0,0,2,,,,,1,,,65,101
15360,note_on,,,,,6,0,1,,,,,0,,,65,101
15360,note_on,,,,,8,0,2,,,,,1,,,62,101
15412,note_on,,,,,52,0,2,,,,,1,,,65,0
15412,note_on,,,,,0,0,2,,,,,1,,,62,0
15420,note_on,,,,,8,0,2,,,,,1,,,57,101
15420,note_on,,,,,0,0,2,,,,,1,,,62,101
15465,note_on,,,,,0,0,3,,,,,2,,,38,0
15465,note_on,,,,,225,0,3,,,,,2,,,50,0
15472,note_on,,,,,0,0,2,,,,,1,,,57,0
15472,note_on,,,,,52,0,2,,,,,1,,,62,0
15480,note_on,,,,,8,0,2,,,,,1,,,62,101
15480,note_on,,,,,0,0,2,,,,,1,,,65,101
15525,note_on,,,,,165,0,1,,,,,0,,,65,0
15532,note_on,,,,,0,0,2,,,,,1,,,62,0
15532,note_on,,,,,52,0,2,,,,,1,,,65,0
15540,note_on,,,,,15,0,1,,,,,0,,,57,101
15540,note_on,,,,,8,0,2,,,,,1,,,57,101
15540,note_on,,,,,0,0,2,,,,,1,,,62,101
15576,control_change,,,,,36,0,2,,,,,1,64,0,,
15576,control_change,,,,,111,0,3,,,,,2,64,0,,
15592,note_on,,,,,16,0,2,,,,,1,,,62,0
15592,note_on,,,,,52,0,1,,,,,0,,,57,0
15592,note_on,,,,,0,0,2,,,,,1,,,57,0
15600,control_change,,,,,24,0,3,,,,,2,64,127,,
15600,note_on,,,,,0,0,1,,,,,0,,,55,101
15600,control_change,,,,,8,0,1,,,,,0,11,75,,
15600,control_change,,,,,8,0,2,,,,,1,64,127,,
15600,note_on,,,,,0,0,3,,,,,2,,,46,101
15600,note_on,,,,,0,0,3,,,,,2,,,34,101
15613,control_change,,,,,13,0,1,,,,,0,11,76,,
15627,control_change,,,,,14,0,1,,,,,0,11,77,,
15635,note_on,,,,,8,0,1,,,,,0,,,55,0
15639,note_on,,,,,4,0,1,,,,,0,,,57,101
15641,control_change,,,,,2,0,1,,,,,0,11,78,,
15655,control_change,,,,,14,0,1,,,,,0,11,79,,
15660,note_on,,,,,0,0,2,,,,,1,,,62,101
15660,note_on,,,,,60,0,2,,,,,1,,,55,101
15669,control_change,,,,,14,0,1,,,,,0,11,80,,
15675,note_on,,,,,6,0,1,,,,,0,,,57,0
15679,note_on,,,,,4,0,1,,,,,0,,,55,101
15682,control_change,,,,,3,0,1,,,,,0,11,81,,
15696,control_change,,,,,14,0,1,,,,,0,11,82,,
15710,control_change,,,,,14,0,1,,,,,0,11,83,,
15712,note_on,,,,,0,0,2,,,,,1,,,55,0
15712,note_on,,,,,52,0,2,,,,,1,,,62,0
15714,note_on,,,,,4,0,1,,,,,0,,,55,0
15720,note_on,,,,,6,0,1,,,,,0,,,64,101
15720,note_on,,,,,8,0,2,,,,,1,,,62,101
15720,note_on,,,,,0,0,2,,,,,1,,,64,101
15724,control_change,,,,,4,0,1,,,,,0,11,84,,
15738,control_change,,,,,14,0,1,,,,,0,11,85,,
15752,control_change,,,,,14,0,1,,,,,0,11,86,,
15766,control_change,,,,,14,0,1,,,,,0,11,87,,
15772,note_on,,,,,0,0,2,,,,,1,,,62,0
15772,note_on,,,,,52,0,2,,,,,1,,,64,0
15780,note_on,,,,,8,0,2,,,,,1,,,55,101
15780,control_change,,,,,14,0,1,,,,,0,11,88,,
15780,note_on,,,,,0,0,2,,,,,1,,,62,101
15793,control_change,,,,,13,0,1,,,,,0,11,89,,
15807,control_change,,,,,14,0,1,,,,,0,11,90,,
15821,control_change,,,,,14,0,1,,,,,0,11,91,,
15825,note_on,,,,,225,0,3,,,,,2,,,46,0
15825,note_on,,,,,0,0,3,,,,,2,,,34,0
15832,note_on,,,,,0,0,2,,,,,1,,,55,0
15832,note_on,,,,,52,0,2,,,,,1,,,62,0
15835,control_change,,,,,14,0,1,,,,,0,11,92,,
15840,note_on,,,,,8,0,2,,,,,1,,,62,101
15840,note_on,,,,,0,0,2,,,,,1,,,64,101
15849,control_change,,,,,14,0,1,,,,,0,11,93,,
15862,control_change,,,,,13,0,1,,,,,0,11,94,,
15876,control_change,,,,,14,0,1,,,,,0,11,95,,
15885,note_on,,,,,9,0,1,,,,,0,,,64,0
15890,control_change,,,,,5,0,1,,,,,0,11,96,,
15892,note_on,,,,,0,0,2,,,,,1,,,62,0
15892,note_on,,,,,52,0,2,,,,,1,,,64,0
15900,note_on,,,,,8,0,2,,,,,1,,,55,101
15900,note_on,,,,,0,0,2,,,,,1,,,62,101
15900,note_on,,,,,10,0,1,,,,,0,,,62,101
15904,control_change,,,,,4,0,1,,,,,0,11,97,,
15918,control_change,,,,,14,0,1,,,,,0,11,98,,
15932,control_change,,,,,14,0,1,,,,,0,11,99,,
15936,control_change,,,,,36,0,2,,,,,1,64,0,,
15936,control_change,,,,,111,0,3,,,,,2,64,0,,
15946,control_change,,,,,14,0,1,,,,,0,11,100,,
15952,note_on,,,,,16,0,2,,,,,1,,,62,0
15952,note_on,,,,,6,0,1,,,,,0,,,62,0
15952,note_on,,,,,0,0,2,,,,,1,,,55,0
15960,note_on,,,,,0,0,3,,,,,2,,,48,101
15960,note_on,,,,,0,0,1,,,,,0,,,60,101
15960,note_on,,,,,0,0,3,,,,,2,,,36,101
15960,control_change,,,,,8,0,1,,,,,0,11,101,,
15960,control_change,,,,,24,0,3,,,,,2,64,127,,
15960,control_change,,,,,8,0,2,,,,,1,64,127,,
15973,control_change,,,,,13,0,1,,,,,0,11,100,,
15987,control_change,,,,,14,0,1,,,,,0,11,99,,
16001,control_change,,,,,14,0,1,,,,,0,11,98,,
16015,control_change,,,,,14,0,1,,,,,0,11,97,,
16020,note_on,,,,,0,0,2,,,,,1,,,60,101
16020,note_on,,,,,0,0,2,,,,,1,,,58,101
16020,note_on,,,,,60,0,2,,,,,1,,,55,101
16029,control_change,,,,,14,0,1,,,,,0,11,96,,
16042,control_change,,,,,13,0,1,,,,,0,11,95,,
16056,control_change,,,,,14,0,1,,,,,0,11,94,,
16070,control_change,,,,,14,0,1,,,,,0,11,93,,
16072,note_on,,,,,0,0,2,,,,,1,,,58,0
16072,note_on,,,,,0,0,2,,,,,1,,,55,0
16072,note_on,,,,,52,0,2,,,,,1,,,60,0
16080,note_on,,,,,8,0,2,,,,,1,,,58,101
16080,note_on,,,,,0,0,2,,,,,1,,,67,101
16080,note_on,,,,,0,0,2,,,,,1,,,60,101
16084,control_change,,,,,14,0,1,,,,,0,11,92,,
16098,control_change,,,,,14,0,1,,,,,0,11,91,,
16112,control_change,,,,,14,0,1,,,,,0,11,90,,
16125,note_on,,,,,13,0,1,,,,,0,,,60,0
16126,control_change,,,,,1,0,1,,,,,0,11,89,,
16132,note_on,,,,,52,0,2,,,,,1,,,67,0
16132,note_on,,,,,0,0,2,,,,,1,,,58,0
16132,note_on,,,,,0,0,2,,,,,1,,,60,0
16140,note_on,,,,,8,0,2,,,,,1,,,55,101
16140,note_on,,,,,0,0,2,,,,,1,,,60,101
16140,note_on,,,,,0,0,2,,,,,1,,,58,101
16140,control_change,,,,,14,0,1,,,,,0,11,88,,
16140,note_on,,,,,0,0,1,,,,,0,,,58,101
16153,control_change,,,,,13,0,1,,,,,0,11,87,,
16167,control_change,,,,,14,0,1,,,,,0,11,86,,
16181,control_change,,,,,14,0,1,,,,,0,11,85,,
16185,note_on,,,,,225,0,3,,,,,2,,,48,0
16185,note_on,,,,,0,0,3,,,,,2,,,36,0
16192,note_on,,,,,0,0,2,,,,,1,,,55,0
16192,note_on,,,,,11,0,1,,,,,0,,,58,0
16192,note_on,,,,,52,0,2,,,,,1,,,60,0
16192,note_on,,,,,0,0,2,,,,,1,,,58,0
16195,control_change,,,,,3,0,1,,,,,0,11,84,,
16200,note_on,,,,,0,0,2,,,,,1,,,67,101
16200,note_on,,,,,5,0,1,,,,,0,,,58,101
16200,note_on,,,,,8,0,2,,,,,1,,,58,101
16200,note_on,,,,,0,0,2,,,,,1,,,60,101
16209,control_change,,,,,9,0,1,,,,,0,11,83,,
16222,control_change,,,,,13,0,1,,,,,0,11,82,,
16235,note_on,,,,,13,0,1,,,,,0,,,58,0
16236,control_change,,,,,1,0,1,,,,,0,11,81,,
16239,note_on,,,,,3,0,1,,,,,0,,,57,101
16250,control_change,,,,,11,0,1,,,,,0,11,80,,
16252,note_on,,,,,0,0,2,,,,,1,,,58,0
16252,note_on,,,,,0,0,2,,,,,1,,,60,0
16252,note_on,,,,,52,0,2,,,,,1,,,67,0
16260,note_on,,,,,0,0,2,,,,,1,,,58,101
16260,note_on,,,,,0,0,2,,,,,1,,,60,101
16260,note_on,,,,,8,0,2,,,,,1,,,55,101
16264,control_change,,,,,14,0,1,,,,,0,11,79,,
16275,note_on,,,,,11,0,1,,,,,0,,,57,0
16278,control_change,,,,,3,0,1,,,,,0,11,78,,
16279,note_on,,,,,1,0,1,,,,,0,,,55,101
16292,control_change,,,,,13,0,1,,,,,0,11,77,,
16296,control_change,,,,,111,0,3,,,,,2,64,0,,
16296,control_change,,,,,36,0,2,,,,,1,64,0,,
16306,control_change,,,,,14,0,1,,,,,0,11,76,,
16312,note_on,,,,,16,0,2,,,,,1,,,60,0
16312,note_on,,,,,0,0,2,,,,,1,,,55,0
16312,note_on,,,,,0,0,2,,,,,1,,,58,0
16314,note_on,,,,,8,0,1,,,,,0,,,55,0
16320,note_on,,,,,6,0,1,,,,,0,,,57,101
16320,control_change,,,,,24,0,3,,,,,2,64,127,,
16320,control_change,,,,,8,0,2,,,,,1,64,127,,
16320,note_on,,,,,0,0,3,,,,,2,,,29,101
16320,note_on,,,,,0,0,3,,,,,2,,,41,101
16380,note_on,,,,,60,0,2,,,,,1,,,53,101
16380,note_on,,,,,0,0,2,,,,,1,,,60,101
16380,note_on,,,,,0,0,2,,,,,1,,,57,101
16432,note_on,,,,,52,0,2,,,,,1,,,60,0
16432,note_on,,,,,0,0,2,,,,,1,,,53,0
16432,note_on,,,,,0,0,2,,,,,1,,,57,0
16440,note_on,,,,,8,0,2,,,,,1,,,57,101
16440,note_on,,,,,0,0,2,,,,,1,,,60,101
16440,note_on,,,,,0,0,2,,,,,1,,,65,101
16492,note_on,,,,,52,0,2,,,,,1,,,65,0
16492,note_on,,,,,0,0,2,,,,,1,,,57,0
16492,note_on,,,,,0,0,2,,,,,1,,,60,0
16500,note_on,,,,,8,0,2,,,,,1,,,53,101
16500,note_on,,,,,0,0,2,,,,,1,,,57,101
16500,note_on,,,,,0,0,2,,,,,1,,,60,101
16545,note_on,,,,,225,0,1,,,,,0,,,57,0
16545,note_on,,,,,0,0,3,,,,,2,,,29,0
16545,note_on,,,,,225,0,3,,,,,2,,,41,0
16552,note_on,,,,,52,0,2,,,,,1,,,60,0
16552,note_on,,,,,0,0,2,,,,,1,,,57,0
16552,note_on,,,,,0,0,2,,,,,1,,,53,0
16560,note_on,,,,,0,0,2,,,,,1,,,60,101
16560,note_on,,,,,0,0,2,,,,,1,,,65,101
16560,note_on,,,,,8,0,2,,,,,1,,,57,101
16612,note_on,,,,,0,0,2,,,,,1,,,57,0
16612,note_on,,,,,0,0,2,,,,,1,,,60,0
16612,note_on,,,,,52,0,2,,,,,1,,,65,0
16620,note_on,,,,,8,0,2,,,,,1,,,65,101
16620,note_on,,,,,0,0,2,,,,,1,,,74,101
16656,control_change,,,,,111,0,3,,,,,2,64,0,,
16656,control_change,,,,,36,0,2,,,,,1,64,0,,
16672,note_on,,,,,0,0,2,,,,,1,,,65,0
16672,note_on,,,,,16,0,2,,,,,1,,,74,0
16680,note_on,,,,,0,0,3,,,,,2,,,36,101
16680,note_on,,,,,0,0,2,,,,,1,,,64,101
16680,note_on,,,,,0,0,2,,,,,1,,,72,101
16680,control_change,,,,,24,0,3,,,,,2,64,127,,
16680,control_change,,,,,8,0,2,,,,,1,64,127,,
16732,note_on,,,,,52,0,3,,,,,2,,,36,0
16740,note_on,,,,,0,0,3,,,,,2,,,55,101
16740,note_on,,,,,8,0,3,,,,,2,,,48,101
16792,note_on,,,,,52,0,3,,,,,2,,,55,0
16792,note_on,,,,,0,0,3,,,,,2,,,48,0
16800,note_on,,,,,0,0,3,,,,,2,,,58,101
16800,note_on,,,,,8,0,3,,,,,2,,,55,101
16845,note_on,,,,,165,0,2,,,,,1,,,72,0
16845,note_on,,,,,0,0,2,,,,,1,,,64,0
16852,note_on,,,,,0,0,3,,,,,2,,,55,0
16852,note_on,,,,,52,0,3,,,,,2,,,58,0
16860,note_on,,,,,8,0,3,,,,,2,,,48,101
16860,note_on,,,,,0,0,2,,,,,1,,,70,101
16860,note_on,,,,,15,0,2,,,,,1,,,67,101
16860,note_on,,,,,0,0,3,,,,,2,,,55,101
16912,note_on,,,,,0,0,2,,,,,1,,,67,0
16912,note_on,,,,,52,0,3,,,,,2,,,55,0
16912,note_on,,,,,52,0,2,,,,,1,,,70,0
16912,note_on,,,,,0,0,3,,,,,2,,,48,0
16920,note_on,,,,,0,0,2,,,,,1,,,70,101
16920,note_on,,,,,8,0,3,,,,,2,,,55,101
16920,note_on,,,,,0,0,3,,,,,2,,,58,101
16920,note_on,,,,,8,0,2,,,,,1,,,67,101
16955,note_on,,,,,35,0,2,,,,,1,,,70,0
16955,note_on,,,,,0,0,2,,,,,1,,,67,0
16959,note_on,,,,,4,0,2,,,,,1,,,65,101
16959,note_on,,,,,0,0,2,,,,,1,,,69,101
16972,note_on,,,,,52,0,3,,,,,2,,,58,0
16972,note_on,,,,,0,0,3,,,,,2,,,55,0
16980,note_on,,,,,8,0,3,,,,,2,,,48,101
16980,note_on,,,,,0,0,3,,,,,2,,,55,101
16995,note_on,,,,,0,0,2,,,,,1,,,65,0
16995,note_on,,,,,36,0,2,,,,,1,,,69,0
16999,note_on,,,,,0,0,2,,,,,1,,,67,101
16999,note_on,,,,,4,0,2,,,,,1,,,64,101
17016,control_change,,,,,36,0,3,,,,,2,64,0,,
17016,control_change,,,,,17,0,2,,,,,1,64,0,,
17032,note_on,,,,,16,0,3,,,,,2,,,55,0
17032,note_on,,,,,0,0,3,,,,,2,,,48,0
17034,note_on,,,,,18,0,2,,,,,1,,,67,0
17034,note_on,,,,,0,0,2,,,,,1,,,64,0
17040,note_on,,,,,0,0,2,,,,,1,,,69,101
17040,control_change,,,,,6,0,2,,,,,1,64,127,,
17040,note_on,,,,,0,0,2,,,,,1,,,65,101
17040,note_on,,,,,0,0,3,,,,,2,,,41,101
17040,control_change,,,,,8,0,3,,,,,2,64,127,,
17092,note_on,,,,,52,0,3,,,,,2,,,41,0
17100,note_on,,,,,0,0,3,,,,,2,,,53,101
17100,note_on,,,,,8,0,3,,,,,2,,,48,101
17152,note_on,,,,,52,0,3,,,,,2,,,53,0
17152,note_on,,,,,0,0,3,,,,,2,,,48,0
17160,note_on,,,,,8,0,3,,,,,2,,,53,101
17160,note_on,,,,,0,0,3,,,,,2,,,57,101
17212,note_on,,,,,0,0,3,,,,,2,,,53,0
17212,note_on,,,,,52,0,3,,,,,2,,,57,0
17220,note_on,,,,,0,0,3,,,,,2,,,53,101
17220,note_on,,,,,8,0,3,,,,,2,,,48,101
17272,note_on,,,,,0,0,3,,,,,2,,,48,0
17272,note_on,,,,,52,0,3,,,,,2,,,53,0
17280,note_on,,,,,0,0,3,,,,,2,,,57,101
17280,note_on,,,,,8,0,3,,,,,2,,,53,101
17332,note_on,,,,,52,0,3,,,,,2,,,57,0
17332,note_on,,,,,0,0,3,,,,,2,,,53,0
17340,note_on,,,,,0,0,3,,,,,2,,,53,101
17340,note_on,,,,,8,0,3,,,,,2,,,48,101
17376,control_change,,,,,36,0,3,,,,,2,64,0,,
17376,control_change,,,,,336,0,2,,,,,1,64,0,,
17385,note_on,,,,,0,0,2,,,,,1,,,65,0
17385,note_on,,,,,9,0,2,,,,,1,,,69,0
17392,note_on,,,,,16,0,3,,,,,2,,,53,0
17392,note_on,,,,,0,0,3,,,,,2,,,48,0
17400,note_on,,,,,0,0,3,,,,,2,,,33,101
17400,note_on,,,,,0,0,3,,,,,2,,,45,101
17400,control_change,,,,,8,0,3,,,,,2,64,127,,
17400,control_change,,,,,855,0,1,,,,,0,11,75,,
17400,note_on,,,,,0,0,1,,,,,0,,,57,101
17400,control_change,,,,,15,0,2,,,,,1,64,127,,
17413,control_change,,,,,13,0,1,,,,,0,11,76,,
17427,control_change,,,,,14,0,1,,,,,0,11,77,,
17441,control_change,,,,,14,0,1,,,,,0,11,78,,
17455,control_change,,,,,14,0,1,,,,,0,11,79,,
17460,note_on,,,,,60,0,2,,,,,1,,,55,101
17460,note_on,,,,,0,0,2,,,,,1,,,57,101
17469,control_change,,,,,14,0,1,,,,,0,11,80,,
17478,note_on,,,,,9,0,1,,,,,0,,,57,0
17482,control_change,,,,,4,0,1,,,,,0,11,81,,
17490,note_on,,,,,8,0,1,,,,,0,,,61,101
17496,control_change,,,,,6,0,1,,,,,0,11,82,,
17510,control_change,,,,,14,0,1,,,,,0,11,83,,
17512,note_on,,,,,52,0,2,,,,,1,,,57,0
17512,note_on,,,,,0,0,2,,,,,1,,,55,0
17516,note_on,,,,,6,0,1,,,,,0,,,61,0
17520,note_on,,,,,0,0,2,,,,,1,,,61,101
17520,note_on,,,,,8,0,2,,,,,1,,,57,101
17520,note_on,,,,,4,0,1,,,,,0,,,65,101
17524,control_change,,,,,4,0,1,,,,,0,11,84,,
17538,control_change,,,,,14,0,1,,,,,0,11,85,,
17552,control_change,,,,,14,0,1,,,,,0,11,86,,
17566,control_change,,,,,14,0,1,,,,,0,11,87,,
17572,note_on,,,,,52,0,2,,,,,1,,,61,0
17572,note_on,,,,,0,0,2,,,,,1,,,57,0
17580,note_on,,,,,8,0,2,,,,,1,,,55,101
17580,control_change,,,,,14,0,1,,,,,0,11,88,,
17580,note_on,,,,,0,0,2,,,,,1,,,57,101
17593,control_change,,,,,13,0,1,,,,,0,11,89,,
17607,control_change,,,,,14,0,1,,,,,0,11,90,,
17621,control_change,,,,,14,0,1,,,,,0,11,91,,
17625,note_on,,,,,0,0,3,,,,,2,,,33,0
17625,note_on,,,,,225,0,3,,,,,2,,,45,0
17632,note_on,,,,,0,0,2,,,,,1,,,55,0
17632,note_on,,,,,52,0,2,,,,,1,,,57,0
17635,control_change,,,,,14,0,1,,,,,0,11,92,,
17640,note_on,,,,,8,0,2,,,,,1,,,57,101
17640,note_on,,,,,0,0,2,,,,,1,,,61,101
17649,control_change,,,,,14,0,1,,,,,0,11,93,,
17662,control_change,,,,,13,0,1,,,,,0,11,94,,
17676,control_change,,,,,14,0,1,,,,,0,11,95,,
17685,note_on,,,,,9,0,1,,,,,0,,,65,0
17690,control_change,,,,,5,0,1,,,,,0,11,96,,
17692,note_on,,,,,52,0,2,,,,,1,,,61,0
17692,note_on,,,,,0,0,2,,,,,1,,,57,0
17700,note_on,,,,,8,0,2,,,,,1,,,55,101
17700,note_on,,,,,10,0,1,,,,,0,,,64,101
17700,note_on,,,,,0,0,2,,,,,1,,,57,101
17704,control_change,,,,,4,0,1,,,,,0,11,97,,
17718,control_change,,,,,14,0,1,,,,,0,11,98,,
17732,control_change,,,,,14,0,1,,,,,0,11,99,,
17736,control_change,,,,,36,0,2,,,,,1,64,0,,
17736,control_change,,,,,111,0,3,,,,,2,64,0,,
17746,control_change,,,,,14,0,1,,,,,0,11,100,,
17752,note_on,,,,,0,0,2,,,,,1,,,55,0
17752,note_on,,,,,6,0,1,,,,,0,,,64,0
17752,note_on,,,,,16,0,2,,,,,1,,,57,0
17760,note_on,,,,,0,0,3,,,,,2,,,38,101
17760,control_change,,,,,24,0,3,,,,,2,64,127,,
17760,note_on,,,,,0,0,1,,,,,0,,,62,101
17760,control_change,,,,,8,0,2,,,,,1,64,127,,
17760,control_change,,,,,8,0,1,,,,,0,11,101,,
17773,control_change,,,,,13,0,1,,,,,0,11,100,,
17787,control_change,,,,,14,0,1,,,,,0,11,99,,
17801,control_change,,,,,14,0,1,,,,,0,11,98,,
17815,control_change,,,,,14,0,1,,,,,0,11,97,,
17820,note_on,,,,,0,0,2,,,,,1,,,57,101
17820,note_on,,,,,60,0,2,,,,,1,,,53,101
17829,control_change,,,,,14,0,1,,,,,0,11,96,,
17838,note_on,,,,,9,0,1,,,,,0,,,62,0
17842,control_change,,,,,4,0,1,,,,,0,11,95,,
17850,note_on,,,,,8,0,1,,,,,0,,,57,101
17856,control_change,,,,,6,0,1,,,,,0,11,94,,
17870,control_change,,,,,14,0,1,,,,,0,11,93,,
17872,note_on,,,,,0,0,2,,,,,1,,,53,0
17872,note_on,,,,,52,0,2,,,,,1,,,57,0
17876,note_on,,,,,6,0,1,,,,,0,,,57,0
17880,note_on,,,,,4,0,1,,,,,0,,,53,101
17880,note_on,,,,,8,0,2,,,,,1,,,57,101
17880,note_on,,,,,0,0,2,,,,,1,,,62,101
17884,control_change,,,,,4,0,1,,,,,0,11,92,,
17898,control_change,,,,,14,0,1,,,,,0,11,91,,
17912,control_change,,,,,14,0,1,,,,,0,11,90,,
17926,control_change,,,,,14,0,1,,,,,0,11,89,,
17932,note_on,,,,,0,0,2,,,,,1,,,57,0
17932,note_on,,,,,52,0,2,,,,,1,,,62,0
17940,note_on,,,,,0,0,2,,,,,1,,,57,101
17940,note_on,,,,,8,0,2,,,,,1,,,53,101
17940,control_change,,,,,14,0,1,,,,,0,11,88,,
17953,control_change,,,,,13,0,1,,,,,0,11,87,,
17967,control_change,,,,,14,0,1,,,,,0,11,86,,
17981,control_change,,,,,14,0,1,,,,,0,11,85,,
17985,note_on,,,,,225,0,3,,,,,2,,,38,0
17992,note_on,,,,,0,0,2,,,,,1,,,53,0
17992,note_on,,,,,52,0,2,,,,,1,,,57,0
17995,control_change,,,,,14,0,1,,,,,0,11,84,,
18000,note_on,,,,,8,0,2,,,,,1,,,57,101
18000,note_on,,,,,15,0,3,,,,,2,,,50,101
18000,note_on,,,,,0,0,2,,,,,1,,,62,101
18009,control_change,,,,,14,0,1,,,,,0,11,83,,
18022,control_change,,,,,13,0,1,,,,,0,11,82,,
18036,control_change,,,,,14,0,1,,,,,0,11,81,,
18045,note_on,,,,,9,0,1,,,,,0,,,53,0
18050,control_change,,,,,5,0,1,,,,,0,11,80,,
18052,note_on,,,,,52,0,2,,,,,1,,,62,0
18052,note_on,,,,,0,0,2,,,,,1,,,57,0
18060,note_on,,,,,10,0,1,,,,,0,,,50,101
18060,note_on,,,,,8,0,2,,,,,1,,,53,101
18060,note_on,,,,,0,0,2,,,,,1,,,57,101
18064,control_change,,,,,4,0,1,,,,,0,11,79,,
18078,control_change,,,,,14,0,1,,,,,0,11,78,,
18090,note_on,,,,,12,0,1,,,,,0,,,58,101
18092,control_change,,,,,2,0,1,,,,,0,11,77,,
18096,control_change,,,,,96,0,3,,,,,2,64,0,,
18096,control_change,,,,,36,0,2,,,,,1,64,0,,
18103,note_on,,,,,11,0,1,,,,,0,,,58,0
18105,note_on,,,,,2,0,1,,,,,0,,,60,101
18105,note_on,,,,,9,0,3,,,,,2,,,50,0
18106,control_change,,,,,1,0,1,,,,,0,11,76,,
18112,note_on,,,,,16,0,2,,,,,1,,,57,0
18112,note_on,,,,,0,0,2,,,,,1,,,53,0
18112,note_on,,,,,6,0,1,,,,,0,,,50,0
18118,note_on,,,,,6,0,1,,,,,0,,,60,0
18120,note_on,,,,,0,0,3,,,,,2,,,46,101
18120,note_on,,,,,0,0,3,,,,,2,,,34,101
18120,control_change,,,,,8,0,2,,,,,1,64,127,,
18120,note_on,,,,,2,0,1,,,,,0,,,58,101
18120,control_change,,,,,15,0,3,,,,,2,64,127,,
18120,control_change,,,,,0,0,3,,,,,2,64,127,,
18155,note_on,,,,,35,0,1,,,,,0,,,58,0
18159,note_on,,,,,4,0,1,,,,,0,,,57,101
18180,note_on,,,,,0,0,2,,,,,1,,,62,101
18180,note_on,,,,,0,0,2,,,,,1,,,58,101
18180,note_on,,,,,60,0,2,,,,,1,,,53,101
18195,note_on,,,,,36,0,1,,,,,0,,,57,0
18199,note_on,,,,,4,0,1,,,,,0,,,58,101
18232,note_on,,,,,0,0,2,,,,,1,,,58,0
18232,note_on,,,,,0,0,2,,,,,1,,,53,0
18232,note_on,,,,,52,0,2,,,,,1,,,62,0
18234,note_on,,,,,35,0,1,,,,,0,,,58,0
18240,note_on,,,,,8,0,2,,,,,1,,,58,101
18240,note_on,,,,,0,0,2,,,,,1,,,65,101
18240,note_on,,,,,0,0,2,,,,,1,,,62,101
18240,note_on,,,,,6,0,1,,,,,0,,,62,101
18292,note_on,,,,,52,0,2,,,,,1,,,65,0
18292,note_on,,,,,0,0,2,,,,,1,,,62,0
18292,note_on,,,,,0,0,2,,,,,1,,,58,0
18300,note_on,,,,,0,0,2,,,,,1,,,58,101
18300,note_on,,,,,0,0,2,,,,,1,,,62,101
18300,note_on,,,,,8,0,2,,,,,1,,,53,101
18345,note_on,,,,,225,0,3,,,,,2,,,46,0
18345,note_on,,,,,0,0,3,,,,,2,,,34,0
18352,note_on,,,,,52,0,2,,,,,1,,,62,0
18352,note_on,,,,,0,0,2,,,,,1,,,53,0
18352,note_on,,,,,0,0,2,,,,,1,,,58,0
18360,note_on,,,,,8,0,2,,,,,1,,,58,101
18360,note_on,,,,,0,0,2,,,,,1,,,62,101
18360,note_on,,,,,0,0,2,,,,,1,,,65,101
18405,note_on,,,,,165,0,1,,,,,0,,,62,0
18412,note_on,,,,,0,0,2,,,,,1,,,58,0
18412,note_on,,,,,52,0,2,,,,,1,,,65,0
18412,note_on,,,,,0,0,2,,,,,1,,,62,0
18420,note_on,,,,,8,0,2,,,,,1,,,53,101
18420,note_on,,,,,0,0,2,,,,,1,,,58,101
18420,note_on,,,,,0,0,2,,,,,1,,,62,101
18420,note_on,,,,,15,0,1,,,,,0,,,58,101
18456,control_change,,,,,36,0,2,,,,,1,64,0,,
18456,control_change,,,,,111,0,3,,,,,2,64,0,,
18456,control_change,,,,,0,0,3,,,,,2,64,0,,
18472,note_on,,,,,16,0,2,,,,,1,,,62,0
18472,note_on,,,,,0,0,2,,,,,1,,,58,0
18472,note_on,,,,,0,0,2,,,,,1,,,53,0
18472,note_on,,,,,52,0,1,,,,,0,,,58,0
18480,control_change,,,,,8,0,2,,,,,1,64,127,,
18480,note_on,,,,,8,0,1,,,,,0,,,57,101
18480,control_change,,,,,24,0,3,,,,,2,64,127,,
18480,control_change,,,,,0,0,3,,,,,2,64,127,,
18480,note_on,,,,,0,0,3,,,,,2,,,29,101
18480,note_on,,,,,0,0,3,,,,,2,,,41,101
18540,note_on,,,,,0,0,2,,,,,1,,,60,101
18540,note_on,,,,,0,0,2,,,,,1,,,57,101
18540,note_on,,,,,60,0,2,,,,,1,,,53,101
18592,note_on,,,,,52,0,2,,,,,1,,,60,0
18592,note_on,,,,,0,0,2,,,,,1,,,53,0
18592,note_on,,,,,0,0,2,,,,,1,,,57,0
18600,note_on,,,,,0,0,2,,,,,1,,,65,101
18600,note_on,,,,,0,0,2,,,,,1,,,60,101
18600,note_on,,,,,8,0,2,,,,,1,,,57,101
18652,note_on,,,,,0,0,2,,,,,1,,,60,0
18652,note_on,,,,,52,0,2,,,,,1,,,65,0
18652,note_on,,,,,0,0,2,,,,,1,,,57,0
18660,note_on,,,,,8,0,2,,,,,1,,,53,101
18660,note_on,,,,,0,0,2,,,,,1,,,60,101
18660,note_on,,,,,0,0,2,,,,,1,,,57,101
18705,note_on,,,,,225,0,3,,,,,2,,,41,0
18705,note_on,,,,,0,0,3,,,,,2,,,29,0
18712,note_on,,,,,52,0,2,,,,,1,,,60,0
18712,note_on,,,,,0,0,2,,,,,1,,,57,0
18712,note_on,,,,,0,0,2,,,,,1,,,53,0
18720,note_on,,,,,0,0,2,,,,,1,,,60,101
18720,note_on,,,,,8,0,2,,,,,1,,,57,101
18720,note_on,,,,,0,0,2,,,,,1,,,65,101
18772,note_on,,,,,0,0,2,,,,,1,,,57,0
18772,note_on,,,,,0,0,2,,,,,1,,,60,0
18772,note_on,,,,,52,0,2,,,,,1,,,65,0
18780,note_on,,,,,0,0,2,,,,,1,,,60,101
18780,note_on,,,,,0,0,2,,,,,1,,,57,101
18780,note_on,,,,,8,0,2,,,,,1,,,53,101
18810,note_on,,,,,30,0,2,,,,,1,,,70,101
18810,note_on,,,,,330,0,1,,,,,0,,,55,101
18816,control_change,,,,,6,0,2,,,,,1,64,0,,
18816,control_change,,,,,111,0,3,,,,,2,64,0,,
18816,control_change,,,,,0,0,3,,,,,2,64,0,,
18823,note_on,,,,,7,0,2,,,,,1,,,70,0
18823,note_on,,,,,13,0,1,,,,,0,,,55,0
18825,note_on,,,,,2,0,2,,,,,1,,,72,101
18825,note_on,,,,,2,0,1,,,,,0,,,57,0
18825,note_on,,,,,0,0,1,,,,,0,,,57,101
18832,note_on,,,,,0,0,2,,,,,1,,,57,0
18832,note_on,,,,,0,0,2,,,,,1,,,60,0
18832,note_on,,,,,7,0,2,,,,,1,,,53,0
18838,note_on,,,,,13,0,1,,,,,0,,,57,0
18838,note_on,,,,,6,0,2,,,,,1,,,72,0
18840,note_on,,,,,2,0,1,,,,,0,,,55,101
18840,note_on,,,,,0,0,2,,,,,1,,,70,101
18840,control_change,,,,,24,0,3,,,,,2,64,127,,
18840,note_on,,,,,0,0,3,,,,,2,,,48,101
18840,control_change,,,,,2,0,2,,,,,1,64,127,,
18840,control_change,,,,,0,0,3,,,,,2,64,127,,
18840,note_on,,,,,0,0,3,,,,,2,,,36,101
18850,set_tempo,,,,,5760,1,0,,1000000,,,,,,,
18875,note_on,,,,,35,0,2,,,,,1,,,70,0
18875,note_on,,,,,35,0,1,,,,,0,,,55,0
18879,note_on,,,,,4,0,2,,,,,1,,,69,101
18879,note_on,,,,,4,0,1,,,,,0,,,54,101
18892,note_on,,,,,52,0,3,,,,,2,,,48,0
18892,note_on,,,,,0,0,3,,,,,2,,,36,0
18900,note_on,,,,,0,0,3,,,,,2,,,60,101
18900,note_on,,,,,8,0,3,,,,,2,,,55,101
18915,note_on,,,,,36,0,1,,,,,0,,,54,0
18915,note_on,,,,,36,0,2,,,,,1,,,69,0
18919,note_on,,,,,4,0,2,,,,,1,,,70,101
18919,note_on,,,,,4,0,1,,,,,0,,,55,101
18952,note_on,,,,,0,0,3,,,,,2,,,55,0
18952,note_on,,,,,52,0,3,,,,,2,,,60,0
18954,note_on,,,,,35,0,2,,,,,1,,,70,0
18954,note_on,,,,,35,0,1,,,,,0,,,55,0
18960,note_on,,,,,0,0,3,,,,,2,,,64,101
18960,note_on,,,,,8,0,3,,,,,2,,,60,101
18960,note_on,,,,,6,0,2,,,,,1,,,74,114
18960,note_on,,,,,6,0,1,,,,,0,,,58,114
19012,note_on,,,,,52,0,3,,,,,2,,,64,0
19012,note_on,,,,,0,0,3,,,,,2,,,60,0
19020,note_on,,,,,8,0,3,,,,,2,,,55,101
19020,note_on,,,,,0,0,3,,,,,2,,,60,101
19072,note_on,,,,,52,0,3,,,,,2,,,60,0
19072,note_on,,,,,0,0,3,,,,,2,,,55,0
19080,note_on,,,,,8,0,3,,,,,2,,,60,101
19080,note_on,,,,,0,0,3,,,,,2,,,64,101
19125,note_on,,,,,165,0,2,,,,,1,,,74,0
19125,note_on,,,,,165,0,1,,,,,0,,,58,0
19132,note_on,,,,,0,0,3,,,,,2,,,60,0
19132,note_on,,,,,52,0,3,,,,,2,,,64,0
19140,note_on,,,,,8,0,3,,,,,2,,,55,101
19140,note_on,,,,,0,0,3,,,,,2,,,60,101
19140,note_on,,,,,15,0,2,,,,,1,,,70,101
19140,note_on,,,,,15,0,1,,,,,0,,,55,101
19176,control_change,,,,,0,0,3,,,,,2,64,0,,
19176,control_change,,,,,36,0,2,,,,,1,64,0,,
19176,control_change,,,,,36,0,3,,,,,2,64,0,,
19192,note_on,,,,,0,0,3,,,,,2,,,55,0
19192,note_on,,,,,16,0,2,,,,,1,,,70,0
19192,note_on,,,,,16,0,3,,,,,2,,,60,0
19192,note_on,,,,,52,0,1,,,,,0,,,55,0
19200,note_on,,,,,0,0,3,,,,,2,,,41,101
19200,note_on,,,,,8,0,1,,,,,0,,,53,101
19200,control_change,,,,,8,0,2,,,,,1,64,127,,
19200,control_change,,,,,0,0,3,,,,,2,64,127,,
19200,control_change,,,,,8,0,3,,,,,2,64,127,,
19200,note_on,,,,,0,0,2,,,,,1,,,69,101
19210,set_tempo,,,,,360,1,0,,857142,,,,,,,
19252,note_on,,,,,52,0,3,,,,,2,,,41,0
19260,note_on,,,,,0,0,3,,,,,2,,,57,101
19260,note_on,,,,,0,0,3,,,,,2,,,60,101
19260,note_on,,,,,8,0,3,,,,,2,,,53,101
19312,note_on,,,,,0,0,3,,,,,2,,,57,0
19312,note_on,,,,,52,0,3,,,,,2,,,60,0
19312,note_on,,,,,0,0,3,,,,,2,,,53,0
19320,note_on,,,,,0,0,3,,,,,2,,,65,101
19320,note_on,,,,,0,0,3,,,,,2,,,60,101
19320,note_on,,,,,8,0,3,,,,,2,,,57,101
19372,note_on,,,,,0,0,3,,,,,2,,,60,0
19372,note_on,,,,,52,0,3,,,,,2,,,65,0
19372,note_on,,,,,0,0,3,,,,,2,,,57,0
19380,note_on,,,,,8,0,3,,,,,2,,,53,101
19380,note_on,,,,,0,0,3,,,,,2,,,57,101
19380,note_on,,,,,0,0,3,,,,,2,,,60,101
19432,note_on,,,,,52,0,3,,,,,2,,,60,0
19432,note_on,,,,,0,0,3,,,,,2,,,53,0
19432,note_on,,,,,0,0,3,,,,,2,,,57,0
19440,note_on,,,,,8,0,3,,,,,2,,,57,101
19440,note_on,,,,,0,0,3,,,,,2,,,65,101
19440,note_on,,,,,0,0,3,,,,,2,,,60,101
19492,note_on,,,,,0,0,3,,,,,2,,,57,0
19492,note_on,,,,,0,0,3,,,,,2,,,60,0
19492,note_on,,,,,52,0,3,,,,,2,,,65,0
19500,note_on,,,,,8,0,3,,,,,2,,,53,101
19500,note_on,,,,,0,0,3,,,,,2,,,57,101
19500,note_on,,,,,0,0,3,,,,,2,,,60,101
19536,control_change,,,,,336,0,2,,,,,1,64,0,,
19536,control_change,,,,,36,0,3,,,,,2,64,0,,
19536,control_change,,,,,0,0,3,,,,,2,64,0,,
19545,note_on,,,,,345,0,1,,,,,0,,,53,0
19545,note_on,,,,,9,0,2,,,,,1,,,69,0
19552,note_on,,,,,0,0,3,,,,,2,,,57,0
19552,note_on,,,,,0,0,3,,,,,2,,,53,0
19552,note_on,,,,,16,0,3,,,,,2,,,60,0
19560,control_change,,,,,15,0,2,,,,,1,64,127,,
19560,control_change,,,,,8,0,3,,,,,2,64,127,,
19560,note_on,,,,,0,0,3,,,,,2,,,45,101
19560,note_on,,,,,0,0,3,,,,,2,,,33,101
19560,control_change,,,,,0,0,3,,,,,2,64,127,,
19560,note_on,,,,,0,0,1,,,,,0,,,57,101
19560,control_change,,,,,15,0,1,,,,,0,11,75,,
19573,control_change,,,,,13,0,1,,,,,0,11,76,,
19587,control_change,,,,,14,0,1,,,,,0,11,77,,
19601,control_change,,,,,14,0,1,,,,,0,11,78,,
19615,control_change,,,,,14,0,1,,,,,0,11,79,,
19620,note_on,,,,,0,0,2,,,,,1,,,57,101
19620,note_on,,,,,60,0,2,,,,,1,,,55,101
19629,control_change,,,,,14,0,1,,,,,0,11,80,,
19638,note_on,,,,,9,0,1,,,,,0,,,57,0
19642,control_change,,,,,4,0,1,,,,,0,11,81,,
19650,note_on,,,,,8,0,1,,,,,0,,,61,101
19656,control_change,,,,,6,0,1,,,,,0,11,82,,
19670,control_change,,,,,14,0,1,,,,,0,11,83,,
19672,note_on,,,,,0,0,2,,,,,1,,,55,0
19672,note_on,,,,,52,0,2,,,,,1,,,57,0
19676,note_on,,,,,6,0,1,,,,,0,,,61,0
19680,note_on,,,,,0,0,2,,,,,1,,,61,101
19680,note_on,,,,,4,0,1,,,,,0,,,65,101
19680,note_on,,,,,8,0,2,,,,,1,,,57,101
19684,control_change,,,,,4,0,1,,,,,0,11,84,,
19698,control_change,,,,,14,0,1,,,,,0,11,85,,
19712,control_change,,,,,14,0,1,,,,,0,11,86,,
19726,control_change,,,,,14,0,1,,,,,0,11,87,,
19732,note_on,,,,,0,0,2,,,,,1,,,57,0
19732,note_on,,,,,52,0,2,,,,,1,,,61,0
19740,note_on,,,,,8,0,2,,,,,1,,,55,101
19740,note_on,,,,,0,0,2,,,,,1,,,57,101
19740,control_change,,,,,14,0,1,,,,,0,11,88,,
19753,control_change,,,,,13,0,1,,,,,0,11,89,,
19767,control_change,,,,,14,0,1,,,,,0,11,90,,
19781,control_change,,,,,14,0,1,,,,,0,11,91,,
19785,note_on,,,,,0,0,3,,,,,2,,,33,0
19785,note_on,,,,,225,0,3,,,,,2,,,45,0
19792,note_on,,,,,52,0,2,,,,,1,,,57,0
19792,note_on,,,,,0,0,2,,,,,1,,,55,0
19795,control_change,,,,,14,0,1,,,,,0,11,92,,
19800,note_on,,,,,0,0,2,,,,,1,,,61,101
19800,note_on,,,,,8,0,2,,,,,1,,,57,101
19809,control_change,,,,,14,0,1,,,,,0,11,93,,
19822,control_change,,,,,13,0,1,,,,,0,11,94,,
19836,control_change,,,,,14,0,1,,,,,0,11,95,,
19845,note_on,,,,,9,0,1,,,,,0,,,65,0
19850,control_change,,,,,5,0,1,,,,,0,11,96,,
19852,note_on,,,,,0,0,2,,,,,1,,,57,0
19852,note_on,,,,,52,0,2,,,,,1,,,61,0
19860,note_on,,,,,0,0,2,,,,,1,,,57,101
19860,note_on,,,,,8,0,2,,,,,1,,,55,101
19860,note_on,,,,,10,0,1,,,,,0,,,64,101
19864,control_change,,,,,4,0,1,,,,,0,11,97,,
19878,control_change,,,,,14,0,1,,,,,0,11,98,,
19892,control_change,,,,,14,0,1,,,,,0,11,99,,
19896,control_change,,,,,36,0,2,,,,,1,64,0,,
19896,control_change,,,,,111,0,3,,,,,2,64,0,,
19896,control_change,,,,,0,0,3,,,,,2,64,0,,
19906,control_change,,,,,14,0,1,,,,,0,11,100,,
19912,note_on,,,,,0,0,2,,,,,1,,,55,0
19912,note_on,,,,,16,0,2,,,,,1,,,57,0
19912,note_on,,,,,6,0,1,,,,,0,,,64,0
19920,control_change,,,,,24,0,3,,,,,2,64,127,,
19920,control_change,,,,,0,0,3,,,,,2,64,127,,
19920,note_on,,,,,0,0,1,,,,,0,,,62,101
19920,control_change,,,,,8,0,1,,,,,0,11,101,,
19920,note_on,,,,,0,0,3,,,,,2,,,38,101
19920,control_change,,,,,8,0,2,,,,,1,64,127,,
19920,note_on,,,,,0,0,3,,,,,2,,,50,101
19933,control_change,,,,,13,0,1,,,,,0,11,100,,
19947,control_change,,,,,14,0,1,,,,,0,11,99,,
19961,control_change,,,,,14,0,1,,,,,0,11,98,,
19975,control_change,,,,,14,0,1,,,,,0,11,97,,
19980,note_on,,,,,0,0,2,,,,,1,,,57,101
19980,note_on,,,,,60,0,2,,,,,1,,,54,101
19989,control_change,,,,,14,0,1,,,,,0,11,96,,
19998,note_on,,,,,9,0,1,,,,,0,,,62,0
20002,control_change,,,,,4,0,1,,,,,0,11,95,,
20010,note_on,,,,,8,0,1,,,,,0,,,57,101
20016,control_change,,,,,6,0,1,,,,,0,11,94,,
20030,control_change,,,,,14,0,1,,,,,0,11,93,,
20032,note_on,,,,,52,0,2,,,,,1,,,57,0
20032,note_on,,,,,0,0,2,,,,,1,,,54,0
20036,note_on,,,,,6,0,1,,,,,0,,,57,0
20040,note_on,,,,,4,0,1,,,,,0,,,54,101
20040,note_on,,,,,8,0,2,,,,,1,,,57,101
20040,note_on,,,,,0,0,2,,,,,1,,,62,101
20044,control_change,,,,,4,0,1,,,,,0,11,92,,
20058,control_change,,,,,14,0,1,,,,,0,11,91,,
20072,control_change,,,,,14,0,1,,,,,0,11,90,,
20086,control_change,,,,,14,0,1,,,,,0,11,89,,
20092,note_on,,,,,52,0,2,,,,,1,,,62,0
20092,note_on,,,,,0,0,2,,,,,1,,,57,0
20100,note_on,,,,,8,0,2,,,,,1,,,54,101
20100,note_on,,,,,0,0,2,,,,,1,,,57,101
20100,control_change,,,,,14,0,1,,,,,0,11,88,,
20113,control_change,,,,,13,0,1,,,,,0,11,87,,
20127,control_change,,,,,14,0,1,,,,,0,11,86,,
20141,control_change,,,,,14,0,1,,,,,0,11,85,,
20145,note_on,,,,,225,0,3,,,,,2,,,50,0
20145,note_on,,,,,0,0,3,,,,,2,,,38,0
20152,note_on,,,,,0,0,2,,,,,1,,,54,0
20152,note_on,,,,,52,0,2,,,,,1,,,57,0
20155,control_change,,,,,14,0,1,,,,,0,11,84,,
20160,note_on,,,,,8,0,2,,,,,1,,,57,101
20160,note_on,,,,,0,0,2,,,,,1,,,62,101
20169,control_change,,,,,14,0,1,,,,,0,11,83,,
20182,control_change,,,,,13,0,1,,,,,0,11,82,,
20196,control_change,,,,,14,0,1,,,,,0,11,81,,
20205,note_on,,,,,9,0,1,,,,,0,,,54,0
20210,control_change,,,,,5,0,1,,,,,0,11,80,,
20212,note_on,,,,,0,0,2,,,,,1,,,57,0
20212,note_on,,,,,52,0,2,,,,,1,,,62,0
20220,note_on,,,,,10,0,1,,,,,0,,,50,101
20220,note_on,,,,,0,0,2,,,,,1,,,57,101
20220,note_on,,,,,8,0,2,,,,,1,,,54,101
20224,control_change,,,,,4,0,1,,,,,0,11,79,,
20238,control_change,,,,,14,0,1,,,,,0,11,78,,
20250,note_on,,,,,12,0,1,,,,,0,,,59,101
20252,control_change,,,,,2,0,1,,,,,0,11,77,,
20256,control_change,,,,,0,0,3,,,,,2,64,0,,
20256,control_change,,,,,36,0,2,,,,,1,64,0,,
20256,control_change,,,,,111,0,3,,,,,2,64,0,,
20263,note_on,,,,,11,0,1,,,,,0,,,59,0
20265,note_on,,,,,2,0,1,,,,,0,,,61,101
20266,control_change,,,,,1,0,1,,,,,0,11,76,,
20272,note_on,,,,,16,0,2,,,,,1,,,57,0
20272,note_on,,,,,6,0,1,,,,,0,,,50,0
20272,note_on,,,,,0,0,2,,,,,1,,,54,0
20278,note_on,,,,,6,0,1,,,,,0,,,61,0
20280,control_change,,,,,2,0,1,,,,,0,11,75,,
20280,note_on,,,,,0,0,3,,,,,2,,,43,101
20280,note_on,,,,,0,0,1,,,,,0,,,59,101
20280,control_change,,,,,24,0,3,,,,,2,64,127,,
20280,control_change,,,,,8,0,2,,,,,1,64,127,,
20280,note_on,,,,,0,0,3,,,,,2,,,31,101
20280,control_change,,,,,0,0,3,,,,,2,64,127,,
20307,control_change,,,,,27,0,1,,,,,0,11,76,,
20315,note_on,,,,,8,0,1,,,,,0,,,59,0
20319,note_on,,,,,4,0,1,,,,,0,,,58,101
20335,control_change,,,,,16,0,1,,,,,0,11,77,,
20340,note_on,,,,,60,0,2,,,,,1,,,55,101
20340,note_on,,,,,0,0,2,,,,,1,,,59,101
20340,note_on,,,,,0,0,2,,,,,1,,,62,101
20355,note_on,,,,,20,0,1,,,,,0,,,58,0
20359,note_on,,,,,4,0,1,,,,,0,,,59,101
20362,control_change,,,,,3,0,1,,,,,0,11,78,,
20390,control_change,,,,,28,0,1,,,,,0,11,79,,
20392,note_on,,,,,0,0,2,,,,,1,,,55,0
20392,note_on,,,,,52,0,2,,,,,1,,,62,0
20392,note_on,,,,,0,0,2,,,,,1,,,59,0
20394,note_on,,,,,4,0,1,,,,,0,,,59,0
20400,note_on,,,,,0,0,2,,,,,1,,,67,101
20400,note_on,,,,,8,0,2,,,,,1,,,59,101
20400,note_on,,,,,6,0,1,,,,,0,,,62,101
20400,note_on,,,,,0,0,2,,,,,1,,,62,101
20418,control_change,,,,,18,0,1,,,,,0,11,80,,
20446,control_change,,,,,28,0,1,,,,,0,11,81,,
20452,note_on,,,,,52,0,2,,,,,1,,,67,0
20452,note_on,,,,,0,0,2,,,,,1,,,62,0
20452,note_on,,,,,0,0,2,,,,,1,,,59,0
20460,note_on,,,,,0,0,2,,,,,1,,,59,101
20460,note_on,,,,,0,0,2,,,,,1,,,62,101
20460,note_on,,,,,8,0,2,,,,,1,,,55,101
20473,control_change,,,,,27,0,1,,,,,0,11,82,,
20501,control_change,,,,,28,0,1,,,,,0,11,83,,
20505,note_on,,,,,225,0,3,,,,,2,,,43,0
20505,note_on,,,,,0,0,3,,,,,2,,,31,0
20512,note_on,,,,,52,0,2,,,,,1,,,62,0
20512,note_on,,,,,0,0,2,,,,,1,,,59,0
20512,note_on,,,,,0,0,2,,,,,1,,,55,0
20520,note_on,,,,,0,0,2,,,,,1,,,67,101
20520,note_on,,,,,0,0,2,,,,,1,,,62,101
20520,note_on,,,,,8,0,2,,,,,1,,,59,101
20529,control_change,,,,,28,0,1,,,,,0,11,84,,
20556,control_change,,,,,27,0,1,,,,,0,11,85,,
20565,note_on,,,,,9,0,1,,,,,0,,,62,0
20572,note_on,,,,,0,0,2,,,,,1,,,59,0
20572,note_on,,,,,0,0,2,,,,,1,,,62,0
20572,note_on,,,,,52,0,2,,,,,1,,,67,0
20580,note_on,,,,,15,0,1,,,,,0,,,59,101
20580,note_on,,,,,8,0,2,,,,,1,,,55,101
20580,note_on,,,,,0,0,2,,,,,1,,,62,101
20580,note_on,,,,,0,0,2,,,,,1,,,59,101
20584,control_change,,,,,4,0,1,,,,,0,11,86,,
20612,control_change,,,,,28,0,1,,,,,0,11,87,,
20616,control_change,,,,,111,0,3,,,,,2,64,0,,
20616,control_change,,,,,36,0,2,,,,,1,64,0,,
20616,control_change,,,,,0,0,3,,,,,2,64,0,,
20632,note_on,,,,,0,0,2,,,,,1,,,55,0
20632,note_on,,,,,20,0,1,,,,,0,,,59,0
20632,note_on,,,,,16,0,2,,,,,1,,,62,0
20632,note_on,,,,,0,0,2,,,,,1,,,59,0
20640,note_on,,,,,0,0,3,,,,,2,,,50,101
20640,control_change,,,,,0,0,3,,,,,2,64,127,,
20640,control_change,,,,,24,0,3,,,,,2,64,127,,
20640,control_change,,,,,8,0,2,,,,,1,64,127,,
20640,note_on,,,,,0,0,1,,,,,0,,,57,101
20640,control_change,,,,,8,0,1,,,,,0,11,88,,
20640,note_on,,,,,0,0,3,,,,,2,,,38,101
20667,control_change,,,,,27,0,1,,,,,0,11,89,,
20695,control_change,,,,,28,0,1,,,,,0,11,90,,
20700,note_on,,,,,0,0,2,,,,,1,,,57,101
20700,note_on,,,,,0,0,2,,,,,1,,,62,101
20700,note_on,,,,,60,0,2,,,,,1,,,54,101
20722,control_change,,,,,27,0,1,,,,,0,11,91,,
20750,control_change,,,,,28,0,1,,,,,0,11,92,,
20752,note_on,,,,,0,0,2,,,,,1,,,54,0
20752,note_on,,,,,0,0,2,,,,,1,,,57,0
20752,note_on,,,,,52,0,2,,,,,1,,,62,0
20760,note_on,,,,,0,0,2,,,,,1,,,66,101
20760,note_on,,,,,0,0,2,,,,,1,,,62,101
20760,note_on,,,,,8,0,2,,,,,1,,,57,101
20778,control_change,,,,,28,0,1,,,,,0,11,93,,
20806,control_change,,,,,28,0,1,,,,,0,11,94,,
20812,note_on,,,,,0,0,2,,,,,1,,,57,0
20812,note_on,,,,,52,0,2,,,,,1,,,66,0
20812,note_on,,,,,0,0,2,,,,,1,,,62,0
20820,note_on,,,,,0,0,2,,,,,1,,,57,101
20820,note_on,,,,,0,0,2,,,,,1,,,62,101
20820,note_on,,,,,8,0,2,,,,,1,,,54,101
20833,control_change,,,,,27,0,1,,,,,0,11,95,,
20861,control_change,,,,,28,0,1,,,,,0,11,96,,
20865,note_on,,,,,0,0,3,,,,,2,,,38,0
20865,note_on,,,,,225,0,3,,,,,2,,,50,0
20872,note_on,,,,,52,0,2,,,,,1,,,62,0
20872,note_on,,,,,0,0,2,,,,,1,,,54,0
20872,note_on,,,,,0,0,2,,,,,1,,,57,0
20880,note_on,,,,,8,0,2,,,,,1,,,57,101
20880,note_on,,,,,0,0,2,,,,,1,,,66,101
20880,note_on,,,,,0,0,2,,,,,1,,,62,101
20889,control_change,,,,,28,0,1,,,,,0,11,97,,
20916,control_change,,,,,27,0,1,,,,,0,11,98,,
20932,note_on,,,,,0,0,2,,,,,1,,,57,0
20932,note_on,,,,,0,0,2,,,,,1,,,62,0
20932,note_on,,,,,52,0,2,,,,,1,,,66,0
20940,note_on,,,,,8,0,2,,,,,1,,,54,101
20940,note_on,,,,,0,0,2,,,,,1,,,57,101
20940,note_on,,,,,0,0,2,,,,,1,,,62,101
20944,control_change,,,,,28,0,1,,,,,0,11,99,,
20972,control_change,,,,,28,0,1,,,,,0,11,100,,
20976,control_change,,,,,111,0,3,,,,,2,64,0,,
20976,control_change,,,,,36,0,2,,,,,1,64,0,,
20976,control_change,,,,,0,0,3,,,,,2,64,0,,
20985,note_on,,,,,13,0,1,,,,,0,,,57,0
20992,note_on,,,,,0,0,2,,,,,1,,,54,0
20992,note_on,,,,,0,0,2,,,,,1,,,57,0
20992,note_on,,,,,16,0,2,,,,,1,,,62,0
21000,control_change,,,,,0,0,2,,,,,1,11,75,,
21000,set_tempo,,,,,1790,1,0,,1052631,,,,,,,
21000,note_on,,,,,0,0,3,,,,,2,,,33,101
21000,note_on,,,,,0,0,2,,,,,1,,,79,101
21000,note_on,,,,,0,0,2,,,,,1,,,67,101
21000,control_change,,,,,24,0,3,,,,,2,64,127,,
21000,control_change,,,,,0,0,3,,,,,2,64,127,,
21000,note_on,,,,,0,0,3,,,,,2,,,45,101
21000,note_on,,,,,15,0,1,,,,,0,,,64,101
21000,control_change,,,,,0,0,3,,,,,2,11,72,,
21000,control_change,,,,,8,0,2,,,,,1,64,127,,
21035,note_on,,,,,35,0,1,,,,,0,,,64,0
21035,note_on,,,,,0,0,2,,,,,1,,,67,0
21035,note_on,,,,,35,0,2,,,,,1,,,79,0
21039,note_on,,,,,4,0,2,,,,,1,,,66,101
21039,note_on,,,,,4,0,1,,,,,0,,,63,101
21039,note_on,,,,,0,0,2,,,,,1,,,78,101
21052,note_on,,,,,52,0,3,,,,,2,,,45,0
21052,note_on,,,,,0,0,3,,,,,2,,,33,0
21060,note_on,,,,,8,0,3,,,,,2,,,52,101
21060,note_on,,,,,0,0,3,,,,,2,,,57,101
21075,note_on,,,,,36,0,1,,,,,0,,,63,0
21075,note_on,,,,,0,0,2,,,,,1,,,66,0
21075,note_on,,,,,36,0,2,,,,,1,,,78,0
21079,note_on,,,,,4,0,1,,,,,0,,,64,101
21079,note_on,,,,,0,0,2,,,,,1,,,79,101
21079,note_on,,,,,4,0,2,,,,,1,,,67,101
21112,note_on,,,,,52,0,3,,,,,2,,,57,0
21112,note_on,,,,,0,0,3,,,,,2,,,52,0
21114,note_on,,,,,35,0,2,,,,,1,,,79,0
21114,note_on,,,,,0,0,2,,,,,1,,,67,0
21114,note_on,,,,,35,0,1,,,,,0,,,64,0
21120,note_on,,,,,6,0,2,,,,,1,,,71,101
21120,note_on,,,,,0,0,2,,,,,1,,,83,101
21120,note_on,,,,,6,0,1,,,,,0,,,67,101
21120,note_on,,,,,0,0,3,,,,,2,,,61,101
21120,note_on,,,,,8,0,3,,,,,2,,,57,101
21172,note_on,,,,,52,0,3,,,,,2,,,61,0
21172,note_on,,,,,0,0,3,,,,,2,,,57,0
21180,note_on,,,,,8,0,3,,,,,2,,,52,101
21180,note_on,,,,,0,0,3,,,,,2,,,57,101
21232,note_on,,,,,0,0,3,,,,,2,,,52,0
21232,note_on,,,,,52,0,3,,,,,2,,,57,0
21240,note_on,,,,,8,0,3,,,,,2,,,57,101
21240,note_on,,,,,0,0,3,,,,,2,,,61,101
21285,note_on,,,,,165,0,2,,,,,1,,,83,0
21285,note_on,,,,,0,0,2,,,,,1,,,71,0
21285,note_on,,,,,165,0,1,,,,,0,,,67,0
21292,note_on,,,,,0,0,3,,,,,2,,,57,0
21292,note_on,,,,,52,0,3,,,,,2,,,61,0
21300,note_on,,,,,0,0,3,,,,,2,,,57,101
21300,note_on,,,,,15,0,2,,,,,1,,,67,101
21300,note_on,,,,,15,0,1,,,,,0,,,61,101
21300,note_on,,,,,0,0,2,,,,,1,,,79,101
21300,note_on,,,,,8,0,3,,,,,2,,,52,101
21336,control_change,,,,,0,0,3,,,,,2,64,0,,
21336,control_change,,,,,36,0,2,,,,,1,64,0,,
21336,control_change,,,,,36,0,3,,,,,2,64,0,,
21352,note_on,,,,,52,0,1,,,,,0,,,61,0
21352,note_on,,,,,16,0,2,,,,,1,,,79,0
21352,note_on,,,,,0,0,3,,,,,2,,,52,0
21352,note_on,,,,,16,0,3,,,,,2,,,57,0
21352,note_on,,,,,0,0,2,,,,,1,,,67,0
21360,note_on,,,,,8,0,1,,,,,0,,,62,101
21360,control_change,,,,,0,0,3,,,,,2,64,127,,
21360,control_change,,,,,8,0,2,,,,,1,64,127,,
21360,control_change,,,,,8,0,3,,,,,2,64,127,,
21360,note_on,,,,,0,0,2,,,,,1,,,78,101
21360,note_on,,,,,0,0,3,,,,,2,,,38,101
21360,note_on,,,,,0,0,2,,,,,1,,,66,101
21370,set_tempo,,,,,370,1,0,,857142,,,,,,,
21412,note_on,,,,,52,0,3,,,,,2,,,38,0
21420,note_on,,,,,0,0,3,,,,,2,,,54,101
21420,note_on,,,,,0,0,3,,,,,2,,,57,101
21420,note_on,,,,,8,0,3,,,,,2,,,50,101
21472,note_on,,,,,52,0,3,,,,,2,,,57,0
21472,note_on,,,,,0,0,3,,,,,2,,,50,0
21472,note_on,,,,,0,0,3,,,,,2,,,54,0
21480,note_on,,,,,8,0,3,,,,,2,,,54,101
21480,note_on,,,,,0,0,3,,,,,2,,,57,101
21480,note_on,,,,,0,0,3,,,,,2,,,62,101
21532,note_on,,,,,0,0,3,,,,,2,,,57,0
21532,note_on,,,,,0,0,3,,,,,2,,,54,0
21532,note_on,,,,,52,0,3,,,,,2,,,62,0
21540,note_on,,,,,0,0,3,,,,,2,,,54,101
21540,note_on,,,,,0,0,3,,,,,2,,,57,101
21540,note_on,,,,,8,0,3,,,,,2,,,50,101
21585,note_on,,,,,225,0,1,,,,,0,,,62,0
21585,note_on,,,,,0,0,2,,,,,1,,,66,0
21585,note_on,,,,,225,0,2,,,,,1,,,78,0
21592,note_on,,,,,52,0,3,,,,,2,,,57,0
21592,note_on,,,,,0,0,3,,,,,2,,,50,0
21592,note_on,,,,,0,0,3,,,,,2,,,54,0
21600,note_on,,,,,8,0,3,,,,,2,,,54,101
21600,note_on,,,,,0,0,3,,,,,2,,,57,101
21600,note_on,,,,,0,0,3,,,,,2,,,62,101
21652,note_on,,,,,0,0,3,,,,,2,,,54,0
21652,note_on,,,,,0,0,3,,,,,2,,,57,0
21652,note_on,,,,,52,0,3,,,,,2,,,62,0
21660,note_on,,,,,8,0,3,,,,,2,,,50,101
21660,note_on,,,,,0,0,3,,,,,2,,,54,101
21660,note_on,,,,,0,0,3,,,,,2,,,57,101
21696,control_change,,,,,0,0,3,,,,,2,64,0,,
21696,control_change,,,,,111,0,2,,,,,1,64,0,,
21696,control_change,,,,,36,0,3,,,,,2,64,0,,
21712,note_on,,,,,0,0,3,,,,,2,,,50,0
21712,note_on,,,,,0,0,3,,,,,2,,,54,0
21712,note_on,,,,,16,0,3,,,,,2,,,57,0
21720,note_on,,,,,0,0,3,,,,,2,,,33,101
21720,note_on,,,,,0,0,3,,,,,2,,,45,101
21720,control_change,,,,,24,0,2,,,,,1,64,127,,
21720,control_change,,,,,8,0,3,,,,,2,64,127,,
21720,control_change,,,,,0,0,3,,,,,2,64,127,,
21720,note_on,,,,,135,0,1,,,,,0,,,57,101
21730,set_tempo,,,,,360,1,0,,779220,,,,,,,
21772,note_on,,,,,0,0,3,,,,,2,,,33,0
21772,note_on,,,,,52,0,3,,,,,2,,,45,0
21780,note_on,,,,,8,0,3,,,,,2,,,45,101
21780,note_on,,,,,0,0,3,,,,,2,,,49,101
21780,note_on,,,,,0,0,3,,,,,2,,,52,101
21798,note_on,,,,,78,0,1,,,,,0,,,57,0
21810,note_on,,,,,12,0,1,,,,,0,,,57,101
21832,note_on,,,,,0,0,3,,,,,2,,,45,0
21832,note_on,,,,,0,0,3,,,,,2,,,49,0
21832,note_on,,,,,52,0,3,,,,,2,,,52,0
21836,note_on,,,,,26,0,1,,,,,0,,,57,0
21840,note_on,,,,,8,0,3,,,,,2,,,49,101
21840,note_on,,,,,0,0,3,,,,,2,,,55,101
21840,note_on,,,,,4,0,1,,,,,0,,,61,101
21840,note_on,,,,,0,0,3,,,,,2,,,52,101
21892,note_on,,,,,0,0,3,,,,,2,,,52,0
21892,note_on,,,,,0,0,3,,,,,2,,,49,0
21892,note_on,,,,,52,0,3,,,,,2,,,55,0
21900,note_on,,,,,8,0,3,,,,,2,,,45,101
21900,note_on,,,,,0,0,3,,,,,2,,,49,101
21900,note_on,,,,,0,0,3,,,,,2,,,52,101
21918,note_on,,,,,78,0,1,,,,,0,,,61,0
21930,note_on,,,,,12,0,1,,,,,0,,,61,101
21952,note_on,,,,,52,0,3,,,,,2,,,52,0
21952,note_on,,,,,0,0,3,,,,,2,,,45,0
21952,note_on,,,,,0,0,3,,,,,2,,,49,0
21956,note_on,,,,,26,0,1,,,,,0,,,61,0
21960,note_on,,,,,0,0,3,,,,,2,,,52,114
21960,note_on,,,,,4,0,1,,,,,0,,,64,101
21960,note_on,,,,,8,0,3,,,,,2,,,46,114
21960,note_on,,,,,0,0,3,,,,,2,,,49,114
22012,note_on,,,,,0,0,3,,,,,2,,,49,0
22012,note_on,,,,,52,0,3,,,,,2,,,52,0
22012,note_on,,,,,0,0,3,,,,,2,,,46,0
22020,note_on,,,,,0,0,3,,,,,2,,,55,101
22020,note_on,,,,,8,0,3,,,,,2,,,49,101
22020,note_on,,,,,0,0,3,,,,,2,,,52,101
22038,note_on,,,,,78,0,1,,,,,0,,,64,0
22050,note_on,,,,,12,0,1,,,,,0,,,64,101
22056,control_change,,,,,336,0,2,,,,,1,64,0,,
22056,control_change,,,,,0,0,3,,,,,2,64,0,,
22056,control_change,,,,,36,0,3,,,,,2,64,0,,
22072,note_on,,,,,16,0,3,,,,,2,,,55,0
22072,note_on,,,,,0,0,3,,,,,2,,,49,0
22072,note_on,,,,,0,0,3,,,,,2,,,52,0
22076,note_on,,,,,26,0,1,,,,,0,,,64,0
22080,control_change,,,,,0,0,3,,,,,2,11,75,,
22080,control_change,,,,,0,0,2,,,,,1,11,75,,
22080,control_change,,,,,24,0,2,,,,,1,64,127,,
22080,control_change,,,,,8,0,3,,,,,2,64,127,,
22080,control_change,,,,,0,0,3,,,,,2,64,127,,
22080,note_on,,,,,0,0,3,,,,,2,,,45,101
22080,note_on,,,,,0,0,3,,,,,2,,,33,101
22080,note_on,,,,,4,0,1,,,,,0,,,62,101
22080,note_on,,,,,0,0,2,,,,,1,,,57,101
22080,note_on,,,,,0,0,2,,,,,1,,,69,101
22093,control_change,,,,,13,0,2,,,,,1,11,76,,
22093,control_change,,,,,13,0,3,,,,,2,11,76,,
22107,control_change,,,,,14,0,2,,,,,1,11,77,,
22107,control_change,,,,,14,0,3,,,,,2,11,77,,
22121,control_change,,,,,14,0,3,,,,,2,11,78,,
22121,control_change,,,,,14,0,2,,,,,1,11,78,,
22132,note_on,,,,,11,0,3,,,,,2,,,45,0
22132,note_on,,,,,0,0,3,,,,,2,,,33,0
22135,control_change,,,,,3,0,3,,,,,2,11,79,,
22135,control_change,,,,,14,0,2,,,,,1,11,79,,
22140,note_on,,,,,5,0,3,,,,,2,,,45,101
22140,note_on,,,,,0,0,3,,,,,2,,,52,101
22149,control_change,,,,,14,0,2,,,,,1,11,80,,
22149,control_change,,,,,9,0,3,,,,,2,11,80,,
22158,note_on,,,,,9,0,2,,,,,1,,,69,0
22158,note_on,,,,,0,0,2,,,,,1,,,57,0
22162,control_change,,,,,13,0,3,,,,,2,11,81,,
22162,control_change,,,,,4,0,2,,,,,1,11,81,,
22170,note_on,,,,,0,0,2,,,,,1,,,69,101
22170,note_on,,,,,8,0,2,,,,,1,,,57,101
22176,control_change,,,,,6,0,2,,,,,1,11,82,,
22176,control_change,,,,,14,0,3,,,,,2,11,82,,
22185,note_on,,,,,105,0,1,,,,,0,,,62,0
22190,control_change,,,,,14,0,3,,,,,2,11,83,,
22190,control_change,,,,,14,0,2,,,,,1,11,83,,
22192,note_on,,,,,2,0,3,,,,,2,,,52,0
22192,note_on,,,,,0,0,3,,,,,2,,,45,0
22196,note_on,,,,,6,0,2,,,,,1,,,69,0
22196,note_on,,,,,0,0,2,,,,,1,,,57,0
22200,note_on,,,,,0,0,3,,,,,2,,,55,101
22200,note_on,,,,,8,0,3,,,,,2,,,52,101
22200,note_on,,,,,4,0,2,,,,,1,,,61,101
22200,note_on,,,,,0,0,2,,,,,1,,,73,101
22200,note_on,,,,,15,0,1,,,,,0,,,61,101
22204,control_change,,,,,4,0,3,,,,,2,11,84,,
22204,control_change,,,,,4,0,2,,,,,1,11,84,,
22218,control_change,,,,,14,0,3,,,,,2,11,85,,
22218,control_change,,,,,14,0,2,,,,,1,11,85,,
22232,control_change,,,,,14,0,2,,,,,1,11,86,,
22232,control_change,,,,,14,0,3,,,,,2,11,86,,
22246,control_change,,,,,14,0,2,,,,,1,11,87,,
22246,control_change,,,,,14,0,3,,,,,2,11,87,,
22252,note_on,,,,,0,0,3,,,,,2,,,52,0
22252,note_on,,,,,6,0,3,,,,,2,,,55,0
22260,control_change,,,,,14,0,2,,,,,1,11,88,,
22260,note_on,,,,,0,0,3,,,,,2,,,45,101
22260,note_on,,,,,0,0,3,,,,,2,,,52,101
22260,control_change,,,,,8,0,3,,,,,2,11,88,,
22273,control_change,,,,,13,0,3,,,,,2,11,89,,
22273,control_change,,,,,13,0,2,,,,,1,11,89,,
22278,note_on,,,,,0,0,2,,,,,1,,,61,0
22278,note_on,,,,,5,0,2,,,,,1,,,73,0
22287,control_change,,,,,14,0,3,,,,,2,11,90,,
22287,control_change,,,,,9,0,2,,,,,1,11,90,,
22290,note_on,,,,,0,0,2,,,,,1,,,73,101
22290,note_on,,,,,3,0,2,,,,,1,,,61,101
22301,control_change,,,,,14,0,3,,,,,2,11,91,,
22301,control_change,,,,,11,0,2,,,,,1,11,91,,
22305,note_on,,,,,105,0,1,,,,,0,,,61,0
22312,note_on,,,,,11,0,3,,,,,2,,,52,0
22312,note_on,,,,,0,0,3,,,,,2,,,45,0
22315,control_change,,,,,3,0,3,,,,,2,11,92,,
22315,control_change,,,,,14,0,2,,,,,1,11,92,,
22316,note_on,,,,,1,0,2,,,,,1,,,73,0
22316,note_on,,,,,0,0,2,,,,,1,,,61,0
22320,note_on,,,,,0,0,2,,,,,1,,,76,101
22320,note_on,,,,,5,0,3,,,,,2,,,46,114
22320,note_on,,,,,4,0,2,,,,,1,,,64,101
22320,note_on,,,,,0,0,3,,,,,2,,,49,114
22320,note_on,,,,,0,0,3,,,,,2,,,52,114
22329,control_change,,,,,9,0,2,,,,,1,11,93,,
22329,control_change,,,,,9,0,3,,,,,2,11,93,,
22342,control_change,,,,,13,0,2,,,,,1,11,94,,
22342,control_change,,,,,13,0,3,,,,,2,11,94,,
22356,control_change,,,,,14,0,3,,,,,2,11,95,,
22356,control_change,,,,,14,0,2,,,,,1,11,95,,
22370,control_change,,,,,14,0,3,,,,,2,11,96,,
22370,control_change,,,,,14,0,2,,,,,1,11,96,,
22372,note_on,,,,,0,0,3,,,,,2,,,49,0
22372,note_on,,,,,2,0,3,,,,,2,,,52,0
22372,note_on,,,,,0,0,3,,,,,2,,,46,0
22380,note_on,,,,,0,0,3,,,,,2,,,52,101
22380,note_on,,,,,8,0,3,,,,,2,,,49,101
22380,note_on,,,,,0,0,3,,,,,2,,,55,101
22384,control_change,,,,,4,0,3,,,,,2,11,97,,
22384,control_change,,,,,14,0,2,,,,,1,11,97,,
22398,control_change,,,,,0,0,2,,,,,1,11,98,,
22398,note_on,,,,,14,0,2,,,,,1,,,76,0
22398,control_change,,,,,14,0,3,,,,,2,11,98,,
22398,note_on,,,,,0,0,2,,,,,1,,,64,0
22410,note_on,,,,,12,0,2,,,,,1,,,64,101
22410,note_on,,,,,0,0,2,,,,,1,,,76,101
22412,control_change,,,,,14,0,3,,,,,2,11,99,,
22412,control_change,,,,,2,0,2,,,,,1,11,99,,
22416,control_change,,,,,0,0,3,,,,,2,64,0,,
22416,control_change,,,,,4,0,2,,,,,1,64,0,,
22416,control_change,,,,,4,0,3,,,,,2,64,0,,
22426,control_change,,,,,10,0,3,,,,,2,11,100,,
22426,control_change,,,,,10,0,2,,,,,1,11,100,,
22432,note_on,,,,,0,0,3,,,,,2,,,49,0
22432,note_on,,,,,0,0,3,,,,,2,,,52,0
22432,note_on,,,,,6,0,3,,,,,2,,,55,0
22436,note_on,,,,,0,0,2,,,,,1,,,64,0
22436,note_on,,,,,10,0,2,,,,,1,,,76,0
22440,note_on,,,,,0,0,2,,,,,1,,,62,101
22440,control_change,,,,,0,0,2,,,,,1,11,101,,
22440,control_change,,,,,0,0,3,,,,,2,64,127,,
22440,note_on,,,,,0,0,2,,,,,1,,,74,101
22440,note_on,,,,,135,0,1,,,,,0,,,57,101
22440,note_on,,,,,0,0,3,,,,,2,,,45,101
22440,control_change,,,,,4,0,2,,,,,1,64,127,,
22440,note_on,,,,,0,0,3,,,,,2,,,33,101
22440,control_change,,,,,8,0,3,,,,,2,64,127,,
22440,control_change,,,,,0,0,3,,,,,2,11,101,,
22453,control_change,,,,,13,0,2,,,,,1,11,100,,
22453,control_change,,,,,13,0,3,,,,,2,11,100,,
22467,control_change,,,,,14,0,3,,,,,2,11,99,,
22467,control_change,,,,,14,0,2,,,,,1,11,99,,
22481,control_change,,,,,14,0,3,,,,,2,11,98,,
22481,control_change,,,,,14,0,2,,,,,1,11,98,,
22492,note_on,,,,,11,0,3,,,,,2,,,45,0
22492,note_on,,,,,0,0,3,,,,,2,,,33,0
22495,control_change,,,,,3,0,3,,,,,2,11,97,,
22495,control_change,,,,,14,0,2,,,,,1,11,97,,
22500,note_on,,,,,0,0,3,,,,,2,,,52,101
22500,note_on,,,,,5,0,3,,,,,2,,,45,101
22509,control_change,,,,,9,0,3,,,,,2,11,96,,
22509,control_change,,,,,14,0,2,,,,,1,11,96,,
22522,control_change,,,,,13,0,3,,,,,2,11,95,,
22522,control_change,,,,,13,0,2,,,,,1,11,95,,
22536,control_change,,,,,14,0,3,,,,,2,11,94,,
22536,control_change,,,,,14,0,2,,,,,1,11,94,,
22545,note_on,,,,,0,0,2,,,,,1,,,62,0
22545,note_on,,,,,9,0,2,,,,,1,,,74,0
22550,control_change,,,,,5,0,2,,,,,1,11,93,,
22550,control_change,,,,,14,0,3,,,,,2,11,93,,
22552,note_on,,,,,2,0,3,,,,,2,,,52,0
22552,note_on,,,,,0,0,3,,,,,2,,,45,0
22560,note_on,,,,,0,0,3,,,,,2,,,55,101
22560,note_on,,,,,8,0,3,,,,,2,,,52,101
22560,note_on,,,,,0,0,2,,,,,1,,,73,101
22560,note_on,,,,,10,0,2,,,,,1,,,61,101
22564,control_change,,,,,4,0,2,,,,,1,11,92,,
22564,control_change,,,,,4,0,3,,,,,2,11,92,,
22578,control_change,,,,,14,0,3,,,,,2,11,91,,
22578,control_change,,,,,14,0,2,,,,,1,11,91,,
22592,control_change,,,,,14,0,2,,,,,1,11,90,,
22592,control_change,,,,,14,0,3,,,,,2,11,90,,
22605,note_on,,,,,165,0,1,,,,,0,,,57,0
22606,control_change,,,,,14,0,3,,,,,2,11,89,,
22606,control_change,,,,,14,0,2,,,,,1,11,89,,
22612,note_on,,,,,0,0,3,,,,,2,,,52,0
22612,note_on,,,,,6,0,3,,,,,2,,,55,0
22620,control_change,,,,,8,0,3,,,,,2,11,88,,
22620,note_on,,,,,0,0,3,,,,,2,,,52,101
22620,note_on,,,,,0,0,3,,,,,2,,,45,101
22620,note_on,,,,,15,0,1,,,,,0,,,61,101
22620,control_change,,,,,14,0,2,,,,,1,11,88,,
22633,control_change,,,,,13,0,3,,,,,2,11,87,,
22633,control_change,,,,,13,0,2,,,,,1,11,87,,
22647,control_change,,,,,14,0,2,,,,,1,11,86,,
22647,control_change,,,,,14,0,3,,,,,2,11,86,,
22661,control_change,,,,,14,0,2,,,,,1,11,85,,
22661,control_change,,,,,14,0,3,,,,,2,11,85,,
22665,note_on,,,,,4,0,2,,,,,1,,,73,0
22665,note_on,,,,,0,0,2,,,,,1,,,61,0
22672,note_on,,,,,11,0,3,,,,,2,,,52,0
22672,note_on,,,,,0,0,3,,,,,2,,,45,0
22672,note_on,,,,,52,0,1,,,,,0,,,61,0
22675,control_change,,,,,10,0,2,,,,,1,11,84,,
22675,control_change,,,,,3,0,3,,,,,2,11,84,,
22680,note_on,,,,,5,0,3,,,,,2,,,46,114
22680,note_on,,,,,8,0,1,,,,,0,,,64,101
22680,note_on,,,,,0,0,3,,,,,2,,,52,114
22680,note_on,,,,,0,0,3,,,,,2,,,49,114
22689,control_change,,,,,14,0,2,,,,,1,11,83,,
22689,control_change,,,,,9,0,3,,,,,2,11,83,,
22702,control_change,,,,,13,0,2,,,,,1,11,82,,
22702,control_change,,,,,13,0,3,,,,,2,11,82,,
22716,control_change,,,,,14,0,2,,,,,1,11,81,,
22716,control_change,,,,,14,0,3,,,,,2,11,81,,
22730,control_change,,,,,14,0,3,,,,,2,11,80,,
22730,control_change,,,,,14,0,2,,,,,1,11,80,,
22732,note_on,,,,,0,0,3,,,,,2,,,46,0
22732,note_on,,,,,2,0,3,,,,,2,,,52,0
22732,note_on,,,,,0,0,3,,,,,2,,,49,0
22740,note_on,,,,,0,0,3,,,,,2,,,52,101
22740,note_on,,,,,0,0,3,,,,,2,,,55,101
22740,note_on,,,,,8,0,3,,,,,2,,,49,101
22744,control_change,,,,,4,0,3,,,,,2,11,79,,
22744,control_change,,,,,14,0,2,,,,,1,11,79,,
22758,control_change,,,,,14,0,2,,,,,1,11,78,,
22758,control_change,,,,,14,0,3,,,,,2,11,78,,
22758,note_on,,,,,78,0,1,,,,,0,,,64,0
22770,note_on,,,,,12,0,1,,,,,0,,,62,101
22772,control_change,,,,,14,0,2,,,,,1,11,77,,
22772,control_change,,,,,14,0,3,,,,,2,11,77,,
22776,control_change,,,,,0,0,3,,,,,2,64,0,,
22776,control_change,,,,,4,0,2,,,,,1,64,0,,
22776,control_change,,,,,4,0,3,,,,,2,64,0,,
22786,control_change,,,,,10,0,3,,,,,2,11,76,,
22786,control_change,,,,,10,0,2,,,,,1,11,76,,
22792,note_on,,,,,6,0,3,,,,,2,,,55,0
22792,note_on,,,,,0,0,3,,,,,2,,,49,0
22792,note_on,,,,,0,0,3,,,,,2,,,52,0
22796,note_on,,,,,26,0,1,,,,,0,,,62,0
22800,control_change,,,,,0,0,3,,,,,2,64,127,,
22800,note_on,,,,,0,0,2,,,,,1,,,57,101
22800,note_on,,,,,0,0,3,,,,,2,,,45,101
22800,note_on,,,,,0,0,3,,,,,2,,,33,101
22800,note_on,,,,,0,0,2,,,,,1,,,69,101
22800,control_change,,,,,14,0,2,,,,,1,64,127,,
22800,note_on,,,,,4,0,1,,,,,0,,,61,101
22800,control_change,,,,,8,0,3,,,,,2,64,127,,
22852,note_on,,,,,0,0,3,,,,,2,,,33,0
22852,note_on,,,,,52,0,3,,,,,2,,,45,0
22860,note_on,,,,,0,0,3,,,,,2,,,52,101
22860,note_on,,,,,8,0,3,,,,,2,,,45,101
22912,note_on,,,,,0,0,3,,,,,2,,,45,0
22912,note_on,,,,,52,0,3,,,,,2,,,52,0
22920,note_on,,,,,8,0,3,,,,,2,,,52,101
22920,note_on,,,,,0,0,3,,,,,2,,,55,101
22965,note_on,,,,,165,0,2,,,,,1,,,69,0
22965,note_on,,,,,0,0,2,,,,,1,,,57,0
22972,note_on,,,,,0,0,3,,,,,2,,,52,0
22972,note_on,,,,,52,0,3,,,,,2,,,55,0
22980,note_on,,,,,0,0,3,,,,,2,,,52,101
22980,note_on,,,,,8,0,3,,,,,2,,,45,101
22980,note_on,,,,,15,0,2,,,,,1,,,61,101
22980,note_on,,,,,0,0,2,,,,,1,,,73,101
23025,note_on,,,,,225,0,1,,,,,0,,,61,0
23032,note_on,,,,,52,0,2,,,,,1,,,73,0
23032,note_on,,,,,0,0,3,,,,,2,,,45,0
23032,note_on,,,,,52,0,3,,,,,2,,,52,0
23032,note_on,,,,,0,0,2,,,,,1,,,61,0
23040,note_on,,,,,8,0,3,,,,,2,,,46,101
23040,note_on,,,,,0,0,3,,,,,2,,,49,101
23040,note_on,,,,,0,0,3,,,,,2,,,52,101
23040,note_on,,,,,8,0,2,,,,,1,,,64,101
23040,note_on,,,,,0,0,2,,,,,1,,,76,101
23092,note_on,,,,,52,0,3,,,,,2,,,52,0
23092,note_on,,,,,0,0,3,,,,,2,,,49,0
23092,note_on,,,,,0,0,3,,,,,2,,,46,0
23100,note_on,,,,,0,0,3,,,,,2,,,55,101
23100,note_on,,,,,0,0,3,,,,,2,,,52,101
23100,note_on,,,,,8,0,3,,,,,2,,,49,101
23118,note_on,,,,,78,0,2,,,,,1,,,76,0
23118,note_on,,,,,0,0,2,,,,,1,,,64,0
23130,note_on,,,,,12,0,2,,,,,1,,,74,101
23136,control_change,,,,,36,0,3,,,,,2,64,0,,
23136,control_change,,,,,0,0,3,,,,,2,64,0,,
23136,control_change,,,,,6,0,2,,,,,1,64,0,,
23152,note_on,,,,,0,0,3,,,,,2,,,49,0
23152,note_on,,,,,16,0,3,,,,,2,,,55,0
23152,note_on,,,,,0,0,3,,,,,2,,,52,0
23156,note_on,,,,,20,0,2,,,,,1,,,74,0
23160,control_change,,,,,0,0,3,,,,,2,64,127,,
23160,control_change,,,,,0,0,3,,,,,2,11,101,,
23160,control_change,,,,,4,0,2,,,,,1,64,127,,
23160,note_on,,,,,0,0,3,,,,,2,,,34,101
23160,note_on,,,,,0,0,2,,,,,1,,,73,101
23160,note_on,,,,,0,0,3,,,,,2,,,46,101
23160,control_change,,,,,0,0,2,,,,,1,11,101,,
23160,note_on,,,,,0,0,2,,,,,1,,,66,101
23160,control_change,,,,,8,0,3,,,,,2,64,127,,
23160,note_on,,,,,135,0,1,,,,,0,,,66,101
23160,note_on,,,,,0,0,2,,,,,1,,,64,101
23173,control_change,,,,,13,0,2,,,,,1,11,100,,
23173,control_change,,,,,13,0,3,,,,,2,11,100,,
23187,control_change,,,,,14,0,3,,,,,2,11,99,,
23187,control_change,,,,,14,0,2,,,,,1,11,99,,
23201,control_change,,,,,14,0,2,,,,,1,11,98,,
23201,control_change,,,,,14,0,3,,,,,2,11,98,,
23212,note_on,,,,,11,0,3,,,,,2,,,46,0
23212,note_on,,,,,0,0,3,,,,,2,,,34,0
23215,control_change,,,,,3,0,3,,,,,2,11,97,,
23215,control_change,,,,,14,0,2,,,,,1,11,97,,
23220,note_on,,,,,5,0,3,,,,,2,,,52,101
23220,note_on,,,,,0,0,3,,,,,2,,,54,101
23229,control_change,,,,,9,0,3,,,,,2,11,96,,
23229,control_change,,,,,14,0,2,,,,,1,11,96,,
23242,control_change,,,,,13,0,3,,,,,2,11,95,,
23242,control_change,,,,,13,0,2,,,,,1,11,95,,
23256,control_change,,,,,14,0,3,,,,,2,11,94,,
23256,control_change,,,,,14,0,2,,,,,1,11,94,,
23270,control_change,,,,,14,0,2,,,,,1,11,93,,
23270,control_change,,,,,14,0,3,,,,,2,11,93,,
23272,note_on,,,,,2,0,3,,,,,2,,,54,0
23272,note_on,,,,,0,0,3,,,,,2,,,52,0
23280,note_on,,,,,8,0,3,,,,,2,,,54,101
23280,note_on,,,,,0,0,3,,,,,2,,,61,101
23284,control_change,,,,,4,0,3,,,,,2,11,92,,
23284,control_change,,,,,14,0,2,,,,,1,11,92,,
23298,control_change,,,,,14,0,3,,,,,2,11,91,,
23298,control_change,,,,,14,0,2,,,,,1,11,91,,
23312,control_change,,,,,14,0,2,,,,,1,11,90,,
23312,control_change,,,,,14,0,3,,,,,2,11,90,,
23325,note_on,,,,,165,0,1,,,,,0,,,66,0
23326,control_change,,,,,14,0,2,,,,,1,11,89,,
23326,control_change,,,,,14,0,3,,,,,2,11,89,,
23332,note_on,,,,,0,0,3,,,,,2,,,54,0
23332,note_on,,,,,6,0,3,,,,,2,,,61,0
23340,control_change,,,,,8,0,3,,,,,2,11,88,,
23340,note_on,,,,,15,0,1,,,,,0,,,64,101
23340,note_on,,,,,0,0,3,,,,,2,,,52,101
23340,note_on,,,,,0,0,3,,,,,2,,,54,101
23340,control_change,,,,,14,0,2,,,,,1,11,88,,
23353,control_change,,,,,13,0,2,,,,,1,11,87,,
23353,control_change,,,,,13,0,3,,,,,2,11,87,,
23367,control_change,,,,,14,0,2,,,,,1,11,86,,
23367,control_change,,,,,14,0,3,,,,,2,11,86,,
23381,control_change,,,,,14,0,2,,,,,1,11,85,,
23381,control_change,,,,,14,0,3,,,,,2,11,85,,
23392,note_on,,,,,52,0,1,,,,,0,,,64,0
23392,note_on,,,,,0,0,3,,,,,2,,,52,0
23392,note_on,,,,,11,0,3,,,,,2,,,54,0
23395,control_change,,,,,3,0,3,,,,,2,11,84,,
23395,control_change,,,,,14,0,2,,,,,1,11,84,,
23400,note_on,,,,,8,0,1,,,,,0,,,64,101
23400,note_on,,,,,5,0,3,,,,,2,,,54,101
23400,note_on,,,,,0,0,3,,,,,2,,,61,101
23409,control_change,,,,,14,0,2,,,,,1,11,83,,
23409,control_change,,,,,9,0,3,,,,,2,11,83,,
23422,control_change,,,,,13,0,2,,,,,1,11,82,,
23422,control_change,,,,,13,0,3,,,,,2,11,82,,
23435,note_on,,,,,35,0,1,,,,,0,,,64,0
23436,control_change,,,,,14,0,3,,,,,2,11,81,,
23436,control_change,,,,,14,0,2,,,,,1,11,81,,
23439,note_on,,,,,4,0,1,,,,,0,,,62,101
23450,control_change,,,,,14,0,3,,,,,2,11,80,,
23450,control_change,,,,,14,0,2,,,,,1,11,80,,
23452,note_on,,,,,2,0,3,,,,,2,,,61,0
23452,note_on,,,,,0,0,3,,,,,2,,,54,0
23460,note_on,,,,,8,0,3,,,,,2,,,52,101
23460,note_on,,,,,0,0,3,,,,,2,,,54,101
23464,control_change,,,,,14,0,2,,,,,1,11,79,,
23464,control_change,,,,,4,0,3,,,,,2,11,79,,
23475,note_on,,,,,36,0,1,,,,,0,,,62,0
23478,control_change,,,,,14,0,3,,,,,2,11,78,,
23478,control_change,,,,,14,0,2,,,,,1,11,78,,
23479,note_on,,,,,4,0,1,,,,,0,,,61,101
23492,control_change,,,,,14,0,3,,,,,2,11,77,,
23492,control_change,,,,,14,0,2,,,,,1,11,77,,
23496,control_change,,,,,4,0,3,,,,,2,64,0,,
23496,control_change,,,,,4,0,2,,,,,1,64,0,,
23496,control_change,,,,,0,0,3,,,,,2,64,0,,
23505,note_on,,,,,0,0,2,,,,,1,,,64,0
23505,note_on,,,,,0,0,2,,,,,1,,,66,0
23505,note_on,,,,,9,0,2,,,,,1,,,73,0
23506,control_change,,,,,1,0,2,,,,,1,11,76,,
23506,control_change,,,,,10,0,3,,,,,2,11,76,,
23512,note_on,,,,,0,0,3,,,,,2,,,52,0
23512,note_on,,,,,6,0,3,,,,,2,,,54,0
23514,note_on,,,,,35,0,1,,,,,0,,,61,0
23520,note_on,,,,,6,0,1,,,,,0,,,59,101
23520,control_change,,,,,14,0,2,,,,,1,64,127,,
23520,control_change,,,,,0,0,3,,,,,2,64,127,,
23520,note_on,,,,,0,0,2,,,,,1,,,62,101
23520,note_on,,,,,0,0,3,,,,,2,,,47,101
23520,note_on,,,,,0,0,2,,,,,1,,,66,101
23520,note_on,,,,,0,0,2,,,,,1,,,71,101
23520,note_on,,,,,0,0,3,,,,,2,,,35,101
23520,control_change,,,,,8,0,3,,,,,2,64,127,,
23572,note_on,,,,,0,0,3,,,,,2,,,35,0
23572,note_on,,,,,52,0,3,,,,,2,,,47,0
23580,note_on,,,,,0,0,3,,,,,2,,,54,101
23580,note_on,,,,,8,0,3,,,,,2,,,50,101
23598,note_on,,,,,78,0,1,,,,,0,,,59,0
23610,note_on,,,,,12,0,1,,,,,0,,,61,101
23632,note_on,,,,,52,0,3,,,,,2,,,54,0
23632,note_on,,,,,0,0,3,,,,,2,,,50,0
23636,note_on,,,,,26,0,1,,,,,0,,,61,0
23640,note_on,,,,,0,0,3,,,,,2,,,59,101
23640,note_on,,,,,4,0,1,,,,,0,,,62,114
23640,note_on,,,,,8,0,3,,,,,2,,,54,101
23692,note_on,,,,,52,0,3,,,,,2,,,59,0
23692,note_on,,,,,0,0,3,,,,,2,,,54,0
23700,note_on,,,,,8,0,3,,,,,2,,,50,101
23700,note_on,,,,,0,0,3,,,,,2,,,54,101
23745,note_on,,,,,0,0,2,,,,,1,,,66,0
23745,note_on,,,,,225,0,2,,,,,1,,,71,0
23745,note_on,,,,,0,0,2,,,,,1,,,62,0
23745,note_on,,,,,105,0,1,,,,,0,,,62,0
23752,note_on,,,,,52,0,3,,,,,2,,,54,0
23752,note_on,,,,,0,0,3,,,,,2,,,50,0
23760,note_on,,,,,15,0,1,,,,,0,,,59,101
23760,note_on,,,,,0,0,3,,,,,2,,,59,101
23760,note_on,,,,,8,0,3,,,,,2,,,54,101
23812,note_on,,,,,52,0,3,,,,,2,,,59,0
23812,note_on,,,,,52,0,1,,,,,0,,,59,0
23812,note_on,,,,,0,0,3,,,,,2,,,54,0
23820,note_on,,,,,0,0,3,,,,,2,,,54,101
23820,note_on,,,,,8,0,3,,,,,2,,,50,101
23856,control_change,,,,,36,0,3,,,,,2,64,0,,
23856,control_change,,,,,111,0,2,,,,,1,64,0,,
23856,control_change,,,,,0,0,3,,,,,2,64,0,,
23872,note_on,,,,,0,0,3,,,,,2,,,50,0
23872,note_on,,,,,16,0,3,,,,,2,,,54,0
23880,note_on,,,,,0,0,2,,,,,1,,,64,101
23880,control_change,,,,,0,0,2,,,,,1,11,101,,
23880,note_on,,,,,0,0,2,,,,,1,,,71,101
23880,note_on,,,,,0,0,2,,,,,1,,,67,101
23880,control_change,,,,,8,0,3,,,,,2,64,127,,
23880,control_change,,,,,24,0,2,,,,,1,64,127,,
23880,control_change,,,,,0,0,3,,,,,2,11,101,,
23880,note_on,,,,,0,0,3,,,,,2,,,47,101
23880,control_change,,,,,0,0,3,,,,,2,64,127,,
23880,note_on,,,,,0,0,3,,,,,2,,,35,101
23932,note_on,,,,,52,0,3,,,,,2,,,47,0
23932,note_on,,,,,0,0,3,,,,,2,,,35,0
23940,note_on,,,,,0,0,3,,,,,2,,,55,101
23940,note_on,,,,,0,0,3,,,,,2,,,52,101
23940,note_on,,,,,8,0,3,,,,,2,,,47,101
23958,note_on,,,,,78,0,2,,,,,1,,,71,0
23970,note_on,,,,,12,0,2,,,,,1,,,73,101
23985,note_on,,,,,0,0,2,,,,,1,,,64,0
23985,note_on,,,,,15,0,2,,,,,1,,,67,0
23992,note_on,,,,,52,0,3,,,,,2,,,55,0
23992,note_on,,,,,0,0,3,,,,,2,,,47,0
23992,note_on,,,,,0,0,3,,,,,2,,,52,0
23996,note_on,,,,,11,0,2,,,,,1,,,73,0
24000,note_on,,,,,0,0,3,,,,,2,,,55,101
24000,note_on,,,,,0,0,3,,,,,2,,,59,101
24000,note_on,,,,,0,0,2,,,,,1,,,67,101
24000,note_on,,,,,0,0,2,,,,,1,,,64,101
24000,note_on,,,,,4,0,2,,,,,1,,,74,114
24000,note_on,,,,,8,0,3,,,,,2,,,52,101
24052,note_on,,,,,0,0,3,,,,,2,,,52,0
24052,note_on,,,,,0,0,3,,,,,2,,,55,0
24052,note_on,,,,,52,0,3,,,,,2,,,59,0
24060,note_on,,,,,0,0,3,,,,,2,,,55,101
24060,note_on,,,,,8,0,3,,,,,2,,,47,101
24060,note_on,,,,,0,0,3,,,,,2,,,52,101
24105,note_on,,,,,105,0,2,,,,,1,,,74,0
24112,note_on,,,,,52,0,3,,,,,2,,,55,0
24112,note_on,,,,,0,0,3,,,,,2,,,47,0
24112,note_on,,,,,0,0,3,,,,,2,,,52,0
24120,note_on,,,,,0,0,3,,,,,2,,,55,101
24120,note_on,,,,,0,0,3,,,,,2,,,59,101
24120,note_on,,,,,8,0,3,,,,,2,,,52,101
24120,note_on,,,,,15,0,2,,,,,1,,,71,101
24172,note_on,,,,,0,0,3,,,,,2,,,52,0
24172,note_on,,,,,0,0,3,,,,,2,,,55,0
24172,note_on,,,,,52,0,3,,,,,2,,,59,0
24180,note_on,,,,,0,0,3,,,,,2,,,52,101
24180,note_on,,,,,0,0,3,,,,,2,,,55,101
24180,note_on,,,,,8,0,3,,,,,2,,,47,101
24216,control_change,,,,,36,0,3,,,,,2,64,0,,
24216,control_change,,,,,96,0,2,,,,,1,64,0,,
24216,control_change,,,,,0,0,3,,,,,2,64,0,,
24225,note_on,,,,,0,0,2,,,,,1,,,67,0
24225,note_on,,,,,9,0,2,,,,,1,,,71,0
24225,note_on,,,,,0,0,2,,,,,1,,,64,0
24232,note_on,,,,,16,0,3,,,,,2,,,55,0
24232,note_on,,,,,0,0,3,,,,,2,,,52,0
24232,note_on,,,,,0,0,3,,,,,2,,,47,0
24240,control_change,,,,,15,0,2,,,,,1,64,127,,
24240,note_on,,,,,0,0,2,,,,,1,,,62,101
24240,note_on,,,,,0,0,2,,,,,1,,,66,101
24240,note_on,,,,,0,0,2,,,,,1,,,71,101
24240,note_on,,,,,0,0,3,,,,,2,,,47,101
24240,note_on,,,,,0,0,3,,,,,2,,,35,101
24240,control_change,,,,,0,0,3,,,,,2,64,127,,
24240,control_change,,,,,8,0,3,,,,,2,64,127,,
24292,note_on,,,,,0,0,3,,,,,2,,,35,0
24292,note_on,,,,,52,0,3,,,,,2,,,47,0
24300,note_on,,,,,8,0,3,,,,,2,,,47,101
24300,note_on,,,,,0,0,3,,,,,2,,,54,101
24300,note_on,,,,,0,0,3,,,,,2,,,50,101
24318,note_on,,,,,78,0,2,,,,,1,,,71,0
24330,note_on,,,,,12,0,2,,,,,1,,,73,101
24345,note_on,,,,,0,0,2,,,,,1,,,62,0
24345,note_on,,,,,15,0,2,,,,,1,,,66,0
24352,note_on,,,,,52,0,3,,,,,2,,,54,0
24352,note_on,,,,,0,0,3,,,,,2,,,50,0
24352,note_on,,,,,0,0,3,,,,,2,,,47,0
24356,note_on,,,,,11,0,2,,,,,1,,,73,0
24360,note_on,,,,,0,0,3,,,,,2,,,54,101
24360,note_on,,,,,0,0,2,,,,,1,,,66,101
24360,note_on,,,,,8,0,3,,,,,2,,,50,101
24360,note_on,,,,,0,0,2,,,,,1,,,62,101
24360,note_on,,,,,0,0,3,,,,,2,,,59,101
24360,note_on,,,,,4,0,2,,,,,1,,,74,114
24412,note_on,,,,,0,0,3,,,,,2,,,54,0
24412,note_on,,,,,52,0,3,,,,,2,,,59,0
24412,note_on,,,,,0,0,3,,,,,2,,,50,0
24420,note_on,,,,,0,0,3,,,,,2,,,54,101
24420,note_on,,,,,8,0,3,,,,,2,,,47,101
24420,note_on,,,,,0,0,3,,,,,2,,,50,101
24465,note_on,,,,,105,0,2,,,,,1,,,74,0
24472,note_on,,,,,0,0,3,,,,,2,,,47,0
24472,note_on,,,,,52,0,3,,,,,2,,,54,0
24472,note_on,,,,,0,0,3,,,,,2,,,50,0
24480,note_on,,,,,0,0,3,,,,,2,,,54,101
24480,note_on,,,,,0,0,3,,,,,2,,,59,101
24480,note_on,,,,,8,0,3,,,,,2,,,50,101
24480,note_on,,,,,15,0,2,,,,,1,,,71,101
24532,note_on,,,,,52,0,3,,,,,2,,,59,0
24532,note_on,,,,,52,0,2,,,,,1,,,71,0
24532,note_on,,,,,0,0,3,,,,,2,,,50,0
24532,note_on,,,,,0,0,3,,,,,2,,,54,0
24540,note_on,,,,,8,0,3,,,,,2,,,47,101
24540,note_on,,,,,0,0,3,,,,,2,,,54,101
24540,note_on,,,,,0,0,3,,,,,2,,,50,101
24570,note_on,,,,,758,0,1,,,,,0,,,59,101
24576,control_change,,,,,0,0,3,,,,,2,64,0,,
24576,control_change,,,,,36,0,3,,,,,2,64,0,,
24576,control_change,,,,,44,0,2,,,,,1,64,0,,
24583,note_on,,,,,13,0,1,,,,,0,,,59,0
24585,note_on,,,,,9,0,2,,,,,1,,,66,0
24585,note_on,,,,,0,0,2,,,,,1,,,62,0
24585,note_on,,,,,2,0,1,,,,,0,,,61,101
24592,note_on,,,,,0,0,3,,,,,2,,,47,0
24592,note_on,,,,,0,0,3,,,,,2,,,50,0
24592,note_on,,,,,16,0,3,,,,,2,,,54,0
24598,note_on,,,,,13,0,1,,,,,0,,,61,0
24600,note_on,,,,,0,0,3,,,,,2,,,43,101
24600,control_change,,,,,15,0,2,,,,,1,64,127,,
24600,note_on,,,,,0,0,3,,,,,2,,,31,101
24600,control_change,,,,,0,0,3,,,,,2,11,75,,
24600,control_change,,,,,0,0,3,,,,,2,64,127,,
24600,control_change,,,,,8,0,3,,,,,2,64,127,,
24600,note_on,,,,,2,0,1,,,,,0,,,59,101
24600,control_change,,,,,0,0,2,,,,,1,11,75,,
24635,note_on,,,,,35,0,1,,,,,0,,,59,0
24639,note_on,,,,,4,0,1,,,,,0,,,58,101
24660,note_on,,,,,0,0,2,,,,,1,,,59,101
24660,note_on,,,,,0,0,2,,,,,1,,,62,101
24660,note_on,,,,,60,0,2,,,,,1,,,55,101
24675,note_on,,,,,36,0,1,,,,,0,,,58,0
24679,note_on,,,,,4,0,1,,,,,0,,,59,101
24712,note_on,,,,,52,0,2,,,,,1,,,62,0
24712,note_on,,,,,0,0,2,,,,,1,,,59,0
24712,note_on,,,,,0,0,2,,,,,1,,,55,0
24714,note_on,,,,,35,0,1,,,,,0,,,59,0
24720,note_on,,,,,8,0,2,,,,,1,,,59,101
24720,note_on,,,,,0,0,2,,,,,1,,,62,101
24720,note_on,,,,,6,0,1,,,,,0,,,62,101
24720,note_on,,,,,0,0,2,,,,,1,,,67,101
24772,note_on,,,,,52,0,2,,,,,1,,,67,0
24772,note_on,,,,,0,0,2,,,,,1,,,59,0
24772,note_on,,,,,0,0,2,,,,,1,,,62,0
24780,note_on,,,,,0,0,2,,,,,1,,,59,101
24780,note_on,,,,,0,0,2,,,,,1,,,62,101
24780,note_on,,,,,8,0,2,,,,,1,,,55,101
24825,note_on,,,,,0,0,3,,,,,2,,,31,0
24825,note_on,,,,,225,0,3,,,,,2,,,43,0
24832,note_on,,,,,0,0,2,,,,,1,,,55,0
24832,note_on,,,,,0,0,2,,,,,1,,,59,0
24832,note_on,,,,,52,0,2,,,,,1,,,62,0
24840,note_on,,,,,0,0,2,,,,,1,,,62,101
24840,note_on,,,,,8,0,2,,,,,1,,,59,101
24840,note_on,,,,,0,0,2,,,,,1,,,67,101
24885,note_on,,,,,165,0,1,,,,,0,,,62,0
24892,note_on,,,,,0,0,2,,,,,1,,,59,0
24892,note_on,,,,,52,0,2,,,,,1,,,67,0
24892,note_on,,,,,0,0,2,,,,,1,,,62,0
24900,note_on,,,,,0,0,2,,,,,1,,,59,101
24900,note_on,,,,,8,0,2,,,,,1,,,55,101
24900,note_on,,,,,15,0,1,,,,,0,,,59,101
24900,note_on,,,,,0,0,2,,,,,1,,,62,101
24936,control_change,,,,,36,0,2,,,,,1,64,0,,
24936,control_change,,,,,0,0,3,,,,,2,64,0,,
24936,control_change,,,,,111,0,3,,,,,2,64,0,,
24952,note_on,,,,,52,0,1,,,,,0,,,59,0
24952,note_on,,,,,0,0,2,,,,,1,,,55,0
24952,note_on,,,,,16,0,2,,,,,1,,,62,0
24952,note_on,,,,,0,0,2,,,,,1,,,59,0
24960,control_change,,,,,24,0,3,,,,,2,64,127,,
24960,note_on,,,,,0,0,3,,,,,2,,,50,101
24960,note_on,,,,,8,0,1,,,,,0,,,57,101
24960,control_change,,,,,8,0,2,,,,,1,64,127,,
24960,note_on,,,,,0,0,3,,,,,2,,,38,101
24960,control_change,,,,,0,0,3,,,,,2,64,127,,
25020,note_on,,,,,60,0,2,,,,,1,,,54,101
25020,note_on,,,,,0,0,2,,,,,1,,,57,101
25020,note_on,,,,,0,0,2,,,,,1,,,62,101
25072,note_on,,,,,52,0,2,,,,,1,,,62,0
25072,note_on,,,,,0,0,2,,,,,1,,,54,0
25072,note_on,,,,,0,0,2,,,,,1,,,57,0
25080,note_on,,,,,8,0,2,,,,,1,,,57,101
25080,note_on,,,,,0,0,2,,,,,1,,,62,101
25080,note_on,,,,,0,0,2,,,,,1,,,66,101
25132,note_on,,,,,52,0,2,,,,,1,,,66,0
25132,note_on,,,,,0,0,2,,,,,1,,,57,0
25132,note_on,,,,,0,0,2,,,,,1,,,62,0
25140,note_on,,,,,0,0,2,,,,,1,,,62,101
25140,note_on,,,,,8,0,2,,,,,1,,,54,101
25140,note_on,,,,,0,0,2,,,,,1,,,57,101
25185,note_on,,,,,225,0,3,,,,,2,,,50,0
25185,note_on,,,,,0,0,3,,,,,2,,,38,0
25192,note_on,,,,,0,0,2,,,,,1,,,54,0
25192,note_on,,,,,0,0,2,,,,,1,,,57,0
25192,note_on,,,,,52,0,2,,,,,1,,,62,0
25200,note_on,,,,,0,0,2,,,,,1,,,62,101
25200,note_on,,,,,8,0,2,,,,,1,,,57,101
25200,note_on,,,,,0,0,2,,,,,1,,,66,101
25252,note_on,,,,,52,0,2,,,,,1,,,66,0
25252,note_on,,,,,0,0,2,,,,,1,,,57,0
25252,note_on,,,,,0,0,2,,,,,1,,,62,0
25260,note_on,,,,,8,0,2,,,,,1,,,54,101
25260,note_on,,,,,0,0,2,,,,,1,,,62,101
25260,note_on,,,,,0,0,2,,,,,1,,,57,101
25296,control_change,,,,,36,0,2,,,,,1,64,0,,
25296,control_change,,,,,111,0,3,,,,,2,64,0,,
25296,control_change,,,,,0,0,3,,,,,2,64,0,,
25305,note_on,,,,,345,0,1,,,,,0,,,57,0
25312,note_on,,,,,16,0,2,,,,,1,,,62,0
25312,note_on,,,,,0,0,2,,,,,1,,,57,0
25312,note_on,,,,,0,0,2,,,,,1,,,54,0
25320,control_change,,,,,24,0,3,,,,,2,64,127,,
25320,control_change,,,,,0,0,3,,,,,2,11,101,,
25320,note_on,,,,,0,0,3,,,,,2,,,45,101
25320,note_on,,,,,0,0,3,,,,,2,,,33,101
25320,control_change,,,,,0,0,2,,,,,1,11,101,,
25320,note_on,,,,,0,0,1,,,,,0,,,64,101
25320,control_change,,,,,0,0,3,,,,,2,64,127,,
25320,note_on,,,,,0,0,2,,,,,1,,,67,101
25320,note_on,,,,,0,0,2,,,,,1,,,79,101
25320,control_change,,,,,8,0,2,,,,,1,64,127,,
25320,control_change,,,,,15,0,1,,,,,0,11,101,,
25330,set_tempo,,,,,3600,1,0,,967741,,,,,,,
25355,note_on,,,,,35,0,1,,,,,0,,,64,0
25355,note_on,,,,,35,0,2,,,,,1,,,79,0
25355,note_on,,,,,0,0,2,,,,,1,,,67,0
25359,note_on,,,,,4,0,1,,,,,0,,,63,101
25359,note_on,,,,,4,0,2,,,,,1,,,66,101
25359,note_on,,,,,0,0,2,,,,,1,,,78,101
25372,note_on,,,,,52,0,3,,,,,2,,,45,0
25372,note_on,,,,,0,0,3,,,,,2,,,33,0
25380,note_on,,,,,8,0,3,,,,,2,,,52,101
25380,note_on,,,,,0,0,3,,,,,2,,,57,101
25395,note_on,,,,,0,0,2,,,,,1,,,66,0
25395,note_on,,,,,36,0,2,,,,,1,,,78,0
25395,note_on,,,,,36,0,1,,,,,0,,,63,0
25399,note_on,,,,,4,0,1,,,,,0,,,64,101
25399,note_on,,,,,0,0,2,,,,,1,,,79,101
25399,note_on,,,,,4,0,2,,,,,1,,,67,101
25432,note_on,,,,,52,0,3,,,,,2,,,57,0
25432,note_on,,,,,0,0,3,,,,,2,,,52,0
25434,note_on,,,,,35,0,2,,,,,1,,,79,0
25434,note_on,,,,,35,0,1,,,,,0,,,64,0
25434,note_on,,,,,0,0,2,,,,,1,,,67,0
25440,note_on,,,,,8,0,3,,,,,2,,,57,101
25440,note_on,,,,,0,0,3,,,,,2,,,61,101
25440,note_on,,,,,6,0,2,,,,,1,,,71,101
25440,note_on,,,,,6,0,1,,,,,0,,,67,101
25440,note_on,,,,,0,0,2,,,,,1,,,83,101
25492,note_on,,,,,0,0,3,,,,,2,,,57,0
25492,note_on,,,,,52,0,3,,,,,2,,,61,0
25500,note_on,,,,,0,0,3,,,,,2,,,57,101
25500,note_on,,,,,8,0,3,,,,,2,,,52,101
25552,note_on,,,,,0,0,3,,,,,2,,,52,0
25552,note_on,,,,,52,0,3,,,,,2,,,57,0
25560,note_on,,,,,0,0,3,,,,,2,,,61,101
25560,note_on,,,,,8,0,3,,,,,2,,,57,101
25605,note_on,,,,,165,0,2,,,,,1,,,83,0
25605,note_on,,,,,0,0,2,,,,,1,,,71,0
25605,note_on,,,,,165,0,1,,,,,0,,,67,0
25612,note_on,,,,,52,0,3,,,,,2,,,61,0
25612,note_on,,,,,0,0,3,,,,,2,,,57,0
25620,note_on,,,,,0,0,3,,,,,2,,,57,101
25620,note_on,,,,,8,0,3,,,,,2,,,52,101
25620,note_on,,,,,15,0,2,,,,,1,,,67,101
25620,note_on,,,,,0,0,2,,,,,1,,,79,101
25620,note_on,,,,,15,0,1,,,,,0,,,61,101
25656,control_change,,,,,0,0,3,,,,,2,64,0,,
25656,control_change,,,,,36,0,3,,,,,2,64,0,,
25656,control_change,,,,,36,0,2,,,,,1,64,0,,
25672,note_on,,,,,0,0,2,,,,,1,,,67,0
25672,note_on,,,,,16,0,3,,,,,2,,,57,0
25672,note_on,,,,,0,0,3,,,,,2,,,52,0
25672,note_on,,,,,16,0,2,,,,,1,,,79,0
25672,note_on,,,,,52,0,1,,,,,0,,,61,0
25680,note_on,,,,,0,0,2,,,,,1,,,66,101
25680,note_on,,,,,0,0,2,,,,,1,,,78,101
25680,control_change,,,,,8,0,2,,,,,1,64,127,,
25680,control_change,,,,,8,0,1,,,,,0,11,101,,
25680,control_change,,,,,0,0,2,,,,,1,11,101,,
25680,control_change,,,,,8,0,3,,,,,2,64,127,,
25680,note_on,,,,,0,0,3,,,,,2,,,38,101
25680,note_on,,,,,0,0,1,,,,,0,,,62,101
25680,control_change,,,,,0,0,3,,,,,2,11,101,,
25680,control_change,,,,,0,0,3,,,,,2,64,127,,
25690,set_tempo,,,,,360,1,0,,857142,,,,,,,
25732,note_on,,,,,52,0,3,,,,,2,,,38,0
25735,control_change,,,,,3,0,3,,,,,2,11,100,,
25735,control_change,,,,,55,0,1,,,,,0,11,100,,
25735,control_change,,,,,55,0,2,,,,,1,11,100,,
25740,note_on,,,,,0,0,3,,,,,2,,,57,101
25740,note_on,,,,,0,0,3,,,,,2,,,54,101
25740,note_on,,,,,5,0,3,,,,,2,,,50,101
25790,control_change,,,,,50,0,3,,,,,2,11,99,,
25790,control_change,,,,,55,0,1,,,,,0,11,99,,
25790,control_change,,,,,55,0,2,,,,,1,11,99,,
25792,note_on,,,,,2,0,3,,,,,2,,,57,0
25792,note_on,,,,,0,0,3,,,,,2,,,50,0
25792,note_on,,,,,0,0,3,,,,,2,,,54,0
25800,note_on,,,,,0,0,3,,,,,2,,,57,101
25800,note_on,,,,,0,0,3,,,,,2,,,62,101
25800,note_on,,,,,8,0,3,,,,,2,,,54,101
25846,control_change,,,,,56,0,1,,,,,0,11,98,,
25846,control_change,,,,,56,0,2,,,,,1,11,98,,
25846,control_change,,,,,46,0,3,,,,,2,11,98,,
25852,note_on,,,,,6,0,3,,,,,2,,,62,0
25852,note_on,,,,,0,0,3,,,,,2,,,54,0
25852,note_on,,,,,0,0,3,,,,,2,,,57,0
25860,note_on,,,,,0,0,3,,,,,2,,,57,101
25860,note_on,,,,,0,0,3,,,,,2,,,54,101
25860,note_on,,,,,8,0,3,,,,,2,,,50,101
25901,control_change,,,,,55,0,2,,,,,1,11,97,,
25901,control_change,,,,,41,0,3,,,,,2,11,97,,
25901,control_change,,,,,55,0,1,,,,,0,11,97,,
25912,note_on,,,,,0,0,3,,,,,2,,,54,0
25912,note_on,,,,,0,0,3,,,,,2,,,50,0
25912,note_on,,,,,11,0,3,,,,,2,,,57,0
25920,note_on,,,,,0,0,3,,,,,2,,,57,101
25920,note_on,,,,,8,0,3,,,,,2,,,54,101
25920,note_on,,,,,0,0,3,,,,,2,,,62,101
25956,control_change,,,,,36,0,3,,,,,2,11,96,,
25956,control_change,,,,,55,0,1,,,,,0,11,96,,
25956,control_change,,,,,55,0,2,,,,,1,11,96,,
25972,note_on,,,,,0,0,3,,,,,2,,,54,0
25972,note_on,,,,,0,0,3,,,,,2,,,57,0
25972,note_on,,,,,16,0,3,,,,,2,,,62,0
25980,note_on,,,,,8,0,3,,,,,2,,,50,101
25980,note_on,,,,,0,0,3,,,,,2,,,57,101
25980,note_on,,,,,0,0,3,,,,,2,,,54,101
26012,control_change,,,,,32,0,3,,,,,2,11,95,,
26012,control_change,,,,,56,0,1,,,,,0,11,95,,
26012,control_change,,,,,56,0,2,,,,,1,11,95,,
26016,control_change,,,,,4,0,2,,,,,1,64,0,,
26016,control_change,,,,,0,0,3,,,,,2,64,0,,
26016,control_change,,,,,4,0,3,,,,,2,64,0,,
26025,note_on,,,,,9,0,2,,,,,1,,,78,0
26025,note_on,,,,,0,0,2,,,,,1,,,66,0
26032,note_on,,,,,16,0,3,,,,,2,,,57,0
26032,note_on,,,,,0,0,3,,,,,2,,,54,0
26032,note_on,,,,,0,0,3,,,,,2,,,50,0
26040,control_change,,,,,8,0,3,,,,,2,64,127,,
26040,note_on,,,,,0,0,2,,,,,1,,,77,101
26040,note_on,,,,,0,0,3,,,,,2,,,38,101
26040,note_on,,,,,0,0,2,,,,,1,,,65,101
26040,control_change,,,,,0,0,3,,,,,2,64,127,,
26040,control_change,,,,,15,0,2,,,,,1,64,127,,
26067,control_change,,,,,27,0,2,,,,,1,11,94,,
26067,control_change,,,,,27,0,3,,,,,2,11,94,,
26067,control_change,,,,,55,0,1,,,,,0,11,94,,
26092,note_on,,,,,25,0,3,,,,,2,,,38,0
26100,note_on,,,,,0,0,3,,,,,2,,,57,101
26100,note_on,,,,,8,0,3,,,,,2,,,50,101
26100,note_on,,,,,0,0,3,,,,,2,,,53,101
26122,control_change,,,,,55,0,1,,,,,0,11,93,,
26122,control_change,,,,,22,0,3,,,,,2,11,93,,
26122,control_change,,,,,55,0,2,,,,,1,11,93,,
26145,note_on,,,,,23,0,1,,,,,0,,,62,0
26152,note_on,,,,,0,0,3,,,,,2,,,53,0
26152,note_on,,,,,0,0,3,,,,,2,,,50,0
26152,note_on,,,,,30,0,3,,,,,2,,,57,0
26160,note_on,,,,,0,0,3,,,,,2,,,62,101
26160,note_on,,,,,0,0,3,,,,,2,,,57,101
26160,note_on,,,,,8,0,3,,,,,2,,,53,101
26178,control_change,,,,,33,0,1,,,,,0,11,92,,
26178,control_change,,,,,18,0,3,,,,,2,11,92,,
26178,control_change,,,,,56,0,2,,,,,1,11,92,,
26212,note_on,,,,,34,0,3,,,,,2,,,62,0
26212,note_on,,,,,0,0,3,,,,,2,,,53,0
26212,note_on,,,,,0,0,3,,,,,2,,,57,0
26220,note_on,,,,,8,0,3,,,,,2,,,50,101
26220,note_on,,,,,0,0,3,,,,,2,,,53,101
26220,note_on,,,,,0,0,3,,,,,2,,,57,101
26233,control_change,,,,,55,0,1,,,,,0,11,91,,
26233,control_change,,,,,13,0,3,,,,,2,11,91,,
26233,control_change,,,,,55,0,2,,,,,1,11,91,,
26272,note_on,,,,,0,0,3,,,,,2,,,50,0
26272,note_on,,,,,0,0,3,,,,,2,,,53,0
26272,note_on,,,,,39,0,3,,,,,2,,,57,0
26280,note_on,,,,,0,0,3,,,,,2,,,62,101
26280,note_on,,,,,0,0,3,,,,,2,,,57,101
26280,note_on,,,,,8,0,3,,,,,2,,,53,101
26280,note_on,,,,,47,0,1,,,,,0,,,62,101
26289,control_change,,,,,56,0,2,,,,,1,11,90,,
26289,control_change,,,,,9,0,3,,,,,2,11,90,,
26289,control_change,,,,,9,0,1,,,,,0,11,90,,
26332,note_on,,,,,0,0,3,,,,,2,,,57,0
26332,note_on,,,,,0,0,3,,,,,2,,,53,0
26332,note_on,,,,,43,0,3,,,,,2,,,62,0
26340,note_on,,,,,0,0,3,,,,,2,,,57,101
26340,note_on,,,,,0,0,3,,,,,2,,,53,101
26340,note_on,,,,,8,0,3,,,,,2,,,50,101
26344,control_change,,,,,4,0,3,,,,,2,11,89,,
26344,control_change,,,,,55,0,1,,,,,0,11,89,,
26344,control_change,,,,,55,0,2,,,,,1,11,89,,
26376,control_change,,,,,0,0,3,,,,,2,64,0,,
26376,control_change,,,,,32,0,2,,,,,1,64,0,,
26376,control_change,,,,,32,0,3,,,,,2,64,0,,
26385,note_on,,,,,9,0,2,,,,,1,,,77,0
26385,note_on,,,,,41,0,1,,,,,0,,,62,0
26385,note_on,,,,,0,0,2,,,,,1,,,65,0
26392,note_on,,,,,16,0,3,,,,,2,,,57,0
26392,note_on,,,,,0,0,3,,,,,2,,,50,0
26392,note_on,,,,,0,0,3,,,,,2,,,53,0
26400,control_change,,,,,0,0,2,,,,,1,11,88,,
26400,control_change,,,,,15,0,2,,,,,1,64,127,,
26400,note_on,,,,,0,0,2,,,,,1,,,76,101
26400,control_change,,,,,0,0,3,,,,,2,11,88,,
26400,control_change,,,,,0,0,3,,,,,2,64,127,,
26400,note_on,,,,,0,0,3,,,,,2,,,31,101
26400,note_on,,,,,0,0,2,,,,,1,,,64,101
26400,note_on,,,,,0,0,3,,,,,2,,,43,101
26400,note_on,,,,,0,0,1,,,,,0,,,58,101
26400,control_change,,,,,15,0,1,,,,,0,11,88,,
26400,control_change,,,,,8,0,3,,,,,2,64,127,,
26452,note_on,,,,,52,0,3,,,,,2,,,43,0
26452,note_on,,,,,0,0,3,,,,,2,,,31,0
26455,control_change,,,,,55,0,1,,,,,0,11,87,,
26455,control_change,,,,,3,0,3,,,,,2,11,87,,
26455,control_change,,,,,55,0,2,,,,,1,11,87,,
26460,note_on,,,,,0,0,3,,,,,2,,,55,101
26460,note_on,,,,,5,0,3,,,,,2,,,52,101
26510,control_change,,,,,55,0,2,,,,,1,11,86,,
26510,control_change,,,,,55,0,1,,,,,0,11,86,,
26510,control_change,,,,,50,0,3,,,,,2,11,86,,
26512,note_on,,,,,2,0,3,,,,,2,,,55,0
26512,note_on,,,,,0,0,3,,,,,2,,,52,0
26520,note_on,,,,,8,0,3,,,,,2,,,55,101
26520,note_on,,,,,0,0,3,,,,,2,,,58,101
26566,control_change,,,,,56,0,2,,,,,1,11,85,,
26566,control_change,,,,,56,0,1,,,,,0,11,85,,
26566,control_change,,,,,46,0,3,,,,,2,11,85,,
26572,note_on,,,,,0,0,3,,,,,2,,,55,0
26572,note_on,,,,,6,0,3,,,,,2,,,58,0
26580,note_on,,,,,8,0,3,,,,,2,,,52,101
26580,note_on,,,,,0,0,3,,,,,2,,,55,101
26621,control_change,,,,,55,0,1,,,,,0,11,84,,
26621,control_change,,,,,55,0,2,,,,,1,11,84,,
26621,control_change,,,,,41,0,3,,,,,2,11,84,,
26632,note_on,,,,,11,0,3,,,,,2,,,55,0
26632,note_on,,,,,0,0,3,,,,,2,,,52,0
26640,note_on,,,,,8,0,3,,,,,2,,,55,101
26640,note_on,,,,,0,0,3,,,,,2,,,58,101
26676,control_change,,,,,55,0,1,,,,,0,11,83,,
26676,control_change,,,,,55,0,2,,,,,1,11,83,,
26676,control_change,,,,,36,0,3,,,,,2,11,83,,
26692,note_on,,,,,16,0,3,,,,,2,,,58,0
26692,note_on,,,,,0,0,3,,,,,2,,,55,0
26700,note_on,,,,,0,0,3,,,,,2,,,55,101
26700,note_on,,,,,8,0,3,,,,,2,,,52,101
26732,control_change,,,,,32,0,3,,,,,2,11,82,,
26732,control_change,,,,,56,0,2,,,,,1,11,82,,
26732,control_change,,,,,56,0,1,,,,,0,11,82,,
26736,control_change,,,,,0,0,3,,,,,2,64,0,,
26736,control_change,,,,,4,0,2,,,,,1,64,0,,
26736,control_change,,,,,4,0,3,,,,,2,64,0,,
26745,note_on,,,,,0,0,2,,,,,1,,,64,0
26745,note_on,,,,,13,0,1,,,,,0,,,58,0
26745,note_on,,,,,9,0,2,,,,,1,,,76,0
26752,note_on,,,,,16,0,3,,,,,2,,,55,0
26752,note_on,,,,,0,0,3,,,,,2,,,52,0
26760,control_change,,,,,15,0,2,,,,,1,64,127,,
26760,note_on,,,,,0,0,3,,,,,2,,,33,101
26760,note_on,,,,,0,0,2,,,,,1,,,73,101
26760,control_change,,,,,0,0,3,,,,,2,64,127,,
26760,note_on,,,,,0,0,2,,,,,1,,,61,101
26760,note_on,,,,,0,0,3,,,,,2,,,45,101
26760,note_on,,,,,15,0,1,,,,,0,,,57,101
26760,control_change,,,,,8,0,3,,,,,2,64,127,,
26787,control_change,,,,,27,0,2,,,,,1,11,81,,
26787,control_change,,,,,27,0,3,,,,,2,11,81,,
26787,control_change,,,,,27,0,1,,,,,0,11,81,,
26812,note_on,,,,,25,0,3,,,,,2,,,45,0
26812,note_on,,,,,0,0,3,,,,,2,,,33,0
26820,note_on,,,,,8,0,3,,,,,2,,,52,101
26820,note_on,,,,,0,0,3,,,,,2,,,55,101
26842,control_change,,,,,22,0,3,,,,,2,11,80,,
26842,control_change,,,,,55,0,2,,,,,1,11,80,,
26842,control_change,,,,,55,0,1,,,,,0,11,80,,
26872,note_on,,,,,30,0,3,,,,,2,,,55,0
26872,note_on,,,,,0,0,3,,,,,2,,,52,0
26880,note_on,,,,,0,0,3,,,,,2,,,57,101
26880,note_on,,,,,8,0,3,,,,,2,,,55,101
26898,control_change,,,,,56,0,1,,,,,0,11,79,,
26898,control_change,,,,,18,0,3,,,,,2,11,79,,
26898,control_change,,,,,56,0,2,,,,,1,11,79,,
26932,note_on,,,,,0,0,3,,,,,2,,,55,0
26932,note_on,,,,,34,0,3,,,,,2,,,57,0
26940,note_on,,,,,8,0,3,,,,,2,,,52,101
26940,note_on,,,,,0,0,3,,,,,2,,,55,101
26953,control_change,,,,,55,0,1,,,,,0,11,78,,
26953,control_change,,,,,13,0,3,,,,,2,11,78,,
26953,control_change,,,,,55,0,2,,,,,1,11,78,,
26992,note_on,,,,,39,0,3,,,,,2,,,55,0
26992,note_on,,,,,0,0,3,,,,,2,,,52,0
27000,note_on,,,,,8,0,3,,,,,2,,,55,101
27000,note_on,,,,,0,0,3,,,,,2,,,57,101
27009,control_change,,,,,56,0,1,,,,,0,11,77,,
27009,control_change,,,,,56,0,2,,,,,1,11,77,,
27009,control_change,,,,,9,0,3,,,,,2,11,77,,
27052,note_on,,,,,0,0,3,,,,,2,,,55,0
27052,note_on,,,,,43,0,3,,,,,2,,,57,0
27060,note_on,,,,,0,0,3,,,,,2,,,55,101
27060,note_on,,,,,8,0,3,,,,,2,,,52,101
27064,control_change,,,,,4,0,3,,,,,2,11,76,,
27064,control_change,,,,,55,0,2,,,,,1,11,76,,
27064,control_change,,,,,55,0,1,,,,,0,11,76,,
27096,control_change,,,,,32,0,2,,,,,1,64,0,,
27096,control_change,,,,,32,0,3,,,,,2,64,0,,
27096,control_change,,,,,0,0,3,,,,,2,64,0,,
27105,note_on,,,,,0,0,2,,,,,1,,,61,0
27105,note_on,,,,,9,0,2,,,,,1,,,73,0
27105,note_on,,,,,41,0,1,,,,,0,,,57,0
27112,note_on,,,,,16,0,3,,,,,2,,,55,0
27112,note_on,,,,,0,0,3,,,,,2,,,52,0
27120,control_change,,,,,15,0,2,,,,,1,64,127,,
27120,control_change,,,,,0,0,3,,,,,2,11,75,,
27120,control_change,,,,,0,0,2,,,,,1,11,75,,
27120,note_on,,,,,0,0,2,,,,,1,,,74,101
27120,control_change,,,,,15,0,1,,,,,0,11,75,,
27120,note_on,,,,,0,0,1,,,,,0,,,54,101
27120,control_change,,,,,8,0,3,,,,,2,64,127,,
27120,note_on,,,,,0,0,3,,,,,2,,,38,101
27120,control_change,,,,,0,0,3,,,,,2,64,127,,
27120,note_on,,,,,0,0,2,,,,,1,,,62,101
27172,note_on,,,,,52,0,3,,,,,2,,,38,0
27180,note_on,,,,,8,0,3,,,,,2,,,50,101
27180,note_on,,,,,0,0,3,,,,,2,,,54,101
27207,control_change,,,,,27,0,3,,,,,2,11,74,,
27207,control_change,,,,,87,0,1,,,,,0,11,74,,
27207,control_change,,,,,87,0,2,,,,,1,11,74,,
27232,note_on,,,,,0,0,3,,,,,2,,,50,0
27232,note_on,,,,,25,0,3,,,,,2,,,54,0
27240,note_on,,,,,8,0,3,,,,,2,,,54,101
27240,note_on,,,,,0,0,3,,,,,2,,,57,101
27292,note_on,,,,,0,0,3,,,,,2,,,54,0
27292,note_on,,,,,52,0,3,,,,,2,,,57,0
27294,control_change,,,,,87,0,1,,,,,0,11,73,,
27294,control_change,,,,,2,0,3,,,,,2,11,73,,
27294,control_change,,,,,87,0,2,,,,,1,11,73,,
27300,note_on,,,,,0,0,3,,,,,2,,,54,101
27300,note_on,,,,,6,0,3,,,,,2,,,50,101
27345,note_on,,,,,51,0,1,,,,,0,,,54,0
27345,note_on,,,,,51,0,2,,,,,1,,,74,0
27345,note_on,,,,,0,0,2,,,,,1,,,62,0
27352,note_on,,,,,52,0,3,,,,,2,,,54,0
27352,note_on,,,,,0,0,3,,,,,2,,,50,0
27360,note_on,,,,,0,0,3,,,,,2,,,57,101
27360,note_on,,,,,15,0,2,,,,,1,,,66,101
27360,note_on,,,,,0,0,2,,,,,1,,,69,101
27360,note_on,,,,,8,0,3,,,,,2,,,54,101
27381,control_change,,,,,21,0,3,,,,,2,11,72,,
27381,control_change,,,,,21,0,2,,,,,1,11,72,,
27381,control_change,,,,,36,0,1,,,,,0,11,72,,
27412,note_on,,,,,0,0,3,,,,,2,,,54,0
27412,note_on,,,,,31,0,3,,,,,2,,,57,0
27420,note_on,,,,,0,0,3,,,,,2,,,54,101
27420,note_on,,,,,8,0,3,,,,,2,,,50,101
27456,control_change,,,,,75,0,2,,,,,1,64,0,,
27456,control_change,,,,,36,0,3,,,,,2,64,0,,
27456,control_change,,,,,0,0,3,,,,,2,64,0,,
27465,note_on,,,,,9,0,2,,,,,1,,,69,0
27465,note_on,,,,,0,0,2,,,,,1,,,66,0
27468,control_change,,,,,3,0,2,,,,,1,11,71,,
27468,control_change,,,,,12,0,3,,,,,2,11,71,,
27468,control_change,,,,,87,0,1,,,,,0,11,71,,
27472,note_on,,,,,0,0,3,,,,,2,,,50,0
27472,note_on,,,,,4,0,3,,,,,2,,,54,0
27480,control_change,,,,,8,0,3,,,,,2,64,127,,
27480,control_change,,,,,12,0,2,,,,,1,64,127,,
27480,control_change,,,,,0,0,3,,,,,2,64,127,,
27480,note_on,,,,,0,0,2,,,,,1,,,67,101
27480,note_on,,,,,0,0,2,,,,,1,,,70,101
27480,note_on,,,,,0,0,3,,,,,2,,,38,101
27532,note_on,,,,,52,0,3,,,,,2,,,38,0
27540,note_on,,,,,8,0,3,,,,,2,,,50,101
27540,note_on,,,,,0,0,3,,,,,2,,,55,101
27556,control_change,,,,,76,0,2,,,,,1,11,70,,
27556,control_change,,,,,88,0,1,,,,,0,11,70,,
27556,control_change,,,,,16,0,3,,,,,2,11,70,,
27592,note_on,,,,,36,0,3,,,,,2,,,55,0
27592,note_on,,,,,0,0,3,,,,,2,,,50,0
27600,note_on,,,,,8,0,3,,,,,2,,,55,101
27600,note_on,,,,,0,0,3,,,,,2,,,58,101
27643,control_change,,,,,87,0,1,,,,,0,11,69,,
27643,control_change,,,,,43,0,3,,,,,2,11,69,,
27643,control_change,,,,,87,0,2,,,,,1,11,69,,
27652,note_on,,,,,9,0,3,,,,,2,,,58,0
27652,note_on,,,,,0,0,3,,,,,2,,,55,0
27660,note_on,,,,,8,0,3,,,,,2,,,50,101
27660,note_on,,,,,0,0,3,,,,,2,,,55,101
27705,note_on,,,,,62,0,2,,,,,1,,,70,0
27705,note_on,,,,,0,0,2,,,,,1,,,67,0
27712,note_on,,,,,52,0,3,,,,,2,,,55,0
27712,note_on,,,,,0,0,3,,,,,2,,,50,0
27720,note_on,,,,,0,0,3,,,,,2,,,58,101
27720,note_on,,,,,0,0,2,,,,,1,,,74,101
27720,note_on,,,,,15,0,2,,,,,1,,,70,101
27720,note_on,,,,,8,0,3,,,,,2,,,55,101
27730,control_change,,,,,10,0,3,,,,,2,11,68,,
27730,control_change,,,,,87,0,1,,,,,0,11,68,,
27730,control_change,,,,,10,0,2,,,,,1,11,68,,
27772,note_on,,,,,42,0,3,,,,,2,,,58,0
27772,note_on,,,,,0,0,3,,,,,2,,,55,0
27780,note_on,,,,,8,0,3,,,,,2,,,50,101
27780,note_on,,,,,0,0,3,,,,,2,,,55,101
27798,note_on,,,,,68,0,2,,,,,1,,,74,0
27798,note_on,,,,,0,0,2,,,,,1,,,70,0
27810,note_on,,,,,12,0,2,,,,,1,,,67,101
27810,note_on,,,,,0,0,2,,,,,1,,,70,101
27816,control_change,,,,,0,0,3,,,,,2,64,0,,
27816,control_change,,,,,6,0,2,,,,,1,64,0,,
27816,control_change,,,,,36,0,3,,,,,2,64,0,,
27818,control_change,,,,,2,0,2,,,,,1,11,67,,
27818,control_change,,,,,2,0,3,,,,,2,11,67,,
27818,control_change,,,,,88,0,1,,,,,0,11,67,,
27832,note_on,,,,,0,0,3,,,,,2,,,50,0
27832,note_on,,,,,14,0,3,,,,,2,,,55,0
27836,note_on,,,,,0,0,2,,,,,1,,,67,0
27836,note_on,,,,,18,0,2,,,,,1,,,70,0
27840,control_change,,,,,0,0,3,,,,,2,64,127,,
27840,note_on,,,,,0,0,2,,,,,1,,,69,101
27840,note_on,,,,,0,0,3,,,,,2,,,38,101
27840,note_on,,,,,0,0,2,,,,,1,,,66,101
27840,control_change,,,,,8,0,3,,,,,2,64,127,,
27840,control_change,,,,,4,0,2,,,,,1,64,127,,
27892,note_on,,,,,52,0,3,,,,,2,,,38,0
27900,note_on,,,,,0,0,3,,,,,2,,,54,101
27900,note_on,,,,,8,0,3,,,,,2,,,50,101
27905,control_change,,,,,65,0,2,,,,,1,11,66,,
27905,control_change,,,,,5,0,3,,,,,2,11,66,,
27905,control_change,,,,,87,0,1,,,,,0,11,66,,
27952,note_on,,,,,47,0,3,,,,,2,,,54,0
27952,note_on,,,,,0,0,3,,,,,2,,,50,0
27960,note_on,,,,,8,0,3,,,,,2,,,54,101
27960,note_on,,,,,0,0,3,,,,,2,,,57,101
27992,control_change,,,,,32,0,3,,,,,2,11,65,,
27992,control_change,,,,,87,0,1,,,,,0,11,65,,
27992,control_change,,,,,87,0,2,,,,,1,11,65,,
28005,note_on,,,,,13,0,2,,,,,1,,,69,0
28005,note_on,,,,,0,0,2,,,,,1,,,66,0
28012,note_on,,,,,20,0,3,,,,,2,,,57,0
28012,note_on,,,,,0,0,3,,,,,2,,,54,0
28020,note_on,,,,,0,0,2,,,,,1,,,69,101
28020,note_on,,,,,0,0,3,,,,,2,,,54,101
28020,note_on,,,,,8,0,3,,,,,2,,,50,101
28020,note_on,,,,,15,0,2,,,,,1,,,66,101
28072,note_on,,,,,52,0,3,,,,,2,,,54,0
28072,note_on,,,,,0,0,2,,,,,1,,,66,0
28072,note_on,,,,,52,0,2,,,,,1,,,69,0
28072,note_on,,,,,0,0,3,,,,,2,,,50,0
28080,control_change,,,,,88,0,1,,,,,0,11,64,,
28080,note_on,,,,,0,0,2,,,,,1,,,66,101
28080,note_on,,,,,0,0,2,,,,,1,,,69,101
28080,control_change,,,,,8,0,2,,,,,1,11,64,,
28080,note_on,,,,,0,0,3,,,,,2,,,54,101
28080,control_change,,,,,8,0,3,,,,,2,11,64,,
28080,note_on,,,,,0,0,3,,,,,2,,,57,101
28132,note_on,,,,,0,0,3,,,,,2,,,54,0
28132,note_on,,,,,52,0,3,,,,,2,,,57,0
28132,note_on,,,,,52,0,2,,,,,1,,,69,0
28132,note_on,,,,,0,0,2,,,,,1,,,66,0
28140,note_on,,,,,8,0,3,,,,,2,,,50,101
28140,note_on,,,,,0,0,3,,,,,2,,,54,101
28140,note_on,,,,,8,0,2,,,,,1,,,66,101
28140,note_on,,,,,0,0,2,,,,,1,,,69,101
28167,control_change,,,,,27,0,3,,,,,2,11,63,,
28167,control_change,,,,,87,0,1,,,,,0,11,63,,
28167,control_change,,,,,27,0,2,,,,,1,11,63,,
28176,control_change,,,,,0,0,3,,,,,2,64,0,,
28176,control_change,,,,,9,0,2,,,,,1,64,0,,
28176,control_change,,,,,9,0,3,,,,,2,64,0,,
28192,note_on,,,,,16,0,2,,,,,1,,,69,0
28192,note_on,,,,,0,0,2,,,,,1,,,66,0
28192,note_on,,,,,0,0,3,,,,,2,,,50,0
28192,note_on,,,,,16,0,3,,,,,2,,,54,0
28200,note_on,,,,,0,0,2,,,,,1,,,69,101
28200,note_on,,,,,0,0,3,,,,,2,,,33,101
28200,control_change,,,,,8,0,2,,,,,1,64,127,,
28200,control_change,,,,,8,0,3,,,,,2,64,127,,
28200,control_change,,,,,0,0,3,,,,,2,64,127,,
28200,note_on,,,,,0,0,2,,,,,1,,,67,101
28252,note_on,,,,,52,0,3,,,,,2,,,33,0
28254,control_change,,,,,87,0,1,,,,,0,11,62,,
28254,control_change,,,,,2,0,3,,,,,2,11,62,,
28254,control_change,,,,,54,0,2,,,,,1,11,62,,
28260,note_on,,,,,0,0,3,,,,,2,,,52,101
28260,note_on,,,,,6,0,3,,,,,2,,,45,101
28312,note_on,,,,,0,0,3,,,,,2,,,45,0
28312,note_on,,,,,52,0,3,,,,,2,,,52,0
28320,note_on,,,,,0,0,3,,,,,2,,,55,101
28320,note_on,,,,,8,0,3,,,,,2,,,52,101
28320,set_tempo,,,,,2630,1,0,,869565,,,,,,,
28341,control_change,,,,,87,0,2,,,,,1,11,61,,
28341,control_change,,,,,87,0,1,,,,,0,11,61,,
28341,control_change,,,,,21,0,3,,,,,2,11,61,,
28365,note_on,,,,,24,0,2,,,,,1,,,69,0
28365,note_on,,,,,0,0,2,,,,,1,,,67,0
28372,note_on,,,,,31,0,3,,,,,2,,,55,0
28372,note_on,,,,,0,0,3,,,,,2,,,52,0
28380,note_on,,,,,0,0,2,,,,,1,,,69,101
28380,note_on,,,,,15,0,2,,,,,1,,,61,101
28380,note_on,,,,,0,0,3,,,,,2,,,52,101
28380,note_on,,,,,8,0,3,,,,,2,,,45,101
28428,control_change,,,,,87,0,1,,,,,0,11,60,,
28428,control_change,,,,,48,0,2,,,,,1,11,60,,
28428,control_change,,,,,48,0,3,,,,,2,11,60,,
28432,note_on,,,,,0,0,3,,,,,2,,,45,0
28432,note_on,,,,,0,0,2,,,,,1,,,61,0
28432,note_on,,,,,4,0,2,,,,,1,,,69,0
28432,note_on,,,,,4,0,3,,,,,2,,,52,0
28440,note_on,,,,,8,0,2,,,,,1,,,64,101
28440,note_on,,,,,8,0,3,,,,,2,,,52,101
28440,note_on,,,,,0,0,3,,,,,2,,,55,101
28440,note_on,,,,,0,0,2,,,,,1,,,69,101
28492,note_on,,,,,52,0,2,,,,,1,,,69,0
28492,note_on,,,,,0,0,3,,,,,2,,,52,0
28492,note_on,,,,,52,0,3,,,,,2,,,55,0
28492,note_on,,,,,0,0,2,,,,,1,,,64,0
28500,note_on,,,,,0,0,3,,,,,2,,,52,101
28500,note_on,,,,,8,0,2,,,,,1,,,67,101
28500,note_on,,,,,8,0,3,,,,,2,,,45,101
28500,set_tempo,,,,,180,1,0,,882352,,,,,,,
28500,note_on,,,,,0,0,2,,,,,1,,,69,101
28516,control_change,,,,,88,0,1,,,,,0,11,59,,
28516,control_change,,,,,16,0,2,,,,,1,11,59,,
28516,control_change,,,,,16,0,3,,,,,2,11,59,,
28536,control_change,,,,,0,0,3,,,,,2,64,0,,
28536,control_change,,,,,20,0,2,,,,,1,64,0,,
28536,control_change,,,,,20,0,3,,,,,2,64,0,,
28552,note_on,,,,,16,0,2,,,,,1,,,69,0
28552,note_on,,,,,16,0,3,,,,,2,,,52,0
28552,note_on,,,,,0,0,2,,,,,1,,,67,0
28552,note_on,,,,,0,0,3,,,,,2,,,45,0
28560,note_on,,,,,0,0,2,,,,,1,,,66,101
28560,note_on,,,,,0,0,2,,,,,1,,,69,101
28560,control_change,,,,,8,0,3,,,,,2,64,127,,
28560,control_change,,,,,0,0,3,,,,,2,64,127,,
28560,note_on,,,,,0,0,3,,,,,2,,,38,101
28560,control_change,,,,,8,0,2,,,,,1,64,127,,
28603,control_change,,,,,87,0,1,,,,,0,11,58,,
28603,control_change,,,,,43,0,2,,,,,1,11,58,,
28603,control_change,,,,,43,0,3,,,,,2,11,58,,
28612,note_on,,,,,9,0,3,,,,,2,,,38,0
28620,note_on,,,,,0,0,3,,,,,2,,,50,101
28620,note_on,,,,,8,0,3,,,,,2,,,45,101
28650,set_tempo,,,,,150,1,0,,895522,,,,,,,
28672,note_on,,,,,52,0,3,,,,,2,,,50,0
28672,note_on,,,,,0,0,3,,,,,2,,,45,0
28680,note_on,,,,,8,0,3,,,,,2,,,50,101
28680,note_on,,,,,0,0,3,,,,,2,,,54,101
28680,set_tempo,,,,,30,1,0,,909090,,,,,,,
28690,control_change,,,,,87,0,2,,,,,1,11,57,,
28690,control_change,,,,,10,0,3,,,,,2,11,57,,
28690,control_change,,,,,87,0,1,,,,,0,11,57,,
28710,set_tempo,,,,,30,1,0,,923076,,,,,,,
28732,note_on,,,,,42,0,3,,,,,2,,,54,0
28732,note_on,,,,,0,0,3,,,,,2,,,50,0
28740,note_on,,,,,8,0,3,,,,,2,,,45,101
28740,note_on,,,,,0,0,3,,,,,2,,,50,101
28778,control_change,,,,,88,0,1,,,,,0,11,56,,
28778,control_change,,,,,88,0,2,,,,,1,11,56,,
28778,control_change,,,,,38,0,3,,,,,2,11,56,,
28792,note_on,,,,,0,0,3,,,,,2,,,45,0
28792,note_on,,,,,14,0,3,,,,,2,,,50,0
28800,note_on,,,,,8,0,3,,,,,2,,,50,101
28800,note_on,,,,,0,0,3,,,,,2,,,54,101
28852,note_on,,,,,52,0,3,,,,,2,,,54,0
28852,note_on,,,,,0,0,3,,,,,2,,,50,0
28860,note_on,,,,,0,0,3,,,,,2,,,50,101
28860,note_on,,,,,8,0,3,,,,,2,,,45,101
28865,control_change,,,,,87,0,1,,,,,0,11,55,,
28865,control_change,,,,,87,0,2,,,,,1,11,55,,
28865,control_change,,,,,5,0,3,,,,,2,11,55,,
28896,control_change,,,,,0,0,3,,,,,2,64,0,,
28896,control_change,,,,,31,0,2,,,,,1,64,0,,
28896,control_change,,,,,31,0,3,,,,,2,64,0,,
28905,note_on,,,,,0,0,2,,,,,1,,,66,0
28905,note_on,,,,,9,0,2,,,,,1,,,69,0
28912,note_on,,,,,16,0,3,,,,,2,,,50,0
28912,note_on,,,,,0,0,3,,,,,2,,,45,0
28920,control_change,,,,,0,0,3,,,,,2,64,127,,
28920,note_on,,,,,0,0,2,,,,,1,,,57,101
28920,note_on,,,,,0,0,2,,,,,1,,,66,101
28920,note_on,,,,,0,0,2,,,,,1,,,69,101
28920,note_on,,,,,0,0,3,,,,,2,,,38,101
28920,control_change,,,,,15,0,2,,,,,1,64,127,,
28920,control_change,,,,,8,0,3,,,,,2,64,127,,
28952,control_change,,,,,32,0,3,,,,,2,11,54,,
28952,control_change,,,,,87,0,1,,,,,0,11,54,,
28952,control_change,,,,,32,0,2,,,,,1,11,54,,
28972,note_on,,,,,20,0,3,,,,,2,,,38,0
28980,note_on,,,,,0,0,3,,,,,2,,,50,101
28980,note_on,,,,,8,0,3,,,,,2,,,45,101
29032,note_on,,,,,52,0,3,,,,,2,,,50,0
29032,note_on,,,,,0,0,3,,,,,2,,,45,0
29040,note_on,,,,,0,0,3,,,,,2,,,50,101
29040,set_tempo,,,,,330,1,0,,937500,,,,,,,
29040,control_change,,,,,88,0,1,,,,,0,11,53,,
29040,control_change,,,,,88,0,2,,,,,1,11,53,,
29040,control_change,,,,,8,0,3,,,,,2,11,53,,
29040,note_on,,,,,0,0,3,,,,,2,,,54,101
29092,note_on,,,,,52,0,3,,,,,2,,,54,0
29092,note_on,,,,,0,0,3,,,,,2,,,50,0
29100,note_on,,,,,8,0,3,,,,,2,,,45,101
29100,note_on,,,,,0,0,3,,,,,2,,,50,101
29110,set_tempo,,,,,70,1,0,,952380,,,,,,,
29127,control_change,,,,,27,0,3,,,,,2,11,52,,
29127,control_change,,,,,87,0,1,,,,,0,11,52,,
29127,control_change,,,,,87,0,2,,,,,1,11,52,,
29152,note_on,,,,,25,0,3,,,,,2,,,50,0
29152,note_on,,,,,0,0,3,,,,,2,,,45,0
29160,note_on,,,,,8,0,3,,,,,2,,,50,101
29160,note_on,,,,,0,0,3,,,,,2,,,54,101
29212,note_on,,,,,0,0,3,,,,,2,,,50,0
29212,note_on,,,,,52,0,3,,,,,2,,,54,0
29214,control_change,,,,,2,0,3,,,,,2,11,51,,
29214,control_change,,,,,87,0,2,,,,,1,11,51,,
29214,control_change,,,,,87,0,1,,,,,0,11,51,,
29220,note_on,,,,,6,0,3,,,,,2,,,45,101
29220,note_on,,,,,0,0,3,,,,,2,,,50,101
29256,control_change,,,,,42,0,2,,,,,1,64,0,,
29256,control_change,,,,,36,0,3,,,,,2,64,0,,
29256,control_change,,,,,0,0,3,,,,,2,64,0,,
29265,note_on,,,,,0,0,2,,,,,1,,,66,0
29265,note_on,,,,,0,0,2,,,,,1,,,57,0
29265,note_on,,,,,9,0,2,,,,,1,,,69,0
29272,note_on,,,,,16,0,3,,,,,2,,,50,0
29272,note_on,,,,,0,0,3,,,,,2,,,45,0
29280,note_on,,,,,0,0,3,,,,,2,,,50,101
29280,note_on,,,,,0,0,2,,,,,1,,,57,101
29280,note_on,,,,,0,0,3,,,,,2,,,45,101
29280,control_change,,,,,15,0,2,,,,,1,64,127,,
29280,note_on,,,,,0,0,2,,,,,1,,,69,101
29280,control_change,,,,,8,0,3,,,,,2,64,127,,
29280,note_on,,,,,0,0,3,,,,,2,,,38,101
29280,note_on,,,,,0,0,2,,,,,1,,,66,101
29301,control_change,,,,,21,0,3,,,,,2,11,50,,
29301,control_change,,,,,87,0,1,,,,,0,11,50,,
29301,control_change,,,,,21,0,2,,,,,1,11,50,,
29388,control_change,,,,,87,0,1,,,,,0,11,49,,
29388,control_change,,,,,87,0,2,,,,,1,11,49,,
29388,control_change,,,,,87,0,3,,,,,2,11,49,,
29470,set_tempo,,,,,360,1,0,,967741,,,,,,,
29476,control_change,,,,,88,0,2,,,,,1,11,48,,
29476,control_change,,,,,88,0,1,,,,,0,11,48,,
29476,control_change,,,,,88,0,3,,,,,2,11,48,,
29480,set_tempo,,,,,10,1,0,,983606,,,,,,,
29490,set_tempo,,,,,10,1,0,,1000000,,,,,,,
29490,end_of_track,,,,,0,1,0,,,,,,,,,
29563,control_change,,,,,87,0,3,,,,,2,11,47,,
29563,control_change,,,,,87,0,1,,,,,0,11,47,,
29563,control_change,,,,,87,0,2,,,,,1,11,47,,
29640,control_change,,,,,77,0,2,,,,,1,64,127,,
29640,control_change,,,,,77,0,3,,,,,2,64,127,,
29650,control_change,,,,,87,0,1,,,,,0,11,46,,
29650,control_change,,,,,10,0,2,,,,,1,11,46,,
29650,control_change,,,,,10,0,3,,,,,2,11,46,,
29738,control_change,,,,,88,0,3,,,,,2,11,45,,
29738,control_change,,,,,88,0,2,,,,,1,11,45,,
29738,control_change,,,,,88,0,1,,,,,0,11,45,,
29825,control_change,,,,,87,0,3,,,,,2,11,44,,
29825,control_change,,,,,87,0,1,,,,,0,11,44,,
29825,control_change,,,,,87,0,2,,,,,1,11,44,,
29865,note_on,,,,,0,0,2,,,,,1,,,57,0
29865,note_on,,,,,0,0,2,,,,,1,,,66,0
29865,note_on,,,,,40,0,2,,,,,1,,,69,0
29912,control_change,,,,,87,0,1,,,,,0,11,43,,
29912,control_change,,,,,47,0,2,,,,,1,11,43,,
29912,control_change,,,,,87,0,3,,,,,2,11,43,,
29985,note_on,,,,,0,0,3,,,,,2,,,45,0
29985,note_on,,,,,0,0,3,,,,,2,,,38,0
29985,note_on,,,,,73,0,3,,,,,2,,,50,0
30000,control_change,,,,,0,0,3,,,,,2,91,0,,
30000,control_change,,,,,0,0,3,,,,,2,64,0,,
30000,control_change,,,,,0,0,3,,,,,2,11,101,,
30000,control_change,,,,,0,0,2,,,,,1,64,0,,
30000,control_change,,,,,0,0,2,,,,,1,91,0,,
30000,control_change,,,,,88,0,1,,,,,0,7,101,,
30000,control_change,,,,,88,0,2,,,,,1,7,101,,
30000,end_of_track,,,,,0,1,1,,,,,,,,,
30000,end_of_track,,,,,0,1,2,,,,,,,,,
30000,end_of_track,,,,,0,1,3,,,,,,,,,
30000,control_change,,,,,0,0,1,,,,,0,91,0,,
30000,control_change,,,,,0,0,1,,,,,0,64,0,,
30000,control_change,,,,,0,0,2,,,,,1,11,101,,
30000,control_change,,,,,0,0,1,,,,,0,11,101,,
30000,control_change,,,,,15,0,3,,,,,2,7,101,,
