tick,type,numerator,denominator,clocks_per_click,notated_32nd_notes_per_beat,time,meta,track,tempo,control,value,channel,note,velocity
0,control_change,,,,,0,0,1,,7,127,0,,
0,time_signature,4,4,24,8,0,1,0,,,,,,
0,set_tempo,,,,,0,1,0,545455,,,,,
0,track_name,,,,,0,1,1,,,,,,
0,end_of_track,,,,,0,1,2,,,,,,
0,track_name,,,,,0,1,2,,,,,,
260,control_change,,,,,260,0,1,,64,127,0,,
434,note_on,,,,,174,0,1,,,,0,69,77
436,note_on,,,,,2,0,1,,,,0,57,79
450,note_off,,,,,14,0,1,,,,0,57,64
456,note_off,,,,,6,0,1,,,,0,69,64
476,note_on,,,,,20,0,1,,,,0,69,104
482,note_on,,,,,6,0,1,,,,0,57,95
490,control_change,,,,,8,0,1,,64,0,0,,
662,control_change,,,,,172,0,1,,64,127,0,,
856,note_off,,,,,194,0,1,,,,0,69,64
908,note_off,,,,,52,0,1,,,,0,57,64
1282,note_on,,,,,374,0,1,,,,0,63,81
1284,note_on,,,,,2,0,1,,,,0,51,82
1300,note_off,,,,,16,0,1,,,,0,51,64
1304,note_off,,,,,4,0,1,,,,0,63,64
1332,note_on,,,,,28,0,1,,,,0,63,92
1336,note_on,,,,,4,0,1,,,,0,51,94
1482,note_off,,,,,146,0,1,,,,0,63,64
1510,note_off,,,,,28,0,1,,,,0,51,64
2072,note_on,,,,,562,0,1,,,,0,57,75
2072,note_on,,,,,0,0,1,,,,0,45,82
2092,note_off,,,,,20,0,1,,,,0,45,64
2098,note_off,,,,,6,0,1,,,,0,57,64
2122,note_on,,,,,24,0,1,,,,0,57,100
2124,note_on,,,,,2,0,1,,,,0,45,90
2176,note_off,,,,,52,0,1,,,,0,57,64
2182,note_off,,,,,6,0,1,,,,0,45,64
2402,note_on,,,,,220,0,1,,,,0,39,81
2404,note_on,,,,,2,0,1,,,,0,51,84
2424,note_off,,,,,20,0,1,,,,0,51,64
2430,note_off,,,,,6,0,1,,,,0,39,64
2460,note_on,,,,,0,0,1,,,,0,39,79
2460,note_on,,,,,30,0,1,,,,0,51,93
2500,note_off,,,,,40,0,1,,,,0,51,64
2508,note_off,,,,,8,0,1,,,,0,39,64
2770,note_on,,,,,262,0,1,,,,0,45,79
2772,note_on,,,,,2,0,1,,,,0,33,82
2788,note_off,,,,,16,0,1,,,,0,33,64
2796,note_off,,,,,8,0,1,,,,0,45,64
2828,note_on,,,,,32,0,1,,,,0,45,93
2832,note_on,,,,,4,0,1,,,,0,33,99
2956,note_off,,,,,124,0,1,,,,0,45,64
2966,note_off,,,,,10,0,1,,,,0,33,64
3184,note_on,,,,,218,0,1,,,,0,39,81
3186,note_on,,,,,2,0,1,,,,0,27,88
3212,note_off,,,,,26,0,1,,,,0,27,64
3212,note_off,,,,,0,0,1,,,,0,39,64
3278,note_on,,,,,66,0,1,,,,0,39,94
3280,note_on,,,,,2,0,1,,,,0,27,89
3352,control_change,,,,,72,0,1,,64,0,0,,
3408,control_change,,,,,56,0,1,,64,127,0,,
4250,note_on,,,,,842,0,1,,,,0,54,81
4252,note_on,,,,,0,0,1,,,,0,45,76
4252,note_on,,,,,2,0,1,,,,0,48,83
4288,control_change,,,,,36,0,1,,64,0,0,,
4426,control_change,,,,,138,0,1,,64,127,0,,
4464,set_tempo,,,,,4464,1,0,540541,,,,,
4536,note_off,,,,,110,0,1,,,,0,45,64
4548,note_off,,,,,12,0,1,,,,0,48,64
4568,note_off,,,,,20,0,1,,,,0,54,64
4688,set_tempo,,,,,224,1,0,535714,,,,,
4800,note_on,,,,,232,0,1,,,,0,55,79
4800,note_on,,,,,0,0,1,,,,0,46,84
4802,note_on,,,,,2,0,1,,,,0,50,81
4836,control_change,,,,,34,0,1,,64,0,0,,
4908,set_tempo,,,,,220,1,0,530973,,,,,
4932,control_change,,,,,96,0,1,,64,127,0,,
5014,note_off,,,,,82,0,1,,,,0,55,64
5028,note_off,,,,,14,0,1,,,,0,46,64
5036,note_off,,,,,8,0,1,,,,0,50,64
5132,set_tempo,,,,,224,1,0,526316,,,,,
5350,note_on,,,,,0,0,1,,,,0,51,89
5350,note_on,,,,,314,0,1,,,,0,56,93
5352,note_on,,,,,2,0,1,,,,0,47,81
5356,set_tempo,,,,,224,1,0,521739,,,,,
5400,control_change,,,,,48,0,1,,64,0,0,,
5508,control_change,,,,,108,0,1,,64,127,0,,
5576,set_tempo,,,,,220,1,0,517241,,,,,
5578,note_off,,,,,70,0,1,,,,0,47,64
5606,note_off,,,,,28,0,1,,,,0,51,64
5624,note_off,,,,,18,0,1,,,,0,56,64
5800,set_tempo,,,,,224,1,0,512821,,,,,
5972,note_on,,,,,0,0,1,,,,0,51,92
5972,note_on,,,,,348,0,1,,,,0,63,81
5974,note_on,,,,,2,0,1,,,,0,56,92
5976,note_on,,,,,2,0,1,,,,0,58,92
6024,control_change,,,,,48,0,1,,64,0,0,,
6024,set_tempo,,,,,224,1,0,508475,,,,,
6166,control_change,,,,,142,0,1,,64,127,0,,
6248,set_tempo,,,,,224,1,0,512821,,,,,
6252,set_tempo,,,,,4,1,0,517241,,,,,
6256,set_tempo,,,,,4,1,0,521739,,,,,
6260,set_tempo,,,,,4,1,0,526316,,,,,
6268,set_tempo,,,,,8,1,0,530973,,,,,
6272,set_tempo,,,,,4,1,0,535714,,,,,
6276,set_tempo,,,,,4,1,0,540541,,,,,
6280,set_tempo,,,,,4,1,0,545455,,,,,
6340,note_off,,,,,174,0,1,,,,0,39,64
6344,note_off,,,,,4,0,1,,,,0,27,64
6522,note_on,,,,,178,0,1,,,,0,40,84
6524,note_on,,,,,2,0,1,,,,0,28,83
6582,control_change,,,,,58,0,1,,64,0,0,,
6656,control_change,,,,,74,0,1,,64,127,0,,
6728,note_off,,,,,72,0,1,,,,0,28,64
6732,note_off,,,,,4,0,1,,,,0,40,64
6764,note_off,,,,,32,0,1,,,,0,56,64
6770,note_off,,,,,6,0,1,,,,0,58,64
6942,note_on,,,,,172,0,1,,,,0,42,70
6944,note_on,,,,,2,0,1,,,,0,30,78
7016,note_off,,,,,72,0,1,,,,0,42,64
7058,note_on,,,,,42,0,1,,,,0,28,75
7062,note_on,,,,,4,0,1,,,,0,40,68
7066,note_on,,,,,4,0,1,,,,0,58,77
7068,note_off,,,,,2,0,1,,,,0,30,64
7072,note_on,,,,,4,0,1,,,,0,55,63
7120,control_change,,,,,48,0,1,,64,0,0,,
7236,control_change,,,,,116,0,1,,64,127,0,,
7350,note_off,,,,,114,0,1,,,,0,28,64
7362,note_off,,,,,12,0,1,,,,0,40,64
7694,note_on,,,,,332,0,1,,,,0,39,51
7696,note_on,,,,,2,0,1,,,,0,27,62
7716,control_change,,,,,20,0,1,,64,0,0,,
7794,control_change,,,,,78,0,1,,64,127,0,,
7852,note_off,,,,,58,0,1,,,,0,27,64
7866,note_off,,,,,14,0,1,,,,0,39,64
7922,note_off,,,,,56,0,1,,,,0,51,64
7934,note_off,,,,,12,0,1,,,,0,55,64
7934,note_off,,,,,0,0,1,,,,0,58,64
7934,note_off,,,,,0,0,1,,,,0,63,64
8050,note_on,,,,,116,0,1,,,,0,63,70
8056,note_on,,,,,6,0,1,,,,0,51,62
8084,note_off,,,,,28,0,1,,,,0,51,64
8088,note_off,,,,,4,0,1,,,,0,63,64
8096,note_on,,,,,8,0,1,,,,0,32,69
8150,note_on,,,,,54,0,1,,,,0,39,58
8192,control_change,,,,,42,0,1,,64,0,0,,
8226,note_on,,,,,34,0,1,,,,0,44,65
8276,note_on,,,,,50,0,1,,,,0,51,63
8332,note_on,,,,,56,0,1,,,,0,56,60
8406,note_on,,,,,74,0,1,,,,0,60,59
8488,note_on,,,,,82,0,1,,,,0,63,59
8592,control_change,,,,,104,0,1,,64,127,0,,
8676,note_off,,,,,84,0,1,,,,0,56,64
8678,note_off,,,,,2,0,1,,,,0,51,64
8694,note_off,,,,,16,0,1,,,,0,60,64
8704,note_off,,,,,0,0,1,,,,0,44,64
8704,note_off,,,,,10,0,1,,,,0,32,64
8716,note_off,,,,,12,0,1,,,,0,63,64
8720,note_off,,,,,4,0,1,,,,0,39,64
9742,control_change,,,,,1022,0,1,,64,0,0,,
9894,note_on,,,,,152,0,1,,,,0,72,81
9896,note_on,,,,,2,0,1,,,,0,60,84
9916,note_off,,,,,20,0,1,,,,0,60,64
9920,note_off,,,,,4,0,1,,,,0,72,64
9942,note_on,,,,,22,0,1,,,,0,72,99
9948,note_on,,,,,6,0,1,,,,0,60,95
10032,control_change,,,,,84,0,1,,64,127,0,,
10226,note_off,,,,,194,0,1,,,,0,72,64
10276,note_off,,,,,50,0,1,,,,0,60,64
10604,note_on,,,,,328,0,1,,,,0,66,73
10604,note_on,,,,,0,0,1,,,,0,54,73
10618,note_off,,,,,14,0,1,,,,0,54,64
10622,note_off,,,,,4,0,1,,,,0,66,64
10656,note_on,,,,,0,0,1,,,,0,54,92
10656,note_on,,,,,34,0,1,,,,0,66,92
10864,note_off,,,,,208,0,1,,,,0,66,64
10914,note_off,,,,,50,0,1,,,,0,54,64
11292,note_on,,,,,0,0,1,,,,0,48,72
11292,note_on,,,,,378,0,1,,,,0,60,73
11310,note_off,,,,,18,0,1,,,,0,48,64
11318,note_off,,,,,8,0,1,,,,0,60,64
11342,note_on,,,,,24,0,1,,,,0,60,96
11344,note_on,,,,,2,0,1,,,,0,48,96
11394,note_off,,,,,50,0,1,,,,0,60,64
11408,note_off,,,,,14,0,1,,,,0,48,64
11600,note_on,,,,,192,0,1,,,,0,42,74
11602,note_on,,,,,2,0,1,,,,0,54,74
11624,note_off,,,,,0,0,1,,,,0,42,64
11624,note_off,,,,,22,0,1,,,,0,54,64
11658,note_on,,,,,34,0,1,,,,0,54,83
11664,note_on,,,,,6,0,1,,,,0,42,87
11706,note_off,,,,,42,0,1,,,,0,54,64
11710,note_off,,,,,4,0,1,,,,0,42,64
11952,note_on,,,,,242,0,1,,,,0,48,80
11954,note_on,,,,,2,0,1,,,,0,36,76
11978,note_off,,,,,24,0,1,,,,0,48,64
11980,note_off,,,,,2,0,1,,,,0,36,64
12012,note_on,,,,,32,0,1,,,,0,48,86
12014,note_on,,,,,2,0,1,,,,0,36,82
12098,note_off,,,,,84,0,1,,,,0,48,64
12116,note_off,,,,,18,0,1,,,,0,36,64
12326,note_on,,,,,210,0,1,,,,0,30,88
12328,note_on,,,,,2,0,1,,,,0,42,73
12352,note_off,,,,,24,0,1,,,,0,42,64
12354,note_off,,,,,2,0,1,,,,0,30,64
12426,note_on,,,,,72,0,1,,,,0,42,92
12428,note_on,,,,,2,0,1,,,,0,30,92
12500,control_change,,,,,72,0,1,,64,0,0,,
12574,control_change,,,,,74,0,1,,64,127,0,,
13360,note_on,,,,,786,0,1,,,,0,57,89
13360,note_on,,,,,0,0,1,,,,0,51,91
13364,note_on,,,,,4,0,1,,,,0,48,85
13408,control_change,,,,,44,0,1,,64,0,0,,
13548,control_change,,,,,140,0,1,,64,127,0,,
13626,note_off,,,,,78,0,1,,,,0,48,64
13642,note_off,,,,,16,0,1,,,,0,57,64
13658,note_off,,,,,16,0,1,,,,0,51,64
13960,note_on,,,,,302,0,1,,,,0,58,94
13960,note_on,,,,,0,0,1,,,,0,52,92
13962,note_on,,,,,2,0,1,,,,0,49,93
14006,control_change,,,,,44,0,1,,64,0,0,,
14116,control_change,,,,,110,0,1,,64,127,0,,
14224,note_off,,,,,108,0,1,,,,0,52,64
14242,note_off,,,,,18,0,1,,,,0,49,64
14256,note_off,,,,,14,0,1,,,,0,58,64
14518,note_on,,,,,0,0,1,,,,0,54,94
14518,note_on,,,,,262,0,1,,,,0,59,92
14520,note_on,,,,,2,0,1,,,,0,50,95
14572,control_change,,,,,52,0,1,,64,0,0,,
14700,control_change,,,,,128,0,1,,64,127,0,,
14760,note_off,,,,,60,0,1,,,,0,50,64
14778,note_off,,,,,18,0,1,,,,0,54,64
14780,note_off,,,,,2,0,1,,,,0,59,64
15178,note_on,,,,,398,0,1,,,,0,66,85
15178,note_on,,,,,0,0,1,,,,0,54,92
15180,note_on,,,,,2,0,1,,,,0,59,94
15182,note_on,,,,,2,0,1,,,,0,61,93
15230,control_change,,,,,48,0,1,,64,0,0,,
15350,control_change,,,,,120,0,1,,64,127,0,,
15578,note_off,,,,,228,0,1,,,,0,30,64
15586,note_off,,,,,8,0,1,,,,0,42,64
15744,note_on,,,,,0,0,1,,,,0,31,99
15744,note_on,,,,,158,0,1,,,,0,43,94
15808,control_change,,,,,64,0,1,,64,0,0,,
15880,control_change,,,,,72,0,1,,64,127,0,,
15990,note_off,,,,,110,0,1,,,,0,31,64
16012,note_off,,,,,22,0,1,,,,0,43,64
16066,note_off,,,,,54,0,1,,,,0,59,64
16080,note_off,,,,,14,0,1,,,,0,61,64
16186,note_on,,,,,0,0,1,,,,0,33,83
16186,note_on,,,,,106,0,1,,,,0,45,84
16234,note_off,,,,,48,0,1,,,,0,45,64
16238,note_off,,,,,4,0,1,,,,0,33,64
16298,note_on,,,,,60,0,1,,,,0,61,68
16298,note_on,,,,,0,0,1,,,,0,43,84
16300,note_on,,,,,0,0,1,,,,0,31,89
16300,note_on,,,,,2,0,1,,,,0,58,72
16364,control_change,,,,,64,0,1,,64,0,0,,
16454,control_change,,,,,90,0,1,,64,127,0,,
16582,note_off,,,,,128,0,1,,,,0,31,64
16582,note_off,,,,,0,0,1,,,,0,43,64
16968,note_on,,,,,386,0,1,,,,0,30,63
16978,note_on,,,,,10,0,1,,,,0,42,63
17006,control_change,,,,,28,0,1,,64,0,0,,
17092,control_change,,,,,86,0,1,,64,127,0,,
17148,note_off,,,,,56,0,1,,,,0,30,64
17154,note_off,,,,,6,0,1,,,,0,42,64
17206,note_off,,,,,52,0,1,,,,0,54,64
17212,note_off,,,,,6,0,1,,,,0,66,64
17218,note_off,,,,,6,0,1,,,,0,61,64
17220,note_off,,,,,2,0,1,,,,0,58,64
17330,note_on,,,,,110,0,1,,,,0,66,70
17334,note_on,,,,,4,0,1,,,,0,54,63
17394,note_on,,,,,60,0,1,,,,0,35,65
17450,note_on,,,,,56,0,1,,,,0,42,68
17460,note_off,,,,,10,0,1,,,,0,54,64
17468,note_off,,,,,8,0,1,,,,0,66,64
17516,control_change,,,,,48,0,1,,64,0,0,,
17518,note_on,,,,,2,0,1,,,,0,47,77
17564,note_on,,,,,46,0,1,,,,0,54,60
17632,note_on,,,,,68,0,1,,,,0,59,59
17712,note_on,,,,,80,0,1,,,,0,63,62
17832,note_on,,,,,120,0,1,,,,0,66,63
17870,control_change,,,,,38,0,1,,64,127,0,,
17968,note_off,,,,,98,0,1,,,,0,35,64
17976,note_off,,,,,8,0,1,,,,0,54,64
17980,note_off,,,,,4,0,1,,,,0,59,64
17986,note_off,,,,,6,0,1,,,,0,47,64
18008,note_off,,,,,22,0,1,,,,0,42,64
18038,note_off,,,,,30,0,1,,,,0,63,64
18088,note_off,,,,,50,0,1,,,,0,66,64
18916,control_change,,,,,828,0,1,,64,0,0,,
18960,set_tempo,,,,,12680,1,0,540541,,,,,
18964,set_tempo,,,,,4,1,0,535714,,,,,
18968,set_tempo,,,,,4,1,0,526316,,,,,
18972,set_tempo,,,,,4,1,0,521739,,,,,
18976,set_tempo,,,,,4,1,0,512821,,,,,
18980,set_tempo,,,,,4,1,0,508475,,,,,
18984,set_tempo,,,,,4,1,0,500000,,,,,
18988,set_tempo,,,,,4,1,0,495868,,,,,
18992,set_tempo,,,,,4,1,0,491803,,,,,
18996,set_tempo,,,,,4,1,0,483871,,,,,
19000,set_tempo,,,,,4,1,0,480000,,,,,
19004,set_tempo,,,,,4,1,0,472441,,,,,
19008,set_tempo,,,,,4,1,0,468750,,,,,
19012,set_tempo,,,,,4,1,0,461538,,,,,
19042,note_on,,,,,126,0,1,,,,0,63,81
19048,note_on,,,,,6,0,1,,,,0,87,86
19048,note_on,,,,,0,0,1,,,,0,75,77
19056,note_off,,,,,8,0,1,,,,0,63,64
19064,note_off,,,,,8,0,1,,,,0,75,64
19070,note_off,,,,,6,0,1,,,,0,87,64
19096,note_on,,,,,26,0,1,,,,0,63,100
19098,note_on,,,,,2,0,1,,,,0,87,95
19102,note_on,,,,,4,0,1,,,,0,75,90
19120,control_change,,,,,18,0,1,,64,127,0,,
19152,note_off,,,,,32,0,1,,,,0,63,64
19166,note_off,,,,,14,0,1,,,,0,75,64
19172,note_off,,,,,6,0,1,,,,0,87,64
19450,note_on,,,,,0,0,1,,,,0,57,83
19450,note_on,,,,,278,0,1,,,,0,81,74
19452,note_on,,,,,2,0,1,,,,0,69,71
19474,note_off,,,,,22,0,1,,,,0,69,64
19478,note_off,,,,,0,0,1,,,,0,81,64
19478,note_off,,,,,4,0,1,,,,0,57,64
19510,note_on,,,,,0,0,1,,,,0,57,93
19510,note_on,,,,,32,0,1,,,,0,69,92
19512,note_on,,,,,2,0,1,,,,0,81,92
19540,note_off,,,,,28,0,1,,,,0,69,64
19544,note_off,,,,,4,0,1,,,,0,57,64
19550,note_off,,,,,6,0,1,,,,0,81,64
19832,note_on,,,,,282,0,1,,,,0,81,65
19834,note_on,,,,,2,0,1,,,,0,69,82
19836,note_on,,,,,2,0,1,,,,0,93,67
19854,note_off,,,,,18,0,1,,,,0,93,64
19860,note_off,,,,,0,0,1,,,,0,81,64
19860,note_off,,,,,6,0,1,,,,0,69,64
19886,note_on,,,,,26,0,1,,,,0,93,90
19888,note_on,,,,,0,0,1,,,,0,69,89
19888,note_on,,,,,2,0,1,,,,0,81,81
19920,note_off,,,,,32,0,1,,,,0,93,64
19924,note_off,,,,,4,0,1,,,,0,81,64
19928,note_off,,,,,4,0,1,,,,0,69,64
20030,note_on,,,,,102,0,1,,,,0,87,77
20032,note_on,,,,,2,0,1,,,,0,75,78
20032,note_on,,,,,0,0,1,,,,0,63,88
20052,note_off,,,,,20,0,1,,,,0,75,64
20056,note_off,,,,,4,0,1,,,,0,87,64
20058,note_off,,,,,2,0,1,,,,0,63,64
20088,note_on,,,,,30,0,1,,,,0,63,93
20090,note_on,,,,,2,0,1,,,,0,87,95
20092,note_on,,,,,2,0,1,,,,0,75,89
20124,note_off,,,,,32,0,1,,,,0,75,64
20124,note_off,,,,,0,0,1,,,,0,63,64
20126,note_off,,,,,2,0,1,,,,0,87,64
20364,control_change,,,,,238,0,1,,64,0,0,,
20464,note_on,,,,,0,0,1,,,,0,54,74
20464,note_on,,,,,100,0,1,,,,0,63,74
20464,note_on,,,,,0,0,1,,,,0,57,74
20468,note_on,,,,,4,0,1,,,,0,35,74
20470,note_on,,,,,2,0,1,,,,0,47,74
20482,control_change,,,,,12,0,1,,64,127,0,,
20506,note_off,,,,,24,0,1,,,,0,54,64
20508,note_off,,,,,2,0,1,,,,0,57,64
20512,note_off,,,,,4,0,1,,,,0,47,64
20518,note_off,,,,,6,0,1,,,,0,35,64
20540,note_off,,,,,22,0,1,,,,0,63,64
20580,control_change,,,,,40,0,1,,64,0,0,,
20704,note_on,,,,,124,0,1,,,,0,66,72
20704,note_on,,,,,0,0,1,,,,0,63,72
20706,note_on,,,,,2,0,1,,,,0,34,72
20712,note_on,,,,,6,0,1,,,,0,58,72
20712,note_on,,,,,0,0,1,,,,0,54,72
20720,note_on,,,,,8,0,1,,,,0,46,72
20764,control_change,,,,,44,0,1,,64,127,0,,
20790,note_off,,,,,26,0,1,,,,0,66,64
20792,note_off,,,,,2,0,1,,,,0,54,64
20804,note_off,,,,,12,0,1,,,,0,58,64
20808,note_off,,,,,4,0,1,,,,0,34,64
20810,note_off,,,,,2,0,1,,,,0,46,64
20814,note_off,,,,,4,0,1,,,,0,63,64
20954,control_change,,,,,140,0,1,,64,0,0,,
21436,note_on,,,,,482,0,1,,,,0,63,87
21438,note_on,,,,,0,0,1,,,,0,75,79
21438,note_on,,,,,2,0,1,,,,0,87,86
21460,note_off,,,,,22,0,1,,,,0,75,64
21460,note_off,,,,,0,0,1,,,,0,63,64
21464,note_off,,,,,4,0,1,,,,0,87,64
21490,note_on,,,,,0,0,1,,,,0,63,91
21490,note_on,,,,,26,0,1,,,,0,87,96
21492,note_on,,,,,2,0,1,,,,0,75,89
21516,control_change,,,,,24,0,1,,64,127,0,,
21548,note_off,,,,,32,0,1,,,,0,63,64
21560,note_off,,,,,12,0,1,,,,0,75,64
21570,note_off,,,,,10,0,1,,,,0,87,64
21804,note_on,,,,,234,0,1,,,,0,82,76
21806,note_on,,,,,2,0,1,,,,0,58,80
21810,note_on,,,,,4,0,1,,,,0,70,63
21828,note_off,,,,,18,0,1,,,,0,70,64
21836,note_off,,,,,0,0,1,,,,0,82,64
21836,note_off,,,,,8,0,1,,,,0,58,64
21864,note_on,,,,,28,0,1,,,,0,58,91
21866,note_on,,,,,2,0,1,,,,0,82,86
21868,note_on,,,,,2,0,1,,,,0,70,90
21896,note_off,,,,,28,0,1,,,,0,70,64
21904,note_off,,,,,8,0,1,,,,0,58,64
21920,note_off,,,,,16,0,1,,,,0,82,64
22176,note_on,,,,,256,0,1,,,,0,94,85
22178,note_on,,,,,2,0,1,,,,0,82,76
22180,note_on,,,,,2,0,1,,,,0,70,81
22202,note_off,,,,,22,0,1,,,,0,82,64
22204,note_off,,,,,2,0,1,,,,0,94,64
22214,note_off,,,,,10,0,1,,,,0,70,64
22238,note_on,,,,,24,0,1,,,,0,94,92
22238,note_on,,,,,0,0,1,,,,0,70,87
22240,note_on,,,,,2,0,1,,,,0,82,85
22276,note_off,,,,,36,0,1,,,,0,94,64
22280,note_off,,,,,4,0,1,,,,0,82,64
22284,note_off,,,,,4,0,1,,,,0,70,64
22374,note_on,,,,,90,0,1,,,,0,63,83
22378,note_on,,,,,0,0,1,,,,0,75,79
22378,note_on,,,,,4,0,1,,,,0,87,79
22394,note_off,,,,,16,0,1,,,,0,87,64
22396,note_off,,,,,2,0,1,,,,0,75,64
22400,note_off,,,,,4,0,1,,,,0,63,64
22432,note_on,,,,,32,0,1,,,,0,63,89
22434,note_on,,,,,2,0,1,,,,0,87,98
22436,note_on,,,,,2,0,1,,,,0,75,90
22466,note_off,,,,,30,0,1,,,,0,75,64
22470,note_off,,,,,0,0,1,,,,0,63,64
22470,note_off,,,,,4,0,1,,,,0,87,64
22704,control_change,,,,,234,0,1,,64,0,0,,
22852,note_on,,,,,148,0,1,,,,0,66,76
22852,note_on,,,,,0,0,1,,,,0,34,83
22854,note_on,,,,,0,0,1,,,,0,46,88
22854,note_on,,,,,2,0,1,,,,0,63,81
22856,note_on,,,,,2,0,1,,,,0,58,87
22856,note_on,,,,,0,0,1,,,,0,54,79
22866,control_change,,,,,10,0,1,,64,127,0,,
22878,note_off,,,,,12,0,1,,,,0,54,64
22888,note_off,,,,,10,0,1,,,,0,58,64
22890,note_off,,,,,2,0,1,,,,0,46,64
22894,note_off,,,,,4,0,1,,,,0,34,64
22900,note_off,,,,,0,0,1,,,,0,66,64
22900,note_off,,,,,6,0,1,,,,0,63,64
22940,control_change,,,,,40,0,1,,64,0,0,,
23066,note_on,,,,,126,0,1,,,,0,72,82
23066,note_on,,,,,0,0,1,,,,0,60,84
23068,control_change,,,,,2,0,1,,64,127,0,,
23070,note_on,,,,,2,0,1,,,,0,63,84
23070,note_on,,,,,0,0,1,,,,0,45,92
23074,note_on,,,,,4,0,1,,,,0,66,83
23074,note_on,,,,,0,0,1,,,,0,33,95
23088,note_off,,,,,14,0,1,,,,0,60,64
23094,note_off,,,,,6,0,1,,,,0,33,64
23096,note_off,,,,,0,0,1,,,,0,63,64
23096,note_off,,,,,2,0,1,,,,0,45,64
23104,note_off,,,,,8,0,1,,,,0,66,64
23108,note_off,,,,,4,0,1,,,,0,72,64
23242,note_on,,,,,134,0,1,,,,0,84,85
23244,note_on,,,,,2,0,1,,,,0,96,90
23254,note_on,,,,,10,0,1,,,,0,72,79
23258,note_on,,,,,4,0,1,,,,0,60,79
23266,note_off,,,,,8,0,1,,,,0,84,64
23268,note_off,,,,,2,0,1,,,,0,96,64
23272,note_off,,,,,4,0,1,,,,0,60,64
23278,note_off,,,,,6,0,1,,,,0,72,64
23298,note_on,,,,,20,0,1,,,,0,84,95
23300,note_on,,,,,2,0,1,,,,0,96,93
23304,note_on,,,,,4,0,1,,,,0,72,93
23304,note_on,,,,,0,0,1,,,,0,60,78
23322,note_off,,,,,18,0,1,,,,0,96,64
23328,note_off,,,,,6,0,1,,,,0,84,64
23332,note_off,,,,,4,0,1,,,,0,72,64
23338,note_off,,,,,6,0,1,,,,0,60,64
23456,note_on,,,,,118,0,1,,,,0,87,82
23460,note_on,,,,,0,0,1,,,,0,63,77
23460,note_on,,,,,4,0,1,,,,0,75,83
23472,note_on,,,,,12,0,1,,,,0,51,54
23476,note_off,,,,,4,0,1,,,,0,75,64
23480,note_off,,,,,4,0,1,,,,0,63,64
23482,note_off,,,,,2,0,1,,,,0,87,64
23486,note_off,,,,,4,0,1,,,,0,51,64
23512,note_on,,,,,26,0,1,,,,0,87,95
23516,note_on,,,,,4,0,1,,,,0,75,96
23518,note_on,,,,,2,0,1,,,,0,51,94
23520,note_on,,,,,2,0,1,,,,0,63,94
23544,note_off,,,,,24,0,1,,,,0,75,64
23546,note_off,,,,,2,0,1,,,,0,63,64
23548,note_off,,,,,2,0,1,,,,0,87,64
23552,note_off,,,,,4,0,1,,,,0,51,64
23884,control_change,,,,,332,0,1,,64,0,0,,
23948,note_on,,,,,0,0,1,,,,0,55,84
23948,note_on,,,,,64,0,1,,,,0,63,86
23950,note_on,,,,,2,0,1,,,,0,67,84
23952,note_on,,,,,2,0,1,,,,0,60,84
23956,note_on,,,,,0,0,1,,,,0,31,100
23956,note_on,,,,,4,0,1,,,,0,43,100
23962,control_change,,,,,6,0,1,,64,127,0,,
23970,note_off,,,,,8,0,1,,,,0,55,64
23976,note_off,,,,,6,0,1,,,,0,31,64
23980,note_off,,,,,4,0,1,,,,0,60,64
23982,note_off,,,,,2,0,1,,,,0,43,64
23990,note_off,,,,,8,0,1,,,,0,63,64
23992,note_off,,,,,2,0,1,,,,0,67,64
24136,note_on,,,,,144,0,1,,,,0,84,79
24140,note_on,,,,,4,0,1,,,,0,96,61
24142,note_on,,,,,2,0,1,,,,0,72,87
24146,note_on,,,,,4,0,1,,,,0,60,81
24152,note_off,,,,,6,0,1,,,,0,84,64
24154,note_off,,,,,2,0,1,,,,0,96,64
24160,note_off,,,,,6,0,1,,,,0,60,64
24160,note_off,,,,,0,0,1,,,,0,72,64
24188,note_on,,,,,28,0,1,,,,0,96,94
24190,note_on,,,,,2,0,1,,,,0,84,90
24192,note_on,,,,,2,0,1,,,,0,60,86
24196,note_on,,,,,4,0,1,,,,0,72,107
24210,note_off,,,,,14,0,1,,,,0,96,64
24216,note_off,,,,,6,0,1,,,,0,84,64
24224,note_off,,,,,0,0,1,,,,0,60,64
24224,note_off,,,,,8,0,1,,,,0,72,64
24378,note_on,,,,,154,0,1,,,,0,63,84
24380,note_on,,,,,2,0,1,,,,0,87,84
24380,note_on,,,,,0,0,1,,,,0,75,86
24384,note_on,,,,,4,0,1,,,,0,51,86
24398,note_off,,,,,14,0,1,,,,0,51,64
24400,note_off,,,,,0,0,1,,,,0,87,64
24400,note_off,,,,,2,0,1,,,,0,75,64
24404,note_off,,,,,4,0,1,,,,0,63,64
24438,note_on,,,,,34,0,1,,,,0,87,97
24440,note_on,,,,,2,0,1,,,,0,75,94
24444,note_on,,,,,4,0,1,,,,0,63,94
24446,note_on,,,,,2,0,1,,,,0,51,106
24524,note_off,,,,,78,0,1,,,,0,63,64
24524,note_off,,,,,0,0,1,,,,0,75,64
24550,note_off,,,,,26,0,1,,,,0,51,64
24560,note_off,,,,,10,0,1,,,,0,87,64
24822,note_on,,,,,0,0,1,,,,0,93,90
24822,note_on,,,,,262,0,1,,,,0,99,94
24824,note_on,,,,,0,0,1,,,,0,42,82
24824,note_on,,,,,2,0,1,,,,0,87,86
24826,note_on,,,,,2,0,1,,,,0,36,79
24828,note_on,,,,,2,0,1,,,,0,30,89
24848,note_off,,,,,20,0,1,,,,0,87,64
24852,note_off,,,,,0,0,1,,,,0,93,64
24852,note_off,,,,,4,0,1,,,,0,30,64
24854,note_off,,,,,0,0,1,,,,0,99,64
24854,note_off,,,,,2,0,1,,,,0,36,64
24854,note_off,,,,,0,0,1,,,,0,42,64
24880,note_on,,,,,26,0,1,,,,0,42,88
24884,note_on,,,,,4,0,1,,,,0,99,98
24884,note_on,,,,,0,0,1,,,,0,36,92
24886,note_on,,,,,0,0,1,,,,0,87,89
24886,note_on,,,,,2,0,1,,,,0,93,95
24888,note_on,,,,,2,0,1,,,,0,30,94
24916,control_change,,,,,28,0,1,,64,0,0,,
25086,control_change,,,,,170,0,1,,64,127,0,,
25244,note_off,,,,,158,0,1,,,,0,36,64
25248,note_off,,,,,4,0,1,,,,0,99,64
25250,note_off,,,,,2,0,1,,,,0,42,64
25254,note_off,,,,,4,0,1,,,,0,30,64
25254,note_off,,,,,0,0,1,,,,0,93,64
25266,note_off,,,,,12,0,1,,,,0,87,64
25566,note_on,,,,,300,0,1,,,,0,87,84
25568,note_on,,,,,2,0,1,,,,0,93,87
25568,note_on,,,,,0,0,1,,,,0,81,75
25572,note_on,,,,,4,0,1,,,,0,48,88
25574,note_on,,,,,2,0,1,,,,0,42,79
25576,note_on,,,,,2,0,1,,,,0,36,77
25588,note_off,,,,,12,0,1,,,,0,36,64
25592,note_off,,,,,4,0,1,,,,0,87,64
25594,note_off,,,,,2,0,1,,,,0,81,64
25596,note_off,,,,,2,0,1,,,,0,42,64
25596,note_off,,,,,0,0,1,,,,0,93,64
25596,note_off,,,,,0,0,1,,,,0,48,64
25622,note_on,,,,,26,0,1,,,,0,42,83
25624,note_on,,,,,2,0,1,,,,0,81,87
25624,note_on,,,,,0,0,1,,,,0,48,95
25626,note_on,,,,,2,0,1,,,,0,93,90
25628,note_on,,,,,2,0,1,,,,0,87,86
25632,note_on,,,,,4,0,1,,,,0,36,87
25850,note_off,,,,,218,0,1,,,,0,36,64
25862,note_off,,,,,12,0,1,,,,0,48,64
25886,note_off,,,,,24,0,1,,,,0,93,64
25888,note_off,,,,,2,0,1,,,,0,42,64
25928,note_off,,,,,40,0,1,,,,0,81,64
25944,note_off,,,,,16,0,1,,,,0,87,64
26284,note_on,,,,,0,0,1,,,,0,42,67
26284,note_on,,,,,340,0,1,,,,0,87,78
26284,note_on,,,,,0,0,1,,,,0,75,74
26286,note_on,,,,,2,0,1,,,,0,81,75
26288,note_on,,,,,2,0,1,,,,0,54,76
26290,note_on,,,,,2,0,1,,,,0,48,76
26304,note_off,,,,,14,0,1,,,,0,48,64
26310,note_off,,,,,6,0,1,,,,0,75,64
26312,note_off,,,,,2,0,1,,,,0,54,64
26312,note_off,,,,,0,0,1,,,,0,42,64
26316,note_off,,,,,4,0,1,,,,0,87,64
26318,note_off,,,,,2,0,1,,,,0,81,64
26344,note_on,,,,,0,0,1,,,,0,48,84
26344,note_on,,,,,26,0,1,,,,0,54,83
26346,note_on,,,,,2,0,1,,,,0,42,78
26348,note_on,,,,,2,0,1,,,,0,87,92
26348,note_on,,,,,0,0,1,,,,0,81,89
26352,note_on,,,,,4,0,1,,,,0,75,95
26392,note_off,,,,,40,0,1,,,,0,42,64
26396,note_off,,,,,0,0,1,,,,0,54,64
26396,note_off,,,,,4,0,1,,,,0,48,64
26400,note_off,,,,,4,0,1,,,,0,75,64
26408,note_off,,,,,8,0,1,,,,0,87,64
26412,note_off,,,,,4,0,1,,,,0,81,64
26420,set_tempo,,,,,7408,1,0,458015,,,,,
26440,set_tempo,,,,,20,1,0,454545,,,,,
26460,set_tempo,,,,,20,1,0,451128,,,,,
26480,set_tempo,,,,,20,1,0,447761,,,,,
26500,set_tempo,,,,,20,1,0,444444,,,,,
26520,set_tempo,,,,,20,1,0,441176,,,,,
26540,set_tempo,,,,,20,1,0,437956,,,,,
26560,set_tempo,,,,,20,1,0,434783,,,,,
26580,set_tempo,,,,,20,1,0,431655,,,,,
26600,set_tempo,,,,,20,1,0,428571,,,,,
26612,note_on,,,,,200,0,1,,,,0,75,79
26614,note_on,,,,,2,0,1,,,,0,81,79
26614,note_on,,,,,0,0,1,,,,0,69,79
26616,note_on,,,,,2,0,1,,,,0,60,71
26616,note_on,,,,,0,0,1,,,,0,48,81
26620,note_on,,,,,4,0,1,,,,0,54,78
26620,set_tempo,,,,,20,1,0,425532,,,,,
26638,note_off,,,,,0,0,1,,,,0,75,64
26638,note_off,,,,,18,0,1,,,,0,48,64
26638,note_off,,,,,0,0,1,,,,0,69,64
26640,set_tempo,,,,,20,1,0,422535,,,,,
26644,note_off,,,,,0,0,1,,,,0,60,64
26644,note_off,,,,,6,0,1,,,,0,54,64
26646,note_off,,,,,2,0,1,,,,0,81,64
26660,set_tempo,,,,,20,1,0,419580,,,,,
26678,note_on,,,,,0,0,1,,,,0,69,96
26678,note_on,,,,,32,0,1,,,,0,81,86
26680,set_tempo,,,,,20,1,0,416667,,,,,
26680,note_on,,,,,0,0,1,,,,0,60,85
26680,note_on,,,,,0,0,1,,,,0,54,81
26680,note_on,,,,,2,0,1,,,,0,75,92
26688,note_on,,,,,8,0,1,,,,0,48,86
26700,set_tempo,,,,,20,1,0,413793,,,,,
26704,note_off,,,,,16,0,1,,,,0,48,64
26712,note_off,,,,,0,0,1,,,,0,81,64
26712,note_off,,,,,8,0,1,,,,0,69,64
26716,note_off,,,,,4,0,1,,,,0,60,64
26720,set_tempo,,,,,20,1,0,410959,,,,,
26722,note_off,,,,,6,0,1,,,,0,54,64
26728,note_off,,,,,6,0,1,,,,0,75,64
26740,set_tempo,,,,,20,1,0,408163,,,,,
26760,set_tempo,,,,,20,1,0,405405,,,,,
26780,set_tempo,,,,,20,1,0,402685,,,,,
26800,set_tempo,,,,,20,1,0,400000,,,,,
26820,set_tempo,,,,,20,1,0,397351,,,,,
26840,set_tempo,,,,,20,1,0,394737,,,,,
26860,set_tempo,,,,,20,1,0,392157,,,,,
26880,set_tempo,,,,,20,1,0,389610,,,,,
26900,set_tempo,,,,,20,1,0,387097,,,,,
26920,set_tempo,,,,,20,1,0,384615,,,,,
26940,set_tempo,,,,,20,1,0,382166,,,,,
26954,note_on,,,,,226,0,1,,,,0,63,78
26956,note_on,,,,,2,0,1,,,,0,75,79
26956,note_on,,,,,0,0,1,,,,0,54,78
26958,note_on,,,,,2,0,1,,,,0,66,76
26960,note_on,,,,,0,0,1,,,,0,60,77
26960,note_on,,,,,2,0,1,,,,0,69,79
26960,set_tempo,,,,,20,1,0,379747,,,,,
26976,note_off,,,,,16,0,1,,,,0,60,64
26980,set_tempo,,,,,20,1,0,377358,,,,,
26984,note_off,,,,,0,0,1,,,,0,63,64
26984,note_off,,,,,8,0,1,,,,0,66,64
26984,note_off,,,,,0,0,1,,,,0,54,64
26988,note_off,,,,,4,0,1,,,,0,69,64
26992,note_off,,,,,4,0,1,,,,0,75,64
27000,set_tempo,,,,,20,1,0,375000,,,,,
27016,note_on,,,,,0,0,1,,,,0,66,79
27016,note_on,,,,,0,0,1,,,,0,60,89
27016,note_on,,,,,24,0,1,,,,0,69,85
27018,note_on,,,,,2,0,1,,,,0,75,93
27018,note_on,,,,,0,0,1,,,,0,54,77
27020,set_tempo,,,,,20,1,0,372671,,,,,
27020,note_on,,,,,2,0,1,,,,0,63,81
27040,set_tempo,,,,,20,1,0,370370,,,,,
27056,note_off,,,,,36,0,1,,,,0,66,64
27060,note_off,,,,,4,0,1,,,,0,63,64
27060,note_off,,,,,0,0,1,,,,0,60,64
27060,set_tempo,,,,,20,1,0,368098,,,,,
27070,note_off,,,,,10,0,1,,,,0,75,64
27070,note_off,,,,,0,0,1,,,,0,69,64
27078,note_off,,,,,8,0,1,,,,0,54,64
27080,set_tempo,,,,,20,1,0,365854,,,,,
27100,set_tempo,,,,,20,1,0,363636,,,,,
27120,set_tempo,,,,,20,1,0,361446,,,,,
27140,set_tempo,,,,,20,1,0,359281,,,,,
27160,set_tempo,,,,,20,1,0,357143,,,,,
27180,set_tempo,,,,,20,1,0,355030,,,,,
27200,set_tempo,,,,,20,1,0,352941,,,,,
27220,set_tempo,,,,,20,1,0,350877,,,,,
27240,set_tempo,,,,,20,1,0,348837,,,,,
27260,set_tempo,,,,,20,1,0,346821,,,,,
27280,set_tempo,,,,,20,1,0,344828,,,,,
27300,set_tempo,,,,,20,1,0,342857,,,,,
27306,note_on,,,,,228,0,1,,,,0,63,79
27308,note_on,,,,,2,0,1,,,,0,69,76
27310,note_on,,,,,2,0,1,,,,0,60,69
27314,note_on,,,,,4,0,1,,,,0,54,82
27316,note_on,,,,,2,0,1,,,,0,57,77
27318,note_on,,,,,2,0,1,,,,0,48,78
27320,set_tempo,,,,,20,1,0,340909,,,,,
27332,note_off,,,,,14,0,1,,,,0,48,64
27338,note_off,,,,,6,0,1,,,,0,60,64
27340,set_tempo,,,,,20,1,0,338983,,,,,
27342,note_off,,,,,0,0,1,,,,0,54,64
27342,note_off,,,,,4,0,1,,,,0,57,64
27344,note_off,,,,,2,0,1,,,,0,63,64
27346,note_off,,,,,2,0,1,,,,0,69,64
27360,set_tempo,,,,,20,1,0,337079,,,,,
27376,note_on,,,,,30,0,1,,,,0,69,84
27376,note_on,,,,,0,0,1,,,,0,57,84
27378,note_on,,,,,2,0,1,,,,0,60,79
27378,note_on,,,,,0,0,1,,,,0,54,87
27380,note_on,,,,,2,0,1,,,,0,63,80
27384,note_on,,,,,4,0,1,,,,0,48,89
27416,note_off,,,,,32,0,1,,,,0,57,64
27418,note_off,,,,,2,0,1,,,,0,60,64
27422,note_off,,,,,4,0,1,,,,0,69,64
27432,note_off,,,,,10,0,1,,,,0,48,64
27432,note_off,,,,,0,0,1,,,,0,54,64
27440,note_off,,,,,8,0,1,,,,0,63,64
27684,note_on,,,,,244,0,1,,,,0,63,81
27686,note_on,,,,,2,0,1,,,,0,57,82
27686,note_on,,,,,0,0,1,,,,0,54,77
27688,note_on,,,,,2,0,1,,,,0,42,76
27690,note_on,,,,,2,0,1,,,,0,51,83
27692,note_on,,,,,2,0,1,,,,0,45,79
27714,note_off,,,,,22,0,1,,,,0,42,64
27718,note_off,,,,,4,0,1,,,,0,51,64
27718,note_off,,,,,0,0,1,,,,0,54,64
27722,note_off,,,,,4,0,1,,,,0,57,64
27724,note_off,,,,,2,0,1,,,,0,45,64
27726,note_off,,,,,2,0,1,,,,0,63,64
27756,note_on,,,,,0,0,1,,,,0,54,81
27756,note_on,,,,,30,0,1,,,,0,63,85
27756,note_on,,,,,0,0,1,,,,0,45,84
27758,note_on,,,,,2,0,1,,,,0,57,87
27760,note_on,,,,,2,0,1,,,,0,51,86
27766,note_on,,,,,6,0,1,,,,0,42,82
27804,note_off,,,,,38,0,1,,,,0,51,64
27808,note_off,,,,,0,0,1,,,,0,54,64
27808,note_off,,,,,4,0,1,,,,0,45,64
27812,note_off,,,,,4,0,1,,,,0,63,64
27816,note_off,,,,,4,0,1,,,,0,57,64
27820,note_off,,,,,4,0,1,,,,0,42,64
28084,set_tempo,,,,,724,1,0,338983,,,,,
28094,note_on,,,,,0,0,1,,,,0,51,88
28094,note_on,,,,,274,0,1,,,,0,57,84
28100,note_on,,,,,0,0,1,,,,0,45,85
28100,note_on,,,,,6,0,1,,,,0,48,84
28100,note_on,,,,,0,0,1,,,,0,42,86
28104,note_on,,,,,4,0,1,,,,0,36,81
28112,set_tempo,,,,,28,1,0,340909,,,,,
28126,note_off,,,,,22,0,1,,,,0,48,64
28128,note_off,,,,,2,0,1,,,,0,45,64
28132,note_off,,,,,4,0,1,,,,0,36,64
28132,note_off,,,,,0,0,1,,,,0,42,64
28136,set_tempo,,,,,24,1,0,342857,,,,,
28136,note_off,,,,,4,0,1,,,,0,51,64
28138,note_off,,,,,2,0,1,,,,0,57,64
28160,set_tempo,,,,,24,1,0,344828,,,,,
28184,set_tempo,,,,,24,1,0,346821,,,,,
28200,note_on,,,,,62,0,1,,,,0,36,87
28204,note_on,,,,,4,0,1,,,,0,45,94
28204,note_on,,,,,0,0,1,,,,0,42,85
28208,set_tempo,,,,,24,1,0,348837,,,,,
28216,note_on,,,,,12,0,1,,,,0,51,94
28216,note_on,,,,,0,0,1,,,,0,48,93
28224,note_on,,,,,8,0,1,,,,0,57,93
28232,set_tempo,,,,,24,1,0,350877,,,,,
28256,set_tempo,,,,,24,1,0,352941,,,,,
28280,set_tempo,,,,,24,1,0,355030,,,,,
28298,control_change,,,,,74,0,1,,64,0,0,,
28304,set_tempo,,,,,24,1,0,357143,,,,,
28328,set_tempo,,,,,24,1,0,359281,,,,,
28352,set_tempo,,,,,24,1,0,361446,,,,,
28376,set_tempo,,,,,24,1,0,363636,,,,,
28400,set_tempo,,,,,24,1,0,365854,,,,,
28424,set_tempo,,,,,24,1,0,368098,,,,,
28448,set_tempo,,,,,24,1,0,370370,,,,,
28472,set_tempo,,,,,24,1,0,372671,,,,,
28496,set_tempo,,,,,24,1,0,375000,,,,,
28520,set_tempo,,,,,24,1,0,377358,,,,,
28542,control_change,,,,,244,0,1,,64,127,0,,
28548,set_tempo,,,,,28,1,0,379747,,,,,
28572,set_tempo,,,,,24,1,0,382166,,,,,
28596,set_tempo,,,,,24,1,0,384615,,,,,
28620,set_tempo,,,,,24,1,0,387097,,,,,
28644,set_tempo,,,,,24,1,0,389610,,,,,
28668,set_tempo,,,,,24,1,0,392157,,,,,
28692,set_tempo,,,,,24,1,0,394737,,,,,
28716,set_tempo,,,,,24,1,0,397351,,,,,
28722,note_off,,,,,180,0,1,,,,0,45,64
28726,note_off,,,,,4,0,1,,,,0,36,64
28740,set_tempo,,,,,24,1,0,400000,,,,,
28744,note_off,,,,,18,0,1,,,,0,42,64
28764,set_tempo,,,,,24,1,0,402685,,,,,
28768,note_off,,,,,24,0,1,,,,0,48,64
28788,set_tempo,,,,,24,1,0,405405,,,,,
28794,note_off,,,,,26,0,1,,,,0,57,64
28796,note_off,,,,,2,0,1,,,,0,51,64
28812,set_tempo,,,,,24,1,0,408163,,,,,
28836,set_tempo,,,,,24,1,0,410959,,,,,
28860,set_tempo,,,,,24,1,0,413793,,,,,
28884,set_tempo,,,,,24,1,0,416667,,,,,
28908,set_tempo,,,,,24,1,0,419580,,,,,
28932,set_tempo,,,,,24,1,0,422535,,,,,
28956,set_tempo,,,,,24,1,0,425532,,,,,
28980,set_tempo,,,,,24,1,0,428571,,,,,
29074,note_on,,,,,278,0,1,,,,0,51,91
29076,note_on,,,,,0,0,1,,,,0,45,86
29076,note_on,,,,,2,0,1,,,,0,57,82
29078,note_on,,,,,0,0,1,,,,0,35,93
29078,note_on,,,,,2,0,1,,,,0,47,83
29080,note_on,,,,,2,0,1,,,,0,42,79
29132,control_change,,,,,52,0,1,,64,0,0,,
29244,set_tempo,,,,,264,1,0,425532,,,,,
29494,control_change,,,,,362,0,1,,64,127,0,,
29596,note_off,,,,,102,0,1,,,,0,35,64
29614,note_off,,,,,18,0,1,,,,0,47,64
29620,note_off,,,,,6,0,1,,,,0,45,64
29622,note_off,,,,,2,0,1,,,,0,57,64
29630,note_off,,,,,8,0,1,,,,0,42,64
29632,note_off,,,,,2,0,1,,,,0,51,64
29772,set_tempo,,,,,528,1,0,428571,,,,,
30004,note_on,,,,,372,0,1,,,,0,42,80
30006,note_on,,,,,2,0,1,,,,0,45,90
30006,note_on,,,,,0,0,1,,,,0,34,95
30008,note_on,,,,,0,0,1,,,,0,50,73
30008,note_on,,,,,2,0,1,,,,0,57,86
30010,note_on,,,,,2,0,1,,,,0,46,63
30092,control_change,,,,,82,0,1,,64,0,0,,
30174,control_change,,,,,82,0,1,,64,127,0,,
30288,note_off,,,,,114,0,1,,,,0,46,64
30292,note_off,,,,,4,0,1,,,,0,50,64
30300,set_tempo,,,,,528,1,0,431655,,,,,
30300,note_off,,,,,8,0,1,,,,0,45,64
30304,note_off,,,,,4,0,1,,,,0,42,64
30308,set_tempo,,,,,8,1,0,434783,,,,,
30316,set_tempo,,,,,8,1,0,437956,,,,,
30320,set_tempo,,,,,4,1,0,441176,,,,,
30328,set_tempo,,,,,8,1,0,444444,,,,,
30332,set_tempo,,,,,4,1,0,447761,,,,,
30340,set_tempo,,,,,8,1,0,451128,,,,,
30344,set_tempo,,,,,4,1,0,454545,,,,,
30352,set_tempo,,,,,8,1,0,458015,,,,,
30356,set_tempo,,,,,4,1,0,461538,,,,,
30496,note_on,,,,,0,0,1,,,,0,42,61
30496,note_on,,,,,192,0,1,,,,0,54,82
30500,note_on,,,,,0,0,1,,,,0,46,64
30500,note_on,,,,,4,0,1,,,,0,50,68
30502,note_on,,,,,2,0,1,,,,0,38,61
30508,note_off,,,,,6,0,1,,,,0,57,64
30546,control_change,,,,,38,0,1,,64,0,0,,
31176,note_on,,,,,630,0,1,,,,0,55,66
31180,note_on,,,,,4,0,1,,,,0,43,69
31186,note_off,,,,,6,0,1,,,,0,42,64
31188,note_off,,,,,2,0,1,,,,0,54,64
31404,control_change,,,,,216,0,1,,64,127,0,,
31408,note_off,,,,,4,0,1,,,,0,46,64
31410,note_off,,,,,2,0,1,,,,0,50,64
31432,note_off,,,,,22,0,1,,,,0,34,64
31440,note_off,,,,,8,0,1,,,,0,55,64
31444,note_off,,,,,4,0,1,,,,0,43,64
31450,note_off,,,,,6,0,1,,,,0,38,64
31680,set_tempo,,,,,1324,1,0,370370,,,,,
32256,control_change,,,,,806,0,1,,64,0,0,,
32494,note_on,,,,,238,0,1,,,,0,33,64
32520,note_off,,,,,26,0,1,,,,0,33,64
32532,note_on,,,,,12,0,1,,,,0,45,71
32570,note_off,,,,,38,0,1,,,,0,45,64
32582,note_on,,,,,12,0,1,,,,0,34,68
32622,note_off,,,,,40,0,1,,,,0,34,64
32624,note_on,,,,,2,0,1,,,,0,46,74
32670,note_off,,,,,46,0,1,,,,0,46,64
32672,note_on,,,,,2,0,1,,,,0,37,70
32710,note_on,,,,,38,0,1,,,,0,49,71
32716,note_off,,,,,6,0,1,,,,0,37,64
32742,note_off,,,,,26,0,1,,,,0,49,64
32764,note_on,,,,,22,0,1,,,,0,40,67
32800,note_off,,,,,36,0,1,,,,0,40,64
32806,note_on,,,,,6,0,1,,,,0,52,53
32836,note_off,,,,,30,0,1,,,,0,52,64
32858,note_on,,,,,22,0,1,,,,0,41,73
32892,note_off,,,,,34,0,1,,,,0,41,64
32898,note_on,,,,,6,0,1,,,,0,53,58
32926,note_off,,,,,28,0,1,,,,0,53,64
32956,note_on,,,,,30,0,1,,,,0,43,75
32988,note_off,,,,,32,0,1,,,,0,43,64
33006,note_on,,,,,18,0,1,,,,0,55,57
33040,note_off,,,,,34,0,1,,,,0,55,64
33060,note_on,,,,,20,0,1,,,,0,45,74
33104,note_off,,,,,44,0,1,,,,0,45,64
33110,note_on,,,,,6,0,1,,,,0,57,68
33144,note_off,,,,,34,0,1,,,,0,57,64
33176,note_on,,,,,32,0,1,,,,0,46,74
33206,note_off,,,,,30,0,1,,,,0,46,64
33242,note_on,,,,,36,0,1,,,,0,58,68
33322,note_on,,,,,80,0,1,,,,0,37,72
33352,note_off,,,,,30,0,1,,,,0,58,64
33468,note_on,,,,,116,0,1,,,,0,49,55
33620,note_off,,,,,152,0,1,,,,0,49,64
33624,note_off,,,,,4,0,1,,,,0,37,64
34212,note_on,,,,,588,0,1,,,,0,53,71
34246,note_off,,,,,34,0,1,,,,0,53,64
34266,note_on,,,,,20,0,1,,,,0,65,55
34304,note_off,,,,,38,0,1,,,,0,65,64
34308,note_on,,,,,4,0,1,,,,0,52,68
34344,note_off,,,,,36,0,1,,,,0,52,64
34358,note_on,,,,,14,0,1,,,,0,64,54
34398,note_off,,,,,40,0,1,,,,0,64,64
34408,note_on,,,,,10,0,1,,,,0,50,69
34430,note_off,,,,,22,0,1,,,,0,50,64
34456,note_on,,,,,26,0,1,,,,0,62,56
34498,note_off,,,,,42,0,1,,,,0,62,64
34502,note_on,,,,,4,0,1,,,,0,47,57
34544,note_off,,,,,42,0,1,,,,0,47,64
34552,note_on,,,,,8,0,1,,,,0,59,62
34590,note_off,,,,,38,0,1,,,,0,59,64
34606,note_on,,,,,16,0,1,,,,0,44,87
34642,note_off,,,,,36,0,1,,,,0,44,64
34660,note_on,,,,,18,0,1,,,,0,56,71
34698,note_off,,,,,38,0,1,,,,0,56,64
34732,note_on,,,,,34,0,1,,,,0,41,70
34764,note_off,,,,,32,0,1,,,,0,41,64
34794,note_on,,,,,30,0,1,,,,0,53,65
34836,note_off,,,,,42,0,1,,,,0,53,64
34862,note_on,,,,,26,0,1,,,,0,40,68
34910,note_off,,,,,48,0,1,,,,0,40,64
34942,note_on,,,,,32,0,1,,,,0,52,61
35012,note_off,,,,,70,0,1,,,,0,52,64
35024,note_on,,,,,12,0,1,,,,0,38,67
35122,note_off,,,,,98,0,1,,,,0,38,64
35136,note_on,,,,,14,0,1,,,,0,50,63
35278,note_on,,,,,142,0,1,,,,0,32,64
35332,note_off,,,,,54,0,1,,,,0,50,64
35520,set_tempo,,,,,3840,1,0,461538,,,,,
35552,note_on,,,,,220,0,1,,,,0,44,52
35730,control_change,,,,,178,0,1,,64,127,0,,
35802,note_off,,,,,72,0,1,,,,0,32,64
35814,note_off,,,,,12,0,1,,,,0,44,64
36052,control_change,,,,,238,0,1,,64,0,0,,
36326,note_on,,,,,274,0,1,,,,0,45,61
36328,note_on,,,,,2,0,1,,,,0,33,65
36492,note_off,,,,,164,0,1,,,,0,45,64
36494,note_off,,,,,2,0,1,,,,0,33,64
36504,note_on,,,,,10,0,1,,,,0,45,68
36510,note_on,,,,,6,0,1,,,,0,33,59
36602,control_change,,,,,92,0,1,,64,127,0,,
36694,note_on,,,,,92,0,1,,,,0,53,63
36696,note_on,,,,,2,0,1,,,,0,50,46
36740,note_off,,,,,44,0,1,,,,0,50,64
36744,note_off,,,,,4,0,1,,,,0,53,64
36762,note_off,,,,,18,0,1,,,,0,33,64
36772,note_off,,,,,10,0,1,,,,0,45,64
36850,note_on,,,,,78,0,1,,,,0,53,60
36852,note_on,,,,,2,0,1,,,,0,50,51
36962,note_on,,,,,110,0,1,,,,0,34,64
36972,note_on,,,,,10,0,1,,,,0,46,55
37012,note_off,,,,,40,0,1,,,,0,46,64
37014,note_off,,,,,2,0,1,,,,0,34,64
37092,note_on,,,,,78,0,1,,,,0,46,83
37094,note_on,,,,,2,0,1,,,,0,34,70
37112,note_off,,,,,18,0,1,,,,0,50,64
37116,note_off,,,,,4,0,1,,,,0,53,64
37140,control_change,,,,,24,0,1,,64,0,0,,
37180,control_change,,,,,40,0,1,,64,127,0,,
37220,note_on,,,,,40,0,1,,,,0,53,64
37224,note_on,,,,,4,0,1,,,,0,50,48
37248,note_off,,,,,24,0,1,,,,0,50,64
37256,note_off,,,,,8,0,1,,,,0,53,64
37272,note_off,,,,,16,0,1,,,,0,46,64
37284,note_off,,,,,12,0,1,,,,0,34,64
37344,note_on,,,,,60,0,1,,,,0,50,57
37346,note_on,,,,,2,0,1,,,,0,53,62
37436,note_on,,,,,90,0,1,,,,0,33,67
37440,note_on,,,,,4,0,1,,,,0,45,63
37472,note_off,,,,,32,0,1,,,,0,33,64
37474,note_off,,,,,2,0,1,,,,0,45,64
37540,note_on,,,,,0,0,1,,,,0,33,66
37540,note_on,,,,,66,0,1,,,,0,45,68
37546,note_off,,,,,6,0,1,,,,0,50,64
37548,note_off,,,,,2,0,1,,,,0,53,64
37560,control_change,,,,,12,0,1,,64,0,0,,
37624,control_change,,,,,64,0,1,,64,127,0,,
37644,note_on,,,,,20,0,1,,,,0,53,66
37648,note_on,,,,,4,0,1,,,,0,50,55
37670,note_off,,,,,22,0,1,,,,0,50,64
37680,note_off,,,,,10,0,1,,,,0,53,64
37686,note_off,,,,,6,0,1,,,,0,33,64
37686,note_off,,,,,0,0,1,,,,0,45,64
37746,note_on,,,,,60,0,1,,,,0,53,63
37752,note_on,,,,,6,0,1,,,,0,50,56
37818,note_on,,,,,0,0,1,,,,0,32,69
37818,note_on,,,,,66,0,1,,,,0,44,68
37848,note_off,,,,,30,0,1,,,,0,32,64
37854,note_off,,,,,6,0,1,,,,0,44,64
37900,note_off,,,,,46,0,1,,,,0,50,64
37904,note_off,,,,,4,0,1,,,,0,53,64
37908,note_on,,,,,4,0,1,,,,0,32,69
37910,note_on,,,,,2,0,1,,,,0,44,76
37912,control_change,,,,,2,0,1,,64,0,0,,
37954,control_change,,,,,42,0,1,,64,127,0,,
37992,note_on,,,,,38,0,1,,,,0,53,69
37998,note_on,,,,,6,0,1,,,,0,50,60
38000,note_off,,,,,2,0,1,,,,0,32,64
38014,note_off,,,,,14,0,1,,,,0,50,64
38022,note_off,,,,,8,0,1,,,,0,44,64
38026,note_off,,,,,4,0,1,,,,0,53,64
38086,note_on,,,,,60,0,1,,,,0,53,64
38092,note_on,,,,,6,0,1,,,,0,50,61
38166,note_on,,,,,74,0,1,,,,0,31,78
38170,note_on,,,,,4,0,1,,,,0,43,69
38198,note_off,,,,,28,0,1,,,,0,31,64
38200,note_off,,,,,2,0,1,,,,0,43,64
38240,note_off,,,,,40,0,1,,,,0,50,64
38252,note_on,,,,,12,0,1,,,,0,43,75
38252,note_on,,,,,0,0,1,,,,0,31,78
38258,note_off,,,,,6,0,1,,,,0,53,64
38266,control_change,,,,,8,0,1,,64,0,0,,
38328,note_on,,,,,62,0,1,,,,0,52,63
38332,note_on,,,,,4,0,1,,,,0,50,52
38336,control_change,,,,,4,0,1,,64,127,0,,
38352,note_off,,,,,16,0,1,,,,0,50,64
38360,note_off,,,,,8,0,1,,,,0,52,64
38366,note_off,,,,,6,0,1,,,,0,43,64
38370,note_off,,,,,4,0,1,,,,0,31,64
38412,note_on,,,,,42,0,1,,,,0,52,67
38414,note_on,,,,,2,0,1,,,,0,50,55
38458,note_on,,,,,44,0,1,,,,0,30,72
38462,note_on,,,,,4,0,1,,,,0,42,60
38488,note_off,,,,,26,0,1,,,,0,30,64
38492,note_off,,,,,4,0,1,,,,0,42,64
38546,note_on,,,,,54,0,1,,,,0,42,71
38548,note_on,,,,,2,0,1,,,,0,30,76
38558,control_change,,,,,10,0,1,,64,0,0,,
38560,note_off,,,,,0,0,1,,,,0,52,64
38560,note_off,,,,,2,0,1,,,,0,50,64
38602,control_change,,,,,42,0,1,,64,127,0,,
38620,note_on,,,,,18,0,1,,,,0,52,68
38624,note_on,,,,,4,0,1,,,,0,50,57
38638,note_off,,,,,14,0,1,,,,0,50,64
38648,note_off,,,,,10,0,1,,,,0,52,64
38654,note_off,,,,,6,0,1,,,,0,30,64
38656,note_off,,,,,2,0,1,,,,0,42,64
38696,note_on,,,,,40,0,1,,,,0,52,70
38700,note_on,,,,,4,0,1,,,,0,50,58
38758,note_on,,,,,58,0,1,,,,0,29,77
38760,note_on,,,,,2,0,1,,,,0,41,79
38788,note_off,,,,,28,0,1,,,,0,29,64
38790,note_off,,,,,2,0,1,,,,0,41,64
38818,control_change,,,,,28,0,1,,64,0,0,,
38828,note_off,,,,,10,0,1,,,,0,50,64
38830,note_off,,,,,2,0,1,,,,0,52,64
38832,note_on,,,,,2,0,1,,,,0,41,83
38832,note_on,,,,,0,0,1,,,,0,29,85
38864,control_change,,,,,32,0,1,,64,127,0,,
38896,note_on,,,,,32,0,1,,,,0,52,65
38896,note_on,,,,,0,0,1,,,,0,50,64
38902,note_off,,,,,6,0,1,,,,0,29,64
38922,note_off,,,,,20,0,1,,,,0,41,64
38924,note_off,,,,,2,0,1,,,,0,50,64
38928,note_off,,,,,4,0,1,,,,0,52,64
38972,note_on,,,,,44,0,1,,,,0,52,76
38976,note_on,,,,,4,0,1,,,,0,50,69
39032,note_on,,,,,56,0,1,,,,0,40,74
39032,note_on,,,,,0,0,1,,,,0,28,82
39058,note_off,,,,,26,0,1,,,,0,28,64
39060,control_change,,,,,2,0,1,,64,0,0,,
39064,note_off,,,,,4,0,1,,,,0,40,64
39094,note_off,,,,,30,0,1,,,,0,50,64
39096,note_off,,,,,2,0,1,,,,0,52,64
39104,note_on,,,,,8,0,1,,,,0,40,76
39104,note_on,,,,,0,0,1,,,,0,28,84
39124,control_change,,,,,20,0,1,,64,127,0,,
39164,note_off,,,,,40,0,1,,,,0,28,64
39166,note_on,,,,,2,0,1,,,,0,52,67
39168,note_on,,,,,2,0,1,,,,0,50,64
39176,note_off,,,,,8,0,1,,,,0,40,64
39190,note_off,,,,,14,0,1,,,,0,50,64
39194,note_off,,,,,4,0,1,,,,0,52,64
39244,note_on,,,,,50,0,1,,,,0,50,64
39246,note_on,,,,,2,0,1,,,,0,52,72
39300,note_on,,,,,54,0,1,,,,0,39,68
39302,note_on,,,,,2,0,1,,,,0,27,72
39324,note_off,,,,,22,0,1,,,,0,27,64
39330,note_off,,,,,6,0,1,,,,0,39,64
39338,note_off,,,,,8,0,1,,,,0,50,64
39346,note_off,,,,,8,0,1,,,,0,52,64
39372,control_change,,,,,26,0,1,,64,0,0,,
39374,note_on,,,,,2,0,1,,,,0,27,83
39376,note_on,,,,,2,0,1,,,,0,39,79
39432,note_on,,,,,56,0,1,,,,0,51,73
39446,control_change,,,,,14,0,1,,64,127,0,,
39456,note_off,,,,,10,0,1,,,,0,27,64
39460,note_off,,,,,4,0,1,,,,0,39,64
39466,note_off,,,,,6,0,1,,,,0,51,64
39506,note_on,,,,,40,0,1,,,,0,51,68
39560,note_on,,,,,54,0,1,,,,0,39,68
39562,note_on,,,,,2,0,1,,,,0,27,73
39594,note_off,,,,,32,0,1,,,,0,27,64
39594,note_off,,,,,0,0,1,,,,0,39,64
39650,note_on,,,,,56,0,1,,,,0,39,74
39652,note_on,,,,,2,0,1,,,,0,27,80
39658,control_change,,,,,6,0,1,,64,0,0,,
39660,note_off,,,,,2,0,1,,,,0,51,64
39730,note_on,,,,,70,0,1,,,,0,51,76
39760,note_off,,,,,30,0,1,,,,0,51,64
39820,note_on,,,,,60,0,1,,,,0,51,79
39900,control_change,,,,,80,0,1,,64,127,0,,
39948,note_off,,,,,48,0,1,,,,0,27,64
39954,note_off,,,,,6,0,1,,,,0,51,64
39956,note_off,,,,,2,0,1,,,,0,39,64
40010,control_change,,,,,54,0,1,,64,0,0,,
40040,note_on,,,,,30,0,1,,,,0,34,81
40070,note_off,,,,,30,0,1,,,,0,34,64
40108,note_on,,,,,38,0,1,,,,0,34,83
40178,control_change,,,,,70,0,1,,64,127,0,,
40196,note_on,,,,,18,0,1,,,,0,46,63
40232,note_off,,,,,36,0,1,,,,0,46,64
40236,note_off,,,,,4,0,1,,,,0,34,64
40272,note_on,,,,,36,0,1,,,,0,46,76
40348,note_on,,,,,76,0,1,,,,0,34,77
40376,note_off,,,,,28,0,1,,,,0,34,64
40430,note_on,,,,,54,0,1,,,,0,34,72
40456,note_off,,,,,26,0,1,,,,0,46,64
40528,note_on,,,,,72,0,1,,,,0,46,58
40564,note_off,,,,,36,0,1,,,,0,46,64
40634,note_on,,,,,70,0,1,,,,0,46,64
40756,note_off,,,,,122,0,1,,,,0,34,64
40826,note_off,,,,,70,0,1,,,,0,46,64
40884,control_change,,,,,58,0,1,,64,0,0,,
40956,note_on,,,,,72,0,1,,,,0,37,69
40958,note_on,,,,,2,0,1,,,,0,25,72
40988,note_off,,,,,0,0,1,,,,0,37,64
40988,note_off,,,,,30,0,1,,,,0,25,64
41056,note_on,,,,,68,0,1,,,,0,37,56
41058,note_on,,,,,2,0,1,,,,0,25,64
41180,note_on,,,,,122,0,1,,,,0,49,53
41204,note_off,,,,,24,0,1,,,,0,49,64
41304,note_on,,,,,100,0,1,,,,0,49,54
41350,control_change,,,,,46,0,1,,64,127,0,,
41400,note_off,,,,,50,0,1,,,,0,25,64
41404,note_off,,,,,4,0,1,,,,0,37,64
41524,note_off,,,,,120,0,1,,,,0,49,64
41552,control_change,,,,,28,0,1,,64,0,0,,
41640,note_on,,,,,88,0,1,,,,0,33,62
41664,note_off,,,,,24,0,1,,,,0,33,64
41772,note_on,,,,,108,0,1,,,,0,33,49
41916,note_on,,,,,144,0,1,,,,0,45,51
42074,note_off,,,,,158,0,1,,,,0,45,64
42102,note_on,,,,,28,0,1,,,,0,45,57
42306,control_change,,,,,204,0,1,,64,127,0,,
42416,note_off,,,,,110,0,1,,,,0,33,64
42432,note_off,,,,,16,0,1,,,,0,45,64
42694,control_change,,,,,262,0,1,,64,0,0,,
42852,set_tempo,,,,,7332,1,0,458015,,,,,
42868,set_tempo,,,,,16,1,0,454545,,,,,
42884,set_tempo,,,,,16,1,0,451128,,,,,
42900,set_tempo,,,,,16,1,0,447761,,,,,
42916,set_tempo,,,,,16,1,0,444444,,,,,
42932,set_tempo,,,,,16,1,0,441176,,,,,
42948,set_tempo,,,,,16,1,0,437956,,,,,
42964,set_tempo,,,,,16,1,0,434783,,,,,
42980,set_tempo,,,,,16,1,0,431655,,,,,
42996,set_tempo,,,,,16,1,0,428571,,,,,
43044,note_on,,,,,350,0,1,,,,0,69,56
43048,control_change,,,,,0,0,1,,64,127,0,,
43048,note_on,,,,,4,0,1,,,,0,57,53
43116,note_off,,,,,68,0,1,,,,0,69,64
43118,note_off,,,,,2,0,1,,,,0,57,64
43248,control_change,,,,,130,0,1,,64,0,0,,
43252,note_on,,,,,4,0,1,,,,0,26,69
43254,note_on,,,,,2,0,1,,,,0,38,53
43276,note_on,,,,,0,0,1,,,,0,57,65
43276,note_on,,,,,22,0,1,,,,0,69,65
43308,control_change,,,,,32,0,1,,64,127,0,,
43326,note_off,,,,,18,0,1,,,,0,26,64
43348,note_off,,,,,22,0,1,,,,0,38,64
43444,note_off,,,,,96,0,1,,,,0,57,64
43454,note_off,,,,,10,0,1,,,,0,69,64
43544,note_on,,,,,90,0,1,,,,0,53,51
43548,note_on,,,,,4,0,1,,,,0,50,53
43548,note_on,,,,,0,0,1,,,,0,45,52
43572,note_off,,,,,24,0,1,,,,0,45,64
43582,note_off,,,,,10,0,1,,,,0,53,64
43584,note_off,,,,,2,0,1,,,,0,50,64
43698,note_on,,,,,114,0,1,,,,0,45,60
43702,note_on,,,,,4,0,1,,,,0,50,56
43704,note_on,,,,,2,0,1,,,,0,53,47
43806,note_off,,,,,102,0,1,,,,0,45,64
43816,note_off,,,,,10,0,1,,,,0,53,64
43818,note_off,,,,,2,0,1,,,,0,50,64
43828,note_on,,,,,0,0,1,,,,0,58,65
43828,note_on,,,,,10,0,1,,,,0,70,71
43864,note_off,,,,,36,0,1,,,,0,70,64
43866,note_off,,,,,2,0,1,,,,0,58,64
43962,note_on,,,,,96,0,1,,,,0,70,73
43964,note_on,,,,,2,0,1,,,,0,58,70
44080,note_on,,,,,116,0,1,,,,0,46,68
44084,note_on,,,,,4,0,1,,,,0,50,66
44086,note_on,,,,,2,0,1,,,,0,53,58
44106,note_off,,,,,20,0,1,,,,0,53,64
44112,note_off,,,,,6,0,1,,,,0,70,64
44116,note_off,,,,,4,0,1,,,,0,50,64
44122,note_off,,,,,6,0,1,,,,0,46,64
44134,note_off,,,,,12,0,1,,,,0,58,64
44190,note_on,,,,,56,0,1,,,,0,46,62
44194,note_on,,,,,4,0,1,,,,0,50,63
44196,note_on,,,,,2,0,1,,,,0,53,64
44224,note_off,,,,,28,0,1,,,,0,53,64
44226,note_off,,,,,2,0,1,,,,0,50,64
44234,note_off,,,,,8,0,1,,,,0,46,64
44292,note_on,,,,,0,0,1,,,,0,57,71
44292,note_on,,,,,58,0,1,,,,0,69,75
44324,note_off,,,,,32,0,1,,,,0,57,64
44328,note_off,,,,,4,0,1,,,,0,69,64
44396,note_on,,,,,68,0,1,,,,0,69,76
44398,note_on,,,,,2,0,1,,,,0,57,73
44478,control_change,,,,,80,0,1,,64,0,0,,
44484,control_change,,,,,6,0,1,,64,127,0,,
44488,note_on,,,,,4,0,1,,,,0,45,73
44490,note_on,,,,,2,0,1,,,,0,53,65
44492,note_on,,,,,2,0,1,,,,0,50,63
44520,note_off,,,,,28,0,1,,,,0,53,64
44522,note_off,,,,,2,0,1,,,,0,50,64
44524,note_off,,,,,2,0,1,,,,0,45,64
44564,note_off,,,,,40,0,1,,,,0,69,64
44580,note_on,,,,,16,0,1,,,,0,45,75
44584,note_on,,,,,4,0,1,,,,0,50,61
44586,note_on,,,,,2,0,1,,,,0,53,65
44588,note_off,,,,,2,0,1,,,,0,57,64
44626,note_off,,,,,0,0,1,,,,0,45,64
44626,note_off,,,,,38,0,1,,,,0,53,64
44638,note_off,,,,,12,0,1,,,,0,50,64
44668,note_on,,,,,30,0,1,,,,0,68,76
44668,note_on,,,,,0,0,1,,,,0,56,64
44698,note_off,,,,,30,0,1,,,,0,56,64
44700,note_off,,,,,2,0,1,,,,0,68,64
44756,note_on,,,,,56,0,1,,,,0,68,76
44758,note_on,,,,,2,0,1,,,,0,56,73
44830,note_on,,,,,72,0,1,,,,0,44,73
44840,note_on,,,,,0,0,1,,,,0,50,62
44840,note_on,,,,,10,0,1,,,,0,53,55
44856,note_off,,,,,16,0,1,,,,0,50,64
44856,note_off,,,,,0,0,1,,,,0,53,64
44862,note_off,,,,,6,0,1,,,,0,44,64
44866,note_off,,,,,4,0,1,,,,0,68,64
44876,note_off,,,,,10,0,1,,,,0,56,64
44908,note_on,,,,,32,0,1,,,,0,44,76
44916,note_on,,,,,8,0,1,,,,0,50,66
44918,note_on,,,,,2,0,1,,,,0,53,61
44952,note_off,,,,,0,0,1,,,,0,50,64
44952,note_off,,,,,34,0,1,,,,0,53,64
44960,note_off,,,,,8,0,1,,,,0,44,64
44988,note_on,,,,,0,0,1,,,,0,55,68
44988,note_on,,,,,28,0,1,,,,0,67,66
45016,note_off,,,,,28,0,1,,,,0,55,64
45020,note_off,,,,,4,0,1,,,,0,67,64
45068,note_on,,,,,48,0,1,,,,0,67,70
45070,note_on,,,,,2,0,1,,,,0,55,67
45146,note_on,,,,,76,0,1,,,,0,50,63
45152,note_on,,,,,6,0,1,,,,0,45,65
45152,note_on,,,,,0,0,1,,,,0,43,64
45164,note_off,,,,,12,0,1,,,,0,67,64
45168,note_off,,,,,4,0,1,,,,0,45,64
45170,note_off,,,,,2,0,1,,,,0,43,64
45174,note_off,,,,,4,0,1,,,,0,55,64
45176,note_off,,,,,2,0,1,,,,0,50,64
45228,note_on,,,,,52,0,1,,,,0,45,63
45228,note_on,,,,,0,0,1,,,,0,43,60
45232,note_on,,,,,4,0,1,,,,0,50,64
45280,control_change,,,,,48,0,1,,64,0,0,,
45298,control_change,,,,,18,0,1,,64,127,0,,
45300,note_on,,,,,2,0,1,,,,0,66,81
45304,note_on,,,,,4,0,1,,,,0,54,70
45306,note_off,,,,,2,0,1,,,,0,45,64
45314,note_off,,,,,8,0,1,,,,0,50,64
45316,note_off,,,,,2,0,1,,,,0,43,64
45330,note_off,,,,,14,0,1,,,,0,66,64
45332,note_off,,,,,2,0,1,,,,0,54,64
45372,note_on,,,,,40,0,1,,,,0,66,76
45376,note_on,,,,,4,0,1,,,,0,54,61
45450,note_on,,,,,74,0,1,,,,0,42,73
45456,note_on,,,,,0,0,1,,,,0,45,69
45456,note_on,,,,,6,0,1,,,,0,50,65
45468,note_off,,,,,12,0,1,,,,0,66,64
45472,note_off,,,,,4,0,1,,,,0,50,64
45474,note_off,,,,,2,0,1,,,,0,45,64
45482,note_off,,,,,8,0,1,,,,0,42,64
45484,note_off,,,,,2,0,1,,,,0,54,64
45528,note_on,,,,,44,0,1,,,,0,42,64
45530,note_on,,,,,2,0,1,,,,0,45,60
45536,note_on,,,,,6,0,1,,,,0,50,57
45560,note_off,,,,,24,0,1,,,,0,50,64
45562,note_off,,,,,2,0,1,,,,0,45,64
45566,note_off,,,,,4,0,1,,,,0,42,64
45592,note_on,,,,,26,0,1,,,,0,53,68
45594,note_on,,,,,2,0,1,,,,0,65,71
45608,note_off,,,,,14,0,1,,,,0,65,64
45622,note_off,,,,,14,0,1,,,,0,53,64
45680,note_on,,,,,58,0,1,,,,0,65,79
45680,note_on,,,,,0,0,1,,,,0,53,76
45744,note_on,,,,,64,0,1,,,,0,45,69
45748,note_on,,,,,4,0,1,,,,0,41,73
45764,note_off,,,,,16,0,1,,,,0,41,64
45772,note_off,,,,,8,0,1,,,,0,45,64
45784,control_change,,,,,12,0,1,,64,0,0,,
45786,note_off,,,,,2,0,1,,,,0,65,64
45808,control_change,,,,,22,0,1,,64,127,0,,
45812,note_on,,,,,4,0,1,,,,0,45,63
45814,note_off,,,,,2,0,1,,,,0,53,64
45816,note_on,,,,,2,0,1,,,,0,41,73
45860,note_off,,,,,44,0,1,,,,0,45,64
45866,note_off,,,,,6,0,1,,,,0,41,64
45892,note_on,,,,,26,0,1,,,,0,64,72
45894,note_on,,,,,2,0,1,,,,0,52,66
45920,note_off,,,,,26,0,1,,,,0,52,64
45920,note_off,,,,,0,0,1,,,,0,64,64
45970,note_on,,,,,50,0,1,,,,0,64,77
45972,note_on,,,,,2,0,1,,,,0,52,72
46036,note_on,,,,,64,0,1,,,,0,45,66
46036,note_on,,,,,0,0,1,,,,0,41,71
46038,note_on,,,,,2,0,1,,,,0,40,65
46040,note_off,,,,,2,0,1,,,,0,64,64
46052,note_off,,,,,0,0,1,,,,0,52,64
46052,note_off,,,,,12,0,1,,,,0,41,64
46060,note_off,,,,,0,0,1,,,,0,45,64
46060,note_off,,,,,8,0,1,,,,0,40,64
46112,note_on,,,,,52,0,1,,,,0,41,71
46116,note_on,,,,,4,0,1,,,,0,45,70
46116,note_on,,,,,0,0,1,,,,0,40,61
46142,control_change,,,,,26,0,1,,64,0,0,,
46164,note_off,,,,,22,0,1,,,,0,41,64
46166,note_off,,,,,2,0,1,,,,0,40,64
46172,control_change,,,,,6,0,1,,64,127,0,,
46174,note_off,,,,,2,0,1,,,,0,45,64
46180,note_on,,,,,6,0,1,,,,0,63,74
46184,note_on,,,,,4,0,1,,,,0,51,68
46212,note_off,,,,,0,0,1,,,,0,63,64
46212,note_off,,,,,28,0,1,,,,0,51,64
46260,note_on,,,,,48,0,1,,,,0,63,73
46268,note_on,,,,,8,0,1,,,,0,51,72
46326,note_on,,,,,0,0,1,,,,0,39,70
46326,note_on,,,,,58,0,1,,,,0,41,69
46328,note_on,,,,,2,0,1,,,,0,45,66
46342,note_off,,,,,14,0,1,,,,0,45,64
46346,note_off,,,,,4,0,1,,,,0,41,64
46354,note_off,,,,,8,0,1,,,,0,39,64
46362,note_off,,,,,8,0,1,,,,0,63,64
46372,note_off,,,,,10,0,1,,,,0,51,64
46398,note_on,,,,,26,0,1,,,,0,39,71
46400,note_on,,,,,2,0,1,,,,0,41,68
46408,note_on,,,,,8,0,1,,,,0,45,65
46430,control_change,,,,,22,0,1,,64,0,0,,
46448,note_off,,,,,18,0,1,,,,0,39,64
46456,note_off,,,,,8,0,1,,,,0,45,64
46458,note_off,,,,,2,0,1,,,,0,41,64
46464,note_on,,,,,6,0,1,,,,0,62,79
46466,control_change,,,,,2,0,1,,64,127,0,,
46468,note_on,,,,,2,0,1,,,,0,50,68
46494,note_off,,,,,26,0,1,,,,0,62,64
46496,note_off,,,,,2,0,1,,,,0,50,64
46542,note_on,,,,,46,0,1,,,,0,50,72
46544,note_on,,,,,2,0,1,,,,0,62,74
46614,note_on,,,,,70,0,1,,,,0,41,69
46614,note_on,,,,,0,0,1,,,,0,38,65
46616,note_on,,,,,2,0,1,,,,0,45,61
46632,note_off,,,,,16,0,1,,,,0,45,64
46636,note_off,,,,,4,0,1,,,,0,41,64
46644,note_off,,,,,8,0,1,,,,0,38,64
46646,note_off,,,,,2,0,1,,,,0,62,64
46656,note_off,,,,,10,0,1,,,,0,50,64
46686,note_on,,,,,30,0,1,,,,0,41,75
46690,note_on,,,,,4,0,1,,,,0,38,73
46692,note_on,,,,,2,0,1,,,,0,45,63
46720,control_change,,,,,28,0,1,,64,0,0,,
46752,note_on,,,,,32,0,1,,,,0,61,78
46756,note_on,,,,,4,0,1,,,,0,49,68
46778,note_off,,,,,22,0,1,,,,0,49,64
46780,note_off,,,,,2,0,1,,,,0,61,64
46784,control_change,,,,,4,0,1,,64,127,0,,
46794,note_off,,,,,10,0,1,,,,0,45,64
46800,note_off,,,,,6,0,1,,,,0,38,64
46802,note_off,,,,,2,0,1,,,,0,41,64
46828,note_on,,,,,26,0,1,,,,0,61,83
46832,note_on,,,,,4,0,1,,,,0,49,73
46896,note_on,,,,,64,0,1,,,,0,37,76
46898,note_on,,,,,2,0,1,,,,0,41,70
46902,note_on,,,,,4,0,1,,,,0,45,66
46916,note_off,,,,,14,0,1,,,,0,45,64
46916,note_off,,,,,0,0,1,,,,0,41,64
46924,note_off,,,,,8,0,1,,,,0,37,64
46956,note_off,,,,,32,0,1,,,,0,49,64
46958,control_change,,,,,2,0,1,,64,0,0,,
46964,note_on,,,,,6,0,1,,,,0,37,72
46968,note_on,,,,,4,0,1,,,,0,41,69
46972,note_on,,,,,4,0,1,,,,0,45,60
46976,note_off,,,,,4,0,1,,,,0,61,64
46988,control_change,,,,,12,0,1,,64,127,0,,
47026,note_off,,,,,38,0,1,,,,0,37,64
47032,note_on,,,,,6,0,1,,,,0,50,66
47036,note_on,,,,,4,0,1,,,,0,62,63
47042,note_off,,,,,6,0,1,,,,0,41,64
47062,note_off,,,,,20,0,1,,,,0,50,64
47064,note_off,,,,,2,0,1,,,,0,45,64
47064,note_off,,,,,0,0,1,,,,0,62,64
47110,note_on,,,,,46,0,1,,,,0,62,71
47110,note_on,,,,,0,0,1,,,,0,50,74
47178,note_on,,,,,68,0,1,,,,0,38,64
47180,note_on,,,,,2,0,1,,,,0,45,68
47180,note_on,,,,,0,0,1,,,,0,41,67
47198,note_off,,,,,18,0,1,,,,0,41,64
47206,note_off,,,,,8,0,1,,,,0,45,64
47210,note_off,,,,,4,0,1,,,,0,38,64
47218,note_off,,,,,8,0,1,,,,0,50,64
47224,note_off,,,,,6,0,1,,,,0,62,64
47236,control_change,,,,,12,0,1,,64,0,0,,
47246,note_on,,,,,0,0,1,,,,0,38,65
47246,note_on,,,,,10,0,1,,,,0,41,77
47248,note_on,,,,,2,0,1,,,,0,45,65
47276,control_change,,,,,28,0,1,,64,127,0,,
47304,note_off,,,,,0,0,1,,,,0,41,64
47304,note_off,,,,,28,0,1,,,,0,38,64
47308,note_off,,,,,4,0,1,,,,0,45,64
47310,note_on,,,,,2,0,1,,,,0,63,73
47312,note_on,,,,,2,0,1,,,,0,51,65
47328,note_off,,,,,16,0,1,,,,0,63,64
47330,note_off,,,,,2,0,1,,,,0,51,64
47382,note_on,,,,,52,0,1,,,,0,63,80
47388,note_on,,,,,6,0,1,,,,0,51,72
47452,note_on,,,,,64,0,1,,,,0,41,71
47452,note_on,,,,,0,0,1,,,,0,39,71
47454,note_on,,,,,2,0,1,,,,0,45,68
47460,control_change,,,,,6,0,1,,64,0,0,,
47480,note_off,,,,,20,0,1,,,,0,41,64
47482,note_off,,,,,2,0,1,,,,0,45,64
47486,note_off,,,,,4,0,1,,,,0,39,64
47498,control_change,,,,,12,0,1,,64,127,0,,
47520,note_off,,,,,22,0,1,,,,0,63,64
47522,note_on,,,,,2,0,1,,,,0,41,73
47522,note_on,,,,,0,0,1,,,,0,39,63
47524,note_on,,,,,0,0,1,,,,0,45,61
47524,note_off,,,,,2,0,1,,,,0,51,64
47564,note_off,,,,,40,0,1,,,,0,41,64
47570,note_off,,,,,6,0,1,,,,0,39,64
47572,note_off,,,,,2,0,1,,,,0,45,64
47590,note_on,,,,,18,0,1,,,,0,52,73
47592,note_on,,,,,2,0,1,,,,0,64,68
47618,note_off,,,,,26,0,1,,,,0,52,64
47620,note_off,,,,,2,0,1,,,,0,64,64
47662,note_on,,,,,42,0,1,,,,0,64,77
47664,note_on,,,,,2,0,1,,,,0,52,75
47698,note_off,,,,,34,0,1,,,,0,52,64
47716,control_change,,,,,18,0,1,,64,0,0,,
47720,note_off,,,,,4,0,1,,,,0,64,64
47730,control_change,,,,,10,0,1,,64,127,0,,
47732,note_on,,,,,2,0,1,,,,0,45,73
47734,note_on,,,,,2,0,1,,,,0,41,73
47736,note_on,,,,,2,0,1,,,,0,40,72
47762,note_off,,,,,26,0,1,,,,0,41,64
47766,note_off,,,,,0,0,1,,,,0,45,64
47766,note_off,,,,,4,0,1,,,,0,40,64
47802,note_on,,,,,36,0,1,,,,0,45,73
47802,note_on,,,,,0,0,1,,,,0,41,72
47806,note_on,,,,,4,0,1,,,,0,40,69
47840,note_off,,,,,34,0,1,,,,0,41,64
47844,note_off,,,,,4,0,1,,,,0,40,64
47848,note_off,,,,,4,0,1,,,,0,45,64
47866,note_on,,,,,18,0,1,,,,0,53,79
47870,note_on,,,,,4,0,1,,,,0,65,71
47894,note_off,,,,,24,0,1,,,,0,53,64
47898,note_off,,,,,4,0,1,,,,0,65,64
47946,note_on,,,,,0,0,1,,,,0,53,81
47946,note_on,,,,,48,0,1,,,,0,65,83
47976,note_off,,,,,30,0,1,,,,0,53,64
47976,note_off,,,,,0,0,1,,,,0,65,64
47992,control_change,,,,,16,0,1,,64,0,0,,
48006,control_change,,,,,14,0,1,,64,127,0,,
48008,note_on,,,,,2,0,1,,,,0,41,74
48010,note_on,,,,,2,0,1,,,,0,45,73
48012,note_on,,,,,2,0,1,,,,0,50,58
48042,note_off,,,,,30,0,1,,,,0,45,64
48044,note_off,,,,,0,0,1,,,,0,41,64
48044,note_off,,,,,2,0,1,,,,0,50,64
48088,note_on,,,,,44,0,1,,,,0,45,71
48090,note_on,,,,,2,0,1,,,,0,50,51
48092,note_on,,,,,2,0,1,,,,0,41,79
48128,note_off,,,,,0,0,1,,,,0,50,64
48128,note_off,,,,,36,0,1,,,,0,41,64
48132,note_off,,,,,4,0,1,,,,0,45,64
48144,note_on,,,,,12,0,1,,,,0,66,78
48146,note_on,,,,,2,0,1,,,,0,54,72
48172,note_off,,,,,26,0,1,,,,0,54,64
48174,note_off,,,,,2,0,1,,,,0,66,64
48222,note_on,,,,,48,0,1,,,,0,66,78
48224,note_on,,,,,2,0,1,,,,0,54,76
48280,control_change,,,,,56,0,1,,64,0,0,,
48284,control_change,,,,,4,0,1,,64,127,0,,
48286,note_on,,,,,2,0,1,,,,0,42,69
48288,note_on,,,,,2,0,1,,,,0,50,69
48288,note_on,,,,,0,0,1,,,,0,45,69
48316,note_off,,,,,0,0,1,,,,0,50,64
48316,note_off,,,,,28,0,1,,,,0,45,64
48324,note_off,,,,,8,0,1,,,,0,42,64
48346,note_off,,,,,22,0,1,,,,0,66,64
48354,note_off,,,,,8,0,1,,,,0,54,64
48358,note_on,,,,,4,0,1,,,,0,45,79
48364,note_on,,,,,0,0,1,,,,0,42,64
48364,note_on,,,,,6,0,1,,,,0,50,68
48404,note_off,,,,,40,0,1,,,,0,50,64
48408,note_off,,,,,4,0,1,,,,0,42,64
48408,note_off,,,,,0,0,1,,,,0,45,64
48424,note_on,,,,,16,0,1,,,,0,67,68
48426,note_on,,,,,2,0,1,,,,0,55,67
48452,note_off,,,,,26,0,1,,,,0,55,64
48454,note_off,,,,,2,0,1,,,,0,67,64
48502,note_on,,,,,0,0,1,,,,0,55,73
48502,note_on,,,,,48,0,1,,,,0,67,80
48538,note_off,,,,,36,0,1,,,,0,55,64
48546,note_off,,,,,8,0,1,,,,0,67,64
48568,note_on,,,,,22,0,1,,,,0,45,67
48570,note_on,,,,,2,0,1,,,,0,50,71
48572,control_change,,,,,2,0,1,,64,0,0,,
48576,control_change,,,,,4,0,1,,64,127,0,,
48578,note_on,,,,,2,0,1,,,,0,43,64
48596,note_off,,,,,18,0,1,,,,0,43,64
48600,note_off,,,,,0,0,1,,,,0,45,64
48600,note_off,,,,,4,0,1,,,,0,50,64
48648,note_on,,,,,48,0,1,,,,0,45,80
48652,note_on,,,,,4,0,1,,,,0,50,76
48652,note_on,,,,,0,0,1,,,,0,43,71
48694,note_off,,,,,0,0,1,,,,0,45,64
48694,note_off,,,,,42,0,1,,,,0,50,64
48700,note_off,,,,,6,0,1,,,,0,43,64
48712,note_on,,,,,12,0,1,,,,0,56,80
48714,note_on,,,,,2,0,1,,,,0,68,81
48740,note_off,,,,,26,0,1,,,,0,56,64
48746,note_off,,,,,6,0,1,,,,0,68,64
48796,note_on,,,,,50,0,1,,,,0,68,88
48796,note_on,,,,,0,0,1,,,,0,56,86
48868,note_on,,,,,72,0,1,,,,0,44,81
48870,note_on,,,,,2,0,1,,,,0,50,76
48872,control_change,,,,,2,0,1,,64,0,0,,
48876,note_on,,,,,4,0,1,,,,0,53,62
48902,note_off,,,,,26,0,1,,,,0,53,64
48902,note_off,,,,,0,0,1,,,,0,50,64
48906,note_off,,,,,4,0,1,,,,0,44,64
48912,control_change,,,,,6,0,1,,64,127,0,,
48950,note_on,,,,,38,0,1,,,,0,50,84
48952,note_off,,,,,2,0,1,,,,0,68,64
48952,note_on,,,,,0,0,1,,,,0,44,90
48956,note_on,,,,,4,0,1,,,,0,53,82
48958,note_off,,,,,2,0,1,,,,0,56,64
49006,note_off,,,,,0,0,1,,,,0,50,64
49006,note_off,,,,,0,0,1,,,,0,53,64
49006,note_off,,,,,48,0,1,,,,0,44,64
49030,note_on,,,,,24,0,1,,,,0,69,80
49030,note_on,,,,,0,0,1,,,,0,57,84
49058,note_off,,,,,28,0,1,,,,0,57,64
49060,note_off,,,,,2,0,1,,,,0,69,64
49116,note_on,,,,,56,0,1,,,,0,69,92
49116,note_on,,,,,0,0,1,,,,0,57,89
49154,control_change,,,,,38,0,1,,64,0,0,,
49166,control_change,,,,,12,0,1,,64,127,0,,
49184,note_on,,,,,18,0,1,,,,0,50,79
49184,note_on,,,,,0,0,1,,,,0,45,86
49186,note_on,,,,,2,0,1,,,,0,53,82
49220,note_off,,,,,34,0,1,,,,0,53,64
49224,note_off,,,,,4,0,1,,,,0,45,64
49226,note_off,,,,,2,0,1,,,,0,50,64
49240,note_off,,,,,14,0,1,,,,0,57,64
49262,note_off,,,,,22,0,1,,,,0,69,64
49282,note_on,,,,,20,0,1,,,,0,50,90
49286,note_on,,,,,4,0,1,,,,0,53,89
49288,note_on,,,,,2,0,1,,,,0,45,77
49372,note_on,,,,,84,0,1,,,,0,62,93
49374,note_on,,,,,2,0,1,,,,0,74,86
49406,note_off,,,,,32,0,1,,,,0,62,64
49410,note_off,,,,,4,0,1,,,,0,74,64
49496,note_on,,,,,86,0,1,,,,0,74,92
49496,note_on,,,,,0,0,1,,,,0,62,99
49516,control_change,,,,,20,0,1,,64,0,0,,
49544,control_change,,,,,28,0,1,,64,127,0,,
49568,note_off,,,,,24,0,1,,,,0,50,64
49582,note_off,,,,,14,0,1,,,,0,45,64
49588,note_off,,,,,6,0,1,,,,0,53,64
49646,note_off,,,,,58,0,1,,,,0,74,64
49670,note_off,,,,,24,0,1,,,,0,62,64
49772,note_on,,,,,102,0,1,,,,0,72,83
49772,note_on,,,,,0,0,1,,,,0,60,83
49798,note_off,,,,,26,0,1,,,,0,60,64
49802,note_off,,,,,4,0,1,,,,0,72,64
49862,note_on,,,,,60,0,1,,,,0,26,103
49864,note_on,,,,,2,0,1,,,,0,38,101
49870,control_change,,,,,6,0,1,,64,0,0,,
49900,note_on,,,,,30,0,1,,,,0,60,85
49902,note_on,,,,,2,0,1,,,,0,72,88
49910,control_change,,,,,8,0,1,,64,127,0,,
49914,note_off,,,,,4,0,1,,,,0,26,64
49932,note_off,,,,,18,0,1,,,,0,38,64
50036,note_on,,,,,104,0,1,,,,0,52,68
50038,note_on,,,,,2,0,1,,,,0,55,56
50042,note_on,,,,,4,0,1,,,,0,46,76
50068,note_off,,,,,26,0,1,,,,0,52,64
50072,note_off,,,,,4,0,1,,,,0,55,64
50076,note_off,,,,,4,0,1,,,,0,46,64
50128,note_on,,,,,52,0,1,,,,0,46,83
50132,note_on,,,,,4,0,1,,,,0,55,67
50138,note_on,,,,,6,0,1,,,,0,52,60
50144,note_off,,,,,6,0,1,,,,0,72,64
50160,note_off,,,,,16,0,1,,,,0,60,64
50170,note_off,,,,,10,0,1,,,,0,46,64
50182,note_off,,,,,12,0,1,,,,0,52,64
50182,note_off,,,,,0,0,1,,,,0,55,64
50216,note_on,,,,,34,0,1,,,,0,71,79
50216,note_on,,,,,0,0,1,,,,0,59,77
50242,note_off,,,,,26,0,1,,,,0,59,64
50246,note_off,,,,,4,0,1,,,,0,71,64
50308,note_on,,,,,62,0,1,,,,0,71,84
50310,note_on,,,,,2,0,1,,,,0,59,79
50384,note_on,,,,,74,0,1,,,,0,47,71
50386,note_on,,,,,2,0,1,,,,0,55,64
50388,note_on,,,,,2,0,1,,,,0,52,73
50414,note_off,,,,,26,0,1,,,,0,47,64
50418,note_off,,,,,4,0,1,,,,0,55,64
50420,note_off,,,,,2,0,1,,,,0,52,64
50466,note_on,,,,,46,0,1,,,,0,52,65
50468,note_on,,,,,2,0,1,,,,0,55,62
50468,note_on,,,,,0,0,1,,,,0,47,79
50474,control_change,,,,,6,0,1,,64,0,0,,
50476,note_off,,,,,2,0,1,,,,0,71,64
50492,note_off,,,,,16,0,1,,,,0,59,64
50512,control_change,,,,,20,0,1,,64,127,0,,
50532,note_off,,,,,20,0,1,,,,0,47,64
50536,note_off,,,,,4,0,1,,,,0,55,64
50544,note_off,,,,,8,0,1,,,,0,52,64
50548,note_on,,,,,4,0,1,,,,0,70,81
50552,note_on,,,,,4,0,1,,,,0,58,70
50570,note_off,,,,,18,0,1,,,,0,58,64
50572,note_off,,,,,2,0,1,,,,0,70,64
50626,note_on,,,,,54,0,1,,,,0,70,80
50628,note_on,,,,,2,0,1,,,,0,58,79
50684,note_on,,,,,56,0,1,,,,0,46,78
50692,note_on,,,,,8,0,1,,,,0,52,66
50698,note_on,,,,,6,0,1,,,,0,55,49
50712,note_off,,,,,14,0,1,,,,0,55,64
50718,note_off,,,,,6,0,1,,,,0,46,64
50720,note_off,,,,,2,0,1,,,,0,52,64
50732,note_off,,,,,12,0,1,,,,0,70,64
50742,note_off,,,,,10,0,1,,,,0,58,64
50760,note_on,,,,,18,0,1,,,,0,52,67
50760,note_on,,,,,0,0,1,,,,0,46,81
50766,note_on,,,,,6,0,1,,,,0,55,67
50792,note_off,,,,,26,0,1,,,,0,52,64
50798,note_off,,,,,6,0,1,,,,0,55,64
50800,note_off,,,,,2,0,1,,,,0,46,64
50834,note_on,,,,,34,0,1,,,,0,57,80
50836,note_on,,,,,2,0,1,,,,0,69,82
50862,note_off,,,,,26,0,1,,,,0,57,64
50864,note_off,,,,,2,0,1,,,,0,69,64
50914,note_on,,,,,50,0,1,,,,0,69,85
50914,note_on,,,,,0,0,1,,,,0,57,83
50982,note_on,,,,,68,0,1,,,,0,52,74
50986,note_on,,,,,0,0,1,,,,0,45,77
50986,note_on,,,,,4,0,1,,,,0,46,76
51010,note_off,,,,,24,0,1,,,,0,46,64
51012,note_off,,,,,2,0,1,,,,0,52,64
51016,note_off,,,,,4,0,1,,,,0,45,64
51026,note_off,,,,,10,0,1,,,,0,69,64
51030,control_change,,,,,4,0,1,,64,0,0,,
51034,control_change,,,,,4,0,1,,64,127,0,,
51036,note_off,,,,,2,0,1,,,,0,57,64
51050,note_on,,,,,14,0,1,,,,0,46,78
51054,note_on,,,,,4,0,1,,,,0,45,78
51056,note_on,,,,,2,0,1,,,,0,52,70
51104,note_off,,,,,48,0,1,,,,0,45,64
51106,note_off,,,,,2,0,1,,,,0,52,64
51116,note_off,,,,,10,0,1,,,,0,46,64
51126,note_on,,,,,10,0,1,,,,0,56,78
51128,note_on,,,,,2,0,1,,,,0,68,81
51150,note_off,,,,,22,0,1,,,,0,68,64
51150,note_off,,,,,0,0,1,,,,0,56,64
51196,note_on,,,,,46,0,1,,,,0,68,79
51200,note_on,,,,,4,0,1,,,,0,56,81
51252,control_change,,,,,52,0,1,,64,0,0,,
51258,control_change,,,,,6,0,1,,64,127,0,,
51264,note_on,,,,,6,0,1,,,,0,44,71
51266,note_on,,,,,2,0,1,,,,0,52,74
51268,note_on,,,,,2,0,1,,,,0,46,59
51292,note_off,,,,,24,0,1,,,,0,46,64
51292,note_off,,,,,0,0,1,,,,0,44,64
51294,note_off,,,,,2,0,1,,,,0,52,64
51326,note_off,,,,,32,0,1,,,,0,68,64
51332,note_on,,,,,0,0,1,,,,0,44,70
51332,note_on,,,,,6,0,1,,,,0,46,78
51334,note_on,,,,,2,0,1,,,,0,52,69
51340,note_off,,,,,6,0,1,,,,0,56,64
51376,note_off,,,,,0,0,1,,,,0,46,64
51376,note_off,,,,,36,0,1,,,,0,52,64
51378,note_off,,,,,2,0,1,,,,0,44,64
51410,note_on,,,,,32,0,1,,,,0,67,70
51410,note_on,,,,,0,0,1,,,,0,55,75
51436,note_off,,,,,0,0,1,,,,0,67,64
51436,note_off,,,,,26,0,1,,,,0,55,64
51482,note_on,,,,,46,0,1,,,,0,55,73
51484,note_on,,,,,2,0,1,,,,0,67,78
51542,note_on,,,,,58,0,1,,,,0,43,73
51544,note_on,,,,,0,0,1,,,,0,46,73
51544,note_on,,,,,2,0,1,,,,0,52,73
51556,note_off,,,,,12,0,1,,,,0,67,64
51566,note_off,,,,,10,0,1,,,,0,55,64
51570,note_off,,,,,4,0,1,,,,0,52,64
51572,note_off,,,,,2,0,1,,,,0,46,64
51572,note_off,,,,,0,0,1,,,,0,43,64
51602,control_change,,,,,30,0,1,,64,0,0,,
51618,note_on,,,,,16,0,1,,,,0,52,72
51620,note_on,,,,,2,0,1,,,,0,46,78
51620,note_on,,,,,0,0,1,,,,0,43,79
51620,control_change,,,,,0,0,1,,64,127,0,,
51658,note_off,,,,,38,0,1,,,,0,43,64
51660,note_off,,,,,2,0,1,,,,0,52,64
51666,note_off,,,,,6,0,1,,,,0,46,64
51670,note_on,,,,,4,0,1,,,,0,66,78
51672,note_on,,,,,2,0,1,,,,0,54,76
51696,note_off,,,,,24,0,1,,,,0,54,64
51698,note_off,,,,,2,0,1,,,,0,66,64
51744,note_on,,,,,46,0,1,,,,0,66,78
51746,note_on,,,,,2,0,1,,,,0,54,78
51808,note_on,,,,,62,0,1,,,,0,42,72
51812,note_on,,,,,4,0,1,,,,0,46,84
51818,control_change,,,,,6,0,1,,64,0,0,,
51840,note_off,,,,,22,0,1,,,,0,46,64
51840,note_off,,,,,0,0,1,,,,0,42,64
51848,control_change,,,,,8,0,1,,64,127,0,,
51864,note_off,,,,,16,0,1,,,,0,66,64
51876,note_off,,,,,12,0,1,,,,0,54,64
51878,note_on,,,,,2,0,1,,,,0,42,61
51884,note_on,,,,,6,0,1,,,,0,46,79
51926,note_off,,,,,0,0,1,,,,0,42,64
51926,note_off,,,,,42,0,1,,,,0,46,64
51940,note_on,,,,,14,0,1,,,,0,53,75
51942,note_on,,,,,2,0,1,,,,0,65,71
51960,note_off,,,,,18,0,1,,,,0,65,64
51968,note_off,,,,,8,0,1,,,,0,53,64
52020,note_on,,,,,52,0,1,,,,0,65,82
52020,note_on,,,,,0,0,1,,,,0,53,83
52082,note_on,,,,,62,0,1,,,,0,43,69
52084,note_on,,,,,2,0,1,,,,0,46,69
52084,note_on,,,,,0,0,1,,,,0,40,59
52090,control_change,,,,,6,0,1,,64,0,0,,
52110,control_change,,,,,20,0,1,,64,127,0,,
52112,note_off,,,,,2,0,1,,,,0,46,64
52114,note_off,,,,,0,0,1,,,,0,43,64
52114,note_off,,,,,2,0,1,,,,0,40,64
52136,note_off,,,,,22,0,1,,,,0,65,64
52138,note_off,,,,,2,0,1,,,,0,53,64
52152,note_on,,,,,14,0,1,,,,0,43,77
52156,note_on,,,,,0,0,1,,,,0,40,73
52156,note_on,,,,,4,0,1,,,,0,46,82
52196,note_off,,,,,40,0,1,,,,0,46,64
52198,note_off,,,,,2,0,1,,,,0,43,64
52202,note_off,,,,,4,0,1,,,,0,40,64
52214,note_on,,,,,0,0,1,,,,0,52,77
52214,note_on,,,,,12,0,1,,,,0,64,79
52234,note_off,,,,,20,0,1,,,,0,64,64
52236,note_off,,,,,2,0,1,,,,0,52,64
52286,note_on,,,,,50,0,1,,,,0,64,84
52288,note_on,,,,,2,0,1,,,,0,52,79
52340,note_on,,,,,52,0,1,,,,0,46,81
52344,note_on,,,,,4,0,1,,,,0,43,70
52348,note_on,,,,,4,0,1,,,,0,40,69
52350,control_change,,,,,2,0,1,,64,0,0,,
52356,note_off,,,,,6,0,1,,,,0,64,64
52374,note_off,,,,,18,0,1,,,,0,43,64
52376,note_off,,,,,2,0,1,,,,0,46,64
52380,control_change,,,,,0,0,1,,64,127,0,,
52380,note_off,,,,,4,0,1,,,,0,52,64
52382,note_off,,,,,2,0,1,,,,0,40,64
52410,note_on,,,,,28,0,1,,,,0,46,80
52414,note_on,,,,,4,0,1,,,,0,40,66
52416,note_on,,,,,2,0,1,,,,0,43,70
52456,note_off,,,,,40,0,1,,,,0,46,64
52460,note_off,,,,,4,0,1,,,,0,43,64
52462,note_off,,,,,2,0,1,,,,0,40,64
52472,note_on,,,,,10,0,1,,,,0,63,76
52474,note_on,,,,,2,0,1,,,,0,51,76
52494,note_off,,,,,20,0,1,,,,0,63,64
52498,note_off,,,,,4,0,1,,,,0,51,64
52542,note_on,,,,,44,0,1,,,,0,63,85
52544,note_on,,,,,2,0,1,,,,0,51,83
52596,note_on,,,,,52,0,1,,,,0,39,76
52602,note_on,,,,,6,0,1,,,,0,46,78
52606,control_change,,,,,4,0,1,,64,0,0,,
52608,note_on,,,,,2,0,1,,,,0,43,65
52630,note_off,,,,,22,0,1,,,,0,46,64
52632,control_change,,,,,2,0,1,,64,127,0,,
52634,note_off,,,,,0,0,1,,,,0,63,64
52634,note_off,,,,,2,0,1,,,,0,43,64
52634,note_off,,,,,0,0,1,,,,0,39,64
52636,note_off,,,,,2,0,1,,,,0,51,64
52672,note_on,,,,,0,0,1,,,,0,39,74
52672,note_on,,,,,36,0,1,,,,0,43,71
52674,note_on,,,,,2,0,1,,,,0,46,81
52716,note_off,,,,,42,0,1,,,,0,46,64
52718,note_off,,,,,2,0,1,,,,0,39,64
52718,note_off,,,,,0,0,1,,,,0,43,64
52730,note_on,,,,,12,0,1,,,,0,52,82
52732,note_on,,,,,2,0,1,,,,0,64,84
52756,note_off,,,,,24,0,1,,,,0,52,64
52760,note_off,,,,,4,0,1,,,,0,64,64
52808,note_on,,,,,48,0,1,,,,0,52,89
52810,note_on,,,,,2,0,1,,,,0,64,92
52872,note_on,,,,,62,0,1,,,,0,40,76
52876,note_on,,,,,4,0,1,,,,0,46,81
52878,note_on,,,,,2,0,1,,,,0,43,69
52890,control_change,,,,,12,0,1,,64,0,0,,
52894,note_off,,,,,4,0,1,,,,0,52,64
52904,note_off,,,,,10,0,1,,,,0,40,64
52908,control_change,,,,,4,0,1,,64,127,0,,
52912,note_off,,,,,4,0,1,,,,0,43,64
52912,note_off,,,,,0,0,1,,,,0,46,64
52920,note_off,,,,,8,0,1,,,,0,64,64
52940,note_on,,,,,20,0,1,,,,0,46,83
52940,note_on,,,,,0,0,1,,,,0,43,72
52946,note_on,,,,,6,0,1,,,,0,40,74
52992,note_off,,,,,46,0,1,,,,0,40,64
52992,note_off,,,,,0,0,1,,,,0,43,64
52994,note_off,,,,,2,0,1,,,,0,46,64
53012,note_on,,,,,18,0,1,,,,0,53,85
53014,note_on,,,,,2,0,1,,,,0,65,83
53038,note_off,,,,,24,0,1,,,,0,53,64
53040,note_off,,,,,2,0,1,,,,0,65,64
53084,note_on,,,,,44,0,1,,,,0,53,93
53086,note_on,,,,,2,0,1,,,,0,65,88
53130,control_change,,,,,44,0,1,,64,0,0,,
53132,note_on,,,,,2,0,1,,,,0,46,89
53134,note_off,,,,,2,0,1,,,,0,53,64
53134,note_on,,,,,0,0,1,,,,0,41,82
53136,note_off,,,,,2,0,1,,,,0,65,64
53160,control_change,,,,,24,0,1,,64,127,0,,
53172,note_off,,,,,12,0,1,,,,0,46,64
53176,note_off,,,,,4,0,1,,,,0,41,64
53216,note_on,,,,,40,0,1,,,,0,46,93
53216,note_on,,,,,0,0,1,,,,0,41,85
53264,note_off,,,,,0,0,1,,,,0,46,64
53264,note_off,,,,,48,0,1,,,,0,41,64
53266,note_on,,,,,2,0,1,,,,0,54,78
53268,note_on,,,,,2,0,1,,,,0,66,81
53296,note_off,,,,,28,0,1,,,,0,66,64
53296,note_off,,,,,0,0,1,,,,0,54,64
53346,note_on,,,,,50,0,1,,,,0,66,89
53348,note_on,,,,,2,0,1,,,,0,54,89
53394,control_change,,,,,46,0,1,,64,0,0,,
53408,note_on,,,,,14,0,1,,,,0,42,83
53410,note_on,,,,,2,0,1,,,,0,46,94
53428,control_change,,,,,18,0,1,,64,127,0,,
53446,note_off,,,,,18,0,1,,,,0,66,64
53448,note_off,,,,,0,0,1,,,,0,54,64
53448,note_off,,,,,2,0,1,,,,0,46,64
53450,note_off,,,,,2,0,1,,,,0,42,64
53484,note_on,,,,,34,0,1,,,,0,42,72
53486,note_on,,,,,2,0,1,,,,0,46,91
53536,note_off,,,,,50,0,1,,,,0,42,64
53538,note_off,,,,,2,0,1,,,,0,46,64
53548,note_on,,,,,10,0,1,,,,0,55,85
53550,note_on,,,,,2,0,1,,,,0,67,82
53576,note_off,,,,,26,0,1,,,,0,55,64
53578,note_off,,,,,2,0,1,,,,0,67,64
53626,note_on,,,,,48,0,1,,,,0,55,95
53628,note_on,,,,,2,0,1,,,,0,67,88
53658,note_off,,,,,30,0,1,,,,0,55,64
53678,note_off,,,,,20,0,1,,,,0,67,64
53688,note_on,,,,,10,0,1,,,,0,46,80
53690,note_on,,,,,2,0,1,,,,0,43,81
53694,note_on,,,,,4,0,1,,,,0,52,80
53696,control_change,,,,,2,0,1,,64,0,0,,
53716,control_change,,,,,20,0,1,,64,127,0,,
53724,note_off,,,,,8,0,1,,,,0,52,64
53728,note_off,,,,,4,0,1,,,,0,43,64
53732,note_off,,,,,4,0,1,,,,0,46,64
53766,note_on,,,,,34,0,1,,,,0,46,88
53772,note_on,,,,,6,0,1,,,,0,52,85
53776,note_on,,,,,4,0,1,,,,0,43,87
53824,note_off,,,,,48,0,1,,,,0,52,64
53828,note_off,,,,,4,0,1,,,,0,43,64
53828,note_off,,,,,0,0,1,,,,0,46,64
53846,note_on,,,,,18,0,1,,,,0,68,89
53846,note_on,,,,,0,0,1,,,,0,56,96
53876,note_off,,,,,30,0,1,,,,0,56,64
53880,note_off,,,,,4,0,1,,,,0,68,64
53924,note_on,,,,,44,0,1,,,,0,68,90
53924,note_on,,,,,0,0,1,,,,0,56,100
53958,control_change,,,,,34,0,1,,64,0,0,,
53988,control_change,,,,,30,0,1,,64,127,0,,
53994,note_on,,,,,6,0,1,,,,0,47,80
53996,note_on,,,,,2,0,1,,,,0,52,79
53996,note_on,,,,,0,0,1,,,,0,44,70
54028,note_off,,,,,32,0,1,,,,0,52,64
54036,note_off,,,,,8,0,1,,,,0,47,64
54038,note_off,,,,,0,0,1,,,,0,56,64
54038,note_off,,,,,2,0,1,,,,0,44,64
54040,note_off,,,,,2,0,1,,,,0,68,64
54068,note_on,,,,,28,0,1,,,,0,44,86
54070,note_on,,,,,2,0,1,,,,0,47,86
54072,note_on,,,,,2,0,1,,,,0,52,84
54120,note_off,,,,,48,0,1,,,,0,47,64
54126,note_off,,,,,6,0,1,,,,0,44,64
54128,note_off,,,,,2,0,1,,,,0,52,64
54134,note_on,,,,,6,0,1,,,,0,69,88
54136,note_on,,,,,2,0,1,,,,0,57,87
54170,note_off,,,,,34,0,1,,,,0,57,64
54172,note_off,,,,,2,0,1,,,,0,69,64
54224,note_on,,,,,0,0,1,,,,0,57,100
54224,note_on,,,,,52,0,1,,,,0,69,97
54258,control_change,,,,,34,0,1,,64,0,0,,
54290,control_change,,,,,32,0,1,,64,127,0,,
54296,note_on,,,,,6,0,1,,,,0,45,86
54298,note_on,,,,,2,0,1,,,,0,55,79
54300,note_on,,,,,2,0,1,,,,0,52,82
54334,note_off,,,,,34,0,1,,,,0,45,64
54338,note_off,,,,,4,0,1,,,,0,55,64
54340,note_off,,,,,2,0,1,,,,0,57,64
54346,note_off,,,,,6,0,1,,,,0,52,64
54350,note_off,,,,,4,0,1,,,,0,69,64
54392,note_on,,,,,42,0,1,,,,0,55,83
54396,note_on,,,,,4,0,1,,,,0,46,97
54398,note_on,,,,,2,0,1,,,,0,52,96
54428,note_off,,,,,30,0,1,,,,0,55,64
54436,note_off,,,,,8,0,1,,,,0,52,64
54456,note_off,,,,,20,0,1,,,,0,46,64
54484,note_on,,,,,0,0,1,,,,0,58,96
54484,note_on,,,,,28,0,1,,,,0,70,96
54516,note_off,,,,,32,0,1,,,,0,58,64
54526,note_off,,,,,10,0,1,,,,0,70,64
54596,note_on,,,,,70,0,1,,,,0,25,94
54598,note_on,,,,,2,0,1,,,,0,37,93
54602,control_change,,,,,4,0,1,,64,0,0,,
54608,note_on,,,,,6,0,1,,,,0,70,110
54610,note_on,,,,,2,0,1,,,,0,58,114
54642,control_change,,,,,32,0,1,,64,127,0,,
54708,note_off,,,,,66,0,1,,,,0,37,64
54722,note_off,,,,,14,0,1,,,,0,25,64
54766,note_on,,,,,44,0,1,,,,0,52,84
54768,note_on,,,,,2,0,1,,,,0,55,72
54774,note_on,,,,,6,0,1,,,,0,46,85
54802,note_off,,,,,0,0,1,,,,0,52,64
54802,note_off,,,,,28,0,1,,,,0,55,64
54804,note_off,,,,,2,0,1,,,,0,46,64
54830,note_off,,,,,26,0,1,,,,0,70,64
54840,note_off,,,,,10,0,1,,,,0,58,64
54852,note_on,,,,,0,0,1,,,,0,46,95
54852,note_on,,,,,12,0,1,,,,0,52,79
54854,note_on,,,,,2,0,1,,,,0,55,81
54892,note_off,,,,,38,0,1,,,,0,55,64
54894,note_off,,,,,2,0,1,,,,0,46,64
54896,note_off,,,,,2,0,1,,,,0,52,64
54920,note_on,,,,,24,0,1,,,,0,57,95
54922,note_on,,,,,2,0,1,,,,0,69,89
54948,note_off,,,,,26,0,1,,,,0,57,64
54950,note_off,,,,,2,0,1,,,,0,69,64
55002,note_on,,,,,52,0,1,,,,0,69,94
55004,note_on,,,,,2,0,1,,,,0,57,96
55060,note_on,,,,,56,0,1,,,,0,45,88
55064,note_on,,,,,4,0,1,,,,0,55,77
55064,note_on,,,,,0,0,1,,,,0,52,79
55092,note_off,,,,,28,0,1,,,,0,55,64
55094,note_off,,,,,2,0,1,,,,0,45,64
55096,note_off,,,,,2,0,1,,,,0,52,64
55100,note_off,,,,,4,0,1,,,,0,57,64
55106,control_change,,,,,6,0,1,,64,0,0,,
55110,control_change,,,,,4,0,1,,64,127,0,,
55126,note_off,,,,,16,0,1,,,,0,69,64
55140,note_on,,,,,14,0,1,,,,0,45,99
55142,note_on,,,,,2,0,1,,,,0,55,90
55142,note_on,,,,,0,0,1,,,,0,52,92
55180,note_off,,,,,38,0,1,,,,0,45,64
55188,note_off,,,,,8,0,1,,,,0,52,64
55188,note_off,,,,,0,0,1,,,,0,55,64
55220,note_on,,,,,32,0,1,,,,0,82,94
55220,note_on,,,,,0,0,1,,,,0,70,93
55242,note_off,,,,,22,0,1,,,,0,70,64
55242,note_off,,,,,0,0,1,,,,0,82,64
55296,note_on,,,,,54,0,1,,,,0,82,107
55296,note_on,,,,,0,0,1,,,,0,70,110
55352,note_on,,,,,56,0,1,,,,0,64,81
55360,note_on,,,,,8,0,1,,,,0,58,64
55362,note_on,,,,,2,0,1,,,,0,67,74
55390,note_off,,,,,28,0,1,,,,0,67,64
55390,note_off,,,,,0,0,1,,,,0,58,64
55392,note_off,,,,,2,0,1,,,,0,64,64
55438,note_on,,,,,46,0,1,,,,0,67,90
55440,note_off,,,,,2,0,1,,,,0,82,64
55444,note_on,,,,,0,0,1,,,,0,64,88
55444,note_off,,,,,4,0,1,,,,0,70,64
55450,note_on,,,,,6,0,1,,,,0,57,85
55470,control_change,,,,,20,0,1,,64,0,0,,
55504,note_on,,,,,34,0,1,,,,0,69,92
55506,note_on,,,,,2,0,1,,,,0,81,89
55514,control_change,,,,,8,0,1,,64,127,0,,
55528,note_off,,,,,14,0,1,,,,0,69,64
55532,note_off,,,,,4,0,1,,,,0,81,64
55578,note_on,,,,,46,0,1,,,,0,81,94
55580,note_on,,,,,0,0,1,,,,0,69,99
55580,note_off,,,,,2,0,1,,,,0,67,64
55598,note_off,,,,,18,0,1,,,,0,64,64
55616,note_off,,,,,18,0,1,,,,0,57,64
55664,note_off,,,,,48,0,1,,,,0,81,64
55680,set_tempo,,,,,12684,1,0,425532,,,,,
55684,set_tempo,,,,,4,1,0,495868,,,,,
55684,note_off,,,,,20,0,1,,,,0,69,64
55688,set_tempo,,,,,4,1,0,594059,,,,,
55740,set_tempo,,,,,52,1,0,600000,,,,,
55744,set_tempo,,,,,4,1,0,588235,,,,,
55748,set_tempo,,,,,4,1,0,571429,,,,,
55752,set_tempo,,,,,4,1,0,555556,,,,,
55756,set_tempo,,,,,4,1,0,540541,,,,,
55760,set_tempo,,,,,4,1,0,526316,,,,,
55764,set_tempo,,,,,4,1,0,512821,,,,,
55768,set_tempo,,,,,4,1,0,500000,,,,,
55772,set_tempo,,,,,4,1,0,491803,,,,,
55776,set_tempo,,,,,4,1,0,480000,,,,,
55780,set_tempo,,,,,4,1,0,468750,,,,,
55784,set_tempo,,,,,4,1,0,458015,,,,,
55786,note_on,,,,,102,0,1,,,,0,76,85
55786,note_on,,,,,0,0,1,,,,0,64,88
55788,set_tempo,,,,,4,1,0,447761,,,,,
55792,set_tempo,,,,,4,1,0,437956,,,,,
55796,set_tempo,,,,,4,1,0,428571,,,,,
55814,note_off,,,,,28,0,1,,,,0,64,64
55814,note_off,,,,,0,0,1,,,,0,76,64
55862,note_on,,,,,48,0,1,,,,0,26,90
55864,note_on,,,,,2,0,1,,,,0,38,83
55878,control_change,,,,,14,0,1,,64,0,0,,
55882,note_on,,,,,4,0,1,,,,0,64,97
55884,note_on,,,,,2,0,1,,,,0,76,92
55912,control_change,,,,,28,0,1,,64,127,0,,
55958,note_off,,,,,46,0,1,,,,0,38,64
55988,note_off,,,,,30,0,1,,,,0,26,64
55990,note_on,,,,,2,0,1,,,,0,52,84
55998,note_on,,,,,0,0,1,,,,0,44,62
55998,note_on,,,,,8,0,1,,,,0,47,71
56012,note_off,,,,,0,0,1,,,,0,47,64
56012,note_off,,,,,14,0,1,,,,0,44,64
56020,note_off,,,,,8,0,1,,,,0,52,64
56042,note_off,,,,,22,0,1,,,,0,64,64
56046,note_off,,,,,4,0,1,,,,0,76,64
56064,note_on,,,,,0,0,1,,,,0,44,88
56064,note_on,,,,,18,0,1,,,,0,47,85
56066,note_on,,,,,2,0,1,,,,0,52,83
56096,note_off,,,,,30,0,1,,,,0,47,64
56100,note_off,,,,,4,0,1,,,,0,52,64
56100,note_off,,,,,0,0,1,,,,0,44,64
56116,note_on,,,,,16,0,1,,,,0,65,86
56118,note_on,,,,,2,0,1,,,,0,77,82
56142,note_off,,,,,24,0,1,,,,0,77,64
56142,note_off,,,,,0,0,1,,,,0,65,64
56196,note_on,,,,,0,0,1,,,,0,65,97
56196,note_on,,,,,54,0,1,,,,0,77,89
56248,note_on,,,,,0,0,1,,,,0,53,79
56248,note_off,,,,,52,0,1,,,,0,77,64
56250,note_on,,,,,0,0,1,,,,0,44,79
56250,note_on,,,,,2,0,1,,,,0,47,75
56264,note_off,,,,,14,0,1,,,,0,65,64
56282,note_off,,,,,18,0,1,,,,0,47,64
56284,note_off,,,,,2,0,1,,,,0,53,64
56286,note_off,,,,,2,0,1,,,,0,44,64
56324,note_on,,,,,38,0,1,,,,0,53,79
56326,note_on,,,,,0,0,1,,,,0,44,87
56326,note_on,,,,,2,0,1,,,,0,47,80
56358,note_off,,,,,32,0,1,,,,0,47,64
56362,note_off,,,,,4,0,1,,,,0,44,64
56364,note_off,,,,,2,0,1,,,,0,53,64
56382,note_on,,,,,18,0,1,,,,0,73,87
56382,note_on,,,,,0,0,1,,,,0,61,90
56406,note_off,,,,,24,0,1,,,,0,61,64
56408,note_off,,,,,2,0,1,,,,0,73,64
56454,note_on,,,,,46,0,1,,,,0,73,95
56456,note_on,,,,,2,0,1,,,,0,61,97
56516,note_on,,,,,60,0,1,,,,0,59,77
56518,note_on,,,,,2,0,1,,,,0,56,80
56520,note_on,,,,,2,0,1,,,,0,65,76
56548,note_off,,,,,28,0,1,,,,0,65,64
56552,note_off,,,,,0,0,1,,,,0,59,64
56552,note_off,,,,,4,0,1,,,,0,56,64
56576,note_off,,,,,24,0,1,,,,0,73,64
56592,note_off,,,,,16,0,1,,,,0,61,64
56596,note_on,,,,,4,0,1,,,,0,65,85
56598,note_on,,,,,2,0,1,,,,0,59,80
56604,note_on,,,,,6,0,1,,,,0,56,93
56634,note_off,,,,,30,0,1,,,,0,65,64
56642,note_off,,,,,8,0,1,,,,0,59,64
56658,note_on,,,,,16,0,1,,,,0,74,84
56660,note_on,,,,,2,0,1,,,,0,62,80
56662,note_off,,,,,2,0,1,,,,0,56,64
56688,note_off,,,,,26,0,1,,,,0,62,64
56688,note_off,,,,,0,0,1,,,,0,74,64
56738,note_on,,,,,50,0,1,,,,0,62,94
56740,note_on,,,,,2,0,1,,,,0,74,94
56784,note_off,,,,,44,0,1,,,,0,74,64
56792,note_off,,,,,8,0,1,,,,0,62,64
56836,set_tempo,,,,,1040,1,0,461538,,,,,
56840,set_tempo,,,,,4,1,0,500000,,,,,
56844,set_tempo,,,,,4,1,0,545455,,,,,
56848,set_tempo,,,,,4,1,0,606061,,,,,
56948,set_tempo,,,,,100,1,0,535714,,,,,
56952,set_tempo,,,,,4,1,0,476190,,,,,
56956,set_tempo,,,,,4,1,0,428571,,,,,
56968,note_on,,,,,176,0,1,,,,0,68,89
56976,note_on,,,,,8,0,1,,,,0,56,86
57002,note_off,,,,,26,0,1,,,,0,68,64
57004,note_off,,,,,2,0,1,,,,0,56,64
57024,control_change,,,,,20,0,1,,64,0,0,,
57028,control_change,,,,,4,0,1,,64,127,0,,
57030,note_on,,,,,2,0,1,,,,0,25,89
57032,note_on,,,,,2,0,1,,,,0,37,86
57068,note_on,,,,,0,0,1,,,,0,56,99
57068,note_on,,,,,36,0,1,,,,0,68,94
57168,note_on,,,,,0,0,1,,,,0,44,82
57168,note_on,,,,,100,0,1,,,,0,52,79
57196,note_off,,,,,0,0,1,,,,0,52,64
57196,note_off,,,,,28,0,1,,,,0,44,64
57222,note_off,,,,,26,0,1,,,,0,56,64
57224,note_off,,,,,2,0,1,,,,0,68,64
57244,note_on,,,,,20,0,1,,,,0,44,97
57248,note_on,,,,,4,0,1,,,,0,52,83
57280,note_off,,,,,32,0,1,,,,0,44,64
57284,note_off,,,,,4,0,1,,,,0,52,64
57298,note_on,,,,,14,0,1,,,,0,69,92
57298,note_on,,,,,0,0,1,,,,0,57,93
57328,note_off,,,,,30,0,1,,,,0,57,64
57332,note_off,,,,,4,0,1,,,,0,69,64
57374,note_on,,,,,42,0,1,,,,0,57,96
57376,note_on,,,,,2,0,1,,,,0,69,96
57400,note_off,,,,,24,0,1,,,,0,57,64
57422,note_off,,,,,22,0,1,,,,0,69,64
57436,note_on,,,,,14,0,1,,,,0,45,88
57440,note_on,,,,,4,0,1,,,,0,52,87
57446,control_change,,,,,6,0,1,,64,0,0,,
57472,control_change,,,,,0,0,1,,64,127,0,,
57472,note_off,,,,,26,0,1,,,,0,52,64
57476,note_off,,,,,4,0,1,,,,0,45,64
57504,note_on,,,,,28,0,1,,,,0,45,90
57506,note_on,,,,,2,0,1,,,,0,52,84
57544,note_off,,,,,0,0,1,,,,0,45,64
57544,note_off,,,,,38,0,1,,,,0,52,64
57570,note_on,,,,,26,0,1,,,,0,82,87
57572,note_on,,,,,2,0,1,,,,0,70,91
57594,note_off,,,,,22,0,1,,,,0,70,64
57596,note_off,,,,,2,0,1,,,,0,82,64
57646,note_on,,,,,50,0,1,,,,0,82,97
57646,note_on,,,,,0,0,1,,,,0,70,99
57702,note_on,,,,,56,0,1,,,,0,67,82
57702,note_on,,,,,0,0,1,,,,0,64,86
57704,note_on,,,,,2,0,1,,,,0,58,89
57732,note_off,,,,,0,0,1,,,,0,82,64
57732,note_off,,,,,28,0,1,,,,0,58,64
57736,note_off,,,,,4,0,1,,,,0,67,64
57740,note_off,,,,,4,0,1,,,,0,64,64
57746,note_off,,,,,6,0,1,,,,0,70,64
57772,note_on,,,,,0,0,1,,,,0,64,83
57772,note_on,,,,,26,0,1,,,,0,67,84
57788,note_on,,,,,0,0,1,,,,0,57,77
57788,note_off,,,,,16,0,1,,,,0,25,64
57814,note_off,,,,,26,0,1,,,,0,37,64
57828,control_change,,,,,14,0,1,,64,0,0,,
57836,note_on,,,,,8,0,1,,,,0,81,90
57836,note_on,,,,,0,0,1,,,,0,69,95
57856,control_change,,,,,20,0,1,,64,127,0,,
57866,note_off,,,,,10,0,1,,,,0,69,64
57872,note_off,,,,,6,0,1,,,,0,81,64
57896,control_change,,,,,24,0,1,,64,0,0,,
57912,control_change,,,,,16,0,1,,64,127,0,,
57918,note_on,,,,,6,0,1,,,,0,69,100
57920,note_on,,,,,2,0,1,,,,0,81,95
57944,note_off,,,,,24,0,1,,,,0,67,64
57958,note_off,,,,,14,0,1,,,,0,64,64
57980,note_off,,,,,22,0,1,,,,0,57,64
58012,note_off,,,,,32,0,1,,,,0,81,64
58032,note_off,,,,,20,0,1,,,,0,69,64
58160,note_on,,,,,0,0,1,,,,0,64,93
58160,note_on,,,,,128,0,1,,,,0,76,84
58182,note_off,,,,,22,0,1,,,,0,64,64
58184,note_off,,,,,2,0,1,,,,0,76,64
58204,control_change,,,,,20,0,1,,64,0,0,,
58212,control_change,,,,,8,0,1,,64,127,0,,
58214,note_on,,,,,2,0,1,,,,0,38,75
58216,note_on,,,,,2,0,1,,,,0,26,87
58238,note_on,,,,,22,0,1,,,,0,76,88
58240,note_on,,,,,2,0,1,,,,0,64,89
58244,note_off,,,,,4,0,1,,,,0,26,64
58252,note_off,,,,,8,0,1,,,,0,38,64
58344,note_on,,,,,92,0,1,,,,0,52,73
58344,note_on,,,,,0,0,1,,,,0,47,73
58350,note_on,,,,,6,0,1,,,,0,44,55
58362,note_off,,,,,12,0,1,,,,0,44,64
58364,note_off,,,,,2,0,1,,,,0,52,64
58366,note_off,,,,,2,0,1,,,,0,47,64
58374,note_off,,,,,8,0,1,,,,0,64,64
58384,note_off,,,,,10,0,1,,,,0,76,64
58410,note_on,,,,,26,0,1,,,,0,47,75
58412,note_on,,,,,2,0,1,,,,0,52,76
58412,note_on,,,,,0,0,1,,,,0,44,85
58446,note_off,,,,,34,0,1,,,,0,52,64
58448,note_off,,,,,2,0,1,,,,0,47,64
58450,note_off,,,,,2,0,1,,,,0,44,64
58468,note_on,,,,,18,0,1,,,,0,65,86
58472,note_on,,,,,4,0,1,,,,0,77,82
58492,note_off,,,,,20,0,1,,,,0,65,64
58496,note_off,,,,,4,0,1,,,,0,77,64
58544,note_on,,,,,48,0,1,,,,0,65,95
58546,note_on,,,,,2,0,1,,,,0,77,88
58596,note_off,,,,,50,0,1,,,,0,77,64
58600,note_on,,,,,4,0,1,,,,0,53,74
58602,note_on,,,,,2,0,1,,,,0,44,70
58608,note_on,,,,,6,0,1,,,,0,47,58
58610,note_off,,,,,2,0,1,,,,0,65,64
58626,note_off,,,,,16,0,1,,,,0,47,64
58632,note_off,,,,,6,0,1,,,,0,44,64
58632,note_off,,,,,0,0,1,,,,0,53,64
58650,control_change,,,,,18,0,1,,64,0,0,,
58656,control_change,,,,,6,0,1,,64,127,0,,
58672,note_on,,,,,16,0,1,,,,0,53,68
58674,note_on,,,,,2,0,1,,,,0,44,78
58678,note_on,,,,,4,0,1,,,,0,47,79
58708,note_off,,,,,30,0,1,,,,0,47,64
58708,note_off,,,,,0,0,1,,,,0,44,64
58714,note_off,,,,,6,0,1,,,,0,53,64
58734,note_on,,,,,20,0,1,,,,0,61,78
58736,note_on,,,,,2,0,1,,,,0,73,77
58750,note_off,,,,,14,0,1,,,,0,73,64
58760,note_off,,,,,10,0,1,,,,0,61,64
58808,note_on,,,,,48,0,1,,,,0,73,86
58810,note_on,,,,,2,0,1,,,,0,61,86
58874,note_on,,,,,64,0,1,,,,0,56,81
58876,note_on,,,,,2,0,1,,,,0,59,71
58878,note_on,,,,,2,0,1,,,,0,65,69
58902,note_off,,,,,24,0,1,,,,0,59,64
58902,note_off,,,,,0,0,1,,,,0,56,64
58904,note_off,,,,,2,0,1,,,,0,65,64
58930,note_off,,,,,26,0,1,,,,0,73,64
58936,note_off,,,,,6,0,1,,,,0,61,64
58954,note_on,,,,,18,0,1,,,,0,65,74
58958,note_on,,,,,4,0,1,,,,0,59,65
58958,note_on,,,,,0,0,1,,,,0,56,79
58978,control_change,,,,,20,0,1,,64,0,0,,
59004,control_change,,,,,26,0,1,,64,127,0,,
59012,note_on,,,,,8,0,1,,,,0,74,72
59014,note_off,,,,,2,0,1,,,,0,65,64
59014,note_on,,,,,0,0,1,,,,0,62,65
59028,note_off,,,,,14,0,1,,,,0,59,64
59040,note_off,,,,,12,0,1,,,,0,62,64
59044,note_off,,,,,4,0,1,,,,0,74,64
59064,note_off,,,,,20,0,1,,,,0,56,64
59092,note_on,,,,,28,0,1,,,,0,74,79
59092,note_on,,,,,0,0,1,,,,0,62,84
59168,note_off,,,,,76,0,1,,,,0,74,64
59184,note_off,,,,,16,0,1,,,,0,62,64
59340,note_on,,,,,156,0,1,,,,0,68,77
59344,note_on,,,,,4,0,1,,,,0,56,63
59356,note_off,,,,,12,0,1,,,,0,68,64
59360,note_off,,,,,4,0,1,,,,0,56,64
59412,control_change,,,,,52,0,1,,64,0,0,,
59424,note_on,,,,,12,0,1,,,,0,68,78
59424,note_on,,,,,0,0,1,,,,0,56,73
59504,note_on,,,,,80,0,1,,,,0,49,63
59506,note_on,,,,,2,0,1,,,,0,52,59
59522,note_off,,,,,16,0,1,,,,0,52,64
59524,note_off,,,,,2,0,1,,,,0,49,64
59546,control_change,,,,,22,0,1,,64,127,0,,
59580,note_on,,,,,34,0,1,,,,0,49,70
59586,note_on,,,,,6,0,1,,,,0,52,55
59592,note_off,,,,,6,0,1,,,,0,68,64
59596,note_off,,,,,4,0,1,,,,0,56,64
59606,note_off,,,,,10,0,1,,,,0,52,64
59612,note_off,,,,,6,0,1,,,,0,49,64
59650,note_on,,,,,38,0,1,,,,0,69,65
59658,note_on,,,,,8,0,1,,,,0,57,47
59680,note_off,,,,,22,0,1,,,,0,57,64
59686,note_off,,,,,6,0,1,,,,0,69,64
59732,note_on,,,,,0,0,1,,,,0,57,77
59732,note_on,,,,,46,0,1,,,,0,69,79
59792,control_change,,,,,60,0,1,,64,0,0,,
59806,note_on,,,,,14,0,1,,,,0,49,76
59812,note_on,,,,,6,0,1,,,,0,52,65
59826,note_off,,,,,14,0,1,,,,0,52,64
59826,control_change,,,,,0,0,1,,64,127,0,,
59834,note_off,,,,,8,0,1,,,,0,49,64
59856,note_off,,,,,22,0,1,,,,0,69,64
59866,note_off,,,,,10,0,1,,,,0,57,64
59880,note_on,,,,,14,0,1,,,,0,49,76
59884,note_on,,,,,4,0,1,,,,0,52,64
59912,note_off,,,,,28,0,1,,,,0,49,64
59918,note_off,,,,,6,0,1,,,,0,52,64
59942,note_on,,,,,24,0,1,,,,0,70,78
59942,note_on,,,,,0,0,1,,,,0,58,68
59964,note_off,,,,,22,0,1,,,,0,58,64
59964,note_off,,,,,0,0,1,,,,0,70,64
60016,note_on,,,,,52,0,1,,,,0,70,86
60018,note_on,,,,,2,0,1,,,,0,58,86
60054,control_change,,,,,36,0,1,,64,0,0,,
60072,note_on,,,,,18,0,1,,,,0,54,73
60076,note_on,,,,,0,0,1,,,,0,48,76
60076,note_on,,,,,4,0,1,,,,0,51,77
60094,note_off,,,,,0,0,1,,,,0,51,64
60094,note_off,,,,,18,0,1,,,,0,48,64
60102,note_off,,,,,8,0,1,,,,0,54,64
60102,control_change,,,,,0,0,1,,64,127,0,,
60140,note_off,,,,,38,0,1,,,,0,70,64
60144,note_on,,,,,4,0,1,,,,0,54,59
60146,note_off,,,,,2,0,1,,,,0,58,64
60146,note_on,,,,,0,0,1,,,,0,48,71
60148,note_on,,,,,2,0,1,,,,0,51,65
60174,note_off,,,,,26,0,1,,,,0,51,64
60180,note_off,,,,,6,0,1,,,,0,48,64
60182,note_off,,,,,2,0,1,,,,0,54,64
60204,note_on,,,,,22,0,1,,,,0,69,79
60204,note_on,,,,,0,0,1,,,,0,57,80
60232,note_off,,,,,28,0,1,,,,0,57,64
60234,note_off,,,,,2,0,1,,,,0,69,64
60282,note_on,,,,,48,0,1,,,,0,57,85
60284,note_on,,,,,2,0,1,,,,0,69,90
60334,control_change,,,,,50,0,1,,64,0,0,,
60340,note_on,,,,,6,0,1,,,,0,54,76
60342,note_on,,,,,2,0,1,,,,0,51,76
60344,note_on,,,,,2,0,1,,,,0,48,79
60356,note_off,,,,,12,0,1,,,,0,57,64
60364,note_off,,,,,8,0,1,,,,0,69,64
60370,note_off,,,,,6,0,1,,,,0,51,64
60372,note_off,,,,,2,0,1,,,,0,54,64
60372,control_change,,,,,0,0,1,,64,127,0,,
60376,note_off,,,,,4,0,1,,,,0,48,64
60416,note_on,,,,,0,0,1,,,,0,48,71
60416,note_on,,,,,40,0,1,,,,0,51,72
60418,note_on,,,,,2,0,1,,,,0,54,70
60456,note_off,,,,,38,0,1,,,,0,51,64
60466,note_off,,,,,10,0,1,,,,0,48,64
60472,note_off,,,,,6,0,1,,,,0,54,64
60480,note_on,,,,,8,0,1,,,,0,73,84
60480,note_on,,,,,0,0,1,,,,0,61,86
60506,note_off,,,,,26,0,1,,,,0,61,64
60508,note_off,,,,,2,0,1,,,,0,73,64
60552,note_on,,,,,44,0,1,,,,0,73,89
60554,note_on,,,,,2,0,1,,,,0,61,92
60598,control_change,,,,,44,0,1,,64,0,0,,
60606,control_change,,,,,8,0,1,,64,127,0,,
60612,note_on,,,,,6,0,1,,,,0,57,84
60614,note_on,,,,,2,0,1,,,,0,47,80
60618,note_on,,,,,4,0,1,,,,0,54,73
60618,note_on,,,,,0,0,1,,,,0,50,68
60634,note_off,,,,,16,0,1,,,,0,50,64
60638,note_off,,,,,4,0,1,,,,0,57,64
60640,note_off,,,,,2,0,1,,,,0,54,64
60644,note_off,,,,,4,0,1,,,,0,47,64
60684,note_on,,,,,0,0,1,,,,0,54,67
60684,note_off,,,,,40,0,1,,,,0,61,64
60686,note_off,,,,,2,0,1,,,,0,73,64
60688,note_on,,,,,2,0,1,,,,0,50,65
60690,note_on,,,,,0,0,1,,,,0,47,72
60690,note_on,,,,,2,0,1,,,,0,57,73
60726,note_off,,,,,36,0,1,,,,0,57,64
60732,note_off,,,,,6,0,1,,,,0,54,64
60736,note_off,,,,,4,0,1,,,,0,47,64
60740,note_off,,,,,4,0,1,,,,0,50,64
60748,note_on,,,,,0,0,1,,,,0,62,78
60748,note_on,,,,,8,0,1,,,,0,74,81
60776,note_off,,,,,0,0,1,,,,0,74,64
60776,note_off,,,,,28,0,1,,,,0,62,64
60822,note_on,,,,,0,0,1,,,,0,62,87
60822,note_on,,,,,46,0,1,,,,0,74,84
60876,note_on,,,,,54,0,1,,,,0,57,86
60880,note_on,,,,,0,0,1,,,,0,50,74
60880,note_on,,,,,4,0,1,,,,0,54,76
60884,note_on,,,,,4,0,1,,,,0,47,74
60890,control_change,,,,,6,0,1,,64,0,0,,
60902,note_off,,,,,12,0,1,,,,0,57,64
60908,note_off,,,,,6,0,1,,,,0,54,64
60910,control_change,,,,,2,0,1,,64,127,0,,
60912,note_off,,,,,0,0,1,,,,0,50,64
60912,note_off,,,,,2,0,1,,,,0,47,64
60950,note_on,,,,,38,0,1,,,,0,54,72
60950,note_on,,,,,0,0,1,,,,0,50,71
60952,note_on,,,,,2,0,1,,,,0,47,66
60956,note_on,,,,,0,0,1,,,,0,57,79
60956,note_off,,,,,4,0,1,,,,0,62,64
60958,note_off,,,,,2,0,1,,,,0,74,64
60986,note_off,,,,,28,0,1,,,,0,57,64
60998,note_off,,,,,12,0,1,,,,0,47,64
60998,note_off,,,,,0,0,1,,,,0,54,64
61004,note_off,,,,,6,0,1,,,,0,50,64
61022,note_on,,,,,18,0,1,,,,0,63,89
61024,note_on,,,,,2,0,1,,,,0,75,86
61044,note_off,,,,,0,0,1,,,,0,63,64
61044,note_off,,,,,20,0,1,,,,0,75,64
61094,note_on,,,,,50,0,1,,,,0,75,92
61096,note_on,,,,,2,0,1,,,,0,63,94
61158,control_change,,,,,62,0,1,,64,0,0,,
61160,note_on,,,,,2,0,1,,,,0,46,79
61162,note_on,,,,,0,0,1,,,,0,50,69
61162,note_on,,,,,2,0,1,,,,0,57,82
61190,control_change,,,,,28,0,1,,64,127,0,,
61194,note_off,,,,,4,0,1,,,,0,57,64
61196,note_off,,,,,2,0,1,,,,0,50,64
61198,note_off,,,,,2,0,1,,,,0,46,64
61214,note_off,,,,,16,0,1,,,,0,75,64
61228,note_off,,,,,14,0,1,,,,0,63,64
61232,note_on,,,,,4,0,1,,,,0,50,79
61236,note_on,,,,,4,0,1,,,,0,57,85
61236,note_on,,,,,0,0,1,,,,0,46,89
61278,note_off,,,,,42,0,1,,,,0,57,64
61284,note_off,,,,,6,0,1,,,,0,50,64
61286,note_off,,,,,2,0,1,,,,0,46,64
61300,note_on,,,,,14,0,1,,,,0,62,87
61304,note_on,,,,,4,0,1,,,,0,74,84
61326,note_off,,,,,22,0,1,,,,0,62,64
61332,note_off,,,,,6,0,1,,,,0,74,64
61378,note_on,,,,,46,0,1,,,,0,62,96
61380,note_on,,,,,2,0,1,,,,0,74,86
61430,note_on,,,,,50,0,1,,,,0,46,88
61434,note_on,,,,,0,0,1,,,,0,50,79
61434,note_on,,,,,4,0,1,,,,0,55,84
61440,control_change,,,,,6,0,1,,64,0,0,,
61460,control_change,,,,,0,0,1,,64,127,0,,
61460,note_off,,,,,20,0,1,,,,0,55,64
61468,note_off,,,,,0,0,1,,,,0,50,64
61468,note_off,,,,,8,0,1,,,,0,46,64
61476,note_off,,,,,8,0,1,,,,0,62,64
61498,note_off,,,,,22,0,1,,,,0,74,64
61514,note_on,,,,,16,0,1,,,,0,55,83
61514,note_on,,,,,0,0,1,,,,0,50,84
61516,note_on,,,,,2,0,1,,,,0,46,94
61558,note_off,,,,,42,0,1,,,,0,55,64
61570,note_off,,,,,12,0,1,,,,0,50,64
61572,note_off,,,,,2,0,1,,,,0,46,64
61590,note_on,,,,,18,0,1,,,,0,79,88
61592,note_on,,,,,2,0,1,,,,0,67,84
61616,note_off,,,,,0,0,1,,,,0,79,64
61616,note_off,,,,,24,0,1,,,,0,67,64
61678,note_on,,,,,62,0,1,,,,0,67,89
61680,note_on,,,,,2,0,1,,,,0,79,96
61750,control_change,,,,,70,0,1,,64,0,0,,
61752,note_on,,,,,0,0,1,,,,0,45,84
61752,note_on,,,,,2,0,1,,,,0,50,79
61754,note_on,,,,,2,0,1,,,,0,55,79
61776,control_change,,,,,22,0,1,,64,127,0,,
61784,note_off,,,,,8,0,1,,,,0,55,64
61786,note_off,,,,,2,0,1,,,,0,45,64
61794,note_off,,,,,8,0,1,,,,0,50,64
61812,note_off,,,,,18,0,1,,,,0,79,64
61824,note_off,,,,,12,0,1,,,,0,67,64
61828,note_on,,,,,4,0,1,,,,0,50,82
61830,note_on,,,,,2,0,1,,,,0,55,82
61832,note_on,,,,,2,0,1,,,,0,45,90
61876,note_off,,,,,44,0,1,,,,0,55,64
61880,note_off,,,,,4,0,1,,,,0,50,64
61888,note_on,,,,,0,0,1,,,,0,65,90
61888,note_off,,,,,8,0,1,,,,0,45,64
61892,note_on,,,,,4,0,1,,,,0,77,83
61912,note_off,,,,,20,0,1,,,,0,65,64
61918,note_off,,,,,6,0,1,,,,0,77,64
61962,note_on,,,,,44,0,1,,,,0,65,95
61964,note_on,,,,,2,0,1,,,,0,77,89
62008,control_change,,,,,44,0,1,,64,0,0,,
62018,note_on,,,,,10,0,1,,,,0,45,84
62020,note_off,,,,,2,0,1,,,,0,65,64
62020,note_on,,,,,0,0,1,,,,0,53,80
62020,note_on,,,,,0,0,1,,,,0,50,79
62034,control_change,,,,,14,0,1,,64,127,0,,
62054,note_off,,,,,20,0,1,,,,0,53,64
62056,note_off,,,,,2,0,1,,,,0,50,64
62056,note_off,,,,,0,0,1,,,,0,77,64
62058,note_off,,,,,2,0,1,,,,0,45,64
62100,note_on,,,,,42,0,1,,,,0,50,97
62100,note_on,,,,,0,0,1,,,,0,45,94
62104,note_on,,,,,4,0,1,,,,0,53,94
62152,note_off,,,,,48,0,1,,,,0,53,64
62154,note_off,,,,,2,0,1,,,,0,50,64
62158,note_off,,,,,4,0,1,,,,0,45,64
62176,note_on,,,,,18,0,1,,,,0,86,95
62176,note_on,,,,,0,0,1,,,,0,74,90
62206,note_off,,,,,30,0,1,,,,0,74,64
62208,note_off,,,,,2,0,1,,,,0,86,64
62264,note_on,,,,,0,0,1,,,,0,74,100
62264,note_on,,,,,56,0,1,,,,0,86,97
62308,control_change,,,,,44,0,1,,64,0,0,,
62322,note_off,,,,,14,0,1,,,,0,86,64
62332,control_change,,,,,10,0,1,,64,127,0,,
62340,note_on,,,,,8,0,1,,,,0,53,86
62340,note_on,,,,,0,0,1,,,,0,44,80
62344,note_on,,,,,0,0,1,,,,0,47,82
62344,note_on,,,,,4,0,1,,,,0,50,77
62348,note_off,,,,,4,0,1,,,,0,74,64
62376,note_off,,,,,28,0,1,,,,0,53,64
62378,note_off,,,,,2,0,1,,,,0,44,64
62380,note_off,,,,,2,0,1,,,,0,50,64
62386,note_off,,,,,6,0,1,,,,0,47,64
62420,note_on,,,,,0,0,1,,,,0,47,76
62420,note_on,,,,,34,0,1,,,,0,53,82
62422,note_on,,,,,2,0,1,,,,0,50,75
62422,note_on,,,,,0,0,1,,,,0,44,82
62478,note_on,,,,,56,0,1,,,,0,62,94
62480,note_off,,,,,2,0,1,,,,0,44,64
62482,note_on,,,,,2,0,1,,,,0,74,85
62484,note_off,,,,,0,0,1,,,,0,47,64
62484,note_off,,,,,2,0,1,,,,0,50,64
62486,note_off,,,,,2,0,1,,,,0,53,64
62502,note_off,,,,,16,0,1,,,,0,62,64
62508,note_off,,,,,6,0,1,,,,0,74,64
62554,note_on,,,,,46,0,1,,,,0,62,99
62556,note_on,,,,,2,0,1,,,,0,74,88
62586,note_off,,,,,30,0,1,,,,0,62,64
62608,note_off,,,,,22,0,1,,,,0,74,64
62616,note_on,,,,,8,0,1,,,,0,53,86
62616,note_on,,,,,0,0,1,,,,0,44,82
62618,note_on,,,,,2,0,1,,,,0,50,77
62618,note_on,,,,,0,0,1,,,,0,47,79
62624,control_change,,,,,6,0,1,,64,0,0,,
62632,control_change,,,,,8,0,1,,64,127,0,,
62650,note_off,,,,,18,0,1,,,,0,44,64
62652,note_off,,,,,2,0,1,,,,0,53,64
62658,note_off,,,,,6,0,1,,,,0,50,64
62660,note_off,,,,,2,0,1,,,,0,47,64
62694,note_on,,,,,0,0,1,,,,0,47,83
62694,note_on,,,,,34,0,1,,,,0,50,80
62696,note_on,,,,,2,0,1,,,,0,53,88
62696,note_on,,,,,0,0,1,,,,0,44,88
62758,note_off,,,,,62,0,1,,,,0,47,64
62762,note_off,,,,,4,0,1,,,,0,44,64
62764,note_off,,,,,2,0,1,,,,0,53,64
62766,note_off,,,,,2,0,1,,,,0,50,64
62766,note_on,,,,,0,0,1,,,,0,74,86
62768,note_on,,,,,2,0,1,,,,0,86,71
62790,note_off,,,,,22,0,1,,,,0,74,64
62792,note_off,,,,,2,0,1,,,,0,86,64
62846,note_on,,,,,54,0,1,,,,0,86,94
62846,note_on,,,,,0,0,1,,,,0,74,102
62916,note_on,,,,,70,0,1,,,,0,53,89
62918,note_on,,,,,2,0,1,,,,0,46,84
62920,note_on,,,,,0,0,1,,,,0,43,78
62920,note_on,,,,,2,0,1,,,,0,50,76
62926,control_change,,,,,6,0,1,,64,0,0,,
62940,control_change,,,,,14,0,1,,64,127,0,,
62948,note_off,,,,,8,0,1,,,,0,43,64
62950,note_off,,,,,2,0,1,,,,0,53,64
62950,note_off,,,,,0,0,1,,,,0,86,64
62956,note_off,,,,,6,0,1,,,,0,50,64
62960,note_off,,,,,4,0,1,,,,0,46,64
62968,note_off,,,,,8,0,1,,,,0,74,64
63000,note_on,,,,,32,0,1,,,,0,53,95
63002,note_on,,,,,2,0,1,,,,0,46,86
63004,note_on,,,,,2,0,1,,,,0,50,79
63006,note_on,,,,,2,0,1,,,,0,43,81
63080,note_on,,,,,74,0,1,,,,0,74,79
63084,note_on,,,,,4,0,1,,,,0,62,79
63094,note_off,,,,,10,0,1,,,,0,74,64
63098,note_off,,,,,4,0,1,,,,0,62,64
63168,note_on,,,,,70,0,1,,,,0,74,74
63172,note_on,,,,,4,0,1,,,,0,62,95
63176,note_off,,,,,4,0,1,,,,0,43,64
63192,note_off,,,,,16,0,1,,,,0,53,64
63196,note_off,,,,,4,0,1,,,,0,50,64
63198,note_off,,,,,2,0,1,,,,0,46,64
63256,note_off,,,,,58,0,1,,,,0,62,64
63260,set_tempo,,,,,6304,1,0,431655,,,,,
63262,note_on,,,,,0,0,1,,,,0,50,79
63262,note_on,,,,,6,0,1,,,,0,53,93
63264,note_on,,,,,2,0,1,,,,0,46,89
63264,note_on,,,,,0,0,1,,,,0,43,83
63286,note_off,,,,,22,0,1,,,,0,74,64
63304,note_off,,,,,0,0,1,,,,0,53,64
63304,note_off,,,,,18,0,1,,,,0,43,64
63310,note_off,,,,,6,0,1,,,,0,50,64
63312,note_off,,,,,2,0,1,,,,0,46,64
63316,set_tempo,,,,,56,1,0,428571,,,,,
63346,note_on,,,,,34,0,1,,,,0,46,82
63348,note_on,,,,,2,0,1,,,,0,50,75
63350,note_on,,,,,2,0,1,,,,0,53,85
63352,note_on,,,,,2,0,1,,,,0,43,85
63372,set_tempo,,,,,56,1,0,425532,,,,,
63398,note_off,,,,,46,0,1,,,,0,43,64
63400,note_off,,,,,2,0,1,,,,0,53,64
63404,note_off,,,,,4,0,1,,,,0,50,64
63406,note_off,,,,,2,0,1,,,,0,46,64
63424,note_on,,,,,0,0,1,,,,0,77,96
63424,note_on,,,,,18,0,1,,,,0,89,90
63428,set_tempo,,,,,56,1,0,422535,,,,,
63448,note_off,,,,,24,0,1,,,,0,77,64
63454,note_off,,,,,6,0,1,,,,0,89,64
63484,set_tempo,,,,,56,1,0,419580,,,,,
63508,note_on,,,,,0,0,1,,,,0,77,102
63508,note_on,,,,,54,0,1,,,,0,89,102
63540,set_tempo,,,,,56,1,0,416667,,,,,
63570,control_change,,,,,62,0,1,,64,0,0,,
63584,note_on,,,,,14,0,1,,,,0,53,85
63586,note_on,,,,,2,0,1,,,,0,44,79
63588,note_on,,,,,2,0,1,,,,0,50,76
63588,note_on,,,,,0,0,1,,,,0,47,79
63596,set_tempo,,,,,56,1,0,413793,,,,,
63628,note_off,,,,,40,0,1,,,,0,44,64
63630,control_change,,,,,2,0,1,,64,127,0,,
63636,note_off,,,,,6,0,1,,,,0,50,64
63636,note_off,,,,,0,0,1,,,,0,53,64
63640,note_off,,,,,0,0,1,,,,0,89,64
63640,note_off,,,,,4,0,1,,,,0,47,64
63646,note_off,,,,,6,0,1,,,,0,77,64
63652,set_tempo,,,,,56,1,0,410959,,,,,
63676,note_on,,,,,30,0,1,,,,0,53,85
63676,note_on,,,,,0,0,1,,,,0,47,78
63678,note_on,,,,,0,0,1,,,,0,44,84
63678,note_on,,,,,2,0,1,,,,0,50,79
63708,set_tempo,,,,,56,1,0,408163,,,,,
63752,note_on,,,,,0,0,1,,,,0,77,102
63752,note_off,,,,,74,0,1,,,,0,44,64
63756,note_on,,,,,4,0,1,,,,0,89,102
63764,note_off,,,,,8,0,1,,,,0,53,64
63764,set_tempo,,,,,56,1,0,405405,,,,,
63784,note_off,,,,,20,0,1,,,,0,77,64
63788,note_off,,,,,4,0,1,,,,0,89,64
63794,note_off,,,,,6,0,1,,,,0,50,64
63802,note_off,,,,,8,0,1,,,,0,47,64
63820,set_tempo,,,,,56,1,0,402685,,,,,
63856,note_on,,,,,54,0,1,,,,0,88,106
63858,note_on,,,,,2,0,1,,,,0,76,106
63876,set_tempo,,,,,56,1,0,400000,,,,,
63932,set_tempo,,,,,56,1,0,397351,,,,,
63940,control_change,,,,,82,0,1,,64,0,0,,
63946,note_on,,,,,6,0,1,,,,0,44,88
63948,note_on,,,,,0,0,1,,,,0,50,76
63948,note_on,,,,,2,0,1,,,,0,52,86
63950,note_on,,,,,2,0,1,,,,0,47,84
63964,control_change,,,,,14,0,1,,64,127,0,,
63984,note_off,,,,,20,0,1,,,,0,88,64
63988,set_tempo,,,,,56,1,0,394737,,,,,
63990,note_off,,,,,6,0,1,,,,0,76,64
63992,note_off,,,,,2,0,1,,,,0,52,64
63992,note_off,,,,,0,0,1,,,,0,44,64
63998,note_off,,,,,6,0,1,,,,0,50,64
64004,note_off,,,,,6,0,1,,,,0,47,64
64042,note_on,,,,,38,0,1,,,,0,47,73
64042,note_on,,,,,0,0,1,,,,0,44,91
64044,set_tempo,,,,,56,1,0,392157,,,,,
64044,note_on,,,,,2,0,1,,,,0,52,86
64048,note_on,,,,,4,0,1,,,,0,50,83
64090,note_off,,,,,42,0,1,,,,0,52,64
64090,note_off,,,,,0,0,1,,,,0,44,64
64092,note_off,,,,,2,0,1,,,,0,50,64
64092,note_off,,,,,0,0,1,,,,0,47,64
64100,set_tempo,,,,,56,1,0,389610,,,,,
64154,note_on,,,,,62,0,1,,,,0,86,104
64156,set_tempo,,,,,56,1,0,387097,,,,,
64156,note_on,,,,,2,0,1,,,,0,74,104
64182,note_off,,,,,26,0,1,,,,0,74,64
64188,note_off,,,,,6,0,1,,,,0,86,64
64212,set_tempo,,,,,56,1,0,384615,,,,,
64216,set_tempo,,,,,4,1,0,387097,,,,,
64220,set_tempo,,,,,4,1,0,392157,,,,,
64224,set_tempo,,,,,4,1,0,394737,,,,,
64228,set_tempo,,,,,4,1,0,400000,,,,,
64232,set_tempo,,,,,4,1,0,402685,,,,,
64236,set_tempo,,,,,4,1,0,408163,,,,,
64240,set_tempo,,,,,4,1,0,410959,,,,,
64244,set_tempo,,,,,4,1,0,416667,,,,,
64248,set_tempo,,,,,4,1,0,419580,,,,,
64252,set_tempo,,,,,4,1,0,425532,,,,,
64256,set_tempo,,,,,4,1,0,431655,,,,,
64282,note_on,,,,,94,0,1,,,,0,49,82
64284,note_on,,,,,0,0,1,,,,0,52,83
64284,note_on,,,,,2,0,1,,,,0,57,96
64286,note_on,,,,,2,0,1,,,,0,81,97
64286,note_on,,,,,0,0,1,,,,0,45,90
64302,control_change,,,,,16,0,1,,64,0,0,,
64340,note_off,,,,,38,0,1,,,,0,81,64
64366,note_on,,,,,26,0,1,,,,0,93,93
64372,set_tempo,,,,,116,1,0,394737,,,,,
64376,set_tempo,,,,,4,1,0,389610,,,,,
64380,set_tempo,,,,,4,1,0,387097,,,,,
64384,set_tempo,,,,,4,1,0,384615,,,,,
64388,set_tempo,,,,,4,1,0,382166,,,,,
64392,set_tempo,,,,,4,1,0,379747,,,,,
64396,set_tempo,,,,,4,1,0,377358,,,,,
64400,set_tempo,,,,,4,1,0,375000,,,,,
64406,note_off,,,,,40,0,1,,,,0,93,64
64412,control_change,,,,,6,0,1,,64,127,0,,
64434,note_on,,,,,22,0,1,,,,0,82,98
64478,note_off,,,,,44,0,1,,,,0,82,64
64494,note_on,,,,,16,0,1,,,,0,94,85
64528,note_off,,,,,34,0,1,,,,0,94,64
64554,note_on,,,,,26,0,1,,,,0,81,92
64596,note_off,,,,,42,0,1,,,,0,81,64
64616,note_on,,,,,20,0,1,,,,0,93,86
64620,note_off,,,,,4,0,1,,,,0,52,64
64636,note_off,,,,,16,0,1,,,,0,49,64
64650,note_off,,,,,14,0,1,,,,0,57,64
64652,note_off,,,,,2,0,1,,,,0,93,64
64652,note_off,,,,,0,0,1,,,,0,45,64
64670,note_on,,,,,18,0,1,,,,0,82,96
64672,set_tempo,,,,,272,1,0,372671,,,,,
64718,note_off,,,,,48,0,1,,,,0,82,64
64732,note_on,,,,,14,0,1,,,,0,94,90
64768,note_off,,,,,36,0,1,,,,0,94,64
64774,control_change,,,,,6,0,1,,64,0,0,,
64796,note_on,,,,,22,0,1,,,,0,81,93
64804,note_on,,,,,8,0,1,,,,0,57,84
64804,note_on,,,,,0,0,1,,,,0,45,93
64822,control_change,,,,,18,0,1,,64,127,0,,
64836,note_off,,,,,14,0,1,,,,0,57,64
64838,note_off,,,,,2,0,1,,,,0,45,64
64840,note_off,,,,,2,0,1,,,,0,81,64
64852,note_on,,,,,12,0,1,,,,0,93,82
64882,control_change,,,,,30,0,1,,64,0,0,,
64892,note_off,,,,,10,0,1,,,,0,93,64
64918,note_on,,,,,26,0,1,,,,0,82,97
64920,note_on,,,,,0,0,1,,,,0,46,89
64920,note_on,,,,,2,0,1,,,,0,58,89
64926,control_change,,,,,6,0,1,,64,127,0,,
64936,set_tempo,,,,,264,1,0,370370,,,,,
64958,note_off,,,,,0,0,1,,,,0,58,64
64958,note_off,,,,,32,0,1,,,,0,46,64
64966,note_off,,,,,8,0,1,,,,0,82,64
64972,note_on,,,,,6,0,1,,,,0,94,85
65008,note_off,,,,,36,0,1,,,,0,94,64
65016,control_change,,,,,8,0,1,,64,0,0,,
65036,control_change,,,,,20,0,1,,64,127,0,,
65040,note_on,,,,,4,0,1,,,,0,61,97
65040,note_on,,,,,0,0,1,,,,0,49,90
65042,note_on,,,,,0,0,1,,,,0,85,89
65042,note_on,,,,,2,0,1,,,,0,88,89
65048,note_on,,,,,6,0,1,,,,0,81,71
65078,note_off,,,,,30,0,1,,,,0,49,64
65078,note_off,,,,,0,0,1,,,,0,61,64
65086,note_off,,,,,8,0,1,,,,0,81,64
65098,note_off,,,,,12,0,1,,,,0,85,64
65108,note_on,,,,,10,0,1,,,,0,93,71
65112,note_off,,,,,4,0,1,,,,0,88,64
65124,control_change,,,,,12,0,1,,64,0,0,,
65138,control_change,,,,,14,0,1,,64,127,0,,
65156,note_off,,,,,18,0,1,,,,0,93,64
65160,note_on,,,,,0,0,1,,,,0,52,88
65160,note_on,,,,,4,0,1,,,,0,64,84
65164,note_on,,,,,4,0,1,,,,0,82,103
65196,note_off,,,,,32,0,1,,,,0,52,64
65198,note_off,,,,,2,0,1,,,,0,64,64
65200,set_tempo,,,,,264,1,0,368098,,,,,
65218,note_off,,,,,20,0,1,,,,0,82,64
65224,note_on,,,,,6,0,1,,,,0,94,91
65264,note_off,,,,,40,0,1,,,,0,94,64
65274,note_on,,,,,10,0,1,,,,0,65,88
65278,note_on,,,,,4,0,1,,,,0,53,87
65280,note_on,,,,,2,0,1,,,,0,81,94
65308,note_off,,,,,28,0,1,,,,0,53,64
65312,note_off,,,,,4,0,1,,,,0,65,64
65328,note_off,,,,,16,0,1,,,,0,81,64
65336,note_on,,,,,8,0,1,,,,0,93,73
65362,control_change,,,,,26,0,1,,64,0,0,,
65384,note_off,,,,,22,0,1,,,,0,93,64
65392,control_change,,,,,8,0,1,,64,127,0,,
65394,note_on,,,,,2,0,1,,,,0,67,84
65396,note_on,,,,,0,0,1,,,,0,55,84
65396,note_on,,,,,2,0,1,,,,0,82,102
65428,note_off,,,,,32,0,1,,,,0,55,64
65432,note_off,,,,,4,0,1,,,,0,67,64
65446,note_off,,,,,14,0,1,,,,0,82,64
65458,note_on,,,,,12,0,1,,,,0,94,93
65464,set_tempo,,,,,264,1,0,365854,,,,,
65496,note_off,,,,,38,0,1,,,,0,94,64
65504,control_change,,,,,8,0,1,,64,0,0,,
65516,note_on,,,,,0,0,1,,,,0,57,86
65516,note_on,,,,,12,0,1,,,,0,69,85
65518,note_on,,,,,2,0,1,,,,0,81,90
65528,control_change,,,,,10,0,1,,64,127,0,,
65552,note_off,,,,,0,0,1,,,,0,69,64
65552,note_off,,,,,24,0,1,,,,0,57,64
65568,note_off,,,,,16,0,1,,,,0,81,64
65572,note_on,,,,,4,0,1,,,,0,93,73
65618,note_off,,,,,46,0,1,,,,0,93,64
65620,control_change,,,,,2,0,1,,64,0,0,,
65640,note_on,,,,,20,0,1,,,,0,82,97
65640,note_on,,,,,0,0,1,,,,0,70,88
65644,note_on,,,,,4,0,1,,,,0,58,89
65646,control_change,,,,,2,0,1,,64,127,0,,
65686,note_off,,,,,40,0,1,,,,0,70,64
65688,note_off,,,,,2,0,1,,,,0,58,64
65692,note_off,,,,,4,0,1,,,,0,82,64
65700,note_on,,,,,8,0,1,,,,0,94,84
65728,set_tempo,,,,,264,1,0,363636,,,,,
65736,note_off,,,,,36,0,1,,,,0,94,64
65760,control_change,,,,,24,0,1,,64,0,0,,
65778,note_on,,,,,18,0,1,,,,0,89,95
65780,note_on,,,,,2,0,1,,,,0,81,84
65784,note_on,,,,,4,0,1,,,,0,69,89
65784,note_on,,,,,0,0,1,,,,0,57,95
65786,note_on,,,,,2,0,1,,,,0,86,86
65792,control_change,,,,,6,0,1,,64,127,0,,
65808,note_off,,,,,16,0,1,,,,0,57,64
65816,note_off,,,,,8,0,1,,,,0,69,64
65816,note_off,,,,,0,0,1,,,,0,81,64
65832,note_off,,,,,16,0,1,,,,0,86,64
65854,note_off,,,,,22,0,1,,,,0,89,64
65856,note_on,,,,,2,0,1,,,,0,93,68
65884,control_change,,,,,28,0,1,,64,0,0,,
65900,control_change,,,,,16,0,1,,64,127,0,,
65906,note_off,,,,,6,0,1,,,,0,93,64
65924,note_on,,,,,18,0,1,,,,0,82,99
65932,note_on,,,,,8,0,1,,,,0,65,87
65934,note_on,,,,,2,0,1,,,,0,77,84
65966,note_off,,,,,32,0,1,,,,0,77,64
65968,note_off,,,,,2,0,1,,,,0,65,64
65988,note_off,,,,,20,0,1,,,,0,82,64
65992,note_on,,,,,4,0,1,,,,0,94,93
65992,set_tempo,,,,,264,1,0,361446,,,,,
66036,note_off,,,,,44,0,1,,,,0,94,64
66046,note_on,,,,,10,0,1,,,,0,64,84
66048,note_on,,,,,2,0,1,,,,0,76,78
66052,note_on,,,,,4,0,1,,,,0,81,93
66080,note_off,,,,,28,0,1,,,,0,76,64
66080,note_off,,,,,0,0,1,,,,0,64,64
66100,note_off,,,,,20,0,1,,,,0,81,64
66104,note_on,,,,,4,0,1,,,,0,93,68
66156,note_off,,,,,52,0,1,,,,0,93,64
66166,note_on,,,,,10,0,1,,,,0,74,84
66168,note_on,,,,,2,0,1,,,,0,62,88
66172,note_on,,,,,4,0,1,,,,0,82,103
66196,note_off,,,,,24,0,1,,,,0,74,64
66198,note_off,,,,,2,0,1,,,,0,62,64
66232,note_off,,,,,34,0,1,,,,0,82,64
66232,note_on,,,,,0,0,1,,,,0,94,84
66256,set_tempo,,,,,264,1,0,359281,,,,,
66282,note_off,,,,,50,0,1,,,,0,94,64
66290,note_on,,,,,8,0,1,,,,0,69,88
66292,note_on,,,,,2,0,1,,,,0,57,95
66298,note_on,,,,,6,0,1,,,,0,81,90
66324,note_off,,,,,26,0,1,,,,0,69,64
66330,note_off,,,,,6,0,1,,,,0,57,64
66348,note_off,,,,,18,0,1,,,,0,81,64
66354,note_on,,,,,6,0,1,,,,0,93,79
66410,note_off,,,,,56,0,1,,,,0,93,64
66422,note_on,,,,,12,0,1,,,,0,65,82
66426,note_on,,,,,0,0,1,,,,0,53,92
66426,note_on,,,,,4,0,1,,,,0,82,98
66432,control_change,,,,,6,0,1,,64,0,0,,
66438,control_change,,,,,6,0,1,,64,127,0,,
66456,note_off,,,,,18,0,1,,,,0,65,64
66462,note_off,,,,,6,0,1,,,,0,53,64
66484,note_on,,,,,22,0,1,,,,0,94,92
66486,note_off,,,,,2,0,1,,,,0,82,64
66520,set_tempo,,,,,264,1,0,357143,,,,,
66520,note_off,,,,,34,0,1,,,,0,94,64
66556,control_change,,,,,0,0,1,,64,0,0,,
66556,note_on,,,,,36,0,1,,,,0,91,95
66560,note_on,,,,,4,0,1,,,,0,85,81
66560,note_on,,,,,0,0,1,,,,0,64,90
66564,note_on,,,,,4,0,1,,,,0,52,87
66572,note_on,,,,,8,0,1,,,,0,81,93
66594,control_change,,,,,22,0,1,,64,127,0,,
66596,note_off,,,,,2,0,1,,,,0,64,64
66606,note_off,,,,,10,0,1,,,,0,52,64
66624,note_off,,,,,18,0,1,,,,0,81,64
66624,note_off,,,,,0,0,1,,,,0,85,64
66648,note_off,,,,,24,0,1,,,,0,91,64
66656,note_on,,,,,8,0,1,,,,0,93,75
66684,note_off,,,,,28,0,1,,,,0,93,64
66702,control_change,,,,,18,0,1,,64,0,0,,
66712,note_on,,,,,10,0,1,,,,0,82,103
66716,note_on,,,,,4,0,1,,,,0,61,94
66720,note_on,,,,,4,0,1,,,,0,49,92
66728,control_change,,,,,8,0,1,,64,127,0,,
66762,note_off,,,,,34,0,1,,,,0,49,64
66764,note_off,,,,,2,0,1,,,,0,61,64
66764,note_off,,,,,0,0,1,,,,0,82,64
66772,note_on,,,,,8,0,1,,,,0,94,86
66784,set_tempo,,,,,264,1,0,355030,,,,,
66806,note_off,,,,,34,0,1,,,,0,94,64
66842,note_on,,,,,36,0,1,,,,0,58,99
66844,note_on,,,,,2,0,1,,,,0,81,89
66844,control_change,,,,,0,0,1,,64,0,0,,
66848,note_on,,,,,4,0,1,,,,0,46,92
66868,control_change,,,,,20,0,1,,64,127,0,,
66892,note_off,,,,,24,0,1,,,,0,58,64
66902,note_off,,,,,10,0,1,,,,0,46,64
66904,note_on,,,,,2,0,1,,,,0,93,86
66912,note_off,,,,,8,0,1,,,,0,81,64
66968,note_off,,,,,56,0,1,,,,0,93,64
66970,control_change,,,,,2,0,1,,64,0,0,,
66982,note_on,,,,,12,0,1,,,,0,57,93
66984,note_on,,,,,2,0,1,,,,0,45,94
66988,note_on,,,,,4,0,1,,,,0,82,100
67000,control_change,,,,,12,0,1,,64,127,0,,
67026,note_off,,,,,26,0,1,,,,0,57,64
67044,note_off,,,,,18,0,1,,,,0,45,64
67048,set_tempo,,,,,264,1,0,352941,,,,,
67054,note_on,,,,,10,0,1,,,,0,94,89
67060,note_off,,,,,6,0,1,,,,0,82,64
67108,note_off,,,,,48,0,1,,,,0,94,64
67128,control_change,,,,,20,0,1,,64,0,0,,
67130,note_on,,,,,2,0,1,,,,0,43,87
67132,note_on,,,,,2,0,1,,,,0,55,93
67136,note_on,,,,,4,0,1,,,,0,81,100
67156,control_change,,,,,20,0,1,,64,127,0,,
67168,note_off,,,,,12,0,1,,,,0,55,64
67180,note_off,,,,,12,0,1,,,,0,43,64
67218,note_on,,,,,38,0,1,,,,0,93,103
67286,note_off,,,,,68,0,1,,,,0,93,64
67310,note_on,,,,,24,0,1,,,,0,52,100
67312,set_tempo,,,,,264,1,0,350877,,,,,
67312,note_on,,,,,2,0,1,,,,0,40,98
67318,note_off,,,,,6,0,1,,,,0,81,64
67324,control_change,,,,,6,0,1,,64,0,0,,
67382,control_change,,,,,58,0,1,,64,127,0,,
67412,note_on,,,,,30,0,1,,,,0,81,88
67416,note_on,,,,,4,0,1,,,,0,69,105
67440,note_off,,,,,24,0,1,,,,0,81,64
67446,note_off,,,,,6,0,1,,,,0,69,64
67470,note_off,,,,,24,0,1,,,,0,52,64
67472,note_off,,,,,2,0,1,,,,0,40,64
67476,set_tempo,,,,,164,1,0,352941,,,,,
67496,set_tempo,,,,,20,1,0,355030,,,,,
67516,set_tempo,,,,,20,1,0,357143,,,,,
67520,note_on,,,,,0,0,1,,,,0,74,88
67520,note_on,,,,,48,0,1,,,,0,81,90
67522,note_on,,,,,2,0,1,,,,0,77,91
67522,note_on,,,,,0,0,1,,,,0,69,93
67536,set_tempo,,,,,20,1,0,359281,,,,,
67556,set_tempo,,,,,20,1,0,361446,,,,,
67576,set_tempo,,,,,20,1,0,363636,,,,,
67580,control_change,,,,,58,0,1,,64,127,0,,
67596,set_tempo,,,,,20,1,0,365854,,,,,
67600,note_on,,,,,20,0,1,,,,0,45,89
67602,note_on,,,,,2,0,1,,,,0,50,82
67602,note_on,,,,,0,0,1,,,,0,41,82
67604,note_on,,,,,2,0,1,,,,0,38,70
67616,set_tempo,,,,,20,1,0,368098,,,,,
67630,note_off,,,,,26,0,1,,,,0,38,64
67632,note_off,,,,,2,0,1,,,,0,50,64
67636,set_tempo,,,,,20,1,0,370370,,,,,
67638,note_off,,,,,6,0,1,,,,0,41,64
67640,note_off,,,,,2,0,1,,,,0,45,64
67648,note_off,,,,,8,0,1,,,,0,81,64
67656,set_tempo,,,,,20,1,0,372671,,,,,
67658,note_off,,,,,10,0,1,,,,0,69,64
67664,note_off,,,,,6,0,1,,,,0,74,64
67666,note_off,,,,,2,0,1,,,,0,77,64
67676,set_tempo,,,,,20,1,0,375000,,,,,
67684,note_on,,,,,0,0,1,,,,0,45,88
67684,note_on,,,,,18,0,1,,,,0,50,87
67686,note_on,,,,,0,0,1,,,,0,38,76
67686,note_on,,,,,2,0,1,,,,0,41,88
67696,set_tempo,,,,,20,1,0,377358,,,,,
67712,note_off,,,,,26,0,1,,,,0,38,64
67718,note_off,,,,,6,0,1,,,,0,41,64
67724,note_off,,,,,6,0,1,,,,0,45,64
67728,note_off,,,,,4,0,1,,,,0,50,64
67752,note_on,,,,,24,0,1,,,,0,82,88
67758,note_on,,,,,6,0,1,,,,0,70,93
67760,note_on,,,,,2,0,1,,,,0,74,82
67762,note_on,,,,,2,0,1,,,,0,77,81
67792,note_off,,,,,30,0,1,,,,0,70,64
67802,note_off,,,,,10,0,1,,,,0,82,64
67804,note_off,,,,,2,0,1,,,,0,74,64
67812,note_off,,,,,8,0,1,,,,0,77,64
67844,note_on,,,,,0,0,1,,,,0,70,98
67844,note_on,,,,,32,0,1,,,,0,82,87
67846,note_on,,,,,2,0,1,,,,0,74,86
67848,note_on,,,,,2,0,1,,,,0,77,83
67904,note_off,,,,,56,0,1,,,,0,82,64
67906,note_off,,,,,2,0,1,,,,0,70,64
67916,note_off,,,,,10,0,1,,,,0,74,64
67916,note_on,,,,,0,0,1,,,,0,65,87
67916,note_on,,,,,0,0,1,,,,0,62,83
67918,note_on,,,,,2,0,1,,,,0,57,87
67920,note_off,,,,,2,0,1,,,,0,77,64
67952,note_off,,,,,0,0,1,,,,0,65,64
67952,note_off,,,,,32,0,1,,,,0,57,64
67958,note_off,,,,,6,0,1,,,,0,62,64
68000,note_on,,,,,42,0,1,,,,0,65,82
68000,note_on,,,,,0,0,1,,,,0,62,90
68006,note_on,,,,,6,0,1,,,,0,57,88
68028,note_off,,,,,22,0,1,,,,0,65,64
68040,note_off,,,,,12,0,1,,,,0,62,64
68048,note_off,,,,,8,0,1,,,,0,57,64
68070,note_on,,,,,22,0,1,,,,0,69,89
68072,note_on,,,,,0,0,1,,,,0,77,82
68072,note_on,,,,,2,0,1,,,,0,81,81
68074,note_on,,,,,2,0,1,,,,0,74,82
68106,note_off,,,,,32,0,1,,,,0,69,64
68114,note_off,,,,,0,0,1,,,,0,81,64
68114,note_off,,,,,8,0,1,,,,0,74,64
68120,note_off,,,,,6,0,1,,,,0,77,64
68154,note_on,,,,,34,0,1,,,,0,77,87
68156,note_on,,,,,2,0,1,,,,0,74,87
68156,note_on,,,,,0,0,1,,,,0,69,97
68158,note_on,,,,,2,0,1,,,,0,81,82
68216,note_off,,,,,58,0,1,,,,0,81,64
68226,note_on,,,,,10,0,1,,,,0,45,92
68228,note_on,,,,,2,0,1,,,,0,50,86
68230,note_on,,,,,2,0,1,,,,0,38,82
68232,note_on,,,,,0,0,1,,,,0,41,84
68232,note_off,,,,,2,0,1,,,,0,69,64
68246,note_off,,,,,14,0,1,,,,0,74,64
68246,note_off,,,,,0,0,1,,,,0,77,64
68260,note_off,,,,,14,0,1,,,,0,38,64
68262,note_off,,,,,2,0,1,,,,0,50,64
68272,note_off,,,,,0,0,1,,,,0,45,64
68272,note_off,,,,,10,0,1,,,,0,41,64
68314,note_on,,,,,42,0,1,,,,0,45,92
68316,note_on,,,,,0,0,1,,,,0,41,92
68316,note_on,,,,,2,0,1,,,,0,50,93
68316,note_on,,,,,0,0,1,,,,0,38,81
68344,note_off,,,,,28,0,1,,,,0,38,64
68348,note_off,,,,,4,0,1,,,,0,41,64
68354,note_off,,,,,6,0,1,,,,0,45,64
68356,note_off,,,,,2,0,1,,,,0,50,64
68378,note_on,,,,,22,0,1,,,,0,68,86
68384,note_on,,,,,6,0,1,,,,0,80,73
68384,note_on,,,,,0,0,1,,,,0,77,80
68384,note_on,,,,,0,0,1,,,,0,74,76
68418,note_off,,,,,34,0,1,,,,0,68,64
68420,note_off,,,,,2,0,1,,,,0,80,64
68424,note_off,,,,,4,0,1,,,,0,74,64
68428,note_off,,,,,4,0,1,,,,0,77,64
68464,note_on,,,,,36,0,1,,,,0,77,80
68466,note_on,,,,,2,0,1,,,,0,68,100
68468,note_on,,,,,0,0,1,,,,0,74,81
68468,note_on,,,,,2,0,1,,,,0,80,86
68530,note_off,,,,,62,0,1,,,,0,80,64
68532,note_off,,,,,2,0,1,,,,0,68,64
68536,note_on,,,,,0,0,1,,,,0,65,84
68536,note_on,,,,,0,0,1,,,,0,62,85
68536,note_off,,,,,4,0,1,,,,0,74,64
68540,note_on,,,,,4,0,1,,,,0,57,82
68542,note_off,,,,,2,0,1,,,,0,77,64
68570,note_off,,,,,28,0,1,,,,0,57,64
68570,note_off,,,,,0,0,1,,,,0,65,64
68574,note_off,,,,,4,0,1,,,,0,62,64
68612,note_on,,,,,38,0,1,,,,0,62,92
68616,note_on,,,,,4,0,1,,,,0,65,89
68618,note_on,,,,,2,0,1,,,,0,57,89
68640,note_off,,,,,22,0,1,,,,0,65,64
68654,note_off,,,,,14,0,1,,,,0,62,64
68668,note_off,,,,,14,0,1,,,,0,57,64
68688,note_on,,,,,20,0,1,,,,0,79,87
68688,note_on,,,,,0,0,1,,,,0,74,86
68690,note_on,,,,,2,0,1,,,,0,69,79
68692,note_on,,,,,2,0,1,,,,0,67,82
68718,note_off,,,,,26,0,1,,,,0,67,64
68718,note_off,,,,,0,0,1,,,,0,69,64
68732,note_off,,,,,14,0,1,,,,0,79,64
68734,note_off,,,,,2,0,1,,,,0,74,64
68766,note_on,,,,,32,0,1,,,,0,79,83
68766,note_on,,,,,0,0,1,,,,0,74,82
68768,note_on,,,,,2,0,1,,,,0,69,84
68770,note_on,,,,,2,0,1,,,,0,67,84
68804,note_off,,,,,34,0,1,,,,0,69,64
68812,note_off,,,,,8,0,1,,,,0,67,64
68814,note_off,,,,,2,0,1,,,,0,79,64
68824,note_off,,,,,10,0,1,,,,0,74,64
68842,note_on,,,,,18,0,1,,,,0,45,87
68844,note_on,,,,,2,0,1,,,,0,50,85
68846,note_on,,,,,2,0,1,,,,0,41,82
68848,note_on,,,,,2,0,1,,,,0,38,74
68874,note_off,,,,,26,0,1,,,,0,50,64
68878,note_off,,,,,4,0,1,,,,0,38,64
68880,note_on,,,,,2,0,1,,,,0,70,58
68884,note_off,,,,,4,0,1,,,,0,45,64
68888,note_off,,,,,4,0,1,,,,0,41,64
68894,note_off,,,,,6,0,1,,,,0,70,64
68926,control_change,,,,,32,0,1,,64,0,0,,
68928,note_on,,,,,0,0,1,,,,0,38,85
68928,note_on,,,,,2,0,1,,,,0,41,87
68930,note_on,,,,,2,0,1,,,,0,50,96
68932,note_on,,,,,2,0,1,,,,0,45,96
68946,control_change,,,,,14,0,1,,64,127,0,,
68962,note_off,,,,,16,0,1,,,,0,38,64
68976,note_off,,,,,14,0,1,,,,0,41,64
68980,note_off,,,,,4,0,1,,,,0,45,64
68984,note_off,,,,,4,0,1,,,,0,50,64
69000,note_on,,,,,0,0,1,,,,0,66,83
69000,note_on,,,,,16,0,1,,,,0,78,79
69002,note_on,,,,,2,0,1,,,,0,69,82
69008,note_on,,,,,6,0,1,,,,0,74,77
69030,note_off,,,,,22,0,1,,,,0,66,64
69038,note_off,,,,,8,0,1,,,,0,69,64
69042,note_off,,,,,4,0,1,,,,0,78,64
69046,note_off,,,,,4,0,1,,,,0,74,64
69080,note_on,,,,,34,0,1,,,,0,69,88
69080,note_on,,,,,0,0,1,,,,0,66,89
69082,note_on,,,,,2,0,1,,,,0,78,73
69082,note_on,,,,,0,0,1,,,,0,74,72
69138,note_off,,,,,56,0,1,,,,0,66,64
69138,note_off,,,,,0,0,1,,,,0,78,64
69142,note_off,,,,,4,0,1,,,,0,69,64
69150,note_on,,,,,8,0,1,,,,0,62,87
69152,note_on,,,,,2,0,1,,,,0,53,84
69154,note_on,,,,,2,0,1,,,,0,57,86
69160,note_off,,,,,6,0,1,,,,0,74,64
69184,note_off,,,,,24,0,1,,,,0,53,64
69186,note_off,,,,,2,0,1,,,,0,62,64
69192,note_off,,,,,6,0,1,,,,0,57,64
69232,note_on,,,,,40,0,1,,,,0,57,90
69236,note_on,,,,,4,0,1,,,,0,62,90
69238,note_on,,,,,2,0,1,,,,0,53,85
69264,note_off,,,,,26,0,1,,,,0,62,64
69274,note_off,,,,,10,0,1,,,,0,57,64
69284,note_off,,,,,10,0,1,,,,0,53,64
69300,note_on,,,,,16,0,1,,,,0,69,87
69302,note_on,,,,,0,0,1,,,,0,65,87
69302,note_on,,,,,2,0,1,,,,0,77,86
69334,note_off,,,,,32,0,1,,,,0,65,64
69344,note_off,,,,,10,0,1,,,,0,69,64
69352,note_off,,,,,8,0,1,,,,0,77,64
69382,note_on,,,,,30,0,1,,,,0,69,91
69384,note_on,,,,,2,0,1,,,,0,65,92
69386,note_on,,,,,2,0,1,,,,0,74,83
69388,note_on,,,,,2,0,1,,,,0,77,71
69456,note_on,,,,,68,0,1,,,,0,50,86
69458,note_on,,,,,2,0,1,,,,0,45,88
69460,note_on,,,,,2,0,1,,,,0,38,77
69462,note_on,,,,,2,0,1,,,,0,41,83
69464,note_off,,,,,2,0,1,,,,0,65,64
69466,note_off,,,,,2,0,1,,,,0,77,64
69490,note_off,,,,,24,0,1,,,,0,38,64
69492,note_off,,,,,2,0,1,,,,0,50,64
69498,note_off,,,,,6,0,1,,,,0,45,64
69500,note_off,,,,,2,0,1,,,,0,41,64
69528,note_off,,,,,28,0,1,,,,0,74,64
69530,note_off,,,,,2,0,1,,,,0,69,64
69538,note_on,,,,,8,0,1,,,,0,45,85
69540,note_on,,,,,0,0,1,,,,0,38,84
69540,note_on,,,,,2,0,1,,,,0,50,93
69548,note_on,,,,,8,0,1,,,,0,41,68
69584,note_off,,,,,36,0,1,,,,0,38,64
69586,note_off,,,,,2,0,1,,,,0,41,64
69592,note_off,,,,,6,0,1,,,,0,50,64
69592,note_off,,,,,0,0,1,,,,0,45,64
69608,note_on,,,,,16,0,1,,,,0,76,81
69610,note_on,,,,,2,0,1,,,,0,64,91
69612,note_on,,,,,2,0,1,,,,0,69,85
69640,note_off,,,,,28,0,1,,,,0,64,64
69648,note_off,,,,,8,0,1,,,,0,69,64
69656,note_off,,,,,8,0,1,,,,0,76,64
69692,note_on,,,,,36,0,1,,,,0,69,92
69694,note_on,,,,,2,0,1,,,,0,64,93
69696,note_on,,,,,2,0,1,,,,0,76,81
69748,note_off,,,,,0,0,1,,,,0,64,64
69748,note_off,,,,,52,0,1,,,,0,76,64
69750,note_on,,,,,2,0,1,,,,0,57,79
69752,note_on,,,,,2,0,1,,,,0,53,75
69772,note_off,,,,,20,0,1,,,,0,69,64
69788,note_off,,,,,16,0,1,,,,0,57,64
69792,note_off,,,,,4,0,1,,,,0,53,64
69836,note_on,,,,,44,0,1,,,,0,57,98
69842,note_on,,,,,6,0,1,,,,0,53,91
69870,note_off,,,,,28,0,1,,,,0,57,64
69880,note_off,,,,,10,0,1,,,,0,53,64
69902,note_on,,,,,22,0,1,,,,0,75,86
69904,note_on,,,,,2,0,1,,,,0,69,84
69904,note_on,,,,,0,0,1,,,,0,63,86
69936,note_off,,,,,32,0,1,,,,0,63,64
69946,note_off,,,,,10,0,1,,,,0,69,64
69948,note_off,,,,,2,0,1,,,,0,75,64
69984,note_on,,,,,36,0,1,,,,0,75,92
69986,note_on,,,,,0,0,1,,,,0,63,96
69986,note_on,,,,,2,0,1,,,,0,69,87
70052,note_off,,,,,66,0,1,,,,0,63,64
70054,note_off,,,,,2,0,1,,,,0,75,64
70056,note_off,,,,,2,0,1,,,,0,69,64
70062,note_on,,,,,6,0,1,,,,0,45,86
70064,note_on,,,,,2,0,1,,,,0,50,87
70068,note_on,,,,,4,0,1,,,,0,41,81
70072,note_on,,,,,4,0,1,,,,0,38,69
70096,note_off,,,,,0,0,1,,,,0,50,64
70096,note_off,,,,,24,0,1,,,,0,38,64
70102,note_off,,,,,0,0,1,,,,0,45,64
70102,note_off,,,,,6,0,1,,,,0,41,64
70134,control_change,,,,,32,0,1,,64,0,0,,
70138,control_change,,,,,4,0,1,,64,127,0,,
70144,note_on,,,,,0,0,1,,,,0,45,96
70144,note_on,,,,,6,0,1,,,,0,50,97
70146,note_on,,,,,0,0,1,,,,0,38,89
70146,note_on,,,,,2,0,1,,,,0,41,85
70180,note_off,,,,,34,0,1,,,,0,38,64
70188,note_off,,,,,8,0,1,,,,0,41,64
70192,note_off,,,,,4,0,1,,,,0,45,64
70196,note_off,,,,,4,0,1,,,,0,50,64
70214,note_on,,,,,0,0,1,,,,0,62,85
70214,note_on,,,,,18,0,1,,,,0,69,88
70216,note_on,,,,,2,0,1,,,,0,74,78
70244,note_off,,,,,28,0,1,,,,0,62,64
70256,note_off,,,,,12,0,1,,,,0,69,64
70260,note_off,,,,,4,0,1,,,,0,74,64
70292,note_on,,,,,32,0,1,,,,0,69,90
70294,note_on,,,,,2,0,1,,,,0,62,91
70296,note_on,,,,,2,0,1,,,,0,74,85
70344,note_off,,,,,48,0,1,,,,0,62,64
70360,note_on,,,,,0,0,1,,,,0,57,85
70360,note_off,,,,,16,0,1,,,,0,74,64
70362,note_on,,,,,2,0,1,,,,0,53,79
70368,note_off,,,,,6,0,1,,,,0,69,64
70396,note_off,,,,,28,0,1,,,,0,57,64
70400,note_off,,,,,4,0,1,,,,0,53,64
70442,note_on,,,,,42,0,1,,,,0,57,100
70448,note_on,,,,,6,0,1,,,,0,53,88
70476,note_off,,,,,28,0,1,,,,0,57,64
70484,note_off,,,,,8,0,1,,,,0,53,64
70508,note_on,,,,,24,0,1,,,,0,61,84
70510,note_on,,,,,2,0,1,,,,0,73,81
70512,note_on,,,,,2,0,1,,,,0,69,80
70544,note_off,,,,,32,0,1,,,,0,61,64
70552,note_off,,,,,0,0,1,,,,0,73,64
70552,note_off,,,,,8,0,1,,,,0,69,64
70590,note_on,,,,,38,0,1,,,,0,73,89
70590,note_on,,,,,0,0,1,,,,0,69,91
70592,note_on,,,,,2,0,1,,,,0,61,98
70660,note_on,,,,,68,0,1,,,,0,45,89
70662,note_on,,,,,2,0,1,,,,0,50,88
70662,note_on,,,,,0,0,1,,,,0,38,79
70664,note_on,,,,,2,0,1,,,,0,41,82
70694,control_change,,,,,30,0,1,,64,0,0,,
70696,note_off,,,,,2,0,1,,,,0,38,64
70698,note_off,,,,,2,0,1,,,,0,50,64
70698,note_off,,,,,0,0,1,,,,0,61,64
70704,note_off,,,,,6,0,1,,,,0,41,64
70706,note_off,,,,,2,0,1,,,,0,45,64
70726,note_off,,,,,20,0,1,,,,0,69,64
70730,note_off,,,,,4,0,1,,,,0,73,64
70734,control_change,,,,,4,0,1,,64,127,0,,
70736,note_on,,,,,2,0,1,,,,0,45,90
70738,note_on,,,,,0,0,1,,,,0,41,85
70738,note_on,,,,,2,0,1,,,,0,50,91
70740,note_on,,,,,2,0,1,,,,0,38,83
70778,note_off,,,,,38,0,1,,,,0,38,64
70786,note_off,,,,,8,0,1,,,,0,41,64
70790,note_off,,,,,4,0,1,,,,0,45,64
70798,note_off,,,,,8,0,1,,,,0,50,64
70804,note_on,,,,,6,0,1,,,,0,74,79
70804,note_on,,,,,0,0,1,,,,0,69,79
70806,note_on,,,,,2,0,1,,,,0,62,84
70840,note_off,,,,,34,0,1,,,,0,62,64
70846,note_off,,,,,6,0,1,,,,0,69,64
70850,note_off,,,,,4,0,1,,,,0,74,64
70890,note_on,,,,,40,0,1,,,,0,69,92
70890,note_on,,,,,0,0,1,,,,0,62,87
70892,note_on,,,,,2,0,1,,,,0,74,87
70932,note_off,,,,,40,0,1,,,,0,62,64
70952,note_on,,,,,20,0,1,,,,0,57,82
70956,note_on,,,,,4,0,1,,,,0,53,81
70964,note_off,,,,,8,0,1,,,,0,74,64
70974,note_off,,,,,10,0,1,,,,0,69,64
70992,note_off,,,,,18,0,1,,,,0,57,64
70996,note_off,,,,,4,0,1,,,,0,53,64
71034,note_on,,,,,38,0,1,,,,0,57,97
71036,note_on,,,,,2,0,1,,,,0,53,86
71068,note_off,,,,,32,0,1,,,,0,57,64
71076,note_off,,,,,8,0,1,,,,0,53,64
71100,note_on,,,,,0,0,1,,,,0,63,85
71100,note_on,,,,,24,0,1,,,,0,75,80
71104,note_on,,,,,4,0,1,,,,0,69,80
71132,note_off,,,,,28,0,1,,,,0,63,64
71140,note_off,,,,,8,0,1,,,,0,69,64
71144,note_off,,,,,4,0,1,,,,0,75,64
71180,note_on,,,,,36,0,1,,,,0,75,95
71182,note_on,,,,,2,0,1,,,,0,63,99
71186,note_on,,,,,4,0,1,,,,0,69,89
71248,note_on,,,,,62,0,1,,,,0,45,91
71250,note_on,,,,,0,0,1,,,,0,41,90
71250,note_on,,,,,2,0,1,,,,0,50,89
71252,note_on,,,,,2,0,1,,,,0,38,76
71270,note_off,,,,,18,0,1,,,,0,75,64
71274,note_off,,,,,4,0,1,,,,0,69,64
71274,note_off,,,,,0,0,1,,,,0,63,64
71284,note_off,,,,,10,0,1,,,,0,38,64
71284,note_off,,,,,0,0,1,,,,0,50,64
71292,note_off,,,,,8,0,1,,,,0,45,64
71296,note_off,,,,,4,0,1,,,,0,41,64
71330,note_on,,,,,34,0,1,,,,0,45,89
71330,note_on,,,,,0,0,1,,,,0,41,87
71332,note_on,,,,,2,0,1,,,,0,50,92
71334,note_on,,,,,2,0,1,,,,0,38,82
71374,note_off,,,,,40,0,1,,,,0,38,64
71380,note_off,,,,,6,0,1,,,,0,41,64
71382,note_off,,,,,2,0,1,,,,0,45,64
71390,note_off,,,,,8,0,1,,,,0,50,64
71398,note_on,,,,,0,0,1,,,,0,64,89
71398,note_on,,,,,8,0,1,,,,0,69,80
71408,note_on,,,,,10,0,1,,,,0,76,67
71432,note_off,,,,,24,0,1,,,,0,64,64
71434,note_off,,,,,2,0,1,,,,0,76,64
71440,note_off,,,,,6,0,1,,,,0,69,64
71484,note_on,,,,,0,0,1,,,,0,64,97
71484,note_on,,,,,44,0,1,,,,0,69,87
71486,note_on,,,,,2,0,1,,,,0,76,83
71548,note_off,,,,,62,0,1,,,,0,64,64
71556,note_on,,,,,8,0,1,,,,0,57,87
71558,note_on,,,,,2,0,1,,,,0,53,84
71562,note_on,,,,,4,0,1,,,,0,62,88
71588,note_off,,,,,26,0,1,,,,0,62,64
71596,note_off,,,,,8,0,1,,,,0,53,64
71596,note_off,,,,,0,0,1,,,,0,57,64
71600,note_off,,,,,4,0,1,,,,0,76,64
71616,note_off,,,,,16,0,1,,,,0,69,64
71632,note_on,,,,,16,0,1,,,,0,57,84
71634,note_on,,,,,2,0,1,,,,0,62,83
71636,note_on,,,,,2,0,1,,,,0,53,81
71670,note_off,,,,,34,0,1,,,,0,62,64
71678,note_off,,,,,8,0,1,,,,0,57,64
71686,note_off,,,,,8,0,1,,,,0,53,64
71708,note_on,,,,,22,0,1,,,,0,65,87
71710,note_on,,,,,2,0,1,,,,0,69,80
71712,note_on,,,,,2,0,1,,,,0,77,80
71742,note_off,,,,,30,0,1,,,,0,65,64
71748,note_off,,,,,6,0,1,,,,0,69,64
71754,note_off,,,,,6,0,1,,,,0,77,64
71788,note_on,,,,,34,0,1,,,,0,69,103
71792,note_on,,,,,0,0,1,,,,0,65,99
71792,note_on,,,,,4,0,1,,,,0,77,84
71864,note_on,,,,,72,0,1,,,,0,50,77
71866,note_on,,,,,2,0,1,,,,0,45,79
71868,note_on,,,,,2,0,1,,,,0,41,76
71868,note_on,,,,,0,0,1,,,,0,38,75
71888,note_off,,,,,20,0,1,,,,0,65,64
71900,note_off,,,,,0,0,1,,,,0,50,64
71900,note_off,,,,,12,0,1,,,,0,38,64
71900,note_off,,,,,0,0,1,,,,0,45,64
71904,note_off,,,,,4,0,1,,,,0,41,64
71912,note_off,,,,,8,0,1,,,,0,77,64
71920,note_off,,,,,8,0,1,,,,0,69,64
71950,note_on,,,,,30,0,1,,,,0,50,95
71950,note_on,,,,,0,0,1,,,,0,45,95
71952,note_on,,,,,2,0,1,,,,0,41,96
71960,note_on,,,,,8,0,1,,,,0,38,68
72016,control_change,,,,,56,0,1,,64,0,0,,
72030,control_change,,,,,14,0,1,,64,127,0,,
72032,note_on,,,,,2,0,1,,,,0,66,93
72034,note_on,,,,,2,0,1,,,,0,69,91
72036,note_on,,,,,2,0,1,,,,0,78,81
72040,note_on,,,,,4,0,1,,,,0,74,81
72050,note_off,,,,,10,0,1,,,,0,38,64
72054,note_off,,,,,4,0,1,,,,0,41,64
72056,note_off,,,,,0,0,1,,,,0,50,64
72056,note_off,,,,,2,0,1,,,,0,45,64
72062,note_off,,,,,6,0,1,,,,0,66,64
72074,note_off,,,,,12,0,1,,,,0,69,64
72076,note_off,,,,,2,0,1,,,,0,78,64
72084,note_off,,,,,8,0,1,,,,0,74,64
72114,note_on,,,,,30,0,1,,,,0,69,89
72114,note_on,,,,,0,0,1,,,,0,66,95
72116,note_on,,,,,2,0,1,,,,0,78,77
72116,note_on,,,,,0,0,1,,,,0,74,74
72152,note_off,,,,,36,0,1,,,,0,66,64
72160,note_off,,,,,8,0,1,,,,0,69,64
72174,note_off,,,,,14,0,1,,,,0,74,64
72176,note_off,,,,,2,0,1,,,,0,78,64
72184,note_on,,,,,8,0,1,,,,0,62,83
72186,note_on,,,,,2,0,1,,,,0,53,83
72188,note_on,,,,,2,0,1,,,,0,57,86
72212,note_off,,,,,24,0,1,,,,0,53,64
72220,note_off,,,,,8,0,1,,,,0,62,64
72222,note_off,,,,,2,0,1,,,,0,57,64
72276,note_on,,,,,0,0,1,,,,0,53,95
72276,note_on,,,,,54,0,1,,,,0,57,98
72280,note_on,,,,,4,0,1,,,,0,62,88
72316,note_off,,,,,36,0,1,,,,0,62,64
72320,note_off,,,,,4,0,1,,,,0,57,64
72326,note_off,,,,,6,0,1,,,,0,53,64
72348,note_on,,,,,0,0,1,,,,0,67,85
72348,note_on,,,,,22,0,1,,,,0,79,84
72348,note_on,,,,,0,0,1,,,,0,74,87
72384,note_off,,,,,36,0,1,,,,0,67,64
72392,note_off,,,,,8,0,1,,,,0,74,64
72392,note_off,,,,,0,0,1,,,,0,79,64
72432,note_on,,,,,0,0,1,,,,0,67,96
72432,note_on,,,,,0,0,1,,,,0,74,93
72432,note_on,,,,,40,0,1,,,,0,79,92
72504,note_off,,,,,72,0,1,,,,0,67,64
72508,note_off,,,,,4,0,1,,,,0,79,64
72516,note_on,,,,,8,0,1,,,,0,45,91
72520,note_on,,,,,4,0,1,,,,0,50,90
72522,note_on,,,,,2,0,1,,,,0,38,59
72526,note_on,,,,,4,0,1,,,,0,41,72
72530,note_off,,,,,4,0,1,,,,0,74,64
72552,note_off,,,,,22,0,1,,,,0,38,64
72554,note_off,,,,,2,0,1,,,,0,50,64
72560,note_off,,,,,6,0,1,,,,0,45,64
72562,note_off,,,,,2,0,1,,,,0,41,64
72606,note_on,,,,,44,0,1,,,,0,45,100
72608,note_on,,,,,2,0,1,,,,0,50,99
72608,note_on,,,,,0,0,1,,,,0,41,97
72612,note_on,,,,,4,0,1,,,,0,38,82
72660,control_change,,,,,48,0,1,,64,0,0,,
72672,note_off,,,,,12,0,1,,,,0,38,64
72680,note_on,,,,,8,0,1,,,,0,80,89
72680,note_on,,,,,0,0,1,,,,0,68,92
72682,note_on,,,,,2,0,1,,,,0,74,84
72688,note_off,,,,,0,0,1,,,,0,45,64
72688,note_off,,,,,6,0,1,,,,0,41,64
72688,control_change,,,,,0,0,1,,64,127,0,,
72704,note_off,,,,,16,0,1,,,,0,50,64
72722,note_off,,,,,18,0,1,,,,0,68,64
72736,note_off,,,,,14,0,1,,,,0,80,64
72742,note_off,,,,,6,0,1,,,,0,74,64
72770,note_on,,,,,28,0,1,,,,0,80,89
72772,note_on,,,,,2,0,1,,,,0,68,102
72776,note_on,,,,,4,0,1,,,,0,74,93
72844,note_off,,,,,68,0,1,,,,0,68,64
72860,note_on,,,,,0,0,1,,,,0,53,95
72860,note_on,,,,,16,0,1,,,,0,62,91
72862,note_on,,,,,2,0,1,,,,0,57,93
72866,note_off,,,,,4,0,1,,,,0,80,64
72888,note_off,,,,,22,0,1,,,,0,74,64
72896,note_off,,,,,8,0,1,,,,0,53,64
72898,note_off,,,,,2,0,1,,,,0,62,64
72912,note_off,,,,,14,0,1,,,,0,57,64
72950,note_on,,,,,0,0,1,,,,0,57,92
72950,note_on,,,,,38,0,1,,,,0,62,92
72952,note_on,,,,,2,0,1,,,,0,53,91
72988,note_off,,,,,36,0,1,,,,0,62,64
73002,note_off,,,,,14,0,1,,,,0,57,64
73006,note_off,,,,,4,0,1,,,,0,53,64
73030,note_on,,,,,24,0,1,,,,0,74,87
73030,note_on,,,,,0,0,1,,,,0,69,96
73032,note_on,,,,,2,0,1,,,,0,81,81
73032,note_on,,,,,0,0,1,,,,0,77,86
73066,note_off,,,,,34,0,1,,,,0,69,64
73080,note_off,,,,,14,0,1,,,,0,81,64
73082,note_off,,,,,2,0,1,,,,0,74,64
73088,note_off,,,,,6,0,1,,,,0,77,64
73128,note_on,,,,,40,0,1,,,,0,77,88
73128,note_on,,,,,0,0,1,,,,0,74,88
73130,note_on,,,,,2,0,1,,,,0,81,88
73134,note_on,,,,,4,0,1,,,,0,69,96
73178,note_off,,,,,44,0,1,,,,0,69,64
73200,note_off,,,,,22,0,1,,,,0,74,64
73206,note_off,,,,,6,0,1,,,,0,77,64
73216,note_on,,,,,0,0,1,,,,0,45,96
73216,note_on,,,,,10,0,1,,,,0,50,93
73220,note_off,,,,,4,0,1,,,,0,81,64
73222,note_on,,,,,2,0,1,,,,0,41,90
73222,note_on,,,,,0,0,1,,,,0,38,77
73254,note_off,,,,,32,0,1,,,,0,38,64
73260,note_off,,,,,6,0,1,,,,0,50,64
73268,note_off,,,,,8,0,1,,,,0,45,64
73272,note_off,,,,,4,0,1,,,,0,41,64
73326,note_on,,,,,54,0,1,,,,0,50,110
73326,note_on,,,,,0,0,1,,,,0,45,107
73328,note_on,,,,,0,0,1,,,,0,38,88
73328,note_on,,,,,2,0,1,,,,0,41,96
73338,control_change,,,,,10,0,1,,64,0,0,,
73356,control_change,,,,,18,0,1,,64,127,0,,
73408,note_off,,,,,52,0,1,,,,0,38,64
73416,note_off,,,,,8,0,1,,,,0,45,64
73422,note_off,,,,,6,0,1,,,,0,41,64
73424,note_on,,,,,2,0,1,,,,0,86,93
73424,note_on,,,,,0,0,1,,,,0,74,97
73424,note_on,,,,,0,0,1,,,,0,81,91
73426,note_on,,,,,2,0,1,,,,0,77,96
73438,note_off,,,,,12,0,1,,,,0,50,64
73478,note_off,,,,,40,0,1,,,,0,74,64
73480,note_off,,,,,2,0,1,,,,0,86,64
73484,note_off,,,,,4,0,1,,,,0,77,64
73488,note_off,,,,,4,0,1,,,,0,81,64
73536,note_on,,,,,48,0,1,,,,0,81,102
73540,note_on,,,,,0,0,1,,,,0,74,105
73540,note_on,,,,,4,0,1,,,,0,86,103
73542,note_on,,,,,2,0,1,,,,0,77,102
73642,note_on,,,,,100,0,1,,,,0,65,91
73642,note_on,,,,,0,0,1,,,,0,57,92
73644,note_on,,,,,2,0,1,,,,0,62,87
73680,note_off,,,,,36,0,1,,,,0,86,64
73690,note_off,,,,,10,0,1,,,,0,65,64
73692,note_off,,,,,2,0,1,,,,0,57,64
73700,note_off,,,,,8,0,1,,,,0,81,64
73702,note_off,,,,,2,0,1,,,,0,62,64
73702,note_off,,,,,0,0,1,,,,0,74,64
73708,note_off,,,,,6,0,1,,,,0,77,64
73748,note_on,,,,,40,0,1,,,,0,62,97
73750,note_on,,,,,2,0,1,,,,0,65,95
73752,note_on,,,,,2,0,1,,,,0,57,95
73800,note_off,,,,,48,0,1,,,,0,65,64
73808,note_off,,,,,8,0,1,,,,0,62,64
73824,note_off,,,,,16,0,1,,,,0,57,64
73846,note_on,,,,,22,0,1,,,,0,72,100
73848,note_on,,,,,2,0,1,,,,0,84,90
73888,note_off,,,,,40,0,1,,,,0,72,64
73894,note_off,,,,,6,0,1,,,,0,84,64
73952,note_on,,,,,58,0,1,,,,0,79,100
73952,note_on,,,,,0,0,1,,,,0,76,95
73954,note_on,,,,,2,0,1,,,,0,84,93
73954,note_on,,,,,0,0,1,,,,0,72,98
74052,note_on,,,,,98,0,1,,,,0,46,90
74054,note_on,,,,,2,0,1,,,,0,38,80
74056,note_on,,,,,0,0,1,,,,0,43,82
74056,note_on,,,,,2,0,1,,,,0,52,87
74112,note_off,,,,,56,0,1,,,,0,52,64
74112,note_off,,,,,0,0,1,,,,0,38,64
74124,note_off,,,,,0,0,1,,,,0,46,64
74124,note_off,,,,,12,0,1,,,,0,43,64
74168,note_on,,,,,44,0,1,,,,0,38,80
74170,note_on,,,,,0,0,1,,,,0,43,83
74170,note_on,,,,,2,0,1,,,,0,52,98
74172,note_on,,,,,2,0,1,,,,0,46,94
74204,control_change,,,,,32,0,1,,64,0,0,,
74212,note_off,,,,,8,0,1,,,,0,84,64
74228,control_change,,,,,16,0,1,,64,127,0,,
74236,note_off,,,,,8,0,1,,,,0,72,64
74244,note_off,,,,,8,0,1,,,,0,76,64
74244,note_off,,,,,0,0,1,,,,0,79,64
74270,note_off,,,,,26,0,1,,,,0,38,64
74284,note_off,,,,,14,0,1,,,,0,43,64
74290,note_on,,,,,0,0,1,,,,0,79,87
74290,note_on,,,,,6,0,1,,,,0,83,83
74292,note_on,,,,,0,0,1,,,,0,71,96
74292,note_on,,,,,2,0,1,,,,0,76,83
74296,note_off,,,,,4,0,1,,,,0,46,64
74300,note_off,,,,,4,0,1,,,,0,52,64
74334,note_off,,,,,34,0,1,,,,0,71,64
74344,note_off,,,,,10,0,1,,,,0,76,64
74344,note_off,,,,,0,0,1,,,,0,83,64
74348,note_off,,,,,4,0,1,,,,0,79,64
74398,note_on,,,,,50,0,1,,,,0,79,95
74402,note_on,,,,,0,0,1,,,,0,71,96
74402,note_on,,,,,4,0,1,,,,0,76,87
74404,note_on,,,,,2,0,1,,,,0,83,87
74476,note_off,,,,,72,0,1,,,,0,71,64
74484,note_off,,,,,8,0,1,,,,0,83,64
74484,note_on,,,,,0,0,1,,,,0,58,89
74488,note_on,,,,,0,0,1,,,,0,64,86
74488,note_on,,,,,4,0,1,,,,0,67,75
74498,note_off,,,,,10,0,1,,,,0,76,64
74508,note_off,,,,,10,0,1,,,,0,79,64
74526,note_off,,,,,18,0,1,,,,0,67,64
74534,note_off,,,,,8,0,1,,,,0,58,64
74540,note_off,,,,,6,0,1,,,,0,64,64
74576,note_on,,,,,0,0,1,,,,0,58,89
74576,note_on,,,,,36,0,1,,,,0,64,82
74582,note_on,,,,,6,0,1,,,,0,67,86
74608,note_off,,,,,26,0,1,,,,0,67,64
74618,note_off,,,,,10,0,1,,,,0,58,64
74620,note_off,,,,,2,0,1,,,,0,64,64
74656,note_on,,,,,36,0,1,,,,0,70,88
74658,note_on,,,,,2,0,1,,,,0,82,89
74660,note_on,,,,,2,0,1,,,,0,76,83
74662,note_on,,,,,2,0,1,,,,0,79,86
74692,note_off,,,,,30,0,1,,,,0,70,64
74700,note_off,,,,,8,0,1,,,,0,82,64
74704,note_off,,,,,4,0,1,,,,0,76,64
74708,note_off,,,,,4,0,1,,,,0,79,64
74744,note_on,,,,,36,0,1,,,,0,79,84
74746,note_on,,,,,2,0,1,,,,0,82,86
74746,note_on,,,,,0,0,1,,,,0,70,96
74748,note_on,,,,,2,0,1,,,,0,76,82
74814,note_off,,,,,66,0,1,,,,0,82,64
74816,note_on,,,,,2,0,1,,,,0,52,87
74818,note_on,,,,,2,0,1,,,,0,43,82
74820,note_on,,,,,2,0,1,,,,0,46,84
74820,note_on,,,,,0,0,1,,,,0,38,79
74828,note_off,,,,,8,0,1,,,,0,76,64
74832,note_off,,,,,4,0,1,,,,0,79,64
74854,note_off,,,,,22,0,1,,,,0,52,64
74854,note_off,,,,,0,0,1,,,,0,70,64
74858,note_off,,,,,4,0,1,,,,0,38,64
74864,note_off,,,,,6,0,1,,,,0,46,64
74866,note_off,,,,,2,0,1,,,,0,43,64
74898,note_on,,,,,32,0,1,,,,0,43,81
74900,note_on,,,,,2,0,1,,,,0,46,85
74902,note_on,,,,,2,0,1,,,,0,52,92
74904,note_on,,,,,2,0,1,,,,0,38,87
74950,note_off,,,,,46,0,1,,,,0,38,64
74954,note_off,,,,,4,0,1,,,,0,43,64
74966,note_off,,,,,12,0,1,,,,0,46,64
74972,note_off,,,,,6,0,1,,,,0,52,64
74976,note_on,,,,,4,0,1,,,,0,81,87
74978,note_on,,,,,2,0,1,,,,0,69,74
74980,note_on,,,,,2,0,1,,,,0,76,71
74994,note_off,,,,,14,0,1,,,,0,76,64
75012,note_off,,,,,18,0,1,,,,0,69,64
75018,note_off,,,,,6,0,1,,,,0,81,64
75064,note_on,,,,,0,0,1,,,,0,76,95
75064,note_on,,,,,46,0,1,,,,0,81,82
75066,note_on,,,,,2,0,1,,,,0,69,95
75128,note_off,,,,,62,0,1,,,,0,69,64
75140,note_on,,,,,12,0,1,,,,0,58,87
75142,note_on,,,,,2,0,1,,,,0,67,80
75144,note_on,,,,,2,0,1,,,,0,64,87
75152,note_off,,,,,8,0,1,,,,0,76,64
75158,note_off,,,,,6,0,1,,,,0,81,64
75180,note_off,,,,,22,0,1,,,,0,67,64
75184,note_off,,,,,4,0,1,,,,0,58,64
75190,note_off,,,,,6,0,1,,,,0,64,64
75222,note_on,,,,,32,0,1,,,,0,58,85
75224,note_on,,,,,0,0,1,,,,0,64,89
75224,note_on,,,,,2,0,1,,,,0,67,82
75252,note_off,,,,,28,0,1,,,,0,67,64
75262,note_off,,,,,10,0,1,,,,0,64,64
75272,note_off,,,,,10,0,1,,,,0,58,64
75296,note_on,,,,,24,0,1,,,,0,80,86
75296,note_on,,,,,0,0,1,,,,0,76,87
75296,note_on,,,,,0,0,1,,,,0,68,97
75328,note_off,,,,,32,0,1,,,,0,68,64
75336,note_off,,,,,8,0,1,,,,0,76,64
75342,note_off,,,,,6,0,1,,,,0,80,64
75376,note_on,,,,,34,0,1,,,,0,80,87
75376,note_on,,,,,0,0,1,,,,0,76,89
75378,note_on,,,,,2,0,1,,,,0,68,100
75448,note_off,,,,,70,0,1,,,,0,76,64
75452,note_off,,,,,4,0,1,,,,0,80,64
75452,note_on,,,,,0,0,1,,,,0,46,84
75454,note_on,,,,,2,0,1,,,,0,52,88
75458,note_on,,,,,4,0,1,,,,0,38,71
75460,note_on,,,,,2,0,1,,,,0,43,68
75464,note_off,,,,,4,0,1,,,,0,68,64
75492,note_off,,,,,28,0,1,,,,0,52,64
75496,note_off,,,,,4,0,1,,,,0,38,64
75504,note_off,,,,,8,0,1,,,,0,46,64
75506,note_off,,,,,2,0,1,,,,0,43,64
75538,note_on,,,,,32,0,1,,,,0,46,92
75538,note_on,,,,,0,0,1,,,,0,43,84
75540,note_on,,,,,2,0,1,,,,0,52,98
75542,note_on,,,,,2,0,1,,,,0,38,87
75584,note_off,,,,,42,0,1,,,,0,38,64
75588,note_off,,,,,4,0,1,,,,0,43,64
75600,set_tempo,,,,,7904,1,0,379747,,,,,
75604,set_tempo,,,,,4,1,0,375000,,,,,
75604,note_off,,,,,16,0,1,,,,0,46,64
75606,note_off,,,,,2,0,1,,,,0,52,64
75608,set_tempo,,,,,4,1,0,370370,,,,,
75612,set_tempo,,,,,4,1,0,363636,,,,,
75620,note_on,,,,,14,0,1,,,,0,70,87
75622,note_on,,,,,2,0,1,,,,0,76,81
75622,note_on,,,,,0,0,1,,,,0,67,81
75624,note_on,,,,,2,0,1,,,,0,79,81
75648,note_off,,,,,24,0,1,,,,0,67,64
75654,note_off,,,,,6,0,1,,,,0,79,64
75658,note_off,,,,,4,0,1,,,,0,70,64
75664,note_off,,,,,6,0,1,,,,0,76,64
75698,note_on,,,,,34,0,1,,,,0,70,97
75700,note_on,,,,,0,0,1,,,,0,67,93
75700,note_on,,,,,2,0,1,,,,0,76,83
75702,note_on,,,,,2,0,1,,,,0,79,89
75744,note_off,,,,,42,0,1,,,,0,67,64
75754,note_off,,,,,10,0,1,,,,0,79,64
75770,note_on,,,,,0,0,1,,,,0,55,79
75770,note_on,,,,,16,0,1,,,,0,64,92
75772,note_on,,,,,2,0,1,,,,0,58,88
75780,note_off,,,,,8,0,1,,,,0,70,64
75788,note_off,,,,,8,0,1,,,,0,76,64
75806,note_off,,,,,18,0,1,,,,0,64,64
75810,note_off,,,,,4,0,1,,,,0,55,64
75814,note_off,,,,,4,0,1,,,,0,58,64
75852,note_on,,,,,38,0,1,,,,0,58,81
75856,note_on,,,,,4,0,1,,,,0,64,92
75856,note_on,,,,,0,0,1,,,,0,55,86
75890,note_off,,,,,34,0,1,,,,0,64,64
75900,note_off,,,,,10,0,1,,,,0,55,64
75900,note_off,,,,,0,0,1,,,,0,58,64
75930,note_on,,,,,30,0,1,,,,0,78,96
75932,note_on,,,,,2,0,1,,,,0,70,93
75932,note_on,,,,,0,0,1,,,,0,66,98
75964,note_off,,,,,32,0,1,,,,0,66,64
75972,note_off,,,,,8,0,1,,,,0,70,64
75976,note_off,,,,,4,0,1,,,,0,78,64
76012,note_on,,,,,36,0,1,,,,0,78,82
76012,note_on,,,,,0,0,1,,,,0,66,94
76014,note_on,,,,,2,0,1,,,,0,70,88
76082,note_on,,,,,0,0,1,,,,0,38,80
76082,note_on,,,,,68,0,1,,,,0,52,81
76088,note_on,,,,,6,0,1,,,,0,46,88
76088,note_on,,,,,0,0,1,,,,0,43,78
76120,note_off,,,,,32,0,1,,,,0,52,64
76124,note_off,,,,,4,0,1,,,,0,38,64
76128,note_off,,,,,4,0,1,,,,0,43,64
76130,note_off,,,,,2,0,1,,,,0,46,64
76134,note_off,,,,,4,0,1,,,,0,66,64
76142,note_off,,,,,8,0,1,,,,0,70,64
76164,note_off,,,,,22,0,1,,,,0,78,64
76166,note_on,,,,,0,0,1,,,,0,43,87
76166,note_on,,,,,2,0,1,,,,0,46,91
76168,note_on,,,,,0,0,1,,,,0,38,85
76168,note_on,,,,,2,0,1,,,,0,52,98
76176,control_change,,,,,8,0,1,,64,0,0,,
76188,control_change,,,,,12,0,1,,64,127,0,,
76224,note_off,,,,,36,0,1,,,,0,38,64
76228,note_off,,,,,4,0,1,,,,0,43,64
76242,note_off,,,,,14,0,1,,,,0,46,64
76246,note_on,,,,,4,0,1,,,,0,77,92
76246,note_on,,,,,0,0,1,,,,0,70,92
76248,note_on,,,,,2,0,1,,,,0,65,90
76252,note_off,,,,,4,0,1,,,,0,52,64
76278,note_off,,,,,26,0,1,,,,0,65,64
76282,note_off,,,,,4,0,1,,,,0,70,64
76284,note_off,,,,,2,0,1,,,,0,77,64
76328,note_on,,,,,44,0,1,,,,0,65,98
76330,note_on,,,,,2,0,1,,,,0,70,101
76332,note_on,,,,,2,0,1,,,,0,77,93
76404,note_off,,,,,72,0,1,,,,0,77,64
76404,note_on,,,,,0,0,1,,,,0,58,92
76406,note_on,,,,,2,0,1,,,,0,55,82
76424,note_off,,,,,18,0,1,,,,0,70,64
76430,note_off,,,,,6,0,1,,,,0,65,64
76440,note_off,,,,,10,0,1,,,,0,55,64
76442,note_off,,,,,2,0,1,,,,0,58,64
76482,note_on,,,,,40,0,1,,,,0,58,84
76482,note_on,,,,,0,0,1,,,,0,55,88
76514,note_off,,,,,32,0,1,,,,0,58,64
76520,note_off,,,,,6,0,1,,,,0,55,64
76550,note_on,,,,,0,0,1,,,,0,64,97
76550,note_on,,,,,30,0,1,,,,0,70,94
76552,note_on,,,,,2,0,1,,,,0,76,85
76576,note_off,,,,,24,0,1,,,,0,64,64
76584,note_off,,,,,8,0,1,,,,0,76,64
76586,note_off,,,,,2,0,1,,,,0,70,64
76632,note_on,,,,,46,0,1,,,,0,76,89
76632,note_on,,,,,0,0,1,,,,0,64,97
76632,note_on,,,,,0,0,1,,,,0,70,96
76694,note_on,,,,,62,0,1,,,,0,43,79
76694,note_on,,,,,0,0,1,,,,0,38,82
76696,note_on,,,,,2,0,1,,,,0,52,86
76696,note_on,,,,,0,0,1,,,,0,46,80
76712,note_off,,,,,16,0,1,,,,0,76,64
76720,note_off,,,,,8,0,1,,,,0,64,64
76728,note_off,,,,,8,0,1,,,,0,52,64
76734,note_off,,,,,6,0,1,,,,0,38,64
76736,note_off,,,,,2,0,1,,,,0,46,64
76738,note_off,,,,,2,0,1,,,,0,43,64
76768,note_off,,,,,30,0,1,,,,0,70,64
76776,note_on,,,,,8,0,1,,,,0,46,95
76776,control_change,,,,,0,0,1,,64,0,0,,
76778,note_on,,,,,0,0,1,,,,0,38,87
76778,note_on,,,,,2,0,1,,,,0,52,98
76782,note_on,,,,,4,0,1,,,,0,43,85
76786,control_change,,,,,4,0,1,,64,127,0,,
76820,note_off,,,,,34,0,1,,,,0,38,64
76820,note_off,,,,,0,0,1,,,,0,43,64
76834,note_off,,,,,14,0,1,,,,0,46,64
76836,note_off,,,,,2,0,1,,,,0,52,64
76848,note_on,,,,,12,0,1,,,,0,63,95
76848,note_on,,,,,0,0,1,,,,0,75,88
76850,note_on,,,,,2,0,1,,,,0,70,86
76876,note_off,,,,,26,0,1,,,,0,63,64
76884,note_off,,,,,8,0,1,,,,0,75,64
76886,note_off,,,,,2,0,1,,,,0,70,64
76926,note_on,,,,,40,0,1,,,,0,75,97
76926,note_on,,,,,0,0,1,,,,0,63,96
76928,note_on,,,,,2,0,1,,,,0,70,87
76980,note_off,,,,,52,0,1,,,,0,63,64
76984,note_on,,,,,4,0,1,,,,0,58,95
76988,note_on,,,,,4,0,1,,,,0,55,82
76992,note_off,,,,,4,0,1,,,,0,70,64
76992,note_off,,,,,0,0,1,,,,0,75,64
77022,note_off,,,,,30,0,1,,,,0,55,64
77026,note_off,,,,,4,0,1,,,,0,58,64
77064,note_on,,,,,0,0,1,,,,0,55,95
77064,note_on,,,,,38,0,1,,,,0,58,96
77102,note_off,,,,,38,0,1,,,,0,58,64
77106,note_off,,,,,4,0,1,,,,0,55,64
77136,note_on,,,,,30,0,1,,,,0,76,87
77136,note_on,,,,,0,0,1,,,,0,64,97
77138,note_on,,,,,2,0,1,,,,0,70,92
77166,note_off,,,,,28,0,1,,,,0,64,64
77174,note_off,,,,,8,0,1,,,,0,70,64
77176,note_off,,,,,2,0,1,,,,0,76,64
77218,note_on,,,,,42,0,1,,,,0,70,94
77218,note_on,,,,,0,0,1,,,,0,76,86
77220,note_on,,,,,2,0,1,,,,0,64,97
77286,note_on,,,,,66,0,1,,,,0,38,80
77286,note_on,,,,,0,0,1,,,,0,52,92
77288,note_on,,,,,2,0,1,,,,0,46,88
77288,note_on,,,,,0,0,1,,,,0,43,82
77304,note_off,,,,,16,0,1,,,,0,64,64
77316,note_off,,,,,12,0,1,,,,0,76,64
77322,note_off,,,,,6,0,1,,,,0,52,64
77322,note_off,,,,,0,0,1,,,,0,38,64
77330,note_off,,,,,8,0,1,,,,0,46,64
77332,note_off,,,,,2,0,1,,,,0,43,64
77362,note_off,,,,,30,0,1,,,,0,70,64
77366,note_on,,,,,0,0,1,,,,0,46,90
77366,note_on,,,,,4,0,1,,,,0,43,90
77368,note_on,,,,,2,0,1,,,,0,52,103
77370,note_on,,,,,2,0,1,,,,0,38,89
77382,control_change,,,,,12,0,1,,64,0,0,,
77388,control_change,,,,,6,0,1,,64,127,0,,
77406,note_off,,,,,18,0,1,,,,0,38,64
77410,note_off,,,,,4,0,1,,,,0,43,64
77424,note_off,,,,,14,0,1,,,,0,46,64
77426,note_off,,,,,2,0,1,,,,0,52,64
77434,note_on,,,,,8,0,1,,,,0,65,96
77436,note_on,,,,,2,0,1,,,,0,70,90
77436,note_on,,,,,0,0,1,,,,0,77,82
77464,note_off,,,,,28,0,1,,,,0,65,64
77468,note_off,,,,,4,0,1,,,,0,70,64
77474,note_off,,,,,6,0,1,,,,0,77,64
77516,note_on,,,,,42,0,1,,,,0,70,103
77520,note_on,,,,,0,0,1,,,,0,77,87
77520,note_on,,,,,4,0,1,,,,0,65,96
77562,note_off,,,,,42,0,1,,,,0,65,64
77576,note_on,,,,,0,0,1,,,,0,58,89
77576,note_off,,,,,14,0,1,,,,0,77,64
77582,note_on,,,,,6,0,1,,,,0,55,83
77588,note_off,,,,,6,0,1,,,,0,70,64
77628,note_off,,,,,40,0,1,,,,0,58,64
77632,note_off,,,,,4,0,1,,,,0,55,64
77660,note_on,,,,,28,0,1,,,,0,58,84
77666,note_on,,,,,6,0,1,,,,0,55,76
77708,note_off,,,,,42,0,1,,,,0,58,64
77712,note_off,,,,,4,0,1,,,,0,55,64
77732,note_on,,,,,0,0,1,,,,0,70,96
77732,note_on,,,,,20,0,1,,,,0,78,92
77738,note_on,,,,,6,0,1,,,,0,66,94
77766,note_off,,,,,28,0,1,,,,0,66,64
77774,note_off,,,,,8,0,1,,,,0,70,64
77776,note_off,,,,,2,0,1,,,,0,78,64
77818,note_on,,,,,42,0,1,,,,0,66,100
77818,note_on,,,,,0,0,1,,,,0,78,97
77820,note_on,,,,,2,0,1,,,,0,70,96
77894,note_off,,,,,74,0,1,,,,0,70,64
77898,note_on,,,,,4,0,1,,,,0,52,96
77900,note_on,,,,,2,0,1,,,,0,38,83
77900,note_on,,,,,0,0,1,,,,0,46,90
77902,note_on,,,,,2,0,1,,,,0,43,87
77906,note_off,,,,,4,0,1,,,,0,78,64
77912,note_off,,,,,6,0,1,,,,0,66,64
77940,note_off,,,,,28,0,1,,,,0,38,64
77944,note_off,,,,,4,0,1,,,,0,52,64
77950,note_off,,,,,6,0,1,,,,0,43,64
77952,note_off,,,,,2,0,1,,,,0,46,64
77980,note_on,,,,,28,0,1,,,,0,46,89
77982,note_on,,,,,2,0,1,,,,0,43,79
77984,note_on,,,,,2,0,1,,,,0,52,85
77984,note_on,,,,,0,0,1,,,,0,38,87
78022,note_off,,,,,38,0,1,,,,0,38,64
78026,note_off,,,,,4,0,1,,,,0,43,64
78038,note_off,,,,,12,0,1,,,,0,46,64
78040,note_off,,,,,2,0,1,,,,0,52,64
78048,note_on,,,,,8,0,1,,,,0,70,92
78052,note_on,,,,,0,0,1,,,,0,76,78
78052,note_on,,,,,0,0,1,,,,0,79,79
78052,note_on,,,,,4,0,1,,,,0,67,88
78084,note_off,,,,,32,0,1,,,,0,67,64
78090,note_off,,,,,6,0,1,,,,0,79,64
78096,note_off,,,,,6,0,1,,,,0,70,64
78100,note_off,,,,,4,0,1,,,,0,76,64
78136,note_on,,,,,36,0,1,,,,0,70,95
78138,note_on,,,,,2,0,1,,,,0,76,90
78138,note_on,,,,,0,0,1,,,,0,67,97
78140,note_on,,,,,2,0,1,,,,0,79,89
78196,note_off,,,,,56,0,1,,,,0,67,64
78202,note_on,,,,,0,0,1,,,,0,58,89
78202,note_on,,,,,6,0,1,,,,0,64,92
78204,note_on,,,,,2,0,1,,,,0,55,82
78206,note_off,,,,,2,0,1,,,,0,79,64
78226,note_off,,,,,20,0,1,,,,0,70,64
78238,note_off,,,,,12,0,1,,,,0,64,64
78240,note_off,,,,,2,0,1,,,,0,55,64
78242,note_off,,,,,2,0,1,,,,0,76,64
78248,note_off,,,,,6,0,1,,,,0,58,64
78286,note_on,,,,,38,0,1,,,,0,58,89
78288,note_on,,,,,0,0,1,,,,0,55,91
78288,note_on,,,,,2,0,1,,,,0,64,99
78320,note_off,,,,,32,0,1,,,,0,64,64
78332,note_off,,,,,12,0,1,,,,0,55,64
78332,note_off,,,,,0,0,1,,,,0,58,64
78364,note_on,,,,,32,0,1,,,,0,76,89
78366,note_on,,,,,2,0,1,,,,0,68,101
78368,note_on,,,,,2,0,1,,,,0,80,85
78396,note_off,,,,,28,0,1,,,,0,68,64
78406,note_off,,,,,10,0,1,,,,0,80,64
78414,note_off,,,,,8,0,1,,,,0,76,64
78448,note_on,,,,,34,0,1,,,,0,76,85
78450,note_on,,,,,2,0,1,,,,0,68,103
78452,note_on,,,,,2,0,1,,,,0,80,83
78504,note_off,,,,,52,0,1,,,,0,68,64
78520,note_off,,,,,16,0,1,,,,0,76,64
78520,note_on,,,,,0,0,1,,,,0,52,85
78522,note_off,,,,,2,0,1,,,,0,80,64
78522,note_on,,,,,0,0,1,,,,0,38,76
78524,note_on,,,,,0,0,1,,,,0,46,86
78524,note_on,,,,,2,0,1,,,,0,43,79
78564,note_off,,,,,40,0,1,,,,0,38,64
78564,note_off,,,,,0,0,1,,,,0,52,64
78572,note_off,,,,,8,0,1,,,,0,46,64
78572,note_off,,,,,0,0,1,,,,0,43,64
78614,note_on,,,,,42,0,1,,,,0,43,90
78614,note_on,,,,,0,0,1,,,,0,52,93
78616,note_on,,,,,0,0,1,,,,0,46,85
78616,note_on,,,,,2,0,1,,,,0,38,87
78676,set_tempo,,,,,3064,1,0,361446,,,,,
78676,note_off,,,,,60,0,1,,,,0,38,64
78682,note_off,,,,,6,0,1,,,,0,43,64
78694,note_on,,,,,0,0,1,,,,0,69,95
78694,note_on,,,,,12,0,1,,,,0,81,84
78696,note_on,,,,,2,0,1,,,,0,79,83
78696,note_on,,,,,0,0,1,,,,0,76,79
78700,note_off,,,,,4,0,1,,,,0,46,64
78706,note_off,,,,,6,0,1,,,,0,52,64
78728,note_off,,,,,22,0,1,,,,0,69,64
78738,note_off,,,,,10,0,1,,,,0,76,64
78744,note_off,,,,,6,0,1,,,,0,79,64
78746,note_off,,,,,2,0,1,,,,0,81,64
78752,set_tempo,,,,,76,1,0,359281,,,,,
78788,note_on,,,,,42,0,1,,,,0,79,87
78788,note_on,,,,,0,0,1,,,,0,81,85
78790,note_on,,,,,2,0,1,,,,0,69,99
78792,note_on,,,,,2,0,1,,,,0,76,69
78828,set_tempo,,,,,76,1,0,357143,,,,,
78856,note_off,,,,,64,0,1,,,,0,69,64
78872,note_on,,,,,16,0,1,,,,0,58,94
78876,note_on,,,,,0,0,1,,,,0,64,90
78876,note_on,,,,,4,0,1,,,,0,67,86
78888,note_off,,,,,12,0,1,,,,0,79,64
78904,note_off,,,,,16,0,1,,,,0,76,64
78904,set_tempo,,,,,76,1,0,355030,,,,,
78918,note_off,,,,,14,0,1,,,,0,67,64
78920,note_off,,,,,2,0,1,,,,0,58,64
78930,note_off,,,,,10,0,1,,,,0,81,64
78932,note_off,,,,,2,0,1,,,,0,64,64
78966,note_on,,,,,34,0,1,,,,0,64,87
78970,note_on,,,,,4,0,1,,,,0,67,87
78972,note_on,,,,,2,0,1,,,,0,58,93
78980,set_tempo,,,,,76,1,0,352941,,,,,
79004,note_off,,,,,32,0,1,,,,0,67,64
79016,note_off,,,,,12,0,1,,,,0,64,64
79032,note_off,,,,,16,0,1,,,,0,58,64
79052,note_on,,,,,20,0,1,,,,0,79,87
79054,note_on,,,,,2,0,1,,,,0,70,98
79056,set_tempo,,,,,76,1,0,350877,,,,,
79056,note_on,,,,,2,0,1,,,,0,76,82
79056,note_on,,,,,0,0,1,,,,0,82,86
79104,note_off,,,,,48,0,1,,,,0,70,64
79116,note_off,,,,,12,0,1,,,,0,82,64
79118,note_off,,,,,2,0,1,,,,0,76,64
79120,note_off,,,,,2,0,1,,,,0,79,64
79132,set_tempo,,,,,76,1,0,348837,,,,,
79164,note_on,,,,,0,0,1,,,,0,82,92
79164,note_on,,,,,44,0,1,,,,0,79,88
79166,note_on,,,,,0,0,1,,,,0,76,92
79166,note_on,,,,,2,0,1,,,,0,70,106
79208,set_tempo,,,,,76,1,0,346821,,,,,
79250,note_on,,,,,0,0,1,,,,0,37,96
79250,note_on,,,,,84,0,1,,,,0,49,102
79256,note_on,,,,,6,0,1,,,,0,45,91
79284,set_tempo,,,,,76,1,0,344828,,,,,
79324,note_off,,,,,68,0,1,,,,0,45,64
79324,note_off,,,,,0,0,1,,,,0,37,64
79330,note_off,,,,,6,0,1,,,,0,49,64
79360,set_tempo,,,,,76,1,0,342857,,,,,
79374,note_on,,,,,44,0,1,,,,0,37,95
79376,note_on,,,,,2,0,1,,,,0,45,93
79376,note_on,,,,,0,0,1,,,,0,49,99
79408,note_off,,,,,32,0,1,,,,0,76,64
79410,note_off,,,,,2,0,1,,,,0,82,64
79412,note_off,,,,,2,0,1,,,,0,79,64
79414,control_change,,,,,2,0,1,,64,0,0,,
79424,note_off,,,,,10,0,1,,,,0,70,64
79436,set_tempo,,,,,76,1,0,340909,,,,,
79452,control_change,,,,,28,0,1,,64,127,0,,
79492,note_off,,,,,40,0,1,,,,0,37,64
79496,note_off,,,,,4,0,1,,,,0,45,64
79496,note_on,,,,,0,0,1,,,,0,81,86
79496,note_on,,,,,0,0,1,,,,0,69,93
79498,note_on,,,,,2,0,1,,,,0,79,84
79500,note_on,,,,,2,0,1,,,,0,76,77
79506,note_off,,,,,6,0,1,,,,0,49,64
79540,note_off,,,,,34,0,1,,,,0,69,64
79552,note_off,,,,,12,0,1,,,,0,76,64
79556,note_off,,,,,0,0,1,,,,0,81,64
79556,note_off,,,,,4,0,1,,,,0,79,64
79598,note_on,,,,,42,0,1,,,,0,81,87
79600,note_on,,,,,2,0,1,,,,0,79,81
79600,note_on,,,,,0,0,1,,,,0,69,102
79602,note_on,,,,,2,0,1,,,,0,76,87
79636,note_off,,,,,34,0,1,,,,0,69,64
79654,note_off,,,,,18,0,1,,,,0,76,64
79670,note_off,,,,,16,0,1,,,,0,79,64
79672,note_off,,,,,2,0,1,,,,0,81,64
79696,note_on,,,,,24,0,1,,,,0,67,82
79696,note_on,,,,,0,0,1,,,,0,57,85
79698,note_on,,,,,2,0,1,,,,0,64,86
79738,note_off,,,,,40,0,1,,,,0,67,64
79740,set_tempo,,,,,304,1,0,342857,,,,,
79740,note_off,,,,,2,0,1,,,,0,57,64
79752,note_off,,,,,12,0,1,,,,0,64,64
79764,set_tempo,,,,,24,1,0,344828,,,,,
79784,note_on,,,,,32,0,1,,,,0,64,91
79788,note_on,,,,,4,0,1,,,,0,67,87
79788,set_tempo,,,,,24,1,0,346821,,,,,
79788,note_on,,,,,0,0,1,,,,0,57,89
79808,set_tempo,,,,,20,1,0,348837,,,,,
79814,note_off,,,,,26,0,1,,,,0,67,64
79828,note_off,,,,,14,0,1,,,,0,64,64
79832,set_tempo,,,,,24,1,0,350877,,,,,
79842,note_off,,,,,14,0,1,,,,0,57,64
79856,set_tempo,,,,,24,1,0,352941,,,,,
79862,note_on,,,,,20,0,1,,,,0,82,91
79864,note_on,,,,,0,0,1,,,,0,88,86
79864,note_on,,,,,2,0,1,,,,0,91,89
79866,note_on,,,,,2,0,1,,,,0,94,96
79880,set_tempo,,,,,24,1,0,355030,,,,,
79900,set_tempo,,,,,20,1,0,357143,,,,,
79902,note_off,,,,,36,0,1,,,,0,82,64
79914,note_off,,,,,12,0,1,,,,0,88,64
79918,note_off,,,,,4,0,1,,,,0,94,64
79918,note_off,,,,,0,0,1,,,,0,91,64
79924,set_tempo,,,,,24,1,0,359281,,,,,
79948,set_tempo,,,,,24,1,0,361446,,,,,
79952,note_on,,,,,0,0,1,,,,0,82,97
79952,note_on,,,,,34,0,1,,,,0,94,86
79954,note_on,,,,,2,0,1,,,,0,91,77
79956,note_on,,,,,2,0,1,,,,0,88,75
79968,set_tempo,,,,,20,1,0,363636,,,,,
80030,note_on,,,,,74,0,1,,,,0,37,82
80034,note_off,,,,,4,0,1,,,,0,82,64
80036,note_on,,,,,2,0,1,,,,0,49,92
80048,note_on,,,,,12,0,1,,,,0,45,87
80050,note_off,,,,,2,0,1,,,,0,94,64
80054,note_on,,,,,4,0,1,,,,0,82,20
80078,note_off,,,,,24,0,1,,,,0,49,64
80084,note_off,,,,,6,0,1,,,,0,37,64
80088,note_off,,,,,4,0,1,,,,0,45,64
80090,note_off,,,,,2,0,1,,,,0,91,64
80092,note_off,,,,,2,0,1,,,,0,88,64
80102,note_off,,,,,10,0,1,,,,0,82,64
80120,note_on,,,,,18,0,1,,,,0,45,96
80124,note_on,,,,,4,0,1,,,,0,49,101
80126,note_on,,,,,2,0,1,,,,0,37,92
80154,control_change,,,,,28,0,1,,64,0,0,,
80158,control_change,,,,,4,0,1,,64,127,0,,
80178,note_off,,,,,20,0,1,,,,0,37,64
80184,note_off,,,,,6,0,1,,,,0,45,64
80194,note_off,,,,,10,0,1,,,,0,49,64
80208,note_on,,,,,0,0,1,,,,0,81,93
80208,note_on,,,,,14,0,1,,,,0,91,87
80210,note_on,,,,,0,0,1,,,,0,88,82
80210,note_on,,,,,2,0,1,,,,0,93,87
80244,note_off,,,,,34,0,1,,,,0,81,64
80254,note_off,,,,,0,0,1,,,,0,93,64
80254,note_off,,,,,10,0,1,,,,0,88,64
80258,note_off,,,,,4,0,1,,,,0,91,64
80302,note_on,,,,,44,0,1,,,,0,91,85
80302,note_on,,,,,0,0,1,,,,0,81,97
80304,note_on,,,,,2,0,1,,,,0,93,90
80304,note_on,,,,,0,0,1,,,,0,88,84
80354,note_off,,,,,50,0,1,,,,0,93,64
80362,note_off,,,,,8,0,1,,,,0,81,64
80364,note_off,,,,,2,0,1,,,,0,91,64
80366,note_off,,,,,2,0,1,,,,0,88,64
80376,note_on,,,,,10,0,1,,,,0,64,88
80378,note_on,,,,,0,0,1,,,,0,57,85
80378,note_on,,,,,2,0,1,,,,0,67,81
80412,note_off,,,,,34,0,1,,,,0,57,64
80416,note_off,,,,,4,0,1,,,,0,67,64
80428,note_off,,,,,12,0,1,,,,0,64,64
80456,note_on,,,,,28,0,1,,,,0,57,87
80458,note_on,,,,,2,0,1,,,,0,64,92
80462,note_on,,,,,4,0,1,,,,0,67,81
80494,note_off,,,,,32,0,1,,,,0,67,64
80504,note_off,,,,,10,0,1,,,,0,64,64
80514,note_off,,,,,10,0,1,,,,0,57,64
80534,note_on,,,,,20,0,1,,,,0,88,87
80536,note_on,,,,,2,0,1,,,,0,76,86
80568,note_off,,,,,32,0,1,,,,0,76,64
80576,note_off,,,,,8,0,1,,,,0,88,64
80616,note_on,,,,,40,0,1,,,,0,83,96
80618,note_on,,,,,2,0,1,,,,0,76,92
80620,note_on,,,,,0,0,1,,,,0,80,92
80620,note_on,,,,,2,0,1,,,,0,88,86
80692,note_on,,,,,0,0,1,,,,0,38,80
80692,note_on,,,,,72,0,1,,,,0,50,87
80694,note_on,,,,,2,0,1,,,,0,47,79
80730,note_off,,,,,36,0,1,,,,0,50,64
80740,note_off,,,,,10,0,1,,,,0,38,64
80744,note_off,,,,,0,0,1,,,,0,88,64
80744,note_off,,,,,4,0,1,,,,0,47,64
80768,note_off,,,,,24,0,1,,,,0,76,64
80780,note_on,,,,,0,0,1,,,,0,47,89
80780,note_on,,,,,0,0,1,,,,0,38,81
80780,note_on,,,,,12,0,1,,,,0,50,95
80798,note_off,,,,,18,0,1,,,,0,80,64
80816,note_off,,,,,18,0,1,,,,0,83,64
80818,note_off,,,,,2,0,1,,,,0,38,64
80828,note_off,,,,,10,0,1,,,,0,47,64
80834,note_off,,,,,6,0,1,,,,0,50,64
80864,note_on,,,,,30,0,1,,,,0,83,86
80864,note_on,,,,,0,0,1,,,,0,80,86
80868,note_on,,,,,0,0,1,,,,0,77,86
80868,note_on,,,,,4,0,1,,,,0,89,86
80890,note_off,,,,,22,0,1,,,,0,80,64
80890,note_off,,,,,0,0,1,,,,0,83,64
80896,note_off,,,,,0,0,1,,,,0,89,64
80896,note_off,,,,,6,0,1,,,,0,77,64
80948,note_on,,,,,52,0,1,,,,0,83,87
80952,note_on,,,,,4,0,1,,,,0,89,88
80952,note_on,,,,,0,0,1,,,,0,77,91
80954,note_on,,,,,2,0,1,,,,0,80,89
81014,note_off,,,,,60,0,1,,,,0,77,64
81020,note_off,,,,,6,0,1,,,,0,89,64
81024,note_on,,,,,4,0,1,,,,0,65,90
81026,note_on,,,,,2,0,1,,,,0,56,91
81030,note_on,,,,,4,0,1,,,,0,59,86
81064,note_off,,,,,34,0,1,,,,0,65,64
81070,note_off,,,,,0,0,1,,,,0,56,64
81070,note_off,,,,,6,0,1,,,,0,59,64
81072,note_off,,,,,0,0,1,,,,0,83,64
81072,note_off,,,,,2,0,1,,,,0,80,64
81104,note_on,,,,,32,0,1,,,,0,59,79
81110,note_on,,,,,6,0,1,,,,0,65,86
81114,note_on,,,,,4,0,1,,,,0,56,83
81144,note_off,,,,,30,0,1,,,,0,65,64
81150,note_off,,,,,6,0,1,,,,0,59,64
81162,note_off,,,,,12,0,1,,,,0,56,64
81180,note_on,,,,,18,0,1,,,,0,73,91
81182,note_on,,,,,2,0,1,,,,0,83,81
81184,note_on,,,,,0,0,1,,,,0,80,81
81184,note_on,,,,,2,0,1,,,,0,85,84
81214,note_off,,,,,30,0,1,,,,0,73,64
81220,note_off,,,,,6,0,1,,,,0,85,64
81228,note_off,,,,,8,0,1,,,,0,80,64
81234,note_off,,,,,6,0,1,,,,0,83,64
81270,note_on,,,,,36,0,1,,,,0,83,84
81270,note_on,,,,,0,0,1,,,,0,73,101
81272,note_on,,,,,2,0,1,,,,0,85,92
81276,note_on,,,,,4,0,1,,,,0,80,83
81354,note_off,,,,,78,0,1,,,,0,85,64
81356,note_on,,,,,2,0,1,,,,0,50,96
81356,note_on,,,,,0,0,1,,,,0,38,85
81358,note_on,,,,,2,0,1,,,,0,47,93
81372,note_off,,,,,14,0,1,,,,0,80,64
81382,note_off,,,,,10,0,1,,,,0,73,64
81388,note_off,,,,,6,0,1,,,,0,83,64
81396,note_off,,,,,8,0,1,,,,0,50,64
81398,control_change,,,,,2,0,1,,64,0,0,,
81404,control_change,,,,,6,0,1,,64,127,0,,
81406,note_off,,,,,2,0,1,,,,0,47,64
81406,note_off,,,,,0,0,1,,,,0,38,64
81444,note_on,,,,,0,0,1,,,,0,38,78
81444,note_on,,,,,38,0,1,,,,0,47,84
81448,note_on,,,,,4,0,1,,,,0,50,89
81484,note_off,,,,,36,0,1,,,,0,38,64
81496,note_off,,,,,12,0,1,,,,0,47,64
81500,note_off,,,,,4,0,1,,,,0,50,64
81530,note_on,,,,,30,0,1,,,,0,83,87
81532,note_on,,,,,0,0,1,,,,0,74,87
81532,note_on,,,,,2,0,1,,,,0,80,84
81536,note_on,,,,,4,0,1,,,,0,86,76
81562,note_off,,,,,26,0,1,,,,0,74,64
81568,note_off,,,,,6,0,1,,,,0,86,64
81570,note_off,,,,,2,0,1,,,,0,80,64
81580,note_off,,,,,10,0,1,,,,0,83,64
81616,note_on,,,,,36,0,1,,,,0,83,87
81620,note_on,,,,,0,0,1,,,,0,74,89
81620,note_on,,,,,4,0,1,,,,0,86,87
81622,note_on,,,,,2,0,1,,,,0,80,91
81648,note_off,,,,,26,0,1,,,,0,86,64
81662,note_off,,,,,14,0,1,,,,0,74,64
81674,note_off,,,,,12,0,1,,,,0,83,64
81676,note_off,,,,,2,0,1,,,,0,80,64
81700,note_on,,,,,24,0,1,,,,0,65,86
81704,note_on,,,,,0,0,1,,,,0,56,83
81704,note_on,,,,,4,0,1,,,,0,59,83
81744,note_off,,,,,40,0,1,,,,0,56,64
81744,note_off,,,,,0,0,1,,,,0,65,64
81748,note_off,,,,,4,0,1,,,,0,59,64
81788,note_on,,,,,40,0,1,,,,0,59,81
81790,note_on,,,,,2,0,1,,,,0,65,87
81796,note_on,,,,,6,0,1,,,,0,56,92
81824,note_off,,,,,28,0,1,,,,0,65,64
81836,note_off,,,,,12,0,1,,,,0,59,64
81846,note_off,,,,,10,0,1,,,,0,56,64
81876,note_on,,,,,30,0,1,,,,0,77,82
81876,note_on,,,,,0,0,1,,,,0,68,93
81878,note_on,,,,,2,0,1,,,,0,80,83
81912,note_off,,,,,34,0,1,,,,0,68,64
81924,note_off,,,,,12,0,1,,,,0,77,64
81932,note_off,,,,,8,0,1,,,,0,80,64
81972,note_on,,,,,40,0,1,,,,0,70,97
81976,note_on,,,,,4,0,1,,,,0,82,89
81976,note_on,,,,,0,0,1,,,,0,79,95
81976,note_on,,,,,0,0,1,,,,0,76,92
82058,note_off,,,,,82,0,1,,,,0,76,64
82058,note_off,,,,,0,0,1,,,,0,82,64
82062,note_off,,,,,0,0,1,,,,0,70,64
82062,note_off,,,,,4,0,1,,,,0,79,64
82076,note_on,,,,,0,0,1,,,,0,37,87
82076,note_on,,,,,0,0,1,,,,0,46,97
82076,note_on,,,,,14,0,1,,,,0,49,97
82126,note_off,,,,,50,0,1,,,,0,37,64
82134,note_off,,,,,8,0,1,,,,0,46,64
82134,note_off,,,,,0,0,1,,,,0,49,64
82168,note_on,,,,,34,0,1,,,,0,49,101
82172,note_on,,,,,4,0,1,,,,0,45,95
82176,note_on,,,,,4,0,1,,,,0,37,89
82224,control_change,,,,,48,0,1,,64,0,0,,
82254,control_change,,,,,30,0,1,,64,127,0,,
82262,note_off,,,,,8,0,1,,,,0,45,64
82266,note_off,,,,,4,0,1,,,,0,37,64
82270,note_off,,,,,4,0,1,,,,0,49,64
82282,note_on,,,,,12,0,1,,,,0,76,79
82284,note_on,,,,,0,0,1,,,,0,79,76
82284,note_on,,,,,2,0,1,,,,0,81,82
82296,note_on,,,,,12,0,1,,,,0,69,88
82330,note_off,,,,,34,0,1,,,,0,76,64
82332,note_off,,,,,2,0,1,,,,0,81,64
82334,note_off,,,,,2,0,1,,,,0,69,64
82336,note_off,,,,,2,0,1,,,,0,79,64
82386,note_on,,,,,0,0,1,,,,0,79,88
82386,note_on,,,,,50,0,1,,,,0,81,83
82388,note_on,,,,,0,0,1,,,,0,69,97
82388,note_on,,,,,2,0,1,,,,0,76,84
82442,note_off,,,,,54,0,1,,,,0,69,64
82444,note_off,,,,,2,0,1,,,,0,76,64
82462,note_off,,,,,18,0,1,,,,0,79,64
82464,note_off,,,,,2,0,1,,,,0,81,64
82476,note_on,,,,,12,0,1,,,,0,57,82
82482,note_on,,,,,6,0,1,,,,0,67,77
82482,note_on,,,,,0,0,1,,,,0,64,87
82516,note_off,,,,,34,0,1,,,,0,67,64
82518,note_off,,,,,2,0,1,,,,0,57,64
82526,note_off,,,,,8,0,1,,,,0,64,64
82564,note_on,,,,,38,0,1,,,,0,64,89
82568,note_on,,,,,4,0,1,,,,0,67,82
82568,note_on,,,,,0,0,1,,,,0,57,91
82592,note_off,,,,,24,0,1,,,,0,67,64
82608,note_off,,,,,16,0,1,,,,0,64,64
82620,note_off,,,,,12,0,1,,,,0,57,64
82644,note_on,,,,,24,0,1,,,,0,82,98
82646,note_on,,,,,2,0,1,,,,0,91,90
82648,note_on,,,,,2,0,1,,,,0,94,96
82648,note_on,,,,,0,0,1,,,,0,88,86
82678,note_off,,,,,30,0,1,,,,0,82,64
82692,note_off,,,,,14,0,1,,,,0,88,64
82696,note_off,,,,,4,0,1,,,,0,94,64
82700,note_off,,,,,4,0,1,,,,0,91,64
82734,note_on,,,,,34,0,1,,,,0,94,93
82736,note_on,,,,,2,0,1,,,,0,91,83
82736,note_on,,,,,0,0,1,,,,0,82,97
82738,note_on,,,,,2,0,1,,,,0,88,83
82810,note_on,,,,,72,0,1,,,,0,37,93
82812,note_on,,,,,2,0,1,,,,0,49,93
82816,note_on,,,,,4,0,1,,,,0,46,93
82826,note_off,,,,,10,0,1,,,,0,91,64
82842,note_off,,,,,16,0,1,,,,0,94,64
82852,note_off,,,,,10,0,1,,,,0,49,64
82852,note_off,,,,,0,0,1,,,,0,88,64
82856,note_off,,,,,4,0,1,,,,0,37,64
82860,note_off,,,,,4,0,1,,,,0,46,64
82862,note_off,,,,,2,0,1,,,,0,82,64
82898,note_on,,,,,36,0,1,,,,0,46,90
82900,note_on,,,,,2,0,1,,,,0,49,97
82900,note_on,,,,,0,0,1,,,,0,37,100
82912,control_change,,,,,12,0,1,,64,0,0,,
82928,control_change,,,,,16,0,1,,64,127,0,,
82956,note_off,,,,,28,0,1,,,,0,37,64
82968,note_off,,,,,12,0,1,,,,0,49,64
82968,note_off,,,,,0,0,1,,,,0,46,64
82976,note_on,,,,,8,0,1,,,,0,88,77
82976,note_on,,,,,0,0,1,,,,0,81,88
82978,note_on,,,,,0,0,1,,,,0,91,79
82978,note_on,,,,,2,0,1,,,,0,93,83
83010,note_off,,,,,32,0,1,,,,0,81,64
83016,note_off,,,,,0,0,1,,,,0,88,64
83016,note_off,,,,,6,0,1,,,,0,93,64
83020,note_off,,,,,4,0,1,,,,0,91,64
83064,note_on,,,,,44,0,1,,,,0,93,93
83064,note_on,,,,,0,0,1,,,,0,81,95
83066,note_on,,,,,2,0,1,,,,0,91,90
83066,note_on,,,,,0,0,1,,,,0,88,88
83110,note_off,,,,,44,0,1,,,,0,93,64
83118,note_off,,,,,8,0,1,,,,0,81,64
83120,note_off,,,,,2,0,1,,,,0,91,64
83122,note_off,,,,,2,0,1,,,,0,88,64
83144,note_on,,,,,22,0,1,,,,0,64,80
83148,note_on,,,,,0,0,1,,,,0,57,82
83148,note_on,,,,,4,0,1,,,,0,67,82
83184,note_off,,,,,36,0,1,,,,0,67,64
83188,note_off,,,,,4,0,1,,,,0,57,64
83190,note_off,,,,,2,0,1,,,,0,64,64
83232,note_on,,,,,42,0,1,,,,0,64,80
83234,note_on,,,,,2,0,1,,,,0,57,88
83236,note_on,,,,,2,0,1,,,,0,67,85
83268,note_off,,,,,32,0,1,,,,0,67,64
83278,note_off,,,,,10,0,1,,,,0,64,64
83288,note_off,,,,,10,0,1,,,,0,57,64
83318,note_on,,,,,0,0,1,,,,0,76,85
83318,note_on,,,,,30,0,1,,,,0,88,90
83350,note_off,,,,,32,0,1,,,,0,76,64
83368,note_off,,,,,18,0,1,,,,0,88,64
83408,note_on,,,,,0,0,1,,,,0,83,87
83408,note_on,,,,,40,0,1,,,,0,88,82
83410,note_on,,,,,2,0,1,,,,0,76,86
83412,note_on,,,,,2,0,1,,,,0,80,89
83488,note_on,,,,,76,0,1,,,,0,38,86
83492,note_on,,,,,4,0,1,,,,0,50,86
83494,note_on,,,,,2,0,1,,,,0,47,82
83498,note_off,,,,,4,0,1,,,,0,88,64
83512,note_off,,,,,14,0,1,,,,0,76,64
83532,note_off,,,,,20,0,1,,,,0,50,64
83536,note_off,,,,,4,0,1,,,,0,38,64
83540,note_off,,,,,4,0,1,,,,0,47,64
83556,note_off,,,,,16,0,1,,,,0,80,64
83582,note_on,,,,,26,0,1,,,,0,47,87
83582,note_on,,,,,0,0,1,,,,0,38,84
83584,note_on,,,,,2,0,1,,,,0,50,90
83592,note_off,,,,,8,0,1,,,,0,83,64
83636,note_off,,,,,44,0,1,,,,0,38,64
83644,note_off,,,,,8,0,1,,,,0,47,64
83652,note_off,,,,,8,0,1,,,,0,50,64
83664,note_on,,,,,12,0,1,,,,0,89,86
83666,note_on,,,,,2,0,1,,,,0,77,87
83698,note_off,,,,,32,0,1,,,,0,77,64
83704,note_off,,,,,6,0,1,,,,0,89,64
83754,note_on,,,,,50,0,1,,,,0,83,87
83756,note_on,,,,,2,0,1,,,,0,80,85
83758,note_on,,,,,0,0,1,,,,0,77,92
83758,note_on,,,,,2,0,1,,,,0,89,91
83800,note_off,,,,,42,0,1,,,,0,89,64
83804,note_off,,,,,4,0,1,,,,0,77,64
83824,note_off,,,,,20,0,1,,,,0,83,64
83828,note_off,,,,,4,0,1,,,,0,80,64
83840,note_on,,,,,12,0,1,,,,0,59,88
83844,note_on,,,,,4,0,1,,,,0,56,88
83850,note_on,,,,,6,0,1,,,,0,65,66
83880,note_off,,,,,30,0,1,,,,0,59,64
83882,note_off,,,,,2,0,1,,,,0,65,64
83884,note_off,,,,,2,0,1,,,,0,56,64
83934,note_on,,,,,50,0,1,,,,0,65,91
83942,note_on,,,,,8,0,1,,,,0,56,84
83954,note_on,,,,,12,0,1,,,,0,59,79
83968,note_off,,,,,0,0,1,,,,0,65,64
83968,note_off,,,,,14,0,1,,,,0,59,64
83988,note_off,,,,,20,0,1,,,,0,56,64
84024,note_on,,,,,36,0,1,,,,0,76,65
84028,note_on,,,,,4,0,1,,,,0,64,85
84066,note_off,,,,,38,0,1,,,,0,64,64
84072,note_off,,,,,6,0,1,,,,0,76,64
84110,note_on,,,,,38,0,1,,,,0,71,83
84114,note_on,,,,,4,0,1,,,,0,64,82
84116,note_on,,,,,0,0,1,,,,0,68,88
84116,note_on,,,,,2,0,1,,,,0,76,81
84180,note_off,,,,,64,0,1,,,,0,64,64
84194,note_off,,,,,14,0,1,,,,0,76,64
84196,note_on,,,,,0,0,1,,,,0,37,92
84196,note_on,,,,,2,0,1,,,,0,49,90
84198,note_on,,,,,2,0,1,,,,0,44,92
84222,note_off,,,,,24,0,1,,,,0,68,64
84232,note_off,,,,,10,0,1,,,,0,71,64
84238,note_off,,,,,6,0,1,,,,0,49,64
84240,note_off,,,,,2,0,1,,,,0,37,64
84246,note_off,,,,,6,0,1,,,,0,44,64
84250,control_change,,,,,4,0,1,,64,0,0,,
84266,control_change,,,,,16,0,1,,64,127,0,,
84286,note_on,,,,,20,0,1,,,,0,44,92
84288,note_on,,,,,0,0,1,,,,0,37,95
84288,note_on,,,,,2,0,1,,,,0,49,97
84356,note_off,,,,,68,0,1,,,,0,44,64
84362,note_on,,,,,0,0,1,,,,0,65,76
84362,note_on,,,,,6,0,1,,,,0,77,74
84364,note_off,,,,,2,0,1,,,,0,37,64
84364,note_off,,,,,0,0,1,,,,0,49,64
84390,note_off,,,,,26,0,1,,,,0,65,64
84400,note_off,,,,,10,0,1,,,,0,77,64
84444,note_on,,,,,44,0,1,,,,0,73,85
84446,note_on,,,,,2,0,1,,,,0,77,87
84446,note_on,,,,,0,0,1,,,,0,65,92
84448,note_on,,,,,2,0,1,,,,0,68,92
84472,note_off,,,,,24,0,1,,,,0,65,64
84488,note_off,,,,,16,0,1,,,,0,68,64
84504,note_off,,,,,16,0,1,,,,0,77,64
84508,note_off,,,,,4,0,1,,,,0,73,64
84522,note_on,,,,,14,0,1,,,,0,44,87
84524,control_change,,,,,2,0,1,,64,0,0,,
84526,note_on,,,,,0,0,1,,,,0,35,81
84526,control_change,,,,,2,0,1,,64,127,0,,
84528,note_on,,,,,2,0,1,,,,0,47,99
84556,note_off,,,,,28,0,1,,,,0,35,64
84562,note_off,,,,,6,0,1,,,,0,47,64
84574,note_off,,,,,12,0,1,,,,0,44,64
84608,note_on,,,,,34,0,1,,,,0,44,79
84610,note_on,,,,,2,0,1,,,,0,47,96
84612,note_on,,,,,2,0,1,,,,0,35,80
84668,note_off,,,,,56,0,1,,,,0,35,64
84676,note_off,,,,,8,0,1,,,,0,47,64
84678,note_on,,,,,2,0,1,,,,0,89,83
84680,note_on,,,,,2,0,1,,,,0,77,81
84688,note_off,,,,,8,0,1,,,,0,44,64
84710,note_off,,,,,22,0,1,,,,0,77,64
84718,note_off,,,,,8,0,1,,,,0,89,64
84766,note_on,,,,,48,0,1,,,,0,85,107
84768,note_on,,,,,0,0,1,,,,0,77,97
84768,note_on,,,,,2,0,1,,,,0,89,92
84806,note_off,,,,,38,0,1,,,,0,77,64
84818,control_change,,,,,12,0,1,,64,0,0,,
84822,note_off,,,,,4,0,1,,,,0,89,64
84836,note_off,,,,,14,0,1,,,,0,85,64
84846,control_change,,,,,10,0,1,,64,127,0,,
84848,note_on,,,,,0,0,1,,,,0,33,96
84848,note_on,,,,,2,0,1,,,,0,45,97
84850,note_on,,,,,2,0,1,,,,0,42,92
84884,note_off,,,,,0,0,1,,,,0,45,64
84884,note_off,,,,,34,0,1,,,,0,33,64
84890,note_off,,,,,6,0,1,,,,0,42,64
84944,note_on,,,,,0,0,1,,,,0,42,98
84944,note_on,,,,,54,0,1,,,,0,45,110
84946,note_on,,,,,2,0,1,,,,0,33,92
84984,note_off,,,,,38,0,1,,,,0,33,64
84996,note_off,,,,,12,0,1,,,,0,45,64
85004,note_off,,,,,8,0,1,,,,0,42,64
85030,note_on,,,,,26,0,1,,,,0,85,91
85032,note_on,,,,,2,0,1,,,,0,90,89
85032,note_on,,,,,0,0,1,,,,0,78,86
85062,note_off,,,,,30,0,1,,,,0,78,64
85070,note_off,,,,,8,0,1,,,,0,90,64
85072,note_off,,,,,2,0,1,,,,0,85,64
85118,note_on,,,,,46,0,1,,,,0,90,97
85120,note_on,,,,,2,0,1,,,,0,78,93
85124,note_on,,,,,4,0,1,,,,0,85,92
85160,note_off,,,,,36,0,1,,,,0,78,64
85160,note_off,,,,,0,0,1,,,,0,90,64
85164,note_off,,,,,4,0,1,,,,0,85,64
85192,note_on,,,,,28,0,1,,,,0,66,87
85196,note_on,,,,,4,0,1,,,,0,54,84
85198,note_on,,,,,2,0,1,,,,0,61,89
85232,note_off,,,,,34,0,1,,,,0,66,64
85236,note_off,,,,,4,0,1,,,,0,54,64
85244,note_off,,,,,8,0,1,,,,0,61,64
85276,note_on,,,,,32,0,1,,,,0,61,82
85280,note_on,,,,,4,0,1,,,,0,66,86
85286,note_on,,,,,6,0,1,,,,0,54,81
85308,note_off,,,,,22,0,1,,,,0,66,64
85322,note_off,,,,,14,0,1,,,,0,61,64
85336,note_off,,,,,14,0,1,,,,0,54,64
85362,note_on,,,,,26,0,1,,,,0,66,97
85364,note_on,,,,,2,0,1,,,,0,78,89
85364,note_on,,,,,0,0,1,,,,0,73,86
85396,note_off,,,,,32,0,1,,,,0,66,64
85408,note_off,,,,,12,0,1,,,,0,73,64
85410,note_off,,,,,2,0,1,,,,0,78,64
85456,note_on,,,,,46,0,1,,,,0,79,91
85458,note_on,,,,,2,0,1,,,,0,73,93
85460,note_on,,,,,2,0,1,,,,0,67,91
85510,control_change,,,,,50,0,1,,64,0,0,,
85542,control_change,,,,,32,0,1,,64,127,0,,
85544,note_on,,,,,0,0,1,,,,0,29,92
85544,note_on,,,,,2,0,1,,,,0,41,99
85546,note_on,,,,,2,0,1,,,,0,37,99
85576,note_off,,,,,0,0,1,,,,0,79,64
85576,note_off,,,,,30,0,1,,,,0,67,64
85580,note_off,,,,,0,0,1,,,,0,41,64
85580,note_off,,,,,4,0,1,,,,0,29,64
85596,note_off,,,,,16,0,1,,,,0,37,64
85634,note_off,,,,,38,0,1,,,,0,73,64
85636,note_on,,,,,0,0,1,,,,0,37,91
85636,note_on,,,,,2,0,1,,,,0,41,93
85638,note_on,,,,,2,0,1,,,,0,29,96
85666,note_off,,,,,28,0,1,,,,0,29,64
85684,note_off,,,,,0,0,1,,,,0,41,64
85684,note_off,,,,,18,0,1,,,,0,37,64
85712,note_on,,,,,28,0,1,,,,0,80,90
85714,note_on,,,,,0,0,1,,,,0,68,90
85714,note_on,,,,,2,0,1,,,,0,73,89
85746,note_off,,,,,32,0,1,,,,0,68,64
85752,note_off,,,,,6,0,1,,,,0,73,64
85754,note_off,,,,,2,0,1,,,,0,80,64
85792,note_on,,,,,38,0,1,,,,0,80,92
85796,note_on,,,,,4,0,1,,,,0,73,90
85796,note_on,,,,,0,0,1,,,,0,68,98
85824,note_off,,,,,28,0,1,,,,0,68,64
85844,note_off,,,,,20,0,1,,,,0,73,64
85856,note_off,,,,,12,0,1,,,,0,80,64
85870,note_on,,,,,14,0,1,,,,0,68,92
85870,note_on,,,,,0,0,1,,,,0,61,84
85872,note_on,,,,,2,0,1,,,,0,56,92
85904,note_off,,,,,32,0,1,,,,0,68,64
85906,note_off,,,,,2,0,1,,,,0,56,64
85908,note_off,,,,,2,0,1,,,,0,61,64
85956,note_on,,,,,0,0,1,,,,0,61,97
85956,note_on,,,,,48,0,1,,,,0,68,98
85960,note_on,,,,,4,0,1,,,,0,56,92
85990,note_off,,,,,30,0,1,,,,0,68,64
86010,note_off,,,,,20,0,1,,,,0,61,64
86014,note_off,,,,,4,0,1,,,,0,56,64
86054,note_on,,,,,40,0,1,,,,0,80,92
86056,note_on,,,,,2,0,1,,,,0,92,100
86056,note_on,,,,,0,0,1,,,,0,85,97
86070,note_off,,,,,14,0,1,,,,0,80,64
86088,note_off,,,,,18,0,1,,,,0,85,64
86088,note_off,,,,,0,0,1,,,,0,92,64
86144,note_on,,,,,56,0,1,,,,0,92,101
86146,note_on,,,,,2,0,1,,,,0,80,97
86148,note_on,,,,,2,0,1,,,,0,85,94
86246,note_on,,,,,0,0,1,,,,0,30,87
86246,note_on,,,,,98,0,1,,,,0,42,92
86248,note_on,,,,,2,0,1,,,,0,37,86
86258,note_off,,,,,10,0,1,,,,0,85,64
86282,note_off,,,,,24,0,1,,,,0,42,64
86284,note_off,,,,,2,0,1,,,,0,30,64
86288,note_off,,,,,4,0,1,,,,0,37,64
86296,note_off,,,,,8,0,1,,,,0,92,64
86300,note_off,,,,,4,0,1,,,,0,80,64
86322,control_change,,,,,22,0,1,,64,0,0,,
86328,note_on,,,,,6,0,1,,,,0,37,88
86330,note_on,,,,,2,0,1,,,,0,42,77
86332,note_on,,,,,2,0,1,,,,0,30,99
86338,control_change,,,,,6,0,1,,64,127,0,,
86374,note_off,,,,,36,0,1,,,,0,30,64
86382,note_off,,,,,8,0,1,,,,0,37,64
86388,note_off,,,,,6,0,1,,,,0,42,64
86414,note_on,,,,,0,0,1,,,,0,85,98
86414,note_on,,,,,26,0,1,,,,0,93,95
86416,note_on,,,,,2,0,1,,,,0,81,87
86444,note_off,,,,,28,0,1,,,,0,81,64
86448,note_off,,,,,4,0,1,,,,0,85,64
86452,note_off,,,,,4,0,1,,,,0,93,64
86498,note_on,,,,,46,0,1,,,,0,85,106
86500,note_on,,,,,2,0,1,,,,0,93,102
86500,note_on,,,,,0,0,1,,,,0,81,95
86528,note_off,,,,,28,0,1,,,,0,93,64
86548,note_off,,,,,20,0,1,,,,0,81,64
86554,note_off,,,,,6,0,1,,,,0,85,64
86574,note_on,,,,,0,0,1,,,,0,57,88
86574,note_on,,,,,20,0,1,,,,0,69,89
86580,note_on,,,,,6,0,1,,,,0,61,88
86608,note_off,,,,,28,0,1,,,,0,69,64
86610,note_off,,,,,2,0,1,,,,0,57,64
86620,note_off,,,,,10,0,1,,,,0,61,64
86658,note_on,,,,,38,0,1,,,,0,61,91
86660,note_on,,,,,2,0,1,,,,0,69,100
86664,note_on,,,,,4,0,1,,,,0,57,87
86680,note_off,,,,,16,0,1,,,,0,69,64
86710,note_off,,,,,30,0,1,,,,0,57,64
86712,note_off,,,,,2,0,1,,,,0,61,64
86740,note_on,,,,,0,0,1,,,,0,73,96
86740,note_on,,,,,28,0,1,,,,0,81,92
86742,note_on,,,,,2,0,1,,,,0,69,98
86768,note_off,,,,,26,0,1,,,,0,69,64
86778,note_off,,,,,10,0,1,,,,0,73,64
86782,note_off,,,,,4,0,1,,,,0,81,64
86818,note_on,,,,,36,0,1,,,,0,73,94
86820,note_on,,,,,0,0,1,,,,0,69,97
86820,note_on,,,,,2,0,1,,,,0,81,96
86896,note_on,,,,,76,0,1,,,,0,52,99
86896,note_on,,,,,0,0,1,,,,0,42,89
86896,note_on,,,,,0,0,1,,,,0,40,83
86900,note_off,,,,,4,0,1,,,,0,81,64
86908,note_off,,,,,8,0,1,,,,0,69,64
86922,note_off,,,,,14,0,1,,,,0,40,64
86928,note_off,,,,,6,0,1,,,,0,52,64
86932,note_off,,,,,4,0,1,,,,0,73,64
86936,note_off,,,,,4,0,1,,,,0,42,64
86974,note_on,,,,,38,0,1,,,,0,52,102
86974,note_on,,,,,0,0,1,,,,0,42,92
86980,note_on,,,,,6,0,1,,,,0,40,90
86984,control_change,,,,,4,0,1,,64,0,0,,
86992,control_change,,,,,8,0,1,,64,127,0,,
87006,note_off,,,,,14,0,1,,,,0,40,64
87024,note_off,,,,,0,0,1,,,,0,52,64
87024,note_off,,,,,18,0,1,,,,0,42,64
87056,note_on,,,,,32,0,1,,,,0,70,92
87058,note_on,,,,,2,0,1,,,,0,82,94
87058,note_on,,,,,0,0,1,,,,0,73,94
87088,note_off,,,,,30,0,1,,,,0,70,64
87096,note_off,,,,,8,0,1,,,,0,73,64
87098,note_off,,,,,2,0,1,,,,0,82,64
87138,note_on,,,,,40,0,1,,,,0,70,92
87140,note_on,,,,,0,0,1,,,,0,73,91
87140,note_on,,,,,2,0,1,,,,0,82,94
87162,note_off,,,,,22,0,1,,,,0,70,64
87178,note_off,,,,,16,0,1,,,,0,73,64
87196,note_off,,,,,18,0,1,,,,0,82,64
87218,note_on,,,,,22,0,1,,,,0,66,88
87220,note_on,,,,,2,0,1,,,,0,70,92
87222,note_on,,,,,2,0,1,,,,0,61,74
87222,note_on,,,,,0,0,1,,,,0,58,81
87252,note_off,,,,,30,0,1,,,,0,58,64
87254,note_off,,,,,2,0,1,,,,0,70,64
87256,note_off,,,,,2,0,1,,,,0,61,64
87256,note_off,,,,,0,0,1,,,,0,66,64
87308,note_on,,,,,52,0,1,,,,0,70,92
87310,note_on,,,,,2,0,1,,,,0,66,92
87316,note_on,,,,,0,0,1,,,,0,58,77
87316,note_on,,,,,6,0,1,,,,0,61,77
87340,note_off,,,,,24,0,1,,,,0,70,64
87346,note_off,,,,,6,0,1,,,,0,66,64
87358,note_off,,,,,12,0,1,,,,0,58,64
87364,note_off,,,,,6,0,1,,,,0,61,64
87384,note_on,,,,,20,0,1,,,,0,94,100
87386,note_on,,,,,0,0,1,,,,0,82,100
87386,note_on,,,,,2,0,1,,,,0,90,90
87424,note_off,,,,,38,0,1,,,,0,82,64
87428,note_off,,,,,4,0,1,,,,0,94,64
87438,note_off,,,,,10,0,1,,,,0,90,64
87484,note_on,,,,,0,0,1,,,,0,90,101
87484,note_on,,,,,46,0,1,,,,0,94,106
87486,note_on,,,,,2,0,1,,,,0,82,105
87558,note_on,,,,,72,0,1,,,,0,39,85
87560,note_on,,,,,2,0,1,,,,0,51,100
87560,note_on,,,,,0,0,1,,,,0,42,89
87608,note_off,,,,,0,0,1,,,,0,39,64
87608,note_off,,,,,48,0,1,,,,0,51,64
87620,note_off,,,,,12,0,1,,,,0,42,64
87628,control_change,,,,,8,0,1,,64,0,0,,
87652,note_off,,,,,24,0,1,,,,0,82,64
87652,note_off,,,,,0,0,1,,,,0,90,64
87652,note_off,,,,,0,0,1,,,,0,94,64
87656,note_on,,,,,4,0,1,,,,0,42,86
87660,note_on,,,,,4,0,1,,,,0,51,112
87660,note_on,,,,,0,0,1,,,,0,39,89
87676,control_change,,,,,16,0,1,,64,127,0,,
87722,note_off,,,,,46,0,1,,,,0,39,64
87724,note_off,,,,,2,0,1,,,,0,42,64
87726,note_off,,,,,2,0,1,,,,0,51,64
87744,note_on,,,,,18,0,1,,,,0,95,90
87744,note_on,,,,,0,0,1,,,,0,90,93
87746,note_on,,,,,2,0,1,,,,0,83,87
87786,note_off,,,,,40,0,1,,,,0,83,64
87790,note_off,,,,,4,0,1,,,,0,90,64
87794,note_off,,,,,4,0,1,,,,0,95,64
87838,note_on,,,,,44,0,1,,,,0,90,103
87840,note_on,,,,,2,0,1,,,,0,95,98
87840,note_on,,,,,0,0,1,,,,0,83,99
87916,note_on,,,,,76,0,1,,,,0,71,84
87916,note_on,,,,,0,0,1,,,,0,59,86
87918,note_on,,,,,2,0,1,,,,0,66,87
87958,note_off,,,,,40,0,1,,,,0,59,64
87962,note_off,,,,,4,0,1,,,,0,71,64
87970,note_off,,,,,0,0,1,,,,0,95,64
87970,note_off,,,,,8,0,1,,,,0,66,64
87986,note_off,,,,,16,0,1,,,,0,83,64
87996,note_off,,,,,10,0,1,,,,0,90,64
88002,note_on,,,,,6,0,1,,,,0,66,82
88004,note_on,,,,,2,0,1,,,,0,71,97
88008,note_on,,,,,4,0,1,,,,0,59,90
88042,note_off,,,,,34,0,1,,,,0,71,64
88058,note_off,,,,,16,0,1,,,,0,66,64
88062,note_off,,,,,4,0,1,,,,0,59,64
88090,note_on,,,,,28,0,1,,,,0,90,98
88092,note_on,,,,,2,0,1,,,,0,95,96
88092,note_on,,,,,0,0,1,,,,0,83,100
88128,note_off,,,,,36,0,1,,,,0,83,64
88132,note_off,,,,,4,0,1,,,,0,90,64
88136,note_off,,,,,4,0,1,,,,0,95,64
88190,note_on,,,,,54,0,1,,,,0,90,101
88194,note_on,,,,,4,0,1,,,,0,95,96
88194,note_on,,,,,0,0,1,,,,0,83,97
88280,note_on,,,,,0,0,1,,,,0,42,86
88280,note_on,,,,,86,0,1,,,,0,50,98
88280,note_on,,,,,0,0,1,,,,0,38,86
88316,note_off,,,,,36,0,1,,,,0,50,64
88324,note_off,,,,,8,0,1,,,,0,38,64
88324,note_off,,,,,0,0,1,,,,0,42,64
88388,note_on,,,,,0,0,1,,,,0,42,95
88388,note_on,,,,,64,0,1,,,,0,50,100
88388,note_on,,,,,0,0,1,,,,0,38,90
88414,note_off,,,,,26,0,1,,,,0,95,64
88426,note_off,,,,,12,0,1,,,,0,83,64
88432,control_change,,,,,0,0,1,,64,0,0,,
88432,note_off,,,,,6,0,1,,,,0,90,64
88452,control_change,,,,,20,0,1,,64,127,0,,
88490,note_on,,,,,38,0,1,,,,0,90,98
88492,note_on,,,,,0,0,1,,,,0,83,97
88492,note_on,,,,,2,0,1,,,,0,95,96
88500,note_off,,,,,0,0,1,,,,0,50,64
88500,note_off,,,,,8,0,1,,,,0,38,64
88512,note_off,,,,,12,0,1,,,,0,42,64
88524,note_off,,,,,12,0,1,,,,0,83,64
88532,note_off,,,,,8,0,1,,,,0,95,64
88536,note_off,,,,,4,0,1,,,,0,90,64
88588,note_on,,,,,52,0,1,,,,0,90,100
88592,note_on,,,,,0,0,1,,,,0,83,97
88592,note_on,,,,,4,0,1,,,,0,95,93
88662,note_on,,,,,70,0,1,,,,0,49,97
88666,note_on,,,,,0,0,1,,,,0,37,89
88666,note_on,,,,,4,0,1,,,,0,42,84
88680,note_off,,,,,14,0,1,,,,0,95,64
88700,note_off,,,,,20,0,1,,,,0,49,64
88704,note_off,,,,,4,0,1,,,,0,42,64
88708,note_off,,,,,4,0,1,,,,0,37,64
88716,note_off,,,,,8,0,1,,,,0,83,64
88722,note_off,,,,,6,0,1,,,,0,90,64
88732,control_change,,,,,10,0,1,,64,0,0,,
88742,control_change,,,,,10,0,1,,64,127,0,,
88748,note_on,,,,,6,0,1,,,,0,49,102
88748,note_on,,,,,0,0,1,,,,0,37,84
88750,note_on,,,,,2,0,1,,,,0,42,88
88800,note_off,,,,,50,0,1,,,,0,42,64
88804,note_off,,,,,4,0,1,,,,0,49,64
88810,note_off,,,,,6,0,1,,,,0,37,64
88816,note_on,,,,,6,0,1,,,,0,90,89
88818,note_on,,,,,0,0,1,,,,0,81,96
88818,note_on,,,,,2,0,1,,,,0,93,85
88844,note_off,,,,,26,0,1,,,,0,81,64
88848,note_off,,,,,4,0,1,,,,0,93,64
88850,note_off,,,,,2,0,1,,,,0,90,64
88906,note_on,,,,,56,0,1,,,,0,90,92
88910,note_on,,,,,4,0,1,,,,0,93,93
88910,note_on,,,,,0,0,1,,,,0,81,99
88962,note_off,,,,,52,0,1,,,,0,93,64
88982,note_on,,,,,20,0,1,,,,0,47,96
88982,note_on,,,,,0,0,1,,,,0,38,88
88984,note_on,,,,,0,0,1,,,,0,35,99
88984,note_off,,,,,2,0,1,,,,0,81,64
88996,note_off,,,,,12,0,1,,,,0,90,64
89010,note_off,,,,,14,0,1,,,,0,35,64
89014,note_off,,,,,4,0,1,,,,0,47,64
89022,note_off,,,,,8,0,1,,,,0,38,64
89068,note_on,,,,,46,0,1,,,,0,47,105
89068,note_on,,,,,0,0,1,,,,0,38,92
89072,note_on,,,,,4,0,1,,,,0,35,99
89074,control_change,,,,,2,0,1,,64,0,0,,
89094,control_change,,,,,20,0,1,,64,127,0,,
89098,note_off,,,,,4,0,1,,,,0,35,64
89116,note_off,,,,,18,0,1,,,,0,38,64
89120,note_off,,,,,4,0,1,,,,0,47,64
89138,note_on,,,,,18,0,1,,,,0,80,92
89140,note_on,,,,,2,0,1,,,,0,92,92
89140,note_on,,,,,0,0,1,,,,0,90,86
89162,note_off,,,,,22,0,1,,,,0,80,64
89168,note_off,,,,,6,0,1,,,,0,92,64
89174,note_off,,,,,6,0,1,,,,0,90,64
89220,note_on,,,,,46,0,1,,,,0,92,94
89222,note_on,,,,,2,0,1,,,,0,90,88
89222,note_on,,,,,0,0,1,,,,0,80,93
89246,note_off,,,,,24,0,1,,,,0,80,64
89268,note_off,,,,,22,0,1,,,,0,92,64
89276,note_off,,,,,8,0,1,,,,0,90,64
89290,note_on,,,,,14,0,1,,,,0,54,88
89292,note_on,,,,,2,0,1,,,,0,62,84
89292,note_on,,,,,0,0,1,,,,0,56,86
89328,note_off,,,,,36,0,1,,,,0,62,64
89330,note_off,,,,,0,0,1,,,,0,54,64
89330,note_off,,,,,2,0,1,,,,0,56,64
89380,note_on,,,,,50,0,1,,,,0,54,97
89382,note_on,,,,,2,0,1,,,,0,56,103
89384,note_on,,,,,2,0,1,,,,0,62,98
89406,note_off,,,,,22,0,1,,,,0,62,64
89420,note_off,,,,,14,0,1,,,,0,56,64
89422,note_off,,,,,2,0,1,,,,0,54,64
89458,note_on,,,,,36,0,1,,,,0,90,95
89460,note_on,,,,,2,0,1,,,,0,98,98
89460,note_on,,,,,0,0,1,,,,0,86,89
89486,note_off,,,,,26,0,1,,,,0,86,64
89488,note_off,,,,,0,0,1,,,,0,90,64
89488,note_off,,,,,2,0,1,,,,0,98,64
89532,note_on,,,,,44,0,1,,,,0,98,97
89532,note_on,,,,,0,0,1,,,,0,86,100
89534,note_on,,,,,2,0,1,,,,0,90,103
89556,note_off,,,,,22,0,1,,,,0,98,64
89558,note_off,,,,,2,0,1,,,,0,86,64
89588,note_off,,,,,30,0,1,,,,0,90,64
89610,note_on,,,,,22,0,1,,,,0,47,98
89610,note_on,,,,,0,0,1,,,,0,38,82
89612,note_on,,,,,2,0,1,,,,0,35,77
89642,note_off,,,,,30,0,1,,,,0,47,64
89646,note_off,,,,,4,0,1,,,,0,35,64
89652,note_off,,,,,6,0,1,,,,0,38,64
89694,note_on,,,,,42,0,1,,,,0,47,103
89694,note_on,,,,,0,0,1,,,,0,38,89
89696,note_on,,,,,2,0,1,,,,0,35,92
89718,control_change,,,,,22,0,1,,64,0,0,,
89728,control_change,,,,,10,0,1,,64,127,0,,
89740,note_off,,,,,12,0,1,,,,0,35,64
89746,note_off,,,,,6,0,1,,,,0,38,64
89756,note_off,,,,,10,0,1,,,,0,47,64
89768,note_on,,,,,12,0,1,,,,0,80,94
89770,note_on,,,,,2,0,1,,,,0,92,88
89772,note_on,,,,,2,0,1,,,,0,90,86
89796,note_off,,,,,24,0,1,,,,0,80,64
89802,note_off,,,,,6,0,1,,,,0,92,64
89808,note_off,,,,,6,0,1,,,,0,90,64
89852,note_on,,,,,0,0,1,,,,0,80,90
89852,note_on,,,,,44,0,1,,,,0,90,92
89854,note_on,,,,,2,0,1,,,,0,92,93
89884,note_off,,,,,30,0,1,,,,0,80,64
89894,note_off,,,,,10,0,1,,,,0,92,64
89904,note_off,,,,,10,0,1,,,,0,90,64
89910,note_on,,,,,6,0,1,,,,0,56,93
89910,note_on,,,,,0,0,1,,,,0,54,91
89912,note_on,,,,,2,0,1,,,,0,62,84
89948,note_off,,,,,36,0,1,,,,0,62,64
89948,note_off,,,,,0,0,1,,,,0,54,64
89948,note_off,,,,,0,0,1,,,,0,56,64
89996,note_on,,,,,48,0,1,,,,0,62,96
89996,note_on,,,,,0,0,1,,,,0,56,97
89998,note_on,,,,,2,0,1,,,,0,54,97
90028,note_off,,,,,30,0,1,,,,0,62,64
90040,note_off,,,,,12,0,1,,,,0,56,64
90042,note_off,,,,,2,0,1,,,,0,54,64
90060,note_on,,,,,18,0,1,,,,0,90,90
90060,note_on,,,,,0,0,1,,,,0,81,95
90062,note_on,,,,,2,0,1,,,,0,93,89
90086,note_off,,,,,24,0,1,,,,0,81,64
90092,note_off,,,,,0,0,1,,,,0,90,64
90092,note_off,,,,,6,0,1,,,,0,93,64
90138,note_on,,,,,46,0,1,,,,0,90,100
90140,note_on,,,,,2,0,1,,,,0,81,98
90144,note_on,,,,,4,0,1,,,,0,93,91
90172,note_off,,,,,28,0,1,,,,0,93,64
90184,note_off,,,,,12,0,1,,,,0,81,64
90212,note_on,,,,,28,0,1,,,,0,47,102
90214,note_on,,,,,2,0,1,,,,0,38,88
90216,note_off,,,,,2,0,1,,,,0,90,64
90216,note_on,,,,,0,0,1,,,,0,35,85
90248,note_off,,,,,32,0,1,,,,0,47,64
90256,note_off,,,,,8,0,1,,,,0,35,64
90260,note_off,,,,,4,0,1,,,,0,38,64
90304,note_on,,,,,44,0,1,,,,0,47,107
90306,note_on,,,,,2,0,1,,,,0,38,98
90308,note_on,,,,,2,0,1,,,,0,35,93
90322,control_change,,,,,14,0,1,,64,0,0,,
90330,control_change,,,,,8,0,1,,64,127,0,,
90346,note_off,,,,,16,0,1,,,,0,35,64
90360,note_off,,,,,14,0,1,,,,0,38,64
90370,note_off,,,,,10,0,1,,,,0,47,64
90392,note_on,,,,,0,0,1,,,,0,92,88
90392,note_on,,,,,22,0,1,,,,0,80,92
90394,note_on,,,,,2,0,1,,,,0,90,82
90420,note_off,,,,,26,0,1,,,,0,80,64
90424,note_off,,,,,4,0,1,,,,0,92,64
90432,note_off,,,,,8,0,1,,,,0,90,64
90476,note_on,,,,,44,0,1,,,,0,92,99
90478,note_on,,,,,2,0,1,,,,0,80,97
90480,note_on,,,,,2,0,1,,,,0,90,89
90510,note_off,,,,,30,0,1,,,,0,80,64
90530,note_off,,,,,20,0,1,,,,0,92,64
90538,note_off,,,,,8,0,1,,,,0,90,64
90556,note_on,,,,,18,0,1,,,,0,54,79
90558,note_on,,,,,2,0,1,,,,0,62,86
90562,note_on,,,,,4,0,1,,,,0,66,98
90566,note_on,,,,,4,0,1,,,,0,56,87
90592,note_off,,,,,26,0,1,,,,0,54,64
90594,note_off,,,,,2,0,1,,,,0,66,64
90600,note_off,,,,,6,0,1,,,,0,56,64
90602,note_off,,,,,2,0,1,,,,0,62,64
90636,note_on,,,,,0,0,1,,,,0,66,90
90636,note_on,,,,,34,0,1,,,,0,62,84
90642,note_on,,,,,6,0,1,,,,0,54,90
90644,note_on,,,,,2,0,1,,,,0,56,65
90680,note_off,,,,,36,0,1,,,,0,66,64
90682,note_off,,,,,2,0,1,,,,0,62,64
90698,note_off,,,,,16,0,1,,,,0,56,64
90708,note_on,,,,,0,0,1,,,,0,90,94
90708,note_off,,,,,10,0,1,,,,0,54,64
90708,note_on,,,,,0,0,1,,,,0,92,98
90710,note_on,,,,,2,0,1,,,,0,102,101
90732,note_off,,,,,22,0,1,,,,0,90,64
90736,note_off,,,,,4,0,1,,,,0,102,64
90738,note_off,,,,,2,0,1,,,,0,92,64
90788,note_on,,,,,50,0,1,,,,0,90,97
90788,note_on,,,,,0,0,1,,,,0,102,106
90790,note_on,,,,,2,0,1,,,,0,92,105
90824,note_off,,,,,0,0,1,,,,0,90,64
90824,note_off,,,,,34,0,1,,,,0,102,64
90848,note_off,,,,,24,0,1,,,,0,92,64
90866,note_on,,,,,18,0,1,,,,0,38,87
90872,note_on,,,,,6,0,1,,,,0,47,74
90874,note_on,,,,,2,0,1,,,,0,35,97
90898,note_off,,,,,24,0,1,,,,0,35,64
90904,note_off,,,,,6,0,1,,,,0,47,64
90920,note_off,,,,,16,0,1,,,,0,38,64
90962,note_on,,,,,42,0,1,,,,0,47,105
90964,note_on,,,,,2,0,1,,,,0,38,91
90968,note_on,,,,,4,0,1,,,,0,35,97
91034,note_off,,,,,0,0,1,,,,0,47,64
91034,note_off,,,,,66,0,1,,,,0,35,64
91040,note_on,,,,,6,0,1,,,,0,92,95
91042,note_on,,,,,2,0,1,,,,0,80,97
91044,note_on,,,,,2,0,1,,,,0,90,86
91048,note_off,,,,,4,0,1,,,,0,38,64
91072,note_off,,,,,24,0,1,,,,0,80,64
91074,note_off,,,,,2,0,1,,,,0,90,64
91080,note_off,,,,,6,0,1,,,,0,92,64
91124,note_on,,,,,44,0,1,,,,0,80,99
91126,note_on,,,,,2,0,1,,,,0,90,92
91128,note_on,,,,,2,0,1,,,,0,92,101
91180,note_off,,,,,52,0,1,,,,0,80,64
91192,note_off,,,,,12,0,1,,,,0,92,64
91196,note_off,,,,,4,0,1,,,,0,90,64
91206,note_on,,,,,10,0,1,,,,0,54,72
91208,note_on,,,,,2,0,1,,,,0,62,91
91212,note_on,,,,,4,0,1,,,,0,66,101
91214,note_on,,,,,2,0,1,,,,0,56,84
91236,note_off,,,,,22,0,1,,,,0,54,64
91246,note_off,,,,,10,0,1,,,,0,66,64
91250,note_off,,,,,4,0,1,,,,0,56,64
91252,note_off,,,,,2,0,1,,,,0,62,64
91288,note_on,,,,,36,0,1,,,,0,66,94
91290,note_on,,,,,0,0,1,,,,0,54,89
91290,note_on,,,,,2,0,1,,,,0,62,86
91294,note_on,,,,,4,0,1,,,,0,56,75
91328,note_off,,,,,34,0,1,,,,0,66,64
91332,note_off,,,,,4,0,1,,,,0,62,64
91352,note_off,,,,,0,0,1,,,,0,54,64
91352,note_off,,,,,20,0,1,,,,0,56,64
91366,note_on,,,,,14,0,1,,,,0,90,94
91368,note_on,,,,,2,0,1,,,,0,93,97
91368,note_on,,,,,0,0,1,,,,0,81,98
91400,note_off,,,,,32,0,1,,,,0,81,64
91406,note_off,,,,,6,0,1,,,,0,90,64
91408,note_off,,,,,2,0,1,,,,0,93,64
91456,note_on,,,,,48,0,1,,,,0,90,98
91460,note_on,,,,,4,0,1,,,,0,81,105
91460,note_on,,,,,0,0,1,,,,0,93,99
91536,note_on,,,,,0,0,1,,,,0,44,103
91536,note_on,,,,,76,0,1,,,,0,48,110
91538,note_on,,,,,2,0,1,,,,0,36,96
91542,note_off,,,,,4,0,1,,,,0,93,64
91568,note_off,,,,,26,0,1,,,,0,48,64
91574,note_off,,,,,6,0,1,,,,0,36,64
91576,note_off,,,,,2,0,1,,,,0,81,64
91582,note_off,,,,,6,0,1,,,,0,44,64
91606,note_off,,,,,24,0,1,,,,0,90,64
91632,note_on,,,,,26,0,1,,,,0,44,108
91634,note_on,,,,,2,0,1,,,,0,48,107
91636,note_on,,,,,2,0,1,,,,0,36,98
91640,control_change,,,,,4,0,1,,64,0,0,,
91656,control_change,,,,,16,0,1,,64,127,0,,
91680,note_off,,,,,24,0,1,,,,0,36,64
91692,note_off,,,,,12,0,1,,,,0,48,64
91696,note_off,,,,,4,0,1,,,,0,44,64
91720,note_on,,,,,24,0,1,,,,0,80,97
91720,note_on,,,,,0,0,1,,,,0,92,92
91722,note_on,,,,,2,0,1,,,,0,90,89
91752,note_off,,,,,30,0,1,,,,0,92,64
91752,note_off,,,,,0,0,1,,,,0,80,64
91764,note_off,,,,,12,0,1,,,,0,90,64
91808,note_on,,,,,0,0,1,,,,0,90,90
91808,note_on,,,,,0,0,1,,,,0,80,98
91808,note_on,,,,,44,0,1,,,,0,92,97
91840,note_off,,,,,32,0,1,,,,0,80,64
91866,note_off,,,,,26,0,1,,,,0,90,64
91868,note_off,,,,,2,0,1,,,,0,92,64
91880,note_on,,,,,12,0,1,,,,0,68,86
91884,note_on,,,,,4,0,1,,,,0,66,86
91886,note_on,,,,,2,0,1,,,,0,63,75
91890,note_on,,,,,4,0,1,,,,0,56,80
91924,note_off,,,,,34,0,1,,,,0,56,64
91928,note_off,,,,,0,0,1,,,,0,68,64
91928,note_off,,,,,4,0,1,,,,0,63,64
91932,note_off,,,,,4,0,1,,,,0,66,64
91980,note_on,,,,,0,0,1,,,,0,68,101
91980,note_on,,,,,48,0,1,,,,0,63,92
91982,note_on,,,,,2,0,1,,,,0,66,89
91984,note_on,,,,,2,0,1,,,,0,56,84
92028,note_off,,,,,44,0,1,,,,0,68,64
92036,note_off,,,,,8,0,1,,,,0,66,64
92046,note_off,,,,,10,0,1,,,,0,63,64
92058,note_off,,,,,12,0,1,,,,0,56,64
92060,note_on,,,,,0,0,1,,,,0,104,90
92060,note_on,,,,,0,0,1,,,,0,102,94
92060,note_on,,,,,2,0,1,,,,0,92,103
92096,note_off,,,,,36,0,1,,,,0,92,64
92110,note_off,,,,,14,0,1,,,,0,104,64
92110,note_off,,,,,0,0,1,,,,0,102,64
92154,note_on,,,,,44,0,1,,,,0,104,101
92156,note_on,,,,,0,0,1,,,,0,102,102
92156,note_on,,,,,2,0,1,,,,0,92,110
92242,note_on,,,,,86,0,1,,,,0,48,100
92242,note_on,,,,,0,0,1,,,,0,36,91
92244,note_on,,,,,2,0,1,,,,0,44,105
92252,note_off,,,,,8,0,1,,,,0,104,64
92258,note_off,,,,,6,0,1,,,,0,102,64
92270,note_off,,,,,12,0,1,,,,0,92,64
92276,note_off,,,,,6,0,1,,,,0,48,64
92280,note_off,,,,,4,0,1,,,,0,36,64
92286,note_off,,,,,6,0,1,,,,0,44,64
92336,note_on,,,,,0,0,1,,,,0,44,109
92336,note_on,,,,,50,0,1,,,,0,48,116
92338,note_on,,,,,2,0,1,,,,0,36,97
92360,control_change,,,,,22,0,1,,64,0,0,,
92364,control_change,,,,,4,0,1,,64,127,0,,
92408,note_off,,,,,44,0,1,,,,0,36,64
92424,note_off,,,,,16,0,1,,,,0,44,64
92428,note_on,,,,,0,0,1,,,,0,92,92
92428,note_off,,,,,4,0,1,,,,0,48,64
92430,note_on,,,,,2,0,1,,,,0,90,92
92432,note_on,,,,,2,0,1,,,,0,80,101
92462,note_off,,,,,30,0,1,,,,0,80,64
92466,note_off,,,,,4,0,1,,,,0,92,64
92474,note_off,,,,,8,0,1,,,,0,90,64
92532,note_on,,,,,58,0,1,,,,0,90,92
92532,note_on,,,,,0,0,1,,,,0,80,107
92534,note_on,,,,,2,0,1,,,,0,92,95
92620,note_on,,,,,86,0,1,,,,0,66,89
92622,note_on,,,,,2,0,1,,,,0,63,79
92624,note_on,,,,,2,0,1,,,,0,56,84
92628,note_on,,,,,4,0,1,,,,0,68,97
92662,note_off,,,,,34,0,1,,,,0,68,64
92664,note_off,,,,,2,0,1,,,,0,56,64
92668,note_off,,,,,4,0,1,,,,0,63,64
92672,note_off,,,,,4,0,1,,,,0,66,64
92692,note_off,,,,,20,0,1,,,,0,92,64
92702,note_off,,,,,10,0,1,,,,0,90,64
92708,note_off,,,,,6,0,1,,,,0,80,64
92718,note_on,,,,,10,0,1,,,,0,68,98
92718,note_on,,,,,0,0,1,,,,0,66,84
92720,note_on,,,,,2,0,1,,,,0,63,88
92722,note_on,,,,,2,0,1,,,,0,56,85
92810,note_on,,,,,88,0,1,,,,0,93,100
92812,note_on,,,,,2,0,1,,,,0,81,99
92828,note_off,,,,,16,0,1,,,,0,56,64
92830,note_off,,,,,2,0,1,,,,0,66,64
92832,note_off,,,,,2,0,1,,,,0,63,64
92840,note_off,,,,,8,0,1,,,,0,68,64
92848,note_off,,,,,0,0,1,,,,0,93,64
92848,note_off,,,,,8,0,1,,,,0,81,64
92920,note_on,,,,,72,0,1,,,,0,93,107
92920,note_on,,,,,0,0,1,,,,0,81,103
93014,note_on,,,,,94,0,1,,,,0,69,110
93016,note_on,,,,,2,0,1,,,,0,57,97
93028,note_off,,,,,12,0,1,,,,0,93,64
93046,note_off,,,,,18,0,1,,,,0,57,64
93046,note_off,,,,,0,0,1,,,,0,69,64
93062,note_off,,,,,16,0,1,,,,0,81,64
93106,note_on,,,,,44,0,1,,,,0,69,100
93110,note_on,,,,,4,0,1,,,,0,57,100
93184,note_off,,,,,74,0,1,,,,0,69,64
93192,note_on,,,,,0,0,1,,,,0,75,94
93192,note_on,,,,,8,0,1,,,,0,87,98
93204,note_off,,,,,12,0,1,,,,0,57,64
93224,note_off,,,,,20,0,1,,,,0,75,64
93226,note_off,,,,,2,0,1,,,,0,87,64
93278,note_on,,,,,52,0,1,,,,0,87,97
93280,note_on,,,,,2,0,1,,,,0,75,97
93324,note_off,,,,,44,0,1,,,,0,87,64
93332,note_off,,,,,8,0,1,,,,0,75,64
93356,note_on,,,,,24,0,1,,,,0,63,95
93358,note_on,,,,,2,0,1,,,,0,51,96
93390,note_off,,,,,32,0,1,,,,0,51,64
93390,note_off,,,,,0,0,1,,,,0,63,64
93432,note_on,,,,,42,0,1,,,,0,63,88
93436,note_on,,,,,4,0,1,,,,0,51,98
93482,note_off,,,,,46,0,1,,,,0,63,64
93492,note_off,,,,,10,0,1,,,,0,51,64
93512,note_on,,,,,20,0,1,,,,0,81,91
93512,note_on,,,,,0,0,1,,,,0,69,99
93540,note_off,,,,,28,0,1,,,,0,69,64
93540,note_off,,,,,0,0,1,,,,0,81,64
93596,note_on,,,,,56,0,1,,,,0,69,100
93598,note_on,,,,,2,0,1,,,,0,81,99
93632,note_off,,,,,34,0,1,,,,0,81,64
93632,note_off,,,,,0,0,1,,,,0,69,64
93668,note_on,,,,,36,0,1,,,,0,57,97
93670,note_on,,,,,2,0,1,,,,0,45,97
93698,note_off,,,,,28,0,1,,,,0,45,64
93700,note_off,,,,,2,0,1,,,,0,57,64
93746,note_on,,,,,46,0,1,,,,0,57,105
93748,note_on,,,,,2,0,1,,,,0,45,99
93790,note_off,,,,,42,0,1,,,,0,57,64
93812,note_off,,,,,22,0,1,,,,0,45,64
93818,note_on,,,,,6,0,1,,,,0,63,95
93820,note_on,,,,,2,0,1,,,,0,75,97
93850,note_off,,,,,30,0,1,,,,0,75,64
93850,note_off,,,,,0,0,1,,,,0,63,64
93904,note_on,,,,,54,0,1,,,,0,75,101
93904,note_on,,,,,0,0,1,,,,0,63,97
93938,note_off,,,,,34,0,1,,,,0,75,64
93944,note_off,,,,,6,0,1,,,,0,63,64
93976,note_on,,,,,0,0,1,,,,0,39,92
93976,note_on,,,,,32,0,1,,,,0,51,101
94004,note_off,,,,,28,0,1,,,,0,51,64
94010,note_off,,,,,6,0,1,,,,0,39,64
94050,note_on,,,,,40,0,1,,,,0,51,97
94054,note_on,,,,,4,0,1,,,,0,39,97
94098,note_off,,,,,44,0,1,,,,0,51,64
94112,note_off,,,,,14,0,1,,,,0,39,64
94126,note_on,,,,,14,0,1,,,,0,69,92
94126,note_on,,,,,0,0,1,,,,0,57,98
94152,note_off,,,,,26,0,1,,,,0,57,64
94156,note_off,,,,,4,0,1,,,,0,69,64
94208,note_on,,,,,52,0,1,,,,0,69,97
94208,note_on,,,,,0,0,1,,,,0,57,99
94250,note_off,,,,,42,0,1,,,,0,69,64
94272,note_off,,,,,22,0,1,,,,0,57,64
94280,note_on,,,,,8,0,1,,,,0,45,102
94280,note_on,,,,,0,0,1,,,,0,33,97
94314,note_off,,,,,34,0,1,,,,0,33,64
94314,note_off,,,,,0,0,1,,,,0,45,64
94362,note_on,,,,,0,0,1,,,,0,33,98
94362,note_on,,,,,48,0,1,,,,0,45,105
94374,control_change,,,,,12,0,1,,64,0,0,,
94406,control_change,,,,,32,0,1,,64,127,0,,
94424,note_off,,,,,18,0,1,,,,0,45,64
94434,note_off,,,,,10,0,1,,,,0,33,64
94436,note_on,,,,,2,0,1,,,,0,63,91
94438,note_on,,,,,2,0,1,,,,0,51,99
94468,note_off,,,,,30,0,1,,,,0,51,64
94472,note_off,,,,,4,0,1,,,,0,63,64
94524,note_on,,,,,52,0,1,,,,0,63,95
94526,note_on,,,,,2,0,1,,,,0,51,102
94562,note_off,,,,,36,0,1,,,,0,63,64
94572,note_off,,,,,10,0,1,,,,0,51,64
94596,note_on,,,,,24,0,1,,,,0,39,94
94596,note_on,,,,,0,0,1,,,,0,27,99
94628,note_off,,,,,32,0,1,,,,0,39,64
94632,note_off,,,,,4,0,1,,,,0,27,64
94690,note_on,,,,,58,0,1,,,,0,39,95
94692,note_on,,,,,2,0,1,,,,0,27,100
94746,control_change,,,,,54,0,1,,64,0,0,,
94776,note_on,,,,,30,0,1,,,,0,45,90
94776,note_on,,,,,0,0,1,,,,0,42,87
94778,note_on,,,,,2,0,1,,,,0,51,90
94814,note_off,,,,,36,0,1,,,,0,42,64
94816,control_change,,,,,2,0,1,,64,127,0,,
94826,note_off,,,,,10,0,1,,,,0,45,64
94830,note_off,,,,,4,0,1,,,,0,51,64
94850,note_off,,,,,20,0,1,,,,0,39,64
94864,note_off,,,,,14,0,1,,,,0,27,64
94868,note_on,,,,,4,0,1,,,,0,51,82
94868,note_on,,,,,0,0,1,,,,0,42,91
94870,note_on,,,,,2,0,1,,,,0,45,93
94956,note_on,,,,,86,0,1,,,,0,36,92
94956,note_on,,,,,0,0,1,,,,0,24,102
94992,note_off,,,,,0,0,1,,,,0,36,64
94992,note_off,,,,,36,0,1,,,,0,24,64
95000,note_off,,,,,8,0,1,,,,0,45,64
95038,note_off,,,,,38,0,1,,,,0,42,64
95050,note_off,,,,,12,0,1,,,,0,51,64
95056,note_on,,,,,0,0,1,,,,0,24,99
95056,note_on,,,,,6,0,1,,,,0,36,99
95128,control_change,,,,,72,0,1,,64,0,0,,
95140,note_on,,,,,12,0,1,,,,0,52,83
95142,note_on,,,,,2,0,1,,,,0,46,89
95144,note_on,,,,,2,0,1,,,,0,43,82
95178,note_off,,,,,34,0,1,,,,0,43,64
95186,note_off,,,,,8,0,1,,,,0,52,64
95188,note_off,,,,,2,0,1,,,,0,46,64
95200,control_change,,,,,12,0,1,,64,127,0,,
95228,note_on,,,,,28,0,1,,,,0,52,90
95228,note_on,,,,,0,0,1,,,,0,46,96
95232,note_on,,,,,4,0,1,,,,0,43,90
95248,note_off,,,,,16,0,1,,,,0,24,64
95254,note_off,,,,,6,0,1,,,,0,36,64
95300,note_off,,,,,46,0,1,,,,0,43,64
95306,note_on,,,,,6,0,1,,,,0,36,90
95308,note_on,,,,,2,0,1,,,,0,24,97
95312,note_off,,,,,4,0,1,,,,0,52,64
95314,note_off,,,,,2,0,1,,,,0,46,64
95338,note_off,,,,,24,0,1,,,,0,36,64
95340,note_off,,,,,2,0,1,,,,0,24,64
95392,note_on,,,,,52,0,1,,,,0,36,89
95392,note_on,,,,,0,0,1,,,,0,24,100
95466,note_on,,,,,74,0,1,,,,0,53,87
95466,note_on,,,,,0,0,1,,,,0,44,88
95472,note_on,,,,,6,0,1,,,,0,47,90
95502,note_off,,,,,30,0,1,,,,0,44,64
95512,note_off,,,,,10,0,1,,,,0,53,64
95514,note_off,,,,,2,0,1,,,,0,47,64
95544,note_on,,,,,30,0,1,,,,0,53,92
95544,note_on,,,,,0,0,1,,,,0,47,89
95550,note_on,,,,,6,0,1,,,,0,44,99
95570,note_off,,,,,20,0,1,,,,0,36,64
95572,note_off,,,,,2,0,1,,,,0,24,64
95576,control_change,,,,,4,0,1,,64,0,0,,
95610,control_change,,,,,34,0,1,,64,127,0,,
95628,note_on,,,,,18,0,1,,,,0,36,98
95628,note_on,,,,,0,0,1,,,,0,24,99
95660,note_off,,,,,32,0,1,,,,0,53,64
95668,note_off,,,,,8,0,1,,,,0,36,64
95668,note_off,,,,,0,0,1,,,,0,44,64
95668,note_off,,,,,0,0,1,,,,0,47,64
95670,note_off,,,,,2,0,1,,,,0,24,64
95712,note_on,,,,,42,0,1,,,,0,24,102
95714,note_on,,,,,2,0,1,,,,0,36,98
95788,note_on,,,,,0,0,1,,,,0,45,91
95788,note_on,,,,,74,0,1,,,,0,54,89
95790,note_on,,,,,2,0,1,,,,0,51,91
95824,note_off,,,,,34,0,1,,,,0,45,64
95832,note_off,,,,,8,0,1,,,,0,51,64
95834,note_off,,,,,2,0,1,,,,0,54,64
95872,note_on,,,,,38,0,1,,,,0,51,94
95874,note_on,,,,,2,0,1,,,,0,54,84
95876,note_on,,,,,2,0,1,,,,0,45,98
95898,note_off,,,,,22,0,1,,,,0,36,64
95900,note_off,,,,,2,0,1,,,,0,24,64
95958,note_on,,,,,58,0,1,,,,0,36,96
95960,note_on,,,,,2,0,1,,,,0,24,103
95968,control_change,,,,,8,0,1,,64,0,0,,
95994,note_off,,,,,0,0,1,,,,0,36,64
95994,note_off,,,,,26,0,1,,,,0,24,64
95998,control_change,,,,,4,0,1,,64,127,0,,
96018,note_off,,,,,20,0,1,,,,0,51,64
96026,note_off,,,,,8,0,1,,,,0,45,64
96040,note_on,,,,,14,0,1,,,,0,24,99
96042,note_on,,,,,2,0,1,,,,0,36,98
96044,note_off,,,,,2,0,1,,,,0,54,64
96128,note_on,,,,,84,0,1,,,,0,52,100
96132,note_on,,,,,4,0,1,,,,0,46,99
96134,note_on,,,,,2,0,1,,,,0,55,82
96158,note_off,,,,,24,0,1,,,,0,52,64
96164,note_off,,,,,6,0,1,,,,0,46,64
96176,note_off,,,,,12,0,1,,,,0,55,64
96212,note_on,,,,,0,0,1,,,,0,52,81
96212,note_on,,,,,36,0,1,,,,0,55,74
96216,note_on,,,,,4,0,1,,,,0,46,105
96240,note_off,,,,,24,0,1,,,,0,24,64
96242,note_off,,,,,2,0,1,,,,0,36,64
96276,control_change,,,,,34,0,1,,64,0,0,,
96300,note_on,,,,,24,0,1,,,,0,36,102
96300,note_on,,,,,0,0,1,,,,0,24,103
96308,control_change,,,,,8,0,1,,64,127,0,,
96340,note_off,,,,,0,0,1,,,,0,55,64
96340,note_off,,,,,32,0,1,,,,0,24,64
96342,note_off,,,,,2,0,1,,,,0,36,64
96348,note_off,,,,,6,0,1,,,,0,46,64
96358,note_off,,,,,10,0,1,,,,0,52,64
96380,note_on,,,,,0,0,1,,,,0,24,98
96380,note_on,,,,,22,0,1,,,,0,36,87
96456,note_on,,,,,76,0,1,,,,0,53,91
96458,note_on,,,,,2,0,1,,,,0,56,92
96464,note_on,,,,,6,0,1,,,,0,47,73
96496,note_off,,,,,32,0,1,,,,0,47,64
96504,note_off,,,,,8,0,1,,,,0,56,64
96506,note_off,,,,,2,0,1,,,,0,53,64
96540,note_on,,,,,34,0,1,,,,0,53,89
96544,note_on,,,,,4,0,1,,,,0,56,85
96544,note_on,,,,,0,0,1,,,,0,47,99
96552,note_off,,,,,8,0,1,,,,0,36,64
96556,note_off,,,,,4,0,1,,,,0,24,64
96590,control_change,,,,,34,0,1,,64,0,0,,
96616,control_change,,,,,26,0,1,,64,127,0,,
96636,note_on,,,,,20,0,1,,,,0,36,99
96638,note_on,,,,,2,0,1,,,,0,24,105
96660,note_off,,,,,22,0,1,,,,0,47,64
96664,note_off,,,,,4,0,1,,,,0,53,64
96672,note_off,,,,,8,0,1,,,,0,56,64
96696,note_off,,,,,24,0,1,,,,0,36,64
96700,note_off,,,,,4,0,1,,,,0,24,64
96724,note_on,,,,,0,0,1,,,,0,24,93
96724,note_on,,,,,24,0,1,,,,0,36,88
96790,note_off,,,,,66,0,1,,,,0,24,64
96798,note_off,,,,,8,0,1,,,,0,36,64
96818,note_on,,,,,20,0,1,,,,0,54,90
96820,note_on,,,,,2,0,1,,,,0,51,94
96820,note_on,,,,,0,0,1,,,,0,48,99
96822,note_on,,,,,2,0,1,,,,0,57,95
96856,note_off,,,,,34,0,1,,,,0,48,64
96862,note_off,,,,,6,0,1,,,,0,51,64
96868,note_off,,,,,6,0,1,,,,0,57,64
96872,note_off,,,,,4,0,1,,,,0,54,64
96912,note_on,,,,,40,0,1,,,,0,54,88
96914,note_on,,,,,2,0,1,,,,0,51,98
96916,note_on,,,,,2,0,1,,,,0,57,96
96916,note_on,,,,,0,0,1,,,,0,48,98
96976,control_change,,,,,60,0,1,,64,0,0,,
97010,note_on,,,,,34,0,1,,,,0,45,107
97012,note_on,,,,,2,0,1,,,,0,33,93
97040,control_change,,,,,28,0,1,,64,127,0,,
97046,note_off,,,,,6,0,1,,,,0,33,64
97048,note_off,,,,,2,0,1,,,,0,45,64
97102,note_on,,,,,54,0,1,,,,0,45,105
97104,note_on,,,,,2,0,1,,,,0,33,100
97108,note_off,,,,,4,0,1,,,,0,48,64
97108,note_off,,,,,0,0,1,,,,0,57,64
97114,note_off,,,,,6,0,1,,,,0,51,64
97120,note_off,,,,,6,0,1,,,,0,54,64
97198,note_on,,,,,78,0,1,,,,0,57,102
97234,note_off,,,,,36,0,1,,,,0,33,64
97238,note_off,,,,,4,0,1,,,,0,45,64
97296,note_on,,,,,58,0,1,,,,0,56,110
97322,note_off,,,,,26,0,1,,,,0,57,64
97396,note_on,,,,,74,0,1,,,,0,44,98
97396,note_on,,,,,0,0,1,,,,0,32,97
97408,control_change,,,,,12,0,1,,64,0,0,,
97448,control_change,,,,,40,0,1,,64,127,0,,
97456,note_off,,,,,8,0,1,,,,0,32,64
97458,note_off,,,,,2,0,1,,,,0,44,64
97522,note_on,,,,,0,0,1,,,,0,30,97
97522,note_on,,,,,64,0,1,,,,0,42,97
97540,control_change,,,,,18,0,1,,64,0,0,,
97616,control_change,,,,,76,0,1,,64,127,0,,
97636,note_on,,,,,20,0,1,,,,0,54,96
97646,note_off,,,,,10,0,1,,,,0,42,64
97650,note_off,,,,,4,0,1,,,,0,30,64
97656,note_off,,,,,6,0,1,,,,0,56,64
97684,note_off,,,,,28,0,1,,,,0,54,64
97716,set_tempo,,,,,17748,1,0,375000,,,,,
97732,set_tempo,,,,,16,1,0,372671,,,,,
97748,set_tempo,,,,,16,1,0,370370,,,,,
97764,set_tempo,,,,,16,1,0,368098,,,,,
97768,control_change,,,,,84,0,1,,64,0,0,,
97780,set_tempo,,,,,16,1,0,365854,,,,,
97790,note_on,,,,,22,0,1,,,,0,49,89
97792,note_on,,,,,0,0,1,,,,0,37,90
97792,note_on,,,,,2,0,1,,,,0,61,82
97796,set_tempo,,,,,16,1,0,363636,,,,,
97848,note_on,,,,,56,0,1,,,,0,73,57
97856,note_off,,,,,8,0,1,,,,0,61,64
97866,control_change,,,,,10,0,1,,64,127,0,,
97896,note_off,,,,,30,0,1,,,,0,73,64
97920,set_tempo,,,,,124,1,0,291262,,,,,
97922,note_on,,,,,26,0,1,,,,0,60,68
97966,note_off,,,,,44,0,1,,,,0,60,64
97974,note_on,,,,,8,0,1,,,,0,72,64
97984,note_off,,,,,10,0,1,,,,0,49,64
98002,note_off,,,,,18,0,1,,,,0,37,64
98008,note_off,,,,,6,0,1,,,,0,72,64
98048,note_on,,,,,40,0,1,,,,0,61,80
98092,note_off,,,,,44,0,1,,,,0,61,64
98108,note_on,,,,,16,0,1,,,,0,73,52
98112,control_change,,,,,4,0,1,,64,0,0,,
98150,note_off,,,,,38,0,1,,,,0,73,64
98174,note_on,,,,,24,0,1,,,,0,60,56
98226,note_off,,,,,52,0,1,,,,0,60,64
98232,note_on,,,,,6,0,1,,,,0,72,72
98272,note_off,,,,,40,0,1,,,,0,72,64
98296,note_on,,,,,24,0,1,,,,0,48,78
98298,note_on,,,,,2,0,1,,,,0,36,69
98304,note_on,,,,,6,0,1,,,,0,61,80
98328,note_off,,,,,0,0,1,,,,0,48,64
98328,note_off,,,,,24,0,1,,,,0,36,64
98358,note_off,,,,,30,0,1,,,,0,61,64
98358,note_on,,,,,0,0,1,,,,0,73,66
98386,note_off,,,,,28,0,1,,,,0,73,64
98426,note_on,,,,,40,0,1,,,,0,60,70
98426,note_on,,,,,0,0,1,,,,0,49,79
98430,note_on,,,,,4,0,1,,,,0,37,74
98464,note_off,,,,,34,0,1,,,,0,49,64
98468,note_off,,,,,4,0,1,,,,0,37,64
98482,note_off,,,,,14,0,1,,,,0,60,64
98484,note_on,,,,,2,0,1,,,,0,72,63
98518,note_off,,,,,34,0,1,,,,0,72,64
98560,note_on,,,,,42,0,1,,,,0,61,72
98564,note_on,,,,,4,0,1,,,,0,50,87
98566,note_on,,,,,2,0,1,,,,0,38,88
98568,note_on,,,,,2,0,1,,,,0,66,60
98610,note_off,,,,,42,0,1,,,,0,61,64
98614,control_change,,,,,4,0,1,,64,127,0,,
98618,note_off,,,,,4,0,1,,,,0,50,64
98620,note_off,,,,,2,0,1,,,,0,38,64
98634,note_off,,,,,14,0,1,,,,0,66,64
98636,note_on,,,,,2,0,1,,,,0,73,57
98678,note_off,,,,,42,0,1,,,,0,73,64
98700,note_on,,,,,22,0,1,,,,0,60,72
98702,control_change,,,,,2,0,1,,64,0,0,,
98704,note_on,,,,,2,0,1,,,,0,42,79
98706,note_on,,,,,2,0,1,,,,0,54,85
98740,note_off,,,,,34,0,1,,,,0,60,64
98744,note_off,,,,,4,0,1,,,,0,54,64
98746,note_off,,,,,2,0,1,,,,0,42,64
98758,note_on,,,,,12,0,1,,,,0,72,56
98782,note_off,,,,,24,0,1,,,,0,72,64
98820,note_on,,,,,0,0,1,,,,0,59,75
98820,note_on,,,,,38,0,1,,,,0,61,79
98824,note_on,,,,,4,0,1,,,,0,47,76
98856,note_off,,,,,32,0,1,,,,0,47,64
98858,note_off,,,,,2,0,1,,,,0,59,64
98878,note_on,,,,,20,0,1,,,,0,73,54
98880,note_off,,,,,2,0,1,,,,0,61,64
98928,note_off,,,,,48,0,1,,,,0,73,64
98946,note_on,,,,,18,0,1,,,,0,48,81
98950,note_on,,,,,4,0,1,,,,0,60,77
98996,note_off,,,,,46,0,1,,,,0,48,64
99000,note_off,,,,,4,0,1,,,,0,60,64
99016,note_on,,,,,16,0,1,,,,0,72,63
99028,set_tempo,,,,,1108,1,0,289855,,,,,
99046,note_off,,,,,30,0,1,,,,0,72,64
99048,set_tempo,,,,,20,1,0,288462,,,,,
99064,set_tempo,,,,,16,1,0,285714,,,,,
99074,note_on,,,,,28,0,1,,,,0,49,78
99082,note_on,,,,,8,0,1,,,,0,61,80
99084,set_tempo,,,,,20,1,0,284360,,,,,
99100,set_tempo,,,,,16,1,0,283019,,,,,
99120,set_tempo,,,,,20,1,0,281690,,,,,
99128,note_off,,,,,46,0,1,,,,0,49,64
99136,set_tempo,,,,,16,1,0,279070,,,,,
99144,note_off,,,,,16,0,1,,,,0,61,64
99150,note_on,,,,,6,0,1,,,,0,73,57
99156,set_tempo,,,,,20,1,0,277778,,,,,
99172,set_tempo,,,,,16,1,0,276498,,,,,
99192,set_tempo,,,,,20,1,0,275229,,,,,
99196,note_off,,,,,46,0,1,,,,0,73,64
99202,note_on,,,,,6,0,1,,,,0,50,79
99208,set_tempo,,,,,16,1,0,272727,,,,,
99218,note_on,,,,,16,0,1,,,,0,60,69
99228,set_tempo,,,,,20,1,0,271493,,,,,
99236,note_off,,,,,18,0,1,,,,0,50,64
99244,set_tempo,,,,,16,1,0,270270,,,,,
99260,set_tempo,,,,,16,1,0,269058,,,,,
99262,note_on,,,,,26,0,1,,,,0,72,62
99264,set_tempo,,,,,4,1,0,270270,,,,,
99264,note_off,,,,,2,0,1,,,,0,60,64
99268,set_tempo,,,,,4,1,0,271493,,,,,
99272,set_tempo,,,,,4,1,0,272727,,,,,
99276,set_tempo,,,,,4,1,0,275229,,,,,
99280,set_tempo,,,,,4,1,0,276498,,,,,
99284,set_tempo,,,,,4,1,0,277778,,,,,
99288,set_tempo,,,,,4,1,0,279070,,,,,
99292,set_tempo,,,,,4,1,0,281690,,,,,
99296,set_tempo,,,,,4,1,0,283019,,,,,
99300,set_tempo,,,,,4,1,0,284360,,,,,
99304,set_tempo,,,,,4,1,0,285714,,,,,
99308,set_tempo,,,,,4,1,0,288462,,,,,
99312,set_tempo,,,,,4,1,0,289855,,,,,
99316,set_tempo,,,,,4,1,0,291262,,,,,
99324,note_off,,,,,60,0,1,,,,0,72,64
99350,note_on,,,,,26,0,1,,,,0,61,81
99352,note_on,,,,,2,0,1,,,,0,51,97
99356,note_on,,,,,4,0,1,,,,0,39,87
99360,note_on,,,,,4,0,1,,,,0,67,83
99404,note_off,,,,,44,0,1,,,,0,61,64
99424,note_on,,,,,20,0,1,,,,0,73,55
99430,note_off,,,,,6,0,1,,,,0,67,64
99478,note_off,,,,,48,0,1,,,,0,73,64
99486,note_on,,,,,8,0,1,,,,0,60,72
99528,note_off,,,,,42,0,1,,,,0,60,64
99540,note_on,,,,,12,0,1,,,,0,72,56
99574,note_off,,,,,34,0,1,,,,0,72,64
99604,control_change,,,,,30,0,1,,64,127,0,,
99612,note_on,,,,,8,0,1,,,,0,61,80
99656,note_off,,,,,44,0,1,,,,0,61,64
99678,note_on,,,,,22,0,1,,,,0,73,49
99684,note_off,,,,,6,0,1,,,,0,51,64
99684,control_change,,,,,0,0,1,,64,0,0,,
99700,note_off,,,,,16,0,1,,,,0,39,64
99718,note_off,,,,,18,0,1,,,,0,73,64
99736,note_on,,,,,18,0,1,,,,0,60,72
99776,note_off,,,,,40,0,1,,,,0,60,64
99798,note_on,,,,,22,0,1,,,,0,72,50
99818,note_off,,,,,20,0,1,,,,0,72,64
99856,note_on,,,,,38,0,1,,,,0,50,78
99858,note_on,,,,,2,0,1,,,,0,61,79
99858,note_on,,,,,0,0,1,,,,0,38,72
99880,note_off,,,,,22,0,1,,,,0,50,64
99882,note_off,,,,,2,0,1,,,,0,38,64
99900,note_off,,,,,18,0,1,,,,0,61,64
99908,note_on,,,,,8,0,1,,,,0,73,48
99962,note_off,,,,,54,0,1,,,,0,73,64
99982,note_on,,,,,20,0,1,,,,0,60,70
99984,note_on,,,,,2,0,1,,,,0,51,87
99984,note_on,,,,,0,0,1,,,,0,39,74
100008,note_off,,,,,24,0,1,,,,0,51,64
100012,note_off,,,,,4,0,1,,,,0,39,64
100022,note_off,,,,,10,0,1,,,,0,60,64
100034,note_on,,,,,12,0,1,,,,0,72,56
100064,note_off,,,,,30,0,1,,,,0,72,64
100114,note_on,,,,,50,0,1,,,,0,52,92
100114,note_on,,,,,0,0,1,,,,0,40,85
100116,note_on,,,,,2,0,1,,,,0,61,71
100122,note_on,,,,,6,0,1,,,,0,68,71
100156,control_change,,,,,34,0,1,,64,127,0,,
100160,note_off,,,,,4,0,1,,,,0,61,64
100172,note_on,,,,,0,0,1,,,,0,73,48
100172,note_off,,,,,12,0,1,,,,0,40,64
100176,note_off,,,,,4,0,1,,,,0,52,64
100184,note_off,,,,,8,0,1,,,,0,68,64
100228,note_off,,,,,44,0,1,,,,0,73,64
100232,control_change,,,,,4,0,1,,64,0,0,,
100246,note_on,,,,,14,0,1,,,,0,60,72
100252,note_on,,,,,6,0,1,,,,0,56,93
100256,note_on,,,,,4,0,1,,,,0,44,87
100286,note_off,,,,,30,0,1,,,,0,60,64
100288,note_off,,,,,2,0,1,,,,0,56,64
100290,note_on,,,,,0,0,1,,,,0,72,61
100290,note_off,,,,,2,0,1,,,,0,44,64
100324,note_off,,,,,34,0,1,,,,0,72,64
100368,note_on,,,,,44,0,1,,,,0,61,76
100372,note_on,,,,,4,0,1,,,,0,59,82
100374,note_on,,,,,2,0,1,,,,0,47,85
100406,note_off,,,,,32,0,1,,,,0,59,64
100408,note_off,,,,,2,0,1,,,,0,47,64
100428,note_on,,,,,20,0,1,,,,0,73,52
100430,note_off,,,,,2,0,1,,,,0,61,64
100478,note_off,,,,,48,0,1,,,,0,73,64
100496,note_on,,,,,18,0,1,,,,0,48,82
100500,note_on,,,,,4,0,1,,,,0,60,77
100544,note_off,,,,,44,0,1,,,,0,48,64
100552,note_off,,,,,8,0,1,,,,0,60,64
100554,note_on,,,,,2,0,1,,,,0,72,51
100584,note_off,,,,,30,0,1,,,,0,72,64
100622,note_on,,,,,38,0,1,,,,0,49,80
100624,note_on,,,,,2,0,1,,,,0,61,82
100670,note_off,,,,,46,0,1,,,,0,49,64
100680,note_off,,,,,10,0,1,,,,0,61,64
100686,note_on,,,,,6,0,1,,,,0,73,53
100746,note_off,,,,,60,0,1,,,,0,73,64
100750,note_on,,,,,4,0,1,,,,0,52,72
100752,note_on,,,,,2,0,1,,,,0,60,76
100784,note_off,,,,,32,0,1,,,,0,52,64
100812,note_off,,,,,28,0,1,,,,0,60,64
100822,note_on,,,,,10,0,1,,,,0,72,46
100890,note_on,,,,,0,0,1,,,,0,53,81
100890,note_off,,,,,68,0,1,,,,0,72,64
100892,note_on,,,,,2,0,1,,,,0,41,88
100896,note_on,,,,,4,0,1,,,,0,68,75
100896,note_on,,,,,0,0,1,,,,0,61,69
100942,note_off,,,,,46,0,1,,,,0,61,64
100972,note_off,,,,,30,0,1,,,,0,68,64
100976,note_on,,,,,4,0,1,,,,0,73,67
101020,note_off,,,,,44,0,1,,,,0,73,64
101040,note_on,,,,,20,0,1,,,,0,60,77
101082,note_off,,,,,42,0,1,,,,0,60,64
101104,note_on,,,,,22,0,1,,,,0,72,55
101130,note_off,,,,,26,0,1,,,,0,72,64
101156,control_change,,,,,26,0,1,,64,127,0,,
101160,note_on,,,,,4,0,1,,,,0,61,77
101184,note_off,,,,,24,0,1,,,,0,53,64
101188,note_off,,,,,4,0,1,,,,0,41,64
101210,note_off,,,,,22,0,1,,,,0,61,64
101224,note_on,,,,,14,0,1,,,,0,73,74
101256,note_off,,,,,32,0,1,,,,0,73,64
101296,note_on,,,,,40,0,1,,,,0,54,82
101298,note_on,,,,,2,0,1,,,,0,42,79
101300,note_on,,,,,2,0,1,,,,0,69,77
101304,note_on,,,,,4,0,1,,,,0,60,67
101314,control_change,,,,,10,0,1,,64,0,0,,
101336,note_off,,,,,22,0,1,,,,0,60,64
101360,note_off,,,,,24,0,1,,,,0,69,64
101364,note_on,,,,,4,0,1,,,,0,72,72
101392,note_off,,,,,28,0,1,,,,0,72,64
101412,control_change,,,,,20,0,1,,64,127,0,,
101432,note_on,,,,,20,0,1,,,,0,61,74
101464,note_off,,,,,32,0,1,,,,0,61,64
101470,note_off,,,,,6,0,1,,,,0,54,64
101490,note_off,,,,,20,0,1,,,,0,42,64
101494,control_change,,,,,4,0,1,,64,0,0,,
101504,control_change,,,,,10,0,1,,64,127,0,,
101508,note_on,,,,,4,0,1,,,,0,73,76
101512,set_tempo,,,,,2196,1,0,292683,,,,,
101544,note_off,,,,,36,0,1,,,,0,73,64
101560,set_tempo,,,,,48,1,0,291262,,,,,
101576,note_on,,,,,32,0,1,,,,0,62,73
101608,set_tempo,,,,,48,1,0,289855,,,,,
101614,note_off,,,,,38,0,1,,,,0,62,64
101642,note_on,,,,,28,0,1,,,,0,74,66
101656,set_tempo,,,,,48,1,0,288462,,,,,
101680,note_off,,,,,38,0,1,,,,0,74,64
101704,set_tempo,,,,,48,1,0,285714,,,,,
101714,control_change,,,,,34,0,1,,64,0,0,,
101728,note_on,,,,,0,0,1,,,,0,43,74
101728,note_on,,,,,14,0,1,,,,0,55,80
101734,note_on,,,,,6,0,1,,,,0,73,69
101740,note_on,,,,,6,0,1,,,,0,63,73
101752,set_tempo,,,,,48,1,0,284360,,,,,
101774,note_off,,,,,34,0,1,,,,0,63,64
101780,note_off,,,,,6,0,1,,,,0,73,64
101798,note_on,,,,,18,0,1,,,,0,75,74
101800,set_tempo,,,,,48,1,0,283019,,,,,
101848,set_tempo,,,,,48,1,0,281690,,,,,
101854,note_off,,,,,56,0,1,,,,0,75,64
101888,control_change,,,,,34,0,1,,64,127,0,,
101890,note_on,,,,,2,0,1,,,,0,64,77
101892,note_on,,,,,2,0,1,,,,0,73,81
101896,set_tempo,,,,,48,1,0,279070,,,,,
101896,note_off,,,,,4,0,1,,,,0,55,64
101904,note_off,,,,,8,0,1,,,,0,43,64
101920,note_off,,,,,16,0,1,,,,0,64,64
101944,set_tempo,,,,,48,1,0,277778,,,,,
101948,note_off,,,,,28,0,1,,,,0,73,64
101956,note_on,,,,,8,0,1,,,,0,76,66
101980,control_change,,,,,24,0,1,,64,0,0,,
101992,set_tempo,,,,,48,1,0,276498,,,,,
101998,note_off,,,,,18,0,1,,,,0,76,64
102040,note_on,,,,,42,0,1,,,,0,65,74
102040,set_tempo,,,,,48,1,0,275229,,,,,
102040,note_on,,,,,0,0,1,,,,0,56,86
102042,note_on,,,,,2,0,1,,,,0,44,77
102044,note_on,,,,,2,0,1,,,,0,73,82
102078,note_off,,,,,34,0,1,,,,0,65,64
102080,control_change,,,,,2,0,1,,64,127,0,,
102088,set_tempo,,,,,48,1,0,272727,,,,,
102106,note_off,,,,,26,0,1,,,,0,56,64
102108,note_on,,,,,2,0,1,,,,0,77,61
102110,note_off,,,,,2,0,1,,,,0,73,64
102112,note_off,,,,,2,0,1,,,,0,44,64
102136,set_tempo,,,,,48,1,0,271493,,,,,
102144,note_off,,,,,32,0,1,,,,0,77,64
102178,control_change,,,,,34,0,1,,64,0,0,,
102180,set_tempo,,,,,44,1,0,270270,,,,,
102206,note_on,,,,,28,0,1,,,,0,66,74
102212,note_on,,,,,0,0,1,,,,0,57,78
102212,note_on,,,,,6,0,1,,,,0,73,74
102218,note_on,,,,,6,0,1,,,,0,45,83
102224,note_off,,,,,6,0,1,,,,0,73,64
102228,set_tempo,,,,,48,1,0,269058,,,,,
102260,note_off,,,,,36,0,1,,,,0,66,64
102264,note_off,,,,,4,0,1,,,,0,45,64
102268,control_change,,,,,4,0,1,,64,127,0,,
102270,note_off,,,,,2,0,1,,,,0,57,64
102276,set_tempo,,,,,48,1,0,266667,,,,,
102298,note_on,,,,,28,0,1,,,,0,78,82
102324,set_tempo,,,,,48,1,0,265487,,,,,
102344,note_off,,,,,46,0,1,,,,0,78,64
102372,set_tempo,,,,,48,1,0,264317,,,,,
102388,control_change,,,,,44,0,1,,64,0,0,,
102390,note_on,,,,,2,0,1,,,,0,56,85
102396,note_on,,,,,0,0,1,,,,0,44,82
102396,note_on,,,,,6,0,1,,,,0,68,83
102400,note_on,,,,,4,0,1,,,,0,73,72
102420,set_tempo,,,,,48,1,0,263158,,,,,
102438,note_off,,,,,38,0,1,,,,0,68,64
102444,note_off,,,,,6,0,1,,,,0,56,64
102456,note_off,,,,,12,0,1,,,,0,44,64
102460,control_change,,,,,4,0,1,,64,127,0,,
102468,set_tempo,,,,,48,1,0,260870,,,,,
102486,note_on,,,,,26,0,1,,,,0,80,76
102492,note_off,,,,,6,0,1,,,,0,73,64
102516,set_tempo,,,,,48,1,0,259740,,,,,
102536,note_off,,,,,44,0,1,,,,0,80,64
102564,set_tempo,,,,,48,1,0,258621,,,,,
102596,control_change,,,,,60,0,1,,64,0,0,,
102598,note_on,,,,,0,0,1,,,,0,42,79
102598,note_on,,,,,2,0,1,,,,0,69,68
102600,note_on,,,,,0,0,1,,,,0,54,87
102600,note_on,,,,,2,0,1,,,,0,73,79
102612,set_tempo,,,,,48,1,0,257511,,,,,
102642,note_off,,,,,42,0,1,,,,0,69,64
102660,set_tempo,,,,,48,1,0,255319,,,,,
102670,control_change,,,,,28,0,1,,64,127,0,,
102680,note_off,,,,,10,0,1,,,,0,73,64
102698,note_on,,,,,18,0,1,,,,0,81,76
102708,note_off,,,,,10,0,1,,,,0,42,64
102708,set_tempo,,,,,48,1,0,254237,,,,,
102710,note_off,,,,,2,0,1,,,,0,54,64
102724,note_off,,,,,14,0,1,,,,0,81,64
102756,set_tempo,,,,,48,1,0,253165,,,,,
102800,set_tempo,,,,,44,1,0,252101,,,,,
102804,set_tempo,,,,,4,1,0,248963,,,,,
102808,set_tempo,,,,,4,1,0,250000,,,,,
102812,set_tempo,,,,,4,1,0,252101,,,,,
102820,set_tempo,,,,,8,1,0,253165,,,,,
102824,set_tempo,,,,,4,1,0,254237,,,,,
102826,control_change,,,,,102,0,1,,64,0,0,,
102828,set_tempo,,,,,4,1,0,255319,,,,,
102832,set_tempo,,,,,4,1,0,257511,,,,,
102836,set_tempo,,,,,4,1,0,258621,,,,,
102844,set_tempo,,,,,8,1,0,259740,,,,,
102844,note_on,,,,,18,0,1,,,,0,73,87
102844,note_on,,,,,0,0,1,,,,0,49,84
102846,note_on,,,,,0,0,1,,,,0,37,80
102846,note_on,,,,,2,0,1,,,,0,85,93
102848,set_tempo,,,,,4,1,0,260870,,,,,
102852,set_tempo,,,,,4,1,0,263158,,,,,
102856,set_tempo,,,,,4,1,0,264317,,,,,
102860,set_tempo,,,,,4,1,0,265487,,,,,
102864,set_tempo,,,,,4,1,0,266667,,,,,
102872,set_tempo,,,,,8,1,0,269058,,,,,
102876,set_tempo,,,,,4,1,0,270270,,,,,
102880,set_tempo,,,,,4,1,0,271493,,,,,
102884,set_tempo,,,,,4,1,0,272727,,,,,
102888,set_tempo,,,,,4,1,0,275229,,,,,
102896,set_tempo,,,,,8,1,0,276498,,,,,
102900,set_tempo,,,,,4,1,0,277778,,,,,
102904,set_tempo,,,,,4,1,0,279070,,,,,
102906,note_off,,,,,60,0,1,,,,0,37,64
102908,set_tempo,,,,,4,1,0,281690,,,,,
102910,control_change,,,,,0,0,1,,64,127,0,,
102910,note_off,,,,,4,0,1,,,,0,49,64
102912,set_tempo,,,,,4,1,0,283019,,,,,
102916,set_tempo,,,,,4,1,0,284360,,,,,
102920,set_tempo,,,,,4,1,0,269058,,,,,
102924,set_tempo,,,,,4,1,0,270270,,,,,
102928,set_tempo,,,,,4,1,0,271493,,,,,
102932,set_tempo,,,,,4,1,0,272727,,,,,
102936,set_tempo,,,,,4,1,0,275229,,,,,
102940,set_tempo,,,,,4,1,0,276498,,,,,
102944,set_tempo,,,,,4,1,0,277778,,,,,
102948,set_tempo,,,,,4,1,0,279070,,,,,
102952,set_tempo,,,,,4,1,0,281690,,,,,
102956,set_tempo,,,,,4,1,0,283019,,,,,
102960,set_tempo,,,,,4,1,0,284360,,,,,
103076,control_change,,,,,166,0,1,,64,0,0,,
103078,note_on,,,,,2,0,1,,,,0,49,79
103140,control_change,,,,,62,0,1,,64,127,0,,
103148,note_on,,,,,8,0,1,,,,0,61,67
103172,note_off,,,,,24,0,1,,,,0,49,64
103196,note_off,,,,,24,0,1,,,,0,61,64
103224,note_on,,,,,28,0,1,,,,0,48,85
103230,note_off,,,,,6,0,1,,,,0,85,64
103248,note_off,,,,,18,0,1,,,,0,73,64
103254,control_change,,,,,6,0,1,,64,0,0,,
103298,note_on,,,,,0,0,1,,,,0,60,77
103298,note_off,,,,,44,0,1,,,,0,48,64
103308,control_change,,,,,10,0,1,,64,127,0,,
103336,note_off,,,,,28,0,1,,,,0,60,64
103368,note_on,,,,,32,0,1,,,,0,49,71
103386,control_change,,,,,18,0,1,,64,0,0,,
103422,control_change,,,,,36,0,1,,64,127,0,,
103440,note_on,,,,,18,0,1,,,,0,61,70
103448,note_off,,,,,8,0,1,,,,0,49,64
103484,note_off,,,,,36,0,1,,,,0,61,64
103512,note_on,,,,,0,0,1,,,,0,48,83
103512,note_on,,,,,28,0,1,,,,0,84,74
103516,note_on,,,,,4,0,1,,,,0,72,70
103542,control_change,,,,,26,0,1,,64,0,0,,
103548,note_off,,,,,6,0,1,,,,0,72,64
103560,note_off,,,,,12,0,1,,,,0,84,64
103574,note_off,,,,,14,0,1,,,,0,48,64
103588,note_on,,,,,14,0,1,,,,0,60,72
103592,control_change,,,,,4,0,1,,64,127,0,,
103624,note_off,,,,,32,0,1,,,,0,60,64
103654,control_change,,,,,30,0,1,,64,0,0,,
103664,note_on,,,,,10,0,1,,,,0,49,74
103672,note_on,,,,,8,0,1,,,,0,85,80
103674,note_on,,,,,2,0,1,,,,0,73,78
103692,control_change,,,,,18,0,1,,64,127,0,,
103704,note_off,,,,,12,0,1,,,,0,73,64
103716,note_off,,,,,12,0,1,,,,0,85,64
103744,note_on,,,,,28,0,1,,,,0,61,71
103746,note_off,,,,,2,0,1,,,,0,49,64
103780,note_off,,,,,34,0,1,,,,0,61,64
103800,control_change,,,,,20,0,1,,64,0,0,,
103808,set_tempo,,,,,848,1,0,283019,,,,,
103812,set_tempo,,,,,4,1,0,281690,,,,,
103816,set_tempo,,,,,4,1,0,279070,,,,,
103820,set_tempo,,,,,4,1,0,277778,,,,,
103824,set_tempo,,,,,4,1,0,276498,,,,,
103828,note_on,,,,,0,0,1,,,,0,38,89
103828,set_tempo,,,,,4,1,0,275229,,,,,
103828,note_on,,,,,28,0,1,,,,0,86,89
103830,note_on,,,,,2,0,1,,,,0,78,89
103832,note_on,,,,,2,0,1,,,,0,74,89
103836,note_on,,,,,4,0,1,,,,0,50,89
103858,control_change,,,,,22,0,1,,64,127,0,,
103860,note_off,,,,,2,0,1,,,,0,74,64
103872,note_off,,,,,12,0,1,,,,0,78,64
103876,note_off,,,,,4,0,1,,,,0,86,64
103980,control_change,,,,,104,0,1,,64,0,0,,
103986,note_off,,,,,6,0,1,,,,0,50,64
104002,note_off,,,,,16,0,1,,,,0,38,64
104008,note_on,,,,,6,0,1,,,,0,49,82
104010,note_on,,,,,2,0,1,,,,0,78,75
104012,note_on,,,,,2,0,1,,,,0,90,86
104036,control_change,,,,,24,0,1,,64,127,0,,
104050,note_off,,,,,14,0,1,,,,0,78,64
104062,note_off,,,,,12,0,1,,,,0,90,64
104084,note_off,,,,,22,0,1,,,,0,49,64
104096,note_on,,,,,12,0,1,,,,0,61,70
104140,note_off,,,,,44,0,1,,,,0,61,64
104148,note_on,,,,,8,0,1,,,,0,95,81
104148,note_on,,,,,0,0,1,,,,0,83,74
104152,control_change,,,,,4,0,1,,64,0,0,,
104160,note_on,,,,,8,0,1,,,,0,48,80
104192,control_change,,,,,32,0,1,,64,127,0,,
104194,note_off,,,,,2,0,1,,,,0,83,64
104198,note_off,,,,,4,0,1,,,,0,95,64
104228,note_off,,,,,30,0,1,,,,0,48,64
104236,note_on,,,,,8,0,1,,,,0,60,74
104270,note_off,,,,,34,0,1,,,,0,60,64
104282,control_change,,,,,12,0,1,,64,0,0,,
104306,note_on,,,,,24,0,1,,,,0,49,80
104318,note_on,,,,,12,0,1,,,,0,96,85
104318,note_on,,,,,0,0,1,,,,0,84,79
104328,control_change,,,,,10,0,1,,64,127,0,,
104350,note_off,,,,,22,0,1,,,,0,84,64
104360,note_off,,,,,10,0,1,,,,0,96,64
104380,note_off,,,,,20,0,1,,,,0,49,64
104388,note_on,,,,,8,0,1,,,,0,61,69
104426,control_change,,,,,38,0,1,,64,0,0,,
104432,note_off,,,,,6,0,1,,,,0,61,64
104456,control_change,,,,,24,0,1,,64,127,0,,
104460,note_on,,,,,4,0,1,,,,0,48,71
104466,note_on,,,,,6,0,1,,,,0,97,89
104466,note_on,,,,,0,0,1,,,,0,85,82
104500,note_off,,,,,34,0,1,,,,0,85,64
104518,note_off,,,,,18,0,1,,,,0,97,64
104532,note_off,,,,,14,0,1,,,,0,48,64
104542,note_on,,,,,10,0,1,,,,0,60,74
104576,note_off,,,,,34,0,1,,,,0,60,64
104594,control_change,,,,,18,0,1,,64,0,0,,
104616,note_on,,,,,22,0,1,,,,0,49,78
104630,note_on,,,,,0,0,1,,,,0,86,80
104630,note_on,,,,,14,0,1,,,,0,98,83
104638,control_change,,,,,8,0,1,,64,127,0,,
104648,set_tempo,,,,,820,1,0,283019,,,,,
104652,set_tempo,,,,,4,1,0,281690,,,,,
104656,set_tempo,,,,,4,1,0,277778,,,,,
104660,set_tempo,,,,,4,1,0,275229,,,,,
104664,set_tempo,,,,,4,1,0,271493,,,,,
104668,note_off,,,,,30,0,1,,,,0,86,64
104668,set_tempo,,,,,4,1,0,269058,,,,,
104672,set_tempo,,,,,4,1,0,265487,,,,,
104674,note_off,,,,,6,0,1,,,,0,98,64
104676,set_tempo,,,,,4,1,0,264317,,,,,
104680,set_tempo,,,,,4,1,0,260870,,,,,
104684,set_tempo,,,,,4,1,0,258621,,,,,
104688,set_tempo,,,,,4,1,0,255319,,,,,
104692,set_tempo,,,,,4,1,0,253165,,,,,
104696,set_tempo,,,,,4,1,0,250000,,,,,
104700,set_tempo,,,,,4,1,0,247934,,,,,
104704,set_tempo,,,,,4,1,0,246914,,,,,
104708,set_tempo,,,,,4,1,0,243902,,,,,
104712,set_tempo,,,,,4,1,0,241935,,,,,
104716,note_on,,,,,42,0,1,,,,0,61,83
104716,set_tempo,,,,,4,1,0,239044,,,,,
104720,set_tempo,,,,,4,1,0,237154,,,,,
104724,set_tempo,,,,,4,1,0,234375,,,,,
104728,set_tempo,,,,,4,1,0,233463,,,,,
104732,set_tempo,,,,,4,1,0,230769,,,,,
104736,set_tempo,,,,,4,1,0,229008,,,,,
104740,set_tempo,,,,,4,1,0,226415,,,,,
104744,set_tempo,,,,,4,1,0,224719,,,,,
104748,set_tempo,,,,,4,1,0,223881,,,,,
104752,set_tempo,,,,,4,1,0,219780,,,,,
104756,set_tempo,,,,,4,1,0,215827,,,,,
104760,set_tempo,,,,,4,1,0,210526,,,,,
104764,set_tempo,,,,,4,1,0,206897,,,,,
104768,set_tempo,,,,,4,1,0,202703,,,,,
104778,note_off,,,,,62,0,1,,,,0,61,64
104790,note_off,,,,,12,0,1,,,,0,49,64
104824,set_tempo,,,,,56,1,0,218182,,,,,
104828,set_tempo,,,,,4,1,0,222222,,,,,
104832,set_tempo,,,,,4,1,0,228137,,,,,
104836,set_tempo,,,,,4,1,0,232558,,,,,
104840,note_on,,,,,50,0,1,,,,0,51,92
104840,set_tempo,,,,,4,1,0,238095,,,,,
104842,note_on,,,,,2,0,1,,,,0,61,92
104844,note_on,,,,,2,0,1,,,,0,55,93
104844,set_tempo,,,,,4,1,0,242915,,,,,
104844,note_on,,,,,0,0,1,,,,0,39,93
104846,note_on,,,,,2,0,1,,,,0,63,93
104848,set_tempo,,,,,4,1,0,248963,,,,,
104852,set_tempo,,,,,4,1,0,254237,,,,,
104856,set_tempo,,,,,4,1,0,260870,,,,,
104860,set_tempo,,,,,4,1,0,266667,,,,,
104864,set_tempo,,,,,4,1,0,275229,,,,,
104868,set_tempo,,,,,4,1,0,283019,,,,,
104884,note_off,,,,,38,0,1,,,,0,39,64
104888,control_change,,,,,4,0,1,,64,127,0,,
104890,note_off,,,,,2,0,1,,,,0,51,64
104912,note_off,,,,,22,0,1,,,,0,55,64
104928,note_off,,,,,16,0,1,,,,0,61,64
104930,note_off,,,,,2,0,1,,,,0,63,64
105044,note_on,,,,,114,0,1,,,,0,49,76
105120,note_on,,,,,76,0,1,,,,0,61,73
105136,note_off,,,,,16,0,1,,,,0,49,64
105150,control_change,,,,,14,0,1,,64,0,0,,
105164,note_off,,,,,14,0,1,,,,0,61,64
105186,control_change,,,,,22,0,1,,64,127,0,,
105204,note_on,,,,,18,0,1,,,,0,48,82
105266,control_change,,,,,0,0,1,,64,0,0,,
105266,note_on,,,,,62,0,1,,,,0,60,66
105276,note_off,,,,,10,0,1,,,,0,48,64
105294,control_change,,,,,18,0,1,,64,127,0,,
105308,note_off,,,,,14,0,1,,,,0,60,64
105334,note_on,,,,,26,0,1,,,,0,49,77
105412,note_on,,,,,78,0,1,,,,0,61,69
105422,note_off,,,,,10,0,1,,,,0,49,64
105454,note_off,,,,,32,0,1,,,,0,61,64
105454,control_change,,,,,0,0,1,,64,0,0,,
105476,control_change,,,,,22,0,1,,64,127,0,,
105478,note_on,,,,,2,0,1,,,,0,86,82
105478,note_on,,,,,0,0,1,,,,0,74,77
105480,note_on,,,,,2,0,1,,,,0,48,78
105512,note_off,,,,,32,0,1,,,,0,74,64
105516,note_off,,,,,4,0,1,,,,0,86,64
105544,control_change,,,,,28,0,1,,64,0,0,,
105546,note_off,,,,,2,0,1,,,,0,48,64
105550,note_on,,,,,4,0,1,,,,0,60,71
105566,control_change,,,,,16,0,1,,64,127,0,,
105588,note_off,,,,,22,0,1,,,,0,60,64
105618,control_change,,,,,30,0,1,,64,0,0,,
105628,note_on,,,,,10,0,1,,,,0,49,67
105630,control_change,,,,,2,0,1,,64,127,0,,
105632,note_on,,,,,2,0,1,,,,0,75,73
105634,note_on,,,,,2,0,1,,,,0,87,82
105666,note_off,,,,,32,0,1,,,,0,75,64
105672,note_off,,,,,6,0,1,,,,0,87,64
105686,note_on,,,,,14,0,1,,,,0,61,79
105740,note_off,,,,,54,0,1,,,,0,49,64
105748,note_off,,,,,8,0,1,,,,0,61,64
105796,control_change,,,,,48,0,1,,64,0,0,,
105798,note_on,,,,,2,0,1,,,,0,88,90
105800,note_on,,,,,0,0,1,,,,0,76,90
105800,note_on,,,,,2,0,1,,,,0,80,90
105804,note_on,,,,,4,0,1,,,,0,52,89
105804,note_on,,,,,0,0,1,,,,0,40,90
105822,note_off,,,,,18,0,1,,,,0,76,64
105830,note_off,,,,,8,0,1,,,,0,80,64
105836,control_change,,,,,6,0,1,,64,127,0,,
105838,note_off,,,,,2,0,1,,,,0,88,64
105874,note_off,,,,,36,0,1,,,,0,52,64
105898,note_off,,,,,24,0,1,,,,0,40,64
105938,control_change,,,,,40,0,1,,64,0,0,,
105958,note_on,,,,,20,0,1,,,,0,80,72
105958,note_on,,,,,0,0,1,,,,0,49,84
105960,note_on,,,,,2,0,1,,,,0,92,93
105964,control_change,,,,,4,0,1,,64,127,0,,
105990,note_off,,,,,26,0,1,,,,0,80,64
106000,note_off,,,,,10,0,1,,,,0,92,64
106030,note_on,,,,,30,0,1,,,,0,61,75
106044,note_off,,,,,14,0,1,,,,0,49,64
106074,note_off,,,,,30,0,1,,,,0,61,64
106080,control_change,,,,,6,0,1,,64,0,0,,
106110,control_change,,,,,30,0,1,,64,127,0,,
106112,note_on,,,,,2,0,1,,,,0,48,86
106120,note_on,,,,,0,0,1,,,,0,83,78
106120,note_on,,,,,8,0,1,,,,0,95,78
106152,note_off,,,,,32,0,1,,,,0,83,64
106160,note_off,,,,,8,0,1,,,,0,95,64
106172,note_off,,,,,12,0,1,,,,0,48,64
106188,note_on,,,,,16,0,1,,,,0,60,75
106224,note_off,,,,,36,0,1,,,,0,60,64
106234,control_change,,,,,10,0,1,,64,0,0,,
106262,note_on,,,,,0,0,1,,,,0,84,77
106262,note_on,,,,,28,0,1,,,,0,96,82
106268,control_change,,,,,0,0,1,,64,127,0,,
106268,note_on,,,,,6,0,1,,,,0,49,80
106296,note_off,,,,,28,0,1,,,,0,96,64
106298,note_off,,,,,2,0,1,,,,0,84,64
106338,note_off,,,,,40,0,1,,,,0,49,64
106344,note_on,,,,,6,0,1,,,,0,61,79
106382,note_off,,,,,38,0,1,,,,0,61,64
106404,control_change,,,,,22,0,1,,64,0,0,,
106420,note_on,,,,,16,0,1,,,,0,48,80
106428,note_on,,,,,0,0,1,,,,0,85,82
106428,note_on,,,,,8,0,1,,,,0,97,86
106434,control_change,,,,,6,0,1,,64,127,0,,
106458,note_off,,,,,24,0,1,,,,0,85,64
106462,note_off,,,,,4,0,1,,,,0,97,64
106488,note_off,,,,,26,0,1,,,,0,48,64
106506,note_on,,,,,18,0,1,,,,0,60,64
106540,note_off,,,,,34,0,1,,,,0,60,64
106566,control_change,,,,,26,0,1,,64,0,0,,
106590,note_on,,,,,24,0,1,,,,0,49,81
106596,note_on,,,,,0,0,1,,,,0,88,77
106596,note_on,,,,,6,0,1,,,,0,100,88
106602,control_change,,,,,6,0,1,,64,127,0,,
106620,note_off,,,,,18,0,1,,,,0,100,64
106624,note_off,,,,,4,0,1,,,,0,88,64
106680,note_on,,,,,56,0,1,,,,0,61,82
106702,note_off,,,,,22,0,1,,,,0,49,64
106706,note_off,,,,,4,0,1,,,,0,61,64
106778,control_change,,,,,72,0,1,,64,0,0,,
106792,note_on,,,,,0,0,1,,,,0,53,87
106792,note_on,,,,,14,0,1,,,,0,68,91
106794,note_on,,,,,0,0,1,,,,0,65,93
106794,note_on,,,,,2,0,1,,,,0,77,72
106796,note_on,,,,,2,0,1,,,,0,73,76
106796,note_on,,,,,0,0,1,,,,0,41,92
106852,control_change,,,,,56,0,1,,64,127,0,,
106858,note_off,,,,,6,0,1,,,,0,53,64
106866,note_off,,,,,8,0,1,,,,0,41,64
106920,control_change,,,,,54,0,1,,64,0,0,,
106982,note_on,,,,,62,0,1,,,,0,62,80
106984,note_on,,,,,2,0,1,,,,0,50,81
106998,control_change,,,,,14,0,1,,64,127,0,,
107014,note_off,,,,,16,0,1,,,,0,50,64
107016,note_off,,,,,2,0,1,,,,0,62,64
107044,control_change,,,,,28,0,1,,64,0,0,,
107134,note_off,,,,,90,0,1,,,,0,65,64
107138,note_off,,,,,4,0,1,,,,0,77,64
107140,note_on,,,,,2,0,1,,,,0,61,85
107144,note_on,,,,,4,0,1,,,,0,49,80
107146,note_off,,,,,2,0,1,,,,0,73,64
107148,control_change,,,,,0,0,1,,64,127,0,,
107148,note_off,,,,,2,0,1,,,,0,68,64
107170,note_off,,,,,0,0,1,,,,0,61,64
107170,note_off,,,,,22,0,1,,,,0,49,64
107278,control_change,,,,,108,0,1,,64,0,0,,
107306,note_on,,,,,0,0,1,,,,0,66,78
107306,note_on,,,,,28,0,1,,,,0,73,76
107308,note_on,,,,,0,0,1,,,,0,69,72
107308,note_on,,,,,2,0,1,,,,0,78,76
107312,note_on,,,,,4,0,1,,,,0,42,77
107314,note_on,,,,,2,0,1,,,,0,54,89
107336,control_change,,,,,22,0,1,,64,127,0,,
107346,note_off,,,,,10,0,1,,,,0,54,64
107348,note_off,,,,,2,0,1,,,,0,42,64
107402,control_change,,,,,54,0,1,,64,0,0,,
107478,note_on,,,,,76,0,1,,,,0,60,78
107480,note_on,,,,,2,0,1,,,,0,48,87
107500,control_change,,,,,20,0,1,,64,127,0,,
107508,note_off,,,,,8,0,1,,,,0,60,64
107512,note_off,,,,,4,0,1,,,,0,48,64
107578,control_change,,,,,66,0,1,,64,0,0,,
107604,note_off,,,,,26,0,1,,,,0,69,64
107620,note_off,,,,,16,0,1,,,,0,66,64
107628,note_off,,,,,8,0,1,,,,0,73,64
107640,note_off,,,,,12,0,1,,,,0,78,64
107644,control_change,,,,,4,0,1,,64,127,0,,
107646,note_on,,,,,2,0,1,,,,0,61,84
107648,note_on,,,,,2,0,1,,,,0,49,82
107678,note_off,,,,,30,0,1,,,,0,61,64
107680,note_off,,,,,2,0,1,,,,0,49,64
107804,control_change,,,,,124,0,1,,64,0,0,,
107832,note_on,,,,,28,0,1,,,,0,73,87
107834,note_on,,,,,2,0,1,,,,0,79,80
107836,note_on,,,,,2,0,1,,,,0,67,86
107838,note_on,,,,,2,0,1,,,,0,43,85
107840,note_on,,,,,2,0,1,,,,0,55,78
107876,control_change,,,,,36,0,1,,64,127,0,,
107892,note_off,,,,,16,0,1,,,,0,43,64
107902,note_off,,,,,10,0,1,,,,0,55,64
108010,control_change,,,,,108,0,1,,64,0,0,,
108016,note_on,,,,,6,0,1,,,,0,63,92
108018,note_on,,,,,2,0,1,,,,0,51,87
108048,note_off,,,,,30,0,1,,,,0,63,64
108050,note_off,,,,,2,0,1,,,,0,51,64
108052,control_change,,,,,2,0,1,,64,127,0,,
108180,note_off,,,,,128,0,1,,,,0,67,64
108186,note_off,,,,,6,0,1,,,,0,79,64
108190,note_on,,,,,4,0,1,,,,0,64,87
108192,note_on,,,,,2,0,1,,,,0,52,83
108200,control_change,,,,,8,0,1,,64,0,0,,
108212,note_off,,,,,12,0,1,,,,0,73,64
108220,note_off,,,,,8,0,1,,,,0,64,64
108226,note_off,,,,,6,0,1,,,,0,52,64
108232,control_change,,,,,6,0,1,,64,127,0,,
108372,control_change,,,,,140,0,1,,64,0,0,,
108382,note_on,,,,,10,0,1,,,,0,68,89
108384,note_on,,,,,0,0,1,,,,0,73,82
108384,note_on,,,,,2,0,1,,,,0,80,85
108388,note_on,,,,,4,0,1,,,,0,56,96
108390,note_on,,,,,2,0,1,,,,0,44,87
108428,control_change,,,,,38,0,1,,64,127,0,,
108460,note_off,,,,,32,0,1,,,,0,44,64
108470,note_off,,,,,10,0,1,,,,0,56,64
108584,control_change,,,,,114,0,1,,64,0,0,,
108588,note_on,,,,,4,0,1,,,,0,64,93
108592,note_on,,,,,4,0,1,,,,0,52,95
108628,control_change,,,,,36,0,1,,64,127,0,,
108634,note_off,,,,,6,0,1,,,,0,52,64
108636,note_off,,,,,2,0,1,,,,0,64,64
108676,note_off,,,,,40,0,1,,,,0,73,64
108690,note_off,,,,,14,0,1,,,,0,68,64
108702,note_off,,,,,12,0,1,,,,0,80,64
108788,control_change,,,,,86,0,1,,64,0,0,,
108796,note_on,,,,,8,0,1,,,,0,65,89
108800,note_on,,,,,4,0,1,,,,0,53,92
108822,control_change,,,,,22,0,1,,64,127,0,,
108836,note_off,,,,,14,0,1,,,,0,65,64
108846,note_off,,,,,10,0,1,,,,0,53,64
108992,control_change,,,,,146,0,1,,64,0,0,,
109026,note_on,,,,,34,0,1,,,,0,78,85
109028,note_on,,,,,0,0,1,,,,0,45,95
109028,note_on,,,,,0,0,1,,,,0,57,92
109028,note_on,,,,,2,0,1,,,,0,81,85
109030,note_on,,,,,2,0,1,,,,0,69,97
109032,note_on,,,,,2,0,1,,,,0,72,85
109036,note_on,,,,,4,0,1,,,,0,75,82
109056,control_change,,,,,20,0,1,,64,127,0,,
109060,note_off,,,,,0,0,1,,,,0,57,64
109060,note_off,,,,,4,0,1,,,,0,45,64
109188,note_off,,,,,128,0,1,,,,0,69,64
109192,note_off,,,,,4,0,1,,,,0,81,64
109196,note_off,,,,,4,0,1,,,,0,72,64
109200,note_on,,,,,4,0,1,,,,0,66,90
109202,note_on,,,,,2,0,1,,,,0,54,87
109212,note_off,,,,,0,0,1,,,,0,78,64
109212,note_off,,,,,10,0,1,,,,0,75,64
109228,note_off,,,,,16,0,1,,,,0,66,64
109232,note_off,,,,,4,0,1,,,,0,54,64
109348,control_change,,,,,116,0,1,,64,0,0,,
109366,note_on,,,,,18,0,1,,,,0,70,82
109366,note_on,,,,,0,0,1,,,,0,58,96
109368,note_on,,,,,2,0,1,,,,0,46,93
109370,note_on,,,,,2,0,1,,,,0,82,76
109372,note_on,,,,,0,0,1,,,,0,76,77
109372,note_on,,,,,2,0,1,,,,0,79,77
109378,note_on,,,,,6,0,1,,,,0,73,79
109390,note_off,,,,,0,0,1,,,,0,58,64
109390,note_off,,,,,12,0,1,,,,0,46,64
109394,control_change,,,,,4,0,1,,64,127,0,,
109544,note_on,,,,,150,0,1,,,,0,67,92
109548,note_on,,,,,4,0,1,,,,0,55,89
109550,note_off,,,,,2,0,1,,,,0,76,64
109552,note_off,,,,,2,0,1,,,,0,73,64
109560,note_off,,,,,8,0,1,,,,0,79,64
109564,note_off,,,,,4,0,1,,,,0,70,64
109564,note_off,,,,,0,0,1,,,,0,82,64
109574,note_off,,,,,10,0,1,,,,0,55,64
109576,note_off,,,,,2,0,1,,,,0,67,64
109740,note_on,,,,,0,0,1,,,,0,74,74
109740,note_on,,,,,164,0,1,,,,0,77,79
109740,note_on,,,,,0,0,1,,,,0,71,79
109742,note_on,,,,,2,0,1,,,,0,80,71
109744,note_on,,,,,2,0,1,,,,0,83,73
109748,note_on,,,,,4,0,1,,,,0,59,92
109750,control_change,,,,,2,0,1,,64,0,0,,
109752,note_on,,,,,2,0,1,,,,0,47,100
109790,note_off,,,,,38,0,1,,,,0,47,64
109794,control_change,,,,,4,0,1,,64,127,0,,
109800,note_off,,,,,6,0,1,,,,0,59,64
109980,note_on,,,,,180,0,1,,,,0,68,93
109986,note_on,,,,,6,0,1,,,,0,56,95
110022,note_off,,,,,0,0,1,,,,0,68,64
110022,note_off,,,,,36,0,1,,,,0,56,64
110042,note_off,,,,,20,0,1,,,,0,71,64
110054,note_off,,,,,12,0,1,,,,0,74,64
110058,note_off,,,,,4,0,1,,,,0,77,64
110070,note_off,,,,,12,0,1,,,,0,80,64
110072,note_off,,,,,2,0,1,,,,0,83,64
110294,control_change,,,,,222,0,1,,64,0,0,,
110396,note_on,,,,,102,0,1,,,,0,72,93
110398,note_on,,,,,2,0,1,,,,0,84,93
110400,note_on,,,,,2,0,1,,,,0,60,93
110408,note_on,,,,,8,0,1,,,,0,48,93
110416,control_change,,,,,8,0,1,,64,127,0,,
110468,note_off,,,,,52,0,1,,,,0,84,64
110494,note_off,,,,,26,0,1,,,,0,60,64
110500,note_off,,,,,6,0,1,,,,0,72,64
110510,note_off,,,,,10,0,1,,,,0,48,64
110642,control_change,,,,,132,0,1,,64,0,0,,
110644,note_on,,,,,2,0,1,,,,0,85,95
110644,note_on,,,,,0,0,1,,,,0,73,88
110646,note_on,,,,,2,0,1,,,,0,61,92
110650,note_on,,,,,4,0,1,,,,0,49,89
110710,control_change,,,,,60,0,1,,64,127,0,,
110752,note_off,,,,,42,0,1,,,,0,49,64
110762,note_off,,,,,10,0,1,,,,0,61,64
110764,note_off,,,,,2,0,1,,,,0,85,64
110774,note_off,,,,,10,0,1,,,,0,73,64
110936,note_on,,,,,162,0,1,,,,0,62,88
110938,note_on,,,,,2,0,1,,,,0,86,90
110940,note_on,,,,,0,0,1,,,,0,50,90
110940,note_on,,,,,2,0,1,,,,0,74,87
110972,control_change,,,,,32,0,1,,64,0,0,,
111064,control_change,,,,,92,0,1,,64,127,0,,
111142,note_off,,,,,78,0,1,,,,0,62,64
111148,note_off,,,,,6,0,1,,,,0,86,64
111166,note_off,,,,,18,0,1,,,,0,74,64
111184,note_off,,,,,18,0,1,,,,0,50,64
111452,note_on,,,,,268,0,1,,,,0,38,109
111456,note_on,,,,,4,0,1,,,,0,26,109
111458,note_on,,,,,2,0,1,,,,0,62,109
111458,note_on,,,,,0,0,1,,,,0,50,109
111492,control_change,,,,,34,0,1,,64,127,0,,
111496,note_off,,,,,4,0,1,,,,0,26,64
111504,note_off,,,,,8,0,1,,,,0,50,64
111518,note_off,,,,,14,0,1,,,,0,38,64
111528,note_off,,,,,10,0,1,,,,0,62,64
111680,note_on,,,,,152,0,1,,,,0,41,76
111684,note_on,,,,,4,0,1,,,,0,53,74
111740,note_on,,,,,56,0,1,,,,0,56,65
111744,note_on,,,,,4,0,1,,,,0,44,66
111760,note_off,,,,,16,0,1,,,,0,41,64
111762,note_off,,,,,2,0,1,,,,0,53,64
111796,note_on,,,,,34,0,1,,,,0,47,66
111800,note_on,,,,,4,0,1,,,,0,59,66
111840,note_off,,,,,40,0,1,,,,0,56,64
111848,note_off,,,,,8,0,1,,,,0,44,64
111864,note_on,,,,,16,0,1,,,,0,50,62
111868,note_on,,,,,4,0,1,,,,0,62,62
111882,note_off,,,,,14,0,1,,,,0,59,64
111882,note_off,,,,,0,0,1,,,,0,47,64
111902,note_off,,,,,20,0,1,,,,0,62,64
111920,note_off,,,,,18,0,1,,,,0,50,64
111928,note_on,,,,,8,0,1,,,,0,53,79
111946,note_on,,,,,18,0,1,,,,0,65,69
111972,note_off,,,,,26,0,1,,,,0,53,64
112000,note_on,,,,,0,0,1,,,,0,56,74
112000,note_on,,,,,28,0,1,,,,0,68,72
112020,note_off,,,,,20,0,1,,,,0,65,64
112056,note_on,,,,,36,0,1,,,,0,59,64
112070,note_on,,,,,14,0,1,,,,0,71,66
112078,note_off,,,,,8,0,1,,,,0,56,64
112084,note_off,,,,,6,0,1,,,,0,68,64
112124,note_on,,,,,40,0,1,,,,0,62,61
112130,note_on,,,,,6,0,1,,,,0,74,64
112134,note_off,,,,,4,0,1,,,,0,71,64
112134,note_off,,,,,0,0,1,,,,0,59,64
112156,note_off,,,,,22,0,1,,,,0,74,64
112184,note_off,,,,,28,0,1,,,,0,62,64
112194,note_on,,,,,10,0,1,,,,0,65,66
112198,note_on,,,,,4,0,1,,,,0,77,76
112256,note_on,,,,,58,0,1,,,,0,80,71
112270,note_off,,,,,14,0,1,,,,0,65,64
112270,note_on,,,,,0,0,1,,,,0,68,67
112282,note_off,,,,,12,0,1,,,,0,77,64
112320,note_on,,,,,38,0,1,,,,0,83,76
112326,note_on,,,,,6,0,1,,,,0,71,66
112332,note_off,,,,,6,0,1,,,,0,80,64
112348,note_off,,,,,16,0,1,,,,0,68,64
112362,note_off,,,,,14,0,1,,,,0,83,64
112384,note_off,,,,,22,0,1,,,,0,71,64
112406,note_on,,,,,22,0,1,,,,0,86,77
112406,note_on,,,,,0,0,1,,,,0,74,83
112432,note_off,,,,,0,0,1,,,,0,86,64
112432,note_off,,,,,26,0,1,,,,0,74,64
112456,note_on,,,,,24,0,1,,,,0,73,83
112486,note_off,,,,,30,0,1,,,,0,73,64
112520,note_on,,,,,34,0,1,,,,0,72,72
112522,note_on,,,,,2,0,1,,,,0,84,77
112544,note_off,,,,,22,0,1,,,,0,72,64
112548,note_off,,,,,4,0,1,,,,0,84,64
112584,note_on,,,,,36,0,1,,,,0,71,76
112610,note_off,,,,,26,0,1,,,,0,71,64
112640,note_on,,,,,0,0,1,,,,0,70,64
112640,note_on,,,,,30,0,1,,,,0,82,65
112666,note_off,,,,,26,0,1,,,,0,82,64
112668,note_off,,,,,2,0,1,,,,0,70,64
112706,note_on,,,,,38,0,1,,,,0,69,72
112740,note_off,,,,,34,0,1,,,,0,69,64
112766,note_on,,,,,26,0,1,,,,0,68,84
112768,note_on,,,,,2,0,1,,,,0,80,82
112800,note_off,,,,,32,0,1,,,,0,80,64
112800,note_off,,,,,0,0,1,,,,0,68,64
112820,note_on,,,,,20,0,1,,,,0,67,79
112848,note_off,,,,,28,0,1,,,,0,67,64
112888,note_on,,,,,40,0,1,,,,0,66,78
112890,note_on,,,,,2,0,1,,,,0,78,82
112918,note_off,,,,,28,0,1,,,,0,66,64
112922,note_off,,,,,4,0,1,,,,0,78,64
112942,note_on,,,,,20,0,1,,,,0,65,74
112966,note_off,,,,,24,0,1,,,,0,65,64
113002,note_on,,,,,36,0,1,,,,0,76,69
113002,note_on,,,,,0,0,1,,,,0,64,74
113030,note_off,,,,,28,0,1,,,,0,64,64
113032,note_off,,,,,2,0,1,,,,0,76,64
113060,note_on,,,,,28,0,1,,,,0,63,72
113086,note_off,,,,,26,0,1,,,,0,63,64
113122,note_on,,,,,0,0,1,,,,0,62,75
113122,note_on,,,,,36,0,1,,,,0,74,75
113148,note_off,,,,,26,0,1,,,,0,62,64
113150,note_off,,,,,2,0,1,,,,0,74,64
113174,note_on,,,,,24,0,1,,,,0,61,71
113204,note_off,,,,,30,0,1,,,,0,61,64
113238,note_on,,,,,34,0,1,,,,0,72,76
113238,note_on,,,,,0,0,1,,,,0,60,72
113264,note_off,,,,,26,0,1,,,,0,60,64
113272,note_off,,,,,8,0,1,,,,0,72,64
113300,note_on,,,,,28,0,1,,,,0,59,85
113324,note_off,,,,,24,0,1,,,,0,59,64
113476,note_on,,,,,0,0,1,,,,0,77,87
113476,note_on,,,,,152,0,1,,,,0,89,83
113482,note_on,,,,,6,0,1,,,,0,65,89
113484,note_on,,,,,2,0,1,,,,0,53,93
113502,control_change,,,,,18,0,1,,64,0,0,,
113576,control_change,,,,,74,0,1,,64,127,0,,
113592,note_off,,,,,16,0,1,,,,0,89,64
113604,note_off,,,,,12,0,1,,,,0,65,64
113612,note_off,,,,,8,0,1,,,,0,77,64
113634,note_off,,,,,22,0,1,,,,0,53,64
113868,note_on,,,,,234,0,1,,,,0,41,93
113874,note_on,,,,,6,0,1,,,,0,29,88
113880,note_on,,,,,6,0,1,,,,0,65,81
113880,note_on,,,,,0,0,1,,,,0,53,90
113902,control_change,,,,,22,0,1,,64,0,0,,
113968,control_change,,,,,66,0,1,,64,127,0,,
113972,note_off,,,,,4,0,1,,,,0,29,64
113996,note_off,,,,,24,0,1,,,,0,65,64
113998,note_off,,,,,2,0,1,,,,0,41,64
114020,note_off,,,,,22,0,1,,,,0,53,64
114060,note_on,,,,,40,0,1,,,,0,44,69
114066,note_on,,,,,6,0,1,,,,0,56,71
114138,note_on,,,,,72,0,1,,,,0,59,72
114142,note_on,,,,,4,0,1,,,,0,47,68
114156,note_off,,,,,14,0,1,,,,0,56,64
114172,note_off,,,,,16,0,1,,,,0,44,64
114200,note_on,,,,,28,0,1,,,,0,62,66
114208,note_off,,,,,8,0,1,,,,0,59,64
114208,note_on,,,,,0,0,1,,,,0,50,55
114220,note_off,,,,,12,0,1,,,,0,47,64
114232,note_off,,,,,12,0,1,,,,0,62,64
114262,note_off,,,,,30,0,1,,,,0,50,64
114266,note_on,,,,,4,0,1,,,,0,53,79
114280,note_on,,,,,14,0,1,,,,0,65,75
114312,note_off,,,,,32,0,1,,,,0,53,64
114332,note_on,,,,,20,0,1,,,,0,68,72
114340,note_on,,,,,8,0,1,,,,0,56,71
114356,note_off,,,,,16,0,1,,,,0,65,64
114392,note_on,,,,,36,0,1,,,,0,71,73
114394,note_on,,,,,2,0,1,,,,0,59,73
114404,note_off,,,,,10,0,1,,,,0,68,64
114412,note_off,,,,,8,0,1,,,,0,56,64
114448,note_on,,,,,36,0,1,,,,0,74,67
114450,note_on,,,,,2,0,1,,,,0,62,66
114452,note_off,,,,,2,0,1,,,,0,71,64
114462,note_off,,,,,10,0,1,,,,0,59,64
114474,note_off,,,,,12,0,1,,,,0,74,64
114506,note_off,,,,,32,0,1,,,,0,62,64
114510,note_on,,,,,4,0,1,,,,0,65,72
114520,note_on,,,,,10,0,1,,,,0,77,75
114568,note_off,,,,,48,0,1,,,,0,65,64
114572,note_on,,,,,4,0,1,,,,0,80,70
114584,note_on,,,,,12,0,1,,,,0,68,69
114596,note_off,,,,,12,0,1,,,,0,77,64
114642,note_on,,,,,0,0,1,,,,0,71,56
114642,note_on,,,,,46,0,1,,,,0,83,72
114658,note_off,,,,,16,0,1,,,,0,68,64
114660,note_off,,,,,2,0,1,,,,0,80,64
114706,note_on,,,,,46,0,1,,,,0,86,67
114718,note_on,,,,,12,0,1,,,,0,74,62
114724,note_off,,,,,6,0,1,,,,0,83,64
114734,note_off,,,,,10,0,1,,,,0,71,64
114746,note_off,,,,,12,0,1,,,,0,86,64
114756,note_off,,,,,10,0,1,,,,0,74,64
114780,note_on,,,,,24,0,1,,,,0,89,83
114782,note_on,,,,,2,0,1,,,,0,77,87
114812,note_off,,,,,30,0,1,,,,0,77,64
114814,note_off,,,,,2,0,1,,,,0,89,64
114844,note_on,,,,,30,0,1,,,,0,76,79
114868,note_off,,,,,24,0,1,,,,0,76,64
114904,note_on,,,,,0,0,1,,,,0,75,72
114904,note_on,,,,,36,0,1,,,,0,87,78
114930,note_off,,,,,26,0,1,,,,0,75,64
114932,note_off,,,,,2,0,1,,,,0,87,64
114966,note_on,,,,,34,0,1,,,,0,74,69
114994,note_off,,,,,28,0,1,,,,0,74,64
115024,note_on,,,,,30,0,1,,,,0,73,79
115026,note_on,,,,,2,0,1,,,,0,85,80
115060,note_off,,,,,34,0,1,,,,0,73,64
115062,note_off,,,,,2,0,1,,,,0,85,64
115088,note_on,,,,,26,0,1,,,,0,72,76
115112,note_off,,,,,24,0,1,,,,0,72,64
115156,note_on,,,,,44,0,1,,,,0,83,80
115158,note_on,,,,,2,0,1,,,,0,71,69
115190,note_off,,,,,32,0,1,,,,0,71,64
115196,note_off,,,,,6,0,1,,,,0,83,64
115208,note_on,,,,,12,0,1,,,,0,70,71
115240,note_off,,,,,32,0,1,,,,0,70,64
115278,note_on,,,,,38,0,1,,,,0,69,79
115280,note_on,,,,,2,0,1,,,,0,81,77
115308,note_off,,,,,28,0,1,,,,0,81,64
115308,note_off,,,,,0,0,1,,,,0,69,64
115340,note_on,,,,,32,0,1,,,,0,68,72
115372,note_off,,,,,32,0,1,,,,0,68,64
115404,note_on,,,,,0,0,1,,,,0,67,73
115404,note_on,,,,,32,0,1,,,,0,79,78
115430,note_off,,,,,26,0,1,,,,0,67,64
115432,note_off,,,,,2,0,1,,,,0,79,64
115464,note_on,,,,,32,0,1,,,,0,66,79
115494,note_off,,,,,30,0,1,,,,0,66,64
115528,note_on,,,,,34,0,1,,,,0,65,79
115532,note_on,,,,,4,0,1,,,,0,77,74
115554,note_off,,,,,22,0,1,,,,0,65,64
115558,note_off,,,,,4,0,1,,,,0,77,64
115592,note_on,,,,,34,0,1,,,,0,64,79
115620,note_off,,,,,28,0,1,,,,0,64,64
115652,note_on,,,,,32,0,1,,,,0,75,72
115652,note_on,,,,,0,0,1,,,,0,63,79
115684,note_off,,,,,32,0,1,,,,0,63,64
115684,note_off,,,,,0,0,1,,,,0,75,64
115704,note_on,,,,,20,0,1,,,,0,62,87
115728,note_off,,,,,24,0,1,,,,0,62,64
115970,note_on,,,,,0,0,1,,,,0,80,85
115970,note_on,,,,,242,0,1,,,,0,92,87
115974,note_on,,,,,4,0,1,,,,0,68,79
115976,note_on,,,,,2,0,1,,,,0,56,87
116012,control_change,,,,,36,0,1,,64,0,0,,
116076,control_change,,,,,64,0,1,,64,127,0,,
116102,note_off,,,,,0,0,1,,,,0,92,64
116102,note_off,,,,,26,0,1,,,,0,68,64
116110,note_off,,,,,8,0,1,,,,0,80,64
116134,note_off,,,,,24,0,1,,,,0,56,64
116340,note_on,,,,,206,0,1,,,,0,44,85
116342,note_on,,,,,2,0,1,,,,0,68,83
116344,note_on,,,,,0,0,1,,,,0,32,83
116344,note_on,,,,,2,0,1,,,,0,56,93
116352,control_change,,,,,8,0,1,,64,0,0,,
116408,control_change,,,,,56,0,1,,64,127,0,,
116426,note_off,,,,,18,0,1,,,,0,32,64
116436,note_off,,,,,10,0,1,,,,0,44,64
116452,note_off,,,,,16,0,1,,,,0,56,64
116472,note_off,,,,,20,0,1,,,,0,68,64
116572,note_on,,,,,100,0,1,,,,0,47,69
116574,note_on,,,,,2,0,1,,,,0,59,76
116638,note_on,,,,,64,0,1,,,,0,62,66
116650,note_on,,,,,12,0,1,,,,0,50,66
116656,note_off,,,,,6,0,1,,,,0,59,64
116670,note_off,,,,,14,0,1,,,,0,47,64
116698,note_on,,,,,28,0,1,,,,0,65,72
116706,note_on,,,,,8,0,1,,,,0,53,68
116728,note_off,,,,,22,0,1,,,,0,62,64
116748,note_off,,,,,20,0,1,,,,0,50,64
116762,note_on,,,,,14,0,1,,,,0,68,71
116776,note_on,,,,,14,0,1,,,,0,56,72
116780,note_off,,,,,4,0,1,,,,0,65,64
116792,note_off,,,,,12,0,1,,,,0,53,64
116804,note_off,,,,,12,0,1,,,,0,68,64
116820,note_off,,,,,16,0,1,,,,0,56,64
116824,note_on,,,,,4,0,1,,,,0,59,64
116840,note_on,,,,,16,0,1,,,,0,71,73
116856,note_off,,,,,16,0,1,,,,0,59,64
116880,note_on,,,,,24,0,1,,,,0,62,70
116892,note_on,,,,,12,0,1,,,,0,74,66
116910,note_off,,,,,18,0,1,,,,0,71,64
116938,note_on,,,,,28,0,1,,,,0,65,42
116950,note_on,,,,,12,0,1,,,,0,77,67
116956,note_off,,,,,6,0,1,,,,0,62,64
116980,note_off,,,,,24,0,1,,,,0,74,64
117004,note_on,,,,,24,0,1,,,,0,80,71
117016,note_on,,,,,12,0,1,,,,0,68,73
117022,note_off,,,,,6,0,1,,,,0,77,64
117028,note_off,,,,,6,0,1,,,,0,65,64
117042,note_off,,,,,14,0,1,,,,0,80,64
117064,note_off,,,,,22,0,1,,,,0,68,64
117076,note_on,,,,,12,0,1,,,,0,71,71
117082,note_on,,,,,6,0,1,,,,0,83,77
117106,note_off,,,,,24,0,1,,,,0,71,64
117128,note_on,,,,,22,0,1,,,,0,74,60
117138,note_on,,,,,10,0,1,,,,0,86,73
117156,note_off,,,,,18,0,1,,,,0,83,64
117188,note_on,,,,,32,0,1,,,,0,77,58
117200,note_on,,,,,12,0,1,,,,0,89,72
117204,note_off,,,,,4,0,1,,,,0,74,64
117220,note_off,,,,,16,0,1,,,,0,86,64
117244,note_off,,,,,24,0,1,,,,0,89,64
117256,note_off,,,,,12,0,1,,,,0,77,64
117280,note_on,,,,,24,0,1,,,,0,92,90
117280,note_on,,,,,0,0,1,,,,0,80,84
117308,note_off,,,,,28,0,1,,,,0,80,64
117312,note_off,,,,,4,0,1,,,,0,92,64
117340,note_on,,,,,28,0,1,,,,0,79,80
117364,note_off,,,,,24,0,1,,,,0,79,64
117412,note_on,,,,,0,0,1,,,,0,78,76
117412,note_on,,,,,48,0,1,,,,0,90,76
117444,note_off,,,,,32,0,1,,,,0,78,64
117446,note_off,,,,,2,0,1,,,,0,90,64
117472,note_on,,,,,26,0,1,,,,0,77,72
117500,note_off,,,,,28,0,1,,,,0,77,64
117536,note_on,,,,,36,0,1,,,,0,88,65
117540,note_on,,,,,4,0,1,,,,0,76,65
117568,note_off,,,,,28,0,1,,,,0,76,64
117574,note_off,,,,,6,0,1,,,,0,88,64
117590,note_on,,,,,16,0,1,,,,0,74,65
117620,note_off,,,,,30,0,1,,,,0,74,64
117660,note_on,,,,,0,0,1,,,,0,83,85
117660,note_on,,,,,40,0,1,,,,0,95,82
117682,note_off,,,,,22,0,1,,,,0,83,64
117684,note_off,,,,,2,0,1,,,,0,95,64
117740,note_on,,,,,56,0,1,,,,0,82,61
117752,note_off,,,,,12,0,1,,,,0,82,64
117800,note_on,,,,,48,0,1,,,,0,81,57
117804,note_on,,,,,4,0,1,,,,0,93,67
117830,note_off,,,,,26,0,1,,,,0,81,64
117832,note_off,,,,,2,0,1,,,,0,93,64
117864,note_on,,,,,32,0,1,,,,0,80,78
117898,note_off,,,,,34,0,1,,,,0,80,64
117924,note_on,,,,,26,0,1,,,,0,79,83
117926,note_on,,,,,2,0,1,,,,0,91,77
117952,note_off,,,,,26,0,1,,,,0,79,64
117962,note_off,,,,,10,0,1,,,,0,91,64
117990,note_on,,,,,28,0,1,,,,0,78,86
118022,note_off,,,,,32,0,1,,,,0,78,64
118056,note_on,,,,,34,0,1,,,,0,86,90
118058,note_on,,,,,2,0,1,,,,0,98,87
118086,note_off,,,,,28,0,1,,,,0,86,64
118086,note_off,,,,,0,0,1,,,,0,98,64
118120,note_on,,,,,34,0,1,,,,0,85,88
118146,note_off,,,,,26,0,1,,,,0,85,64
118184,note_on,,,,,38,0,1,,,,0,96,75
118186,note_on,,,,,2,0,1,,,,0,84,76
118212,note_off,,,,,0,0,1,,,,0,96,64
118212,note_off,,,,,26,0,1,,,,0,84,64
118246,note_on,,,,,34,0,1,,,,0,83,78
118274,note_off,,,,,28,0,1,,,,0,83,64
118302,note_on,,,,,28,0,1,,,,0,93,82
118302,note_on,,,,,0,0,1,,,,0,81,84
118326,note_off,,,,,24,0,1,,,,0,81,64
118330,note_off,,,,,4,0,1,,,,0,93,64
118362,note_on,,,,,32,0,1,,,,0,80,75
118398,note_off,,,,,36,0,1,,,,0,80,64
118440,note_on,,,,,42,0,1,,,,0,101,75
118442,note_on,,,,,2,0,1,,,,0,89,76
118468,note_off,,,,,0,0,1,,,,0,101,64
118468,note_off,,,,,26,0,1,,,,0,89,64
118502,note_on,,,,,34,0,1,,,,0,88,78
118530,note_off,,,,,28,0,1,,,,0,88,64
118558,note_on,,,,,28,0,1,,,,0,99,82
118558,note_on,,,,,0,0,1,,,,0,87,84
118582,note_off,,,,,24,0,1,,,,0,87,64
118586,note_off,,,,,4,0,1,,,,0,99,64
118618,note_on,,,,,32,0,1,,,,0,86,75
118654,note_off,,,,,36,0,1,,,,0,86,64
118684,note_on,,,,,0,0,1,,,,0,85,90
118684,note_on,,,,,30,0,1,,,,0,97,83
118714,note_off,,,,,30,0,1,,,,0,85,64
118716,note_off,,,,,2,0,1,,,,0,97,64
118736,note_on,,,,,20,0,1,,,,0,84,79
118772,note_off,,,,,36,0,1,,,,0,84,64
118802,note_on,,,,,30,0,1,,,,0,95,83
118802,note_on,,,,,0,0,1,,,,0,83,87
118832,note_off,,,,,30,0,1,,,,0,83,64
118836,note_off,,,,,4,0,1,,,,0,95,64
118856,note_on,,,,,20,0,1,,,,0,82,77
118886,note_off,,,,,30,0,1,,,,0,82,64
118924,note_on,,,,,0,0,1,,,,0,81,69
118924,note_on,,,,,38,0,1,,,,0,93,69
118960,note_off,,,,,36,0,1,,,,0,81,64
118960,note_off,,,,,0,0,1,,,,0,93,64
118978,note_on,,,,,18,0,1,,,,0,80,84
119008,note_off,,,,,30,0,1,,,,0,80,64
119044,note_on,,,,,0,0,1,,,,0,79,90
119044,note_on,,,,,36,0,1,,,,0,91,83
119074,note_off,,,,,30,0,1,,,,0,79,64
119076,note_off,,,,,2,0,1,,,,0,91,64
119096,note_on,,,,,20,0,1,,,,0,78,79
119132,note_off,,,,,36,0,1,,,,0,78,64
119162,note_on,,,,,0,0,1,,,,0,77,87
119162,note_on,,,,,30,0,1,,,,0,89,83
119192,note_off,,,,,30,0,1,,,,0,77,64
119196,note_off,,,,,4,0,1,,,,0,89,64
119216,note_on,,,,,20,0,1,,,,0,76,77
119246,note_off,,,,,30,0,1,,,,0,76,64
119284,note_on,,,,,0,0,1,,,,0,75,69
119284,note_on,,,,,38,0,1,,,,0,87,69
119320,note_off,,,,,0,0,1,,,,0,87,64
119320,note_off,,,,,36,0,1,,,,0,75,64
119338,note_on,,,,,18,0,1,,,,0,74,84
119368,note_off,,,,,30,0,1,,,,0,74,64
119406,note_on,,,,,38,0,1,,,,0,85,81
119408,note_on,,,,,2,0,1,,,,0,73,83
119436,note_off,,,,,28,0,1,,,,0,73,64
119440,note_off,,,,,4,0,1,,,,0,85,64
119448,set_tempo,,,,,14580,1,0,279070,,,,,
119458,note_on,,,,,18,0,1,,,,0,72,75
119490,note_off,,,,,32,0,1,,,,0,72,64
119496,set_tempo,,,,,48,1,0,277778,,,,,
119522,note_on,,,,,32,0,1,,,,0,83,72
119524,note_on,,,,,2,0,1,,,,0,71,80
119544,set_tempo,,,,,48,1,0,276498,,,,,
119546,note_off,,,,,22,0,1,,,,0,71,64
119548,note_off,,,,,2,0,1,,,,0,83,64
119592,note_on,,,,,44,0,1,,,,0,70,78
119592,set_tempo,,,,,48,1,0,275229,,,,,
119618,note_off,,,,,26,0,1,,,,0,70,64
119638,note_on,,,,,20,0,1,,,,0,81,76
119640,note_on,,,,,2,0,1,,,,0,69,78
119640,set_tempo,,,,,48,1,0,272727,,,,,
119674,note_off,,,,,34,0,1,,,,0,81,64
119676,note_off,,,,,2,0,1,,,,0,69,64
119688,set_tempo,,,,,48,1,0,271493,,,,,
119706,note_on,,,,,30,0,1,,,,0,68,83
119728,note_off,,,,,22,0,1,,,,0,68,64
119736,set_tempo,,,,,48,1,0,270270,,,,,
119760,note_on,,,,,32,0,1,,,,0,79,77
119760,note_on,,,,,0,0,1,,,,0,67,84
119784,set_tempo,,,,,48,1,0,269058,,,,,
119792,note_off,,,,,32,0,1,,,,0,67,64
119796,note_off,,,,,4,0,1,,,,0,79,64
119816,note_on,,,,,20,0,1,,,,0,66,72
119832,set_tempo,,,,,48,1,0,266667,,,,,
119848,note_off,,,,,32,0,1,,,,0,66,64
119876,note_on,,,,,28,0,1,,,,0,65,81
119878,note_on,,,,,2,0,1,,,,0,77,74
119880,set_tempo,,,,,48,1,0,265487,,,,,
119914,note_off,,,,,36,0,1,,,,0,77,64
119914,note_off,,,,,0,0,1,,,,0,65,64
119928,set_tempo,,,,,48,1,0,264317,,,,,
119932,note_on,,,,,18,0,1,,,,0,64,81
119956,note_off,,,,,24,0,1,,,,0,64,64
119976,set_tempo,,,,,48,1,0,263158,,,,,
120000,note_on,,,,,44,0,1,,,,0,75,69
120000,note_on,,,,,0,0,1,,,,0,63,71
120024,set_tempo,,,,,48,1,0,260870,,,,,
120034,note_off,,,,,34,0,1,,,,0,63,64
120038,note_off,,,,,4,0,1,,,,0,75,64
120052,note_on,,,,,14,0,1,,,,0,62,74
120072,set_tempo,,,,,48,1,0,259740,,,,,
120076,note_off,,,,,24,0,1,,,,0,62,64
120114,note_on,,,,,38,0,1,,,,0,73,69
120118,note_on,,,,,4,0,1,,,,0,61,78
120120,set_tempo,,,,,48,1,0,258621,,,,,
120144,note_off,,,,,26,0,1,,,,0,61,64
120148,note_off,,,,,4,0,1,,,,0,73,64
120168,note_on,,,,,20,0,1,,,,0,60,77
120168,set_tempo,,,,,48,1,0,257511,,,,,
120200,note_off,,,,,32,0,1,,,,0,60,64
120216,set_tempo,,,,,48,1,0,255319,,,,,
120232,note_on,,,,,32,0,1,,,,0,71,71
120234,note_on,,,,,2,0,1,,,,0,59,77
120258,note_off,,,,,24,0,1,,,,0,59,64
120260,note_off,,,,,2,0,1,,,,0,71,64
120264,set_tempo,,,,,48,1,0,254237,,,,,
120292,note_on,,,,,32,0,1,,,,0,58,78
120312,set_tempo,,,,,48,1,0,253165,,,,,
120316,note_off,,,,,24,0,1,,,,0,58,64
120340,note_on,,,,,24,0,1,,,,0,69,74
120344,note_on,,,,,4,0,1,,,,0,57,72
120360,set_tempo,,,,,48,1,0,252101,,,,,
120376,note_off,,,,,32,0,1,,,,0,57,64
120386,note_off,,,,,10,0,1,,,,0,69,64
120398,control_change,,,,,12,0,1,,64,0,0,,
120408,set_tempo,,,,,48,1,0,250000,,,,,
120416,note_on,,,,,18,0,1,,,,0,56,93
120444,note_off,,,,,28,0,1,,,,0,56,64
120456,set_tempo,,,,,48,1,0,248963,,,,,
120464,set_tempo,,,,,8,1,0,247934,,,,,
120468,set_tempo,,,,,4,1,0,241935,,,,,
120472,set_tempo,,,,,4,1,0,242915,,,,,
120476,set_tempo,,,,,4,1,0,243902,,,,,
120480,set_tempo,,,,,4,1,0,244898,,,,,
120484,set_tempo,,,,,4,1,0,246914,,,,,
120488,set_tempo,,,,,4,1,0,247934,,,,,
120492,set_tempo,,,,,4,1,0,248963,,,,,
120496,set_tempo,,,,,4,1,0,250000,,,,,
120500,set_tempo,,,,,4,1,0,252101,,,,,
120504,set_tempo,,,,,4,1,0,253165,,,,,
120508,set_tempo,,,,,4,1,0,254237,,,,,
120512,set_tempo,,,,,4,1,0,255319,,,,,
120516,set_tempo,,,,,4,1,0,257511,,,,,
120520,set_tempo,,,,,4,1,0,259740,,,,,
120524,set_tempo,,,,,4,1,0,260870,,,,,
120528,set_tempo,,,,,4,1,0,263158,,,,,
120532,set_tempo,,,,,4,1,0,264317,,,,,
120536,set_tempo,,,,,4,1,0,265487,,,,,
120540,set_tempo,,,,,4,1,0,266667,,,,,
120544,set_tempo,,,,,4,1,0,269058,,,,,
120548,set_tempo,,,,,4,1,0,270270,,,,,
120550,note_on,,,,,106,0,1,,,,0,56,78
120552,set_tempo,,,,,4,1,0,271493,,,,,
120552,note_on,,,,,2,0,1,,,,0,68,73
120556,set_tempo,,,,,4,1,0,272727,,,,,
120560,set_tempo,,,,,4,1,0,275229,,,,,
120564,set_tempo,,,,,4,1,0,276498,,,,,
120568,set_tempo,,,,,4,1,0,277778,,,,,
120572,set_tempo,,,,,4,1,0,279070,,,,,
120576,set_tempo,,,,,4,1,0,283019,,,,,
120576,note_off,,,,,0,0,1,,,,0,56,64
120576,note_off,,,,,24,0,1,,,,0,68,64
120670,note_on,,,,,94,0,1,,,,0,68,69
120672,note_on,,,,,2,0,1,,,,0,56,71
120688,note_off,,,,,16,0,1,,,,0,56,64
120690,note_off,,,,,2,0,1,,,,0,68,64
120790,note_on,,,,,100,0,1,,,,0,56,79
120792,note_on,,,,,2,0,1,,,,0,68,79
120816,note_off,,,,,24,0,1,,,,0,56,64
120820,note_off,,,,,4,0,1,,,,0,68,64
120908,note_on,,,,,88,0,1,,,,0,56,65
120910,note_on,,,,,2,0,1,,,,0,68,67
120928,note_off,,,,,18,0,1,,,,0,56,64
120932,note_off,,,,,4,0,1,,,,0,68,64
120960,set_tempo,,,,,384,1,0,352941,,,,,
121028,note_on,,,,,96,0,1,,,,0,56,66
121030,note_on,,,,,2,0,1,,,,0,68,69
121056,note_off,,,,,26,0,1,,,,0,56,64
121062,note_off,,,,,6,0,1,,,,0,68,64
121148,note_on,,,,,86,0,1,,,,0,68,73
121150,note_on,,,,,2,0,1,,,,0,56,74
121174,note_off,,,,,24,0,1,,,,0,56,64
121180,note_off,,,,,6,0,1,,,,0,68,64
121268,note_on,,,,,0,0,1,,,,0,56,58
121268,note_on,,,,,88,0,1,,,,0,68,57
121288,note_off,,,,,20,0,1,,,,0,56,64
121296,note_off,,,,,8,0,1,,,,0,68,64
121388,note_on,,,,,92,0,1,,,,0,68,62
121390,note_on,,,,,2,0,1,,,,0,56,57
121412,note_off,,,,,22,0,1,,,,0,56,64
121422,note_off,,,,,10,0,1,,,,0,68,64
121500,note_on,,,,,78,0,1,,,,0,68,60
121508,note_on,,,,,0,0,1,,,,0,50,65
121508,note_on,,,,,8,0,1,,,,0,56,56
121510,note_on,,,,,2,0,1,,,,0,59,64
121514,note_on,,,,,4,0,1,,,,0,62,67
121532,note_off,,,,,18,0,1,,,,0,56,64
121542,note_off,,,,,10,0,1,,,,0,68,64
121546,note_off,,,,,4,0,1,,,,0,62,64
121548,control_change,,,,,2,0,1,,64,127,0,,
121564,note_off,,,,,16,0,1,,,,0,59,64
121570,note_off,,,,,6,0,1,,,,0,50,64
121614,control_change,,,,,44,0,1,,64,0,0,,
121620,note_on,,,,,6,0,1,,,,0,68,64
121622,note_on,,,,,2,0,1,,,,0,56,61
121644,note_off,,,,,22,0,1,,,,0,56,64
121652,note_off,,,,,8,0,1,,,,0,68,64
121734,note_on,,,,,82,0,1,,,,0,68,66
121736,note_on,,,,,2,0,1,,,,0,56,54
121754,note_off,,,,,18,0,1,,,,0,56,64
121764,note_off,,,,,10,0,1,,,,0,68,64
121848,note_on,,,,,84,0,1,,,,0,44,65
121850,note_on,,,,,0,0,1,,,,0,59,50
121850,note_on,,,,,2,0,1,,,,0,68,73
121852,note_on,,,,,0,0,1,,,,0,51,69
121852,note_on,,,,,2,0,1,,,,0,56,60
121860,note_on,,,,,8,0,1,,,,0,63,56
121874,note_off,,,,,14,0,1,,,,0,63,64
121876,control_change,,,,,2,0,1,,64,127,0,,
121878,note_off,,,,,2,0,1,,,,0,56,64
121880,note_off,,,,,2,0,1,,,,0,68,64
121912,control_change,,,,,32,0,1,,64,0,0,,
121972,note_off,,,,,60,0,1,,,,0,51,64
121976,note_on,,,,,4,0,1,,,,0,68,66
121980,note_on,,,,,0,0,1,,,,0,56,48
121980,note_off,,,,,4,0,1,,,,0,59,64
121982,note_off,,,,,2,0,1,,,,0,44,64
121996,note_off,,,,,14,0,1,,,,0,56,64
122004,note_off,,,,,8,0,1,,,,0,68,64
122082,control_change,,,,,78,0,1,,64,127,0,,
122090,note_on,,,,,8,0,1,,,,0,56,67
122092,note_on,,,,,2,0,1,,,,0,68,71
122112,note_off,,,,,20,0,1,,,,0,56,64
122116,note_off,,,,,4,0,1,,,,0,68,64
122120,control_change,,,,,4,0,1,,64,0,0,,
122200,note_on,,,,,0,0,1,,,,0,53,78
122200,note_on,,,,,80,0,1,,,,0,62,70
122204,note_on,,,,,0,0,1,,,,0,59,53
122204,note_on,,,,,4,0,1,,,,0,65,62
122208,note_on,,,,,4,0,1,,,,0,71,57
122216,control_change,,,,,8,0,1,,64,127,0,,
122230,note_off,,,,,14,0,1,,,,0,59,64
122232,note_off,,,,,2,0,1,,,,0,71,64
122238,note_off,,,,,6,0,1,,,,0,65,64
122252,control_change,,,,,14,0,1,,64,0,0,,
122320,note_on,,,,,0,0,1,,,,0,59,67
122320,note_on,,,,,68,0,1,,,,0,71,71
122330,control_change,,,,,10,0,1,,64,127,0,,
122338,note_off,,,,,8,0,1,,,,0,53,64
122340,note_off,,,,,2,0,1,,,,0,59,64
122344,note_off,,,,,4,0,1,,,,0,71,64
122348,note_off,,,,,4,0,1,,,,0,62,64
122364,control_change,,,,,16,0,1,,64,0,0,,
122420,control_change,,,,,56,0,1,,64,127,0,,
122430,note_on,,,,,10,0,1,,,,0,71,68
122434,note_on,,,,,4,0,1,,,,0,59,54
122450,note_off,,,,,16,0,1,,,,0,59,64
122456,note_off,,,,,6,0,1,,,,0,71,64
122466,control_change,,,,,10,0,1,,64,0,0,,
122544,note_on,,,,,78,0,1,,,,0,62,59
122546,note_on,,,,,2,0,1,,,,0,47,56
122550,note_on,,,,,4,0,1,,,,0,71,67
122550,note_on,,,,,0,0,1,,,,0,59,64
122552,note_on,,,,,2,0,1,,,,0,66,67
122554,note_on,,,,,2,0,1,,,,0,54,64
122560,control_change,,,,,6,0,1,,64,127,0,,
122574,note_off,,,,,14,0,1,,,,0,59,64
122576,note_off,,,,,2,0,1,,,,0,71,64
122584,note_off,,,,,8,0,1,,,,0,66,64
122610,control_change,,,,,26,0,1,,64,0,0,,
122646,control_change,,,,,36,0,1,,64,127,0,,
122670,note_on,,,,,24,0,1,,,,0,71,59
122676,note_on,,,,,6,0,1,,,,0,59,47
122686,note_off,,,,,10,0,1,,,,0,71,64
122688,note_off,,,,,2,0,1,,,,0,59,64
122700,control_change,,,,,12,0,1,,64,0,0,,
122788,note_on,,,,,88,0,1,,,,0,71,61
122792,note_on,,,,,4,0,1,,,,0,59,46
122804,control_change,,,,,12,0,1,,64,127,0,,
122808,note_off,,,,,4,0,1,,,,0,59,64
122808,note_off,,,,,0,0,1,,,,0,71,64
122888,note_off,,,,,80,0,1,,,,0,47,64
122896,note_off,,,,,8,0,1,,,,0,54,64
122898,note_on,,,,,0,0,1,,,,0,71,68
122898,note_off,,,,,2,0,1,,,,0,62,64
122900,note_on,,,,,2,0,1,,,,0,59,64
122924,note_off,,,,,24,0,1,,,,0,59,64
122926,note_off,,,,,2,0,1,,,,0,71,64
122940,control_change,,,,,14,0,1,,64,0,0,,
123016,note_on,,,,,0,0,1,,,,0,59,58
123016,note_on,,,,,76,0,1,,,,0,71,66
123032,note_off,,,,,16,0,1,,,,0,59,64
123036,note_off,,,,,4,0,1,,,,0,71,64
123128,note_on,,,,,92,0,1,,,,0,71,59
123132,note_on,,,,,4,0,1,,,,0,59,49
123148,note_off,,,,,16,0,1,,,,0,59,64
123154,note_off,,,,,6,0,1,,,,0,71,64
123238,note_on,,,,,84,0,1,,,,0,71,57
123240,note_on,,,,,2,0,1,,,,0,59,64
123264,note_off,,,,,24,0,1,,,,0,59,64
123266,note_off,,,,,2,0,1,,,,0,71,64
123280,control_change,,,,,14,0,1,,64,0,0,,
123356,note_on,,,,,0,0,1,,,,0,59,58
123356,note_on,,,,,76,0,1,,,,0,71,66
123372,note_off,,,,,16,0,1,,,,0,59,64
123376,note_off,,,,,4,0,1,,,,0,71,64
123468,note_on,,,,,92,0,1,,,,0,71,59
123472,note_on,,,,,4,0,1,,,,0,59,49
123488,note_off,,,,,16,0,1,,,,0,59,64
123494,note_off,,,,,6,0,1,,,,0,71,64
123576,note_on,,,,,82,0,1,,,,0,62,66
123576,note_on,,,,,0,0,1,,,,0,53,70
123580,note_on,,,,,4,0,1,,,,0,65,71
123580,note_on,,,,,0,0,1,,,,0,59,42
123588,note_on,,,,,8,0,1,,,,0,71,59
123590,control_change,,,,,2,0,1,,64,127,0,,
123600,note_off,,,,,10,0,1,,,,0,59,64
123614,note_off,,,,,14,0,1,,,,0,71,64
123616,note_off,,,,,2,0,1,,,,0,65,64
123638,note_off,,,,,22,0,1,,,,0,53,64
123646,note_off,,,,,8,0,1,,,,0,62,64
123658,control_change,,,,,12,0,1,,64,0,0,,
123696,note_on,,,,,38,0,1,,,,0,71,63
123696,note_on,,,,,0,0,1,,,,0,59,64
123700,control_change,,,,,4,0,1,,64,127,0,,
123720,note_off,,,,,20,0,1,,,,0,59,64
123724,note_off,,,,,4,0,1,,,,0,71,64
123780,control_change,,,,,56,0,1,,64,0,0,,
123808,note_on,,,,,28,0,1,,,,0,71,62
123814,note_on,,,,,6,0,1,,,,0,59,43
123828,note_off,,,,,14,0,1,,,,0,59,64
123836,note_off,,,,,8,0,1,,,,0,71,64
123922,note_on,,,,,86,0,1,,,,0,71,61
123924,note_on,,,,,0,0,1,,,,0,54,61
123924,note_on,,,,,2,0,1,,,,0,59,59
123928,note_on,,,,,4,0,1,,,,0,66,72
123928,note_on,,,,,0,0,1,,,,0,62,65
123930,note_on,,,,,2,0,1,,,,0,47,44
123936,control_change,,,,,6,0,1,,64,127,0,,
123950,note_off,,,,,14,0,1,,,,0,59,64
123952,note_off,,,,,2,0,1,,,,0,71,64
123960,note_off,,,,,0,0,1,,,,0,66,64
123960,note_off,,,,,8,0,1,,,,0,47,64
123968,note_off,,,,,8,0,1,,,,0,54,64
123972,note_off,,,,,4,0,1,,,,0,62,64
124044,note_on,,,,,72,0,1,,,,0,71,64
124046,note_on,,,,,2,0,1,,,,0,59,63
124064,note_off,,,,,18,0,1,,,,0,59,64
124074,note_off,,,,,10,0,1,,,,0,71,64
124108,control_change,,,,,34,0,1,,64,0,0,,
124154,note_on,,,,,46,0,1,,,,0,71,64
124154,note_on,,,,,0,0,1,,,,0,59,66
124176,note_off,,,,,22,0,1,,,,0,59,64
124184,note_off,,,,,8,0,1,,,,0,71,64
124268,note_on,,,,,84,0,1,,,,0,65,82
124272,note_on,,,,,4,0,1,,,,0,74,67
124276,note_on,,,,,0,0,1,,,,0,56,73
124276,note_on,,,,,4,0,1,,,,0,62,62
124304,note_off,,,,,28,0,1,,,,0,62,64
124314,note_off,,,,,0,0,1,,,,0,65,64
124314,note_off,,,,,10,0,1,,,,0,74,64
124318,control_change,,,,,4,0,1,,64,127,0,,
124328,note_off,,,,,10,0,1,,,,0,56,64
124336,control_change,,,,,8,0,1,,64,0,0,,
124386,note_on,,,,,50,0,1,,,,0,62,63
124388,note_on,,,,,2,0,1,,,,0,74,58
124412,note_off,,,,,24,0,1,,,,0,62,64
124416,note_off,,,,,4,0,1,,,,0,74,64
124492,note_on,,,,,76,0,1,,,,0,74,58
124494,note_on,,,,,2,0,1,,,,0,62,62
124520,note_off,,,,,26,0,1,,,,0,62,64
124522,note_off,,,,,2,0,1,,,,0,74,64
124616,note_on,,,,,94,0,1,,,,0,62,77
124618,note_on,,,,,2,0,1,,,,0,57,64
124620,note_on,,,,,2,0,1,,,,0,74,64
124620,note_on,,,,,0,0,1,,,,0,65,70
124620,note_on,,,,,0,0,1,,,,0,69,70
124638,note_on,,,,,18,0,1,,,,0,50,73
124652,note_off,,,,,14,0,1,,,,0,74,64
124652,note_off,,,,,0,0,1,,,,0,62,64
124730,note_on,,,,,78,0,1,,,,0,74,54
124732,note_on,,,,,2,0,1,,,,0,62,49
124764,note_off,,,,,32,0,1,,,,0,62,64
124772,note_off,,,,,8,0,1,,,,0,74,64
124812,control_change,,,,,40,0,1,,64,127,0,,
124840,note_on,,,,,28,0,1,,,,0,74,53
124844,note_on,,,,,4,0,1,,,,0,62,39
124866,note_off,,,,,22,0,1,,,,0,62,64
124876,note_off,,,,,10,0,1,,,,0,74,64
124880,control_change,,,,,4,0,1,,64,0,0,,
124914,control_change,,,,,34,0,1,,64,127,0,,
124942,note_on,,,,,28,0,1,,,,0,74,53
124946,note_on,,,,,4,0,1,,,,0,62,39
124968,note_off,,,,,22,0,1,,,,0,62,64
124978,note_off,,,,,10,0,1,,,,0,74,64
124982,control_change,,,,,4,0,1,,64,0,0,,
124986,note_off,,,,,0,0,1,,,,0,69,64
124986,note_off,,,,,4,0,1,,,,0,65,64
125000,note_off,,,,,14,0,1,,,,0,57,64
125004,note_off,,,,,4,0,1,,,,0,50,64
125044,note_on,,,,,40,0,1,,,,0,74,57
125050,note_on,,,,,6,0,1,,,,0,62,49
125078,note_off,,,,,28,0,1,,,,0,62,64
125084,note_off,,,,,6,0,1,,,,0,74,64
125148,note_on,,,,,64,0,1,,,,0,74,59
125150,note_on,,,,,2,0,1,,,,0,62,58
125178,note_off,,,,,28,0,1,,,,0,62,64
125180,control_change,,,,,2,0,1,,64,127,0,,
125184,note_off,,,,,4,0,1,,,,0,74,64
125262,note_on,,,,,78,0,1,,,,0,74,57
125268,note_on,,,,,6,0,1,,,,0,62,49
125296,note_off,,,,,28,0,1,,,,0,62,64
125302,note_off,,,,,6,0,1,,,,0,74,64
125366,note_on,,,,,64,0,1,,,,0,74,59
125368,note_on,,,,,2,0,1,,,,0,62,58
125396,note_off,,,,,28,0,1,,,,0,62,64
125398,control_change,,,,,2,0,1,,64,127,0,,
125402,note_off,,,,,4,0,1,,,,0,74,64
125476,note_on,,,,,0,0,1,,,,0,62,53
125476,note_on,,,,,74,0,1,,,,0,74,55
125492,note_off,,,,,16,0,1,,,,0,62,64
125506,note_off,,,,,14,0,1,,,,0,74,64
125554,control_change,,,,,48,0,1,,64,0,0,,
125598,note_on,,,,,44,0,1,,,,0,68,82
125604,note_on,,,,,0,0,1,,,,0,59,72
125604,note_on,,,,,6,0,1,,,,0,77,65
125610,note_on,,,,,6,0,1,,,,0,65,77
125612,note_on,,,,,2,0,1,,,,0,71,71
125638,note_off,,,,,26,0,1,,,,0,65,64
125650,note_off,,,,,12,0,1,,,,0,71,64
125652,control_change,,,,,2,0,1,,64,127,0,,
125656,note_off,,,,,4,0,1,,,,0,77,64
125680,note_off,,,,,24,0,1,,,,0,68,64
125700,note_off,,,,,20,0,1,,,,0,59,64
125704,control_change,,,,,4,0,1,,64,0,0,,
125720,note_on,,,,,16,0,1,,,,0,77,56
125724,note_on,,,,,4,0,1,,,,0,65,55
125740,note_off,,,,,16,0,1,,,,0,65,64
125752,note_off,,,,,12,0,1,,,,0,77,64
125834,note_on,,,,,82,0,1,,,,0,65,76
125838,note_on,,,,,4,0,1,,,,0,77,68
125856,note_off,,,,,18,0,1,,,,0,65,64
125864,note_off,,,,,8,0,1,,,,0,77,64
125944,note_on,,,,,0,0,1,,,,0,65,71
125944,note_on,,,,,80,0,1,,,,0,72,69
125946,note_on,,,,,0,0,1,,,,0,53,64
125946,note_on,,,,,2,0,1,,,,0,77,67
125948,note_on,,,,,2,0,1,,,,0,68,77
125950,note_on,,,,,2,0,1,,,,0,60,64
125968,control_change,,,,,18,0,1,,64,127,0,,
125972,note_off,,,,,4,0,1,,,,0,65,64
125984,note_off,,,,,12,0,1,,,,0,77,64
125984,note_off,,,,,0,0,1,,,,0,72,64
126012,note_off,,,,,28,0,1,,,,0,53,64
126024,note_off,,,,,12,0,1,,,,0,60,64
126046,control_change,,,,,22,0,1,,64,0,0,,
126050,note_off,,,,,4,0,1,,,,0,68,64
126052,note_on,,,,,2,0,1,,,,0,77,59
126052,note_on,,,,,0,0,1,,,,0,65,59
126078,note_off,,,,,26,0,1,,,,0,65,64
126084,note_off,,,,,6,0,1,,,,0,77,64
126164,note_on,,,,,80,0,1,,,,0,77,69
126164,note_on,,,,,0,0,1,,,,0,65,70
126186,note_off,,,,,22,0,1,,,,0,65,64
126194,note_off,,,,,8,0,1,,,,0,77,64
126280,note_on,,,,,86,0,1,,,,0,68,83
126282,note_on,,,,,2,0,1,,,,0,62,76
126284,note_on,,,,,2,0,1,,,,0,80,81
126288,note_on,,,,,4,0,1,,,,0,74,72
126288,note_on,,,,,0,0,1,,,,0,71,72
126316,control_change,,,,,28,0,1,,64,127,0,,
126318,note_off,,,,,2,0,1,,,,0,68,64
126332,note_off,,,,,14,0,1,,,,0,71,64
126352,note_off,,,,,20,0,1,,,,0,80,64
126388,note_on,,,,,36,0,1,,,,0,80,66
126392,note_on,,,,,0,0,1,,,,0,68,74
126392,note_off,,,,,4,0,1,,,,0,74,64
126424,note_off,,,,,32,0,1,,,,0,68,64
126430,note_off,,,,,6,0,1,,,,0,62,64
126432,note_off,,,,,2,0,1,,,,0,80,64
126480,control_change,,,,,48,0,1,,64,0,0,,
126502,note_on,,,,,22,0,1,,,,0,80,82
126504,note_on,,,,,0,0,1,,,,0,71,71
126504,note_on,,,,,2,0,1,,,,0,75,76
126508,note_on,,,,,0,0,1,,,,0,56,78
126508,note_on,,,,,4,0,1,,,,0,68,72
126512,note_on,,,,,4,0,1,,,,0,63,58
126526,note_off,,,,,14,0,1,,,,0,63,64
126532,note_off,,,,,6,0,1,,,,0,71,64
126534,control_change,,,,,2,0,1,,64,127,0,,
126538,note_off,,,,,4,0,1,,,,0,56,64
126540,note_off,,,,,2,0,1,,,,0,75,64
126542,note_off,,,,,2,0,1,,,,0,68,64
126544,note_off,,,,,2,0,1,,,,0,80,64
126612,control_change,,,,,68,0,1,,64,0,0,,
126624,note_on,,,,,0,0,1,,,,0,71,80
126624,note_on,,,,,0,0,1,,,,0,65,77
126624,note_on,,,,,12,0,1,,,,0,74,77
126626,note_on,,,,,2,0,1,,,,0,77,77
126630,note_on,,,,,4,0,1,,,,0,83,73
126660,note_off,,,,,30,0,1,,,,0,74,64
126664,note_off,,,,,4,0,1,,,,0,83,64
126666,note_off,,,,,2,0,1,,,,0,77,64
126672,note_off,,,,,6,0,1,,,,0,71,64
126720,control_change,,,,,48,0,1,,64,127,0,,
126730,note_off,,,,,10,0,1,,,,0,65,64
126736,note_on,,,,,6,0,1,,,,0,71,74
126740,note_on,,,,,4,0,1,,,,0,83,69
126790,note_off,,,,,50,0,1,,,,0,83,64
126798,note_off,,,,,8,0,1,,,,0,71,64
126852,note_on,,,,,54,0,1,,,,0,83,80
126852,note_on,,,,,0,0,1,,,,0,59,70
126852,note_on,,,,,0,0,1,,,,0,71,77
126854,note_on,,,,,2,0,1,,,,0,74,63
126860,note_on,,,,,0,0,1,,,,0,66,74
126860,note_on,,,,,6,0,1,,,,0,78,63
126876,note_off,,,,,16,0,1,,,,0,74,64
126880,note_off,,,,,4,0,1,,,,0,59,64
126882,note_off,,,,,2,0,1,,,,0,78,64
126882,note_off,,,,,0,0,1,,,,0,83,64
126888,note_off,,,,,6,0,1,,,,0,71,64
126892,note_off,,,,,4,0,1,,,,0,66,64
126936,control_change,,,,,44,0,1,,64,0,0,,
126970,note_on,,,,,0,0,1,,,,0,80,82
126970,note_on,,,,,34,0,1,,,,0,86,87
126972,note_on,,,,,2,0,1,,,,0,77,78
126974,note_on,,,,,2,0,1,,,,0,74,77
126974,note_on,,,,,0,0,1,,,,0,68,86
126996,note_off,,,,,22,0,1,,,,0,77,64
127002,note_off,,,,,6,0,1,,,,0,86,64
127012,control_change,,,,,10,0,1,,64,127,0,,
127014,note_off,,,,,0,0,1,,,,0,80,64
127014,note_off,,,,,2,0,1,,,,0,74,64
127018,note_off,,,,,4,0,1,,,,0,68,64
127082,note_on,,,,,64,0,1,,,,0,80,86
127084,note_on,,,,,0,0,1,,,,0,77,73
127084,note_on,,,,,0,0,1,,,,0,68,76
127084,note_on,,,,,2,0,1,,,,0,86,78
127086,note_on,,,,,2,0,1,,,,0,74,70
127112,note_off,,,,,26,0,1,,,,0,77,64
127114,note_off,,,,,2,0,1,,,,0,86,64
127122,note_off,,,,,8,0,1,,,,0,80,64
127124,note_off,,,,,2,0,1,,,,0,74,64
127130,note_off,,,,,6,0,1,,,,0,68,64
127188,control_change,,,,,58,0,1,,64,0,0,,
127196,note_on,,,,,8,0,1,,,,0,81,83
127198,note_on,,,,,0,0,1,,,,0,77,77
127198,note_on,,,,,2,0,1,,,,0,86,82
127200,note_on,,,,,2,0,1,,,,0,74,72
127200,note_on,,,,,0,0,1,,,,0,69,72
127204,note_on,,,,,4,0,1,,,,0,62,70
127224,note_off,,,,,20,0,1,,,,0,77,64
127228,control_change,,,,,4,0,1,,64,127,0,,
127232,note_off,,,,,4,0,1,,,,0,86,64
127238,note_off,,,,,0,0,1,,,,0,81,64
127238,note_off,,,,,6,0,1,,,,0,62,64
127242,note_off,,,,,0,0,1,,,,0,74,64
127242,note_off,,,,,4,0,1,,,,0,69,64
127308,control_change,,,,,66,0,1,,64,0,0,,
127312,note_on,,,,,4,0,1,,,,0,80,84
127316,note_on,,,,,4,0,1,,,,0,86,82
127316,note_on,,,,,0,0,1,,,,0,74,74
127316,note_on,,,,,0,0,1,,,,0,68,85
127318,note_on,,,,,2,0,1,,,,0,77,77
127350,control_change,,,,,32,0,1,,64,127,0,,
127352,note_off,,,,,2,0,1,,,,0,77,64
127364,note_off,,,,,12,0,1,,,,0,86,64
127368,note_off,,,,,0,0,1,,,,0,80,64
127368,note_off,,,,,4,0,1,,,,0,74,64
127376,note_off,,,,,8,0,1,,,,0,68,64
127428,control_change,,,,,52,0,1,,64,0,0,,
127430,note_on,,,,,2,0,1,,,,0,80,79
127432,note_on,,,,,2,0,1,,,,0,86,69
127434,note_on,,,,,2,0,1,,,,0,68,86
127436,note_on,,,,,0,0,1,,,,0,74,74
127436,note_on,,,,,2,0,1,,,,0,77,72
127446,control_change,,,,,10,0,1,,64,127,0,,
127470,note_off,,,,,24,0,1,,,,0,77,64
127482,note_off,,,,,12,0,1,,,,0,80,64
127484,note_off,,,,,2,0,1,,,,0,86,64
127486,note_off,,,,,2,0,1,,,,0,74,64
127490,note_off,,,,,4,0,1,,,,0,68,64
127554,note_on,,,,,64,0,1,,,,0,86,80
127554,note_on,,,,,0,0,1,,,,0,81,81
127556,note_on,,,,,0,0,1,,,,0,74,75
127556,note_on,,,,,2,0,1,,,,0,77,78
127558,note_on,,,,,2,0,1,,,,0,69,77
127564,note_on,,,,,6,0,1,,,,0,62,74
127570,control_change,,,,,6,0,1,,64,0,0,,
127590,control_change,,,,,20,0,1,,64,127,0,,
127592,note_off,,,,,2,0,1,,,,0,77,64
127604,note_off,,,,,12,0,1,,,,0,62,64
127604,note_off,,,,,0,0,1,,,,0,86,64
127606,note_off,,,,,2,0,1,,,,0,81,64
127610,note_off,,,,,4,0,1,,,,0,69,64
127612,note_off,,,,,2,0,1,,,,0,74,64
127680,note_on,,,,,68,0,1,,,,0,80,85
127682,control_change,,,,,2,0,1,,64,0,0,,
127684,note_on,,,,,2,0,1,,,,0,77,78
127684,note_on,,,,,0,0,1,,,,0,68,85
127686,note_on,,,,,0,0,1,,,,0,74,71
127686,note_on,,,,,2,0,1,,,,0,86,81
127712,control_change,,,,,26,0,1,,64,127,0,,
127720,note_off,,,,,8,0,1,,,,0,77,64
127730,note_off,,,,,10,0,1,,,,0,86,64
127732,note_off,,,,,2,0,1,,,,0,74,64
127736,note_off,,,,,4,0,1,,,,0,80,64
127742,note_off,,,,,6,0,1,,,,0,68,64
127784,control_change,,,,,42,0,1,,64,0,0,,
127798,note_on,,,,,14,0,1,,,,0,80,83
127800,note_on,,,,,0,0,1,,,,0,68,84
127800,note_on,,,,,2,0,1,,,,0,77,77
127802,note_on,,,,,2,0,1,,,,0,74,76
127804,note_on,,,,,2,0,1,,,,0,86,76
127808,control_change,,,,,4,0,1,,64,127,0,,
127842,note_off,,,,,34,0,1,,,,0,77,64
127856,note_off,,,,,14,0,1,,,,0,74,64
127858,note_off,,,,,2,0,1,,,,0,86,64
127862,note_off,,,,,4,0,1,,,,0,80,64
127864,note_off,,,,,2,0,1,,,,0,68,64
127930,note_on,,,,,0,0,1,,,,0,77,81
127930,note_on,,,,,66,0,1,,,,0,81,80
127932,note_on,,,,,0,0,1,,,,0,69,77
127932,note_on,,,,,2,0,1,,,,0,86,80
127936,note_on,,,,,4,0,1,,,,0,74,69
127936,note_on,,,,,0,0,1,,,,0,62,72
127942,control_change,,,,,6,0,1,,64,0,0,,
127964,control_change,,,,,22,0,1,,64,127,0,,
127968,note_off,,,,,4,0,1,,,,0,77,64
127984,note_off,,,,,16,0,1,,,,0,62,64
127984,note_off,,,,,0,0,1,,,,0,86,64
127984,note_off,,,,,0,0,1,,,,0,74,64
127986,note_off,,,,,0,0,1,,,,0,81,64
127986,note_off,,,,,2,0,1,,,,0,69,64
128064,note_on,,,,,78,0,1,,,,0,80,87
128066,note_on,,,,,2,0,1,,,,0,86,79
128066,note_on,,,,,0,0,1,,,,0,68,92
128068,control_change,,,,,2,0,1,,64,0,0,,
128068,note_on,,,,,0,0,1,,,,0,77,77
128068,note_on,,,,,0,0,1,,,,0,74,82
128098,control_change,,,,,30,0,1,,64,127,0,,
128108,note_off,,,,,10,0,1,,,,0,77,64
128120,note_off,,,,,12,0,1,,,,0,74,64
128124,note_off,,,,,4,0,1,,,,0,86,64
128126,note_off,,,,,2,0,1,,,,0,80,64
128130,note_off,,,,,4,0,1,,,,0,68,64
128190,control_change,,,,,60,0,1,,64,0,0,,
128208,note_on,,,,,18,0,1,,,,0,86,88
128208,note_on,,,,,0,0,1,,,,0,74,85
128210,note_on,,,,,0,0,1,,,,0,68,86
128210,note_on,,,,,2,0,1,,,,0,80,90
128212,note_on,,,,,2,0,1,,,,0,77,82
128216,control_change,,,,,4,0,1,,64,127,0,,
128250,note_off,,,,,34,0,1,,,,0,77,64
128264,note_off,,,,,14,0,1,,,,0,68,64
128268,note_off,,,,,4,0,1,,,,0,86,64
128276,note_off,,,,,8,0,1,,,,0,80,64
128276,note_off,,,,,0,0,1,,,,0,74,64
128362,control_change,,,,,86,0,1,,64,0,0,,
128372,note_on,,,,,10,0,1,,,,0,86,85
128374,note_on,,,,,0,0,1,,,,0,77,82
128374,note_on,,,,,2,0,1,,,,0,81,82
128376,note_on,,,,,2,0,1,,,,0,69,73
128378,note_on,,,,,2,0,1,,,,0,74,69
128380,note_on,,,,,2,0,1,,,,0,62,77
128394,control_change,,,,,14,0,1,,64,127,0,,
128408,note_off,,,,,14,0,1,,,,0,77,64
128416,note_off,,,,,8,0,1,,,,0,81,64
128418,note_off,,,,,0,0,1,,,,0,69,64
128418,note_off,,,,,2,0,1,,,,0,74,64
128420,note_off,,,,,0,0,1,,,,0,86,64
128420,note_off,,,,,2,0,1,,,,0,62,64
128568,note_on,,,,,148,0,1,,,,0,86,88
128570,note_on,,,,,2,0,1,,,,0,82,90
128572,note_on,,,,,0,0,1,,,,0,74,80
128572,note_on,,,,,2,0,1,,,,0,77,86
128572,note_on,,,,,0,0,1,,,,0,70,89
128588,control_change,,,,,16,0,1,,64,0,0,,
128632,note_off,,,,,44,0,1,,,,0,77,64
128648,note_off,,,,,16,0,1,,,,0,86,64
128654,note_off,,,,,6,0,1,,,,0,82,64
128658,control_change,,,,,4,0,1,,64,127,0,,
128738,note_on,,,,,80,0,1,,,,0,86,77
128738,note_on,,,,,0,0,1,,,,0,82,76
128740,note_on,,,,,2,0,1,,,,0,77,69
128764,note_off,,,,,24,0,1,,,,0,74,64
128768,note_off,,,,,4,0,1,,,,0,70,64
128774,note_off,,,,,6,0,1,,,,0,77,64
128780,note_off,,,,,6,0,1,,,,0,86,64
128792,note_off,,,,,12,0,1,,,,0,82,64
128864,note_on,,,,,72,0,1,,,,0,82,82
128868,note_on,,,,,4,0,1,,,,0,77,72
128870,note_on,,,,,2,0,1,,,,0,86,75
128896,note_off,,,,,26,0,1,,,,0,77,64
128904,note_off,,,,,8,0,1,,,,0,86,64
128910,note_off,,,,,6,0,1,,,,0,82,64
128920,note_on,,,,,10,0,1,,,,0,74,77
128948,note_off,,,,,28,0,1,,,,0,74,64
128984,note_on,,,,,36,0,1,,,,0,82,87
128986,note_on,,,,,2,0,1,,,,0,74,93
128988,note_on,,,,,0,0,1,,,,0,77,83
128988,note_on,,,,,2,0,1,,,,0,86,88
129024,note_off,,,,,36,0,1,,,,0,77,64
129038,note_off,,,,,14,0,1,,,,0,86,64
129044,note_off,,,,,6,0,1,,,,0,82,64
129120,note_on,,,,,76,0,1,,,,0,82,84
129122,note_on,,,,,2,0,1,,,,0,86,82
129124,note_on,,,,,2,0,1,,,,0,77,78
129154,note_off,,,,,30,0,1,,,,0,77,64
129164,note_off,,,,,0,0,1,,,,0,74,64
129164,note_off,,,,,10,0,1,,,,0,86,64
129168,note_off,,,,,4,0,1,,,,0,82,64
129240,note_on,,,,,72,0,1,,,,0,86,78
129244,note_on,,,,,0,0,1,,,,0,77,77
129244,note_on,,,,,4,0,1,,,,0,82,79
129274,note_off,,,,,30,0,1,,,,0,77,64
129284,note_off,,,,,10,0,1,,,,0,82,64
129286,note_off,,,,,2,0,1,,,,0,86,64
129368,note_on,,,,,0,0,1,,,,0,79,95
129368,note_on,,,,,82,0,1,,,,0,86,90
129370,note_on,,,,,2,0,1,,,,0,91,87
129370,note_on,,,,,0,0,1,,,,0,83,85
129390,control_change,,,,,20,0,1,,64,0,0,,
129422,note_off,,,,,0,0,1,,,,0,79,64
129422,note_off,,,,,32,0,1,,,,0,83,64
129428,control_change,,,,,6,0,1,,64,127,0,,
129436,note_off,,,,,8,0,1,,,,0,86,64
129444,note_off,,,,,8,0,1,,,,0,91,64
129500,note_on,,,,,56,0,1,,,,0,91,69
129506,note_on,,,,,0,0,1,,,,0,79,68
129506,note_on,,,,,6,0,1,,,,0,83,67
129508,note_on,,,,,2,0,1,,,,0,86,66
129536,note_off,,,,,28,0,1,,,,0,79,64
129540,note_off,,,,,4,0,1,,,,0,83,64
129544,note_off,,,,,4,0,1,,,,0,86,64
129550,note_off,,,,,6,0,1,,,,0,91,64
129602,note_on,,,,,52,0,1,,,,0,91,63
129604,note_on,,,,,2,0,1,,,,0,83,67
129608,note_on,,,,,4,0,1,,,,0,86,69
129608,note_on,,,,,0,0,1,,,,0,79,64
129638,note_off,,,,,30,0,1,,,,0,79,64
129644,note_off,,,,,6,0,1,,,,0,86,64
129644,note_off,,,,,0,0,1,,,,0,83,64
129652,note_off,,,,,8,0,1,,,,0,91,64
129666,note_on,,,,,14,0,1,,,,0,67,72
129690,note_off,,,,,24,0,1,,,,0,67,64
129720,note_on,,,,,30,0,1,,,,0,86,81
129720,note_on,,,,,0,0,1,,,,0,79,80
129722,note_on,,,,,2,0,1,,,,0,83,79
129730,note_on,,,,,8,0,1,,,,0,67,100
129752,note_off,,,,,22,0,1,,,,0,79,64
129766,note_off,,,,,14,0,1,,,,0,83,64
129770,note_off,,,,,4,0,1,,,,0,86,64
129846,note_on,,,,,76,0,1,,,,0,83,70
129846,note_on,,,,,0,0,1,,,,0,79,68
129850,note_on,,,,,4,0,1,,,,0,86,69
129878,note_off,,,,,28,0,1,,,,0,79,64
129884,note_off,,,,,6,0,1,,,,0,83,64
129888,note_off,,,,,4,0,1,,,,0,86,64
129964,note_on,,,,,76,0,1,,,,0,83,72
129966,note_on,,,,,2,0,1,,,,0,86,74
129968,note_on,,,,,2,0,1,,,,0,79,64
130000,note_off,,,,,32,0,1,,,,0,79,64
130004,note_off,,,,,4,0,1,,,,0,83,64
130016,note_off,,,,,12,0,1,,,,0,86,64
130086,note_on,,,,,70,0,1,,,,0,82,85
130086,note_on,,,,,0,0,1,,,,0,77,86
130088,note_on,,,,,2,0,1,,,,0,86,85
130114,control_change,,,,,26,0,1,,64,0,0,,
130122,control_change,,,,,8,0,1,,64,127,0,,
130130,note_off,,,,,8,0,1,,,,0,67,64
130134,note_off,,,,,4,0,1,,,,0,82,64
130136,note_off,,,,,2,0,1,,,,0,77,64
130144,note_off,,,,,8,0,1,,,,0,86,64
130206,note_on,,,,,62,0,1,,,,0,82,69
130210,note_on,,,,,4,0,1,,,,0,77,60
130212,note_on,,,,,2,0,1,,,,0,86,56
130240,note_off,,,,,28,0,1,,,,0,77,64
130248,note_off,,,,,0,0,1,,,,0,82,64
130248,note_off,,,,,8,0,1,,,,0,86,64
130318,note_on,,,,,70,0,1,,,,0,82,69
130320,note_on,,,,,2,0,1,,,,0,86,63
130322,note_on,,,,,2,0,1,,,,0,77,57
130352,note_off,,,,,30,0,1,,,,0,77,64
130358,note_off,,,,,6,0,1,,,,0,82,64
130362,note_off,,,,,4,0,1,,,,0,86,64
130376,note_on,,,,,14,0,1,,,,0,62,80
130404,note_off,,,,,28,0,1,,,,0,62,64
130430,note_on,,,,,0,0,1,,,,0,77,82
130430,note_on,,,,,26,0,1,,,,0,86,81
130432,note_on,,,,,2,0,1,,,,0,82,86
130438,note_on,,,,,6,0,1,,,,0,62,100
130444,control_change,,,,,6,0,1,,64,0,0,,
130464,note_off,,,,,20,0,1,,,,0,77,64
130470,note_off,,,,,6,0,1,,,,0,82,64
130476,note_off,,,,,6,0,1,,,,0,86,64
130488,control_change,,,,,12,0,1,,64,127,0,,
130554,note_on,,,,,66,0,1,,,,0,77,70
130556,note_on,,,,,0,0,1,,,,0,82,74
130556,note_on,,,,,2,0,1,,,,0,86,72
130584,note_off,,,,,28,0,1,,,,0,77,64
130590,note_off,,,,,6,0,1,,,,0,82,64
130592,note_off,,,,,2,0,1,,,,0,62,64
130596,note_off,,,,,4,0,1,,,,0,86,64
130670,note_on,,,,,74,0,1,,,,0,86,77
130672,note_on,,,,,2,0,1,,,,0,82,75
130672,note_on,,,,,0,0,1,,,,0,77,73
130704,note_off,,,,,32,0,1,,,,0,77,64
130708,note_off,,,,,4,0,1,,,,0,82,64
130718,note_off,,,,,10,0,1,,,,0,86,64
130788,note_on,,,,,70,0,1,,,,0,91,82
130788,note_on,,,,,0,0,1,,,,0,79,86
130790,note_on,,,,,2,0,1,,,,0,86,77
130792,note_on,,,,,2,0,1,,,,0,83,69
130822,control_change,,,,,30,0,1,,64,0,0,,
130840,note_off,,,,,18,0,1,,,,0,79,64
130846,note_off,,,,,6,0,1,,,,0,83,64
130850,note_off,,,,,4,0,1,,,,0,86,64
130856,control_change,,,,,6,0,1,,64,127,0,,
130858,note_off,,,,,2,0,1,,,,0,91,64
130908,note_on,,,,,50,0,1,,,,0,91,70
130908,note_on,,,,,0,0,1,,,,0,86,65
130908,note_on,,,,,0,0,1,,,,0,79,66
130910,note_on,,,,,2,0,1,,,,0,83,64
130944,note_off,,,,,34,0,1,,,,0,79,64
130948,note_off,,,,,4,0,1,,,,0,83,64
130954,note_off,,,,,6,0,1,,,,0,86,64
130960,note_off,,,,,6,0,1,,,,0,91,64
131018,note_on,,,,,0,0,1,,,,0,83,73
131018,note_on,,,,,58,0,1,,,,0,86,75
131020,note_on,,,,,2,0,1,,,,0,79,73
131052,note_off,,,,,32,0,1,,,,0,79,64
131056,note_off,,,,,4,0,1,,,,0,83,64
131060,note_off,,,,,4,0,1,,,,0,86,64
131070,note_on,,,,,10,0,1,,,,0,55,78
131094,note_off,,,,,24,0,1,,,,0,55,64
131122,note_on,,,,,0,0,1,,,,0,79,79
131122,note_on,,,,,28,0,1,,,,0,83,78
131124,note_on,,,,,2,0,1,,,,0,86,77
131132,note_on,,,,,8,0,1,,,,0,55,95
131142,control_change,,,,,10,0,1,,64,0,0,,
131164,note_off,,,,,22,0,1,,,,0,79,64
131172,note_off,,,,,8,0,1,,,,0,83,64
131176,control_change,,,,,4,0,1,,64,127,0,,
131178,note_off,,,,,2,0,1,,,,0,86,64
131212,note_off,,,,,34,0,1,,,,0,55,64
131252,note_on,,,,,40,0,1,,,,0,79,71
131254,note_on,,,,,0,0,1,,,,0,83,65
131254,note_on,,,,,2,0,1,,,,0,86,69
131286,note_off,,,,,32,0,1,,,,0,79,64
131288,note_off,,,,,2,0,1,,,,0,83,64
131296,note_off,,,,,8,0,1,,,,0,86,64
131360,note_on,,,,,0,0,1,,,,0,79,62
131360,note_on,,,,,64,0,1,,,,0,86,66
131362,note_on,,,,,2,0,1,,,,0,83,67
131394,note_off,,,,,32,0,1,,,,0,79,64
131396,note_off,,,,,2,0,1,,,,0,83,64
131396,note_on,,,,,0,0,1,,,,0,50,66
131398,note_on,,,,,2,0,1,,,,0,62,65
131406,note_off,,,,,8,0,1,,,,0,86,64
131420,note_off,,,,,14,0,1,,,,0,50,64
131424,note_off,,,,,4,0,1,,,,0,62,64
131448,control_change,,,,,24,0,1,,64,0,0,,
131456,note_on,,,,,8,0,1,,,,0,62,85
131458,note_on,,,,,2,0,1,,,,0,50,88
131460,note_on,,,,,2,0,1,,,,0,86,78
131462,note_on,,,,,2,0,1,,,,0,82,84
131464,note_on,,,,,2,0,1,,,,0,77,83
131494,control_change,,,,,30,0,1,,64,127,0,,
131504,note_off,,,,,10,0,1,,,,0,77,64
131512,note_off,,,,,8,0,1,,,,0,82,64
131516,note_off,,,,,4,0,1,,,,0,62,64
131518,note_off,,,,,2,0,1,,,,0,86,64
131522,note_off,,,,,4,0,1,,,,0,50,64
131590,note_on,,,,,68,0,1,,,,0,82,76
131592,note_on,,,,,2,0,1,,,,0,86,75
131592,note_on,,,,,0,0,1,,,,0,77,69
131624,note_off,,,,,32,0,1,,,,0,77,64
131628,note_off,,,,,4,0,1,,,,0,82,64
131636,note_off,,,,,8,0,1,,,,0,86,64
131696,note_on,,,,,60,0,1,,,,0,86,72
131698,note_on,,,,,2,0,1,,,,0,82,64
131700,note_on,,,,,2,0,1,,,,0,77,62
131736,note_off,,,,,36,0,1,,,,0,77,64
131742,note_off,,,,,6,0,1,,,,0,82,64
131744,note_on,,,,,2,0,1,,,,0,55,73
131748,note_off,,,,,4,0,1,,,,0,86,64
131750,note_on,,,,,2,0,1,,,,0,43,78
131774,note_off,,,,,24,0,1,,,,0,55,64
131776,note_off,,,,,2,0,1,,,,0,43,64
131806,note_on,,,,,0,0,1,,,,0,79,83
131806,note_on,,,,,30,0,1,,,,0,86,79
131808,note_on,,,,,2,0,1,,,,0,83,78
131808,note_on,,,,,0,0,1,,,,0,43,90
131810,note_on,,,,,2,0,1,,,,0,91,78
131812,note_on,,,,,2,0,1,,,,0,55,88
131818,control_change,,,,,6,0,1,,64,0,0,,
131856,note_off,,,,,38,0,1,,,,0,79,64
131864,note_off,,,,,8,0,1,,,,0,83,64
131870,note_off,,,,,6,0,1,,,,0,91,64
131870,note_off,,,,,0,0,1,,,,0,86,64
131884,control_change,,,,,14,0,1,,64,127,0,,
131932,note_on,,,,,48,0,1,,,,0,86,75
131932,note_on,,,,,0,0,1,,,,0,79,72
131934,note_on,,,,,2,0,1,,,,0,83,70
131936,note_off,,,,,2,0,1,,,,0,55,64
131940,note_off,,,,,4,0,1,,,,0,43,64
131966,note_off,,,,,26,0,1,,,,0,79,64
131972,note_off,,,,,6,0,1,,,,0,83,64
131984,note_off,,,,,12,0,1,,,,0,86,64
132036,note_on,,,,,52,0,1,,,,0,86,78
132038,note_on,,,,,2,0,1,,,,0,83,62
132040,note_on,,,,,2,0,1,,,,0,79,58
132072,note_off,,,,,32,0,1,,,,0,79,64
132078,note_off,,,,,6,0,1,,,,0,83,64
132086,note_off,,,,,8,0,1,,,,0,86,64
132092,note_on,,,,,6,0,1,,,,0,62,90
132098,note_on,,,,,6,0,1,,,,0,50,81
132122,note_off,,,,,24,0,1,,,,0,50,64
132126,note_off,,,,,4,0,1,,,,0,62,64
132142,note_on,,,,,16,0,1,,,,0,86,80
132142,note_on,,,,,0,0,1,,,,0,82,87
132144,note_on,,,,,2,0,1,,,,0,77,88
132148,note_on,,,,,0,0,1,,,,0,62,90
132148,control_change,,,,,4,0,1,,64,0,0,,
132150,note_on,,,,,2,0,1,,,,0,50,85
132180,note_off,,,,,30,0,1,,,,0,77,64
132184,control_change,,,,,4,0,1,,64,127,0,,
132186,note_off,,,,,2,0,1,,,,0,82,64
132192,note_off,,,,,6,0,1,,,,0,86,64
132216,note_off,,,,,24,0,1,,,,0,62,64
132232,note_off,,,,,16,0,1,,,,0,50,64
132276,note_on,,,,,0,0,1,,,,0,77,69
132276,note_on,,,,,44,0,1,,,,0,82,76
132278,note_on,,,,,2,0,1,,,,0,86,74
132306,note_off,,,,,28,0,1,,,,0,77,64
132310,note_off,,,,,4,0,1,,,,0,82,64
132316,note_off,,,,,6,0,1,,,,0,86,64
132386,note_on,,,,,70,0,1,,,,0,77,66
132388,note_on,,,,,2,0,1,,,,0,86,77
132388,note_on,,,,,0,0,1,,,,0,82,74
132424,note_off,,,,,36,0,1,,,,0,77,64
132426,note_off,,,,,2,0,1,,,,0,82,64
132436,note_off,,,,,10,0,1,,,,0,86,64
132450,note_on,,,,,14,0,1,,,,0,55,78
132452,note_on,,,,,2,0,1,,,,0,43,77
132478,note_off,,,,,26,0,1,,,,0,43,64
132482,note_off,,,,,4,0,1,,,,0,55,64
132494,note_on,,,,,12,0,1,,,,0,86,78
132498,note_on,,,,,0,0,1,,,,0,79,82
132498,note_on,,,,,4,0,1,,,,0,91,78
132504,note_on,,,,,6,0,1,,,,0,83,72
132508,note_on,,,,,4,0,1,,,,0,55,82
132512,note_on,,,,,4,0,1,,,,0,43,89
132522,control_change,,,,,10,0,1,,64,0,0,,
132540,note_off,,,,,18,0,1,,,,0,79,64
132548,note_off,,,,,8,0,1,,,,0,83,64
132552,note_off,,,,,4,0,1,,,,0,91,64
132554,note_off,,,,,2,0,1,,,,0,86,64
132558,control_change,,,,,4,0,1,,64,127,0,,
132588,note_off,,,,,30,0,1,,,,0,55,64
132612,note_off,,,,,24,0,1,,,,0,43,64
132626,note_on,,,,,14,0,1,,,,0,83,72
132628,note_on,,,,,2,0,1,,,,0,86,72
132628,note_on,,,,,0,0,1,,,,0,79,74
132630,note_on,,,,,2,0,1,,,,0,91,67
132656,note_off,,,,,26,0,1,,,,0,79,64
132666,note_off,,,,,10,0,1,,,,0,83,64
132672,note_off,,,,,6,0,1,,,,0,91,64
132672,note_off,,,,,0,0,1,,,,0,86,64
132744,note_on,,,,,0,0,1,,,,0,83,73
132744,note_on,,,,,0,0,1,,,,0,79,76
132744,note_on,,,,,0,0,1,,,,0,86,72
132744,note_on,,,,,72,0,1,,,,0,91,68
132780,note_off,,,,,36,0,1,,,,0,79,64
132788,note_off,,,,,8,0,1,,,,0,83,64
132792,note_off,,,,,0,0,1,,,,0,91,64
132792,note_off,,,,,4,0,1,,,,0,86,64
132804,note_on,,,,,0,0,1,,,,0,39,85
132804,note_on,,,,,12,0,1,,,,0,51,92
132832,note_off,,,,,28,0,1,,,,0,51,64
132836,note_off,,,,,4,0,1,,,,0,39,64
132872,note_on,,,,,0,0,1,,,,0,79,87
132872,note_on,,,,,36,0,1,,,,0,82,87
132874,note_on,,,,,0,0,1,,,,0,51,87
132874,note_on,,,,,2,0,1,,,,0,87,79
132876,note_on,,,,,2,0,1,,,,0,39,83
132878,note_on,,,,,2,0,1,,,,0,91,69
132888,control_change,,,,,10,0,1,,64,0,0,,
132902,note_off,,,,,14,0,1,,,,0,79,64
132922,note_off,,,,,20,0,1,,,,0,82,64
132924,note_off,,,,,2,0,1,,,,0,91,64
132932,note_off,,,,,8,0,1,,,,0,87,64
132948,control_change,,,,,16,0,1,,64,127,0,,
133020,note_on,,,,,0,0,1,,,,0,82,84
133020,note_on,,,,,72,0,1,,,,0,87,77
133022,note_on,,,,,2,0,1,,,,0,79,78
133024,note_on,,,,,2,0,1,,,,0,91,67
133050,note_off,,,,,26,0,1,,,,0,79,64
133052,note_off,,,,,2,0,1,,,,0,82,64
133054,note_off,,,,,2,0,1,,,,0,91,64
133058,note_off,,,,,4,0,1,,,,0,87,64
133148,note_on,,,,,90,0,1,,,,0,87,83
133148,note_on,,,,,0,0,1,,,,0,82,87
133150,note_on,,,,,2,0,1,,,,0,79,82
133154,note_on,,,,,4,0,1,,,,0,91,63
133168,note_off,,,,,14,0,1,,,,0,91,64
133170,note_off,,,,,2,0,1,,,,0,39,64
133176,note_off,,,,,0,0,1,,,,0,51,64
133176,note_off,,,,,6,0,1,,,,0,79,64
133178,note_off,,,,,2,0,1,,,,0,82,64
133186,note_off,,,,,8,0,1,,,,0,87,64
133204,note_on,,,,,18,0,1,,,,0,70,77
133208,note_on,,,,,4,0,1,,,,0,58,74
133234,note_off,,,,,26,0,1,,,,0,58,64
133238,note_off,,,,,4,0,1,,,,0,70,64
133262,note_on,,,,,24,0,1,,,,0,87,90
133264,note_on,,,,,0,0,1,,,,0,79,90
133264,note_on,,,,,2,0,1,,,,0,82,95
133268,note_on,,,,,4,0,1,,,,0,70,82
133270,note_on,,,,,2,0,1,,,,0,91,71
133272,note_on,,,,,2,0,1,,,,0,58,84
133284,note_off,,,,,12,0,1,,,,0,91,64
133290,note_off,,,,,6,0,1,,,,0,79,64
133292,note_off,,,,,2,0,1,,,,0,82,64
133302,note_off,,,,,10,0,1,,,,0,87,64
133324,note_off,,,,,22,0,1,,,,0,70,64
133332,note_off,,,,,8,0,1,,,,0,58,64
133400,note_on,,,,,68,0,1,,,,0,82,84
133402,note_on,,,,,2,0,1,,,,0,87,82
133404,note_on,,,,,2,0,1,,,,0,79,77
133408,note_on,,,,,4,0,1,,,,0,91,67
133422,note_off,,,,,14,0,1,,,,0,91,64
133428,note_off,,,,,6,0,1,,,,0,79,64
133430,note_off,,,,,2,0,1,,,,0,82,64
133432,note_off,,,,,2,0,1,,,,0,87,64
133512,note_on,,,,,0,0,1,,,,0,79,78
133512,note_on,,,,,0,0,1,,,,0,82,82
133512,note_on,,,,,80,0,1,,,,0,87,79
133516,note_on,,,,,4,0,1,,,,0,91,64
133530,note_off,,,,,14,0,1,,,,0,91,64
133538,note_off,,,,,0,0,1,,,,0,82,64
133538,note_off,,,,,8,0,1,,,,0,79,64
133540,note_off,,,,,2,0,1,,,,0,87,64
133554,note_on,,,,,14,0,1,,,,0,63,81
133556,note_on,,,,,2,0,1,,,,0,51,79
133582,note_off,,,,,26,0,1,,,,0,51,64
133584,note_off,,,,,2,0,1,,,,0,63,64
133626,note_on,,,,,42,0,1,,,,0,63,81
133628,note_on,,,,,2,0,1,,,,0,87,87
133628,note_on,,,,,0,0,1,,,,0,82,92
133630,note_on,,,,,2,0,1,,,,0,79,88
133634,note_on,,,,,0,0,1,,,,0,51,95
133634,note_on,,,,,4,0,1,,,,0,91,63
133656,note_off,,,,,22,0,1,,,,0,91,64
133656,note_off,,,,,0,0,1,,,,0,79,64
133658,note_off,,,,,2,0,1,,,,0,82,64
133664,note_off,,,,,6,0,1,,,,0,87,64
133712,note_off,,,,,48,0,1,,,,0,63,64
133726,note_off,,,,,14,0,1,,,,0,51,64
133758,note_on,,,,,32,0,1,,,,0,82,79
133758,note_on,,,,,0,0,1,,,,0,79,74
133760,note_on,,,,,0,0,1,,,,0,87,79
133760,note_on,,,,,2,0,1,,,,0,91,69
133776,note_off,,,,,16,0,1,,,,0,91,64
133784,note_off,,,,,0,0,1,,,,0,82,64
133784,note_off,,,,,8,0,1,,,,0,87,64
133786,note_off,,,,,2,0,1,,,,0,79,64
133864,note_on,,,,,78,0,1,,,,0,82,86
133866,note_on,,,,,2,0,1,,,,0,79,82
133868,note_on,,,,,2,0,1,,,,0,87,78
133870,note_on,,,,,2,0,1,,,,0,91,69
133886,note_off,,,,,16,0,1,,,,0,91,64
133894,note_off,,,,,8,0,1,,,,0,79,64
133896,note_off,,,,,0,0,1,,,,0,82,64
133896,note_off,,,,,2,0,1,,,,0,87,64
133912,note_on,,,,,16,0,1,,,,0,58,76
133916,note_on,,,,,4,0,1,,,,0,46,79
133944,note_off,,,,,0,0,1,,,,0,58,64
133944,note_off,,,,,28,0,1,,,,0,46,64
133976,note_on,,,,,32,0,1,,,,0,58,83
133978,note_on,,,,,2,0,1,,,,0,82,90
133978,note_on,,,,,0,0,1,,,,0,46,90
133980,note_on,,,,,2,0,1,,,,0,87,84
133980,note_on,,,,,0,0,1,,,,0,79,86
133984,note_on,,,,,4,0,1,,,,0,91,72
133998,control_change,,,,,14,0,1,,64,0,0,,
134000,note_off,,,,,2,0,1,,,,0,91,64
134006,note_off,,,,,6,0,1,,,,0,79,64
134012,note_off,,,,,6,0,1,,,,0,82,64
134016,note_off,,,,,4,0,1,,,,0,87,64
134032,control_change,,,,,16,0,1,,64,127,0,,
134058,note_off,,,,,26,0,1,,,,0,58,64
134082,note_off,,,,,24,0,1,,,,0,46,64
134104,note_on,,,,,22,0,1,,,,0,82,82
134106,note_on,,,,,2,0,1,,,,0,87,76
134106,note_on,,,,,0,0,1,,,,0,79,77
134108,note_on,,,,,2,0,1,,,,0,91,64
134130,note_off,,,,,22,0,1,,,,0,91,64
134132,note_off,,,,,2,0,1,,,,0,79,64
134134,note_off,,,,,2,0,1,,,,0,82,64
134136,note_off,,,,,2,0,1,,,,0,87,64
134216,note_on,,,,,80,0,1,,,,0,87,77
134216,note_on,,,,,0,0,1,,,,0,82,81
134218,note_on,,,,,2,0,1,,,,0,79,77
134220,note_on,,,,,2,0,1,,,,0,91,64
134236,note_off,,,,,16,0,1,,,,0,91,64
134246,note_off,,,,,0,0,1,,,,0,87,64
134246,note_off,,,,,10,0,1,,,,0,79,64
134248,note_off,,,,,2,0,1,,,,0,82,64
134274,note_on,,,,,26,0,1,,,,0,39,79
134276,note_on,,,,,2,0,1,,,,0,51,88
134302,note_off,,,,,26,0,1,,,,0,51,64
134304,note_off,,,,,2,0,1,,,,0,39,64
134328,note_on,,,,,24,0,1,,,,0,82,89
134330,note_on,,,,,2,0,1,,,,0,87,83
134332,note_on,,,,,2,0,1,,,,0,79,86
134334,note_on,,,,,2,0,1,,,,0,91,71
134336,note_on,,,,,2,0,1,,,,0,51,80
134340,note_on,,,,,4,0,1,,,,0,39,79
134350,note_off,,,,,10,0,1,,,,0,91,64
134356,note_off,,,,,6,0,1,,,,0,79,64
134360,note_off,,,,,4,0,1,,,,0,82,64
134366,note_off,,,,,6,0,1,,,,0,87,64
134378,control_change,,,,,12,0,1,,64,0,0,,
134436,control_change,,,,,58,0,1,,64,127,0,,
134464,note_on,,,,,0,0,1,,,,0,82,87
134464,note_on,,,,,28,0,1,,,,0,87,83
134466,note_on,,,,,2,0,1,,,,0,79,85
134468,note_on,,,,,2,0,1,,,,0,91,69
134488,note_off,,,,,20,0,1,,,,0,91,64
134492,note_off,,,,,4,0,1,,,,0,79,64
134492,note_off,,,,,0,0,1,,,,0,82,64
134500,note_off,,,,,8,0,1,,,,0,87,64
134524,note_off,,,,,24,0,1,,,,0,51,64
134548,note_off,,,,,24,0,1,,,,0,39,64
134580,note_on,,,,,0,0,1,,,,0,79,85
134580,note_on,,,,,32,0,1,,,,0,82,86
134582,note_on,,,,,0,0,1,,,,0,87,83
134582,note_on,,,,,2,0,1,,,,0,91,72
134608,note_off,,,,,26,0,1,,,,0,79,64
134608,note_off,,,,,0,0,1,,,,0,82,64
134614,note_off,,,,,6,0,1,,,,0,91,64
134616,note_off,,,,,2,0,1,,,,0,87,64
134628,note_on,,,,,12,0,1,,,,0,38,75
134630,note_on,,,,,2,0,1,,,,0,50,79
134660,note_off,,,,,30,0,1,,,,0,50,64
134660,note_off,,,,,0,0,1,,,,0,38,64
134696,control_change,,,,,36,0,1,,64,0,0,,
134702,note_on,,,,,6,0,1,,,,0,50,97
134704,note_on,,,,,2,0,1,,,,0,82,90
134704,note_on,,,,,0,0,1,,,,0,38,90
134706,note_on,,,,,2,0,1,,,,0,87,86
134706,note_on,,,,,0,0,1,,,,0,79,86
134708,note_on,,,,,2,0,1,,,,0,91,75
134732,control_change,,,,,0,0,1,,64,127,0,,
134732,note_off,,,,,24,0,1,,,,0,79,64
134742,note_off,,,,,0,0,1,,,,0,82,64
134742,note_off,,,,,10,0,1,,,,0,91,64
134750,note_off,,,,,8,0,1,,,,0,87,64
134840,note_off,,,,,0,0,1,,,,0,50,64
134840,note_off,,,,,90,0,1,,,,0,38,64
134844,note_on,,,,,4,0,1,,,,0,91,72
134844,note_on,,,,,0,0,1,,,,0,82,86
134844,note_on,,,,,0,0,1,,,,0,79,82
134844,note_on,,,,,0,0,1,,,,0,87,82
134870,note_off,,,,,26,0,1,,,,0,79,64
134874,note_off,,,,,4,0,1,,,,0,82,64
134874,note_off,,,,,0,0,1,,,,0,91,64
134878,note_off,,,,,4,0,1,,,,0,87,64
134968,note_on,,,,,0,0,1,,,,0,79,85
134968,note_on,,,,,90,0,1,,,,0,82,87
134970,note_on,,,,,2,0,1,,,,0,91,73
134970,note_on,,,,,0,0,1,,,,0,87,79
134994,note_off,,,,,24,0,1,,,,0,79,64
134998,note_off,,,,,4,0,1,,,,0,87,64
135000,note_off,,,,,2,0,1,,,,0,82,64
135004,note_off,,,,,4,0,1,,,,0,91,64
135024,note_on,,,,,20,0,1,,,,0,37,85
135026,note_on,,,,,2,0,1,,,,0,49,90
135056,note_off,,,,,30,0,1,,,,0,49,64
135060,note_off,,,,,4,0,1,,,,0,37,64
135114,note_on,,,,,54,0,1,,,,0,49,103
135114,note_on,,,,,0,0,1,,,,0,37,92
135116,note_on,,,,,0,0,1,,,,0,80,81
135116,note_on,,,,,2,0,1,,,,0,89,74
135118,note_on,,,,,0,0,1,,,,0,85,82
135118,note_on,,,,,2,0,1,,,,0,92,74
135148,control_change,,,,,30,0,1,,64,0,0,,
135202,control_change,,,,,54,0,1,,64,127,0,,
135204,note_off,,,,,2,0,1,,,,0,80,64
135212,note_off,,,,,8,0,1,,,,0,85,64
135216,note_off,,,,,4,0,1,,,,0,89,64
135218,note_off,,,,,2,0,1,,,,0,92,64
135238,note_off,,,,,20,0,1,,,,0,37,64
135250,note_off,,,,,12,0,1,,,,0,49,64
135284,note_on,,,,,0,0,1,,,,0,80,74
135284,note_on,,,,,34,0,1,,,,0,85,72
135286,note_on,,,,,2,0,1,,,,0,92,63
135286,note_on,,,,,0,0,1,,,,0,89,67
135322,note_off,,,,,36,0,1,,,,0,80,64
135332,note_off,,,,,10,0,1,,,,0,85,64
135340,note_off,,,,,8,0,1,,,,0,89,64
135340,note_off,,,,,0,0,1,,,,0,92,64
135388,note_on,,,,,48,0,1,,,,0,92,54
135388,note_on,,,,,0,0,1,,,,0,89,62
135390,note_on,,,,,2,0,1,,,,0,85,71
135392,note_on,,,,,2,0,1,,,,0,80,76
135426,note_on,,,,,34,0,1,,,,0,73,75
135428,note_on,,,,,2,0,1,,,,0,61,74
135438,note_off,,,,,10,0,1,,,,0,80,64
135442,note_off,,,,,4,0,1,,,,0,92,64
135444,note_off,,,,,2,0,1,,,,0,85,64
135454,note_off,,,,,10,0,1,,,,0,89,64
135464,note_off,,,,,10,0,1,,,,0,61,64
135468,note_off,,,,,4,0,1,,,,0,73,64
135496,note_on,,,,,0,0,1,,,,0,85,88
135496,note_on,,,,,0,0,1,,,,0,80,87
135496,note_on,,,,,28,0,1,,,,0,92,82
135498,note_on,,,,,2,0,1,,,,0,89,72
135500,note_on,,,,,2,0,1,,,,0,73,88
135504,note_on,,,,,4,0,1,,,,0,61,90
135544,note_off,,,,,40,0,1,,,,0,80,64
135548,note_off,,,,,4,0,1,,,,0,92,64
135554,note_off,,,,,6,0,1,,,,0,85,64
135558,note_off,,,,,4,0,1,,,,0,89,64
135564,note_off,,,,,6,0,1,,,,0,73,64
135570,note_off,,,,,6,0,1,,,,0,61,64
135632,note_on,,,,,0,0,1,,,,0,80,79
135632,note_on,,,,,62,0,1,,,,0,85,77
135634,note_on,,,,,2,0,1,,,,0,89,67
135638,note_on,,,,,4,0,1,,,,0,92,65
135672,note_off,,,,,34,0,1,,,,0,80,64
135674,note_off,,,,,2,0,1,,,,0,85,64
135682,note_off,,,,,8,0,1,,,,0,92,64
135688,note_off,,,,,6,0,1,,,,0,89,64
135744,note_on,,,,,0,0,1,,,,0,89,69
135744,note_on,,,,,56,0,1,,,,0,92,67
135746,note_on,,,,,2,0,1,,,,0,80,78
135748,note_on,,,,,2,0,1,,,,0,85,79
135778,note_off,,,,,30,0,1,,,,0,80,64
135784,note_off,,,,,6,0,1,,,,0,92,64
135786,note_off,,,,,2,0,1,,,,0,85,64
135788,note_on,,,,,2,0,1,,,,0,56,80
135790,note_on,,,,,2,0,1,,,,0,68,86
135794,note_off,,,,,4,0,1,,,,0,89,64
135818,note_off,,,,,24,0,1,,,,0,68,64
135818,note_off,,,,,0,0,1,,,,0,56,64
135842,note_on,,,,,24,0,1,,,,0,92,71
135844,note_on,,,,,2,0,1,,,,0,85,84
135844,note_on,,,,,0,0,1,,,,0,80,86
135850,note_on,,,,,6,0,1,,,,0,68,84
135852,note_on,,,,,0,0,1,,,,0,56,86
135852,note_on,,,,,2,0,1,,,,0,89,72
135866,note_off,,,,,14,0,1,,,,0,89,64
135886,note_off,,,,,20,0,1,,,,0,80,64
135892,note_off,,,,,6,0,1,,,,0,92,64
135896,note_off,,,,,4,0,1,,,,0,85,64
135904,note_off,,,,,8,0,1,,,,0,68,64
135916,note_off,,,,,12,0,1,,,,0,56,64
135970,note_on,,,,,54,0,1,,,,0,89,58
135972,note_on,,,,,2,0,1,,,,0,85,74
135972,note_on,,,,,0,0,1,,,,0,80,71
135974,note_on,,,,,2,0,1,,,,0,92,65
136008,note_off,,,,,34,0,1,,,,0,80,64
136014,note_off,,,,,6,0,1,,,,0,85,64
136016,note_off,,,,,2,0,1,,,,0,92,64
136020,note_off,,,,,4,0,1,,,,0,89,64
136074,note_on,,,,,54,0,1,,,,0,92,67
136076,note_on,,,,,2,0,1,,,,0,89,70
136076,note_on,,,,,0,0,1,,,,0,85,74
136078,note_on,,,,,2,0,1,,,,0,80,79
136112,note_on,,,,,0,0,1,,,,0,49,79
136112,note_on,,,,,34,0,1,,,,0,61,77
136114,note_off,,,,,2,0,1,,,,0,80,64
136122,note_off,,,,,8,0,1,,,,0,85,64
136126,note_off,,,,,4,0,1,,,,0,92,64
136132,note_off,,,,,6,0,1,,,,0,89,64
136144,note_off,,,,,12,0,1,,,,0,49,64
136146,note_off,,,,,2,0,1,,,,0,61,64
136178,note_on,,,,,32,0,1,,,,0,61,89
136180,note_on,,,,,2,0,1,,,,0,92,79
136182,note_on,,,,,2,0,1,,,,0,89,79
136184,note_on,,,,,2,0,1,,,,0,49,95
136186,note_on,,,,,2,0,1,,,,0,85,82
136186,note_on,,,,,0,0,1,,,,0,80,90
136218,control_change,,,,,32,0,1,,64,0,0,,
136230,control_change,,,,,12,0,1,,64,127,0,,
136232,note_off,,,,,2,0,1,,,,0,80,64
136240,note_off,,,,,8,0,1,,,,0,85,64
136242,note_off,,,,,2,0,1,,,,0,92,64
136246,note_off,,,,,4,0,1,,,,0,89,64
136268,note_off,,,,,22,0,1,,,,0,61,64
136288,note_off,,,,,20,0,1,,,,0,49,64
136306,note_on,,,,,18,0,1,,,,0,85,70
136306,note_on,,,,,0,0,1,,,,0,80,72
136308,note_on,,,,,0,0,1,,,,0,89,61
136308,note_on,,,,,2,0,1,,,,0,92,61
136346,note_off,,,,,38,0,1,,,,0,80,64
136350,note_off,,,,,4,0,1,,,,0,92,64
136352,note_off,,,,,2,0,1,,,,0,85,64
136358,note_off,,,,,6,0,1,,,,0,89,64
136416,note_on,,,,,0,0,1,,,,0,80,82
136416,note_on,,,,,58,0,1,,,,0,92,64
136416,note_on,,,,,0,0,1,,,,0,89,68
136418,note_on,,,,,2,0,1,,,,0,85,75
136458,note_off,,,,,40,0,1,,,,0,80,64
136460,note_off,,,,,2,0,1,,,,0,92,64
136464,note_off,,,,,4,0,1,,,,0,85,64
136468,note_on,,,,,4,0,1,,,,0,44,81
136470,note_off,,,,,2,0,1,,,,0,89,64
136470,note_on,,,,,0,0,1,,,,0,56,92
136504,note_off,,,,,34,0,1,,,,0,56,64
136504,note_off,,,,,0,0,1,,,,0,44,64
136518,note_on,,,,,14,0,1,,,,0,92,65
136520,note_on,,,,,0,0,1,,,,0,80,82
136520,note_on,,,,,2,0,1,,,,0,85,83
136524,note_on,,,,,4,0,1,,,,0,89,74
136530,note_on,,,,,6,0,1,,,,0,56,98
136532,note_on,,,,,2,0,1,,,,0,44,100
136564,note_off,,,,,32,0,1,,,,0,80,64
136572,note_off,,,,,8,0,1,,,,0,85,64
136572,note_off,,,,,0,0,1,,,,0,92,64
136578,note_off,,,,,6,0,1,,,,0,89,64
136580,control_change,,,,,2,0,1,,64,0,0,,
136584,control_change,,,,,4,0,1,,64,127,0,,
136622,note_off,,,,,38,0,1,,,,0,56,64
136634,note_off,,,,,12,0,1,,,,0,44,64
136652,note_on,,,,,18,0,1,,,,0,80,69
136654,note_on,,,,,2,0,1,,,,0,92,58
136654,note_on,,,,,0,0,1,,,,0,85,72
136656,note_on,,,,,2,0,1,,,,0,89,56
136690,note_off,,,,,34,0,1,,,,0,80,64
136694,note_off,,,,,0,0,1,,,,0,92,64
136694,note_off,,,,,4,0,1,,,,0,85,64
136702,note_off,,,,,8,0,1,,,,0,89,64
136760,note_on,,,,,58,0,1,,,,0,92,53
136762,note_on,,,,,2,0,1,,,,0,89,57
136764,note_on,,,,,2,0,1,,,,0,85,60
136766,note_on,,,,,2,0,1,,,,0,80,62
136800,note_off,,,,,34,0,1,,,,0,80,64
136806,note_on,,,,,0,0,1,,,,0,37,79
136806,note_off,,,,,6,0,1,,,,0,85,64
136808,note_on,,,,,2,0,1,,,,0,49,83
136810,note_off,,,,,2,0,1,,,,0,92,64
136816,note_off,,,,,6,0,1,,,,0,89,64
136836,note_off,,,,,0,0,1,,,,0,37,64
136836,note_off,,,,,20,0,1,,,,0,49,64
136864,note_on,,,,,28,0,1,,,,0,92,72
136864,note_on,,,,,0,0,1,,,,0,49,87
136868,note_on,,,,,0,0,1,,,,0,37,87
136868,note_on,,,,,4,0,1,,,,0,85,76
136870,note_on,,,,,0,0,1,,,,0,80,85
136870,note_on,,,,,2,0,1,,,,0,89,74
136896,control_change,,,,,26,0,1,,64,0,0,,
136914,note_off,,,,,18,0,1,,,,0,80,64
136922,note_off,,,,,8,0,1,,,,0,85,64
136926,note_off,,,,,4,0,1,,,,0,92,64
136926,control_change,,,,,0,0,1,,64,127,0,,
136928,note_off,,,,,2,0,1,,,,0,89,64
137000,note_on,,,,,72,0,1,,,,0,80,79
137002,note_on,,,,,2,0,1,,,,0,85,76
137004,note_on,,,,,0,0,1,,,,0,89,65
137004,note_on,,,,,2,0,1,,,,0,92,67
137034,note_off,,,,,30,0,1,,,,0,37,64
137036,note_off,,,,,2,0,1,,,,0,49,64
137044,note_off,,,,,8,0,1,,,,0,80,64
137052,note_off,,,,,8,0,1,,,,0,85,64
137056,note_off,,,,,4,0,1,,,,0,92,64
137062,note_off,,,,,6,0,1,,,,0,89,64
137118,note_on,,,,,56,0,1,,,,0,92,57
137120,note_on,,,,,0,0,1,,,,0,80,76
137120,note_on,,,,,2,0,1,,,,0,89,68
137122,note_on,,,,,2,0,1,,,,0,85,73
137158,note_on,,,,,36,0,1,,,,0,38,80
137160,note_on,,,,,2,0,1,,,,0,50,70
137162,note_off,,,,,2,0,1,,,,0,80,64
137168,note_off,,,,,6,0,1,,,,0,85,64
137168,note_off,,,,,0,0,1,,,,0,92,64
137176,note_off,,,,,8,0,1,,,,0,89,64
137192,note_off,,,,,16,0,1,,,,0,50,64
137194,note_off,,,,,2,0,1,,,,0,38,64
137228,note_on,,,,,34,0,1,,,,0,92,74
137228,note_on,,,,,0,0,1,,,,0,80,88
137230,note_on,,,,,2,0,1,,,,0,85,79
137232,note_on,,,,,2,0,1,,,,0,89,76
137234,note_on,,,,,0,0,1,,,,0,38,92
137234,note_on,,,,,2,0,1,,,,0,50,97
137256,control_change,,,,,22,0,1,,64,0,0,,
137282,note_off,,,,,26,0,1,,,,0,80,64
137288,note_off,,,,,6,0,1,,,,0,85,64
137288,note_off,,,,,0,0,1,,,,0,92,64
137296,note_off,,,,,8,0,1,,,,0,89,64
137320,control_change,,,,,24,0,1,,64,127,0,,
137360,note_on,,,,,0,0,1,,,,0,80,79
137360,note_on,,,,,40,0,1,,,,0,92,66
137362,note_on,,,,,2,0,1,,,,0,89,62
137362,note_on,,,,,0,0,1,,,,0,85,78
137404,note_off,,,,,42,0,1,,,,0,50,64
137406,note_off,,,,,2,0,1,,,,0,80,64
137410,note_off,,,,,4,0,1,,,,0,92,64
137410,note_off,,,,,0,0,1,,,,0,38,64
137412,note_off,,,,,2,0,1,,,,0,85,64
137418,note_off,,,,,6,0,1,,,,0,89,64
137478,note_on,,,,,60,0,1,,,,0,89,63
137478,note_on,,,,,0,0,1,,,,0,80,83
137480,note_on,,,,,0,0,1,,,,0,85,73
137480,note_on,,,,,2,0,1,,,,0,92,60
137528,note_off,,,,,48,0,1,,,,0,80,64
137528,note_on,,,,,0,0,1,,,,0,49,86
137530,note_on,,,,,2,0,1,,,,0,37,80
137534,note_off,,,,,4,0,1,,,,0,85,64
137540,note_off,,,,,6,0,1,,,,0,92,64
137544,note_off,,,,,4,0,1,,,,0,89,64
137562,note_off,,,,,18,0,1,,,,0,49,64
137564,note_off,,,,,2,0,1,,,,0,37,64
137606,note_on,,,,,0,0,1,,,,0,49,93
137606,note_on,,,,,42,0,1,,,,0,80,86
137608,note_on,,,,,0,0,1,,,,0,37,93
137608,note_on,,,,,2,0,1,,,,0,89,69
137608,note_on,,,,,0,0,1,,,,0,85,81
137610,note_on,,,,,2,0,1,,,,0,92,71
137628,control_change,,,,,18,0,1,,64,0,0,,
137664,control_change,,,,,36,0,1,,64,127,0,,
137666,note_off,,,,,2,0,1,,,,0,80,64
137672,note_off,,,,,6,0,1,,,,0,85,64
137676,note_off,,,,,4,0,1,,,,0,92,64
137682,note_off,,,,,6,0,1,,,,0,89,64
137750,note_on,,,,,68,0,1,,,,0,80,82
137752,note_on,,,,,2,0,1,,,,0,92,66
137752,note_on,,,,,0,0,1,,,,0,85,72
137754,note_on,,,,,2,0,1,,,,0,89,67
137774,note_off,,,,,20,0,1,,,,0,37,64
137778,note_off,,,,,4,0,1,,,,0,49,64
137804,note_off,,,,,26,0,1,,,,0,80,64
137808,note_off,,,,,4,0,1,,,,0,85,64
137818,note_off,,,,,10,0,1,,,,0,89,64
137820,note_off,,,,,2,0,1,,,,0,92,64
137876,note_on,,,,,0,0,1,,,,0,80,86
137876,note_on,,,,,56,0,1,,,,0,89,68
137878,note_on,,,,,0,0,1,,,,0,85,76
137878,note_on,,,,,2,0,1,,,,0,92,72
137930,note_on,,,,,52,0,1,,,,0,39,79
137932,note_on,,,,,0,0,1,,,,0,51,93
137932,note_off,,,,,2,0,1,,,,0,85,64
137932,note_off,,,,,0,0,1,,,,0,80,64
137934,note_off,,,,,2,0,1,,,,0,89,64
137942,note_off,,,,,8,0,1,,,,0,92,64
137960,note_off,,,,,18,0,1,,,,0,51,64
137964,note_off,,,,,4,0,1,,,,0,39,64
138006,note_on,,,,,42,0,1,,,,0,51,97
138010,note_on,,,,,4,0,1,,,,0,88,77
138012,note_on,,,,,2,0,1,,,,0,93,77
138014,note_on,,,,,2,0,1,,,,0,81,79
138016,note_on,,,,,2,0,1,,,,0,85,78
138018,note_on,,,,,2,0,1,,,,0,39,95
138044,control_change,,,,,26,0,1,,64,0,0,,
138076,note_off,,,,,32,0,1,,,,0,81,64
138088,note_off,,,,,12,0,1,,,,0,85,64
138090,note_off,,,,,2,0,1,,,,0,93,64
138094,note_off,,,,,4,0,1,,,,0,88,64
138106,control_change,,,,,12,0,1,,64,127,0,,
138172,note_on,,,,,66,0,1,,,,0,88,75
138172,note_on,,,,,0,0,1,,,,0,85,79
138174,note_on,,,,,2,0,1,,,,0,81,82
138176,note_on,,,,,2,0,1,,,,0,93,78
138220,note_off,,,,,44,0,1,,,,0,81,64
138230,note_off,,,,,10,0,1,,,,0,51,64
138232,note_off,,,,,2,0,1,,,,0,85,64
138240,note_off,,,,,8,0,1,,,,0,93,64
138240,note_off,,,,,0,0,1,,,,0,88,64
138242,note_off,,,,,2,0,1,,,,0,39,64
138310,note_on,,,,,68,0,1,,,,0,93,81
138312,note_on,,,,,2,0,1,,,,0,88,75
138312,note_on,,,,,0,0,1,,,,0,81,82
138312,note_on,,,,,0,0,1,,,,0,85,80
138378,note_off,,,,,66,0,1,,,,0,81,64
138380,note_on,,,,,2,0,1,,,,0,37,85
138382,note_on,,,,,2,0,1,,,,0,49,93
138386,note_off,,,,,4,0,1,,,,0,93,64
138388,note_off,,,,,2,0,1,,,,0,85,64
138394,note_off,,,,,6,0,1,,,,0,88,64
138410,note_off,,,,,16,0,1,,,,0,49,64
138418,note_off,,,,,8,0,1,,,,0,37,64
138464,note_on,,,,,46,0,1,,,,0,49,87
138466,note_on,,,,,0,0,1,,,,0,81,87
138466,note_on,,,,,2,0,1,,,,0,88,86
138468,note_on,,,,,0,0,1,,,,0,85,86
138468,note_on,,,,,2,0,1,,,,0,93,85
138470,note_on,,,,,2,0,1,,,,0,37,96
138478,control_change,,,,,8,0,1,,64,0,0,,
138510,control_change,,,,,32,0,1,,64,127,0,,
138542,note_off,,,,,32,0,1,,,,0,81,64
138548,note_off,,,,,6,0,1,,,,0,93,64
138552,note_off,,,,,4,0,1,,,,0,85,64
138556,note_off,,,,,4,0,1,,,,0,88,64
138620,note_off,,,,,64,0,1,,,,0,49,64
138640,note_on,,,,,0,0,1,,,,0,88,73
138640,note_on,,,,,0,0,1,,,,0,81,80
138640,note_off,,,,,20,0,1,,,,0,37,64
138642,note_on,,,,,2,0,1,,,,0,93,77
138644,note_on,,,,,2,0,1,,,,0,85,76
138696,note_off,,,,,52,0,1,,,,0,81,64
138708,note_off,,,,,12,0,1,,,,0,85,64
138714,note_off,,,,,6,0,1,,,,0,93,64
138716,note_off,,,,,2,0,1,,,,0,88,64
138816,note_on,,,,,100,0,1,,,,0,93,66
138816,note_on,,,,,0,0,1,,,,0,85,79
138818,note_on,,,,,2,0,1,,,,0,88,73
138822,note_on,,,,,4,0,1,,,,0,81,68
138858,note_off,,,,,36,0,1,,,,0,81,64
138874,note_off,,,,,16,0,1,,,,0,93,64
138882,note_off,,,,,8,0,1,,,,0,85,64
138884,note_off,,,,,2,0,1,,,,0,88,64
138920,note_on,,,,,36,0,1,,,,0,30,91
138922,note_on,,,,,2,0,1,,,,0,42,86
138950,note_off,,,,,28,0,1,,,,0,42,64
138958,note_off,,,,,8,0,1,,,,0,30,64
139020,note_on,,,,,62,0,1,,,,0,94,95
139020,note_on,,,,,0,0,1,,,,0,82,99
139022,note_on,,,,,2,0,1,,,,0,30,97
139024,note_on,,,,,2,0,1,,,,0,85,90
139024,note_on,,,,,0,0,1,,,,0,42,95
139030,note_on,,,,,6,0,1,,,,0,90,80
139048,control_change,,,,,18,0,1,,64,0,0,,
139108,set_tempo,,,,,18148,1,0,350877,,,,,
139116,set_tempo,,,,,8,1,0,348837,,,,,
139120,set_tempo,,,,,4,1,0,346821,,,,,
139122,control_change,,,,,74,0,1,,64,127,0,,
139128,set_tempo,,,,,8,1,0,344828,,,,,
139136,set_tempo,,,,,8,1,0,342857,,,,,
139140,set_tempo,,,,,4,1,0,340909,,,,,
139148,set_tempo,,,,,8,1,0,338983,,,,,
139156,set_tempo,,,,,8,1,0,337079,,,,,
139160,set_tempo,,,,,4,1,0,335196,,,,,
139168,set_tempo,,,,,8,1,0,333333,,,,,
139176,set_tempo,,,,,8,1,0,331492,,,,,
139178,note_off,,,,,56,0,1,,,,0,30,64
139180,set_tempo,,,,,4,1,0,329670,,,,,
139188,set_tempo,,,,,8,1,0,327869,,,,,
139190,note_off,,,,,0,0,1,,,,0,85,64
139190,note_off,,,,,12,0,1,,,,0,42,64
139194,note_off,,,,,4,0,1,,,,0,82,64
139196,set_tempo,,,,,8,1,0,326087,,,,,
139198,note_off,,,,,4,0,1,,,,0,94,64
139200,set_tempo,,,,,4,1,0,257511,,,,,
139204,note_off,,,,,6,0,1,,,,0,90,64
139240,note_on,,,,,36,0,1,,,,0,70,80
139242,note_on,,,,,2,0,1,,,,0,58,80
139292,note_off,,,,,50,0,1,,,,0,58,64
139294,note_off,,,,,2,0,1,,,,0,70,64
139398,note_on,,,,,104,0,1,,,,0,90,84
139400,note_on,,,,,2,0,1,,,,0,78,84
139404,note_on,,,,,4,0,1,,,,0,66,84
139406,note_on,,,,,2,0,1,,,,0,54,84
139444,note_off,,,,,38,0,1,,,,0,66,64
139450,note_off,,,,,6,0,1,,,,0,54,64
139460,note_off,,,,,10,0,1,,,,0,78,64
139464,note_off,,,,,4,0,1,,,,0,90,64
139548,note_on,,,,,84,0,1,,,,0,87,94
139548,note_on,,,,,0,0,1,,,,0,63,94
139550,note_on,,,,,2,0,1,,,,0,75,94
139554,note_on,,,,,4,0,1,,,,0,51,94
139588,note_off,,,,,34,0,1,,,,0,63,64
139596,note_off,,,,,8,0,1,,,,0,51,64
139600,note_off,,,,,4,0,1,,,,0,87,64
139602,note_off,,,,,2,0,1,,,,0,75,64
139678,note_on,,,,,0,0,1,,,,0,73,84
139678,note_on,,,,,76,0,1,,,,0,85,83
139684,note_on,,,,,6,0,1,,,,0,61,80
139684,note_on,,,,,0,0,1,,,,0,49,87
139716,note_off,,,,,32,0,1,,,,0,61,64
139722,note_off,,,,,6,0,1,,,,0,49,64
139726,note_off,,,,,4,0,1,,,,0,73,64
139732,note_off,,,,,6,0,1,,,,0,85,64
139798,note_on,,,,,66,0,1,,,,0,58,82
139800,note_on,,,,,2,0,1,,,,0,46,79
139804,note_on,,,,,4,0,1,,,,0,82,82
139806,note_on,,,,,2,0,1,,,,0,70,84
139834,note_off,,,,,28,0,1,,,,0,58,64
139846,note_off,,,,,12,0,1,,,,0,46,64
139852,note_off,,,,,6,0,1,,,,0,82,64
139856,note_off,,,,,4,0,1,,,,0,70,64
139924,note_on,,,,,68,0,1,,,,0,80,79
139926,note_on,,,,,2,0,1,,,,0,68,90
139928,note_on,,,,,2,0,1,,,,0,56,86
139930,note_on,,,,,2,0,1,,,,0,44,86
139966,note_off,,,,,36,0,1,,,,0,56,64
139972,note_off,,,,,6,0,1,,,,0,68,64
139978,note_off,,,,,6,0,1,,,,0,44,64
139988,note_off,,,,,10,0,1,,,,0,80,64
140054,note_on,,,,,66,0,1,,,,0,54,82
140056,note_on,,,,,2,0,1,,,,0,78,76
140056,note_on,,,,,0,0,1,,,,0,42,79
140060,note_on,,,,,4,0,1,,,,0,66,84
140100,note_off,,,,,40,0,1,,,,0,54,64
140110,note_off,,,,,10,0,1,,,,0,66,64
140112,note_off,,,,,2,0,1,,,,0,42,64
140118,note_off,,,,,6,0,1,,,,0,78,64
140194,note_on,,,,,76,0,1,,,,0,75,79
140196,note_on,,,,,2,0,1,,,,0,63,84
140196,note_on,,,,,0,0,1,,,,0,51,89
140198,note_on,,,,,2,0,1,,,,0,39,79
140250,note_off,,,,,52,0,1,,,,0,51,64
140252,note_off,,,,,2,0,1,,,,0,63,64
140258,note_off,,,,,6,0,1,,,,0,75,64
140260,note_off,,,,,2,0,1,,,,0,39,64
140334,note_on,,,,,74,0,1,,,,0,49,81
140336,note_on,,,,,0,0,1,,,,0,37,82
140336,note_on,,,,,0,0,1,,,,0,61,84
140336,note_on,,,,,2,0,1,,,,0,73,77
140388,note_off,,,,,52,0,1,,,,0,49,64
140396,note_off,,,,,8,0,1,,,,0,61,64
140400,note_off,,,,,4,0,1,,,,0,73,64
140402,note_off,,,,,2,0,1,,,,0,37,64
140484,note_on,,,,,82,0,1,,,,0,70,83
140484,note_on,,,,,0,0,1,,,,0,46,90
140486,note_on,,,,,2,0,1,,,,0,58,92
140544,note_off,,,,,58,0,1,,,,0,58,64
140544,note_off,,,,,0,0,1,,,,0,70,64
140546,note_off,,,,,2,0,1,,,,0,46,64
140652,note_on,,,,,106,0,1,,,,0,66,81
140656,note_on,,,,,0,0,1,,,,0,42,82
140656,note_on,,,,,4,0,1,,,,0,54,74
140680,note_off,,,,,24,0,1,,,,0,54,64
140696,note_off,,,,,16,0,1,,,,0,66,64
140700,note_off,,,,,4,0,1,,,,0,42,64
140872,note_on,,,,,0,0,1,,,,0,92,84
140872,note_on,,,,,172,0,1,,,,0,95,83
140874,note_on,,,,,2,0,1,,,,0,88,81
140876,note_on,,,,,2,0,1,,,,0,40,83
140876,note_on,,,,,0,0,1,,,,0,28,87
140878,note_on,,,,,2,0,1,,,,0,83,81
140904,control_change,,,,,26,0,1,,64,0,0,,
140978,control_change,,,,,74,0,1,,64,127,0,,
141026,note_off,,,,,48,0,1,,,,0,28,64
141046,note_off,,,,,20,0,1,,,,0,40,64
141088,note_off,,,,,42,0,1,,,,0,83,64
141090,note_off,,,,,2,0,1,,,,0,92,64
141090,note_off,,,,,0,0,1,,,,0,95,64
141092,note_off,,,,,2,0,1,,,,0,88,64
141108,note_on,,,,,16,0,1,,,,0,71,89
141108,note_on,,,,,0,0,1,,,,0,59,89
141140,note_off,,,,,32,0,1,,,,0,71,64
141142,note_off,,,,,2,0,1,,,,0,59,64
141232,note_on,,,,,90,0,1,,,,0,92,83
141234,note_on,,,,,2,0,1,,,,0,80,87
141238,note_on,,,,,4,0,1,,,,0,68,83
141242,note_on,,,,,4,0,1,,,,0,56,82
141264,set_tempo,,,,,2064,1,0,256410,,,,,
141282,note_off,,,,,40,0,1,,,,0,56,64
141288,note_off,,,,,6,0,1,,,,0,68,64
141300,note_off,,,,,12,0,1,,,,0,92,64
141304,note_off,,,,,4,0,1,,,,0,80,64
141380,note_on,,,,,76,0,1,,,,0,90,80
141382,note_on,,,,,2,0,1,,,,0,78,87
141384,note_on,,,,,2,0,1,,,,0,66,81
141388,note_on,,,,,4,0,1,,,,0,54,78
141412,set_tempo,,,,,148,1,0,254237,,,,,
141426,note_off,,,,,38,0,1,,,,0,66,64
141430,note_off,,,,,4,0,1,,,,0,54,64
141436,note_off,,,,,6,0,1,,,,0,78,64
141438,note_off,,,,,2,0,1,,,,0,90,64
141514,note_on,,,,,76,0,1,,,,0,88,72
141516,note_on,,,,,0,0,1,,,,0,52,73
141516,note_on,,,,,2,0,1,,,,0,64,76
141518,note_on,,,,,2,0,1,,,,0,76,72
141544,note_off,,,,,26,0,1,,,,0,52,64
141544,note_off,,,,,0,0,1,,,,0,64,64
141548,note_off,,,,,4,0,1,,,,0,88,64
141550,note_off,,,,,2,0,1,,,,0,76,64
141560,set_tempo,,,,,148,1,0,253165,,,,,
141640,note_on,,,,,90,0,1,,,,0,85,84
141640,note_on,,,,,0,0,1,,,,0,61,82
141642,note_on,,,,,2,0,1,,,,0,73,85
141644,note_on,,,,,2,0,1,,,,0,49,79
141684,note_off,,,,,40,0,1,,,,0,61,64
141688,note_off,,,,,4,0,1,,,,0,49,64
141690,note_off,,,,,2,0,1,,,,0,73,64
141690,note_off,,,,,0,0,1,,,,0,85,64
141708,set_tempo,,,,,148,1,0,252101,,,,,
141764,note_on,,,,,74,0,1,,,,0,83,78
141766,note_on,,,,,2,0,1,,,,0,71,81
141768,note_on,,,,,0,0,1,,,,0,47,88
141768,note_on,,,,,2,0,1,,,,0,59,82
141800,note_off,,,,,0,0,1,,,,0,59,64
141800,note_off,,,,,0,0,1,,,,0,71,64
141800,note_off,,,,,32,0,1,,,,0,47,64
141804,note_off,,,,,4,0,1,,,,0,83,64
141852,set_tempo,,,,,144,1,0,251046,,,,,
141892,note_on,,,,,88,0,1,,,,0,56,85
141896,note_on,,,,,4,0,1,,,,0,80,84
141896,note_on,,,,,0,0,1,,,,0,68,83
141898,note_on,,,,,2,0,1,,,,0,44,80
141942,note_off,,,,,44,0,1,,,,0,56,64
141950,note_off,,,,,8,0,1,,,,0,44,64
141956,note_off,,,,,6,0,1,,,,0,68,64
141962,note_off,,,,,6,0,1,,,,0,80,64
142000,set_tempo,,,,,148,1,0,250000,,,,,
142036,note_on,,,,,74,0,1,,,,0,78,83
142036,note_on,,,,,0,0,1,,,,0,54,85
142038,note_on,,,,,0,0,1,,,,0,42,74
142038,note_on,,,,,2,0,1,,,,0,66,87
142100,note_off,,,,,62,0,1,,,,0,54,64
142108,note_off,,,,,8,0,1,,,,0,78,64
142110,note_off,,,,,2,0,1,,,,0,66,64
142122,note_off,,,,,12,0,1,,,,0,42,64
142148,set_tempo,,,,,148,1,0,247934,,,,,
142184,note_on,,,,,62,0,1,,,,0,52,78
142186,note_on,,,,,2,0,1,,,,0,40,81
142188,note_on,,,,,0,0,1,,,,0,64,83
142188,note_on,,,,,2,0,1,,,,0,76,79
142204,control_change,,,,,16,0,1,,64,0,0,,
142214,control_change,,,,,10,0,1,,64,127,0,,
142222,note_off,,,,,8,0,1,,,,0,64,64
142224,note_off,,,,,0,0,1,,,,0,52,64
142224,note_off,,,,,2,0,1,,,,0,76,64
142236,note_off,,,,,12,0,1,,,,0,40,64
142296,set_tempo,,,,,148,1,0,246914,,,,,
142300,set_tempo,,,,,4,1,0,244898,,,,,
142304,set_tempo,,,,,4,1,0,242915,,,,,
142308,set_tempo,,,,,4,1,0,240964,,,,,
142312,set_tempo,,,,,4,1,0,237154,,,,,
142316,set_tempo,,,,,4,1,0,234375,,,,,
142332,note_on,,,,,96,0,1,,,,0,49,80
142338,note_on,,,,,6,0,1,,,,0,37,73
142340,note_on,,,,,2,0,1,,,,0,73,87
142340,note_on,,,,,0,0,1,,,,0,61,87
142348,control_change,,,,,8,0,1,,64,0,0,,
142358,control_change,,,,,10,0,1,,64,127,0,,
142400,note_off,,,,,42,0,1,,,,0,49,64
142402,note_off,,,,,2,0,1,,,,0,73,64
142408,note_off,,,,,6,0,1,,,,0,61,64
142418,note_off,,,,,10,0,1,,,,0,37,64
142486,control_change,,,,,68,0,1,,64,0,0,,
142494,note_on,,,,,8,0,1,,,,0,35,81
142496,note_on,,,,,2,0,1,,,,0,47,83
142498,note_on,,,,,2,0,1,,,,0,71,82
142500,note_on,,,,,2,0,1,,,,0,59,80
142504,control_change,,,,,4,0,1,,64,127,0,,
142526,note_off,,,,,22,0,1,,,,0,35,64
142528,note_off,,,,,2,0,1,,,,0,47,64
142628,note_off,,,,,100,0,1,,,,0,59,64
142668,note_on,,,,,40,0,1,,,,0,56,97
142672,note_on,,,,,4,0,1,,,,0,44,91
142674,note_on,,,,,2,0,1,,,,0,68,88
142682,control_change,,,,,8,0,1,,64,0,0,,
142714,control_change,,,,,32,0,1,,64,127,0,,
142720,note_off,,,,,6,0,1,,,,0,71,64
142760,set_tempo,,,,,444,1,0,235294,,,,,
142766,note_off,,,,,46,0,1,,,,0,56,64
142776,note_off,,,,,10,0,1,,,,0,44,64
142828,note_on,,,,,52,0,1,,,,0,66,75
142830,note_on,,,,,2,0,1,,,,0,54,87
142832,note_on,,,,,2,0,1,,,,0,42,86
142834,control_change,,,,,2,0,1,,64,0,0,,
142856,note_off,,,,,22,0,1,,,,0,68,64
142860,control_change,,,,,4,0,1,,64,127,0,,
142906,note_off,,,,,46,0,1,,,,0,54,64
142912,note_off,,,,,6,0,1,,,,0,42,64
142972,note_on,,,,,60,0,1,,,,0,64,87
142974,note_on,,,,,0,0,1,,,,0,40,85
142974,note_on,,,,,2,0,1,,,,0,52,86
142986,control_change,,,,,12,0,1,,64,0,0,,
142992,note_off,,,,,6,0,1,,,,0,66,64
143008,control_change,,,,,16,0,1,,64,127,0,,
143012,note_off,,,,,4,0,1,,,,0,52,64
143024,note_off,,,,,12,0,1,,,,0,40,64
143146,note_on,,,,,0,0,1,,,,0,37,79
143146,note_on,,,,,122,0,1,,,,0,61,87
143148,note_on,,,,,2,0,1,,,,0,49,85
143152,control_change,,,,,4,0,1,,64,0,0,,
143168,note_off,,,,,16,0,1,,,,0,64,64
143172,control_change,,,,,4,0,1,,64,127,0,,
143196,set_tempo,,,,,436,1,0,236220,,,,,
143198,note_off,,,,,26,0,1,,,,0,49,64
143204,note_off,,,,,6,0,1,,,,0,37,64
143210,note_off,,,,,6,0,1,,,,0,61,64
143220,set_tempo,,,,,24,1,0,240000,,,,,
143260,set_tempo,,,,,40,1,0,240964,,,,,
143296,set_tempo,,,,,36,1,0,241935,,,,,
143336,set_tempo,,,,,40,1,0,242915,,,,,
143340,note_on,,,,,130,0,1,,,,0,59,88
143340,control_change,,,,,0,0,1,,64,0,0,,
143344,note_on,,,,,0,0,1,,,,0,35,83
143344,note_on,,,,,4,0,1,,,,0,47,86
143366,control_change,,,,,22,0,1,,64,127,0,,
143374,note_off,,,,,8,0,1,,,,0,47,64
143374,note_off,,,,,0,0,1,,,,0,59,64
143376,set_tempo,,,,,40,1,0,243902,,,,,
143378,note_off,,,,,4,0,1,,,,0,35,64
143412,set_tempo,,,,,36,1,0,244898,,,,,
143452,set_tempo,,,,,40,1,0,246914,,,,,
143492,set_tempo,,,,,40,1,0,247934,,,,,
143528,set_tempo,,,,,36,1,0,250000,,,,,
143568,set_tempo,,,,,40,1,0,251046,,,,,
143608,set_tempo,,,,,40,1,0,252101,,,,,
143644,set_tempo,,,,,36,1,0,253165,,,,,
143670,note_on,,,,,292,0,1,,,,0,82,91
143672,note_on,,,,,2,0,1,,,,0,94,89
143672,note_on,,,,,0,0,1,,,,0,85,88
143674,note_on,,,,,2,0,1,,,,0,90,85
143676,note_on,,,,,0,0,1,,,,0,30,99
143676,note_on,,,,,2,0,1,,,,0,42,83
143684,control_change,,,,,8,0,1,,64,0,0,,
143684,set_tempo,,,,,40,1,0,254237,,,,,
143724,set_tempo,,,,,40,1,0,256410,,,,,
143754,control_change,,,,,70,0,1,,64,127,0,,
143760,set_tempo,,,,,36,1,0,257511,,,,,
143786,note_off,,,,,32,0,1,,,,0,30,64
143800,note_off,,,,,14,0,1,,,,0,42,64
143838,note_off,,,,,38,0,1,,,,0,85,64
143840,note_off,,,,,2,0,1,,,,0,82,64
143846,note_off,,,,,6,0,1,,,,0,94,64
143848,note_off,,,,,2,0,1,,,,0,90,64
143864,note_on,,,,,16,0,1,,,,0,70,85
143868,note_on,,,,,4,0,1,,,,0,58,89
143904,note_off,,,,,36,0,1,,,,0,70,64
143908,note_off,,,,,4,0,1,,,,0,58,64
144008,note_on,,,,,100,0,1,,,,0,90,82
144008,note_on,,,,,0,0,1,,,,0,78,82
144014,note_on,,,,,6,0,1,,,,0,66,80
144016,note_on,,,,,2,0,1,,,,0,54,82
144054,note_off,,,,,38,0,1,,,,0,54,64
144056,note_off,,,,,2,0,1,,,,0,66,64
144064,note_off,,,,,8,0,1,,,,0,90,64
144074,note_off,,,,,10,0,1,,,,0,78,64
144150,note_on,,,,,76,0,1,,,,0,87,82
144152,note_on,,,,,0,0,1,,,,0,63,82
144152,note_on,,,,,2,0,1,,,,0,75,82
144156,note_on,,,,,4,0,1,,,,0,51,77
144188,note_off,,,,,32,0,1,,,,0,63,64
144194,note_off,,,,,6,0,1,,,,0,51,64
144204,note_off,,,,,10,0,1,,,,0,75,64
144210,note_off,,,,,6,0,1,,,,0,87,64
144282,note_on,,,,,72,0,1,,,,0,61,80
144284,note_on,,,,,2,0,1,,,,0,85,81
144284,note_on,,,,,0,0,1,,,,0,73,83
144286,note_on,,,,,2,0,1,,,,0,49,80
144318,note_off,,,,,32,0,1,,,,0,61,64
144324,note_off,,,,,6,0,1,,,,0,49,64
144334,note_off,,,,,10,0,1,,,,0,73,64
144340,note_off,,,,,6,0,1,,,,0,85,64
144414,note_on,,,,,74,0,1,,,,0,58,82
144418,note_on,,,,,4,0,1,,,,0,46,84
144420,note_on,,,,,0,0,1,,,,0,70,82
144420,note_on,,,,,2,0,1,,,,0,82,79
144440,note_off,,,,,20,0,1,,,,0,58,64
144448,note_off,,,,,8,0,1,,,,0,70,64
144450,note_off,,,,,2,0,1,,,,0,46,64
144458,note_off,,,,,8,0,1,,,,0,82,64
144572,note_on,,,,,114,0,1,,,,0,90,79
144572,note_on,,,,,0,0,1,,,,0,85,87
144572,note_on,,,,,0,0,1,,,,0,80,93
144574,note_on,,,,,2,0,1,,,,0,92,80
144580,note_on,,,,,6,0,1,,,,0,49,93
144582,note_on,,,,,2,0,1,,,,0,37,86
144584,note_on,,,,,2,0,1,,,,0,44,72
144616,control_change,,,,,32,0,1,,64,0,0,,
144708,control_change,,,,,92,0,1,,64,127,0,,
144734,note_off,,,,,26,0,1,,,,0,85,64
144746,note_off,,,,,12,0,1,,,,0,80,64
144750,note_off,,,,,0,0,1,,,,0,90,64
144750,note_off,,,,,4,0,1,,,,0,37,64
144756,note_off,,,,,6,0,1,,,,0,92,64
144760,note_off,,,,,0,0,1,,,,0,49,64
144760,note_off,,,,,4,0,1,,,,0,44,64
144768,note_on,,,,,8,0,1,,,,0,68,89
144768,note_on,,,,,0,0,1,,,,0,56,90
144806,note_off,,,,,38,0,1,,,,0,68,64
144808,note_off,,,,,2,0,1,,,,0,56,64
144920,note_on,,,,,0,0,1,,,,0,78,81
144920,note_on,,,,,112,0,1,,,,0,90,87
144922,note_on,,,,,2,0,1,,,,0,66,86
144928,note_on,,,,,6,0,1,,,,0,54,81
144960,set_tempo,,,,,1200,1,0,256410,,,,,
144974,note_off,,,,,46,0,1,,,,0,66,64
144976,note_off,,,,,2,0,1,,,,0,78,64
144980,note_off,,,,,4,0,1,,,,0,90,64
144982,note_off,,,,,2,0,1,,,,0,54,64
145052,note_on,,,,,70,0,1,,,,0,87,83
145054,note_on,,,,,2,0,1,,,,0,75,82
145056,note_on,,,,,2,0,1,,,,0,63,79
145060,note_on,,,,,4,0,1,,,,0,51,86
145072,set_tempo,,,,,112,1,0,254237,,,,,
145090,note_off,,,,,30,0,1,,,,0,63,64
145092,note_off,,,,,2,0,1,,,,0,51,64
145096,note_off,,,,,0,0,1,,,,0,87,64
145096,note_off,,,,,4,0,1,,,,0,75,64
145164,note_on,,,,,68,0,1,,,,0,49,82
145166,note_on,,,,,2,0,1,,,,0,61,80
145172,note_on,,,,,6,0,1,,,,0,73,84
145174,note_on,,,,,2,0,1,,,,0,85,84
145184,set_tempo,,,,,112,1,0,253165,,,,,
145200,note_off,,,,,26,0,1,,,,0,61,64
145204,note_off,,,,,4,0,1,,,,0,49,64
145206,note_off,,,,,2,0,1,,,,0,73,64
145222,note_off,,,,,16,0,1,,,,0,85,64
145288,note_on,,,,,66,0,1,,,,0,58,81
145292,set_tempo,,,,,108,1,0,252101,,,,,
145294,note_on,,,,,0,0,1,,,,0,46,83
145294,note_on,,,,,6,0,1,,,,0,82,83
145298,note_on,,,,,4,0,1,,,,0,70,87
145328,note_off,,,,,30,0,1,,,,0,58,64
145334,note_off,,,,,6,0,1,,,,0,46,64
145336,set_tempo,,,,,44,1,0,251046,,,,,
145336,note_off,,,,,2,0,1,,,,0,70,64
145348,note_off,,,,,12,0,1,,,,0,82,64
145348,set_tempo,,,,,12,1,0,250000,,,,,
145360,set_tempo,,,,,12,1,0,247934,,,,,
145372,set_tempo,,,,,12,1,0,246914,,,,,
145384,set_tempo,,,,,12,1,0,244898,,,,,
145396,set_tempo,,,,,12,1,0,243902,,,,,
145408,set_tempo,,,,,12,1,0,242915,,,,,
145420,set_tempo,,,,,12,1,0,241935,,,,,
145428,note_on,,,,,0,0,1,,,,0,44,84
145428,note_on,,,,,80,0,1,,,,0,56,83
145430,note_on,,,,,2,0,1,,,,0,80,80
145432,note_on,,,,,2,0,1,,,,0,68,88
145432,set_tempo,,,,,12,1,0,240964,,,,,
145444,set_tempo,,,,,12,1,0,240000,,,,,
145448,control_change,,,,,16,0,1,,64,0,0,,
145452,set_tempo,,,,,8,1,0,237154,,,,,
145458,control_change,,,,,10,0,1,,64,127,0,,
145482,note_off,,,,,24,0,1,,,,0,44,64
145484,note_off,,,,,2,0,1,,,,0,56,64
145486,note_off,,,,,2,0,1,,,,0,68,64
145494,note_off,,,,,8,0,1,,,,0,80,64
145574,note_on,,,,,0,0,1,,,,0,42,75
145574,note_on,,,,,80,0,1,,,,0,54,82
145576,note_on,,,,,0,0,1,,,,0,66,87
145576,note_on,,,,,2,0,1,,,,0,78,72
145596,control_change,,,,,20,0,1,,64,0,0,,
145598,control_change,,,,,2,0,1,,64,127,0,,
145628,note_off,,,,,30,0,1,,,,0,54,64
145640,note_off,,,,,0,0,1,,,,0,42,64
145640,note_off,,,,,12,0,1,,,,0,78,64
145642,note_off,,,,,2,0,1,,,,0,66,64
145728,note_on,,,,,86,0,1,,,,0,51,85
145730,note_on,,,,,2,0,1,,,,0,75,85
145730,note_on,,,,,0,0,1,,,,0,39,80
145732,note_on,,,,,2,0,1,,,,0,63,90
145744,control_change,,,,,12,0,1,,64,0,0,,
145760,control_change,,,,,16,0,1,,64,127,0,,
145782,note_off,,,,,22,0,1,,,,0,51,64
145796,note_off,,,,,14,0,1,,,,0,75,64
145798,note_off,,,,,2,0,1,,,,0,39,64
145814,note_off,,,,,16,0,1,,,,0,63,64
145878,note_on,,,,,0,0,1,,,,0,37,87
145878,note_on,,,,,64,0,1,,,,0,49,79
145884,control_change,,,,,0,0,1,,64,0,0,,
145884,note_on,,,,,6,0,1,,,,0,73,82
145884,note_on,,,,,0,0,1,,,,0,61,85
145898,control_change,,,,,14,0,1,,64,127,0,,
145940,note_off,,,,,42,0,1,,,,0,73,64
145942,note_off,,,,,2,0,1,,,,0,61,64
145950,note_off,,,,,8,0,1,,,,0,49,64
145980,note_off,,,,,30,0,1,,,,0,37,64
146032,note_on,,,,,52,0,1,,,,0,70,81
146032,note_on,,,,,0,0,1,,,,0,58,86
146034,control_change,,,,,2,0,1,,64,0,0,,
146036,note_on,,,,,2,0,1,,,,0,46,90
146052,set_tempo,,,,,600,1,0,240000,,,,,
146056,control_change,,,,,20,0,1,,64,127,0,,
146068,set_tempo,,,,,16,1,0,242915,,,,,
146076,note_off,,,,,20,0,1,,,,0,58,64
146084,note_off,,,,,8,0,1,,,,0,70,64
146114,note_off,,,,,30,0,1,,,,0,46,64
146176,set_tempo,,,,,108,1,0,241935,,,,,
146188,note_on,,,,,74,0,1,,,,0,68,79
146192,note_on,,,,,4,0,1,,,,0,56,89
146196,note_on,,,,,4,0,1,,,,0,44,87
146208,control_change,,,,,12,0,1,,64,0,0,,
146214,note_off,,,,,6,0,1,,,,0,56,64
146226,control_change,,,,,12,0,1,,64,127,0,,
146230,note_off,,,,,4,0,1,,,,0,68,64
146238,note_off,,,,,8,0,1,,,,0,44,64
146288,set_tempo,,,,,112,1,0,240964,,,,,
146396,set_tempo,,,,,108,1,0,236220,,,,,
146400,set_tempo,,,,,4,1,0,237154,,,,,
146404,set_tempo,,,,,4,1,0,240964,,,,,
146408,set_tempo,,,,,4,1,0,241935,,,,,
146410,note_on,,,,,0,0,1,,,,0,80,86
146410,note_on,,,,,172,0,1,,,,0,85,87
146412,set_tempo,,,,,4,1,0,243902,,,,,
146412,note_on,,,,,0,0,1,,,,0,37,82
146412,note_on,,,,,2,0,1,,,,0,89,81
146414,note_on,,,,,2,0,1,,,,0,49,96
146416,set_tempo,,,,,4,1,0,246914,,,,,
146416,note_on,,,,,2,0,1,,,,0,44,84
146418,note_on,,,,,2,0,1,,,,0,41,80
146420,set_tempo,,,,,4,1,0,247934,,,,,
146420,note_on,,,,,2,0,1,,,,0,92,86
146424,set_tempo,,,,,4,1,0,251046,,,,,
146428,set_tempo,,,,,4,1,0,252101,,,,,
146432,set_tempo,,,,,4,1,0,254237,,,,,
146436,set_tempo,,,,,4,1,0,257511,,,,,
146436,control_change,,,,,16,0,1,,64,0,0,,
146444,set_tempo,,,,,8,1,0,256410,,,,,
146496,control_change,,,,,60,0,1,,64,127,0,,
146528,set_tempo,,,,,84,1,0,254237,,,,,
146528,note_off,,,,,32,0,1,,,,0,37,64
146532,note_off,,,,,4,0,1,,,,0,41,64
146540,note_off,,,,,8,0,1,,,,0,44,64
146544,note_off,,,,,4,0,1,,,,0,49,64
146566,note_off,,,,,22,0,1,,,,0,92,64
146578,note_off,,,,,12,0,1,,,,0,89,64
146584,note_off,,,,,6,0,1,,,,0,85,64
146588,note_off,,,,,4,0,1,,,,0,80,64
146596,note_on,,,,,8,0,1,,,,0,68,90
146606,note_on,,,,,10,0,1,,,,0,56,81
146608,set_tempo,,,,,80,1,0,253165,,,,,
146620,note_off,,,,,14,0,1,,,,0,56,64
146648,note_off,,,,,28,0,1,,,,0,68,64
146688,set_tempo,,,,,80,1,0,252101,,,,,
146744,note_on,,,,,0,0,1,,,,0,53,75
146744,note_on,,,,,96,0,1,,,,0,65,75
146746,note_on,,,,,0,0,1,,,,0,77,75
146746,note_on,,,,,2,0,1,,,,0,89,75
146768,control_change,,,,,22,0,1,,64,0,0,,
146768,set_tempo,,,,,80,1,0,251046,,,,,
146782,control_change,,,,,14,0,1,,64,127,0,,
146790,note_off,,,,,8,0,1,,,,0,65,64
146798,note_off,,,,,8,0,1,,,,0,53,64
146808,note_off,,,,,10,0,1,,,,0,77,64
146810,note_off,,,,,2,0,1,,,,0,89,64
146848,set_tempo,,,,,80,1,0,250000,,,,,
146888,note_on,,,,,78,0,1,,,,0,87,83
146888,note_on,,,,,0,0,1,,,,0,63,80
146892,note_on,,,,,4,0,1,,,,0,75,84
146894,note_on,,,,,2,0,1,,,,0,51,82
146932,set_tempo,,,,,84,1,0,247934,,,,,
146946,note_off,,,,,52,0,1,,,,0,63,64
146952,note_off,,,,,6,0,1,,,,0,87,64
146956,note_off,,,,,4,0,1,,,,0,51,64
146960,note_off,,,,,4,0,1,,,,0,75,64
147012,set_tempo,,,,,80,1,0,246914,,,,,
147026,note_on,,,,,66,0,1,,,,0,85,85
147028,note_on,,,,,0,0,1,,,,0,61,78
147028,note_on,,,,,2,0,1,,,,0,73,86
147032,note_on,,,,,4,0,1,,,,0,49,84
147088,note_off,,,,,0,0,1,,,,0,61,64
147088,note_off,,,,,56,0,1,,,,0,49,64
147092,set_tempo,,,,,80,1,0,244898,,,,,
147094,note_off,,,,,6,0,1,,,,0,73,64
147094,note_off,,,,,0,0,1,,,,0,85,64
147170,note_on,,,,,76,0,1,,,,0,82,83
147170,note_on,,,,,0,0,1,,,,0,58,82
147172,set_tempo,,,,,80,1,0,243902,,,,,
147172,note_on,,,,,2,0,1,,,,0,70,87
147176,note_on,,,,,4,0,1,,,,0,46,75
147182,control_change,,,,,6,0,1,,64,0,0,,
147194,control_change,,,,,12,0,1,,64,127,0,,
147232,note_off,,,,,38,0,1,,,,0,58,64
147240,note_off,,,,,8,0,1,,,,0,46,64
147242,note_off,,,,,2,0,1,,,,0,82,64
147248,note_off,,,,,6,0,1,,,,0,70,64
147252,set_tempo,,,,,80,1,0,242915,,,,,
147318,note_on,,,,,70,0,1,,,,0,56,83
147320,note_on,,,,,0,0,1,,,,0,44,84
147320,note_on,,,,,2,0,1,,,,0,68,88
147322,note_on,,,,,2,0,1,,,,0,80,79
147332,control_change,,,,,10,0,1,,64,0,0,,
147336,set_tempo,,,,,84,1,0,241935,,,,,
147346,control_change,,,,,14,0,1,,64,127,0,,
147380,note_off,,,,,34,0,1,,,,0,56,64
147390,note_off,,,,,10,0,1,,,,0,44,64
147394,note_off,,,,,4,0,1,,,,0,80,64
147396,note_off,,,,,2,0,1,,,,0,68,64
147416,set_tempo,,,,,80,1,0,240964,,,,,
147474,note_on,,,,,78,0,1,,,,0,53,81
147474,note_on,,,,,0,0,1,,,,0,41,83
147480,note_on,,,,,0,0,1,,,,0,65,87
147480,note_on,,,,,6,0,1,,,,0,77,78
147486,control_change,,,,,6,0,1,,64,0,0,,
147496,set_tempo,,,,,80,1,0,240000,,,,,
147500,control_change,,,,,14,0,1,,64,127,0,,
147520,note_off,,,,,20,0,1,,,,0,53,64
147534,note_off,,,,,14,0,1,,,,0,41,64
147540,note_off,,,,,6,0,1,,,,0,77,64
147548,note_off,,,,,8,0,1,,,,0,65,64
147576,set_tempo,,,,,80,1,0,237154,,,,,
147626,note_on,,,,,78,0,1,,,,0,51,89
147628,note_on,,,,,2,0,1,,,,0,39,76
147632,note_on,,,,,4,0,1,,,,0,75,84
147634,note_on,,,,,2,0,1,,,,0,63,89
147638,control_change,,,,,4,0,1,,64,0,0,,
147656,set_tempo,,,,,80,1,0,236220,,,,,
147664,control_change,,,,,26,0,1,,64,127,0,,
147700,note_off,,,,,36,0,1,,,,0,51,64
147708,note_off,,,,,8,0,1,,,,0,39,64
147718,note_off,,,,,10,0,1,,,,0,75,64
147728,note_off,,,,,10,0,1,,,,0,63,64
147740,set_tempo,,,,,84,1,0,235294,,,,,
147802,note_on,,,,,0,0,1,,,,0,37,83
147802,note_on,,,,,74,0,1,,,,0,73,86
147804,note_on,,,,,2,0,1,,,,0,61,87
147808,note_on,,,,,4,0,1,,,,0,49,79
147812,control_change,,,,,4,0,1,,64,0,0,,
147820,set_tempo,,,,,80,1,0,234375,,,,,
147822,control_change,,,,,10,0,1,,64,127,0,,
147872,note_off,,,,,0,0,1,,,,0,73,64
147872,note_off,,,,,50,0,1,,,,0,61,64
147884,note_off,,,,,12,0,1,,,,0,37,64
147890,note_off,,,,,6,0,1,,,,0,49,64
147900,set_tempo,,,,,80,1,0,233463,,,,,
147976,note_on,,,,,86,0,1,,,,0,70,83
147980,set_tempo,,,,,80,1,0,232558,,,,,
147980,note_on,,,,,4,0,1,,,,0,58,89
147984,note_on,,,,,4,0,1,,,,0,46,90
147992,control_change,,,,,8,0,1,,64,0,0,,
148020,control_change,,,,,28,0,1,,64,127,0,,
148038,note_off,,,,,18,0,1,,,,0,58,64
148040,note_off,,,,,2,0,1,,,,0,70,64
148050,note_off,,,,,10,0,1,,,,0,46,64
148060,set_tempo,,,,,80,1,0,231660,,,,,
148144,set_tempo,,,,,84,1,0,229885,,,,,
148176,note_on,,,,,0,0,1,,,,0,56,89
148176,note_on,,,,,0,0,1,,,,0,44,88
148176,note_on,,,,,126,0,1,,,,0,68,84
148224,set_tempo,,,,,80,1,0,229008,,,,,
148268,control_change,,,,,92,0,1,,64,0,0,,
148288,control_change,,,,,20,0,1,,64,127,0,,
148304,set_tempo,,,,,80,1,0,227273,,,,,
148310,note_off,,,,,22,0,1,,,,0,56,64
148318,note_off,,,,,8,0,1,,,,0,68,64
148334,note_off,,,,,16,0,1,,,,0,44,64
148384,set_tempo,,,,,80,1,0,226415,,,,,
148464,set_tempo,,,,,80,1,0,225564,,,,,
148530,note_on,,,,,196,0,1,,,,0,82,86
148530,note_on,,,,,0,0,1,,,,0,78,88
148532,note_on,,,,,0,0,1,,,,0,39,79
148532,note_on,,,,,2,0,1,,,,0,90,78
148534,note_on,,,,,2,0,1,,,,0,87,85
148534,note_on,,,,,0,0,1,,,,0,51,95
148544,control_change,,,,,10,0,1,,64,0,0,,
148544,set_tempo,,,,,80,1,0,224719,,,,,
148548,set_tempo,,,,,4,1,0,221402,,,,,
148552,set_tempo,,,,,4,1,0,232558,,,,,
148556,set_tempo,,,,,4,1,0,243902,,,,,
148560,set_tempo,,,,,4,1,0,257511,,,,,
148566,control_change,,,,,22,0,1,,64,127,0,,
148588,note_off,,,,,22,0,1,,,,0,51,64
148602,note_off,,,,,14,0,1,,,,0,39,64
148674,note_on,,,,,72,0,1,,,,0,54,85
148676,note_on,,,,,2,0,1,,,,0,42,74
148702,note_off,,,,,0,0,1,,,,0,54,64
148702,note_off,,,,,26,0,1,,,,0,42,64
148800,set_tempo,,,,,240,1,0,234375,,,,,
148806,note_on,,,,,104,0,1,,,,0,58,93
148808,note_on,,,,,2,0,1,,,,0,46,81
148832,note_off,,,,,0,0,1,,,,0,58,64
148832,note_off,,,,,24,0,1,,,,0,46,64
148942,note_on,,,,,110,0,1,,,,0,63,92
148948,note_on,,,,,6,0,1,,,,0,51,79
148972,note_off,,,,,24,0,1,,,,0,51,64
148972,note_off,,,,,0,0,1,,,,0,63,64
149004,note_off,,,,,32,0,1,,,,0,82,64
149006,note_off,,,,,2,0,1,,,,0,87,64
149008,note_off,,,,,2,0,1,,,,0,78,64
149008,note_off,,,,,0,0,1,,,,0,90,64
149080,note_on,,,,,72,0,1,,,,0,66,89
149084,note_on,,,,,4,0,1,,,,0,54,84
149112,note_off,,,,,28,0,1,,,,0,66,64
149116,note_off,,,,,4,0,1,,,,0,54,64
149356,control_change,,,,,240,0,1,,64,0,0,,
149386,note_on,,,,,0,0,1,,,,0,41,92
149386,note_on,,,,,30,0,1,,,,0,53,88
149388,note_on,,,,,0,0,1,,,,0,77,86
149388,note_on,,,,,2,0,1,,,,0,84,82
149390,note_on,,,,,2,0,1,,,,0,89,81
149392,note_on,,,,,2,0,1,,,,0,81,83
149418,note_off,,,,,26,0,1,,,,0,53,64
149420,note_off,,,,,2,0,1,,,,0,41,64
149422,control_change,,,,,2,0,1,,64,127,0,,
149536,note_on,,,,,0,0,1,,,,0,45,78
149536,note_on,,,,,114,0,1,,,,0,57,78
149560,note_off,,,,,24,0,1,,,,0,45,64
149562,note_off,,,,,2,0,1,,,,0,57,64
149684,note_on,,,,,122,0,1,,,,0,60,80
149690,note_on,,,,,6,0,1,,,,0,48,80
149716,note_off,,,,,26,0,1,,,,0,48,64
149718,note_off,,,,,2,0,1,,,,0,60,64
149852,note_on,,,,,134,0,1,,,,0,65,87
149854,note_on,,,,,2,0,1,,,,0,53,87
149884,note_off,,,,,30,0,1,,,,0,53,64
149884,note_off,,,,,0,0,1,,,,0,65,64
149934,note_off,,,,,50,0,1,,,,0,89,64
149942,note_off,,,,,8,0,1,,,,0,77,64
150024,note_on,,,,,82,0,1,,,,0,69,93
150026,note_on,,,,,2,0,1,,,,0,57,93
150056,note_off,,,,,30,0,1,,,,0,69,64
150064,note_off,,,,,8,0,1,,,,0,57,64
150084,note_off,,,,,20,0,1,,,,0,81,64
150112,note_off,,,,,28,0,1,,,,0,84,64
150210,note_on,,,,,98,0,1,,,,0,87,98
150210,note_on,,,,,0,0,1,,,,0,75,98
150236,note_off,,,,,26,0,1,,,,0,75,64
150238,note_off,,,,,2,0,1,,,,0,87,64
150372,control_change,,,,,134,0,1,,64,0,0,,
150412,note_on,,,,,0,0,1,,,,0,34,89
150412,note_on,,,,,40,0,1,,,,0,46,91
150420,note_on,,,,,8,0,1,,,,0,82,79
150424,note_on,,,,,0,0,1,,,,0,74,83
150424,note_on,,,,,4,0,1,,,,0,86,82
150428,note_on,,,,,4,0,1,,,,0,77,76
150432,control_change,,,,,4,0,1,,64,127,0,,
150448,note_off,,,,,16,0,1,,,,0,34,64
150456,note_off,,,,,8,0,1,,,,0,46,64
150488,set_tempo,,,,,1688,1,0,236220,,,,,
150492,set_tempo,,,,,4,1,0,240964,,,,,
150496,set_tempo,,,,,4,1,0,243902,,,,,
150500,set_tempo,,,,,4,1,0,246914,,,,,
150504,set_tempo,,,,,4,1,0,252101,,,,,
150508,set_tempo,,,,,4,1,0,255319,,,,,
150512,set_tempo,,,,,4,1,0,257511,,,,,
150516,set_tempo,,,,,4,1,0,264317,,,,,
150520,set_tempo,,,,,4,1,0,266667,,,,,
150524,set_tempo,,,,,4,1,0,270270,,,,,
150558,note_off,,,,,102,0,1,,,,0,74,64
150576,note_off,,,,,18,0,1,,,,0,77,64
150592,note_off,,,,,16,0,1,,,,0,86,64
150614,note_off,,,,,22,0,1,,,,0,82,64
150640,note_on,,,,,26,0,1,,,,0,62,64
150644,note_on,,,,,4,0,1,,,,0,53,77
150648,note_on,,,,,4,0,1,,,,0,65,76
150652,note_on,,,,,4,0,1,,,,0,58,69
150678,note_off,,,,,26,0,1,,,,0,65,64
150684,note_off,,,,,0,0,1,,,,0,62,64
150684,note_off,,,,,6,0,1,,,,0,53,64
150686,note_off,,,,,2,0,1,,,,0,58,64
150720,set_tempo,,,,,196,1,0,297030,,,,,
150760,note_on,,,,,0,0,1,,,,0,62,61
150760,note_on,,,,,74,0,1,,,,0,65,69
150762,note_on,,,,,2,0,1,,,,0,58,66
150766,note_on,,,,,4,0,1,,,,0,53,72
150802,note_off,,,,,36,0,1,,,,0,65,64
150804,note_off,,,,,2,0,1,,,,0,53,64
150806,note_off,,,,,0,0,1,,,,0,62,64
150806,note_off,,,,,2,0,1,,,,0,58,64
150870,note_on,,,,,64,0,1,,,,0,62,57
150870,note_on,,,,,0,0,1,,,,0,58,61
150874,note_on,,,,,4,0,1,,,,0,65,69
150876,note_on,,,,,2,0,1,,,,0,82,79
150876,note_on,,,,,0,0,1,,,,0,53,73
150880,note_on,,,,,4,0,1,,,,0,89,78
150880,note_on,,,,,0,0,1,,,,0,77,81
150884,note_on,,,,,4,0,1,,,,0,86,80
150912,note_off,,,,,0,0,1,,,,0,65,64
150912,note_off,,,,,28,0,1,,,,0,53,64
150916,note_off,,,,,0,0,1,,,,0,62,64
150916,note_off,,,,,4,0,1,,,,0,58,64
150920,note_off,,,,,4,0,1,,,,0,77,64
150944,note_off,,,,,0,0,1,,,,0,82,64
150944,note_off,,,,,24,0,1,,,,0,89,64
150954,note_off,,,,,10,0,1,,,,0,86,64
150972,note_on,,,,,18,0,1,,,,0,65,69
150974,note_on,,,,,0,0,1,,,,0,53,63
150974,note_on,,,,,2,0,1,,,,0,62,66
150976,note_on,,,,,2,0,1,,,,0,58,71
151010,note_off,,,,,34,0,1,,,,0,53,64
151012,note_off,,,,,2,0,1,,,,0,65,64
151016,note_off,,,,,0,0,1,,,,0,62,64
151016,note_off,,,,,4,0,1,,,,0,58,64
151064,note_on,,,,,0,0,1,,,,0,53,76
151064,note_on,,,,,48,0,1,,,,0,62,77
151066,note_on,,,,,0,0,1,,,,0,58,74
151066,note_on,,,,,2,0,1,,,,0,65,80
151098,note_off,,,,,32,0,1,,,,0,53,64
151104,note_off,,,,,6,0,1,,,,0,65,64
151110,note_off,,,,,6,0,1,,,,0,62,64
151112,note_off,,,,,2,0,1,,,,0,58,64
151152,note_on,,,,,40,0,1,,,,0,94,86
151154,note_on,,,,,2,0,1,,,,0,89,75
151154,note_on,,,,,0,0,1,,,,0,86,80
151156,note_on,,,,,2,0,1,,,,0,82,86
151156,note_on,,,,,0,0,1,,,,0,62,68
151160,note_on,,,,,0,0,1,,,,0,58,65
151160,note_on,,,,,4,0,1,,,,0,65,73
151162,note_on,,,,,2,0,1,,,,0,53,75
151190,note_off,,,,,28,0,1,,,,0,82,64
151198,note_off,,,,,8,0,1,,,,0,65,64
151200,note_off,,,,,2,0,1,,,,0,53,64
151200,note_off,,,,,0,0,1,,,,0,86,64
151202,note_off,,,,,2,0,1,,,,0,58,64
151202,note_off,,,,,0,0,1,,,,0,62,64
151214,note_off,,,,,12,0,1,,,,0,89,64
151220,note_off,,,,,6,0,1,,,,0,94,64
151254,note_on,,,,,34,0,1,,,,0,65,79
151256,note_on,,,,,0,0,1,,,,0,58,79
151256,note_on,,,,,2,0,1,,,,0,62,72
151256,note_on,,,,,0,0,1,,,,0,53,70
151288,note_off,,,,,32,0,1,,,,0,53,64
151294,note_off,,,,,6,0,1,,,,0,65,64
151298,note_off,,,,,4,0,1,,,,0,62,64
151300,note_off,,,,,2,0,1,,,,0,58,64
151360,note_on,,,,,60,0,1,,,,0,58,72
151362,note_on,,,,,2,0,1,,,,0,65,73
151364,note_on,,,,,2,0,1,,,,0,62,72
151368,note_on,,,,,4,0,1,,,,0,53,68
151396,note_off,,,,,28,0,1,,,,0,53,64
151402,note_off,,,,,0,0,1,,,,0,65,64
151402,note_off,,,,,6,0,1,,,,0,62,64
151408,note_off,,,,,6,0,1,,,,0,58,64
151470,note_on,,,,,0,0,1,,,,0,89,73
151470,note_on,,,,,62,0,1,,,,0,98,85
151472,note_on,,,,,0,0,1,,,,0,86,80
151472,note_on,,,,,2,0,1,,,,0,94,86
151480,note_on,,,,,0,0,1,,,,0,58,77
151480,note_on,,,,,8,0,1,,,,0,65,79
151482,note_on,,,,,2,0,1,,,,0,62,68
151486,note_on,,,,,4,0,1,,,,0,53,73
151510,note_off,,,,,24,0,1,,,,0,86,64
151518,note_off,,,,,8,0,1,,,,0,65,64
151520,note_off,,,,,2,0,1,,,,0,53,64
151524,note_off,,,,,4,0,1,,,,0,62,64
151526,note_off,,,,,2,0,1,,,,0,89,64
151528,note_off,,,,,2,0,1,,,,0,58,64
151540,note_off,,,,,0,0,1,,,,0,98,64
151540,note_off,,,,,12,0,1,,,,0,94,64
151596,note_on,,,,,56,0,1,,,,0,58,72
151598,note_on,,,,,2,0,1,,,,0,65,77
151600,note_on,,,,,2,0,1,,,,0,62,70
151602,note_on,,,,,2,0,1,,,,0,53,74
151632,note_off,,,,,30,0,1,,,,0,53,64
151636,note_off,,,,,4,0,1,,,,0,65,64
151644,note_off,,,,,8,0,1,,,,0,62,64
151648,note_off,,,,,4,0,1,,,,0,58,64
151680,set_tempo,,,,,960,1,0,340909,,,,,
151726,note_on,,,,,0,0,1,,,,0,58,77
151726,note_on,,,,,78,0,1,,,,0,65,78
151728,note_on,,,,,2,0,1,,,,0,62,70
151734,note_on,,,,,6,0,1,,,,0,53,75
151752,note_off,,,,,18,0,1,,,,0,65,64
151760,note_off,,,,,8,0,1,,,,0,62,64
151774,note_off,,,,,14,0,1,,,,0,53,64
151776,note_off,,,,,2,0,1,,,,0,58,64
151904,note_on,,,,,128,0,1,,,,0,29,89
151912,control_change,,,,,0,0,1,,64,0,0,,
151912,note_on,,,,,8,0,1,,,,0,41,89
151914,note_on,,,,,2,0,1,,,,0,103,92
151916,note_on,,,,,2,0,1,,,,0,91,83
151918,note_on,,,,,2,0,1,,,,0,99,89
151918,note_on,,,,,0,0,1,,,,0,94,95
151964,note_off,,,,,46,0,1,,,,0,29,64
151968,control_change,,,,,4,0,1,,64,127,0,,
152010,note_off,,,,,42,0,1,,,,0,41,64
152064,set_tempo,,,,,384,1,0,338983,,,,,
152068,set_tempo,,,,,4,1,0,337079,,,,,
152072,set_tempo,,,,,4,1,0,335196,,,,,
152076,set_tempo,,,,,4,1,0,333333,,,,,
152080,set_tempo,,,,,4,1,0,331492,,,,,
152084,set_tempo,,,,,4,1,0,329670,,,,,
152088,set_tempo,,,,,4,1,0,327869,,,,,
152092,set_tempo,,,,,4,1,0,326087,,,,,
152096,set_tempo,,,,,4,1,0,324324,,,,,
152100,set_tempo,,,,,4,1,0,320856,,,,,
152104,set_tempo,,,,,4,1,0,319149,,,,,
152108,set_tempo,,,,,4,1,0,317460,,,,,
152112,set_tempo,,,,,4,1,0,315789,,,,,
152116,set_tempo,,,,,4,1,0,314136,,,,,
152120,set_tempo,,,,,4,1,0,312500,,,,,
152124,set_tempo,,,,,4,1,0,310881,,,,,
152132,set_tempo,,,,,8,1,0,309278,,,,,
152136,set_tempo,,,,,4,1,0,307692,,,,,
152140,set_tempo,,,,,4,1,0,306122,,,,,
152144,note_on,,,,,134,0,1,,,,0,67,74
152144,note_on,,,,,0,0,1,,,,0,63,82
152144,set_tempo,,,,,4,1,0,303030,,,,,
152146,note_on,,,,,2,0,1,,,,0,58,72
152148,set_tempo,,,,,4,1,0,301508,,,,,
152152,set_tempo,,,,,4,1,0,300000,,,,,
152156,note_on,,,,,10,0,1,,,,0,53,56
152156,set_tempo,,,,,4,1,0,298507,,,,,
152160,set_tempo,,,,,4,1,0,297030,,,,,
152164,set_tempo,,,,,4,1,0,295567,,,,,
152168,set_tempo,,,,,4,1,0,294118,,,,,
152172,set_tempo,,,,,4,1,0,292683,,,,,
152172,note_off,,,,,16,0,1,,,,0,53,64
152176,set_tempo,,,,,4,1,0,291262,,,,,
152180,set_tempo,,,,,4,1,0,289855,,,,,
152184,set_tempo,,,,,4,1,0,287081,,,,,
152188,set_tempo,,,,,4,1,0,285714,,,,,
152192,set_tempo,,,,,4,1,0,284360,,,,,
152204,note_off,,,,,32,0,1,,,,0,63,64
152210,note_off,,,,,6,0,1,,,,0,58,64
152216,note_off,,,,,6,0,1,,,,0,67,64
152366,note_on,,,,,150,0,1,,,,0,67,81
152368,note_on,,,,,0,0,1,,,,0,58,85
152368,note_on,,,,,2,0,1,,,,0,63,82
152374,note_on,,,,,6,0,1,,,,0,53,78
152464,note_off,,,,,90,0,1,,,,0,53,64
152468,note_off,,,,,4,0,1,,,,0,67,64
152470,note_off,,,,,2,0,1,,,,0,63,64
152472,note_off,,,,,2,0,1,,,,0,58,64
152630,note_on,,,,,158,0,1,,,,0,67,85
152632,note_on,,,,,0,0,1,,,,0,58,83
152632,note_on,,,,,2,0,1,,,,0,63,82
152636,note_on,,,,,4,0,1,,,,0,53,76
152704,note_off,,,,,68,0,1,,,,0,103,64
152728,note_off,,,,,24,0,1,,,,0,99,64
152730,note_off,,,,,2,0,1,,,,0,91,64
152740,note_off,,,,,10,0,1,,,,0,94,64
152802,note_off,,,,,62,0,1,,,,0,67,64
152824,note_off,,,,,22,0,1,,,,0,53,64
152830,note_off,,,,,6,0,1,,,,0,63,64
152838,note_off,,,,,8,0,1,,,,0,58,64
152944,note_on,,,,,106,0,1,,,,0,63,87
152946,note_on,,,,,2,0,1,,,,0,75,87
152984,set_tempo,,,,,792,1,0,306122,,,,,
152988,set_tempo,,,,,4,1,0,309278,,,,,
152992,set_tempo,,,,,4,1,0,314136,,,,,
152996,set_tempo,,,,,4,1,0,319149,,,,,
153000,set_tempo,,,,,4,1,0,324324,,,,,
153004,set_tempo,,,,,4,1,0,329670,,,,,
153008,set_tempo,,,,,4,1,0,335196,,,,,
153012,set_tempo,,,,,4,1,0,340909,,,,,
153016,note_off,,,,,70,0,1,,,,0,63,64
153040,note_off,,,,,24,0,1,,,,0,75,64
153182,note_on,,,,,142,0,1,,,,0,79,85
153182,note_on,,,,,0,0,1,,,,0,67,80
153216,note_off,,,,,34,0,1,,,,0,67,64
153234,note_off,,,,,18,0,1,,,,0,79,64
153314,note_on,,,,,0,0,1,,,,0,69,85
153314,note_on,,,,,80,0,1,,,,0,81,81
153344,note_off,,,,,30,0,1,,,,0,69,64
153354,note_off,,,,,10,0,1,,,,0,81,64
153380,note_on,,,,,26,0,1,,,,0,41,77
153428,note_on,,,,,48,0,1,,,,0,51,72
153516,control_change,,,,,88,0,1,,64,0,0,,
153536,note_on,,,,,20,0,1,,,,0,57,77
153540,note_on,,,,,0,0,1,,,,0,74,85
153540,note_on,,,,,4,0,1,,,,0,86,89
153604,control_change,,,,,64,0,1,,64,127,0,,
153622,note_off,,,,,18,0,1,,,,0,57,64
153698,note_off,,,,,76,0,1,,,,0,86,64
153728,note_off,,,,,30,0,1,,,,0,74,64
153822,note_off,,,,,94,0,1,,,,0,51,64
153840,set_tempo,,,,,828,1,0,338983,,,,,
153840,note_off,,,,,18,0,1,,,,0,41,64
153844,set_tempo,,,,,4,1,0,331492,,,,,
153848,set_tempo,,,,,4,1,0,320856,,,,,
153852,set_tempo,,,,,4,1,0,312500,,,,,
153856,set_tempo,,,,,4,1,0,303030,,,,,
153976,note_on,,,,,0,0,1,,,,0,72,77
153976,note_on,,,,,136,0,1,,,,0,84,76
154002,note_off,,,,,26,0,1,,,,0,84,64
154004,note_off,,,,,2,0,1,,,,0,72,64
154036,set_tempo,,,,,180,1,0,307692,,,,,
154040,set_tempo,,,,,4,1,0,312500,,,,,
154044,set_tempo,,,,,4,1,0,315789,,,,,
154048,set_tempo,,,,,4,1,0,320856,,,,,
154052,set_tempo,,,,,4,1,0,326087,,,,,
154056,set_tempo,,,,,4,1,0,331492,,,,,
154060,set_tempo,,,,,4,1,0,335196,,,,,
154064,set_tempo,,,,,4,1,0,340909,,,,,
154092,control_change,,,,,88,0,1,,64,0,0,,
154100,note_on,,,,,8,0,1,,,,0,46,87
154104,note_on,,,,,4,0,1,,,,0,34,82
154112,note_on,,,,,8,0,1,,,,0,82,92
154112,note_on,,,,,0,0,1,,,,0,70,89
154134,control_change,,,,,22,0,1,,64,127,0,,
154156,note_off,,,,,22,0,1,,,,0,70,64
154156,note_off,,,,,0,0,1,,,,0,82,64
154346,note_on,,,,,190,0,1,,,,0,62,57
154348,note_on,,,,,2,0,1,,,,0,65,54
154348,note_on,,,,,0,0,1,,,,0,53,60
154350,note_on,,,,,2,0,1,,,,0,58,58
154378,note_off,,,,,0,0,1,,,,0,65,64
154378,note_off,,,,,28,0,1,,,,0,53,64
154384,note_off,,,,,6,0,1,,,,0,58,64
154388,note_off,,,,,0,0,1,,,,0,46,64
154388,note_off,,,,,4,0,1,,,,0,34,64
154390,note_off,,,,,2,0,1,,,,0,62,64
154440,note_on,,,,,50,0,1,,,,0,62,56
154444,note_on,,,,,4,0,1,,,,0,65,44
154446,note_on,,,,,2,0,1,,,,0,53,55
154448,note_on,,,,,2,0,1,,,,0,58,64
154476,note_off,,,,,28,0,1,,,,0,53,64
154484,note_off,,,,,8,0,1,,,,0,65,64
154488,note_off,,,,,4,0,1,,,,0,58,64
154494,note_off,,,,,6,0,1,,,,0,62,64
154538,note_on,,,,,44,0,1,,,,0,50,86
154538,note_on,,,,,0,0,1,,,,0,38,77
154548,note_on,,,,,0,0,1,,,,0,58,79
154548,note_on,,,,,10,0,1,,,,0,62,78
154550,note_on,,,,,0,0,1,,,,0,53,83
154550,note_on,,,,,2,0,1,,,,0,65,67
154560,control_change,,,,,10,0,1,,64,0,0,,
154584,note_off,,,,,24,0,1,,,,0,53,64
154592,note_off,,,,,8,0,1,,,,0,65,64
154596,control_change,,,,,4,0,1,,64,127,0,,
154600,note_off,,,,,4,0,1,,,,0,58,64
154604,note_off,,,,,4,0,1,,,,0,62,64
154628,note_off,,,,,24,0,1,,,,0,38,64
154640,note_on,,,,,0,0,1,,,,0,58,51
154640,note_on,,,,,0,0,1,,,,0,53,70
154640,note_on,,,,,12,0,1,,,,0,62,57
154642,note_off,,,,,2,0,1,,,,0,50,64
154646,note_on,,,,,4,0,1,,,,0,65,61
154658,note_off,,,,,12,0,1,,,,0,65,64
154672,note_off,,,,,14,0,1,,,,0,53,64
154676,note_off,,,,,4,0,1,,,,0,58,64
154684,note_off,,,,,8,0,1,,,,0,62,64
154726,note_on,,,,,42,0,1,,,,0,53,77
154728,note_on,,,,,2,0,1,,,,0,62,61
154732,note_on,,,,,0,0,1,,,,0,58,71
154732,note_on,,,,,4,0,1,,,,0,65,58
154764,note_off,,,,,32,0,1,,,,0,65,64
154766,note_off,,,,,2,0,1,,,,0,53,64
154776,note_off,,,,,10,0,1,,,,0,58,64
154780,note_off,,,,,4,0,1,,,,0,62,64
154818,note_on,,,,,0,0,1,,,,0,41,86
154818,note_on,,,,,38,0,1,,,,0,53,81
154822,note_on,,,,,4,0,1,,,,0,58,77
154824,note_on,,,,,2,0,1,,,,0,65,72
154824,note_on,,,,,0,0,1,,,,0,62,74
154848,control_change,,,,,24,0,1,,64,0,0,,
154868,note_off,,,,,0,0,1,,,,0,58,64
154868,note_off,,,,,20,0,1,,,,0,65,64
154874,note_off,,,,,6,0,1,,,,0,62,64
154890,control_change,,,,,16,0,1,,64,127,0,,
154922,note_on,,,,,32,0,1,,,,0,65,61
154924,note_on,,,,,2,0,1,,,,0,62,61
154928,note_on,,,,,4,0,1,,,,0,58,76
154940,note_off,,,,,12,0,1,,,,0,41,64
154946,note_off,,,,,6,0,1,,,,0,53,64
154962,note_off,,,,,16,0,1,,,,0,65,64
154968,note_off,,,,,6,0,1,,,,0,58,64
154974,note_off,,,,,6,0,1,,,,0,62,64
155024,note_on,,,,,50,0,1,,,,0,65,55
155026,note_on,,,,,2,0,1,,,,0,62,62
155028,note_on,,,,,2,0,1,,,,0,58,72
155066,note_off,,,,,38,0,1,,,,0,65,64
155072,note_off,,,,,6,0,1,,,,0,58,64
155084,note_off,,,,,12,0,1,,,,0,62,64
155108,control_change,,,,,24,0,1,,64,0,0,,
155134,note_on,,,,,26,0,1,,,,0,58,88
155136,note_on,,,,,0,0,1,,,,0,53,77
155136,note_on,,,,,2,0,1,,,,0,62,71
155138,note_on,,,,,2,0,1,,,,0,65,68
155138,note_on,,,,,0,0,1,,,,0,46,82
155174,control_change,,,,,36,0,1,,64,127,0,,
155176,note_off,,,,,2,0,1,,,,0,53,64
155184,note_off,,,,,8,0,1,,,,0,65,64
155186,note_off,,,,,2,0,1,,,,0,58,64
155202,note_off,,,,,16,0,1,,,,0,62,64
155214,note_off,,,,,12,0,1,,,,0,46,64
155258,note_on,,,,,44,0,1,,,,0,65,63
155258,note_on,,,,,0,0,1,,,,0,53,80
155260,note_on,,,,,2,0,1,,,,0,62,75
155292,note_off,,,,,32,0,1,,,,0,53,64
155302,note_off,,,,,10,0,1,,,,0,65,64
155310,note_off,,,,,8,0,1,,,,0,62,64
155368,note_on,,,,,58,0,1,,,,0,65,65
155368,note_on,,,,,0,0,1,,,,0,62,57
155376,note_on,,,,,8,0,1,,,,0,53,74
155390,note_off,,,,,14,0,1,,,,0,53,64
155400,note_off,,,,,10,0,1,,,,0,65,64
155402,note_off,,,,,2,0,1,,,,0,62,64
155516,set_tempo,,,,,1452,1,0,344828,,,,,
155516,control_change,,,,,114,0,1,,64,0,0,,
155524,set_tempo,,,,,8,1,0,340909,,,,,
155528,note_on,,,,,12,0,1,,,,0,42,82
155530,note_on,,,,,0,0,1,,,,0,30,92
155530,note_on,,,,,2,0,1,,,,0,76,77
155532,note_on,,,,,0,0,1,,,,0,73,79
155532,note_on,,,,,2,0,1,,,,0,85,89
155532,set_tempo,,,,,8,1,0,338983,,,,,
155540,set_tempo,,,,,8,1,0,337079,,,,,
155544,set_tempo,,,,,4,1,0,335196,,,,,
155552,set_tempo,,,,,8,1,0,333333,,,,,
155560,set_tempo,,,,,8,1,0,331492,,,,,
155564,set_tempo,,,,,4,1,0,329670,,,,,
155572,set_tempo,,,,,8,1,0,327869,,,,,
155580,control_change,,,,,48,0,1,,64,127,0,,
155580,set_tempo,,,,,8,1,0,326087,,,,,
155582,note_off,,,,,2,0,1,,,,0,30,64
155584,set_tempo,,,,,4,1,0,324324,,,,,
155592,note_off,,,,,10,0,1,,,,0,42,64
155592,set_tempo,,,,,8,1,0,320856,,,,,
155600,set_tempo,,,,,8,1,0,319149,,,,,
155608,set_tempo,,,,,8,1,0,317460,,,,,
155612,set_tempo,,,,,4,1,0,315789,,,,,
155620,set_tempo,,,,,8,1,0,314136,,,,,
155628,set_tempo,,,,,8,1,0,312500,,,,,
155632,set_tempo,,,,,4,1,0,310881,,,,,
155640,set_tempo,,,,,8,1,0,309278,,,,,
155648,set_tempo,,,,,8,1,0,307692,,,,,
155652,set_tempo,,,,,4,1,0,306122,,,,,
155708,note_on,,,,,116,0,1,,,,0,54,79
155710,note_on,,,,,2,0,1,,,,0,42,72
155736,note_off,,,,,26,0,1,,,,0,42,64
155736,note_off,,,,,0,0,1,,,,0,54,64
155836,note_on,,,,,0,0,1,,,,0,46,81
155836,note_on,,,,,100,0,1,,,,0,58,82
155872,note_off,,,,,0,0,1,,,,0,58,64
155872,note_off,,,,,36,0,1,,,,0,46,64
155960,note_on,,,,,88,0,1,,,,0,61,88
155964,note_on,,,,,4,0,1,,,,0,49,76
155984,note_off,,,,,20,0,1,,,,0,49,64
155988,note_off,,,,,4,0,1,,,,0,61,64
156092,note_on,,,,,104,0,1,,,,0,64,93
156094,note_on,,,,,2,0,1,,,,0,52,86
156122,note_off,,,,,28,0,1,,,,0,64,64
156124,note_off,,,,,2,0,1,,,,0,85,64
156126,note_off,,,,,2,0,1,,,,0,73,64
156128,set_tempo,,,,,476,1,0,307692,,,,,
156130,note_off,,,,,4,0,1,,,,0,52,64
156132,note_off,,,,,2,0,1,,,,0,76,64
156140,set_tempo,,,,,12,1,0,309278,,,,,
156152,set_tempo,,,,,12,1,0,310881,,,,,
156164,set_tempo,,,,,12,1,0,312500,,,,,
156176,set_tempo,,,,,12,1,0,314136,,,,,
156184,set_tempo,,,,,8,1,0,315789,,,,,
156196,set_tempo,,,,,12,1,0,317460,,,,,
156208,set_tempo,,,,,12,1,0,319149,,,,,
156220,set_tempo,,,,,12,1,0,320856,,,,,
156232,set_tempo,,,,,12,1,0,324324,,,,,
156240,set_tempo,,,,,8,1,0,326087,,,,,
156328,control_change,,,,,196,0,1,,64,0,0,,
156364,note_on,,,,,36,0,1,,,,0,43,85
156364,note_on,,,,,0,0,1,,,,0,31,89
156368,note_on,,,,,4,0,1,,,,0,84,83
156370,note_on,,,,,2,0,1,,,,0,72,82
156372,note_on,,,,,2,0,1,,,,0,76,85
156388,control_change,,,,,16,0,1,,64,127,0,,
156392,note_off,,,,,4,0,1,,,,0,31,64
156394,note_off,,,,,2,0,1,,,,0,43,64
156508,note_on,,,,,114,0,1,,,,0,43,85
156512,note_on,,,,,4,0,1,,,,0,55,85
156532,note_off,,,,,20,0,1,,,,0,43,64
156534,note_off,,,,,2,0,1,,,,0,55,64
156646,note_on,,,,,112,0,1,,,,0,58,91
156648,note_on,,,,,2,0,1,,,,0,46,80
156684,note_off,,,,,0,0,1,,,,0,58,64
156684,note_off,,,,,36,0,1,,,,0,46,64
156784,set_tempo,,,,,544,1,0,327869,,,,,
156790,note_off,,,,,106,0,1,,,,0,84,64
156798,note_on,,,,,8,0,1,,,,0,61,89
156802,note_on,,,,,0,0,1,,,,0,49,82
156802,note_off,,,,,4,0,1,,,,0,72,64
156828,note_off,,,,,26,0,1,,,,0,76,64
156832,note_off,,,,,4,0,1,,,,0,49,64
156832,note_off,,,,,0,0,1,,,,0,61,64
156852,set_tempo,,,,,68,1,0,329670,,,,,
156920,set_tempo,,,,,68,1,0,331492,,,,,
156948,note_on,,,,,116,0,1,,,,0,64,90
156950,note_on,,,,,2,0,1,,,,0,52,89
156978,note_off,,,,,28,0,1,,,,0,64,64
156984,note_off,,,,,6,0,1,,,,0,52,64
156988,set_tempo,,,,,68,1,0,333333,,,,,
157056,set_tempo,,,,,68,1,0,335196,,,,,
157110,note_on,,,,,126,0,1,,,,0,82,80
157112,note_on,,,,,0,0,1,,,,0,70,84
157112,note_on,,,,,2,0,1,,,,0,76,77
157124,set_tempo,,,,,68,1,0,333333,,,,,
157128,set_tempo,,,,,4,1,0,335196,,,,,
157132,set_tempo,,,,,4,1,0,338983,,,,,
157136,set_tempo,,,,,4,1,0,344828,,,,,
157140,set_tempo,,,,,4,1,0,348837,,,,,
157144,set_tempo,,,,,4,1,0,350877,,,,,
157148,set_tempo,,,,,4,1,0,355030,,,,,
157152,set_tempo,,,,,4,1,0,359281,,,,,
157156,set_tempo,,,,,4,1,0,363636,,,,,
157160,set_tempo,,,,,4,1,0,370370,,,,,
157164,set_tempo,,,,,4,1,0,372671,,,,,
157168,set_tempo,,,,,4,1,0,377358,,,,,
157172,set_tempo,,,,,4,1,0,382166,,,,,
157176,set_tempo,,,,,4,1,0,387097,,,,,
157180,set_tempo,,,,,4,1,0,394737,,,,,
157184,set_tempo,,,,,4,1,0,397351,,,,,
157188,set_tempo,,,,,4,1,0,402685,,,,,
157192,set_tempo,,,,,4,1,0,408163,,,,,
157196,set_tempo,,,,,4,1,0,413793,,,,,
157198,note_off,,,,,86,0,1,,,,0,70,64
157200,set_tempo,,,,,4,1,0,419580,,,,,
157206,note_off,,,,,8,0,1,,,,0,76,64
157212,note_off,,,,,6,0,1,,,,0,82,64
157238,control_change,,,,,26,0,1,,64,0,0,,
157256,set_tempo,,,,,56,1,0,416667,,,,,
157260,set_tempo,,,,,4,1,0,413793,,,,,
157264,note_on,,,,,0,0,1,,,,0,68,87
157264,set_tempo,,,,,4,1,0,410959,,,,,
157264,note_on,,,,,26,0,1,,,,0,77,74
157264,note_on,,,,,0,0,1,,,,0,44,91
157264,note_on,,,,,0,0,1,,,,0,32,87
157266,note_on,,,,,2,0,1,,,,0,80,79
157268,set_tempo,,,,,4,1,0,408163,,,,,
157272,set_tempo,,,,,4,1,0,405405,,,,,
157276,set_tempo,,,,,4,1,0,402685,,,,,
157276,control_change,,,,,10,0,1,,64,127,0,,
157280,set_tempo,,,,,4,1,0,400000,,,,,
157284,set_tempo,,,,,4,1,0,394737,,,,,
157288,set_tempo,,,,,4,1,0,389610,,,,,
157292,set_tempo,,,,,4,1,0,387097,,,,,
157296,set_tempo,,,,,4,1,0,384615,,,,,
157300,set_tempo,,,,,4,1,0,382166,,,,,
157304,set_tempo,,,,,4,1,0,379747,,,,,
157308,set_tempo,,,,,4,1,0,375000,,,,,
157312,set_tempo,,,,,4,1,0,372671,,,,,
157316,set_tempo,,,,,4,1,0,370370,,,,,
157320,set_tempo,,,,,4,1,0,368098,,,,,
157324,set_tempo,,,,,4,1,0,363636,,,,,
157328,set_tempo,,,,,4,1,0,361446,,,,,
157332,set_tempo,,,,,4,1,0,357143,,,,,
157336,set_tempo,,,,,4,1,0,355030,,,,,
157340,set_tempo,,,,,4,1,0,352941,,,,,
157344,set_tempo,,,,,4,1,0,350877,,,,,
157348,set_tempo,,,,,4,1,0,348837,,,,,
157350,note_off,,,,,74,0,1,,,,0,68,64
157352,set_tempo,,,,,4,1,0,346821,,,,,
157352,note_off,,,,,2,0,1,,,,0,77,64
157354,note_off,,,,,2,0,1,,,,0,80,64
157356,set_tempo,,,,,4,1,0,340909,,,,,
157430,note_off,,,,,76,0,1,,,,0,32,64
157444,note_on,,,,,14,0,1,,,,0,65,68
157444,note_on,,,,,0,0,1,,,,0,53,66
157446,note_off,,,,,2,0,1,,,,0,44,64
157450,note_on,,,,,4,0,1,,,,0,56,66
157452,note_on,,,,,2,0,1,,,,0,61,55
157476,note_off,,,,,24,0,1,,,,0,65,64
157478,note_off,,,,,2,0,1,,,,0,61,64
157478,note_off,,,,,0,0,1,,,,0,53,64
157482,note_off,,,,,4,0,1,,,,0,56,64
157552,note_on,,,,,70,0,1,,,,0,65,77
157552,note_on,,,,,0,0,1,,,,0,56,78
157554,note_on,,,,,2,0,1,,,,0,61,72
157556,note_on,,,,,2,0,1,,,,0,53,66
157570,note_off,,,,,14,0,1,,,,0,53,64
157580,note_off,,,,,10,0,1,,,,0,65,64
157586,note_off,,,,,6,0,1,,,,0,61,64
157588,note_off,,,,,2,0,1,,,,0,56,64
157648,note_on,,,,,60,0,1,,,,0,80,82
157648,note_on,,,,,0,0,1,,,,0,56,76
157650,note_on,,,,,2,0,1,,,,0,77,73
157652,note_on,,,,,2,0,1,,,,0,73,81
157652,note_on,,,,,0,0,1,,,,0,61,69
157652,note_on,,,,,0,0,1,,,,0,65,77
157656,note_on,,,,,0,0,1,,,,0,53,69
157656,note_on,,,,,4,0,1,,,,0,85,79
157676,note_off,,,,,20,0,1,,,,0,73,64
157682,note_off,,,,,6,0,1,,,,0,53,64
157684,note_off,,,,,0,0,1,,,,0,77,64
157684,note_off,,,,,2,0,1,,,,0,65,64
157692,note_off,,,,,8,0,1,,,,0,61,64
157694,note_off,,,,,2,0,1,,,,0,56,64
157698,note_off,,,,,4,0,1,,,,0,85,64
157702,note_off,,,,,4,0,1,,,,0,80,64
157750,note_on,,,,,48,0,1,,,,0,56,81
157752,note_on,,,,,2,0,1,,,,0,65,79
157756,note_on,,,,,4,0,1,,,,0,61,69
157758,note_on,,,,,2,0,1,,,,0,53,69
157776,note_off,,,,,18,0,1,,,,0,53,64
157784,note_off,,,,,8,0,1,,,,0,65,64
157792,note_off,,,,,8,0,1,,,,0,61,64
157796,note_off,,,,,4,0,1,,,,0,56,64
157840,note_on,,,,,44,0,1,,,,0,65,87
157842,note_on,,,,,2,0,1,,,,0,61,83
157842,note_on,,,,,0,0,1,,,,0,56,81
157844,note_on,,,,,2,0,1,,,,0,53,74
157870,note_off,,,,,26,0,1,,,,0,53,64
157872,note_off,,,,,2,0,1,,,,0,65,64
157874,note_off,,,,,2,0,1,,,,0,61,64
157880,note_off,,,,,6,0,1,,,,0,56,64
157934,note_on,,,,,54,0,1,,,,0,85,86
157936,note_on,,,,,2,0,1,,,,0,89,76
157936,note_on,,,,,0,0,1,,,,0,80,86
157936,note_on,,,,,0,0,1,,,,0,77,82
157938,note_on,,,,,2,0,1,,,,0,65,83
157940,note_on,,,,,0,0,1,,,,0,56,83
157940,note_on,,,,,2,0,1,,,,0,61,79
157944,note_on,,,,,4,0,1,,,,0,53,75
157960,note_off,,,,,16,0,1,,,,0,77,64
157962,note_off,,,,,2,0,1,,,,0,80,64
157966,note_off,,,,,4,0,1,,,,0,65,64
157968,note_off,,,,,2,0,1,,,,0,53,64
157972,note_off,,,,,4,0,1,,,,0,61,64
157976,note_off,,,,,4,0,1,,,,0,56,64
157984,note_off,,,,,8,0,1,,,,0,89,64
157990,note_off,,,,,6,0,1,,,,0,85,64
158042,note_on,,,,,52,0,1,,,,0,56,81
158044,note_on,,,,,2,0,1,,,,0,65,79
158048,note_on,,,,,4,0,1,,,,0,61,73
158052,note_on,,,,,4,0,1,,,,0,53,66
158064,note_off,,,,,12,0,1,,,,0,53,64
158076,note_off,,,,,12,0,1,,,,0,65,64
158084,note_off,,,,,0,0,1,,,,0,56,64
158084,note_off,,,,,8,0,1,,,,0,61,64
158140,note_on,,,,,56,0,1,,,,0,56,83
158144,note_on,,,,,4,0,1,,,,0,65,80
158144,note_on,,,,,0,0,1,,,,0,61,74
158150,note_on,,,,,6,0,1,,,,0,53,70
158166,note_off,,,,,16,0,1,,,,0,53,64
158180,note_off,,,,,14,0,1,,,,0,65,64
158182,note_off,,,,,2,0,1,,,,0,61,64
158186,note_off,,,,,4,0,1,,,,0,56,64
158250,note_on,,,,,0,0,1,,,,0,80,86
158250,note_on,,,,,64,0,1,,,,0,89,77
158252,note_on,,,,,0,0,1,,,,0,85,83
158252,note_on,,,,,2,0,1,,,,0,92,82
158256,note_on,,,,,4,0,1,,,,0,65,81
158260,note_on,,,,,4,0,1,,,,0,61,74
158260,note_on,,,,,0,0,1,,,,0,56,82
158264,note_on,,,,,4,0,1,,,,0,53,72
158288,note_off,,,,,24,0,1,,,,0,53,64
158290,note_off,,,,,2,0,1,,,,0,80,64
158296,note_off,,,,,6,0,1,,,,0,65,64
158302,note_off,,,,,6,0,1,,,,0,61,64
158304,note_off,,,,,0,0,1,,,,0,92,64
158304,note_off,,,,,2,0,1,,,,0,56,64
158310,note_off,,,,,6,0,1,,,,0,85,64
158318,note_off,,,,,8,0,1,,,,0,89,64
158370,note_on,,,,,52,0,1,,,,0,65,80
158372,note_on,,,,,2,0,1,,,,0,61,71
158372,note_on,,,,,0,0,1,,,,0,56,76
158378,note_on,,,,,6,0,1,,,,0,53,69
158408,note_off,,,,,30,0,1,,,,0,53,64
158410,note_off,,,,,2,0,1,,,,0,65,64
158422,note_off,,,,,12,0,1,,,,0,56,64
158424,note_off,,,,,2,0,1,,,,0,61,64
158496,note_on,,,,,72,0,1,,,,0,65,79
158498,note_on,,,,,2,0,1,,,,0,61,72
158500,note_on,,,,,2,0,1,,,,0,56,71
158502,note_on,,,,,2,0,1,,,,0,53,69
158524,note_off,,,,,22,0,1,,,,0,65,64
158534,note_off,,,,,10,0,1,,,,0,61,64
158538,note_off,,,,,4,0,1,,,,0,53,64
158548,note_off,,,,,10,0,1,,,,0,56,64
158642,control_change,,,,,94,0,1,,64,0,0,,
158660,note_on,,,,,18,0,1,,,,0,44,101
158660,note_on,,,,,0,0,1,,,,0,32,101
158662,note_on,,,,,2,0,1,,,,0,81,101
158664,note_on,,,,,2,0,1,,,,0,93,102
158664,note_on,,,,,0,0,1,,,,0,90,102
158666,note_on,,,,,2,0,1,,,,0,85,102
158700,control_change,,,,,34,0,1,,64,127,0,,
158706,note_off,,,,,6,0,1,,,,0,32,64
158708,note_off,,,,,2,0,1,,,,0,44,64
158888,note_on,,,,,0,0,1,,,,0,66,82
158888,note_on,,,,,0,0,1,,,,0,57,76
158888,note_on,,,,,180,0,1,,,,0,69,82
158890,note_on,,,,,2,0,1,,,,0,61,75
158924,note_off,,,,,34,0,1,,,,0,57,64
158938,note_off,,,,,14,0,1,,,,0,66,64
158938,note_off,,,,,0,0,1,,,,0,69,64
158944,note_off,,,,,6,0,1,,,,0,61,64
159098,note_on,,,,,154,0,1,,,,0,69,89
159098,note_on,,,,,0,0,1,,,,0,66,85
159100,note_on,,,,,2,0,1,,,,0,61,82
159108,note_on,,,,,8,0,1,,,,0,57,74
159198,note_off,,,,,90,0,1,,,,0,57,64
159202,note_off,,,,,4,0,1,,,,0,66,64
159206,note_off,,,,,4,0,1,,,,0,69,64
159208,note_off,,,,,2,0,1,,,,0,61,64
159410,note_on,,,,,202,0,1,,,,0,69,93
159412,note_on,,,,,2,0,1,,,,0,66,85
159412,note_on,,,,,0,0,1,,,,0,61,85
159416,note_on,,,,,4,0,1,,,,0,57,80
159554,note_off,,,,,138,0,1,,,,0,93,64
159576,note_off,,,,,22,0,1,,,,0,90,64
159578,note_off,,,,,2,0,1,,,,0,85,64
159584,note_off,,,,,6,0,1,,,,0,81,64
159628,note_off,,,,,44,0,1,,,,0,69,64
159646,note_off,,,,,18,0,1,,,,0,66,64
159654,note_off,,,,,8,0,1,,,,0,57,64
159660,note_off,,,,,6,0,1,,,,0,61,64
159808,set_tempo,,,,,2452,1,0,335196,,,,,
159812,set_tempo,,,,,4,1,0,329670,,,,,
159816,set_tempo,,,,,4,1,0,320856,,,,,
159820,set_tempo,,,,,4,1,0,315789,,,,,
159824,set_tempo,,,,,4,1,0,310881,,,,,
159828,set_tempo,,,,,4,1,0,303030,,,,,
159840,set_tempo,,,,,12,1,0,301508,,,,,
159858,note_on,,,,,198,0,1,,,,0,54,96
160064,note_on,,,,,206,0,1,,,,0,57,77
160104,set_tempo,,,,,264,1,0,300000,,,,,
160116,control_change,,,,,52,0,1,,64,0,0,,
160128,set_tempo,,,,,24,1,0,301508,,,,,
160148,set_tempo,,,,,20,1,0,303030,,,,,
160168,set_tempo,,,,,20,1,0,306122,,,,,
160188,set_tempo,,,,,20,1,0,307692,,,,,
160194,control_change,,,,,78,0,1,,64,127,0,,
160212,set_tempo,,,,,24,1,0,309278,,,,,
160216,note_on,,,,,22,0,1,,,,0,60,74
160232,set_tempo,,,,,20,1,0,310881,,,,,
160252,note_off,,,,,36,0,1,,,,0,54,64
160252,set_tempo,,,,,20,1,0,312500,,,,,
160256,note_off,,,,,4,0,1,,,,0,57,64
160272,set_tempo,,,,,20,1,0,314136,,,,,
160278,note_on,,,,,22,0,1,,,,0,32,87
160292,set_tempo,,,,,20,1,0,315789,,,,,
160298,note_off,,,,,20,0,1,,,,0,60,64
160316,set_tempo,,,,,24,1,0,317460,,,,,
160320,set_tempo,,,,,4,1,0,352941,,,,,
160320,note_off,,,,,22,0,1,,,,0,32,64
160336,set_tempo,,,,,16,1,0,355030,,,,,
160352,note_on,,,,,32,0,1,,,,0,48,93
160356,set_tempo,,,,,20,1,0,357143,,,,,
160376,set_tempo,,,,,20,1,0,361446,,,,,
160380,note_off,,,,,28,0,1,,,,0,48,64
160384,note_on,,,,,4,0,1,,,,0,54,79
160396,set_tempo,,,,,20,1,0,363636,,,,,
160398,note_on,,,,,14,0,1,,,,0,57,81
160420,set_tempo,,,,,24,1,0,365854,,,,,
160440,note_on,,,,,42,0,1,,,,0,65,77
160440,set_tempo,,,,,20,1,0,368098,,,,,
160460,set_tempo,,,,,20,1,0,370370,,,,,
160500,set_tempo,,,,,40,1,0,372671,,,,,
160508,set_tempo,,,,,8,1,0,375000,,,,,
160512,set_tempo,,,,,4,1,0,377358,,,,,
160516,set_tempo,,,,,4,1,0,384615,,,,,
160732,note_off,,,,,292,0,1,,,,0,65,64
160754,note_off,,,,,22,0,1,,,,0,54,64
160758,note_on,,,,,4,0,1,,,,0,63,72
160770,note_off,,,,,12,0,1,,,,0,57,64
160832,note_on,,,,,62,0,1,,,,0,61,74
160834,note_on,,,,,2,0,1,,,,0,49,79
160836,note_on,,,,,2,0,1,,,,0,53,82
160838,note_on,,,,,2,0,1,,,,0,56,81
160838,note_on,,,,,0,0,1,,,,0,37,74
160842,note_on,,,,,4,0,1,,,,0,44,74
160862,note_off,,,,,20,0,1,,,,0,63,64
160866,control_change,,,,,4,0,1,,64,0,0,,
160996,control_change,,,,,130,0,1,,64,127,0,,
161078,note_off,,,,,82,0,1,,,,0,53,64
161084,note_off,,,,,6,0,1,,,,0,37,64
161088,note_off,,,,,4,0,1,,,,0,56,64
161090,note_off,,,,,2,0,1,,,,0,49,64
161098,note_off,,,,,8,0,1,,,,0,61,64
161100,note_off,,,,,2,0,1,,,,0,44,64
161456,control_change,,,,,356,0,1,,64,0,0,,
161500,set_tempo,,,,,984,1,0,379747,,,,,
161512,set_tempo,,,,,12,1,0,384615,,,,,
161520,set_tempo,,,,,8,1,0,387097,,,,,
161528,set_tempo,,,,,8,1,0,389610,,,,,
161536,set_tempo,,,,,8,1,0,392157,,,,,
161544,note_on,,,,,0,0,1,,,,0,50,83
161544,note_on,,,,,88,0,1,,,,0,62,86
161552,set_tempo,,,,,16,1,0,394737,,,,,
161560,set_tempo,,,,,8,1,0,397351,,,,,
161566,note_off,,,,,22,0,1,,,,0,62,64
161568,set_tempo,,,,,8,1,0,400000,,,,,
161568,note_off,,,,,2,0,1,,,,0,50,64
161576,set_tempo,,,,,8,1,0,402685,,,,,
161584,set_tempo,,,,,8,1,0,405405,,,,,
161596,set_tempo,,,,,12,1,0,410959,,,,,
161598,note_on,,,,,30,0,1,,,,0,62,95
161600,note_on,,,,,2,0,1,,,,0,50,92
161604,set_tempo,,,,,8,1,0,413793,,,,,
161612,set_tempo,,,,,8,1,0,416667,,,,,
161628,set_tempo,,,,,16,1,0,419580,,,,,
161636,set_tempo,,,,,8,1,0,422535,,,,,
161644,set_tempo,,,,,8,1,0,425532,,,,,
161652,set_tempo,,,,,8,1,0,428571,,,,,
161660,set_tempo,,,,,8,1,0,431655,,,,,
161668,set_tempo,,,,,8,1,0,434783,,,,,
161712,control_change,,,,,112,0,1,,64,127,0,,
161812,set_tempo,,,,,144,1,0,410959,,,,,
161816,set_tempo,,,,,4,1,0,392157,,,,,
161820,set_tempo,,,,,4,1,0,384615,,,,,
161824,set_tempo,,,,,4,1,0,375000,,,,,
161828,set_tempo,,,,,4,1,0,370370,,,,,
161832,set_tempo,,,,,4,1,0,363636,,,,,
161836,set_tempo,,,,,4,1,0,355030,,,,,
161840,set_tempo,,,,,4,1,0,350877,,,,,
161844,set_tempo,,,,,4,1,0,342857,,,,,
162032,note_off,,,,,320,0,1,,,,0,62,64
162060,note_off,,,,,28,0,1,,,,0,50,64
162156,set_tempo,,,,,312,1,0,405405,,,,,
162160,set_tempo,,,,,4,1,0,419580,,,,,
162164,set_tempo,,,,,4,1,0,434783,,,,,
162354,note_on,,,,,294,0,1,,,,0,56,82
162354,note_on,,,,,0,0,1,,,,0,44,79
162376,note_off,,,,,22,0,1,,,,0,56,64
162378,note_off,,,,,2,0,1,,,,0,44,64
162408,note_on,,,,,30,0,1,,,,0,56,86
162408,note_on,,,,,0,0,1,,,,0,44,89
162676,note_off,,,,,268,0,1,,,,0,56,64
162758,note_off,,,,,82,0,1,,,,0,44,64
163072,note_on,,,,,314,0,1,,,,0,50,74
163076,note_on,,,,,4,0,1,,,,0,38,66
163098,note_off,,,,,22,0,1,,,,0,50,64
163100,note_off,,,,,2,0,1,,,,0,38,64
163132,note_on,,,,,32,0,1,,,,0,50,86
163136,note_on,,,,,4,0,1,,,,0,38,82
163176,control_change,,,,,40,0,1,,64,0,0,,
163192,control_change,,,,,16,0,1,,64,127,0,,
163250,note_off,,,,,58,0,1,,,,0,50,64
163264,note_off,,,,,14,0,1,,,,0,38,64
163448,note_on,,,,,184,0,1,,,,0,44,77
163450,note_on,,,,,2,0,1,,,,0,32,75
163480,note_off,,,,,30,0,1,,,,0,32,64
163480,note_off,,,,,0,0,1,,,,0,44,64
163510,note_on,,,,,0,0,1,,,,0,32,80
163510,note_on,,,,,30,0,1,,,,0,44,83
163550,control_change,,,,,40,0,1,,64,0,0,,
163578,control_change,,,,,28,0,1,,64,127,0,,
163642,note_off,,,,,64,0,1,,,,0,44,64
163668,note_off,,,,,26,0,1,,,,0,32,64
163858,note_on,,,,,190,0,1,,,,0,38,71
163860,note_on,,,,,2,0,1,,,,0,26,85
163890,note_off,,,,,30,0,1,,,,0,38,64
163892,note_off,,,,,2,0,1,,,,0,26,64
163938,note_on,,,,,46,0,1,,,,0,38,85
163938,note_on,,,,,0,0,1,,,,0,26,93
163974,control_change,,,,,36,0,1,,64,0,0,,
164028,control_change,,,,,54,0,1,,64,127,0,,
164416,note_on,,,,,0,0,1,,,,0,44,81
164416,note_on,,,,,388,0,1,,,,0,53,83
164420,note_on,,,,,4,0,1,,,,0,47,81
164450,control_change,,,,,30,0,1,,64,0,0,,
164758,control_change,,,,,308,0,1,,64,127,0,,
164834,note_off,,,,,76,0,1,,,,0,47,64
164840,note_off,,,,,6,0,1,,,,0,44,64
164844,note_off,,,,,4,0,1,,,,0,53,64
165118,note_on,,,,,274,0,1,,,,0,54,81
165120,note_on,,,,,0,0,1,,,,0,45,78
165120,note_on,,,,,2,0,1,,,,0,48,78
165162,control_change,,,,,42,0,1,,64,0,0,,
165402,control_change,,,,,240,0,1,,64,127,0,,
165500,note_off,,,,,98,0,1,,,,0,48,64
165526,note_off,,,,,26,0,1,,,,0,45,64
165536,note_off,,,,,10,0,1,,,,0,54,64
165828,note_on,,,,,0,0,1,,,,0,50,75
165828,note_on,,,,,0,0,1,,,,0,46,82
165828,note_on,,,,,292,0,1,,,,0,55,72
165848,control_change,,,,,20,0,1,,64,0,0,,
165924,control_change,,,,,76,0,1,,64,127,0,,
165966,note_off,,,,,42,0,1,,,,0,46,64
165972,note_off,,,,,6,0,1,,,,0,50,64
165972,note_off,,,,,0,0,1,,,,0,55,64
166248,note_on,,,,,276,0,1,,,,0,50,75
166248,note_on,,,,,0,0,1,,,,0,62,73
166250,note_on,,,,,2,0,1,,,,0,55,65
166252,note_on,,,,,2,0,1,,,,0,57,76
166270,control_change,,,,,18,0,1,,64,0,0,,
166340,control_change,,,,,70,0,1,,64,127,0,,
166376,note_off,,,,,36,0,1,,,,0,38,64
166402,note_off,,,,,26,0,1,,,,0,26,64
166532,note_on,,,,,130,0,1,,,,0,39,56
166532,note_on,,,,,0,0,1,,,,0,27,61
166596,control_change,,,,,64,0,1,,64,0,0,,
166674,control_change,,,,,78,0,1,,64,127,0,,
166692,note_off,,,,,18,0,1,,,,0,55,64
166708,note_off,,,,,16,0,1,,,,0,57,64
166830,note_on,,,,,122,0,1,,,,0,54,61
166832,note_on,,,,,2,0,1,,,,0,57,67
166878,control_change,,,,,46,0,1,,64,0,0,,
166912,control_change,,,,,34,0,1,,64,127,0,,
166982,note_off,,,,,70,0,1,,,,0,39,64
167014,note_off,,,,,32,0,1,,,,0,27,64
167162,note_on,,,,,148,0,1,,,,0,26,75
167164,note_on,,,,,2,0,1,,,,0,38,67
167198,control_change,,,,,34,0,1,,64,0,0,,
167258,note_off,,,,,60,0,1,,,,0,50,64
167268,control_change,,,,,10,0,1,,64,127,0,,
167270,note_off,,,,,2,0,1,,,,0,62,64
167270,note_off,,,,,0,0,1,,,,0,57,64
167280,note_off,,,,,10,0,1,,,,0,54,64
167340,note_off,,,,,60,0,1,,,,0,26,64
167346,note_off,,,,,6,0,1,,,,0,38,64
167372,note_on,,,,,26,0,1,,,,0,62,72
167376,note_on,,,,,4,0,1,,,,0,50,64
167452,note_off,,,,,0,0,1,,,,0,62,64
167452,note_off,,,,,76,0,1,,,,0,50,64
167704,note_on,,,,,252,0,1,,,,0,50,62
167704,note_on,,,,,0,0,1,,,,0,59,66
167706,note_on,,,,,2,0,1,,,,0,62,55
167708,note_on,,,,,2,0,1,,,,0,43,52
167708,note_on,,,,,0,0,1,,,,0,31,64
167710,note_on,,,,,2,0,1,,,,0,55,58
167740,control_change,,,,,30,0,1,,64,0,0,,
168028,control_change,,,,,288,0,1,,64,127,0,,
168066,note_off,,,,,38,0,1,,,,0,50,64
168080,note_off,,,,,14,0,1,,,,0,55,64
168082,note_off,,,,,2,0,1,,,,0,31,64
168088,note_off,,,,,6,0,1,,,,0,59,64
168096,note_off,,,,,0,0,1,,,,0,43,64
168096,note_off,,,,,8,0,1,,,,0,62,64
168438,control_change,,,,,342,0,1,,64,0,0,,
168580,note_on,,,,,142,0,1,,,,0,71,76
168584,note_on,,,,,4,0,1,,,,0,59,62
168596,note_off,,,,,12,0,1,,,,0,59,64
168604,note_off,,,,,8,0,1,,,,0,71,64
168628,note_on,,,,,24,0,1,,,,0,71,93
168632,note_on,,,,,4,0,1,,,,0,59,90
168718,control_change,,,,,86,0,1,,64,127,0,,
168972,note_off,,,,,254,0,1,,,,0,71,64
169022,note_off,,,,,50,0,1,,,,0,59,64
169382,note_on,,,,,360,0,1,,,,0,65,70
169384,note_on,,,,,2,0,1,,,,0,53,75
169398,note_off,,,,,14,0,1,,,,0,53,64
169408,note_off,,,,,10,0,1,,,,0,65,64
169434,note_on,,,,,26,0,1,,,,0,65,87
169438,note_on,,,,,4,0,1,,,,0,53,88
169736,note_off,,,,,298,0,1,,,,0,65,64
169796,note_off,,,,,60,0,1,,,,0,53,64
170092,note_on,,,,,0,0,1,,,,0,47,82
170092,note_on,,,,,296,0,1,,,,0,59,76
170116,note_off,,,,,24,0,1,,,,0,47,64
170118,note_off,,,,,2,0,1,,,,0,59,64
170152,note_on,,,,,34,0,1,,,,0,59,90
170154,note_on,,,,,2,0,1,,,,0,47,89
170250,note_off,,,,,96,0,1,,,,0,59,64
170276,note_off,,,,,26,0,1,,,,0,47,64
170446,note_on,,,,,170,0,1,,,,0,41,68
170448,note_on,,,,,2,0,1,,,,0,53,64
170466,note_off,,,,,18,0,1,,,,0,41,64
170472,note_off,,,,,6,0,1,,,,0,53,64
170508,note_on,,,,,36,0,1,,,,0,53,78
170510,note_on,,,,,2,0,1,,,,0,41,87
170580,note_off,,,,,70,0,1,,,,0,53,64
170594,note_off,,,,,14,0,1,,,,0,41,64
170816,note_on,,,,,222,0,1,,,,0,35,72
170816,note_on,,,,,0,0,1,,,,0,47,74
170846,note_off,,,,,0,0,1,,,,0,35,64
170846,note_off,,,,,30,0,1,,,,0,47,64
170900,note_on,,,,,54,0,1,,,,0,47,87
170900,note_on,,,,,0,0,1,,,,0,35,82
170952,control_change,,,,,52,0,1,,64,0,0,,
170988,control_change,,,,,36,0,1,,64,127,0,,
171056,note_off,,,,,68,0,1,,,,0,47,64
171072,note_off,,,,,16,0,1,,,,0,35,64
171264,note_on,,,,,0,0,1,,,,0,41,67
171264,note_on,,,,,192,0,1,,,,0,29,72
171290,note_off,,,,,26,0,1,,,,0,29,64
171292,note_off,,,,,2,0,1,,,,0,41,64
171328,note_on,,,,,36,0,1,,,,0,29,75
171328,note_on,,,,,0,0,1,,,,0,41,77
171392,control_change,,,,,64,0,1,,64,0,0,,
171468,control_change,,,,,76,0,1,,64,127,0,,
171596,set_tempo,,,,,9432,1,0,428571,,,,,
171600,set_tempo,,,,,4,1,0,379747,,,,,
171604,set_tempo,,,,,4,1,0,340909,,,,,
171832,set_tempo,,,,,228,1,0,379747,,,,,
171836,set_tempo,,,,,4,1,0,377358,,,,,
171840,set_tempo,,,,,4,1,0,402685,,,,,
171844,set_tempo,,,,,4,1,0,434783,,,,,
171908,note_on,,,,,440,0,1,,,,0,50,72
171908,note_on,,,,,0,0,1,,,,0,56,79
171910,note_on,,,,,2,0,1,,,,0,47,70
171952,control_change,,,,,42,0,1,,64,0,0,,
172284,control_change,,,,,332,0,1,,64,127,0,,
172362,note_off,,,,,78,0,1,,,,0,50,64
172364,note_off,,,,,2,0,1,,,,0,47,64
172454,note_off,,,,,90,0,1,,,,0,56,64
172636,note_on,,,,,182,0,1,,,,0,57,69
172638,note_on,,,,,2,0,1,,,,0,51,72
172644,note_on,,,,,6,0,1,,,,0,48,65
172690,control_change,,,,,46,0,1,,64,0,0,,
172894,control_change,,,,,204,0,1,,64,127,0,,
172948,note_off,,,,,54,0,1,,,,0,48,64
172974,note_off,,,,,26,0,1,,,,0,57,64
172994,note_off,,,,,20,0,1,,,,0,51,64
173384,note_on,,,,,390,0,1,,,,0,52,72
173384,note_on,,,,,0,0,1,,,,0,58,78
173386,note_on,,,,,2,0,1,,,,0,49,71
173404,control_change,,,,,18,0,1,,64,0,0,,
173486,control_change,,,,,82,0,1,,64,127,0,,
173526,note_off,,,,,40,0,1,,,,0,49,64
173530,note_off,,,,,4,0,1,,,,0,52,64
173544,note_off,,,,,14,0,1,,,,0,58,64
173836,note_on,,,,,292,0,1,,,,0,65,70
173836,note_on,,,,,0,0,1,,,,0,58,76
173838,note_on,,,,,2,0,1,,,,0,53,72
173838,note_on,,,,,0,0,1,,,,0,60,72
173872,control_change,,,,,34,0,1,,64,0,0,,
173948,control_change,,,,,76,0,1,,64,127,0,,
174000,note_off,,,,,52,0,1,,,,0,41,64
174036,note_off,,,,,36,0,1,,,,0,29,64
174202,note_on,,,,,166,0,1,,,,0,42,58
174204,note_on,,,,,2,0,1,,,,0,30,63
174292,control_change,,,,,88,0,1,,64,0,0,,
174380,control_change,,,,,88,0,1,,64,127,0,,
174434,note_off,,,,,54,0,1,,,,0,58,64
174450,note_off,,,,,16,0,1,,,,0,60,64
174644,note_on,,,,,194,0,1,,,,0,60,58
174650,note_on,,,,,6,0,1,,,,0,57,43
174666,control_change,,,,,16,0,1,,64,0,0,,
174728,control_change,,,,,62,0,1,,64,127,0,,
174832,note_off,,,,,104,0,1,,,,0,42,64
174858,note_off,,,,,26,0,1,,,,0,30,64
175096,note_on,,,,,0,0,1,,,,0,29,49
175096,note_on,,,,,238,0,1,,,,0,41,47
175130,control_change,,,,,34,0,1,,64,0,0,,
175212,control_change,,,,,82,0,1,,64,127,0,,
175246,note_off,,,,,34,0,1,,,,0,53,64
175250,note_off,,,,,4,0,1,,,,0,60,64
175254,note_off,,,,,4,0,1,,,,0,65,64
175262,note_off,,,,,8,0,1,,,,0,57,64
175290,note_off,,,,,28,0,1,,,,0,29,64
175292,note_off,,,,,2,0,1,,,,0,41,64
175440,note_on,,,,,148,0,1,,,,0,65,63
175444,note_on,,,,,4,0,1,,,,0,53,61
175596,note_off,,,,,152,0,1,,,,0,53,64
175598,note_off,,,,,2,0,1,,,,0,65,64
176010,note_on,,,,,0,0,1,,,,0,61,52
176010,note_on,,,,,412,0,1,,,,0,65,40
176016,note_on,,,,,6,0,1,,,,0,53,45
176018,note_on,,,,,0,0,1,,,,0,58,48
176018,note_on,,,,,2,0,1,,,,0,34,43
176028,note_on,,,,,10,0,1,,,,0,46,46
176076,control_change,,,,,48,0,1,,64,0,0,,
176528,control_change,,,,,452,0,1,,64,127,0,,
176636,set_tempo,,,,,4792,1,0,441176,,,,,
176660,set_tempo,,,,,24,1,0,444444,,,,,
176704,set_tempo,,,,,44,1,0,447761,,,,,
176708,note_off,,,,,180,0,1,,,,0,46,64
176718,note_off,,,,,10,0,1,,,,0,53,64
176724,set_tempo,,,,,20,1,0,451128,,,,,
176744,note_off,,,,,26,0,1,,,,0,58,64
176746,note_off,,,,,2,0,1,,,,0,34,64
176752,note_off,,,,,6,0,1,,,,0,61,64
176752,note_off,,,,,0,0,1,,,,0,65,64
177492,control_change,,,,,740,0,1,,64,0,0,,
177576,control_change,,,,,84,0,1,,67,127,0,,
178156,note_on,,,,,580,0,1,,,,0,77,57
178158,note_on,,,,,2,0,1,,,,0,65,50
178206,control_change,,,,,48,0,1,,64,127,0,,
178286,note_off,,,,,0,0,1,,,,0,77,64
178286,note_off,,,,,80,0,1,,,,0,65,64
178492,note_on,,,,,206,0,1,,,,0,37,47
178508,control_change,,,,,16,0,1,,64,0,0,,
178510,note_on,,,,,2,0,1,,,,0,77,52
178512,note_on,,,,,2,0,1,,,,0,65,48
178578,control_change,,,,,66,0,1,,64,127,0,,
178636,note_off,,,,,58,0,1,,,,0,37,64
178714,note_off,,,,,78,0,1,,,,0,65,64
178770,note_off,,,,,56,0,1,,,,0,77,64
178894,note_on,,,,,124,0,1,,,,0,56,53
178900,note_on,,,,,6,0,1,,,,0,65,35
178904,note_on,,,,,4,0,1,,,,0,59,39
179116,note_off,,,,,212,0,1,,,,0,59,64
179116,note_off,,,,,0,0,1,,,,0,65,64
179126,note_off,,,,,10,0,1,,,,0,56,64
179164,note_on,,,,,38,0,1,,,,0,87,58
179170,note_on,,,,,6,0,1,,,,0,75,34
179288,note_off,,,,,118,0,1,,,,0,87,64
179292,note_off,,,,,4,0,1,,,,0,75,64
179400,note_on,,,,,108,0,1,,,,0,87,57
179404,note_on,,,,,4,0,1,,,,0,75,39
179556,note_on,,,,,152,0,1,,,,0,56,36
179560,note_on,,,,,0,0,1,,,,0,59,44
179560,note_off,,,,,4,0,1,,,,0,87,64
179568,note_on,,,,,8,0,1,,,,0,65,39
179580,note_off,,,,,12,0,1,,,,0,75,64
179722,note_on,,,,,142,0,1,,,,0,86,57
179728,note_off,,,,,6,0,1,,,,0,59,64
179732,note_off,,,,,4,0,1,,,,0,65,64
179732,note_off,,,,,0,0,1,,,,0,56,64
179738,note_on,,,,,6,0,1,,,,0,74,42
179778,note_off,,,,,40,0,1,,,,0,86,64
179780,note_off,,,,,2,0,1,,,,0,74,64
179874,note_on,,,,,94,0,1,,,,0,86,58
179880,note_on,,,,,6,0,1,,,,0,74,35
179994,note_off,,,,,114,0,1,,,,0,86,64
180002,note_off,,,,,8,0,1,,,,0,74,64
180004,note_on,,,,,2,0,1,,,,0,65,36
180006,note_on,,,,,2,0,1,,,,0,56,42
180010,note_on,,,,,4,0,1,,,,0,59,41
180146,note_on,,,,,136,0,1,,,,0,85,54
180152,note_on,,,,,6,0,1,,,,0,73,42
180196,note_off,,,,,44,0,1,,,,0,73,64
180202,note_off,,,,,6,0,1,,,,0,85,64
180232,note_off,,,,,30,0,1,,,,0,59,64
180234,note_off,,,,,0,0,1,,,,0,65,64
180234,note_off,,,,,2,0,1,,,,0,56,64
180298,note_on,,,,,64,0,1,,,,0,85,57
180300,note_on,,,,,2,0,1,,,,0,73,39
180416,note_off,,,,,116,0,1,,,,0,85,64
180444,note_on,,,,,28,0,1,,,,0,56,19
180448,note_on,,,,,4,0,1,,,,0,65,33
180448,note_on,,,,,0,0,1,,,,0,59,41
180450,note_off,,,,,2,0,1,,,,0,73,64
180590,note_on,,,,,140,0,1,,,,0,84,48
180598,note_on,,,,,8,0,1,,,,0,72,35
180644,note_off,,,,,46,0,1,,,,0,72,64
180656,note_off,,,,,12,0,1,,,,0,84,64
180680,note_off,,,,,24,0,1,,,,0,59,64
180680,note_off,,,,,0,0,1,,,,0,65,64
180682,note_off,,,,,2,0,1,,,,0,56,64
180752,note_on,,,,,70,0,1,,,,0,84,47
180756,note_on,,,,,4,0,1,,,,0,72,37
180876,note_off,,,,,120,0,1,,,,0,84,64
180902,note_off,,,,,26,0,1,,,,0,72,64
180912,note_on,,,,,10,0,1,,,,0,56,28
180916,note_on,,,,,4,0,1,,,,0,65,35
180918,note_on,,,,,2,0,1,,,,0,59,35
181076,note_on,,,,,158,0,1,,,,0,83,37
181086,note_on,,,,,10,0,1,,,,0,71,16
181140,note_off,,,,,54,0,1,,,,0,71,64
181150,note_off,,,,,10,0,1,,,,0,83,64
181194,note_off,,,,,44,0,1,,,,0,59,64
181196,note_off,,,,,2,0,1,,,,0,65,64
181202,note_off,,,,,6,0,1,,,,0,56,64
181252,note_on,,,,,50,0,1,,,,0,83,44
181260,note_on,,,,,8,0,1,,,,0,71,37
181424,note_off,,,,,164,0,1,,,,0,71,64
181428,note_on,,,,,4,0,1,,,,0,56,23
181432,note_on,,,,,4,0,1,,,,0,65,27
181436,note_on,,,,,0,0,1,,,,0,59,38
181436,note_off,,,,,4,0,1,,,,0,83,64
181616,note_on,,,,,180,0,1,,,,0,82,55
181624,note_on,,,,,8,0,1,,,,0,70,31
181736,note_off,,,,,112,0,1,,,,0,82,64
181748,note_off,,,,,12,0,1,,,,0,70,64
181856,note_on,,,,,108,0,1,,,,0,82,40
181860,note_on,,,,,4,0,1,,,,0,70,23
181932,note_off,,,,,72,0,1,,,,0,65,64
181934,note_off,,,,,2,0,1,,,,0,56,64
181936,note_off,,,,,2,0,1,,,,0,59,64
182098,note_on,,,,,162,0,1,,,,0,56,24
182104,note_on,,,,,0,0,1,,,,0,59,42
182104,note_on,,,,,6,0,1,,,,0,65,39
182236,note_off,,,,,132,0,1,,,,0,82,64
182242,note_off,,,,,6,0,1,,,,0,70,64
182448,note_on,,,,,206,0,1,,,,0,81,48
182456,note_on,,,,,8,0,1,,,,0,69,37
182570,note_off,,,,,114,0,1,,,,0,81,64
182588,note_off,,,,,18,0,1,,,,0,69,64
182590,note_off,,,,,2,0,1,,,,0,65,64
182604,note_off,,,,,14,0,1,,,,0,59,64
182636,note_off,,,,,32,0,1,,,,0,56,64
183830,control_change,,,,,1194,0,1,,64,0,0,,
183852,note_on,,,,,22,0,1,,,,0,80,58
183856,note_on,,,,,4,0,1,,,,0,68,48
183924,control_change,,,,,68,0,1,,64,127,0,,
183980,note_off,,,,,56,0,1,,,,0,80,64
183984,note_off,,,,,4,0,1,,,,0,68,64
184070,note_on,,,,,86,0,1,,,,0,37,66
184080,control_change,,,,,10,0,1,,64,0,0,,
184116,note_on,,,,,36,0,1,,,,0,80,65
184120,note_on,,,,,4,0,1,,,,0,68,60
184122,control_change,,,,,2,0,1,,64,127,0,,
184170,note_off,,,,,48,0,1,,,,0,37,64
184232,note_off,,,,,62,0,1,,,,0,68,64
184264,note_off,,,,,32,0,1,,,,0,80,64
184422,note_on,,,,,158,0,1,,,,0,56,54
184428,note_on,,,,,6,0,1,,,,0,65,42
184432,note_on,,,,,4,0,1,,,,0,59,47
184636,note_off,,,,,204,0,1,,,,0,65,64
184646,note_off,,,,,10,0,1,,,,0,59,64
184648,note_on,,,,,2,0,1,,,,0,92,57
184648,note_on,,,,,0,0,1,,,,0,80,56
184656,note_off,,,,,8,0,1,,,,0,56,64
184742,note_off,,,,,86,0,1,,,,0,92,64
184756,note_off,,,,,14,0,1,,,,0,80,64
184852,note_on,,,,,96,0,1,,,,0,92,62
184856,note_on,,,,,4,0,1,,,,0,80,51
185000,note_off,,,,,144,0,1,,,,0,92,64
185002,note_on,,,,,2,0,1,,,,0,59,44
185002,note_on,,,,,0,0,1,,,,0,56,45
185004,note_on,,,,,2,0,1,,,,0,65,49
185012,note_off,,,,,8,0,1,,,,0,80,64
185148,note_on,,,,,136,0,1,,,,0,79,53
185150,note_on,,,,,2,0,1,,,,0,91,55
185200,note_off,,,,,50,0,1,,,,0,79,64
185208,note_off,,,,,8,0,1,,,,0,91,64
185224,note_off,,,,,16,0,1,,,,0,65,64
185232,note_off,,,,,8,0,1,,,,0,56,64
185234,note_off,,,,,2,0,1,,,,0,59,64
185292,note_on,,,,,58,0,1,,,,0,79,64
185292,note_on,,,,,0,0,1,,,,0,91,60
185420,note_on,,,,,128,0,1,,,,0,56,46
185422,note_off,,,,,0,0,1,,,,0,79,64
185422,note_off,,,,,2,0,1,,,,0,91,64
185422,note_on,,,,,0,0,1,,,,0,65,48
185424,note_on,,,,,2,0,1,,,,0,59,44
185558,note_on,,,,,0,0,1,,,,0,78,52
185558,note_on,,,,,134,0,1,,,,0,90,58
185616,note_off,,,,,58,0,1,,,,0,78,64
185624,note_off,,,,,8,0,1,,,,0,90,64
185640,note_off,,,,,16,0,1,,,,0,56,64
185648,note_off,,,,,8,0,1,,,,0,65,64
185650,note_off,,,,,2,0,1,,,,0,59,64
185708,note_on,,,,,58,0,1,,,,0,90,62
185712,note_on,,,,,4,0,1,,,,0,78,56
185856,note_on,,,,,0,0,1,,,,0,56,44
185856,note_on,,,,,0,0,1,,,,0,65,44
185856,note_off,,,,,144,0,1,,,,0,90,64
185860,note_on,,,,,4,0,1,,,,0,59,46
185866,note_off,,,,,6,0,1,,,,0,78,64
186014,note_on,,,,,148,0,1,,,,0,89,50
186016,note_on,,,,,2,0,1,,,,0,77,50
186072,note_off,,,,,56,0,1,,,,0,77,64
186080,note_off,,,,,8,0,1,,,,0,89,64
186148,note_off,,,,,68,0,1,,,,0,59,64
186154,note_off,,,,,6,0,1,,,,0,56,64
186156,note_off,,,,,2,0,1,,,,0,65,64
186172,note_on,,,,,16,0,1,,,,0,89,56
186176,note_on,,,,,4,0,1,,,,0,77,53
186292,note_off,,,,,116,0,1,,,,0,89,64
186322,note_off,,,,,30,0,1,,,,0,77,64
186328,note_on,,,,,6,0,1,,,,0,56,38
186334,note_on,,,,,6,0,1,,,,0,59,39
186336,note_on,,,,,2,0,1,,,,0,65,33
186494,note_on,,,,,158,0,1,,,,0,88,47
186496,note_on,,,,,2,0,1,,,,0,76,45
186558,note_off,,,,,62,0,1,,,,0,76,64
186570,note_off,,,,,12,0,1,,,,0,88,64
186612,note_off,,,,,42,0,1,,,,0,56,64
186622,note_off,,,,,0,0,1,,,,0,59,64
186622,note_off,,,,,10,0,1,,,,0,65,64
186676,note_on,,,,,54,0,1,,,,0,88,49
186682,note_on,,,,,6,0,1,,,,0,76,42
186836,note_off,,,,,154,0,1,,,,0,76,64
186850,note_off,,,,,14,0,1,,,,0,88,64
186850,note_on,,,,,0,0,1,,,,0,56,33
186852,note_on,,,,,2,0,1,,,,0,65,32
186860,note_on,,,,,8,0,1,,,,0,59,41
187064,note_on,,,,,204,0,1,,,,0,87,52
187066,note_on,,,,,2,0,1,,,,0,75,44
187164,note_off,,,,,98,0,1,,,,0,87,64
187174,note_off,,,,,10,0,1,,,,0,75,64
187294,note_on,,,,,120,0,1,,,,0,87,54
187296,note_on,,,,,2,0,1,,,,0,75,42
187454,note_off,,,,,158,0,1,,,,0,65,64
187470,note_off,,,,,16,0,1,,,,0,87,64
187472,note_off,,,,,2,0,1,,,,0,59,64
187484,note_off,,,,,12,0,1,,,,0,75,64
187486,note_off,,,,,2,0,1,,,,0,56,64
187974,note_on,,,,,488,0,1,,,,0,86,45
187978,note_on,,,,,4,0,1,,,,0,74,32
188168,note_off,,,,,190,0,1,,,,0,74,64
188170,note_off,,,,,2,0,1,,,,0,86,64
188886,control_change,,,,,716,0,1,,64,0,0,,
188986,note_on,,,,,100,0,1,,,,0,86,60
188992,note_on,,,,,6,0,1,,,,0,74,43
189008,control_change,,,,,16,0,1,,64,127,0,,
189088,note_off,,,,,80,0,1,,,,0,86,64
189098,note_off,,,,,10,0,1,,,,0,74,64
189188,control_change,,,,,90,0,1,,64,0,0,,
189200,note_on,,,,,12,0,1,,,,0,40,53
189228,note_on,,,,,28,0,1,,,,0,74,57
189228,note_on,,,,,0,0,1,,,,0,86,60
189228,control_change,,,,,0,0,1,,64,127,0,,
189266,note_off,,,,,38,0,1,,,,0,40,64
189348,note_off,,,,,82,0,1,,,,0,74,64
189390,note_off,,,,,42,0,1,,,,0,86,64
189500,note_on,,,,,110,0,1,,,,0,59,48
189506,note_on,,,,,6,0,1,,,,0,68,35
189510,note_on,,,,,4,0,1,,,,0,62,46
189608,set_tempo,,,,,12884,1,0,454545,,,,,
189616,set_tempo,,,,,8,1,0,458015,,,,,
189624,set_tempo,,,,,8,1,0,461538,,,,,
189720,note_on,,,,,210,0,1,,,,0,97,58
189722,note_on,,,,,2,0,1,,,,0,85,51
189756,note_off,,,,,34,0,1,,,,0,59,64
189770,note_off,,,,,14,0,1,,,,0,62,64
189780,note_off,,,,,10,0,1,,,,0,68,64
189824,note_off,,,,,44,0,1,,,,0,85,64
189824,note_off,,,,,0,0,1,,,,0,97,64
189916,note_on,,,,,92,0,1,,,,0,97,65
189922,note_on,,,,,6,0,1,,,,0,85,52
190022,note_off,,,,,100,0,1,,,,0,97,64
190046,note_off,,,,,24,0,1,,,,0,85,64
190060,note_on,,,,,14,0,1,,,,0,68,25
190062,note_on,,,,,2,0,1,,,,0,62,48
190070,note_on,,,,,8,0,1,,,,0,59,35
190208,note_on,,,,,138,0,1,,,,0,83,52
190212,note_on,,,,,4,0,1,,,,0,95,58
190250,note_off,,,,,0,0,1,,,,0,83,64
190250,note_off,,,,,38,0,1,,,,0,95,64
190294,note_off,,,,,44,0,1,,,,0,59,64
190298,note_off,,,,,4,0,1,,,,0,62,64
190304,note_off,,,,,6,0,1,,,,0,68,64
190356,note_on,,,,,0,0,1,,,,0,95,52
190356,note_on,,,,,52,0,1,,,,0,83,55
190454,note_off,,,,,98,0,1,,,,0,95,64
190472,note_off,,,,,18,0,1,,,,0,83,64
190486,note_on,,,,,14,0,1,,,,0,68,28
190494,note_on,,,,,8,0,1,,,,0,59,35
190496,note_on,,,,,2,0,1,,,,0,62,44
190620,note_on,,,,,0,0,1,,,,0,81,42
190620,note_on,,,,,124,0,1,,,,0,93,54
190644,note_off,,,,,24,0,1,,,,0,62,64
190652,note_off,,,,,8,0,1,,,,0,59,64
190660,note_off,,,,,8,0,1,,,,0,68,64
190672,note_off,,,,,12,0,1,,,,0,81,64
190674,note_off,,,,,2,0,1,,,,0,93,64
190764,note_on,,,,,90,0,1,,,,0,93,57
190764,note_on,,,,,0,0,1,,,,0,81,49
190868,note_off,,,,,104,0,1,,,,0,93,64
190872,note_off,,,,,4,0,1,,,,0,81,64
190898,note_on,,,,,26,0,1,,,,0,68,46
190904,note_on,,,,,6,0,1,,,,0,62,49
190912,note_on,,,,,8,0,1,,,,0,59,41
190926,note_off,,,,,14,0,1,,,,0,62,64
190928,note_off,,,,,2,0,1,,,,0,59,64
190932,note_off,,,,,4,0,1,,,,0,68,64
191004,set_tempo,,,,,1380,1,0,465116,,,,,
191008,set_tempo,,,,,4,1,0,526316,,,,,
191012,set_tempo,,,,,4,1,0,606061,,,,,
191038,note_on,,,,,0,0,1,,,,0,92,52
191038,note_on,,,,,106,0,1,,,,0,80,46
191080,note_off,,,,,42,0,1,,,,0,92,64
191082,note_off,,,,,2,0,1,,,,0,80,64
191104,set_tempo,,,,,92,1,0,555556,,,,,
191108,set_tempo,,,,,4,1,0,508475,,,,,
191112,set_tempo,,,,,4,1,0,468750,,,,,
191162,control_change,,,,,80,0,1,,64,0,0,,
191168,note_on,,,,,6,0,1,,,,0,40,58
191188,note_off,,,,,20,0,1,,,,0,40,64
191188,note_on,,,,,0,0,1,,,,0,92,62
191192,note_on,,,,,4,0,1,,,,0,80,55
191196,control_change,,,,,4,0,1,,64,127,0,,
191300,note_off,,,,,104,0,1,,,,0,92,64
191312,note_off,,,,,12,0,1,,,,0,80,64
191360,note_on,,,,,48,0,1,,,,0,61,33
191364,note_on,,,,,4,0,1,,,,0,69,42
191368,note_on,,,,,4,0,1,,,,0,64,46
191396,note_off,,,,,28,0,1,,,,0,64,64
191404,note_off,,,,,8,0,1,,,,0,69,64
191412,note_off,,,,,8,0,1,,,,0,61,64
191500,note_on,,,,,88,0,1,,,,0,90,46
191504,note_on,,,,,4,0,1,,,,0,78,51
191552,note_off,,,,,0,0,1,,,,0,90,64
191552,note_off,,,,,48,0,1,,,,0,78,64
191650,note_on,,,,,98,0,1,,,,0,90,54
191656,note_on,,,,,6,0,1,,,,0,78,44
191790,note_on,,,,,0,0,1,,,,0,61,37
191790,note_on,,,,,134,0,1,,,,0,64,40
191794,note_on,,,,,4,0,1,,,,0,69,40
191820,note_off,,,,,26,0,1,,,,0,90,64
191832,note_off,,,,,12,0,1,,,,0,78,64
191946,note_on,,,,,114,0,1,,,,0,88,52
191948,note_on,,,,,2,0,1,,,,0,76,49
191984,note_off,,,,,36,0,1,,,,0,76,64
191994,note_off,,,,,0,0,1,,,,0,69,64
191994,note_off,,,,,10,0,1,,,,0,88,64
191998,note_off,,,,,0,0,1,,,,0,64,64
191998,note_off,,,,,4,0,1,,,,0,61,64
192090,note_on,,,,,92,0,1,,,,0,88,56
192096,note_on,,,,,6,0,1,,,,0,76,35
192148,note_off,,,,,0,0,1,,,,0,88,64
192148,note_off,,,,,52,0,1,,,,0,76,64
192232,note_on,,,,,84,0,1,,,,0,61,31
192236,note_on,,,,,4,0,1,,,,0,64,35
192240,note_on,,,,,4,0,1,,,,0,69,32
192384,note_on,,,,,144,0,1,,,,0,85,45
192388,note_on,,,,,4,0,1,,,,0,73,35
192412,note_off,,,,,24,0,1,,,,0,69,64
192428,note_off,,,,,16,0,1,,,,0,61,64
192436,note_off,,,,,0,0,1,,,,0,85,64
192436,note_off,,,,,8,0,1,,,,0,73,64
192436,note_off,,,,,0,0,1,,,,0,64,64
192540,note_on,,,,,104,0,1,,,,0,85,57
192540,note_on,,,,,0,0,1,,,,0,73,44
192590,note_off,,,,,50,0,1,,,,0,85,64
192600,note_off,,,,,10,0,1,,,,0,73,64
192692,note_on,,,,,92,0,1,,,,0,64,55
192694,note_on,,,,,2,0,1,,,,0,61,52
192720,note_off,,,,,26,0,1,,,,0,64,64
192726,note_off,,,,,6,0,1,,,,0,61,64
192858,note_on,,,,,132,0,1,,,,0,81,59
192864,note_on,,,,,6,0,1,,,,0,69,52
192894,note_off,,,,,30,0,1,,,,0,69,64
192898,note_off,,,,,4,0,1,,,,0,81,64
193022,note_on,,,,,124,0,1,,,,0,40,56
193034,control_change,,,,,12,0,1,,64,0,0,,
193036,note_on,,,,,2,0,1,,,,0,69,59
193036,note_on,,,,,0,0,1,,,,0,81,66
193074,control_change,,,,,38,0,1,,64,127,0,,
193078,note_off,,,,,4,0,1,,,,0,40,64
193174,note_off,,,,,96,0,1,,,,0,81,64
193174,note_off,,,,,0,0,1,,,,0,69,64
193198,note_on,,,,,24,0,1,,,,0,62,51
193200,note_on,,,,,2,0,1,,,,0,59,46
193232,note_off,,,,,0,0,1,,,,0,62,64
193232,note_off,,,,,32,0,1,,,,0,59,64
193346,note_on,,,,,114,0,1,,,,0,80,67
193348,note_on,,,,,2,0,1,,,,0,68,62
193388,note_off,,,,,40,0,1,,,,0,68,64
193392,note_off,,,,,4,0,1,,,,0,80,64
193484,note_on,,,,,92,0,1,,,,0,41,73
193494,control_change,,,,,10,0,1,,64,0,0,,
193510,note_on,,,,,16,0,1,,,,0,80,69
193512,note_on,,,,,2,0,1,,,,0,68,61
193528,control_change,,,,,16,0,1,,64,127,0,,
193540,note_off,,,,,12,0,1,,,,0,41,64
193666,note_on,,,,,126,0,1,,,,0,62,57
193670,note_on,,,,,4,0,1,,,,0,59,60
193694,note_off,,,,,24,0,1,,,,0,59,64
193696,note_off,,,,,2,0,1,,,,0,62,64
193700,note_off,,,,,4,0,1,,,,0,80,64
193708,note_off,,,,,8,0,1,,,,0,68,64
193822,note_on,,,,,114,0,1,,,,0,79,69
193824,note_on,,,,,2,0,1,,,,0,67,56
193856,note_off,,,,,32,0,1,,,,0,67,64
193874,note_off,,,,,18,0,1,,,,0,79,64
193976,note_on,,,,,102,0,1,,,,0,42,72
193992,note_on,,,,,16,0,1,,,,0,79,70
193994,control_change,,,,,2,0,1,,64,0,0,,
193996,note_on,,,,,2,0,1,,,,0,67,59
194026,control_change,,,,,30,0,1,,64,127,0,,
194032,note_off,,,,,6,0,1,,,,0,42,64
194134,note_off,,,,,102,0,1,,,,0,67,64
194150,note_off,,,,,16,0,1,,,,0,79,64
194168,note_on,,,,,18,0,1,,,,0,59,65
194168,note_on,,,,,0,0,1,,,,0,62,49
194200,note_off,,,,,32,0,1,,,,0,62,64
194200,note_off,,,,,0,0,1,,,,0,59,64
194338,note_on,,,,,138,0,1,,,,0,78,71
194338,note_on,,,,,0,0,1,,,,0,66,64
194386,note_off,,,,,48,0,1,,,,0,66,64
194392,note_off,,,,,6,0,1,,,,0,78,64
194516,note_on,,,,,124,0,1,,,,0,43,75
194528,note_on,,,,,12,0,1,,,,0,78,69
194528,note_on,,,,,0,0,1,,,,0,66,67
194534,control_change,,,,,6,0,1,,64,0,0,,
194574,control_change,,,,,40,0,1,,64,127,0,,
194604,note_off,,,,,30,0,1,,,,0,43,64
194734,note_off,,,,,130,0,1,,,,0,78,64
194736,note_on,,,,,2,0,1,,,,0,59,62
194738,note_on,,,,,2,0,1,,,,0,62,41
194740,note_off,,,,,2,0,1,,,,0,66,64
194772,note_off,,,,,32,0,1,,,,0,62,64
194774,note_off,,,,,2,0,1,,,,0,59,64
194946,note_on,,,,,0,0,1,,,,0,65,61
194946,note_on,,,,,172,0,1,,,,0,77,67
195034,note_off,,,,,88,0,1,,,,0,65,64
195040,note_off,,,,,6,0,1,,,,0,77,64
195186,note_on,,,,,146,0,1,,,,0,44,58
195204,note_on,,,,,18,0,1,,,,0,77,68
195208,note_on,,,,,4,0,1,,,,0,65,61
195230,control_change,,,,,22,0,1,,64,0,0,,
195296,control_change,,,,,66,0,1,,64,127,0,,
195308,note_off,,,,,12,0,1,,,,0,44,64
195514,note_on,,,,,206,0,1,,,,0,53,57
195516,note_on,,,,,2,0,1,,,,0,59,58
195516,note_on,,,,,0,0,1,,,,0,61,36
195522,note_off,,,,,6,0,1,,,,0,65,64
195552,note_off,,,,,30,0,1,,,,0,77,64
195718,note_on,,,,,166,0,1,,,,0,87,74
195722,note_on,,,,,4,0,1,,,,0,75,63
195770,note_off,,,,,48,0,1,,,,0,87,64
195774,note_off,,,,,4,0,1,,,,0,75,64
195830,note_off,,,,,56,0,1,,,,0,53,64
195844,note_off,,,,,14,0,1,,,,0,59,64
195862,note_off,,,,,18,0,1,,,,0,61,64
195888,note_on,,,,,26,0,1,,,,0,87,71
195888,note_on,,,,,0,0,1,,,,0,75,60
196038,note_on,,,,,150,0,1,,,,0,61,52
196044,note_on,,,,,6,0,1,,,,0,53,59
196046,note_on,,,,,2,0,1,,,,0,59,63
196064,note_off,,,,,18,0,1,,,,0,87,64
196072,note_off,,,,,8,0,1,,,,0,75,64
196092,note_off,,,,,20,0,1,,,,0,59,64
196094,note_off,,,,,2,0,1,,,,0,61,64
196116,note_off,,,,,22,0,1,,,,0,53,64
196184,note_on,,,,,68,0,1,,,,0,87,79
196186,note_on,,,,,2,0,1,,,,0,75,65
196230,note_off,,,,,44,0,1,,,,0,87,64
196248,note_off,,,,,18,0,1,,,,0,75,64
196344,note_on,,,,,96,0,1,,,,0,46,72
196352,note_on,,,,,8,0,1,,,,0,87,82
196354,control_change,,,,,2,0,1,,64,0,0,,
196356,note_on,,,,,2,0,1,,,,0,75,69
196402,control_change,,,,,46,0,1,,64,127,0,,
196412,note_off,,,,,10,0,1,,,,0,46,64
196532,note_on,,,,,0,0,1,,,,0,61,58
196532,note_on,,,,,120,0,1,,,,0,64,66
196546,note_on,,,,,14,0,1,,,,0,55,51
196568,note_off,,,,,22,0,1,,,,0,64,64
196570,note_off,,,,,2,0,1,,,,0,55,64
196580,note_off,,,,,10,0,1,,,,0,61,64
196584,note_off,,,,,4,0,1,,,,0,87,64
196590,note_off,,,,,6,0,1,,,,0,75,64
196712,note_on,,,,,122,0,1,,,,0,87,76
196712,note_on,,,,,0,0,1,,,,0,75,66
196760,note_off,,,,,48,0,1,,,,0,75,64
196770,note_off,,,,,10,0,1,,,,0,87,64
196900,note_on,,,,,130,0,1,,,,0,87,72
196902,note_on,,,,,2,0,1,,,,0,75,64
197080,note_on,,,,,178,0,1,,,,0,61,55
197084,note_on,,,,,4,0,1,,,,0,64,44
197092,note_on,,,,,8,0,1,,,,0,55,47
197102,note_off,,,,,10,0,1,,,,0,87,64
197106,note_off,,,,,4,0,1,,,,0,75,64
197196,note_off,,,,,90,0,1,,,,0,64,64
197212,note_off,,,,,16,0,1,,,,0,61,64
197222,note_off,,,,,10,0,1,,,,0,55,64
197316,note_on,,,,,94,0,1,,,,0,87,72
197320,note_on,,,,,4,0,1,,,,0,75,61
197406,note_off,,,,,86,0,1,,,,0,75,64
197410,note_off,,,,,4,0,1,,,,0,87,64
197598,note_on,,,,,188,0,1,,,,0,87,71
197600,note_on,,,,,2,0,1,,,,0,75,54
197604,note_on,,,,,4,0,1,,,,0,47,62
197628,control_change,,,,,24,0,1,,64,0,0,,
197700,control_change,,,,,72,0,1,,64,127,0,,
197740,note_off,,,,,40,0,1,,,,0,47,64
198052,note_on,,,,,312,0,1,,,,0,61,54
198056,note_on,,,,,4,0,1,,,,0,56,60
198064,note_on,,,,,8,0,1,,,,0,65,30
198072,note_off,,,,,8,0,1,,,,0,56,64
198078,note_off,,,,,6,0,1,,,,0,65,64
198080,note_off,,,,,2,0,1,,,,0,61,64
198124,note_on,,,,,44,0,1,,,,0,61,45
198128,note_on,,,,,4,0,1,,,,0,56,57
198130,note_on,,,,,2,0,1,,,,0,65,51
198748,note_off,,,,,618,0,1,,,,0,65,64
198754,note_off,,,,,6,0,1,,,,0,87,64
198774,note_off,,,,,20,0,1,,,,0,75,64
198786,note_off,,,,,12,0,1,,,,0,61,64
198792,note_off,,,,,6,0,1,,,,0,56,64
199050,note_on,,,,,258,0,1,,,,0,85,55
199054,note_on,,,,,4,0,1,,,,0,73,42
199136,note_off,,,,,82,0,1,,,,0,85,64
199166,note_off,,,,,30,0,1,,,,0,73,64
199304,note_on,,,,,138,0,1,,,,0,83,59
199310,note_on,,,,,6,0,1,,,,0,71,45
199396,note_off,,,,,86,0,1,,,,0,83,64
199406,note_off,,,,,10,0,1,,,,0,71,64
199506,note_on,,,,,100,0,1,,,,0,82,64
199508,note_on,,,,,2,0,1,,,,0,70,47
199582,note_off,,,,,74,0,1,,,,0,82,64
199590,note_off,,,,,8,0,1,,,,0,70,64
199684,note_on,,,,,94,0,1,,,,0,80,65
199686,note_on,,,,,2,0,1,,,,0,68,63
199752,note_off,,,,,66,0,1,,,,0,80,64
199764,note_off,,,,,12,0,1,,,,0,68,64
199856,note_on,,,,,92,0,1,,,,0,78,60
199858,note_on,,,,,2,0,1,,,,0,66,61
199924,note_off,,,,,66,0,1,,,,0,78,64
199948,note_off,,,,,24,0,1,,,,0,66,64
200044,note_on,,,,,96,0,1,,,,0,47,60
200058,control_change,,,,,14,0,1,,64,0,0,,
200072,note_on,,,,,0,0,1,,,,0,77,69
200072,note_on,,,,,14,0,1,,,,0,65,62
200112,control_change,,,,,40,0,1,,64,127,0,,
200148,note_off,,,,,36,0,1,,,,0,47,64
200190,note_off,,,,,42,0,1,,,,0,65,64
200228,note_off,,,,,38,0,1,,,,0,77,64
200312,note_on,,,,,84,0,1,,,,0,56,43
200316,note_on,,,,,4,0,1,,,,0,65,57
200316,note_on,,,,,0,0,1,,,,0,61,60
200432,note_off,,,,,116,0,1,,,,0,65,64
200448,note_off,,,,,16,0,1,,,,0,56,64
200452,note_off,,,,,4,0,1,,,,0,61,64
200488,note_on,,,,,36,0,1,,,,0,87,67
200492,note_on,,,,,4,0,1,,,,0,75,57
200546,note_off,,,,,0,0,1,,,,0,87,64
200546,note_off,,,,,54,0,1,,,,0,75,64
200644,note_on,,,,,98,0,1,,,,0,87,80
200646,note_on,,,,,2,0,1,,,,0,75,70
200784,note_off,,,,,138,0,1,,,,0,87,64
200790,note_on,,,,,6,0,1,,,,0,61,58
200792,note_on,,,,,0,0,1,,,,0,56,57
200792,note_on,,,,,2,0,1,,,,0,65,48
200804,note_off,,,,,12,0,1,,,,0,75,64
200824,note_off,,,,,20,0,1,,,,0,65,64
200832,note_off,,,,,8,0,1,,,,0,61,64
200838,note_off,,,,,6,0,1,,,,0,56,64
200940,set_tempo,,,,,9828,1,0,476190,,,,,
200944,note_on,,,,,106,0,1,,,,0,87,79
200944,set_tempo,,,,,4,1,0,487805,,,,,
200948,note_on,,,,,4,0,1,,,,0,75,66
200948,set_tempo,,,,,4,1,0,500000,,,,,
200952,set_tempo,,,,,4,1,0,512821,,,,,
200990,note_off,,,,,42,0,1,,,,0,75,64
200992,note_off,,,,,2,0,1,,,,0,87,64
201096,note_on,,,,,104,0,1,,,,0,40,69
201100,control_change,,,,,4,0,1,,64,0,0,,
201116,note_on,,,,,16,0,1,,,,0,87,76
201120,note_on,,,,,4,0,1,,,,0,75,69
201140,control_change,,,,,20,0,1,,64,127,0,,
201158,note_off,,,,,18,0,1,,,,0,40,64
201304,note_on,,,,,146,0,1,,,,0,67,53
201306,note_on,,,,,2,0,1,,,,0,61,58
201308,note_on,,,,,2,0,1,,,,0,58,64
201324,note_off,,,,,16,0,1,,,,0,87,64
201336,note_off,,,,,12,0,1,,,,0,75,64
201440,set_tempo,,,,,488,1,0,517241,,,,,
201444,set_tempo,,,,,4,1,0,508475,,,,,
201448,set_tempo,,,,,4,1,0,500000,,,,,
201452,set_tempo,,,,,4,1,0,487805,,,,,
201456,set_tempo,,,,,4,1,0,480000,,,,,
201460,set_tempo,,,,,4,1,0,468750,,,,,
201470,note_on,,,,,134,0,1,,,,0,73,57
201472,note_on,,,,,2,0,1,,,,0,85,69
201484,note_off,,,,,12,0,1,,,,0,67,64
201502,note_off,,,,,18,0,1,,,,0,61,64
201504,note_off,,,,,2,0,1,,,,0,58,64
201546,note_off,,,,,42,0,1,,,,0,73,64
201648,note_off,,,,,102,0,1,,,,0,85,64
201662,note_on,,,,,14,0,1,,,,0,87,72
201664,note_on,,,,,2,0,1,,,,0,75,66
201760,note_off,,,,,96,0,1,,,,0,87,64
201774,note_off,,,,,14,0,1,,,,0,75,64
201848,note_on,,,,,74,0,1,,,,0,58,69
201848,note_on,,,,,0,0,1,,,,0,61,65
201850,note_on,,,,,2,0,1,,,,0,67,61
201992,note_off,,,,,142,0,1,,,,0,67,64
202020,note_off,,,,,28,0,1,,,,0,61,64
202024,note_off,,,,,4,0,1,,,,0,58,64
202076,note_on,,,,,0,0,1,,,,0,73,66
202076,note_on,,,,,52,0,1,,,,0,85,78
202134,note_off,,,,,58,0,1,,,,0,73,64
202182,note_off,,,,,48,0,1,,,,0,85,64
202372,note_on,,,,,190,0,1,,,,0,82,69
202372,note_on,,,,,0,0,1,,,,0,94,81
202376,note_on,,,,,4,0,1,,,,0,41,68
202402,control_change,,,,,26,0,1,,64,0,0,,
202468,control_change,,,,,66,0,1,,64,127,0,,
202532,note_off,,,,,64,0,1,,,,0,41,64
202836,note_on,,,,,304,0,1,,,,0,68,48
202844,note_on,,,,,8,0,1,,,,0,59,43
202846,note_on,,,,,2,0,1,,,,0,61,34
202860,note_off,,,,,14,0,1,,,,0,59,64
202864,note_off,,,,,4,0,1,,,,0,61,64
202866,note_off,,,,,2,0,1,,,,0,68,64
202904,note_on,,,,,38,0,1,,,,0,68,45
202906,note_on,,,,,2,0,1,,,,0,61,48
202912,note_on,,,,,6,0,1,,,,0,59,43
203492,note_off,,,,,580,0,1,,,,0,94,64
203550,note_off,,,,,58,0,1,,,,0,82,64
203768,note_on,,,,,218,0,1,,,,0,92,53
203772,note_on,,,,,4,0,1,,,,0,80,46
203868,note_off,,,,,96,0,1,,,,0,92,64
203880,note_off,,,,,12,0,1,,,,0,80,64
204012,note_on,,,,,132,0,1,,,,0,90,60
204016,note_on,,,,,4,0,1,,,,0,78,47
204092,note_off,,,,,76,0,1,,,,0,90,64
204118,note_off,,,,,26,0,1,,,,0,78,64
204200,set_tempo,,,,,2740,1,0,465116,,,,,
204204,set_tempo,,,,,4,1,0,461538,,,,,
204208,set_tempo,,,,,4,1,0,454545,,,,,
204212,set_tempo,,,,,4,1,0,447761,,,,,
204216,set_tempo,,,,,4,1,0,444444,,,,,
204220,set_tempo,,,,,4,1,0,441176,,,,,
204232,note_on,,,,,114,0,1,,,,0,89,62
204236,note_on,,,,,4,0,1,,,,0,77,55
204256,set_tempo,,,,,36,1,0,434783,,,,,
204288,set_tempo,,,,,32,1,0,431655,,,,,
204298,note_off,,,,,62,0,1,,,,0,89,64
204316,note_off,,,,,18,0,1,,,,0,77,64
204324,set_tempo,,,,,36,1,0,428571,,,,,
204324,note_off,,,,,8,0,1,,,,0,68,64
204352,note_off,,,,,28,0,1,,,,0,59,64
204356,set_tempo,,,,,32,1,0,425532,,,,,
204372,note_off,,,,,20,0,1,,,,0,61,64
204388,set_tempo,,,,,32,1,0,422535,,,,,
204424,set_tempo,,,,,36,1,0,419580,,,,,
204456,set_tempo,,,,,32,1,0,416667,,,,,
204482,note_on,,,,,110,0,1,,,,0,84,57
204484,note_on,,,,,2,0,1,,,,0,72,46
204500,set_tempo,,,,,44,1,0,410959,,,,,
204540,set_tempo,,,,,40,1,0,413793,,,,,
204552,set_tempo,,,,,12,1,0,416667,,,,,
204568,note_off,,,,,84,0,1,,,,0,72,64
204574,note_off,,,,,6,0,1,,,,0,84,64
204580,set_tempo,,,,,28,1,0,419580,,,,,
204596,set_tempo,,,,,16,1,0,422535,,,,,
204608,set_tempo,,,,,12,1,0,425532,,,,,
204620,set_tempo,,,,,12,1,0,428571,,,,,
204636,set_tempo,,,,,16,1,0,431655,,,,,
204648,set_tempo,,,,,12,1,0,434783,,,,,
204664,set_tempo,,,,,16,1,0,441176,,,,,
204676,set_tempo,,,,,12,1,0,444444,,,,,
204704,set_tempo,,,,,28,1,0,447761,,,,,
204716,set_tempo,,,,,12,1,0,451128,,,,,
204732,set_tempo,,,,,16,1,0,454545,,,,,
204744,set_tempo,,,,,12,1,0,458015,,,,,
204760,set_tempo,,,,,16,1,0,461538,,,,,
204760,note_on,,,,,186,0,1,,,,0,73,53
204762,note_on,,,,,2,0,1,,,,0,85,53
204772,set_tempo,,,,,12,1,0,465116,,,,,
204784,set_tempo,,,,,12,1,0,468750,,,,,
204800,set_tempo,,,,,16,1,0,476190,,,,,
204824,note_off,,,,,62,0,1,,,,0,73,64
204828,set_tempo,,,,,28,1,0,480000,,,,,
204840,set_tempo,,,,,12,1,0,483871,,,,,
204842,note_off,,,,,18,0,1,,,,0,85,64
204852,set_tempo,,,,,12,1,0,487805,,,,,
204868,set_tempo,,,,,16,1,0,491803,,,,,
204880,set_tempo,,,,,12,1,0,495868,,,,,
204894,note_on,,,,,52,0,1,,,,0,75,53
204896,set_tempo,,,,,16,1,0,500000,,,,,
204908,set_tempo,,,,,12,1,0,504202,,,,,
204924,set_tempo,,,,,16,1,0,508475,,,,,
204936,set_tempo,,,,,12,1,0,512821,,,,,
204948,set_tempo,,,,,12,1,0,517241,,,,,
204964,set_tempo,,,,,16,1,0,521739,,,,,
204976,set_tempo,,,,,12,1,0,526316,,,,,
204992,set_tempo,,,,,16,1,0,530973,,,,,
204992,note_on,,,,,98,0,1,,,,0,37,57
205004,set_tempo,,,,,12,1,0,535714,,,,,
205016,set_tempo,,,,,12,1,0,540541,,,,,
205024,set_tempo,,,,,8,1,0,535714,,,,,
205032,set_tempo,,,,,8,1,0,530973,,,,,
205034,note_on,,,,,42,0,1,,,,0,87,72
205040,set_tempo,,,,,8,1,0,526316,,,,,
205042,control_change,,,,,8,0,1,,64,0,0,,
205048,set_tempo,,,,,8,1,0,521739,,,,,
205056,set_tempo,,,,,8,1,0,517241,,,,,
205064,set_tempo,,,,,8,1,0,512821,,,,,
205072,set_tempo,,,,,8,1,0,508475,,,,,
205080,set_tempo,,,,,8,1,0,504202,,,,,
205088,set_tempo,,,,,8,1,0,500000,,,,,
205096,set_tempo,,,,,8,1,0,495868,,,,,
205104,set_tempo,,,,,8,1,0,491803,,,,,
205112,set_tempo,,,,,8,1,0,487805,,,,,
205120,set_tempo,,,,,8,1,0,483871,,,,,
205120,control_change,,,,,78,0,1,,64,127,0,,
205122,note_off,,,,,2,0,1,,,,0,37,64
205128,set_tempo,,,,,8,1,0,480000,,,,,
205136,set_tempo,,,,,8,1,0,476190,,,,,
205152,set_tempo,,,,,16,1,0,468750,,,,,
205156,set_tempo,,,,,4,1,0,465116,,,,,
205548,note_on,,,,,426,0,1,,,,0,61,53
205552,note_on,,,,,0,0,1,,,,0,53,42
205552,note_on,,,,,4,0,1,,,,0,68,52
205554,note_on,,,,,2,0,1,,,,0,59,57
205574,note_off,,,,,20,0,1,,,,0,53,64
205576,note_off,,,,,0,0,1,,,,0,68,64
205576,note_off,,,,,2,0,1,,,,0,59,64
205580,note_off,,,,,4,0,1,,,,0,61,64
205616,note_on,,,,,36,0,1,,,,0,68,51
205622,note_on,,,,,0,0,1,,,,0,53,59
205622,note_on,,,,,6,0,1,,,,0,61,42
205632,note_on,,,,,10,0,1,,,,0,59,50
206188,note_off,,,,,556,0,1,,,,0,68,64
206268,note_off,,,,,80,0,1,,,,0,87,64
206284,note_off,,,,,16,0,1,,,,0,75,64
206378,note_off,,,,,94,0,1,,,,0,53,64
206478,note_off,,,,,100,0,1,,,,0,61,64
206498,note_off,,,,,20,0,1,,,,0,59,64
206712,note_on,,,,,214,0,1,,,,0,85,52
206716,note_on,,,,,4,0,1,,,,0,73,46
206818,note_off,,,,,102,0,1,,,,0,85,64
206850,note_off,,,,,32,0,1,,,,0,73,64
207022,note_on,,,,,172,0,1,,,,0,83,55
207032,note_on,,,,,10,0,1,,,,0,71,44
207098,note_off,,,,,66,0,1,,,,0,83,64
207108,note_off,,,,,10,0,1,,,,0,71,64
207350,note_on,,,,,242,0,1,,,,0,79,49
207356,note_on,,,,,6,0,1,,,,0,67,25
207494,note_off,,,,,138,0,1,,,,0,67,64
207500,note_off,,,,,6,0,1,,,,0,79,64
207732,note_on,,,,,232,0,1,,,,0,80,56
207736,note_on,,,,,4,0,1,,,,0,68,35
207870,note_off,,,,,134,0,1,,,,0,80,64
207900,note_off,,,,,30,0,1,,,,0,68,64
208186,note_on,,,,,286,0,1,,,,0,81,48
208188,note_on,,,,,2,0,1,,,,0,69,41
208276,note_off,,,,,88,0,1,,,,0,81,64
208294,note_off,,,,,18,0,1,,,,0,69,64
208320,set_tempo,,,,,3164,1,0,461538,,,,,
208320,control_change,,,,,26,0,1,,67,0,0,,
208328,set_tempo,,,,,8,1,0,465116,,,,,
208332,set_tempo,,,,,4,1,0,468750,,,,,
208392,note_on,,,,,72,0,1,,,,0,42,38
208476,note_on,,,,,84,0,1,,,,0,49,47
208600,note_on,,,,,124,0,1,,,,0,54,37
208664,note_on,,,,,64,0,1,,,,0,70,65
208672,note_on,,,,,8,0,1,,,,0,58,54
208728,control_change,,,,,56,0,1,,64,0,0,,
208912,note_on,,,,,184,0,1,,,,0,61,30
208938,control_change,,,,,26,0,1,,64,127,0,,
209060,note_off,,,,,122,0,1,,,,0,54,64
209074,note_on,,,,,14,0,1,,,,0,66,47
209088,note_off,,,,,14,0,1,,,,0,61,64
209094,note_off,,,,,6,0,1,,,,0,58,64
209142,note_off,,,,,48,0,1,,,,0,49,64
209168,note_off,,,,,26,0,1,,,,0,42,64
209204,note_on,,,,,36,0,1,,,,0,61,28
209234,note_off,,,,,30,0,1,,,,0,66,64
209310,note_off,,,,,76,0,1,,,,0,70,64
209332,note_on,,,,,22,0,1,,,,0,58,43
209414,note_off,,,,,82,0,1,,,,0,58,64
209420,note_off,,,,,6,0,1,,,,0,61,64
209442,note_on,,,,,22,0,1,,,,0,66,37
209472,note_off,,,,,30,0,1,,,,0,66,64
209496,note_on,,,,,24,0,1,,,,0,40,50
209544,note_on,,,,,48,0,1,,,,0,47,45
209596,note_on,,,,,52,0,1,,,,0,71,61
209600,note_on,,,,,4,0,1,,,,0,59,58
209602,control_change,,,,,2,0,1,,64,0,0,,
209606,note_on,,,,,4,0,1,,,,0,52,52
209642,control_change,,,,,36,0,1,,64,127,0,,
209654,note_off,,,,,12,0,1,,,,0,40,64
209664,note_off,,,,,10,0,1,,,,0,47,64
209680,note_on,,,,,16,0,1,,,,0,56,55
209706,note_off,,,,,26,0,1,,,,0,52,64
209710,note_off,,,,,4,0,1,,,,0,56,64
209732,note_on,,,,,22,0,1,,,,0,64,55
209852,note_on,,,,,120,0,1,,,,0,68,63
209854,note_off,,,,,2,0,1,,,,0,64,64
209862,note_off,,,,,8,0,1,,,,0,59,64
209988,note_on,,,,,126,0,1,,,,0,64,51
210090,note_off,,,,,102,0,1,,,,0,68,64
210092,note_off,,,,,2,0,1,,,,0,64,64
210104,note_on,,,,,12,0,1,,,,0,59,46
210224,note_on,,,,,120,0,1,,,,0,68,52
210250,note_off,,,,,26,0,1,,,,0,59,64
210348,note_on,,,,,98,0,1,,,,0,64,50
210440,note_off,,,,,92,0,1,,,,0,68,64
210454,note_off,,,,,14,0,1,,,,0,64,64
210474,note_on,,,,,20,0,1,,,,0,59,31
210600,note_on,,,,,126,0,1,,,,0,64,45
210710,note_off,,,,,110,0,1,,,,0,64,64
210716,note_off,,,,,6,0,1,,,,0,59,64
210718,note_on,,,,,2,0,1,,,,0,68,49
210844,note_on,,,,,126,0,1,,,,0,64,58
210896,note_off,,,,,52,0,1,,,,0,71,64
210972,note_on,,,,,76,0,1,,,,0,42,51
210974,note_on,,,,,2,0,1,,,,0,59,41
210992,note_off,,,,,18,0,1,,,,0,68,64
211000,note_off,,,,,0,0,1,,,,0,64,64
211000,note_off,,,,,8,0,1,,,,0,59,64
211024,note_on,,,,,24,0,1,,,,0,49,44
211080,note_on,,,,,56,0,1,,,,0,54,53
211110,note_on,,,,,30,0,1,,,,0,70,65
211114,note_on,,,,,4,0,1,,,,0,58,57
211134,control_change,,,,,20,0,1,,64,0,0,,
211244,note_on,,,,,110,0,1,,,,0,61,52
211282,control_change,,,,,38,0,1,,64,127,0,,
211360,note_off,,,,,78,0,1,,,,0,58,64
211368,note_on,,,,,8,0,1,,,,0,66,60
211376,note_off,,,,,8,0,1,,,,0,61,64
211376,note_off,,,,,0,0,1,,,,0,54,64
211436,note_off,,,,,60,0,1,,,,0,49,64
211444,note_off,,,,,8,0,1,,,,0,42,64
211486,note_on,,,,,42,0,1,,,,0,61,52
211602,note_on,,,,,116,0,1,,,,0,58,60
211612,note_off,,,,,10,0,1,,,,0,61,64
211640,note_off,,,,,28,0,1,,,,0,70,64
211720,note_on,,,,,80,0,1,,,,0,61,53
211730,note_off,,,,,10,0,1,,,,0,58,64
211740,note_off,,,,,10,0,1,,,,0,66,64
211750,note_on,,,,,10,0,1,,,,0,37,55
211772,note_off,,,,,22,0,1,,,,0,61,64
211794,note_on,,,,,22,0,1,,,,0,44,61
211836,control_change,,,,,42,0,1,,64,0,0,,
211838,note_on,,,,,2,0,1,,,,0,68,72
211842,note_on,,,,,4,0,1,,,,0,56,63
211856,note_on,,,,,14,0,1,,,,0,49,57
211892,control_change,,,,,36,0,1,,64,127,0,,
211914,note_off,,,,,22,0,1,,,,0,37,64
211920,note_on,,,,,6,0,1,,,,0,54,67
211924,note_off,,,,,4,0,1,,,,0,44,64
211942,note_off,,,,,18,0,1,,,,0,49,64
211950,note_off,,,,,8,0,1,,,,0,54,64
211968,note_on,,,,,18,0,1,,,,0,61,52
212100,note_on,,,,,132,0,1,,,,0,66,63
212102,note_off,,,,,2,0,1,,,,0,56,64
212104,note_off,,,,,2,0,1,,,,0,61,64
212216,note_on,,,,,112,0,1,,,,0,61,56
212230,note_off,,,,,14,0,1,,,,0,66,64
212340,note_on,,,,,110,0,1,,,,0,56,57
212342,note_off,,,,,2,0,1,,,,0,61,64
212464,note_on,,,,,122,0,1,,,,0,66,64
212488,note_off,,,,,24,0,1,,,,0,56,64
212580,note_on,,,,,92,0,1,,,,0,61,63
212694,note_off,,,,,114,0,1,,,,0,61,64
212696,note_on,,,,,2,0,1,,,,0,56,51
212796,note_off,,,,,100,0,1,,,,0,66,64
212824,note_on,,,,,28,0,1,,,,0,61,62
212900,note_on,,,,,76,0,1,,,,0,53,68
212946,control_change,,,,,46,0,1,,64,0,0,,
212948,note_on,,,,,2,0,1,,,,0,65,72
212966,note_off,,,,,18,0,1,,,,0,61,64
212978,note_off,,,,,12,0,1,,,,0,56,64
213004,control_change,,,,,26,0,1,,64,127,0,,
213060,note_off,,,,,56,0,1,,,,0,53,64
213076,note_on,,,,,16,0,1,,,,0,61,66
213186,note_on,,,,,110,0,1,,,,0,56,67
213200,note_off,,,,,14,0,1,,,,0,68,64
213228,note_on,,,,,28,0,1,,,,0,39,56
213248,note_off,,,,,20,0,1,,,,0,65,64
213256,note_on,,,,,8,0,1,,,,0,46,56
213260,note_off,,,,,4,0,1,,,,0,61,64
213264,note_off,,,,,4,0,1,,,,0,56,64
213334,note_on,,,,,70,0,1,,,,0,51,76
213338,note_on,,,,,4,0,1,,,,0,66,72
213344,note_on,,,,,6,0,1,,,,0,54,70
213352,control_change,,,,,8,0,1,,64,0,0,,
213448,control_change,,,,,96,0,1,,64,127,0,,
213480,note_on,,,,,32,0,1,,,,0,58,66
213602,note_on,,,,,122,0,1,,,,0,63,72
213618,note_off,,,,,16,0,1,,,,0,58,64
213626,note_off,,,,,8,0,1,,,,0,54,64
213714,note_on,,,,,88,0,1,,,,0,58,75
213766,note_off,,,,,0,0,1,,,,0,46,64
213766,note_off,,,,,52,0,1,,,,0,51,64
213822,note_on,,,,,56,0,1,,,,0,54,70
213828,note_off,,,,,6,0,1,,,,0,39,64
213848,note_off,,,,,20,0,1,,,,0,58,64
213936,note_on,,,,,88,0,1,,,,0,58,74
213952,note_off,,,,,16,0,1,,,,0,66,64
213960,note_off,,,,,8,0,1,,,,0,63,64
213966,note_off,,,,,6,0,1,,,,0,54,64
214012,note_off,,,,,46,0,1,,,,0,58,64
214056,note_on,,,,,0,0,1,,,,0,41,77
214056,note_on,,,,,44,0,1,,,,0,45,74
214062,note_on,,,,,6,0,1,,,,0,65,78
214064,note_on,,,,,2,0,1,,,,0,53,81
214090,control_change,,,,,26,0,1,,64,0,0,,
214176,control_change,,,,,86,0,1,,64,127,0,,
214202,note_on,,,,,26,0,1,,,,0,57,75
214300,note_off,,,,,98,0,1,,,,0,45,64
214302,note_off,,,,,2,0,1,,,,0,41,64
214334,note_on,,,,,32,0,1,,,,0,60,72
214362,note_off,,,,,28,0,1,,,,0,57,64
214370,note_off,,,,,8,0,1,,,,0,53,64
214464,note_on,,,,,94,0,1,,,,0,57,70
214568,note_off,,,,,104,0,1,,,,0,60,64
214572,set_tempo,,,,,6240,1,0,454545,,,,,
214576,set_tempo,,,,,4,1,0,461538,,,,,
214580,set_tempo,,,,,4,1,0,476190,,,,,
214584,set_tempo,,,,,4,1,0,483871,,,,,
214588,set_tempo,,,,,4,1,0,495868,,,,,
214592,set_tempo,,,,,4,1,0,508475,,,,,
214596,note_on,,,,,28,0,1,,,,0,53,74
214596,set_tempo,,,,,4,1,0,521739,,,,,
214600,set_tempo,,,,,4,1,0,535714,,,,,
214604,set_tempo,,,,,4,1,0,550459,,,,,
214608,set_tempo,,,,,4,1,0,566038,,,,,
214612,set_tempo,,,,,4,1,0,582524,,,,,
214616,set_tempo,,,,,4,1,0,600000,,,,,
214620,set_tempo,,,,,4,1,0,618557,,,,,
214650,note_off,,,,,54,0,1,,,,0,53,64
214658,note_off,,,,,8,0,1,,,,0,57,64
214664,note_off,,,,,6,0,1,,,,0,65,64
214680,note_on,,,,,16,0,1,,,,0,51,86
214758,note_on,,,,,0,0,1,,,,0,34,90
214758,note_off,,,,,78,0,1,,,,0,51,64
214792,set_tempo,,,,,172,1,0,606061,,,,,
214812,control_change,,,,,54,0,1,,64,0,0,,
214820,set_tempo,,,,,28,1,0,600000,,,,,
214828,set_tempo,,,,,8,1,0,594059,,,,,
214840,set_tempo,,,,,12,1,0,588235,,,,,
214844,control_change,,,,,32,0,1,,64,127,0,,
214848,set_tempo,,,,,8,1,0,582524,,,,,
214856,set_tempo,,,,,8,1,0,576923,,,,,
214858,note_on,,,,,14,0,1,,,,0,50,92
214868,set_tempo,,,,,12,1,0,571429,,,,,
214874,control_change,,,,,16,0,1,,64,0,0,,
214876,set_tempo,,,,,8,1,0,566038,,,,,
214884,set_tempo,,,,,8,1,0,560748,,,,,
214896,set_tempo,,,,,12,1,0,555556,,,,,
214900,control_change,,,,,26,0,1,,64,127,0,,
214904,set_tempo,,,,,8,1,0,550459,,,,,
214912,set_tempo,,,,,8,1,0,545455,,,,,
214924,set_tempo,,,,,12,1,0,540541,,,,,
214932,set_tempo,,,,,8,1,0,535714,,,,,
214940,set_tempo,,,,,8,1,0,530973,,,,,
214948,set_tempo,,,,,8,1,0,526316,,,,,
214960,set_tempo,,,,,12,1,0,521739,,,,,
214968,set_tempo,,,,,8,1,0,517241,,,,,
214976,set_tempo,,,,,8,1,0,512821,,,,,
214980,note_off,,,,,80,0,1,,,,0,50,64
214986,note_on,,,,,6,0,1,,,,0,58,66
214988,note_on,,,,,2,0,1,,,,0,65,71
214988,set_tempo,,,,,12,1,0,508475,,,,,
214996,set_tempo,,,,,8,1,0,504202,,,,,
215004,set_tempo,,,,,8,1,0,500000,,,,,
215004,note_off,,,,,16,0,1,,,,0,34,64
215016,set_tempo,,,,,12,1,0,495868,,,,,
215024,set_tempo,,,,,8,1,0,491803,,,,,
215032,set_tempo,,,,,8,1,0,487805,,,,,
215044,set_tempo,,,,,12,1,0,483871,,,,,
215052,set_tempo,,,,,8,1,0,480000,,,,,
215060,set_tempo,,,,,8,1,0,476190,,,,,
215072,set_tempo,,,,,12,1,0,468750,,,,,
215100,note_on,,,,,96,0,1,,,,0,62,75
215106,note_off,,,,,6,0,1,,,,0,58,64
215116,note_off,,,,,10,0,1,,,,0,65,64
215134,note_off,,,,,18,0,1,,,,0,62,64
215208,note_on,,,,,74,0,1,,,,0,53,89
215280,set_tempo,,,,,208,1,0,465116,,,,,
215302,note_on,,,,,94,0,1,,,,0,62,57
215304,note_on,,,,,2,0,1,,,,0,70,70
215352,set_tempo,,,,,72,1,0,461538,,,,,
215392,note_off,,,,,88,0,1,,,,0,62,64
215416,note_on,,,,,24,0,1,,,,0,65,71
215424,set_tempo,,,,,72,1,0,458015,,,,,
215436,note_off,,,,,20,0,1,,,,0,70,64
215458,note_off,,,,,22,0,1,,,,0,65,64
215496,set_tempo,,,,,72,1,0,454545,,,,,
215528,note_on,,,,,70,0,1,,,,0,58,89
215568,set_tempo,,,,,72,1,0,451128,,,,,
215588,note_off,,,,,60,0,1,,,,0,53,64
215616,note_off,,,,,28,0,1,,,,0,58,64
215636,set_tempo,,,,,68,1,0,447761,,,,,
215640,note_on,,,,,24,0,1,,,,0,74,72
215642,note_on,,,,,2,0,1,,,,0,65,66
215708,set_tempo,,,,,72,1,0,444444,,,,,
215760,note_on,,,,,118,0,1,,,,0,70,74
215768,note_off,,,,,8,0,1,,,,0,65,64
215790,note_off,,,,,22,0,1,,,,0,74,64
215804,note_off,,,,,14,0,1,,,,0,70,64
215852,set_tempo,,,,,144,1,0,441176,,,,,
215874,note_on,,,,,70,0,1,,,,0,62,80
215924,set_tempo,,,,,72,1,0,434783,,,,,
215992,set_tempo,,,,,68,1,0,431655,,,,,
215992,note_on,,,,,118,0,1,,,,0,70,66
215996,note_on,,,,,4,0,1,,,,0,77,73
216004,note_off,,,,,8,0,1,,,,0,62,64
216004,set_tempo,,,,,12,1,0,434783,,,,,
216016,set_tempo,,,,,12,1,0,441176,,,,,
216028,set_tempo,,,,,12,1,0,444444,,,,,
216052,set_tempo,,,,,24,1,0,447761,,,,,
216064,set_tempo,,,,,12,1,0,451128,,,,,
216076,set_tempo,,,,,12,1,0,454545,,,,,
216088,set_tempo,,,,,12,1,0,458015,,,,,
216100,set_tempo,,,,,12,1,0,461538,,,,,
216112,set_tempo,,,,,12,1,0,465116,,,,,
216120,set_tempo,,,,,8,1,0,468750,,,,,
216122,note_on,,,,,118,0,1,,,,0,74,61
216148,note_off,,,,,26,0,1,,,,0,77,64
216160,note_on,,,,,0,0,1,,,,0,53,61
216160,note_off,,,,,12,0,1,,,,0,70,64
216184,note_off,,,,,24,0,1,,,,0,74,64
216200,note_on,,,,,16,0,1,,,,0,58,71
216240,note_on,,,,,40,0,1,,,,0,63,45
216286,note_on,,,,,46,0,1,,,,0,67,79
216348,control_change,,,,,62,0,1,,64,0,0,,
216408,control_change,,,,,60,0,1,,64,127,0,,
216426,note_on,,,,,18,0,1,,,,0,79,66
216426,note_on,,,,,0,0,1,,,,0,70,69
216500,note_off,,,,,74,0,1,,,,0,67,64
216538,note_off,,,,,38,0,1,,,,0,53,64
216564,note_on,,,,,0,0,1,,,,0,75,71
216564,note_off,,,,,26,0,1,,,,0,63,64
216580,note_off,,,,,16,0,1,,,,0,70,64
216582,note_off,,,,,2,0,1,,,,0,58,64
216596,note_off,,,,,14,0,1,,,,0,79,64
216700,note_on,,,,,104,0,1,,,,0,70,66
216756,note_off,,,,,56,0,1,,,,0,75,64
216828,note_off,,,,,72,0,1,,,,0,70,64
216848,note_on,,,,,20,0,1,,,,0,63,72
216878,note_off,,,,,30,0,1,,,,0,63,64
217030,note_on,,,,,152,0,1,,,,0,55,70
217130,note_on,,,,,100,0,1,,,,0,41,70
217208,note_on,,,,,78,0,1,,,,0,51,64
217252,note_on,,,,,44,0,1,,,,0,57,75
217266,note_off,,,,,14,0,1,,,,0,55,64
217310,control_change,,,,,44,0,1,,64,0,0,,
217422,control_change,,,,,112,0,1,,64,127,0,,
217432,note_on,,,,,10,0,1,,,,0,58,76
217440,note_off,,,,,8,0,1,,,,0,57,64
217576,note_on,,,,,136,0,1,,,,0,57,85
217588,note_off,,,,,12,0,1,,,,0,58,64
217608,control_change,,,,,20,0,1,,64,0,0,,
217696,note_on,,,,,88,0,1,,,,0,55,64
217716,note_off,,,,,20,0,1,,,,0,57,64
217728,control_change,,,,,12,0,1,,64,127,0,,
217842,note_on,,,,,114,0,1,,,,0,57,75
217856,note_off,,,,,14,0,1,,,,0,55,64
217978,note_off,,,,,122,0,1,,,,0,57,64
218024,note_on,,,,,46,0,1,,,,0,62,69
218050,control_change,,,,,26,0,1,,64,0,0,,
218124,control_change,,,,,74,0,1,,64,127,0,,
218182,note_off,,,,,58,0,1,,,,0,51,64
218200,note_off,,,,,18,0,1,,,,0,41,64
218740,note_on,,,,,540,0,1,,,,0,60,62
218766,note_off,,,,,26,0,1,,,,0,62,64
218910,note_on,,,,,144,0,1,,,,0,58,74
218912,control_change,,,,,2,0,1,,64,0,0,,
218930,note_off,,,,,18,0,1,,,,0,60,64
218986,control_change,,,,,56,0,1,,64,127,0,,
219042,note_off,,,,,56,0,1,,,,0,58,64
219148,note_on,,,,,106,0,1,,,,0,34,52
219238,note_on,,,,,90,0,1,,,,0,50,62
219242,note_on,,,,,4,0,1,,,,0,70,58
219248,note_on,,,,,6,0,1,,,,0,62,55
219266,note_off,,,,,18,0,1,,,,0,34,64
219308,note_off,,,,,42,0,1,,,,0,50,64
219378,note_off,,,,,70,0,1,,,,0,62,64
219384,note_on,,,,,6,0,1,,,,0,65,49
219438,note_off,,,,,54,0,1,,,,0,70,64
219516,note_on,,,,,78,0,1,,,,0,62,61
219522,note_off,,,,,6,0,1,,,,0,65,64
219538,note_off,,,,,16,0,1,,,,0,62,64
219572,note_on,,,,,34,0,1,,,,0,37,55
219658,note_on,,,,,86,0,1,,,,0,70,43
219660,note_on,,,,,2,0,1,,,,0,64,61
219664,note_on,,,,,4,0,1,,,,0,52,49
219688,control_change,,,,,24,0,1,,64,0,0,,
219766,control_change,,,,,78,0,1,,64,127,0,,
219812,note_off,,,,,46,0,1,,,,0,64,64
219824,note_on,,,,,12,0,1,,,,0,67,39
219980,note_on,,,,,156,0,1,,,,0,64,56
220000,note_off,,,,,20,0,1,,,,0,70,64
220134,note_on,,,,,134,0,1,,,,0,58,71
220170,note_off,,,,,36,0,1,,,,0,67,64
220182,note_off,,,,,12,0,1,,,,0,64,64
220220,note_off,,,,,38,0,1,,,,0,58,64
220308,note_on,,,,,88,0,1,,,,0,69,55
220312,note_on,,,,,4,0,1,,,,0,64,52
220320,note_off,,,,,8,0,1,,,,0,37,64
220336,note_off,,,,,16,0,1,,,,0,52,64
220468,note_on,,,,,132,0,1,,,,0,67,56
220546,note_on,,,,,78,0,1,,,,0,57,71
220602,note_on,,,,,56,0,1,,,,0,38,60
220610,note_off,,,,,8,0,1,,,,0,57,64
220620,note_off,,,,,10,0,1,,,,0,64,64
220626,note_off,,,,,6,0,1,,,,0,67,64
220628,note_off,,,,,2,0,1,,,,0,69,64
220746,note_on,,,,,118,0,1,,,,0,54,80
220772,control_change,,,,,26,0,1,,64,0,0,,
220840,control_change,,,,,68,0,1,,64,127,0,,
220884,note_off,,,,,44,0,1,,,,0,38,64
220924,note_on,,,,,40,0,1,,,,0,69,58
220926,note_off,,,,,2,0,1,,,,0,54,64
220940,note_on,,,,,14,0,1,,,,0,62,36
221050,note_off,,,,,110,0,1,,,,0,62,64
221054,note_on,,,,,4,0,1,,,,0,66,62
221076,note_off,,,,,22,0,1,,,,0,69,64
221094,note_off,,,,,18,0,1,,,,0,66,64
221168,note_on,,,,,74,0,1,,,,0,57,82
221282,note_on,,,,,114,0,1,,,,0,74,64
221284,note_on,,,,,2,0,1,,,,0,66,54
221334,note_off,,,,,50,0,1,,,,0,66,64
221392,note_on,,,,,58,0,1,,,,0,69,74
221396,note_off,,,,,4,0,1,,,,0,74,64
221430,note_off,,,,,34,0,1,,,,0,69,64
221492,note_on,,,,,62,0,1,,,,0,62,78
221508,note_off,,,,,16,0,1,,,,0,57,64
221598,note_on,,,,,90,0,1,,,,0,78,71
221602,note_on,,,,,4,0,1,,,,0,69,64
221610,note_off,,,,,8,0,1,,,,0,62,64
221692,note_off,,,,,82,0,1,,,,0,69,64
221718,note_on,,,,,26,0,1,,,,0,74,73
221736,note_off,,,,,18,0,1,,,,0,78,64
221752,note_off,,,,,16,0,1,,,,0,74,64
221834,note_on,,,,,82,0,1,,,,0,66,71
221882,note_off,,,,,48,0,1,,,,0,66,64
221964,note_on,,,,,82,0,1,,,,0,81,69
221968,note_on,,,,,4,0,1,,,,0,74,56
222080,note_on,,,,,112,0,1,,,,0,78,61
222100,note_off,,,,,20,0,1,,,,0,81,64
222102,note_off,,,,,2,0,1,,,,0,74,64
222104,note_on,,,,,2,0,1,,,,0,57,69
222124,note_off,,,,,20,0,1,,,,0,78,64
222144,note_on,,,,,20,0,1,,,,0,62,67
222184,note_on,,,,,40,0,1,,,,0,67,41
222228,note_on,,,,,44,0,1,,,,0,71,77
222296,control_change,,,,,68,0,1,,64,0,0,,
222354,note_on,,,,,58,0,1,,,,0,83,61
222356,control_change,,,,,2,0,1,,64,127,0,,
222360,note_on,,,,,4,0,1,,,,0,74,55
222482,note_off,,,,,122,0,1,,,,0,71,64
222496,note_off,,,,,14,0,1,,,,0,57,64
222502,note_off,,,,,6,0,1,,,,0,83,64
222506,note_off,,,,,4,0,1,,,,0,67,64
222508,note_on,,,,,2,0,1,,,,0,79,54
222516,note_off,,,,,8,0,1,,,,0,74,64
222542,note_off,,,,,26,0,1,,,,0,62,64
222652,note_on,,,,,110,0,1,,,,0,74,54
222668,note_off,,,,,16,0,1,,,,0,79,64
222800,note_on,,,,,132,0,1,,,,0,67,53
222804,note_off,,,,,4,0,1,,,,0,74,64
222836,note_off,,,,,32,0,1,,,,0,67,64
222976,note_on,,,,,140,0,1,,,,0,59,69
223080,note_on,,,,,104,0,1,,,,0,45,72
223136,note_on,,,,,56,0,1,,,,0,55,66
223196,note_on,,,,,60,0,1,,,,0,61,64
223210,note_off,,,,,14,0,1,,,,0,59,64
223364,control_change,,,,,154,0,1,,64,0,0,,
223388,note_on,,,,,24,0,1,,,,0,62,63
223408,note_off,,,,,20,0,1,,,,0,61,64
223542,note_on,,,,,134,0,1,,,,0,61,61
223562,note_off,,,,,20,0,1,,,,0,62,64
223672,note_on,,,,,110,0,1,,,,0,59,58
223674,note_off,,,,,2,0,1,,,,0,61,64
223812,note_on,,,,,138,0,1,,,,0,61,54
223824,note_off,,,,,12,0,1,,,,0,59,64
224008,note_on,,,,,184,0,1,,,,0,66,53
224018,note_off,,,,,10,0,1,,,,0,61,64
224076,note_off,,,,,58,0,1,,,,0,55,64
224276,control_change,,,,,200,0,1,,64,127,0,,
224378,note_off,,,,,102,0,1,,,,0,45,64
224572,note_on,,,,,194,0,1,,,,0,64,55
224596,note_off,,,,,24,0,1,,,,0,66,64
224736,note_off,,,,,140,0,1,,,,0,64,64
224742,note_on,,,,,6,0,1,,,,0,62,61
224752,control_change,,,,,10,0,1,,64,0,0,,
224860,control_change,,,,,108,0,1,,64,127,0,,
224900,note_off,,,,,40,0,1,,,,0,62,64
225058,note_on,,,,,158,0,1,,,,0,38,32
225058,note_on,,,,,0,0,1,,,,0,54,51
225120,note_off,,,,,62,0,1,,,,0,54,64
225130,note_off,,,,,10,0,1,,,,0,38,64
225180,note_on,,,,,50,0,1,,,,0,66,38
225194,note_on,,,,,14,0,1,,,,0,74,43
225212,note_off,,,,,18,0,1,,,,0,66,64
225294,note_off,,,,,82,0,1,,,,0,74,64
225306,note_on,,,,,12,0,1,,,,0,78,47
225320,note_on,,,,,14,0,1,,,,0,69,27
225336,note_off,,,,,16,0,1,,,,0,69,64
225358,note_off,,,,,22,0,1,,,,0,78,64
225434,note_on,,,,,76,0,1,,,,0,36,59
225456,control_change,,,,,22,0,1,,64,0,0,,
225496,control_change,,,,,40,0,1,,64,127,0,,
225520,note_off,,,,,24,0,1,,,,0,36,64
225578,note_on,,,,,58,0,1,,,,0,81,54
225586,note_on,,,,,8,0,1,,,,0,74,43
225684,note_off,,,,,98,0,1,,,,0,74,64
225726,note_on,,,,,42,0,1,,,,0,78,30
225730,note_on,,,,,4,0,1,,,,0,86,19
225760,note_off,,,,,30,0,1,,,,0,81,64
225772,note_on,,,,,12,0,1,,,,0,54,58
225794,note_off,,,,,22,0,1,,,,0,86,64
225800,note_on,,,,,6,0,1,,,,0,57,47
225848,note_off,,,,,48,0,1,,,,0,78,64
225876,note_on,,,,,28,0,1,,,,0,63,80
226036,note_off,,,,,160,0,1,,,,0,63,64
226042,note_on,,,,,6,0,1,,,,0,87,60
226042,note_on,,,,,0,0,1,,,,0,78,47
226192,note_off,,,,,150,0,1,,,,0,87,64
226220,note_on,,,,,28,0,1,,,,0,75,55
226222,note_off,,,,,2,0,1,,,,0,78,64
226222,note_on,,,,,0,0,1,,,,0,81,46
226242,note_off,,,,,20,0,1,,,,0,81,64
226264,note_off,,,,,22,0,1,,,,0,75,64
226292,note_on,,,,,28,0,1,,,,0,62,76
226332,note_off,,,,,40,0,1,,,,0,62,64
226340,note_off,,,,,8,0,1,,,,0,54,64
226344,note_off,,,,,4,0,1,,,,0,57,64
226418,note_on,,,,,74,0,1,,,,0,62,85
226500,control_change,,,,,82,0,1,,64,0,0,,
226574,control_change,,,,,74,0,1,,64,127,0,,
226642,note_off,,,,,68,0,1,,,,0,62,64
226766,note_on,,,,,0,0,1,,,,0,38,38
226766,note_on,,,,,124,0,1,,,,0,54,49
226854,note_off,,,,,88,0,1,,,,0,54,64
226888,note_off,,,,,34,0,1,,,,0,38,64
226900,note_on,,,,,12,0,1,,,,0,74,53
226904,note_on,,,,,4,0,1,,,,0,66,29
226952,note_off,,,,,48,0,1,,,,0,66,64
226982,note_off,,,,,30,0,1,,,,0,74,64
227018,note_on,,,,,36,0,1,,,,0,78,55
227020,note_on,,,,,2,0,1,,,,0,69,46
227060,note_off,,,,,40,0,1,,,,0,69,64
227074,note_off,,,,,14,0,1,,,,0,78,64
227156,note_on,,,,,82,0,1,,,,0,36,66
227180,control_change,,,,,24,0,1,,64,0,0,,
227218,control_change,,,,,38,0,1,,64,127,0,,
227238,note_off,,,,,20,0,1,,,,0,36,64
227320,note_on,,,,,82,0,1,,,,0,81,59
227322,note_on,,,,,2,0,1,,,,0,74,50
227462,note_on,,,,,140,0,1,,,,0,86,44
227466,note_on,,,,,4,0,1,,,,0,78,61
227470,note_off,,,,,4,0,1,,,,0,74,64
227502,note_off,,,,,32,0,1,,,,0,81,64
227520,note_on,,,,,18,0,1,,,,0,54,57
227536,note_off,,,,,16,0,1,,,,0,86,64
227558,note_on,,,,,22,0,1,,,,0,57,46
227560,note_off,,,,,2,0,1,,,,0,78,64
227630,note_on,,,,,70,0,1,,,,0,63,82
227810,note_off,,,,,180,0,1,,,,0,63,64
227810,note_on,,,,,0,0,1,,,,0,87,62
227816,note_on,,,,,6,0,1,,,,0,78,55
227928,note_off,,,,,112,0,1,,,,0,87,64
227996,note_on,,,,,68,0,1,,,,0,81,62
227998,note_on,,,,,2,0,1,,,,0,75,61
228012,note_off,,,,,14,0,1,,,,0,78,64
228036,note_off,,,,,24,0,1,,,,0,81,64
228048,note_off,,,,,12,0,1,,,,0,54,64
228050,note_off,,,,,2,0,1,,,,0,75,64
228052,note_on,,,,,2,0,1,,,,0,62,73
228068,note_off,,,,,16,0,1,,,,0,57,64
228070,note_off,,,,,2,0,1,,,,0,62,64
228130,note_on,,,,,60,0,1,,,,0,46,66
228182,control_change,,,,,52,0,1,,64,127,0,,
228196,note_on,,,,,14,0,1,,,,0,55,58
228220,note_off,,,,,24,0,1,,,,0,46,64
228324,note_on,,,,,104,0,1,,,,0,62,91
228586,note_off,,,,,262,0,1,,,,0,55,64
228592,note_on,,,,,0,0,1,,,,0,86,68
228592,note_on,,,,,6,0,1,,,,0,94,69
228600,note_off,,,,,8,0,1,,,,0,62,64
228758,note_off,,,,,158,0,1,,,,0,94,64
228806,note_on,,,,,48,0,1,,,,0,82,62
228808,note_on,,,,,2,0,1,,,,0,91,61
228828,note_off,,,,,20,0,1,,,,0,86,64
228876,note_off,,,,,48,0,1,,,,0,91,64
228896,note_off,,,,,20,0,1,,,,0,82,64
228902,note_on,,,,,6,0,1,,,,0,70,73
228976,note_off,,,,,74,0,1,,,,0,70,64
229024,note_on,,,,,48,0,1,,,,0,70,87
229194,note_on,,,,,170,0,1,,,,0,82,53
229196,note_on,,,,,2,0,1,,,,0,91,50
229336,note_off,,,,,140,0,1,,,,0,91,64
229364,note_on,,,,,28,0,1,,,,0,86,64
229372,note_on,,,,,8,0,1,,,,0,79,49
229396,note_off,,,,,24,0,1,,,,0,82,64
229444,note_on,,,,,48,0,1,,,,0,69,81
229446,note_off,,,,,2,0,1,,,,0,86,64
229458,note_off,,,,,12,0,1,,,,0,70,64
229464,note_off,,,,,6,0,1,,,,0,79,64
229484,note_off,,,,,20,0,1,,,,0,69,64
229536,note_on,,,,,52,0,1,,,,0,69,74
229722,note_on,,,,,186,0,1,,,,0,86,60
229726,note_on,,,,,4,0,1,,,,0,79,58
229898,note_on,,,,,172,0,1,,,,0,82,60
229906,note_on,,,,,8,0,1,,,,0,74,46
229932,note_off,,,,,26,0,1,,,,0,79,64
229998,note_on,,,,,66,0,1,,,,0,68,78
230016,note_off,,,,,18,0,1,,,,0,69,64
230058,note_off,,,,,42,0,1,,,,0,68,64
230112,note_off,,,,,54,0,1,,,,0,86,64
230112,note_on,,,,,0,0,1,,,,0,68,72
230250,note_off,,,,,138,0,1,,,,0,74,64
230258,note_off,,,,,8,0,1,,,,0,82,64
230304,note_off,,,,,46,0,1,,,,0,68,64
230556,note_on,,,,,252,0,1,,,,0,67,72
230600,note_on,,,,,44,0,1,,,,0,48,61
230636,note_off,,,,,36,0,1,,,,0,67,64
230648,note_on,,,,,12,0,1,,,,0,55,45
230680,note_on,,,,,32,0,1,,,,0,57,44
230712,note_on,,,,,32,0,1,,,,0,63,65
230742,note_on,,,,,30,0,1,,,,0,67,73
230758,control_change,,,,,16,0,1,,64,0,0,,
230824,control_change,,,,,66,0,1,,64,127,0,,
230874,note_off,,,,,50,0,1,,,,0,67,64
230874,note_off,,,,,0,0,1,,,,0,48,64
230882,note_off,,,,,8,0,1,,,,0,63,64
230908,note_off,,,,,26,0,1,,,,0,57,64
230918,note_off,,,,,10,0,1,,,,0,55,64
230964,note_on,,,,,46,0,1,,,,0,91,53
230972,note_on,,,,,8,0,1,,,,0,84,51
231148,note_on,,,,,0,0,1,,,,0,87,61
231148,note_off,,,,,176,0,1,,,,0,84,64
231150,note_on,,,,,2,0,1,,,,0,79,34
231174,note_off,,,,,24,0,1,,,,0,91,64
231240,note_on,,,,,66,0,1,,,,0,66,66
231304,note_off,,,,,64,0,1,,,,0,66,64
231364,note_off,,,,,60,0,1,,,,0,79,64
231366,note_off,,,,,2,0,1,,,,0,87,64
231368,note_on,,,,,2,0,1,,,,0,66,72
231556,note_on,,,,,188,0,1,,,,0,87,52
231558,note_on,,,,,2,0,1,,,,0,79,48
231752,note_on,,,,,0,0,1,,,,0,84,50
231752,note_on,,,,,194,0,1,,,,0,75,42
231758,note_off,,,,,6,0,1,,,,0,87,64
231844,note_off,,,,,86,0,1,,,,0,75,64
231846,note_off,,,,,2,0,1,,,,0,84,64
231848,note_off,,,,,2,0,1,,,,0,79,64
231852,note_on,,,,,0,0,1,,,,0,65,59
231852,note_off,,,,,4,0,1,,,,0,66,64
231894,note_off,,,,,42,0,1,,,,0,65,64
231976,note_on,,,,,82,0,1,,,,0,65,72
232162,note_on,,,,,186,0,1,,,,0,84,49
232172,note_on,,,,,10,0,1,,,,0,75,33
232330,note_off,,,,,158,0,1,,,,0,84,64
232392,note_off,,,,,62,0,1,,,,0,75,64
232408,note_on,,,,,16,0,1,,,,0,72,49
232414,note_on,,,,,6,0,1,,,,0,79,33
232422,note_off,,,,,8,0,1,,,,0,72,64
232452,note_off,,,,,30,0,1,,,,0,79,64
232462,note_off,,,,,10,0,1,,,,0,65,64
232510,note_on,,,,,48,0,1,,,,0,64,60
232556,note_off,,,,,46,0,1,,,,0,64,64
232632,note_on,,,,,76,0,1,,,,0,64,66
232840,note_off,,,,,208,0,1,,,,0,64,64
233100,note_on,,,,,260,0,1,,,,0,63,63
233160,note_on,,,,,0,0,1,,,,0,50,62
233160,note_off,,,,,60,0,1,,,,0,63,64
233192,note_on,,,,,32,0,1,,,,0,55,54
233248,note_on,,,,,56,0,1,,,,0,58,61
233290,note_on,,,,,42,0,1,,,,0,63,79
233316,control_change,,,,,26,0,1,,64,0,0,,
233384,control_change,,,,,68,0,1,,64,127,0,,
233468,note_off,,,,,84,0,1,,,,0,50,64
233496,note_on,,,,,28,0,1,,,,0,82,60
233506,note_off,,,,,10,0,1,,,,0,55,64
233514,note_on,,,,,8,0,1,,,,0,74,41
233524,note_off,,,,,10,0,1,,,,0,63,64
233534,note_off,,,,,10,0,1,,,,0,58,64
233662,note_off,,,,,128,0,1,,,,0,82,64
233688,note_on,,,,,26,0,1,,,,0,70,51
233690,note_on,,,,,2,0,1,,,,0,79,58
233716,note_off,,,,,26,0,1,,,,0,74,64
233744,note_off,,,,,28,0,1,,,,0,79,64
233752,note_off,,,,,8,0,1,,,,0,70,64
233782,note_on,,,,,30,0,1,,,,0,62,65
233822,note_off,,,,,40,0,1,,,,0,62,64
233894,note_on,,,,,72,0,1,,,,0,62,77
234070,note_off,,,,,176,0,1,,,,0,62,64
234092,note_on,,,,,22,0,1,,,,0,70,54
234092,note_on,,,,,0,0,1,,,,0,79,51
234292,note_on,,,,,200,0,1,,,,0,67,46
234294,note_on,,,,,2,0,1,,,,0,74,52
234306,note_off,,,,,12,0,1,,,,0,70,64
234372,note_on,,,,,66,0,1,,,,0,58,71
234410,note_off,,,,,38,0,1,,,,0,58,64
234456,note_on,,,,,46,0,1,,,,0,48,66
234504,note_on,,,,,48,0,1,,,,0,54,56
234546,note_off,,,,,42,0,1,,,,0,79,64
234558,note_on,,,,,12,0,1,,,,0,58,81
234610,note_off,,,,,52,0,1,,,,0,74,64
234616,control_change,,,,,6,0,1,,64,0,0,,
234628,note_off,,,,,12,0,1,,,,0,67,64
234684,control_change,,,,,56,0,1,,64,127,0,,
234796,note_on,,,,,112,0,1,,,,0,74,52
234802,note_on,,,,,6,0,1,,,,0,66,52
234848,note_off,,,,,46,0,1,,,,0,58,64
234996,note_on,,,,,148,0,1,,,,0,62,39
234998,note_on,,,,,2,0,1,,,,0,69,48
235000,note_off,,,,,2,0,1,,,,0,66,64
235096,note_on,,,,,96,0,1,,,,0,57,70
235172,note_off,,,,,76,0,1,,,,0,57,64
235252,note_on,,,,,80,0,1,,,,0,58,72
235320,control_change,,,,,68,0,1,,64,0,0,,
235390,control_change,,,,,70,0,1,,64,127,0,,
235470,note_off,,,,,80,0,1,,,,0,62,64
235534,note_off,,,,,64,0,1,,,,0,48,64
235564,note_off,,,,,30,0,1,,,,0,58,64
235610,note_off,,,,,46,0,1,,,,0,54,64
235754,note_on,,,,,144,0,1,,,,0,60,56
235808,note_off,,,,,54,0,1,,,,0,60,64
235828,note_on,,,,,20,0,1,,,,0,47,63
235864,note_on,,,,,36,0,1,,,,0,53,56
235924,note_on,,,,,60,0,1,,,,0,56,63
235928,note_off,,,,,4,0,1,,,,0,69,64
235934,control_change,,,,,6,0,1,,64,0,0,,
235940,note_on,,,,,6,0,1,,,,0,62,76
235994,control_change,,,,,54,0,1,,64,127,0,,
236008,note_off,,,,,14,0,1,,,,0,56,64
236010,note_off,,,,,2,0,1,,,,0,74,64
236030,note_off,,,,,20,0,1,,,,0,53,64
236036,note_off,,,,,6,0,1,,,,0,47,64
236050,note_off,,,,,14,0,1,,,,0,62,64
236238,note_on,,,,,188,0,1,,,,0,35,73
236272,control_change,,,,,34,0,1,,64,0,0,,
236342,control_change,,,,,70,0,1,,64,127,0,,
236348,note_on,,,,,6,0,1,,,,0,74,60
236352,note_on,,,,,4,0,1,,,,0,65,53
236394,note_off,,,,,42,0,1,,,,0,65,64
236444,note_off,,,,,50,0,1,,,,0,35,64
236456,note_on,,,,,12,0,1,,,,0,68,75
236464,note_on,,,,,8,0,1,,,,0,77,52
236480,note_off,,,,,16,0,1,,,,0,74,64
236484,note_off,,,,,4,0,1,,,,0,68,64
236510,note_off,,,,,26,0,1,,,,0,77,64
236576,note_on,,,,,66,0,1,,,,0,36,75
236598,control_change,,,,,22,0,1,,64,0,0,,
236636,control_change,,,,,38,0,1,,64,127,0,,
236652,note_off,,,,,16,0,1,,,,0,36,64
236704,note_on,,,,,52,0,1,,,,0,81,65
236712,note_on,,,,,8,0,1,,,,0,74,33
236824,note_on,,,,,112,0,1,,,,0,86,59
236832,note_on,,,,,8,0,1,,,,0,78,57
236852,note_off,,,,,20,0,1,,,,0,74,64
236874,note_off,,,,,22,0,1,,,,0,81,64
236888,note_on,,,,,14,0,1,,,,0,54,65
236898,note_off,,,,,10,0,1,,,,0,86,64
236906,note_on,,,,,8,0,1,,,,0,57,64
236946,note_off,,,,,40,0,1,,,,0,78,64
236974,note_on,,,,,28,0,1,,,,0,63,85
237122,note_off,,,,,148,0,1,,,,0,63,64
237138,note_on,,,,,16,0,1,,,,0,87,63
237140,note_on,,,,,2,0,1,,,,0,78,58
237288,note_off,,,,,148,0,1,,,,0,87,64
237308,note_on,,,,,20,0,1,,,,0,81,59
237312,note_on,,,,,4,0,1,,,,0,75,67
237326,note_off,,,,,14,0,1,,,,0,78,64
237350,note_off,,,,,24,0,1,,,,0,81,64
237364,note_off,,,,,14,0,1,,,,0,75,64
237388,note_on,,,,,24,0,1,,,,0,62,77
237400,note_off,,,,,12,0,1,,,,0,54,64
237414,note_off,,,,,14,0,1,,,,0,57,64
237416,note_off,,,,,2,0,1,,,,0,62,64
237536,note_on,,,,,120,0,1,,,,0,62,90
237540,note_on,,,,,4,0,1,,,,0,56,69
237544,note_on,,,,,4,0,1,,,,0,47,69
237546,note_on,,,,,2,0,1,,,,0,53,62
237560,control_change,,,,,14,0,1,,64,0,0,,
237622,control_change,,,,,62,0,1,,64,127,0,,
237632,note_off,,,,,10,0,1,,,,0,56,64
237640,note_off,,,,,8,0,1,,,,0,53,64
237664,note_off,,,,,24,0,1,,,,0,47,64
237760,note_off,,,,,96,0,1,,,,0,62,64
237848,note_on,,,,,88,0,1,,,,0,35,75
237874,control_change,,,,,26,0,1,,64,0,0,,
237940,control_change,,,,,66,0,1,,64,127,0,,
237968,note_on,,,,,28,0,1,,,,0,74,66
237976,note_on,,,,,8,0,1,,,,0,65,46
238026,note_off,,,,,50,0,1,,,,0,35,64
238028,note_off,,,,,2,0,1,,,,0,65,64
238084,note_on,,,,,0,0,1,,,,0,77,61
238084,note_on,,,,,56,0,1,,,,0,68,65
238114,note_off,,,,,30,0,1,,,,0,74,64
238118,note_off,,,,,4,0,1,,,,0,68,64
238142,note_off,,,,,24,0,1,,,,0,77,64
238220,note_on,,,,,78,0,1,,,,0,36,72
238246,control_change,,,,,26,0,1,,64,0,0,,
238286,control_change,,,,,40,0,1,,64,127,0,,
238342,note_off,,,,,56,0,1,,,,0,36,64
238368,set_tempo,,,,,22248,1,0,465116,,,,,
238370,note_on,,,,,28,0,1,,,,0,81,62
238372,set_tempo,,,,,4,1,0,447761,,,,,
238372,note_on,,,,,2,0,1,,,,0,74,57
238376,set_tempo,,,,,4,1,0,431655,,,,,
238472,note_off,,,,,100,0,1,,,,0,74,64
238510,note_on,,,,,38,0,1,,,,0,86,62
238514,note_on,,,,,4,0,1,,,,0,78,66
238560,note_off,,,,,46,0,1,,,,0,81,64
238560,set_tempo,,,,,184,1,0,434783,,,,,
238564,set_tempo,,,,,4,1,0,444444,,,,,
238566,note_on,,,,,6,0,1,,,,0,54,64
238568,set_tempo,,,,,4,1,0,454545,,,,,
238572,set_tempo,,,,,4,1,0,468750,,,,,
238584,note_off,,,,,18,0,1,,,,0,86,64
238588,note_on,,,,,4,0,1,,,,0,57,63
238670,note_on,,,,,82,0,1,,,,0,63,83
238700,note_off,,,,,30,0,1,,,,0,78,64
238848,note_off,,,,,148,0,1,,,,0,63,64
238856,note_on,,,,,8,0,1,,,,0,87,70
238858,note_on,,,,,2,0,1,,,,0,78,61
239038,note_off,,,,,180,0,1,,,,0,87,64
239048,note_on,,,,,10,0,1,,,,0,81,67
239052,note_on,,,,,4,0,1,,,,0,75,61
239068,note_off,,,,,16,0,1,,,,0,78,64
239082,note_off,,,,,14,0,1,,,,0,54,64
239106,note_on,,,,,24,0,1,,,,0,62,66
239116,note_off,,,,,10,0,1,,,,0,57,64
239138,note_off,,,,,22,0,1,,,,0,62,64
239180,note_on,,,,,42,0,1,,,,0,46,81
239262,control_change,,,,,82,0,1,,64,0,0,,
239288,note_on,,,,,26,0,1,,,,0,55,76
239296,control_change,,,,,8,0,1,,64,127,0,,
239332,note_off,,,,,36,0,1,,,,0,46,64
239350,note_off,,,,,18,0,1,,,,0,75,64
239360,note_off,,,,,10,0,1,,,,0,81,64
239480,note_on,,,,,120,0,1,,,,0,62,97
239590,note_off,,,,,110,0,1,,,,0,55,64
239620,note_off,,,,,30,0,1,,,,0,62,64
239694,note_on,,,,,0,0,1,,,,0,91,76
239694,note_on,,,,,74,0,1,,,,0,98,82
239882,note_on,,,,,188,0,1,,,,0,94,83
239884,note_on,,,,,2,0,1,,,,0,86,67
239906,note_off,,,,,22,0,1,,,,0,98,64
239918,note_off,,,,,12,0,1,,,,0,91,64
239972,note_on,,,,,54,0,1,,,,0,74,82
239984,note_off,,,,,12,0,1,,,,0,94,64
240000,note_off,,,,,16,0,1,,,,0,86,64
240026,note_off,,,,,26,0,1,,,,0,74,64
240076,note_on,,,,,50,0,1,,,,0,74,88
240240,note_on,,,,,164,0,1,,,,0,94,79
240244,note_on,,,,,4,0,1,,,,0,86,74
240390,note_on,,,,,146,0,1,,,,0,82,72
240392,note_off,,,,,2,0,1,,,,0,94,64
240392,note_on,,,,,0,0,1,,,,0,91,66
240416,note_off,,,,,24,0,1,,,,0,86,64
240448,note_off,,,,,32,0,1,,,,0,91,64
240458,note_off,,,,,10,0,1,,,,0,82,64
240484,note_on,,,,,26,0,1,,,,0,73,87
240500,note_off,,,,,16,0,1,,,,0,74,64
240534,note_off,,,,,34,0,1,,,,0,73,64
240586,note_on,,,,,52,0,1,,,,0,73,86
240750,note_on,,,,,164,0,1,,,,0,82,54
240754,note_on,,,,,4,0,1,,,,0,91,59
240922,note_on,,,,,0,0,1,,,,0,86,67
240922,note_on,,,,,168,0,1,,,,0,79,64
240950,note_off,,,,,28,0,1,,,,0,91,64
240952,note_off,,,,,2,0,1,,,,0,82,64
241018,note_on,,,,,66,0,1,,,,0,72,77
241024,note_off,,,,,6,0,1,,,,0,73,64
241058,note_off,,,,,34,0,1,,,,0,72,64
241120,note_on,,,,,62,0,1,,,,0,72,76
241214,note_off,,,,,94,0,1,,,,0,86,64
241244,note_off,,,,,30,0,1,,,,0,79,64
241266,note_off,,,,,22,0,1,,,,0,72,64
241546,note_on,,,,,280,0,1,,,,0,71,79
241580,note_off,,,,,34,0,1,,,,0,71,64
241598,note_on,,,,,18,0,1,,,,0,48,59
241624,note_on,,,,,26,0,1,,,,0,55,46
241648,note_on,,,,,24,0,1,,,,0,57,64
241672,note_on,,,,,24,0,1,,,,0,63,63
241700,note_on,,,,,28,0,1,,,,0,71,77
241710,control_change,,,,,10,0,1,,64,0,0,,
241766,control_change,,,,,56,0,1,,64,127,0,,
241804,note_off,,,,,38,0,1,,,,0,71,64
241808,note_off,,,,,4,0,1,,,,0,48,64
241816,note_off,,,,,8,0,1,,,,0,63,64
241830,note_off,,,,,14,0,1,,,,0,57,64
241852,note_off,,,,,22,0,1,,,,0,55,64
241882,note_on,,,,,30,0,1,,,,0,91,51
241884,note_on,,,,,2,0,1,,,,0,84,64
242054,note_on,,,,,170,0,1,,,,0,79,55
242054,note_on,,,,,0,0,1,,,,0,87,66
242060,note_off,,,,,6,0,1,,,,0,84,64
242116,note_off,,,,,56,0,1,,,,0,91,64
242162,note_on,,,,,46,0,1,,,,0,70,72
242240,note_off,,,,,78,0,1,,,,0,70,64
242276,note_off,,,,,0,0,1,,,,0,79,64
242276,note_off,,,,,36,0,1,,,,0,87,64
242278,note_on,,,,,2,0,1,,,,0,70,82
242460,note_on,,,,,182,0,1,,,,0,87,57
242466,note_on,,,,,6,0,1,,,,0,79,51
242656,note_off,,,,,190,0,1,,,,0,87,64
242656,note_on,,,,,0,0,1,,,,0,75,47
242658,note_on,,,,,2,0,1,,,,0,84,53
242756,note_off,,,,,0,0,1,,,,0,75,64
242756,note_off,,,,,98,0,1,,,,0,84,64
242762,note_off,,,,,6,0,1,,,,0,79,64
242780,note_on,,,,,18,0,1,,,,0,69,54
242800,note_off,,,,,20,0,1,,,,0,70,64
242852,note_off,,,,,52,0,1,,,,0,69,64
242908,note_on,,,,,56,0,1,,,,0,69,70
243456,note_on,,,,,548,0,1,,,,0,68,74
243466,note_off,,,,,10,0,1,,,,0,69,64
243562,note_off,,,,,96,0,1,,,,0,68,64
243658,note_on,,,,,96,0,1,,,,0,68,66
243908,note_off,,,,,250,0,1,,,,0,68,64
244632,control_change,,,,,724,0,1,,64,0,0,,
244786,note_on,,,,,154,0,1,,,,0,67,51
245144,note_on,,,,,358,0,1,,,,0,75,69
245246,control_change,,,,,102,0,1,,64,127,0,,
245400,note_off,,,,,154,0,1,,,,0,67,64
245418,note_on,,,,,18,0,1,,,,0,74,65
245420,note_off,,,,,2,0,1,,,,0,75,64
245648,note_on,,,,,228,0,1,,,,0,72,69
245666,note_off,,,,,18,0,1,,,,0,74,64
245686,control_change,,,,,20,0,1,,64,0,0,,
245712,control_change,,,,,26,0,1,,64,127,0,,
245830,note_on,,,,,118,0,1,,,,0,70,74
245848,note_off,,,,,18,0,1,,,,0,72,64
245864,control_change,,,,,16,0,1,,64,0,0,,
245894,control_change,,,,,30,0,1,,64,127,0,,
246020,note_on,,,,,126,0,1,,,,0,69,82
246032,note_off,,,,,12,0,1,,,,0,70,64
246034,control_change,,,,,2,0,1,,64,0,0,,
246064,control_change,,,,,30,0,1,,64,127,0,,
246238,note_on,,,,,174,0,1,,,,0,67,68
246244,control_change,,,,,6,0,1,,64,0,0,,
246254,note_off,,,,,10,0,1,,,,0,69,64
246290,control_change,,,,,36,0,1,,64,127,0,,
246482,note_on,,,,,192,0,1,,,,0,66,77
246498,note_off,,,,,16,0,1,,,,0,67,64
246510,control_change,,,,,12,0,1,,64,0,0,,
246582,control_change,,,,,72,0,1,,64,127,0,,
246712,note_on,,,,,130,0,1,,,,0,67,70
246734,note_off,,,,,22,0,1,,,,0,66,64
246750,control_change,,,,,16,0,1,,64,0,0,,
246804,control_change,,,,,54,0,1,,64,127,0,,
246876,note_on,,,,,72,0,1,,,,0,66,79
246904,control_change,,,,,28,0,1,,64,0,0,,
246908,note_off,,,,,4,0,1,,,,0,67,64
246968,control_change,,,,,60,0,1,,64,127,0,,
247028,note_on,,,,,60,0,1,,,,0,65,88
247050,note_off,,,,,22,0,1,,,,0,66,64
247068,control_change,,,,,18,0,1,,64,0,0,,
247116,control_change,,,,,48,0,1,,64,127,0,,
247198,note_on,,,,,82,0,1,,,,0,66,82
247224,note_off,,,,,26,0,1,,,,0,65,64
247226,control_change,,,,,2,0,1,,64,0,0,,
247272,control_change,,,,,46,0,1,,64,127,0,,
247370,note_off,,,,,98,0,1,,,,0,66,64
247468,note_on,,,,,98,0,1,,,,0,69,87
247518,control_change,,,,,50,0,1,,64,0,0,,
248904,note_on,,,,,1386,0,1,,,,0,67,54
248936,note_off,,,,,32,0,1,,,,0,69,64
248956,control_change,,,,,20,0,1,,64,127,0,,
249260,note_on,,,,,304,0,1,,,,0,63,51
249320,control_change,,,,,60,0,1,,64,0,0,,
249374,control_change,,,,,54,0,1,,64,127,0,,
249534,note_on,,,,,160,0,1,,,,0,60,46
249840,note_on,,,,,306,0,1,,,,0,57,46
250174,note_on,,,,,334,0,1,,,,0,55,46
250584,note_on,,,,,410,0,1,,,,0,51,54
250684,note_off,,,,,100,0,1,,,,0,55,64
250712,note_off,,,,,28,0,1,,,,0,57,64
251000,note_off,,,,,288,0,1,,,,0,51,64
251140,note_off,,,,,140,0,1,,,,0,60,64
251142,note_off,,,,,2,0,1,,,,0,63,64
251170,note_off,,,,,28,0,1,,,,0,67,64
251380,control_change,,,,,210,0,1,,67,127,0,,
251564,control_change,,,,,184,0,1,,67,0,0,,
251624,control_change,,,,,60,0,1,,67,127,0,,
252148,note_on,,,,,524,0,1,,,,0,50,52
252204,control_change,,,,,56,0,1,,64,0,0,,
252312,control_change,,,,,108,0,1,,64,127,0,,
252444,note_off,,,,,132,0,1,,,,0,50,64
253008,set_tempo,,,,,14436,1,0,465116,,,,,
253008,note_on,,,,,564,0,1,,,,0,49,57
253020,set_tempo,,,,,12,1,0,461538,,,,,
253026,control_change,,,,,18,0,1,,64,0,0,,
253028,set_tempo,,,,,8,1,0,458015,,,,,
253036,set_tempo,,,,,8,1,0,454545,,,,,
253044,set_tempo,,,,,8,1,0,451128,,,,,
253052,set_tempo,,,,,8,1,0,447761,,,,,
253060,set_tempo,,,,,8,1,0,444444,,,,,
253076,set_tempo,,,,,16,1,0,441176,,,,,
253076,note_on,,,,,50,0,1,,,,0,70,38
253084,set_tempo,,,,,8,1,0,434783,,,,,
253096,set_tempo,,,,,12,1,0,431655,,,,,
253100,control_change,,,,,24,0,1,,64,127,0,,
253104,set_tempo,,,,,8,1,0,428571,,,,,
253112,set_tempo,,,,,8,1,0,425532,,,,,
253120,set_tempo,,,,,8,1,0,422535,,,,,
253128,set_tempo,,,,,8,1,0,419580,,,,,
253134,note_off,,,,,34,0,1,,,,0,49,64
253136,set_tempo,,,,,8,1,0,416667,,,,,
253150,note_off,,,,,16,0,1,,,,0,70,64
253152,set_tempo,,,,,16,1,0,413793,,,,,
253160,set_tempo,,,,,8,1,0,410959,,,,,
253168,set_tempo,,,,,8,1,0,405405,,,,,
253180,set_tempo,,,,,12,1,0,402685,,,,,
253188,set_tempo,,,,,8,1,0,400000,,,,,
253196,set_tempo,,,,,8,1,0,397351,,,,,
253204,set_tempo,,,,,8,1,0,394737,,,,,
253212,set_tempo,,,,,8,1,0,392157,,,,,
253228,set_tempo,,,,,16,1,0,389610,,,,,
253236,set_tempo,,,,,8,1,0,387097,,,,,
253244,set_tempo,,,,,8,1,0,384615,,,,,
253252,set_tempo,,,,,8,1,0,379747,,,,,
253264,set_tempo,,,,,12,1,0,377358,,,,,
253272,set_tempo,,,,,8,1,0,375000,,,,,
253280,set_tempo,,,,,8,1,0,372671,,,,,
253288,set_tempo,,,,,8,1,0,370370,,,,,
253304,set_tempo,,,,,16,1,0,368098,,,,,
253308,note_on,,,,,158,0,1,,,,0,87,61
253312,set_tempo,,,,,8,1,0,365854,,,,,
253320,set_tempo,,,,,8,1,0,363636,,,,,
253328,set_tempo,,,,,8,1,0,361446,,,,,
253336,set_tempo,,,,,8,1,0,357143,,,,,
253348,set_tempo,,,,,12,1,0,355030,,,,,
253356,set_tempo,,,,,8,1,0,352941,,,,,
253364,set_tempo,,,,,8,1,0,350877,,,,,
253380,set_tempo,,,,,16,1,0,348837,,,,,
253388,set_tempo,,,,,8,1,0,346821,,,,,
253396,set_tempo,,,,,8,1,0,344828,,,,,
253404,set_tempo,,,,,8,1,0,342857,,,,,
253406,note_on,,,,,98,0,1,,,,0,66,27
253412,set_tempo,,,,,8,1,0,340909,,,,,
253420,set_tempo,,,,,8,1,0,337079,,,,,
253432,set_tempo,,,,,12,1,0,335196,,,,,
253436,note_off,,,,,30,0,1,,,,0,87,64
253440,set_tempo,,,,,8,1,0,333333,,,,,
253452,note_on,,,,,16,0,1,,,,0,78,26
253456,set_tempo,,,,,16,1,0,331492,,,,,
253464,set_tempo,,,,,8,1,0,329670,,,,,
253472,set_tempo,,,,,8,1,0,327869,,,,,
253480,set_tempo,,,,,8,1,0,326087,,,,,
253488,set_tempo,,,,,8,1,0,324324,,,,,
253496,set_tempo,,,,,8,1,0,322581,,,,,
253504,set_tempo,,,,,8,1,0,319149,,,,,
253584,note_on,,,,,132,0,1,,,,0,70,31
253604,note_on,,,,,20,0,1,,,,0,61,22
253618,note_off,,,,,14,0,1,,,,0,70,64
253668,note_off,,,,,50,0,1,,,,0,78,64
253692,note_on,,,,,24,0,1,,,,0,86,55
253722,note_off,,,,,30,0,1,,,,0,66,64
253750,note_on,,,,,28,0,1,,,,0,58,30
253768,note_off,,,,,18,0,1,,,,0,61,64
253778,note_off,,,,,10,0,1,,,,0,86,64
253796,note_off,,,,,18,0,1,,,,0,58,64
253808,note_on,,,,,12,0,1,,,,0,78,34
253902,note_on,,,,,94,0,1,,,,0,70,30
253924,note_off,,,,,22,0,1,,,,0,70,64
253982,note_off,,,,,58,0,1,,,,0,78,64
253994,note_on,,,,,12,0,1,,,,0,86,57
254056,note_on,,,,,62,0,1,,,,0,66,38
254080,note_off,,,,,24,0,1,,,,0,86,64
254112,note_on,,,,,32,0,1,,,,0,78,38
254202,note_on,,,,,90,0,1,,,,0,61,27
254206,note_on,,,,,4,0,1,,,,0,70,34
254246,note_off,,,,,40,0,1,,,,0,70,64
254292,note_on,,,,,46,0,1,,,,0,85,57
254296,note_off,,,,,4,0,1,,,,0,78,64
254328,note_off,,,,,32,0,1,,,,0,66,64
254336,note_on,,,,,8,0,1,,,,0,58,25
254356,note_off,,,,,20,0,1,,,,0,61,64
254388,note_off,,,,,32,0,1,,,,0,58,64
254404,note_on,,,,,16,0,1,,,,0,78,35
254436,note_off,,,,,32,0,1,,,,0,85,64
254502,note_on,,,,,66,0,1,,,,0,70,34
254532,note_off,,,,,30,0,1,,,,0,70,64
254564,note_off,,,,,32,0,1,,,,0,78,64
254582,note_on,,,,,18,0,1,,,,0,85,58
254640,note_on,,,,,58,0,1,,,,0,66,36
254684,note_on,,,,,44,0,1,,,,0,78,37
254702,note_off,,,,,18,0,1,,,,0,85,64
254772,note_on,,,,,70,0,1,,,,0,61,39
254776,note_on,,,,,4,0,1,,,,0,70,39
254820,note_off,,,,,44,0,1,,,,0,70,64
254864,note_off,,,,,44,0,1,,,,0,78,64
254864,note_on,,,,,0,0,1,,,,0,84,59
254872,note_off,,,,,8,0,1,,,,0,66,64
254916,note_on,,,,,44,0,1,,,,0,58,30
254932,note_off,,,,,16,0,1,,,,0,61,64
254966,note_off,,,,,0,0,1,,,,0,84,64
254966,note_off,,,,,34,0,1,,,,0,58,64
254976,note_on,,,,,10,0,1,,,,0,78,34
255064,note_on,,,,,88,0,1,,,,0,70,35
255086,note_off,,,,,22,0,1,,,,0,78,64
255108,note_off,,,,,22,0,1,,,,0,70,64
255150,note_on,,,,,42,0,1,,,,0,84,56
255202,note_on,,,,,52,0,1,,,,0,66,31
255252,note_off,,,,,50,0,1,,,,0,84,64
255260,note_on,,,,,8,0,1,,,,0,78,32
255348,note_on,,,,,88,0,1,,,,0,61,25
255352,note_on,,,,,4,0,1,,,,0,70,44
255384,note_off,,,,,32,0,1,,,,0,78,64
255422,note_off,,,,,38,0,1,,,,0,70,64
255444,note_on,,,,,22,0,1,,,,0,83,58
255502,note_off,,,,,58,0,1,,,,0,66,64
255512,note_on,,,,,10,0,1,,,,0,58,35
255526,note_off,,,,,14,0,1,,,,0,61,64
255528,note_off,,,,,2,0,1,,,,0,58,64
255530,note_off,,,,,2,0,1,,,,0,83,64
255550,note_on,,,,,20,0,1,,,,0,78,31
255656,note_on,,,,,106,0,1,,,,0,49,57
255688,note_on,,,,,32,0,1,,,,0,71,45
255690,control_change,,,,,2,0,1,,64,0,0,,
255704,note_off,,,,,14,0,1,,,,0,78,64
255732,control_change,,,,,28,0,1,,64,127,0,,
255782,note_on,,,,,50,0,1,,,,0,83,60
255810,note_off,,,,,28,0,1,,,,0,71,64
255822,note_off,,,,,12,0,1,,,,0,49,64
255844,note_on,,,,,22,0,1,,,,0,65,39
255888,note_on,,,,,44,0,1,,,,0,77,47
255978,note_on,,,,,90,0,1,,,,0,61,36
255984,note_on,,,,,6,0,1,,,,0,71,32
256004,note_off,,,,,20,0,1,,,,0,83,64
256068,note_on,,,,,64,0,1,,,,0,82,60
256080,note_off,,,,,12,0,1,,,,0,77,64
256124,note_on,,,,,44,0,1,,,,0,59,34
256134,note_off,,,,,10,0,1,,,,0,71,64
256136,note_off,,,,,2,0,1,,,,0,65,64
256150,note_off,,,,,14,0,1,,,,0,61,64
256176,note_off,,,,,26,0,1,,,,0,59,64
256184,note_on,,,,,8,0,1,,,,0,77,47
256248,note_off,,,,,64,0,1,,,,0,82,64
256278,note_on,,,,,30,0,1,,,,0,71,29
256282,note_off,,,,,4,0,1,,,,0,77,64
256364,note_on,,,,,82,0,1,,,,0,82,59
256384,note_off,,,,,20,0,1,,,,0,71,64
256410,note_on,,,,,26,0,1,,,,0,65,44
256464,note_on,,,,,54,0,1,,,,0,77,49
256492,note_off,,,,,28,0,1,,,,0,82,64
256540,note_off,,,,,48,0,1,,,,0,77,64
256542,note_on,,,,,2,0,1,,,,0,61,27
256560,note_on,,,,,18,0,1,,,,0,71,41
256652,note_on,,,,,92,0,1,,,,0,81,60
256676,note_off,,,,,24,0,1,,,,0,71,64
256696,note_on,,,,,20,0,1,,,,0,59,38
256700,note_off,,,,,4,0,1,,,,0,65,64
256730,note_off,,,,,30,0,1,,,,0,61,64
256756,note_on,,,,,26,0,1,,,,0,77,48
256758,note_off,,,,,2,0,1,,,,0,59,64
256792,note_off,,,,,34,0,1,,,,0,81,64
256814,note_off,,,,,22,0,1,,,,0,77,64
256852,note_on,,,,,38,0,1,,,,0,71,38
256920,note_off,,,,,68,0,1,,,,0,71,64
256934,note_on,,,,,14,0,1,,,,0,81,60
256984,note_on,,,,,50,0,1,,,,0,65,28
257028,note_on,,,,,44,0,1,,,,0,77,48
257116,note_off,,,,,88,0,1,,,,0,77,64
257120,note_on,,,,,4,0,1,,,,0,71,40
257122,note_on,,,,,2,0,1,,,,0,61,36
257156,note_off,,,,,34,0,1,,,,0,81,64
257208,note_on,,,,,52,0,1,,,,0,79,51
257230,note_off,,,,,22,0,1,,,,0,71,64
257264,note_on,,,,,34,0,1,,,,0,59,38
257272,note_off,,,,,8,0,1,,,,0,65,64
257292,note_off,,,,,20,0,1,,,,0,61,64
257316,note_off,,,,,24,0,1,,,,0,59,64
257318,note_on,,,,,2,0,1,,,,0,77,49
257346,note_off,,,,,28,0,1,,,,0,79,64
257404,note_off,,,,,58,0,1,,,,0,77,64
257416,note_on,,,,,12,0,1,,,,0,71,40
257510,note_on,,,,,94,0,1,,,,0,79,48
257538,note_off,,,,,28,0,1,,,,0,71,64
257566,note_on,,,,,28,0,1,,,,0,65,37
257620,note_on,,,,,54,0,1,,,,0,77,47
257630,note_off,,,,,10,0,1,,,,0,79,64
257710,note_on,,,,,80,0,1,,,,0,61,42
257736,note_on,,,,,26,0,1,,,,0,71,47
257798,note_off,,,,,62,0,1,,,,0,77,64
257844,note_on,,,,,46,0,1,,,,0,80,53
257880,note_off,,,,,36,0,1,,,,0,71,64
257916,note_off,,,,,36,0,1,,,,0,65,64
257920,note_on,,,,,4,0,1,,,,0,59,32
257924,note_off,,,,,4,0,1,,,,0,61,64
257944,note_off,,,,,20,0,1,,,,0,59,64
257968,note_on,,,,,24,0,1,,,,0,77,47
258094,note_on,,,,,126,0,1,,,,0,49,57
258114,control_change,,,,,20,0,1,,64,0,0,,
258136,note_on,,,,,22,0,1,,,,0,70,50
258184,control_change,,,,,48,0,1,,64,127,0,,
258212,note_off,,,,,28,0,1,,,,0,70,64
258216,note_off,,,,,4,0,1,,,,0,49,64
258236,note_off,,,,,20,0,1,,,,0,77,64
258308,note_on,,,,,72,0,1,,,,0,87,60
258316,note_off,,,,,8,0,1,,,,0,80,64
258382,note_on,,,,,66,0,1,,,,0,66,44
258434,note_on,,,,,52,0,1,,,,0,78,48
258452,note_off,,,,,18,0,1,,,,0,87,64
258540,note_on,,,,,88,0,1,,,,0,61,34
258544,note_on,,,,,4,0,1,,,,0,70,47
258580,note_off,,,,,36,0,1,,,,0,70,64
258648,note_on,,,,,68,0,1,,,,0,86,61
258652,note_off,,,,,4,0,1,,,,0,78,64
258698,note_on,,,,,46,0,1,,,,0,58,43
258708,note_off,,,,,10,0,1,,,,0,66,64
258720,note_off,,,,,12,0,1,,,,0,61,64
258732,note_off,,,,,12,0,1,,,,0,86,64
258752,note_off,,,,,20,0,1,,,,0,58,64
258756,note_on,,,,,4,0,1,,,,0,78,41
258842,note_on,,,,,86,0,1,,,,0,70,45
258870,note_off,,,,,28,0,1,,,,0,70,64
258928,note_off,,,,,58,0,1,,,,0,78,64
258936,note_on,,,,,8,0,1,,,,0,86,60
258986,note_on,,,,,50,0,1,,,,0,66,49
259024,note_off,,,,,38,0,1,,,,0,86,64
259026,note_on,,,,,2,0,1,,,,0,78,36
259120,note_on,,,,,94,0,1,,,,0,61,34
259126,note_on,,,,,6,0,1,,,,0,70,35
259168,note_off,,,,,42,0,1,,,,0,70,64
259214,note_off,,,,,46,0,1,,,,0,66,64
259214,note_on,,,,,0,0,1,,,,0,85,60
259220,note_off,,,,,6,0,1,,,,0,78,64
259270,note_on,,,,,50,0,1,,,,0,58,35
259274,note_off,,,,,4,0,1,,,,0,61,64
259316,note_on,,,,,0,0,1,,,,0,78,30
259316,note_off,,,,,42,0,1,,,,0,58,64
259334,note_off,,,,,18,0,1,,,,0,85,64
259400,note_on,,,,,66,0,1,,,,0,70,34
259426,note_off,,,,,26,0,1,,,,0,70,64
259470,note_off,,,,,44,0,1,,,,0,78,64
259484,note_on,,,,,14,0,1,,,,0,85,60
259540,note_on,,,,,56,0,1,,,,0,66,39
259578,note_on,,,,,38,0,1,,,,0,78,37
259590,note_off,,,,,12,0,1,,,,0,85,64
259668,note_on,,,,,78,0,1,,,,0,70,30
259672,note_on,,,,,4,0,1,,,,0,61,30
259720,note_off,,,,,48,0,1,,,,0,70,64
259764,note_on,,,,,0,0,1,,,,0,84,58
259764,note_off,,,,,44,0,1,,,,0,78,64
259790,note_off,,,,,26,0,1,,,,0,66,64
259804,note_on,,,,,14,0,1,,,,0,58,35
259820,note_off,,,,,16,0,1,,,,0,61,64
259860,note_on,,,,,40,0,1,,,,0,78,37
259862,note_off,,,,,2,0,1,,,,0,84,64
259864,note_off,,,,,2,0,1,,,,0,58,64
259954,note_on,,,,,90,0,1,,,,0,70,38
259996,note_off,,,,,42,0,1,,,,0,70,64
260008,note_off,,,,,12,0,1,,,,0,78,64
260036,note_on,,,,,28,0,1,,,,0,84,56
260080,note_on,,,,,44,0,1,,,,0,66,41
260130,note_off,,,,,50,0,1,,,,0,84,64
260136,note_on,,,,,6,0,1,,,,0,78,38
260208,note_off,,,,,72,0,1,,,,0,78,64
260222,note_on,,,,,14,0,1,,,,0,61,37
260226,note_on,,,,,4,0,1,,,,0,70,46
260314,note_off,,,,,88,0,1,,,,0,70,64
260324,note_on,,,,,10,0,1,,,,0,83,64
260336,note_off,,,,,12,0,1,,,,0,66,64
260362,note_on,,,,,26,0,1,,,,0,58,43
260370,note_off,,,,,8,0,1,,,,0,61,64
260400,note_off,,,,,30,0,1,,,,0,58,64
260412,note_on,,,,,12,0,1,,,,0,78,46
260492,note_on,,,,,80,0,1,,,,0,49,66
260520,note_off,,,,,28,0,1,,,,0,83,64
260526,control_change,,,,,6,0,1,,64,0,0,,
260534,note_on,,,,,8,0,1,,,,0,71,53
260560,note_off,,,,,26,0,1,,,,0,78,64
260570,control_change,,,,,10,0,1,,64,127,0,,
260594,note_off,,,,,24,0,1,,,,0,49,64
260638,note_on,,,,,44,0,1,,,,0,83,60
260704,note_on,,,,,66,0,1,,,,0,65,47
260732,note_on,,,,,28,0,1,,,,0,77,49
260734,note_off,,,,,2,0,1,,,,0,71,64
260810,note_on,,,,,76,0,1,,,,0,61,40
260830,note_on,,,,,20,0,1,,,,0,71,45
260866,note_off,,,,,36,0,1,,,,0,83,64
260884,note_off,,,,,18,0,1,,,,0,77,64
260908,note_on,,,,,24,0,1,,,,0,82,60
260950,note_on,,,,,42,0,1,,,,0,59,32
260956,note_off,,,,,6,0,1,,,,0,71,64
260980,note_off,,,,,24,0,1,,,,0,65,64
260982,note_off,,,,,2,0,1,,,,0,61,64
261008,note_off,,,,,26,0,1,,,,0,59,64
261010,note_on,,,,,2,0,1,,,,0,77,48
261060,note_off,,,,,50,0,1,,,,0,82,64
261080,note_off,,,,,20,0,1,,,,0,77,64
261102,note_on,,,,,22,0,1,,,,0,71,45
261190,note_on,,,,,88,0,1,,,,0,82,62
261224,note_off,,,,,34,0,1,,,,0,71,64
261256,note_on,,,,,32,0,1,,,,0,65,45
261292,note_on,,,,,36,0,1,,,,0,77,47
261334,note_off,,,,,42,0,1,,,,0,82,64
261370,note_on,,,,,36,0,1,,,,0,61,34
261388,note_on,,,,,18,0,1,,,,0,71,51
261392,note_off,,,,,4,0,1,,,,0,77,64
261472,note_on,,,,,80,0,1,,,,0,81,55
261512,note_on,,,,,0,0,1,,,,0,59,29
261512,note_off,,,,,40,0,1,,,,0,71,64
261518,note_off,,,,,6,0,1,,,,0,65,64
261526,note_off,,,,,8,0,1,,,,0,61,64
261544,note_off,,,,,18,0,1,,,,0,59,64
261574,note_on,,,,,30,0,1,,,,0,77,55
261658,note_on,,,,,84,0,1,,,,0,50,71
261664,note_off,,,,,6,0,1,,,,0,81,64
261680,note_on,,,,,16,0,1,,,,0,71,55
261684,control_change,,,,,4,0,1,,64,0,0,,
261694,note_off,,,,,10,0,1,,,,0,77,64
261724,control_change,,,,,30,0,1,,64,127,0,,
261732,note_off,,,,,8,0,1,,,,0,50,64
261786,note_on,,,,,54,0,1,,,,0,81,54
261840,note_off,,,,,54,0,1,,,,0,71,64
261842,note_on,,,,,2,0,1,,,,0,65,48
261884,note_on,,,,,42,0,1,,,,0,77,42
261980,note_on,,,,,96,0,1,,,,0,71,41
261982,note_on,,,,,2,0,1,,,,0,62,39
261984,note_off,,,,,2,0,1,,,,0,77,64
262070,note_on,,,,,86,0,1,,,,0,79,52
262102,note_off,,,,,32,0,1,,,,0,65,64
262112,note_off,,,,,10,0,1,,,,0,71,64
262128,note_on,,,,,16,0,1,,,,0,59,42
262152,note_off,,,,,24,0,1,,,,0,62,64
262178,note_on,,,,,26,0,1,,,,0,77,50
262184,note_off,,,,,6,0,1,,,,0,59,64
262226,note_off,,,,,42,0,1,,,,0,79,64
262262,note_off,,,,,36,0,1,,,,0,77,64
262274,note_on,,,,,12,0,1,,,,0,71,45
262318,note_off,,,,,44,0,1,,,,0,81,64
262364,note_on,,,,,46,0,1,,,,0,79,51
262396,note_off,,,,,32,0,1,,,,0,71,64
262426,note_on,,,,,30,0,1,,,,0,65,47
262476,note_on,,,,,50,0,1,,,,0,77,48
262498,note_off,,,,,22,0,1,,,,0,79,64
262558,note_on,,,,,60,0,1,,,,0,62,27
262578,note_on,,,,,20,0,1,,,,0,71,42
262606,note_off,,,,,28,0,1,,,,0,77,64
262678,note_on,,,,,72,0,1,,,,0,80,58
262694,note_off,,,,,16,0,1,,,,0,65,64
262722,note_off,,,,,28,0,1,,,,0,71,64
262750,note_on,,,,,28,0,1,,,,0,59,27
262758,note_off,,,,,8,0,1,,,,0,62,64
262788,note_off,,,,,30,0,1,,,,0,59,64
262806,note_on,,,,,18,0,1,,,,0,77,47
262916,note_on,,,,,110,0,1,,,,0,51,57
262932,control_change,,,,,16,0,1,,64,0,0,,
262956,note_on,,,,,24,0,1,,,,0,72,46
262960,note_off,,,,,4,0,1,,,,0,77,64
262994,note_off,,,,,34,0,1,,,,0,80,64
262996,control_change,,,,,2,0,1,,64,127,0,,
263012,note_off,,,,,16,0,1,,,,0,51,64
263030,note_off,,,,,18,0,1,,,,0,72,64
263092,note_on,,,,,62,0,1,,,,0,89,60
263154,note_off,,,,,62,0,1,,,,0,89,64
263168,note_on,,,,,14,0,1,,,,0,68,56
263220,note_on,,,,,52,0,1,,,,0,80,57
263304,note_on,,,,,84,0,1,,,,0,63,46
263314,note_on,,,,,10,0,1,,,,0,72,45
263352,note_off,,,,,38,0,1,,,,0,80,64
263370,note_off,,,,,18,0,1,,,,0,72,64
263404,note_on,,,,,34,0,1,,,,0,88,59
263458,note_on,,,,,54,0,1,,,,0,60,37
263464,note_off,,,,,6,0,1,,,,0,68,64
263468,note_off,,,,,4,0,1,,,,0,63,64
263494,note_off,,,,,26,0,1,,,,0,88,64
263508,note_off,,,,,14,0,1,,,,0,60,64
263508,note_on,,,,,0,0,1,,,,0,80,49
263604,note_on,,,,,96,0,1,,,,0,72,52
263642,note_off,,,,,38,0,1,,,,0,80,64
263652,note_off,,,,,10,0,1,,,,0,72,64
263690,note_on,,,,,38,0,1,,,,0,88,55
263740,note_on,,,,,50,0,1,,,,0,68,48
263790,note_on,,,,,50,0,1,,,,0,80,52
263802,note_off,,,,,12,0,1,,,,0,88,64
263876,note_on,,,,,74,0,1,,,,0,63,36
263886,note_on,,,,,10,0,1,,,,0,72,55
263926,note_off,,,,,40,0,1,,,,0,72,64
263962,note_off,,,,,36,0,1,,,,0,80,64
263978,note_on,,,,,16,0,1,,,,0,87,64
264016,note_on,,,,,38,0,1,,,,0,60,30
264034,note_off,,,,,18,0,1,,,,0,63,64
264034,note_off,,,,,0,0,1,,,,0,68,64
264058,note_off,,,,,24,0,1,,,,0,60,64
264080,note_on,,,,,22,0,1,,,,0,80,44
264156,note_on,,,,,76,0,1,,,,0,51,64
264158,note_off,,,,,2,0,1,,,,0,87,64
264188,note_off,,,,,30,0,1,,,,0,80,64
264188,control_change,,,,,0,0,1,,64,0,0,,
264190,note_on,,,,,2,0,1,,,,0,73,50
264228,control_change,,,,,38,0,1,,64,127,0,,
264236,note_off,,,,,8,0,1,,,,0,51,64
264272,note_off,,,,,36,0,1,,,,0,73,64
264284,note_on,,,,,12,0,1,,,,0,87,65
264338,note_on,,,,,54,0,1,,,,0,67,24
264384,note_on,,,,,46,0,1,,,,0,79,53
264426,note_off,,,,,42,0,1,,,,0,87,64
264474,note_on,,,,,48,0,1,,,,0,61,41
264476,note_on,,,,,2,0,1,,,,0,73,55
264510,note_off,,,,,34,0,1,,,,0,79,64
264566,note_on,,,,,56,0,1,,,,0,86,60
264572,note_off,,,,,6,0,1,,,,0,73,64
264626,note_on,,,,,54,0,1,,,,0,58,41
264628,note_off,,,,,2,0,1,,,,0,67,64
264646,note_off,,,,,18,0,1,,,,0,61,64
264664,note_off,,,,,18,0,1,,,,0,58,64
264672,note_on,,,,,8,0,1,,,,0,79,47
264728,note_off,,,,,56,0,1,,,,0,86,64
264752,note_on,,,,,24,0,1,,,,0,52,38
264774,control_change,,,,,22,0,1,,64,0,0,,
264778,note_on,,,,,4,0,1,,,,0,73,65
264818,note_off,,,,,40,0,1,,,,0,52,64
264822,note_off,,,,,4,0,1,,,,0,79,64
264828,control_change,,,,,6,0,1,,64,127,0,,
264872,note_on,,,,,44,0,1,,,,0,85,55
264914,note_off,,,,,42,0,1,,,,0,73,64
264938,note_on,,,,,24,0,1,,,,0,70,45
264990,note_on,,,,,52,0,1,,,,0,79,49
265088,note_on,,,,,98,0,1,,,,0,67,34
265092,note_on,,,,,4,0,1,,,,0,73,52
265204,note_on,,,,,112,0,1,,,,0,82,54
265218,note_off,,,,,14,0,1,,,,0,79,64
265256,note_on,,,,,38,0,1,,,,0,61,34
265260,note_off,,,,,4,0,1,,,,0,67,64
265270,note_off,,,,,10,0,1,,,,0,70,64
265282,note_off,,,,,12,0,1,,,,0,73,64
265290,note_off,,,,,8,0,1,,,,0,61,64
265320,note_on,,,,,30,0,1,,,,0,79,47
265356,note_off,,,,,36,0,1,,,,0,85,64
265416,note_on,,,,,60,0,1,,,,0,53,73
265430,note_off,,,,,14,0,1,,,,0,79,64
265442,control_change,,,,,12,0,1,,64,0,0,,
265452,note_off,,,,,10,0,1,,,,0,82,64
265462,note_on,,,,,10,0,1,,,,0,74,50
265476,control_change,,,,,14,0,1,,64,127,0,,
265490,note_off,,,,,14,0,1,,,,0,53,64
265528,note_off,,,,,38,0,1,,,,0,74,64
265598,note_on,,,,,70,0,1,,,,0,91,76
265652,note_off,,,,,54,0,1,,,,0,91,64
265668,note_on,,,,,16,0,1,,,,0,70,52
265710,note_on,,,,,42,0,1,,,,0,82,54
265802,note_on,,,,,92,0,1,,,,0,65,37
265804,note_on,,,,,2,0,1,,,,0,74,41
265840,note_off,,,,,36,0,1,,,,0,82,64
265848,note_off,,,,,8,0,1,,,,0,74,64
265892,note_on,,,,,44,0,1,,,,0,90,69
265948,note_on,,,,,56,0,1,,,,0,62,40
265968,note_off,,,,,20,0,1,,,,0,65,64
265972,note_off,,,,,4,0,1,,,,0,70,64
265994,note_off,,,,,22,0,1,,,,0,90,64
265996,note_off,,,,,2,0,1,,,,0,62,64
266000,note_on,,,,,4,0,1,,,,0,82,57
266098,note_on,,,,,98,0,1,,,,0,74,39
266138,note_off,,,,,40,0,1,,,,0,74,64
266164,note_off,,,,,26,0,1,,,,0,82,64
266184,note_on,,,,,20,0,1,,,,0,90,69
266216,note_on,,,,,32,0,1,,,,0,70,40
266276,note_on,,,,,60,0,1,,,,0,82,47
266284,note_off,,,,,8,0,1,,,,0,90,64
266366,note_on,,,,,82,0,1,,,,0,74,36
266376,note_on,,,,,10,0,1,,,,0,65,32
266380,note_off,,,,,4,0,1,,,,0,82,64
266406,note_off,,,,,26,0,1,,,,0,74,64
266452,note_on,,,,,46,0,1,,,,0,89,67
266502,note_off,,,,,50,0,1,,,,0,65,64
266502,note_on,,,,,0,0,1,,,,0,62,32
266514,note_off,,,,,12,0,1,,,,0,70,64
266532,note_off,,,,,18,0,1,,,,0,62,64
266534,note_on,,,,,2,0,1,,,,0,82,47
266556,note_off,,,,,22,0,1,,,,0,89,64
266630,note_on,,,,,74,0,1,,,,0,53,44
266646,note_on,,,,,16,0,1,,,,0,75,66
266660,control_change,,,,,14,0,1,,64,0,0,,
266668,note_off,,,,,8,0,1,,,,0,82,64
266676,note_off,,,,,8,0,1,,,,0,53,64
266694,control_change,,,,,18,0,1,,64,127,0,,
266704,note_off,,,,,10,0,1,,,,0,75,64
266742,note_on,,,,,38,0,1,,,,0,89,49
266784,note_on,,,,,42,0,1,,,,0,72,62
266838,note_on,,,,,54,0,1,,,,0,81,45
266850,note_off,,,,,12,0,1,,,,0,89,64
266920,note_on,,,,,70,0,1,,,,0,69,40
266928,note_on,,,,,8,0,1,,,,0,75,60
266972,note_off,,,,,44,0,1,,,,0,81,64
267002,note_off,,,,,30,0,1,,,,0,75,64
267022,note_on,,,,,20,0,1,,,,0,88,61
267064,note_off,,,,,42,0,1,,,,0,72,64
267068,note_on,,,,,4,0,1,,,,0,63,31
267084,note_off,,,,,16,0,1,,,,0,69,64
267110,note_on,,,,,26,0,1,,,,0,81,53
267112,note_off,,,,,2,0,1,,,,0,63,64
267202,note_on,,,,,90,0,1,,,,0,54,53
267224,note_on,,,,,22,0,1,,,,0,75,62
267238,control_change,,,,,14,0,1,,64,0,0,,
267244,note_off,,,,,6,0,1,,,,0,88,64
267254,note_off,,,,,10,0,1,,,,0,81,64
267272,control_change,,,,,18,0,1,,64,127,0,,
267274,note_off,,,,,2,0,1,,,,0,54,64
267316,note_off,,,,,42,0,1,,,,0,75,64
267328,note_on,,,,,12,0,1,,,,0,87,69
267380,note_on,,,,,52,0,1,,,,0,72,45
267420,note_on,,,,,40,0,1,,,,0,81,55
267452,note_off,,,,,32,0,1,,,,0,87,64
267512,note_on,,,,,60,0,1,,,,0,69,38
267520,note_on,,,,,8,0,1,,,,0,75,53
267562,note_off,,,,,42,0,1,,,,0,81,64
267612,note_on,,,,,50,0,1,,,,0,84,64
267624,note_off,,,,,12,0,1,,,,0,72,64
267670,note_on,,,,,46,0,1,,,,0,63,40
267682,note_off,,,,,12,0,1,,,,0,69,64
267702,note_off,,,,,20,0,1,,,,0,63,64
267720,note_on,,,,,18,0,1,,,,0,81,51
267742,note_off,,,,,22,0,1,,,,0,84,64
267752,note_off,,,,,10,0,1,,,,0,75,64
267810,control_change,,,,,58,0,1,,67,0,0,,
267844,note_on,,,,,34,0,1,,,,0,55,43
267880,note_on,,,,,36,0,1,,,,0,76,43
267888,control_change,,,,,8,0,1,,64,0,0,,
267916,note_off,,,,,28,0,1,,,,0,81,64
267948,control_change,,,,,32,0,1,,64,127,0,,
267954,note_off,,,,,6,0,1,,,,0,76,64
267956,note_off,,,,,2,0,1,,,,0,55,64
268024,note_on,,,,,68,0,1,,,,0,93,70
268066,note_on,,,,,42,0,1,,,,0,72,36
268126,note_off,,,,,60,0,1,,,,0,93,64
268160,note_on,,,,,34,0,1,,,,0,84,39
268228,note_off,,,,,68,0,1,,,,0,84,64
268236,note_on,,,,,8,0,1,,,,0,67,38
268252,note_on,,,,,16,0,1,,,,0,76,35
268300,note_off,,,,,48,0,1,,,,0,76,64
268336,note_on,,,,,36,0,1,,,,0,91,64
268388,note_on,,,,,52,0,1,,,,0,64,44
268412,note_off,,,,,24,0,1,,,,0,91,64
268422,note_off,,,,,10,0,1,,,,0,72,64
268426,note_on,,,,,4,0,1,,,,0,84,47
268430,note_off,,,,,4,0,1,,,,0,67,64
268448,note_off,,,,,18,0,1,,,,0,64,64
268524,note_on,,,,,76,0,1,,,,0,76,49
268588,note_off,,,,,64,0,1,,,,0,76,64
268610,note_on,,,,,22,0,1,,,,0,91,63
268616,note_off,,,,,6,0,1,,,,0,84,64
268676,note_on,,,,,60,0,1,,,,0,72,53
268716,note_on,,,,,40,0,1,,,,0,84,54
268774,note_off,,,,,58,0,1,,,,0,91,64
268800,note_on,,,,,26,0,1,,,,0,76,45
268804,note_on,,,,,4,0,1,,,,0,67,36
268844,note_off,,,,,40,0,1,,,,0,84,64
268894,note_on,,,,,50,0,1,,,,0,90,59
268940,note_on,,,,,46,0,1,,,,0,64,34
268972,note_off,,,,,32,0,1,,,,0,76,64
268982,note_off,,,,,10,0,1,,,,0,72,64
268986,note_on,,,,,4,0,1,,,,0,84,44
269006,note_off,,,,,20,0,1,,,,0,67,64
269044,note_off,,,,,38,0,1,,,,0,64,64
269080,note_on,,,,,36,0,1,,,,0,60,50
269086,note_on,,,,,6,0,1,,,,0,76,56
269104,note_off,,,,,18,0,1,,,,0,84,64
269108,note_off,,,,,4,0,1,,,,0,90,64
269130,control_change,,,,,22,0,1,,64,0,0,,
269184,note_on,,,,,54,0,1,,,,0,90,65
269196,control_change,,,,,12,0,1,,64,127,0,,
269234,note_on,,,,,38,0,1,,,,0,72,38
269246,note_off,,,,,12,0,1,,,,0,76,64
269284,note_on,,,,,38,0,1,,,,0,84,50
269362,note_on,,,,,78,0,1,,,,0,67,32
269370,note_on,,,,,8,0,1,,,,0,76,41
269380,note_off,,,,,10,0,1,,,,0,90,64
269400,note_off,,,,,20,0,1,,,,0,84,64
269464,note_on,,,,,64,0,1,,,,0,91,61
269492,note_on,,,,,28,0,1,,,,0,64,42
269528,note_off,,,,,36,0,1,,,,0,72,64
269534,note_off,,,,,6,0,1,,,,0,76,64
269540,note_off,,,,,6,0,1,,,,0,60,64
269550,note_off,,,,,10,0,1,,,,0,67,64
269552,note_on,,,,,2,0,1,,,,0,84,50
269582,note_off,,,,,30,0,1,,,,0,64,64
269602,note_off,,,,,20,0,1,,,,0,91,64
269646,note_on,,,,,44,0,1,,,,0,76,45
269662,note_off,,,,,16,0,1,,,,0,84,64
269718,note_off,,,,,56,0,1,,,,0,76,64
269736,note_on,,,,,18,0,1,,,,0,91,61
269800,note_on,,,,,64,0,1,,,,0,72,49
269840,note_on,,,,,40,0,1,,,,0,84,59
269878,note_off,,,,,0,0,1,,,,0,91,64
269878,note_off,,,,,38,0,1,,,,0,84,64
269928,note_on,,,,,50,0,1,,,,0,67,32
269928,note_on,,,,,0,0,1,,,,0,84,60
269972,set_tempo,,,,,16468,1,0,322581,,,,,
269976,set_tempo,,,,,4,1,0,324324,,,,,
269980,set_tempo,,,,,4,1,0,326087,,,,,
269984,set_tempo,,,,,4,1,0,327869,,,,,
269988,set_tempo,,,,,4,1,0,329670,,,,,
269992,set_tempo,,,,,4,1,0,331492,,,,,
269996,set_tempo,,,,,4,1,0,333333,,,,,
270004,set_tempo,,,,,8,1,0,335196,,,,,
270008,set_tempo,,,,,4,1,0,337079,,,,,
270012,set_tempo,,,,,4,1,0,340909,,,,,
270016,set_tempo,,,,,4,1,0,342857,,,,,
270020,note_on,,,,,92,0,1,,,,0,100,76
270020,set_tempo,,,,,4,1,0,344828,,,,,
270024,set_tempo,,,,,4,1,0,346821,,,,,
270028,set_tempo,,,,,4,1,0,348837,,,,,
270032,set_tempo,,,,,4,1,0,350877,,,,,
270040,set_tempo,,,,,8,1,0,352941,,,,,
270044,set_tempo,,,,,4,1,0,355030,,,,,
270048,set_tempo,,,,,4,1,0,357143,,,,,
270052,set_tempo,,,,,4,1,0,361446,,,,,
270056,set_tempo,,,,,4,1,0,363636,,,,,
270060,set_tempo,,,,,4,1,0,365854,,,,,
270060,note_off,,,,,40,0,1,,,,0,84,64
270062,note_on,,,,,2,0,1,,,,0,64,41
270064,set_tempo,,,,,4,1,0,368098,,,,,
270068,set_tempo,,,,,4,1,0,370370,,,,,
270076,set_tempo,,,,,8,1,0,372671,,,,,
270080,set_tempo,,,,,4,1,0,375000,,,,,
270084,set_tempo,,,,,4,1,0,377358,,,,,
270088,set_tempo,,,,,4,1,0,379747,,,,,
270092,note_off,,,,,30,0,1,,,,0,67,64
270096,set_tempo,,,,,8,1,0,377358,,,,,
270100,set_tempo,,,,,4,1,0,375000,,,,,
270102,note_off,,,,,10,0,1,,,,0,72,64
270104,set_tempo,,,,,4,1,0,372671,,,,,
270106,note_off,,,,,4,0,1,,,,0,64,64
270112,set_tempo,,,,,8,1,0,370370,,,,,
270116,note_on,,,,,10,0,1,,,,0,91,49
270120,set_tempo,,,,,8,1,0,368098,,,,,
270128,set_tempo,,,,,8,1,0,365854,,,,,
270132,set_tempo,,,,,4,1,0,363636,,,,,
270136,set_tempo,,,,,4,1,0,361446,,,,,
270140,set_tempo,,,,,4,1,0,357143,,,,,
270148,set_tempo,,,,,8,1,0,355030,,,,,
270152,set_tempo,,,,,4,1,0,352941,,,,,
270156,set_tempo,,,,,4,1,0,350877,,,,,
270168,set_tempo,,,,,12,1,0,348837,,,,,
270172,set_tempo,,,,,4,1,0,346821,,,,,
270180,set_tempo,,,,,8,1,0,344828,,,,,
270184,set_tempo,,,,,4,1,0,342857,,,,,
270188,set_tempo,,,,,4,1,0,340909,,,,,
270192,set_tempo,,,,,4,1,0,337079,,,,,
270200,set_tempo,,,,,8,1,0,335196,,,,,
270204,set_tempo,,,,,4,1,0,333333,,,,,
270212,note_on,,,,,96,0,1,,,,0,56,67
270216,set_tempo,,,,,12,1,0,331492,,,,,
270220,set_tempo,,,,,4,1,0,329670,,,,,
270224,set_tempo,,,,,4,1,0,327869,,,,,
270226,note_on,,,,,14,0,1,,,,0,84,60
270232,set_tempo,,,,,8,1,0,326087,,,,,
270236,set_tempo,,,,,4,1,0,324324,,,,,
270240,set_tempo,,,,,4,1,0,322581,,,,,
270244,set_tempo,,,,,4,1,0,319149,,,,,
270254,control_change,,,,,28,0,1,,64,0,0,,
270256,note_off,,,,,0,0,1,,,,0,100,64
270256,note_off,,,,,2,0,1,,,,0,91,64
270292,control_change,,,,,36,0,1,,64,127,0,,
270328,note_off,,,,,36,0,1,,,,0,56,64
270338,note_on,,,,,10,0,1,,,,0,100,79
270376,note_off,,,,,38,0,1,,,,0,84,64
270394,note_on,,,,,18,0,1,,,,0,72,48
270438,note_on,,,,,44,0,1,,,,0,89,49
270472,note_off,,,,,34,0,1,,,,0,100,64
270526,note_on,,,,,0,0,1,,,,0,65,42
270526,note_on,,,,,54,0,1,,,,0,84,49
270568,note_off,,,,,42,0,1,,,,0,89,64
270616,note_on,,,,,48,0,1,,,,0,98,78
270662,note_off,,,,,46,0,1,,,,0,84,64
270666,note_on,,,,,4,0,1,,,,0,62,49
270704,note_off,,,,,38,0,1,,,,0,65,64
270704,note_off,,,,,0,0,1,,,,0,72,64
270716,note_on,,,,,12,0,1,,,,0,89,58
270760,note_off,,,,,44,0,1,,,,0,62,64
270790,note_off,,,,,30,0,1,,,,0,89,64
270800,note_off,,,,,10,0,1,,,,0,98,64
270812,note_on,,,,,12,0,1,,,,0,84,55
270902,note_on,,,,,90,0,1,,,,0,98,75
270926,note_off,,,,,24,0,1,,,,0,84,64
270958,note_on,,,,,32,0,1,,,,0,72,45
270990,note_on,,,,,32,0,1,,,,0,89,57
271078,note_on,,,,,88,0,1,,,,0,84,45
271080,note_on,,,,,2,0,1,,,,0,65,41
271122,note_off,,,,,42,0,1,,,,0,98,64
271124,note_off,,,,,2,0,1,,,,0,89,64
271168,note_on,,,,,44,0,1,,,,0,97,74
271210,note_off,,,,,42,0,1,,,,0,84,64
271212,note_on,,,,,2,0,1,,,,0,62,30
271232,note_off,,,,,20,0,1,,,,0,72,64
271238,note_off,,,,,6,0,1,,,,0,65,64
271260,note_on,,,,,22,0,1,,,,0,89,45
271330,note_off,,,,,70,0,1,,,,0,62,64
271360,note_on,,,,,30,0,1,,,,0,56,42
271362,note_on,,,,,2,0,1,,,,0,83,51
271380,note_off,,,,,18,0,1,,,,0,89,64
271404,control_change,,,,,0,0,1,,64,0,0,,
271404,note_off,,,,,24,0,1,,,,0,97,64
271424,control_change,,,,,20,0,1,,64,127,0,,
271456,note_on,,,,,32,0,1,,,,0,97,70
271494,note_on,,,,,38,0,1,,,,0,71,49
271512,note_off,,,,,18,0,1,,,,0,83,64
271548,note_on,,,,,36,0,1,,,,0,89,44
271568,note_off,,,,,20,0,1,,,,0,97,64
271640,note_on,,,,,72,0,1,,,,0,83,47
271640,note_on,,,,,0,0,1,,,,0,65,45
271678,note_off,,,,,38,0,1,,,,0,89,64
271710,note_off,,,,,32,0,1,,,,0,71,64
271712,note_off,,,,,2,0,1,,,,0,56,64
271724,note_off,,,,,12,0,1,,,,0,83,64
271728,note_on,,,,,4,0,1,,,,0,98,67
271752,note_off,,,,,24,0,1,,,,0,65,64
271792,note_on,,,,,40,0,1,,,,0,62,44
271816,note_on,,,,,24,0,1,,,,0,89,52
271834,note_off,,,,,18,0,1,,,,0,98,64
271876,note_off,,,,,42,0,1,,,,0,89,64
271936,note_on,,,,,60,0,1,,,,0,86,47
271936,note_on,,,,,0,0,1,,,,0,55,42
272020,note_off,,,,,84,0,1,,,,0,86,64
272040,note_on,,,,,20,0,1,,,,0,101,68
272092,note_off,,,,,52,0,1,,,,0,62,64
272120,note_on,,,,,28,0,1,,,,0,71,47
272146,note_off,,,,,26,0,1,,,,0,101,64
272152,note_on,,,,,6,0,1,,,,0,95,47
272172,set_tempo,,,,,1928,1,0,322581,,,,,
272184,set_tempo,,,,,12,1,0,324324,,,,,
272196,set_tempo,,,,,12,1,0,326087,,,,,
272208,set_tempo,,,,,12,1,0,327869,,,,,
272224,set_tempo,,,,,16,1,0,329670,,,,,
272236,set_tempo,,,,,12,1,0,331492,,,,,
272236,note_off,,,,,84,0,1,,,,0,95,64
272248,set_tempo,,,,,12,1,0,333333,,,,,
272264,note_on,,,,,28,0,1,,,,0,77,47
272272,set_tempo,,,,,24,1,0,335196,,,,,
272272,note_on,,,,,8,0,1,,,,0,65,41
272288,set_tempo,,,,,16,1,0,337079,,,,,
272288,note_off,,,,,16,0,1,,,,0,55,64
272300,set_tempo,,,,,12,1,0,340909,,,,,
272312,set_tempo,,,,,12,1,0,342857,,,,,
272324,set_tempo,,,,,12,1,0,344828,,,,,
272340,set_tempo,,,,,16,1,0,346821,,,,,
272352,set_tempo,,,,,12,1,0,348837,,,,,
272364,set_tempo,,,,,12,1,0,350877,,,,,
272376,note_off,,,,,88,0,1,,,,0,77,64
272376,note_on,,,,,0,0,1,,,,0,91,60
272388,set_tempo,,,,,24,1,0,352941,,,,,
272404,set_tempo,,,,,16,1,0,355030,,,,,
272408,note_on,,,,,32,0,1,,,,0,62,45
272416,set_tempo,,,,,12,1,0,357143,,,,,
272428,set_tempo,,,,,12,1,0,361446,,,,,
272440,set_tempo,,,,,12,1,0,363636,,,,,
272452,set_tempo,,,,,12,1,0,365854,,,,,
272456,set_tempo,,,,,4,1,0,375000,,,,,
272460,set_tempo,,,,,4,1,0,379747,,,,,
272464,set_tempo,,,,,4,1,0,387097,,,,,
272464,note_on,,,,,56,0,1,,,,0,83,50
272468,set_tempo,,,,,4,1,0,392157,,,,,
272472,set_tempo,,,,,4,1,0,394737,,,,,
272476,set_tempo,,,,,4,1,0,400000,,,,,
272480,set_tempo,,,,,4,1,0,405405,,,,,
272484,set_tempo,,,,,4,1,0,413793,,,,,
272486,note_off,,,,,22,0,1,,,,0,71,64
272488,set_tempo,,,,,4,1,0,416667,,,,,
272492,set_tempo,,,,,4,1,0,422535,,,,,
272496,set_tempo,,,,,4,1,0,428571,,,,,
272500,set_tempo,,,,,4,1,0,434783,,,,,
272528,note_off,,,,,42,0,1,,,,0,91,64
272550,note_on,,,,,22,0,1,,,,0,55,49
272568,note_on,,,,,18,0,1,,,,0,76,42
272570,note_off,,,,,2,0,1,,,,0,83,64
272594,control_change,,,,,24,0,1,,64,0,0,,
272596,note_off,,,,,2,0,1,,,,0,65,64
272598,note_off,,,,,2,0,1,,,,0,62,64
272648,note_off,,,,,50,0,1,,,,0,76,64
272650,control_change,,,,,2,0,1,,64,127,0,,
272662,note_off,,,,,12,0,1,,,,0,55,64
272664,set_tempo,,,,,164,1,0,431655,,,,,
272668,set_tempo,,,,,4,1,0,428571,,,,,
272672,set_tempo,,,,,4,1,0,425532,,,,,
272676,set_tempo,,,,,4,1,0,422535,,,,,
272680,set_tempo,,,,,4,1,0,419580,,,,,
272684,set_tempo,,,,,4,1,0,416667,,,,,
272696,note_on,,,,,34,0,1,,,,0,93,77
272696,set_tempo,,,,,12,1,0,413793,,,,,
272700,set_tempo,,,,,4,1,0,410959,,,,,
272704,set_tempo,,,,,4,1,0,405405,,,,,
272708,set_tempo,,,,,4,1,0,402685,,,,,
272712,set_tempo,,,,,4,1,0,400000,,,,,
272716,set_tempo,,,,,4,1,0,397351,,,,,
272724,set_tempo,,,,,8,1,0,394737,,,,,
272728,set_tempo,,,,,4,1,0,392157,,,,,
272736,set_tempo,,,,,8,1,0,389610,,,,,
272740,set_tempo,,,,,4,1,0,387097,,,,,
272744,set_tempo,,,,,4,1,0,384615,,,,,
272748,set_tempo,,,,,4,1,0,379747,,,,,
272756,set_tempo,,,,,8,1,0,377358,,,,,
272756,note_on,,,,,60,0,1,,,,0,72,41
272760,set_tempo,,,,,4,1,0,375000,,,,,
272764,set_tempo,,,,,4,1,0,372671,,,,,
272768,set_tempo,,,,,4,1,0,370370,,,,,
272776,set_tempo,,,,,8,1,0,368098,,,,,
272780,set_tempo,,,,,4,1,0,365854,,,,,
272784,set_tempo,,,,,4,1,0,363636,,,,,
272792,set_tempo,,,,,8,1,0,361446,,,,,
272796,set_tempo,,,,,4,1,0,357143,,,,,
272800,set_tempo,,,,,4,1,0,355030,,,,,
272804,set_tempo,,,,,4,1,0,352941,,,,,
272808,set_tempo,,,,,4,1,0,350877,,,,,
272810,note_on,,,,,54,0,1,,,,0,84,46
272816,set_tempo,,,,,8,1,0,348837,,,,,
272824,set_tempo,,,,,8,1,0,346821,,,,,
272828,note_off,,,,,18,0,1,,,,0,93,64
272828,set_tempo,,,,,4,1,0,344828,,,,,
272832,set_tempo,,,,,4,1,0,342857,,,,,
272836,set_tempo,,,,,4,1,0,340909,,,,,
272840,set_tempo,,,,,4,1,0,337079,,,,,
272844,set_tempo,,,,,4,1,0,335196,,,,,
272848,set_tempo,,,,,4,1,0,333333,,,,,
272860,set_tempo,,,,,12,1,0,331492,,,,,
272864,set_tempo,,,,,4,1,0,329670,,,,,
272868,set_tempo,,,,,4,1,0,327869,,,,,
272872,set_tempo,,,,,4,1,0,326087,,,,,
272876,set_tempo,,,,,4,1,0,324324,,,,,
272880,set_tempo,,,,,4,1,0,322581,,,,,
272884,set_tempo,,,,,4,1,0,319149,,,,,
272892,note_on,,,,,64,0,1,,,,0,67,29
272904,note_on,,,,,12,0,1,,,,0,76,40
272966,note_off,,,,,62,0,1,,,,0,76,64
272992,note_on,,,,,26,0,1,,,,0,91,67
273002,note_off,,,,,10,0,1,,,,0,84,64
273052,note_on,,,,,50,0,1,,,,0,64,49
273080,note_off,,,,,28,0,1,,,,0,72,64
273084,note_off,,,,,4,0,1,,,,0,67,64
273092,note_on,,,,,8,0,1,,,,0,84,49
273108,note_off,,,,,16,0,1,,,,0,64,64
273124,note_off,,,,,16,0,1,,,,0,91,64
273184,note_on,,,,,60,0,1,,,,0,76,44
273226,note_off,,,,,42,0,1,,,,0,84,64
273244,note_off,,,,,18,0,1,,,,0,76,64
273270,note_on,,,,,26,0,1,,,,0,91,67
273328,note_on,,,,,58,0,1,,,,0,72,52
273364,note_on,,,,,36,0,1,,,,0,84,47
273444,note_on,,,,,80,0,1,,,,0,76,45
273448,note_on,,,,,4,0,1,,,,0,67,30
273474,note_off,,,,,26,0,1,,,,0,91,64
273480,note_off,,,,,6,0,1,,,,0,84,64
273530,note_on,,,,,50,0,1,,,,0,90,60
273584,note_off,,,,,54,0,1,,,,0,76,64
273584,note_on,,,,,0,0,1,,,,0,64,49
273592,note_off,,,,,8,0,1,,,,0,72,64
273616,note_on,,,,,24,0,1,,,,0,84,51
273658,note_off,,,,,42,0,1,,,,0,67,64
273700,note_off,,,,,42,0,1,,,,0,64,64
273704,note_on,,,,,4,0,1,,,,0,60,46
273720,note_on,,,,,16,0,1,,,,0,76,45
273744,note_off,,,,,24,0,1,,,,0,84,64
273744,note_off,,,,,0,0,1,,,,0,90,64
273778,control_change,,,,,34,0,1,,64,0,0,,
273804,note_on,,,,,26,0,1,,,,0,90,69
273832,control_change,,,,,28,0,1,,64,127,0,,
273850,note_off,,,,,18,0,1,,,,0,76,64
273864,note_on,,,,,14,0,1,,,,0,72,44
273900,note_on,,,,,36,0,1,,,,0,84,51
273990,note_on,,,,,90,0,1,,,,0,76,42
273994,note_on,,,,,4,0,1,,,,0,67,35
274004,note_off,,,,,10,0,1,,,,0,90,64
274026,note_off,,,,,22,0,1,,,,0,84,64
274078,note_on,,,,,52,0,1,,,,0,91,68
274098,note_off,,,,,20,0,1,,,,0,76,64
274136,note_on,,,,,38,0,1,,,,0,64,52
274160,note_off,,,,,24,0,1,,,,0,72,64
274176,note_off,,,,,16,0,1,,,,0,60,64
274180,note_off,,,,,4,0,1,,,,0,67,64
274184,note_on,,,,,4,0,1,,,,0,84,55
274216,note_off,,,,,32,0,1,,,,0,64,64
274272,note_on,,,,,56,0,1,,,,0,76,39
274292,note_off,,,,,20,0,1,,,,0,91,64
274300,note_off,,,,,8,0,1,,,,0,84,64
274340,note_off,,,,,40,0,1,,,,0,76,64
274358,note_on,,,,,18,0,1,,,,0,91,70
274430,note_on,,,,,72,0,1,,,,0,72,51
274460,note_on,,,,,30,0,1,,,,0,84,44
274500,note_off,,,,,40,0,1,,,,0,84,64
274506,note_off,,,,,6,0,1,,,,0,91,64
274544,note_on,,,,,38,0,1,,,,0,67,33
274548,note_on,,,,,4,0,1,,,,0,84,60
274638,note_on,,,,,90,0,1,,,,0,100,86
274682,note_on,,,,,44,0,1,,,,0,64,42
274712,note_off,,,,,30,0,1,,,,0,67,64
274718,note_off,,,,,6,0,1,,,,0,72,64
274720,note_off,,,,,2,0,1,,,,0,84,64
274728,note_off,,,,,8,0,1,,,,0,64,64
274736,note_on,,,,,8,0,1,,,,0,91,59
274798,note_off,,,,,62,0,1,,,,0,100,64
274840,note_on,,,,,42,0,1,,,,0,56,59
274854,note_on,,,,,14,0,1,,,,0,84,59
274876,control_change,,,,,22,0,1,,64,0,0,,
274882,note_off,,,,,6,0,1,,,,0,91,64
274906,control_change,,,,,24,0,1,,64,127,0,,
274954,note_off,,,,,48,0,1,,,,0,56,64
274962,note_on,,,,,8,0,1,,,,0,100,79
275010,note_off,,,,,48,0,1,,,,0,84,64
275016,note_on,,,,,6,0,1,,,,0,72,55
275068,note_on,,,,,52,0,1,,,,0,89,63
275146,note_off,,,,,78,0,1,,,,0,100,64
275156,note_on,,,,,10,0,1,,,,0,65,47
275168,note_on,,,,,12,0,1,,,,0,84,41
275230,note_off,,,,,62,0,1,,,,0,89,64
275252,note_on,,,,,22,0,1,,,,0,98,73
275284,note_off,,,,,32,0,1,,,,0,84,64
275300,note_on,,,,,16,0,1,,,,0,62,51
275324,note_off,,,,,24,0,1,,,,0,72,64
275330,note_off,,,,,6,0,1,,,,0,65,64
275348,note_on,,,,,18,0,1,,,,0,89,61
275400,note_off,,,,,52,0,1,,,,0,62,64
275442,note_on,,,,,42,0,1,,,,0,84,40
275460,note_off,,,,,18,0,1,,,,0,98,64
275476,note_off,,,,,16,0,1,,,,0,89,64
275516,note_off,,,,,40,0,1,,,,0,84,64
275532,note_on,,,,,16,0,1,,,,0,98,73
275582,note_on,,,,,50,0,1,,,,0,72,50
275626,note_on,,,,,44,0,1,,,,0,89,62
275708,note_on,,,,,82,0,1,,,,0,65,37
275716,note_on,,,,,8,0,1,,,,0,84,55
275746,note_off,,,,,30,0,1,,,,0,89,64
275748,note_off,,,,,2,0,1,,,,0,98,64
275806,note_on,,,,,58,0,1,,,,0,97,74
275834,note_on,,,,,28,0,1,,,,0,62,27
275840,note_off,,,,,6,0,1,,,,0,84,64
275856,note_off,,,,,16,0,1,,,,0,72,64
275866,note_off,,,,,10,0,1,,,,0,65,64
275894,note_off,,,,,28,0,1,,,,0,62,64
275896,note_on,,,,,2,0,1,,,,0,89,59
276000,note_on,,,,,104,0,1,,,,0,56,43
276004,note_on,,,,,4,0,1,,,,0,84,40
276034,note_off,,,,,30,0,1,,,,0,97,64
276036,control_change,,,,,2,0,1,,64,0,0,,
276046,note_off,,,,,10,0,1,,,,0,89,64
276090,control_change,,,,,44,0,1,,64,127,0,,
276108,note_on,,,,,18,0,1,,,,0,97,68
276134,note_off,,,,,26,0,1,,,,0,84,64
276148,note_on,,,,,14,0,1,,,,0,73,45
276182,note_off,,,,,34,0,1,,,,0,56,64
276202,note_on,,,,,20,0,1,,,,0,89,51
276272,note_off,,,,,70,0,1,,,,0,97,64
276300,note_on,,,,,28,0,1,,,,0,83,47
276304,note_on,,,,,4,0,1,,,,0,65,50
276342,note_off,,,,,38,0,1,,,,0,73,64
276376,note_off,,,,,34,0,1,,,,0,83,64
276410,note_on,,,,,34,0,1,,,,0,98,69
276448,note_off,,,,,38,0,1,,,,0,89,64
276456,note_on,,,,,8,0,1,,,,0,61,52
276470,note_off,,,,,14,0,1,,,,0,65,64
276502,note_on,,,,,32,0,1,,,,0,89,51
276512,note_off,,,,,10,0,1,,,,0,98,64
276614,note_on,,,,,102,0,1,,,,0,75,89
276614,note_on,,,,,0,0,1,,,,0,83,89
276668,note_off,,,,,54,0,1,,,,0,83,64
276732,note_on,,,,,64,0,1,,,,0,99,81
276752,note_off,,,,,20,0,1,,,,0,61,64
276764,note_off,,,,,12,0,1,,,,0,89,64
276788,note_off,,,,,24,0,1,,,,0,75,64
276796,note_on,,,,,8,0,1,,,,0,65,47
276856,note_on,,,,,60,0,1,,,,0,95,45
276910,note_off,,,,,54,0,1,,,,0,95,64
276912,note_off,,,,,2,0,1,,,,0,99,64
276954,note_on,,,,,42,0,1,,,,0,61,49
276960,note_off,,,,,6,0,1,,,,0,65,64
276974,note_on,,,,,14,0,1,,,,0,89,1
276978,note_on,,,,,4,0,1,,,,0,83,45
277034,note_off,,,,,56,0,1,,,,0,83,64
277076,note_off,,,,,42,0,1,,,,0,89,64
277080,note_on,,,,,4,0,1,,,,0,97,88
277148,note_on,,,,,68,0,1,,,,0,73,90
277234,note_on,,,,,86,0,1,,,,0,89,71
277274,note_off,,,,,40,0,1,,,,0,97,64
277282,note_off,,,,,8,0,1,,,,0,73,64
277284,note_off,,,,,2,0,1,,,,0,61,64
277320,note_off,,,,,36,0,1,,,,0,89,64
277400,note_on,,,,,80,0,1,,,,0,54,75
277434,note_on,,,,,34,0,1,,,,0,83,75
277438,control_change,,,,,4,0,1,,64,127,0,,
277448,set_tempo,,,,,4564,1,0,322581,,,,,
277456,set_tempo,,,,,8,1,0,324324,,,,,
277460,set_tempo,,,,,4,1,0,326087,,,,,
277464,set_tempo,,,,,4,1,0,327869,,,,,
277468,set_tempo,,,,,4,1,0,329670,,,,,
277472,set_tempo,,,,,4,1,0,331492,,,,,
277476,set_tempo,,,,,4,1,0,333333,,,,,
277484,set_tempo,,,,,8,1,0,335196,,,,,
277488,set_tempo,,,,,4,1,0,337079,,,,,
277492,set_tempo,,,,,4,1,0,340909,,,,,
277496,set_tempo,,,,,4,1,0,342857,,,,,
277502,note_off,,,,,64,0,1,,,,0,54,64
277504,set_tempo,,,,,8,1,0,344828,,,,,
277508,set_tempo,,,,,4,1,0,346821,,,,,
277512,set_tempo,,,,,4,1,0,348837,,,,,
277516,set_tempo,,,,,4,1,0,350877,,,,,
277522,note_off,,,,,20,0,1,,,,0,83,64
277524,set_tempo,,,,,8,1,0,352941,,,,,
277528,set_tempo,,,,,4,1,0,355030,,,,,
277532,set_tempo,,,,,4,1,0,357143,,,,,
277532,note_on,,,,,10,0,1,,,,0,95,56
277536,set_tempo,,,,,4,1,0,361446,,,,,
277540,set_tempo,,,,,4,1,0,363636,,,,,
277544,set_tempo,,,,,4,1,0,365854,,,,,
277552,set_tempo,,,,,8,1,0,368098,,,,,
277556,set_tempo,,,,,4,1,0,370370,,,,,
277564,set_tempo,,,,,8,1,0,372671,,,,,
277568,set_tempo,,,,,4,1,0,375000,,,,,
277572,set_tempo,,,,,4,1,0,377358,,,,,
277576,set_tempo,,,,,4,1,0,379747,,,,,
277580,set_tempo,,,,,4,1,0,384615,,,,,
277584,set_tempo,,,,,4,1,0,387097,,,,,
277588,set_tempo,,,,,4,1,0,389610,,,,,
277592,set_tempo,,,,,4,1,0,392157,,,,,
277602,note_off,,,,,70,0,1,,,,0,95,64
277612,note_on,,,,,10,0,1,,,,0,71,77
277624,note_on,,,,,12,0,1,,,,0,85,72
277696,note_off,,,,,72,0,1,,,,0,85,64
277704,note_on,,,,,8,0,1,,,,0,90,15
277778,note_on,,,,,74,0,1,,,,0,66,48
277784,note_on,,,,,6,0,1,,,,0,78,39
277810,note_off,,,,,26,0,1,,,,0,90,64
277834,note_off,,,,,24,0,1,,,,0,71,64
277840,note_off,,,,,6,0,1,,,,0,78,64
277852,note_on,,,,,12,0,1,,,,0,85,46
277890,note_off,,,,,38,0,1,,,,0,85,64
277916,note_on,,,,,26,0,1,,,,0,82,54
277926,note_on,,,,,10,0,1,,,,0,61,51
277928,note_off,,,,,2,0,1,,,,0,66,64
277976,note_off,,,,,48,0,1,,,,0,82,64
277996,note_on,,,,,20,0,1,,,,0,94,51
278050,note_on,,,,,54,0,1,,,,0,85,75
278050,note_on,,,,,0,0,1,,,,0,70,65
278080,note_off,,,,,30,0,1,,,,0,94,64
278116,note_on,,,,,36,0,1,,,,0,90,42
278140,note_off,,,,,24,0,1,,,,0,85,64
278166,note_on,,,,,26,0,1,,,,0,66,54
278176,note_off,,,,,10,0,1,,,,0,70,64
278188,note_on,,,,,0,0,1,,,,0,78,58
278188,note_off,,,,,0,0,1,,,,0,61,64
278188,note_off,,,,,12,0,1,,,,0,66,64
278212,note_off,,,,,24,0,1,,,,0,90,64
278240,note_off,,,,,28,0,1,,,,0,78,64
278254,note_on,,,,,14,0,1,,,,0,85,40
278294,note_off,,,,,40,0,1,,,,0,85,64
278304,control_change,,,,,10,0,1,,64,0,0,,
278312,note_on,,,,,0,0,1,,,,0,46,75
278312,note_on,,,,,8,0,1,,,,0,80,60
278338,control_change,,,,,26,0,1,,64,127,0,,
278360,note_off,,,,,22,0,1,,,,0,80,64
278368,note_off,,,,,8,0,1,,,,0,46,64
278388,note_on,,,,,20,0,1,,,,0,92,43
278404,note_off,,,,,16,0,1,,,,0,92,64
278432,note_on,,,,,28,0,1,,,,0,82,60
278442,note_on,,,,,10,0,1,,,,0,68,80
278450,control_change,,,,,8,0,1,,64,0,0,,
278452,control_change,,,,,2,0,1,,64,127,0,,
278480,note_off,,,,,28,0,1,,,,0,82,64
278512,note_on,,,,,32,0,1,,,,0,86,60
278560,note_off,,,,,48,0,1,,,,0,86,64
278560,note_on,,,,,0,0,1,,,,0,74,56
278588,note_on,,,,,28,0,1,,,,0,62,56
278596,note_off,,,,,8,0,1,,,,0,74,64
278600,note_off,,,,,4,0,1,,,,0,68,64
278632,note_on,,,,,32,0,1,,,,0,82,63
278680,note_off,,,,,48,0,1,,,,0,62,64
278688,note_on,,,,,8,0,1,,,,0,78,49
278692,note_off,,,,,4,0,1,,,,0,82,64
278702,note_on,,,,,10,0,1,,,,0,58,61
278718,note_off,,,,,16,0,1,,,,0,78,64
278744,note_on,,,,,26,0,1,,,,0,90,55
278812,note_on,,,,,68,0,1,,,,0,82,56
278814,note_on,,,,,2,0,1,,,,0,66,73
278822,note_off,,,,,8,0,1,,,,0,90,64
278872,note_on,,,,,50,0,1,,,,0,86,62
278884,note_off,,,,,12,0,1,,,,0,82,64
278932,note_on,,,,,48,0,1,,,,0,62,61
278936,note_off,,,,,4,0,1,,,,0,66,64
278938,note_off,,,,,2,0,1,,,,0,86,64
278938,note_off,,,,,0,0,1,,,,0,58,64
278946,note_off,,,,,8,0,1,,,,0,62,64
278960,note_on,,,,,14,0,1,,,,0,74,57
278974,note_off,,,,,14,0,1,,,,0,74,64
279008,note_on,,,,,34,0,1,,,,0,82,48
279024,note_off,,,,,16,0,1,,,,0,82,64
279080,note_on,,,,,56,0,1,,,,0,47,63
279082,control_change,,,,,2,0,1,,64,0,0,,
279092,note_on,,,,,10,0,1,,,,0,77,59
279114,control_change,,,,,22,0,1,,64,127,0,,
279120,note_off,,,,,6,0,1,,,,0,77,64
279124,note_off,,,,,4,0,1,,,,0,47,64
279176,note_on,,,,,52,0,1,,,,0,89,52
279222,note_on,,,,,46,0,1,,,,0,65,76
279224,note_off,,,,,2,0,1,,,,0,89,64
279238,note_on,,,,,14,0,1,,,,0,79,58
279304,note_on,,,,,66,0,1,,,,0,83,59
279316,note_off,,,,,12,0,1,,,,0,79,64
279320,note_off,,,,,4,0,1,,,,0,65,64
279340,note_on,,,,,20,0,1,,,,0,59,60
279358,note_off,,,,,18,0,1,,,,0,83,64
279364,note_on,,,,,6,0,1,,,,0,71,59
279406,note_off,,,,,42,0,1,,,,0,71,64
279416,note_on,,,,,10,0,1,,,,0,79,53
279436,note_off,,,,,20,0,1,,,,0,79,64
279462,note_off,,,,,26,0,1,,,,0,59,64
279472,note_on,,,,,10,0,1,,,,0,56,66
279474,note_on,,,,,2,0,1,,,,0,75,71
279518,control_change,,,,,44,0,1,,64,0,0,,
279532,note_on,,,,,14,0,1,,,,0,87,64
279540,note_off,,,,,8,0,1,,,,0,75,64
279586,control_change,,,,,46,0,1,,64,127,0,,
279590,note_on,,,,,4,0,1,,,,0,63,75
279596,note_off,,,,,6,0,1,,,,0,87,64
279598,note_on,,,,,2,0,1,,,,0,80,64
279662,note_off,,,,,64,0,1,,,,0,80,64
279668,note_on,,,,,6,0,1,,,,0,83,48
279712,note_on,,,,,44,0,1,,,,0,59,58
279716,note_off,,,,,4,0,1,,,,0,83,64
279724,note_on,,,,,8,0,1,,,,0,71,43
279726,note_off,,,,,2,0,1,,,,0,59,64
279730,note_off,,,,,4,0,1,,,,0,63,64
279732,note_off,,,,,2,0,1,,,,0,56,64
279760,note_off,,,,,28,0,1,,,,0,71,64
279766,note_on,,,,,6,0,1,,,,0,80,64
279800,note_off,,,,,34,0,1,,,,0,80,64
279828,note_on,,,,,28,0,1,,,,0,44,70
279834,control_change,,,,,6,0,1,,64,0,0,,
279840,note_on,,,,,6,0,1,,,,0,73,52
279852,control_change,,,,,12,0,1,,64,127,0,,
279880,note_off,,,,,28,0,1,,,,0,73,64
279896,note_on,,,,,16,0,1,,,,0,85,53
279934,note_off,,,,,38,0,1,,,,0,44,64
279946,note_on,,,,,12,0,1,,,,0,75,61
279948,note_on,,,,,2,0,1,,,,0,61,81
279958,note_off,,,,,10,0,1,,,,0,85,64
280000,note_on,,,,,42,0,1,,,,0,80,51
280012,note_off,,,,,12,0,1,,,,0,75,64
280066,note_on,,,,,54,0,1,,,,0,56,74
280070,note_on,,,,,4,0,1,,,,0,68,74
280088,note_off,,,,,18,0,1,,,,0,61,64
280104,note_off,,,,,16,0,1,,,,0,80,64
280108,note_off,,,,,4,0,1,,,,0,68,64
280130,note_on,,,,,22,0,1,,,,0,75,53
280172,note_off,,,,,42,0,1,,,,0,75,64
280176,note_off,,,,,4,0,1,,,,0,56,64
280190,note_on,,,,,14,0,1,,,,0,71,72
280192,note_on,,,,,2,0,1,,,,0,51,76
280210,control_change,,,,,18,0,1,,64,0,0,,
280254,note_on,,,,,44,0,1,,,,0,83,66
280256,note_off,,,,,2,0,1,,,,0,71,64
280284,control_change,,,,,28,0,1,,64,127,0,,
280310,note_on,,,,,26,0,1,,,,0,59,80
280316,note_on,,,,,6,0,1,,,,0,75,64
280320,note_off,,,,,4,0,1,,,,0,83,64
280376,note_on,,,,,56,0,1,,,,0,80,57
280384,note_off,,,,,8,0,1,,,,0,75,64
280428,note_off,,,,,44,0,1,,,,0,59,64
280428,note_on,,,,,0,0,1,,,,0,56,60
280434,note_on,,,,,6,0,1,,,,0,68,66
280446,note_off,,,,,12,0,1,,,,0,51,64
280462,note_off,,,,,16,0,1,,,,0,80,64
280466,note_off,,,,,4,0,1,,,,0,56,64
280486,note_off,,,,,20,0,1,,,,0,68,64
280500,note_on,,,,,14,0,1,,,,0,75,60
280544,note_off,,,,,44,0,1,,,,0,75,64
280566,note_on,,,,,22,0,1,,,,0,37,66
280570,note_on,,,,,4,0,1,,,,0,71,76
280572,control_change,,,,,2,0,1,,64,0,0,,
280614,control_change,,,,,42,0,1,,64,127,0,,
280636,note_off,,,,,22,0,1,,,,0,37,64
280640,note_off,,,,,4,0,1,,,,0,71,64
280652,note_on,,,,,12,0,1,,,,0,83,54
280688,note_off,,,,,36,0,1,,,,0,83,64
280710,note_on,,,,,22,0,1,,,,0,59,84
280724,note_on,,,,,14,0,1,,,,0,73,67
280772,note_on,,,,,48,0,1,,,,0,78,52
280778,note_off,,,,,6,0,1,,,,0,73,64
280820,note_off,,,,,42,0,1,,,,0,59,64
280832,note_on,,,,,12,0,1,,,,0,54,60
280834,note_on,,,,,2,0,1,,,,0,66,72
280852,note_off,,,,,18,0,1,,,,0,78,64
280882,note_off,,,,,30,0,1,,,,0,66,64
280900,note_on,,,,,18,0,1,,,,0,73,61
280938,note_off,,,,,0,0,1,,,,0,54,64
280938,note_off,,,,,38,0,1,,,,0,73,64
280956,note_on,,,,,18,0,1,,,,0,49,69
280962,note_on,,,,,6,0,1,,,,0,70,74
280976,control_change,,,,,14,0,1,,64,0,0,,
281014,note_off,,,,,38,0,1,,,,0,70,64
281020,note_on,,,,,6,0,1,,,,0,82,65
281046,control_change,,,,,26,0,1,,64,127,0,,
281068,note_on,,,,,22,0,1,,,,0,58,78
281076,note_on,,,,,8,0,1,,,,0,73,75
281108,note_off,,,,,32,0,1,,,,0,82,64
281140,note_on,,,,,32,0,1,,,,0,78,58
281148,note_off,,,,,8,0,1,,,,0,73,64
281192,note_on,,,,,44,0,1,,,,0,54,46
281200,note_on,,,,,8,0,1,,,,0,66,69
281240,note_off,,,,,40,0,1,,,,0,66,64
281240,note_off,,,,,0,0,1,,,,0,58,64
281246,note_on,,,,,6,0,1,,,,0,73,61
281250,note_off,,,,,4,0,1,,,,0,78,64
281258,note_off,,,,,8,0,1,,,,0,49,64
281276,note_off,,,,,18,0,1,,,,0,73,64
281300,control_change,,,,,24,0,1,,64,0,0,,
281312,note_on,,,,,12,0,1,,,,0,46,81
281316,note_on,,,,,4,0,1,,,,0,75,76
281324,note_off,,,,,8,0,1,,,,0,54,64
281340,control_change,,,,,16,0,1,,64,127,0,,
281360,note_off,,,,,20,0,1,,,,0,46,64
281374,note_off,,,,,14,0,1,,,,0,75,64
281384,note_on,,,,,10,0,1,,,,0,87,53
281428,note_off,,,,,44,0,1,,,,0,87,64
281442,note_on,,,,,14,0,1,,,,0,78,65
281444,note_on,,,,,2,0,1,,,,0,63,82
281502,note_on,,,,,58,0,1,,,,0,82,48
281512,note_off,,,,,10,0,1,,,,0,78,64
281558,note_on,,,,,46,0,1,,,,0,58,76
281564,note_on,,,,,6,0,1,,,,0,70,72
281602,note_off,,,,,38,0,1,,,,0,63,64
281614,note_off,,,,,12,0,1,,,,0,70,64
281618,note_on,,,,,4,0,1,,,,0,78,55
281624,note_off,,,,,6,0,1,,,,0,82,64
281664,note_off,,,,,40,0,1,,,,0,78,64
281676,note_off,,,,,12,0,1,,,,0,58,64
281680,note_on,,,,,4,0,1,,,,0,73,81
281684,note_on,,,,,4,0,1,,,,0,54,70
281716,control_change,,,,,32,0,1,,64,0,0,,
281740,note_on,,,,,24,0,1,,,,0,85,76
281742,note_off,,,,,2,0,1,,,,0,73,64
281800,note_on,,,,,58,0,1,,,,0,61,74
281802,control_change,,,,,2,0,1,,64,127,0,,
281806,note_on,,,,,4,0,1,,,,0,78,65
281856,note_off,,,,,50,0,1,,,,0,85,64
281862,note_on,,,,,6,0,1,,,,0,82,53
281868,note_off,,,,,6,0,1,,,,0,78,64
281914,note_on,,,,,46,0,1,,,,0,58,62
281918,note_on,,,,,4,0,1,,,,0,73,66
281920,note_off,,,,,2,0,1,,,,0,61,64
281936,note_off,,,,,16,0,1,,,,0,54,64
281950,note_off,,,,,14,0,1,,,,0,58,64
281976,note_off,,,,,0,0,1,,,,0,82,64
281976,note_off,,,,,26,0,1,,,,0,73,64
281980,note_on,,,,,4,0,1,,,,0,78,58
282004,note_off,,,,,24,0,1,,,,0,78,64
282050,note_on,,,,,46,0,1,,,,0,37,48
282060,control_change,,,,,10,0,1,,64,0,0,,
282064,note_on,,,,,4,0,1,,,,0,70,77
282100,control_change,,,,,36,0,1,,64,127,0,,
282120,note_off,,,,,20,0,1,,,,0,37,64
282130,note_on,,,,,0,0,1,,,,0,82,69
282130,note_off,,,,,10,0,1,,,,0,70,64
282184,note_on,,,,,54,0,1,,,,0,58,84
282192,note_on,,,,,8,0,1,,,,0,73,71
282216,note_off,,,,,24,0,1,,,,0,82,64
282246,note_off,,,,,30,0,1,,,,0,73,64
282248,note_on,,,,,2,0,1,,,,0,77,69
282296,note_off,,,,,48,0,1,,,,0,77,64
282300,note_on,,,,,4,0,1,,,,0,53,69
282318,note_on,,,,,18,0,1,,,,0,65,58
282326,note_off,,,,,8,0,1,,,,0,58,64
282332,note_off,,,,,6,0,1,,,,0,65,64
282362,note_on,,,,,30,0,1,,,,0,73,65
282392,note_off,,,,,30,0,1,,,,0,53,64
282404,note_off,,,,,12,0,1,,,,0,73,64
282424,note_on,,,,,20,0,1,,,,0,47,69
282428,note_on,,,,,4,0,1,,,,0,68,76
282452,control_change,,,,,24,0,1,,64,0,0,,
282466,note_off,,,,,14,0,1,,,,0,68,64
282480,note_on,,,,,14,0,1,,,,0,80,71
282526,control_change,,,,,46,0,1,,64,127,0,,
282540,note_on,,,,,14,0,1,,,,0,56,76
282540,note_on,,,,,0,0,1,,,,0,73,64
282556,note_off,,,,,16,0,1,,,,0,80,64
282600,note_off,,,,,44,0,1,,,,0,73,64
282600,note_on,,,,,0,0,1,,,,0,77,58
282656,note_off,,,,,56,0,1,,,,0,77,64
282658,note_on,,,,,2,0,1,,,,0,53,60
282674,note_on,,,,,16,0,1,,,,0,65,49
282676,note_off,,,,,2,0,1,,,,0,47,64
282686,note_off,,,,,10,0,1,,,,0,56,64
282700,note_off,,,,,14,0,1,,,,0,65,64
282706,note_on,,,,,6,0,1,,,,0,73,61
282732,note_off,,,,,26,0,1,,,,0,73,64
282740,note_off,,,,,8,0,1,,,,0,53,64
282788,note_on,,,,,0,0,1,,,,0,47,75
282788,note_on,,,,,48,0,1,,,,0,74,63
282798,control_change,,,,,10,0,1,,64,0,0,,
282836,note_off,,,,,38,0,1,,,,0,74,64
282836,control_change,,,,,0,0,1,,64,127,0,,
282848,note_on,,,,,12,0,1,,,,0,86,65
282868,note_off,,,,,20,0,1,,,,0,47,64
282914,note_on,,,,,46,0,1,,,,0,77,53
282924,note_on,,,,,10,0,1,,,,0,62,86
282934,note_off,,,,,10,0,1,,,,0,86,64
282976,note_on,,,,,42,0,1,,,,0,80,57
282982,note_off,,,,,6,0,1,,,,0,77,64
283048,note_on,,,,,66,0,1,,,,0,56,73
283052,note_on,,,,,4,0,1,,,,0,68,82
283096,note_off,,,,,44,0,1,,,,0,62,64
283100,note_off,,,,,4,0,1,,,,0,68,64
283106,note_off,,,,,6,0,1,,,,0,80,64
283110,note_on,,,,,4,0,1,,,,0,77,67
283170,note_off,,,,,60,0,1,,,,0,77,64
283172,note_off,,,,,2,0,1,,,,0,56,64
283178,note_on,,,,,6,0,1,,,,0,53,72
283184,note_on,,,,,6,0,1,,,,0,73,67
283192,control_change,,,,,8,0,1,,64,0,0,,
283248,note_on,,,,,56,0,1,,,,0,85,39
283254,note_off,,,,,6,0,1,,,,0,73,64
283256,control_change,,,,,2,0,1,,64,127,0,,
283308,note_on,,,,,52,0,1,,,,0,61,66
283308,note_on,,,,,0,0,1,,,,0,77,63
283372,note_off,,,,,64,0,1,,,,0,85,64
283376,note_on,,,,,4,0,1,,,,0,80,65
283388,note_off,,,,,12,0,1,,,,0,77,64
283414,note_off,,,,,26,0,1,,,,0,80,64
283430,note_on,,,,,16,0,1,,,,0,56,65
283442,note_off,,,,,12,0,1,,,,0,61,64
283448,note_off,,,,,6,0,1,,,,0,53,64
283452,note_on,,,,,4,0,1,,,,0,68,82
283454,note_off,,,,,2,0,1,,,,0,56,64
283488,note_off,,,,,34,0,1,,,,0,68,64
283518,note_on,,,,,30,0,1,,,,0,73,66
283532,note_off,,,,,14,0,1,,,,0,73,64
283618,control_change,,,,,86,0,1,,64,0,0,,
283624,note_on,,,,,6,0,1,,,,0,42,78
283628,note_on,,,,,4,0,1,,,,0,83,77
283652,control_change,,,,,24,0,1,,64,127,0,,
283692,note_off,,,,,40,0,1,,,,0,83,64
283696,note_on,,,,,4,0,1,,,,0,95,64
283734,note_off,,,,,38,0,1,,,,0,42,64
283738,note_off,,,,,4,0,1,,,,0,95,64
283768,note_on,,,,,0,0,1,,,,0,85,72
283768,note_on,,,,,30,0,1,,,,0,71,85
283820,note_on,,,,,52,0,1,,,,0,90,52
283828,note_off,,,,,8,0,1,,,,0,85,64
283880,note_on,,,,,52,0,1,,,,0,78,58
283884,note_on,,,,,4,0,1,,,,0,66,56
283886,note_off,,,,,2,0,1,,,,0,71,64
283896,note_off,,,,,10,0,1,,,,0,90,64
283924,note_off,,,,,28,0,1,,,,0,78,64
283942,note_on,,,,,18,0,1,,,,0,85,34
283960,note_off,,,,,18,0,1,,,,0,85,64
283982,note_off,,,,,22,0,1,,,,0,66,64
283992,note_on,,,,,10,0,1,,,,0,82,64
284000,note_on,,,,,8,0,1,,,,0,61,52
284042,note_off,,,,,42,0,1,,,,0,82,64
284068,note_on,,,,,26,0,1,,,,0,94,64
284112,control_change,,,,,44,0,1,,64,0,0,,
284116,note_on,,,,,4,0,1,,,,0,70,89
284120,note_on,,,,,4,0,1,,,,0,85,82
284122,control_change,,,,,2,0,1,,64,127,0,,
284160,note_off,,,,,38,0,1,,,,0,94,64
284176,note_on,,,,,16,0,1,,,,0,90,61
284192,note_off,,,,,16,0,1,,,,0,85,64
284220,note_on,,,,,28,0,1,,,,0,66,61
284228,note_off,,,,,8,0,1,,,,0,70,64
284244,note_off,,,,,16,0,1,,,,0,61,64
284244,note_on,,,,,0,0,1,,,,0,78,63
284248,note_off,,,,,4,0,1,,,,0,66,64
284254,note_off,,,,,6,0,1,,,,0,90,64
284296,note_off,,,,,42,0,1,,,,0,78,64
284296,note_on,,,,,0,0,1,,,,0,85,63
284344,note_on,,,,,48,0,1,,,,0,46,65
284346,control_change,,,,,2,0,1,,64,0,0,,
284348,note_off,,,,,2,0,1,,,,0,85,64
284356,note_on,,,,,8,0,1,,,,0,80,76
284380,control_change,,,,,24,0,1,,64,127,0,,
284392,note_off,,,,,12,0,1,,,,0,80,64
284416,note_on,,,,,24,0,1,,,,0,92,63
284438,note_off,,,,,22,0,1,,,,0,92,64
284438,note_off,,,,,0,0,1,,,,0,46,64
284468,note_on,,,,,30,0,1,,,,0,68,92
284472,note_on,,,,,4,0,1,,,,0,82,67
284532,note_off,,,,,60,0,1,,,,0,82,64
284536,note_on,,,,,4,0,1,,,,0,86,53
284578,note_off,,,,,42,0,1,,,,0,86,64
284588,note_on,,,,,10,0,1,,,,0,74,63
284596,note_on,,,,,8,0,1,,,,0,62,70
284616,note_off,,,,,20,0,1,,,,0,68,64
284624,note_off,,,,,8,0,1,,,,0,74,64
284632,note_on,,,,,8,0,1,,,,0,82,69
284656,note_off,,,,,24,0,1,,,,0,82,64
284698,note_off,,,,,42,0,1,,,,0,62,64
284702,note_on,,,,,4,0,1,,,,0,78,69
284708,note_on,,,,,6,0,1,,,,0,58,72
284752,note_off,,,,,44,0,1,,,,0,78,64
284754,note_on,,,,,2,0,1,,,,0,90,56
284774,control_change,,,,,20,0,1,,64,0,0,,
284816,note_on,,,,,42,0,1,,,,0,82,71
284818,note_on,,,,,2,0,1,,,,0,66,86
284826,note_off,,,,,8,0,1,,,,0,90,64
284852,control_change,,,,,26,0,1,,64,127,0,,
284868,note_on,,,,,16,0,1,,,,0,86,66
284886,note_off,,,,,18,0,1,,,,0,82,64
284928,note_on,,,,,42,0,1,,,,0,62,59
284936,note_off,,,,,8,0,1,,,,0,86,64
284944,note_on,,,,,0,0,1,,,,0,74,64
284944,note_off,,,,,8,0,1,,,,0,66,64
284946,note_off,,,,,2,0,1,,,,0,58,64
284952,note_off,,,,,6,0,1,,,,0,62,64
284976,note_off,,,,,24,0,1,,,,0,74,64
284992,note_on,,,,,16,0,1,,,,0,82,62
285028,note_off,,,,,36,0,1,,,,0,82,64
285062,control_change,,,,,34,0,1,,64,0,0,,
285064,note_on,,,,,2,0,1,,,,0,77,72
285070,note_on,,,,,6,0,1,,,,0,47,72
285088,note_off,,,,,18,0,1,,,,0,77,64
285094,control_change,,,,,6,0,1,,64,127,0,,
285116,note_off,,,,,22,0,1,,,,0,47,64
285122,note_on,,,,,6,0,1,,,,0,89,67
285170,note_off,,,,,48,0,1,,,,0,89,64
285178,note_on,,,,,8,0,1,,,,0,79,71
285186,note_on,,,,,8,0,1,,,,0,65,88
285240,note_on,,,,,54,0,1,,,,0,83,52
285250,note_off,,,,,10,0,1,,,,0,79,64
285278,note_off,,,,,28,0,1,,,,0,65,64
285294,note_off,,,,,16,0,1,,,,0,83,64
285304,note_on,,,,,10,0,1,,,,0,71,68
285308,note_on,,,,,4,0,1,,,,0,59,69
285342,note_off,,,,,34,0,1,,,,0,71,64
285356,note_on,,,,,14,0,1,,,,0,79,56
285376,note_off,,,,,20,0,1,,,,0,79,64
285410,note_off,,,,,34,0,1,,,,0,59,64
285416,note_on,,,,,6,0,1,,,,0,75,71
285420,note_on,,,,,4,0,1,,,,0,56,72
285442,control_change,,,,,22,0,1,,64,0,0,,
285480,note_on,,,,,0,0,1,,,,0,87,64
285480,note_off,,,,,38,0,1,,,,0,75,64
285506,control_change,,,,,26,0,1,,64,127,0,,
285532,note_on,,,,,26,0,1,,,,0,63,92
285534,note_off,,,,,2,0,1,,,,0,87,64
285540,note_on,,,,,6,0,1,,,,0,80,65
285600,note_off,,,,,60,0,1,,,,0,80,64
285606,note_on,,,,,6,0,1,,,,0,83,56
285646,note_on,,,,,40,0,1,,,,0,59,61
285652,note_off,,,,,6,0,1,,,,0,83,64
285662,note_on,,,,,10,0,1,,,,0,71,53
285664,note_off,,,,,2,0,1,,,,0,63,64
285666,note_off,,,,,0,0,1,,,,0,56,64
285666,note_off,,,,,2,0,1,,,,0,59,64
285698,note_off,,,,,32,0,1,,,,0,71,64
285704,note_on,,,,,6,0,1,,,,0,80,56
285736,note_off,,,,,32,0,1,,,,0,80,64
285762,note_on,,,,,26,0,1,,,,0,73,73
285766,note_on,,,,,4,0,1,,,,0,44,75
285774,control_change,,,,,8,0,1,,64,0,0,,
285798,control_change,,,,,24,0,1,,64,127,0,,
285808,note_on,,,,,10,0,1,,,,0,85,56
285812,note_off,,,,,4,0,1,,,,0,73,64
285840,note_off,,,,,28,0,1,,,,0,85,64
285848,note_off,,,,,8,0,1,,,,0,44,64
285866,note_on,,,,,18,0,1,,,,0,61,88
285880,note_on,,,,,14,0,1,,,,0,75,49
285916,note_off,,,,,36,0,1,,,,0,75,64
285936,note_on,,,,,20,0,1,,,,0,80,63
285982,note_on,,,,,46,0,1,,,,0,56,70
285986,note_on,,,,,4,0,1,,,,0,68,71
285988,note_off,,,,,2,0,1,,,,0,80,64
286030,note_off,,,,,42,0,1,,,,0,68,64
286056,note_on,,,,,26,0,1,,,,0,75,71
286070,note_off,,,,,14,0,1,,,,0,75,64
286092,note_off,,,,,22,0,1,,,,0,56,64
286100,note_off,,,,,8,0,1,,,,0,61,64
286104,note_on,,,,,4,0,1,,,,0,51,81
286120,note_on,,,,,16,0,1,,,,0,71,57
286130,control_change,,,,,10,0,1,,64,0,0,,
286134,note_off,,,,,4,0,1,,,,0,71,64
286176,note_on,,,,,42,0,1,,,,0,83,41
286214,control_change,,,,,38,0,1,,64,127,0,,
286216,note_on,,,,,2,0,1,,,,0,59,85
286240,note_off,,,,,24,0,1,,,,0,83,64
286242,note_on,,,,,2,0,1,,,,0,75,60
286272,note_on,,,,,30,0,1,,,,0,80,66
286276,note_off,,,,,4,0,1,,,,0,75,64
286332,note_off,,,,,56,0,1,,,,0,59,64
286332,note_on,,,,,0,0,1,,,,0,56,72
286336,note_off,,,,,4,0,1,,,,0,80,64
286340,note_on,,,,,4,0,1,,,,0,68,72
286348,note_off,,,,,8,0,1,,,,0,51,64
286360,note_off,,,,,12,0,1,,,,0,56,64
286386,note_off,,,,,26,0,1,,,,0,68,64
286406,note_on,,,,,20,0,1,,,,0,75,62
286422,note_off,,,,,16,0,1,,,,0,75,64
286450,control_change,,,,,28,0,1,,64,0,0,,
286452,note_on,,,,,2,0,1,,,,0,37,69
286466,note_on,,,,,14,0,1,,,,0,71,74
286498,control_change,,,,,32,0,1,,64,127,0,,
286500,note_off,,,,,2,0,1,,,,0,37,64
286516,note_off,,,,,16,0,1,,,,0,71,64
286532,note_on,,,,,16,0,1,,,,0,83,70
286556,note_off,,,,,24,0,1,,,,0,83,64
286584,note_on,,,,,28,0,1,,,,0,59,92
286592,note_on,,,,,8,0,1,,,,0,73,67
286638,note_on,,,,,46,0,1,,,,0,78,60
286652,note_off,,,,,14,0,1,,,,0,73,64
286698,note_on,,,,,46,0,1,,,,0,66,74
286700,note_on,,,,,2,0,1,,,,0,54,69
286708,note_off,,,,,8,0,1,,,,0,78,64
286726,note_off,,,,,18,0,1,,,,0,59,64
286738,note_off,,,,,12,0,1,,,,0,66,64
286746,note_on,,,,,8,0,1,,,,0,73,58
286788,note_off,,,,,42,0,1,,,,0,73,64
286804,note_off,,,,,16,0,1,,,,0,54,64
286808,note_on,,,,,4,0,1,,,,0,49,72
286808,note_on,,,,,0,0,1,,,,0,70,77
286814,control_change,,,,,6,0,1,,64,0,0,,
286866,note_off,,,,,52,0,1,,,,0,70,64
286868,note_on,,,,,2,0,1,,,,0,82,67
286884,control_change,,,,,16,0,1,,64,127,0,,
286922,note_on,,,,,38,0,1,,,,0,58,90
286922,note_on,,,,,0,0,1,,,,0,73,70
286950,note_off,,,,,28,0,1,,,,0,82,64
286988,note_on,,,,,38,0,1,,,,0,78,63
286994,note_off,,,,,6,0,1,,,,0,73,64
287034,note_on,,,,,40,0,1,,,,0,54,52
287038,note_on,,,,,4,0,1,,,,0,66,67
287044,note_off,,,,,6,0,1,,,,0,58,64
287068,note_off,,,,,24,0,1,,,,0,49,64
287084,note_off,,,,,16,0,1,,,,0,66,64
287086,note_on,,,,,2,0,1,,,,0,73,67
287114,note_off,,,,,28,0,1,,,,0,78,64
287116,note_off,,,,,2,0,1,,,,0,73,64
287146,control_change,,,,,30,0,1,,64,0,0,,
287148,note_on,,,,,2,0,1,,,,0,46,81
287150,note_off,,,,,2,0,1,,,,0,54,64
287154,note_on,,,,,4,0,1,,,,0,75,83
287194,control_change,,,,,40,0,1,,64,127,0,,
287200,note_off,,,,,6,0,1,,,,0,46,64
287212,note_off,,,,,12,0,1,,,,0,75,64
287212,note_on,,,,,0,0,1,,,,0,87,63
287268,note_on,,,,,56,0,1,,,,0,63,89
287272,note_on,,,,,4,0,1,,,,0,78,72
287292,note_off,,,,,20,0,1,,,,0,87,64
287328,note_on,,,,,36,0,1,,,,0,82,38
287338,note_off,,,,,10,0,1,,,,0,78,64
287376,note_on,,,,,38,0,1,,,,0,58,72
287384,note_on,,,,,8,0,1,,,,0,70,77
287408,note_off,,,,,24,0,1,,,,0,82,64
287408,note_off,,,,,0,0,1,,,,0,63,64
287426,note_off,,,,,18,0,1,,,,0,70,64
287426,note_on,,,,,0,0,1,,,,0,78,55
287472,note_off,,,,,46,0,1,,,,0,78,64
287474,note_off,,,,,2,0,1,,,,0,58,64
287484,note_on,,,,,10,0,1,,,,0,73,82
287488,note_on,,,,,4,0,1,,,,0,54,72
287520,control_change,,,,,32,0,1,,64,0,0,,
287540,note_on,,,,,20,0,1,,,,0,85,79
287544,note_off,,,,,4,0,1,,,,0,73,64
287580,control_change,,,,,36,0,1,,64,127,0,,
287594,note_on,,,,,14,0,1,,,,0,78,65
287596,note_on,,,,,2,0,1,,,,0,61,89
287636,note_off,,,,,40,0,1,,,,0,85,64
287644,note_on,,,,,8,0,1,,,,0,82,64
287652,note_off,,,,,8,0,1,,,,0,78,64
287700,note_on,,,,,48,0,1,,,,0,58,71
287710,note_on,,,,,10,0,1,,,,0,70,74
287712,note_off,,,,,2,0,1,,,,0,61,64
287720,note_off,,,,,8,0,1,,,,0,54,64
287726,note_off,,,,,6,0,1,,,,0,82,64
287728,note_off,,,,,2,0,1,,,,0,58,64
287748,note_off,,,,,20,0,1,,,,0,70,64
287758,note_on,,,,,10,0,1,,,,0,78,61
287792,note_off,,,,,34,0,1,,,,0,78,64
287818,note_on,,,,,26,0,1,,,,0,37,70
287824,note_on,,,,,6,0,1,,,,0,70,76
287832,control_change,,,,,8,0,1,,64,0,0,,
287872,note_off,,,,,40,0,1,,,,0,70,64
287874,control_change,,,,,2,0,1,,64,127,0,,
287882,note_on,,,,,8,0,1,,,,0,82,54
287918,note_off,,,,,36,0,1,,,,0,82,64
287936,note_on,,,,,18,0,1,,,,0,58,90
287940,note_on,,,,,4,0,1,,,,0,73,67
287986,note_off,,,,,46,0,1,,,,0,73,64
287988,note_on,,,,,2,0,1,,,,0,77,61
288032,note_off,,,,,44,0,1,,,,0,77,64
288042,note_on,,,,,10,0,1,,,,0,65,57
288046,note_on,,,,,4,0,1,,,,0,53,79
288064,note_off,,,,,18,0,1,,,,0,58,64
288080,note_off,,,,,16,0,1,,,,0,65,64
288088,note_on,,,,,8,0,1,,,,0,73,66
288114,note_off,,,,,26,0,1,,,,0,53,64
288124,note_off,,,,,10,0,1,,,,0,73,64
288156,note_on,,,,,32,0,1,,,,0,68,71
288160,note_off,,,,,4,0,1,,,,0,37,64
288160,note_on,,,,,0,0,1,,,,0,47,74
288186,note_off,,,,,26,0,1,,,,0,68,64
288210,control_change,,,,,24,0,1,,64,0,0,,
288212,note_on,,,,,2,0,1,,,,0,80,46
288258,note_on,,,,,0,0,1,,,,0,56,92
288258,note_off,,,,,46,0,1,,,,0,80,64
288260,note_on,,,,,2,0,1,,,,0,73,69
288282,control_change,,,,,22,0,1,,64,127,0,,
288314,note_off,,,,,32,0,1,,,,0,73,64
288318,note_on,,,,,4,0,1,,,,0,77,49
288370,note_on,,,,,52,0,1,,,,0,53,71
288374,note_off,,,,,4,0,1,,,,0,77,64
288384,note_on,,,,,10,0,1,,,,0,65,43
288390,note_off,,,,,6,0,1,,,,0,56,64
288396,note_off,,,,,6,0,1,,,,0,47,64
288402,note_off,,,,,6,0,1,,,,0,65,64
288418,note_on,,,,,16,0,1,,,,0,73,67
288452,note_off,,,,,34,0,1,,,,0,73,64
288452,note_off,,,,,0,0,1,,,,0,53,64
288484,note_on,,,,,32,0,1,,,,0,47,82
288488,note_on,,,,,4,0,1,,,,0,74,74
288500,control_change,,,,,12,0,1,,64,0,0,,
288532,note_off,,,,,32,0,1,,,,0,74,64
288536,control_change,,,,,4,0,1,,64,127,0,,
288540,note_on,,,,,4,0,1,,,,0,86,66
288546,note_off,,,,,6,0,1,,,,0,47,64
288592,note_on,,,,,46,0,1,,,,0,62,93
288614,note_on,,,,,22,0,1,,,,0,77,64
288636,note_off,,,,,22,0,1,,,,0,86,64
288668,note_on,,,,,32,0,1,,,,0,80,66
288678,note_off,,,,,10,0,1,,,,0,77,64
288708,note_on,,,,,30,0,1,,,,0,56,82
288724,note_on,,,,,16,0,1,,,,0,68,69
288740,note_off,,,,,16,0,1,,,,0,62,64
288756,note_off,,,,,16,0,1,,,,0,68,64
288760,note_off,,,,,4,0,1,,,,0,80,64
288776,note_on,,,,,16,0,1,,,,0,77,62
288816,note_off,,,,,40,0,1,,,,0,56,64
288826,note_on,,,,,10,0,1,,,,0,53,79
288830,control_change,,,,,4,0,1,,64,0,0,,
288834,note_on,,,,,4,0,1,,,,0,73,84
288844,note_off,,,,,10,0,1,,,,0,77,64
288890,note_on,,,,,46,0,1,,,,0,85,69
288894,control_change,,,,,4,0,1,,64,127,0,,
288896,note_off,,,,,2,0,1,,,,0,73,64
288940,note_on,,,,,44,0,1,,,,0,61,74
288942,note_on,,,,,2,0,1,,,,0,77,71
289008,note_on,,,,,66,0,1,,,,0,80,65
289018,note_off,,,,,10,0,1,,,,0,77,64
289058,note_off,,,,,40,0,1,,,,0,85,64
289064,note_on,,,,,6,0,1,,,,0,56,79
289074,note_off,,,,,10,0,1,,,,0,61,64
289082,note_off,,,,,8,0,1,,,,0,53,64
289086,note_on,,,,,4,0,1,,,,0,68,62
289096,note_off,,,,,10,0,1,,,,0,56,64
289114,note_off,,,,,18,0,1,,,,0,80,64
289150,note_off,,,,,36,0,1,,,,0,68,64
289152,note_on,,,,,2,0,1,,,,0,73,65
289196,note_off,,,,,44,0,1,,,,0,73,64
289208,control_change,,,,,12,0,1,,64,0,0,,
289216,note_on,,,,,8,0,1,,,,0,42,92
289224,note_on,,,,,8,0,1,,,,0,83,90
289252,control_change,,,,,28,0,1,,64,127,0,,
289284,note_on,,,,,32,0,1,,,,0,95,67
289312,note_off,,,,,28,0,1,,,,0,83,64
289344,note_off,,,,,32,0,1,,,,0,95,64
289358,control_change,,,,,14,0,1,,64,0,0,,
289360,note_on,,,,,2,0,1,,,,0,85,88
289362,note_on,,,,,2,0,1,,,,0,71,93
289390,control_change,,,,,28,0,1,,64,127,0,,
289412,note_on,,,,,22,0,1,,,,0,90,71
289424,note_off,,,,,12,0,1,,,,0,85,64
289474,note_on,,,,,50,0,1,,,,0,78,78
289478,note_on,,,,,4,0,1,,,,0,66,72
289512,note_off,,,,,0,0,1,,,,0,71,64
289512,note_off,,,,,34,0,1,,,,0,90,64
289520,note_off,,,,,8,0,1,,,,0,78,64
289524,note_on,,,,,4,0,1,,,,0,85,66
289554,note_off,,,,,30,0,1,,,,0,85,64
289586,note_on,,,,,32,0,1,,,,0,82,78
289588,note_off,,,,,2,0,1,,,,0,66,64
289590,note_on,,,,,2,0,1,,,,0,61,74
289608,control_change,,,,,18,0,1,,64,0,0,,
289640,note_off,,,,,32,0,1,,,,0,82,64
289644,note_on,,,,,4,0,1,,,,0,94,81
289656,control_change,,,,,12,0,1,,64,127,0,,
289692,note_on,,,,,36,0,1,,,,0,85,81
289696,note_on,,,,,4,0,1,,,,0,70,93
289724,note_off,,,,,28,0,1,,,,0,94,64
289748,note_on,,,,,24,0,1,,,,0,90,52
289764,note_off,,,,,16,0,1,,,,0,85,64
289796,note_on,,,,,32,0,1,,,,0,66,71
289798,note_off,,,,,2,0,1,,,,0,42,64
289804,note_on,,,,,6,0,1,,,,0,78,75
289806,note_off,,,,,2,0,1,,,,0,70,64
289824,note_off,,,,,18,0,1,,,,0,61,64
289826,note_off,,,,,2,0,1,,,,0,90,64
289832,note_off,,,,,6,0,1,,,,0,66,64
289854,note_off,,,,,22,0,1,,,,0,78,64
289864,note_on,,,,,10,0,1,,,,0,85,58
289902,control_change,,,,,38,0,1,,64,0,0,,
289904,note_on,,,,,2,0,1,,,,0,46,86
289910,note_off,,,,,6,0,1,,,,0,85,64
289922,note_on,,,,,12,0,1,,,,0,80,82
289938,control_change,,,,,16,0,1,,64,127,0,,
289964,note_off,,,,,26,0,1,,,,0,80,64
289980,note_on,,,,,16,0,1,,,,0,92,66
290006,note_off,,,,,26,0,1,,,,0,92,64
290026,note_on,,,,,20,0,1,,,,0,68,97
290032,note_on,,,,,6,0,1,,,,0,82,79
290076,note_on,,,,,44,0,1,,,,0,86,70
290086,note_off,,,,,10,0,1,,,,0,82,64
290124,note_off,,,,,38,0,1,,,,0,86,64
290136,note_on,,,,,12,0,1,,,,0,74,69
290138,note_on,,,,,2,0,1,,,,0,62,76
290156,note_off,,,,,18,0,1,,,,0,68,64
290176,note_off,,,,,20,0,1,,,,0,74,64
290176,note_on,,,,,0,0,1,,,,0,82,67
290208,note_off,,,,,32,0,1,,,,0,62,64
290214,note_off,,,,,6,0,1,,,,0,82,64
290236,note_on,,,,,22,0,1,,,,0,78,88
290240,note_on,,,,,4,0,1,,,,0,58,74
290284,note_on,,,,,0,0,1,,,,0,90,53
290284,note_off,,,,,44,0,1,,,,0,78,64
290300,control_change,,,,,16,0,1,,64,0,0,,
290316,control_change,,,,,16,0,1,,64,127,0,,
290336,note_on,,,,,0,0,1,,,,0,82,76
290336,note_off,,,,,20,0,1,,,,0,90,64
290342,note_off,,,,,6,0,1,,,,0,46,64
290346,note_on,,,,,4,0,1,,,,0,66,96
290394,note_on,,,,,48,0,1,,,,0,86,68
290408,note_off,,,,,14,0,1,,,,0,82,64
290448,note_off,,,,,40,0,1,,,,0,86,64
290452,note_on,,,,,4,0,1,,,,0,74,71
290462,note_on,,,,,10,0,1,,,,0,62,68
290476,note_off,,,,,14,0,1,,,,0,66,64
290486,note_off,,,,,10,0,1,,,,0,58,64
290488,note_off,,,,,2,0,1,,,,0,74,64
290488,note_on,,,,,0,0,1,,,,0,82,60
290502,note_off,,,,,14,0,1,,,,0,62,64
290534,note_off,,,,,32,0,1,,,,0,82,64
290560,note_on,,,,,26,0,1,,,,0,77,85
290564,note_on,,,,,4,0,1,,,,0,47,87
290566,control_change,,,,,2,0,1,,64,0,0,,
290600,control_change,,,,,34,0,1,,64,127,0,,
290612,note_on,,,,,12,0,1,,,,0,89,64
290614,note_off,,,,,2,0,1,,,,0,77,64
290672,note_on,,,,,58,0,1,,,,0,79,74
290678,note_on,,,,,6,0,1,,,,0,65,96
290694,note_off,,,,,16,0,1,,,,0,89,64
290750,note_off,,,,,56,0,1,,,,0,79,64
290752,note_on,,,,,2,0,1,,,,0,83,50
290766,note_off,,,,,14,0,1,,,,0,83,64
290780,note_on,,,,,14,0,1,,,,0,59,70
290780,note_on,,,,,0,0,1,,,,0,71,74
290806,note_off,,,,,26,0,1,,,,0,65,64
290824,note_off,,,,,18,0,1,,,,0,71,64
290830,note_on,,,,,6,0,1,,,,0,79,67
290864,note_off,,,,,34,0,1,,,,0,79,64
290876,note_off,,,,,12,0,1,,,,0,59,64
290880,note_on,,,,,4,0,1,,,,0,56,80
290884,note_on,,,,,4,0,1,,,,0,75,87
290902,control_change,,,,,18,0,1,,64,0,0,,
290906,note_off,,,,,4,0,1,,,,0,47,64
290928,control_change,,,,,22,0,1,,64,127,0,,
290938,note_on,,,,,10,0,1,,,,0,87,73
290944,note_off,,,,,6,0,1,,,,0,75,64
290980,note_off,,,,,36,0,1,,,,0,87,64
290988,note_on,,,,,8,0,1,,,,0,63,94
291014,note_on,,,,,26,0,1,,,,0,80,44
291040,note_off,,,,,26,0,1,,,,0,80,64
291042,note_on,,,,,2,0,1,,,,0,83,60
291088,note_on,,,,,46,0,1,,,,0,71,69
291092,note_on,,,,,4,0,1,,,,0,59,72
291102,note_off,,,,,10,0,1,,,,0,83,64
291106,note_off,,,,,4,0,1,,,,0,63,64
291112,note_off,,,,,6,0,1,,,,0,56,64
291120,note_off,,,,,8,0,1,,,,0,59,64
291126,note_off,,,,,6,0,1,,,,0,71,64
291138,note_on,,,,,12,0,1,,,,0,80,64
291168,note_off,,,,,30,0,1,,,,0,80,64
291184,control_change,,,,,16,0,1,,64,0,0,,
291188,note_on,,,,,4,0,1,,,,0,44,87
291200,note_on,,,,,12,0,1,,,,0,73,67
291224,control_change,,,,,24,0,1,,64,127,0,,
291248,note_off,,,,,24,0,1,,,,0,73,64
291252,note_on,,,,,4,0,1,,,,0,85,76
291290,note_off,,,,,38,0,1,,,,0,85,64
291300,note_on,,,,,0,0,1,,,,0,75,76
291300,note_on,,,,,10,0,1,,,,0,61,96
291350,note_on,,,,,50,0,1,,,,0,80,65
291362,note_off,,,,,12,0,1,,,,0,75,64
291406,note_on,,,,,44,0,1,,,,0,56,83
291408,note_on,,,,,2,0,1,,,,0,68,79
291412,note_off,,,,,4,0,1,,,,0,80,64
291430,note_off,,,,,18,0,1,,,,0,61,64
291454,note_off,,,,,24,0,1,,,,0,68,64
291460,note_on,,,,,6,0,1,,,,0,75,64
291496,note_off,,,,,36,0,1,,,,0,75,64
291502,note_off,,,,,6,0,1,,,,0,56,64
291506,note_off,,,,,4,0,1,,,,0,44,64
291520,note_on,,,,,0,0,1,,,,0,71,83
291520,note_on,,,,,14,0,1,,,,0,51,82
291538,control_change,,,,,18,0,1,,64,0,0,,
291578,note_on,,,,,40,0,1,,,,0,83,74
291582,note_off,,,,,4,0,1,,,,0,71,64
291610,control_change,,,,,28,0,1,,64,127,0,,
291640,note_on,,,,,30,0,1,,,,0,75,78
291642,note_on,,,,,2,0,1,,,,0,59,96
291656,note_off,,,,,14,0,1,,,,0,83,64
291692,note_on,,,,,36,0,1,,,,0,80,66
291704,note_off,,,,,12,0,1,,,,0,75,64
291746,note_on,,,,,42,0,1,,,,0,56,80
291752,note_on,,,,,6,0,1,,,,0,68,84
291764,note_off,,,,,12,0,1,,,,0,80,64
291772,note_off,,,,,8,0,1,,,,0,59,64
291792,note_off,,,,,20,0,1,,,,0,51,64
291796,note_off,,,,,0,0,1,,,,0,56,64
291796,note_off,,,,,4,0,1,,,,0,68,64
291810,note_on,,,,,14,0,1,,,,0,75,65
291850,note_off,,,,,40,0,1,,,,0,75,64
291882,control_change,,,,,32,0,1,,64,0,0,,
291884,note_on,,,,,2,0,1,,,,0,37,89
291884,note_on,,,,,0,0,1,,,,0,71,81
291920,note_off,,,,,36,0,1,,,,0,37,64
291926,control_change,,,,,6,0,1,,64,127,0,,
291928,set_tempo,,,,,14336,1,0,389610,,,,,
291934,note_off,,,,,8,0,1,,,,0,71,64
291944,note_on,,,,,10,0,1,,,,0,83,68
291972,set_tempo,,,,,44,1,0,387097,,,,,
291978,note_off,,,,,34,0,1,,,,0,83,64
292010,note_on,,,,,32,0,1,,,,0,59,102
292016,set_tempo,,,,,44,1,0,384615,,,,,
292020,note_on,,,,,10,0,1,,,,0,73,79
292060,set_tempo,,,,,44,1,0,379747,,,,,
292062,note_off,,,,,42,0,1,,,,0,73,64
292066,note_on,,,,,4,0,1,,,,0,78,74
292104,set_tempo,,,,,44,1,0,377358,,,,,
292124,note_on,,,,,58,0,1,,,,0,54,77
292130,note_on,,,,,6,0,1,,,,0,66,57
292148,set_tempo,,,,,44,1,0,375000,,,,,
292152,note_off,,,,,22,0,1,,,,0,78,64
292154,note_off,,,,,2,0,1,,,,0,59,64
292184,note_off,,,,,30,0,1,,,,0,66,64
292192,set_tempo,,,,,44,1,0,372671,,,,,
292202,note_on,,,,,18,0,1,,,,0,73,70
292216,note_off,,,,,14,0,1,,,,0,73,64
292232,note_off,,,,,16,0,1,,,,0,54,64
292236,set_tempo,,,,,44,1,0,370370,,,,,
292240,note_on,,,,,0,0,1,,,,0,70,86
292240,note_on,,,,,8,0,1,,,,0,49,74
292280,control_change,,,,,40,0,1,,64,0,0,,
292292,note_on,,,,,12,0,1,,,,0,82,76
292306,note_off,,,,,14,0,1,,,,0,70,64
292320,set_tempo,,,,,84,1,0,368098,,,,,
292350,note_on,,,,,44,0,1,,,,0,73,79
292352,control_change,,,,,2,0,1,,64,127,0,,
292356,note_on,,,,,4,0,1,,,,0,58,95
292364,set_tempo,,,,,44,1,0,365854,,,,,
292408,note_on,,,,,52,0,1,,,,0,78,62
292408,set_tempo,,,,,44,1,0,363636,,,,,
292422,note_off,,,,,14,0,1,,,,0,82,64
292424,note_off,,,,,2,0,1,,,,0,73,64
292452,set_tempo,,,,,44,1,0,361446,,,,,
292460,note_on,,,,,0,0,1,,,,0,54,67
292460,note_on,,,,,36,0,1,,,,0,66,78
292476,note_off,,,,,16,0,1,,,,0,58,64
292486,note_off,,,,,10,0,1,,,,0,78,64
292494,note_off,,,,,8,0,1,,,,0,49,64
292496,set_tempo,,,,,44,1,0,357143,,,,,
292510,note_off,,,,,16,0,1,,,,0,54,64
292518,note_on,,,,,8,0,1,,,,0,73,74
292520,note_off,,,,,2,0,1,,,,0,66,64
292540,set_tempo,,,,,44,1,0,355030,,,,,
292548,note_off,,,,,28,0,1,,,,0,73,64
292584,set_tempo,,,,,44,1,0,352941,,,,,
292586,note_on,,,,,38,0,1,,,,0,71,85
292588,note_on,,,,,2,0,1,,,,0,46,89
292596,control_change,,,,,8,0,1,,64,0,0,,
292628,set_tempo,,,,,44,1,0,350877,,,,,
292638,note_on,,,,,42,0,1,,,,0,83,66
292642,control_change,,,,,4,0,1,,64,127,0,,
292644,note_off,,,,,2,0,1,,,,0,46,64
292652,note_off,,,,,8,0,1,,,,0,71,64
292708,note_on,,,,,56,0,1,,,,0,73,79
292712,note_on,,,,,4,0,1,,,,0,59,98
292716,set_tempo,,,,,88,1,0,348837,,,,,
292720,note_off,,,,,8,0,1,,,,0,83,64
292760,set_tempo,,,,,44,1,0,346821,,,,,
292764,note_on,,,,,44,0,1,,,,0,78,67
292778,note_off,,,,,14,0,1,,,,0,73,64
292800,set_tempo,,,,,40,1,0,344828,,,,,
292804,note_off,,,,,26,0,1,,,,0,59,64
292828,note_on,,,,,0,0,1,,,,0,54,73
292828,note_on,,,,,24,0,1,,,,0,66,86
292844,set_tempo,,,,,44,1,0,342857,,,,,
292864,note_off,,,,,36,0,1,,,,0,54,64
292872,note_off,,,,,8,0,1,,,,0,66,64
292888,note_on,,,,,16,0,1,,,,0,73,71
292888,set_tempo,,,,,44,1,0,340909,,,,,
292916,note_off,,,,,28,0,1,,,,0,73,64
292932,set_tempo,,,,,44,1,0,337079,,,,,
292938,note_off,,,,,22,0,1,,,,0,78,64
292966,control_change,,,,,28,0,1,,64,0,0,,
292968,note_on,,,,,2,0,1,,,,0,42,86
292972,note_on,,,,,4,0,1,,,,0,72,86
292976,set_tempo,,,,,44,1,0,335196,,,,,
293014,note_off,,,,,42,0,1,,,,0,42,64
293016,control_change,,,,,2,0,1,,64,127,0,,
293020,set_tempo,,,,,44,1,0,333333,,,,,
293036,note_on,,,,,20,0,1,,,,0,84,73
293056,note_off,,,,,20,0,1,,,,0,72,64
293108,set_tempo,,,,,88,1,0,331492,,,,,
293110,note_on,,,,,54,0,1,,,,0,60,99
293118,note_on,,,,,8,0,1,,,,0,78,80
293126,note_off,,,,,8,0,1,,,,0,84,64
293150,note_off,,,,,24,0,1,,,,0,78,64
293152,set_tempo,,,,,44,1,0,329670,,,,,
293172,note_on,,,,,22,0,1,,,,0,82,65
293196,set_tempo,,,,,44,1,0,327869,,,,,
293208,note_off,,,,,36,0,1,,,,0,60,64
293234,note_off,,,,,26,0,1,,,,0,82,64
293240,set_tempo,,,,,44,1,0,326087,,,,,
293246,note_on,,,,,12,0,1,,,,0,54,79
293252,note_on,,,,,6,0,1,,,,0,70,85
293280,set_tempo,,,,,40,1,0,324324,,,,,
293282,note_off,,,,,30,0,1,,,,0,54,64
293324,set_tempo,,,,,44,1,0,322581,,,,,
293324,note_on,,,,,42,0,1,,,,0,78,56
293326,note_off,,,,,2,0,1,,,,0,70,64
293364,note_off,,,,,38,0,1,,,,0,78,64
293368,set_tempo,,,,,44,1,0,319149,,,,,
293398,control_change,,,,,34,0,1,,64,0,0,,
293402,note_on,,,,,4,0,1,,,,0,37,86
293412,set_tempo,,,,,44,1,0,317460,,,,,
293414,note_on,,,,,12,0,1,,,,0,73,82
293442,note_off,,,,,28,0,1,,,,0,37,64
293446,control_change,,,,,4,0,1,,64,127,0,,
293478,note_on,,,,,32,0,1,,,,0,85,76
293500,set_tempo,,,,,88,1,0,315789,,,,,
293502,note_off,,,,,24,0,1,,,,0,73,64
293544,set_tempo,,,,,44,1,0,314136,,,,,
293556,note_on,,,,,54,0,1,,,,0,61,98
293556,note_on,,,,,0,0,1,,,,0,78,86
293588,set_tempo,,,,,44,1,0,312500,,,,,
293632,set_tempo,,,,,44,1,0,310881,,,,,
293636,note_on,,,,,80,0,1,,,,0,82,72
293652,note_off,,,,,16,0,1,,,,0,78,64
293676,set_tempo,,,,,44,1,0,309278,,,,,
293702,note_off,,,,,50,0,1,,,,0,85,64
293716,note_on,,,,,14,0,1,,,,0,70,87
293720,set_tempo,,,,,44,1,0,307692,,,,,
293722,note_on,,,,,6,0,1,,,,0,54,79
293760,set_tempo,,,,,40,1,0,303030,,,,,
293762,note_off,,,,,40,0,1,,,,0,61,64
293768,note_off,,,,,6,0,1,,,,0,54,64
293772,set_tempo,,,,,12,1,0,306122,,,,,
293784,set_tempo,,,,,12,1,0,307692,,,,,
293792,note_on,,,,,24,0,1,,,,0,78,77
293796,set_tempo,,,,,12,1,0,309278,,,,,
293804,note_off,,,,,12,0,1,,,,0,70,64
293808,set_tempo,,,,,12,1,0,310881,,,,,
293812,note_off,,,,,8,0,1,,,,0,82,64
293820,set_tempo,,,,,12,1,0,312500,,,,,
293832,set_tempo,,,,,12,1,0,314136,,,,,
293844,set_tempo,,,,,12,1,0,315789,,,,,
293856,set_tempo,,,,,12,1,0,317460,,,,,
293864,note_off,,,,,52,0,1,,,,0,78,64
293872,note_on,,,,,8,0,1,,,,0,54,82
293880,set_tempo,,,,,24,1,0,319149,,,,,
293888,set_tempo,,,,,8,1,0,322581,,,,,
293894,control_change,,,,,22,0,1,,64,0,0,,
293900,set_tempo,,,,,12,1,0,324324,,,,,
293912,set_tempo,,,,,12,1,0,326087,,,,,
293924,set_tempo,,,,,12,1,0,327869,,,,,
293936,set_tempo,,,,,12,1,0,329670,,,,,
293942,control_change,,,,,48,0,1,,64,127,0,,
293948,set_tempo,,,,,12,1,0,331492,,,,,
293960,note_on,,,,,18,0,1,,,,0,62,96
293960,set_tempo,,,,,12,1,0,333333,,,,,
293984,set_tempo,,,,,24,1,0,335196,,,,,
293984,note_off,,,,,24,0,1,,,,0,54,64
293996,set_tempo,,,,,12,1,0,337079,,,,,
294004,set_tempo,,,,,8,1,0,340909,,,,,
294054,note_on,,,,,70,0,1,,,,0,69,92
294120,note_on,,,,,66,0,1,,,,0,74,80
294160,note_off,,,,,40,0,1,,,,0,69,64
294180,note_on,,,,,20,0,1,,,,0,78,79
294182,note_off,,,,,2,0,1,,,,0,62,64
294254,note_on,,,,,72,0,1,,,,0,86,77
294266,note_off,,,,,12,0,1,,,,0,78,64
294300,note_off,,,,,34,0,1,,,,0,74,64
294338,note_on,,,,,38,0,1,,,,0,81,68
294404,note_off,,,,,66,0,1,,,,0,86,64
294404,note_on,,,,,0,0,1,,,,0,78,68
294428,note_off,,,,,24,0,1,,,,0,81,64
294448,note_off,,,,,20,0,1,,,,0,78,64
294450,note_on,,,,,2,0,1,,,,0,74,68
294468,note_off,,,,,18,0,1,,,,0,74,64
294508,note_on,,,,,40,0,1,,,,0,69,71
294560,note_on,,,,,52,0,1,,,,0,66,75
294580,note_off,,,,,20,0,1,,,,0,69,64
294594,note_off,,,,,14,0,1,,,,0,66,64
294616,note_on,,,,,22,0,1,,,,0,62,78
294644,note_off,,,,,28,0,1,,,,0,62,64
294676,note_on,,,,,32,0,1,,,,0,57,80
294740,note_on,,,,,64,0,1,,,,0,54,80
294758,note_off,,,,,18,0,1,,,,0,57,64
294796,note_off,,,,,38,0,1,,,,0,54,64
294804,note_on,,,,,8,0,1,,,,0,50,80
294834,note_off,,,,,30,0,1,,,,0,50,64
294874,note_on,,,,,40,0,1,,,,0,45,80
294876,note_on,,,,,2,0,1,,,,0,33,80
294910,control_change,,,,,34,0,1,,64,0,0,,
294942,note_off,,,,,32,0,1,,,,0,45,64
294972,note_off,,,,,30,0,1,,,,0,33,64
294974,control_change,,,,,2,0,1,,64,127,0,,
294976,note_on,,,,,2,0,1,,,,0,50,80
294978,note_on,,,,,2,0,1,,,,0,38,80
295028,note_off,,,,,50,0,1,,,,0,50,64
295032,note_off,,,,,4,0,1,,,,0,38,64
295052,note_on,,,,,20,0,1,,,,0,54,78
295054,note_on,,,,,2,0,1,,,,0,42,78
295100,note_off,,,,,46,0,1,,,,0,54,64
295108,note_on,,,,,8,0,1,,,,0,57,78
295122,note_on,,,,,14,0,1,,,,0,45,78
295132,note_off,,,,,10,0,1,,,,0,42,64
295140,note_off,,,,,8,0,1,,,,0,57,64
295184,note_on,,,,,44,0,1,,,,0,62,83
295186,note_off,,,,,2,0,1,,,,0,45,64
295192,note_on,,,,,6,0,1,,,,0,50,83
295234,note_off,,,,,42,0,1,,,,0,50,64
295238,note_on,,,,,4,0,1,,,,0,66,84
295240,note_off,,,,,2,0,1,,,,0,62,64
295250,note_on,,,,,10,0,1,,,,0,54,84
295288,note_off,,,,,38,0,1,,,,0,66,64
295304,note_on,,,,,16,0,1,,,,0,69,86
295310,note_on,,,,,6,0,1,,,,0,57,87
295312,note_off,,,,,2,0,1,,,,0,54,64
295330,note_off,,,,,18,0,1,,,,0,69,64
295352,note_off,,,,,22,0,1,,,,0,57,64
295356,note_on,,,,,4,0,1,,,,0,74,87
295360,note_on,,,,,4,0,1,,,,0,62,87
295400,note_off,,,,,40,0,1,,,,0,62,64
295410,note_on,,,,,10,0,1,,,,0,78,92
295414,note_off,,,,,4,0,1,,,,0,74,64
295418,note_on,,,,,4,0,1,,,,0,66,92
295454,note_off,,,,,36,0,1,,,,0,78,64
295456,note_on,,,,,2,0,1,,,,0,81,93
295474,note_off,,,,,18,0,1,,,,0,66,64
295478,note_on,,,,,4,0,1,,,,0,69,93
295482,note_off,,,,,4,0,1,,,,0,81,64
295506,note_off,,,,,24,0,1,,,,0,69,64
295514,note_on,,,,,8,0,1,,,,0,74,95
295526,note_on,,,,,12,0,1,,,,0,86,96
295556,note_off,,,,,30,0,1,,,,0,74,64
295570,note_on,,,,,14,0,1,,,,0,90,99
295572,note_on,,,,,2,0,1,,,,0,78,99
295588,note_off,,,,,16,0,1,,,,0,86,64
295606,note_on,,,,,18,0,1,,,,0,93,101
295614,note_off,,,,,8,0,1,,,,0,90,64
295620,note_off,,,,,6,0,1,,,,0,78,64
295622,note_on,,,,,2,0,1,,,,0,81,102
295652,note_on,,,,,30,0,1,,,,0,98,105
295662,note_off,,,,,0,0,1,,,,0,93,64
295662,note_off,,,,,10,0,1,,,,0,81,64
295664,note_on,,,,,2,0,1,,,,0,86,107
295684,note_off,,,,,20,0,1,,,,0,98,64
295694,note_off,,,,,10,0,1,,,,0,86,64
296640,set_tempo,,,,,2636,1,0,342857,,,,,
296656,set_tempo,,,,,16,1,0,344828,,,,,
296668,set_tempo,,,,,12,1,0,346821,,,,,
296680,set_tempo,,,,,12,1,0,348837,,,,,
296692,set_tempo,,,,,12,1,0,350877,,,,,
296716,set_tempo,,,,,24,1,0,352941,,,,,
296732,set_tempo,,,,,16,1,0,355030,,,,,
296744,set_tempo,,,,,12,1,0,357143,,,,,
296756,set_tempo,,,,,12,1,0,361446,,,,,
296768,set_tempo,,,,,12,1,0,363636,,,,,
296780,set_tempo,,,,,12,1,0,365854,,,,,
296792,set_tempo,,,,,12,1,0,368098,,,,,
296800,note_on,,,,,1106,0,1,,,,0,86,78
296802,note_on,,,,,2,0,1,,,,0,62,82
296806,note_on,,,,,4,0,1,,,,0,74,78
296808,set_tempo,,,,,16,1,0,370370,,,,,
296832,set_tempo,,,,,24,1,0,372671,,,,,
296844,set_tempo,,,,,12,1,0,375000,,,,,
296856,set_tempo,,,,,12,1,0,377358,,,,,
296868,set_tempo,,,,,12,1,0,379747,,,,,
296880,set_tempo,,,,,12,1,0,384615,,,,,
296896,set_tempo,,,,,16,1,0,387097,,,,,
296908,set_tempo,,,,,12,1,0,389610,,,,,
296920,set_tempo,,,,,12,1,0,392157,,,,,
296944,set_tempo,,,,,24,1,0,394737,,,,,
296956,set_tempo,,,,,12,1,0,397351,,,,,
296972,set_tempo,,,,,16,1,0,400000,,,,,
296984,set_tempo,,,,,12,1,0,402685,,,,,
296996,set_tempo,,,,,12,1,0,405405,,,,,
297008,set_tempo,,,,,12,1,0,410959,,,,,
297020,set_tempo,,,,,12,1,0,413793,,,,,
297032,set_tempo,,,,,12,1,0,416667,,,,,
297048,note_on,,,,,242,0,1,,,,0,95,86
297050,note_on,,,,,2,0,1,,,,0,83,86
297052,note_on,,,,,2,0,1,,,,0,71,85
297060,set_tempo,,,,,28,1,0,419580,,,,,
297072,set_tempo,,,,,12,1,0,422535,,,,,
297084,set_tempo,,,,,12,1,0,425532,,,,,
297086,control_change,,,,,34,0,1,,64,127,0,,
297096,set_tempo,,,,,12,1,0,428571,,,,,
297108,set_tempo,,,,,12,1,0,431655,,,,,
297120,set_tempo,,,,,12,1,0,434783,,,,,
297160,note_off,,,,,74,0,1,,,,0,86,64
297166,note_off,,,,,6,0,1,,,,0,74,64
297188,note_off,,,,,22,0,1,,,,0,62,64
297200,note_on,,,,,12,0,1,,,,0,93,83
297202,note_off,,,,,2,0,1,,,,0,71,64
297208,note_on,,,,,0,0,1,,,,0,69,82
297208,note_on,,,,,6,0,1,,,,0,81,83
297256,note_off,,,,,48,0,1,,,,0,95,64
297258,note_off,,,,,2,0,1,,,,0,83,64
297304,note_off,,,,,46,0,1,,,,0,69,64
297306,note_on,,,,,2,0,1,,,,0,67,74
297312,note_on,,,,,6,0,1,,,,0,91,84
297316,note_on,,,,,4,0,1,,,,0,79,84
297342,note_off,,,,,26,0,1,,,,0,93,64
297350,note_off,,,,,8,0,1,,,,0,81,64
297396,note_on,,,,,46,0,1,,,,0,66,83
297400,note_on,,,,,4,0,1,,,,0,90,89
297400,note_on,,,,,0,0,1,,,,0,78,89
297402,note_off,,,,,2,0,1,,,,0,67,64
297404,note_off,,,,,2,0,1,,,,0,91,64
297408,note_off,,,,,4,0,1,,,,0,79,64
297448,note_off,,,,,40,0,1,,,,0,66,64
297468,note_off,,,,,20,0,1,,,,0,78,64
297468,note_off,,,,,0,0,1,,,,0,90,64
297486,note_on,,,,,18,0,1,,,,0,64,92
297488,note_on,,,,,2,0,1,,,,0,88,75
297494,note_on,,,,,6,0,1,,,,0,76,75
297532,note_off,,,,,38,0,1,,,,0,88,64
297536,note_off,,,,,4,0,1,,,,0,64,64
297538,note_off,,,,,2,0,1,,,,0,76,64
297572,note_on,,,,,0,0,1,,,,0,62,83
297572,note_on,,,,,34,0,1,,,,0,74,83
297576,note_on,,,,,4,0,1,,,,0,86,83
297676,note_on,,,,,100,0,1,,,,0,78,81
297680,note_on,,,,,4,0,1,,,,0,90,81
297680,note_on,,,,,0,0,1,,,,0,66,91
297704,note_off,,,,,24,0,1,,,,0,74,64
297708,note_off,,,,,4,0,1,,,,0,86,64
297710,note_off,,,,,2,0,1,,,,0,62,64
297784,note_on,,,,,0,0,1,,,,0,69,79
297784,note_on,,,,,74,0,1,,,,0,81,79
297784,note_on,,,,,0,0,1,,,,0,57,81
297786,note_off,,,,,2,0,1,,,,0,66,64
297904,note_on,,,,,118,0,1,,,,0,86,88
297916,note_on,,,,,12,0,1,,,,0,74,88
297922,note_on,,,,,6,0,1,,,,0,62,92
297936,note_off,,,,,0,0,1,,,,0,81,64
297936,note_off,,,,,14,0,1,,,,0,69,64
297948,note_off,,,,,12,0,1,,,,0,57,64
297954,control_change,,,,,6,0,1,,64,0,0,,
297962,note_off,,,,,8,0,1,,,,0,78,64
297966,note_off,,,,,4,0,1,,,,0,90,64
298040,control_change,,,,,74,0,1,,64,127,0,,
298190,note_off,,,,,150,0,1,,,,0,62,64
298220,note_off,,,,,30,0,1,,,,0,86,64
298220,note_on,,,,,0,0,1,,,,0,61,81
298222,note_on,,,,,2,0,1,,,,0,73,88
298224,note_on,,,,,2,0,1,,,,0,85,88
298232,note_off,,,,,8,0,1,,,,0,74,64
298252,note_off,,,,,20,0,1,,,,0,73,64
298254,note_off,,,,,2,0,1,,,,0,85,64
298254,note_off,,,,,0,0,1,,,,0,61,64
298278,note_on,,,,,24,0,1,,,,0,73,85
298280,note_on,,,,,0,0,1,,,,0,61,94
298280,note_on,,,,,2,0,1,,,,0,85,85
298322,note_off,,,,,42,0,1,,,,0,61,64
298338,note_off,,,,,16,0,1,,,,0,73,64
298340,note_off,,,,,2,0,1,,,,0,85,64
298532,note_on,,,,,192,0,1,,,,0,37,98
298578,note_off,,,,,46,0,1,,,,0,37,64
298760,note_on,,,,,0,0,1,,,,0,59,87
298760,note_on,,,,,0,0,1,,,,0,62,88
298760,note_on,,,,,182,0,1,,,,0,71,88
298764,note_on,,,,,4,0,1,,,,0,66,92
298764,note_on,,,,,0,0,1,,,,0,50,82
298764,note_on,,,,,0,0,1,,,,0,54,90
298916,note_off,,,,,0,0,1,,,,0,62,64
298916,note_off,,,,,152,0,1,,,,0,50,64
298930,note_off,,,,,14,0,1,,,,0,71,64
298934,note_off,,,,,4,0,1,,,,0,59,64
298940,note_off,,,,,6,0,1,,,,0,66,64
298948,note_off,,,,,8,0,1,,,,0,54,64
299202,note_on,,,,,254,0,1,,,,0,71,91
299204,note_on,,,,,2,0,1,,,,0,59,90
299208,note_on,,,,,4,0,1,,,,0,83,91
299368,note_on,,,,,160,0,1,,,,0,91,91
299372,note_on,,,,,4,0,1,,,,0,67,77
299374,note_on,,,,,2,0,1,,,,0,79,91
299390,control_change,,,,,16,0,1,,64,0,0,,
299450,control_change,,,,,60,0,1,,64,127,0,,
299504,note_on,,,,,54,0,1,,,,0,78,87
299516,note_on,,,,,12,0,1,,,,0,66,84
299520,note_on,,,,,4,0,1,,,,0,90,87
299522,note_off,,,,,2,0,1,,,,0,71,64
299528,note_off,,,,,6,0,1,,,,0,67,64
299528,note_off,,,,,0,0,1,,,,0,83,64
299562,note_off,,,,,34,0,1,,,,0,91,64
299568,note_off,,,,,6,0,1,,,,0,59,64
299568,note_off,,,,,0,0,1,,,,0,79,64
299590,note_off,,,,,22,0,1,,,,0,66,64
299612,note_on,,,,,0,0,1,,,,0,76,74
299612,note_on,,,,,22,0,1,,,,0,88,74
299616,note_on,,,,,4,0,1,,,,0,64,91
299656,note_off,,,,,40,0,1,,,,0,78,64
299672,note_off,,,,,16,0,1,,,,0,90,64
299696,note_on,,,,,0,0,1,,,,0,86,77
299696,note_off,,,,,0,0,1,,,,0,88,64
299696,note_off,,,,,24,0,1,,,,0,76,64
299698,note_on,,,,,0,0,1,,,,0,62,76
299698,note_on,,,,,2,0,1,,,,0,74,77
299714,note_off,,,,,16,0,1,,,,0,64,64
299772,note_on,,,,,58,0,1,,,,0,85,77
299778,note_off,,,,,6,0,1,,,,0,62,64
299780,note_on,,,,,0,0,1,,,,0,61,88
299780,note_on,,,,,2,0,1,,,,0,73,89
299794,note_off,,,,,14,0,1,,,,0,86,64
299796,note_off,,,,,2,0,1,,,,0,74,64
299858,note_on,,,,,62,0,1,,,,0,71,84
299860,note_on,,,,,2,0,1,,,,0,83,84
299868,note_on,,,,,8,0,1,,,,0,59,94
299870,note_off,,,,,2,0,1,,,,0,73,64
299870,note_off,,,,,0,0,1,,,,0,85,64
299888,note_off,,,,,18,0,1,,,,0,61,64
299946,note_off,,,,,58,0,1,,,,0,59,64
299956,note_on,,,,,10,0,1,,,,0,86,82
299958,note_on,,,,,2,0,1,,,,0,74,82
299958,note_on,,,,,0,0,1,,,,0,62,93
299968,note_off,,,,,10,0,1,,,,0,71,64
299970,note_off,,,,,2,0,1,,,,0,83,64
300044,note_on,,,,,0,0,1,,,,0,54,86
300044,note_on,,,,,74,0,1,,,,0,66,91
300072,note_off,,,,,28,0,1,,,,0,62,64
300148,control_change,,,,,76,0,1,,64,0,0,,
300172,note_on,,,,,24,0,1,,,,0,83,82
300178,note_on,,,,,6,0,1,,,,0,71,88
300178,note_on,,,,,0,0,1,,,,0,59,91
300184,control_change,,,,,6,0,1,,64,127,0,,
300218,note_off,,,,,34,0,1,,,,0,86,64
300220,note_off,,,,,2,0,1,,,,0,74,64
300224,note_off,,,,,4,0,1,,,,0,66,64
300408,note_on,,,,,184,0,1,,,,0,81,83
300410,note_on,,,,,2,0,1,,,,0,57,83
300420,note_on,,,,,10,0,1,,,,0,69,83
300424,note_off,,,,,4,0,1,,,,0,59,64
300424,note_off,,,,,0,0,1,,,,0,54,64
300432,note_off,,,,,8,0,1,,,,0,81,64
300434,note_off,,,,,2,0,1,,,,0,71,64
300434,note_off,,,,,0,0,1,,,,0,83,64
300444,note_off,,,,,0,0,1,,,,0,57,64
300444,note_off,,,,,10,0,1,,,,0,69,64
300472,note_on,,,,,28,0,1,,,,0,81,93
300476,note_on,,,,,4,0,1,,,,0,69,93
300480,note_on,,,,,4,0,1,,,,0,57,102
300484,control_change,,,,,4,0,1,,64,0,0,,
300490,control_change,,,,,6,0,1,,64,127,0,,
300518,note_off,,,,,28,0,1,,,,0,57,64
300524,note_off,,,,,6,0,1,,,,0,81,64
300528,note_off,,,,,4,0,1,,,,0,69,64
300676,note_on,,,,,148,0,1,,,,0,37,107
300712,note_off,,,,,36,0,1,,,,0,37,64
300900,note_on,,,,,0,0,1,,,,0,62,87
300900,note_on,,,,,188,0,1,,,,0,67,81
300902,note_on,,,,,2,0,1,,,,0,59,88
300904,note_on,,,,,0,0,1,,,,0,50,90
300904,note_on,,,,,2,0,1,,,,0,55,91
300912,note_on,,,,,8,0,1,,,,0,47,82
300944,control_change,,,,,32,0,1,,64,0,0,,
301014,control_change,,,,,70,0,1,,64,127,0,,
301080,note_off,,,,,66,0,1,,,,0,59,64
301094,note_off,,,,,0,0,1,,,,0,62,64
301094,note_off,,,,,14,0,1,,,,0,47,64
301098,note_off,,,,,4,0,1,,,,0,55,64
301102,note_off,,,,,4,0,1,,,,0,50,64
301108,note_off,,,,,6,0,1,,,,0,67,64
301320,note_on,,,,,212,0,1,,,,0,79,83
301320,note_on,,,,,0,0,1,,,,0,67,83
301322,note_on,,,,,2,0,1,,,,0,55,84
301492,note_on,,,,,170,0,1,,,,0,88,90
301500,note_on,,,,,8,0,1,,,,0,64,94
301504,note_on,,,,,4,0,1,,,,0,76,90
301518,control_change,,,,,14,0,1,,64,0,0,,
301578,control_change,,,,,60,0,1,,64,127,0,,
301632,note_on,,,,,54,0,1,,,,0,86,80
301636,note_on,,,,,4,0,1,,,,0,74,80
301638,note_on,,,,,2,0,1,,,,0,62,85
301656,note_off,,,,,18,0,1,,,,0,64,64
301656,note_off,,,,,0,0,1,,,,0,67,64
301656,note_off,,,,,0,0,1,,,,0,79,64
301662,note_off,,,,,6,0,1,,,,0,55,64
301688,note_off,,,,,26,0,1,,,,0,88,64
301700,note_off,,,,,12,0,1,,,,0,76,64
301748,note_on,,,,,48,0,1,,,,0,85,97
301748,note_on,,,,,0,0,1,,,,0,61,92
301752,note_on,,,,,4,0,1,,,,0,73,97
301754,note_off,,,,,2,0,1,,,,0,62,64
301786,note_off,,,,,32,0,1,,,,0,86,64
301790,note_off,,,,,4,0,1,,,,0,74,64
301816,note_off,,,,,26,0,1,,,,0,61,64
301836,note_on,,,,,20,0,1,,,,0,83,88
301838,note_on,,,,,0,0,1,,,,0,59,86
301838,note_on,,,,,2,0,1,,,,0,71,88
301852,note_off,,,,,14,0,1,,,,0,85,64
301856,note_off,,,,,4,0,1,,,,0,73,64
301898,note_off,,,,,42,0,1,,,,0,59,64
301908,note_off,,,,,10,0,1,,,,0,83,64
301910,note_off,,,,,2,0,1,,,,0,71,64
301924,note_on,,,,,14,0,1,,,,0,69,82
301926,note_on,,,,,2,0,1,,,,0,57,85
301928,note_on,,,,,2,0,1,,,,0,81,82
302012,note_on,,,,,0,0,1,,,,0,67,85
302012,note_on,,,,,84,0,1,,,,0,79,85
302016,note_on,,,,,4,0,1,,,,0,55,88
302028,note_off,,,,,12,0,1,,,,0,69,64
302032,note_off,,,,,4,0,1,,,,0,81,64
302046,note_off,,,,,14,0,1,,,,0,57,64
302128,note_on,,,,,82,0,1,,,,0,83,88
302130,note_on,,,,,0,0,1,,,,0,71,88
302130,note_off,,,,,2,0,1,,,,0,55,64
302134,note_on,,,,,4,0,1,,,,0,59,95
302144,note_off,,,,,0,0,1,,,,0,79,64
302144,note_off,,,,,10,0,1,,,,0,67,64
302212,note_on,,,,,68,0,1,,,,0,74,88
302224,note_on,,,,,12,0,1,,,,0,62,88
302232,note_on,,,,,8,0,1,,,,0,50,88
302280,note_off,,,,,48,0,1,,,,0,59,64
302368,note_on,,,,,88,0,1,,,,0,79,102
302368,note_on,,,,,0,0,1,,,,0,55,102
302368,note_on,,,,,0,0,1,,,,0,67,102
302392,note_off,,,,,24,0,1,,,,0,74,64
302404,note_off,,,,,12,0,1,,,,0,62,64
302430,note_off,,,,,26,0,1,,,,0,50,64
302438,note_off,,,,,8,0,1,,,,0,55,64
302450,note_off,,,,,12,0,1,,,,0,79,64
302450,note_off,,,,,0,0,1,,,,0,67,64
302462,note_off,,,,,12,0,1,,,,0,83,64
302464,note_off,,,,,2,0,1,,,,0,71,64
302768,note_on,,,,,0,0,1,,,,0,50,78
302768,note_on,,,,,0,0,1,,,,0,54,79
302768,note_on,,,,,304,0,1,,,,0,59,82
302772,note_on,,,,,0,0,1,,,,0,37,86
302772,note_on,,,,,4,0,1,,,,0,66,75
302794,note_off,,,,,22,0,1,,,,0,54,64
302798,note_off,,,,,4,0,1,,,,0,37,64
302800,note_off,,,,,2,0,1,,,,0,66,64
302800,note_off,,,,,0,0,1,,,,0,59,64
302800,note_off,,,,,0,0,1,,,,0,50,64
302832,note_on,,,,,32,0,1,,,,0,59,87
302832,note_on,,,,,0,0,1,,,,0,54,87
302834,note_on,,,,,2,0,1,,,,0,66,81
302836,note_on,,,,,2,0,1,,,,0,50,93
302838,note_on,,,,,2,0,1,,,,0,37,89
302868,control_change,,,,,30,0,1,,64,0,0,,
302954,control_change,,,,,86,0,1,,64,127,0,,
303072,note_off,,,,,118,0,1,,,,0,50,64
303076,note_off,,,,,4,0,1,,,,0,54,64
303080,note_off,,,,,4,0,1,,,,0,37,64
303090,note_off,,,,,10,0,1,,,,0,59,64
303096,note_off,,,,,6,0,1,,,,0,66,64
303120,set_tempo,,,,,6000,1,0,441176,,,,,
303124,set_tempo,,,,,4,1,0,444444,,,,,
303128,set_tempo,,,,,4,1,0,451128,,,,,
303132,set_tempo,,,,,4,1,0,458015,,,,,
303136,set_tempo,,,,,4,1,0,468750,,,,,
303140,set_tempo,,,,,4,1,0,476190,,,,,
303144,set_tempo,,,,,4,1,0,483871,,,,,
303148,set_tempo,,,,,4,1,0,495868,,,,,
303152,set_tempo,,,,,4,1,0,504202,,,,,
303156,set_tempo,,,,,4,1,0,512821,,,,,
303160,set_tempo,,,,,4,1,0,521739,,,,,
303164,set_tempo,,,,,4,1,0,535714,,,,,
303168,set_tempo,,,,,4,1,0,545455,,,,,
303172,set_tempo,,,,,4,1,0,555556,,,,,
303176,set_tempo,,,,,4,1,0,571429,,,,,
303300,note_on,,,,,204,0,1,,,,0,37,77
303302,note_on,,,,,2,0,1,,,,0,65,83
303304,note_on,,,,,2,0,1,,,,0,59,81
303306,note_on,,,,,2,0,1,,,,0,53,83
303306,note_on,,,,,0,0,1,,,,0,44,81
303308,note_on,,,,,2,0,1,,,,0,50,75
303344,set_tempo,,,,,168,1,0,540541,,,,,
303348,set_tempo,,,,,4,1,0,521739,,,,,
303348,control_change,,,,,40,0,1,,64,0,0,,
303352,set_tempo,,,,,4,1,0,504202,,,,,
303356,set_tempo,,,,,4,1,0,487805,,,,,
303360,set_tempo,,,,,4,1,0,468750,,,,,
303524,control_change,,,,,176,0,1,,64,127,0,,
303590,note_off,,,,,66,0,1,,,,0,50,64
303596,note_off,,,,,6,0,1,,,,0,53,64
303598,note_off,,,,,2,0,1,,,,0,44,64
303598,note_off,,,,,0,0,1,,,,0,65,64
303600,note_off,,,,,2,0,1,,,,0,37,64
303604,note_off,,,,,4,0,1,,,,0,59,64
303788,note_on,,,,,184,0,1,,,,0,37,50
303790,note_on,,,,,2,0,1,,,,0,44,63
303792,note_on,,,,,2,0,1,,,,0,65,61
303792,note_on,,,,,0,0,1,,,,0,59,63
303796,note_on,,,,,4,0,1,,,,0,53,62
303796,note_on,,,,,0,0,1,,,,0,50,53
303836,control_change,,,,,40,0,1,,64,0,0,,
303978,control_change,,,,,142,0,1,,64,127,0,,
304040,note_off,,,,,62,0,1,,,,0,50,64
304046,note_off,,,,,6,0,1,,,,0,44,64
304050,note_off,,,,,4,0,1,,,,0,53,64
304050,note_off,,,,,0,0,1,,,,0,37,64
304056,note_off,,,,,6,0,1,,,,0,65,64
304064,note_off,,,,,8,0,1,,,,0,59,64
304242,note_on,,,,,178,0,1,,,,0,37,38
304244,note_on,,,,,2,0,1,,,,0,44,51
304248,note_on,,,,,0,0,1,,,,0,53,39
304248,note_on,,,,,0,0,1,,,,0,50,37
304248,note_on,,,,,4,0,1,,,,0,65,52
304250,note_on,,,,,2,0,1,,,,0,59,37
304276,control_change,,,,,26,0,1,,64,0,0,,
304316,control_change,,,,,40,0,1,,64,127,0,,
304328,note_off,,,,,0,0,1,,,,0,50,64
304328,note_off,,,,,0,0,1,,,,0,44,64
304328,note_off,,,,,12,0,1,,,,0,37,64
304336,note_off,,,,,8,0,1,,,,0,53,64
304342,note_off,,,,,6,0,1,,,,0,65,64
304352,note_off,,,,,10,0,1,,,,0,59,64
304468,note_on,,,,,0,0,1,,,,0,65,49
304468,note_on,,,,,0,0,1,,,,0,50,40
304468,note_on,,,,,116,0,1,,,,0,37,45
304470,note_on,,,,,2,0,1,,,,0,44,50
304476,note_on,,,,,6,0,1,,,,0,53,33
304480,note_on,,,,,4,0,1,,,,0,59,27
304492,control_change,,,,,12,0,1,,64,0,0,,
304516,note_off,,,,,24,0,1,,,,0,50,64
304524,control_change,,,,,8,0,1,,64,127,0,,
304528,note_off,,,,,4,0,1,,,,0,37,64
304544,note_off,,,,,16,0,1,,,,0,53,64
304550,note_off,,,,,6,0,1,,,,0,44,64
304552,note_off,,,,,2,0,1,,,,0,59,64
304556,note_off,,,,,4,0,1,,,,0,65,64
304702,note_on,,,,,0,0,1,,,,0,37,39
304702,note_on,,,,,146,0,1,,,,0,53,51
304704,note_on,,,,,0,0,1,,,,0,44,50
304704,note_on,,,,,2,0,1,,,,0,65,45
304708,note_on,,,,,0,0,1,,,,0,50,31
304708,note_on,,,,,4,0,1,,,,0,59,29
304714,control_change,,,,,6,0,1,,64,0,0,,
304792,control_change,,,,,78,0,1,,64,127,0,,
304882,note_off,,,,,90,0,1,,,,0,50,64
304896,note_off,,,,,14,0,1,,,,0,44,64
304908,note_off,,,,,12,0,1,,,,0,37,64
304960,note_off,,,,,52,0,1,,,,0,53,64
305048,note_on,,,,,88,0,1,,,,0,44,61
305048,note_on,,,,,0,0,1,,,,0,50,61
305064,note_on,,,,,16,0,1,,,,0,37,61
305076,note_off,,,,,12,0,1,,,,0,50,64
305076,note_off,,,,,0,0,1,,,,0,44,64
305092,note_off,,,,,16,0,1,,,,0,37,64
305148,note_on,,,,,56,0,1,,,,0,37,61
305150,note_on,,,,,2,0,1,,,,0,44,51
305152,note_on,,,,,2,0,1,,,,0,50,61
305170,note_off,,,,,18,0,1,,,,0,44,64
305176,note_off,,,,,6,0,1,,,,0,37,64
305180,note_off,,,,,4,0,1,,,,0,50,64
305256,note_on,,,,,76,0,1,,,,0,37,34
305264,note_on,,,,,0,0,1,,,,0,50,61
305264,note_on,,,,,8,0,1,,,,0,44,45
305282,note_off,,,,,18,0,1,,,,0,44,64
305286,note_off,,,,,4,0,1,,,,0,59,64
305290,note_off,,,,,4,0,1,,,,0,37,64
305292,note_off,,,,,2,0,1,,,,0,50,64
305304,note_off,,,,,12,0,1,,,,0,65,64
305352,note_on,,,,,48,0,1,,,,0,37,53
305370,note_on,,,,,18,0,1,,,,0,44,41
305370,note_on,,,,,0,0,1,,,,0,50,21
305388,note_off,,,,,18,0,1,,,,0,50,64
305390,note_off,,,,,2,0,1,,,,0,44,64
305394,note_off,,,,,4,0,1,,,,0,37,64
305462,note_on,,,,,68,0,1,,,,0,37,51
305470,note_on,,,,,8,0,1,,,,0,50,34
305476,note_on,,,,,6,0,1,,,,0,44,39
305494,note_off,,,,,18,0,1,,,,0,44,64
305498,note_off,,,,,4,0,1,,,,0,50,64
305500,note_off,,,,,2,0,1,,,,0,37,64
305568,note_on,,,,,68,0,1,,,,0,37,43
305574,note_on,,,,,6,0,1,,,,0,50,39
305580,note_on,,,,,6,0,1,,,,0,44,43
305600,note_off,,,,,20,0,1,,,,0,44,64
305606,note_off,,,,,6,0,1,,,,0,50,64
305608,note_off,,,,,2,0,1,,,,0,37,64
305680,note_on,,,,,72,0,1,,,,0,37,38
305690,note_on,,,,,10,0,1,,,,0,44,47
305694,note_on,,,,,4,0,1,,,,0,50,32
305714,note_off,,,,,20,0,1,,,,0,50,64
305718,note_off,,,,,4,0,1,,,,0,44,64
305720,note_off,,,,,2,0,1,,,,0,37,64
305736,note_on,,,,,16,0,1,,,,0,71,59
305736,note_on,,,,,0,0,1,,,,0,77,59
305756,note_off,,,,,20,0,1,,,,0,77,64
305756,note_off,,,,,0,0,1,,,,0,71,64
305780,note_on,,,,,24,0,1,,,,0,37,61
305786,note_on,,,,,6,0,1,,,,0,77,69
305788,note_on,,,,,2,0,1,,,,0,71,53
305788,note_on,,,,,0,0,1,,,,0,50,54
305790,note_on,,,,,2,0,1,,,,0,44,51
305820,note_off,,,,,30,0,1,,,,0,44,64
305824,note_off,,,,,4,0,1,,,,0,50,64
305824,note_off,,,,,0,0,1,,,,0,37,64
305898,note_on,,,,,74,0,1,,,,0,37,63
305908,note_on,,,,,0,0,1,,,,0,50,38
305908,note_on,,,,,10,0,1,,,,0,44,52
305918,note_off,,,,,10,0,1,,,,0,71,64
305920,note_off,,,,,2,0,1,,,,0,77,64
305928,note_off,,,,,8,0,1,,,,0,44,64
305930,note_off,,,,,2,0,1,,,,0,50,64
305932,note_off,,,,,2,0,1,,,,0,37,64
305998,note_on,,,,,66,0,1,,,,0,37,51
306006,note_on,,,,,8,0,1,,,,0,44,52
306008,note_on,,,,,2,0,1,,,,0,50,36
306036,note_off,,,,,28,0,1,,,,0,37,64
306038,note_off,,,,,2,0,1,,,,0,50,64
306040,note_off,,,,,2,0,1,,,,0,44,64
306104,note_on,,,,,64,0,1,,,,0,37,59
306108,note_on,,,,,4,0,1,,,,0,44,48
306112,note_on,,,,,4,0,1,,,,0,50,43
306132,note_off,,,,,20,0,1,,,,0,50,64
306138,note_off,,,,,6,0,1,,,,0,44,64
306140,note_off,,,,,2,0,1,,,,0,37,64
306146,note_on,,,,,6,0,1,,,,0,65,45
306148,note_on,,,,,2,0,1,,,,0,71,50
306162,note_off,,,,,14,0,1,,,,0,65,64
306164,note_off,,,,,2,0,1,,,,0,71,64
306194,note_on,,,,,30,0,1,,,,0,37,69
306198,note_on,,,,,4,0,1,,,,0,44,54
306200,note_on,,,,,2,0,1,,,,0,65,62
306200,note_on,,,,,0,0,1,,,,0,71,67
306204,note_on,,,,,4,0,1,,,,0,50,49
306214,control_change,,,,,10,0,1,,64,0,0,,
306224,control_change,,,,,10,0,1,,64,127,0,,
306232,note_off,,,,,0,0,1,,,,0,37,64
306232,note_off,,,,,8,0,1,,,,0,50,64
306234,note_off,,,,,2,0,1,,,,0,44,64
306300,note_on,,,,,66,0,1,,,,0,37,51
306304,note_on,,,,,4,0,1,,,,0,44,42
306304,note_on,,,,,0,0,1,,,,0,50,37
306314,note_off,,,,,10,0,1,,,,0,65,64
306316,note_off,,,,,2,0,1,,,,0,71,64
306332,note_off,,,,,16,0,1,,,,0,37,64
306334,note_off,,,,,2,0,1,,,,0,50,64
306336,note_off,,,,,2,0,1,,,,0,44,64
306402,note_on,,,,,66,0,1,,,,0,37,48
306404,note_on,,,,,2,0,1,,,,0,44,45
306408,note_on,,,,,4,0,1,,,,0,50,39
306440,note_off,,,,,0,0,1,,,,0,37,64
306440,note_off,,,,,32,0,1,,,,0,50,64
306442,note_off,,,,,2,0,1,,,,0,44,64
306502,note_on,,,,,60,0,1,,,,0,37,61
306504,note_on,,,,,2,0,1,,,,0,44,51
306512,note_on,,,,,8,0,1,,,,0,50,41
306530,note_off,,,,,18,0,1,,,,0,50,64
306536,note_off,,,,,6,0,1,,,,0,44,64
306538,note_off,,,,,2,0,1,,,,0,37,64
306560,note_on,,,,,0,0,1,,,,0,59,52
306560,note_on,,,,,22,0,1,,,,0,65,59
306574,note_off,,,,,14,0,1,,,,0,59,64
306576,note_off,,,,,2,0,1,,,,0,65,64
306596,note_on,,,,,20,0,1,,,,0,44,67
306598,note_on,,,,,2,0,1,,,,0,37,62
306600,note_on,,,,,2,0,1,,,,0,50,58
306612,note_on,,,,,12,0,1,,,,0,65,71
306616,note_on,,,,,4,0,1,,,,0,59,49
306626,note_off,,,,,10,0,1,,,,0,50,64
306628,note_off,,,,,2,0,1,,,,0,44,64
306628,control_change,,,,,0,0,1,,64,0,0,,
306630,note_off,,,,,2,0,1,,,,0,37,64
306638,control_change,,,,,8,0,1,,64,127,0,,
306702,note_on,,,,,64,0,1,,,,0,37,48
306708,note_on,,,,,6,0,1,,,,0,44,47
306716,note_on,,,,,8,0,1,,,,0,50,18
306720,note_off,,,,,4,0,1,,,,0,59,64
306724,note_off,,,,,4,0,1,,,,0,65,64
306734,note_off,,,,,10,0,1,,,,0,50,64
306738,note_off,,,,,4,0,1,,,,0,44,64
306740,note_off,,,,,2,0,1,,,,0,37,64
306804,note_on,,,,,64,0,1,,,,0,37,59
306808,note_on,,,,,4,0,1,,,,0,44,51
306810,note_on,,,,,2,0,1,,,,0,50,45
306840,note_off,,,,,30,0,1,,,,0,50,64
306844,note_off,,,,,0,0,1,,,,0,37,64
306844,note_off,,,,,4,0,1,,,,0,44,64
306908,note_on,,,,,64,0,1,,,,0,37,53
306908,note_on,,,,,0,0,1,,,,0,44,48
306916,note_on,,,,,8,0,1,,,,0,50,37
306938,note_off,,,,,22,0,1,,,,0,50,64
306944,note_off,,,,,6,0,1,,,,0,44,64
306944,note_off,,,,,0,0,1,,,,0,37,64
306956,note_on,,,,,12,0,1,,,,0,53,59
306958,note_on,,,,,2,0,1,,,,0,59,56
306972,note_off,,,,,14,0,1,,,,0,53,64
306974,note_off,,,,,2,0,1,,,,0,59,64
307004,note_on,,,,,30,0,1,,,,0,37,67
307008,note_on,,,,,4,0,1,,,,0,44,56
307012,note_on,,,,,0,0,1,,,,0,59,67
307012,note_on,,,,,4,0,1,,,,0,53,60
307014,note_on,,,,,2,0,1,,,,0,50,46
307020,control_change,,,,,6,0,1,,64,0,0,,
307034,control_change,,,,,14,0,1,,64,127,0,,
307038,note_off,,,,,0,0,1,,,,0,44,64
307038,note_off,,,,,4,0,1,,,,0,50,64
307040,note_off,,,,,2,0,1,,,,0,37,64
307110,note_on,,,,,70,0,1,,,,0,37,53
307114,note_on,,,,,4,0,1,,,,0,44,56
307116,note_on,,,,,2,0,1,,,,0,50,37
307140,note_off,,,,,24,0,1,,,,0,50,64
307142,note_off,,,,,2,0,1,,,,0,44,64
307142,note_off,,,,,0,0,1,,,,0,37,64
307216,note_on,,,,,0,0,1,,,,0,37,48
307216,note_on,,,,,74,0,1,,,,0,44,51
307220,note_on,,,,,4,0,1,,,,0,50,40
307244,note_off,,,,,24,0,1,,,,0,50,64
307248,note_off,,,,,4,0,1,,,,0,37,64
307250,note_off,,,,,2,0,1,,,,0,44,64
307256,note_off,,,,,6,0,1,,,,0,53,64
307268,note_off,,,,,12,0,1,,,,0,59,64
307314,note_on,,,,,46,0,1,,,,0,37,59
307318,note_on,,,,,4,0,1,,,,0,44,51
307320,note_on,,,,,2,0,1,,,,0,50,45
307350,note_off,,,,,30,0,1,,,,0,50,64
307354,note_off,,,,,4,0,1,,,,0,44,64
307354,note_off,,,,,0,0,1,,,,0,37,64
307410,note_on,,,,,56,0,1,,,,0,37,59
307414,note_on,,,,,4,0,1,,,,0,44,51
307416,note_on,,,,,2,0,1,,,,0,50,45
307446,note_off,,,,,30,0,1,,,,0,50,64
307450,note_off,,,,,4,0,1,,,,0,44,64
307450,note_off,,,,,0,0,1,,,,0,37,64
307508,note_on,,,,,58,0,1,,,,0,37,59
307512,note_on,,,,,4,0,1,,,,0,44,53
307516,note_on,,,,,4,0,1,,,,0,50,36
307536,note_off,,,,,20,0,1,,,,0,50,64
307538,note_off,,,,,2,0,1,,,,0,37,64
307540,note_off,,,,,2,0,1,,,,0,44,64
307608,note_on,,,,,68,0,1,,,,0,53,66
307610,note_on,,,,,0,0,1,,,,0,59,66
307610,note_on,,,,,2,0,1,,,,0,37,59
307612,note_on,,,,,2,0,1,,,,0,44,59
307616,note_on,,,,,4,0,1,,,,0,50,46
307636,control_change,,,,,20,0,1,,64,0,0,,
307638,note_off,,,,,2,0,1,,,,0,50,64
307640,note_off,,,,,2,0,1,,,,0,37,64
307642,note_off,,,,,2,0,1,,,,0,44,64
307658,control_change,,,,,16,0,1,,64,127,0,,
307710,note_on,,,,,52,0,1,,,,0,37,53
307712,note_on,,,,,2,0,1,,,,0,44,49
307718,note_on,,,,,6,0,1,,,,0,50,32
307740,note_off,,,,,22,0,1,,,,0,50,64
307744,note_off,,,,,4,0,1,,,,0,44,64
307744,note_off,,,,,0,0,1,,,,0,37,64
307784,note_off,,,,,40,0,1,,,,0,53,64
307816,note_off,,,,,32,0,1,,,,0,59,64
307818,note_on,,,,,0,0,1,,,,0,37,49
307818,note_on,,,,,2,0,1,,,,0,44,52
307824,note_on,,,,,6,0,1,,,,0,50,37
307846,note_off,,,,,22,0,1,,,,0,50,64
307852,note_off,,,,,6,0,1,,,,0,44,64
307854,note_off,,,,,2,0,1,,,,0,37,64
307920,note_on,,,,,66,0,1,,,,0,37,53
307924,note_on,,,,,4,0,1,,,,0,44,52
307928,note_on,,,,,4,0,1,,,,0,50,36
307952,note_off,,,,,24,0,1,,,,0,50,64
307956,note_off,,,,,0,0,1,,,,0,37,64
307956,note_off,,,,,4,0,1,,,,0,44,64
308030,note_on,,,,,74,0,1,,,,0,37,56
308032,note_on,,,,,2,0,1,,,,0,44,59
308038,note_on,,,,,6,0,1,,,,0,50,36
308040,note_on,,,,,0,0,1,,,,0,53,51
308040,note_on,,,,,2,0,1,,,,0,59,50
308068,note_off,,,,,0,0,1,,,,0,44,64
308068,note_off,,,,,28,0,1,,,,0,50,64
308072,note_off,,,,,4,0,1,,,,0,37,64
308150,note_on,,,,,78,0,1,,,,0,37,58
308152,note_on,,,,,0,0,1,,,,0,44,56
308152,note_off,,,,,2,0,1,,,,0,53,64
308156,note_on,,,,,4,0,1,,,,0,50,40
308178,note_off,,,,,22,0,1,,,,0,59,64
308180,note_off,,,,,2,0,1,,,,0,50,64
308184,note_off,,,,,4,0,1,,,,0,44,64
308188,note_off,,,,,4,0,1,,,,0,37,64
308228,set_tempo,,,,,4868,1,0,465116,,,,,
308272,set_tempo,,,,,44,1,0,461538,,,,,
308290,note_on,,,,,102,0,1,,,,0,50,51
308292,note_on,,,,,2,0,1,,,,0,44,53
308298,note_on,,,,,0,0,1,,,,0,53,57
308298,note_on,,,,,6,0,1,,,,0,60,62
308308,note_on,,,,,10,0,1,,,,0,36,39
308316,set_tempo,,,,,44,1,0,458015,,,,,
308340,control_change,,,,,32,0,1,,64,0,0,,
308360,set_tempo,,,,,44,1,0,454545,,,,,
308396,note_off,,,,,0,0,1,,,,0,50,64
308396,note_off,,,,,56,0,1,,,,0,36,64
308398,note_off,,,,,2,0,1,,,,0,44,64
308404,set_tempo,,,,,44,1,0,451128,,,,,
308406,control_change,,,,,8,0,1,,64,127,0,,
308432,note_off,,,,,26,0,1,,,,0,53,64
308460,note_on,,,,,28,0,1,,,,0,44,53
308460,note_on,,,,,0,0,1,,,,0,36,47
308462,note_on,,,,,2,0,1,,,,0,50,36
308470,note_off,,,,,8,0,1,,,,0,60,64
308488,note_off,,,,,18,0,1,,,,0,36,64
308492,note_off,,,,,4,0,1,,,,0,50,64
308494,note_off,,,,,2,0,1,,,,0,44,64
308556,note_on,,,,,62,0,1,,,,0,44,54
308562,note_on,,,,,6,0,1,,,,0,50,52
308566,note_on,,,,,4,0,1,,,,0,36,50
308590,note_off,,,,,24,0,1,,,,0,36,64
308596,note_off,,,,,0,0,1,,,,0,44,64
308596,note_off,,,,,6,0,1,,,,0,50,64
308670,note_on,,,,,74,0,1,,,,0,44,54
308676,note_on,,,,,6,0,1,,,,0,50,52
308680,note_on,,,,,4,0,1,,,,0,36,50
308704,note_off,,,,,24,0,1,,,,0,36,64
308710,note_off,,,,,0,0,1,,,,0,44,64
308710,note_off,,,,,6,0,1,,,,0,50,64
308780,note_on,,,,,0,0,1,,,,0,44,54
308780,note_on,,,,,70,0,1,,,,0,50,52
308790,note_on,,,,,10,0,1,,,,0,36,50
308814,note_off,,,,,0,0,1,,,,0,50,64
308814,note_off,,,,,24,0,1,,,,0,36,64
308820,note_off,,,,,6,0,1,,,,0,44,64
308888,note_on,,,,,68,0,1,,,,0,50,52
308892,note_on,,,,,4,0,1,,,,0,44,54
308892,note_on,,,,,0,0,1,,,,0,36,50
308916,note_off,,,,,24,0,1,,,,0,36,64
308922,note_off,,,,,6,0,1,,,,0,50,64
308932,note_off,,,,,10,0,1,,,,0,44,64
308998,note_on,,,,,66,0,1,,,,0,44,54
309004,note_on,,,,,6,0,1,,,,0,50,52
309008,note_on,,,,,4,0,1,,,,0,36,50
309032,note_off,,,,,24,0,1,,,,0,36,64
309038,note_off,,,,,0,0,1,,,,0,44,64
309038,note_off,,,,,6,0,1,,,,0,50,64
309112,note_on,,,,,74,0,1,,,,0,44,52
309114,note_on,,,,,2,0,1,,,,0,50,42
309118,note_on,,,,,4,0,1,,,,0,36,37
309142,note_off,,,,,24,0,1,,,,0,50,64
309142,note_off,,,,,0,0,1,,,,0,36,64
309144,note_off,,,,,2,0,1,,,,0,44,64
309154,note_on,,,,,10,0,1,,,,0,84,69
309158,note_on,,,,,4,0,1,,,,0,77,57
309168,note_off,,,,,10,0,1,,,,0,84,64
309172,note_off,,,,,4,0,1,,,,0,77,64
309206,note_on,,,,,34,0,1,,,,0,84,80
309208,note_on,,,,,0,0,1,,,,0,77,71
309208,note_on,,,,,2,0,1,,,,0,44,59
309210,note_on,,,,,2,0,1,,,,0,50,59
309210,note_on,,,,,0,0,1,,,,0,36,54
309230,note_off,,,,,20,0,1,,,,0,36,64
309238,note_off,,,,,8,0,1,,,,0,50,64
309238,note_off,,,,,0,0,1,,,,0,44,64
309312,note_on,,,,,74,0,1,,,,0,44,63
309314,note_off,,,,,2,0,1,,,,0,77,64
309318,note_on,,,,,0,0,1,,,,0,36,45
309318,note_on,,,,,0,0,1,,,,0,50,49
309318,note_off,,,,,4,0,1,,,,0,84,64
309338,note_off,,,,,0,0,1,,,,0,50,64
309338,note_off,,,,,20,0,1,,,,0,36,64
309344,note_off,,,,,6,0,1,,,,0,44,64
309412,note_on,,,,,68,0,1,,,,0,44,59
309414,note_on,,,,,2,0,1,,,,0,50,54
309420,note_on,,,,,6,0,1,,,,0,36,43
309442,note_off,,,,,22,0,1,,,,0,36,64
309446,note_off,,,,,4,0,1,,,,0,50,64
309448,note_off,,,,,2,0,1,,,,0,44,64
309514,note_on,,,,,66,0,1,,,,0,44,49
309520,note_on,,,,,6,0,1,,,,0,50,41
309520,note_on,,,,,0,0,1,,,,0,36,37
309540,note_off,,,,,20,0,1,,,,0,36,64
309542,note_off,,,,,2,0,1,,,,0,50,64
309548,note_off,,,,,6,0,1,,,,0,44,64
309562,note_on,,,,,14,0,1,,,,0,72,55
309564,note_on,,,,,2,0,1,,,,0,77,57
309576,note_off,,,,,0,0,1,,,,0,72,64
309576,note_off,,,,,12,0,1,,,,0,77,64
309608,note_on,,,,,32,0,1,,,,0,44,57
309614,note_on,,,,,0,0,1,,,,0,77,73
309614,note_on,,,,,6,0,1,,,,0,50,54
309618,note_on,,,,,4,0,1,,,,0,72,56
309620,note_on,,,,,2,0,1,,,,0,36,46
309638,note_off,,,,,18,0,1,,,,0,36,64
309644,note_off,,,,,6,0,1,,,,0,44,64
309646,note_off,,,,,2,0,1,,,,0,50,64
309720,note_on,,,,,74,0,1,,,,0,44,63
309722,note_off,,,,,2,0,1,,,,0,72,64
309724,note_on,,,,,0,0,1,,,,0,50,49
309724,note_off,,,,,2,0,1,,,,0,77,64
309726,note_on,,,,,2,0,1,,,,0,36,50
309744,note_off,,,,,18,0,1,,,,0,36,64
309752,note_off,,,,,8,0,1,,,,0,50,64
309752,note_off,,,,,0,0,1,,,,0,44,64
309818,note_on,,,,,66,0,1,,,,0,44,58
309824,note_on,,,,,6,0,1,,,,0,36,48
309826,note_on,,,,,2,0,1,,,,0,50,42
309846,note_off,,,,,20,0,1,,,,0,36,64
309848,note_off,,,,,2,0,1,,,,0,50,64
309852,note_off,,,,,4,0,1,,,,0,44,64
309928,note_on,,,,,76,0,1,,,,0,44,47
309936,note_on,,,,,8,0,1,,,,0,36,27
309940,note_on,,,,,4,0,1,,,,0,50,16
309954,note_off,,,,,14,0,1,,,,0,36,64
309956,note_off,,,,,2,0,1,,,,0,50,64
309960,note_off,,,,,4,0,1,,,,0,44,64
309972,note_on,,,,,12,0,1,,,,0,72,64
309978,note_on,,,,,6,0,1,,,,0,65,45
309988,note_off,,,,,10,0,1,,,,0,72,64
309992,note_off,,,,,4,0,1,,,,0,65,64
310022,note_on,,,,,30,0,1,,,,0,44,59
310026,note_on,,,,,0,0,1,,,,0,50,56
310026,note_on,,,,,4,0,1,,,,0,36,55
310032,note_on,,,,,0,0,1,,,,0,72,74
310032,note_on,,,,,6,0,1,,,,0,65,56
310054,note_off,,,,,22,0,1,,,,0,50,64
310054,note_off,,,,,0,0,1,,,,0,36,64
310056,note_off,,,,,2,0,1,,,,0,44,64
310128,note_off,,,,,72,0,1,,,,0,72,64
310130,note_off,,,,,2,0,1,,,,0,65,64
310132,note_on,,,,,2,0,1,,,,0,44,60
310134,note_on,,,,,2,0,1,,,,0,50,54
310140,note_on,,,,,6,0,1,,,,0,36,45
310162,note_off,,,,,22,0,1,,,,0,36,64
310164,note_off,,,,,2,0,1,,,,0,50,64
310166,note_off,,,,,2,0,1,,,,0,44,64
310230,note_on,,,,,64,0,1,,,,0,44,51
310236,note_on,,,,,6,0,1,,,,0,50,50
310238,note_on,,,,,2,0,1,,,,0,36,47
310260,note_off,,,,,22,0,1,,,,0,36,64
310264,note_off,,,,,4,0,1,,,,0,50,64
310268,note_off,,,,,4,0,1,,,,0,44,64
310336,note_on,,,,,68,0,1,,,,0,44,51
310340,note_on,,,,,4,0,1,,,,0,50,41
310344,note_on,,,,,4,0,1,,,,0,36,41
310364,note_off,,,,,20,0,1,,,,0,36,64
310368,note_off,,,,,4,0,1,,,,0,50,64
310372,note_off,,,,,4,0,1,,,,0,44,64
310376,note_on,,,,,4,0,1,,,,0,65,68
310380,note_on,,,,,4,0,1,,,,0,60,52
310394,note_off,,,,,14,0,1,,,,0,60,64
310396,note_off,,,,,2,0,1,,,,0,65,64
310430,note_on,,,,,34,0,1,,,,0,44,65
310434,note_on,,,,,4,0,1,,,,0,65,77
310434,note_on,,,,,0,0,1,,,,0,50,58
310436,note_on,,,,,2,0,1,,,,0,36,58
310436,note_on,,,,,0,0,1,,,,0,60,56
310460,note_off,,,,,24,0,1,,,,0,36,64
310464,note_off,,,,,4,0,1,,,,0,50,64
310466,note_off,,,,,2,0,1,,,,0,44,64
310530,note_off,,,,,64,0,1,,,,0,60,64
310532,note_off,,,,,2,0,1,,,,0,65,64
310542,note_on,,,,,10,0,1,,,,0,44,54
310544,note_on,,,,,2,0,1,,,,0,36,41
310546,note_on,,,,,2,0,1,,,,0,50,38
310568,note_off,,,,,22,0,1,,,,0,36,64
310570,note_off,,,,,2,0,1,,,,0,50,64
310574,note_off,,,,,4,0,1,,,,0,44,64
310640,note_on,,,,,66,0,1,,,,0,44,56
310644,note_on,,,,,4,0,1,,,,0,50,47
310646,note_on,,,,,2,0,1,,,,0,36,45
310668,note_off,,,,,22,0,1,,,,0,36,64
310672,note_off,,,,,4,0,1,,,,0,50,64
310674,note_off,,,,,2,0,1,,,,0,44,64
310744,note_on,,,,,70,0,1,,,,0,44,56
310748,note_on,,,,,4,0,1,,,,0,50,41
310752,note_on,,,,,4,0,1,,,,0,36,42
310772,note_on,,,,,0,0,1,,,,0,60,58
310772,note_off,,,,,20,0,1,,,,0,36,64
310778,note_on,,,,,6,0,1,,,,0,53,38
310780,note_off,,,,,2,0,1,,,,0,50,64
310780,note_off,,,,,0,0,1,,,,0,44,64
310796,note_off,,,,,16,0,1,,,,0,53,64
310796,note_off,,,,,0,0,1,,,,0,60,64
310836,note_on,,,,,40,0,1,,,,0,60,71
310840,note_on,,,,,4,0,1,,,,0,53,65
310840,note_on,,,,,0,0,1,,,,0,44,66
310844,control_change,,,,,4,0,1,,64,0,0,,
310846,note_on,,,,,2,0,1,,,,0,36,55
310846,note_on,,,,,0,0,1,,,,0,50,57
310858,control_change,,,,,12,0,1,,64,127,0,,
310868,note_off,,,,,10,0,1,,,,0,36,64
310870,note_off,,,,,2,0,1,,,,0,50,64
310874,note_off,,,,,4,0,1,,,,0,44,64
310948,note_on,,,,,74,0,1,,,,0,44,61
310954,note_on,,,,,0,0,1,,,,0,36,49
310954,note_on,,,,,6,0,1,,,,0,50,50
310976,note_off,,,,,22,0,1,,,,0,36,64
310978,note_off,,,,,2,0,1,,,,0,50,64
310980,note_off,,,,,2,0,1,,,,0,44,64
311052,note_on,,,,,72,0,1,,,,0,44,53
311056,note_on,,,,,4,0,1,,,,0,50,40
311060,note_on,,,,,4,0,1,,,,0,36,34
311080,note_off,,,,,0,0,1,,,,0,50,64
311080,note_off,,,,,20,0,1,,,,0,36,64
311084,note_off,,,,,4,0,1,,,,0,44,64
311152,note_on,,,,,68,0,1,,,,0,44,65
311156,note_on,,,,,4,0,1,,,,0,50,51
311160,note_on,,,,,4,0,1,,,,0,36,47
311182,note_off,,,,,22,0,1,,,,0,36,64
311184,note_off,,,,,2,0,1,,,,0,50,64
311186,note_off,,,,,2,0,1,,,,0,44,64
311228,note_off,,,,,42,0,1,,,,0,53,64
311238,note_off,,,,,10,0,1,,,,0,60,64
311256,note_on,,,,,18,0,1,,,,0,44,62
311260,note_on,,,,,4,0,1,,,,0,50,46
311262,note_on,,,,,2,0,1,,,,0,36,47
311284,note_off,,,,,22,0,1,,,,0,36,64
311286,note_off,,,,,2,0,1,,,,0,50,64
311292,note_off,,,,,6,0,1,,,,0,44,64
311356,note_on,,,,,64,0,1,,,,0,44,62
311362,note_on,,,,,6,0,1,,,,0,36,49
311364,note_on,,,,,2,0,1,,,,0,50,50
311386,note_off,,,,,22,0,1,,,,0,36,64
311388,note_off,,,,,2,0,1,,,,0,50,64
311392,note_off,,,,,4,0,1,,,,0,44,64
311466,note_on,,,,,74,0,1,,,,0,60,63
311466,note_on,,,,,0,0,1,,,,0,44,66
311468,note_on,,,,,2,0,1,,,,0,53,61
311468,note_on,,,,,0,0,1,,,,0,50,53
311474,note_on,,,,,6,0,1,,,,0,36,52
311490,control_change,,,,,16,0,1,,64,0,0,,
311498,note_off,,,,,8,0,1,,,,0,36,64
311500,note_off,,,,,2,0,1,,,,0,50,64
311502,note_off,,,,,2,0,1,,,,0,44,64
311512,control_change,,,,,10,0,1,,64,127,0,,
311574,note_on,,,,,62,0,1,,,,0,44,60
311576,note_on,,,,,2,0,1,,,,0,50,48
311578,note_on,,,,,2,0,1,,,,0,36,46
311580,note_off,,,,,2,0,1,,,,0,53,64
311584,note_off,,,,,4,0,1,,,,0,60,64
311602,note_off,,,,,18,0,1,,,,0,50,64
311604,note_off,,,,,0,0,1,,,,0,44,64
311604,note_off,,,,,2,0,1,,,,0,36,64
311658,set_tempo,,,,,3254,1,0,447761,,,,,
311662,set_tempo,,,,,4,1,0,444444,,,,,
311666,set_tempo,,,,,4,1,0,441176,,,,,
311670,set_tempo,,,,,4,1,0,434783,,,,,
311674,set_tempo,,,,,4,1,0,428571,,,,,
311678,set_tempo,,,,,4,1,0,425532,,,,,
311682,set_tempo,,,,,4,1,0,419580,,,,,
311686,set_tempo,,,,,4,1,0,416667,,,,,
311694,set_tempo,,,,,8,1,0,410959,,,,,
311698,note_on,,,,,94,0,1,,,,0,44,58
311698,set_tempo,,,,,4,1,0,405405,,,,,
311702,set_tempo,,,,,4,1,0,400000,,,,,
311702,note_on,,,,,4,0,1,,,,0,56,71
311706,note_on,,,,,4,0,1,,,,0,53,57
311706,set_tempo,,,,,4,1,0,397351,,,,,
311710,set_tempo,,,,,4,1,0,392157,,,,,
311712,note_on,,,,,6,0,1,,,,0,50,24
311720,note_on,,,,,8,0,1,,,,0,35,24
311748,control_change,,,,,28,0,1,,64,0,0,,
311764,note_off,,,,,16,0,1,,,,0,53,64
311768,note_off,,,,,4,0,1,,,,0,56,64
311770,note_on,,,,,2,0,1,,,,0,62,70
311820,note_off,,,,,50,0,1,,,,0,62,64
311830,note_on,,,,,10,0,1,,,,0,56,63
311838,note_on,,,,,8,0,1,,,,0,53,62
311864,note_off,,,,,26,0,1,,,,0,53,64
311874,note_off,,,,,10,0,1,,,,0,56,64
311884,note_on,,,,,10,0,1,,,,0,62,63
311924,note_off,,,,,40,0,1,,,,0,62,64
311936,note_on,,,,,0,0,1,,,,0,56,57
311936,note_on,,,,,12,0,1,,,,0,53,56
311970,note_off,,,,,34,0,1,,,,0,53,64
311986,note_off,,,,,16,0,1,,,,0,56,64
311992,note_on,,,,,6,0,1,,,,0,62,60
312042,note_off,,,,,50,0,1,,,,0,62,64
312048,note_on,,,,,6,0,1,,,,0,56,59
312048,note_on,,,,,0,0,1,,,,0,53,53
312080,note_off,,,,,32,0,1,,,,0,53,64
312092,note_off,,,,,12,0,1,,,,0,56,64
312100,note_on,,,,,8,0,1,,,,0,62,63
312136,note_off,,,,,36,0,1,,,,0,62,64
312150,note_on,,,,,14,0,1,,,,0,56,59
312152,note_on,,,,,2,0,1,,,,0,53,54
312180,note_off,,,,,28,0,1,,,,0,53,64
312188,note_off,,,,,8,0,1,,,,0,56,64
312202,note_on,,,,,14,0,1,,,,0,62,56
312238,note_off,,,,,36,0,1,,,,0,62,64
312248,note_on,,,,,10,0,1,,,,0,56,59
312254,note_on,,,,,6,0,1,,,,0,53,46
312276,note_off,,,,,22,0,1,,,,0,53,64
312286,note_off,,,,,10,0,1,,,,0,56,64
312300,note_on,,,,,14,0,1,,,,0,62,58
312336,note_off,,,,,36,0,1,,,,0,62,64
312348,note_on,,,,,12,0,1,,,,0,56,62
312354,note_on,,,,,6,0,1,,,,0,53,54
312368,note_off,,,,,14,0,1,,,,0,50,64
312384,note_off,,,,,16,0,1,,,,0,53,64
312386,note_off,,,,,2,0,1,,,,0,35,64
312390,note_off,,,,,4,0,1,,,,0,56,64
312392,note_off,,,,,2,0,1,,,,0,44,64
312394,note_on,,,,,2,0,1,,,,0,62,66
312432,note_off,,,,,38,0,1,,,,0,62,64
312452,note_on,,,,,20,0,1,,,,0,56,56
312456,note_on,,,,,4,0,1,,,,0,53,43
312480,note_off,,,,,24,0,1,,,,0,53,64
312488,note_off,,,,,8,0,1,,,,0,56,64
312494,note_on,,,,,6,0,1,,,,0,62,60
312524,note_off,,,,,30,0,1,,,,0,62,64
312550,note_on,,,,,26,0,1,,,,0,56,56
312554,note_on,,,,,4,0,1,,,,0,53,40
312578,note_off,,,,,24,0,1,,,,0,53,64
312588,note_off,,,,,10,0,1,,,,0,56,64
312600,note_on,,,,,12,0,1,,,,0,62,51
312640,note_off,,,,,40,0,1,,,,0,62,64
312652,note_on,,,,,12,0,1,,,,0,56,60
312658,note_on,,,,,6,0,1,,,,0,53,42
312684,note_off,,,,,26,0,1,,,,0,53,64
312692,note_off,,,,,8,0,1,,,,0,56,64
312702,note_on,,,,,10,0,1,,,,0,62,60
312738,note_off,,,,,36,0,1,,,,0,62,64
312756,note_on,,,,,18,0,1,,,,0,56,51
312762,note_on,,,,,6,0,1,,,,0,53,30
312782,note_off,,,,,20,0,1,,,,0,53,64
312792,note_off,,,,,10,0,1,,,,0,56,64
312796,note_on,,,,,4,0,1,,,,0,62,60
312832,note_off,,,,,36,0,1,,,,0,62,64
312854,note_on,,,,,22,0,1,,,,0,56,59
312856,note_on,,,,,2,0,1,,,,0,53,41
312876,note_off,,,,,20,0,1,,,,0,53,64
312888,note_off,,,,,12,0,1,,,,0,56,64
312896,note_on,,,,,8,0,1,,,,0,62,57
312936,note_off,,,,,40,0,1,,,,0,62,64
312948,note_on,,,,,12,0,1,,,,0,56,65
312954,note_on,,,,,6,0,1,,,,0,53,54
312984,note_off,,,,,30,0,1,,,,0,53,64
312996,note_off,,,,,12,0,1,,,,0,56,64
313004,note_on,,,,,8,0,1,,,,0,62,60
313040,note_off,,,,,36,0,1,,,,0,62,64
313054,note_on,,,,,14,0,1,,,,0,56,52
313058,note_on,,,,,4,0,1,,,,0,53,40
313080,note_off,,,,,22,0,1,,,,0,53,64
313088,note_off,,,,,8,0,1,,,,0,56,64
313102,note_on,,,,,14,0,1,,,,0,62,58
313130,note_off,,,,,28,0,1,,,,0,62,64
313152,note_on,,,,,0,0,1,,,,0,53,42
313152,note_on,,,,,22,0,1,,,,0,56,53
313174,note_off,,,,,22,0,1,,,,0,53,64
313184,note_off,,,,,10,0,1,,,,0,56,64
313198,note_on,,,,,14,0,1,,,,0,62,53
313232,note_off,,,,,34,0,1,,,,0,62,64
313244,note_on,,,,,12,0,1,,,,0,56,67
313250,note_on,,,,,6,0,1,,,,0,53,52
313278,note_off,,,,,28,0,1,,,,0,53,64
313284,note_off,,,,,6,0,1,,,,0,56,64
313292,note_on,,,,,8,0,1,,,,0,62,59
313328,note_off,,,,,36,0,1,,,,0,62,64
313344,note_on,,,,,16,0,1,,,,0,56,54
313348,note_on,,,,,4,0,1,,,,0,53,41
313374,note_off,,,,,26,0,1,,,,0,53,64
313380,note_off,,,,,6,0,1,,,,0,56,64
313392,note_on,,,,,12,0,1,,,,0,62,52
313426,note_off,,,,,34,0,1,,,,0,62,64
313444,note_on,,,,,0,0,1,,,,0,53,45
313444,note_on,,,,,18,0,1,,,,0,56,59
313468,note_off,,,,,24,0,1,,,,0,53,64
313474,note_off,,,,,6,0,1,,,,0,56,64
313484,note_on,,,,,10,0,1,,,,0,62,52
313526,note_off,,,,,42,0,1,,,,0,62,64
313540,note_on,,,,,14,0,1,,,,0,56,63
313544,note_on,,,,,4,0,1,,,,0,53,57
313572,note_off,,,,,28,0,1,,,,0,53,64
313584,note_on,,,,,0,0,1,,,,0,62,55
313584,note_off,,,,,12,0,1,,,,0,56,64
313632,note_off,,,,,48,0,1,,,,0,62,64
313640,note_on,,,,,8,0,1,,,,0,56,43
313646,note_on,,,,,6,0,1,,,,0,53,34
313664,note_off,,,,,18,0,1,,,,0,53,64
313676,note_off,,,,,12,0,1,,,,0,56,64
313684,note_on,,,,,8,0,1,,,,0,62,59
313722,note_off,,,,,38,0,1,,,,0,62,64
313742,note_on,,,,,20,0,1,,,,0,56,52
313744,note_on,,,,,2,0,1,,,,0,53,44
313770,note_off,,,,,26,0,1,,,,0,53,64
313776,note_off,,,,,6,0,1,,,,0,56,64
313782,note_on,,,,,6,0,1,,,,0,62,67
313824,note_off,,,,,42,0,1,,,,0,62,64
313832,note_on,,,,,8,0,1,,,,0,56,67
313834,note_on,,,,,2,0,1,,,,0,53,55
313862,note_off,,,,,28,0,1,,,,0,53,64
313868,note_off,,,,,6,0,1,,,,0,56,64
313880,note_on,,,,,12,0,1,,,,0,62,62
313920,note_off,,,,,40,0,1,,,,0,62,64
313922,note_on,,,,,2,0,1,,,,0,34,86
313928,note_on,,,,,6,0,1,,,,0,56,69
313930,note_on,,,,,2,0,1,,,,0,53,62
313960,note_off,,,,,30,0,1,,,,0,53,64
313966,note_off,,,,,6,0,1,,,,0,34,64
313974,note_off,,,,,8,0,1,,,,0,56,64
313978,note_on,,,,,4,0,1,,,,0,62,67
314018,note_on,,,,,40,0,1,,,,0,35,75
314020,note_off,,,,,2,0,1,,,,0,62,64
314022,note_on,,,,,2,0,1,,,,0,56,68
314030,note_on,,,,,8,0,1,,,,0,53,53
314056,note_off,,,,,26,0,1,,,,0,53,64
314066,note_off,,,,,10,0,1,,,,0,35,64
314068,note_off,,,,,2,0,1,,,,0,56,64
314072,note_on,,,,,4,0,1,,,,0,62,69
314116,note_off,,,,,44,0,1,,,,0,62,64
314120,note_on,,,,,4,0,1,,,,0,38,80
314122,note_on,,,,,2,0,1,,,,0,56,76
314130,note_on,,,,,8,0,1,,,,0,53,61
314160,note_off,,,,,30,0,1,,,,0,38,64
314162,note_off,,,,,2,0,1,,,,0,53,64
314170,note_off,,,,,8,0,1,,,,0,56,64
314176,note_on,,,,,6,0,1,,,,0,62,67
314216,note_off,,,,,40,0,1,,,,0,62,64
314220,note_on,,,,,4,0,1,,,,0,41,86
314222,note_on,,,,,2,0,1,,,,0,56,69
314228,note_on,,,,,6,0,1,,,,0,53,55
314246,note_off,,,,,18,0,1,,,,0,41,64
314256,note_off,,,,,10,0,1,,,,0,53,64
314264,note_off,,,,,8,0,1,,,,0,56,64
314272,note_on,,,,,8,0,1,,,,0,62,67
314312,note_off,,,,,40,0,1,,,,0,62,64
314316,note_on,,,,,4,0,1,,,,0,56,72
314324,note_on,,,,,8,0,1,,,,0,53,54
314324,note_on,,,,,0,0,1,,,,0,44,82
314340,note_off,,,,,16,0,1,,,,0,44,64
314352,note_off,,,,,12,0,1,,,,0,53,64
314360,note_off,,,,,8,0,1,,,,0,56,64
314372,note_on,,,,,12,0,1,,,,0,62,67
314420,note_on,,,,,0,0,1,,,,0,45,84
314420,note_off,,,,,48,0,1,,,,0,62,64
314422,note_on,,,,,2,0,1,,,,0,56,69
314426,note_on,,,,,4,0,1,,,,0,53,64
314456,note_off,,,,,0,0,1,,,,0,45,64
314456,note_off,,,,,30,0,1,,,,0,53,64
314472,note_off,,,,,16,0,1,,,,0,56,64
314482,note_on,,,,,10,0,1,,,,0,62,62
314522,note_on,,,,,40,0,1,,,,0,46,80
314528,note_off,,,,,6,0,1,,,,0,62,64
314528,note_on,,,,,0,0,1,,,,0,56,72
314530,note_on,,,,,2,0,1,,,,0,53,59
314550,note_off,,,,,20,0,1,,,,0,46,64
314556,note_off,,,,,6,0,1,,,,0,53,64
314570,note_off,,,,,14,0,1,,,,0,56,64
314588,note_on,,,,,18,0,1,,,,0,62,63
314620,note_on,,,,,32,0,1,,,,0,56,62
314620,note_on,,,,,0,0,1,,,,0,47,80
314624,note_off,,,,,4,0,1,,,,0,62,64
314626,note_on,,,,,2,0,1,,,,0,53,48
314646,note_off,,,,,20,0,1,,,,0,47,64
314650,note_off,,,,,4,0,1,,,,0,53,64
314668,note_off,,,,,18,0,1,,,,0,56,64
314680,note_on,,,,,12,0,1,,,,0,62,67
314720,note_off,,,,,40,0,1,,,,0,62,64
314730,note_on,,,,,10,0,1,,,,0,56,66
314730,note_on,,,,,0,0,1,,,,0,38,93
314736,note_on,,,,,6,0,1,,,,0,53,60
314768,note_off,,,,,32,0,1,,,,0,53,64
314776,note_off,,,,,8,0,1,,,,0,56,64
314778,note_on,,,,,2,0,1,,,,0,62,71
314822,note_off,,,,,44,0,1,,,,0,62,64
314832,note_on,,,,,10,0,1,,,,0,56,68
314840,note_on,,,,,8,0,1,,,,0,53,53
314858,control_change,,,,,18,0,1,,64,127,0,,
314862,note_off,,,,,4,0,1,,,,0,53,64
314870,note_off,,,,,8,0,1,,,,0,56,64
314880,note_on,,,,,10,0,1,,,,0,62,54
314916,note_off,,,,,36,0,1,,,,0,62,64
314928,note_on,,,,,12,0,1,,,,0,56,67
314932,control_change,,,,,4,0,1,,64,0,0,,
314934,note_on,,,,,2,0,1,,,,0,53,52
314952,note_off,,,,,18,0,1,,,,0,38,64
314956,note_off,,,,,4,0,1,,,,0,53,64
314958,control_change,,,,,2,0,1,,64,127,0,,
314964,note_off,,,,,6,0,1,,,,0,56,64
314980,note_on,,,,,16,0,1,,,,0,62,58
315020,note_off,,,,,40,0,1,,,,0,62,64
315026,note_on,,,,,6,0,1,,,,0,56,65
315032,note_on,,,,,6,0,1,,,,0,53,57
315060,note_off,,,,,28,0,1,,,,0,53,64
315066,note_off,,,,,6,0,1,,,,0,56,64
315080,note_on,,,,,14,0,1,,,,0,62,66
315118,note_off,,,,,38,0,1,,,,0,62,64
315130,note_on,,,,,12,0,1,,,,0,56,57
315136,note_on,,,,,6,0,1,,,,0,53,46
315156,note_off,,,,,20,0,1,,,,0,53,64
315168,note_off,,,,,12,0,1,,,,0,56,64
315178,note_on,,,,,10,0,1,,,,0,62,66
315218,note_off,,,,,40,0,1,,,,0,62,64
315232,note_on,,,,,14,0,1,,,,0,56,65
315236,note_on,,,,,4,0,1,,,,0,53,58
315260,note_on,,,,,0,0,1,,,,0,74,61
315260,note_off,,,,,24,0,1,,,,0,53,64
315266,note_off,,,,,6,0,1,,,,0,56,64
315272,note_on,,,,,6,0,1,,,,0,62,66
315280,note_off,,,,,8,0,1,,,,0,74,64
315316,note_off,,,,,36,0,1,,,,0,62,64
315316,note_on,,,,,0,0,1,,,,0,74,77
315322,note_on,,,,,6,0,1,,,,0,56,74
315328,note_on,,,,,6,0,1,,,,0,53,53
315340,control_change,,,,,12,0,1,,64,0,0,,
315346,control_change,,,,,6,0,1,,64,127,0,,
315358,note_off,,,,,12,0,1,,,,0,53,64
315366,note_off,,,,,8,0,1,,,,0,56,64
315372,note_on,,,,,6,0,1,,,,0,62,64
315410,note_off,,,,,38,0,1,,,,0,62,64
315430,note_on,,,,,20,0,1,,,,0,56,50
315434,note_on,,,,,4,0,1,,,,0,53,53
315442,note_off,,,,,8,0,1,,,,0,74,64
315458,note_off,,,,,16,0,1,,,,0,53,64
315464,note_off,,,,,6,0,1,,,,0,56,64
315474,note_on,,,,,10,0,1,,,,0,62,58
315510,note_off,,,,,36,0,1,,,,0,62,64
315526,note_on,,,,,16,0,1,,,,0,56,63
315532,note_on,,,,,6,0,1,,,,0,53,40
315548,note_off,,,,,16,0,1,,,,0,53,64
315556,note_off,,,,,8,0,1,,,,0,56,64
315566,note_on,,,,,10,0,1,,,,0,62,56
315596,note_off,,,,,30,0,1,,,,0,62,64
315618,note_on,,,,,22,0,1,,,,0,56,57
315620,note_on,,,,,2,0,1,,,,0,53,55
315644,note_off,,,,,24,0,1,,,,0,53,64
315654,note_off,,,,,10,0,1,,,,0,56,64
315668,note_on,,,,,14,0,1,,,,0,62,52
315698,note_off,,,,,30,0,1,,,,0,62,64
315716,note_on,,,,,18,0,1,,,,0,56,58
315718,note_on,,,,,2,0,1,,,,0,53,52
315740,note_off,,,,,22,0,1,,,,0,53,64
315750,note_off,,,,,10,0,1,,,,0,56,64
315762,note_on,,,,,12,0,1,,,,0,62,61
315798,note_off,,,,,36,0,1,,,,0,62,64
315814,note_on,,,,,16,0,1,,,,0,56,56
315816,note_on,,,,,2,0,1,,,,0,53,55
315840,note_off,,,,,24,0,1,,,,0,53,64
315848,note_on,,,,,8,0,1,,,,0,68,68
315852,note_off,,,,,4,0,1,,,,0,56,64
315858,note_on,,,,,6,0,1,,,,0,62,70
315876,note_off,,,,,18,0,1,,,,0,68,64
315896,note_off,,,,,20,0,1,,,,0,62,64
315904,note_on,,,,,8,0,1,,,,0,68,81
315914,note_on,,,,,10,0,1,,,,0,53,66
315916,note_on,,,,,2,0,1,,,,0,56,71
315944,note_off,,,,,28,0,1,,,,0,53,64
315958,note_off,,,,,14,0,1,,,,0,56,64
315960,note_off,,,,,2,0,1,,,,0,68,64
315962,note_on,,,,,2,0,1,,,,0,62,61
316000,note_off,,,,,38,0,1,,,,0,62,64
316014,note_on,,,,,14,0,1,,,,0,56,61
316018,note_on,,,,,4,0,1,,,,0,53,57
316042,note_off,,,,,24,0,1,,,,0,53,64
316052,note_off,,,,,10,0,1,,,,0,56,64
316062,note_on,,,,,10,0,1,,,,0,62,57
316106,note_off,,,,,44,0,1,,,,0,62,64
316116,note_on,,,,,10,0,1,,,,0,53,61
316120,note_on,,,,,4,0,1,,,,0,56,61
316142,note_off,,,,,22,0,1,,,,0,53,64
316146,note_off,,,,,4,0,1,,,,0,56,64
316146,note_on,,,,,0,0,1,,,,0,62,47
316192,note_off,,,,,46,0,1,,,,0,62,64
316204,note_on,,,,,12,0,1,,,,0,59,61
316206,note_on,,,,,2,0,1,,,,0,56,67
316230,note_off,,,,,24,0,1,,,,0,59,64
316248,note_off,,,,,18,0,1,,,,0,56,64
316252,control_change,,,,,4,0,1,,64,0,0,,
316252,note_on,,,,,0,0,1,,,,0,62,61
316278,note_off,,,,,26,0,1,,,,0,62,64
316304,note_on,,,,,0,0,1,,,,0,54,72
316304,note_on,,,,,26,0,1,,,,0,56,58
316308,note_on,,,,,4,0,1,,,,0,59,59
316322,note_off,,,,,14,0,1,,,,0,56,64
316334,note_on,,,,,12,0,1,,,,0,62,65
316352,note_off,,,,,18,0,1,,,,0,54,64
316360,note_off,,,,,8,0,1,,,,0,59,64
316382,note_off,,,,,22,0,1,,,,0,62,64
316396,note_on,,,,,14,0,1,,,,0,59,49
316404,note_on,,,,,8,0,1,,,,0,56,47
316408,note_on,,,,,4,0,1,,,,0,53,71
316422,note_off,,,,,14,0,1,,,,0,56,64
316436,note_on,,,,,14,0,1,,,,0,62,66
316448,note_off,,,,,12,0,1,,,,0,59,64
316466,note_off,,,,,18,0,1,,,,0,53,64
316474,note_off,,,,,8,0,1,,,,0,62,64
316500,note_on,,,,,0,0,1,,,,0,51,87
316500,note_on,,,,,26,0,1,,,,0,57,75
316504,note_on,,,,,4,0,1,,,,0,54,63
316542,note_off,,,,,38,0,1,,,,0,54,64
316554,note_off,,,,,12,0,1,,,,0,57,64
316562,note_off,,,,,8,0,1,,,,0,51,64
316562,note_on,,,,,0,0,1,,,,0,63,69
316612,note_off,,,,,50,0,1,,,,0,63,64
316612,note_on,,,,,0,0,1,,,,0,48,78
316618,note_on,,,,,6,0,1,,,,0,54,40
316622,note_on,,,,,4,0,1,,,,0,57,63
316634,note_off,,,,,12,0,1,,,,0,54,64
316644,note_off,,,,,10,0,1,,,,0,48,64
316656,note_off,,,,,12,0,1,,,,0,57,64
316668,note_on,,,,,12,0,1,,,,0,63,65
316708,note_on,,,,,40,0,1,,,,0,45,77
316712,note_on,,,,,0,0,1,,,,0,54,56
316712,note_on,,,,,0,0,1,,,,0,57,74
316712,note_off,,,,,4,0,1,,,,0,63,64
316730,note_off,,,,,18,0,1,,,,0,54,64
316746,note_off,,,,,16,0,1,,,,0,57,64
316752,note_on,,,,,0,0,1,,,,0,63,57
316752,note_off,,,,,6,0,1,,,,0,45,64
316790,note_off,,,,,38,0,1,,,,0,63,64
316800,note_on,,,,,10,0,1,,,,0,57,74
316802,note_on,,,,,2,0,1,,,,0,54,70
316804,note_on,,,,,2,0,1,,,,0,42,81
316832,note_off,,,,,28,0,1,,,,0,54,64
316840,note_off,,,,,8,0,1,,,,0,42,64
316842,note_off,,,,,2,0,1,,,,0,57,64
316856,note_on,,,,,14,0,1,,,,0,63,67
316898,note_on,,,,,42,0,1,,,,0,54,61
316900,note_off,,,,,2,0,1,,,,0,63,64
316902,note_on,,,,,2,0,1,,,,0,57,63
316904,note_on,,,,,2,0,1,,,,0,41,82
316930,note_off,,,,,26,0,1,,,,0,54,64
316936,note_off,,,,,6,0,1,,,,0,57,64
316942,note_off,,,,,6,0,1,,,,0,41,64
316952,note_on,,,,,10,0,1,,,,0,63,60
316996,note_off,,,,,44,0,1,,,,0,63,64
317000,note_on,,,,,4,0,1,,,,0,54,67
317004,note_on,,,,,4,0,1,,,,0,57,64
317012,note_on,,,,,8,0,1,,,,0,39,84
317030,note_off,,,,,18,0,1,,,,0,54,64
317038,note_off,,,,,8,0,1,,,,0,57,64
317050,note_off,,,,,12,0,1,,,,0,39,64
317056,note_on,,,,,6,0,1,,,,0,63,74
317096,note_off,,,,,40,0,1,,,,0,63,64
317108,note_on,,,,,12,0,1,,,,0,54,66
317112,note_on,,,,,4,0,1,,,,0,57,70
317118,note_on,,,,,6,0,1,,,,0,48,90
317146,note_off,,,,,28,0,1,,,,0,54,64
317154,note_off,,,,,8,0,1,,,,0,57,64
317156,note_on,,,,,2,0,1,,,,0,63,67
317200,note_off,,,,,44,0,1,,,,0,63,64
317208,note_on,,,,,8,0,1,,,,0,54,67
317212,note_on,,,,,4,0,1,,,,0,57,67
317244,note_off,,,,,32,0,1,,,,0,54,64
317252,note_on,,,,,0,0,1,,,,0,63,62
317252,note_off,,,,,8,0,1,,,,0,57,64
317292,note_off,,,,,40,0,1,,,,0,63,64
317296,note_off,,,,,4,0,1,,,,0,48,64
317308,note_on,,,,,0,0,1,,,,0,54,60
317308,note_on,,,,,12,0,1,,,,0,57,70
317328,control_change,,,,,20,0,1,,64,127,0,,
317336,note_off,,,,,8,0,1,,,,0,54,64
317348,note_on,,,,,12,0,1,,,,0,63,69
317352,note_off,,,,,4,0,1,,,,0,57,64
317396,note_off,,,,,44,0,1,,,,0,63,64
317406,note_on,,,,,10,0,1,,,,0,57,74
317408,note_on,,,,,2,0,1,,,,0,54,67
317418,control_change,,,,,10,0,1,,64,0,0,,
317430,control_change,,,,,12,0,1,,64,127,0,,
317440,note_off,,,,,10,0,1,,,,0,54,64
317450,note_on,,,,,10,0,1,,,,0,63,69
317456,note_off,,,,,6,0,1,,,,0,57,64
317496,note_off,,,,,40,0,1,,,,0,63,64
317514,note_on,,,,,18,0,1,,,,0,57,64
317514,note_on,,,,,0,0,1,,,,0,54,50
317532,note_off,,,,,18,0,1,,,,0,54,64
317552,note_on,,,,,20,0,1,,,,0,63,69
317556,note_off,,,,,4,0,1,,,,0,57,64
317602,note_off,,,,,46,0,1,,,,0,63,64
317612,note_on,,,,,0,0,1,,,,0,54,59
317612,note_on,,,,,10,0,1,,,,0,57,64
317634,note_on,,,,,22,0,1,,,,0,66,62
317636,note_off,,,,,2,0,1,,,,0,54,64
317640,note_on,,,,,4,0,1,,,,0,72,54
317650,note_on,,,,,10,0,1,,,,0,63,68
317656,note_off,,,,,6,0,1,,,,0,57,64
317660,note_off,,,,,4,0,1,,,,0,72,64
317660,note_off,,,,,0,0,1,,,,0,66,64
317684,control_change,,,,,24,0,1,,64,0,0,,
317700,note_on,,,,,16,0,1,,,,0,66,78
317704,note_on,,,,,4,0,1,,,,0,72,83
317708,note_off,,,,,4,0,1,,,,0,63,64
317710,note_on,,,,,2,0,1,,,,0,57,82
317710,note_on,,,,,0,0,1,,,,0,54,71
317716,control_change,,,,,6,0,1,,64,127,0,,
317740,note_off,,,,,24,0,1,,,,0,54,64
317752,note_on,,,,,12,0,1,,,,0,63,56
317756,note_off,,,,,4,0,1,,,,0,57,64
317756,note_off,,,,,0,0,1,,,,0,72,64
317756,note_off,,,,,0,0,1,,,,0,66,64
317800,note_off,,,,,44,0,1,,,,0,63,64
317814,note_on,,,,,14,0,1,,,,0,57,65
317816,note_on,,,,,2,0,1,,,,0,54,58
317836,note_off,,,,,20,0,1,,,,0,54,64
317856,note_off,,,,,20,0,1,,,,0,57,64
317862,note_on,,,,,6,0,1,,,,0,63,66
317904,note_off,,,,,42,0,1,,,,0,63,64
317914,note_on,,,,,10,0,1,,,,0,57,72
317916,note_on,,,,,2,0,1,,,,0,54,52
317932,note_off,,,,,16,0,1,,,,0,54,64
317944,note_on,,,,,12,0,1,,,,0,78,60
317950,note_on,,,,,6,0,1,,,,0,63,62
317952,note_on,,,,,2,0,1,,,,0,72,61
317956,note_off,,,,,4,0,1,,,,0,57,64
317966,note_off,,,,,10,0,1,,,,0,72,64
317972,note_off,,,,,6,0,1,,,,0,78,64
318002,note_off,,,,,30,0,1,,,,0,63,64
318004,note_on,,,,,2,0,1,,,,0,78,77
318008,note_on,,,,,0,0,1,,,,0,57,78
318008,note_on,,,,,4,0,1,,,,0,72,79
318010,note_on,,,,,2,0,1,,,,0,54,67
318016,control_change,,,,,6,0,1,,64,0,0,,
318028,control_change,,,,,12,0,1,,64,127,0,,
318040,note_off,,,,,12,0,1,,,,0,54,64
318044,note_on,,,,,4,0,1,,,,0,63,52
318054,note_off,,,,,0,0,1,,,,0,72,64
318054,note_off,,,,,10,0,1,,,,0,57,64
318068,note_off,,,,,14,0,1,,,,0,78,64
318092,note_off,,,,,24,0,1,,,,0,63,64
318112,note_on,,,,,20,0,1,,,,0,54,57
318118,note_on,,,,,6,0,1,,,,0,57,47
318138,note_off,,,,,20,0,1,,,,0,54,64
318154,note_on,,,,,0,0,1,,,,0,63,65
318154,note_off,,,,,16,0,1,,,,0,57,64
318196,note_off,,,,,42,0,1,,,,0,63,64
318210,note_on,,,,,14,0,1,,,,0,54,53
318214,note_on,,,,,4,0,1,,,,0,57,56
318236,note_off,,,,,22,0,1,,,,0,54,64
318248,note_on,,,,,12,0,1,,,,0,63,63
318256,note_on,,,,,8,0,1,,,,0,78,67
318258,note_off,,,,,2,0,1,,,,0,57,64
318260,note_on,,,,,2,0,1,,,,0,84,57
318284,note_off,,,,,24,0,1,,,,0,84,64
318284,note_off,,,,,0,0,1,,,,0,78,64
318306,note_off,,,,,22,0,1,,,,0,63,64
318312,note_on,,,,,0,0,1,,,,0,54,66
318312,note_on,,,,,6,0,1,,,,0,78,71
318314,note_on,,,,,2,0,1,,,,0,84,77
318316,note_on,,,,,2,0,1,,,,0,57,73
318346,note_off,,,,,30,0,1,,,,0,54,64
318350,note_on,,,,,4,0,1,,,,0,63,63
318356,note_off,,,,,6,0,1,,,,0,84,64
318362,note_off,,,,,6,0,1,,,,0,57,64
318362,note_off,,,,,0,0,1,,,,0,78,64
318406,note_off,,,,,44,0,1,,,,0,63,64
318418,note_on,,,,,0,0,1,,,,0,54,60
318418,note_on,,,,,12,0,1,,,,0,57,74
318440,note_off,,,,,22,0,1,,,,0,54,64
318458,note_off,,,,,18,0,1,,,,0,57,64
318460,note_on,,,,,2,0,1,,,,0,63,53
318504,note_off,,,,,44,0,1,,,,0,63,64
318518,note_on,,,,,14,0,1,,,,0,54,49
318526,note_on,,,,,8,0,1,,,,0,57,49
318544,note_off,,,,,18,0,1,,,,0,54,64
318560,note_on,,,,,16,0,1,,,,0,63,69
318564,note_off,,,,,4,0,1,,,,0,57,64
318608,note_off,,,,,44,0,1,,,,0,63,64
318618,note_on,,,,,10,0,1,,,,0,54,62
318620,note_on,,,,,2,0,1,,,,0,57,64
318646,note_off,,,,,26,0,1,,,,0,54,64
318658,note_on,,,,,12,0,1,,,,0,63,62
318660,note_off,,,,,2,0,1,,,,0,57,64
318702,note_off,,,,,42,0,1,,,,0,63,64
318704,note_on,,,,,2,0,1,,,,0,35,75
318712,control_change,,,,,8,0,1,,64,0,0,,
318714,note_on,,,,,2,0,1,,,,0,54,68
318716,note_on,,,,,2,0,1,,,,0,57,73
318744,note_off,,,,,28,0,1,,,,0,54,64
318754,note_on,,,,,10,0,1,,,,0,63,65
318756,note_off,,,,,2,0,1,,,,0,35,64
318756,note_off,,,,,0,0,1,,,,0,57,64
318800,note_off,,,,,44,0,1,,,,0,63,64
318812,note_on,,,,,0,0,1,,,,0,36,66
318812,note_on,,,,,12,0,1,,,,0,54,66
318814,note_on,,,,,2,0,1,,,,0,57,68
318842,note_off,,,,,28,0,1,,,,0,54,64
318848,note_on,,,,,6,0,1,,,,0,63,65
318852,note_off,,,,,4,0,1,,,,0,57,64
318852,note_off,,,,,0,0,1,,,,0,36,64
318894,note_off,,,,,42,0,1,,,,0,63,64
318912,note_on,,,,,18,0,1,,,,0,54,70
318916,note_on,,,,,4,0,1,,,,0,57,69
318916,note_on,,,,,0,0,1,,,,0,39,83
318948,note_off,,,,,32,0,1,,,,0,54,64
318950,note_on,,,,,2,0,1,,,,0,63,71
318960,note_off,,,,,10,0,1,,,,0,57,64
318968,note_off,,,,,8,0,1,,,,0,39,64
318996,note_off,,,,,28,0,1,,,,0,63,64
319012,note_on,,,,,16,0,1,,,,0,54,58
319016,note_on,,,,,4,0,1,,,,0,42,76
319018,note_on,,,,,2,0,1,,,,0,57,67
319040,note_off,,,,,22,0,1,,,,0,54,64
319050,note_off,,,,,10,0,1,,,,0,42,64
319052,note_on,,,,,2,0,1,,,,0,63,63
319056,note_off,,,,,4,0,1,,,,0,57,64
319092,note_off,,,,,36,0,1,,,,0,63,64
319114,note_on,,,,,22,0,1,,,,0,54,59
319116,note_on,,,,,2,0,1,,,,0,57,66
319116,note_on,,,,,0,0,1,,,,0,45,71
319142,note_off,,,,,26,0,1,,,,0,54,64
319152,note_off,,,,,10,0,1,,,,0,45,64
319154,note_on,,,,,2,0,1,,,,0,63,58
319158,note_off,,,,,4,0,1,,,,0,57,64
319198,note_off,,,,,40,0,1,,,,0,63,64
319216,note_on,,,,,18,0,1,,,,0,54,57
319216,note_on,,,,,0,0,1,,,,0,46,86
319218,note_on,,,,,2,0,1,,,,0,57,66
319248,note_off,,,,,30,0,1,,,,0,54,64
319250,note_off,,,,,2,0,1,,,,0,46,64
319260,note_on,,,,,10,0,1,,,,0,63,57
319264,note_off,,,,,4,0,1,,,,0,57,64
319308,note_off,,,,,44,0,1,,,,0,63,64
319320,note_on,,,,,12,0,1,,,,0,54,59
319320,note_on,,,,,0,0,1,,,,0,47,74
319326,note_on,,,,,6,0,1,,,,0,57,67
319346,note_off,,,,,20,0,1,,,,0,54,64
319352,note_off,,,,,6,0,1,,,,0,47,64
319362,note_off,,,,,10,0,1,,,,0,57,64
319364,note_on,,,,,2,0,1,,,,0,63,59
319408,note_off,,,,,44,0,1,,,,0,63,64
319420,note_on,,,,,0,0,1,,,,0,48,86
319420,note_on,,,,,12,0,1,,,,0,54,60
319422,note_on,,,,,2,0,1,,,,0,57,61
319452,note_on,,,,,30,0,1,,,,0,63,59
319454,note_off,,,,,2,0,1,,,,0,48,64
319456,note_off,,,,,2,0,1,,,,0,54,64
319468,note_off,,,,,12,0,1,,,,0,57,64
319496,note_off,,,,,28,0,1,,,,0,63,64
319524,note_on,,,,,28,0,1,,,,0,57,71
319524,note_on,,,,,0,0,1,,,,0,54,60
319528,note_on,,,,,4,0,1,,,,0,39,95
319546,note_off,,,,,18,0,1,,,,0,54,64
319564,note_on,,,,,18,0,1,,,,0,63,51
319566,note_off,,,,,2,0,1,,,,0,57,64
319620,note_off,,,,,54,0,1,,,,0,63,64
319634,note_on,,,,,14,0,1,,,,0,54,59
319644,note_on,,,,,10,0,1,,,,0,57,57
319660,note_off,,,,,16,0,1,,,,0,54,64
319680,note_off,,,,,20,0,1,,,,0,57,64
319684,note_on,,,,,4,0,1,,,,0,63,60
319716,note_off,,,,,32,0,1,,,,0,63,64
319730,note_on,,,,,14,0,1,,,,0,54,58
319732,note_on,,,,,2,0,1,,,,0,57,66
319748,note_off,,,,,16,0,1,,,,0,54,64
319768,note_off,,,,,20,0,1,,,,0,57,64
319774,note_on,,,,,6,0,1,,,,0,63,60
319824,note_off,,,,,50,0,1,,,,0,63,64
319828,note_on,,,,,4,0,1,,,,0,54,66
319828,note_on,,,,,0,0,1,,,,0,57,67
319834,note_off,,,,,6,0,1,,,,0,39,64
319852,control_change,,,,,18,0,1,,64,127,0,,
319864,note_off,,,,,12,0,1,,,,0,54,64
319880,note_on,,,,,16,0,1,,,,0,63,67
319884,note_off,,,,,4,0,1,,,,0,57,64
319932,control_change,,,,,0,0,1,,64,0,0,,
319932,note_off,,,,,48,0,1,,,,0,63,64
319936,control_change,,,,,4,0,1,,64,127,0,,
319940,note_on,,,,,4,0,1,,,,0,54,57
319944,note_on,,,,,4,0,1,,,,0,57,44
319970,note_off,,,,,26,0,1,,,,0,54,64
319984,note_on,,,,,14,0,1,,,,0,63,59
319990,note_off,,,,,6,0,1,,,,0,57,64
320036,note_off,,,,,46,0,1,,,,0,63,64
320040,note_on,,,,,4,0,1,,,,0,54,57
320042,note_on,,,,,2,0,1,,,,0,57,51
320070,note_on,,,,,0,0,1,,,,0,78,65
320070,note_off,,,,,28,0,1,,,,0,54,64
320084,note_on,,,,,14,0,1,,,,0,63,65
320090,note_off,,,,,6,0,1,,,,0,57,64
320102,note_off,,,,,12,0,1,,,,0,78,64
320130,note_on,,,,,28,0,1,,,,0,78,91
320136,note_on,,,,,6,0,1,,,,0,57,78
320138,note_off,,,,,2,0,1,,,,0,63,64
320138,note_on,,,,,0,0,1,,,,0,54,74
320168,note_off,,,,,30,0,1,,,,0,54,64
320184,note_off,,,,,16,0,1,,,,0,57,64
320188,note_on,,,,,4,0,1,,,,0,63,56
320234,note_off,,,,,46,0,1,,,,0,63,64
320242,note_on,,,,,8,0,1,,,,0,54,52
320250,note_on,,,,,8,0,1,,,,0,57,47
320262,note_off,,,,,12,0,1,,,,0,54,64
320288,note_off,,,,,26,0,1,,,,0,57,64
320290,note_on,,,,,2,0,1,,,,0,63,62
320296,control_change,,,,,6,0,1,,64,0,0,,
320314,control_change,,,,,18,0,1,,64,127,0,,
320330,note_off,,,,,16,0,1,,,,0,63,64
320340,note_on,,,,,0,0,1,,,,0,54,57
320340,note_on,,,,,10,0,1,,,,0,57,59
320360,note_off,,,,,20,0,1,,,,0,54,64
320376,note_off,,,,,16,0,1,,,,0,57,64
320378,note_on,,,,,2,0,1,,,,0,63,62
320388,control_change,,,,,10,0,1,,64,0,0,,
320408,control_change,,,,,20,0,1,,64,127,0,,
320424,note_off,,,,,16,0,1,,,,0,63,64
320432,note_on,,,,,8,0,1,,,,0,54,63
320434,note_on,,,,,2,0,1,,,,0,57,74
320462,note_off,,,,,28,0,1,,,,0,54,64
320472,note_on,,,,,10,0,1,,,,0,63,57
320482,note_off,,,,,10,0,1,,,,0,57,64
320482,note_off,,,,,0,0,1,,,,0,78,64
320526,note_off,,,,,44,0,1,,,,0,63,64
320532,note_on,,,,,6,0,1,,,,0,54,48
320546,note_on,,,,,14,0,1,,,,0,57,34
320560,note_off,,,,,14,0,1,,,,0,54,64
320584,note_off,,,,,24,0,1,,,,0,57,64
320584,note_on,,,,,0,0,1,,,,0,63,66
320634,note_off,,,,,50,0,1,,,,0,63,64
320640,note_on,,,,,6,0,1,,,,0,54,49
320642,note_on,,,,,2,0,1,,,,0,57,66
320658,note_off,,,,,16,0,1,,,,0,54,64
320674,note_on,,,,,16,0,1,,,,0,63,57
320678,note_on,,,,,4,0,1,,,,0,72,60
320684,note_off,,,,,6,0,1,,,,0,57,64
320702,note_off,,,,,18,0,1,,,,0,72,64
320730,note_off,,,,,28,0,1,,,,0,63,64
320736,note_on,,,,,6,0,1,,,,0,57,72
320738,note_on,,,,,2,0,1,,,,0,72,79
320738,note_on,,,,,0,0,1,,,,0,54,62
320754,control_change,,,,,16,0,1,,64,0,0,,
320762,control_change,,,,,0,0,1,,64,127,0,,
320762,note_off,,,,,8,0,1,,,,0,54,64
320772,note_on,,,,,10,0,1,,,,0,63,59
320782,note_off,,,,,10,0,1,,,,0,57,64
320784,note_off,,,,,2,0,1,,,,0,72,64
320828,note_off,,,,,44,0,1,,,,0,63,64
320840,note_on,,,,,12,0,1,,,,0,54,58
320844,note_on,,,,,4,0,1,,,,0,57,62
320860,note_off,,,,,16,0,1,,,,0,54,64
320880,note_off,,,,,20,0,1,,,,0,57,64
320882,note_on,,,,,2,0,1,,,,0,63,58
320932,note_off,,,,,50,0,1,,,,0,63,64
320944,note_on,,,,,12,0,1,,,,0,54,61
320950,note_on,,,,,6,0,1,,,,0,57,58
320978,note_on,,,,,0,0,1,,,,0,63,63
320978,note_off,,,,,28,0,1,,,,0,54,64
320984,note_off,,,,,6,0,1,,,,0,57,64
321030,note_off,,,,,46,0,1,,,,0,63,64
321048,note_on,,,,,18,0,1,,,,0,60,66
321048,note_on,,,,,0,0,1,,,,0,57,67
321082,note_off,,,,,34,0,1,,,,0,57,64
321088,note_on,,,,,6,0,1,,,,0,63,57
321092,note_off,,,,,4,0,1,,,,0,60,64
321142,note_on,,,,,0,0,1,,,,0,60,58
321142,note_off,,,,,50,0,1,,,,0,63,64
321144,note_on,,,,,2,0,1,,,,0,57,67
321156,note_on,,,,,12,0,1,,,,0,55,77
321176,control_change,,,,,20,0,1,,64,0,0,,
321180,note_off,,,,,4,0,1,,,,0,57,64
321194,note_on,,,,,14,0,1,,,,0,63,65
321200,note_off,,,,,6,0,1,,,,0,55,64
321202,note_off,,,,,2,0,1,,,,0,60,64
321238,note_off,,,,,36,0,1,,,,0,63,64
321242,note_on,,,,,4,0,1,,,,0,57,68
321244,note_on,,,,,2,0,1,,,,0,60,47
321248,note_on,,,,,4,0,1,,,,0,54,82
321282,note_off,,,,,34,0,1,,,,0,57,64
321284,note_off,,,,,2,0,1,,,,0,54,64
321292,note_on,,,,,8,0,1,,,,0,63,60
321298,note_off,,,,,6,0,1,,,,0,60,64
321310,note_off,,,,,12,0,1,,,,0,63,64
321352,note_on,,,,,42,0,1,,,,0,52,98
321354,note_on,,,,,2,0,1,,,,0,58,82
321356,note_on,,,,,2,0,1,,,,0,55,69
321392,note_off,,,,,36,0,1,,,,0,55,64
321402,note_off,,,,,10,0,1,,,,0,52,64
321410,note_off,,,,,8,0,1,,,,0,58,64
321424,note_on,,,,,14,0,1,,,,0,64,62
321460,note_on,,,,,36,0,1,,,,0,49,74
321466,note_off,,,,,6,0,1,,,,0,64,64
321468,note_on,,,,,2,0,1,,,,0,58,65
321468,note_on,,,,,0,0,1,,,,0,55,53
321490,note_off,,,,,22,0,1,,,,0,55,64
321492,note_off,,,,,2,0,1,,,,0,49,64
321500,note_off,,,,,8,0,1,,,,0,58,64
321528,note_on,,,,,28,0,1,,,,0,64,50
321562,note_on,,,,,34,0,1,,,,0,58,78
321564,note_on,,,,,0,0,1,,,,0,46,80
321564,note_off,,,,,2,0,1,,,,0,64,64
321566,note_on,,,,,2,0,1,,,,0,55,53
321588,note_off,,,,,22,0,1,,,,0,55,64
321600,note_off,,,,,12,0,1,,,,0,46,64
321600,note_off,,,,,0,0,1,,,,0,58,64
321618,note_on,,,,,18,0,1,,,,0,64,58
321656,note_off,,,,,38,0,1,,,,0,64,64
321662,note_on,,,,,6,0,1,,,,0,58,77
321666,note_on,,,,,4,0,1,,,,0,43,87
321668,note_on,,,,,2,0,1,,,,0,55,62
321696,note_off,,,,,28,0,1,,,,0,55,64
321700,note_off,,,,,4,0,1,,,,0,43,64
321706,note_off,,,,,6,0,1,,,,0,58,64
321720,note_on,,,,,14,0,1,,,,0,64,67
321764,note_off,,,,,44,0,1,,,,0,64,64
321766,note_on,,,,,2,0,1,,,,0,58,71
321772,note_on,,,,,6,0,1,,,,0,42,70
321776,note_on,,,,,4,0,1,,,,0,55,52
321794,note_off,,,,,18,0,1,,,,0,55,64
321806,note_off,,,,,12,0,1,,,,0,42,64
321812,note_off,,,,,6,0,1,,,,0,58,64
321824,note_on,,,,,12,0,1,,,,0,64,69
321864,note_on,,,,,40,0,1,,,,0,40,76
321876,note_on,,,,,0,0,1,,,,0,58,72
321876,note_off,,,,,12,0,1,,,,0,64,64
321880,note_on,,,,,4,0,1,,,,0,55,57
321904,note_off,,,,,24,0,1,,,,0,55,64
321904,note_off,,,,,0,0,1,,,,0,40,64
321920,note_off,,,,,16,0,1,,,,0,58,64
321932,note_on,,,,,12,0,1,,,,0,64,69
321972,note_off,,,,,40,0,1,,,,0,64,64
321974,note_on,,,,,2,0,1,,,,0,49,97
321982,note_on,,,,,8,0,1,,,,0,58,77
321988,note_on,,,,,6,0,1,,,,0,55,61
322016,note_off,,,,,28,0,1,,,,0,55,64
322032,note_off,,,,,16,0,1,,,,0,58,64
322036,note_on,,,,,4,0,1,,,,0,64,68
322076,note_off,,,,,40,0,1,,,,0,64,64
322080,note_on,,,,,4,0,1,,,,0,58,69
322090,note_on,,,,,10,0,1,,,,0,55,46
322110,note_off,,,,,20,0,1,,,,0,55,64
322120,control_change,,,,,10,0,1,,64,127,0,,
322122,note_off,,,,,2,0,1,,,,0,58,64
322132,note_on,,,,,10,0,1,,,,0,64,66
322172,note_off,,,,,40,0,1,,,,0,64,64
322174,note_on,,,,,2,0,1,,,,0,58,61
322180,note_off,,,,,6,0,1,,,,0,49,64
322180,note_on,,,,,0,0,1,,,,0,55,40
322202,note_off,,,,,22,0,1,,,,0,55,64
322212,note_off,,,,,10,0,1,,,,0,58,64
322222,note_on,,,,,10,0,1,,,,0,64,66
322264,note_off,,,,,42,0,1,,,,0,64,64
322274,note_on,,,,,10,0,1,,,,0,58,69
322280,note_on,,,,,6,0,1,,,,0,55,55
322310,note_off,,,,,30,0,1,,,,0,55,64
322326,note_off,,,,,16,0,1,,,,0,58,64
322328,note_on,,,,,2,0,1,,,,0,64,67
322366,note_off,,,,,38,0,1,,,,0,64,64
322374,note_on,,,,,8,0,1,,,,0,58,63
322382,note_on,,,,,8,0,1,,,,0,55,48
322402,note_off,,,,,20,0,1,,,,0,55,64
322420,note_off,,,,,18,0,1,,,,0,58,64
322424,note_on,,,,,4,0,1,,,,0,64,74
322464,note_off,,,,,40,0,1,,,,0,64,64
322472,note_on,,,,,8,0,1,,,,0,58,68
322476,note_on,,,,,4,0,1,,,,0,55,49
322502,note_off,,,,,26,0,1,,,,0,55,64
322504,note_on,,,,,2,0,1,,,,0,73,63
322508,note_on,,,,,4,0,1,,,,0,67,67
322518,note_off,,,,,10,0,1,,,,0,58,64
322520,note_on,,,,,2,0,1,,,,0,64,77
322522,note_off,,,,,2,0,1,,,,0,67,64
322532,note_off,,,,,10,0,1,,,,0,73,64
322566,note_off,,,,,34,0,1,,,,0,64,64
322568,note_on,,,,,2,0,1,,,,0,73,88
322568,note_on,,,,,0,0,1,,,,0,67,85
322570,note_on,,,,,2,0,1,,,,0,58,81
322576,note_on,,,,,6,0,1,,,,0,55,62
322604,note_off,,,,,28,0,1,,,,0,55,64
322618,note_off,,,,,14,0,1,,,,0,58,64
322620,note_on,,,,,2,0,1,,,,0,64,71
322622,note_off,,,,,2,0,1,,,,0,73,64
322624,note_off,,,,,2,0,1,,,,0,67,64
322658,note_off,,,,,34,0,1,,,,0,64,64
322672,note_on,,,,,14,0,1,,,,0,58,68
322680,note_on,,,,,8,0,1,,,,0,55,46
322698,note_off,,,,,18,0,1,,,,0,55,64
322712,note_off,,,,,14,0,1,,,,0,58,64
322720,note_on,,,,,8,0,1,,,,0,64,70
322758,note_off,,,,,38,0,1,,,,0,64,64
322766,note_on,,,,,8,0,1,,,,0,58,71
322772,note_on,,,,,6,0,1,,,,0,55,48
322794,note_off,,,,,22,0,1,,,,0,55,64
322808,note_off,,,,,14,0,1,,,,0,58,64
322810,note_on,,,,,2,0,1,,,,0,64,76
322816,note_on,,,,,0,0,1,,,,0,73,71
322816,note_on,,,,,6,0,1,,,,0,79,50
322838,note_off,,,,,22,0,1,,,,0,79,64
322846,note_off,,,,,8,0,1,,,,0,73,64
322858,note_off,,,,,12,0,1,,,,0,64,64
322866,note_on,,,,,8,0,1,,,,0,58,76
322874,note_on,,,,,8,0,1,,,,0,79,86
322876,note_on,,,,,0,0,1,,,,0,55,60
322876,note_on,,,,,2,0,1,,,,0,73,72
322882,control_change,,,,,6,0,1,,64,0,0,,
322892,control_change,,,,,10,0,1,,64,127,0,,
322908,note_off,,,,,16,0,1,,,,0,55,64
322916,note_off,,,,,8,0,1,,,,0,58,64
322918,note_on,,,,,2,0,1,,,,0,64,73
322922,note_off,,,,,4,0,1,,,,0,73,64
322928,note_off,,,,,6,0,1,,,,0,79,64
322956,note_off,,,,,28,0,1,,,,0,64,64
322976,note_on,,,,,20,0,1,,,,0,58,68
322984,note_on,,,,,8,0,1,,,,0,55,52
323006,note_off,,,,,22,0,1,,,,0,55,64
323022,note_off,,,,,16,0,1,,,,0,58,64
323032,note_on,,,,,10,0,1,,,,0,64,69
323074,note_off,,,,,42,0,1,,,,0,64,64
323080,note_on,,,,,6,0,1,,,,0,58,75
323084,note_on,,,,,4,0,1,,,,0,55,52
323110,note_on,,,,,26,0,1,,,,0,85,71
323116,note_off,,,,,6,0,1,,,,0,55,64
323116,note_on,,,,,0,0,1,,,,0,79,69
323120,note_off,,,,,4,0,1,,,,0,58,64
323124,note_on,,,,,4,0,1,,,,0,64,74
323140,note_off,,,,,16,0,1,,,,0,85,64
323148,note_off,,,,,8,0,1,,,,0,79,64
323174,note_off,,,,,26,0,1,,,,0,64,64
323178,note_on,,,,,4,0,1,,,,0,58,81
323184,note_on,,,,,6,0,1,,,,0,55,64
323186,note_on,,,,,2,0,1,,,,0,85,92
323188,note_on,,,,,2,0,1,,,,0,79,78
323204,control_change,,,,,16,0,1,,64,0,0,,
323208,control_change,,,,,4,0,1,,64,127,0,,
323216,note_off,,,,,8,0,1,,,,0,55,64
323228,note_on,,,,,0,0,1,,,,0,64,74
323228,note_off,,,,,12,0,1,,,,0,58,64
323232,note_off,,,,,4,0,1,,,,0,85,64
323248,note_off,,,,,16,0,1,,,,0,79,64
323268,note_off,,,,,20,0,1,,,,0,64,64
323286,note_on,,,,,18,0,1,,,,0,58,72
323294,note_on,,,,,8,0,1,,,,0,55,47
323316,note_off,,,,,22,0,1,,,,0,55,64
323328,note_off,,,,,12,0,1,,,,0,58,64
323336,note_on,,,,,8,0,1,,,,0,64,71
323374,note_off,,,,,38,0,1,,,,0,64,64
323386,note_on,,,,,12,0,1,,,,0,58,72
323392,note_on,,,,,6,0,1,,,,0,55,55
323420,note_off,,,,,28,0,1,,,,0,55,64
323432,note_off,,,,,12,0,1,,,,0,58,64
323436,note_on,,,,,4,0,1,,,,0,64,75
323484,note_off,,,,,48,0,1,,,,0,64,64
323490,note_on,,,,,6,0,1,,,,0,58,76
323496,note_on,,,,,6,0,1,,,,0,55,55
323522,note_off,,,,,26,0,1,,,,0,55,64
323536,note_off,,,,,14,0,1,,,,0,58,64
323540,note_on,,,,,4,0,1,,,,0,64,75
323576,note_off,,,,,36,0,1,,,,0,64,64
323594,note_on,,,,,18,0,1,,,,0,58,71
323596,note_on,,,,,2,0,1,,,,0,55,57
323628,note_off,,,,,32,0,1,,,,0,55,64
323642,note_on,,,,,0,0,1,,,,0,64,77
323642,note_off,,,,,14,0,1,,,,0,58,64
323686,note_off,,,,,44,0,1,,,,0,64,64
323704,note_on,,,,,18,0,1,,,,0,58,76
323706,note_on,,,,,2,0,1,,,,0,48,78
323708,note_on,,,,,2,0,1,,,,0,36,74
323710,note_on,,,,,2,0,1,,,,0,55,55
323742,note_off,,,,,0,0,1,,,,0,48,64
323742,note_off,,,,,32,0,1,,,,0,36,64
323756,note_on,,,,,14,0,1,,,,0,64,76
323768,note_off,,,,,12,0,1,,,,0,55,64
323768,note_off,,,,,0,0,1,,,,0,58,64
323788,set_tempo,,,,,12078,1,0,394737,,,,,
323802,note_off,,,,,34,0,1,,,,0,64,64
323804,set_tempo,,,,,16,1,0,397351,,,,,
323820,set_tempo,,,,,16,1,0,400000,,,,,
323836,set_tempo,,,,,16,1,0,402685,,,,,
323840,note_on,,,,,38,0,1,,,,0,48,94
323844,note_on,,,,,4,0,1,,,,0,36,92
323848,set_tempo,,,,,12,1,0,405405,,,,,
323864,set_tempo,,,,,16,1,0,410959,,,,,
323880,set_tempo,,,,,16,1,0,413793,,,,,
323882,control_change,,,,,38,0,1,,64,127,0,,
323896,set_tempo,,,,,16,1,0,416667,,,,,
323912,note_off,,,,,30,0,1,,,,0,36,64
323912,note_off,,,,,0,0,1,,,,0,48,64
323916,note_on,,,,,4,0,1,,,,0,58,77
323918,note_on,,,,,2,0,1,,,,0,64,74
323918,note_on,,,,,0,0,1,,,,0,55,71
323924,set_tempo,,,,,28,1,0,419580,,,,,
323940,set_tempo,,,,,16,1,0,422535,,,,,
323942,note_off,,,,,0,0,1,,,,0,58,64
323942,note_off,,,,,24,0,1,,,,0,55,64
323944,note_off,,,,,2,0,1,,,,0,64,64
323956,set_tempo,,,,,16,1,0,425532,,,,,
323972,set_tempo,,,,,16,1,0,428571,,,,,
323988,set_tempo,,,,,16,1,0,431655,,,,,
323992,note_on,,,,,0,0,1,,,,0,55,76
323992,note_on,,,,,48,0,1,,,,0,64,82
323996,note_on,,,,,4,0,1,,,,0,58,83
324000,set_tempo,,,,,12,1,0,434783,,,,,
324028,note_off,,,,,32,0,1,,,,0,55,64
324036,note_off,,,,,8,0,1,,,,0,64,64
324044,note_off,,,,,8,0,1,,,,0,58,64
324050,note_on,,,,,6,0,1,,,,0,49,80
324052,note_on,,,,,2,0,1,,,,0,37,79
324080,note_off,,,,,28,0,1,,,,0,37,64
324080,note_off,,,,,0,0,1,,,,0,49,64
324140,note_on,,,,,60,0,1,,,,0,49,91
324142,note_on,,,,,2,0,1,,,,0,37,89
324160,control_change,,,,,18,0,1,,64,0,0,,
324192,control_change,,,,,32,0,1,,64,127,0,,
324216,note_on,,,,,24,0,1,,,,0,70,68
324220,note_on,,,,,4,0,1,,,,0,67,49
324230,note_off,,,,,10,0,1,,,,0,70,64
324234,note_off,,,,,4,0,1,,,,0,67,64
324258,note_off,,,,,24,0,1,,,,0,49,64
324272,note_off,,,,,14,0,1,,,,0,37,64
324280,note_on,,,,,8,0,1,,,,0,76,77
324282,note_on,,,,,2,0,1,,,,0,67,81
324284,note_on,,,,,2,0,1,,,,0,70,84
324310,note_off,,,,,0,0,1,,,,0,76,64
324310,note_off,,,,,26,0,1,,,,0,67,64
324320,note_off,,,,,10,0,1,,,,0,70,64
324352,note_on,,,,,32,0,1,,,,0,48,91
324354,note_on,,,,,2,0,1,,,,0,36,83
324382,note_off,,,,,28,0,1,,,,0,36,64
324384,note_off,,,,,2,0,1,,,,0,48,64
324422,control_change,,,,,38,0,1,,64,0,0,,
324428,note_on,,,,,6,0,1,,,,0,48,92
324428,note_on,,,,,0,0,1,,,,0,36,90
324450,control_change,,,,,22,0,1,,64,127,0,,
324478,note_on,,,,,28,0,1,,,,0,79,74
324480,note_on,,,,,2,0,1,,,,0,88,81
324480,note_on,,,,,0,0,1,,,,0,82,76
324492,note_off,,,,,0,0,1,,,,0,79,64
324492,note_off,,,,,12,0,1,,,,0,88,64
324496,note_off,,,,,4,0,1,,,,0,82,64
324538,note_off,,,,,42,0,1,,,,0,48,64
324540,note_on,,,,,2,0,1,,,,0,82,87
324542,note_on,,,,,2,0,1,,,,0,88,82
324542,note_on,,,,,0,0,1,,,,0,79,76
324546,note_off,,,,,4,0,1,,,,0,36,64
324556,note_off,,,,,10,0,1,,,,0,88,64
324572,note_off,,,,,16,0,1,,,,0,79,64
324576,note_off,,,,,4,0,1,,,,0,82,64
324592,note_on,,,,,16,0,1,,,,0,47,84
324594,note_on,,,,,2,0,1,,,,0,35,82
324622,note_off,,,,,0,0,1,,,,0,47,64
324622,note_off,,,,,28,0,1,,,,0,35,64
324664,note_on,,,,,42,0,1,,,,0,47,94
324664,control_change,,,,,0,0,1,,64,0,0,,
324668,note_on,,,,,4,0,1,,,,0,35,91
324720,note_on,,,,,52,0,1,,,,0,58,89
324724,note_on,,,,,4,0,1,,,,0,64,74
324728,note_on,,,,,4,0,1,,,,0,55,67
324732,control_change,,,,,4,0,1,,64,127,0,,
324744,note_off,,,,,12,0,1,,,,0,55,64
324748,note_off,,,,,0,0,1,,,,0,58,64
324748,note_off,,,,,4,0,1,,,,0,64,64
324790,note_on,,,,,42,0,1,,,,0,64,87
324792,note_on,,,,,2,0,1,,,,0,58,91
324792,note_on,,,,,0,0,1,,,,0,55,85
324794,note_off,,,,,2,0,1,,,,0,35,64
324798,note_off,,,,,4,0,1,,,,0,47,64
324818,note_off,,,,,20,0,1,,,,0,55,64
324830,note_off,,,,,12,0,1,,,,0,64,64
324834,note_off,,,,,4,0,1,,,,0,58,64
324838,note_on,,,,,4,0,1,,,,0,34,85
324840,note_on,,,,,2,0,1,,,,0,46,87
324864,note_off,,,,,24,0,1,,,,0,34,64
324866,note_off,,,,,2,0,1,,,,0,46,64
324896,control_change,,,,,30,0,1,,64,0,0,,
324906,note_on,,,,,0,0,1,,,,0,34,94
324906,note_on,,,,,10,0,1,,,,0,46,92
324938,control_change,,,,,32,0,1,,64,127,0,,
324968,note_on,,,,,0,0,1,,,,0,56,89
324968,note_on,,,,,30,0,1,,,,0,65,79
324972,note_on,,,,,4,0,1,,,,0,61,78
324998,note_off,,,,,26,0,1,,,,0,56,64
325000,note_off,,,,,2,0,1,,,,0,65,64
325006,note_off,,,,,6,0,1,,,,0,61,64
325024,note_off,,,,,18,0,1,,,,0,46,64
325030,note_on,,,,,6,0,1,,,,0,65,79
325032,note_on,,,,,2,0,1,,,,0,61,84
325036,note_on,,,,,4,0,1,,,,0,56,81
325040,note_off,,,,,4,0,1,,,,0,34,64
325060,note_off,,,,,20,0,1,,,,0,56,64
325074,note_off,,,,,14,0,1,,,,0,61,64
325080,note_off,,,,,6,0,1,,,,0,65,64
325084,note_on,,,,,4,0,1,,,,0,45,81
325084,note_on,,,,,0,0,1,,,,0,33,72
325130,note_off,,,,,46,0,1,,,,0,33,64
325130,note_off,,,,,0,0,1,,,,0,45,64
325136,control_change,,,,,6,0,1,,64,0,0,,
325140,note_on,,,,,4,0,1,,,,0,45,87
325146,note_on,,,,,6,0,1,,,,0,33,98
325152,control_change,,,,,6,0,1,,64,127,0,,
325196,note_on,,,,,44,0,1,,,,0,68,77
325200,note_on,,,,,4,0,1,,,,0,77,74
325200,note_on,,,,,0,0,1,,,,0,73,82
325214,note_off,,,,,14,0,1,,,,0,77,64
325220,note_off,,,,,6,0,1,,,,0,68,64
325226,note_off,,,,,6,0,1,,,,0,45,64
325232,note_off,,,,,6,0,1,,,,0,33,64
325238,note_off,,,,,6,0,1,,,,0,73,64
325264,note_on,,,,,26,0,1,,,,0,77,75
325266,note_on,,,,,2,0,1,,,,0,73,82
325266,note_on,,,,,0,0,1,,,,0,68,81
325290,note_off,,,,,24,0,1,,,,0,68,64
325300,note_off,,,,,10,0,1,,,,0,77,64
325304,note_off,,,,,4,0,1,,,,0,73,64
325318,note_on,,,,,14,0,1,,,,0,44,95
325320,note_on,,,,,2,0,1,,,,0,32,92
325334,control_change,,,,,14,0,1,,64,0,0,,
325364,note_off,,,,,30,0,1,,,,0,44,64
325368,control_change,,,,,4,0,1,,64,127,0,,
325374,note_off,,,,,6,0,1,,,,0,32,64
325386,note_on,,,,,12,0,1,,,,0,44,101
325388,note_on,,,,,2,0,1,,,,0,32,93
325440,note_on,,,,,52,0,1,,,,0,80,79
325444,note_on,,,,,4,0,1,,,,0,85,76
325446,note_on,,,,,2,0,1,,,,0,89,68
325454,note_off,,,,,8,0,1,,,,0,80,64
325460,note_off,,,,,6,0,1,,,,0,89,64
325460,note_off,,,,,0,0,1,,,,0,85,64
325464,note_off,,,,,4,0,1,,,,0,44,64
325466,note_off,,,,,2,0,1,,,,0,32,64
325508,note_on,,,,,0,0,1,,,,0,80,89
325508,note_on,,,,,42,0,1,,,,0,85,88
325510,note_on,,,,,2,0,1,,,,0,89,80
325522,note_off,,,,,12,0,1,,,,0,89,64
325540,note_off,,,,,18,0,1,,,,0,80,64
325540,note_off,,,,,0,0,1,,,,0,85,64
325566,note_on,,,,,26,0,1,,,,0,49,95
325568,note_on,,,,,2,0,1,,,,0,37,86
325596,control_change,,,,,28,0,1,,64,0,0,,
325608,note_off,,,,,12,0,1,,,,0,49,64
325610,note_off,,,,,2,0,1,,,,0,37,64
325612,control_change,,,,,2,0,1,,64,127,0,,
325638,note_on,,,,,26,0,1,,,,0,49,103
325640,note_on,,,,,2,0,1,,,,0,37,95
325680,note_on,,,,,40,0,1,,,,0,65,74
325680,note_on,,,,,0,0,1,,,,0,59,74
325684,note_on,,,,,4,0,1,,,,0,56,85
325712,note_off,,,,,28,0,1,,,,0,56,64
325716,note_off,,,,,4,0,1,,,,0,65,64
325718,note_off,,,,,2,0,1,,,,0,37,64
325720,note_off,,,,,2,0,1,,,,0,59,64
325756,note_off,,,,,36,0,1,,,,0,49,64
325760,note_on,,,,,4,0,1,,,,0,65,93
325762,note_on,,,,,2,0,1,,,,0,56,100
325764,note_on,,,,,2,0,1,,,,0,59,86
325824,note_on,,,,,60,0,1,,,,0,50,98
325826,note_on,,,,,2,0,1,,,,0,38,92
325858,control_change,,,,,32,0,1,,64,0,0,,
325864,note_off,,,,,6,0,1,,,,0,59,64
325872,note_off,,,,,8,0,1,,,,0,38,64
325874,note_off,,,,,2,0,1,,,,0,65,64
325876,note_off,,,,,2,0,1,,,,0,56,64
325878,note_off,,,,,2,0,1,,,,0,50,64
325898,control_change,,,,,20,0,1,,64,127,0,,
325902,note_on,,,,,4,0,1,,,,0,50,100
325904,note_on,,,,,2,0,1,,,,0,38,92
325964,note_on,,,,,60,0,1,,,,0,66,77
325966,note_on,,,,,2,0,1,,,,0,60,74
325968,note_on,,,,,2,0,1,,,,0,57,72
325974,note_off,,,,,6,0,1,,,,0,38,64
325988,note_off,,,,,14,0,1,,,,0,50,64
325992,note_off,,,,,4,0,1,,,,0,57,64
325994,note_off,,,,,2,0,1,,,,0,60,64
326008,note_off,,,,,14,0,1,,,,0,66,64
326032,note_on,,,,,24,0,1,,,,0,66,86
326036,note_on,,,,,0,0,1,,,,0,57,80
326036,note_on,,,,,4,0,1,,,,0,60,78
326060,note_off,,,,,24,0,1,,,,0,57,64
326066,note_off,,,,,6,0,1,,,,0,60,64
326076,note_on,,,,,10,0,1,,,,0,51,92
326080,note_on,,,,,4,0,1,,,,0,39,81
326092,note_off,,,,,12,0,1,,,,0,66,64
326104,note_off,,,,,12,0,1,,,,0,39,64
326106,note_off,,,,,2,0,1,,,,0,51,64
326116,control_change,,,,,10,0,1,,64,0,0,,
326126,control_change,,,,,10,0,1,,64,127,0,,
326148,note_on,,,,,22,0,1,,,,0,51,94
326150,note_on,,,,,2,0,1,,,,0,39,92
326196,note_on,,,,,46,0,1,,,,0,78,81
326202,note_on,,,,,6,0,1,,,,0,72,76
326204,note_on,,,,,2,0,1,,,,0,69,73
326216,note_off,,,,,12,0,1,,,,0,69,64
326222,note_off,,,,,6,0,1,,,,0,72,64
326228,note_off,,,,,6,0,1,,,,0,39,64
326230,note_off,,,,,2,0,1,,,,0,78,64
326250,note_off,,,,,20,0,1,,,,0,51,64
326260,note_on,,,,,10,0,1,,,,0,78,84
326262,note_on,,,,,2,0,1,,,,0,72,84
326264,note_on,,,,,2,0,1,,,,0,69,82
326290,note_off,,,,,26,0,1,,,,0,69,64
326294,note_off,,,,,4,0,1,,,,0,72,64
326312,note_on,,,,,18,0,1,,,,0,50,93
326314,note_on,,,,,2,0,1,,,,0,38,92
326316,note_off,,,,,2,0,1,,,,0,78,64
326338,control_change,,,,,22,0,1,,64,0,0,,
326344,note_off,,,,,6,0,1,,,,0,50,64
326346,note_off,,,,,2,0,1,,,,0,38,64
326360,control_change,,,,,14,0,1,,64,127,0,,
326382,note_on,,,,,22,0,1,,,,0,50,95
326382,note_on,,,,,0,0,1,,,,0,38,87
326432,note_on,,,,,50,0,1,,,,0,90,85
326434,note_on,,,,,2,0,1,,,,0,84,77
326438,note_on,,,,,4,0,1,,,,0,81,64
326448,note_off,,,,,10,0,1,,,,0,84,64
326452,note_off,,,,,4,0,1,,,,0,81,64
326458,note_off,,,,,6,0,1,,,,0,90,64
326468,note_off,,,,,0,0,1,,,,0,50,64
326468,note_off,,,,,10,0,1,,,,0,38,64
326488,note_on,,,,,20,0,1,,,,0,90,81
326492,note_on,,,,,4,0,1,,,,0,84,85
326494,note_on,,,,,2,0,1,,,,0,81,82
326522,note_off,,,,,28,0,1,,,,0,84,64
326522,note_off,,,,,0,0,1,,,,0,90,64
326528,note_off,,,,,6,0,1,,,,0,81,64
326546,note_on,,,,,18,0,1,,,,0,49,93
326548,note_on,,,,,2,0,1,,,,0,37,88
326570,note_off,,,,,22,0,1,,,,0,37,64
326572,note_off,,,,,2,0,1,,,,0,49,64
326576,control_change,,,,,4,0,1,,64,0,0,,
326584,control_change,,,,,8,0,1,,64,127,0,,
326614,note_on,,,,,30,0,1,,,,0,49,97
326616,note_on,,,,,2,0,1,,,,0,37,93
326664,note_on,,,,,48,0,1,,,,0,60,85
326668,note_on,,,,,4,0,1,,,,0,66,77
326670,note_on,,,,,2,0,1,,,,0,57,82
326684,note_off,,,,,14,0,1,,,,0,57,64
326690,note_off,,,,,6,0,1,,,,0,60,64
326698,note_off,,,,,8,0,1,,,,0,66,64
326702,note_off,,,,,4,0,1,,,,0,37,64
326708,note_off,,,,,6,0,1,,,,0,49,64
326726,note_on,,,,,18,0,1,,,,0,66,81
326730,note_on,,,,,4,0,1,,,,0,60,81
326732,note_on,,,,,2,0,1,,,,0,57,77
326760,note_off,,,,,0,0,1,,,,0,60,64
326760,note_off,,,,,28,0,1,,,,0,57,64
326766,note_on,,,,,6,0,1,,,,0,48,91
326770,note_on,,,,,4,0,1,,,,0,36,90
326788,note_off,,,,,18,0,1,,,,0,66,64
326796,note_off,,,,,0,0,1,,,,0,48,64
326796,note_off,,,,,8,0,1,,,,0,36,64
326804,control_change,,,,,8,0,1,,64,0,0,,
326818,control_change,,,,,14,0,1,,64,127,0,,
326838,note_on,,,,,20,0,1,,,,0,48,100
326840,note_on,,,,,2,0,1,,,,0,36,94
326884,note_on,,,,,0,0,1,,,,0,58,87
326884,note_on,,,,,44,0,1,,,,0,67,80
326886,note_on,,,,,2,0,1,,,,0,63,77
326912,note_off,,,,,0,0,1,,,,0,67,64
326912,note_off,,,,,26,0,1,,,,0,58,64
326920,note_off,,,,,8,0,1,,,,0,63,64
326924,note_off,,,,,4,0,1,,,,0,48,64
326934,note_off,,,,,10,0,1,,,,0,36,64
326954,note_on,,,,,20,0,1,,,,0,63,84
326956,note_on,,,,,2,0,1,,,,0,67,88
326956,note_on,,,,,0,0,1,,,,0,58,93
326984,note_off,,,,,28,0,1,,,,0,58,64
327000,note_on,,,,,16,0,1,,,,0,47,92
327002,note_off,,,,,2,0,1,,,,0,67,64
327004,note_off,,,,,2,0,1,,,,0,63,64
327006,note_on,,,,,2,0,1,,,,0,35,86
327036,note_off,,,,,30,0,1,,,,0,47,64
327038,control_change,,,,,2,0,1,,64,0,0,,
327040,note_off,,,,,2,0,1,,,,0,35,64
327052,control_change,,,,,12,0,1,,64,127,0,,
327084,note_on,,,,,0,0,1,,,,0,35,95
327084,note_on,,,,,32,0,1,,,,0,47,102
327134,note_on,,,,,50,0,1,,,,0,70,84
327136,note_on,,,,,2,0,1,,,,0,75,84
327140,note_on,,,,,4,0,1,,,,0,79,73
327148,note_off,,,,,8,0,1,,,,0,70,64
327150,note_off,,,,,2,0,1,,,,0,75,64
327154,note_off,,,,,4,0,1,,,,0,79,64
327154,note_off,,,,,0,0,1,,,,0,47,64
327154,note_off,,,,,0,0,1,,,,0,35,64
327188,note_on,,,,,34,0,1,,,,0,79,81
327190,note_on,,,,,2,0,1,,,,0,70,87
327192,note_on,,,,,2,0,1,,,,0,75,89
327212,note_off,,,,,20,0,1,,,,0,70,64
327216,note_off,,,,,4,0,1,,,,0,79,64
327222,note_off,,,,,6,0,1,,,,0,75,64
327234,note_on,,,,,12,0,1,,,,0,46,97
327236,note_on,,,,,2,0,1,,,,0,34,91
327256,control_change,,,,,20,0,1,,64,0,0,,
327260,note_off,,,,,4,0,1,,,,0,34,64
327264,note_off,,,,,4,0,1,,,,0,46,64
327280,control_change,,,,,16,0,1,,64,127,0,,
327304,note_on,,,,,24,0,1,,,,0,46,100
327308,note_on,,,,,4,0,1,,,,0,34,97
327356,note_on,,,,,48,0,1,,,,0,82,89
327362,note_on,,,,,6,0,1,,,,0,91,73
327364,note_on,,,,,2,0,1,,,,0,85,67
327374,note_off,,,,,10,0,1,,,,0,82,64
327376,note_off,,,,,2,0,1,,,,0,91,64
327378,note_off,,,,,2,0,1,,,,0,85,64
327398,note_off,,,,,20,0,1,,,,0,46,64
327420,note_on,,,,,22,0,1,,,,0,82,93
327424,note_on,,,,,4,0,1,,,,0,85,92
327426,note_on,,,,,2,0,1,,,,0,91,62
327434,note_off,,,,,8,0,1,,,,0,34,64
327436,note_off,,,,,2,0,1,,,,0,91,64
327448,note_off,,,,,0,0,1,,,,0,82,64
327448,note_off,,,,,12,0,1,,,,0,85,64
327462,note_on,,,,,14,0,1,,,,0,51,102
327464,note_on,,,,,2,0,1,,,,0,39,86
327492,note_off,,,,,28,0,1,,,,0,39,64
327492,note_off,,,,,0,0,1,,,,0,51,64
327534,note_on,,,,,42,0,1,,,,0,51,107
327536,note_on,,,,,2,0,1,,,,0,39,100
327586,note_on,,,,,0,0,1,,,,0,58,88
327586,note_on,,,,,50,0,1,,,,0,67,80
327588,note_on,,,,,2,0,1,,,,0,61,84
327606,note_off,,,,,18,0,1,,,,0,58,64
327610,note_off,,,,,4,0,1,,,,0,67,64
327612,note_off,,,,,2,0,1,,,,0,51,64
327614,note_off,,,,,2,0,1,,,,0,39,64
327616,note_off,,,,,2,0,1,,,,0,61,64
327646,note_on,,,,,30,0,1,,,,0,67,81
327646,note_on,,,,,0,0,1,,,,0,61,85
327652,note_on,,,,,6,0,1,,,,0,58,85
327692,note_off,,,,,40,0,1,,,,0,58,64
327700,note_on,,,,,8,0,1,,,,0,52,98
327704,note_on,,,,,4,0,1,,,,0,40,93
327726,note_off,,,,,0,0,1,,,,0,67,64
327726,note_off,,,,,22,0,1,,,,0,61,64
327728,note_off,,,,,2,0,1,,,,0,52,64
327730,note_off,,,,,2,0,1,,,,0,40,64
327740,control_change,,,,,10,0,1,,64,0,0,,
327774,control_change,,,,,0,0,1,,64,127,0,,
327774,note_on,,,,,34,0,1,,,,0,52,114
327776,note_on,,,,,2,0,1,,,,0,40,98
327824,note_on,,,,,48,0,1,,,,0,68,79
327828,note_on,,,,,4,0,1,,,,0,62,77
327828,note_on,,,,,0,0,1,,,,0,59,69
327844,note_off,,,,,16,0,1,,,,0,40,64
327848,note_off,,,,,4,0,1,,,,0,52,64
327852,note_off,,,,,4,0,1,,,,0,62,64
327854,note_off,,,,,2,0,1,,,,0,59,64
327864,note_off,,,,,10,0,1,,,,0,68,64
327888,note_on,,,,,24,0,1,,,,0,62,79
327890,note_on,,,,,2,0,1,,,,0,68,89
327892,note_on,,,,,2,0,1,,,,0,59,77
327920,note_off,,,,,28,0,1,,,,0,59,64
327924,note_off,,,,,4,0,1,,,,0,62,64
327944,note_on,,,,,20,0,1,,,,0,53,102
327948,note_on,,,,,0,0,1,,,,0,41,105
327948,note_off,,,,,4,0,1,,,,0,68,64
327970,note_off,,,,,22,0,1,,,,0,41,64
327972,note_off,,,,,2,0,1,,,,0,53,64
328012,note_on,,,,,40,0,1,,,,0,53,98
328014,note_on,,,,,2,0,1,,,,0,41,102
328050,note_on,,,,,36,0,1,,,,0,80,84
328052,note_on,,,,,2,0,1,,,,0,71,82
328054,note_on,,,,,2,0,1,,,,0,74,81
328060,note_off,,,,,6,0,1,,,,0,53,64
328068,note_off,,,,,8,0,1,,,,0,41,64
328076,note_off,,,,,8,0,1,,,,0,71,64
328078,note_off,,,,,2,0,1,,,,0,74,64
328080,note_off,,,,,2,0,1,,,,0,80,64
328114,note_on,,,,,34,0,1,,,,0,80,90
328116,note_on,,,,,0,0,1,,,,0,71,87
328116,note_on,,,,,2,0,1,,,,0,74,91
328142,note_off,,,,,26,0,1,,,,0,71,64
328148,note_off,,,,,6,0,1,,,,0,74,64
328164,note_off,,,,,16,0,1,,,,0,80,64
328166,note_on,,,,,2,0,1,,,,0,52,97
328170,note_on,,,,,4,0,1,,,,0,40,90
328196,note_off,,,,,0,0,1,,,,0,52,64
328196,note_off,,,,,26,0,1,,,,0,40,64
328206,control_change,,,,,10,0,1,,64,0,0,,
328212,control_change,,,,,6,0,1,,64,127,0,,
328232,note_on,,,,,20,0,1,,,,0,52,95
328234,note_on,,,,,2,0,1,,,,0,40,91
328278,note_off,,,,,44,0,1,,,,0,52,64
328284,note_off,,,,,6,0,1,,,,0,40,64
328286,note_on,,,,,2,0,1,,,,0,92,86
328288,note_on,,,,,0,0,1,,,,0,83,74
328288,note_on,,,,,2,0,1,,,,0,86,80
328300,note_off,,,,,12,0,1,,,,0,92,64
328302,note_off,,,,,0,0,1,,,,0,86,64
328302,note_off,,,,,2,0,1,,,,0,83,64
328340,note_on,,,,,38,0,1,,,,0,92,98
328342,note_on,,,,,2,0,1,,,,0,86,97
328344,note_on,,,,,2,0,1,,,,0,83,88
328372,note_off,,,,,0,0,1,,,,0,92,64
328372,note_off,,,,,28,0,1,,,,0,86,64
328376,note_off,,,,,4,0,1,,,,0,83,64
328386,note_on,,,,,10,0,1,,,,0,51,100
328388,note_on,,,,,2,0,1,,,,0,39,87
328412,note_off,,,,,24,0,1,,,,0,39,64
328412,note_off,,,,,0,0,1,,,,0,51,64
328420,control_change,,,,,8,0,1,,64,0,0,,
328434,control_change,,,,,14,0,1,,64,127,0,,
328456,note_on,,,,,22,0,1,,,,0,51,105
328460,note_on,,,,,4,0,1,,,,0,39,97
328512,note_off,,,,,52,0,1,,,,0,51,64
328516,note_on,,,,,4,0,1,,,,0,62,91
328518,note_on,,,,,0,0,1,,,,0,59,81
328518,note_on,,,,,2,0,1,,,,0,68,81
328520,note_off,,,,,2,0,1,,,,0,39,64
328532,note_off,,,,,12,0,1,,,,0,59,64
328540,note_off,,,,,8,0,1,,,,0,62,64
328546,note_off,,,,,6,0,1,,,,0,68,64
328572,note_on,,,,,0,0,1,,,,0,62,83
328572,note_on,,,,,26,0,1,,,,0,68,90
328574,note_on,,,,,2,0,1,,,,0,59,85
328602,note_off,,,,,28,0,1,,,,0,59,64
328604,note_off,,,,,2,0,1,,,,0,62,64
328618,note_on,,,,,14,0,1,,,,0,50,97
328620,note_off,,,,,2,0,1,,,,0,68,64
328620,note_on,,,,,0,0,1,,,,0,38,94
328648,control_change,,,,,0,0,1,,64,0,0,,
328648,note_off,,,,,28,0,1,,,,0,50,64
328652,note_off,,,,,4,0,1,,,,0,38,64
328676,control_change,,,,,24,0,1,,64,127,0,,
328684,note_on,,,,,0,0,1,,,,0,38,92
328684,note_on,,,,,8,0,1,,,,0,50,95
328740,note_off,,,,,56,0,1,,,,0,38,64
328740,note_off,,,,,0,0,1,,,,0,50,64
328742,note_on,,,,,2,0,1,,,,0,62,93
328744,note_on,,,,,0,0,1,,,,0,68,88
328744,note_on,,,,,2,0,1,,,,0,71,85
328766,note_off,,,,,22,0,1,,,,0,62,64
328768,note_off,,,,,0,0,1,,,,0,71,64
328768,note_off,,,,,2,0,1,,,,0,68,64
328800,note_on,,,,,32,0,1,,,,0,68,84
328802,note_on,,,,,2,0,1,,,,0,71,84
328804,note_on,,,,,2,0,1,,,,0,62,84
328828,note_off,,,,,24,0,1,,,,0,62,64
328842,note_off,,,,,14,0,1,,,,0,71,64
328844,note_off,,,,,2,0,1,,,,0,68,64
328854,note_on,,,,,10,0,1,,,,0,49,94
328856,note_on,,,,,2,0,1,,,,0,37,90
328884,note_off,,,,,28,0,1,,,,0,49,64
328886,note_off,,,,,2,0,1,,,,0,37,64
328892,control_change,,,,,6,0,1,,64,0,0,,
328900,control_change,,,,,8,0,1,,64,127,0,,
328922,note_on,,,,,22,0,1,,,,0,49,95
328924,note_on,,,,,2,0,1,,,,0,37,90
328966,note_on,,,,,42,0,1,,,,0,74,83
328968,note_on,,,,,2,0,1,,,,0,80,83
328972,note_on,,,,,4,0,1,,,,0,83,68
328984,note_off,,,,,12,0,1,,,,0,83,64
328984,note_off,,,,,0,0,1,,,,0,49,64
328990,note_off,,,,,6,0,1,,,,0,37,64
328992,note_off,,,,,0,0,1,,,,0,74,64
328992,note_off,,,,,2,0,1,,,,0,80,64
329024,note_on,,,,,32,0,1,,,,0,80,83
329026,note_on,,,,,2,0,1,,,,0,83,90
329028,note_on,,,,,2,0,1,,,,0,74,85
329052,note_off,,,,,24,0,1,,,,0,74,64
329064,note_off,,,,,12,0,1,,,,0,80,64
329066,note_off,,,,,2,0,1,,,,0,83,64
329086,note_on,,,,,0,0,1,,,,0,36,88
329086,note_on,,,,,20,0,1,,,,0,48,97
329114,note_off,,,,,28,0,1,,,,0,48,64
329116,note_off,,,,,2,0,1,,,,0,36,64
329118,control_change,,,,,2,0,1,,64,0,0,,
329130,control_change,,,,,12,0,1,,64,127,0,,
329152,note_on,,,,,22,0,1,,,,0,48,95
329158,note_on,,,,,6,0,1,,,,0,36,94
329204,note_on,,,,,46,0,1,,,,0,92,83
329204,note_on,,,,,0,0,1,,,,0,86,81
329208,note_on,,,,,4,0,1,,,,0,95,62
329210,note_off,,,,,2,0,1,,,,0,48,64
329218,note_off,,,,,8,0,1,,,,0,86,64
329220,note_off,,,,,2,0,1,,,,0,36,64
329222,note_off,,,,,2,0,1,,,,0,95,64
329222,note_off,,,,,0,0,1,,,,0,92,64
329260,note_on,,,,,38,0,1,,,,0,92,91
329262,note_on,,,,,2,0,1,,,,0,95,95
329264,note_on,,,,,2,0,1,,,,0,86,88
329288,note_off,,,,,24,0,1,,,,0,95,64
329300,note_off,,,,,12,0,1,,,,0,92,64
329304,note_off,,,,,4,0,1,,,,0,86,64
329312,note_on,,,,,8,0,1,,,,0,47,98
329318,note_on,,,,,6,0,1,,,,0,35,90
329344,note_off,,,,,26,0,1,,,,0,35,64
329344,note_off,,,,,0,0,1,,,,0,47,64
329350,control_change,,,,,6,0,1,,64,0,0,,
329352,control_change,,,,,2,0,1,,64,127,0,,
329388,note_on,,,,,36,0,1,,,,0,47,107
329388,note_on,,,,,0,0,1,,,,0,35,97
329432,note_on,,,,,44,0,1,,,,0,68,92
329432,note_on,,,,,0,0,1,,,,0,62,93
329434,note_on,,,,,2,0,1,,,,0,71,83
329446,note_off,,,,,12,0,1,,,,0,35,64
329456,note_off,,,,,10,0,1,,,,0,47,64
329458,note_off,,,,,2,0,1,,,,0,62,64
329460,note_off,,,,,2,0,1,,,,0,71,64
329464,note_off,,,,,4,0,1,,,,0,68,64
329498,note_on,,,,,34,0,1,,,,0,68,82
329500,note_on,,,,,2,0,1,,,,0,71,91
329502,note_on,,,,,2,0,1,,,,0,62,94
329558,note_on,,,,,56,0,1,,,,0,52,107
329564,note_on,,,,,6,0,1,,,,0,40,98
329580,note_off,,,,,16,0,1,,,,0,62,64
329584,note_off,,,,,4,0,1,,,,0,71,64
329590,control_change,,,,,6,0,1,,64,0,0,,
329598,note_off,,,,,8,0,1,,,,0,52,64
329604,note_off,,,,,6,0,1,,,,0,40,64
329608,note_off,,,,,4,0,1,,,,0,68,64
329608,control_change,,,,,0,0,1,,64,127,0,,
329638,note_on,,,,,30,0,1,,,,0,52,102
329640,note_on,,,,,2,0,1,,,,0,40,88
329688,note_on,,,,,48,0,1,,,,0,62,93
329690,note_on,,,,,0,0,1,,,,0,68,83
329690,note_on,,,,,2,0,1,,,,0,71,77
329692,note_on,,,,,2,0,1,,,,0,74,74
329710,note_off,,,,,18,0,1,,,,0,40,64
329710,note_off,,,,,0,0,1,,,,0,52,64
329720,note_off,,,,,10,0,1,,,,0,68,64
329720,note_off,,,,,0,0,1,,,,0,62,64
329724,note_off,,,,,4,0,1,,,,0,74,64
329724,note_off,,,,,0,0,1,,,,0,71,64
329756,note_on,,,,,32,0,1,,,,0,74,74
329756,note_on,,,,,0,0,1,,,,0,62,90
329758,note_on,,,,,0,0,1,,,,0,68,79
329758,note_on,,,,,2,0,1,,,,0,71,83
329796,note_off,,,,,38,0,1,,,,0,62,64
329808,note_on,,,,,0,0,1,,,,0,41,97
329808,note_on,,,,,12,0,1,,,,0,53,100
329812,note_off,,,,,4,0,1,,,,0,68,64
329816,note_off,,,,,4,0,1,,,,0,71,64
329820,note_off,,,,,4,0,1,,,,0,74,64
329836,note_off,,,,,16,0,1,,,,0,53,64
329840,note_off,,,,,4,0,1,,,,0,41,64
329880,note_on,,,,,40,0,1,,,,0,53,105
329880,note_on,,,,,0,0,1,,,,0,41,102
329932,note_on,,,,,52,0,1,,,,0,86,77
329932,note_on,,,,,0,0,1,,,,0,74,87
329934,note_on,,,,,2,0,1,,,,0,80,81
329938,note_on,,,,,4,0,1,,,,0,83,70
329944,note_off,,,,,6,0,1,,,,0,53,64
329952,note_off,,,,,8,0,1,,,,0,83,64
329952,note_off,,,,,0,0,1,,,,0,41,64
329956,note_off,,,,,4,0,1,,,,0,80,64
329956,note_off,,,,,0,0,1,,,,0,74,64
329958,note_off,,,,,2,0,1,,,,0,86,64
329992,note_on,,,,,34,0,1,,,,0,80,84
329992,note_on,,,,,0,0,1,,,,0,74,95
329994,note_on,,,,,2,0,1,,,,0,86,87
329994,note_on,,,,,0,0,1,,,,0,83,91
330016,note_off,,,,,22,0,1,,,,0,74,64
330020,note_off,,,,,4,0,1,,,,0,83,64
330028,note_off,,,,,8,0,1,,,,0,80,64
330040,note_on,,,,,0,0,1,,,,0,52,94
330040,note_off,,,,,12,0,1,,,,0,86,64
330044,note_on,,,,,4,0,1,,,,0,40,92
330068,control_change,,,,,24,0,1,,64,0,0,,
330072,control_change,,,,,4,0,1,,64,127,0,,
330076,note_off,,,,,4,0,1,,,,0,52,64
330080,note_off,,,,,4,0,1,,,,0,40,64
330116,note_on,,,,,36,0,1,,,,0,52,98
330116,note_on,,,,,0,0,1,,,,0,40,88
330160,note_off,,,,,44,0,1,,,,0,52,64
330164,note_off,,,,,4,0,1,,,,0,40,64
330170,note_on,,,,,6,0,1,,,,0,98,94
330170,note_on,,,,,0,0,1,,,,0,86,84
330172,note_on,,,,,2,0,1,,,,0,95,83
330176,note_on,,,,,4,0,1,,,,0,92,68
330186,note_off,,,,,10,0,1,,,,0,95,64
330188,note_off,,,,,2,0,1,,,,0,92,64
330194,note_off,,,,,6,0,1,,,,0,86,64
330196,note_off,,,,,2,0,1,,,,0,98,64
330232,note_on,,,,,36,0,1,,,,0,98,92
330232,note_on,,,,,0,0,1,,,,0,86,95
330234,note_on,,,,,2,0,1,,,,0,95,93
330236,note_on,,,,,2,0,1,,,,0,92,94
330254,note_off,,,,,18,0,1,,,,0,98,64
330258,note_off,,,,,4,0,1,,,,0,95,64
330270,note_on,,,,,12,0,1,,,,0,51,103
330272,note_on,,,,,2,0,1,,,,0,39,87
330276,note_off,,,,,0,0,1,,,,0,92,64
330276,note_off,,,,,4,0,1,,,,0,86,64
330282,control_change,,,,,6,0,1,,64,0,0,,
330296,control_change,,,,,14,0,1,,64,127,0,,
330300,note_off,,,,,4,0,1,,,,0,39,64
330300,note_off,,,,,0,0,1,,,,0,51,64
330346,note_on,,,,,46,0,1,,,,0,51,107
330348,note_on,,,,,2,0,1,,,,0,39,97
330412,note_on,,,,,64,0,1,,,,0,71,82
330414,note_on,,,,,2,0,1,,,,0,62,90
330416,note_on,,,,,0,0,1,,,,0,68,77
330416,note_on,,,,,2,0,1,,,,0,74,67
330430,note_off,,,,,14,0,1,,,,0,74,64
330438,note_off,,,,,0,0,1,,,,0,62,64
330438,note_off,,,,,8,0,1,,,,0,68,64
330440,note_off,,,,,2,0,1,,,,0,71,64
330448,note_off,,,,,8,0,1,,,,0,51,64
330456,note_off,,,,,8,0,1,,,,0,39,64
330472,note_on,,,,,0,0,1,,,,0,62,92
330472,note_on,,,,,16,0,1,,,,0,71,84
330476,note_on,,,,,0,0,1,,,,0,68,81
330476,note_on,,,,,4,0,1,,,,0,74,64
330516,note_on,,,,,40,0,1,,,,0,50,95
330520,note_on,,,,,4,0,1,,,,0,38,95
330524,note_off,,,,,4,0,1,,,,0,62,64
330540,note_off,,,,,16,0,1,,,,0,68,64
330544,control_change,,,,,4,0,1,,64,0,0,,
330548,note_off,,,,,4,0,1,,,,0,50,64
330552,note_off,,,,,0,0,1,,,,0,74,64
330552,note_off,,,,,4,0,1,,,,0,38,64
330554,note_off,,,,,2,0,1,,,,0,71,64
330574,control_change,,,,,20,0,1,,64,127,0,,
330584,note_on,,,,,0,0,1,,,,0,38,95
330584,note_on,,,,,10,0,1,,,,0,50,100
330630,note_on,,,,,46,0,1,,,,0,71,84
330636,note_on,,,,,6,0,1,,,,0,68,72
330636,note_on,,,,,0,0,1,,,,0,65,77
330640,note_off,,,,,4,0,1,,,,0,38,64
330642,note_on,,,,,2,0,1,,,,0,77,67
330644,note_off,,,,,2,0,1,,,,0,50,64
330660,note_off,,,,,16,0,1,,,,0,68,64
330662,note_off,,,,,2,0,1,,,,0,65,64
330666,note_off,,,,,4,0,1,,,,0,77,64
330668,note_off,,,,,2,0,1,,,,0,71,64
330696,note_on,,,,,28,0,1,,,,0,71,93
330698,note_on,,,,,2,0,1,,,,0,65,93
330700,note_on,,,,,0,0,1,,,,0,68,84
330700,note_on,,,,,2,0,1,,,,0,77,74
330730,note_off,,,,,30,0,1,,,,0,65,64
330734,note_off,,,,,4,0,1,,,,0,68,64
330736,note_on,,,,,2,0,1,,,,0,49,95
330740,note_on,,,,,4,0,1,,,,0,37,89
330750,note_off,,,,,10,0,1,,,,0,71,64
330754,note_off,,,,,4,0,1,,,,0,77,64
330766,note_off,,,,,12,0,1,,,,0,37,64
330766,note_off,,,,,0,0,1,,,,0,49,64
330808,note_on,,,,,42,0,1,,,,0,49,108
330808,note_on,,,,,0,0,1,,,,0,37,100
330856,note_on,,,,,48,0,1,,,,0,83,91
330860,note_on,,,,,4,0,1,,,,0,77,77
330862,note_on,,,,,2,0,1,,,,0,89,77
330862,note_on,,,,,0,0,1,,,,0,80,76
330864,note_off,,,,,2,0,1,,,,0,49,64
330874,note_off,,,,,10,0,1,,,,0,77,64
330876,note_off,,,,,0,0,1,,,,0,37,64
330876,note_off,,,,,0,0,1,,,,0,89,64
330876,note_off,,,,,2,0,1,,,,0,80,64
330882,note_off,,,,,6,0,1,,,,0,83,64
330912,note_on,,,,,30,0,1,,,,0,83,94
330914,note_on,,,,,2,0,1,,,,0,77,92
330916,note_on,,,,,2,0,1,,,,0,89,84
330918,note_on,,,,,2,0,1,,,,0,80,87
330952,note_off,,,,,34,0,1,,,,0,77,64
330956,note_off,,,,,4,0,1,,,,0,80,64
330968,note_off,,,,,12,0,1,,,,0,83,64
330970,note_on,,,,,0,0,1,,,,0,36,95
330970,note_on,,,,,2,0,1,,,,0,48,102
330978,note_off,,,,,8,0,1,,,,0,89,64
331000,note_off,,,,,22,0,1,,,,0,48,64
331004,note_off,,,,,4,0,1,,,,0,36,64
331040,note_on,,,,,36,0,1,,,,0,48,97
331042,note_on,,,,,2,0,1,,,,0,36,94
331088,note_on,,,,,46,0,1,,,,0,92,88
331088,note_on,,,,,0,0,1,,,,0,89,88
331092,note_on,,,,,4,0,1,,,,0,101,90
331092,note_on,,,,,0,0,1,,,,0,95,54
331106,note_off,,,,,14,0,1,,,,0,95,64
331106,note_off,,,,,0,0,1,,,,0,101,64
331108,note_off,,,,,0,0,1,,,,0,48,64
331108,note_off,,,,,0,0,1,,,,0,92,64
331108,note_off,,,,,2,0,1,,,,0,89,64
331124,note_off,,,,,16,0,1,,,,0,36,64
331148,note_on,,,,,24,0,1,,,,0,89,82
331150,note_on,,,,,2,0,1,,,,0,101,84
331156,note_on,,,,,6,0,1,,,,0,92,84
331158,note_on,,,,,2,0,1,,,,0,95,54
331172,note_off,,,,,0,0,1,,,,0,92,64
331172,note_off,,,,,14,0,1,,,,0,95,64
331184,note_off,,,,,12,0,1,,,,0,89,64
331192,note_off,,,,,8,0,1,,,,0,101,64
331194,note_on,,,,,2,0,1,,,,0,47,111
331196,note_on,,,,,2,0,1,,,,0,35,95
331224,control_change,,,,,28,0,1,,64,0,0,,
331228,note_off,,,,,4,0,1,,,,0,47,64
331236,control_change,,,,,8,0,1,,64,127,0,,
331268,note_on,,,,,32,0,1,,,,0,47,117
331272,note_on,,,,,4,0,1,,,,0,59,105
331274,note_off,,,,,2,0,1,,,,0,35,64
331324,note_off,,,,,50,0,1,,,,0,59,64
331328,note_on,,,,,0,0,1,,,,0,98,91
331328,note_on,,,,,0,0,1,,,,0,89,90
331328,note_on,,,,,4,0,1,,,,0,101,90
331332,note_off,,,,,4,0,1,,,,0,47,64
331352,note_off,,,,,0,0,1,,,,0,98,64
331352,note_off,,,,,20,0,1,,,,0,89,64
331354,note_off,,,,,2,0,1,,,,0,101,64
331394,note_on,,,,,40,0,1,,,,0,101,90
331394,note_on,,,,,0,0,1,,,,0,98,100
331396,note_on,,,,,2,0,1,,,,0,89,91
331418,note_off,,,,,22,0,1,,,,0,101,64
331434,note_off,,,,,16,0,1,,,,0,98,64
331440,note_on,,,,,6,0,1,,,,0,46,101
331440,note_on,,,,,0,0,1,,,,0,34,92
331442,note_off,,,,,2,0,1,,,,0,89,64
331450,control_change,,,,,8,0,1,,64,0,0,,
331468,note_off,,,,,18,0,1,,,,0,46,64
331472,control_change,,,,,4,0,1,,64,127,0,,
331502,note_off,,,,,30,0,1,,,,0,34,64
331516,note_on,,,,,14,0,1,,,,0,58,98
331516,note_on,,,,,0,0,1,,,,0,46,105
331572,note_on,,,,,56,0,1,,,,0,77,85
331574,note_on,,,,,2,0,1,,,,0,86,86
331576,note_on,,,,,2,0,1,,,,0,89,77
331584,note_off,,,,,8,0,1,,,,0,46,64
331596,note_off,,,,,12,0,1,,,,0,89,64
331596,note_off,,,,,0,0,1,,,,0,58,64
331596,note_off,,,,,0,0,1,,,,0,77,64
331600,note_off,,,,,4,0,1,,,,0,86,64
331638,note_on,,,,,38,0,1,,,,0,86,95
331640,note_on,,,,,2,0,1,,,,0,89,88
331640,note_on,,,,,0,0,1,,,,0,77,100
331662,note_off,,,,,22,0,1,,,,0,89,64
331674,note_off,,,,,12,0,1,,,,0,86,64
331676,note_off,,,,,2,0,1,,,,0,77,64
331688,note_on,,,,,0,0,1,,,,0,33,98
331688,note_on,,,,,12,0,1,,,,0,45,102
331708,control_change,,,,,20,0,1,,64,0,0,,
331718,note_off,,,,,10,0,1,,,,0,45,64
331720,control_change,,,,,2,0,1,,64,127,0,,
331756,note_on,,,,,36,0,1,,,,0,45,105
331758,note_on,,,,,0,0,1,,,,0,57,105
331758,note_off,,,,,2,0,1,,,,0,33,64
331808,note_on,,,,,50,0,1,,,,0,77,71
331808,note_on,,,,,0,0,1,,,,0,65,91
331810,note_off,,,,,0,0,1,,,,0,45,64
331810,note_off,,,,,2,0,1,,,,0,57,64
331812,note_on,,,,,2,0,1,,,,0,74,71
331832,note_off,,,,,20,0,1,,,,0,65,64
331836,note_off,,,,,4,0,1,,,,0,77,64
331840,note_off,,,,,4,0,1,,,,0,74,64
331870,note_on,,,,,30,0,1,,,,0,74,90
331872,note_on,,,,,2,0,1,,,,0,77,78
331872,note_on,,,,,0,0,1,,,,0,65,95
331918,note_off,,,,,46,0,1,,,,0,77,64
331918,note_on,,,,,0,0,1,,,,0,44,102
331920,note_on,,,,,2,0,1,,,,0,32,94
331926,note_off,,,,,6,0,1,,,,0,65,64
331938,note_off,,,,,12,0,1,,,,0,74,64
331942,control_change,,,,,4,0,1,,64,0,0,,
331950,note_off,,,,,8,0,1,,,,0,44,64
331956,control_change,,,,,6,0,1,,64,127,0,,
331984,note_on,,,,,28,0,1,,,,0,44,101
331986,note_on,,,,,2,0,1,,,,0,56,94
331998,note_off,,,,,12,0,1,,,,0,32,64
332052,note_on,,,,,54,0,1,,,,0,89,84
332058,note_on,,,,,6,0,1,,,,0,86,67
332060,note_on,,,,,2,0,1,,,,0,77,49
332072,note_off,,,,,12,0,1,,,,0,86,64
332074,note_off,,,,,2,0,1,,,,0,77,64
332084,note_off,,,,,10,0,1,,,,0,89,64
332100,note_off,,,,,16,0,1,,,,0,44,64
332104,note_on,,,,,4,0,1,,,,0,89,87
332104,note_on,,,,,0,0,1,,,,0,86,91
332114,note_off,,,,,10,0,1,,,,0,56,64
332116,note_on,,,,,2,0,1,,,,0,77,84
332148,note_off,,,,,32,0,1,,,,0,77,64
332148,note_off,,,,,0,0,1,,,,0,86,64
332152,note_off,,,,,4,0,1,,,,0,89,64
332168,note_on,,,,,16,0,1,,,,0,43,91
332170,note_on,,,,,2,0,1,,,,0,31,100
332194,control_change,,,,,24,0,1,,64,0,0,,
332198,note_off,,,,,4,0,1,,,,0,43,64
332208,control_change,,,,,10,0,1,,64,127,0,,
332240,note_on,,,,,32,0,1,,,,0,43,102
332242,note_on,,,,,2,0,1,,,,0,55,102
332248,note_off,,,,,6,0,1,,,,0,31,64
332298,note_on,,,,,0,0,1,,,,0,89,75
332298,note_on,,,,,50,0,1,,,,0,98,82
332300,note_on,,,,,2,0,1,,,,0,101,77
332304,note_off,,,,,4,0,1,,,,0,55,64
332308,note_off,,,,,4,0,1,,,,0,43,64
332312,note_off,,,,,4,0,1,,,,0,89,64
332314,note_off,,,,,2,0,1,,,,0,101,64
332314,note_off,,,,,0,0,1,,,,0,98,64
332362,note_on,,,,,0,0,1,,,,0,89,95
332362,note_on,,,,,48,0,1,,,,0,98,105
332364,note_on,,,,,2,0,1,,,,0,101,100
332390,note_off,,,,,26,0,1,,,,0,101,64
332402,note_on,,,,,12,0,1,,,,0,42,97
332404,note_on,,,,,2,0,1,,,,0,30,93
332412,note_off,,,,,8,0,1,,,,0,89,64
332412,control_change,,,,,0,0,1,,64,0,0,,
332418,note_off,,,,,6,0,1,,,,0,98,64
332432,note_off,,,,,14,0,1,,,,0,42,64
332436,control_change,,,,,4,0,1,,64,127,0,,
332476,note_on,,,,,40,0,1,,,,0,54,105
332478,note_on,,,,,2,0,1,,,,0,42,98
332482,note_off,,,,,4,0,1,,,,0,30,64
332538,note_on,,,,,0,0,1,,,,0,98,93
332538,note_on,,,,,56,0,1,,,,0,102,90
332540,note_on,,,,,2,0,1,,,,0,90,89
332558,note_off,,,,,18,0,1,,,,0,54,64
332564,note_off,,,,,6,0,1,,,,0,102,64
332566,note_off,,,,,2,0,1,,,,0,90,64
332568,note_off,,,,,2,0,1,,,,0,98,64
332570,note_off,,,,,2,0,1,,,,0,42,64
332604,note_on,,,,,34,0,1,,,,0,98,95
332606,note_on,,,,,2,0,1,,,,0,90,94
332608,note_on,,,,,2,0,1,,,,0,102,94
332636,note_off,,,,,28,0,1,,,,0,102,64
332650,note_off,,,,,14,0,1,,,,0,98,64
332658,note_off,,,,,8,0,1,,,,0,90,64
332660,note_on,,,,,2,0,1,,,,0,41,98
332662,note_on,,,,,2,0,1,,,,0,29,97
332668,control_change,,,,,6,0,1,,64,0,0,,
332692,control_change,,,,,24,0,1,,64,127,0,,
332694,note_off,,,,,2,0,1,,,,0,41,64
332736,note_on,,,,,42,0,1,,,,0,41,105
332738,note_on,,,,,2,0,1,,,,0,53,100
332740,note_off,,,,,2,0,1,,,,0,29,64
332798,note_on,,,,,58,0,1,,,,0,78,92
332800,note_off,,,,,2,0,1,,,,0,53,64
332800,note_off,,,,,0,0,1,,,,0,41,64
332800,note_on,,,,,0,0,1,,,,0,90,77
332802,note_on,,,,,2,0,1,,,,0,86,82
332826,note_off,,,,,24,0,1,,,,0,78,64
332828,note_off,,,,,2,0,1,,,,0,90,64
332830,note_off,,,,,2,0,1,,,,0,86,64
332866,note_on,,,,,36,0,1,,,,0,78,93
332868,note_on,,,,,2,0,1,,,,0,90,87
332868,note_on,,,,,0,0,1,,,,0,86,88
332896,control_change,,,,,28,0,1,,64,0,0,,
332908,note_off,,,,,12,0,1,,,,0,90,64
332920,note_off,,,,,12,0,1,,,,0,86,64
332924,note_off,,,,,4,0,1,,,,0,78,64
332928,control_change,,,,,4,0,1,,64,127,0,,
332944,note_on,,,,,16,0,1,,,,0,28,87
332946,note_on,,,,,2,0,1,,,,0,40,91
333024,note_off,,,,,78,0,1,,,,0,40,64
333030,note_on,,,,,6,0,1,,,,0,52,102
333032,note_on,,,,,2,0,1,,,,0,40,101
333120,set_tempo,,,,,9120,1,0,348837,,,,,
333126,note_on,,,,,0,0,1,,,,0,70,95
333126,note_on,,,,,94,0,1,,,,0,73,92
333128,note_on,,,,,2,0,1,,,,0,79,84
333130,note_on,,,,,2,0,1,,,,0,67,94
333136,control_change,,,,,6,0,1,,64,0,0,,
333142,control_change,,,,,6,0,1,,64,127,0,,
333148,note_off,,,,,6,0,1,,,,0,67,64
333156,note_off,,,,,8,0,1,,,,0,70,64
333158,note_off,,,,,2,0,1,,,,0,79,64
333160,note_off,,,,,2,0,1,,,,0,73,64
333220,note_on,,,,,60,0,1,,,,0,73,97
333220,note_on,,,,,0,0,1,,,,0,67,107
333222,note_on,,,,,2,0,1,,,,0,79,97
333222,note_on,,,,,0,0,1,,,,0,70,101
333242,control_change,,,,,20,0,1,,64,0,0,,
333292,control_change,,,,,50,0,1,,64,127,0,,
333326,note_off,,,,,34,0,1,,,,0,79,64
333354,note_off,,,,,28,0,1,,,,0,67,64
333364,note_off,,,,,10,0,1,,,,0,70,64
333364,note_off,,,,,0,0,1,,,,0,73,64
333404,note_off,,,,,40,0,1,,,,0,52,64
333422,note_off,,,,,18,0,1,,,,0,28,64
333422,note_off,,,,,0,0,1,,,,0,40,64
333518,control_change,,,,,96,0,1,,64,0,0,,
333650,note_on,,,,,132,0,1,,,,0,39,92
333652,note_on,,,,,2,0,1,,,,0,63,94
333652,note_on,,,,,0,0,1,,,,0,51,103
333654,note_on,,,,,2,0,1,,,,0,27,89
333686,control_change,,,,,32,0,1,,64,127,0,,
333708,note_off,,,,,22,0,1,,,,0,51,64
333724,note_off,,,,,16,0,1,,,,0,63,64
333744,note_off,,,,,20,0,1,,,,0,39,64
333750,note_off,,,,,6,0,1,,,,0,27,64
333814,note_on,,,,,64,0,1,,,,0,52,90
333816,note_on,,,,,2,0,1,,,,0,40,82
333816,note_on,,,,,0,0,1,,,,0,28,93
333818,note_on,,,,,2,0,1,,,,0,64,88
333844,control_change,,,,,26,0,1,,64,0,0,,
333848,control_change,,,,,4,0,1,,64,127,0,,
333852,note_off,,,,,0,0,1,,,,0,52,64
333852,note_off,,,,,4,0,1,,,,0,40,64
333856,note_off,,,,,4,0,1,,,,0,28,64
333868,note_off,,,,,12,0,1,,,,0,64,64
333942,note_on,,,,,0,0,1,,,,0,31,95
333942,note_on,,,,,74,0,1,,,,0,43,92
333944,note_on,,,,,2,0,1,,,,0,55,93
333948,note_on,,,,,4,0,1,,,,0,67,83
333964,note_off,,,,,16,0,1,,,,0,55,64
333972,note_off,,,,,8,0,1,,,,0,43,64
333974,note_off,,,,,0,0,1,,,,0,31,64
333974,note_off,,,,,2,0,1,,,,0,67,64
334040,note_on,,,,,0,0,1,,,,0,34,92
334040,note_on,,,,,66,0,1,,,,0,46,91
334048,note_on,,,,,8,0,1,,,,0,58,84
334054,note_on,,,,,6,0,1,,,,0,70,82
334062,note_off,,,,,8,0,1,,,,0,58,64
334068,note_off,,,,,6,0,1,,,,0,70,64
334068,note_off,,,,,0,0,1,,,,0,34,64
334072,note_off,,,,,4,0,1,,,,0,46,64
334144,note_on,,,,,72,0,1,,,,0,61,96
334144,note_on,,,,,0,0,1,,,,0,49,95
334146,note_on,,,,,2,0,1,,,,0,73,94
334146,note_on,,,,,0,0,1,,,,0,37,87
334172,note_off,,,,,26,0,1,,,,0,61,64
334178,note_off,,,,,6,0,1,,,,0,73,64
334182,note_off,,,,,4,0,1,,,,0,49,64
334188,note_off,,,,,6,0,1,,,,0,37,64
334246,note_on,,,,,58,0,1,,,,0,62,95
334248,note_on,,,,,0,0,1,,,,0,38,91
334248,note_on,,,,,2,0,1,,,,0,50,94
334250,note_on,,,,,2,0,1,,,,0,74,91
334270,note_off,,,,,20,0,1,,,,0,62,64
334274,note_off,,,,,4,0,1,,,,0,74,64
334278,note_off,,,,,4,0,1,,,,0,50,64
334280,note_off,,,,,2,0,1,,,,0,38,64
334348,set_tempo,,,,,1228,1,0,346821,,,,,
334352,note_on,,,,,72,0,1,,,,0,63,94
334356,note_on,,,,,4,0,1,,,,0,75,93
334356,note_on,,,,,0,0,1,,,,0,51,100
334358,note_on,,,,,2,0,1,,,,0,39,86
334366,control_change,,,,,8,0,1,,64,0,0,,
334372,control_change,,,,,6,0,1,,64,127,0,,
334380,set_tempo,,,,,32,1,0,342857,,,,,
334386,note_off,,,,,14,0,1,,,,0,63,64
334394,note_off,,,,,8,0,1,,,,0,51,64
334396,note_off,,,,,2,0,1,,,,0,39,64
334396,note_off,,,,,0,0,1,,,,0,75,64
334412,set_tempo,,,,,32,1,0,340909,,,,,
334444,set_tempo,,,,,32,1,0,338983,,,,,
334468,note_on,,,,,72,0,1,,,,0,64,93
334468,note_on,,,,,0,0,1,,,,0,52,93
334470,note_on,,,,,2,0,1,,,,0,76,87
334470,note_on,,,,,0,0,1,,,,0,40,92
334476,set_tempo,,,,,32,1,0,337079,,,,,
334484,control_change,,,,,14,0,1,,64,0,0,,
334488,control_change,,,,,4,0,1,,64,127,0,,
334498,note_off,,,,,10,0,1,,,,0,64,64
334500,note_off,,,,,2,0,1,,,,0,52,64
334504,note_off,,,,,0,0,1,,,,0,76,64
334504,note_off,,,,,4,0,1,,,,0,40,64
334508,set_tempo,,,,,32,1,0,333333,,,,,
334572,set_tempo,,,,,64,1,0,331492,,,,,
334588,note_on,,,,,84,0,1,,,,0,55,92
334588,note_on,,,,,0,0,1,,,,0,43,91
334590,note_on,,,,,2,0,1,,,,0,67,90
334592,note_on,,,,,2,0,1,,,,0,79,91
334604,set_tempo,,,,,32,1,0,329670,,,,,
334618,note_off,,,,,0,0,1,,,,0,55,64
334618,note_off,,,,,26,0,1,,,,0,67,64
334620,note_off,,,,,2,0,1,,,,0,43,64
334624,note_off,,,,,4,0,1,,,,0,79,64
334632,set_tempo,,,,,28,1,0,324324,,,,,
334664,set_tempo,,,,,32,1,0,322581,,,,,
334696,set_tempo,,,,,32,1,0,320856,,,,,
334698,control_change,,,,,74,0,1,,64,0,0,,
334704,note_on,,,,,6,0,1,,,,0,58,98
334706,note_on,,,,,2,0,1,,,,0,46,90
334708,control_change,,,,,2,0,1,,64,127,0,,
334710,note_on,,,,,2,0,1,,,,0,82,96
334712,note_on,,,,,2,0,1,,,,0,70,100
334728,set_tempo,,,,,32,1,0,319149,,,,,
334736,note_off,,,,,24,0,1,,,,0,70,64
334736,note_off,,,,,0,0,1,,,,0,58,64
334738,note_off,,,,,2,0,1,,,,0,46,64
334740,note_off,,,,,2,0,1,,,,0,82,64
334760,set_tempo,,,,,32,1,0,315789,,,,,
334792,set_tempo,,,,,32,1,0,314136,,,,,
334832,control_change,,,,,92,0,1,,64,0,0,,
334834,note_on,,,,,2,0,1,,,,0,85,96
334836,note_on,,,,,2,0,1,,,,0,73,95
334836,note_on,,,,,0,0,1,,,,0,61,98
334838,note_on,,,,,2,0,1,,,,0,49,90
334844,control_change,,,,,6,0,1,,64,127,0,,
334856,set_tempo,,,,,64,1,0,312500,,,,,
334864,note_off,,,,,20,0,1,,,,0,73,64
334868,note_off,,,,,4,0,1,,,,0,85,64
334872,note_off,,,,,4,0,1,,,,0,49,64
334874,note_off,,,,,2,0,1,,,,0,61,64
334888,set_tempo,,,,,32,1,0,310881,,,,,
334916,set_tempo,,,,,28,1,0,307692,,,,,
334948,set_tempo,,,,,32,1,0,304569,,,,,
334968,control_change,,,,,94,0,1,,64,0,0,,
334972,note_on,,,,,4,0,1,,,,0,62,88
334974,note_on,,,,,2,0,1,,,,0,50,90
334976,note_on,,,,,2,0,1,,,,0,86,94
334976,note_on,,,,,0,0,1,,,,0,74,93
334980,set_tempo,,,,,32,1,0,303030,,,,,
334984,control_change,,,,,8,0,1,,64,127,0,,
335008,note_off,,,,,0,0,1,,,,0,50,64
335008,note_off,,,,,0,0,1,,,,0,62,64
335008,note_off,,,,,24,0,1,,,,0,74,64
335012,set_tempo,,,,,32,1,0,300000,,,,,
335012,note_off,,,,,4,0,1,,,,0,86,64
335044,set_tempo,,,,,32,1,0,298507,,,,,
335076,set_tempo,,,,,32,1,0,297030,,,,,
335126,control_change,,,,,114,0,1,,64,0,0,,
335130,note_on,,,,,0,0,1,,,,0,75,96
335130,note_on,,,,,4,0,1,,,,0,87,96
335132,note_on,,,,,0,0,1,,,,0,51,90
335132,note_on,,,,,2,0,1,,,,0,63,92
335140,set_tempo,,,,,64,1,0,295567,,,,,
335140,control_change,,,,,8,0,1,,64,127,0,,
335160,note_off,,,,,20,0,1,,,,0,75,64
335166,note_off,,,,,6,0,1,,,,0,63,64
335168,note_off,,,,,0,0,1,,,,0,87,64
335168,note_off,,,,,2,0,1,,,,0,51,64
335172,set_tempo,,,,,32,1,0,292683,,,,,
335204,set_tempo,,,,,32,1,0,291262,,,,,
335232,set_tempo,,,,,28,1,0,289855,,,,,
335264,set_tempo,,,,,32,1,0,285714,,,,,
335296,set_tempo,,,,,32,1,0,284360,,,,,
335298,note_on,,,,,130,0,1,,,,0,64,91
335300,note_on,,,,,0,0,1,,,,0,76,87
335300,note_on,,,,,2,0,1,,,,0,88,88
335302,note_on,,,,,2,0,1,,,,0,52,93
335308,control_change,,,,,6,0,1,,64,0,0,,
335318,control_change,,,,,10,0,1,,64,127,0,,
335328,set_tempo,,,,,32,1,0,283019,,,,,
335332,note_off,,,,,14,0,1,,,,0,76,64
335334,note_off,,,,,2,0,1,,,,0,64,64
335336,note_off,,,,,2,0,1,,,,0,88,64
335340,note_off,,,,,4,0,1,,,,0,52,64
335360,set_tempo,,,,,32,1,0,281690,,,,,
335424,set_tempo,,,,,64,1,0,279070,,,,,
335456,set_tempo,,,,,32,1,0,277778,,,,,
335488,set_tempo,,,,,32,1,0,276498,,,,,
335492,note_on,,,,,0,0,1,,,,0,61,95
335492,note_on,,,,,152,0,1,,,,0,79,95
335492,control_change,,,,,0,0,1,,64,0,0,,
335496,note_on,,,,,0,0,1,,,,0,49,90
335496,note_on,,,,,4,0,1,,,,0,91,91
335520,note_off,,,,,24,0,1,,,,0,79,64
335526,control_change,,,,,6,0,1,,64,127,0,,
335530,note_off,,,,,4,0,1,,,,0,49,64
335530,note_off,,,,,0,0,1,,,,0,61,64
335530,note_off,,,,,0,0,1,,,,0,91,64
335624,note_on,,,,,94,0,1,,,,0,58,93
335626,note_on,,,,,2,0,1,,,,0,82,97
335628,note_on,,,,,2,0,1,,,,0,94,101
335628,note_on,,,,,0,0,1,,,,0,46,88
335656,note_off,,,,,28,0,1,,,,0,82,64
335660,note_off,,,,,4,0,1,,,,0,94,64
335660,note_off,,,,,0,0,1,,,,0,58,64
335666,note_off,,,,,6,0,1,,,,0,46,64
335754,note_on,,,,,88,0,1,,,,0,55,88
335756,note_on,,,,,2,0,1,,,,0,85,84
335756,note_on,,,,,0,0,1,,,,0,43,91
335764,note_on,,,,,8,0,1,,,,0,97,90
335770,control_change,,,,,6,0,1,,64,0,0,,
335780,control_change,,,,,10,0,1,,64,127,0,,
335788,note_off,,,,,8,0,1,,,,0,55,64
335792,note_off,,,,,4,0,1,,,,0,85,64
335794,note_off,,,,,2,0,1,,,,0,43,64
335796,note_off,,,,,2,0,1,,,,0,97,64
335898,note_on,,,,,102,0,1,,,,0,54,93
335900,note_on,,,,,2,0,1,,,,0,42,90
335904,note_on,,,,,4,0,1,,,,0,86,94
335906,note_on,,,,,2,0,1,,,,0,98,107
335936,note_off,,,,,30,0,1,,,,0,86,64
335942,note_off,,,,,6,0,1,,,,0,98,64
335948,note_off,,,,,6,0,1,,,,0,54,64
335952,note_off,,,,,4,0,1,,,,0,42,64
336068,control_change,,,,,116,0,1,,64,0,0,,
336070,note_on,,,,,2,0,1,,,,0,53,86
336070,note_on,,,,,0,0,1,,,,0,41,93
336072,note_on,,,,,2,0,1,,,,0,99,102
336072,note_on,,,,,0,0,1,,,,0,87,98
336080,control_change,,,,,8,0,1,,64,127,0,,
336104,note_off,,,,,24,0,1,,,,0,87,64
336108,note_off,,,,,4,0,1,,,,0,41,64
336108,note_off,,,,,0,0,1,,,,0,53,64
336110,note_off,,,,,2,0,1,,,,0,99,64
336282,note_on,,,,,172,0,1,,,,0,88,91
336282,note_on,,,,,0,0,1,,,,0,52,94
336284,note_on,,,,,2,0,1,,,,0,100,98
336284,note_on,,,,,0,0,1,,,,0,40,88
336332,control_change,,,,,48,0,1,,64,0,0,,
336484,control_change,,,,,152,0,1,,64,127,0,,
336542,note_off,,,,,58,0,1,,,,0,100,64
336572,note_off,,,,,30,0,1,,,,0,52,64
336578,note_off,,,,,6,0,1,,,,0,88,64
336582,note_off,,,,,4,0,1,,,,0,40,64
336876,control_change,,,,,294,0,1,,64,0,0,,
337032,note_on,,,,,0,0,1,,,,0,75,92
337032,note_on,,,,,156,0,1,,,,0,87,92
337034,note_on,,,,,2,0,1,,,,0,39,84
337038,note_on,,,,,4,0,1,,,,0,51,92
337050,control_change,,,,,12,0,1,,64,127,0,,
337088,note_off,,,,,38,0,1,,,,0,51,64
337100,note_off,,,,,12,0,1,,,,0,39,64
337102,note_off,,,,,2,0,1,,,,0,87,64
337116,note_off,,,,,14,0,1,,,,0,75,64
337170,note_on,,,,,54,0,1,,,,0,50,82
337170,note_on,,,,,0,0,1,,,,0,38,78
337172,note_on,,,,,2,0,1,,,,0,76,80
337174,note_on,,,,,2,0,1,,,,0,88,82
337204,set_tempo,,,,,1716,1,0,277778,,,,,
337206,note_off,,,,,32,0,1,,,,0,76,64
337206,note_off,,,,,0,0,1,,,,0,50,64
337208,note_off,,,,,2,0,1,,,,0,38,64
337220,note_off,,,,,12,0,1,,,,0,88,64
337284,set_tempo,,,,,80,1,0,279070,,,,,
337284,note_on,,,,,0,0,1,,,,0,37,85
337284,note_on,,,,,64,0,1,,,,0,89,85
337286,note_on,,,,,2,0,1,,,,0,77,86
337286,note_on,,,,,0,0,1,,,,0,49,81
337316,note_off,,,,,30,0,1,,,,0,77,64
337320,note_off,,,,,4,0,1,,,,0,89,64
337324,note_off,,,,,4,0,1,,,,0,49,64
337324,note_off,,,,,0,0,1,,,,0,37,64
337364,set_tempo,,,,,80,1,0,281690,,,,,
337388,note_on,,,,,64,0,1,,,,0,48,88
337392,note_on,,,,,0,0,1,,,,0,36,84
337392,note_on,,,,,4,0,1,,,,0,78,90
337394,note_on,,,,,2,0,1,,,,0,90,86
337422,note_off,,,,,0,0,1,,,,0,48,64
337422,note_off,,,,,28,0,1,,,,0,90,64
337424,note_off,,,,,2,0,1,,,,0,78,64
337428,note_off,,,,,4,0,1,,,,0,36,64
337488,note_on,,,,,60,0,1,,,,0,46,98
337488,note_on,,,,,0,0,1,,,,0,34,92
337496,note_on,,,,,8,0,1,,,,0,91,84
337496,note_on,,,,,0,0,1,,,,0,79,90
337522,note_off,,,,,26,0,1,,,,0,34,64
337522,note_off,,,,,0,0,1,,,,0,46,64
337524,note_off,,,,,2,0,1,,,,0,79,64
337524,set_tempo,,,,,160,1,0,283019,,,,,
337532,note_off,,,,,8,0,1,,,,0,91,64
337604,set_tempo,,,,,80,1,0,284360,,,,,
337640,note_on,,,,,108,0,1,,,,0,44,96
337642,note_on,,,,,2,0,1,,,,0,92,101
337642,note_on,,,,,0,0,1,,,,0,32,101
337644,note_on,,,,,2,0,1,,,,0,80,95
337646,note_on,,,,,2,0,1,,,,0,84,87
337654,control_change,,,,,8,0,1,,64,0,0,,
337676,set_tempo,,,,,72,1,0,285714,,,,,
337684,set_tempo,,,,,8,1,0,289855,,,,,
337692,set_tempo,,,,,8,1,0,291262,,,,,
337700,set_tempo,,,,,8,1,0,292683,,,,,
337708,set_tempo,,,,,8,1,0,295567,,,,,
337716,set_tempo,,,,,8,1,0,297030,,,,,
337718,control_change,,,,,64,0,1,,64,127,0,,
337732,set_tempo,,,,,16,1,0,298507,,,,,
337740,set_tempo,,,,,8,1,0,300000,,,,,
337748,set_tempo,,,,,8,1,0,303030,,,,,
337756,set_tempo,,,,,8,1,0,304569,,,,,
337762,note_off,,,,,44,0,1,,,,0,92,64
337764,set_tempo,,,,,8,1,0,307692,,,,,
337768,note_off,,,,,6,0,1,,,,0,32,64
337772,set_tempo,,,,,8,1,0,310881,,,,,
337774,note_off,,,,,6,0,1,,,,0,84,64
337778,note_off,,,,,4,0,1,,,,0,44,64
337780,set_tempo,,,,,8,1,0,312500,,,,,
337780,note_off,,,,,2,0,1,,,,0,80,64
337788,set_tempo,,,,,8,1,0,314136,,,,,
337800,set_tempo,,,,,12,1,0,315789,,,,,
337808,set_tempo,,,,,8,1,0,319149,,,,,
337816,set_tempo,,,,,8,1,0,320856,,,,,
337824,set_tempo,,,,,8,1,0,322581,,,,,
337832,set_tempo,,,,,8,1,0,324324,,,,,
337840,set_tempo,,,,,8,1,0,329670,,,,,
337848,set_tempo,,,,,8,1,0,331492,,,,,
337856,set_tempo,,,,,8,1,0,333333,,,,,
337872,set_tempo,,,,,16,1,0,337079,,,,,
337880,set_tempo,,,,,8,1,0,338983,,,,,
337888,set_tempo,,,,,8,1,0,340909,,,,,
337892,note_on,,,,,112,0,1,,,,0,68,89
337896,set_tempo,,,,,8,1,0,342857,,,,,
337904,set_tempo,,,,,8,1,0,346821,,,,,
337912,set_tempo,,,,,8,1,0,348837,,,,,
337916,set_tempo,,,,,4,1,0,352941,,,,,
337924,note_off,,,,,32,0,1,,,,0,68,64
337958,note_on,,,,,34,0,1,,,,0,68,95
338168,note_on,,,,,210,0,1,,,,0,63,84
338190,note_off,,,,,22,0,1,,,,0,68,64
338196,note_off,,,,,6,0,1,,,,0,63,64
338228,note_on,,,,,32,0,1,,,,0,63,95
338280,note_off,,,,,52,0,1,,,,0,63,64
338440,note_on,,,,,160,0,1,,,,0,56,90
338468,note_off,,,,,28,0,1,,,,0,56,64
338504,note_on,,,,,36,0,1,,,,0,56,91
338596,note_off,,,,,92,0,1,,,,0,56,64
338712,note_on,,,,,116,0,1,,,,0,51,87
338740,note_off,,,,,28,0,1,,,,0,51,64
338770,note_on,,,,,30,0,1,,,,0,51,97
338814,note_off,,,,,44,0,1,,,,0,51,64
338994,note_on,,,,,180,0,1,,,,0,63,87
338996,note_on,,,,,2,0,1,,,,0,75,86
339020,note_off,,,,,0,0,1,,,,0,63,64
339020,note_off,,,,,24,0,1,,,,0,75,64
339056,note_on,,,,,36,0,1,,,,0,44,92
339060,note_on,,,,,4,0,1,,,,0,43,90
339062,note_on,,,,,2,0,1,,,,0,63,96
339064,note_on,,,,,2,0,1,,,,0,75,98
339086,control_change,,,,,22,0,1,,64,0,0,,
339128,control_change,,,,,42,0,1,,64,127,0,,
339148,note_off,,,,,20,0,1,,,,0,75,64
339168,note_off,,,,,20,0,1,,,,0,63,64
339278,note_on,,,,,110,0,1,,,,0,68,84
339278,note_on,,,,,0,0,1,,,,0,56,92
339300,note_off,,,,,22,0,1,,,,0,56,64
339304,note_off,,,,,4,0,1,,,,0,68,64
339352,note_on,,,,,48,0,1,,,,0,68,93
339352,note_on,,,,,0,0,1,,,,0,56,101
339392,note_off,,,,,40,0,1,,,,0,56,64
339392,note_off,,,,,0,0,1,,,,0,68,64
339438,note_off,,,,,46,0,1,,,,0,43,64
339472,note_off,,,,,34,0,1,,,,0,44,64
339546,note_on,,,,,74,0,1,,,,0,51,84
339548,note_on,,,,,2,0,1,,,,0,63,80
339576,note_off,,,,,28,0,1,,,,0,51,64
339580,note_off,,,,,4,0,1,,,,0,63,64
339620,note_on,,,,,0,0,1,,,,0,42,85
339620,note_on,,,,,40,0,1,,,,0,44,92
339624,note_on,,,,,4,0,1,,,,0,63,91
339626,note_on,,,,,2,0,1,,,,0,51,104
339654,control_change,,,,,28,0,1,,64,0,0,,
339690,control_change,,,,,36,0,1,,64,127,0,,
339692,note_off,,,,,2,0,1,,,,0,63,64
339698,note_off,,,,,6,0,1,,,,0,51,64
339830,note_on,,,,,132,0,1,,,,0,48,71
339832,note_on,,,,,2,0,1,,,,0,56,68
339836,note_on,,,,,4,0,1,,,,0,60,42
339856,note_off,,,,,20,0,1,,,,0,48,64
339856,note_off,,,,,0,0,1,,,,0,60,64
339858,note_off,,,,,2,0,1,,,,0,56,64
339898,note_off,,,,,40,0,1,,,,0,42,64
339898,note_on,,,,,0,0,1,,,,0,56,84
339900,note_on,,,,,0,0,1,,,,0,48,94
339900,note_on,,,,,2,0,1,,,,0,60,69
339902,note_off,,,,,2,0,1,,,,0,44,64
339920,note_off,,,,,18,0,1,,,,0,48,64
339946,note_off,,,,,26,0,1,,,,0,60,64
339952,note_off,,,,,6,0,1,,,,0,56,64
340116,note_on,,,,,164,0,1,,,,0,41,86
340118,note_on,,,,,2,0,1,,,,0,85,88
340120,note_on,,,,,0,0,1,,,,0,53,82
340120,note_on,,,,,2,0,1,,,,0,80,86
340120,note_on,,,,,0,0,1,,,,0,73,90
340142,note_off,,,,,22,0,1,,,,0,73,64
340148,note_off,,,,,6,0,1,,,,0,85,64
340150,note_off,,,,,2,0,1,,,,0,41,64
340152,note_off,,,,,0,0,1,,,,0,80,64
340152,note_off,,,,,2,0,1,,,,0,53,64
340160,control_change,,,,,8,0,1,,64,0,0,,
340186,note_on,,,,,0,0,1,,,,0,53,97
340186,note_on,,,,,26,0,1,,,,0,85,96
340188,note_on,,,,,0,0,1,,,,0,41,100
340188,note_on,,,,,2,0,1,,,,0,73,96
340190,note_on,,,,,2,0,1,,,,0,80,84
340226,control_change,,,,,36,0,1,,64,127,0,,
340238,note_off,,,,,12,0,1,,,,0,85,64
340246,note_off,,,,,8,0,1,,,,0,73,64
340248,note_off,,,,,2,0,1,,,,0,80,64
340268,note_off,,,,,20,0,1,,,,0,53,64
340280,note_off,,,,,12,0,1,,,,0,41,64
340404,note_on,,,,,124,0,1,,,,0,80,81
340404,note_on,,,,,0,0,1,,,,0,68,79
340406,note_on,,,,,2,0,1,,,,0,73,81
340408,note_on,,,,,2,0,1,,,,0,52,88
340408,note_on,,,,,0,0,1,,,,0,40,84
340432,note_off,,,,,24,0,1,,,,0,68,64
340436,note_off,,,,,4,0,1,,,,0,52,64
340438,note_off,,,,,2,0,1,,,,0,40,64
340440,note_off,,,,,2,0,1,,,,0,73,64
340442,note_off,,,,,2,0,1,,,,0,80,64
340460,control_change,,,,,18,0,1,,64,0,0,,
340472,note_on,,,,,12,0,1,,,,0,80,86
340474,note_on,,,,,2,0,1,,,,0,68,97
340474,note_on,,,,,0,0,1,,,,0,52,98
340476,note_on,,,,,2,0,1,,,,0,73,82
340478,note_on,,,,,2,0,1,,,,0,40,94
340492,control_change,,,,,14,0,1,,64,127,0,,
340520,note_off,,,,,28,0,1,,,,0,52,64
340524,note_off,,,,,4,0,1,,,,0,68,64
340538,note_off,,,,,14,0,1,,,,0,73,64
340544,note_off,,,,,6,0,1,,,,0,40,64
340548,note_off,,,,,4,0,1,,,,0,80,64
340690,note_on,,,,,142,0,1,,,,0,76,74
340690,note_on,,,,,0,0,1,,,,0,69,78
340692,note_on,,,,,2,0,1,,,,0,81,71
340692,note_on,,,,,0,0,1,,,,0,43,86
340694,note_on,,,,,2,0,1,,,,0,73,75
340700,note_on,,,,,6,0,1,,,,0,31,94
340716,note_off,,,,,16,0,1,,,,0,69,64
340718,note_off,,,,,2,0,1,,,,0,73,64
340720,note_off,,,,,2,0,1,,,,0,31,64
340722,note_off,,,,,2,0,1,,,,0,43,64
340724,note_off,,,,,0,0,1,,,,0,76,64
340724,note_off,,,,,2,0,1,,,,0,81,64
340756,control_change,,,,,32,0,1,,64,0,0,,
340762,note_on,,,,,6,0,1,,,,0,43,98
340764,note_on,,,,,0,0,1,,,,0,31,102
340764,note_on,,,,,2,0,1,,,,0,69,97
340766,note_on,,,,,2,0,1,,,,0,73,86
340768,note_on,,,,,2,0,1,,,,0,81,84
340768,note_on,,,,,0,0,1,,,,0,76,87
340826,control_change,,,,,58,0,1,,64,127,0,,
340838,note_off,,,,,12,0,1,,,,0,81,64
340840,note_off,,,,,2,0,1,,,,0,69,64
340856,note_off,,,,,0,0,1,,,,0,43,64
340856,note_off,,,,,16,0,1,,,,0,31,64
340860,note_off,,,,,4,0,1,,,,0,73,64
340866,note_off,,,,,6,0,1,,,,0,76,64
340986,note_on,,,,,120,0,1,,,,0,70,85
340988,note_on,,,,,2,0,1,,,,0,82,81
340988,note_on,,,,,0,0,1,,,,0,76,78
340990,note_on,,,,,2,0,1,,,,0,73,72
340992,note_on,,,,,2,0,1,,,,0,42,85
340992,note_on,,,,,0,0,1,,,,0,30,87
341016,note_off,,,,,24,0,1,,,,0,30,64
341018,note_off,,,,,2,0,1,,,,0,70,64
341020,note_off,,,,,2,0,1,,,,0,42,64
341020,note_off,,,,,0,0,1,,,,0,73,64
341030,note_off,,,,,10,0,1,,,,0,76,64
341032,note_off,,,,,2,0,1,,,,0,82,64
341064,note_on,,,,,32,0,1,,,,0,42,93
341066,note_on,,,,,2,0,1,,,,0,30,102
341068,note_on,,,,,0,0,1,,,,0,76,82
341068,note_on,,,,,2,0,1,,,,0,82,82
341070,note_on,,,,,2,0,1,,,,0,73,84
341070,note_on,,,,,0,0,1,,,,0,70,96
341080,control_change,,,,,10,0,1,,64,0,0,,
341138,note_off,,,,,58,0,1,,,,0,30,64
341140,control_change,,,,,2,0,1,,64,127,0,,
341144,note_off,,,,,4,0,1,,,,0,42,64
341198,note_off,,,,,54,0,1,,,,0,82,64
341220,note_off,,,,,22,0,1,,,,0,76,64
341226,note_off,,,,,6,0,1,,,,0,73,64
341230,note_off,,,,,4,0,1,,,,0,70,64
341308,note_on,,,,,78,0,1,,,,0,54,92
341310,note_on,,,,,2,0,1,,,,0,42,84
341352,note_off,,,,,42,0,1,,,,0,42,64
341354,note_off,,,,,2,0,1,,,,0,54,64
341426,note_on,,,,,72,0,1,,,,0,55,97
341428,note_on,,,,,2,0,1,,,,0,43,100
341464,control_change,,,,,36,0,1,,64,0,0,,
341506,note_on,,,,,42,0,1,,,,0,58,92
341508,note_on,,,,,2,0,1,,,,0,70,92
341534,note_off,,,,,26,0,1,,,,0,58,64
341536,control_change,,,,,2,0,1,,64,127,0,,
341540,note_off,,,,,4,0,1,,,,0,70,64
341604,note_on,,,,,64,0,1,,,,0,61,98
341606,note_on,,,,,2,0,1,,,,0,73,98
341630,note_off,,,,,0,0,1,,,,0,61,64
341630,note_off,,,,,24,0,1,,,,0,73,64
341638,note_off,,,,,8,0,1,,,,0,43,64
341646,note_off,,,,,8,0,1,,,,0,55,64
341696,set_tempo,,,,,3780,1,0,348837,,,,,
341702,note_on,,,,,56,0,1,,,,0,64,104
341704,set_tempo,,,,,8,1,0,346821,,,,,
341704,note_on,,,,,2,0,1,,,,0,76,104
341712,set_tempo,,,,,8,1,0,342857,,,,,
341720,set_tempo,,,,,8,1,0,340909,,,,,
341724,note_off,,,,,20,0,1,,,,0,64,64
341728,set_tempo,,,,,8,1,0,338983,,,,,
341734,note_off,,,,,10,0,1,,,,0,76,64
341736,set_tempo,,,,,8,1,0,337079,,,,,
341744,set_tempo,,,,,8,1,0,333333,,,,,
341760,set_tempo,,,,,16,1,0,331492,,,,,
341768,set_tempo,,,,,8,1,0,329670,,,,,
341776,set_tempo,,,,,8,1,0,324324,,,,,
341784,set_tempo,,,,,8,1,0,322581,,,,,
341792,set_tempo,,,,,8,1,0,320856,,,,,
341800,set_tempo,,,,,8,1,0,319149,,,,,
341808,set_tempo,,,,,8,1,0,315789,,,,,
341812,note_on,,,,,0,0,1,,,,0,58,104
341812,note_on,,,,,78,0,1,,,,0,79,104
341814,note_on,,,,,2,0,1,,,,0,46,104
341816,note_on,,,,,2,0,1,,,,0,67,104
341816,set_tempo,,,,,8,1,0,314136,,,,,
341828,set_tempo,,,,,12,1,0,312500,,,,,
341834,note_off,,,,,18,0,1,,,,0,67,64
341836,set_tempo,,,,,8,1,0,310881,,,,,
341836,note_off,,,,,2,0,1,,,,0,79,64
341844,set_tempo,,,,,8,1,0,307692,,,,,
341846,note_off,,,,,10,0,1,,,,0,58,64
341852,set_tempo,,,,,8,1,0,304569,,,,,
341856,note_off,,,,,10,0,1,,,,0,46,64
341860,set_tempo,,,,,8,1,0,303030,,,,,
341868,set_tempo,,,,,8,1,0,300000,,,,,
341876,set_tempo,,,,,8,1,0,298507,,,,,
341884,set_tempo,,,,,8,1,0,297030,,,,,
341900,set_tempo,,,,,16,1,0,295567,,,,,
341908,set_tempo,,,,,8,1,0,292683,,,,,
341916,set_tempo,,,,,8,1,0,291262,,,,,
341924,set_tempo,,,,,8,1,0,289855,,,,,
341928,note_on,,,,,0,0,1,,,,0,55,86
341928,note_on,,,,,72,0,1,,,,0,70,96
341930,note_on,,,,,2,0,1,,,,0,82,93
341932,note_on,,,,,2,0,1,,,,0,43,87
341932,set_tempo,,,,,8,1,0,285714,,,,,
341940,set_tempo,,,,,8,1,0,284360,,,,,
341948,set_tempo,,,,,8,1,0,283019,,,,,
341952,set_tempo,,,,,4,1,0,281690,,,,,
341956,note_off,,,,,24,0,1,,,,0,70,64
341958,note_off,,,,,2,0,1,,,,0,55,64
341964,note_off,,,,,6,0,1,,,,0,82,64
341966,note_off,,,,,2,0,1,,,,0,43,64
341984,set_tempo,,,,,32,1,0,279070,,,,,
342000,set_tempo,,,,,16,1,0,277778,,,,,
342016,set_tempo,,,,,16,1,0,276498,,,,,
342032,set_tempo,,,,,16,1,0,275229,,,,,
342048,set_tempo,,,,,16,1,0,272727,,,,,
342050,note_on,,,,,84,0,1,,,,0,52,95
342052,note_on,,,,,2,0,1,,,,0,73,95
342056,note_on,,,,,0,0,1,,,,0,40,92
342056,note_on,,,,,4,0,1,,,,0,85,98
342060,set_tempo,,,,,12,1,0,270270,,,,,
342076,set_tempo,,,,,16,1,0,269058,,,,,
342080,note_off,,,,,24,0,1,,,,0,73,64
342082,note_off,,,,,2,0,1,,,,0,52,64
342086,note_off,,,,,0,0,1,,,,0,85,64
342086,note_off,,,,,4,0,1,,,,0,40,64
342092,set_tempo,,,,,16,1,0,266667,,,,,
342124,set_tempo,,,,,32,1,0,265487,,,,,
342140,set_tempo,,,,,16,1,0,264317,,,,,
342144,set_tempo,,,,,4,1,0,263158,,,,,
342176,set_tempo,,,,,32,1,0,260870,,,,,
342186,note_on,,,,,100,0,1,,,,0,49,93
342190,note_on,,,,,4,0,1,,,,0,76,88
342192,note_on,,,,,2,0,1,,,,0,88,92
342194,note_on,,,,,2,0,1,,,,0,37,89
342204,set_tempo,,,,,28,1,0,259740,,,,,
342212,note_off,,,,,18,0,1,,,,0,76,64
342218,note_off,,,,,6,0,1,,,,0,88,64
342218,note_off,,,,,0,0,1,,,,0,49,64
342222,note_off,,,,,4,0,1,,,,0,37,64
342232,set_tempo,,,,,28,1,0,258621,,,,,
342260,set_tempo,,,,,28,1,0,255319,,,,,
342288,set_tempo,,,,,28,1,0,254237,,,,,
342330,note_on,,,,,108,0,1,,,,0,48,90
342332,note_on,,,,,0,0,1,,,,0,36,88
342332,note_on,,,,,2,0,1,,,,0,79,92
342340,note_on,,,,,8,0,1,,,,0,91,90
342344,set_tempo,,,,,56,1,0,253165,,,,,
342352,note_off,,,,,12,0,1,,,,0,91,64
342356,note_off,,,,,4,0,1,,,,0,79,64
342360,note_off,,,,,4,0,1,,,,0,48,64
342366,note_off,,,,,6,0,1,,,,0,36,64
342372,set_tempo,,,,,28,1,0,252101,,,,,
342404,set_tempo,,,,,32,1,0,250000,,,,,
342432,set_tempo,,,,,28,1,0,248963,,,,,
342460,set_tempo,,,,,28,1,0,247934,,,,,
342488,set_tempo,,,,,28,1,0,246914,,,,,
342516,set_tempo,,,,,28,1,0,244898,,,,,
342532,note_on,,,,,166,0,1,,,,0,47,102
342532,note_on,,,,,0,0,1,,,,0,35,93
342538,note_on,,,,,6,0,1,,,,0,87,104
342540,note_on,,,,,0,0,1,,,,0,83,95
342540,note_on,,,,,2,0,1,,,,0,95,100
342544,set_tempo,,,,,28,1,0,242915,,,,,
342550,control_change,,,,,10,0,1,,64,0,0,,
342600,set_tempo,,,,,56,1,0,241935,,,,,
342612,set_tempo,,,,,12,1,0,244898,,,,,
342616,control_change,,,,,66,0,1,,64,127,0,,
342616,set_tempo,,,,,4,1,0,255319,,,,,
342620,set_tempo,,,,,4,1,0,270270,,,,,
342624,set_tempo,,,,,4,1,0,285714,,,,,
342628,set_tempo,,,,,4,1,0,304569,,,,,
342632,set_tempo,,,,,4,1,0,324324,,,,,
342636,set_tempo,,,,,4,1,0,348837,,,,,
342644,note_off,,,,,28,0,1,,,,0,95,64
342674,note_off,,,,,30,0,1,,,,0,87,64
342676,note_off,,,,,2,0,1,,,,0,83,64
342678,note_off,,,,,2,0,1,,,,0,35,64
342694,note_off,,,,,16,0,1,,,,0,47,64
342784,note_on,,,,,90,0,1,,,,0,71,78
342810,note_off,,,,,26,0,1,,,,0,71,64
342840,note_on,,,,,30,0,1,,,,0,71,95
343048,note_on,,,,,208,0,1,,,,0,66,88
343076,note_off,,,,,28,0,1,,,,0,66,64
343108,note_on,,,,,32,0,1,,,,0,66,92
343118,note_off,,,,,10,0,1,,,,0,71,64
343144,note_off,,,,,26,0,1,,,,0,66,64
343316,note_on,,,,,172,0,1,,,,0,59,88
343344,note_off,,,,,28,0,1,,,,0,59,64
343374,note_on,,,,,30,0,1,,,,0,59,94
343464,note_off,,,,,90,0,1,,,,0,59,64
343574,note_on,,,,,110,0,1,,,,0,54,84
343602,note_off,,,,,28,0,1,,,,0,54,64
343640,note_on,,,,,38,0,1,,,,0,54,100
343676,note_off,,,,,36,0,1,,,,0,54,64
343850,note_on,,,,,174,0,1,,,,0,78,85
343850,note_on,,,,,0,0,1,,,,0,66,85
343872,note_off,,,,,22,0,1,,,,0,66,64
343876,note_off,,,,,4,0,1,,,,0,78,64
343916,note_on,,,,,40,0,1,,,,0,78,90
343916,note_on,,,,,0,0,1,,,,0,66,94
343922,note_on,,,,,6,0,1,,,,0,47,94
343922,note_on,,,,,0,0,1,,,,0,46,84
343940,control_change,,,,,18,0,1,,64,0,0,,
343980,control_change,,,,,40,0,1,,64,127,0,,
343998,note_off,,,,,18,0,1,,,,0,78,64
344002,note_off,,,,,4,0,1,,,,0,66,64
344112,note_on,,,,,110,0,1,,,,0,73,86
344114,note_on,,,,,2,0,1,,,,0,61,92
344136,note_off,,,,,22,0,1,,,,0,61,64
344140,note_off,,,,,4,0,1,,,,0,73,64
344178,note_on,,,,,38,0,1,,,,0,73,84
344182,note_on,,,,,4,0,1,,,,0,61,97
344192,note_off,,,,,10,0,1,,,,0,47,64
344214,note_off,,,,,22,0,1,,,,0,61,64
344214,note_off,,,,,0,0,1,,,,0,73,64
344228,note_off,,,,,14,0,1,,,,0,46,64
344380,note_on,,,,,152,0,1,,,,0,66,78
344384,note_on,,,,,4,0,1,,,,0,54,77
344408,note_off,,,,,24,0,1,,,,0,54,64
344410,note_off,,,,,2,0,1,,,,0,66,64
344448,note_on,,,,,38,0,1,,,,0,47,90
344450,note_on,,,,,2,0,1,,,,0,66,81
344450,note_on,,,,,0,0,1,,,,0,45,86
344452,note_on,,,,,2,0,1,,,,0,54,97
344474,control_change,,,,,22,0,1,,64,0,0,,
344516,control_change,,,,,0,0,1,,64,127,0,,
344516,note_off,,,,,42,0,1,,,,0,66,64
344522,note_off,,,,,6,0,1,,,,0,54,64
344644,note_on,,,,,122,0,1,,,,0,51,92
344646,note_on,,,,,2,0,1,,,,0,59,81
344648,note_off,,,,,2,0,1,,,,0,47,64
344648,note_on,,,,,0,0,1,,,,0,63,75
344660,note_off,,,,,12,0,1,,,,0,45,64
344672,note_off,,,,,12,0,1,,,,0,51,64
344676,note_off,,,,,4,0,1,,,,0,63,64
344678,note_off,,,,,2,0,1,,,,0,59,64
344716,note_on,,,,,0,0,1,,,,0,51,98
344716,note_on,,,,,38,0,1,,,,0,59,82
344718,note_on,,,,,2,0,1,,,,0,63,71
344740,note_off,,,,,22,0,1,,,,0,51,64
344762,note_off,,,,,22,0,1,,,,0,59,64
344768,note_off,,,,,6,0,1,,,,0,63,64
344948,note_on,,,,,180,0,1,,,,0,76,75
344950,note_on,,,,,2,0,1,,,,0,83,82
344952,note_on,,,,,0,0,1,,,,0,56,86
344952,note_on,,,,,2,0,1,,,,0,88,71
344954,note_on,,,,,2,0,1,,,,0,44,81
344976,note_off,,,,,22,0,1,,,,0,76,64
344980,control_change,,,,,4,0,1,,64,0,0,,
344982,note_off,,,,,2,0,1,,,,0,88,64
344984,note_off,,,,,0,0,1,,,,0,83,64
344984,note_off,,,,,0,0,1,,,,0,56,64
344984,note_off,,,,,2,0,1,,,,0,44,64
345012,note_on,,,,,0,0,1,,,,0,44,88
345012,note_on,,,,,28,0,1,,,,0,56,96
345014,note_on,,,,,2,0,1,,,,0,83,95
345016,note_on,,,,,0,0,1,,,,0,76,92
345016,note_on,,,,,2,0,1,,,,0,88,81
345040,control_change,,,,,24,0,1,,64,127,0,,
345060,note_off,,,,,20,0,1,,,,0,88,64
345074,note_off,,,,,14,0,1,,,,0,76,64
345076,note_off,,,,,2,0,1,,,,0,83,64
345084,note_off,,,,,8,0,1,,,,0,44,64
345088,note_off,,,,,4,0,1,,,,0,56,64
345224,note_on,,,,,0,0,1,,,,0,76,71
345224,note_on,,,,,136,0,1,,,,0,83,77
345226,note_on,,,,,2,0,1,,,,0,71,73
345230,note_on,,,,,4,0,1,,,,0,43,85
345232,note_on,,,,,2,0,1,,,,0,55,78
345252,note_off,,,,,20,0,1,,,,0,71,64
345256,note_off,,,,,0,0,1,,,,0,76,64
345256,note_off,,,,,4,0,1,,,,0,43,64
345258,note_off,,,,,2,0,1,,,,0,83,64
345260,note_off,,,,,2,0,1,,,,0,55,64
345292,note_on,,,,,32,0,1,,,,0,76,87
345292,note_on,,,,,0,0,1,,,,0,55,88
345294,note_on,,,,,2,0,1,,,,0,83,87
345294,note_on,,,,,0,0,1,,,,0,71,90
345298,note_on,,,,,4,0,1,,,,0,43,97
345302,control_change,,,,,4,0,1,,64,0,0,,
345322,control_change,,,,,20,0,1,,64,127,0,,
345344,note_off,,,,,22,0,1,,,,0,55,64
345348,note_off,,,,,4,0,1,,,,0,71,64
345350,note_off,,,,,2,0,1,,,,0,43,64
345360,note_off,,,,,10,0,1,,,,0,76,64
345370,note_off,,,,,10,0,1,,,,0,83,64
345512,note_on,,,,,142,0,1,,,,0,79,77
345512,note_on,,,,,0,0,1,,,,0,72,82
345514,note_on,,,,,2,0,1,,,,0,46,93
345516,note_on,,,,,2,0,1,,,,0,76,69
345516,note_on,,,,,0,0,1,,,,0,34,89
345518,note_on,,,,,2,0,1,,,,0,84,74
345536,note_off,,,,,18,0,1,,,,0,72,64
345544,note_off,,,,,0,0,1,,,,0,46,64
345544,note_off,,,,,0,0,1,,,,0,76,64
345544,note_off,,,,,8,0,1,,,,0,34,64
345550,note_off,,,,,6,0,1,,,,0,84,64
345550,note_off,,,,,0,0,1,,,,0,79,64
345576,control_change,,,,,26,0,1,,64,0,0,,
345584,note_on,,,,,0,0,1,,,,0,46,98
345584,note_on,,,,,8,0,1,,,,0,79,86
345586,note_on,,,,,2,0,1,,,,0,72,88
345586,note_on,,,,,0,0,1,,,,0,34,96
345588,note_on,,,,,2,0,1,,,,0,84,77
345588,note_on,,,,,0,0,1,,,,0,76,83
345644,control_change,,,,,56,0,1,,64,127,0,,
345654,note_off,,,,,10,0,1,,,,0,72,64
345656,note_off,,,,,2,0,1,,,,0,84,64
345674,note_off,,,,,18,0,1,,,,0,76,64
345680,note_off,,,,,6,0,1,,,,0,79,64
345724,note_off,,,,,44,0,1,,,,0,46,64
345734,note_off,,,,,10,0,1,,,,0,34,64
345812,note_on,,,,,0,0,1,,,,0,73,80
345812,note_on,,,,,78,0,1,,,,0,85,83
345816,note_on,,,,,4,0,1,,,,0,76,70
345818,note_on,,,,,2,0,1,,,,0,79,77
345820,note_on,,,,,2,0,1,,,,0,33,90
345822,note_on,,,,,2,0,1,,,,0,45,90
345844,note_off,,,,,22,0,1,,,,0,73,64
345848,note_off,,,,,4,0,1,,,,0,76,64
345852,note_off,,,,,4,0,1,,,,0,45,64
345852,note_off,,,,,0,0,1,,,,0,33,64
345854,note_off,,,,,2,0,1,,,,0,85,64
345856,note_off,,,,,2,0,1,,,,0,79,64
345892,note_on,,,,,36,0,1,,,,0,85,86
345892,note_on,,,,,0,0,1,,,,0,73,94
345894,note_on,,,,,0,0,1,,,,0,33,105
345894,note_on,,,,,2,0,1,,,,0,76,83
345898,note_on,,,,,4,0,1,,,,0,79,86
345900,note_on,,,,,2,0,1,,,,0,45,105
345906,control_change,,,,,6,0,1,,64,0,0,,
345962,control_change,,,,,56,0,1,,64,127,0,,
345976,note_off,,,,,14,0,1,,,,0,33,64
345992,note_off,,,,,16,0,1,,,,0,45,64
346052,note_off,,,,,60,0,1,,,,0,85,64
346102,note_off,,,,,50,0,1,,,,0,76,64
346110,note_off,,,,,8,0,1,,,,0,79,64
346110,note_off,,,,,0,0,1,,,,0,73,64
346130,note_on,,,,,20,0,1,,,,0,57,94
346134,note_on,,,,,4,0,1,,,,0,45,93
346158,note_off,,,,,24,0,1,,,,0,45,64
346160,note_off,,,,,2,0,1,,,,0,57,64
346240,note_on,,,,,80,0,1,,,,0,58,100
346246,note_on,,,,,6,0,1,,,,0,46,94
346256,set_tempo,,,,,3620,1,0,346821,,,,,
346266,control_change,,,,,20,0,1,,64,0,0,,
346284,set_tempo,,,,,28,1,0,342857,,,,,
346308,set_tempo,,,,,24,1,0,340909,,,,,
346330,note_on,,,,,64,0,1,,,,0,61,89
346332,set_tempo,,,,,24,1,0,338983,,,,,
346334,note_on,,,,,4,0,1,,,,0,73,84
346342,control_change,,,,,8,0,1,,64,127,0,,
346356,set_tempo,,,,,24,1,0,337079,,,,,
346358,note_off,,,,,16,0,1,,,,0,61,64
346362,note_off,,,,,4,0,1,,,,0,73,64
346376,set_tempo,,,,,20,1,0,333333,,,,,
346424,set_tempo,,,,,48,1,0,331492,,,,,
346428,note_on,,,,,66,0,1,,,,0,64,91
346430,note_on,,,,,2,0,1,,,,0,76,87
346448,set_tempo,,,,,24,1,0,329670,,,,,
346452,note_off,,,,,22,0,1,,,,0,64,64
346460,note_off,,,,,8,0,1,,,,0,76,64
346468,set_tempo,,,,,20,1,0,324324,,,,,
346482,note_off,,,,,22,0,1,,,,0,58,64
346486,note_off,,,,,4,0,1,,,,0,46,64
346492,set_tempo,,,,,24,1,0,322581,,,,,
346516,set_tempo,,,,,24,1,0,320856,,,,,
346528,note_on,,,,,0,0,1,,,,0,67,85
346528,note_on,,,,,42,0,1,,,,0,79,92
346540,set_tempo,,,,,24,1,0,319149,,,,,
346550,note_off,,,,,22,0,1,,,,0,67,64
346554,note_off,,,,,4,0,1,,,,0,79,64
346560,set_tempo,,,,,20,1,0,315789,,,,,
346584,set_tempo,,,,,24,1,0,314136,,,,,
346630,note_on,,,,,76,0,1,,,,0,61,90
346632,control_change,,,,,2,0,1,,64,0,0,,
346632,set_tempo,,,,,48,1,0,312500,,,,,
346634,note_on,,,,,2,0,1,,,,0,82,92
346634,note_on,,,,,0,0,1,,,,0,70,92
346636,note_on,,,,,2,0,1,,,,0,49,87
346642,control_change,,,,,6,0,1,,64,127,0,,
346652,set_tempo,,,,,20,1,0,310881,,,,,
346662,note_off,,,,,20,0,1,,,,0,70,64
346666,note_off,,,,,4,0,1,,,,0,82,64
346668,note_off,,,,,2,0,1,,,,0,61,64
346674,note_off,,,,,6,0,1,,,,0,49,64
346676,set_tempo,,,,,24,1,0,307692,,,,,
346700,set_tempo,,,,,24,1,0,304569,,,,,
346724,set_tempo,,,,,24,1,0,303030,,,,,
346744,set_tempo,,,,,20,1,0,300000,,,,,
346746,note_on,,,,,72,0,1,,,,0,73,94
346746,note_on,,,,,0,0,1,,,,0,58,96
346748,note_on,,,,,2,0,1,,,,0,85,94
346750,note_on,,,,,2,0,1,,,,0,46,88
346768,set_tempo,,,,,24,1,0,298507,,,,,
346776,note_off,,,,,26,0,1,,,,0,73,64
346780,note_off,,,,,4,0,1,,,,0,58,64
346782,note_off,,,,,2,0,1,,,,0,85,64
346786,note_off,,,,,4,0,1,,,,0,46,64
346792,set_tempo,,,,,24,1,0,297030,,,,,
346836,set_tempo,,,,,44,1,0,295567,,,,,
346860,set_tempo,,,,,24,1,0,292683,,,,,
346864,note_on,,,,,78,0,1,,,,0,43,85
346866,note_on,,,,,2,0,1,,,,0,55,77
346870,note_on,,,,,0,0,1,,,,0,76,84
346870,note_on,,,,,4,0,1,,,,0,88,91
346884,set_tempo,,,,,24,1,0,291262,,,,,
346892,note_off,,,,,22,0,1,,,,0,76,64
346898,note_off,,,,,0,0,1,,,,0,55,64
346898,note_off,,,,,6,0,1,,,,0,88,64
346900,note_off,,,,,2,0,1,,,,0,43,64
346908,set_tempo,,,,,24,1,0,289855,,,,,
346928,set_tempo,,,,,20,1,0,285714,,,,,
346952,set_tempo,,,,,24,1,0,284360,,,,,
346976,set_tempo,,,,,24,1,0,283019,,,,,
346988,note_on,,,,,88,0,1,,,,0,52,86
346992,note_on,,,,,4,0,1,,,,0,40,69
346996,note_on,,,,,4,0,1,,,,0,91,94
346996,note_on,,,,,0,0,1,,,,0,79,93
347000,set_tempo,,,,,24,1,0,281690,,,,,
347020,note_off,,,,,24,0,1,,,,0,79,64
347026,note_off,,,,,6,0,1,,,,0,52,64
347028,note_off,,,,,0,0,1,,,,0,40,64
347028,note_off,,,,,2,0,1,,,,0,91,64
347040,set_tempo,,,,,40,1,0,272727,,,,,
347056,set_tempo,,,,,16,1,0,270270,,,,,
347068,set_tempo,,,,,12,1,0,269058,,,,,
347080,set_tempo,,,,,12,1,0,266667,,,,,
347108,set_tempo,,,,,28,1,0,265487,,,,,
347120,set_tempo,,,,,12,1,0,264317,,,,,
347132,set_tempo,,,,,12,1,0,263158,,,,,
347144,note_on,,,,,116,0,1,,,,0,94,100
347144,set_tempo,,,,,12,1,0,260870,,,,,
347144,note_on,,,,,0,0,1,,,,0,82,95
347146,note_on,,,,,2,0,1,,,,0,51,92
347146,note_on,,,,,0,0,1,,,,0,39,84
347156,set_tempo,,,,,12,1,0,259740,,,,,
347168,set_tempo,,,,,12,1,0,258621,,,,,
347172,note_off,,,,,26,0,1,,,,0,51,64
347172,note_off,,,,,0,0,1,,,,0,82,64
347176,note_off,,,,,0,0,1,,,,0,94,64
347176,note_off,,,,,4,0,1,,,,0,39,64
347180,set_tempo,,,,,12,1,0,255319,,,,,
347196,set_tempo,,,,,16,1,0,254237,,,,,
347220,set_tempo,,,,,24,1,0,253165,,,,,
347232,set_tempo,,,,,12,1,0,252101,,,,,
347244,set_tempo,,,,,12,1,0,250000,,,,,
347256,set_tempo,,,,,12,1,0,248963,,,,,
347268,set_tempo,,,,,12,1,0,247934,,,,,
347284,set_tempo,,,,,16,1,0,246914,,,,,
347296,set_tempo,,,,,12,1,0,244898,,,,,
347308,set_tempo,,,,,12,1,0,242915,,,,,
347332,set_tempo,,,,,24,1,0,241935,,,,,
347338,note_on,,,,,162,0,1,,,,0,50,94
347340,note_on,,,,,0,0,1,,,,0,38,92
347340,note_on,,,,,2,0,1,,,,0,90,100
347342,note_on,,,,,2,0,1,,,,0,86,95
347344,set_tempo,,,,,12,1,0,240000,,,,,
347344,note_on,,,,,2,0,1,,,,0,98,95
347356,set_tempo,,,,,12,1,0,239044,,,,,
347360,control_change,,,,,16,0,1,,64,0,0,,
347372,set_tempo,,,,,16,1,0,238095,,,,,
347384,set_tempo,,,,,12,1,0,237154,,,,,
347396,set_tempo,,,,,12,1,0,235294,,,,,
347408,set_tempo,,,,,12,1,0,234375,,,,,
347420,set_tempo,,,,,12,1,0,233463,,,,,
347432,set_tempo,,,,,12,1,0,232558,,,,,
347436,control_change,,,,,76,0,1,,64,127,0,,
347444,set_tempo,,,,,12,1,0,229885,,,,,
347448,set_tempo,,,,,4,1,0,232558,,,,,
347452,set_tempo,,,,,4,1,0,235294,,,,,
347456,set_tempo,,,,,4,1,0,239044,,,,,
347460,set_tempo,,,,,4,1,0,241935,,,,,
347464,set_tempo,,,,,4,1,0,244898,,,,,
347468,set_tempo,,,,,4,1,0,248963,,,,,
347472,set_tempo,,,,,4,1,0,253165,,,,,
347476,set_tempo,,,,,4,1,0,254237,,,,,
347480,set_tempo,,,,,4,1,0,259740,,,,,
347480,note_off,,,,,44,0,1,,,,0,98,64
347484,set_tempo,,,,,4,1,0,264317,,,,,
347488,set_tempo,,,,,4,1,0,266667,,,,,
347492,set_tempo,,,,,4,1,0,270270,,,,,
347494,note_off,,,,,14,0,1,,,,0,38,64
347496,set_tempo,,,,,4,1,0,276498,,,,,
347500,set_tempo,,,,,4,1,0,281690,,,,,
347504,set_tempo,,,,,4,1,0,284360,,,,,
347508,set_tempo,,,,,4,1,0,289855,,,,,
347510,note_off,,,,,16,0,1,,,,0,90,64
347512,note_off,,,,,2,0,1,,,,0,50,64
347512,set_tempo,,,,,4,1,0,295567,,,,,
347516,set_tempo,,,,,4,1,0,298507,,,,,
347516,note_off,,,,,4,0,1,,,,0,86,64
347520,set_tempo,,,,,4,1,0,304569,,,,,
347524,set_tempo,,,,,4,1,0,310881,,,,,
347528,set_tempo,,,,,4,1,0,314136,,,,,
347532,set_tempo,,,,,4,1,0,320856,,,,,
347536,set_tempo,,,,,4,1,0,329670,,,,,
347540,set_tempo,,,,,4,1,0,340909,,,,,
347544,set_tempo,,,,,4,1,0,352941,,,,,
347614,note_on,,,,,98,0,1,,,,0,69,72
347616,note_on,,,,,2,0,1,,,,0,74,60
347632,note_off,,,,,16,0,1,,,,0,69,64
347640,note_off,,,,,8,0,1,,,,0,74,64
347668,note_on,,,,,28,0,1,,,,0,74,91
347668,note_on,,,,,0,0,1,,,,0,69,94
347720,note_off,,,,,52,0,1,,,,0,69,64
347752,note_off,,,,,32,0,1,,,,0,74,64
347900,note_on,,,,,148,0,1,,,,0,69,74
347906,note_on,,,,,6,0,1,,,,0,62,74
347928,note_off,,,,,22,0,1,,,,0,69,64
347932,note_off,,,,,4,0,1,,,,0,62,64
347964,note_on,,,,,32,0,1,,,,0,69,94
347964,note_on,,,,,0,0,1,,,,0,62,86
348010,note_off,,,,,46,0,1,,,,0,69,64
348050,note_off,,,,,40,0,1,,,,0,62,64
348196,note_on,,,,,146,0,1,,,,0,62,75
348196,note_on,,,,,0,0,1,,,,0,57,77
348224,note_off,,,,,28,0,1,,,,0,57,64
348230,note_off,,,,,6,0,1,,,,0,62,64
348256,note_on,,,,,26,0,1,,,,0,62,88
348260,note_on,,,,,4,0,1,,,,0,57,92
348290,note_off,,,,,30,0,1,,,,0,57,64
348308,note_off,,,,,18,0,1,,,,0,62,64
348484,note_on,,,,,176,0,1,,,,0,57,84
348488,note_on,,,,,4,0,1,,,,0,50,79
348512,note_off,,,,,24,0,1,,,,0,57,64
348516,note_off,,,,,4,0,1,,,,0,50,64
348552,note_on,,,,,36,0,1,,,,0,57,95
348552,note_on,,,,,0,0,1,,,,0,50,86
348594,note_off,,,,,42,0,1,,,,0,57,64
348604,note_off,,,,,10,0,1,,,,0,50,64
348774,note_on,,,,,170,0,1,,,,0,81,69
348776,note_on,,,,,2,0,1,,,,0,93,79
348776,note_on,,,,,0,0,1,,,,0,88,76
348790,note_off,,,,,14,0,1,,,,0,88,64
348790,note_off,,,,,0,0,1,,,,0,81,64
348798,note_off,,,,,8,0,1,,,,0,93,64
348840,note_on,,,,,0,0,1,,,,0,88,97
348840,note_on,,,,,42,0,1,,,,0,93,97
348842,note_on,,,,,2,0,1,,,,0,81,93
348844,note_on,,,,,2,0,1,,,,0,48,87
348846,note_on,,,,,2,0,1,,,,0,38,86
348882,control_change,,,,,36,0,1,,64,0,0,,
348928,control_change,,,,,46,0,1,,64,127,0,,
348952,note_off,,,,,24,0,1,,,,0,93,64
348964,note_off,,,,,12,0,1,,,,0,88,64
348976,note_off,,,,,12,0,1,,,,0,81,64
349010,note_off,,,,,34,0,1,,,,0,48,64
349018,note_off,,,,,8,0,1,,,,0,38,64
349064,note_on,,,,,46,0,1,,,,0,81,77
349068,note_on,,,,,4,0,1,,,,0,76,62
349070,note_on,,,,,2,0,1,,,,0,88,67
349078,note_off,,,,,8,0,1,,,,0,81,64
349082,note_off,,,,,4,0,1,,,,0,76,64
349084,note_off,,,,,2,0,1,,,,0,88,64
349136,note_on,,,,,52,0,1,,,,0,88,82
349136,note_on,,,,,0,0,1,,,,0,81,91
349138,note_on,,,,,2,0,1,,,,0,76,81
349168,note_off,,,,,30,0,1,,,,0,76,64
349168,note_off,,,,,0,0,1,,,,0,88,64
349184,note_off,,,,,16,0,1,,,,0,81,64
349364,note_on,,,,,180,0,1,,,,0,69,80
349366,note_on,,,,,2,0,1,,,,0,81,84
349372,note_on,,,,,6,0,1,,,,0,50,87
349384,note_on,,,,,12,0,1,,,,0,74,48
349390,note_on,,,,,0,0,1,,,,0,60,46
349390,note_off,,,,,6,0,1,,,,0,69,64
349396,note_off,,,,,6,0,1,,,,0,81,64
349398,note_off,,,,,0,0,1,,,,0,50,64
349398,note_off,,,,,2,0,1,,,,0,74,64
349404,note_off,,,,,6,0,1,,,,0,60,64
349440,note_on,,,,,36,0,1,,,,0,81,88
349440,note_on,,,,,0,0,1,,,,0,69,88
349442,note_on,,,,,2,0,1,,,,0,74,85
349448,note_on,,,,,0,0,1,,,,0,50,91
349448,note_on,,,,,6,0,1,,,,0,60,91
349472,control_change,,,,,24,0,1,,64,0,0,,
349514,note_off,,,,,42,0,1,,,,0,69,64
349518,control_change,,,,,4,0,1,,64,127,0,,
349522,note_off,,,,,4,0,1,,,,0,81,64
349552,note_off,,,,,30,0,1,,,,0,74,64
349584,note_off,,,,,32,0,1,,,,0,60,64
349592,note_off,,,,,8,0,1,,,,0,50,64
349684,note_on,,,,,92,0,1,,,,0,78,79
349684,note_on,,,,,0,0,1,,,,0,66,77
349688,note_on,,,,,0,0,1,,,,0,50,87
349688,note_on,,,,,4,0,1,,,,0,60,77
349690,note_on,,,,,2,0,1,,,,0,74,67
349716,note_off,,,,,26,0,1,,,,0,60,64
349718,note_off,,,,,2,0,1,,,,0,66,64
349722,note_off,,,,,4,0,1,,,,0,50,64
349732,note_off,,,,,10,0,1,,,,0,74,64
349736,note_off,,,,,4,0,1,,,,0,78,64
349780,note_on,,,,,44,0,1,,,,0,79,87
349780,note_on,,,,,0,0,1,,,,0,59,93
349780,note_on,,,,,0,0,1,,,,0,50,94
349782,note_on,,,,,2,0,1,,,,0,74,84
349784,note_on,,,,,2,0,1,,,,0,67,83
349790,control_change,,,,,6,0,1,,64,0,0,,
349846,note_off,,,,,56,0,1,,,,0,67,64
349850,control_change,,,,,4,0,1,,64,127,0,,
349864,note_off,,,,,14,0,1,,,,0,50,64
349864,note_off,,,,,0,0,1,,,,0,59,64
349868,note_off,,,,,4,0,1,,,,0,74,64
349882,note_off,,,,,14,0,1,,,,0,79,64
349994,note_on,,,,,112,0,1,,,,0,37,81
349996,note_on,,,,,2,0,1,,,,0,49,77
350008,set_tempo,,,,,2464,1,0,338983,,,,,
350010,note_off,,,,,14,0,1,,,,0,49,64
350012,set_tempo,,,,,4,1,0,322581,,,,,
350034,note_off,,,,,24,0,1,,,,0,37,64
350046,note_on,,,,,12,0,1,,,,0,86,82
350046,note_on,,,,,0,0,1,,,,0,83,68
350048,note_on,,,,,2,0,1,,,,0,79,73
350052,note_on,,,,,4,0,1,,,,0,91,73
350072,note_off,,,,,20,0,1,,,,0,79,64
350076,note_off,,,,,4,0,1,,,,0,83,64
350080,note_off,,,,,4,0,1,,,,0,91,64
350086,note_off,,,,,6,0,1,,,,0,86,64
350122,note_on,,,,,36,0,1,,,,0,50,97
350126,note_on,,,,,0,0,1,,,,0,83,93
350126,note_on,,,,,4,0,1,,,,0,86,93
350128,note_on,,,,,2,0,1,,,,0,79,95
350130,note_on,,,,,2,0,1,,,,0,91,90
350134,note_on,,,,,4,0,1,,,,0,38,74
350150,control_change,,,,,16,0,1,,64,0,0,,
350186,control_change,,,,,36,0,1,,64,127,0,,
350192,note_off,,,,,6,0,1,,,,0,91,64
350200,note_off,,,,,8,0,1,,,,0,38,64
350206,note_off,,,,,6,0,1,,,,0,50,64
350210,note_off,,,,,4,0,1,,,,0,86,64
350212,note_off,,,,,2,0,1,,,,0,79,64
350216,note_off,,,,,4,0,1,,,,0,83,64
350268,note_on,,,,,0,0,1,,,,0,42,87
350268,note_on,,,,,52,0,1,,,,0,54,98
350280,control_change,,,,,12,0,1,,64,0,0,,
350296,control_change,,,,,16,0,1,,64,127,0,,
350342,note_off,,,,,46,0,1,,,,0,54,64
350348,note_off,,,,,6,0,1,,,,0,42,64
350402,note_on,,,,,54,0,1,,,,0,43,88
350406,note_on,,,,,4,0,1,,,,0,55,88
350436,note_on,,,,,30,0,1,,,,0,86,79
350440,note_on,,,,,4,0,1,,,,0,83,74
350440,note_on,,,,,0,0,1,,,,0,79,77
350442,note_off,,,,,2,0,1,,,,0,55,64
350442,note_on,,,,,0,0,1,,,,0,74,80
350448,note_off,,,,,6,0,1,,,,0,43,64
350464,note_off,,,,,16,0,1,,,,0,86,64
350468,note_off,,,,,4,0,1,,,,0,74,64
350476,note_off,,,,,0,0,1,,,,0,83,64
350476,note_off,,,,,8,0,1,,,,0,79,64
350510,note_on,,,,,34,0,1,,,,0,56,102
350512,note_on,,,,,2,0,1,,,,0,44,92
350514,note_on,,,,,2,0,1,,,,0,82,100
350516,note_on,,,,,0,0,1,,,,0,74,93
350516,note_on,,,,,2,0,1,,,,0,79,93
350518,note_on,,,,,2,0,1,,,,0,86,93
350526,control_change,,,,,8,0,1,,64,0,0,,
350584,control_change,,,,,58,0,1,,64,127,0,,
350600,note_off,,,,,16,0,1,,,,0,44,64
350600,note_off,,,,,0,0,1,,,,0,56,64
350624,note_off,,,,,24,0,1,,,,0,74,64
350634,note_off,,,,,10,0,1,,,,0,79,64
350656,note_off,,,,,22,0,1,,,,0,82,64
350656,note_on,,,,,0,0,1,,,,0,57,94
350658,note_on,,,,,2,0,1,,,,0,45,94
350660,note_off,,,,,2,0,1,,,,0,86,64
350672,control_change,,,,,12,0,1,,64,0,0,,
350692,control_change,,,,,20,0,1,,64,127,0,,
350704,note_off,,,,,0,0,1,,,,0,57,64
350704,note_off,,,,,12,0,1,,,,0,45,64
350788,note_on,,,,,84,0,1,,,,0,58,90
350792,note_on,,,,,4,0,1,,,,0,46,85
350838,note_off,,,,,46,0,1,,,,0,58,64
350842,note_on,,,,,0,0,1,,,,0,94,90
350842,note_on,,,,,4,0,1,,,,0,98,91
350844,note_on,,,,,0,0,1,,,,0,86,83
350844,note_on,,,,,2,0,1,,,,0,91,80
350846,note_off,,,,,2,0,1,,,,0,46,64
350870,note_off,,,,,24,0,1,,,,0,86,64
350872,note_off,,,,,0,0,1,,,,0,98,64
350872,note_off,,,,,2,0,1,,,,0,91,64
350874,note_off,,,,,2,0,1,,,,0,94,64
350906,note_on,,,,,0,0,1,,,,0,47,100
350906,note_on,,,,,32,0,1,,,,0,59,95
350912,note_on,,,,,6,0,1,,,,0,98,105
350912,note_on,,,,,0,0,1,,,,0,91,86
350912,note_on,,,,,0,0,1,,,,0,86,91
350914,note_on,,,,,2,0,1,,,,0,94,96
350924,control_change,,,,,10,0,1,,64,0,0,,
350954,control_change,,,,,30,0,1,,64,127,0,,
350974,note_off,,,,,20,0,1,,,,0,47,64
350976,note_off,,,,,2,0,1,,,,0,59,64
351058,note_off,,,,,82,0,1,,,,0,98,64
351060,note_on,,,,,2,0,1,,,,0,60,92
351064,note_on,,,,,0,0,1,,,,0,48,95
351064,note_off,,,,,4,0,1,,,,0,86,64
351068,control_change,,,,,4,0,1,,64,0,0,,
351072,note_off,,,,,4,0,1,,,,0,91,64
351080,note_off,,,,,8,0,1,,,,0,94,64
351088,control_change,,,,,8,0,1,,64,127,0,,
351120,note_off,,,,,32,0,1,,,,0,48,64
351124,note_off,,,,,4,0,1,,,,0,60,64
351202,note_on,,,,,78,0,1,,,,0,61,92
351204,control_change,,,,,2,0,1,,64,0,0,,
351206,note_on,,,,,2,0,1,,,,0,49,92
351218,control_change,,,,,12,0,1,,64,127,0,,
351248,note_off,,,,,30,0,1,,,,0,61,64
351250,note_off,,,,,2,0,1,,,,0,49,64
351264,note_on,,,,,14,0,1,,,,0,100,97
351264,note_on,,,,,0,0,1,,,,0,91,88
351264,note_on,,,,,0,0,1,,,,0,94,94
351268,note_on,,,,,4,0,1,,,,0,88,87
351318,note_off,,,,,50,0,1,,,,0,88,64
351328,note_off,,,,,0,0,1,,,,0,100,64
351328,note_off,,,,,10,0,1,,,,0,91,64
351346,note_off,,,,,18,0,1,,,,0,94,64
351386,note_on,,,,,0,0,1,,,,0,90,86
351386,note_on,,,,,40,0,1,,,,0,102,96
351388,note_on,,,,,0,0,1,,,,0,50,97
351388,note_on,,,,,2,0,1,,,,0,93,90
351390,note_on,,,,,2,0,1,,,,0,62,97
351406,control_change,,,,,16,0,1,,64,0,0,,
351432,set_tempo,,,,,1420,1,0,324324,,,,,
351436,set_tempo,,,,,4,1,0,331492,,,,,
351440,set_tempo,,,,,4,1,0,337079,,,,,
351444,set_tempo,,,,,4,1,0,340909,,,,,
351448,set_tempo,,,,,4,1,0,348837,,,,,
351480,control_change,,,,,74,0,1,,64,127,0,,
351504,note_off,,,,,24,0,1,,,,0,102,64
351524,note_off,,,,,20,0,1,,,,0,93,64
351534,note_off,,,,,10,0,1,,,,0,90,64
351538,note_off,,,,,4,0,1,,,,0,50,64
351544,note_off,,,,,6,0,1,,,,0,62,64
351628,note_on,,,,,0,0,1,,,,0,69,90
351628,note_on,,,,,84,0,1,,,,0,74,74
351648,note_off,,,,,20,0,1,,,,0,69,64
351656,note_off,,,,,8,0,1,,,,0,74,64
351680,note_on,,,,,24,0,1,,,,0,74,88
351682,note_on,,,,,2,0,1,,,,0,69,95
351748,note_off,,,,,66,0,1,,,,0,69,64
351780,note_off,,,,,32,0,1,,,,0,74,64
351904,note_on,,,,,124,0,1,,,,0,69,84
351910,note_on,,,,,6,0,1,,,,0,62,84
351934,note_off,,,,,24,0,1,,,,0,62,64
351936,note_off,,,,,2,0,1,,,,0,69,64
351968,note_on,,,,,32,0,1,,,,0,69,98
351968,note_on,,,,,0,0,1,,,,0,62,94
352008,note_off,,,,,40,0,1,,,,0,69,64
352036,note_off,,,,,28,0,1,,,,0,62,64
352172,note_on,,,,,0,0,1,,,,0,57,81
352172,note_on,,,,,136,0,1,,,,0,62,77
352204,note_off,,,,,32,0,1,,,,0,57,64
352212,note_off,,,,,8,0,1,,,,0,62,64
352236,note_on,,,,,24,0,1,,,,0,62,88
352238,note_on,,,,,2,0,1,,,,0,57,88
352278,note_off,,,,,40,0,1,,,,0,57,64
352296,note_off,,,,,18,0,1,,,,0,62,64
352456,note_on,,,,,160,0,1,,,,0,57,87
352458,note_on,,,,,2,0,1,,,,0,50,84
352484,note_off,,,,,26,0,1,,,,0,57,64
352486,note_off,,,,,2,0,1,,,,0,50,64
352520,note_on,,,,,34,0,1,,,,0,57,98
352522,note_on,,,,,2,0,1,,,,0,50,91
352570,note_off,,,,,48,0,1,,,,0,57,64
352580,note_off,,,,,10,0,1,,,,0,50,64
352760,note_on,,,,,180,0,1,,,,0,86,74
352762,note_on,,,,,2,0,1,,,,0,93,76
352764,note_on,,,,,2,0,1,,,,0,81,50
352776,note_off,,,,,12,0,1,,,,0,93,64
352780,note_off,,,,,4,0,1,,,,0,81,64
352788,note_off,,,,,8,0,1,,,,0,86,64
352816,control_change,,,,,28,0,1,,64,0,0,,
352818,note_on,,,,,2,0,1,,,,0,81,90
352818,note_on,,,,,0,0,1,,,,0,48,97
352820,note_on,,,,,2,0,1,,,,0,93,95
352820,note_on,,,,,0,0,1,,,,0,38,90
352822,note_on,,,,,2,0,1,,,,0,86,87
352860,control_change,,,,,38,0,1,,64,127,0,,
352872,note_off,,,,,12,0,1,,,,0,93,64
352874,note_off,,,,,2,0,1,,,,0,38,64
352888,note_off,,,,,14,0,1,,,,0,86,64
352890,note_off,,,,,2,0,1,,,,0,48,64
352894,note_off,,,,,4,0,1,,,,0,81,64
353046,note_on,,,,,152,0,1,,,,0,81,77
353048,note_on,,,,,0,0,1,,,,0,76,74
353048,note_on,,,,,2,0,1,,,,0,88,73
353072,note_off,,,,,0,0,1,,,,0,81,64
353072,note_off,,,,,24,0,1,,,,0,76,64
353076,note_off,,,,,4,0,1,,,,0,88,64
353110,note_on,,,,,34,0,1,,,,0,81,95
353112,note_on,,,,,2,0,1,,,,0,88,84
353112,note_on,,,,,0,0,1,,,,0,76,86
353146,note_off,,,,,34,0,1,,,,0,88,64
353156,note_off,,,,,10,0,1,,,,0,76,64
353156,note_off,,,,,0,0,1,,,,0,81,64
353324,note_on,,,,,168,0,1,,,,0,69,82
353326,note_on,,,,,2,0,1,,,,0,81,80
353328,note_on,,,,,0,0,1,,,,0,60,74
353328,note_on,,,,,2,0,1,,,,0,74,79
353332,note_on,,,,,4,0,1,,,,0,50,76
353354,note_off,,,,,22,0,1,,,,0,60,64
353354,note_off,,,,,0,0,1,,,,0,69,64
353356,note_off,,,,,0,0,1,,,,0,81,64
353356,note_off,,,,,2,0,1,,,,0,50,64
353360,note_off,,,,,4,0,1,,,,0,74,64
353384,control_change,,,,,24,0,1,,64,0,0,,
353396,note_on,,,,,12,0,1,,,,0,60,91
353398,note_on,,,,,2,0,1,,,,0,81,91
353400,note_on,,,,,2,0,1,,,,0,74,87
353400,note_on,,,,,0,0,1,,,,0,50,88
353402,note_on,,,,,2,0,1,,,,0,69,93
353434,control_change,,,,,32,0,1,,64,127,0,,
353448,note_off,,,,,14,0,1,,,,0,69,64
353450,note_off,,,,,2,0,1,,,,0,81,64
353452,note_off,,,,,2,0,1,,,,0,50,64
353456,note_off,,,,,4,0,1,,,,0,60,64
353464,note_off,,,,,8,0,1,,,,0,74,64
353496,control_change,,,,,32,0,1,,64,0,0,,
353564,control_change,,,,,68,0,1,,64,127,0,,
353572,note_on,,,,,8,0,1,,,,0,66,90
353572,note_on,,,,,0,0,1,,,,0,60,83
353574,note_on,,,,,2,0,1,,,,0,78,86
353576,note_on,,,,,0,0,1,,,,0,50,74
353576,note_on,,,,,2,0,1,,,,0,74,79
353604,note_off,,,,,28,0,1,,,,0,66,64
353608,note_off,,,,,4,0,1,,,,0,50,64
353610,note_off,,,,,2,0,1,,,,0,60,64
353616,note_off,,,,,6,0,1,,,,0,74,64
353620,note_off,,,,,4,0,1,,,,0,78,64
353728,control_change,,,,,108,0,1,,64,0,0,,
353778,note_on,,,,,50,0,1,,,,0,79,85
353780,note_on,,,,,2,0,1,,,,0,74,84
353780,note_on,,,,,0,0,1,,,,0,59,91
353782,note_on,,,,,2,0,1,,,,0,67,88
353784,note_on,,,,,2,0,1,,,,0,50,84
353800,control_change,,,,,16,0,1,,64,127,0,,
353812,note_off,,,,,12,0,1,,,,0,67,64
353812,note_off,,,,,0,0,1,,,,0,59,64
353814,note_off,,,,,2,0,1,,,,0,50,64
353830,note_off,,,,,16,0,1,,,,0,74,64
353834,note_off,,,,,4,0,1,,,,0,79,64
354004,note_on,,,,,170,0,1,,,,0,66,87
354008,note_on,,,,,4,0,1,,,,0,54,84
354048,note_off,,,,,40,0,1,,,,0,66,64
354056,note_off,,,,,8,0,1,,,,0,54,64
354058,note_on,,,,,2,0,1,,,,0,79,78
354060,note_on,,,,,2,0,1,,,,0,91,78
354060,note_on,,,,,0,0,1,,,,0,86,82
354062,note_on,,,,,2,0,1,,,,0,83,74
354084,note_off,,,,,22,0,1,,,,0,79,64
354088,note_off,,,,,0,0,1,,,,0,86,64
354088,note_off,,,,,4,0,1,,,,0,83,64
354090,note_off,,,,,2,0,1,,,,0,91,64
354116,note_on,,,,,26,0,1,,,,0,86,86
354116,note_on,,,,,0,0,1,,,,0,83,84
354118,note_on,,,,,2,0,1,,,,0,91,81
354118,note_on,,,,,0,0,1,,,,0,79,82
354122,note_on,,,,,4,0,1,,,,0,67,85
354126,note_on,,,,,4,0,1,,,,0,55,88
354132,control_change,,,,,6,0,1,,64,0,0,,
354160,note_off,,,,,28,0,1,,,,0,67,64
354160,note_off,,,,,0,0,1,,,,0,91,64
354164,control_change,,,,,4,0,1,,64,127,0,,
354172,note_off,,,,,8,0,1,,,,0,79,64
354178,note_off,,,,,6,0,1,,,,0,55,64
354184,note_off,,,,,0,0,1,,,,0,86,64
354184,note_off,,,,,6,0,1,,,,0,83,64
354276,note_on,,,,,92,0,1,,,,0,62,83
354278,note_on,,,,,2,0,1,,,,0,50,88
354308,note_off,,,,,30,0,1,,,,0,62,64
354314,note_off,,,,,6,0,1,,,,0,50,64
354402,note_on,,,,,88,0,1,,,,0,59,85
354404,note_on,,,,,2,0,1,,,,0,47,83
354432,note_on,,,,,0,0,1,,,,0,74,79
354432,note_on,,,,,28,0,1,,,,0,86,79
354434,note_on,,,,,0,0,1,,,,0,79,77
354434,note_on,,,,,2,0,1,,,,0,83,76
354438,note_off,,,,,4,0,1,,,,0,59,64
354442,note_off,,,,,4,0,1,,,,0,47,64
354460,note_off,,,,,18,0,1,,,,0,74,64
354460,note_off,,,,,0,0,1,,,,0,86,64
354464,note_off,,,,,0,0,1,,,,0,83,64
354464,note_off,,,,,4,0,1,,,,0,79,64
354504,note_on,,,,,40,0,1,,,,0,79,87
354504,note_on,,,,,0,0,1,,,,0,74,90
354506,note_on,,,,,2,0,1,,,,0,86,90
354506,note_on,,,,,0,0,1,,,,0,82,88
354508,note_on,,,,,2,0,1,,,,0,58,93
354510,note_on,,,,,2,0,1,,,,0,46,89
354520,control_change,,,,,10,0,1,,64,0,0,,
354560,control_change,,,,,40,0,1,,64,127,0,,
354580,note_off,,,,,20,0,1,,,,0,58,64
354584,note_off,,,,,4,0,1,,,,0,46,64
354648,note_off,,,,,64,0,1,,,,0,74,64
354654,note_on,,,,,6,0,1,,,,0,57,94
354656,note_on,,,,,0,0,1,,,,0,45,93
354656,note_off,,,,,2,0,1,,,,0,79,64
354678,note_off,,,,,22,0,1,,,,0,86,64
354680,note_off,,,,,2,0,1,,,,0,82,64
354692,note_off,,,,,12,0,1,,,,0,57,64
354702,note_off,,,,,10,0,1,,,,0,45,64
354788,note_on,,,,,86,0,1,,,,0,43,85
354790,note_on,,,,,2,0,1,,,,0,55,81
354824,note_off,,,,,34,0,1,,,,0,55,64
354832,note_off,,,,,8,0,1,,,,0,43,64
354858,note_on,,,,,26,0,1,,,,0,91,71
354858,note_on,,,,,0,0,1,,,,0,86,87
354860,note_on,,,,,2,0,1,,,,0,94,81
354862,note_on,,,,,2,0,1,,,,0,98,64
354874,note_off,,,,,12,0,1,,,,0,94,64
354876,note_off,,,,,0,0,1,,,,0,91,64
354876,note_off,,,,,2,0,1,,,,0,98,64
354876,note_off,,,,,0,0,1,,,,0,86,64
354920,note_on,,,,,44,0,1,,,,0,54,94
354922,note_on,,,,,2,0,1,,,,0,94,104
354924,note_on,,,,,0,0,1,,,,0,42,91
354924,note_on,,,,,2,0,1,,,,0,98,107
354926,note_on,,,,,2,0,1,,,,0,91,92
354926,note_on,,,,,0,0,1,,,,0,86,94
354938,control_change,,,,,12,0,1,,64,0,0,,
354978,control_change,,,,,40,0,1,,64,127,0,,
355006,note_off,,,,,28,0,1,,,,0,54,64
355018,note_off,,,,,12,0,1,,,,0,42,64
355074,note_on,,,,,56,0,1,,,,0,52,88
355076,note_on,,,,,2,0,1,,,,0,40,88
355080,note_off,,,,,4,0,1,,,,0,98,64
355084,note_off,,,,,4,0,1,,,,0,86,64
355088,note_off,,,,,4,0,1,,,,0,91,64
355092,note_off,,,,,4,0,1,,,,0,94,64
355136,note_off,,,,,44,0,1,,,,0,52,64
355146,note_off,,,,,10,0,1,,,,0,40,64
355148,note_on,,,,,2,0,1,,,,0,94,96
355148,note_on,,,,,0,0,1,,,,0,91,88
355150,note_on,,,,,0,0,1,,,,0,88,85
355150,note_on,,,,,2,0,1,,,,0,100,98
355216,control_change,,,,,66,0,1,,64,0,0,,
355224,note_off,,,,,8,0,1,,,,0,88,64
355228,note_on,,,,,0,0,1,,,,0,50,105
355228,note_off,,,,,4,0,1,,,,0,100,64
355230,note_on,,,,,2,0,1,,,,0,38,98
355232,note_off,,,,,2,0,1,,,,0,91,64
355246,control_change,,,,,14,0,1,,64,127,0,,
355248,note_off,,,,,2,0,1,,,,0,94,64
355390,note_on,,,,,142,0,1,,,,0,93,93
355390,note_on,,,,,0,0,1,,,,0,90,90
355392,note_on,,,,,2,0,1,,,,0,102,97
355410,note_off,,,,,18,0,1,,,,0,38,64
355410,note_off,,,,,0,0,1,,,,0,50,64
355436,set_tempo,,,,,3988,1,0,357143,,,,,
355448,set_tempo,,,,,12,1,0,352941,,,,,
355456,set_tempo,,,,,8,1,0,348837,,,,,
355466,control_change,,,,,56,0,1,,64,0,0,,
355468,set_tempo,,,,,12,1,0,346821,,,,,
355476,set_tempo,,,,,8,1,0,342857,,,,,
355488,set_tempo,,,,,12,1,0,340909,,,,,
355496,set_tempo,,,,,8,1,0,338983,,,,,
355504,set_tempo,,,,,8,1,0,337079,,,,,
355516,set_tempo,,,,,12,1,0,333333,,,,,
355536,set_tempo,,,,,20,1,0,331492,,,,,
355544,set_tempo,,,,,8,1,0,329670,,,,,
355550,note_on,,,,,84,0,1,,,,0,49,81
355552,note_on,,,,,2,0,1,,,,0,37,81
355552,set_tempo,,,,,8,1,0,324324,,,,,
355564,set_tempo,,,,,12,1,0,322581,,,,,
355572,set_tempo,,,,,8,1,0,320856,,,,,
355576,control_change,,,,,24,0,1,,64,127,0,,
355584,set_tempo,,,,,12,1,0,319149,,,,,
355592,set_tempo,,,,,8,1,0,315789,,,,,
355600,set_tempo,,,,,8,1,0,314136,,,,,
355618,note_off,,,,,42,0,1,,,,0,37,64
355620,set_tempo,,,,,20,1,0,312500,,,,,
355622,note_off,,,,,4,0,1,,,,0,49,64
355632,set_tempo,,,,,12,1,0,310881,,,,,
355640,set_tempo,,,,,8,1,0,307692,,,,,
355648,set_tempo,,,,,8,1,0,304569,,,,,
355660,set_tempo,,,,,12,1,0,303030,,,,,
355668,set_tempo,,,,,8,1,0,300000,,,,,
355680,set_tempo,,,,,12,1,0,298507,,,,,
355688,set_tempo,,,,,8,1,0,297030,,,,,
355704,note_on,,,,,0,0,1,,,,0,38,81
355704,note_on,,,,,82,0,1,,,,0,50,81
355708,set_tempo,,,,,20,1,0,295567,,,,,
355716,set_tempo,,,,,8,1,0,292683,,,,,
355720,control_change,,,,,16,0,1,,64,0,0,,
355728,set_tempo,,,,,12,1,0,291262,,,,,
355730,control_change,,,,,10,0,1,,64,127,0,,
355736,set_tempo,,,,,8,1,0,289855,,,,,
355744,set_tempo,,,,,8,1,0,285714,,,,,
355752,note_off,,,,,22,0,1,,,,0,38,64
355760,note_off,,,,,8,0,1,,,,0,50,64
355854,note_on,,,,,94,0,1,,,,0,54,82
355856,note_on,,,,,2,0,1,,,,0,42,82
355874,control_change,,,,,18,0,1,,64,0,0,,
355892,control_change,,,,,18,0,1,,64,127,0,,
355932,note_off,,,,,0,0,1,,,,0,54,64
355932,note_off,,,,,40,0,1,,,,0,42,64
355940,note_off,,,,,8,0,1,,,,0,102,64
355958,note_off,,,,,18,0,1,,,,0,93,64
355976,note_off,,,,,18,0,1,,,,0,90,64
355998,note_on,,,,,22,0,1,,,,0,43,88
356000,note_on,,,,,2,0,1,,,,0,55,88
356010,control_change,,,,,10,0,1,,64,0,0,,
356028,control_change,,,,,18,0,1,,64,127,0,,
356060,note_off,,,,,32,0,1,,,,0,55,64
356066,note_off,,,,,6,0,1,,,,0,43,64
356146,note_on,,,,,80,0,1,,,,0,56,89
356146,note_on,,,,,0,0,1,,,,0,44,89
356204,note_on,,,,,0,0,1,,,,0,78,89
356204,note_on,,,,,58,0,1,,,,0,81,89
356206,note_on,,,,,2,0,1,,,,0,90,89
356210,note_on,,,,,4,0,1,,,,0,86,89
356214,note_off,,,,,4,0,1,,,,0,44,64
356214,note_off,,,,,0,0,1,,,,0,56,64
356230,note_off,,,,,16,0,1,,,,0,90,64
356230,note_off,,,,,0,0,1,,,,0,78,64
356236,note_off,,,,,6,0,1,,,,0,81,64
356244,note_off,,,,,8,0,1,,,,0,86,64
356270,note_on,,,,,26,0,1,,,,0,57,92
356272,note_on,,,,,0,0,1,,,,0,45,92
356272,note_on,,,,,0,0,1,,,,0,78,92
356272,note_on,,,,,2,0,1,,,,0,90,92
356276,note_on,,,,,0,0,1,,,,0,81,92
356276,note_on,,,,,4,0,1,,,,0,86,92
356284,control_change,,,,,8,0,1,,64,0,0,,
356332,control_change,,,,,48,0,1,,64,127,0,,
356348,note_off,,,,,16,0,1,,,,0,45,64
356348,note_off,,,,,0,0,1,,,,0,57,64
356422,note_on,,,,,74,0,1,,,,0,58,94
356424,note_on,,,,,2,0,1,,,,0,46,94
356434,control_change,,,,,10,0,1,,64,0,0,,
356448,control_change,,,,,14,0,1,,64,127,0,,
356498,note_off,,,,,50,0,1,,,,0,46,64
356504,note_off,,,,,6,0,1,,,,0,58,64
356560,note_on,,,,,56,0,1,,,,0,59,95
356560,note_on,,,,,0,0,1,,,,0,47,95
356580,control_change,,,,,20,0,1,,64,0,0,,
356608,control_change,,,,,28,0,1,,64,127,0,,
356636,note_off,,,,,28,0,1,,,,0,47,64
356640,note_off,,,,,4,0,1,,,,0,59,64
356708,control_change,,,,,0,0,1,,64,0,0,,
356708,note_on,,,,,68,0,1,,,,0,60,100
356708,note_on,,,,,0,0,1,,,,0,48,100
356746,control_change,,,,,38,0,1,,64,127,0,,
356778,note_off,,,,,32,0,1,,,,0,48,64
356782,note_off,,,,,4,0,1,,,,0,60,64
356860,note_on,,,,,78,0,1,,,,0,61,101
356860,note_on,,,,,0,0,1,,,,0,49,101
356870,control_change,,,,,10,0,1,,64,0,0,,
356902,control_change,,,,,32,0,1,,64,127,0,,
356924,note_off,,,,,22,0,1,,,,0,49,64
356932,note_off,,,,,8,0,1,,,,0,61,64
356966,note_off,,,,,34,0,1,,,,0,81,64
356968,note_off,,,,,2,0,1,,,,0,86,64
356980,note_off,,,,,12,0,1,,,,0,90,64
356996,note_off,,,,,16,0,1,,,,0,78,64
357014,control_change,,,,,18,0,1,,64,0,0,,
357020,note_on,,,,,6,0,1,,,,0,62,106
357024,note_on,,,,,4,0,1,,,,0,50,106
357044,control_change,,,,,20,0,1,,64,127,0,,
357064,note_off,,,,,20,0,1,,,,0,62,64
357092,note_off,,,,,28,0,1,,,,0,50,64
357184,note_on,,,,,92,0,1,,,,0,79,92
357186,note_on,,,,,2,0,1,,,,0,88,86
357188,note_on,,,,,0,0,1,,,,0,84,84
357188,note_on,,,,,2,0,1,,,,0,91,84
357244,control_change,,,,,56,0,1,,64,0,0,,
357324,note_on,,,,,80,0,1,,,,0,47,75
357326,note_on,,,,,2,0,1,,,,0,35,75
357336,control_change,,,,,10,0,1,,64,127,0,,
357372,note_off,,,,,36,0,1,,,,0,47,64
357374,note_off,,,,,2,0,1,,,,0,35,64
357464,note_on,,,,,90,0,1,,,,0,48,78
357464,note_on,,,,,0,0,1,,,,0,36,78
357480,control_change,,,,,16,0,1,,64,0,0,,
357508,control_change,,,,,28,0,1,,64,127,0,,
357512,note_off,,,,,4,0,1,,,,0,48,64
357514,note_off,,,,,2,0,1,,,,0,36,64
357610,note_on,,,,,96,0,1,,,,0,52,81
357612,note_on,,,,,2,0,1,,,,0,40,81
357622,control_change,,,,,10,0,1,,64,0,0,,
357660,control_change,,,,,38,0,1,,64,127,0,,
357688,note_off,,,,,28,0,1,,,,0,40,64
357690,note_off,,,,,2,0,1,,,,0,52,64
357744,note_off,,,,,54,0,1,,,,0,91,64
357752,note_on,,,,,8,0,1,,,,0,41,83
357756,note_on,,,,,4,0,1,,,,0,53,83
357762,note_off,,,,,6,0,1,,,,0,88,64
357764,note_off,,,,,2,0,1,,,,0,84,64
357768,control_change,,,,,4,0,1,,64,0,0,,
357774,note_off,,,,,6,0,1,,,,0,79,64
357794,note_off,,,,,20,0,1,,,,0,53,64
357800,control_change,,,,,6,0,1,,64,127,0,,
357802,note_off,,,,,2,0,1,,,,0,41,64
357896,note_on,,,,,94,0,1,,,,0,54,83
357898,note_on,,,,,2,0,1,,,,0,42,83
357944,note_off,,,,,46,0,1,,,,0,42,64
357946,note_off,,,,,2,0,1,,,,0,54,64
357956,note_on,,,,,0,0,1,,,,0,72,83
357956,note_on,,,,,10,0,1,,,,0,76,83
357956,note_on,,,,,0,0,1,,,,0,67,83
357962,note_on,,,,,6,0,1,,,,0,79,83
357974,note_off,,,,,12,0,1,,,,0,79,64
357980,note_off,,,,,6,0,1,,,,0,67,64
357990,note_off,,,,,10,0,1,,,,0,72,64
357994,note_off,,,,,4,0,1,,,,0,76,64
358020,note_on,,,,,26,0,1,,,,0,43,84
358022,note_on,,,,,2,0,1,,,,0,76,84
358024,note_on,,,,,2,0,1,,,,0,79,84
358024,note_on,,,,,0,0,1,,,,0,72,84
358026,note_on,,,,,0,0,1,,,,0,55,84
358026,note_on,,,,,2,0,1,,,,0,67,84
358038,control_change,,,,,12,0,1,,64,0,0,,
358102,control_change,,,,,64,0,1,,64,127,0,,
358108,note_off,,,,,6,0,1,,,,0,55,64
358112,note_off,,,,,4,0,1,,,,0,43,64
358174,note_on,,,,,62,0,1,,,,0,56,91
358176,note_on,,,,,2,0,1,,,,0,44,91
358192,control_change,,,,,16,0,1,,64,0,0,,
358216,control_change,,,,,24,0,1,,64,127,0,,
358252,note_off,,,,,36,0,1,,,,0,44,64
358262,note_off,,,,,10,0,1,,,,0,56,64
358320,note_on,,,,,58,0,1,,,,0,45,96
358322,note_on,,,,,2,0,1,,,,0,57,96
358336,control_change,,,,,14,0,1,,64,0,0,,
358362,control_change,,,,,26,0,1,,64,127,0,,
358366,note_off,,,,,4,0,1,,,,0,57,64
358366,note_off,,,,,0,0,1,,,,0,45,64
358462,note_on,,,,,96,0,1,,,,0,58,97
358466,note_on,,,,,4,0,1,,,,0,46,97
358468,control_change,,,,,2,0,1,,64,0,0,,
358494,control_change,,,,,26,0,1,,64,127,0,,
358542,note_off,,,,,48,0,1,,,,0,46,64
358544,note_off,,,,,2,0,1,,,,0,58,64
358604,note_on,,,,,60,0,1,,,,0,59,102
358606,note_on,,,,,2,0,1,,,,0,47,102
358614,control_change,,,,,8,0,1,,64,0,0,,
358630,note_off,,,,,16,0,1,,,,0,67,64
358638,note_off,,,,,8,0,1,,,,0,72,64
358640,control_change,,,,,2,0,1,,64,127,0,,
358664,note_off,,,,,24,0,1,,,,0,47,64
358664,note_off,,,,,0,0,1,,,,0,76,64
358666,note_off,,,,,2,0,1,,,,0,59,64
358668,note_off,,,,,2,0,1,,,,0,79,64
358752,control_change,,,,,84,0,1,,64,0,0,,
358754,note_on,,,,,2,0,1,,,,0,60,109
358756,note_on,,,,,2,0,1,,,,0,48,109
358786,control_change,,,,,30,0,1,,64,127,0,,
358820,note_off,,,,,34,0,1,,,,0,60,64
358844,note_off,,,,,24,0,1,,,,0,48,64
358928,note_on,,,,,0,0,1,,,,0,82,96
358928,note_on,,,,,84,0,1,,,,0,94,101
358930,note_on,,,,,2,0,1,,,,0,89,85
358932,note_on,,,,,2,0,1,,,,0,86,90
358976,control_change,,,,,44,0,1,,64,0,0,,
359076,note_on,,,,,0,0,1,,,,0,33,77
359076,note_on,,,,,100,0,1,,,,0,45,77
359084,control_change,,,,,8,0,1,,64,127,0,,
359118,note_off,,,,,0,0,1,,,,0,45,64
359118,note_off,,,,,34,0,1,,,,0,33,64
359220,note_on,,,,,102,0,1,,,,0,46,78
359224,note_on,,,,,4,0,1,,,,0,34,80
359236,control_change,,,,,12,0,1,,64,0,0,,
359244,control_change,,,,,8,0,1,,64,127,0,,
359274,note_off,,,,,30,0,1,,,,0,46,64
359276,note_off,,,,,2,0,1,,,,0,34,64
359366,note_on,,,,,90,0,1,,,,0,50,85
359368,note_on,,,,,2,0,1,,,,0,38,85
359376,control_change,,,,,8,0,1,,64,0,0,,
359412,control_change,,,,,36,0,1,,64,127,0,,
359426,note_off,,,,,14,0,1,,,,0,50,64
359428,note_off,,,,,2,0,1,,,,0,38,64
359464,note_off,,,,,36,0,1,,,,0,94,64
359480,note_off,,,,,0,0,1,,,,0,89,64
359480,note_off,,,,,16,0,1,,,,0,86,64
359496,note_off,,,,,16,0,1,,,,0,82,64
359508,note_on,,,,,12,0,1,,,,0,51,88
359510,note_on,,,,,2,0,1,,,,0,39,88
359528,control_change,,,,,18,0,1,,64,0,0,,
359542,control_change,,,,,14,0,1,,64,127,0,,
359576,note_off,,,,,34,0,1,,,,0,51,64
359580,note_off,,,,,4,0,1,,,,0,39,64
359656,note_on,,,,,0,0,1,,,,0,40,87
359656,note_on,,,,,76,0,1,,,,0,52,87
359696,note_off,,,,,40,0,1,,,,0,52,64
359700,note_on,,,,,0,0,1,,,,0,70,90
359700,note_off,,,,,4,0,1,,,,0,40,64
359704,note_on,,,,,4,0,1,,,,0,82,90
359704,note_on,,,,,0,0,1,,,,0,74,90
359706,note_on,,,,,2,0,1,,,,0,77,77
359726,note_off,,,,,20,0,1,,,,0,70,64
359736,note_off,,,,,10,0,1,,,,0,74,64
359738,note_off,,,,,2,0,1,,,,0,77,64
359740,note_off,,,,,2,0,1,,,,0,82,64
359766,note_on,,,,,0,0,1,,,,0,70,96
359766,note_on,,,,,26,0,1,,,,0,77,85
359768,note_on,,,,,0,0,1,,,,0,74,82
359768,note_on,,,,,2,0,1,,,,0,82,87
359772,note_on,,,,,4,0,1,,,,0,41,102
359774,note_on,,,,,2,0,1,,,,0,53,102
359790,control_change,,,,,16,0,1,,64,0,0,,
359848,control_change,,,,,58,0,1,,64,127,0,,
359856,note_off,,,,,8,0,1,,,,0,53,64
359866,note_off,,,,,10,0,1,,,,0,41,64
359926,note_on,,,,,60,0,1,,,,0,54,86
359926,note_on,,,,,0,0,1,,,,0,42,86
359944,control_change,,,,,18,0,1,,64,0,0,,
359956,control_change,,,,,12,0,1,,64,127,0,,
359986,note_off,,,,,30,0,1,,,,0,42,64
359988,note_off,,,,,2,0,1,,,,0,54,64
360066,note_on,,,,,0,0,1,,,,0,43,92
360066,note_on,,,,,78,0,1,,,,0,55,92
360078,control_change,,,,,12,0,1,,64,0,0,,
360112,control_change,,,,,34,0,1,,64,127,0,,
360120,note_off,,,,,0,0,1,,,,0,55,64
360120,note_off,,,,,8,0,1,,,,0,43,64
360212,note_on,,,,,92,0,1,,,,0,56,94
360216,note_on,,,,,4,0,1,,,,0,44,94
360222,control_change,,,,,6,0,1,,64,0,0,,
360256,control_change,,,,,34,0,1,,64,127,0,,
360282,note_off,,,,,26,0,1,,,,0,44,64
360282,note_off,,,,,0,0,1,,,,0,56,64
360364,note_on,,,,,0,0,1,,,,0,45,101
360364,note_on,,,,,82,0,1,,,,0,57,101
360372,control_change,,,,,8,0,1,,64,0,0,,
360402,control_change,,,,,30,0,1,,64,127,0,,
360414,note_off,,,,,12,0,1,,,,0,45,64
360416,note_off,,,,,2,0,1,,,,0,57,64
360428,note_off,,,,,12,0,1,,,,0,74,64
360434,note_off,,,,,6,0,1,,,,0,77,64
360438,note_off,,,,,4,0,1,,,,0,70,64
360456,note_off,,,,,18,0,1,,,,0,82,64
360526,note_on,,,,,70,0,1,,,,0,58,106
360528,note_on,,,,,2,0,1,,,,0,46,106
360542,control_change,,,,,14,0,1,,64,0,0,,
360576,control_change,,,,,34,0,1,,64,127,0,,
360612,note_off,,,,,36,0,1,,,,0,58,64
360636,note_off,,,,,24,0,1,,,,0,46,64
360698,note_on,,,,,62,0,1,,,,0,75,92
360700,note_on,,,,,2,0,1,,,,0,84,83
360700,note_on,,,,,0,0,1,,,,0,80,87
360702,note_on,,,,,2,0,1,,,,0,72,88
360850,control_change,,,,,148,0,1,,64,127,0,,
360858,note_on,,,,,8,0,1,,,,0,43,82
360860,note_on,,,,,2,0,1,,,,0,31,93
360902,note_off,,,,,0,0,1,,,,0,43,64
360902,note_off,,,,,42,0,1,,,,0,31,64
360920,note_off,,,,,18,0,1,,,,0,84,64
360944,note_off,,,,,24,0,1,,,,0,80,64
360948,note_off,,,,,4,0,1,,,,0,72,64
360956,note_off,,,,,8,0,1,,,,0,75,64
360964,set_tempo,,,,,5220,1,0,289855,,,,,
360972,set_tempo,,,,,8,1,0,285714,,,,,
360976,set_tempo,,,,,4,1,0,284360,,,,,
360980,set_tempo,,,,,4,1,0,283019,,,,,
360988,set_tempo,,,,,8,1,0,281690,,,,,
360996,set_tempo,,,,,8,1,0,279070,,,,,
361006,note_on,,,,,50,0,1,,,,0,44,97
361008,note_on,,,,,2,0,1,,,,0,32,93
361014,control_change,,,,,6,0,1,,64,0,0,,
361056,control_change,,,,,42,0,1,,64,127,0,,
361098,note_off,,,,,42,0,1,,,,0,32,64
361100,note_off,,,,,2,0,1,,,,0,44,64
361156,note_on,,,,,56,0,1,,,,0,63,90
361156,note_on,,,,,0,0,1,,,,0,60,87
361158,note_on,,,,,0,0,1,,,,0,68,87
361158,note_on,,,,,2,0,1,,,,0,72,81
361274,control_change,,,,,116,0,1,,64,0,0,,
361304,note_on,,,,,30,0,1,,,,0,55,82
361304,note_on,,,,,0,0,1,,,,0,43,90
361332,control_change,,,,,28,0,1,,64,127,0,,
361336,note_off,,,,,4,0,1,,,,0,60,64
361338,note_off,,,,,2,0,1,,,,0,55,64
361340,note_off,,,,,2,0,1,,,,0,43,64
361358,note_off,,,,,18,0,1,,,,0,63,64
361360,note_off,,,,,2,0,1,,,,0,68,64
361360,note_off,,,,,0,0,1,,,,0,72,64
361450,note_on,,,,,90,0,1,,,,0,56,98
361454,note_on,,,,,4,0,1,,,,0,44,90
361484,note_off,,,,,30,0,1,,,,0,56,64
361492,note_off,,,,,8,0,1,,,,0,44,64
361612,note_on,,,,,120,0,1,,,,0,73,87
361612,note_on,,,,,0,0,1,,,,0,61,100
361614,note_on,,,,,2,0,1,,,,0,70,82
361614,note_on,,,,,0,0,1,,,,0,66,87
361654,control_change,,,,,40,0,1,,64,0,0,,
361744,control_change,,,,,90,0,1,,64,127,0,,
361760,note_on,,,,,0,0,1,,,,0,41,93
361760,note_on,,,,,16,0,1,,,,0,53,87
361776,note_off,,,,,16,0,1,,,,0,61,64
361782,note_off,,,,,6,0,1,,,,0,66,64
361790,note_off,,,,,8,0,1,,,,0,53,64
361794,note_off,,,,,4,0,1,,,,0,41,64
361804,note_off,,,,,10,0,1,,,,0,70,64
361804,note_off,,,,,0,0,1,,,,0,73,64
361896,note_on,,,,,92,0,1,,,,0,54,92
361898,note_on,,,,,2,0,1,,,,0,42,85
361928,note_off,,,,,30,0,1,,,,0,54,64
361936,note_off,,,,,8,0,1,,,,0,42,64
362042,note_on,,,,,106,0,1,,,,0,85,92
362044,note_on,,,,,0,0,1,,,,0,73,97
362044,note_on,,,,,2,0,1,,,,0,82,86
362046,note_on,,,,,2,0,1,,,,0,78,86
362192,note_on,,,,,0,0,1,,,,0,29,88
362192,note_on,,,,,146,0,1,,,,0,41,94
362230,note_off,,,,,38,0,1,,,,0,29,64
362232,note_off,,,,,2,0,1,,,,0,41,64
362240,note_off,,,,,8,0,1,,,,0,78,64
362246,note_off,,,,,6,0,1,,,,0,82,64
362248,note_off,,,,,2,0,1,,,,0,85,64
362254,note_off,,,,,6,0,1,,,,0,73,64
362310,control_change,,,,,56,0,1,,64,0,0,,
362330,control_change,,,,,20,0,1,,64,127,0,,
362346,note_on,,,,,16,0,1,,,,0,42,87
362350,note_on,,,,,4,0,1,,,,0,30,92
362378,note_off,,,,,28,0,1,,,,0,42,64
362382,note_off,,,,,4,0,1,,,,0,30,64
362516,note_on,,,,,134,0,1,,,,0,83,90
362516,note_on,,,,,0,0,1,,,,0,80,92
362518,note_on,,,,,2,0,1,,,,0,76,87
362520,note_on,,,,,2,0,1,,,,0,88,83
362550,control_change,,,,,30,0,1,,64,0,0,,
362624,set_tempo,,,,,1628,1,0,281690,,,,,
362664,note_on,,,,,114,0,1,,,,0,51,97
362666,note_on,,,,,2,0,1,,,,0,39,83
362668,note_off,,,,,2,0,1,,,,0,88,64
362672,control_change,,,,,4,0,1,,64,127,0,,
362692,note_off,,,,,20,0,1,,,,0,83,64
362696,note_off,,,,,4,0,1,,,,0,76,64
362702,note_off,,,,,6,0,1,,,,0,80,64
362708,note_off,,,,,6,0,1,,,,0,51,64
362716,note_off,,,,,8,0,1,,,,0,39,64
362798,note_on,,,,,82,0,1,,,,0,52,94
362800,note_on,,,,,2,0,1,,,,0,40,91
362816,control_change,,,,,16,0,1,,64,0,0,,
362828,set_tempo,,,,,204,1,0,279070,,,,,
362840,control_change,,,,,24,0,1,,64,127,0,,
362894,note_off,,,,,54,0,1,,,,0,40,64
362912,note_off,,,,,18,0,1,,,,0,52,64
362938,note_on,,,,,0,0,1,,,,0,68,91
362938,note_on,,,,,26,0,1,,,,0,76,84
362940,note_on,,,,,2,0,1,,,,0,71,83
363032,set_tempo,,,,,204,1,0,277778,,,,,
363064,control_change,,,,,124,0,1,,64,0,0,,
363082,note_on,,,,,18,0,1,,,,0,63,92
363086,note_on,,,,,4,0,1,,,,0,51,97
363112,control_change,,,,,26,0,1,,64,127,0,,
363122,note_off,,,,,10,0,1,,,,0,71,64
363132,note_off,,,,,10,0,1,,,,0,68,64
363136,note_off,,,,,4,0,1,,,,0,76,64
363156,note_off,,,,,20,0,1,,,,0,51,64
363162,note_off,,,,,6,0,1,,,,0,63,64
363222,note_on,,,,,60,0,1,,,,0,64,95
363224,note_on,,,,,2,0,1,,,,0,52,85
363232,set_tempo,,,,,200,1,0,276498,,,,,
363250,control_change,,,,,26,0,1,,64,0,0,,
363286,control_change,,,,,36,0,1,,64,127,0,,
363370,note_on,,,,,84,0,1,,,,0,78,87
363372,note_on,,,,,2,0,1,,,,0,69,90
363374,note_off,,,,,2,0,1,,,,0,64,64
363374,note_on,,,,,0,0,1,,,,0,74,84
363384,note_off,,,,,10,0,1,,,,0,52,64
363436,set_tempo,,,,,204,1,0,275229,,,,,
363488,control_change,,,,,104,0,1,,64,0,0,,
363528,note_on,,,,,40,0,1,,,,0,61,94
363530,note_on,,,,,2,0,1,,,,0,49,93
363556,note_off,,,,,26,0,1,,,,0,69,64
363560,control_change,,,,,4,0,1,,64,127,0,,
363580,note_off,,,,,20,0,1,,,,0,74,64
363582,note_off,,,,,2,0,1,,,,0,49,64
363584,note_off,,,,,2,0,1,,,,0,61,64
363590,note_off,,,,,6,0,1,,,,0,78,64
363640,set_tempo,,,,,204,1,0,272727,,,,,
363670,note_on,,,,,80,0,1,,,,0,62,90
363674,note_on,,,,,4,0,1,,,,0,50,78
363714,note_off,,,,,40,0,1,,,,0,62,64
363768,note_off,,,,,54,0,1,,,,0,50,64
363840,set_tempo,,,,,200,1,0,270270,,,,,
363852,note_on,,,,,84,0,1,,,,0,90,85
363854,note_on,,,,,2,0,1,,,,0,78,88
363856,note_on,,,,,2,0,1,,,,0,81,80
363860,note_on,,,,,4,0,1,,,,0,86,82
363944,control_change,,,,,84,0,1,,64,0,0,,
363992,note_on,,,,,48,0,1,,,,0,49,95
363994,note_on,,,,,2,0,1,,,,0,37,88
364022,control_change,,,,,28,0,1,,64,127,0,,
364046,note_off,,,,,24,0,1,,,,0,81,64
364054,note_off,,,,,8,0,1,,,,0,49,64
364056,note_off,,,,,2,0,1,,,,0,86,64
364058,note_off,,,,,2,0,1,,,,0,37,64
364060,note_off,,,,,2,0,1,,,,0,90,64
364068,note_off,,,,,8,0,1,,,,0,78,64
364144,note_on,,,,,76,0,1,,,,0,50,92
364148,note_on,,,,,4,0,1,,,,0,38,87
364210,note_off,,,,,62,0,1,,,,0,50,64
364232,note_off,,,,,22,0,1,,,,0,38,64
364296,note_on,,,,,64,0,1,,,,0,88,87
364296,note_on,,,,,0,0,1,,,,0,84,91
364298,note_on,,,,,2,0,1,,,,0,79,94
364300,note_on,,,,,2,0,1,,,,0,91,84
364348,control_change,,,,,48,0,1,,64,0,0,,
364438,note_on,,,,,0,0,1,,,,0,35,86
364438,note_on,,,,,90,0,1,,,,0,47,102
364440,control_change,,,,,2,0,1,,64,127,0,,
364454,note_off,,,,,14,0,1,,,,0,91,64
364472,note_off,,,,,0,0,1,,,,0,88,64
364472,note_off,,,,,18,0,1,,,,0,47,64
364472,note_off,,,,,0,0,1,,,,0,84,64
364474,note_off,,,,,2,0,1,,,,0,35,64
364482,note_off,,,,,8,0,1,,,,0,79,64
364570,note_on,,,,,88,0,1,,,,0,36,83
364572,note_on,,,,,2,0,1,,,,0,48,83
364604,note_off,,,,,32,0,1,,,,0,36,64
364606,note_off,,,,,2,0,1,,,,0,48,64
364716,note_on,,,,,0,0,1,,,,0,76,82
364716,note_on,,,,,110,0,1,,,,0,79,82
364718,note_on,,,,,2,0,1,,,,0,72,88
364718,note_on,,,,,0,0,1,,,,0,67,90
364796,control_change,,,,,78,0,1,,64,0,0,,
364858,note_on,,,,,62,0,1,,,,0,59,86
364860,note_on,,,,,2,0,1,,,,0,47,93
364880,control_change,,,,,20,0,1,,64,127,0,,
364900,note_off,,,,,20,0,1,,,,0,59,64
364902,note_off,,,,,2,0,1,,,,0,47,64
364902,note_off,,,,,0,0,1,,,,0,67,64
364916,note_off,,,,,0,0,1,,,,0,79,64
364916,note_off,,,,,14,0,1,,,,0,72,64
364932,note_off,,,,,16,0,1,,,,0,76,64
364996,note_on,,,,,64,0,1,,,,0,60,85
365000,note_on,,,,,4,0,1,,,,0,48,95
365036,note_off,,,,,36,0,1,,,,0,60,64
365048,note_off,,,,,12,0,1,,,,0,48,64
365140,note_on,,,,,92,0,1,,,,0,70,90
365142,note_on,,,,,2,0,1,,,,0,82,87
365146,note_on,,,,,4,0,1,,,,0,74,88
365148,note_on,,,,,2,0,1,,,,0,77,81
365198,control_change,,,,,50,0,1,,64,0,0,,
365282,note_on,,,,,0,0,1,,,,0,45,90
365282,note_on,,,,,84,0,1,,,,0,57,95
365290,control_change,,,,,8,0,1,,64,127,0,,
365320,note_off,,,,,30,0,1,,,,0,57,64
365320,note_off,,,,,0,0,1,,,,0,70,64
365324,note_off,,,,,4,0,1,,,,0,45,64
365328,note_off,,,,,4,0,1,,,,0,74,64
365342,note_off,,,,,14,0,1,,,,0,77,64
365354,note_off,,,,,12,0,1,,,,0,82,64
365424,note_on,,,,,70,0,1,,,,0,58,92
365430,note_on,,,,,6,0,1,,,,0,46,87
365460,note_off,,,,,30,0,1,,,,0,58,64
365478,note_off,,,,,18,0,1,,,,0,46,64
365572,note_on,,,,,94,0,1,,,,0,94,101
365574,note_on,,,,,2,0,1,,,,0,82,95
365576,note_on,,,,,0,0,1,,,,0,86,91
365576,note_on,,,,,2,0,1,,,,0,89,86
365730,note_on,,,,,154,0,1,,,,0,45,97
365732,note_on,,,,,2,0,1,,,,0,33,95
365800,note_off,,,,,68,0,1,,,,0,86,64
365816,note_off,,,,,16,0,1,,,,0,82,64
365818,note_off,,,,,2,0,1,,,,0,89,64
365824,note_off,,,,,6,0,1,,,,0,45,64
365838,note_off,,,,,0,0,1,,,,0,94,64
365838,note_off,,,,,14,0,1,,,,0,33,64
365844,control_change,,,,,6,0,1,,64,0,0,,
365880,control_change,,,,,36,0,1,,64,127,0,,
365884,note_on,,,,,4,0,1,,,,0,46,93
365884,note_on,,,,,0,0,1,,,,0,34,97
365918,note_off,,,,,34,0,1,,,,0,46,64
365920,note_off,,,,,2,0,1,,,,0,34,64
366062,note_on,,,,,142,0,1,,,,0,87,103
366064,note_on,,,,,2,0,1,,,,0,96,95
366064,note_on,,,,,0,0,1,,,,0,84,97
366066,note_on,,,,,2,0,1,,,,0,92,93
366204,note_on,,,,,138,0,1,,,,0,43,92
366208,note_on,,,,,4,0,1,,,,0,31,93
366216,note_off,,,,,8,0,1,,,,0,96,64
366236,note_off,,,,,20,0,1,,,,0,31,64
366236,note_off,,,,,0,0,1,,,,0,43,64
366242,note_off,,,,,6,0,1,,,,0,92,64
366246,note_off,,,,,4,0,1,,,,0,84,64
366248,note_off,,,,,2,0,1,,,,0,87,64
366304,control_change,,,,,56,0,1,,64,0,0,,
366340,control_change,,,,,36,0,1,,64,127,0,,
366348,note_on,,,,,8,0,1,,,,0,44,91
366348,note_on,,,,,0,0,1,,,,0,32,94
366370,note_off,,,,,22,0,1,,,,0,44,64
366372,note_off,,,,,2,0,1,,,,0,32,64
366492,note_on,,,,,120,0,1,,,,0,80,91
366492,note_on,,,,,0,0,1,,,,0,72,94
366494,note_on,,,,,0,0,1,,,,0,75,95
366494,note_on,,,,,2,0,1,,,,0,84,81
366612,control_change,,,,,118,0,1,,64,0,0,,
366634,note_on,,,,,22,0,1,,,,0,50,92
366636,note_on,,,,,2,0,1,,,,0,38,85
366660,control_change,,,,,24,0,1,,64,127,0,,
366668,note_off,,,,,0,0,1,,,,0,50,64
366668,note_off,,,,,8,0,1,,,,0,38,64
366706,note_off,,,,,38,0,1,,,,0,72,64
366720,note_off,,,,,14,0,1,,,,0,75,64
366744,note_off,,,,,24,0,1,,,,0,84,64
366746,note_off,,,,,2,0,1,,,,0,80,64
366772,note_on,,,,,26,0,1,,,,0,51,96
366772,note_on,,,,,0,0,1,,,,0,39,87
366802,note_off,,,,,0,0,1,,,,0,51,64
366802,note_off,,,,,30,0,1,,,,0,39,64
366920,note_on,,,,,0,0,1,,,,0,87,100
366920,note_on,,,,,118,0,1,,,,0,92,95
366922,note_on,,,,,0,0,1,,,,0,84,87
366922,note_on,,,,,2,0,1,,,,0,96,94
367024,control_change,,,,,102,0,1,,64,0,0,,
367052,note_off,,,,,28,0,1,,,,0,96,64
367066,note_on,,,,,14,0,1,,,,0,55,77
367066,note_on,,,,,0,0,1,,,,0,43,79
367080,control_change,,,,,0,0,1,,64,127,0,,
367080,note_off,,,,,14,0,1,,,,0,92,64
367084,note_off,,,,,4,0,1,,,,0,84,64
367088,note_off,,,,,4,0,1,,,,0,87,64
367100,note_off,,,,,0,0,1,,,,0,55,64
367100,note_off,,,,,12,0,1,,,,0,43,64
367210,note_on,,,,,110,0,1,,,,0,56,98
367212,note_on,,,,,2,0,1,,,,0,44,95
367236,note_off,,,,,24,0,1,,,,0,56,64
367238,note_off,,,,,2,0,1,,,,0,44,64
367356,note_on,,,,,0,0,1,,,,0,75,95
367356,note_on,,,,,118,0,1,,,,0,80,91
367358,note_on,,,,,0,0,1,,,,0,72,93
367358,note_on,,,,,2,0,1,,,,0,84,83
367470,control_change,,,,,112,0,1,,64,0,0,,
367512,note_on,,,,,0,0,1,,,,0,50,88
367512,note_on,,,,,42,0,1,,,,0,62,88
367524,control_change,,,,,12,0,1,,64,127,0,,
367544,note_off,,,,,20,0,1,,,,0,62,64
367546,note_off,,,,,2,0,1,,,,0,50,64
367578,note_off,,,,,32,0,1,,,,0,72,64
367592,note_off,,,,,14,0,1,,,,0,75,64
367614,note_off,,,,,0,0,1,,,,0,80,64
367614,note_off,,,,,22,0,1,,,,0,84,64
367660,note_on,,,,,0,0,1,,,,0,51,95
367660,note_on,,,,,46,0,1,,,,0,63,94
367686,note_off,,,,,26,0,1,,,,0,63,64
367688,note_off,,,,,2,0,1,,,,0,51,64
367812,note_on,,,,,124,0,1,,,,0,96,90
367812,note_on,,,,,0,0,1,,,,0,92,92
367814,note_on,,,,,0,0,1,,,,0,84,95
367814,note_on,,,,,2,0,1,,,,0,87,97
367872,control_change,,,,,58,0,1,,64,0,0,,
367950,note_off,,,,,78,0,1,,,,0,96,64
367954,control_change,,,,,4,0,1,,64,127,0,,
367960,note_on,,,,,0,0,1,,,,0,55,88
367960,note_on,,,,,6,0,1,,,,0,67,88
367976,note_off,,,,,16,0,1,,,,0,92,64
367984,note_off,,,,,0,0,1,,,,0,87,64
367984,note_off,,,,,8,0,1,,,,0,84,64
367992,note_off,,,,,0,0,1,,,,0,67,64
367992,note_off,,,,,8,0,1,,,,0,55,64
368104,note_on,,,,,112,0,1,,,,0,68,92
368108,note_on,,,,,4,0,1,,,,0,56,95
368136,note_off,,,,,28,0,1,,,,0,68,64
368140,note_off,,,,,4,0,1,,,,0,56,64
368254,note_on,,,,,114,0,1,,,,0,80,89
368256,note_on,,,,,2,0,1,,,,0,84,82
368256,note_on,,,,,0,0,1,,,,0,72,95
368258,note_on,,,,,2,0,1,,,,0,75,95
368380,control_change,,,,,122,0,1,,64,0,0,,
368412,note_on,,,,,32,0,1,,,,0,62,92
368412,set_tempo,,,,,4572,1,0,269058,,,,,
368412,note_on,,,,,0,0,1,,,,0,50,90
368416,set_tempo,,,,,4,1,0,266667,,,,,
368420,set_tempo,,,,,4,1,0,265487,,,,,
368424,set_tempo,,,,,4,1,0,264317,,,,,
368428,set_tempo,,,,,4,1,0,260870,,,,,
368428,control_change,,,,,16,0,1,,64,127,0,,
368440,note_off,,,,,12,0,1,,,,0,72,64
368444,note_off,,,,,4,0,1,,,,0,62,64
368448,note_off,,,,,4,0,1,,,,0,50,64
368452,note_off,,,,,4,0,1,,,,0,75,64
368470,note_off,,,,,18,0,1,,,,0,84,64
368474,note_off,,,,,4,0,1,,,,0,80,64
368572,note_on,,,,,98,0,1,,,,0,63,96
368574,note_on,,,,,2,0,1,,,,0,51,98
368608,note_off,,,,,34,0,1,,,,0,51,64
368608,note_off,,,,,0,0,1,,,,0,63,64
368740,note_on,,,,,132,0,1,,,,0,87,107
368742,note_on,,,,,2,0,1,,,,0,84,100
368744,note_on,,,,,2,0,1,,,,0,96,97
368744,note_on,,,,,0,0,1,,,,0,92,95
368906,control_change,,,,,162,0,1,,64,0,0,,
368916,note_on,,,,,0,0,1,,,,0,43,92
368916,note_on,,,,,10,0,1,,,,0,55,94
368946,control_change,,,,,30,0,1,,64,127,0,,
368956,note_off,,,,,0,0,1,,,,0,55,64
368956,note_off,,,,,10,0,1,,,,0,43,64
368966,note_off,,,,,10,0,1,,,,0,96,64
368990,note_off,,,,,24,0,1,,,,0,92,64
368998,note_off,,,,,0,0,1,,,,0,87,64
368998,note_off,,,,,8,0,1,,,,0,84,64
369036,set_tempo,,,,,608,1,0,259740,,,,,
369076,set_tempo,,,,,40,1,0,258621,,,,,
369092,note_on,,,,,94,0,1,,,,0,56,101
369096,note_on,,,,,4,0,1,,,,0,44,93
369124,note_off,,,,,28,0,1,,,,0,56,64
369132,note_off,,,,,8,0,1,,,,0,44,64
369140,set_tempo,,,,,64,1,0,255319,,,,,
369204,set_tempo,,,,,64,1,0,254237,,,,,
369292,note_on,,,,,160,0,1,,,,0,84,85
369292,note_on,,,,,0,0,1,,,,0,75,98
369292,note_on,,,,,0,0,1,,,,0,72,98
369294,note_on,,,,,2,0,1,,,,0,80,92
369328,set_tempo,,,,,124,1,0,253165,,,,,
369392,set_tempo,,,,,64,1,0,252101,,,,,
369406,control_change,,,,,112,0,1,,64,0,0,,
369456,set_tempo,,,,,64,1,0,250000,,,,,
369486,control_change,,,,,80,0,1,,64,127,0,,
369488,note_on,,,,,2,0,1,,,,0,50,98
369488,note_on,,,,,0,0,1,,,,0,38,85
369516,note_off,,,,,28,0,1,,,,0,50,64
369520,set_tempo,,,,,64,1,0,248963,,,,,
369524,note_off,,,,,8,0,1,,,,0,38,64
369584,set_tempo,,,,,64,1,0,247934,,,,,
369644,set_tempo,,,,,60,1,0,246914,,,,,
369698,note_on,,,,,174,0,1,,,,0,51,96
369702,note_on,,,,,4,0,1,,,,0,39,86
369708,set_tempo,,,,,64,1,0,244898,,,,,
369728,note_off,,,,,26,0,1,,,,0,72,64
369730,note_off,,,,,2,0,1,,,,0,51,64
369734,note_off,,,,,4,0,1,,,,0,39,64
369738,note_off,,,,,4,0,1,,,,0,75,64
369750,note_off,,,,,12,0,1,,,,0,80,64
369750,note_off,,,,,0,0,1,,,,0,84,64
369772,set_tempo,,,,,64,1,0,242915,,,,,
369900,set_tempo,,,,,128,1,0,241935,,,,,
369964,set_tempo,,,,,64,1,0,240000,,,,,
370004,note_on,,,,,0,0,1,,,,0,87,102
370004,note_on,,,,,254,0,1,,,,0,92,94
370006,note_on,,,,,0,0,1,,,,0,84,95
370006,note_on,,,,,2,0,1,,,,0,96,94
370012,note_on,,,,,6,0,1,,,,0,44,103
370016,note_on,,,,,4,0,1,,,,0,32,92
370024,set_tempo,,,,,60,1,0,239044,,,,,
370042,control_change,,,,,26,0,1,,64,0,0,,
370088,set_tempo,,,,,64,1,0,238095,,,,,
370152,set_tempo,,,,,64,1,0,237154,,,,,
370216,set_tempo,,,,,64,1,0,235294,,,,,
370280,set_tempo,,,,,64,1,0,234375,,,,,
370344,set_tempo,,,,,64,1,0,233463,,,,,
370350,control_change,,,,,308,0,1,,64,127,0,,
370376,set_tempo,,,,,32,1,0,234375,,,,,
370380,set_tempo,,,,,4,1,0,237154,,,,,
370384,set_tempo,,,,,4,1,0,239044,,,,,
370388,set_tempo,,,,,4,1,0,241935,,,,,
370392,set_tempo,,,,,4,1,0,242915,,,,,
370396,set_tempo,,,,,4,1,0,246914,,,,,
370400,set_tempo,,,,,4,1,0,248963,,,,,
370404,set_tempo,,,,,4,1,0,252101,,,,,
370408,set_tempo,,,,,4,1,0,254237,,,,,
370412,set_tempo,,,,,4,1,0,255319,,,,,
370416,set_tempo,,,,,4,1,0,259740,,,,,
370420,set_tempo,,,,,4,1,0,263158,,,,,
370424,set_tempo,,,,,4,1,0,265487,,,,,
370428,set_tempo,,,,,4,1,0,266667,,,,,
370432,set_tempo,,,,,4,1,0,270270,,,,,
370444,set_tempo,,,,,12,1,0,272727,,,,,
370456,set_tempo,,,,,12,1,0,275229,,,,,
370464,note_off,,,,,114,0,1,,,,0,96,64
370468,set_tempo,,,,,12,1,0,276498,,,,,
370480,set_tempo,,,,,12,1,0,277778,,,,,
370480,note_off,,,,,16,0,1,,,,0,32,64
370482,note_off,,,,,2,0,1,,,,0,92,64
370486,note_off,,,,,4,0,1,,,,0,44,64
370492,note_off,,,,,6,0,1,,,,0,84,64
370492,set_tempo,,,,,12,1,0,279070,,,,,
370496,note_off,,,,,4,0,1,,,,0,87,64
370504,set_tempo,,,,,12,1,0,281690,,,,,
370528,set_tempo,,,,,24,1,0,283019,,,,,
370536,set_tempo,,,,,8,1,0,284360,,,,,
370548,set_tempo,,,,,12,1,0,285714,,,,,
370560,set_tempo,,,,,12,1,0,361446,,,,,
370572,set_tempo,,,,,12,1,0,363636,,,,,
370584,set_tempo,,,,,12,1,0,365854,,,,,
370596,set_tempo,,,,,12,1,0,368098,,,,,
370608,set_tempo,,,,,12,1,0,370370,,,,,
370632,set_tempo,,,,,24,1,0,372671,,,,,
370640,set_tempo,,,,,8,1,0,375000,,,,,
370652,set_tempo,,,,,12,1,0,377358,,,,,
370664,set_tempo,,,,,12,1,0,379747,,,,,
370676,set_tempo,,,,,12,1,0,384615,,,,,
370688,set_tempo,,,,,12,1,0,387097,,,,,
370700,set_tempo,,,,,12,1,0,389610,,,,,
370712,set_tempo,,,,,12,1,0,392157,,,,,
370736,set_tempo,,,,,24,1,0,394737,,,,,
370744,set_tempo,,,,,8,1,0,397351,,,,,
370754,note_on,,,,,258,0,1,,,,0,68,85
370756,note_on,,,,,2,0,1,,,,0,75,85
370756,set_tempo,,,,,12,1,0,400000,,,,,
370758,note_on,,,,,2,0,1,,,,0,63,87
370760,note_on,,,,,2,0,1,,,,0,56,84
370768,set_tempo,,,,,12,1,0,402685,,,,,
370776,note_off,,,,,16,0,1,,,,0,68,64
370780,set_tempo,,,,,12,1,0,405405,,,,,
370782,note_off,,,,,6,0,1,,,,0,63,64
370784,note_off,,,,,2,0,1,,,,0,75,64
370786,note_off,,,,,2,0,1,,,,0,56,64
370792,set_tempo,,,,,12,1,0,410959,,,,,
370804,set_tempo,,,,,12,1,0,413793,,,,,
370812,note_on,,,,,0,0,1,,,,0,68,93
370812,note_on,,,,,26,0,1,,,,0,75,97
370814,note_on,,,,,2,0,1,,,,0,56,91
370816,note_on,,,,,2,0,1,,,,0,63,93
370816,set_tempo,,,,,12,1,0,416667,,,,,
370836,set_tempo,,,,,20,1,0,419580,,,,,
371040,note_off,,,,,224,0,1,,,,0,63,64
371064,note_off,,,,,24,0,1,,,,0,68,64
371074,note_off,,,,,10,0,1,,,,0,56,64
371076,note_off,,,,,2,0,1,,,,0,75,64
371352,note_on,,,,,276,0,1,,,,0,68,83
371352,note_on,,,,,0,0,1,,,,0,63,79
371354,note_on,,,,,2,0,1,,,,0,56,93
371358,note_on,,,,,4,0,1,,,,0,51,87
371372,note_off,,,,,14,0,1,,,,0,51,64
371374,note_off,,,,,2,0,1,,,,0,63,64
371376,note_off,,,,,2,0,1,,,,0,56,64
371378,note_off,,,,,2,0,1,,,,0,68,64
371408,note_on,,,,,0,0,1,,,,0,63,91
371408,note_on,,,,,0,0,1,,,,0,56,94
371408,note_on,,,,,30,0,1,,,,0,68,94
371410,note_on,,,,,2,0,1,,,,0,51,98
371476,note_off,,,,,66,0,1,,,,0,56,64
371522,note_off,,,,,46,0,1,,,,0,51,64
371552,note_off,,,,,30,0,1,,,,0,63,64
371576,note_off,,,,,24,0,1,,,,0,68,64
371904,note_on,,,,,328,0,1,,,,0,63,80
371904,note_on,,,,,0,0,1,,,,0,56,86
371906,note_on,,,,,2,0,1,,,,0,51,88
371910,note_on,,,,,4,0,1,,,,0,44,84
371928,note_off,,,,,0,0,1,,,,0,56,64
371928,note_off,,,,,18,0,1,,,,0,51,64
371932,note_off,,,,,4,0,1,,,,0,63,64
371936,note_off,,,,,4,0,1,,,,0,44,64
371962,note_on,,,,,26,0,1,,,,0,44,87
371964,note_on,,,,,2,0,1,,,,0,63,89
371964,note_on,,,,,0,0,1,,,,0,51,92
371966,note_on,,,,,2,0,1,,,,0,56,95
372012,note_off,,,,,46,0,1,,,,0,51,64
372028,note_off,,,,,16,0,1,,,,0,44,64
372030,note_off,,,,,2,0,1,,,,0,56,64
372040,note_off,,,,,10,0,1,,,,0,63,64
372222,note_on,,,,,0,0,1,,,,0,44,83
372222,note_on,,,,,182,0,1,,,,0,51,90
372224,note_on,,,,,0,0,1,,,,0,39,81
372224,note_on,,,,,2,0,1,,,,0,56,89
372248,note_off,,,,,24,0,1,,,,0,44,64
372248,note_off,,,,,0,0,1,,,,0,51,64
372254,note_off,,,,,6,0,1,,,,0,56,64
372256,note_off,,,,,2,0,1,,,,0,39,64
372292,note_on,,,,,36,0,1,,,,0,56,93
372292,note_on,,,,,0,0,1,,,,0,51,98
372296,note_on,,,,,4,0,1,,,,0,44,101
372296,note_on,,,,,0,0,1,,,,0,39,88
372358,note_off,,,,,62,0,1,,,,0,51,64
372360,note_off,,,,,2,0,1,,,,0,44,64
372366,note_off,,,,,6,0,1,,,,0,39,64
372370,note_off,,,,,4,0,1,,,,0,56,64
372600,note_on,,,,,230,0,1,,,,0,44,89
372602,note_on,,,,,2,0,1,,,,0,51,91
372608,note_on,,,,,6,0,1,,,,0,39,84
372610,note_on,,,,,2,0,1,,,,0,32,49
372624,note_off,,,,,14,0,1,,,,0,32,64
372640,note_off,,,,,16,0,1,,,,0,44,64
372644,note_off,,,,,4,0,1,,,,0,39,64
372648,note_off,,,,,4,0,1,,,,0,51,64
372692,note_on,,,,,0,0,1,,,,0,39,95
372692,note_on,,,,,44,0,1,,,,0,44,96
372694,note_on,,,,,2,0,1,,,,0,51,96
372700,note_on,,,,,6,0,1,,,,0,32,97
372744,control_change,,,,,44,0,1,,64,0,0,,
372828,control_change,,,,,84,0,1,,64,127,0,,
372850,note_off,,,,,22,0,1,,,,0,39,64
372864,note_off,,,,,14,0,1,,,,0,32,64
372884,note_off,,,,,20,0,1,,,,0,44,64
372888,note_off,,,,,4,0,1,,,,0,51,64
372988,set_tempo,,,,,2152,1,0,416667,,,,,
373028,set_tempo,,,,,40,1,0,413793,,,,,
373048,set_tempo,,,,,20,1,0,410959,,,,,
373058,note_on,,,,,170,0,1,,,,0,51,92
373058,note_on,,,,,0,0,1,,,,0,33,83
373060,note_on,,,,,0,0,1,,,,0,39,90
373060,note_on,,,,,2,0,1,,,,0,45,94
373068,set_tempo,,,,,20,1,0,405405,,,,,
373088,set_tempo,,,,,20,1,0,402685,,,,,
373108,set_tempo,,,,,20,1,0,400000,,,,,
373128,set_tempo,,,,,20,1,0,397351,,,,,
373130,note_off,,,,,0,0,1,,,,0,33,64
373130,note_off,,,,,70,0,1,,,,0,39,64
373148,note_off,,,,,18,0,1,,,,0,45,64
373148,set_tempo,,,,,20,1,0,394737,,,,,
373152,note_off,,,,,4,0,1,,,,0,51,64
373172,set_tempo,,,,,24,1,0,392157,,,,,
373212,set_tempo,,,,,40,1,0,389610,,,,,
373220,note_on,,,,,68,0,1,,,,0,33,91
373222,note_on,,,,,2,0,1,,,,0,51,100
373222,note_on,,,,,0,0,1,,,,0,39,95
373224,note_on,,,,,2,0,1,,,,0,45,105
373232,set_tempo,,,,,20,1,0,387097,,,,,
373246,control_change,,,,,22,0,1,,64,0,0,,
373252,set_tempo,,,,,20,1,0,384615,,,,,
373272,set_tempo,,,,,20,1,0,379747,,,,,
373292,set_tempo,,,,,20,1,0,377358,,,,,
373312,set_tempo,,,,,20,1,0,375000,,,,,
373316,control_change,,,,,70,0,1,,64,127,0,,
373326,note_off,,,,,10,0,1,,,,0,45,64
373332,set_tempo,,,,,20,1,0,372671,,,,,
373344,note_off,,,,,18,0,1,,,,0,51,64
373356,set_tempo,,,,,24,1,0,370370,,,,,
373396,set_tempo,,,,,40,1,0,368098,,,,,
373416,set_tempo,,,,,20,1,0,365854,,,,,
373430,note_off,,,,,86,0,1,,,,0,39,64
373440,set_tempo,,,,,24,1,0,291262,,,,,
373448,set_tempo,,,,,8,1,0,289855,,,,,
373450,note_on,,,,,20,0,1,,,,0,59,88
373452,note_off,,,,,2,0,1,,,,0,33,64
373458,note_on,,,,,6,0,1,,,,0,71,60
373460,set_tempo,,,,,12,1,0,285714,,,,,
373468,set_tempo,,,,,8,1,0,284360,,,,,
373480,set_tempo,,,,,12,1,0,283019,,,,,
373484,note_off,,,,,26,0,1,,,,0,59,64
373488,set_tempo,,,,,8,1,0,281690,,,,,
373488,note_off,,,,,4,0,1,,,,0,71,64
373508,set_tempo,,,,,20,1,0,279070,,,,,
373520,set_tempo,,,,,12,1,0,277778,,,,,
373528,set_tempo,,,,,8,1,0,276498,,,,,
373540,set_tempo,,,,,12,1,0,275229,,,,,
373548,set_tempo,,,,,8,1,0,272727,,,,,
373556,set_tempo,,,,,8,1,0,270270,,,,,
373596,set_tempo,,,,,40,1,0,272727,,,,,
373600,note_on,,,,,112,0,1,,,,0,60,91
373606,note_on,,,,,6,0,1,,,,0,72,86
373624,note_off,,,,,18,0,1,,,,0,60,64
373628,set_tempo,,,,,32,1,0,275229,,,,,
373632,note_off,,,,,8,0,1,,,,0,72,64
373660,set_tempo,,,,,32,1,0,276498,,,,,
373692,set_tempo,,,,,32,1,0,277778,,,,,
373728,set_tempo,,,,,36,1,0,279070,,,,,
373742,note_on,,,,,0,0,1,,,,0,42,79
373742,note_on,,,,,110,0,1,,,,0,45,91
373744,note_on,,,,,0,0,1,,,,0,36,73
373744,note_on,,,,,2,0,1,,,,0,39,71
373746,note_on,,,,,2,0,1,,,,0,33,78
373752,note_on,,,,,6,0,1,,,,0,63,98
373754,note_on,,,,,2,0,1,,,,0,75,97
373760,set_tempo,,,,,32,1,0,281690,,,,,
373768,control_change,,,,,14,0,1,,64,0,0,,
373786,note_off,,,,,18,0,1,,,,0,63,64
373796,note_off,,,,,10,0,1,,,,0,75,64
373800,control_change,,,,,4,0,1,,64,127,0,,
373824,set_tempo,,,,,64,1,0,283019,,,,,
373856,set_tempo,,,,,32,1,0,284360,,,,,
373886,note_on,,,,,86,0,1,,,,0,66,91
373888,note_on,,,,,2,0,1,,,,0,78,92
373912,note_off,,,,,24,0,1,,,,0,66,64
373920,note_off,,,,,8,0,1,,,,0,78,64
373988,set_tempo,,,,,132,1,0,283019,,,,,
374016,note_on,,,,,96,0,1,,,,0,69,93
374018,note_on,,,,,2,0,1,,,,0,81,91
374038,note_off,,,,,20,0,1,,,,0,69,64
374044,note_off,,,,,6,0,1,,,,0,81,64
374056,set_tempo,,,,,68,1,0,281690,,,,,
374150,note_on,,,,,106,0,1,,,,0,72,93
374152,note_on,,,,,2,0,1,,,,0,84,90
374174,note_off,,,,,22,0,1,,,,0,72,64
374176,note_off,,,,,2,0,1,,,,0,84,64
374196,set_tempo,,,,,140,1,0,279070,,,,,
374264,set_tempo,,,,,68,1,0,277778,,,,,
374276,note_on,,,,,100,0,1,,,,0,75,90
374278,note_on,,,,,2,0,1,,,,0,87,90
374300,note_off,,,,,0,0,1,,,,0,75,64
374300,note_off,,,,,22,0,1,,,,0,87,64
374332,set_tempo,,,,,68,1,0,276498,,,,,
374400,set_tempo,,,,,68,1,0,275229,,,,,
374412,note_on,,,,,0,0,1,,,,0,81,95
374412,note_on,,,,,112,0,1,,,,0,93,82
374434,note_off,,,,,22,0,1,,,,0,81,64
374434,note_off,,,,,0,0,1,,,,0,93,64
374436,note_off,,,,,2,0,1,,,,0,33,64
374446,note_off,,,,,10,0,1,,,,0,39,64
374452,note_off,,,,,0,0,1,,,,0,45,64
374452,note_off,,,,,6,0,1,,,,0,36,64
374454,note_off,,,,,2,0,1,,,,0,42,64
374468,set_tempo,,,,,68,1,0,272727,,,,,
374540,set_tempo,,,,,72,1,0,270270,,,,,
374542,note_on,,,,,88,0,1,,,,0,45,102
374544,note_on,,,,,2,0,1,,,,0,33,86
374546,note_on,,,,,2,0,1,,,,0,92,95
374546,note_on,,,,,0,0,1,,,,0,42,81
374548,note_on,,,,,2,0,1,,,,0,36,82
374552,note_on,,,,,0,0,1,,,,0,39,69
374552,note_on,,,,,4,0,1,,,,0,80,100
374582,note_off,,,,,30,0,1,,,,0,80,64
374592,note_off,,,,,10,0,1,,,,0,92,64
374600,control_change,,,,,8,0,1,,64,0,0,,
374608,set_tempo,,,,,68,1,0,269058,,,,,
374634,control_change,,,,,34,0,1,,64,127,0,,
374676,set_tempo,,,,,68,1,0,266667,,,,,
374684,note_on,,,,,50,0,1,,,,0,91,91
374684,note_on,,,,,0,0,1,,,,0,79,90
374710,note_off,,,,,26,0,1,,,,0,79,64
374714,note_off,,,,,4,0,1,,,,0,91,64
374800,note_off,,,,,86,0,1,,,,0,33,64
374804,note_on,,,,,4,0,1,,,,0,90,80
374804,note_on,,,,,0,0,1,,,,0,78,87
374812,set_tempo,,,,,136,1,0,265487,,,,,
374814,note_off,,,,,0,0,1,,,,0,36,64
374814,note_off,,,,,10,0,1,,,,0,39,64
374824,note_off,,,,,10,0,1,,,,0,45,64
374828,note_off,,,,,4,0,1,,,,0,78,64
374830,note_off,,,,,2,0,1,,,,0,42,64
374832,set_tempo,,,,,20,1,0,266667,,,,,
374836,note_off,,,,,6,0,1,,,,0,90,64
374864,set_tempo,,,,,32,1,0,269058,,,,,
374880,set_tempo,,,,,16,1,0,270270,,,,,
374928,note_on,,,,,92,0,1,,,,0,89,83
374930,note_on,,,,,2,0,1,,,,0,77,92
374956,note_off,,,,,0,0,1,,,,0,89,64
374956,note_off,,,,,26,0,1,,,,0,77,64
375052,note_on,,,,,96,0,1,,,,0,76,85
375054,note_on,,,,,2,0,1,,,,0,88,91
375074,note_off,,,,,20,0,1,,,,0,76,64
375076,note_off,,,,,2,0,1,,,,0,88,64
375172,note_on,,,,,96,0,1,,,,0,87,90
375174,note_on,,,,,2,0,1,,,,0,75,93
375176,note_on,,,,,0,0,1,,,,0,60,68
375176,note_on,,,,,2,0,1,,,,0,69,72
375180,note_on,,,,,4,0,1,,,,0,63,77
375208,note_off,,,,,28,0,1,,,,0,75,64
375212,note_off,,,,,4,0,1,,,,0,87,64
375220,note_off,,,,,8,0,1,,,,0,69,64
375224,note_off,,,,,4,0,1,,,,0,60,64
375230,note_off,,,,,6,0,1,,,,0,63,64
375294,note_on,,,,,64,0,1,,,,0,60,69
375298,note_on,,,,,0,0,1,,,,0,63,78
375298,note_on,,,,,4,0,1,,,,0,69,82
375300,note_on,,,,,2,0,1,,,,0,74,92
375304,note_on,,,,,4,0,1,,,,0,86,92
375330,note_off,,,,,26,0,1,,,,0,74,64
375332,note_off,,,,,2,0,1,,,,0,86,64
375340,note_off,,,,,8,0,1,,,,0,69,64
375354,note_off,,,,,0,0,1,,,,0,60,64
375354,note_off,,,,,14,0,1,,,,0,63,64
375438,note_on,,,,,84,0,1,,,,0,85,92
375438,note_on,,,,,0,0,1,,,,0,73,90
375468,note_off,,,,,30,0,1,,,,0,73,64
375470,note_off,,,,,2,0,1,,,,0,85,64
375560,note_on,,,,,90,0,1,,,,0,63,87
375562,note_on,,,,,2,0,1,,,,0,54,81
375564,note_on,,,,,0,0,1,,,,0,72,91
375564,note_on,,,,,2,0,1,,,,0,84,87
375572,note_on,,,,,8,0,1,,,,0,57,80
375594,note_off,,,,,22,0,1,,,,0,72,64
375598,note_off,,,,,4,0,1,,,,0,84,64
375606,note_off,,,,,8,0,1,,,,0,54,64
375612,note_off,,,,,6,0,1,,,,0,63,64
375616,note_off,,,,,4,0,1,,,,0,57,64
375680,note_on,,,,,64,0,1,,,,0,63,88
375684,note_on,,,,,4,0,1,,,,0,54,80
375686,note_on,,,,,2,0,1,,,,0,57,74
375692,note_on,,,,,6,0,1,,,,0,83,88
375692,note_on,,,,,0,0,1,,,,0,71,92
375724,note_off,,,,,32,0,1,,,,0,71,64
375724,note_off,,,,,0,0,1,,,,0,63,64
375728,note_off,,,,,4,0,1,,,,0,83,64
375732,note_off,,,,,4,0,1,,,,0,57,64
375740,note_off,,,,,8,0,1,,,,0,54,64
375818,note_on,,,,,78,0,1,,,,0,70,88
375820,note_on,,,,,2,0,1,,,,0,82,86
375852,note_off,,,,,32,0,1,,,,0,70,64
375860,note_off,,,,,8,0,1,,,,0,82,64
375944,note_on,,,,,0,0,1,,,,0,48,82
375944,note_on,,,,,84,0,1,,,,0,57,86
375946,note_on,,,,,2,0,1,,,,0,81,90
375948,note_on,,,,,2,0,1,,,,0,69,93
375948,note_on,,,,,0,0,1,,,,0,51,84
375978,note_off,,,,,30,0,1,,,,0,69,64
375980,note_off,,,,,2,0,1,,,,0,57,64
375984,note_off,,,,,4,0,1,,,,0,81,64
375984,note_off,,,,,0,0,1,,,,0,48,64
375994,note_off,,,,,10,0,1,,,,0,51,64
376078,note_on,,,,,84,0,1,,,,0,57,91
376078,note_on,,,,,0,0,1,,,,0,51,85
376080,note_on,,,,,0,0,1,,,,0,68,91
376080,note_on,,,,,2,0,1,,,,0,80,88
376082,note_on,,,,,2,0,1,,,,0,48,86
376104,note_off,,,,,22,0,1,,,,0,57,64
376114,note_off,,,,,10,0,1,,,,0,68,64
376120,note_off,,,,,6,0,1,,,,0,80,64
376122,note_off,,,,,2,0,1,,,,0,48,64
376124,note_off,,,,,2,0,1,,,,0,51,64
376204,note_on,,,,,80,0,1,,,,0,67,84
376206,note_on,,,,,2,0,1,,,,0,79,88
376230,note_off,,,,,24,0,1,,,,0,67,64
376232,note_off,,,,,2,0,1,,,,0,79,64
376334,note_on,,,,,0,0,1,,,,0,66,93
376334,note_on,,,,,102,0,1,,,,0,78,87
376364,note_off,,,,,0,0,1,,,,0,78,64
376364,note_off,,,,,30,0,1,,,,0,66,64
376456,note_on,,,,,92,0,1,,,,0,45,92
376458,note_on,,,,,2,0,1,,,,0,33,85
376460,note_on,,,,,2,0,1,,,,0,41,86
376460,note_on,,,,,0,0,1,,,,0,36,75
376466,note_on,,,,,6,0,1,,,,0,39,81
376468,note_on,,,,,2,0,1,,,,0,77,91
376468,note_on,,,,,0,0,1,,,,0,72,95
376468,note_on,,,,,0,0,1,,,,0,65,100
376492,control_change,,,,,24,0,1,,64,0,0,,
376548,note_off,,,,,56,0,1,,,,0,77,64
376554,control_change,,,,,6,0,1,,64,127,0,,
376556,note_off,,,,,2,0,1,,,,0,65,64
376570,note_off,,,,,14,0,1,,,,0,72,64
376614,note_on,,,,,44,0,1,,,,0,64,86
376616,note_on,,,,,2,0,1,,,,0,76,83
376638,note_off,,,,,22,0,1,,,,0,64,64
376644,note_off,,,,,6,0,1,,,,0,76,64
376676,note_off,,,,,32,0,1,,,,0,33,64
376710,note_off,,,,,34,0,1,,,,0,39,64
376714,note_off,,,,,4,0,1,,,,0,36,64
376716,note_off,,,,,2,0,1,,,,0,45,64
376726,note_off,,,,,10,0,1,,,,0,41,64
376734,note_on,,,,,8,0,1,,,,0,65,88
376740,note_on,,,,,6,0,1,,,,0,77,71
376758,note_off,,,,,18,0,1,,,,0,65,64
376768,note_off,,,,,10,0,1,,,,0,77,64
376864,note_on,,,,,96,0,1,,,,0,45,93
376864,note_on,,,,,0,0,1,,,,0,41,91
376866,note_on,,,,,2,0,1,,,,0,33,82
376868,note_on,,,,,2,0,1,,,,0,36,71
376870,note_on,,,,,0,0,1,,,,0,69,100
376870,note_on,,,,,2,0,1,,,,0,81,93
376874,note_on,,,,,4,0,1,,,,0,39,76
376902,control_change,,,,,0,0,1,,64,0,0,,
376902,note_off,,,,,28,0,1,,,,0,69,64
376912,note_off,,,,,10,0,1,,,,0,81,64
376916,control_change,,,,,4,0,1,,64,127,0,,
376996,note_on,,,,,80,0,1,,,,0,72,90
377000,note_on,,,,,4,0,1,,,,0,84,87
377022,note_off,,,,,22,0,1,,,,0,84,64
377022,note_off,,,,,0,0,1,,,,0,72,64
377120,note_on,,,,,98,0,1,,,,0,87,92
377120,note_on,,,,,0,0,1,,,,0,75,92
377146,note_off,,,,,26,0,1,,,,0,75,64
377150,note_off,,,,,4,0,1,,,,0,87,64
377246,note_on,,,,,96,0,1,,,,0,88,91
377246,note_on,,,,,0,0,1,,,,0,76,87
377270,note_off,,,,,24,0,1,,,,0,76,64
377280,note_off,,,,,10,0,1,,,,0,88,64
377372,note_on,,,,,92,0,1,,,,0,77,93
377374,note_on,,,,,2,0,1,,,,0,89,92
377396,note_off,,,,,22,0,1,,,,0,77,64
377400,note_off,,,,,4,0,1,,,,0,89,64
377498,note_off,,,,,98,0,1,,,,0,33,64
377500,note_on,,,,,0,0,1,,,,0,78,92
377500,note_on,,,,,2,0,1,,,,0,90,91
377516,note_off,,,,,16,0,1,,,,0,39,64
377520,note_off,,,,,4,0,1,,,,0,45,64
377524,note_off,,,,,4,0,1,,,,0,36,64
377526,note_off,,,,,0,0,1,,,,0,41,64
377526,note_off,,,,,2,0,1,,,,0,78,64
377528,note_off,,,,,2,0,1,,,,0,90,64
377622,note_on,,,,,94,0,1,,,,0,45,97
377624,note_on,,,,,2,0,1,,,,0,41,94
377626,note_on,,,,,2,0,1,,,,0,36,80
377628,note_on,,,,,2,0,1,,,,0,89,94
377628,note_on,,,,,0,0,1,,,,0,39,78
377632,note_on,,,,,4,0,1,,,,0,77,97
377632,note_on,,,,,0,0,1,,,,0,33,80
377660,note_off,,,,,28,0,1,,,,0,77,64
377670,control_change,,,,,10,0,1,,64,0,0,,
377676,control_change,,,,,6,0,1,,64,127,0,,
377682,note_off,,,,,6,0,1,,,,0,89,64
377762,note_on,,,,,80,0,1,,,,0,88,86
377764,note_on,,,,,2,0,1,,,,0,76,83
377792,note_off,,,,,28,0,1,,,,0,76,64
377792,note_off,,,,,0,0,1,,,,0,88,64
377820,note_off,,,,,28,0,1,,,,0,33,64
377840,note_off,,,,,20,0,1,,,,0,39,64
377840,note_off,,,,,0,0,1,,,,0,36,64
377848,note_off,,,,,8,0,1,,,,0,45,64
377850,note_off,,,,,2,0,1,,,,0,41,64
377886,note_on,,,,,0,0,1,,,,0,75,89
377886,note_on,,,,,36,0,1,,,,0,87,91
377916,note_off,,,,,30,0,1,,,,0,75,64
377916,note_off,,,,,0,0,1,,,,0,87,64
378004,note_on,,,,,88,0,1,,,,0,86,91
378004,note_on,,,,,0,0,1,,,,0,74,84
378036,note_off,,,,,32,0,1,,,,0,74,64
378038,note_off,,,,,2,0,1,,,,0,86,64
378130,note_on,,,,,92,0,1,,,,0,85,92
378130,note_on,,,,,0,0,1,,,,0,73,89
378158,note_off,,,,,28,0,1,,,,0,73,64
378160,note_off,,,,,2,0,1,,,,0,85,64
378252,note_on,,,,,92,0,1,,,,0,63,66
378254,note_on,,,,,2,0,1,,,,0,69,69
378256,note_on,,,,,2,0,1,,,,0,84,90
378256,note_on,,,,,0,0,1,,,,0,72,92
378258,note_on,,,,,2,0,1,,,,0,60,60
378284,note_off,,,,,0,0,1,,,,0,84,64
378284,note_off,,,,,26,0,1,,,,0,72,64
378292,note_off,,,,,8,0,1,,,,0,69,64
378298,note_off,,,,,6,0,1,,,,0,60,64
378300,note_off,,,,,2,0,1,,,,0,63,64
378370,note_on,,,,,70,0,1,,,,0,63,81
378372,note_on,,,,,2,0,1,,,,0,60,75
378374,note_on,,,,,2,0,1,,,,0,69,80
378382,note_on,,,,,0,0,1,,,,0,71,91
378382,note_on,,,,,8,0,1,,,,0,83,90
378404,note_off,,,,,22,0,1,,,,0,71,64
378406,note_off,,,,,2,0,1,,,,0,83,64
378408,note_off,,,,,2,0,1,,,,0,69,64
378418,note_off,,,,,10,0,1,,,,0,63,64
378420,note_off,,,,,2,0,1,,,,0,60,64
378512,note_on,,,,,92,0,1,,,,0,82,89
378512,note_on,,,,,0,0,1,,,,0,70,89
378540,note_off,,,,,0,0,1,,,,0,82,64
378540,note_off,,,,,28,0,1,,,,0,70,64
378628,note_on,,,,,88,0,1,,,,0,63,87
378630,note_on,,,,,2,0,1,,,,0,81,91
378632,note_on,,,,,2,0,1,,,,0,69,90
378634,note_on,,,,,2,0,1,,,,0,53,80
378638,note_on,,,,,4,0,1,,,,0,57,81
378654,note_off,,,,,16,0,1,,,,0,69,64
378658,note_off,,,,,4,0,1,,,,0,81,64
378660,note_off,,,,,2,0,1,,,,0,53,64
378666,note_off,,,,,6,0,1,,,,0,63,64
378672,note_off,,,,,6,0,1,,,,0,57,64
378752,note_on,,,,,80,0,1,,,,0,63,87
378754,note_on,,,,,2,0,1,,,,0,57,78
378758,note_on,,,,,4,0,1,,,,0,53,82
378760,note_on,,,,,0,0,1,,,,0,68,95
378760,note_on,,,,,2,0,1,,,,0,80,92
378788,note_off,,,,,28,0,1,,,,0,63,64
378790,note_off,,,,,2,0,1,,,,0,68,64
378792,note_off,,,,,2,0,1,,,,0,80,64
378796,note_off,,,,,0,0,1,,,,0,57,64
378796,note_off,,,,,4,0,1,,,,0,53,64
378884,note_on,,,,,88,0,1,,,,0,79,87
378884,note_on,,,,,0,0,1,,,,0,67,85
378906,note_off,,,,,22,0,1,,,,0,67,64
378908,note_off,,,,,2,0,1,,,,0,79,64
379002,note_on,,,,,94,0,1,,,,0,57,86
379004,note_on,,,,,2,0,1,,,,0,66,93
379006,note_on,,,,,2,0,1,,,,0,51,80
379008,note_on,,,,,2,0,1,,,,0,78,88
379008,note_on,,,,,0,0,1,,,,0,48,74
379038,note_off,,,,,30,0,1,,,,0,66,64
379038,note_off,,,,,0,0,1,,,,0,57,64
379040,note_off,,,,,2,0,1,,,,0,78,64
379046,note_off,,,,,6,0,1,,,,0,48,64
379052,note_off,,,,,6,0,1,,,,0,51,64
379132,note_on,,,,,80,0,1,,,,0,57,94
379134,note_on,,,,,0,0,1,,,,0,51,89
379134,note_on,,,,,2,0,1,,,,0,65,90
379136,note_on,,,,,0,0,1,,,,0,48,85
379136,note_on,,,,,2,0,1,,,,0,77,85
379164,note_off,,,,,28,0,1,,,,0,57,64
379166,note_off,,,,,2,0,1,,,,0,65,64
379170,note_off,,,,,4,0,1,,,,0,77,64
379178,note_off,,,,,8,0,1,,,,0,48,64
379180,note_off,,,,,2,0,1,,,,0,51,64
379266,note_on,,,,,0,0,1,,,,0,64,86
379266,note_on,,,,,86,0,1,,,,0,76,85
379290,note_off,,,,,24,0,1,,,,0,64,64
379292,note_off,,,,,2,0,1,,,,0,76,64
379390,note_on,,,,,98,0,1,,,,0,63,91
379392,note_on,,,,,2,0,1,,,,0,75,85
379422,note_off,,,,,0,0,1,,,,0,63,64
379422,note_off,,,,,30,0,1,,,,0,75,64
379522,note_on,,,,,100,0,1,,,,0,45,93
379522,note_on,,,,,0,0,1,,,,0,42,86
379524,note_on,,,,,2,0,1,,,,0,38,82
379524,note_on,,,,,0,0,1,,,,0,33,85
379528,note_on,,,,,4,0,1,,,,0,36,81
379532,note_on,,,,,4,0,1,,,,0,62,86
379536,note_on,,,,,4,0,1,,,,0,74,67
379542,note_on,,,,,6,0,1,,,,0,67,63
379568,control_change,,,,,26,0,1,,64,0,0,,
379580,note_off,,,,,12,0,1,,,,0,62,64
379598,note_off,,,,,18,0,1,,,,0,74,64
379620,note_off,,,,,22,0,1,,,,0,67,64
379626,control_change,,,,,6,0,1,,64,127,0,,
379672,note_on,,,,,46,0,1,,,,0,61,92
379674,note_on,,,,,2,0,1,,,,0,73,87
379700,note_off,,,,,26,0,1,,,,0,73,64
379702,note_off,,,,,2,0,1,,,,0,61,64
379772,note_off,,,,,70,0,1,,,,0,36,64
379772,note_off,,,,,0,0,1,,,,0,38,64
379774,note_off,,,,,2,0,1,,,,0,33,64
379776,note_off,,,,,2,0,1,,,,0,42,64
379784,note_off,,,,,8,0,1,,,,0,45,64
379790,note_on,,,,,6,0,1,,,,0,62,91
379792,note_on,,,,,2,0,1,,,,0,74,87
379814,note_off,,,,,22,0,1,,,,0,62,64
379820,note_off,,,,,6,0,1,,,,0,74,64
379914,note_on,,,,,94,0,1,,,,0,45,97
379914,note_on,,,,,0,0,1,,,,0,42,87
379916,note_on,,,,,2,0,1,,,,0,38,76
379920,note_on,,,,,4,0,1,,,,0,33,82
379924,note_on,,,,,4,0,1,,,,0,78,95
379924,note_on,,,,,0,0,1,,,,0,66,97
379928,note_on,,,,,4,0,1,,,,0,36,61
379952,note_off,,,,,24,0,1,,,,0,78,64
379954,note_off,,,,,2,0,1,,,,0,66,64
380052,note_on,,,,,0,0,1,,,,0,69,87
380052,note_on,,,,,98,0,1,,,,0,81,92
380078,note_off,,,,,26,0,1,,,,0,69,64
380088,note_off,,,,,10,0,1,,,,0,81,64
380172,note_on,,,,,84,0,1,,,,0,84,83
380174,note_on,,,,,2,0,1,,,,0,72,86
380200,note_off,,,,,26,0,1,,,,0,72,64
380200,note_off,,,,,0,0,1,,,,0,84,64
380300,note_on,,,,,100,0,1,,,,0,73,94
380302,note_on,,,,,2,0,1,,,,0,85,92
380324,note_off,,,,,22,0,1,,,,0,85,64
380326,note_off,,,,,2,0,1,,,,0,73,64
380422,note_on,,,,,96,0,1,,,,0,74,85
380424,note_on,,,,,2,0,1,,,,0,86,90
380446,note_off,,,,,22,0,1,,,,0,74,64
380448,note_off,,,,,2,0,1,,,,0,86,64
380546,note_on,,,,,98,0,1,,,,0,75,90
380548,note_on,,,,,2,0,1,,,,0,87,87
380564,note_off,,,,,16,0,1,,,,0,38,64
380570,note_off,,,,,6,0,1,,,,0,42,64
380572,note_off,,,,,2,0,1,,,,0,33,64
380574,note_off,,,,,2,0,1,,,,0,45,64
380576,note_off,,,,,0,0,1,,,,0,36,64
380576,note_off,,,,,2,0,1,,,,0,75,64
380580,note_off,,,,,4,0,1,,,,0,87,64
380672,note_on,,,,,0,0,1,,,,0,42,87
380672,note_on,,,,,92,0,1,,,,0,45,94
380674,note_on,,,,,2,0,1,,,,0,38,80
380678,note_on,,,,,4,0,1,,,,0,33,83
380680,note_on,,,,,2,0,1,,,,0,86,95
380680,note_on,,,,,0,0,1,,,,0,74,92
380682,note_on,,,,,2,0,1,,,,0,36,65
380714,note_off,,,,,32,0,1,,,,0,74,64
380724,note_off,,,,,10,0,1,,,,0,86,64
380822,note_on,,,,,98,0,1,,,,0,85,87
380824,note_on,,,,,2,0,1,,,,0,73,89
380856,note_off,,,,,32,0,1,,,,0,73,64
380856,note_off,,,,,0,0,1,,,,0,85,64
380932,note_off,,,,,76,0,1,,,,0,33,64
380944,note_on,,,,,12,0,1,,,,0,84,82
380944,note_on,,,,,0,0,1,,,,0,72,86
380946,note_off,,,,,0,0,1,,,,0,38,64
380946,note_off,,,,,2,0,1,,,,0,36,64
380962,note_off,,,,,16,0,1,,,,0,42,64
380962,note_off,,,,,0,0,1,,,,0,45,64
380970,note_off,,,,,8,0,1,,,,0,84,64
380976,note_off,,,,,6,0,1,,,,0,72,64
381062,note_on,,,,,86,0,1,,,,0,71,82
381064,note_on,,,,,2,0,1,,,,0,83,85
381088,note_off,,,,,0,0,1,,,,0,71,64
381088,note_off,,,,,24,0,1,,,,0,83,64
381186,note_on,,,,,0,0,1,,,,0,70,86
381186,note_on,,,,,98,0,1,,,,0,82,85
381216,note_off,,,,,30,0,1,,,,0,70,64
381216,note_off,,,,,0,0,1,,,,0,82,64
381306,note_on,,,,,0,0,1,,,,0,54,80
381306,note_on,,,,,90,0,1,,,,0,69,90
381308,note_on,,,,,2,0,1,,,,0,81,88
381308,note_on,,,,,0,0,1,,,,0,62,71
381312,note_on,,,,,4,0,1,,,,0,60,77
381338,note_off,,,,,26,0,1,,,,0,81,64
381340,note_off,,,,,2,0,1,,,,0,69,64
381342,note_off,,,,,2,0,1,,,,0,62,64
381352,note_off,,,,,10,0,1,,,,0,54,64
381356,note_off,,,,,4,0,1,,,,0,60,64
381426,note_on,,,,,70,0,1,,,,0,60,75
381430,note_on,,,,,4,0,1,,,,0,62,79
381430,note_on,,,,,0,0,1,,,,0,54,79
381432,note_on,,,,,0,0,1,,,,0,68,92
381432,note_on,,,,,2,0,1,,,,0,80,88
381464,note_off,,,,,32,0,1,,,,0,62,64
381466,note_off,,,,,2,0,1,,,,0,68,64
381470,note_off,,,,,4,0,1,,,,0,80,64
381472,note_off,,,,,2,0,1,,,,0,60,64
381478,note_off,,,,,6,0,1,,,,0,54,64
381560,note_on,,,,,0,0,1,,,,0,67,79
381560,note_on,,,,,82,0,1,,,,0,79,84
381584,note_off,,,,,24,0,1,,,,0,67,64
381586,note_off,,,,,2,0,1,,,,0,79,64
381682,note_on,,,,,96,0,1,,,,0,57,82
381684,note_on,,,,,0,0,1,,,,0,48,81
381684,note_on,,,,,2,0,1,,,,0,78,86
381684,note_on,,,,,0,0,1,,,,0,66,89
381686,note_on,,,,,2,0,1,,,,0,50,77
381714,note_off,,,,,28,0,1,,,,0,48,64
381716,note_off,,,,,2,0,1,,,,0,66,64
381718,note_off,,,,,2,0,1,,,,0,57,64
381720,note_off,,,,,2,0,1,,,,0,78,64
381732,note_off,,,,,12,0,1,,,,0,50,64
381802,note_on,,,,,70,0,1,,,,0,50,72
381804,note_on,,,,,2,0,1,,,,0,57,76
381804,note_on,,,,,0,0,1,,,,0,48,77
381810,note_on,,,,,6,0,1,,,,0,65,91
381812,note_on,,,,,2,0,1,,,,0,77,83
381830,note_off,,,,,18,0,1,,,,0,57,64
381844,note_off,,,,,14,0,1,,,,0,65,64
381846,note_off,,,,,0,0,1,,,,0,48,64
381846,note_off,,,,,2,0,1,,,,0,77,64
381848,note_off,,,,,2,0,1,,,,0,50,64
381932,note_on,,,,,84,0,1,,,,0,76,81
381932,note_on,,,,,0,0,1,,,,0,64,84
381960,note_off,,,,,28,0,1,,,,0,64,64
381964,note_off,,,,,4,0,1,,,,0,76,64
382054,note_on,,,,,90,0,1,,,,0,63,90
382056,note_on,,,,,0,0,1,,,,0,42,68
382056,note_on,,,,,2,0,1,,,,0,75,88
382058,note_on,,,,,2,0,1,,,,0,50,71
382060,note_on,,,,,2,0,1,,,,0,45,77
382088,note_off,,,,,28,0,1,,,,0,50,64
382090,note_off,,,,,2,0,1,,,,0,45,64
382090,note_off,,,,,0,0,1,,,,0,63,64
382092,note_off,,,,,2,0,1,,,,0,75,64
382104,note_off,,,,,12,0,1,,,,0,42,64
382174,note_on,,,,,70,0,1,,,,0,50,84
382176,note_on,,,,,2,0,1,,,,0,45,82
382176,note_on,,,,,0,0,1,,,,0,42,78
382182,note_on,,,,,6,0,1,,,,0,62,87
382184,note_on,,,,,2,0,1,,,,0,74,84
382204,note_off,,,,,20,0,1,,,,0,45,64
382208,note_off,,,,,4,0,1,,,,0,50,64
382214,note_off,,,,,6,0,1,,,,0,62,64
382216,note_off,,,,,2,0,1,,,,0,74,64
382224,note_off,,,,,8,0,1,,,,0,42,64
382304,note_on,,,,,80,0,1,,,,0,73,82
382304,note_on,,,,,0,0,1,,,,0,61,90
382334,note_off,,,,,30,0,1,,,,0,61,64
382336,note_off,,,,,2,0,1,,,,0,73,64
382430,note_on,,,,,94,0,1,,,,0,72,67
382432,note_on,,,,,2,0,1,,,,0,60,65
382460,note_off,,,,,28,0,1,,,,0,60,64
382462,note_off,,,,,2,0,1,,,,0,72,64
382560,note_on,,,,,98,0,1,,,,0,33,77
382564,note_on,,,,,0,0,1,,,,0,63,95
382564,note_on,,,,,4,0,1,,,,0,71,91
382566,note_on,,,,,2,0,1,,,,0,59,92
382566,note_on,,,,,0,0,1,,,,0,35,74
382568,note_on,,,,,0,0,1,,,,0,42,71
382568,note_on,,,,,2,0,1,,,,0,45,71
382568,note_on,,,,,0,0,1,,,,0,39,74
382610,control_change,,,,,42,0,1,,64,0,0,,
382628,note_off,,,,,18,0,1,,,,0,59,64
382646,note_off,,,,,18,0,1,,,,0,71,64
382682,note_off,,,,,36,0,1,,,,0,63,64
382684,control_change,,,,,2,0,1,,64,127,0,,
382712,note_on,,,,,28,0,1,,,,0,58,92
382714,note_on,,,,,2,0,1,,,,0,70,87
382736,note_off,,,,,0,0,1,,,,0,35,64
382736,note_off,,,,,22,0,1,,,,0,42,64
382738,note_off,,,,,2,0,1,,,,0,39,64
382740,note_off,,,,,2,0,1,,,,0,45,64
382742,note_off,,,,,2,0,1,,,,0,58,64
382744,note_off,,,,,0,0,1,,,,0,33,64
382744,note_off,,,,,2,0,1,,,,0,70,64
382830,note_on,,,,,86,0,1,,,,0,59,90
382832,note_on,,,,,2,0,1,,,,0,71,87
382852,note_off,,,,,20,0,1,,,,0,59,64
382858,note_off,,,,,6,0,1,,,,0,71,64
382948,note_on,,,,,0,0,1,,,,0,35,66
382948,note_on,,,,,90,0,1,,,,0,42,79
382950,note_on,,,,,2,0,1,,,,0,45,82
382952,note_on,,,,,2,0,1,,,,0,39,71
382952,note_on,,,,,0,0,1,,,,0,33,78
382958,note_on,,,,,6,0,1,,,,0,63,101
382960,note_on,,,,,2,0,1,,,,0,75,95
382992,note_off,,,,,32,0,1,,,,0,63,64
382996,note_off,,,,,4,0,1,,,,0,75,64
382998,control_change,,,,,2,0,1,,64,0,0,,
383006,control_change,,,,,8,0,1,,64,127,0,,
383088,note_on,,,,,82,0,1,,,,0,66,92
383090,note_on,,,,,2,0,1,,,,0,78,91
383118,note_off,,,,,28,0,1,,,,0,66,64
383124,note_off,,,,,6,0,1,,,,0,78,64
383214,note_on,,,,,90,0,1,,,,0,69,94
383216,note_on,,,,,2,0,1,,,,0,81,93
383236,note_off,,,,,20,0,1,,,,0,69,64
383242,note_off,,,,,6,0,1,,,,0,81,64
383342,note_on,,,,,100,0,1,,,,0,82,91
383344,note_on,,,,,2,0,1,,,,0,70,95
383370,note_off,,,,,26,0,1,,,,0,70,64
383374,note_off,,,,,4,0,1,,,,0,82,64
383468,note_on,,,,,94,0,1,,,,0,83,90
383468,note_on,,,,,0,0,1,,,,0,71,91
383490,note_off,,,,,22,0,1,,,,0,71,64
383494,note_off,,,,,4,0,1,,,,0,83,64
383540,note_off,,,,,46,0,1,,,,0,39,64
383544,note_off,,,,,4,0,1,,,,0,42,64
383544,note_off,,,,,0,0,1,,,,0,45,64
383550,note_off,,,,,6,0,1,,,,0,33,64
383552,note_off,,,,,2,0,1,,,,0,35,64
383588,note_on,,,,,36,0,1,,,,0,84,88
383588,note_on,,,,,0,0,1,,,,0,72,91
383616,note_off,,,,,28,0,1,,,,0,72,64
383618,note_off,,,,,2,0,1,,,,0,84,64
383710,note_on,,,,,92,0,1,,,,0,42,88
383712,note_on,,,,,0,0,1,,,,0,35,71
383712,note_on,,,,,2,0,1,,,,0,45,83
383714,note_on,,,,,2,0,1,,,,0,71,93
383716,note_on,,,,,2,0,1,,,,0,83,91
383716,note_on,,,,,0,0,1,,,,0,33,76
383722,note_on,,,,,6,0,1,,,,0,39,76
383746,note_off,,,,,24,0,1,,,,0,71,64
383750,note_off,,,,,4,0,1,,,,0,83,64
383764,control_change,,,,,14,0,1,,64,0,0,,
383780,control_change,,,,,16,0,1,,64,127,0,,
383852,note_on,,,,,72,0,1,,,,0,70,91
383854,note_on,,,,,2,0,1,,,,0,82,87
383886,note_off,,,,,32,0,1,,,,0,82,64
383886,note_off,,,,,0,0,1,,,,0,70,64
383974,note_on,,,,,88,0,1,,,,0,81,88
383974,note_on,,,,,0,0,1,,,,0,69,86
383998,note_off,,,,,24,0,1,,,,0,81,64
384000,note_off,,,,,2,0,1,,,,0,69,64
384096,note_on,,,,,96,0,1,,,,0,68,95
384098,note_on,,,,,2,0,1,,,,0,80,87
384124,note_off,,,,,0,0,1,,,,0,68,64
384124,note_off,,,,,26,0,1,,,,0,80,64
384162,note_off,,,,,38,0,1,,,,0,35,64
384176,note_off,,,,,14,0,1,,,,0,39,64
384188,note_off,,,,,12,0,1,,,,0,42,64
384190,note_off,,,,,2,0,1,,,,0,33,64
384208,note_off,,,,,18,0,1,,,,0,45,64
384212,note_on,,,,,4,0,1,,,,0,79,86
384212,note_on,,,,,0,0,1,,,,0,67,83
384236,note_off,,,,,24,0,1,,,,0,79,64
384238,note_off,,,,,2,0,1,,,,0,67,64
384338,note_on,,,,,100,0,1,,,,0,66,92
384340,note_on,,,,,2,0,1,,,,0,78,85
384368,note_off,,,,,28,0,1,,,,0,78,64
384368,note_off,,,,,0,0,1,,,,0,66,64
384464,note_on,,,,,96,0,1,,,,0,45,95
384464,note_on,,,,,0,0,1,,,,0,33,84
384466,note_on,,,,,2,0,1,,,,0,41,77
384468,note_on,,,,,2,0,1,,,,0,36,73
384470,note_on,,,,,2,0,1,,,,0,65,100
384476,note_on,,,,,6,0,1,,,,0,77,91
384504,control_change,,,,,28,0,1,,64,0,0,,
384540,control_change,,,,,36,0,1,,64,127,0,,
384558,note_off,,,,,18,0,1,,,,0,77,64
384564,note_off,,,,,6,0,1,,,,0,65,64
384620,note_on,,,,,0,0,1,,,,0,64,90
384620,note_on,,,,,56,0,1,,,,0,76,80
384646,note_off,,,,,26,0,1,,,,0,76,64
384650,note_off,,,,,4,0,1,,,,0,64,64
384708,note_off,,,,,58,0,1,,,,0,41,64
384736,note_off,,,,,28,0,1,,,,0,33,64
384736,note_on,,,,,0,0,1,,,,0,63,90
384738,note_on,,,,,2,0,1,,,,0,75,86
384742,note_off,,,,,4,0,1,,,,0,36,64
384756,note_off,,,,,14,0,1,,,,0,45,64
384770,note_off,,,,,0,0,1,,,,0,63,64
384770,note_off,,,,,14,0,1,,,,0,75,64
384856,note_on,,,,,86,0,1,,,,0,42,83
384860,note_on,,,,,4,0,1,,,,0,62,97
384860,note_on,,,,,0,0,1,,,,0,38,76
384862,note_on,,,,,0,0,1,,,,0,45,94
384862,note_on,,,,,2,0,1,,,,0,74,86
384864,note_on,,,,,2,0,1,,,,0,33,87
384898,note_off,,,,,34,0,1,,,,0,62,64
384906,note_off,,,,,8,0,1,,,,0,74,64
384932,control_change,,,,,26,0,1,,64,0,0,,
384944,control_change,,,,,12,0,1,,64,127,0,,
384992,note_on,,,,,48,0,1,,,,0,61,89
384994,note_on,,,,,2,0,1,,,,0,73,86
385024,note_off,,,,,30,0,1,,,,0,73,64
385026,note_off,,,,,2,0,1,,,,0,61,64
385066,note_off,,,,,40,0,1,,,,0,38,64
385094,note_off,,,,,28,0,1,,,,0,45,64
385102,note_off,,,,,8,0,1,,,,0,42,64
385104,note_off,,,,,2,0,1,,,,0,33,64
385108,note_on,,,,,4,0,1,,,,0,60,82
385112,note_on,,,,,4,0,1,,,,0,72,82
385144,note_off,,,,,0,0,1,,,,0,60,64
385144,note_off,,,,,32,0,1,,,,0,72,64
385240,note_on,,,,,96,0,1,,,,0,45,102
385240,note_on,,,,,0,0,1,,,,0,39,89
385242,note_on,,,,,2,0,1,,,,0,42,85
385244,note_on,,,,,2,0,1,,,,0,71,92
385244,note_on,,,,,0,0,1,,,,0,33,87
385248,note_on,,,,,4,0,1,,,,0,59,94
385290,control_change,,,,,42,0,1,,64,0,0,,
385300,note_off,,,,,10,0,1,,,,0,71,64
385304,note_off,,,,,4,0,1,,,,0,59,64
385312,control_change,,,,,8,0,1,,64,127,0,,
385382,note_on,,,,,70,0,1,,,,0,70,81
385384,note_on,,,,,2,0,1,,,,0,58,84
385422,note_off,,,,,38,0,1,,,,0,58,64
385424,note_off,,,,,2,0,1,,,,0,70,64
385504,note_on,,,,,0,0,1,,,,0,57,86
385504,note_on,,,,,80,0,1,,,,0,69,86
385536,note_off,,,,,32,0,1,,,,0,57,64
385536,note_off,,,,,0,0,1,,,,0,69,64
385626,note_on,,,,,0,0,1,,,,0,56,95
385626,note_on,,,,,90,0,1,,,,0,68,84
385660,note_off,,,,,34,0,1,,,,0,56,64
385662,note_off,,,,,2,0,1,,,,0,68,64
385744,note_on,,,,,82,0,1,,,,0,67,80
385744,note_on,,,,,0,0,1,,,,0,55,79
385768,note_off,,,,,24,0,1,,,,0,67,64
385770,note_off,,,,,2,0,1,,,,0,55,64
385840,note_off,,,,,0,0,1,,,,0,39,64
385840,note_off,,,,,70,0,1,,,,0,42,64
385850,note_off,,,,,10,0,1,,,,0,33,64
385850,note_off,,,,,0,0,1,,,,0,45,64
385868,note_on,,,,,18,0,1,,,,0,54,89
385872,note_on,,,,,4,0,1,,,,0,66,81
385900,note_off,,,,,28,0,1,,,,0,54,64
385904,note_off,,,,,4,0,1,,,,0,66,64
385988,note_on,,,,,84,0,1,,,,0,41,85
385990,note_on,,,,,2,0,1,,,,0,45,92
385994,note_on,,,,,0,0,1,,,,0,33,79
385994,note_on,,,,,4,0,1,,,,0,36,72
385996,note_on,,,,,2,0,1,,,,0,65,93
385996,note_on,,,,,0,0,1,,,,0,53,100
386020,control_change,,,,,24,0,1,,64,0,0,,
386070,note_off,,,,,50,0,1,,,,0,65,64
386076,control_change,,,,,6,0,1,,64,127,0,,
386078,note_off,,,,,2,0,1,,,,0,53,64
386132,note_on,,,,,0,0,1,,,,0,52,92
386132,note_on,,,,,54,0,1,,,,0,64,90
386160,note_off,,,,,28,0,1,,,,0,64,64
386164,note_off,,,,,4,0,1,,,,0,52,64
386178,note_off,,,,,14,0,1,,,,0,33,64
386190,note_off,,,,,12,0,1,,,,0,41,64
386192,note_off,,,,,2,0,1,,,,0,36,64
386206,note_off,,,,,14,0,1,,,,0,45,64
386254,note_on,,,,,48,0,1,,,,0,51,97
386256,note_on,,,,,2,0,1,,,,0,63,91
386288,note_off,,,,,32,0,1,,,,0,51,64
386292,note_off,,,,,4,0,1,,,,0,63,64
386366,note_on,,,,,74,0,1,,,,0,42,85
386370,note_on,,,,,4,0,1,,,,0,45,91
386370,note_on,,,,,0,0,1,,,,0,33,86
386372,note_on,,,,,2,0,1,,,,0,38,70
386376,note_on,,,,,4,0,1,,,,0,50,97
386378,note_on,,,,,2,0,1,,,,0,62,90
386404,control_change,,,,,26,0,1,,64,0,0,,
386432,note_off,,,,,28,0,1,,,,0,62,64
386436,note_off,,,,,4,0,1,,,,0,50,64
386462,control_change,,,,,26,0,1,,64,127,0,,
386512,note_on,,,,,50,0,1,,,,0,49,91
386514,note_on,,,,,2,0,1,,,,0,61,87
386550,note_off,,,,,36,0,1,,,,0,49,64
386556,note_off,,,,,6,0,1,,,,0,61,64
386580,note_off,,,,,24,0,1,,,,0,38,64
386602,note_off,,,,,22,0,1,,,,0,33,64
386604,note_off,,,,,2,0,1,,,,0,42,64
386608,note_off,,,,,4,0,1,,,,0,45,64
386630,note_on,,,,,22,0,1,,,,0,48,85
386632,note_on,,,,,2,0,1,,,,0,60,77
386668,note_off,,,,,36,0,1,,,,0,48,64
386670,note_off,,,,,2,0,1,,,,0,60,64
386754,note_on,,,,,84,0,1,,,,0,45,98
386756,note_on,,,,,2,0,1,,,,0,42,87
386756,note_on,,,,,0,0,1,,,,0,39,84
386760,note_on,,,,,4,0,1,,,,0,59,93
386760,note_on,,,,,0,0,1,,,,0,47,95
386764,note_on,,,,,4,0,1,,,,0,33,90
386798,control_change,,,,,34,0,1,,64,0,0,,
386856,control_change,,,,,58,0,1,,64,127,0,,
386872,note_off,,,,,16,0,1,,,,0,47,64
386900,note_on,,,,,28,0,1,,,,0,58,98
386920,note_off,,,,,20,0,1,,,,0,59,64
386946,note_off,,,,,26,0,1,,,,0,58,64
387012,note_on,,,,,66,0,1,,,,0,57,92
387064,note_off,,,,,52,0,1,,,,0,57,64
387146,note_on,,,,,82,0,1,,,,0,56,100
387194,note_off,,,,,48,0,1,,,,0,56,64
387270,note_on,,,,,76,0,1,,,,0,55,88
387308,note_off,,,,,38,0,1,,,,0,55,64
387394,note_on,,,,,86,0,1,,,,0,54,92
387410,note_off,,,,,16,0,1,,,,0,39,64
387410,note_off,,,,,0,0,1,,,,0,42,64
387416,note_off,,,,,6,0,1,,,,0,33,64
387426,note_off,,,,,10,0,1,,,,0,45,64
387436,note_off,,,,,10,0,1,,,,0,54,64
387516,note_on,,,,,80,0,1,,,,0,53,97
387520,note_on,,,,,0,0,1,,,,0,41,90
387520,note_on,,,,,4,0,1,,,,0,48,97
387524,note_on,,,,,0,0,1,,,,0,36,77
387524,note_on,,,,,4,0,1,,,,0,45,93
387528,note_on,,,,,4,0,1,,,,0,33,80
387556,control_change,,,,,28,0,1,,64,0,0,,
387626,control_change,,,,,70,0,1,,64,127,0,,
387640,note_on,,,,,14,0,1,,,,0,52,84
387670,note_off,,,,,30,0,1,,,,0,48,64
387672,note_off,,,,,2,0,1,,,,0,53,64
387706,note_off,,,,,34,0,1,,,,0,52,64
387712,note_off,,,,,6,0,1,,,,0,33,64
387726,note_off,,,,,14,0,1,,,,0,41,64
387728,note_off,,,,,2,0,1,,,,0,36,64
387736,note_off,,,,,8,0,1,,,,0,45,64
387768,note_on,,,,,32,0,1,,,,0,51,93
387816,note_off,,,,,48,0,1,,,,0,51,64
387886,note_on,,,,,70,0,1,,,,0,50,91
387890,note_on,,,,,4,0,1,,,,0,48,93
387892,note_on,,,,,2,0,1,,,,0,45,90
387892,note_on,,,,,0,0,1,,,,0,42,86
387894,note_on,,,,,2,0,1,,,,0,38,78
387898,note_on,,,,,4,0,1,,,,0,33,80
387940,control_change,,,,,42,0,1,,64,0,0,,
387970,note_off,,,,,30,0,1,,,,0,48,64
388006,control_change,,,,,36,0,1,,64,127,0,,
388014,note_on,,,,,8,0,1,,,,0,49,96
388026,note_off,,,,,12,0,1,,,,0,50,64
388062,note_off,,,,,36,0,1,,,,0,49,64
388072,note_off,,,,,10,0,1,,,,0,38,64
388090,note_off,,,,,18,0,1,,,,0,33,64
388092,note_off,,,,,2,0,1,,,,0,45,64
388096,note_off,,,,,4,0,1,,,,0,42,64
388138,note_on,,,,,42,0,1,,,,0,48,94
388178,note_off,,,,,40,0,1,,,,0,48,64
388260,note_on,,,,,0,0,1,,,,0,39,89
388260,note_on,,,,,82,0,1,,,,0,47,97
388260,note_on,,,,,0,0,1,,,,0,45,95
388262,note_on,,,,,2,0,1,,,,0,42,83
388268,note_on,,,,,6,0,1,,,,0,33,87
388292,control_change,,,,,24,0,1,,64,0,0,,
388310,note_off,,,,,18,0,1,,,,0,47,64
388364,control_change,,,,,54,0,1,,64,127,0,,
388390,note_on,,,,,26,0,1,,,,0,47,94
388434,note_off,,,,,44,0,1,,,,0,47,64
388454,note_off,,,,,20,0,1,,,,0,42,64
388458,note_off,,,,,4,0,1,,,,0,33,64
388460,note_off,,,,,2,0,1,,,,0,39,64
388468,note_off,,,,,8,0,1,,,,0,45,64
388510,note_on,,,,,42,0,1,,,,0,47,91
388560,note_off,,,,,50,0,1,,,,0,47,64
388628,note_on,,,,,0,0,1,,,,0,41,86
388628,note_on,,,,,68,0,1,,,,0,45,93
388630,note_on,,,,,2,0,1,,,,0,36,76
388632,note_on,,,,,2,0,1,,,,0,33,81
388636,note_on,,,,,0,0,1,,,,0,48,100
388636,note_on,,,,,4,0,1,,,,0,53,91
388664,note_off,,,,,28,0,1,,,,0,48,64
388670,control_change,,,,,6,0,1,,64,0,0,,
388740,control_change,,,,,70,0,1,,64,127,0,,
388752,note_on,,,,,12,0,1,,,,0,52,82
388784,note_off,,,,,32,0,1,,,,0,53,64
388804,note_off,,,,,20,0,1,,,,0,33,64
388812,note_off,,,,,8,0,1,,,,0,52,64
388820,note_off,,,,,0,0,1,,,,0,41,64
388820,note_off,,,,,8,0,1,,,,0,36,64
388832,note_off,,,,,12,0,1,,,,0,45,64
388884,note_on,,,,,52,0,1,,,,0,51,92
388930,note_off,,,,,46,0,1,,,,0,51,64
389002,note_on,,,,,72,0,1,,,,0,45,92
389004,note_on,,,,,2,0,1,,,,0,42,81
389008,note_on,,,,,0,0,1,,,,0,48,93
389008,note_on,,,,,4,0,1,,,,0,50,92
389010,note_on,,,,,2,0,1,,,,0,38,76
389010,note_on,,,,,0,0,1,,,,0,33,82
389044,control_change,,,,,34,0,1,,64,0,0,,
389112,control_change,,,,,68,0,1,,64,127,0,,
389118,note_off,,,,,6,0,1,,,,0,48,64
389128,note_on,,,,,10,0,1,,,,0,49,94
389148,note_off,,,,,20,0,1,,,,0,50,64
389184,note_off,,,,,36,0,1,,,,0,33,64
389186,note_off,,,,,2,0,1,,,,0,38,64
389188,note_off,,,,,2,0,1,,,,0,49,64
389194,note_off,,,,,6,0,1,,,,0,45,64
389200,note_off,,,,,6,0,1,,,,0,42,64
389254,note_on,,,,,54,0,1,,,,0,48,93
389294,note_off,,,,,40,0,1,,,,0,48,64
389378,note_on,,,,,0,0,1,,,,0,39,86
389378,note_on,,,,,84,0,1,,,,0,45,93
389380,note_on,,,,,0,0,1,,,,0,42,80
389380,note_on,,,,,2,0,1,,,,0,47,102
389384,note_on,,,,,4,0,1,,,,0,33,82
389410,control_change,,,,,26,0,1,,64,0,0,,
389440,note_off,,,,,30,0,1,,,,0,47,64
389478,control_change,,,,,38,0,1,,64,127,0,,
389508,note_on,,,,,30,0,1,,,,0,47,92
389552,note_off,,,,,44,0,1,,,,0,47,64
389584,note_off,,,,,32,0,1,,,,0,33,64
389590,note_off,,,,,6,0,1,,,,0,42,64
389596,note_off,,,,,0,0,1,,,,0,45,64
389596,note_off,,,,,6,0,1,,,,0,39,64
389632,note_on,,,,,36,0,1,,,,0,47,92
389678,note_off,,,,,46,0,1,,,,0,47,64
389752,note_on,,,,,74,0,1,,,,0,48,93
389752,note_on,,,,,0,0,1,,,,0,45,91
389754,note_on,,,,,2,0,1,,,,0,53,94
389754,note_on,,,,,0,0,1,,,,0,36,76
389756,note_on,,,,,2,0,1,,,,0,33,80
389760,note_on,,,,,4,0,1,,,,0,41,78
389798,control_change,,,,,38,0,1,,64,0,0,,
389868,control_change,,,,,70,0,1,,64,127,0,,
389886,note_on,,,,,18,0,1,,,,0,52,83
389898,note_off,,,,,12,0,1,,,,0,53,64
389914,note_off,,,,,16,0,1,,,,0,48,64
389948,note_off,,,,,34,0,1,,,,0,52,64
389952,note_off,,,,,4,0,1,,,,0,33,64
389956,note_off,,,,,4,0,1,,,,0,41,64
389966,note_off,,,,,10,0,1,,,,0,36,64
389980,note_off,,,,,14,0,1,,,,0,45,64
390010,note_on,,,,,30,0,1,,,,0,51,90
390060,note_off,,,,,50,0,1,,,,0,51,64
390124,note_on,,,,,0,0,1,,,,0,42,78
390124,note_on,,,,,64,0,1,,,,0,45,90
390126,note_on,,,,,2,0,1,,,,0,38,74
390128,note_on,,,,,2,0,1,,,,0,50,86
390128,note_on,,,,,0,0,1,,,,0,33,81
390128,note_on,,,,,0,0,1,,,,0,48,91
390174,control_change,,,,,46,0,1,,64,0,0,,
390238,control_change,,,,,64,0,1,,64,127,0,,
390248,note_off,,,,,10,0,1,,,,0,48,64
390252,note_on,,,,,4,0,1,,,,0,49,92
390270,note_off,,,,,18,0,1,,,,0,50,64
390300,note_off,,,,,30,0,1,,,,0,38,64
390314,note_off,,,,,14,0,1,,,,0,49,64
390320,note_off,,,,,6,0,1,,,,0,45,64
390324,note_off,,,,,4,0,1,,,,0,33,64
390330,note_off,,,,,6,0,1,,,,0,42,64
390380,note_on,,,,,50,0,1,,,,0,48,92
390426,note_off,,,,,46,0,1,,,,0,48,64
390504,control_change,,,,,78,0,1,,64,0,0,,
390506,note_on,,,,,2,0,1,,,,0,45,95
390506,note_on,,,,,0,0,1,,,,0,39,84
390508,note_on,,,,,2,0,1,,,,0,47,100
390508,note_on,,,,,0,0,1,,,,0,33,87
390510,note_on,,,,,2,0,1,,,,0,42,81
390570,control_change,,,,,60,0,1,,64,127,0,,
390576,note_off,,,,,6,0,1,,,,0,47,64
390620,note_off,,,,,44,0,1,,,,0,33,64
390626,note_off,,,,,6,0,1,,,,0,45,64
390642,note_on,,,,,0,0,1,,,,0,47,90
390642,note_off,,,,,16,0,1,,,,0,42,64
390644,note_off,,,,,2,0,1,,,,0,39,64
390692,note_off,,,,,48,0,1,,,,0,47,64
390720,set_tempo,,,,,15840,1,0,337079,,,,,
390724,set_tempo,,,,,4,1,0,340909,,,,,
390744,set_tempo,,,,,20,1,0,342857,,,,,
390760,set_tempo,,,,,16,1,0,344828,,,,,
390762,note_on,,,,,70,0,1,,,,0,47,91
390780,set_tempo,,,,,20,1,0,346821,,,,,
390796,set_tempo,,,,,16,1,0,348837,,,,,
390802,note_off,,,,,40,0,1,,,,0,47,64
390810,note_on,,,,,8,0,1,,,,0,63,80
390816,set_tempo,,,,,20,1,0,350877,,,,,
390824,note_off,,,,,14,0,1,,,,0,63,64
390852,set_tempo,,,,,36,1,0,352941,,,,,
390866,note_on,,,,,42,0,1,,,,0,63,110
390872,note_on,,,,,6,0,1,,,,0,47,91
390872,set_tempo,,,,,20,1,0,355030,,,,,
390888,set_tempo,,,,,16,1,0,357143,,,,,
390908,set_tempo,,,,,20,1,0,361446,,,,,
390920,note_off,,,,,48,0,1,,,,0,47,64
390928,set_tempo,,,,,20,1,0,363636,,,,,
390944,set_tempo,,,,,16,1,0,365854,,,,,
390964,set_tempo,,,,,20,1,0,368098,,,,,
390980,set_tempo,,,,,16,1,0,370370,,,,,
391006,note_on,,,,,86,0,1,,,,0,47,83
391044,note_off,,,,,38,0,1,,,,0,47,64
391122,note_on,,,,,78,0,1,,,,0,47,82
391156,note_off,,,,,34,0,1,,,,0,63,64
391164,note_off,,,,,8,0,1,,,,0,47,64
391240,note_on,,,,,76,0,1,,,,0,47,83
391284,note_off,,,,,44,0,1,,,,0,47,64
391356,note_on,,,,,72,0,1,,,,0,47,84
391400,note_off,,,,,44,0,1,,,,0,47,64
391476,note_on,,,,,76,0,1,,,,0,47,85
391512,note_off,,,,,36,0,1,,,,0,47,64
391598,note_on,,,,,86,0,1,,,,0,47,88
391636,note_off,,,,,38,0,1,,,,0,47,64
391718,note_on,,,,,82,0,1,,,,0,47,85
391754,note_off,,,,,36,0,1,,,,0,47,64
391830,note_on,,,,,76,0,1,,,,0,47,74
391872,note_off,,,,,42,0,1,,,,0,47,64
391956,note_on,,,,,0,0,1,,,,0,47,90
391956,note_on,,,,,84,0,1,,,,0,51,91
391956,note_on,,,,,0,0,1,,,,0,42,79
391958,note_on,,,,,2,0,1,,,,0,39,69
391960,note_on,,,,,2,0,1,,,,0,30,79
391964,note_on,,,,,4,0,1,,,,0,35,74
391992,control_change,,,,,28,0,1,,64,0,0,,
392050,note_off,,,,,58,0,1,,,,0,47,64
392052,control_change,,,,,2,0,1,,64,127,0,,
392062,note_off,,,,,10,0,1,,,,0,51,64
392078,note_off,,,,,16,0,1,,,,0,30,64
392082,note_on,,,,,4,0,1,,,,0,47,79
392092,note_off,,,,,10,0,1,,,,0,35,64
392096,note_off,,,,,4,0,1,,,,0,42,64
392100,note_off,,,,,4,0,1,,,,0,39,64
392134,note_off,,,,,34,0,1,,,,0,47,64
392204,note_on,,,,,70,0,1,,,,0,51,85
392206,note_on,,,,,2,0,1,,,,0,47,79
392238,note_off,,,,,32,0,1,,,,0,47,64
392252,note_off,,,,,14,0,1,,,,0,51,64
392268,note_on,,,,,16,0,1,,,,0,66,84
392270,note_on,,,,,2,0,1,,,,0,63,74
392282,note_off,,,,,12,0,1,,,,0,66,64
392284,note_off,,,,,2,0,1,,,,0,63,64
392316,note_on,,,,,32,0,1,,,,0,47,87
392318,note_on,,,,,2,0,1,,,,0,66,94
392324,note_on,,,,,6,0,1,,,,0,63,85
392366,note_off,,,,,42,0,1,,,,0,47,64
392440,note_on,,,,,74,0,1,,,,0,51,77
392444,note_on,,,,,4,0,1,,,,0,47,74
392476,note_off,,,,,32,0,1,,,,0,47,64
392492,note_off,,,,,16,0,1,,,,0,51,64
392562,note_on,,,,,70,0,1,,,,0,47,81
392614,note_off,,,,,52,0,1,,,,0,47,64
392684,note_on,,,,,70,0,1,,,,0,51,81
392684,note_on,,,,,0,0,1,,,,0,47,81
392724,note_off,,,,,40,0,1,,,,0,47,64
392746,note_off,,,,,22,0,1,,,,0,51,64
392780,note_off,,,,,34,0,1,,,,0,66,64
392796,note_off,,,,,16,0,1,,,,0,63,64
392800,note_on,,,,,4,0,1,,,,0,47,79
392846,note_off,,,,,46,0,1,,,,0,47,64
392920,note_on,,,,,74,0,1,,,,0,51,81
392924,note_on,,,,,4,0,1,,,,0,47,77
392962,note_off,,,,,38,0,1,,,,0,47,64
392984,note_off,,,,,22,0,1,,,,0,51,64
393048,note_on,,,,,64,0,1,,,,0,47,80
393096,note_off,,,,,48,0,1,,,,0,47,64
393160,note_on,,,,,64,0,1,,,,0,47,79
393162,note_on,,,,,2,0,1,,,,0,51,72
393204,note_off,,,,,42,0,1,,,,0,47,64
393224,note_off,,,,,20,0,1,,,,0,51,64
393286,note_on,,,,,62,0,1,,,,0,47,82
393396,note_off,,,,,110,0,1,,,,0,47,64
393410,note_on,,,,,14,0,1,,,,0,42,79
393410,note_on,,,,,0,0,1,,,,0,30,82
393412,note_on,,,,,2,0,1,,,,0,39,72
393418,note_on,,,,,6,0,1,,,,0,35,75
393420,note_on,,,,,0,0,1,,,,0,51,84
393420,note_on,,,,,2,0,1,,,,0,54,83
393442,control_change,,,,,22,0,1,,64,0,0,,
393500,control_change,,,,,58,0,1,,64,127,0,,
393520,note_off,,,,,20,0,1,,,,0,51,64
393536,note_off,,,,,16,0,1,,,,0,30,64
393544,note_off,,,,,8,0,1,,,,0,54,64
393546,note_off,,,,,2,0,1,,,,0,35,64
393546,note_on,,,,,0,0,1,,,,0,47,79
393556,note_off,,,,,0,0,1,,,,0,42,64
393556,note_off,,,,,10,0,1,,,,0,39,64
393618,note_off,,,,,62,0,1,,,,0,47,64
393666,note_on,,,,,48,0,1,,,,0,54,69
393672,note_on,,,,,6,0,1,,,,0,51,69
393734,note_on,,,,,62,0,1,,,,0,66,58
393736,note_on,,,,,2,0,1,,,,0,71,49
393736,note_on,,,,,0,0,1,,,,0,63,50
393752,note_off,,,,,16,0,1,,,,0,71,64
393764,note_off,,,,,12,0,1,,,,0,66,64
393768,note_off,,,,,4,0,1,,,,0,63,64
393770,note_off,,,,,2,0,1,,,,0,51,64
393776,note_on,,,,,6,0,1,,,,0,47,68
393780,note_off,,,,,4,0,1,,,,0,54,64
393788,note_on,,,,,8,0,1,,,,0,71,85
393790,note_on,,,,,2,0,1,,,,0,66,81
393794,note_on,,,,,4,0,1,,,,0,63,87
393846,note_off,,,,,52,0,1,,,,0,47,64
393908,note_on,,,,,62,0,1,,,,0,54,70
393912,note_on,,,,,4,0,1,,,,0,51,68
393970,note_off,,,,,58,0,1,,,,0,51,64
393980,note_off,,,,,10,0,1,,,,0,54,64
394024,note_on,,,,,44,0,1,,,,0,47,71
394060,note_off,,,,,36,0,1,,,,0,63,64
394072,note_off,,,,,12,0,1,,,,0,66,64
394076,note_off,,,,,4,0,1,,,,0,71,64
394088,note_off,,,,,12,0,1,,,,0,47,64
394148,note_on,,,,,60,0,1,,,,0,54,72
394150,note_on,,,,,2,0,1,,,,0,51,68
394204,note_off,,,,,54,0,1,,,,0,51,64
394248,note_off,,,,,44,0,1,,,,0,54,64
394264,note_on,,,,,16,0,1,,,,0,47,69
394334,note_off,,,,,70,0,1,,,,0,47,64
394378,note_on,,,,,44,0,1,,,,0,54,66
394386,note_on,,,,,8,0,1,,,,0,51,59
394440,note_on,,,,,54,0,1,,,,0,75,74
394440,note_on,,,,,0,0,1,,,,0,63,67
394446,note_on,,,,,6,0,1,,,,0,71,71
394446,note_on,,,,,0,0,1,,,,0,66,69
394458,note_off,,,,,12,0,1,,,,0,71,64
394464,note_off,,,,,6,0,1,,,,0,63,64
394464,note_off,,,,,0,0,1,,,,0,75,64
394478,note_off,,,,,14,0,1,,,,0,66,64
394480,note_off,,,,,2,0,1,,,,0,51,64
394492,note_off,,,,,12,0,1,,,,0,54,64
394500,note_on,,,,,0,0,1,,,,0,71,76
394500,note_on,,,,,0,0,1,,,,0,63,65
394500,note_on,,,,,8,0,1,,,,0,75,77
394504,note_on,,,,,4,0,1,,,,0,66,70
394506,note_on,,,,,2,0,1,,,,0,47,80
394582,note_off,,,,,76,0,1,,,,0,47,64
394624,note_on,,,,,42,0,1,,,,0,54,65
394632,note_on,,,,,8,0,1,,,,0,51,51
394686,note_off,,,,,54,0,1,,,,0,51,64
394696,note_off,,,,,10,0,1,,,,0,54,64
394738,note_on,,,,,42,0,1,,,,0,47,62
394816,note_off,,,,,78,0,1,,,,0,47,64
394854,note_on,,,,,38,0,1,,,,0,54,62
394858,note_on,,,,,4,0,1,,,,0,51,60
394914,note_off,,,,,56,0,1,,,,0,66,64
394924,note_off,,,,,10,0,1,,,,0,75,64
394928,note_off,,,,,4,0,1,,,,0,54,64
394932,note_off,,,,,4,0,1,,,,0,51,64
394932,note_off,,,,,0,0,1,,,,0,63,64
394934,note_off,,,,,2,0,1,,,,0,71,64
394978,note_on,,,,,44,0,1,,,,0,47,63
395042,note_off,,,,,64,0,1,,,,0,47,64
395084,note_on,,,,,42,0,1,,,,0,54,66
395094,note_on,,,,,10,0,1,,,,0,51,50
395138,note_on,,,,,44,0,1,,,,0,63,60
395144,note_on,,,,,6,0,1,,,,0,75,63
395144,note_on,,,,,0,0,1,,,,0,66,61
395144,note_on,,,,,0,0,1,,,,0,71,63
395158,note_off,,,,,14,0,1,,,,0,63,64
395160,note_off,,,,,2,0,1,,,,0,66,64
395160,note_off,,,,,0,0,1,,,,0,75,64
395160,note_off,,,,,0,0,1,,,,0,71,64
395196,note_on,,,,,36,0,1,,,,0,75,70
395196,note_on,,,,,0,0,1,,,,0,63,62
395200,note_on,,,,,0,0,1,,,,0,71,67
395200,note_off,,,,,4,0,1,,,,0,51,64
395202,note_on,,,,,2,0,1,,,,0,66,67
395210,note_on,,,,,8,0,1,,,,0,47,76
395222,note_off,,,,,12,0,1,,,,0,54,64
395300,note_off,,,,,78,0,1,,,,0,47,64
395334,note_on,,,,,34,0,1,,,,0,54,62
395338,note_on,,,,,4,0,1,,,,0,51,58
395392,note_off,,,,,54,0,1,,,,0,51,64
395404,note_off,,,,,12,0,1,,,,0,54,64
395448,note_on,,,,,44,0,1,,,,0,47,55
395518,note_off,,,,,70,0,1,,,,0,47,64
395572,note_on,,,,,54,0,1,,,,0,54,59
395578,note_on,,,,,6,0,1,,,,0,51,54
395644,note_off,,,,,66,0,1,,,,0,66,64
395656,note_off,,,,,12,0,1,,,,0,63,64
395658,note_off,,,,,2,0,1,,,,0,71,64
395660,note_off,,,,,0,0,1,,,,0,75,64
395660,note_off,,,,,2,0,1,,,,0,54,64
395672,note_off,,,,,12,0,1,,,,0,51,64
395696,note_on,,,,,24,0,1,,,,0,47,70
395764,note_off,,,,,68,0,1,,,,0,47,64
395796,note_on,,,,,32,0,1,,,,0,54,53
395808,note_on,,,,,12,0,1,,,,0,51,50
395840,note_on,,,,,32,0,1,,,,0,63,57
395848,note_on,,,,,0,0,1,,,,0,66,58
395848,note_on,,,,,0,0,1,,,,0,71,58
395848,note_on,,,,,8,0,1,,,,0,75,40
395856,note_off,,,,,8,0,1,,,,0,63,64
395860,note_off,,,,,4,0,1,,,,0,66,64
395864,note_off,,,,,4,0,1,,,,0,71,64
395864,note_off,,,,,0,0,1,,,,0,75,64
395906,note_on,,,,,42,0,1,,,,0,71,58
395910,note_on,,,,,4,0,1,,,,0,75,60
395912,note_on,,,,,2,0,1,,,,0,63,66
395914,note_on,,,,,0,0,1,,,,0,66,56
395914,note_off,,,,,2,0,1,,,,0,51,64
395920,note_on,,,,,6,0,1,,,,0,47,70
395930,note_off,,,,,10,0,1,,,,0,54,64
395998,note_off,,,,,68,0,1,,,,0,47,64
396044,note_on,,,,,46,0,1,,,,0,54,63
396052,note_on,,,,,8,0,1,,,,0,51,43
396098,note_off,,,,,46,0,1,,,,0,71,64
396100,note_off,,,,,2,0,1,,,,0,63,64
396108,note_off,,,,,8,0,1,,,,0,66,64
396110,note_off,,,,,2,0,1,,,,0,54,64
396112,note_off,,,,,2,0,1,,,,0,51,64
396114,note_off,,,,,2,0,1,,,,0,75,64
396150,note_on,,,,,36,0,1,,,,0,47,61
396236,note_off,,,,,86,0,1,,,,0,47,64
396272,note_on,,,,,36,0,1,,,,0,54,53
396282,note_on,,,,,10,0,1,,,,0,51,54
396348,note_off,,,,,66,0,1,,,,0,54,64
396376,note_off,,,,,28,0,1,,,,0,51,64
396402,note_on,,,,,26,0,1,,,,0,47,55
396434,note_off,,,,,32,0,1,,,,0,47,64
396512,note_on,,,,,78,0,1,,,,0,54,57
396516,note_on,,,,,4,0,1,,,,0,51,45
396624,note_off,,,,,108,0,1,,,,0,51,64
396628,note_on,,,,,4,0,1,,,,0,64,62
396630,note_on,,,,,2,0,1,,,,0,76,38
396630,note_on,,,,,0,0,1,,,,0,73,58
396632,note_on,,,,,2,0,1,,,,0,45,70
396638,note_on,,,,,6,0,1,,,,0,69,64
396672,control_change,,,,,34,0,1,,64,0,0,,
396752,note_off,,,,,80,0,1,,,,0,45,64
396760,note_on,,,,,8,0,1,,,,0,49,57
396764,note_on,,,,,4,0,1,,,,0,57,56
396768,control_change,,,,,4,0,1,,64,127,0,,
396780,note_off,,,,,12,0,1,,,,0,54,64
396848,note_off,,,,,68,0,1,,,,0,49,64
396872,note_on,,,,,24,0,1,,,,0,45,58
396906,note_off,,,,,34,0,1,,,,0,57,64
396932,note_off,,,,,26,0,1,,,,0,45,64
396996,note_on,,,,,64,0,1,,,,0,57,66
396996,note_on,,,,,0,0,1,,,,0,49,57
397028,note_off,,,,,32,0,1,,,,0,76,64
397028,note_off,,,,,0,0,1,,,,0,64,64
397044,note_off,,,,,16,0,1,,,,0,69,64
397048,note_off,,,,,4,0,1,,,,0,73,64
397098,note_off,,,,,50,0,1,,,,0,49,64
397112,note_on,,,,,14,0,1,,,,0,45,59
397124,note_off,,,,,12,0,1,,,,0,57,64
397174,note_off,,,,,50,0,1,,,,0,45,64
397232,note_on,,,,,58,0,1,,,,0,57,64
397236,note_on,,,,,4,0,1,,,,0,49,49
397344,note_off,,,,,108,0,1,,,,0,49,64
397346,note_on,,,,,2,0,1,,,,0,45,45
397368,note_off,,,,,22,0,1,,,,0,57,64
397406,note_off,,,,,38,0,1,,,,0,45,64
397460,note_on,,,,,0,0,1,,,,0,49,45
397460,note_on,,,,,54,0,1,,,,0,57,51
397562,note_off,,,,,102,0,1,,,,0,49,64
397574,note_on,,,,,12,0,1,,,,0,45,52
397606,note_off,,,,,32,0,1,,,,0,57,64
397632,note_off,,,,,26,0,1,,,,0,45,64
397696,note_on,,,,,64,0,1,,,,0,49,51
397700,note_on,,,,,4,0,1,,,,0,57,67
397796,note_off,,,,,96,0,1,,,,0,49,64
397812,note_on,,,,,16,0,1,,,,0,45,58
397832,note_off,,,,,20,0,1,,,,0,57,64
397862,note_off,,,,,30,0,1,,,,0,45,64
397936,note_on,,,,,74,0,1,,,,0,57,54
397938,note_on,,,,,2,0,1,,,,0,49,53
397988,note_off,,,,,50,0,1,,,,0,57,64
397992,note_off,,,,,4,0,1,,,,0,49,64
398058,note_on,,,,,66,0,1,,,,0,45,64
398120,note_off,,,,,62,0,1,,,,0,45,64
398176,note_on,,,,,56,0,1,,,,0,57,67
398180,note_on,,,,,4,0,1,,,,0,49,52
398280,note_off,,,,,100,0,1,,,,0,49,64
398294,note_on,,,,,14,0,1,,,,0,45,62
398310,note_off,,,,,16,0,1,,,,0,57,64
398356,note_off,,,,,46,0,1,,,,0,45,64
398410,note_on,,,,,54,0,1,,,,0,57,70
398418,note_on,,,,,8,0,1,,,,0,49,52
398514,note_off,,,,,96,0,1,,,,0,49,64
398522,note_off,,,,,8,0,1,,,,0,57,64
398526,note_on,,,,,4,0,1,,,,0,45,64
398582,note_off,,,,,56,0,1,,,,0,45,64
398642,note_on,,,,,60,0,1,,,,0,57,72
398644,note_on,,,,,2,0,1,,,,0,49,61
398766,note_off,,,,,122,0,1,,,,0,49,64
398768,note_off,,,,,2,0,1,,,,0,57,64
398768,note_on,,,,,0,0,1,,,,0,45,57
398828,note_off,,,,,60,0,1,,,,0,45,64
398890,note_on,,,,,62,0,1,,,,0,57,65
398894,note_on,,,,,4,0,1,,,,0,49,50
398992,note_off,,,,,98,0,1,,,,0,57,64
399006,note_on,,,,,14,0,1,,,,0,45,60
399016,note_off,,,,,10,0,1,,,,0,49,64
399048,note_off,,,,,32,0,1,,,,0,45,64
399124,note_on,,,,,76,0,1,,,,0,57,62
399126,note_on,,,,,2,0,1,,,,0,49,47
399222,note_off,,,,,96,0,1,,,,0,57,64
399240,note_off,,,,,18,0,1,,,,0,49,64
399250,note_on,,,,,10,0,1,,,,0,45,58
399304,note_off,,,,,54,0,1,,,,0,45,64
399372,note_on,,,,,68,0,1,,,,0,49,50
399376,note_on,,,,,4,0,1,,,,0,57,55
399462,note_off,,,,,86,0,1,,,,0,49,64
399494,note_on,,,,,32,0,1,,,,0,47,59
399496,note_off,,,,,2,0,1,,,,0,57,64
399496,note_on,,,,,0,0,1,,,,0,75,31
399498,note_on,,,,,2,0,1,,,,0,63,39
399502,note_on,,,,,4,0,1,,,,0,71,64
399504,note_on,,,,,2,0,1,,,,0,66,59
399538,control_change,,,,,34,0,1,,64,0,0,,
399628,note_on,,,,,90,0,1,,,,0,54,56
399634,note_on,,,,,6,0,1,,,,0,51,56
399636,note_off,,,,,2,0,1,,,,0,47,64
399648,control_change,,,,,12,0,1,,64,127,0,,
399694,note_off,,,,,46,0,1,,,,0,51,64
399700,note_off,,,,,6,0,1,,,,0,54,64
399734,note_on,,,,,34,0,1,,,,0,47,63
399860,note_on,,,,,126,0,1,,,,0,54,58
399860,note_on,,,,,0,0,1,,,,0,51,56
399870,note_off,,,,,10,0,1,,,,0,47,64
399928,note_off,,,,,58,0,1,,,,0,75,64
399932,note_off,,,,,4,0,1,,,,0,51,64
399940,note_off,,,,,0,0,1,,,,0,71,64
399940,note_off,,,,,8,0,1,,,,0,54,64
399946,note_off,,,,,0,0,1,,,,0,63,64
399946,note_off,,,,,6,0,1,,,,0,66,64
399972,note_on,,,,,26,0,1,,,,0,47,57
400080,note_on,,,,,108,0,1,,,,0,54,58
400082,note_on,,,,,2,0,1,,,,0,51,52
400088,note_off,,,,,6,0,1,,,,0,47,64
400188,note_off,,,,,100,0,1,,,,0,54,64
400194,note_off,,,,,6,0,1,,,,0,51,64
400204,note_on,,,,,10,0,1,,,,0,47,66
400322,note_off,,,,,118,0,1,,,,0,47,64
400324,note_on,,,,,2,0,1,,,,0,51,59
400328,note_on,,,,,4,0,1,,,,0,54,53
400398,note_off,,,,,70,0,1,,,,0,54,64
400416,note_off,,,,,18,0,1,,,,0,51,64
400436,note_on,,,,,20,0,1,,,,0,47,62
400524,note_off,,,,,88,0,1,,,,0,47,64
400554,note_on,,,,,30,0,1,,,,0,51,62
400560,note_on,,,,,6,0,1,,,,0,54,61
400612,note_off,,,,,52,0,1,,,,0,51,64
400628,note_off,,,,,16,0,1,,,,0,54,64
400670,note_on,,,,,42,0,1,,,,0,47,64
400740,note_off,,,,,70,0,1,,,,0,47,64
400784,note_on,,,,,44,0,1,,,,0,54,61
400788,note_on,,,,,4,0,1,,,,0,51,59
400868,note_off,,,,,80,0,1,,,,0,54,64
400876,note_off,,,,,8,0,1,,,,0,51,64
400910,note_on,,,,,34,0,1,,,,0,61,90
400914,note_on,,,,,4,0,1,,,,0,66,75
400916,note_on,,,,,2,0,1,,,,0,73,77
400916,note_on,,,,,0,0,1,,,,0,71,74
400920,note_on,,,,,4,0,1,,,,0,47,77
400972,control_change,,,,,52,0,1,,64,0,0,,
401030,control_change,,,,,58,0,1,,64,127,0,,
401044,note_on,,,,,14,0,1,,,,0,54,66
401050,note_on,,,,,6,0,1,,,,0,49,59
401056,note_off,,,,,6,0,1,,,,0,47,64
401096,note_off,,,,,40,0,1,,,,0,73,64
401098,note_off,,,,,2,0,1,,,,0,71,64
401120,note_off,,,,,22,0,1,,,,0,66,64
401136,note_off,,,,,16,0,1,,,,0,61,64
401152,note_off,,,,,0,0,1,,,,0,54,64
401152,note_off,,,,,16,0,1,,,,0,49,64
401160,note_on,,,,,8,0,1,,,,0,47,66
401246,note_off,,,,,86,0,1,,,,0,47,64
401278,note_on,,,,,32,0,1,,,,0,54,59
401284,note_on,,,,,6,0,1,,,,0,49,57
401360,note_off,,,,,76,0,1,,,,0,49,64
401378,note_off,,,,,18,0,1,,,,0,54,64
401398,note_on,,,,,20,0,1,,,,0,47,62
401464,note_off,,,,,66,0,1,,,,0,47,64
401506,note_on,,,,,42,0,1,,,,0,54,53
401516,note_on,,,,,10,0,1,,,,0,49,59
401624,note_off,,,,,108,0,1,,,,0,49,64
401626,note_on,,,,,2,0,1,,,,0,30,79
401628,note_on,,,,,2,0,1,,,,0,47,69
401628,note_on,,,,,0,0,1,,,,0,37,71
401630,note_on,,,,,2,0,1,,,,0,42,67
401648,note_off,,,,,18,0,1,,,,0,54,64
401708,note_off,,,,,60,0,1,,,,0,47,64
401750,note_on,,,,,42,0,1,,,,0,54,60
401756,note_on,,,,,6,0,1,,,,0,49,56
401772,note_off,,,,,16,0,1,,,,0,30,64
401782,note_off,,,,,10,0,1,,,,0,42,64
401784,note_off,,,,,2,0,1,,,,0,37,64
401868,note_off,,,,,84,0,1,,,,0,49,64
401880,note_on,,,,,12,0,1,,,,0,47,71
401892,note_off,,,,,12,0,1,,,,0,54,64
401992,note_on,,,,,100,0,1,,,,0,54,68
401994,note_on,,,,,2,0,1,,,,0,49,50
402006,note_off,,,,,12,0,1,,,,0,47,64
402086,note_off,,,,,80,0,1,,,,0,54,64
402094,note_off,,,,,8,0,1,,,,0,49,64
402106,note_on,,,,,12,0,1,,,,0,47,72
402160,note_off,,,,,54,0,1,,,,0,47,64
402218,note_on,,,,,58,0,1,,,,0,54,62
402220,note_on,,,,,2,0,1,,,,0,49,59
402328,note_off,,,,,108,0,1,,,,0,49,64
402342,note_on,,,,,14,0,1,,,,0,73,59
402344,note_on,,,,,0,0,1,,,,0,70,66
402344,note_on,,,,,2,0,1,,,,0,61,83
402346,note_on,,,,,2,0,1,,,,0,46,72
402348,note_off,,,,,2,0,1,,,,0,54,64
402348,note_on,,,,,0,0,1,,,,0,64,56
402390,control_change,,,,,42,0,1,,64,0,0,,
402460,note_off,,,,,70,0,1,,,,0,46,64
402462,note_on,,,,,2,0,1,,,,0,54,62
402468,note_on,,,,,6,0,1,,,,0,49,62
402476,control_change,,,,,8,0,1,,64,127,0,,
402574,note_off,,,,,98,0,1,,,,0,49,64
402578,note_off,,,,,4,0,1,,,,0,54,64
402580,note_off,,,,,2,0,1,,,,0,73,64
402582,note_on,,,,,2,0,1,,,,0,46,56
402600,note_off,,,,,18,0,1,,,,0,64,64
402606,note_off,,,,,6,0,1,,,,0,70,64
402630,note_off,,,,,24,0,1,,,,0,61,64
402694,note_off,,,,,64,0,1,,,,0,46,64
402698,note_on,,,,,4,0,1,,,,0,54,59
402702,note_on,,,,,4,0,1,,,,0,49,57
402774,note_off,,,,,72,0,1,,,,0,54,64
402792,note_off,,,,,18,0,1,,,,0,49,64
402816,note_on,,,,,24,0,1,,,,0,46,51
402900,note_off,,,,,84,0,1,,,,0,46,64
402934,note_on,,,,,34,0,1,,,,0,54,61
402938,note_on,,,,,4,0,1,,,,0,49,62
403038,note_off,,,,,100,0,1,,,,0,49,64
403046,note_off,,,,,8,0,1,,,,0,54,64
403056,note_on,,,,,10,0,1,,,,0,30,76
403056,note_on,,,,,0,0,1,,,,0,46,74
403058,note_on,,,,,2,0,1,,,,0,42,65
403060,note_on,,,,,2,0,1,,,,0,37,69
403120,control_change,,,,,60,0,1,,64,0,0,,
403172,note_on,,,,,52,0,1,,,,0,54,56
403176,note_off,,,,,4,0,1,,,,0,46,64
403182,note_on,,,,,6,0,1,,,,0,49,58
403196,control_change,,,,,14,0,1,,64,127,0,,
403248,note_off,,,,,52,0,1,,,,0,30,64
403264,note_off,,,,,0,0,1,,,,0,37,64
403264,note_off,,,,,16,0,1,,,,0,42,64
403278,note_off,,,,,14,0,1,,,,0,49,64
403290,note_on,,,,,12,0,1,,,,0,46,63
403304,note_off,,,,,14,0,1,,,,0,54,64
403376,note_off,,,,,72,0,1,,,,0,46,64
403406,note_on,,,,,30,0,1,,,,0,54,54
403420,note_on,,,,,14,0,1,,,,0,49,57
403508,note_off,,,,,88,0,1,,,,0,49,64
403508,note_off,,,,,0,0,1,,,,0,54,64
403524,note_on,,,,,16,0,1,,,,0,46,61
403544,set_tempo,,,,,12564,1,0,372671,,,,,
403552,set_tempo,,,,,8,1,0,375000,,,,,
403560,set_tempo,,,,,8,1,0,377358,,,,,
403568,set_tempo,,,,,8,1,0,379747,,,,,
403576,set_tempo,,,,,8,1,0,384615,,,,,
403588,set_tempo,,,,,12,1,0,387097,,,,,
403596,set_tempo,,,,,8,1,0,389610,,,,,
403604,set_tempo,,,,,8,1,0,392157,,,,,
403616,note_off,,,,,92,0,1,,,,0,46,64
403620,set_tempo,,,,,16,1,0,394737,,,,,
403628,set_tempo,,,,,8,1,0,397351,,,,,
403640,set_tempo,,,,,12,1,0,400000,,,,,
403640,note_on,,,,,24,0,1,,,,0,54,59
403644,note_on,,,,,4,0,1,,,,0,49,59
403648,set_tempo,,,,,8,1,0,402685,,,,,
403656,set_tempo,,,,,8,1,0,405405,,,,,
403664,set_tempo,,,,,8,1,0,410959,,,,,
403672,set_tempo,,,,,8,1,0,413793,,,,,
403680,set_tempo,,,,,8,1,0,416667,,,,,
403700,set_tempo,,,,,20,1,0,419580,,,,,
403704,note_off,,,,,60,0,1,,,,0,49,64
403708,set_tempo,,,,,8,1,0,422535,,,,,
403712,note_off,,,,,8,0,1,,,,0,54,64
403716,set_tempo,,,,,8,1,0,425532,,,,,
403724,set_tempo,,,,,8,1,0,428571,,,,,
403732,set_tempo,,,,,8,1,0,431655,,,,,
403744,set_tempo,,,,,12,1,0,434783,,,,,
403752,set_tempo,,,,,8,1,0,441176,,,,,
403760,set_tempo,,,,,8,1,0,444444,,,,,
403764,note_on,,,,,52,0,1,,,,0,59,61
403766,note_on,,,,,2,0,1,,,,0,55,64
403768,note_on,,,,,2,0,1,,,,0,71,50
403774,note_on,,,,,6,0,1,,,,0,67,65
403774,note_on,,,,,0,0,1,,,,0,62,65
403776,set_tempo,,,,,16,1,0,447761,,,,,
403784,set_tempo,,,,,8,1,0,451128,,,,,
403792,set_tempo,,,,,8,1,0,454545,,,,,
403796,set_tempo,,,,,4,1,0,441176,,,,,
403800,set_tempo,,,,,4,1,0,431655,,,,,
403804,set_tempo,,,,,4,1,0,425532,,,,,
403808,set_tempo,,,,,4,1,0,416667,,,,,
403812,set_tempo,,,,,4,1,0,413793,,,,,
403814,control_change,,,,,40,0,1,,64,0,0,,
403816,set_tempo,,,,,4,1,0,405405,,,,,
403820,set_tempo,,,,,4,1,0,397351,,,,,
403824,set_tempo,,,,,4,1,0,392157,,,,,
403828,set_tempo,,,,,4,1,0,389610,,,,,
403832,set_tempo,,,,,4,1,0,379747,,,,,
403836,set_tempo,,,,,4,1,0,375000,,,,,
403840,set_tempo,,,,,4,1,0,370370,,,,,
403892,note_on,,,,,78,0,1,,,,0,50,63
403920,control_change,,,,,28,0,1,,64,127,0,,
403996,note_off,,,,,76,0,1,,,,0,50,64
403998,note_on,,,,,2,0,1,,,,0,47,72
404094,note_off,,,,,96,0,1,,,,0,47,64
404100,note_on,,,,,6,0,1,,,,0,43,68
404204,note_on,,,,,104,0,1,,,,0,50,67
404210,note_off,,,,,6,0,1,,,,0,43,64
404224,note_off,,,,,14,0,1,,,,0,55,64
404312,note_off,,,,,88,0,1,,,,0,50,64
404316,note_on,,,,,4,0,1,,,,0,47,64
404422,note_off,,,,,106,0,1,,,,0,47,64
404430,note_on,,,,,8,0,1,,,,0,55,67
404542,note_on,,,,,112,0,1,,,,0,50,59
404658,note_on,,,,,116,0,1,,,,0,47,57
404668,note_off,,,,,10,0,1,,,,0,50,64
404768,note_on,,,,,100,0,1,,,,0,43,56
404778,note_off,,,,,10,0,1,,,,0,47,64
404782,note_off,,,,,4,0,1,,,,0,67,64
404796,note_off,,,,,14,0,1,,,,0,62,64
404800,note_off,,,,,4,0,1,,,,0,59,64
404820,note_off,,,,,20,0,1,,,,0,71,64
404874,note_off,,,,,54,0,1,,,,0,43,64
404876,note_on,,,,,2,0,1,,,,0,50,59
404932,note_off,,,,,56,0,1,,,,0,55,64
404984,note_on,,,,,52,0,1,,,,0,47,55
405000,note_off,,,,,16,0,1,,,,0,50,64
405052,note_off,,,,,52,0,1,,,,0,47,64
405096,note_on,,,,,44,0,1,,,,0,60,58
405098,note_on,,,,,2,0,1,,,,0,57,68
405104,note_on,,,,,6,0,1,,,,0,69,57
405106,note_on,,,,,2,0,1,,,,0,72,24
405108,note_on,,,,,2,0,1,,,,0,65,60
405130,control_change,,,,,22,0,1,,64,0,0,,
405218,note_on,,,,,88,0,1,,,,0,53,61
405236,control_change,,,,,18,0,1,,64,127,0,,
405290,note_off,,,,,54,0,1,,,,0,57,64
405336,note_on,,,,,46,0,1,,,,0,48,61
405358,note_off,,,,,22,0,1,,,,0,53,64
405418,note_off,,,,,60,0,1,,,,0,48,64
405436,note_on,,,,,18,0,1,,,,0,41,51
405500,note_off,,,,,64,0,1,,,,0,41,64
405550,note_on,,,,,50,0,1,,,,0,53,49
405656,note_on,,,,,106,0,1,,,,0,48,67
405712,note_off,,,,,56,0,1,,,,0,53,64
405728,note_off,,,,,16,0,1,,,,0,48,64
405758,note_on,,,,,30,0,1,,,,0,57,70
405870,note_on,,,,,112,0,1,,,,0,53,57
405890,note_off,,,,,20,0,1,,,,0,57,64
405984,note_on,,,,,94,0,1,,,,0,48,56
406044,note_off,,,,,60,0,1,,,,0,53,64
406090,note_on,,,,,0,0,1,,,,0,41,73
406090,note_off,,,,,46,0,1,,,,0,48,64
406118,note_off,,,,,28,0,1,,,,0,41,64
406202,note_on,,,,,84,0,1,,,,0,53,56
406312,note_on,,,,,110,0,1,,,,0,48,60
406388,note_off,,,,,76,0,1,,,,0,53,64
406420,note_on,,,,,32,0,1,,,,0,57,70
406428,note_off,,,,,8,0,1,,,,0,48,64
406532,note_on,,,,,104,0,1,,,,0,53,60
406566,note_off,,,,,34,0,1,,,,0,57,64
406648,note_on,,,,,82,0,1,,,,0,48,54
406672,note_off,,,,,24,0,1,,,,0,53,64
406738,note_off,,,,,66,0,1,,,,0,48,64
406752,note_on,,,,,14,0,1,,,,0,41,62
406810,note_off,,,,,58,0,1,,,,0,41,64
406864,note_on,,,,,54,0,1,,,,0,53,48
406972,note_on,,,,,108,0,1,,,,0,48,58
407020,note_off,,,,,48,0,1,,,,0,53,64
407070,note_off,,,,,50,0,1,,,,0,48,64
407084,note_on,,,,,14,0,1,,,,0,57,60
407198,note_on,,,,,114,0,1,,,,0,53,54
407228,note_off,,,,,30,0,1,,,,0,57,64
407314,note_on,,,,,86,0,1,,,,0,48,54
407372,note_off,,,,,58,0,1,,,,0,53,64
407416,note_off,,,,,44,0,1,,,,0,48,64
407420,note_on,,,,,4,0,1,,,,0,41,53
407490,note_off,,,,,70,0,1,,,,0,41,64
407532,note_on,,,,,42,0,1,,,,0,53,43
407606,note_off,,,,,74,0,1,,,,0,69,64
407608,note_off,,,,,2,0,1,,,,0,72,64
407622,note_off,,,,,14,0,1,,,,0,60,64
407628,note_off,,,,,6,0,1,,,,0,65,64
407640,note_on,,,,,12,0,1,,,,0,48,62
407650,note_off,,,,,10,0,1,,,,0,53,64
407742,note_off,,,,,92,0,1,,,,0,48,64
407762,note_on,,,,,20,0,1,,,,0,71,55
407766,note_on,,,,,4,0,1,,,,0,67,56
407768,note_on,,,,,2,0,1,,,,0,62,61
407770,note_on,,,,,2,0,1,,,,0,55,34
407776,note_on,,,,,6,0,1,,,,0,59,19
407798,control_change,,,,,22,0,1,,64,0,0,,
407892,note_on,,,,,94,0,1,,,,0,50,53
407916,control_change,,,,,24,0,1,,64,127,0,,
407990,note_off,,,,,74,0,1,,,,0,50,64
407998,note_on,,,,,8,0,1,,,,0,47,63
408104,note_on,,,,,0,0,1,,,,0,43,54
408104,note_off,,,,,106,0,1,,,,0,47,64
408212,note_on,,,,,108,0,1,,,,0,50,63
408244,note_off,,,,,32,0,1,,,,0,43,64
408326,note_on,,,,,82,0,1,,,,0,47,68
408332,note_off,,,,,6,0,1,,,,0,55,64
408336,note_off,,,,,4,0,1,,,,0,50,64
408446,note_on,,,,,110,0,1,,,,0,55,69
408460,note_off,,,,,14,0,1,,,,0,47,64
408468,note_off,,,,,8,0,1,,,,0,71,64
408560,note_on,,,,,92,0,1,,,,0,50,55
408628,note_off,,,,,68,0,1,,,,0,67,64
408640,note_off,,,,,12,0,1,,,,0,62,64
408642,note_off,,,,,2,0,1,,,,0,59,64
408672,note_on,,,,,30,0,1,,,,0,47,66
408696,note_off,,,,,24,0,1,,,,0,50,64
408776,note_on,,,,,80,0,1,,,,0,43,50
408790,note_off,,,,,14,0,1,,,,0,47,64
408890,note_on,,,,,100,0,1,,,,0,50,58
408938,note_off,,,,,48,0,1,,,,0,43,64
409016,note_on,,,,,78,0,1,,,,0,47,65
409018,note_off,,,,,2,0,1,,,,0,50,64
409028,note_off,,,,,10,0,1,,,,0,55,64
409088,note_off,,,,,60,0,1,,,,0,47,64
409134,note_on,,,,,46,0,1,,,,0,55,75
409136,note_on,,,,,0,0,1,,,,0,57,68
409136,note_on,,,,,2,0,1,,,,0,62,71
409142,note_on,,,,,6,0,1,,,,0,69,59
409144,note_on,,,,,2,0,1,,,,0,67,40
409192,control_change,,,,,48,0,1,,64,0,0,,
409250,note_on,,,,,58,0,1,,,,0,50,69
409256,control_change,,,,,6,0,1,,64,127,0,,
409276,note_off,,,,,20,0,1,,,,0,67,64
409290,note_off,,,,,14,0,1,,,,0,69,64
409324,note_off,,,,,34,0,1,,,,0,62,64
409330,note_off,,,,,6,0,1,,,,0,57,64
409360,note_on,,,,,30,0,1,,,,0,45,66
409366,note_off,,,,,6,0,1,,,,0,50,64
409472,note_off,,,,,106,0,1,,,,0,45,64
409476,note_on,,,,,4,0,1,,,,0,50,64
409576,note_off,,,,,100,0,1,,,,0,50,64
409594,note_on,,,,,18,0,1,,,,0,45,63
409650,note_off,,,,,56,0,1,,,,0,45,64
409696,note_on,,,,,46,0,1,,,,0,50,62
409812,note_on,,,,,116,0,1,,,,0,45,69
409816,note_on,,,,,0,0,1,,,,0,26,72
409816,note_on,,,,,4,0,1,,,,0,33,68
409818,note_on,,,,,2,0,1,,,,0,38,55
409832,note_off,,,,,14,0,1,,,,0,50,64
409864,control_change,,,,,32,0,1,,64,0,0,,
409910,note_off,,,,,46,0,1,,,,0,45,64
409934,note_on,,,,,24,0,1,,,,0,50,65
409936,control_change,,,,,2,0,1,,64,127,0,,
409992,note_off,,,,,56,0,1,,,,0,26,64
410008,note_off,,,,,16,0,1,,,,0,33,64
410016,note_off,,,,,8,0,1,,,,0,38,64
410024,note_off,,,,,8,0,1,,,,0,50,64
410034,note_on,,,,,10,0,1,,,,0,45,58
410156,note_on,,,,,122,0,1,,,,0,50,68
410178,note_off,,,,,22,0,1,,,,0,45,64
410268,note_on,,,,,90,0,1,,,,0,45,64
410270,note_off,,,,,2,0,1,,,,0,50,64
410380,note_on,,,,,110,0,1,,,,0,50,66
410400,note_on,,,,,20,0,1,,,,0,57,61
410412,note_off,,,,,12,0,1,,,,0,45,64
410414,note_off,,,,,2,0,1,,,,0,55,64
410448,note_on,,,,,34,0,1,,,,0,62,70
410480,note_on,,,,,32,0,1,,,,0,66,66
410494,note_on,,,,,14,0,1,,,,0,54,77
410500,note_on,,,,,6,0,1,,,,0,69,51
410506,note_off,,,,,6,0,1,,,,0,50,64
410538,control_change,,,,,32,0,1,,64,0,0,,
410616,note_off,,,,,78,0,1,,,,0,57,64
410620,control_change,,,,,4,0,1,,64,127,0,,
410622,note_on,,,,,2,0,1,,,,0,50,59
410654,note_off,,,,,32,0,1,,,,0,62,64
410668,note_off,,,,,14,0,1,,,,0,69,64
410676,note_off,,,,,8,0,1,,,,0,66,64
410708,note_off,,,,,32,0,1,,,,0,50,64
410720,note_on,,,,,12,0,1,,,,0,45,50
410812,note_off,,,,,92,0,1,,,,0,45,64
410840,note_on,,,,,28,0,1,,,,0,50,63
410948,note_off,,,,,108,0,1,,,,0,50,64
410954,note_on,,,,,6,0,1,,,,0,45,61
411016,note_off,,,,,62,0,1,,,,0,45,64
411056,note_on,,,,,40,0,1,,,,0,50,62
411172,note_on,,,,,116,0,1,,,,0,26,58
411176,note_on,,,,,4,0,1,,,,0,38,49
411178,note_on,,,,,0,0,1,,,,0,33,59
411178,note_on,,,,,2,0,1,,,,0,45,59
411198,note_off,,,,,20,0,1,,,,0,50,64
411226,control_change,,,,,28,0,1,,64,0,0,,
411296,note_off,,,,,70,0,1,,,,0,45,64
411302,note_on,,,,,6,0,1,,,,0,50,64
411312,control_change,,,,,10,0,1,,64,127,0,,
411372,note_off,,,,,60,0,1,,,,0,26,64
411384,note_off,,,,,12,0,1,,,,0,33,64
411388,note_off,,,,,4,0,1,,,,0,38,64
411402,note_off,,,,,14,0,1,,,,0,50,64
411406,note_on,,,,,4,0,1,,,,0,45,60
411526,note_on,,,,,120,0,1,,,,0,50,59
411528,note_off,,,,,2,0,1,,,,0,45,64
411608,note_off,,,,,80,0,1,,,,0,50,64
411628,note_on,,,,,20,0,1,,,,0,45,53
411728,note_on,,,,,100,0,1,,,,0,55,40
411746,note_on,,,,,18,0,1,,,,0,50,60
411750,note_off,,,,,4,0,1,,,,0,45,64
411760,note_off,,,,,10,0,1,,,,0,54,64
411772,note_off,,,,,12,0,1,,,,0,50,64
411776,note_on,,,,,4,0,1,,,,0,59,69
411824,note_on,,,,,48,0,1,,,,0,63,62
411858,note_on,,,,,0,0,1,,,,0,51,74
411858,note_on,,,,,34,0,1,,,,0,67,68
411894,control_change,,,,,36,0,1,,64,0,0,,
411924,note_off,,,,,30,0,1,,,,0,55,64
411982,control_change,,,,,58,0,1,,64,127,0,,
411986,note_off,,,,,4,0,1,,,,0,59,64
411992,note_on,,,,,6,0,1,,,,0,47,47
412016,note_off,,,,,24,0,1,,,,0,67,64
412022,note_off,,,,,6,0,1,,,,0,63,64
412092,note_on,,,,,70,0,1,,,,0,43,54
412132,note_off,,,,,40,0,1,,,,0,47,64
412164,note_off,,,,,32,0,1,,,,0,43,64
412216,note_on,,,,,52,0,1,,,,0,55,61
412228,note_off,,,,,12,0,1,,,,0,51,64
412330,note_on,,,,,102,0,1,,,,0,51,67
412420,note_off,,,,,90,0,1,,,,0,51,64
412434,note_on,,,,,14,0,1,,,,0,47,58
412540,note_off,,,,,106,0,1,,,,0,47,64
412546,note_on,,,,,6,0,1,,,,0,51,71
412658,note_on,,,,,112,0,1,,,,0,47,55
412770,note_on,,,,,112,0,1,,,,0,43,63
412808,note_off,,,,,38,0,1,,,,0,55,64
412808,note_off,,,,,0,0,1,,,,0,51,64
412814,note_off,,,,,6,0,1,,,,0,47,64
412826,note_off,,,,,12,0,1,,,,0,43,64
412896,note_on,,,,,70,0,1,,,,0,55,67
413012,note_on,,,,,116,0,1,,,,0,51,75
413120,note_off,,,,,108,0,1,,,,0,55,64
413120,note_on,,,,,0,0,1,,,,0,47,66
413140,note_off,,,,,20,0,1,,,,0,51,64
413146,note_on,,,,,6,0,1,,,,0,27,70
413152,note_on,,,,,6,0,1,,,,0,39,51
413160,note_on,,,,,8,0,1,,,,0,35,59
413174,note_off,,,,,14,0,1,,,,0,47,64
413176,note_off,,,,,2,0,1,,,,0,35,64
413178,note_off,,,,,2,0,1,,,,0,39,64
413180,note_off,,,,,2,0,1,,,,0,27,64
413224,note_on,,,,,44,0,1,,,,0,39,62
413226,note_on,,,,,2,0,1,,,,0,27,79
413226,note_on,,,,,0,0,1,,,,0,35,66
413232,note_on,,,,,6,0,1,,,,0,51,77
413276,control_change,,,,,44,0,1,,64,0,0,,
413354,note_on,,,,,78,0,1,,,,0,47,59
413376,control_change,,,,,22,0,1,,64,127,0,,
413460,note_on,,,,,84,0,1,,,,0,43,41
413538,note_off,,,,,78,0,1,,,,0,43,64
413538,note_off,,,,,0,0,1,,,,0,47,64
413576,note_off,,,,,38,0,1,,,,0,51,64
413578,note_on,,,,,2,0,1,,,,0,55,64
413664,note_off,,,,,86,0,1,,,,0,27,64
413680,note_off,,,,,16,0,1,,,,0,35,64
413690,note_on,,,,,10,0,1,,,,0,51,76
413696,note_off,,,,,6,0,1,,,,0,39,64
413722,note_off,,,,,26,0,1,,,,0,55,64
413796,note_on,,,,,74,0,1,,,,0,47,62
413802,note_off,,,,,6,0,1,,,,0,51,64
413910,note_on,,,,,108,0,1,,,,0,51,71
413916,note_off,,,,,6,0,1,,,,0,47,64
414032,note_on,,,,,116,0,1,,,,0,47,58
414136,note_on,,,,,104,0,1,,,,0,43,60
414184,note_off,,,,,48,0,1,,,,0,43,64
414184,note_off,,,,,0,0,1,,,,0,47,64
414192,note_off,,,,,8,0,1,,,,0,51,64
414246,note_on,,,,,54,0,1,,,,0,55,64
414360,note_on,,,,,114,0,1,,,,0,51,67
414388,note_off,,,,,28,0,1,,,,0,55,64
414458,note_off,,,,,70,0,1,,,,0,51,64
414466,note_on,,,,,8,0,1,,,,0,47,60
414506,note_off,,,,,40,0,1,,,,0,47,64
414584,note_on,,,,,78,0,1,,,,0,67,35
414590,note_on,,,,,0,0,1,,,,0,64,61
414590,note_on,,,,,6,0,1,,,,0,55,44
414592,note_on,,,,,0,0,1,,,,0,52,59
414592,note_on,,,,,2,0,1,,,,0,60,58
414618,control_change,,,,,26,0,1,,64,0,0,,
414700,control_change,,,,,82,0,1,,64,127,0,,
414708,note_on,,,,,8,0,1,,,,0,48,58
414748,note_off,,,,,40,0,1,,,,0,67,64
414764,note_off,,,,,16,0,1,,,,0,64,64
414772,note_off,,,,,8,0,1,,,,0,55,64
414788,note_off,,,,,16,0,1,,,,0,60,64
414808,note_off,,,,,20,0,1,,,,0,52,64
414812,note_on,,,,,4,0,1,,,,0,43,49
414860,note_off,,,,,48,0,1,,,,0,48,64
414864,note_off,,,,,4,0,1,,,,0,43,64
414928,note_on,,,,,64,0,1,,,,0,55,69
415036,note_on,,,,,108,0,1,,,,0,52,53
415144,note_off,,,,,108,0,1,,,,0,55,64
415152,note_on,,,,,8,0,1,,,,0,48,67
415166,note_off,,,,,14,0,1,,,,0,52,64
415254,note_off,,,,,88,0,1,,,,0,48,64
415266,note_on,,,,,12,0,1,,,,0,52,66
415386,note_on,,,,,120,0,1,,,,0,48,59
415494,note_on,,,,,108,0,1,,,,0,43,54
415548,note_off,,,,,54,0,1,,,,0,52,64
415554,note_off,,,,,6,0,1,,,,0,43,64
415556,note_off,,,,,2,0,1,,,,0,48,64
415608,note_on,,,,,52,0,1,,,,0,55,66
415724,note_on,,,,,116,0,1,,,,0,52,58
415742,note_off,,,,,18,0,1,,,,0,55,64
415826,note_on,,,,,84,0,1,,,,0,48,69
415848,note_off,,,,,22,0,1,,,,0,52,64
415876,note_on,,,,,28,0,1,,,,0,24,68
415884,note_on,,,,,8,0,1,,,,0,31,67
415886,note_on,,,,,2,0,1,,,,0,36,44
415900,note_off,,,,,14,0,1,,,,0,48,64
415906,note_off,,,,,6,0,1,,,,0,31,64
415908,note_off,,,,,2,0,1,,,,0,36,64
415910,note_off,,,,,2,0,1,,,,0,24,64
415948,note_on,,,,,38,0,1,,,,0,36,61
415948,note_on,,,,,0,0,1,,,,0,31,73
415950,note_on,,,,,2,0,1,,,,0,52,60
415954,note_on,,,,,4,0,1,,,,0,24,68
415992,control_change,,,,,38,0,1,,64,0,0,,
416074,note_on,,,,,82,0,1,,,,0,48,67
416092,control_change,,,,,18,0,1,,64,127,0,,
416178,note_on,,,,,86,0,1,,,,0,43,60
416232,note_off,,,,,54,0,1,,,,0,43,64
416248,note_off,,,,,16,0,1,,,,0,48,64
416264,note_off,,,,,16,0,1,,,,0,52,64
416296,note_on,,,,,32,0,1,,,,0,55,64
416408,note_on,,,,,112,0,1,,,,0,52,62
416434,note_off,,,,,26,0,1,,,,0,55,64
416518,note_on,,,,,84,0,1,,,,0,48,60
416546,note_off,,,,,28,0,1,,,,0,52,64
416620,note_off,,,,,74,0,1,,,,0,48,64
416632,note_on,,,,,12,0,1,,,,0,52,69
416748,note_on,,,,,116,0,1,,,,0,48,62
416856,note_on,,,,,108,0,1,,,,0,43,55
416908,note_off,,,,,52,0,1,,,,0,43,64
416908,note_off,,,,,0,0,1,,,,0,52,64
416912,note_off,,,,,4,0,1,,,,0,48,64
416940,note_off,,,,,28,0,1,,,,0,24,64
416958,note_off,,,,,18,0,1,,,,0,31,64
416966,note_on,,,,,8,0,1,,,,0,55,67
416970,note_off,,,,,4,0,1,,,,0,36,64
417078,note_on,,,,,108,0,1,,,,0,52,50
417116,note_off,,,,,38,0,1,,,,0,55,64
417190,note_on,,,,,74,0,1,,,,0,48,62
417192,note_off,,,,,2,0,1,,,,0,52,64
417212,note_off,,,,,20,0,1,,,,0,48,64
417296,note_on,,,,,84,0,1,,,,0,62,61
417296,note_on,,,,,0,0,1,,,,0,65,68
417298,note_on,,,,,2,0,1,,,,0,58,63
417300,note_on,,,,,2,0,1,,,,0,70,62
417314,note_on,,,,,14,0,1,,,,0,53,71
417350,control_change,,,,,36,0,1,,64,0,0,,
417410,note_off,,,,,60,0,1,,,,0,58,64
417430,control_change,,,,,20,0,1,,64,127,0,,
417432,note_on,,,,,2,0,1,,,,0,50,60
417486,note_off,,,,,54,0,1,,,,0,70,64
417536,note_off,,,,,50,0,1,,,,0,50,64
417540,note_on,,,,,4,0,1,,,,0,46,66
417580,note_off,,,,,40,0,1,,,,0,53,64
417598,note_off,,,,,18,0,1,,,,0,65,64
417612,note_off,,,,,14,0,1,,,,0,46,64
417638,note_off,,,,,26,0,1,,,,0,62,64
417652,note_on,,,,,14,0,1,,,,0,58,71
417764,note_on,,,,,112,0,1,,,,0,53,60
417864,note_off,,,,,100,0,1,,,,0,53,64
417878,note_on,,,,,14,0,1,,,,0,50,47
417976,note_off,,,,,98,0,1,,,,0,50,64
417986,note_on,,,,,10,0,1,,,,0,53,64
418102,note_on,,,,,116,0,1,,,,0,50,50
418174,note_off,,,,,72,0,1,,,,0,53,64
418214,note_off,,,,,40,0,1,,,,0,50,64
418214,note_on,,,,,0,0,1,,,,0,46,61
418228,note_off,,,,,14,0,1,,,,0,58,64
418274,note_off,,,,,46,0,1,,,,0,46,64
418332,note_on,,,,,58,0,1,,,,0,58,71
418444,note_on,,,,,112,0,1,,,,0,53,69
418548,note_off,,,,,104,0,1,,,,0,58,64
418550,note_on,,,,,2,0,1,,,,0,50,62
418576,note_off,,,,,26,0,1,,,,0,53,64
418590,note_on,,,,,14,0,1,,,,0,34,74
418602,note_on,,,,,12,0,1,,,,0,38,41
418610,note_off,,,,,8,0,1,,,,0,50,64
418616,note_off,,,,,6,0,1,,,,0,38,64
418616,note_off,,,,,0,0,1,,,,0,34,64
418652,note_on,,,,,36,0,1,,,,0,34,79
418658,note_on,,,,,6,0,1,,,,0,38,70
418666,note_on,,,,,8,0,1,,,,0,53,68
418716,control_change,,,,,50,0,1,,64,0,0,,
418784,note_on,,,,,68,0,1,,,,0,50,59
418790,control_change,,,,,6,0,1,,64,127,0,,
418884,note_on,,,,,0,0,1,,,,0,46,57
418884,note_off,,,,,94,0,1,,,,0,50,64
418900,note_off,,,,,16,0,1,,,,0,53,64
418952,note_off,,,,,52,0,1,,,,0,46,64
418998,note_on,,,,,46,0,1,,,,0,58,69
419104,note_on,,,,,106,0,1,,,,0,53,60
419214,note_off,,,,,110,0,1,,,,0,53,64
419220,note_on,,,,,6,0,1,,,,0,50,58
419330,note_off,,,,,110,0,1,,,,0,50,64
419332,note_on,,,,,2,0,1,,,,0,53,67
419446,note_on,,,,,114,0,1,,,,0,50,55
419504,note_off,,,,,58,0,1,,,,0,53,64
419548,note_off,,,,,0,0,1,,,,0,50,64
419548,note_off,,,,,44,0,1,,,,0,58,64
419556,note_on,,,,,8,0,1,,,,0,46,53
419614,note_off,,,,,58,0,1,,,,0,46,64
419624,note_off,,,,,10,0,1,,,,0,38,64
419636,note_off,,,,,12,0,1,,,,0,34,64
419666,note_on,,,,,30,0,1,,,,0,58,67
419786,note_on,,,,,120,0,1,,,,0,53,71
419808,note_off,,,,,22,0,1,,,,0,58,64
419884,note_on,,,,,76,0,1,,,,0,50,64
419912,note_off,,,,,28,0,1,,,,0,53,64
419928,note_on,,,,,16,0,1,,,,0,34,71
419940,note_on,,,,,12,0,1,,,,0,38,55
419942,note_off,,,,,2,0,1,,,,0,50,64
419956,note_off,,,,,14,0,1,,,,0,38,64
419964,note_off,,,,,8,0,1,,,,0,34,64
420008,note_on,,,,,44,0,1,,,,0,38,70
420012,note_on,,,,,4,0,1,,,,0,53,77
420016,note_on,,,,,4,0,1,,,,0,30,81
420086,control_change,,,,,70,0,1,,64,0,0,,
420124,note_on,,,,,38,0,1,,,,0,34,74
420136,note_on,,,,,12,0,1,,,,0,50,66
420158,note_on,,,,,22,0,1,,,,0,31,55
420166,note_off,,,,,8,0,1,,,,0,30,64
420244,note_on,,,,,78,0,1,,,,0,46,71
420246,note_off,,,,,2,0,1,,,,0,31,64
420246,note_off,,,,,0,0,1,,,,0,34,64
420248,note_on,,,,,2,0,1,,,,0,30,78
420252,control_change,,,,,4,0,1,,64,127,0,,
420270,note_off,,,,,18,0,1,,,,0,50,64
420316,note_off,,,,,46,0,1,,,,0,53,64
420354,note_off,,,,,38,0,1,,,,0,30,64
420356,note_on,,,,,2,0,1,,,,0,34,61
420358,note_on,,,,,2,0,1,,,,0,31,62
420362,note_on,,,,,4,0,1,,,,0,58,76
420454,control_change,,,,,92,0,1,,64,0,0,,
420456,note_off,,,,,2,0,1,,,,0,31,64
420462,note_on,,,,,6,0,1,,,,0,30,69
420472,note_on,,,,,10,0,1,,,,0,53,69
420474,note_off,,,,,2,0,1,,,,0,34,64
420556,control_change,,,,,82,0,1,,64,127,0,,
420566,note_on,,,,,10,0,1,,,,0,34,57
420568,note_on,,,,,2,0,1,,,,0,31,64
420578,note_on,,,,,10,0,1,,,,0,50,52
420584,note_off,,,,,6,0,1,,,,0,58,64
420586,note_off,,,,,2,0,1,,,,0,30,64
420604,note_off,,,,,0,0,1,,,,0,53,64
420604,note_off,,,,,18,0,1,,,,0,46,64
420614,note_off,,,,,10,0,1,,,,0,38,64
420620,note_off,,,,,6,0,1,,,,0,31,64
420628,note_off,,,,,8,0,1,,,,0,34,64
420630,note_off,,,,,2,0,1,,,,0,50,64
420694,note_on,,,,,64,0,1,,,,0,38,65
420696,note_on,,,,,0,0,1,,,,0,30,72
420696,note_on,,,,,2,0,1,,,,0,53,73
420750,control_change,,,,,54,0,1,,64,0,0,,
420810,note_on,,,,,60,0,1,,,,0,34,60
420816,note_on,,,,,6,0,1,,,,0,50,61
420818,note_on,,,,,2,0,1,,,,0,31,67
420840,note_off,,,,,22,0,1,,,,0,30,64
420868,control_change,,,,,28,0,1,,64,127,0,,
420918,note_on,,,,,50,0,1,,,,0,46,62
420922,note_on,,,,,0,0,1,,,,0,30,70
420922,note_off,,,,,4,0,1,,,,0,31,64
420936,note_off,,,,,14,0,1,,,,0,34,64
420968,note_off,,,,,32,0,1,,,,0,50,64
421032,note_on,,,,,64,0,1,,,,0,58,74
421038,control_change,,,,,6,0,1,,64,0,0,,
421040,note_on,,,,,0,0,1,,,,0,34,48
421040,note_on,,,,,2,0,1,,,,0,31,64
421046,note_off,,,,,6,0,1,,,,0,53,64
421062,note_off,,,,,16,0,1,,,,0,30,64
421152,control_change,,,,,90,0,1,,64,127,0,,
421154,note_on,,,,,2,0,1,,,,0,53,64
421156,note_on,,,,,2,0,1,,,,0,30,72
421166,note_off,,,,,10,0,1,,,,0,31,64
421188,note_off,,,,,22,0,1,,,,0,34,64
421264,note_off,,,,,76,0,1,,,,0,58,64
421272,note_on,,,,,8,0,1,,,,0,34,48
421274,note_on,,,,,2,0,1,,,,0,50,54
421276,note_on,,,,,2,0,1,,,,0,31,72
421294,note_off,,,,,18,0,1,,,,0,30,64
421296,note_off,,,,,2,0,1,,,,0,46,64
421310,note_off,,,,,14,0,1,,,,0,53,64
421318,note_off,,,,,8,0,1,,,,0,38,64
421322,note_off,,,,,4,0,1,,,,0,50,64
421358,note_off,,,,,36,0,1,,,,0,34,64
421370,note_off,,,,,12,0,1,,,,0,31,64
421398,note_on,,,,,28,0,1,,,,0,53,67
421400,note_on,,,,,2,0,1,,,,0,30,70
421400,note_on,,,,,0,0,1,,,,0,38,64
421446,control_change,,,,,46,0,1,,64,0,0,,
421522,note_on,,,,,0,0,1,,,,0,31,66
421522,note_on,,,,,76,0,1,,,,0,34,44
421528,note_on,,,,,6,0,1,,,,0,50,53
421538,note_off,,,,,10,0,1,,,,0,30,64
421630,note_off,,,,,92,0,1,,,,0,31,64
421638,note_on,,,,,8,0,1,,,,0,30,65
421640,note_on,,,,,2,0,1,,,,0,46,49
421646,note_off,,,,,6,0,1,,,,0,34,64
421664,control_change,,,,,18,0,1,,64,127,0,,
421676,note_off,,,,,12,0,1,,,,0,50,64
421766,note_on,,,,,90,0,1,,,,0,58,67
421770,note_on,,,,,4,0,1,,,,0,31,52
421772,note_off,,,,,2,0,1,,,,0,53,64
421772,note_on,,,,,0,0,1,,,,0,34,41
421786,note_off,,,,,14,0,1,,,,0,30,64
421788,control_change,,,,,2,0,1,,64,0,0,,
421876,note_on,,,,,88,0,1,,,,0,30,53
421878,note_off,,,,,2,0,1,,,,0,31,64
421888,note_off,,,,,10,0,1,,,,0,34,64
421888,note_on,,,,,0,0,1,,,,0,53,69
421910,control_change,,,,,22,0,1,,64,127,0,,
421990,note_off,,,,,80,0,1,,,,0,58,64
421996,note_on,,,,,6,0,1,,,,0,34,42
422000,note_on,,,,,4,0,1,,,,0,31,58
422006,note_on,,,,,6,0,1,,,,0,50,48
422016,note_off,,,,,10,0,1,,,,0,30,64
422028,note_off,,,,,12,0,1,,,,0,46,64
422032,note_off,,,,,4,0,1,,,,0,53,64
422036,note_off,,,,,4,0,1,,,,0,38,64
422042,note_off,,,,,6,0,1,,,,0,50,64
422066,note_off,,,,,24,0,1,,,,0,34,64
422070,note_off,,,,,4,0,1,,,,0,31,64
422142,note_on,,,,,72,0,1,,,,0,38,61
422144,note_on,,,,,2,0,1,,,,0,30,65
422146,note_on,,,,,2,0,1,,,,0,53,61
422180,control_change,,,,,34,0,1,,64,0,0,,
422280,note_on,,,,,100,0,1,,,,0,34,51
422288,note_on,,,,,8,0,1,,,,0,31,69
422292,control_change,,,,,4,0,1,,64,127,0,,
422294,note_off,,,,,2,0,1,,,,0,30,64
422300,note_on,,,,,6,0,1,,,,0,50,37
422378,note_off,,,,,78,0,1,,,,0,31,64
422424,note_on,,,,,46,0,1,,,,0,46,56
422448,note_on,,,,,24,0,1,,,,0,30,72
422456,note_off,,,,,8,0,1,,,,0,34,64
422468,note_off,,,,,12,0,1,,,,0,50,64
422566,note_off,,,,,98,0,1,,,,0,30,64
422612,note_off,,,,,46,0,1,,,,0,53,64
422612,note_on,,,,,0,0,1,,,,0,58,70
422628,note_on,,,,,16,0,1,,,,0,34,60
422638,note_on,,,,,10,0,1,,,,0,31,67
422794,note_on,,,,,0,0,1,,,,0,53,64
422794,note_off,,,,,156,0,1,,,,0,31,64
422800,note_on,,,,,0,0,1,,,,0,30,65
422800,note_off,,,,,6,0,1,,,,0,34,64
423016,note_on,,,,,216,0,1,,,,0,34,47
423020,note_on,,,,,4,0,1,,,,0,50,53
423022,note_on,,,,,2,0,1,,,,0,31,69
423082,control_change,,,,,60,0,1,,64,0,0,,
423612,note_off,,,,,530,0,1,,,,0,50,64
423614,note_off,,,,,2,0,1,,,,0,30,64
423616,note_off,,,,,0,0,1,,,,0,58,64
423616,note_off,,,,,2,0,1,,,,0,46,64
423618,note_off,,,,,2,0,1,,,,0,53,64
423618,note_off,,,,,0,0,1,,,,0,31,64
423620,note_off,,,,,2,0,1,,,,0,38,64
423622,note_off,,,,,2,0,1,,,,0,34,64
424148,set_tempo,,,,,20308,1,0,355030,,,,,
424156,set_tempo,,,,,8,1,0,357143,,,,,
424164,set_tempo,,,,,8,1,0,361446,,,,,
424172,set_tempo,,,,,8,1,0,363636,,,,,
424180,set_tempo,,,,,8,1,0,365854,,,,,
424188,set_tempo,,,,,8,1,0,368098,,,,,
424196,set_tempo,,,,,8,1,0,370370,,,,,
424212,set_tempo,,,,,16,1,0,372671,,,,,
424220,set_tempo,,,,,8,1,0,375000,,,,,
424228,set_tempo,,,,,8,1,0,377358,,,,,
424232,set_tempo,,,,,4,1,0,379747,,,,,
424240,set_tempo,,,,,8,1,0,384615,,,,,
424248,set_tempo,,,,,8,1,0,387097,,,,,
424256,set_tempo,,,,,8,1,0,389610,,,,,
424264,set_tempo,,,,,8,1,0,392157,,,,,
424272,note_on,,,,,650,0,1,,,,0,30,66
424280,set_tempo,,,,,16,1,0,394737,,,,,
424288,set_tempo,,,,,8,1,0,397351,,,,,
424296,set_tempo,,,,,8,1,0,400000,,,,,
424304,set_tempo,,,,,8,1,0,402685,,,,,
424308,set_tempo,,,,,4,1,0,405405,,,,,
424316,set_tempo,,,,,8,1,0,410959,,,,,
424324,set_tempo,,,,,8,1,0,413793,,,,,
424332,set_tempo,,,,,8,1,0,416667,,,,,
424346,control_change,,,,,74,0,1,,64,127,0,,
424348,set_tempo,,,,,16,1,0,419580,,,,,
424356,set_tempo,,,,,8,1,0,422535,,,,,
424364,set_tempo,,,,,8,1,0,425532,,,,,
424372,set_tempo,,,,,8,1,0,428571,,,,,
424380,set_tempo,,,,,8,1,0,431655,,,,,
424384,set_tempo,,,,,4,1,0,434783,,,,,
424406,note_off,,,,,60,0,1,,,,0,30,64
424570,note_on,,,,,164,0,1,,,,0,31,68
424596,control_change,,,,,26,0,1,,64,0,0,,
424672,control_change,,,,,76,0,1,,64,127,0,,
424704,note_off,,,,,32,0,1,,,,0,31,64
424780,note_on,,,,,76,0,1,,,,0,34,68
424798,control_change,,,,,18,0,1,,64,0,0,,
424864,control_change,,,,,66,0,1,,64,127,0,,
424920,note_off,,,,,56,0,1,,,,0,34,64
424976,note_on,,,,,56,0,1,,,,0,37,74
424996,control_change,,,,,20,0,1,,64,0,0,,
425054,control_change,,,,,58,0,1,,64,127,0,,
425104,note_off,,,,,50,0,1,,,,0,37,64
425202,note_on,,,,,98,0,1,,,,0,38,80
425214,control_change,,,,,12,0,1,,64,0,0,,
425282,control_change,,,,,68,0,1,,64,127,0,,
425336,note_off,,,,,54,0,1,,,,0,38,64
425458,note_on,,,,,122,0,1,,,,0,39,85
425478,control_change,,,,,20,0,1,,64,0,0,,
425552,control_change,,,,,74,0,1,,64,127,0,,
425622,note_off,,,,,70,0,1,,,,0,39,64
425778,note_on,,,,,156,0,1,,,,0,40,84
425810,control_change,,,,,32,0,1,,64,0,0,,
425898,control_change,,,,,88,0,1,,64,127,0,,
425948,note_off,,,,,50,0,1,,,,0,40,64
426230,note_on,,,,,282,0,1,,,,0,41,87
426264,control_change,,,,,34,0,1,,64,0,0,,
426574,control_change,,,,,310,0,1,,64,127,0,,
426676,note_off,,,,,102,0,1,,,,0,41,64
427042,control_change,,,,,366,0,1,,64,0,0,,
427200,set_tempo,,,,,2816,1,0,441176,,,,,
427204,set_tempo,,,,,4,1,0,434783,,,,,
427258,note_on,,,,,216,0,1,,,,0,53,73
427314,control_change,,,,,56,0,1,,64,127,0,,
427368,note_off,,,,,54,0,1,,,,0,53,64
427428,set_tempo,,,,,224,1,0,441176,,,,,
427444,set_tempo,,,,,16,1,0,434783,,,,,
427456,set_tempo,,,,,12,1,0,431655,,,,,
427468,set_tempo,,,,,12,1,0,428571,,,,,
427472,note_on,,,,,104,0,1,,,,0,52,77
427476,set_tempo,,,,,8,1,0,425532,,,,,
427488,set_tempo,,,,,12,1,0,422535,,,,,
427492,control_change,,,,,20,0,1,,64,0,0,,
427500,set_tempo,,,,,12,1,0,419580,,,,,
427512,set_tempo,,,,,12,1,0,416667,,,,,
427532,set_tempo,,,,,20,1,0,413793,,,,,
427544,set_tempo,,,,,12,1,0,410959,,,,,
427544,control_change,,,,,52,0,1,,64,127,0,,
427552,set_tempo,,,,,8,1,0,405405,,,,,
427608,note_off,,,,,64,0,1,,,,0,52,64
427664,control_change,,,,,56,0,1,,64,0,0,,
427672,note_on,,,,,8,0,1,,,,0,50,72
427720,control_change,,,,,48,0,1,,64,127,0,,
427736,note_off,,,,,16,0,1,,,,0,50,64
427866,control_change,,,,,130,0,1,,64,0,0,,
427874,note_on,,,,,8,0,1,,,,0,47,77
427924,control_change,,,,,50,0,1,,64,127,0,,
427928,note_off,,,,,4,0,1,,,,0,47,64
428094,note_on,,,,,166,0,1,,,,0,44,76
428096,control_change,,,,,2,0,1,,64,0,0,,
428148,control_change,,,,,0,0,1,,64,127,0,,
428148,note_off,,,,,52,0,1,,,,0,44,64
428316,set_tempo,,,,,764,1,0,402685,,,,,
428320,set_tempo,,,,,4,1,0,400000,,,,,
428328,set_tempo,,,,,8,1,0,397351,,,,,
428332,set_tempo,,,,,4,1,0,394737,,,,,
428336,set_tempo,,,,,4,1,0,392157,,,,,
428348,set_tempo,,,,,12,1,0,389610,,,,,
428352,set_tempo,,,,,4,1,0,387097,,,,,
428352,note_on,,,,,204,0,1,,,,0,41,81
428352,note_on,,,,,0,0,1,,,,0,32,74
428358,note_on,,,,,6,0,1,,,,0,35,72
428360,set_tempo,,,,,8,1,0,379747,,,,,
428382,control_change,,,,,24,0,1,,64,0,0,,
428384,set_tempo,,,,,24,1,0,384615,,,,,
428404,set_tempo,,,,,20,1,0,387097,,,,,
428424,set_tempo,,,,,20,1,0,389610,,,,,
428444,set_tempo,,,,,20,1,0,392157,,,,,
428468,control_change,,,,,86,0,1,,64,127,0,,
428484,set_tempo,,,,,40,1,0,394737,,,,,
428502,control_change,,,,,34,0,1,,64,0,0,,
428504,set_tempo,,,,,20,1,0,397351,,,,,
428512,note_off,,,,,10,0,1,,,,0,41,64
428528,set_tempo,,,,,24,1,0,400000,,,,,
428548,set_tempo,,,,,20,1,0,402685,,,,,
428568,set_tempo,,,,,20,1,0,405405,,,,,
428588,set_tempo,,,,,20,1,0,410959,,,,,
428608,set_tempo,,,,,20,1,0,413793,,,,,
428628,set_tempo,,,,,20,1,0,416667,,,,,
428658,note_on,,,,,146,0,1,,,,0,40,81
428664,set_tempo,,,,,36,1,0,434783,,,,,
428684,set_tempo,,,,,20,1,0,441176,,,,,
428708,set_tempo,,,,,24,1,0,444444,,,,,
428752,set_tempo,,,,,44,1,0,447761,,,,,
428772,set_tempo,,,,,20,1,0,451128,,,,,
428778,note_off,,,,,120,0,1,,,,0,40,64
428796,set_tempo,,,,,24,1,0,454545,,,,,
428816,set_tempo,,,,,20,1,0,458015,,,,,
428840,set_tempo,,,,,24,1,0,461538,,,,,
428860,set_tempo,,,,,20,1,0,465116,,,,,
428880,set_tempo,,,,,20,1,0,468750,,,,,
428904,set_tempo,,,,,24,1,0,476190,,,,,
428948,set_tempo,,,,,44,1,0,480000,,,,,
428968,set_tempo,,,,,20,1,0,483871,,,,,
428986,note_on,,,,,208,0,1,,,,0,38,73
428992,set_tempo,,,,,24,1,0,487805,,,,,
429012,set_tempo,,,,,20,1,0,491803,,,,,
429036,set_tempo,,,,,24,1,0,495868,,,,,
429056,set_tempo,,,,,20,1,0,500000,,,,,
429080,set_tempo,,,,,24,1,0,504202,,,,,
429100,set_tempo,,,,,20,1,0,508475,,,,,
429100,note_off,,,,,114,0,1,,,,0,38,64
429120,set_tempo,,,,,20,1,0,512821,,,,,
429132,set_tempo,,,,,12,1,0,504202,,,,,
429144,set_tempo,,,,,12,1,0,500000,,,,,
429156,set_tempo,,,,,12,1,0,495868,,,,,
429168,set_tempo,,,,,12,1,0,491803,,,,,
429180,set_tempo,,,,,12,1,0,487805,,,,,
429192,set_tempo,,,,,12,1,0,483871,,,,,
429204,set_tempo,,,,,12,1,0,480000,,,,,
429216,set_tempo,,,,,12,1,0,476190,,,,,
429240,set_tempo,,,,,24,1,0,468750,,,,,
429252,set_tempo,,,,,12,1,0,465116,,,,,
429264,set_tempo,,,,,12,1,0,461538,,,,,
429276,set_tempo,,,,,12,1,0,458015,,,,,
429288,set_tempo,,,,,12,1,0,454545,,,,,
429300,set_tempo,,,,,12,1,0,451128,,,,,
429312,set_tempo,,,,,12,1,0,447761,,,,,
429324,set_tempo,,,,,12,1,0,444444,,,,,
429348,set_tempo,,,,,24,1,0,441176,,,,,
429356,note_on,,,,,256,0,1,,,,0,33,84
429360,set_tempo,,,,,12,1,0,434783,,,,,
429372,note_off,,,,,16,0,1,,,,0,35,64
429398,note_off,,,,,26,0,1,,,,0,32,64
429540,control_change,,,,,142,0,1,,64,127,0,,
429566,note_off,,,,,26,0,1,,,,0,33,64
429808,note_on,,,,,242,0,1,,,,0,57,49
429810,note_on,,,,,0,0,1,,,,0,45,54
429810,note_on,,,,,2,0,1,,,,0,49,56
429812,note_on,,,,,2,0,1,,,,0,52,61
430128,note_on,,,,,316,0,1,,,,0,81,70
430130,note_on,,,,,2,0,1,,,,0,69,62
430264,note_off,,,,,0,0,1,,,,0,57,64
430264,note_off,,,,,134,0,1,,,,0,69,64
430268,note_off,,,,,4,0,1,,,,0,81,64
430300,note_off,,,,,32,0,1,,,,0,52,64
430302,note_off,,,,,2,0,1,,,,0,45,64
430314,note_off,,,,,12,0,1,,,,0,49,64
430392,note_on,,,,,78,0,1,,,,0,81,77
430392,note_on,,,,,0,0,1,,,,0,69,74
430582,note_off,,,,,190,0,1,,,,0,81,64
430596,note_off,,,,,14,0,1,,,,0,69,64
430598,note_on,,,,,2,0,1,,,,0,45,58
430600,note_on,,,,,0,0,1,,,,0,52,56
430600,note_on,,,,,2,0,1,,,,0,57,61
430602,note_on,,,,,2,0,1,,,,0,49,54
430806,note_on,,,,,204,0,1,,,,0,82,72
430808,note_on,,,,,2,0,1,,,,0,70,67
430908,note_off,,,,,100,0,1,,,,0,70,64
430916,note_off,,,,,8,0,1,,,,0,82,64
430976,note_off,,,,,60,0,1,,,,0,49,64
430984,note_off,,,,,8,0,1,,,,0,52,64
430986,note_off,,,,,2,0,1,,,,0,45,64
430990,note_off,,,,,4,0,1,,,,0,57,64
431014,note_on,,,,,24,0,1,,,,0,82,76
431018,note_on,,,,,4,0,1,,,,0,70,74
431178,note_on,,,,,0,0,1,,,,0,57,67
431178,note_on,,,,,0,0,1,,,,0,45,60
431178,note_off,,,,,160,0,1,,,,0,82,64
431180,note_on,,,,,2,0,1,,,,0,49,59
431182,note_on,,,,,2,0,1,,,,0,52,60
431204,note_off,,,,,22,0,1,,,,0,70,64
431332,note_on,,,,,128,0,1,,,,0,81,70
431332,note_on,,,,,0,0,1,,,,0,69,68
431378,note_off,,,,,46,0,1,,,,0,69,64
431384,note_off,,,,,6,0,1,,,,0,81,64
431454,note_off,,,,,70,0,1,,,,0,49,64
431466,note_off,,,,,12,0,1,,,,0,45,64
431468,note_on,,,,,2,0,1,,,,0,81,76
431470,note_on,,,,,2,0,1,,,,0,69,72
431476,note_off,,,,,6,0,1,,,,0,52,64
431476,note_off,,,,,0,0,1,,,,0,57,64
431560,note_off,,,,,84,0,1,,,,0,69,64
431568,note_off,,,,,8,0,1,,,,0,81,64
431590,note_on,,,,,22,0,1,,,,0,49,59
431592,note_on,,,,,0,0,1,,,,0,45,62
431592,note_on,,,,,2,0,1,,,,0,52,71
431594,note_on,,,,,2,0,1,,,,0,57,70
431716,note_on,,,,,122,0,1,,,,0,80,79
431718,note_on,,,,,2,0,1,,,,0,68,76
431736,note_off,,,,,18,0,1,,,,0,57,64
431740,note_off,,,,,4,0,1,,,,0,49,64
431744,note_off,,,,,4,0,1,,,,0,52,64
431754,note_off,,,,,10,0,1,,,,0,45,64
431764,note_off,,,,,10,0,1,,,,0,68,64
431768,note_off,,,,,4,0,1,,,,0,80,64
431852,note_on,,,,,84,0,1,,,,0,80,86
431852,note_on,,,,,0,0,1,,,,0,68,88
431984,note_on,,,,,132,0,1,,,,0,45,72
431986,note_on,,,,,2,0,1,,,,0,58,71
431990,note_on,,,,,4,0,1,,,,0,49,67
431992,note_on,,,,,2,0,1,,,,0,52,67
432000,set_tempo,,,,,2640,1,0,428571,,,,,
432046,note_off,,,,,54,0,1,,,,0,80,64
432050,note_off,,,,,4,0,1,,,,0,68,64
432060,control_change,,,,,10,0,1,,64,0,0,,
432064,control_change,,,,,4,0,1,,64,127,0,,
432120,note_on,,,,,0,0,1,,,,0,67,66
432120,note_on,,,,,56,0,1,,,,0,79,63
432162,note_off,,,,,42,0,1,,,,0,67,64
432170,note_off,,,,,8,0,1,,,,0,79,64
432198,note_off,,,,,28,0,1,,,,0,52,64
432200,note_off,,,,,0,0,1,,,,0,49,64
432200,note_off,,,,,2,0,1,,,,0,45,64
432216,note_off,,,,,16,0,1,,,,0,58,64
432240,set_tempo,,,,,240,1,0,425532,,,,,
432240,note_on,,,,,24,0,1,,,,0,79,78
432242,note_on,,,,,2,0,1,,,,0,67,73
432322,note_off,,,,,80,0,1,,,,0,79,64
432328,note_off,,,,,6,0,1,,,,0,67,64
432354,note_on,,,,,26,0,1,,,,0,58,70
432356,note_on,,,,,2,0,1,,,,0,45,71
432358,note_on,,,,,2,0,1,,,,0,49,70
432360,note_on,,,,,2,0,1,,,,0,52,69
432480,note_on,,,,,120,0,1,,,,0,78,76
432480,set_tempo,,,,,240,1,0,422535,,,,,
432480,note_on,,,,,0,0,1,,,,0,66,77
432518,note_off,,,,,38,0,1,,,,0,52,64
432520,note_off,,,,,2,0,1,,,,0,45,64
432522,note_off,,,,,0,0,1,,,,0,49,64
432522,note_off,,,,,2,0,1,,,,0,66,64
432528,note_off,,,,,6,0,1,,,,0,78,64
432532,note_off,,,,,4,0,1,,,,0,58,64
432602,note_on,,,,,70,0,1,,,,0,78,76
432604,note_on,,,,,2,0,1,,,,0,66,79
432716,note_on,,,,,112,0,1,,,,0,58,70
432720,set_tempo,,,,,240,1,0,419580,,,,,
432720,note_on,,,,,4,0,1,,,,0,49,65
432720,note_on,,,,,0,0,1,,,,0,45,67
432724,note_off,,,,,4,0,1,,,,0,78,64
432732,note_off,,,,,8,0,1,,,,0,66,64
432840,note_on,,,,,0,0,1,,,,0,65,71
432840,note_on,,,,,108,0,1,,,,0,77,71
432850,note_off,,,,,10,0,1,,,,0,58,64
432856,note_off,,,,,6,0,1,,,,0,49,64
432882,note_off,,,,,26,0,1,,,,0,65,64
432888,note_off,,,,,6,0,1,,,,0,45,64
432890,note_off,,,,,2,0,1,,,,0,77,64
432964,note_on,,,,,74,0,1,,,,0,77,65
432964,note_on,,,,,0,0,1,,,,0,65,67
433088,note_on,,,,,0,0,1,,,,0,45,64
433088,note_on,,,,,124,0,1,,,,0,49,62
433092,note_on,,,,,4,0,1,,,,0,55,48
433096,note_off,,,,,4,0,1,,,,0,77,64
433106,note_off,,,,,10,0,1,,,,0,65,64
433204,set_tempo,,,,,484,1,0,416667,,,,,
433208,note_on,,,,,102,0,1,,,,0,76,62
433212,note_on,,,,,4,0,1,,,,0,64,67
433216,control_change,,,,,4,0,1,,64,0,0,,
433240,control_change,,,,,24,0,1,,64,127,0,,
433256,note_off,,,,,16,0,1,,,,0,64,64
433264,note_off,,,,,8,0,1,,,,0,76,64
433294,note_off,,,,,30,0,1,,,,0,49,64
433296,note_off,,,,,2,0,1,,,,0,55,64
433300,note_off,,,,,4,0,1,,,,0,45,64
433348,note_on,,,,,48,0,1,,,,0,76,66
433350,note_on,,,,,2,0,1,,,,0,64,74
433364,set_tempo,,,,,160,1,0,419580,,,,,
433474,note_on,,,,,124,0,1,,,,0,58,56
433480,note_on,,,,,6,0,1,,,,0,45,45
433484,note_off,,,,,4,0,1,,,,0,64,64
433486,note_on,,,,,0,0,1,,,,0,53,57
433486,note_off,,,,,2,0,1,,,,0,76,64
433500,note_on,,,,,14,0,1,,,,0,50,28
433524,set_tempo,,,,,160,1,0,422535,,,,,
433592,note_on,,,,,92,0,1,,,,0,75,63
433594,note_on,,,,,2,0,1,,,,0,63,59
433632,note_off,,,,,38,0,1,,,,0,63,64
433636,note_off,,,,,4,0,1,,,,0,75,64
433680,set_tempo,,,,,156,1,0,425532,,,,,
433690,note_off,,,,,54,0,1,,,,0,50,64
433696,note_off,,,,,6,0,1,,,,0,53,64
433700,note_off,,,,,4,0,1,,,,0,45,64
433714,note_on,,,,,14,0,1,,,,0,75,72
433716,note_off,,,,,2,0,1,,,,0,58,64
433716,note_on,,,,,0,0,1,,,,0,63,66
433830,note_on,,,,,0,0,1,,,,0,45,62
433830,note_on,,,,,114,0,1,,,,0,58,60
433838,note_on,,,,,8,0,1,,,,0,53,61
433840,set_tempo,,,,,160,1,0,428571,,,,,
433846,note_on,,,,,8,0,1,,,,0,50,50
433856,note_off,,,,,10,0,1,,,,0,75,64
433866,control_change,,,,,10,0,1,,64,0,0,,
433874,note_off,,,,,8,0,1,,,,0,63,64
433878,control_change,,,,,4,0,1,,64,127,0,,
433948,note_on,,,,,70,0,1,,,,0,62,49
433956,note_on,,,,,8,0,1,,,,0,74,54
433988,note_off,,,,,32,0,1,,,,0,62,64
433992,note_off,,,,,4,0,1,,,,0,50,64
433994,note_off,,,,,2,0,1,,,,0,45,64
433996,note_off,,,,,2,0,1,,,,0,74,64
433998,note_off,,,,,2,0,1,,,,0,53,64
434000,set_tempo,,,,,160,1,0,431655,,,,,
434016,note_off,,,,,18,0,1,,,,0,58,64
434068,note_on,,,,,52,0,1,,,,0,74,68
434070,note_on,,,,,2,0,1,,,,0,62,69
434136,note_off,,,,,66,0,1,,,,0,62,64
434156,set_tempo,,,,,156,1,0,434783,,,,,
434166,note_off,,,,,30,0,1,,,,0,74,64
434186,note_on,,,,,20,0,1,,,,0,45,63
434188,note_on,,,,,2,0,1,,,,0,58,44
434196,note_on,,,,,8,0,1,,,,0,53,58
434202,note_on,,,,,6,0,1,,,,0,50,46
434310,note_on,,,,,108,0,1,,,,0,73,69
434312,note_on,,,,,2,0,1,,,,0,61,63
434348,note_off,,,,,36,0,1,,,,0,61,64
434350,note_off,,,,,2,0,1,,,,0,73,64
434380,note_off,,,,,30,0,1,,,,0,45,64
434388,note_off,,,,,8,0,1,,,,0,50,64
434400,note_off,,,,,12,0,1,,,,0,53,64
434414,note_off,,,,,14,0,1,,,,0,58,64
434424,note_on,,,,,10,0,1,,,,0,73,58
434428,note_on,,,,,4,0,1,,,,0,61,48
434512,note_off,,,,,84,0,1,,,,0,73,64
434544,note_on,,,,,32,0,1,,,,0,58,63
434548,note_on,,,,,4,0,1,,,,0,45,59
434552,note_on,,,,,4,0,1,,,,0,53,61
434560,note_off,,,,,8,0,1,,,,0,61,64
434562,note_on,,,,,2,0,1,,,,0,50,46
434596,control_change,,,,,34,0,1,,64,0,0,,
434600,control_change,,,,,4,0,1,,64,127,0,,
434666,note_on,,,,,66,0,1,,,,0,62,54
434670,note_off,,,,,4,0,1,,,,0,45,64
434672,note_on,,,,,2,0,1,,,,0,74,53
434680,note_off,,,,,8,0,1,,,,0,53,64
434688,note_off,,,,,8,0,1,,,,0,50,64
434704,note_off,,,,,16,0,1,,,,0,62,64
434708,note_off,,,,,4,0,1,,,,0,58,64
434714,note_off,,,,,6,0,1,,,,0,74,64
434788,note_on,,,,,74,0,1,,,,0,74,61
434790,note_on,,,,,2,0,1,,,,0,62,62
434900,note_on,,,,,110,0,1,,,,0,45,65
434904,note_on,,,,,4,0,1,,,,0,56,56
434906,note_on,,,,,2,0,1,,,,0,53,64
434910,note_on,,,,,4,0,1,,,,0,59,50
434914,note_off,,,,,4,0,1,,,,0,62,64
434956,note_off,,,,,42,0,1,,,,0,74,64
434976,control_change,,,,,20,0,1,,64,0,0,,
435046,note_on,,,,,70,0,1,,,,0,75,76
435052,control_change,,,,,6,0,1,,64,127,0,,
435054,note_on,,,,,2,0,1,,,,0,63,52
435060,note_off,,,,,6,0,1,,,,0,75,64
435068,note_off,,,,,8,0,1,,,,0,63,64
435158,note_off,,,,,0,0,1,,,,0,45,64
435158,note_off,,,,,90,0,1,,,,0,59,64
435158,note_off,,,,,0,0,1,,,,0,56,64
435164,note_off,,,,,6,0,1,,,,0,53,64
435168,note_on,,,,,0,0,1,,,,0,63,59
435168,note_on,,,,,4,0,1,,,,0,75,69
435278,note_on,,,,,110,0,1,,,,0,45,53
435282,note_on,,,,,4,0,1,,,,0,53,60
435284,note_on,,,,,2,0,1,,,,0,56,59
435288,note_on,,,,,4,0,1,,,,0,59,56
435304,note_off,,,,,16,0,1,,,,0,63,64
435324,note_off,,,,,20,0,1,,,,0,75,64
435404,note_on,,,,,80,0,1,,,,0,64,69
435406,note_on,,,,,2,0,1,,,,0,76,64
435412,control_change,,,,,6,0,1,,64,0,0,,
435442,control_change,,,,,30,0,1,,64,127,0,,
435448,note_off,,,,,6,0,1,,,,0,64,64
435456,note_off,,,,,8,0,1,,,,0,76,64
435542,note_off,,,,,86,0,1,,,,0,59,64
435544,note_on,,,,,2,0,1,,,,0,76,63
435546,note_on,,,,,2,0,1,,,,0,64,67
435552,note_off,,,,,6,0,1,,,,0,56,64
435552,note_off,,,,,0,0,1,,,,0,53,64
435558,note_off,,,,,6,0,1,,,,0,45,64
435656,note_off,,,,,98,0,1,,,,0,64,64
435664,note_on,,,,,8,0,1,,,,0,56,40
435666,note_on,,,,,2,0,1,,,,0,53,63
435666,note_on,,,,,0,0,1,,,,0,45,51
435672,note_off,,,,,6,0,1,,,,0,76,64
435674,note_on,,,,,2,0,1,,,,0,59,55
435808,note_on,,,,,0,0,1,,,,0,65,58
435808,note_on,,,,,134,0,1,,,,0,77,61
435822,control_change,,,,,14,0,1,,64,0,0,,
435830,control_change,,,,,8,0,1,,64,127,0,,
435868,note_off,,,,,38,0,1,,,,0,65,64
435876,note_off,,,,,8,0,1,,,,0,77,64
435912,note_off,,,,,36,0,1,,,,0,56,64
435920,note_off,,,,,8,0,1,,,,0,45,64
435928,note_off,,,,,8,0,1,,,,0,59,64
435938,note_off,,,,,10,0,1,,,,0,53,64
435954,note_on,,,,,0,0,1,,,,0,65,59
435954,note_on,,,,,16,0,1,,,,0,77,59
435994,note_off,,,,,40,0,1,,,,0,77,64
436012,note_off,,,,,18,0,1,,,,0,65,64
436084,note_on,,,,,72,0,1,,,,0,59,56
436092,note_on,,,,,8,0,1,,,,0,53,56
436092,note_on,,,,,0,0,1,,,,0,45,37
436096,note_on,,,,,4,0,1,,,,0,50,62
436216,note_off,,,,,120,0,1,,,,0,59,64
436228,note_off,,,,,12,0,1,,,,0,53,64
436232,note_off,,,,,4,0,1,,,,0,45,64
436238,note_on,,,,,0,0,1,,,,0,68,62
436238,note_off,,,,,6,0,1,,,,0,50,64
436238,note_on,,,,,0,0,1,,,,0,56,56
436300,note_off,,,,,0,0,1,,,,0,68,64
436300,note_off,,,,,62,0,1,,,,0,56,64
436394,note_on,,,,,0,0,1,,,,0,56,53
436394,note_on,,,,,94,0,1,,,,0,68,60
436452,control_change,,,,,58,0,1,,64,0,0,,
436552,note_on,,,,,0,0,1,,,,0,45,37
436552,note_on,,,,,100,0,1,,,,0,52,56
436554,note_on,,,,,2,0,1,,,,0,49,53
436616,note_off,,,,,62,0,1,,,,0,56,64
436616,note_off,,,,,0,0,1,,,,0,68,64
436626,control_change,,,,,10,0,1,,64,127,0,,
436690,note_on,,,,,64,0,1,,,,0,57,55
436694,note_on,,,,,4,0,1,,,,0,69,63
436730,note_off,,,,,36,0,1,,,,0,57,64
436738,note_off,,,,,8,0,1,,,,0,69,64
436754,note_off,,,,,16,0,1,,,,0,45,64
436768,note_off,,,,,14,0,1,,,,0,49,64
436772,note_off,,,,,4,0,1,,,,0,52,64
436820,note_on,,,,,48,0,1,,,,0,69,70
436822,note_on,,,,,2,0,1,,,,0,57,67
436918,note_off,,,,,96,0,1,,,,0,57,64
436946,note_on,,,,,0,0,1,,,,0,45,62
436946,note_on,,,,,28,0,1,,,,0,49,51
436948,note_on,,,,,2,0,1,,,,0,52,54
436954,note_off,,,,,6,0,1,,,,0,69,64
437076,note_on,,,,,0,0,1,,,,0,69,75
437076,note_on,,,,,122,0,1,,,,0,81,79
437112,note_off,,,,,36,0,1,,,,0,69,64
437128,note_off,,,,,0,0,1,,,,0,49,64
437128,note_off,,,,,16,0,1,,,,0,81,64
437132,note_off,,,,,4,0,1,,,,0,52,64
437142,note_off,,,,,10,0,1,,,,0,45,64
437214,note_on,,,,,0,0,1,,,,0,69,83
437214,note_on,,,,,72,0,1,,,,0,81,84
437278,note_off,,,,,64,0,1,,,,0,69,64
437318,note_off,,,,,40,0,1,,,,0,81,64
437346,note_on,,,,,28,0,1,,,,0,49,74
437346,note_on,,,,,0,0,1,,,,0,45,80
437348,note_on,,,,,2,0,1,,,,0,52,74
437350,note_on,,,,,2,0,1,,,,0,57,79
437488,note_on,,,,,138,0,1,,,,0,94,92
437490,note_on,,,,,2,0,1,,,,0,82,80
437562,note_off,,,,,72,0,1,,,,0,82,64
437570,note_off,,,,,8,0,1,,,,0,94,64
437678,note_on,,,,,108,0,1,,,,0,94,103
437678,note_on,,,,,0,0,1,,,,0,82,100
437706,note_off,,,,,28,0,1,,,,0,49,64
437708,note_off,,,,,2,0,1,,,,0,57,64
437712,note_off,,,,,4,0,1,,,,0,45,64
437714,note_off,,,,,2,0,1,,,,0,52,64
437836,note_on,,,,,122,0,1,,,,0,52,78
437836,note_on,,,,,0,0,1,,,,0,49,81
437838,note_on,,,,,2,0,1,,,,0,57,86
437842,note_on,,,,,4,0,1,,,,0,45,83
437898,note_off,,,,,56,0,1,,,,0,94,64
437906,note_off,,,,,8,0,1,,,,0,82,64
438020,note_on,,,,,114,0,1,,,,0,81,82
438022,note_on,,,,,2,0,1,,,,0,93,85
438090,note_off,,,,,68,0,1,,,,0,81,64
438104,note_off,,,,,14,0,1,,,,0,93,64
438110,note_off,,,,,6,0,1,,,,0,57,64
438112,note_off,,,,,2,0,1,,,,0,49,64
438112,note_off,,,,,0,0,1,,,,0,52,64
438134,note_off,,,,,22,0,1,,,,0,45,64
438180,note_on,,,,,0,0,1,,,,0,81,88
438180,note_on,,,,,46,0,1,,,,0,93,90
438302,note_on,,,,,122,0,1,,,,0,58,75
438308,note_on,,,,,6,0,1,,,,0,52,71
438308,note_on,,,,,0,0,1,,,,0,49,71
438308,note_on,,,,,0,0,1,,,,0,45,73
438324,note_off,,,,,16,0,1,,,,0,81,64
438330,note_off,,,,,6,0,1,,,,0,93,64
438430,note_on,,,,,100,0,1,,,,0,92,87
438432,note_on,,,,,2,0,1,,,,0,80,88
438478,note_off,,,,,46,0,1,,,,0,80,64
438488,note_off,,,,,10,0,1,,,,0,92,64
438552,note_on,,,,,64,0,1,,,,0,92,87
438556,note_off,,,,,4,0,1,,,,0,49,64
438556,note_on,,,,,0,0,1,,,,0,80,87
438574,note_off,,,,,18,0,1,,,,0,45,64
438576,note_off,,,,,2,0,1,,,,0,58,64
438582,note_off,,,,,6,0,1,,,,0,52,64
438668,note_on,,,,,86,0,1,,,,0,58,81
438672,note_on,,,,,4,0,1,,,,0,52,77
438672,note_on,,,,,0,0,1,,,,0,45,68
438674,note_on,,,,,2,0,1,,,,0,49,74
438706,note_off,,,,,32,0,1,,,,0,80,64
438712,note_off,,,,,6,0,1,,,,0,92,64
438784,note_on,,,,,72,0,1,,,,0,79,81
438786,note_on,,,,,2,0,1,,,,0,91,79
438818,note_off,,,,,32,0,1,,,,0,79,64
438832,note_off,,,,,14,0,1,,,,0,91,64
438856,note_off,,,,,24,0,1,,,,0,52,64
438860,note_off,,,,,4,0,1,,,,0,49,64
438862,note_off,,,,,2,0,1,,,,0,58,64
438864,note_off,,,,,2,0,1,,,,0,45,64
438900,note_on,,,,,0,0,1,,,,0,79,79
438900,note_on,,,,,36,0,1,,,,0,91,80
438976,note_off,,,,,76,0,1,,,,0,79,64
438978,note_off,,,,,2,0,1,,,,0,91,64
439010,note_on,,,,,32,0,1,,,,0,58,77
439014,note_on,,,,,4,0,1,,,,0,49,72
439020,note_on,,,,,6,0,1,,,,0,45,74
439132,note_on,,,,,112,0,1,,,,0,90,80
439134,note_on,,,,,2,0,1,,,,0,78,77
439154,note_off,,,,,20,0,1,,,,0,58,64
439174,note_off,,,,,20,0,1,,,,0,49,64
439180,note_off,,,,,6,0,1,,,,0,78,64
439182,note_off,,,,,2,0,1,,,,0,45,64
439190,note_off,,,,,8,0,1,,,,0,90,64
439252,note_on,,,,,0,0,1,,,,0,78,79
439252,note_on,,,,,62,0,1,,,,0,90,78
439364,note_on,,,,,112,0,1,,,,0,45,74
439366,note_on,,,,,2,0,1,,,,0,55,62
439366,note_on,,,,,0,0,1,,,,0,49,70
439388,note_off,,,,,22,0,1,,,,0,90,64
439406,note_off,,,,,18,0,1,,,,0,78,64
439444,control_change,,,,,38,0,1,,64,0,0,,
439460,control_change,,,,,16,0,1,,64,127,0,,
439494,note_on,,,,,34,0,1,,,,0,89,72
439494,note_on,,,,,0,0,1,,,,0,77,71
439534,note_off,,,,,40,0,1,,,,0,55,64
439536,note_off,,,,,2,0,1,,,,0,77,64
439540,note_off,,,,,4,0,1,,,,0,49,64
439544,note_off,,,,,4,0,1,,,,0,45,64
439550,note_off,,,,,6,0,1,,,,0,89,64
439628,note_on,,,,,78,0,1,,,,0,89,74
439628,note_on,,,,,0,0,1,,,,0,77,70
439750,note_on,,,,,122,0,1,,,,0,58,62
439750,note_on,,,,,0,0,1,,,,0,45,63
439760,note_on,,,,,10,0,1,,,,0,53,66
439764,note_off,,,,,4,0,1,,,,0,89,64
439766,note_on,,,,,2,0,1,,,,0,50,53
439770,note_off,,,,,4,0,1,,,,0,77,64
439880,note_on,,,,,110,0,1,,,,0,88,70
439884,note_on,,,,,4,0,1,,,,0,76,59
439918,note_off,,,,,34,0,1,,,,0,76,64
439928,note_off,,,,,10,0,1,,,,0,88,64
439998,note_off,,,,,70,0,1,,,,0,50,64
440006,note_off,,,,,8,0,1,,,,0,53,64
440006,note_on,,,,,0,0,1,,,,0,88,68
440008,note_on,,,,,0,0,1,,,,0,76,57
440008,note_off,,,,,2,0,1,,,,0,45,64
440026,note_off,,,,,18,0,1,,,,0,58,64
440114,note_off,,,,,88,0,1,,,,0,76,64
440120,note_on,,,,,6,0,1,,,,0,58,62
440124,note_on,,,,,4,0,1,,,,0,45,66
440128,note_off,,,,,4,0,1,,,,0,88,64
440130,note_on,,,,,2,0,1,,,,0,53,60
440140,note_on,,,,,10,0,1,,,,0,50,44
440240,note_on,,,,,100,0,1,,,,0,87,70
440242,note_on,,,,,2,0,1,,,,0,75,56
440284,note_off,,,,,42,0,1,,,,0,87,64
440288,note_off,,,,,4,0,1,,,,0,75,64
440356,note_off,,,,,68,0,1,,,,0,50,64
440360,note_on,,,,,4,0,1,,,,0,87,72
440366,note_on,,,,,6,0,1,,,,0,75,62
440368,note_off,,,,,2,0,1,,,,0,45,64
440372,note_off,,,,,4,0,1,,,,0,53,64
440378,note_off,,,,,6,0,1,,,,0,58,64
440478,note_on,,,,,100,0,1,,,,0,58,58
440484,note_off,,,,,6,0,1,,,,0,87,64
440484,note_on,,,,,0,0,1,,,,0,45,63
440492,note_on,,,,,8,0,1,,,,0,53,56
440500,note_on,,,,,8,0,1,,,,0,50,43
440502,note_off,,,,,2,0,1,,,,0,75,64
440606,note_on,,,,,104,0,1,,,,0,85,62
440608,note_on,,,,,2,0,1,,,,0,73,59
440648,note_off,,,,,40,0,1,,,,0,85,64
440652,note_off,,,,,4,0,1,,,,0,73,64
440688,note_off,,,,,36,0,1,,,,0,50,64
440704,note_off,,,,,16,0,1,,,,0,53,64
440708,note_off,,,,,4,0,1,,,,0,45,64
440734,note_off,,,,,26,0,1,,,,0,58,64
440742,note_on,,,,,8,0,1,,,,0,85,67
440744,note_on,,,,,2,0,1,,,,0,73,54
440858,note_off,,,,,114,0,1,,,,0,85,64
440862,note_on,,,,,4,0,1,,,,0,45,56
440864,note_on,,,,,2,0,1,,,,0,58,53
440872,note_on,,,,,8,0,1,,,,0,53,60
440878,note_on,,,,,6,0,1,,,,0,50,46
440900,note_off,,,,,22,0,1,,,,0,73,64
440996,note_on,,,,,96,0,1,,,,0,86,66
441004,control_change,,,,,0,0,1,,64,0,0,,
441004,note_on,,,,,8,0,1,,,,0,74,30
441020,control_change,,,,,16,0,1,,64,127,0,,
441044,note_off,,,,,24,0,1,,,,0,86,64
441052,note_off,,,,,8,0,1,,,,0,74,64
441106,note_off,,,,,54,0,1,,,,0,50,64
441118,note_off,,,,,12,0,1,,,,0,53,64
441120,note_off,,,,,2,0,1,,,,0,45,64
441128,note_on,,,,,0,0,1,,,,0,74,60
441128,note_on,,,,,0,0,1,,,,0,86,67
441128,note_off,,,,,8,0,1,,,,0,58,64
441234,note_off,,,,,106,0,1,,,,0,86,64
441236,note_off,,,,,2,0,1,,,,0,74,64
441252,note_on,,,,,16,0,1,,,,0,59,62
441254,note_on,,,,,2,0,1,,,,0,45,57
441262,note_on,,,,,8,0,1,,,,0,56,60
441264,note_on,,,,,2,0,1,,,,0,53,48
441346,note_off,,,,,82,0,1,,,,0,45,64
441350,note_off,,,,,4,0,1,,,,0,56,64
441352,note_off,,,,,2,0,1,,,,0,53,64
441380,note_off,,,,,28,0,1,,,,0,59,64
441388,note_on,,,,,8,0,1,,,,0,87,71
441390,note_on,,,,,2,0,1,,,,0,75,56
441432,note_off,,,,,42,0,1,,,,0,75,64
441434,note_off,,,,,2,0,1,,,,0,87,64
441520,note_on,,,,,86,0,1,,,,0,87,70
441524,note_on,,,,,4,0,1,,,,0,75,54
441620,note_on,,,,,0,0,1,,,,0,45,54
441620,note_on,,,,,96,0,1,,,,0,53,46
441624,note_on,,,,,4,0,1,,,,0,56,30
441630,note_on,,,,,6,0,1,,,,0,59,48
441670,control_change,,,,,40,0,1,,64,0,0,,
441700,note_off,,,,,30,0,1,,,,0,87,64
441724,note_off,,,,,24,0,1,,,,0,75,64
441736,control_change,,,,,12,0,1,,64,127,0,,
441760,note_on,,,,,24,0,1,,,,0,88,55
441768,note_on,,,,,8,0,1,,,,0,76,55
441800,note_off,,,,,32,0,1,,,,0,76,64
441804,note_off,,,,,4,0,1,,,,0,88,64
441836,note_off,,,,,32,0,1,,,,0,59,64
441840,note_off,,,,,4,0,1,,,,0,45,64
441852,note_off,,,,,12,0,1,,,,0,53,64
441856,note_off,,,,,4,0,1,,,,0,56,64
441892,note_on,,,,,36,0,1,,,,0,88,51
441892,note_on,,,,,0,0,1,,,,0,76,53
441944,note_off,,,,,52,0,1,,,,0,76,64
441972,note_off,,,,,28,0,1,,,,0,88,64
442008,note_on,,,,,36,0,1,,,,0,45,48
442012,note_on,,,,,4,0,1,,,,0,59,53
442016,note_on,,,,,4,0,1,,,,0,53,60
442018,note_on,,,,,2,0,1,,,,0,50,59
442144,note_on,,,,,126,0,1,,,,0,89,62
442150,note_on,,,,,6,0,1,,,,0,77,52
442176,note_off,,,,,26,0,1,,,,0,45,64
442194,note_off,,,,,18,0,1,,,,0,77,64
442196,note_off,,,,,0,0,1,,,,0,53,64
442196,note_off,,,,,2,0,1,,,,0,89,64
442196,note_off,,,,,0,0,1,,,,0,50,64
442200,note_off,,,,,4,0,1,,,,0,59,64
442286,note_on,,,,,86,0,1,,,,0,89,57
442290,note_on,,,,,4,0,1,,,,0,77,50
442364,note_off,,,,,74,0,1,,,,0,89,64
442378,note_off,,,,,14,0,1,,,,0,77,64
442424,note_on,,,,,46,0,1,,,,0,45,42
442434,note_on,,,,,10,0,1,,,,0,59,36
442438,note_on,,,,,4,0,1,,,,0,53,47
442442,note_on,,,,,4,0,1,,,,0,50,53
442582,note_on,,,,,140,0,1,,,,0,80,66
442582,note_on,,,,,0,0,1,,,,0,68,56
442612,note_off,,,,,30,0,1,,,,0,53,64
442618,note_off,,,,,6,0,1,,,,0,50,64
442620,note_off,,,,,2,0,1,,,,0,59,64
442626,note_off,,,,,6,0,1,,,,0,45,64
442632,note_off,,,,,6,0,1,,,,0,68,64
442636,note_off,,,,,4,0,1,,,,0,80,64
442736,note_on,,,,,0,0,1,,,,0,68,69
442736,note_on,,,,,100,0,1,,,,0,80,67
442870,control_change,,,,,134,0,1,,64,0,0,,
442886,note_on,,,,,0,0,1,,,,0,45,63
442886,note_on,,,,,16,0,1,,,,0,57,67
442888,note_on,,,,,2,0,1,,,,0,49,57
442892,note_on,,,,,4,0,1,,,,0,52,60
442944,control_change,,,,,52,0,1,,64,127,0,,
442968,note_off,,,,,24,0,1,,,,0,68,64
442974,note_off,,,,,6,0,1,,,,0,80,64
443030,note_off,,,,,56,0,1,,,,0,45,64
443032,note_on,,,,,2,0,1,,,,0,81,70
443032,note_on,,,,,0,0,1,,,,0,69,63
443046,note_off,,,,,14,0,1,,,,0,52,64
443048,note_off,,,,,2,0,1,,,,0,49,64
443050,note_off,,,,,2,0,1,,,,0,57,64
443072,note_off,,,,,22,0,1,,,,0,69,64
443082,note_off,,,,,10,0,1,,,,0,81,64
443168,note_on,,,,,86,0,1,,,,0,81,72
443172,note_on,,,,,4,0,1,,,,0,69,69
443218,note_off,,,,,46,0,1,,,,0,81,64
443240,note_off,,,,,22,0,1,,,,0,69,64
443294,note_on,,,,,54,0,1,,,,0,61,72
443298,note_on,,,,,4,0,1,,,,0,57,71
443336,control_change,,,,,38,0,1,,64,0,0,,
443392,control_change,,,,,56,0,1,,64,127,0,,
443424,note_on,,,,,32,0,1,,,,0,76,63
443424,note_on,,,,,0,0,1,,,,0,64,59
443468,note_off,,,,,44,0,1,,,,0,64,64
443478,note_off,,,,,10,0,1,,,,0,76,64
443488,note_off,,,,,10,0,1,,,,0,57,64
443496,note_off,,,,,8,0,1,,,,0,61,64
443558,note_on,,,,,0,0,1,,,,0,76,67
443558,note_on,,,,,62,0,1,,,,0,64,67
443656,note_off,,,,,98,0,1,,,,0,64,64
443678,note_off,,,,,22,0,1,,,,0,76,64
443688,note_on,,,,,10,0,1,,,,0,62,61
443692,note_on,,,,,4,0,1,,,,0,57,70
443692,note_on,,,,,0,0,1,,,,0,59,63
443758,control_change,,,,,66,0,1,,64,0,0,,
443762,control_change,,,,,4,0,1,,64,127,0,,
443832,note_on,,,,,70,0,1,,,,0,77,67
443834,note_off,,,,,2,0,1,,,,0,62,64
443836,note_on,,,,,2,0,1,,,,0,65,57
443844,note_off,,,,,8,0,1,,,,0,59,64
443860,note_off,,,,,16,0,1,,,,0,57,64
443876,note_off,,,,,16,0,1,,,,0,65,64
443882,note_off,,,,,6,0,1,,,,0,77,64
443974,note_on,,,,,92,0,1,,,,0,65,60
443976,note_on,,,,,2,0,1,,,,0,77,60
444008,note_off,,,,,32,0,1,,,,0,77,64
444016,note_off,,,,,8,0,1,,,,0,65,64
444116,note_on,,,,,100,0,1,,,,0,53,60
444116,note_on,,,,,0,0,1,,,,0,45,61
444120,note_on,,,,,4,0,1,,,,0,50,60
444168,control_change,,,,,48,0,1,,64,0,0,,
444256,note_on,,,,,0,0,1,,,,0,56,48
444256,note_on,,,,,88,0,1,,,,0,68,65
444268,control_change,,,,,12,0,1,,64,127,0,,
444304,note_off,,,,,36,0,1,,,,0,56,64
444308,note_off,,,,,4,0,1,,,,0,68,64
444374,note_off,,,,,66,0,1,,,,0,50,64
444382,note_off,,,,,8,0,1,,,,0,53,64
444388,note_off,,,,,6,0,1,,,,0,45,64
444400,note_on,,,,,12,0,1,,,,0,68,63
444402,note_on,,,,,2,0,1,,,,0,56,51
444552,note_on,,,,,0,0,1,,,,0,52,49
444552,note_on,,,,,150,0,1,,,,0,45,47
444554,note_on,,,,,2,0,1,,,,0,49,59
444584,control_change,,,,,30,0,1,,64,0,0,,
444590,note_off,,,,,6,0,1,,,,0,56,64
444622,note_off,,,,,32,0,1,,,,0,68,64
444696,control_change,,,,,74,0,1,,64,127,0,,
444708,note_on,,,,,12,0,1,,,,0,69,63
444712,note_on,,,,,4,0,1,,,,0,57,52
444752,note_off,,,,,40,0,1,,,,0,57,64
444762,note_off,,,,,10,0,1,,,,0,69,64
444842,note_off,,,,,80,0,1,,,,0,45,64
444844,note_off,,,,,2,0,1,,,,0,49,64
444848,note_off,,,,,4,0,1,,,,0,52,64
444864,note_on,,,,,16,0,1,,,,0,69,62
444866,note_on,,,,,2,0,1,,,,0,57,57
444960,note_off,,,,,94,0,1,,,,0,69,64
444986,note_off,,,,,26,0,1,,,,0,57,64
445014,note_on,,,,,28,0,1,,,,0,49,53
445020,note_on,,,,,6,0,1,,,,0,45,46
445132,control_change,,,,,112,0,1,,64,0,0,,
445176,note_on,,,,,44,0,1,,,,0,64,59
445180,note_on,,,,,4,0,1,,,,0,52,48
445220,control_change,,,,,40,0,1,,64,127,0,,
445262,note_off,,,,,0,0,1,,,,0,64,64
445262,note_off,,,,,42,0,1,,,,0,52,64
445318,note_off,,,,,56,0,1,,,,0,45,64
445328,note_off,,,,,10,0,1,,,,0,49,64
445360,note_on,,,,,32,0,1,,,,0,64,55
445368,note_on,,,,,8,0,1,,,,0,52,38
445542,note_on,,,,,174,0,1,,,,0,45,43
445548,note_on,,,,,6,0,1,,,,0,50,34
445558,note_on,,,,,10,0,1,,,,0,47,39
445628,note_off,,,,,70,0,1,,,,0,52,64
445632,note_off,,,,,4,0,1,,,,0,64,64
445774,note_on,,,,,142,0,1,,,,0,65,54
445778,note_on,,,,,4,0,1,,,,0,53,54
445780,control_change,,,,,2,0,1,,64,0,0,,
445874,control_change,,,,,94,0,1,,64,127,0,,
445920,note_off,,,,,46,0,1,,,,0,65,64
445928,note_off,,,,,8,0,1,,,,0,53,64
446070,note_on,,,,,142,0,1,,,,0,65,54
446074,note_on,,,,,4,0,1,,,,0,53,55
446120,control_change,,,,,46,0,1,,64,0,0,,
446244,control_change,,,,,124,0,1,,64,127,0,,
446318,note_off,,,,,74,0,1,,,,0,53,64
446340,note_off,,,,,22,0,1,,,,0,65,64
446340,note_off,,,,,0,0,1,,,,0,50,64
446346,note_off,,,,,6,0,1,,,,0,45,64
446352,note_off,,,,,6,0,1,,,,0,47,64
446620,control_change,,,,,268,0,1,,64,0,0,,
447064,note_on,,,,,444,0,1,,,,0,56,52
447068,note_on,,,,,4,0,1,,,,0,44,53
447100,control_change,,,,,32,0,1,,64,127,0,,
447144,note_off,,,,,44,0,1,,,,0,44,64
447148,note_off,,,,,4,0,1,,,,0,56,64
447344,note_on,,,,,196,0,1,,,,0,44,59
447346,note_on,,,,,2,0,1,,,,0,56,36
447380,control_change,,,,,34,0,1,,64,0,0,,
447582,control_change,,,,,202,0,1,,64,127,0,,
447736,note_off,,,,,154,0,1,,,,0,44,64
447744,note_off,,,,,8,0,1,,,,0,56,64
447988,control_change,,,,,244,0,1,,64,0,0,,
448112,note_on,,,,,124,0,1,,,,0,57,48
448116,note_on,,,,,4,0,1,,,,0,45,21
448150,control_change,,,,,34,0,1,,64,127,0,,
448222,note_off,,,,,72,0,1,,,,0,45,64
448226,note_off,,,,,4,0,1,,,,0,57,64
448440,note_on,,,,,214,0,1,,,,0,57,47
448442,note_on,,,,,2,0,1,,,,0,45,34
448504,control_change,,,,,62,0,1,,64,0,0,,
448784,control_change,,,,,280,0,1,,64,127,0,,
448870,note_off,,,,,86,0,1,,,,0,57,64
448916,note_off,,,,,46,0,1,,,,0,45,64
449256,control_change,,,,,340,0,1,,67,127,0,,
449442,control_change,,,,,186,0,1,,64,0,0,,
449584,note_on,,,,,142,0,1,,,,0,46,67
449590,note_on,,,,,6,0,1,,,,0,58,65
449620,note_off,,,,,30,0,1,,,,0,46,64
449624,note_off,,,,,4,0,1,,,,0,58,64
449648,note_on,,,,,24,0,1,,,,0,58,65
449650,note_on,,,,,2,0,1,,,,0,46,69
449870,control_change,,,,,220,0,1,,64,127,0,,
450084,note_off,,,,,214,0,1,,,,0,46,64
450148,note_off,,,,,64,0,1,,,,0,58,64
450746,note_on,,,,,598,0,1,,,,0,39,48
450750,note_on,,,,,4,0,1,,,,0,51,62
450764,note_off,,,,,14,0,1,,,,0,51,64
450766,note_off,,,,,2,0,1,,,,0,39,64
450806,note_on,,,,,40,0,1,,,,0,39,53
450808,note_on,,,,,2,0,1,,,,0,51,63
451170,note_off,,,,,362,0,1,,,,0,39,64
451190,note_off,,,,,20,0,1,,,,0,51,64
451718,note_on,,,,,528,0,1,,,,0,34,44
451720,note_on,,,,,0,0,1,,,,0,22,44
451720,note_on,,,,,2,0,1,,,,0,46,66
451746,note_off,,,,,26,0,1,,,,0,34,64
451748,note_off,,,,,2,0,1,,,,0,22,64
451756,note_off,,,,,8,0,1,,,,0,46,64
451796,note_on,,,,,0,0,1,,,,0,22,54
451796,note_on,,,,,40,0,1,,,,0,34,62
451798,note_on,,,,,2,0,1,,,,0,46,67
452828,note_on,,,,,1030,0,1,,,,0,61,47
452838,note_on,,,,,10,0,1,,,,0,52,52
452844,note_on,,,,,6,0,1,,,,0,55,55
452920,control_change,,,,,76,0,1,,64,0,0,,
453126,control_change,,,,,206,0,1,,64,127,0,,
453300,note_off,,,,,174,0,1,,,,0,34,64
453302,note_off,,,,,2,0,1,,,,0,22,64
453328,note_off,,,,,26,0,1,,,,0,61,64
453358,note_off,,,,,30,0,1,,,,0,52,64
453372,note_off,,,,,14,0,1,,,,0,55,64
453390,note_off,,,,,18,0,1,,,,0,46,64
453470,control_change,,,,,80,0,1,,67,0,0,,
453878,note_on,,,,,408,0,1,,,,0,45,49
453880,note_on,,,,,2,0,1,,,,0,21,47
453882,note_on,,,,,2,0,1,,,,0,33,38
453902,control_change,,,,,20,0,1,,64,0,0,,
453974,note_off,,,,,72,0,1,,,,0,45,64
453992,note_off,,,,,18,0,1,,,,0,33,64
453992,note_off,,,,,0,0,1,,,,0,21,64
454940,set_tempo,,,,,20784,1,0,441176,,,,,
454972,set_tempo,,,,,32,1,0,444444,,,,,
455028,set_tempo,,,,,56,1,0,447761,,,,,
455060,set_tempo,,,,,32,1,0,451128,,,,,
455072,note_on,,,,,1080,0,1,,,,0,74,53
455088,set_tempo,,,,,28,1,0,454545,,,,,
455116,set_tempo,,,,,28,1,0,458015,,,,,
455144,note_on,,,,,72,0,1,,,,0,78,42
455146,note_on,,,,,2,0,1,,,,0,81,40
455148,note_on,,,,,2,0,1,,,,0,86,43
455148,set_tempo,,,,,32,1,0,461538,,,,,
455176,set_tempo,,,,,28,1,0,465116,,,,,
455204,set_tempo,,,,,28,1,0,468750,,,,,
455236,control_change,,,,,88,0,1,,64,127,0,,
455280,note_on,,,,,0,0,1,,,,0,90,35
455280,note_off,,,,,44,0,1,,,,0,86,64
455280,note_off,,,,,0,0,1,,,,0,81,64
455376,note_off,,,,,96,0,1,,,,0,90,64
455378,note_on,,,,,2,0,1,,,,0,86,38
455384,note_on,,,,,6,0,1,,,,0,81,27
455430,note_off,,,,,46,0,1,,,,0,81,64
455440,note_off,,,,,10,0,1,,,,0,86,64
455446,note_on,,,,,6,0,1,,,,0,90,44
455508,note_off,,,,,62,0,1,,,,0,90,64
455516,note_on,,,,,8,0,1,,,,0,86,44
455518,note_on,,,,,2,0,1,,,,0,81,40
455558,note_off,,,,,40,0,1,,,,0,81,64
455564,note_off,,,,,6,0,1,,,,0,86,64
455570,note_on,,,,,6,0,1,,,,0,90,38
455626,note_off,,,,,56,0,1,,,,0,90,64
455630,note_on,,,,,4,0,1,,,,0,86,39
455632,note_on,,,,,2,0,1,,,,0,81,36
455660,note_off,,,,,28,0,1,,,,0,81,64
455674,note_off,,,,,14,0,1,,,,0,86,64
455680,note_on,,,,,6,0,1,,,,0,90,39
455722,note_off,,,,,42,0,1,,,,0,90,64
455730,note_on,,,,,8,0,1,,,,0,81,41
455732,note_on,,,,,2,0,1,,,,0,86,49
455752,note_off,,,,,20,0,1,,,,0,81,64
455770,note_on,,,,,0,0,1,,,,0,90,49
455770,note_off,,,,,18,0,1,,,,0,86,64
455808,note_off,,,,,38,0,1,,,,0,90,64
455830,note_on,,,,,22,0,1,,,,0,81,30
455832,note_on,,,,,2,0,1,,,,0,86,45
455850,note_off,,,,,18,0,1,,,,0,81,64
455866,note_on,,,,,16,0,1,,,,0,90,41
455868,note_off,,,,,2,0,1,,,,0,86,64
455900,note_off,,,,,32,0,1,,,,0,90,64
455922,note_on,,,,,22,0,1,,,,0,81,36
455926,note_on,,,,,4,0,1,,,,0,86,43
455940,note_off,,,,,14,0,1,,,,0,81,64
455950,note_off,,,,,10,0,1,,,,0,86,64
455964,note_on,,,,,14,0,1,,,,0,90,40
455994,note_off,,,,,30,0,1,,,,0,90,64
456014,note_on,,,,,20,0,1,,,,0,81,44
456020,note_on,,,,,6,0,1,,,,0,86,39
456032,note_off,,,,,12,0,1,,,,0,81,64
456054,note_off,,,,,22,0,1,,,,0,78,64
456064,note_on,,,,,0,0,1,,,,0,72,31
456064,note_on,,,,,10,0,1,,,,0,90,52
456070,note_off,,,,,6,0,1,,,,0,86,64
456102,note_off,,,,,32,0,1,,,,0,90,64
456108,note_off,,,,,6,0,1,,,,0,74,64
456140,note_on,,,,,32,0,1,,,,0,84,46
456144,note_on,,,,,4,0,1,,,,0,88,43
456144,note_on,,,,,0,0,1,,,,0,79,59
456178,note_off,,,,,34,0,1,,,,0,84,64
456200,note_off,,,,,22,0,1,,,,0,88,64
456202,control_change,,,,,2,0,1,,64,0,0,,
456214,note_on,,,,,12,0,1,,,,0,91,41
456258,note_off,,,,,44,0,1,,,,0,91,64
456274,note_on,,,,,16,0,1,,,,0,88,31
456276,control_change,,,,,2,0,1,,64,127,0,,
456280,note_on,,,,,4,0,1,,,,0,84,34
456296,note_off,,,,,16,0,1,,,,0,84,64
456310,note_off,,,,,14,0,1,,,,0,88,64
456320,note_on,,,,,10,0,1,,,,0,91,38
456340,note_off,,,,,20,0,1,,,,0,91,64
456372,note_on,,,,,32,0,1,,,,0,88,38
456376,note_on,,,,,4,0,1,,,,0,84,34
456392,note_off,,,,,16,0,1,,,,0,84,64
456398,note_off,,,,,6,0,1,,,,0,88,64
456420,note_on,,,,,22,0,1,,,,0,91,36
456436,note_off,,,,,16,0,1,,,,0,91,64
456470,note_on,,,,,34,0,1,,,,0,88,36
456476,note_on,,,,,6,0,1,,,,0,84,23
456490,note_off,,,,,14,0,1,,,,0,84,64
456494,note_off,,,,,4,0,1,,,,0,88,64
456512,note_on,,,,,18,0,1,,,,0,91,34
456530,note_off,,,,,18,0,1,,,,0,91,64
456562,note_on,,,,,32,0,1,,,,0,88,38
456570,note_on,,,,,8,0,1,,,,0,84,12
456584,note_off,,,,,0,0,1,,,,0,88,64
456584,note_off,,,,,14,0,1,,,,0,84,64
456602,note_on,,,,,18,0,1,,,,0,91,36
456618,note_off,,,,,16,0,1,,,,0,91,64
456650,note_on,,,,,32,0,1,,,,0,88,40
456656,note_on,,,,,6,0,1,,,,0,84,34
456668,note_off,,,,,12,0,1,,,,0,88,64
456672,note_off,,,,,4,0,1,,,,0,84,64
456696,note_on,,,,,24,0,1,,,,0,91,32
456712,note_off,,,,,16,0,1,,,,0,91,64
456744,note_on,,,,,32,0,1,,,,0,88,33
456746,note_on,,,,,2,0,1,,,,0,84,33
456760,note_off,,,,,14,0,1,,,,0,84,64
456764,note_off,,,,,4,0,1,,,,0,88,64
456784,note_on,,,,,20,0,1,,,,0,91,35
456804,note_off,,,,,20,0,1,,,,0,91,64
456834,note_on,,,,,30,0,1,,,,0,88,39
456840,note_on,,,,,6,0,1,,,,0,84,19
456856,note_off,,,,,16,0,1,,,,0,84,64
456864,note_off,,,,,8,0,1,,,,0,88,64
456878,note_on,,,,,14,0,1,,,,0,91,37
456902,note_off,,,,,24,0,1,,,,0,91,64
456928,note_on,,,,,26,0,1,,,,0,88,48
456928,note_on,,,,,0,0,1,,,,0,84,43
456952,note_off,,,,,24,0,1,,,,0,84,64
456960,note_off,,,,,8,0,1,,,,0,88,64
456976,note_on,,,,,16,0,1,,,,0,91,36
456994,note_off,,,,,18,0,1,,,,0,91,64
457024,note_on,,,,,30,0,1,,,,0,88,32
457028,note_on,,,,,4,0,1,,,,0,84,25
457044,note_off,,,,,16,0,1,,,,0,84,64
457046,note_off,,,,,2,0,1,,,,0,88,64
457066,note_on,,,,,20,0,1,,,,0,91,37
457086,note_off,,,,,20,0,1,,,,0,91,64
457120,note_on,,,,,34,0,1,,,,0,88,35
457122,note_on,,,,,2,0,1,,,,0,84,34
457142,note_off,,,,,20,0,1,,,,0,84,64
457144,note_off,,,,,2,0,1,,,,0,88,64
457168,note_on,,,,,24,0,1,,,,0,91,35
457190,note_off,,,,,22,0,1,,,,0,91,64
457224,note_on,,,,,34,0,1,,,,0,88,31
457228,note_on,,,,,4,0,1,,,,0,84,29
457244,note_off,,,,,16,0,1,,,,0,84,64
457252,note_off,,,,,8,0,1,,,,0,88,64
457266,note_on,,,,,14,0,1,,,,0,91,36
457286,note_off,,,,,20,0,1,,,,0,91,64
457316,note_on,,,,,30,0,1,,,,0,88,47
457316,note_on,,,,,0,0,1,,,,0,84,43
457340,note_off,,,,,24,0,1,,,,0,84,64
457348,note_off,,,,,8,0,1,,,,0,88,64
457360,note_on,,,,,12,0,1,,,,0,91,39
457380,note_off,,,,,20,0,1,,,,0,91,64
457418,note_on,,,,,38,0,1,,,,0,88,32
457422,note_on,,,,,4,0,1,,,,0,84,22
457438,note_off,,,,,16,0,1,,,,0,84,64
457444,note_off,,,,,6,0,1,,,,0,88,64
457460,note_on,,,,,16,0,1,,,,0,91,36
457488,note_off,,,,,28,0,1,,,,0,91,64
457518,note_on,,,,,30,0,1,,,,0,88,37
457520,note_on,,,,,2,0,1,,,,0,84,33
457540,note_off,,,,,20,0,1,,,,0,84,64
457546,note_off,,,,,6,0,1,,,,0,88,64
457564,note_on,,,,,18,0,1,,,,0,91,39
457592,note_off,,,,,28,0,1,,,,0,91,64
457624,note_on,,,,,32,0,1,,,,0,88,32
457626,note_on,,,,,2,0,1,,,,0,84,30
457644,note_off,,,,,18,0,1,,,,0,84,64
457668,note_on,,,,,0,0,1,,,,0,74,43
457668,note_on,,,,,0,0,1,,,,0,91,43
457668,note_off,,,,,24,0,1,,,,0,88,64
457680,note_off,,,,,12,0,1,,,,0,79,64
457696,note_off,,,,,16,0,1,,,,0,91,64
457724,note_off,,,,,28,0,1,,,,0,72,64
457746,note_on,,,,,22,0,1,,,,0,81,46
457748,note_on,,,,,2,0,1,,,,0,86,45
457752,note_on,,,,,4,0,1,,,,0,78,50
457796,note_off,,,,,44,0,1,,,,0,81,64
457816,control_change,,,,,20,0,1,,64,0,0,,
457822,note_off,,,,,6,0,1,,,,0,86,64
457828,note_on,,,,,6,0,1,,,,0,90,39
457876,note_off,,,,,48,0,1,,,,0,90,64
457892,note_on,,,,,16,0,1,,,,0,86,36
457894,note_on,,,,,2,0,1,,,,0,81,40
457894,control_change,,,,,0,0,1,,64,127,0,,
457914,note_off,,,,,20,0,1,,,,0,81,64
457924,note_off,,,,,10,0,1,,,,0,86,64
457940,note_on,,,,,16,0,1,,,,0,90,45
457976,note_off,,,,,36,0,1,,,,0,90,64
457994,note_on,,,,,18,0,1,,,,0,86,43
457996,note_on,,,,,2,0,1,,,,0,81,39
458016,note_off,,,,,20,0,1,,,,0,81,64
458032,note_on,,,,,0,0,1,,,,0,90,41
458032,note_off,,,,,16,0,1,,,,0,86,64
458068,note_off,,,,,36,0,1,,,,0,90,64
458084,note_on,,,,,16,0,1,,,,0,86,49
458086,note_on,,,,,2,0,1,,,,0,81,44
458108,note_off,,,,,22,0,1,,,,0,81,64
458116,note_off,,,,,8,0,1,,,,0,86,64
458124,note_on,,,,,8,0,1,,,,0,90,42
458158,note_off,,,,,34,0,1,,,,0,90,64
458176,note_on,,,,,18,0,1,,,,0,81,41
458178,note_on,,,,,2,0,1,,,,0,86,48
458196,note_off,,,,,18,0,1,,,,0,81,64
458208,note_off,,,,,12,0,1,,,,0,86,64
458212,note_on,,,,,4,0,1,,,,0,90,45
458248,note_off,,,,,36,0,1,,,,0,90,64
458266,note_on,,,,,0,0,1,,,,0,81,42
458266,note_on,,,,,18,0,1,,,,0,86,49
458286,note_off,,,,,20,0,1,,,,0,81,64
458302,note_off,,,,,16,0,1,,,,0,86,64
458304,note_on,,,,,2,0,1,,,,0,90,51
458336,note_off,,,,,32,0,1,,,,0,90,64
458356,note_on,,,,,20,0,1,,,,0,81,41
458358,note_on,,,,,2,0,1,,,,0,86,51
458378,note_off,,,,,20,0,1,,,,0,81,64
458396,note_off,,,,,18,0,1,,,,0,86,64
458396,note_on,,,,,0,0,1,,,,0,90,48
458426,note_off,,,,,30,0,1,,,,0,90,64
458442,note_on,,,,,16,0,1,,,,0,81,46
458444,note_on,,,,,2,0,1,,,,0,86,47
458468,note_off,,,,,24,0,1,,,,0,81,64
458488,note_on,,,,,20,0,1,,,,0,90,54
458496,note_on,,,,,0,0,1,,,,0,69,53
458496,note_off,,,,,8,0,1,,,,0,86,64
458504,note_off,,,,,8,0,1,,,,0,78,64
458516,note_off,,,,,12,0,1,,,,0,74,64
458528,note_off,,,,,12,0,1,,,,0,90,64
458552,note_on,,,,,24,0,1,,,,0,81,46
458554,note_on,,,,,2,0,1,,,,0,86,51
458568,note_on,,,,,14,0,1,,,,0,76,53
458586,note_off,,,,,18,0,1,,,,0,81,64
458604,note_on,,,,,0,0,1,,,,0,88,42
458604,note_off,,,,,18,0,1,,,,0,86,64
458654,note_off,,,,,50,0,1,,,,0,88,64
458666,control_change,,,,,12,0,1,,64,0,0,,
458668,note_on,,,,,2,0,1,,,,0,86,49
458668,note_on,,,,,0,0,1,,,,0,81,48
458698,note_off,,,,,30,0,1,,,,0,81,64
458714,note_off,,,,,16,0,1,,,,0,86,64
458718,note_on,,,,,4,0,1,,,,0,88,46
458730,control_change,,,,,12,0,1,,64,127,0,,
458736,note_off,,,,,6,0,1,,,,0,88,64
458764,note_on,,,,,28,0,1,,,,0,86,48
458766,note_on,,,,,2,0,1,,,,0,81,43
458782,note_off,,,,,16,0,1,,,,0,81,64
458800,note_off,,,,,18,0,1,,,,0,86,64
458804,note_on,,,,,4,0,1,,,,0,88,46
458824,note_off,,,,,20,0,1,,,,0,88,64
458850,note_on,,,,,26,0,1,,,,0,86,50
458856,note_on,,,,,6,0,1,,,,0,81,32
458876,note_off,,,,,20,0,1,,,,0,81,64
458888,note_off,,,,,12,0,1,,,,0,86,64
458896,note_on,,,,,8,0,1,,,,0,88,43
458914,note_off,,,,,18,0,1,,,,0,88,64
458942,note_on,,,,,28,0,1,,,,0,86,56
458946,note_on,,,,,4,0,1,,,,0,81,48
458964,note_off,,,,,18,0,1,,,,0,81,64
458976,note_off,,,,,12,0,1,,,,0,86,64
458988,note_on,,,,,12,0,1,,,,0,88,40
459004,note_off,,,,,16,0,1,,,,0,88,64
459030,note_on,,,,,26,0,1,,,,0,86,57
459034,note_on,,,,,4,0,1,,,,0,81,49
459052,note_off,,,,,18,0,1,,,,0,81,64
459064,note_off,,,,,12,0,1,,,,0,86,64
459076,note_on,,,,,12,0,1,,,,0,88,39
459094,note_off,,,,,18,0,1,,,,0,88,64
459120,note_on,,,,,26,0,1,,,,0,86,51
459124,note_on,,,,,4,0,1,,,,0,81,44
459144,note_off,,,,,20,0,1,,,,0,81,64
459154,note_off,,,,,10,0,1,,,,0,86,64
459164,note_on,,,,,10,0,1,,,,0,88,41
459186,note_off,,,,,22,0,1,,,,0,88,64
459212,note_on,,,,,26,0,1,,,,0,86,45
459216,note_on,,,,,4,0,1,,,,0,81,41
459236,note_off,,,,,20,0,1,,,,0,81,64
459258,note_on,,,,,22,0,1,,,,0,88,48
459260,note_off,,,,,2,0,1,,,,0,86,64
459292,note_off,,,,,32,0,1,,,,0,88,64
459316,note_on,,,,,24,0,1,,,,0,85,62
459320,note_on,,,,,4,0,1,,,,0,81,44
459334,note_off,,,,,14,0,1,,,,0,81,64
459356,note_off,,,,,22,0,1,,,,0,85,64
459370,note_on,,,,,14,0,1,,,,0,88,41
459388,note_off,,,,,18,0,1,,,,0,88,64
459414,note_on,,,,,26,0,1,,,,0,85,51
459416,note_on,,,,,2,0,1,,,,0,81,35
459430,note_off,,,,,14,0,1,,,,0,81,64
459448,note_off,,,,,18,0,1,,,,0,85,64
459462,note_on,,,,,14,0,1,,,,0,88,39
459478,note_off,,,,,16,0,1,,,,0,88,64
459506,note_on,,,,,28,0,1,,,,0,81,46
459508,note_on,,,,,2,0,1,,,,0,85,42
459524,note_off,,,,,16,0,1,,,,0,81,64
459544,note_off,,,,,20,0,1,,,,0,85,64
459554,note_on,,,,,10,0,1,,,,0,88,37
459576,note_off,,,,,22,0,1,,,,0,88,64
459604,note_on,,,,,28,0,1,,,,0,85,44
459608,note_on,,,,,4,0,1,,,,0,81,22
459626,note_off,,,,,18,0,1,,,,0,81,64
459644,note_off,,,,,18,0,1,,,,0,85,64
459652,note_on,,,,,8,0,1,,,,0,88,39
459682,note_off,,,,,30,0,1,,,,0,88,64
459706,note_on,,,,,24,0,1,,,,0,85,49
459710,note_on,,,,,4,0,1,,,,0,79,50
459728,note_off,,,,,18,0,1,,,,0,79,64
459748,note_off,,,,,20,0,1,,,,0,85,64
459760,note_on,,,,,12,0,1,,,,0,88,39
459776,note_off,,,,,16,0,1,,,,0,88,64
459810,note_on,,,,,34,0,1,,,,0,85,39
459814,note_on,,,,,4,0,1,,,,0,79,39
459828,note_off,,,,,14,0,1,,,,0,79,64
459850,note_off,,,,,22,0,1,,,,0,85,64
459858,note_on,,,,,8,0,1,,,,0,88,38
459880,note_off,,,,,22,0,1,,,,0,88,64
459912,note_on,,,,,32,0,1,,,,0,85,40
459918,note_on,,,,,6,0,1,,,,0,79,37
459932,note_off,,,,,14,0,1,,,,0,79,64
459962,note_off,,,,,30,0,1,,,,0,85,64
459968,note_on,,,,,6,0,1,,,,0,88,29
459988,note_off,,,,,20,0,1,,,,0,88,64
460020,note_on,,,,,32,0,1,,,,0,79,35
460022,note_on,,,,,2,0,1,,,,0,85,38
460050,note_off,,,,,28,0,1,,,,0,79,64
460066,note_on,,,,,16,0,1,,,,0,88,46
460068,note_off,,,,,2,0,1,,,,0,85,64
460084,note_off,,,,,16,0,1,,,,0,76,64
460090,note_off,,,,,6,0,1,,,,0,88,64
460092,note_off,,,,,2,0,1,,,,0,69,64
460096,note_on,,,,,4,0,1,,,,0,71,25
460130,note_on,,,,,34,0,1,,,,0,74,33
460146,note_on,,,,,16,0,1,,,,0,78,31
460152,note_on,,,,,6,0,1,,,,0,83,43
460182,note_off,,,,,30,0,1,,,,0,78,64
460198,control_change,,,,,16,0,1,,64,0,0,,
460208,note_off,,,,,10,0,1,,,,0,83,64
460208,note_on,,,,,0,0,1,,,,0,86,34
460260,note_off,,,,,52,0,1,,,,0,86,64
460268,note_on,,,,,0,0,1,,,,0,78,34
460268,note_on,,,,,8,0,1,,,,0,83,38
460272,control_change,,,,,4,0,1,,64,127,0,,
460292,note_off,,,,,20,0,1,,,,0,78,64
460314,note_off,,,,,22,0,1,,,,0,83,64
460320,note_on,,,,,6,0,1,,,,0,86,35
460346,note_off,,,,,26,0,1,,,,0,86,64
460360,note_on,,,,,14,0,1,,,,0,83,35
460368,note_on,,,,,8,0,1,,,,0,78,39
460384,note_off,,,,,16,0,1,,,,0,78,64
460404,note_off,,,,,20,0,1,,,,0,83,64
460408,note_on,,,,,4,0,1,,,,0,86,40
460446,note_off,,,,,38,0,1,,,,0,86,64
460460,note_on,,,,,0,0,1,,,,0,78,43
460460,note_on,,,,,14,0,1,,,,0,83,34
460486,note_off,,,,,26,0,1,,,,0,78,64
460500,note_off,,,,,14,0,1,,,,0,83,64
460504,note_on,,,,,4,0,1,,,,0,86,42
460532,note_off,,,,,28,0,1,,,,0,86,64
460548,note_on,,,,,16,0,1,,,,0,83,48
460552,note_on,,,,,4,0,1,,,,0,78,42
460572,note_off,,,,,20,0,1,,,,0,78,64
460588,note_off,,,,,16,0,1,,,,0,74,64
460592,note_off,,,,,4,0,1,,,,0,83,64
460600,note_on,,,,,8,0,1,,,,0,86,34
460606,note_off,,,,,6,0,1,,,,0,71,64
460630,note_off,,,,,24,0,1,,,,0,86,64
460640,note_on,,,,,10,0,1,,,,0,83,51
460642,note_on,,,,,2,0,1,,,,0,78,49
460670,note_off,,,,,28,0,1,,,,0,78,64
460686,note_off,,,,,16,0,1,,,,0,83,64
460688,note_on,,,,,2,0,1,,,,0,86,39
460724,note_off,,,,,36,0,1,,,,0,86,64
460734,note_on,,,,,10,0,1,,,,0,83,51
460734,note_on,,,,,0,0,1,,,,0,78,43
460758,note_off,,,,,24,0,1,,,,0,78,64
460778,note_off,,,,,20,0,1,,,,0,83,64
460786,note_on,,,,,8,0,1,,,,0,86,34
460806,note_off,,,,,20,0,1,,,,0,86,64
460822,note_on,,,,,16,0,1,,,,0,83,51
460824,note_on,,,,,2,0,1,,,,0,78,47
460854,note_off,,,,,30,0,1,,,,0,78,64
460860,note_on,,,,,6,0,1,,,,0,61,53
460868,note_on,,,,,8,0,1,,,,0,86,45
460872,note_off,,,,,4,0,1,,,,0,83,64
460880,note_on,,,,,8,0,1,,,,0,68,49
460894,note_off,,,,,14,0,1,,,,0,86,64
460932,note_on,,,,,38,0,1,,,,0,77,49
460934,note_on,,,,,2,0,1,,,,0,80,49
460938,note_on,,,,,4,0,1,,,,0,73,56
460960,control_change,,,,,22,0,1,,64,0,0,,
460962,note_off,,,,,2,0,1,,,,0,77,64
460992,note_off,,,,,30,0,1,,,,0,80,64
460992,note_on,,,,,0,0,1,,,,0,85,43
461020,note_off,,,,,28,0,1,,,,0,85,64
461026,control_change,,,,,6,0,1,,64,127,0,,
461040,note_on,,,,,14,0,1,,,,0,77,46
461042,note_on,,,,,2,0,1,,,,0,80,45
461062,note_off,,,,,20,0,1,,,,0,77,64
461082,note_off,,,,,20,0,1,,,,0,80,64
461084,note_on,,,,,2,0,1,,,,0,85,53
461122,note_off,,,,,38,0,1,,,,0,85,64
461134,note_on,,,,,12,0,1,,,,0,80,54
461140,note_on,,,,,6,0,1,,,,0,77,44
461172,note_off,,,,,32,0,1,,,,0,77,64
461180,note_on,,,,,8,0,1,,,,0,85,58
461184,note_off,,,,,4,0,1,,,,0,80,64
461224,note_off,,,,,40,0,1,,,,0,85,64
461224,note_off,,,,,0,0,1,,,,0,61,64
461236,note_on,,,,,12,0,1,,,,0,80,56
461238,note_on,,,,,2,0,1,,,,0,77,48
461264,note_off,,,,,26,0,1,,,,0,77,64
461278,note_off,,,,,14,0,1,,,,0,80,64
461278,note_on,,,,,0,0,1,,,,0,85,59
461308,note_off,,,,,30,0,1,,,,0,85,64
461330,note_on,,,,,22,0,1,,,,0,80,59
461332,note_on,,,,,2,0,1,,,,0,77,46
461362,note_off,,,,,30,0,1,,,,0,77,64
461372,note_on,,,,,10,0,1,,,,0,85,57
461376,note_off,,,,,4,0,1,,,,0,80,64
461412,note_off,,,,,36,0,1,,,,0,85,64
461430,note_on,,,,,0,0,1,,,,0,80,52
461430,note_on,,,,,18,0,1,,,,0,77,46
461458,note_off,,,,,28,0,1,,,,0,77,64
461472,note_on,,,,,14,0,1,,,,0,85,59
461476,note_off,,,,,4,0,1,,,,0,80,64
461506,note_off,,,,,30,0,1,,,,0,85,64
461528,note_on,,,,,22,0,1,,,,0,80,58
461530,note_on,,,,,2,0,1,,,,0,77,51
461534,note_on,,,,,4,0,1,,,,0,71,54
461556,note_off,,,,,22,0,1,,,,0,73,64
461560,note_off,,,,,4,0,1,,,,0,77,64
461572,note_off,,,,,12,0,1,,,,0,71,64
461572,note_off,,,,,0,0,1,,,,0,68,64
461578,note_on,,,,,6,0,1,,,,0,85,58
461580,note_off,,,,,2,0,1,,,,0,80,64
461612,note_off,,,,,32,0,1,,,,0,85,64
461634,note_on,,,,,22,0,1,,,,0,80,58
461638,note_on,,,,,4,0,1,,,,0,77,36
461674,note_off,,,,,36,0,1,,,,0,77,64
461676,note_on,,,,,2,0,1,,,,0,66,53
461688,note_off,,,,,12,0,1,,,,0,80,64
461694,note_on,,,,,6,0,1,,,,0,83,50
461708,note_off,,,,,14,0,1,,,,0,83,64
461756,note_on,,,,,48,0,1,,,,0,70,56
461774,note_on,,,,,18,0,1,,,,0,73,59
461776,note_on,,,,,2,0,1,,,,0,78,56
461812,control_change,,,,,0,0,1,,64,0,0,,
461812,note_off,,,,,36,0,1,,,,0,73,64
461828,note_on,,,,,16,0,1,,,,0,82,51
461832,note_off,,,,,4,0,1,,,,0,78,64
461864,note_off,,,,,32,0,1,,,,0,82,64
461870,control_change,,,,,6,0,1,,64,127,0,,
461882,note_on,,,,,12,0,1,,,,0,78,45
461884,note_on,,,,,2,0,1,,,,0,73,49
461908,note_off,,,,,24,0,1,,,,0,73,64
461922,note_off,,,,,14,0,1,,,,0,78,64
461932,note_on,,,,,10,0,1,,,,0,82,50
461936,note_off,,,,,4,0,1,,,,0,66,64
461952,note_off,,,,,16,0,1,,,,0,70,64
461966,note_off,,,,,14,0,1,,,,0,82,64
461980,note_on,,,,,14,0,1,,,,0,73,45
461980,note_on,,,,,0,0,1,,,,0,78,48
461996,note_off,,,,,16,0,1,,,,0,73,64
462024,note_off,,,,,28,0,1,,,,0,78,64
462028,note_on,,,,,4,0,1,,,,0,82,44
462044,note_off,,,,,16,0,1,,,,0,82,64
462066,note_on,,,,,22,0,1,,,,0,73,52
462066,note_on,,,,,0,0,1,,,,0,78,48
462080,note_off,,,,,14,0,1,,,,0,73,64
462082,note_on,,,,,2,0,1,,,,0,66,49
462100,note_off,,,,,18,0,1,,,,0,78,64
462104,note_on,,,,,4,0,1,,,,0,82,53
462118,note_off,,,,,14,0,1,,,,0,82,64
462120,note_on,,,,,2,0,1,,,,0,70,48
462164,note_on,,,,,44,0,1,,,,0,73,63
462168,note_on,,,,,4,0,1,,,,0,82,66
462170,note_on,,,,,2,0,1,,,,0,78,44
462196,note_off,,,,,26,0,1,,,,0,78,64
462222,note_on,,,,,0,0,1,,,,0,85,56
462222,note_off,,,,,26,0,1,,,,0,66,64
462224,note_off,,,,,2,0,1,,,,0,82,64
462248,note_off,,,,,24,0,1,,,,0,70,64
462252,note_off,,,,,4,0,1,,,,0,73,64
462254,note_off,,,,,2,0,1,,,,0,85,64
462272,note_on,,,,,18,0,1,,,,0,78,50
462274,note_on,,,,,2,0,1,,,,0,82,56
462296,note_off,,,,,22,0,1,,,,0,78,64
462314,note_on,,,,,18,0,1,,,,0,85,56
462316,note_off,,,,,2,0,1,,,,0,82,64
462340,note_off,,,,,24,0,1,,,,0,85,64
462362,note_on,,,,,0,0,1,,,,0,78,50
462362,note_on,,,,,22,0,1,,,,0,82,50
462382,note_off,,,,,20,0,1,,,,0,78,64
462400,note_off,,,,,18,0,1,,,,0,82,64
462404,note_on,,,,,4,0,1,,,,0,85,49
462418,note_off,,,,,14,0,1,,,,0,85,64
462442,note_on,,,,,24,0,1,,,,0,82,58
462444,note_on,,,,,2,0,1,,,,0,78,45
462458,note_off,,,,,14,0,1,,,,0,78,64
462464,note_on,,,,,6,0,1,,,,0,70,47
462472,note_off,,,,,8,0,1,,,,0,82,64
462484,note_on,,,,,12,0,1,,,,0,85,47
462490,note_on,,,,,6,0,1,,,,0,73,47
462500,note_off,,,,,10,0,1,,,,0,85,64
462544,note_on,,,,,44,0,1,,,,0,78,71
462546,note_on,,,,,2,0,1,,,,0,82,52
462548,note_on,,,,,2,0,1,,,,0,85,63
462570,note_off,,,,,22,0,1,,,,0,82,64
462592,note_off,,,,,22,0,1,,,,0,85,64
462596,note_on,,,,,4,0,1,,,,0,90,52
462632,note_off,,,,,36,0,1,,,,0,90,64
462644,note_on,,,,,0,0,1,,,,0,82,56
462644,note_off,,,,,12,0,1,,,,0,70,64
462646,note_on,,,,,2,0,1,,,,0,85,63
462656,note_off,,,,,10,0,1,,,,0,73,64
462660,note_off,,,,,4,0,1,,,,0,78,64
462666,note_off,,,,,6,0,1,,,,0,82,64
462676,note_off,,,,,10,0,1,,,,0,85,64
462688,note_on,,,,,12,0,1,,,,0,90,51
462718,note_off,,,,,30,0,1,,,,0,90,64
462732,note_on,,,,,14,0,1,,,,0,82,56
462732,note_on,,,,,0,0,1,,,,0,85,59
462758,note_off,,,,,26,0,1,,,,0,82,64
462766,note_off,,,,,8,0,1,,,,0,85,64
462780,note_on,,,,,14,0,1,,,,0,90,50
462796,note_off,,,,,16,0,1,,,,0,90,64
462820,note_on,,,,,24,0,1,,,,0,82,48
462822,note_on,,,,,2,0,1,,,,0,85,69
462836,note_off,,,,,14,0,1,,,,0,82,64
462838,note_on,,,,,2,0,1,,,,0,73,45
462848,note_off,,,,,10,0,1,,,,0,85,64
462860,note_on,,,,,12,0,1,,,,0,90,52
462870,note_on,,,,,10,0,1,,,,0,78,41
462874,note_off,,,,,4,0,1,,,,0,90,64
462924,note_on,,,,,50,0,1,,,,0,85,61
462926,note_on,,,,,2,0,1,,,,0,90,60
462944,note_on,,,,,18,0,1,,,,0,82,46
462952,note_off,,,,,8,0,1,,,,0,85,64
462972,note_on,,,,,20,0,1,,,,0,94,56
462976,note_off,,,,,4,0,1,,,,0,90,64
462980,note_off,,,,,4,0,1,,,,0,82,64
463004,note_off,,,,,24,0,1,,,,0,94,64
463024,note_on,,,,,20,0,1,,,,0,85,61
463026,note_on,,,,,2,0,1,,,,0,90,58
463032,note_off,,,,,6,0,1,,,,0,73,64
463048,note_off,,,,,16,0,1,,,,0,85,64
463052,note_off,,,,,4,0,1,,,,0,78,64
463070,note_off,,,,,18,0,1,,,,0,90,64
463070,note_on,,,,,0,0,1,,,,0,94,58
463100,note_off,,,,,30,0,1,,,,0,94,64
463120,note_on,,,,,20,0,1,,,,0,85,62
463122,note_on,,,,,2,0,1,,,,0,90,51
463148,note_off,,,,,26,0,1,,,,0,85,64
463168,note_off,,,,,20,0,1,,,,0,90,64
463170,note_on,,,,,2,0,1,,,,0,94,54
463204,note_off,,,,,34,0,1,,,,0,94,64
463216,note_on,,,,,12,0,1,,,,0,85,60
463224,note_on,,,,,8,0,1,,,,0,90,43
463244,note_off,,,,,20,0,1,,,,0,85,64
463262,note_on,,,,,18,0,1,,,,0,94,54
463268,note_off,,,,,6,0,1,,,,0,90,64
463290,note_off,,,,,22,0,1,,,,0,94,64
463340,note_on,,,,,50,0,1,,,,0,98,68
463340,note_on,,,,,0,0,1,,,,0,89,59
463342,note_on,,,,,2,0,1,,,,0,86,61
463346,note_on,,,,,4,0,1,,,,0,77,45
463348,note_on,,,,,2,0,1,,,,0,74,38
463366,note_on,,,,,18,0,1,,,,0,80,38
463376,control_change,,,,,10,0,1,,64,127,0,,
463406,note_off,,,,,30,0,1,,,,0,77,64
463420,note_off,,,,,14,0,1,,,,0,74,64
463420,note_on,,,,,0,0,1,,,,0,83,51
463422,note_off,,,,,2,0,1,,,,0,80,64
463452,note_off,,,,,30,0,1,,,,0,83,64
463474,note_on,,,,,22,0,1,,,,0,80,44
463478,note_on,,,,,4,0,1,,,,0,77,39
463486,note_on,,,,,8,0,1,,,,0,74,38
463494,note_off,,,,,8,0,1,,,,0,98,64
463502,note_off,,,,,8,0,1,,,,0,86,64
463508,note_off,,,,,6,0,1,,,,0,89,64
463516,note_off,,,,,8,0,1,,,,0,77,64
463520,note_off,,,,,0,0,1,,,,0,80,64
463520,note_off,,,,,4,0,1,,,,0,74,64
463536,note_on,,,,,16,0,1,,,,0,83,52
463568,note_off,,,,,32,0,1,,,,0,83,64
463572,note_on,,,,,4,0,1,,,,0,77,43
463580,note_on,,,,,8,0,1,,,,0,80,34
463582,note_on,,,,,2,0,1,,,,0,74,1
463610,note_off,,,,,28,0,1,,,,0,77,64
463616,note_off,,,,,6,0,1,,,,0,80,64
463620,note_off,,,,,4,0,1,,,,0,74,64
463628,note_on,,,,,8,0,1,,,,0,83,51
463664,note_off,,,,,36,0,1,,,,0,83,64
463668,note_on,,,,,4,0,1,,,,0,77,39
463670,note_on,,,,,2,0,1,,,,0,74,31
463672,note_on,,,,,2,0,1,,,,0,80,32
463714,note_off,,,,,42,0,1,,,,0,80,64
463716,note_on,,,,,0,0,1,,,,0,83,58
463716,note_off,,,,,2,0,1,,,,0,77,64
463720,note_off,,,,,4,0,1,,,,0,74,64
463748,note_off,,,,,28,0,1,,,,0,83,64
463756,note_on,,,,,8,0,1,,,,0,77,41
463760,note_on,,,,,4,0,1,,,,0,80,38
463760,note_on,,,,,0,0,1,,,,0,74,31
463808,note_on,,,,,0,0,1,,,,0,83,57
463808,note_off,,,,,48,0,1,,,,0,77,64
463814,note_off,,,,,6,0,1,,,,0,80,64
463820,note_off,,,,,6,0,1,,,,0,74,64
463846,note_off,,,,,26,0,1,,,,0,83,64
463856,note_on,,,,,0,0,1,,,,0,77,42
463856,note_on,,,,,10,0,1,,,,0,80,32
463864,note_on,,,,,8,0,1,,,,0,74,24
463900,note_off,,,,,36,0,1,,,,0,77,64
463906,note_on,,,,,0,0,1,,,,0,83,56
463906,note_off,,,,,6,0,1,,,,0,80,64
463916,note_off,,,,,10,0,1,,,,0,74,64
463952,note_off,,,,,36,0,1,,,,0,83,64
463956,note_on,,,,,4,0,1,,,,0,77,44
463958,note_on,,,,,2,0,1,,,,0,80,34
463962,note_on,,,,,4,0,1,,,,0,74,48
463970,note_on,,,,,8,0,1,,,,0,59,50
464004,note_off,,,,,34,0,1,,,,0,80,64
464004,note_off,,,,,0,0,1,,,,0,77,64
464008,note_on,,,,,4,0,1,,,,0,83,51
464010,note_off,,,,,2,0,1,,,,0,74,64
464060,note_off,,,,,50,0,1,,,,0,83,64
464062,note_on,,,,,2,0,1,,,,0,77,43
464064,note_on,,,,,2,0,1,,,,0,80,32
464072,note_on,,,,,8,0,1,,,,0,74,26
464106,note_off,,,,,34,0,1,,,,0,77,64
464110,note_off,,,,,4,0,1,,,,0,80,64
464116,note_off,,,,,6,0,1,,,,0,74,64
464118,note_on,,,,,2,0,1,,,,0,83,51
464166,note_off,,,,,48,0,1,,,,0,83,64
464168,note_on,,,,,2,0,1,,,,0,77,40
464174,note_on,,,,,6,0,1,,,,0,80,18
464174,note_on,,,,,0,0,1,,,,0,74,29
464196,note_on,,,,,22,0,1,,,,0,62,61
464214,note_off,,,,,18,0,1,,,,0,77,64
464218,note_off,,,,,4,0,1,,,,0,59,64
464226,note_on,,,,,8,0,1,,,,0,83,50
464228,note_off,,,,,2,0,1,,,,0,74,64
464230,note_off,,,,,2,0,1,,,,0,80,64
464276,note_on,,,,,46,0,1,,,,0,77,43
464278,note_off,,,,,2,0,1,,,,0,83,64
464282,note_on,,,,,4,0,1,,,,0,80,27
464288,note_on,,,,,6,0,1,,,,0,74,16
464326,note_off,,,,,38,0,1,,,,0,77,64
464338,note_on,,,,,0,0,1,,,,0,83,51
464338,note_off,,,,,12,0,1,,,,0,80,64
464346,note_off,,,,,8,0,1,,,,0,74,64
464390,note_on,,,,,44,0,1,,,,0,77,52
464396,note_on,,,,,0,0,1,,,,0,65,53
464396,note_on,,,,,6,0,1,,,,0,80,32
464398,note_off,,,,,2,0,1,,,,0,83,64
464398,note_on,,,,,0,0,1,,,,0,74,27
464438,note_off,,,,,40,0,1,,,,0,80,64
464440,note_off,,,,,0,0,1,,,,0,62,64
464440,note_off,,,,,2,0,1,,,,0,77,64
464452,note_on,,,,,0,0,1,,,,0,83,53
464452,note_off,,,,,12,0,1,,,,0,74,64
464524,note_on,,,,,72,0,1,,,,0,80,31
464528,note_on,,,,,4,0,1,,,,0,77,51
464528,note_on,,,,,0,0,1,,,,0,74,45
464534,note_off,,,,,6,0,1,,,,0,83,64
464586,note_off,,,,,52,0,1,,,,0,77,64
464596,note_on,,,,,10,0,1,,,,0,83,50
464600,note_off,,,,,4,0,1,,,,0,80,64
464606,note_off,,,,,6,0,1,,,,0,74,64
464672,note_on,,,,,66,0,1,,,,0,77,53
464676,note_on,,,,,4,0,1,,,,0,80,22
464678,note_off,,,,,2,0,1,,,,0,83,64
464680,note_on,,,,,2,0,1,,,,0,74,38
464682,note_on,,,,,2,0,1,,,,0,70,54
464692,note_off,,,,,10,0,1,,,,0,65,64
464700,note_off,,,,,8,0,1,,,,0,80,64
464754,note_off,,,,,54,0,1,,,,0,77,64
464754,note_on,,,,,0,0,1,,,,0,83,46
464782,note_off,,,,,28,0,1,,,,0,74,64
464860,note_on,,,,,78,0,1,,,,0,77,49
464864,note_on,,,,,4,0,1,,,,0,73,47
464870,note_off,,,,,6,0,1,,,,0,83,64
464962,note_off,,,,,92,0,1,,,,0,77,64
464964,note_off,,,,,2,0,1,,,,0,73,64
464972,note_on,,,,,8,0,1,,,,0,83,46
465094,note_on,,,,,122,0,1,,,,0,73,33
465104,note_on,,,,,10,0,1,,,,0,77,39
465120,note_off,,,,,16,0,1,,,,0,83,64
465226,note_on,,,,,106,0,1,,,,0,83,44
465236,note_off,,,,,10,0,1,,,,0,77,64
465240,note_off,,,,,4,0,1,,,,0,73,64
465256,note_off,,,,,16,0,1,,,,0,83,64
465486,note_on,,,,,230,0,1,,,,0,68,65
465498,note_off,,,,,12,0,1,,,,0,70,64
465540,control_change,,,,,42,0,1,,64,0,0,,
465608,note_on,,,,,68,0,1,,,,0,73,33
465608,note_on,,,,,0,0,1,,,,0,66,62
465612,note_on,,,,,4,0,1,,,,0,78,53
465626,note_off,,,,,14,0,1,,,,0,68,64
465694,control_change,,,,,68,0,1,,64,127,0,,
465736,note_off,,,,,42,0,1,,,,0,73,64
465740,note_off,,,,,4,0,1,,,,0,78,64
465740,note_on,,,,,0,0,1,,,,0,82,40
465756,note_off,,,,,16,0,1,,,,0,66,64
465778,note_off,,,,,22,0,1,,,,0,82,64
465816,note_on,,,,,38,0,1,,,,0,73,38
465822,note_on,,,,,6,0,1,,,,0,78,35
465846,note_off,,,,,24,0,1,,,,0,73,64
465864,note_off,,,,,18,0,1,,,,0,78,64
465876,note_on,,,,,12,0,1,,,,0,82,44
465912,note_off,,,,,36,0,1,,,,0,82,64
465928,note_on,,,,,16,0,1,,,,0,78,23
465928,note_on,,,,,0,0,1,,,,0,73,33
465966,note_off,,,,,0,0,1,,,,0,78,64
465966,note_off,,,,,38,0,1,,,,0,73,64
465988,note_on,,,,,22,0,1,,,,0,82,44
466024,note_off,,,,,36,0,1,,,,0,82,64
466040,note_on,,,,,16,0,1,,,,0,73,38
466050,note_on,,,,,10,0,1,,,,0,78,33
466078,note_off,,,,,28,0,1,,,,0,73,64
466094,note_off,,,,,16,0,1,,,,0,78,64
466096,note_on,,,,,2,0,1,,,,0,82,56
466118,note_off,,,,,22,0,1,,,,0,82,64
466160,note_on,,,,,42,0,1,,,,0,70,41
466164,note_on,,,,,4,0,1,,,,0,73,35
466190,note_off,,,,,26,0,1,,,,0,70,64
466212,note_off,,,,,22,0,1,,,,0,73,64
466222,note_on,,,,,10,0,1,,,,0,78,61
466256,note_off,,,,,34,0,1,,,,0,78,64
466272,note_on,,,,,16,0,1,,,,0,73,42
466278,note_on,,,,,6,0,1,,,,0,70,26
466302,note_off,,,,,24,0,1,,,,0,70,64
466308,note_off,,,,,6,0,1,,,,0,73,64
466322,note_on,,,,,14,0,1,,,,0,78,58
466350,note_off,,,,,28,0,1,,,,0,78,64
466366,note_on,,,,,16,0,1,,,,0,73,45
466376,note_on,,,,,10,0,1,,,,0,70,25
466392,note_off,,,,,16,0,1,,,,0,73,64
466396,note_off,,,,,4,0,1,,,,0,70,64
466418,note_on,,,,,22,0,1,,,,0,78,53
466450,note_off,,,,,32,0,1,,,,0,78,64
466456,note_on,,,,,6,0,1,,,,0,73,45
466460,note_on,,,,,4,0,1,,,,0,70,50
466476,note_off,,,,,16,0,1,,,,0,70,64
466482,note_off,,,,,6,0,1,,,,0,73,64
466516,note_on,,,,,34,0,1,,,,0,78,30
466530,note_off,,,,,14,0,1,,,,0,78,64
466566,note_on,,,,,36,0,1,,,,0,70,43
466568,note_on,,,,,2,0,1,,,,0,66,43
466636,note_off,,,,,68,0,1,,,,0,70,64
466638,note_off,,,,,2,0,1,,,,0,66,64
466638,note_on,,,,,0,0,1,,,,0,73,53
466674,note_off,,,,,36,0,1,,,,0,73,64
466682,note_on,,,,,8,0,1,,,,0,66,52
466686,note_on,,,,,4,0,1,,,,0,70,38
466714,note_off,,,,,28,0,1,,,,0,66,64
466716,note_off,,,,,2,0,1,,,,0,70,64
466738,note_on,,,,,22,0,1,,,,0,73,58
466768,note_off,,,,,30,0,1,,,,0,73,64
466776,note_on,,,,,8,0,1,,,,0,66,50
466794,note_on,,,,,18,0,1,,,,0,70,10
466816,note_off,,,,,22,0,1,,,,0,70,64
466824,note_off,,,,,8,0,1,,,,0,66,64
466838,note_on,,,,,14,0,1,,,,0,73,61
466870,note_off,,,,,32,0,1,,,,0,73,64
466876,note_on,,,,,6,0,1,,,,0,66,39
466880,note_on,,,,,4,0,1,,,,0,70,34
466924,note_off,,,,,44,0,1,,,,0,66,64
466926,note_on,,,,,2,0,1,,,,0,73,58
466936,note_off,,,,,10,0,1,,,,0,70,64
466944,note_on,,,,,8,0,1,,,,0,64,68
466966,note_off,,,,,22,0,1,,,,0,73,64
467000,note_on,,,,,34,0,1,,,,0,70,29
467004,note_on,,,,,0,0,1,,,,0,78,50
467004,note_on,,,,,4,0,1,,,,0,82,59
467034,control_change,,,,,30,0,1,,64,0,0,,
467048,note_on,,,,,14,0,1,,,,0,73,59
467064,note_off,,,,,16,0,1,,,,0,78,64
467068,note_on,,,,,4,0,1,,,,0,90,56
467072,note_off,,,,,4,0,1,,,,0,82,64
467128,note_off,,,,,56,0,1,,,,0,90,64
467132,note_on,,,,,0,0,1,,,,0,78,47
467132,note_on,,,,,4,0,1,,,,0,82,53
467162,control_change,,,,,30,0,1,,64,127,0,,
467166,note_off,,,,,4,0,1,,,,0,78,64
467180,note_on,,,,,14,0,1,,,,0,90,58
467184,note_off,,,,,4,0,1,,,,0,82,64
467228,note_off,,,,,44,0,1,,,,0,90,64
467228,note_off,,,,,0,0,1,,,,0,64,64
467236,note_on,,,,,8,0,1,,,,0,78,50
467238,note_on,,,,,2,0,1,,,,0,82,58
467266,note_off,,,,,28,0,1,,,,0,78,64
467280,note_on,,,,,14,0,1,,,,0,90,53
467286,note_off,,,,,6,0,1,,,,0,82,64
467290,note_off,,,,,4,0,1,,,,0,70,64
467292,note_off,,,,,2,0,1,,,,0,73,64
467324,note_off,,,,,32,0,1,,,,0,90,64
467330,note_on,,,,,6,0,1,,,,0,78,48
467334,note_on,,,,,4,0,1,,,,0,82,45
467364,note_off,,,,,30,0,1,,,,0,78,64
467388,note_on,,,,,24,0,1,,,,0,90,52
467390,note_off,,,,,2,0,1,,,,0,82,64
467396,note_on,,,,,6,0,1,,,,0,63,57
467432,note_off,,,,,36,0,1,,,,0,90,64
467438,note_on,,,,,6,0,1,,,,0,69,40
467442,note_on,,,,,4,0,1,,,,0,72,30
467482,note_on,,,,,40,0,1,,,,0,81,54
467484,note_on,,,,,2,0,1,,,,0,84,54
467496,note_on,,,,,12,0,1,,,,0,78,67
467570,control_change,,,,,74,0,1,,64,0,0,,
467572,note_off,,,,,2,0,1,,,,0,81,64
467580,note_on,,,,,8,0,1,,,,0,93,61
467594,note_off,,,,,14,0,1,,,,0,84,64
467640,note_off,,,,,46,0,1,,,,0,93,64
467642,control_change,,,,,2,0,1,,64,127,0,,
467648,note_on,,,,,6,0,1,,,,0,84,49
467652,note_on,,,,,4,0,1,,,,0,81,49
467688,note_off,,,,,36,0,1,,,,0,81,64
467708,note_off,,,,,20,0,1,,,,0,84,64
467710,note_on,,,,,2,0,1,,,,0,93,57
467752,note_off,,,,,42,0,1,,,,0,93,64
467762,note_on,,,,,0,0,1,,,,0,81,45
467762,note_on,,,,,10,0,1,,,,0,84,46
467788,note_off,,,,,26,0,1,,,,0,81,64
467804,note_off,,,,,16,0,1,,,,0,84,64
467804,note_on,,,,,0,0,1,,,,0,93,64
467840,note_off,,,,,36,0,1,,,,0,93,64
467856,note_on,,,,,16,0,1,,,,0,84,51
467856,note_on,,,,,0,0,1,,,,0,81,52
467880,note_off,,,,,24,0,1,,,,0,81,64
467892,note_off,,,,,12,0,1,,,,0,84,64
467900,note_on,,,,,8,0,1,,,,0,93,55
467932,note_off,,,,,32,0,1,,,,0,93,64
467942,note_on,,,,,10,0,1,,,,0,84,53
467944,note_on,,,,,2,0,1,,,,0,81,53
467966,note_off,,,,,22,0,1,,,,0,81,64
467980,note_off,,,,,14,0,1,,,,0,84,64
467988,note_on,,,,,8,0,1,,,,0,93,56
468018,note_off,,,,,30,0,1,,,,0,93,64
468028,note_on,,,,,10,0,1,,,,0,84,54
468028,note_on,,,,,0,0,1,,,,0,81,52
468054,note_off,,,,,26,0,1,,,,0,81,64
468062,note_off,,,,,8,0,1,,,,0,78,64
468064,note_off,,,,,2,0,1,,,,0,84,64
468068,note_off,,,,,0,0,1,,,,0,72,64
468068,note_off,,,,,4,0,1,,,,0,63,64
468072,note_on,,,,,4,0,1,,,,0,93,61
468076,note_off,,,,,4,0,1,,,,0,69,64
468104,note_off,,,,,28,0,1,,,,0,93,64
468116,note_on,,,,,12,0,1,,,,0,84,51
468116,note_on,,,,,0,0,1,,,,0,81,53
468144,note_off,,,,,28,0,1,,,,0,81,64
468156,note_off,,,,,12,0,1,,,,0,84,64
468168,note_on,,,,,12,0,1,,,,0,93,35
468190,note_off,,,,,22,0,1,,,,0,93,64
468204,note_on,,,,,14,0,1,,,,0,81,57
468206,note_on,,,,,2,0,1,,,,0,84,53
468226,note_off,,,,,20,0,1,,,,0,81,64
468252,note_on,,,,,26,0,1,,,,0,63,58
468254,note_on,,,,,2,0,1,,,,0,93,68
468256,note_off,,,,,2,0,1,,,,0,84,64
468278,note_off,,,,,22,0,1,,,,0,93,64
468286,note_on,,,,,8,0,1,,,,0,69,53
468314,note_on,,,,,28,0,1,,,,0,83,53
468316,note_on,,,,,2,0,1,,,,0,80,32
468334,note_on,,,,,18,0,1,,,,0,71,46
468362,note_off,,,,,28,0,1,,,,0,80,64
468370,control_change,,,,,8,0,1,,64,0,0,,
468378,note_off,,,,,8,0,1,,,,0,83,64
468380,note_on,,,,,2,0,1,,,,0,92,61
468424,control_change,,,,,0,0,1,,64,127,0,,
468424,note_off,,,,,44,0,1,,,,0,92,64
468428,note_on,,,,,4,0,1,,,,0,80,50
468432,note_on,,,,,4,0,1,,,,0,83,54
468456,note_off,,,,,24,0,1,,,,0,80,64
468470,note_off,,,,,14,0,1,,,,0,83,64
468476,note_on,,,,,6,0,1,,,,0,92,61
468516,note_on,,,,,0,0,1,,,,0,80,48
468516,note_off,,,,,40,0,1,,,,0,92,64
468522,note_on,,,,,6,0,1,,,,0,83,45
468546,note_off,,,,,24,0,1,,,,0,80,64
468552,note_off,,,,,6,0,1,,,,0,71,64
468556,note_off,,,,,4,0,1,,,,0,63,64
468560,note_off,,,,,4,0,1,,,,0,83,64
468570,note_on,,,,,10,0,1,,,,0,92,58
468572,note_off,,,,,2,0,1,,,,0,69,64
468604,note_on,,,,,32,0,1,,,,0,80,53
468608,note_off,,,,,4,0,1,,,,0,92,64
468612,note_on,,,,,4,0,1,,,,0,83,48
468636,note_off,,,,,24,0,1,,,,0,80,64
468656,note_on,,,,,0,0,1,,,,0,92,59
468656,note_off,,,,,20,0,1,,,,0,83,64
468660,note_on,,,,,4,0,1,,,,0,63,56
468684,note_on,,,,,24,0,1,,,,0,69,46
468696,note_off,,,,,12,0,1,,,,0,92,64
468708,note_on,,,,,12,0,1,,,,0,78,56
468718,note_on,,,,,10,0,1,,,,0,84,37
468724,note_on,,,,,6,0,1,,,,0,72,53
468746,note_off,,,,,22,0,1,,,,0,78,64
468748,control_change,,,,,2,0,1,,64,0,0,,
468766,note_on,,,,,18,0,1,,,,0,90,52
468772,note_off,,,,,6,0,1,,,,0,84,64
468778,control_change,,,,,6,0,1,,64,127,0,,
468804,note_off,,,,,26,0,1,,,,0,90,64
468808,note_on,,,,,4,0,1,,,,0,78,58
468812,note_on,,,,,4,0,1,,,,0,84,51
468834,note_off,,,,,22,0,1,,,,0,78,64
468856,note_on,,,,,22,0,1,,,,0,90,64
468862,note_off,,,,,6,0,1,,,,0,84,64
468892,note_off,,,,,0,0,1,,,,0,63,64
468892,note_off,,,,,30,0,1,,,,0,90,64
468896,note_on,,,,,4,0,1,,,,0,78,53
468902,note_on,,,,,6,0,1,,,,0,84,44
468918,note_off,,,,,16,0,1,,,,0,72,64
468926,note_off,,,,,8,0,1,,,,0,78,64
468930,note_off,,,,,4,0,1,,,,0,69,64
468942,note_on,,,,,12,0,1,,,,0,90,63
468952,note_off,,,,,10,0,1,,,,0,84,64
468974,note_off,,,,,22,0,1,,,,0,90,64
468988,note_on,,,,,14,0,1,,,,0,78,57
468992,note_on,,,,,4,0,1,,,,0,84,51
469016,note_off,,,,,24,0,1,,,,0,78,64
469032,note_on,,,,,16,0,1,,,,0,90,61
469036,note_on,,,,,4,0,1,,,,0,64,55
469038,note_off,,,,,2,0,1,,,,0,84,64
469052,note_on,,,,,14,0,1,,,,0,69,49
469066,note_off,,,,,14,0,1,,,,0,90,64
469100,note_on,,,,,34,0,1,,,,0,85,63
469104,note_on,,,,,0,0,1,,,,0,73,69
469104,note_on,,,,,4,0,1,,,,0,76,46
469140,control_change,,,,,36,0,1,,64,0,0,,
469142,note_off,,,,,2,0,1,,,,0,76,64
469162,note_on,,,,,0,0,1,,,,0,88,56
469162,note_off,,,,,20,0,1,,,,0,85,64
469200,note_off,,,,,38,0,1,,,,0,88,64
469206,control_change,,,,,6,0,1,,64,127,0,,
469214,note_on,,,,,8,0,1,,,,0,76,57
469216,note_on,,,,,2,0,1,,,,0,85,67
469240,note_off,,,,,24,0,1,,,,0,76,64
469262,note_off,,,,,22,0,1,,,,0,85,64
469264,note_on,,,,,2,0,1,,,,0,88,51
469284,note_off,,,,,20,0,1,,,,0,88,64
469286,note_off,,,,,2,0,1,,,,0,64,64
469288,note_off,,,,,2,0,1,,,,0,69,64
469296,note_off,,,,,8,0,1,,,,0,73,64
469304,note_on,,,,,8,0,1,,,,0,76,51
469306,note_on,,,,,2,0,1,,,,0,85,54
469330,note_off,,,,,24,0,1,,,,0,76,64
469352,note_off,,,,,22,0,1,,,,0,85,64
469356,note_on,,,,,4,0,1,,,,0,88,53
469370,note_off,,,,,14,0,1,,,,0,88,64
469392,note_on,,,,,0,0,1,,,,0,76,49
469392,note_on,,,,,22,0,1,,,,0,85,56
469414,note_off,,,,,22,0,1,,,,0,76,64
469436,note_off,,,,,22,0,1,,,,0,85,64
469442,note_on,,,,,6,0,1,,,,0,88,44
469444,note_on,,,,,2,0,1,,,,0,69,62
469456,note_off,,,,,12,0,1,,,,0,88,64
469472,note_on,,,,,16,0,1,,,,0,73,54
469490,note_on,,,,,18,0,1,,,,0,81,46
469492,note_on,,,,,2,0,1,,,,0,85,65
469506,note_on,,,,,14,0,1,,,,0,76,60
469522,note_off,,,,,16,0,1,,,,0,81,64
469536,note_on,,,,,14,0,1,,,,0,93,69
469538,note_off,,,,,2,0,1,,,,0,85,64
469576,note_off,,,,,38,0,1,,,,0,93,64
469586,note_on,,,,,10,0,1,,,,0,85,72
469588,note_on,,,,,2,0,1,,,,0,81,60
469596,note_off,,,,,8,0,1,,,,0,69,64
469614,note_off,,,,,18,0,1,,,,0,73,64
469616,note_off,,,,,2,0,1,,,,0,81,64
469626,note_off,,,,,10,0,1,,,,0,85,64
469636,note_off,,,,,10,0,1,,,,0,76,64
469640,note_on,,,,,4,0,1,,,,0,93,53
469668,note_off,,,,,28,0,1,,,,0,93,64
469678,note_on,,,,,0,0,1,,,,0,81,62
469678,note_on,,,,,10,0,1,,,,0,85,69
469698,note_off,,,,,20,0,1,,,,0,81,64
469710,note_off,,,,,12,0,1,,,,0,85,64
469728,note_on,,,,,18,0,1,,,,0,93,59
469742,note_off,,,,,14,0,1,,,,0,93,64
469766,note_on,,,,,24,0,1,,,,0,85,67
469766,note_on,,,,,0,0,1,,,,0,81,51
469782,note_off,,,,,16,0,1,,,,0,81,64
469806,note_on,,,,,24,0,1,,,,0,73,58
469808,note_off,,,,,2,0,1,,,,0,85,64
469810,note_on,,,,,2,0,1,,,,0,93,61
469822,note_on,,,,,12,0,1,,,,0,76,46
469824,note_off,,,,,2,0,1,,,,0,93,64
469864,note_on,,,,,40,0,1,,,,0,85,59
469868,note_on,,,,,4,0,1,,,,0,88,59
469870,note_on,,,,,2,0,1,,,,0,81,75
469898,note_off,,,,,28,0,1,,,,0,85,64
469914,note_on,,,,,0,0,1,,,,0,97,69
469914,note_off,,,,,16,0,1,,,,0,88,64
469954,note_off,,,,,40,0,1,,,,0,97,64
469960,note_on,,,,,6,0,1,,,,0,85,65
469962,note_on,,,,,2,0,1,,,,0,88,65
469976,note_off,,,,,14,0,1,,,,0,73,64
469982,note_off,,,,,6,0,1,,,,0,76,64
469988,note_off,,,,,6,0,1,,,,0,85,64
469996,note_off,,,,,8,0,1,,,,0,88,64
470004,note_off,,,,,8,0,1,,,,0,81,64
470008,note_on,,,,,4,0,1,,,,0,97,70
470044,note_off,,,,,36,0,1,,,,0,97,64
470044,note_on,,,,,0,0,1,,,,0,85,66
470048,note_on,,,,,4,0,1,,,,0,88,58
470070,note_off,,,,,22,0,1,,,,0,85,64
470080,note_off,,,,,10,0,1,,,,0,88,64
470096,note_on,,,,,16,0,1,,,,0,97,66
470126,note_on,,,,,30,0,1,,,,0,85,63
470128,note_off,,,,,2,0,1,,,,0,97,64
470132,note_on,,,,,4,0,1,,,,0,88,50
470152,note_off,,,,,20,0,1,,,,0,85,64
470164,note_off,,,,,12,0,1,,,,0,88,64
470172,note_on,,,,,8,0,1,,,,0,97,63
470182,note_on,,,,,10,0,1,,,,0,76,54
470192,note_on,,,,,10,0,1,,,,0,81,53
470196,note_off,,,,,4,0,1,,,,0,97,64
470228,note_on,,,,,32,0,1,,,,0,88,41
470232,note_on,,,,,0,0,1,,,,0,85,86
470232,note_on,,,,,4,0,1,,,,0,93,70
470262,note_off,,,,,30,0,1,,,,0,88,64
470282,note_on,,,,,20,0,1,,,,0,100,56
470284,note_off,,,,,2,0,1,,,,0,93,64
470294,note_off,,,,,10,0,1,,,,0,85,64
470320,note_off,,,,,26,0,1,,,,0,100,64
470330,note_on,,,,,10,0,1,,,,0,88,64
470332,note_on,,,,,2,0,1,,,,0,93,74
470354,note_off,,,,,22,0,1,,,,0,76,64
470362,note_off,,,,,8,0,1,,,,0,88,64
470370,note_off,,,,,8,0,1,,,,0,81,64
470374,note_off,,,,,4,0,1,,,,0,93,64
470380,note_on,,,,,6,0,1,,,,0,100,73
470416,note_off,,,,,36,0,1,,,,0,100,64
470424,note_on,,,,,0,0,1,,,,0,88,60
470424,note_on,,,,,8,0,1,,,,0,93,75
470454,note_off,,,,,30,0,1,,,,0,88,64
470464,note_off,,,,,10,0,1,,,,0,93,64
470476,note_on,,,,,12,0,1,,,,0,100,68
470504,note_off,,,,,28,0,1,,,,0,100,64
470516,note_on,,,,,12,0,1,,,,0,88,58
470520,note_on,,,,,4,0,1,,,,0,93,54
470544,note_off,,,,,24,0,1,,,,0,88,64
470564,note_on,,,,,20,0,1,,,,0,100,73
470566,note_off,,,,,2,0,1,,,,0,93,64
470584,note_off,,,,,18,0,1,,,,0,100,64
470624,note_on,,,,,40,0,1,,,,0,77,56
470626,note_on,,,,,2,0,1,,,,0,74,53
470630,note_on,,,,,4,0,1,,,,0,80,61
470636,note_on,,,,,6,0,1,,,,0,89,75
470638,note_on,,,,,2,0,1,,,,0,92,79
470640,note_on,,,,,2,0,1,,,,0,101,82
470648,control_change,,,,,8,0,1,,64,0,0,,
470668,control_change,,,,,20,0,1,,64,127,0,,
470708,note_on,,,,,40,0,1,,,,0,83,59
470712,note_off,,,,,4,0,1,,,,0,80,64
470714,note_off,,,,,2,0,1,,,,0,74,64
470718,note_off,,,,,4,0,1,,,,0,77,64
470746,note_off,,,,,28,0,1,,,,0,83,64
470768,note_on,,,,,22,0,1,,,,0,80,29
470768,note_on,,,,,0,0,1,,,,0,77,38
470768,note_on,,,,,0,0,1,,,,0,74,37
470812,note_off,,,,,44,0,1,,,,0,77,64
470814,note_off,,,,,2,0,1,,,,0,74,64
470818,note_on,,,,,4,0,1,,,,0,83,59
470820,note_off,,,,,2,0,1,,,,0,80,64
470858,note_on,,,,,0,0,1,,,,0,74,51
470858,note_on,,,,,38,0,1,,,,0,80,39
470860,note_on,,,,,2,0,1,,,,0,77,47
470864,note_off,,,,,4,0,1,,,,0,83,64
470904,note_off,,,,,40,0,1,,,,0,80,64
470908,note_off,,,,,4,0,1,,,,0,77,64
470910,note_off,,,,,2,0,1,,,,0,74,64
470920,note_on,,,,,10,0,1,,,,0,83,64
470946,note_off,,,,,26,0,1,,,,0,101,64
470950,note_on,,,,,4,0,1,,,,0,77,42
470952,note_on,,,,,2,0,1,,,,0,74,51
470956,note_off,,,,,4,0,1,,,,0,83,64
470956,note_on,,,,,0,0,1,,,,0,80,39
470986,note_off,,,,,30,0,1,,,,0,89,64
470990,note_off,,,,,4,0,1,,,,0,92,64
470992,note_off,,,,,2,0,1,,,,0,77,64
470994,note_off,,,,,2,0,1,,,,0,74,64
471008,note_off,,,,,14,0,1,,,,0,80,64
471012,note_on,,,,,4,0,1,,,,0,83,64
471036,note_on,,,,,24,0,1,,,,0,74,57
471048,note_on,,,,,12,0,1,,,,0,77,49
471050,note_off,,,,,2,0,1,,,,0,83,64
471056,note_on,,,,,6,0,1,,,,0,80,22
471090,note_off,,,,,34,0,1,,,,0,77,64
471100,note_off,,,,,10,0,1,,,,0,74,64
471104,note_off,,,,,4,0,1,,,,0,80,64
471104,note_on,,,,,0,0,1,,,,0,83,63
471142,note_on,,,,,38,0,1,,,,0,77,50
471144,note_off,,,,,2,0,1,,,,0,83,64
471144,note_on,,,,,0,0,1,,,,0,80,35
471146,note_on,,,,,2,0,1,,,,0,74,48
471196,note_off,,,,,50,0,1,,,,0,74,64
471200,note_on,,,,,4,0,1,,,,0,83,59
471202,note_off,,,,,2,0,1,,,,0,77,64
471206,note_off,,,,,4,0,1,,,,0,80,64
471240,note_off,,,,,34,0,1,,,,0,83,64
471248,note_on,,,,,0,0,1,,,,0,74,54
471248,note_on,,,,,8,0,1,,,,0,77,51
471250,note_on,,,,,2,0,1,,,,0,80,45
471258,note_on,,,,,8,0,1,,,,0,62,70
471300,note_off,,,,,42,0,1,,,,0,74,64
471302,note_off,,,,,2,0,1,,,,0,77,64
471308,note_on,,,,,0,0,1,,,,0,83,60
471308,note_off,,,,,6,0,1,,,,0,80,64
471354,note_on,,,,,46,0,1,,,,0,80,44
471354,note_on,,,,,0,0,1,,,,0,74,53
471356,note_on,,,,,2,0,1,,,,0,77,56
471360,note_off,,,,,4,0,1,,,,0,83,64
471406,note_off,,,,,46,0,1,,,,0,74,64
471408,note_off,,,,,2,0,1,,,,0,77,64
471416,note_on,,,,,8,0,1,,,,0,83,64
471420,note_off,,,,,4,0,1,,,,0,80,64
471462,note_on,,,,,42,0,1,,,,0,77,55
471466,note_on,,,,,0,0,1,,,,0,65,74
471466,note_on,,,,,4,0,1,,,,0,80,53
471468,note_on,,,,,2,0,1,,,,0,74,57
471480,note_off,,,,,12,0,1,,,,0,83,64
471490,note_off,,,,,10,0,1,,,,0,62,64
471518,note_off,,,,,28,0,1,,,,0,74,64
471522,note_off,,,,,4,0,1,,,,0,77,64
471532,note_on,,,,,10,0,1,,,,0,83,65
471536,note_off,,,,,4,0,1,,,,0,80,64
471580,note_on,,,,,44,0,1,,,,0,77,45
471580,note_on,,,,,0,0,1,,,,0,74,53
471582,note_on,,,,,2,0,1,,,,0,80,40
471596,note_off,,,,,14,0,1,,,,0,83,64
471640,note_off,,,,,44,0,1,,,,0,77,64
471642,note_off,,,,,2,0,1,,,,0,74,64
471650,note_on,,,,,8,0,1,,,,0,83,70
471658,note_off,,,,,8,0,1,,,,0,80,64
471706,note_on,,,,,48,0,1,,,,0,74,55
471708,note_on,,,,,2,0,1,,,,0,77,51
471710,note_on,,,,,2,0,1,,,,0,80,44
471716,note_on,,,,,6,0,1,,,,0,68,80
471718,note_off,,,,,2,0,1,,,,0,83,64
471744,note_off,,,,,26,0,1,,,,0,65,64
471768,note_off,,,,,24,0,1,,,,0,74,64
471776,note_off,,,,,8,0,1,,,,0,77,64
471780,note_on,,,,,4,0,1,,,,0,83,67
471784,note_off,,,,,4,0,1,,,,0,80,64
471840,note_on,,,,,56,0,1,,,,0,74,43
471846,note_on,,,,,6,0,1,,,,0,80,42
471848,note_on,,,,,2,0,1,,,,0,77,39
471860,note_off,,,,,12,0,1,,,,0,83,64
471912,note_off,,,,,52,0,1,,,,0,74,64
471914,note_off,,,,,2,0,1,,,,0,77,64
471926,note_on,,,,,12,0,1,,,,0,83,68
471930,note_off,,,,,4,0,1,,,,0,80,64
472000,note_on,,,,,0,0,1,,,,0,73,85
472000,note_on,,,,,70,0,1,,,,0,80,22
472008,note_on,,,,,8,0,1,,,,0,74,46
472012,note_on,,,,,4,0,1,,,,0,77,52
472026,note_off,,,,,14,0,1,,,,0,83,64
472028,note_off,,,,,2,0,1,,,,0,68,64
472082,note_off,,,,,54,0,1,,,,0,74,64
472092,note_off,,,,,10,0,1,,,,0,77,64
472094,note_on,,,,,2,0,1,,,,0,83,87
472098,note_off,,,,,4,0,1,,,,0,80,64
472204,note_on,,,,,106,0,1,,,,0,74,68
472210,note_on,,,,,6,0,1,,,,0,80,78
472212,note_on,,,,,2,0,1,,,,0,77,78
472222,note_off,,,,,10,0,1,,,,0,83,64
472312,note_off,,,,,90,0,1,,,,0,73,64
472320,set_tempo,,,,,17116,1,0,375000,,,,,
472342,note_on,,,,,30,0,1,,,,0,83,86
472358,note_off,,,,,16,0,1,,,,0,80,64
472374,note_off,,,,,16,0,1,,,,0,77,64
472384,note_off,,,,,10,0,1,,,,0,74,64
472412,note_off,,,,,28,0,1,,,,0,83,64
472600,control_change,,,,,188,0,1,,64,127,0,,
472664,note_on,,,,,64,0,1,,,,0,71,91
472750,note_off,,,,,86,0,1,,,,0,71,64
472836,note_on,,,,,0,0,1,,,,0,57,91
472836,note_on,,,,,86,0,1,,,,0,73,92
472838,note_on,,,,,0,0,1,,,,0,49,83
472838,note_on,,,,,2,0,1,,,,0,69,84
472840,note_on,,,,,2,0,1,,,,0,81,87
472842,note_on,,,,,2,0,1,,,,0,52,84
472842,note_on,,,,,0,0,1,,,,0,45,80
472850,control_change,,,,,8,0,1,,64,0,0,,
472922,control_change,,,,,72,0,1,,64,127,0,,
472934,note_off,,,,,12,0,1,,,,0,81,64
472954,note_off,,,,,0,0,1,,,,0,57,64
472954,note_off,,,,,20,0,1,,,,0,69,64
472964,note_off,,,,,10,0,1,,,,0,52,64
472968,note_off,,,,,4,0,1,,,,0,73,64
472980,note_off,,,,,12,0,1,,,,0,45,64
472980,note_off,,,,,0,0,1,,,,0,49,64
473040,set_tempo,,,,,720,1,0,220588,,,,,
473192,note_on,,,,,0,0,1,,,,0,32,86
473192,note_on,,,,,212,0,1,,,,0,44,89
473198,note_on,,,,,6,0,1,,,,0,68,90
473198,note_on,,,,,0,0,1,,,,0,56,93
473204,control_change,,,,,6,0,1,,64,0,0,,
473258,control_change,,,,,54,0,1,,64,127,0,,
473290,note_off,,,,,32,0,1,,,,0,56,64
473300,note_off,,,,,10,0,1,,,,0,32,64
473304,note_off,,,,,4,0,1,,,,0,44,64
473312,note_off,,,,,8,0,1,,,,0,68,64
473398,note_on,,,,,86,0,1,,,,0,69,86
473398,note_on,,,,,0,0,1,,,,0,57,90
473400,note_on,,,,,0,0,1,,,,0,33,88
473400,note_on,,,,,2,0,1,,,,0,45,86
473408,control_change,,,,,8,0,1,,64,0,0,,
473448,note_off,,,,,40,0,1,,,,0,69,64
473450,control_change,,,,,2,0,1,,64,127,0,,
473492,note_off,,,,,42,0,1,,,,0,57,64
473494,note_off,,,,,0,0,1,,,,0,45,64
473494,note_off,,,,,2,0,1,,,,0,33,64
473556,control_change,,,,,62,0,1,,64,0,0,,
473556,set_tempo,,,,,516,1,0,221402,,,,,
473562,note_on,,,,,6,0,1,,,,0,49,90
473564,note_on,,,,,2,0,1,,,,0,73,91
473564,note_on,,,,,0,0,1,,,,0,61,84
473566,note_on,,,,,2,0,1,,,,0,37,84
473586,control_change,,,,,20,0,1,,64,127,0,,
473612,note_off,,,,,26,0,1,,,,0,61,64
473612,note_off,,,,,0,0,1,,,,0,49,64
473614,note_off,,,,,2,0,1,,,,0,37,64
473616,note_off,,,,,2,0,1,,,,0,73,64
473712,control_change,,,,,96,0,1,,64,0,0,,
473724,note_on,,,,,12,0,1,,,,0,76,82
473726,note_on,,,,,2,0,1,,,,0,64,83
473726,note_on,,,,,0,0,1,,,,0,40,81
473728,note_on,,,,,2,0,1,,,,0,52,80
473744,control_change,,,,,16,0,1,,64,127,0,,
473756,note_off,,,,,12,0,1,,,,0,64,64
473764,note_off,,,,,8,0,1,,,,0,40,64
473766,note_off,,,,,2,0,1,,,,0,52,64
473772,note_off,,,,,6,0,1,,,,0,76,64
473878,control_change,,,,,106,0,1,,64,0,0,,
473894,note_on,,,,,16,0,1,,,,0,56,91
473896,note_on,,,,,0,0,1,,,,0,44,84
473896,note_on,,,,,2,0,1,,,,0,68,92
473898,note_on,,,,,2,0,1,,,,0,80,88
473912,control_change,,,,,14,0,1,,64,127,0,,
473944,note_off,,,,,32,0,1,,,,0,68,64
473950,note_off,,,,,6,0,1,,,,0,56,64
473952,note_off,,,,,2,0,1,,,,0,80,64
473954,note_off,,,,,2,0,1,,,,0,44,64
474042,control_change,,,,,88,0,1,,64,0,0,,
474060,note_on,,,,,18,0,1,,,,0,45,85
474062,note_on,,,,,2,0,1,,,,0,57,88
474066,note_on,,,,,0,0,1,,,,0,69,90
474066,note_on,,,,,4,0,1,,,,0,81,88
474074,control_change,,,,,8,0,1,,64,127,0,,
474092,note_off,,,,,18,0,1,,,,0,45,64
474094,note_off,,,,,2,0,1,,,,0,69,64
474098,note_off,,,,,4,0,1,,,,0,57,64
474110,note_off,,,,,12,0,1,,,,0,81,64
474240,note_on,,,,,130,0,1,,,,0,85,96
474240,note_on,,,,,0,0,1,,,,0,61,92
474242,note_on,,,,,0,0,1,,,,0,49,88
474242,note_on,,,,,2,0,1,,,,0,73,87
474260,control_change,,,,,18,0,1,,64,0,0,,
474286,control_change,,,,,26,0,1,,64,127,0,,
474288,note_off,,,,,2,0,1,,,,0,73,64
474288,note_off,,,,,0,0,1,,,,0,61,64
474292,note_off,,,,,4,0,1,,,,0,49,64
474296,note_off,,,,,4,0,1,,,,0,85,64
474300,set_tempo,,,,,744,1,0,220588,,,,,
474360,set_tempo,,,,,60,1,0,219780,,,,,
474420,set_tempo,,,,,60,1,0,218182,,,,,
474438,note_on,,,,,142,0,1,,,,0,64,94
474440,note_on,,,,,2,0,1,,,,0,88,82
474440,note_on,,,,,0,0,1,,,,0,76,81
474442,note_on,,,,,2,0,1,,,,0,52,87
474448,control_change,,,,,6,0,1,,64,0,0,,
474472,control_change,,,,,24,0,1,,64,127,0,,
474474,note_off,,,,,2,0,1,,,,0,76,64
474480,set_tempo,,,,,60,1,0,217391,,,,,
474498,note_off,,,,,24,0,1,,,,0,88,64
474504,note_off,,,,,6,0,1,,,,0,64,64
474520,note_off,,,,,16,0,1,,,,0,52,64
474540,set_tempo,,,,,60,1,0,216606,,,,,
474600,set_tempo,,,,,60,1,0,215827,,,,,
474652,note_on,,,,,132,0,1,,,,0,92,94
474654,note_on,,,,,2,0,1,,,,0,80,92
474660,set_tempo,,,,,60,1,0,214286,,,,,
474688,note_off,,,,,34,0,1,,,,0,80,64
474700,note_off,,,,,12,0,1,,,,0,92,64
474720,set_tempo,,,,,60,1,0,221402,,,,,
474736,set_tempo,,,,,16,1,0,222222,,,,,
474764,set_tempo,,,,,28,1,0,221402,,,,,
474938,note_on,,,,,238,0,1,,,,0,58,91
474940,note_on,,,,,2,0,1,,,,0,46,90
474942,note_on,,,,,2,0,1,,,,0,86,92
474944,note_on,,,,,0,0,1,,,,0,81,95
474944,note_on,,,,,2,0,1,,,,0,93,92
474950,note_on,,,,,6,0,1,,,,0,50,87
474952,note_on,,,,,2,0,1,,,,0,90,89
474986,control_change,,,,,34,0,1,,64,0,0,,
475062,note_off,,,,,76,0,1,,,,0,90,64
475064,control_change,,,,,2,0,1,,64,127,0,,
475082,note_off,,,,,18,0,1,,,,0,93,64
475090,note_off,,,,,8,0,1,,,,0,58,64
475106,note_off,,,,,16,0,1,,,,0,86,64
475112,note_off,,,,,6,0,1,,,,0,50,64
475112,note_off,,,,,0,0,1,,,,0,81,64
475150,note_off,,,,,38,0,1,,,,0,46,64
475306,note_on,,,,,156,0,1,,,,0,57,85
475308,note_on,,,,,2,0,1,,,,0,69,84
475310,note_on,,,,,0,0,1,,,,0,33,82
475310,note_on,,,,,2,0,1,,,,0,45,86
475324,control_change,,,,,14,0,1,,64,0,0,,
475344,note_off,,,,,20,0,1,,,,0,57,64
475350,note_off,,,,,6,0,1,,,,0,45,64
475352,note_off,,,,,2,0,1,,,,0,33,64
475356,control_change,,,,,0,0,1,,64,127,0,,
475356,note_off,,,,,4,0,1,,,,0,69,64
475486,note_on,,,,,0,0,1,,,,0,58,90
475486,note_on,,,,,130,0,1,,,,0,70,84
475488,control_change,,,,,2,0,1,,64,0,0,,
475490,note_on,,,,,0,0,1,,,,0,34,86
475490,note_on,,,,,2,0,1,,,,0,46,86
475510,control_change,,,,,20,0,1,,64,127,0,,
475522,note_off,,,,,12,0,1,,,,0,58,64
475532,note_off,,,,,0,0,1,,,,0,70,64
475532,note_off,,,,,10,0,1,,,,0,34,64
475536,note_off,,,,,4,0,1,,,,0,46,64
475646,control_change,,,,,110,0,1,,64,0,0,,
475648,note_on,,,,,0,0,1,,,,0,62,80
475648,note_on,,,,,2,0,1,,,,0,74,85
475650,note_on,,,,,2,0,1,,,,0,50,84
475650,note_on,,,,,0,0,1,,,,0,38,82
475670,control_change,,,,,20,0,1,,64,127,0,,
475684,note_off,,,,,14,0,1,,,,0,62,64
475688,note_off,,,,,4,0,1,,,,0,50,64
475698,note_off,,,,,10,0,1,,,,0,74,64
475700,note_off,,,,,2,0,1,,,,0,38,64
475800,note_on,,,,,100,0,1,,,,0,65,93
475802,control_change,,,,,0,0,1,,64,0,0,,
475802,note_on,,,,,2,0,1,,,,0,41,90
475804,note_on,,,,,2,0,1,,,,0,77,81
475804,note_on,,,,,0,0,1,,,,0,53,92
475814,control_change,,,,,10,0,1,,64,127,0,,
475834,note_off,,,,,20,0,1,,,,0,65,64
475842,note_off,,,,,8,0,1,,,,0,53,64
475850,note_off,,,,,8,0,1,,,,0,41,64
475860,note_off,,,,,10,0,1,,,,0,77,64
475950,control_change,,,,,90,0,1,,64,0,0,,
475952,note_on,,,,,2,0,1,,,,0,57,94
475954,note_on,,,,,2,0,1,,,,0,45,92
475956,note_on,,,,,2,0,1,,,,0,69,84
475958,note_on,,,,,2,0,1,,,,0,81,74
475968,control_change,,,,,10,0,1,,64,127,0,,
475990,note_off,,,,,22,0,1,,,,0,69,64
475994,note_off,,,,,4,0,1,,,,0,57,64
476006,note_off,,,,,12,0,1,,,,0,45,64
476008,note_off,,,,,2,0,1,,,,0,81,64
476100,control_change,,,,,92,0,1,,64,0,0,,
476114,note_on,,,,,14,0,1,,,,0,58,81
476120,note_on,,,,,6,0,1,,,,0,82,92
476120,note_on,,,,,0,0,1,,,,0,46,88
476122,note_on,,,,,2,0,1,,,,0,70,92
476128,control_change,,,,,6,0,1,,64,127,0,,
476158,note_off,,,,,30,0,1,,,,0,70,64
476168,note_off,,,,,0,0,1,,,,0,82,64
476168,note_off,,,,,10,0,1,,,,0,58,64
476172,note_off,,,,,4,0,1,,,,0,46,64
476280,control_change,,,,,108,0,1,,64,0,0,,
476292,note_on,,,,,12,0,1,,,,0,50,84
476294,note_on,,,,,2,0,1,,,,0,62,87
476296,note_on,,,,,2,0,1,,,,0,86,93
476296,note_on,,,,,0,0,1,,,,0,74,87
476302,control_change,,,,,6,0,1,,64,127,0,,
476326,note_off,,,,,24,0,1,,,,0,74,64
476332,note_off,,,,,6,0,1,,,,0,50,64
476336,note_off,,,,,4,0,1,,,,0,62,64
476342,note_off,,,,,6,0,1,,,,0,86,64
476396,set_tempo,,,,,1632,1,0,220588,,,,,
476400,set_tempo,,,,,4,1,0,219780,,,,,
476404,set_tempo,,,,,4,1,0,218182,,,,,
476408,set_tempo,,,,,4,1,0,217391,,,,,
476412,set_tempo,,,,,4,1,0,216606,,,,,
476416,set_tempo,,,,,4,1,0,215827,,,,,
476420,set_tempo,,,,,4,1,0,214286,,,,,
476424,set_tempo,,,,,4,1,0,213523,,,,,
476464,control_change,,,,,122,0,1,,64,0,0,,
476480,note_on,,,,,16,0,1,,,,0,65,84
476482,control_change,,,,,2,0,1,,64,127,0,,
476484,note_on,,,,,2,0,1,,,,0,77,90
476486,note_on,,,,,2,0,1,,,,0,89,90
476490,note_on,,,,,4,0,1,,,,0,53,83
476514,note_off,,,,,24,0,1,,,,0,77,64
476520,note_off,,,,,6,0,1,,,,0,65,64
476526,note_off,,,,,6,0,1,,,,0,53,64
476526,note_off,,,,,0,0,1,,,,0,89,64
476688,note_on,,,,,0,0,1,,,,0,80,90
476688,note_on,,,,,162,0,1,,,,0,92,98
476716,note_off,,,,,28,0,1,,,,0,80,64
476720,note_off,,,,,4,0,1,,,,0,92,64
476928,note_on,,,,,0,0,1,,,,0,81,86
476928,note_on,,,,,208,0,1,,,,0,87,92
476930,note_on,,,,,0,0,1,,,,0,47,87
476930,note_on,,,,,2,0,1,,,,0,51,90
476932,note_on,,,,,2,0,1,,,,0,59,93
476934,note_on,,,,,2,0,1,,,,0,93,92
476962,control_change,,,,,28,0,1,,64,0,0,,
477008,set_tempo,,,,,584,1,0,212014,,,,,
477012,set_tempo,,,,,4,1,0,213523,,,,,
477020,set_tempo,,,,,8,1,0,214286,,,,,
477024,set_tempo,,,,,4,1,0,215827,,,,,
477028,set_tempo,,,,,4,1,0,216606,,,,,
477032,set_tempo,,,,,4,1,0,217391,,,,,
477036,set_tempo,,,,,4,1,0,218182,,,,,
477036,control_change,,,,,74,0,1,,64,127,0,,
477040,note_off,,,,,4,0,1,,,,0,93,64
477040,set_tempo,,,,,4,1,0,219780,,,,,
477044,set_tempo,,,,,4,1,0,221402,,,,,
477056,note_off,,,,,16,0,1,,,,0,59,64
477070,note_off,,,,,14,0,1,,,,0,87,64
477074,note_off,,,,,4,0,1,,,,0,81,64
477076,note_off,,,,,2,0,1,,,,0,47,64
477086,note_off,,,,,10,0,1,,,,0,51,64
477232,note_on,,,,,146,0,1,,,,0,70,87
477232,note_on,,,,,0,0,1,,,,0,58,91
477238,note_on,,,,,6,0,1,,,,0,46,83
477238,note_on,,,,,0,0,1,,,,0,34,90
477254,control_change,,,,,16,0,1,,64,0,0,,
477290,control_change,,,,,36,0,1,,64,127,0,,
477338,note_off,,,,,48,0,1,,,,0,34,64
477338,note_off,,,,,0,0,1,,,,0,58,64
477344,note_off,,,,,6,0,1,,,,0,70,64
477346,note_off,,,,,2,0,1,,,,0,46,64
477400,note_on,,,,,54,0,1,,,,0,71,83
477400,note_on,,,,,0,0,1,,,,0,59,79
477406,note_on,,,,,6,0,1,,,,0,47,88
477406,note_on,,,,,0,0,1,,,,0,35,85
477408,control_change,,,,,2,0,1,,64,0,0,,
477434,note_off,,,,,26,0,1,,,,0,59,64
477438,note_off,,,,,4,0,1,,,,0,35,64
477440,control_change,,,,,2,0,1,,64,127,0,,
477442,note_off,,,,,2,0,1,,,,0,47,64
477450,note_off,,,,,8,0,1,,,,0,71,64
477566,note_on,,,,,116,0,1,,,,0,75,88
477568,note_on,,,,,2,0,1,,,,0,63,82
477572,note_on,,,,,0,0,1,,,,0,51,92
477572,control_change,,,,,4,0,1,,64,0,0,,
477576,note_on,,,,,4,0,1,,,,0,39,77
477608,control_change,,,,,32,0,1,,64,127,0,,
477618,note_off,,,,,10,0,1,,,,0,63,64
477632,note_off,,,,,14,0,1,,,,0,75,64
477638,note_off,,,,,6,0,1,,,,0,39,64
477640,note_off,,,,,2,0,1,,,,0,51,64
477728,control_change,,,,,88,0,1,,64,0,0,,
477730,note_on,,,,,0,0,1,,,,0,54,92
477730,note_on,,,,,2,0,1,,,,0,66,89
477732,note_on,,,,,2,0,1,,,,0,78,88
477732,note_on,,,,,0,0,1,,,,0,42,87
477756,control_change,,,,,24,0,1,,64,127,0,,
477770,note_off,,,,,14,0,1,,,,0,66,64
477782,note_off,,,,,12,0,1,,,,0,78,64
477784,note_off,,,,,2,0,1,,,,0,42,64
477788,note_off,,,,,4,0,1,,,,0,54,64
477900,control_change,,,,,112,0,1,,64,0,0,,
477902,note_on,,,,,2,0,1,,,,0,82,92
477902,note_on,,,,,0,0,1,,,,0,58,85
477904,note_on,,,,,2,0,1,,,,0,70,91
477904,note_on,,,,,0,0,1,,,,0,46,85
477932,control_change,,,,,28,0,1,,64,127,0,,
477956,note_off,,,,,24,0,1,,,,0,58,64
477970,note_off,,,,,14,0,1,,,,0,46,64
477980,note_off,,,,,10,0,1,,,,0,82,64
478022,note_off,,,,,42,0,1,,,,0,70,64
478072,control_change,,,,,50,0,1,,64,0,0,,
478076,note_on,,,,,4,0,1,,,,0,71,90
478076,note_on,,,,,0,0,1,,,,0,59,90
478080,note_on,,,,,4,0,1,,,,0,83,87
478080,note_on,,,,,0,0,1,,,,0,47,91
478104,control_change,,,,,24,0,1,,64,127,0,,
478108,note_off,,,,,0,0,1,,,,0,71,64
478108,note_off,,,,,4,0,1,,,,0,59,64
478114,note_off,,,,,6,0,1,,,,0,47,64
478126,note_off,,,,,12,0,1,,,,0,83,64
478248,control_change,,,,,122,0,1,,64,0,0,,
478256,note_on,,,,,8,0,1,,,,0,75,92
478258,note_on,,,,,2,0,1,,,,0,87,100
478260,note_on,,,,,2,0,1,,,,0,63,88
478260,note_on,,,,,0,0,1,,,,0,51,90
478278,control_change,,,,,18,0,1,,64,127,0,,
478296,note_off,,,,,18,0,1,,,,0,75,64
478300,note_off,,,,,4,0,1,,,,0,63,64
478304,note_off,,,,,4,0,1,,,,0,51,64
478316,note_off,,,,,12,0,1,,,,0,87,64
478440,control_change,,,,,124,0,1,,64,0,0,,
478446,note_on,,,,,6,0,1,,,,0,78,87
478448,note_on,,,,,2,0,1,,,,0,90,92
478448,note_on,,,,,0,0,1,,,,0,66,86
478452,note_on,,,,,4,0,1,,,,0,54,87
478460,control_change,,,,,8,0,1,,64,127,0,,
478492,note_off,,,,,32,0,1,,,,0,78,64
478494,note_off,,,,,2,0,1,,,,0,66,64
478502,note_off,,,,,8,0,1,,,,0,54,64
478508,note_off,,,,,6,0,1,,,,0,90,64
478664,note_on,,,,,156,0,1,,,,0,92,97
478666,note_on,,,,,2,0,1,,,,0,80,96
478702,note_off,,,,,36,0,1,,,,0,80,64
478716,note_off,,,,,14,0,1,,,,0,92,64
478716,set_tempo,,,,,1672,1,0,222222,,,,,
478732,set_tempo,,,,,16,1,0,224719,,,,,
478736,set_tempo,,,,,4,1,0,226415,,,,,
478740,set_tempo,,,,,4,1,0,229008,,,,,
478744,set_tempo,,,,,4,1,0,230769,,,,,
478748,set_tempo,,,,,4,1,0,233463,,,,,
478752,set_tempo,,,,,4,1,0,237154,,,,,
478756,set_tempo,,,,,4,1,0,239044,,,,,
478760,set_tempo,,,,,4,1,0,241935,,,,,
478764,set_tempo,,,,,4,1,0,242915,,,,,
478768,set_tempo,,,,,4,1,0,246914,,,,,
478772,set_tempo,,,,,4,1,0,248963,,,,,
478776,set_tempo,,,,,4,1,0,253165,,,,,
478780,set_tempo,,,,,4,1,0,254237,,,,,
478784,set_tempo,,,,,4,1,0,258621,,,,,
478788,set_tempo,,,,,4,1,0,260870,,,,,
478792,set_tempo,,,,,4,1,0,264317,,,,,
478796,set_tempo,,,,,4,1,0,266667,,,,,
478800,set_tempo,,,,,4,1,0,270270,,,,,
478804,set_tempo,,,,,4,1,0,269058,,,,,
478808,set_tempo,,,,,4,1,0,266667,,,,,
478812,set_tempo,,,,,4,1,0,264317,,,,,
478816,set_tempo,,,,,4,1,0,263158,,,,,
478820,set_tempo,,,,,4,1,0,259740,,,,,
478824,set_tempo,,,,,4,1,0,255319,,,,,
478828,set_tempo,,,,,4,1,0,254237,,,,,
478832,set_tempo,,,,,4,1,0,253165,,,,,
478836,set_tempo,,,,,4,1,0,250000,,,,,
478840,set_tempo,,,,,4,1,0,247934,,,,,
478844,set_tempo,,,,,4,1,0,246914,,,,,
478848,set_tempo,,,,,4,1,0,242915,,,,,
478852,set_tempo,,,,,4,1,0,241935,,,,,
478856,set_tempo,,,,,4,1,0,239044,,,,,
478860,set_tempo,,,,,4,1,0,238095,,,,,
478864,set_tempo,,,,,4,1,0,235294,,,,,
478868,set_tempo,,,,,4,1,0,233463,,,,,
478876,set_tempo,,,,,8,1,0,232558,,,,,
478880,set_tempo,,,,,4,1,0,230769,,,,,
478884,set_tempo,,,,,4,1,0,229008,,,,,
478888,set_tempo,,,,,4,1,0,228137,,,,,
478888,note_on,,,,,172,0,1,,,,0,48,87
478890,note_on,,,,,2,0,1,,,,0,52,79
478892,set_tempo,,,,,4,1,0,226415,,,,,
478892,note_on,,,,,0,0,1,,,,0,81,87
478892,note_on,,,,,2,0,1,,,,0,93,90
478896,note_on,,,,,0,0,1,,,,0,57,85
478896,note_on,,,,,4,0,1,,,,0,88,88
478896,set_tempo,,,,,4,1,0,224719,,,,,
478900,note_on,,,,,4,0,1,,,,0,60,84
478900,set_tempo,,,,,4,1,0,223881,,,,,
478904,set_tempo,,,,,4,1,0,221402,,,,,
478912,control_change,,,,,12,0,1,,64,0,0,,
478982,control_change,,,,,70,0,1,,64,127,0,,
478992,note_off,,,,,10,0,1,,,,0,93,64
479004,note_off,,,,,12,0,1,,,,0,60,64
479010,note_off,,,,,6,0,1,,,,0,88,64
479012,note_off,,,,,2,0,1,,,,0,57,64
479024,note_off,,,,,12,0,1,,,,0,81,64
479034,note_off,,,,,10,0,1,,,,0,52,64
479044,note_off,,,,,10,0,1,,,,0,48,64
479132,set_tempo,,,,,228,1,0,222222,,,,,
479196,note_on,,,,,152,0,1,,,,0,59,80
479198,note_on,,,,,2,0,1,,,,0,71,84
479200,note_on,,,,,2,0,1,,,,0,35,81
479204,note_on,,,,,4,0,1,,,,0,47,82
479210,control_change,,,,,6,0,1,,64,0,0,,
479250,control_change,,,,,0,0,1,,64,127,0,,
479250,note_off,,,,,40,0,1,,,,0,35,64
479262,note_off,,,,,12,0,1,,,,0,47,64
479264,note_off,,,,,2,0,1,,,,0,59,64
479268,set_tempo,,,,,136,1,0,221402,,,,,
479286,note_off,,,,,22,0,1,,,,0,71,64
479368,note_on,,,,,0,0,1,,,,0,48,90
479368,note_on,,,,,82,0,1,,,,0,60,85
479370,note_on,,,,,2,0,1,,,,0,36,83
479372,note_on,,,,,2,0,1,,,,0,72,82
479386,control_change,,,,,14,0,1,,64,0,0,,
479404,set_tempo,,,,,136,1,0,220588,,,,,
479406,control_change,,,,,20,0,1,,64,127,0,,
479410,note_off,,,,,4,0,1,,,,0,48,64
479414,note_off,,,,,4,0,1,,,,0,60,64
479424,note_off,,,,,10,0,1,,,,0,36,64
479440,note_off,,,,,16,0,1,,,,0,72,64
479538,note_on,,,,,0,0,1,,,,0,63,90
479538,note_on,,,,,98,0,1,,,,0,75,86
479540,set_tempo,,,,,136,1,0,219780,,,,,
479540,note_on,,,,,2,0,1,,,,0,51,89
479540,note_on,,,,,0,0,1,,,,0,39,87
479566,control_change,,,,,26,0,1,,64,0,0,,
479594,control_change,,,,,28,0,1,,64,127,0,,
479634,note_off,,,,,40,0,1,,,,0,75,64
479636,note_off,,,,,2,0,1,,,,0,51,64
479640,note_off,,,,,4,0,1,,,,0,39,64
479644,note_off,,,,,4,0,1,,,,0,63,64
479676,set_tempo,,,,,136,1,0,218182,,,,,
479692,note_on,,,,,48,0,1,,,,0,52,85
479694,note_on,,,,,2,0,1,,,,0,40,83
479696,note_on,,,,,2,0,1,,,,0,76,82
479696,control_change,,,,,0,0,1,,64,0,0,,
479696,note_on,,,,,0,0,1,,,,0,64,88
479716,control_change,,,,,20,0,1,,64,127,0,,
479732,note_off,,,,,16,0,1,,,,0,64,64
479734,note_off,,,,,2,0,1,,,,0,52,64
479736,note_off,,,,,2,0,1,,,,0,40,64
479756,note_off,,,,,20,0,1,,,,0,76,64
479812,set_tempo,,,,,136,1,0,217391,,,,,
479852,note_on,,,,,96,0,1,,,,0,56,96
479854,note_on,,,,,2,0,1,,,,0,80,86
479856,note_on,,,,,2,0,1,,,,0,68,95
479856,note_on,,,,,0,0,1,,,,0,44,87
479862,control_change,,,,,6,0,1,,64,0,0,,
479892,control_change,,,,,30,0,1,,64,127,0,,
479948,set_tempo,,,,,136,1,0,216606,,,,,
479958,note_off,,,,,66,0,1,,,,0,80,64
479962,note_off,,,,,4,0,1,,,,0,44,64
479964,note_off,,,,,2,0,1,,,,0,56,64
479968,note_off,,,,,4,0,1,,,,0,68,64
480026,control_change,,,,,58,0,1,,64,0,0,,
480028,note_on,,,,,2,0,1,,,,0,81,90
480030,note_on,,,,,2,0,1,,,,0,57,98
480030,note_on,,,,,0,0,1,,,,0,45,97
480032,note_on,,,,,2,0,1,,,,0,69,92
480064,control_change,,,,,32,0,1,,64,127,0,,
480070,note_off,,,,,6,0,1,,,,0,69,64
480076,note_off,,,,,6,0,1,,,,0,57,64
480078,note_off,,,,,2,0,1,,,,0,45,64
480084,set_tempo,,,,,136,1,0,215827,,,,,
480094,note_off,,,,,16,0,1,,,,0,81,64
480208,control_change,,,,,114,0,1,,64,0,0,,
480212,note_on,,,,,4,0,1,,,,0,72,93
480214,note_on,,,,,0,0,1,,,,0,48,97
480214,note_on,,,,,2,0,1,,,,0,60,85
480216,note_on,,,,,2,0,1,,,,0,84,84
480220,set_tempo,,,,,136,1,0,214286,,,,,
480232,control_change,,,,,16,0,1,,64,127,0,,
480248,note_off,,,,,16,0,1,,,,0,72,64
480264,note_off,,,,,16,0,1,,,,0,60,64
480268,note_off,,,,,4,0,1,,,,0,48,64
480274,note_off,,,,,6,0,1,,,,0,84,64
480356,set_tempo,,,,,136,1,0,213523,,,,,
480402,control_change,,,,,128,0,1,,64,0,0,,
480408,note_on,,,,,6,0,1,,,,0,88,86
480408,note_on,,,,,0,0,1,,,,0,64,94
480410,note_on,,,,,2,0,1,,,,0,76,91
480412,note_on,,,,,2,0,1,,,,0,52,87
480424,control_change,,,,,12,0,1,,64,127,0,,
480444,note_off,,,,,20,0,1,,,,0,76,64
480468,note_off,,,,,0,0,1,,,,0,88,64
480468,note_off,,,,,24,0,1,,,,0,52,64
480472,note_off,,,,,4,0,1,,,,0,64,64
480628,note_on,,,,,156,0,1,,,,0,92,98
480628,note_on,,,,,0,0,1,,,,0,80,95
480628,set_tempo,,,,,272,1,0,212014,,,,,
480656,note_off,,,,,28,0,1,,,,0,80,64
480674,note_off,,,,,18,0,1,,,,0,92,64
480760,set_tempo,,,,,132,1,0,210526,,,,,
480804,set_tempo,,,,,44,1,0,221402,,,,,
480808,set_tempo,,,,,4,1,0,222222,,,,,
480812,set_tempo,,,,,4,1,0,223881,,,,,
480816,set_tempo,,,,,4,1,0,224719,,,,,
480820,set_tempo,,,,,4,1,0,225564,,,,,
480824,set_tempo,,,,,4,1,0,226415,,,,,
480828,set_tempo,,,,,4,1,0,228137,,,,,
480832,set_tempo,,,,,4,1,0,229008,,,,,
480836,set_tempo,,,,,4,1,0,229885,,,,,
480840,set_tempo,,,,,4,1,0,230769,,,,,
480844,set_tempo,,,,,4,1,0,232558,,,,,
480848,set_tempo,,,,,4,1,0,233463,,,,,
480852,set_tempo,,,,,4,1,0,234375,,,,,
480856,set_tempo,,,,,4,1,0,237154,,,,,
480860,set_tempo,,,,,4,1,0,238095,,,,,
480862,note_on,,,,,188,0,1,,,,0,49,87
480864,set_tempo,,,,,4,1,0,239044,,,,,
480866,note_on,,,,,4,0,1,,,,0,61,93
480868,note_on,,,,,2,0,1,,,,0,57,87
480868,set_tempo,,,,,4,1,0,240000,,,,,
480872,note_on,,,,,0,0,1,,,,0,85,92
480872,set_tempo,,,,,4,1,0,241935,,,,,
480872,note_on,,,,,4,0,1,,,,0,88,92
480876,set_tempo,,,,,4,1,0,242915,,,,,
480876,note_on,,,,,4,0,1,,,,0,81,86
480876,note_on,,,,,0,0,1,,,,0,79,82
480884,set_tempo,,,,,8,1,0,244898,,,,,
480888,set_tempo,,,,,4,1,0,246914,,,,,
480888,control_change,,,,,12,0,1,,64,0,0,,
480892,set_tempo,,,,,4,1,0,247934,,,,,
480896,set_tempo,,,,,4,1,0,248963,,,,,
480900,set_tempo,,,,,4,1,0,250000,,,,,
480904,set_tempo,,,,,4,1,0,253165,,,,,
480908,set_tempo,,,,,4,1,0,254237,,,,,
480916,set_tempo,,,,,8,1,0,255319,,,,,
480920,set_tempo,,,,,4,1,0,258621,,,,,
480924,set_tempo,,,,,4,1,0,259740,,,,,
480928,set_tempo,,,,,4,1,0,260870,,,,,
480932,set_tempo,,,,,4,1,0,263158,,,,,
480936,set_tempo,,,,,4,1,0,264317,,,,,
480940,set_tempo,,,,,4,1,0,265487,,,,,
480942,note_off,,,,,54,0,1,,,,0,85,64
480944,set_tempo,,,,,4,1,0,266667,,,,,
480952,set_tempo,,,,,8,1,0,270270,,,,,
480956,set_tempo,,,,,4,1,0,272727,,,,,
480956,control_change,,,,,14,0,1,,64,127,0,,
480960,set_tempo,,,,,4,1,0,275229,,,,,
480964,note_on,,,,,8,0,1,,,,0,93,82
480964,set_tempo,,,,,4,1,0,276498,,,,,
480968,set_tempo,,,,,4,1,0,277778,,,,,
480972,set_tempo,,,,,4,1,0,279070,,,,,
480976,note_off,,,,,12,0,1,,,,0,81,64
480976,set_tempo,,,,,4,1,0,281690,,,,,
480980,note_off,,,,,4,0,1,,,,0,79,64
480982,note_off,,,,,2,0,1,,,,0,88,64
480984,set_tempo,,,,,8,1,0,283019,,,,,
480988,set_tempo,,,,,4,1,0,284360,,,,,
480992,set_tempo,,,,,4,1,0,285714,,,,,
480996,set_tempo,,,,,4,1,0,289855,,,,,
481000,set_tempo,,,,,4,1,0,291262,,,,,
481004,set_tempo,,,,,4,1,0,295567,,,,,
481008,set_tempo,,,,,4,1,0,297030,,,,,
481016,note_off,,,,,34,0,1,,,,0,49,64
481016,set_tempo,,,,,8,1,0,298507,,,,,
481018,note_off,,,,,2,0,1,,,,0,57,64
481020,set_tempo,,,,,4,1,0,300000,,,,,
481022,note_off,,,,,4,0,1,,,,0,61,64
481024,set_tempo,,,,,4,1,0,303030,,,,,
481028,set_tempo,,,,,4,1,0,304569,,,,,
481044,note_on,,,,,22,0,1,,,,0,88,81
481046,note_on,,,,,2,0,1,,,,0,81,52
481050,note_off,,,,,4,0,1,,,,0,93,64
481052,note_on,,,,,2,0,1,,,,0,85,61
481054,note_on,,,,,2,0,1,,,,0,79,55
481064,note_off,,,,,10,0,1,,,,0,85,64
481064,set_tempo,,,,,36,1,0,307692,,,,,
481068,note_off,,,,,4,0,1,,,,0,79,64
481076,note_off,,,,,8,0,1,,,,0,81,64
481096,set_tempo,,,,,32,1,0,310881,,,,,
481108,note_on,,,,,32,0,1,,,,0,93,77
481110,note_off,,,,,2,0,1,,,,0,88,64
481128,set_tempo,,,,,32,1,0,312500,,,,,
481156,set_tempo,,,,,28,1,0,314136,,,,,
481156,note_off,,,,,46,0,1,,,,0,93,64
481162,note_on,,,,,6,0,1,,,,0,88,71
481162,note_on,,,,,0,0,1,,,,0,81,63
481168,note_on,,,,,6,0,1,,,,0,79,63
481170,note_on,,,,,2,0,1,,,,0,85,55
481186,note_off,,,,,16,0,1,,,,0,85,64
481194,note_off,,,,,8,0,1,,,,0,81,64
481200,note_off,,,,,6,0,1,,,,0,79,64
481212,note_on,,,,,12,0,1,,,,0,93,81
481214,note_off,,,,,2,0,1,,,,0,88,64
481220,set_tempo,,,,,64,1,0,315789,,,,,
481248,set_tempo,,,,,28,1,0,319149,,,,,
481258,note_off,,,,,44,0,1,,,,0,93,64
481268,note_on,,,,,10,0,1,,,,0,88,79
481268,note_on,,,,,0,0,1,,,,0,81,76
481272,note_on,,,,,4,0,1,,,,0,67,84
481274,note_on,,,,,2,0,1,,,,0,55,82
481278,note_on,,,,,4,0,1,,,,0,79,48
481280,set_tempo,,,,,32,1,0,320856,,,,,
481292,note_off,,,,,14,0,1,,,,0,79,64
481292,note_on,,,,,0,0,1,,,,0,85,42
481298,control_change,,,,,6,0,1,,64,0,0,,
481302,control_change,,,,,4,0,1,,64,127,0,,
481308,note_off,,,,,6,0,1,,,,0,85,64
481308,note_off,,,,,0,0,1,,,,0,81,64
481312,set_tempo,,,,,32,1,0,322581,,,,,
481314,note_off,,,,,6,0,1,,,,0,67,64
481322,note_off,,,,,8,0,1,,,,0,55,64
481338,note_off,,,,,16,0,1,,,,0,88,64
481340,note_on,,,,,2,0,1,,,,0,93,66
481340,set_tempo,,,,,28,1,0,324324,,,,,
481372,set_tempo,,,,,32,1,0,329670,,,,,
481380,note_on,,,,,40,0,1,,,,0,88,77
481382,note_off,,,,,2,0,1,,,,0,93,64
481388,note_on,,,,,0,0,1,,,,0,79,62
481388,note_on,,,,,6,0,1,,,,0,85,74
481396,note_on,,,,,8,0,1,,,,0,81,47
481400,note_on,,,,,4,0,1,,,,0,66,91
481404,set_tempo,,,,,32,1,0,331492,,,,,
481404,note_on,,,,,4,0,1,,,,0,54,82
481410,note_off,,,,,6,0,1,,,,0,81,64
481424,note_off,,,,,14,0,1,,,,0,79,64
481432,set_tempo,,,,,28,1,0,333333,,,,,
481440,note_off,,,,,0,0,1,,,,0,85,64
481440,note_off,,,,,16,0,1,,,,0,66,64
481448,note_off,,,,,8,0,1,,,,0,54,64
481450,note_on,,,,,2,0,1,,,,0,93,73
481456,note_off,,,,,6,0,1,,,,0,88,64
481496,set_tempo,,,,,64,1,0,337079,,,,,
481500,note_on,,,,,44,0,1,,,,0,64,92
481502,note_on,,,,,2,0,1,,,,0,88,75
481504,note_on,,,,,2,0,1,,,,0,52,92
481506,note_on,,,,,0,0,1,,,,0,79,82
481506,note_on,,,,,2,0,1,,,,0,81,67
481510,note_on,,,,,4,0,1,,,,0,85,76
481512,note_off,,,,,2,0,1,,,,0,93,64
481524,set_tempo,,,,,28,1,0,338983,,,,,
481532,note_off,,,,,20,0,1,,,,0,64,64
481534,note_off,,,,,2,0,1,,,,0,79,64
481534,note_off,,,,,0,0,1,,,,0,52,64
481538,note_off,,,,,4,0,1,,,,0,81,64
481544,note_off,,,,,6,0,1,,,,0,85,64
481556,set_tempo,,,,,32,1,0,340909,,,,,
481560,note_on,,,,,16,0,1,,,,0,93,77
481564,note_off,,,,,4,0,1,,,,0,88,64
481586,note_on,,,,,22,0,1,,,,0,62,82
481588,set_tempo,,,,,32,1,0,342857,,,,,
481590,note_on,,,,,4,0,1,,,,0,50,91
481594,note_on,,,,,4,0,1,,,,0,88,69
481600,note_on,,,,,6,0,1,,,,0,85,85
481600,note_on,,,,,0,0,1,,,,0,79,81
481600,note_on,,,,,0,0,1,,,,0,81,64
481604,note_off,,,,,4,0,1,,,,0,93,64
481612,note_off,,,,,8,0,1,,,,0,62,64
481614,note_off,,,,,2,0,1,,,,0,50,64
481616,set_tempo,,,,,28,1,0,346821,,,,,
481622,note_off,,,,,8,0,1,,,,0,79,64
481628,note_off,,,,,6,0,1,,,,0,81,64
481632,note_off,,,,,4,0,1,,,,0,85,64
481652,note_on,,,,,20,0,1,,,,0,93,74
481656,note_off,,,,,4,0,1,,,,0,88,64
481668,note_on,,,,,12,0,1,,,,0,61,87
481672,set_tempo,,,,,56,1,0,348837,,,,,
481672,note_on,,,,,4,0,1,,,,0,49,87
481680,note_on,,,,,8,0,1,,,,0,88,75
481682,note_on,,,,,2,0,1,,,,0,81,65
481684,set_tempo,,,,,12,1,0,352941,,,,,
481684,note_on,,,,,2,0,1,,,,0,85,83
481684,note_on,,,,,0,0,1,,,,0,79,82
481692,note_off,,,,,8,0,1,,,,0,93,64
481696,set_tempo,,,,,12,1,0,357143,,,,,
481704,note_off,,,,,12,0,1,,,,0,61,64
481706,note_off,,,,,2,0,1,,,,0,49,64
481708,note_off,,,,,2,0,1,,,,0,79,64
481710,note_off,,,,,2,0,1,,,,0,81,64
481720,note_off,,,,,10,0,1,,,,0,85,64
481720,set_tempo,,,,,24,1,0,359281,,,,,
481732,set_tempo,,,,,12,1,0,361446,,,,,
481740,note_on,,,,,0,0,1,,,,0,93,66
481740,note_off,,,,,20,0,1,,,,0,88,64
481748,set_tempo,,,,,16,1,0,363636,,,,,
481756,note_on,,,,,16,0,1,,,,0,59,87
481760,set_tempo,,,,,12,1,0,368098,,,,,
481760,note_on,,,,,4,0,1,,,,0,47,87
481762,note_on,,,,,0,0,1,,,,0,85,81
481762,note_on,,,,,2,0,1,,,,0,88,79
481764,note_on,,,,,0,0,1,,,,0,79,84
481764,note_on,,,,,2,0,1,,,,0,81,73
481772,set_tempo,,,,,12,1,0,370370,,,,,
481772,note_off,,,,,8,0,1,,,,0,93,64
481784,set_tempo,,,,,12,1,0,372671,,,,,
481786,note_off,,,,,14,0,1,,,,0,59,64
481788,note_off,,,,,2,0,1,,,,0,47,64
481792,note_off,,,,,4,0,1,,,,0,79,64
481796,note_off,,,,,4,0,1,,,,0,81,64
481796,set_tempo,,,,,12,1,0,375000,,,,,
481806,note_off,,,,,10,0,1,,,,0,85,64
481808,set_tempo,,,,,12,1,0,382166,,,,,
481824,note_on,,,,,0,0,1,,,,0,93,67
481824,note_off,,,,,18,0,1,,,,0,88,64
481836,set_tempo,,,,,28,1,0,384615,,,,,
481838,note_on,,,,,14,0,1,,,,0,57,85
481842,note_on,,,,,4,0,1,,,,0,45,97
481848,note_on,,,,,6,0,1,,,,0,88,74
481848,note_on,,,,,0,0,1,,,,0,85,87
481852,note_on,,,,,4,0,1,,,,0,81,74
481852,note_on,,,,,0,0,1,,,,0,79,83
481858,note_off,,,,,6,0,1,,,,0,93,64
481864,note_off,,,,,6,0,1,,,,0,45,64
481866,note_off,,,,,2,0,1,,,,0,81,64
481868,note_off,,,,,2,0,1,,,,0,57,64
481874,note_off,,,,,6,0,1,,,,0,79,64
481886,note_off,,,,,12,0,1,,,,0,85,64
481908,note_off,,,,,22,0,1,,,,0,88,64
481912,note_on,,,,,4,0,1,,,,0,93,51
481922,note_on,,,,,10,0,1,,,,0,56,96
481924,note_on,,,,,2,0,1,,,,0,44,93
481928,note_on,,,,,4,0,1,,,,0,85,81
481928,note_on,,,,,0,0,1,,,,0,81,77
481930,note_on,,,,,2,0,1,,,,0,79,87
481934,note_on,,,,,4,0,1,,,,0,88,72
481936,note_off,,,,,2,0,1,,,,0,93,64
481958,note_off,,,,,22,0,1,,,,0,79,64
481958,note_off,,,,,0,0,1,,,,0,56,64
481960,note_off,,,,,2,0,1,,,,0,81,64
481960,note_off,,,,,0,0,1,,,,0,44,64
481972,note_off,,,,,12,0,1,,,,0,85,64
481988,note_on,,,,,16,0,1,,,,0,93,76
481990,note_off,,,,,2,0,1,,,,0,88,64
482012,note_on,,,,,22,0,1,,,,0,59,92
482014,note_on,,,,,2,0,1,,,,0,85,84
482014,note_on,,,,,0,0,1,,,,0,47,95
482018,note_on,,,,,4,0,1,,,,0,81,72
482018,note_on,,,,,0,0,1,,,,0,79,87
482022,note_on,,,,,4,0,1,,,,0,88,75
482026,note_off,,,,,4,0,1,,,,0,93,64
482044,note_off,,,,,18,0,1,,,,0,59,64
482046,note_off,,,,,0,0,1,,,,0,47,64
482046,note_off,,,,,2,0,1,,,,0,79,64
482048,note_off,,,,,2,0,1,,,,0,81,64
482058,note_off,,,,,10,0,1,,,,0,85,64
482064,set_tempo,,,,,228,1,0,387097,,,,,
482076,note_off,,,,,18,0,1,,,,0,88,64
482078,note_on,,,,,2,0,1,,,,0,93,66
482086,control_change,,,,,8,0,1,,64,0,0,,
482090,control_change,,,,,4,0,1,,64,127,0,,
482096,note_on,,,,,6,0,1,,,,0,57,87
482100,note_on,,,,,4,0,1,,,,0,45,94
482102,note_on,,,,,2,0,1,,,,0,88,76
482104,note_on,,,,,2,0,1,,,,0,85,86
482104,note_on,,,,,0,0,1,,,,0,79,84
482104,note_on,,,,,0,0,1,,,,0,81,74
482108,set_tempo,,,,,44,1,0,384615,,,,,
482114,note_off,,,,,10,0,1,,,,0,93,64
482130,note_off,,,,,16,0,1,,,,0,57,64
482132,note_off,,,,,2,0,1,,,,0,79,64
482134,note_off,,,,,2,0,1,,,,0,45,64
482136,note_off,,,,,2,0,1,,,,0,81,64
482136,set_tempo,,,,,28,1,0,382166,,,,,
482148,note_off,,,,,12,0,1,,,,0,85,64
482162,note_on,,,,,14,0,1,,,,0,93,70
482164,note_off,,,,,2,0,1,,,,0,88,64
482184,note_on,,,,,20,0,1,,,,0,55,83
482186,note_on,,,,,2,0,1,,,,0,43,94
482188,set_tempo,,,,,52,1,0,375000,,,,,
482188,note_on,,,,,2,0,1,,,,0,85,87
482190,note_on,,,,,2,0,1,,,,0,88,77
482192,note_on,,,,,2,0,1,,,,0,81,77
482192,note_on,,,,,0,0,1,,,,0,79,85
482202,note_off,,,,,10,0,1,,,,0,93,64
482212,set_tempo,,,,,24,1,0,372671,,,,,
482216,note_off,,,,,14,0,1,,,,0,55,64
482220,note_off,,,,,4,0,1,,,,0,79,64
482222,note_off,,,,,2,0,1,,,,0,43,64
482224,note_off,,,,,2,0,1,,,,0,81,64
482234,note_off,,,,,10,0,1,,,,0,85,64
482240,set_tempo,,,,,28,1,0,370370,,,,,
482254,note_on,,,,,0,0,1,,,,0,93,67
482254,note_off,,,,,20,0,1,,,,0,88,64
482268,set_tempo,,,,,28,1,0,368098,,,,,
482272,note_on,,,,,18,0,1,,,,0,54,93
482276,note_on,,,,,4,0,1,,,,0,42,91
482276,control_change,,,,,0,0,1,,64,0,0,,
482278,note_on,,,,,2,0,1,,,,0,88,82
482280,note_on,,,,,2,0,1,,,,0,81,79
482282,note_on,,,,,2,0,1,,,,0,85,87
482282,note_on,,,,,0,0,1,,,,0,79,87
482288,control_change,,,,,6,0,1,,64,127,0,,
482292,set_tempo,,,,,24,1,0,363636,,,,,
482292,note_off,,,,,4,0,1,,,,0,93,64
482312,note_off,,,,,20,0,1,,,,0,79,64
482314,note_off,,,,,2,0,1,,,,0,54,64
482316,note_off,,,,,2,0,1,,,,0,81,64
482320,set_tempo,,,,,28,1,0,361446,,,,,
482324,note_off,,,,,8,0,1,,,,0,42,64
482330,note_off,,,,,6,0,1,,,,0,85,64
482340,note_on,,,,,10,0,1,,,,0,93,79
482344,note_off,,,,,4,0,1,,,,0,88,64
482348,set_tempo,,,,,28,1,0,359281,,,,,
482368,note_on,,,,,24,0,1,,,,0,52,90
482370,note_on,,,,,2,0,1,,,,0,88,79
482372,note_on,,,,,0,0,1,,,,0,40,93
482372,set_tempo,,,,,24,1,0,357143,,,,,
482372,note_on,,,,,2,0,1,,,,0,85,86
482374,note_on,,,,,2,0,1,,,,0,81,81
482376,note_on,,,,,2,0,1,,,,0,79,92
482382,control_change,,,,,6,0,1,,64,0,0,,
482386,note_off,,,,,4,0,1,,,,0,93,64
482390,control_change,,,,,4,0,1,,64,127,0,,
482410,note_off,,,,,20,0,1,,,,0,52,64
482416,note_off,,,,,6,0,1,,,,0,79,64
482418,note_off,,,,,2,0,1,,,,0,81,64
482418,note_off,,,,,0,0,1,,,,0,40,64
482428,note_off,,,,,10,0,1,,,,0,85,64
482428,set_tempo,,,,,56,1,0,352941,,,,,
482436,note_on,,,,,8,0,1,,,,0,93,73
482442,note_off,,,,,6,0,1,,,,0,88,64
482452,set_tempo,,,,,24,1,0,348837,,,,,
482472,note_on,,,,,30,0,1,,,,0,50,93
482472,note_on,,,,,0,0,1,,,,0,38,91
482474,note_on,,,,,2,0,1,,,,0,85,88
482476,note_on,,,,,2,0,1,,,,0,88,72
482478,note_on,,,,,2,0,1,,,,0,79,85
482480,note_on,,,,,2,0,1,,,,0,81,79
482480,set_tempo,,,,,28,1,0,346821,,,,,
482482,note_off,,,,,2,0,1,,,,0,93,64
482486,control_change,,,,,4,0,1,,64,0,0,,
482500,control_change,,,,,14,0,1,,64,127,0,,
482504,set_tempo,,,,,24,1,0,342857,,,,,
482510,note_off,,,,,10,0,1,,,,0,50,64
482516,note_off,,,,,6,0,1,,,,0,79,64
482516,set_tempo,,,,,12,1,0,363636,,,,,
482520,note_off,,,,,0,0,1,,,,0,38,64
482520,note_off,,,,,4,0,1,,,,0,81,64
482530,note_off,,,,,10,0,1,,,,0,85,64
482534,note_on,,,,,4,0,1,,,,0,93,75
482540,set_tempo,,,,,24,1,0,361446,,,,,
482544,note_off,,,,,10,0,1,,,,0,88,64
482564,set_tempo,,,,,24,1,0,359281,,,,,
482578,note_on,,,,,34,0,1,,,,0,49,98
482580,note_on,,,,,0,0,1,,,,0,37,92
482580,note_on,,,,,2,0,1,,,,0,85,92
482582,note_on,,,,,2,0,1,,,,0,88,68
482584,note_on,,,,,2,0,1,,,,0,81,77
482584,set_tempo,,,,,20,1,0,357143,,,,,
482584,note_on,,,,,0,0,1,,,,0,79,85
482588,note_off,,,,,4,0,1,,,,0,93,64
482592,control_change,,,,,4,0,1,,64,0,0,,
482596,control_change,,,,,4,0,1,,64,127,0,,
482624,note_off,,,,,28,0,1,,,,0,49,64
482628,note_off,,,,,4,0,1,,,,0,79,64
482632,note_off,,,,,4,0,1,,,,0,81,64
482632,set_tempo,,,,,48,1,0,352941,,,,,
482636,note_off,,,,,4,0,1,,,,0,37,64
482642,note_off,,,,,6,0,1,,,,0,85,64
482644,note_on,,,,,2,0,1,,,,0,93,82
482656,note_off,,,,,12,0,1,,,,0,88,64
482656,set_tempo,,,,,24,1,0,348837,,,,,
482678,control_change,,,,,22,0,1,,64,0,0,,
482680,set_tempo,,,,,24,1,0,346821,,,,,
482692,note_on,,,,,14,0,1,,,,0,47,93
482696,note_on,,,,,0,0,1,,,,0,35,92
482696,note_on,,,,,4,0,1,,,,0,88,67
482698,note_on,,,,,2,0,1,,,,0,85,92
482698,note_on,,,,,0,0,1,,,,0,81,79
482700,note_on,,,,,2,0,1,,,,0,79,93
482704,set_tempo,,,,,24,1,0,342857,,,,,
482706,note_off,,,,,6,0,1,,,,0,93,64
482710,control_change,,,,,4,0,1,,64,127,0,,
482724,set_tempo,,,,,20,1,0,340909,,,,,
482734,note_off,,,,,24,0,1,,,,0,47,64
482748,set_tempo,,,,,24,1,0,338983,,,,,
482750,note_off,,,,,16,0,1,,,,0,79,64
482750,note_off,,,,,0,0,1,,,,0,35,64
482754,note_off,,,,,4,0,1,,,,0,81,64
482762,note_off,,,,,8,0,1,,,,0,85,64
482768,note_on,,,,,6,0,1,,,,0,93,77
482772,set_tempo,,,,,24,1,0,337079,,,,,
482780,note_off,,,,,12,0,1,,,,0,88,64
482796,set_tempo,,,,,24,1,0,333333,,,,,
482816,note_on,,,,,36,0,1,,,,0,45,102
482818,note_on,,,,,2,0,1,,,,0,33,94
482820,note_on,,,,,2,0,1,,,,0,85,94
482824,note_on,,,,,0,0,1,,,,0,79,95
482824,control_change,,,,,4,0,1,,64,0,0,,
482826,note_on,,,,,2,0,1,,,,0,81,86
482828,note_on,,,,,0,0,1,,,,0,88,84
482828,note_off,,,,,2,0,1,,,,0,93,64
482844,set_tempo,,,,,48,1,0,331492,,,,,
482850,control_change,,,,,22,0,1,,64,127,0,,
482862,note_off,,,,,12,0,1,,,,0,45,64
482864,set_tempo,,,,,20,1,0,329670,,,,,
482872,note_off,,,,,10,0,1,,,,0,33,64
482878,note_off,,,,,6,0,1,,,,0,79,64
482884,note_off,,,,,6,0,1,,,,0,81,64
482888,note_off,,,,,4,0,1,,,,0,85,64
482888,set_tempo,,,,,24,1,0,324324,,,,,
482888,note_on,,,,,0,0,1,,,,0,93,82
482908,note_off,,,,,20,0,1,,,,0,88,64
482912,set_tempo,,,,,24,1,0,322581,,,,,
482936,set_tempo,,,,,24,1,0,320856,,,,,
482948,control_change,,,,,40,0,1,,64,0,0,,
482954,note_off,,,,,6,0,1,,,,0,93,64
482960,note_on,,,,,0,0,1,,,,0,44,101
482960,note_on,,,,,0,0,1,,,,0,85,90
482960,note_on,,,,,6,0,1,,,,0,88,79
482960,set_tempo,,,,,24,1,0,319149,,,,,
482962,note_on,,,,,2,0,1,,,,0,79,95
482962,note_on,,,,,0,0,1,,,,0,32,96
482966,note_on,,,,,4,0,1,,,,0,81,83
482982,control_change,,,,,16,0,1,,64,127,0,,
482984,set_tempo,,,,,24,1,0,315789,,,,,
483004,set_tempo,,,,,20,1,0,314136,,,,,
483016,note_off,,,,,34,0,1,,,,0,79,64
483020,note_off,,,,,4,0,1,,,,0,81,64
483028,note_off,,,,,8,0,1,,,,0,85,64
483030,note_on,,,,,0,0,1,,,,0,93,81
483030,note_off,,,,,2,0,1,,,,0,32,64
483032,note_off,,,,,2,0,1,,,,0,44,64
483044,note_off,,,,,12,0,1,,,,0,88,64
483052,set_tempo,,,,,48,1,0,312500,,,,,
483076,set_tempo,,,,,24,1,0,310881,,,,,
483090,note_off,,,,,46,0,1,,,,0,93,64
483100,set_tempo,,,,,24,1,0,307692,,,,,
483120,set_tempo,,,,,20,1,0,304569,,,,,
483148,note_on,,,,,0,0,1,,,,0,45,111
483148,note_on,,,,,58,0,1,,,,0,88,90
483150,note_on,,,,,2,0,1,,,,0,85,92
483152,note_on,,,,,2,0,1,,,,0,79,91
483152,note_on,,,,,0,0,1,,,,0,33,105
483154,note_on,,,,,2,0,1,,,,0,93,97
483154,note_on,,,,,0,0,1,,,,0,81,83
483184,control_change,,,,,30,0,1,,64,0,0,,
483356,control_change,,,,,172,0,1,,64,127,0,,
483440,note_off,,,,,84,0,1,,,,0,45,64
483444,note_off,,,,,4,0,1,,,,0,33,64
483450,note_off,,,,,6,0,1,,,,0,79,64
483452,note_off,,,,,2,0,1,,,,0,81,64
483460,note_off,,,,,8,0,1,,,,0,85,64
483468,note_off,,,,,8,0,1,,,,0,88,64
483472,note_off,,,,,4,0,1,,,,0,93,64
483576,control_change,,,,,104,0,1,,64,0,0,,
483628,note_on,,,,,0,0,1,,,,0,32,97
483628,note_on,,,,,52,0,1,,,,0,44,100
483630,note_on,,,,,2,0,1,,,,0,95,97
483632,note_on,,,,,2,0,1,,,,0,83,93
483652,control_change,,,,,20,0,1,,64,127,0,,
483678,note_off,,,,,26,0,1,,,,0,83,64
483688,note_off,,,,,10,0,1,,,,0,95,64
483698,note_off,,,,,10,0,1,,,,0,44,64
483712,note_off,,,,,14,0,1,,,,0,32,64
483798,note_on,,,,,86,0,1,,,,0,43,88
483800,note_on,,,,,2,0,1,,,,0,97,104
483800,note_on,,,,,0,0,1,,,,0,85,95
483802,note_on,,,,,2,0,1,,,,0,31,94
483836,note_off,,,,,34,0,1,,,,0,85,64
483840,set_tempo,,,,,720,1,0,379747,,,,,
483842,note_off,,,,,6,0,1,,,,0,43,64
483844,note_off,,,,,2,0,1,,,,0,31,64
483856,note_off,,,,,12,0,1,,,,0,97,64
483928,note_on,,,,,72,0,1,,,,0,42,88
483930,note_on,,,,,2,0,1,,,,0,30,90
483932,note_on,,,,,2,0,1,,,,0,98,94
483934,note_on,,,,,2,0,1,,,,0,86,88
483964,note_off,,,,,30,0,1,,,,0,86,64
483974,note_off,,,,,10,0,1,,,,0,42,64
483978,note_off,,,,,4,0,1,,,,0,98,64
483984,note_off,,,,,6,0,1,,,,0,30,64
484028,note_on,,,,,44,0,1,,,,0,100,95
484028,control_change,,,,,0,0,1,,64,0,0,,
484032,note_on,,,,,4,0,1,,,,0,88,91
484032,note_on,,,,,0,0,1,,,,0,40,82
484034,note_on,,,,,2,0,1,,,,0,28,90
484040,control_change,,,,,6,0,1,,64,127,0,,
484044,set_tempo,,,,,204,1,0,434783,,,,,
484056,set_tempo,,,,,12,1,0,431655,,,,,
484058,note_off,,,,,18,0,1,,,,0,88,64
484064,set_tempo,,,,,8,1,0,428571,,,,,
484066,note_off,,,,,8,0,1,,,,0,40,64
484068,note_off,,,,,2,0,1,,,,0,28,64
484068,note_off,,,,,0,0,1,,,,0,100,64
484072,set_tempo,,,,,8,1,0,425532,,,,,
484080,set_tempo,,,,,8,1,0,422535,,,,,
484088,set_tempo,,,,,8,1,0,419580,,,,,
484096,set_tempo,,,,,8,1,0,416667,,,,,
484112,set_tempo,,,,,16,1,0,413793,,,,,
484120,set_tempo,,,,,8,1,0,410959,,,,,
484128,set_tempo,,,,,8,1,0,405405,,,,,
484132,control_change,,,,,64,0,1,,64,0,0,,
484150,note_on,,,,,18,0,1,,,,0,38,94
484154,note_on,,,,,4,0,1,,,,0,26,107
484156,note_on,,,,,2,0,1,,,,0,90,102
484158,note_on,,,,,2,0,1,,,,0,102,103
484184,control_change,,,,,26,0,1,,64,127,0,,
484200,note_off,,,,,16,0,1,,,,0,26,64
484208,note_off,,,,,8,0,1,,,,0,102,64
484212,note_off,,,,,4,0,1,,,,0,90,64
484220,note_off,,,,,8,0,1,,,,0,38,64
484432,note_on,,,,,212,0,1,,,,0,66,80
484434,note_on,,,,,2,0,1,,,,0,78,82
484438,note_on,,,,,4,0,1,,,,0,69,74
484440,note_on,,,,,2,0,1,,,,0,74,71
484440,note_on,,,,,0,0,1,,,,0,57,70
484446,note_on,,,,,6,0,1,,,,0,62,64
484460,note_off,,,,,14,0,1,,,,0,62,64
484460,note_off,,,,,0,0,1,,,,0,69,64
484466,note_off,,,,,6,0,1,,,,0,57,64
484466,note_off,,,,,0,0,1,,,,0,66,64
484468,note_off,,,,,0,0,1,,,,0,78,64
484468,note_off,,,,,2,0,1,,,,0,74,64
484492,note_on,,,,,24,0,1,,,,0,78,85
484494,note_on,,,,,2,0,1,,,,0,66,85
484496,note_on,,,,,0,0,1,,,,0,62,80
484496,note_on,,,,,2,0,1,,,,0,74,87
484498,note_on,,,,,2,0,1,,,,0,69,86
484502,note_on,,,,,4,0,1,,,,0,57,78
484530,note_off,,,,,28,0,1,,,,0,69,64
484532,note_off,,,,,2,0,1,,,,0,66,64
484540,note_off,,,,,0,0,1,,,,0,74,64
484540,note_off,,,,,8,0,1,,,,0,62,64
484548,note_off,,,,,8,0,1,,,,0,57,64
484548,note_off,,,,,0,0,1,,,,0,78,64
484736,note_on,,,,,188,0,1,,,,0,57,78
484738,note_on,,,,,2,0,1,,,,0,62,75
484740,note_on,,,,,2,0,1,,,,0,66,81
484742,note_on,,,,,2,0,1,,,,0,69,77
484742,note_on,,,,,0,0,1,,,,0,54,75
484744,note_on,,,,,2,0,1,,,,0,50,64
484764,note_off,,,,,20,0,1,,,,0,69,64
484764,note_off,,,,,0,0,1,,,,0,62,64
484766,note_off,,,,,2,0,1,,,,0,57,64
484768,note_off,,,,,0,0,1,,,,0,54,64
484768,note_off,,,,,2,0,1,,,,0,50,64
484772,note_off,,,,,4,0,1,,,,0,66,64
484796,note_on,,,,,24,0,1,,,,0,66,87
484800,note_on,,,,,4,0,1,,,,0,69,86
484800,note_on,,,,,0,0,1,,,,0,62,81
484802,note_on,,,,,0,0,1,,,,0,54,91
484802,note_on,,,,,2,0,1,,,,0,57,91
484808,note_on,,,,,6,0,1,,,,0,50,82
484832,note_off,,,,,24,0,1,,,,0,62,64
484834,note_off,,,,,2,0,1,,,,0,57,64
484842,note_off,,,,,8,0,1,,,,0,69,64
484850,note_off,,,,,8,0,1,,,,0,54,64
484852,note_off,,,,,2,0,1,,,,0,50,64
484852,note_off,,,,,0,0,1,,,,0,66,64
485032,note_on,,,,,180,0,1,,,,0,54,74
485036,note_on,,,,,0,0,1,,,,0,57,78
485036,note_on,,,,,4,0,1,,,,0,62,77
485040,note_on,,,,,4,0,1,,,,0,42,75
485042,note_on,,,,,2,0,1,,,,0,50,75
485042,note_on,,,,,0,0,1,,,,0,45,77
485058,note_off,,,,,16,0,1,,,,0,54,64
485066,note_off,,,,,8,0,1,,,,0,57,64
485068,note_off,,,,,2,0,1,,,,0,62,64
485070,note_off,,,,,2,0,1,,,,0,50,64
485072,note_off,,,,,2,0,1,,,,0,45,64
485074,note_off,,,,,2,0,1,,,,0,42,64
485100,note_on,,,,,26,0,1,,,,0,62,90
485100,note_on,,,,,0,0,1,,,,0,54,92
485102,note_on,,,,,2,0,1,,,,0,57,90
485106,note_on,,,,,0,0,1,,,,0,45,91
485106,note_on,,,,,4,0,1,,,,0,50,87
485108,note_on,,,,,2,0,1,,,,0,42,76
485132,note_off,,,,,24,0,1,,,,0,54,64
485140,note_off,,,,,8,0,1,,,,0,57,64
485144,note_off,,,,,4,0,1,,,,0,50,64
485152,note_off,,,,,8,0,1,,,,0,45,64
485164,note_off,,,,,12,0,1,,,,0,62,64
485172,note_off,,,,,8,0,1,,,,0,42,64
485370,control_change,,,,,198,0,1,,64,0,0,,
485412,note_on,,,,,42,0,1,,,,0,36,92
485412,note_on,,,,,0,0,1,,,,0,24,98
485414,note_on,,,,,2,0,1,,,,0,91,97
485414,note_on,,,,,0,0,1,,,,0,79,100
485426,control_change,,,,,12,0,1,,64,127,0,,
485450,note_off,,,,,24,0,1,,,,0,24,64
485472,note_off,,,,,22,0,1,,,,0,36,64
485474,note_off,,,,,2,0,1,,,,0,91,64
485488,note_off,,,,,14,0,1,,,,0,79,64
485674,note_on,,,,,186,0,1,,,,0,76,71
485676,note_on,,,,,2,0,1,,,,0,79,77
485678,note_on,,,,,0,0,1,,,,0,67,77
485678,note_on,,,,,2,0,1,,,,0,72,69
485682,note_on,,,,,4,0,1,,,,0,64,81
485682,note_on,,,,,0,0,1,,,,0,60,73
485698,note_off,,,,,16,0,1,,,,0,72,64
485700,note_off,,,,,2,0,1,,,,0,76,64
485702,note_off,,,,,2,0,1,,,,0,67,64
485704,note_off,,,,,2,0,1,,,,0,79,64
485706,note_off,,,,,2,0,1,,,,0,64,64
485708,note_off,,,,,2,0,1,,,,0,60,64
485732,note_on,,,,,24,0,1,,,,0,79,87
485732,note_on,,,,,0,0,1,,,,0,72,82
485734,note_on,,,,,0,0,1,,,,0,64,84
485734,note_on,,,,,2,0,1,,,,0,76,83
485736,note_on,,,,,2,0,1,,,,0,67,81
485740,note_on,,,,,4,0,1,,,,0,60,82
485772,note_off,,,,,32,0,1,,,,0,72,64
485776,note_off,,,,,4,0,1,,,,0,67,64
485780,note_off,,,,,4,0,1,,,,0,64,64
485782,note_off,,,,,2,0,1,,,,0,79,64
485784,note_off,,,,,2,0,1,,,,0,76,64
485788,note_off,,,,,4,0,1,,,,0,60,64
485972,note_on,,,,,0,0,1,,,,0,67,72
485972,note_on,,,,,0,0,1,,,,0,64,79
485972,note_on,,,,,0,0,1,,,,0,60,77
485972,note_on,,,,,184,0,1,,,,0,72,74
485978,note_on,,,,,0,0,1,,,,0,52,71
485978,note_on,,,,,6,0,1,,,,0,55,74
485998,note_off,,,,,20,0,1,,,,0,64,64
486000,note_off,,,,,0,0,1,,,,0,67,64
486000,note_off,,,,,0,0,1,,,,0,60,64
486000,note_off,,,,,2,0,1,,,,0,52,64
486002,note_off,,,,,2,0,1,,,,0,55,64
486006,note_off,,,,,4,0,1,,,,0,72,64
486028,note_on,,,,,22,0,1,,,,0,60,80
486032,note_on,,,,,0,0,1,,,,0,67,86
486032,note_on,,,,,0,0,1,,,,0,52,82
486032,note_on,,,,,4,0,1,,,,0,72,87
486034,note_on,,,,,2,0,1,,,,0,55,81
486036,note_on,,,,,2,0,1,,,,0,64,90
486066,note_off,,,,,30,0,1,,,,0,60,64
486068,note_off,,,,,2,0,1,,,,0,64,64
486074,note_off,,,,,6,0,1,,,,0,55,64
486076,note_off,,,,,2,0,1,,,,0,72,64
486078,note_off,,,,,2,0,1,,,,0,67,64
486082,note_off,,,,,4,0,1,,,,0,52,64
486262,note_on,,,,,180,0,1,,,,0,64,78
486262,note_on,,,,,0,0,1,,,,0,60,76
486264,note_on,,,,,2,0,1,,,,0,67,76
486264,note_on,,,,,0,0,1,,,,0,55,75
486268,note_on,,,,,4,0,1,,,,0,52,77
486272,note_on,,,,,4,0,1,,,,0,48,78
486288,note_off,,,,,16,0,1,,,,0,60,64
486290,note_off,,,,,2,0,1,,,,0,64,64
486292,note_off,,,,,0,0,1,,,,0,55,64
486292,note_off,,,,,2,0,1,,,,0,52,64
486296,note_off,,,,,0,0,1,,,,0,67,64
486296,note_off,,,,,4,0,1,,,,0,48,64
486320,note_on,,,,,24,0,1,,,,0,64,88
486322,note_on,,,,,2,0,1,,,,0,67,83
486322,note_on,,,,,0,0,1,,,,0,60,77
486328,note_on,,,,,6,0,1,,,,0,55,82
486328,note_on,,,,,0,0,1,,,,0,48,91
486330,note_on,,,,,2,0,1,,,,0,52,91
486358,note_off,,,,,28,0,1,,,,0,55,64
486360,note_off,,,,,0,0,1,,,,0,67,64
486360,note_off,,,,,0,0,1,,,,0,60,64
486360,note_off,,,,,2,0,1,,,,0,52,64
486368,note_off,,,,,8,0,1,,,,0,64,64
486372,note_off,,,,,4,0,1,,,,0,48,64
486568,note_on,,,,,196,0,1,,,,0,60,77
486568,note_on,,,,,0,0,1,,,,0,48,83
486568,note_on,,,,,0,0,1,,,,0,43,82
486570,note_on,,,,,0,0,1,,,,0,40,73
486570,note_on,,,,,2,0,1,,,,0,52,79
486572,note_on,,,,,2,0,1,,,,0,55,69
486594,note_off,,,,,22,0,1,,,,0,52,64
486594,note_off,,,,,0,0,1,,,,0,48,64
486596,note_off,,,,,2,0,1,,,,0,55,64
486598,note_off,,,,,2,0,1,,,,0,43,64
486600,note_off,,,,,2,0,1,,,,0,40,64
486606,note_off,,,,,6,0,1,,,,0,60,64
486626,note_on,,,,,20,0,1,,,,0,60,83
486626,note_on,,,,,0,0,1,,,,0,55,81
486628,note_on,,,,,0,0,1,,,,0,43,92
486628,note_on,,,,,2,0,1,,,,0,52,85
486632,note_on,,,,,4,0,1,,,,0,48,93
486636,note_on,,,,,4,0,1,,,,0,40,84
486660,note_off,,,,,24,0,1,,,,0,52,64
486666,note_off,,,,,0,0,1,,,,0,55,64
486666,note_off,,,,,6,0,1,,,,0,48,64
486682,note_off,,,,,16,0,1,,,,0,43,64
486686,note_off,,,,,4,0,1,,,,0,60,64
486688,note_off,,,,,2,0,1,,,,0,40,64
486922,control_change,,,,,234,0,1,,64,0,0,,
486950,note_on,,,,,0,0,1,,,,0,38,98
486950,note_on,,,,,28,0,1,,,,0,90,97
486952,note_on,,,,,2,0,1,,,,0,78,101
486952,note_on,,,,,0,0,1,,,,0,26,102
486986,control_change,,,,,34,0,1,,64,127,0,,
486998,note_off,,,,,12,0,1,,,,0,26,64
487014,note_off,,,,,16,0,1,,,,0,90,64
487016,note_off,,,,,2,0,1,,,,0,38,64
487018,note_off,,,,,2,0,1,,,,0,78,64
487202,note_on,,,,,184,0,1,,,,0,66,77
487204,note_on,,,,,2,0,1,,,,0,78,81
487208,note_on,,,,,4,0,1,,,,0,69,74
487210,note_on,,,,,2,0,1,,,,0,74,70
487214,note_on,,,,,4,0,1,,,,0,57,68
487216,note_on,,,,,2,0,1,,,,0,62,69
487228,note_off,,,,,0,0,1,,,,0,69,64
487228,note_off,,,,,12,0,1,,,,0,74,64
487230,note_off,,,,,2,0,1,,,,0,62,64
487234,note_off,,,,,4,0,1,,,,0,57,64
487236,note_off,,,,,2,0,1,,,,0,66,64
487244,note_off,,,,,8,0,1,,,,0,78,64
487266,note_on,,,,,22,0,1,,,,0,78,88
487268,note_on,,,,,2,0,1,,,,0,66,81
487270,note_on,,,,,0,0,1,,,,0,62,92
487270,note_on,,,,,2,0,1,,,,0,74,84
487272,note_on,,,,,2,0,1,,,,0,69,85
487274,note_on,,,,,2,0,1,,,,0,57,85
487298,note_off,,,,,24,0,1,,,,0,69,64
487302,note_off,,,,,4,0,1,,,,0,66,64
487304,note_off,,,,,2,0,1,,,,0,62,64
487310,note_off,,,,,6,0,1,,,,0,74,64
487320,note_off,,,,,10,0,1,,,,0,57,64
487330,note_off,,,,,10,0,1,,,,0,78,64
487590,note_on,,,,,260,0,1,,,,0,33,86
487592,note_on,,,,,2,0,1,,,,0,76,91
487592,note_on,,,,,0,0,1,,,,0,45,92
487594,note_on,,,,,0,0,1,,,,0,38,82
487594,note_on,,,,,2,0,1,,,,0,81,91
487596,note_on,,,,,2,0,1,,,,0,86,88
487596,note_on,,,,,0,0,1,,,,0,40,82
487602,note_on,,,,,6,0,1,,,,0,88,86
487622,control_change,,,,,20,0,1,,64,0,0,,
487670,control_change,,,,,48,0,1,,64,127,0,,
487696,note_off,,,,,26,0,1,,,,0,33,64
487706,note_off,,,,,10,0,1,,,,0,38,64
487708,note_off,,,,,2,0,1,,,,0,88,64
487710,note_off,,,,,2,0,1,,,,0,40,64
487714,note_off,,,,,4,0,1,,,,0,86,64
487718,note_off,,,,,4,0,1,,,,0,45,64
487720,note_off,,,,,2,0,1,,,,0,81,64
487722,note_off,,,,,2,0,1,,,,0,76,64
487864,note_on,,,,,142,0,1,,,,0,76,78
487866,note_on,,,,,2,0,1,,,,0,69,77
487870,note_on,,,,,4,0,1,,,,0,64,87
487870,note_on,,,,,0,0,1,,,,0,57,81
487872,note_on,,,,,2,0,1,,,,0,62,82
487876,note_on,,,,,4,0,1,,,,0,74,55
487896,note_off,,,,,0,0,1,,,,0,64,64
487896,note_off,,,,,0,0,1,,,,0,69,64
487896,note_off,,,,,20,0,1,,,,0,62,64
487898,note_off,,,,,2,0,1,,,,0,57,64
487900,note_off,,,,,2,0,1,,,,0,74,64
487900,note_off,,,,,0,0,1,,,,0,76,64
487926,note_on,,,,,26,0,1,,,,0,69,85
487928,note_on,,,,,0,0,1,,,,0,62,92
487928,note_on,,,,,2,0,1,,,,0,76,77
487928,note_on,,,,,0,0,1,,,,0,57,92
487930,note_on,,,,,2,0,1,,,,0,74,88
487932,note_on,,,,,2,0,1,,,,0,64,93
487968,note_off,,,,,0,0,1,,,,0,69,64
487968,note_off,,,,,36,0,1,,,,0,64,64
487974,note_off,,,,,6,0,1,,,,0,62,64
487982,note_off,,,,,8,0,1,,,,0,76,64
487984,note_off,,,,,2,0,1,,,,0,57,64
487988,note_off,,,,,4,0,1,,,,0,74,64
488172,note_on,,,,,184,0,1,,,,0,52,69
488172,note_on,,,,,0,0,1,,,,0,50,70
488174,note_on,,,,,2,0,1,,,,0,62,51
488176,note_on,,,,,0,0,1,,,,0,64,71
488176,note_on,,,,,0,0,1,,,,0,57,77
488176,note_on,,,,,2,0,1,,,,0,69,71
488190,note_off,,,,,0,0,1,,,,0,69,64
488190,note_off,,,,,0,0,1,,,,0,62,64
488190,note_off,,,,,14,0,1,,,,0,57,64
488192,note_off,,,,,2,0,1,,,,0,52,64
488200,note_off,,,,,8,0,1,,,,0,50,64
488204,note_off,,,,,4,0,1,,,,0,64,64
488226,note_on,,,,,22,0,1,,,,0,69,92
488228,note_on,,,,,2,0,1,,,,0,64,86
488228,note_on,,,,,0,0,1,,,,0,62,79
488230,note_on,,,,,2,0,1,,,,0,57,88
488232,note_on,,,,,2,0,1,,,,0,50,83
488234,note_on,,,,,2,0,1,,,,0,52,82
488268,note_off,,,,,0,0,1,,,,0,62,64
488268,note_off,,,,,34,0,1,,,,0,57,64
488280,note_off,,,,,0,0,1,,,,0,50,64
488280,note_off,,,,,12,0,1,,,,0,52,64
488286,note_off,,,,,6,0,1,,,,0,69,64
488288,note_off,,,,,2,0,1,,,,0,64,64
488476,note_on,,,,,0,0,1,,,,0,52,79
488476,note_on,,,,,188,0,1,,,,0,64,83
488476,note_on,,,,,0,0,1,,,,0,45,82
488478,note_on,,,,,2,0,1,,,,0,50,81
488482,note_on,,,,,4,0,1,,,,0,57,71
488486,note_on,,,,,4,0,1,,,,0,62,82
488504,note_off,,,,,18,0,1,,,,0,45,64
488508,note_off,,,,,0,0,1,,,,0,52,64
488508,note_off,,,,,0,0,1,,,,0,50,64
488508,note_off,,,,,4,0,1,,,,0,57,64
488512,note_off,,,,,0,0,1,,,,0,64,64
488512,note_off,,,,,4,0,1,,,,0,62,64
488540,note_on,,,,,0,0,1,,,,0,50,88
488540,note_on,,,,,28,0,1,,,,0,52,83
488546,note_on,,,,,6,0,1,,,,0,62,87
488546,note_on,,,,,0,0,1,,,,0,57,97
488548,note_on,,,,,2,0,1,,,,0,64,88
488548,note_on,,,,,0,0,1,,,,0,45,86
488568,control_change,,,,,20,0,1,,64,0,0,,
488580,note_off,,,,,12,0,1,,,,0,57,64
488590,control_change,,,,,10,0,1,,64,127,0,,
488592,note_off,,,,,2,0,1,,,,0,52,64
488606,note_off,,,,,14,0,1,,,,0,50,64
488608,note_off,,,,,2,0,1,,,,0,62,64
488614,note_off,,,,,6,0,1,,,,0,64,64
488616,note_off,,,,,2,0,1,,,,0,45,64
488878,note_on,,,,,262,0,1,,,,0,33,84
488880,note_on,,,,,2,0,1,,,,0,85,91
488880,note_on,,,,,0,0,1,,,,0,81,85
488880,note_on,,,,,0,0,1,,,,0,76,84
488882,note_on,,,,,2,0,1,,,,0,88,84
488884,note_on,,,,,0,0,1,,,,0,40,74
488884,note_on,,,,,2,0,1,,,,0,45,83
488890,note_on,,,,,6,0,1,,,,0,37,86
488908,control_change,,,,,18,0,1,,64,0,0,,
488972,control_change,,,,,64,0,1,,64,127,0,,
488984,note_off,,,,,12,0,1,,,,0,33,64
488992,note_off,,,,,8,0,1,,,,0,88,64
489000,note_off,,,,,8,0,1,,,,0,37,64
489002,note_off,,,,,2,0,1,,,,0,40,64
489008,note_off,,,,,6,0,1,,,,0,45,64
489016,note_off,,,,,8,0,1,,,,0,81,64
489016,note_off,,,,,0,0,1,,,,0,85,64
489018,note_off,,,,,2,0,1,,,,0,76,64
489154,note_on,,,,,0,0,1,,,,0,61,84
489154,note_on,,,,,136,0,1,,,,0,73,79
489160,note_on,,,,,6,0,1,,,,0,64,85
489160,note_on,,,,,0,0,1,,,,0,57,80
489162,note_on,,,,,2,0,1,,,,0,76,71
489162,note_on,,,,,0,0,1,,,,0,69,71
489184,note_off,,,,,22,0,1,,,,0,69,64
489184,note_off,,,,,0,0,1,,,,0,64,64
489188,note_off,,,,,0,0,1,,,,0,73,64
489188,note_off,,,,,4,0,1,,,,0,76,64
489188,note_off,,,,,0,0,1,,,,0,57,64
489188,note_off,,,,,0,0,1,,,,0,61,64
489216,note_on,,,,,28,0,1,,,,0,64,80
489216,note_on,,,,,0,0,1,,,,0,61,80
489218,note_on,,,,,2,0,1,,,,0,76,82
489218,note_on,,,,,0,0,1,,,,0,73,82
489222,note_on,,,,,0,0,1,,,,0,57,77
489222,note_on,,,,,4,0,1,,,,0,69,87
489252,note_off,,,,,30,0,1,,,,0,64,64
489256,note_off,,,,,4,0,1,,,,0,69,64
489258,note_off,,,,,2,0,1,,,,0,76,64
489264,note_off,,,,,6,0,1,,,,0,61,64
489268,note_off,,,,,4,0,1,,,,0,57,64
489274,note_off,,,,,6,0,1,,,,0,73,64
489478,note_on,,,,,204,0,1,,,,0,49,80
489480,note_on,,,,,2,0,1,,,,0,61,81
489482,note_on,,,,,2,0,1,,,,0,69,75
489482,note_on,,,,,0,0,1,,,,0,57,71
489484,note_on,,,,,2,0,1,,,,0,64,82
489484,note_on,,,,,0,0,1,,,,0,52,71
489508,note_off,,,,,24,0,1,,,,0,61,64
489510,note_off,,,,,2,0,1,,,,0,52,64
489510,note_off,,,,,0,0,1,,,,0,57,64
489512,note_off,,,,,0,0,1,,,,0,69,64
489512,note_off,,,,,2,0,1,,,,0,64,64
489514,note_off,,,,,2,0,1,,,,0,49,64
489542,note_on,,,,,28,0,1,,,,0,69,83
489546,note_on,,,,,0,0,1,,,,0,49,81
489546,note_on,,,,,4,0,1,,,,0,52,88
489548,note_on,,,,,2,0,1,,,,0,64,77
489550,note_on,,,,,2,0,1,,,,0,57,87
489552,note_on,,,,,2,0,1,,,,0,61,83
489600,note_off,,,,,0,0,1,,,,0,57,64
489600,note_off,,,,,0,0,1,,,,0,69,64
489600,note_off,,,,,48,0,1,,,,0,61,64
489602,note_off,,,,,2,0,1,,,,0,64,64
489608,note_off,,,,,6,0,1,,,,0,49,64
489632,note_off,,,,,24,0,1,,,,0,52,64
489808,note_on,,,,,0,0,1,,,,0,49,79
489808,note_on,,,,,0,0,1,,,,0,52,73
489808,note_on,,,,,176,0,1,,,,0,57,83
489810,note_on,,,,,2,0,1,,,,0,64,75
489810,note_on,,,,,0,0,1,,,,0,61,78
489812,note_on,,,,,2,0,1,,,,0,45,73
489834,note_off,,,,,22,0,1,,,,0,52,64
489834,note_off,,,,,0,0,1,,,,0,57,64
489838,note_off,,,,,4,0,1,,,,0,49,64
489840,note_off,,,,,2,0,1,,,,0,45,64
489840,note_off,,,,,0,0,1,,,,0,61,64
489846,note_off,,,,,6,0,1,,,,0,64,64
489872,note_on,,,,,26,0,1,,,,0,52,87
489872,note_on,,,,,0,0,1,,,,0,49,83
489874,note_on,,,,,2,0,1,,,,0,64,86
489876,note_on,,,,,2,0,1,,,,0,61,81
489876,note_on,,,,,0,0,1,,,,0,57,92
489876,note_on,,,,,0,0,1,,,,0,45,81
489902,note_off,,,,,26,0,1,,,,0,57,64
489908,note_off,,,,,6,0,1,,,,0,52,64
489918,note_off,,,,,10,0,1,,,,0,61,64
489924,note_off,,,,,6,0,1,,,,0,49,64
489926,note_off,,,,,2,0,1,,,,0,45,64
489930,note_off,,,,,4,0,1,,,,0,64,64
490180,control_change,,,,,250,0,1,,64,0,0,,
490230,note_on,,,,,50,0,1,,,,0,78,87
490232,note_on,,,,,2,0,1,,,,0,74,87
490232,note_on,,,,,0,0,1,,,,0,47,92
490232,note_on,,,,,0,0,1,,,,0,35,84
490234,note_on,,,,,2,0,1,,,,0,83,85
490236,note_on,,,,,2,0,1,,,,0,38,80
490238,note_on,,,,,2,0,1,,,,0,86,87
490240,note_on,,,,,2,0,1,,,,0,42,80
490268,control_change,,,,,28,0,1,,64,127,0,,
490308,note_off,,,,,40,0,1,,,,0,35,64
490310,note_off,,,,,2,0,1,,,,0,86,64
490316,note_off,,,,,6,0,1,,,,0,38,64
490328,note_off,,,,,12,0,1,,,,0,42,64
490330,note_off,,,,,2,0,1,,,,0,47,64
490332,note_off,,,,,2,0,1,,,,0,83,64
490338,note_off,,,,,6,0,1,,,,0,74,64
490344,note_off,,,,,6,0,1,,,,0,78,64
490520,note_on,,,,,176,0,1,,,,0,54,74
490522,note_on,,,,,0,0,1,,,,0,50,74
490522,note_on,,,,,2,0,1,,,,0,66,78
490524,note_on,,,,,0,0,1,,,,0,59,70
490524,note_on,,,,,2,0,1,,,,0,71,75
490528,note_on,,,,,4,0,1,,,,0,62,75
490550,note_off,,,,,22,0,1,,,,0,59,64
490552,note_off,,,,,2,0,1,,,,0,50,64
490554,note_off,,,,,2,0,1,,,,0,62,64
490556,note_off,,,,,0,0,1,,,,0,54,64
490556,note_off,,,,,2,0,1,,,,0,66,64
490564,note_off,,,,,8,0,1,,,,0,71,64
490588,note_on,,,,,24,0,1,,,,0,71,87
490590,note_on,,,,,2,0,1,,,,0,54,80
490592,note_on,,,,,0,0,1,,,,0,50,82
490592,note_on,,,,,2,0,1,,,,0,66,71
490594,note_on,,,,,2,0,1,,,,0,62,79
490596,note_on,,,,,2,0,1,,,,0,59,86
490626,note_off,,,,,30,0,1,,,,0,62,64
490628,note_off,,,,,2,0,1,,,,0,59,64
490644,note_off,,,,,16,0,1,,,,0,66,64
490648,note_off,,,,,4,0,1,,,,0,50,64
490648,note_off,,,,,0,0,1,,,,0,54,64
490658,note_off,,,,,10,0,1,,,,0,71,64
490958,note_on,,,,,300,0,1,,,,0,73,91
490958,note_on,,,,,0,0,1,,,,0,49,95
490960,note_on,,,,,2,0,1,,,,0,77,88
490960,note_on,,,,,0,0,1,,,,0,44,90
490962,note_on,,,,,2,0,1,,,,0,80,91
490962,note_on,,,,,0,0,1,,,,0,41,83
490966,note_on,,,,,4,0,1,,,,0,85,92
490968,note_on,,,,,2,0,1,,,,0,37,86
490976,control_change,,,,,8,0,1,,64,0,0,,
491040,control_change,,,,,64,0,1,,64,127,0,,
491100,note_off,,,,,60,0,1,,,,0,41,64
491104,note_off,,,,,0,0,1,,,,0,85,64
491104,note_off,,,,,4,0,1,,,,0,37,64
491108,note_off,,,,,4,0,1,,,,0,44,64
491116,note_off,,,,,8,0,1,,,,0,49,64
491120,note_off,,,,,4,0,1,,,,0,77,64
491124,note_off,,,,,4,0,1,,,,0,80,64
491128,note_off,,,,,4,0,1,,,,0,73,64
491278,note_on,,,,,150,0,1,,,,0,68,80
491280,note_on,,,,,2,0,1,,,,0,61,80
491280,note_on,,,,,0,0,1,,,,0,56,81
491282,note_on,,,,,2,0,1,,,,0,73,79
491286,note_on,,,,,4,0,1,,,,0,65,67
491288,note_on,,,,,2,0,1,,,,0,53,74
491310,note_off,,,,,22,0,1,,,,0,65,64
491314,note_off,,,,,4,0,1,,,,0,61,64
491316,note_off,,,,,2,0,1,,,,0,53,64
491316,note_off,,,,,0,0,1,,,,0,68,64
491320,note_off,,,,,4,0,1,,,,0,56,64
491324,note_off,,,,,4,0,1,,,,0,73,64
491350,note_on,,,,,26,0,1,,,,0,56,85
491352,note_on,,,,,0,0,1,,,,0,61,85
491352,note_on,,,,,2,0,1,,,,0,73,88
491354,note_on,,,,,2,0,1,,,,0,53,76
491358,note_on,,,,,0,0,1,,,,0,65,87
491358,note_on,,,,,4,0,1,,,,0,68,87
491396,note_off,,,,,38,0,1,,,,0,65,64
491398,note_off,,,,,2,0,1,,,,0,61,64
491408,note_off,,,,,10,0,1,,,,0,56,64
491416,note_off,,,,,0,0,1,,,,0,53,64
491416,note_off,,,,,8,0,1,,,,0,68,64
491426,note_off,,,,,10,0,1,,,,0,73,64
491560,note_on,,,,,0,0,1,,,,0,71,91
491560,note_on,,,,,134,0,1,,,,0,83,87
491588,note_off,,,,,28,0,1,,,,0,71,64
491592,note_off,,,,,4,0,1,,,,0,83,64
491704,set_tempo,,,,,7576,1,0,402685,,,,,
491712,set_tempo,,,,,8,1,0,400000,,,,,
491720,set_tempo,,,,,8,1,0,397351,,,,,
491724,set_tempo,,,,,4,1,0,394737,,,,,
491732,set_tempo,,,,,8,1,0,392157,,,,,
491734,control_change,,,,,142,0,1,,64,0,0,,
491744,set_tempo,,,,,12,1,0,389610,,,,,
491748,set_tempo,,,,,4,1,0,387097,,,,,
491756,set_tempo,,,,,8,1,0,384615,,,,,
491760,set_tempo,,,,,4,1,0,379747,,,,,
491762,note_on,,,,,28,0,1,,,,0,30,95
491764,note_on,,,,,0,0,1,,,,0,82,96
491764,note_on,,,,,0,0,1,,,,0,42,92
491764,note_on,,,,,2,0,1,,,,0,70,96
491784,control_change,,,,,20,0,1,,64,127,0,,
491792,note_off,,,,,8,0,1,,,,0,30,64
491794,note_off,,,,,2,0,1,,,,0,82,64
491798,note_off,,,,,4,0,1,,,,0,70,64
491804,note_off,,,,,6,0,1,,,,0,42,64
491970,note_on,,,,,166,0,1,,,,0,61,78
491970,note_on,,,,,0,0,1,,,,0,58,79
491972,note_on,,,,,2,0,1,,,,0,70,79
491972,note_on,,,,,0,0,1,,,,0,66,78
491976,note_on,,,,,4,0,1,,,,0,49,77
491978,note_on,,,,,2,0,1,,,,0,54,79
491992,note_off,,,,,14,0,1,,,,0,61,64
491998,note_off,,,,,6,0,1,,,,0,58,64
492002,note_off,,,,,4,0,1,,,,0,66,64
492010,note_off,,,,,8,0,1,,,,0,54,64
492016,note_off,,,,,6,0,1,,,,0,70,64
492018,note_off,,,,,2,0,1,,,,0,49,64
492116,control_change,,,,,98,0,1,,64,0,0,,
492144,note_on,,,,,0,0,1,,,,0,73,97
492144,note_on,,,,,28,0,1,,,,0,85,96
492148,note_on,,,,,4,0,1,,,,0,34,96
492150,note_on,,,,,2,0,1,,,,0,46,91
492156,control_change,,,,,6,0,1,,64,127,0,,
492176,note_off,,,,,20,0,1,,,,0,34,64
492176,note_off,,,,,0,0,1,,,,0,85,64
492180,note_off,,,,,4,0,1,,,,0,73,64
492186,note_off,,,,,6,0,1,,,,0,46,64
492314,note_on,,,,,128,0,1,,,,0,73,84
492316,note_on,,,,,0,0,1,,,,0,66,80
492316,note_on,,,,,0,0,1,,,,0,61,81
492316,note_on,,,,,2,0,1,,,,0,70,81
492322,note_on,,,,,6,0,1,,,,0,58,58
492336,note_on,,,,,14,0,1,,,,0,54,63
492338,note_off,,,,,2,0,1,,,,0,66,64
492344,note_off,,,,,6,0,1,,,,0,61,64
492346,note_off,,,,,2,0,1,,,,0,58,64
492348,note_off,,,,,2,0,1,,,,0,70,64
492354,note_off,,,,,6,0,1,,,,0,54,64
492356,note_off,,,,,2,0,1,,,,0,73,64
492474,control_change,,,,,118,0,1,,64,0,0,,
492492,note_on,,,,,0,0,1,,,,0,78,97
492492,note_on,,,,,18,0,1,,,,0,90,98
492494,note_on,,,,,0,0,1,,,,0,37,87
492494,note_on,,,,,2,0,1,,,,0,49,94
492512,control_change,,,,,18,0,1,,64,127,0,,
492520,note_off,,,,,8,0,1,,,,0,37,64
492520,note_off,,,,,0,0,1,,,,0,90,64
492524,note_off,,,,,0,0,1,,,,0,78,64
492524,note_off,,,,,4,0,1,,,,0,49,64
492680,note_on,,,,,0,0,1,,,,0,66,90
492680,note_on,,,,,156,0,1,,,,0,78,84
492682,note_on,,,,,0,0,1,,,,0,70,86
492682,note_on,,,,,2,0,1,,,,0,73,83
492688,note_on,,,,,6,0,1,,,,0,61,77
492688,note_on,,,,,0,0,1,,,,0,58,80
492704,note_off,,,,,16,0,1,,,,0,70,64
492708,note_off,,,,,4,0,1,,,,0,66,64
492712,note_off,,,,,4,0,1,,,,0,73,64
492718,note_off,,,,,6,0,1,,,,0,61,64
492722,note_off,,,,,4,0,1,,,,0,58,64
492726,note_off,,,,,4,0,1,,,,0,78,64
492872,control_change,,,,,146,0,1,,64,0,0,,
492896,note_on,,,,,24,0,1,,,,0,94,108
492898,note_on,,,,,2,0,1,,,,0,82,101
492902,note_on,,,,,4,0,1,,,,0,54,100
492902,note_on,,,,,0,0,1,,,,0,42,90
492916,control_change,,,,,14,0,1,,64,127,0,,
492924,note_off,,,,,8,0,1,,,,0,42,64
492930,note_off,,,,,6,0,1,,,,0,82,64
492932,note_off,,,,,2,0,1,,,,0,94,64
492934,note_off,,,,,2,0,1,,,,0,54,64
493114,note_on,,,,,180,0,1,,,,0,70,81
493116,note_on,,,,,0,0,1,,,,0,66,74
493116,note_on,,,,,2,0,1,,,,0,73,90
493118,note_on,,,,,2,0,1,,,,0,82,87
493120,note_on,,,,,2,0,1,,,,0,61,75
493124,note_on,,,,,4,0,1,,,,0,78,84
493144,note_off,,,,,0,0,1,,,,0,70,64
493144,note_off,,,,,20,0,1,,,,0,73,64
493152,note_off,,,,,8,0,1,,,,0,78,64
493154,note_off,,,,,2,0,1,,,,0,66,64
493160,note_off,,,,,6,0,1,,,,0,61,64
493166,note_off,,,,,6,0,1,,,,0,82,64
493344,set_tempo,,,,,1584,1,0,377358,,,,,
493348,set_tempo,,,,,4,1,0,375000,,,,,
493356,set_tempo,,,,,8,1,0,372671,,,,,
493360,set_tempo,,,,,4,1,0,370370,,,,,
493372,set_tempo,,,,,12,1,0,368098,,,,,
493376,set_tempo,,,,,4,1,0,365854,,,,,
493384,set_tempo,,,,,8,1,0,363636,,,,,
493388,set_tempo,,,,,4,1,0,361446,,,,,
493392,set_tempo,,,,,4,1,0,357143,,,,,
493396,note_on,,,,,230,0,1,,,,0,50,94
493398,note_on,,,,,0,0,1,,,,0,38,93
493398,note_on,,,,,2,0,1,,,,0,98,107
493400,set_tempo,,,,,8,1,0,355030,,,,,
493400,note_on,,,,,2,0,1,,,,0,86,98
493404,set_tempo,,,,,4,1,0,352941,,,,,
493408,set_tempo,,,,,4,1,0,350877,,,,,
493420,set_tempo,,,,,12,1,0,348837,,,,,
493426,control_change,,,,,26,0,1,,64,0,0,,
493428,set_tempo,,,,,8,1,0,346821,,,,,
493432,set_tempo,,,,,4,1,0,344828,,,,,
493436,set_tempo,,,,,4,1,0,342857,,,,,
493444,set_tempo,,,,,8,1,0,340909,,,,,
493448,set_tempo,,,,,4,1,0,337079,,,,,
493452,set_tempo,,,,,4,1,0,335196,,,,,
493460,set_tempo,,,,,8,1,0,333333,,,,,
493472,set_tempo,,,,,12,1,0,331492,,,,,
493476,set_tempo,,,,,4,1,0,329670,,,,,
493480,set_tempo,,,,,4,1,0,327869,,,,,
493488,set_tempo,,,,,8,1,0,326087,,,,,
493492,set_tempo,,,,,4,1,0,324324,,,,,
493496,set_tempo,,,,,4,1,0,322581,,,,,
493504,set_tempo,,,,,8,1,0,319149,,,,,
493508,set_tempo,,,,,4,1,0,317460,,,,,
493514,control_change,,,,,88,0,1,,64,127,0,,
493520,set_tempo,,,,,12,1,0,315789,,,,,
493524,set_tempo,,,,,4,1,0,314136,,,,,
493532,set_tempo,,,,,8,1,0,312500,,,,,
493536,set_tempo,,,,,4,1,0,310881,,,,,
493540,set_tempo,,,,,4,1,0,307692,,,,,
493596,note_on,,,,,82,0,1,,,,0,44,78
493622,note_off,,,,,26,0,1,,,,0,50,64
493626,note_off,,,,,4,0,1,,,,0,38,64
493684,note_on,,,,,58,0,1,,,,0,47,71
493750,note_off,,,,,66,0,1,,,,0,44,64
493776,note_on,,,,,26,0,1,,,,0,53,82
493780,note_off,,,,,4,0,1,,,,0,47,64
493830,note_off,,,,,50,0,1,,,,0,98,64
493832,note_off,,,,,2,0,1,,,,0,53,64
493856,note_off,,,,,24,0,1,,,,0,86,64
493866,note_on,,,,,10,0,1,,,,0,56,76
493962,note_on,,,,,96,0,1,,,,0,59,56
494012,note_off,,,,,50,0,1,,,,0,56,64
494056,note_on,,,,,44,0,1,,,,0,65,88
494058,note_off,,,,,2,0,1,,,,0,59,64
494144,note_on,,,,,86,0,1,,,,0,59,77
494160,set_tempo,,,,,620,1,0,306122,,,,,
494168,note_off,,,,,24,0,1,,,,0,65,64
494200,set_tempo,,,,,40,1,0,307692,,,,,
494224,note_on,,,,,56,0,1,,,,0,56,74
494232,note_off,,,,,8,0,1,,,,0,59,64
494240,set_tempo,,,,,40,1,0,309278,,,,,
494256,note_off,,,,,24,0,1,,,,0,56,64
494280,set_tempo,,,,,40,1,0,310881,,,,,
494314,note_on,,,,,58,0,1,,,,0,53,76
494320,set_tempo,,,,,40,1,0,312500,,,,,
494322,note_on,,,,,8,0,1,,,,0,59,80
494324,note_on,,,,,2,0,1,,,,0,71,57
494352,note_off,,,,,28,0,1,,,,0,59,64
494356,set_tempo,,,,,36,1,0,314136,,,,,
494372,note_off,,,,,20,0,1,,,,0,71,64
494396,set_tempo,,,,,40,1,0,315789,,,,,
494406,note_on,,,,,34,0,1,,,,0,47,81
494420,note_off,,,,,14,0,1,,,,0,53,64
494436,set_tempo,,,,,40,1,0,317460,,,,,
494488,note_on,,,,,68,0,1,,,,0,44,62
494516,set_tempo,,,,,80,1,0,319149,,,,,
494526,note_off,,,,,38,0,1,,,,0,47,64
494552,set_tempo,,,,,36,1,0,322581,,,,,
494588,note_on,,,,,62,0,1,,,,0,37,82
494592,set_tempo,,,,,40,1,0,324324,,,,,
494594,note_on,,,,,6,0,1,,,,0,62,86
494596,note_on,,,,,2,0,1,,,,0,74,82
494602,note_off,,,,,6,0,1,,,,0,44,64
494606,control_change,,,,,4,0,1,,64,0,0,,
494632,set_tempo,,,,,40,1,0,326087,,,,,
494640,note_off,,,,,34,0,1,,,,0,62,64
494642,control_change,,,,,2,0,1,,64,127,0,,
494668,note_on,,,,,0,0,1,,,,0,44,39
494668,note_off,,,,,26,0,1,,,,0,74,64
494672,set_tempo,,,,,40,1,0,327869,,,,,
494696,note_off,,,,,28,0,1,,,,0,37,64
494712,set_tempo,,,,,40,1,0,329670,,,,,
494748,set_tempo,,,,,36,1,0,331492,,,,,
494768,note_on,,,,,72,0,1,,,,0,47,63
494788,set_tempo,,,,,40,1,0,333333,,,,,
494812,note_off,,,,,44,0,1,,,,0,44,64
494860,note_off,,,,,48,0,1,,,,0,47,64
494868,set_tempo,,,,,80,1,0,335196,,,,,
494868,note_on,,,,,8,0,1,,,,0,53,12
494874,note_on,,,,,6,0,1,,,,0,65,88
494880,note_on,,,,,6,0,1,,,,0,77,69
494898,note_off,,,,,18,0,1,,,,0,65,64
494906,note_off,,,,,8,0,1,,,,0,53,64
494908,set_tempo,,,,,40,1,0,337079,,,,,
494912,note_off,,,,,6,0,1,,,,0,77,64
494944,set_tempo,,,,,36,1,0,340909,,,,,
494960,note_on,,,,,48,0,1,,,,0,56,67
494984,set_tempo,,,,,40,1,0,342857,,,,,
495024,set_tempo,,,,,40,1,0,344828,,,,,
495062,note_on,,,,,102,0,1,,,,0,59,76
495064,set_tempo,,,,,40,1,0,346821,,,,,
495102,note_off,,,,,40,0,1,,,,0,56,64
495104,set_tempo,,,,,40,1,0,348837,,,,,
495140,set_tempo,,,,,36,1,0,350877,,,,,
495144,note_off,,,,,42,0,1,,,,0,59,64
495150,note_on,,,,,6,0,1,,,,0,65,88
495156,note_on,,,,,0,0,1,,,,0,70,87
495156,note_on,,,,,6,0,1,,,,0,82,86
495220,set_tempo,,,,,80,1,0,352941,,,,,
495246,note_on,,,,,90,0,1,,,,0,59,76
495258,note_off,,,,,12,0,1,,,,0,65,64
495260,set_tempo,,,,,40,1,0,355030,,,,,
495300,set_tempo,,,,,40,1,0,357143,,,,,
495328,note_on,,,,,70,0,1,,,,0,56,74
495336,set_tempo,,,,,36,1,0,361446,,,,,
495344,note_off,,,,,16,0,1,,,,0,59,64
495360,set_tempo,,,,,24,1,0,289855,,,,,
495374,note_off,,,,,30,0,1,,,,0,56,64
495376,set_tempo,,,,,16,1,0,291262,,,,,
495378,note_off,,,,,4,0,1,,,,0,82,64
495390,note_off,,,,,12,0,1,,,,0,70,64
495416,set_tempo,,,,,40,1,0,292683,,,,,
495424,note_on,,,,,34,0,1,,,,0,53,75
495456,set_tempo,,,,,40,1,0,295567,,,,,
495496,set_tempo,,,,,40,1,0,297030,,,,,
495526,note_on,,,,,102,0,1,,,,0,47,74
495572,set_tempo,,,,,76,1,0,298507,,,,,
495576,note_on,,,,,50,0,1,,,,0,80,91
495576,note_on,,,,,0,0,1,,,,0,68,86
495602,note_off,,,,,26,0,1,,,,0,53,64
495608,note_off,,,,,6,0,1,,,,0,68,64
495612,set_tempo,,,,,40,1,0,300000,,,,,
495612,note_off,,,,,4,0,1,,,,0,80,64
495630,note_on,,,,,18,0,1,,,,0,44,79
495652,set_tempo,,,,,40,1,0,303030,,,,,
495660,note_off,,,,,30,0,1,,,,0,47,64
495692,set_tempo,,,,,40,1,0,304569,,,,,
495728,set_tempo,,,,,36,1,0,307692,,,,,
495744,note_on,,,,,84,0,1,,,,0,42,71
495748,note_off,,,,,4,0,1,,,,0,44,64
495756,control_change,,,,,8,0,1,,64,0,0,,
495760,note_on,,,,,0,0,1,,,,0,66,83
495760,note_on,,,,,4,0,1,,,,0,78,81
495762,note_on,,,,,0,0,1,,,,0,70,77
495762,note_on,,,,,2,0,1,,,,0,73,76
495796,note_off,,,,,34,0,1,,,,0,66,64
495812,note_off,,,,,16,0,1,,,,0,70,64
495816,control_change,,,,,4,0,1,,64,127,0,,
495820,note_off,,,,,4,0,1,,,,0,73,64
495822,note_off,,,,,2,0,1,,,,0,78,64
495856,note_off,,,,,34,0,1,,,,0,42,64
495886,note_on,,,,,0,0,1,,,,0,66,80
495886,note_on,,,,,30,0,1,,,,0,78,70
495888,note_on,,,,,2,0,1,,,,0,73,74
495890,note_on,,,,,2,0,1,,,,0,70,71
495924,note_off,,,,,34,0,1,,,,0,66,64
495934,note_off,,,,,10,0,1,,,,0,70,64
495938,note_off,,,,,4,0,1,,,,0,73,64
495940,note_off,,,,,2,0,1,,,,0,78,64
495996,note_on,,,,,56,0,1,,,,0,78,78
496000,note_on,,,,,4,0,1,,,,0,73,79
496000,note_on,,,,,0,0,1,,,,0,63,87
496000,note_on,,,,,0,0,1,,,,0,51,84
496002,note_on,,,,,2,0,1,,,,0,66,88
496004,note_on,,,,,2,0,1,,,,0,70,74
496034,note_off,,,,,30,0,1,,,,0,66,64
496038,note_off,,,,,4,0,1,,,,0,63,64
496040,note_off,,,,,2,0,1,,,,0,70,64
496048,note_off,,,,,8,0,1,,,,0,51,64
496052,note_off,,,,,4,0,1,,,,0,78,64
496056,note_off,,,,,4,0,1,,,,0,73,64
496120,note_on,,,,,64,0,1,,,,0,61,81
496122,note_on,,,,,0,0,1,,,,0,49,82
496122,note_on,,,,,2,0,1,,,,0,70,92
496124,note_on,,,,,0,0,1,,,,0,78,77
496124,note_on,,,,,2,0,1,,,,0,82,77
496126,note_on,,,,,2,0,1,,,,0,73,81
496158,note_off,,,,,32,0,1,,,,0,61,64
496160,note_off,,,,,2,0,1,,,,0,49,64
496162,note_off,,,,,2,0,1,,,,0,70,64
496166,note_off,,,,,4,0,1,,,,0,73,64
496174,note_off,,,,,8,0,1,,,,0,82,64
496186,note_off,,,,,12,0,1,,,,0,78,64
496232,note_on,,,,,0,0,1,,,,0,58,87
496232,note_on,,,,,46,0,1,,,,0,78,77
496234,note_on,,,,,2,0,1,,,,0,46,84
496236,note_on,,,,,2,0,1,,,,0,82,72
496236,note_on,,,,,0,0,1,,,,0,73,81
496236,note_on,,,,,0,0,1,,,,0,70,90
496268,note_off,,,,,32,0,1,,,,0,58,64
496274,note_off,,,,,6,0,1,,,,0,70,64
496276,note_off,,,,,2,0,1,,,,0,46,64
496282,note_off,,,,,6,0,1,,,,0,73,64
496284,note_off,,,,,2,0,1,,,,0,82,64
496292,note_off,,,,,8,0,1,,,,0,78,64
496328,control_change,,,,,36,0,1,,64,0,0,,
496330,note_on,,,,,2,0,1,,,,0,56,88
496330,note_on,,,,,0,0,1,,,,0,44,88
496332,note_on,,,,,2,0,1,,,,0,78,74
496332,note_on,,,,,0,0,1,,,,0,70,88
496336,note_on,,,,,4,0,1,,,,0,82,83
496336,note_on,,,,,0,0,1,,,,0,73,84
496342,control_change,,,,,6,0,1,,64,127,0,,
496362,note_off,,,,,20,0,1,,,,0,70,64
496366,note_off,,,,,4,0,1,,,,0,56,64
496372,note_off,,,,,0,0,1,,,,0,44,64
496372,note_off,,,,,6,0,1,,,,0,73,64
496380,note_off,,,,,8,0,1,,,,0,82,64
496386,note_off,,,,,6,0,1,,,,0,78,64
496426,control_change,,,,,40,0,1,,64,0,0,,
496432,note_on,,,,,0,0,1,,,,0,42,88
496432,note_on,,,,,6,0,1,,,,0,54,89
496436,note_on,,,,,4,0,1,,,,0,85,89
496438,note_on,,,,,2,0,1,,,,0,73,92
496440,note_on,,,,,2,0,1,,,,0,78,87
496442,note_on,,,,,2,0,1,,,,0,82,74
496444,control_change,,,,,2,0,1,,64,127,0,,
496472,note_off,,,,,28,0,1,,,,0,42,64
496478,note_off,,,,,6,0,1,,,,0,54,64
496484,note_off,,,,,6,0,1,,,,0,73,64
496492,note_off,,,,,0,0,1,,,,0,85,64
496492,note_off,,,,,8,0,1,,,,0,78,64
496502,note_off,,,,,10,0,1,,,,0,82,64
496540,note_on,,,,,38,0,1,,,,0,51,88
496542,note_on,,,,,2,0,1,,,,0,39,89
496546,note_on,,,,,0,0,1,,,,0,73,92
496546,note_on,,,,,4,0,1,,,,0,85,88
496548,note_on,,,,,2,0,1,,,,0,82,75
496548,note_on,,,,,0,0,1,,,,0,78,81
496550,control_change,,,,,2,0,1,,64,0,0,,
496568,control_change,,,,,18,0,1,,64,127,0,,
496582,note_off,,,,,14,0,1,,,,0,51,64
496592,note_off,,,,,10,0,1,,,,0,39,64
496596,note_off,,,,,4,0,1,,,,0,73,64
496604,note_off,,,,,8,0,1,,,,0,78,64
496604,note_off,,,,,0,0,1,,,,0,85,64
496612,note_off,,,,,8,0,1,,,,0,82,64
496656,control_change,,,,,44,0,1,,64,0,0,,
496658,note_on,,,,,0,0,1,,,,0,37,93
496658,note_on,,,,,2,0,1,,,,0,85,87
496660,note_on,,,,,2,0,1,,,,0,49,94
496664,note_on,,,,,0,0,1,,,,0,78,81
496664,note_on,,,,,4,0,1,,,,0,82,84
496666,note_on,,,,,2,0,1,,,,0,73,95
496676,control_change,,,,,10,0,1,,64,127,0,,
496692,note_off,,,,,16,0,1,,,,0,73,64
496702,note_off,,,,,10,0,1,,,,0,49,64
496706,note_off,,,,,4,0,1,,,,0,78,64
496714,note_off,,,,,8,0,1,,,,0,37,64
496716,note_off,,,,,2,0,1,,,,0,85,64
496720,note_off,,,,,4,0,1,,,,0,82,64
496778,control_change,,,,,58,0,1,,64,0,0,,
496786,note_on,,,,,8,0,1,,,,0,34,97
496790,note_on,,,,,0,0,1,,,,0,78,101
496790,note_on,,,,,4,0,1,,,,0,82,93
496792,note_on,,,,,2,0,1,,,,0,90,93
496792,note_on,,,,,0,0,1,,,,0,85,88
496794,note_on,,,,,2,0,1,,,,0,46,91
496804,control_change,,,,,10,0,1,,64,127,0,,
496840,note_off,,,,,36,0,1,,,,0,78,64
496844,note_off,,,,,0,0,1,,,,0,34,64
496844,note_off,,,,,4,0,1,,,,0,46,64
496844,note_off,,,,,0,0,1,,,,0,82,64
496864,note_off,,,,,20,0,1,,,,0,85,64
496868,note_off,,,,,4,0,1,,,,0,90,64
496912,control_change,,,,,44,0,1,,64,0,0,,
496920,note_on,,,,,8,0,1,,,,0,44,96
496920,note_on,,,,,0,0,1,,,,0,32,92
496926,note_on,,,,,0,0,1,,,,0,78,100
496926,note_on,,,,,6,0,1,,,,0,90,89
496928,note_on,,,,,0,0,1,,,,0,82,92
496928,note_on,,,,,2,0,1,,,,0,85,90
496942,control_change,,,,,14,0,1,,64,127,0,,
496980,note_off,,,,,38,0,1,,,,0,44,64
496986,note_off,,,,,6,0,1,,,,0,78,64
496988,note_off,,,,,2,0,1,,,,0,32,64
496992,note_off,,,,,4,0,1,,,,0,82,64
496996,note_off,,,,,4,0,1,,,,0,85,64
497004,note_off,,,,,8,0,1,,,,0,90,64
497052,control_change,,,,,48,0,1,,64,0,0,,
497064,note_on,,,,,12,0,1,,,,0,42,82
497068,note_on,,,,,4,0,1,,,,0,30,92
497072,note_on,,,,,4,0,1,,,,0,90,87
497072,note_on,,,,,0,0,1,,,,0,78,96
497074,note_on,,,,,2,0,1,,,,0,85,89
497074,note_on,,,,,0,0,1,,,,0,82,89
497080,control_change,,,,,6,0,1,,64,127,0,,
497096,note_off,,,,,16,0,1,,,,0,78,64
497104,note_off,,,,,8,0,1,,,,0,82,64
497114,note_off,,,,,10,0,1,,,,0,85,64
497116,note_off,,,,,2,0,1,,,,0,42,64
497118,note_off,,,,,2,0,1,,,,0,90,64
497120,note_off,,,,,2,0,1,,,,0,30,64
497232,note_on,,,,,112,0,1,,,,0,40,90
497232,note_on,,,,,0,0,1,,,,0,28,100
497268,control_change,,,,,36,0,1,,64,0,0,,
497276,note_on,,,,,0,0,1,,,,0,91,93
497276,note_on,,,,,0,0,1,,,,0,83,94
497276,note_on,,,,,8,0,1,,,,0,95,97
497278,note_on,,,,,2,0,1,,,,0,86,92
497336,control_change,,,,,58,0,1,,64,127,0,,
497354,note_off,,,,,18,0,1,,,,0,28,64
497356,note_off,,,,,2,0,1,,,,0,40,64
497494,note_on,,,,,138,0,1,,,,0,43,85
497500,note_on,,,,,6,0,1,,,,0,31,93
497528,note_off,,,,,28,0,1,,,,0,43,64
497532,note_off,,,,,4,0,1,,,,0,31,64
497600,note_on,,,,,68,0,1,,,,0,47,102
497602,note_on,,,,,2,0,1,,,,0,35,87
497624,note_off,,,,,22,0,1,,,,0,35,64
497628,note_off,,,,,4,0,1,,,,0,47,64
497706,note_on,,,,,78,0,1,,,,0,52,102
497708,note_on,,,,,2,0,1,,,,0,40,91
497738,note_off,,,,,30,0,1,,,,0,52,64
497740,note_off,,,,,2,0,1,,,,0,40,64
497812,note_off,,,,,72,0,1,,,,0,95,64
497814,note_off,,,,,2,0,1,,,,0,91,64
497816,note_on,,,,,0,0,1,,,,0,43,94
497816,note_on,,,,,2,0,1,,,,0,55,100
497818,note_off,,,,,2,0,1,,,,0,86,64
497822,note_off,,,,,4,0,1,,,,0,83,64
497846,note_off,,,,,24,0,1,,,,0,43,64
497846,note_off,,,,,0,0,1,,,,0,55,64
498052,control_change,,,,,206,0,1,,64,0,0,,
498072,note_on,,,,,20,0,1,,,,0,90,89
498074,note_on,,,,,0,0,1,,,,0,45,100
498074,note_on,,,,,2,0,1,,,,0,85,96
498076,note_on,,,,,0,0,1,,,,0,33,94
498076,note_on,,,,,2,0,1,,,,0,81,97
498080,note_on,,,,,4,0,1,,,,0,93,91
498116,control_change,,,,,36,0,1,,64,127,0,,
498160,note_off,,,,,44,0,1,,,,0,45,64
498170,note_off,,,,,10,0,1,,,,0,33,64
498202,note_on,,,,,32,0,1,,,,0,49,97
498208,note_on,,,,,6,0,1,,,,0,37,86
498228,note_off,,,,,20,0,1,,,,0,37,64
498228,note_off,,,,,0,0,1,,,,0,49,64
498322,note_on,,,,,94,0,1,,,,0,52,85
498324,note_on,,,,,2,0,1,,,,0,40,77
498346,note_off,,,,,22,0,1,,,,0,52,64
498348,note_off,,,,,2,0,1,,,,0,40,64
498454,note_on,,,,,106,0,1,,,,0,57,97
498456,note_on,,,,,2,0,1,,,,0,45,98
498468,control_change,,,,,12,0,1,,64,0,0,,
498476,control_change,,,,,8,0,1,,64,127,0,,
498484,note_off,,,,,8,0,1,,,,0,57,64
498488,note_off,,,,,4,0,1,,,,0,45,64
498540,note_off,,,,,52,0,1,,,,0,93,64
498564,note_off,,,,,24,0,1,,,,0,85,64
498564,note_off,,,,,0,0,1,,,,0,90,64
498566,note_off,,,,,2,0,1,,,,0,81,64
498584,note_on,,,,,18,0,1,,,,0,61,95
498586,note_on,,,,,2,0,1,,,,0,49,92
498616,note_off,,,,,0,0,1,,,,0,61,64
498616,note_off,,,,,30,0,1,,,,0,49,64
498728,note_on,,,,,0,0,1,,,,0,79,92
498728,note_on,,,,,112,0,1,,,,0,91,79
498730,note_on,,,,,2,0,1,,,,0,88,82
498764,note_off,,,,,0,0,1,,,,0,91,64
498764,note_off,,,,,34,0,1,,,,0,79,64
498778,note_off,,,,,14,0,1,,,,0,88,64
498884,control_change,,,,,106,0,1,,64,0,0,,
498904,note_on,,,,,0,0,1,,,,0,78,92
498904,note_on,,,,,20,0,1,,,,0,90,81
498910,note_on,,,,,6,0,1,,,,0,86,90
498912,note_on,,,,,0,0,1,,,,0,50,93
498912,note_on,,,,,2,0,1,,,,0,62,95
498930,control_change,,,,,18,0,1,,64,127,0,,
498956,note_off,,,,,26,0,1,,,,0,78,64
498964,note_off,,,,,8,0,1,,,,0,62,64
498968,note_off,,,,,4,0,1,,,,0,90,64
498974,note_off,,,,,6,0,1,,,,0,86,64
498978,note_off,,,,,4,0,1,,,,0,50,64
499040,note_on,,,,,62,0,1,,,,0,90,81
499040,note_on,,,,,0,0,1,,,,0,86,85
499040,note_on,,,,,0,0,1,,,,0,78,95
499082,note_off,,,,,42,0,1,,,,0,78,64
499092,note_off,,,,,10,0,1,,,,0,90,64
499102,note_off,,,,,10,0,1,,,,0,86,64
499114,note_on,,,,,12,0,1,,,,0,50,92
499118,note_on,,,,,4,0,1,,,,0,38,76
499148,note_off,,,,,30,0,1,,,,0,50,64
499152,note_on,,,,,4,0,1,,,,0,90,78
499152,note_on,,,,,0,0,1,,,,0,86,86
499152,note_on,,,,,0,0,1,,,,0,78,91
499154,note_off,,,,,2,0,1,,,,0,38,64
499192,note_off,,,,,0,0,1,,,,0,90,64
499192,note_off,,,,,38,0,1,,,,0,78,64
499196,note_off,,,,,4,0,1,,,,0,86,64
499262,note_on,,,,,66,0,1,,,,0,49,92
499262,note_on,,,,,0,0,1,,,,0,37,91
499268,note_on,,,,,0,0,1,,,,0,74,87
499268,note_on,,,,,6,0,1,,,,0,78,85
499270,control_change,,,,,2,0,1,,64,0,0,,
499272,note_on,,,,,2,0,1,,,,0,86,80
499308,note_off,,,,,0,0,1,,,,0,78,64
499308,note_off,,,,,36,0,1,,,,0,74,64
499308,control_change,,,,,0,0,1,,64,127,0,,
499320,note_off,,,,,12,0,1,,,,0,86,64
499322,note_off,,,,,2,0,1,,,,0,37,64
499338,note_off,,,,,16,0,1,,,,0,49,64
499390,note_on,,,,,52,0,1,,,,0,78,92
499392,note_on,,,,,0,0,1,,,,0,74,86
499392,note_on,,,,,2,0,1,,,,0,86,92
499430,note_off,,,,,38,0,1,,,,0,74,64
499438,note_off,,,,,8,0,1,,,,0,86,64
499440,note_off,,,,,2,0,1,,,,0,78,64
499458,note_on,,,,,18,0,1,,,,0,61,95
499462,note_on,,,,,4,0,1,,,,0,49,88
499500,note_on,,,,,38,0,1,,,,0,78,89
499502,note_on,,,,,2,0,1,,,,0,74,88
499504,note_on,,,,,2,0,1,,,,0,86,84
499528,note_off,,,,,24,0,1,,,,0,74,64
499542,note_off,,,,,14,0,1,,,,0,61,64
499544,note_off,,,,,0,0,1,,,,0,78,64
499544,note_off,,,,,2,0,1,,,,0,86,64
499554,note_off,,,,,10,0,1,,,,0,49,64
499616,control_change,,,,,62,0,1,,64,0,0,,
499624,note_on,,,,,8,0,1,,,,0,59,98
499628,note_on,,,,,4,0,1,,,,0,90,86
499628,note_on,,,,,0,0,1,,,,0,78,98
499628,note_on,,,,,0,0,1,,,,0,47,98
499630,note_on,,,,,2,0,1,,,,0,86,90
499650,control_change,,,,,20,0,1,,64,127,0,,
499670,note_off,,,,,20,0,1,,,,0,59,64
499682,note_off,,,,,12,0,1,,,,0,78,64
499690,note_off,,,,,0,0,1,,,,0,90,64
499690,note_off,,,,,8,0,1,,,,0,47,64
499702,note_off,,,,,12,0,1,,,,0,86,64
499760,note_on,,,,,58,0,1,,,,0,90,81
499762,note_on,,,,,0,0,1,,,,0,78,96
499762,note_on,,,,,2,0,1,,,,0,86,83
499810,note_off,,,,,48,0,1,,,,0,78,64
499816,note_off,,,,,6,0,1,,,,0,90,64
499824,note_on,,,,,8,0,1,,,,0,47,91
499826,note_off,,,,,2,0,1,,,,0,86,64
499830,note_on,,,,,4,0,1,,,,0,35,92
499846,control_change,,,,,16,0,1,,64,0,0,,
499866,control_change,,,,,20,0,1,,64,127,0,,
499880,note_on,,,,,14,0,1,,,,0,86,83
499880,note_on,,,,,0,0,1,,,,0,78,93
499882,note_on,,,,,2,0,1,,,,0,90,81
499916,note_off,,,,,34,0,1,,,,0,78,64
499928,note_off,,,,,12,0,1,,,,0,47,64
499932,note_off,,,,,0,0,1,,,,0,86,64
499932,note_off,,,,,4,0,1,,,,0,90,64
499940,note_off,,,,,8,0,1,,,,0,35,64
500000,control_change,,,,,60,0,1,,64,0,0,,
500012,note_on,,,,,12,0,1,,,,0,45,111
500012,note_on,,,,,0,0,1,,,,0,33,97
500014,note_on,,,,,0,0,1,,,,0,81,98
500014,note_on,,,,,2,0,1,,,,0,93,93
500016,note_on,,,,,0,0,1,,,,0,85,96
500016,note_on,,,,,2,0,1,,,,0,90,87
500042,control_change,,,,,26,0,1,,64,127,0,,
500052,note_off,,,,,0,0,1,,,,0,81,64
500052,note_off,,,,,0,0,1,,,,0,33,64
500052,note_off,,,,,10,0,1,,,,0,85,64
500062,note_off,,,,,10,0,1,,,,0,93,64
500066,note_off,,,,,4,0,1,,,,0,45,64
500080,note_off,,,,,14,0,1,,,,0,90,64
500152,note_on,,,,,72,0,1,,,,0,90,87
500152,note_on,,,,,0,0,1,,,,0,85,96
500154,note_on,,,,,2,0,1,,,,0,81,88
500156,note_on,,,,,2,0,1,,,,0,93,90
500180,note_off,,,,,24,0,1,,,,0,81,64
500184,note_off,,,,,4,0,1,,,,0,93,64
500186,note_off,,,,,2,0,1,,,,0,85,64
500200,note_off,,,,,14,0,1,,,,0,90,64
500212,note_on,,,,,0,0,1,,,,0,45,93
500212,note_on,,,,,12,0,1,,,,0,57,98
500246,note_off,,,,,34,0,1,,,,0,57,64
500248,note_off,,,,,2,0,1,,,,0,45,64
500266,note_on,,,,,18,0,1,,,,0,90,87
500268,note_on,,,,,0,0,1,,,,0,81,94
500268,note_on,,,,,2,0,1,,,,0,85,92
500270,note_on,,,,,2,0,1,,,,0,93,83
500292,note_off,,,,,22,0,1,,,,0,81,64
500298,note_off,,,,,6,0,1,,,,0,93,64
500298,note_off,,,,,0,0,1,,,,0,85,64
500312,note_off,,,,,14,0,1,,,,0,90,64
500398,control_change,,,,,86,0,1,,64,0,0,,
500400,note_on,,,,,2,0,1,,,,0,95,93
500400,note_on,,,,,0,0,1,,,,0,56,105
500404,note_on,,,,,0,0,1,,,,0,44,96
500404,note_on,,,,,4,0,1,,,,0,83,87
500406,note_on,,,,,2,0,1,,,,0,90,90
500406,note_on,,,,,0,0,1,,,,0,86,98
500448,note_off,,,,,42,0,1,,,,0,83,64
500454,note_off,,,,,6,0,1,,,,0,86,64
500456,note_off,,,,,2,0,1,,,,0,95,64
500460,note_off,,,,,4,0,1,,,,0,90,64
500464,control_change,,,,,4,0,1,,64,127,0,,
500532,note_on,,,,,68,0,1,,,,0,90,88
500534,note_off,,,,,2,0,1,,,,0,56,64
500534,note_on,,,,,0,0,1,,,,0,83,92
500536,note_on,,,,,0,0,1,,,,0,86,91
500536,note_on,,,,,2,0,1,,,,0,95,87
500562,note_off,,,,,26,0,1,,,,0,83,64
500566,note_off,,,,,4,0,1,,,,0,86,64
500568,note_off,,,,,2,0,1,,,,0,44,64
500572,note_off,,,,,4,0,1,,,,0,95,64
500576,note_off,,,,,4,0,1,,,,0,90,64
500636,note_on,,,,,60,0,1,,,,0,90,92
500638,note_on,,,,,2,0,1,,,,0,86,93
500640,note_on,,,,,2,0,1,,,,0,95,90
500640,note_on,,,,,0,0,1,,,,0,83,90
500664,note_off,,,,,24,0,1,,,,0,83,64
500668,note_off,,,,,4,0,1,,,,0,86,64
500678,note_off,,,,,10,0,1,,,,0,95,64
500682,note_off,,,,,4,0,1,,,,0,90,64
500744,note_on,,,,,62,0,1,,,,0,90,93
500746,note_on,,,,,0,0,1,,,,0,86,100
500746,note_on,,,,,2,0,1,,,,0,95,94
500748,note_on,,,,,2,0,1,,,,0,83,95
500750,note_on,,,,,2,0,1,,,,0,44,110
500750,note_on,,,,,0,0,1,,,,0,32,103
500776,control_change,,,,,26,0,1,,64,0,0,,
500796,note_off,,,,,0,0,1,,,,0,95,64
500796,note_off,,,,,20,0,1,,,,0,83,64
500800,note_off,,,,,4,0,1,,,,0,86,64
500806,control_change,,,,,6,0,1,,64,127,0,,
500808,note_off,,,,,2,0,1,,,,0,90,64
500872,note_on,,,,,0,0,1,,,,0,86,95
500872,note_on,,,,,0,0,1,,,,0,83,87
500872,note_on,,,,,64,0,1,,,,0,90,89
500876,note_on,,,,,4,0,1,,,,0,95,90
500902,note_off,,,,,26,0,1,,,,0,83,64
500910,note_off,,,,,8,0,1,,,,0,86,64
500916,note_off,,,,,6,0,1,,,,0,95,64
500928,note_off,,,,,12,0,1,,,,0,90,64
500932,note_off,,,,,4,0,1,,,,0,44,64
500988,note_on,,,,,56,0,1,,,,0,90,92
500990,note_on,,,,,2,0,1,,,,0,86,93
500992,note_on,,,,,0,0,1,,,,0,83,92
500992,note_on,,,,,2,0,1,,,,0,95,92
500998,note_off,,,,,6,0,1,,,,0,32,64
501016,note_off,,,,,18,0,1,,,,0,83,64
501024,note_off,,,,,8,0,1,,,,0,86,64
501036,note_off,,,,,12,0,1,,,,0,95,64
501042,note_off,,,,,6,0,1,,,,0,90,64
501112,note_on,,,,,70,0,1,,,,0,95,88
501112,note_on,,,,,0,0,1,,,,0,89,95
501114,note_on,,,,,2,0,1,,,,0,83,92
501114,note_on,,,,,0,0,1,,,,0,43,105
501118,note_on,,,,,4,0,1,,,,0,86,95
501118,note_on,,,,,0,0,1,,,,0,31,107
501140,control_change,,,,,22,0,1,,64,0,0,,
501178,note_off,,,,,38,0,1,,,,0,83,64
501184,note_off,,,,,6,0,1,,,,0,86,64
501192,note_off,,,,,8,0,1,,,,0,89,64
501194,note_off,,,,,2,0,1,,,,0,95,64
501206,control_change,,,,,12,0,1,,64,127,0,,
501244,note_on,,,,,38,0,1,,,,0,95,78
501244,note_on,,,,,0,0,1,,,,0,89,78
501244,note_on,,,,,0,0,1,,,,0,86,82
501246,note_on,,,,,2,0,1,,,,0,83,80
501252,note_off,,,,,6,0,1,,,,0,31,64
501272,note_off,,,,,20,0,1,,,,0,43,64
501278,note_off,,,,,6,0,1,,,,0,83,64
501286,note_off,,,,,8,0,1,,,,0,86,64
501294,note_off,,,,,8,0,1,,,,0,89,64
501294,note_off,,,,,0,0,1,,,,0,95,64
501356,note_on,,,,,62,0,1,,,,0,89,91
501360,note_on,,,,,4,0,1,,,,0,86,90
501360,note_on,,,,,0,0,1,,,,0,83,87
501362,note_on,,,,,2,0,1,,,,0,95,86
501404,note_off,,,,,42,0,1,,,,0,83,64
501410,note_off,,,,,6,0,1,,,,0,86,64
501414,note_off,,,,,4,0,1,,,,0,95,64
501418,note_off,,,,,4,0,1,,,,0,89,64
501488,note_on,,,,,70,0,1,,,,0,89,97
501490,note_on,,,,,0,0,1,,,,0,55,98
501490,note_on,,,,,2,0,1,,,,0,95,93
501492,note_on,,,,,0,0,1,,,,0,43,102
501492,note_on,,,,,2,0,1,,,,0,83,94
501496,note_on,,,,,4,0,1,,,,0,86,95
501528,control_change,,,,,32,0,1,,64,0,0,,
501548,note_off,,,,,0,0,1,,,,0,83,64
501548,note_off,,,,,20,0,1,,,,0,86,64
501558,note_off,,,,,10,0,1,,,,0,95,64
501560,note_off,,,,,2,0,1,,,,0,89,64
501604,control_change,,,,,44,0,1,,64,127,0,,
501612,note_on,,,,,8,0,1,,,,0,95,81
501614,note_on,,,,,2,0,1,,,,0,83,86
501618,note_on,,,,,4,0,1,,,,0,89,81
501618,note_on,,,,,0,0,1,,,,0,86,86
501632,note_off,,,,,14,0,1,,,,0,55,64
501654,note_off,,,,,22,0,1,,,,0,43,64
501660,note_off,,,,,6,0,1,,,,0,83,64
501664,note_off,,,,,4,0,1,,,,0,86,64
501670,note_off,,,,,6,0,1,,,,0,95,64
501672,note_off,,,,,2,0,1,,,,0,89,64
501748,note_on,,,,,76,0,1,,,,0,89,68
501748,note_on,,,,,0,0,1,,,,0,83,83
501750,note_on,,,,,2,0,1,,,,0,86,83
501752,note_on,,,,,2,0,1,,,,0,95,74
501766,note_off,,,,,14,0,1,,,,0,83,64
501772,note_off,,,,,6,0,1,,,,0,86,64
501778,note_off,,,,,6,0,1,,,,0,95,64
501778,note_off,,,,,0,0,1,,,,0,89,64
501908,note_on,,,,,130,0,1,,,,0,42,97
501910,note_on,,,,,2,0,1,,,,0,30,104
501912,note_on,,,,,2,0,1,,,,0,95,94
501912,note_on,,,,,0,0,1,,,,0,87,96
501946,control_change,,,,,34,0,1,,64,0,0,,
501992,note_on,,,,,46,0,1,,,,0,99,85
501994,note_off,,,,,2,0,1,,,,0,87,64
502006,note_off,,,,,12,0,1,,,,0,95,64
502012,control_change,,,,,6,0,1,,64,127,0,,
502048,note_on,,,,,36,0,1,,,,0,95,72
502048,note_on,,,,,0,0,1,,,,0,87,78
502054,note_off,,,,,6,0,1,,,,0,99,64
502080,set_tempo,,,,,6352,1,0,384615,,,,,
502086,note_off,,,,,32,0,1,,,,0,87,64
502096,note_on,,,,,10,0,1,,,,0,99,81
502106,note_off,,,,,10,0,1,,,,0,95,64
502126,note_off,,,,,20,0,1,,,,0,30,64
502132,note_off,,,,,6,0,1,,,,0,42,64
502146,note_off,,,,,14,0,1,,,,0,99,64
502148,note_on,,,,,2,0,1,,,,0,95,90
502150,note_on,,,,,2,0,1,,,,0,87,91
502184,note_off,,,,,34,0,1,,,,0,87,64
502200,note_on,,,,,16,0,1,,,,0,99,85
502204,note_off,,,,,4,0,1,,,,0,95,64
502240,note_off,,,,,36,0,1,,,,0,99,64
502246,note_on,,,,,6,0,1,,,,0,95,97
502248,note_on,,,,,2,0,1,,,,0,87,101
502286,note_off,,,,,38,0,1,,,,0,87,64
502294,note_on,,,,,8,0,1,,,,0,99,90
502308,note_off,,,,,14,0,1,,,,0,95,64
502344,note_on,,,,,36,0,1,,,,0,95,82
502346,note_on,,,,,2,0,1,,,,0,87,75
502348,note_off,,,,,2,0,1,,,,0,99,64
502352,set_tempo,,,,,272,1,0,387097,,,,,
502368,note_off,,,,,20,0,1,,,,0,87,64
502380,set_tempo,,,,,28,1,0,389610,,,,,
502390,note_on,,,,,22,0,1,,,,0,99,74
502400,note_off,,,,,10,0,1,,,,0,95,64
502404,set_tempo,,,,,24,1,0,392157,,,,,
502424,note_on,,,,,24,0,1,,,,0,87,78
502432,note_on,,,,,8,0,1,,,,0,95,82
502436,note_off,,,,,4,0,1,,,,0,99,64
502452,note_off,,,,,16,0,1,,,,0,87,64
502456,set_tempo,,,,,52,1,0,394737,,,,,
502470,note_on,,,,,18,0,1,,,,0,69,80
502472,note_on,,,,,2,0,1,,,,0,57,87
502480,note_on,,,,,8,0,1,,,,0,99,86
502484,set_tempo,,,,,28,1,0,397351,,,,,
502486,note_off,,,,,6,0,1,,,,0,95,64
502496,note_off,,,,,10,0,1,,,,0,57,64
502504,note_off,,,,,8,0,1,,,,0,69,64
502508,set_tempo,,,,,24,1,0,400000,,,,,
502524,note_off,,,,,20,0,1,,,,0,99,64
502528,note_on,,,,,4,0,1,,,,0,95,93
502530,note_on,,,,,0,0,1,,,,0,69,102
502530,note_on,,,,,2,0,1,,,,0,87,93
502536,note_on,,,,,6,0,1,,,,0,57,102
502536,set_tempo,,,,,28,1,0,402685,,,,,
502556,note_off,,,,,20,0,1,,,,0,87,64
502560,set_tempo,,,,,24,1,0,405405,,,,,
502570,note_on,,,,,14,0,1,,,,0,99,84
502582,note_off,,,,,12,0,1,,,,0,95,64
502620,note_off,,,,,38,0,1,,,,0,99,64
502620,note_on,,,,,0,0,1,,,,0,95,67
502620,note_on,,,,,0,0,1,,,,0,87,74
502624,note_off,,,,,4,0,1,,,,0,69,64
502644,note_off,,,,,20,0,1,,,,0,87,64
502654,note_off,,,,,10,0,1,,,,0,57,64
502672,note_on,,,,,18,0,1,,,,0,99,79
502676,note_off,,,,,4,0,1,,,,0,95,64
502714,note_off,,,,,38,0,1,,,,0,99,64
502716,note_on,,,,,0,0,1,,,,0,87,71
502716,note_on,,,,,2,0,1,,,,0,95,71
502736,note_off,,,,,20,0,1,,,,0,87,64
502762,note_on,,,,,26,0,1,,,,0,99,79
502764,note_off,,,,,2,0,1,,,,0,95,64
502796,note_off,,,,,32,0,1,,,,0,99,64
502804,note_on,,,,,0,0,1,,,,0,87,92
502804,note_on,,,,,8,0,1,,,,0,95,92
502828,note_off,,,,,24,0,1,,,,0,87,64
502850,note_on,,,,,22,0,1,,,,0,99,88
502856,note_off,,,,,6,0,1,,,,0,95,64
502888,note_on,,,,,0,0,1,,,,0,87,82
502888,note_on,,,,,32,0,1,,,,0,95,79
502890,note_off,,,,,2,0,1,,,,0,99,64
502914,note_off,,,,,24,0,1,,,,0,87,64
502942,note_on,,,,,28,0,1,,,,0,99,78
502944,note_off,,,,,2,0,1,,,,0,95,64
502976,note_on,,,,,32,0,1,,,,0,87,71
502980,note_on,,,,,4,0,1,,,,0,95,63
502982,note_on,,,,,2,0,1,,,,0,63,84
502984,note_on,,,,,2,0,1,,,,0,51,84
502990,note_off,,,,,6,0,1,,,,0,99,64
502998,note_off,,,,,8,0,1,,,,0,87,64
503008,note_off,,,,,10,0,1,,,,0,51,64
503012,note_off,,,,,4,0,1,,,,0,63,64
503030,note_off,,,,,18,0,1,,,,0,95,64
503030,note_on,,,,,0,0,1,,,,0,99,71
503050,note_on,,,,,20,0,1,,,,0,63,98
503052,note_on,,,,,2,0,1,,,,0,51,102
503058,note_on,,,,,6,0,1,,,,0,87,97
503064,note_on,,,,,6,0,1,,,,0,95,87
503076,note_off,,,,,12,0,1,,,,0,99,64
503090,note_off,,,,,14,0,1,,,,0,87,64
503102,note_off,,,,,12,0,1,,,,0,63,64
503110,note_off,,,,,8,0,1,,,,0,51,64
503118,note_off,,,,,8,0,1,,,,0,95,64
503130,note_on,,,,,12,0,1,,,,0,99,53
503156,note_on,,,,,0,0,1,,,,0,95,70
503156,note_off,,,,,26,0,1,,,,0,99,64
503160,note_on,,,,,4,0,1,,,,0,87,72
503182,note_off,,,,,22,0,1,,,,0,87,64
503208,note_on,,,,,26,0,1,,,,0,99,81
503214,note_off,,,,,6,0,1,,,,0,95,64
503244,note_off,,,,,30,0,1,,,,0,99,64
503250,note_on,,,,,6,0,1,,,,0,95,73
503252,note_on,,,,,2,0,1,,,,0,87,79
503264,note_on,,,,,12,0,1,,,,0,57,94
503266,note_on,,,,,2,0,1,,,,0,45,91
503274,note_off,,,,,8,0,1,,,,0,87,64
503288,note_off,,,,,14,0,1,,,,0,45,64
503290,note_off,,,,,2,0,1,,,,0,57,64
503296,note_on,,,,,6,0,1,,,,0,99,86
503300,note_off,,,,,4,0,1,,,,0,95,64
503322,note_on,,,,,22,0,1,,,,0,57,111
503326,note_on,,,,,4,0,1,,,,0,95,87
503326,note_on,,,,,0,0,1,,,,0,45,105
503328,note_on,,,,,2,0,1,,,,0,87,96
503336,note_off,,,,,8,0,1,,,,0,99,64
503356,note_off,,,,,20,0,1,,,,0,87,64
503366,note_off,,,,,10,0,1,,,,0,57,64
503372,note_off,,,,,6,0,1,,,,0,45,64
503380,note_on,,,,,8,0,1,,,,0,99,76
503384,note_off,,,,,4,0,1,,,,0,95,64
503414,note_off,,,,,30,0,1,,,,0,99,64
503420,note_on,,,,,6,0,1,,,,0,95,77
503420,note_on,,,,,0,0,1,,,,0,87,77
503440,note_off,,,,,20,0,1,,,,0,87,64
503468,note_off,,,,,28,0,1,,,,0,95,64
503468,note_on,,,,,0,0,1,,,,0,99,80
503498,note_off,,,,,30,0,1,,,,0,99,64
503504,note_on,,,,,6,0,1,,,,0,95,78
503506,note_on,,,,,2,0,1,,,,0,51,89
503508,note_on,,,,,2,0,1,,,,0,87,76
503508,note_on,,,,,0,0,1,,,,0,39,86
503524,note_off,,,,,16,0,1,,,,0,87,64
503530,note_off,,,,,6,0,1,,,,0,51,64
503532,note_off,,,,,2,0,1,,,,0,39,64
503550,note_on,,,,,18,0,1,,,,0,99,87
503552,note_off,,,,,2,0,1,,,,0,95,64
503570,note_on,,,,,18,0,1,,,,0,51,100
503572,note_on,,,,,2,0,1,,,,0,39,92
503578,note_on,,,,,6,0,1,,,,0,95,88
503580,note_on,,,,,2,0,1,,,,0,87,95
503584,note_off,,,,,4,0,1,,,,0,99,64
503606,note_off,,,,,22,0,1,,,,0,87,64
503610,note_off,,,,,4,0,1,,,,0,51,64
503624,note_off,,,,,14,0,1,,,,0,39,64
503632,note_off,,,,,8,0,1,,,,0,95,64
503634,note_on,,,,,2,0,1,,,,0,99,69
503666,note_off,,,,,32,0,1,,,,0,99,64
503670,note_on,,,,,4,0,1,,,,0,87,68
503672,note_on,,,,,2,0,1,,,,0,95,77
503690,note_off,,,,,18,0,1,,,,0,87,64
503716,note_off,,,,,26,0,1,,,,0,95,64
503716,note_on,,,,,0,0,1,,,,0,99,77
503750,note_on,,,,,34,0,1,,,,0,87,76
503752,note_off,,,,,2,0,1,,,,0,99,64
503752,note_on,,,,,0,0,1,,,,0,95,75
503770,note_on,,,,,18,0,1,,,,0,45,81
503772,note_on,,,,,2,0,1,,,,0,33,85
503774,note_off,,,,,2,0,1,,,,0,87,64
503796,note_off,,,,,0,0,1,,,,0,45,64
503796,note_on,,,,,0,0,1,,,,0,99,83
503796,note_off,,,,,22,0,1,,,,0,33,64
503802,note_off,,,,,6,0,1,,,,0,95,64
503826,note_off,,,,,24,0,1,,,,0,99,64
503834,note_on,,,,,8,0,1,,,,0,95,90
503836,note_on,,,,,2,0,1,,,,0,87,96
503836,note_on,,,,,0,0,1,,,,0,45,105
503840,note_on,,,,,4,0,1,,,,0,33,102
503864,note_off,,,,,24,0,1,,,,0,87,64
503880,note_on,,,,,16,0,1,,,,0,99,86
503888,note_off,,,,,8,0,1,,,,0,95,64
503896,note_off,,,,,8,0,1,,,,0,33,64
503898,note_off,,,,,2,0,1,,,,0,45,64
503916,note_off,,,,,18,0,1,,,,0,99,64
503932,note_on,,,,,16,0,1,,,,0,95,77
503934,note_on,,,,,2,0,1,,,,0,87,71
503954,note_off,,,,,20,0,1,,,,0,87,64
503972,note_on,,,,,18,0,1,,,,0,99,78
503976,note_off,,,,,4,0,1,,,,0,95,64
504002,note_off,,,,,26,0,1,,,,0,99,64
504018,note_on,,,,,16,0,1,,,,0,95,81
504020,note_on,,,,,2,0,1,,,,0,87,71
504036,note_off,,,,,16,0,1,,,,0,87,64
504060,note_on,,,,,24,0,1,,,,0,99,84
504064,note_off,,,,,4,0,1,,,,0,95,64
504098,note_off,,,,,34,0,1,,,,0,99,64
504108,note_on,,,,,10,0,1,,,,0,87,102
504110,note_on,,,,,2,0,1,,,,0,95,95
504112,note_on,,,,,2,0,1,,,,0,30,88
504114,note_on,,,,,2,0,1,,,,0,42,75
504120,note_on,,,,,0,0,1,,,,0,33,91
504120,note_on,,,,,6,0,1,,,,0,39,82
504136,note_off,,,,,16,0,1,,,,0,87,64
504150,note_on,,,,,14,0,1,,,,0,99,89
504160,control_change,,,,,10,0,1,,64,0,0,,
504162,note_off,,,,,2,0,1,,,,0,95,64
504186,control_change,,,,,24,0,1,,64,127,0,,
504202,note_on,,,,,16,0,1,,,,0,87,84
504204,note_on,,,,,2,0,1,,,,0,95,88
504208,note_off,,,,,4,0,1,,,,0,99,64
504228,note_off,,,,,20,0,1,,,,0,87,64
504230,note_off,,,,,2,0,1,,,,0,33,64
504230,note_off,,,,,0,0,1,,,,0,39,64
504248,note_off,,,,,0,0,1,,,,0,30,64
504248,note_off,,,,,18,0,1,,,,0,42,64
504254,note_on,,,,,6,0,1,,,,0,99,78
504256,note_off,,,,,2,0,1,,,,0,95,64
504296,note_on,,,,,40,0,1,,,,0,87,79
504300,note_on,,,,,0,0,1,,,,0,95,74
504300,note_off,,,,,4,0,1,,,,0,99,64
504326,note_off,,,,,26,0,1,,,,0,87,64
504344,note_on,,,,,18,0,1,,,,0,99,81
504356,note_off,,,,,12,0,1,,,,0,95,64
504376,note_off,,,,,20,0,1,,,,0,99,64
504412,note_on,,,,,0,0,1,,,,0,88,91
504412,note_on,,,,,36,0,1,,,,0,96,94
504414,note_on,,,,,2,0,1,,,,0,40,91
504414,note_on,,,,,0,0,1,,,,0,36,88
504416,note_on,,,,,2,0,1,,,,0,31,90
504416,note_on,,,,,0,0,1,,,,0,28,91
504452,control_change,,,,,36,0,1,,64,0,0,,
504466,note_off,,,,,14,0,1,,,,0,88,64
504480,note_on,,,,,14,0,1,,,,0,100,78
504492,note_off,,,,,12,0,1,,,,0,96,64
504504,control_change,,,,,12,0,1,,64,127,0,,
504516,note_off,,,,,12,0,1,,,,0,28,64
504528,note_off,,,,,12,0,1,,,,0,31,64
504528,note_on,,,,,0,0,1,,,,0,96,74
504532,note_on,,,,,4,0,1,,,,0,88,74
504534,note_off,,,,,0,0,1,,,,0,36,64
504534,note_off,,,,,2,0,1,,,,0,100,64
504542,note_off,,,,,8,0,1,,,,0,40,64
504558,note_off,,,,,16,0,1,,,,0,88,64
504582,note_on,,,,,24,0,1,,,,0,100,84
504586,note_off,,,,,4,0,1,,,,0,96,64
504630,note_off,,,,,44,0,1,,,,0,100,64
504636,note_on,,,,,0,0,1,,,,0,88,74
504636,note_on,,,,,6,0,1,,,,0,96,77
504660,note_on,,,,,24,0,1,,,,0,70,93
504664,note_on,,,,,4,0,1,,,,0,58,77
504670,note_off,,,,,6,0,1,,,,0,88,64
504688,note_off,,,,,18,0,1,,,,0,58,64
504688,note_off,,,,,0,0,1,,,,0,70,64
504698,note_on,,,,,10,0,1,,,,0,100,82
504702,note_off,,,,,4,0,1,,,,0,96,64
504712,note_on,,,,,10,0,1,,,,0,70,102
504716,note_on,,,,,4,0,1,,,,0,58,84
504748,note_on,,,,,32,0,1,,,,0,96,87
504754,note_on,,,,,6,0,1,,,,0,88,90
504758,note_off,,,,,4,0,1,,,,0,100,64
504784,note_off,,,,,26,0,1,,,,0,88,64
504810,note_on,,,,,26,0,1,,,,0,100,75
504812,note_off,,,,,2,0,1,,,,0,96,64
504848,note_on,,,,,36,0,1,,,,0,96,75
504850,note_on,,,,,2,0,1,,,,0,88,71
504852,note_off,,,,,2,0,1,,,,0,100,64
504868,note_off,,,,,16,0,1,,,,0,88,64
504882,note_off,,,,,14,0,1,,,,0,96,64
504896,note_on,,,,,14,0,1,,,,0,100,62
504920,note_off,,,,,24,0,1,,,,0,100,64
504928,note_on,,,,,8,0,1,,,,0,96,90
504930,note_on,,,,,2,0,1,,,,0,88,80
504954,note_off,,,,,24,0,1,,,,0,88,64
504962,note_off,,,,,8,0,1,,,,0,96,64
504976,note_on,,,,,14,0,1,,,,0,100,79
504990,note_off,,,,,14,0,1,,,,0,100,64
504996,note_off,,,,,6,0,1,,,,0,70,64
505006,note_on,,,,,10,0,1,,,,0,96,95
505008,note_on,,,,,2,0,1,,,,0,88,90
505030,note_off,,,,,22,0,1,,,,0,58,64
505040,note_off,,,,,10,0,1,,,,0,88,64
505054,note_on,,,,,14,0,1,,,,0,100,87
505058,note_off,,,,,4,0,1,,,,0,96,64
505090,note_off,,,,,32,0,1,,,,0,100,64
505094,note_on,,,,,4,0,1,,,,0,96,77
505098,note_on,,,,,4,0,1,,,,0,88,74
505120,note_off,,,,,22,0,1,,,,0,88,64
505142,note_off,,,,,22,0,1,,,,0,96,64
505142,note_on,,,,,0,0,1,,,,0,100,83
505172,note_off,,,,,30,0,1,,,,0,100,64
505178,note_on,,,,,6,0,1,,,,0,96,71
505180,note_on,,,,,2,0,1,,,,0,88,76
505204,note_off,,,,,24,0,1,,,,0,88,64
505222,note_on,,,,,18,0,1,,,,0,100,84
505224,note_on,,,,,2,0,1,,,,0,64,74
505228,note_off,,,,,4,0,1,,,,0,96,64
505228,note_on,,,,,0,0,1,,,,0,52,80
505252,note_off,,,,,24,0,1,,,,0,64,64
505256,note_off,,,,,0,0,1,,,,0,100,64
505256,note_off,,,,,4,0,1,,,,0,52,64
505266,note_on,,,,,10,0,1,,,,0,96,84
505268,note_on,,,,,2,0,1,,,,0,88,84
505282,note_on,,,,,14,0,1,,,,0,64,100
505284,note_on,,,,,2,0,1,,,,0,52,92
505296,note_off,,,,,12,0,1,,,,0,88,64
505310,note_on,,,,,14,0,1,,,,0,100,85
505320,note_off,,,,,10,0,1,,,,0,96,64
505336,note_off,,,,,16,0,1,,,,0,64,64
505346,note_off,,,,,10,0,1,,,,0,100,64
505354,note_off,,,,,8,0,1,,,,0,52,64
505362,note_on,,,,,8,0,1,,,,0,88,72
505364,note_on,,,,,2,0,1,,,,0,96,71
505388,note_off,,,,,24,0,1,,,,0,88,64
505408,note_on,,,,,20,0,1,,,,0,100,78
505418,note_off,,,,,10,0,1,,,,0,96,64
505446,note_off,,,,,28,0,1,,,,0,100,64
505458,note_on,,,,,12,0,1,,,,0,96,77
505460,note_on,,,,,2,0,1,,,,0,88,76
505470,note_on,,,,,10,0,1,,,,0,58,93
505476,note_on,,,,,6,0,1,,,,0,46,88
505484,note_off,,,,,8,0,1,,,,0,88,64
505498,note_off,,,,,14,0,1,,,,0,58,64
505500,note_off,,,,,2,0,1,,,,0,46,64
505502,note_on,,,,,2,0,1,,,,0,100,90
505508,note_off,,,,,6,0,1,,,,0,96,64
505526,note_on,,,,,18,0,1,,,,0,58,98
505528,note_on,,,,,2,0,1,,,,0,46,103
505544,note_on,,,,,0,0,1,,,,0,88,86
505544,note_on,,,,,16,0,1,,,,0,96,84
505548,note_off,,,,,4,0,1,,,,0,100,64
505570,note_off,,,,,22,0,1,,,,0,58,64
505572,note_off,,,,,2,0,1,,,,0,88,64
505582,note_off,,,,,10,0,1,,,,0,46,64
505592,note_on,,,,,10,0,1,,,,0,100,81
505598,note_off,,,,,6,0,1,,,,0,96,64
505626,note_off,,,,,28,0,1,,,,0,100,64
505636,note_on,,,,,10,0,1,,,,0,96,74
505642,note_on,,,,,6,0,1,,,,0,88,69
505666,note_off,,,,,24,0,1,,,,0,88,64
505686,note_on,,,,,20,0,1,,,,0,100,83
505692,note_off,,,,,6,0,1,,,,0,96,64
505718,note_off,,,,,26,0,1,,,,0,100,64
505728,note_on,,,,,10,0,1,,,,0,96,81
505728,note_on,,,,,0,0,1,,,,0,88,80
505738,note_on,,,,,10,0,1,,,,0,52,93
505740,note_on,,,,,2,0,1,,,,0,40,87
505754,note_off,,,,,14,0,1,,,,0,88,64
505766,note_off,,,,,12,0,1,,,,0,40,64
505770,note_off,,,,,4,0,1,,,,0,52,64
505772,note_on,,,,,2,0,1,,,,0,100,83
505776,note_off,,,,,4,0,1,,,,0,96,64
505796,note_on,,,,,20,0,1,,,,0,52,100
505800,control_change,,,,,4,0,1,,64,0,0,,
505802,note_on,,,,,2,0,1,,,,0,40,97
505806,note_on,,,,,4,0,1,,,,0,96,87
505808,control_change,,,,,0,0,1,,64,127,0,,
505808,note_on,,,,,2,0,1,,,,0,88,90
505818,note_off,,,,,10,0,1,,,,0,100,64
505836,note_off,,,,,18,0,1,,,,0,88,64
505850,note_off,,,,,14,0,1,,,,0,40,64
505852,note_off,,,,,2,0,1,,,,0,52,64
505858,note_on,,,,,6,0,1,,,,0,100,76
505860,note_off,,,,,2,0,1,,,,0,96,64
505890,note_off,,,,,30,0,1,,,,0,100,64
505904,note_on,,,,,0,0,1,,,,0,88,74
505904,note_on,,,,,14,0,1,,,,0,96,74
505930,note_off,,,,,26,0,1,,,,0,88,64
505950,note_on,,,,,20,0,1,,,,0,100,70
505954,note_off,,,,,4,0,1,,,,0,96,64
505982,note_off,,,,,28,0,1,,,,0,100,64
505988,note_on,,,,,0,0,1,,,,0,34,92
505988,note_on,,,,,6,0,1,,,,0,46,84
505992,note_on,,,,,4,0,1,,,,0,96,80
505994,note_on,,,,,2,0,1,,,,0,88,77
506010,note_off,,,,,16,0,1,,,,0,46,64
506012,note_off,,,,,2,0,1,,,,0,34,64
506018,note_off,,,,,6,0,1,,,,0,88,64
506034,note_off,,,,,16,0,1,,,,0,96,64
506038,note_on,,,,,4,0,1,,,,0,100,82
506052,note_on,,,,,14,0,1,,,,0,46,110
506054,note_on,,,,,2,0,1,,,,0,34,98
506066,control_change,,,,,12,0,1,,64,0,0,,
506068,note_on,,,,,2,0,1,,,,0,96,85
506068,note_on,,,,,0,0,1,,,,0,88,87
506076,note_off,,,,,8,0,1,,,,0,100,64
506092,control_change,,,,,16,0,1,,64,127,0,,
506100,note_off,,,,,8,0,1,,,,0,88,64
506108,note_off,,,,,8,0,1,,,,0,46,64
506114,note_off,,,,,6,0,1,,,,0,34,64
506118,note_on,,,,,4,0,1,,,,0,100,75
506120,note_off,,,,,2,0,1,,,,0,96,64
506146,note_off,,,,,26,0,1,,,,0,100,64
506164,note_on,,,,,18,0,1,,,,0,96,77
506164,note_on,,,,,0,0,1,,,,0,88,77
506190,note_off,,,,,26,0,1,,,,0,88,64
506208,note_off,,,,,18,0,1,,,,0,96,64
506208,note_on,,,,,0,0,1,,,,0,100,74
506240,note_off,,,,,32,0,1,,,,0,100,64
506254,note_on,,,,,0,0,1,,,,0,88,74
506254,note_on,,,,,14,0,1,,,,0,96,82
506278,note_off,,,,,24,0,1,,,,0,88,64
506300,note_on,,,,,22,0,1,,,,0,100,77
506304,note_off,,,,,4,0,1,,,,0,96,64
506338,note_on,,,,,34,0,1,,,,0,31,88
506340,note_on,,,,,2,0,1,,,,0,40,87
506340,note_on,,,,,0,0,1,,,,0,36,84
506344,note_on,,,,,4,0,1,,,,0,28,84
506348,note_on,,,,,0,0,1,,,,0,96,98
506348,note_off,,,,,4,0,1,,,,0,100,64
506350,note_on,,,,,2,0,1,,,,0,88,93
506352,control_change,,,,,2,0,1,,64,0,0,,
506382,control_change,,,,,30,0,1,,64,127,0,,
506384,note_off,,,,,2,0,1,,,,0,88,64
506396,note_off,,,,,12,0,1,,,,0,28,64
506398,note_on,,,,,2,0,1,,,,0,100,86
506410,note_off,,,,,12,0,1,,,,0,96,64
506412,note_off,,,,,2,0,1,,,,0,40,64
506424,note_off,,,,,12,0,1,,,,0,36,64
506428,note_off,,,,,4,0,1,,,,0,31,64
506436,note_off,,,,,8,0,1,,,,0,100,64
506454,note_on,,,,,0,0,1,,,,0,88,80
506454,note_on,,,,,18,0,1,,,,0,96,82
506488,note_off,,,,,34,0,1,,,,0,88,64
506500,note_on,,,,,12,0,1,,,,0,100,79
506514,note_off,,,,,14,0,1,,,,0,96,64
506534,note_off,,,,,20,0,1,,,,0,100,64
506554,note_on,,,,,20,0,1,,,,0,88,80
506562,note_on,,,,,8,0,1,,,,0,96,71
506592,note_off,,,,,30,0,1,,,,0,88,64
506594,note_on,,,,,2,0,1,,,,0,100,91
506610,note_off,,,,,16,0,1,,,,0,96,64
506624,note_off,,,,,14,0,1,,,,0,100,64
506730,note_on,,,,,106,0,1,,,,0,89,92
506732,note_on,,,,,0,0,1,,,,0,26,97
506732,note_on,,,,,2,0,1,,,,0,35,81
506732,note_on,,,,,0,0,1,,,,0,32,90
506736,note_on,,,,,4,0,1,,,,0,101,94
506736,note_on,,,,,0,0,1,,,,0,95,94
506738,note_on,,,,,0,0,1,,,,0,29,85
506738,note_on,,,,,2,0,1,,,,0,92,96
506742,note_on,,,,,4,0,1,,,,0,38,81
506758,control_change,,,,,16,0,1,,64,0,0,,
506856,control_change,,,,,98,0,1,,64,127,0,,
506916,note_off,,,,,60,0,1,,,,0,26,64
506918,note_off,,,,,2,0,1,,,,0,89,64
506928,note_off,,,,,10,0,1,,,,0,29,64
506928,note_off,,,,,0,0,1,,,,0,38,64
506936,note_off,,,,,8,0,1,,,,0,32,64
506936,note_off,,,,,0,0,1,,,,0,92,64
506940,note_off,,,,,0,0,1,,,,0,101,64
506940,note_off,,,,,0,0,1,,,,0,95,64
506940,note_off,,,,,4,0,1,,,,0,35,64
507200,set_tempo,,,,,4640,1,0,402685,,,,,
507204,set_tempo,,,,,4,1,0,400000,,,,,
507208,set_tempo,,,,,4,1,0,397351,,,,,
507212,set_tempo,,,,,4,1,0,394737,,,,,
507216,set_tempo,,,,,4,1,0,392157,,,,,
507246,note_on,,,,,306,0,1,,,,0,86,75
507246,note_on,,,,,0,0,1,,,,0,74,77
507252,note_on,,,,,6,0,1,,,,0,62,78
507272,note_off,,,,,0,0,1,,,,0,86,64
507272,note_off,,,,,20,0,1,,,,0,74,64
507276,note_off,,,,,4,0,1,,,,0,62,64
507298,control_change,,,,,22,0,1,,64,127,0,,
507300,note_on,,,,,2,0,1,,,,0,62,98
507302,note_on,,,,,2,0,1,,,,0,86,86
507304,note_on,,,,,2,0,1,,,,0,74,87
507344,note_off,,,,,40,0,1,,,,0,62,64
507352,note_off,,,,,8,0,1,,,,0,74,64
507352,note_off,,,,,0,0,1,,,,0,86,64
507538,note_on,,,,,186,0,1,,,,0,68,81
507540,note_on,,,,,2,0,1,,,,0,80,81
507540,note_on,,,,,0,0,1,,,,0,56,89
507560,note_off,,,,,20,0,1,,,,0,68,64
507564,note_off,,,,,0,0,1,,,,0,80,64
507564,note_off,,,,,4,0,1,,,,0,56,64
507592,note_on,,,,,0,0,1,,,,0,56,91
507592,note_on,,,,,28,0,1,,,,0,68,87
507594,note_on,,,,,2,0,1,,,,0,80,86
507626,note_off,,,,,32,0,1,,,,0,56,64
507632,note_off,,,,,6,0,1,,,,0,68,64
507638,note_off,,,,,6,0,1,,,,0,80,64
507812,note_on,,,,,174,0,1,,,,0,62,75
507816,note_on,,,,,4,0,1,,,,0,74,72
507816,note_on,,,,,0,0,1,,,,0,50,85
507836,note_off,,,,,20,0,1,,,,0,62,64
507842,note_off,,,,,6,0,1,,,,0,50,64
507844,note_off,,,,,2,0,1,,,,0,74,64
507876,note_on,,,,,32,0,1,,,,0,50,100
507880,note_on,,,,,4,0,1,,,,0,62,92
507882,note_on,,,,,2,0,1,,,,0,74,86
507888,control_change,,,,,6,0,1,,64,0,0,,
507910,control_change,,,,,22,0,1,,64,127,0,,
507914,note_off,,,,,4,0,1,,,,0,74,64
507924,note_off,,,,,0,0,1,,,,0,50,64
507924,note_off,,,,,10,0,1,,,,0,62,64
508096,note_on,,,,,172,0,1,,,,0,44,86
508100,note_on,,,,,0,0,1,,,,0,56,86
508100,note_on,,,,,4,0,1,,,,0,68,84
508126,note_off,,,,,26,0,1,,,,0,56,64
508130,note_off,,,,,4,0,1,,,,0,44,64
508132,note_off,,,,,2,0,1,,,,0,68,64
508162,note_on,,,,,30,0,1,,,,0,44,95
508164,control_change,,,,,2,0,1,,64,0,0,,
508168,note_on,,,,,4,0,1,,,,0,68,86
508168,note_on,,,,,0,0,1,,,,0,56,100
508188,control_change,,,,,20,0,1,,64,127,0,,
508212,note_off,,,,,24,0,1,,,,0,44,64
508236,note_off,,,,,24,0,1,,,,0,68,64
508244,note_off,,,,,8,0,1,,,,0,56,64
508410,note_on,,,,,0,0,1,,,,0,50,86
508410,note_on,,,,,166,0,1,,,,0,62,87
508412,note_on,,,,,2,0,1,,,,0,38,87
508438,note_off,,,,,26,0,1,,,,0,50,64
508440,note_off,,,,,2,0,1,,,,0,38,64
508448,note_off,,,,,8,0,1,,,,0,62,64
508464,control_change,,,,,16,0,1,,64,0,0,,
508478,note_on,,,,,14,0,1,,,,0,50,90
508480,note_on,,,,,2,0,1,,,,0,38,87
508484,note_on,,,,,4,0,1,,,,0,62,85
508532,note_off,,,,,48,0,1,,,,0,50,64
508532,control_change,,,,,0,0,1,,64,127,0,,
508546,note_off,,,,,14,0,1,,,,0,38,64
508714,note_on,,,,,168,0,1,,,,0,32,90
508716,note_on,,,,,2,0,1,,,,0,44,91
508720,note_on,,,,,4,0,1,,,,0,56,96
508746,note_off,,,,,26,0,1,,,,0,32,64
508748,note_off,,,,,2,0,1,,,,0,44,64
508754,note_off,,,,,6,0,1,,,,0,56,64
508790,control_change,,,,,36,0,1,,64,0,0,,
508792,note_on,,,,,0,0,1,,,,0,32,100
508792,note_on,,,,,2,0,1,,,,0,44,103
508794,note_on,,,,,2,0,1,,,,0,56,100
508846,note_off,,,,,52,0,1,,,,0,56,64
508848,note_off,,,,,2,0,1,,,,0,32,64
508858,control_change,,,,,10,0,1,,64,127,0,,
508862,note_off,,,,,4,0,1,,,,0,44,64
508864,note_off,,,,,2,0,1,,,,0,62,64
509164,note_on,,,,,300,0,1,,,,0,56,86
509168,note_on,,,,,4,0,1,,,,0,71,88
509170,note_on,,,,,2,0,1,,,,0,95,93
509172,note_on,,,,,2,0,1,,,,0,89,90
509172,note_on,,,,,0,0,1,,,,0,86,93
509176,note_on,,,,,4,0,1,,,,0,65,84
509176,note_on,,,,,0,0,1,,,,0,62,79
509184,note_on,,,,,8,0,1,,,,0,83,91
509206,control_change,,,,,22,0,1,,64,0,0,,
509522,control_change,,,,,316,0,1,,64,127,0,,
509632,note_off,,,,,110,0,1,,,,0,71,64
509654,note_off,,,,,22,0,1,,,,0,65,64
509658,note_off,,,,,4,0,1,,,,0,83,64
509660,note_off,,,,,2,0,1,,,,0,95,64
509662,note_off,,,,,2,0,1,,,,0,86,64
509666,note_off,,,,,4,0,1,,,,0,62,64
509674,note_off,,,,,8,0,1,,,,0,56,64
509676,note_off,,,,,2,0,1,,,,0,89,64
509756,set_tempo,,,,,2540,1,0,405405,,,,,
509784,set_tempo,,,,,28,1,0,402685,,,,,
509808,set_tempo,,,,,24,1,0,400000,,,,,
509832,set_tempo,,,,,24,1,0,397351,,,,,
509856,set_tempo,,,,,24,1,0,394737,,,,,
509880,set_tempo,,,,,24,1,0,392157,,,,,
509890,note_on,,,,,214,0,1,,,,0,56,84
509896,note_on,,,,,0,0,1,,,,0,83,91
509896,note_on,,,,,0,0,1,,,,0,62,82
509896,note_on,,,,,6,0,1,,,,0,89,88
509898,note_on,,,,,2,0,1,,,,0,65,84
509900,note_on,,,,,2,0,1,,,,0,95,88
509902,note_on,,,,,2,0,1,,,,0,86,91
509908,control_change,,,,,6,0,1,,64,0,0,,
509928,set_tempo,,,,,48,1,0,389610,,,,,
509952,set_tempo,,,,,24,1,0,387097,,,,,
509954,note_off,,,,,46,0,1,,,,0,83,64
509956,control_change,,,,,2,0,1,,64,127,0,,
509958,note_off,,,,,2,0,1,,,,0,56,64
509962,note_off,,,,,4,0,1,,,,0,86,64
509966,note_off,,,,,4,0,1,,,,0,65,64
509968,note_off,,,,,2,0,1,,,,0,62,64
509970,note_off,,,,,0,0,1,,,,0,89,64
509970,note_off,,,,,2,0,1,,,,0,95,64
509976,set_tempo,,,,,24,1,0,384615,,,,,
510004,set_tempo,,,,,28,1,0,379747,,,,,
510028,set_tempo,,,,,24,1,0,377358,,,,,
510052,set_tempo,,,,,24,1,0,375000,,,,,
510076,set_tempo,,,,,24,1,0,372671,,,,,
510100,set_tempo,,,,,24,1,0,370370,,,,,
510106,note_on,,,,,136,0,1,,,,0,90,83
510108,note_on,,,,,0,0,1,,,,0,87,87
510108,note_on,,,,,2,0,1,,,,0,95,79
510110,note_on,,,,,2,0,1,,,,0,83,82
510110,note_on,,,,,0,0,1,,,,0,63,79
510112,note_on,,,,,2,0,1,,,,0,57,79
510114,note_on,,,,,2,0,1,,,,0,66,83
510122,control_change,,,,,8,0,1,,64,0,0,,
510148,set_tempo,,,,,48,1,0,368098,,,,,
510162,control_change,,,,,40,0,1,,64,127,0,,
510172,set_tempo,,,,,24,1,0,365854,,,,,
510176,note_off,,,,,14,0,1,,,,0,57,64
510178,note_off,,,,,2,0,1,,,,0,83,64
510184,note_off,,,,,6,0,1,,,,0,87,64
510188,note_off,,,,,4,0,1,,,,0,63,64
510192,note_off,,,,,4,0,1,,,,0,95,64
510196,note_off,,,,,4,0,1,,,,0,90,64
510196,set_tempo,,,,,24,1,0,363636,,,,,
510198,note_off,,,,,2,0,1,,,,0,66,64
510220,set_tempo,,,,,24,1,0,361446,,,,,
510248,set_tempo,,,,,28,1,0,357143,,,,,
510270,note_on,,,,,72,0,1,,,,0,58,85
510272,note_on,,,,,2,0,1,,,,0,83,84
510272,set_tempo,,,,,24,1,0,355030,,,,,
510274,note_on,,,,,0,0,1,,,,0,91,82
510274,note_on,,,,,2,0,1,,,,0,95,85
510276,note_on,,,,,2,0,1,,,,0,67,76
510278,note_on,,,,,0,0,1,,,,0,64,75
510278,note_on,,,,,2,0,1,,,,0,88,82
510288,control_change,,,,,10,0,1,,64,0,0,,
510296,set_tempo,,,,,24,1,0,352941,,,,,
510312,control_change,,,,,24,0,1,,64,127,0,,
510320,set_tempo,,,,,24,1,0,350877,,,,,
510328,note_off,,,,,0,0,1,,,,0,58,64
510328,note_off,,,,,16,0,1,,,,0,83,64
510334,note_off,,,,,6,0,1,,,,0,88,64
510334,note_off,,,,,0,0,1,,,,0,67,64
510340,note_off,,,,,6,0,1,,,,0,64,64
510340,note_off,,,,,0,0,1,,,,0,95,64
510340,note_off,,,,,0,0,1,,,,0,91,64
510368,set_tempo,,,,,48,1,0,348837,,,,,
510392,set_tempo,,,,,24,1,0,346821,,,,,
510416,set_tempo,,,,,24,1,0,344828,,,,,
510432,note_on,,,,,92,0,1,,,,0,92,89
510434,note_on,,,,,2,0,1,,,,0,83,85
510436,note_on,,,,,0,0,1,,,,0,89,82
510436,note_on,,,,,2,0,1,,,,0,95,85
510438,note_on,,,,,2,0,1,,,,0,65,82
510440,set_tempo,,,,,24,1,0,342857,,,,,
510440,note_on,,,,,2,0,1,,,,0,68,89
510444,note_on,,,,,4,0,1,,,,0,59,72
510448,control_change,,,,,4,0,1,,64,0,0,,
510462,control_change,,,,,14,0,1,,64,127,0,,
510464,set_tempo,,,,,24,1,0,340909,,,,,
510492,set_tempo,,,,,28,1,0,337079,,,,,
510492,note_off,,,,,30,0,1,,,,0,59,64
510496,note_off,,,,,4,0,1,,,,0,65,64
510502,note_off,,,,,6,0,1,,,,0,83,64
510508,note_off,,,,,6,0,1,,,,0,89,64
510514,note_off,,,,,6,0,1,,,,0,95,64
510516,set_tempo,,,,,24,1,0,335196,,,,,
510518,note_off,,,,,4,0,1,,,,0,68,64
510524,note_off,,,,,6,0,1,,,,0,92,64
510540,set_tempo,,,,,24,1,0,333333,,,,,
510580,control_change,,,,,56,0,1,,64,0,0,,
510582,note_on,,,,,2,0,1,,,,0,93,85
510582,note_on,,,,,0,0,1,,,,0,90,81
510584,note_on,,,,,2,0,1,,,,0,95,86
510584,note_on,,,,,0,0,1,,,,0,83,87
510586,note_on,,,,,2,0,1,,,,0,66,84
510588,note_on,,,,,2,0,1,,,,0,69,85
510588,set_tempo,,,,,48,1,0,331492,,,,,
510590,note_on,,,,,2,0,1,,,,0,60,74
510608,control_change,,,,,18,0,1,,64,127,0,,
510612,set_tempo,,,,,24,1,0,329670,,,,,
510630,note_off,,,,,22,0,1,,,,0,69,64
510636,set_tempo,,,,,24,1,0,327869,,,,,
510640,note_off,,,,,10,0,1,,,,0,60,64
510646,note_off,,,,,6,0,1,,,,0,83,64
510650,note_off,,,,,4,0,1,,,,0,90,64
510652,note_off,,,,,2,0,1,,,,0,66,64
510660,set_tempo,,,,,24,1,0,326087,,,,,
510662,note_off,,,,,10,0,1,,,,0,95,64
510664,note_off,,,,,2,0,1,,,,0,93,64
510684,set_tempo,,,,,24,1,0,324324,,,,,
510708,set_tempo,,,,,24,1,0,322581,,,,,
510728,note_on,,,,,64,0,1,,,,0,92,87
510732,note_on,,,,,4,0,1,,,,0,95,82
510732,note_on,,,,,0,0,1,,,,0,83,77
510734,note_on,,,,,0,0,1,,,,0,68,89
510734,note_on,,,,,2,0,1,,,,0,89,82
510736,set_tempo,,,,,28,1,0,319149,,,,,
510738,control_change,,,,,4,0,1,,64,0,0,,
510740,note_on,,,,,2,0,1,,,,0,59,71
510742,note_on,,,,,2,0,1,,,,0,65,77
510754,control_change,,,,,12,0,1,,64,127,0,,
510760,set_tempo,,,,,24,1,0,317460,,,,,
510796,note_off,,,,,42,0,1,,,,0,59,64
510798,note_off,,,,,0,0,1,,,,0,83,64
510798,note_off,,,,,2,0,1,,,,0,65,64
510808,note_off,,,,,10,0,1,,,,0,89,64
510808,set_tempo,,,,,48,1,0,315789,,,,,
510808,note_off,,,,,0,0,1,,,,0,92,64
510808,note_off,,,,,0,0,1,,,,0,95,64
510820,note_off,,,,,12,0,1,,,,0,68,64
510832,set_tempo,,,,,24,1,0,314136,,,,,
510856,set_tempo,,,,,24,1,0,312500,,,,,
510880,control_change,,,,,60,0,1,,64,0,0,,
510880,set_tempo,,,,,24,1,0,310881,,,,,
510882,note_on,,,,,2,0,1,,,,0,58,85
510884,note_on,,,,,2,0,1,,,,0,83,86
510884,note_on,,,,,0,0,1,,,,0,67,80
510886,note_on,,,,,0,0,1,,,,0,88,86
510886,note_on,,,,,2,0,1,,,,0,95,82
510888,note_on,,,,,2,0,1,,,,0,64,82
510890,note_on,,,,,2,0,1,,,,0,91,86
510904,set_tempo,,,,,24,1,0,309278,,,,,
510912,control_change,,,,,22,0,1,,64,127,0,,
510928,set_tempo,,,,,24,1,0,307692,,,,,
510934,note_off,,,,,22,0,1,,,,0,58,64
510936,note_off,,,,,2,0,1,,,,0,83,64
510940,note_off,,,,,4,0,1,,,,0,67,64
510944,note_off,,,,,4,0,1,,,,0,88,64
510948,note_off,,,,,0,0,1,,,,0,95,64
510948,note_off,,,,,4,0,1,,,,0,91,64
510952,note_off,,,,,4,0,1,,,,0,64,64
510952,set_tempo,,,,,24,1,0,306122,,,,,
510980,set_tempo,,,,,28,1,0,303030,,,,,
511028,set_tempo,,,,,48,1,0,301508,,,,,
511042,note_on,,,,,90,0,1,,,,0,66,92
511044,note_on,,,,,0,0,1,,,,0,63,84
511044,note_on,,,,,0,0,1,,,,0,87,89
511044,note_on,,,,,2,0,1,,,,0,90,85
511048,note_on,,,,,0,0,1,,,,0,57,79
511048,note_on,,,,,4,0,1,,,,0,83,83
511052,set_tempo,,,,,24,1,0,300000,,,,,
511052,note_on,,,,,4,0,1,,,,0,95,82
511058,control_change,,,,,6,0,1,,64,0,0,,
511062,note_on,,,,,4,0,1,,,,0,92,48
511076,set_tempo,,,,,24,1,0,298507,,,,,
511076,control_change,,,,,0,0,1,,64,127,0,,
511076,note_off,,,,,14,0,1,,,,0,92,64
511100,set_tempo,,,,,24,1,0,297030,,,,,
511100,note_off,,,,,24,0,1,,,,0,66,64
511102,note_off,,,,,2,0,1,,,,0,57,64
511112,note_off,,,,,0,0,1,,,,0,87,64
511112,note_off,,,,,10,0,1,,,,0,63,64
511114,note_off,,,,,2,0,1,,,,0,83,64
511114,note_off,,,,,0,0,1,,,,0,90,64
511116,note_off,,,,,2,0,1,,,,0,95,64
511124,set_tempo,,,,,24,1,0,295567,,,,,
511148,set_tempo,,,,,24,1,0,294118,,,,,
511172,set_tempo,,,,,24,1,0,292683,,,,,
511196,set_tempo,,,,,24,1,0,291262,,,,,
511208,note_on,,,,,92,0,1,,,,0,89,87
511208,note_on,,,,,0,0,1,,,,0,56,92
511210,note_on,,,,,2,0,1,,,,0,83,86
511210,note_on,,,,,0,0,1,,,,0,65,86
511212,note_on,,,,,0,0,1,,,,0,62,82
511212,note_on,,,,,2,0,1,,,,0,95,83
511216,note_on,,,,,4,0,1,,,,0,86,83
511224,set_tempo,,,,,28,1,0,289855,,,,,
511224,control_change,,,,,8,0,1,,64,0,0,,
511246,control_change,,,,,22,0,1,,64,127,0,,
511248,set_tempo,,,,,24,1,0,288462,,,,,
511250,note_off,,,,,4,0,1,,,,0,83,64
511260,note_off,,,,,10,0,1,,,,0,56,64
511264,note_off,,,,,4,0,1,,,,0,86,64
511266,note_off,,,,,2,0,1,,,,0,65,64
511268,note_off,,,,,2,0,1,,,,0,62,64
511272,note_off,,,,,4,0,1,,,,0,89,64
511272,set_tempo,,,,,24,1,0,287081,,,,,
511278,note_off,,,,,6,0,1,,,,0,95,64
511296,set_tempo,,,,,24,1,0,285714,,,,,
511320,set_tempo,,,,,24,1,0,284360,,,,,
511344,set_tempo,,,,,24,1,0,283019,,,,,
511368,set_tempo,,,,,24,1,0,281690,,,,,
511372,note_on,,,,,94,0,1,,,,0,66,91
511374,note_on,,,,,0,0,1,,,,0,63,81
511374,note_on,,,,,2,0,1,,,,0,87,92
511376,note_on,,,,,2,0,1,,,,0,83,83
511378,note_on,,,,,2,0,1,,,,0,95,90
511380,note_on,,,,,2,0,1,,,,0,57,82
511382,note_on,,,,,2,0,1,,,,0,90,89
511388,control_change,,,,,6,0,1,,64,0,0,,
511392,set_tempo,,,,,24,1,0,280374,,,,,
511408,control_change,,,,,20,0,1,,64,127,0,,
511416,set_tempo,,,,,24,1,0,279070,,,,,
511436,note_off,,,,,0,0,1,,,,0,63,64
511436,note_off,,,,,28,0,1,,,,0,57,64
511440,note_off,,,,,4,0,1,,,,0,83,64
511440,set_tempo,,,,,24,1,0,277778,,,,,
511442,note_off,,,,,2,0,1,,,,0,87,64
511452,note_off,,,,,0,0,1,,,,0,66,64
511452,note_off,,,,,10,0,1,,,,0,90,64
511452,note_off,,,,,0,0,1,,,,0,95,64
511468,set_tempo,,,,,28,1,0,279070,,,,,
511488,set_tempo,,,,,20,1,0,280374,,,,,
511512,set_tempo,,,,,24,1,0,281690,,,,,
511532,set_tempo,,,,,20,1,0,283019,,,,,
511540,note_on,,,,,88,0,1,,,,0,83,91
511540,note_on,,,,,0,0,1,,,,0,58,88
511542,note_on,,,,,2,0,1,,,,0,95,90
511544,note_on,,,,,0,0,1,,,,0,88,85
511544,note_on,,,,,0,0,1,,,,0,64,80
511544,note_on,,,,,2,0,1,,,,0,91,88
511548,note_on,,,,,4,0,1,,,,0,67,77
511556,control_change,,,,,8,0,1,,64,0,0,,
511556,set_tempo,,,,,24,1,0,284360,,,,,
511568,control_change,,,,,12,0,1,,64,127,0,,
511576,set_tempo,,,,,20,1,0,285714,,,,,
511588,note_off,,,,,20,0,1,,,,0,83,64
511596,set_tempo,,,,,20,1,0,287081,,,,,
511596,note_off,,,,,8,0,1,,,,0,88,64
511600,note_off,,,,,4,0,1,,,,0,67,64
511602,note_off,,,,,2,0,1,,,,0,64,64
511608,note_off,,,,,6,0,1,,,,0,95,64
511610,note_off,,,,,2,0,1,,,,0,91,64
511610,note_off,,,,,0,0,1,,,,0,58,64
511620,set_tempo,,,,,24,1,0,288462,,,,,
511640,set_tempo,,,,,20,1,0,289855,,,,,
511664,set_tempo,,,,,24,1,0,291262,,,,,
511684,set_tempo,,,,,20,1,0,292683,,,,,
511704,set_tempo,,,,,20,1,0,294118,,,,,
511708,set_tempo,,,,,4,1,0,292683,,,,,
511718,note_on,,,,,108,0,1,,,,0,92,87
511720,note_on,,,,,2,0,1,,,,0,95,81
511720,note_on,,,,,0,0,1,,,,0,59,82
511722,note_on,,,,,2,0,1,,,,0,89,80
511722,note_on,,,,,0,0,1,,,,0,83,88
511724,note_on,,,,,2,0,1,,,,0,68,92
511724,note_on,,,,,0,0,1,,,,0,65,86
511734,control_change,,,,,10,0,1,,64,0,0,,
511736,set_tempo,,,,,28,1,0,294118,,,,,
511750,control_change,,,,,16,0,1,,64,127,0,,
511764,set_tempo,,,,,28,1,0,295567,,,,,
511764,note_off,,,,,14,0,1,,,,0,83,64
511776,note_off,,,,,12,0,1,,,,0,59,64
511788,note_off,,,,,12,0,1,,,,0,65,64
511790,note_off,,,,,2,0,1,,,,0,95,64
511792,set_tempo,,,,,28,1,0,297030,,,,,
511798,note_off,,,,,8,0,1,,,,0,89,64
511800,note_off,,,,,2,0,1,,,,0,68,64
511812,note_off,,,,,12,0,1,,,,0,92,64
511820,set_tempo,,,,,28,1,0,298507,,,,,
511848,set_tempo,,,,,28,1,0,300000,,,,,
511876,set_tempo,,,,,28,1,0,301508,,,,,
511896,note_on,,,,,0,0,1,,,,0,90,88
511896,note_on,,,,,84,0,1,,,,0,93,92
511898,note_on,,,,,2,0,1,,,,0,83,94
511900,note_on,,,,,2,0,1,,,,0,69,90
511900,note_on,,,,,0,0,1,,,,0,60,85
511900,set_tempo,,,,,24,1,0,303030,,,,,
511902,note_on,,,,,2,0,1,,,,0,95,90
511904,note_on,,,,,2,0,1,,,,0,66,87
511912,control_change,,,,,8,0,1,,64,0,0,,
511926,control_change,,,,,14,0,1,,64,127,0,,
511952,note_off,,,,,26,0,1,,,,0,69,64
511956,set_tempo,,,,,56,1,0,306122,,,,,
511966,note_off,,,,,14,0,1,,,,0,83,64
511968,note_off,,,,,2,0,1,,,,0,60,64
511970,note_off,,,,,2,0,1,,,,0,95,64
511972,note_off,,,,,2,0,1,,,,0,90,64
511974,note_off,,,,,2,0,1,,,,0,66,64
511984,set_tempo,,,,,28,1,0,307692,,,,,
511988,note_off,,,,,14,0,1,,,,0,93,64
512012,set_tempo,,,,,28,1,0,309278,,,,,
512040,set_tempo,,,,,28,1,0,310881,,,,,
512068,set_tempo,,,,,28,1,0,312500,,,,,
512084,note_on,,,,,0,0,1,,,,0,68,93
512084,note_on,,,,,96,0,1,,,,0,89,86
512086,note_on,,,,,2,0,1,,,,0,65,83
512086,note_on,,,,,0,0,1,,,,0,59,82
512088,note_on,,,,,0,0,1,,,,0,83,91
512088,note_on,,,,,2,0,1,,,,0,95,86
512092,set_tempo,,,,,24,1,0,314136,,,,,
512092,control_change,,,,,4,0,1,,64,0,0,,
512094,note_on,,,,,2,0,1,,,,0,92,92
512118,control_change,,,,,24,0,1,,64,127,0,,
512120,set_tempo,,,,,28,1,0,315789,,,,,
512146,note_off,,,,,28,0,1,,,,0,83,64
512148,note_off,,,,,2,0,1,,,,0,65,64
512148,set_tempo,,,,,28,1,0,317460,,,,,
512152,note_off,,,,,0,0,1,,,,0,89,64
512152,note_off,,,,,4,0,1,,,,0,59,64
512152,note_off,,,,,0,0,1,,,,0,68,64
512156,note_off,,,,,4,0,1,,,,0,95,64
512160,note_off,,,,,4,0,1,,,,0,92,64
512204,set_tempo,,,,,56,1,0,319149,,,,,
512232,set_tempo,,,,,28,1,0,322581,,,,,
512260,set_tempo,,,,,28,1,0,324324,,,,,
512276,note_on,,,,,0,0,1,,,,0,58,89
512276,note_on,,,,,116,0,1,,,,0,91,88
512278,note_on,,,,,2,0,1,,,,0,83,90
512280,note_on,,,,,2,0,1,,,,0,67,87
512282,note_on,,,,,2,0,1,,,,0,95,86
512282,note_on,,,,,0,0,1,,,,0,64,88
512284,set_tempo,,,,,24,1,0,326087,,,,,
512286,note_on,,,,,4,0,1,,,,0,88,86
512288,control_change,,,,,2,0,1,,64,0,0,,
512308,control_change,,,,,20,0,1,,64,127,0,,
512312,set_tempo,,,,,28,1,0,327869,,,,,
512326,note_off,,,,,0,0,1,,,,0,58,64
512326,note_off,,,,,18,0,1,,,,0,67,64
512326,note_off,,,,,0,0,1,,,,0,83,64
512332,note_off,,,,,6,0,1,,,,0,64,64
512336,note_off,,,,,4,0,1,,,,0,88,64
512338,note_off,,,,,2,0,1,,,,0,95,64
512340,note_off,,,,,2,0,1,,,,0,91,64
512340,set_tempo,,,,,28,1,0,329670,,,,,
512368,set_tempo,,,,,28,1,0,331492,,,,,
512396,set_tempo,,,,,28,1,0,333333,,,,,
512452,set_tempo,,,,,56,1,0,335196,,,,,
512476,set_tempo,,,,,24,1,0,337079,,,,,
512516,note_on,,,,,176,0,1,,,,0,90,88
512518,note_on,,,,,0,0,1,,,,0,83,94
512518,note_on,,,,,2,0,1,,,,0,95,87
512520,note_on,,,,,2,0,1,,,,0,87,95
512520,note_on,,,,,0,0,1,,,,0,57,90
512522,note_on,,,,,2,0,1,,,,0,63,85
512524,note_on,,,,,2,0,1,,,,0,66,94
512552,control_change,,,,,28,0,1,,64,0,0,,
512672,control_change,,,,,120,0,1,,64,127,0,,
512700,note_off,,,,,28,0,1,,,,0,57,64
512708,note_off,,,,,8,0,1,,,,0,63,64
512708,note_off,,,,,0,0,1,,,,0,66,64
512708,note_off,,,,,0,0,1,,,,0,95,64
512716,note_off,,,,,8,0,1,,,,0,83,64
512720,note_off,,,,,4,0,1,,,,0,87,64
512726,note_off,,,,,6,0,1,,,,0,90,64
512860,control_change,,,,,134,0,1,,64,0,0,,
512958,note_on,,,,,98,0,1,,,,0,71,81
512960,note_on,,,,,0,0,1,,,,0,56,90
512960,note_on,,,,,2,0,1,,,,0,95,94
512962,note_on,,,,,0,0,1,,,,0,62,83
512962,note_on,,,,,2,0,1,,,,0,86,92
512964,note_on,,,,,2,0,1,,,,0,89,91
512966,note_on,,,,,2,0,1,,,,0,83,91
512972,note_on,,,,,6,0,1,,,,0,65,82
513160,control_change,,,,,188,0,1,,64,127,0,,
513300,note_off,,,,,140,0,1,,,,0,71,64
513318,note_off,,,,,18,0,1,,,,0,65,64
513328,note_off,,,,,10,0,1,,,,0,62,64
513344,note_off,,,,,16,0,1,,,,0,83,64
513350,note_off,,,,,6,0,1,,,,0,95,64
513352,note_off,,,,,2,0,1,,,,0,56,64
513354,note_off,,,,,2,0,1,,,,0,86,64
513366,note_off,,,,,12,0,1,,,,0,89,64
513594,control_change,,,,,228,0,1,,64,0,0,,
513702,note_on,,,,,108,0,1,,,,0,89,97
513702,note_on,,,,,0,0,1,,,,0,44,100
513704,note_on,,,,,2,0,1,,,,0,95,93
513704,note_on,,,,,0,0,1,,,,0,86,95
513706,note_on,,,,,2,0,1,,,,0,83,94
513708,note_on,,,,,2,0,1,,,,0,32,97
513744,control_change,,,,,36,0,1,,64,127,0,,
513828,note_off,,,,,0,0,1,,,,0,95,64
513828,note_off,,,,,84,0,1,,,,0,83,64
513834,note_off,,,,,0,0,1,,,,0,89,64
513834,note_off,,,,,6,0,1,,,,0,86,64
513838,note_off,,,,,4,0,1,,,,0,32,64
513846,note_off,,,,,8,0,1,,,,0,44,64
514002,control_change,,,,,156,0,1,,64,0,0,,
514070,note_on,,,,,68,0,1,,,,0,45,102
514072,note_on,,,,,0,0,1,,,,0,33,93
514072,note_on,,,,,2,0,1,,,,0,90,92
514074,note_on,,,,,2,0,1,,,,0,86,97
514076,note_on,,,,,2,0,1,,,,0,83,95
514078,note_on,,,,,2,0,1,,,,0,95,95
514106,control_change,,,,,28,0,1,,64,127,0,,
514154,note_off,,,,,48,0,1,,,,0,95,64
514158,note_off,,,,,4,0,1,,,,0,83,64
514172,note_off,,,,,14,0,1,,,,0,45,64
514178,note_off,,,,,6,0,1,,,,0,86,64
514188,note_off,,,,,10,0,1,,,,0,90,64
514190,note_off,,,,,2,0,1,,,,0,33,64
514320,set_tempo,,,,,1844,1,0,340909,,,,,
514328,set_tempo,,,,,8,1,0,337079,,,,,
514336,set_tempo,,,,,8,1,0,335196,,,,,
514344,set_tempo,,,,,8,1,0,333333,,,,,
514356,note_on,,,,,166,0,1,,,,0,86,93
514356,note_on,,,,,0,0,1,,,,0,70,97
514358,note_on,,,,,2,0,1,,,,0,82,92
514360,set_tempo,,,,,16,1,0,331492,,,,,
514360,note_on,,,,,2,0,1,,,,0,65,84
514362,note_on,,,,,2,0,1,,,,0,62,82
514368,set_tempo,,,,,8,1,0,329670,,,,,
514376,set_tempo,,,,,8,1,0,327869,,,,,
514384,set_tempo,,,,,8,1,0,326087,,,,,
514392,set_tempo,,,,,8,1,0,324324,,,,,
514400,set_tempo,,,,,8,1,0,322581,,,,,
514404,set_tempo,,,,,4,1,0,319149,,,,,
514412,set_tempo,,,,,8,1,0,317460,,,,,
514428,set_tempo,,,,,16,1,0,315789,,,,,
514436,set_tempo,,,,,8,1,0,314136,,,,,
514444,set_tempo,,,,,8,1,0,312500,,,,,
514452,set_tempo,,,,,8,1,0,310881,,,,,
514456,note_on,,,,,94,0,1,,,,0,94,92
514460,set_tempo,,,,,8,1,0,309278,,,,,
514464,note_off,,,,,8,0,1,,,,0,82,64
514468,set_tempo,,,,,8,1,0,307692,,,,,
514476,set_tempo,,,,,8,1,0,306122,,,,,
514476,note_off,,,,,12,0,1,,,,0,86,64
514480,set_tempo,,,,,4,1,0,303030,,,,,
514494,note_off,,,,,18,0,1,,,,0,62,64
514496,set_tempo,,,,,16,1,0,301508,,,,,
514498,note_off,,,,,4,0,1,,,,0,65,64
514502,note_off,,,,,4,0,1,,,,0,70,64
514504,set_tempo,,,,,8,1,0,300000,,,,,
514512,set_tempo,,,,,8,1,0,298507,,,,,
514520,set_tempo,,,,,8,1,0,297030,,,,,
514528,set_tempo,,,,,8,1,0,295567,,,,,
514536,set_tempo,,,,,8,1,0,294118,,,,,
514544,set_tempo,,,,,8,1,0,292683,,,,,
514552,note_on,,,,,50,0,1,,,,0,82,81
514552,set_tempo,,,,,8,1,0,291262,,,,,
514558,note_on,,,,,6,0,1,,,,0,86,82
514566,note_off,,,,,8,0,1,,,,0,94,64
514600,set_tempo,,,,,48,1,0,289855,,,,,
514604,note_off,,,,,38,0,1,,,,0,82,64
514624,note_off,,,,,20,0,1,,,,0,86,64
514652,note_on,,,,,28,0,1,,,,0,94,86
514714,note_off,,,,,62,0,1,,,,0,94,64
514734,note_on,,,,,20,0,1,,,,0,69,91
514736,note_on,,,,,2,0,1,,,,0,62,85
514738,note_on,,,,,0,0,1,,,,0,57,86
514738,note_on,,,,,2,0,1,,,,0,86,85
514740,note_on,,,,,2,0,1,,,,0,81,90
514822,note_off,,,,,82,0,1,,,,0,81,64
514832,note_on,,,,,10,0,1,,,,0,93,84
514848,note_off,,,,,16,0,1,,,,0,86,64
514912,note_off,,,,,64,0,1,,,,0,57,64
514918,note_on,,,,,6,0,1,,,,0,86,82
514920,note_on,,,,,0,0,1,,,,0,81,80
514920,note_off,,,,,2,0,1,,,,0,69,64
514926,note_off,,,,,6,0,1,,,,0,93,64
514936,note_off,,,,,10,0,1,,,,0,62,64
514964,note_off,,,,,28,0,1,,,,0,81,64
514978,note_off,,,,,14,0,1,,,,0,86,64
515016,note_on,,,,,38,0,1,,,,0,93,79
515104,note_on,,,,,0,0,1,,,,0,68,95
515104,note_on,,,,,88,0,1,,,,0,86,86
515106,note_on,,,,,2,0,1,,,,0,80,88
515110,note_on,,,,,4,0,1,,,,0,57,84
515112,note_on,,,,,2,0,1,,,,0,62,82
515116,note_off,,,,,4,0,1,,,,0,93,64
515192,note_off,,,,,76,0,1,,,,0,80,64
515204,note_on,,,,,12,0,1,,,,0,92,84
515224,note_off,,,,,20,0,1,,,,0,86,64
515226,note_off,,,,,2,0,1,,,,0,57,64
515232,note_off,,,,,6,0,1,,,,0,68,64
515242,note_off,,,,,10,0,1,,,,0,62,64
515300,note_on,,,,,58,0,1,,,,0,80,74
515306,note_on,,,,,6,0,1,,,,0,86,82
515308,note_off,,,,,2,0,1,,,,0,92,64
515338,note_off,,,,,30,0,1,,,,0,80,64
515390,note_on,,,,,52,0,1,,,,0,92,77
515406,note_off,,,,,16,0,1,,,,0,86,64
515454,note_off,,,,,48,0,1,,,,0,92,64
515468,note_on,,,,,14,0,1,,,,0,86,81
515472,note_on,,,,,4,0,1,,,,0,79,81
515472,note_on,,,,,0,0,1,,,,0,67,77
515474,note_on,,,,,2,0,1,,,,0,57,79
515476,note_on,,,,,2,0,1,,,,0,62,76
515512,note_off,,,,,36,0,1,,,,0,67,64
515516,note_off,,,,,4,0,1,,,,0,62,64
515524,note_off,,,,,8,0,1,,,,0,79,64
515526,note_off,,,,,2,0,1,,,,0,57,64
515556,note_off,,,,,30,0,1,,,,0,86,64
515558,note_on,,,,,2,0,1,,,,0,91,76
515630,note_off,,,,,72,0,1,,,,0,91,64
515652,note_on,,,,,22,0,1,,,,0,79,86
515654,note_on,,,,,2,0,1,,,,0,85,92
515658,note_on,,,,,4,0,1,,,,0,67,82
515658,note_on,,,,,0,0,1,,,,0,61,80
515660,note_on,,,,,2,0,1,,,,0,57,79
515664,note_on,,,,,4,0,1,,,,0,55,81
515678,control_change,,,,,14,0,1,,64,0,0,,
515702,control_change,,,,,24,0,1,,64,127,0,,
515704,note_off,,,,,2,0,1,,,,0,79,64
515718,note_off,,,,,14,0,1,,,,0,55,64
515726,note_off,,,,,8,0,1,,,,0,67,64
515746,note_on,,,,,20,0,1,,,,0,91,77
515752,note_off,,,,,0,0,1,,,,0,85,64
515752,note_off,,,,,6,0,1,,,,0,57,64
515762,note_off,,,,,10,0,1,,,,0,61,64
515836,note_on,,,,,0,0,1,,,,0,66,94
515836,note_on,,,,,0,0,1,,,,0,61,80
515836,note_on,,,,,74,0,1,,,,0,78,89
515838,note_on,,,,,2,0,1,,,,0,85,89
515844,note_on,,,,,6,0,1,,,,0,55,69
515846,note_on,,,,,2,0,1,,,,0,57,77
515848,note_off,,,,,2,0,1,,,,0,91,64
515876,control_change,,,,,28,0,1,,64,0,0,,
515924,note_on,,,,,48,0,1,,,,0,90,81
515936,note_off,,,,,12,0,1,,,,0,85,64
515944,note_off,,,,,8,0,1,,,,0,78,64
515948,control_change,,,,,4,0,1,,64,127,0,,
516006,note_off,,,,,58,0,1,,,,0,90,64
516016,note_on,,,,,10,0,1,,,,0,85,84
516016,note_on,,,,,0,0,1,,,,0,78,86
516056,note_off,,,,,40,0,1,,,,0,78,64
516088,note_off,,,,,32,0,1,,,,0,85,64
516098,note_off,,,,,10,0,1,,,,0,55,64
516104,note_off,,,,,6,0,1,,,,0,57,64
516110,note_on,,,,,6,0,1,,,,0,90,81
516116,note_off,,,,,6,0,1,,,,0,66,64
516126,note_off,,,,,10,0,1,,,,0,61,64
516164,note_off,,,,,38,0,1,,,,0,90,64
516190,note_on,,,,,26,0,1,,,,0,61,81
516192,note_on,,,,,2,0,1,,,,0,65,88
516194,note_on,,,,,2,0,1,,,,0,55,78
516196,note_on,,,,,0,0,1,,,,0,57,78
516196,note_on,,,,,2,0,1,,,,0,77,91
516200,note_on,,,,,4,0,1,,,,0,85,91
516224,control_change,,,,,24,0,1,,64,0,0,,
516244,control_change,,,,,20,0,1,,64,127,0,,
516268,note_off,,,,,24,0,1,,,,0,77,64
516280,note_on,,,,,12,0,1,,,,0,89,83
516290,note_off,,,,,10,0,1,,,,0,85,64
516368,note_off,,,,,78,0,1,,,,0,89,64
516372,note_on,,,,,4,0,1,,,,0,85,89
516372,note_on,,,,,0,0,1,,,,0,77,84
516402,note_off,,,,,30,0,1,,,,0,55,64
516406,note_off,,,,,4,0,1,,,,0,65,64
516412,note_off,,,,,6,0,1,,,,0,77,64
516432,note_off,,,,,20,0,1,,,,0,85,64
516438,note_off,,,,,6,0,1,,,,0,57,64
516440,note_off,,,,,2,0,1,,,,0,61,64
516472,note_on,,,,,32,0,1,,,,0,89,84
516526,note_off,,,,,54,0,1,,,,0,89,64
516566,note_on,,,,,40,0,1,,,,0,85,83
516568,note_on,,,,,2,0,1,,,,0,63,84
516568,note_on,,,,,0,0,1,,,,0,61,77
516572,note_on,,,,,4,0,1,,,,0,75,84
516578,note_on,,,,,6,0,1,,,,0,55,58
516580,note_on,,,,,2,0,1,,,,0,57,66
516648,note_off,,,,,68,0,1,,,,0,75,64
516660,note_on,,,,,12,0,1,,,,0,87,82
516666,note_off,,,,,6,0,1,,,,0,85,64
516730,note_off,,,,,64,0,1,,,,0,55,64
516736,note_off,,,,,6,0,1,,,,0,57,64
516748,note_off,,,,,12,0,1,,,,0,87,64
516756,note_on,,,,,0,0,1,,,,0,75,78
516756,note_off,,,,,8,0,1,,,,0,63,64
516760,note_on,,,,,4,0,1,,,,0,85,80
516786,note_off,,,,,26,0,1,,,,0,61,64
516802,note_off,,,,,16,0,1,,,,0,75,64
516844,note_on,,,,,42,0,1,,,,0,87,62
516852,note_off,,,,,8,0,1,,,,0,85,64
516948,note_on,,,,,96,0,1,,,,0,85,87
516950,note_on,,,,,2,0,1,,,,0,64,75
516952,note_on,,,,,2,0,1,,,,0,76,68
516952,note_on,,,,,0,0,1,,,,0,61,70
516958,note_on,,,,,6,0,1,,,,0,55,69
516964,note_on,,,,,0,0,1,,,,0,57,77
516964,note_off,,,,,6,0,1,,,,0,87,64
516984,note_off,,,,,20,0,1,,,,0,64,64
516990,note_off,,,,,6,0,1,,,,0,76,64
516992,note_off,,,,,2,0,1,,,,0,55,64
516996,note_off,,,,,4,0,1,,,,0,61,64
516998,note_off,,,,,2,0,1,,,,0,57,64
517052,note_on,,,,,54,0,1,,,,0,88,67
517056,note_off,,,,,4,0,1,,,,0,85,64
517072,note_off,,,,,16,0,1,,,,0,88,64
517190,note_on,,,,,118,0,1,,,,0,90,86
517192,note_on,,,,,2,0,1,,,,0,86,83
517194,note_on,,,,,0,0,1,,,,0,45,97
517194,note_on,,,,,2,0,1,,,,0,83,84
517196,note_on,,,,,2,0,1,,,,0,33,94
517198,note_on,,,,,2,0,1,,,,0,95,91
517204,control_change,,,,,6,0,1,,64,0,0,,
517212,control_change,,,,,8,0,1,,64,127,0,,
517268,note_off,,,,,56,0,1,,,,0,95,64
517276,note_off,,,,,8,0,1,,,,0,83,64
517288,note_off,,,,,12,0,1,,,,0,86,64
517292,note_off,,,,,4,0,1,,,,0,90,64
517392,note_off,,,,,100,0,1,,,,0,45,64
517434,note_off,,,,,42,0,1,,,,0,33,64
517452,note_on,,,,,0,0,1,,,,0,82,92
517452,note_on,,,,,18,0,1,,,,0,86,90
517454,note_on,,,,,2,0,1,,,,0,62,77
517456,note_on,,,,,2,0,1,,,,0,70,85
517462,note_on,,,,,6,0,1,,,,0,65,69
517534,note_off,,,,,72,0,1,,,,0,82,64
517540,note_on,,,,,6,0,1,,,,0,94,91
517560,note_off,,,,,20,0,1,,,,0,86,64
517604,note_off,,,,,44,0,1,,,,0,65,64
517616,note_off,,,,,12,0,1,,,,0,70,64
517624,note_off,,,,,8,0,1,,,,0,62,64
517630,note_on,,,,,6,0,1,,,,0,86,87
517632,note_on,,,,,2,0,1,,,,0,82,88
517636,note_off,,,,,4,0,1,,,,0,94,64
517696,note_off,,,,,60,0,1,,,,0,82,64
517712,note_on,,,,,16,0,1,,,,0,94,89
517722,note_off,,,,,10,0,1,,,,0,86,64
517766,note_off,,,,,44,0,1,,,,0,94,64
517786,note_on,,,,,20,0,1,,,,0,66,80
517790,note_on,,,,,4,0,1,,,,0,69,82
517792,note_on,,,,,2,0,1,,,,0,62,80
517792,note_on,,,,,0,0,1,,,,0,57,86
517794,note_on,,,,,2,0,1,,,,0,86,88
517796,note_on,,,,,2,0,1,,,,0,81,90
517818,control_change,,,,,22,0,1,,64,0,0,,
517848,control_change,,,,,30,0,1,,64,127,0,,
517854,note_off,,,,,6,0,1,,,,0,81,64
517886,note_on,,,,,32,0,1,,,,0,93,85
517910,note_off,,,,,24,0,1,,,,0,86,64
517964,note_off,,,,,54,0,1,,,,0,93,64
517968,note_on,,,,,4,0,1,,,,0,86,83
517970,note_on,,,,,2,0,1,,,,0,81,79
517992,note_off,,,,,22,0,1,,,,0,69,64
517996,note_off,,,,,4,0,1,,,,0,66,64
518000,note_off,,,,,4,0,1,,,,0,57,64
518010,note_off,,,,,10,0,1,,,,0,62,64
518012,note_off,,,,,2,0,1,,,,0,81,64
518036,note_off,,,,,24,0,1,,,,0,86,64
518058,note_on,,,,,22,0,1,,,,0,93,86
518144,note_on,,,,,0,0,1,,,,0,68,88
518144,note_on,,,,,86,0,1,,,,0,86,79
518146,note_on,,,,,2,0,1,,,,0,62,78
518148,note_on,,,,,2,0,1,,,,0,80,87
518152,note_on,,,,,4,0,1,,,,0,57,80
518156,note_off,,,,,4,0,1,,,,0,93,64
518212,note_off,,,,,56,0,1,,,,0,80,64
518232,note_on,,,,,20,0,1,,,,0,92,80
518246,note_off,,,,,14,0,1,,,,0,86,64
518272,note_off,,,,,26,0,1,,,,0,57,64
518284,note_off,,,,,12,0,1,,,,0,68,64
518304,note_off,,,,,20,0,1,,,,0,62,64
518316,note_off,,,,,12,0,1,,,,0,92,64
518322,note_on,,,,,6,0,1,,,,0,86,80
518324,note_on,,,,,2,0,1,,,,0,80,67
518378,note_off,,,,,54,0,1,,,,0,80,64
518396,note_on,,,,,18,0,1,,,,0,92,69
518408,note_off,,,,,12,0,1,,,,0,86,64
518454,note_off,,,,,46,0,1,,,,0,92,64
518476,note_on,,,,,22,0,1,,,,0,86,84
518478,note_on,,,,,2,0,1,,,,0,79,86
518480,note_on,,,,,2,0,1,,,,0,67,80
518482,note_on,,,,,2,0,1,,,,0,62,76
518482,note_on,,,,,0,0,1,,,,0,57,82
518524,note_off,,,,,0,0,1,,,,0,79,64
518524,note_off,,,,,42,0,1,,,,0,67,64
518526,note_off,,,,,0,0,1,,,,0,62,64
518526,note_off,,,,,2,0,1,,,,0,57,64
518548,note_off,,,,,22,0,1,,,,0,86,64
518560,note_on,,,,,12,0,1,,,,0,91,81
518636,control_change,,,,,76,0,1,,64,0,0,,
518646,note_off,,,,,10,0,1,,,,0,91,64
518652,note_on,,,,,6,0,1,,,,0,85,92
518656,note_on,,,,,4,0,1,,,,0,79,84
518656,note_on,,,,,0,0,1,,,,0,67,81
518658,note_on,,,,,2,0,1,,,,0,55,75
518660,note_on,,,,,2,0,1,,,,0,61,79
518662,note_on,,,,,2,0,1,,,,0,57,80
518674,control_change,,,,,12,0,1,,64,127,0,,
518696,note_off,,,,,22,0,1,,,,0,79,64
518698,note_off,,,,,2,0,1,,,,0,55,64
518708,note_off,,,,,10,0,1,,,,0,67,64
518728,note_off,,,,,20,0,1,,,,0,57,64
518736,note_on,,,,,0,0,1,,,,0,91,77
518736,note_off,,,,,8,0,1,,,,0,85,64
518740,note_off,,,,,4,0,1,,,,0,61,64
518822,note_on,,,,,82,0,1,,,,0,85,86
518824,note_on,,,,,0,0,1,,,,0,66,93
518824,note_on,,,,,2,0,1,,,,0,78,85
518826,note_on,,,,,2,0,1,,,,0,61,80
518832,note_on,,,,,6,0,1,,,,0,57,79
518832,note_on,,,,,0,0,1,,,,0,55,74
518834,note_off,,,,,2,0,1,,,,0,91,64
518848,control_change,,,,,14,0,1,,64,0,0,,
518888,note_off,,,,,40,0,1,,,,0,78,64
518908,note_on,,,,,20,0,1,,,,0,90,76
518912,note_off,,,,,4,0,1,,,,0,85,64
518920,control_change,,,,,8,0,1,,64,127,0,,
518992,note_off,,,,,72,0,1,,,,0,90,64
518998,note_on,,,,,6,0,1,,,,0,78,84
519002,note_on,,,,,4,0,1,,,,0,85,79
519016,note_off,,,,,14,0,1,,,,0,55,64
519024,note_off,,,,,8,0,1,,,,0,57,64
519040,note_off,,,,,16,0,1,,,,0,78,64
519046,note_off,,,,,6,0,1,,,,0,61,64
519052,note_off,,,,,6,0,1,,,,0,66,64
519078,note_off,,,,,26,0,1,,,,0,85,64
519080,note_on,,,,,2,0,1,,,,0,90,72
519140,note_off,,,,,60,0,1,,,,0,90,64
519172,note_on,,,,,32,0,1,,,,0,61,72
519174,note_on,,,,,2,0,1,,,,0,65,80
519176,note_on,,,,,0,0,1,,,,0,77,88
519176,note_on,,,,,2,0,1,,,,0,85,92
519180,note_on,,,,,4,0,1,,,,0,55,71
519182,note_on,,,,,2,0,1,,,,0,57,76
519204,note_off,,,,,22,0,1,,,,0,65,64
519216,note_off,,,,,12,0,1,,,,0,55,64
519220,note_off,,,,,4,0,1,,,,0,61,64
519224,note_off,,,,,4,0,1,,,,0,57,64
519224,note_off,,,,,0,0,1,,,,0,77,64
519262,note_on,,,,,38,0,1,,,,0,89,81
519270,note_off,,,,,8,0,1,,,,0,85,64
519338,note_off,,,,,68,0,1,,,,0,89,64
519360,control_change,,,,,22,0,1,,64,0,0,,
519360,set_tempo,,,,,4760,1,0,288462,,,,,
519364,set_tempo,,,,,4,1,0,287081,,,,,
519368,set_tempo,,,,,4,1,0,285714,,,,,
519372,set_tempo,,,,,4,1,0,284360,,,,,
519374,note_on,,,,,0,0,1,,,,0,77,87
519374,note_on,,,,,14,0,1,,,,0,85,92
519376,set_tempo,,,,,4,1,0,283019,,,,,
519380,set_tempo,,,,,4,1,0,281690,,,,,
519380,note_on,,,,,0,0,1,,,,0,34,91
519380,note_on,,,,,6,0,1,,,,0,46,90
519404,control_change,,,,,24,0,1,,64,127,0,,
519424,note_off,,,,,20,0,1,,,,0,77,64
519474,note_off,,,,,50,0,1,,,,0,85,64
519476,note_on,,,,,2,0,1,,,,0,89,81
519528,note_off,,,,,52,0,1,,,,0,89,64
519592,note_on,,,,,64,0,1,,,,0,63,94
519596,note_on,,,,,4,0,1,,,,0,85,92
519596,note_on,,,,,0,0,1,,,,0,55,79
519598,note_on,,,,,2,0,1,,,,0,75,94
519598,note_on,,,,,0,0,1,,,,0,61,84
519632,control_change,,,,,34,0,1,,64,0,0,,
519674,control_change,,,,,42,0,1,,64,127,0,,
519682,note_off,,,,,8,0,1,,,,0,75,64
519688,note_on,,,,,6,0,1,,,,0,87,86
519698,note_off,,,,,10,0,1,,,,0,85,64
519778,note_on,,,,,80,0,1,,,,0,75,87
519782,note_on,,,,,4,0,1,,,,0,85,87
519786,note_off,,,,,4,0,1,,,,0,87,64
519800,note_off,,,,,14,0,1,,,,0,55,64
519804,note_off,,,,,4,0,1,,,,0,63,64
519820,note_off,,,,,16,0,1,,,,0,75,64
519824,note_off,,,,,4,0,1,,,,0,61,64
519826,note_off,,,,,2,0,1,,,,0,46,64
519834,note_off,,,,,8,0,1,,,,0,34,64
519872,note_on,,,,,38,0,1,,,,0,87,79
519884,note_off,,,,,12,0,1,,,,0,85,64
519950,note_off,,,,,66,0,1,,,,0,87,64
519984,note_on,,,,,0,0,1,,,,0,64,85
519984,note_on,,,,,34,0,1,,,,0,85,92
519986,note_on,,,,,2,0,1,,,,0,61,81
519988,note_on,,,,,2,0,1,,,,0,76,81
519992,note_on,,,,,4,0,1,,,,0,55,70
520024,note_off,,,,,32,0,1,,,,0,64,64
520044,note_off,,,,,20,0,1,,,,0,61,64
520046,note_off,,,,,2,0,1,,,,0,55,64
520052,note_off,,,,,6,0,1,,,,0,76,64
520102,note_on,,,,,50,0,1,,,,0,88,57
520106,note_off,,,,,4,0,1,,,,0,85,64
520108,set_tempo,,,,,728,1,0,280374,,,,,
520128,set_tempo,,,,,20,1,0,281690,,,,,
520130,note_off,,,,,24,0,1,,,,0,88,64
520148,set_tempo,,,,,20,1,0,283019,,,,,
520164,set_tempo,,,,,16,1,0,284360,,,,,
520172,control_change,,,,,42,0,1,,64,0,0,,
520184,set_tempo,,,,,20,1,0,285714,,,,,
520200,set_tempo,,,,,16,1,0,287081,,,,,
520220,set_tempo,,,,,20,1,0,288462,,,,,
520236,set_tempo,,,,,16,1,0,289855,,,,,
520244,note_on,,,,,72,0,1,,,,0,47,84
520244,note_on,,,,,0,0,1,,,,0,35,83
520246,note_on,,,,,2,0,1,,,,0,88,80
520248,note_on,,,,,0,0,1,,,,0,92,88
520248,note_on,,,,,2,0,1,,,,0,97,92
520248,note_on,,,,,0,0,1,,,,0,85,88
520264,control_change,,,,,16,0,1,,64,127,0,,
520346,note_off,,,,,82,0,1,,,,0,97,64
520350,note_off,,,,,4,0,1,,,,0,92,64
520352,note_off,,,,,2,0,1,,,,0,88,64
520356,note_off,,,,,4,0,1,,,,0,85,64
520498,note_on,,,,,142,0,1,,,,0,64,77
520500,note_on,,,,,0,0,1,,,,0,68,82
520500,note_on,,,,,2,0,1,,,,0,72,82
520504,note_on,,,,,0,0,1,,,,0,84,82
520504,note_on,,,,,4,0,1,,,,0,88,84
520578,note_off,,,,,74,0,1,,,,0,84,64
520592,note_on,,,,,14,0,1,,,,0,96,81
520602,note_off,,,,,10,0,1,,,,0,88,64
520660,note_off,,,,,58,0,1,,,,0,72,64
520664,note_off,,,,,4,0,1,,,,0,96,64
520672,note_off,,,,,8,0,1,,,,0,64,64
520672,note_on,,,,,0,0,1,,,,0,88,73
520674,note_off,,,,,2,0,1,,,,0,35,64
520676,note_on,,,,,2,0,1,,,,0,84,69
520682,note_off,,,,,6,0,1,,,,0,47,64
520702,note_off,,,,,20,0,1,,,,0,68,64
520742,note_off,,,,,40,0,1,,,,0,84,64
520760,note_on,,,,,18,0,1,,,,0,96,84
520776,note_off,,,,,16,0,1,,,,0,88,64
520820,note_off,,,,,44,0,1,,,,0,96,64
520840,note_on,,,,,20,0,1,,,,0,71,79
520842,note_on,,,,,2,0,1,,,,0,88,73
520844,note_on,,,,,2,0,1,,,,0,83,75
520844,note_on,,,,,0,0,1,,,,0,59,74
520844,note_on,,,,,0,0,1,,,,0,64,78
520846,note_on,,,,,2,0,1,,,,0,68,79
520890,control_change,,,,,44,0,1,,64,0,0,,
520896,control_change,,,,,6,0,1,,64,127,0,,
520904,note_off,,,,,8,0,1,,,,0,83,64
520932,note_on,,,,,28,0,1,,,,0,95,78
520940,note_off,,,,,8,0,1,,,,0,88,64
521004,note_off,,,,,64,0,1,,,,0,95,64
521008,note_on,,,,,4,0,1,,,,0,88,72
521012,note_on,,,,,4,0,1,,,,0,83,74
521060,note_off,,,,,0,0,1,,,,0,68,64
521060,note_off,,,,,48,0,1,,,,0,83,64
521064,note_off,,,,,4,0,1,,,,0,59,64
521074,note_off,,,,,10,0,1,,,,0,71,64
521084,note_off,,,,,10,0,1,,,,0,88,64
521084,note_off,,,,,0,0,1,,,,0,64,64
521100,note_on,,,,,16,0,1,,,,0,95,77
521188,note_on,,,,,88,0,1,,,,0,88,78
521188,note_on,,,,,0,0,1,,,,0,70,83
521190,note_on,,,,,2,0,1,,,,0,82,85
521194,note_on,,,,,4,0,1,,,,0,64,77
521196,note_on,,,,,2,0,1,,,,0,59,70
521202,note_off,,,,,6,0,1,,,,0,95,64
521230,control_change,,,,,28,0,1,,64,0,0,,
521236,control_change,,,,,6,0,1,,64,127,0,,
521248,note_off,,,,,12,0,1,,,,0,82,64
521274,note_on,,,,,26,0,1,,,,0,94,84
521290,note_off,,,,,16,0,1,,,,0,88,64
521316,note_off,,,,,26,0,1,,,,0,70,64
521320,note_off,,,,,4,0,1,,,,0,59,64
521332,note_off,,,,,12,0,1,,,,0,64,64
521352,note_off,,,,,20,0,1,,,,0,94,64
521358,note_on,,,,,6,0,1,,,,0,88,67
521360,note_on,,,,,2,0,1,,,,0,82,73
521402,note_off,,,,,42,0,1,,,,0,82,64
521432,note_on,,,,,30,0,1,,,,0,94,65
521446,note_off,,,,,14,0,1,,,,0,88,64
521492,note_off,,,,,46,0,1,,,,0,94,64
521518,note_on,,,,,26,0,1,,,,0,88,76
521520,note_on,,,,,0,0,1,,,,0,69,78
521520,note_on,,,,,2,0,1,,,,0,81,79
521524,note_on,,,,,4,0,1,,,,0,59,68
521526,note_on,,,,,2,0,1,,,,0,64,71
521562,note_off,,,,,36,0,1,,,,0,81,64
521564,note_off,,,,,0,0,1,,,,0,69,64
521564,note_off,,,,,2,0,1,,,,0,64,64
521570,note_off,,,,,6,0,1,,,,0,59,64
521592,note_off,,,,,22,0,1,,,,0,88,64
521602,note_on,,,,,10,0,1,,,,0,93,82
521678,control_change,,,,,76,0,1,,64,0,0,,
521684,note_off,,,,,6,0,1,,,,0,93,64
521686,note_on,,,,,2,0,1,,,,0,87,89
521688,note_on,,,,,2,0,1,,,,0,81,81
521692,note_on,,,,,4,0,1,,,,0,69,75
521694,note_on,,,,,2,0,1,,,,0,63,72
521696,note_on,,,,,2,0,1,,,,0,57,79
521700,note_on,,,,,4,0,1,,,,0,59,63
521718,control_change,,,,,18,0,1,,64,127,0,,
521732,note_off,,,,,14,0,1,,,,0,81,64
521738,note_off,,,,,6,0,1,,,,0,57,64
521750,note_off,,,,,12,0,1,,,,0,69,64
521770,note_on,,,,,20,0,1,,,,0,93,78
521772,note_off,,,,,0,0,1,,,,0,87,64
521772,note_off,,,,,2,0,1,,,,0,59,64
521776,note_off,,,,,4,0,1,,,,0,63,64
521860,note_on,,,,,0,0,1,,,,0,68,90
521860,note_on,,,,,84,0,1,,,,0,87,84
521862,note_on,,,,,2,0,1,,,,0,80,83
521864,note_on,,,,,2,0,1,,,,0,63,75
521868,note_on,,,,,4,0,1,,,,0,59,69
521870,note_on,,,,,2,0,1,,,,0,57,65
521872,note_off,,,,,2,0,1,,,,0,93,64
521892,control_change,,,,,20,0,1,,64,0,0,,
521930,note_off,,,,,38,0,1,,,,0,80,64
521944,note_on,,,,,14,0,1,,,,0,92,82
521952,note_off,,,,,8,0,1,,,,0,87,64
521960,control_change,,,,,8,0,1,,64,127,0,,
522034,note_off,,,,,74,0,1,,,,0,92,64
522036,note_on,,,,,2,0,1,,,,0,80,73
522038,note_on,,,,,2,0,1,,,,0,87,78
522052,note_off,,,,,14,0,1,,,,0,59,64
522066,note_off,,,,,14,0,1,,,,0,68,64
522074,note_off,,,,,8,0,1,,,,0,57,64
522080,note_off,,,,,6,0,1,,,,0,80,64
522096,note_off,,,,,16,0,1,,,,0,63,64
522120,note_on,,,,,24,0,1,,,,0,92,73
522124,note_off,,,,,4,0,1,,,,0,87,64
522172,note_off,,,,,48,0,1,,,,0,92,64
522202,note_on,,,,,30,0,1,,,,0,67,71
522204,note_on,,,,,0,0,1,,,,0,79,86
522204,note_on,,,,,0,0,1,,,,0,63,68
522204,note_on,,,,,2,0,1,,,,0,87,88
522208,note_on,,,,,4,0,1,,,,0,57,70
522210,note_on,,,,,2,0,1,,,,0,59,61
522232,note_off,,,,,22,0,1,,,,0,67,64
522248,note_off,,,,,0,0,1,,,,0,63,64
522248,note_off,,,,,16,0,1,,,,0,57,64
522250,note_off,,,,,2,0,1,,,,0,79,64
522252,note_off,,,,,2,0,1,,,,0,59,64
522288,note_on,,,,,36,0,1,,,,0,91,73
522290,note_off,,,,,2,0,1,,,,0,87,64
522374,note_off,,,,,84,0,1,,,,0,91,64
522384,set_tempo,,,,,2148,1,0,288462,,,,,
522392,set_tempo,,,,,8,1,0,287081,,,,,
522396,note_on,,,,,0,0,1,,,,0,79,84
522396,note_on,,,,,22,0,1,,,,0,87,88
522400,control_change,,,,,4,0,1,,64,0,0,,
522404,note_on,,,,,0,0,1,,,,0,36,78
522404,note_on,,,,,4,0,1,,,,0,48,88
522404,set_tempo,,,,,12,1,0,285714,,,,,
522412,set_tempo,,,,,8,1,0,284360,,,,,
522420,set_tempo,,,,,8,1,0,283019,,,,,
522432,set_tempo,,,,,12,1,0,281690,,,,,
522440,set_tempo,,,,,8,1,0,280374,,,,,
522444,control_change,,,,,40,0,1,,64,127,0,,
522448,set_tempo,,,,,8,1,0,279070,,,,,
522460,set_tempo,,,,,12,1,0,277778,,,,,
522468,set_tempo,,,,,8,1,0,276498,,,,,
522476,set_tempo,,,,,8,1,0,275229,,,,,
522478,note_off,,,,,34,0,1,,,,0,79,64
522488,set_tempo,,,,,12,1,0,273973,,,,,
522492,note_on,,,,,14,0,1,,,,0,91,70
522496,set_tempo,,,,,8,1,0,272727,,,,,
522498,note_off,,,,,6,0,1,,,,0,87,64
522504,set_tempo,,,,,8,1,0,271493,,,,,
522516,set_tempo,,,,,12,1,0,270270,,,,,
522524,set_tempo,,,,,8,1,0,269058,,,,,
522536,set_tempo,,,,,12,1,0,267857,,,,,
522544,set_tempo,,,,,8,1,0,266667,,,,,
522548,note_off,,,,,50,0,1,,,,0,91,64
522564,set_tempo,,,,,20,1,0,264317,,,,,
522572,set_tempo,,,,,8,1,0,263158,,,,,
522580,set_tempo,,,,,8,1,0,262009,,,,,
522592,set_tempo,,,,,12,1,0,260870,,,,,
522600,set_tempo,,,,,8,1,0,259740,,,,,
522608,set_tempo,,,,,8,1,0,258621,,,,,
522620,set_tempo,,,,,12,1,0,257511,,,,,
522620,note_on,,,,,72,0,1,,,,0,87,91
522622,note_on,,,,,2,0,1,,,,0,77,87
522624,note_on,,,,,2,0,1,,,,0,65,89
522624,note_on,,,,,0,0,1,,,,0,57,81
522628,note_on,,,,,4,0,1,,,,0,63,79
522628,set_tempo,,,,,8,1,0,256410,,,,,
522674,control_change,,,,,46,0,1,,64,0,0,,
522720,note_on,,,,,46,0,1,,,,0,89,59
522724,note_off,,,,,4,0,1,,,,0,77,64
522732,set_tempo,,,,,104,1,0,255319,,,,,
522742,note_off,,,,,18,0,1,,,,0,87,64
522752,set_tempo,,,,,20,1,0,256410,,,,,
522754,control_change,,,,,12,0,1,,64,127,0,,
522784,set_tempo,,,,,32,1,0,257511,,,,,
522802,note_off,,,,,48,0,1,,,,0,36,64
522804,set_tempo,,,,,20,1,0,258621,,,,,
522818,note_off,,,,,16,0,1,,,,0,48,64
522820,set_tempo,,,,,16,1,0,259740,,,,,
522824,note_on,,,,,6,0,1,,,,0,87,88
522824,note_on,,,,,0,0,1,,,,0,77,88
522836,set_tempo,,,,,16,1,0,260870,,,,,
522840,note_off,,,,,16,0,1,,,,0,89,64
522856,set_tempo,,,,,20,1,0,262009,,,,,
522872,set_tempo,,,,,16,1,0,263158,,,,,
522874,note_off,,,,,34,0,1,,,,0,57,64
522884,note_off,,,,,10,0,1,,,,0,65,64
522888,set_tempo,,,,,16,1,0,264317,,,,,
522896,note_off,,,,,12,0,1,,,,0,63,64
522904,note_off,,,,,8,0,1,,,,0,77,64
522908,set_tempo,,,,,20,1,0,266667,,,,,
522916,note_on,,,,,12,0,1,,,,0,89,75
522930,note_off,,,,,14,0,1,,,,0,87,64
522940,set_tempo,,,,,32,1,0,267857,,,,,
522960,set_tempo,,,,,20,1,0,269058,,,,,
522976,set_tempo,,,,,16,1,0,270270,,,,,
522992,set_tempo,,,,,16,1,0,271493,,,,,
523008,set_tempo,,,,,16,1,0,272727,,,,,
523010,note_off,,,,,80,0,1,,,,0,89,64
523028,note_on,,,,,0,0,1,,,,0,66,84
523028,note_on,,,,,18,0,1,,,,0,87,92
523028,set_tempo,,,,,20,1,0,273973,,,,,
523030,note_on,,,,,2,0,1,,,,0,78,95
523030,note_on,,,,,0,0,1,,,,0,63,77
523038,note_on,,,,,8,0,1,,,,0,57,70
523044,set_tempo,,,,,16,1,0,275229,,,,,
523056,control_change,,,,,18,0,1,,64,0,0,,
523060,set_tempo,,,,,16,1,0,276498,,,,,
523076,control_change,,,,,20,0,1,,64,127,0,,
523080,set_tempo,,,,,20,1,0,277778,,,,,
523086,note_off,,,,,10,0,1,,,,0,66,64
523096,set_tempo,,,,,16,1,0,279070,,,,,
523104,note_off,,,,,18,0,1,,,,0,63,64
523112,set_tempo,,,,,16,1,0,280374,,,,,
523116,note_off,,,,,12,0,1,,,,0,57,64
523132,set_tempo,,,,,20,1,0,281690,,,,,
523140,note_on,,,,,0,0,1,,,,0,90,88
523140,note_off,,,,,24,0,1,,,,0,78,64
523148,set_tempo,,,,,16,1,0,283019,,,,,
523152,note_off,,,,,12,0,1,,,,0,87,64
523164,set_tempo,,,,,16,1,0,284360,,,,,
523172,note_off,,,,,20,0,1,,,,0,90,64
523184,set_tempo,,,,,20,1,0,285714,,,,,
523200,set_tempo,,,,,16,1,0,287081,,,,,
523216,set_tempo,,,,,16,1,0,288462,,,,,
523232,set_tempo,,,,,16,1,0,289855,,,,,
523282,control_change,,,,,110,0,1,,64,0,0,,
523304,note_on,,,,,22,0,1,,,,0,99,96
523306,note_on,,,,,2,0,1,,,,0,87,89
523308,note_on,,,,,0,0,1,,,,0,37,87
523308,note_on,,,,,2,0,1,,,,0,49,92
523310,note_on,,,,,2,0,1,,,,0,90,80
523312,note_on,,,,,2,0,1,,,,0,94,96
523368,control_change,,,,,56,0,1,,64,127,0,,
523452,note_off,,,,,84,0,1,,,,0,99,64
523460,note_off,,,,,8,0,1,,,,0,90,64
523462,note_off,,,,,2,0,1,,,,0,87,64
523466,note_off,,,,,4,0,1,,,,0,94,64
523578,note_on,,,,,112,0,1,,,,0,90,90
523580,note_on,,,,,2,0,1,,,,0,86,87
523580,note_on,,,,,0,0,1,,,,0,74,86
523582,note_on,,,,,2,0,1,,,,0,66,79
523584,note_on,,,,,2,0,1,,,,0,70,77
523610,note_off,,,,,26,0,1,,,,0,37,64
523646,note_off,,,,,36,0,1,,,,0,86,64
523650,note_off,,,,,4,0,1,,,,0,49,64
523664,note_off,,,,,14,0,1,,,,0,90,64
523672,note_on,,,,,8,0,1,,,,0,98,94
523722,note_off,,,,,50,0,1,,,,0,66,64
523724,note_off,,,,,2,0,1,,,,0,74,64
523740,note_off,,,,,16,0,1,,,,0,98,64
523750,note_off,,,,,10,0,1,,,,0,70,64
523756,note_on,,,,,6,0,1,,,,0,90,93
523758,note_on,,,,,2,0,1,,,,0,86,87
523796,note_off,,,,,38,0,1,,,,0,86,64
523840,note_on,,,,,0,0,1,,,,0,98,85
523840,note_off,,,,,44,0,1,,,,0,90,64
523884,note_off,,,,,44,0,1,,,,0,98,64
523908,note_on,,,,,0,0,1,,,,0,66,74
523908,note_on,,,,,24,0,1,,,,0,73,85
523910,note_on,,,,,2,0,1,,,,0,70,76
523914,note_on,,,,,4,0,1,,,,0,90,84
523914,note_on,,,,,0,0,1,,,,0,85,91
523916,note_on,,,,,2,0,1,,,,0,61,80
523946,control_change,,,,,30,0,1,,64,0,0,,
523960,control_change,,,,,14,0,1,,64,127,0,,
523976,note_off,,,,,16,0,1,,,,0,85,64
523996,note_on,,,,,20,0,1,,,,0,97,87
524006,note_off,,,,,10,0,1,,,,0,90,64
524062,note_off,,,,,56,0,1,,,,0,97,64
524078,note_off,,,,,16,0,1,,,,0,73,64
524086,note_on,,,,,8,0,1,,,,0,90,82
524088,note_on,,,,,2,0,1,,,,0,85,87
524092,note_off,,,,,4,0,1,,,,0,70,64
524100,note_off,,,,,8,0,1,,,,0,61,64
524108,note_off,,,,,8,0,1,,,,0,66,64
524134,note_off,,,,,26,0,1,,,,0,85,64
524150,note_off,,,,,16,0,1,,,,0,90,64
524170,note_on,,,,,20,0,1,,,,0,97,84
524216,note_off,,,,,46,0,1,,,,0,97,64
524252,note_on,,,,,0,0,1,,,,0,66,79
524252,note_on,,,,,0,0,1,,,,0,84,86
524252,note_on,,,,,36,0,1,,,,0,90,86
524254,note_on,,,,,2,0,1,,,,0,72,82
524256,note_on,,,,,2,0,1,,,,0,61,82
524304,note_off,,,,,48,0,1,,,,0,84,64
524328,note_off,,,,,24,0,1,,,,0,72,64
524334,note_on,,,,,6,0,1,,,,0,96,80
524336,note_off,,,,,2,0,1,,,,0,90,64
524370,note_off,,,,,34,0,1,,,,0,61,64
524382,note_off,,,,,12,0,1,,,,0,66,64
524402,note_off,,,,,20,0,1,,,,0,96,64
524414,note_on,,,,,12,0,1,,,,0,84,75
524418,note_on,,,,,4,0,1,,,,0,90,81
524452,note_off,,,,,34,0,1,,,,0,84,64
524498,note_on,,,,,46,0,1,,,,0,96,85
524506,note_off,,,,,8,0,1,,,,0,90,64
524550,note_off,,,,,44,0,1,,,,0,96,64
524584,note_on,,,,,34,0,1,,,,0,90,89
524584,note_on,,,,,0,0,1,,,,0,83,87
524586,note_on,,,,,2,0,1,,,,0,66,72
524588,note_on,,,,,0,0,1,,,,0,61,78
524588,note_on,,,,,2,0,1,,,,0,71,85
524620,note_off,,,,,32,0,1,,,,0,83,64
524628,note_off,,,,,8,0,1,,,,0,66,64
524630,note_off,,,,,2,0,1,,,,0,71,64
524634,note_off,,,,,4,0,1,,,,0,61,64
524664,note_on,,,,,30,0,1,,,,0,95,83
524666,note_off,,,,,2,0,1,,,,0,90,64
524736,note_off,,,,,70,0,1,,,,0,95,64
524756,note_on,,,,,20,0,1,,,,0,71,87
524758,note_on,,,,,2,0,1,,,,0,90,87
524760,note_on,,,,,2,0,1,,,,0,59,73
524762,note_on,,,,,2,0,1,,,,0,83,81
524762,note_on,,,,,0,0,1,,,,0,61,71
524768,note_on,,,,,6,0,1,,,,0,65,71
524810,control_change,,,,,42,0,1,,64,127,0,,
524820,note_off,,,,,10,0,1,,,,0,83,64
524836,note_on,,,,,16,0,1,,,,0,95,78
524844,note_off,,,,,8,0,1,,,,0,90,64
524866,note_off,,,,,22,0,1,,,,0,71,64
524870,note_off,,,,,4,0,1,,,,0,59,64
524874,note_off,,,,,4,0,1,,,,0,61,64
524882,note_off,,,,,8,0,1,,,,0,65,64
524922,note_off,,,,,40,0,1,,,,0,95,64
524948,note_on,,,,,26,0,1,,,,0,70,92
524954,note_on,,,,,6,0,1,,,,0,89,86
524956,note_on,,,,,2,0,1,,,,0,82,93
524956,note_on,,,,,0,0,1,,,,0,65,74
524960,note_on,,,,,0,0,1,,,,0,59,71
524960,note_on,,,,,4,0,1,,,,0,61,61
525028,note_on,,,,,68,0,1,,,,0,94,79
525034,note_off,,,,,6,0,1,,,,0,82,64
525048,note_off,,,,,14,0,1,,,,0,89,64
525052,control_change,,,,,4,0,1,,64,0,0,,
525114,control_change,,,,,62,0,1,,64,127,0,,
525116,note_on,,,,,2,0,1,,,,0,82,87
525118,note_on,,,,,2,0,1,,,,0,89,82
525124,note_off,,,,,6,0,1,,,,0,94,64
525162,note_off,,,,,38,0,1,,,,0,82,64
525170,note_off,,,,,8,0,1,,,,0,59,64
525186,note_off,,,,,16,0,1,,,,0,61,64
525190,note_off,,,,,4,0,1,,,,0,65,64
525190,note_off,,,,,0,0,1,,,,0,70,64
525208,note_on,,,,,18,0,1,,,,0,94,87
525210,note_off,,,,,2,0,1,,,,0,89,64
525280,note_off,,,,,70,0,1,,,,0,94,64
525300,note_on,,,,,20,0,1,,,,0,69,90
525302,note_on,,,,,2,0,1,,,,0,88,78
525304,note_on,,,,,0,0,1,,,,0,65,77
525304,note_on,,,,,0,0,1,,,,0,59,62
525304,note_on,,,,,2,0,1,,,,0,81,76
525308,note_on,,,,,4,0,1,,,,0,61,75
525364,note_off,,,,,56,0,1,,,,0,81,64
525388,note_off,,,,,24,0,1,,,,0,88,64
525398,note_on,,,,,10,0,1,,,,0,93,64
525476,note_off,,,,,78,0,1,,,,0,93,64
525498,note_on,,,,,0,0,1,,,,0,81,84
525498,note_on,,,,,22,0,1,,,,0,89,91
525500,note_on,,,,,0,0,1,,,,0,38,84
525500,note_on,,,,,2,0,1,,,,0,50,83
525526,control_change,,,,,26,0,1,,64,127,0,,
525576,note_off,,,,,50,0,1,,,,0,61,64
525586,note_off,,,,,10,0,1,,,,0,59,64
525586,note_off,,,,,0,0,1,,,,0,69,64
525588,note_on,,,,,2,0,1,,,,0,93,71
525590,note_off,,,,,2,0,1,,,,0,81,64
525596,set_tempo,,,,,2364,1,0,287081,,,,,
525598,note_off,,,,,8,0,1,,,,0,65,64
525604,set_tempo,,,,,8,1,0,285714,,,,,
525608,note_off,,,,,10,0,1,,,,0,89,64
525608,set_tempo,,,,,4,1,0,284360,,,,,
525670,note_off,,,,,62,0,1,,,,0,93,64
525698,note_on,,,,,28,0,1,,,,0,89,83
525700,note_on,,,,,0,0,1,,,,0,59,85
525700,note_on,,,,,2,0,1,,,,0,67,84
525702,note_on,,,,,2,0,1,,,,0,79,82
525704,note_on,,,,,2,0,1,,,,0,65,88
525738,note_off,,,,,34,0,1,,,,0,50,64
525772,note_off,,,,,34,0,1,,,,0,79,64
525786,note_on,,,,,0,0,1,,,,0,91,67
525786,note_off,,,,,14,0,1,,,,0,38,64
525804,note_off,,,,,18,0,1,,,,0,89,64
525856,note_off,,,,,52,0,1,,,,0,91,64
525878,note_on,,,,,22,0,1,,,,0,89,87
525880,note_on,,,,,2,0,1,,,,0,79,85
525896,note_off,,,,,16,0,1,,,,0,67,64
525900,note_off,,,,,4,0,1,,,,0,59,64
525908,note_off,,,,,8,0,1,,,,0,65,64
525916,note_off,,,,,8,0,1,,,,0,79,64
525968,note_on,,,,,52,0,1,,,,0,91,85
525980,note_off,,,,,12,0,1,,,,0,89,64
526034,note_off,,,,,54,0,1,,,,0,91,64
526082,note_on,,,,,48,0,1,,,,0,68,92
526088,note_on,,,,,6,0,1,,,,0,89,86
526088,note_on,,,,,0,0,1,,,,0,80,91
526090,note_on,,,,,2,0,1,,,,0,65,81
526094,note_on,,,,,4,0,1,,,,0,59,71
526112,set_tempo,,,,,504,1,0,283019,,,,,
526120,set_tempo,,,,,8,1,0,284360,,,,,
526126,note_off,,,,,32,0,1,,,,0,68,64
526128,set_tempo,,,,,8,1,0,285714,,,,,
526132,set_tempo,,,,,4,1,0,287081,,,,,
526136,note_off,,,,,10,0,1,,,,0,65,64
526140,note_off,,,,,4,0,1,,,,0,80,64
526140,set_tempo,,,,,8,1,0,288462,,,,,
526144,set_tempo,,,,,4,1,0,289855,,,,,
526148,note_off,,,,,8,0,1,,,,0,59,64
526192,note_on,,,,,44,0,1,,,,0,92,89
526212,note_off,,,,,20,0,1,,,,0,89,64
526230,note_off,,,,,18,0,1,,,,0,92,64
526334,control_change,,,,,104,0,1,,64,0,0,,
526348,note_on,,,,,14,0,1,,,,0,51,105
526348,note_on,,,,,0,0,1,,,,0,39,100
526350,note_on,,,,,2,0,1,,,,0,96,95
526352,note_on,,,,,0,0,1,,,,0,92,88
526352,note_on,,,,,2,0,1,,,,0,101,92
526352,note_on,,,,,0,0,1,,,,0,89,90
526356,note_on,,,,,4,0,1,,,,0,99,86
526382,note_off,,,,,26,0,1,,,,0,99,64
526398,note_off,,,,,16,0,1,,,,0,39,64
526402,control_change,,,,,4,0,1,,64,127,0,,
526408,note_off,,,,,6,0,1,,,,0,51,64
526456,note_off,,,,,48,0,1,,,,0,89,64
526464,note_off,,,,,8,0,1,,,,0,92,64
526470,note_off,,,,,6,0,1,,,,0,101,64
526482,note_off,,,,,12,0,1,,,,0,96,64
526628,note_on,,,,,146,0,1,,,,0,68,89
526630,note_on,,,,,2,0,1,,,,0,92,99
526630,note_on,,,,,0,0,1,,,,0,88,91
526632,note_on,,,,,2,0,1,,,,0,76,88
526638,note_on,,,,,6,0,1,,,,0,72,86
526698,note_off,,,,,60,0,1,,,,0,88,64
526718,note_off,,,,,20,0,1,,,,0,92,64
526722,note_on,,,,,4,0,1,,,,0,100,77
526798,note_off,,,,,76,0,1,,,,0,100,64
526808,note_on,,,,,10,0,1,,,,0,92,97
526812,note_on,,,,,4,0,1,,,,0,88,85
526830,note_off,,,,,18,0,1,,,,0,76,64
526840,note_off,,,,,10,0,1,,,,0,68,64
526848,note_off,,,,,8,0,1,,,,0,88,64
526854,note_off,,,,,6,0,1,,,,0,72,64
526876,note_off,,,,,22,0,1,,,,0,92,64
526890,note_on,,,,,14,0,1,,,,0,100,92
526944,note_off,,,,,54,0,1,,,,0,100,64
526972,note_on,,,,,28,0,1,,,,0,75,92
526974,note_on,,,,,2,0,1,,,,0,92,92
526978,note_on,,,,,4,0,1,,,,0,87,89
526978,note_on,,,,,0,0,1,,,,0,72,80
526980,note_on,,,,,0,0,1,,,,0,63,82
526980,note_on,,,,,2,0,1,,,,0,68,72
527012,control_change,,,,,32,0,1,,64,0,0,,
527024,control_change,,,,,12,0,1,,64,127,0,,
527056,note_on,,,,,0,0,1,,,,0,99,92
527056,note_off,,,,,32,0,1,,,,0,87,64
527072,note_off,,,,,16,0,1,,,,0,92,64
527144,note_off,,,,,72,0,1,,,,0,99,64
527144,note_on,,,,,0,0,1,,,,0,87,93
527146,note_on,,,,,2,0,1,,,,0,92,89
527186,note_off,,,,,40,0,1,,,,0,72,64
527198,note_off,,,,,12,0,1,,,,0,87,64
527206,note_off,,,,,8,0,1,,,,0,63,64
527206,note_off,,,,,0,0,1,,,,0,68,64
527208,note_off,,,,,2,0,1,,,,0,75,64
527232,note_on,,,,,24,0,1,,,,0,99,95
527244,note_off,,,,,12,0,1,,,,0,92,64
527280,note_off,,,,,36,0,1,,,,0,99,64
527314,note_on,,,,,0,0,1,,,,0,84,86
527314,note_on,,,,,34,0,1,,,,0,92,87
527320,note_on,,,,,6,0,1,,,,0,63,83
527322,note_on,,,,,2,0,1,,,,0,72,90
527326,note_on,,,,,4,0,1,,,,0,68,80
527360,note_off,,,,,34,0,1,,,,0,84,64
527368,note_off,,,,,8,0,1,,,,0,72,64
527390,note_off,,,,,22,0,1,,,,0,68,64
527392,note_off,,,,,2,0,1,,,,0,63,64
527394,note_on,,,,,2,0,1,,,,0,96,82
527396,note_off,,,,,2,0,1,,,,0,92,64
527474,note_off,,,,,78,0,1,,,,0,96,64
527484,note_on,,,,,10,0,1,,,,0,84,91
527486,note_on,,,,,2,0,1,,,,0,92,96
527522,note_off,,,,,36,0,1,,,,0,84,64
527566,note_on,,,,,44,0,1,,,,0,96,93
527588,note_off,,,,,22,0,1,,,,0,92,64
527604,note_off,,,,,16,0,1,,,,0,96,64
527660,note_on,,,,,56,0,1,,,,0,51,97
527660,note_on,,,,,0,0,1,,,,0,39,94
527682,control_change,,,,,22,0,1,,64,0,0,,
527756,note_on,,,,,0,0,1,,,,0,87,87
527756,note_on,,,,,0,0,1,,,,0,84,82
527756,note_on,,,,,74,0,1,,,,0,92,94
527758,note_on,,,,,2,0,1,,,,0,80,89
527764,control_change,,,,,6,0,1,,64,127,0,,
527788,note_off,,,,,24,0,1,,,,0,51,64
527792,note_off,,,,,4,0,1,,,,0,39,64
527818,note_off,,,,,26,0,1,,,,0,84,64
527836,control_change,,,,,18,0,1,,64,0,0,,
527854,note_off,,,,,18,0,1,,,,0,87,64
527860,note_on,,,,,0,0,1,,,,0,39,92
527860,note_on,,,,,6,0,1,,,,0,51,105
527870,note_off,,,,,10,0,1,,,,0,92,64
527874,note_off,,,,,4,0,1,,,,0,80,64
527948,control_change,,,,,74,0,1,,64,127,0,,
527952,note_on,,,,,0,0,1,,,,0,80,93
527952,note_on,,,,,4,0,1,,,,0,85,91
527954,note_on,,,,,0,0,1,,,,0,82,86
527954,note_on,,,,,2,0,1,,,,0,92,94
527990,note_off,,,,,36,0,1,,,,0,51,64
527996,note_off,,,,,6,0,1,,,,0,39,64
528034,note_off,,,,,38,0,1,,,,0,80,64
528036,note_off,,,,,2,0,1,,,,0,82,64
528050,note_on,,,,,14,0,1,,,,0,40,95
528052,note_off,,,,,2,0,1,,,,0,92,64
528052,note_on,,,,,0,0,1,,,,0,52,95
528054,note_off,,,,,2,0,1,,,,0,85,64
528100,control_change,,,,,46,0,1,,64,0,0,,
528126,control_change,,,,,26,0,1,,64,127,0,,
528132,note_on,,,,,0,0,1,,,,0,79,95
528132,note_on,,,,,6,0,1,,,,0,85,94
528134,note_on,,,,,2,0,1,,,,0,82,89
528136,note_on,,,,,2,0,1,,,,0,91,89
528164,note_off,,,,,28,0,1,,,,0,40,64
528168,note_off,,,,,4,0,1,,,,0,52,64
528200,note_off,,,,,32,0,1,,,,0,79,64
528208,note_off,,,,,8,0,1,,,,0,91,64
528226,note_on,,,,,18,0,1,,,,0,53,95
528228,note_on,,,,,0,0,1,,,,0,41,100
528228,note_off,,,,,2,0,1,,,,0,82,64
528236,note_off,,,,,8,0,1,,,,0,85,64
528250,control_change,,,,,14,0,1,,64,0,0,,
528314,note_on,,,,,64,0,1,,,,0,90,82
528316,note_on,,,,,0,0,1,,,,0,82,87
528316,note_on,,,,,2,0,1,,,,0,85,88
528318,note_on,,,,,2,0,1,,,,0,78,92
528326,control_change,,,,,8,0,1,,64,127,0,,
528344,note_off,,,,,18,0,1,,,,0,41,64
528344,note_off,,,,,0,0,1,,,,0,53,64
528408,note_on,,,,,64,0,1,,,,0,54,91
528410,note_on,,,,,2,0,1,,,,0,42,89
528428,note_off,,,,,18,0,1,,,,0,82,64
528438,note_off,,,,,10,0,1,,,,0,85,64
528440,note_off,,,,,2,0,1,,,,0,78,64
528446,control_change,,,,,6,0,1,,64,0,0,,
528452,note_off,,,,,6,0,1,,,,0,90,64
528498,control_change,,,,,46,0,1,,64,127,0,,
528504,note_on,,,,,6,0,1,,,,0,89,82
528504,note_on,,,,,0,0,1,,,,0,77,86
528506,note_on,,,,,2,0,1,,,,0,85,77
528508,note_on,,,,,2,0,1,,,,0,82,80
528546,note_off,,,,,38,0,1,,,,0,42,64
528550,note_off,,,,,4,0,1,,,,0,54,64
528614,note_on,,,,,64,0,1,,,,0,43,100
528616,note_on,,,,,2,0,1,,,,0,55,96
528622,control_change,,,,,6,0,1,,64,0,0,,
528630,note_off,,,,,8,0,1,,,,0,77,64
528632,note_off,,,,,2,0,1,,,,0,89,64
528642,note_off,,,,,10,0,1,,,,0,85,64
528644,note_off,,,,,2,0,1,,,,0,82,64
528674,control_change,,,,,30,0,1,,64,127,0,,
528678,note_off,,,,,4,0,1,,,,0,43,64
528692,note_off,,,,,14,0,1,,,,0,55,64
528716,note_on,,,,,24,0,1,,,,0,85,91
528718,note_on,,,,,2,0,1,,,,0,76,87
528720,note_on,,,,,2,0,1,,,,0,88,77
528722,note_on,,,,,2,0,1,,,,0,82,86
528752,note_off,,,,,30,0,1,,,,0,76,64
528768,note_off,,,,,16,0,1,,,,0,88,64
528810,note_off,,,,,42,0,1,,,,0,82,64
528810,note_off,,,,,0,0,1,,,,0,85,64
528830,note_on,,,,,20,0,1,,,,0,63,101
528832,note_on,,,,,2,0,1,,,,0,51,96
528834,control_change,,,,,2,0,1,,64,0,0,,
528916,control_change,,,,,82,0,1,,64,127,0,,
528932,note_on,,,,,16,0,1,,,,0,75,95
528934,note_on,,,,,2,0,1,,,,0,87,100
528948,note_off,,,,,14,0,1,,,,0,51,64
528952,note_off,,,,,4,0,1,,,,0,63,64
529040,note_off,,,,,88,0,1,,,,0,75,64
529042,note_on,,,,,2,0,1,,,,0,64,97
529044,note_on,,,,,2,0,1,,,,0,52,95
529054,note_off,,,,,10,0,1,,,,0,87,64
529066,control_change,,,,,12,0,1,,64,0,0,,
529134,control_change,,,,,68,0,1,,64,127,0,,
529142,note_off,,,,,8,0,1,,,,0,52,64
529146,note_off,,,,,4,0,1,,,,0,64,64
529152,note_on,,,,,6,0,1,,,,0,88,87
529152,note_on,,,,,0,0,1,,,,0,76,88
529218,note_off,,,,,66,0,1,,,,0,76,64
529220,note_off,,,,,2,0,1,,,,0,88,64
529270,note_on,,,,,50,0,1,,,,0,63,96
529274,note_on,,,,,4,0,1,,,,0,51,98
529278,control_change,,,,,4,0,1,,64,0,0,,
529314,note_off,,,,,36,0,1,,,,0,63,64
529322,control_change,,,,,8,0,1,,64,127,0,,
529326,note_off,,,,,4,0,1,,,,0,51,64
529396,note_on,,,,,70,0,1,,,,0,87,99
529396,note_on,,,,,0,0,1,,,,0,75,89
529420,note_off,,,,,24,0,1,,,,0,75,64
529430,note_off,,,,,10,0,1,,,,0,87,64
529584,note_on,,,,,154,0,1,,,,0,89,91
529584,note_on,,,,,0,0,1,,,,0,39,101
529586,note_on,,,,,0,0,1,,,,0,92,92
529586,note_on,,,,,2,0,1,,,,0,96,98
529588,note_on,,,,,0,0,1,,,,0,51,106
529588,note_on,,,,,2,0,1,,,,0,101,96
529596,control_change,,,,,8,0,1,,64,0,0,,
529598,note_on,,,,,2,0,1,,,,0,99,79
529608,note_off,,,,,10,0,1,,,,0,99,64
529674,control_change,,,,,66,0,1,,64,127,0,,
529680,note_off,,,,,6,0,1,,,,0,39,64
529692,note_off,,,,,12,0,1,,,,0,51,64
529728,note_off,,,,,36,0,1,,,,0,101,64
529744,note_off,,,,,16,0,1,,,,0,89,64
529748,note_off,,,,,4,0,1,,,,0,92,64
529758,note_off,,,,,10,0,1,,,,0,96,64
529868,note_on,,,,,110,0,1,,,,0,68,89
529872,note_on,,,,,0,0,1,,,,0,76,80
529872,note_on,,,,,4,0,1,,,,0,92,101
529874,note_on,,,,,2,0,1,,,,0,72,83
529876,note_on,,,,,2,0,1,,,,0,88,93
529950,note_off,,,,,74,0,1,,,,0,88,64
529958,note_off,,,,,8,0,1,,,,0,92,64
529960,note_on,,,,,2,0,1,,,,0,100,91
530028,note_off,,,,,68,0,1,,,,0,100,64
530044,note_on,,,,,16,0,1,,,,0,92,98
530046,note_on,,,,,2,0,1,,,,0,88,86
530056,note_off,,,,,10,0,1,,,,0,76,64
530062,note_off,,,,,6,0,1,,,,0,68,64
530074,note_off,,,,,12,0,1,,,,0,72,64
530088,note_off,,,,,14,0,1,,,,0,88,64
530112,note_off,,,,,24,0,1,,,,0,92,64
530130,note_on,,,,,18,0,1,,,,0,100,92
530184,note_off,,,,,54,0,1,,,,0,100,64
530210,note_on,,,,,26,0,1,,,,0,75,96
530212,note_on,,,,,2,0,1,,,,0,63,85
530214,note_on,,,,,2,0,1,,,,0,92,95
530216,note_on,,,,,0,0,1,,,,0,72,84
530216,note_on,,,,,2,0,1,,,,0,87,95
530218,note_on,,,,,2,0,1,,,,0,68,76
530244,control_change,,,,,26,0,1,,64,0,0,,
530274,control_change,,,,,30,0,1,,64,127,0,,
530278,note_off,,,,,4,0,1,,,,0,87,64
530298,note_on,,,,,20,0,1,,,,0,99,95
530312,note_off,,,,,14,0,1,,,,0,92,64
530370,note_off,,,,,58,0,1,,,,0,75,64
530384,note_off,,,,,14,0,1,,,,0,99,64
530388,note_on,,,,,4,0,1,,,,0,87,94
530390,note_on,,,,,2,0,1,,,,0,92,91
530404,note_off,,,,,14,0,1,,,,0,72,64
530416,note_off,,,,,12,0,1,,,,0,63,64
530418,note_off,,,,,2,0,1,,,,0,68,64
530434,note_off,,,,,16,0,1,,,,0,87,64
530454,note_off,,,,,20,0,1,,,,0,92,64
530472,note_on,,,,,18,0,1,,,,0,99,91
530512,note_off,,,,,40,0,1,,,,0,99,64
530552,note_on,,,,,40,0,1,,,,0,84,91
530554,note_on,,,,,2,0,1,,,,0,92,94
530556,note_on,,,,,0,0,1,,,,0,63,80
530556,note_on,,,,,2,0,1,,,,0,72,84
530558,note_on,,,,,2,0,1,,,,0,68,75
530594,note_off,,,,,36,0,1,,,,0,72,64
530596,note_off,,,,,2,0,1,,,,0,84,64
530610,note_off,,,,,14,0,1,,,,0,68,64
530612,note_off,,,,,2,0,1,,,,0,63,64
530638,note_on,,,,,26,0,1,,,,0,96,95
530644,note_off,,,,,6,0,1,,,,0,92,64
530700,note_off,,,,,56,0,1,,,,0,96,64
530726,note_on,,,,,26,0,1,,,,0,84,93
530728,note_on,,,,,2,0,1,,,,0,92,93
530768,note_off,,,,,40,0,1,,,,0,84,64
530804,note_on,,,,,36,0,1,,,,0,96,92
530816,note_off,,,,,12,0,1,,,,0,92,64
530842,note_off,,,,,26,0,1,,,,0,96,64
530904,note_on,,,,,62,0,1,,,,0,51,107
530906,note_on,,,,,2,0,1,,,,0,39,103
530940,control_change,,,,,34,0,1,,64,0,0,,
531008,note_on,,,,,0,0,1,,,,0,80,89
531008,note_on,,,,,68,0,1,,,,0,92,94
531010,note_on,,,,,2,0,1,,,,0,87,92
531010,note_on,,,,,0,0,1,,,,0,84,83
531044,note_off,,,,,0,0,1,,,,0,51,64
531044,note_off,,,,,34,0,1,,,,0,39,64
531108,note_off,,,,,64,0,1,,,,0,84,64
531116,note_on,,,,,0,0,1,,,,0,39,96
531116,note_on,,,,,8,0,1,,,,0,51,103
531118,note_off,,,,,2,0,1,,,,0,87,64
531122,note_off,,,,,4,0,1,,,,0,92,64
531126,note_off,,,,,4,0,1,,,,0,80,64
531176,control_change,,,,,50,0,1,,64,127,0,,
531208,note_on,,,,,0,0,1,,,,0,80,95
531208,note_on,,,,,32,0,1,,,,0,92,97
531210,note_on,,,,,2,0,1,,,,0,85,89
531210,note_on,,,,,0,0,1,,,,0,82,92
531234,note_off,,,,,24,0,1,,,,0,51,64
531246,note_off,,,,,12,0,1,,,,0,39,64
531306,note_on,,,,,60,0,1,,,,0,52,91
531308,note_on,,,,,2,0,1,,,,0,40,96
531322,note_off,,,,,14,0,1,,,,0,80,64
531326,note_off,,,,,0,0,1,,,,0,92,64
531326,note_off,,,,,4,0,1,,,,0,82,64
531330,note_off,,,,,4,0,1,,,,0,85,64
531340,control_change,,,,,10,0,1,,64,0,0,,
531372,control_change,,,,,32,0,1,,64,127,0,,
531392,note_on,,,,,20,0,1,,,,0,85,92
531394,note_on,,,,,0,0,1,,,,0,79,88
531394,note_on,,,,,2,0,1,,,,0,91,91
531396,note_on,,,,,2,0,1,,,,0,82,90
531418,note_off,,,,,22,0,1,,,,0,52,64
531420,note_off,,,,,2,0,1,,,,0,40,64
531466,note_off,,,,,46,0,1,,,,0,79,64
531472,note_off,,,,,6,0,1,,,,0,91,64
531494,note_on,,,,,22,0,1,,,,0,53,93
531494,note_on,,,,,0,0,1,,,,0,41,100
531496,note_off,,,,,2,0,1,,,,0,85,64
531500,note_off,,,,,4,0,1,,,,0,82,64
531512,control_change,,,,,12,0,1,,64,0,0,,
531582,note_on,,,,,70,0,1,,,,0,90,89
531584,note_on,,,,,2,0,1,,,,0,78,95
531586,note_on,,,,,2,0,1,,,,0,82,89
531588,note_on,,,,,2,0,1,,,,0,85,87
531594,control_change,,,,,6,0,1,,64,127,0,,
531612,note_off,,,,,18,0,1,,,,0,41,64
531612,note_off,,,,,0,0,1,,,,0,53,64
531684,note_on,,,,,72,0,1,,,,0,54,95
531684,note_on,,,,,0,0,1,,,,0,42,89
531700,control_change,,,,,16,0,1,,64,0,0,,
531714,note_off,,,,,14,0,1,,,,0,85,64
531714,note_off,,,,,0,0,1,,,,0,82,64
531716,note_off,,,,,2,0,1,,,,0,78,64
531732,note_off,,,,,16,0,1,,,,0,90,64
531736,control_change,,,,,4,0,1,,64,127,0,,
531788,note_on,,,,,52,0,1,,,,0,89,84
531788,note_on,,,,,0,0,1,,,,0,82,86
531790,note_on,,,,,2,0,1,,,,0,77,84
531792,note_on,,,,,2,0,1,,,,0,85,86
531828,note_off,,,,,36,0,1,,,,0,54,64
531830,note_off,,,,,2,0,1,,,,0,42,64
531900,note_on,,,,,0,0,1,,,,0,43,99
531900,note_on,,,,,70,0,1,,,,0,55,98
531902,control_change,,,,,2,0,1,,64,0,0,,
531916,note_off,,,,,14,0,1,,,,0,89,64
531922,note_off,,,,,6,0,1,,,,0,85,64
531924,note_off,,,,,2,0,1,,,,0,82,64
531930,note_off,,,,,6,0,1,,,,0,77,64
531952,control_change,,,,,22,0,1,,64,127,0,,
531992,note_off,,,,,40,0,1,,,,0,55,64
532006,note_on,,,,,0,0,1,,,,0,76,90
532006,note_on,,,,,14,0,1,,,,0,82,96
532008,note_on,,,,,0,0,1,,,,0,85,94
532008,note_on,,,,,2,0,1,,,,0,88,85
532010,note_off,,,,,2,0,1,,,,0,43,64
532082,note_off,,,,,0,0,1,,,,0,76,64
532082,note_off,,,,,72,0,1,,,,0,85,64
532096,note_off,,,,,14,0,1,,,,0,82,64
532116,note_off,,,,,20,0,1,,,,0,88,64
532120,control_change,,,,,4,0,1,,64,0,0,,
532126,note_on,,,,,6,0,1,,,,0,52,98
532128,note_on,,,,,2,0,1,,,,0,40,98
532172,control_change,,,,,44,0,1,,64,127,0,,
532210,note_off,,,,,38,0,1,,,,0,40,64
532210,note_off,,,,,0,0,1,,,,0,52,64
532232,note_on,,,,,0,0,1,,,,0,79,97
532232,note_on,,,,,22,0,1,,,,0,91,95
532288,note_off,,,,,56,0,1,,,,0,79,64
532304,note_off,,,,,16,0,1,,,,0,91,64
532364,note_on,,,,,0,0,1,,,,0,37,99
532364,note_on,,,,,60,0,1,,,,0,49,100
532366,control_change,,,,,2,0,1,,64,0,0,,
532420,control_change,,,,,54,0,1,,64,127,0,,
532454,note_off,,,,,34,0,1,,,,0,37,64
532466,note_off,,,,,12,0,1,,,,0,49,64
532500,note_on,,,,,0,0,1,,,,0,82,100
532500,note_on,,,,,34,0,1,,,,0,94,101
532586,note_off,,,,,86,0,1,,,,0,94,64
532620,note_off,,,,,34,0,1,,,,0,82,64
532638,note_on,,,,,18,0,1,,,,0,57,98
532640,note_on,,,,,2,0,1,,,,0,45,98
532646,control_change,,,,,6,0,1,,64,0,0,,
532726,control_change,,,,,80,0,1,,64,127,0,,
532742,note_off,,,,,16,0,1,,,,0,57,64
532768,note_off,,,,,26,0,1,,,,0,45,64
532792,note_on,,,,,0,0,1,,,,0,81,88
532792,note_on,,,,,24,0,1,,,,0,93,90
532826,note_off,,,,,34,0,1,,,,0,81,64
532848,note_off,,,,,22,0,1,,,,0,93,64
533016,note_on,,,,,0,0,1,,,,0,38,83
533016,note_on,,,,,168,0,1,,,,0,50,84
533048,note_off,,,,,32,0,1,,,,0,38,64
533056,control_change,,,,,8,0,1,,64,127,0,,
533060,note_off,,,,,4,0,1,,,,0,50,64
533148,note_on,,,,,88,0,1,,,,0,91,82
533150,note_on,,,,,2,0,1,,,,0,79,85
533188,note_off,,,,,0,0,1,,,,0,91,64
533188,note_off,,,,,38,0,1,,,,0,79,64
533270,note_on,,,,,82,0,1,,,,0,67,81
533272,note_on,,,,,2,0,1,,,,0,62,80
533306,note_off,,,,,34,0,1,,,,0,67,64
533320,note_off,,,,,14,0,1,,,,0,62,64
533384,note_on,,,,,64,0,1,,,,0,69,75
533386,note_on,,,,,2,0,1,,,,0,74,83
533408,note_off,,,,,22,0,1,,,,0,69,64
533422,note_off,,,,,14,0,1,,,,0,74,64
533500,note_on,,,,,78,0,1,,,,0,66,84
533508,note_on,,,,,8,0,1,,,,0,57,82
533534,note_off,,,,,26,0,1,,,,0,66,64
533540,note_off,,,,,6,0,1,,,,0,57,64
533618,note_on,,,,,78,0,1,,,,0,90,85
533618,note_on,,,,,0,0,1,,,,0,78,87
533660,note_off,,,,,42,0,1,,,,0,78,64
533668,note_off,,,,,8,0,1,,,,0,90,64
533736,control_change,,,,,68,0,1,,64,0,0,,
533740,note_on,,,,,4,0,1,,,,0,42,85
533792,control_change,,,,,52,0,1,,64,127,0,,
533858,note_off,,,,,66,0,1,,,,0,42,64
533862,note_on,,,,,4,0,1,,,,0,88,81
533864,note_on,,,,,2,0,1,,,,0,76,72
533900,note_off,,,,,0,0,1,,,,0,88,64
533900,note_off,,,,,36,0,1,,,,0,76,64
533970,note_on,,,,,0,0,1,,,,0,58,77
533970,note_on,,,,,70,0,1,,,,0,64,69
533998,note_off,,,,,28,0,1,,,,0,64,64
534006,note_off,,,,,8,0,1,,,,0,58,64
534082,note_on,,,,,76,0,1,,,,0,70,78
534082,note_on,,,,,0,0,1,,,,0,66,72
534104,note_off,,,,,22,0,1,,,,0,66,64
534120,note_off,,,,,16,0,1,,,,0,70,64
534200,note_on,,,,,0,0,1,,,,0,54,76
534200,note_on,,,,,80,0,1,,,,0,62,73
534228,note_off,,,,,28,0,1,,,,0,62,64
534232,note_off,,,,,4,0,1,,,,0,54,64
534302,note_on,,,,,70,0,1,,,,0,86,80
534306,note_on,,,,,4,0,1,,,,0,74,68
534406,note_off,,,,,100,0,1,,,,0,74,64
534410,note_off,,,,,4,0,1,,,,0,86,64
534426,note_on,,,,,16,0,1,,,,0,43,91
534436,control_change,,,,,10,0,1,,64,0,0,,
534480,control_change,,,,,44,0,1,,64,127,0,,
534552,note_on,,,,,72,0,1,,,,0,85,84
534554,note_on,,,,,2,0,1,,,,0,73,79
534568,note_off,,,,,14,0,1,,,,0,43,64
534586,note_off,,,,,18,0,1,,,,0,85,64
534588,note_off,,,,,2,0,1,,,,0,73,64
534672,note_on,,,,,0,0,1,,,,0,55,72
534672,note_on,,,,,84,0,1,,,,0,61,81
534704,note_off,,,,,0,0,1,,,,0,61,64
534704,note_off,,,,,32,0,1,,,,0,55,64
534776,note_on,,,,,0,0,1,,,,0,63,82
534776,note_on,,,,,72,0,1,,,,0,67,82
534812,note_off,,,,,36,0,1,,,,0,63,64
534812,note_off,,,,,0,0,1,,,,0,67,64
534892,note_on,,,,,80,0,1,,,,0,51,84
534894,note_on,,,,,2,0,1,,,,0,59,81
534916,note_off,,,,,22,0,1,,,,0,59,64
534928,note_off,,,,,12,0,1,,,,0,51,64
535002,note_on,,,,,74,0,1,,,,0,71,80
535004,note_on,,,,,2,0,1,,,,0,83,80
535050,note_off,,,,,46,0,1,,,,0,71,64
535064,note_off,,,,,14,0,1,,,,0,83,64
535120,note_on,,,,,56,0,1,,,,0,40,85
535130,control_change,,,,,10,0,1,,64,0,0,,
535182,control_change,,,,,52,0,1,,64,127,0,,
535230,note_on,,,,,48,0,1,,,,0,81,75
535234,note_on,,,,,4,0,1,,,,0,69,67
535268,note_off,,,,,34,0,1,,,,0,69,64
535270,note_off,,,,,2,0,1,,,,0,40,64
535272,note_off,,,,,2,0,1,,,,0,81,64
535346,note_on,,,,,74,0,1,,,,0,57,79
535350,note_on,,,,,4,0,1,,,,0,52,79
535382,note_off,,,,,32,0,1,,,,0,57,64
535388,note_off,,,,,6,0,1,,,,0,52,64
535460,note_on,,,,,0,0,1,,,,0,59,61
535460,note_on,,,,,72,0,1,,,,0,64,74
535472,note_off,,,,,12,0,1,,,,0,59,64
535498,note_off,,,,,26,0,1,,,,0,64,64
535588,note_on,,,,,90,0,1,,,,0,55,80
535590,note_on,,,,,2,0,1,,,,0,47,81
535618,note_off,,,,,28,0,1,,,,0,55,64
535632,note_off,,,,,14,0,1,,,,0,47,64
535712,note_on,,,,,80,0,1,,,,0,79,83
535712,note_on,,,,,0,0,1,,,,0,67,79
535838,control_change,,,,,126,0,1,,64,0,0,,
535844,note_on,,,,,6,0,1,,,,0,33,85
535846,note_on,,,,,2,0,1,,,,0,45,85
535896,note_off,,,,,50,0,1,,,,0,67,64
535898,note_off,,,,,2,0,1,,,,0,79,64
535906,control_change,,,,,8,0,1,,64,127,0,,
535910,note_off,,,,,4,0,1,,,,0,33,64
535936,note_off,,,,,26,0,1,,,,0,45,64
535980,note_on,,,,,0,0,1,,,,0,67,81
535980,note_on,,,,,44,0,1,,,,0,79,82
536016,note_off,,,,,36,0,1,,,,0,79,64
536018,note_off,,,,,2,0,1,,,,0,67,64
536086,note_on,,,,,68,0,1,,,,0,55,80
536090,note_on,,,,,4,0,1,,,,0,50,79
536126,note_off,,,,,36,0,1,,,,0,55,64
536136,note_off,,,,,10,0,1,,,,0,50,64
536196,note_on,,,,,60,0,1,,,,0,57,71
536198,note_on,,,,,2,0,1,,,,0,62,79
536224,note_off,,,,,26,0,1,,,,0,57,64
536238,note_off,,,,,14,0,1,,,,0,62,64
536312,note_on,,,,,74,0,1,,,,0,54,86
536314,note_on,,,,,2,0,1,,,,0,45,77
536348,control_change,,,,,34,0,1,,64,0,0,,
536378,note_off,,,,,30,0,1,,,,0,45,64
536384,control_change,,,,,6,0,1,,64,127,0,,
536398,note_off,,,,,14,0,1,,,,0,54,64
536414,note_on,,,,,16,0,1,,,,0,66,82
536416,note_on,,,,,2,0,1,,,,0,78,84
536452,note_off,,,,,36,0,1,,,,0,66,64
536466,note_off,,,,,14,0,1,,,,0,78,64
536528,note_on,,,,,62,0,1,,,,0,59,88
536572,control_change,,,,,44,0,1,,64,0,0,,
536598,control_change,,,,,26,0,1,,64,127,0,,
536640,note_on,,,,,0,0,1,,,,0,71,77
536640,note_on,,,,,42,0,1,,,,0,83,76
536682,note_off,,,,,42,0,1,,,,0,59,64
536682,note_off,,,,,0,0,1,,,,0,71,64
536688,note_off,,,,,6,0,1,,,,0,83,64
536748,note_on,,,,,60,0,1,,,,0,54,74
536750,note_on,,,,,2,0,1,,,,0,50,79
536796,note_off,,,,,46,0,1,,,,0,54,64
536804,note_off,,,,,8,0,1,,,,0,50,64
536854,note_on,,,,,50,0,1,,,,0,66,81
536854,note_on,,,,,0,0,1,,,,0,62,72
536884,note_off,,,,,30,0,1,,,,0,62,64
536900,note_off,,,,,16,0,1,,,,0,66,64
536980,note_on,,,,,80,0,1,,,,0,57,92
536982,note_on,,,,,2,0,1,,,,0,45,87
536996,control_change,,,,,14,0,1,,64,0,0,,
537016,control_change,,,,,20,0,1,,64,127,0,,
537022,note_off,,,,,6,0,1,,,,0,57,64
537050,note_off,,,,,28,0,1,,,,0,45,64
537090,note_on,,,,,40,0,1,,,,0,81,61
537092,note_on,,,,,2,0,1,,,,0,69,74
537148,note_off,,,,,56,0,1,,,,0,69,64
537154,note_off,,,,,6,0,1,,,,0,81,64
537228,note_on,,,,,74,0,1,,,,0,45,94
537232,note_on,,,,,4,0,1,,,,0,33,94
537254,control_change,,,,,22,0,1,,64,0,0,,
537308,control_change,,,,,54,0,1,,64,127,0,,
537324,note_off,,,,,16,0,1,,,,0,45,64
537334,note_off,,,,,10,0,1,,,,0,33,64
537362,note_on,,,,,28,0,1,,,,0,78,83
537362,note_on,,,,,0,0,1,,,,0,66,84
537402,note_off,,,,,40,0,1,,,,0,66,64
537404,note_off,,,,,2,0,1,,,,0,78,64
537472,note_on,,,,,68,0,1,,,,0,54,83
537478,note_on,,,,,6,0,1,,,,0,49,79
537508,control_change,,,,,30,0,1,,64,0,0,,
537522,control_change,,,,,14,0,1,,64,127,0,,
537540,note_off,,,,,18,0,1,,,,0,54,64
537566,note_off,,,,,26,0,1,,,,0,49,64
537578,note_on,,,,,12,0,1,,,,0,57,83
537580,note_on,,,,,2,0,1,,,,0,61,72
537610,note_off,,,,,30,0,1,,,,0,61,64
537632,note_off,,,,,22,0,1,,,,0,57,64
537688,note_on,,,,,56,0,1,,,,0,52,87
537688,note_on,,,,,0,0,1,,,,0,45,84
537728,note_off,,,,,40,0,1,,,,0,45,64
537740,note_off,,,,,12,0,1,,,,0,52,64
537800,note_on,,,,,60,0,1,,,,0,76,76
537800,note_on,,,,,0,0,1,,,,0,64,82
537832,note_off,,,,,32,0,1,,,,0,64,64
537856,note_off,,,,,24,0,1,,,,0,76,64
537920,note_on,,,,,64,0,1,,,,0,59,92
537936,control_change,,,,,16,0,1,,64,0,0,,
537964,control_change,,,,,28,0,1,,64,127,0,,
538044,note_on,,,,,80,0,1,,,,0,83,72
538044,note_on,,,,,0,0,1,,,,0,71,71
538080,note_off,,,,,36,0,1,,,,0,59,64
538082,note_off,,,,,2,0,1,,,,0,71,64
538096,note_off,,,,,14,0,1,,,,0,83,64
538164,note_on,,,,,68,0,1,,,,0,52,83
538164,note_on,,,,,0,0,1,,,,0,49,82
538188,control_change,,,,,24,0,1,,64,0,0,,
538212,control_change,,,,,24,0,1,,64,127,0,,
538284,note_on,,,,,72,0,1,,,,0,61,84
538288,note_on,,,,,4,0,1,,,,0,64,74
538316,note_off,,,,,28,0,1,,,,0,61,64
538332,note_off,,,,,16,0,1,,,,0,64,64
538376,note_off,,,,,44,0,1,,,,0,52,64
538398,note_off,,,,,22,0,1,,,,0,49,64
538426,note_on,,,,,28,0,1,,,,0,45,91
538428,note_on,,,,,2,0,1,,,,0,57,98
538432,control_change,,,,,4,0,1,,64,0,0,,
538452,control_change,,,,,20,0,1,,64,127,0,,
538468,note_off,,,,,16,0,1,,,,0,57,64
538488,note_off,,,,,20,0,1,,,,0,45,64
538562,note_on,,,,,0,0,1,,,,0,69,85
538562,note_on,,,,,74,0,1,,,,0,81,82
538596,note_off,,,,,34,0,1,,,,0,69,64
538622,note_off,,,,,26,0,1,,,,0,81,64
538714,note_on,,,,,92,0,1,,,,0,38,85
538716,note_on,,,,,2,0,1,,,,0,50,100
538720,control_change,,,,,4,0,1,,64,0,0,,
538790,control_change,,,,,70,0,1,,64,127,0,,
538812,note_off,,,,,22,0,1,,,,0,38,64
538832,note_off,,,,,20,0,1,,,,0,50,64
538866,note_on,,,,,0,0,1,,,,0,79,82
538866,note_on,,,,,34,0,1,,,,0,91,84
538910,note_off,,,,,44,0,1,,,,0,79,64
538912,note_off,,,,,2,0,1,,,,0,91,64
538992,note_on,,,,,80,0,1,,,,0,67,82
538996,note_on,,,,,4,0,1,,,,0,62,84
539026,note_off,,,,,30,0,1,,,,0,67,64
539038,note_off,,,,,12,0,1,,,,0,62,64
539096,note_on,,,,,58,0,1,,,,0,69,80
539100,note_on,,,,,4,0,1,,,,0,74,82
539126,note_off,,,,,26,0,1,,,,0,69,64
539144,note_off,,,,,18,0,1,,,,0,74,64
539202,note_on,,,,,58,0,1,,,,0,66,90
539208,note_on,,,,,6,0,1,,,,0,57,79
539234,note_off,,,,,26,0,1,,,,0,66,64
539242,note_off,,,,,8,0,1,,,,0,57,64
539308,note_on,,,,,66,0,1,,,,0,90,89
539310,note_on,,,,,2,0,1,,,,0,78,87
539416,note_on,,,,,106,0,1,,,,0,42,93
539418,control_change,,,,,2,0,1,,64,0,0,,
539422,note_off,,,,,4,0,1,,,,0,90,64
539432,note_off,,,,,10,0,1,,,,0,78,64
539454,control_change,,,,,22,0,1,,64,127,0,,
539468,note_off,,,,,14,0,1,,,,0,42,64
539528,note_on,,,,,60,0,1,,,,0,88,82
539530,note_on,,,,,2,0,1,,,,0,76,76
539568,note_off,,,,,38,0,1,,,,0,76,64
539572,note_off,,,,,4,0,1,,,,0,88,64
539628,note_on,,,,,56,0,1,,,,0,58,84
539630,note_on,,,,,2,0,1,,,,0,64,82
539668,note_off,,,,,38,0,1,,,,0,64,64
539674,note_off,,,,,6,0,1,,,,0,58,64
539732,note_on,,,,,58,0,1,,,,0,70,83
539734,note_on,,,,,2,0,1,,,,0,66,78
539762,note_off,,,,,28,0,1,,,,0,66,64
539782,note_off,,,,,20,0,1,,,,0,70,64
539840,note_on,,,,,0,0,1,,,,0,54,84
539840,note_on,,,,,58,0,1,,,,0,62,78
539868,note_off,,,,,28,0,1,,,,0,62,64
539876,note_off,,,,,8,0,1,,,,0,54,64
539938,note_on,,,,,62,0,1,,,,0,86,87
539940,note_on,,,,,2,0,1,,,,0,74,79
540022,note_off,,,,,82,0,1,,,,0,74,64
540030,note_off,,,,,8,0,1,,,,0,86,64
540058,note_on,,,,,28,0,1,,,,0,43,91
540060,control_change,,,,,2,0,1,,64,0,0,,
540100,control_change,,,,,40,0,1,,64,127,0,,
540102,note_off,,,,,2,0,1,,,,0,43,64
540172,note_on,,,,,70,0,1,,,,0,85,87
540174,note_on,,,,,2,0,1,,,,0,73,90
540208,note_off,,,,,34,0,1,,,,0,73,64
540208,note_off,,,,,0,0,1,,,,0,85,64
540264,note_on,,,,,56,0,1,,,,0,61,87
540270,note_on,,,,,6,0,1,,,,0,55,76
540280,note_on,,,,,10,0,1,,,,0,68,24
540296,note_off,,,,,16,0,1,,,,0,68,64
540298,note_off,,,,,2,0,1,,,,0,61,64
540302,note_off,,,,,4,0,1,,,,0,55,64
540368,note_on,,,,,66,0,1,,,,0,63,82
540372,note_on,,,,,4,0,1,,,,0,67,81
540394,note_off,,,,,22,0,1,,,,0,63,64
540402,note_off,,,,,8,0,1,,,,0,67,64
540472,note_on,,,,,70,0,1,,,,0,59,83
540472,note_on,,,,,0,0,1,,,,0,51,85
540496,note_off,,,,,24,0,1,,,,0,59,64
540508,note_off,,,,,12,0,1,,,,0,51,64
540572,note_on,,,,,64,0,1,,,,0,83,82
540572,note_on,,,,,0,0,1,,,,0,71,83
540652,note_off,,,,,80,0,1,,,,0,83,64
540664,note_off,,,,,12,0,1,,,,0,71,64
540680,note_on,,,,,16,0,1,,,,0,40,88
540684,control_change,,,,,4,0,1,,64,0,0,,
540726,control_change,,,,,42,0,1,,64,127,0,,
540728,note_off,,,,,2,0,1,,,,0,40,64
540788,note_on,,,,,60,0,1,,,,0,81,84
540790,note_on,,,,,2,0,1,,,,0,69,84
540826,note_off,,,,,36,0,1,,,,0,69,64
540830,note_off,,,,,4,0,1,,,,0,81,64
540890,note_on,,,,,60,0,1,,,,0,57,77
540898,note_on,,,,,8,0,1,,,,0,52,80
540926,note_off,,,,,28,0,1,,,,0,57,64
540944,note_off,,,,,18,0,1,,,,0,52,64
540994,note_on,,,,,50,0,1,,,,0,59,74
540998,note_on,,,,,4,0,1,,,,0,64,81
541018,note_off,,,,,20,0,1,,,,0,59,64
541036,note_off,,,,,18,0,1,,,,0,64,64
541120,note_on,,,,,84,0,1,,,,0,55,82
541122,note_on,,,,,2,0,1,,,,0,47,82
541148,note_off,,,,,26,0,1,,,,0,55,64
541164,note_off,,,,,16,0,1,,,,0,47,64
541238,note_on,,,,,74,0,1,,,,0,67,83
541240,note_on,,,,,2,0,1,,,,0,79,85
541352,control_change,,,,,112,0,1,,64,0,0,,
541364,note_on,,,,,12,0,1,,,,0,33,84
541366,note_on,,,,,2,0,1,,,,0,45,93
541404,note_off,,,,,38,0,1,,,,0,67,64
541408,note_off,,,,,4,0,1,,,,0,79,64
541418,control_change,,,,,10,0,1,,64,127,0,,
541424,note_off,,,,,6,0,1,,,,0,33,64
541446,note_off,,,,,22,0,1,,,,0,45,64
541484,note_on,,,,,38,0,1,,,,0,79,83
541486,note_on,,,,,2,0,1,,,,0,67,76
541520,note_off,,,,,34,0,1,,,,0,79,64
541524,note_off,,,,,4,0,1,,,,0,67,64
541594,note_on,,,,,70,0,1,,,,0,55,79
541596,note_on,,,,,2,0,1,,,,0,50,79
541630,note_off,,,,,34,0,1,,,,0,55,64
541642,note_off,,,,,12,0,1,,,,0,50,64
541688,note_on,,,,,46,0,1,,,,0,57,80
541690,note_on,,,,,2,0,1,,,,0,62,81
541714,note_off,,,,,24,0,1,,,,0,57,64
541732,note_off,,,,,18,0,1,,,,0,62,64
541804,note_on,,,,,72,0,1,,,,0,54,96
541806,note_on,,,,,2,0,1,,,,0,45,85
541844,note_off,,,,,38,0,1,,,,0,45,64
541846,control_change,,,,,2,0,1,,64,0,0,,
541866,note_off,,,,,20,0,1,,,,0,54,64
541868,control_change,,,,,2,0,1,,64,127,0,,
541908,note_on,,,,,0,0,1,,,,0,66,87
541908,note_on,,,,,40,0,1,,,,0,78,87
541942,note_off,,,,,34,0,1,,,,0,66,64
541960,note_off,,,,,18,0,1,,,,0,78,64
542016,note_on,,,,,56,0,1,,,,0,59,93
542056,control_change,,,,,40,0,1,,64,0,0,,
542074,control_change,,,,,18,0,1,,64,127,0,,
542120,note_on,,,,,46,0,1,,,,0,83,81
542122,note_on,,,,,2,0,1,,,,0,71,77
542142,note_off,,,,,20,0,1,,,,0,59,64
542160,note_off,,,,,18,0,1,,,,0,71,64
542164,note_off,,,,,4,0,1,,,,0,83,64
542212,note_on,,,,,0,0,1,,,,0,50,80
542212,note_on,,,,,48,0,1,,,,0,54,84
542234,control_change,,,,,22,0,1,,64,0,0,,
542256,control_change,,,,,22,0,1,,64,127,0,,
542316,note_on,,,,,60,0,1,,,,0,66,89
542320,note_on,,,,,4,0,1,,,,0,62,71
542346,note_off,,,,,26,0,1,,,,0,62,64
542360,note_off,,,,,14,0,1,,,,0,66,64
542370,note_off,,,,,10,0,1,,,,0,50,64
542396,note_off,,,,,26,0,1,,,,0,54,64
542424,note_on,,,,,28,0,1,,,,0,57,83
542428,note_on,,,,,4,0,1,,,,0,45,91
542456,note_off,,,,,28,0,1,,,,0,57,64
542464,note_off,,,,,8,0,1,,,,0,45,64
542536,note_on,,,,,72,0,1,,,,0,81,84
542538,note_on,,,,,2,0,1,,,,0,69,86
542660,note_on,,,,,0,0,1,,,,0,45,100
542660,note_on,,,,,0,0,1,,,,0,33,92
542660,note_off,,,,,122,0,1,,,,0,69,64
542662,note_off,,,,,2,0,1,,,,0,81,64
542674,control_change,,,,,12,0,1,,64,0,0,,
542700,note_off,,,,,26,0,1,,,,0,33,64
542716,control_change,,,,,16,0,1,,64,127,0,,
542726,note_off,,,,,10,0,1,,,,0,45,64
542786,note_on,,,,,60,0,1,,,,0,78,81
542788,note_on,,,,,2,0,1,,,,0,66,86
542828,note_off,,,,,40,0,1,,,,0,66,64
542828,note_off,,,,,0,0,1,,,,0,78,64
542888,note_on,,,,,60,0,1,,,,0,54,86
542896,note_on,,,,,8,0,1,,,,0,49,72
542950,note_off,,,,,54,0,1,,,,0,54,64
542956,note_off,,,,,6,0,1,,,,0,49,64
542992,note_on,,,,,36,0,1,,,,0,61,87
542994,note_on,,,,,2,0,1,,,,0,57,78
543020,note_off,,,,,26,0,1,,,,0,57,64
543044,note_off,,,,,24,0,1,,,,0,61,64
543108,note_on,,,,,64,0,1,,,,0,52,90
543108,note_on,,,,,0,0,1,,,,0,45,84
543146,control_change,,,,,38,0,1,,64,0,0,,
543166,control_change,,,,,20,0,1,,64,127,0,,
543170,note_off,,,,,4,0,1,,,,0,45,64
543190,note_off,,,,,20,0,1,,,,0,52,64
543220,note_on,,,,,0,0,1,,,,0,76,75
543220,note_on,,,,,30,0,1,,,,0,64,84
543252,note_off,,,,,32,0,1,,,,0,64,64
543270,note_off,,,,,18,0,1,,,,0,76,64
543352,note_on,,,,,82,0,1,,,,0,59,97
543376,control_change,,,,,24,0,1,,64,0,0,,
543400,control_change,,,,,24,0,1,,64,127,0,,
543464,note_on,,,,,0,0,1,,,,0,71,77
543464,note_on,,,,,64,0,1,,,,0,83,80
543488,note_off,,,,,24,0,1,,,,0,59,64
543500,note_off,,,,,12,0,1,,,,0,71,64
543508,note_off,,,,,8,0,1,,,,0,83,64
543584,note_on,,,,,0,0,1,,,,0,49,77
543584,note_on,,,,,76,0,1,,,,0,52,77
543618,control_change,,,,,34,0,1,,64,0,0,,
543640,control_change,,,,,22,0,1,,64,127,0,,
543696,note_on,,,,,56,0,1,,,,0,64,87
543696,note_on,,,,,0,0,1,,,,0,61,84
543718,note_off,,,,,22,0,1,,,,0,61,64
543730,note_off,,,,,12,0,1,,,,0,64,64
543818,note_off,,,,,88,0,1,,,,0,49,64
543818,note_off,,,,,0,0,1,,,,0,52,64
543826,note_on,,,,,8,0,1,,,,0,45,90
543828,note_on,,,,,2,0,1,,,,0,57,95
543860,note_off,,,,,32,0,1,,,,0,57,64
543862,note_off,,,,,2,0,1,,,,0,45,64
543954,note_on,,,,,92,0,1,,,,0,81,86
543956,note_on,,,,,2,0,1,,,,0,69,86
543988,note_off,,,,,32,0,1,,,,0,69,64
544020,note_off,,,,,32,0,1,,,,0,81,64
544094,note_on,,,,,74,0,1,,,,0,38,96
544096,note_on,,,,,2,0,1,,,,0,50,110
544100,control_change,,,,,4,0,1,,64,0,0,,
544168,control_change,,,,,68,0,1,,64,127,0,,
544184,note_off,,,,,16,0,1,,,,0,38,64
544206,note_off,,,,,22,0,1,,,,0,50,64
544242,note_on,,,,,0,0,1,,,,0,79,96
544242,note_on,,,,,36,0,1,,,,0,91,96
544284,note_off,,,,,42,0,1,,,,0,91,64
544286,note_off,,,,,2,0,1,,,,0,79,64
544362,note_on,,,,,0,0,1,,,,0,62,95
544362,note_on,,,,,76,0,1,,,,0,67,94
544398,note_off,,,,,36,0,1,,,,0,67,64
544408,note_off,,,,,10,0,1,,,,0,62,64
544464,note_on,,,,,56,0,1,,,,0,69,92
544466,note_on,,,,,2,0,1,,,,0,74,90
544494,note_off,,,,,28,0,1,,,,0,69,64
544516,note_off,,,,,22,0,1,,,,0,74,64
544570,note_on,,,,,54,0,1,,,,0,66,97
544574,note_on,,,,,4,0,1,,,,0,57,90
544600,note_off,,,,,26,0,1,,,,0,66,64
544610,note_off,,,,,10,0,1,,,,0,57,64
544680,note_on,,,,,0,0,1,,,,0,78,101
544680,note_on,,,,,70,0,1,,,,0,90,100
544756,note_off,,,,,76,0,1,,,,0,90,64
544764,note_off,,,,,8,0,1,,,,0,78,64
544782,note_on,,,,,18,0,1,,,,0,42,102
544794,control_change,,,,,12,0,1,,64,0,0,,
544834,control_change,,,,,40,0,1,,64,127,0,,
544838,note_off,,,,,4,0,1,,,,0,42,64
544894,note_on,,,,,56,0,1,,,,0,88,91
544896,note_on,,,,,2,0,1,,,,0,76,91
544932,note_off,,,,,36,0,1,,,,0,76,64
544934,note_off,,,,,2,0,1,,,,0,88,64
544996,note_on,,,,,62,0,1,,,,0,58,100
545000,note_on,,,,,4,0,1,,,,0,64,92
545038,note_off,,,,,38,0,1,,,,0,64,64
545044,note_off,,,,,6,0,1,,,,0,58,64
545096,note_on,,,,,0,0,1,,,,0,66,88
545096,note_on,,,,,52,0,1,,,,0,70,93
545122,note_off,,,,,26,0,1,,,,0,66,64
545138,note_off,,,,,16,0,1,,,,0,70,64
545196,note_on,,,,,58,0,1,,,,0,54,94
545198,note_on,,,,,2,0,1,,,,0,62,87
545224,note_off,,,,,26,0,1,,,,0,62,64
545230,note_off,,,,,6,0,1,,,,0,54,64
545304,note_on,,,,,0,0,1,,,,0,74,95
545304,note_on,,,,,74,0,1,,,,0,86,98
545378,note_off,,,,,74,0,1,,,,0,74,64
545384,note_off,,,,,6,0,1,,,,0,86,64
545412,control_change,,,,,28,0,1,,64,0,0,,
545416,note_on,,,,,4,0,1,,,,0,43,102
545452,control_change,,,,,36,0,1,,64,127,0,,
545456,note_off,,,,,4,0,1,,,,0,43,64
545530,note_on,,,,,74,0,1,,,,0,85,101
545530,note_on,,,,,0,0,1,,,,0,73,99
545562,note_off,,,,,0,0,1,,,,0,85,64
545562,note_off,,,,,32,0,1,,,,0,73,64
545630,note_on,,,,,0,0,1,,,,0,55,92
545630,note_on,,,,,68,0,1,,,,0,61,98
545660,note_off,,,,,30,0,1,,,,0,61,64
545664,note_off,,,,,4,0,1,,,,0,55,64
545728,note_on,,,,,64,0,1,,,,0,67,87
545728,note_on,,,,,0,0,1,,,,0,63,92
545752,note_off,,,,,24,0,1,,,,0,63,64
545764,note_off,,,,,12,0,1,,,,0,67,64
545840,note_on,,,,,76,0,1,,,,0,59,97
545840,note_on,,,,,0,0,1,,,,0,51,102
545864,note_off,,,,,24,0,1,,,,0,59,64
545876,note_off,,,,,12,0,1,,,,0,51,64
545946,note_on,,,,,70,0,1,,,,0,83,90
545948,note_on,,,,,2,0,1,,,,0,71,92
545992,note_off,,,,,44,0,1,,,,0,71,64
546004,note_off,,,,,12,0,1,,,,0,83,64
546062,note_on,,,,,58,0,1,,,,0,40,97
546068,control_change,,,,,6,0,1,,64,0,0,,
546110,control_change,,,,,42,0,1,,64,127,0,,
546112,note_off,,,,,2,0,1,,,,0,40,64
546178,note_on,,,,,66,0,1,,,,0,81,94
546180,note_on,,,,,2,0,1,,,,0,69,97
546214,note_off,,,,,34,0,1,,,,0,69,64
546214,note_off,,,,,0,0,1,,,,0,81,64
546282,note_on,,,,,68,0,1,,,,0,52,95
546284,note_on,,,,,2,0,1,,,,0,57,92
546320,note_off,,,,,36,0,1,,,,0,57,64
546328,note_off,,,,,8,0,1,,,,0,52,64
546394,note_on,,,,,66,0,1,,,,0,64,95
546394,note_on,,,,,0,0,1,,,,0,59,84
546418,note_off,,,,,24,0,1,,,,0,59,64
546432,note_off,,,,,14,0,1,,,,0,64,64
546518,note_on,,,,,86,0,1,,,,0,55,94
546524,note_on,,,,,6,0,1,,,,0,47,90
546550,note_off,,,,,26,0,1,,,,0,55,64
546564,note_off,,,,,14,0,1,,,,0,47,64
546640,note_on,,,,,0,0,1,,,,0,67,91
546640,note_on,,,,,76,0,1,,,,0,79,95
546734,note_off,,,,,0,0,1,,,,0,79,64
546734,note_off,,,,,94,0,1,,,,0,67,64
546768,control_change,,,,,34,0,1,,64,0,0,,
546772,note_on,,,,,0,0,1,,,,0,33,104
546772,note_on,,,,,4,0,1,,,,0,45,105
546840,note_off,,,,,68,0,1,,,,0,33,64
546844,control_change,,,,,4,0,1,,64,127,0,,
546870,note_off,,,,,26,0,1,,,,0,45,64
546904,note_on,,,,,34,0,1,,,,0,78,97
546906,note_on,,,,,2,0,1,,,,0,66,89
546940,note_off,,,,,34,0,1,,,,0,66,64
546944,note_off,,,,,4,0,1,,,,0,78,64
547010,note_on,,,,,66,0,1,,,,0,54,92
547016,note_on,,,,,6,0,1,,,,0,50,82
547064,note_off,,,,,48,0,1,,,,0,54,64
547070,note_off,,,,,6,0,1,,,,0,50,64
547114,note_on,,,,,44,0,1,,,,0,57,93
547116,note_on,,,,,2,0,1,,,,0,62,93
547144,note_off,,,,,28,0,1,,,,0,57,64
547160,note_off,,,,,16,0,1,,,,0,62,64
547228,note_on,,,,,68,0,1,,,,0,55,92
547230,note_on,,,,,2,0,1,,,,0,52,94
547248,control_change,,,,,18,0,1,,64,0,0,,
547276,control_change,,,,,28,0,1,,64,127,0,,
547340,note_on,,,,,0,0,1,,,,0,79,94
547340,note_off,,,,,64,0,1,,,,0,55,64
547342,note_on,,,,,2,0,1,,,,0,67,93
547348,note_off,,,,,6,0,1,,,,0,52,64
547402,note_off,,,,,54,0,1,,,,0,67,64
547404,note_off,,,,,2,0,1,,,,0,79,64
547460,note_on,,,,,0,0,1,,,,0,53,93
547460,note_on,,,,,56,0,1,,,,0,56,102
547486,control_change,,,,,26,0,1,,64,0,0,,
547520,control_change,,,,,34,0,1,,64,127,0,,
547574,note_off,,,,,54,0,1,,,,0,53,64
547580,note_on,,,,,6,0,1,,,,0,68,101
547582,note_on,,,,,2,0,1,,,,0,80,97
547586,note_off,,,,,4,0,1,,,,0,56,64
547622,note_off,,,,,36,0,1,,,,0,68,64
547624,note_off,,,,,2,0,1,,,,0,80,64
547690,note_on,,,,,66,0,1,,,,0,45,97
547728,control_change,,,,,38,0,1,,64,0,0,,
547762,control_change,,,,,34,0,1,,64,127,0,,
547798,note_on,,,,,36,0,1,,,,0,62,95
547844,note_off,,,,,46,0,1,,,,0,62,64
547868,note_off,,,,,24,0,1,,,,0,45,64
547908,note_on,,,,,0,0,1,,,,0,54,91
547908,note_on,,,,,40,0,1,,,,0,57,97
547984,note_off,,,,,76,0,1,,,,0,57,64
547992,note_off,,,,,8,0,1,,,,0,54,64
548030,note_on,,,,,38,0,1,,,,0,81,98
548032,note_on,,,,,2,0,1,,,,0,69,89
548068,note_off,,,,,36,0,1,,,,0,69,64
548078,note_off,,,,,10,0,1,,,,0,81,64
548144,note_on,,,,,66,0,1,,,,0,45,98
548176,control_change,,,,,32,0,1,,64,0,0,,
548218,control_change,,,,,42,0,1,,64,127,0,,
548258,note_on,,,,,40,0,1,,,,0,82,96
548260,note_on,,,,,2,0,1,,,,0,70,99
548300,note_off,,,,,40,0,1,,,,0,70,64
548306,note_off,,,,,6,0,1,,,,0,82,64
548380,note_on,,,,,74,0,1,,,,0,58,97
548388,note_on,,,,,8,0,1,,,,0,53,88
548390,note_on,,,,,2,0,1,,,,0,50,80
548478,note_off,,,,,88,0,1,,,,0,53,64
548480,note_off,,,,,2,0,1,,,,0,50,64
548500,note_on,,,,,20,0,1,,,,0,62,88
548502,note_on,,,,,2,0,1,,,,0,65,96
548504,note_off,,,,,0,0,1,,,,0,45,64
548504,note_off,,,,,2,0,1,,,,0,58,64
548536,note_off,,,,,32,0,1,,,,0,62,64
548556,note_off,,,,,20,0,1,,,,0,65,64
548632,note_on,,,,,76,0,1,,,,0,51,99
548634,note_on,,,,,2,0,1,,,,0,59,93
548636,note_on,,,,,2,0,1,,,,0,54,91
548668,control_change,,,,,32,0,1,,64,0,0,,
548702,control_change,,,,,34,0,1,,64,127,0,,
548752,note_on,,,,,50,0,1,,,,0,71,95
548754,note_on,,,,,2,0,1,,,,0,83,93
548792,note_off,,,,,38,0,1,,,,0,54,64
548806,note_off,,,,,14,0,1,,,,0,59,64
548808,note_off,,,,,2,0,1,,,,0,71,64
548816,note_off,,,,,8,0,1,,,,0,51,64
548856,note_off,,,,,40,0,1,,,,0,83,64
548890,note_on,,,,,34,0,1,,,,0,45,87
548914,control_change,,,,,24,0,1,,64,0,0,,
548954,control_change,,,,,40,0,1,,64,127,0,,
549020,note_on,,,,,66,0,1,,,,0,84,96
549022,note_on,,,,,2,0,1,,,,0,72,93
549054,note_off,,,,,32,0,1,,,,0,45,64
549078,note_off,,,,,24,0,1,,,,0,84,64
549080,note_off,,,,,2,0,1,,,,0,72,64
549154,note_on,,,,,0,0,1,,,,0,52,94
549154,note_on,,,,,74,0,1,,,,0,60,92
549160,note_on,,,,,6,0,1,,,,0,55,86
549184,control_change,,,,,24,0,1,,64,0,0,,
549208,control_change,,,,,24,0,1,,64,127,0,,
549286,note_on,,,,,78,0,1,,,,0,64,91
549288,note_on,,,,,2,0,1,,,,0,67,87
549296,note_off,,,,,8,0,1,,,,0,60,64
549298,note_off,,,,,2,0,1,,,,0,52,64
549302,note_off,,,,,4,0,1,,,,0,55,64
549320,note_off,,,,,18,0,1,,,,0,64,64
549338,note_off,,,,,18,0,1,,,,0,67,64
549464,note_on,,,,,126,0,1,,,,0,61,100
549468,note_on,,,,,0,0,1,,,,0,53,92
549468,note_on,,,,,4,0,1,,,,0,56,97
549498,control_change,,,,,30,0,1,,64,0,0,,
549578,control_change,,,,,80,0,1,,64,127,0,,
549648,note_off,,,,,70,0,1,,,,0,53,64
549650,note_on,,,,,2,0,1,,,,0,85,102
549650,note_on,,,,,0,0,1,,,,0,73,99
549656,note_off,,,,,6,0,1,,,,0,56,64
549660,note_off,,,,,4,0,1,,,,0,61,64
549704,note_off,,,,,44,0,1,,,,0,73,64
549716,note_off,,,,,12,0,1,,,,0,85,64
549816,note_on,,,,,100,0,1,,,,0,62,95
549818,note_on,,,,,0,0,1,,,,0,54,89
549818,note_on,,,,,2,0,1,,,,0,57,91
549840,set_tempo,,,,,23696,1,0,288462,,,,,
549860,control_change,,,,,42,0,1,,64,127,0,,
549860,set_tempo,,,,,20,1,0,289855,,,,,
549880,set_tempo,,,,,20,1,0,291262,,,,,
549900,note_off,,,,,40,0,1,,,,0,54,64
549900,set_tempo,,,,,20,1,0,292683,,,,,
549902,note_off,,,,,2,0,1,,,,0,57,64
549910,note_off,,,,,8,0,1,,,,0,62,64
549920,set_tempo,,,,,20,1,0,294118,,,,,
549940,set_tempo,,,,,20,1,0,295567,,,,,
549944,note_on,,,,,34,0,1,,,,0,74,87
549946,note_on,,,,,2,0,1,,,,0,86,86
549960,set_tempo,,,,,20,1,0,297030,,,,,
549980,set_tempo,,,,,20,1,0,298507,,,,,
549980,note_off,,,,,34,0,1,,,,0,74,64
549982,note_off,,,,,2,0,1,,,,0,86,64
550000,set_tempo,,,,,20,1,0,300000,,,,,
550020,set_tempo,,,,,20,1,0,301508,,,,,
550040,set_tempo,,,,,20,1,0,303030,,,,,
550058,note_on,,,,,76,0,1,,,,0,63,86
550058,note_on,,,,,0,0,1,,,,0,58,81
550068,note_on,,,,,10,0,1,,,,0,55,71
550070,control_change,,,,,2,0,1,,64,0,0,,
550080,set_tempo,,,,,40,1,0,306122,,,,,
550128,control_change,,,,,58,0,1,,64,127,0,,
550140,note_off,,,,,12,0,1,,,,0,55,64
550150,note_off,,,,,10,0,1,,,,0,58,64
550166,note_on,,,,,0,0,1,,,,0,79,81
550166,note_on,,,,,16,0,1,,,,0,87,87
550168,note_on,,,,,2,0,1,,,,0,75,77
550174,note_off,,,,,6,0,1,,,,0,63,64
550200,note_off,,,,,26,0,1,,,,0,75,64
550204,note_off,,,,,4,0,1,,,,0,79,64
550220,note_off,,,,,16,0,1,,,,0,87,64
550268,note_on,,,,,48,0,1,,,,0,64,88
550270,note_on,,,,,2,0,1,,,,0,56,87
550272,note_on,,,,,2,0,1,,,,0,59,79
550276,control_change,,,,,4,0,1,,64,0,0,,
550316,control_change,,,,,40,0,1,,64,127,0,,
550340,note_off,,,,,0,0,1,,,,0,56,64
550340,note_off,,,,,24,0,1,,,,0,59,64
550348,note_off,,,,,8,0,1,,,,0,64,64
550364,note_on,,,,,16,0,1,,,,0,88,75
550366,note_on,,,,,2,0,1,,,,0,80,87
550368,note_on,,,,,2,0,1,,,,0,76,77
550402,note_off,,,,,34,0,1,,,,0,76,64
550428,note_off,,,,,26,0,1,,,,0,80,64
550428,note_off,,,,,0,0,1,,,,0,88,64
550462,note_on,,,,,34,0,1,,,,0,65,86
550464,note_on,,,,,2,0,1,,,,0,60,82
550468,note_on,,,,,4,0,1,,,,0,57,83
550476,control_change,,,,,8,0,1,,64,0,0,,
550514,control_change,,,,,38,0,1,,64,127,0,,
550516,note_off,,,,,2,0,1,,,,0,60,64
550518,note_off,,,,,2,0,1,,,,0,57,64
550524,note_off,,,,,6,0,1,,,,0,65,64
550560,note_on,,,,,36,0,1,,,,0,89,80
550562,note_on,,,,,2,0,1,,,,0,81,82
550562,note_on,,,,,0,0,1,,,,0,77,77
550590,note_off,,,,,28,0,1,,,,0,77,64
550606,note_off,,,,,16,0,1,,,,0,89,64
550610,note_off,,,,,4,0,1,,,,0,81,64
550656,note_on,,,,,46,0,1,,,,0,66,89
550660,note_on,,,,,0,0,1,,,,0,58,77
550660,note_on,,,,,4,0,1,,,,0,61,74
550666,control_change,,,,,6,0,1,,64,0,0,,
550702,control_change,,,,,36,0,1,,64,127,0,,
550720,note_off,,,,,18,0,1,,,,0,58,64
550726,note_off,,,,,6,0,1,,,,0,61,64
550728,note_off,,,,,2,0,1,,,,0,66,64
550748,note_on,,,,,20,0,1,,,,0,82,89
550750,note_on,,,,,0,0,1,,,,0,78,82
550750,note_on,,,,,2,0,1,,,,0,90,87
550788,note_off,,,,,38,0,1,,,,0,78,64
550808,note_off,,,,,20,0,1,,,,0,90,64
550810,note_off,,,,,2,0,1,,,,0,82,64
550840,note_on,,,,,30,0,1,,,,0,67,84
550842,note_on,,,,,2,0,1,,,,0,59,83
550846,note_on,,,,,4,0,1,,,,0,62,74
550854,control_change,,,,,8,0,1,,64,0,0,,
550884,control_change,,,,,30,0,1,,64,127,0,,
550888,note_off,,,,,4,0,1,,,,0,67,64
550892,note_off,,,,,4,0,1,,,,0,62,64
550902,note_off,,,,,10,0,1,,,,0,59,64
550938,note_on,,,,,0,0,1,,,,0,83,82
550938,note_on,,,,,36,0,1,,,,0,91,83
550940,note_on,,,,,2,0,1,,,,0,79,77
550970,note_off,,,,,30,0,1,,,,0,79,64
551000,note_off,,,,,0,0,1,,,,0,91,64
551000,note_off,,,,,30,0,1,,,,0,83,64
551030,note_on,,,,,30,0,1,,,,0,68,93
551032,note_on,,,,,2,0,1,,,,0,63,81
551036,note_on,,,,,4,0,1,,,,0,60,73
551040,control_change,,,,,4,0,1,,64,0,0,,
551076,control_change,,,,,36,0,1,,64,127,0,,
551084,note_off,,,,,8,0,1,,,,0,60,64
551088,note_off,,,,,4,0,1,,,,0,63,64
551096,note_off,,,,,8,0,1,,,,0,68,64
551132,note_on,,,,,0,0,1,,,,0,80,86
551132,note_on,,,,,36,0,1,,,,0,92,88
551134,note_on,,,,,2,0,1,,,,0,84,82
551176,note_off,,,,,42,0,1,,,,0,80,64
551186,note_off,,,,,10,0,1,,,,0,84,64
551196,note_off,,,,,10,0,1,,,,0,92,64
551234,note_on,,,,,38,0,1,,,,0,61,82
551236,note_on,,,,,2,0,1,,,,0,69,84
551240,note_on,,,,,4,0,1,,,,0,64,77
551248,control_change,,,,,8,0,1,,64,0,0,,
551284,control_change,,,,,36,0,1,,64,127,0,,
551292,note_off,,,,,0,0,1,,,,0,69,64
551292,note_off,,,,,8,0,1,,,,0,64,64
551306,note_off,,,,,14,0,1,,,,0,61,64
551344,note_on,,,,,38,0,1,,,,0,93,90
551344,note_on,,,,,0,0,1,,,,0,85,92
551346,note_on,,,,,2,0,1,,,,0,81,85
551376,note_off,,,,,30,0,1,,,,0,81,64
551404,note_off,,,,,28,0,1,,,,0,93,64
551412,note_off,,,,,8,0,1,,,,0,85,64
551458,control_change,,,,,46,0,1,,64,0,0,,
551466,note_on,,,,,8,0,1,,,,0,70,97
551472,note_on,,,,,6,0,1,,,,0,65,81
551472,note_on,,,,,0,0,1,,,,0,62,78
551498,control_change,,,,,26,0,1,,64,127,0,,
551506,note_off,,,,,8,0,1,,,,0,65,64
551516,note_off,,,,,10,0,1,,,,0,62,64
551524,note_off,,,,,8,0,1,,,,0,70,64
551586,note_on,,,,,0,0,1,,,,0,82,85
551586,note_on,,,,,62,0,1,,,,0,94,91
551588,note_on,,,,,2,0,1,,,,0,86,80
551622,note_off,,,,,34,0,1,,,,0,82,64
551626,note_off,,,,,4,0,1,,,,0,86,64
551636,note_on,,,,,10,0,1,,,,0,57,74
551638,note_off,,,,,2,0,1,,,,0,94,64
551672,note_on,,,,,34,0,1,,,,0,63,81
551704,note_on,,,,,32,0,1,,,,0,66,78
551718,note_off,,,,,14,0,1,,,,0,57,64
551734,note_on,,,,,16,0,1,,,,0,71,95
551750,note_off,,,,,16,0,1,,,,0,63,64
551768,note_off,,,,,18,0,1,,,,0,66,64
551812,note_off,,,,,44,0,1,,,,0,71,64
551846,note_on,,,,,34,0,1,,,,0,95,74
551848,note_on,,,,,0,0,1,,,,0,83,81
551848,note_on,,,,,2,0,1,,,,0,87,90
551880,note_off,,,,,32,0,1,,,,0,83,64
551898,note_on,,,,,18,0,1,,,,0,57,83
551906,note_off,,,,,8,0,1,,,,0,87,64
551908,note_off,,,,,2,0,1,,,,0,95,64
551930,control_change,,,,,22,0,1,,64,0,0,,
551932,note_on,,,,,2,0,1,,,,0,64,71
551948,control_change,,,,,16,0,1,,64,127,0,,
551962,note_off,,,,,14,0,1,,,,0,57,64
551964,note_on,,,,,2,0,1,,,,0,67,61
552018,note_on,,,,,54,0,1,,,,0,72,100
552048,note_off,,,,,30,0,1,,,,0,67,64
552096,note_off,,,,,48,0,1,,,,0,72,64
552102,note_off,,,,,6,0,1,,,,0,64,64
552148,note_on,,,,,0,0,1,,,,0,88,83
552148,note_on,,,,,46,0,1,,,,0,96,83
552150,note_on,,,,,2,0,1,,,,0,84,78
552192,note_off,,,,,42,0,1,,,,0,84,64
552200,note_on,,,,,8,0,1,,,,0,57,85
552216,note_off,,,,,16,0,1,,,,0,96,64
552232,note_off,,,,,16,0,1,,,,0,88,64
552260,note_on,,,,,28,0,1,,,,0,64,91
552278,note_off,,,,,18,0,1,,,,0,57,64
552282,note_on,,,,,4,0,1,,,,0,67,71
552370,note_on,,,,,88,0,1,,,,0,73,101
552440,note_off,,,,,70,0,1,,,,0,67,64
552444,note_off,,,,,4,0,1,,,,0,73,64
552456,note_off,,,,,12,0,1,,,,0,64,64
552558,note_on,,,,,102,0,1,,,,0,97,93
552560,note_on,,,,,2,0,1,,,,0,88,82
552562,note_on,,,,,2,0,1,,,,0,85,93
552588,note_off,,,,,26,0,1,,,,0,97,64
552604,note_off,,,,,16,0,1,,,,0,85,64
552608,note_off,,,,,4,0,1,,,,0,88,64
552720,set_tempo,,,,,2640,1,0,307692,,,,,
552756,set_tempo,,,,,36,1,0,309278,,,,,
552770,note_on,,,,,162,0,1,,,,0,50,100
552772,note_on,,,,,2,0,1,,,,0,38,87
552792,set_tempo,,,,,36,1,0,310881,,,,,
552804,control_change,,,,,32,0,1,,64,0,0,,
552824,set_tempo,,,,,32,1,0,312500,,,,,
552860,set_tempo,,,,,36,1,0,314136,,,,,
552892,set_tempo,,,,,32,1,0,315789,,,,,
552910,control_change,,,,,106,0,1,,64,127,0,,
552928,set_tempo,,,,,36,1,0,317460,,,,,
552934,note_on,,,,,24,0,1,,,,0,62,79
552934,note_on,,,,,0,0,1,,,,0,54,81
552938,note_on,,,,,4,0,1,,,,0,57,81
552968,note_off,,,,,30,0,1,,,,0,54,64
552980,note_off,,,,,12,0,1,,,,0,57,64
552982,note_off,,,,,2,0,1,,,,0,50,64
552984,note_off,,,,,2,0,1,,,,0,62,64
552988,note_off,,,,,4,0,1,,,,0,38,64
552996,set_tempo,,,,,68,1,0,319149,,,,,
553032,set_tempo,,,,,36,1,0,322581,,,,,
553052,note_on,,,,,64,0,1,,,,0,62,82
553056,note_on,,,,,4,0,1,,,,0,54,80
553062,note_on,,,,,6,0,1,,,,0,57,82
553064,set_tempo,,,,,32,1,0,324324,,,,,
553084,note_off,,,,,22,0,1,,,,0,54,64
553092,note_off,,,,,8,0,1,,,,0,57,64
553100,set_tempo,,,,,36,1,0,326087,,,,,
553108,note_off,,,,,16,0,1,,,,0,62,64
553132,set_tempo,,,,,32,1,0,327869,,,,,
553168,set_tempo,,,,,36,1,0,329670,,,,,
553172,note_on,,,,,64,0,1,,,,0,51,93
553174,note_on,,,,,2,0,1,,,,0,39,86
553200,set_tempo,,,,,32,1,0,331492,,,,,
553212,note_off,,,,,38,0,1,,,,0,51,64
553222,note_off,,,,,10,0,1,,,,0,39,64
553236,set_tempo,,,,,36,1,0,333333,,,,,
553296,note_on,,,,,74,0,1,,,,0,51,100
553296,note_on,,,,,0,0,1,,,,0,39,87
553304,set_tempo,,,,,68,1,0,335196,,,,,
553306,control_change,,,,,10,0,1,,64,0,0,,
553340,set_tempo,,,,,36,1,0,337079,,,,,
553360,control_change,,,,,54,0,1,,64,127,0,,
553372,set_tempo,,,,,32,1,0,340909,,,,,
553400,note_on,,,,,40,0,1,,,,0,66,77
553400,note_on,,,,,0,0,1,,,,0,57,79
553402,note_on,,,,,2,0,1,,,,0,62,74
553408,set_tempo,,,,,36,1,0,342857,,,,,
553436,note_off,,,,,34,0,1,,,,0,57,64
553440,set_tempo,,,,,32,1,0,344828,,,,,
553446,note_off,,,,,10,0,1,,,,0,62,64
553456,note_off,,,,,0,0,1,,,,0,51,64
553456,note_off,,,,,10,0,1,,,,0,66,64
553476,set_tempo,,,,,36,1,0,346821,,,,,
553484,note_off,,,,,28,0,1,,,,0,39,64
553502,note_on,,,,,18,0,1,,,,0,66,77
553504,note_on,,,,,0,0,1,,,,0,57,82
553504,note_on,,,,,2,0,1,,,,0,62,77
553512,set_tempo,,,,,36,1,0,348837,,,,,
553544,set_tempo,,,,,32,1,0,350877,,,,,
553566,note_off,,,,,62,0,1,,,,0,57,64
553586,note_off,,,,,20,0,1,,,,0,62,64
553592,note_on,,,,,6,0,1,,,,0,50,86
553592,note_on,,,,,0,0,1,,,,0,38,83
553612,set_tempo,,,,,68,1,0,352941,,,,,
553624,note_off,,,,,32,0,1,,,,0,50,64
553626,note_off,,,,,2,0,1,,,,0,38,64
553632,note_off,,,,,6,0,1,,,,0,66,64
553648,set_tempo,,,,,36,1,0,355030,,,,,
553680,set_tempo,,,,,32,1,0,357143,,,,,
553684,note_on,,,,,0,0,1,,,,0,38,87
553684,note_on,,,,,52,0,1,,,,0,50,86
553696,control_change,,,,,12,0,1,,64,0,0,,
553742,control_change,,,,,46,0,1,,64,127,0,,
553768,note_on,,,,,26,0,1,,,,0,66,74
553770,note_on,,,,,2,0,1,,,,0,57,83
553772,note_on,,,,,0,0,1,,,,0,62,74
553772,note_on,,,,,2,0,1,,,,0,69,72
553790,note_off,,,,,18,0,1,,,,0,50,64
553806,note_off,,,,,0,0,1,,,,0,38,64
553806,note_off,,,,,16,0,1,,,,0,57,64
553812,note_off,,,,,6,0,1,,,,0,62,64
553812,note_off,,,,,0,0,1,,,,0,69,64
553820,note_off,,,,,8,0,1,,,,0,66,64
553856,note_on,,,,,36,0,1,,,,0,66,68
553860,note_on,,,,,0,0,1,,,,0,57,86
553860,note_on,,,,,4,0,1,,,,0,69,80
553864,note_on,,,,,4,0,1,,,,0,62,77
553884,note_off,,,,,20,0,1,,,,0,57,64
553896,note_off,,,,,12,0,1,,,,0,62,64
553908,note_off,,,,,12,0,1,,,,0,69,64
553914,note_off,,,,,6,0,1,,,,0,66,64
553940,note_on,,,,,26,0,1,,,,0,49,92
553940,note_on,,,,,0,0,1,,,,0,37,89
553970,note_off,,,,,30,0,1,,,,0,49,64
553974,note_off,,,,,4,0,1,,,,0,37,64
554024,note_on,,,,,0,0,1,,,,0,37,89
554024,note_on,,,,,50,0,1,,,,0,49,89
554044,control_change,,,,,20,0,1,,64,0,0,,
554078,control_change,,,,,34,0,1,,64,127,0,,
554104,note_on,,,,,26,0,1,,,,0,62,74
554106,note_on,,,,,2,0,1,,,,0,66,78
554110,note_on,,,,,0,0,1,,,,0,69,76
554110,note_on,,,,,4,0,1,,,,0,74,66
554140,note_off,,,,,30,0,1,,,,0,62,64
554148,note_off,,,,,0,0,1,,,,0,74,64
554148,note_off,,,,,0,0,1,,,,0,66,64
554148,note_off,,,,,8,0,1,,,,0,69,64
554154,note_off,,,,,6,0,1,,,,0,49,64
554178,note_off,,,,,24,0,1,,,,0,37,64
554190,note_on,,,,,0,0,1,,,,0,66,80
554190,note_on,,,,,12,0,1,,,,0,69,85
554192,note_on,,,,,2,0,1,,,,0,62,88
554194,note_on,,,,,2,0,1,,,,0,74,70
554260,note_off,,,,,66,0,1,,,,0,62,64
554264,note_on,,,,,4,0,1,,,,0,48,92
554264,note_on,,,,,0,0,1,,,,0,36,86
554270,note_off,,,,,6,0,1,,,,0,66,64
554276,note_off,,,,,6,0,1,,,,0,69,64
554294,note_off,,,,,18,0,1,,,,0,48,64
554296,note_off,,,,,2,0,1,,,,0,36,64
554326,note_off,,,,,30,0,1,,,,0,74,64
554338,control_change,,,,,12,0,1,,64,0,0,,
554340,note_on,,,,,0,0,1,,,,0,36,93
554340,note_on,,,,,2,0,1,,,,0,48,97
554402,control_change,,,,,62,0,1,,64,127,0,,
554412,note_on,,,,,10,0,1,,,,0,62,82
554414,note_on,,,,,2,0,1,,,,0,70,81
554416,note_on,,,,,2,0,1,,,,0,67,74
554444,note_off,,,,,28,0,1,,,,0,62,64
554448,note_off,,,,,4,0,1,,,,0,67,64
554456,note_off,,,,,8,0,1,,,,0,48,64
554458,note_off,,,,,2,0,1,,,,0,70,64
554474,note_off,,,,,16,0,1,,,,0,36,64
554492,note_on,,,,,18,0,1,,,,0,70,86
554494,note_on,,,,,2,0,1,,,,0,67,83
554496,note_on,,,,,2,0,1,,,,0,62,85
554558,note_on,,,,,0,0,1,,,,0,35,78
554558,note_on,,,,,62,0,1,,,,0,47,93
554570,note_off,,,,,12,0,1,,,,0,62,64
554588,note_off,,,,,18,0,1,,,,0,47,64
554592,note_off,,,,,4,0,1,,,,0,35,64
554600,note_off,,,,,8,0,1,,,,0,67,64
554602,note_off,,,,,2,0,1,,,,0,70,64
554616,control_change,,,,,14,0,1,,64,0,0,,
554634,note_on,,,,,18,0,1,,,,0,47,98
554636,note_on,,,,,2,0,1,,,,0,35,95
554654,control_change,,,,,18,0,1,,64,127,0,,
554698,note_off,,,,,44,0,1,,,,0,35,64
554698,note_off,,,,,0,0,1,,,,0,47,64
554700,note_on,,,,,2,0,1,,,,0,67,78
554700,note_on,,,,,0,0,1,,,,0,62,83
554702,note_on,,,,,2,0,1,,,,0,74,74
554728,note_off,,,,,26,0,1,,,,0,62,64
554736,note_off,,,,,8,0,1,,,,0,67,64
554738,note_off,,,,,2,0,1,,,,0,74,64
554778,note_on,,,,,0,0,1,,,,0,62,88
554778,note_on,,,,,40,0,1,,,,0,67,82
554780,note_on,,,,,2,0,1,,,,0,74,85
554804,note_off,,,,,24,0,1,,,,0,62,64
554814,control_change,,,,,10,0,1,,64,0,0,,
554818,note_off,,,,,4,0,1,,,,0,67,64
554834,control_change,,,,,16,0,1,,64,127,0,,
554836,note_off,,,,,2,0,1,,,,0,74,64
554838,note_on,,,,,0,0,1,,,,0,34,92
554838,note_on,,,,,2,0,1,,,,0,46,90
554872,note_off,,,,,0,0,1,,,,0,46,64
554872,note_off,,,,,34,0,1,,,,0,34,64
554920,note_on,,,,,48,0,1,,,,0,34,94
554922,note_on,,,,,2,0,1,,,,0,46,92
554982,note_on,,,,,0,0,1,,,,0,67,80
554982,note_on,,,,,60,0,1,,,,0,74,80
554984,note_on,,,,,2,0,1,,,,0,79,82
555012,note_off,,,,,28,0,1,,,,0,67,64
555024,note_off,,,,,12,0,1,,,,0,79,64
555028,note_off,,,,,4,0,1,,,,0,74,64
555050,note_off,,,,,22,0,1,,,,0,46,64
555068,note_on,,,,,18,0,1,,,,0,67,85
555070,note_on,,,,,2,0,1,,,,0,74,85
555072,note_on,,,,,2,0,1,,,,0,79,90
555076,note_off,,,,,4,0,1,,,,0,34,64
555120,note_off,,,,,44,0,1,,,,0,67,64
555126,note_off,,,,,6,0,1,,,,0,79,64
555138,note_on,,,,,0,0,1,,,,0,33,85
555138,note_on,,,,,12,0,1,,,,0,45,90
555144,note_off,,,,,6,0,1,,,,0,74,64
555164,control_change,,,,,20,0,1,,64,0,0,,
555194,control_change,,,,,30,0,1,,64,127,0,,
555208,note_off,,,,,14,0,1,,,,0,33,64
555208,note_off,,,,,0,0,1,,,,0,45,64
555224,note_on,,,,,16,0,1,,,,0,45,92
555226,note_on,,,,,2,0,1,,,,0,33,95
555304,note_on,,,,,78,0,1,,,,0,82,87
555304,note_on,,,,,0,0,1,,,,0,70,87
555306,note_on,,,,,2,0,1,,,,0,74,82
555338,note_off,,,,,32,0,1,,,,0,70,64
555350,note_off,,,,,12,0,1,,,,0,74,64
555350,note_off,,,,,0,0,1,,,,0,82,64
555382,note_off,,,,,32,0,1,,,,0,45,64
555392,note_on,,,,,10,0,1,,,,0,82,91
555394,note_on,,,,,2,0,1,,,,0,70,90
555396,note_on,,,,,2,0,1,,,,0,74,90
555400,note_off,,,,,4,0,1,,,,0,33,64
555456,note_off,,,,,56,0,1,,,,0,82,64
555462,note_off,,,,,6,0,1,,,,0,74,64
555468,note_off,,,,,6,0,1,,,,0,70,64
555480,note_on,,,,,0,0,1,,,,0,31,98
555480,set_tempo,,,,,1800,1,0,355030,,,,,
555480,note_on,,,,,12,0,1,,,,0,43,91
555488,set_tempo,,,,,8,1,0,352941,,,,,
555496,set_tempo,,,,,8,1,0,350877,,,,,
555510,note_off,,,,,30,0,1,,,,0,43,64
555512,set_tempo,,,,,16,1,0,348837,,,,,
555512,note_off,,,,,2,0,1,,,,0,31,64
555520,set_tempo,,,,,8,1,0,346821,,,,,
555528,set_tempo,,,,,8,1,0,344828,,,,,
555536,set_tempo,,,,,8,1,0,342857,,,,,
555544,set_tempo,,,,,8,1,0,340909,,,,,
555552,set_tempo,,,,,8,1,0,337079,,,,,
555560,set_tempo,,,,,8,1,0,335196,,,,,
555568,set_tempo,,,,,8,1,0,333333,,,,,
555584,set_tempo,,,,,16,1,0,331492,,,,,
555588,set_tempo,,,,,4,1,0,329670,,,,,
555600,note_on,,,,,0,0,1,,,,0,38,90
555600,note_on,,,,,88,0,1,,,,0,50,102
555644,control_change,,,,,44,0,1,,64,0,0,,
555712,note_on,,,,,68,0,1,,,,0,66,81
555716,note_on,,,,,4,0,1,,,,0,74,79
555716,note_on,,,,,0,0,1,,,,0,69,81
555718,control_change,,,,,2,0,1,,64,127,0,,
555728,set_tempo,,,,,140,1,0,326087,,,,,
555736,set_tempo,,,,,8,1,0,327869,,,,,
555744,set_tempo,,,,,8,1,0,329670,,,,,
555752,set_tempo,,,,,8,1,0,331492,,,,,
555752,note_off,,,,,34,0,1,,,,0,66,64
555760,note_off,,,,,8,0,1,,,,0,69,64
555760,set_tempo,,,,,8,1,0,333333,,,,,
555762,note_off,,,,,2,0,1,,,,0,74,64
555772,set_tempo,,,,,12,1,0,335196,,,,,
555780,set_tempo,,,,,8,1,0,337079,,,,,
555788,set_tempo,,,,,8,1,0,340909,,,,,
555796,set_tempo,,,,,8,1,0,342857,,,,,
555800,note_off,,,,,38,0,1,,,,0,50,64
555804,set_tempo,,,,,8,1,0,344828,,,,,
555804,note_off,,,,,4,0,1,,,,0,38,64
555808,set_tempo,,,,,4,1,0,346821,,,,,
555810,note_on,,,,,6,0,1,,,,0,74,74
555814,note_on,,,,,4,0,1,,,,0,69,77
555814,note_on,,,,,0,0,1,,,,0,66,81
555816,set_tempo,,,,,8,1,0,348837,,,,,
555824,set_tempo,,,,,8,1,0,350877,,,,,
555840,set_tempo,,,,,16,1,0,352941,,,,,
555848,set_tempo,,,,,8,1,0,355030,,,,,
555850,note_off,,,,,36,0,1,,,,0,66,64
555852,set_tempo,,,,,4,1,0,357143,,,,,
555860,set_tempo,,,,,8,1,0,361446,,,,,
555868,set_tempo,,,,,8,1,0,363636,,,,,
555868,note_off,,,,,18,0,1,,,,0,69,64
555876,set_tempo,,,,,8,1,0,365854,,,,,
555880,note_off,,,,,12,0,1,,,,0,74,64
555884,set_tempo,,,,,8,1,0,368098,,,,,
555888,set_tempo,,,,,4,1,0,370370,,,,,
555898,note_on,,,,,18,0,1,,,,0,51,92
555900,note_on,,,,,2,0,1,,,,0,39,88
555930,note_off,,,,,30,0,1,,,,0,51,64
555932,note_off,,,,,2,0,1,,,,0,39,64
555988,note_on,,,,,0,0,1,,,,0,39,87
555988,note_on,,,,,56,0,1,,,,0,51,102
555998,control_change,,,,,10,0,1,,64,0,0,,
556022,control_change,,,,,24,0,1,,64,127,0,,
556064,note_on,,,,,42,0,1,,,,0,78,79
556064,note_on,,,,,0,0,1,,,,0,66,75
556064,note_on,,,,,0,0,1,,,,0,69,80
556098,note_off,,,,,34,0,1,,,,0,66,64
556104,note_off,,,,,6,0,1,,,,0,69,64
556108,note_off,,,,,4,0,1,,,,0,51,64
556110,note_off,,,,,2,0,1,,,,0,78,64
556124,note_off,,,,,14,0,1,,,,0,39,64
556146,note_on,,,,,22,0,1,,,,0,78,84
556146,note_on,,,,,0,0,1,,,,0,69,91
556148,note_on,,,,,2,0,1,,,,0,66,84
556180,note_off,,,,,32,0,1,,,,0,66,64
556184,note_off,,,,,4,0,1,,,,0,69,64
556206,note_off,,,,,22,0,1,,,,0,78,64
556218,note_on,,,,,12,0,1,,,,0,50,91
556220,note_on,,,,,2,0,1,,,,0,38,88
556250,note_off,,,,,30,0,1,,,,0,50,64
556252,note_off,,,,,2,0,1,,,,0,38,64
556288,control_change,,,,,36,0,1,,64,0,0,,
556298,note_on,,,,,10,0,1,,,,0,38,90
556300,note_on,,,,,2,0,1,,,,0,50,97
556314,control_change,,,,,14,0,1,,64,127,0,,
556356,note_off,,,,,42,0,1,,,,0,50,64
556366,note_off,,,,,10,0,1,,,,0,38,64
556378,note_on,,,,,12,0,1,,,,0,69,82
556380,note_on,,,,,0,0,1,,,,0,78,79
556380,note_on,,,,,2,0,1,,,,0,81,76
556382,note_on,,,,,2,0,1,,,,0,74,74
556404,note_off,,,,,22,0,1,,,,0,69,64
556414,note_off,,,,,10,0,1,,,,0,78,64
556416,note_off,,,,,2,0,1,,,,0,74,64
556418,note_off,,,,,2,0,1,,,,0,81,64
556450,note_on,,,,,32,0,1,,,,0,78,76
556452,note_on,,,,,2,0,1,,,,0,81,81
556452,note_on,,,,,0,0,1,,,,0,74,75
556452,note_on,,,,,0,0,1,,,,0,69,86
556480,note_off,,,,,28,0,1,,,,0,69,64
556498,note_off,,,,,18,0,1,,,,0,74,64
556506,note_off,,,,,8,0,1,,,,0,81,64
556512,note_off,,,,,6,0,1,,,,0,78,64
556520,note_on,,,,,8,0,1,,,,0,49,94
556522,note_on,,,,,2,0,1,,,,0,37,91
556546,control_change,,,,,24,0,1,,64,0,0,,
556548,note_off,,,,,0,0,1,,,,0,49,64
556548,note_off,,,,,2,0,1,,,,0,37,64
556566,control_change,,,,,18,0,1,,64,127,0,,
556596,note_on,,,,,0,0,1,,,,0,37,100
556596,note_on,,,,,30,0,1,,,,0,49,93
556662,note_on,,,,,66,0,1,,,,0,74,81
556664,note_on,,,,,0,0,1,,,,0,81,81
556664,note_on,,,,,2,0,1,,,,0,86,80
556666,note_on,,,,,2,0,1,,,,0,78,78
556674,note_off,,,,,8,0,1,,,,0,37,64
556676,note_off,,,,,2,0,1,,,,0,49,64
556696,note_off,,,,,20,0,1,,,,0,74,64
556698,note_off,,,,,2,0,1,,,,0,78,64
556702,note_off,,,,,4,0,1,,,,0,81,64
556706,note_off,,,,,4,0,1,,,,0,86,64
556734,note_on,,,,,28,0,1,,,,0,78,81
556736,note_on,,,,,2,0,1,,,,0,86,82
556736,note_on,,,,,0,0,1,,,,0,81,84
556738,note_on,,,,,2,0,1,,,,0,74,84
556794,control_change,,,,,56,0,1,,64,0,0,,
556798,note_off,,,,,4,0,1,,,,0,74,64
556802,note_on,,,,,0,0,1,,,,0,36,92
556802,note_on,,,,,4,0,1,,,,0,48,98
556812,note_off,,,,,0,0,1,,,,0,86,64
556812,note_off,,,,,10,0,1,,,,0,81,64
556814,note_off,,,,,2,0,1,,,,0,78,64
556820,control_change,,,,,6,0,1,,64,127,0,,
556832,note_off,,,,,12,0,1,,,,0,48,64
556834,note_off,,,,,2,0,1,,,,0,36,64
556876,note_on,,,,,42,0,1,,,,0,48,97
556876,note_on,,,,,0,0,1,,,,0,36,97
556932,note_off,,,,,56,0,1,,,,0,48,64
556938,note_on,,,,,6,0,1,,,,0,82,87
556938,note_on,,,,,0,0,1,,,,0,74,78
556940,note_on,,,,,0,0,1,,,,0,79,79
556940,note_off,,,,,2,0,1,,,,0,36,64
556966,note_off,,,,,26,0,1,,,,0,79,64
556968,note_off,,,,,2,0,1,,,,0,74,64
556972,note_off,,,,,4,0,1,,,,0,82,64
557004,note_on,,,,,32,0,1,,,,0,82,84
557008,note_on,,,,,4,0,1,,,,0,79,86
557008,note_on,,,,,0,0,1,,,,0,74,84
557060,control_change,,,,,52,0,1,,64,0,0,,
557064,note_on,,,,,0,0,1,,,,0,35,90
557064,note_on,,,,,4,0,1,,,,0,47,100
557080,note_off,,,,,16,0,1,,,,0,74,64
557094,control_change,,,,,14,0,1,,64,127,0,,
557104,note_off,,,,,10,0,1,,,,0,79,64
557110,note_off,,,,,6,0,1,,,,0,35,64
557110,note_off,,,,,0,0,1,,,,0,47,64
557112,note_off,,,,,2,0,1,,,,0,82,64
557138,note_on,,,,,26,0,1,,,,0,47,95
557140,note_on,,,,,2,0,1,,,,0,35,94
557196,note_off,,,,,56,0,1,,,,0,47,64
557198,note_on,,,,,2,0,1,,,,0,86,80
557198,note_on,,,,,0,0,1,,,,0,79,86
557200,note_off,,,,,2,0,1,,,,0,35,64
557200,note_on,,,,,0,0,1,,,,0,74,79
557224,note_off,,,,,24,0,1,,,,0,74,64
557224,note_off,,,,,0,0,1,,,,0,79,64
557230,note_off,,,,,6,0,1,,,,0,86,64
557268,note_on,,,,,38,0,1,,,,0,79,94
557268,note_on,,,,,0,0,1,,,,0,74,88
557270,note_on,,,,,2,0,1,,,,0,86,91
557296,note_off,,,,,26,0,1,,,,0,74,64
557316,note_off,,,,,20,0,1,,,,0,79,64
557326,note_on,,,,,10,0,1,,,,0,46,94
557328,note_on,,,,,2,0,1,,,,0,34,96
557332,note_off,,,,,4,0,1,,,,0,86,64
557342,control_change,,,,,10,0,1,,64,0,0,,
557370,control_change,,,,,28,0,1,,64,127,0,,
557380,note_off,,,,,10,0,1,,,,0,46,64
557390,note_off,,,,,10,0,1,,,,0,34,64
557398,note_on,,,,,0,0,1,,,,0,34,94
557398,note_on,,,,,8,0,1,,,,0,46,102
557464,note_on,,,,,66,0,1,,,,0,86,87
557466,note_on,,,,,2,0,1,,,,0,91,82
557468,note_on,,,,,2,0,1,,,,0,79,85
557490,note_off,,,,,22,0,1,,,,0,79,64
557498,note_off,,,,,0,0,1,,,,0,86,64
557498,note_off,,,,,8,0,1,,,,0,91,64
557524,note_off,,,,,26,0,1,,,,0,46,64
557540,note_on,,,,,16,0,1,,,,0,86,97
557540,note_on,,,,,0,0,1,,,,0,79,90
557542,note_off,,,,,2,0,1,,,,0,34,64
557544,note_on,,,,,2,0,1,,,,0,91,91
557594,note_off,,,,,50,0,1,,,,0,79,64
557600,note_off,,,,,6,0,1,,,,0,91,64
557606,note_on,,,,,6,0,1,,,,0,33,98
557608,control_change,,,,,0,0,1,,64,0,0,,
557608,note_on,,,,,2,0,1,,,,0,45,98
557614,note_off,,,,,6,0,1,,,,0,86,64
557650,control_change,,,,,36,0,1,,64,127,0,,
557668,note_off,,,,,18,0,1,,,,0,33,64
557670,note_off,,,,,2,0,1,,,,0,45,64
557682,note_on,,,,,12,0,1,,,,0,45,91
557684,note_on,,,,,2,0,1,,,,0,33,98
557752,note_on,,,,,68,0,1,,,,0,82,87
557754,note_on,,,,,2,0,1,,,,0,94,94
557756,note_on,,,,,2,0,1,,,,0,86,86
557784,note_off,,,,,28,0,1,,,,0,82,64
557794,note_off,,,,,10,0,1,,,,0,86,64
557794,note_off,,,,,0,0,1,,,,0,94,64
557816,note_off,,,,,22,0,1,,,,0,45,64
557830,note_off,,,,,14,0,1,,,,0,33,64
557834,note_on,,,,,4,0,1,,,,0,86,90
557836,note_on,,,,,2,0,1,,,,0,94,103
557836,note_on,,,,,0,0,1,,,,0,82,92
557854,control_change,,,,,18,0,1,,64,0,0,,
557878,control_change,,,,,24,0,1,,64,127,0,,
557898,note_on,,,,,20,0,1,,,,0,31,100
557900,note_on,,,,,2,0,1,,,,0,43,82
557904,note_off,,,,,0,0,1,,,,0,86,64
557904,note_off,,,,,4,0,1,,,,0,82,64
557924,note_off,,,,,20,0,1,,,,0,94,64
557962,note_off,,,,,38,0,1,,,,0,43,64
557976,note_off,,,,,14,0,1,,,,0,31,64
558004,note_on,,,,,28,0,1,,,,0,50,105
558006,note_on,,,,,2,0,1,,,,0,38,97
558056,control_change,,,,,50,0,1,,64,0,0,,
558104,note_on,,,,,48,0,1,,,,0,86,81
558108,note_on,,,,,4,0,1,,,,0,98,91
558108,note_on,,,,,0,0,1,,,,0,93,86
558108,note_on,,,,,0,0,1,,,,0,90,79
558124,control_change,,,,,16,0,1,,64,127,0,,
558138,note_off,,,,,14,0,1,,,,0,86,64
558146,note_off,,,,,0,0,1,,,,0,98,64
558146,note_off,,,,,8,0,1,,,,0,93,64
558148,note_off,,,,,2,0,1,,,,0,90,64
558166,note_off,,,,,18,0,1,,,,0,50,64
558170,note_off,,,,,4,0,1,,,,0,38,64
558192,note_on,,,,,22,0,1,,,,0,93,92
558196,note_on,,,,,4,0,1,,,,0,98,88
558196,note_on,,,,,0,0,1,,,,0,86,85
558196,note_on,,,,,0,0,1,,,,0,90,84
558218,note_off,,,,,22,0,1,,,,0,98,64
558236,note_off,,,,,18,0,1,,,,0,93,64
558244,note_off,,,,,8,0,1,,,,0,86,64
558246,note_off,,,,,2,0,1,,,,0,90,64
558266,note_on,,,,,20,0,1,,,,0,51,104
558268,note_on,,,,,2,0,1,,,,0,39,86
558292,note_off,,,,,24,0,1,,,,0,39,64
558294,note_off,,,,,2,0,1,,,,0,51,64
558346,note_on,,,,,52,0,1,,,,0,51,104
558348,note_on,,,,,2,0,1,,,,0,39,93
558352,control_change,,,,,4,0,1,,64,0,0,,
558360,control_change,,,,,8,0,1,,64,127,0,,
558418,note_on,,,,,58,0,1,,,,0,86,81
558418,note_on,,,,,0,0,1,,,,0,74,82
558420,note_on,,,,,2,0,1,,,,0,81,78
558422,note_on,,,,,2,0,1,,,,0,78,79
558448,note_off,,,,,26,0,1,,,,0,74,64
558452,note_off,,,,,4,0,1,,,,0,78,64
558456,note_off,,,,,4,0,1,,,,0,81,64
558458,note_off,,,,,2,0,1,,,,0,86,64
558458,note_off,,,,,0,0,1,,,,0,51,64
558484,note_off,,,,,26,0,1,,,,0,39,64
558490,note_on,,,,,6,0,1,,,,0,81,93
558492,note_on,,,,,2,0,1,,,,0,78,87
558492,note_on,,,,,0,0,1,,,,0,74,91
558494,note_on,,,,,2,0,1,,,,0,86,83
558520,note_off,,,,,26,0,1,,,,0,86,64
558528,note_off,,,,,8,0,1,,,,0,74,64
558544,note_off,,,,,0,0,1,,,,0,81,64
558544,note_off,,,,,16,0,1,,,,0,78,64
558556,note_on,,,,,0,0,1,,,,0,38,86
558556,note_on,,,,,12,0,1,,,,0,50,94
558588,note_off,,,,,32,0,1,,,,0,38,64
558588,note_off,,,,,0,0,1,,,,0,50,64
558628,control_change,,,,,40,0,1,,64,0,0,,
558632,note_on,,,,,4,0,1,,,,0,50,102
558634,note_on,,,,,2,0,1,,,,0,38,92
558638,control_change,,,,,4,0,1,,64,127,0,,
558710,note_on,,,,,72,0,1,,,,0,74,77
558712,note_off,,,,,2,0,1,,,,0,38,64
558712,note_on,,,,,0,0,1,,,,0,66,81
558714,note_on,,,,,2,0,1,,,,0,62,77
558716,note_on,,,,,2,0,1,,,,0,69,79
558720,note_off,,,,,4,0,1,,,,0,50,64
558724,set_tempo,,,,,2836,1,0,368098,,,,,
558740,note_off,,,,,20,0,1,,,,0,62,64
558744,note_off,,,,,0,0,1,,,,0,69,64
558744,note_off,,,,,4,0,1,,,,0,66,64
558748,note_off,,,,,4,0,1,,,,0,74,64
558764,set_tempo,,,,,40,1,0,370370,,,,,
558776,note_on,,,,,0,0,1,,,,0,66,79
558776,note_on,,,,,28,0,1,,,,0,69,90
558778,note_on,,,,,2,0,1,,,,0,74,77
558782,note_on,,,,,4,0,1,,,,0,62,90
558812,note_off,,,,,30,0,1,,,,0,74,64
558816,note_off,,,,,4,0,1,,,,0,62,64
558826,control_change,,,,,10,0,1,,64,0,0,,
558834,note_off,,,,,8,0,1,,,,0,69,64
558836,note_on,,,,,0,0,1,,,,0,37,86
558836,note_on,,,,,2,0,1,,,,0,49,95
558840,note_off,,,,,4,0,1,,,,0,66,64
558844,set_tempo,,,,,80,1,0,372671,,,,,
558852,control_change,,,,,12,0,1,,64,127,0,,
558862,note_off,,,,,10,0,1,,,,0,37,64
558866,note_off,,,,,4,0,1,,,,0,49,64
558884,set_tempo,,,,,40,1,0,375000,,,,,
558906,note_on,,,,,40,0,1,,,,0,49,100
558908,note_on,,,,,2,0,1,,,,0,37,96
558924,set_tempo,,,,,40,1,0,377358,,,,,
558960,set_tempo,,,,,36,1,0,379747,,,,,
558982,note_on,,,,,0,0,1,,,,0,57,88
558982,note_on,,,,,74,0,1,,,,0,62,85
558984,note_on,,,,,2,0,1,,,,0,54,91
559010,note_off,,,,,26,0,1,,,,0,54,64
559016,note_off,,,,,6,0,1,,,,0,57,64
559018,note_off,,,,,2,0,1,,,,0,62,64
559024,note_off,,,,,6,0,1,,,,0,49,64
559044,note_on,,,,,0,0,1,,,,0,62,88
559044,note_off,,,,,20,0,1,,,,0,37,64
559050,note_on,,,,,6,0,1,,,,0,57,79
559052,note_on,,,,,2,0,1,,,,0,54,78
559074,note_off,,,,,22,0,1,,,,0,54,64
559082,note_off,,,,,8,0,1,,,,0,57,64
559102,note_off,,,,,20,0,1,,,,0,62,64
559116,note_on,,,,,0,0,1,,,,0,36,93
559116,note_on,,,,,14,0,1,,,,0,48,100
559138,control_change,,,,,22,0,1,,64,0,0,,
559146,note_off,,,,,8,0,1,,,,0,48,64
559150,note_off,,,,,4,0,1,,,,0,36,64
559156,control_change,,,,,6,0,1,,64,127,0,,
559190,note_on,,,,,34,0,1,,,,0,48,102
559190,note_on,,,,,0,0,1,,,,0,36,97
559256,note_on,,,,,66,0,1,,,,0,89,87
559258,note_on,,,,,2,0,1,,,,0,86,78
559260,note_on,,,,,2,0,1,,,,0,98,94
559280,note_off,,,,,20,0,1,,,,0,89,64
559284,note_off,,,,,0,0,1,,,,0,86,64
559284,note_off,,,,,4,0,1,,,,0,98,64
559302,note_off,,,,,18,0,1,,,,0,48,64
559308,note_off,,,,,6,0,1,,,,0,36,64
559324,note_on,,,,,16,0,1,,,,0,98,98
559326,note_on,,,,,2,0,1,,,,0,89,94
559328,note_on,,,,,2,0,1,,,,0,86,88
559368,note_off,,,,,40,0,1,,,,0,98,64
559380,note_on,,,,,0,0,1,,,,0,47,100
559380,note_off,,,,,12,0,1,,,,0,86,64
559382,control_change,,,,,2,0,1,,64,0,0,,
559384,note_on,,,,,2,0,1,,,,0,35,95
559386,note_off,,,,,2,0,1,,,,0,89,64
559408,control_change,,,,,22,0,1,,64,127,0,,
559414,note_off,,,,,6,0,1,,,,0,35,64
559416,note_off,,,,,2,0,1,,,,0,47,64
559458,note_on,,,,,42,0,1,,,,0,47,97
559460,note_on,,,,,2,0,1,,,,0,35,93
559524,note_off,,,,,64,0,1,,,,0,35,64
559524,note_off,,,,,0,0,1,,,,0,47,64
559524,note_on,,,,,0,0,1,,,,0,77,92
559528,note_on,,,,,4,0,1,,,,0,86,88
559528,note_on,,,,,0,0,1,,,,0,74,78
559548,note_off,,,,,20,0,1,,,,0,74,64
559548,note_off,,,,,0,0,1,,,,0,77,64
559560,note_off,,,,,12,0,1,,,,0,86,64
559588,note_on,,,,,28,0,1,,,,0,86,85
559592,note_on,,,,,0,0,1,,,,0,74,87
559592,note_on,,,,,4,0,1,,,,0,77,92
559622,note_off,,,,,30,0,1,,,,0,86,64
559626,note_off,,,,,4,0,1,,,,0,74,64
559638,note_off,,,,,12,0,1,,,,0,77,64
559646,note_on,,,,,0,0,1,,,,0,34,92
559646,note_on,,,,,8,0,1,,,,0,46,92
559650,control_change,,,,,4,0,1,,64,0,0,,
559674,control_change,,,,,24,0,1,,64,127,0,,
559676,note_off,,,,,2,0,1,,,,0,34,64
559682,note_off,,,,,6,0,1,,,,0,46,64
559714,note_on,,,,,32,0,1,,,,0,46,93
559718,note_on,,,,,4,0,1,,,,0,34,95
559778,note_on,,,,,0,0,1,,,,0,62,84
559778,note_on,,,,,60,0,1,,,,0,65,86
559784,note_on,,,,,6,0,1,,,,0,74,76
559806,note_off,,,,,22,0,1,,,,0,62,64
559810,note_off,,,,,4,0,1,,,,0,65,64
559816,note_off,,,,,6,0,1,,,,0,74,64
559832,note_off,,,,,16,0,1,,,,0,46,64
559848,note_off,,,,,16,0,1,,,,0,34,64
559852,note_on,,,,,4,0,1,,,,0,65,98
559852,note_on,,,,,0,0,1,,,,0,62,95
559854,note_on,,,,,2,0,1,,,,0,74,82
559882,note_off,,,,,28,0,1,,,,0,74,64
559890,note_off,,,,,8,0,1,,,,0,62,64
559902,note_off,,,,,12,0,1,,,,0,65,64
559914,control_change,,,,,12,0,1,,64,0,0,,
559918,note_on,,,,,4,0,1,,,,0,45,98
559920,note_on,,,,,2,0,1,,,,0,33,98
559942,control_change,,,,,22,0,1,,64,127,0,,
559952,note_off,,,,,10,0,1,,,,0,33,64
559954,note_off,,,,,2,0,1,,,,0,45,64
559992,note_on,,,,,38,0,1,,,,0,45,100
559994,note_on,,,,,2,0,1,,,,0,33,102
560054,note_off,,,,,60,0,1,,,,0,33,64
560054,note_off,,,,,0,0,1,,,,0,45,64
560056,note_on,,,,,0,0,1,,,,0,53,83
560056,note_on,,,,,2,0,1,,,,0,62,80
560058,note_on,,,,,2,0,1,,,,0,58,83
560086,note_off,,,,,28,0,1,,,,0,53,64
560092,note_off,,,,,6,0,1,,,,0,58,64
560092,note_off,,,,,0,0,1,,,,0,62,64
560124,note_on,,,,,0,0,1,,,,0,58,86
560124,note_on,,,,,32,0,1,,,,0,62,86
560128,note_on,,,,,4,0,1,,,,0,53,92
560150,note_off,,,,,22,0,1,,,,0,53,64
560172,note_off,,,,,22,0,1,,,,0,58,64
560180,note_off,,,,,8,0,1,,,,0,62,64
560186,note_on,,,,,6,0,1,,,,0,44,100
560188,note_on,,,,,2,0,1,,,,0,32,95
560206,control_change,,,,,18,0,1,,64,0,0,,
560220,note_off,,,,,14,0,1,,,,0,32,64
560224,note_off,,,,,4,0,1,,,,0,44,64
560226,control_change,,,,,2,0,1,,64,127,0,,
560268,note_on,,,,,42,0,1,,,,0,44,104
560268,note_on,,,,,0,0,1,,,,0,32,102
560330,note_on,,,,,62,0,1,,,,0,94,96
560332,note_on,,,,,2,0,1,,,,0,86,90
560334,note_on,,,,,2,0,1,,,,0,98,93
560348,note_off,,,,,14,0,1,,,,0,86,64
560354,note_off,,,,,6,0,1,,,,0,94,64
560356,note_off,,,,,2,0,1,,,,0,98,64
560376,note_off,,,,,20,0,1,,,,0,44,64
560392,note_on,,,,,16,0,1,,,,0,94,95
560396,note_on,,,,,4,0,1,,,,0,98,91
560396,note_on,,,,,0,0,1,,,,0,86,91
560398,note_off,,,,,2,0,1,,,,0,32,64
560420,note_off,,,,,22,0,1,,,,0,98,64
560444,note_off,,,,,0,0,1,,,,0,94,64
560444,note_off,,,,,24,0,1,,,,0,86,64
560452,note_on,,,,,8,0,1,,,,0,43,98
560454,note_on,,,,,2,0,1,,,,0,31,105
560456,control_change,,,,,2,0,1,,64,0,0,,
560486,note_off,,,,,30,0,1,,,,0,31,64
560488,note_off,,,,,2,0,1,,,,0,43,64
560492,control_change,,,,,4,0,1,,64,127,0,,
560520,note_on,,,,,28,0,1,,,,0,43,97
560524,note_on,,,,,4,0,1,,,,0,31,107
560598,note_on,,,,,0,0,1,,,,0,82,89
560598,note_off,,,,,74,0,1,,,,0,31,64
560598,note_on,,,,,0,0,1,,,,0,74,87
560600,note_off,,,,,2,0,1,,,,0,43,64
560600,note_on,,,,,0,0,1,,,,0,86,86
560622,note_off,,,,,22,0,1,,,,0,82,64
560624,note_off,,,,,2,0,1,,,,0,74,64
560628,note_off,,,,,4,0,1,,,,0,86,64
560662,note_on,,,,,34,0,1,,,,0,82,91
560664,note_on,,,,,0,0,1,,,,0,74,93
560664,note_on,,,,,2,0,1,,,,0,86,81
560690,note_off,,,,,26,0,1,,,,0,86,64
560712,note_off,,,,,22,0,1,,,,0,74,64
560714,note_off,,,,,2,0,1,,,,0,82,64
560716,note_on,,,,,2,0,1,,,,0,42,92
560720,note_on,,,,,4,0,1,,,,0,30,100
560750,note_off,,,,,30,0,1,,,,0,30,64
560750,control_change,,,,,0,0,1,,64,0,0,,
560754,note_off,,,,,4,0,1,,,,0,42,64
560788,note_on,,,,,34,0,1,,,,0,42,89
560790,note_on,,,,,2,0,1,,,,0,30,103
560794,control_change,,,,,4,0,1,,64,127,0,,
560864,note_on,,,,,70,0,1,,,,0,70,84
560864,note_on,,,,,0,0,1,,,,0,62,93
560866,note_on,,,,,2,0,1,,,,0,74,80
560888,note_off,,,,,22,0,1,,,,0,62,64
560896,note_off,,,,,8,0,1,,,,0,74,64
560898,note_off,,,,,2,0,1,,,,0,70,64
560926,note_off,,,,,28,0,1,,,,0,42,64
560934,note_on,,,,,8,0,1,,,,0,70,89
560936,note_on,,,,,2,0,1,,,,0,62,98
560938,note_on,,,,,2,0,1,,,,0,74,79
560950,note_off,,,,,12,0,1,,,,0,30,64
560966,note_off,,,,,16,0,1,,,,0,74,64
560978,note_off,,,,,12,0,1,,,,0,62,64
560990,note_off,,,,,12,0,1,,,,0,70,64
561004,note_on,,,,,14,0,1,,,,0,41,105
561008,note_on,,,,,4,0,1,,,,0,29,97
561038,control_change,,,,,30,0,1,,64,0,0,,
561066,note_off,,,,,28,0,1,,,,0,41,64
561070,note_off,,,,,4,0,1,,,,0,29,64
561074,control_change,,,,,4,0,1,,64,127,0,,
561082,note_on,,,,,8,0,1,,,,0,29,102
561084,note_on,,,,,2,0,1,,,,0,41,111
561150,note_on,,,,,0,0,1,,,,0,58,92
561150,note_on,,,,,66,0,1,,,,0,62,85
561152,note_on,,,,,2,0,1,,,,0,55,82
561178,note_off,,,,,26,0,1,,,,0,55,64
561184,note_off,,,,,6,0,1,,,,0,62,64
561188,note_off,,,,,4,0,1,,,,0,58,64
561202,note_off,,,,,14,0,1,,,,0,41,64
561210,note_off,,,,,8,0,1,,,,0,29,64
561224,note_on,,,,,14,0,1,,,,0,62,93
561224,note_on,,,,,0,0,1,,,,0,58,87
561228,note_on,,,,,4,0,1,,,,0,55,87
561252,note_off,,,,,24,0,1,,,,0,55,64
561272,note_off,,,,,20,0,1,,,,0,58,64
561282,note_off,,,,,10,0,1,,,,0,62,64
561300,note_on,,,,,18,0,1,,,,0,40,102
561302,note_on,,,,,2,0,1,,,,0,28,102
561330,note_off,,,,,28,0,1,,,,0,40,64
561332,note_off,,,,,2,0,1,,,,0,28,64
561368,control_change,,,,,36,0,1,,64,0,0,,
561386,note_on,,,,,18,0,1,,,,0,40,107
561388,note_on,,,,,2,0,1,,,,0,28,105
561416,control_change,,,,,28,0,1,,64,127,0,,
561466,note_on,,,,,0,0,1,,,,0,86,87
561466,note_on,,,,,50,0,1,,,,0,98,93
561468,note_on,,,,,2,0,1,,,,0,91,83
561490,note_off,,,,,0,0,1,,,,0,86,64
561490,note_off,,,,,22,0,1,,,,0,91,64
561492,note_off,,,,,2,0,1,,,,0,98,64
561500,note_off,,,,,8,0,1,,,,0,40,64
561504,note_off,,,,,4,0,1,,,,0,28,64
561542,note_on,,,,,38,0,1,,,,0,98,100
561544,note_on,,,,,2,0,1,,,,0,91,91
561546,note_on,,,,,2,0,1,,,,0,86,92
561572,note_off,,,,,26,0,1,,,,0,98,64
561588,note_off,,,,,16,0,1,,,,0,91,64
561594,note_off,,,,,6,0,1,,,,0,86,64
561602,note_on,,,,,8,0,1,,,,0,39,94
561606,note_on,,,,,4,0,1,,,,0,27,104
561634,note_off,,,,,28,0,1,,,,0,27,64
561638,note_off,,,,,4,0,1,,,,0,39,64
561692,note_on,,,,,0,0,1,,,,0,27,101
561692,note_on,,,,,54,0,1,,,,0,39,97
561736,control_change,,,,,44,0,1,,64,0,0,,
561762,control_change,,,,,26,0,1,,64,127,0,,
561768,note_on,,,,,6,0,1,,,,0,86,94
561770,note_on,,,,,2,0,1,,,,0,74,87
561772,note_on,,,,,2,0,1,,,,0,79,91
561800,note_off,,,,,28,0,1,,,,0,74,64
561804,note_off,,,,,4,0,1,,,,0,79,64
561806,note_off,,,,,2,0,1,,,,0,86,64
561854,note_on,,,,,48,0,1,,,,0,79,88
561856,note_on,,,,,2,0,1,,,,0,86,94
561856,note_on,,,,,0,0,1,,,,0,74,97
561870,note_off,,,,,14,0,1,,,,0,39,64
561874,note_off,,,,,4,0,1,,,,0,27,64
561876,note_off,,,,,2,0,1,,,,0,86,64
561894,note_off,,,,,0,0,1,,,,0,79,64
561894,note_off,,,,,18,0,1,,,,0,74,64
561936,note_on,,,,,42,0,1,,,,0,39,98
561938,note_on,,,,,2,0,1,,,,0,27,104
561962,note_off,,,,,24,0,1,,,,0,27,64
561966,note_off,,,,,4,0,1,,,,0,39,64
562040,note_on,,,,,74,0,1,,,,0,39,104
562040,note_on,,,,,0,0,1,,,,0,27,101
562076,control_change,,,,,36,0,1,,64,0,0,,
562108,control_change,,,,,32,0,1,,64,127,0,,
562132,note_on,,,,,24,0,1,,,,0,67,87
562132,note_on,,,,,0,0,1,,,,0,62,94
562134,note_on,,,,,2,0,1,,,,0,74,84
562164,note_off,,,,,30,0,1,,,,0,62,64
562168,note_off,,,,,4,0,1,,,,0,67,64
562172,note_off,,,,,4,0,1,,,,0,74,64
562226,note_on,,,,,0,0,1,,,,0,62,95
562226,note_on,,,,,54,0,1,,,,0,67,84
562228,note_on,,,,,2,0,1,,,,0,74,88
562260,note_off,,,,,32,0,1,,,,0,39,64
562262,note_off,,,,,2,0,1,,,,0,27,64
562264,note_off,,,,,2,0,1,,,,0,74,64
562264,note_off,,,,,0,0,1,,,,0,62,64
562276,note_off,,,,,12,0,1,,,,0,67,64
562326,note_on,,,,,50,0,1,,,,0,39,95
562328,note_on,,,,,2,0,1,,,,0,27,100
562356,note_off,,,,,28,0,1,,,,0,39,64
562360,note_off,,,,,4,0,1,,,,0,27,64
562440,note_on,,,,,80,0,1,,,,0,39,103
562440,note_on,,,,,0,0,1,,,,0,27,103
562478,control_change,,,,,38,0,1,,64,0,0,,
562522,control_change,,,,,44,0,1,,64,127,0,,
562548,note_on,,,,,26,0,1,,,,0,55,82
562550,note_on,,,,,2,0,1,,,,0,50,88
562552,note_on,,,,,2,0,1,,,,0,62,79
562592,note_off,,,,,40,0,1,,,,0,50,64
562598,note_off,,,,,6,0,1,,,,0,62,64
562604,note_off,,,,,6,0,1,,,,0,55,64
562608,note_off,,,,,4,0,1,,,,0,27,64
562616,note_off,,,,,8,0,1,,,,0,39,64
562670,note_on,,,,,54,0,1,,,,0,62,90
562672,note_on,,,,,2,0,1,,,,0,50,95
562674,note_on,,,,,2,0,1,,,,0,55,87
562712,note_off,,,,,38,0,1,,,,0,50,64
562722,note_off,,,,,10,0,1,,,,0,62,64
562728,note_off,,,,,6,0,1,,,,0,55,64
562810,note_on,,,,,82,0,1,,,,0,39,98
562810,note_on,,,,,0,0,1,,,,0,27,95
562858,note_off,,,,,48,0,1,,,,0,39,64
562860,note_off,,,,,2,0,1,,,,0,27,64
563018,control_change,,,,,158,0,1,,64,0,0,,
563028,note_on,,,,,0,0,1,,,,0,38,93
563028,note_on,,,,,10,0,1,,,,0,66,82
563028,note_on,,,,,0,0,1,,,,0,54,96
563030,note_on,,,,,2,0,1,,,,0,26,105
563032,note_on,,,,,2,0,1,,,,0,62,86
563044,set_tempo,,,,,4084,1,0,384615,,,,,
563048,set_tempo,,,,,4,1,0,387097,,,,,
563056,set_tempo,,,,,8,1,0,389610,,,,,
563060,control_change,,,,,28,0,1,,64,127,0,,
563060,set_tempo,,,,,4,1,0,392157,,,,,
563072,set_tempo,,,,,12,1,0,394737,,,,,
563080,set_tempo,,,,,8,1,0,397351,,,,,
563084,set_tempo,,,,,4,1,0,400000,,,,,
563092,set_tempo,,,,,8,1,0,402685,,,,,
563096,set_tempo,,,,,4,1,0,405405,,,,,
563100,note_off,,,,,40,0,1,,,,0,54,64
563102,note_off,,,,,2,0,1,,,,0,26,64
563104,set_tempo,,,,,8,1,0,410959,,,,,
563108,set_tempo,,,,,4,1,0,413793,,,,,
563112,set_tempo,,,,,4,1,0,416667,,,,,
563118,note_off,,,,,16,0,1,,,,0,38,64
563120,note_off,,,,,2,0,1,,,,0,66,64
563128,note_off,,,,,8,0,1,,,,0,62,64
563200,set_tempo,,,,,88,1,0,413793,,,,,
563284,set_tempo,,,,,84,1,0,410959,,,,,
563368,set_tempo,,,,,84,1,0,405405,,,,,
563454,note_on,,,,,326,0,1,,,,0,66,81
563456,note_on,,,,,2,0,1,,,,0,62,80
563458,note_on,,,,,0,0,1,,,,0,69,82
563458,note_on,,,,,2,0,1,,,,0,74,81
563460,note_on,,,,,0,0,1,,,,0,50,77
563460,note_on,,,,,2,0,1,,,,0,57,74
563466,note_on,,,,,6,0,1,,,,0,78,72
563466,note_on,,,,,0,0,1,,,,0,54,74
563480,note_off,,,,,14,0,1,,,,0,66,64
563488,note_off,,,,,0,0,1,,,,0,57,64
563488,note_off,,,,,8,0,1,,,,0,50,64
563488,note_off,,,,,0,0,1,,,,0,69,64
563492,note_off,,,,,4,0,1,,,,0,54,64
563492,note_off,,,,,0,0,1,,,,0,62,64
563496,note_off,,,,,4,0,1,,,,0,78,64
563498,note_off,,,,,2,0,1,,,,0,74,64
563522,note_on,,,,,0,0,1,,,,0,69,90
563522,note_on,,,,,24,0,1,,,,0,78,77
563524,note_on,,,,,2,0,1,,,,0,74,82
563524,note_on,,,,,0,0,1,,,,0,62,92
563526,note_on,,,,,2,0,1,,,,0,57,90
563526,note_on,,,,,0,0,1,,,,0,54,82
563530,note_on,,,,,4,0,1,,,,0,66,88
563530,note_on,,,,,0,0,1,,,,0,50,85
563556,note_off,,,,,26,0,1,,,,0,66,64
563562,note_off,,,,,6,0,1,,,,0,69,64
563564,note_off,,,,,2,0,1,,,,0,50,64
563574,note_off,,,,,0,0,1,,,,0,62,64
563574,note_off,,,,,10,0,1,,,,0,54,64
563576,note_off,,,,,2,0,1,,,,0,57,64
563578,note_off,,,,,2,0,1,,,,0,74,64
563582,note_off,,,,,4,0,1,,,,0,78,64
563816,note_on,,,,,234,0,1,,,,0,90,89
563816,note_on,,,,,0,0,1,,,,0,78,92
563818,note_on,,,,,2,0,1,,,,0,81,91
563820,note_on,,,,,2,0,1,,,,0,86,90
563820,note_on,,,,,0,0,1,,,,0,74,87
563824,note_on,,,,,4,0,1,,,,0,69,85
563824,note_on,,,,,0,0,1,,,,0,62,82
563828,note_on,,,,,4,0,1,,,,0,66,80
563854,note_off,,,,,26,0,1,,,,0,78,64
563856,note_off,,,,,2,0,1,,,,0,90,64
563858,note_off,,,,,2,0,1,,,,0,74,64
563864,note_off,,,,,6,0,1,,,,0,69,64
563866,note_off,,,,,2,0,1,,,,0,62,64
563868,note_off,,,,,2,0,1,,,,0,86,64
563868,note_off,,,,,0,0,1,,,,0,81,64
563874,note_off,,,,,6,0,1,,,,0,66,64
564148,note_on,,,,,274,0,1,,,,0,48,111
564150,note_on,,,,,2,0,1,,,,0,67,79
564150,note_on,,,,,0,0,1,,,,0,64,86
564152,note_on,,,,,2,0,1,,,,0,43,92
564152,note_on,,,,,0,0,1,,,,0,40,85
564154,note_on,,,,,2,0,1,,,,0,55,91
564158,note_on,,,,,4,0,1,,,,0,60,86
564158,note_on,,,,,0,0,1,,,,0,36,82
564184,control_change,,,,,26,0,1,,64,0,0,,
564280,control_change,,,,,96,0,1,,64,127,0,,
564356,note_off,,,,,76,0,1,,,,0,55,64
564360,note_off,,,,,4,0,1,,,,0,36,64
564368,note_off,,,,,8,0,1,,,,0,60,64
564372,note_off,,,,,4,0,1,,,,0,40,64
564372,note_off,,,,,0,0,1,,,,0,43,64
564376,note_off,,,,,4,0,1,,,,0,48,64
564378,note_off,,,,,2,0,1,,,,0,64,64
564384,note_off,,,,,6,0,1,,,,0,67,64
564668,note_on,,,,,0,0,1,,,,0,64,82
564668,note_on,,,,,284,0,1,,,,0,72,82
564670,note_on,,,,,2,0,1,,,,0,67,81
564672,note_on,,,,,2,0,1,,,,0,79,76
564672,note_on,,,,,0,0,1,,,,0,76,77
564674,note_on,,,,,2,0,1,,,,0,55,69
564676,note_on,,,,,2,0,1,,,,0,60,74
564680,note_on,,,,,4,0,1,,,,0,52,73
564696,note_off,,,,,0,0,1,,,,0,72,64
564696,note_off,,,,,16,0,1,,,,0,67,64
564698,note_off,,,,,2,0,1,,,,0,52,64
564702,note_off,,,,,4,0,1,,,,0,64,64
564704,note_off,,,,,2,0,1,,,,0,60,64
564708,note_off,,,,,4,0,1,,,,0,76,64
564708,note_off,,,,,0,0,1,,,,0,79,64
564716,note_off,,,,,8,0,1,,,,0,55,64
564734,note_on,,,,,0,0,1,,,,0,72,88
564734,note_on,,,,,18,0,1,,,,0,79,88
564736,note_on,,,,,0,0,1,,,,0,67,82
564736,note_on,,,,,2,0,1,,,,0,76,73
564738,note_on,,,,,2,0,1,,,,0,64,93
564740,note_on,,,,,2,0,1,,,,0,55,86
564744,note_on,,,,,0,0,1,,,,0,52,83
564744,note_on,,,,,4,0,1,,,,0,60,76
564766,note_off,,,,,22,0,1,,,,0,67,64
564770,note_off,,,,,4,0,1,,,,0,52,64
564780,note_off,,,,,10,0,1,,,,0,72,64
564784,note_off,,,,,4,0,1,,,,0,64,64
564786,note_off,,,,,2,0,1,,,,0,60,64
564788,note_off,,,,,2,0,1,,,,0,55,64
564796,note_off,,,,,0,0,1,,,,0,79,64
564796,note_off,,,,,8,0,1,,,,0,76,64
565022,note_on,,,,,226,0,1,,,,0,84,88
565022,note_on,,,,,0,0,1,,,,0,79,91
565024,note_on,,,,,2,0,1,,,,0,88,87
565024,note_on,,,,,0,0,1,,,,0,76,90
565026,note_on,,,,,0,0,1,,,,0,72,82
565026,note_on,,,,,2,0,1,,,,0,91,87
565030,note_on,,,,,4,0,1,,,,0,67,79
565030,note_on,,,,,0,0,1,,,,0,64,83
565060,note_off,,,,,30,0,1,,,,0,91,64
565060,note_off,,,,,0,0,1,,,,0,79,64
565064,note_off,,,,,4,0,1,,,,0,76,64
565068,note_off,,,,,4,0,1,,,,0,64,64
565072,note_off,,,,,4,0,1,,,,0,72,64
565076,note_off,,,,,4,0,1,,,,0,84,64
565078,note_off,,,,,2,0,1,,,,0,88,64
565082,note_off,,,,,4,0,1,,,,0,67,64
565360,note_on,,,,,278,0,1,,,,0,34,93
565362,note_on,,,,,2,0,1,,,,0,70,87
565362,note_on,,,,,0,0,1,,,,0,58,97
565364,note_on,,,,,2,0,1,,,,0,62,92
565368,note_on,,,,,4,0,1,,,,0,41,88
565368,note_on,,,,,0,0,1,,,,0,38,82
565372,note_on,,,,,4,0,1,,,,0,65,90
565372,note_on,,,,,0,0,1,,,,0,46,97
565410,control_change,,,,,38,0,1,,64,0,0,,
565560,control_change,,,,,150,0,1,,64,127,0,,
565566,note_off,,,,,6,0,1,,,,0,34,64
565570,note_off,,,,,4,0,1,,,,0,58,64
565574,note_off,,,,,4,0,1,,,,0,62,64
565590,note_off,,,,,0,0,1,,,,0,41,64
565590,note_off,,,,,16,0,1,,,,0,38,64
565592,note_off,,,,,2,0,1,,,,0,65,64
565602,note_off,,,,,10,0,1,,,,0,46,64
565608,note_off,,,,,6,0,1,,,,0,70,64
565852,note_on,,,,,244,0,1,,,,0,82,81
565852,note_on,,,,,0,0,1,,,,0,70,84
565854,note_on,,,,,2,0,1,,,,0,62,76
565856,note_on,,,,,0,0,1,,,,0,58,84
565856,note_on,,,,,2,0,1,,,,0,65,82
565858,note_on,,,,,2,0,1,,,,0,77,77
565862,note_on,,,,,4,0,1,,,,0,74,77
565862,note_on,,,,,0,0,1,,,,0,53,79
565884,note_off,,,,,22,0,1,,,,0,53,64
565884,note_off,,,,,0,0,1,,,,0,70,64
565886,note_off,,,,,2,0,1,,,,0,65,64
565890,note_off,,,,,0,0,1,,,,0,77,64
565890,note_off,,,,,4,0,1,,,,0,74,64
565892,note_off,,,,,2,0,1,,,,0,62,64
565896,note_off,,,,,4,0,1,,,,0,58,64
565898,note_off,,,,,2,0,1,,,,0,82,64
565918,note_on,,,,,20,0,1,,,,0,77,82
565920,note_on,,,,,0,0,1,,,,0,58,97
565920,note_on,,,,,2,0,1,,,,0,82,86
565920,note_on,,,,,0,0,1,,,,0,74,83
565922,note_on,,,,,2,0,1,,,,0,65,98
565922,note_on,,,,,0,0,1,,,,0,62,84
565926,note_on,,,,,4,0,1,,,,0,53,87
565928,note_on,,,,,2,0,1,,,,0,70,87
565964,note_off,,,,,36,0,1,,,,0,70,64
565972,note_off,,,,,8,0,1,,,,0,53,64
565976,note_off,,,,,4,0,1,,,,0,74,64
565982,note_off,,,,,6,0,1,,,,0,65,64
565982,note_off,,,,,0,0,1,,,,0,58,64
565986,note_off,,,,,4,0,1,,,,0,62,64
565988,note_off,,,,,2,0,1,,,,0,77,64
565996,note_off,,,,,8,0,1,,,,0,82,64
566230,note_on,,,,,234,0,1,,,,0,82,94
566232,note_on,,,,,0,0,1,,,,0,86,91
566232,note_on,,,,,2,0,1,,,,0,94,95
566236,note_on,,,,,4,0,1,,,,0,77,85
566236,note_on,,,,,0,0,1,,,,0,74,82
566240,note_on,,,,,0,0,1,,,,0,65,82
566240,note_on,,,,,4,0,1,,,,0,89,84
566244,note_on,,,,,4,0,1,,,,0,70,75
566272,note_off,,,,,28,0,1,,,,0,82,64
566278,note_off,,,,,6,0,1,,,,0,94,64
566280,note_off,,,,,2,0,1,,,,0,77,64
566288,note_off,,,,,8,0,1,,,,0,74,64
566288,note_off,,,,,0,0,1,,,,0,86,64
566292,note_off,,,,,4,0,1,,,,0,89,64
566294,note_off,,,,,2,0,1,,,,0,65,64
566302,note_off,,,,,8,0,1,,,,0,70,64
566560,note_on,,,,,258,0,1,,,,0,63,95
566562,note_on,,,,,2,0,1,,,,0,68,92
566562,note_on,,,,,0,0,1,,,,0,60,94
566564,note_on,,,,,0,0,1,,,,0,36,76
566564,note_on,,,,,2,0,1,,,,0,44,93
566568,note_on,,,,,4,0,1,,,,0,72,86
566568,note_on,,,,,0,0,1,,,,0,39,80
566572,note_on,,,,,4,0,1,,,,0,32,82
566588,control_change,,,,,16,0,1,,64,0,0,,
566660,control_change,,,,,72,0,1,,64,127,0,,
566748,note_off,,,,,88,0,1,,,,0,60,64
566760,note_off,,,,,0,0,1,,,,0,36,64
566760,note_off,,,,,12,0,1,,,,0,32,64
566760,note_off,,,,,0,0,1,,,,0,63,64
566770,note_off,,,,,10,0,1,,,,0,39,64
566772,note_off,,,,,2,0,1,,,,0,44,64
566776,note_off,,,,,4,0,1,,,,0,72,64
566780,note_off,,,,,4,0,1,,,,0,68,64
567082,note_on,,,,,302,0,1,,,,0,75,85
567084,note_on,,,,,0,0,1,,,,0,72,80
567084,note_on,,,,,0,0,1,,,,0,56,82
567084,note_on,,,,,2,0,1,,,,0,80,83
567086,note_on,,,,,2,0,1,,,,0,84,74
567088,note_on,,,,,2,0,1,,,,0,68,83
567090,note_on,,,,,2,0,1,,,,0,63,70
567096,note_on,,,,,6,0,1,,,,0,60,67
567108,note_off,,,,,12,0,1,,,,0,60,64
567112,note_off,,,,,4,0,1,,,,0,72,64
567116,note_off,,,,,0,0,1,,,,0,56,64
567116,note_off,,,,,4,0,1,,,,0,68,64
567118,note_off,,,,,2,0,1,,,,0,63,64
567118,note_off,,,,,0,0,1,,,,0,75,64
567122,note_off,,,,,4,0,1,,,,0,80,64
567128,note_off,,,,,6,0,1,,,,0,84,64
567152,note_on,,,,,24,0,1,,,,0,80,83
567152,note_on,,,,,0,0,1,,,,0,75,87
567154,note_on,,,,,0,0,1,,,,0,68,94
567154,note_on,,,,,2,0,1,,,,0,72,91
567156,note_on,,,,,2,0,1,,,,0,60,76
567156,note_on,,,,,0,0,1,,,,0,56,88
567160,note_on,,,,,4,0,1,,,,0,84,82
567160,note_on,,,,,0,0,1,,,,0,63,78
567190,note_off,,,,,30,0,1,,,,0,72,64
567200,note_off,,,,,0,0,1,,,,0,60,64
567200,note_off,,,,,0,0,1,,,,0,75,64
567200,note_off,,,,,10,0,1,,,,0,56,64
567208,note_off,,,,,8,0,1,,,,0,68,64
567212,note_off,,,,,4,0,1,,,,0,63,64
567216,note_off,,,,,4,0,1,,,,0,84,64
567216,note_off,,,,,0,0,1,,,,0,80,64
567476,note_on,,,,,260,0,1,,,,0,87,96
567478,note_on,,,,,0,0,1,,,,0,92,90
567478,note_on,,,,,2,0,1,,,,0,96,91
567480,note_on,,,,,2,0,1,,,,0,80,96
567480,note_on,,,,,0,0,1,,,,0,68,85
567484,note_on,,,,,0,0,1,,,,0,75,82
567484,note_on,,,,,4,0,1,,,,0,84,90
567490,note_on,,,,,6,0,1,,,,0,72,72
567514,note_off,,,,,24,0,1,,,,0,84,64
567522,note_off,,,,,8,0,1,,,,0,96,64
567526,note_off,,,,,4,0,1,,,,0,80,64
567538,note_off,,,,,12,0,1,,,,0,75,64
567542,note_off,,,,,0,0,1,,,,0,87,64
567542,note_off,,,,,4,0,1,,,,0,68,64
567544,note_off,,,,,2,0,1,,,,0,72,64
567544,note_off,,,,,0,0,1,,,,0,92,64
567882,note_on,,,,,0,0,1,,,,0,42,100
567882,note_on,,,,,338,0,1,,,,0,61,96
567884,note_on,,,,,0,0,1,,,,0,30,92
567884,note_on,,,,,2,0,1,,,,0,34,87
567886,note_on,,,,,2,0,1,,,,0,37,89
567888,note_on,,,,,2,0,1,,,,0,70,85
567892,note_on,,,,,4,0,1,,,,0,66,91
567894,note_on,,,,,2,0,1,,,,0,73,86
567932,control_change,,,,,38,0,1,,64,0,0,,
568006,control_change,,,,,74,0,1,,64,127,0,,
568096,note_off,,,,,90,0,1,,,,0,30,64
568104,note_off,,,,,8,0,1,,,,0,61,64
568110,note_off,,,,,6,0,1,,,,0,66,64
568112,note_off,,,,,2,0,1,,,,0,34,64
568114,note_off,,,,,2,0,1,,,,0,37,64
568118,note_off,,,,,4,0,1,,,,0,42,64
568138,note_off,,,,,20,0,1,,,,0,70,64
568140,note_off,,,,,2,0,1,,,,0,73,64
568460,note_on,,,,,320,0,1,,,,0,73,88
568462,note_on,,,,,2,0,1,,,,0,85,81
568466,note_on,,,,,4,0,1,,,,0,70,90
568468,note_on,,,,,0,0,1,,,,0,82,77
568468,note_on,,,,,2,0,1,,,,0,78,77
568472,note_on,,,,,4,0,1,,,,0,58,77
568472,note_on,,,,,0,0,1,,,,0,61,68
568476,note_on,,,,,4,0,1,,,,0,66,75
568488,note_off,,,,,12,0,1,,,,0,66,64
568490,note_off,,,,,2,0,1,,,,0,73,64
568496,note_off,,,,,6,0,1,,,,0,78,64
568498,note_off,,,,,2,0,1,,,,0,70,64
568500,note_off,,,,,0,0,1,,,,0,58,64
568500,note_off,,,,,0,0,1,,,,0,85,64
568500,note_off,,,,,2,0,1,,,,0,61,64
568508,note_off,,,,,8,0,1,,,,0,82,64
568542,note_on,,,,,0,0,1,,,,0,70,101
568542,note_on,,,,,34,0,1,,,,0,82,81
568544,note_on,,,,,2,0,1,,,,0,73,98
568544,note_on,,,,,0,0,1,,,,0,66,90
568546,note_on,,,,,2,0,1,,,,0,78,92
568546,note_on,,,,,0,0,1,,,,0,61,79
568548,note_on,,,,,2,0,1,,,,0,58,81
568548,note_on,,,,,0,0,1,,,,0,85,84
568592,note_off,,,,,44,0,1,,,,0,58,64
568594,note_off,,,,,2,0,1,,,,0,73,64
568606,note_off,,,,,12,0,1,,,,0,61,64
568608,note_off,,,,,2,0,1,,,,0,78,64
568608,note_off,,,,,0,0,1,,,,0,66,64
568610,note_off,,,,,2,0,1,,,,0,70,64
568620,note_off,,,,,10,0,1,,,,0,82,64
568624,note_off,,,,,4,0,1,,,,0,85,64
568902,note_on,,,,,278,0,1,,,,0,85,95
568904,note_on,,,,,0,0,1,,,,0,82,96
568904,note_on,,,,,2,0,1,,,,0,97,94
568906,note_on,,,,,0,0,1,,,,0,94,96
568906,note_on,,,,,2,0,1,,,,0,78,84
568908,note_on,,,,,2,0,1,,,,0,70,82
568912,note_on,,,,,4,0,1,,,,0,73,77
568912,note_on,,,,,0,0,1,,,,0,90,89
568960,note_off,,,,,48,0,1,,,,0,85,64
568976,note_off,,,,,16,0,1,,,,0,97,64
568982,note_off,,,,,6,0,1,,,,0,94,64
568984,note_off,,,,,2,0,1,,,,0,82,64
568988,note_off,,,,,4,0,1,,,,0,90,64
568990,note_off,,,,,2,0,1,,,,0,78,64
568996,note_off,,,,,6,0,1,,,,0,73,64
568996,note_off,,,,,0,0,1,,,,0,70,64
570094,control_change,,,,,1098,0,1,,64,0,0,,
570208,note_on,,,,,114,0,1,,,,0,37,81
570210,note_on,,,,,2,0,1,,,,0,49,78
570214,note_on,,,,,4,0,1,,,,0,73,74
570216,note_on,,,,,2,0,1,,,,0,61,77
570230,note_off,,,,,0,0,1,,,,0,73,64
570230,note_off,,,,,14,0,1,,,,0,61,64
570234,note_off,,,,,4,0,1,,,,0,49,64
570234,note_off,,,,,0,0,1,,,,0,37,64
570248,set_tempo,,,,,6880,1,0,410959,,,,,
570256,set_tempo,,,,,8,1,0,413793,,,,,
570260,set_tempo,,,,,4,1,0,416667,,,,,
570262,note_on,,,,,28,0,1,,,,0,73,92
570264,note_on,,,,,2,0,1,,,,0,61,92
570266,note_on,,,,,2,0,1,,,,0,49,85
570268,note_on,,,,,2,0,1,,,,0,37,89
570272,set_tempo,,,,,12,1,0,419580,,,,,
570276,set_tempo,,,,,4,1,0,422535,,,,,
570284,set_tempo,,,,,8,1,0,425532,,,,,
570288,set_tempo,,,,,4,1,0,428571,,,,,
570292,set_tempo,,,,,4,1,0,431655,,,,,
570296,control_change,,,,,28,0,1,,64,127,0,,
570300,set_tempo,,,,,8,1,0,434783,,,,,
570304,set_tempo,,,,,4,1,0,441176,,,,,
570312,set_tempo,,,,,8,1,0,444444,,,,,
570320,set_tempo,,,,,8,1,0,447761,,,,,
570328,set_tempo,,,,,8,1,0,451128,,,,,
570332,set_tempo,,,,,4,1,0,454545,,,,,
570336,set_tempo,,,,,4,1,0,458015,,,,,
570344,set_tempo,,,,,8,1,0,461538,,,,,
570348,set_tempo,,,,,4,1,0,465116,,,,,
570352,end_of_track,,,,,0,1,0,,,,,,
570352,set_tempo,,,,,4,1,0,468750,,,,,
570414,note_off,,,,,118,0,1,,,,0,49,64
570438,note_off,,,,,24,0,1,,,,0,61,64
570440,note_off,,,,,2,0,1,,,,0,73,64
570448,note_off,,,,,8,0,1,,,,0,37,64
571008,note_on,,,,,560,0,1,,,,0,30,77
571010,note_on,,,,,2,0,1,,,,0,42,69
571012,note_on,,,,,2,0,1,,,,0,66,70
571016,note_on,,,,,4,0,1,,,,0,54,66
571032,note_off,,,,,16,0,1,,,,0,30,64
571034,note_off,,,,,0,0,1,,,,0,42,64
571034,note_off,,,,,2,0,1,,,,0,54,64
571042,note_off,,,,,8,0,1,,,,0,66,64
571066,note_on,,,,,0,0,1,,,,0,30,86
571066,note_on,,,,,24,0,1,,,,0,42,78
571068,note_on,,,,,2,0,1,,,,0,66,87
571072,note_on,,,,,4,0,1,,,,0,54,86
571094,control_change,,,,,22,0,1,,64,0,0,,
571184,control_change,,,,,90,0,1,,64,127,0,,
571334,note_off,,,,,150,0,1,,,,0,42,64
571380,note_off,,,,,46,0,1,,,,0,30,64
571400,note_off,,,,,20,0,1,,,,0,66,64
571410,note_off,,,,,10,0,1,,,,0,54,64
571922,note_on,,,,,0,0,1,,,,0,54,89
571922,note_on,,,,,512,0,1,,,,0,42,85
571924,note_on,,,,,0,0,1,,,,0,47,93
571924,note_on,,,,,2,0,1,,,,0,35,80
571926,note_on,,,,,0,0,1,,,,0,62,84
571926,note_on,,,,,2,0,1,,,,0,59,88
571930,note_on,,,,,4,0,1,,,,0,38,80
571932,note_on,,,,,2,0,1,,,,0,66,83
571962,control_change,,,,,30,0,1,,64,0,0,,
572208,control_change,,,,,246,0,1,,64,127,0,,
572428,note_off,,,,,220,0,1,,,,0,47,64
572492,note_off,,,,,64,0,1,,,,0,42,64
572496,note_off,,,,,4,0,1,,,,0,35,64
572512,note_off,,,,,16,0,1,,,,0,38,64
572522,note_off,,,,,10,0,1,,,,0,59,64
572532,note_off,,,,,10,0,1,,,,0,62,64
572536,note_off,,,,,4,0,1,,,,0,54,64
572554,note_off,,,,,18,0,1,,,,0,66,64
572976,note_on,,,,,422,0,1,,,,0,59,95
572976,note_on,,,,,0,0,1,,,,0,62,93
572978,note_on,,,,,2,0,1,,,,0,67,83
572978,note_on,,,,,0,0,1,,,,0,71,87
572980,note_on,,,,,0,0,1,,,,0,43,93
572980,note_on,,,,,2,0,1,,,,0,38,82
572986,note_on,,,,,6,0,1,,,,0,35,80
572988,note_on,,,,,2,0,1,,,,0,31,85
573016,control_change,,,,,28,0,1,,64,0,0,,
573254,control_change,,,,,238,0,1,,64,127,0,,
573476,note_off,,,,,222,0,1,,,,0,43,64
573492,note_off,,,,,16,0,1,,,,0,38,64
573496,note_off,,,,,4,0,1,,,,0,59,64
573498,note_off,,,,,0,0,1,,,,0,62,64
573498,note_off,,,,,2,0,1,,,,0,31,64
573508,note_off,,,,,0,0,1,,,,0,67,64
573508,note_off,,,,,10,0,1,,,,0,35,64
573516,note_off,,,,,8,0,1,,,,0,71,64
574056,note_on,,,,,0,0,1,,,,0,64,91
574056,note_on,,,,,540,0,1,,,,0,71,81
574058,note_on,,,,,2,0,1,,,,0,40,87
574060,note_on,,,,,2,0,1,,,,0,35,81
574060,note_on,,,,,0,0,1,,,,0,31,85
574062,note_on,,,,,2,0,1,,,,0,28,82
574064,note_on,,,,,2,0,1,,,,0,59,91
574066,note_on,,,,,2,0,1,,,,0,67,81
574104,control_change,,,,,38,0,1,,64,0,0,,
574260,control_change,,,,,156,0,1,,64,127,0,,
574450,note_off,,,,,190,0,1,,,,0,59,64
574468,note_off,,,,,18,0,1,,,,0,64,64
574474,note_off,,,,,6,0,1,,,,0,40,64
574476,note_off,,,,,2,0,1,,,,0,71,64
574480,note_off,,,,,4,0,1,,,,0,35,64
574484,note_off,,,,,4,0,1,,,,0,31,64
574484,note_off,,,,,0,0,1,,,,0,67,64
574490,note_off,,,,,6,0,1,,,,0,28,64
575056,note_on,,,,,566,0,1,,,,0,78,85
575056,note_on,,,,,0,0,1,,,,0,66,91
575056,note_on,,,,,0,0,1,,,,0,69,90
575058,note_on,,,,,2,0,1,,,,0,26,84
575060,note_on,,,,,2,0,1,,,,0,33,82
575062,note_on,,,,,0,0,1,,,,0,30,86
575062,note_on,,,,,2,0,1,,,,0,74,87
575086,control_change,,,,,24,0,1,,64,0,0,,
575154,control_change,,,,,68,0,1,,64,127,0,,
575172,note_on,,,,,18,0,1,,,,0,38,74
575192,note_off,,,,,20,0,1,,,,0,26,64
575194,note_off,,,,,2,0,1,,,,0,33,64
575200,note_off,,,,,6,0,1,,,,0,30,64
575222,note_off,,,,,22,0,1,,,,0,38,64
575246,note_on,,,,,24,0,1,,,,0,33,67
575248,note_on,,,,,2,0,1,,,,0,30,61
575248,note_on,,,,,0,0,1,,,,0,26,62
575282,note_off,,,,,34,0,1,,,,0,26,64
575296,note_off,,,,,14,0,1,,,,0,30,64
575312,note_off,,,,,16,0,1,,,,0,33,64
575314,note_on,,,,,2,0,1,,,,0,38,72
575358,note_off,,,,,44,0,1,,,,0,38,64
575362,note_on,,,,,4,0,1,,,,0,30,59
575362,note_on,,,,,0,0,1,,,,0,26,51
575368,note_on,,,,,6,0,1,,,,0,33,57
575392,note_off,,,,,24,0,1,,,,0,26,64
575408,note_off,,,,,16,0,1,,,,0,30,64
575420,note_off,,,,,12,0,1,,,,0,33,64
575422,note_on,,,,,2,0,1,,,,0,38,65
575460,note_off,,,,,38,0,1,,,,0,38,64
575460,note_on,,,,,0,0,1,,,,0,30,65
575468,note_on,,,,,8,0,1,,,,0,33,33
575468,note_on,,,,,0,0,1,,,,0,26,63
575498,note_off,,,,,30,0,1,,,,0,26,64
575508,note_off,,,,,10,0,1,,,,0,30,64
575520,note_off,,,,,12,0,1,,,,0,33,64
575520,note_on,,,,,0,0,1,,,,0,38,66
575558,note_on,,,,,38,0,1,,,,0,30,81
575560,note_on,,,,,2,0,1,,,,0,33,67
575560,note_on,,,,,0,0,1,,,,0,26,81
575566,note_off,,,,,6,0,1,,,,0,38,64
575592,note_off,,,,,26,0,1,,,,0,26,64
575602,note_off,,,,,10,0,1,,,,0,30,64
575612,note_on,,,,,0,0,1,,,,0,38,74
575612,note_off,,,,,10,0,1,,,,0,33,64
575656,note_on,,,,,44,0,1,,,,0,33,61
575656,note_on,,,,,0,0,1,,,,0,30,66
575658,note_on,,,,,2,0,1,,,,0,26,58
575660,note_off,,,,,2,0,1,,,,0,38,64
575680,note_off,,,,,20,0,1,,,,0,26,64
575696,note_off,,,,,16,0,1,,,,0,30,64
575708,note_off,,,,,12,0,1,,,,0,33,64
575710,note_on,,,,,2,0,1,,,,0,38,71
575748,note_on,,,,,38,0,1,,,,0,30,79
575750,note_off,,,,,2,0,1,,,,0,38,64
575752,note_on,,,,,0,0,1,,,,0,26,67
575752,note_on,,,,,2,0,1,,,,0,33,61
575768,note_off,,,,,16,0,1,,,,0,26,64
575790,note_off,,,,,22,0,1,,,,0,30,64
575800,note_on,,,,,10,0,1,,,,0,38,77
575804,note_off,,,,,4,0,1,,,,0,33,64
575844,note_on,,,,,40,0,1,,,,0,30,81
575846,note_off,,,,,2,0,1,,,,0,38,64
575848,note_on,,,,,2,0,1,,,,0,33,67
575848,note_on,,,,,0,0,1,,,,0,26,75
575874,note_off,,,,,26,0,1,,,,0,26,64
575884,note_off,,,,,10,0,1,,,,0,30,64
575892,note_off,,,,,8,0,1,,,,0,33,64
575896,note_on,,,,,4,0,1,,,,0,38,73
575932,note_off,,,,,36,0,1,,,,0,38,64
575936,note_on,,,,,4,0,1,,,,0,30,74
575944,note_on,,,,,8,0,1,,,,0,33,57
575944,note_on,,,,,0,0,1,,,,0,26,57
575962,note_off,,,,,18,0,1,,,,0,26,64
575964,note_off,,,,,2,0,1,,,,0,33,64
575974,note_off,,,,,10,0,1,,,,0,30,64
575984,note_off,,,,,10,0,1,,,,0,78,64
575988,note_on,,,,,4,0,1,,,,0,38,72
575990,note_off,,,,,2,0,1,,,,0,74,64
575998,note_off,,,,,8,0,1,,,,0,69,64
576014,note_off,,,,,16,0,1,,,,0,66,64
576022,note_off,,,,,8,0,1,,,,0,38,64
576032,note_on,,,,,10,0,1,,,,0,30,78
576036,note_on,,,,,4,0,1,,,,0,26,74
576040,note_on,,,,,4,0,1,,,,0,33,58
576048,note_off,,,,,8,0,1,,,,0,26,64
576058,note_off,,,,,10,0,1,,,,0,33,64
576066,note_off,,,,,8,0,1,,,,0,30,64
576082,note_on,,,,,16,0,1,,,,0,38,75
576122,note_on,,,,,40,0,1,,,,0,30,79
576126,note_on,,,,,4,0,1,,,,0,33,66
576128,note_on,,,,,0,0,1,,,,0,26,74
576128,note_off,,,,,2,0,1,,,,0,38,64
576160,note_off,,,,,32,0,1,,,,0,26,64
576164,note_off,,,,,4,0,1,,,,0,30,64
576176,note_on,,,,,0,0,1,,,,0,38,81
576176,note_off,,,,,12,0,1,,,,0,33,64
576220,note_off,,,,,44,0,1,,,,0,38,64
576220,note_on,,,,,0,0,1,,,,0,30,67
576224,note_on,,,,,4,0,1,,,,0,33,59
576230,note_on,,,,,6,0,1,,,,0,26,55
576248,note_off,,,,,18,0,1,,,,0,26,64
576264,note_off,,,,,16,0,1,,,,0,30,64
576270,note_on,,,,,6,0,1,,,,0,38,71
576274,note_off,,,,,4,0,1,,,,0,33,64
576314,note_off,,,,,40,0,1,,,,0,38,64
576318,note_on,,,,,4,0,1,,,,0,30,78
576320,note_on,,,,,2,0,1,,,,0,33,67
576322,note_on,,,,,2,0,1,,,,0,26,76
576356,note_off,,,,,0,0,1,,,,0,33,64
576356,note_off,,,,,34,0,1,,,,0,26,64
576366,note_off,,,,,10,0,1,,,,0,30,64
576372,note_on,,,,,6,0,1,,,,0,38,80
576386,note_on,,,,,14,0,1,,,,0,62,81
576390,note_on,,,,,4,0,1,,,,0,69,79
576392,note_on,,,,,2,0,1,,,,0,57,77
576404,note_off,,,,,12,0,1,,,,0,57,64
576410,note_off,,,,,6,0,1,,,,0,62,64
576416,note_off,,,,,6,0,1,,,,0,69,64
576418,note_off,,,,,2,0,1,,,,0,38,64
576420,note_on,,,,,2,0,1,,,,0,30,82
576422,note_on,,,,,2,0,1,,,,0,26,86
576426,note_on,,,,,4,0,1,,,,0,33,60
576434,note_on,,,,,8,0,1,,,,0,62,97
576434,note_on,,,,,0,0,1,,,,0,57,105
576436,note_on,,,,,2,0,1,,,,0,69,91
576466,note_off,,,,,30,0,1,,,,0,26,64
576474,note_on,,,,,8,0,1,,,,0,38,74
576476,note_off,,,,,2,0,1,,,,0,30,64
576486,note_off,,,,,10,0,1,,,,0,33,64
576528,note_on,,,,,42,0,1,,,,0,30,79
576534,note_off,,,,,6,0,1,,,,0,38,64
576534,note_on,,,,,0,0,1,,,,0,26,78
576536,note_on,,,,,2,0,1,,,,0,33,65
576568,note_off,,,,,32,0,1,,,,0,26,64
576578,note_off,,,,,10,0,1,,,,0,30,64
576586,note_on,,,,,8,0,1,,,,0,38,77
576594,note_off,,,,,8,0,1,,,,0,33,64
576634,note_on,,,,,40,0,1,,,,0,30,77
576636,note_off,,,,,2,0,1,,,,0,38,64
576640,note_on,,,,,4,0,1,,,,0,33,57
576640,note_on,,,,,0,0,1,,,,0,26,76
576664,note_off,,,,,24,0,1,,,,0,33,64
576670,note_off,,,,,6,0,1,,,,0,26,64
576676,note_off,,,,,6,0,1,,,,0,30,64
576688,note_on,,,,,12,0,1,,,,0,38,78
576728,note_on,,,,,40,0,1,,,,0,30,83
576730,note_off,,,,,2,0,1,,,,0,38,64
576732,note_on,,,,,2,0,1,,,,0,33,64
576732,note_on,,,,,0,0,1,,,,0,26,77
576748,note_off,,,,,16,0,1,,,,0,33,64
576764,note_off,,,,,16,0,1,,,,0,26,64
576772,note_off,,,,,8,0,1,,,,0,30,64
576780,note_on,,,,,8,0,1,,,,0,38,81
576824,note_on,,,,,0,0,1,,,,0,30,80
576824,note_off,,,,,44,0,1,,,,0,38,64
576828,note_on,,,,,4,0,1,,,,0,33,61
576832,note_on,,,,,4,0,1,,,,0,26,75
576846,note_off,,,,,14,0,1,,,,0,26,64
576868,note_off,,,,,22,0,1,,,,0,30,64
576874,note_on,,,,,6,0,1,,,,0,38,75
576878,note_off,,,,,4,0,1,,,,0,33,64
576920,note_on,,,,,42,0,1,,,,0,30,83
576922,note_off,,,,,2,0,1,,,,0,38,64
576926,note_on,,,,,4,0,1,,,,0,33,67
576926,note_on,,,,,0,0,1,,,,0,26,76
576940,note_off,,,,,14,0,1,,,,0,33,64
576954,note_off,,,,,14,0,1,,,,0,26,64
576964,note_off,,,,,10,0,1,,,,0,30,64
576972,note_on,,,,,8,0,1,,,,0,38,77
577014,note_on,,,,,42,0,1,,,,0,30,86
577016,note_on,,,,,2,0,1,,,,0,33,67
577018,note_off,,,,,2,0,1,,,,0,38,64
577022,note_on,,,,,4,0,1,,,,0,26,77
577042,note_off,,,,,20,0,1,,,,0,33,64
577046,note_off,,,,,4,0,1,,,,0,26,64
577052,note_off,,,,,6,0,1,,,,0,30,64
577064,note_on,,,,,12,0,1,,,,0,38,82
577106,note_on,,,,,42,0,1,,,,0,30,78
577112,note_on,,,,,0,0,1,,,,0,26,70
577112,note_on,,,,,0,0,1,,,,0,33,60
577112,note_off,,,,,6,0,1,,,,0,38,64
577128,note_off,,,,,16,0,1,,,,0,33,64
577134,note_off,,,,,6,0,1,,,,0,26,64
577152,note_off,,,,,18,0,1,,,,0,30,64
577162,note_on,,,,,10,0,1,,,,0,38,77
577206,note_off,,,,,44,0,1,,,,0,38,64
577208,note_on,,,,,2,0,1,,,,0,30,79
577212,note_on,,,,,0,0,1,,,,0,26,73
577212,note_on,,,,,4,0,1,,,,0,33,51
577230,note_off,,,,,18,0,1,,,,0,33,64
577240,note_off,,,,,10,0,1,,,,0,26,64
577248,note_off,,,,,8,0,1,,,,0,30,64
577256,note_on,,,,,8,0,1,,,,0,38,77
577300,note_on,,,,,44,0,1,,,,0,30,78
577304,note_off,,,,,4,0,1,,,,0,38,64
577304,note_on,,,,,0,0,1,,,,0,33,63
577308,note_on,,,,,4,0,1,,,,0,26,76
577336,note_off,,,,,28,0,1,,,,0,26,64
577338,note_off,,,,,2,0,1,,,,0,33,64
577342,note_off,,,,,4,0,1,,,,0,30,64
577354,note_on,,,,,12,0,1,,,,0,38,80
577360,note_off,,,,,6,0,1,,,,0,57,64
577392,note_off,,,,,32,0,1,,,,0,62,64
577394,note_off,,,,,2,0,1,,,,0,69,64
577396,note_on,,,,,2,0,1,,,,0,33,66
577396,note_on,,,,,0,0,1,,,,0,30,71
577398,note_off,,,,,2,0,1,,,,0,38,64
577402,note_on,,,,,4,0,1,,,,0,26,66
577418,note_off,,,,,16,0,1,,,,0,26,64
577440,note_off,,,,,22,0,1,,,,0,30,64
577448,note_on,,,,,8,0,1,,,,0,38,74
577454,note_off,,,,,6,0,1,,,,0,33,64
577488,note_off,,,,,34,0,1,,,,0,38,64
577494,note_on,,,,,6,0,1,,,,0,30,82
577498,note_on,,,,,4,0,1,,,,0,33,62
577500,note_on,,,,,2,0,1,,,,0,26,74
577518,note_off,,,,,18,0,1,,,,0,26,64
577520,note_off,,,,,2,0,1,,,,0,33,64
577536,note_off,,,,,16,0,1,,,,0,30,64
577544,note_on,,,,,8,0,1,,,,0,38,80
577566,note_on,,,,,22,0,1,,,,0,50,82
577568,note_on,,,,,0,0,1,,,,0,57,82
577568,note_on,,,,,2,0,1,,,,0,62,82
577588,note_off,,,,,0,0,1,,,,0,50,64
577588,note_off,,,,,20,0,1,,,,0,57,64
577588,note_off,,,,,0,0,1,,,,0,62,64
577590,note_on,,,,,2,0,1,,,,0,30,79
577592,note_on,,,,,2,0,1,,,,0,33,71
577594,note_off,,,,,2,0,1,,,,0,38,64
577596,note_on,,,,,2,0,1,,,,0,26,76
577608,note_on,,,,,0,0,1,,,,0,50,102
577608,note_on,,,,,0,0,1,,,,0,57,107
577608,note_on,,,,,12,0,1,,,,0,62,89
577638,note_off,,,,,30,0,1,,,,0,26,64
577648,note_off,,,,,10,0,1,,,,0,30,64
577648,note_on,,,,,0,0,1,,,,0,38,83
577662,note_off,,,,,14,0,1,,,,0,33,64
577704,note_on,,,,,42,0,1,,,,0,33,69
577704,note_on,,,,,0,0,1,,,,0,30,75
577708,note_off,,,,,4,0,1,,,,0,38,64
577710,note_on,,,,,2,0,1,,,,0,26,69
577742,note_off,,,,,32,0,1,,,,0,26,64
577756,note_off,,,,,14,0,1,,,,0,30,64
577762,note_on,,,,,6,0,1,,,,0,38,76
577768,note_off,,,,,6,0,1,,,,0,33,64
577814,note_on,,,,,0,0,1,,,,0,30,76
577814,note_off,,,,,46,0,1,,,,0,38,64
577820,note_on,,,,,0,0,1,,,,0,26,73
577820,note_on,,,,,6,0,1,,,,0,33,68
577856,note_off,,,,,36,0,1,,,,0,33,64
577858,note_off,,,,,2,0,1,,,,0,26,64
577864,note_off,,,,,6,0,1,,,,0,30,64
577874,note_on,,,,,10,0,1,,,,0,38,81
577918,note_on,,,,,44,0,1,,,,0,30,77
577922,note_on,,,,,4,0,1,,,,0,33,64
577928,note_off,,,,,6,0,1,,,,0,38,64
577928,note_on,,,,,0,0,1,,,,0,26,75
577960,note_off,,,,,32,0,1,,,,0,26,64
577966,note_off,,,,,6,0,1,,,,0,30,64
577974,note_on,,,,,8,0,1,,,,0,38,77
577984,note_off,,,,,10,0,1,,,,0,33,64
578020,note_off,,,,,36,0,1,,,,0,38,64
578020,note_on,,,,,0,0,1,,,,0,30,77
578020,note_on,,,,,0,0,1,,,,0,33,58
578030,note_on,,,,,10,0,1,,,,0,26,72
578054,note_off,,,,,24,0,1,,,,0,26,64
578066,note_off,,,,,12,0,1,,,,0,30,64
578076,note_on,,,,,10,0,1,,,,0,38,73
578084,note_off,,,,,8,0,1,,,,0,33,64
578122,note_off,,,,,38,0,1,,,,0,38,64
578122,note_on,,,,,0,0,1,,,,0,30,79
578122,note_on,,,,,0,0,1,,,,0,33,64
578128,note_on,,,,,6,0,1,,,,0,26,76
578150,note_off,,,,,22,0,1,,,,0,26,64
578164,note_off,,,,,14,0,1,,,,0,30,64
578172,note_on,,,,,8,0,1,,,,0,38,76
578178,note_off,,,,,6,0,1,,,,0,33,64
578214,note_on,,,,,0,0,1,,,,0,30,87
578214,note_on,,,,,36,0,1,,,,0,33,72
578220,note_on,,,,,6,0,1,,,,0,26,80
578228,note_off,,,,,8,0,1,,,,0,38,64
578248,note_off,,,,,20,0,1,,,,0,26,64
578258,note_off,,,,,10,0,1,,,,0,30,64
578260,note_off,,,,,2,0,1,,,,0,33,64
578270,note_on,,,,,10,0,1,,,,0,38,79
578310,note_on,,,,,40,0,1,,,,0,33,66
578312,note_on,,,,,2,0,1,,,,0,30,71
578318,note_off,,,,,6,0,1,,,,0,38,64
578320,note_on,,,,,2,0,1,,,,0,26,67
578342,note_off,,,,,22,0,1,,,,0,26,64
578352,note_off,,,,,10,0,1,,,,0,30,64
578364,note_on,,,,,12,0,1,,,,0,38,79
578368,note_off,,,,,4,0,1,,,,0,33,64
578406,note_off,,,,,38,0,1,,,,0,38,64
578410,note_on,,,,,4,0,1,,,,0,33,69
578412,note_on,,,,,2,0,1,,,,0,30,76
578418,note_on,,,,,6,0,1,,,,0,26,72
578442,note_off,,,,,24,0,1,,,,0,26,64
578456,note_off,,,,,14,0,1,,,,0,30,64
578462,note_on,,,,,6,0,1,,,,0,38,79
578466,note_off,,,,,4,0,1,,,,0,33,64
578504,note_on,,,,,38,0,1,,,,0,33,66
578506,note_off,,,,,2,0,1,,,,0,38,64
578506,note_on,,,,,0,0,1,,,,0,30,84
578508,note_on,,,,,2,0,1,,,,0,26,77
578540,note_off,,,,,32,0,1,,,,0,26,64
578546,note_off,,,,,6,0,1,,,,0,30,64
578554,note_on,,,,,8,0,1,,,,0,38,81
578564,note_off,,,,,10,0,1,,,,0,33,64
578598,note_on,,,,,34,0,1,,,,0,33,57
578600,note_on,,,,,2,0,1,,,,0,30,77
578604,note_on,,,,,0,0,1,,,,0,26,70
578604,note_off,,,,,4,0,1,,,,0,38,64
578638,note_off,,,,,34,0,1,,,,0,50,64
578640,note_off,,,,,2,0,1,,,,0,26,64
578646,note_off,,,,,6,0,1,,,,0,57,64
578646,note_off,,,,,0,0,1,,,,0,62,64
578648,note_off,,,,,2,0,1,,,,0,30,64
578652,note_on,,,,,4,0,1,,,,0,38,77
578662,note_off,,,,,10,0,1,,,,0,33,64
578700,note_off,,,,,38,0,1,,,,0,38,64
578702,note_on,,,,,2,0,1,,,,0,30,79
578704,note_on,,,,,2,0,1,,,,0,33,67
578710,note_on,,,,,6,0,1,,,,0,26,76
578740,note_off,,,,,30,0,1,,,,0,26,64
578750,note_off,,,,,10,0,1,,,,0,30,64
578758,note_on,,,,,8,0,1,,,,0,38,83
578760,note_on,,,,,2,0,1,,,,0,45,79
578764,note_on,,,,,4,0,1,,,,0,57,83
578764,note_on,,,,,0,0,1,,,,0,50,79
578766,note_off,,,,,2,0,1,,,,0,33,64
578784,note_off,,,,,18,0,1,,,,0,45,64
578788,note_off,,,,,4,0,1,,,,0,50,64
578792,note_off,,,,,4,0,1,,,,0,57,64
578804,note_off,,,,,12,0,1,,,,0,38,64
578804,note_on,,,,,0,0,1,,,,0,30,86
578806,note_on,,,,,2,0,1,,,,0,33,77
578812,note_on,,,,,6,0,1,,,,0,57,92
578812,note_on,,,,,0,0,1,,,,0,26,86
578812,note_on,,,,,0,0,1,,,,0,45,100
578814,note_on,,,,,2,0,1,,,,0,50,95
578848,note_off,,,,,34,0,1,,,,0,26,64
578856,note_off,,,,,8,0,1,,,,0,30,64
578860,note_on,,,,,4,0,1,,,,0,38,77
578872,note_off,,,,,12,0,1,,,,0,33,64
578912,note_on,,,,,40,0,1,,,,0,30,81
578916,note_on,,,,,0,0,1,,,,0,33,66
578916,note_off,,,,,4,0,1,,,,0,38,64
578918,note_on,,,,,2,0,1,,,,0,26,79
578954,note_off,,,,,36,0,1,,,,0,26,64
578966,note_off,,,,,12,0,1,,,,0,30,64
578972,note_on,,,,,6,0,1,,,,0,38,80
578978,note_off,,,,,6,0,1,,,,0,33,64
579024,note_on,,,,,46,0,1,,,,0,30,79
579028,note_on,,,,,4,0,1,,,,0,33,65
579028,note_on,,,,,0,0,1,,,,0,26,75
579030,note_off,,,,,2,0,1,,,,0,38,64
579064,note_off,,,,,34,0,1,,,,0,26,64
579072,note_off,,,,,8,0,1,,,,0,30,64
579080,note_on,,,,,8,0,1,,,,0,38,79
579086,note_off,,,,,6,0,1,,,,0,33,64
579120,note_off,,,,,34,0,1,,,,0,38,64
579134,note_on,,,,,14,0,1,,,,0,33,70
579136,note_on,,,,,2,0,1,,,,0,30,66
579138,note_on,,,,,2,0,1,,,,0,26,78
579176,note_off,,,,,38,0,1,,,,0,26,64
579178,note_off,,,,,2,0,1,,,,0,30,64
579182,note_on,,,,,4,0,1,,,,0,38,79
579188,note_off,,,,,6,0,1,,,,0,33,64
579232,note_on,,,,,44,0,1,,,,0,30,74
579234,note_on,,,,,0,0,1,,,,0,33,71
579234,note_off,,,,,2,0,1,,,,0,38,64
579238,note_on,,,,,4,0,1,,,,0,26,77
579280,note_off,,,,,42,0,1,,,,0,26,64
579284,note_off,,,,,4,0,1,,,,0,30,64
579290,note_on,,,,,6,0,1,,,,0,38,82
579292,note_off,,,,,2,0,1,,,,0,33,64
579340,note_on,,,,,0,0,1,,,,0,30,81
579340,note_on,,,,,48,0,1,,,,0,33,69
579342,note_off,,,,,2,0,1,,,,0,38,64
579346,note_on,,,,,4,0,1,,,,0,26,82
579370,note_off,,,,,24,0,1,,,,0,57,64
579378,note_off,,,,,8,0,1,,,,0,45,64
579384,note_off,,,,,6,0,1,,,,0,26,64
579388,note_off,,,,,4,0,1,,,,0,30,64
579396,note_off,,,,,8,0,1,,,,0,33,64
579396,note_off,,,,,0,0,1,,,,0,50,64
579396,note_on,,,,,0,0,1,,,,0,38,79
579448,note_on,,,,,52,0,1,,,,0,33,71
579448,note_on,,,,,0,0,1,,,,0,30,71
579450,note_on,,,,,2,0,1,,,,0,26,84
579454,note_on,,,,,0,0,1,,,,0,45,94
579454,note_off,,,,,4,0,1,,,,0,38,64
579456,note_on,,,,,2,0,1,,,,0,57,91
579458,note_on,,,,,2,0,1,,,,0,50,87
579494,note_off,,,,,36,0,1,,,,0,26,64
579496,note_off,,,,,2,0,1,,,,0,30,64
579502,note_on,,,,,6,0,1,,,,0,38,82
579514,note_off,,,,,12,0,1,,,,0,33,64
579546,note_on,,,,,32,0,1,,,,0,33,70
579550,note_on,,,,,4,0,1,,,,0,30,78
579552,note_off,,,,,2,0,1,,,,0,38,64
579552,note_on,,,,,0,0,1,,,,0,26,82
579592,note_off,,,,,40,0,1,,,,0,26,64
579602,note_on,,,,,10,0,1,,,,0,38,79
579604,note_off,,,,,2,0,1,,,,0,30,64
579614,note_off,,,,,10,0,1,,,,0,33,64
579652,note_off,,,,,38,0,1,,,,0,38,64
579660,note_on,,,,,8,0,1,,,,0,30,71
579660,note_on,,,,,0,0,1,,,,0,26,77
579664,note_on,,,,,4,0,1,,,,0,33,66
579704,note_off,,,,,40,0,1,,,,0,26,64
579710,note_off,,,,,6,0,1,,,,0,30,64
579712,note_on,,,,,2,0,1,,,,0,38,79
579720,note_off,,,,,8,0,1,,,,0,33,64
579764,note_off,,,,,44,0,1,,,,0,38,64
579768,note_on,,,,,4,0,1,,,,0,33,66
579770,note_on,,,,,2,0,1,,,,0,30,65
579772,note_on,,,,,2,0,1,,,,0,26,74
579806,note_off,,,,,34,0,1,,,,0,26,64
579814,note_off,,,,,8,0,1,,,,0,30,64
579820,note_on,,,,,6,0,1,,,,0,38,80
579826,note_off,,,,,6,0,1,,,,0,33,64
579872,note_off,,,,,46,0,1,,,,0,38,64
579874,note_on,,,,,0,0,1,,,,0,30,72
579874,note_on,,,,,2,0,1,,,,0,33,67
579880,note_on,,,,,6,0,1,,,,0,26,74
579924,note_off,,,,,44,0,1,,,,0,26,64
579932,note_off,,,,,8,0,1,,,,0,30,64
579934,note_on,,,,,2,0,1,,,,0,38,80
579936,note_off,,,,,2,0,1,,,,0,33,64
579982,note_off,,,,,46,0,1,,,,0,38,64
579982,note_on,,,,,0,0,1,,,,0,30,81
579984,note_on,,,,,2,0,1,,,,0,33,67
579988,note_on,,,,,4,0,1,,,,0,26,75
580048,note_on,,,,,60,0,1,,,,0,38,87
580050,note_off,,,,,2,0,1,,,,0,30,64
580052,note_off,,,,,2,0,1,,,,0,26,64
580068,note_off,,,,,16,0,1,,,,0,33,64
580082,note_off,,,,,14,0,1,,,,0,38,64
580126,note_off,,,,,44,0,1,,,,0,57,64
580136,note_off,,,,,10,0,1,,,,0,50,64
580148,note_off,,,,,12,0,1,,,,0,45,64
580192,note_on,,,,,44,0,1,,,,0,50,113
580196,note_on,,,,,4,0,1,,,,0,45,113
580198,note_on,,,,,2,0,1,,,,0,38,113
580200,note_on,,,,,2,0,1,,,,0,33,113
580202,note_on,,,,,2,0,1,,,,0,26,113
580476,note_off,,,,,274,0,1,,,,0,33,64
580476,note_off,,,,,0,0,1,,,,0,45,64
580480,note_off,,,,,4,0,1,,,,0,38,64
580482,note_off,,,,,2,0,1,,,,0,26,64
580484,note_off,,,,,2,0,1,,,,0,50,64
584156,end_of_track,,,,,0,1,1,,,,,,
584156,control_change,,,,,3672,0,1,,64,0,0,,
