tick,type,time,meta,track,numerator,denominator,clocks_per_click,notated_32nd_notes_per_beat,key,tempo,program,channel,control,value,note,velocity
0,control_change,0,0,1,,,,,,,,0,7,100,,
0,end_of_track,0,1,5,,,,,,,,,,,,
0,end_of_track,0,1,6,,,,,,,,,,,,
0,end_of_track,0,1,7,,,,,,,,,,,,
0,key_signature,0,1,0,,,,,C,,,,,,,
0,note_on,0,0,3,,,,,,,,2,,,62,64
0,note_on,0,0,4,,,,,,,,3,,,46,64
0,track_name,0,1,6,,,,,,,,,,,,
0,program_change,0,0,1,,,,,,,0,0,,,,
0,program_change,0,0,2,,,,,,,0,1,,,,
0,program_change,0,0,2,,,,,,,0,1,,,,
0,program_change,0,0,3,,,,,,,0,2,,,,
0,program_change,0,0,3,,,,,,,0,2,,,,
0,program_change,0,0,4,,,,,,,0,3,,,,
0,control_change,0,0,4,,,,,,,,3,93,64,,
0,program_change,0,0,4,,,,,,,0,3,,,,
0,text,0,1,0,,,,,,,,,,,,
0,text,0,1,0,,,,,,,,,,,,
0,text,0,1,0,,,,,,,,,,,,
0,text,0,1,0,,,,,,,,,,,,
0,text,0,1,0,,,,,,,,,,,,
0,time_signature,0,1,0,2,4,24,8,,,,,,,,
0,track_name,0,1,0,,,,,,,,,,,,
0,track_name,0,1,0,,,,,,,,,,,,
0,track_name,0,1,1,,,,,,,,,,,,
0,track_name,0,1,2,,,,,,,,,,,,
0,track_name,0,1,3,,,,,,,,,,,,
0,track_name,0,1,4,,,,,,,,,,,,
0,track_name,0,1,5,,,,,,,,,,,,
0,set_tempo,0,1,0,,,,,,521739,,,,,,
0,control_change,0,0,4,,,,,,,,3,91,120,,
0,track_name,0,1,7,,,,,,,,,,,,
0,control_change,0,0,4,,,,,,,,3,7,100,,
0,control_change,0,0,3,,,,,,,,2,91,100,,
0,control_change,0,0,3,,,,,,,,2,64,127,,
0,control_change,0,0,4,,,,,,,,3,10,20,,
0,control_change,0,0,3,,,,,,,,2,10,40,,
0,control_change,0,0,3,,,,,,,,2,7,100,,
0,control_change,0,0,3,,,,,,,,2,93,64,,
0,control_change,0,0,4,,,,,,,,3,7,100,,
0,control_change,0,0,3,,,,,,,,2,7,100,,
0,control_change,0,0,2,,,,,,,,1,91,50,,
0,control_change,0,0,2,,,,,,,,1,10,80,,
0,control_change,0,0,2,,,,,,,,1,7,100,,
0,control_change,0,0,2,,,,,,,,1,7,100,,
0,control_change,0,0,1,,,,,,,,0,10,110,,
0,control_change,0,0,2,,,,,,,,1,93,64,,
53,control_change,53,0,2,,,,,,,,1,64,127,,
108,note_on,108,0,3,,,,,,,,2,,,62,0
120,note_on,12,0,3,,,,,,,,2,,,65,64
216,note_on,216,0,4,,,,,,,,3,,,46,0
228,note_on,108,0,3,,,,,,,,2,,,65,0
240,note_on,187,0,2,,,,,,,,1,,,58,64
240,note_on,12,0,3,,,,,,,,2,,,70,64
348,note_on,108,0,3,,,,,,,,2,,,70,0
360,note_on,12,0,3,,,,,,,,2,,,65,64
456,note_on,216,0,2,,,,,,,,1,,,58,0
468,note_on,108,0,3,,,,,,,,2,,,65,0
480,note_on,264,0,4,,,,,,,,3,,,46,64
480,note_on,12,0,3,,,,,,,,2,,,62,64
588,note_on,108,0,3,,,,,,,,2,,,62,0
600,note_on,12,0,3,,,,,,,,2,,,65,64
696,note_on,216,0,4,,,,,,,,3,,,46,0
708,note_on,108,0,3,,,,,,,,2,,,65,0
720,note_on,12,0,3,,,,,,,,2,,,70,64
720,note_on,264,0,2,,,,,,,,1,,,62,64
828,note_on,108,0,3,,,,,,,,2,,,70,0
840,note_on,12,0,3,,,,,,,,2,,,65,64
936,note_on,216,0,2,,,,,,,,1,,,62,0
948,note_on,108,0,3,,,,,,,,2,,,65,0
960,note_on,0,0,3,,,,,,,,2,,,63,64
960,note_on,264,0,4,,,,,,,,3,,,41,64
960,control_change,12,0,3,,,,,,,,2,64,0,,
1013,control_change,53,0,3,,,,,,,,2,64,127,,
1013,control_change,0,0,2,,,,,,,,1,64,0,,
1013,control_change,77,0,2,,,,,,,,1,64,127,,
1068,note_on,55,0,3,,,,,,,,2,,,63,0
1080,note_on,12,0,3,,,,,,,,2,,,65,64
1176,note_on,216,0,4,,,,,,,,3,,,41,0
1188,note_on,108,0,3,,,,,,,,2,,,65,0
1200,note_on,187,0,2,,,,,,,,1,,,65,64
1200,note_on,12,0,3,,,,,,,,2,,,69,64
1308,note_on,108,0,3,,,,,,,,2,,,69,0
1320,note_on,12,0,3,,,,,,,,2,,,65,64
1416,note_on,216,0,2,,,,,,,,1,,,65,0
1428,note_on,108,0,3,,,,,,,,2,,,65,0
1440,note_on,24,0,2,,,,,,,,1,,,62,64
1440,note_on,264,0,4,,,,,,,,3,,,46,64
1440,note_on,12,0,3,,,,,,,,2,,,70,64
1548,note_on,108,0,3,,,,,,,,2,,,70,0
1560,note_on,12,0,3,,,,,,,,2,,,65,64
1656,note_on,216,0,2,,,,,,,,1,,,62,0
1656,note_on,216,0,4,,,,,,,,3,,,46,0
1668,note_on,108,0,3,,,,,,,,2,,,65,0
1680,note_on,12,0,3,,,,,,,,2,,,62,64
1788,note_on,108,0,3,,,,,,,,2,,,62,0
1800,note_on,12,0,3,,,,,,,,2,,,65,64
1908,note_on,108,0,3,,,,,,,,2,,,65,0
1920,note_on,264,0,4,,,,,,,,3,,,46,64
1920,note_on,0,0,3,,,,,,,,2,,,62,64
1920,control_change,12,0,3,,,,,,,,2,64,127,,
1973,control_change,53,0,3,,,,,,,,2,64,0,,
1973,control_change,317,0,2,,,,,,,,1,64,0,,
2028,note_on,55,0,3,,,,,,,,2,,,62,0
2040,note_on,12,0,3,,,,,,,,2,,,65,64
2053,control_change,80,0,2,,,,,,,,1,64,127,,
2136,note_on,216,0,4,,,,,,,,3,,,46,0
2148,note_on,108,0,3,,,,,,,,2,,,65,0
2160,note_on,12,0,3,,,,,,,,2,,,70,64
2160,note_on,107,0,2,,,,,,,,1,,,58,64
2268,note_on,108,0,3,,,,,,,,2,,,70,0
2280,note_on,12,0,3,,,,,,,,2,,,65,64
2376,note_on,216,0,2,,,,,,,,1,,,58,0
2388,note_on,108,0,3,,,,,,,,2,,,65,0
2400,note_on,12,0,3,,,,,,,,2,,,62,64
2400,note_on,264,0,4,,,,,,,,3,,,46,64
2508,note_on,108,0,3,,,,,,,,2,,,62,0
2520,note_on,12,0,3,,,,,,,,2,,,65,64
2616,note_on,216,0,4,,,,,,,,3,,,46,0
2628,note_on,108,0,3,,,,,,,,2,,,65,0
2640,note_on,12,0,3,,,,,,,,2,,,70,64
2640,note_on,264,0,2,,,,,,,,1,,,62,64
2748,note_on,108,0,3,,,,,,,,2,,,70,0
2760,note_on,12,0,3,,,,,,,,2,,,65,64
2856,note_on,216,0,2,,,,,,,,1,,,62,0
2868,note_on,108,0,3,,,,,,,,2,,,65,0
2880,note_on,12,0,3,,,,,,,,2,,,63,64
2880,note_on,264,0,4,,,,,,,,3,,,41,64
2947,control_change,67,0,3,,,,,,,,2,64,0,,
2988,note_on,41,0,3,,,,,,,,2,,,63,0
3000,note_on,12,0,3,,,,,,,,2,,,65,64
3013,control_change,157,0,2,,,,,,,,1,64,0,,
3096,note_on,216,0,4,,,,,,,,3,,,41,0
3108,note_on,108,0,3,,,,,,,,2,,,65,0
3120,note_on,12,0,3,,,,,,,,2,,,69,64
3120,note_on,107,0,2,,,,,,,,1,,,65,64
3228,note_on,108,0,3,,,,,,,,2,,,69,0
3240,note_on,12,0,3,,,,,,,,2,,,65,64
3336,note_on,216,0,2,,,,,,,,1,,,65,0
3348,note_on,108,0,3,,,,,,,,2,,,65,0
3360,note_on,0,0,4,,,,,,,,3,,,50,64
3360,note_on,24,0,2,,,,,,,,1,,,58,64
3360,note_on,264,0,4,,,,,,,,3,,,46,64
3576,note_on,216,0,4,,,,,,,,3,,,50,0
3576,note_on,216,0,2,,,,,,,,1,,,58,0
3576,note_on,0,0,4,,,,,,,,3,,,46,0
3720,note_on,0,0,1,,,,,,,,0,,,65,64
3720,control_change,3720,0,1,,,,,,,,0,91,20,,
3720,control_change,0,0,1,,,,,,,,0,93,64,,
3828,note_on,108,0,1,,,,,,,,0,,,65,0
3840,note_on,264,0,4,,,,,,,,3,,,46,55
3840,note_on,12,0,1,,,,,,,,0,,,65,60
3948,note_on,108,0,4,,,,,,,,3,,,46,0
3960,note_on,12,0,4,,,,,,,,3,,,53,55
4056,note_on,216,0,1,,,,,,,,0,,,65,0
4068,note_on,108,0,4,,,,,,,,3,,,53,0
4080,note_on,24,0,1,,,,,,,,0,,,62,60
4080,note_on,12,0,4,,,,,,,,3,,,58,55
4152,note_on,72,0,1,,,,,,,,0,,,62,0
4160,note_on,8,0,1,,,,,,,,0,,,65,60
4188,note_on,108,0,4,,,,,,,,3,,,58,0
4200,note_on,12,0,4,,,,,,,,3,,,53,55
4232,note_on,72,0,1,,,,,,,,0,,,65,0
4240,note_on,8,0,1,,,,,,,,0,,,70,60
4308,note_on,108,0,4,,,,,,,,3,,,53,0
4312,note_on,72,0,1,,,,,,,,0,,,70,0
4320,note_on,8,0,1,,,,,,,,0,,,69,60
4320,note_on,12,0,4,,,,,,,,3,,,46,55
4428,note_on,108,0,4,,,,,,,,3,,,46,0
4440,note_on,12,0,4,,,,,,,,3,,,53,55
4536,note_on,216,0,1,,,,,,,,0,,,69,0
4548,note_on,108,0,4,,,,,,,,3,,,53,0
4560,note_on,24,0,1,,,,,,,,0,,,63,60
4560,note_on,12,0,4,,,,,,,,3,,,57,55
4632,note_on,72,0,1,,,,,,,,0,,,63,0
4640,note_on,8,0,1,,,,,,,,0,,,65,60
4668,note_on,108,0,4,,,,,,,,3,,,57,0
4680,note_on,12,0,4,,,,,,,,3,,,53,55
4712,note_on,72,0,1,,,,,,,,0,,,65,0
4720,note_on,8,0,1,,,,,,,,0,,,75,60
4788,note_on,108,0,4,,,,,,,,3,,,53,0
4792,note_on,72,0,1,,,,,,,,0,,,75,0
4800,control_change,12,0,4,,,,,,,,3,64,127,,
4800,note_on,0,0,4,,,,,,,,3,,,46,55
4800,control_change,8,0,1,,,,,,,,0,64,127,,
4800,note_on,0,0,1,,,,,,,,0,,,74,60
4908,note_on,108,0,4,,,,,,,,3,,,46,0
4908,note_on,108,0,1,,,,,,,,0,,,74,0
4920,note_on,12,0,1,,,,,,,,0,,,77,60
4920,note_on,12,0,4,,,,,,,,3,,,53,55
5028,note_on,108,0,1,,,,,,,,0,,,77,0
5028,note_on,108,0,4,,,,,,,,3,,,53,0
5040,note_on,12,0,1,,,,,,,,0,,,62,67
5040,note_on,12,0,4,,,,,,,,3,,,58,55
5076,note_on,36,0,1,,,,,,,,0,,,62,0
5080,note_on,4,0,1,,,,,,,,0,,,65,63
5116,note_on,36,0,1,,,,,,,,0,,,65,0
5120,note_on,4,0,1,,,,,,,,0,,,74,59
5148,note_on,108,0,4,,,,,,,,3,,,58,0
5156,note_on,36,0,1,,,,,,,,0,,,74,0
5160,note_on,12,0,4,,,,,,,,3,,,53,55
5160,note_on,4,0,1,,,,,,,,0,,,70,56
5268,note_on,108,0,4,,,,,,,,3,,,53,0
5268,note_on,108,0,1,,,,,,,,0,,,70,0
5280,note_on,12,0,1,,,,,,,,0,,,65,60
5280,note_on,12,0,4,,,,,,,,3,,,46,55
5388,note_on,108,0,4,,,,,,,,3,,,46,0
5400,note_on,12,0,4,,,,,,,,3,,,53,55
5496,note_on,216,0,1,,,,,,,,0,,,65,0
5508,note_on,108,0,4,,,,,,,,3,,,53,0
5520,note_on,12,0,4,,,,,,,,3,,,58,55
5520,note_on,24,0,1,,,,,,,,0,,,62,59
5592,note_on,72,0,1,,,,,,,,0,,,62,0
5600,note_on,8,0,1,,,,,,,,0,,,65,57
5628,note_on,108,0,4,,,,,,,,3,,,58,0
5640,note_on,12,0,4,,,,,,,,3,,,53,55
5672,note_on,72,0,1,,,,,,,,0,,,65,0
5680,note_on,8,0,1,,,,,,,,0,,,74,56
5748,note_on,108,0,4,,,,,,,,3,,,53,0
5752,note_on,72,0,1,,,,,,,,0,,,74,0
5760,note_on,0,0,4,,,,,,,,3,,,46,55
5760,note_on,0,0,1,,,,,,,,0,,,72,54
5760,control_change,12,0,4,,,,,,,,3,64,0,,
5760,control_change,8,0,1,,,,,,,,0,64,0,,
5868,note_on,108,0,4,,,,,,,,3,,,46,0
5880,note_on,12,0,4,,,,,,,,3,,,53,53
5988,note_on,108,0,4,,,,,,,,3,,,53,0
6000,note_on,0,0,2,,,,,,,,1,,,65,60
6000,note_on,2424,0,2,,,,,,,,1,,,63,60
6000,note_on,12,0,4,,,,,,,,3,,,57,52
6084,note_on,324,0,1,,,,,,,,0,,,72,0
6108,note_on,108,0,4,,,,,,,,3,,,57,0
6120,note_on,36,0,1,,,,,,,,0,,,69,59
6120,note_on,12,0,4,,,,,,,,3,,,53,51
6216,note_on,0,0,2,,,,,,,,1,,,63,0
6216,note_on,216,0,2,,,,,,,,1,,,65,0
6228,note_on,108,0,1,,,,,,,,0,,,69,0
6228,note_on,108,0,4,,,,,,,,3,,,53,0
6240,note_on,12,0,1,,,,,,,,0,,,70,57
6240,note_on,12,0,4,,,,,,,,3,,,46,49
6348,note_on,108,0,4,,,,,,,,3,,,46,0
6360,note_on,12,0,4,,,,,,,,3,,,53,48
6468,note_on,108,0,4,,,,,,,,3,,,53,0
6480,note_on,0,0,2,,,,,,,,1,,,65,54
6480,note_on,12,0,4,,,,,,,,3,,,58,46
6480,note_on,264,0,2,,,,,,,,1,,,62,54
6588,note_on,108,0,4,,,,,,,,3,,,58,0
6600,note_on,12,0,4,,,,,,,,3,,,53,45
6672,note_on,432,0,1,,,,,,,,0,,,70,0
6696,note_on,216,0,2,,,,,,,,1,,,65,0
6696,note_on,0,0,2,,,,,,,,1,,,62,0
6708,note_on,108,0,4,,,,,,,,3,,,53,0
6720,note_on,12,0,4,,,,,,,,3,,,41,64
6720,note_on,3372,0,3,,,,,,,,2,,,51,70
6828,note_on,108,0,3,,,,,,,,2,,,51,0
6840,note_on,12,0,3,,,,,,,,2,,,53,68
6936,note_on,216,0,4,,,,,,,,3,,,41,0
6948,note_on,108,0,3,,,,,,,,2,,,53,0
6960,note_on,0,0,3,,,,,,,,2,,,57,66
6960,note_on,0,0,3,,,,,,,,2,,,60,66
6960,note_on,12,0,3,,,,,,,,2,,,65,66
7068,note_on,0,0,3,,,,,,,,2,,,60,0
7068,note_on,0,0,3,,,,,,,,2,,,65,0
7068,note_on,108,0,3,,,,,,,,2,,,57,0
7080,note_on,12,0,3,,,,,,,,2,,,53,62
7188,note_on,108,0,3,,,,,,,,2,,,53,0
7200,note_on,264,0,4,,,,,,,,3,,,46,55
7200,note_on,12,0,3,,,,,,,,2,,,50,60
7308,note_on,108,0,3,,,,,,,,2,,,50,0
7320,note_on,12,0,3,,,,,,,,2,,,53,58
7416,note_on,216,0,4,,,,,,,,3,,,46,0
7428,note_on,108,0,3,,,,,,,,2,,,53,0
7440,note_on,0,0,3,,,,,,,,2,,,62,55
7440,note_on,0,0,3,,,,,,,,2,,,58,55
7440,note_on,12,0,3,,,,,,,,2,,,65,55
7440,note_on,744,0,2,,,,,,,,1,,,65,50
7548,note_on,0,0,3,,,,,,,,2,,,65,0
7548,note_on,0,0,3,,,,,,,,2,,,62,0
7548,note_on,108,0,3,,,,,,,,2,,,58,0
7560,note_on,12,0,3,,,,,,,,2,,,53,52
7656,note_on,216,0,2,,,,,,,,1,,,65,0
7668,note_on,108,0,3,,,,,,,,2,,,53,0
7680,note_on,1008,0,1,,,,,,,,0,,,65,45
7680,note_on,264,0,4,,,,,,,,3,,,46,45
7788,note_on,108,0,4,,,,,,,,3,,,46,0
7800,note_on,12,0,4,,,,,,,,3,,,53,48
7896,note_on,216,0,1,,,,,,,,0,,,65,0
7908,note_on,108,0,4,,,,,,,,3,,,53,0
7920,note_on,12,0,4,,,,,,,,3,,,58,48
7920,note_on,24,0,1,,,,,,,,0,,,62,50
7992,note_on,72,0,1,,,,,,,,0,,,62,0
8000,note_on,8,0,1,,,,,,,,0,,,65,50
8028,note_on,108,0,4,,,,,,,,3,,,58,0
8040,note_on,12,0,4,,,,,,,,3,,,53,48
8072,note_on,72,0,1,,,,,,,,0,,,65,0
8080,note_on,8,0,1,,,,,,,,0,,,70,50
8148,note_on,108,0,4,,,,,,,,3,,,53,0
8152,note_on,72,0,1,,,,,,,,0,,,70,0
8160,note_on,8,0,1,,,,,,,,0,,,69,50
8160,note_on,12,0,4,,,,,,,,3,,,46,48
8268,note_on,108,0,4,,,,,,,,3,,,46,0
8280,note_on,12,0,4,,,,,,,,3,,,53,48
8376,note_on,216,0,1,,,,,,,,0,,,69,0
8388,note_on,108,0,4,,,,,,,,3,,,53,0
8400,note_on,24,0,1,,,,,,,,0,,,63,50
8400,note_on,12,0,4,,,,,,,,3,,,57,48
8472,note_on,72,0,1,,,,,,,,0,,,63,0
8480,note_on,8,0,1,,,,,,,,0,,,65,50
8508,note_on,108,0,4,,,,,,,,3,,,57,0
8520,note_on,12,0,4,,,,,,,,3,,,53,48
8552,note_on,72,0,1,,,,,,,,0,,,65,0
8560,note_on,8,0,1,,,,,,,,0,,,75,50
8628,note_on,108,0,4,,,,,,,,3,,,53,0
8632,note_on,72,0,1,,,,,,,,0,,,75,0
8640,control_change,12,0,4,,,,,,,,3,64,127,,
8640,note_on,0,0,1,,,,,,,,0,,,74,50
8640,control_change,8,0,1,,,,,,,,0,64,127,,
8640,note_on,0,0,4,,,,,,,,3,,,46,48
8748,note_on,108,0,1,,,,,,,,0,,,74,0
8748,note_on,108,0,4,,,,,,,,3,,,46,0
8760,note_on,12,0,4,,,,,,,,3,,,53,48
8760,note_on,12,0,1,,,,,,,,0,,,77,50
8868,note_on,108,0,4,,,,,,,,3,,,53,0
8868,note_on,108,0,1,,,,,,,,0,,,77,0
8880,note_on,12,0,4,,,,,,,,3,,,58,48
8880,note_on,12,0,1,,,,,,,,0,,,62,55
8916,note_on,36,0,1,,,,,,,,0,,,62,0
8920,note_on,4,0,1,,,,,,,,0,,,65,50
8956,note_on,36,0,1,,,,,,,,0,,,65,0
8960,note_on,4,0,1,,,,,,,,0,,,74,47
8988,note_on,108,0,4,,,,,,,,3,,,58,0
8996,note_on,36,0,1,,,,,,,,0,,,74,0
9000,note_on,12,0,4,,,,,,,,3,,,53,48
9000,note_on,4,0,1,,,,,,,,0,,,70,43
9108,note_on,108,0,1,,,,,,,,0,,,70,0
9108,note_on,108,0,4,,,,,,,,3,,,53,0
9120,note_on,12,0,1,,,,,,,,0,,,65,50
9120,note_on,12,0,4,,,,,,,,3,,,46,48
9228,note_on,108,0,4,,,,,,,,3,,,46,0
9240,note_on,12,0,4,,,,,,,,3,,,53,48
9336,note_on,216,0,1,,,,,,,,0,,,65,0
9348,note_on,108,0,4,,,,,,,,3,,,53,0
9360,note_on,24,0,1,,,,,,,,0,,,62,50
9360,note_on,12,0,4,,,,,,,,3,,,58,48
9432,note_on,72,0,1,,,,,,,,0,,,62,0
9440,note_on,8,0,1,,,,,,,,0,,,65,50
9468,note_on,108,0,4,,,,,,,,3,,,58,0
9480,note_on,12,0,4,,,,,,,,3,,,53,48
9512,note_on,72,0,1,,,,,,,,0,,,65,0
9520,note_on,8,0,1,,,,,,,,0,,,74,50
9588,note_on,108,0,4,,,,,,,,3,,,53,0
9592,note_on,72,0,1,,,,,,,,0,,,74,0
9600,note_on,0,0,1,,,,,,,,0,,,72,60
9600,control_change,8,0,1,,,,,,,,0,64,0,,
9600,control_change,12,0,4,,,,,,,,3,64,0,,
9600,note_on,0,0,4,,,,,,,,3,,,41,64
9708,note_on,108,0,4,,,,,,,,3,,,41,0
9720,note_on,12,0,4,,,,,,,,3,,,53,60
9828,note_on,108,0,4,,,,,,,,3,,,53,0
9840,note_on,0,0,2,,,,,,,,1,,,65,58
9840,note_on,12,0,4,,,,,,,,3,,,57,57
9840,note_on,2184,0,2,,,,,,,,1,,,63,58
9924,note_on,324,0,1,,,,,,,,0,,,72,0
9948,note_on,108,0,4,,,,,,,,3,,,57,0
9960,note_on,36,0,1,,,,,,,,0,,,69,54
9960,note_on,12,0,4,,,,,,,,3,,,53,55
10056,note_on,216,0,2,,,,,,,,1,,,65,0
10056,note_on,0,0,2,,,,,,,,1,,,63,0
10068,note_on,108,0,4,,,,,,,,3,,,53,0
10068,note_on,108,0,1,,,,,,,,0,,,69,0
10080,note_on,12,0,1,,,,,,,,0,,,70,52
10080,note_on,12,0,4,,,,,,,,3,,,46,53
10188,note_on,108,0,4,,,,,,,,3,,,46,0
10200,note_on,12,0,4,,,,,,,,3,,,53,51
10308,note_on,108,0,4,,,,,,,,3,,,53,0
10320,note_on,0,0,2,,,,,,,,1,,,65,47
10320,note_on,264,0,2,,,,,,,,1,,,62,47
10320,note_on,12,0,4,,,,,,,,3,,,58,49
10428,note_on,108,0,4,,,,,,,,3,,,58,0
10440,note_on,12,0,4,,,,,,,,3,,,53,47
10512,note_on,432,0,1,,,,,,,,0,,,70,0
10536,note_on,0,0,2,,,,,,,,1,,,62,0
10536,note_on,216,0,2,,,,,,,,1,,,65,0
10548,note_on,108,0,4,,,,,,,,3,,,53,0
10560,note_on,2892,0,3,,,,,,,,2,,,51,68
10560,note_on,12,0,4,,,,,,,,3,,,41,64
10668,note_on,108,0,3,,,,,,,,2,,,51,0
10680,note_on,12,0,3,,,,,,,,2,,,53,64
10776,note_on,216,0,4,,,,,,,,3,,,41,0
10788,note_on,108,0,3,,,,,,,,2,,,53,0
10800,note_on,0,0,3,,,,,,,,2,,,57,60
10800,note_on,12,0,3,,,,,,,,2,,,65,60
10800,note_on,0,0,3,,,,,,,,2,,,60,60
10908,note_on,108,0,3,,,,,,,,2,,,57,0
10908,note_on,0,0,3,,,,,,,,2,,,65,0
10908,note_on,0,0,3,,,,,,,,2,,,60,0
10920,note_on,12,0,3,,,,,,,,2,,,53,57
11028,note_on,108,0,3,,,,,,,,2,,,53,0
11040,note_on,264,0,4,,,,,,,,3,,,46,50
11040,note_on,12,0,3,,,,,,,,2,,,50,52
11148,note_on,108,0,3,,,,,,,,2,,,50,0
11160,note_on,12,0,3,,,,,,,,2,,,53,49
11256,note_on,216,0,4,,,,,,,,3,,,46,0
11268,note_on,108,0,3,,,,,,,,2,,,53,0
11280,note_on,768,0,1,,,,,,,,0,,,62,51
11280,note_on,12,0,3,,,,,,,,2,,,58,52
11316,note_on,36,0,1,,,,,,,,0,,,62,0
11320,note_on,4,0,1,,,,,,,,0,,,65,55
11356,note_on,36,0,1,,,,,,,,0,,,65,0
11360,note_on,4,0,1,,,,,,,,0,,,70,57
11396,note_on,36,0,1,,,,,,,,0,,,70,0
11400,note_on,4,0,1,,,,,,,,0,,,72,61
11496,note_on,216,0,3,,,,,,,,2,,,58,0
11508,note_on,108,0,1,,,,,,,,0,,,72,0
11520,note_on,264,0,4,,,,,,,,3,,,58,64
11520,note_on,12,0,1,,,,,,,,0,,,74,57
11520,note_on,984,0,2,,,,,,,,1,,,74,64
11628,note_on,108,0,2,,,,,,,,1,,,74,0
11640,note_on,12,0,2,,,,,,,,1,,,62,57
11736,note_on,216,0,4,,,,,,,,3,,,58,0
11736,note_on,216,0,1,,,,,,,,0,,,74,0
11748,note_on,108,0,2,,,,,,,,1,,,62,0
11760,note_on,24,0,4,,,,,,,,3,,,57,60
11760,note_on,24,0,1,,,,,,,,0,,,72,57
11760,note_on,12,0,2,,,,,,,,1,,,74,57
11868,note_on,108,0,2,,,,,,,,1,,,74,0
11880,note_on,12,0,2,,,,,,,,1,,,62,57
11976,note_on,216,0,4,,,,,,,,3,,,57,0
11976,note_on,216,0,1,,,,,,,,0,,,72,0
11988,note_on,108,0,2,,,,,,,,1,,,62,0
12000,note_on,24,0,1,,,,,,,,0,,,74,56
12000,note_on,12,0,2,,,,,,,,1,,,74,57
12000,note_on,24,0,4,,,,,,,,3,,,55,59
12108,note_on,108,0,2,,,,,,,,1,,,74,0
12120,note_on,12,0,2,,,,,,,,1,,,62,56
12216,note_on,216,0,4,,,,,,,,3,,,55,0
12216,note_on,216,0,1,,,,,,,,0,,,74,0
12228,note_on,108,0,2,,,,,,,,1,,,62,0
12240,note_on,24,0,1,,,,,,,,0,,,69,55
12240,note_on,12,0,2,,,,,,,,1,,,74,56
12240,note_on,24,0,4,,,,,,,,3,,,54,58
12348,note_on,108,0,2,,,,,,,,1,,,74,0
12360,note_on,12,0,2,,,,,,,,1,,,62,56
12456,note_on,216,0,4,,,,,,,,3,,,54,0
12456,note_on,216,0,1,,,,,,,,0,,,69,0
12468,note_on,108,0,2,,,,,,,,1,,,62,0
12480,note_on,24,0,4,,,,,,,,3,,,55,57
12480,note_on,12,0,2,,,,,,,,1,,,74,56
12480,note_on,24,0,1,,,,,,,,0,,,70,55
12588,note_on,108,0,2,,,,,,,,1,,,74,0
12588,note_on,108,0,1,,,,,,,,0,,,70,0
12600,note_on,12,0,1,,,,,,,,0,,,72,54
12600,note_on,12,0,2,,,,,,,,1,,,62,55
12708,note_on,108,0,2,,,,,,,,1,,,62,0
12708,note_on,108,0,1,,,,,,,,0,,,72,0
12720,note_on,12,0,1,,,,,,,,0,,,70,54
12720,note_on,12,0,2,,,,,,,,1,,,74,55
12828,note_on,108,0,1,,,,,,,,0,,,70,0
12828,note_on,108,0,2,,,,,,,,1,,,74,0
12840,note_on,12,0,1,,,,,,,,0,,,69,54
12840,note_on,0,0,4,,,,,,,,3,,,57,56
12840,note_on,360,0,4,,,,,,,,3,,,55,0
12840,note_on,12,0,2,,,,,,,,1,,,62,55
12948,note_on,108,0,4,,,,,,,,3,,,57,0
12948,note_on,108,0,1,,,,,,,,0,,,69,0
12948,note_on,108,0,2,,,,,,,,1,,,62,0
12960,note_on,12,0,4,,,,,,,,3,,,58,55
12960,note_on,12,0,1,,,,,,,,0,,,67,53
12960,note_on,12,0,2,,,,,,,,1,,,74,55
13068,note_on,108,0,2,,,,,,,,1,,,74,0
13080,note_on,12,0,2,,,,,,,,1,,,62,54
13176,note_on,216,0,4,,,,,,,,3,,,58,0
13176,note_on,216,0,1,,,,,,,,0,,,67,0
13188,note_on,108,0,2,,,,,,,,1,,,62,0
13200,note_on,24,0,4,,,,,,,,3,,,57,55
13200,note_on,24,0,1,,,,,,,,0,,,69,50
13308,note_on,108,0,1,,,,,,,,0,,,69,0
13308,note_on,108,0,4,,,,,,,,3,,,57,0
13320,note_on,12,0,1,,,,,,,,0,,,70,56
13320,note_on,12,0,4,,,,,,,,3,,,55,54
13428,note_on,108,0,1,,,,,,,,0,,,70,0
13428,note_on,108,0,4,,,,,,,,3,,,55,0
13440,note_on,12,0,1,,,,,,,,0,,,72,61
13440,note_on,252,0,2,,,,,,,,1,,,72,54
13440,note_on,12,0,4,,,,,,,,3,,,57,54
13548,note_on,108,0,2,,,,,,,,1,,,72,0
13560,note_on,12,0,2,,,,,,,,1,,,60,53
13656,note_on,216,0,4,,,,,,,,3,,,57,0
13656,note_on,216,0,1,,,,,,,,0,,,72,0
13668,note_on,108,0,2,,,,,,,,1,,,60,0
13680,note_on,12,0,2,,,,,,,,1,,,72,53
13680,note_on,24,0,4,,,,,,,,3,,,55,53
13680,note_on,24,0,1,,,,,,,,0,,,70,51
13788,note_on,108,0,2,,,,,,,,1,,,72,0
13800,note_on,12,0,2,,,,,,,,1,,,60,53
13896,note_on,216,0,1,,,,,,,,0,,,70,0
13896,note_on,216,0,4,,,,,,,,3,,,55,0
13908,note_on,108,0,2,,,,,,,,1,,,60,0
13920,note_on,24,0,1,,,,,,,,0,,,72,50
13920,note_on,24,0,4,,,,,,,,3,,,53,53
13920,note_on,12,0,2,,,,,,,,1,,,72,53
14028,note_on,108,0,2,,,,,,,,1,,,72,0
14040,note_on,12,0,2,,,,,,,,1,,,60,53
14136,note_on,216,0,1,,,,,,,,0,,,72,0
14136,note_on,216,0,4,,,,,,,,3,,,53,0
14148,note_on,108,0,2,,,,,,,,1,,,60,0
14160,note_on,24,0,4,,,,,,,,3,,,52,53
14160,note_on,24,0,1,,,,,,,,0,,,67,51
14160,note_on,12,0,2,,,,,,,,1,,,72,53
14268,note_on,108,0,2,,,,,,,,1,,,72,0
14280,note_on,12,0,2,,,,,,,,1,,,60,53
14376,note_on,216,0,1,,,,,,,,0,,,67,0
14376,note_on,216,0,4,,,,,,,,3,,,52,0
14388,note_on,108,0,2,,,,,,,,1,,,60,0
14400,note_on,12,0,2,,,,,,,,1,,,72,53
14400,note_on,24,0,4,,,,,,,,3,,,53,53
14400,note_on,24,0,1,,,,,,,,0,,,69,60
14508,note_on,108,0,1,,,,,,,,0,,,69,0
14508,note_on,108,0,2,,,,,,,,1,,,72,0
14520,note_on,12,0,2,,,,,,,,1,,,60,53
14520,note_on,12,0,1,,,,,,,,0,,,70,57
14628,note_on,108,0,1,,,,,,,,0,,,70,0
14628,note_on,108,0,2,,,,,,,,1,,,60,0
14640,note_on,12,0,1,,,,,,,,0,,,69,53
14640,note_on,12,0,2,,,,,,,,1,,,72,53
14724,note_on,324,0,4,,,,,,,,3,,,53,0
14748,note_on,108,0,1,,,,,,,,0,,,69,0
14748,note_on,108,0,2,,,,,,,,1,,,72,0
14760,note_on,12,0,2,,,,,,,,1,,,60,53
14760,note_on,12,0,1,,,,,,,,0,,,67,50
14760,note_on,36,0,4,,,,,,,,3,,,55,53
14868,note_on,108,0,2,,,,,,,,1,,,60,0
14868,note_on,108,0,1,,,,,,,,0,,,67,0
14868,note_on,108,0,4,,,,,,,,3,,,55,0
14880,note_on,12,0,1,,,,,,,,0,,,65,47
14880,note_on,12,0,2,,,,,,,,1,,,72,53
14880,note_on,12,0,4,,,,,,,,3,,,57,53
14988,note_on,108,0,2,,,,,,,,1,,,72,0
15000,note_on,12,0,2,,,,,,,,1,,,60,54
15096,note_on,216,0,1,,,,,,,,0,,,65,0
15096,note_on,216,0,4,,,,,,,,3,,,57,0
15108,note_on,108,0,2,,,,,,,,1,,,60,0
15120,note_on,24,0,1,,,,,,,,0,,,65,54
15120,note_on,3624,0,3,,,,,,,,2,,,57,52
15120,note_on,12,0,2,,,,,,,,1,,,65,54
15228,note_on,108,0,3,,,,,,,,2,,,57,0
15228,note_on,108,0,2,,,,,,,,1,,,65,0
15240,note_on,12,0,3,,,,,,,,2,,,53,52
15240,note_on,12,0,2,,,,,,,,1,,,65,54
15336,note_on,216,0,1,,,,,,,,0,,,65,0
15348,note_on,108,0,2,,,,,,,,1,,,65,0
15348,note_on,108,0,3,,,,,,,,2,,,53,0
15360,control_change,12,0,2,,,,,,,,1,64,127,,
15360,control_change,24,0,1,,,,,,,,0,64,127,,
15360,note_on,0,0,3,,,,,,,,2,,,41,47
15360,note_on,0,0,2,,,,,,,,1,,,75,54
15360,control_change,264,0,4,,,,,,,,3,64,127,,
15360,note_on,0,0,1,,,,,,,,0,,,75,54
15360,control_change,12,0,3,,,,,,,,2,64,127,,
15360,note_on,0,0,4,,,,,,,,3,,,41,47
15468,note_on,108,0,3,,,,,,,,2,,,41,0
15468,note_on,108,0,2,,,,,,,,1,,,75,0
15480,note_on,12,0,2,,,,,,,,1,,,65,54
15480,note_on,12,0,3,,,,,,,,2,,,53,47
15588,note_on,108,0,3,,,,,,,,2,,,53,0
15588,note_on,108,0,2,,,,,,,,1,,,65,0
15600,note_on,12,0,2,,,,,,,,1,,,60,54
15600,note_on,12,0,3,,,,,,,,2,,,57,47
15613,control_change,253,0,1,,,,,,,,0,64,0,,
15680,control_change,80,0,3,,,,,,,,2,64,0,,
15708,note_on,108,0,2,,,,,,,,1,,,60,0
15708,note_on,28,0,3,,,,,,,,2,,,57,0
15720,note_on,12,0,2,,,,,,,,1,,,65,54
15720,note_on,12,0,3,,,,,,,,2,,,53,47
15747,control_change,27,0,2,,,,,,,,1,64,0,,
15773,control_change,413,0,4,,,,,,,,3,64,0,,
15792,note_on,179,0,1,,,,,,,,0,,,75,0
15792,note_on,19,0,4,,,,,,,,3,,,41,0
15828,note_on,81,0,2,,,,,,,,1,,,65,0
15828,note_on,108,0,3,,,,,,,,2,,,53,0
15840,note_on,12,0,2,,,,,,,,1,,,74,54
15840,note_on,12,0,3,,,,,,,,2,,,46,47
15840,note_on,48,0,4,,,,,,,,3,,,46,47
15840,note_on,48,0,1,,,,,,,,0,,,74,56
15948,note_on,108,0,2,,,,,,,,1,,,74,0
15948,note_on,108,0,3,,,,,,,,2,,,46,0
15960,note_on,12,0,2,,,,,,,,1,,,65,50
15960,note_on,12,0,3,,,,,,,,2,,,53,45
16056,note_on,216,0,1,,,,,,,,0,,,74,0
16068,note_on,108,0,3,,,,,,,,2,,,53,0
16068,note_on,108,0,2,,,,,,,,1,,,65,0
16080,note_on,12,0,2,,,,,,,,1,,,62,50
16080,note_on,24,0,1,,,,,,,,0,,,75,56
16080,note_on,12,0,3,,,,,,,,2,,,58,45
16188,note_on,108,0,1,,,,,,,,0,,,75,0
16188,note_on,108,0,3,,,,,,,,2,,,58,0
16188,note_on,108,0,2,,,,,,,,1,,,62,0
16200,note_on,12,0,2,,,,,,,,1,,,65,50
16200,note_on,12,0,1,,,,,,,,0,,,74,55
16200,note_on,12,0,3,,,,,,,,2,,,53,45
16272,note_on,432,0,4,,,,,,,,3,,,46,0
16308,note_on,108,0,1,,,,,,,,0,,,74,0
16308,note_on,108,0,2,,,,,,,,1,,,65,0
16308,note_on,108,0,3,,,,,,,,2,,,53,0
16320,note_on,12,0,3,,,,,,,,2,,,41,45
16320,note_on,48,0,4,,,,,,,,3,,,41,47
16320,note_on,12,0,1,,,,,,,,0,,,72,52
16320,note_on,12,0,2,,,,,,,,1,,,72,50
16428,note_on,108,0,3,,,,,,,,2,,,41,0
16428,note_on,108,0,2,,,,,,,,1,,,72,0
16440,note_on,12,0,3,,,,,,,,2,,,53,45
16440,note_on,12,0,2,,,,,,,,1,,,65,50
16548,note_on,108,0,2,,,,,,,,1,,,65,0
16548,note_on,108,0,3,,,,,,,,2,,,53,0
16560,note_on,12,0,3,,,,,,,,2,,,57,46
16560,note_on,12,0,2,,,,,,,,1,,,63,50
16668,note_on,108,0,2,,,,,,,,1,,,63,0
16668,note_on,108,0,3,,,,,,,,2,,,57,0
16680,note_on,12,0,2,,,,,,,,1,,,65,50
16680,note_on,12,0,3,,,,,,,,2,,,53,46
16752,note_on,432,0,4,,,,,,,,3,,,41,0
16752,note_on,432,0,1,,,,,,,,0,,,72,0
16788,note_on,108,0,2,,,,,,,,1,,,65,0
16788,note_on,108,0,3,,,,,,,,2,,,53,0
16800,note_on,48,0,4,,,,,,,,3,,,46,47
16800,note_on,12,0,2,,,,,,,,1,,,70,50
16800,note_on,48,0,1,,,,,,,,0,,,70,61
16800,note_on,12,0,3,,,,,,,,2,,,46,46
16908,note_on,108,0,3,,,,,,,,2,,,46,0
16908,note_on,108,0,2,,,,,,,,1,,,70,0
16920,note_on,12,0,2,,,,,,,,1,,,65,51
16920,note_on,12,0,3,,,,,,,,2,,,53,46
17028,note_on,108,0,2,,,,,,,,1,,,65,0
17028,note_on,108,0,3,,,,,,,,2,,,53,0
17040,note_on,12,0,2,,,,,,,,1,,,62,51
17040,note_on,12,0,3,,,,,,,,2,,,58,46
17148,note_on,108,0,2,,,,,,,,1,,,62,0
17148,note_on,108,0,3,,,,,,,,2,,,58,0
17160,note_on,12,0,3,,,,,,,,2,,,53,47
17160,note_on,12,0,2,,,,,,,,1,,,65,51
17232,note_on,432,0,4,,,,,,,,3,,,46,0
17232,note_on,432,0,1,,,,,,,,0,,,70,0
17268,note_on,108,0,2,,,,,,,,1,,,65,0
17268,note_on,108,0,3,,,,,,,,2,,,53,0
17275,set_tempo,17275,1,0,,,,,,517420,,,,,,
17280,note_on,0,0,2,,,,,,,,1,,,63,51
17280,note_on,12,0,2,,,,,,,,1,,,60,51
17280,note_on,12,0,3,,,,,,,,2,,,41,47
17280,note_on,48,0,4,,,,,,,,3,,,41,47
17305,set_tempo,30,1,0,,,,,,519570,,,,,,
17325,set_tempo,20,1,0,,,,,,521739,,,,,,
17355,set_tempo,30,1,0,,,,,,523926,,,,,,
17375,set_tempo,20,1,0,,,,,,526131,,,,,,
17388,note_on,108,0,3,,,,,,,,2,,,41,0
17388,note_on,0,0,2,,,,,,,,1,,,60,0
17388,note_on,108,0,2,,,,,,,,1,,,63,0
17400,note_on,12,0,3,,,,,,,,2,,,53,47
17400,note_on,12,0,2,,,,,,,,1,,,65,51
17405,set_tempo,30,1,0,,,,,,528355,,,,,,
17425,set_tempo,20,1,0,,,,,,530598,,,,,,
17455,set_tempo,30,1,0,,,,,,532860,,,,,,
17475,set_tempo,20,1,0,,,,,,535141,,,,,,
17505,set_tempo,30,1,0,,,,,,537442,,,,,,
17508,note_on,108,0,3,,,,,,,,2,,,53,0
17508,note_on,108,0,2,,,,,,,,1,,,65,0
17520,note_on,12,0,2,,,,,,,,1,,,60,51
17520,note_on,12,0,3,,,,,,,,2,,,57,47
17525,set_tempo,20,1,0,,,,,,539763,,,,,,
17555,set_tempo,30,1,0,,,,,,542103,,,,,,
17575,set_tempo,20,1,0,,,,,,544465,,,,,,
17605,set_tempo,30,1,0,,,,,,546847,,,,,,
17625,set_tempo,20,1,0,,,,,,549249,,,,,,
17628,note_on,108,0,2,,,,,,,,1,,,60,0
17628,note_on,108,0,3,,,,,,,,2,,,57,0
17640,note_on,12,0,3,,,,,,,,2,,,53,47
17640,note_on,12,0,2,,,,,,,,1,,,65,51
17655,set_tempo,30,1,0,,,,,,551673,,,,,,
17675,set_tempo,20,1,0,,,,,,554119,,,,,,
17705,set_tempo,30,1,0,,,,,,556586,,,,,,
17712,note_on,432,0,4,,,,,,,,3,,,41,0
17725,set_tempo,20,1,0,,,,,,559076,,,,,,
17748,note_on,108,0,3,,,,,,,,2,,,53,0
17748,note_on,108,0,2,,,,,,,,1,,,65,0
17755,set_tempo,30,1,0,,,,,,561587,,,,,,
17760,note_on,12,0,2,,,,,,,,1,,,62,64
17760,note_on,48,0,4,,,,,,,,3,,,46,54
17760,note_on,12,0,3,,,,,,,,2,,,46,57
17775,set_tempo,20,1,0,,,,,,564122,,,,,,
17805,set_tempo,30,1,0,,,,,,566679,,,,,,
17825,set_tempo,20,1,0,,,,,,569260,,,,,,
17855,set_tempo,30,1,0,,,,,,566679,,,,,,
17868,note_on,108,0,3,,,,,,,,2,,,46,0
17868,note_on,108,0,2,,,,,,,,1,,,62,0
17880,note_on,12,0,2,,,,,,,,1,,,65,60
17880,note_on,12,0,3,,,,,,,,2,,,53,55
17988,note_on,108,0,2,,,,,,,,1,,,65,0
17988,note_on,108,0,3,,,,,,,,2,,,53,0
18000,note_on,12,0,3,,,,,,,,2,,,58,54
18000,note_on,768,0,1,,,,,,,,0,,,75,63
18108,note_on,108,0,3,,,,,,,,2,,,58,0
18108,note_on,108,0,1,,,,,,,,0,,,75,0
18120,note_on,12,0,1,,,,,,,,0,,,74,56
18120,note_on,12,0,3,,,,,,,,2,,,53,53
18192,note_on,432,0,4,,,,,,,,3,,,46,0
18228,note_on,108,0,3,,,,,,,,2,,,53,0
18228,note_on,108,0,1,,,,,,,,0,,,74,0
18240,note_on,0,0,1,,,,,,,,0,,,72,50
18240,control_change,12,0,3,,,,,,,,2,64,127,,
18240,note_on,0,0,3,,,,,,,,2,,,41,58
18240,control_change,48,0,4,,,,,,,,3,64,127,,
18240,control_change,12,0,1,,,,,,,,0,64,127,,
18240,note_on,0,0,4,,,,,,,,3,,,41,52
18253,control_change,265,0,2,,,,,,,,1,64,127,,
18265,set_tempo,410,1,0,,,,,,564122,,,,,,
18315,set_tempo,50,1,0,,,,,,566679,,,,,,
18348,note_on,108,0,3,,,,,,,,2,,,41,0
18355,set_tempo,40,1,0,,,,,,569260,,,,,,
18360,note_on,12,0,3,,,,,,,,2,,,53,57
18360,note_on,107,0,2,,,,,,,,1,,,65,55
18405,set_tempo,50,1,0,,,,,,571864,,,,,,
18445,set_tempo,40,1,0,,,,,,574493,,,,,,
18468,note_on,108,0,2,,,,,,,,1,,,65,0
18468,note_on,108,0,3,,,,,,,,2,,,53,0
18480,note_on,12,0,3,,,,,,,,2,,,57,56
18480,note_on,12,0,2,,,,,,,,1,,,63,54
18495,set_tempo,50,1,0,,,,,,577145,,,,,,
18507,control_change,267,0,1,,,,,,,,0,64,0,,
18535,set_tempo,40,1,0,,,,,,579822,,,,,,
18564,note_on,57,0,1,,,,,,,,0,,,72,0
18585,set_tempo,50,1,0,,,,,,582524,,,,,,
18588,note_on,108,0,2,,,,,,,,1,,,63,0
18588,note_on,108,0,3,,,,,,,,2,,,57,0
18600,note_on,12,0,3,,,,,,,,2,,,53,54
18600,note_on,12,0,2,,,,,,,,1,,,65,53
18600,note_on,36,0,1,,,,,,,,0,,,74,53
18625,set_tempo,40,1,0,,,,,,585252,,,,,,
18627,control_change,27,0,3,,,,,,,,2,64,0,,
18640,control_change,40,0,2,,,,,,,,1,64,0,,
18667,control_change,427,0,4,,,,,,,,3,64,0,,
18672,note_on,5,0,4,,,,,,,,3,,,41,0
18675,set_tempo,50,1,0,,,,,,588005,,,,,,
18708,note_on,81,0,3,,,,,,,,2,,,53,0
18708,note_on,68,0,2,,,,,,,,1,,,65,0
18708,note_on,108,0,1,,,,,,,,0,,,74,0
18715,set_tempo,40,1,0,,,,,,590784,,,,,,
18720,note_on,12,0,1,,,,,,,,0,,,72,52
18720,note_on,48,0,4,,,,,,,,3,,,46,49
18720,note_on,12,0,3,,,,,,,,2,,,46,53
18725,set_tempo,10,1,0,,,,,,590784,,,,,,
18755,set_tempo,30,1,0,,,,,,588005,,,,,,
18775,set_tempo,20,1,0,,,,,,585252,,,,,,
18795,set_tempo,20,1,0,,,,,,582524,,,,,,
18825,set_tempo,30,1,0,,,,,,579822,,,,,,
18828,note_on,108,0,1,,,,,,,,0,,,72,0
18828,note_on,108,0,3,,,,,,,,2,,,46,0
18840,note_on,132,0,2,,,,,,,,1,,,65,50
18840,note_on,12,0,1,,,,,,,,0,,,70,51
18840,note_on,12,0,3,,,,,,,,2,,,53,52
18845,set_tempo,20,1,0,,,,,,577145,,,,,,
18865,set_tempo,20,1,0,,,,,,574493,,,,,,
18885,set_tempo,20,1,0,,,,,,571864,,,,,,
18915,set_tempo,30,1,0,,,,,,569260,,,,,,
18935,set_tempo,20,1,0,,,,,,566679,,,,,,
18948,note_on,108,0,2,,,,,,,,1,,,65,0
18948,note_on,108,0,3,,,,,,,,2,,,53,0
18955,set_tempo,20,1,0,,,,,,564122,,,,,,
18960,note_on,12,0,3,,,,,,,,2,,,58,51
18960,note_on,12,0,2,,,,,,,,1,,,62,49
18985,set_tempo,30,1,0,,,,,,561587,,,,,,
19005,set_tempo,20,1,0,,,,,,559076,,,,,,
19025,set_tempo,20,1,0,,,,,,556586,,,,,,
19045,set_tempo,20,1,0,,,,,,554119,,,,,,
19056,note_on,216,0,1,,,,,,,,0,,,70,0
19068,note_on,108,0,2,,,,,,,,1,,,62,0
19068,note_on,108,0,3,,,,,,,,2,,,58,0
19075,set_tempo,30,1,0,,,,,,551673,,,,,,
19080,note_on,12,0,3,,,,,,,,2,,,53,50
19080,note_on,12,0,2,,,,,,,,1,,,65,50
19095,set_tempo,20,1,0,,,,,,549249,,,,,,
19115,set_tempo,20,1,0,,,,,,546847,,,,,,
19145,set_tempo,30,1,0,,,,,,544465,,,,,,
19152,note_on,432,0,4,,,,,,,,3,,,46,0
19165,set_tempo,20,1,0,,,,,,542103,,,,,,
19185,set_tempo,20,1,0,,,,,,539763,,,,,,
19188,note_on,108,0,3,,,,,,,,2,,,53,0
19188,note_on,108,0,2,,,,,,,,1,,,65,0
19200,control_change,12,0,2,,,,,,,,1,64,127,,
19200,note_on,12,0,3,,,,,,,,2,,,62,50
19200,control_change,48,0,4,,,,,,,,3,64,127,,
19200,control_change,0,0,3,,,,,,,,2,64,127,,
19200,note_on,0,0,4,,,,,,,,3,,,46,47
19205,set_tempo,20,1,0,,,,,,519570,,,,,,
19308,note_on,108,0,3,,,,,,,,2,,,62,0
19320,note_on,12,0,3,,,,,,,,2,,,65,55
19416,note_on,216,0,4,,,,,,,,3,,,46,0
19428,note_on,108,0,3,,,,,,,,2,,,65,0
19440,note_on,240,0,2,,,,,,,,1,,,58,55
19440,note_on,12,0,3,,,,,,,,2,,,70,55
19548,note_on,108,0,3,,,,,,,,2,,,70,0
19560,note_on,12,0,3,,,,,,,,2,,,65,55
19656,note_on,216,0,2,,,,,,,,1,,,58,0
19668,note_on,108,0,3,,,,,,,,2,,,65,0
19680,note_on,264,0,4,,,,,,,,3,,,46,46
19680,note_on,12,0,3,,,,,,,,2,,,62,54
19788,note_on,108,0,3,,,,,,,,2,,,62,0
19800,note_on,12,0,3,,,,,,,,2,,,65,53
19896,note_on,216,0,4,,,,,,,,3,,,46,0
19908,note_on,108,0,3,,,,,,,,2,,,65,0
19920,note_on,264,0,2,,,,,,,,1,,,62,56
19920,note_on,12,0,3,,,,,,,,2,,,70,53
20028,note_on,108,0,3,,,,,,,,2,,,70,0
20040,note_on,12,0,3,,,,,,,,2,,,65,52
20136,note_on,216,0,2,,,,,,,,1,,,62,0
20148,note_on,108,0,3,,,,,,,,2,,,65,0
20160,control_change,264,0,4,,,,,,,,3,64,0,,
20160,control_change,24,0,2,,,,,,,,1,64,0,,
20160,note_on,12,0,3,,,,,,,,2,,,63,52
20160,note_on,0,0,4,,,,,,,,3,,,41,51
20160,control_change,0,0,3,,,,,,,,2,64,0,,
20268,note_on,108,0,3,,,,,,,,2,,,63,0
20280,note_on,12,0,3,,,,,,,,2,,,65,50
20376,note_on,216,0,4,,,,,,,,3,,,41,0
20388,note_on,108,0,3,,,,,,,,2,,,65,0
20400,note_on,12,0,3,,,,,,,,2,,,69,50
20400,note_on,240,0,2,,,,,,,,1,,,65,48
20508,note_on,108,0,3,,,,,,,,2,,,69,0
20520,note_on,12,0,3,,,,,,,,2,,,65,50
20616,note_on,216,0,2,,,,,,,,1,,,65,0
20628,note_on,108,0,3,,,,,,,,2,,,65,0
20640,note_on,12,0,3,,,,,,,,2,,,70,50
20640,note_on,264,0,4,,,,,,,,3,,,46,54
20640,note_on,24,0,2,,,,,,,,1,,,62,48
20748,note_on,108,0,3,,,,,,,,2,,,70,0
20760,note_on,12,0,3,,,,,,,,2,,,65,50
20856,note_on,216,0,2,,,,,,,,1,,,62,0
20856,note_on,216,0,4,,,,,,,,3,,,46,0
20868,note_on,108,0,3,,,,,,,,2,,,65,0
20880,note_on,12,0,3,,,,,,,,2,,,62,49
20988,note_on,108,0,3,,,,,,,,2,,,62,0
21000,note_on,12,0,3,,,,,,,,2,,,65,49
21080,control_change,224,0,4,,,,,,,,3,64,127,,
21108,note_on,108,0,3,,,,,,,,2,,,65,0
21120,note_on,12,0,3,,,,,,,,2,,,62,49
21120,control_change,0,0,3,,,,,,,,2,64,127,,
21120,control_change,264,0,2,,,,,,,,1,64,127,,
21120,note_on,40,0,4,,,,,,,,3,,,46,53
21228,note_on,108,0,3,,,,,,,,2,,,62,0
21240,note_on,12,0,3,,,,,,,,2,,,65,49
21336,note_on,216,0,4,,,,,,,,3,,,46,0
21348,note_on,108,0,3,,,,,,,,2,,,65,0
21360,note_on,240,0,2,,,,,,,,1,,,58,48
21360,note_on,12,0,3,,,,,,,,2,,,70,49
21468,note_on,108,0,3,,,,,,,,2,,,70,0
21480,note_on,12,0,3,,,,,,,,2,,,65,49
21576,note_on,216,0,2,,,,,,,,1,,,58,0
21588,note_on,108,0,3,,,,,,,,2,,,65,0
21600,note_on,264,0,4,,,,,,,,3,,,46,50
21600,note_on,12,0,3,,,,,,,,2,,,62,48
21708,note_on,108,0,3,,,,,,,,2,,,62,0
21720,note_on,12,0,3,,,,,,,,2,,,65,48
21816,note_on,216,0,4,,,,,,,,3,,,46,0
21828,note_on,108,0,3,,,,,,,,2,,,65,0
21840,note_on,264,0,2,,,,,,,,1,,,62,54
21840,note_on,12,0,3,,,,,,,,2,,,70,48
21948,note_on,108,0,3,,,,,,,,2,,,70,0
21960,note_on,12,0,3,,,,,,,,2,,,65,50
22040,control_change,224,0,4,,,,,,,,3,64,0,,
22056,note_on,216,0,2,,,,,,,,1,,,62,0
22068,note_on,108,0,3,,,,,,,,2,,,65,0
22080,control_change,0,0,3,,,,,,,,2,64,0,,
22080,control_change,24,0,2,,,,,,,,1,64,0,,
22080,note_on,12,0,3,,,,,,,,2,,,63,50
22080,note_on,40,0,4,,,,,,,,3,,,41,51
22188,note_on,108,0,3,,,,,,,,2,,,63,0
22200,note_on,12,0,3,,,,,,,,2,,,65,50
22296,note_on,216,0,4,,,,,,,,3,,,41,0
22308,note_on,108,0,3,,,,,,,,2,,,65,0
22320,note_on,12,0,3,,,,,,,,2,,,69,49
22320,note_on,240,0,2,,,,,,,,1,,,65,52
22428,note_on,108,0,3,,,,,,,,2,,,69,0
22440,note_on,12,0,3,,,,,,,,2,,,65,49
22536,note_on,216,0,2,,,,,,,,1,,,65,0
22548,note_on,108,0,3,,,,,,,,2,,,65,0
22560,note_on,0,0,2,,,,,,,,1,,,62,51
22560,note_on,0,0,2,,,,,,,,1,,,65,51
22560,note_on,0,0,4,,,,,,,,3,,,50,51
22560,note_on,24,0,2,,,,,,,,1,,,58,51
22560,note_on,264,0,4,,,,,,,,3,,,46,51
22776,note_on,216,0,2,,,,,,,,1,,,65,0
22776,note_on,0,0,4,,,,,,,,3,,,46,0
22776,note_on,0,0,2,,,,,,,,1,,,58,0
22776,note_on,0,0,2,,,,,,,,1,,,62,0
22776,note_on,216,0,4,,,,,,,,3,,,50,0
22920,note_on,144,0,2,,,,,,,,1,,,65,49
23028,note_on,108,0,2,,,,,,,,1,,,65,0
23040,note_on,264,0,4,,,,,,,,3,,,46,57
23040,note_on,3984,0,1,,,,,,,,0,,,65,46
23148,note_on,108,0,1,,,,,,,,0,,,65,0
23148,note_on,108,0,4,,,,,,,,3,,,46,0
23160,note_on,12,0,4,,,,,,,,3,,,53,43
23160,note_on,12,0,1,,,,,,,,0,,,70,47
23268,note_on,108,0,1,,,,,,,,0,,,70,0
23268,note_on,108,0,4,,,,,,,,3,,,53,0
23280,note_on,0,0,4,,,,,,,,3,,,58,45
23280,note_on,12,0,1,,,,,,,,0,,,77,48
23280,note_on,12,0,4,,,,,,,,3,,,62,45
23388,note_on,108,0,1,,,,,,,,0,,,77,0
23388,note_on,0,0,4,,,,,,,,3,,,62,0
23388,note_on,108,0,4,,,,,,,,3,,,58,0
23400,note_on,12,0,1,,,,,,,,0,,,82,49
23400,note_on,12,0,4,,,,,,,,3,,,53,46
23508,note_on,108,0,4,,,,,,,,3,,,53,0
23508,note_on,108,0,1,,,,,,,,0,,,82,0
23520,note_on,12,0,4,,,,,,,,3,,,46,47
23520,note_on,12,0,1,,,,,,,,0,,,69,50
23628,note_on,108,0,4,,,,,,,,3,,,46,0
23628,note_on,108,0,1,,,,,,,,0,,,69,0
23640,note_on,12,0,4,,,,,,,,3,,,53,49
23640,note_on,12,0,1,,,,,,,,0,,,75,51
23748,note_on,108,0,1,,,,,,,,0,,,75,0
23748,note_on,108,0,4,,,,,,,,3,,,53,0
23760,note_on,0,0,4,,,,,,,,3,,,57,51
23760,note_on,12,0,4,,,,,,,,3,,,63,51
23760,note_on,12,0,1,,,,,,,,0,,,81,53
23868,note_on,108,0,1,,,,,,,,0,,,81,0
23868,note_on,0,0,4,,,,,,,,3,,,63,0
23868,note_on,108,0,4,,,,,,,,3,,,57,0
23880,note_on,12,0,1,,,,,,,,0,,,87,54
23880,note_on,12,0,4,,,,,,,,3,,,53,52
23988,note_on,108,0,1,,,,,,,,0,,,87,0
23988,note_on,108,0,4,,,,,,,,3,,,53,0
24000,control_change,12,0,4,,,,,,,,3,64,127,,
24000,note_on,0,0,4,,,,,,,,3,,,46,54
24000,note_on,0,0,1,,,,,,,,0,,,74,55
24000,control_change,12,0,1,,,,,,,,0,64,127,,
24054,note_on,54,0,1,,,,,,,,0,,,74,0
24060,note_on,6,0,1,,,,,,,,0,,,82,55
24108,note_on,108,0,4,,,,,,,,3,,,46,0
24114,note_on,54,0,1,,,,,,,,0,,,82,0
24120,note_on,12,0,4,,,,,,,,3,,,53,54
24120,note_on,6,0,1,,,,,,,,0,,,89,56
24174,note_on,54,0,1,,,,,,,,0,,,89,0
24180,note_on,6,0,1,,,,,,,,0,,,86,57
24228,note_on,108,0,4,,,,,,,,3,,,53,0
24234,note_on,54,0,1,,,,,,,,0,,,86,0
24240,note_on,12,0,4,,,,,,,,3,,,62,51
24240,note_on,6,0,1,,,,,,,,0,,,82,57
24240,note_on,0,0,4,,,,,,,,3,,,58,51
24294,note_on,54,0,1,,,,,,,,0,,,82,0
24300,note_on,6,0,1,,,,,,,,0,,,77,56
24348,note_on,108,0,4,,,,,,,,3,,,58,0
24348,note_on,0,0,4,,,,,,,,3,,,62,0
24354,note_on,54,0,1,,,,,,,,0,,,77,0
24360,note_on,12,0,4,,,,,,,,3,,,53,48
24360,note_on,6,0,1,,,,,,,,0,,,74,55
24414,note_on,54,0,1,,,,,,,,0,,,74,0
24420,note_on,6,0,1,,,,,,,,0,,,70,53
24468,note_on,108,0,4,,,,,,,,3,,,53,0
24474,note_on,54,0,1,,,,,,,,0,,,70,0
24480,note_on,6,0,1,,,,,,,,0,,,65,52
24480,note_on,12,0,4,,,,,,,,3,,,46,46
24588,note_on,108,0,4,,,,,,,,3,,,46,0
24600,note_on,12,0,4,,,,,,,,3,,,53,44
24696,note_on,216,0,1,,,,,,,,0,,,65,0
24708,note_on,108,0,4,,,,,,,,3,,,53,0
24720,note_on,0,0,1,,,,,,,,0,,,74,46
24720,note_on,0,0,4,,,,,,,,3,,,58,42
24720,note_on,24,0,1,,,,,,,,0,,,86,46
24720,note_on,12,0,4,,,,,,,,3,,,62,42
24720,note_on,0,0,1,,,,,,,,0,,,77,46
24828,note_on,0,0,4,,,,,,,,3,,,62,0
24828,note_on,108,0,4,,,,,,,,3,,,58,0
24840,control_change,0,0,4,,,,,,,,3,64,0,,
24840,control_change,120,0,1,,,,,,,,0,64,0,,
24840,note_on,12,0,4,,,,,,,,3,,,53,39
24936,note_on,0,0,1,,,,,,,,0,,,86,0
24936,note_on,0,0,1,,,,,,,,0,,,77,0
24936,note_on,96,0,1,,,,,,,,0,,,74,0
24948,note_on,108,0,4,,,,,,,,3,,,53,0
24960,note_on,24,0,1,,,,,,,,0,,,84,55
24960,note_on,0,0,1,,,,,,,,0,,,72,55
24960,note_on,12,0,4,,,,,,,,3,,,46,46
24960,note_on,0,0,1,,,,,,,,0,,,77,55
25000,control_change,40,0,1,,,,,,,,0,64,127,,
25013,control_change,53,0,4,,,,,,,,3,64,127,,
25068,note_on,55,0,4,,,,,,,,3,,,46,0
25080,note_on,12,0,4,,,,,,,,3,,,53,47
25188,note_on,108,0,4,,,,,,,,3,,,53,0
25200,control_change,200,0,1,,,,,,,,0,64,0,,
25200,note_on,0,0,4,,,,,,,,3,,,57,47
25200,note_on,12,0,4,,,,,,,,3,,,63,47
25253,control_change,53,0,4,,,,,,,,3,64,0,,
25308,note_on,0,0,4,,,,,,,,3,,,63,0
25308,note_on,55,0,4,,,,,,,,3,,,57,0
25320,note_on,120,0,1,,,,,,,,0,,,77,0
25320,note_on,0,0,1,,,,,,,,0,,,72,0
25320,note_on,0,0,1,,,,,,,,0,,,69,55
25320,note_on,0,0,1,,,,,,,,0,,,84,0
25320,note_on,0,0,1,,,,,,,,0,,,81,55
25320,note_on,12,0,4,,,,,,,,3,,,53,48
25428,note_on,0,0,1,,,,,,,,0,,,69,0
25428,note_on,108,0,4,,,,,,,,3,,,53,0
25428,note_on,108,0,1,,,,,,,,0,,,81,0
25440,note_on,12,0,1,,,,,,,,0,,,77,64
25440,note_on,0,0,1,,,,,,,,0,,,82,64
25440,note_on,0,0,1,,,,,,,,0,,,70,64
25440,note_on,12,0,4,,,,,,,,3,,,46,49
25548,note_on,108,0,4,,,,,,,,3,,,46,0
25560,note_on,12,0,4,,,,,,,,3,,,53,50
25656,note_on,0,0,1,,,,,,,,0,,,77,0
25656,note_on,0,0,1,,,,,,,,0,,,70,0
25656,note_on,216,0,1,,,,,,,,0,,,82,0
25668,note_on,108,0,4,,,,,,,,3,,,53,0
25680,note_on,3132,0,3,,,,,,,,2,,,62,64
25680,note_on,12,0,4,,,,,,,,3,,,58,51
25788,note_on,108,0,4,,,,,,,,3,,,58,0
25800,note_on,12,0,4,,,,,,,,3,,,53,51
25896,note_on,216,0,3,,,,,,,,2,,,62,0
25908,note_on,108,0,4,,,,,,,,3,,,53,0
25920,note_on,12,0,4,,,,,,,,3,,,41,64
25920,note_on,2892,0,2,,,,,,,,1,,,72,64
25920,note_on,24,0,3,,,,,,,,2,,,51,64
26028,note_on,108,0,3,,,,,,,,2,,,51,0
26040,note_on,12,0,3,,,,,,,,2,,,53,64
26136,note_on,216,0,4,,,,,,,,3,,,41,0
26148,note_on,108,0,3,,,,,,,,2,,,53,0
26160,note_on,504,0,1,,,,,,,,0,,,65,52
26244,note_on,324,0,2,,,,,,,,1,,,72,0
26268,note_on,108,0,1,,,,,,,,0,,,65,0
26280,note_on,36,0,2,,,,,,,,1,,,69,64
26280,note_on,12,0,1,,,,,,,,0,,,57,64
26388,note_on,108,0,1,,,,,,,,0,,,57,0
26388,note_on,108,0,2,,,,,,,,1,,,69,0
26400,note_on,252,0,3,,,,,,,,2,,,50,64
26400,note_on,12,0,2,,,,,,,,1,,,70,64
26400,note_on,264,0,4,,,,,,,,3,,,46,64
26508,note_on,108,0,3,,,,,,,,2,,,50,0
26520,note_on,12,0,3,,,,,,,,2,,,53,64
26616,note_on,216,0,4,,,,,,,,3,,,46,0
26616,note_on,216,0,2,,,,,,,,1,,,70,0
26628,note_on,108,0,3,,,,,,,,2,,,53,0
26640,note_on,24,0,2,,,,,,,,1,,,74,64
26640,note_on,12,0,3,,,,,,,,2,,,58,64
26640,note_on,252,0,1,,,,,,,,0,,,65,63
26712,note_on,72,0,1,,,,,,,,0,,,65,0
26720,note_on,8,0,1,,,,,,,,0,,,69,59
26748,note_on,108,0,3,,,,,,,,2,,,58,0
26760,note_on,12,0,3,,,,,,,,2,,,53,64
26792,note_on,72,0,1,,,,,,,,0,,,69,0
26800,note_on,8,0,1,,,,,,,,0,,,67,55
26856,note_on,216,0,2,,,,,,,,1,,,74,0
26868,note_on,108,0,3,,,,,,,,2,,,53,0
26872,note_on,72,0,1,,,,,,,,0,,,67,0
26880,note_on,8,0,1,,,,,,,,0,,,65,52
26880,note_on,264,0,4,,,,,,,,3,,,46,46
26988,note_on,108,0,4,,,,,,,,3,,,46,0
26988,note_on,108,0,1,,,,,,,,0,,,65,0
27000,note_on,12,0,4,,,,,,,,3,,,53,46
27000,note_on,12,0,1,,,,,,,,0,,,70,52
27108,note_on,108,0,1,,,,,,,,0,,,70,0
27108,note_on,108,0,4,,,,,,,,3,,,53,0
27120,note_on,12,0,4,,,,,,,,3,,,62,46
27120,note_on,12,0,1,,,,,,,,0,,,77,52
27120,note_on,0,0,4,,,,,,,,3,,,58,46
27228,note_on,108,0,4,,,,,,,,3,,,58,0
27228,note_on,0,0,4,,,,,,,,3,,,62,0
27228,note_on,108,0,1,,,,,,,,0,,,77,0
27240,note_on,12,0,4,,,,,,,,3,,,53,46
27240,note_on,12,0,1,,,,,,,,0,,,82,52
27348,note_on,108,0,4,,,,,,,,3,,,53,0
27348,note_on,108,0,1,,,,,,,,0,,,82,0
27360,note_on,12,0,4,,,,,,,,3,,,46,46
27360,note_on,12,0,1,,,,,,,,0,,,69,52
27468,note_on,108,0,4,,,,,,,,3,,,46,0
27468,note_on,108,0,1,,,,,,,,0,,,69,0
27480,note_on,12,0,4,,,,,,,,3,,,53,46
27480,note_on,12,0,1,,,,,,,,0,,,75,52
27588,note_on,108,0,4,,,,,,,,3,,,53,0
27588,note_on,108,0,1,,,,,,,,0,,,75,0
27600,note_on,12,0,4,,,,,,,,3,,,57,46
27600,note_on,12,0,1,,,,,,,,0,,,81,52
27600,note_on,0,0,4,,,,,,,,3,,,63,46
27708,note_on,108,0,1,,,,,,,,0,,,81,0
27708,note_on,108,0,4,,,,,,,,3,,,63,0
27708,note_on,0,0,4,,,,,,,,3,,,57,0
27720,note_on,12,0,4,,,,,,,,3,,,53,46
27720,note_on,12,0,1,,,,,,,,0,,,87,52
27828,note_on,108,0,1,,,,,,,,0,,,87,0
27828,note_on,108,0,4,,,,,,,,3,,,53,0
27840,control_change,12,0,4,,,,,,,,3,64,127,,
27840,control_change,12,0,1,,,,,,,,0,64,127,,
27840,note_on,0,0,4,,,,,,,,3,,,46,54
27840,note_on,0,0,1,,,,,,,,0,,,77,62
27894,note_on,54,0,1,,,,,,,,0,,,77,0
27900,note_on,6,0,1,,,,,,,,0,,,82,61
27948,note_on,108,0,4,,,,,,,,3,,,46,0
27954,note_on,54,0,1,,,,,,,,0,,,82,0
27960,note_on,12,0,4,,,,,,,,3,,,53,52
27960,note_on,6,0,1,,,,,,,,0,,,89,60
28014,note_on,54,0,1,,,,,,,,0,,,89,0
28020,note_on,6,0,1,,,,,,,,0,,,86,58
28068,note_on,108,0,4,,,,,,,,3,,,53,0
28074,note_on,54,0,1,,,,,,,,0,,,86,0
28080,note_on,0,0,4,,,,,,,,3,,,62,49
28080,note_on,12,0,4,,,,,,,,3,,,58,49
28080,note_on,6,0,1,,,,,,,,0,,,82,57
28134,note_on,54,0,1,,,,,,,,0,,,82,0
28140,note_on,6,0,1,,,,,,,,0,,,77,55
28188,note_on,108,0,4,,,,,,,,3,,,62,0
28188,note_on,0,0,4,,,,,,,,3,,,58,0
28194,note_on,54,0,1,,,,,,,,0,,,77,0
28200,note_on,12,0,4,,,,,,,,3,,,53,46
28200,note_on,6,0,1,,,,,,,,0,,,74,54
28254,note_on,54,0,1,,,,,,,,0,,,74,0
28260,note_on,6,0,1,,,,,,,,0,,,70,52
28308,note_on,108,0,4,,,,,,,,3,,,53,0
28314,note_on,54,0,1,,,,,,,,0,,,70,0
28320,note_on,6,0,1,,,,,,,,0,,,65,51
28320,note_on,12,0,4,,,,,,,,3,,,46,44
28428,note_on,108,0,4,,,,,,,,3,,,46,0
28440,note_on,12,0,4,,,,,,,,3,,,53,47
28536,note_on,216,0,1,,,,,,,,0,,,65,0
28548,note_on,108,0,4,,,,,,,,3,,,53,0
28560,note_on,12,0,4,,,,,,,,3,,,62,47
28560,note_on,24,0,1,,,,,,,,0,,,77,64
28560,note_on,0,0,1,,,,,,,,0,,,74,64
28560,note_on,0,0,4,,,,,,,,3,,,58,47
28560,note_on,0,0,1,,,,,,,,0,,,65,64
28640,control_change,80,0,1,,,,,,,,0,64,0,,
28656,note_on,0,0,1,,,,,,,,0,,,65,0
28656,note_on,0,0,1,,,,,,,,0,,,77,0
28656,note_on,16,0,1,,,,,,,,0,,,74,0
28668,note_on,108,0,4,,,,,,,,3,,,58,0
28668,note_on,0,0,4,,,,,,,,3,,,62,0
28680,note_on,12,0,4,,,,,,,,3,,,53,47
28700,control_change,20,0,4,,,,,,,,3,64,0,,
28740,note_on,84,0,1,,,,,,,,0,,,79,57
28788,note_on,88,0,4,,,,,,,,3,,,53,0
28794,note_on,54,0,1,,,,,,,,0,,,79,0
28800,note_on,0,0,1,,,,,,,,0,,,65,64
28800,note_on,0,0,4,,,,,,,,3,,,46,47
28800,control_change,12,0,4,,,,,,,,3,64,127,,
28800,note_on,6,0,1,,,,,,,,0,,,77,64
28853,control_change,53,0,1,,,,,,,,0,64,127,,
28908,note_on,108,0,4,,,,,,,,3,,,46,0
28920,note_on,12,0,4,,,,,,,,3,,,53,46
29028,note_on,108,0,4,,,,,,,,3,,,53,0
29040,note_on,0,0,4,,,,,,,,3,,,57,46
29040,note_on,12,0,4,,,,,,,,3,,,63,46
29080,control_change,227,0,1,,,,,,,,0,64,0,,
29120,control_change,80,0,4,,,,,,,,3,64,0,,
29148,note_on,0,0,4,,,,,,,,3,,,63,0
29148,note_on,28,0,4,,,,,,,,3,,,57,0
29160,note_on,12,0,4,,,,,,,,3,,,53,46
29214,note_on,0,0,1,,,,,,,,0,,,77,0
29214,note_on,134,0,1,,,,,,,,0,,,65,0
29220,note_on,6,0,1,,,,,,,,0,,,79,54
29268,note_on,108,0,4,,,,,,,,3,,,53,0
29274,note_on,54,0,1,,,,,,,,0,,,79,0
29280,note_on,12,0,4,,,,,,,,3,,,46,46
29280,note_on,6,0,1,,,,,,,,0,,,77,64
29280,note_on,0,0,1,,,,,,,,0,,,65,64
29388,note_on,108,0,4,,,,,,,,3,,,46,0
29400,note_on,12,0,4,,,,,,,,3,,,53,57
29508,note_on,108,0,4,,,,,,,,3,,,53,0
29520,note_on,2652,0,3,,,,,,,,2,,,62,64
29520,note_on,12,0,4,,,,,,,,3,,,58,57
29628,note_on,108,0,4,,,,,,,,3,,,58,0
29640,note_on,12,0,4,,,,,,,,3,,,53,57
29712,note_on,0,0,1,,,,,,,,0,,,77,0
29712,note_on,432,0,1,,,,,,,,0,,,65,0
29736,note_on,216,0,3,,,,,,,,2,,,62,0
29748,note_on,108,0,4,,,,,,,,3,,,53,0
29760,note_on,12,0,4,,,,,,,,3,,,41,64
29760,note_on,2904,0,2,,,,,,,,1,,,60,64
29760,note_on,24,0,3,,,,,,,,2,,,51,64
29868,note_on,108,0,3,,,,,,,,2,,,51,0
29880,note_on,12,0,3,,,,,,,,2,,,53,64
29976,note_on,216,0,4,,,,,,,,3,,,41,0
29988,note_on,108,0,3,,,,,,,,2,,,53,0
30000,note_on,288,0,1,,,,,,,,0,,,65,60
30084,note_on,324,0,2,,,,,,,,1,,,60,0
30108,note_on,108,0,1,,,,,,,,0,,,65,0
30120,note_on,36,0,2,,,,,,,,1,,,57,57
30120,note_on,12,0,1,,,,,,,,0,,,57,56
30228,note_on,108,0,1,,,,,,,,0,,,57,0
30228,note_on,108,0,2,,,,,,,,1,,,57,0
30240,note_on,264,0,4,,,,,,,,3,,,46,64
30240,note_on,12,0,1,,,,,,,,0,,,58,52
30240,note_on,252,0,3,,,,,,,,2,,,50,59
30240,note_on,12,0,2,,,,,,,,1,,,58,53
30348,note_on,108,0,3,,,,,,,,2,,,50,0
30360,note_on,12,0,3,,,,,,,,2,,,53,56
30456,note_on,216,0,4,,,,,,,,3,,,46,0
30456,note_on,216,0,1,,,,,,,,0,,,58,0
30456,note_on,216,0,2,,,,,,,,1,,,58,0
30468,note_on,108,0,3,,,,,,,,2,,,53,0
30480,note_on,12,0,3,,,,,,,,2,,,58,62
30480,note_on,24,0,1,,,,,,,,0,,,62,52
30480,note_on,24,0,2,,,,,,,,1,,,62,61
30516,note_on,36,0,1,,,,,,,,0,,,62,0
30520,note_on,4,0,1,,,,,,,,0,,,65,56
30520,note_on,40,0,2,,,,,,,,1,,,65,58
30556,note_on,36,0,1,,,,,,,,0,,,65,0
30560,note_on,4,0,1,,,,,,,,0,,,70,59
30560,note_on,40,0,2,,,,,,,,1,,,70,55
30588,note_on,108,0,3,,,,,,,,2,,,58,0
30596,note_on,36,0,1,,,,,,,,0,,,70,0
30596,note_on,36,0,2,,,,,,,,1,,,70,0
30600,note_on,4,0,1,,,,,,,,0,,,72,63
30600,note_on,12,0,3,,,,,,,,2,,,53,55
30708,note_on,108,0,1,,,,,,,,0,,,72,0
30708,note_on,108,0,3,,,,,,,,2,,,53,0
30708,note_on,0,0,2,,,,,,,,1,,,62,0
30708,note_on,112,0,2,,,,,,,,1,,,65,0
30720,note_on,12,0,1,,,,,,,,0,,,74,55
30720,note_on,264,0,4,,,,,,,,3,,,46,67
30774,note_on,54,0,4,,,,,,,,3,,,46,0
30780,note_on,6,0,4,,,,,,,,3,,,62,67
30828,note_on,108,0,1,,,,,,,,0,,,74,0
30834,note_on,54,0,4,,,,,,,,3,,,62,0
30840,note_on,12,0,1,,,,,,,,0,,,62,54
30948,note_on,108,0,1,,,,,,,,0,,,62,0
30960,note_on,126,0,4,,,,,,,,3,,,45,67
30960,note_on,12,0,1,,,,,,,,0,,,74,54
31014,note_on,54,0,4,,,,,,,,3,,,45,0
31020,note_on,6,0,4,,,,,,,,3,,,60,67
31068,note_on,108,0,1,,,,,,,,0,,,74,0
31074,note_on,54,0,4,,,,,,,,3,,,60,0
31080,note_on,12,0,1,,,,,,,,0,,,74,53
31188,note_on,108,0,1,,,,,,,,0,,,74,0
31200,note_on,12,0,1,,,,,,,,0,,,86,53
31200,note_on,126,0,4,,,,,,,,3,,,43,67
31254,note_on,54,0,4,,,,,,,,3,,,43,0
31260,note_on,6,0,4,,,,,,,,3,,,58,67
31308,note_on,108,0,1,,,,,,,,0,,,86,0
31314,note_on,54,0,4,,,,,,,,3,,,58,0
31320,note_on,12,0,1,,,,,,,,0,,,86,53
31428,note_on,108,0,1,,,,,,,,0,,,86,0
31440,note_on,12,0,1,,,,,,,,0,,,98,52
31440,note_on,126,0,4,,,,,,,,3,,,42,66
31494,note_on,54,0,4,,,,,,,,3,,,42,0
31500,note_on,6,0,4,,,,,,,,3,,,57,66
31548,note_on,108,0,1,,,,,,,,0,,,98,0
31554,note_on,54,0,4,,,,,,,,3,,,57,0
31560,note_on,12,0,1,,,,,,,,0,,,86,52
31668,note_on,108,0,1,,,,,,,,0,,,86,0
31680,note_on,126,0,4,,,,,,,,3,,,43,66
31680,note_on,12,0,1,,,,,,,,0,,,86,52
31734,note_on,54,0,4,,,,,,,,3,,,43,0
31740,note_on,6,0,4,,,,,,,,3,,,58,66
31788,note_on,108,0,1,,,,,,,,0,,,86,0
31794,note_on,54,0,4,,,,,,,,3,,,58,0
31800,note_on,12,0,1,,,,,,,,0,,,74,51
31800,note_on,6,0,4,,,,,,,,3,,,60,66
31908,note_on,108,0,4,,,,,,,,3,,,60,0
31908,note_on,108,0,1,,,,,,,,0,,,74,0
31920,note_on,12,0,1,,,,,,,,0,,,74,51
31920,note_on,12,0,4,,,,,,,,3,,,58,66
32028,note_on,108,0,4,,,,,,,,3,,,58,0
32028,note_on,108,0,1,,,,,,,,0,,,74,0
32040,note_on,12,0,1,,,,,,,,0,,,62,50
32040,note_on,12,0,4,,,,,,,,3,,,57,66
32148,note_on,108,0,1,,,,,,,,0,,,62,0
32148,note_on,108,0,4,,,,,,,,3,,,57,0
32160,note_on,12,0,4,,,,,,,,3,,,46,66
32160,note_on,12,0,1,,,,,,,,0,,,74,50
32220,note_on,60,0,4,,,,,,,,3,,,55,66
32268,note_on,108,0,1,,,,,,,,0,,,74,0
32280,note_on,12,0,1,,,,,,,,0,,,74,50
32388,note_on,108,0,1,,,,,,,,0,,,74,0
32388,note_on,0,0,4,,,,,,,,3,,,46,0
32388,note_on,168,0,4,,,,,,,,3,,,55,0
32400,note_on,12,0,1,,,,,,,,0,,,86,52
32400,note_on,12,0,4,,,,,,,,3,,,57,61
32508,note_on,108,0,4,,,,,,,,3,,,57,0
32520,note_on,12,0,4,,,,,,,,3,,,58,61
32616,note_on,216,0,1,,,,,,,,0,,,86,0
32628,note_on,108,0,4,,,,,,,,3,,,58,0
32640,note_on,12,0,4,,,,,,,,3,,,45,61
32694,note_on,54,0,4,,,,,,,,3,,,45,0
32700,note_on,6,0,4,,,,,,,,3,,,60,61
32754,note_on,54,0,4,,,,,,,,3,,,60,0
32760,note_on,144,0,1,,,,,,,,0,,,60,52
32868,note_on,108,0,1,,,,,,,,0,,,60,0
32880,note_on,126,0,4,,,,,,,,3,,,43,62
32880,note_on,12,0,1,,,,,,,,0,,,72,52
32934,note_on,54,0,4,,,,,,,,3,,,43,0
32940,note_on,6,0,4,,,,,,,,3,,,58,62
32988,note_on,108,0,1,,,,,,,,0,,,72,0
32994,note_on,54,0,4,,,,,,,,3,,,58,0
33000,note_on,12,0,1,,,,,,,,0,,,72,52
33108,note_on,108,0,1,,,,,,,,0,,,72,0
33120,note_on,12,0,1,,,,,,,,0,,,84,53
33120,note_on,126,0,4,,,,,,,,3,,,41,62
33174,note_on,54,0,4,,,,,,,,3,,,41,0
33180,note_on,6,0,4,,,,,,,,3,,,57,63
33228,note_on,108,0,1,,,,,,,,0,,,84,0
33234,note_on,54,0,4,,,,,,,,3,,,57,0
33240,note_on,12,0,1,,,,,,,,0,,,84,53
33348,note_on,108,0,1,,,,,,,,0,,,84,0
33360,note_on,126,0,4,,,,,,,,3,,,40,63
33360,note_on,12,0,1,,,,,,,,0,,,96,53
33414,note_on,54,0,4,,,,,,,,3,,,40,0
33420,note_on,6,0,4,,,,,,,,3,,,55,63
33468,note_on,108,0,1,,,,,,,,0,,,96,0
33474,note_on,54,0,4,,,,,,,,3,,,55,0
33480,note_on,12,0,1,,,,,,,,0,,,84,53
33588,note_on,108,0,1,,,,,,,,0,,,84,0
33600,note_on,126,0,4,,,,,,,,3,,,41,64
33600,note_on,12,0,1,,,,,,,,0,,,84,53
33654,note_on,54,0,4,,,,,,,,3,,,41,0
33660,note_on,6,0,4,,,,,,,,3,,,57,64
33708,note_on,108,0,1,,,,,,,,0,,,84,0
33714,note_on,54,0,4,,,,,,,,3,,,57,0
33720,note_on,6,0,4,,,,,,,,3,,,58,64
33720,note_on,12,0,1,,,,,,,,0,,,72,53
33828,note_on,108,0,4,,,,,,,,3,,,58,0
33828,note_on,108,0,1,,,,,,,,0,,,72,0
33840,note_on,12,0,1,,,,,,,,0,,,72,53
33840,note_on,12,0,4,,,,,,,,3,,,57,64
33948,note_on,108,0,1,,,,,,,,0,,,72,0
33948,note_on,108,0,4,,,,,,,,3,,,57,0
33960,note_on,12,0,1,,,,,,,,0,,,60,54
33960,note_on,12,0,4,,,,,,,,3,,,55,66
34068,note_on,108,0,1,,,,,,,,0,,,60,0
34068,note_on,108,0,4,,,,,,,,3,,,55,0
34080,note_on,12,0,1,,,,,,,,0,,,72,54
34080,note_on,12,0,4,,,,,,,,3,,,45,66
34140,note_on,60,0,4,,,,,,,,3,,,53,66
34188,note_on,108,0,1,,,,,,,,0,,,72,0
34200,note_on,12,0,1,,,,,,,,0,,,72,54
34308,note_on,168,0,4,,,,,,,,3,,,53,0
34308,note_on,0,0,4,,,,,,,,3,,,45,0
34308,note_on,108,0,1,,,,,,,,0,,,72,0
34320,note_on,12,0,1,,,,,,,,0,,,84,54
34320,note_on,12,0,4,,,,,,,,3,,,65,66
34536,note_on,216,0,4,,,,,,,,3,,,65,0
34536,note_on,216,0,1,,,,,,,,0,,,84,0
34560,note_on,3852,0,2,,,,,,,,1,,,75,41
34560,note_on,0,0,1,,,,,,,,0,,,75,54
34560,note_on,0,0,3,,,,,,,,2,,,41,45
34560,control_change,24,0,4,,,,,,,,3,64,127,,
34560,control_change,3852,0,3,,,,,,,,2,64,127,,
34560,control_change,24,0,1,,,,,,,,0,64,127,,
34560,note_on,0,0,4,,,,,,,,3,,,41,50
34573,control_change,13,0,2,,,,,,,,1,64,127,,
34668,note_on,108,0,3,,,,,,,,2,,,41,0
34668,note_on,95,0,2,,,,,,,,1,,,75,0
34680,note_on,12,0,2,,,,,,,,1,,,65,41
34680,note_on,12,0,3,,,,,,,,2,,,53,45
34776,note_on,216,0,4,,,,,,,,3,,,41,0
34788,note_on,108,0,3,,,,,,,,2,,,53,0
34788,note_on,108,0,2,,,,,,,,1,,,65,0
34800,note_on,12,0,3,,,,,,,,2,,,57,45
34800,note_on,12,0,2,,,,,,,,1,,,60,41
34908,note_on,108,0,2,,,,,,,,1,,,60,0
34908,note_on,108,0,3,,,,,,,,2,,,57,0
34920,note_on,12,0,3,,,,,,,,2,,,53,45
34920,note_on,12,0,2,,,,,,,,1,,,65,42
34933,control_change,373,0,1,,,,,,,,0,64,0,,
34933,control_change,13,0,3,,,,,,,,2,64,0,,
34933,control_change,13,0,2,,,,,,,,1,64,0,,
34992,note_on,59,0,1,,,,,,,,0,,,75,0
35000,control_change,224,0,4,,,,,,,,3,64,0,,
35028,note_on,95,0,3,,,,,,,,2,,,53,0
35028,note_on,95,0,2,,,,,,,,1,,,65,0
35040,note_on,12,0,3,,,,,,,,2,,,46,45
35040,note_on,48,0,1,,,,,,,,0,,,74,64
35040,note_on,12,0,2,,,,,,,,1,,,74,42
35040,note_on,40,0,4,,,,,,,,3,,,46,51
35148,note_on,108,0,3,,,,,,,,2,,,46,0
35148,note_on,108,0,2,,,,,,,,1,,,74,0
35160,note_on,12,0,3,,,,,,,,2,,,53,45
35160,note_on,12,0,2,,,,,,,,1,,,65,43
35256,note_on,216,0,1,,,,,,,,0,,,74,0
35256,note_on,216,0,4,,,,,,,,3,,,46,0
35268,note_on,108,0,2,,,,,,,,1,,,65,0
35268,note_on,108,0,3,,,,,,,,2,,,53,0
35280,note_on,24,0,1,,,,,,,,0,,,75,61
35280,note_on,12,0,3,,,,,,,,2,,,58,46
35280,note_on,12,0,2,,,,,,,,1,,,62,43
35388,note_on,108,0,3,,,,,,,,2,,,58,0
35388,note_on,108,0,1,,,,,,,,0,,,75,0
35388,note_on,108,0,2,,,,,,,,1,,,62,0
35400,note_on,12,0,2,,,,,,,,1,,,65,44
35400,note_on,12,0,1,,,,,,,,0,,,74,58
35400,note_on,12,0,3,,,,,,,,2,,,53,46
35508,note_on,108,0,2,,,,,,,,1,,,65,0
35508,note_on,108,0,3,,,,,,,,2,,,53,0
35508,note_on,108,0,1,,,,,,,,0,,,74,0
35520,note_on,12,0,2,,,,,,,,1,,,72,44
35520,note_on,264,0,4,,,,,,,,3,,,41,52
35520,note_on,12,0,3,,,,,,,,2,,,41,46
35520,note_on,12,0,1,,,,,,,,0,,,72,55
35628,note_on,108,0,3,,,,,,,,2,,,41,0
35628,note_on,108,0,2,,,,,,,,1,,,72,0
35640,note_on,12,0,3,,,,,,,,2,,,53,46
35640,note_on,12,0,2,,,,,,,,1,,,65,44
35736,note_on,216,0,4,,,,,,,,3,,,41,0
35748,note_on,108,0,2,,,,,,,,1,,,65,0
35748,note_on,108,0,3,,,,,,,,2,,,53,0
35760,note_on,12,0,3,,,,,,,,2,,,57,46
35760,note_on,12,0,2,,,,,,,,1,,,63,45
35868,note_on,108,0,3,,,,,,,,2,,,57,0
35868,note_on,108,0,2,,,,,,,,1,,,63,0
35880,note_on,12,0,2,,,,,,,,1,,,65,45
35880,note_on,12,0,3,,,,,,,,2,,,53,46
35952,note_on,432,0,1,,,,,,,,0,,,72,0
35988,note_on,108,0,3,,,,,,,,2,,,53,0
35988,note_on,108,0,2,,,,,,,,1,,,65,0
36000,note_on,264,0,4,,,,,,,,3,,,46,53
36000,note_on,12,0,3,,,,,,,,2,,,46,46
36000,note_on,12,0,2,,,,,,,,1,,,70,51
36000,note_on,48,0,1,,,,,,,,0,,,70,64
36108,note_on,108,0,3,,,,,,,,2,,,46,0
36108,note_on,108,0,2,,,,,,,,1,,,70,0
36120,note_on,12,0,3,,,,,,,,2,,,53,51
36120,note_on,12,0,2,,,,,,,,1,,,65,51
36216,note_on,216,0,4,,,,,,,,3,,,46,0
36228,note_on,108,0,2,,,,,,,,1,,,65,0
36228,note_on,108,0,3,,,,,,,,2,,,53,0
36240,note_on,12,0,2,,,,,,,,1,,,62,51
36240,note_on,12,0,3,,,,,,,,2,,,58,51
36348,note_on,108,0,2,,,,,,,,1,,,62,0
36348,note_on,108,0,3,,,,,,,,2,,,58,0
36360,note_on,12,0,2,,,,,,,,1,,,65,51
36360,note_on,12,0,3,,,,,,,,2,,,53,51
36432,note_on,432,0,1,,,,,,,,0,,,70,0
36468,note_on,108,0,2,,,,,,,,1,,,65,0
36468,note_on,108,0,3,,,,,,,,2,,,53,0
36480,note_on,0,0,2,,,,,,,,1,,,60,38
36480,note_on,264,0,4,,,,,,,,3,,,41,53
36480,note_on,0,0,3,,,,,,,,2,,,41,43
36480,note_on,0,0,2,,,,,,,,1,,,63,38
36480,control_change,12,0,2,,,,,,,,1,64,127,,
36480,control_change,12,0,3,,,,,,,,2,64,127,,
36493,control_change,13,0,4,,,,,,,,3,64,127,,
36588,note_on,108,0,3,,,,,,,,2,,,41,0
36588,note_on,108,0,2,,,,,,,,1,,,63,0
36588,note_on,0,0,2,,,,,,,,1,,,60,0
36600,note_on,12,0,3,,,,,,,,2,,,53,43
36600,note_on,12,0,2,,,,,,,,1,,,65,38
36696,note_on,203,0,4,,,,,,,,3,,,41,0
36708,note_on,108,0,3,,,,,,,,2,,,53,0
36708,note_on,108,0,2,,,,,,,,1,,,65,0
36720,note_on,12,0,2,,,,,,,,1,,,60,38
36720,note_on,12,0,3,,,,,,,,2,,,57,42
36785,set_tempo,17580,1,0,,,,,,519570,,,,,,
36795,set_tempo,10,1,0,,,,,,521739,,,,,,
36805,set_tempo,10,1,0,,,,,,523926,,,,,,
36815,set_tempo,10,1,0,,,,,,526131,,,,,,
36825,set_tempo,10,1,0,,,,,,528355,,,,,,
36828,note_on,108,0,2,,,,,,,,1,,,60,0
36828,note_on,108,0,3,,,,,,,,2,,,57,0
36835,set_tempo,10,1,0,,,,,,530598,,,,,,
36840,note_on,12,0,2,,,,,,,,1,,,65,38
36840,note_on,12,0,3,,,,,,,,2,,,53,41
36845,set_tempo,10,1,0,,,,,,532860,,,,,,
36853,control_change,13,0,3,,,,,,,,2,64,0,,
36855,set_tempo,10,1,0,,,,,,535141,,,,,,
36865,set_tempo,10,1,0,,,,,,537442,,,,,,
36867,control_change,27,0,2,,,,,,,,1,64,0,,
36875,set_tempo,10,1,0,,,,,,539763,,,,,,
36880,control_change,184,0,4,,,,,,,,3,64,0,,
36885,set_tempo,10,1,0,,,,,,542103,,,,,,
36895,set_tempo,10,1,0,,,,,,544465,,,,,,
36905,set_tempo,10,1,0,,,,,,546847,,,,,,
36915,set_tempo,10,1,0,,,,,,549249,,,,,,
36925,set_tempo,10,1,0,,,,,,551673,,,,,,
36935,set_tempo,10,1,0,,,,,,554119,,,,,,
36945,set_tempo,10,1,0,,,,,,556586,,,,,,
36948,note_on,81,0,2,,,,,,,,1,,,65,0
36948,note_on,95,0,3,,,,,,,,2,,,53,0
36955,set_tempo,10,1,0,,,,,,559076,,,,,,
36960,note_on,12,0,2,,,,,,,,1,,,62,38
36960,note_on,80,0,4,,,,,,,,3,,,46,51
36960,note_on,12,0,3,,,,,,,,2,,,46,40
36965,set_tempo,10,1,0,,,,,,561587,,,,,,
36975,set_tempo,10,1,0,,,,,,564122,,,,,,
36985,set_tempo,10,1,0,,,,,,569260,,,,,,
37068,note_on,108,0,3,,,,,,,,2,,,46,0
37068,note_on,108,0,2,,,,,,,,1,,,62,0
37080,note_on,12,0,2,,,,,,,,1,,,65,38
37080,note_on,12,0,3,,,,,,,,2,,,53,40
37176,note_on,216,0,4,,,,,,,,3,,,46,0
37188,note_on,108,0,3,,,,,,,,2,,,53,0
37188,note_on,108,0,2,,,,,,,,1,,,65,0
37200,note_on,12,0,3,,,,,,,,2,,,58,40
37200,note_on,768,0,1,,,,,,,,0,,,75,57
37308,note_on,108,0,1,,,,,,,,0,,,75,0
37308,note_on,108,0,3,,,,,,,,2,,,58,0
37320,note_on,12,0,3,,,,,,,,2,,,53,39
37320,note_on,12,0,1,,,,,,,,0,,,74,53
37428,note_on,108,0,1,,,,,,,,0,,,74,0
37428,note_on,108,0,3,,,,,,,,2,,,53,0
37440,note_on,0,0,4,,,,,,,,3,,,41,52
37440,note_on,0,0,1,,,,,,,,0,,,72,49
37440,control_change,12,0,1,,,,,,,,0,64,127,,
37440,note_on,12,0,3,,,,,,,,2,,,41,48
37440,control_change,264,0,4,,,,,,,,3,64,127,,
37453,control_change,13,0,3,,,,,,,,2,64,127,,
37507,control_change,319,0,2,,,,,,,,1,64,127,,
37548,note_on,95,0,3,,,,,,,,2,,,41,0
37560,note_on,53,0,2,,,,,,,,1,,,65,50
37560,note_on,12,0,3,,,,,,,,2,,,53,47
37656,note_on,216,0,4,,,,,,,,3,,,41,0
37668,note_on,108,0,2,,,,,,,,1,,,65,0
37668,note_on,108,0,3,,,,,,,,2,,,53,0
37680,note_on,12,0,2,,,,,,,,1,,,63,50
37680,control_change,240,0,1,,,,,,,,0,64,0,,
37680,note_on,12,0,3,,,,,,,,2,,,57,46
37764,note_on,84,0,1,,,,,,,,0,,,72,0
37788,note_on,108,0,2,,,,,,,,1,,,63,0
37788,note_on,108,0,3,,,,,,,,2,,,57,0
37800,note_on,36,0,1,,,,,,,,0,,,74,60
37800,note_on,12,0,2,,,,,,,,1,,,65,50
37800,note_on,12,0,3,,,,,,,,2,,,53,45
37800,control_change,0,0,3,,,,,,,,2,64,0,,
37813,control_change,157,0,4,,,,,,,,3,64,0,,
37813,control_change,13,0,2,,,,,,,,1,64,0,,
37854,note_on,54,0,1,,,,,,,,0,,,74,0
37860,note_on,6,0,1,,,,,,,,0,,,72,56
37908,note_on,95,0,2,,,,,,,,1,,,65,0
37908,note_on,108,0,3,,,,,,,,2,,,53,0
37914,note_on,54,0,1,,,,,,,,0,,,72,0
37920,note_on,12,0,3,,,,,,,,2,,,46,44
37920,note_on,107,0,4,,,,,,,,3,,,46,52
37920,note_on,6,0,1,,,,,,,,0,,,70,53
38028,note_on,108,0,3,,,,,,,,2,,,46,0
38040,note_on,132,0,2,,,,,,,,1,,,65,51
38040,note_on,12,0,3,,,,,,,,2,,,53,53
38136,note_on,216,0,4,,,,,,,,3,,,46,0
38136,note_on,216,0,1,,,,,,,,0,,,70,0
38148,note_on,108,0,2,,,,,,,,1,,,65,0
38148,note_on,108,0,3,,,,,,,,2,,,53,0
38160,note_on,12,0,2,,,,,,,,1,,,62,51
38160,note_on,12,0,3,,,,,,,,2,,,58,53
38268,note_on,108,0,3,,,,,,,,2,,,58,0
38268,note_on,108,0,2,,,,,,,,1,,,62,0
38280,note_on,12,0,2,,,,,,,,1,,,65,51
38280,note_on,12,0,3,,,,,,,,2,,,53,53
38388,note_on,108,0,3,,,,,,,,2,,,53,0
38388,note_on,108,0,2,,,,,,,,1,,,65,0
38400,note_on,0,0,1,,,,,,,,0,,,62,45
38400,control_change,264,0,4,,,,,,,,3,64,127,,
38400,control_change,264,0,1,,,,,,,,0,64,127,,
38400,note_on,0,0,4,,,,,,,,3,,,46,39
38400,control_change,12,0,2,,,,,,,,1,64,127,,
38405,set_tempo,1420,1,0,,,,,,513171,,,,,,
38508,note_on,108,0,4,,,,,,,,3,,,46,0
38508,note_on,108,0,1,,,,,,,,0,,,62,0
38520,note_on,12,0,4,,,,,,,,3,,,53,40
38520,note_on,12,0,1,,,,,,,,0,,,65,47
38628,note_on,108,0,1,,,,,,,,0,,,65,0
38628,note_on,108,0,4,,,,,,,,3,,,53,0
38640,note_on,12,0,1,,,,,,,,0,,,70,48
38640,note_on,12,0,4,,,,,,,,3,,,58,42
38640,note_on,240,0,2,,,,,,,,1,,,62,44
38748,note_on,108,0,4,,,,,,,,3,,,58,0
38748,note_on,108,0,1,,,,,,,,0,,,70,0
38760,note_on,12,0,1,,,,,,,,0,,,65,50
38760,note_on,12,0,4,,,,,,,,3,,,53,44
38856,note_on,216,0,2,,,,,,,,1,,,62,0
38868,note_on,108,0,1,,,,,,,,0,,,65,0
38868,note_on,108,0,4,,,,,,,,3,,,53,0
38880,note_on,12,0,1,,,,,,,,0,,,62,52
38880,note_on,12,0,4,,,,,,,,3,,,46,46
38988,note_on,108,0,1,,,,,,,,0,,,62,0
38988,note_on,108,0,4,,,,,,,,3,,,46,0
39000,note_on,12,0,1,,,,,,,,0,,,65,54
39000,note_on,12,0,4,,,,,,,,3,,,53,47
39108,note_on,108,0,4,,,,,,,,3,,,53,0
39108,note_on,108,0,1,,,,,,,,0,,,65,0
39120,note_on,12,0,4,,,,,,,,3,,,58,49
39120,note_on,0,0,2,,,,,,,,1,,,70,53
39120,note_on,12,0,1,,,,,,,,0,,,74,56
39120,note_on,264,0,2,,,,,,,,1,,,62,53
39228,note_on,108,0,1,,,,,,,,0,,,74,0
39228,note_on,108,0,4,,,,,,,,3,,,58,0
39240,note_on,12,0,1,,,,,,,,0,,,65,57
39240,note_on,12,0,4,,,,,,,,3,,,53,51
39336,note_on,0,0,2,,,,,,,,1,,,62,0
39336,note_on,216,0,2,,,,,,,,1,,,70,0
39348,note_on,108,0,1,,,,,,,,0,,,65,0
39348,note_on,108,0,4,,,,,,,,3,,,53,0
39360,control_change,12,0,1,,,,,,,,0,64,0,,
39360,note_on,0,0,2,,,,,,,,1,,,63,64
39360,note_on,0,0,4,,,,,,,,3,,,41,64
39360,control_change,24,0,2,,,,,,,,1,64,0,,
39360,control_change,12,0,4,,,,,,,,3,64,0,,
39468,note_on,108,0,4,,,,,,,,3,,,41,0
39468,note_on,108,0,2,,,,,,,,1,,,63,0
39480,note_on,12,0,4,,,,,,,,3,,,53,64
39480,note_on,12,0,2,,,,,,,,1,,,65,64
39588,note_on,108,0,2,,,,,,,,1,,,65,0
39588,note_on,108,0,4,,,,,,,,3,,,53,0
39600,note_on,0,0,2,,,,,,,,1,,,77,64
39600,note_on,12,0,2,,,,,,,,1,,,69,64
39600,note_on,12,0,4,,,,,,,,3,,,60,64
39600,note_on,0,0,4,,,,,,,,3,,,57,64
39708,note_on,0,0,2,,,,,,,,1,,,69,0
39708,note_on,108,0,2,,,,,,,,1,,,77,0
39720,note_on,12,0,2,,,,,,,,1,,,65,64
39816,note_on,0,0,4,,,,,,,,3,,,60,0
39816,note_on,216,0,4,,,,,,,,3,,,57,0
39828,note_on,108,0,2,,,,,,,,1,,,65,0
39840,note_on,0,0,2,,,,,,,,1,,,74,64
39840,note_on,24,0,4,,,,,,,,3,,,46,64
39840,note_on,12,0,2,,,,,,,,1,,,70,64
39948,note_on,0,0,2,,,,,,,,1,,,70,0
39948,note_on,108,0,2,,,,,,,,1,,,74,0
39948,note_on,108,0,4,,,,,,,,3,,,46,0
39960,note_on,12,0,4,,,,,,,,3,,,53,64
39960,note_on,12,0,2,,,,,,,,1,,,65,64
40068,note_on,108,0,4,,,,,,,,3,,,53,0
40068,note_on,108,0,2,,,,,,,,1,,,65,0
40080,note_on,12,0,4,,,,,,,,3,,,62,64
40080,note_on,0,0,4,,,,,,,,3,,,58,64
40200,note_on,132,0,2,,,,,,,,1,,,65,64
40296,note_on,216,0,4,,,,,,,,3,,,58,0
40296,note_on,0,0,4,,,,,,,,3,,,62,0
40308,note_on,108,0,2,,,,,,,,1,,,65,0
40320,control_change,24,0,4,,,,,,,,3,64,127,,
40320,note_on,0,0,2,,,,,,,,1,,,62,59
40320,control_change,12,0,2,,,,,,,,1,64,127,,
40320,note_on,0,0,4,,,,,,,,3,,,46,60
40428,note_on,108,0,4,,,,,,,,3,,,46,0
40428,note_on,108,0,2,,,,,,,,1,,,62,0
40440,note_on,12,0,4,,,,,,,,3,,,53,56
40440,note_on,12,0,2,,,,,,,,1,,,65,56
40548,note_on,108,0,4,,,,,,,,3,,,53,0
40548,note_on,108,0,2,,,,,,,,1,,,65,0
40560,note_on,12,0,4,,,,,,,,3,,,58,53
40560,note_on,0,0,2,,,,,,,,1,,,70,53
40560,note_on,12,0,2,,,,,,,,1,,,62,53
40668,note_on,108,0,4,,,,,,,,3,,,58,0
40668,note_on,108,0,2,,,,,,,,1,,,70,0
40668,note_on,0,0,2,,,,,,,,1,,,62,0
40680,note_on,12,0,2,,,,,,,,1,,,65,50
40680,note_on,12,0,4,,,,,,,,3,,,53,49
40788,note_on,108,0,4,,,,,,,,3,,,53,0
40788,note_on,108,0,2,,,,,,,,1,,,65,0
40800,note_on,12,0,2,,,,,,,,1,,,62,47
40800,note_on,12,0,4,,,,,,,,3,,,46,46
40908,note_on,108,0,2,,,,,,,,1,,,62,0
40908,note_on,108,0,4,,,,,,,,3,,,46,0
40920,note_on,12,0,4,,,,,,,,3,,,53,45
40920,note_on,12,0,2,,,,,,,,1,,,65,47
41028,note_on,108,0,4,,,,,,,,3,,,53,0
41028,note_on,108,0,2,,,,,,,,1,,,65,0
41040,note_on,0,0,2,,,,,,,,1,,,74,48
41040,note_on,12,0,4,,,,,,,,3,,,58,46
41040,note_on,12,0,2,,,,,,,,1,,,62,48
41040,note_on,0,0,2,,,,,,,,1,,,70,48
41140,control_change,100,0,2,,,,,,,,1,64,0,,
41148,note_on,108,0,4,,,,,,,,3,,,58,0
41148,note_on,0,0,2,,,,,,,,1,,,70,0
41148,note_on,8,0,2,,,,,,,,1,,,74,0
41148,note_on,0,0,2,,,,,,,,1,,,62,0
41160,note_on,12,0,4,,,,,,,,3,,,53,47
41160,note_on,12,0,2,,,,,,,,1,,,65,49
41180,control_change,20,0,4,,,,,,,,3,64,0,,
41268,note_on,88,0,4,,,,,,,,3,,,53,0
41268,note_on,108,0,2,,,,,,,,1,,,65,0
41280,note_on,12,0,4,,,,,,,,3,,,41,48
41280,note_on,12,0,2,,,,,,,,1,,,63,50
41388,note_on,108,0,2,,,,,,,,1,,,63,0
41388,note_on,108,0,4,,,,,,,,3,,,41,0
41400,note_on,12,0,2,,,,,,,,1,,,65,52
41400,note_on,12,0,4,,,,,,,,3,,,53,49
41508,note_on,108,0,2,,,,,,,,1,,,65,0
41508,note_on,108,0,4,,,,,,,,3,,,53,0
41520,note_on,0,0,4,,,,,,,,3,,,63,51
41520,note_on,0,0,2,,,,,,,,1,,,69,53
41520,note_on,12,0,4,,,,,,,,3,,,60,51
41520,note_on,12,0,2,,,,,,,,1,,,77,53
41628,note_on,108,0,2,,,,,,,,1,,,69,0
41628,note_on,0,0,2,,,,,,,,1,,,77,0
41640,note_on,12,0,2,,,,,,,,1,,,65,54
41736,note_on,216,0,4,,,,,,,,3,,,63,0
41736,note_on,0,0,4,,,,,,,,3,,,60,0
41748,note_on,108,0,2,,,,,,,,1,,,65,0
41760,note_on,24,0,4,,,,,,,,3,,,53,53
41760,note_on,12,0,2,,,,,,,,1,,,62,55
41760,note_on,0,0,4,,,,,,,,3,,,58,53
41760,note_on,0,0,4,,,,,,,,3,,,46,53
41760,note_on,0,0,2,,,,,,,,1,,,70,55
41952,note_on,0,0,2,,,,,,,,1,,,62,0
41952,note_on,192,0,2,,,,,,,,1,,,70,0
41976,note_on,0,0,4,,,,,,,,3,,,53,0
41976,note_on,216,0,4,,,,,,,,3,,,46,0
41976,note_on,0,0,4,,,,,,,,3,,,58,0
42120,note_on,144,0,4,,,,,,,,3,,,53,56
42120,note_on,168,0,2,,,,,,,,1,,,53,69
42228,note_on,108,0,4,,,,,,,,3,,,53,0
42228,note_on,108,0,2,,,,,,,,1,,,53,0
42235,set_tempo,3830,1,0,,,,,,530598,,,,,,
42240,note_on,12,0,4,,,,,,,,3,,,34,51
42240,note_on,12,0,2,,,,,,,,1,,,53,61
42240,note_on,2880,0,1,,,,,,,,0,,,53,44
42300,note_on,60,0,4,,,,,,,,3,,,50,51
42348,note_on,108,0,1,,,,,,,,0,,,53,0
42360,note_on,12,0,1,,,,,,,,0,,,60,44
42456,note_on,216,0,2,,,,,,,,1,,,53,0
42468,note_on,108,0,1,,,,,,,,0,,,60,0
42468,note_on,168,0,4,,,,,,,,3,,,50,0
42468,note_on,0,0,4,,,,,,,,3,,,34,0
42480,note_on,24,0,2,,,,,,,,1,,,58,61
42480,note_on,12,0,1,,,,,,,,0,,,58,44
42588,note_on,108,0,1,,,,,,,,0,,,58,0
42600,note_on,12,0,1,,,,,,,,0,,,67,44
42696,note_on,216,0,2,,,,,,,,1,,,58,0
42708,note_on,108,0,1,,,,,,,,0,,,67,0
42720,note_on,252,0,4,,,,,,,,3,,,46,51
42720,note_on,12,0,1,,,,,,,,0,,,65,44
42720,note_on,24,0,2,,,,,,,,1,,,46,61
42774,note_on,54,0,2,,,,,,,,1,,,46,0
42780,note_on,60,0,4,,,,,,,,3,,,57,51
42780,note_on,6,0,2,,,,,,,,1,,,57,61
42828,note_on,108,0,1,,,,,,,,0,,,65,0
42840,note_on,12,0,1,,,,,,,,0,,,74,44
42948,note_on,108,0,1,,,,,,,,0,,,74,0
42948,note_on,0,0,4,,,,,,,,3,,,46,0
42948,note_on,168,0,2,,,,,,,,1,,,57,0
42948,note_on,168,0,4,,,,,,,,3,,,57,0
42960,note_on,12,0,2,,,,,,,,1,,,60,61
42960,note_on,12,0,1,,,,,,,,0,,,72,44
43068,note_on,108,0,1,,,,,,,,0,,,72,0
43080,note_on,12,0,1,,,,,,,,0,,,79,44
43176,note_on,216,0,2,,,,,,,,1,,,60,0
43188,note_on,108,0,1,,,,,,,,0,,,79,0
43200,note_on,0,0,4,,,,,,,,3,,,46,50
43200,control_change,252,0,4,,,,,,,,3,64,127,,
43200,control_change,4812,0,3,,,,,,,,2,64,127,,
43200,control_change,12,0,1,,,,,,,,0,64,127,,
43200,note_on,0,0,1,,,,,,,,0,,,77,44
43254,note_on,54,0,4,,,,,,,,3,,,46,0
43260,note_on,6,0,4,,,,,,,,3,,,62,50
43308,note_on,108,0,1,,,,,,,,0,,,77,0
43314,note_on,54,0,4,,,,,,,,3,,,62,0
43320,note_on,12,0,1,,,,,,,,0,,,84,45
43320,note_on,120,0,3,,,,,,,,2,,,65,75
43428,note_on,108,0,1,,,,,,,,0,,,84,0
43428,note_on,108,0,3,,,,,,,,2,,,65,0
43440,note_on,12,0,3,,,,,,,,2,,,62,72
43440,note_on,12,0,1,,,,,,,,0,,,82,45
43548,note_on,108,0,1,,,,,,,,0,,,82,0
43548,note_on,108,0,3,,,,,,,,2,,,62,0
43560,note_on,12,0,3,,,,,,,,2,,,58,68
43560,note_on,12,0,1,,,,,,,,0,,,91,45
43668,note_on,108,0,3,,,,,,,,2,,,58,0
43668,note_on,108,0,1,,,,,,,,0,,,91,0
43680,note_on,12,0,1,,,,,,,,0,,,89,45
43680,note_on,12,0,3,,,,,,,,2,,,53,65
43788,note_on,108,0,1,,,,,,,,0,,,89,0
43800,note_on,12,0,1,,,,,,,,0,,,96,50
43896,note_on,216,0,3,,,,,,,,2,,,53,0
43908,note_on,108,0,1,,,,,,,,0,,,96,0
43920,note_on,24,0,3,,,,,,,,2,,,53,64
43920,note_on,0,0,3,,,,,,,,2,,,62,64
43920,note_on,12,0,1,,,,,,,,0,,,94,50
44028,note_on,108,0,1,,,,,,,,0,,,94,0
44040,note_on,12,0,1,,,,,,,,0,,,103,50
44136,note_on,0,0,3,,,,,,,,2,,,53,0
44136,note_on,216,0,3,,,,,,,,2,,,62,0
44148,note_on,108,0,1,,,,,,,,0,,,103,0
44160,note_on,0,0,3,,,,,,,,2,,,60,64
44160,control_change,12,0,1,,,,,,,,0,64,0,,
44160,note_on,0,0,3,,,,,,,,2,,,51,64
44160,control_change,846,0,4,,,,,,,,3,64,0,,
44160,control_change,24,0,3,,,,,,,,2,64,0,,
44160,note_on,0,0,1,,,,,,,,0,,,101,50
44268,note_on,108,0,1,,,,,,,,0,,,101,0
44280,note_on,12,0,1,,,,,,,,0,,,96,52
44388,note_on,108,0,1,,,,,,,,0,,,96,0
44400,note_on,12,0,1,,,,,,,,0,,,91,46
44484,note_on,324,0,3,,,,,,,,2,,,60,0
44484,note_on,0,0,3,,,,,,,,2,,,51,0
44508,note_on,108,0,1,,,,,,,,0,,,91,0
44520,note_on,12,0,1,,,,,,,,0,,,89,46
44520,note_on,36,0,3,,,,,,,,2,,,48,69
44520,note_on,0,0,3,,,,,,,,2,,,57,69
44574,note_on,54,0,1,,,,,,,,0,,,89,0
44580,note_on,6,0,1,,,,,,,,0,,,88,46
44628,note_on,0,0,3,,,,,,,,2,,,48,0
44628,note_on,108,0,3,,,,,,,,2,,,57,0
44634,note_on,54,0,1,,,,,,,,0,,,88,0
44640,note_on,6,0,1,,,,,,,,0,,,91,46
44640,note_on,12,0,3,,,,,,,,2,,,50,76
44640,note_on,0,0,3,,,,,,,,2,,,58,76
44694,note_on,54,0,1,,,,,,,,0,,,91,0
44700,note_on,6,0,1,,,,,,,,0,,,89,46
44754,note_on,54,0,1,,,,,,,,0,,,89,0
44760,note_on,6,0,1,,,,,,,,0,,,84,46
44856,note_on,0,0,3,,,,,,,,2,,,50,0
44856,note_on,216,0,3,,,,,,,,2,,,58,0
44868,note_on,108,0,1,,,,,,,,0,,,84,0
44880,note_on,0,0,3,,,,,,,,2,,,62,76
44880,note_on,24,0,3,,,,,,,,2,,,53,76
44880,note_on,12,0,1,,,,,,,,0,,,82,46
44988,note_on,108,0,1,,,,,,,,0,,,82,0
45000,note_on,12,0,1,,,,,,,,0,,,76,46
45054,note_on,54,0,1,,,,,,,,0,,,76,0
45060,note_on,900,0,4,,,,,,,,3,,,41,64
45060,note_on,6,0,1,,,,,,,,0,,,79,52
45096,note_on,216,0,3,,,,,,,,2,,,62,0
45096,note_on,0,0,3,,,,,,,,2,,,53,0
45114,note_on,54,0,4,,,,,,,,3,,,41,0
45114,note_on,54,0,1,,,,,,,,0,,,79,0
45120,control_change,24,0,3,,,,,,,,2,64,127,,
45120,note_on,0,0,1,,,,,,,,0,,,77,52
45120,control_change,6,0,1,,,,,,,,0,64,127,,
45120,note_on,0,0,3,,,,,,,,2,,,60,76
45120,note_on,0,0,3,,,,,,,,2,,,51,76
45120,control_change,6,0,4,,,,,,,,3,64,127,,
45228,note_on,108,0,1,,,,,,,,0,,,77,0
45240,note_on,12,0,1,,,,,,,,0,,,72,52
45348,note_on,108,0,1,,,,,,,,0,,,72,0
45360,note_on,12,0,1,,,,,,,,0,,,67,52
45444,note_on,324,0,3,,,,,,,,2,,,60,0
45444,note_on,0,0,3,,,,,,,,2,,,51,0
45468,note_on,108,0,1,,,,,,,,0,,,67,0
45480,note_on,0,0,3,,,,,,,,2,,,57,69
45480,note_on,36,0,3,,,,,,,,2,,,48,69
45480,note_on,12,0,1,,,,,,,,0,,,65,52
45534,note_on,54,0,1,,,,,,,,0,,,65,0
45540,note_on,6,0,1,,,,,,,,0,,,64,52
45588,note_on,108,0,3,,,,,,,,2,,,57,0
45588,note_on,0,0,3,,,,,,,,2,,,48,0
45594,note_on,54,0,1,,,,,,,,0,,,64,0
45600,note_on,0,0,3,,,,,,,,2,,,58,76
45600,note_on,12,0,3,,,,,,,,2,,,50,76
45600,note_on,6,0,1,,,,,,,,0,,,67,52
45654,note_on,54,0,1,,,,,,,,0,,,67,0
45660,note_on,6,0,1,,,,,,,,0,,,65,52
45680,control_change,560,0,4,,,,,,,,3,64,0,,
45714,note_on,54,0,1,,,,,,,,0,,,65,0
45720,note_on,6,0,1,,,,,,,,0,,,60,52
45780,control_change,180,0,3,,,,,,,,2,64,0,,
45816,note_on,36,0,3,,,,,,,,2,,,58,0
45816,note_on,0,0,3,,,,,,,,2,,,50,0
45820,control_change,100,0,1,,,,,,,,0,64,0,,
45828,note_on,8,0,1,,,,,,,,0,,,60,0
45840,note_on,12,0,1,,,,,,,,0,,,58,52
45948,note_on,108,0,1,,,,,,,,0,,,58,0
45960,note_on,12,0,1,,,,,,,,0,,,53,52
46068,note_on,108,0,1,,,,,,,,0,,,53,0
46080,note_on,12,0,1,,,,,,,,0,,,53,46
46080,note_on,400,0,4,,,,,,,,3,,,46,67
46080,note_on,2904,0,2,,,,,,,,1,,,53,65
46140,note_on,60,0,4,,,,,,,,3,,,62,76
46188,note_on,108,0,1,,,,,,,,0,,,53,0
46200,note_on,12,0,1,,,,,,,,0,,,60,46
46308,note_on,0,0,4,,,,,,,,3,,,46,0
46308,note_on,108,0,1,,,,,,,,0,,,60,0
46308,note_on,168,0,4,,,,,,,,3,,,62,0
46320,note_on,240,0,2,,,,,,,,1,,,53,0
46320,note_on,0,0,2,,,,,,,,1,,,58,65
46320,note_on,12,0,1,,,,,,,,0,,,58,46
46428,note_on,108,0,1,,,,,,,,0,,,58,0
46440,note_on,12,0,1,,,,,,,,0,,,67,46
46548,note_on,108,0,1,,,,,,,,0,,,67,0
46560,note_on,240,0,2,,,,,,,,1,,,58,0
46560,note_on,252,0,4,,,,,,,,3,,,46,76
46560,note_on,12,0,1,,,,,,,,0,,,65,46
46620,note_on,60,0,4,,,,,,,,3,,,57,76
46668,note_on,108,0,1,,,,,,,,0,,,65,0
46680,note_on,12,0,1,,,,,,,,0,,,74,46
46788,note_on,0,0,4,,,,,,,,3,,,46,0
46788,note_on,108,0,1,,,,,,,,0,,,74,0
46788,note_on,168,0,4,,,,,,,,3,,,57,0
46800,note_on,12,0,1,,,,,,,,0,,,72,46
46800,note_on,12,0,4,,,,,,,,3,,,63,76
46908,note_on,108,0,1,,,,,,,,0,,,72,0
46920,note_on,12,0,1,,,,,,,,0,,,79,46
47016,note_on,216,0,4,,,,,,,,3,,,63,0
47028,note_on,108,0,1,,,,,,,,0,,,79,0
47040,control_change,24,0,4,,,,,,,,3,64,127,,
47040,note_on,0,0,4,,,,,,,,3,,,46,76
47040,control_change,1224,0,3,,,,,,,,2,64,127,,
47040,note_on,0,0,1,,,,,,,,0,,,77,46
47040,control_change,12,0,1,,,,,,,,0,64,127,,
47100,note_on,60,0,4,,,,,,,,3,,,62,76
47148,note_on,108,0,1,,,,,,,,0,,,77,0
47154,note_on,54,0,4,,,,,,,,3,,,62,0
47160,note_on,120,0,3,,,,,,,,2,,,65,74
47160,note_on,12,0,1,,,,,,,,0,,,84,50
47268,note_on,114,0,4,,,,,,,,3,,,46,0
47268,note_on,108,0,1,,,,,,,,0,,,84,0
47268,note_on,108,0,3,,,,,,,,2,,,65,0
47280,note_on,12,0,3,,,,,,,,2,,,62,72
47280,note_on,12,0,1,,,,,,,,0,,,83,50
47388,note_on,108,0,1,,,,,,,,0,,,83,0
47388,note_on,108,0,3,,,,,,,,2,,,62,0
47400,note_on,12,0,3,,,,,,,,2,,,58,69
47400,note_on,12,0,1,,,,,,,,0,,,89,49
47508,note_on,108,0,1,,,,,,,,0,,,89,0
47508,note_on,108,0,3,,,,,,,,2,,,58,0
47520,note_on,12,0,3,,,,,,,,2,,,53,67
47520,note_on,12,0,1,,,,,,,,0,,,89,49
47628,note_on,108,0,1,,,,,,,,0,,,89,0
47640,note_on,12,0,1,,,,,,,,0,,,96,49
47736,note_on,216,0,3,,,,,,,,2,,,53,0
47748,note_on,108,0,1,,,,,,,,0,,,96,0
47760,note_on,0,0,3,,,,,,,,2,,,53,83
47760,note_on,12,0,1,,,,,,,,0,,,94,53
47760,note_on,24,0,3,,,,,,,,2,,,62,83
47868,note_on,108,0,1,,,,,,,,0,,,94,0
47880,control_change,612,0,4,,,,,,,,3,64,0,,
47880,note_on,12,0,1,,,,,,,,0,,,103,61
47933,control_change,53,0,1,,,,,,,,0,64,0,,
47976,note_on,0,0,3,,,,,,,,2,,,62,0
47976,note_on,216,0,3,,,,,,,,2,,,53,0
47988,note_on,55,0,1,,,,,,,,0,,,103,0
48000,note_on,0,0,3,,,,,,,,2,,,60,93
48000,note_on,12,0,1,,,,,,,,0,,,101,65
48000,note_on,0,0,3,,,,,,,,2,,,51,93
48000,control_change,24,0,3,,,,,,,,2,64,0,,
48108,note_on,108,0,1,,,,,,,,0,,,101,0
48120,note_on,12,0,1,,,,,,,,0,,,96,60
48228,note_on,108,0,1,,,,,,,,0,,,96,0
48240,note_on,12,0,1,,,,,,,,0,,,91,63
48324,note_on,0,0,3,,,,,,,,2,,,60,0
48324,note_on,324,0,3,,,,,,,,2,,,51,0
48348,note_on,108,0,1,,,,,,,,0,,,91,0
48360,note_on,36,0,3,,,,,,,,2,,,57,83
48360,note_on,0,0,3,,,,,,,,2,,,48,83
48360,note_on,12,0,1,,,,,,,,0,,,89,64
48414,note_on,54,0,1,,,,,,,,0,,,89,0
48420,note_on,6,0,1,,,,,,,,0,,,88,66
48468,note_on,0,0,3,,,,,,,,2,,,57,0
48468,note_on,108,0,3,,,,,,,,2,,,48,0
48474,note_on,54,0,1,,,,,,,,0,,,88,0
48480,note_on,6,0,1,,,,,,,,0,,,91,62
48480,note_on,12,0,3,,,,,,,,2,,,58,88
48480,note_on,0,0,3,,,,,,,,2,,,50,88
48534,note_on,54,0,1,,,,,,,,0,,,91,0
48540,note_on,6,0,1,,,,,,,,0,,,89,69
48594,note_on,54,0,1,,,,,,,,0,,,89,0
48600,note_on,6,0,1,,,,,,,,0,,,84,66
48696,note_on,216,0,3,,,,,,,,2,,,50,0
48696,note_on,0,0,3,,,,,,,,2,,,58,0
48708,note_on,108,0,1,,,,,,,,0,,,84,0
48720,note_on,24,0,3,,,,,,,,2,,,62,90
48720,note_on,12,0,1,,,,,,,,0,,,82,60
48720,note_on,0,0,3,,,,,,,,2,,,53,90
48828,note_on,108,0,1,,,,,,,,0,,,82,0
48840,note_on,12,0,1,,,,,,,,0,,,77,55
48876,note_on,36,0,1,,,,,,,,0,,,77,0
48880,note_on,4,0,1,,,,,,,,0,,,76,54
48900,note_on,1020,0,4,,,,,,,,3,,,41,67
48916,note_on,36,0,1,,,,,,,,0,,,76,0
48920,note_on,4,0,1,,,,,,,,0,,,79,52
48936,note_on,0,0,3,,,,,,,,2,,,62,0
48936,note_on,216,0,3,,,,,,,,2,,,53,0
48954,note_on,54,0,4,,,,,,,,3,,,41,0
48956,note_on,36,0,1,,,,,,,,0,,,79,0
48960,control_change,4,0,1,,,,,,,,0,64,127,,
48960,note_on,0,0,3,,,,,,,,2,,,60,76
48960,control_change,6,0,4,,,,,,,,3,64,127,,
48960,note_on,0,0,3,,,,,,,,2,,,51,76
48960,note_on,0,0,1,,,,,,,,0,,,77,50
48960,control_change,24,0,3,,,,,,,,2,64,127,,
49068,note_on,108,0,1,,,,,,,,0,,,77,0
49080,note_on,12,0,1,,,,,,,,0,,,72,50
49188,note_on,108,0,1,,,,,,,,0,,,72,0
49200,note_on,12,0,1,,,,,,,,0,,,67,49
49284,note_on,0,0,3,,,,,,,,2,,,60,0
49284,note_on,324,0,3,,,,,,,,2,,,51,0
49308,note_on,108,0,1,,,,,,,,0,,,67,0
49320,note_on,12,0,1,,,,,,,,0,,,65,48
49320,note_on,0,0,3,,,,,,,,2,,,48,68
49320,note_on,36,0,3,,,,,,,,2,,,57,68
49374,note_on,54,0,1,,,,,,,,0,,,65,0
49380,note_on,6,0,1,,,,,,,,0,,,64,48
49420,control_change,100,0,3,,,,,,,,2,64,0,,
49428,note_on,0,0,3,,,,,,,,2,,,57,0
49428,note_on,8,0,3,,,,,,,,2,,,48,0
49434,note_on,54,0,1,,,,,,,,0,,,64,0
49440,note_on,0,0,3,,,,,,,,2,,,50,76
49440,note_on,12,0,3,,,,,,,,2,,,58,76
49440,note_on,6,0,1,,,,,,,,0,,,67,48
49494,note_on,54,0,1,,,,,,,,0,,,67,0
49500,note_on,6,0,1,,,,,,,,0,,,65,47
49520,control_change,560,0,4,,,,,,,,3,64,0,,
49520,control_change,20,0,1,,,,,,,,0,64,0,,
49554,note_on,34,0,1,,,,,,,,0,,,65,0
49560,note_on,6,0,1,,,,,,,,0,,,62,47
49656,note_on,0,0,3,,,,,,,,2,,,58,0
49656,note_on,216,0,3,,,,,,,,2,,,50,0
49668,note_on,108,0,1,,,,,,,,0,,,62,0
49680,note_on,12,0,1,,,,,,,,0,,,58,46
49788,note_on,108,0,1,,,,,,,,0,,,58,0
49800,note_on,12,0,1,,,,,,,,0,,,60,46
49908,note_on,108,0,1,,,,,,,,0,,,60,0
49915,set_tempo,7680,1,0,,,,,,521739,,,,,,
49920,note_on,264,0,3,,,,,,,,2,,,62,64
49920,note_on,400,0,4,,,,,,,,3,,,62,64
50040,note_on,132,0,1,,,,,,,,0,,,67,45
50136,note_on,216,0,3,,,,,,,,2,,,62,0
50136,note_on,216,0,4,,,,,,,,3,,,62,0
50148,note_on,108,0,1,,,,,,,,0,,,67,0
50160,note_on,24,0,3,,,,,,,,2,,,62,64
50160,note_on,24,0,4,,,,,,,,3,,,60,64
50160,note_on,0,0,4,,,,,,,,3,,,57,64
50160,note_on,12,0,1,,,,,,,,0,,,66,57
50268,note_on,108,0,1,,,,,,,,0,,,66,0
50280,note_on,12,0,1,,,,,,,,0,,,72,57
50376,note_on,216,0,3,,,,,,,,2,,,62,0
50376,note_on,216,0,4,,,,,,,,3,,,57,0
50376,note_on,0,0,4,,,,,,,,3,,,60,0
50388,note_on,108,0,1,,,,,,,,0,,,72,0
50400,note_on,24,0,4,,,,,,,,3,,,58,65
50400,note_on,12,0,1,,,,,,,,0,,,70,58
50400,note_on,24,0,3,,,,,,,,2,,,62,65
50400,note_on,0,0,4,,,,,,,,3,,,55,65
50508,note_on,108,0,1,,,,,,,,0,,,70,0
50520,note_on,12,0,1,,,,,,,,0,,,75,60
50616,note_on,0,0,4,,,,,,,,3,,,58,0
50616,note_on,216,0,3,,,,,,,,2,,,62,0
50616,note_on,216,0,4,,,,,,,,3,,,55,0
50628,note_on,108,0,1,,,,,,,,0,,,75,0
50640,note_on,0,0,4,,,,,,,,3,,,54,69
50640,note_on,24,0,3,,,,,,,,2,,,62,69
50640,note_on,12,0,1,,,,,,,,0,,,74,62
50640,note_on,24,0,4,,,,,,,,3,,,57,69
50748,note_on,108,0,1,,,,,,,,0,,,74,0
50760,note_on,12,0,1,,,,,,,,0,,,81,63
50856,note_on,216,0,4,,,,,,,,3,,,54,0
50856,note_on,0,0,4,,,,,,,,3,,,57,0
50856,note_on,216,0,3,,,,,,,,2,,,62,0
50868,note_on,108,0,1,,,,,,,,0,,,81,0
50880,note_on,12,0,1,,,,,,,,0,,,82,55
50880,note_on,0,0,4,,,,,,,,3,,,55,72
50880,note_on,24,0,3,,,,,,,,2,,,62,72
50880,note_on,24,0,4,,,,,,,,3,,,58,72
50988,note_on,108,0,3,,,,,,,,2,,,62,0
50988,note_on,108,0,1,,,,,,,,0,,,82,0
51000,note_on,12,0,1,,,,,,,,0,,,87,57
51000,note_on,12,0,3,,,,,,,,2,,,63,74
51108,note_on,108,0,1,,,,,,,,0,,,87,0
51108,note_on,108,0,3,,,,,,,,2,,,63,0
51120,note_on,12,0,1,,,,,,,,0,,,86,59
51120,note_on,12,0,3,,,,,,,,2,,,62,77
51204,note_on,324,0,4,,,,,,,,3,,,55,0
51204,note_on,0,0,4,,,,,,,,3,,,58,0
51228,note_on,108,0,3,,,,,,,,2,,,62,0
51228,note_on,108,0,1,,,,,,,,0,,,86,0
51240,note_on,12,0,1,,,,,,,,0,,,90,62
51240,note_on,12,0,3,,,,,,,,2,,,60,79
51240,note_on,36,0,4,,,,,,,,3,,,57,79
51348,note_on,108,0,3,,,,,,,,2,,,60,0
51348,note_on,108,0,4,,,,,,,,3,,,57,0
51348,note_on,108,0,1,,,,,,,,0,,,90,0
51360,note_on,12,0,1,,,,,,,,0,,,91,64
51360,note_on,12,0,3,,,,,,,,2,,,62,81
51360,note_on,12,0,4,,,,,,,,3,,,58,81
51468,note_on,108,0,1,,,,,,,,0,,,91,0
51480,note_on,12,0,1,,,,,,,,0,,,94,66
51576,note_on,216,0,4,,,,,,,,3,,,58,0
51576,note_on,216,0,3,,,,,,,,2,,,62,0
51588,note_on,108,0,1,,,,,,,,0,,,94,0
51600,note_on,12,0,1,,,,,,,,0,,,98,68
51600,note_on,24,0,3,,,,,,,,2,,,60,76
51600,note_on,24,0,4,,,,,,,,3,,,57,79
51708,note_on,108,0,4,,,,,,,,3,,,57,0
51708,note_on,108,0,3,,,,,,,,2,,,60,0
51720,note_on,12,0,3,,,,,,,,2,,,58,87
51720,note_on,12,0,4,,,,,,,,3,,,55,87
51816,note_on,216,0,1,,,,,,,,0,,,98,0
51828,note_on,108,0,4,,,,,,,,3,,,55,0
51828,note_on,108,0,3,,,,,,,,2,,,58,0
51840,note_on,12,0,3,,,,,,,,2,,,60,64
51840,note_on,12,0,4,,,,,,,,3,,,57,64
51960,note_on,144,0,1,,,,,,,,0,,,65,57
52056,note_on,216,0,4,,,,,,,,3,,,57,0
52056,note_on,216,0,3,,,,,,,,2,,,60,0
52068,note_on,108,0,1,,,,,,,,0,,,65,0
52080,note_on,0,0,4,,,,,,,,3,,,58,65
52080,note_on,12,0,1,,,,,,,,0,,,64,58
52080,note_on,24,0,3,,,,,,,,2,,,60,65
52080,note_on,24,0,4,,,,,,,,3,,,55,65
52188,note_on,108,0,1,,,,,,,,0,,,64,0
52200,note_on,12,0,1,,,,,,,,0,,,70,60
52296,note_on,216,0,4,,,,,,,,3,,,58,0
52296,note_on,0,0,4,,,,,,,,3,,,55,0
52296,note_on,216,0,3,,,,,,,,2,,,60,0
52308,note_on,108,0,1,,,,,,,,0,,,70,0
52320,note_on,24,0,4,,,,,,,,3,,,53,69
52320,note_on,12,0,1,,,,,,,,0,,,69,62
52320,note_on,24,0,3,,,,,,,,2,,,60,69
52320,note_on,0,0,4,,,,,,,,3,,,57,69
52428,note_on,108,0,1,,,,,,,,0,,,69,0
52440,note_on,12,0,1,,,,,,,,0,,,74,56
52536,note_on,216,0,3,,,,,,,,2,,,60,0
52536,note_on,0,0,4,,,,,,,,3,,,53,0
52536,note_on,216,0,4,,,,,,,,3,,,57,0
52548,note_on,108,0,1,,,,,,,,0,,,74,0
52560,note_on,24,0,3,,,,,,,,2,,,60,72
52560,note_on,0,0,4,,,,,,,,3,,,55,72
52560,note_on,12,0,1,,,,,,,,0,,,72,58
52560,note_on,24,0,4,,,,,,,,3,,,52,72
52668,note_on,108,0,1,,,,,,,,0,,,72,0
52680,note_on,12,0,1,,,,,,,,0,,,79,60
52776,note_on,216,0,3,,,,,,,,2,,,60,0
52776,note_on,216,0,4,,,,,,,,3,,,55,0
52776,note_on,0,0,4,,,,,,,,3,,,52,0
52788,note_on,108,0,1,,,,,,,,0,,,79,0
52800,note_on,24,0,3,,,,,,,,2,,,60,76
52800,note_on,0,0,4,,,,,,,,3,,,53,76
52800,note_on,24,0,4,,,,,,,,3,,,50,76
52800,note_on,12,0,1,,,,,,,,0,,,81,61
52908,note_on,108,0,1,,,,,,,,0,,,81,0
52908,note_on,108,0,3,,,,,,,,2,,,60,0
52920,note_on,12,0,3,,,,,,,,2,,,62,77
52920,note_on,12,0,1,,,,,,,,0,,,86,63
53028,note_on,108,0,3,,,,,,,,2,,,62,0
53028,note_on,108,0,1,,,,,,,,0,,,86,0
53040,note_on,12,0,1,,,,,,,,0,,,84,65
53040,note_on,12,0,3,,,,,,,,2,,,60,79
53124,note_on,0,0,4,,,,,,,,3,,,50,0
53124,note_on,324,0,4,,,,,,,,3,,,53,0
53148,note_on,108,0,1,,,,,,,,0,,,84,0
53148,note_on,108,0,3,,,,,,,,2,,,60,0
53160,note_on,36,0,4,,,,,,,,3,,,51,81
53160,note_on,12,0,3,,,,,,,,2,,,58,81
53160,note_on,12,0,1,,,,,,,,0,,,88,67
53268,note_on,108,0,4,,,,,,,,3,,,51,0
53268,note_on,108,0,1,,,,,,,,0,,,88,0
53268,note_on,108,0,3,,,,,,,,2,,,58,0
53280,note_on,12,0,4,,,,,,,,3,,,57,82
53280,note_on,12,0,3,,,,,,,,2,,,60,82
53280,note_on,12,0,1,,,,,,,,0,,,89,69
53388,note_on,108,0,1,,,,,,,,0,,,89,0
53400,note_on,12,0,1,,,,,,,,0,,,93,71
53508,note_on,108,0,1,,,,,,,,0,,,93,0
53520,note_on,12,0,1,,,,,,,,0,,,96,85
53628,note_on,108,0,1,,,,,,,,0,,,96,0
53640,note_on,12,0,1,,,,,,,,0,,,89,78
53712,note_on,432,0,4,,,,,,,,3,,,57,0
53712,note_on,432,0,3,,,,,,,,2,,,60,0
53748,note_on,108,0,1,,,,,,,,0,,,89,0
53760,note_on,0,0,1,,,,,,,,0,,,101,64
53760,control_change,48,0,3,,,,,,,,2,64,127,,
53760,control_change,0,0,4,,,,,,,,3,64,127,,
53760,control_change,12,0,1,,,,,,,,0,64,127,,
53760,note_on,0,0,1,,,,,,,,0,,,99,64
53760,note_on,48,0,4,,,,,,,,3,,,45,64
53868,note_on,108,0,1,,,,,,,,0,,,99,0
53868,note_on,108,0,4,,,,,,,,3,,,45,0
53868,note_on,0,0,1,,,,,,,,0,,,101,0
53880,note_on,12,0,1,,,,,,,,0,,,98,64
53880,note_on,12,0,4,,,,,,,,3,,,53,64
53988,note_on,108,0,1,,,,,,,,0,,,98,0
53988,note_on,108,0,4,,,,,,,,3,,,53,0
54000,note_on,240,0,3,,,,,,,,2,,,63,64
54000,note_on,12,0,4,,,,,,,,3,,,60,64
54000,note_on,12,0,1,,,,,,,,0,,,96,64
54108,note_on,108,0,4,,,,,,,,3,,,60,0
54108,note_on,108,0,1,,,,,,,,0,,,96,0
54120,note_on,12,0,4,,,,,,,,3,,,53,64
54120,note_on,12,0,1,,,,,,,,0,,,89,57
54200,control_change,80,0,1,,,,,,,,0,64,127,,
54203,control_change,3,0,1,,,,,,,,0,64,0,,
54216,note_on,216,0,3,,,,,,,,2,,,63,0
54228,note_on,108,0,4,,,,,,,,3,,,53,0
54228,note_on,25,0,1,,,,,,,,0,,,89,0
54240,note_on,0,0,1,,,,,,,,0,,,86,57
54240,note_on,12,0,1,,,,,,,,0,,,89,57
54240,note_on,12,0,4,,,,,,,,3,,,46,64
54255,control_change,15,0,4,,,,,,,,3,64,0,,
54293,control_change,38,0,4,,,,,,,,3,64,127,,
54300,control_change,84,0,3,,,,,,,,2,64,127,,
54323,control_change,23,0,3,,,,,,,,2,64,0,,
54348,note_on,55,0,4,,,,,,,,3,,,46,0
54348,note_on,0,0,1,,,,,,,,0,,,89,0
54348,note_on,108,0,1,,,,,,,,0,,,86,0
54360,note_on,12,0,1,,,,,,,,0,,,84,57
54360,note_on,12,0,4,,,,,,,,3,,,53,64
54468,note_on,108,0,4,,,,,,,,3,,,53,0
54468,note_on,108,0,1,,,,,,,,0,,,84,0
54480,note_on,12,0,4,,,,,,,,3,,,58,64
54480,note_on,12,0,1,,,,,,,,0,,,82,57
54480,note_on,157,0,3,,,,,,,,2,,,62,64
54588,note_on,108,0,4,,,,,,,,3,,,58,0
54588,note_on,108,0,1,,,,,,,,0,,,82,0
54600,note_on,12,0,1,,,,,,,,0,,,77,57
54600,note_on,12,0,4,,,,,,,,3,,,53,64
54696,note_on,216,0,3,,,,,,,,2,,,62,0
54708,note_on,108,0,1,,,,,,,,0,,,77,0
54708,note_on,108,0,4,,,,,,,,3,,,53,0
54720,control_change,24,0,3,,,,,,,,2,64,0,,
54720,control_change,0,0,3,,,,,,,,2,64,127,,
54720,note_on,0,0,4,,,,,,,,3,,,41,64
54720,control_change,12,0,4,,,,,,,,3,64,0,,
54720,note_on,12,0,1,,,,,,,,0,,,75,57
54720,control_change,0,0,1,,,,,,,,0,64,0,,
54720,note_on,0,0,1,,,,,,,,0,,,77,57
54750,control_change,30,0,4,,,,,,,,3,64,127,,
54758,control_change,38,0,1,,,,,,,,0,64,127,,
54828,note_on,78,0,4,,,,,,,,3,,,41,0
54828,note_on,70,0,1,,,,,,,,0,,,77,0
54828,note_on,0,0,1,,,,,,,,0,,,75,0
54840,note_on,12,0,1,,,,,,,,0,,,74,72
54840,note_on,12,0,4,,,,,,,,3,,,51,80
54948,note_on,108,0,1,,,,,,,,0,,,74,0
54948,note_on,108,0,4,,,,,,,,3,,,51,0
54960,note_on,12,0,1,,,,,,,,0,,,72,68
54960,note_on,12,0,4,,,,,,,,3,,,57,76
54960,note_on,240,0,3,,,,,,,,2,,,60,76
55068,note_on,108,0,4,,,,,,,,3,,,57,0
55068,note_on,108,0,1,,,,,,,,0,,,72,0
55080,note_on,12,0,4,,,,,,,,3,,,51,71
55080,note_on,12,0,1,,,,,,,,0,,,65,63
55148,control_change,68,0,4,,,,,,,,3,64,0,,
55176,note_on,216,0,3,,,,,,,,2,,,60,0
55178,control_change,98,0,1,,,,,,,,0,64,0,,
55185,control_change,37,0,4,,,,,,,,3,64,127,,
55188,note_on,3,0,4,,,,,,,,3,,,51,0
55188,note_on,10,0,1,,,,,,,,0,,,65,0
55200,note_on,12,0,4,,,,,,,,3,,,46,67
55200,note_on,0,0,1,,,,,,,,0,,,77,60
55200,note_on,12,0,1,,,,,,,,0,,,70,60
55208,control_change,8,0,1,,,,,,,,0,64,127,,
55290,control_change,114,0,3,,,,,,,,2,64,127,,
55308,note_on,100,0,1,,,,,,,,0,,,77,0
55308,note_on,0,0,1,,,,,,,,0,,,70,0
55308,note_on,108,0,4,,,,,,,,3,,,46,0
55313,control_change,23,0,3,,,,,,,,2,64,0,,
55320,note_on,12,0,1,,,,,,,,0,,,74,57
55320,note_on,12,0,4,,,,,,,,3,,,50,64
55428,note_on,108,0,1,,,,,,,,0,,,74,0
55428,note_on,108,0,4,,,,,,,,3,,,50,0
55440,note_on,12,0,1,,,,,,,,0,,,65,53
55440,note_on,12,0,4,,,,,,,,3,,,53,59
55440,note_on,127,0,3,,,,,,,,2,,,58,59
55548,note_on,108,0,4,,,,,,,,3,,,53,0
55548,note_on,108,0,1,,,,,,,,0,,,65,0
55560,note_on,12,0,4,,,,,,,,3,,,50,55
55560,note_on,12,0,1,,,,,,,,0,,,89,49
55575,control_change,15,0,4,,,,,,,,3,64,0,,
55590,control_change,30,0,1,,,,,,,,0,64,0,,
55590,control_change,150,0,3,,,,,,,,2,64,0,,
55656,note_on,66,0,3,,,,,,,,2,,,58,0
55668,note_on,93,0,4,,,,,,,,3,,,50,0
55668,note_on,78,0,1,,,,,,,,0,,,89,0
55680,note_on,12,0,1,,,,,,,,0,,,101,64
55680,note_on,0,0,1,,,,,,,,0,,,99,64
55680,note_on,12,0,4,,,,,,,,3,,,45,64
55710,control_change,30,0,1,,,,,,,,0,64,127,,
55710,control_change,54,0,3,,,,,,,,2,64,127,,
55718,control_change,38,0,4,,,,,,,,3,64,127,,
55788,note_on,70,0,4,,,,,,,,3,,,45,0
55788,note_on,0,0,1,,,,,,,,0,,,101,0
55788,note_on,78,0,1,,,,,,,,0,,,99,0
55800,note_on,12,0,4,,,,,,,,3,,,53,64
55800,note_on,12,0,1,,,,,,,,0,,,98,64
55908,note_on,108,0,4,,,,,,,,3,,,53,0
55908,note_on,108,0,1,,,,,,,,0,,,98,0
55920,note_on,12,0,1,,,,,,,,0,,,96,64
55920,note_on,210,0,3,,,,,,,,2,,,63,64
55920,note_on,12,0,4,,,,,,,,3,,,60,64
56028,note_on,108,0,4,,,,,,,,3,,,60,0
56028,note_on,108,0,1,,,,,,,,0,,,96,0
56040,note_on,12,0,4,,,,,,,,3,,,53,64
56040,note_on,12,0,1,,,,,,,,0,,,89,64
56123,control_change,83,0,4,,,,,,,,3,64,0,,
56130,control_change,90,0,1,,,,,,,,0,64,0,,
56136,note_on,216,0,3,,,,,,,,2,,,63,0
56145,control_change,22,0,4,,,,,,,,3,64,127,,
56148,note_on,18,0,1,,,,,,,,0,,,89,0
56148,note_on,3,0,4,,,,,,,,3,,,53,0
56153,control_change,5,0,1,,,,,,,,0,64,127,,
56160,note_on,12,0,4,,,,,,,,3,,,46,64
56160,note_on,7,0,1,,,,,,,,0,,,89,64
56160,note_on,0,0,1,,,,,,,,0,,,86,64
56160,control_change,24,0,3,,,,,,,,2,64,0,,
56190,control_change,30,0,3,,,,,,,,2,64,127,,
56268,note_on,108,0,4,,,,,,,,3,,,46,0
56268,note_on,108,0,1,,,,,,,,0,,,86,0
56268,note_on,0,0,1,,,,,,,,0,,,89,0
56280,note_on,12,0,4,,,,,,,,3,,,53,64
56280,note_on,12,0,1,,,,,,,,0,,,84,64
56388,note_on,108,0,1,,,,,,,,0,,,84,0
56388,note_on,108,0,4,,,,,,,,3,,,53,0
56400,note_on,12,0,1,,,,,,,,0,,,82,64
56400,note_on,12,0,4,,,,,,,,3,,,58,64
56400,note_on,210,0,3,,,,,,,,2,,,62,64
56508,note_on,108,0,1,,,,,,,,0,,,82,0
56508,note_on,108,0,4,,,,,,,,3,,,58,0
56520,note_on,12,0,4,,,,,,,,3,,,53,64
56520,note_on,12,0,1,,,,,,,,0,,,77,64
56616,note_on,216,0,3,,,,,,,,2,,,62,0
56628,note_on,108,0,1,,,,,,,,0,,,77,0
56628,note_on,108,0,4,,,,,,,,3,,,53,0
56640,note_on,12,0,4,,,,,,,,3,,,41,64
56640,note_on,0,0,1,,,,,,,,0,,,75,64
56640,note_on,12,0,1,,,,,,,,0,,,77,64
56748,note_on,108,0,4,,,,,,,,3,,,41,0
56748,note_on,0,0,1,,,,,,,,0,,,77,0
56748,note_on,108,0,1,,,,,,,,0,,,75,0
56760,note_on,12,0,4,,,,,,,,3,,,48,64
56760,note_on,12,0,1,,,,,,,,0,,,74,64
56868,note_on,108,0,4,,,,,,,,3,,,48,0
56868,note_on,108,0,1,,,,,,,,0,,,74,0
56880,note_on,12,0,4,,,,,,,,3,,,57,64
56880,note_on,264,0,3,,,,,,,,2,,,60,64
56880,note_on,12,0,1,,,,,,,,0,,,72,64
56988,note_on,108,0,1,,,,,,,,0,,,72,0
56988,note_on,108,0,4,,,,,,,,3,,,57,0
57000,note_on,12,0,4,,,,,,,,3,,,48,64
57000,note_on,12,0,1,,,,,,,,0,,,65,64
57096,note_on,216,0,3,,,,,,,,2,,,60,0
57105,control_change,105,0,4,,,,,,,,3,64,0,,
57108,note_on,108,0,1,,,,,,,,0,,,65,0
57108,note_on,3,0,4,,,,,,,,3,,,48,0
57113,control_change,5,0,1,,,,,,,,0,64,0,,
57120,note_on,12,0,4,,,,,,,,3,,,46,64
57120,note_on,7,0,1,,,,,,,,0,,,65,64
57143,control_change,23,0,1,,,,,,,,0,64,127,,
57150,control_change,30,0,4,,,,,,,,3,64,127,,
57150,control_change,54,0,3,,,,,,,,2,64,0,,
57188,control_change,38,0,3,,,,,,,,2,64,127,,
57228,note_on,85,0,1,,,,,,,,0,,,65,0
57228,note_on,78,0,4,,,,,,,,3,,,46,0
57240,note_on,12,0,1,,,,,,,,0,,,70,64
57240,note_on,12,0,4,,,,,,,,3,,,50,64
57348,note_on,108,0,4,,,,,,,,3,,,50,0
57348,note_on,108,0,1,,,,,,,,0,,,70,0
57360,note_on,12,0,1,,,,,,,,0,,,77,64
57360,note_on,12,0,4,,,,,,,,3,,,53,64
57360,note_on,172,0,3,,,,,,,,2,,,58,64
57468,note_on,108,0,4,,,,,,,,3,,,53,0
57468,note_on,108,0,1,,,,,,,,0,,,77,0
57480,note_on,12,0,4,,,,,,,,3,,,50,64
57480,note_on,12,0,1,,,,,,,,0,,,82,64
57576,note_on,216,0,3,,,,,,,,2,,,58,0
57578,control_change,98,0,1,,,,,,,,0,64,0,,
57588,note_on,108,0,4,,,,,,,,3,,,50,0
57588,note_on,10,0,1,,,,,,,,0,,,82,0
57600,note_on,0,0,1,,,,,,,,0,,,101,64
57600,control_change,24,0,3,,,,,,,,2,64,0,,
57600,control_change,12,0,4,,,,,,,,3,64,0,,
57600,control_change,0,0,3,,,,,,,,2,64,127,,
57600,note_on,0,0,4,,,,,,,,3,,,45,64
57600,note_on,12,0,1,,,,,,,,0,,,99,64
57623,control_change,23,0,1,,,,,,,,0,64,127,,
57638,control_change,38,0,4,,,,,,,,3,64,127,,
57708,note_on,70,0,4,,,,,,,,3,,,45,0
57708,note_on,85,0,1,,,,,,,,0,,,101,0
57708,note_on,0,0,1,,,,,,,,0,,,99,0
57720,note_on,12,0,1,,,,,,,,0,,,98,64
57720,note_on,12,0,4,,,,,,,,3,,,53,64
57828,note_on,108,0,4,,,,,,,,3,,,53,0
57828,note_on,108,0,1,,,,,,,,0,,,98,0
57840,note_on,12,0,4,,,,,,,,3,,,60,64
57840,note_on,240,0,3,,,,,,,,2,,,63,64
57840,note_on,12,0,1,,,,,,,,0,,,96,64
57948,note_on,108,0,4,,,,,,,,3,,,60,0
57948,note_on,108,0,1,,,,,,,,0,,,96,0
57960,note_on,12,0,1,,,,,,,,0,,,89,64
57960,note_on,12,0,4,,,,,,,,3,,,53,64
58043,control_change,83,0,1,,,,,,,,0,64,0,,
58050,control_change,90,0,4,,,,,,,,3,64,0,,
58056,note_on,216,0,3,,,,,,,,2,,,63,0
58068,note_on,25,0,1,,,,,,,,0,,,89,0
58068,note_on,18,0,4,,,,,,,,3,,,53,0
58080,note_on,12,0,4,,,,,,,,3,,,46,64
58080,note_on,0,0,1,,,,,,,,0,,,89,64
58080,note_on,0,0,1,,,,,,,,0,,,86,64
58080,control_change,12,0,1,,,,,,,,0,64,127,,
58095,control_change,39,0,3,,,,,,,,2,64,0,,
58103,control_change,23,0,4,,,,,,,,3,64,127,,
58155,control_change,60,0,3,,,,,,,,2,64,127,,
58188,note_on,85,0,4,,,,,,,,3,,,46,0
58188,note_on,0,0,1,,,,,,,,0,,,89,0
58188,note_on,108,0,1,,,,,,,,0,,,86,0
58200,note_on,12,0,1,,,,,,,,0,,,84,64
58200,note_on,12,0,4,,,,,,,,3,,,53,64
58308,note_on,108,0,1,,,,,,,,0,,,84,0
58308,note_on,108,0,4,,,,,,,,3,,,53,0
58320,note_on,12,0,1,,,,,,,,0,,,82,64
58320,note_on,165,0,3,,,,,,,,2,,,62,64
58320,note_on,12,0,4,,,,,,,,3,,,58,64
58428,note_on,108,0,1,,,,,,,,0,,,82,0
58428,note_on,108,0,4,,,,,,,,3,,,58,0
58440,note_on,12,0,1,,,,,,,,0,,,77,64
58440,note_on,12,0,4,,,,,,,,3,,,53,64
58536,note_on,216,0,3,,,,,,,,2,,,62,0
58548,note_on,108,0,1,,,,,,,,0,,,77,0
58548,note_on,108,0,4,,,,,,,,3,,,53,0
58560,control_change,24,0,3,,,,,,,,2,64,0,,
58560,control_change,0,0,1,,,,,,,,0,64,0,,
58560,note_on,0,0,4,,,,,,,,3,,,41,83
58560,note_on,12,0,1,,,,,,,,0,,,75,83
58560,control_change,12,0,4,,,,,,,,3,64,0,,
58560,note_on,0,0,1,,,,,,,,0,,,77,83
58590,control_change,30,0,4,,,,,,,,3,64,127,,
58605,control_change,45,0,1,,,,,,,,0,64,127,,
58605,control_change,45,0,3,,,,,,,,2,64,127,,
58668,note_on,0,0,1,,,,,,,,0,,,75,0
58668,note_on,78,0,4,,,,,,,,3,,,41,0
58668,note_on,63,0,1,,,,,,,,0,,,77,0
58680,note_on,12,0,1,,,,,,,,0,,,74,79
58680,note_on,12,0,4,,,,,,,,3,,,48,79
58788,note_on,108,0,1,,,,,,,,0,,,74,0
58788,note_on,108,0,4,,,,,,,,3,,,48,0
58800,note_on,12,0,4,,,,,,,,3,,,57,75
58800,note_on,195,0,3,,,,,,,,2,,,60,75
58800,note_on,12,0,1,,,,,,,,0,,,72,75
58908,note_on,108,0,4,,,,,,,,3,,,57,0
58908,note_on,108,0,1,,,,,,,,0,,,72,0
58920,note_on,12,0,4,,,,,,,,3,,,51,71
58920,note_on,12,0,1,,,,,,,,0,,,65,71
59003,control_change,83,0,1,,,,,,,,0,64,0,,
59016,note_on,216,0,3,,,,,,,,2,,,60,0
59028,note_on,25,0,1,,,,,,,,0,,,65,0
59028,note_on,108,0,4,,,,,,,,3,,,51,0
59040,control_change,12,0,4,,,,,,,,3,64,0,,
59040,note_on,0,0,1,,,,,,,,0,,,77,67
59040,note_on,0,0,4,,,,,,,,3,,,46,67
59040,note_on,12,0,1,,,,,,,,0,,,70,67
59055,control_change,15,0,1,,,,,,,,0,64,127,,
59070,control_change,54,0,3,,,,,,,,2,64,0,,
59070,control_change,30,0,4,,,,,,,,3,64,127,,
59100,control_change,30,0,3,,,,,,,,2,64,127,,
59148,note_on,93,0,1,,,,,,,,0,,,77,0
59148,note_on,0,0,1,,,,,,,,0,,,70,0
59148,note_on,78,0,4,,,,,,,,3,,,46,0
59160,note_on,12,0,1,,,,,,,,0,,,74,62
59160,note_on,12,0,4,,,,,,,,3,,,50,62
59268,note_on,108,0,4,,,,,,,,3,,,50,0
59268,note_on,108,0,1,,,,,,,,0,,,74,0
59280,note_on,180,0,3,,,,,,,,2,,,58,58
59280,note_on,12,0,4,,,,,,,,3,,,53,58
59280,note_on,12,0,1,,,,,,,,0,,,65,58
59388,note_on,108,0,4,,,,,,,,3,,,53,0
59388,note_on,108,0,1,,,,,,,,0,,,65,0
59400,note_on,12,0,4,,,,,,,,3,,,50,54
59400,note_on,12,0,1,,,,,,,,0,,,89,54
59475,control_change,195,0,3,,,,,,,,2,64,0,,
59496,note_on,21,0,3,,,,,,,,2,,,58,0
59508,note_on,108,0,4,,,,,,,,3,,,50,0
59508,note_on,108,0,1,,,,,,,,0,,,89,0
59520,note_on,12,0,1,,,,,,,,0,,,99,64
59520,note_on,0,0,4,,,,,,,,3,,,45,64
59520,control_change,0,0,1,,,,,,,,0,64,0,,
59520,note_on,0,0,1,,,,,,,,0,,,101,64
59520,control_change,12,0,4,,,,,,,,3,64,0,,
59543,control_change,23,0,4,,,,,,,,3,64,127,,
59550,control_change,54,0,3,,,,,,,,2,64,127,,
59558,control_change,38,0,1,,,,,,,,0,64,127,,
59628,note_on,85,0,4,,,,,,,,3,,,45,0
59628,note_on,70,0,1,,,,,,,,0,,,101,0
59628,note_on,0,0,1,,,,,,,,0,,,99,0
59640,note_on,12,0,4,,,,,,,,3,,,53,64
59640,note_on,12,0,1,,,,,,,,0,,,98,64
59748,note_on,108,0,4,,,,,,,,3,,,53,0
59748,note_on,108,0,1,,,,,,,,0,,,98,0
59760,note_on,12,0,1,,,,,,,,0,,,96,64
59760,note_on,210,0,3,,,,,,,,2,,,63,64
59760,note_on,12,0,4,,,,,,,,3,,,60,64
59868,note_on,108,0,4,,,,,,,,3,,,60,0
59868,note_on,108,0,1,,,,,,,,0,,,96,0
59880,note_on,12,0,1,,,,,,,,0,,,89,64
59880,note_on,12,0,4,,,,,,,,3,,,53,64
59976,note_on,216,0,3,,,,,,,,2,,,63,0
59978,control_change,98,0,1,,,,,,,,0,64,0,,
59978,control_change,98,0,4,,,,,,,,3,64,0,,
59985,set_tempo,10070,1,0,,,,,,528355,,,,,,
59988,note_on,10,0,1,,,,,,,,0,,,89,0
59988,note_on,10,0,4,,,,,,,,3,,,53,0
60000,note_on,12,0,1,,,,,,,,0,,,86,64
60000,note_on,12,0,4,,,,,,,,3,,,46,64
60000,note_on,0,0,1,,,,,,,,0,,,89,64
60008,control_change,8,0,4,,,,,,,,3,64,127,,
60015,control_change,15,0,1,,,,,,,,0,64,127,,
60045,control_change,69,0,3,,,,,,,,2,64,0,,
60075,control_change,30,0,3,,,,,,,,2,64,127,,
60108,note_on,93,0,1,,,,,,,,0,,,89,0
60108,note_on,100,0,4,,,,,,,,3,,,46,0
60108,note_on,0,0,1,,,,,,,,0,,,86,0
60120,note_on,12,0,4,,,,,,,,3,,,53,64
60120,note_on,12,0,1,,,,,,,,0,,,84,64
60228,note_on,108,0,1,,,,,,,,0,,,84,0
60228,note_on,108,0,4,,,,,,,,3,,,53,0
60240,note_on,165,0,3,,,,,,,,2,,,62,64
60240,note_on,12,0,4,,,,,,,,3,,,58,64
60240,note_on,12,0,1,,,,,,,,0,,,82,64
60348,note_on,108,0,4,,,,,,,,3,,,58,0
60348,note_on,108,0,1,,,,,,,,0,,,82,0
60355,set_tempo,370,1,0,,,,,,539763,,,,,,
60360,note_on,12,0,1,,,,,,,,0,,,77,64
60360,note_on,12,0,4,,,,,,,,3,,,53,64
60456,note_on,216,0,3,,,,,,,,2,,,62,0
60465,set_tempo,110,1,0,,,,,,556586,,,,,,
60468,note_on,108,0,4,,,,,,,,3,,,53,0
60468,note_on,108,0,1,,,,,,,,0,,,77,0
60480,note_on,0,0,1,,,,,,,,0,,,77,64
60480,control_change,24,0,3,,,,,,,,2,64,0,,
60480,note_on,12,0,1,,,,,,,,0,,,75,64
60480,note_on,12,0,4,,,,,,,,3,,,41,64
60548,control_change,68,0,3,,,,,,,,2,64,127,,
60588,note_on,0,0,1,,,,,,,,0,,,75,0
60588,note_on,108,0,4,,,,,,,,3,,,41,0
60588,note_on,108,0,1,,,,,,,,0,,,77,0
60600,note_on,12,0,4,,,,,,,,3,,,48,64
60600,note_on,12,0,1,,,,,,,,0,,,74,64
60708,note_on,108,0,4,,,,,,,,3,,,48,0
60708,note_on,108,0,1,,,,,,,,0,,,74,0
60720,note_on,172,0,3,,,,,,,,2,,,60,64
60720,note_on,12,0,1,,,,,,,,0,,,72,64
60720,note_on,12,0,4,,,,,,,,3,,,57,64
60828,note_on,108,0,4,,,,,,,,3,,,57,0
60828,note_on,108,0,1,,,,,,,,0,,,72,0
60840,note_on,12,0,4,,,,,,,,3,,,51,64
60840,note_on,12,0,1,,,,,,,,0,,,65,64
60936,note_on,216,0,3,,,,,,,,2,,,60,0
60948,note_on,108,0,4,,,,,,,,3,,,51,0
60948,note_on,108,0,1,,,,,,,,0,,,65,0
60953,control_change,17,0,3,,,,,,,,2,64,0,,
60960,note_on,12,0,1,,,,,,,,0,,,65,64
60960,note_on,12,0,4,,,,,,,,3,,,46,64
60968,control_change,8,0,4,,,,,,,,3,64,0,,
60975,control_change,15,0,1,,,,,,,,0,64,0,,
61005,control_change,52,0,3,,,,,,,,2,64,127,,
61020,control_change,52,0,4,,,,,,,,3,64,127,,
61028,control_change,53,0,1,,,,,,,,0,64,127,,
61068,note_on,48,0,4,,,,,,,,3,,,46,0
61068,note_on,40,0,1,,,,,,,,0,,,65,0
61080,note_on,12,0,1,,,,,,,,0,,,70,64
61080,note_on,12,0,4,,,,,,,,3,,,50,64
61188,note_on,108,0,4,,,,,,,,3,,,50,0
61188,note_on,108,0,1,,,,,,,,0,,,70,0
61200,note_on,12,0,1,,,,,,,,0,,,77,64
61200,note_on,12,0,4,,,,,,,,3,,,53,64
61200,note_on,195,0,3,,,,,,,,2,,,58,64
61308,note_on,108,0,4,,,,,,,,3,,,53,0
61308,note_on,108,0,1,,,,,,,,0,,,77,0
61320,note_on,12,0,4,,,,,,,,3,,,50,64
61320,note_on,12,0,1,,,,,,,,0,,,82,64
61388,control_change,68,0,4,,,,,,,,3,64,0,,
61410,control_change,210,0,3,,,,,,,,2,64,0,,
61416,end_of_track,0,1,3,,,,,,,,,,,,
61416,note_on,6,0,3,,,,,,,,2,,,58,0
61428,note_on,40,0,4,,,,,,,,3,,,50,0
61428,note_on,108,0,1,,,,,,,,0,,,82,0
61440,note_on,0,0,1,,,,,,,,0,,,65,64
61440,note_on,12,0,4,,,,,,,,3,,,58,64
61440,control_change,12,0,1,,,,,,,,0,64,0,,
61476,control_change,36,0,1,,,,,,,,0,64,127,,
61488,control_change,48,0,4,,,,,,,,3,64,127,,
61548,note_on,60,0,4,,,,,,,,3,,,58,0
61548,note_on,72,0,1,,,,,,,,0,,,65,0
61560,note_on,12,0,1,,,,,,,,0,,,70,64
61560,note_on,12,0,4,,,,,,,,3,,,65,64
61668,note_on,108,0,4,,,,,,,,3,,,65,0
61668,note_on,108,0,1,,,,,,,,0,,,70,0
61680,note_on,12,0,1,,,,,,,,0,,,77,64
61680,note_on,12,0,4,,,,,,,,3,,,74,64
61680,note_on,0,0,4,,,,,,,,3,,,70,64
61788,note_on,108,0,1,,,,,,,,0,,,77,0
61788,note_on,0,0,4,,,,,,,,3,,,74,0
61788,note_on,108,0,4,,,,,,,,3,,,70,0
61800,note_on,12,0,1,,,,,,,,0,,,82,64
61800,note_on,12,0,4,,,,,,,,3,,,65,64
61908,note_on,108,0,4,,,,,,,,3,,,65,0
61908,note_on,108,0,1,,,,,,,,0,,,82,0
61920,note_on,12,0,1,,,,,,,,0,,,65,64
61920,note_on,12,0,4,,,,,,,,3,,,58,64
62028,note_on,108,0,4,,,,,,,,3,,,58,0
62028,note_on,108,0,1,,,,,,,,0,,,65,0
62040,note_on,12,0,4,,,,,,,,3,,,65,64
62040,note_on,12,0,1,,,,,,,,0,,,74,64
62148,note_on,108,0,4,,,,,,,,3,,,65,0
62148,note_on,108,0,1,,,,,,,,0,,,74,0
62160,note_on,12,0,4,,,,,,,,3,,,74,64
62160,note_on,0,0,4,,,,,,,,3,,,70,64
62160,note_on,12,0,1,,,,,,,,0,,,77,64
62268,note_on,108,0,4,,,,,,,,3,,,70,0
62268,note_on,0,0,4,,,,,,,,3,,,74,0
62268,note_on,108,0,1,,,,,,,,0,,,77,0
62280,note_on,12,0,1,,,,,,,,0,,,86,63
62280,note_on,12,0,4,,,,,,,,3,,,65,64
62334,note_on,54,0,1,,,,,,,,0,,,86,0
62340,note_on,6,0,1,,,,,,,,0,,,79,60
62388,note_on,108,0,4,,,,,,,,3,,,65,0
62394,note_on,54,0,1,,,,,,,,0,,,79,0
62395,set_tempo,1930,1,0,,,,,,542103,,,,,,
62400,note_on,0,0,2,,,,,,,,1,,,69,57
62400,note_on,6,0,1,,,,,,,,0,,,77,58
62400,note_on,12,0,4,,,,,,,,3,,,58,57
62400,control_change,15840,0,2,,,,,,,,1,64,127,,
62436,control_change,36,0,1,,,,,,,,0,64,0,,
62436,control_change,36,0,4,,,,,,,,3,64,127,,
62448,control_change,12,0,4,,,,,,,,3,64,0,,
62472,control_change,36,0,1,,,,,,,,0,64,127,,
62508,note_on,60,0,4,,,,,,,,3,,,58,0
62508,note_on,108,0,2,,,,,,,,1,,,69,0
62520,note_on,12,0,4,,,,,,,,3,,,65,57
62520,note_on,12,0,2,,,,,,,,1,,,72,57
62628,note_on,108,0,4,,,,,,,,3,,,65,0
62628,note_on,108,0,2,,,,,,,,1,,,72,0
62640,note_on,0,0,4,,,,,,,,3,,,69,57
62640,note_on,12,0,4,,,,,,,,3,,,75,57
62640,note_on,12,0,2,,,,,,,,1,,,65,57
62724,note_on,252,0,1,,,,,,,,0,,,77,0
62748,note_on,108,0,4,,,,,,,,3,,,69,0
62748,note_on,0,0,4,,,,,,,,3,,,75,0
62748,note_on,108,0,2,,,,,,,,1,,,65,0
62760,note_on,12,0,4,,,,,,,,3,,,65,57
62760,note_on,36,0,1,,,,,,,,0,,,77,62
62760,note_on,12,0,2,,,,,,,,1,,,72,57
62814,note_on,54,0,1,,,,,,,,0,,,77,0
62820,note_on,6,0,1,,,,,,,,0,,,79,59
62832,control_change,12,0,1,,,,,,,,0,64,0,,
62844,control_change,84,0,4,,,,,,,,3,64,0,,
62868,note_on,108,0,2,,,,,,,,1,,,72,0
62868,note_on,24,0,4,,,,,,,,3,,,65,0
62874,note_on,42,0,1,,,,,,,,0,,,79,0
62880,note_on,12,0,2,,,,,,,,1,,,70,57
62880,note_on,12,0,4,,,,,,,,3,,,58,57
62880,control_change,0,0,1,,,,,,,,0,64,127,,
62880,note_on,6,0,1,,,,,,,,0,,,77,56
62892,control_change,12,0,2,,,,,,,,1,64,0,,
62904,control_change,24,0,4,,,,,,,,3,64,127,,
62952,control_change,60,0,2,,,,,,,,1,64,127,,
62988,note_on,84,0,4,,,,,,,,3,,,58,0
62988,note_on,36,0,2,,,,,,,,1,,,70,0
63000,note_on,12,0,4,,,,,,,,3,,,65,57
63000,note_on,12,0,2,,,,,,,,1,,,74,57
63108,note_on,108,0,2,,,,,,,,1,,,74,0
63108,note_on,108,0,4,,,,,,,,3,,,65,0
63120,note_on,12,0,4,,,,,,,,3,,,74,57
63120,note_on,12,0,2,,,,,,,,1,,,65,57
63120,note_on,0,0,4,,,,,,,,3,,,70,57
63228,note_on,0,0,4,,,,,,,,3,,,74,0
63228,note_on,108,0,2,,,,,,,,1,,,65,0
63228,note_on,108,0,4,,,,,,,,3,,,70,0
63240,note_on,12,0,4,,,,,,,,3,,,65,57
63240,note_on,12,0,2,,,,,,,,1,,,74,57
63275,set_tempo,880,1,0,,,,,,530598,,,,,,
63312,note_on,432,0,1,,,,,,,,0,,,77,0
63324,control_change,12,0,1,,,,,,,,0,64,0,,
63348,note_on,108,0,2,,,,,,,,1,,,74,0
63348,note_on,108,0,4,,,,,,,,3,,,65,0
63360,control_change,12,0,4,,,,,,,,3,64,0,,
63360,note_on,0,0,4,,,,,,,,3,,,58,57
63360,control_change,12,0,2,,,,,,,,1,64,0,,
63360,note_on,36,0,1,,,,,,,,0,,,65,64
63408,control_change,48,0,4,,,,,,,,3,64,127,,
63420,control_change,60,0,1,,,,,,,,0,64,127,,
63468,note_on,60,0,4,,,,,,,,3,,,58,0
63468,note_on,48,0,1,,,,,,,,0,,,65,0
63480,note_on,12,0,1,,,,,,,,0,,,70,64
63480,note_on,12,0,4,,,,,,,,3,,,65,57
63588,note_on,108,0,1,,,,,,,,0,,,70,0
63588,note_on,108,0,4,,,,,,,,3,,,65,0
63600,note_on,12,0,4,,,,,,,,3,,,74,57
63600,note_on,12,0,1,,,,,,,,0,,,77,64
63600,note_on,0,0,4,,,,,,,,3,,,70,57
63708,note_on,108,0,4,,,,,,,,3,,,70,0
63708,note_on,0,0,4,,,,,,,,3,,,74,0
63708,note_on,108,0,1,,,,,,,,0,,,77,0
63720,note_on,12,0,4,,,,,,,,3,,,65,57
63720,note_on,12,0,1,,,,,,,,0,,,82,64
63828,note_on,108,0,1,,,,,,,,0,,,82,0
63828,note_on,108,0,4,,,,,,,,3,,,65,0
63840,note_on,12,0,4,,,,,,,,3,,,58,57
63840,note_on,12,0,1,,,,,,,,0,,,65,64
63948,note_on,108,0,4,,,,,,,,3,,,58,0
63948,note_on,108,0,1,,,,,,,,0,,,65,0
63960,note_on,12,0,1,,,,,,,,0,,,74,64
63960,note_on,12,0,4,,,,,,,,3,,,65,57
64068,note_on,108,0,4,,,,,,,,3,,,65,0
64068,note_on,108,0,1,,,,,,,,0,,,74,0
64080,note_on,12,0,1,,,,,,,,0,,,77,64
64080,note_on,0,0,4,,,,,,,,3,,,70,57
64080,note_on,12,0,4,,,,,,,,3,,,74,57
64188,note_on,0,0,4,,,,,,,,3,,,74,0
64188,note_on,108,0,1,,,,,,,,0,,,77,0
64188,note_on,108,0,4,,,,,,,,3,,,70,0
64200,note_on,12,0,1,,,,,,,,0,,,86,62
64200,note_on,12,0,4,,,,,,,,3,,,65,57
64236,control_change,36,0,1,,,,,,,,0,64,0,,
64254,note_on,18,0,1,,,,,,,,0,,,86,0
64260,note_on,6,0,1,,,,,,,,0,,,79,58
64272,control_change,72,0,4,,,,,,,,3,64,0,,
64308,note_on,36,0,4,,,,,,,,3,,,65,0
64314,note_on,54,0,1,,,,,,,,0,,,79,0
64320,note_on,960,0,2,,,,,,,,1,,,69,57
64320,control_change,6,0,1,,,,,,,,0,64,127,,
64320,note_on,0,0,1,,,,,,,,0,,,77,54
64320,note_on,12,0,4,,,,,,,,3,,,58,57
64332,control_change,12,0,2,,,,,,,,1,64,127,,
64368,control_change,48,0,4,,,,,,,,3,64,127,,
64428,note_on,96,0,2,,,,,,,,1,,,69,0
64428,note_on,60,0,4,,,,,,,,3,,,58,0
64440,note_on,12,0,4,,,,,,,,3,,,65,57
64440,note_on,12,0,2,,,,,,,,1,,,72,57
64548,note_on,108,0,4,,,,,,,,3,,,65,0
64548,note_on,108,0,2,,,,,,,,1,,,72,0
64560,note_on,12,0,4,,,,,,,,3,,,75,57
64560,note_on,0,0,4,,,,,,,,3,,,69,57
64560,note_on,12,0,2,,,,,,,,1,,,65,57
64644,note_on,324,0,1,,,,,,,,0,,,77,0
64668,note_on,0,0,4,,,,,,,,3,,,75,0
64668,note_on,108,0,2,,,,,,,,1,,,65,0
64668,note_on,108,0,4,,,,,,,,3,,,69,0
64680,note_on,12,0,2,,,,,,,,1,,,72,57
64680,note_on,36,0,1,,,,,,,,0,,,77,62
64680,note_on,12,0,4,,,,,,,,3,,,65,57
64705,end_of_track,0,1,0,,,,,,,,,,,,
64705,set_tempo,1430,1,0,,,,,,517420,,,,,,
64716,control_change,36,0,1,,,,,,,,0,64,0,,
64734,note_on,18,0,1,,,,,,,,0,,,77,0
64740,note_on,6,0,1,,,,,,,,0,,,79,58
64776,control_change,96,0,2,,,,,,,,1,64,0,,
64776,control_change,96,0,4,,,,,,,,3,64,0,,
64788,note_on,12,0,4,,,,,,,,3,,,65,0
64788,note_on,12,0,2,,,,,,,,1,,,72,0
64794,note_on,54,0,1,,,,,,,,0,,,79,0
64800,note_on,12,0,2,,,,,,,,1,,,70,57
64800,note_on,6,0,1,,,,,,,,0,,,77,54
64800,note_on,12,0,4,,,,,,,,3,,,58,57
64824,control_change,24,0,2,,,,,,,,1,64,127,,
64836,control_change,36,0,1,,,,,,,,0,64,127,,
64848,control_change,48,0,4,,,,,,,,3,64,127,,
64908,note_on,60,0,4,,,,,,,,3,,,58,0
64908,note_on,84,0,2,,,,,,,,1,,,70,0
64920,note_on,12,0,4,,,,,,,,3,,,65,57
64920,note_on,12,0,2,,,,,,,,1,,,74,57
65028,note_on,108,0,2,,,,,,,,1,,,74,0
65028,note_on,108,0,4,,,,,,,,3,,,65,0
65040,note_on,12,0,4,,,,,,,,3,,,74,57
65040,note_on,0,0,4,,,,,,,,3,,,70,57
65040,note_on,12,0,2,,,,,,,,1,,,65,57
65148,note_on,108,0,4,,,,,,,,3,,,70,0
65148,note_on,108,0,2,,,,,,,,1,,,65,0
65148,note_on,0,0,4,,,,,,,,3,,,74,0
65160,note_on,12,0,4,,,,,,,,3,,,65,57
65160,note_on,12,0,2,,,,,,,,1,,,74,57
65196,control_change,360,0,1,,,,,,,,0,64,0,,
65232,note_on,36,0,1,,,,,,,,0,,,77,0
65244,control_change,84,0,4,,,,,,,,3,64,0,,
65244,control_change,84,0,2,,,,,,,,1,64,0,,
65268,note_on,24,0,2,,,,,,,,1,,,74,0
65268,note_on,24,0,4,,,,,,,,3,,,65,0
65280,control_change,48,0,1,,,,,,,,0,64,127,,
65280,note_on,0,0,1,,,,,,,,0,,,65,64
65280,note_on,12,0,4,,,,,,,,3,,,58,64
65352,control_change,72,0,4,,,,,,,,3,64,127,,
65388,note_on,36,0,4,,,,,,,,3,,,58,0
65388,note_on,108,0,1,,,,,,,,0,,,65,0
65400,note_on,12,0,1,,,,,,,,0,,,70,64
65400,note_on,12,0,4,,,,,,,,3,,,65,64
65508,note_on,108,0,1,,,,,,,,0,,,70,0
65508,note_on,108,0,4,,,,,,,,3,,,65,0
65520,note_on,12,0,4,,,,,,,,3,,,74,63
65520,note_on,0,0,4,,,,,,,,3,,,70,63
65520,note_on,12,0,1,,,,,,,,0,,,77,63
65628,note_on,0,0,4,,,,,,,,3,,,74,0
65628,note_on,108,0,1,,,,,,,,0,,,77,0
65628,note_on,108,0,4,,,,,,,,3,,,70,0
65640,note_on,12,0,1,,,,,,,,0,,,82,63
65640,note_on,12,0,4,,,,,,,,3,,,65,63
65748,note_on,108,0,4,,,,,,,,3,,,65,0
65748,note_on,108,0,1,,,,,,,,0,,,82,0
65760,note_on,12,0,4,,,,,,,,3,,,58,62
65760,note_on,12,0,1,,,,,,,,0,,,65,62
65868,note_on,108,0,1,,,,,,,,0,,,65,0
65868,note_on,108,0,4,,,,,,,,3,,,58,0
65880,note_on,12,0,1,,,,,,,,0,,,74,62
65880,note_on,12,0,4,,,,,,,,3,,,65,62
65988,note_on,108,0,4,,,,,,,,3,,,65,0
65988,note_on,108,0,1,,,,,,,,0,,,74,0
66000,note_on,12,0,4,,,,,,,,3,,,74,62
66000,note_on,0,0,4,,,,,,,,3,,,70,62
66000,note_on,12,0,1,,,,,,,,0,,,77,62
66108,note_on,108,0,1,,,,,,,,0,,,77,0
66108,note_on,0,0,4,,,,,,,,3,,,74,0
66108,note_on,108,0,4,,,,,,,,3,,,70,0
66120,note_on,12,0,4,,,,,,,,3,,,65,61
66120,note_on,12,0,1,,,,,,,,0,,,86,67
66174,note_on,54,0,1,,,,,,,,0,,,86,0
66180,note_on,6,0,1,,,,,,,,0,,,79,62
66228,note_on,108,0,4,,,,,,,,3,,,65,0
66234,note_on,54,0,1,,,,,,,,0,,,79,0
66240,note_on,972,0,2,,,,,,,,1,,,69,61
66240,note_on,12,0,4,,,,,,,,3,,,58,61
66240,control_change,6,0,1,,,,,,,,0,64,0,,
66240,note_on,0,0,1,,,,,,,,0,,,77,58
66252,control_change,12,0,2,,,,,,,,1,64,127,,
66312,control_change,72,0,4,,,,,,,,3,64,0,,
66312,control_change,72,0,1,,,,,,,,0,64,127,,
66348,note_on,36,0,4,,,,,,,,3,,,58,0
66348,note_on,96,0,2,,,,,,,,1,,,69,0
66360,note_on,12,0,2,,,,,,,,1,,,72,60
66360,note_on,0,0,4,,,,,,,,3,,,65,60
66360,control_change,12,0,4,,,,,,,,3,64,127,,
66468,note_on,108,0,2,,,,,,,,1,,,72,0
66468,note_on,108,0,4,,,,,,,,3,,,65,0
66480,note_on,12,0,4,,,,,,,,3,,,75,60
66480,note_on,12,0,2,,,,,,,,1,,,65,60
66480,note_on,0,0,4,,,,,,,,3,,,69,60
66564,note_on,252,0,1,,,,,,,,0,,,77,0
66588,note_on,0,0,4,,,,,,,,3,,,75,0
66588,note_on,108,0,4,,,,,,,,3,,,69,0
66588,control_change,24,0,1,,,,,,,,0,64,0,,
66588,note_on,108,0,2,,,,,,,,1,,,65,0
66600,note_on,12,0,4,,,,,,,,3,,,65,60
66600,note_on,12,0,1,,,,,,,,0,,,77,60
66600,note_on,12,0,2,,,,,,,,1,,,72,60
66654,note_on,54,0,1,,,,,,,,0,,,77,0
66660,note_on,6,0,1,,,,,,,,0,,,79,59
66684,control_change,84,0,2,,,,,,,,1,64,0,,
66696,control_change,96,0,4,,,,,,,,3,64,0,,
66708,control_change,48,0,1,,,,,,,,0,64,127,,
66708,note_on,24,0,2,,,,,,,,1,,,72,0
66708,note_on,12,0,4,,,,,,,,3,,,65,0
66714,note_on,6,0,1,,,,,,,,0,,,79,0
66720,note_on,6,0,1,,,,,,,,0,,,77,55
66720,note_on,12,0,4,,,,,,,,3,,,58,59
66720,note_on,12,0,2,,,,,,,,1,,,70,59
66732,control_change,12,0,2,,,,,,,,1,64,127,,
66756,control_change,36,0,4,,,,,,,,3,64,127,,
66828,note_on,72,0,4,,,,,,,,3,,,58,0
66828,note_on,96,0,2,,,,,,,,1,,,70,0
66840,note_on,12,0,4,,,,,,,,3,,,65,59
66840,note_on,12,0,2,,,,,,,,1,,,74,59
66948,note_on,108,0,4,,,,,,,,3,,,65,0
66948,note_on,108,0,2,,,,,,,,1,,,74,0
66960,note_on,12,0,4,,,,,,,,3,,,74,58
66960,note_on,0,0,4,,,,,,,,3,,,70,58
66960,note_on,12,0,2,,,,,,,,1,,,65,58
67068,note_on,0,0,4,,,,,,,,3,,,74,0
67068,note_on,108,0,4,,,,,,,,3,,,70,0
67068,note_on,108,0,2,,,,,,,,1,,,65,0
67080,note_on,12,0,2,,,,,,,,1,,,74,58
67080,note_on,12,0,4,,,,,,,,3,,,65,58
67128,control_change,48,0,4,,,,,,,,3,64,0,,
67128,control_change,48,0,2,,,,,,,,1,64,0,,
67152,note_on,432,0,1,,,,,,,,0,,,77,0
67164,control_change,12,0,1,,,,,,,,0,64,0,,
67188,note_on,60,0,2,,,,,,,,1,,,74,0
67188,note_on,60,0,4,,,,,,,,3,,,65,0
67200,note_on,36,0,1,,,,,,,,0,,,65,58
67200,note_on,0,0,4,,,,,,,,3,,,58,58
67200,control_change,12,0,4,,,,,,,,3,64,127,,
67236,control_change,36,0,1,,,,,,,,0,64,127,,
67308,note_on,108,0,4,,,,,,,,3,,,58,0
67308,note_on,72,0,1,,,,,,,,0,,,65,0
67320,note_on,12,0,1,,,,,,,,0,,,70,57
67320,note_on,12,0,4,,,,,,,,3,,,65,57
67428,note_on,108,0,1,,,,,,,,0,,,70,0
67428,note_on,108,0,4,,,,,,,,3,,,65,0
67440,note_on,0,0,4,,,,,,,,3,,,70,56
67440,note_on,12,0,4,,,,,,,,3,,,74,56
67440,note_on,12,0,1,,,,,,,,0,,,77,56
67548,note_on,108,0,4,,,,,,,,3,,,70,0
67548,note_on,108,0,1,,,,,,,,0,,,77,0
67548,note_on,0,0,4,,,,,,,,3,,,74,0
67560,note_on,12,0,1,,,,,,,,0,,,82,56
67560,note_on,12,0,4,,,,,,,,3,,,65,56
67668,note_on,108,0,1,,,,,,,,0,,,82,0
67668,note_on,108,0,4,,,,,,,,3,,,65,0
67680,note_on,12,0,1,,,,,,,,0,,,65,56
67680,note_on,12,0,4,,,,,,,,3,,,58,56
67788,note_on,108,0,4,,,,,,,,3,,,58,0
67788,note_on,108,0,1,,,,,,,,0,,,65,0
67800,note_on,12,0,1,,,,,,,,0,,,74,56
67800,note_on,12,0,4,,,,,,,,3,,,65,56
67908,note_on,108,0,4,,,,,,,,3,,,65,0
67908,note_on,108,0,1,,,,,,,,0,,,74,0
67920,note_on,12,0,1,,,,,,,,0,,,77,55
67920,note_on,0,0,4,,,,,,,,3,,,70,55
67920,note_on,12,0,4,,,,,,,,3,,,74,55
68028,note_on,108,0,1,,,,,,,,0,,,77,0
68028,note_on,0,0,4,,,,,,,,3,,,74,0
68028,note_on,108,0,4,,,,,,,,3,,,70,0
68040,note_on,12,0,1,,,,,,,,0,,,86,56
68040,note_on,12,0,4,,,,,,,,3,,,65,55
68094,note_on,54,0,1,,,,,,,,0,,,86,0
68100,note_on,6,0,1,,,,,,,,0,,,79,53
68148,note_on,108,0,4,,,,,,,,3,,,65,0
68154,note_on,54,0,1,,,,,,,,0,,,79,0
68160,control_change,0,0,2,,,,,,,,1,64,127,,
68160,note_on,972,0,2,,,,,,,,1,,,69,55
68160,note_on,6,0,1,,,,,,,,0,,,77,49
68160,control_change,12,0,4,,,,,,,,3,64,0,,
68160,note_on,0,0,4,,,,,,,,3,,,58,55
68196,control_change,36,0,1,,,,,,,,0,64,0,,
68232,control_change,72,0,4,,,,,,,,3,64,127,,
68232,control_change,36,0,1,,,,,,,,0,64,127,,
68268,note_on,108,0,2,,,,,,,,1,,,69,0
68268,note_on,36,0,4,,,,,,,,3,,,58,0
68280,note_on,12,0,4,,,,,,,,3,,,65,54
68280,note_on,12,0,2,,,,,,,,1,,,72,54
68388,note_on,108,0,4,,,,,,,,3,,,65,0
68388,note_on,108,0,2,,,,,,,,1,,,72,0
68400,note_on,12,0,4,,,,,,,,3,,,75,53
68400,note_on,0,0,4,,,,,,,,3,,,69,53
68400,note_on,12,0,2,,,,,,,,1,,,65,53
68484,note_on,252,0,1,,,,,,,,0,,,77,0
68508,note_on,108,0,4,,,,,,,,3,,,69,0
68508,note_on,0,0,4,,,,,,,,3,,,75,0
68508,note_on,108,0,2,,,,,,,,1,,,65,0
68520,note_on,12,0,4,,,,,,,,3,,,65,53
68520,note_on,36,0,1,,,,,,,,0,,,77,50
68520,note_on,12,0,2,,,,,,,,1,,,72,53
68574,note_on,54,0,1,,,,,,,,0,,,77,0
68580,note_on,6,0,1,,,,,,,,0,,,79,48
68628,note_on,108,0,4,,,,,,,,3,,,65,0
68628,note_on,108,0,2,,,,,,,,1,,,72,0
68634,note_on,54,0,1,,,,,,,,0,,,79,0
68640,note_on,12,0,4,,,,,,,,3,,,58,53
68640,note_on,12,0,2,,,,,,,,1,,,70,53
68640,note_on,6,0,1,,,,,,,,0,,,77,46
68748,note_on,108,0,4,,,,,,,,3,,,58,0
68748,note_on,108,0,2,,,,,,,,1,,,70,0
68760,note_on,12,0,2,,,,,,,,1,,,74,52
68760,note_on,12,0,4,,,,,,,,3,,,65,52
68868,note_on,108,0,4,,,,,,,,3,,,65,0
68868,note_on,108,0,2,,,,,,,,1,,,74,0
68880,note_on,0,0,4,,,,,,,,3,,,69,52
68880,note_on,12,0,2,,,,,,,,1,,,65,52
68880,note_on,12,0,4,,,,,,,,3,,,75,52
68988,note_on,108,0,2,,,,,,,,1,,,65,0
68988,note_on,108,0,4,,,,,,,,3,,,69,0
68988,note_on,0,0,4,,,,,,,,3,,,75,0
69000,note_on,12,0,2,,,,,,,,1,,,74,51
69000,note_on,12,0,4,,,,,,,,3,,,65,51
69054,note_on,414,0,1,,,,,,,,0,,,77,0
69060,note_on,6,0,1,,,,,,,,0,,,79,46
69108,note_on,108,0,2,,,,,,,,1,,,74,0
69108,note_on,108,0,4,,,,,,,,3,,,65,0
69114,note_on,54,0,1,,,,,,,,0,,,79,0
69120,note_on,6,0,1,,,,,,,,0,,,77,43
69120,note_on,12,0,2,,,,,,,,1,,,69,51
69120,note_on,12,0,4,,,,,,,,3,,,58,51
69228,note_on,108,0,4,,,,,,,,3,,,58,0
69228,note_on,108,0,2,,,,,,,,1,,,69,0
69240,note_on,12,0,2,,,,,,,,1,,,72,51
69240,note_on,12,0,4,,,,,,,,3,,,65,51
69348,note_on,108,0,2,,,,,,,,1,,,72,0
69348,note_on,108,0,4,,,,,,,,3,,,65,0
69360,note_on,0,0,4,,,,,,,,3,,,69,50
69360,note_on,12,0,2,,,,,,,,1,,,65,50
69360,note_on,12,0,4,,,,,,,,3,,,75,50
69444,note_on,324,0,1,,,,,,,,0,,,77,0
69468,note_on,0,0,4,,,,,,,,3,,,75,0
69468,note_on,108,0,4,,,,,,,,3,,,69,0
69468,note_on,108,0,2,,,,,,,,1,,,65,0
69480,note_on,12,0,2,,,,,,,,1,,,72,50
69480,note_on,12,0,4,,,,,,,,3,,,65,50
69480,note_on,36,0,1,,,,,,,,0,,,77,47
69534,note_on,54,0,1,,,,,,,,0,,,77,0
69540,note_on,6,0,1,,,,,,,,0,,,79,45
69588,note_on,108,0,2,,,,,,,,1,,,72,0
69588,note_on,108,0,4,,,,,,,,3,,,65,0
69594,note_on,54,0,1,,,,,,,,0,,,79,0
69600,note_on,12,0,2,,,,,,,,1,,,70,49
69600,note_on,6,0,1,,,,,,,,0,,,77,42
69600,note_on,12,0,4,,,,,,,,3,,,58,49
69708,note_on,108,0,2,,,,,,,,1,,,70,0
69708,note_on,108,0,4,,,,,,,,3,,,58,0
69720,note_on,12,0,4,,,,,,,,3,,,65,49
69720,note_on,12,0,2,,,,,,,,1,,,74,49
69828,note_on,108,0,2,,,,,,,,1,,,74,0
69828,note_on,108,0,4,,,,,,,,3,,,65,0
69840,note_on,12,0,4,,,,,,,,3,,,75,49
69840,note_on,0,0,4,,,,,,,,3,,,69,49
69840,note_on,12,0,2,,,,,,,,1,,,65,49
69948,note_on,0,0,4,,,,,,,,3,,,75,0
69948,note_on,108,0,2,,,,,,,,1,,,65,0
69948,note_on,108,0,4,,,,,,,,3,,,69,0
69960,note_on,12,0,4,,,,,,,,3,,,65,48
69960,note_on,12,0,2,,,,,,,,1,,,74,48
69972,control_change,12,0,2,,,,,,,,1,64,0,,
69996,control_change,396,0,1,,,,,,,,0,64,0,,
70008,control_change,48,0,4,,,,,,,,3,64,0,,
70032,note_on,36,0,1,,,,,,,,0,,,77,0
70068,note_on,60,0,4,,,,,,,,3,,,65,0
70068,note_on,96,0,2,,,,,,,,1,,,74,0
70080,control_change,12,0,4,,,,,,,,3,64,127,,
70080,note_on,0,0,4,,,,,,,,3,,,58,48
70128,control_change,60,0,2,,,,,,,,1,64,127,,
70188,note_on,108,0,4,,,,,,,,3,,,58,0
70200,note_on,12,0,4,,,,,,,,3,,,65,48
70308,note_on,108,0,4,,,,,,,,3,,,65,0
70320,note_on,12,0,4,,,,,,,,3,,,70,47
70428,note_on,108,0,4,,,,,,,,3,,,70,0
70440,note_on,12,0,4,,,,,,,,3,,,74,47
70548,note_on,108,0,4,,,,,,,,3,,,74,0
70560,note_on,432,0,2,,,,,,,,1,,,65,46
70668,note_on,108,0,2,,,,,,,,1,,,65,0
70680,note_on,12,0,2,,,,,,,,1,,,70,46
70788,note_on,108,0,2,,,,,,,,1,,,70,0
70800,note_on,12,0,2,,,,,,,,1,,,77,46
70908,note_on,108,0,2,,,,,,,,1,,,77,0
70920,note_on,12,0,2,,,,,,,,1,,,82,45
71028,note_on,108,0,2,,,,,,,,1,,,82,0
71040,note_on,1008,0,1,,,,,,,,0,,,77,45
71064,control_change,24,0,1,,,,,,,,0,64,127,,
71088,control_change,60,0,2,,,,,,,,1,64,0,,
71148,note_on,84,0,1,,,,,,,,0,,,77,0
71160,note_on,12,0,1,,,,,,,,0,,,82,44
71268,note_on,108,0,1,,,,,,,,0,,,82,0
71280,note_on,12,0,1,,,,,,,,0,,,89,44
71388,note_on,108,0,1,,,,,,,,0,,,89,0
71400,note_on,12,0,1,,,,,,,,0,,,94,44
71508,note_on,108,0,1,,,,,,,,0,,,94,0
71520,note_on,972,0,4,,,,,,,,3,,,34,43
71736,note_on,216,0,4,,,,,,,,3,,,34,0
72000,note_on,912,0,2,,,,,,,,1,,,65,29
72000,control_change,264,0,4,,,,,,,,3,64,0,,
72000,control_change,0,0,2,,,,,,,,1,64,127,,
72000,end_of_track,0,1,4,,,,,,,,,,,,
72024,control_change,516,0,1,,,,,,,,0,64,0,,
72024,end_of_track,0,1,1,,,,,,,,,,,,
72036,note_on,36,0,2,,,,,,,,1,,,65,0
72040,note_on,4,0,2,,,,,,,,1,,,70,34
72076,note_on,36,0,2,,,,,,,,1,,,70,0
72080,note_on,4,0,2,,,,,,,,1,,,74,39
72116,note_on,36,0,2,,,,,,,,1,,,74,0
72120,note_on,4,0,2,,,,,,,,1,,,77,43
72156,note_on,36,0,2,,,,,,,,1,,,77,0
72160,note_on,4,0,2,,,,,,,,1,,,86,48
72196,note_on,36,0,2,,,,,,,,1,,,86,0
72200,note_on,4,0,2,,,,,,,,1,,,89,55
72236,note_on,36,0,2,,,,,,,,1,,,89,0
72240,note_on,4,0,2,,,,,,,,1,,,94,56
72276,note_on,36,0,2,,,,,,,,1,,,94,0
72280,note_on,4,0,2,,,,,,,,1,,,98,57
72316,note_on,36,0,2,,,,,,,,1,,,98,0
72960,control_change,644,0,2,,,,,,,,1,64,0,,
72960,end_of_track,0,1,2,,,,,,,,,,,,
