tick,type,numerator,denominator,clocks_per_click,notated_32nd_notes_per_beat,time,meta,track,tempo,program,channel,control,value,note,velocity
0,control_change,,,,,0,0,1,,,0,7,100,,
0,end_of_track,,,,,0,1,3,,,,,,,
0,end_of_track,,,,,0,1,4,,,,,,,
0,end_of_track,,,,,0,1,5,,,,,,,
0,end_of_track,,,,,0,1,6,,,,,,,
0,end_of_track,,,,,0,1,7,,,,,,,
0,end_of_track,,,,,0,1,8,,,,,,,
0,end_of_track,,,,,0,1,9,,,,,,,
0,end_of_track,,,,,0,1,10,,,,,,,
0,end_of_track,,,,,0,1,11,,,,,,,
0,end_of_track,,,,,0,1,12,,,,,,,
0,end_of_track,,,,,0,1,13,,,,,,,
0,end_of_track,,,,,0,1,14,,,,,,,
0,track_name,,,,,0,1,13,,,,,,,
0,control_change,,,,,0,0,2,,,1,10,69,,
0,program_change,,,,,0,0,1,,0,0,,,,
0,set_tempo,,,,,0,1,0,461538,,,,,,
0,time_signature,4,4,24,8,0,1,0,,,,,,,
0,track_name,,,,,0,1,1,,,,,,,
0,track_name,,,,,0,1,2,,,,,,,
0,track_name,,,,,0,1,3,,,,,,,
0,track_name,,,,,0,1,4,,,,,,,
0,track_name,,,,,0,1,6,,,,,,,
0,track_name,,,,,0,1,7,,,,,,,
0,track_name,,,,,0,1,8,,,,,,,
0,track_name,,,,,0,1,9,,,,,,,
0,track_name,,,,,0,1,10,,,,,,,
0,track_name,,,,,0,1,11,,,,,,,
0,track_name,,,,,0,1,12,,,,,,,
0,program_change,,,,,0,0,2,,0,1,,,,
0,control_change,,,,,0,0,2,,,1,7,100,,
0,track_name,,,,,0,1,14,,,,,,,
0,control_change,,,,,0,0,1,,,0,10,59,,
960,note_on,,,,,0,0,1,,,0,,,55,102
960,note_on,,,,,0,0,1,,,0,,,67,103
960,marker,,,,,960,1,0,,,,,,,
960,control_change,,,,,960,0,2,,,1,11,127,,
960,control_change,,,,,960,0,1,,,0,11,127,,
1030,note_off,,,,,70,0,1,,,0,,,67,64
1032,note_off,,,,,2,0,1,,,0,,,55,64
1040,note_on,,,,,0,0,1,,,0,,,55,98
1040,note_on,,,,,8,0,1,,,0,,,67,97
1110,note_off,,,,,70,0,1,,,0,,,67,64
1114,note_off,,,,,4,0,1,,,0,,,55,64
1120,note_on,,,,,0,0,1,,,0,,,55,104
1120,note_on,,,,,6,0,1,,,0,,,67,101
1192,note_off,,,,,72,0,1,,,0,,,55,64
1192,note_off,,,,,0,0,1,,,0,,,67,64
1200,note_on,,,,,0,0,1,,,0,,,55,99
1200,note_on,,,,,8,0,1,,,0,,,67,104
1271,note_off,,,,,71,0,1,,,0,,,67,64
1274,note_off,,,,,3,0,1,,,0,,,55,64
1280,note_on,,,,,0,0,1,,,0,,,55,101
1280,note_on,,,,,6,0,1,,,0,,,67,96
1353,note_off,,,,,73,0,1,,,0,,,55,64
1354,note_off,,,,,1,0,1,,,0,,,67,64
1360,note_on,,,,,6,0,1,,,0,,,67,103
1360,note_on,,,,,0,0,1,,,0,,,55,102
1430,note_off,,,,,70,0,1,,,0,,,67,64
1434,note_off,,,,,4,0,1,,,0,,,55,64
1440,note_on,,,,,0,0,1,,,0,,,55,104
1440,note_on,,,,,6,0,1,,,0,,,67,98
1512,note_off,,,,,72,0,1,,,0,,,55,64
1513,note_off,,,,,1,0,1,,,0,,,67,64
1520,note_on,,,,,0,0,1,,,0,,,55,101
1520,note_on,,,,,7,0,1,,,0,,,67,104
1590,note_off,,,,,70,0,1,,,0,,,55,64
1591,note_off,,,,,1,0,1,,,0,,,67,64
1600,note_on,,,,,0,0,1,,,0,,,55,101
1600,note_on,,,,,9,0,1,,,0,,,67,97
1670,note_off,,,,,70,0,1,,,0,,,67,64
1671,note_off,,,,,1,0,1,,,0,,,55,64
1680,note_on,,,,,9,0,1,,,0,,,67,104
1680,note_on,,,,,0,0,1,,,0,,,55,98
1750,note_off,,,,,0,0,1,,,0,,,67,64
1750,note_off,,,,,70,0,1,,,0,,,55,64
1760,note_on,,,,,10,0,1,,,0,,,67,96
1760,note_on,,,,,0,0,1,,,0,,,55,104
1832,note_off,,,,,72,0,1,,,0,,,55,64
1834,note_off,,,,,2,0,1,,,0,,,67,64
1840,note_on,,,,,0,0,1,,,0,,,55,103
1840,note_on,,,,,6,0,1,,,0,,,67,101
1910,note_off,,,,,0,0,1,,,0,,,67,64
1910,note_off,,,,,70,0,1,,,0,,,55,64
1920,note_on,,,,,10,0,1,,,0,,,67,108
1920,note_on,,,,,960,0,2,,,1,,,43,108
1920,note_on,,,,,0,0,1,,,0,,,55,108
1920,note_on,,,,,0,0,2,,,1,,,31,104
1990,note_off,,,,,70,0,1,,,0,,,67,64
1991,note_off,,,,,1,0,1,,,0,,,55,64
1994,note_off,,,,,0,0,2,,,1,,,43,64
1994,note_off,,,,,74,0,2,,,1,,,31,64
2000,note_on,,,,,0,0,1,,,0,,,55,104
2000,note_on,,,,,9,0,1,,,0,,,67,102
2000,note_on,,,,,0,0,2,,,1,,,33,102
2000,note_on,,,,,6,0,2,,,1,,,45,102
2071,note_off,,,,,71,0,2,,,1,,,33,64
2072,note_off,,,,,72,0,1,,,0,,,55,64
2072,note_off,,,,,0,0,1,,,0,,,67,64
2074,note_off,,,,,3,0,2,,,1,,,45,64
2080,note_on,,,,,0,0,1,,,0,,,55,100
2080,note_on,,,,,8,0,1,,,0,,,67,100
2080,note_on,,,,,6,0,2,,,1,,,46,97
2080,note_on,,,,,0,0,2,,,1,,,34,102
2150,note_off,,,,,70,0,2,,,1,,,34,64
2150,note_off,,,,,0,0,2,,,1,,,46,64
2153,note_off,,,,,73,0,1,,,0,,,55,64
2153,note_off,,,,,0,0,1,,,0,,,67,64
2160,note_on,,,,,10,0,2,,,1,,,48,101
2160,note_on,,,,,0,0,2,,,1,,,36,102
2160,note_on,,,,,0,0,1,,,0,,,55,101
2160,note_on,,,,,7,0,1,,,0,,,67,97
2230,note_off,,,,,70,0,2,,,1,,,36,64
2230,note_off,,,,,70,0,1,,,0,,,67,64
2233,note_off,,,,,3,0,1,,,0,,,55,64
2234,note_off,,,,,4,0,2,,,1,,,48,64
2240,note_on,,,,,7,0,1,,,0,,,67,101
2240,note_on,,,,,6,0,2,,,1,,,50,100
2240,note_on,,,,,0,0,2,,,1,,,38,97
2240,note_on,,,,,0,0,1,,,0,,,55,96
2311,note_off,,,,,71,0,2,,,1,,,38,64
2311,note_off,,,,,71,0,1,,,0,,,55,64
2312,note_off,,,,,1,0,1,,,0,,,67,64
2314,note_off,,,,,3,0,2,,,1,,,50,64
2320,note_on,,,,,6,0,2,,,1,,,51,101
2320,note_on,,,,,8,0,1,,,0,,,67,102
2320,note_on,,,,,0,0,1,,,0,,,55,97
2320,note_on,,,,,0,0,2,,,1,,,39,97
2390,note_off,,,,,70,0,1,,,0,,,67,64
2391,note_off,,,,,71,0,2,,,1,,,39,64
2393,note_off,,,,,3,0,1,,,0,,,55,64
2394,note_off,,,,,3,0,2,,,1,,,51,64
2400,note_on,,,,,0,0,1,,,0,,,55,99
2400,note_on,,,,,6,0,2,,,1,,,38,104
2400,note_on,,,,,0,0,2,,,1,,,50,102
2400,note_on,,,,,7,0,1,,,0,,,67,98
2511,note_off,,,,,111,0,2,,,1,,,38,64
2513,note_off,,,,,2,0,2,,,1,,,50,64
2633,note_off,,,,,233,0,1,,,0,,,67,64
2634,note_off,,,,,1,0,1,,,0,,,55,64
2640,note_on,,,,,6,0,1,,,0,,,67,101
2640,note_on,,,,,127,0,2,,,1,,,34,101
2640,note_on,,,,,0,0,2,,,1,,,46,97
2640,note_on,,,,,0,0,1,,,0,,,55,99
2751,note_off,,,,,111,0,2,,,1,,,46,64
2754,note_off,,,,,3,0,2,,,1,,,34,64
2871,note_off,,,,,231,0,1,,,0,,,55,64
2872,note_off,,,,,1,0,1,,,0,,,67,64
2880,note_on,,,,,126,0,2,,,1,,,31,102
2880,note_on,,,,,0,0,1,,,0,,,55,106
2880,note_on,,,,,0,0,2,,,1,,,43,101
2880,note_on,,,,,8,0,1,,,0,,,67,106
2953,note_off,,,,,73,0,1,,,0,,,55,64
2954,note_off,,,,,1,0,1,,,0,,,67,64
2960,note_on,,,,,0,0,1,,,0,,,55,102
2960,note_on,,,,,6,0,1,,,0,,,67,98
2992,note_off,,,,,112,0,2,,,1,,,31,64
2993,note_off,,,,,1,0,2,,,1,,,43,64
3034,note_off,,,,,0,0,1,,,0,,,67,64
3034,note_off,,,,,74,0,1,,,0,,,55,64
3040,note_on,,,,,0,0,1,,,0,,,55,101
3040,note_on,,,,,6,0,1,,,0,,,67,96
3110,note_off,,,,,70,0,1,,,0,,,55,64
3112,note_off,,,,,2,0,1,,,0,,,67,64
3120,note_on,,,,,8,0,1,,,0,,,67,104
3120,note_on,,,,,0,0,1,,,0,,,55,98
3191,note_off,,,,,71,0,1,,,0,,,55,64
3192,note_off,,,,,1,0,1,,,0,,,67,64
3200,note_on,,,,,0,0,1,,,0,,,55,101
3200,note_on,,,,,8,0,1,,,0,,,67,97
3271,note_off,,,,,71,0,1,,,0,,,55,64
3274,note_off,,,,,3,0,1,,,0,,,67,64
3280,note_on,,,,,0,0,1,,,0,,,55,96
3280,note_on,,,,,6,0,1,,,0,,,67,103
3353,note_off,,,,,73,0,1,,,0,,,67,64
3354,note_off,,,,,1,0,1,,,0,,,55,64
3360,note_on,,,,,0,0,1,,,0,,,55,98
3360,note_on,,,,,6,0,1,,,0,,,67,101
3434,note_off,,,,,74,0,1,,,0,,,55,64
3434,note_off,,,,,0,0,1,,,0,,,67,64
3440,note_on,,,,,0,0,1,,,0,,,55,97
3440,note_on,,,,,6,0,1,,,0,,,67,98
3511,note_off,,,,,71,0,1,,,0,,,55,64
3513,note_off,,,,,2,0,1,,,0,,,67,64
3520,note_on,,,,,7,0,1,,,0,,,67,96
3520,note_on,,,,,0,0,1,,,0,,,55,104
3591,note_off,,,,,71,0,1,,,0,,,55,64
3591,note_off,,,,,0,0,1,,,0,,,67,64
3600,note_on,,,,,0,0,1,,,0,,,55,99
3600,note_on,,,,,9,0,1,,,0,,,67,98
3670,note_off,,,,,70,0,1,,,0,,,55,64
3674,note_off,,,,,4,0,1,,,0,,,67,64
3680,note_on,,,,,6,0,1,,,0,,,67,104
3680,note_on,,,,,0,0,1,,,0,,,55,100
3750,note_off,,,,,70,0,1,,,0,,,55,64
3751,note_off,,,,,1,0,1,,,0,,,67,64
3760,note_on,,,,,9,0,1,,,0,,,67,104
3760,note_on,,,,,0,0,1,,,0,,,55,96
3830,note_off,,,,,70,0,1,,,0,,,55,64
3833,note_off,,,,,3,0,1,,,0,,,67,64
3840,note_on,,,,,0,0,1,,,0,,,55,107
3840,note_on,,,,,0,0,2,,,1,,,31,108
3840,note_on,,,,,847,0,2,,,1,,,43,102
3840,note_on,,,,,7,0,1,,,0,,,67,101
3910,note_off,,,,,70,0,1,,,0,,,67,64
3911,note_off,,,,,71,0,2,,,1,,,43,64
3912,note_off,,,,,1,0,2,,,1,,,31,64
3914,note_off,,,,,4,0,1,,,0,,,55,64
3920,note_on,,,,,8,0,2,,,1,,,45,97
3920,note_on,,,,,0,0,2,,,1,,,33,103
3920,note_on,,,,,0,0,1,,,0,,,55,102
3920,note_on,,,,,6,0,1,,,0,,,67,101
3991,note_off,,,,,71,0,1,,,0,,,55,64
3991,note_off,,,,,0,0,1,,,0,,,67,64
3992,note_off,,,,,72,0,2,,,1,,,45,64
3994,note_off,,,,,2,0,2,,,1,,,33,64
4000,note_on,,,,,9,0,1,,,0,,,67,96
4000,note_on,,,,,6,0,2,,,1,,,46,101
4000,note_on,,,,,0,0,1,,,0,,,55,99
4000,note_on,,,,,0,0,2,,,1,,,34,101
4072,note_off,,,,,72,0,1,,,0,,,67,64
4073,note_off,,,,,0,0,2,,,1,,,46,64
4073,note_off,,,,,73,0,2,,,1,,,34,64
4073,note_off,,,,,1,0,1,,,0,,,55,64
4080,note_on,,,,,0,0,2,,,1,,,36,100
4080,note_on,,,,,0,0,1,,,0,,,55,102
4080,note_on,,,,,7,0,1,,,0,,,67,97
4080,note_on,,,,,7,0,2,,,1,,,48,102
4152,note_off,,,,,72,0,2,,,1,,,48,64
4153,note_off,,,,,73,0,1,,,0,,,55,64
4154,note_off,,,,,1,0,1,,,0,,,67,64
4154,note_off,,,,,2,0,2,,,1,,,36,64
4160,note_on,,,,,0,0,2,,,1,,,38,100
4160,note_on,,,,,6,0,1,,,0,,,55,96
4160,note_on,,,,,6,0,2,,,1,,,50,98
4160,note_on,,,,,0,0,1,,,0,,,67,98
4231,note_off,,,,,71,0,1,,,0,,,67,64
4231,note_off,,,,,71,0,2,,,1,,,38,64
4232,note_off,,,,,1,0,1,,,0,,,55,64
4232,note_off,,,,,1,0,2,,,1,,,50,64
4240,note_on,,,,,0,0,1,,,0,,,67,100
4240,note_on,,,,,0,0,2,,,1,,,39,100
4240,note_on,,,,,8,0,1,,,0,,,55,101
4240,note_on,,,,,8,0,2,,,1,,,51,99
4310,note_off,,,,,70,0,2,,,1,,,39,64
4311,note_off,,,,,1,0,2,,,1,,,51,64
4312,note_off,,,,,72,0,1,,,0,,,67,64
4313,note_off,,,,,1,0,1,,,0,,,55,64
4320,note_on,,,,,0,0,2,,,1,,,50,106
4320,note_on,,,,,7,0,1,,,0,,,67,104
4320,note_on,,,,,9,0,2,,,1,,,38,100
4320,note_on,,,,,0,0,1,,,0,,,55,102
4392,note_off,,,,,72,0,1,,,0,,,67,64
4394,note_off,,,,,2,0,1,,,0,,,55,64
4400,note_on,,,,,6,0,1,,,0,,,67,99
4400,note_on,,,,,0,0,1,,,0,,,55,104
4433,note_off,,,,,113,0,2,,,1,,,50,64
4434,note_off,,,,,1,0,2,,,1,,,38,64
4470,note_off,,,,,70,0,1,,,0,,,55,64
4473,note_off,,,,,3,0,1,,,0,,,67,64
4480,note_on,,,,,7,0,1,,,0,,,55,103
4480,note_on,,,,,0,0,1,,,0,,,67,100
4551,note_off,,,,,71,0,1,,,0,,,67,64
4552,note_off,,,,,1,0,1,,,0,,,55,64
4560,note_on,,,,,126,0,2,,,1,,,34,96
4560,note_on,,,,,0,0,2,,,1,,,46,104
4560,note_on,,,,,0,0,1,,,0,,,55,98
4560,note_on,,,,,8,0,1,,,0,,,67,96
4633,note_off,,,,,0,0,1,,,0,,,67,64
4633,note_off,,,,,73,0,1,,,0,,,55,64
4640,note_on,,,,,7,0,1,,,0,,,67,100
4640,note_on,,,,,0,0,1,,,0,,,55,102
4671,note_off,,,,,111,0,2,,,1,,,46,64
4671,note_off,,,,,0,0,2,,,1,,,34,64
4711,note_off,,,,,71,0,1,,,0,,,55,64
4712,note_off,,,,,1,0,1,,,0,,,67,64
4720,note_on,,,,,0,0,1,,,0,,,55,103
4720,note_on,,,,,8,0,1,,,0,,,67,98
4790,note_off,,,,,70,0,1,,,0,,,67,64
4791,note_off,,,,,1,0,1,,,0,,,55,64
4800,note_on,,,,,129,0,2,,,1,,,31,102
4800,note_on,,,,,0,0,2,,,1,,,43,105
4800,note_on,,,,,9,0,1,,,0,,,55,104
4800,note_on,,,,,0,0,1,,,0,,,67,107
4872,note_off,,,,,72,0,1,,,0,,,55,64
4874,note_off,,,,,2,0,1,,,0,,,67,64
4880,note_on,,,,,0,0,1,,,0,,,55,101
4880,note_on,,,,,6,0,1,,,0,,,67,96
4911,note_off,,,,,111,0,2,,,1,,,43,64
4911,note_off,,,,,0,0,2,,,1,,,31,64
4952,note_off,,,,,72,0,1,,,0,,,67,64
4954,note_off,,,,,2,0,1,,,0,,,55,64
4960,note_on,,,,,6,0,1,,,0,,,67,96
4960,note_on,,,,,0,0,1,,,0,,,55,103
5031,note_off,,,,,71,0,1,,,0,,,55,64
5033,note_off,,,,,2,0,1,,,0,,,67,64
5040,note_on,,,,,0,0,1,,,0,,,55,100
5040,note_on,,,,,7,0,1,,,0,,,67,103
5110,note_off,,,,,70,0,1,,,0,,,67,64
5113,note_off,,,,,3,0,1,,,0,,,55,64
5120,note_on,,,,,7,0,1,,,0,,,55,96
5120,note_on,,,,,0,0,1,,,0,,,67,97
5190,note_off,,,,,70,0,1,,,0,,,67,64
5192,note_off,,,,,2,0,1,,,0,,,55,64
5200,note_on,,,,,0,0,1,,,0,,,55,99
5200,note_on,,,,,8,0,1,,,0,,,67,101
5272,note_off,,,,,72,0,1,,,0,,,55,64
5273,note_off,,,,,1,0,1,,,0,,,67,64
5280,note_on,,,,,0,0,1,,,0,,,67,106
5280,note_on,,,,,7,0,1,,,0,,,55,102
5350,note_off,,,,,70,0,1,,,0,,,55,64
5354,note_off,,,,,4,0,1,,,0,,,67,64
5360,note_on,,,,,0,0,1,,,0,,,55,104
5360,note_on,,,,,6,0,1,,,0,,,67,97
5430,note_off,,,,,70,0,1,,,0,,,67,64
5434,note_off,,,,,4,0,1,,,0,,,55,64
5440,note_on,,,,,6,0,1,,,0,,,55,103
5440,note_on,,,,,0,0,1,,,0,,,67,104
5511,note_off,,,,,71,0,1,,,0,,,67,64
5513,note_off,,,,,2,0,1,,,0,,,55,64
5520,note_on,,,,,0,0,1,,,0,,,55,104
5520,note_on,,,,,7,0,1,,,0,,,67,101
5590,note_off,,,,,70,0,1,,,0,,,55,64
5592,note_off,,,,,2,0,1,,,0,,,67,64
5600,note_on,,,,,8,0,1,,,0,,,55,101
5600,note_on,,,,,0,0,1,,,0,,,67,101
5673,note_off,,,,,73,0,1,,,0,,,67,64
5674,note_off,,,,,1,0,1,,,0,,,55,64
5680,note_on,,,,,6,0,1,,,0,,,67,103
5680,note_on,,,,,0,0,1,,,0,,,55,97
5750,note_off,,,,,70,0,1,,,0,,,67,64
5754,note_off,,,,,4,0,1,,,0,,,55,64
5760,note_on,,,,,6,0,1,,,0,,,69,107
5760,note_on,,,,,0,0,1,,,0,,,57,104
5760,note_on,,,,,0,0,2,,,1,,,48,101
5760,note_on,,,,,0,0,2,,,1,,,36,105
5760,note_on,,,,,0,0,1,,,0,,,67,107
5760,control_change,,,,,849,0,2,,,1,7,101,,
5760,control_change,,,,,0,0,1,,,0,7,101,,
5810,control_change,,,,,50,0,2,,,1,7,102,,
5810,control_change,,,,,50,0,1,,,0,7,102,,
5830,note_off,,,,,20,0,1,,,0,,,57,64
5832,note_off,,,,,2,0,1,,,0,,,67,64
5834,note_off,,,,,2,0,1,,,0,,,69,64
5840,note_on,,,,,0,0,1,,,0,,,67,102
5840,note_on,,,,,0,0,1,,,0,,,57,98
5840,note_on,,,,,6,0,1,,,0,,,69,99
5860,control_change,,,,,20,0,1,,,0,7,103,,
5860,control_change,,,,,50,0,2,,,1,7,103,,
5910,note_off,,,,,50,0,1,,,0,,,69,64
5911,control_change,,,,,1,0,1,,,0,7,104,,
5911,control_change,,,,,51,0,2,,,1,7,104,,
5912,note_off,,,,,1,0,1,,,0,,,57,64
5914,note_off,,,,,2,0,1,,,0,,,67,64
5920,note_on,,,,,0,0,1,,,0,,,67,103
5920,note_on,,,,,6,0,1,,,0,,,69,97
5920,note_on,,,,,0,0,1,,,0,,,57,103
5961,control_change,,,,,50,0,2,,,1,7,105,,
5961,control_change,,,,,41,0,1,,,0,7,105,,
5990,note_off,,,,,29,0,1,,,0,,,69,64
5992,note_off,,,,,2,0,1,,,0,,,57,64
5993,note_off,,,,,1,0,1,,,0,,,67,64
6000,note_on,,,,,7,0,1,,,0,,,69,102
6000,note_on,,,,,0,0,1,,,0,,,67,98
6000,note_on,,,,,0,0,1,,,0,,,57,96
6012,control_change,,,,,12,0,1,,,0,7,106,,
6012,control_change,,,,,51,0,2,,,1,7,106,,
6062,control_change,,,,,50,0,1,,,0,7,107,,
6062,control_change,,,,,50,0,2,,,1,7,107,,
6071,note_off,,,,,9,0,1,,,0,,,67,64
6072,note_off,,,,,1,0,1,,,0,,,57,64
6072,note_off,,,,,0,0,1,,,0,,,69,64
6080,note_on,,,,,8,0,1,,,0,,,67,100
6080,note_on,,,,,0,0,1,,,0,,,69,99
6080,note_on,,,,,0,0,1,,,0,,,57,96
6113,control_change,,,,,33,0,1,,,0,7,108,,
6113,control_change,,,,,51,0,2,,,1,7,108,,
6153,note_off,,,,,40,0,1,,,0,,,57,64
6153,note_off,,,,,0,0,1,,,0,,,67,64
6153,note_off,,,,,0,0,1,,,0,,,69,64
6160,note_on,,,,,0,0,1,,,0,,,57,100
6160,note_on,,,,,0,0,1,,,0,,,67,100
6160,note_on,,,,,7,0,1,,,0,,,69,99
6163,control_change,,,,,50,0,2,,,1,7,109,,
6163,control_change,,,,,3,0,1,,,0,7,109,,
6214,control_change,,,,,51,0,1,,,0,7,110,,
6214,control_change,,,,,51,0,2,,,1,7,110,,
6230,note_off,,,,,16,0,1,,,0,,,67,64
6231,note_off,,,,,1,0,1,,,0,,,57,64
6232,note_off,,,,,1,0,1,,,0,,,69,64
6240,note_on,,,,,0,0,1,,,0,,,57,103
6240,note_on,,,,,8,0,1,,,0,,,69,103
6240,note_on,,,,,0,0,1,,,0,,,67,103
6264,control_change,,,,,24,0,1,,,0,7,111,,
6264,control_change,,,,,50,0,2,,,1,7,111,,
6310,note_off,,,,,46,0,1,,,0,,,67,64
6312,note_off,,,,,2,0,1,,,0,,,57,64
6314,note_off,,,,,2,0,1,,,0,,,69,64
6315,control_change,,,,,1,0,1,,,0,7,112,,
6315,control_change,,,,,51,0,2,,,1,7,112,,
6320,note_on,,,,,0,0,1,,,0,,,67,101
6320,note_on,,,,,5,0,1,,,0,,,69,100
6320,note_on,,,,,0,0,1,,,0,,,57,98
6365,control_change,,,,,45,0,1,,,0,7,113,,
6365,control_change,,,,,50,0,2,,,1,7,113,,
6390,note_off,,,,,25,0,1,,,0,,,57,64
6392,note_off,,,,,2,0,1,,,0,,,67,64
6393,note_off,,,,,1,0,1,,,0,,,69,64
6400,note_on,,,,,7,0,1,,,0,,,57,101
6400,note_on,,,,,0,0,1,,,0,,,67,101
6400,note_on,,,,,0,0,1,,,0,,,69,104
6416,control_change,,,,,51,0,2,,,1,7,114,,
6416,control_change,,,,,16,0,1,,,0,7,114,,
6466,control_change,,,,,50,0,2,,,1,7,115,,
6466,control_change,,,,,50,0,1,,,0,7,115,,
6470,note_off,,,,,4,0,2,,,1,,,48,64
6472,note_off,,,,,6,0,1,,,0,,,69,64
6474,note_off,,,,,2,0,1,,,0,,,67,64
6474,note_off,,,,,0,0,1,,,0,,,57,64
6474,note_off,,,,,4,0,2,,,1,,,36,64
6480,note_on,,,,,0,0,1,,,0,,,57,102
6480,note_on,,,,,0,0,1,,,0,,,69,102
6480,note_on,,,,,6,0,2,,,1,,,49,97
6480,note_on,,,,,0,0,2,,,1,,,37,99
6480,note_on,,,,,6,0,1,,,0,,,67,97
6517,control_change,,,,,37,0,1,,,0,7,116,,
6517,control_change,,,,,37,0,2,,,1,7,116,,
6551,note_off,,,,,0,0,1,,,0,,,67,64
6551,note_off,,,,,34,0,1,,,0,,,57,64
6552,note_off,,,,,1,0,1,,,0,,,69,64
6560,note_on,,,,,0,0,1,,,0,,,57,98
6560,note_on,,,,,0,0,1,,,0,,,67,98
6560,note_on,,,,,8,0,1,,,0,,,69,96
6567,control_change,,,,,7,0,1,,,0,7,117,,
6567,control_change,,,,,50,0,2,,,1,7,117,,
6618,control_change,,,,,51,0,2,,,1,7,118,,
6618,control_change,,,,,51,0,1,,,0,7,118,,
6631,note_off,,,,,13,0,1,,,0,,,67,64
6632,note_off,,,,,1,0,1,,,0,,,57,64
6634,note_off,,,,,2,0,1,,,0,,,69,64
6640,note_on,,,,,6,0,1,,,0,,,67,96
6640,note_on,,,,,0,0,1,,,0,,,57,104
6640,note_on,,,,,0,0,1,,,0,,,69,98
6668,control_change,,,,,50,0,2,,,1,7,119,,
6668,control_change,,,,,28,0,1,,,0,7,119,,
6711,note_off,,,,,43,0,2,,,1,,,49,64
6711,note_off,,,,,0,0,1,,,0,,,67,64
6711,note_off,,,,,43,0,1,,,0,,,69,64
6712,note_off,,,,,1,0,2,,,1,,,37,64
6714,note_off,,,,,3,0,1,,,0,,,57,64
6719,control_change,,,,,7,0,2,,,1,7,120,,
6719,control_change,,,,,5,0,1,,,0,7,120,,
6720,note_on,,,,,1,0,1,,,0,,,70,100
6720,note_on,,,,,0,0,1,,,0,,,67,107
6720,control_change,,,,,0,0,1,,,0,7,119,,
6720,note_on,,,,,0,0,2,,,1,,,50,103
6720,control_change,,,,,1,0,2,,,1,7,119,,
6720,note_on,,,,,0,0,2,,,1,,,38,100
6720,note_on,,,,,0,0,1,,,0,,,58,103
6770,control_change,,,,,50,0,2,,,1,7,118,,
6770,control_change,,,,,50,0,1,,,0,7,118,,
6790,note_off,,,,,20,0,1,,,0,,,58,64
6792,note_off,,,,,2,0,1,,,0,,,67,64
6793,note_off,,,,,1,0,1,,,0,,,70,64
6800,note_on,,,,,0,0,1,,,0,,,58,96
6800,note_on,,,,,0,0,1,,,0,,,70,98
6800,note_on,,,,,7,0,1,,,0,,,67,103
6820,control_change,,,,,50,0,2,,,1,7,117,,
6820,control_change,,,,,20,0,1,,,0,7,117,,
6871,control_change,,,,,0,0,1,,,0,7,116,,
6871,control_change,,,,,51,0,2,,,1,7,116,,
6871,note_off,,,,,51,0,1,,,0,,,58,64
6873,note_off,,,,,2,0,1,,,0,,,67,64
6874,note_off,,,,,1,0,1,,,0,,,70,64
6880,note_on,,,,,0,0,1,,,0,,,70,99
6880,note_on,,,,,6,0,1,,,0,,,67,97
6880,note_on,,,,,0,0,1,,,0,,,58,97
6921,control_change,,,,,50,0,2,,,1,7,115,,
6921,control_change,,,,,41,0,1,,,0,7,115,,
6950,note_off,,,,,29,0,1,,,0,,,58,64
6952,note_off,,,,,2,0,1,,,0,,,67,64
6954,note_off,,,,,2,0,1,,,0,,,70,64
6960,note_on,,,,,0,0,1,,,0,,,70,99
6960,note_on,,,,,0,0,1,,,0,,,67,102
6960,note_on,,,,,6,0,1,,,0,,,58,102
6972,control_change,,,,,51,0,2,,,1,7,114,,
6972,control_change,,,,,12,0,1,,,0,7,114,,
7022,control_change,,,,,50,0,1,,,0,7,113,,
7022,control_change,,,,,50,0,2,,,1,7,113,,
7030,note_off,,,,,8,0,1,,,0,,,67,64
7032,note_off,,,,,2,0,1,,,0,,,70,64
7034,note_off,,,,,2,0,1,,,0,,,58,64
7040,note_on,,,,,0,0,1,,,0,,,70,99
7040,note_on,,,,,0,0,1,,,0,,,67,99
7040,note_on,,,,,6,0,1,,,0,,,58,103
7073,control_change,,,,,51,0,2,,,1,7,112,,
7073,control_change,,,,,33,0,1,,,0,7,112,,
7110,note_off,,,,,37,0,1,,,0,,,70,64
7112,note_off,,,,,2,0,1,,,0,,,58,64
7114,note_off,,,,,2,0,1,,,0,,,67,64
7120,note_on,,,,,6,0,1,,,0,,,67,101
7120,note_on,,,,,0,0,1,,,0,,,58,98
7120,note_on,,,,,0,0,1,,,0,,,70,100
7123,control_change,,,,,50,0,2,,,1,7,111,,
7123,control_change,,,,,3,0,1,,,0,7,111,,
7174,control_change,,,,,51,0,2,,,1,7,110,,
7174,control_change,,,,,51,0,1,,,0,7,110,,
7190,note_off,,,,,16,0,1,,,0,,,58,64
7193,note_off,,,,,0,0,1,,,0,,,67,64
7193,note_off,,,,,3,0,1,,,0,,,70,64
7200,note_on,,,,,7,0,1,,,0,,,69,106
7200,note_on,,,,,0,0,1,,,0,,,66,105
7200,note_on,,,,,0,0,1,,,0,,,57,102
7224,control_change,,,,,50,0,2,,,1,7,109,,
7224,control_change,,,,,24,0,1,,,0,7,109,,
7270,note_off,,,,,46,0,1,,,0,,,57,64
7270,note_off,,,,,0,0,1,,,0,,,66,64
7274,note_off,,,,,4,0,1,,,0,,,69,64
7275,control_change,,,,,51,0,2,,,1,7,108,,
7275,control_change,,,,,1,0,1,,,0,7,108,,
7280,note_on,,,,,5,0,1,,,0,,,69,97
7280,note_on,,,,,0,0,1,,,0,,,57,101
7280,note_on,,,,,0,0,1,,,0,,,66,97
7325,control_change,,,,,45,0,1,,,0,7,107,,
7325,control_change,,,,,50,0,2,,,1,7,107,,
7351,note_off,,,,,26,0,1,,,0,,,66,64
7353,note_off,,,,,2,0,1,,,0,,,69,64
7354,note_off,,,,,1,0,1,,,0,,,57,64
7360,note_on,,,,,0,0,1,,,0,,,66,96
7360,note_on,,,,,0,0,1,,,0,,,57,101
7360,note_on,,,,,6,0,1,,,0,,,69,104
7376,control_change,,,,,51,0,2,,,1,7,106,,
7376,control_change,,,,,16,0,1,,,0,7,106,,
7426,control_change,,,,,50,0,1,,,0,7,105,,
7426,control_change,,,,,50,0,2,,,1,7,105,,
7430,note_off,,,,,4,0,1,,,0,,,57,64
7431,note_off,,,,,0,0,1,,,0,,,69,64
7431,note_off,,,,,1,0,1,,,0,,,66,64
7440,note_on,,,,,0,0,1,,,0,,,57,102
7440,note_on,,,,,0,0,1,,,0,,,66,96
7440,note_on,,,,,9,0,1,,,0,,,69,99
7477,control_change,,,,,37,0,1,,,0,7,104,,
7477,control_change,,,,,51,0,2,,,1,7,104,,
7513,note_off,,,,,0,0,1,,,0,,,69,64
7513,note_off,,,,,36,0,1,,,0,,,57,64
7514,note_off,,,,,1,0,1,,,0,,,66,64
7520,note_on,,,,,6,0,1,,,0,,,69,97
7520,note_on,,,,,0,0,1,,,0,,,66,96
7520,note_on,,,,,0,0,1,,,0,,,57,98
7527,control_change,,,,,7,0,1,,,0,7,103,,
7527,control_change,,,,,50,0,2,,,1,7,103,,
7578,control_change,,,,,51,0,1,,,0,7,102,,
7578,control_change,,,,,51,0,2,,,1,7,102,,
7591,note_off,,,,,13,0,1,,,0,,,57,64
7593,note_off,,,,,2,0,1,,,0,,,66,64
7593,note_off,,,,,0,0,1,,,0,,,69,64
7600,note_on,,,,,0,0,1,,,0,,,57,96
7600,note_on,,,,,7,0,1,,,0,,,69,103
7600,note_on,,,,,0,0,1,,,0,,,66,100
7628,control_change,,,,,28,0,1,,,0,7,101,,
7628,control_change,,,,,50,0,2,,,1,7,101,,
7670,note_off,,,,,42,0,1,,,0,,,57,64
7670,note_off,,,,,42,0,2,,,1,,,50,64
7670,note_off,,,,,0,0,1,,,0,,,69,64
7670,note_off,,,,,0,0,1,,,0,,,66,64
7674,note_off,,,,,4,0,2,,,1,,,38,64
7679,control_change,,,,,5,0,2,,,1,7,100,,
7679,control_change,,,,,9,0,1,,,0,7,100,,
7680,note_on,,,,,1,0,1,,,0,,,67,107
7680,note_on,,,,,1,0,2,,,1,,,43,103
7680,note_on,,,,,0,0,1,,,0,,,55,102
7754,note_off,,,,,74,0,1,,,0,,,55,64
7754,note_off,,,,,0,0,1,,,0,,,67,64
7760,note_on,,,,,6,0,1,,,0,,,67,103
7760,note_on,,,,,0,0,1,,,0,,,55,103
7830,note_off,,,,,70,0,1,,,0,,,55,64
7831,note_off,,,,,1,0,1,,,0,,,67,64
7840,note_on,,,,,9,0,1,,,0,,,67,97
7840,note_on,,,,,0,0,1,,,0,,,55,104
7910,note_off,,,,,70,0,1,,,0,,,55,64
7912,note_off,,,,,2,0,1,,,0,,,67,64
7913,note_off,,,,,233,0,2,,,1,,,43,64
7920,note_on,,,,,8,0,1,,,0,,,67,103
7920,note_on,,,,,0,0,1,,,0,,,55,103
7990,note_off,,,,,70,0,1,,,0,,,67,64
7992,note_off,,,,,2,0,1,,,0,,,55,64
8000,note_on,,,,,0,0,1,,,0,,,55,99
8000,note_on,,,,,8,0,1,,,0,,,67,100
8073,note_off,,,,,73,0,1,,,0,,,55,64
8073,note_off,,,,,0,0,1,,,0,,,67,64
8080,note_on,,,,,0,0,1,,,0,,,55,100
8080,note_on,,,,,7,0,1,,,0,,,67,101
8150,note_off,,,,,70,0,1,,,0,,,55,64
8152,note_off,,,,,2,0,1,,,0,,,67,64
8160,note_on,,,,,0,0,1,,,0,,,67,100
8160,note_on,,,,,8,0,1,,,0,,,55,106
8231,note_off,,,,,71,0,1,,,0,,,67,64
8232,note_off,,,,,1,0,1,,,0,,,55,64
8240,note_on,,,,,8,0,1,,,0,,,55,104
8240,note_on,,,,,0,0,1,,,0,,,67,99
8311,note_off,,,,,71,0,1,,,0,,,67,64
8313,note_off,,,,,2,0,1,,,0,,,55,64
8320,note_on,,,,,0,0,1,,,0,,,55,100
8320,note_on,,,,,7,0,1,,,0,,,67,97
8391,note_off,,,,,71,0,1,,,0,,,55,64
8392,note_off,,,,,1,0,1,,,0,,,67,64
8400,note_on,,,,,8,0,1,,,0,,,67,104
8400,note_on,,,,,0,0,1,,,0,,,55,96
8472,note_off,,,,,0,0,1,,,0,,,67,64
8472,note_off,,,,,72,0,1,,,0,,,55,64
8480,note_on,,,,,8,0,1,,,0,,,55,99
8480,note_on,,,,,0,0,1,,,0,,,67,100
8550,note_off,,,,,70,0,1,,,0,,,67,64
8553,note_off,,,,,3,0,1,,,0,,,55,64
8560,note_on,,,,,0,0,1,,,0,,,55,100
8560,note_on,,,,,7,0,1,,,0,,,67,97
8632,note_off,,,,,72,0,1,,,0,,,67,64
8634,note_off,,,,,2,0,1,,,0,,,55,64
8640,note_on,,,,,0,0,1,,,0,,,55,102
8640,note_on,,,,,727,0,2,,,1,,,43,101
8640,note_on,,,,,6,0,1,,,0,,,67,108
8640,note_on,,,,,0,0,2,,,1,,,31,101
8710,note_off,,,,,70,0,2,,,1,,,31,64
8713,note_off,,,,,73,0,1,,,0,,,67,64
8713,note_off,,,,,3,0,2,,,1,,,43,64
8714,note_off,,,,,1,0,1,,,0,,,55,64
8720,note_on,,,,,0,0,2,,,1,,,33,100
8720,note_on,,,,,7,0,2,,,1,,,45,101
8720,note_on,,,,,6,0,1,,,0,,,67,103
8720,note_on,,,,,0,0,1,,,0,,,55,97
8790,note_off,,,,,70,0,1,,,0,,,67,64
8791,note_off,,,,,1,0,1,,,0,,,55,64
8792,note_off,,,,,72,0,2,,,1,,,45,64
8793,note_off,,,,,1,0,2,,,1,,,33,64
8800,note_on,,,,,0,0,1,,,0,,,55,99
8800,note_on,,,,,7,0,2,,,1,,,46,103
8800,note_on,,,,,0,0,2,,,1,,,34,102
8800,note_on,,,,,9,0,1,,,0,,,67,99
8870,note_off,,,,,70,0,1,,,0,,,67,64
8872,note_off,,,,,72,0,2,,,1,,,46,64
8873,note_off,,,,,1,0,2,,,1,,,34,64
8874,note_off,,,,,4,0,1,,,0,,,55,64
8880,note_on,,,,,0,0,1,,,0,,,55,96
8880,note_on,,,,,0,0,2,,,1,,,36,98
8880,note_on,,,,,6,0,1,,,0,,,67,100
8880,note_on,,,,,7,0,2,,,1,,,48,102
8950,note_off,,,,,70,0,2,,,1,,,36,64
8952,note_off,,,,,72,0,1,,,0,,,67,64
8954,note_off,,,,,2,0,1,,,0,,,55,64
8954,note_off,,,,,4,0,2,,,1,,,48,64
8960,note_on,,,,,0,0,2,,,1,,,38,99
8960,note_on,,,,,0,0,1,,,0,,,55,102
8960,note_on,,,,,6,0,1,,,0,,,67,97
8960,note_on,,,,,6,0,2,,,1,,,50,104
9030,note_off,,,,,70,0,1,,,0,,,67,64
9031,note_off,,,,,71,0,2,,,1,,,50,64
9033,note_off,,,,,3,0,1,,,0,,,55,64
9034,note_off,,,,,3,0,2,,,1,,,38,64
9040,note_on,,,,,0,0,2,,,1,,,39,101
9040,note_on,,,,,6,0,2,,,1,,,51,104
9040,note_on,,,,,0,0,1,,,0,,,55,101
9040,note_on,,,,,7,0,1,,,0,,,67,98
9110,note_off,,,,,70,0,2,,,1,,,39,64
9110,note_off,,,,,70,0,1,,,0,,,67,64
9112,note_off,,,,,2,0,1,,,0,,,55,64
9113,note_off,,,,,3,0,2,,,1,,,51,64
9120,note_on,,,,,0,0,2,,,1,,,50,104
9120,note_on,,,,,7,0,2,,,1,,,38,99
9120,note_on,,,,,0,0,1,,,0,,,55,103
9120,note_on,,,,,8,0,1,,,0,,,67,104
9190,note_off,,,,,70,0,1,,,0,,,55,64
9194,note_off,,,,,4,0,1,,,0,,,67,64
9200,note_on,,,,,0,0,1,,,0,,,55,97
9200,note_on,,,,,6,0,1,,,0,,,67,103
9230,note_off,,,,,110,0,2,,,1,,,50,64
9234,note_off,,,,,4,0,2,,,1,,,38,64
9271,note_off,,,,,71,0,1,,,0,,,55,64
9274,note_off,,,,,3,0,1,,,0,,,67,64
9280,note_on,,,,,6,0,1,,,0,,,67,99
9280,note_on,,,,,0,0,1,,,0,,,55,103
9351,note_off,,,,,71,0,1,,,0,,,67,64
9353,note_off,,,,,2,0,1,,,0,,,55,64
9360,note_on,,,,,7,0,1,,,0,,,67,103
9360,note_on,,,,,0,0,1,,,0,,,55,103
9360,note_on,,,,,0,0,2,,,1,,,46,104
9360,note_on,,,,,126,0,2,,,1,,,34,97
9431,note_off,,,,,71,0,1,,,0,,,55,64
9432,note_off,,,,,1,0,1,,,0,,,67,64
9440,note_on,,,,,0,0,1,,,0,,,67,101
9440,note_on,,,,,8,0,1,,,0,,,55,99
9470,note_off,,,,,110,0,2,,,1,,,46,64
9473,note_off,,,,,3,0,2,,,1,,,34,64
9513,note_off,,,,,0,0,1,,,0,,,55,64
9513,note_off,,,,,73,0,1,,,0,,,67,64
9520,note_on,,,,,7,0,1,,,0,,,67,103
9520,note_on,,,,,0,0,1,,,0,,,55,101
9592,note_off,,,,,72,0,1,,,0,,,55,64
9592,note_off,,,,,0,0,1,,,0,,,67,64
9600,note_on,,,,,0,0,1,,,0,,,67,106
9600,note_on,,,,,0,0,2,,,1,,,43,108
9600,note_on,,,,,8,0,1,,,0,,,55,101
9600,note_on,,,,,127,0,2,,,1,,,31,105
9672,note_off,,,,,72,0,1,,,0,,,55,64
9673,note_off,,,,,1,0,1,,,0,,,67,64
9680,note_on,,,,,7,0,1,,,0,,,67,100
9680,note_on,,,,,0,0,1,,,0,,,55,98
9710,note_off,,,,,110,0,2,,,1,,,43,64
9710,note_off,,,,,0,0,2,,,1,,,31,64
9754,note_off,,,,,0,0,1,,,0,,,67,64
9754,note_off,,,,,74,0,1,,,0,,,55,64
9760,note_on,,,,,0,0,1,,,0,,,67,98
9760,note_on,,,,,6,0,1,,,0,,,55,100
9833,note_off,,,,,0,0,1,,,0,,,55,64
9833,note_off,,,,,73,0,1,,,0,,,67,64
9840,note_on,,,,,7,0,1,,,0,,,55,96
9840,note_on,,,,,0,0,1,,,0,,,67,96
9911,note_off,,,,,71,0,1,,,0,,,67,64
9912,note_off,,,,,1,0,1,,,0,,,55,64
9920,note_on,,,,,8,0,1,,,0,,,67,96
9920,note_on,,,,,0,0,1,,,0,,,55,99
9990,note_off,,,,,70,0,1,,,0,,,67,64
9993,note_off,,,,,3,0,1,,,0,,,55,64
10000,note_on,,,,,7,0,1,,,0,,,55,98
10000,note_on,,,,,0,0,1,,,0,,,67,97
10072,note_off,,,,,72,0,1,,,0,,,55,64
10074,note_off,,,,,2,0,1,,,0,,,67,64
10080,note_on,,,,,0,0,1,,,0,,,55,99
10080,note_on,,,,,6,0,1,,,0,,,67,104
10150,note_off,,,,,70,0,1,,,0,,,55,64
10151,note_off,,,,,1,0,1,,,0,,,67,64
10160,note_on,,,,,0,0,1,,,0,,,55,100
10160,note_on,,,,,9,0,1,,,0,,,67,101
10233,note_off,,,,,0,0,1,,,0,,,67,64
10233,note_off,,,,,73,0,1,,,0,,,55,64
10240,note_on,,,,,7,0,1,,,0,,,67,100
10240,note_on,,,,,0,0,1,,,0,,,55,104
10311,note_off,,,,,71,0,1,,,0,,,55,64
10312,note_off,,,,,1,0,1,,,0,,,67,64
10320,note_on,,,,,8,0,1,,,0,,,67,97
10320,note_on,,,,,0,0,1,,,0,,,55,99
10390,note_off,,,,,70,0,1,,,0,,,55,64
10392,note_off,,,,,2,0,1,,,0,,,67,64
10400,note_on,,,,,0,0,1,,,0,,,55,102
10400,note_on,,,,,8,0,1,,,0,,,67,96
10473,note_off,,,,,0,0,1,,,0,,,67,64
10473,note_off,,,,,73,0,1,,,0,,,55,64
10480,note_on,,,,,7,0,1,,,0,,,67,99
10480,note_on,,,,,0,0,1,,,0,,,55,100
10553,note_off,,,,,73,0,1,,,0,,,55,64
10553,note_off,,,,,0,0,1,,,0,,,67,64
10560,note_on,,,,,7,0,1,,,0,,,55,107
10560,note_on,,,,,0,0,2,,,1,,,31,101
10560,note_on,,,,,0,0,1,,,0,,,67,105
10560,note_on,,,,,850,0,2,,,1,,,43,102
10630,note_off,,,,,70,0,1,,,0,,,67,64
10632,note_off,,,,,0,0,2,,,1,,,43,64
10632,note_off,,,,,72,0,2,,,1,,,31,64
10634,note_off,,,,,4,0,1,,,0,,,55,64
10640,note_on,,,,,0,0,2,,,1,,,31,97
10640,note_on,,,,,0,0,1,,,0,,,67,100
10640,note_on,,,,,6,0,1,,,0,,,55,101
10640,note_on,,,,,8,0,2,,,1,,,45,99
10711,note_off,,,,,71,0,2,,,1,,,31,64
10712,note_off,,,,,1,0,2,,,1,,,45,64
10712,note_off,,,,,72,0,1,,,0,,,55,64
10714,note_off,,,,,2,0,1,,,0,,,67,64
10720,note_on,,,,,8,0,2,,,1,,,46,104
10720,note_on,,,,,0,0,2,,,1,,,34,104
10720,note_on,,,,,6,0,1,,,0,,,55,101
10720,note_on,,,,,0,0,1,,,0,,,67,98
10790,note_off,,,,,70,0,2,,,1,,,46,64
10791,note_off,,,,,1,0,2,,,1,,,34,64
10793,note_off,,,,,73,0,1,,,0,,,67,64
10794,note_off,,,,,1,0,1,,,0,,,55,64
10800,note_on,,,,,0,0,2,,,1,,,36,101
10800,note_on,,,,,6,0,1,,,0,,,67,98
10800,note_on,,,,,0,0,1,,,0,,,55,102
10800,note_on,,,,,9,0,2,,,1,,,48,96
10870,note_off,,,,,70,0,1,,,0,,,55,64
10870,note_off,,,,,70,0,2,,,1,,,48,64
10872,note_off,,,,,2,0,2,,,1,,,36,64
10873,note_off,,,,,3,0,1,,,0,,,67,64
10880,note_on,,,,,8,0,2,,,1,,,50,101
10880,note_on,,,,,7,0,1,,,0,,,55,100
10880,note_on,,,,,0,0,1,,,0,,,67,100
10880,note_on,,,,,0,0,2,,,1,,,38,102
10950,note_off,,,,,70,0,2,,,1,,,50,64
10951,note_off,,,,,1,0,2,,,1,,,38,64
10953,note_off,,,,,73,0,1,,,0,,,55,64
10954,note_off,,,,,1,0,1,,,0,,,67,64
10960,note_on,,,,,0,0,2,,,1,,,39,104
10960,note_on,,,,,6,0,1,,,0,,,55,99
10960,note_on,,,,,0,0,1,,,0,,,67,102
10960,note_on,,,,,9,0,2,,,1,,,51,99
11031,note_off,,,,,71,0,1,,,0,,,55,64
11032,note_off,,,,,1,0,1,,,0,,,67,64
11032,note_off,,,,,72,0,2,,,1,,,39,64
11034,note_off,,,,,2,0,2,,,1,,,51,64
11040,note_on,,,,,8,0,1,,,0,,,67,103
11040,note_on,,,,,0,0,2,,,1,,,50,102
11040,note_on,,,,,0,0,1,,,0,,,55,102
11040,note_on,,,,,6,0,2,,,1,,,38,105
11110,note_off,,,,,70,0,1,,,0,,,55,64
11111,note_off,,,,,1,0,1,,,0,,,67,64
11120,note_on,,,,,0,0,1,,,0,,,55,102
11120,note_on,,,,,9,0,1,,,0,,,67,103
11151,note_off,,,,,111,0,2,,,1,,,38,64
11154,note_off,,,,,3,0,2,,,1,,,50,64
11190,note_off,,,,,70,0,1,,,0,,,67,64
11194,note_off,,,,,4,0,1,,,0,,,55,64
11200,note_on,,,,,0,0,1,,,0,,,55,101
11200,note_on,,,,,6,0,1,,,0,,,67,98
11273,note_off,,,,,73,0,1,,,0,,,55,64
11274,note_off,,,,,1,0,1,,,0,,,67,64
11280,note_on,,,,,0,0,2,,,1,,,46,103
11280,note_on,,,,,0,0,1,,,0,,,55,97
11280,note_on,,,,,6,0,1,,,0,,,67,96
11280,note_on,,,,,126,0,2,,,1,,,34,103
11350,note_off,,,,,70,0,1,,,0,,,67,64
11351,note_off,,,,,1,0,1,,,0,,,55,64
11360,note_on,,,,,0,0,1,,,0,,,55,99
11360,note_on,,,,,9,0,1,,,0,,,67,101
11390,note_off,,,,,110,0,2,,,1,,,46,64
11394,note_off,,,,,4,0,2,,,1,,,34,64
11430,note_off,,,,,0,0,1,,,0,,,67,64
11430,note_off,,,,,70,0,1,,,0,,,55,64
11440,note_on,,,,,0,0,1,,,0,,,55,98
11440,note_on,,,,,10,0,1,,,0,,,67,104
11513,note_off,,,,,73,0,1,,,0,,,67,64
11514,note_off,,,,,1,0,1,,,0,,,55,64
11520,note_on,,,,,0,0,2,,,1,,,43,107
11520,note_on,,,,,0,0,1,,,0,,,67,103
11520,note_on,,,,,6,0,1,,,0,,,55,107
11520,note_on,,,,,126,0,2,,,1,,,29,107
11592,note_off,,,,,72,0,1,,,0,,,67,64
11592,note_off,,,,,0,0,1,,,0,,,55,64
11600,note_on,,,,,8,0,1,,,0,,,67,99
11600,note_on,,,,,0,0,1,,,0,,,55,97
11631,note_off,,,,,111,0,2,,,1,,,29,64
11633,note_off,,,,,2,0,2,,,1,,,43,64
11671,note_off,,,,,71,0,1,,,0,,,55,64
11672,note_off,,,,,1,0,1,,,0,,,67,64
11680,note_on,,,,,8,0,1,,,0,,,67,104
11680,note_on,,,,,0,0,1,,,0,,,55,97
11752,note_off,,,,,72,0,1,,,0,,,55,64
11752,note_off,,,,,0,0,1,,,0,,,67,64
11760,note_on,,,,,8,0,1,,,0,,,67,103
11760,note_on,,,,,0,0,1,,,0,,,55,97
11830,note_off,,,,,70,0,1,,,0,,,67,64
11831,note_off,,,,,1,0,1,,,0,,,55,64
11840,note_on,,,,,0,0,1,,,0,,,55,97
11840,note_on,,,,,9,0,1,,,0,,,67,98
11911,note_off,,,,,71,0,1,,,0,,,55,64
11913,note_off,,,,,2,0,1,,,0,,,67,64
11920,note_on,,,,,0,0,1,,,0,,,55,101
11920,note_on,,,,,7,0,1,,,0,,,67,97
11994,note_off,,,,,0,0,1,,,0,,,67,64
11994,note_off,,,,,74,0,1,,,0,,,55,64
12000,note_on,,,,,0,0,1,,,0,,,55,104
12000,note_on,,,,,6,0,1,,,0,,,67,104
12073,note_off,,,,,73,0,1,,,0,,,55,64
12074,note_off,,,,,1,0,1,,,0,,,67,64
12080,note_on,,,,,0,0,1,,,0,,,55,96
12080,note_on,,,,,6,0,1,,,0,,,67,98
12151,note_off,,,,,71,0,1,,,0,,,67,64
12154,note_off,,,,,3,0,1,,,0,,,55,64
12160,note_on,,,,,6,0,1,,,0,,,67,104
12160,note_on,,,,,0,0,1,,,0,,,55,97
12230,note_off,,,,,0,0,1,,,0,,,67,64
12230,note_off,,,,,70,0,1,,,0,,,55,64
12240,note_on,,,,,0,0,1,,,0,,,55,104
12240,note_on,,,,,10,0,1,,,0,,,67,101
12312,note_off,,,,,72,0,1,,,0,,,55,64
12313,note_off,,,,,1,0,1,,,0,,,67,64
12320,note_on,,,,,0,0,1,,,0,,,55,99
12320,note_on,,,,,7,0,1,,,0,,,67,98
12393,note_off,,,,,73,0,1,,,0,,,67,64
12394,note_off,,,,,1,0,1,,,0,,,55,64
12400,note_on,,,,,0,0,1,,,0,,,55,101
12400,note_on,,,,,6,0,1,,,0,,,67,99
12470,note_off,,,,,70,0,1,,,0,,,67,64
12474,note_off,,,,,4,0,1,,,0,,,55,64
12480,note_on,,,,,847,0,2,,,1,,,36,74
12480,note_on,,,,,0,0,2,,,1,,,48,72
12480,note_on,,,,,6,0,1,,,0,,,69,71
12480,note_on,,,,,0,0,1,,,0,,,57,75
12480,note_on,,,,,0,0,1,,,0,,,67,76
12550,note_off,,,,,70,0,1,,,0,,,57,64
12551,note_off,,,,,1,0,1,,,0,,,67,64
12553,note_off,,,,,2,0,1,,,0,,,69,64
12560,note_on,,,,,0,0,1,,,0,,,67,72
12560,note_on,,,,,7,0,1,,,0,,,69,70
12560,note_on,,,,,0,0,1,,,0,,,57,71
12631,note_off,,,,,71,0,1,,,0,,,57,64
12631,note_off,,,,,0,0,1,,,0,,,67,64
12632,note_off,,,,,1,0,1,,,0,,,69,64
12640,note_on,,,,,0,0,1,,,0,,,67,67
12640,note_on,,,,,0,0,1,,,0,,,57,72
12640,note_on,,,,,8,0,1,,,0,,,69,72
12712,note_off,,,,,72,0,1,,,0,,,67,64
12713,note_off,,,,,1,0,1,,,0,,,57,64
12714,note_off,,,,,1,0,1,,,0,,,69,64
12720,note_on,,,,,6,0,1,,,0,,,69,72
12720,note_on,,,,,0,0,1,,,0,,,57,73
12720,note_on,,,,,0,0,1,,,0,,,67,75
12790,note_off,,,,,70,0,1,,,0,,,69,64
12791,note_off,,,,,1,0,1,,,0,,,67,64
12792,note_off,,,,,1,0,1,,,0,,,57,64
12800,note_on,,,,,0,0,1,,,0,,,67,72
12800,note_on,,,,,0,0,1,,,0,,,69,75
12800,note_on,,,,,8,0,1,,,0,,,57,75
12872,note_off,,,,,0,0,1,,,0,,,57,64
12872,note_off,,,,,72,0,1,,,0,,,67,64
12873,note_off,,,,,1,0,1,,,0,,,69,64
12880,note_on,,,,,0,0,1,,,0,,,67,71
12880,note_on,,,,,0,0,1,,,0,,,57,68
12880,note_on,,,,,7,0,1,,,0,,,69,69
12951,note_off,,,,,71,0,1,,,0,,,69,64
12952,note_off,,,,,1,0,1,,,0,,,57,64
12953,note_off,,,,,1,0,1,,,0,,,67,64
12960,note_on,,,,,7,0,1,,,0,,,57,77
12960,note_on,,,,,0,0,1,,,0,,,67,74
12960,note_on,,,,,0,0,1,,,0,,,69,73
13030,note_off,,,,,70,0,1,,,0,,,67,64
13031,note_off,,,,,1,0,1,,,0,,,69,64
13033,note_off,,,,,2,0,1,,,0,,,57,64
13040,note_on,,,,,0,0,1,,,0,,,67,68
13040,note_on,,,,,0,0,1,,,0,,,57,71
13040,note_on,,,,,7,0,1,,,0,,,69,74
13110,note_off,,,,,70,0,1,,,0,,,67,64
13113,note_off,,,,,0,0,1,,,0,,,69,64
13113,note_off,,,,,3,0,1,,,0,,,57,64
13120,note_on,,,,,0,0,1,,,0,,,67,71
13120,note_on,,,,,7,0,1,,,0,,,69,67
13120,note_on,,,,,0,0,1,,,0,,,57,71
13192,note_off,,,,,72,0,1,,,0,,,57,64
13193,note_off,,,,,1,0,1,,,0,,,67,64
13194,note_off,,,,,1,0,1,,,0,,,69,64
13200,note_on,,,,,0,0,1,,,0,,,69,71
13200,note_on,,,,,0,0,1,,,0,,,57,75
13200,note_on,,,,,6,0,1,,,0,,,67,72
13271,note_off,,,,,71,0,1,,,0,,,69,64
13272,note_off,,,,,1,0,1,,,0,,,67,64
13273,note_off,,,,,1,0,1,,,0,,,57,64
13280,note_on,,,,,7,0,1,,,0,,,69,69
13280,note_on,,,,,0,0,1,,,0,,,57,73
13280,note_on,,,,,0,0,1,,,0,,,67,74
13351,note_off,,,,,71,0,1,,,0,,,67,64
13352,note_off,,,,,1,0,1,,,0,,,69,64
13354,note_off,,,,,2,0,1,,,0,,,57,64
13360,note_on,,,,,0,0,1,,,0,,,57,68
13360,note_on,,,,,6,0,1,,,0,,,69,67
13360,note_on,,,,,0,0,1,,,0,,,67,74
13430,note_off,,,,,70,0,1,,,0,,,67,64
13431,note_off,,,,,1,0,1,,,0,,,57,64
13431,note_off,,,,,951,0,2,,,1,,,48,64
13432,note_off,,,,,1,0,2,,,1,,,36,64
13433,note_off,,,,,2,0,1,,,0,,,69,64
13440,note_on,,,,,0,0,1,,,0,,,58,73
13440,note_on,,,,,0,0,2,,,1,,,49,71
13440,note_on,,,,,0,0,1,,,0,,,70,78
13440,note_on,,,,,7,0,1,,,0,,,67,73
13440,note_on,,,,,8,0,2,,,1,,,37,74
13510,note_off,,,,,70,0,1,,,0,,,67,64
13513,note_off,,,,,3,0,1,,,0,,,70,64
13514,note_off,,,,,1,0,1,,,0,,,58,64
13520,note_on,,,,,0,0,1,,,0,,,67,67
13520,note_on,,,,,0,0,1,,,0,,,58,67
13520,note_on,,,,,6,0,1,,,0,,,70,67
13590,note_off,,,,,70,0,1,,,0,,,67,64
13591,note_off,,,,,1,0,1,,,0,,,58,64
13593,note_off,,,,,2,0,1,,,0,,,70,64
13600,note_on,,,,,0,0,1,,,0,,,70,75
13600,note_on,,,,,7,0,1,,,0,,,67,72
13600,note_on,,,,,0,0,1,,,0,,,58,69
13670,note_off,,,,,70,0,1,,,0,,,70,64
13670,note_off,,,,,0,0,1,,,0,,,67,64
13673,note_off,,,,,3,0,1,,,0,,,58,64
13680,note_on,,,,,7,0,1,,,0,,,70,74
13680,note_on,,,,,0,0,1,,,0,,,58,73
13680,note_on,,,,,0,0,1,,,0,,,67,68
13752,note_off,,,,,72,0,1,,,0,,,58,64
13754,note_off,,,,,2,0,1,,,0,,,67,64
13754,note_off,,,,,0,0,1,,,0,,,70,64
13760,note_on,,,,,6,0,1,,,0,,,70,75
13760,note_on,,,,,0,0,1,,,0,,,67,70
13760,note_on,,,,,0,0,1,,,0,,,58,67
13830,note_off,,,,,70,0,1,,,0,,,58,64
13833,note_off,,,,,3,0,1,,,0,,,70,64
13834,note_off,,,,,1,0,1,,,0,,,67,64
13840,note_on,,,,,6,0,1,,,0,,,70,73
13840,note_on,,,,,0,0,1,,,0,,,58,67
13840,note_on,,,,,0,0,1,,,0,,,67,73
13910,note_off,,,,,70,0,1,,,0,,,70,64
13913,note_off,,,,,0,0,1,,,0,,,67,64
13913,note_off,,,,,3,0,1,,,0,,,58,64
13920,note_on,,,,,0,0,1,,,0,,,67,74
13920,note_on,,,,,0,0,1,,,0,,,70,76
13920,note_on,,,,,7,0,1,,,0,,,58,77
13990,note_off,,,,,70,0,1,,,0,,,67,64
13990,note_off,,,,,0,0,1,,,0,,,70,64
13991,note_off,,,,,1,0,1,,,0,,,58,64
14000,note_on,,,,,9,0,1,,,0,,,58,72
14000,note_on,,,,,0,0,1,,,0,,,70,67
14000,note_on,,,,,0,0,1,,,0,,,67,67
14071,note_off,,,,,0,0,1,,,0,,,70,64
14071,note_off,,,,,71,0,1,,,0,,,67,64
14073,note_off,,,,,2,0,1,,,0,,,58,64
14080,note_on,,,,,0,0,1,,,0,,,67,72
14080,note_on,,,,,7,0,1,,,0,,,70,75
14080,note_on,,,,,0,0,1,,,0,,,58,69
14151,note_off,,,,,71,0,1,,,0,,,70,64
14153,note_off,,,,,2,0,1,,,0,,,67,64
14154,note_off,,,,,1,0,1,,,0,,,58,64
14160,note_on,,,,,0,0,1,,,0,,,58,72
14160,note_on,,,,,0,0,1,,,0,,,64,67
14160,note_on,,,,,6,0,1,,,0,,,67,67
14232,note_off,,,,,72,0,1,,,0,,,64,64
14233,note_off,,,,,1,0,1,,,0,,,58,64
14234,note_off,,,,,1,0,1,,,0,,,67,64
14240,note_on,,,,,0,0,1,,,0,,,64,72
14240,note_on,,,,,6,0,1,,,0,,,67,68
14240,note_on,,,,,0,0,1,,,0,,,58,72
14310,note_off,,,,,70,0,1,,,0,,,58,64
14313,note_off,,,,,3,0,1,,,0,,,67,64
14314,note_off,,,,,1,0,1,,,0,,,64,64
14320,note_on,,,,,6,0,1,,,0,,,67,68
14320,note_on,,,,,0,0,1,,,0,,,64,71
14320,note_on,,,,,0,0,1,,,0,,,58,74
14391,note_off,,,,,951,0,2,,,1,,,37,64
14391,note_off,,,,,71,0,1,,,0,,,64,64
14392,note_off,,,,,1,0,2,,,1,,,49,64
14392,note_off,,,,,1,0,1,,,0,,,58,64
14393,note_off,,,,,1,0,1,,,0,,,67,64
14400,note_on,,,,,7,0,1,,,0,,,62,72
14400,note_on,,,,,0,0,1,,,0,,,57,74
14400,note_on,,,,,0,0,1,,,0,,,66,77
14400,note_on,,,,,8,0,2,,,1,,,38,79
14470,note_off,,,,,70,0,1,,,0,,,66,64
14470,note_off,,,,,0,0,1,,,0,,,62,64
14474,note_off,,,,,4,0,1,,,0,,,57,64
14474,note_off,,,,,74,0,2,,,1,,,38,64
14480,note_on,,,,,0,0,1,,,0,,,57,67
14480,note_on,,,,,0,0,1,,,0,,,62,74
14480,note_on,,,,,6,0,1,,,0,,,66,75
14480,note_on,,,,,6,0,2,,,1,,,42,73
14551,note_off,,,,,71,0,1,,,0,,,57,64
14552,note_off,,,,,0,0,1,,,0,,,66,64
14552,note_off,,,,,72,0,2,,,1,,,42,64
14552,note_off,,,,,1,0,1,,,0,,,62,64
14560,note_on,,,,,0,0,1,,,0,,,66,68
14560,note_on,,,,,8,0,1,,,0,,,57,74
14560,note_on,,,,,0,0,1,,,0,,,62,75
14560,note_on,,,,,8,0,2,,,1,,,43,72
14630,note_off,,,,,70,0,2,,,1,,,43,64
14631,note_off,,,,,71,0,1,,,0,,,62,64
14631,note_off,,,,,0,0,1,,,0,,,66,64
14632,note_off,,,,,1,0,1,,,0,,,57,64
14640,note_on,,,,,10,0,2,,,1,,,45,75
14640,note_on,,,,,8,0,1,,,0,,,66,71
14640,note_on,,,,,0,0,1,,,0,,,57,70
14640,note_on,,,,,0,0,1,,,0,,,62,73
14710,note_off,,,,,0,0,1,,,0,,,66,64
14710,note_off,,,,,70,0,1,,,0,,,57,64
14714,note_off,,,,,74,0,2,,,1,,,45,64
14714,note_off,,,,,4,0,1,,,0,,,62,64
14720,note_on,,,,,6,0,2,,,1,,,47,71
14720,note_on,,,,,6,0,1,,,0,,,62,70
14720,note_on,,,,,0,0,1,,,0,,,57,73
14720,note_on,,,,,0,0,1,,,0,,,66,71
14791,note_off,,,,,71,0,1,,,0,,,62,64
14792,note_off,,,,,72,0,2,,,1,,,47,64
14793,note_off,,,,,2,0,1,,,0,,,66,64
14794,note_off,,,,,1,0,1,,,0,,,57,64
14800,note_on,,,,,8,0,2,,,1,,,49,71
14800,note_on,,,,,6,0,1,,,0,,,66,71
14800,note_on,,,,,0,0,1,,,0,,,62,72
14800,note_on,,,,,0,0,1,,,0,,,57,73
14870,note_off,,,,,70,0,2,,,1,,,49,64
14873,note_off,,,,,73,0,1,,,0,,,57,64
14873,note_off,,,,,0,0,1,,,0,,,62,64
14873,note_off,,,,,0,0,1,,,0,,,66,64
14880,note_on,,,,,0,0,1,,,0,,,66,72
14880,note_on,,,,,0,0,1,,,0,,,57,76
14880,note_on,,,,,7,0,1,,,0,,,69,70
14880,note_on,,,,,10,0,2,,,1,,,50,73
14951,note_off,,,,,0,0,1,,,0,,,69,64
14951,note_off,,,,,71,0,1,,,0,,,57,64
14954,note_off,,,,,3,0,1,,,0,,,66,64
14960,note_on,,,,,0,0,1,,,0,,,57,71
14960,note_on,,,,,0,0,1,,,0,,,69,67
14960,note_on,,,,,6,0,1,,,0,,,66,71
15031,note_off,,,,,71,0,1,,,0,,,69,64
15031,note_off,,,,,0,0,1,,,0,,,57,64
15034,note_off,,,,,3,0,1,,,0,,,66,64
15040,note_on,,,,,6,0,1,,,0,,,66,72
15040,note_on,,,,,0,0,1,,,0,,,57,67
15040,note_on,,,,,0,0,1,,,0,,,69,72
15110,note_off,,,,,70,0,1,,,0,,,69,64
15112,note_off,,,,,2,0,1,,,0,,,66,64
15112,note_off,,,,,232,0,2,,,1,,,50,64
15114,note_off,,,,,2,0,1,,,0,,,57,64
15120,note_on,,,,,8,0,2,,,1,,,57,69
15120,note_on,,,,,0,0,2,,,1,,,69,68
15200,note_on,,,,,86,0,1,,,0,,,66,81
15200,note_on,,,,,0,0,1,,,0,,,62,80
15270,note_off,,,,,70,0,1,,,0,,,66,64
15272,note_off,,,,,2,0,1,,,0,,,62,64
15280,note_on,,,,,8,0,1,,,0,,,66,83
15280,note_on,,,,,0,0,1,,,0,,,62,85
15350,note_off,,,,,70,0,1,,,0,,,62,64
15352,note_off,,,,,2,0,1,,,0,,,66,64
15353,note_off,,,,,233,0,2,,,1,,,69,64
15354,note_off,,,,,1,0,2,,,1,,,57,64
15360,set_tempo,,,,,14400,1,0,476190,,,,,,
15360,note_on,,,,,6,0,2,,,1,,,70,89
15360,note_on,,,,,0,0,2,,,1,,,58,88
15440,note_on,,,,,88,0,1,,,0,,,67,78
15440,note_on,,,,,0,0,1,,,0,,,62,81
15511,note_off,,,,,71,0,1,,,0,,,67,64
15514,note_off,,,,,3,0,1,,,0,,,62,64
15520,note_on,,,,,6,0,1,,,0,,,62,79
15520,note_on,,,,,0,0,1,,,0,,,67,79
15590,note_off,,,,,70,0,1,,,0,,,67,64
15591,note_off,,,,,1,0,1,,,0,,,62,64
15600,note_on,,,,,0,0,1,,,0,,,62,85
15600,note_on,,,,,9,0,1,,,0,,,67,85
15670,note_off,,,,,70,0,1,,,0,,,67,64
15674,note_off,,,,,4,0,1,,,0,,,62,64
15680,note_on,,,,,0,0,1,,,0,,,62,82
15680,note_on,,,,,6,0,1,,,0,,,67,80
15750,note_off,,,,,0,0,1,,,0,,,67,64
15750,note_off,,,,,70,0,1,,,0,,,62,64
15760,note_on,,,,,0,0,1,,,0,,,62,79
15760,note_on,,,,,10,0,1,,,0,,,67,78
15830,note_off,,,,,70,0,1,,,0,,,67,64
15831,note_off,,,,,1,0,1,,,0,,,62,64
15832,note_off,,,,,472,0,2,,,1,,,58,64
15832,note_off,,,,,0,0,2,,,1,,,70,64
15840,note_on,,,,,0,0,2,,,1,,,69,86
15840,note_on,,,,,8,0,2,,,1,,,57,80
15920,note_on,,,,,0,0,1,,,0,,,58,83
15920,note_on,,,,,89,0,1,,,0,,,62,78
15991,note_off,,,,,71,0,1,,,0,,,58,64
15994,note_off,,,,,3,0,1,,,0,,,62,64
16000,note_on,,,,,6,0,1,,,0,,,58,83
16000,note_on,,,,,0,0,1,,,0,,,62,78
16072,note_off,,,,,72,0,1,,,0,,,58,64
16072,note_off,,,,,232,0,2,,,1,,,69,64
16074,note_off,,,,,2,0,1,,,0,,,62,64
16074,note_off,,,,,2,0,2,,,1,,,57,64
16080,note_on,,,,,6,0,2,,,1,,,67,79
16080,note_on,,,,,0,0,2,,,1,,,55,81
16160,note_on,,,,,0,0,1,,,0,,,58,79
16160,note_on,,,,,86,0,1,,,0,,,62,81
16232,note_off,,,,,72,0,1,,,0,,,58,64
16234,note_off,,,,,2,0,1,,,0,,,62,64
16240,note_on,,,,,0,0,1,,,0,,,62,78
16240,note_on,,,,,6,0,1,,,0,,,58,83
16311,note_off,,,,,231,0,2,,,1,,,67,64
16313,note_off,,,,,73,0,1,,,0,,,62,64
16314,note_off,,,,,3,0,2,,,1,,,55,64
16314,note_off,,,,,1,0,1,,,0,,,58,64
16320,note_on,,,,,6,0,1,,,0,,,57,89
16320,control_change,,,,,6,0,2,,,1,7,101,,
16320,control_change,,,,,0,0,1,,,0,7,101,,
16320,note_on,,,,,0,0,2,,,1,,,38,82
16320,note_on,,,,,0,0,1,,,0,,,66,85
16320,note_on,,,,,0,0,1,,,0,,,69,87
16320,note_on,,,,,0,0,1,,,0,,,62,84
16373,control_change,,,,,53,0,2,,,1,7,102,,
16373,control_change,,,,,53,0,1,,,0,7,102,,
16390,note_off,,,,,17,0,1,,,0,,,66,64
16392,note_off,,,,,2,0,1,,,0,,,62,64
16393,note_off,,,,,20,0,2,,,1,,,38,64
16400,note_on,,,,,8,0,1,,,0,,,62,77
16400,note_on,,,,,0,0,1,,,0,,,66,83
16400,note_on,,,,,7,0,2,,,1,,,42,81
16426,control_change,,,,,26,0,2,,,1,7,103,,
16426,control_change,,,,,26,0,1,,,0,7,103,,
16470,note_off,,,,,44,0,2,,,1,,,42,64
16471,note_off,,,,,45,0,1,,,0,,,66,64
16474,note_off,,,,,3,0,1,,,0,,,62,64
16479,control_change,,,,,9,0,2,,,1,7,104,,
16479,control_change,,,,,5,0,1,,,0,7,104,,
16480,note_on,,,,,0,0,1,,,0,,,66,80
16480,note_on,,,,,1,0,1,,,0,,,62,77
16480,note_on,,,,,1,0,2,,,1,,,43,79
16532,control_change,,,,,52,0,1,,,0,7,105,,
16532,control_change,,,,,52,0,2,,,1,7,105,,
16551,note_off,,,,,19,0,1,,,0,,,62,64
16552,note_off,,,,,1,0,1,,,0,,,66,64
16552,note_off,,,,,20,0,2,,,1,,,43,64
16560,note_on,,,,,8,0,1,,,0,,,62,77
16560,note_on,,,,,8,0,2,,,1,,,45,81
16560,note_on,,,,,0,0,1,,,0,,,66,78
16586,control_change,,,,,26,0,1,,,0,7,106,,
16586,control_change,,,,,26,0,2,,,1,7,106,,
16630,note_off,,,,,44,0,2,,,1,,,45,64
16631,note_off,,,,,45,0,1,,,0,,,62,64
16633,note_off,,,,,2,0,1,,,0,,,66,64
16639,control_change,,,,,9,0,2,,,1,7,107,,
16639,control_change,,,,,6,0,1,,,0,7,107,,
16640,note_on,,,,,0,0,1,,,0,,,66,77
16640,note_on,,,,,1,0,2,,,1,,,47,81
16640,note_on,,,,,1,0,1,,,0,,,62,81
16692,control_change,,,,,52,0,2,,,1,7,108,,
16692,control_change,,,,,52,0,1,,,0,7,108,,
16711,note_off,,,,,19,0,2,,,1,,,47,64
16712,note_off,,,,,20,0,1,,,0,,,66,64
16714,note_off,,,,,2,0,1,,,0,,,62,64
16720,note_on,,,,,6,0,1,,,0,,,62,78
16720,note_on,,,,,9,0,2,,,1,,,49,84
16720,note_on,,,,,0,0,1,,,0,,,66,80
16745,control_change,,,,,25,0,1,,,0,7,109,,
16745,control_change,,,,,25,0,2,,,1,7,109,,
16790,note_off,,,,,45,0,1,,,0,,,66,64
16792,note_off,,,,,47,0,2,,,1,,,49,64
16794,note_off,,,,,4,0,1,,,0,,,62,64
16799,control_change,,,,,5,0,1,,,0,7,110,,
16799,control_change,,,,,7,0,2,,,1,7,110,,
16800,note_on,,,,,0,0,1,,,0,,,66,80
16800,note_on,,,,,1,0,2,,,1,,,50,87
16800,note_on,,,,,1,0,1,,,0,,,62,86
16873,note_off,,,,,73,0,1,,,0,,,66,64
16874,note_off,,,,,1,0,1,,,0,,,62,64
16880,note_on,,,,,0,0,1,,,0,,,66,83
16880,note_on,,,,,6,0,1,,,0,,,62,79
16952,note_off,,,,,72,0,1,,,0,,,66,64
16953,note_off,,,,,1,0,1,,,0,,,62,64
16960,note_on,,,,,0,0,1,,,0,,,66,81
16960,note_on,,,,,7,0,1,,,0,,,62,82
17030,note_off,,,,,70,0,1,,,0,,,62,64
17031,note_off,,,,,0,0,1,,,0,,,57,64
17031,note_off,,,,,0,0,1,,,0,,,69,64
17031,note_off,,,,,1,0,1,,,0,,,66,64
17033,note_off,,,,,233,0,2,,,1,,,50,64
17040,note_on,,,,,9,0,1,,,0,,,62,78
17040,note_on,,,,,0,0,1,,,0,,,66,83
17040,note_on,,,,,7,0,2,,,1,,,69,80
17040,note_on,,,,,0,0,2,,,1,,,57,79
17110,note_off,,,,,70,0,1,,,0,,,66,64
17111,note_off,,,,,1,0,1,,,0,,,62,64
17120,note_on,,,,,9,0,1,,,0,,,62,84
17120,note_on,,,,,0,0,1,,,0,,,66,80
17190,note_off,,,,,70,0,1,,,0,,,66,64
17192,note_off,,,,,2,0,1,,,0,,,62,64
17200,note_on,,,,,8,0,1,,,0,,,66,78
17200,note_on,,,,,0,0,1,,,0,,,62,78
17271,note_off,,,,,231,0,2,,,1,,,69,64
17273,note_off,,,,,73,0,1,,,0,,,66,64
17274,note_off,,,,,1,0,1,,,0,,,62,64
17274,note_off,,,,,3,0,2,,,1,,,57,64
17280,note_on,,,,,0,0,2,,,1,,,70,87
17280,note_on,,,,,6,0,2,,,1,,,58,82
17360,note_on,,,,,0,0,1,,,0,,,67,84
17360,note_on,,,,,86,0,1,,,0,,,62,77
17430,note_off,,,,,70,0,1,,,0,,,62,64
17434,note_off,,,,,4,0,1,,,0,,,67,64
17440,note_on,,,,,6,0,1,,,0,,,67,79
17440,note_on,,,,,0,0,1,,,0,,,62,81
17513,note_off,,,,,0,0,1,,,0,,,67,64
17513,note_off,,,,,73,0,1,,,0,,,62,64
17520,note_on,,,,,0,0,1,,,0,,,62,81
17520,note_on,,,,,7,0,1,,,0,,,67,83
17592,note_off,,,,,72,0,1,,,0,,,62,64
17594,note_off,,,,,2,0,1,,,0,,,67,64
17600,note_on,,,,,0,0,1,,,0,,,62,81
17600,note_on,,,,,6,0,1,,,0,,,67,80
17670,note_off,,,,,70,0,1,,,0,,,62,64
17673,note_off,,,,,3,0,1,,,0,,,67,64
17680,note_on,,,,,7,0,1,,,0,,,67,79
17680,note_on,,,,,0,0,1,,,0,,,62,85
17752,note_off,,,,,472,0,2,,,1,,,70,64
17753,note_off,,,,,0,0,1,,,0,,,67,64
17753,note_off,,,,,1,0,2,,,1,,,58,64
17753,note_off,,,,,73,0,1,,,0,,,62,64
17760,note_on,,,,,0,0,2,,,1,,,67,78
17760,note_on,,,,,7,0,2,,,1,,,55,85
17840,note_on,,,,,0,0,1,,,0,,,62,85
17840,note_on,,,,,87,0,1,,,0,,,58,81
17910,note_off,,,,,70,0,1,,,0,,,62,64
17913,note_off,,,,,3,0,1,,,0,,,58,64
17920,note_on,,,,,7,0,1,,,0,,,62,78
17920,note_on,,,,,0,0,1,,,0,,,58,81
17993,note_off,,,,,73,0,1,,,0,,,58,64
17994,note_off,,,,,1,0,1,,,0,,,62,64
18000,note_on,,,,,6,0,1,,,0,,,58,82
18000,note_on,,,,,0,0,1,,,0,,,62,82
18070,note_off,,,,,70,0,1,,,0,,,62,64
18073,note_off,,,,,3,0,1,,,0,,,58,64
18080,note_on,,,,,0,0,1,,,0,,,58,82
18080,note_on,,,,,7,0,1,,,0,,,62,85
18152,note_off,,,,,72,0,1,,,0,,,62,64
18154,note_off,,,,,2,0,1,,,0,,,58,64
18160,note_on,,,,,6,0,1,,,0,,,58,77
18160,note_on,,,,,0,0,1,,,0,,,62,80
18230,note_off,,,,,70,0,1,,,0,,,58,64
18231,note_off,,,,,1,0,1,,,0,,,62,64
18231,note_off,,,,,471,0,2,,,1,,,55,64
18232,note_off,,,,,1,0,2,,,1,,,67,64
18240,note_on,,,,,0,0,1,,,0,,,74,89
18240,note_on,,,,,0,0,2,,,1,,,38,82
18240,control_change,,,,,8,0,2,,,1,7,111,,
18240,note_on,,,,,9,0,1,,,0,,,66,88
18240,note_on,,,,,0,0,1,,,0,,,62,81
18240,control_change,,,,,0,0,1,,,0,7,111,,
18308,control_change,,,,,68,0,2,,,1,7,112,,
18308,control_change,,,,,68,0,1,,,0,7,112,,
18310,note_off,,,,,2,0,1,,,0,,,66,64
18312,note_off,,,,,4,0,2,,,1,,,38,64
18320,note_on,,,,,8,0,2,,,1,,,42,78
18320,note_on,,,,,0,0,1,,,0,,,62,85
18320,note_on,,,,,0,0,1,,,0,,,57,81
18320,note_on,,,,,10,0,1,,,0,,,66,78
18376,control_change,,,,,56,0,2,,,1,7,113,,
18376,control_change,,,,,56,0,1,,,0,7,113,,
18391,note_off,,,,,15,0,1,,,0,,,66,64
18391,note_off,,,,,15,0,2,,,1,,,42,64
18391,note_off,,,,,0,0,1,,,0,,,62,64
18394,note_off,,,,,3,0,1,,,0,,,57,64
18400,note_on,,,,,6,0,1,,,0,,,66,78
18400,note_on,,,,,0,0,1,,,0,,,62,80
18400,note_on,,,,,0,0,1,,,0,,,57,85
18400,note_on,,,,,9,0,2,,,1,,,43,80
18445,control_change,,,,,45,0,1,,,0,7,114,,
18445,control_change,,,,,45,0,2,,,1,7,114,,
18470,note_off,,,,,25,0,1,,,0,,,62,64
18471,note_off,,,,,1,0,1,,,0,,,57,64
18473,note_off,,,,,28,0,2,,,1,,,43,64
18473,note_off,,,,,2,0,1,,,0,,,66,64
18480,note_on,,,,,7,0,1,,,0,,,57,80
18480,note_on,,,,,7,0,2,,,1,,,45,85
18480,note_on,,,,,0,0,1,,,0,,,62,81
18480,note_on,,,,,0,0,1,,,0,,,66,84
18513,control_change,,,,,33,0,1,,,0,7,115,,
18513,control_change,,,,,33,0,2,,,1,7,115,,
18551,note_off,,,,,38,0,1,,,0,,,57,64
18552,note_off,,,,,1,0,1,,,0,,,62,64
18552,note_off,,,,,39,0,2,,,1,,,45,64
18554,note_off,,,,,2,0,1,,,0,,,66,64
18560,note_on,,,,,0,0,1,,,0,,,62,79
18560,note_on,,,,,0,0,1,,,0,,,57,80
18560,note_on,,,,,6,0,1,,,0,,,66,80
18560,note_on,,,,,8,0,2,,,1,,,47,85
18582,control_change,,,,,22,0,1,,,0,7,116,,
18582,control_change,,,,,22,0,2,,,1,7,116,,
18630,note_off,,,,,48,0,1,,,0,,,66,64
18632,note_off,,,,,2,0,1,,,0,,,57,64
18632,note_off,,,,,50,0,2,,,1,,,47,64
18634,note_off,,,,,2,0,1,,,0,,,62,64
18640,note_on,,,,,0,0,1,,,0,,,62,79
18640,note_on,,,,,8,0,2,,,1,,,49,79
18640,note_on,,,,,0,0,1,,,0,,,66,80
18640,note_on,,,,,6,0,1,,,0,,,57,77
18650,control_change,,,,,10,0,2,,,1,7,117,,
18650,control_change,,,,,10,0,1,,,0,7,117,,
18710,note_off,,,,,0,0,1,,,0,,,57,64
18710,note_off,,,,,60,0,1,,,0,,,62,64
18713,note_off,,,,,3,0,1,,,0,,,66,64
18714,note_off,,,,,64,0,2,,,1,,,49,64
18719,control_change,,,,,5,0,2,,,1,7,118,,
18719,control_change,,,,,6,0,1,,,0,7,118,,
18720,note_on,,,,,1,0,1,,,0,,,66,80
18720,note_on,,,,,1,0,2,,,1,,,50,87
18720,note_on,,,,,0,0,1,,,0,,,57,87
18720,note_on,,,,,0,0,1,,,0,,,62,81
18793,note_off,,,,,73,0,1,,,0,,,62,64
18794,note_off,,,,,0,0,1,,,0,,,66,64
18794,note_off,,,,,1,0,1,,,0,,,57,64
18800,note_on,,,,,0,0,1,,,0,,,62,81
18800,note_on,,,,,0,0,1,,,0,,,66,78
18800,note_on,,,,,6,0,1,,,0,,,57,77
18870,note_off,,,,,70,0,1,,,0,,,62,64
18871,note_off,,,,,1,0,1,,,0,,,57,64
18872,note_off,,,,,1,0,1,,,0,,,66,64
18880,note_on,,,,,0,0,1,,,0,,,57,79
18880,note_on,,,,,0,0,1,,,0,,,62,78
18880,note_on,,,,,8,0,1,,,0,,,66,80
18950,note_off,,,,,70,0,1,,,0,,,62,64
18952,note_off,,,,,2,0,1,,,0,,,57,64
18953,note_off,,,,,1,0,1,,,0,,,66,64
18960,note_on,,,,,0,0,1,,,0,,,57,77
18960,note_on,,,,,0,0,1,,,0,,,66,84
18960,note_on,,,,,7,0,1,,,0,,,62,84
19030,note_off,,,,,70,0,1,,,0,,,66,64
19031,note_off,,,,,1,0,1,,,0,,,62,64
19034,note_off,,,,,3,0,1,,,0,,,57,64
19040,note_on,,,,,0,0,1,,,0,,,57,82
19040,note_on,,,,,0,0,1,,,0,,,62,82
19040,note_on,,,,,6,0,1,,,0,,,66,78
19110,note_off,,,,,70,0,1,,,0,,,57,64
19111,note_off,,,,,0,0,1,,,0,,,66,64
19111,note_off,,,,,1,0,1,,,0,,,62,64
19120,note_on,,,,,0,0,1,,,0,,,57,80
19120,note_on,,,,,0,0,1,,,0,,,62,85
19120,note_on,,,,,9,0,1,,,0,,,66,82
19190,note_off,,,,,470,0,2,,,1,,,50,64
19190,note_off,,,,,70,0,1,,,0,,,66,64
19193,note_off,,,,,0,0,1,,,0,,,57,64
19193,note_off,,,,,3,0,1,,,0,,,62,64
19194,note_off,,,,,0,0,1,,,0,,,74,64
19194,note_off,,,,,1,0,1,,,0,,,62,64
19200,note_on,,,,,0,0,1,,,0,,,62,88
19200,note_on,,,,,0,0,1,,,0,,,55,89
19200,note_on,,,,,10,0,2,,,1,,,50,88
19200,note_on,,,,,6,0,1,,,0,,,66,85
19270,note_off,,,,,70,0,1,,,0,,,55,64
19273,note_off,,,,,3,0,1,,,0,,,62,64
19274,note_off,,,,,1,0,1,,,0,,,66,64
19280,note_on,,,,,0,0,1,,,0,,,66,78
19280,note_on,,,,,0,0,1,,,0,,,62,81
19280,note_on,,,,,6,0,1,,,0,,,55,82
19353,note_off,,,,,0,0,1,,,0,,,55,64
19353,note_off,,,,,73,0,1,,,0,,,62,64
19354,note_off,,,,,1,0,1,,,0,,,66,64
19360,note_on,,,,,6,0,1,,,0,,,66,84
19360,note_on,,,,,0,0,1,,,0,,,55,80
19360,note_on,,,,,0,0,1,,,0,,,62,82
19430,note_off,,,,,230,0,2,,,1,,,50,64
19432,note_off,,,,,72,0,1,,,0,,,66,64
19433,note_off,,,,,1,0,1,,,0,,,62,64
19434,note_off,,,,,1,0,1,,,0,,,55,64
19440,note_on,,,,,0,0,2,,,1,,,57,80
19440,note_on,,,,,0,0,2,,,1,,,62,85
19440,note_on,,,,,10,0,2,,,1,,,66,79
19510,note_off,,,,,0,0,2,,,1,,,66,64
19510,note_off,,,,,70,0,2,,,1,,,62,64
19511,note_off,,,,,1,0,2,,,1,,,57,64
19520,note_on,,,,,9,0,2,,,1,,,66,77
19520,note_on,,,,,0,0,2,,,1,,,57,78
19520,note_on,,,,,0,0,2,,,1,,,62,78
19591,note_off,,,,,71,0,2,,,1,,,66,64
19592,note_off,,,,,1,0,2,,,1,,,62,64
19593,note_off,,,,,1,0,2,,,1,,,57,64
19600,note_on,,,,,7,0,2,,,1,,,66,79
19600,note_on,,,,,0,0,2,,,1,,,62,82
19600,note_on,,,,,0,0,2,,,1,,,57,80
19670,note_off,,,,,70,0,2,,,1,,,62,64
19672,note_off,,,,,0,0,2,,,1,,,66,64
19672,note_off,,,,,2,0,2,,,1,,,57,64
19680,note_on,,,,,0,0,2,,,1,,,57,87
19680,note_on,,,,,0,0,2,,,1,,,62,81
19680,note_on,,,,,8,0,2,,,1,,,66,83
19751,note_off,,,,,71,0,2,,,1,,,57,64
19754,note_off,,,,,0,0,2,,,1,,,66,64
19754,note_off,,,,,3,0,2,,,1,,,62,64
19760,note_on,,,,,6,0,2,,,1,,,66,77
19760,note_on,,,,,0,0,2,,,1,,,57,79
19760,note_on,,,,,0,0,2,,,1,,,62,85
19830,note_off,,,,,70,0,2,,,1,,,57,64
19831,note_off,,,,,1,0,2,,,1,,,62,64
19834,note_off,,,,,3,0,2,,,1,,,66,64
19840,note_on,,,,,6,0,2,,,1,,,66,84
19840,note_on,,,,,0,0,2,,,1,,,57,77
19840,note_on,,,,,0,0,2,,,1,,,62,80
19910,note_off,,,,,70,0,2,,,1,,,62,64
19913,note_off,,,,,3,0,2,,,1,,,66,64
19914,note_off,,,,,1,0,2,,,1,,,57,64
19920,note_on,,,,,0,0,2,,,1,,,57,79
19920,note_on,,,,,0,0,2,,,1,,,62,80
19920,note_on,,,,,6,0,2,,,1,,,66,82
19920,note_on,,,,,486,0,1,,,0,,,74,80
19990,note_off,,,,,70,0,2,,,1,,,62,64
19991,note_off,,,,,1,0,2,,,1,,,57,64
19992,note_off,,,,,1,0,2,,,1,,,66,64
20000,note_on,,,,,0,0,2,,,1,,,57,85
20000,note_on,,,,,0,0,2,,,1,,,66,80
20000,note_on,,,,,8,0,2,,,1,,,62,77
20071,note_off,,,,,71,0,2,,,1,,,62,64
20072,note_off,,,,,1,0,2,,,1,,,57,64
20074,note_off,,,,,2,0,2,,,1,,,66,64
20080,note_on,,,,,6,0,2,,,1,,,66,77
20080,note_on,,,,,0,0,2,,,1,,,57,81
20080,note_on,,,,,0,0,2,,,1,,,62,85
20150,note_off,,,,,70,0,2,,,1,,,57,64
20150,note_off,,,,,0,0,2,,,1,,,66,64
20150,note_off,,,,,230,0,1,,,0,,,74,64
20152,note_off,,,,,2,0,2,,,1,,,62,64
20160,control_change,,,,,8,0,2,,,1,7,119,,
20160,control_change,,,,,0,0,1,,,0,7,119,,
20160,note_on,,,,,0,0,2,,,1,,,43,85
20160,note_on,,,,,10,0,1,,,0,,,74,81
20240,note_on,,,,,0,0,2,,,1,,,59,85
20240,note_on,,,,,80,0,1,,,0,,,65,83
20240,note_on,,,,,80,0,2,,,1,,,62,83
20240,note_on,,,,,0,0,1,,,0,,,67,78
20279,control_change,,,,,39,0,1,,,0,7,120,,
20279,control_change,,,,,39,0,2,,,1,7,120,,
20311,note_off,,,,,32,0,2,,,1,,,59,64
20312,note_off,,,,,0,0,1,,,0,,,65,64
20312,note_off,,,,,33,0,1,,,0,,,67,64
20313,note_off,,,,,2,0,2,,,1,,,62,64
20320,note_on,,,,,7,0,2,,,1,,,62,85
20320,note_on,,,,,0,0,1,,,0,,,67,82
20320,note_on,,,,,8,0,1,,,0,,,65,83
20320,note_on,,,,,0,0,2,,,1,,,59,80
20392,note_off,,,,,72,0,2,,,1,,,62,64
20392,note_off,,,,,72,0,1,,,0,,,67,64
20394,note_off,,,,,2,0,1,,,0,,,65,64
20394,note_off,,,,,2,0,2,,,1,,,59,64
20399,control_change,,,,,5,0,1,,,0,7,121,,
20399,control_change,,,,,5,0,2,,,1,7,121,,
20400,note_on,,,,,0,0,1,,,0,,,67,77
20400,note_on,,,,,1,0,2,,,1,,,59,82
20400,note_on,,,,,0,0,2,,,1,,,62,84
20400,note_on,,,,,1,0,1,,,0,,,65,80
20470,note_off,,,,,70,0,2,,,1,,,59,64
20471,note_off,,,,,1,0,2,,,1,,,62,64
20472,note_off,,,,,72,0,1,,,0,,,67,64
20472,note_off,,,,,0,0,1,,,0,,,65,64
20480,note_on,,,,,9,0,2,,,1,,,62,84
20480,note_on,,,,,0,0,1,,,0,,,65,80
20480,note_on,,,,,0,0,2,,,1,,,59,84
20480,note_on,,,,,8,0,1,,,0,,,67,82
20519,control_change,,,,,39,0,1,,,0,7,122,,
20519,control_change,,,,,39,0,2,,,1,7,122,,
20551,note_off,,,,,0,0,1,,,0,,,67,64
20551,note_off,,,,,32,0,2,,,1,,,59,64
20551,note_off,,,,,32,0,1,,,0,,,65,64
20552,note_off,,,,,1,0,2,,,1,,,62,64
20560,note_on,,,,,0,0,2,,,1,,,59,80
20560,note_on,,,,,9,0,1,,,0,,,65,80
20560,note_on,,,,,8,0,2,,,1,,,62,80
20560,note_on,,,,,0,0,1,,,0,,,67,81
20630,note_off,,,,,70,0,1,,,0,,,67,64
20631,note_off,,,,,71,0,2,,,1,,,62,64
20631,note_off,,,,,1,0,1,,,0,,,65,64
20633,note_off,,,,,2,0,2,,,1,,,59,64
20639,control_change,,,,,8,0,1,,,0,7,123,,
20639,control_change,,,,,6,0,2,,,1,7,123,,
20640,note_on,,,,,1,0,2,,,1,,,62,80
20640,note_on,,,,,0,0,2,,,1,,,59,79
20640,note_on,,,,,1,0,1,,,0,,,65,84
20640,note_on,,,,,0,0,1,,,0,,,67,80
20710,note_off,,,,,70,0,1,,,0,,,67,64
20711,note_off,,,,,71,0,2,,,1,,,59,64
20711,note_off,,,,,0,0,2,,,1,,,62,64
20713,note_off,,,,,3,0,1,,,0,,,65,64
20720,note_on,,,,,7,0,1,,,0,,,67,80
20720,note_on,,,,,9,0,2,,,1,,,59,82
20720,note_on,,,,,0,0,1,,,0,,,65,84
20720,note_on,,,,,0,0,2,,,1,,,62,79
20759,control_change,,,,,39,0,1,,,0,7,124,,
20759,control_change,,,,,39,0,2,,,1,7,124,,
20790,note_off,,,,,31,0,1,,,0,,,67,64
20791,note_off,,,,,1,0,1,,,0,,,65,64
20792,note_off,,,,,33,0,2,,,1,,,59,64
20794,note_off,,,,,2,0,2,,,1,,,62,64
20800,note_on,,,,,0,0,1,,,0,,,67,84
20800,note_on,,,,,6,0,2,,,1,,,62,85
20800,note_on,,,,,9,0,1,,,0,,,65,77
20800,note_on,,,,,0,0,2,,,1,,,59,82
20870,note_off,,,,,70,0,1,,,0,,,67,64
20871,note_off,,,,,71,0,2,,,1,,,59,64
20872,note_off,,,,,2,0,1,,,0,,,65,64
20872,note_off,,,,,1,0,2,,,1,,,62,64
20873,note_off,,,,,1,0,1,,,0,,,74,64
20879,control_change,,,,,6,0,1,,,0,7,125,,
20879,control_change,,,,,7,0,2,,,1,7,125,,
20880,note_on,,,,,0,0,1,,,0,,,67,78
20880,note_on,,,,,0,0,1,,,0,,,65,85
20880,note_on,,,,,1,0,1,,,0,,,79,78
20880,note_on,,,,,0,0,2,,,1,,,62,80
20880,note_on,,,,,1,0,2,,,1,,,59,81
20950,note_off,,,,,70,0,1,,,0,,,65,64
20952,note_off,,,,,72,0,2,,,1,,,62,64
20953,note_off,,,,,1,0,2,,,1,,,59,64
20953,note_off,,,,,3,0,1,,,0,,,67,64
20960,note_on,,,,,7,0,2,,,1,,,62,80
20960,note_on,,,,,7,0,1,,,0,,,67,85
20960,note_on,,,,,0,0,2,,,1,,,59,82
20960,note_on,,,,,0,0,1,,,0,,,65,84
20999,control_change,,,,,39,0,2,,,1,7,126,,
20999,control_change,,,,,39,0,1,,,0,7,126,,
21032,note_off,,,,,33,0,1,,,0,,,67,64
21032,note_off,,,,,33,0,2,,,1,,,59,64
21032,note_off,,,,,0,0,2,,,1,,,62,64
21033,note_off,,,,,1,0,1,,,0,,,65,64
21040,note_on,,,,,8,0,2,,,1,,,59,84
21040,note_on,,,,,0,0,1,,,0,,,67,79
21040,note_on,,,,,7,0,1,,,0,,,65,84
21040,note_on,,,,,0,0,2,,,1,,,62,78
21110,note_off,,,,,70,0,2,,,1,,,62,64
21110,note_off,,,,,70,0,1,,,0,,,79,64
21112,note_off,,,,,2,0,1,,,0,,,67,64
21113,note_off,,,,,1,0,1,,,0,,,65,64
21114,note_off,,,,,0,0,2,,,1,,,43,64
21114,note_off,,,,,4,0,2,,,1,,,59,64
21119,control_change,,,,,6,0,1,,,0,7,127,,
21119,control_change,,,,,5,0,2,,,1,7,127,,
21120,note_on,,,,,0,0,2,,,1,,,36,84
21120,note_on,,,,,1,0,1,,,0,,,79,81
21120,control_change,,,,,1,0,2,,,1,7,126,,
21120,control_change,,,,,0,0,1,,,0,7,126,,
21200,note_on,,,,,0,0,1,,,0,,,67,84
21200,note_on,,,,,0,0,2,,,1,,,60,78
21200,note_on,,,,,80,0,1,,,0,,,63,85
21200,note_on,,,,,80,0,2,,,1,,,55,81
21207,control_change,,,,,7,0,2,,,1,7,125,,
21207,control_change,,,,,7,0,1,,,0,7,125,,
21270,note_off,,,,,63,0,2,,,1,,,55,64
21271,note_off,,,,,64,0,1,,,0,,,63,64
21271,note_off,,,,,1,0,2,,,1,,,60,64
21274,note_off,,,,,3,0,1,,,0,,,67,64
21280,note_on,,,,,0,0,1,,,0,,,63,77
21280,note_on,,,,,0,0,2,,,1,,,60,82
21280,note_on,,,,,9,0,2,,,1,,,55,83
21280,note_on,,,,,6,0,1,,,0,,,67,78
21294,control_change,,,,,14,0,1,,,0,7,124,,
21294,control_change,,,,,14,0,2,,,1,7,124,,
21350,note_off,,,,,56,0,1,,,0,,,63,64
21350,note_off,,,,,0,0,2,,,1,,,55,64
21350,note_off,,,,,56,0,2,,,1,,,60,64
21352,note_off,,,,,2,0,1,,,0,,,67,64
21360,note_on,,,,,10,0,2,,,1,,,60,81
21360,note_on,,,,,8,0,1,,,0,,,63,81
21360,note_on,,,,,0,0,1,,,0,,,67,79
21360,note_on,,,,,0,0,2,,,1,,,55,80
21381,control_change,,,,,21,0,1,,,0,7,123,,
21381,control_change,,,,,21,0,2,,,1,7,123,,
21433,note_off,,,,,52,0,2,,,1,,,60,64
21434,note_off,,,,,53,0,1,,,0,,,67,64
21434,note_off,,,,,0,0,1,,,0,,,63,64
21434,note_off,,,,,1,0,2,,,1,,,55,64
21440,note_on,,,,,6,0,2,,,1,,,55,84
21440,note_on,,,,,0,0,1,,,0,,,63,83
21440,note_on,,,,,0,0,2,,,1,,,60,79
21440,note_on,,,,,6,0,1,,,0,,,67,82
21468,control_change,,,,,28,0,1,,,0,7,122,,
21468,control_change,,,,,28,0,2,,,1,7,122,,
21511,note_off,,,,,43,0,1,,,0,,,67,64
21512,note_off,,,,,44,0,2,,,1,,,60,64
21512,note_off,,,,,0,0,2,,,1,,,55,64
21514,note_off,,,,,3,0,1,,,0,,,63,64
21520,note_on,,,,,0,0,1,,,0,,,67,82
21520,note_on,,,,,6,0,1,,,0,,,63,83
21520,note_on,,,,,0,0,2,,,1,,,55,82
21520,note_on,,,,,8,0,2,,,1,,,60,82
21555,control_change,,,,,35,0,2,,,1,7,121,,
21555,control_change,,,,,35,0,1,,,0,7,121,,
21590,note_off,,,,,35,0,1,,,0,,,63,64
21592,note_off,,,,,37,0,2,,,1,,,55,64
21593,note_off,,,,,1,0,2,,,1,,,60,64
21593,note_off,,,,,3,0,1,,,0,,,79,64
21594,note_off,,,,,1,0,1,,,0,,,67,64
21600,note_on,,,,,6,0,1,,,0,,,63,87
21600,note_on,,,,,0,0,1,,,0,,,67,79
21600,note_on,,,,,0,0,2,,,1,,,55,83
21600,note_on,,,,,7,0,2,,,1,,,60,80
21643,control_change,,,,,43,0,2,,,1,7,120,,
21643,control_change,,,,,43,0,1,,,0,7,120,,
21670,note_off,,,,,27,0,2,,,1,,,55,64
21672,note_off,,,,,0,0,1,,,0,,,63,64
21672,note_off,,,,,29,0,1,,,0,,,67,64
21673,note_off,,,,,3,0,2,,,1,,,60,64
21680,note_on,,,,,0,0,1,,,0,,,63,80
21680,note_on,,,,,7,0,2,,,1,,,55,79
21680,note_on,,,,,8,0,1,,,0,,,67,81
21680,note_on,,,,,0,0,2,,,1,,,60,79
21730,control_change,,,,,50,0,2,,,1,7,119,,
21730,control_change,,,,,50,0,1,,,0,7,119,,
21751,note_off,,,,,21,0,2,,,1,,,60,64
21753,note_off,,,,,0,0,1,,,0,,,67,64
21753,note_off,,,,,23,0,1,,,0,,,63,64
21754,note_off,,,,,3,0,2,,,1,,,55,64
21760,note_on,,,,,7,0,1,,,0,,,67,78
21760,note_on,,,,,6,0,2,,,1,,,60,77
21760,note_on,,,,,0,0,2,,,1,,,55,81
21760,note_on,,,,,0,0,1,,,0,,,63,84
21817,control_change,,,,,57,0,2,,,1,7,118,,
21817,control_change,,,,,57,0,1,,,0,7,118,,
21830,note_off,,,,,13,0,1,,,0,,,67,64
21831,note_off,,,,,1,0,1,,,0,,,63,64
21832,note_off,,,,,15,0,2,,,1,,,55,64
21833,note_off,,,,,1,0,2,,,1,,,36,64
21834,note_off,,,,,1,0,2,,,1,,,60,64
21840,note_on,,,,,6,0,2,,,1,,,39,83
21840,note_on,,,,,9,0,1,,,0,,,72,84
21904,control_change,,,,,64,0,2,,,1,7,117,,
21904,control_change,,,,,64,0,1,,,0,7,117,,
21920,note_on,,,,,16,0,2,,,1,,,55,84
21920,note_on,,,,,16,0,1,,,0,,,63,84
21920,note_on,,,,,0,0,1,,,0,,,67,82
21920,note_on,,,,,0,0,2,,,1,,,60,83
21991,control_change,,,,,71,0,1,,,0,7,116,,
21991,control_change,,,,,0,0,2,,,1,7,116,,
21991,note_off,,,,,71,0,2,,,1,,,55,64
21992,note_off,,,,,1,0,1,,,0,,,63,64
21993,note_off,,,,,2,0,2,,,1,,,60,64
21994,note_off,,,,,2,0,1,,,0,,,67,64
22000,note_on,,,,,0,0,2,,,1,,,55,79
22000,note_on,,,,,7,0,2,,,1,,,60,80
22000,note_on,,,,,0,0,1,,,0,,,67,84
22000,note_on,,,,,6,0,1,,,0,,,63,77
22071,note_off,,,,,71,0,2,,,1,,,55,64
22071,note_off,,,,,71,0,1,,,0,,,72,64
22073,note_off,,,,,2,0,1,,,0,,,67,64
22073,note_off,,,,,2,0,2,,,1,,,60,64
22073,note_off,,,,,0,0,1,,,0,,,63,64
22074,note_off,,,,,1,0,2,,,1,,,39,64
22079,control_change,,,,,5,0,2,,,1,7,115,,
22079,control_change,,,,,6,0,1,,,0,7,115,,
22080,note_on,,,,,1,0,2,,,1,,,41,89
22080,note_on,,,,,1,0,1,,,0,,,77,88
22160,note_on,,,,,0,0,2,,,1,,,58,77
22160,note_on,,,,,80,0,2,,,1,,,53,82
22160,note_on,,,,,0,0,1,,,0,,,65,77
22160,note_on,,,,,80,0,1,,,0,,,62,79
22230,note_off,,,,,70,0,2,,,1,,,58,64
22231,note_off,,,,,71,0,1,,,0,,,65,64
22231,note_off,,,,,0,0,1,,,0,,,62,64
22234,note_off,,,,,4,0,2,,,1,,,53,64
22240,note_on,,,,,0,0,1,,,0,,,65,85
22240,note_on,,,,,6,0,2,,,1,,,53,82
22240,note_on,,,,,9,0,1,,,0,,,62,81
22240,note_on,,,,,0,0,2,,,1,,,58,80
22311,note_off,,,,,71,0,1,,,0,,,65,64
22311,note_off,,,,,71,0,2,,,1,,,58,64
22313,note_off,,,,,2,0,2,,,1,,,53,64
22314,note_off,,,,,3,0,1,,,0,,,62,64
22314,note_off,,,,,1,0,2,,,1,,,41,64
22320,note_on,,,,,0,0,1,,,0,,,62,82
22320,note_on,,,,,6,0,2,,,1,,,58,83
22320,note_on,,,,,0,0,2,,,1,,,53,82
22320,note_on,,,,,6,0,1,,,0,,,65,80
22391,note_off,,,,,71,0,1,,,0,,,65,64
22391,note_off,,,,,71,0,2,,,1,,,58,64
22392,note_off,,,,,1,0,1,,,0,,,62,64
22394,note_off,,,,,3,0,2,,,1,,,53,64
22400,note_on,,,,,6,0,2,,,1,,,53,81
22400,note_on,,,,,0,0,2,,,1,,,58,77
22400,note_on,,,,,8,0,1,,,0,,,62,85
22400,note_on,,,,,0,0,1,,,0,,,65,84
22471,note_off,,,,,71,0,2,,,1,,,58,64
22471,note_off,,,,,71,0,1,,,0,,,62,64
22473,note_off,,,,,2,0,2,,,1,,,53,64
22473,note_off,,,,,2,0,1,,,0,,,65,64
22480,note_on,,,,,7,0,2,,,1,,,58,78
22480,note_on,,,,,7,0,1,,,0,,,65,84
22480,note_on,,,,,0,0,1,,,0,,,62,78
22480,note_on,,,,,0,0,2,,,1,,,53,79
22550,note_off,,,,,70,0,2,,,1,,,53,64
22552,note_off,,,,,2,0,2,,,1,,,58,64
22553,note_off,,,,,73,0,1,,,0,,,62,64
22553,note_off,,,,,0,0,1,,,0,,,65,64
22560,note_on,,,,,8,0,2,,,1,,,41,80
22640,note_on,,,,,0,0,1,,,0,,,63,83
22640,note_on,,,,,87,0,1,,,0,,,60,78
22640,note_on,,,,,0,0,2,,,1,,,53,77
22640,note_on,,,,,0,0,1,,,0,,,65,81
22640,note_on,,,,,80,0,2,,,1,,,57,77
22710,note_off,,,,,70,0,1,,,0,,,63,64
22711,note_off,,,,,1,0,1,,,0,,,65,64
22712,note_off,,,,,72,0,2,,,1,,,53,64
22713,note_off,,,,,1,0,2,,,1,,,57,64
22713,note_off,,,,,2,0,1,,,0,,,60,64
22720,note_on,,,,,0,0,1,,,0,,,65,83
22720,note_on,,,,,0,0,1,,,0,,,63,84
22720,note_on,,,,,0,0,2,,,1,,,53,83
22720,note_on,,,,,7,0,2,,,1,,,57,85
22720,note_on,,,,,7,0,1,,,0,,,60,78
22790,note_off,,,,,70,0,2,,,1,,,53,64
22790,note_off,,,,,0,0,2,,,1,,,41,64
22791,note_off,,,,,71,0,1,,,0,,,60,64
22791,note_off,,,,,1,0,2,,,1,,,57,64
22793,note_off,,,,,2,0,1,,,0,,,65,64
22794,note_off,,,,,0,0,1,,,0,,,77,64
22794,note_off,,,,,1,0,1,,,0,,,63,64
22800,note_on,,,,,0,0,1,,,0,,,63,83
22800,note_on,,,,,0,0,1,,,0,,,65,84
22800,note_on,,,,,0,0,2,,,1,,,57,85
22800,note_on,,,,,0,0,1,,,0,,,60,84
22800,note_on,,,,,9,0,2,,,1,,,53,82
22800,note_on,,,,,6,0,1,,,0,,,69,78
22870,note_off,,,,,70,0,1,,,0,,,60,64
22871,note_off,,,,,71,0,2,,,1,,,57,64
22872,note_off,,,,,2,0,1,,,0,,,63,64
22872,note_off,,,,,1,0,2,,,1,,,53,64
22874,note_off,,,,,2,0,1,,,0,,,65,64
22880,note_on,,,,,6,0,1,,,0,,,65,82
22880,note_on,,,,,0,0,1,,,0,,,60,85
22880,note_on,,,,,0,0,2,,,1,,,53,80
22880,note_on,,,,,8,0,2,,,1,,,57,80
22880,note_on,,,,,0,0,1,,,0,,,63,82
22951,note_off,,,,,0,0,2,,,1,,,57,64
22951,note_off,,,,,71,0,2,,,1,,,53,64
22951,note_off,,,,,71,0,1,,,0,,,65,64
22952,note_off,,,,,1,0,1,,,0,,,63,64
22953,note_off,,,,,1,0,1,,,0,,,60,64
22960,note_on,,,,,0,0,2,,,1,,,57,84
22960,note_on,,,,,0,0,1,,,0,,,60,85
22960,note_on,,,,,9,0,2,,,1,,,53,82
22960,note_on,,,,,0,0,1,,,0,,,65,82
22960,note_on,,,,,7,0,1,,,0,,,63,85
23030,note_off,,,,,70,0,1,,,0,,,65,64
23031,note_off,,,,,1,0,1,,,0,,,69,64
23032,note_off,,,,,1,0,1,,,0,,,63,64
23033,note_off,,,,,73,0,2,,,1,,,57,64
23033,note_off,,,,,0,0,2,,,1,,,53,64
23033,note_off,,,,,1,0,1,,,0,,,60,64
23040,note_on,,,,,0,0,1,,,0,,,65,87
23040,note_on,,,,,0,0,1,,,0,,,58,86
23040,note_on,,,,,7,0,2,,,1,,,34,84
23040,note_on,,,,,7,0,1,,,0,,,62,84
23040,note_on,,,,,0,0,1,,,0,,,70,87
23110,note_off,,,,,0,0,1,,,0,,,62,64
23110,note_off,,,,,70,0,1,,,0,,,65,64
23113,note_off,,,,,73,0,2,,,1,,,34,64
23120,note_on,,,,,0,0,1,,,0,,,65,84
23120,note_on,,,,,7,0,2,,,1,,,36,78
23120,note_on,,,,,10,0,1,,,0,,,62,84
23191,note_off,,,,,71,0,1,,,0,,,62,64
23193,note_off,,,,,73,0,2,,,1,,,36,64
23193,note_off,,,,,2,0,1,,,0,,,65,64
23200,note_on,,,,,0,0,1,,,0,,,65,79
23200,note_on,,,,,7,0,1,,,0,,,62,78
23200,note_on,,,,,7,0,2,,,1,,,38,83
23270,note_off,,,,,70,0,2,,,1,,,38,64
23270,note_off,,,,,70,0,1,,,0,,,62,64
23271,note_off,,,,,1,0,1,,,0,,,65,64
23280,note_on,,,,,9,0,1,,,0,,,62,82
23280,note_on,,,,,0,0,1,,,0,,,65,85
23280,note_on,,,,,10,0,2,,,1,,,39,81
23350,note_off,,,,,70,0,1,,,0,,,62,64
23351,note_off,,,,,71,0,2,,,1,,,39,64
23353,note_off,,,,,3,0,1,,,0,,,65,64
23360,note_on,,,,,7,0,1,,,0,,,62,85
23360,note_on,,,,,9,0,2,,,1,,,41,77
23360,note_on,,,,,0,0,1,,,0,,,65,77
23430,note_off,,,,,70,0,1,,,0,,,65,64
23433,note_off,,,,,3,0,1,,,0,,,62,64
23434,note_off,,,,,74,0,2,,,1,,,41,64
23440,note_on,,,,,6,0,2,,,1,,,42,78
23440,note_on,,,,,0,0,1,,,0,,,65,79
23440,note_on,,,,,7,0,1,,,0,,,62,77
23511,note_off,,,,,71,0,2,,,1,,,42,64
23513,note_off,,,,,73,0,1,,,0,,,65,64
23513,note_off,,,,,0,0,1,,,0,,,62,64
23520,note_on,,,,,9,0,2,,,1,,,41,85
23520,note_on,,,,,0,0,1,,,0,,,65,81
23520,note_on,,,,,7,0,1,,,0,,,62,86
23592,note_off,,,,,72,0,1,,,0,,,65,64
23593,note_off,,,,,1,0,1,,,0,,,62,64
23600,note_on,,,,,7,0,1,,,0,,,62,82
23600,note_on,,,,,0,0,1,,,0,,,65,79
23631,note_off,,,,,111,0,2,,,1,,,41,64
23670,note_off,,,,,70,0,1,,,0,,,62,64
23672,note_off,,,,,2,0,1,,,0,,,65,64
23680,note_on,,,,,0,0,1,,,0,,,65,77
23680,note_on,,,,,8,0,1,,,0,,,62,85
23750,note_off,,,,,0,0,1,,,0,,,58,64
23750,note_off,,,,,70,0,1,,,0,,,62,64
23751,note_off,,,,,1,0,1,,,0,,,70,64
23754,note_off,,,,,3,0,1,,,0,,,65,64
23760,note_on,,,,,0,0,1,,,0,,,70,79
23760,note_on,,,,,0,0,1,,,0,,,62,82
23760,note_on,,,,,0,0,1,,,0,,,65,83
23760,note_on,,,,,6,0,1,,,0,,,58,80
23760,note_on,,,,,129,0,2,,,1,,,34,84
23832,note_off,,,,,72,0,1,,,0,,,65,64
23833,note_off,,,,,1,0,1,,,0,,,62,64
23840,note_on,,,,,7,0,1,,,0,,,65,78
23840,note_on,,,,,0,0,1,,,0,,,62,85
23870,note_off,,,,,110,0,2,,,1,,,34,64
23913,note_off,,,,,73,0,1,,,0,,,62,64
23913,note_off,,,,,0,0,1,,,0,,,65,64
23920,note_on,,,,,7,0,1,,,0,,,65,85
23920,note_on,,,,,0,0,1,,,0,,,62,82
23991,note_off,,,,,0,0,1,,,0,,,65,64
23991,note_off,,,,,71,0,1,,,0,,,62,64
23992,note_off,,,,,1,0,1,,,0,,,58,64
23994,note_off,,,,,2,0,1,,,0,,,70,64
24000,note_on,,,,,0,0,2,,,1,,,60,87
24000,note_on,,,,,0,0,2,,,1,,,54,88
24000,control_change,,,,,0,0,1,,,0,7,100,,
24000,note_on,,,,,0,0,1,,,0,,,63,82
24000,note_on,,,,,0,0,1,,,0,,,69,82
24000,note_on,,,,,0,0,1,,,0,,,75,85
24000,note_on,,,,,6,0,1,,,0,,,66,81
24000,note_on,,,,,0,0,2,,,1,,,51,84
24000,control_change,,,,,130,0,2,,,1,7,100,,
24000,note_on,,,,,0,0,2,,,1,,,46,81
24070,note_off,,,,,70,0,1,,,0,,,66,64
24071,note_off,,,,,71,0,2,,,1,,,54,64
24074,note_off,,,,,3,0,2,,,1,,,51,64
24074,note_off,,,,,4,0,1,,,0,,,69,64
24080,note_on,,,,,6,0,2,,,1,,,54,78
24080,note_on,,,,,0,0,2,,,1,,,51,84
24080,note_on,,,,,6,0,1,,,0,,,66,78
24080,note_on,,,,,0,0,1,,,0,,,69,79
24151,note_off,,,,,71,0,2,,,1,,,54,64
24151,note_off,,,,,71,0,1,,,0,,,66,64
24153,note_off,,,,,2,0,1,,,0,,,69,64
24153,note_off,,,,,2,0,2,,,1,,,51,64
24160,note_on,,,,,0,0,2,,,1,,,54,82
24160,note_on,,,,,7,0,2,,,1,,,51,82
24160,note_on,,,,,7,0,1,,,0,,,66,84
24160,note_on,,,,,0,0,1,,,0,,,69,80
24231,note_off,,,,,0,0,1,,,0,,,66,64
24231,note_off,,,,,71,0,1,,,0,,,69,64
24232,note_off,,,,,72,0,2,,,1,,,54,64
24233,note_off,,,,,1,0,2,,,1,,,51,64
24240,note_on,,,,,0,0,1,,,0,,,69,104
24240,note_on,,,,,0,0,2,,,1,,,54,104
24240,note_on,,,,,9,0,1,,,0,,,66,102
24240,note_on,,,,,7,0,2,,,1,,,51,98
24310,note_off,,,,,70,0,1,,,0,,,69,64
24311,note_off,,,,,71,0,2,,,1,,,51,64
24312,note_off,,,,,2,0,1,,,0,,,66,64
24313,note_off,,,,,2,0,2,,,1,,,54,64
24320,note_on,,,,,7,0,2,,,1,,,54,104
24320,note_on,,,,,8,0,1,,,0,,,66,97
24320,note_on,,,,,0,0,2,,,1,,,51,103
24320,note_on,,,,,0,0,1,,,0,,,69,99
24391,note_off,,,,,71,0,2,,,1,,,54,64
24392,note_off,,,,,0,0,1,,,0,,,66,64
24392,note_off,,,,,72,0,1,,,0,,,69,64
24393,note_off,,,,,2,0,2,,,1,,,51,64
24400,note_on,,,,,7,0,2,,,1,,,51,104
24400,note_on,,,,,0,0,1,,,0,,,69,99
24400,note_on,,,,,0,0,2,,,1,,,54,102
24400,note_on,,,,,8,0,1,,,0,,,66,101
24470,note_off,,,,,70,0,2,,,1,,,51,64
24473,note_off,,,,,0,0,1,,,0,,,66,64
24473,note_off,,,,,3,0,2,,,1,,,54,64
24473,note_off,,,,,73,0,1,,,0,,,69,64
24480,note_on,,,,,0,0,2,,,1,,,54,98
24480,note_on,,,,,0,0,1,,,0,,,66,100
24480,note_on,,,,,7,0,2,,,1,,,51,104
24480,note_on,,,,,7,0,1,,,0,,,69,104
24550,note_off,,,,,70,0,2,,,1,,,54,64
24551,note_off,,,,,71,0,1,,,0,,,66,64
24552,note_off,,,,,1,0,1,,,0,,,69,64
24553,note_off,,,,,3,0,2,,,1,,,51,64
24560,note_on,,,,,8,0,1,,,0,,,69,103
24560,note_on,,,,,7,0,2,,,1,,,54,101
24560,note_on,,,,,0,0,1,,,0,,,66,96
24560,note_on,,,,,0,0,2,,,1,,,51,101
24631,note_off,,,,,71,0,2,,,1,,,51,64
24633,note_off,,,,,2,0,2,,,1,,,54,64
24634,note_off,,,,,0,0,1,,,0,,,69,64
24634,note_off,,,,,74,0,1,,,0,,,66,64
24640,note_on,,,,,0,0,2,,,1,,,54,101
24640,note_on,,,,,7,0,2,,,1,,,51,99
24640,note_on,,,,,6,0,1,,,0,,,69,99
24640,note_on,,,,,0,0,1,,,0,,,66,102
24710,note_off,,,,,0,0,1,,,0,,,63,64
24710,note_off,,,,,70,0,1,,,0,,,75,64
24712,note_off,,,,,72,0,2,,,1,,,51,64
24713,note_off,,,,,3,0,1,,,0,,,69,64
24714,note_off,,,,,2,0,2,,,1,,,54,64
24714,note_off,,,,,1,0,1,,,0,,,66,64
24720,note_on,,,,,6,0,1,,,0,,,60,104
24720,note_on,,,,,0,0,1,,,0,,,66,101
24720,note_on,,,,,0,0,1,,,0,,,57,104
24720,note_on,,,,,0,0,2,,,1,,,54,98
24720,note_on,,,,,6,0,2,,,1,,,51,96
24720,note_on,,,,,0,0,1,,,0,,,69,101
24790,note_off,,,,,70,0,1,,,0,,,60,64
24792,note_off,,,,,72,0,2,,,1,,,54,64
24792,note_off,,,,,0,0,2,,,1,,,51,64
24792,note_off,,,,,2,0,1,,,0,,,66,64
24800,note_on,,,,,0,0,1,,,0,,,66,102
24800,note_on,,,,,8,0,1,,,0,,,60,96
24800,note_on,,,,,0,0,2,,,1,,,51,97
24800,note_on,,,,,8,0,2,,,1,,,54,101
24870,note_off,,,,,70,0,2,,,1,,,54,64
24871,note_off,,,,,0,0,1,,,0,,,60,64
24871,note_off,,,,,71,0,1,,,0,,,66,64
24873,note_off,,,,,3,0,2,,,1,,,51,64
24880,note_on,,,,,0,0,2,,,1,,,54,99
24880,note_on,,,,,7,0,2,,,1,,,51,100
24880,note_on,,,,,0,0,1,,,0,,,66,96
24880,note_on,,,,,9,0,1,,,0,,,60,100
24950,note_off,,,,,70,0,1,,,0,,,60,64
24951,note_off,,,,,1,0,1,,,0,,,69,64
24951,note_off,,,,,0,0,2,,,1,,,46,64
24951,note_off,,,,,0,0,2,,,1,,,60,64
24951,note_off,,,,,71,0,2,,,1,,,54,64
24952,note_off,,,,,1,0,2,,,1,,,51,64
24953,note_off,,,,,2,0,1,,,0,,,66,64
24954,note_off,,,,,1,0,1,,,0,,,57,64
24960,note_on,,,,,0,0,1,,,0,,,60,104
24960,note_on,,,,,0,0,1,,,0,,,72,108
24960,note_on,,,,,0,0,1,,,0,,,65,105
24960,note_on,,,,,8,0,2,,,1,,,34,100
24960,note_on,,,,,6,0,1,,,0,,,62,100
25030,note_off,,,,,70,0,1,,,0,,,65,64
25031,note_off,,,,,1,0,1,,,0,,,62,64
25032,note_off,,,,,72,0,2,,,1,,,34,64
25040,note_on,,,,,0,0,1,,,0,,,65,102
25040,note_on,,,,,9,0,1,,,0,,,62,104
25040,note_on,,,,,8,0,2,,,1,,,36,104
25113,note_off,,,,,73,0,2,,,1,,,36,64
25114,note_off,,,,,74,0,1,,,0,,,65,64
25114,note_off,,,,,0,0,1,,,0,,,62,64
25120,note_on,,,,,0,0,1,,,0,,,65,102
25120,note_on,,,,,7,0,2,,,1,,,38,103
25120,note_on,,,,,6,0,1,,,0,,,62,104
25190,note_off,,,,,70,0,2,,,1,,,38,64
25190,note_off,,,,,70,0,1,,,0,,,72,64
25192,note_off,,,,,0,0,1,,,0,,,60,64
25192,note_off,,,,,2,0,1,,,0,,,62,64
25193,note_off,,,,,1,0,1,,,0,,,65,64
25200,note_on,,,,,0,0,1,,,0,,,58,103
25200,note_on,,,,,0,0,1,,,0,,,70,103
25200,note_on,,,,,7,0,1,,,0,,,62,102
25200,note_on,,,,,10,0,2,,,1,,,39,102
25200,note_on,,,,,0,0,1,,,0,,,65,97
25270,note_off,,,,,70,0,2,,,1,,,39,64
25273,note_off,,,,,73,0,1,,,0,,,62,64
25274,note_off,,,,,1,0,1,,,0,,,65,64
25280,note_on,,,,,10,0,2,,,1,,,41,99
25280,note_on,,,,,0,0,1,,,0,,,65,99
25280,note_on,,,,,6,0,1,,,0,,,62,102
25350,note_off,,,,,70,0,1,,,0,,,65,64
25352,note_off,,,,,2,0,1,,,0,,,62,64
25352,note_off,,,,,72,0,2,,,1,,,41,64
25360,note_on,,,,,8,0,1,,,0,,,62,97
25360,note_on,,,,,0,0,1,,,0,,,65,104
25360,note_on,,,,,8,0,2,,,1,,,42,102
25432,note_off,,,,,72,0,1,,,0,,,65,64
25433,note_off,,,,,1,0,1,,,0,,,62,64
25433,note_off,,,,,73,0,2,,,1,,,42,64
25440,note_on,,,,,0,0,1,,,0,,,65,102
25440,note_on,,,,,7,0,2,,,1,,,41,106
25440,note_on,,,,,7,0,1,,,0,,,62,101
25512,note_off,,,,,0,0,1,,,0,,,62,64
25512,note_off,,,,,72,0,1,,,0,,,65,64
25520,note_on,,,,,8,0,1,,,0,,,62,102
25520,note_on,,,,,0,0,1,,,0,,,65,104
25551,note_off,,,,,111,0,2,,,1,,,41,64
25592,note_off,,,,,72,0,1,,,0,,,62,64
25594,note_off,,,,,2,0,1,,,0,,,65,64
25600,note_on,,,,,0,0,1,,,0,,,65,101
25600,note_on,,,,,6,0,1,,,0,,,62,96
25671,note_off,,,,,71,0,1,,,0,,,65,64
25673,note_off,,,,,2,0,1,,,0,,,62,64
25680,note_on,,,,,0,0,1,,,0,,,65,101
25680,note_on,,,,,129,0,2,,,1,,,34,100
25680,note_on,,,,,7,0,1,,,0,,,62,96
25750,note_off,,,,,70,0,1,,,0,,,62,64
25751,note_off,,,,,1,0,1,,,0,,,65,64
25760,note_on,,,,,0,0,1,,,0,,,65,98
25760,note_on,,,,,9,0,1,,,0,,,62,98
25793,note_off,,,,,113,0,2,,,1,,,34,64
25831,note_off,,,,,71,0,1,,,0,,,65,64
25831,note_off,,,,,0,0,1,,,0,,,62,64
25840,note_on,,,,,0,0,1,,,0,,,65,104
25840,note_on,,,,,9,0,1,,,0,,,62,100
25911,note_off,,,,,71,0,1,,,0,,,65,64
25912,note_off,,,,,1,0,1,,,0,,,70,64
25913,note_off,,,,,1,0,1,,,0,,,62,64
25914,note_off,,,,,1,0,1,,,0,,,58,64
25920,note_on,,,,,0,0,1,,,0,,,63,106
25920,note_on,,,,,0,0,1,,,0,,,69,107
25920,note_on,,,,,127,0,2,,,1,,,46,104
25920,note_on,,,,,0,0,2,,,1,,,60,102
25920,note_on,,,,,0,0,2,,,1,,,54,101
25920,note_on,,,,,0,0,2,,,1,,,51,106
25920,note_on,,,,,6,0,1,,,0,,,66,108
25920,note_on,,,,,0,0,1,,,0,,,75,103
25990,note_off,,,,,70,0,1,,,0,,,69,64
25991,note_off,,,,,71,0,2,,,1,,,51,64
25992,note_off,,,,,1,0,2,,,1,,,54,64
25994,note_off,,,,,4,0,1,,,0,,,66,64
26000,note_on,,,,,6,0,1,,,0,,,66,101
26000,note_on,,,,,8,0,2,,,1,,,54,98
26000,note_on,,,,,0,0,1,,,0,,,69,98
26000,note_on,,,,,0,0,2,,,1,,,51,98
26070,note_off,,,,,70,0,1,,,0,,,69,64
26070,note_off,,,,,70,0,2,,,1,,,51,64
26072,note_off,,,,,2,0,2,,,1,,,54,64
26074,note_off,,,,,4,0,1,,,0,,,66,64
26080,note_on,,,,,8,0,2,,,1,,,54,96
26080,note_on,,,,,0,0,2,,,1,,,51,98
26080,note_on,,,,,6,0,1,,,0,,,66,97
26080,note_on,,,,,0,0,1,,,0,,,69,101
26150,note_off,,,,,70,0,2,,,1,,,51,64
26151,note_off,,,,,1,0,2,,,1,,,54,64
26152,note_off,,,,,72,0,1,,,0,,,66,64
26154,note_off,,,,,2,0,1,,,0,,,69,64
26160,note_on,,,,,6,0,1,,,0,,,66,104
26160,note_on,,,,,0,0,2,,,1,,,51,97
26160,note_on,,,,,9,0,2,,,1,,,54,104
26160,note_on,,,,,0,0,1,,,0,,,69,99
26230,note_off,,,,,70,0,2,,,1,,,51,64
26233,note_off,,,,,3,0,2,,,1,,,54,64
26233,note_off,,,,,73,0,1,,,0,,,66,64
26234,note_off,,,,,1,0,1,,,0,,,69,64
26240,note_on,,,,,0,0,2,,,1,,,51,104
26240,note_on,,,,,0,0,1,,,0,,,69,97
26240,note_on,,,,,6,0,1,,,0,,,66,104
26240,note_on,,,,,7,0,2,,,1,,,54,103
26310,note_off,,,,,70,0,1,,,0,,,66,64
26313,note_off,,,,,0,0,2,,,1,,,54,64
26313,note_off,,,,,73,0,2,,,1,,,51,64
26314,note_off,,,,,4,0,1,,,0,,,69,64
26320,note_on,,,,,0,0,1,,,0,,,69,98
26320,note_on,,,,,6,0,1,,,0,,,66,103
26320,note_on,,,,,7,0,2,,,1,,,54,98
26320,note_on,,,,,0,0,2,,,1,,,51,96
26393,note_off,,,,,73,0,1,,,0,,,66,64
26393,note_off,,,,,0,0,1,,,0,,,63,64
26393,note_off,,,,,0,0,1,,,0,,,75,64
26393,note_off,,,,,73,0,2,,,1,,,54,64
26394,note_off,,,,,1,0,2,,,1,,,51,64
26394,note_off,,,,,1,0,1,,,0,,,69,64
26400,control_change,,,,,0,0,1,,,0,7,101,,
26400,note_on,,,,,0,0,1,,,0,,,63,106
26400,note_on,,,,,0,0,1,,,0,,,69,99
26400,note_on,,,,,0,0,2,,,1,,,54,103
26400,note_on,,,,,0,0,2,,,1,,,51,102
26400,note_on,,,,,6,0,1,,,0,,,57,98
26400,control_change,,,,,6,0,2,,,1,7,101,,
26400,note_on,,,,,0,0,1,,,0,,,60,98
26470,note_off,,,,,70,0,1,,,0,,,63,64
26472,note_off,,,,,72,0,2,,,1,,,51,64
26473,note_off,,,,,1,0,2,,,1,,,54,64
26473,note_off,,,,,3,0,1,,,0,,,60,64
26479,control_change,,,,,6,0,2,,,1,7,102,,
26479,control_change,,,,,6,0,1,,,0,7,102,,
26480,note_on,,,,,0,0,1,,,0,,,60,97
26480,note_on,,,,,1,0,2,,,1,,,51,97
26480,note_on,,,,,0,0,2,,,1,,,54,101
26480,note_on,,,,,1,0,1,,,0,,,63,103
26550,note_off,,,,,70,0,2,,,1,,,54,64
26551,note_off,,,,,71,0,1,,,0,,,60,64
26551,note_off,,,,,1,0,2,,,1,,,51,64
26553,note_off,,,,,2,0,1,,,0,,,63,64
26559,control_change,,,,,6,0,1,,,0,7,103,,
26559,control_change,,,,,8,0,2,,,1,7,103,,
26560,note_on,,,,,0,0,2,,,1,,,51,96
26560,note_on,,,,,0,0,1,,,0,,,60,97
26560,note_on,,,,,1,0,2,,,1,,,54,99
26560,note_on,,,,,1,0,1,,,0,,,63,103
26631,note_off,,,,,71,0,1,,,0,,,63,64
26631,note_off,,,,,71,0,2,,,1,,,54,64
26633,note_off,,,,,2,0,2,,,1,,,51,64
26633,note_off,,,,,2,0,1,,,0,,,60,64
26639,control_change,,,,,6,0,1,,,0,7,104,,
26639,control_change,,,,,6,0,2,,,1,7,104,,
26640,note_on,,,,,1,0,2,,,1,,,51,102
26640,note_on,,,,,1,0,1,,,0,,,63,98
26640,note_on,,,,,0,0,2,,,1,,,54,99
26640,note_on,,,,,0,0,1,,,0,,,60,96
26710,note_off,,,,,70,0,1,,,0,,,60,64
26712,note_off,,,,,72,0,2,,,1,,,54,64
26713,note_off,,,,,3,0,1,,,0,,,63,64
26714,note_off,,,,,2,0,2,,,1,,,51,64
26719,control_change,,,,,6,0,1,,,0,7,105,,
26719,control_change,,,,,5,0,2,,,1,7,105,,
26720,note_on,,,,,0,0,2,,,1,,,51,97
26720,note_on,,,,,0,0,1,,,0,,,60,100
26720,note_on,,,,,1,0,2,,,1,,,54,97
26720,note_on,,,,,1,0,1,,,0,,,63,99
26754,note_off,,,,,0,0,1,,,0,,,57,64
26754,note_off,,,,,34,0,1,,,0,,,69,64
26760,note_on,,,,,0,0,1,,,0,,,69,100
26760,note_on,,,,,6,0,1,,,0,,,57,98
26791,note_off,,,,,71,0,2,,,1,,,54,64
26792,note_off,,,,,32,0,1,,,0,,,60,64
26793,note_off,,,,,1,0,1,,,0,,,63,64
26794,note_off,,,,,3,0,2,,,1,,,51,64
26799,control_change,,,,,5,0,2,,,1,7,106,,
26799,control_change,,,,,6,0,1,,,0,7,106,,
26800,note_on,,,,,0,0,2,,,1,,,54,99
26800,note_on,,,,,0,0,1,,,0,,,60,104
26800,note_on,,,,,1,0,2,,,1,,,51,97
26800,note_on,,,,,1,0,1,,,0,,,63,99
26870,note_off,,,,,70,0,1,,,0,,,60,64
26870,note_off,,,,,0,0,1,,,0,,,57,64
26871,note_off,,,,,71,0,2,,,1,,,54,64
26873,note_off,,,,,0,0,2,,,1,,,60,64
26873,note_off,,,,,2,0,2,,,1,,,51,64
26874,note_off,,,,,0,0,1,,,0,,,69,64
26874,note_off,,,,,1,0,2,,,1,,,46,64
26874,note_off,,,,,4,0,1,,,0,,,63,64
26879,control_change,,,,,5,0,2,,,1,7,107,,
26879,control_change,,,,,5,0,1,,,0,7,107,,
26880,note_on,,,,,0,0,1,,,0,,,62,101
26880,note_on,,,,,1,0,1,,,0,,,60,103
26880,note_on,,,,,0,0,1,,,0,,,72,100
26880,note_on,,,,,0,0,1,,,0,,,65,100
26880,note_on,,,,,1,0,2,,,1,,,34,105
26952,note_off,,,,,72,0,1,,,0,,,65,64
26952,note_off,,,,,72,0,2,,,1,,,34,64
26953,note_off,,,,,1,0,1,,,0,,,62,64
26960,note_on,,,,,7,0,1,,,0,,,62,98
26960,note_on,,,,,8,0,2,,,1,,,36,99
26960,note_on,,,,,0,0,1,,,0,,,65,97
27030,note_off,,,,,70,0,1,,,0,,,62,64
27033,note_off,,,,,3,0,1,,,0,,,65,64
27034,note_off,,,,,74,0,2,,,1,,,36,64
27040,note_on,,,,,6,0,2,,,1,,,38,99
27040,note_on,,,,,0,0,1,,,0,,,62,100
27040,note_on,,,,,7,0,1,,,0,,,65,104
27110,note_off,,,,,70,0,1,,,0,,,62,64
27111,note_off,,,,,71,0,2,,,1,,,38,64
27111,note_off,,,,,1,0,1,,,0,,,60,64
27112,note_off,,,,,1,0,1,,,0,,,72,64
27114,note_off,,,,,2,0,1,,,0,,,65,64
27120,note_on,,,,,0,0,1,,,0,,,65,100
27120,note_on,,,,,0,0,1,,,0,,,70,99
27120,note_on,,,,,6,0,1,,,0,,,58,96
27120,note_on,,,,,9,0,2,,,1,,,39,99
27120,note_on,,,,,0,0,1,,,0,,,62,102
27190,note_off,,,,,70,0,1,,,0,,,65,64
27190,note_off,,,,,0,0,1,,,0,,,62,64
27194,note_off,,,,,74,0,2,,,1,,,39,64
27200,note_on,,,,,6,0,2,,,1,,,41,97
27200,note_on,,,,,10,0,1,,,0,,,62,103
27200,note_on,,,,,0,0,1,,,0,,,65,96
27271,note_off,,,,,71,0,2,,,1,,,41,64
27271,note_off,,,,,71,0,1,,,0,,,62,64
27273,note_off,,,,,2,0,1,,,0,,,65,64
27280,note_on,,,,,7,0,1,,,0,,,65,104
27280,note_on,,,,,0,0,1,,,0,,,62,102
27280,note_on,,,,,9,0,2,,,1,,,42,102
27352,note_off,,,,,72,0,1,,,0,,,62,64
27353,note_off,,,,,73,0,2,,,1,,,42,64
27354,note_off,,,,,2,0,1,,,0,,,65,64
27360,note_on,,,,,6,0,1,,,0,,,62,103
27360,note_on,,,,,7,0,2,,,1,,,41,104
27360,note_on,,,,,0,0,1,,,0,,,65,101
27431,note_off,,,,,71,0,1,,,0,,,62,64
27433,note_off,,,,,2,0,1,,,0,,,65,64
27440,note_on,,,,,0,0,1,,,0,,,62,98
27440,note_on,,,,,7,0,1,,,0,,,65,104
27472,note_off,,,,,112,0,2,,,1,,,41,64
27511,note_off,,,,,71,0,1,,,0,,,65,64
27513,note_off,,,,,2,0,1,,,0,,,62,64
27520,note_on,,,,,0,0,1,,,0,,,65,99
27520,note_on,,,,,7,0,1,,,0,,,62,101
27591,note_off,,,,,0,0,1,,,0,,,62,64
27591,note_off,,,,,71,0,1,,,0,,,65,64
27593,note_off,,,,,2,0,1,,,0,,,70,64
27593,note_off,,,,,0,0,1,,,0,,,58,64
27600,note_on,,,,,0,0,1,,,0,,,70,96
27600,note_on,,,,,0,0,1,,,0,,,62,101
27600,note_on,,,,,7,0,1,,,0,,,58,102
27600,note_on,,,,,0,0,1,,,0,,,65,100
27600,note_on,,,,,128,0,2,,,1,,,46,97
27670,note_off,,,,,70,0,1,,,0,,,62,64
27673,note_off,,,,,3,0,1,,,0,,,65,64
27680,note_on,,,,,0,0,1,,,0,,,62,100
27680,note_on,,,,,7,0,1,,,0,,,65,96
27710,note_off,,,,,110,0,2,,,1,,,46,64
27750,note_off,,,,,70,0,1,,,0,,,62,64
27750,note_off,,,,,0,0,1,,,0,,,65,64
27760,note_on,,,,,10,0,1,,,0,,,65,103
27760,note_on,,,,,0,0,1,,,0,,,62,100
27830,note_off,,,,,70,0,1,,,0,,,65,64
27831,note_off,,,,,1,0,1,,,0,,,62,64
27831,note_off,,,,,0,0,1,,,0,,,70,64
27834,note_off,,,,,3,0,1,,,0,,,58,64
27840,note_on,,,,,6,0,1,,,0,,,74,102
27840,note_on,,,,,0,0,1,,,0,,,62,106
27840,note_on,,,,,130,0,2,,,1,,,42,108
27840,note_on,,,,,0,0,2,,,1,,,50,104
27840,note_on,,,,,0,0,1,,,0,,,60,100
27840,note_on,,,,,0,0,2,,,1,,,57,100
27911,note_off,,,,,71,0,1,,,0,,,62,64
27912,note_off,,,,,72,0,2,,,1,,,57,64
27912,note_off,,,,,1,0,1,,,0,,,60,64
27913,note_off,,,,,1,0,2,,,1,,,50,64
27914,note_off,,,,,1,0,2,,,1,,,42,64
27920,note_on,,,,,0,0,2,,,1,,,42,100
27920,note_on,,,,,0,0,1,,,0,,,62,101
27920,note_on,,,,,0,0,2,,,1,,,50,104
27920,note_on,,,,,8,0,1,,,0,,,60,103
27920,note_on,,,,,6,0,2,,,1,,,57,99
27990,note_off,,,,,70,0,1,,,0,,,62,64
27990,note_off,,,,,70,0,2,,,1,,,57,64
27992,note_off,,,,,2,0,1,,,0,,,60,64
27993,note_off,,,,,0,0,2,,,1,,,50,64
27993,note_off,,,,,3,0,2,,,1,,,42,64
28000,note_on,,,,,0,0,1,,,0,,,60,99
28000,note_on,,,,,8,0,1,,,0,,,62,103
28000,note_on,,,,,7,0,2,,,1,,,42,96
28000,note_on,,,,,0,0,2,,,1,,,50,98
28000,note_on,,,,,0,0,2,,,1,,,57,97
28070,note_off,,,,,0,0,2,,,1,,,42,64
28070,note_off,,,,,70,0,2,,,1,,,50,64
28072,note_off,,,,,72,0,1,,,0,,,62,64
28073,note_off,,,,,1,0,1,,,0,,,60,64
28073,note_off,,,,,3,0,2,,,1,,,57,64
28080,note_on,,,,,0,0,2,,,1,,,57,104
28080,control_change,,,,,0,0,1,,,0,7,108,,
28080,control_change,,,,,7,0,2,,,1,7,108,,
28080,note_on,,,,,0,0,2,,,1,,,50,98
28080,note_on,,,,,7,0,1,,,0,,,62,96
28080,note_on,,,,,0,0,1,,,0,,,60,103
28080,note_on,,,,,0,0,2,,,1,,,42,101
28151,note_off,,,,,71,0,1,,,0,,,62,64
28151,note_off,,,,,71,0,2,,,1,,,57,64
28153,note_off,,,,,2,0,2,,,1,,,42,64
28153,note_off,,,,,2,0,1,,,0,,,60,64
28154,note_off,,,,,1,0,2,,,1,,,50,64
28160,note_on,,,,,0,0,2,,,1,,,50,97
28160,note_on,,,,,0,0,2,,,1,,,42,96
28160,note_on,,,,,7,0,1,,,0,,,60,97
28160,note_on,,,,,0,0,1,,,0,,,62,100
28160,note_on,,,,,6,0,2,,,1,,,57,99
28232,note_off,,,,,72,0,1,,,0,,,62,64
28232,note_off,,,,,72,0,2,,,1,,,50,64
28233,note_off,,,,,1,0,2,,,1,,,57,64
28234,note_off,,,,,2,0,1,,,0,,,60,64
28234,note_off,,,,,1,0,2,,,1,,,42,64
28240,note_on,,,,,0,0,2,,,1,,,57,102
28240,note_on,,,,,6,0,2,,,1,,,50,102
28240,note_on,,,,,0,0,1,,,0,,,60,100
28240,note_on,,,,,0,0,2,,,1,,,42,104
28240,note_on,,,,,6,0,1,,,0,,,62,97
28299,control_change,,,,,59,0,1,,,0,7,109,,
28299,control_change,,,,,59,0,2,,,1,7,109,,
28310,note_off,,,,,11,0,1,,,0,,,60,64
28312,note_off,,,,,2,0,1,,,0,,,62,64
28313,note_off,,,,,14,0,2,,,1,,,57,64
28314,note_off,,,,,0,0,2,,,1,,,50,64
28314,note_off,,,,,1,0,2,,,1,,,42,64
28320,note_on,,,,,0,0,2,,,1,,,57,98
28320,note_on,,,,,0,0,2,,,1,,,50,105
28320,note_on,,,,,8,0,1,,,0,,,62,102
28320,note_on,,,,,0,0,1,,,0,,,60,99
28320,note_on,,,,,6,0,2,,,1,,,42,99
28390,note_off,,,,,70,0,2,,,1,,,57,64
28391,note_off,,,,,71,0,1,,,0,,,60,64
28392,note_off,,,,,1,0,1,,,0,,,62,64
28393,note_off,,,,,0,0,2,,,1,,,42,64
28393,note_off,,,,,3,0,2,,,1,,,50,64
28400,note_on,,,,,0,0,1,,,0,,,62,100
28400,note_on,,,,,8,0,1,,,0,,,60,97
28400,note_on,,,,,7,0,2,,,1,,,50,100
28400,note_on,,,,,0,0,2,,,1,,,42,102
28400,note_on,,,,,0,0,2,,,1,,,57,98
28470,note_off,,,,,70,0,2,,,1,,,57,64
28472,note_off,,,,,72,0,1,,,0,,,60,64
28472,note_off,,,,,2,0,2,,,1,,,42,64
28473,note_off,,,,,1,0,2,,,1,,,50,64
28474,note_off,,,,,2,0,1,,,0,,,62,64
28480,note_on,,,,,0,0,2,,,1,,,42,99
28480,note_on,,,,,0,0,2,,,1,,,57,97
28480,note_on,,,,,0,0,1,,,0,,,60,98
28480,note_on,,,,,6,0,1,,,0,,,62,103
28480,note_on,,,,,7,0,2,,,1,,,50,99
28519,control_change,,,,,39,0,1,,,0,7,110,,
28519,control_change,,,,,39,0,2,,,1,7,110,,
28550,note_off,,,,,31,0,1,,,0,,,60,64
28552,note_off,,,,,2,0,1,,,0,,,62,64
28553,note_off,,,,,0,0,2,,,1,,,50,64
28553,note_off,,,,,1,0,1,,,0,,,74,64
28553,note_off,,,,,34,0,2,,,1,,,57,64
28554,note_off,,,,,1,0,2,,,1,,,42,64
28560,note_on,,,,,0,0,1,,,0,,,60,98
28560,note_on,,,,,0,0,1,,,0,,,62,102
28560,note_on,,,,,7,0,1,,,0,,,69,101
28560,note_on,,,,,0,0,2,,,1,,,42,97
28560,note_on,,,,,0,0,2,,,1,,,57,96
28560,note_on,,,,,6,0,2,,,1,,,50,104
28630,note_off,,,,,70,0,2,,,1,,,42,64
28631,note_off,,,,,1,0,2,,,1,,,57,64
28633,note_off,,,,,0,0,1,,,0,,,60,64
28633,note_off,,,,,73,0,1,,,0,,,62,64
28634,note_off,,,,,3,0,2,,,1,,,50,64
28640,note_on,,,,,0,0,2,,,1,,,50,104
28640,note_on,,,,,6,0,2,,,1,,,57,103
28640,note_on,,,,,0,0,2,,,1,,,42,104
28640,note_on,,,,,7,0,1,,,0,,,62,97
28640,note_on,,,,,0,0,1,,,0,,,60,103
28712,note_off,,,,,0,0,2,,,1,,,50,64
28712,note_off,,,,,72,0,2,,,1,,,42,64
28713,note_off,,,,,1,0,2,,,1,,,57,64
28714,note_off,,,,,74,0,1,,,0,,,60,64
28714,note_off,,,,,0,0,1,,,0,,,62,64
28720,note_on,,,,,0,0,2,,,1,,,57,97
28720,note_on,,,,,0,0,1,,,0,,,62,102
28720,note_on,,,,,6,0,1,,,0,,,60,102
28720,note_on,,,,,7,0,2,,,1,,,50,98
28720,note_on,,,,,0,0,2,,,1,,,42,101
28739,control_change,,,,,19,0,2,,,1,7,111,,
28739,control_change,,,,,19,0,1,,,0,7,111,,
28791,note_off,,,,,52,0,2,,,1,,,57,64
28791,note_off,,,,,52,0,1,,,0,,,60,64
28792,note_off,,,,,1,0,1,,,0,,,69,64
28792,note_off,,,,,1,0,2,,,1,,,42,64
28793,note_off,,,,,1,0,2,,,1,,,50,64
28794,note_off,,,,,2,0,1,,,0,,,62,64
28800,note_on,,,,,7,0,2,,,1,,,58,104
28800,note_on,,,,,0,0,1,,,0,,,62,102
28800,note_on,,,,,6,0,1,,,0,,,72,103
28800,note_on,,,,,0,0,2,,,1,,,43,101
28800,note_on,,,,,0,0,1,,,0,,,67,104
28800,note_on,,,,,0,0,2,,,1,,,50,104
28873,note_off,,,,,73,0,1,,,0,,,62,64
28874,note_off,,,,,1,0,1,,,0,,,67,64
28880,note_on,,,,,6,0,1,,,0,,,67,101
28880,note_on,,,,,80,0,2,,,1,,,55,102
28880,note_on,,,,,0,0,1,,,0,,,62,100
28913,note_off,,,,,33,0,1,,,0,,,72,64
28920,note_on,,,,,7,0,1,,,0,,,70,97
28950,note_off,,,,,70,0,2,,,1,,,55,64
28953,note_off,,,,,33,0,1,,,0,,,67,64
28954,note_off,,,,,1,0,1,,,0,,,62,64
28959,control_change,,,,,9,0,2,,,1,7,112,,
28959,control_change,,,,,5,0,1,,,0,7,112,,
28960,note_on,,,,,1,0,1,,,0,,,62,97
28960,note_on,,,,,1,0,2,,,1,,,55,102
28960,note_on,,,,,0,0,1,,,0,,,67,103
29030,note_off,,,,,70,0,2,,,1,,,55,64
29031,note_off,,,,,1,0,2,,,1,,,50,64
29032,note_off,,,,,72,0,1,,,0,,,67,64
29032,note_off,,,,,1,0,2,,,1,,,58,64
29033,note_off,,,,,1,0,2,,,1,,,43,64
29034,note_off,,,,,0,0,1,,,0,,,70,64
29034,note_off,,,,,2,0,1,,,0,,,62,64
29040,note_on,,,,,0,0,2,,,1,,,55,104
29040,note_on,,,,,0,0,1,,,0,,,62,101
29040,note_on,,,,,7,0,2,,,1,,,58,96
29040,note_on,,,,,6,0,1,,,0,,,70,100
29040,note_on,,,,,0,0,2,,,1,,,50,97
29040,note_on,,,,,0,0,1,,,0,,,67,100
29110,note_off,,,,,70,0,1,,,0,,,62,64
29110,note_off,,,,,70,0,2,,,1,,,50,64
29111,note_off,,,,,1,0,2,,,1,,,55,64
29111,note_off,,,,,1,0,1,,,0,,,67,64
29114,note_off,,,,,3,0,2,,,1,,,58,64
29120,note_on,,,,,6,0,2,,,1,,,58,99
29120,note_on,,,,,0,0,1,,,0,,,62,97
29120,note_on,,,,,0,0,2,,,1,,,50,98
29120,note_on,,,,,0,0,2,,,1,,,55,96
29120,note_on,,,,,9,0,1,,,0,,,67,97
29179,control_change,,,,,59,0,1,,,0,7,113,,
29179,control_change,,,,,59,0,2,,,1,7,113,,
29190,note_off,,,,,11,0,2,,,1,,,58,64
29192,note_off,,,,,0,0,2,,,1,,,50,64
29192,note_off,,,,,13,0,1,,,0,,,62,64
29192,note_off,,,,,2,0,2,,,1,,,55,64
29194,note_off,,,,,2,0,1,,,0,,,67,64
29200,note_on,,,,,6,0,1,,,0,,,62,101
29200,note_on,,,,,0,0,2,,,1,,,58,99
29200,note_on,,,,,0,0,1,,,0,,,67,100
29200,note_on,,,,,8,0,2,,,1,,,55,103
29200,note_on,,,,,0,0,2,,,1,,,50,101
29270,note_off,,,,,70,0,1,,,0,,,67,64
29270,note_off,,,,,0,0,1,,,0,,,62,64
29271,note_off,,,,,0,0,2,,,1,,,55,64
29271,note_off,,,,,71,0,2,,,1,,,50,64
29272,note_off,,,,,1,0,2,,,1,,,58,64
29272,note_off,,,,,2,0,1,,,0,,,70,64
29280,note_on,,,,,0,0,2,,,1,,,51,103
29280,note_on,,,,,0,0,2,,,1,,,46,104
29280,note_on,,,,,8,0,1,,,0,,,55,101
29280,note_on,,,,,8,0,2,,,1,,,39,100
29353,note_off,,,,,73,0,1,,,0,,,55,64
29360,note_on,,,,,0,0,1,,,0,,,58,101
29360,note_on,,,,,7,0,1,,,0,,,63,104
29360,note_on,,,,,80,0,2,,,1,,,55,96
29399,control_change,,,,,39,0,1,,,0,7,114,,
29399,control_change,,,,,39,0,2,,,1,7,114,,
29430,note_off,,,,,31,0,1,,,0,,,58,64
29433,note_off,,,,,3,0,1,,,0,,,63,64
29434,note_off,,,,,35,0,2,,,1,,,55,64
29440,note_on,,,,,7,0,1,,,0,,,63,96
29440,note_on,,,,,0,0,1,,,0,,,58,97
29440,note_on,,,,,6,0,2,,,1,,,55,101
29510,note_off,,,,,70,0,1,,,0,,,63,64
29511,note_off,,,,,71,0,2,,,1,,,39,64
29511,note_off,,,,,1,0,1,,,0,,,58,64
29512,note_off,,,,,1,0,2,,,1,,,55,64
29513,note_off,,,,,1,0,2,,,1,,,46,64
29514,note_off,,,,,1,0,2,,,1,,,51,64
29520,note_on,,,,,6,0,2,,,1,,,46,97
29520,note_on,,,,,0,0,1,,,0,,,63,97
29520,note_on,,,,,0,0,2,,,1,,,51,102
29520,note_on,,,,,0,0,2,,,1,,,55,103
29520,note_on,,,,,9,0,1,,,0,,,67,97
29520,note_on,,,,,0,0,1,,,0,,,58,103
29590,note_off,,,,,70,0,1,,,0,,,58,64
29591,note_off,,,,,71,0,2,,,1,,,51,64
29592,note_off,,,,,1,0,2,,,1,,,46,64
29594,note_off,,,,,4,0,1,,,0,,,63,64
29594,note_off,,,,,2,0,2,,,1,,,55,64
29600,note_on,,,,,0,0,2,,,1,,,51,96
29600,note_on,,,,,6,0,1,,,0,,,63,100
29600,note_on,,,,,0,0,1,,,0,,,58,100
29600,note_on,,,,,0,0,2,,,1,,,55,103
29600,note_on,,,,,6,0,2,,,1,,,46,97
29619,control_change,,,,,19,0,2,,,1,7,115,,
29619,control_change,,,,,19,0,1,,,0,7,115,,
29670,note_off,,,,,0,0,1,,,0,,,63,64
29670,note_off,,,,,51,0,1,,,0,,,58,64
29671,note_off,,,,,52,0,2,,,1,,,51,64
29673,note_off,,,,,2,0,2,,,1,,,55,64
29673,note_off,,,,,0,0,2,,,1,,,46,64
29680,note_on,,,,,0,0,2,,,1,,,55,104
29680,note_on,,,,,10,0,1,,,0,,,63,104
29680,note_on,,,,,0,0,2,,,1,,,51,102
29680,note_on,,,,,0,0,1,,,0,,,58,96
29680,note_on,,,,,7,0,2,,,1,,,46,104
29750,note_off,,,,,70,0,1,,,0,,,58,64
29751,note_off,,,,,1,0,1,,,0,,,63,64
29753,note_off,,,,,0,0,2,,,1,,,46,64
29753,note_off,,,,,2,0,1,,,0,,,67,64
29753,note_off,,,,,73,0,2,,,1,,,51,64
29754,note_off,,,,,1,0,2,,,1,,,55,64
29760,note_on,,,,,0,0,2,,,1,,,36,101
29760,note_on,,,,,0,0,2,,,1,,,43,104
29760,note_on,,,,,0,0,2,,,1,,,45,104
29760,note_on,,,,,7,0,1,,,0,,,69,113
29760,note_on,,,,,0,0,1,,,0,,,55,102
29760,note_on,,,,,0,0,1,,,0,,,57,101
29760,note_on,,,,,0,0,1,,,0,,,63,104
29760,note_on,,,,,6,0,2,,,1,,,51,108
29830,note_off,,,,,70,0,1,,,0,,,57,64
29830,note_off,,,,,70,0,2,,,1,,,36,64
29831,note_off,,,,,1,0,2,,,1,,,43,64
29832,note_off,,,,,1,0,2,,,1,,,45,64
29833,note_off,,,,,1,0,2,,,1,,,51,64
29833,note_off,,,,,3,0,1,,,0,,,63,64
29834,note_off,,,,,1,0,1,,,0,,,55,64
29839,control_change,,,,,6,0,2,,,1,7,116,,
29839,control_change,,,,,5,0,1,,,0,7,116,,
29840,note_on,,,,,0,0,2,,,1,,,45,103
29840,note_on,,,,,0,0,2,,,1,,,43,103
29840,note_on,,,,,0,0,1,,,0,,,55,99
29840,note_on,,,,,1,0,1,,,0,,,63,100
29840,note_on,,,,,0,0,1,,,0,,,57,97
29840,note_on,,,,,1,0,2,,,1,,,36,100
29840,note_on,,,,,0,0,2,,,1,,,51,101
29910,note_off,,,,,70,0,2,,,1,,,51,64
29910,note_off,,,,,70,0,1,,,0,,,55,64
29912,note_off,,,,,0,0,2,,,1,,,43,64
29912,note_off,,,,,2,0,2,,,1,,,45,64
29912,note_off,,,,,2,0,1,,,0,,,57,64
29913,note_off,,,,,1,0,2,,,1,,,36,64
29913,note_off,,,,,1,0,1,,,0,,,63,64
29920,note_on,,,,,0,0,2,,,1,,,45,103
29920,note_on,,,,,0,0,1,,,0,,,57,100
29920,note_on,,,,,0,0,2,,,1,,,51,97
29920,note_on,,,,,0,0,1,,,0,,,55,100
29920,note_on,,,,,0,0,2,,,1,,,43,99
29920,note_on,,,,,7,0,1,,,0,,,63,96
29920,note_on,,,,,7,0,2,,,1,,,36,99
29991,note_off,,,,,0,0,1,,,0,,,63,64
29991,note_off,,,,,71,0,1,,,0,,,57,64
29992,note_off,,,,,72,0,2,,,1,,,36,64
29993,note_off,,,,,2,0,1,,,0,,,55,64
29993,note_off,,,,,1,0,2,,,1,,,43,64
29994,note_off,,,,,0,0,2,,,1,,,45,64
29994,note_off,,,,,1,0,2,,,1,,,51,64
30000,note_on,,,,,7,0,1,,,0,,,63,102
30000,note_on,,,,,6,0,2,,,1,,,43,103
30000,note_on,,,,,0,0,2,,,1,,,45,96
30000,note_on,,,,,0,0,2,,,1,,,51,100
30000,note_on,,,,,0,0,1,,,0,,,55,104
30000,note_on,,,,,0,0,1,,,0,,,57,103
30059,control_change,,,,,59,0,1,,,0,7,117,,
30059,control_change,,,,,59,0,2,,,1,7,117,,
30070,note_off,,,,,11,0,2,,,1,,,45,64
30070,note_off,,,,,11,0,1,,,0,,,57,64
30071,note_off,,,,,1,0,2,,,1,,,51,64
30071,note_off,,,,,0,0,2,,,1,,,43,64
30073,note_off,,,,,3,0,1,,,0,,,63,64
30074,note_off,,,,,1,0,1,,,0,,,55,64
30080,note_on,,,,,0,0,1,,,0,,,57,100
30080,note_on,,,,,0,0,2,,,1,,,51,99
30080,note_on,,,,,6,0,1,,,0,,,63,100
30080,note_on,,,,,0,0,1,,,0,,,55,101
30080,note_on,,,,,0,0,2,,,1,,,43,96
30080,note_on,,,,,9,0,2,,,1,,,45,104
30150,note_off,,,,,70,0,1,,,0,,,63,64
30150,note_off,,,,,70,0,2,,,1,,,43,64
30152,note_off,,,,,2,0,2,,,1,,,45,64
30152,note_off,,,,,2,0,1,,,0,,,55,64
30153,note_off,,,,,1,0,1,,,0,,,57,64
30153,note_off,,,,,1,0,2,,,1,,,51,64
30160,note_on,,,,,7,0,1,,,0,,,57,102
30160,note_on,,,,,0,0,2,,,1,,,45,98
30160,note_on,,,,,0,0,1,,,0,,,55,102
30160,note_on,,,,,0,0,2,,,1,,,51,97
30160,note_on,,,,,7,0,2,,,1,,,43,102
30160,note_on,,,,,0,0,1,,,0,,,63,97
30230,note_off,,,,,70,0,2,,,1,,,45,64
30231,note_off,,,,,71,0,1,,,0,,,55,64
30231,note_off,,,,,1,0,2,,,1,,,43,64
30232,note_off,,,,,1,0,1,,,0,,,63,64
30234,note_off,,,,,2,0,1,,,0,,,57,64
30234,note_off,,,,,3,0,2,,,1,,,51,64
30234,note_off,,,,,0,0,1,,,0,,,69,64
30240,note_on,,,,,6,0,1,,,0,,,66,107
30240,note_on,,,,,0,0,1,,,0,,,57,103
30240,note_on,,,,,6,0,2,,,1,,,45,100
30240,note_on,,,,,0,0,2,,,1,,,38,103
30240,note_on,,,,,0,0,2,,,1,,,50,102
30240,note_on,,,,,0,0,2,,,1,,,42,106
30240,note_on,,,,,0,0,1,,,0,,,54,105
30240,note_on,,,,,0,0,1,,,0,,,62,98
30279,control_change,,,,,39,0,1,,,0,7,118,,
30279,control_change,,,,,39,0,2,,,1,7,118,,
30310,note_off,,,,,0,0,2,,,1,,,42,64
30310,note_off,,,,,31,0,2,,,1,,,50,64
30311,note_off,,,,,32,0,1,,,0,,,54,64
30312,note_off,,,,,1,0,1,,,0,,,62,64
30313,note_off,,,,,3,0,2,,,1,,,38,64
30313,note_off,,,,,1,0,1,,,0,,,57,64
30313,note_off,,,,,0,0,2,,,1,,,45,64
30320,note_on,,,,,0,0,2,,,1,,,38,101
30320,note_on,,,,,0,0,1,,,0,,,57,103
30320,note_on,,,,,0,0,2,,,1,,,45,98
30320,note_on,,,,,0,0,1,,,0,,,54,101
30320,note_on,,,,,7,0,2,,,1,,,50,103
30320,note_on,,,,,0,0,2,,,1,,,42,103
30320,note_on,,,,,7,0,1,,,0,,,62,104
30390,note_off,,,,,70,0,1,,,0,,,54,64
30390,note_off,,,,,70,0,2,,,1,,,38,64
30393,note_off,,,,,0,0,2,,,1,,,42,64
30393,note_off,,,,,3,0,2,,,1,,,45,64
30393,note_off,,,,,3,0,1,,,0,,,62,64
30394,note_off,,,,,1,0,2,,,1,,,50,64
30394,note_off,,,,,1,0,1,,,0,,,57,64
30400,note_on,,,,,0,0,2,,,1,,,45,100
30400,note_on,,,,,6,0,2,,,1,,,50,104
30400,note_on,,,,,0,0,2,,,1,,,38,104
30400,note_on,,,,,0,0,1,,,0,,,62,99
30400,note_on,,,,,0,0,1,,,0,,,57,98
30400,note_on,,,,,6,0,1,,,0,,,54,101
30400,note_on,,,,,0,0,2,,,1,,,42,99
30470,note_off,,,,,70,0,1,,,0,,,57,64
30472,note_off,,,,,2,0,1,,,0,,,62,64
30473,note_off,,,,,73,0,2,,,1,,,45,64
30473,note_off,,,,,1,0,1,,,0,,,54,64
30473,note_off,,,,,0,0,2,,,1,,,42,64
30473,note_off,,,,,0,0,2,,,1,,,50,64
30474,note_off,,,,,1,0,2,,,1,,,38,64
30480,note_on,,,,,0,0,2,,,1,,,45,102
30480,note_on,,,,,0,0,2,,,1,,,50,102
30480,note_on,,,,,6,0,2,,,1,,,42,97
30480,note_on,,,,,7,0,1,,,0,,,62,96
30480,note_on,,,,,0,0,1,,,0,,,57,100
30480,note_on,,,,,0,0,1,,,0,,,54,97
30499,control_change,,,,,19,0,2,,,1,7,119,,
30499,control_change,,,,,19,0,1,,,0,7,119,,
30550,note_off,,,,,51,0,2,,,1,,,42,64
30553,note_off,,,,,0,0,1,,,0,,,62,64
30553,note_off,,,,,54,0,1,,,0,,,54,64
30554,note_off,,,,,1,0,1,,,0,,,57,64
30554,note_off,,,,,0,0,2,,,1,,,45,64
30554,note_off,,,,,4,0,2,,,1,,,50,64
30560,note_on,,,,,6,0,2,,,1,,,50,98
30560,note_on,,,,,0,0,2,,,1,,,42,100
30560,note_on,,,,,0,0,2,,,1,,,45,104
30560,note_on,,,,,0,0,1,,,0,,,54,100
30560,note_on,,,,,6,0,1,,,0,,,57,97
30560,note_on,,,,,0,0,1,,,0,,,62,100
30632,note_off,,,,,72,0,2,,,1,,,42,64
30633,note_off,,,,,1,0,2,,,1,,,50,64
30633,note_off,,,,,73,0,1,,,0,,,54,64
30633,note_off,,,,,0,0,1,,,0,,,57,64
30634,note_off,,,,,1,0,1,,,0,,,62,64
30634,note_off,,,,,1,0,2,,,1,,,45,64
30640,note_on,,,,,6,0,1,,,0,,,62,97
30640,note_on,,,,,0,0,2,,,1,,,50,97
30640,note_on,,,,,0,0,2,,,1,,,42,97
30640,note_on,,,,,6,0,2,,,1,,,45,101
30640,note_on,,,,,0,0,1,,,0,,,54,102
30640,note_on,,,,,0,0,1,,,0,,,57,98
30710,note_off,,,,,70,0,2,,,1,,,45,64
30711,note_off,,,,,71,0,1,,,0,,,57,64
30711,note_off,,,,,0,0,1,,,0,,,66,64
30712,note_off,,,,,2,0,2,,,1,,,50,64
30712,note_off,,,,,1,0,1,,,0,,,54,64
30713,note_off,,,,,1,0,1,,,0,,,62,64
30714,note_off,,,,,2,0,2,,,1,,,42,64
30719,control_change,,,,,6,0,1,,,0,7,120,,
30719,control_change,,,,,5,0,2,,,1,7,120,,
30720,note_on,,,,,0,0,1,,,0,,,55,108
30720,note_on,,,,,0,0,2,,,1,,,43,108
30720,note_on,,,,,1,0,2,,,1,,,38,102
30720,note_on,,,,,0,0,2,,,1,,,34,100
30720,note_on,,,,,0,0,1,,,0,,,62,107
30720,note_on,,,,,1,0,1,,,0,,,67,106
30720,note_on,,,,,0,0,1,,,0,,,58,106
30720,set_tempo,,,,,15360,1,0,468750,,,,,,
30720,note_on,,,,,0,0,2,,,1,,,31,101
30791,note_off,,,,,0,0,1,,,0,,,67,64
30791,note_off,,,,,71,0,1,,,0,,,62,64
30792,note_off,,,,,1,0,1,,,0,,,55,64
30793,note_off,,,,,1,0,1,,,0,,,58,64
30800,note_on,,,,,0,0,1,,,0,,,67,102
30800,note_on,,,,,7,0,1,,,0,,,55,103
30872,note_off,,,,,0,0,1,,,0,,,55,64
30872,note_off,,,,,72,0,1,,,0,,,67,64
30880,note_on,,,,,0,0,1,,,0,,,55,99
30880,note_on,,,,,8,0,1,,,0,,,67,103
30950,note_off,,,,,230,0,2,,,1,,,43,64
30951,note_off,,,,,1,0,2,,,1,,,38,64
30953,note_off,,,,,73,0,1,,,0,,,55,64
30953,note_off,,,,,2,0,2,,,1,,,31,64
30954,note_off,,,,,1,0,1,,,0,,,67,64
30954,note_off,,,,,1,0,2,,,1,,,34,64
30960,note_on,,,,,0,0,1,,,0,,,67,103
30960,note_on,,,,,6,0,1,,,0,,,55,99
31033,note_off,,,,,0,0,1,,,0,,,55,64
31033,note_off,,,,,73,0,1,,,0,,,67,64
31040,note_on,,,,,0,0,1,,,0,,,67,104
31040,note_on,,,,,7,0,1,,,0,,,55,100
31112,note_off,,,,,72,0,1,,,0,,,55,64
31113,note_off,,,,,1,0,1,,,0,,,67,64
31120,note_on,,,,,0,0,1,,,0,,,67,99
31120,note_on,,,,,7,0,1,,,0,,,55,102
31193,note_off,,,,,73,0,1,,,0,,,55,64
31194,note_off,,,,,1,0,1,,,0,,,67,64
31200,note_on,,,,,0,0,1,,,0,,,67,105
31200,note_on,,,,,6,0,1,,,0,,,55,101
31271,note_off,,,,,71,0,1,,,0,,,55,64
31273,note_off,,,,,2,0,1,,,0,,,67,64
31280,note_on,,,,,0,0,1,,,0,,,55,96
31280,note_on,,,,,7,0,1,,,0,,,67,97
31352,note_off,,,,,72,0,1,,,0,,,55,64
31354,note_off,,,,,2,0,1,,,0,,,67,64
31360,note_on,,,,,0,0,1,,,0,,,67,99
31360,note_on,,,,,6,0,1,,,0,,,55,104
31432,note_off,,,,,72,0,1,,,0,,,67,64
31434,note_off,,,,,2,0,1,,,0,,,55,64
31440,note_on,,,,,0,0,1,,,0,,,67,103
31440,note_on,,,,,6,0,1,,,0,,,55,98
31512,note_off,,,,,72,0,1,,,0,,,67,64
31512,note_off,,,,,0,0,1,,,0,,,55,64
31520,note_on,,,,,8,0,1,,,0,,,55,98
31520,note_on,,,,,0,0,1,,,0,,,67,103
31594,note_off,,,,,74,0,1,,,0,,,67,64
31594,note_off,,,,,0,0,1,,,0,,,55,64
31600,note_on,,,,,0,0,1,,,0,,,67,99
31600,note_on,,,,,6,0,1,,,0,,,55,99
31670,note_off,,,,,70,0,1,,,0,,,55,64
31671,note_off,,,,,1,0,1,,,0,,,67,64
31680,note_on,,,,,0,0,2,,,1,,,43,107
31680,note_on,,,,,726,0,2,,,1,,,31,104
31680,note_on,,,,,9,0,1,,,0,,,55,106
31680,note_on,,,,,0,0,1,,,0,,,67,103
31751,note_off,,,,,71,0,1,,,0,,,55,64
31753,note_off,,,,,73,0,2,,,1,,,31,64
31753,note_off,,,,,2,0,1,,,0,,,67,64
31754,note_off,,,,,1,0,2,,,1,,,43,64
31760,note_on,,,,,6,0,2,,,1,,,45,99
31760,note_on,,,,,7,0,1,,,0,,,55,100
31760,note_on,,,,,0,0,1,,,0,,,67,99
31760,note_on,,,,,0,0,2,,,1,,,33,96
31832,note_off,,,,,72,0,2,,,1,,,45,64
31833,note_off,,,,,73,0,1,,,0,,,67,64
31834,note_off,,,,,1,0,1,,,0,,,55,64
31834,note_off,,,,,2,0,2,,,1,,,33,64
31840,note_on,,,,,6,0,1,,,0,,,67,96
31840,note_on,,,,,6,0,2,,,1,,,46,97
31840,note_on,,,,,0,0,2,,,1,,,34,104
31840,note_on,,,,,0,0,1,,,0,,,55,97
31910,note_off,,,,,70,0,1,,,0,,,67,64
31913,note_off,,,,,0,0,2,,,1,,,46,64
31913,note_off,,,,,3,0,1,,,0,,,55,64
31913,note_off,,,,,73,0,2,,,1,,,34,64
31920,note_on,,,,,7,0,2,,,1,,,48,102
31920,note_on,,,,,0,0,1,,,0,,,55,98
31920,note_on,,,,,7,0,1,,,0,,,67,100
31920,note_on,,,,,0,0,2,,,1,,,36,100
31990,note_off,,,,,70,0,2,,,1,,,48,64
31990,note_off,,,,,70,0,1,,,0,,,67,64
31992,note_off,,,,,2,0,1,,,0,,,55,64
31994,note_off,,,,,4,0,2,,,1,,,36,64
32000,note_on,,,,,0,0,2,,,1,,,38,104
32000,note_on,,,,,0,0,1,,,0,,,67,104
32000,note_on,,,,,8,0,1,,,0,,,55,97
32000,note_on,,,,,6,0,2,,,1,,,50,101
32072,note_off,,,,,72,0,1,,,0,,,67,64
32072,note_off,,,,,0,0,1,,,0,,,55,64
32073,note_off,,,,,73,0,2,,,1,,,50,64
32074,note_off,,,,,1,0,2,,,1,,,38,64
32080,note_on,,,,,6,0,2,,,1,,,51,97
32080,note_on,,,,,0,0,2,,,1,,,39,100
32080,note_on,,,,,8,0,1,,,0,,,55,101
32080,note_on,,,,,0,0,1,,,0,,,67,97
32150,note_off,,,,,70,0,1,,,0,,,55,64
32151,note_off,,,,,71,0,2,,,1,,,39,64
32154,note_off,,,,,4,0,1,,,0,,,67,64
32154,note_off,,,,,3,0,2,,,1,,,51,64
32160,note_on,,,,,6,0,2,,,1,,,38,100
32160,note_on,,,,,6,0,1,,,0,,,67,105
32160,note_on,,,,,0,0,2,,,1,,,50,100
32160,note_on,,,,,0,0,1,,,0,,,55,99
32230,note_off,,,,,70,0,1,,,0,,,67,64
32233,note_off,,,,,3,0,1,,,0,,,55,64
32240,note_on,,,,,0,0,1,,,0,,,55,102
32240,note_on,,,,,7,0,1,,,0,,,67,103
32270,note_off,,,,,110,0,2,,,1,,,38,64
32271,note_off,,,,,1,0,2,,,1,,,50,64
32310,note_off,,,,,0,0,1,,,0,,,67,64
32310,note_off,,,,,70,0,1,,,0,,,55,64
32320,note_on,,,,,0,0,1,,,0,,,55,98
32320,note_on,,,,,10,0,1,,,0,,,67,100
32391,note_off,,,,,71,0,1,,,0,,,55,64
32393,note_off,,,,,2,0,1,,,0,,,67,64
32400,note_on,,,,,7,0,1,,,0,,,67,101
32400,note_on,,,,,0,0,1,,,0,,,55,104
32400,note_on,,,,,0,0,2,,,1,,,46,104
32400,note_on,,,,,129,0,2,,,1,,,34,96
32471,note_off,,,,,71,0,1,,,0,,,67,64
32473,note_off,,,,,2,0,1,,,0,,,55,64
32480,note_on,,,,,0,0,1,,,0,,,55,103
32480,note_on,,,,,7,0,1,,,0,,,67,103
32511,note_off,,,,,111,0,2,,,1,,,34,64
32514,note_off,,,,,3,0,2,,,1,,,46,64
32552,note_off,,,,,72,0,1,,,0,,,55,64
32552,note_off,,,,,0,0,1,,,0,,,67,64
32560,note_on,,,,,0,0,1,,,0,,,67,102
32560,note_on,,,,,8,0,1,,,0,,,55,99
32631,note_off,,,,,71,0,1,,,0,,,55,64
32633,note_off,,,,,2,0,1,,,0,,,67,64
32640,note_on,,,,,0,0,1,,,0,,,55,103
32640,note_on,,,,,126,0,2,,,1,,,31,100
32640,note_on,,,,,0,0,2,,,1,,,43,102
32640,note_on,,,,,7,0,1,,,0,,,67,100
32710,note_off,,,,,70,0,1,,,0,,,67,64
32712,note_off,,,,,2,0,1,,,0,,,55,64
32720,note_on,,,,,8,0,1,,,0,,,67,103
32720,note_on,,,,,0,0,1,,,0,,,55,102
32751,note_off,,,,,111,0,2,,,1,,,43,64
32754,note_off,,,,,3,0,2,,,1,,,31,64
32792,note_off,,,,,72,0,1,,,0,,,67,64
32794,note_off,,,,,2,0,1,,,0,,,55,64
32800,note_on,,,,,0,0,1,,,0,,,55,97
32800,note_on,,,,,6,0,1,,,0,,,67,98
32870,note_off,,,,,70,0,1,,,0,,,55,64
32872,note_off,,,,,2,0,1,,,0,,,67,64
32880,note_on,,,,,0,0,1,,,0,,,67,97
32880,note_on,,,,,8,0,1,,,0,,,55,104
32951,note_off,,,,,71,0,1,,,0,,,67,64
32951,note_off,,,,,0,0,1,,,0,,,55,64
32960,note_on,,,,,9,0,1,,,0,,,55,96
32960,note_on,,,,,0,0,1,,,0,,,67,101
33030,note_off,,,,,70,0,1,,,0,,,55,64
33034,note_off,,,,,4,0,1,,,0,,,67,64
33040,note_on,,,,,6,0,1,,,0,,,67,101
33040,note_on,,,,,0,0,1,,,0,,,55,101
33113,note_off,,,,,73,0,1,,,0,,,67,64
33114,note_off,,,,,1,0,1,,,0,,,55,64
33120,note_on,,,,,6,0,1,,,0,,,67,100
33120,note_on,,,,,0,0,1,,,0,,,55,103
33193,note_off,,,,,0,0,1,,,0,,,67,64
33193,note_off,,,,,73,0,1,,,0,,,55,64
33200,note_on,,,,,0,0,1,,,0,,,67,104
33200,note_on,,,,,7,0,1,,,0,,,55,103
33272,note_off,,,,,72,0,1,,,0,,,55,64
33273,note_off,,,,,1,0,1,,,0,,,67,64
33280,note_on,,,,,0,0,1,,,0,,,67,99
33280,note_on,,,,,7,0,1,,,0,,,55,97
33353,note_off,,,,,73,0,1,,,0,,,55,64
33354,note_off,,,,,1,0,1,,,0,,,67,64
33360,note_on,,,,,6,0,1,,,0,,,67,104
33360,note_on,,,,,0,0,1,,,0,,,55,100
33431,note_off,,,,,71,0,1,,,0,,,55,64
33432,note_off,,,,,1,0,1,,,0,,,67,64
33440,note_on,,,,,8,0,1,,,0,,,67,97
33440,note_on,,,,,0,0,1,,,0,,,55,100
33510,note_off,,,,,70,0,1,,,0,,,67,64
33514,note_off,,,,,4,0,1,,,0,,,55,64
33520,note_on,,,,,0,0,1,,,0,,,67,104
33520,note_on,,,,,6,0,1,,,0,,,55,102
33592,note_off,,,,,72,0,1,,,0,,,67,64
33594,note_off,,,,,2,0,1,,,0,,,55,64
33600,note_on,,,,,6,0,1,,,0,,,67,74
33600,control_change,,,,,846,0,2,,,1,7,127,,
33600,note_on,,,,,0,0,2,,,1,,,31,79
33600,control_change,,,,,0,0,1,,,0,7,127,,
33600,note_on,,,,,0,0,1,,,0,,,55,71
33670,note_off,,,,,70,0,1,,,0,,,67,64
33671,note_off,,,,,71,0,2,,,1,,,31,64
33674,note_off,,,,,4,0,1,,,0,,,55,64
33680,note_on,,,,,6,0,1,,,0,,,55,75
33680,note_on,,,,,0,0,1,,,0,,,67,74
33680,note_on,,,,,9,0,2,,,1,,,33,72
33750,note_off,,,,,70,0,1,,,0,,,67,64
33753,note_off,,,,,3,0,1,,,0,,,55,64
33754,note_off,,,,,74,0,2,,,1,,,33,64
33760,note_on,,,,,7,0,1,,,0,,,55,68
33760,note_on,,,,,6,0,2,,,1,,,34,67
33760,note_on,,,,,0,0,1,,,0,,,67,73
33832,note_off,,,,,72,0,2,,,1,,,34,64
33832,note_off,,,,,72,0,1,,,0,,,55,64
33834,note_off,,,,,2,0,1,,,0,,,67,64
33840,note_on,,,,,8,0,2,,,1,,,36,72
33840,note_on,,,,,0,0,1,,,0,,,67,71
33840,note_on,,,,,6,0,1,,,0,,,55,70
33910,note_off,,,,,0,0,1,,,0,,,55,64
33910,note_off,,,,,70,0,1,,,0,,,67,64
33911,note_off,,,,,71,0,2,,,1,,,36,64
33920,note_on,,,,,0,0,1,,,0,,,67,69
33920,note_on,,,,,10,0,1,,,0,,,55,72
33920,note_on,,,,,9,0,2,,,1,,,38,71
33990,note_off,,,,,70,0,1,,,0,,,67,64
33991,note_off,,,,,1,0,1,,,0,,,55,64
33994,note_off,,,,,74,0,2,,,1,,,38,64
34000,note_on,,,,,9,0,1,,,0,,,55,67
34000,note_on,,,,,6,0,2,,,1,,,39,75
34000,note_on,,,,,0,0,1,,,0,,,67,74
34070,note_off,,,,,70,0,1,,,0,,,67,64
34072,note_off,,,,,2,0,1,,,0,,,55,64
34073,note_off,,,,,73,0,2,,,1,,,39,64
34080,note_on,,,,,7,0,2,,,1,,,38,74
34080,note_on,,,,,8,0,1,,,0,,,67,72
34080,note_on,,,,,0,0,1,,,0,,,55,69
34152,note_off,,,,,72,0,1,,,0,,,55,64
34153,note_off,,,,,1,0,1,,,0,,,67,64
34160,note_on,,,,,7,0,1,,,0,,,67,69
34160,note_on,,,,,0,0,1,,,0,,,55,68
34191,note_off,,,,,111,0,2,,,1,,,38,64
34233,note_off,,,,,0,0,1,,,0,,,67,64
34233,note_off,,,,,73,0,1,,,0,,,55,64
34240,note_on,,,,,7,0,1,,,0,,,55,71
34240,note_on,,,,,0,0,1,,,0,,,67,71
34313,note_off,,,,,73,0,1,,,0,,,67,64
34314,note_off,,,,,1,0,1,,,0,,,55,64
34320,note_on,,,,,0,0,1,,,0,,,67,73
34320,note_on,,,,,6,0,1,,,0,,,55,70
34320,note_on,,,,,129,0,2,,,1,,,34,68
34391,note_off,,,,,71,0,1,,,0,,,55,64
34394,note_off,,,,,3,0,1,,,0,,,67,64
34400,note_on,,,,,0,0,1,,,0,,,55,68
34400,note_on,,,,,6,0,1,,,0,,,67,71
34431,note_off,,,,,111,0,2,,,1,,,34,64
34471,note_off,,,,,71,0,1,,,0,,,67,64
34474,note_off,,,,,3,0,1,,,0,,,55,64
34480,note_on,,,,,6,0,1,,,0,,,55,72
34480,note_on,,,,,0,0,1,,,0,,,67,74
34551,note_off,,,,,71,0,1,,,0,,,67,64
34553,note_off,,,,,2,0,1,,,0,,,55,64
34560,note_on,,,,,7,0,1,,,0,,,55,73
34560,note_on,,,,,0,0,1,,,0,,,67,77
34560,note_on,,,,,129,0,2,,,1,,,31,74
34630,note_off,,,,,70,0,1,,,0,,,55,64
34631,note_off,,,,,1,0,1,,,0,,,67,64
34640,note_on,,,,,0,0,1,,,0,,,55,74
34640,note_on,,,,,9,0,1,,,0,,,67,75
34672,note_off,,,,,112,0,2,,,1,,,31,64
34710,note_off,,,,,70,0,1,,,0,,,67,64
34712,note_off,,,,,2,0,1,,,0,,,55,64
34720,note_on,,,,,0,0,1,,,0,,,55,73
34720,note_on,,,,,8,0,1,,,0,,,67,74
34790,note_off,,,,,70,0,1,,,0,,,67,64
34794,note_off,,,,,4,0,1,,,0,,,55,64
34800,note_on,,,,,0,0,1,,,0,,,55,67
34800,note_on,,,,,6,0,1,,,0,,,67,71
34870,note_off,,,,,70,0,1,,,0,,,67,64
34871,note_off,,,,,1,0,1,,,0,,,55,64
34880,note_on,,,,,0,0,1,,,0,,,55,70
34880,note_on,,,,,9,0,1,,,0,,,67,72
34950,note_off,,,,,70,0,1,,,0,,,55,64
34951,note_off,,,,,1,0,1,,,0,,,67,64
34960,note_on,,,,,0,0,1,,,0,,,67,67
34960,note_on,,,,,9,0,1,,,0,,,55,72
35030,note_off,,,,,70,0,1,,,0,,,67,64
35030,note_off,,,,,0,0,1,,,0,,,55,64
35040,note_on,,,,,10,0,1,,,0,,,55,69
35040,note_on,,,,,0,0,1,,,0,,,67,74
35113,note_off,,,,,0,0,1,,,0,,,55,64
35113,note_off,,,,,73,0,1,,,0,,,67,64
35120,note_on,,,,,7,0,1,,,0,,,67,73
35120,note_on,,,,,0,0,1,,,0,,,55,73
35190,note_off,,,,,70,0,1,,,0,,,55,64
35194,note_off,,,,,4,0,1,,,0,,,67,64
35200,note_on,,,,,6,0,1,,,0,,,67,74
35200,note_on,,,,,0,0,1,,,0,,,55,75
35272,note_off,,,,,0,0,1,,,0,,,67,64
35272,note_off,,,,,72,0,1,,,0,,,55,64
35280,note_on,,,,,8,0,1,,,0,,,67,74
35280,note_on,,,,,608,0,2,,,1,,,50,69
35280,note_on,,,,,0,0,1,,,0,,,55,68
35352,note_off,,,,,72,0,1,,,0,,,55,64
35354,note_off,,,,,2,0,1,,,0,,,67,64
35360,note_on,,,,,0,0,1,,,0,,,55,67
35360,note_on,,,,,6,0,1,,,0,,,67,73
35432,note_off,,,,,72,0,1,,,0,,,67,64
35433,note_off,,,,,1,0,1,,,0,,,55,64
35440,note_on,,,,,0,0,1,,,0,,,55,75
35440,note_on,,,,,7,0,1,,,0,,,67,73
35511,note_off,,,,,71,0,1,,,0,,,67,64
35512,note_off,,,,,1,0,1,,,0,,,55,64
35513,note_off,,,,,233,0,2,,,1,,,50,64
35520,note_on,,,,,7,0,2,,,1,,,55,72
35600,note_on,,,,,0,0,1,,,0,,,67,74
35600,note_on,,,,,88,0,1,,,0,,,55,75
35670,note_off,,,,,70,0,1,,,0,,,55,64
35674,note_off,,,,,4,0,1,,,0,,,67,64
35680,note_on,,,,,6,0,1,,,0,,,55,68
35680,note_on,,,,,0,0,1,,,0,,,67,68
35754,note_off,,,,,0,0,1,,,0,,,55,64
35754,note_off,,,,,74,0,1,,,0,,,67,64
35760,note_on,,,,,6,0,1,,,0,,,67,75
35760,note_on,,,,,0,0,1,,,0,,,55,72
35830,note_off,,,,,70,0,1,,,0,,,67,64
35832,note_off,,,,,2,0,1,,,0,,,55,64
35840,note_on,,,,,0,0,1,,,0,,,67,75
35840,note_on,,,,,8,0,1,,,0,,,55,68
35913,note_off,,,,,73,0,1,,,0,,,67,64
35913,note_off,,,,,0,0,1,,,0,,,55,64
35920,note_on,,,,,0,0,1,,,0,,,67,73
35920,note_on,,,,,7,0,1,,,0,,,55,69
35991,note_off,,,,,71,0,1,,,0,,,67,64
35993,note_off,,,,,2,0,1,,,0,,,55,64
35994,note_off,,,,,474,0,2,,,1,,,55,64
36000,note_on,,,,,7,0,1,,,0,,,67,74
36000,note_on,,,,,0,0,1,,,0,,,55,70
36073,note_off,,,,,73,0,1,,,0,,,55,64
36074,note_off,,,,,1,0,1,,,0,,,67,64
36080,note_on,,,,,6,0,1,,,0,,,67,72
36080,note_on,,,,,0,0,1,,,0,,,55,74
36150,note_off,,,,,70,0,1,,,0,,,67,64
36152,note_off,,,,,2,0,1,,,0,,,55,64
36160,note_on,,,,,8,0,1,,,0,,,55,69
36160,note_on,,,,,0,0,1,,,0,,,67,71
36230,note_off,,,,,70,0,1,,,0,,,55,64
36232,note_off,,,,,2,0,1,,,0,,,67,64
36240,note_on,,,,,246,0,2,,,1,,,50,75
36240,note_on,,,,,8,0,1,,,0,,,67,70
36240,note_on,,,,,0,0,1,,,0,,,55,72
36313,note_off,,,,,73,0,1,,,0,,,55,64
36313,note_off,,,,,0,0,1,,,0,,,67,64
36320,note_on,,,,,7,0,1,,,0,,,55,70
36320,note_on,,,,,0,0,1,,,0,,,67,68
36390,note_off,,,,,70,0,1,,,0,,,55,64
36393,note_off,,,,,3,0,1,,,0,,,67,64
36400,note_on,,,,,7,0,1,,,0,,,55,68
36400,note_on,,,,,0,0,1,,,0,,,67,75
36472,note_off,,,,,72,0,1,,,0,,,55,64
36473,note_off,,,,,233,0,2,,,1,,,50,64
36474,note_off,,,,,2,0,1,,,0,,,67,64
36480,note_on,,,,,7,0,2,,,1,,,55,75
36560,note_on,,,,,0,0,1,,,0,,,67,73
36560,note_on,,,,,86,0,1,,,0,,,55,68
36633,note_off,,,,,73,0,1,,,0,,,67,64
36634,note_off,,,,,1,0,1,,,0,,,55,64
36640,note_on,,,,,6,0,1,,,0,,,55,69
36640,note_on,,,,,0,0,1,,,0,,,67,67
36711,note_off,,,,,71,0,1,,,0,,,67,64
36711,note_off,,,,,0,0,1,,,0,,,55,64
36720,note_on,,,,,9,0,1,,,0,,,67,74
36720,note_on,,,,,0,0,1,,,0,,,55,69
36790,note_off,,,,,70,0,1,,,0,,,55,64
36792,note_off,,,,,2,0,1,,,0,,,67,64
36800,note_on,,,,,8,0,1,,,0,,,67,72
36800,note_on,,,,,0,0,1,,,0,,,55,72
36870,note_off,,,,,70,0,1,,,0,,,55,64
36873,note_off,,,,,3,0,1,,,0,,,67,64
36880,note_on,,,,,7,0,1,,,0,,,55,71
36880,note_on,,,,,0,0,1,,,0,,,67,73
36953,note_off,,,,,73,0,1,,,0,,,67,64
36953,note_off,,,,,0,0,1,,,0,,,55,64
36953,note_off,,,,,473,0,2,,,1,,,55,64
36960,note_on,,,,,7,0,2,,,1,,,57,69
37040,note_on,,,,,87,0,1,,,0,,,69,73
37040,note_on,,,,,0,0,1,,,0,,,67,74
37040,note_on,,,,,0,0,1,,,0,,,57,69
37110,note_off,,,,,0,0,1,,,0,,,57,64
37110,note_off,,,,,70,0,1,,,0,,,67,64
37111,note_off,,,,,1,0,1,,,0,,,69,64
37120,note_on,,,,,0,0,1,,,0,,,67,70
37120,note_on,,,,,0,0,1,,,0,,,57,69
37120,note_on,,,,,9,0,1,,,0,,,69,71
37190,note_off,,,,,70,0,1,,,0,,,67,64
37191,note_off,,,,,1,0,1,,,0,,,57,64
37193,note_off,,,,,2,0,1,,,0,,,69,64
37200,note_on,,,,,0,0,1,,,0,,,67,73
37200,note_on,,,,,0,0,1,,,0,,,57,69
37200,note_on,,,,,7,0,1,,,0,,,69,72
37272,note_off,,,,,72,0,1,,,0,,,57,64
37273,note_off,,,,,1,0,1,,,0,,,67,64
37273,note_off,,,,,0,0,1,,,0,,,69,64
37280,note_on,,,,,0,0,1,,,0,,,67,67
37280,note_on,,,,,0,0,1,,,0,,,57,73
37280,note_on,,,,,7,0,1,,,0,,,69,71
37311,note_off,,,,,351,0,2,,,1,,,57,64
37320,note_on,,,,,9,0,2,,,1,,,57,73
37351,note_off,,,,,71,0,1,,,0,,,57,64
37353,note_off,,,,,2,0,1,,,0,,,67,64
37354,note_off,,,,,1,0,1,,,0,,,69,64
37360,note_on,,,,,0,0,1,,,0,,,69,71
37360,note_on,,,,,6,0,1,,,0,,,67,74
37360,note_on,,,,,0,0,1,,,0,,,57,72
37430,note_off,,,,,70,0,1,,,0,,,57,64
37432,note_off,,,,,112,0,2,,,1,,,57,64
37432,note_off,,,,,2,0,1,,,0,,,67,64
37434,note_off,,,,,2,0,1,,,0,,,69,64
37440,note_on,,,,,0,0,2,,,1,,,58,76
37440,control_change,,,,,6,0,1,,,0,7,100,,
37440,control_change,,,,,8,0,2,,,1,7,100,,
37520,note_on,,,,,80,0,1,,,0,,,67,70
37520,note_on,,,,,0,0,1,,,0,,,58,74
37520,note_on,,,,,0,0,1,,,0,,,70,74
37590,note_off,,,,,70,0,1,,,0,,,58,64
37590,note_off,,,,,0,0,1,,,0,,,67,64
37590,note_off,,,,,0,0,1,,,0,,,70,64
37600,note_on,,,,,0,0,1,,,0,,,70,73
37600,note_on,,,,,0,0,1,,,0,,,67,69
37600,note_on,,,,,10,0,1,,,0,,,58,69
37671,note_off,,,,,0,0,1,,,0,,,67,64
37671,note_off,,,,,71,0,1,,,0,,,70,64
37674,note_off,,,,,3,0,1,,,0,,,58,64
37680,note_on,,,,,0,0,1,,,0,,,67,71
37680,note_on,,,,,6,0,1,,,0,,,70,74
37680,note_on,,,,,0,0,1,,,0,,,58,70
37750,note_off,,,,,70,0,1,,,0,,,58,64
37754,note_off,,,,,4,0,1,,,0,,,67,64
37754,note_off,,,,,0,0,1,,,0,,,70,64
37760,note_on,,,,,0,0,1,,,0,,,58,75
37760,note_on,,,,,0,0,1,,,0,,,67,67
37760,note_on,,,,,6,0,1,,,0,,,70,72
37831,note_off,,,,,0,0,1,,,0,,,70,64
37831,note_off,,,,,71,0,1,,,0,,,67,64
37834,note_off,,,,,3,0,1,,,0,,,58,64
37840,note_on,,,,,0,0,1,,,0,,,70,73
37840,note_on,,,,,6,0,1,,,0,,,58,68
37840,note_on,,,,,0,0,1,,,0,,,67,74
37911,note_off,,,,,0,0,1,,,0,,,67,64
37911,note_off,,,,,0,0,1,,,0,,,58,64
37911,note_off,,,,,71,0,1,,,0,,,70,64
37914,note_off,,,,,474,0,2,,,1,,,58,64
37920,note_on,,,,,0,0,2,,,1,,,59,76
37920,note_on,,,,,6,0,2,,,1,,,43,75
38000,note_on,,,,,0,0,1,,,0,,,68,75
38000,note_on,,,,,89,0,1,,,0,,,71,67
38000,note_on,,,,,0,0,1,,,0,,,65,67
38000,note_on,,,,,0,0,1,,,0,,,62,73
38074,note_off,,,,,0,0,1,,,0,,,71,64
38074,note_off,,,,,0,0,1,,,0,,,65,64
38074,note_off,,,,,0,0,1,,,0,,,62,64
38074,note_off,,,,,74,0,1,,,0,,,68,64
38080,note_on,,,,,0,0,1,,,0,,,71,68
38080,note_on,,,,,0,0,1,,,0,,,68,67
38080,note_on,,,,,6,0,1,,,0,,,62,73
38080,note_on,,,,,0,0,1,,,0,,,65,73
38150,note_off,,,,,70,0,1,,,0,,,68,64
38150,note_off,,,,,0,0,1,,,0,,,65,64
38150,note_off,,,,,0,0,1,,,0,,,71,64
38153,note_off,,,,,3,0,1,,,0,,,62,64
38160,note_on,,,,,0,0,1,,,0,,,68,72
38160,note_on,,,,,0,0,1,,,0,,,71,67
38160,note_on,,,,,0,0,1,,,0,,,65,67
38160,note_on,,,,,7,0,1,,,0,,,62,68
38230,note_off,,,,,70,0,1,,,0,,,68,64
38231,note_off,,,,,1,0,1,,,0,,,62,64
38232,note_off,,,,,1,0,1,,,0,,,71,64
38234,note_off,,,,,2,0,1,,,0,,,65,64
38240,note_on,,,,,0,0,1,,,0,,,62,68
38240,note_on,,,,,0,0,1,,,0,,,65,67
38240,note_on,,,,,6,0,1,,,0,,,71,70
38240,note_on,,,,,0,0,1,,,0,,,68,67
38271,note_off,,,,,351,0,2,,,1,,,59,64
38280,note_on,,,,,9,0,2,,,1,,,59,72
38312,note_off,,,,,0,0,1,,,0,,,62,64
38312,note_off,,,,,72,0,1,,,0,,,68,64
38313,note_off,,,,,1,0,1,,,0,,,71,64
38314,note_off,,,,,1,0,1,,,0,,,65,64
38320,note_on,,,,,0,0,1,,,0,,,62,75
38320,note_on,,,,,0,0,1,,,0,,,68,68
38320,note_on,,,,,6,0,1,,,0,,,65,72
38320,note_on,,,,,0,0,1,,,0,,,71,73
38392,note_off,,,,,112,0,2,,,1,,,59,64
38393,note_off,,,,,1,0,2,,,1,,,43,64
38393,note_off,,,,,73,0,1,,,0,,,65,64
38394,note_off,,,,,0,0,1,,,0,,,71,64
38394,note_off,,,,,1,0,1,,,0,,,62,64
38394,note_off,,,,,0,0,1,,,0,,,68,64
38400,note_on,,,,,6,0,1,,,0,,,67,78
38400,note_on,,,,,0,0,1,,,0,,,72,78
38400,note_on,,,,,0,0,1,,,0,,,60,72
38400,note_on,,,,,0,0,1,,,0,,,63,77
38400,note_on,,,,,7,0,2,,,1,,,36,71
38470,note_off,,,,,70,0,1,,,0,,,63,64
38471,note_off,,,,,0,0,1,,,0,,,72,64
38471,note_off,,,,,1,0,1,,,0,,,60,64
38473,note_off,,,,,73,0,2,,,1,,,36,64
38474,note_off,,,,,3,0,1,,,0,,,67,64
38480,note_on,,,,,7,0,2,,,1,,,39,74
38480,note_on,,,,,0,0,1,,,0,,,60,74
38480,note_on,,,,,0,0,1,,,0,,,67,70
38480,note_on,,,,,6,0,1,,,0,,,63,67
38480,note_on,,,,,0,0,1,,,0,,,72,71
38550,note_off,,,,,70,0,1,,,0,,,63,64
38553,note_off,,,,,73,0,2,,,1,,,39,64
38553,note_off,,,,,3,0,1,,,0,,,72,64
38553,note_off,,,,,0,0,1,,,0,,,60,64
38554,note_off,,,,,1,0,1,,,0,,,67,64
38560,note_on,,,,,0,0,1,,,0,,,67,75
38560,note_on,,,,,6,0,1,,,0,,,60,69
38560,note_on,,,,,0,0,1,,,0,,,72,67
38560,note_on,,,,,7,0,2,,,1,,,41,73
38560,note_on,,,,,0,0,1,,,0,,,63,69
38630,note_off,,,,,70,0,1,,,0,,,60,64
38632,note_off,,,,,72,0,2,,,1,,,41,64
38633,note_off,,,,,3,0,1,,,0,,,67,64
38633,note_off,,,,,0,0,1,,,0,,,72,64
38634,note_off,,,,,1,0,1,,,0,,,63,64
38640,note_on,,,,,0,0,1,,,0,,,60,75
38640,note_on,,,,,6,0,1,,,0,,,63,72
38640,note_on,,,,,0,0,1,,,0,,,72,74
38640,note_on,,,,,0,0,1,,,0,,,67,70
38640,note_on,,,,,8,0,2,,,1,,,43,72
38710,note_off,,,,,70,0,1,,,0,,,67,64
38711,note_off,,,,,1,0,1,,,0,,,60,64
38713,note_off,,,,,73,0,2,,,1,,,43,64
38713,note_off,,,,,2,0,1,,,0,,,72,64
38714,note_off,,,,,1,0,1,,,0,,,63,64
38720,note_on,,,,,7,0,2,,,1,,,45,71
38720,note_on,,,,,6,0,1,,,0,,,60,73
38720,note_on,,,,,0,0,1,,,0,,,63,74
38720,note_on,,,,,0,0,1,,,0,,,67,71
38720,note_on,,,,,0,0,1,,,0,,,72,70
38790,note_off,,,,,70,0,1,,,0,,,63,64
38791,note_off,,,,,71,0,2,,,1,,,45,64
38793,note_off,,,,,3,0,1,,,0,,,60,64
38794,note_off,,,,,1,0,1,,,0,,,72,64
38794,note_off,,,,,0,0,1,,,0,,,67,64
38800,note_on,,,,,9,0,2,,,1,,,47,69
38800,note_on,,,,,6,0,1,,,0,,,67,67
38800,note_on,,,,,0,0,1,,,0,,,60,75
38800,note_on,,,,,0,0,1,,,0,,,63,74
38800,note_on,,,,,0,0,1,,,0,,,72,70
38870,note_off,,,,,70,0,2,,,1,,,47,64
38870,note_off,,,,,70,0,1,,,0,,,60,64
38871,note_off,,,,,1,0,1,,,0,,,63,64
38872,note_off,,,,,1,0,1,,,0,,,72,64
38873,note_off,,,,,1,0,1,,,0,,,67,64
38880,note_on,,,,,10,0,2,,,1,,,48,77
38880,note_on,,,,,7,0,1,,,0,,,67,76
38880,note_on,,,,,0,0,1,,,0,,,60,73
38880,note_on,,,,,0,0,1,,,0,,,63,71
38880,note_on,,,,,0,0,1,,,0,,,72,72
38950,note_off,,,,,70,0,1,,,0,,,60,64
38952,note_off,,,,,0,0,1,,,0,,,67,64
38952,note_off,,,,,2,0,1,,,0,,,72,64
38954,note_off,,,,,2,0,1,,,0,,,63,64
38960,note_on,,,,,0,0,1,,,0,,,60,69
38960,note_on,,,,,6,0,1,,,0,,,67,74
38960,note_on,,,,,0,0,1,,,0,,,63,73
38960,note_on,,,,,0,0,1,,,0,,,72,74
39031,note_off,,,,,71,0,1,,,0,,,60,64
39031,note_off,,,,,0,0,1,,,0,,,67,64
39033,note_off,,,,,2,0,1,,,0,,,72,64
39034,note_off,,,,,1,0,1,,,0,,,63,64
39040,note_on,,,,,6,0,1,,,0,,,63,70
39040,note_on,,,,,0,0,1,,,0,,,67,68
39040,note_on,,,,,0,0,1,,,0,,,72,71
39040,note_on,,,,,0,0,1,,,0,,,60,72
39110,note_off,,,,,70,0,1,,,0,,,63,64
39111,note_off,,,,,1,0,1,,,0,,,60,64
39112,note_off,,,,,1,0,1,,,0,,,72,64
39113,note_off,,,,,1,0,1,,,0,,,67,64
39120,note_on,,,,,0,0,1,,,0,,,67,68
39120,note_on,,,,,0,0,1,,,0,,,63,68
39120,note_on,,,,,7,0,1,,,0,,,60,75
39120,note_on,,,,,0,0,1,,,0,,,72,70
39191,note_off,,,,,71,0,1,,,0,,,67,64
39192,note_off,,,,,1,0,1,,,0,,,72,64
39194,note_off,,,,,2,0,1,,,0,,,63,64
39194,note_off,,,,,0,0,1,,,0,,,60,64
39200,note_on,,,,,6,0,1,,,0,,,60,70
39200,note_on,,,,,0,0,1,,,0,,,72,67
39200,note_on,,,,,0,0,1,,,0,,,63,74
39200,note_on,,,,,0,0,1,,,0,,,67,71
39271,note_off,,,,,71,0,1,,,0,,,67,64
39273,note_off,,,,,2,0,1,,,0,,,72,64
39274,note_off,,,,,0,0,1,,,0,,,60,64
39274,note_off,,,,,1,0,1,,,0,,,63,64
39280,note_on,,,,,6,0,1,,,0,,,60,72
39280,note_on,,,,,0,0,1,,,0,,,72,72
39280,note_on,,,,,0,0,1,,,0,,,63,75
39280,note_on,,,,,0,0,1,,,0,,,67,70
39350,note_off,,,,,70,0,1,,,0,,,67,64
39350,note_off,,,,,470,0,2,,,1,,,48,64
39351,note_off,,,,,0,0,1,,,0,,,72,64
39351,note_off,,,,,1,0,1,,,0,,,63,64
39354,note_off,,,,,3,0,1,,,0,,,60,64
39360,note_on,,,,,10,0,2,,,1,,,38,71
39360,note_on,,,,,0,0,1,,,0,,,63,78
39360,note_on,,,,,0,0,1,,,0,,,72,77
39360,note_on,,,,,6,0,1,,,0,,,60,73
39360,note_on,,,,,0,0,1,,,0,,,67,76
39430,note_off,,,,,70,0,2,,,1,,,38,64
39430,note_off,,,,,70,0,1,,,0,,,63,64
39431,note_off,,,,,0,0,1,,,0,,,67,64
39431,note_off,,,,,1,0,1,,,0,,,72,64
39432,note_off,,,,,1,0,1,,,0,,,60,64
39440,note_on,,,,,0,0,1,,,0,,,67,67
39440,note_on,,,,,0,0,1,,,0,,,72,68
39440,note_on,,,,,10,0,2,,,1,,,39,71
39440,note_on,,,,,0,0,1,,,0,,,63,67
39440,note_on,,,,,8,0,1,,,0,,,60,72
39510,note_off,,,,,70,0,1,,,0,,,63,64
39511,note_off,,,,,1,0,1,,,0,,,67,64
39512,note_off,,,,,72,0,2,,,1,,,39,64
39514,note_off,,,,,3,0,1,,,0,,,72,64
39514,note_off,,,,,0,0,1,,,0,,,60,64
39520,note_on,,,,,6,0,1,,,0,,,67,70
39520,note_on,,,,,8,0,2,,,1,,,41,70
39520,note_on,,,,,0,0,1,,,0,,,60,69
39520,note_on,,,,,0,0,1,,,0,,,63,68
39520,note_on,,,,,0,0,1,,,0,,,72,70
39590,note_off,,,,,70,0,2,,,1,,,41,64
39591,note_off,,,,,71,0,1,,,0,,,63,64
39592,note_off,,,,,1,0,1,,,0,,,72,64
39594,note_off,,,,,0,0,1,,,0,,,67,64
39594,note_off,,,,,2,0,1,,,0,,,60,64
39600,note_on,,,,,0,0,1,,,0,,,72,75
39600,note_on,,,,,6,0,1,,,0,,,67,71
39600,note_on,,,,,10,0,2,,,1,,,43,67
39600,note_on,,,,,0,0,1,,,0,,,63,68
39600,note_on,,,,,0,0,1,,,0,,,60,71
39672,note_off,,,,,0,0,1,,,0,,,60,64
39672,note_off,,,,,72,0,1,,,0,,,72,64
39673,note_off,,,,,1,0,1,,,0,,,63,64
39673,note_off,,,,,0,0,1,,,0,,,67,64
39673,note_off,,,,,73,0,2,,,1,,,43,64
39680,note_on,,,,,0,0,1,,,0,,,63,67
39680,note_on,,,,,0,0,1,,,0,,,72,72
39680,note_on,,,,,7,0,2,,,1,,,45,67
39680,note_on,,,,,7,0,1,,,0,,,60,70
39680,note_on,,,,,0,0,1,,,0,,,67,75
39750,note_off,,,,,70,0,1,,,0,,,72,64
39750,note_off,,,,,0,0,1,,,0,,,60,64
39751,note_off,,,,,1,0,1,,,0,,,63,64
39754,note_off,,,,,74,0,2,,,1,,,45,64
39754,note_off,,,,,3,0,1,,,0,,,67,64
39760,note_on,,,,,6,0,1,,,0,,,72,74
39760,note_on,,,,,0,0,1,,,0,,,67,74
39760,note_on,,,,,0,0,1,,,0,,,63,75
39760,note_on,,,,,0,0,1,,,0,,,60,70
39760,note_on,,,,,6,0,2,,,1,,,47,71
39831,note_off,,,,,71,0,2,,,1,,,47,64
39831,note_off,,,,,71,0,1,,,0,,,72,64
39832,note_off,,,,,1,0,1,,,0,,,60,64
39833,note_off,,,,,1,0,1,,,0,,,67,64
39834,note_off,,,,,1,0,1,,,0,,,63,64
39840,note_on,,,,,6,0,1,,,0,,,72,72
39840,note_on,,,,,0,0,1,,,0,,,60,75
39840,note_on,,,,,0,0,1,,,0,,,63,69
39840,note_on,,,,,0,0,1,,,0,,,67,72
39840,note_on,,,,,9,0,2,,,1,,,48,74
39912,note_off,,,,,72,0,1,,,0,,,63,64
39913,note_off,,,,,0,0,1,,,0,,,72,64
39913,note_off,,,,,1,0,1,,,0,,,60,64
39914,note_off,,,,,1,0,1,,,0,,,67,64
39920,note_on,,,,,0,0,1,,,0,,,60,75
39920,note_on,,,,,6,0,1,,,0,,,63,72
39920,note_on,,,,,0,0,1,,,0,,,72,72
39920,note_on,,,,,0,0,1,,,0,,,67,70
39990,note_off,,,,,0,0,1,,,0,,,67,64
39990,note_off,,,,,70,0,1,,,0,,,60,64
39992,note_off,,,,,2,0,1,,,0,,,72,64
39993,note_off,,,,,1,0,1,,,0,,,63,64
40000,note_on,,,,,7,0,1,,,0,,,60,70
40000,note_on,,,,,0,0,1,,,0,,,63,74
40000,note_on,,,,,0,0,1,,,0,,,72,75
40000,note_on,,,,,0,0,1,,,0,,,67,75
40070,note_off,,,,,70,0,1,,,0,,,60,64
40071,note_off,,,,,1,0,1,,,0,,,67,64
40073,note_off,,,,,2,0,1,,,0,,,63,64
40074,note_off,,,,,234,0,2,,,1,,,48,64
40074,note_off,,,,,1,0,1,,,0,,,72,64
40080,note_on,,,,,6,0,2,,,1,,,63,72
40090,note_on,,,,,10,0,2,,,1,,,67,68
40100,note_on,,,,,10,0,2,,,1,,,72,81
40160,note_on,,,,,86,0,1,,,0,,,63,67
40160,note_on,,,,,0,0,1,,,0,,,60,73
40160,note_on,,,,,0,0,1,,,0,,,67,71
40230,note_off,,,,,70,0,1,,,0,,,60,64
40232,note_off,,,,,2,0,1,,,0,,,63,64
40233,note_off,,,,,1,0,1,,,0,,,67,64
40240,note_on,,,,,0,0,1,,,0,,,63,72
40240,note_on,,,,,7,0,1,,,0,,,67,71
40240,note_on,,,,,0,0,1,,,0,,,60,68
40310,note_off,,,,,70,0,1,,,0,,,63,64
40310,note_off,,,,,210,0,2,,,1,,,72,64
40313,note_off,,,,,0,0,1,,,0,,,67,64
40313,note_off,,,,,3,0,2,,,1,,,63,64
40313,note_off,,,,,3,0,1,,,0,,,60,64
40314,note_off,,,,,1,0,2,,,1,,,67,64
40320,note_on,,,,,6,0,2,,,1,,,65,74
40330,note_on,,,,,10,0,2,,,1,,,68,78
40340,note_on,,,,,10,0,2,,,1,,,71,72
40350,note_on,,,,,10,0,2,,,1,,,74,85
40400,note_on,,,,,87,0,1,,,0,,,62,67
40400,note_on,,,,,0,0,1,,,0,,,68,68
40400,note_on,,,,,0,0,1,,,0,,,71,72
40400,note_on,,,,,0,0,1,,,0,,,65,67
40431,note_off,,,,,81,0,2,,,1,,,65,64
40432,note_off,,,,,1,0,2,,,1,,,68,64
40433,note_off,,,,,1,0,2,,,1,,,71,64
40471,note_off,,,,,71,0,1,,,0,,,65,64
40472,note_off,,,,,1,0,1,,,0,,,71,64
40473,note_off,,,,,1,0,1,,,0,,,68,64
40474,note_off,,,,,1,0,1,,,0,,,62,64
40480,note_on,,,,,6,0,1,,,0,,,71,69
40480,note_on,,,,,0,0,1,,,0,,,65,69
40480,note_on,,,,,0,0,1,,,0,,,68,71
40480,note_on,,,,,0,0,1,,,0,,,62,74
40551,note_off,,,,,71,0,1,,,0,,,68,64
40552,note_off,,,,,1,0,1,,,0,,,65,64
40553,note_off,,,,,1,0,1,,,0,,,62,64
40554,note_off,,,,,1,0,1,,,0,,,71,64
40560,note_on,,,,,6,0,1,,,0,,,65,69
40560,note_on,,,,,0,0,1,,,0,,,62,70
40560,note_on,,,,,0,0,1,,,0,,,68,72
40560,note_on,,,,,0,0,1,,,0,,,71,67
40631,note_off,,,,,71,0,1,,,0,,,71,64
40632,note_off,,,,,1,0,1,,,0,,,62,64
40633,note_off,,,,,1,0,1,,,0,,,68,64
40634,note_off,,,,,1,0,1,,,0,,,65,64
40640,note_on,,,,,6,0,1,,,0,,,62,68
40640,note_on,,,,,0,0,1,,,0,,,65,74
40640,note_on,,,,,0,0,1,,,0,,,68,70
40640,note_on,,,,,0,0,1,,,0,,,71,67
40710,note_off,,,,,70,0,1,,,0,,,62,64
40712,note_off,,,,,2,0,1,,,0,,,71,64
40712,note_off,,,,,0,0,1,,,0,,,65,64
40713,note_off,,,,,1,0,1,,,0,,,68,64
40720,note_on,,,,,0,0,1,,,0,,,71,74
40720,note_on,,,,,0,0,1,,,0,,,62,73
40720,note_on,,,,,7,0,1,,,0,,,65,72
40720,note_on,,,,,0,0,1,,,0,,,68,69
40790,note_off,,,,,70,0,1,,,0,,,68,64
40791,note_off,,,,,0,0,1,,,0,,,65,64
40791,note_off,,,,,1,0,1,,,0,,,71,64
40792,note_off,,,,,1,0,1,,,0,,,62,64
40800,note_on,,,,,8,0,1,,,0,,,65,73
40800,note_on,,,,,0,0,1,,,0,,,62,72
40800,note_on,,,,,0,0,1,,,0,,,68,77
40800,note_on,,,,,0,0,1,,,0,,,71,69
40871,note_off,,,,,71,0,1,,,0,,,68,64
40872,note_off,,,,,1,0,1,,,0,,,71,64
40874,note_off,,,,,0,0,1,,,0,,,65,64
40874,note_off,,,,,2,0,1,,,0,,,62,64
40880,note_on,,,,,0,0,1,,,0,,,71,67
40880,note_on,,,,,0,0,1,,,0,,,62,73
40880,note_on,,,,,6,0,1,,,0,,,65,73
40880,note_on,,,,,0,0,1,,,0,,,68,74
40950,note_off,,,,,70,0,1,,,0,,,68,64
40952,note_off,,,,,2,0,1,,,0,,,65,64
40954,note_off,,,,,0,0,1,,,0,,,62,64
40954,note_off,,,,,2,0,1,,,0,,,71,64
40960,note_on,,,,,0,0,1,,,0,,,62,74
40960,note_on,,,,,6,0,1,,,0,,,65,74
40960,note_on,,,,,0,0,1,,,0,,,68,69
40960,note_on,,,,,0,0,1,,,0,,,71,72
41031,note_off,,,,,71,0,1,,,0,,,68,64
41032,note_off,,,,,1,0,1,,,0,,,65,64
41033,note_off,,,,,1,0,1,,,0,,,71,64
41033,note_off,,,,,600,0,2,,,1,,,74,64
41033,note_off,,,,,0,0,1,,,0,,,62,64
41040,note_on,,,,,7,0,2,,,1,,,59,73
41050,note_on,,,,,10,0,2,,,1,,,62,72
41060,note_on,,,,,10,0,2,,,1,,,67,83
41120,note_on,,,,,87,0,1,,,0,,,65,72
41120,note_on,,,,,0,0,1,,,0,,,62,73
41120,note_on,,,,,0,0,1,,,0,,,67,69
41150,note_off,,,,,90,0,2,,,1,,,59,64
41151,note_off,,,,,1,0,2,,,1,,,62,64
41190,note_off,,,,,70,0,1,,,0,,,67,64
41192,note_off,,,,,0,0,1,,,0,,,65,64
41192,note_off,,,,,2,0,1,,,0,,,62,64
41200,note_on,,,,,8,0,1,,,0,,,65,71
41200,note_on,,,,,0,0,1,,,0,,,67,69
41200,note_on,,,,,0,0,1,,,0,,,62,73
41271,note_off,,,,,0,0,1,,,0,,,65,64
41271,note_off,,,,,71,0,1,,,0,,,62,64
41272,note_off,,,,,121,0,2,,,1,,,67,64
41274,note_off,,,,,3,0,1,,,0,,,67,64
41280,control_change,,,,,8,0,2,,,1,7,101,,
41280,note_on,,,,,0,0,1,,,0,,,63,79
41280,note_on,,,,,6,0,1,,,0,,,75,86
41280,note_on,,,,,0,0,1,,,0,,,67,71
41280,control_change,,,,,0,0,1,,,0,7,101,,
41280,note_on,,,,,0,0,2,,,1,,,36,78
41353,note_off,,,,,73,0,1,,,0,,,67,64
41354,note_off,,,,,1,0,1,,,0,,,63,64
41354,note_off,,,,,74,0,2,,,1,,,36,64
41359,control_change,,,,,5,0,1,,,0,7,102,,
41359,control_change,,,,,5,0,2,,,1,7,102,,
41360,note_on,,,,,1,0,2,,,1,,,39,75
41360,note_on,,,,,1,0,1,,,0,,,67,68
41360,note_on,,,,,0,0,1,,,0,,,63,67
41430,note_off,,,,,70,0,1,,,0,,,63,64
41430,note_off,,,,,70,0,2,,,1,,,39,64
41432,note_off,,,,,2,0,1,,,0,,,67,64
41439,control_change,,,,,7,0,1,,,0,7,103,,
41439,control_change,,,,,9,0,2,,,1,7,103,,
41440,note_on,,,,,0,0,1,,,0,,,63,74
41440,note_on,,,,,1,0,1,,,0,,,67,73
41440,note_on,,,,,1,0,2,,,1,,,41,75
41511,note_off,,,,,71,0,1,,,0,,,63,64
41512,note_off,,,,,72,0,2,,,1,,,41,64
41512,note_off,,,,,1,0,1,,,0,,,67,64
41519,control_change,,,,,7,0,1,,,0,7,104,,
41519,control_change,,,,,7,0,2,,,1,7,104,,
41520,note_on,,,,,0,0,1,,,0,,,67,68
41520,note_on,,,,,1,0,1,,,0,,,63,75
41520,note_on,,,,,1,0,2,,,1,,,43,74
41590,note_off,,,,,70,0,1,,,0,,,67,64
41590,note_off,,,,,70,0,2,,,1,,,43,64
41592,note_off,,,,,2,0,1,,,0,,,63,64
41599,control_change,,,,,9,0,2,,,1,7,105,,
41599,control_change,,,,,7,0,1,,,0,7,105,,
41600,note_on,,,,,1,0,1,,,0,,,63,75
41600,note_on,,,,,0,0,1,,,0,,,67,69
41600,note_on,,,,,1,0,2,,,1,,,45,68
41671,note_off,,,,,71,0,1,,,0,,,67,64
41672,note_off,,,,,72,0,2,,,1,,,45,64
41674,note_off,,,,,3,0,1,,,0,,,63,64
41679,control_change,,,,,5,0,1,,,0,7,106,,
41679,control_change,,,,,7,0,2,,,1,7,106,,
41680,note_on,,,,,0,0,1,,,0,,,63,74
41680,note_on,,,,,1,0,1,,,0,,,67,70
41680,note_on,,,,,1,0,2,,,1,,,47,72
41751,note_off,,,,,71,0,2,,,1,,,47,64
41753,note_off,,,,,73,0,1,,,0,,,67,64
41754,note_off,,,,,1,0,1,,,0,,,63,64
41759,control_change,,,,,5,0,1,,,0,7,107,,
41759,control_change,,,,,8,0,2,,,1,7,107,,
41760,note_on,,,,,0,0,1,,,0,,,63,72
41760,note_on,,,,,1,0,1,,,0,,,67,71
41760,note_on,,,,,1,0,2,,,1,,,48,74
41831,note_off,,,,,71,0,1,,,0,,,63,64
41832,note_off,,,,,1,0,1,,,0,,,67,64
41839,control_change,,,,,7,0,1,,,0,7,108,,
41839,control_change,,,,,79,0,2,,,1,7,108,,
41840,note_on,,,,,0,0,1,,,0,,,67,70
41840,note_on,,,,,1,0,1,,,0,,,63,70
41911,note_off,,,,,71,0,1,,,0,,,63,64
41912,note_off,,,,,1,0,1,,,0,,,67,64
41919,control_change,,,,,7,0,1,,,0,7,109,,
41919,control_change,,,,,80,0,2,,,1,7,109,,
41920,note_on,,,,,1,0,1,,,0,,,67,69
41920,note_on,,,,,0,0,1,,,0,,,63,74
41991,note_off,,,,,71,0,1,,,0,,,63,64
41993,note_off,,,,,74,0,2,,,1,,,48,64
41994,note_off,,,,,3,0,1,,,0,,,67,64
41999,control_change,,,,,6,0,2,,,1,7,110,,
41999,control_change,,,,,5,0,1,,,0,7,110,,
42000,note_off,,,,,1,0,1,,,0,,,75,64
42000,note_on,,,,,1,0,2,,,1,,,63,75
42010,note_on,,,,,10,0,2,,,1,,,67,75
42020,note_on,,,,,10,0,2,,,1,,,72,79
42080,note_on,,,,,80,0,1,,,0,,,67,75
42080,note_on,,,,,0,0,1,,,0,,,63,67
42113,note_off,,,,,93,0,2,,,1,,,67,64
42114,note_off,,,,,1,0,2,,,1,,,63,64
42151,note_off,,,,,71,0,1,,,0,,,67,64
42153,note_off,,,,,2,0,1,,,0,,,63,64
42160,note_on,,,,,0,0,1,,,0,,,67,70
42160,note_on,,,,,7,0,1,,,0,,,63,72
42231,note_off,,,,,71,0,1,,,0,,,67,64
42234,note_off,,,,,3,0,1,,,0,,,63,64
42240,note_on,,,,,0,0,2,,,1,,,65,78
42240,note_off,,,,,126,0,2,,,1,,,72,64
42250,note_on,,,,,10,0,2,,,1,,,68,77
42260,note_on,,,,,10,0,2,,,1,,,71,74
42270,note_on,,,,,10,0,2,,,1,,,74,89
42320,note_on,,,,,0,0,1,,,0,,,68,67
42320,note_on,,,,,86,0,1,,,0,,,65,75
42320,note_on,,,,,0,0,1,,,0,,,62,70
42320,note_on,,,,,0,0,1,,,0,,,71,69
42350,note_off,,,,,0,0,2,,,1,,,65,64
42350,note_off,,,,,80,0,2,,,1,,,68,64
42354,note_off,,,,,4,0,2,,,1,,,71,64
42390,note_off,,,,,70,0,1,,,0,,,65,64
42392,note_off,,,,,0,0,1,,,0,,,68,64
42392,note_off,,,,,2,0,1,,,0,,,62,64
42394,note_off,,,,,2,0,1,,,0,,,71,64
42400,note_on,,,,,0,0,1,,,0,,,68,70
42400,note_on,,,,,6,0,1,,,0,,,71,75
42400,note_on,,,,,0,0,1,,,0,,,65,73
42400,note_on,,,,,0,0,1,,,0,,,62,70
42470,note_off,,,,,70,0,1,,,0,,,68,64
42470,note_off,,,,,0,0,1,,,0,,,71,64
42473,note_off,,,,,3,0,1,,,0,,,65,64
42474,note_off,,,,,1,0,1,,,0,,,62,64
42480,note_on,,,,,0,0,1,,,0,,,62,73
42480,note_on,,,,,6,0,1,,,0,,,65,70
42480,note_on,,,,,0,0,1,,,0,,,71,73
42480,note_on,,,,,0,0,1,,,0,,,68,74
42550,note_off,,,,,0,0,1,,,0,,,68,64
42550,note_off,,,,,70,0,1,,,0,,,62,64
42551,note_off,,,,,0,0,1,,,0,,,65,64
42551,note_off,,,,,1,0,1,,,0,,,71,64
42560,note_on,,,,,0,0,1,,,0,,,62,72
42560,note_on,,,,,0,0,1,,,0,,,65,69
42560,note_on,,,,,9,0,1,,,0,,,68,71
42560,note_on,,,,,0,0,1,,,0,,,71,75
42630,note_off,,,,,70,0,1,,,0,,,62,64
42630,note_off,,,,,0,0,1,,,0,,,65,64
42632,note_off,,,,,2,0,1,,,0,,,68,64
42634,note_off,,,,,2,0,1,,,0,,,71,64
42640,note_on,,,,,0,0,1,,,0,,,68,73
42640,note_on,,,,,0,0,1,,,0,,,65,75
42640,note_on,,,,,0,0,1,,,0,,,62,75
42640,note_on,,,,,6,0,1,,,0,,,71,69
42711,note_off,,,,,71,0,1,,,0,,,62,64
42711,note_off,,,,,0,0,1,,,0,,,71,64
42712,note_off,,,,,1,0,1,,,0,,,65,64
42712,note_off,,,,,0,0,1,,,0,,,68,64
42720,note_on,,,,,0,0,2,,,1,,,74,85
42720,note_on,,,,,0,0,2,,,1,,,68,76
42720,note_on,,,,,0,0,2,,,1,,,65,72
42720,note_on,,,,,0,0,2,,,1,,,71,70
42720,note_off,,,,,366,0,2,,,1,,,74,64
42800,note_on,,,,,0,0,1,,,0,,,65,70
42800,note_on,,,,,0,0,1,,,0,,,62,74
42800,note_on,,,,,88,0,1,,,0,,,71,72
42800,note_on,,,,,0,0,1,,,0,,,68,68
42833,note_off,,,,,113,0,2,,,1,,,68,64
42833,note_off,,,,,0,0,2,,,1,,,65,64
42834,note_off,,,,,1,0,2,,,1,,,71,64
42871,note_off,,,,,71,0,1,,,0,,,65,64
42872,note_off,,,,,1,0,1,,,0,,,71,64
42873,note_off,,,,,1,0,1,,,0,,,62,64
42874,note_off,,,,,1,0,1,,,0,,,68,64
42880,note_on,,,,,0,0,1,,,0,,,68,75
42880,note_on,,,,,0,0,1,,,0,,,65,69
42880,note_on,,,,,0,0,1,,,0,,,62,72
42880,note_on,,,,,6,0,1,,,0,,,71,67
42952,note_off,,,,,72,0,1,,,0,,,62,64
42952,note_off,,,,,0,0,1,,,0,,,71,64
42952,note_off,,,,,0,0,1,,,0,,,68,64
42954,note_off,,,,,2,0,1,,,0,,,65,64
42960,note_on,,,,,0,0,2,,,1,,,59,73
42960,note_off,,,,,126,0,2,,,1,,,74,64
42970,note_on,,,,,10,0,2,,,1,,,62,73
42980,note_on,,,,,10,0,2,,,1,,,67,83
43040,note_on,,,,,0,0,1,,,0,,,67,71
43040,note_on,,,,,0,0,1,,,0,,,65,70
43040,note_on,,,,,86,0,1,,,0,,,62,67
43072,note_off,,,,,92,0,2,,,1,,,62,64
43074,note_off,,,,,2,0,2,,,1,,,59,64
43113,note_off,,,,,73,0,1,,,0,,,65,64
43114,note_off,,,,,1,0,1,,,0,,,67,64
43114,note_off,,,,,0,0,1,,,0,,,62,64
43120,note_on,,,,,6,0,1,,,0,,,62,71
43120,note_on,,,,,0,0,1,,,0,,,67,75
43120,note_on,,,,,0,0,1,,,0,,,65,75
43191,note_off,,,,,71,0,1,,,0,,,67,64
43192,note_off,,,,,1,0,1,,,0,,,62,64
43194,note_off,,,,,2,0,1,,,0,,,65,64
43200,control_change,,,,,0,0,1,,,0,7,100,,
43200,note_on,,,,,0,0,2,,,1,,,36,97
43200,note_on,,,,,0,0,1,,,0,,,63,94
43200,note_on,,,,,0,0,1,,,0,,,67,97
43200,control_change,,,,,0,0,2,,,1,7,100,,
43200,note_on,,,,,6,0,1,,,0,,,75,101
43200,note_off,,,,,126,0,2,,,1,,,67,64
43271,note_off,,,,,71,0,1,,,0,,,63,64
43273,note_off,,,,,73,0,2,,,1,,,36,64
43274,note_off,,,,,3,0,1,,,0,,,67,64
43280,note_on,,,,,0,0,1,,,0,,,60,91
43280,note_on,,,,,7,0,2,,,1,,,39,89
43280,note_on,,,,,0,0,1,,,0,,,63,89
43280,note_on,,,,,6,0,1,,,0,,,67,94
43350,note_off,,,,,70,0,1,,,0,,,60,64
43353,note_off,,,,,73,0,2,,,1,,,39,64
43353,note_off,,,,,3,0,1,,,0,,,63,64
43353,note_off,,,,,0,0,1,,,0,,,67,64
43360,note_on,,,,,0,0,1,,,0,,,60,93
43360,note_on,,,,,0,0,1,,,0,,,63,91
43360,note_on,,,,,7,0,1,,,0,,,67,93
43360,note_on,,,,,7,0,2,,,1,,,41,88
43430,note_off,,,,,70,0,1,,,0,,,63,64
43430,note_off,,,,,0,0,1,,,0,,,60,64
43431,note_off,,,,,71,0,2,,,1,,,41,64
43432,note_off,,,,,2,0,1,,,0,,,67,64
43440,note_on,,,,,8,0,1,,,0,,,60,90
43440,note_on,,,,,0,0,1,,,0,,,67,87
43440,note_on,,,,,9,0,2,,,1,,,43,91
43440,note_on,,,,,0,0,1,,,0,,,63,91
43510,note_off,,,,,70,0,1,,,0,,,60,64
43512,note_off,,,,,2,0,1,,,0,,,67,64
43513,note_off,,,,,73,0,2,,,1,,,43,64
43514,note_off,,,,,2,0,1,,,0,,,63,64
43520,note_on,,,,,7,0,2,,,1,,,45,89
43520,note_on,,,,,6,0,1,,,0,,,67,90
43520,note_on,,,,,0,0,1,,,0,,,60,89
43520,note_on,,,,,0,0,1,,,0,,,63,95
43590,note_off,,,,,0,0,1,,,0,,,67,64
43590,note_off,,,,,70,0,1,,,0,,,60,64
43591,note_off,,,,,71,0,2,,,1,,,45,64
43591,note_off,,,,,1,0,1,,,0,,,63,64
43600,note_on,,,,,9,0,1,,,0,,,63,91
43600,note_on,,,,,9,0,2,,,1,,,47,90
43600,note_on,,,,,0,0,1,,,0,,,67,88
43600,note_on,,,,,0,0,1,,,0,,,60,93
43671,note_off,,,,,71,0,2,,,1,,,47,64
43673,note_off,,,,,73,0,1,,,0,,,60,64
43673,note_off,,,,,0,0,1,,,0,,,67,64
43674,note_off,,,,,1,0,1,,,0,,,63,64
43674,note_off,,,,,0,0,1,,,0,,,75,64
43680,note_on,,,,,6,0,1,,,0,,,60,94
43680,note_on,,,,,0,0,1,,,0,,,67,89
43680,note_on,,,,,9,0,2,,,1,,,48,92
43680,note_on,,,,,0,0,1,,,0,,,63,92
43751,note_off,,,,,71,0,1,,,0,,,63,64
43753,note_off,,,,,2,0,1,,,0,,,67,64
43753,note_off,,,,,0,0,1,,,0,,,60,64
43760,note_on,,,,,0,0,1,,,0,,,63,95
43760,note_on,,,,,7,0,1,,,0,,,67,94
43760,note_on,,,,,0,0,1,,,0,,,60,88
43831,note_off,,,,,71,0,1,,,0,,,60,64
43834,note_off,,,,,3,0,1,,,0,,,63,64
43834,note_off,,,,,0,0,1,,,0,,,67,64
43840,note_on,,,,,6,0,1,,,0,,,63,87
43840,note_on,,,,,0,0,1,,,0,,,60,95
43840,note_on,,,,,0,0,1,,,0,,,67,90
43910,note_off,,,,,0,0,1,,,0,,,67,64
43910,note_off,,,,,70,0,1,,,0,,,60,64
43912,note_off,,,,,2,0,1,,,0,,,63,64
43920,note_on,,,,,8,0,1,,,0,,,66,88
43920,note_on,,,,,0,0,1,,,0,,,63,92
43920,note_on,,,,,0,0,1,,,0,,,60,90
43990,note_off,,,,,70,0,1,,,0,,,66,64
43991,note_off,,,,,1,0,1,,,0,,,63,64
43993,note_off,,,,,2,0,1,,,0,,,60,64
44000,note_on,,,,,7,0,1,,,0,,,66,87
44000,note_on,,,,,0,0,1,,,0,,,63,92
44000,note_on,,,,,0,0,1,,,0,,,60,93
44070,note_off,,,,,70,0,1,,,0,,,63,64
44071,note_off,,,,,1,0,1,,,0,,,60,64
44072,note_off,,,,,1,0,1,,,0,,,66,64
44080,note_on,,,,,0,0,1,,,0,,,63,90
44080,note_on,,,,,8,0,1,,,0,,,60,90
44080,note_on,,,,,0,0,1,,,0,,,66,94
44150,note_off,,,,,470,0,2,,,1,,,48,64
44150,note_off,,,,,70,0,1,,,0,,,63,64
44150,note_off,,,,,0,0,1,,,0,,,60,64
44153,note_off,,,,,3,0,1,,,0,,,66,64
44160,note_on,,,,,7,0,1,,,0,,,63,84
44160,note_on,,,,,10,0,2,,,1,,,29,88
44160,note_on,,,,,0,0,1,,,0,,,57,86
44160,note_on,,,,,0,0,1,,,0,,,60,89
44160,note_on,,,,,0,0,1,,,0,,,65,82
44230,note_off,,,,,70,0,1,,,0,,,63,64
44231,note_off,,,,,1,0,1,,,0,,,60,64
44232,note_off,,,,,1,0,1,,,0,,,65,64
44234,note_off,,,,,2,0,1,,,0,,,57,64
44234,note_off,,,,,74,0,2,,,1,,,29,64
44240,note_on,,,,,6,0,2,,,1,,,33,78
44240,note_on,,,,,0,0,1,,,0,,,60,79
44240,note_on,,,,,6,0,1,,,0,,,57,81
44240,note_on,,,,,0,0,1,,,0,,,65,80
44240,note_on,,,,,0,0,1,,,0,,,63,81
44310,note_off,,,,,0,0,1,,,0,,,65,64
44310,note_off,,,,,0,0,1,,,0,,,57,64
44310,note_off,,,,,70,0,1,,,0,,,60,64
44313,note_off,,,,,73,0,2,,,1,,,33,64
44314,note_off,,,,,4,0,1,,,0,,,63,64
44320,note_on,,,,,0,0,1,,,0,,,57,84
44320,note_on,,,,,6,0,1,,,0,,,60,80
44320,note_on,,,,,0,0,1,,,0,,,63,80
44320,note_on,,,,,0,0,1,,,0,,,65,79
44320,note_on,,,,,7,0,2,,,1,,,34,84
44390,note_off,,,,,70,0,1,,,0,,,60,64
44391,note_off,,,,,1,0,1,,,0,,,65,64
44392,note_off,,,,,72,0,2,,,1,,,34,64
44392,note_off,,,,,1,0,1,,,0,,,63,64
44394,note_off,,,,,2,0,1,,,0,,,57,64
44400,note_on,,,,,6,0,1,,,0,,,63,82
44400,note_on,,,,,0,0,1,,,0,,,65,80
44400,note_on,,,,,0,0,1,,,0,,,57,77
44400,note_on,,,,,0,0,1,,,0,,,60,77
44400,note_on,,,,,8,0,2,,,1,,,36,77
44471,note_off,,,,,71,0,1,,,0,,,63,64
44471,note_off,,,,,71,0,2,,,1,,,36,64
44472,note_off,,,,,1,0,1,,,0,,,57,64
44473,note_off,,,,,1,0,1,,,0,,,65,64
44474,note_off,,,,,1,0,1,,,0,,,60,64
44480,note_on,,,,,6,0,1,,,0,,,60,80
44480,note_on,,,,,0,0,1,,,0,,,65,81
44480,note_on,,,,,0,0,1,,,0,,,63,80
44480,note_on,,,,,0,0,1,,,0,,,57,82
44480,note_on,,,,,9,0,2,,,1,,,38,84
44550,note_off,,,,,0,0,1,,,0,,,63,64
44550,note_off,,,,,70,0,1,,,0,,,65,64
44550,note_off,,,,,70,0,2,,,1,,,38,64
44554,note_off,,,,,0,0,1,,,0,,,60,64
44554,note_off,,,,,4,0,1,,,0,,,57,64
44560,note_on,,,,,0,0,1,,,0,,,57,84
44560,note_on,,,,,6,0,1,,,0,,,63,85
44560,note_on,,,,,10,0,2,,,1,,,40,79
44560,note_on,,,,,0,0,1,,,0,,,65,77
44560,note_on,,,,,0,0,1,,,0,,,60,83
44630,note_off,,,,,70,0,1,,,0,,,57,64
44631,note_off,,,,,71,0,2,,,1,,,40,64
44632,note_off,,,,,2,0,1,,,0,,,63,64
44634,note_off,,,,,0,0,1,,,0,,,65,64
44634,note_off,,,,,2,0,1,,,0,,,60,64
44640,note_on,,,,,6,0,1,,,0,,,60,85
44640,note_on,,,,,0,0,1,,,0,,,65,79
44640,note_on,,,,,0,0,1,,,0,,,63,84
44640,note_on,,,,,9,0,2,,,1,,,41,80
44640,note_on,,,,,0,0,1,,,0,,,57,86
44711,note_off,,,,,71,0,1,,,0,,,63,64
44712,note_off,,,,,1,0,1,,,0,,,65,64
44714,note_off,,,,,2,0,1,,,0,,,57,64
44714,note_off,,,,,0,0,1,,,0,,,60,64
44720,note_on,,,,,6,0,1,,,0,,,60,85
44720,note_on,,,,,0,0,1,,,0,,,57,84
44720,note_on,,,,,0,0,1,,,0,,,63,81
44720,note_on,,,,,0,0,1,,,0,,,65,85
44791,note_off,,,,,71,0,1,,,0,,,57,64
44792,note_off,,,,,1,0,1,,,0,,,65,64
44793,note_off,,,,,1,0,1,,,0,,,60,64
44794,note_off,,,,,1,0,1,,,0,,,63,64
44800,note_on,,,,,0,0,1,,,0,,,57,85
44800,note_on,,,,,0,0,1,,,0,,,60,79
44800,note_on,,,,,0,0,1,,,0,,,65,83
44800,note_on,,,,,6,0,1,,,0,,,63,81
44871,note_off,,,,,71,0,1,,,0,,,60,64
44872,note_off,,,,,1,0,1,,,0,,,65,64
44873,note_off,,,,,1,0,1,,,0,,,57,64
44873,note_off,,,,,233,0,2,,,1,,,41,64
44874,note_off,,,,,1,0,1,,,0,,,63,64
44880,note_on,,,,,7,0,2,,,1,,,63,82
44890,note_on,,,,,10,0,2,,,1,,,65,81
44900,note_on,,,,,10,0,2,,,1,,,69,80
44910,note_on,,,,,10,0,2,,,1,,,72,88
44960,note_on,,,,,0,0,1,,,0,,,60,82
44960,note_on,,,,,86,0,1,,,0,,,65,80
44960,note_on,,,,,0,0,1,,,0,,,63,80
44960,note_on,,,,,0,0,1,,,0,,,57,82
44991,note_off,,,,,81,0,2,,,1,,,69,64
44991,note_off,,,,,0,0,2,,,1,,,65,64
44993,note_off,,,,,2,0,2,,,1,,,63,64
45030,note_off,,,,,0,0,1,,,0,,,65,64
45030,note_off,,,,,70,0,1,,,0,,,63,64
45032,note_off,,,,,2,0,1,,,0,,,57,64
45033,note_off,,,,,1,0,1,,,0,,,60,64
45040,note_on,,,,,0,0,1,,,0,,,60,81
45040,note_on,,,,,7,0,1,,,0,,,65,82
45040,note_on,,,,,0,0,1,,,0,,,63,80
45040,note_on,,,,,0,0,1,,,0,,,57,83
45111,note_off,,,,,0,0,1,,,0,,,65,64
45111,note_off,,,,,71,0,1,,,0,,,60,64
45112,note_off,,,,,1,0,1,,,0,,,57,64
45112,note_off,,,,,119,0,2,,,1,,,72,64
45113,note_off,,,,,1,0,1,,,0,,,63,64
45120,note_on,,,,,8,0,2,,,1,,,64,83
45130,note_on,,,,,10,0,2,,,1,,,67,83
45140,note_on,,,,,10,0,2,,,1,,,70,82
45150,note_on,,,,,10,0,2,,,1,,,73,107
45200,note_on,,,,,87,0,1,,,0,,,64,81
45200,note_on,,,,,0,0,1,,,0,,,61,77
45200,note_on,,,,,0,0,1,,,0,,,58,83
45200,note_on,,,,,0,0,1,,,0,,,55,82
45231,note_off,,,,,81,0,2,,,1,,,70,64
45232,note_off,,,,,1,0,2,,,1,,,67,64
45233,note_off,,,,,1,0,2,,,1,,,64,64
45271,note_off,,,,,71,0,1,,,0,,,58,64
45273,note_off,,,,,2,0,1,,,0,,,55,64
45274,note_off,,,,,1,0,1,,,0,,,61,64
45274,note_off,,,,,0,0,1,,,0,,,64,64
45280,note_on,,,,,0,0,1,,,0,,,55,82
45280,note_on,,,,,6,0,1,,,0,,,64,79
45280,note_on,,,,,0,0,1,,,0,,,58,81
45280,note_on,,,,,0,0,1,,,0,,,61,80
45351,note_off,,,,,71,0,1,,,0,,,58,64
45352,note_off,,,,,0,0,1,,,0,,,64,64
45352,note_off,,,,,1,0,1,,,0,,,61,64
45354,note_off,,,,,2,0,1,,,0,,,55,64
45360,note_on,,,,,6,0,1,,,0,,,61,84
45360,note_on,,,,,0,0,1,,,0,,,55,84
45360,note_on,,,,,0,0,1,,,0,,,58,81
45360,note_on,,,,,0,0,1,,,0,,,64,80
45431,note_off,,,,,0,0,1,,,0,,,61,64
45431,note_off,,,,,71,0,1,,,0,,,55,64
45432,note_off,,,,,0,0,1,,,0,,,58,64
45432,note_off,,,,,1,0,1,,,0,,,64,64
45440,note_on,,,,,8,0,1,,,0,,,64,83
45440,note_on,,,,,0,0,1,,,0,,,55,77
45440,note_on,,,,,0,0,1,,,0,,,58,79
45440,note_on,,,,,0,0,1,,,0,,,61,82
45510,note_off,,,,,70,0,1,,,0,,,61,64
45511,note_off,,,,,0,0,1,,,0,,,64,64
45511,note_off,,,,,0,0,1,,,0,,,58,64
45511,note_off,,,,,1,0,1,,,0,,,55,64
45520,note_on,,,,,0,0,1,,,0,,,55,85
45520,note_on,,,,,0,0,1,,,0,,,58,81
45520,note_on,,,,,0,0,1,,,0,,,64,84
45520,note_on,,,,,9,0,1,,,0,,,61,78
45593,note_off,,,,,0,0,1,,,0,,,58,64
45593,note_off,,,,,73,0,1,,,0,,,64,64
45594,note_off,,,,,0,0,1,,,0,,,61,64
45594,note_off,,,,,1,0,1,,,0,,,55,64
45600,note_on,,,,,0,0,1,,,0,,,58,81
45600,note_on,,,,,0,0,1,,,0,,,64,81
45600,note_on,,,,,6,0,1,,,0,,,61,81
45600,note_on,,,,,0,0,1,,,0,,,55,86
45670,note_off,,,,,70,0,1,,,0,,,58,64
45671,note_off,,,,,1,0,1,,,0,,,55,64
45673,note_off,,,,,0,0,1,,,0,,,61,64
45673,note_off,,,,,2,0,1,,,0,,,64,64
45680,note_on,,,,,7,0,1,,,0,,,64,79
45680,note_on,,,,,0,0,1,,,0,,,61,80
45680,note_on,,,,,0,0,1,,,0,,,58,79
45680,note_on,,,,,0,0,1,,,0,,,55,79
45750,note_off,,,,,70,0,1,,,0,,,58,64
45751,note_off,,,,,1,0,1,,,0,,,61,64
45753,note_off,,,,,2,0,1,,,0,,,64,64
45754,note_off,,,,,1,0,1,,,0,,,55,64
45760,note_on,,,,,0,0,1,,,0,,,58,84
45760,note_on,,,,,0,0,1,,,0,,,55,85
45760,note_on,,,,,6,0,1,,,0,,,64,79
45760,note_on,,,,,0,0,1,,,0,,,61,84
45830,note_off,,,,,70,0,1,,,0,,,61,64
45832,note_off,,,,,2,0,1,,,0,,,64,64
45833,note_off,,,,,600,0,2,,,1,,,73,64
45833,note_off,,,,,1,0,1,,,0,,,58,64
45834,note_off,,,,,1,0,1,,,0,,,55,64
45840,note_on,,,,,7,0,2,,,1,,,61,79
45850,note_on,,,,,10,0,2,,,1,,,64,82
45860,note_on,,,,,10,0,2,,,1,,,67,77
45870,note_on,,,,,10,0,2,,,1,,,70,95
45920,note_on,,,,,86,0,1,,,0,,,61,84
45920,note_on,,,,,0,0,1,,,0,,,58,85
45920,note_on,,,,,0,0,1,,,0,,,64,81
45920,note_on,,,,,0,0,1,,,0,,,55,78
45951,note_off,,,,,81,0,2,,,1,,,67,64
45952,note_off,,,,,1,0,2,,,1,,,64,64
45954,note_off,,,,,2,0,2,,,1,,,61,64
45992,note_off,,,,,72,0,1,,,0,,,58,64
45992,note_off,,,,,0,0,1,,,0,,,61,64
45993,note_off,,,,,1,0,1,,,0,,,55,64
45993,note_off,,,,,0,0,1,,,0,,,64,64
46000,note_on,,,,,0,0,1,,,0,,,64,83
46000,note_on,,,,,7,0,1,,,0,,,55,78
46000,note_on,,,,,0,0,1,,,0,,,61,78
46000,note_on,,,,,0,0,1,,,0,,,58,79
46073,note_off,,,,,73,0,1,,,0,,,58,64
46073,note_off,,,,,0,0,1,,,0,,,64,64
46073,note_off,,,,,0,0,1,,,0,,,55,64
46074,note_off,,,,,120,0,2,,,1,,,70,64
46074,note_off,,,,,1,0,1,,,0,,,61,64
46080,note_on,,,,,6,0,2,,,1,,,29,91
46080,note_on,,,,,6,0,1,,,0,,,69,109
46080,note_on,,,,,0,0,2,,,1,,,41,97
46080,note_on,,,,,0,0,1,,,0,,,60,92
46080,note_on,,,,,0,0,1,,,0,,,57,95
46152,note_off,,,,,72,0,1,,,0,,,60,64
46153,note_off,,,,,1,0,1,,,0,,,57,64
46153,note_off,,,,,73,0,2,,,1,,,41,64
46160,note_on,,,,,7,0,2,,,1,,,45,88
46160,note_on,,,,,7,0,1,,,0,,,60,94
46160,note_on,,,,,0,0,1,,,0,,,57,89
46230,note_off,,,,,70,0,1,,,0,,,60,64
46231,note_off,,,,,71,0,2,,,1,,,45,64
46232,note_off,,,,,2,0,1,,,0,,,57,64
46240,note_on,,,,,0,0,1,,,0,,,60,92
46240,note_on,,,,,9,0,2,,,1,,,46,91
46240,note_on,,,,,8,0,1,,,0,,,57,87
46310,note_off,,,,,0,0,1,,,0,,,69,64
46310,note_off,,,,,70,0,1,,,0,,,57,64
46312,note_off,,,,,2,0,1,,,0,,,60,64
46312,note_off,,,,,72,0,2,,,1,,,29,64
46314,note_off,,,,,2,0,2,,,1,,,46,64
46320,note_on,,,,,0,0,1,,,0,,,57,87
46320,note_on,,,,,0,0,1,,,0,,,60,95
46320,note_on,,,,,6,0,2,,,1,,,48,87
46320,note_on,,,,,8,0,1,,,0,,,65,103
46390,note_off,,,,,70,0,1,,,0,,,57,64
46391,note_off,,,,,1,0,1,,,0,,,60,64
46394,note_off,,,,,74,0,2,,,1,,,48,64
46400,note_on,,,,,0,0,1,,,0,,,57,87
46400,note_on,,,,,9,0,1,,,0,,,60,95
46400,note_on,,,,,6,0,2,,,1,,,50,92
46472,note_off,,,,,72,0,1,,,0,,,57,64
46474,note_off,,,,,2,0,1,,,0,,,60,64
46474,note_off,,,,,74,0,2,,,1,,,50,64
46480,note_on,,,,,0,0,1,,,0,,,60,90
46480,note_on,,,,,6,0,2,,,1,,,52,87
46480,note_on,,,,,6,0,1,,,0,,,57,95
46550,note_off,,,,,70,0,1,,,0,,,60,64
46551,note_off,,,,,1,0,1,,,0,,,65,64
46552,note_off,,,,,72,0,2,,,1,,,52,64
46553,note_off,,,,,2,0,1,,,0,,,57,64
46560,note_on,,,,,7,0,1,,,0,,,57,92
46560,note_on,,,,,8,0,2,,,1,,,53,96
46560,note_on,,,,,0,0,1,,,0,,,60,93
46631,note_off,,,,,71,0,1,,,0,,,57,64
46634,note_off,,,,,3,0,1,,,0,,,60,64
46640,note_on,,,,,0,0,1,,,0,,,57,88
46640,note_on,,,,,6,0,1,,,0,,,60,91
46711,note_off,,,,,71,0,1,,,0,,,57,64
46714,note_off,,,,,3,0,1,,,0,,,60,64
46720,note_on,,,,,0,0,1,,,0,,,60,89
46720,note_on,,,,,6,0,1,,,0,,,57,87
46790,note_off,,,,,230,0,2,,,1,,,53,64
46791,note_off,,,,,0,0,1,,,0,,,57,64
46791,note_off,,,,,71,0,1,,,0,,,60,64
46800,note_on,,,,,10,0,2,,,1,,,65,89
46810,note_on,,,,,10,0,2,,,1,,,69,94
46820,note_on,,,,,10,0,2,,,1,,,72,98
46880,note_on,,,,,0,0,1,,,0,,,60,94
46880,note_on,,,,,89,0,1,,,0,,,57,91
46950,note_off,,,,,70,0,1,,,0,,,57,64
46954,note_off,,,,,4,0,1,,,0,,,60,64
46960,note_on,,,,,6,0,1,,,0,,,57,91
46960,note_on,,,,,0,0,1,,,0,,,60,94
47030,note_off,,,,,0,0,1,,,0,,,57,64
47030,note_off,,,,,70,0,1,,,0,,,60,64
47033,note_off,,,,,213,0,2,,,1,,,72,64
47033,note_off,,,,,0,0,2,,,1,,,65,64
47034,note_off,,,,,1,0,2,,,1,,,69,64
47040,note_on,,,,,6,0,2,,,1,,,64,91
47050,note_on,,,,,10,0,2,,,1,,,67,97
47060,note_on,,,,,10,0,2,,,1,,,70,93
47070,note_on,,,,,10,0,2,,,1,,,73,109
47120,note_on,,,,,0,0,1,,,0,,,58,91
47120,note_on,,,,,0,0,1,,,0,,,55,93
47120,note_on,,,,,0,0,1,,,0,,,64,94
47120,note_on,,,,,90,0,1,,,0,,,61,88
47191,note_off,,,,,0,0,1,,,0,,,61,64
47191,note_off,,,,,71,0,1,,,0,,,55,64
47193,note_off,,,,,0,0,1,,,0,,,58,64
47193,note_off,,,,,2,0,1,,,0,,,64,64
47200,note_on,,,,,0,0,1,,,0,,,64,89
47200,note_on,,,,,0,0,1,,,0,,,58,95
47200,note_on,,,,,0,0,1,,,0,,,55,95
47200,note_on,,,,,7,0,1,,,0,,,61,88
47270,note_off,,,,,200,0,2,,,1,,,67,64
47270,note_off,,,,,0,0,1,,,0,,,61,64
47270,note_off,,,,,70,0,1,,,0,,,58,64
47271,note_off,,,,,0,0,1,,,0,,,55,64
47271,note_off,,,,,1,0,1,,,0,,,64,64
47272,note_off,,,,,2,0,2,,,1,,,70,64
47272,note_off,,,,,0,0,2,,,1,,,64,64
47280,note_on,,,,,0,0,1,,,0,,,64,90
47280,note_on,,,,,9,0,1,,,0,,,55,95
47280,note_on,,,,,0,0,1,,,0,,,58,88
47280,note_on,,,,,0,0,1,,,0,,,61,89
47350,note_off,,,,,70,0,1,,,0,,,58,64
47350,note_off,,,,,0,0,1,,,0,,,64,64
47352,note_off,,,,,2,0,1,,,0,,,55,64
47353,note_off,,,,,1,0,1,,,0,,,61,64
47360,note_on,,,,,0,0,1,,,0,,,64,90
47360,note_on,,,,,0,0,1,,,0,,,61,93
47360,note_on,,,,,7,0,1,,,0,,,58,95
47360,note_on,,,,,0,0,1,,,0,,,55,90
47430,note_off,,,,,70,0,1,,,0,,,61,64
47431,note_off,,,,,1,0,1,,,0,,,64,64
47432,note_off,,,,,1,0,1,,,0,,,58,64
47433,note_off,,,,,1,0,1,,,0,,,55,64
47440,note_on,,,,,0,0,1,,,0,,,61,95
47440,note_on,,,,,0,0,1,,,0,,,64,91
47440,note_on,,,,,7,0,1,,,0,,,58,92
47440,note_on,,,,,0,0,1,,,0,,,55,90
47511,note_off,,,,,71,0,1,,,0,,,58,64
47512,note_off,,,,,1,0,1,,,0,,,61,64
47513,note_off,,,,,1,0,1,,,0,,,55,64
47514,note_off,,,,,1,0,1,,,0,,,64,64
47520,note_on,,,,,0,0,1,,,0,,,64,94
47520,note_on,,,,,6,0,1,,,0,,,55,95
47520,note_on,,,,,0,0,1,,,0,,,58,97
47520,note_on,,,,,0,0,1,,,0,,,61,91
47590,note_off,,,,,70,0,1,,,0,,,58,64
47593,note_off,,,,,3,0,1,,,0,,,64,64
47594,note_off,,,,,1,0,1,,,0,,,61,64
47594,note_off,,,,,0,0,1,,,0,,,55,64
47600,note_on,,,,,6,0,1,,,0,,,61,95
47600,note_on,,,,,0,0,1,,,0,,,64,95
47600,note_on,,,,,0,0,1,,,0,,,58,94
47600,note_on,,,,,0,0,1,,,0,,,55,94
47672,note_off,,,,,0,0,1,,,0,,,58,64
47672,note_off,,,,,72,0,1,,,0,,,64,64
47673,note_off,,,,,1,0,1,,,0,,,55,64
47673,note_off,,,,,0,0,1,,,0,,,61,64
47680,note_on,,,,,0,0,1,,,0,,,64,92
47680,note_on,,,,,0,0,1,,,0,,,55,89
47680,note_on,,,,,7,0,1,,,0,,,61,90
47680,note_on,,,,,0,0,1,,,0,,,58,91
47750,note_off,,,,,70,0,1,,,0,,,64,64
47750,note_off,,,,,0,0,1,,,0,,,61,64
47751,note_off,,,,,1,0,1,,,0,,,58,64
47751,note_off,,,,,479,0,2,,,1,,,73,64
47754,note_off,,,,,3,0,1,,,0,,,55,64
47760,note_on,,,,,9,0,2,,,1,,,61,88
47770,note_on,,,,,10,0,2,,,1,,,64,88
47780,note_on,,,,,10,0,2,,,1,,,67,93
47790,note_on,,,,,10,0,2,,,1,,,72,103
47840,note_on,,,,,0,0,1,,,0,,,55,92
47840,note_on,,,,,0,0,1,,,0,,,64,88
47840,note_on,,,,,0,0,1,,,0,,,61,90
47840,note_on,,,,,86,0,1,,,0,,,58,88
47871,note_off,,,,,81,0,2,,,1,,,64,64
47874,note_off,,,,,3,0,2,,,1,,,72,64
47874,note_off,,,,,0,0,2,,,1,,,61,64
47874,note_off,,,,,0,0,2,,,1,,,67,64
47880,note_on,,,,,6,0,2,,,1,,,70,89
47911,note_off,,,,,0,0,1,,,0,,,58,64
47911,note_off,,,,,71,0,1,,,0,,,64,64
47912,note_off,,,,,1,0,1,,,0,,,61,64
47913,note_off,,,,,1,0,1,,,0,,,55,64
47920,note_on,,,,,7,0,1,,,0,,,55,91
47920,note_on,,,,,0,0,1,,,0,,,58,90
47920,note_on,,,,,0,0,1,,,0,,,64,95
47920,note_on,,,,,0,0,1,,,0,,,61,92
47991,note_off,,,,,0,0,1,,,0,,,55,64
47991,note_off,,,,,71,0,1,,,0,,,61,64
47992,note_off,,,,,112,0,2,,,1,,,70,64
47993,note_off,,,,,2,0,1,,,0,,,58,64
47994,note_off,,,,,1,0,1,,,0,,,64,64
48000,note_on,,,,,6,0,1,,,0,,,72,107
48000,note_on,,,,,0,0,2,,,1,,,29,99
48000,note_on,,,,,0,0,1,,,0,,,57,94
48000,control_change,,,,,0,0,1,,,0,7,99,,
48000,note_on,,,,,0,0,1,,,0,,,65,98
48000,control_change,,,,,8,0,2,,,1,7,99,,
48053,control_change,,,,,53,0,2,,,1,7,98,,
48053,control_change,,,,,53,0,1,,,0,7,98,,
48070,note_off,,,,,17,0,1,,,0,,,57,64
48071,note_off,,,,,1,0,1,,,0,,,65,64
48071,note_off,,,,,18,0,2,,,1,,,29,64
48073,note_off,,,,,2,0,1,,,0,,,72,64
48080,note_on,,,,,9,0,2,,,1,,,33,93
48106,control_change,,,,,33,0,1,,,0,7,97,,
48106,control_change,,,,,26,0,2,,,1,7,97,,
48151,note_off,,,,,45,0,2,,,1,,,33,64
48159,control_change,,,,,53,0,1,,,0,7,96,,
48159,control_change,,,,,8,0,2,,,1,7,96,,
48160,note_on,,,,,1,0,2,,,1,,,34,87
48160,note_on,,,,,0,0,1,,,0,,,53,89
48160,note_on,,,,,1,0,1,,,0,,,65,92
48212,control_change,,,,,52,0,1,,,0,7,95,,
48212,control_change,,,,,52,0,2,,,1,7,95,,
48231,note_off,,,,,0,0,1,,,0,,,65,64
48231,note_off,,,,,19,0,1,,,0,,,53,64
48233,note_off,,,,,21,0,2,,,1,,,34,64
48240,note_on,,,,,9,0,1,,,0,,,53,92
48240,note_on,,,,,0,0,1,,,0,,,65,94
48240,note_on,,,,,7,0,2,,,1,,,36,90
48266,control_change,,,,,26,0,2,,,1,7,94,,
48266,control_change,,,,,26,0,1,,,0,7,94,,
48313,note_off,,,,,47,0,1,,,0,,,53,64
48314,note_off,,,,,1,0,1,,,0,,,65,64
48314,note_off,,,,,48,0,2,,,1,,,36,64
48319,control_change,,,,,5,0,2,,,1,7,93,,
48319,control_change,,,,,5,0,1,,,0,7,93,,
48320,note_on,,,,,0,0,1,,,0,,,65,91
48320,note_on,,,,,1,0,1,,,0,,,53,90
48320,note_on,,,,,1,0,2,,,1,,,38,89
48372,control_change,,,,,52,0,1,,,0,7,92,,
48372,control_change,,,,,52,0,2,,,1,7,92,,
48391,note_off,,,,,19,0,1,,,0,,,53,64
48394,note_off,,,,,22,0,2,,,1,,,38,64
48394,note_off,,,,,3,0,1,,,0,,,65,64
48400,note_on,,,,,0,0,1,,,0,,,65,93
48400,note_on,,,,,6,0,2,,,1,,,40,88
48400,note_on,,,,,6,0,1,,,0,,,53,91
48425,control_change,,,,,25,0,2,,,1,7,91,,
48425,control_change,,,,,25,0,1,,,0,7,91,,
48471,note_off,,,,,46,0,1,,,0,,,53,64
48471,note_off,,,,,46,0,2,,,1,,,40,64
48474,note_off,,,,,3,0,1,,,0,,,65,64
48479,control_change,,,,,8,0,2,,,1,7,90,,
48479,control_change,,,,,5,0,1,,,0,7,90,,
48480,note_on,,,,,1,0,2,,,1,,,41,89
48480,note_on,,,,,0,0,1,,,0,,,65,95
48480,note_on,,,,,1,0,1,,,0,,,53,89
48551,note_off,,,,,71,0,1,,,0,,,65,64
48553,note_off,,,,,2,0,1,,,0,,,53,64
48560,note_on,,,,,0,0,1,,,0,,,65,88
48560,note_on,,,,,7,0,1,,,0,,,53,93
48631,note_off,,,,,0,0,1,,,0,,,53,64
48631,note_off,,,,,71,0,1,,,0,,,65,64
48640,note_on,,,,,0,0,1,,,0,,,65,94
48640,note_on,,,,,9,0,1,,,0,,,53,94
48711,note_off,,,,,71,0,1,,,0,,,65,64
48712,note_off,,,,,1,0,1,,,0,,,53,64
48720,note_on,,,,,8,0,1,,,0,,,65,92
48720,note_on,,,,,0,0,1,,,0,,,53,90
48790,note_off,,,,,70,0,1,,,0,,,53,64
48791,note_off,,,,,1,0,1,,,0,,,65,64
48800,note_on,,,,,0,0,1,,,0,,,53,95
48800,note_on,,,,,9,0,1,,,0,,,65,87
48870,note_off,,,,,70,0,1,,,0,,,65,64
48873,note_off,,,,,3,0,1,,,0,,,53,64
48880,note_on,,,,,0,0,1,,,0,,,53,87
48880,note_on,,,,,7,0,1,,,0,,,65,94
48953,note_off,,,,,73,0,1,,,0,,,53,64
48954,note_off,,,,,1,0,1,,,0,,,65,64
48960,note_on,,,,,6,0,1,,,0,,,65,95
48960,note_on,,,,,0,0,1,,,0,,,53,91
49030,note_off,,,,,70,0,1,,,0,,,53,64
49034,note_off,,,,,4,0,1,,,0,,,65,64
49040,note_on,,,,,0,0,1,,,0,,,53,87
49040,note_on,,,,,6,0,1,,,0,,,65,90
49112,note_off,,,,,72,0,1,,,0,,,65,64
49113,note_off,,,,,1,0,1,,,0,,,53,64
49120,note_on,,,,,0,0,1,,,0,,,53,87
49120,note_on,,,,,7,0,1,,,0,,,65,88
49191,note_off,,,,,71,0,1,,,0,,,53,64
49194,note_off,,,,,3,0,1,,,0,,,65,64
49200,note_on,,,,,0,0,1,,,0,,,65,88
49200,note_on,,,,,6,0,1,,,0,,,53,93
49273,note_off,,,,,0,0,1,,,0,,,53,64
49273,note_off,,,,,73,0,1,,,0,,,65,64
49280,note_on,,,,,0,0,1,,,0,,,53,87
49280,note_on,,,,,7,0,1,,,0,,,65,93
49354,note_off,,,,,74,0,1,,,0,,,53,64
49354,note_off,,,,,0,0,1,,,0,,,65,64
49360,note_on,,,,,6,0,1,,,0,,,53,87
49360,note_on,,,,,0,0,1,,,0,,,65,88
49433,note_off,,,,,73,0,1,,,0,,,65,64
49433,note_off,,,,,953,0,2,,,1,,,41,64
49434,note_off,,,,,1,0,1,,,0,,,53,64
49440,note_on,,,,,0,0,1,,,0,,,53,74
49440,note_on,,,,,6,0,1,,,0,,,65,75
49511,note_off,,,,,71,0,1,,,0,,,65,64
49513,note_off,,,,,2,0,1,,,0,,,53,64
49520,note_on,,,,,0,0,1,,,0,,,65,75
49520,note_on,,,,,7,0,1,,,0,,,53,72
49590,note_off,,,,,70,0,1,,,0,,,53,64
49592,note_off,,,,,2,0,1,,,0,,,65,64
49600,note_on,,,,,0,0,1,,,0,,,53,72
49600,note_on,,,,,8,0,1,,,0,,,65,71
49671,note_off,,,,,71,0,1,,,0,,,53,64
49673,note_off,,,,,2,0,1,,,0,,,65,64
49680,note_on,,,,,7,0,1,,,0,,,65,72
49680,note_on,,,,,247,0,2,,,1,,,48,79
49680,note_on,,,,,0,0,1,,,0,,,53,71
49750,note_off,,,,,70,0,1,,,0,,,53,64
49754,note_off,,,,,4,0,1,,,0,,,65,64
49760,note_on,,,,,6,0,1,,,0,,,53,68
49760,note_on,,,,,0,0,1,,,0,,,65,75
49830,note_off,,,,,70,0,1,,,0,,,65,64
49832,note_off,,,,,2,0,1,,,0,,,53,64
49840,note_on,,,,,0,0,1,,,0,,,53,72
49840,note_on,,,,,8,0,1,,,0,,,65,73
49911,note_off,,,,,71,0,1,,,0,,,53,64
49912,note_off,,,,,232,0,2,,,1,,,48,64
49913,note_off,,,,,2,0,1,,,0,,,65,64
49920,note_on,,,,,0,0,1,,,0,,,53,77
49920,note_on,,,,,8,0,2,,,1,,,51,83
49920,note_on,,,,,7,0,1,,,0,,,65,76
49990,note_off,,,,,70,0,1,,,0,,,65,64
49991,note_off,,,,,1,0,1,,,0,,,53,64
50000,note_on,,,,,0,0,1,,,0,,,65,67
50000,note_on,,,,,9,0,1,,,0,,,53,75
50070,note_off,,,,,70,0,1,,,0,,,53,64
50074,note_off,,,,,4,0,1,,,0,,,65,64
50080,note_on,,,,,0,0,1,,,0,,,53,74
50080,note_on,,,,,6,0,1,,,0,,,65,75
50150,note_off,,,,,70,0,1,,,0,,,53,64
50153,note_off,,,,,3,0,1,,,0,,,65,64
50160,note_on,,,,,0,0,1,,,0,,,65,69
50160,note_on,,,,,7,0,1,,,0,,,53,68
50230,note_off,,,,,70,0,1,,,0,,,65,64
50232,note_off,,,,,2,0,1,,,0,,,53,64
50240,note_on,,,,,8,0,1,,,0,,,53,74
50240,note_on,,,,,0,0,1,,,0,,,65,72
50310,note_off,,,,,70,0,1,,,0,,,65,64
50314,note_off,,,,,4,0,1,,,0,,,53,64
50320,note_on,,,,,0,0,1,,,0,,,65,75
50320,note_on,,,,,6,0,1,,,0,,,53,73
50392,note_off,,,,,72,0,1,,,0,,,53,64
50394,note_off,,,,,2,0,1,,,0,,,65,64
50400,control_change,,,,,480,0,2,,,1,7,100,,
50400,note_on,,,,,6,0,1,,,0,,,53,71
50400,note_on,,,,,0,0,1,,,0,,,65,69
50400,control_change,,,,,0,0,1,,,0,7,100,,
50472,note_off,,,,,72,0,1,,,0,,,53,64
50474,note_off,,,,,2,0,1,,,0,,,65,64
50480,note_on,,,,,6,0,1,,,0,,,53,72
50480,note_on,,,,,0,0,1,,,0,,,65,73
50552,note_off,,,,,72,0,1,,,0,,,65,64
50552,note_off,,,,,0,0,1,,,0,,,53,64
50560,note_on,,,,,0,0,1,,,0,,,65,70
50560,note_on,,,,,8,0,1,,,0,,,53,67
50632,note_off,,,,,72,0,1,,,0,,,53,64
50633,note_off,,,,,1,0,1,,,0,,,65,64
50634,note_off,,,,,234,0,2,,,1,,,51,64
50640,note_on,,,,,0,0,1,,,0,,,53,75
50640,note_on,,,,,7,0,1,,,0,,,65,75
50640,note_on,,,,,6,0,2,,,1,,,51,81
50714,note_off,,,,,74,0,1,,,0,,,53,64
50714,note_off,,,,,0,0,1,,,0,,,65,64
50720,note_on,,,,,6,0,1,,,0,,,65,68
50720,note_on,,,,,0,0,1,,,0,,,53,70
50790,note_off,,,,,70,0,1,,,0,,,53,64
50791,note_off,,,,,1,0,1,,,0,,,65,64
50800,note_on,,,,,0,0,1,,,0,,,53,67
50800,note_on,,,,,9,0,1,,,0,,,65,73
50870,note_off,,,,,70,0,1,,,0,,,53,64
50873,note_off,,,,,3,0,1,,,0,,,65,64
50874,note_off,,,,,234,0,2,,,1,,,51,64
50880,note_on,,,,,6,0,2,,,1,,,53,81
50960,note_on,,,,,87,0,1,,,0,,,65,69
50960,note_on,,,,,0,0,1,,,0,,,53,69
51032,note_off,,,,,72,0,1,,,0,,,53,64
51033,note_off,,,,,1,0,1,,,0,,,65,64
51040,note_on,,,,,7,0,1,,,0,,,65,68
51040,note_on,,,,,0,0,1,,,0,,,53,69
51113,note_off,,,,,73,0,1,,,0,,,53,64
51114,note_off,,,,,1,0,1,,,0,,,65,64
51120,note_on,,,,,6,0,1,,,0,,,65,68
51120,note_on,,,,,0,0,1,,,0,,,53,69
51191,note_off,,,,,71,0,1,,,0,,,65,64
51192,note_off,,,,,1,0,1,,,0,,,53,64
51200,note_on,,,,,8,0,1,,,0,,,53,72
51200,note_on,,,,,0,0,1,,,0,,,65,74
51271,note_off,,,,,71,0,1,,,0,,,53,64
51273,note_off,,,,,2,0,1,,,0,,,65,64
51280,note_on,,,,,7,0,1,,,0,,,65,73
51280,note_on,,,,,0,0,1,,,0,,,53,74
51350,note_off,,,,,70,0,1,,,0,,,53,64
51354,note_off,,,,,4,0,1,,,0,,,65,64
51360,note_on,,,,,6,0,1,,,0,,,53,76
51360,note_on,,,,,0,0,1,,,0,,,65,76
51430,note_off,,,,,70,0,1,,,0,,,53,64
51431,note_off,,,,,1,0,1,,,0,,,65,64
51440,note_on,,,,,0,0,1,,,0,,,53,67
51440,note_on,,,,,9,0,1,,,0,,,65,73
51511,note_off,,,,,0,0,1,,,0,,,65,64
51511,note_off,,,,,71,0,1,,,0,,,53,64
51520,note_on,,,,,9,0,1,,,0,,,53,75
51520,note_on,,,,,0,0,1,,,0,,,65,72
51593,note_off,,,,,713,0,2,,,1,,,53,64
51594,note_off,,,,,74,0,1,,,0,,,65,64
51594,note_off,,,,,0,0,1,,,0,,,53,64
51600,note_on,,,,,0,0,1,,,0,,,53,73
51600,note_on,,,,,6,0,1,,,0,,,65,73
51600,note_on,,,,,7,0,2,,,1,,,48,82
51670,note_off,,,,,70,0,1,,,0,,,53,64
51671,note_off,,,,,1,0,1,,,0,,,65,64
51680,note_on,,,,,9,0,1,,,0,,,65,70
51680,note_on,,,,,0,0,1,,,0,,,53,71
51752,note_off,,,,,0,0,1,,,0,,,65,64
51752,note_off,,,,,72,0,1,,,0,,,53,64
51760,note_on,,,,,8,0,1,,,0,,,53,73
51760,note_on,,,,,0,0,1,,,0,,,65,68
51830,note_off,,,,,230,0,2,,,1,,,48,64
51832,note_off,,,,,72,0,1,,,0,,,65,64
51834,note_off,,,,,2,0,1,,,0,,,53,64
51840,note_on,,,,,10,0,2,,,1,,,51,86
51840,note_on,,,,,0,0,1,,,0,,,53,78
51840,note_on,,,,,0,0,1,,,0,,,62,76
51840,note_on,,,,,6,0,1,,,0,,,65,74
51840,note_on,,,,,0,0,2,,,1,,,46,71
51911,note_off,,,,,71,0,1,,,0,,,53,64
51911,note_off,,,,,0,0,1,,,0,,,65,64
51912,note_off,,,,,1,0,1,,,0,,,62,64
51920,note_on,,,,,0,0,1,,,0,,,62,73
51920,note_on,,,,,0,0,1,,,0,,,53,74
51920,note_on,,,,,8,0,1,,,0,,,65,69
51991,note_off,,,,,71,0,1,,,0,,,53,64
51992,note_off,,,,,1,0,1,,,0,,,65,64
51994,note_off,,,,,2,0,1,,,0,,,62,64
52000,note_on,,,,,0,0,1,,,0,,,65,72
52000,note_on,,,,,0,0,1,,,0,,,53,72
52000,note_on,,,,,6,0,1,,,0,,,62,72
52071,note_off,,,,,71,0,1,,,0,,,62,64
52072,note_off,,,,,1,0,1,,,0,,,53,64
52074,note_off,,,,,2,0,1,,,0,,,65,64
52080,note_on,,,,,6,0,1,,,0,,,62,73
52080,note_on,,,,,0,0,1,,,0,,,65,68
52080,note_on,,,,,0,0,1,,,0,,,53,72
52152,note_off,,,,,72,0,1,,,0,,,62,64
52153,note_off,,,,,0,0,1,,,0,,,53,64
52153,note_off,,,,,1,0,1,,,0,,,65,64
52160,note_on,,,,,7,0,1,,,0,,,53,67
52160,note_on,,,,,0,0,1,,,0,,,62,68
52160,note_on,,,,,0,0,1,,,0,,,65,73
52191,note_off,,,,,351,0,2,,,1,,,51,64
52200,note_on,,,,,9,0,2,,,1,,,50,84
52230,note_off,,,,,70,0,1,,,0,,,62,64
52230,note_off,,,,,0,0,1,,,0,,,53,64
52231,note_off,,,,,1,0,1,,,0,,,65,64
52240,note_on,,,,,0,0,1,,,0,,,65,71
52240,note_on,,,,,0,0,1,,,0,,,62,68
52240,note_on,,,,,9,0,1,,,0,,,53,72
52310,note_off,,,,,70,0,1,,,0,,,53,64
52311,note_off,,,,,1,0,1,,,0,,,62,64
52312,note_off,,,,,1,0,1,,,0,,,65,64
52313,note_off,,,,,113,0,2,,,1,,,50,64
52320,note_on,,,,,0,0,1,,,0,,,62,70
52320,note_on,,,,,0,0,1,,,0,,,53,74
52320,note_on,,,,,8,0,1,,,0,,,65,74
52320,note_on,,,,,7,0,2,,,1,,,50,83
52390,note_off,,,,,70,0,1,,,0,,,62,64
52391,note_off,,,,,1,0,1,,,0,,,53,64
52393,note_off,,,,,2,0,1,,,0,,,65,64
52400,note_on,,,,,7,0,1,,,0,,,53,71
52400,note_on,,,,,0,0,1,,,0,,,62,72
52400,note_on,,,,,0,0,1,,,0,,,65,68
52470,note_off,,,,,70,0,1,,,0,,,62,64
52471,note_off,,,,,1,0,1,,,0,,,65,64
52473,note_off,,,,,2,0,1,,,0,,,53,64
52480,note_on,,,,,0,0,1,,,0,,,62,74
52480,note_on,,,,,0,0,1,,,0,,,65,72
52480,note_on,,,,,7,0,1,,,0,,,53,73
52552,note_off,,,,,72,0,1,,,0,,,65,64
52554,note_off,,,,,2,0,1,,,0,,,62,64
52554,note_off,,,,,0,0,1,,,0,,,53,64
52560,note_on,,,,,0,0,1,,,0,,,65,71
52560,note_on,,,,,0,0,1,,,0,,,62,68
52560,note_on,,,,,6,0,1,,,0,,,53,75
52630,note_off,,,,,70,0,1,,,0,,,62,64
52631,note_off,,,,,1,0,1,,,0,,,53,64
52632,note_off,,,,,1,0,1,,,0,,,65,64
52640,note_on,,,,,0,0,1,,,0,,,62,69
52640,note_on,,,,,8,0,1,,,0,,,65,70
52640,note_on,,,,,0,0,1,,,0,,,53,75
52710,note_off,,,,,70,0,1,,,0,,,62,64
52711,note_off,,,,,1,0,1,,,0,,,65,64
52712,note_off,,,,,1,0,1,,,0,,,53,64
52720,note_on,,,,,8,0,1,,,0,,,62,70
52720,note_on,,,,,0,0,1,,,0,,,53,75
52720,note_on,,,,,0,0,1,,,0,,,65,69
52790,note_off,,,,,70,0,1,,,0,,,53,64
52791,note_off,,,,,0,0,2,,,1,,,46,64
52791,note_off,,,,,471,0,2,,,1,,,50,64
52793,note_off,,,,,3,0,1,,,0,,,62,64
52794,note_off,,,,,1,0,1,,,0,,,65,64
52800,note_on,,,,,0,0,1,,,0,,,53,75
52800,note_on,,,,,0,0,1,,,0,,,65,77
52800,note_on,,,,,6,0,1,,,0,,,62,74
52871,note_off,,,,,71,0,1,,,0,,,62,64
52872,note_off,,,,,1,0,1,,,0,,,65,64
52874,note_off,,,,,2,0,1,,,0,,,53,64
52880,note_on,,,,,6,0,1,,,0,,,62,72
52880,note_on,,,,,0,0,1,,,0,,,53,67
52880,note_on,,,,,0,0,1,,,0,,,65,70
52951,note_off,,,,,0,0,1,,,0,,,62,64
52951,note_off,,,,,71,0,1,,,0,,,53,64
52952,note_off,,,,,1,0,1,,,0,,,65,64
52960,note_on,,,,,0,0,1,,,0,,,65,71
52960,note_on,,,,,8,0,1,,,0,,,62,74
52960,note_on,,,,,0,0,1,,,0,,,53,68
53031,note_off,,,,,71,0,1,,,0,,,62,64
53032,note_off,,,,,1,0,1,,,0,,,65,64
53033,note_off,,,,,1,0,1,,,0,,,53,64
53040,note_on,,,,,0,0,1,,,0,,,62,73
53040,note_on,,,,,7,0,1,,,0,,,53,75
53040,note_on,,,,,0,0,1,,,0,,,65,72
53040,note_on,,,,,249,0,2,,,1,,,46,71
53111,note_off,,,,,71,0,1,,,0,,,62,64
53112,note_off,,,,,1,0,1,,,0,,,65,64
53114,note_off,,,,,2,0,1,,,0,,,53,64
53120,note_on,,,,,0,0,1,,,0,,,62,75
53120,note_on,,,,,6,0,1,,,0,,,53,70
53120,note_on,,,,,0,0,1,,,0,,,65,71
53151,note_off,,,,,111,0,2,,,1,,,46,64
53190,note_off,,,,,70,0,1,,,0,,,65,64
53193,note_off,,,,,0,0,1,,,0,,,53,64
53193,note_off,,,,,3,0,1,,,0,,,62,64
53200,note_on,,,,,7,0,1,,,0,,,62,74
53200,note_on,,,,,0,0,1,,,0,,,65,71
53200,note_on,,,,,0,0,1,,,0,,,53,69
53270,note_off,,,,,70,0,1,,,0,,,62,64
53273,note_off,,,,,3,0,1,,,0,,,65,64
53274,note_off,,,,,1,0,1,,,0,,,53,64
53280,note_on,,,,,0,0,1,,,0,,,53,76
53280,note_on,,,,,6,0,1,,,0,,,65,76
53280,note_on,,,,,0,0,1,,,0,,,62,75
53280,note_on,,,,,129,0,2,,,1,,,41,74
53351,note_off,,,,,71,0,1,,,0,,,62,64
53352,note_off,,,,,1,0,1,,,0,,,53,64
53353,note_off,,,,,1,0,1,,,0,,,65,64
53360,note_on,,,,,0,0,1,,,0,,,65,75
53360,note_on,,,,,7,0,1,,,0,,,62,75
53360,note_on,,,,,0,0,1,,,0,,,53,68
53391,note_off,,,,,111,0,2,,,1,,,41,64
53430,note_off,,,,,70,0,1,,,0,,,65,64
53430,note_off,,,,,0,0,1,,,0,,,62,64
53432,note_off,,,,,2,0,1,,,0,,,53,64
53440,note_on,,,,,8,0,1,,,0,,,53,75
53440,note_on,,,,,0,0,1,,,0,,,62,67
53440,note_on,,,,,0,0,1,,,0,,,65,67
53511,note_off,,,,,71,0,1,,,0,,,65,64
53511,note_off,,,,,0,0,1,,,0,,,53,64
53514,note_off,,,,,3,0,1,,,0,,,62,64
53520,note_on,,,,,6,0,1,,,0,,,65,67
53520,note_on,,,,,0,0,1,,,0,,,62,72
53520,note_on,,,,,0,0,1,,,0,,,53,70
53520,note_on,,,,,129,0,2,,,1,,,38,79
53590,note_off,,,,,70,0,1,,,0,,,53,64
53591,note_off,,,,,1,0,1,,,0,,,62,64
53591,note_off,,,,,0,0,1,,,0,,,65,64
53600,note_on,,,,,9,0,1,,,0,,,65,71
53600,note_on,,,,,0,0,1,,,0,,,62,71
53600,note_on,,,,,0,0,1,,,0,,,53,69
53634,note_off,,,,,114,0,2,,,1,,,38,64
53670,note_off,,,,,70,0,1,,,0,,,65,64
53671,note_off,,,,,0,0,1,,,0,,,62,64
53671,note_off,,,,,1,0,1,,,0,,,53,64
53680,note_on,,,,,0,0,1,,,0,,,62,69
53680,note_on,,,,,0,0,1,,,0,,,53,68
53680,note_on,,,,,9,0,1,,,0,,,65,67
53750,note_off,,,,,70,0,1,,,0,,,62,64
53750,note_off,,,,,0,0,1,,,0,,,65,64
53751,note_off,,,,,1,0,1,,,0,,,53,64
53760,note_on,,,,,0,0,1,,,0,,,55,71
53760,note_on,,,,,0,0,1,,,0,,,63,79
53760,note_on,,,,,9,0,1,,,0,,,60,73
53760,note_on,,,,,126,0,2,,,1,,,39,71
53832,note_off,,,,,72,0,1,,,0,,,60,64
53834,note_off,,,,,2,0,1,,,0,,,63,64
53834,note_off,,,,,0,0,1,,,0,,,55,64
53840,note_on,,,,,6,0,1,,,0,,,60,74
53840,note_on,,,,,0,0,1,,,0,,,55,67
53840,note_on,,,,,0,0,1,,,0,,,63,68
53874,note_off,,,,,114,0,2,,,1,,,39,64
53910,note_off,,,,,70,0,1,,,0,,,63,64
53912,note_off,,,,,2,0,1,,,0,,,60,64
53914,note_off,,,,,2,0,1,,,0,,,55,64
53920,note_on,,,,,0,0,1,,,0,,,60,75
53920,note_on,,,,,0,0,1,,,0,,,63,73
53920,note_on,,,,,6,0,1,,,0,,,55,68
53992,note_off,,,,,0,0,1,,,0,,,55,64
53992,note_off,,,,,72,0,1,,,0,,,60,64
53993,note_off,,,,,1,0,1,,,0,,,63,64
54000,note_on,,,,,0,0,1,,,0,,,60,74
54000,note_on,,,,,7,0,1,,,0,,,63,67
54000,note_on,,,,,0,0,1,,,0,,,55,67
54071,note_off,,,,,0,0,1,,,0,,,63,64
54071,note_off,,,,,71,0,1,,,0,,,60,64
54074,note_off,,,,,3,0,1,,,0,,,55,64
54080,note_on,,,,,6,0,1,,,0,,,63,70
54080,note_on,,,,,0,0,1,,,0,,,55,70
54080,note_on,,,,,0,0,1,,,0,,,60,72
54151,note_off,,,,,71,0,1,,,0,,,63,64
54154,note_off,,,,,3,0,1,,,0,,,60,64
54154,note_off,,,,,0,0,1,,,0,,,55,64
54160,note_on,,,,,0,0,1,,,0,,,60,68
54160,note_on,,,,,0,0,1,,,0,,,55,72
54160,note_on,,,,,6,0,1,,,0,,,63,69
54230,note_off,,,,,70,0,1,,,0,,,55,64
54233,note_off,,,,,0,0,1,,,0,,,63,64
54233,note_off,,,,,3,0,1,,,0,,,60,64
54240,note_on,,,,,366,0,2,,,1,,,36,69
54240,note_on,,,,,0,0,1,,,0,,,60,69
54240,note_on,,,,,7,0,1,,,0,,,63,73
54240,note_on,,,,,0,0,1,,,0,,,55,71
54311,note_off,,,,,71,0,1,,,0,,,55,64
54311,note_off,,,,,0,0,1,,,0,,,63,64
54314,note_off,,,,,3,0,1,,,0,,,60,64
54320,note_on,,,,,0,0,1,,,0,,,55,67
54320,note_on,,,,,0,0,1,,,0,,,60,72
54320,note_on,,,,,6,0,1,,,0,,,63,73
54351,note_off,,,,,111,0,2,,,1,,,36,64
54392,note_off,,,,,72,0,1,,,0,,,60,64
54393,note_off,,,,,1,0,1,,,0,,,55,64
54394,note_off,,,,,1,0,1,,,0,,,63,64
54400,note_on,,,,,0,0,1,,,0,,,55,73
54400,note_on,,,,,0,0,1,,,0,,,60,67
54400,note_on,,,,,6,0,1,,,0,,,63,70
54471,note_off,,,,,71,0,1,,,0,,,63,64
54472,note_off,,,,,1,0,1,,,0,,,55,64
54474,note_off,,,,,2,0,1,,,0,,,60,64
54480,note_on,,,,,0,0,1,,,0,,,55,74
54480,note_on,,,,,0,0,1,,,0,,,60,68
54480,note_on,,,,,6,0,1,,,0,,,63,70
54550,note_off,,,,,0,0,1,,,0,,,63,64
54550,note_off,,,,,70,0,1,,,0,,,60,64
54554,note_off,,,,,4,0,1,,,0,,,55,64
54560,note_on,,,,,6,0,1,,,0,,,55,75
54560,note_on,,,,,0,0,1,,,0,,,60,73
54560,note_on,,,,,0,0,1,,,0,,,63,73
54631,note_off,,,,,0,0,1,,,0,,,55,64
54631,note_off,,,,,71,0,1,,,0,,,63,64
54633,note_off,,,,,2,0,1,,,0,,,60,64
54640,note_on,,,,,7,0,1,,,0,,,63,71
54640,note_on,,,,,0,0,1,,,0,,,60,67
54640,note_on,,,,,0,0,1,,,0,,,55,69
54710,note_off,,,,,70,0,1,,,0,,,60,64
54712,note_off,,,,,0,0,1,,,0,,,63,64
54712,note_off,,,,,2,0,1,,,0,,,55,64
54720,note_on,,,,,0,0,1,,,0,,,62,79
54720,note_on,,,,,369,0,2,,,1,,,41,91
54720,note_on,,,,,8,0,1,,,0,,,55,72
54720,note_on,,,,,0,0,1,,,0,,,58,77
54790,note_off,,,,,0,0,1,,,0,,,62,64
54790,note_off,,,,,70,0,1,,,0,,,58,64
54794,note_off,,,,,4,0,1,,,0,,,55,64
54800,note_on,,,,,6,0,1,,,0,,,53,67
54800,note_on,,,,,0,0,1,,,0,,,58,71
54800,note_on,,,,,0,0,1,,,0,,,62,73
54831,note_off,,,,,111,0,2,,,1,,,41,64
54872,note_off,,,,,72,0,1,,,0,,,62,64
54873,note_off,,,,,1,0,1,,,0,,,58,64
54874,note_off,,,,,1,0,1,,,0,,,53,64
54880,note_on,,,,,0,0,1,,,0,,,53,74
54880,note_on,,,,,0,0,1,,,0,,,62,69
54880,note_on,,,,,6,0,1,,,0,,,58,71
54950,note_off,,,,,70,0,1,,,0,,,62,64
54950,note_off,,,,,0,0,1,,,0,,,58,64
54952,note_off,,,,,2,0,1,,,0,,,53,64
54960,note_on,,,,,0,0,1,,,0,,,58,68
54960,note_on,,,,,0,0,1,,,0,,,53,68
54960,note_on,,,,,8,0,1,,,0,,,62,69
55032,note_off,,,,,72,0,1,,,0,,,58,64
55033,note_off,,,,,1,0,1,,,0,,,62,64
55034,note_off,,,,,1,0,1,,,0,,,53,64
55040,note_on,,,,,6,0,1,,,0,,,62,74
55040,note_on,,,,,0,0,1,,,0,,,53,75
55040,note_on,,,,,0,0,1,,,0,,,58,70
55111,note_off,,,,,71,0,1,,,0,,,58,64
55112,note_off,,,,,1,0,1,,,0,,,53,64
55114,note_off,,,,,2,0,1,,,0,,,62,64
55120,note_on,,,,,6,0,1,,,0,,,53,69
55120,note_on,,,,,0,0,1,,,0,,,58,68
55120,note_on,,,,,0,0,1,,,0,,,62,74
55190,note_off,,,,,70,0,1,,,0,,,62,64
55194,note_off,,,,,4,0,1,,,0,,,58,64
55194,note_off,,,,,0,0,1,,,0,,,53,64
55200,note_on,,,,,369,0,2,,,1,,,29,72
55200,note_on,,,,,6,0,1,,,0,,,60,77
55200,note_on,,,,,0,0,1,,,0,,,57,73
55200,note_on,,,,,0,0,1,,,0,,,53,75
55200,note_on,,,,,0,0,2,,,1,,,41,70
55270,note_off,,,,,70,0,1,,,0,,,57,64
55271,note_off,,,,,1,0,1,,,0,,,53,64
55272,note_off,,,,,1,0,1,,,0,,,60,64
55280,note_on,,,,,0,0,1,,,0,,,53,75
55280,note_on,,,,,8,0,1,,,0,,,57,72
55280,note_on,,,,,0,0,1,,,0,,,60,75
55311,note_off,,,,,111,0,2,,,1,,,29,64
55314,note_off,,,,,3,0,2,,,1,,,41,64
55350,note_off,,,,,0,0,1,,,0,,,53,64
55350,note_off,,,,,70,0,1,,,0,,,60,64
55351,note_off,,,,,1,0,1,,,0,,,57,64
55360,note_on,,,,,0,0,1,,,0,,,60,72
55360,note_on,,,,,9,0,1,,,0,,,53,75
55360,note_on,,,,,0,0,1,,,0,,,57,71
55430,note_off,,,,,70,0,1,,,0,,,53,64
55432,note_off,,,,,2,0,1,,,0,,,60,64
55434,note_off,,,,,2,0,1,,,0,,,57,64
55440,note_on,,,,,0,0,2,,,1,,,60,67
55440,note_on,,,,,6,0,1,,,0,,,65,72
55440,note_on,,,,,126,0,2,,,1,,,53,74
55440,note_on,,,,,0,0,2,,,1,,,57,67
55450,note_on,,,,,10,0,1,,,0,,,72,67
55460,note_on,,,,,10,0,1,,,0,,,77,75
55470,note_on,,,,,10,0,1,,,0,,,84,74
55511,note_off,,,,,71,0,2,,,1,,,53,64
55514,note_off,,,,,3,0,2,,,1,,,60,64
55514,note_off,,,,,0,0,2,,,1,,,57,64
55520,note_on,,,,,0,0,2,,,1,,,57,71
55520,note_on,,,,,0,0,2,,,1,,,60,73
55520,note_on,,,,,6,0,2,,,1,,,53,73
55590,note_off,,,,,70,0,2,,,1,,,53,64
55591,note_off,,,,,1,0,2,,,1,,,60,64
55592,note_off,,,,,1,0,2,,,1,,,57,64
55600,note_on,,,,,0,0,2,,,1,,,53,69
55600,note_on,,,,,0,0,2,,,1,,,57,67
55600,note_on,,,,,8,0,2,,,1,,,60,74
55670,note_off,,,,,70,0,2,,,1,,,57,64
55671,note_off,,,,,1,0,2,,,1,,,60,64
55671,note_off,,,,,201,0,1,,,0,,,72,64
55673,note_off,,,,,2,0,1,,,0,,,84,64
55673,note_off,,,,,0,0,1,,,0,,,65,64
55673,note_off,,,,,0,0,1,,,0,,,77,64
55673,note_off,,,,,2,0,2,,,1,,,53,64
55680,note_on,,,,,7,0,2,,,1,,,46,79
55680,note_on,,,,,7,0,1,,,0,,,65,76
55690,note_on,,,,,10,0,1,,,0,,,74,76
55700,note_on,,,,,10,0,1,,,0,,,77,71
55710,note_on,,,,,10,0,1,,,0,,,86,76
55760,note_on,,,,,0,0,2,,,1,,,58,73
55760,note_on,,,,,80,0,2,,,1,,,62,72
55800,note_off,,,,,40,0,2,,,1,,,46,64
55840,note_off,,,,,40,0,2,,,1,,,58,64
55840,note_on,,,,,0,0,2,,,1,,,53,68
55840,note_off,,,,,0,0,2,,,1,,,62,64
55920,note_on,,,,,0,0,2,,,1,,,46,70
55920,note_off,,,,,80,0,2,,,1,,,53,64
56000,note_on,,,,,0,0,2,,,1,,,62,67
56000,note_on,,,,,80,0,2,,,1,,,58,68
56040,note_off,,,,,40,0,2,,,1,,,46,64
56080,note_off,,,,,40,0,2,,,1,,,62,64
56080,note_on,,,,,0,0,2,,,1,,,53,71
56080,note_off,,,,,0,0,2,,,1,,,58,64
56160,note_off,,,,,80,0,2,,,1,,,53,64
56160,note_on,,,,,0,0,2,,,1,,,46,70
56240,note_on,,,,,80,0,2,,,1,,,62,73
56240,note_on,,,,,0,0,2,,,1,,,58,68
56280,note_off,,,,,40,0,2,,,1,,,46,64
56320,note_off,,,,,40,0,2,,,1,,,58,64
56320,note_on,,,,,0,0,2,,,1,,,53,69
56320,note_off,,,,,0,0,2,,,1,,,62,64
56390,note_off,,,,,680,0,1,,,0,,,77,64
56391,note_off,,,,,1,0,1,,,0,,,74,64
56393,note_off,,,,,2,0,1,,,0,,,86,64
56394,note_off,,,,,1,0,1,,,0,,,65,64
56400,note_on,,,,,6,0,1,,,0,,,65,72
56400,note_on,,,,,0,0,2,,,1,,,46,71
56400,note_off,,,,,80,0,2,,,1,,,53,64
56410,note_on,,,,,10,0,1,,,0,,,70,69
56420,note_on,,,,,10,0,1,,,0,,,77,71
56430,note_on,,,,,10,0,1,,,0,,,82,71
56480,note_on,,,,,0,0,2,,,1,,,58,75
56480,note_on,,,,,80,0,2,,,1,,,62,75
56520,note_off,,,,,40,0,2,,,1,,,46,64
56560,note_off,,,,,0,0,2,,,1,,,62,64
56560,note_on,,,,,0,0,2,,,1,,,53,70
56560,note_off,,,,,40,0,2,,,1,,,58,64
56631,note_off,,,,,201,0,1,,,0,,,82,64
56632,note_off,,,,,0,0,1,,,0,,,70,64
56632,note_off,,,,,1,0,1,,,0,,,77,64
56633,note_off,,,,,1,0,1,,,0,,,65,64
56640,note_on,,,,,7,0,1,,,0,,,65,73
56640,note_off,,,,,80,0,2,,,1,,,53,64
56640,note_on,,,,,0,0,2,,,1,,,46,75
56650,note_on,,,,,10,0,1,,,0,,,72,71
56660,note_on,,,,,10,0,1,,,0,,,77,73
56720,note_on,,,,,80,0,2,,,1,,,57,67
56720,note_on,,,,,0,0,2,,,1,,,63,73
56760,note_off,,,,,40,0,2,,,1,,,46,64
56800,note_off,,,,,40,0,2,,,1,,,63,64
56800,note_off,,,,,0,0,2,,,1,,,57,64
56800,note_on,,,,,0,0,2,,,1,,,53,75
56880,note_on,,,,,0,0,2,,,1,,,46,69
56880,note_off,,,,,80,0,2,,,1,,,53,64
56960,note_on,,,,,0,0,2,,,1,,,57,74
56960,note_on,,,,,80,0,2,,,1,,,63,73
57000,note_off,,,,,40,0,2,,,1,,,46,64
57040,note_on,,,,,0,0,2,,,1,,,53,71
57040,note_off,,,,,0,0,2,,,1,,,63,64
57040,note_off,,,,,40,0,2,,,1,,,57,64
57120,note_on,,,,,0,0,2,,,1,,,46,72
57120,note_off,,,,,80,0,2,,,1,,,53,64
57200,note_on,,,,,80,0,2,,,1,,,63,73
57200,note_on,,,,,0,0,2,,,1,,,58,69
57240,note_off,,,,,40,0,2,,,1,,,46,64
57280,note_off,,,,,0,0,2,,,1,,,63,64
57280,note_on,,,,,0,0,2,,,1,,,53,71
57280,note_off,,,,,40,0,2,,,1,,,58,64
57350,note_off,,,,,690,0,1,,,0,,,72,64
57350,note_off,,,,,0,0,1,,,0,,,65,64
57353,note_off,,,,,3,0,1,,,0,,,77,64
57360,note_on,,,,,0,0,2,,,1,,,46,72
57360,note_on,,,,,7,0,1,,,0,,,65,75
57360,note_off,,,,,80,0,2,,,1,,,53,64
57370,note_on,,,,,10,0,1,,,0,,,72,73
57380,note_on,,,,,10,0,1,,,0,,,77,67
57390,note_on,,,,,10,0,1,,,0,,,84,72
57440,note_on,,,,,0,0,2,,,1,,,57,73
57440,note_on,,,,,80,0,2,,,1,,,63,70
57480,note_off,,,,,40,0,2,,,1,,,46,64
57520,note_off,,,,,0,0,2,,,1,,,63,64
57520,note_on,,,,,0,0,2,,,1,,,53,71
57520,note_off,,,,,40,0,2,,,1,,,57,64
57590,note_off,,,,,0,0,1,,,0,,,65,64
57590,note_off,,,,,200,0,1,,,0,,,84,64
57591,note_off,,,,,1,0,1,,,0,,,77,64
57591,note_off,,,,,0,0,1,,,0,,,72,64
57600,note_off,,,,,80,0,2,,,1,,,53,64
57600,note_on,,,,,9,0,1,,,0,,,65,73
57600,note_on,,,,,0,0,2,,,1,,,46,72
57610,note_on,,,,,10,0,1,,,0,,,74,72
57620,note_on,,,,,10,0,1,,,0,,,77,74
57630,note_on,,,,,10,0,1,,,0,,,86,74
57680,note_on,,,,,0,0,2,,,1,,,58,70
57680,note_on,,,,,80,0,2,,,1,,,62,75
57720,note_off,,,,,40,0,2,,,1,,,46,64
57760,note_on,,,,,0,0,2,,,1,,,53,72
57760,note_off,,,,,40,0,2,,,1,,,58,64
57760,note_off,,,,,0,0,2,,,1,,,62,64
57840,note_off,,,,,80,0,2,,,1,,,53,64
57840,note_on,,,,,0,0,2,,,1,,,46,69
57920,note_on,,,,,80,0,2,,,1,,,58,74
57920,note_on,,,,,0,0,2,,,1,,,62,75
57960,note_off,,,,,40,0,2,,,1,,,46,64
58000,note_off,,,,,0,0,2,,,1,,,58,64
58000,note_off,,,,,40,0,2,,,1,,,62,64
58000,note_on,,,,,0,0,2,,,1,,,53,69
58080,note_on,,,,,0,0,2,,,1,,,46,77
58080,note_off,,,,,80,0,2,,,1,,,53,64
58160,note_on,,,,,0,0,2,,,1,,,62,71
58160,note_on,,,,,80,0,2,,,1,,,58,70
58200,note_off,,,,,40,0,2,,,1,,,46,64
58240,note_off,,,,,40,0,2,,,1,,,62,64
58240,note_off,,,,,0,0,2,,,1,,,58,64
58240,note_on,,,,,0,0,2,,,1,,,53,74
58311,note_off,,,,,681,0,1,,,0,,,74,64
58312,note_off,,,,,0,0,1,,,0,,,65,64
58312,note_off,,,,,1,0,1,,,0,,,86,64
58313,note_off,,,,,1,0,1,,,0,,,77,64
58320,note_on,,,,,7,0,1,,,0,,,65,67
58320,note_on,,,,,0,0,2,,,1,,,46,67
58320,note_off,,,,,80,0,2,,,1,,,53,64
58330,note_on,,,,,10,0,1,,,0,,,70,71
58340,note_on,,,,,10,0,1,,,0,,,77,67
58350,note_on,,,,,10,0,1,,,0,,,82,71
58400,note_on,,,,,80,0,2,,,1,,,62,72
58400,note_on,,,,,0,0,2,,,1,,,58,71
58440,note_off,,,,,40,0,2,,,1,,,46,64
58480,note_on,,,,,0,0,2,,,1,,,53,70
58480,note_off,,,,,0,0,2,,,1,,,62,64
58480,note_off,,,,,40,0,2,,,1,,,58,64
58552,note_off,,,,,202,0,1,,,0,,,65,64
58553,note_off,,,,,1,0,1,,,0,,,82,64
58553,note_off,,,,,0,0,1,,,0,,,77,64
58554,note_off,,,,,1,0,1,,,0,,,70,64
58560,note_off,,,,,80,0,2,,,1,,,53,64
58560,note_on,,,,,0,0,2,,,1,,,46,76
58560,note_on,,,,,6,0,1,,,0,,,65,72
58570,note_on,,,,,10,0,1,,,0,,,72,73
58580,note_on,,,,,10,0,1,,,0,,,77,78
58640,note_on,,,,,0,0,2,,,1,,,57,72
58640,note_off,,,,,80,0,2,,,1,,,46,64
58640,note_on,,,,,0,0,2,,,1,,,63,75
58720,note_off,,,,,80,0,2,,,1,,,63,64
58720,note_off,,,,,0,0,2,,,1,,,57,64
58720,note_on,,,,,0,0,2,,,1,,,53,73
58800,note_off,,,,,80,0,2,,,1,,,53,64
58800,note_on,,,,,0,0,2,,,1,,,46,75
58880,note_on,,,,,0,0,2,,,1,,,63,74
58880,note_on,,,,,80,0,2,,,1,,,57,67
58920,note_off,,,,,40,0,2,,,1,,,46,64
58960,note_off,,,,,40,0,2,,,1,,,63,64
58960,note_off,,,,,0,0,2,,,1,,,57,64
58960,note_on,,,,,0,0,2,,,1,,,53,70
59040,note_off,,,,,80,0,2,,,1,,,53,64
59040,note_on,,,,,0,0,2,,,1,,,46,74
59120,note_on,,,,,80,0,2,,,1,,,57,74
59120,note_on,,,,,0,0,2,,,1,,,63,71
59160,note_off,,,,,40,0,2,,,1,,,46,64
59200,note_on,,,,,0,0,2,,,1,,,53,75
59200,note_off,,,,,0,0,2,,,1,,,57,64
59200,note_off,,,,,40,0,2,,,1,,,63,64
59270,note_off,,,,,690,0,1,,,0,,,72,64
59271,note_off,,,,,1,0,1,,,0,,,77,64
59272,note_off,,,,,1,0,1,,,0,,,65,64
59280,note_on,,,,,8,0,1,,,0,,,65,68
59280,note_on,,,,,0,0,2,,,1,,,46,72
59280,note_off,,,,,80,0,2,,,1,,,53,64
59290,note_on,,,,,10,0,1,,,0,,,72,68
59300,note_on,,,,,10,0,1,,,0,,,77,74
59310,note_on,,,,,10,0,1,,,0,,,84,69
59360,note_on,,,,,80,0,2,,,1,,,57,75
59360,note_on,,,,,0,0,2,,,1,,,63,73
59400,note_off,,,,,40,0,2,,,1,,,46,64
59440,note_on,,,,,0,0,2,,,1,,,53,71
59440,note_off,,,,,0,0,2,,,1,,,57,64
59440,note_off,,,,,40,0,2,,,1,,,63,64
59510,note_off,,,,,200,0,1,,,0,,,65,64
59512,note_off,,,,,2,0,1,,,0,,,84,64
59513,note_off,,,,,1,0,1,,,0,,,72,64
59514,note_off,,,,,1,0,1,,,0,,,77,64
59520,note_off,,,,,80,0,2,,,1,,,53,64
59520,note_on,,,,,0,0,2,,,1,,,46,76
59520,note_on,,,,,6,0,1,,,0,,,65,76
59530,note_on,,,,,10,0,1,,,0,,,74,71
59540,note_on,,,,,10,0,1,,,0,,,77,73
59550,note_on,,,,,10,0,1,,,0,,,86,74
59600,note_off,,,,,80,0,2,,,1,,,46,64
59600,note_on,,,,,0,0,2,,,1,,,62,71
59600,note_on,,,,,0,0,2,,,1,,,58,75
59680,note_off,,,,,0,0,2,,,1,,,58,64
59680,note_on,,,,,0,0,2,,,1,,,53,72
59680,note_off,,,,,80,0,2,,,1,,,62,64
59760,note_off,,,,,80,0,2,,,1,,,53,64
59760,note_on,,,,,0,0,2,,,1,,,46,72
59840,note_on,,,,,0,0,2,,,1,,,62,74
59840,note_on,,,,,0,0,2,,,1,,,58,73
59840,note_off,,,,,80,0,2,,,1,,,46,64
59920,note_off,,,,,80,0,2,,,1,,,58,64
59920,note_on,,,,,0,0,2,,,1,,,53,71
59920,note_off,,,,,0,0,2,,,1,,,62,64
60000,note_off,,,,,80,0,2,,,1,,,53,64
60000,note_on,,,,,0,0,2,,,1,,,46,69
60080,note_off,,,,,80,0,2,,,1,,,46,64
60080,note_on,,,,,0,0,2,,,1,,,58,70
60080,note_on,,,,,0,0,2,,,1,,,62,73
60160,note_off,,,,,80,0,2,,,1,,,58,64
60160,note_off,,,,,0,0,2,,,1,,,62,64
60160,note_on,,,,,0,0,2,,,1,,,53,72
60230,note_off,,,,,680,0,1,,,0,,,77,64
60231,note_off,,,,,1,0,1,,,0,,,65,64
60232,note_off,,,,,0,0,1,,,0,,,74,64
60232,note_off,,,,,1,0,1,,,0,,,86,64
60240,note_on,,,,,8,0,1,,,0,,,65,73
60240,note_on,,,,,0,0,2,,,1,,,46,68
60240,note_off,,,,,80,0,2,,,1,,,53,64
60250,note_on,,,,,10,0,1,,,0,,,70,71
60260,note_on,,,,,10,0,1,,,0,,,77,73
60270,note_on,,,,,10,0,1,,,0,,,82,73
60320,note_on,,,,,0,0,2,,,1,,,62,69
60320,note_on,,,,,0,0,2,,,1,,,58,73
60320,note_off,,,,,80,0,2,,,1,,,46,64
60400,note_on,,,,,0,0,2,,,1,,,53,69
60400,note_off,,,,,0,0,2,,,1,,,62,64
60400,note_off,,,,,80,0,2,,,1,,,58,64
60470,note_off,,,,,200,0,1,,,0,,,65,64
60471,note_off,,,,,1,0,1,,,0,,,77,64
60472,note_off,,,,,0,0,1,,,0,,,70,64
60472,note_off,,,,,1,0,1,,,0,,,82,64
60480,note_on,,,,,8,0,1,,,0,,,69,78
60480,note_off,,,,,80,0,2,,,1,,,53,64
60480,note_on,,,,,0,0,2,,,1,,,48,78
60490,note_on,,,,,10,0,1,,,0,,,77,73
60500,note_on,,,,,10,0,1,,,0,,,81,74
60510,note_on,,,,,10,0,1,,,0,,,89,76
60560,note_on,,,,,0,0,2,,,1,,,65,69
60560,note_on,,,,,0,0,2,,,1,,,60,75
60560,note_off,,,,,80,0,2,,,1,,,48,64
60640,note_off,,,,,0,0,2,,,1,,,60,64
60640,note_off,,,,,80,0,2,,,1,,,65,64
60640,note_on,,,,,0,0,2,,,1,,,57,69
60720,note_off,,,,,80,0,2,,,1,,,57,64
60720,note_on,,,,,0,0,2,,,1,,,48,68
60800,note_off,,,,,80,0,2,,,1,,,48,64
60800,note_on,,,,,0,0,2,,,1,,,65,75
60800,note_on,,,,,0,0,2,,,1,,,60,68
60880,note_on,,,,,0,0,2,,,1,,,57,75
60880,note_off,,,,,0,0,2,,,1,,,60,64
60880,note_off,,,,,80,0,2,,,1,,,65,64
60953,note_off,,,,,0,0,1,,,0,,,69,64
60953,note_off,,,,,0,0,1,,,0,,,77,64
60953,note_off,,,,,443,0,1,,,0,,,89,64
60953,note_off,,,,,0,0,1,,,0,,,81,64
60960,note_off,,,,,80,0,2,,,1,,,57,64
60960,note_on,,,,,0,0,2,,,1,,,48,77
60960,note_on,,,,,7,0,1,,,0,,,69,72
60970,note_on,,,,,10,0,1,,,0,,,77,70
60980,note_on,,,,,10,0,1,,,0,,,81,69
60990,note_on,,,,,10,0,1,,,0,,,84,73
61040,note_off,,,,,80,0,2,,,1,,,48,64
61040,note_on,,,,,0,0,2,,,1,,,65,72
61040,note_on,,,,,0,0,2,,,1,,,60,74
61120,note_off,,,,,80,0,2,,,1,,,65,64
61120,note_off,,,,,0,0,2,,,1,,,60,64
61120,note_on,,,,,0,0,2,,,1,,,57,71
61200,note_off,,,,,80,0,2,,,1,,,57,64
61200,note_on,,,,,0,0,2,,,1,,,48,72
61280,note_off,,,,,80,0,2,,,1,,,48,64
61280,note_on,,,,,0,0,2,,,1,,,60,74
61280,note_on,,,,,0,0,2,,,1,,,65,67
61360,note_off,,,,,80,0,2,,,1,,,60,64
61360,note_off,,,,,0,0,2,,,1,,,65,64
61360,note_on,,,,,0,0,2,,,1,,,57,71
61430,note_off,,,,,440,0,1,,,0,,,84,64
61430,note_off,,,,,0,0,1,,,0,,,69,64
61433,note_off,,,,,3,0,1,,,0,,,81,64
61434,note_off,,,,,1,0,1,,,0,,,77,64
61440,note_off,,,,,80,0,2,,,1,,,57,64
61440,note_on,,,,,6,0,1,,,0,,,70,77
61440,note_on,,,,,0,0,2,,,1,,,48,75
61450,note_on,,,,,10,0,1,,,0,,,76,78
61460,note_on,,,,,10,0,1,,,0,,,79,75
61470,note_on,,,,,10,0,1,,,0,,,84,74
61520,note_on,,,,,0,0,2,,,1,,,64,67
61520,note_off,,,,,80,0,2,,,1,,,48,64
61520,note_on,,,,,0,0,2,,,1,,,58,69
61600,note_off,,,,,0,0,2,,,1,,,58,64
61600,note_on,,,,,0,0,2,,,1,,,55,75
61600,note_off,,,,,80,0,2,,,1,,,64,64
61670,note_off,,,,,200,0,1,,,0,,,79,64
61671,note_off,,,,,1,0,1,,,0,,,70,64
61672,note_off,,,,,1,0,1,,,0,,,76,64
61674,note_off,,,,,2,0,1,,,0,,,84,64
61680,note_on,,,,,6,0,1,,,0,,,70,68
61680,note_on,,,,,0,0,2,,,1,,,48,72
61680,note_off,,,,,80,0,2,,,1,,,55,64
61690,note_on,,,,,10,0,1,,,0,,,76,67
61700,note_on,,,,,10,0,1,,,0,,,79,73
61710,note_on,,,,,10,0,1,,,0,,,83,67
61753,note_off,,,,,43,0,1,,,0,,,83,64
61760,note_on,,,,,0,0,2,,,1,,,64,70
61760,note_on,,,,,0,0,2,,,1,,,58,74
61760,note_on,,,,,7,0,1,,,0,,,84,73
61760,note_off,,,,,80,0,2,,,1,,,48,64
61833,note_off,,,,,73,0,1,,,0,,,84,64
61840,note_off,,,,,0,0,2,,,1,,,64,64
61840,note_on,,,,,7,0,1,,,0,,,86,75
61840,note_off,,,,,80,0,2,,,1,,,58,64
61840,note_on,,,,,0,0,2,,,1,,,55,73
61914,note_off,,,,,74,0,1,,,0,,,86,64
61920,note_on,,,,,6,0,1,,,0,,,84,70
61920,note_off,,,,,80,0,2,,,1,,,55,64
61920,note_on,,,,,0,0,2,,,1,,,48,76
62000,note_on,,,,,0,0,2,,,1,,,64,74
62000,note_off,,,,,80,0,2,,,1,,,48,64
62000,note_on,,,,,0,0,2,,,1,,,58,69
62080,note_off,,,,,80,0,2,,,1,,,58,64
62080,note_off,,,,,0,0,2,,,1,,,64,64
62080,note_on,,,,,0,0,2,,,1,,,55,68
62151,note_off,,,,,231,0,1,,,0,,,84,64
62152,note_off,,,,,1,0,1,,,0,,,70,64
62153,note_off,,,,,0,0,1,,,0,,,76,64
62153,note_off,,,,,1,0,1,,,0,,,79,64
62160,note_on,,,,,0,0,2,,,1,,,48,67
62160,note_on,,,,,7,0,1,,,0,,,60,73
62160,note_off,,,,,80,0,2,,,1,,,55,64
62170,note_on,,,,,10,0,1,,,0,,,67,75
62180,note_on,,,,,10,0,1,,,0,,,70,71
62190,note_on,,,,,10,0,1,,,0,,,76,74
62240,note_off,,,,,80,0,2,,,1,,,48,64
62240,note_on,,,,,0,0,2,,,1,,,58,68
62240,note_on,,,,,0,0,2,,,1,,,64,67
62320,note_off,,,,,0,0,2,,,1,,,58,64
62320,note_on,,,,,0,0,2,,,1,,,55,67
62320,note_off,,,,,80,0,2,,,1,,,64,64
62390,note_off,,,,,200,0,1,,,0,,,76,64
62391,note_off,,,,,1,0,1,,,0,,,70,64
62394,note_off,,,,,3,0,1,,,0,,,67,64
62394,note_off,,,,,0,0,1,,,0,,,60,64
62400,note_on,,,,,6,0,1,,,0,,,65,76
62400,note_on,,,,,0,0,2,,,1,,,41,78
62400,note_off,,,,,80,0,2,,,1,,,55,64
62410,note_on,,,,,10,0,1,,,0,,,69,78
62420,note_on,,,,,10,0,1,,,0,,,77,79
62480,note_on,,,,,0,0,2,,,1,,,57,71
62480,note_on,,,,,0,0,2,,,1,,,60,68
62480,note_off,,,,,80,0,2,,,1,,,41,64
62560,note_off,,,,,80,0,2,,,1,,,57,64
62560,note_on,,,,,0,0,2,,,1,,,53,73
62560,note_off,,,,,0,0,2,,,1,,,60,64
62640,note_on,,,,,0,0,2,,,1,,,41,67
62640,note_off,,,,,80,0,2,,,1,,,53,64
62720,note_off,,,,,80,0,2,,,1,,,41,64
62720,note_on,,,,,0,0,2,,,1,,,60,74
62720,note_on,,,,,0,0,2,,,1,,,57,70
62800,note_off,,,,,80,0,2,,,1,,,57,64
62800,note_on,,,,,0,0,2,,,1,,,53,67
62800,note_off,,,,,0,0,2,,,1,,,60,64
62880,note_off,,,,,80,0,2,,,1,,,53,64
62880,note_on,,,,,0,0,2,,,1,,,41,75
62960,note_on,,,,,0,0,2,,,1,,,60,74
62960,note_off,,,,,80,0,2,,,1,,,41,64
62960,note_on,,,,,0,0,2,,,1,,,57,67
63040,note_off,,,,,80,0,2,,,1,,,57,64
63040,note_on,,,,,0,0,2,,,1,,,53,68
63040,note_off,,,,,0,0,2,,,1,,,60,64
63110,note_off,,,,,690,0,1,,,0,,,65,64
63114,note_off,,,,,0,0,1,,,0,,,69,64
63114,note_off,,,,,4,0,1,,,0,,,77,64
63120,note_on,,,,,0,0,1,,,0,,,77,67
63120,note_off,,,,,80,0,2,,,1,,,53,64
63120,note_on,,,,,0,0,2,,,1,,,41,75
63120,note_on,,,,,6,0,1,,,0,,,65,68
63200,note_on,,,,,0,0,2,,,1,,,60,68
63200,note_off,,,,,80,0,2,,,1,,,41,64
63200,note_on,,,,,0,0,2,,,1,,,57,74
63280,note_off,,,,,80,0,2,,,1,,,57,64
63280,note_on,,,,,0,0,2,,,1,,,53,71
63280,note_off,,,,,0,0,2,,,1,,,60,64
63350,note_off,,,,,230,0,1,,,0,,,77,64
63352,note_off,,,,,2,0,1,,,0,,,65,64
63360,note_off,,,,,80,0,2,,,1,,,53,64
63360,note_on,,,,,8,0,1,,,0,,,65,74
63360,note_on,,,,,0,0,2,,,1,,,41,79
63370,note_on,,,,,10,0,1,,,0,,,72,76
63380,note_on,,,,,10,0,1,,,0,,,77,78
63390,note_on,,,,,10,0,1,,,0,,,84,73
63440,note_on,,,,,0,0,2,,,1,,,63,72
63440,note_off,,,,,80,0,2,,,1,,,41,64
63440,note_on,,,,,0,0,2,,,1,,,57,69
63520,note_on,,,,,0,0,2,,,1,,,53,75
63520,note_off,,,,,80,0,2,,,1,,,57,64
63520,note_off,,,,,0,0,2,,,1,,,63,64
63600,note_on,,,,,0,0,2,,,1,,,41,70
63600,note_off,,,,,80,0,2,,,1,,,53,64
63680,note_off,,,,,80,0,2,,,1,,,41,64
63680,note_on,,,,,0,0,2,,,1,,,57,73
63680,note_on,,,,,0,0,2,,,1,,,63,69
63760,note_off,,,,,80,0,2,,,1,,,57,64
63760,note_off,,,,,0,0,2,,,1,,,63,64
63760,note_on,,,,,0,0,2,,,1,,,53,71
63840,note_off,,,,,80,0,2,,,1,,,53,64
63840,note_on,,,,,0,0,2,,,1,,,41,74
63920,note_on,,,,,0,0,2,,,1,,,63,67
63920,note_off,,,,,80,0,2,,,1,,,41,64
63920,note_on,,,,,0,0,2,,,1,,,57,72
64000,note_off,,,,,80,0,2,,,1,,,57,64
64000,note_off,,,,,0,0,2,,,1,,,63,64
64000,note_on,,,,,0,0,2,,,1,,,53,73
64070,note_off,,,,,680,0,1,,,0,,,65,64
64071,note_off,,,,,0,0,1,,,0,,,72,64
64071,note_off,,,,,1,0,1,,,0,,,77,64
64072,note_off,,,,,1,0,1,,,0,,,84,64
64080,note_off,,,,,80,0,2,,,1,,,53,64
64080,note_on,,,,,0,0,2,,,1,,,41,69
64080,note_on,,,,,8,0,1,,,0,,,65,70
64090,note_on,,,,,10,0,1,,,0,,,73,72
64100,note_on,,,,,10,0,1,,,0,,,77,69
64110,note_on,,,,,10,0,1,,,0,,,85,69
64160,note_on,,,,,0,0,2,,,1,,,57,72
64160,note_on,,,,,0,0,2,,,1,,,63,70
64160,note_off,,,,,80,0,2,,,1,,,41,64
64240,note_off,,,,,80,0,2,,,1,,,57,64
64240,note_off,,,,,0,0,2,,,1,,,63,64
64240,note_on,,,,,0,0,2,,,1,,,53,72
64312,note_off,,,,,202,0,1,,,0,,,77,64
64313,note_off,,,,,1,0,1,,,0,,,65,64
64314,note_off,,,,,0,0,1,,,0,,,73,64
64314,note_off,,,,,1,0,1,,,0,,,85,64
64320,note_on,,,,,0,0,2,,,1,,,46,73
64320,note_on,,,,,6,0,1,,,0,,,65,73
64320,note_off,,,,,80,0,2,,,1,,,53,64
64330,note_on,,,,,10,0,1,,,0,,,74,73
64340,note_on,,,,,10,0,1,,,0,,,77,75
64350,note_on,,,,,10,0,1,,,0,,,86,72
64400,note_on,,,,,0,0,2,,,1,,,58,71
64400,note_on,,,,,0,0,2,,,1,,,62,70
64400,note_off,,,,,80,0,2,,,1,,,46,64
64480,note_off,,,,,0,0,2,,,1,,,62,64
64480,note_off,,,,,80,0,2,,,1,,,58,64
64480,note_on,,,,,0,0,2,,,1,,,53,68
64560,note_on,,,,,0,0,2,,,1,,,46,68
64560,note_off,,,,,80,0,2,,,1,,,53,64
64640,note_on,,,,,0,0,2,,,1,,,62,72
64640,note_on,,,,,0,0,2,,,1,,,58,72
64640,note_off,,,,,80,0,2,,,1,,,46,64
64720,note_on,,,,,0,0,2,,,1,,,53,70
64720,note_off,,,,,0,0,2,,,1,,,62,64
64720,note_off,,,,,80,0,2,,,1,,,58,64
64791,note_off,,,,,0,0,1,,,0,,,77,64
64791,note_off,,,,,441,0,1,,,0,,,86,64
64792,note_off,,,,,1,0,1,,,0,,,65,64
64794,note_off,,,,,2,0,1,,,0,,,74,64
64800,note_on,,,,,6,0,1,,,0,,,65,77
64800,note_on,,,,,0,0,2,,,1,,,46,71
64800,note_off,,,,,80,0,2,,,1,,,53,64
64810,note_on,,,,,10,0,1,,,0,,,70,71
64820,note_on,,,,,10,0,1,,,0,,,77,69
64830,note_on,,,,,10,0,1,,,0,,,82,74
64880,note_on,,,,,0,0,2,,,1,,,58,71
64880,note_off,,,,,80,0,2,,,1,,,46,64
64880,note_on,,,,,0,0,2,,,1,,,62,68
64960,note_off,,,,,80,0,2,,,1,,,58,64
64960,note_on,,,,,0,0,2,,,1,,,53,67
64960,note_off,,,,,0,0,2,,,1,,,62,64
65030,note_off,,,,,200,0,1,,,0,,,65,64
65031,note_off,,,,,0,0,1,,,0,,,77,64
65031,note_off,,,,,1,0,1,,,0,,,82,64
65032,note_off,,,,,1,0,1,,,0,,,70,64
65040,note_on,,,,,0,0,2,,,1,,,46,71
65040,note_off,,,,,80,0,2,,,1,,,53,64
65040,note_on,,,,,8,0,1,,,0,,,70,75
65050,note_on,,,,,10,0,1,,,0,,,77,73
65060,note_on,,,,,10,0,1,,,0,,,82,72
65120,note_on,,,,,0,0,2,,,1,,,58,68
65120,note_off,,,,,80,0,2,,,1,,,46,64
65120,note_on,,,,,0,0,2,,,1,,,62,71
65153,note_off,,,,,93,0,1,,,0,,,77,64
65154,note_off,,,,,0,0,1,,,0,,,70,64
65154,note_off,,,,,1,0,1,,,0,,,82,64
65160,note_on,,,,,0,0,1,,,0,,,71,75
65160,note_on,,,,,6,0,1,,,0,,,83,70
65200,note_off,,,,,0,0,2,,,1,,,62,64
65200,note_on,,,,,0,0,2,,,1,,,53,69
65200,note_off,,,,,80,0,2,,,1,,,58,64
65271,note_off,,,,,111,0,1,,,0,,,83,64
65272,note_off,,,,,1,0,1,,,0,,,71,64
65280,note_off,,,,,80,0,2,,,1,,,53,64
65280,note_on,,,,,0,0,2,,,1,,,46,73
65280,note_on,,,,,8,0,1,,,0,,,65,73
65290,note_on,,,,,10,0,1,,,0,,,72,77
65300,note_on,,,,,10,0,1,,,0,,,77,75
65310,note_on,,,,,10,0,1,,,0,,,84,72
65360,note_on,,,,,0,0,2,,,1,,,63,70
65360,note_off,,,,,80,0,2,,,1,,,46,64
65360,note_on,,,,,0,0,2,,,1,,,57,67
65440,note_off,,,,,0,0,2,,,1,,,63,64
65440,note_on,,,,,0,0,2,,,1,,,53,73
65440,note_off,,,,,80,0,2,,,1,,,57,64
65520,note_on,,,,,0,0,2,,,1,,,46,68
65520,note_off,,,,,80,0,2,,,1,,,53,64
65600,note_on,,,,,0,0,2,,,1,,,63,70
65600,note_on,,,,,0,0,2,,,1,,,57,70
65600,note_off,,,,,80,0,2,,,1,,,46,64
65680,note_off,,,,,80,0,2,,,1,,,57,64
65680,note_on,,,,,0,0,2,,,1,,,53,73
65680,note_off,,,,,0,0,2,,,1,,,63,64
65760,note_off,,,,,80,0,2,,,1,,,53,64
65760,note_on,,,,,0,0,2,,,1,,,46,76
65840,note_off,,,,,80,0,2,,,1,,,46,64
65840,note_on,,,,,0,0,2,,,1,,,63,71
65840,note_on,,,,,0,0,2,,,1,,,57,70
65920,note_on,,,,,0,0,2,,,1,,,53,68
65920,note_off,,,,,80,0,2,,,1,,,57,64
65920,note_off,,,,,0,0,2,,,1,,,63,64
65990,note_off,,,,,680,0,1,,,0,,,72,64
65991,note_off,,,,,1,0,1,,,0,,,84,64
65993,note_off,,,,,2,0,1,,,0,,,77,64
65994,note_off,,,,,1,0,1,,,0,,,65,64
66000,note_on,,,,,6,0,1,,,0,,,65,69
66000,note_off,,,,,80,0,2,,,1,,,53,64
66000,note_on,,,,,0,0,2,,,1,,,46,75
66010,note_on,,,,,10,0,1,,,0,,,72,71
66020,note_on,,,,,10,0,1,,,0,,,77,73
66080,note_on,,,,,0,0,2,,,1,,,57,68
66080,note_on,,,,,0,0,2,,,1,,,63,75
66080,note_off,,,,,80,0,2,,,1,,,46,64
66160,note_off,,,,,0,0,2,,,1,,,63,64
66160,note_on,,,,,0,0,2,,,1,,,53,72
66160,note_off,,,,,80,0,2,,,1,,,57,64
66231,note_off,,,,,211,0,1,,,0,,,72,64
66232,note_off,,,,,1,0,1,,,0,,,65,64
66233,note_off,,,,,1,0,1,,,0,,,77,64
66240,note_on,,,,,0,0,2,,,1,,,46,79
66240,note_off,,,,,80,0,2,,,1,,,53,64
66240,note_on,,,,,7,0,1,,,0,,,65,72
66250,note_on,,,,,10,0,1,,,0,,,74,72
66260,note_on,,,,,10,0,1,,,0,,,77,78
66270,note_on,,,,,10,0,1,,,0,,,86,73
66320,note_off,,,,,80,0,2,,,1,,,46,64
66320,note_on,,,,,0,0,2,,,1,,,58,72
66320,note_on,,,,,0,0,2,,,1,,,62,72
66400,note_off,,,,,80,0,2,,,1,,,58,64
66400,note_on,,,,,0,0,2,,,1,,,53,75
66400,note_off,,,,,0,0,2,,,1,,,62,64
66480,note_off,,,,,80,0,2,,,1,,,53,64
66480,note_on,,,,,0,0,2,,,1,,,46,73
66560,note_off,,,,,80,0,2,,,1,,,46,64
66560,note_on,,,,,0,0,2,,,1,,,58,70
66560,note_on,,,,,0,0,2,,,1,,,62,67
66640,note_off,,,,,0,0,2,,,1,,,62,64
66640,note_off,,,,,80,0,2,,,1,,,58,64
66640,note_on,,,,,0,0,2,,,1,,,53,69
66720,note_on,,,,,0,0,2,,,1,,,46,69
66720,note_off,,,,,80,0,2,,,1,,,53,64
66800,note_off,,,,,80,0,2,,,1,,,46,64
66800,note_on,,,,,0,0,2,,,1,,,62,75
66800,note_on,,,,,0,0,2,,,1,,,58,75
66880,note_off,,,,,0,0,2,,,1,,,62,64
66880,note_off,,,,,80,0,2,,,1,,,58,64
66880,note_on,,,,,0,0,2,,,1,,,53,71
66950,note_off,,,,,680,0,1,,,0,,,74,64
66951,note_off,,,,,1,0,1,,,0,,,65,64
66952,note_off,,,,,1,0,1,,,0,,,86,64
66954,note_off,,,,,2,0,1,,,0,,,77,64
66960,note_off,,,,,80,0,2,,,1,,,53,64
66960,note_on,,,,,6,0,1,,,0,,,74,71
66960,note_on,,,,,0,0,2,,,1,,,46,72
66970,note_on,,,,,10,0,1,,,0,,,77,74
66980,note_on,,,,,10,0,1,,,0,,,86,75
67040,note_off,,,,,80,0,2,,,1,,,46,64
67040,note_on,,,,,0,0,2,,,1,,,62,70
67040,note_on,,,,,0,0,2,,,1,,,58,70
67072,note_off,,,,,92,0,1,,,0,,,86,64
67080,note_on,,,,,8,0,1,,,0,,,82,75
67080,note_on,,,,,0,0,1,,,0,,,86,67
67120,note_on,,,,,0,0,2,,,1,,,53,67
67120,note_off,,,,,0,0,2,,,1,,,62,64
67120,note_off,,,,,80,0,2,,,1,,,58,64
67190,note_off,,,,,110,0,1,,,0,,,82,64
67192,note_off,,,,,2,0,1,,,0,,,86,64
67194,note_off,,,,,2,0,1,,,0,,,77,64
67194,note_off,,,,,0,0,1,,,0,,,74,64
67200,note_off,,,,,80,0,2,,,1,,,53,64
67200,note_on,,,,,6,0,1,,,0,,,74,79
67200,note_on,,,,,0,0,2,,,1,,,43,76
67210,note_on,,,,,10,0,1,,,0,,,79,76
67220,note_on,,,,,10,0,1,,,0,,,83,71
67230,note_on,,,,,10,0,1,,,0,,,91,72
67280,note_off,,,,,80,0,2,,,1,,,43,64
67280,note_on,,,,,0,0,2,,,1,,,59,68
67280,note_on,,,,,0,0,2,,,1,,,62,68
67360,note_on,,,,,0,0,2,,,1,,,55,73
67360,note_off,,,,,0,0,2,,,1,,,62,64
67360,note_off,,,,,80,0,2,,,1,,,59,64
67440,note_on,,,,,0,0,2,,,1,,,43,74
67440,note_off,,,,,80,0,2,,,1,,,55,64
67520,note_on,,,,,0,0,2,,,1,,,62,70
67520,note_on,,,,,0,0,2,,,1,,,59,73
67520,note_off,,,,,80,0,2,,,1,,,43,64
67554,note_off,,,,,324,0,1,,,0,,,91,64
67560,note_on,,,,,6,0,1,,,0,,,89,74
67600,note_on,,,,,0,0,2,,,1,,,55,74
67600,note_off,,,,,0,0,2,,,1,,,62,64
67600,note_off,,,,,80,0,2,,,1,,,59,64
67672,note_off,,,,,112,0,1,,,0,,,89,64
67673,note_off,,,,,1,0,1,,,0,,,74,64
67674,note_off,,,,,0,0,1,,,0,,,79,64
67674,note_off,,,,,1,0,1,,,0,,,83,64
67680,note_on,,,,,6,0,1,,,0,,,79,76
67680,note_off,,,,,80,0,2,,,1,,,55,64
67680,note_on,,,,,0,0,2,,,1,,,48,75
67690,note_on,,,,,10,0,1,,,0,,,72,70
67700,note_on,,,,,10,0,1,,,0,,,89,69
67760,note_off,,,,,80,0,2,,,1,,,48,64
67760,note_on,,,,,0,0,2,,,1,,,60,72
67760,note_on,,,,,0,0,2,,,1,,,63,68
67792,note_off,,,,,92,0,1,,,0,,,89,64
67800,note_on,,,,,8,0,1,,,0,,,87,67
67840,note_off,,,,,0,0,2,,,1,,,63,64
67840,note_off,,,,,80,0,2,,,1,,,60,64
67840,note_on,,,,,0,0,2,,,1,,,55,70
67910,note_off,,,,,110,0,1,,,0,,,72,64
67910,note_off,,,,,0,0,1,,,0,,,79,64
67914,note_off,,,,,4,0,1,,,0,,,87,64
67920,note_on,,,,,0,0,2,,,1,,,48,74
67920,note_on,,,,,6,0,1,,,0,,,79,67
67920,note_off,,,,,80,0,2,,,1,,,55,64
67920,note_on,,,,,0,0,1,,,0,,,75,70
67920,note_on,,,,,0,0,1,,,0,,,86,73
68000,note_on,,,,,0,0,2,,,1,,,60,72
68000,note_on,,,,,0,0,2,,,1,,,63,74
68000,note_off,,,,,80,0,2,,,1,,,48,64
68032,note_off,,,,,112,0,1,,,0,,,86,64
68040,note_on,,,,,8,0,1,,,0,,,84,68
68080,note_off,,,,,0,0,2,,,1,,,63,64
68080,note_off,,,,,80,0,2,,,1,,,60,64
68080,note_on,,,,,0,0,2,,,1,,,55,75
68151,note_off,,,,,111,0,1,,,0,,,84,64
68152,note_off,,,,,1,0,1,,,0,,,79,64
68153,note_off,,,,,1,0,1,,,0,,,75,64
68160,note_on,,,,,0,0,2,,,1,,,41,76
68160,note_on,,,,,0,0,1,,,0,,,70,75
68160,note_on,,,,,7,0,1,,,0,,,82,73
68160,note_on,,,,,0,0,1,,,0,,,74,78
68160,note_on,,,,,0,0,1,,,0,,,65,77
68160,note_off,,,,,80,0,2,,,1,,,55,64
68240,note_on,,,,,0,0,2,,,1,,,62,72
68240,note_on,,,,,0,0,2,,,1,,,58,70
68240,note_off,,,,,80,0,2,,,1,,,41,64
68320,note_off,,,,,80,0,2,,,1,,,58,64
68320,note_off,,,,,0,0,2,,,1,,,62,64
68320,note_on,,,,,0,0,2,,,1,,,53,73
68400,note_on,,,,,0,0,2,,,1,,,41,70
68400,note_off,,,,,80,0,2,,,1,,,53,64
68480,note_on,,,,,0,0,2,,,1,,,62,70
68480,note_off,,,,,80,0,2,,,1,,,41,64
68480,note_on,,,,,0,0,2,,,1,,,58,72
68560,note_off,,,,,0,0,2,,,1,,,62,64
68560,note_on,,,,,0,0,2,,,1,,,53,71
68560,note_off,,,,,80,0,2,,,1,,,58,64
68630,note_off,,,,,470,0,1,,,0,,,65,64
68631,note_off,,,,,1,0,1,,,0,,,74,64
68634,note_off,,,,,3,0,1,,,0,,,70,64
68640,note_on,,,,,0,0,2,,,1,,,41,72
68640,note_off,,,,,80,0,2,,,1,,,53,64
68720,note_on,,,,,0,0,2,,,1,,,63,67
68720,note_off,,,,,80,0,2,,,1,,,41,64
68720,note_on,,,,,0,0,2,,,1,,,57,74
68753,note_off,,,,,119,0,1,,,0,,,82,64
68760,note_on,,,,,7,0,1,,,0,,,84,71
68800,note_on,,,,,0,0,2,,,1,,,53,74
68800,note_off,,,,,0,0,2,,,1,,,63,64
68800,note_off,,,,,80,0,2,,,1,,,57,64
68874,note_off,,,,,114,0,1,,,0,,,84,64
68880,note_on,,,,,6,0,1,,,0,,,69,75
68880,note_on,,,,,0,0,2,,,1,,,41,71
68880,note_off,,,,,80,0,2,,,1,,,53,64
68890,note_on,,,,,10,0,1,,,0,,,75,68
68900,note_on,,,,,10,0,1,,,0,,,77,73
68910,note_on,,,,,10,0,1,,,0,,,86,75
68960,note_off,,,,,80,0,2,,,1,,,41,64
68960,note_on,,,,,0,0,2,,,1,,,63,75
68960,note_on,,,,,0,0,2,,,1,,,57,70
68991,note_off,,,,,81,0,1,,,0,,,86,64
69000,note_on,,,,,9,0,1,,,0,,,84,71
69040,note_off,,,,,80,0,2,,,1,,,57,64
69040,note_on,,,,,0,0,2,,,1,,,53,74
69040,note_off,,,,,0,0,2,,,1,,,63,64
69110,note_off,,,,,0,0,1,,,0,,,69,64
69110,note_off,,,,,110,0,1,,,0,,,84,64
69111,note_off,,,,,1,0,1,,,0,,,77,64
69112,note_off,,,,,1,0,1,,,0,,,75,64
69120,note_on,,,,,0,0,2,,,1,,,58,95
69120,control_change,,,,,0,0,1,,,0,7,101,,
69120,control_change,,,,,0,0,2,,,1,7,101,,
69120,note_on,,,,,0,0,2,,,1,,,53,92
69120,note_on,,,,,0,0,2,,,1,,,46,98
69120,note_off,,,,,80,0,2,,,1,,,53,64
69120,note_on,,,,,8,0,1,,,0,,,82,94
69120,set_tempo,,,,,38400,1,0,454545,,,,,,
69120,note_on,,,,,0,0,1,,,0,,,70,93
69120,note_on,,,,,0,0,1,,,0,,,74,98
69191,note_off,,,,,71,0,1,,,0,,,74,64
69191,note_off,,,,,0,0,1,,,0,,,82,64
69193,note_off,,,,,2,0,1,,,0,,,70,64
69200,note_on,,,,,7,0,1,,,0,,,62,89
69226,control_change,,,,,106,0,2,,,1,7,102,,
69226,control_change,,,,,26,0,1,,,0,7,102,,
69272,note_off,,,,,46,0,1,,,0,,,62,64
69280,note_on,,,,,8,0,1,,,0,,,74,91
69333,control_change,,,,,53,0,1,,,0,7,103,,
69333,control_change,,,,,107,0,2,,,1,7,103,,
69350,note_off,,,,,17,0,1,,,0,,,74,64
69353,note_off,,,,,0,0,2,,,1,,,53,64
69353,note_off,,,,,20,0,2,,,1,,,46,64
69354,note_off,,,,,1,0,2,,,1,,,58,64
69360,note_on,,,,,10,0,1,,,0,,,74,89
69360,note_on,,,,,6,0,2,,,1,,,50,92
69433,note_off,,,,,73,0,2,,,1,,,50,64
69434,note_off,,,,,74,0,1,,,0,,,74,64
69439,control_change,,,,,6,0,2,,,1,7,104,,
69439,control_change,,,,,5,0,1,,,0,7,104,,
69440,note_on,,,,,1,0,1,,,0,,,86,88
69440,note_on,,,,,1,0,2,,,1,,,62,87
69511,note_off,,,,,71,0,1,,,0,,,86,64
69514,note_off,,,,,74,0,2,,,1,,,62,64
69520,note_on,,,,,6,0,2,,,1,,,50,95
69520,note_on,,,,,9,0,1,,,0,,,86,93
69546,control_change,,,,,26,0,1,,,0,7,105,,
69546,control_change,,,,,26,0,2,,,1,7,105,,
69592,note_off,,,,,46,0,2,,,1,,,50,64
69592,note_off,,,,,46,0,1,,,0,,,86,64
69600,note_on,,,,,8,0,1,,,0,,,98,97
69600,note_on,,,,,8,0,2,,,1,,,62,92
69652,control_change,,,,,52,0,2,,,1,7,106,,
69652,control_change,,,,,52,0,1,,,0,7,106,,
69671,note_off,,,,,19,0,2,,,1,,,62,64
69672,note_off,,,,,20,0,1,,,0,,,98,64
69680,note_on,,,,,8,0,1,,,0,,,86,95
69680,note_on,,,,,9,0,2,,,1,,,50,89
69751,note_off,,,,,71,0,2,,,1,,,50,64
69753,note_off,,,,,73,0,1,,,0,,,86,64
69759,control_change,,,,,6,0,1,,,0,7,107,,
69759,control_change,,,,,8,0,2,,,1,7,107,,
69760,note_on,,,,,1,0,1,,,0,,,86,93
69760,note_on,,,,,1,0,2,,,1,,,62,94
69832,note_off,,,,,72,0,1,,,0,,,86,64
69833,note_off,,,,,73,0,2,,,1,,,62,64
69840,note_on,,,,,8,0,1,,,0,,,74,94
69840,note_on,,,,,7,0,2,,,1,,,47,91
69840,note_on,,,,,0,0,2,,,1,,,59,93
69840,note_on,,,,,0,0,2,,,1,,,50,98
69865,control_change,,,,,25,0,1,,,0,7,108,,
69865,control_change,,,,,25,0,2,,,1,7,108,,
69912,note_off,,,,,47,0,1,,,0,,,74,64
69920,note_on,,,,,8,0,1,,,0,,,74,87
69972,control_change,,,,,52,0,1,,,0,7,109,,
69972,control_change,,,,,107,0,2,,,1,7,109,,
69993,note_off,,,,,21,0,1,,,0,,,74,64
70000,note_on,,,,,7,0,1,,,0,,,62,95
70070,note_off,,,,,98,0,2,,,1,,,59,64
70070,note_off,,,,,70,0,1,,,0,,,62,64
70070,note_off,,,,,0,0,2,,,1,,,47,64
70071,note_off,,,,,1,0,2,,,1,,,50,64
70079,control_change,,,,,8,0,2,,,1,7,110,,
70079,control_change,,,,,9,0,1,,,0,7,110,,
70080,note_on,,,,,0,0,1,,,0,,,63,91
70080,note_on,,,,,0,0,2,,,1,,,51,101
70080,note_on,,,,,1,0,2,,,1,,,48,95
70080,note_on,,,,,0,0,2,,,1,,,60,96
70080,note_on,,,,,1,0,1,,,0,,,75,91
70160,note_on,,,,,80,0,1,,,0,,,62,94
70234,note_off,,,,,74,0,1,,,0,,,62,64
70240,note_on,,,,,6,0,1,,,0,,,62,94
70312,note_off,,,,,72,0,1,,,0,,,62,64
70320,note_on,,,,,0,0,1,,,0,,,58,94
70320,note_on,,,,,8,0,1,,,0,,,60,89
70393,note_off,,,,,73,0,1,,,0,,,58,64
70394,note_off,,,,,1,0,1,,,0,,,60,64
70400,note_on,,,,,6,0,1,,,0,,,62,89
70474,note_off,,,,,74,0,1,,,0,,,62,64
70480,note_on,,,,,6,0,1,,,0,,,62,92
70551,note_off,,,,,71,0,1,,,0,,,75,64
70551,note_off,,,,,0,0,2,,,1,,,48,64
70551,note_off,,,,,471,0,2,,,1,,,51,64
70552,note_off,,,,,1,0,2,,,1,,,60,64
70553,note_off,,,,,0,0,1,,,0,,,63,64
70553,note_off,,,,,2,0,1,,,0,,,62,64
70560,note_on,,,,,0,0,1,,,0,,,63,94
70560,note_on,,,,,8,0,2,,,1,,,45,96
70560,note_on,,,,,7,0,1,,,0,,,75,94
70560,note_on,,,,,0,0,2,,,1,,,51,92
70560,note_on,,,,,0,0,2,,,1,,,57,95
70640,note_on,,,,,80,0,1,,,0,,,62,89
70712,note_off,,,,,72,0,1,,,0,,,62,64
70720,note_on,,,,,8,0,1,,,0,,,62,90
70794,note_off,,,,,74,0,1,,,0,,,62,64
70800,note_on,,,,,0,0,1,,,0,,,60,90
70800,note_on,,,,,6,0,1,,,0,,,58,90
70873,note_off,,,,,73,0,1,,,0,,,60,64
70874,note_off,,,,,1,0,1,,,0,,,58,64
70880,note_on,,,,,0,0,1,,,0,,,62,91
70880,note_on,,,,,6,0,1,,,0,,,63,91
70910,note_off,,,,,30,0,1,,,0,,,75,64
70913,note_off,,,,,3,0,1,,,0,,,63,64
70953,note_off,,,,,40,0,1,,,0,,,63,64
70960,note_on,,,,,0,0,1,,,0,,,75,95
70960,note_on,,,,,7,0,1,,,0,,,63,94
70991,note_off,,,,,31,0,1,,,0,,,63,64
71030,note_off,,,,,470,0,2,,,1,,,45,64
71032,note_off,,,,,0,0,2,,,1,,,51,64
71032,note_off,,,,,2,0,2,,,1,,,57,64
71033,note_off,,,,,42,0,1,,,0,,,62,64
71034,note_off,,,,,1,0,1,,,0,,,75,64
71040,note_on,,,,,0,0,2,,,1,,,54,95
71040,note_on,,,,,6,0,1,,,0,,,62,95
71040,note_on,,,,,8,0,2,,,1,,,42,101
71040,note_on,,,,,0,0,1,,,0,,,75,94
71040,note_on,,,,,0,0,2,,,1,,,51,95
71112,note_off,,,,,72,0,1,,,0,,,75,64
71114,note_off,,,,,2,0,1,,,0,,,62,64
71120,note_on,,,,,6,0,1,,,0,,,62,87
71150,note_off,,,,,110,0,2,,,1,,,51,64
71151,note_off,,,,,31,0,1,,,0,,,62,64
71160,note_on,,,,,10,0,2,,,1,,,50,88
71200,note_on,,,,,49,0,1,,,0,,,74,88
71273,note_off,,,,,113,0,2,,,1,,,50,64
71273,note_off,,,,,73,0,1,,,0,,,74,64
71280,note_on,,,,,7,0,1,,,0,,,74,92
71280,note_on,,,,,7,0,2,,,1,,,50,94
71354,note_off,,,,,74,0,2,,,1,,,50,64
71360,note_on,,,,,6,0,2,,,1,,,60,94
71360,note_on,,,,,80,0,1,,,0,,,86,87
71432,note_off,,,,,72,0,2,,,1,,,60,64
71433,note_off,,,,,73,0,1,,,0,,,86,64
71440,note_on,,,,,8,0,2,,,1,,,50,94
71440,note_on,,,,,7,0,1,,,0,,,86,92
71510,note_off,,,,,70,0,2,,,1,,,42,64
71511,note_off,,,,,1,0,2,,,1,,,50,64
71513,note_off,,,,,73,0,1,,,0,,,74,64
71513,note_off,,,,,2,0,2,,,1,,,54,64
71514,note_off,,,,,1,0,1,,,0,,,86,64
71520,note_on,,,,,6,0,1,,,0,,,98,96
71520,note_on,,,,,7,0,2,,,1,,,62,92
71592,note_off,,,,,72,0,1,,,0,,,98,64
71594,note_off,,,,,74,0,2,,,1,,,62,64
71600,note_on,,,,,8,0,1,,,0,,,86,91
71600,note_on,,,,,6,0,2,,,1,,,50,90
71671,note_off,,,,,71,0,1,,,0,,,86,64
71673,note_off,,,,,73,0,2,,,1,,,50,64
71680,note_on,,,,,9,0,1,,,0,,,86,88
71680,note_on,,,,,7,0,2,,,1,,,62,94
71751,note_off,,,,,71,0,2,,,1,,,62,64
71752,note_off,,,,,72,0,1,,,0,,,86,64
71760,note_on,,,,,0,0,2,,,1,,,50,92
71760,note_on,,,,,0,0,2,,,1,,,59,91
71760,note_on,,,,,9,0,2,,,1,,,47,94
71760,note_on,,,,,8,0,1,,,0,,,74,92
71920,note_on,,,,,160,0,1,,,0,,,62,94
71990,note_off,,,,,0,0,2,,,1,,,47,64
71990,note_off,,,,,230,0,2,,,1,,,50,64
71991,note_off,,,,,71,0,1,,,0,,,74,64
71991,note_off,,,,,1,0,2,,,1,,,59,64
71994,note_off,,,,,3,0,1,,,0,,,62,64
72000,note_on,,,,,0,0,2,,,1,,,48,97
72000,note_on,,,,,6,0,1,,,0,,,75,95
72000,note_on,,,,,9,0,2,,,1,,,60,93
72000,note_on,,,,,0,0,1,,,0,,,63,94
72000,note_on,,,,,0,0,2,,,1,,,51,91
72080,note_on,,,,,80,0,1,,,0,,,62,87
72153,note_off,,,,,73,0,1,,,0,,,62,64
72160,note_on,,,,,7,0,1,,,0,,,62,92
72233,note_off,,,,,73,0,1,,,0,,,62,64
72240,note_on,,,,,0,0,1,,,0,,,58,88
72240,note_on,,,,,7,0,1,,,0,,,60,89
72312,note_off,,,,,72,0,1,,,0,,,60,64
72313,note_off,,,,,1,0,1,,,0,,,58,64
72320,note_on,,,,,7,0,1,,,0,,,62,94
72394,note_off,,,,,74,0,1,,,0,,,62,64
72400,note_on,,,,,6,0,1,,,0,,,62,87
72470,note_off,,,,,0,0,1,,,0,,,75,64
72470,note_off,,,,,70,0,1,,,0,,,63,64
72472,note_off,,,,,472,0,2,,,1,,,48,64
72472,note_off,,,,,0,0,2,,,1,,,60,64
72472,note_off,,,,,0,0,2,,,1,,,51,64
72474,note_off,,,,,4,0,1,,,0,,,62,64
72480,note_on,,,,,6,0,1,,,0,,,75,97
72480,note_on,,,,,0,0,1,,,0,,,63,89
72480,note_on,,,,,0,0,2,,,1,,,45,94
72480,note_on,,,,,8,0,2,,,1,,,57,94
72480,note_on,,,,,0,0,2,,,1,,,51,89
72560,note_on,,,,,80,0,1,,,0,,,62,93
72632,note_off,,,,,72,0,1,,,0,,,62,64
72640,note_on,,,,,8,0,1,,,0,,,62,88
72710,note_off,,,,,70,0,1,,,0,,,62,64
72720,note_on,,,,,0,0,1,,,0,,,58,95
72720,note_on,,,,,10,0,1,,,0,,,60,88
72794,note_off,,,,,0,0,1,,,0,,,60,64
72794,note_off,,,,,74,0,1,,,0,,,58,64
72800,note_on,,,,,6,0,1,,,0,,,63,92
72800,note_on,,,,,0,0,1,,,0,,,62,89
72832,note_off,,,,,0,0,1,,,0,,,75,64
72832,note_off,,,,,32,0,1,,,0,,,63,64
72871,note_off,,,,,39,0,1,,,0,,,62,64
72872,note_off,,,,,1,0,1,,,0,,,63,64
72880,note_on,,,,,8,0,1,,,0,,,63,93
72880,note_on,,,,,0,0,1,,,0,,,75,94
72950,note_off,,,,,70,0,1,,,0,,,63,64
72952,note_off,,,,,0,0,2,,,1,,,57,64
72952,note_off,,,,,472,0,2,,,1,,,45,64
72954,note_off,,,,,2,0,2,,,1,,,51,64
72954,note_off,,,,,4,0,1,,,0,,,75,64
72960,note_on,,,,,0,0,2,,,1,,,42,99
72960,note_on,,,,,6,0,2,,,1,,,54,94
72960,note_on,,,,,0,0,2,,,1,,,50,98
72960,note_on,,,,,6,0,1,,,0,,,62,93
73034,note_off,,,,,74,0,1,,,0,,,62,64
73040,note_on,,,,,6,0,1,,,0,,,74,91
73110,note_off,,,,,70,0,1,,,0,,,74,64
73120,note_on,,,,,10,0,1,,,0,,,74,89
73190,note_off,,,,,70,0,1,,,0,,,74,64
73191,note_off,,,,,231,0,2,,,1,,,54,64
73192,note_off,,,,,1,0,2,,,1,,,50,64
73194,note_off,,,,,2,0,2,,,1,,,42,64
73200,control_change,,,,,6,0,2,,,1,7,111,,
73200,note_on,,,,,0,0,2,,,1,,,62,93
73200,control_change,,,,,0,0,1,,,0,7,111,,
73200,note_on,,,,,10,0,1,,,0,,,86,88
73253,control_change,,,,,53,0,2,,,1,7,112,,
73253,control_change,,,,,53,0,1,,,0,7,112,,
73272,note_off,,,,,19,0,2,,,1,,,62,64
73274,note_off,,,,,21,0,1,,,0,,,86,64
73280,note_on,,,,,8,0,2,,,1,,,62,87
73280,note_on,,,,,6,0,1,,,0,,,86,93
73306,control_change,,,,,26,0,2,,,1,7,113,,
73306,control_change,,,,,26,0,1,,,0,7,113,,
73351,note_off,,,,,45,0,1,,,0,,,86,64
73353,note_off,,,,,47,0,2,,,1,,,62,64
73359,control_change,,,,,6,0,2,,,1,7,114,,
73359,control_change,,,,,8,0,1,,,0,7,114,,
73360,note_on,,,,,1,0,1,,,0,,,98,93
73360,note_on,,,,,1,0,2,,,1,,,62,92
73412,control_change,,,,,52,0,2,,,1,7,115,,
73412,control_change,,,,,52,0,1,,,0,7,115,,
73430,note_off,,,,,18,0,2,,,1,,,62,64
73433,note_off,,,,,21,0,1,,,0,,,98,64
73440,note_on,,,,,10,0,2,,,1,,,62,90
73440,note_on,,,,,7,0,1,,,0,,,86,92
73466,control_change,,,,,26,0,2,,,1,7,116,,
73466,control_change,,,,,26,0,1,,,0,7,116,,
73510,note_off,,,,,44,0,1,,,0,,,86,64
73513,note_off,,,,,47,0,2,,,1,,,62,64
73519,control_change,,,,,6,0,2,,,1,7,117,,
73519,control_change,,,,,9,0,1,,,0,7,117,,
73520,note_on,,,,,1,0,2,,,1,,,62,92
73520,note_on,,,,,1,0,1,,,0,,,84,90
73572,control_change,,,,,52,0,2,,,1,7,118,,
73572,control_change,,,,,52,0,1,,,0,7,118,,
73591,note_off,,,,,19,0,1,,,0,,,84,64
73592,note_off,,,,,20,0,2,,,1,,,62,64
73600,note_on,,,,,8,0,2,,,1,,,62,93
73600,note_on,,,,,9,0,1,,,0,,,74,87
73625,control_change,,,,,25,0,2,,,1,7,119,,
73625,control_change,,,,,25,0,1,,,0,7,119,,
73670,note_off,,,,,45,0,1,,,0,,,74,64
73674,note_off,,,,,49,0,2,,,1,,,62,64
73679,control_change,,,,,9,0,1,,,0,7,120,,
73679,control_change,,,,,5,0,2,,,1,7,120,,
73680,note_on,,,,,0,0,2,,,1,,,54,85
73680,note_on,,,,,1,0,1,,,0,,,74,85
73680,control_change,,,,,0,0,1,,,0,7,100,,
73680,note_on,,,,,0,0,2,,,1,,,69,82
73680,control_change,,,,,1,0,2,,,1,7,100,,
73750,note_off,,,,,70,0,1,,,0,,,74,64
73760,note_on,,,,,10,0,1,,,0,,,62,85
73831,note_off,,,,,71,0,1,,,0,,,62,64
73840,note_on,,,,,9,0,1,,,0,,,74,80
73909,note_off,,,,,69,0,1,,,0,,,74,64
73911,note_off,,,,,231,0,2,,,1,,,69,64
73912,note_off,,,,,1,0,2,,,1,,,54,64
73920,note_on,,,,,0,0,2,,,1,,,55,85
73920,note_on,,,,,8,0,2,,,1,,,70,82
73920,note_on,,,,,11,0,1,,,0,,,62,89
73991,note_off,,,,,71,0,1,,,0,,,62,64
74000,note_on,,,,,9,0,1,,,0,,,74,79
74072,note_off,,,,,72,0,1,,,0,,,74,64
74080,note_on,,,,,8,0,1,,,0,,,62,83
74152,note_off,,,,,232,0,2,,,1,,,70,64
74153,note_off,,,,,1,0,2,,,1,,,55,64
74153,note_off,,,,,73,0,1,,,0,,,62,64
74160,note_on,,,,,0,0,2,,,1,,,54,85
74160,note_on,,,,,7,0,2,,,1,,,69,85
74160,note_on,,,,,7,0,1,,,0,,,74,82
74231,note_off,,,,,71,0,1,,,0,,,74,64
74240,note_on,,,,,9,0,1,,,0,,,62,80
74312,note_off,,,,,72,0,1,,,0,,,62,64
74320,note_on,,,,,8,0,1,,,0,,,74,84
74390,note_off,,,,,230,0,2,,,1,,,54,64
74390,note_off,,,,,70,0,1,,,0,,,74,64
74394,note_off,,,,,4,0,2,,,1,,,69,64
74400,note_on,,,,,0,0,2,,,1,,,55,82
74400,note_on,,,,,10,0,1,,,0,,,62,83
74400,note_on,,,,,6,0,2,,,1,,,70,84
74474,note_off,,,,,74,0,1,,,0,,,62,64
74480,note_on,,,,,6,0,1,,,0,,,74,85
74551,note_off,,,,,71,0,1,,,0,,,74,64
74560,note_on,,,,,9,0,1,,,0,,,62,78
74630,note_off,,,,,230,0,2,,,1,,,55,64
74631,note_off,,,,,1,0,2,,,1,,,70,64
74631,note_off,,,,,71,0,1,,,0,,,62,64
74640,note_on,,,,,9,0,2,,,1,,,71,79
74640,note_on,,,,,0,0,2,,,1,,,56,80
74640,note_on,,,,,9,0,1,,,0,,,74,82
74714,note_off,,,,,74,0,1,,,0,,,74,64
74720,note_on,,,,,6,0,1,,,0,,,62,84
74792,note_off,,,,,72,0,1,,,0,,,62,64
74800,note_on,,,,,8,0,1,,,0,,,74,81
74870,note_off,,,,,230,0,2,,,1,,,71,64
74871,note_off,,,,,1,0,2,,,1,,,56,64
74872,note_off,,,,,72,0,1,,,0,,,74,64
74880,set_tempo,,,,,5760,1,0,468750,,,,,,
74880,note_on,,,,,0,0,2,,,1,,,72,87
74880,note_on,,,,,8,0,1,,,0,,,62,84
74880,note_on,,,,,9,0,2,,,1,,,57,88
74954,note_off,,,,,74,0,1,,,0,,,62,64
74960,note_on,,,,,6,0,1,,,0,,,74,79
75032,note_off,,,,,72,0,1,,,0,,,74,64
75040,note_on,,,,,8,0,1,,,0,,,62,85
75111,note_off,,,,,71,0,1,,,0,,,62,64
75120,note_on,,,,,9,0,1,,,0,,,74,82
75191,note_off,,,,,71,0,1,,,0,,,74,64
75200,note_on,,,,,9,0,1,,,0,,,62,77
75271,note_off,,,,,71,0,1,,,0,,,62,64
75280,note_on,,,,,9,0,1,,,0,,,74,82
75353,note_off,,,,,73,0,1,,,0,,,74,64
75360,note_on,,,,,7,0,1,,,0,,,62,86
75360,note_on,,,,,0,0,2,,,1,,,58,79
75360,note_on,,,,,0,0,2,,,1,,,73,85
75360,note_off,,,,,480,0,2,,,1,,,72,64
75360,note_off,,,,,0,0,2,,,1,,,57,64
75433,note_off,,,,,73,0,1,,,0,,,62,64
75440,note_on,,,,,7,0,1,,,0,,,74,82
75513,note_off,,,,,73,0,1,,,0,,,74,64
75520,note_on,,,,,7,0,1,,,0,,,62,81
75593,note_off,,,,,73,0,1,,,0,,,62,64
75600,note_on,,,,,7,0,1,,,0,,,74,85
75672,note_off,,,,,72,0,1,,,0,,,74,64
75680,note_on,,,,,8,0,1,,,0,,,62,77
75710,note_off,,,,,350,0,2,,,1,,,58,64
75713,note_off,,,,,3,0,2,,,1,,,73,64
75752,note_off,,,,,72,0,1,,,0,,,62,64
75760,note_on,,,,,47,0,2,,,1,,,58,80
75760,note_on,,,,,8,0,1,,,0,,,74,83
75760,note_on,,,,,0,0,2,,,1,,,73,77
75830,note_off,,,,,70,0,1,,,0,,,74,64
75833,note_off,,,,,73,0,2,,,1,,,73,64
75834,note_off,,,,,1,0,2,,,1,,,58,64
75840,note_on,,,,,0,0,2,,,1,,,74,87
75840,control_change,,,,,10,0,1,,,0,7,101,,
75840,control_change,,,,,0,0,2,,,1,7,101,,
75840,note_on,,,,,6,0,2,,,1,,,59,81
75893,control_change,,,,,53,0,1,,,0,7,102,,
75893,control_change,,,,,53,0,2,,,1,7,102,,
75920,note_on,,,,,0,0,1,,,0,,,62,83
75920,note_on,,,,,27,0,1,,,0,,,74,82
75946,control_change,,,,,53,0,2,,,1,7,103,,
75946,control_change,,,,,26,0,1,,,0,7,103,,
75992,note_off,,,,,0,0,1,,,0,,,74,64
75992,note_off,,,,,46,0,1,,,0,,,62,64
75999,control_change,,,,,53,0,2,,,1,7,104,,
75999,control_change,,,,,7,0,1,,,0,7,104,,
76000,note_on,,,,,0,0,1,,,0,,,62,78
76000,note_on,,,,,1,0,1,,,0,,,74,79
76052,control_change,,,,,53,0,2,,,1,7,105,,
76052,control_change,,,,,52,0,1,,,0,7,105,,
76071,note_off,,,,,19,0,2,,,1,,,74,64
76074,note_off,,,,,22,0,1,,,0,,,62,64
76074,note_off,,,,,0,0,1,,,0,,,74,64
76080,note_on,,,,,0,0,1,,,0,,,62,85
76080,note_on,,,,,6,0,1,,,0,,,74,79
76106,control_change,,,,,35,0,2,,,1,7,106,,
76106,control_change,,,,,26,0,1,,,0,7,106,,
76150,note_off,,,,,0,0,1,,,0,,,74,64
76150,note_off,,,,,44,0,1,,,0,,,62,64
76159,control_change,,,,,53,0,2,,,1,7,107,,
76159,control_change,,,,,9,0,1,,,0,7,107,,
76160,note_on,,,,,0,0,1,,,0,,,62,78
76160,note_on,,,,,1,0,1,,,0,,,74,78
76212,control_change,,,,,52,0,1,,,0,7,108,,
76212,control_change,,,,,53,0,2,,,1,7,108,,
76230,note_off,,,,,18,0,1,,,0,,,74,64
76231,note_off,,,,,1,0,1,,,0,,,62,64
76240,note_on,,,,,0,0,1,,,0,,,62,78
76240,note_on,,,,,9,0,1,,,0,,,74,80
76265,control_change,,,,,25,0,1,,,0,7,109,,
76265,control_change,,,,,53,0,2,,,1,7,109,,
76311,note_off,,,,,46,0,1,,,0,,,74,64
76314,note_off,,,,,3,0,1,,,0,,,62,64
76319,control_change,,,,,5,0,1,,,0,7,110,,
76319,control_change,,,,,54,0,2,,,1,7,110,,
76320,note_on,,,,,0,0,1,,,0,,,62,87
76320,control_change,,,,,0,0,1,,,0,7,109,,
76320,control_change,,,,,1,0,2,,,1,7,109,,
76320,note_on,,,,,1,0,1,,,0,,,74,84
76373,control_change,,,,,53,0,1,,,0,7,108,,
76373,control_change,,,,,53,0,2,,,1,7,108,,
76392,note_off,,,,,19,0,1,,,0,,,62,64
76394,note_off,,,,,2,0,1,,,0,,,74,64
76400,note_on,,,,,0,0,1,,,0,,,62,77
76400,note_on,,,,,6,0,1,,,0,,,74,85
76426,control_change,,,,,26,0,1,,,0,7,107,,
76426,control_change,,,,,53,0,2,,,1,7,107,,
76471,note_off,,,,,45,0,1,,,0,,,62,64
76472,note_off,,,,,1,0,1,,,0,,,74,64
76479,control_change,,,,,7,0,1,,,0,7,106,,
76479,control_change,,,,,53,0,2,,,1,7,106,,
76480,note_on,,,,,1,0,1,,,0,,,74,83
76480,note_on,,,,,0,0,1,,,0,,,62,81
76532,control_change,,,,,53,0,2,,,1,7,105,,
76532,control_change,,,,,52,0,1,,,0,7,105,,
76552,note_off,,,,,20,0,1,,,0,,,62,64
76554,note_off,,,,,2,0,1,,,0,,,74,64
76560,note_on,,,,,6,0,1,,,0,,,74,79
76560,note_on,,,,,0,0,1,,,0,,,62,78
76586,control_change,,,,,26,0,1,,,0,7,104,,
76586,control_change,,,,,54,0,2,,,1,7,104,,
76630,note_off,,,,,44,0,1,,,0,,,74,64
76634,note_off,,,,,4,0,1,,,0,,,62,64
76639,control_change,,,,,53,0,2,,,1,7,103,,
76639,control_change,,,,,5,0,1,,,0,7,103,,
76640,note_on,,,,,0,0,1,,,0,,,62,80
76640,note_on,,,,,1,0,1,,,0,,,74,82
76692,control_change,,,,,52,0,1,,,0,7,102,,
76692,control_change,,,,,53,0,2,,,1,7,102,,
76712,note_off,,,,,20,0,1,,,0,,,74,64
76713,note_off,,,,,1,0,1,,,0,,,62,64
76720,note_on,,,,,0,0,1,,,0,,,62,84
76720,note_on,,,,,7,0,1,,,0,,,74,79
76745,control_change,,,,,25,0,1,,,0,7,101,,
76745,control_change,,,,,53,0,2,,,1,7,101,,
76791,note_off,,,,,46,0,1,,,0,,,62,64
76794,note_off,,,,,3,0,1,,,0,,,74,64
76799,control_change,,,,,54,0,2,,,1,7,100,,
76799,control_change,,,,,5,0,1,,,0,7,100,,
76800,note_on,,,,,1,0,1,,,0,,,74,81
76800,note_on,,,,,0,0,1,,,0,,,62,81
76870,note_off,,,,,70,0,1,,,0,,,74,64
76872,note_off,,,,,2,0,1,,,0,,,62,64
76880,note_on,,,,,0,0,1,,,0,,,62,79
76880,note_on,,,,,8,0,1,,,0,,,74,84
76950,note_off,,,,,70,0,1,,,0,,,74,64
76951,note_off,,,,,1,0,1,,,0,,,62,64
76960,note_on,,,,,0,0,1,,,0,,,62,77
76960,note_on,,,,,9,0,1,,,0,,,74,82
77031,note_off,,,,,71,0,1,,,0,,,74,64
77034,note_off,,,,,235,0,2,,,1,,,59,64
77034,note_off,,,,,3,0,1,,,0,,,62,64
77040,note_on,,,,,0,0,1,,,0,,,64,79
77040,note_on,,,,,6,0,2,,,1,,,52,83
77040,note_on,,,,,0,0,1,,,0,,,67,77
77040,note_on,,,,,6,0,1,,,0,,,73,83
77110,note_off,,,,,70,0,1,,,0,,,73,64
77113,note_off,,,,,3,0,1,,,0,,,64,64
77114,note_off,,,,,1,0,1,,,0,,,67,64
77120,note_on,,,,,0,0,1,,,0,,,64,79
77120,note_on,,,,,0,0,1,,,0,,,67,80
77120,note_on,,,,,6,0,1,,,0,,,73,79
77152,note_off,,,,,112,0,2,,,1,,,52,64
77193,note_off,,,,,73,0,1,,,0,,,64,64
77193,note_off,,,,,0,0,1,,,0,,,73,64
77193,note_off,,,,,0,0,1,,,0,,,67,64
77200,note_on,,,,,0,0,1,,,0,,,64,85
77200,note_on,,,,,0,0,1,,,0,,,67,83
77200,note_on,,,,,7,0,1,,,0,,,73,78
77270,note_off,,,,,0,0,1,,,0,,,67,64
77270,note_off,,,,,70,0,1,,,0,,,64,64
77273,note_off,,,,,3,0,1,,,0,,,73,64
77280,note_on,,,,,128,0,2,,,1,,,54,87
77280,note_on,,,,,0,0,1,,,0,,,62,81
77280,note_on,,,,,0,0,1,,,0,,,66,85
77280,note_on,,,,,7,0,1,,,0,,,71,87
77350,note_off,,,,,70,0,1,,,0,,,62,64
77352,note_off,,,,,2,0,1,,,0,,,71,64
77353,note_off,,,,,1,0,1,,,0,,,66,64
77360,note_on,,,,,7,0,1,,,0,,,71,83
77360,note_on,,,,,0,0,1,,,0,,,62,84
77360,note_on,,,,,0,0,1,,,0,,,66,82
77392,note_off,,,,,112,0,2,,,1,,,54,64
77431,note_off,,,,,71,0,1,,,0,,,62,64
77431,note_off,,,,,0,0,1,,,0,,,71,64
77433,note_off,,,,,2,0,1,,,0,,,66,64
77440,note_on,,,,,7,0,1,,,0,,,71,79
77440,note_on,,,,,0,0,1,,,0,,,66,78
77440,note_on,,,,,0,0,1,,,0,,,62,85
77511,note_off,,,,,71,0,1,,,0,,,71,64
77512,note_off,,,,,1,0,1,,,0,,,66,64
77514,note_off,,,,,2,0,1,,,0,,,62,64
77520,note_on,,,,,0,0,2,,,1,,,54,78
77520,note_on,,,,,0,0,1,,,0,,,70,85
77520,note_on,,,,,128,0,2,,,1,,,42,79
77520,note_on,,,,,6,0,1,,,0,,,66,79
77520,note_on,,,,,0,0,1,,,0,,,61,80
77594,note_off,,,,,0,0,1,,,0,,,66,64
77594,note_off,,,,,0,0,1,,,0,,,70,64
77594,note_off,,,,,74,0,1,,,0,,,61,64
77600,note_on,,,,,6,0,1,,,0,,,70,85
77600,note_on,,,,,0,0,1,,,0,,,61,83
77600,note_on,,,,,0,0,1,,,0,,,66,82
77632,note_off,,,,,112,0,2,,,1,,,42,64
77633,note_off,,,,,1,0,2,,,1,,,54,64
77672,note_off,,,,,72,0,1,,,0,,,70,64
77673,note_off,,,,,1,0,1,,,0,,,61,64
77674,note_off,,,,,1,0,1,,,0,,,66,64
77680,note_on,,,,,0,0,1,,,0,,,61,83
77680,note_on,,,,,0,0,1,,,0,,,66,79
77680,note_on,,,,,6,0,1,,,0,,,70,77
77751,note_off,,,,,71,0,1,,,0,,,70,64
77752,note_off,,,,,1,0,1,,,0,,,61,64
77754,note_off,,,,,2,0,1,,,0,,,66,64
77760,note_on,,,,,6,0,1,,,0,,,71,85
77760,note_on,,,,,0,0,1,,,0,,,66,84
77760,note_on,,,,,127,0,2,,,1,,,54,82
77760,set_tempo,,,,,2880,1,0,476190,,,,,,
77760,note_on,,,,,0,0,1,,,0,,,62,88
77760,note_on,,,,,0,0,2,,,1,,,59,84
77760,note_on,,,,,0,0,2,,,1,,,47,84
77832,note_off,,,,,72,0,1,,,0,,,62,64
77833,note_off,,,,,1,0,1,,,0,,,66,64
77834,note_off,,,,,1,0,1,,,0,,,71,64
77840,note_on,,,,,0,0,1,,,0,,,66,85
77840,note_on,,,,,0,0,1,,,0,,,62,83
77840,note_on,,,,,6,0,1,,,0,,,71,80
77910,note_off,,,,,70,0,1,,,0,,,62,64
77910,note_off,,,,,0,0,1,,,0,,,71,64
77913,note_off,,,,,3,0,1,,,0,,,66,64
77920,note_on,,,,,0,0,1,,,0,,,71,78
77920,note_on,,,,,0,0,1,,,0,,,66,82
77920,note_on,,,,,7,0,1,,,0,,,62,79
77991,note_off,,,,,71,0,1,,,0,,,66,64
77991,note_off,,,,,0,0,1,,,0,,,62,64
77992,note_off,,,,,232,0,2,,,1,,,59,64
77992,note_off,,,,,1,0,1,,,0,,,71,64
78000,note_on,,,,,8,0,1,,,0,,,71,85
78000,note_on,,,,,8,0,2,,,1,,,59,80
78000,note_on,,,,,0,0,1,,,0,,,66,85
78000,note_on,,,,,0,0,1,,,0,,,62,84
78070,note_off,,,,,70,0,1,,,0,,,66,64
78070,note_off,,,,,0,0,1,,,0,,,71,64
78072,note_off,,,,,2,0,1,,,0,,,62,64
78080,note_on,,,,,8,0,1,,,0,,,66,80
78080,note_on,,,,,0,0,1,,,0,,,62,80
78080,note_on,,,,,0,0,1,,,0,,,71,83
78151,note_off,,,,,71,0,1,,,0,,,66,64
78152,note_off,,,,,1,0,1,,,0,,,62,64
78154,note_off,,,,,2,0,1,,,0,,,71,64
78160,note_on,,,,,6,0,1,,,0,,,66,81
78160,note_on,,,,,0,0,1,,,0,,,62,80
78160,note_on,,,,,0,0,1,,,0,,,71,83
78230,note_off,,,,,0,0,1,,,0,,,62,64
78230,note_off,,,,,70,0,1,,,0,,,71,64
78231,note_off,,,,,231,0,2,,,1,,,59,64
78231,note_off,,,,,1,0,1,,,0,,,66,64
78240,note_on,,,,,9,0,1,,,0,,,71,85
78240,note_on,,,,,0,0,1,,,0,,,62,82
78240,note_on,,,,,0,0,1,,,0,,,66,87
78310,note_off,,,,,70,0,1,,,0,,,66,64
78311,note_off,,,,,1,0,1,,,0,,,71,64
78312,note_off,,,,,1,0,1,,,0,,,62,64
78320,note_on,,,,,8,0,1,,,0,,,66,81
78320,note_on,,,,,0,0,1,,,0,,,62,79
78320,note_on,,,,,0,0,1,,,0,,,71,85
78390,note_off,,,,,70,0,1,,,0,,,62,64
78393,note_off,,,,,3,0,1,,,0,,,66,64
78394,note_off,,,,,1,0,1,,,0,,,71,64
78400,note_on,,,,,0,0,1,,,0,,,71,79
78400,note_on,,,,,0,0,1,,,0,,,62,77
78400,note_on,,,,,6,0,1,,,0,,,66,83
78470,note_off,,,,,239,0,2,,,1,,,54,64
78471,note_off,,,,,0,0,1,,,0,,,71,64
78471,note_off,,,,,71,0,1,,,0,,,62,64
78474,note_off,,,,,3,0,1,,,0,,,66,64
78480,note_on,,,,,10,0,2,,,1,,,54,83
78480,note_on,,,,,6,0,1,,,0,,,69,83
78480,note_on,,,,,0,0,1,,,0,,,66,84
78480,note_on,,,,,0,0,1,,,0,,,63,80
78552,note_off,,,,,72,0,1,,,0,,,69,64
78553,note_off,,,,,1,0,1,,,0,,,66,64
78554,note_off,,,,,1,0,1,,,0,,,63,64
78560,note_on,,,,,0,0,1,,,0,,,66,80
78560,note_on,,,,,0,0,1,,,0,,,69,83
78560,note_on,,,,,6,0,1,,,0,,,63,78
78593,note_off,,,,,113,0,2,,,1,,,54,64
78600,note_on,,,,,7,0,2,,,1,,,54,83
78632,note_off,,,,,72,0,1,,,0,,,66,64
78633,note_off,,,,,1,0,1,,,0,,,69,64
78634,note_off,,,,,1,0,1,,,0,,,63,64
78640,note_on,,,,,6,0,1,,,0,,,63,83
78640,note_on,,,,,0,0,1,,,0,,,66,82
78640,note_on,,,,,0,0,1,,,0,,,69,80
78711,note_off,,,,,111,0,2,,,1,,,47,64
78711,note_off,,,,,71,0,1,,,0,,,63,64
78712,note_off,,,,,1,0,2,,,1,,,54,64
78713,note_off,,,,,2,0,1,,,0,,,69,64
78713,note_off,,,,,0,0,1,,,0,,,66,64
78720,note_on,,,,,0,0,1,,,0,,,59,85
78720,note_on,,,,,0,0,2,,,1,,,47,85
78720,note_on,,,,,0,0,2,,,1,,,52,82
78720,note_on,,,,,8,0,2,,,1,,,40,81
78720,note_on,,,,,0,0,1,,,0,,,64,89
78720,note_on,,,,,7,0,1,,,0,,,67,87
78720,note_on,,,,,0,0,2,,,1,,,57,89
78792,note_off,,,,,72,0,1,,,0,,,64,64
78793,note_off,,,,,1,0,1,,,0,,,67,64
78794,note_off,,,,,1,0,1,,,0,,,59,64
78800,note_on,,,,,0,0,1,,,0,,,64,84
78800,note_on,,,,,0,0,1,,,0,,,67,77
78800,note_on,,,,,6,0,1,,,0,,,59,83
78870,note_off,,,,,70,0,1,,,0,,,59,64
78871,note_off,,,,,1,0,1,,,0,,,67,64
78874,note_off,,,,,3,0,1,,,0,,,64,64
78880,note_on,,,,,0,0,1,,,0,,,64,83
78880,note_on,,,,,0,0,1,,,0,,,67,78
78880,note_on,,,,,6,0,1,,,0,,,59,80
78953,note_off,,,,,0,0,1,,,0,,,59,64
78953,note_off,,,,,73,0,1,,,0,,,64,64
78953,note_off,,,,,233,0,2,,,1,,,57,64
78954,note_off,,,,,1,0,1,,,0,,,67,64
78960,note_on,,,,,6,0,1,,,0,,,59,78
78960,note_on,,,,,0,0,1,,,0,,,64,77
78960,note_on,,,,,0,0,1,,,0,,,67,83
78960,note_on,,,,,7,0,2,,,1,,,55,80
79030,note_off,,,,,0,0,1,,,0,,,64,64
79030,note_off,,,,,70,0,1,,,0,,,67,64
79034,note_off,,,,,4,0,1,,,0,,,59,64
79040,note_on,,,,,6,0,1,,,0,,,59,81
79040,note_on,,,,,0,0,1,,,0,,,67,81
79040,note_on,,,,,0,0,1,,,0,,,64,79
79074,note_off,,,,,114,0,2,,,1,,,55,64
79080,note_on,,,,,6,0,2,,,1,,,55,78
79110,note_off,,,,,70,0,1,,,0,,,59,64
79112,note_off,,,,,2,0,1,,,0,,,64,64
79114,note_off,,,,,2,0,1,,,0,,,67,64
79120,note_on,,,,,0,0,1,,,0,,,64,82
79120,note_on,,,,,0,0,1,,,0,,,67,79
79120,note_on,,,,,6,0,1,,,0,,,59,81
79190,note_off,,,,,70,0,1,,,0,,,67,64
79191,note_off,,,,,1,0,1,,,0,,,59,64
79192,note_off,,,,,112,0,2,,,1,,,55,64
79193,note_off,,,,,2,0,1,,,0,,,64,64
79200,note_on,,,,,0,0,1,,,0,,,59,82
79200,note_on,,,,,0,0,1,,,0,,,64,87
79200,note_on,,,,,7,0,1,,,0,,,67,81
79200,note_on,,,,,8,0,2,,,1,,,55,87
79271,note_off,,,,,71,0,1,,,0,,,67,64
79273,note_off,,,,,2,0,1,,,0,,,64,64
79273,note_off,,,,,0,0,1,,,0,,,59,64
79280,note_on,,,,,0,0,1,,,0,,,67,84
79280,note_on,,,,,7,0,1,,,0,,,64,77
79280,note_on,,,,,0,0,1,,,0,,,59,79
79350,note_off,,,,,70,0,1,,,0,,,59,64
79353,note_off,,,,,3,0,1,,,0,,,67,64
79354,note_off,,,,,1,0,1,,,0,,,64,64
79360,note_on,,,,,0,0,1,,,0,,,59,80
79360,note_on,,,,,6,0,1,,,0,,,64,85
79360,note_on,,,,,0,0,1,,,0,,,67,83
79430,note_off,,,,,0,0,1,,,0,,,64,64
79430,note_off,,,,,70,0,1,,,0,,,59,64
79432,note_off,,,,,2,0,1,,,0,,,67,64
79440,note_on,,,,,0,0,1,,,0,,,59,77
79440,note_on,,,,,8,0,1,,,0,,,67,84
79440,note_on,,,,,0,0,1,,,0,,,64,79
79511,note_off,,,,,71,0,1,,,0,,,67,64
79513,note_off,,,,,0,0,1,,,0,,,59,64
79513,note_off,,,,,2,0,1,,,0,,,64,64
79520,note_on,,,,,7,0,1,,,0,,,59,85
79520,note_on,,,,,0,0,1,,,0,,,67,79
79520,note_on,,,,,0,0,1,,,0,,,64,77
79592,note_off,,,,,72,0,1,,,0,,,67,64
79593,note_off,,,,,1,0,1,,,0,,,64,64
79594,note_off,,,,,1,0,1,,,0,,,59,64
79600,note_on,,,,,0,0,1,,,0,,,67,77
79600,note_on,,,,,0,0,1,,,0,,,64,80
79600,note_on,,,,,6,0,1,,,0,,,59,85
79670,note_off,,,,,70,0,1,,,0,,,64,64
79672,note_off,,,,,2,0,1,,,0,,,59,64
79673,note_off,,,,,1,0,1,,,0,,,67,64
79680,note_on,,,,,0,0,1,,,0,,,64,88
79680,note_on,,,,,7,0,1,,,0,,,67,83
79680,note_on,,,,,0,0,1,,,0,,,59,85
79750,note_off,,,,,70,0,1,,,0,,,64,64
79751,note_off,,,,,1,0,1,,,0,,,59,64
79751,note_off,,,,,0,0,1,,,0,,,67,64
79760,note_on,,,,,0,0,1,,,0,,,67,82
79760,note_on,,,,,0,0,1,,,0,,,64,82
79760,note_on,,,,,9,0,1,,,0,,,59,82
79830,note_off,,,,,70,0,1,,,0,,,64,64
79833,note_off,,,,,3,0,1,,,0,,,59,64
79834,note_off,,,,,1,0,1,,,0,,,67,64
79840,note_on,,,,,6,0,1,,,0,,,64,85
79840,note_on,,,,,0,0,1,,,0,,,59,77
79840,note_on,,,,,0,0,1,,,0,,,67,81
79910,note_off,,,,,710,0,2,,,1,,,47,64
79911,note_off,,,,,71,0,1,,,0,,,64,64
79912,note_off,,,,,1,0,1,,,0,,,59,64
79912,note_off,,,,,0,0,2,,,1,,,40,64
79912,note_off,,,,,2,0,2,,,1,,,52,64
79913,note_off,,,,,1,0,2,,,1,,,55,64
79914,note_off,,,,,2,0,1,,,0,,,67,64
79920,note_on,,,,,6,0,1,,,0,,,59,82
79920,note_on,,,,,0,0,2,,,1,,,55,78
79920,note_on,,,,,0,0,1,,,0,,,64,84
79920,note_on,,,,,0,0,1,,,0,,,67,80
79920,note_on,,,,,7,0,2,,,1,,,52,82
79990,note_off,,,,,70,0,1,,,0,,,59,64
79992,note_off,,,,,0,0,1,,,0,,,64,64
79992,note_off,,,,,2,0,1,,,0,,,67,64
80000,note_on,,,,,0,0,1,,,0,,,64,80
80000,note_on,,,,,8,0,1,,,0,,,59,77
80000,note_on,,,,,0,0,1,,,0,,,67,83
80031,note_off,,,,,111,0,2,,,1,,,55,64
80031,note_off,,,,,0,0,2,,,1,,,52,64
80070,note_off,,,,,70,0,1,,,0,,,64,64
80070,note_off,,,,,0,0,1,,,0,,,59,64
80071,note_off,,,,,1,0,1,,,0,,,67,64
80080,note_on,,,,,9,0,1,,,0,,,67,81
80080,note_on,,,,,0,0,1,,,0,,,64,77
80080,note_on,,,,,0,0,1,,,0,,,59,79
80150,note_off,,,,,70,0,1,,,0,,,59,64
80151,note_off,,,,,0,0,1,,,0,,,67,64
80151,note_off,,,,,1,0,1,,,0,,,64,64
80160,note_on,,,,,9,0,1,,,0,,,69,82
80160,note_on,,,,,0,0,2,,,1,,,52,81
80160,note_on,,,,,0,0,1,,,0,,,64,80
80160,note_on,,,,,0,0,1,,,0,,,60,82
80160,note_on,,,,,0,0,2,,,1,,,57,82
80160,note_on,,,,,129,0,2,,,1,,,48,80
80231,note_off,,,,,71,0,1,,,0,,,69,64
80232,note_off,,,,,1,0,1,,,0,,,64,64
80234,note_off,,,,,2,0,1,,,0,,,60,64
80240,note_on,,,,,6,0,1,,,0,,,60,79
80240,note_on,,,,,0,0,1,,,0,,,64,85
80240,note_on,,,,,0,0,1,,,0,,,69,83
80272,note_off,,,,,112,0,2,,,1,,,57,64
80273,note_off,,,,,1,0,2,,,1,,,48,64
80274,note_off,,,,,1,0,2,,,1,,,52,64
80311,note_off,,,,,71,0,1,,,0,,,60,64
80312,note_off,,,,,1,0,1,,,0,,,64,64
80314,note_off,,,,,2,0,1,,,0,,,69,64
80320,note_on,,,,,0,0,1,,,0,,,60,83
80320,note_on,,,,,0,0,1,,,0,,,69,83
80320,note_on,,,,,6,0,1,,,0,,,64,78
80390,note_off,,,,,70,0,1,,,0,,,69,64
80393,note_off,,,,,0,0,1,,,0,,,64,64
80393,note_off,,,,,3,0,1,,,0,,,60,64
80400,note_on,,,,,0,0,2,,,1,,,52,79
80400,note_on,,,,,7,0,1,,,0,,,69,84
80400,note_on,,,,,0,0,2,,,1,,,57,85
80400,note_on,,,,,0,0,1,,,0,,,64,85
80400,note_on,,,,,126,0,2,,,1,,,48,79
80400,note_on,,,,,0,0,1,,,0,,,60,83
80470,note_off,,,,,0,0,1,,,0,,,64,64
80470,note_off,,,,,70,0,1,,,0,,,60,64
80473,note_off,,,,,3,0,1,,,0,,,69,64
80480,note_on,,,,,0,0,1,,,0,,,64,81
80480,note_on,,,,,0,0,1,,,0,,,69,83
80480,note_on,,,,,7,0,1,,,0,,,60,82
80510,note_off,,,,,110,0,2,,,1,,,52,64
80511,note_off,,,,,1,0,2,,,1,,,48,64
80514,note_off,,,,,3,0,2,,,1,,,57,64
80552,note_off,,,,,0,0,1,,,0,,,64,64
80552,note_off,,,,,72,0,1,,,0,,,69,64
80552,note_off,,,,,0,0,1,,,0,,,60,64
80560,note_on,,,,,0,0,1,,,0,,,64,84
80560,note_on,,,,,0,0,1,,,0,,,69,79
80560,note_on,,,,,8,0,1,,,0,,,60,78
80630,note_off,,,,,70,0,1,,,0,,,60,64
80633,note_off,,,,,3,0,1,,,0,,,64,64
80634,note_off,,,,,1,0,1,,,0,,,69,64
80640,note_on,,,,,126,0,2,,,1,,,50,89
80640,note_on,,,,,0,0,2,,,1,,,59,84
80640,note_on,,,,,6,0,1,,,0,,,67,88
80640,note_on,,,,,0,0,1,,,0,,,62,83
80640,note_on,,,,,0,0,2,,,1,,,55,89
80710,note_off,,,,,70,0,1,,,0,,,62,64
80712,note_off,,,,,2,0,1,,,0,,,67,64
80720,note_on,,,,,8,0,1,,,0,,,67,80
80720,note_on,,,,,0,0,1,,,0,,,62,79
80750,note_off,,,,,110,0,2,,,1,,,59,64
80752,note_off,,,,,2,0,2,,,1,,,50,64
80753,note_off,,,,,1,0,2,,,1,,,55,64
80791,note_off,,,,,71,0,1,,,0,,,67,64
80794,note_off,,,,,3,0,1,,,0,,,62,64
80800,note_on,,,,,0,0,1,,,0,,,62,77
80800,note_on,,,,,6,0,1,,,0,,,67,80
80870,note_off,,,,,70,0,1,,,0,,,67,64
80874,note_off,,,,,4,0,1,,,0,,,62,64
80880,note_on,,,,,0,0,2,,,1,,,47,80
80880,note_on,,,,,6,0,1,,,0,,,67,83
80880,note_on,,,,,127,0,2,,,1,,,55,77
80880,note_on,,,,,0,0,1,,,0,,,62,85
80880,note_on,,,,,0,0,1,,,0,,,59,79
80880,note_on,,,,,0,0,2,,,1,,,38,84
80950,note_off,,,,,70,0,1,,,0,,,62,64
80952,note_off,,,,,2,0,1,,,0,,,67,64
80953,note_off,,,,,1,0,1,,,0,,,59,64
80960,note_on,,,,,7,0,1,,,0,,,59,78
80960,note_on,,,,,0,0,1,,,0,,,67,78
80960,note_on,,,,,0,0,1,,,0,,,62,80
80991,note_off,,,,,111,0,2,,,1,,,55,64
81030,note_off,,,,,70,0,1,,,0,,,62,64
81031,note_off,,,,,1,0,1,,,0,,,67,64
81033,note_off,,,,,2,0,1,,,0,,,59,64
81040,note_on,,,,,0,0,1,,,0,,,59,83
81040,note_on,,,,,0,0,1,,,0,,,67,84
81040,note_on,,,,,7,0,1,,,0,,,62,79
81110,note_off,,,,,119,0,2,,,1,,,47,64
81112,note_off,,,,,72,0,1,,,0,,,62,64
81113,note_off,,,,,0,0,1,,,0,,,67,64
81113,note_off,,,,,1,0,1,,,0,,,59,64
81114,note_off,,,,,4,0,2,,,1,,,38,64
81120,note_on,,,,,6,0,2,,,1,,,38,80
81120,note_on,,,,,0,0,2,,,1,,,50,87
81120,note_on,,,,,0,0,1,,,0,,,62,83
81120,note_on,,,,,7,0,1,,,0,,,66,85
81120,note_on,,,,,0,0,1,,,0,,,60,82
81120,note_on,,,,,0,0,2,,,1,,,45,86
81192,note_off,,,,,72,0,1,,,0,,,60,64
81193,note_off,,,,,1,0,1,,,0,,,62,64
81194,note_off,,,,,1,0,1,,,0,,,66,64
81200,note_on,,,,,0,0,1,,,0,,,66,83
81200,note_on,,,,,0,0,1,,,0,,,62,78
81200,note_on,,,,,6,0,1,,,0,,,60,81
81232,note_off,,,,,112,0,2,,,1,,,45,64
81234,note_off,,,,,0,0,2,,,1,,,38,64
81234,note_off,,,,,2,0,2,,,1,,,50,64
81271,note_off,,,,,71,0,1,,,0,,,66,64
81272,note_off,,,,,1,0,1,,,0,,,60,64
81274,note_off,,,,,2,0,1,,,0,,,62,64
81280,note_on,,,,,0,0,1,,,0,,,66,82
81280,note_on,,,,,6,0,1,,,0,,,60,78
81280,note_on,,,,,0,0,1,,,0,,,62,84
81350,note_off,,,,,70,0,1,,,0,,,60,64
81351,note_off,,,,,1,0,1,,,0,,,62,64
81353,note_off,,,,,2,0,1,,,0,,,66,64
81360,note_on,,,,,0,0,1,,,0,,,60,77
81360,note_on,,,,,0,0,1,,,0,,,62,81
81360,note_on,,,,,126,0,2,,,1,,,52,85
81360,note_on,,,,,7,0,1,,,0,,,66,85
81431,note_off,,,,,71,0,1,,,0,,,60,64
81433,note_off,,,,,2,0,1,,,0,,,66,64
81434,note_off,,,,,1,0,1,,,0,,,62,64
81440,note_on,,,,,0,0,1,,,0,,,62,79
81440,note_on,,,,,6,0,1,,,0,,,60,85
81440,note_on,,,,,0,0,1,,,0,,,66,81
81470,note_off,,,,,110,0,2,,,1,,,52,64
81480,note_on,,,,,10,0,2,,,1,,,54,83
81512,note_off,,,,,0,0,1,,,0,,,62,64
81512,note_off,,,,,72,0,1,,,0,,,66,64
81514,note_off,,,,,2,0,1,,,0,,,60,64
81520,note_on,,,,,0,0,1,,,0,,,66,85
81520,note_on,,,,,6,0,1,,,0,,,62,83
81520,note_on,,,,,0,0,1,,,0,,,60,78
81590,note_off,,,,,70,0,1,,,0,,,66,64
81592,note_off,,,,,112,0,2,,,1,,,54,64
81593,note_off,,,,,0,0,1,,,0,,,62,64
81593,note_off,,,,,3,0,1,,,0,,,60,64
81600,note_on,,,,,0,0,2,,,1,,,43,81
81600,control_change,,,,,8,0,2,,,1,7,101,,
81600,control_change,,,,,0,0,1,,,0,7,101,,
81600,note_on,,,,,0,0,1,,,0,,,59,88
81600,note_on,,,,,0,0,1,,,0,,,62,85
81600,note_on,,,,,7,0,1,,,0,,,67,86
81600,note_on,,,,,0,0,2,,,1,,,55,86
81671,note_off,,,,,71,0,1,,,0,,,59,64
81672,note_off,,,,,0,0,1,,,0,,,67,64
81672,note_off,,,,,1,0,1,,,0,,,62,64
81675,control_change,,,,,75,0,2,,,1,7,102,,
81675,control_change,,,,,3,0,1,,,0,7,102,,
81680,note_on,,,,,5,0,1,,,0,,,59,85
81680,note_on,,,,,0,0,1,,,0,,,62,77
81680,note_on,,,,,0,0,1,,,0,,,67,78
81750,note_off,,,,,70,0,1,,,0,,,67,64
81751,control_change,,,,,76,0,2,,,1,7,103,,
81751,control_change,,,,,1,0,1,,,0,7,103,,
81753,note_off,,,,,2,0,1,,,0,,,59,64
81754,note_off,,,,,1,0,1,,,0,,,62,64
81760,note_on,,,,,6,0,1,,,0,,,59,78
81760,note_on,,,,,0,0,1,,,0,,,67,85
81760,note_on,,,,,0,0,1,,,0,,,62,81
81827,control_change,,,,,76,0,2,,,1,7,104,,
81827,control_change,,,,,67,0,1,,,0,7,104,,
81830,note_off,,,,,3,0,1,,,0,,,59,64
81831,note_off,,,,,1,0,1,,,0,,,67,64
81833,note_off,,,,,2,0,1,,,0,,,62,64
81840,note_on,,,,,0,0,1,,,0,,,62,78
81840,note_on,,,,,7,0,1,,,0,,,67,79
81840,note_on,,,,,0,0,1,,,0,,,59,84
81902,control_change,,,,,75,0,2,,,1,7,105,,
81902,control_change,,,,,62,0,1,,,0,7,105,,
81910,note_off,,,,,8,0,1,,,0,,,62,64
81911,note_off,,,,,1,0,1,,,0,,,59,64
81912,note_off,,,,,1,0,1,,,0,,,67,64
81920,note_on,,,,,0,0,1,,,0,,,62,81
81920,note_on,,,,,0,0,1,,,0,,,67,85
81920,note_on,,,,,8,0,1,,,0,,,59,77
81978,control_change,,,,,58,0,1,,,0,7,106,,
81978,control_change,,,,,76,0,2,,,1,7,106,,
81991,note_off,,,,,13,0,1,,,0,,,67,64
81993,note_off,,,,,2,0,1,,,0,,,62,64
81994,note_off,,,,,1,0,1,,,0,,,59,64
82000,note_on,,,,,0,0,1,,,0,,,59,81
82000,note_on,,,,,0,0,1,,,0,,,67,80
82000,note_on,,,,,6,0,1,,,0,,,62,80
82054,control_change,,,,,76,0,2,,,1,7,107,,
82054,control_change,,,,,54,0,1,,,0,7,107,,
82070,note_off,,,,,16,0,1,,,0,,,67,64
82071,note_off,,,,,1,0,1,,,0,,,59,64
82073,note_off,,,,,2,0,1,,,0,,,62,64
82073,note_off,,,,,19,0,2,,,1,,,43,64
82074,note_off,,,,,1,0,2,,,1,,,55,64
82080,note_on,,,,,0,0,1,,,0,,,67,81
82080,note_on,,,,,0,0,1,,,0,,,62,81
82080,note_on,,,,,7,0,1,,,0,,,59,80
82080,note_on,,,,,6,0,2,,,1,,,38,86
82130,control_change,,,,,50,0,2,,,1,7,108,,
82130,control_change,,,,,50,0,1,,,0,7,108,,
82150,note_off,,,,,20,0,1,,,0,,,67,64
82151,note_off,,,,,1,0,1,,,0,,,59,64
82152,note_off,,,,,1,0,1,,,0,,,62,64
82160,note_on,,,,,0,0,1,,,0,,,62,80
82160,note_on,,,,,8,0,1,,,0,,,59,80
82160,note_on,,,,,0,0,1,,,0,,,67,82
82205,control_change,,,,,45,0,1,,,0,7,109,,
82205,control_change,,,,,75,0,2,,,1,7,109,,
82230,note_off,,,,,25,0,1,,,0,,,59,64
82231,note_off,,,,,1,0,1,,,0,,,62,64
82232,note_off,,,,,1,0,1,,,0,,,67,64
82240,note_on,,,,,8,0,1,,,0,,,59,83
82240,note_on,,,,,0,0,1,,,0,,,67,85
82240,note_on,,,,,0,0,1,,,0,,,62,77
82281,control_change,,,,,76,0,2,,,1,7,110,,
82281,control_change,,,,,41,0,1,,,0,7,110,,
82310,note_off,,,,,29,0,1,,,0,,,62,64
82312,note_off,,,,,2,0,1,,,0,,,59,64
82312,note_off,,,,,31,0,2,,,1,,,38,64
82314,note_off,,,,,2,0,1,,,0,,,67,64
82320,note_on,,,,,6,0,1,,,0,,,67,79
82320,note_on,,,,,0,0,1,,,0,,,59,78
82320,note_on,,,,,8,0,2,,,1,,,35,85
82320,note_on,,,,,0,0,1,,,0,,,62,84
82357,control_change,,,,,37,0,2,,,1,7,111,,
82357,control_change,,,,,37,0,1,,,0,7,111,,
82390,note_off,,,,,33,0,1,,,0,,,62,64
82392,note_off,,,,,2,0,1,,,0,,,67,64
82393,note_off,,,,,1,0,1,,,0,,,59,64
82400,note_on,,,,,7,0,1,,,0,,,67,82
82400,note_on,,,,,0,0,1,,,0,,,62,77
82400,note_on,,,,,0,0,1,,,0,,,59,83
82433,control_change,,,,,76,0,2,,,1,7,112,,
82433,control_change,,,,,33,0,1,,,0,7,112,,
82470,note_off,,,,,37,0,1,,,0,,,59,64
82471,note_off,,,,,1,0,1,,,0,,,62,64
82471,note_off,,,,,0,0,1,,,0,,,67,64
82480,note_on,,,,,0,0,1,,,0,,,67,77
82480,note_on,,,,,9,0,1,,,0,,,62,78
82480,note_on,,,,,0,0,1,,,0,,,59,84
82508,control_change,,,,,75,0,2,,,1,7,113,,
82508,control_change,,,,,28,0,1,,,0,7,113,,
82551,note_off,,,,,43,0,1,,,0,,,59,64
82551,note_off,,,,,0,0,1,,,0,,,62,64
82552,note_off,,,,,1,0,1,,,0,,,67,64
82552,note_off,,,,,44,0,2,,,1,,,35,64
82560,note_on,,,,,0,0,1,,,0,,,65,85
82560,note_on,,,,,8,0,2,,,1,,,31,84
82560,note_on,,,,,0,0,1,,,0,,,59,88
82560,note_on,,,,,8,0,1,,,0,,,67,87
82584,control_change,,,,,24,0,1,,,0,7,114,,
82584,control_change,,,,,24,0,2,,,1,7,114,,
82631,note_off,,,,,47,0,1,,,0,,,67,64
82632,note_off,,,,,1,0,1,,,0,,,59,64
82633,note_off,,,,,1,0,1,,,0,,,65,64
82640,note_on,,,,,0,0,1,,,0,,,67,84
82640,note_on,,,,,0,0,1,,,0,,,65,80
82640,note_on,,,,,7,0,1,,,0,,,59,84
82660,control_change,,,,,20,0,1,,,0,7,115,,
82660,control_change,,,,,76,0,2,,,1,7,115,,
82711,note_off,,,,,51,0,1,,,0,,,65,64
82711,note_off,,,,,0,0,1,,,0,,,67,64
82712,note_off,,,,,1,0,1,,,0,,,59,64
82720,note_on,,,,,8,0,1,,,0,,,59,84
82720,note_on,,,,,0,0,1,,,0,,,65,84
82720,note_on,,,,,0,0,1,,,0,,,67,85
82736,control_change,,,,,16,0,1,,,0,7,116,,
82736,control_change,,,,,76,0,2,,,1,7,116,,
82790,note_off,,,,,54,0,1,,,0,,,67,64
82791,note_off,,,,,1,0,1,,,0,,,65,64
82794,note_off,,,,,3,0,1,,,0,,,59,64
82800,note_on,,,,,0,0,1,,,0,,,65,80
82800,note_on,,,,,0,0,1,,,0,,,67,83
82800,note_on,,,,,6,0,1,,,0,,,59,83
82811,control_change,,,,,75,0,2,,,1,7,117,,
82811,control_change,,,,,11,0,1,,,0,7,117,,
82871,note_off,,,,,60,0,1,,,0,,,65,64
82872,note_off,,,,,1,0,1,,,0,,,59,64
82874,note_off,,,,,2,0,1,,,0,,,67,64
82880,note_on,,,,,0,0,1,,,0,,,59,77
82880,note_on,,,,,0,0,1,,,0,,,67,78
82880,note_on,,,,,6,0,1,,,0,,,65,78
82887,control_change,,,,,7,0,1,,,0,7,118,,
82887,control_change,,,,,76,0,2,,,1,7,118,,
82952,note_off,,,,,65,0,1,,,0,,,59,64
82953,note_off,,,,,1,0,1,,,0,,,67,64
82954,note_off,,,,,1,0,1,,,0,,,65,64
82960,note_on,,,,,0,0,1,,,0,,,59,77
82960,note_on,,,,,6,0,1,,,0,,,67,81
82960,note_on,,,,,0,0,1,,,0,,,65,77
82963,control_change,,,,,76,0,2,,,1,7,119,,
82963,control_change,,,,,3,0,1,,,0,7,119,,
83031,note_off,,,,,68,0,1,,,0,,,59,64
83032,note_off,,,,,1,0,1,,,0,,,65,64
83033,note_off,,,,,1,0,1,,,0,,,67,64
83033,note_off,,,,,70,0,2,,,1,,,31,64
83039,control_change,,,,,6,0,1,,,0,7,120,,
83039,control_change,,,,,6,0,2,,,1,7,120,,
83040,note_on,,,,,0,0,1,,,0,,,67,86
83040,note_on,,,,,0,0,1,,,0,,,60,84
83040,note_on,,,,,0,0,2,,,1,,,33,87
83040,control_change,,,,,0,0,1,,,0,7,119,,
83040,control_change,,,,,1,0,2,,,1,7,119,,
83040,note_on,,,,,1,0,1,,,0,,,65,84
83065,control_change,,,,,25,0,2,,,1,7,118,,
83065,control_change,,,,,25,0,1,,,0,7,118,,
83090,control_change,,,,,25,0,2,,,1,7,117,,
83090,control_change,,,,,25,0,1,,,0,7,117,,
83110,note_off,,,,,20,0,1,,,0,,,65,64
83111,note_off,,,,,1,0,1,,,0,,,67,64
83112,note_off,,,,,1,0,1,,,0,,,60,64
83115,control_change,,,,,25,0,2,,,1,7,116,,
83115,control_change,,,,,3,0,1,,,0,7,116,,
83120,note_on,,,,,0,0,1,,,0,,,60,82
83120,note_on,,,,,0,0,1,,,0,,,67,80
83120,note_on,,,,,5,0,1,,,0,,,65,79
83140,control_change,,,,,20,0,1,,,0,7,115,,
83140,control_change,,,,,25,0,2,,,1,7,115,,
83166,control_change,,,,,26,0,1,,,0,7,114,,
83166,control_change,,,,,26,0,2,,,1,7,114,,
83190,note_off,,,,,24,0,1,,,0,,,67,64
83191,control_change,,,,,1,0,1,,,0,7,113,,
83191,control_change,,,,,25,0,2,,,1,7,113,,
83192,note_off,,,,,0,0,1,,,0,,,65,64
83192,note_off,,,,,1,0,1,,,0,,,60,64
83200,note_on,,,,,0,0,1,,,0,,,67,77
83200,note_on,,,,,8,0,1,,,0,,,65,83
83200,note_on,,,,,0,0,1,,,0,,,60,85
83216,control_change,,,,,16,0,1,,,0,7,112,,
83216,control_change,,,,,25,0,2,,,1,7,112,,
83241,control_change,,,,,25,0,1,,,0,7,111,,
83241,control_change,,,,,25,0,2,,,1,7,111,,
83266,control_change,,,,,25,0,1,,,0,7,110,,
83266,control_change,,,,,25,0,2,,,1,7,110,,
83270,note_off,,,,,4,0,1,,,0,,,60,64
83271,note_off,,,,,0,0,1,,,0,,,65,64
83271,note_off,,,,,1,0,1,,,0,,,67,64
83273,note_off,,,,,7,0,2,,,1,,,33,64
83280,note_on,,,,,7,0,2,,,1,,,35,78
83280,note_on,,,,,9,0,1,,,0,,,67,85
83280,note_on,,,,,0,0,1,,,0,,,62,82
83280,note_on,,,,,0,0,1,,,0,,,65,80
83292,control_change,,,,,12,0,1,,,0,7,109,,
83292,control_change,,,,,12,0,2,,,1,7,109,,
83317,control_change,,,,,25,0,2,,,1,7,108,,
83317,control_change,,,,,25,0,1,,,0,7,108,,
83342,control_change,,,,,25,0,2,,,1,7,107,,
83342,control_change,,,,,25,0,1,,,0,7,107,,
83352,note_off,,,,,10,0,1,,,0,,,67,64
83353,note_off,,,,,1,0,1,,,0,,,62,64
83354,note_off,,,,,1,0,1,,,0,,,65,64
83360,note_on,,,,,0,0,1,,,0,,,65,85
83360,note_on,,,,,0,0,1,,,0,,,62,85
83360,note_on,,,,,6,0,1,,,0,,,67,82
83367,control_change,,,,,25,0,2,,,1,7,106,,
83367,control_change,,,,,7,0,1,,,0,7,106,,
83392,control_change,,,,,25,0,1,,,0,7,105,,
83392,control_change,,,,,25,0,2,,,1,7,105,,
83418,control_change,,,,,26,0,2,,,1,7,104,,
83418,control_change,,,,,26,0,1,,,0,7,104,,
83432,note_off,,,,,14,0,1,,,0,,,62,64
83433,note_off,,,,,0,0,1,,,0,,,67,64
83433,note_off,,,,,1,0,1,,,0,,,65,64
83440,note_on,,,,,0,0,1,,,0,,,79,79
83440,note_on,,,,,7,0,1,,,0,,,67,83
83443,control_change,,,,,25,0,2,,,1,7,103,,
83443,control_change,,,,,3,0,1,,,0,7,103,,
83468,control_change,,,,,25,0,2,,,1,7,102,,
83468,control_change,,,,,25,0,1,,,0,7,102,,
83493,control_change,,,,,25,0,2,,,1,7,101,,
83493,control_change,,,,,25,0,1,,,0,7,101,,
83511,note_off,,,,,18,0,2,,,1,,,35,64
83512,note_off,,,,,19,0,1,,,0,,,79,64
83514,note_off,,,,,2,0,1,,,0,,,67,64
83519,control_change,,,,,8,0,2,,,1,7,100,,
83519,control_change,,,,,5,0,1,,,0,7,100,,
83520,note_on,,,,,1,0,1,,,0,,,67,74
83520,note_on,,,,,1,0,2,,,1,,,48,78
83520,set_tempo,,,,,5760,1,0,451128,,,,,,
83520,note_on,,,,,0,0,2,,,1,,,36,77
83530,note_on,,,,,10,0,1,,,0,,,79,71
83600,note_on,,,,,70,0,1,,,0,,,72,68
83600,note_off,,,,,0,0,2,,,1,,,48,64
83600,note_on,,,,,0,0,2,,,1,,,55,71
83600,note_off,,,,,80,0,2,,,1,,,36,64
83600,note_on,,,,,0,0,1,,,0,,,76,71
83636,note_off,,,,,36,0,1,,,0,,,72,64
83637,note_off,,,,,1,0,1,,,0,,,76,64
83638,note_off,,,,,1,0,1,,,0,,,67,64
83642,note_off,,,,,4,0,1,,,0,,,79,64
83680,note_off,,,,,80,0,2,,,1,,,55,64
83680,note_on,,,,,0,0,2,,,1,,,64,73
83680,note_on,,,,,0,0,2,,,1,,,60,75
83680,note_on,,,,,0,0,1,,,0,,,76,69
83680,note_on,,,,,38,0,1,,,0,,,72,68
83716,note_off,,,,,36,0,1,,,0,,,76,64
83718,note_off,,,,,2,0,1,,,0,,,72,64
83760,note_off,,,,,0,0,2,,,1,,,64,64
83760,note_on,,,,,42,0,1,,,0,,,69,70
83760,note_off,,,,,80,0,2,,,1,,,60,64
83760,note_on,,,,,0,0,2,,,1,,,60,68
83760,note_on,,,,,0,0,2,,,1,,,64,67
83760,note_on,,,,,0,0,1,,,0,,,81,76
83814,note_off,,,,,0,0,1,,,0,,,69,64
83814,note_off,,,,,54,0,1,,,0,,,81,64
83840,note_off,,,,,80,0,2,,,1,,,60,64
83840,note_on,,,,,0,0,2,,,1,,,55,68
83840,note_off,,,,,0,0,2,,,1,,,64,64
83880,note_on,,,,,0,0,1,,,0,,,83,74
83880,note_on,,,,,66,0,1,,,0,,,71,74
83920,note_on,,,,,0,0,2,,,1,,,48,75
83920,note_off,,,,,80,0,2,,,1,,,55,64
83935,note_off,,,,,55,0,1,,,0,,,71,64
83937,note_off,,,,,2,0,1,,,0,,,83,64
84000,note_on,,,,,63,0,1,,,0,,,72,72
84000,note_off,,,,,80,0,2,,,1,,,48,64
84000,note_on,,,,,0,0,2,,,1,,,48,69
84010,note_on,,,,,10,0,1,,,0,,,84,69
84080,note_on,,,,,0,0,2,,,1,,,55,67
84080,note_on,,,,,0,0,1,,,0,,,79,74
84080,note_off,,,,,80,0,2,,,1,,,48,64
84080,note_on,,,,,70,0,1,,,0,,,76,68
84116,note_off,,,,,36,0,1,,,0,,,76,64
84117,note_off,,,,,1,0,1,,,0,,,79,64
84118,note_off,,,,,1,0,1,,,0,,,72,64
84120,note_off,,,,,2,0,1,,,0,,,84,64
84160,note_on,,,,,0,0,1,,,0,,,76,73
84160,note_on,,,,,40,0,1,,,0,,,72,75
84160,note_on,,,,,0,0,2,,,1,,,60,74
84160,note_on,,,,,0,0,2,,,1,,,64,70
84160,note_off,,,,,80,0,2,,,1,,,55,64
84194,note_off,,,,,34,0,1,,,0,,,72,64
84195,note_off,,,,,1,0,1,,,0,,,76,64
84240,note_on,,,,,45,0,1,,,0,,,72,77
84240,note_on,,,,,0,0,2,,,1,,,60,71
84240,note_on,,,,,0,0,1,,,0,,,84,71
84240,note_off,,,,,0,0,2,,,1,,,64,64
84240,note_off,,,,,80,0,2,,,1,,,60,64
84240,note_on,,,,,0,0,2,,,1,,,64,72
84296,note_off,,,,,56,0,1,,,0,,,72,64
84298,note_off,,,,,2,0,1,,,0,,,84,64
84320,note_off,,,,,0,0,2,,,1,,,64,64
84320,note_off,,,,,80,0,2,,,1,,,60,64
84320,note_on,,,,,0,0,2,,,1,,,55,69
84360,note_on,,,,,0,0,1,,,0,,,85,72
84360,note_on,,,,,62,0,1,,,0,,,73,71
84400,note_off,,,,,80,0,2,,,1,,,55,64
84400,note_on,,,,,0,0,2,,,1,,,48,67
84415,note_off,,,,,55,0,1,,,0,,,85,64
84418,note_off,,,,,3,0,1,,,0,,,73,64
84480,note_on,,,,,0,0,2,,,1,,,48,75
84480,note_on,,,,,62,0,1,,,0,,,74,78
84480,note_off,,,,,80,0,2,,,1,,,48,64
84490,note_on,,,,,10,0,1,,,0,,,86,79
84560,note_on,,,,,0,0,2,,,1,,,55,68
84560,note_on,,,,,70,0,1,,,0,,,79,68
84560,note_on,,,,,0,0,1,,,0,,,77,68
84560,note_off,,,,,80,0,2,,,1,,,48,64
84595,note_off,,,,,0,0,1,,,0,,,79,64
84595,note_off,,,,,35,0,1,,,0,,,77,64
84597,note_off,,,,,2,0,1,,,0,,,74,64
84602,note_off,,,,,5,0,1,,,0,,,86,64
84640,note_on,,,,,0,0,2,,,1,,,59,67
84640,note_on,,,,,0,0,1,,,0,,,79,74
84640,note_on,,,,,38,0,1,,,0,,,77,68
84640,note_on,,,,,0,0,2,,,1,,,65,73
84640,note_off,,,,,80,0,2,,,1,,,55,64
84675,note_off,,,,,35,0,1,,,0,,,77,64
84676,note_off,,,,,1,0,1,,,0,,,79,64
84720,note_off,,,,,80,0,2,,,1,,,59,64
84720,note_on,,,,,44,0,1,,,0,,,67,71
84720,note_off,,,,,0,0,2,,,1,,,65,64
84720,note_on,,,,,0,0,2,,,1,,,65,75
84720,note_on,,,,,0,0,2,,,1,,,59,73
84730,note_on,,,,,10,0,1,,,0,,,74,69
84740,note_on,,,,,10,0,1,,,0,,,79,70
84800,note_off,,,,,80,0,2,,,1,,,59,64
84800,note_off,,,,,0,0,2,,,1,,,65,64
84800,note_on,,,,,0,0,2,,,1,,,55,74
84837,note_off,,,,,97,0,1,,,0,,,67,64
84843,note_off,,,,,6,0,1,,,0,,,74,64
84844,note_off,,,,,1,0,1,,,0,,,79,64
84880,note_off,,,,,80,0,2,,,1,,,55,64
84880,note_on,,,,,0,0,2,,,1,,,48,68
84960,note_off,,,,,80,0,2,,,1,,,48,64
84960,note_on,,,,,0,0,2,,,1,,,48,76
84960,note_on,,,,,116,0,1,,,0,,,76,72
84970,note_on,,,,,10,0,1,,,0,,,88,70
85040,note_off,,,,,80,0,2,,,1,,,48,64
85040,note_on,,,,,0,0,2,,,1,,,55,75
85040,note_on,,,,,70,0,1,,,0,,,79,71
85074,note_off,,,,,34,0,1,,,0,,,79,64
85077,note_off,,,,,3,0,1,,,0,,,76,64
85083,note_off,,,,,6,0,1,,,0,,,88,64
85120,note_on,,,,,0,0,2,,,1,,,60,70
85120,note_on,,,,,0,0,2,,,1,,,64,68
85120,note_off,,,,,80,0,2,,,1,,,55,64
85120,note_on,,,,,37,0,1,,,0,,,79,71
85154,note_off,,,,,34,0,1,,,0,,,79,64
85200,note_off,,,,,0,0,2,,,1,,,64,64
85200,note_off,,,,,80,0,2,,,1,,,60,64
85200,note_on,,,,,0,0,1,,,0,,,86,72
85200,note_on,,,,,46,0,1,,,0,,,74,75
85200,note_on,,,,,0,0,2,,,1,,,64,69
85200,note_on,,,,,0,0,2,,,1,,,60,69
85257,note_off,,,,,57,0,1,,,0,,,86,64
85258,note_off,,,,,1,0,1,,,0,,,74,64
85280,note_off,,,,,80,0,2,,,1,,,60,64
85280,note_off,,,,,0,0,2,,,1,,,64,64
85280,note_on,,,,,0,0,2,,,1,,,55,73
85320,note_on,,,,,62,0,1,,,0,,,72,72
85320,note_on,,,,,0,0,1,,,0,,,84,69
85360,note_on,,,,,0,0,2,,,1,,,48,75
85360,note_off,,,,,80,0,2,,,1,,,55,64
85375,note_off,,,,,55,0,1,,,0,,,72,64
85376,note_off,,,,,1,0,1,,,0,,,84,64
85440,note_off,,,,,80,0,2,,,1,,,48,64
85440,note_on,,,,,0,0,2,,,1,,,52,75
85440,note_on,,,,,64,0,1,,,0,,,71,78
85450,note_on,,,,,10,0,1,,,0,,,83,74
85520,note_on,,,,,0,0,2,,,1,,,59,71
85520,note_on,,,,,0,0,1,,,0,,,74,69
85520,note_on,,,,,70,0,1,,,0,,,76,67
85520,note_off,,,,,80,0,2,,,1,,,52,64
85555,note_off,,,,,35,0,1,,,0,,,74,64
85557,note_off,,,,,2,0,1,,,0,,,71,64
85558,note_off,,,,,1,0,1,,,0,,,76,64
85559,note_off,,,,,1,0,1,,,0,,,83,64
85600,note_on,,,,,0,0,2,,,1,,,62,74
85600,note_on,,,,,0,0,2,,,1,,,68,75
85600,note_on,,,,,0,0,1,,,0,,,74,71
85600,note_on,,,,,41,0,1,,,0,,,76,68
85600,note_off,,,,,80,0,2,,,1,,,59,64
85638,note_off,,,,,0,0,1,,,0,,,76,64
85638,note_off,,,,,38,0,1,,,0,,,74,64
85680,note_on,,,,,42,0,1,,,0,,,64,70
85680,note_on,,,,,0,0,2,,,1,,,62,73
85680,note_off,,,,,0,0,2,,,1,,,68,64
85680,note_on,,,,,0,0,2,,,1,,,68,73
85680,note_off,,,,,80,0,2,,,1,,,62,64
85690,note_on,,,,,10,0,1,,,0,,,71,75
85700,note_on,,,,,10,0,1,,,0,,,76,70
85760,note_off,,,,,0,0,2,,,1,,,68,64
85760,note_on,,,,,0,0,2,,,1,,,59,67
85760,note_off,,,,,80,0,2,,,1,,,62,64
85797,note_off,,,,,97,0,1,,,0,,,64,64
85800,note_off,,,,,3,0,1,,,0,,,71,64
85807,note_off,,,,,7,0,1,,,0,,,76,64
85840,note_off,,,,,80,0,2,,,1,,,59,64
85840,note_on,,,,,0,0,2,,,1,,,52,72
85920,note_off,,,,,80,0,2,,,1,,,52,64
85920,note_on,,,,,0,0,2,,,1,,,45,73
85920,note_on,,,,,113,0,1,,,0,,,72,75
85930,note_on,,,,,10,0,1,,,0,,,84,74
86000,note_off,,,,,80,0,2,,,1,,,45,64
86000,note_on,,,,,0,0,2,,,1,,,52,71
86000,note_on,,,,,70,0,1,,,0,,,76,72
86037,note_off,,,,,0,0,1,,,0,,,72,64
86037,note_off,,,,,37,0,1,,,0,,,76,64
86042,note_off,,,,,5,0,1,,,0,,,84,64
86080,note_off,,,,,80,0,2,,,1,,,52,64
86080,note_on,,,,,38,0,1,,,0,,,76,68
86080,note_on,,,,,0,0,2,,,1,,,57,70
86080,note_on,,,,,0,0,2,,,1,,,60,72
86116,note_off,,,,,36,0,1,,,0,,,76,64
86160,note_on,,,,,0,0,1,,,0,,,69,74
86160,note_on,,,,,0,0,2,,,1,,,57,67
86160,note_on,,,,,0,0,2,,,1,,,60,70
86160,note_on,,,,,44,0,1,,,0,,,81,69
86160,note_off,,,,,80,0,2,,,1,,,57,64
86160,note_off,,,,,0,0,2,,,1,,,60,64
86215,note_off,,,,,55,0,1,,,0,,,81,64
86217,note_off,,,,,2,0,1,,,0,,,69,64
86240,note_off,,,,,80,0,2,,,1,,,57,64
86240,note_off,,,,,0,0,2,,,1,,,60,64
86240,note_on,,,,,0,0,2,,,1,,,52,71
86280,note_on,,,,,63,0,1,,,0,,,81,75
86280,note_on,,,,,0,0,1,,,0,,,69,74
86320,note_off,,,,,80,0,2,,,1,,,52,64
86320,note_on,,,,,0,0,2,,,1,,,45,68
86336,note_off,,,,,56,0,1,,,0,,,81,64
86337,note_off,,,,,1,0,1,,,0,,,69,64
86400,note_off,,,,,80,0,2,,,1,,,45,64
86400,note_on,,,,,63,0,1,,,0,,,71,78
86400,note_on,,,,,0,0,2,,,1,,,52,73
86410,note_on,,,,,10,0,1,,,0,,,83,72
86480,note_on,,,,,0,0,1,,,0,,,74,74
86480,note_on,,,,,70,0,1,,,0,,,76,69
86480,note_off,,,,,80,0,2,,,1,,,52,64
86480,note_on,,,,,0,0,2,,,1,,,59,73
86515,note_off,,,,,35,0,1,,,0,,,71,64
86516,note_off,,,,,1,0,1,,,0,,,74,64
86518,note_off,,,,,2,0,1,,,0,,,76,64
86522,note_off,,,,,4,0,1,,,0,,,83,64
86560,note_off,,,,,80,0,2,,,1,,,59,64
86560,note_on,,,,,0,0,1,,,0,,,76,69
86560,note_on,,,,,0,0,2,,,1,,,62,72
86560,note_on,,,,,0,0,2,,,1,,,68,71
86560,note_on,,,,,38,0,1,,,0,,,74,71
86598,note_off,,,,,38,0,1,,,0,,,76,64
86598,note_off,,,,,0,0,1,,,0,,,74,64
86640,note_off,,,,,0,0,2,,,1,,,68,64
86640,note_off,,,,,80,0,2,,,1,,,62,64
86640,note_on,,,,,42,0,1,,,0,,,64,74
86640,note_on,,,,,0,0,2,,,1,,,68,70
86640,note_on,,,,,0,0,2,,,1,,,62,67
86650,note_on,,,,,10,0,1,,,0,,,71,68
86660,note_on,,,,,10,0,1,,,0,,,76,71
86720,note_off,,,,,0,0,2,,,1,,,68,64
86720,note_off,,,,,80,0,2,,,1,,,62,64
86720,note_on,,,,,0,0,2,,,1,,,59,72
86756,note_off,,,,,96,0,1,,,0,,,64,64
86763,note_off,,,,,7,0,1,,,0,,,71,64
86766,note_off,,,,,3,0,1,,,0,,,76,64
86800,note_on,,,,,0,0,2,,,1,,,52,74
86800,note_off,,,,,80,0,2,,,1,,,59,64
86880,note_on,,,,,114,0,1,,,0,,,72,74
86880,note_off,,,,,80,0,2,,,1,,,52,64
86880,note_on,,,,,0,0,2,,,1,,,45,74
86890,note_on,,,,,10,0,1,,,0,,,84,77
86960,note_on,,,,,70,0,1,,,0,,,76,68
86960,note_off,,,,,80,0,2,,,1,,,45,64
86960,note_on,,,,,0,0,1,,,0,,,72,74
86960,note_on,,,,,0,0,2,,,1,,,52,74
86996,note_off,,,,,36,0,1,,,0,,,72,64
86997,note_off,,,,,1,0,1,,,0,,,72,64
86997,note_off,,,,,0,0,1,,,0,,,76,64
87003,note_off,,,,,6,0,1,,,0,,,84,64
87040,note_on,,,,,0,0,2,,,1,,,57,69
87040,note_on,,,,,0,0,1,,,0,,,76,75
87040,note_off,,,,,80,0,2,,,1,,,52,64
87040,note_on,,,,,0,0,2,,,1,,,60,74
87040,note_on,,,,,37,0,1,,,0,,,72,67
87074,note_off,,,,,34,0,1,,,0,,,76,64
87076,note_off,,,,,2,0,1,,,0,,,72,64
87120,note_on,,,,,0,0,2,,,1,,,57,67
87120,note_on,,,,,0,0,2,,,1,,,60,68
87120,note_on,,,,,0,0,1,,,0,,,69,73
87120,note_off,,,,,80,0,2,,,1,,,57,64
87120,note_on,,,,,44,0,1,,,0,,,81,72
87120,note_off,,,,,0,0,2,,,1,,,60,64
87176,note_off,,,,,56,0,1,,,0,,,69,64
87177,note_off,,,,,1,0,1,,,0,,,81,64
87200,note_off,,,,,80,0,2,,,1,,,57,64
87200,note_off,,,,,0,0,2,,,1,,,60,64
87200,note_on,,,,,0,0,2,,,1,,,52,71
87240,note_on,,,,,63,0,1,,,0,,,69,67
87240,note_on,,,,,0,0,1,,,0,,,81,70
87280,note_on,,,,,0,0,2,,,1,,,45,67
87280,note_off,,,,,80,0,2,,,1,,,52,64
87295,note_off,,,,,55,0,1,,,0,,,81,64
87298,note_off,,,,,3,0,1,,,0,,,69,64
87360,note_on,,,,,0,0,2,,,1,,,50,77
87360,note_on,,,,,62,0,1,,,0,,,69,72
87360,note_off,,,,,80,0,2,,,1,,,45,64
87370,note_on,,,,,10,0,1,,,0,,,81,76
87440,note_on,,,,,70,0,1,,,0,,,72,68
87440,note_off,,,,,80,0,2,,,1,,,50,64
87440,note_on,,,,,0,0,2,,,1,,,57,71
87440,note_on,,,,,0,0,1,,,0,,,74,73
87476,note_off,,,,,0,0,1,,,0,,,69,64
87476,note_off,,,,,36,0,1,,,0,,,72,64
87478,note_off,,,,,2,0,1,,,0,,,74,64
87481,note_off,,,,,3,0,1,,,0,,,81,64
87520,note_on,,,,,0,0,1,,,0,,,74,69
87520,note_on,,,,,0,0,2,,,1,,,66,72
87520,note_on,,,,,39,0,1,,,0,,,72,75
87520,note_off,,,,,80,0,2,,,1,,,57,64
87520,note_on,,,,,0,0,2,,,1,,,60,75
87555,note_off,,,,,35,0,1,,,0,,,74,64
87557,note_off,,,,,2,0,1,,,0,,,72,64
87600,note_off,,,,,0,0,2,,,1,,,66,64
87600,note_on,,,,,0,0,1,,,0,,,68,68
87600,note_on,,,,,43,0,1,,,0,,,80,72
87600,note_off,,,,,80,0,2,,,1,,,60,64
87600,note_on,,,,,0,0,2,,,1,,,60,71
87600,note_on,,,,,0,0,2,,,1,,,66,72
87655,note_off,,,,,55,0,1,,,0,,,80,64
87657,note_off,,,,,2,0,1,,,0,,,68,64
87680,note_off,,,,,0,0,2,,,1,,,66,64
87680,note_off,,,,,80,0,2,,,1,,,60,64
87680,note_on,,,,,0,0,2,,,1,,,57,75
87720,note_on,,,,,63,0,1,,,0,,,81,73
87720,note_on,,,,,0,0,1,,,0,,,69,70
87760,note_on,,,,,0,0,2,,,1,,,50,71
87760,note_off,,,,,80,0,2,,,1,,,57,64
87775,note_off,,,,,55,0,1,,,0,,,81,64
87777,note_off,,,,,2,0,1,,,0,,,69,64
87840,note_on,,,,,0,0,2,,,1,,,43,72
87840,note_off,,,,,80,0,2,,,1,,,50,64
87840,note_on,,,,,63,0,1,,,0,,,71,75
87850,note_on,,,,,10,0,1,,,0,,,83,72
87920,note_on,,,,,0,0,2,,,1,,,50,69
87920,note_on,,,,,0,0,1,,,0,,,74,69
87920,note_off,,,,,80,0,2,,,1,,,43,64
87920,note_on,,,,,70,0,1,,,0,,,71,67
87954,note_off,,,,,0,0,1,,,0,,,71,64
87954,note_off,,,,,34,0,1,,,0,,,74,64
87956,note_off,,,,,2,0,1,,,0,,,71,64
87960,note_off,,,,,4,0,1,,,0,,,83,64
88000,note_on,,,,,0,0,1,,,0,,,71,73
88000,note_on,,,,,0,0,2,,,1,,,59,69
88000,note_off,,,,,80,0,2,,,1,,,50,64
88000,note_on,,,,,0,0,2,,,1,,,55,74
88000,note_on,,,,,40,0,1,,,0,,,74,72
88034,note_off,,,,,34,0,1,,,0,,,74,64
88035,note_off,,,,,1,0,1,,,0,,,71,64
88080,note_on,,,,,0,0,2,,,1,,,55,74
88080,note_off,,,,,0,0,2,,,1,,,59,64
88080,note_on,,,,,0,0,1,,,0,,,79,72
88080,note_on,,,,,45,0,1,,,0,,,67,68
88080,note_on,,,,,0,0,2,,,1,,,59,67
88080,note_off,,,,,80,0,2,,,1,,,55,64
88135,note_off,,,,,55,0,1,,,0,,,79,64
88135,note_off,,,,,0,0,1,,,0,,,67,64
88160,note_off,,,,,80,0,2,,,1,,,55,64
88160,note_off,,,,,0,0,2,,,1,,,59,64
88160,note_on,,,,,0,0,2,,,1,,,50,71
88200,note_on,,,,,65,0,1,,,0,,,79,73
88200,note_on,,,,,0,0,1,,,0,,,67,73
88240,note_on,,,,,0,0,2,,,1,,,43,67
88240,note_off,,,,,80,0,2,,,1,,,50,64
88256,note_off,,,,,56,0,1,,,0,,,79,64
88258,note_off,,,,,2,0,1,,,0,,,67,64
88320,note_on,,,,,62,0,1,,,0,,,69,75
88320,note_on,,,,,0,0,2,,,1,,,50,76
88320,note_off,,,,,80,0,2,,,1,,,43,64
88330,note_on,,,,,10,0,1,,,0,,,81,77
88400,note_off,,,,,80,0,2,,,1,,,50,64
88400,note_on,,,,,0,0,2,,,1,,,57,74
88400,note_on,,,,,0,0,1,,,0,,,72,72
88400,note_on,,,,,70,0,1,,,0,,,74,72
88435,note_off,,,,,35,0,1,,,0,,,74,64
88437,note_off,,,,,0,0,1,,,0,,,69,64
88437,note_off,,,,,2,0,1,,,0,,,72,64
88441,note_off,,,,,4,0,1,,,0,,,81,64
88480,note_off,,,,,80,0,2,,,1,,,57,64
88480,note_on,,,,,0,0,1,,,0,,,74,68
88480,note_on,,,,,39,0,1,,,0,,,72,69
88480,note_on,,,,,0,0,2,,,1,,,60,67
88480,note_on,,,,,0,0,2,,,1,,,66,67
88515,note_off,,,,,35,0,1,,,0,,,74,64
88517,note_off,,,,,2,0,1,,,0,,,72,64
88560,note_off,,,,,0,0,2,,,1,,,66,64
88560,note_on,,,,,43,0,1,,,0,,,62,74
88560,note_on,,,,,0,0,2,,,1,,,60,73
88560,note_on,,,,,0,0,2,,,1,,,66,74
88560,note_off,,,,,80,0,2,,,1,,,60,64
88570,note_on,,,,,10,0,1,,,0,,,69,70
88580,note_on,,,,,10,0,1,,,0,,,74,74
88640,note_on,,,,,0,0,2,,,1,,,57,69
88640,note_off,,,,,80,0,2,,,1,,,60,64
88640,note_off,,,,,0,0,2,,,1,,,66,64
88674,note_off,,,,,94,0,1,,,0,,,62,64
88679,note_off,,,,,5,0,1,,,0,,,69,64
88684,note_off,,,,,5,0,1,,,0,,,74,64
88720,note_off,,,,,80,0,2,,,1,,,57,64
88720,note_on,,,,,0,0,2,,,1,,,50,68
88800,note_on,,,,,0,0,2,,,1,,,43,76
88800,note_on,,,,,116,0,1,,,0,,,71,71
88800,note_off,,,,,80,0,2,,,1,,,50,64
88810,note_on,,,,,10,0,1,,,0,,,83,76
88880,note_off,,,,,80,0,2,,,1,,,43,64
88880,note_on,,,,,0,0,1,,,0,,,74,70
88880,note_on,,,,,70,0,1,,,0,,,71,73
88880,note_on,,,,,0,0,2,,,1,,,50,75
88914,note_off,,,,,0,0,1,,,0,,,71,64
88914,note_off,,,,,34,0,1,,,0,,,74,64
88916,note_off,,,,,2,0,1,,,0,,,71,64
88919,note_off,,,,,3,0,1,,,0,,,83,64
88960,note_on,,,,,0,0,2,,,1,,,59,68
88960,note_on,,,,,41,0,1,,,0,,,74,67
88960,note_off,,,,,80,0,2,,,1,,,50,64
88960,note_on,,,,,0,0,2,,,1,,,55,74
88960,note_on,,,,,0,0,1,,,0,,,71,71
88997,note_off,,,,,37,0,1,,,0,,,74,64
88998,note_off,,,,,1,0,1,,,0,,,71,64
89040,note_on,,,,,0,0,2,,,1,,,55,73
89040,note_on,,,,,0,0,2,,,1,,,59,70
89040,note_off,,,,,80,0,2,,,1,,,55,64
89040,note_off,,,,,0,0,2,,,1,,,59,64
89040,note_on,,,,,42,0,1,,,0,,,79,67
89040,note_on,,,,,0,0,1,,,0,,,67,68
89096,note_off,,,,,0,0,1,,,0,,,79,64
89096,note_off,,,,,56,0,1,,,0,,,67,64
89120,note_on,,,,,0,0,2,,,1,,,50,72
89120,note_off,,,,,80,0,2,,,1,,,55,64
89120,note_off,,,,,0,0,2,,,1,,,59,64
89160,note_on,,,,,64,0,1,,,0,,,67,74
89160,note_on,,,,,0,0,1,,,0,,,79,72
89200,note_on,,,,,0,0,2,,,1,,,43,69
89200,note_off,,,,,80,0,2,,,1,,,50,64
89214,note_off,,,,,54,0,1,,,0,,,67,64
89218,note_off,,,,,4,0,1,,,0,,,79,64
89280,note_on,,,,,62,0,1,,,0,,,67,78
89280,note_on,,,,,0,0,2,,,1,,,43,78
89280,note_off,,,,,80,0,2,,,1,,,43,64
89290,note_on,,,,,10,0,1,,,0,,,79,71
89360,note_on,,,,,0,0,2,,,1,,,50,74
89360,note_on,,,,,0,0,2,,,1,,,53,72
89360,note_on,,,,,70,0,1,,,0,,,74,70
89360,note_on,,,,,0,0,1,,,0,,,77,75
89360,note_off,,,,,80,0,2,,,1,,,43,64
89394,note_off,,,,,34,0,1,,,0,,,67,64
89398,note_off,,,,,4,0,1,,,0,,,77,64
89398,note_off,,,,,0,0,1,,,0,,,74,64
89401,note_off,,,,,3,0,1,,,0,,,79,64
89440,note_on,,,,,39,0,1,,,0,,,77,69
89440,note_on,,,,,0,0,1,,,0,,,74,72
89440,note_on,,,,,0,0,2,,,1,,,59,75
89440,note_off,,,,,0,0,2,,,1,,,53,64
89440,note_off,,,,,80,0,2,,,1,,,50,64
89476,note_off,,,,,36,0,1,,,0,,,74,64
89478,note_off,,,,,2,0,1,,,0,,,77,64
89520,note_off,,,,,80,0,2,,,1,,,59,64
89520,note_on,,,,,42,0,1,,,0,,,81,71
89520,note_on,,,,,0,0,1,,,0,,,69,73
89520,note_on,,,,,0,0,2,,,1,,,59,67
89575,note_off,,,,,55,0,1,,,0,,,69,64
89576,note_off,,,,,1,0,1,,,0,,,81,64
89600,note_on,,,,,0,0,2,,,1,,,50,71
89600,note_on,,,,,0,0,2,,,1,,,53,73
89600,note_off,,,,,80,0,2,,,1,,,59,64
89640,note_on,,,,,0,0,1,,,0,,,83,70
89640,note_on,,,,,64,0,1,,,0,,,71,67
89680,note_off,,,,,0,0,2,,,1,,,53,64
89680,note_on,,,,,0,0,2,,,1,,,43,70
89680,note_off,,,,,80,0,2,,,1,,,50,64
89696,note_off,,,,,56,0,1,,,0,,,71,64
89697,note_off,,,,,1,0,1,,,0,,,83,64
89760,note_on,,,,,63,0,1,,,0,,,72,70
89760,note_on,,,,,0,0,2,,,1,,,43,69
89760,note_off,,,,,80,0,2,,,1,,,43,64
89770,note_on,,,,,10,0,1,,,0,,,84,71
89840,note_on,,,,,0,0,1,,,0,,,76,69
89840,note_on,,,,,70,0,1,,,0,,,79,74
89840,note_off,,,,,80,0,2,,,1,,,43,64
89840,note_on,,,,,0,0,2,,,1,,,55,71
89840,note_on,,,,,0,0,2,,,1,,,52,72
89874,note_off,,,,,0,0,1,,,0,,,79,64
89874,note_off,,,,,0,0,1,,,0,,,72,64
89874,note_off,,,,,34,0,1,,,0,,,76,64
89882,note_off,,,,,8,0,1,,,0,,,84,64
89920,note_off,,,,,0,0,2,,,1,,,55,64
89920,note_on,,,,,0,0,1,,,0,,,79,70
89920,note_off,,,,,80,0,2,,,1,,,52,64
89920,note_on,,,,,38,0,1,,,0,,,76,72
89920,note_on,,,,,0,0,2,,,1,,,60,73
89954,note_off,,,,,34,0,1,,,0,,,76,64
89957,note_off,,,,,3,0,1,,,0,,,79,64
90000,note_on,,,,,43,0,1,,,0,,,74,70
90000,note_on,,,,,0,0,1,,,0,,,86,75
90000,note_off,,,,,80,0,2,,,1,,,60,64
90000,note_on,,,,,0,0,2,,,1,,,60,67
90055,note_off,,,,,55,0,1,,,0,,,74,64
90058,note_off,,,,,3,0,1,,,0,,,86,64
90080,note_on,,,,,0,0,2,,,1,,,52,73
90080,note_off,,,,,80,0,2,,,1,,,60,64
90080,note_on,,,,,0,0,2,,,1,,,55,70
90120,note_on,,,,,0,0,1,,,0,,,88,75
90120,note_on,,,,,62,0,1,,,0,,,76,70
90160,note_off,,,,,0,0,2,,,1,,,55,64
90160,note_on,,,,,0,0,2,,,1,,,43,69
90160,note_off,,,,,80,0,2,,,1,,,52,64
90176,note_off,,,,,56,0,1,,,0,,,88,64
90178,note_off,,,,,2,0,1,,,0,,,76,64
90240,note_on,,,,,0,0,2,,,1,,,43,71
90240,note_off,,,,,80,0,2,,,1,,,43,64
90240,note_on,,,,,62,0,1,,,0,,,77,75
90250,note_on,,,,,10,0,1,,,0,,,89,75
90320,note_on,,,,,70,0,1,,,0,,,79,75
90320,note_on,,,,,0,0,2,,,1,,,53,74
90320,note_off,,,,,80,0,2,,,1,,,43,64
90320,note_on,,,,,0,0,1,,,0,,,77,67
90320,note_on,,,,,0,0,2,,,1,,,50,75
90355,note_off,,,,,35,0,1,,,0,,,77,64
90356,note_off,,,,,1,0,1,,,0,,,77,64
90358,note_off,,,,,2,0,1,,,0,,,79,64
90360,note_off,,,,,2,0,1,,,0,,,89,64
90400,note_on,,,,,0,0,2,,,1,,,59,73
90400,note_off,,,,,80,0,2,,,1,,,50,64
90400,note_on,,,,,40,0,1,,,0,,,79,74
90400,note_off,,,,,0,0,2,,,1,,,53,64
90400,note_on,,,,,0,0,1,,,0,,,77,70
90434,note_off,,,,,34,0,1,,,0,,,79,64
90437,note_off,,,,,3,0,1,,,0,,,77,64
90480,note_on,,,,,0,0,2,,,1,,,59,72
90480,note_off,,,,,80,0,2,,,1,,,59,64
90480,note_on,,,,,0,0,1,,,0,,,84,70
90480,note_on,,,,,43,0,1,,,0,,,74,69
90534,note_off,,,,,54,0,1,,,0,,,74,64
90538,note_off,,,,,4,0,1,,,0,,,84,64
90560,note_off,,,,,80,0,2,,,1,,,59,64
90560,note_on,,,,,0,0,2,,,1,,,50,74
90560,note_on,,,,,0,0,2,,,1,,,53,71
90600,note_on,,,,,0,0,1,,,0,,,71,67
90600,note_on,,,,,62,0,1,,,0,,,83,67
90640,note_on,,,,,0,0,2,,,1,,,43,75
90640,note_off,,,,,80,0,2,,,1,,,50,64
90640,note_off,,,,,0,0,2,,,1,,,53,64
90654,note_off,,,,,54,0,1,,,0,,,83,64
90656,note_off,,,,,2,0,1,,,0,,,71,64
90720,note_on,,,,,0,0,2,,,1,,,43,74
90720,note_off,,,,,80,0,2,,,1,,,43,64
90720,note_on,,,,,64,0,1,,,0,,,72,74
90730,note_on,,,,,10,0,1,,,0,,,84,70
90800,note_on,,,,,70,0,1,,,0,,,79,68
90800,note_on,,,,,0,0,2,,,1,,,52,70
90800,note_on,,,,,0,0,2,,,1,,,55,69
90800,note_off,,,,,80,0,2,,,1,,,43,64
90800,note_on,,,,,0,0,1,,,0,,,76,68
90834,note_off,,,,,34,0,1,,,0,,,76,64
90835,note_off,,,,,1,0,1,,,0,,,79,64
90838,note_off,,,,,3,0,1,,,0,,,72,64
90841,note_off,,,,,3,0,1,,,0,,,84,64
90880,note_on,,,,,39,0,1,,,0,,,79,73
90880,note_off,,,,,0,0,2,,,1,,,55,64
90880,note_on,,,,,0,0,2,,,1,,,60,67
90880,note_on,,,,,0,0,1,,,0,,,76,75
90880,note_off,,,,,80,0,2,,,1,,,52,64
90914,note_off,,,,,34,0,1,,,0,,,79,64
90916,note_off,,,,,2,0,1,,,0,,,76,64
90960,note_off,,,,,80,0,2,,,1,,,60,64
90960,note_on,,,,,0,0,1,,,0,,,67,75
90960,note_on,,,,,0,0,2,,,1,,,60,74
90960,note_on,,,,,44,0,1,,,0,,,79,68
91014,note_off,,,,,54,0,1,,,0,,,79,64
91018,note_off,,,,,4,0,1,,,0,,,67,64
91040,note_on,,,,,0,0,2,,,1,,,52,70
91040,note_off,,,,,80,0,2,,,1,,,60,64
91040,note_on,,,,,0,0,2,,,1,,,55,72
91080,note_on,,,,,0,0,1,,,0,,,67,69
91080,note_on,,,,,62,0,1,,,0,,,79,70
91120,note_off,,,,,0,0,2,,,1,,,55,64
91120,note_on,,,,,0,0,2,,,1,,,43,73
91120,note_off,,,,,80,0,2,,,1,,,52,64
91134,note_off,,,,,54,0,1,,,0,,,67,64
91138,note_off,,,,,4,0,1,,,0,,,79,64
91200,note_on,,,,,62,0,1,,,0,,,67,77
91200,note_on,,,,,0,0,2,,,1,,,43,78
91200,note_off,,,,,80,0,2,,,1,,,43,64
91210,note_on,,,,,10,0,1,,,0,,,79,71
91280,note_on,,,,,70,0,1,,,0,,,77,73
91280,note_on,,,,,0,0,2,,,1,,,50,72
91280,note_on,,,,,0,0,1,,,0,,,74,71
91280,note_on,,,,,0,0,2,,,1,,,53,68
91280,note_off,,,,,80,0,2,,,1,,,43,64
91314,note_off,,,,,34,0,1,,,0,,,74,64
91317,note_off,,,,,3,0,1,,,0,,,77,64
91318,note_off,,,,,1,0,1,,,0,,,67,64
91319,note_off,,,,,1,0,1,,,0,,,79,64
91360,note_on,,,,,41,0,1,,,0,,,77,70
91360,note_on,,,,,0,0,1,,,0,,,74,72
91360,note_off,,,,,0,0,2,,,1,,,53,64
91360,note_on,,,,,0,0,2,,,1,,,59,69
91360,note_off,,,,,80,0,2,,,1,,,50,64
91398,note_off,,,,,38,0,1,,,0,,,74,64
91398,note_off,,,,,0,0,1,,,0,,,77,64
91440,note_off,,,,,80,0,2,,,1,,,59,64
91440,note_on,,,,,0,0,2,,,1,,,59,74
91440,note_on,,,,,42,0,1,,,0,,,81,74
91440,note_on,,,,,0,0,1,,,0,,,69,69
91494,note_off,,,,,0,0,1,,,0,,,81,64
91494,note_off,,,,,54,0,1,,,0,,,69,64
91520,note_on,,,,,0,0,2,,,1,,,53,72
91520,note_on,,,,,0,0,2,,,1,,,50,71
91520,note_off,,,,,80,0,2,,,1,,,59,64
91560,note_on,,,,,0,0,1,,,0,,,71,71
91560,note_on,,,,,66,0,1,,,0,,,83,68
91600,note_off,,,,,80,0,2,,,1,,,50,64
91600,note_on,,,,,0,0,2,,,1,,,43,75
91600,note_off,,,,,0,0,2,,,1,,,53,64
91615,note_off,,,,,55,0,1,,,0,,,83,64
91617,note_off,,,,,2,0,1,,,0,,,71,64
91680,control_change,,,,,0,0,2,,,1,7,101,,
91680,note_off,,,,,80,0,2,,,1,,,43,64
91680,note_on,,,,,0,0,2,,,1,,,43,75
91680,note_on,,,,,63,0,1,,,0,,,72,72
91680,control_change,,,,,0,0,1,,,0,7,101,,
91690,note_on,,,,,10,0,1,,,0,,,84,76
91733,control_change,,,,,53,0,2,,,1,7,102,,
91733,control_change,,,,,43,0,1,,,0,7,102,,
91760,note_on,,,,,0,0,2,,,1,,,55,71
91760,note_on,,,,,0,0,1,,,0,,,76,72
91760,note_on,,,,,0,0,2,,,1,,,52,72
91760,note_off,,,,,27,0,2,,,1,,,43,64
91760,note_on,,,,,27,0,1,,,0,,,79,72
91786,control_change,,,,,26,0,1,,,0,7,103,,
91786,control_change,,,,,26,0,2,,,1,7,103,,
91796,note_off,,,,,10,0,1,,,0,,,79,64
91797,note_off,,,,,0,0,1,,,0,,,72,64
91797,note_off,,,,,1,0,1,,,0,,,76,64
91802,note_off,,,,,5,0,1,,,0,,,84,64
91839,control_change,,,,,37,0,1,,,0,7,104,,
91839,control_change,,,,,53,0,2,,,1,7,104,,
91840,note_on,,,,,0,0,1,,,0,,,79,75
91840,note_off,,,,,1,0,2,,,1,,,52,64
91840,note_on,,,,,1,0,1,,,0,,,76,69
91840,note_on,,,,,0,0,2,,,1,,,60,69
91840,note_off,,,,,0,0,2,,,1,,,55,64
91876,note_off,,,,,36,0,1,,,0,,,79,64
91877,note_off,,,,,1,0,1,,,0,,,76,64
91892,control_change,,,,,15,0,1,,,0,7,105,,
91892,control_change,,,,,52,0,2,,,1,7,105,,
91920,note_on,,,,,0,0,1,,,0,,,86,75
91920,note_on,,,,,0,0,2,,,1,,,60,68
91920,note_off,,,,,28,0,2,,,1,,,60,64
91920,note_on,,,,,28,0,1,,,0,,,74,69
91946,control_change,,,,,26,0,2,,,1,7,106,,
91946,control_change,,,,,26,0,1,,,0,7,106,,
91975,note_off,,,,,29,0,1,,,0,,,74,64
91976,note_off,,,,,1,0,1,,,0,,,86,64
91999,control_change,,,,,23,0,1,,,0,7,107,,
91999,control_change,,,,,53,0,2,,,1,7,107,,
92000,note_off,,,,,1,0,2,,,1,,,60,64
92000,note_on,,,,,0,0,2,,,1,,,52,70
92000,note_on,,,,,0,0,2,,,1,,,55,74
92040,note_on,,,,,41,0,1,,,0,,,76,75
92040,note_on,,,,,0,0,1,,,0,,,88,67
92052,control_change,,,,,52,0,2,,,1,7,108,,
92052,control_change,,,,,12,0,1,,,0,7,108,,
92080,note_off,,,,,28,0,2,,,1,,,52,64
92080,note_on,,,,,0,0,2,,,1,,,43,72
92080,note_off,,,,,0,0,2,,,1,,,55,64
92094,note_off,,,,,42,0,1,,,0,,,88,64
92097,note_off,,,,,3,0,1,,,0,,,76,64
92105,control_change,,,,,25,0,2,,,1,7,109,,
92105,control_change,,,,,8,0,1,,,0,7,109,,
92159,control_change,,,,,54,0,2,,,1,7,110,,
92159,control_change,,,,,54,0,1,,,0,7,110,,
92160,control_change,,,,,0,0,2,,,1,7,109,,
92160,note_on,,,,,0,0,2,,,1,,,43,78
92160,note_off,,,,,1,0,2,,,1,,,43,64
92160,note_on,,,,,1,0,1,,,0,,,83,74
92160,note_on,,,,,0,0,1,,,0,,,79,79
92160,note_on,,,,,0,0,1,,,0,,,91,78
92160,control_change,,,,,0,0,1,,,0,7,109,,
92213,control_change,,,,,53,0,2,,,1,7,108,,
92213,control_change,,,,,53,0,1,,,0,7,108,,
92232,note_off,,,,,19,0,2,,,1,,,43,64
92240,note_on,,,,,8,0,2,,,1,,,53,70
92240,note_on,,,,,0,0,2,,,1,,,50,70
92266,control_change,,,,,26,0,2,,,1,7,107,,
92266,control_change,,,,,53,0,1,,,0,7,107,,
92271,note_off,,,,,5,0,1,,,0,,,91,64
92272,note_off,,,,,1,0,1,,,0,,,83,64
92274,note_off,,,,,2,0,1,,,0,,,79,64
92280,note_on,,,,,0,0,1,,,0,,,89,71
92280,note_on,,,,,6,0,1,,,0,,,77,73
92311,note_off,,,,,45,0,2,,,1,,,50,64
92313,note_off,,,,,2,0,2,,,1,,,53,64
92319,control_change,,,,,6,0,2,,,1,7,106,,
92319,control_change,,,,,39,0,1,,,0,7,106,,
92320,note_on,,,,,1,0,2,,,1,,,59,74
92372,control_change,,,,,53,0,1,,,0,7,105,,
92372,control_change,,,,,52,0,2,,,1,7,105,,
92391,note_off,,,,,19,0,2,,,1,,,59,64
92392,note_off,,,,,20,0,1,,,0,,,89,64
92394,note_off,,,,,2,0,1,,,0,,,77,64
92400,note_on,,,,,9,0,2,,,1,,,59,69
92400,note_on,,,,,0,0,1,,,0,,,86,67
92400,note_on,,,,,6,0,1,,,0,,,74,73
92426,control_change,,,,,26,0,1,,,0,7,104,,
92426,control_change,,,,,26,0,2,,,1,7,104,,
92474,note_off,,,,,48,0,2,,,1,,,59,64
92479,control_change,,,,,53,0,1,,,0,7,103,,
92479,control_change,,,,,5,0,2,,,1,7,103,,
92480,note_on,,,,,1,0,2,,,1,,,53,75
92480,note_on,,,,,0,0,2,,,1,,,50,75
92512,note_off,,,,,33,0,1,,,0,,,86,64
92514,note_off,,,,,2,0,1,,,0,,,74,64
92520,note_on,,,,,6,0,1,,,0,,,83,75
92520,note_on,,,,,0,0,1,,,0,,,71,68
92532,control_change,,,,,52,0,2,,,1,7,102,,
92532,control_change,,,,,12,0,1,,,0,7,102,,
92550,note_off,,,,,18,0,2,,,1,,,50,64
92554,note_off,,,,,4,0,2,,,1,,,53,64
92560,note_on,,,,,6,0,2,,,1,,,43,75
92585,control_change,,,,,25,0,2,,,1,7,101,,
92585,control_change,,,,,53,0,1,,,0,7,101,,
92630,note_off,,,,,45,0,1,,,0,,,83,64
92632,note_off,,,,,2,0,1,,,0,,,71,64
92634,note_off,,,,,49,0,2,,,1,,,43,64
92639,control_change,,,,,7,0,1,,,0,7,100,,
92639,control_change,,,,,5,0,2,,,1,7,100,,
92640,set_tempo,,,,,9120,1,0,441176,,,,,,
92640,note_on,,,,,1,0,2,,,1,,,60,74
92640,note_on,,,,,0,0,1,,,0,,,76,72
92640,note_on,,,,,0,0,2,,,1,,,48,71
92640,note_on,,,,,0,0,2,,,1,,,52,75
92640,note_on,,,,,0,0,1,,,0,,,84,69
92640,note_on,,,,,1,0,1,,,0,,,72,70
92720,note_on,,,,,80,0,1,,,0,,,64,91
92751,note_off,,,,,111,0,2,,,1,,,48,64
92753,note_off,,,,,2,0,2,,,1,,,52,64
92753,note_off,,,,,0,0,1,,,0,,,76,64
92753,note_off,,,,,33,0,1,,,0,,,84,64
92754,note_off,,,,,1,0,2,,,1,,,60,64
92754,note_off,,,,,1,0,1,,,0,,,72,64
92790,note_off,,,,,36,0,1,,,0,,,64,64
92800,note_on,,,,,10,0,1,,,0,,,76,94
92873,note_off,,,,,73,0,1,,,0,,,76,64
92880,note_on,,,,,0,0,2,,,1,,,52,89
92880,control_change,,,,,0,0,1,,,0,7,101,,
92880,note_on,,,,,7,0,1,,,0,,,76,95
92880,control_change,,,,,126,0,2,,,1,7,101,,
92906,control_change,,,,,26,0,1,,,0,7,102,,
92906,control_change,,,,,26,0,2,,,1,7,102,,
92933,control_change,,,,,27,0,2,,,1,7,103,,
92933,control_change,,,,,27,0,1,,,0,7,103,,
92951,note_off,,,,,18,0,2,,,1,,,52,64
92952,note_off,,,,,19,0,1,,,0,,,76,64
92959,control_change,,,,,8,0,2,,,1,7,104,,
92959,control_change,,,,,7,0,1,,,0,7,104,,
92960,note_on,,,,,1,0,1,,,0,,,86,89
92960,note_on,,,,,1,0,2,,,1,,,64,87
92986,control_change,,,,,26,0,2,,,1,7,105,,
92986,control_change,,,,,26,0,1,,,0,7,105,,
93012,control_change,,,,,26,0,1,,,0,7,106,,
93012,control_change,,,,,26,0,2,,,1,7,106,,
93031,note_off,,,,,19,0,1,,,0,,,86,64
93032,note_off,,,,,20,0,2,,,1,,,64,64
93039,control_change,,,,,8,0,1,,,0,7,107,,
93039,control_change,,,,,7,0,2,,,1,7,107,,
93040,note_on,,,,,1,0,1,,,0,,,88,90
93040,note_on,,,,,1,0,2,,,1,,,52,94
93065,control_change,,,,,25,0,2,,,1,7,108,,
93065,control_change,,,,,25,0,1,,,0,7,108,,
93092,control_change,,,,,27,0,2,,,1,7,109,,
93092,control_change,,,,,27,0,1,,,0,7,109,,
93110,note_off,,,,,18,0,2,,,1,,,52,64
93113,note_off,,,,,21,0,1,,,0,,,88,64
93119,control_change,,,,,6,0,1,,,0,7,110,,
93119,control_change,,,,,9,0,2,,,1,7,110,,
93120,note_on,,,,,1,0,1,,,0,,,100,97
93120,note_on,,,,,1,0,2,,,1,,,64,95
93191,note_off,,,,,71,0,2,,,1,,,64,64
93193,note_off,,,,,73,0,1,,,0,,,100,64
93200,note_on,,,,,7,0,1,,,0,,,88,93
93200,note_on,,,,,9,0,2,,,1,,,52,92
93274,note_off,,,,,74,0,2,,,1,,,52,64
93274,note_off,,,,,74,0,1,,,0,,,88,64
93280,note_on,,,,,6,0,1,,,0,,,88,91
93280,note_on,,,,,6,0,2,,,1,,,64,87
93350,note_off,,,,,70,0,2,,,1,,,64,64
93354,note_off,,,,,74,0,1,,,0,,,88,64
93360,note_on,,,,,6,0,1,,,0,,,76,88
93360,note_on,,,,,10,0,2,,,1,,,52,87
93432,note_off,,,,,72,0,1,,,0,,,76,64
93433,note_off,,,,,73,0,2,,,1,,,52,64
93440,note_on,,,,,7,0,2,,,1,,,64,93
93440,note_on,,,,,8,0,1,,,0,,,88,89
93513,note_off,,,,,73,0,1,,,0,,,88,64
93513,note_off,,,,,73,0,2,,,1,,,64,64
93520,note_on,,,,,7,0,2,,,1,,,52,95
93520,note_on,,,,,7,0,1,,,0,,,76,92
93591,note_off,,,,,71,0,2,,,1,,,52,64
93593,note_off,,,,,73,0,1,,,0,,,76,64
93600,note_on,,,,,7,0,1,,,0,,,76,96
93600,note_on,,,,,9,0,2,,,1,,,64,89
93671,note_off,,,,,71,0,1,,,0,,,76,64
93680,note_on,,,,,9,0,1,,,0,,,64,92
93714,note_off,,,,,114,0,2,,,1,,,64,64
93751,note_off,,,,,71,0,1,,,0,,,64,64
93760,note_on,,,,,9,0,1,,,0,,,76,95
93834,note_off,,,,,74,0,1,,,0,,,76,64
93840,note_on,,,,,126,0,2,,,1,,,49,92
93840,note_on,,,,,0,0,2,,,1,,,52,91
93840,note_on,,,,,6,0,1,,,0,,,64,95
93840,note_on,,,,,0,0,2,,,1,,,61,91
93910,note_off,,,,,70,0,1,,,0,,,64,64
93920,note_on,,,,,10,0,1,,,0,,,76,89
93990,note_off,,,,,70,0,1,,,0,,,76,64
94000,note_on,,,,,10,0,1,,,0,,,64,93
94071,note_off,,,,,71,0,1,,,0,,,64,64
94071,note_off,,,,,231,0,2,,,1,,,52,64
94074,note_off,,,,,0,0,2,,,1,,,49,64
94074,note_off,,,,,3,0,2,,,1,,,61,64
94080,note_on,,,,,0,0,1,,,0,,,77,114
94080,control_change,,,,,0,0,1,,,0,7,100,,
94080,note_on,,,,,0,0,2,,,1,,,50,109
94080,note_on,,,,,0,0,2,,,1,,,62,105
94080,note_on,,,,,9,0,1,,,0,,,65,106
94080,set_tempo,,,,,1440,1,0,434783,,,,,,
94080,control_change,,,,,6,0,2,,,1,7,100,,
94160,note_on,,,,,0,0,1,,,0,,,64,96
94160,note_on,,,,,80,0,1,,,0,,,65,104
94233,note_off,,,,,73,0,1,,,0,,,65,64
94234,note_off,,,,,1,0,1,,,0,,,64,64
94240,note_on,,,,,6,0,1,,,0,,,65,101
94240,note_on,,,,,0,0,1,,,0,,,64,104
94312,note_off,,,,,72,0,1,,,0,,,64,64
94313,note_off,,,,,1,0,1,,,0,,,65,64
94320,note_on,,,,,0,0,1,,,0,,,60,99
94320,note_on,,,,,7,0,1,,,0,,,62,104
94391,note_off,,,,,71,0,1,,,0,,,62,64
94394,note_off,,,,,3,0,1,,,0,,,60,64
94400,note_on,,,,,6,0,1,,,0,,,65,102
94400,note_on,,,,,0,0,1,,,0,,,64,97
94470,note_off,,,,,70,0,1,,,0,,,65,64
94473,note_off,,,,,3,0,1,,,0,,,64,64
94480,note_on,,,,,7,0,1,,,0,,,65,101
94480,note_on,,,,,0,0,1,,,0,,,64,104
94551,note_off,,,,,71,0,1,,,0,,,65,64
94551,note_off,,,,,0,0,1,,,0,,,77,64
94552,note_off,,,,,472,0,2,,,1,,,62,64
94553,note_off,,,,,2,0,1,,,0,,,64,64
94553,note_off,,,,,1,0,2,,,1,,,50,64
94554,note_off,,,,,1,0,1,,,0,,,65,64
94560,note_on,,,,,0,0,2,,,1,,,59,103
94560,note_on,,,,,6,0,1,,,0,,,65,106
94560,note_on,,,,,7,0,2,,,1,,,47,102
94560,note_on,,,,,0,0,2,,,1,,,53,103
94560,note_on,,,,,0,0,1,,,0,,,77,111
94640,note_on,,,,,80,0,1,,,0,,,64,96
94713,note_off,,,,,73,0,1,,,0,,,64,64
94720,note_on,,,,,7,0,1,,,0,,,64,104
94790,note_off,,,,,70,0,1,,,0,,,65,64
94791,note_off,,,,,1,0,1,,,0,,,77,64
94794,note_off,,,,,3,0,1,,,0,,,64,64
94800,note_on,,,,,0,0,1,,,0,,,62,104
94800,note_on,,,,,6,0,1,,,0,,,60,104
94871,note_off,,,,,0,0,1,,,0,,,60,64
94871,note_off,,,,,71,0,1,,,0,,,62,64
94880,note_on,,,,,9,0,1,,,0,,,64,99
94920,note_on,,,,,40,0,1,,,0,,,65,99
94920,note_on,,,,,0,0,1,,,0,,,77,102
94950,note_off,,,,,30,0,1,,,0,,,64,64
95030,note_off,,,,,0,0,2,,,1,,,53,64
95030,note_off,,,,,470,0,2,,,1,,,59,64
95030,note_off,,,,,80,0,1,,,0,,,77,64
95031,note_off,,,,,1,0,2,,,1,,,47,64
95031,note_off,,,,,1,0,1,,,0,,,65,64
95040,note_on,,,,,0,0,2,,,1,,,56,105
95040,note_on,,,,,9,0,1,,,0,,,77,110
95040,note_on,,,,,0,0,2,,,1,,,44,107
95040,note_on,,,,,9,0,2,,,1,,,53,103
95040,note_on,,,,,0,0,1,,,0,,,65,107
95114,note_off,,,,,74,0,1,,,0,,,65,64
95120,note_on,,,,,6,0,1,,,0,,,64,96
95152,note_off,,,,,112,0,2,,,1,,,53,64
95192,note_off,,,,,72,0,1,,,0,,,64,64
95192,note_off,,,,,0,0,1,,,0,,,77,64
95200,note_on,,,,,8,0,1,,,0,,,76,101
95200,note_on,,,,,48,0,2,,,1,,,52,102
95271,note_off,,,,,0,0,2,,,1,,,44,64
95271,note_off,,,,,71,0,2,,,1,,,52,64
95273,note_off,,,,,73,0,1,,,0,,,76,64
95274,note_off,,,,,3,0,2,,,1,,,56,64
95280,note_on,,,,,7,0,1,,,0,,,76,100
95280,note_on,,,,,6,0,2,,,1,,,52,100
95350,note_off,,,,,70,0,2,,,1,,,52,64
95360,note_on,,,,,10,0,2,,,1,,,64,102
95360,note_on,,,,,80,0,1,,,0,,,88,101
95430,note_off,,,,,70,0,2,,,1,,,64,64
95432,note_off,,,,,72,0,1,,,0,,,88,64
95440,note_on,,,,,10,0,2,,,1,,,52,99
95440,note_on,,,,,8,0,1,,,0,,,88,104
95510,note_off,,,,,70,0,2,,,1,,,52,64
95511,note_off,,,,,71,0,1,,,0,,,76,64
95512,note_off,,,,,1,0,1,,,0,,,88,64
95520,note_on,,,,,10,0,2,,,1,,,64,103
95520,note_on,,,,,8,0,1,,,0,,,100,100
95593,note_off,,,,,73,0,1,,,0,,,100,64
95594,note_off,,,,,74,0,2,,,1,,,64,64
95600,note_on,,,,,7,0,1,,,0,,,88,96
95600,note_on,,,,,6,0,2,,,1,,,52,100
95670,note_off,,,,,70,0,1,,,0,,,88,64
95672,note_off,,,,,72,0,2,,,1,,,52,64
95680,note_on,,,,,8,0,2,,,1,,,64,98
95680,note_on,,,,,10,0,1,,,0,,,88,101
95750,note_off,,,,,70,0,2,,,1,,,64,64
95753,note_off,,,,,73,0,1,,,0,,,88,64
95760,note_on,,,,,7,0,1,,,0,,,76,102
95760,note_on,,,,,0,0,2,,,1,,,61,105
95760,note_on,,,,,0,0,2,,,1,,,52,99
95760,note_on,,,,,10,0,2,,,1,,,49,100
95920,note_on,,,,,160,0,1,,,0,,,64,102
95990,note_off,,,,,230,0,2,,,1,,,49,64
95992,note_off,,,,,72,0,1,,,0,,,64,64
95992,note_off,,,,,2,0,2,,,1,,,61,64
95993,note_off,,,,,1,0,2,,,1,,,52,64
95994,note_off,,,,,2,0,1,,,0,,,76,64
96000,note_on,,,,,0,0,2,,,1,,,62,109
96000,note_on,,,,,6,0,1,,,0,,,65,108
96000,note_on,,,,,7,0,2,,,1,,,50,108
96000,note_on,,,,,0,0,1,,,0,,,77,111
96080,note_on,,,,,80,0,1,,,0,,,64,103
96152,note_off,,,,,72,0,1,,,0,,,64,64
96160,note_on,,,,,8,0,1,,,0,,,64,100
96233,note_off,,,,,73,0,1,,,0,,,64,64
96240,note_on,,,,,0,0,1,,,0,,,60,102
96240,note_on,,,,,7,0,1,,,0,,,62,103
96312,note_off,,,,,72,0,1,,,0,,,62,64
96313,note_off,,,,,1,0,1,,,0,,,60,64
96320,note_on,,,,,7,0,1,,,0,,,64,99
96392,note_off,,,,,72,0,1,,,0,,,64,64
96400,note_on,,,,,8,0,1,,,0,,,64,102
96470,note_off,,,,,70,0,1,,,0,,,77,64
96471,note_off,,,,,1,0,1,,,0,,,64,64
96471,note_off,,,,,0,0,1,,,0,,,65,64
96471,note_off,,,,,471,0,2,,,1,,,62,64
96473,note_off,,,,,2,0,2,,,1,,,50,64
96480,note_on,,,,,0,0,1,,,0,,,77,105
96480,note_on,,,,,7,0,2,,,1,,,59,106
96480,note_on,,,,,9,0,1,,,0,,,65,104
96480,note_on,,,,,0,0,2,,,1,,,47,107
96480,note_on,,,,,0,0,2,,,1,,,53,104
96560,note_on,,,,,80,0,1,,,0,,,64,102
96630,note_off,,,,,70,0,1,,,0,,,64,64
96640,note_on,,,,,10,0,1,,,0,,,64,101
96710,note_off,,,,,0,0,1,,,0,,,77,64
96710,note_off,,,,,70,0,1,,,0,,,64,64
96711,note_off,,,,,1,0,1,,,0,,,65,64
96720,note_on,,,,,0,0,1,,,0,,,60,97
96720,note_on,,,,,9,0,1,,,0,,,62,96
96790,note_off,,,,,70,0,1,,,0,,,60,64
96791,note_off,,,,,1,0,1,,,0,,,62,64
96800,note_on,,,,,9,0,1,,,0,,,64,101
96840,note_on,,,,,0,0,1,,,0,,,77,98
96840,note_on,,,,,40,0,1,,,0,,,65,103
96873,note_off,,,,,33,0,1,,,0,,,64,64
96950,note_off,,,,,470,0,2,,,1,,,53,64
96951,note_off,,,,,0,0,2,,,1,,,59,64
96951,note_off,,,,,1,0,2,,,1,,,47,64
96953,note_off,,,,,80,0,1,,,0,,,77,64
96953,note_off,,,,,0,0,1,,,0,,,65,64
96960,note_on,,,,,0,0,2,,,1,,,52,105
96960,note_on,,,,,9,0,2,,,1,,,56,102
96960,note_on,,,,,7,0,1,,,0,,,64,100
96960,note_on,,,,,0,0,2,,,1,,,44,105
97033,note_off,,,,,73,0,1,,,0,,,64,64
97040,note_on,,,,,7,0,1,,,0,,,76,101
97114,note_off,,,,,74,0,1,,,0,,,76,64
97120,note_on,,,,,6,0,1,,,0,,,76,97
97190,note_off,,,,,230,0,2,,,1,,,44,64
97190,note_off,,,,,70,0,1,,,0,,,76,64
97194,note_off,,,,,0,0,2,,,1,,,56,64
97194,note_off,,,,,4,0,2,,,1,,,52,64
97200,note_on,,,,,6,0,2,,,1,,,64,100
97200,note_on,,,,,10,0,1,,,0,,,88,97
97273,note_off,,,,,73,0,2,,,1,,,64,64
97273,note_off,,,,,73,0,1,,,0,,,88,64
97280,note_on,,,,,7,0,1,,,0,,,88,100
97280,note_on,,,,,7,0,2,,,1,,,64,102
97352,note_off,,,,,72,0,2,,,1,,,64,64
97353,note_off,,,,,73,0,1,,,0,,,88,64
97360,note_on,,,,,7,0,1,,,0,,,100,97
97360,note_on,,,,,8,0,2,,,1,,,64,104
97430,note_off,,,,,70,0,2,,,1,,,64,64
97434,note_off,,,,,74,0,1,,,0,,,100,64
97440,note_on,,,,,10,0,2,,,1,,,64,100
97440,note_on,,,,,6,0,1,,,0,,,88,102
97510,note_off,,,,,70,0,1,,,0,,,88,64
97513,note_off,,,,,73,0,2,,,1,,,64,64
97520,note_on,,,,,7,0,2,,,1,,,64,100
97520,note_on,,,,,10,0,1,,,0,,,88,103
97590,note_off,,,,,70,0,1,,,0,,,88,64
97593,note_off,,,,,73,0,2,,,1,,,64,64
97600,note_on,,,,,10,0,1,,,0,,,76,104
97600,note_on,,,,,7,0,2,,,1,,,64,104
97673,note_off,,,,,73,0,2,,,1,,,64,64
97674,note_off,,,,,74,0,1,,,0,,,76,64
97680,note_on,,,,,6,0,1,,,0,,,76,100
97680,note_on,,,,,0,0,2,,,1,,,71,101
97680,note_on,,,,,7,0,2,,,1,,,56,103
97754,note_off,,,,,74,0,1,,,0,,,76,64
97760,note_on,,,,,6,0,1,,,0,,,64,98
97832,note_off,,,,,72,0,1,,,0,,,64,64
97840,note_on,,,,,8,0,1,,,0,,,76,101
97911,note_off,,,,,71,0,1,,,0,,,76,64
97913,note_off,,,,,233,0,2,,,1,,,71,64
97914,note_off,,,,,1,0,2,,,1,,,56,64
97920,note_on,,,,,9,0,1,,,0,,,64,101
97920,note_on,,,,,6,0,2,,,1,,,57,105
97920,note_on,,,,,0,0,2,,,1,,,72,101
97994,note_off,,,,,74,0,1,,,0,,,64,64
98000,note_on,,,,,6,0,1,,,0,,,76,96
98070,note_off,,,,,70,0,1,,,0,,,76,64
98080,note_on,,,,,10,0,1,,,0,,,64,101
98154,note_off,,,,,74,0,1,,,0,,,64,64
98160,note_off,,,,,0,0,2,,,1,,,57,64
98160,note_on,,,,,0,0,2,,,1,,,56,101
98160,note_off,,,,,240,0,2,,,1,,,72,64
98160,note_on,,,,,6,0,1,,,0,,,76,100
98160,note_on,,,,,0,0,2,,,1,,,71,96
98230,note_off,,,,,70,0,1,,,0,,,76,64
98240,note_on,,,,,10,0,1,,,0,,,64,101
98312,note_off,,,,,72,0,1,,,0,,,64,64
98320,note_on,,,,,8,0,1,,,0,,,76,104
98392,note_off,,,,,72,0,1,,,0,,,76,64
98400,note_on,,,,,8,0,1,,,0,,,64,98
98400,note_on,,,,,0,0,2,,,1,,,72,105
98400,note_on,,,,,0,0,2,,,1,,,57,100
98400,note_off,,,,,0,0,2,,,1,,,56,64
98400,note_off,,,,,240,0,2,,,1,,,71,64
98471,note_off,,,,,71,0,1,,,0,,,64,64
98480,note_on,,,,,9,0,1,,,0,,,76,101
98554,note_off,,,,,74,0,1,,,0,,,76,64
98560,note_on,,,,,6,0,1,,,0,,,64,96
98632,note_off,,,,,72,0,1,,,0,,,64,64
98640,note_on,,,,,0,0,2,,,1,,,58,96
98640,note_off,,,,,240,0,2,,,1,,,72,64
98640,note_on,,,,,8,0,1,,,0,,,76,104
98640,note_on,,,,,0,0,2,,,1,,,73,100
98640,note_off,,,,,0,0,2,,,1,,,57,64
98711,note_off,,,,,71,0,1,,,0,,,76,64
98720,note_on,,,,,9,0,1,,,0,,,64,100
98792,note_off,,,,,72,0,1,,,0,,,64,64
98800,note_on,,,,,8,0,1,,,0,,,76,96
98871,note_off,,,,,71,0,1,,,0,,,76,64
98880,note_off,,,,,0,0,2,,,1,,,73,64
98880,note_on,,,,,9,0,1,,,0,,,64,103
98880,control_change,,,,,0,0,1,,,0,7,99,,
98880,note_on,,,,,0,0,2,,,1,,,74,108
98880,control_change,,,,,0,0,2,,,1,7,99,,
98880,note_off,,,,,240,0,2,,,1,,,58,64
98880,note_on,,,,,0,0,2,,,1,,,59,106
98952,note_off,,,,,72,0,1,,,0,,,64,64
98960,note_on,,,,,8,0,1,,,0,,,76,97
98986,control_change,,,,,26,0,1,,,0,7,98,,
98986,control_change,,,,,106,0,2,,,1,7,98,,
99031,note_off,,,,,45,0,1,,,0,,,76,64
99040,note_on,,,,,9,0,1,,,0,,,64,100
99093,control_change,,,,,107,0,2,,,1,7,97,,
99093,control_change,,,,,53,0,1,,,0,7,97,,
99113,note_off,,,,,20,0,1,,,0,,,64,64
99120,note_on,,,,,7,0,1,,,0,,,76,102
99193,note_off,,,,,73,0,1,,,0,,,76,64
99199,control_change,,,,,6,0,1,,,0,7,96,,
99199,control_change,,,,,106,0,2,,,1,7,96,,
99200,note_on,,,,,1,0,1,,,0,,,64,96
99274,note_off,,,,,74,0,1,,,0,,,64,64
99280,note_on,,,,,6,0,1,,,0,,,76,99
99306,control_change,,,,,107,0,2,,,1,7,95,,
99306,control_change,,,,,26,0,1,,,0,7,95,,
99352,note_off,,,,,46,0,1,,,0,,,76,64
99360,note_off,,,,,0,0,2,,,1,,,59,64
99360,note_on,,,,,0,0,2,,,1,,,60,106
99360,note_on,,,,,0,0,2,,,1,,,75,104
99360,note_off,,,,,54,0,2,,,1,,,74,64
99412,control_change,,,,,52,0,2,,,1,7,94,,
99412,control_change,,,,,60,0,1,,,0,7,94,,
99440,note_on,,,,,28,0,1,,,0,,,64,100
99512,note_off,,,,,72,0,1,,,0,,,64,64
99519,control_change,,,,,7,0,1,,,0,7,93,,
99519,control_change,,,,,107,0,2,,,1,7,93,,
99520,note_on,,,,,1,0,1,,,0,,,76,100
99594,note_off,,,,,74,0,1,,,0,,,76,64
99600,note_on,,,,,6,0,1,,,0,,,64,100
99625,control_change,,,,,25,0,1,,,0,7,92,,
99625,control_change,,,,,106,0,2,,,1,7,92,,
99674,note_off,,,,,49,0,1,,,0,,,64,64
99680,note_on,,,,,6,0,1,,,0,,,76,99
99720,note_off,,,,,95,0,2,,,1,,,75,64
99720,note_off,,,,,0,0,2,,,1,,,60,64
99720,note_on,,,,,0,0,2,,,1,,,75,103
99720,note_on,,,,,0,0,2,,,1,,,60,103
99732,control_change,,,,,12,0,2,,,1,7,91,,
99732,control_change,,,,,52,0,1,,,0,7,91,,
99750,note_off,,,,,18,0,1,,,0,,,76,64
99760,note_on,,,,,10,0,1,,,0,,,64,100
99833,note_off,,,,,73,0,1,,,0,,,64,64
99833,note_off,,,,,101,0,2,,,1,,,60,64
99834,note_off,,,,,1,0,2,,,1,,,75,64
99839,control_change,,,,,5,0,2,,,1,7,90,,
99839,control_change,,,,,6,0,1,,,0,7,90,,
99840,note_on,,,,,1,0,2,,,1,,,61,107
99840,note_on,,,,,0,0,2,,,1,,,76,104
99840,control_change,,,,,0,0,2,,,1,7,91,,
99840,control_change,,,,,1,0,1,,,0,7,91,,
99920,note_on,,,,,80,0,1,,,0,,,76,98
99920,note_on,,,,,0,0,1,,,0,,,64,101
99946,control_change,,,,,106,0,2,,,1,7,92,,
99946,control_change,,,,,26,0,1,,,0,7,92,,
99993,note_off,,,,,47,0,1,,,0,,,64,64
99994,note_off,,,,,1,0,1,,,0,,,76,64
100000,note_on,,,,,0,0,1,,,0,,,76,96
100000,note_on,,,,,6,0,1,,,0,,,64,99
100053,control_change,,,,,53,0,1,,,0,7,93,,
100053,control_change,,,,,107,0,2,,,1,7,93,,
100070,note_off,,,,,17,0,1,,,0,,,76,64
100070,note_off,,,,,17,0,2,,,1,,,76,64
100071,note_off,,,,,1,0,1,,,0,,,64,64
100080,note_on,,,,,9,0,1,,,0,,,64,102
100080,note_on,,,,,0,0,1,,,0,,,76,102
100150,note_off,,,,,70,0,1,,,0,,,64,64
100152,note_off,,,,,2,0,1,,,0,,,76,64
100159,control_change,,,,,7,0,1,,,0,7,94,,
100159,control_change,,,,,89,0,2,,,1,7,94,,
100160,note_on,,,,,1,0,1,,,0,,,64,103
100160,note_on,,,,,0,0,1,,,0,,,76,101
100230,note_off,,,,,70,0,1,,,0,,,76,64
100234,note_off,,,,,4,0,1,,,0,,,64,64
100240,note_on,,,,,6,0,1,,,0,,,76,100
100240,note_on,,,,,0,0,1,,,0,,,64,103
100266,control_change,,,,,26,0,1,,,0,7,95,,
100266,control_change,,,,,107,0,2,,,1,7,95,,
100312,note_off,,,,,46,0,1,,,0,,,76,64
100314,note_off,,,,,2,0,1,,,0,,,64,64
100320,note_on,,,,,6,0,1,,,0,,,64,100
100320,note_on,,,,,0,0,1,,,0,,,76,98
100372,control_change,,,,,52,0,1,,,0,7,96,,
100372,control_change,,,,,106,0,2,,,1,7,96,,
100390,note_off,,,,,18,0,1,,,0,,,76,64
100393,note_off,,,,,3,0,1,,,0,,,64,64
100400,note_on,,,,,0,0,1,,,0,,,76,103
100400,note_on,,,,,7,0,1,,,0,,,64,97
100471,note_off,,,,,71,0,1,,,0,,,64,64
100472,note_off,,,,,1,0,1,,,0,,,76,64
100479,control_change,,,,,7,0,1,,,0,7,97,,
100479,control_change,,,,,107,0,2,,,1,7,97,,
100480,note_on,,,,,1,0,1,,,0,,,76,96
100480,note_on,,,,,0,0,1,,,0,,,64,99
100551,note_off,,,,,71,0,1,,,0,,,64,64
100554,note_off,,,,,3,0,1,,,0,,,76,64
100560,note_on,,,,,6,0,1,,,0,,,76,99
100560,note_on,,,,,0,0,1,,,0,,,64,103
100585,control_change,,,,,106,0,2,,,1,7,98,,
100585,control_change,,,,,25,0,1,,,0,7,98,,
100630,note_off,,,,,45,0,1,,,0,,,64,64
100633,note_off,,,,,3,0,1,,,0,,,76,64
100640,note_on,,,,,7,0,1,,,0,,,76,102
100640,note_on,,,,,0,0,1,,,0,,,64,98
100692,control_change,,,,,52,0,1,,,0,7,99,,
100692,control_change,,,,,107,0,2,,,1,7,99,,
100711,note_off,,,,,19,0,1,,,0,,,76,64
100712,note_off,,,,,1,0,1,,,0,,,64,64
100720,note_on,,,,,8,0,1,,,0,,,64,96
100720,note_on,,,,,0,0,1,,,0,,,76,100
100790,note_off,,,,,70,0,1,,,0,,,64,64
100793,note_off,,,,,3,0,1,,,0,,,76,64
100799,control_change,,,,,6,0,1,,,0,7,100,,
100799,control_change,,,,,107,0,2,,,1,7,100,,
100800,note_on,,,,,0,0,1,,,0,,,76,108
100800,note_on,,,,,1,0,1,,,0,,,64,104
100870,note_off,,,,,70,0,1,,,0,,,64,64
100872,note_off,,,,,2,0,1,,,0,,,76,64
100880,note_on,,,,,8,0,1,,,0,,,64,101
100880,note_on,,,,,0,0,1,,,0,,,76,103
100950,note_off,,,,,70,0,1,,,0,,,76,64
100952,note_off,,,,,2,0,1,,,0,,,64,64
100960,note_on,,,,,0,0,1,,,0,,,64,97
100960,note_on,,,,,8,0,1,,,0,,,76,102
101030,note_off,,,,,231,0,2,,,1,,,61,64
101034,note_off,,,,,74,0,1,,,0,,,64,64
101034,note_off,,,,,0,0,1,,,0,,,76,64
101040,note_on,,,,,0,0,1,,,0,,,69,99
101040,note_on,,,,,10,0,2,,,1,,,54,104
101040,note_on,,,,,6,0,1,,,0,,,66,100
101040,note_on,,,,,0,0,1,,,0,,,75,97
101111,note_off,,,,,71,0,1,,,0,,,75,64
101112,note_off,,,,,1,0,1,,,0,,,66,64
101114,note_off,,,,,2,0,1,,,0,,,69,64
101120,note_on,,,,,6,0,1,,,0,,,75,101
101120,note_on,,,,,0,0,1,,,0,,,66,100
101120,note_on,,,,,0,0,1,,,0,,,69,104
101152,note_off,,,,,112,0,2,,,1,,,54,64
101190,note_off,,,,,70,0,1,,,0,,,66,64
101191,note_off,,,,,1,0,1,,,0,,,75,64
101193,note_off,,,,,2,0,1,,,0,,,69,64
101200,note_on,,,,,7,0,1,,,0,,,66,103
101200,note_on,,,,,0,0,1,,,0,,,75,97
101200,note_on,,,,,0,0,1,,,0,,,69,102
101271,note_off,,,,,71,0,1,,,0,,,69,64
101273,note_off,,,,,2,0,1,,,0,,,66,64
101274,note_off,,,,,1,0,1,,,0,,,75,64
101280,note_on,,,,,128,0,2,,,1,,,56,101
101280,note_on,,,,,0,0,1,,,0,,,64,102
101280,note_on,,,,,6,0,1,,,0,,,68,99
101280,note_on,,,,,0,0,1,,,0,,,73,105
101351,note_off,,,,,71,0,1,,,0,,,73,64
101353,note_off,,,,,2,0,1,,,0,,,64,64
101354,note_off,,,,,1,0,1,,,0,,,68,64
101360,note_on,,,,,6,0,1,,,0,,,73,98
101360,note_on,,,,,0,0,1,,,0,,,68,97
101360,note_on,,,,,0,0,1,,,0,,,64,96
101392,note_off,,,,,112,0,2,,,1,,,56,64
101431,note_off,,,,,71,0,1,,,0,,,68,64
101431,note_off,,,,,0,0,1,,,0,,,64,64
101431,note_off,,,,,0,0,1,,,0,,,73,64
101440,note_on,,,,,9,0,1,,,0,,,73,97
101440,note_on,,,,,0,0,1,,,0,,,68,98
101440,note_on,,,,,0,0,1,,,0,,,64,96
101511,note_off,,,,,71,0,1,,,0,,,68,64
101512,note_off,,,,,1,0,1,,,0,,,64,64
101512,note_off,,,,,0,0,1,,,0,,,73,64
101520,note_on,,,,,0,0,2,,,1,,,56,103
101520,note_on,,,,,8,0,1,,,0,,,72,99
101520,note_on,,,,,0,0,1,,,0,,,68,98
101520,note_on,,,,,0,0,1,,,0,,,63,104
101520,note_on,,,,,128,0,2,,,1,,,44,103
101591,note_off,,,,,71,0,1,,,0,,,63,64
101592,note_off,,,,,1,0,1,,,0,,,72,64
101594,note_off,,,,,2,0,1,,,0,,,68,64
101600,note_on,,,,,6,0,1,,,0,,,68,102
101600,note_on,,,,,0,0,1,,,0,,,63,101
101600,note_on,,,,,0,0,1,,,0,,,72,99
101632,note_off,,,,,112,0,2,,,1,,,44,64
101670,note_off,,,,,70,0,1,,,0,,,72,64
101672,note_off,,,,,2,0,1,,,0,,,68,64
101674,note_off,,,,,2,0,1,,,0,,,63,64
101680,note_on,,,,,6,0,1,,,0,,,68,99
101680,note_on,,,,,0,0,1,,,0,,,72,104
101680,note_on,,,,,0,0,1,,,0,,,63,101
101750,note_off,,,,,118,0,2,,,1,,,56,64
101751,note_off,,,,,0,0,1,,,0,,,72,64
101751,note_off,,,,,71,0,1,,,0,,,63,64
101751,note_off,,,,,0,0,1,,,0,,,68,64
101760,note_on,,,,,10,0,2,,,1,,,37,107
101770,note_on,,,,,10,0,2,,,1,,,49,103
101780,note_on,,,,,10,0,2,,,1,,,61,100
101840,note_on,,,,,89,0,1,,,0,,,73,101
101840,note_on,,,,,0,0,1,,,0,,,61,97
101913,note_off,,,,,73,0,1,,,0,,,73,64
101914,note_off,,,,,1,0,1,,,0,,,61,64
101920,note_on,,,,,6,0,1,,,0,,,73,98
101920,note_on,,,,,0,0,1,,,0,,,61,101
101993,note_off,,,,,0,0,1,,,0,,,73,64
101993,note_off,,,,,213,0,2,,,1,,,37,64
101993,note_off,,,,,73,0,1,,,0,,,61,64
102000,note_on,,,,,0,0,1,,,0,,,61,101
102000,note_on,,,,,7,0,1,,,0,,,73,103
102072,note_off,,,,,72,0,1,,,0,,,61,64
102074,note_off,,,,,2,0,1,,,0,,,73,64
102080,note_on,,,,,0,0,1,,,0,,,61,97
102080,note_on,,,,,6,0,1,,,0,,,73,101
102153,note_off,,,,,73,0,1,,,0,,,61,64
102154,note_off,,,,,1,0,1,,,0,,,73,64
102160,note_on,,,,,0,0,1,,,0,,,61,96
102160,note_on,,,,,6,0,1,,,0,,,73,98
102230,note_off,,,,,70,0,1,,,0,,,73,64
102234,note_off,,,,,4,0,1,,,0,,,61,64
102240,note_on,,,,,6,0,1,,,0,,,73,106
102240,note_on,,,,,0,0,1,,,0,,,61,104
102311,note_off,,,,,71,0,1,,,0,,,73,64
102312,note_off,,,,,1,0,1,,,0,,,61,64
102320,note_on,,,,,8,0,1,,,0,,,73,103
102320,note_on,,,,,0,0,1,,,0,,,61,98
102393,note_off,,,,,0,0,1,,,0,,,73,64
102393,note_off,,,,,73,0,1,,,0,,,61,64
102400,note_on,,,,,0,0,1,,,0,,,61,97
102400,note_on,,,,,7,0,1,,,0,,,73,98
102470,note_off,,,,,477,0,2,,,1,,,61,64
102472,note_off,,,,,72,0,1,,,0,,,73,64
102474,note_off,,,,,4,0,2,,,1,,,49,64
102474,note_off,,,,,2,0,1,,,0,,,61,64
102480,note_on,,,,,6,0,1,,,0,,,73,100
102480,note_on,,,,,6,0,2,,,1,,,44,102
102480,note_on,,,,,0,0,1,,,0,,,61,98
102480,note_on,,,,,0,0,2,,,1,,,56,102
102550,note_off,,,,,70,0,1,,,0,,,73,64
102554,note_off,,,,,4,0,1,,,0,,,61,64
102560,note_on,,,,,0,0,1,,,0,,,61,101
102560,note_on,,,,,6,0,1,,,0,,,73,96
102632,note_off,,,,,0,0,1,,,0,,,73,64
102632,note_off,,,,,72,0,1,,,0,,,61,64
102640,note_on,,,,,0,0,1,,,0,,,61,98
102640,note_on,,,,,8,0,1,,,0,,,73,102
102711,note_off,,,,,71,0,1,,,0,,,61,64
102712,note_off,,,,,1,0,1,,,0,,,73,64
102712,note_off,,,,,232,0,2,,,1,,,56,64
102713,note_off,,,,,1,0,2,,,1,,,44,64
102720,note_on,,,,,8,0,1,,,0,,,73,100
102720,note_on,,,,,0,0,2,,,1,,,57,107
102720,note_on,,,,,0,0,1,,,0,,,61,108
102720,note_on,,,,,7,0,2,,,1,,,45,110
102792,note_off,,,,,72,0,1,,,0,,,61,64
102793,note_off,,,,,1,0,1,,,0,,,73,64
102800,note_on,,,,,0,0,1,,,0,,,73,102
102800,note_on,,,,,7,0,1,,,0,,,61,101
102870,note_off,,,,,70,0,1,,,0,,,73,64
102872,note_off,,,,,2,0,1,,,0,,,61,64
102880,note_on,,,,,0,0,1,,,0,,,73,100
102880,note_on,,,,,8,0,1,,,0,,,61,104
102950,note_off,,,,,70,0,1,,,0,,,61,64
102953,note_off,,,,,3,0,1,,,0,,,73,64
102960,note_on,,,,,0,0,1,,,0,,,73,98
102960,note_on,,,,,7,0,1,,,0,,,61,103
103030,note_off,,,,,70,0,1,,,0,,,73,64
103031,note_off,,,,,1,0,1,,,0,,,61,64
103040,note_on,,,,,0,0,1,,,0,,,61,101
103040,note_on,,,,,9,0,1,,,0,,,73,104
103110,note_off,,,,,70,0,1,,,0,,,73,64
103111,note_off,,,,,1,0,1,,,0,,,61,64
103120,note_on,,,,,0,0,1,,,0,,,61,103
103120,note_on,,,,,9,0,1,,,0,,,73,96
103190,note_off,,,,,0,0,1,,,0,,,73,64
103190,note_off,,,,,70,0,1,,,0,,,61,64
103200,note_on,,,,,0,0,1,,,0,,,73,104
103200,note_on,,,,,10,0,1,,,0,,,61,106
103271,note_off,,,,,71,0,1,,,0,,,73,64
103274,note_off,,,,,3,0,1,,,0,,,61,64
103280,note_on,,,,,6,0,1,,,0,,,61,99
103280,note_on,,,,,0,0,1,,,0,,,73,98
103352,note_off,,,,,72,0,1,,,0,,,73,64
103353,note_off,,,,,1,0,1,,,0,,,61,64
103360,note_on,,,,,7,0,1,,,0,,,61,101
103360,note_on,,,,,0,0,1,,,0,,,73,101
103430,note_off,,,,,70,0,1,,,0,,,61,64
103430,note_off,,,,,710,0,2,,,1,,,57,64
103431,note_off,,,,,1,0,1,,,0,,,73,64
103433,note_off,,,,,3,0,2,,,1,,,45,64
103440,note_on,,,,,0,0,1,,,0,,,61,96
103440,note_on,,,,,9,0,1,,,0,,,73,100
103440,note_on,,,,,0,0,2,,,1,,,45,101
103440,note_on,,,,,7,0,2,,,1,,,57,104
103514,note_off,,,,,74,0,1,,,0,,,61,64
103514,note_off,,,,,0,0,1,,,0,,,73,64
103520,note_on,,,,,6,0,1,,,0,,,73,99
103520,note_on,,,,,0,0,1,,,0,,,61,97
103590,note_off,,,,,70,0,1,,,0,,,73,64
103593,note_off,,,,,3,0,1,,,0,,,61,64
103600,note_on,,,,,0,0,1,,,0,,,61,101
103600,note_on,,,,,7,0,1,,,0,,,73,101
103670,note_off,,,,,70,0,1,,,0,,,61,64
103670,note_off,,,,,230,0,2,,,1,,,57,64
103671,note_off,,,,,1,0,2,,,1,,,45,64
103673,note_off,,,,,3,0,1,,,0,,,73,64
103680,note_on,,,,,9,0,2,,,1,,,33,110
103680,note_on,,,,,0,0,1,,,0,,,64,108
103680,note_on,,,,,7,0,1,,,0,,,67,105
103680,note_on,,,,,0,0,1,,,0,,,73,107
103690,note_on,,,,,10,0,2,,,1,,,45,111
103700,note_on,,,,,10,0,2,,,1,,,57,109
103750,note_off,,,,,70,0,1,,,0,,,67,64
103754,note_off,,,,,0,0,1,,,0,,,64,64
103754,note_off,,,,,4,0,1,,,0,,,73,64
103760,note_on,,,,,0,0,1,,,0,,,73,100
103760,note_on,,,,,6,0,1,,,0,,,64,101
103760,note_on,,,,,0,0,1,,,0,,,67,98
103831,note_off,,,,,71,0,1,,,0,,,64,64
103832,note_off,,,,,1,0,1,,,0,,,73,64
103833,note_off,,,,,1,0,1,,,0,,,67,64
103840,note_on,,,,,7,0,1,,,0,,,64,103
103840,note_on,,,,,0,0,1,,,0,,,67,100
103840,note_on,,,,,0,0,1,,,0,,,73,101
103910,note_off,,,,,70,0,1,,,0,,,67,64
103913,note_off,,,,,213,0,2,,,1,,,33,64
103913,note_off,,,,,3,0,1,,,0,,,73,64
103913,note_off,,,,,0,0,1,,,0,,,64,64
103920,note_on,,,,,0,0,1,,,0,,,73,101
103920,note_on,,,,,0,0,1,,,0,,,69,99
103920,note_on,,,,,0,0,1,,,0,,,67,97
103920,note_on,,,,,7,0,1,,,0,,,64,103
103991,note_off,,,,,71,0,1,,,0,,,69,64
103992,note_off,,,,,0,0,1,,,0,,,64,64
103992,note_off,,,,,1,0,1,,,0,,,73,64
103994,note_off,,,,,2,0,1,,,0,,,67,64
104000,note_on,,,,,0,0,1,,,0,,,64,97
104000,note_on,,,,,6,0,1,,,0,,,67,102
104000,note_on,,,,,0,0,1,,,0,,,69,104
104000,note_on,,,,,0,0,1,,,0,,,73,98
104070,note_off,,,,,70,0,1,,,0,,,67,64
104072,note_off,,,,,2,0,1,,,0,,,64,64
104073,note_off,,,,,1,0,1,,,0,,,73,64
104074,note_off,,,,,1,0,1,,,0,,,69,64
104080,note_on,,,,,0,0,1,,,0,,,69,103
104080,note_on,,,,,0,0,1,,,0,,,73,99
104080,note_on,,,,,0,0,1,,,0,,,64,103
104080,note_on,,,,,6,0,1,,,0,,,67,100
104151,note_off,,,,,71,0,1,,,0,,,64,64
104151,note_off,,,,,238,0,2,,,1,,,57,64
104152,note_off,,,,,1,0,1,,,0,,,73,64
104153,note_off,,,,,2,0,2,,,1,,,45,64
104153,note_off,,,,,1,0,1,,,0,,,69,64
104154,note_off,,,,,1,0,1,,,0,,,67,64
104160,note_on,,,,,0,0,1,,,0,,,64,106
104160,note_on,,,,,6,0,1,,,0,,,73,105
104160,note_on,,,,,7,0,2,,,1,,,45,106
104160,note_on,,,,,0,0,2,,,1,,,57,103
104160,note_on,,,,,0,0,1,,,0,,,69,103
104160,note_on,,,,,0,0,1,,,0,,,67,100
104231,note_off,,,,,71,0,1,,,0,,,73,64
104233,note_off,,,,,0,0,1,,,0,,,69,64
104233,note_off,,,,,2,0,1,,,0,,,64,64
104234,note_off,,,,,1,0,1,,,0,,,67,64
104240,note_on,,,,,0,0,1,,,0,,,67,98
104240,note_on,,,,,0,0,1,,,0,,,69,99
104240,note_on,,,,,0,0,1,,,0,,,73,101
104240,note_on,,,,,6,0,1,,,0,,,64,101
104310,note_off,,,,,70,0,1,,,0,,,67,64
104313,note_off,,,,,3,0,1,,,0,,,69,64
104314,note_off,,,,,0,0,1,,,0,,,64,64
104314,note_off,,,,,1,0,1,,,0,,,73,64
104320,note_on,,,,,0,0,1,,,0,,,64,102
104320,note_on,,,,,0,0,1,,,0,,,67,101
104320,note_on,,,,,6,0,1,,,0,,,69,99
104320,note_on,,,,,0,0,1,,,0,,,73,99
104391,note_off,,,,,71,0,1,,,0,,,67,64
104392,note_off,,,,,1,0,1,,,0,,,69,64
104393,note_off,,,,,1,0,1,,,0,,,64,64
104394,note_off,,,,,1,0,1,,,0,,,73,64
104400,note_on,,,,,0,0,1,,,0,,,64,96
104400,note_on,,,,,6,0,1,,,0,,,67,100
104400,note_on,,,,,0,0,1,,,0,,,73,103
104400,note_on,,,,,0,0,1,,,0,,,69,98
104470,note_off,,,,,70,0,1,,,0,,,69,64
104472,note_off,,,,,0,0,1,,,0,,,73,64
104472,note_off,,,,,2,0,1,,,0,,,64,64
104472,note_off,,,,,0,0,1,,,0,,,67,64
104480,note_on,,,,,0,0,1,,,0,,,73,102
104480,note_on,,,,,0,0,1,,,0,,,69,97
104480,note_on,,,,,0,0,1,,,0,,,64,97
104480,note_on,,,,,8,0,1,,,0,,,67,104
104513,note_off,,,,,353,0,2,,,1,,,45,64
104514,note_off,,,,,1,0,2,,,1,,,57,64
104520,note_on,,,,,6,0,2,,,1,,,45,98
104520,note_on,,,,,0,0,2,,,1,,,57,103
104551,note_off,,,,,71,0,1,,,0,,,64,64
104552,note_off,,,,,1,0,1,,,0,,,69,64
104552,note_off,,,,,0,0,1,,,0,,,67,64
104554,note_off,,,,,2,0,1,,,0,,,73,64
104560,note_on,,,,,0,0,1,,,0,,,73,97
104560,note_on,,,,,0,0,1,,,0,,,67,101
104560,note_on,,,,,0,0,1,,,0,,,69,99
104560,note_on,,,,,6,0,1,,,0,,,64,96
104631,note_off,,,,,0,0,1,,,0,,,64,64
104631,note_off,,,,,0,0,1,,,0,,,69,64
104631,note_off,,,,,71,0,1,,,0,,,73,64
104633,note_off,,,,,2,0,1,,,0,,,67,64
104633,note_off,,,,,113,0,2,,,1,,,45,64
104634,note_off,,,,,1,0,2,,,1,,,57,64
104640,note_on,,,,,0,0,1,,,0,,,69,104
104640,note_on,,,,,7,0,1,,,0,,,74,107
104640,note_on,,,,,0,0,1,,,0,,,65,106
104640,note_on,,,,,6,0,2,,,1,,,38,106
104650,note_on,,,,,10,0,2,,,1,,,50,107
104660,note_on,,,,,10,0,2,,,1,,,62,104
104712,note_off,,,,,72,0,1,,,0,,,74,64
104714,note_off,,,,,2,0,1,,,0,,,69,64
104714,note_off,,,,,0,0,1,,,0,,,65,64
104720,note_on,,,,,6,0,1,,,0,,,74,101
104720,note_on,,,,,0,0,1,,,0,,,65,97
104720,note_on,,,,,0,0,1,,,0,,,69,101
104791,note_off,,,,,71,0,1,,,0,,,65,64
104791,note_off,,,,,0,0,1,,,0,,,74,64
104791,note_off,,,,,0,0,1,,,0,,,69,64
104800,note_on,,,,,0,0,1,,,0,,,65,103
104800,note_on,,,,,9,0,1,,,0,,,69,102
104800,note_on,,,,,0,0,1,,,0,,,74,104
104870,note_off,,,,,70,0,1,,,0,,,74,64
104874,note_off,,,,,214,0,2,,,1,,,38,64
104874,note_off,,,,,4,0,1,,,0,,,65,64
104874,note_off,,,,,0,0,1,,,0,,,69,64
104880,note_on,,,,,0,0,1,,,0,,,69,103
104880,note_on,,,,,0,0,1,,,0,,,74,102
104880,note_on,,,,,6,0,1,,,0,,,65,98
104951,note_off,,,,,71,0,1,,,0,,,65,64
104952,note_off,,,,,1,0,1,,,0,,,74,64
104954,note_off,,,,,2,0,1,,,0,,,69,64
104960,note_on,,,,,0,0,1,,,0,,,65,100
104960,note_on,,,,,6,0,1,,,0,,,69,96
104960,note_on,,,,,0,0,1,,,0,,,74,102
105031,note_off,,,,,71,0,1,,,0,,,69,64
105032,note_off,,,,,1,0,1,,,0,,,65,64
105034,note_off,,,,,2,0,1,,,0,,,74,64
105040,note_on,,,,,0,0,1,,,0,,,65,100
105040,note_on,,,,,6,0,1,,,0,,,74,102
105040,note_on,,,,,0,0,1,,,0,,,69,101
105110,note_off,,,,,70,0,1,,,0,,,65,64
105112,note_off,,,,,2,0,1,,,0,,,69,64
105113,note_off,,,,,1,0,1,,,0,,,74,64
105120,note_on,,,,,0,0,1,,,0,,,69,100
105120,note_on,,,,,0,0,1,,,0,,,65,100
105120,note_on,,,,,7,0,1,,,0,,,74,98
105191,note_off,,,,,71,0,1,,,0,,,65,64
105193,note_off,,,,,0,0,1,,,0,,,74,64
105193,note_off,,,,,2,0,1,,,0,,,69,64
105200,note_on,,,,,7,0,1,,,0,,,74,99
105200,note_on,,,,,0,0,1,,,0,,,69,103
105200,note_on,,,,,0,0,1,,,0,,,65,104
105270,note_off,,,,,70,0,1,,,0,,,65,64
105270,note_off,,,,,0,0,1,,,0,,,74,64
105272,note_off,,,,,2,0,1,,,0,,,69,64
105280,note_on,,,,,8,0,1,,,0,,,69,101
105280,note_on,,,,,0,0,1,,,0,,,74,97
105280,note_on,,,,,0,0,1,,,0,,,65,99
105350,note_off,,,,,70,0,1,,,0,,,69,64
105352,note_off,,,,,0,0,2,,,1,,,50,64
105352,note_off,,,,,478,0,2,,,1,,,62,64
105354,note_off,,,,,0,0,1,,,0,,,65,64
105354,note_off,,,,,4,0,1,,,0,,,74,64
105360,note_on,,,,,0,0,2,,,1,,,62,97
105360,note_on,,,,,8,0,2,,,1,,,50,99
105360,note_on,,,,,6,0,1,,,0,,,69,101
105360,note_on,,,,,0,0,1,,,0,,,74,104
105360,note_on,,,,,0,0,1,,,0,,,65,102
105430,note_off,,,,,70,0,1,,,0,,,74,64
105432,note_off,,,,,2,0,1,,,0,,,65,64
105434,note_off,,,,,2,0,1,,,0,,,69,64
105440,note_on,,,,,0,0,1,,,0,,,74,103
105440,note_on,,,,,6,0,1,,,0,,,69,103
105440,note_on,,,,,0,0,1,,,0,,,65,100
105512,note_off,,,,,72,0,1,,,0,,,74,64
105514,note_off,,,,,2,0,1,,,0,,,65,64
105514,note_off,,,,,0,0,1,,,0,,,69,64
105520,note_on,,,,,0,0,1,,,0,,,69,103
105520,note_on,,,,,0,0,1,,,0,,,74,103
105520,note_on,,,,,6,0,1,,,0,,,65,100
105590,note_off,,,,,230,0,2,,,1,,,50,64
105590,note_off,,,,,70,0,1,,,0,,,65,64
105591,note_off,,,,,1,0,1,,,0,,,69,64
105591,note_off,,,,,0,0,1,,,0,,,74,64
105592,note_off,,,,,2,0,2,,,1,,,62,64
105600,note_on,,,,,9,0,1,,,0,,,70,107
105600,note_on,,,,,8,0,2,,,1,,,43,105
105600,note_on,,,,,0,0,1,,,0,,,74,105
105600,note_on,,,,,0,0,1,,,0,,,64,104
105610,note_on,,,,,10,0,2,,,1,,,50,101
105620,note_on,,,,,10,0,2,,,1,,,62,106
105671,note_off,,,,,71,0,1,,,0,,,74,64
105673,note_off,,,,,2,0,1,,,0,,,70,64
105674,note_off,,,,,1,0,1,,,0,,,64,64
105680,note_on,,,,,6,0,1,,,0,,,74,102
105680,note_on,,,,,0,0,1,,,0,,,64,101
105680,note_on,,,,,0,0,1,,,0,,,70,96
105752,note_off,,,,,72,0,1,,,0,,,70,64
105752,note_off,,,,,0,0,1,,,0,,,74,64
105753,note_off,,,,,1,0,1,,,0,,,64,64
105760,note_on,,,,,7,0,1,,,0,,,64,96
105760,note_on,,,,,0,0,1,,,0,,,74,102
105760,note_on,,,,,0,0,1,,,0,,,70,97
105831,note_off,,,,,71,0,1,,,0,,,74,64
105832,note_off,,,,,1,0,1,,,0,,,70,64
105833,note_off,,,,,1,0,1,,,0,,,64,64
105833,note_off,,,,,213,0,2,,,1,,,43,64
105834,note_off,,,,,1,0,2,,,1,,,50,64
105840,note_on,,,,,0,0,1,,,0,,,74,96
105840,note_on,,,,,0,0,1,,,0,,,70,103
105840,note_on,,,,,7,0,1,,,0,,,64,104
105840,note_on,,,,,0,0,2,,,1,,,46,98
105840,note_on,,,,,6,0,2,,,1,,,58,104
105843,note_off,,,,,3,0,2,,,1,,,62,64
105910,note_off,,,,,70,0,1,,,0,,,70,64
105914,note_off,,,,,4,0,1,,,0,,,74,64
105914,note_off,,,,,0,0,1,,,0,,,64,64
105920,note_on,,,,,6,0,1,,,0,,,74,103
105920,note_on,,,,,0,0,1,,,0,,,64,102
105920,note_on,,,,,0,0,1,,,0,,,70,103
105951,note_off,,,,,108,0,2,,,1,,,58,64
105952,note_off,,,,,1,0,2,,,1,,,46,64
105960,note_on,,,,,8,0,2,,,1,,,55,97
105960,note_on,,,,,0,0,2,,,1,,,43,97
105990,note_off,,,,,70,0,1,,,0,,,70,64
105992,note_off,,,,,2,0,1,,,0,,,64,64
105994,note_off,,,,,2,0,1,,,0,,,74,64
106000,note_on,,,,,0,0,1,,,0,,,74,102
106000,note_on,,,,,6,0,1,,,0,,,70,96
106000,note_on,,,,,0,0,1,,,0,,,64,102
106070,note_off,,,,,70,0,1,,,0,,,70,64
106072,note_off,,,,,112,0,2,,,1,,,43,64
106072,note_off,,,,,0,0,2,,,1,,,55,64
106073,note_off,,,,,3,0,1,,,0,,,64,64
106073,note_off,,,,,0,0,1,,,0,,,74,64
106080,note_on,,,,,7,0,1,,,0,,,70,99
106080,note_on,,,,,0,0,2,,,1,,,40,102
106080,note_on,,,,,0,0,1,,,0,,,64,99
106080,note_on,,,,,0,0,1,,,0,,,74,102
106080,note_on,,,,,8,0,2,,,1,,,52,101
106153,note_off,,,,,73,0,1,,,0,,,70,64
106154,note_off,,,,,1,0,1,,,0,,,64,64
106154,note_off,,,,,0,0,1,,,0,,,74,64
106160,note_on,,,,,6,0,1,,,0,,,74,96
106160,note_on,,,,,0,0,1,,,0,,,64,101
106160,note_on,,,,,0,0,1,,,0,,,70,98
106233,note_off,,,,,73,0,1,,,0,,,74,64
106234,note_off,,,,,1,0,1,,,0,,,64,64
106234,note_off,,,,,0,0,1,,,0,,,70,64
106240,note_on,,,,,0,0,1,,,0,,,70,99
106240,note_on,,,,,6,0,1,,,0,,,64,99
106240,note_on,,,,,0,0,1,,,0,,,74,100
106310,note_off,,,,,0,0,1,,,0,,,74,64
106310,note_off,,,,,70,0,1,,,0,,,70,64
106312,note_off,,,,,232,0,2,,,1,,,40,64
106314,note_off,,,,,4,0,1,,,0,,,64,64
106314,note_off,,,,,2,0,2,,,1,,,52,64
106320,note_on,,,,,6,0,1,,,0,,,67,97
106320,note_on,,,,,0,0,2,,,1,,,46,100
106320,note_on,,,,,0,0,1,,,0,,,74,101
106320,note_on,,,,,6,0,2,,,1,,,58,104
106320,note_on,,,,,0,0,1,,,0,,,64,100
106393,note_off,,,,,73,0,1,,,0,,,64,64
106394,note_off,,,,,0,0,1,,,0,,,67,64
106394,note_off,,,,,1,0,1,,,0,,,74,64
106400,note_on,,,,,6,0,1,,,0,,,67,103
106400,note_on,,,,,0,0,1,,,0,,,64,101
106400,note_on,,,,,0,0,1,,,0,,,74,100
106472,note_off,,,,,72,0,1,,,0,,,64,64
106472,note_off,,,,,0,0,1,,,0,,,74,64
106473,note_off,,,,,1,0,1,,,0,,,67,64
106480,note_on,,,,,7,0,1,,,0,,,74,97
106480,note_on,,,,,0,0,1,,,0,,,67,97
106480,note_on,,,,,0,0,1,,,0,,,64,96
106550,note_off,,,,,230,0,2,,,1,,,58,64
106551,note_off,,,,,71,0,1,,,0,,,74,64
106553,note_off,,,,,3,0,2,,,1,,,46,64
106553,note_off,,,,,2,0,1,,,0,,,64,64
106554,note_off,,,,,1,0,1,,,0,,,67,64
106560,note_on,,,,,0,0,2,,,1,,,45,105
106560,note_on,,,,,6,0,1,,,0,,,65,108
106560,note_on,,,,,7,0,2,,,1,,,57,107
106560,note_on,,,,,0,0,1,,,0,,,74,104
106560,note_on,,,,,0,0,1,,,0,,,69,106
106631,note_off,,,,,71,0,1,,,0,,,65,64
106634,note_off,,,,,3,0,1,,,0,,,69,64
106634,note_off,,,,,0,0,1,,,0,,,74,64
106640,note_on,,,,,0,0,1,,,0,,,74,103
106640,note_on,,,,,0,0,1,,,0,,,69,104
106640,note_on,,,,,6,0,1,,,0,,,65,100
106711,note_off,,,,,71,0,1,,,0,,,65,64
106712,note_off,,,,,1,0,1,,,0,,,74,64
106713,note_off,,,,,1,0,1,,,0,,,69,64
106720,note_on,,,,,7,0,1,,,0,,,74,96
106720,note_on,,,,,0,0,1,,,0,,,69,102
106720,note_on,,,,,0,0,1,,,0,,,65,97
106794,note_off,,,,,0,0,1,,,0,,,74,64
106794,note_off,,,,,0,0,1,,,0,,,65,64
106794,note_off,,,,,74,0,1,,,0,,,69,64
106800,note_on,,,,,0,0,1,,,0,,,65,100
106800,note_on,,,,,6,0,1,,,0,,,69,99
106800,note_on,,,,,0,0,1,,,0,,,74,97
106870,note_off,,,,,0,0,1,,,0,,,65,64
106870,note_off,,,,,0,0,1,,,0,,,69,64
106870,note_off,,,,,70,0,1,,,0,,,74,64
106880,note_on,,,,,10,0,1,,,0,,,65,97
106880,note_on,,,,,0,0,1,,,0,,,69,96
106880,note_on,,,,,0,0,1,,,0,,,74,100
106950,note_off,,,,,70,0,1,,,0,,,74,64
106950,note_off,,,,,0,0,1,,,0,,,65,64
106954,note_off,,,,,4,0,1,,,0,,,69,64
106960,note_on,,,,,0,0,1,,,0,,,74,102
106960,note_on,,,,,0,0,1,,,0,,,69,99
106960,note_on,,,,,6,0,1,,,0,,,65,101
107031,note_off,,,,,71,0,1,,,0,,,65,64
107032,note_off,,,,,472,0,2,,,1,,,57,64
107032,note_off,,,,,1,0,1,,,0,,,74,64
107033,note_off,,,,,1,0,2,,,1,,,45,64
107033,note_off,,,,,1,0,1,,,0,,,69,64
107040,note_on,,,,,7,0,1,,,0,,,69,106
107040,note_on,,,,,0,0,1,,,0,,,64,106
107040,note_on,,,,,7,0,2,,,1,,,33,100
107040,note_on,,,,,0,0,1,,,0,,,73,106
107050,note_on,,,,,10,0,2,,,1,,,45,101
107060,note_on,,,,,10,0,2,,,1,,,57,100
107110,note_off,,,,,0,0,1,,,0,,,69,64
107110,note_off,,,,,70,0,1,,,0,,,73,64
107113,note_off,,,,,3,0,1,,,0,,,64,64
107120,note_on,,,,,0,0,1,,,0,,,69,103
107120,note_on,,,,,7,0,1,,,0,,,73,101
107120,note_on,,,,,0,0,1,,,0,,,64,101
107192,note_off,,,,,72,0,1,,,0,,,64,64
107192,note_off,,,,,0,0,1,,,0,,,69,64
107194,note_off,,,,,2,0,1,,,0,,,73,64
107200,note_on,,,,,0,0,1,,,0,,,64,98
107200,note_on,,,,,0,0,1,,,0,,,69,99
107200,note_on,,,,,6,0,1,,,0,,,73,103
107271,note_off,,,,,0,0,1,,,0,,,73,64
107271,note_off,,,,,71,0,1,,,0,,,64,64
107273,note_off,,,,,213,0,2,,,1,,,33,64
107273,note_off,,,,,2,0,1,,,0,,,69,64
107274,note_off,,,,,1,0,2,,,1,,,57,64
107274,note_off,,,,,0,0,2,,,1,,,45,64
107280,note_on,,,,,0,0,1,,,0,,,69,103
107280,note_on,,,,,0,0,1,,,0,,,64,97
107280,note_on,,,,,0,0,2,,,1,,,45,104
107280,note_on,,,,,7,0,1,,,0,,,73,101
107280,note_on,,,,,6,0,2,,,1,,,57,102
107351,note_off,,,,,71,0,1,,,0,,,73,64
107353,note_off,,,,,0,0,1,,,0,,,69,64
107353,note_off,,,,,2,0,1,,,0,,,64,64
107360,note_on,,,,,0,0,1,,,0,,,64,96
107360,note_on,,,,,7,0,1,,,0,,,73,101
107360,note_on,,,,,0,0,1,,,0,,,69,104
107430,note_off,,,,,70,0,1,,,0,,,73,64
107431,note_off,,,,,1,0,1,,,0,,,69,64
107433,note_off,,,,,2,0,1,,,0,,,64,64
107440,note_on,,,,,7,0,1,,,0,,,73,104
107440,note_on,,,,,0,0,1,,,0,,,64,102
107440,note_on,,,,,0,0,1,,,0,,,69,99
107510,note_off,,,,,70,0,1,,,0,,,69,64
107511,note_off,,,,,1,0,1,,,0,,,64,64
107511,note_off,,,,,231,0,2,,,1,,,45,64
107512,note_off,,,,,1,0,1,,,0,,,73,64
107513,note_off,,,,,2,0,2,,,1,,,57,64
107520,note_on,,,,,0,0,2,,,1,,,38,112
107520,note_on,,,,,8,0,1,,,0,,,74,110
107520,note_on,,,,,0,0,1,,,0,,,65,115
107520,note_on,,,,,0,0,1,,,0,,,69,118
107520,note_on,,,,,7,0,2,,,1,,,50,117
107590,note_off,,,,,70,0,1,,,0,,,69,64
107593,note_off,,,,,3,0,1,,,0,,,74,64
107594,note_off,,,,,1,0,1,,,0,,,65,64
107600,note_on,,,,,0,0,1,,,0,,,74,109
107600,note_on,,,,,6,0,1,,,0,,,62,107
107673,note_off,,,,,73,0,1,,,0,,,74,64
107674,note_off,,,,,1,0,1,,,0,,,62,64
107680,note_on,,,,,6,0,1,,,0,,,62,111
107680,note_on,,,,,0,0,1,,,0,,,74,114
107750,note_off,,,,,70,0,1,,,0,,,62,64
107750,note_off,,,,,230,0,2,,,1,,,38,64
107751,note_off,,,,,1,0,1,,,0,,,74,64
107751,note_off,,,,,1,0,2,,,1,,,50,64
107760,note_on,,,,,9,0,1,,,0,,,62,113
107760,note_on,,,,,0,0,1,,,0,,,74,108
107830,note_off,,,,,70,0,1,,,0,,,74,64
107833,note_off,,,,,3,0,1,,,0,,,62,64
107840,note_on,,,,,7,0,1,,,0,,,74,113
107840,note_on,,,,,0,0,1,,,0,,,62,113
107911,note_off,,,,,71,0,1,,,0,,,62,64
107912,note_off,,,,,1,0,1,,,0,,,74,64
107920,note_on,,,,,0,0,1,,,0,,,74,109
107920,note_on,,,,,8,0,1,,,0,,,62,107
107994,note_off,,,,,0,0,1,,,0,,,62,64
107994,note_off,,,,,74,0,1,,,0,,,74,64
108000,note_on,,,,,0,0,1,,,0,,,74,108
108000,note_on,,,,,6,0,1,,,0,,,62,114
108073,note_off,,,,,73,0,1,,,0,,,74,64
108073,note_off,,,,,0,0,1,,,0,,,62,64
108080,note_on,,,,,0,0,1,,,0,,,62,110
108080,note_on,,,,,7,0,1,,,0,,,74,114
108150,note_off,,,,,70,0,1,,,0,,,62,64
108151,note_off,,,,,1,0,1,,,0,,,74,64
108160,note_on,,,,,0,0,1,,,0,,,74,109
108160,note_on,,,,,9,0,1,,,0,,,62,110
108233,note_off,,,,,73,0,1,,,0,,,62,64
108234,note_off,,,,,1,0,1,,,0,,,74,64
108240,note_on,,,,,0,0,1,,,0,,,74,106
108240,note_on,,,,,6,0,1,,,0,,,62,108
108311,note_off,,,,,71,0,1,,,0,,,62,64
108313,note_off,,,,,2,0,1,,,0,,,74,64
108320,note_on,,,,,7,0,1,,,0,,,74,107
108320,note_on,,,,,0,0,1,,,0,,,62,107
108391,note_off,,,,,71,0,1,,,0,,,62,64
108393,note_off,,,,,2,0,1,,,0,,,74,64
108400,note_on,,,,,7,0,1,,,0,,,62,110
108400,note_on,,,,,0,0,1,,,0,,,74,106
108473,note_off,,,,,73,0,1,,,0,,,74,64
108474,note_off,,,,,1,0,1,,,0,,,62,64
108480,note_on,,,,,0,0,1,,,0,,,62,118
108480,note_on,,,,,729,0,2,,,1,,,38,117
108480,note_on,,,,,0,0,2,,,1,,,26,118
108480,note_on,,,,,6,0,1,,,0,,,74,112
108550,note_off,,,,,70,0,2,,,1,,,26,64
108550,note_off,,,,,70,0,1,,,0,,,74,64
108552,note_off,,,,,2,0,1,,,0,,,62,64
108553,note_off,,,,,3,0,2,,,1,,,38,64
108560,note_on,,,,,8,0,1,,,0,,,62,114
108560,note_on,,,,,0,0,2,,,1,,,28,107
108560,note_on,,,,,0,0,1,,,0,,,74,110
108560,note_on,,,,,7,0,2,,,1,,,40,106
108630,note_off,,,,,70,0,1,,,0,,,62,64
108631,note_off,,,,,1,0,1,,,0,,,74,64
108634,note_off,,,,,0,0,2,,,1,,,40,64
108634,note_off,,,,,74,0,2,,,1,,,28,64
108640,note_on,,,,,0,0,2,,,1,,,29,107
108640,note_on,,,,,6,0,2,,,1,,,41,107
108640,note_on,,,,,9,0,1,,,0,,,74,113
108640,note_on,,,,,0,0,1,,,0,,,62,107
108712,note_off,,,,,72,0,1,,,0,,,74,64
108713,note_off,,,,,73,0,2,,,1,,,41,64
108714,note_off,,,,,1,0,2,,,1,,,29,64
108714,note_off,,,,,2,0,1,,,0,,,62,64
108720,note_on,,,,,0,0,2,,,1,,,31,113
108720,note_on,,,,,0,0,1,,,0,,,74,110
108720,note_on,,,,,6,0,1,,,0,,,62,110
108720,note_on,,,,,6,0,2,,,1,,,43,110
108790,note_off,,,,,70,0,1,,,0,,,74,64
108791,note_off,,,,,71,0,2,,,1,,,43,64
108792,note_off,,,,,2,0,1,,,0,,,62,64
108794,note_off,,,,,3,0,2,,,1,,,31,64
108800,note_on,,,,,0,0,2,,,1,,,33,109
108800,note_on,,,,,8,0,1,,,0,,,74,109
108800,note_on,,,,,6,0,2,,,1,,,45,107
108800,note_on,,,,,0,0,1,,,0,,,62,110
108870,note_off,,,,,70,0,2,,,1,,,45,64
108871,note_off,,,,,1,0,2,,,1,,,33,64
108871,note_off,,,,,71,0,1,,,0,,,62,64
108873,note_off,,,,,2,0,1,,,0,,,74,64
108880,note_on,,,,,7,0,1,,,0,,,74,112
108880,note_on,,,,,0,0,2,,,1,,,34,109
108880,note_on,,,,,0,0,1,,,0,,,62,108
108880,note_on,,,,,9,0,2,,,1,,,46,110
108950,note_off,,,,,0,0,1,,,0,,,74,64
108950,note_off,,,,,70,0,1,,,0,,,62,64
108950,note_off,,,,,70,0,2,,,1,,,46,64
108953,note_off,,,,,3,0,2,,,1,,,34,64
108960,note_on,,,,,7,0,2,,,1,,,33,110
108960,note_on,,,,,0,0,2,,,1,,,45,115
108960,note_on,,,,,0,0,1,,,0,,,74,114
108960,note_on,,,,,10,0,1,,,0,,,62,114
109030,note_off,,,,,70,0,1,,,0,,,62,64
109033,note_off,,,,,3,0,1,,,0,,,74,64
109040,note_on,,,,,0,0,1,,,0,,,74,108
109040,note_on,,,,,7,0,1,,,0,,,62,108
109071,note_off,,,,,111,0,2,,,1,,,33,64
109072,note_off,,,,,1,0,2,,,1,,,45,64
109110,note_off,,,,,70,0,1,,,0,,,74,64
109112,note_off,,,,,2,0,1,,,0,,,62,64
109120,note_on,,,,,0,0,1,,,0,,,74,107
109120,note_on,,,,,8,0,1,,,0,,,62,106
109192,note_off,,,,,72,0,1,,,0,,,74,64
109193,note_off,,,,,1,0,1,,,0,,,62,64
109200,note_on,,,,,0,0,2,,,1,,,41,107
109200,note_on,,,,,0,0,1,,,0,,,74,114
109200,note_on,,,,,7,0,1,,,0,,,62,114
109200,note_on,,,,,128,0,2,,,1,,,29,113
109270,note_off,,,,,70,0,1,,,0,,,74,64
109270,note_off,,,,,0,0,1,,,0,,,62,64
109280,note_on,,,,,0,0,1,,,0,,,74,114
109280,note_on,,,,,10,0,1,,,0,,,62,110
109312,note_off,,,,,112,0,2,,,1,,,41,64
109313,note_off,,,,,1,0,2,,,1,,,29,64
109351,note_off,,,,,71,0,1,,,0,,,74,64
109353,note_off,,,,,2,0,1,,,0,,,62,64
109360,note_on,,,,,7,0,1,,,0,,,62,112
109360,note_on,,,,,0,0,1,,,0,,,74,111
109434,note_off,,,,,74,0,1,,,0,,,74,64
109434,note_off,,,,,0,0,1,,,0,,,62,64
109440,note_on,,,,,0,0,1,,,0,,,62,112
109440,note_on,,,,,6,0,1,,,0,,,74,117
109440,note_on,,,,,127,0,2,,,1,,,26,118
109440,note_on,,,,,0,0,2,,,1,,,38,118
109510,note_off,,,,,70,0,1,,,0,,,62,64
109514,note_off,,,,,4,0,1,,,0,,,74,64
109520,note_on,,,,,0,0,1,,,0,,,62,106
109520,note_on,,,,,6,0,1,,,0,,,74,106
109590,note_off,,,,,70,0,1,,,0,,,74,64
109593,note_off,,,,,3,0,1,,,0,,,62,64
109600,note_on,,,,,0,0,1,,,0,,,62,111
109600,note_on,,,,,7,0,1,,,0,,,74,108
109670,note_off,,,,,70,0,1,,,0,,,62,64
109670,note_off,,,,,230,0,2,,,1,,,26,64
109671,note_off,,,,,1,0,1,,,0,,,74,64
109672,note_off,,,,,2,0,2,,,1,,,38,64
109680,note_on,,,,,9,0,1,,,0,,,74,110
109680,note_on,,,,,0,0,1,,,0,,,62,108
109754,note_off,,,,,0,0,1,,,0,,,74,64
109754,note_off,,,,,74,0,1,,,0,,,62,64
109760,note_on,,,,,6,0,1,,,0,,,62,113
109760,note_on,,,,,0,0,1,,,0,,,74,114
109831,note_off,,,,,71,0,1,,,0,,,74,64
109832,note_off,,,,,1,0,1,,,0,,,62,64
109840,note_on,,,,,0,0,1,,,0,,,62,111
109840,note_on,,,,,8,0,1,,,0,,,74,112
109911,note_off,,,,,71,0,1,,,0,,,74,64
109913,note_off,,,,,2,0,1,,,0,,,62,64
109920,note_on,,,,,0,0,1,,,0,,,62,113
109920,note_on,,,,,7,0,1,,,0,,,74,111
109991,note_off,,,,,71,0,1,,,0,,,62,64
109994,note_off,,,,,3,0,1,,,0,,,74,64
110000,note_on,,,,,6,0,1,,,0,,,74,110
110000,note_on,,,,,0,0,1,,,0,,,62,107
110072,note_off,,,,,72,0,1,,,0,,,62,64
110073,note_off,,,,,1,0,1,,,0,,,74,64
110080,note_on,,,,,7,0,1,,,0,,,74,106
110080,note_on,,,,,0,0,1,,,0,,,62,107
110151,note_off,,,,,71,0,1,,,0,,,62,64
110152,note_off,,,,,1,0,1,,,0,,,74,64
110160,note_on,,,,,8,0,1,,,0,,,74,110
110160,note_on,,,,,0,0,1,,,0,,,62,112
110231,note_off,,,,,71,0,1,,,0,,,74,64
110232,note_off,,,,,1,0,1,,,0,,,62,64
110240,note_on,,,,,8,0,1,,,0,,,74,113
110240,note_on,,,,,0,0,1,,,0,,,62,110
110310,note_off,,,,,70,0,1,,,0,,,62,64
110312,note_off,,,,,2,0,1,,,0,,,74,64
110320,note_on,,,,,8,0,1,,,0,,,74,114
110320,note_on,,,,,0,0,1,,,0,,,62,106
110390,note_off,,,,,70,0,1,,,0,,,62,64
110391,note_off,,,,,1,0,1,,,0,,,74,64
110400,note_on,,,,,728,0,2,,,1,,,50,85
110400,note_on,,,,,0,0,1,,,0,,,74,88
110400,note_on,,,,,9,0,1,,,0,,,62,82
110400,note_on,,,,,0,0,2,,,1,,,38,89
110470,note_off,,,,,70,0,1,,,0,,,74,64
110472,note_off,,,,,2,0,1,,,0,,,62,64
110473,note_off,,,,,73,0,2,,,1,,,38,64
110474,note_off,,,,,1,0,2,,,1,,,50,64
110480,note_on,,,,,6,0,2,,,1,,,52,80
110480,note_on,,,,,0,0,1,,,0,,,74,79
110480,note_on,,,,,0,0,2,,,1,,,40,84
110480,note_on,,,,,8,0,1,,,0,,,62,81
110551,note_off,,,,,71,0,1,,,0,,,74,64
110552,note_off,,,,,72,0,2,,,1,,,52,64
110554,note_off,,,,,2,0,2,,,1,,,40,64
110554,note_off,,,,,3,0,1,,,0,,,62,64
110560,note_on,,,,,6,0,1,,,0,,,62,77
110560,note_on,,,,,0,0,2,,,1,,,41,81
110560,note_on,,,,,0,0,1,,,0,,,74,80
110560,note_on,,,,,6,0,2,,,1,,,53,80
110630,note_off,,,,,0,0,1,,,0,,,62,64
110630,note_off,,,,,70,0,1,,,0,,,74,64
110632,note_off,,,,,72,0,2,,,1,,,41,64
110634,note_off,,,,,2,0,2,,,1,,,53,64
110640,note_on,,,,,10,0,1,,,0,,,74,83
110640,note_on,,,,,0,0,2,,,1,,,43,77
110640,note_on,,,,,0,0,1,,,0,,,62,79
110640,note_on,,,,,6,0,2,,,1,,,55,84
110710,note_off,,,,,0,0,2,,,1,,,55,64
110710,note_off,,,,,70,0,2,,,1,,,43,64
110713,note_off,,,,,73,0,1,,,0,,,62,64
110713,note_off,,,,,0,0,1,,,0,,,74,64
110720,note_on,,,,,7,0,1,,,0,,,62,83
110720,note_on,,,,,0,0,2,,,1,,,45,78
110720,note_on,,,,,0,0,1,,,0,,,74,81
110720,note_on,,,,,10,0,2,,,1,,,57,79
110793,note_off,,,,,73,0,1,,,0,,,62,64
110793,note_off,,,,,73,0,2,,,1,,,57,64
110794,note_off,,,,,1,0,2,,,1,,,45,64
110794,note_off,,,,,1,0,1,,,0,,,74,64
110800,note_on,,,,,0,0,2,,,1,,,46,80
110800,note_on,,,,,0,0,1,,,0,,,62,85
110800,note_on,,,,,6,0,1,,,0,,,74,79
110800,note_on,,,,,6,0,2,,,1,,,58,82
110870,note_off,,,,,70,0,2,,,1,,,58,64
110872,note_off,,,,,2,0,2,,,1,,,46,64
110874,note_off,,,,,74,0,1,,,0,,,62,64
110874,note_off,,,,,0,0,1,,,0,,,74,64
110880,note_on,,,,,8,0,2,,,1,,,45,85
110880,note_on,,,,,0,0,1,,,0,,,62,81
110880,note_on,,,,,0,0,2,,,1,,,57,86
110880,note_on,,,,,6,0,1,,,0,,,74,83
110950,note_off,,,,,70,0,1,,,0,,,74,64
110954,note_off,,,,,4,0,1,,,0,,,62,64
110960,note_on,,,,,0,0,1,,,0,,,62,78
110960,note_on,,,,,6,0,1,,,0,,,74,79
110990,note_off,,,,,110,0,2,,,1,,,45,64
110993,note_off,,,,,3,0,2,,,1,,,57,64
111031,note_off,,,,,71,0,1,,,0,,,62,64
111034,note_off,,,,,3,0,1,,,0,,,74,64
111040,note_on,,,,,0,0,1,,,0,,,62,77
111040,note_on,,,,,6,0,1,,,0,,,74,80
111110,note_off,,,,,0,0,1,,,0,,,74,64
111110,note_off,,,,,70,0,1,,,0,,,62,64
111120,note_on,,,,,0,0,1,,,0,,,62,80
111120,note_on,,,,,10,0,1,,,0,,,74,79
111120,note_on,,,,,0,0,2,,,1,,,53,81
111120,note_on,,,,,127,0,2,,,1,,,41,84
111193,note_off,,,,,0,0,1,,,0,,,74,64
111193,note_off,,,,,73,0,1,,,0,,,62,64
111200,note_on,,,,,7,0,1,,,0,,,62,83
111200,note_on,,,,,0,0,1,,,0,,,74,85
111234,note_off,,,,,114,0,2,,,1,,,53,64
111234,note_off,,,,,0,0,2,,,1,,,41,64
111274,note_off,,,,,0,0,1,,,0,,,62,64
111274,note_off,,,,,74,0,1,,,0,,,74,64
111280,note_on,,,,,0,0,1,,,0,,,74,79
111280,note_on,,,,,6,0,1,,,0,,,62,81
111351,note_off,,,,,71,0,1,,,0,,,62,64
111354,note_off,,,,,3,0,1,,,0,,,74,64
111360,note_on,,,,,6,0,1,,,0,,,74,85
111360,note_on,,,,,126,0,2,,,1,,,50,85
111360,note_on,,,,,0,0,1,,,0,,,62,89
111360,note_on,,,,,0,0,2,,,1,,,38,83
111430,note_off,,,,,70,0,1,,,0,,,62,64
111434,note_off,,,,,4,0,1,,,0,,,74,64
111440,note_on,,,,,6,0,1,,,0,,,62,82
111440,note_on,,,,,0,0,1,,,0,,,74,78
111510,note_off,,,,,70,0,1,,,0,,,74,64
111513,note_off,,,,,3,0,1,,,0,,,62,64
111520,note_on,,,,,7,0,1,,,0,,,62,84
111520,note_on,,,,,0,0,1,,,0,,,74,83
111590,note_off,,,,,70,0,1,,,0,,,74,64
111591,note_off,,,,,231,0,2,,,1,,,50,64
111592,note_off,,,,,2,0,1,,,0,,,62,64
111592,note_off,,,,,1,0,2,,,1,,,38,64
111600,note_on,,,,,8,0,1,,,0,,,62,83
111600,note_on,,,,,0,0,1,,,0,,,74,85
111670,note_off,,,,,70,0,1,,,0,,,62,64
111671,note_off,,,,,1,0,1,,,0,,,74,64
111680,note_on,,,,,0,0,1,,,0,,,62,78
111680,note_on,,,,,9,0,1,,,0,,,74,81
111750,note_off,,,,,70,0,1,,,0,,,62,64
111754,note_off,,,,,4,0,1,,,0,,,74,64
111760,note_on,,,,,6,0,1,,,0,,,74,83
111760,note_on,,,,,0,0,1,,,0,,,62,79
111831,note_off,,,,,71,0,1,,,0,,,62,64
111834,note_off,,,,,3,0,1,,,0,,,74,64
111840,note_on,,,,,0,0,1,,,0,,,62,80
111840,note_on,,,,,6,0,1,,,0,,,74,85
111910,note_off,,,,,70,0,1,,,0,,,74,64
111911,note_off,,,,,1,0,1,,,0,,,62,64
111920,note_on,,,,,0,0,1,,,0,,,62,79
111920,note_on,,,,,9,0,1,,,0,,,74,81
111991,note_off,,,,,71,0,1,,,0,,,62,64
111992,note_off,,,,,1,0,1,,,0,,,74,64
112000,note_on,,,,,0,0,1,,,0,,,74,82
112000,note_on,,,,,8,0,1,,,0,,,62,82
112070,note_off,,,,,70,0,1,,,0,,,74,64
112074,note_off,,,,,4,0,1,,,0,,,62,64
112080,note_on,,,,,6,0,1,,,0,,,74,77
112080,note_on,,,,,0,0,1,,,0,,,84,81
112080,note_on,,,,,488,0,2,,,1,,,62,82
112080,note_on,,,,,0,0,2,,,1,,,50,84
112154,note_off,,,,,0,0,2,,,1,,,62,64
112154,note_off,,,,,74,0,2,,,1,,,50,64
112160,note_on,,,,,6,0,2,,,1,,,62,85
112160,note_on,,,,,0,0,2,,,1,,,50,79
112231,note_off,,,,,71,0,2,,,1,,,62,64
112232,note_off,,,,,1,0,2,,,1,,,50,64
112240,note_on,,,,,8,0,2,,,1,,,62,80
112240,note_on,,,,,0,0,2,,,1,,,50,83
112311,note_off,,,,,231,0,1,,,0,,,84,64
112312,note_off,,,,,1,0,1,,,0,,,74,64
112313,note_off,,,,,73,0,2,,,1,,,62,64
112314,note_off,,,,,1,0,2,,,1,,,50,64
112320,control_change,,,,,6,0,2,,,1,7,101,,
112320,note_on,,,,,0,0,2,,,1,,,39,83
112320,note_on,,,,,0,0,2,,,1,,,51,86
112320,note_on,,,,,8,0,1,,,0,,,79,81
112320,set_tempo,,,,,18240,1,0,437956,,,,,,
112320,note_on,,,,,0,0,1,,,0,,,75,86
112320,note_on,,,,,0,0,1,,,0,,,87,81
112320,control_change,,,,,0,0,1,,,0,7,101,,
112393,note_off,,,,,73,0,1,,,0,,,79,64
112400,note_on,,,,,7,0,1,,,0,,,79,82
112400,note_on,,,,,80,0,2,,,1,,,55,81
112400,note_on,,,,,0,0,2,,,1,,,58,83
112400,note_on,,,,,0,0,2,,,1,,,63,78
112400,note_on,,,,,0,0,2,,,1,,,67,80
112471,note_off,,,,,71,0,2,,,1,,,55,64
112473,note_off,,,,,2,0,2,,,1,,,67,64
112473,note_off,,,,,0,0,2,,,1,,,63,64
112473,note_off,,,,,0,0,2,,,1,,,58,64
112474,note_off,,,,,74,0,1,,,0,,,79,64
112480,note_on,,,,,0,0,2,,,1,,,58,81
112480,note_on,,,,,6,0,1,,,0,,,79,84
112480,note_on,,,,,7,0,2,,,1,,,55,80
112480,note_on,,,,,0,0,2,,,1,,,67,82
112480,note_on,,,,,0,0,2,,,1,,,63,82
112551,note_off,,,,,71,0,2,,,1,,,63,64
112552,note_off,,,,,1,0,2,,,1,,,58,64
112552,note_off,,,,,72,0,1,,,0,,,79,64
112553,note_off,,,,,1,0,1,,,0,,,87,64
112554,note_off,,,,,2,0,2,,,1,,,67,64
112554,note_off,,,,,1,0,1,,,0,,,75,64
112554,note_off,,,,,0,0,2,,,1,,,55,64
112560,note_on,,,,,0,0,2,,,1,,,67,79
112560,note_on,,,,,0,0,2,,,1,,,63,78
112560,note_on,,,,,0,0,2,,,1,,,58,81
112560,note_on,,,,,0,0,1,,,0,,,79,77
112560,note_on,,,,,6,0,1,,,0,,,75,81
112560,note_on,,,,,6,0,2,,,1,,,55,84
112615,set_tempo,,,,,295,1,0,441176,,,,,,
112631,note_off,,,,,71,0,2,,,1,,,55,64
112632,note_off,,,,,72,0,1,,,0,,,75,64
112632,note_off,,,,,0,0,2,,,1,,,58,64
112632,note_off,,,,,1,0,2,,,1,,,63,64
112633,note_off,,,,,1,0,1,,,0,,,79,64
112634,note_off,,,,,2,0,2,,,1,,,67,64
112640,note_on,,,,,0,0,1,,,0,,,75,77
112640,note_on,,,,,6,0,2,,,1,,,55,79
112640,note_on,,,,,0,0,2,,,1,,,67,81
112640,note_on,,,,,0,0,2,,,1,,,63,83
112640,note_on,,,,,0,0,2,,,1,,,58,84
112640,note_on,,,,,7,0,1,,,0,,,79,83
112710,note_off,,,,,70,0,1,,,0,,,75,64
112711,note_off,,,,,0,0,2,,,1,,,67,64
112711,note_off,,,,,71,0,2,,,1,,,58,64
112712,note_off,,,,,0,0,2,,,1,,,55,64
112712,note_off,,,,,1,0,2,,,1,,,63,64
112712,note_off,,,,,2,0,1,,,0,,,79,64
112720,note_on,,,,,0,0,2,,,1,,,67,82
112720,note_on,,,,,0,0,2,,,1,,,58,77
112720,note_on,,,,,0,0,2,,,1,,,55,79
112720,note_on,,,,,8,0,2,,,1,,,63,77
112720,note_on,,,,,0,0,1,,,0,,,79,78
112720,note_on,,,,,8,0,1,,,0,,,70,85
112720,note_on,,,,,0,0,1,,,0,,,75,83
112720,note_on,,,,,0,0,1,,,0,,,82,82
112791,note_off,,,,,71,0,1,,,0,,,79,64
112792,note_off,,,,,0,0,1,,,0,,,70,64
112792,note_off,,,,,72,0,2,,,1,,,67,64
112792,note_off,,,,,0,0,2,,,1,,,58,64
112792,note_off,,,,,1,0,1,,,0,,,82,64
112793,note_off,,,,,0,0,2,,,1,,,63,64
112793,note_off,,,,,1,0,1,,,0,,,75,64
112793,note_off,,,,,1,0,2,,,1,,,55,64
112799,control_change,,,,,6,0,1,,,0,7,102,,
112799,control_change,,,,,6,0,2,,,1,7,102,,
112800,note_on,,,,,0,0,1,,,0,,,79,87
112800,note_on,,,,,0,0,1,,,0,,,75,86
112800,note_on,,,,,0,0,2,,,1,,,55,84
112800,note_on,,,,,0,0,1,,,0,,,82,81
112800,note_on,,,,,0,0,2,,,1,,,63,83
112800,note_on,,,,,1,0,2,,,1,,,58,82
112800,note_on,,,,,1,0,1,,,0,,,70,87
112800,note_on,,,,,0,0,2,,,1,,,67,85
112871,note_off,,,,,71,0,1,,,0,,,79,64
112872,note_off,,,,,1,0,1,,,0,,,75,64
112872,note_off,,,,,72,0,2,,,1,,,63,64
112872,note_off,,,,,0,0,2,,,1,,,55,64
112872,note_off,,,,,0,0,2,,,1,,,67,64
112873,note_off,,,,,1,0,2,,,1,,,58,64
112880,note_on,,,,,0,0,2,,,1,,,58,84
112880,note_on,,,,,8,0,1,,,0,,,79,83
112880,note_on,,,,,7,0,2,,,1,,,55,82
112880,note_on,,,,,0,0,2,,,1,,,67,80
112880,note_on,,,,,0,0,2,,,1,,,63,80
112880,note_on,,,,,0,0,1,,,0,,,75,78
112910,set_tempo,,,,,295,1,0,444444,,,,,,
112950,note_off,,,,,0,0,2,,,1,,,55,64
112950,note_off,,,,,70,0,1,,,0,,,75,64
112950,note_off,,,,,70,0,2,,,1,,,58,64
112951,note_off,,,,,1,0,1,,,0,,,79,64
112953,note_off,,,,,3,0,2,,,1,,,67,64
112954,note_off,,,,,1,0,2,,,1,,,63,64
112960,note_on,,,,,0,0,2,,,1,,,55,84
112960,note_on,,,,,6,0,2,,,1,,,63,85
112960,note_on,,,,,0,0,2,,,1,,,67,77
112960,note_on,,,,,0,0,1,,,0,,,75,82
112960,note_on,,,,,9,0,1,,,0,,,79,82
112960,note_on,,,,,0,0,2,,,1,,,58,85
113030,note_off,,,,,0,0,2,,,1,,,55,64
113030,note_off,,,,,0,0,1,,,0,,,70,64
113030,note_off,,,,,70,0,2,,,1,,,67,64
113030,note_off,,,,,70,0,1,,,0,,,75,64
113032,note_off,,,,,2,0,1,,,0,,,79,64
113033,note_off,,,,,3,0,2,,,1,,,58,64
113034,note_off,,,,,1,0,2,,,1,,,63,64
113034,note_off,,,,,2,0,1,,,0,,,82,64
113040,note_on,,,,,6,0,2,,,1,,,58,80
113040,note_on,,,,,0,0,2,,,1,,,55,81
113040,note_on,,,,,0,0,2,,,1,,,63,85
113040,note_on,,,,,0,0,1,,,0,,,82,77
113040,note_on,,,,,0,0,2,,,1,,,71,84
113040,note_on,,,,,0,0,1,,,0,,,87,80
113040,note_on,,,,,0,0,1,,,0,,,79,79
113040,note_on,,,,,6,0,1,,,0,,,75,79
113110,note_off,,,,,70,0,2,,,1,,,71,64
113111,note_off,,,,,1,0,2,,,1,,,58,64
113112,note_off,,,,,1,0,2,,,1,,,63,64
113112,note_off,,,,,72,0,1,,,0,,,82,64
113112,note_off,,,,,0,0,2,,,1,,,55,64
113113,note_off,,,,,1,0,1,,,0,,,79,64
113120,note_on,,,,,0,0,2,,,1,,,63,83
113120,note_on,,,,,0,0,2,,,1,,,71,84
113120,note_on,,,,,0,0,2,,,1,,,58,78
113120,note_on,,,,,0,0,1,,,0,,,79,82
113120,note_on,,,,,7,0,1,,,0,,,82,81
113120,note_on,,,,,8,0,2,,,1,,,55,81
113190,note_off,,,,,70,0,1,,,0,,,79,64
113190,note_off,,,,,70,0,2,,,1,,,71,64
113192,note_off,,,,,2,0,1,,,0,,,82,64
113193,note_off,,,,,0,0,2,,,1,,,55,64
113193,note_off,,,,,3,0,2,,,1,,,58,64
113194,note_off,,,,,1,0,2,,,1,,,63,64
113200,note_on,,,,,0,0,2,,,1,,,71,77
113200,note_on,,,,,0,0,1,,,0,,,79,82
113200,note_on,,,,,0,0,2,,,1,,,55,83
113200,note_on,,,,,6,0,2,,,1,,,63,79
113200,note_on,,,,,0,0,2,,,1,,,58,83
113200,note_on,,,,,8,0,1,,,0,,,82,80
113205,set_tempo,,,,,295,1,0,447761,,,,,,
113270,note_off,,,,,70,0,2,,,1,,,55,64
113270,note_off,,,,,0,0,2,,,1,,,51,64
113270,note_off,,,,,70,0,1,,,0,,,87,64
113271,note_off,,,,,0,0,1,,,0,,,75,64
113271,note_off,,,,,0,0,2,,,1,,,58,64
113271,note_off,,,,,0,0,2,,,1,,,63,64
113271,note_off,,,,,1,0,1,,,0,,,79,64
113271,note_off,,,,,1,0,2,,,1,,,71,64
113272,note_off,,,,,1,0,1,,,0,,,82,64
113272,note_off,,,,,1,0,2,,,1,,,39,64
113279,control_change,,,,,7,0,1,,,0,7,103,,
113279,control_change,,,,,7,0,2,,,1,7,103,,
113280,note_on,,,,,1,0,2,,,1,,,39,88
113280,note_on,,,,,0,0,2,,,1,,,51,82
113280,note_on,,,,,0,0,1,,,0,,,80,86
113280,note_on,,,,,0,0,1,,,0,,,86,83
113280,note_on,,,,,0,0,1,,,0,,,74,82
113280,note_on,,,,,1,0,1,,,0,,,83,85
113351,note_off,,,,,0,0,1,,,0,,,83,64
113351,note_off,,,,,71,0,1,,,0,,,80,64
113360,note_on,,,,,0,0,2,,,1,,,71,82
113360,note_on,,,,,0,0,2,,,1,,,62,80
113360,note_on,,,,,0,0,2,,,1,,,65,77
113360,note_on,,,,,0,0,1,,,0,,,80,78
113360,note_on,,,,,9,0,1,,,0,,,83,77
113360,note_on,,,,,80,0,2,,,1,,,56,78
113431,note_off,,,,,71,0,1,,,0,,,83,64
113432,note_off,,,,,0,0,2,,,1,,,56,64
113432,note_off,,,,,72,0,2,,,1,,,71,64
113432,note_off,,,,,0,0,2,,,1,,,65,64
113433,note_off,,,,,1,0,2,,,1,,,62,64
113434,note_off,,,,,3,0,1,,,0,,,80,64
113440,note_on,,,,,0,0,2,,,1,,,71,78
113440,note_on,,,,,7,0,2,,,1,,,56,80
113440,note_on,,,,,0,0,2,,,1,,,65,80
113440,note_on,,,,,6,0,1,,,0,,,83,80
113440,note_on,,,,,0,0,2,,,1,,,62,81
113440,note_on,,,,,0,0,1,,,0,,,80,82
113501,set_tempo,,,,,296,1,0,451128,,,,,,
113510,note_off,,,,,70,0,1,,,0,,,83,64
113510,note_off,,,,,70,0,2,,,1,,,71,64
113511,note_off,,,,,0,0,1,,,0,,,74,64
113511,note_off,,,,,1,0,1,,,0,,,80,64
113513,note_off,,,,,3,0,2,,,1,,,62,64
113514,note_off,,,,,3,0,1,,,0,,,86,64
113514,note_off,,,,,1,0,2,,,1,,,65,64
113514,note_off,,,,,0,0,2,,,1,,,56,64
113520,note_on,,,,,0,0,1,,,0,,,86,78
113520,note_on,,,,,0,0,1,,,0,,,80,85
113520,note_on,,,,,0,0,2,,,1,,,65,81
113520,note_on,,,,,0,0,2,,,1,,,56,81
113520,note_on,,,,,6,0,2,,,1,,,62,85
113520,note_on,,,,,6,0,1,,,0,,,83,81
113520,note_on,,,,,0,0,1,,,0,,,74,83
113520,note_on,,,,,0,0,2,,,1,,,71,85
113590,note_off,,,,,70,0,2,,,1,,,71,64
113591,note_off,,,,,71,0,1,,,0,,,83,64
113592,note_off,,,,,1,0,1,,,0,,,80,64
113592,note_off,,,,,2,0,2,,,1,,,65,64
113592,note_off,,,,,0,0,2,,,1,,,62,64
113593,note_off,,,,,1,0,2,,,1,,,56,64
113600,note_on,,,,,0,0,2,,,1,,,65,82
113600,note_on,,,,,0,0,1,,,0,,,80,77
113600,note_on,,,,,0,0,2,,,1,,,56,82
113600,note_on,,,,,8,0,1,,,0,,,83,77
113600,note_on,,,,,7,0,2,,,1,,,62,82
113600,note_on,,,,,0,0,2,,,1,,,71,82
113630,note_off,,,,,30,0,1,,,0,,,74,64
113633,note_off,,,,,3,0,1,,,0,,,86,64
113640,note_on,,,,,0,0,1,,,0,,,75,80
113640,note_on,,,,,7,0,1,,,0,,,87,84
113670,note_off,,,,,70,0,2,,,1,,,62,64
113671,note_off,,,,,0,0,2,,,1,,,56,64
113671,note_off,,,,,1,0,2,,,1,,,71,64
113672,note_off,,,,,32,0,1,,,0,,,83,64
113673,note_off,,,,,1,0,1,,,0,,,80,64
113673,note_off,,,,,2,0,2,,,1,,,65,64
113680,note_on,,,,,0,0,1,,,0,,,80,84
113680,note_on,,,,,7,0,2,,,1,,,62,85
113680,note_on,,,,,0,0,2,,,1,,,65,83
113680,note_on,,,,,7,0,1,,,0,,,83,77
113680,note_on,,,,,0,0,2,,,1,,,71,85
113680,note_on,,,,,0,0,2,,,1,,,56,79
113751,note_off,,,,,71,0,2,,,1,,,62,64
113751,note_off,,,,,0,0,1,,,0,,,83,64
113751,note_off,,,,,71,0,1,,,0,,,80,64
113752,note_off,,,,,1,0,2,,,1,,,65,64
113753,note_off,,,,,2,0,1,,,0,,,75,64
113753,note_off,,,,,1,0,2,,,1,,,56,64
113754,note_off,,,,,1,0,1,,,0,,,87,64
113754,note_off,,,,,1,0,2,,,1,,,71,64
113759,control_change,,,,,5,0,1,,,0,7,104,,
113759,control_change,,,,,5,0,2,,,1,7,104,,
113760,note_on,,,,,1,0,2,,,1,,,65,84
113760,note_on,,,,,0,0,2,,,1,,,71,79
113760,note_on,,,,,1,0,1,,,0,,,83,85
113760,note_on,,,,,0,0,1,,,0,,,89,82
113760,note_on,,,,,0,0,2,,,1,,,62,79
113760,note_on,,,,,0,0,2,,,1,,,56,87
113760,note_on,,,,,0,0,1,,,0,,,77,81
113760,note_on,,,,,0,0,1,,,0,,,80,83
113796,set_tempo,,,,,295,1,0,454545,,,,,,
113830,note_off,,,,,70,0,1,,,0,,,80,64
113830,note_off,,,,,70,0,2,,,1,,,62,64
113832,note_off,,,,,2,0,1,,,0,,,83,64
113832,note_off,,,,,2,0,2,,,1,,,56,64
113834,note_off,,,,,2,0,2,,,1,,,71,64
113834,note_off,,,,,0,0,2,,,1,,,65,64
113840,note_on,,,,,0,0,2,,,1,,,71,81
113840,note_on,,,,,0,0,2,,,1,,,62,78
113840,note_on,,,,,0,0,2,,,1,,,56,84
113840,note_on,,,,,0,0,1,,,0,,,80,83
113840,note_on,,,,,8,0,1,,,0,,,83,82
113840,note_on,,,,,6,0,2,,,1,,,65,85
113911,note_off,,,,,71,0,2,,,1,,,71,64
113911,note_off,,,,,71,0,1,,,0,,,80,64
113911,note_off,,,,,0,0,2,,,1,,,56,64
113913,note_off,,,,,2,0,1,,,0,,,83,64
113913,note_off,,,,,2,0,2,,,1,,,62,64
113914,note_off,,,,,1,0,2,,,1,,,65,64
113920,note_on,,,,,6,0,2,,,1,,,56,79
113920,note_on,,,,,0,0,2,,,1,,,71,79
113920,note_on,,,,,0,0,1,,,0,,,80,84
113920,note_on,,,,,0,0,2,,,1,,,62,84
113920,note_on,,,,,7,0,1,,,0,,,83,78
113920,note_on,,,,,0,0,2,,,1,,,65,77
113991,note_off,,,,,71,0,2,,,1,,,71,64
113991,note_off,,,,,0,0,2,,,1,,,56,64
113991,note_off,,,,,71,0,1,,,0,,,83,64
113991,note_off,,,,,0,0,2,,,1,,,65,64
113992,note_off,,,,,1,0,1,,,0,,,80,64
113993,note_off,,,,,0,0,1,,,0,,,89,64
113993,note_off,,,,,1,0,1,,,0,,,77,64
113993,note_off,,,,,2,0,2,,,1,,,62,64
114000,note_on,,,,,0,0,2,,,1,,,62,78
114000,note_on,,,,,0,0,2,,,1,,,65,78
114000,note_on,,,,,0,0,1,,,0,,,75,78
114000,note_on,,,,,0,0,2,,,1,,,71,84
114000,note_on,,,,,7,0,1,,,0,,,83,84
114000,note_on,,,,,0,0,1,,,0,,,80,85
114000,note_on,,,,,7,0,2,,,1,,,56,78
114000,note_on,,,,,0,0,1,,,0,,,87,84
114070,note_off,,,,,70,0,2,,,1,,,71,64
114070,note_off,,,,,0,0,2,,,1,,,62,64
114073,note_off,,,,,73,0,1,,,0,,,80,64
114074,note_off,,,,,1,0,1,,,0,,,83,64
114074,note_off,,,,,4,0,2,,,1,,,65,64
114074,note_off,,,,,0,0,2,,,1,,,56,64
114080,note_on,,,,,0,0,1,,,0,,,80,84
114080,note_on,,,,,6,0,1,,,0,,,83,81
114080,note_on,,,,,0,0,2,,,1,,,71,79
114080,note_on,,,,,6,0,2,,,1,,,56,77
114080,note_on,,,,,0,0,2,,,1,,,65,82
114080,note_on,,,,,0,0,2,,,1,,,62,84
114091,set_tempo,,,,,295,1,0,458015,,,,,,
114110,note_off,,,,,0,0,1,,,0,,,87,64
114110,note_off,,,,,30,0,1,,,0,,,75,64
114120,note_on,,,,,0,0,1,,,0,,,86,79
114120,note_on,,,,,10,0,1,,,0,,,74,81
114150,note_off,,,,,70,0,2,,,1,,,56,64
114151,note_off,,,,,31,0,1,,,0,,,83,64
114152,note_off,,,,,2,0,2,,,1,,,71,64
114152,note_off,,,,,1,0,1,,,0,,,80,64
114153,note_off,,,,,1,0,2,,,1,,,65,64
114154,note_off,,,,,1,0,2,,,1,,,62,64
114160,note_on,,,,,8,0,1,,,0,,,84,80
114160,note_on,,,,,0,0,2,,,1,,,71,79
114160,note_on,,,,,0,0,2,,,1,,,62,81
114160,note_on,,,,,0,0,1,,,0,,,80,78
114160,note_on,,,,,0,0,2,,,1,,,56,77
114160,note_on,,,,,6,0,2,,,1,,,65,85
114230,note_off,,,,,70,0,2,,,1,,,51,64
114231,note_off,,,,,1,0,2,,,1,,,62,64
114231,note_off,,,,,0,0,1,,,0,,,86,64
114231,note_off,,,,,0,0,2,,,1,,,65,64
114231,note_off,,,,,71,0,1,,,0,,,84,64
114232,note_off,,,,,1,0,1,,,0,,,74,64
114233,note_off,,,,,1,0,1,,,0,,,80,64
114233,note_off,,,,,0,0,2,,,1,,,56,64
114233,note_off,,,,,2,0,2,,,1,,,71,64
114234,note_off,,,,,1,0,2,,,1,,,39,64
114239,control_change,,,,,6,0,1,,,0,7,105,,
114239,control_change,,,,,5,0,2,,,1,7,105,,
114240,note_on,,,,,1,0,1,,,0,,,87,86
114240,note_on,,,,,0,0,1,,,0,,,75,81
114240,note_on,,,,,1,0,2,,,1,,,39,89
114240,note_on,,,,,0,0,2,,,1,,,51,87
114320,note_on,,,,,0,0,2,,,1,,,59,80
114320,note_on,,,,,0,0,1,,,0,,,82,81
114320,note_on,,,,,0,0,2,,,1,,,63,78
114320,note_on,,,,,80,0,1,,,0,,,79,81
114320,note_on,,,,,80,0,2,,,1,,,54,81
114320,note_on,,,,,0,0,2,,,1,,,70,78
114387,set_tempo,,,,,296,1,0,461538,,,,,,
114390,note_off,,,,,70,0,2,,,1,,,63,64
114391,note_off,,,,,1,0,2,,,1,,,70,64
114392,note_off,,,,,72,0,1,,,0,,,79,64
114393,note_off,,,,,0,0,2,,,1,,,54,64
114393,note_off,,,,,2,0,2,,,1,,,59,64
114394,note_off,,,,,2,0,1,,,0,,,82,64
114400,note_on,,,,,0,0,2,,,1,,,59,85
114400,note_on,,,,,0,0,1,,,0,,,79,84
114400,note_on,,,,,7,0,2,,,1,,,54,78
114400,note_on,,,,,0,0,2,,,1,,,63,81
114400,note_on,,,,,6,0,1,,,0,,,82,83
114400,note_on,,,,,0,0,2,,,1,,,70,80
114472,note_off,,,,,72,0,2,,,1,,,70,64
114472,note_off,,,,,0,0,2,,,1,,,59,64
114472,note_off,,,,,72,0,1,,,0,,,79,64
114473,note_off,,,,,1,0,2,,,1,,,63,64
114474,note_off,,,,,1,0,2,,,1,,,54,64
114474,note_off,,,,,2,0,1,,,0,,,82,64
114480,note_on,,,,,0,0,2,,,1,,,54,81
114480,note_on,,,,,0,0,1,,,0,,,82,78
114480,note_on,,,,,6,0,2,,,1,,,63,80
114480,note_on,,,,,0,0,2,,,1,,,59,81
114480,note_on,,,,,0,0,2,,,1,,,70,81
114480,note_on,,,,,6,0,1,,,0,,,79,82
114550,note_off,,,,,70,0,2,,,1,,,59,64
114553,note_off,,,,,3,0,2,,,1,,,54,64
114553,note_off,,,,,0,0,2,,,1,,,70,64
114554,note_off,,,,,1,0,2,,,1,,,63,64
114554,note_off,,,,,74,0,1,,,0,,,82,64
114554,note_off,,,,,0,0,1,,,0,,,79,64
114560,note_on,,,,,0,0,1,,,0,,,82,80
114560,note_on,,,,,0,0,2,,,1,,,59,82
114560,note_on,,,,,0,0,2,,,1,,,70,80
114560,note_on,,,,,6,0,2,,,1,,,54,79
114560,note_on,,,,,0,0,2,,,1,,,63,79
114560,note_on,,,,,6,0,1,,,0,,,79,85
114631,note_off,,,,,71,0,2,,,1,,,59,64
114631,note_off,,,,,71,0,1,,,0,,,79,64
114633,note_off,,,,,2,0,1,,,0,,,82,64
114633,note_off,,,,,0,0,2,,,1,,,54,64
114633,note_off,,,,,0,0,2,,,1,,,70,64
114633,note_off,,,,,2,0,2,,,1,,,63,64
114640,note_on,,,,,7,0,2,,,1,,,54,81
114640,note_on,,,,,0,0,2,,,1,,,70,84
114640,note_on,,,,,0,0,2,,,1,,,63,79
114640,note_on,,,,,0,0,2,,,1,,,59,82
114640,note_on,,,,,7,0,1,,,0,,,82,80
114640,note_on,,,,,0,0,1,,,0,,,79,81
114682,set_tempo,,,,,295,1,0,465116,,,,,,
114710,note_off,,,,,70,0,2,,,1,,,54,64
114711,note_off,,,,,0,0,1,,,0,,,87,64
114711,note_off,,,,,0,0,1,,,0,,,75,64
114711,note_off,,,,,71,0,1,,,0,,,79,64
114711,note_off,,,,,1,0,2,,,1,,,63,64
114712,note_off,,,,,0,0,2,,,1,,,59,64
114712,note_off,,,,,1,0,2,,,1,,,70,64
114713,note_off,,,,,2,0,1,,,0,,,82,64
114719,control_change,,,,,6,0,1,,,0,7,106,,
114719,control_change,,,,,7,0,2,,,1,7,106,,
114720,note_on,,,,,0,0,2,,,1,,,63,81
114720,note_on,,,,,0,0,2,,,1,,,59,82
114720,note_on,,,,,0,0,2,,,1,,,54,81
114720,note_on,,,,,1,0,1,,,0,,,82,79
114720,note_on,,,,,0,0,1,,,0,,,79,85
114720,note_on,,,,,1,0,2,,,1,,,70,86
114790,note_off,,,,,70,0,2,,,1,,,63,64
114791,note_off,,,,,71,0,1,,,0,,,82,64
114791,note_off,,,,,1,0,2,,,1,,,54,64
114792,note_off,,,,,1,0,2,,,1,,,59,64
114792,note_off,,,,,0,0,2,,,1,,,70,64
114793,note_off,,,,,2,0,1,,,0,,,79,64
114800,note_on,,,,,0,0,2,,,1,,,63,82
114800,note_on,,,,,7,0,1,,,0,,,79,84
114800,note_on,,,,,0,0,2,,,1,,,59,83
114800,note_on,,,,,8,0,2,,,1,,,70,85
114800,note_on,,,,,0,0,1,,,0,,,82,83
114800,note_on,,,,,0,0,2,,,1,,,54,81
114870,note_off,,,,,70,0,1,,,0,,,82,64
114870,note_off,,,,,70,0,2,,,1,,,54,64
114872,note_off,,,,,2,0,1,,,0,,,79,64
114872,note_off,,,,,2,0,2,,,1,,,63,64
114873,note_off,,,,,1,0,2,,,1,,,59,64
114874,note_off,,,,,1,0,2,,,1,,,70,64
114880,note_on,,,,,0,0,1,,,0,,,82,79
114880,note_on,,,,,0,0,2,,,1,,,59,81
114880,note_on,,,,,8,0,1,,,0,,,79,83
114880,note_on,,,,,6,0,2,,,1,,,70,78
114880,note_on,,,,,0,0,2,,,1,,,63,78
114880,note_on,,,,,0,0,2,,,1,,,54,84
114950,note_off,,,,,70,0,2,,,1,,,70,64
114951,note_off,,,,,71,0,1,,,0,,,82,64
114952,note_off,,,,,2,0,2,,,1,,,63,64
114952,note_off,,,,,1,0,1,,,0,,,79,64
114953,note_off,,,,,0,0,2,,,1,,,59,64
114953,note_off,,,,,1,0,2,,,1,,,54,64
114960,note_on,,,,,0,0,1,,,0,,,79,79
114960,note_on,,,,,8,0,1,,,0,,,74,84
114960,note_on,,,,,7,0,2,,,1,,,59,81
114960,note_on,,,,,0,0,1,,,0,,,82,82
114960,note_on,,,,,0,0,1,,,0,,,86,78
114960,note_on,,,,,0,0,2,,,1,,,54,84
114960,note_on,,,,,0,0,2,,,1,,,63,80
114960,note_on,,,,,0,0,2,,,1,,,70,84
114977,set_tempo,,,,,295,1,0,468750,,,,,,
115030,note_off,,,,,70,0,1,,,0,,,82,64
115030,note_off,,,,,70,0,2,,,1,,,59,64
115031,note_off,,,,,1,0,2,,,1,,,54,64
115031,note_off,,,,,0,0,2,,,1,,,63,64
115034,note_off,,,,,4,0,1,,,0,,,79,64
115034,note_off,,,,,3,0,2,,,1,,,70,64
115040,note_on,,,,,6,0,1,,,0,,,82,82
115040,note_on,,,,,6,0,2,,,1,,,54,83
115040,note_on,,,,,0,0,2,,,1,,,63,78
115040,note_on,,,,,0,0,1,,,0,,,79,79
115040,note_on,,,,,0,0,2,,,1,,,70,78
115040,note_on,,,,,0,0,2,,,1,,,59,79
115110,note_off,,,,,70,0,2,,,1,,,63,64
115111,note_off,,,,,1,0,2,,,1,,,70,64
115113,note_off,,,,,73,0,1,,,0,,,82,64
115113,note_off,,,,,2,0,2,,,1,,,59,64
115114,note_off,,,,,1,0,1,,,0,,,79,64
115114,note_off,,,,,1,0,2,,,1,,,54,64
115120,note_on,,,,,0,0,2,,,1,,,70,85
115120,note_on,,,,,0,0,2,,,1,,,54,81
115120,note_on,,,,,0,0,1,,,0,,,79,78
115120,note_on,,,,,6,0,1,,,0,,,82,84
115120,note_on,,,,,6,0,2,,,1,,,59,81
115120,note_on,,,,,0,0,2,,,1,,,63,81
115190,note_off,,,,,70,0,1,,,0,,,82,64
115191,note_off,,,,,71,0,2,,,1,,,54,64
115191,note_off,,,,,1,0,1,,,0,,,74,64
115192,note_off,,,,,1,0,2,,,1,,,70,64
115192,note_off,,,,,1,0,1,,,0,,,79,64
115194,note_off,,,,,2,0,2,,,1,,,63,64
115194,note_off,,,,,2,0,1,,,0,,,86,64
115194,note_off,,,,,0,0,2,,,1,,,59,64
115196,note_off,,,,,0,0,2,,,1,,,39,64
115196,note_off,,,,,2,0,2,,,1,,,51,64
115199,control_change,,,,,5,0,1,,,0,7,107,,
115199,control_change,,,,,3,0,2,,,1,7,107,,
115200,note_on,,,,,0,0,1,,,0,,,85,82
115200,note_on,,,,,1,0,1,,,0,,,73,88
115200,note_on,,,,,0,0,2,,,1,,,55,82
115200,note_on,,,,,1,0,2,,,1,,,43,89
115273,set_tempo,,,,,296,1,0,472441,,,,,,
115280,note_on,,,,,80,0,2,,,1,,,59,81
115280,note_on,,,,,0,0,2,,,1,,,64,83
115280,note_on,,,,,80,0,1,,,0,,,67,82
115280,note_on,,,,,0,0,2,,,1,,,60,84
115280,note_on,,,,,0,0,1,,,0,,,70,78
115351,note_off,,,,,71,0,1,,,0,,,67,64
115352,note_off,,,,,72,0,2,,,1,,,64,64
115353,note_off,,,,,0,0,2,,,1,,,59,64
115353,note_off,,,,,2,0,1,,,0,,,70,64
115353,note_off,,,,,1,0,2,,,1,,,60,64
115360,note_on,,,,,0,0,1,,,0,,,67,85
115360,note_on,,,,,0,0,2,,,1,,,60,83
115360,note_on,,,,,0,0,2,,,1,,,64,79
115360,note_on,,,,,7,0,1,,,0,,,70,85
115360,note_on,,,,,7,0,2,,,1,,,59,79
115430,note_off,,,,,70,0,1,,,0,,,70,64
115432,note_off,,,,,72,0,2,,,1,,,60,64
115433,note_off,,,,,0,0,2,,,1,,,59,64
115433,note_off,,,,,1,0,2,,,1,,,64,64
115434,note_off,,,,,4,0,1,,,0,,,67,64
115440,note_on,,,,,6,0,1,,,0,,,70,80
115440,note_on,,,,,0,0,2,,,1,,,60,77
115440,note_on,,,,,7,0,2,,,1,,,59,84
115440,note_on,,,,,0,0,1,,,0,,,67,82
115440,note_on,,,,,0,0,2,,,1,,,64,83
115511,note_off,,,,,71,0,1,,,0,,,70,64
115513,note_off,,,,,0,0,2,,,1,,,59,64
115513,note_off,,,,,73,0,2,,,1,,,60,64
115514,note_off,,,,,1,0,2,,,1,,,64,64
115514,note_off,,,,,3,0,1,,,0,,,67,64
115520,note_on,,,,,0,0,2,,,1,,,64,81
115520,note_on,,,,,6,0,2,,,1,,,60,78
115520,note_on,,,,,0,0,2,,,1,,,59,85
115520,note_on,,,,,0,0,1,,,0,,,67,84
115520,note_on,,,,,6,0,1,,,0,,,70,84
115568,set_tempo,,,,,295,1,0,476190,,,,,,
115590,note_off,,,,,70,0,2,,,1,,,59,64
115591,note_off,,,,,71,0,1,,,0,,,67,64
115592,note_off,,,,,1,0,1,,,0,,,70,64
115592,note_off,,,,,2,0,2,,,1,,,64,64
115593,note_off,,,,,1,0,2,,,1,,,60,64
115600,note_on,,,,,0,0,1,,,0,,,67,84
115600,note_on,,,,,0,0,2,,,1,,,64,83
115600,note_on,,,,,7,0,2,,,1,,,60,83
115600,note_on,,,,,8,0,1,,,0,,,70,85
115600,note_on,,,,,0,0,2,,,1,,,59,79
115670,note_off,,,,,0,0,2,,,1,,,55,64
115670,note_off,,,,,70,0,1,,,0,,,70,64
115670,note_off,,,,,70,0,2,,,1,,,60,64
115670,note_off,,,,,0,0,2,,,1,,,43,64
115671,note_off,,,,,1,0,1,,,0,,,67,64
115672,note_off,,,,,0,0,1,,,0,,,73,64
115672,note_off,,,,,1,0,1,,,0,,,85,64
115674,note_off,,,,,4,0,2,,,1,,,64,64
115674,note_off,,,,,0,0,2,,,1,,,59,64
115679,control_change,,,,,7,0,1,,,0,7,108,,
115679,control_change,,,,,5,0,2,,,1,7,108,,
115680,note_on,,,,,1,0,1,,,0,,,85,84
115680,note_on,,,,,0,0,1,,,0,,,73,84
115680,note_on,,,,,0,0,2,,,1,,,55,84
115680,note_on,,,,,1,0,2,,,1,,,43,80
115760,note_on,,,,,0,0,2,,,1,,,64,77
115760,note_on,,,,,0,0,1,,,0,,,70,78
115760,note_on,,,,,0,0,2,,,1,,,60,85
115760,note_on,,,,,80,0,2,,,1,,,59,79
115760,note_on,,,,,80,0,1,,,0,,,67,80
115830,note_off,,,,,70,0,2,,,1,,,59,64
115832,note_off,,,,,2,0,2,,,1,,,64,64
115832,note_off,,,,,0,0,2,,,1,,,60,64
115833,note_off,,,,,73,0,1,,,0,,,70,64
115835,note_off,,,,,2,0,1,,,0,,,67,64
115840,note_on,,,,,0,0,1,,,0,,,70,82
115840,note_on,,,,,8,0,2,,,1,,,59,84
115840,note_on,,,,,5,0,1,,,0,,,67,78
115840,note_on,,,,,0,0,2,,,1,,,60,81
115840,note_on,,,,,0,0,2,,,1,,,64,78
115863,set_tempo,,,,,295,1,0,480000,,,,,,
115910,note_off,,,,,70,0,2,,,1,,,60,64
115911,note_off,,,,,71,0,1,,,0,,,73,64
115911,note_off,,,,,1,0,2,,,1,,,64,64
115911,note_off,,,,,0,0,2,,,1,,,55,64
115912,note_off,,,,,1,0,2,,,1,,,43,64
115913,note_off,,,,,1,0,2,,,1,,,59,64
115913,note_off,,,,,2,0,1,,,0,,,70,64
115914,note_off,,,,,1,0,1,,,0,,,85,64
115916,note_off,,,,,2,0,1,,,0,,,67,64
115920,note_on,,,,,0,0,1,,,0,,,85,85
115920,note_on,,,,,0,0,2,,,1,,,55,78
115920,note_on,,,,,4,0,1,,,0,,,72,84
115920,note_on,,,,,7,0,2,,,1,,,43,83
116000,note_on,,,,,0,0,1,,,0,,,70,79
116000,note_on,,,,,80,0,2,,,1,,,59,81
116000,note_on,,,,,80,0,1,,,0,,,67,77
116000,note_on,,,,,0,0,2,,,1,,,60,77
116000,note_on,,,,,0,0,2,,,1,,,64,77
116070,note_off,,,,,70,0,2,,,1,,,64,64
116072,note_off,,,,,72,0,1,,,0,,,70,64
116072,note_off,,,,,0,0,1,,,0,,,67,64
116073,note_off,,,,,3,0,2,,,1,,,60,64
116074,note_off,,,,,1,0,2,,,1,,,59,64
116080,note_on,,,,,0,0,2,,,1,,,60,79
116080,note_on,,,,,8,0,1,,,0,,,67,83
116080,note_on,,,,,6,0,2,,,1,,,59,78
116080,note_on,,,,,0,0,2,,,1,,,64,77
116080,note_on,,,,,0,0,1,,,0,,,70,77
116150,note_off,,,,,70,0,2,,,1,,,59,64
116151,note_off,,,,,1,0,2,,,1,,,64,64
116152,note_off,,,,,72,0,1,,,0,,,67,64
116152,note_off,,,,,1,0,2,,,1,,,60,64
116152,note_off,,,,,0,0,2,,,1,,,55,64
116153,note_off,,,,,1,0,1,,,0,,,70,64
116153,note_off,,,,,1,0,2,,,1,,,43,64
116154,note_off,,,,,1,0,1,,,0,,,85,64
116154,note_off,,,,,0,0,1,,,0,,,72,64
116159,control_change,,,,,5,0,1,,,0,7,109,,
116159,set_tempo,,,,,296,1,0,483871,,,,,,
116159,control_change,,,,,6,0,2,,,1,7,109,,
116160,note_on,,,,,0,0,1,,,0,,,86,83
116160,note_on,,,,,1,0,1,,,0,,,74,81
116160,note_on,,,,,1,0,2,,,1,,,44,81
116160,set_tempo,,,,,1,1,0,461538,,,,,,
116160,note_on,,,,,0,0,2,,,1,,,56,87
116240,note_on,,,,,80,0,1,,,0,,,71,83
116240,note_on,,,,,0,0,2,,,1,,,65,79
116240,note_on,,,,,80,0,2,,,1,,,59,83
116240,note_on,,,,,0,0,1,,,0,,,68,79
116240,note_on,,,,,0,0,2,,,1,,,62,81
116310,note_off,,,,,70,0,1,,,0,,,71,64
116311,note_off,,,,,71,0,2,,,1,,,65,64
116311,note_off,,,,,0,0,2,,,1,,,62,64
116311,note_off,,,,,1,0,1,,,0,,,68,64
116314,note_off,,,,,3,0,2,,,1,,,59,64
116320,note_on,,,,,0,0,1,,,0,,,71,82
116320,note_on,,,,,0,0,2,,,1,,,62,84
116320,note_on,,,,,9,0,1,,,0,,,68,83
116320,note_on,,,,,6,0,2,,,1,,,59,83
116320,note_on,,,,,0,0,2,,,1,,,65,77
116390,note_off,,,,,70,0,1,,,0,,,71,64
116392,note_off,,,,,72,0,2,,,1,,,65,64
116393,note_off,,,,,1,0,2,,,1,,,62,64
116394,note_off,,,,,4,0,1,,,0,,,68,64
116394,note_off,,,,,1,0,2,,,1,,,59,64
116400,note_on,,,,,6,0,2,,,1,,,59,84
116400,note_on,,,,,0,0,1,,,0,,,68,82
116400,note_on,,,,,0,0,2,,,1,,,65,78
116400,note_on,,,,,0,0,2,,,1,,,62,85
116400,note_on,,,,,6,0,1,,,0,,,71,84
116470,note_off,,,,,70,0,2,,,1,,,62,64
116471,note_off,,,,,1,0,2,,,1,,,65,64
116472,note_off,,,,,72,0,1,,,0,,,71,64
116473,note_off,,,,,2,0,2,,,1,,,59,64
116473,note_off,,,,,1,0,1,,,0,,,68,64
116480,note_on,,,,,7,0,1,,,0,,,68,80
116480,note_on,,,,,0,0,1,,,0,,,71,82
116480,note_on,,,,,0,0,2,,,1,,,65,84
116480,note_on,,,,,7,0,2,,,1,,,59,81
116480,note_on,,,,,0,0,2,,,1,,,62,82
116551,note_off,,,,,0,0,1,,,0,,,68,64
116551,note_off,,,,,71,0,1,,,0,,,71,64
116553,note_off,,,,,73,0,2,,,1,,,62,64
116554,note_off,,,,,0,0,2,,,1,,,59,64
116554,note_off,,,,,1,0,2,,,1,,,65,64
116560,note_on,,,,,0,0,1,,,0,,,68,79
116560,note_on,,,,,0,0,2,,,1,,,62,81
116560,note_on,,,,,0,0,2,,,1,,,65,81
116560,note_on,,,,,6,0,2,,,1,,,59,82
116560,note_on,,,,,9,0,1,,,0,,,71,77
116630,note_off,,,,,70,0,2,,,1,,,62,64
116631,note_off,,,,,71,0,1,,,0,,,86,64
116632,note_off,,,,,1,0,1,,,0,,,68,64
116632,note_off,,,,,0,0,1,,,0,,,74,64
116632,note_off,,,,,0,0,2,,,1,,,44,64
116632,note_off,,,,,2,0,2,,,1,,,56,64
116633,note_off,,,,,1,0,2,,,1,,,65,64
116633,note_off,,,,,1,0,1,,,0,,,71,64
116634,note_off,,,,,1,0,2,,,1,,,59,64
116639,control_change,,,,,6,0,1,,,0,7,110,,
116639,control_change,,,,,5,0,2,,,1,7,110,,
116640,note_on,,,,,1,0,2,,,1,,,44,83
116640,note_on,,,,,0,0,1,,,0,,,86,87
116640,note_on,,,,,1,0,1,,,0,,,74,83
116640,note_on,,,,,0,0,2,,,1,,,56,84
116720,note_on,,,,,80,0,1,,,0,,,65,81
116720,note_on,,,,,0,0,1,,,0,,,68,77
116720,note_on,,,,,80,0,2,,,1,,,59,79
116760,note_on,,,,,40,0,2,,,1,,,62,80
116792,note_off,,,,,72,0,1,,,0,,,68,64
116793,note_off,,,,,1,0,1,,,0,,,65,64
116794,note_off,,,,,34,0,2,,,1,,,59,64
116800,note_on,,,,,0,0,2,,,1,,,62,78
116800,note_on,,,,,0,0,1,,,0,,,68,79
116800,note_on,,,,,7,0,1,,,0,,,65,81
116800,note_on,,,,,6,0,2,,,1,,,59,77
116833,note_off,,,,,33,0,2,,,1,,,62,64
116870,note_off,,,,,37,0,2,,,1,,,62,64
116872,note_off,,,,,0,0,1,,,0,,,65,64
116872,note_off,,,,,72,0,1,,,0,,,68,64
116874,note_off,,,,,4,0,2,,,1,,,59,64
116880,note_on,,,,,0,0,2,,,1,,,62,79
116880,note_on,,,,,0,0,1,,,0,,,68,80
116880,note_on,,,,,6,0,2,,,1,,,59,77
116880,note_on,,,,,8,0,1,,,0,,,65,83
116952,note_off,,,,,72,0,1,,,0,,,68,64
116953,note_off,,,,,1,0,1,,,0,,,65,64
116953,note_off,,,,,73,0,2,,,1,,,62,64
116953,note_off,,,,,0,0,2,,,1,,,59,64
116960,note_on,,,,,7,0,2,,,1,,,59,79
116960,note_on,,,,,7,0,1,,,0,,,65,82
116960,note_on,,,,,0,0,2,,,1,,,62,77
116990,note_off,,,,,30,0,2,,,1,,,56,64
116992,note_off,,,,,32,0,1,,,0,,,74,64
116993,note_off,,,,,3,0,2,,,1,,,44,64
116994,note_off,,,,,2,0,1,,,0,,,86,64
117000,note_on,,,,,0,0,2,,,1,,,44,84
117000,note_on,,,,,7,0,2,,,1,,,32,80
117000,note_on,,,,,0,0,1,,,0,,,80,83
117000,note_on,,,,,6,0,1,,,0,,,68,78
117032,note_off,,,,,32,0,1,,,0,,,65,64
117033,note_off,,,,,33,0,2,,,1,,,62,64
117033,note_off,,,,,0,0,2,,,1,,,59,64
117110,note_off,,,,,77,0,2,,,1,,,32,64
117110,note_off,,,,,0,0,1,,,0,,,68,64
117110,note_off,,,,,78,0,1,,,0,,,80,64
117112,note_off,,,,,2,0,2,,,1,,,44,64
117119,control_change,,,,,9,0,1,,,0,7,111,,
117119,control_change,,,,,7,0,2,,,1,7,111,,
117120,note_on,,,,,1,0,1,,,0,,,69,81
117120,note_on,,,,,0,0,1,,,0,,,81,88
117120,note_on,,,,,1,0,2,,,1,,,33,81
117120,note_on,,,,,0,0,2,,,1,,,45,88
117200,note_on,,,,,80,0,1,,,0,,,62,80
117200,note_on,,,,,80,0,2,,,1,,,50,80
117200,note_on,,,,,0,0,2,,,1,,,53,80
117200,note_on,,,,,0,0,1,,,0,,,65,79
117200,note_on,,,,,0,0,2,,,1,,,57,80
117271,note_off,,,,,71,0,2,,,1,,,50,64
117271,note_off,,,,,71,0,1,,,0,,,62,64
117273,note_off,,,,,2,0,1,,,0,,,65,64
117273,note_off,,,,,2,0,2,,,1,,,57,64
117274,note_off,,,,,1,0,2,,,1,,,53,64
117280,note_on,,,,,6,0,2,,,1,,,50,85
117280,note_on,,,,,0,0,2,,,1,,,53,85
117280,note_on,,,,,0,0,1,,,0,,,62,85
117280,note_on,,,,,0,0,2,,,1,,,57,83
117280,note_on,,,,,7,0,1,,,0,,,65,85
117352,note_off,,,,,0,0,1,,,0,,,65,64
117352,note_off,,,,,0,0,2,,,1,,,53,64
117352,note_off,,,,,72,0,2,,,1,,,57,64
117352,note_off,,,,,72,0,1,,,0,,,62,64
117354,note_off,,,,,2,0,2,,,1,,,50,64
117360,note_on,,,,,0,0,1,,,0,,,62,78
117360,note_on,,,,,8,0,1,,,0,,,65,84
117360,note_on,,,,,0,0,2,,,1,,,53,78
117360,note_on,,,,,0,0,2,,,1,,,57,82
117360,note_on,,,,,6,0,2,,,1,,,50,77
117431,note_off,,,,,71,0,1,,,0,,,62,64
117432,note_off,,,,,1,0,1,,,0,,,65,64
117432,note_off,,,,,72,0,2,,,1,,,50,64
117433,note_off,,,,,1,0,2,,,1,,,53,64
117434,note_off,,,,,1,0,2,,,1,,,57,64
117440,note_on,,,,,6,0,2,,,1,,,50,85
117440,note_on,,,,,0,0,1,,,0,,,65,85
117440,note_on,,,,,8,0,1,,,0,,,62,82
117440,note_on,,,,,0,0,2,,,1,,,57,80
117440,note_on,,,,,0,0,2,,,1,,,53,78
117510,note_off,,,,,70,0,2,,,1,,,57,64
117511,note_off,,,,,1,0,2,,,1,,,53,64
117512,note_off,,,,,1,0,2,,,1,,,50,64
117514,note_off,,,,,0,0,1,,,0,,,62,64
117514,note_off,,,,,74,0,1,,,0,,,65,64
117520,note_on,,,,,0,0,1,,,0,,,65,78
117520,note_on,,,,,0,0,2,,,1,,,57,80
117520,note_on,,,,,6,0,1,,,0,,,62,78
117520,note_on,,,,,0,0,2,,,1,,,53,80
117520,note_on,,,,,8,0,2,,,1,,,50,77
117590,note_off,,,,,70,0,2,,,1,,,45,64
117592,note_off,,,,,2,0,2,,,1,,,57,64
117592,note_off,,,,,0,0,2,,,1,,,50,64
117593,note_off,,,,,0,0,1,,,0,,,81,64
117593,note_off,,,,,0,0,1,,,0,,,62,64
117593,note_off,,,,,73,0,1,,,0,,,65,64
117593,note_off,,,,,1,0,2,,,1,,,53,64
117594,note_off,,,,,1,0,1,,,0,,,69,64
117594,note_off,,,,,1,0,2,,,1,,,33,64
117599,control_change,,,,,5,0,1,,,0,7,112,,
117599,control_change,,,,,5,0,2,,,1,7,112,,
117600,note_on,,,,,0,0,2,,,1,,,45,81
117600,note_on,,,,,0,0,1,,,0,,,81,84
117600,note_on,,,,,1,0,1,,,0,,,69,82
117600,note_on,,,,,1,0,2,,,1,,,33,85
117680,note_on,,,,,80,0,1,,,0,,,61,85
117680,note_on,,,,,0,0,1,,,0,,,64,85
117680,note_on,,,,,0,0,2,,,1,,,52,84
117680,note_on,,,,,80,0,2,,,1,,,48,79
117680,note_on,,,,,0,0,2,,,1,,,57,84
117750,note_off,,,,,70,0,1,,,0,,,61,64
117751,note_off,,,,,71,0,2,,,1,,,57,64
117752,note_off,,,,,1,0,2,,,1,,,52,64
117753,note_off,,,,,1,0,2,,,1,,,48,64
117754,note_off,,,,,4,0,1,,,0,,,64,64
117760,note_on,,,,,6,0,1,,,0,,,61,84
117760,note_on,,,,,0,0,2,,,1,,,52,85
117760,note_on,,,,,7,0,2,,,1,,,48,77
117760,note_on,,,,,0,0,1,,,0,,,64,80
117760,note_on,,,,,0,0,2,,,1,,,57,78
117830,note_off,,,,,70,0,2,,,1,,,52,64
117831,note_off,,,,,71,0,1,,,0,,,64,64
117831,note_off,,,,,1,0,2,,,1,,,48,64
117833,note_off,,,,,2,0,2,,,1,,,57,64
117833,note_off,,,,,2,0,1,,,0,,,61,64
117840,note_on,,,,,7,0,1,,,0,,,61,85
117840,note_on,,,,,7,0,2,,,1,,,48,81
117840,note_on,,,,,0,0,1,,,0,,,64,77
117840,note_on,,,,,0,0,2,,,1,,,52,80
117840,note_on,,,,,0,0,2,,,1,,,57,85
117910,note_off,,,,,70,0,2,,,1,,,52,64
117910,note_off,,,,,70,0,1,,,0,,,64,64
117913,note_off,,,,,3,0,2,,,1,,,57,64
117914,note_off,,,,,4,0,1,,,0,,,61,64
117914,note_off,,,,,1,0,2,,,1,,,48,64
117920,note_on,,,,,6,0,1,,,0,,,61,85
117920,note_on,,,,,0,0,2,,,1,,,57,79
117920,note_on,,,,,6,0,2,,,1,,,48,84
117920,note_on,,,,,0,0,2,,,1,,,52,82
117920,note_on,,,,,0,0,1,,,0,,,64,77
117951,note_off,,,,,31,0,2,,,1,,,33,64
117952,note_off,,,,,32,0,1,,,0,,,69,64
117954,note_off,,,,,2,0,1,,,0,,,81,64
117954,note_off,,,,,3,0,2,,,1,,,45,64
117960,note_on,,,,,6,0,2,,,1,,,33,83
117960,note_on,,,,,0,0,2,,,1,,,45,78
117960,note_on,,,,,6,0,1,,,0,,,69,84
117960,note_on,,,,,0,0,1,,,0,,,81,78
117990,note_off,,,,,30,0,2,,,1,,,57,64
117990,note_off,,,,,30,0,1,,,0,,,64,64
117990,note_off,,,,,0,0,2,,,1,,,52,64
117990,note_off,,,,,0,0,2,,,1,,,48,64
117994,note_off,,,,,4,0,1,,,0,,,61,64
118071,note_off,,,,,0,0,1,,,0,,,69,64
118071,note_off,,,,,81,0,2,,,1,,,33,64
118071,note_off,,,,,77,0,1,,,0,,,81,64
118073,note_off,,,,,2,0,2,,,1,,,45,64
118079,control_change,,,,,8,0,1,,,0,7,113,,
118079,control_change,,,,,6,0,2,,,1,7,113,,
118080,set_tempo,,,,,1920,1,0,454545,,,,,,
118080,note_on,,,,,0,0,2,,,1,,,45,82
118080,note_on,,,,,0,0,2,,,1,,,41,84
118080,note_on,,,,,0,0,2,,,1,,,38,82
118080,note_on,,,,,0,0,1,,,0,,,62,86
118080,note_on,,,,,0,0,1,,,0,,,57,85
118080,note_on,,,,,0,0,1,,,0,,,53,82
118080,note_on,,,,,1,0,2,,,1,,,50,89
118080,note_on,,,,,1,0,1,,,0,,,65,83
118150,note_off,,,,,70,0,1,,,0,,,65,64
118151,note_off,,,,,0,0,1,,,0,,,62,64
118151,note_off,,,,,0,0,1,,,0,,,57,64
118151,note_off,,,,,1,0,1,,,0,,,53,64
118160,note_on,,,,,9,0,1,,,0,,,65,85
118234,note_off,,,,,74,0,1,,,0,,,65,64
118240,note_on,,,,,6,0,1,,,0,,,77,77
118310,note_off,,,,,230,0,2,,,1,,,50,64
118311,note_off,,,,,0,0,2,,,1,,,45,64
118311,note_off,,,,,1,0,2,,,1,,,38,64
118313,note_off,,,,,2,0,2,,,1,,,41,64
118314,note_off,,,,,74,0,1,,,0,,,77,64
118320,note_on,,,,,6,0,1,,,0,,,77,78
118320,note_on,,,,,7,0,2,,,1,,,53,79
118391,note_off,,,,,71,0,2,,,1,,,53,64
118394,note_off,,,,,74,0,1,,,0,,,77,64
118400,note_on,,,,,9,0,2,,,1,,,65,77
118400,note_on,,,,,6,0,1,,,0,,,89,85
118472,note_off,,,,,72,0,1,,,0,,,89,64
118474,note_off,,,,,74,0,2,,,1,,,65,64
118480,note_on,,,,,6,0,2,,,1,,,53,82
118480,note_on,,,,,8,0,1,,,0,,,89,81
118551,note_off,,,,,71,0,1,,,0,,,89,64
118554,note_off,,,,,74,0,2,,,1,,,53,64
118559,control_change,,,,,5,0,2,,,1,7,114,,
118559,control_change,,,,,8,0,1,,,0,7,114,,
118560,note_on,,,,,1,0,1,,,0,,,101,87
118560,note_on,,,,,1,0,2,,,1,,,65,83
118632,note_off,,,,,72,0,1,,,0,,,101,64
118632,note_off,,,,,72,0,2,,,1,,,65,64
118640,note_on,,,,,8,0,1,,,0,,,89,85
118640,note_on,,,,,8,0,2,,,1,,,53,81
118712,note_off,,,,,72,0,1,,,0,,,89,64
118712,note_off,,,,,72,0,2,,,1,,,53,64
118720,note_on,,,,,8,0,1,,,0,,,89,85
118720,note_on,,,,,8,0,2,,,1,,,65,80
118792,note_off,,,,,72,0,1,,,0,,,89,64
118794,note_off,,,,,74,0,2,,,1,,,65,64
118800,note_on,,,,,0,0,2,,,1,,,62,89
118800,note_on,,,,,8,0,1,,,0,,,77,77
118800,note_on,,,,,6,0,2,,,1,,,50,91
118800,note_on,,,,,0,0,2,,,1,,,53,85
118960,note_on,,,,,160,0,1,,,0,,,65,79
119030,note_off,,,,,70,0,1,,,0,,,77,64
119030,note_off,,,,,230,0,2,,,1,,,53,64
119031,note_off,,,,,1,0,2,,,1,,,62,64
119032,note_off,,,,,1,0,2,,,1,,,50,64
119032,note_off,,,,,2,0,1,,,0,,,65,64
119039,control_change,,,,,7,0,1,,,0,7,115,,
119039,control_change,,,,,7,0,2,,,1,7,115,,
119040,note_on,,,,,1,0,1,,,0,,,78,85
119040,note_on,,,,,0,0,1,,,0,,,66,88
119040,note_on,,,,,1,0,2,,,1,,,51,89
119040,note_on,,,,,0,0,2,,,1,,,63,87
119040,note_on,,,,,0,0,2,,,1,,,54,90
119120,note_on,,,,,80,0,1,,,0,,,65,82
119191,note_off,,,,,71,0,1,,,0,,,65,64
119200,note_on,,,,,9,0,1,,,0,,,65,78
119271,note_off,,,,,71,0,1,,,0,,,65,64
119280,note_on,,,,,9,0,1,,,0,,,65,85
119350,note_off,,,,,70,0,1,,,0,,,65,64
119360,note_on,,,,,10,0,1,,,0,,,65,79
119433,note_off,,,,,73,0,1,,,0,,,65,64
119440,note_on,,,,,7,0,1,,,0,,,65,79
119511,note_off,,,,,0,0,2,,,1,,,51,64
119511,note_off,,,,,471,0,2,,,1,,,63,64
119512,note_off,,,,,1,0,2,,,1,,,54,64
119513,note_off,,,,,73,0,1,,,0,,,66,64
119514,note_off,,,,,0,0,1,,,0,,,78,64
119514,note_off,,,,,1,0,1,,,0,,,65,64
119519,control_change,,,,,5,0,1,,,0,7,116,,
119519,control_change,,,,,7,0,2,,,1,7,116,,
119520,note_on,,,,,1,0,1,,,0,,,66,89
119520,note_on,,,,,0,0,1,,,0,,,78,95
119520,note_on,,,,,1,0,2,,,1,,,48,93
119520,note_on,,,,,0,0,2,,,1,,,60,94
119520,note_on,,,,,0,0,2,,,1,,,54,92
119600,note_on,,,,,80,0,1,,,0,,,66,84
119600,note_on,,,,,0,0,1,,,0,,,65,82
119671,note_off,,,,,71,0,1,,,0,,,65,64
119671,note_off,,,,,0,0,1,,,0,,,66,64
119680,note_on,,,,,0,0,1,,,0,,,65,81
119680,note_on,,,,,9,0,1,,,0,,,66,77
119750,note_off,,,,,70,0,1,,,0,,,66,64
119754,note_off,,,,,4,0,1,,,0,,,65,64
119754,note_off,,,,,0,0,1,,,0,,,78,64
119754,note_off,,,,,0,0,1,,,0,,,66,64
119760,note_on,,,,,0,0,1,,,0,,,66,85
119760,note_on,,,,,6,0,1,,,0,,,65,84
119834,note_off,,,,,74,0,1,,,0,,,66,64
119834,note_off,,,,,0,0,1,,,0,,,65,64
119840,note_on,,,,,0,0,1,,,0,,,65,82
119840,note_on,,,,,6,0,1,,,0,,,65,83
119880,note_on,,,,,40,0,1,,,0,,,66,89
119880,note_on,,,,,0,0,1,,,0,,,78,95
119913,note_off,,,,,33,0,1,,,0,,,65,64
119990,note_off,,,,,0,0,2,,,1,,,48,64
119990,note_off,,,,,470,0,2,,,1,,,60,64
119991,note_off,,,,,0,0,1,,,0,,,66,64
119991,note_off,,,,,78,0,1,,,0,,,78,64
119994,note_off,,,,,3,0,1,,,0,,,65,64
119994,note_off,,,,,4,0,2,,,1,,,54,64
119999,control_change,,,,,5,0,2,,,1,7,117,,
119999,control_change,,,,,5,0,1,,,0,7,117,,
120000,note_on,,,,,0,0,2,,,1,,,54,89
120000,note_on,,,,,1,0,1,,,0,,,66,87
120000,note_on,,,,,0,0,2,,,1,,,45,89
120000,note_on,,,,,1,0,2,,,1,,,57,87
120000,note_on,,,,,0,0,1,,,0,,,78,89
120080,note_on,,,,,80,0,1,,,0,,,65,80
120112,note_off,,,,,112,0,2,,,1,,,54,64
120112,note_off,,,,,32,0,1,,,0,,,66,64
120120,note_on,,,,,8,0,2,,,1,,,53,84
120150,note_off,,,,,38,0,1,,,0,,,65,64
120152,note_off,,,,,2,0,1,,,0,,,78,64
120160,note_on,,,,,8,0,1,,,0,,,77,85
120230,note_off,,,,,110,0,2,,,1,,,53,64
120232,note_off,,,,,2,0,2,,,1,,,57,64
120232,note_off,,,,,72,0,1,,,0,,,77,64
120233,note_off,,,,,1,0,2,,,1,,,45,64
120240,note_on,,,,,8,0,1,,,0,,,77,80
120240,note_on,,,,,7,0,2,,,1,,,53,77
120314,note_off,,,,,74,0,2,,,1,,,53,64
120320,note_on,,,,,80,0,1,,,0,,,89,81
120320,note_on,,,,,6,0,2,,,1,,,65,85
120390,note_off,,,,,70,0,2,,,1,,,65,64
120391,note_off,,,,,71,0,1,,,0,,,89,64
120400,note_on,,,,,9,0,1,,,0,,,89,82
120400,note_on,,,,,10,0,2,,,1,,,53,85
120470,note_off,,,,,70,0,1,,,0,,,77,64
120473,note_off,,,,,73,0,2,,,1,,,53,64
120473,note_off,,,,,3,0,1,,,0,,,89,64
120479,control_change,,,,,6,0,2,,,1,7,118,,
120479,control_change,,,,,6,0,1,,,0,7,118,,
120480,note_on,,,,,1,0,2,,,1,,,65,83
120480,note_on,,,,,1,0,1,,,0,,,101,79
120552,note_off,,,,,72,0,1,,,0,,,101,64
120552,note_off,,,,,72,0,2,,,1,,,65,64
120560,note_on,,,,,8,0,2,,,1,,,53,79
120560,note_on,,,,,8,0,1,,,0,,,89,80
120630,note_off,,,,,70,0,1,,,0,,,89,64
120633,note_off,,,,,73,0,2,,,1,,,53,64
120640,note_on,,,,,10,0,1,,,0,,,89,80
120640,note_on,,,,,7,0,2,,,1,,,65,80
120711,note_off,,,,,71,0,1,,,0,,,89,64
120712,note_off,,,,,72,0,2,,,1,,,65,64
120720,note_on,,,,,8,0,2,,,1,,,50,88
120720,note_on,,,,,0,0,2,,,1,,,53,87
120720,note_on,,,,,0,0,2,,,1,,,62,90
120720,note_on,,,,,9,0,1,,,0,,,77,87
120880,note_on,,,,,160,0,1,,,0,,,65,81
120952,note_off,,,,,232,0,2,,,1,,,50,64
120952,note_off,,,,,72,0,1,,,0,,,65,64
120953,note_off,,,,,1,0,2,,,1,,,62,64
120954,note_off,,,,,2,0,1,,,0,,,77,64
120954,note_off,,,,,1,0,2,,,1,,,53,64
120959,control_change,,,,,5,0,1,,,0,7,119,,
120959,control_change,,,,,5,0,2,,,1,7,119,,
120960,note_on,,,,,0,0,2,,,1,,,63,89
120960,note_on,,,,,0,0,1,,,0,,,78,96
120960,note_on,,,,,0,0,2,,,1,,,54,89
120960,note_on,,,,,1,0,2,,,1,,,51,92
120960,note_on,,,,,1,0,1,,,0,,,66,89
121040,note_on,,,,,80,0,1,,,0,,,65,82
121113,note_off,,,,,73,0,1,,,0,,,65,64
121120,note_on,,,,,7,0,1,,,0,,,65,77
121190,note_off,,,,,70,0,1,,,0,,,65,64
121200,note_on,,,,,10,0,1,,,0,,,65,83
121272,note_off,,,,,72,0,1,,,0,,,65,64
121280,note_on,,,,,8,0,1,,,0,,,65,79
121352,note_off,,,,,72,0,1,,,0,,,65,64
121360,note_on,,,,,8,0,1,,,0,,,65,79
121430,note_off,,,,,70,0,1,,,0,,,78,64
121431,note_off,,,,,0,0,2,,,1,,,51,64
121431,note_off,,,,,471,0,2,,,1,,,54,64
121432,note_off,,,,,1,0,2,,,1,,,63,64
121434,note_off,,,,,4,0,1,,,0,,,65,64
121434,note_off,,,,,0,0,1,,,0,,,66,64
121439,control_change,,,,,5,0,1,,,0,7,120,,
121439,control_change,,,,,7,0,2,,,1,7,120,,
121440,note_on,,,,,1,0,2,,,1,,,48,89
121440,note_on,,,,,1,0,1,,,0,,,66,87
121440,note_on,,,,,0,0,2,,,1,,,54,84
121440,note_on,,,,,0,0,2,,,1,,,60,84
121440,note_on,,,,,0,0,1,,,0,,,78,88
121520,note_on,,,,,80,0,1,,,0,,,65,81
121594,note_off,,,,,74,0,1,,,0,,,65,64
121600,note_on,,,,,6,0,1,,,0,,,65,84
121670,note_off,,,,,70,0,1,,,0,,,65,64
121674,note_off,,,,,4,0,1,,,0,,,78,64
121674,note_off,,,,,0,0,1,,,0,,,66,64
121680,note_on,,,,,6,0,1,,,0,,,65,81
121680,note_on,,,,,0,0,1,,,0,,,66,81
121750,note_off,,,,,70,0,1,,,0,,,66,64
121754,note_off,,,,,4,0,1,,,0,,,65,64
121760,note_on,,,,,6,0,1,,,0,,,65,82
121800,note_on,,,,,0,0,1,,,0,,,78,84
121800,note_on,,,,,40,0,1,,,0,,,66,90
121832,note_off,,,,,32,0,1,,,0,,,65,64
121910,note_off,,,,,470,0,2,,,1,,,54,64
121910,note_off,,,,,78,0,1,,,0,,,66,64
121913,note_off,,,,,3,0,2,,,1,,,60,64
121913,note_off,,,,,0,0,2,,,1,,,48,64
121913,note_off,,,,,3,0,1,,,0,,,78,64
121919,control_change,,,,,6,0,1,,,0,7,121,,
121919,control_change,,,,,6,0,2,,,1,7,121,,
121920,note_on,,,,,0,0,2,,,1,,,53,83
121920,note_on,,,,,1,0,1,,,0,,,65,87
121920,note_on,,,,,0,0,2,,,1,,,57,87
121920,note_on,,,,,1,0,2,,,1,,,43,83
121993,note_off,,,,,73,0,1,,,0,,,65,64
122000,note_on,,,,,7,0,1,,,0,,,77,80
122073,note_off,,,,,73,0,1,,,0,,,77,64
122080,note_on,,,,,7,0,1,,,0,,,77,79
122150,note_off,,,,,230,0,2,,,1,,,53,64
122153,note_off,,,,,0,0,2,,,1,,,43,64
122153,note_off,,,,,3,0,2,,,1,,,57,64
122154,note_off,,,,,74,0,1,,,0,,,77,64
122160,note_on,,,,,7,0,2,,,1,,,53,77
122160,note_on,,,,,6,0,1,,,0,,,89,83
122232,note_off,,,,,72,0,2,,,1,,,53,64
122233,note_off,,,,,73,0,1,,,0,,,89,64
122240,note_on,,,,,8,0,2,,,1,,,65,83
122240,note_on,,,,,7,0,1,,,0,,,77,85
122312,note_off,,,,,72,0,1,,,0,,,77,64
122314,note_off,,,,,74,0,2,,,1,,,65,64
122320,note_on,,,,,8,0,1,,,0,,,89,78
122320,note_on,,,,,6,0,2,,,1,,,53,78
122391,note_off,,,,,71,0,1,,,0,,,89,64
122391,note_off,,,,,71,0,2,,,1,,,53,64
122399,control_change,,,,,8,0,1,,,0,7,122,,
122399,control_change,,,,,8,0,2,,,1,7,122,,
122400,note_on,,,,,1,0,2,,,1,,,65,80
122400,note_on,,,,,1,0,1,,,0,,,77,83
122471,note_off,,,,,71,0,2,,,1,,,65,64
122473,note_off,,,,,73,0,1,,,0,,,77,64
122480,note_on,,,,,7,0,1,,,0,,,89,82
122480,note_on,,,,,9,0,2,,,1,,,53,84
122553,note_off,,,,,73,0,2,,,1,,,53,64
122553,note_off,,,,,73,0,1,,,0,,,89,64
122560,note_on,,,,,7,0,1,,,0,,,77,82
122560,note_on,,,,,7,0,2,,,1,,,65,83
122630,note_off,,,,,70,0,2,,,1,,,65,64
122632,note_off,,,,,72,0,1,,,0,,,77,64
122640,note_on,,,,,10,0,2,,,1,,,53,85
122640,note_on,,,,,8,0,1,,,0,,,77,78
122710,note_off,,,,,70,0,1,,,0,,,77,64
122720,note_on,,,,,10,0,1,,,0,,,65,80
122751,note_off,,,,,111,0,2,,,1,,,53,64
122790,note_off,,,,,70,0,1,,,0,,,65,64
122800,note_on,,,,,10,0,1,,,0,,,77,80
122873,note_off,,,,,73,0,1,,,0,,,77,64
122879,control_change,,,,,128,0,2,,,1,7,123,,
122879,control_change,,,,,6,0,1,,,0,7,123,,
122880,note_on,,,,,1,0,1,,,0,,,65,87
122880,note_on,,,,,0,0,2,,,1,,,53,94
122880,note_on,,,,,1,0,2,,,1,,,47,85
122880,note_on,,,,,0,0,2,,,1,,,50,93
122960,note_on,,,,,0,0,1,,,0,,,74,85
122960,note_on,,,,,80,0,1,,,0,,,77,78
123031,note_off,,,,,71,0,1,,,0,,,74,64
123034,note_off,,,,,3,0,1,,,0,,,77,64
123040,note_on,,,,,6,0,1,,,0,,,77,84
123111,note_off,,,,,71,0,1,,,0,,,77,64
123120,note_on,,,,,9,0,1,,,0,,,89,80
123120,note_on,,,,,0,0,1,,,0,,,86,78
123190,note_off,,,,,70,0,1,,,0,,,86,64
123194,note_off,,,,,4,0,1,,,0,,,89,64
123200,note_on,,,,,6,0,1,,,0,,,77,78
123270,note_off,,,,,70,0,1,,,0,,,77,64
123280,note_on,,,,,0,0,1,,,0,,,74,78
123280,note_on,,,,,10,0,1,,,0,,,77,81
123350,note_off,,,,,470,0,2,,,1,,,47,64
123350,note_off,,,,,70,0,1,,,0,,,74,64
123353,note_off,,,,,3,0,2,,,1,,,50,64
123353,note_off,,,,,3,0,1,,,0,,,77,64
123354,note_off,,,,,1,0,2,,,1,,,53,64
123354,note_off,,,,,1,0,1,,,0,,,65,64
123359,control_change,,,,,5,0,1,,,0,7,124,,
123359,control_change,,,,,5,0,2,,,1,7,124,,
123360,note_on,,,,,0,0,2,,,1,,,54,85
123360,note_on,,,,,0,0,2,,,1,,,48,83
123360,note_on,,,,,1,0,2,,,1,,,50,80
123360,note_on,,,,,1,0,1,,,0,,,66,84
123440,note_on,,,,,0,0,1,,,0,,,74,85
123440,note_on,,,,,80,0,1,,,0,,,78,81
123511,note_off,,,,,71,0,1,,,0,,,74,64
123512,note_off,,,,,1,0,1,,,0,,,78,64
123520,note_on,,,,,8,0,1,,,0,,,78,85
123594,note_off,,,,,74,0,1,,,0,,,78,64
123600,note_on,,,,,6,0,1,,,0,,,87,78
123600,note_on,,,,,0,0,1,,,0,,,83,84
123672,note_off,,,,,72,0,1,,,0,,,83,64
123673,note_off,,,,,1,0,1,,,0,,,87,64
123680,note_on,,,,,7,0,1,,,0,,,78,78
123713,note_off,,,,,353,0,2,,,1,,,54,64
123720,note_on,,,,,7,0,2,,,1,,,54,84
123752,note_off,,,,,72,0,1,,,0,,,78,64
123760,note_on,,,,,8,0,1,,,0,,,75,84
123760,note_on,,,,,0,0,1,,,0,,,78,85
123830,note_off,,,,,70,0,1,,,0,,,66,64
123831,note_off,,,,,111,0,2,,,1,,,54,64
123832,note_off,,,,,2,0,1,,,0,,,75,64
123833,note_off,,,,,2,0,2,,,1,,,50,64
123834,note_off,,,,,2,0,1,,,0,,,78,64
123834,note_off,,,,,1,0,2,,,1,,,48,64
123839,control_change,,,,,5,0,1,,,0,7,125,,
123839,control_change,,,,,5,0,2,,,1,7,125,,
123840,note_on,,,,,0,0,2,,,1,,,55,87
123840,note_on,,,,,1,0,1,,,0,,,67,96
123840,note_on,,,,,0,0,2,,,1,,,50,92
123840,note_on,,,,,1,0,2,,,1,,,46,93
123920,note_on,,,,,80,0,1,,,0,,,79,85
123920,note_on,,,,,0,0,1,,,0,,,74,82
123990,note_off,,,,,70,0,1,,,0,,,74,64
123994,note_off,,,,,4,0,1,,,0,,,79,64
124000,note_on,,,,,6,0,1,,,0,,,79,85
124071,note_off,,,,,71,0,1,,,0,,,79,64
124080,note_on,,,,,0,0,1,,,0,,,86,77
124080,note_on,,,,,9,0,1,,,0,,,89,85
124150,note_off,,,,,70,0,1,,,0,,,89,64
124151,note_off,,,,,1,0,1,,,0,,,86,64
124160,note_on,,,,,9,0,1,,,0,,,79,81
124234,note_off,,,,,74,0,1,,,0,,,79,64
124240,note_on,,,,,0,0,1,,,0,,,79,84
124240,note_on,,,,,6,0,1,,,0,,,74,85
124310,note_off,,,,,70,0,1,,,0,,,79,64
124312,note_off,,,,,472,0,2,,,1,,,50,64
124313,note_off,,,,,3,0,1,,,0,,,74,64
124314,note_off,,,,,1,0,1,,,0,,,67,64
124314,note_off,,,,,0,0,2,,,1,,,46,64
124314,note_off,,,,,2,0,2,,,1,,,55,64
124319,control_change,,,,,5,0,2,,,1,7,126,,
124319,control_change,,,,,5,0,1,,,0,7,126,,
124320,note_on,,,,,0,0,2,,,1,,,51,90
124320,note_on,,,,,1,0,2,,,1,,,36,94
124320,note_on,,,,,0,0,2,,,1,,,43,89
124320,note_on,,,,,0,0,2,,,1,,,45,87
124320,note_on,,,,,1,0,1,,,0,,,63,89
124400,note_on,,,,,0,0,1,,,0,,,67,82
124400,note_on,,,,,0,0,1,,,0,,,69,79
124400,note_on,,,,,80,0,1,,,0,,,75,78
124471,note_off,,,,,71,0,1,,,0,,,69,64
124473,note_off,,,,,2,0,1,,,0,,,75,64
124474,note_off,,,,,1,0,1,,,0,,,67,64
124480,note_on,,,,,6,0,1,,,0,,,75,80
124550,note_off,,,,,230,0,2,,,1,,,51,64
124550,note_off,,,,,0,0,2,,,1,,,36,64
124552,note_off,,,,,2,0,2,,,1,,,43,64
124553,note_off,,,,,1,0,2,,,1,,,45,64
124553,note_off,,,,,73,0,1,,,0,,,75,64
124560,note_on,,,,,7,0,2,,,1,,,57,80
124560,note_on,,,,,0,0,2,,,1,,,63,78
124560,note_on,,,,,0,0,1,,,0,,,79,80
124560,note_on,,,,,0,0,2,,,1,,,55,85
124560,note_on,,,,,7,0,1,,,0,,,87,78
124560,note_on,,,,,0,0,1,,,0,,,81,84
124632,note_off,,,,,72,0,1,,,0,,,79,64
124633,note_off,,,,,1,0,1,,,0,,,87,64
124640,note_on,,,,,7,0,1,,,0,,,75,85
124672,note_off,,,,,32,0,1,,,0,,,81,64
124712,note_off,,,,,40,0,1,,,0,,,75,64
124720,note_on,,,,,8,0,1,,,0,,,67,80
124720,note_on,,,,,0,0,1,,,0,,,75,78
124720,note_on,,,,,0,0,1,,,0,,,69,82
124790,note_off,,,,,230,0,2,,,1,,,57,64
124792,note_off,,,,,72,0,1,,,0,,,69,64
124792,note_off,,,,,2,0,2,,,1,,,55,64
124792,note_off,,,,,0,0,1,,,0,,,63,64
124793,note_off,,,,,1,0,1,,,0,,,75,64
124793,note_off,,,,,1,0,2,,,1,,,63,64
124794,note_off,,,,,1,0,1,,,0,,,67,64
124799,control_change,,,,,6,0,2,,,1,7,127,,
124799,control_change,,,,,5,0,1,,,0,7,127,,
124800,control_change,,,,,1,0,2,,,1,7,100,,
124800,note_on,,,,,0,0,2,,,1,,,38,90
124800,note_on,,,,,0,0,2,,,1,,,50,89
124800,control_change,,,,,0,0,1,,,0,7,100,,
124800,note_on,,,,,1,0,1,,,0,,,62,88
124800,note_on,,,,,0,0,2,,,1,,,46,86
124800,note_on,,,,,0,0,2,,,1,,,43,88
124880,note_on,,,,,80,0,1,,,0,,,67,85
124880,note_on,,,,,0,0,1,,,0,,,74,79
124880,note_on,,,,,0,0,1,,,0,,,70,84
124952,note_off,,,,,72,0,1,,,0,,,74,64
124953,note_off,,,,,1,0,1,,,0,,,67,64
124954,note_off,,,,,1,0,1,,,0,,,70,64
124960,note_on,,,,,6,0,1,,,0,,,74,81
125030,note_off,,,,,0,0,2,,,1,,,46,64
125030,note_off,,,,,230,0,2,,,1,,,43,64
125031,note_off,,,,,1,0,2,,,1,,,50,64
125034,note_off,,,,,3,0,2,,,1,,,38,64
125034,note_off,,,,,74,0,1,,,0,,,74,64
125040,note_on,,,,,0,0,1,,,0,,,86,82
125040,note_on,,,,,0,0,2,,,1,,,62,87
125040,note_on,,,,,0,0,2,,,1,,,55,85
125040,note_on,,,,,6,0,1,,,0,,,79,83
125040,note_on,,,,,0,0,1,,,0,,,82,77
125040,note_on,,,,,6,0,2,,,1,,,58,89
125113,note_off,,,,,73,0,1,,,0,,,82,64
125113,note_off,,,,,0,0,1,,,0,,,79,64
125114,note_off,,,,,1,0,1,,,0,,,86,64
125120,note_on,,,,,6,0,1,,,0,,,74,84
125191,note_off,,,,,71,0,1,,,0,,,74,64
125200,note_on,,,,,0,0,1,,,0,,,70,79
125200,note_on,,,,,9,0,1,,,0,,,74,83
125200,note_on,,,,,0,0,1,,,0,,,67,81
125270,note_off,,,,,230,0,2,,,1,,,55,64
125270,note_off,,,,,70,0,1,,,0,,,67,64
125271,note_off,,,,,1,0,2,,,1,,,62,64
125271,note_off,,,,,0,0,1,,,0,,,74,64
125271,note_off,,,,,1,0,1,,,0,,,70,64
125272,note_off,,,,,1,0,1,,,0,,,62,64
125274,note_off,,,,,3,0,2,,,1,,,58,64
125280,note_on,,,,,8,0,1,,,0,,,62,87
125280,note_on,,,,,6,0,2,,,1,,,45,85
125280,note_on,,,,,0,0,2,,,1,,,38,91
125280,note_on,,,,,0,0,2,,,1,,,50,88
125280,note_on,,,,,0,0,2,,,1,,,42,87
125360,note_on,,,,,0,0,1,,,0,,,74,82
125360,note_on,,,,,80,0,1,,,0,,,69,79
125360,note_on,,,,,0,0,1,,,0,,,66,85
125430,note_off,,,,,70,0,1,,,0,,,74,64
125433,note_off,,,,,3,0,1,,,0,,,69,64
125434,note_off,,,,,1,0,1,,,0,,,66,64
125440,note_on,,,,,6,0,1,,,0,,,74,81
125510,note_off,,,,,230,0,2,,,1,,,50,64
125512,note_off,,,,,0,0,2,,,1,,,45,64
125512,note_off,,,,,2,0,2,,,1,,,42,64
125513,note_off,,,,,73,0,1,,,0,,,74,64
125514,note_off,,,,,2,0,2,,,1,,,38,64
125520,note_on,,,,,7,0,1,,,0,,,81,79
125520,note_on,,,,,0,0,2,,,1,,,57,82
125520,note_on,,,,,6,0,2,,,1,,,62,80
125520,note_on,,,,,0,0,1,,,0,,,78,84
125520,note_on,,,,,0,0,1,,,0,,,86,77
125520,note_on,,,,,0,0,2,,,1,,,54,78
125590,note_off,,,,,70,0,1,,,0,,,78,64
125590,note_off,,,,,0,0,1,,,0,,,81,64
125590,note_off,,,,,0,0,1,,,0,,,86,64
125600,note_on,,,,,10,0,1,,,0,,,74,82
125674,note_off,,,,,74,0,1,,,0,,,74,64
125680,note_on,,,,,6,0,1,,,0,,,74,80
125680,note_on,,,,,0,0,1,,,0,,,66,81
125680,note_on,,,,,0,0,1,,,0,,,69,77
125750,note_off,,,,,70,0,1,,,0,,,62,64
125751,note_off,,,,,231,0,2,,,1,,,62,64
125751,note_off,,,,,1,0,1,,,0,,,74,64
125752,note_off,,,,,1,0,1,,,0,,,69,64
125753,note_off,,,,,2,0,2,,,1,,,57,64
125753,note_off,,,,,1,0,1,,,0,,,66,64
125754,note_off,,,,,1,0,2,,,1,,,54,64
125760,note_on,,,,,7,0,1,,,0,,,55,124
125760,set_tempo,,,,,7680,1,0,447761,,,,,,
125760,note_on,,,,,0,0,1,,,0,,,67,127
125760,note_on,,,,,0,0,2,,,1,,,43,127
125760,note_on,,,,,6,0,2,,,1,,,31,125
125872,note_off,,,,,112,0,1,,,0,,,67,64
125873,note_off,,,,,113,0,2,,,1,,,31,64
125873,note_off,,,,,1,0,1,,,0,,,55,64
125874,note_off,,,,,1,0,2,,,1,,,43,64
125880,note_on,,,,,6,0,2,,,1,,,31,116
125880,note_on,,,,,0,0,1,,,0,,,55,119
125880,note_on,,,,,0,0,2,,,1,,,43,116
125880,note_on,,,,,7,0,1,,,0,,,67,116
125990,note_off,,,,,110,0,2,,,1,,,43,64
125991,note_off,,,,,111,0,1,,,0,,,67,64
125994,note_off,,,,,4,0,2,,,1,,,31,64
125994,note_off,,,,,3,0,1,,,0,,,55,64
126000,note_on,,,,,0,0,2,,,1,,,43,122
126000,note_on,,,,,6,0,2,,,1,,,31,126
126000,note_on,,,,,0,0,1,,,0,,,67,120
126000,note_on,,,,,6,0,1,,,0,,,55,120
126110,note_off,,,,,110,0,2,,,1,,,31,64
126112,note_off,,,,,2,0,2,,,1,,,43,64
126112,note_off,,,,,112,0,1,,,0,,,55,64
126113,note_off,,,,,1,0,1,,,0,,,67,64
126120,note_on,,,,,8,0,2,,,1,,,43,120
126120,note_on,,,,,0,0,1,,,0,,,67,120
126120,note_on,,,,,0,0,2,,,1,,,33,124
126120,note_on,,,,,7,0,1,,,0,,,55,116
126231,note_off,,,,,111,0,1,,,0,,,67,64
126231,note_off,,,,,0,0,1,,,0,,,55,64
126233,note_off,,,,,113,0,2,,,1,,,33,64
126234,note_off,,,,,1,0,2,,,1,,,43,64
126240,note_on,,,,,0,0,2,,,1,,,43,122
126240,note_on,,,,,9,0,1,,,0,,,55,127
126240,note_on,,,,,0,0,1,,,0,,,67,123
126240,note_on,,,,,6,0,2,,,1,,,33,125
126351,note_off,,,,,111,0,2,,,1,,,33,64
126352,note_off,,,,,112,0,1,,,0,,,67,64
126352,note_off,,,,,1,0,2,,,1,,,43,64
126353,note_off,,,,,1,0,1,,,0,,,55,64
126360,note_on,,,,,0,0,1,,,0,,,67,124
126360,note_on,,,,,0,0,2,,,1,,,33,120
126360,note_on,,,,,8,0,2,,,1,,,43,118
126360,note_on,,,,,7,0,1,,,0,,,55,120
126470,note_off,,,,,110,0,1,,,0,,,55,64
126471,note_off,,,,,111,0,2,,,1,,,33,64
126471,note_off,,,,,0,0,2,,,1,,,43,64
126472,note_off,,,,,2,0,1,,,0,,,67,64
126480,note_on,,,,,9,0,2,,,1,,,31,124
126480,note_on,,,,,8,0,1,,,0,,,55,127
126480,note_on,,,,,0,0,2,,,1,,,43,120
126480,note_on,,,,,0,0,1,,,0,,,67,122
126590,note_off,,,,,110,0,1,,,0,,,67,64
126590,note_off,,,,,110,0,2,,,1,,,31,64
126591,note_off,,,,,1,0,1,,,0,,,55,64
126593,note_off,,,,,3,0,2,,,1,,,43,64
126600,note_on,,,,,0,0,1,,,0,,,55,120
126600,note_on,,,,,7,0,2,,,1,,,31,118
126600,note_on,,,,,0,0,2,,,1,,,43,124
126600,note_on,,,,,9,0,1,,,0,,,67,124
126711,note_off,,,,,111,0,2,,,1,,,43,64
126712,note_off,,,,,112,0,1,,,0,,,55,64
126714,note_off,,,,,3,0,2,,,1,,,31,64
126714,note_off,,,,,2,0,1,,,0,,,67,64
126720,note_on,,,,,0,0,2,,,1,,,31,126
126720,note_on,,,,,6,0,1,,,0,,,55,127
126720,note_on,,,,,6,0,2,,,1,,,43,126
126793,note_off,,,,,73,0,2,,,1,,,31,64
126794,note_off,,,,,74,0,1,,,0,,,55,64
126794,note_off,,,,,1,0,2,,,1,,,43,64
126800,note_on,,,,,6,0,1,,,0,,,67,121
126800,note_on,,,,,6,0,2,,,1,,,45,120
126873,note_off,,,,,73,0,2,,,1,,,45,64
126873,note_off,,,,,73,0,1,,,0,,,67,64
126880,note_on,,,,,7,0,2,,,1,,,46,119
126880,note_on,,,,,7,0,1,,,0,,,55,120
126953,note_off,,,,,73,0,2,,,1,,,46,64
126954,note_off,,,,,74,0,1,,,0,,,55,64
126960,note_on,,,,,7,0,2,,,1,,,48,119
126960,note_on,,,,,6,0,1,,,0,,,67,122
127030,note_off,,,,,70,0,1,,,0,,,67,64
127034,note_off,,,,,74,0,2,,,1,,,48,64
127040,note_on,,,,,6,0,2,,,1,,,50,121
127040,note_on,,,,,10,0,1,,,0,,,55,122
127111,note_off,,,,,71,0,1,,,0,,,55,64
127113,note_off,,,,,73,0,2,,,1,,,50,64
127120,note_on,,,,,9,0,1,,,0,,,67,124
127120,note_on,,,,,7,0,2,,,1,,,51,121
127191,note_off,,,,,71,0,1,,,0,,,67,64
127191,note_off,,,,,71,0,2,,,1,,,51,64
127200,note_on,,,,,9,0,1,,,0,,,55,121
127200,note_on,,,,,9,0,2,,,1,,,50,125
127200,note_on,,,,,0,0,2,,,1,,,38,126
127274,note_off,,,,,74,0,1,,,0,,,55,64
127280,note_on,,,,,6,0,1,,,0,,,67,122
127350,note_off,,,,,70,0,1,,,0,,,67,64
127360,note_on,,,,,10,0,1,,,0,,,55,117
127431,note_off,,,,,231,0,2,,,1,,,38,64
127431,note_off,,,,,0,0,2,,,1,,,50,64
127432,note_off,,,,,72,0,1,,,0,,,55,64
127440,note_on,,,,,0,0,2,,,1,,,38,119
127440,note_on,,,,,9,0,2,,,1,,,34,124
127440,note_on,,,,,8,0,1,,,0,,,62,117
127440,note_on,,,,,0,0,2,,,1,,,46,123
127440,note_on,,,,,0,0,1,,,0,,,67,119
127511,note_off,,,,,71,0,1,,,0,,,67,64
127520,note_on,,,,,9,0,1,,,0,,,55,122
127593,note_off,,,,,73,0,1,,,0,,,55,64
127600,note_on,,,,,7,0,1,,,0,,,67,118
127670,note_off,,,,,70,0,1,,,0,,,62,64
127670,note_off,,,,,230,0,2,,,1,,,46,64
127672,note_off,,,,,2,0,2,,,1,,,38,64
127673,note_off,,,,,3,0,1,,,0,,,67,64
127674,note_off,,,,,2,0,2,,,1,,,34,64
127680,note_on,,,,,0,0,2,,,1,,,38,126
127680,note_on,,,,,6,0,2,,,1,,,31,122
127680,note_on,,,,,7,0,1,,,0,,,55,124
127680,note_on,,,,,0,0,1,,,0,,,62,124
127680,note_on,,,,,0,0,2,,,1,,,43,126
127680,note_on,,,,,0,0,1,,,0,,,67,127
127791,note_off,,,,,111,0,1,,,0,,,67,64
127792,note_off,,,,,1,0,1,,,0,,,55,64
127792,note_off,,,,,112,0,2,,,1,,,31,64
127793,note_off,,,,,1,0,2,,,1,,,43,64
127800,note_on,,,,,0,0,1,,,0,,,67,116
127800,note_on,,,,,7,0,2,,,1,,,31,123
127800,note_on,,,,,0,0,2,,,1,,,43,122
127800,note_on,,,,,8,0,1,,,0,,,55,119
127910,note_off,,,,,110,0,2,,,1,,,43,64
127911,note_off,,,,,0,0,1,,,0,,,55,64
127911,note_off,,,,,1,0,2,,,1,,,31,64
127911,note_off,,,,,111,0,1,,,0,,,67,64
127920,note_on,,,,,9,0,2,,,1,,,31,119
127920,note_on,,,,,9,0,1,,,0,,,55,123
127920,note_on,,,,,0,0,1,,,0,,,67,123
127920,note_on,,,,,0,0,2,,,1,,,43,120
128030,note_off,,,,,110,0,2,,,1,,,31,64
128033,note_off,,,,,0,0,1,,,0,,,55,64
128033,note_off,,,,,3,0,2,,,1,,,43,64
128033,note_off,,,,,113,0,1,,,0,,,67,64
128040,note_on,,,,,0,0,2,,,1,,,43,121
128040,note_on,,,,,7,0,1,,,0,,,67,118
128040,note_on,,,,,0,0,1,,,0,,,55,117
128040,note_on,,,,,7,0,2,,,1,,,31,117
128150,note_off,,,,,110,0,1,,,0,,,55,64
128151,note_off,,,,,111,0,2,,,1,,,31,64
128151,note_off,,,,,1,0,1,,,0,,,67,64
128154,note_off,,,,,3,0,2,,,1,,,43,64
128160,note_on,,,,,9,0,1,,,0,,,55,123
128160,note_on,,,,,0,0,2,,,1,,,43,126
128160,note_on,,,,,0,0,1,,,0,,,67,127
128160,note_on,,,,,6,0,2,,,1,,,31,124
128271,note_off,,,,,111,0,2,,,1,,,43,64
128272,note_off,,,,,1,0,2,,,1,,,31,64
128272,note_off,,,,,112,0,1,,,0,,,67,64
128273,note_off,,,,,1,0,1,,,0,,,55,64
128280,note_on,,,,,0,0,1,,,0,,,67,117
128280,note_on,,,,,8,0,2,,,1,,,31,124
128280,note_on,,,,,7,0,1,,,0,,,55,124
128280,note_on,,,,,0,0,2,,,1,,,43,118
128390,note_off,,,,,110,0,1,,,0,,,62,64
128391,note_off,,,,,1,0,1,,,0,,,55,64
128391,note_off,,,,,111,0,2,,,1,,,31,64
128392,note_off,,,,,1,0,1,,,0,,,67,64
128392,note_off,,,,,1,0,2,,,1,,,38,64
128394,note_off,,,,,2,0,2,,,1,,,43,64
128400,note_on,,,,,8,0,1,,,0,,,55,119
128400,note_on,,,,,0,0,1,,,0,,,67,124
128400,note_on,,,,,6,0,2,,,1,,,31,119
128400,note_on,,,,,0,0,1,,,0,,,62,127
128400,note_on,,,,,0,0,2,,,1,,,43,119
128400,note_on,,,,,0,0,2,,,1,,,38,127
128510,note_off,,,,,110,0,2,,,1,,,31,64
128513,note_off,,,,,113,0,1,,,0,,,55,64
128513,note_off,,,,,3,0,2,,,1,,,43,64
128514,note_off,,,,,1,0,1,,,0,,,67,64
128520,note_on,,,,,7,0,2,,,1,,,31,124
128520,note_on,,,,,6,0,1,,,0,,,55,123
128520,note_on,,,,,0,0,1,,,0,,,67,120
128520,note_on,,,,,0,0,2,,,1,,,43,123
128630,note_off,,,,,110,0,2,,,1,,,43,64
128631,note_off,,,,,111,0,1,,,0,,,67,64
128631,note_off,,,,,0,0,1,,,0,,,62,64
128631,note_off,,,,,1,0,2,,,1,,,31,64
128633,note_off,,,,,2,0,2,,,1,,,38,64
128634,note_off,,,,,3,0,1,,,0,,,55,64
128640,note_on,,,,,0,0,2,,,1,,,31,123
128640,note_on,,,,,7,0,2,,,1,,,43,127
128640,note_on,,,,,6,0,1,,,0,,,55,125
128711,note_off,,,,,71,0,1,,,0,,,55,64
128713,note_off,,,,,73,0,2,,,1,,,31,64
128714,note_off,,,,,1,0,2,,,1,,,43,64
128720,note_on,,,,,6,0,2,,,1,,,45,121
128720,note_on,,,,,9,0,1,,,0,,,67,121
128790,note_off,,,,,70,0,2,,,1,,,45,64
128794,note_off,,,,,74,0,1,,,0,,,67,64
128800,note_on,,,,,10,0,2,,,1,,,46,122
128800,note_on,,,,,6,0,1,,,0,,,55,124
128870,note_off,,,,,70,0,1,,,0,,,55,64
128871,note_off,,,,,71,0,2,,,1,,,46,64
128880,note_on,,,,,10,0,1,,,0,,,67,122
128880,note_on,,,,,9,0,2,,,1,,,48,119
128950,note_off,,,,,70,0,1,,,0,,,67,64
128953,note_off,,,,,73,0,2,,,1,,,48,64
128960,note_on,,,,,10,0,1,,,0,,,55,124
128960,note_on,,,,,7,0,2,,,1,,,50,118
129031,note_off,,,,,71,0,1,,,0,,,55,64
129034,note_off,,,,,74,0,2,,,1,,,50,64
129040,note_on,,,,,6,0,2,,,1,,,51,124
129040,note_on,,,,,9,0,1,,,0,,,67,120
129111,note_off,,,,,71,0,2,,,1,,,51,64
129114,note_off,,,,,74,0,1,,,0,,,67,64
129120,note_on,,,,,6,0,1,,,0,,,55,123
129120,note_on,,,,,9,0,2,,,1,,,38,126
129120,note_on,,,,,0,0,2,,,1,,,50,120
129191,note_off,,,,,71,0,1,,,0,,,55,64
129200,note_on,,,,,9,0,1,,,0,,,67,124
129272,note_off,,,,,72,0,1,,,0,,,67,64
129280,note_on,,,,,8,0,1,,,0,,,55,116
129351,note_off,,,,,71,0,1,,,0,,,55,64
129351,note_off,,,,,231,0,2,,,1,,,50,64
129353,note_off,,,,,2,0,2,,,1,,,38,64
129360,note_on,,,,,9,0,1,,,0,,,67,120
129360,note_on,,,,,7,0,2,,,1,,,46,118
129360,note_on,,,,,0,0,2,,,1,,,34,117
129430,note_off,,,,,70,0,1,,,0,,,67,64
129440,note_on,,,,,10,0,1,,,0,,,55,117
129512,note_off,,,,,72,0,1,,,0,,,55,64
129520,note_on,,,,,8,0,1,,,0,,,67,120
129584,note_off,,,,,224,0,2,,,1,,,34,64
129588,note_off,,,,,4,0,2,,,1,,,46,64
129594,note_off,,,,,74,0,1,,,0,,,67,64
129600,note_on,,,,,12,0,2,,,1,,,33,127
129600,note_on,,,,,0,0,2,,,1,,,43,123
129600,note_on,,,,,6,0,1,,,0,,,55,127
129600,note_on,,,,,0,0,1,,,0,,,67,123
129710,note_off,,,,,110,0,2,,,1,,,33,64
129711,note_off,,,,,111,0,1,,,0,,,67,64
129711,note_off,,,,,1,0,2,,,1,,,43,64
129711,note_off,,,,,0,0,1,,,0,,,55,64
129720,note_on,,,,,9,0,2,,,1,,,33,118
129720,note_on,,,,,0,0,1,,,0,,,57,117
129720,note_on,,,,,9,0,1,,,0,,,67,116
129720,note_on,,,,,0,0,2,,,1,,,43,119
129830,note_off,,,,,0,0,1,,,0,,,67,64
129830,note_off,,,,,110,0,1,,,0,,,57,64
129832,note_off,,,,,112,0,2,,,1,,,43,64
129833,note_off,,,,,1,0,2,,,1,,,33,64
129840,note_on,,,,,7,0,2,,,1,,,33,121
129840,note_on,,,,,10,0,1,,,0,,,57,119
129840,note_on,,,,,0,0,1,,,0,,,67,121
129840,note_on,,,,,0,0,2,,,1,,,43,126
129951,note_off,,,,,111,0,2,,,1,,,43,64
129951,note_off,,,,,0,0,2,,,1,,,33,64
129952,note_off,,,,,112,0,1,,,0,,,57,64
129953,note_off,,,,,1,0,1,,,0,,,67,64
129960,note_on,,,,,7,0,1,,,0,,,67,116
129960,note_on,,,,,0,0,2,,,1,,,43,123
129960,note_on,,,,,0,0,1,,,0,,,57,124
129960,note_on,,,,,9,0,2,,,1,,,33,117
130070,note_off,,,,,110,0,2,,,1,,,43,64
130071,note_off,,,,,111,0,1,,,0,,,67,64
130072,note_off,,,,,2,0,2,,,1,,,33,64
130074,note_off,,,,,3,0,1,,,0,,,57,64
130080,note_on,,,,,6,0,1,,,0,,,57,121
130080,note_on,,,,,0,0,2,,,1,,,45,125
130080,note_on,,,,,0,0,2,,,1,,,43,126
130080,note_on,,,,,0,0,1,,,0,,,67,123
130080,note_on,,,,,8,0,2,,,1,,,33,127
130080,note_on,,,,,0,0,1,,,0,,,69,127
130190,note_off,,,,,110,0,1,,,0,,,69,64
130190,note_off,,,,,0,0,1,,,0,,,67,64
130192,note_off,,,,,112,0,2,,,1,,,45,64
130192,note_off,,,,,0,0,2,,,1,,,43,64
130192,note_off,,,,,2,0,1,,,0,,,57,64
130194,note_off,,,,,2,0,2,,,1,,,33,64
130200,note_on,,,,,0,0,1,,,0,,,69,117
130200,note_on,,,,,8,0,1,,,0,,,57,120
130200,note_on,,,,,0,0,1,,,0,,,67,123
130200,note_on,,,,,0,0,2,,,1,,,43,117
130200,note_on,,,,,0,0,2,,,1,,,45,124
130200,note_on,,,,,6,0,2,,,1,,,33,116
130310,note_off,,,,,110,0,1,,,0,,,69,64
130311,note_off,,,,,111,0,2,,,1,,,45,64
130311,note_off,,,,,1,0,1,,,0,,,57,64
130311,note_off,,,,,0,0,2,,,1,,,33,64
130313,note_off,,,,,2,0,2,,,1,,,43,64
130314,note_off,,,,,3,0,1,,,0,,,67,64
130320,note_on,,,,,0,0,2,,,1,,,45,125
130320,note_on,,,,,6,0,1,,,0,,,57,122
130320,note_on,,,,,7,0,2,,,1,,,33,119
130320,note_on,,,,,0,0,1,,,0,,,69,123
130320,note_on,,,,,0,0,1,,,0,,,67,121
130320,note_on,,,,,0,0,2,,,1,,,43,123
130430,note_off,,,,,110,0,2,,,1,,,33,64
130431,note_off,,,,,1,0,2,,,1,,,45,64
130431,note_off,,,,,111,0,1,,,0,,,67,64
130432,note_off,,,,,1,0,2,,,1,,,43,64
130432,note_off,,,,,1,0,1,,,0,,,69,64
130433,note_off,,,,,1,0,1,,,0,,,57,64
130440,note_on,,,,,8,0,2,,,1,,,45,118
130440,note_on,,,,,0,0,1,,,0,,,57,121
130440,note_on,,,,,0,0,1,,,0,,,67,119
130440,note_on,,,,,7,0,1,,,0,,,69,119
130440,note_on,,,,,0,0,2,,,1,,,43,122
130440,note_on,,,,,0,0,2,,,1,,,33,121
130550,note_off,,,,,110,0,2,,,1,,,33,64
130552,note_off,,,,,112,0,1,,,0,,,67,64
130554,note_off,,,,,0,0,2,,,1,,,45,64
130554,note_off,,,,,4,0,2,,,1,,,43,64
130554,note_off,,,,,2,0,1,,,0,,,57,64
130554,note_off,,,,,0,0,1,,,0,,,69,64
130560,note_on,,,,,6,0,1,,,0,,,58,122
130560,note_on,,,,,6,0,2,,,1,,,43,120
130560,note_on,,,,,0,0,2,,,1,,,46,121
130632,note_off,,,,,72,0,2,,,1,,,43,64
130633,note_off,,,,,73,0,1,,,0,,,58,64
130634,note_off,,,,,2,0,2,,,1,,,46,64
130640,note_on,,,,,6,0,2,,,1,,,45,119
130640,note_on,,,,,7,0,1,,,0,,,70,117
130640,note_on,,,,,0,0,1,,,0,,,67,122
130710,note_off,,,,,70,0,1,,,0,,,67,64
130712,note_off,,,,,2,0,1,,,0,,,70,64
130713,note_off,,,,,73,0,2,,,1,,,45,64
130720,note_on,,,,,7,0,2,,,1,,,46,123
130720,note_on,,,,,8,0,1,,,0,,,58,116
130790,note_off,,,,,70,0,1,,,0,,,58,64
130792,note_off,,,,,72,0,2,,,1,,,46,64
130800,note_on,,,,,8,0,2,,,1,,,48,120
130800,note_on,,,,,0,0,1,,,0,,,70,117
130800,note_on,,,,,10,0,1,,,0,,,67,119
130871,note_off,,,,,71,0,1,,,0,,,70,64
130873,note_off,,,,,2,0,1,,,0,,,67,64
130873,note_off,,,,,73,0,2,,,1,,,48,64
130880,note_on,,,,,7,0,2,,,1,,,50,123
130880,note_on,,,,,7,0,1,,,0,,,58,118
130951,note_off,,,,,71,0,2,,,1,,,50,64
130952,note_off,,,,,72,0,1,,,0,,,58,64
130960,note_on,,,,,8,0,1,,,0,,,70,122
130960,note_on,,,,,9,0,2,,,1,,,51,119
130960,note_on,,,,,0,0,1,,,0,,,67,122
131030,note_off,,,,,70,0,1,,,0,,,70,64
131034,note_off,,,,,74,0,2,,,1,,,51,64
131034,note_off,,,,,4,0,1,,,0,,,67,64
131040,note_on,,,,,6,0,2,,,1,,,38,125
131040,note_on,,,,,6,0,1,,,0,,,58,119
131040,note_on,,,,,0,0,2,,,1,,,50,126
131113,note_off,,,,,73,0,1,,,0,,,58,64
131120,note_on,,,,,0,0,1,,,0,,,67,122
131120,note_on,,,,,7,0,1,,,0,,,70,124
131193,note_off,,,,,0,0,1,,,0,,,70,64
131193,note_off,,,,,73,0,1,,,0,,,67,64
131200,note_on,,,,,7,0,1,,,0,,,58,116
131270,note_off,,,,,230,0,2,,,1,,,50,64
131271,note_off,,,,,1,0,2,,,1,,,38,64
131273,note_off,,,,,73,0,1,,,0,,,58,64
131280,note_on,,,,,9,0,2,,,1,,,34,121
131280,note_on,,,,,0,0,2,,,1,,,46,118
131280,note_on,,,,,7,0,1,,,0,,,70,123
131280,note_on,,,,,0,0,1,,,0,,,67,124
131352,note_off,,,,,72,0,1,,,0,,,67,64
131354,note_off,,,,,2,0,1,,,0,,,70,64
131360,note_on,,,,,6,0,1,,,0,,,58,123
131432,note_off,,,,,72,0,1,,,0,,,58,64
131440,note_on,,,,,8,0,1,,,0,,,67,119
131440,note_on,,,,,0,0,1,,,0,,,70,123
131512,note_off,,,,,0,0,1,,,0,,,67,64
131512,note_off,,,,,72,0,1,,,0,,,70,64
131514,note_off,,,,,0,0,2,,,1,,,34,64
131514,note_off,,,,,234,0,2,,,1,,,46,64
131520,note_on,,,,,0,0,2,,,1,,,34,126
131520,note_on,,,,,6,0,2,,,1,,,31,122
131520,note_on,,,,,8,0,1,,,0,,,58,125
131520,note_on,,,,,0,0,1,,,0,,,67,123
131520,note_on,,,,,0,0,1,,,0,,,70,127
131520,note_on,,,,,0,0,2,,,1,,,43,125
131630,note_off,,,,,110,0,1,,,0,,,70,64
131631,note_off,,,,,111,0,2,,,1,,,43,64
131632,note_off,,,,,1,0,2,,,1,,,31,64
131632,note_off,,,,,2,0,1,,,0,,,67,64
131634,note_off,,,,,2,0,2,,,1,,,34,64
131634,note_off,,,,,2,0,1,,,0,,,58,64
131640,note_on,,,,,0,0,1,,,0,,,58,116
131640,note_on,,,,,0,0,2,,,1,,,31,122
131640,note_on,,,,,0,0,1,,,0,,,67,117
131640,note_on,,,,,6,0,1,,,0,,,70,124
131640,note_on,,,,,0,0,2,,,1,,,43,120
131640,note_on,,,,,6,0,2,,,1,,,34,120
131753,note_off,,,,,0,0,1,,,0,,,67,64
131753,note_off,,,,,113,0,1,,,0,,,58,64
131754,note_off,,,,,1,0,1,,,0,,,70,64
131754,note_off,,,,,114,0,2,,,1,,,43,64
131754,note_off,,,,,0,0,2,,,1,,,34,64
131754,note_off,,,,,0,0,2,,,1,,,31,64
131760,note_on,,,,,0,0,2,,,1,,,34,120
131760,note_on,,,,,0,0,2,,,1,,,43,124
131760,note_on,,,,,6,0,2,,,1,,,31,120
131760,note_on,,,,,0,0,1,,,0,,,67,120
131760,note_on,,,,,6,0,1,,,0,,,58,121
131760,note_on,,,,,0,0,1,,,0,,,70,123
131870,note_off,,,,,110,0,1,,,0,,,70,64
131871,note_off,,,,,0,0,2,,,1,,,31,64
131871,note_off,,,,,111,0,2,,,1,,,34,64
131872,note_off,,,,,2,0,1,,,0,,,58,64
131873,note_off,,,,,1,0,1,,,0,,,67,64
131874,note_off,,,,,3,0,2,,,1,,,43,64
131880,note_on,,,,,0,0,2,,,1,,,31,119
131880,note_on,,,,,0,0,1,,,0,,,58,116
131880,note_on,,,,,0,0,1,,,0,,,70,118
131880,note_on,,,,,6,0,2,,,1,,,43,116
131880,note_on,,,,,0,0,2,,,1,,,34,119
131880,note_on,,,,,7,0,1,,,0,,,67,123
131990,note_off,,,,,110,0,2,,,1,,,34,64
131991,note_off,,,,,1,0,2,,,1,,,31,64
131991,note_off,,,,,0,0,2,,,1,,,43,64
131993,note_off,,,,,113,0,1,,,0,,,70,64
131994,note_off,,,,,0,0,1,,,0,,,67,64
131994,note_off,,,,,1,0,1,,,0,,,58,64
132000,note_on,,,,,0,0,2,,,1,,,43,122
132000,note_on,,,,,0,0,1,,,0,,,67,121
132000,note_on,,,,,9,0,2,,,1,,,31,127
132000,note_on,,,,,0,0,1,,,0,,,72,125
132000,note_on,,,,,0,0,2,,,1,,,33,125
132000,note_on,,,,,0,0,1,,,0,,,69,127
132000,note_on,,,,,6,0,1,,,0,,,60,125
132000,note_on,,,,,0,0,2,,,1,,,36,127
132110,note_off,,,,,110,0,1,,,0,,,72,64
132110,note_off,,,,,0,0,1,,,0,,,60,64
132110,note_off,,,,,0,0,1,,,0,,,67,64
132110,note_off,,,,,110,0,2,,,1,,,31,64
132112,note_off,,,,,2,0,2,,,1,,,36,64
132113,note_off,,,,,3,0,1,,,0,,,69,64
132114,note_off,,,,,0,0,2,,,1,,,33,64
132114,note_off,,,,,2,0,2,,,1,,,43,64
132120,note_on,,,,,6,0,2,,,1,,,36,116
132120,note_on,,,,,0,0,1,,,0,,,60,122
132120,note_on,,,,,0,0,1,,,0,,,67,119
132120,note_on,,,,,7,0,1,,,0,,,72,123
132120,note_on,,,,,0,0,2,,,1,,,31,123
132120,note_on,,,,,0,0,2,,,1,,,43,121
132120,note_on,,,,,0,0,2,,,1,,,33,121
132120,note_on,,,,,0,0,1,,,0,,,69,117
132231,note_off,,,,,111,0,1,,,0,,,67,64
132231,note_off,,,,,0,0,2,,,1,,,33,64
132231,note_off,,,,,111,0,2,,,1,,,43,64
132232,note_off,,,,,0,0,1,,,0,,,72,64
132232,note_off,,,,,1,0,1,,,0,,,60,64
132232,note_off,,,,,1,0,2,,,1,,,36,64
132233,note_off,,,,,1,0,2,,,1,,,31,64
132233,note_off,,,,,1,0,1,,,0,,,69,64
132240,note_on,,,,,0,0,2,,,1,,,33,120
132240,note_on,,,,,0,0,1,,,0,,,72,125
132240,note_on,,,,,0,0,2,,,1,,,36,124
132240,note_on,,,,,0,0,2,,,1,,,43,122
132240,note_on,,,,,0,0,1,,,0,,,69,122
132240,note_on,,,,,7,0,1,,,0,,,60,124
132240,note_on,,,,,7,0,2,,,1,,,31,124
132240,note_on,,,,,0,0,1,,,0,,,67,124
132350,note_off,,,,,110,0,1,,,0,,,72,64
132350,note_off,,,,,0,0,1,,,0,,,69,64
132351,note_off,,,,,1,0,1,,,0,,,67,64
132351,note_off,,,,,0,0,2,,,1,,,36,64
132351,note_off,,,,,111,0,2,,,1,,,43,64
132352,note_off,,,,,1,0,2,,,1,,,31,64
132352,note_off,,,,,1,0,1,,,0,,,60,64
132354,note_off,,,,,2,0,2,,,1,,,33,64
132360,note_on,,,,,0,0,1,,,0,,,60,122
132360,note_on,,,,,0,0,1,,,0,,,69,119
132360,note_on,,,,,0,0,1,,,0,,,72,124
132360,note_on,,,,,0,0,2,,,1,,,33,124
132360,note_on,,,,,8,0,1,,,0,,,67,123
132360,note_on,,,,,6,0,2,,,1,,,43,122
132360,note_on,,,,,0,0,2,,,1,,,31,116
132360,note_on,,,,,0,0,2,,,1,,,36,123
132470,note_off,,,,,110,0,2,,,1,,,36,64
132470,note_off,,,,,110,0,1,,,0,,,69,64
132471,note_off,,,,,1,0,1,,,0,,,72,64
132473,note_off,,,,,2,0,1,,,0,,,60,64
132473,note_off,,,,,3,0,2,,,1,,,43,64
132474,note_off,,,,,0,0,2,,,1,,,33,64
132474,note_off,,,,,1,0,2,,,1,,,31,64
132474,note_off,,,,,1,0,1,,,0,,,67,64
132480,note_on,,,,,0,0,2,,,1,,,34,125
132480,control_change,,,,,0,0,1,,,0,7,101,,
132480,note_on,,,,,0,0,2,,,1,,,38,127
132480,note_on,,,,,0,0,2,,,1,,,43,123
132480,control_change,,,,,6,0,2,,,1,7,101,,
132480,note_on,,,,,0,0,2,,,1,,,31,126
132480,note_on,,,,,6,0,1,,,0,,,62,126
132514,control_change,,,,,34,0,1,,,0,7,102,,
132514,control_change,,,,,34,0,2,,,1,7,102,,
132548,control_change,,,,,34,0,1,,,0,7,103,,
132548,control_change,,,,,34,0,2,,,1,7,103,,
132551,note_off,,,,,3,0,2,,,1,,,38,64
132551,note_off,,,,,0,0,2,,,1,,,31,64
132551,note_off,,,,,0,0,2,,,1,,,43,64
132551,note_off,,,,,0,0,2,,,1,,,34,64
132554,note_off,,,,,6,0,1,,,0,,,62,64
132560,note_on,,,,,0,0,1,,,0,,,70,117
132560,note_on,,,,,0,0,1,,,0,,,67,116
132560,note_on,,,,,9,0,2,,,1,,,45,117
132560,note_on,,,,,6,0,1,,,0,,,74,120
132582,control_change,,,,,22,0,1,,,0,7,104,,
132582,control_change,,,,,22,0,2,,,1,7,104,,
132616,control_change,,,,,34,0,2,,,1,7,105,,
132616,control_change,,,,,34,0,1,,,0,7,105,,
132630,note_off,,,,,14,0,1,,,0,,,67,64
132630,note_off,,,,,0,0,1,,,0,,,70,64
132630,note_off,,,,,14,0,2,,,1,,,45,64
132632,note_off,,,,,2,0,1,,,0,,,74,64
132640,note_on,,,,,8,0,1,,,0,,,62,121
132640,note_on,,,,,10,0,2,,,1,,,46,121
132651,control_change,,,,,11,0,1,,,0,7,106,,
132651,control_change,,,,,11,0,2,,,1,7,106,,
132685,control_change,,,,,34,0,2,,,1,7,107,,
132685,control_change,,,,,34,0,1,,,0,7,107,,
132712,note_off,,,,,27,0,1,,,0,,,62,64
132712,note_off,,,,,27,0,2,,,1,,,46,64
132719,control_change,,,,,7,0,1,,,0,7,108,,
132719,control_change,,,,,7,0,2,,,1,7,108,,
132720,note_on,,,,,0,0,1,,,0,,,70,116
132720,note_on,,,,,0,0,1,,,0,,,74,119
132720,note_on,,,,,1,0,2,,,1,,,48,120
132720,note_on,,,,,1,0,1,,,0,,,67,123
132753,control_change,,,,,33,0,2,,,1,7,109,,
132753,control_change,,,,,33,0,1,,,0,7,109,,
132787,control_change,,,,,34,0,2,,,1,7,110,,
132787,control_change,,,,,34,0,1,,,0,7,110,,
132793,note_off,,,,,0,0,1,,,0,,,67,64
132793,note_off,,,,,6,0,1,,,0,,,70,64
132794,note_off,,,,,1,0,1,,,0,,,74,64
132794,note_off,,,,,7,0,2,,,1,,,48,64
132800,note_on,,,,,6,0,2,,,1,,,50,122
132800,note_on,,,,,6,0,1,,,0,,,62,117
132822,control_change,,,,,22,0,1,,,0,7,111,,
132822,control_change,,,,,22,0,2,,,1,7,111,,
132856,control_change,,,,,34,0,2,,,1,7,112,,
132856,control_change,,,,,34,0,1,,,0,7,112,,
132870,note_off,,,,,14,0,1,,,0,,,62,64
132873,note_off,,,,,17,0,2,,,1,,,50,64
132880,note_on,,,,,0,0,1,,,0,,,67,116
132880,note_on,,,,,10,0,1,,,0,,,74,116
132880,note_on,,,,,0,0,1,,,0,,,70,116
132880,note_on,,,,,7,0,2,,,1,,,51,120
132890,control_change,,,,,10,0,1,,,0,7,113,,
132890,control_change,,,,,10,0,2,,,1,7,113,,
132924,control_change,,,,,34,0,2,,,1,7,114,,
132924,control_change,,,,,34,0,1,,,0,7,114,,
132950,note_off,,,,,26,0,1,,,0,,,70,64
132950,note_off,,,,,0,0,1,,,0,,,67,64
132953,note_off,,,,,29,0,2,,,1,,,51,64
132954,note_off,,,,,4,0,1,,,0,,,74,64
132959,control_change,,,,,6,0,2,,,1,7,115,,
132959,control_change,,,,,5,0,1,,,0,7,115,,
132960,note_on,,,,,1,0,2,,,1,,,50,120
132960,note_on,,,,,0,0,2,,,1,,,38,122
132960,note_on,,,,,1,0,1,,,0,,,62,124
133033,note_off,,,,,73,0,1,,,0,,,62,64
133040,note_on,,,,,7,0,1,,,0,,,74,116
133040,note_on,,,,,0,0,1,,,0,,,70,122
133040,note_on,,,,,0,0,1,,,0,,,67,121
133111,note_off,,,,,71,0,1,,,0,,,70,64
133113,note_off,,,,,2,0,1,,,0,,,74,64
133114,note_off,,,,,1,0,1,,,0,,,67,64
133120,note_on,,,,,6,0,1,,,0,,,62,116
133190,note_off,,,,,70,0,1,,,0,,,62,64
133191,note_off,,,,,231,0,2,,,1,,,38,64
133192,note_off,,,,,1,0,2,,,1,,,50,64
133200,note_on,,,,,0,0,1,,,0,,,67,122
133200,note_on,,,,,0,0,2,,,1,,,46,117
133200,note_on,,,,,8,0,2,,,1,,,34,124
133200,note_on,,,,,0,0,1,,,0,,,74,121
133200,note_on,,,,,10,0,1,,,0,,,70,119
133271,note_off,,,,,71,0,1,,,0,,,74,64
133274,note_off,,,,,3,0,1,,,0,,,67,64
133274,note_off,,,,,0,0,1,,,0,,,70,64
133280,note_on,,,,,6,0,1,,,0,,,62,124
133354,note_off,,,,,74,0,1,,,0,,,62,64
133360,note_on,,,,,0,0,1,,,0,,,70,120
133360,note_on,,,,,0,0,1,,,0,,,74,119
133360,note_on,,,,,6,0,1,,,0,,,67,117
133430,note_off,,,,,230,0,2,,,1,,,34,64
133432,note_off,,,,,72,0,1,,,0,,,70,64
133433,note_off,,,,,0,0,1,,,0,,,67,64
133433,note_off,,,,,3,0,2,,,1,,,46,64
133433,note_off,,,,,1,0,1,,,0,,,74,64
133440,note_on,,,,,0,0,2,,,1,,,35,122
133440,note_on,,,,,0,0,2,,,1,,,43,122
133440,note_on,,,,,7,0,2,,,1,,,31,127
133440,note_on,,,,,0,0,2,,,1,,,38,121
133440,note_on,,,,,0,0,1,,,0,,,74,124
133440,note_on,,,,,0,0,1,,,0,,,71,126
133440,note_on,,,,,0,0,1,,,0,,,65,126
133440,note_on,,,,,7,0,1,,,0,,,62,123
133550,note_off,,,,,110,0,1,,,0,,,71,64
133552,note_off,,,,,112,0,2,,,1,,,43,64
133552,note_off,,,,,0,0,2,,,1,,,31,64
133553,note_off,,,,,3,0,1,,,0,,,65,64
133553,note_off,,,,,1,0,2,,,1,,,38,64
133554,note_off,,,,,1,0,2,,,1,,,35,64
133560,note_on,,,,,6,0,2,,,1,,,35,117
133560,note_on,,,,,0,0,1,,,0,,,71,122
133560,note_on,,,,,0,0,2,,,1,,,31,120
133560,note_on,,,,,0,0,2,,,1,,,38,119
133560,note_on,,,,,7,0,1,,,0,,,65,117
133560,note_on,,,,,0,0,2,,,1,,,43,124
133670,note_off,,,,,110,0,2,,,1,,,35,64
133671,note_off,,,,,1,0,2,,,1,,,31,64
133672,note_off,,,,,112,0,1,,,0,,,65,64
133672,note_off,,,,,1,0,2,,,1,,,38,64
133673,note_off,,,,,1,0,2,,,1,,,43,64
133673,note_off,,,,,1,0,1,,,0,,,71,64
133680,note_on,,,,,0,0,2,,,1,,,35,123
133680,note_on,,,,,7,0,1,,,0,,,65,120
133680,note_on,,,,,0,0,1,,,0,,,71,121
133680,note_on,,,,,0,0,2,,,1,,,43,125
133680,note_on,,,,,0,0,2,,,1,,,38,126
133680,note_on,,,,,7,0,2,,,1,,,31,123
133791,note_off,,,,,111,0,2,,,1,,,35,64
133792,note_off,,,,,0,0,1,,,0,,,65,64
133792,note_off,,,,,112,0,1,,,0,,,71,64
133792,note_off,,,,,1,0,2,,,1,,,38,64
133793,note_off,,,,,1,0,2,,,1,,,43,64
133793,note_off,,,,,0,0,2,,,1,,,31,64
133800,note_on,,,,,0,0,1,,,0,,,71,122
133800,note_on,,,,,0,0,2,,,1,,,35,116
133800,note_on,,,,,0,0,2,,,1,,,38,116
133800,note_on,,,,,8,0,1,,,0,,,65,119
133800,note_on,,,,,0,0,2,,,1,,,31,116
133800,note_on,,,,,7,0,2,,,1,,,43,116
133910,note_off,,,,,0,0,2,,,1,,,43,64
133910,note_off,,,,,110,0,2,,,1,,,38,64
133910,note_off,,,,,110,0,1,,,0,,,74,64
133910,note_off,,,,,0,0,1,,,0,,,62,64
133912,note_off,,,,,2,0,1,,,0,,,71,64
133913,note_off,,,,,0,0,2,,,1,,,35,64
133913,note_off,,,,,3,0,2,,,1,,,31,64
133914,note_off,,,,,2,0,1,,,0,,,65,64
133920,note_on,,,,,0,0,2,,,1,,,35,125
133920,note_on,,,,,0,0,2,,,1,,,43,127
133920,note_on,,,,,0,0,2,,,1,,,38,124
133920,note_on,,,,,0,0,1,,,0,,,65,125
133920,note_on,,,,,0,0,1,,,0,,,70,123
133920,note_on,,,,,6,0,1,,,0,,,67,127
133920,note_on,,,,,7,0,2,,,1,,,31,127
133920,note_on,,,,,0,0,1,,,0,,,79,123
134030,note_off,,,,,110,0,2,,,1,,,43,64
134031,note_off,,,,,1,0,2,,,1,,,31,64
134031,note_off,,,,,111,0,1,,,0,,,70,64
134032,note_off,,,,,1,0,2,,,1,,,38,64
134032,note_off,,,,,0,0,2,,,1,,,35,64
134034,note_off,,,,,3,0,1,,,0,,,65,64
134040,note_on,,,,,0,0,1,,,0,,,65,116
134040,note_on,,,,,0,0,2,,,1,,,31,121
134040,note_on,,,,,6,0,1,,,0,,,70,123
134040,note_on,,,,,0,0,2,,,1,,,38,121
134040,note_on,,,,,8,0,2,,,1,,,43,117
134040,note_on,,,,,0,0,2,,,1,,,35,124
134150,note_off,,,,,110,0,2,,,1,,,43,64
134152,note_off,,,,,112,0,1,,,0,,,65,64
134152,note_off,,,,,2,0,2,,,1,,,31,64
134153,note_off,,,,,0,0,2,,,1,,,35,64
134153,note_off,,,,,1,0,2,,,1,,,38,64
134154,note_off,,,,,2,0,1,,,0,,,70,64
134160,note_on,,,,,0,0,2,,,1,,,38,125
134160,note_on,,,,,0,0,1,,,0,,,65,119
134160,note_on,,,,,7,0,2,,,1,,,31,119
134160,note_on,,,,,6,0,1,,,0,,,70,118
134160,note_on,,,,,0,0,2,,,1,,,43,119
134160,note_on,,,,,0,0,2,,,1,,,35,125
134271,note_off,,,,,111,0,1,,,0,,,65,64
134272,note_off,,,,,1,0,1,,,0,,,67,64
134273,note_off,,,,,0,0,2,,,1,,,38,64
134273,note_off,,,,,0,0,2,,,1,,,35,64
134273,note_off,,,,,113,0,2,,,1,,,43,64
134274,note_off,,,,,0,0,1,,,0,,,79,64
134274,note_off,,,,,1,0,2,,,1,,,31,64
134274,note_off,,,,,2,0,1,,,0,,,70,64
134280,note_on,,,,,6,0,2,,,1,,,35,116
134280,note_on,,,,,0,0,1,,,0,,,65,122
134280,note_on,,,,,0,0,1,,,0,,,70,119
134280,note_on,,,,,0,0,1,,,0,,,74,119
134280,note_on,,,,,0,0,2,,,1,,,31,116
134280,note_on,,,,,0,0,2,,,1,,,43,116
134280,note_on,,,,,6,0,1,,,0,,,62,123
134280,note_on,,,,,0,0,2,,,1,,,38,122
134390,note_off,,,,,110,0,1,,,0,,,65,64
134391,note_off,,,,,111,0,2,,,1,,,31,64
134392,note_off,,,,,1,0,2,,,1,,,43,64
134392,note_off,,,,,0,0,2,,,1,,,35,64
134392,note_off,,,,,2,0,1,,,0,,,70,64
134393,note_off,,,,,1,0,2,,,1,,,38,64
134393,note_off,,,,,1,0,1,,,0,,,74,64
134394,note_off,,,,,1,0,1,,,0,,,62,64
134400,note_on,,,,,7,0,2,,,1,,,36,126
134400,note_on,,,,,0,0,1,,,0,,,63,125
134400,note_on,,,,,6,0,1,,,0,,,75,123
134400,note_on,,,,,0,0,1,,,0,,,67,126
134400,note_on,,,,,0,0,1,,,0,,,72,122
134400,note_on,,,,,0,0,2,,,1,,,48,121
134400,note_on,,,,,0,0,2,,,1,,,39,126
134470,note_off,,,,,70,0,2,,,1,,,36,64
134473,note_off,,,,,3,0,2,,,1,,,39,64
134474,note_off,,,,,1,0,2,,,1,,,48,64
134480,note_on,,,,,6,0,2,,,1,,,38,122
134510,note_off,,,,,0,0,1,,,0,,,67,64
134510,note_off,,,,,110,0,1,,,0,,,72,64
134512,note_off,,,,,2,0,1,,,0,,,63,64
134520,note_on,,,,,8,0,1,,,0,,,63,116
134520,note_on,,,,,0,0,1,,,0,,,72,118
134520,note_on,,,,,0,0,1,,,0,,,67,120
134554,note_off,,,,,74,0,2,,,1,,,38,64
134560,note_on,,,,,6,0,2,,,1,,,39,124
134632,note_off,,,,,112,0,1,,,0,,,67,64
134633,note_off,,,,,1,0,1,,,0,,,72,64
134634,note_off,,,,,1,0,1,,,0,,,63,64
134634,note_off,,,,,74,0,2,,,1,,,39,64
134640,note_on,,,,,0,0,1,,,0,,,72,121
134640,note_on,,,,,0,0,1,,,0,,,63,121
134640,note_on,,,,,6,0,1,,,0,,,67,118
134640,note_on,,,,,6,0,2,,,1,,,41,122
134713,note_off,,,,,73,0,2,,,1,,,41,64
134720,note_on,,,,,7,0,2,,,1,,,43,121
134750,note_off,,,,,110,0,1,,,0,,,67,64
134751,note_off,,,,,1,0,1,,,0,,,63,64
134753,note_off,,,,,2,0,1,,,0,,,72,64
134760,note_on,,,,,0,0,1,,,0,,,72,118
134760,note_on,,,,,0,0,1,,,0,,,67,123
134760,note_on,,,,,7,0,1,,,0,,,63,120
134792,note_off,,,,,72,0,2,,,1,,,43,64
134800,note_on,,,,,8,0,2,,,1,,,44,119
134871,note_off,,,,,111,0,1,,,0,,,67,64
134871,note_off,,,,,0,0,1,,,0,,,63,64
134872,note_off,,,,,1,0,1,,,0,,,72,64
134873,note_off,,,,,73,0,2,,,1,,,44,64
134873,note_off,,,,,1,0,1,,,0,,,75,64
134880,note_on,,,,,0,0,1,,,0,,,67,121
134880,note_on,,,,,0,0,1,,,0,,,72,126
134880,note_on,,,,,7,0,1,,,0,,,63,119
134880,note_on,,,,,7,0,2,,,1,,,43,123
134992,note_off,,,,,112,0,1,,,0,,,67,64
134994,note_off,,,,,0,0,1,,,0,,,63,64
134994,note_off,,,,,2,0,1,,,0,,,72,64
135000,note_on,,,,,6,0,1,,,0,,,63,123
135000,note_on,,,,,0,0,1,,,0,,,67,117
135000,note_on,,,,,0,0,1,,,0,,,72,117
135110,note_off,,,,,110,0,1,,,0,,,72,64
135111,note_off,,,,,1,0,1,,,0,,,63,64
135113,note_off,,,,,233,0,2,,,1,,,43,64
135113,note_off,,,,,2,0,1,,,0,,,67,64
135120,note_on,,,,,0,0,1,,,0,,,72,118
135120,note_on,,,,,7,0,1,,,0,,,67,122
135120,note_on,,,,,7,0,2,,,1,,,39,120
135120,note_on,,,,,0,0,1,,,0,,,63,120
135230,note_off,,,,,110,0,1,,,0,,,63,64
135230,note_off,,,,,0,0,1,,,0,,,67,64
135234,note_off,,,,,4,0,1,,,0,,,72,64
135240,note_on,,,,,0,0,1,,,0,,,72,118
135240,note_on,,,,,6,0,1,,,0,,,67,116
135240,note_on,,,,,0,0,1,,,0,,,63,116
135349,note_off,,,,,0,0,1,,,0,,,67,64
135349,note_off,,,,,109,0,1,,,0,,,63,64
135350,note_off,,,,,1,0,1,,,0,,,72,64
135350,note_off,,,,,230,0,2,,,1,,,39,64
135360,control_change,,,,,0,0,1,,,0,7,116,,
135360,note_on,,,,,10,0,1,,,0,,,60,124
135360,note_on,,,,,0,0,1,,,0,,,72,122
135360,note_on,,,,,0,0,2,,,1,,,36,126
135360,note_on,,,,,0,0,2,,,1,,,48,126
135360,control_change,,,,,10,0,2,,,1,7,116,,
135447,control_change,,,,,87,0,2,,,1,7,117,,
135447,control_change,,,,,87,0,1,,,0,7,117,,
135470,note_off,,,,,23,0,1,,,0,,,60,64
135473,note_off,,,,,3,0,1,,,0,,,72,64
135480,note_on,,,,,0,0,1,,,0,,,72,118
135480,note_on,,,,,7,0,1,,,0,,,60,118
135534,control_change,,,,,54,0,1,,,0,7,118,,
135534,control_change,,,,,87,0,2,,,1,7,118,,
135590,note_off,,,,,56,0,1,,,0,,,72,64
135593,note_off,,,,,3,0,1,,,0,,,60,64
135600,note_on,,,,,0,0,1,,,0,,,60,117
135600,note_on,,,,,7,0,1,,,0,,,72,116
135621,control_change,,,,,87,0,2,,,1,7,119,,
135621,control_change,,,,,21,0,1,,,0,7,119,,
135708,control_change,,,,,87,0,1,,,0,7,120,,
135708,control_change,,,,,87,0,2,,,1,7,120,,
135710,note_off,,,,,2,0,1,,,0,,,72,64
135712,note_off,,,,,2,0,1,,,0,,,60,64
135720,note_on,,,,,0,0,1,,,0,,,72,120
135720,note_on,,,,,8,0,1,,,0,,,60,120
135795,control_change,,,,,87,0,2,,,1,7,121,,
135795,control_change,,,,,75,0,1,,,0,7,121,,
135832,note_off,,,,,37,0,1,,,0,,,60,64
135832,note_off,,,,,37,0,2,,,1,,,36,64
135834,note_off,,,,,2,0,1,,,0,,,72,64
135834,note_off,,,,,2,0,2,,,1,,,48,64
135840,note_on,,,,,6,0,1,,,0,,,72,126
135840,note_on,,,,,0,0,2,,,1,,,49,122
135840,note_on,,,,,6,0,2,,,1,,,37,126
135840,note_on,,,,,0,0,1,,,0,,,60,121
135883,control_change,,,,,43,0,1,,,0,7,122,,
135883,control_change,,,,,43,0,2,,,1,7,122,,
135950,note_off,,,,,67,0,1,,,0,,,72,64
135954,note_off,,,,,4,0,1,,,0,,,60,64
135960,note_on,,,,,0,0,1,,,0,,,72,117
135960,note_on,,,,,6,0,1,,,0,,,60,122
135970,control_change,,,,,87,0,2,,,1,7,123,,
135970,control_change,,,,,10,0,1,,,0,7,123,,
136057,control_change,,,,,87,0,1,,,0,7,124,,
136057,control_change,,,,,87,0,2,,,1,7,124,,
136071,note_off,,,,,0,0,1,,,0,,,60,64
136071,note_off,,,,,14,0,1,,,0,,,72,64
136072,note_off,,,,,0,0,2,,,1,,,37,64
136072,note_off,,,,,15,0,2,,,1,,,49,64
136080,note_on,,,,,9,0,1,,,0,,,72,119
136080,note_on,,,,,0,0,2,,,1,,,50,117
136080,note_on,,,,,8,0,2,,,1,,,38,123
136080,note_on,,,,,0,0,1,,,0,,,60,122
136144,control_change,,,,,64,0,2,,,1,7,125,,
136144,control_change,,,,,64,0,1,,,0,7,125,,
136192,note_off,,,,,48,0,1,,,0,,,60,64
136194,note_off,,,,,2,0,1,,,0,,,72,64
136200,note_on,,,,,6,0,1,,,0,,,72,123
136200,note_on,,,,,0,0,1,,,0,,,60,122
136231,control_change,,,,,31,0,1,,,0,7,126,,
136231,control_change,,,,,87,0,2,,,1,7,126,,
136310,note_off,,,,,79,0,1,,,0,,,60,64
136312,note_off,,,,,81,0,2,,,1,,,38,64
136314,note_off,,,,,4,0,1,,,0,,,72,64
136314,note_off,,,,,2,0,2,,,1,,,50,64
136319,control_change,,,,,5,0,2,,,1,7,127,,
136319,control_change,,,,,5,0,1,,,0,7,127,,
136320,note_on,,,,,0,0,1,,,0,,,60,124
136320,note_on,,,,,0,0,2,,,1,,,39,125
136320,note_on,,,,,1,0,2,,,1,,,51,127
136320,note_on,,,,,1,0,1,,,0,,,72,127
136430,note_off,,,,,110,0,1,,,0,,,60,64
136430,note_off,,,,,0,0,1,,,0,,,72,64
136440,note_on,,,,,0,0,1,,,0,,,72,117
136440,note_on,,,,,10,0,1,,,0,,,60,118
136551,note_off,,,,,231,0,2,,,1,,,51,64
136552,note_off,,,,,112,0,1,,,0,,,60,64
136554,note_off,,,,,3,0,2,,,1,,,39,64
136554,note_off,,,,,2,0,1,,,0,,,72,64
136560,note_on,,,,,0,0,1,,,0,,,60,124
136560,note_on,,,,,6,0,1,,,0,,,72,122
136560,note_on,,,,,0,0,2,,,1,,,40,120
136560,note_on,,,,,6,0,2,,,1,,,52,123
136671,note_off,,,,,111,0,1,,,0,,,72,64
136674,note_off,,,,,3,0,1,,,0,,,60,64
136680,note_on,,,,,0,0,1,,,0,,,72,116
136680,note_on,,,,,6,0,1,,,0,,,60,123
136792,note_off,,,,,112,0,1,,,0,,,72,64
136792,note_off,,,,,232,0,2,,,1,,,40,64
136793,note_off,,,,,1,0,1,,,0,,,60,64
136793,note_off,,,,,1,0,2,,,1,,,52,64
136800,note_on,,,,,0,0,1,,,0,,,60,122
136800,note_on,,,,,7,0,1,,,0,,,72,118
136800,note_on,,,,,7,0,2,,,1,,,41,124
136800,note_on,,,,,0,0,2,,,1,,,53,123
136911,note_off,,,,,111,0,1,,,0,,,60,64
136914,note_off,,,,,3,0,1,,,0,,,72,64
136920,note_on,,,,,6,0,1,,,0,,,60,117
136920,note_on,,,,,0,0,1,,,0,,,72,124
137030,note_off,,,,,110,0,1,,,0,,,72,64
137031,note_off,,,,,231,0,2,,,1,,,53,64
137031,note_off,,,,,0,0,2,,,1,,,41,64
137033,note_off,,,,,3,0,1,,,0,,,60,64
137040,note_on,,,,,0,0,2,,,1,,,55,120
137040,note_on,,,,,7,0,1,,,0,,,60,118
137040,note_on,,,,,0,0,1,,,0,,,72,121
137040,note_on,,,,,9,0,2,,,1,,,43,121
137152,note_off,,,,,112,0,1,,,0,,,72,64
137154,note_off,,,,,2,0,1,,,0,,,60,64
137160,note_on,,,,,0,0,1,,,0,,,60,118
137160,note_on,,,,,6,0,1,,,0,,,72,123
137270,note_off,,,,,110,0,1,,,0,,,72,64
137271,note_off,,,,,1,0,1,,,0,,,60,64
137273,note_off,,,,,233,0,2,,,1,,,43,64
137274,note_off,,,,,1,0,2,,,1,,,55,64
137280,note_on,,,,,0,0,1,,,0,,,60,121
137280,note_on,,,,,6,0,2,,,1,,,56,124
137280,note_on,,,,,9,0,1,,,0,,,72,127
137280,note_on,,,,,0,0,2,,,1,,,44,122
137280,note_on,,,,,0,0,2,,,1,,,48,125
137280,note_on,,,,,0,0,2,,,1,,,51,121
137280,note_on,,,,,0,0,1,,,0,,,63,127
137390,note_off,,,,,110,0,1,,,0,,,60,64
137391,note_off,,,,,111,0,2,,,1,,,48,64
137392,note_off,,,,,1,0,2,,,1,,,51,64
137394,note_off,,,,,4,0,1,,,0,,,63,64
137394,note_off,,,,,2,0,2,,,1,,,56,64
137400,note_on,,,,,0,0,2,,,1,,,51,123
137400,note_on,,,,,6,0,2,,,1,,,48,122
137400,note_on,,,,,0,0,1,,,0,,,60,118
137400,note_on,,,,,6,0,1,,,0,,,63,124
137400,note_on,,,,,0,0,2,,,1,,,56,121
137510,note_off,,,,,110,0,1,,,0,,,60,64
137510,note_off,,,,,110,0,2,,,1,,,56,64
137511,note_off,,,,,1,0,2,,,1,,,51,64
137512,note_off,,,,,2,0,1,,,0,,,63,64
137514,note_off,,,,,3,0,2,,,1,,,48,64
137520,note_on,,,,,0,0,2,,,1,,,51,120
137520,note_on,,,,,0,0,1,,,0,,,60,121
137520,note_on,,,,,8,0,1,,,0,,,63,123
137520,note_on,,,,,6,0,2,,,1,,,56,118
137520,note_on,,,,,0,0,2,,,1,,,48,117
137630,note_off,,,,,110,0,1,,,0,,,60,64
137631,note_off,,,,,111,0,2,,,1,,,56,64
137632,note_off,,,,,2,0,1,,,0,,,63,64
137632,note_off,,,,,1,0,2,,,1,,,48,64
137633,note_off,,,,,1,0,2,,,1,,,51,64
137640,note_on,,,,,8,0,1,,,0,,,60,116
137640,note_on,,,,,0,0,1,,,0,,,63,123
137640,note_on,,,,,0,0,2,,,1,,,51,117
137640,note_on,,,,,0,0,2,,,1,,,48,121
137640,note_on,,,,,7,0,2,,,1,,,56,122
137750,note_off,,,,,110,0,2,,,1,,,56,64
137751,note_off,,,,,1,0,2,,,1,,,48,64
137752,note_off,,,,,1,0,2,,,1,,,44,64
137752,note_off,,,,,112,0,1,,,0,,,63,64
137752,note_off,,,,,0,0,1,,,0,,,60,64
137753,note_off,,,,,1,0,2,,,1,,,51,64
137760,note_on,,,,,0,0,2,,,1,,,51,118
137760,note_on,,,,,7,0,2,,,1,,,48,125
137760,note_on,,,,,8,0,1,,,0,,,63,120
137760,note_on,,,,,0,0,1,,,0,,,60,118
137760,note_on,,,,,0,0,2,,,1,,,56,119
137872,note_off,,,,,112,0,2,,,1,,,56,64
137872,note_off,,,,,0,0,2,,,1,,,48,64
137872,note_off,,,,,0,0,1,,,0,,,63,64
137872,note_off,,,,,112,0,1,,,0,,,60,64
137874,note_off,,,,,2,0,2,,,1,,,51,64
137880,note_on,,,,,6,0,2,,,1,,,51,124
137880,note_on,,,,,0,0,2,,,1,,,48,119
137880,note_on,,,,,0,0,2,,,1,,,56,118
137880,note_on,,,,,0,0,1,,,0,,,60,120
137880,note_on,,,,,8,0,1,,,0,,,63,121
137991,note_off,,,,,0,0,1,,,0,,,72,64
137991,note_off,,,,,111,0,1,,,0,,,60,64
137992,note_off,,,,,1,0,1,,,0,,,63,64
137993,note_off,,,,,113,0,2,,,1,,,56,64
137993,note_off,,,,,0,0,2,,,1,,,48,64
137994,note_off,,,,,1,0,2,,,1,,,51,64
138000,note_on,,,,,0,0,2,,,1,,,56,116
138000,note_on,,,,,0,0,2,,,1,,,44,116
138000,note_on,,,,,0,0,2,,,1,,,48,121
138000,note_on,,,,,8,0,1,,,0,,,68,124
138000,note_on,,,,,6,0,2,,,1,,,51,118
138000,note_on,,,,,0,0,1,,,0,,,63,118
138000,note_on,,,,,0,0,1,,,0,,,60,116
138110,note_off,,,,,110,0,1,,,0,,,60,64
138114,note_off,,,,,4,0,1,,,0,,,63,64
138114,note_off,,,,,0,0,2,,,1,,,51,64
138114,note_off,,,,,114,0,2,,,1,,,48,64
138114,note_off,,,,,0,0,2,,,1,,,56,64
138120,note_on,,,,,0,0,1,,,0,,,60,124
138120,note_on,,,,,6,0,1,,,0,,,63,117
138120,note_on,,,,,0,0,2,,,1,,,48,118
138120,note_on,,,,,6,0,2,,,1,,,51,121
138120,note_on,,,,,0,0,2,,,1,,,56,116
138231,note_off,,,,,0,0,1,,,0,,,68,64
138231,note_off,,,,,111,0,1,,,0,,,60,64
138231,note_off,,,,,0,0,1,,,0,,,63,64
138232,note_off,,,,,112,0,2,,,1,,,51,64
138233,note_off,,,,,0,0,2,,,1,,,44,64
138233,note_off,,,,,1,0,2,,,1,,,56,64
138234,note_off,,,,,1,0,2,,,1,,,48,64
138240,note_on,,,,,6,0,2,,,1,,,52,126
138240,note_on,,,,,9,0,1,,,0,,,73,121
138240,note_on,,,,,0,0,1,,,0,,,61,121
138240,note_on,,,,,0,0,2,,,1,,,44,120
138240,note_on,,,,,0,0,2,,,1,,,49,122
138240,note_on,,,,,0,0,2,,,1,,,55,123
138240,note_on,,,,,0,0,1,,,0,,,64,120
138310,note_off,,,,,70,0,1,,,0,,,64,64
138310,note_off,,,,,70,0,2,,,1,,,49,64
138311,note_off,,,,,1,0,2,,,1,,,55,64
138313,note_off,,,,,2,0,2,,,1,,,52,64
138314,note_off,,,,,4,0,1,,,0,,,61,64
138320,note_on,,,,,0,0,2,,,1,,,55,117
138320,note_on,,,,,6,0,1,,,0,,,64,121
138320,note_on,,,,,0,0,2,,,1,,,49,124
138320,note_on,,,,,7,0,2,,,1,,,52,120
138320,note_on,,,,,0,0,1,,,0,,,61,120
138390,note_off,,,,,70,0,1,,,0,,,61,64
138392,note_off,,,,,2,0,1,,,0,,,64,64
138393,note_off,,,,,0,0,2,,,1,,,52,64
138393,note_off,,,,,73,0,2,,,1,,,49,64
138394,note_off,,,,,1,0,2,,,1,,,55,64
138400,note_on,,,,,0,0,1,,,0,,,64,122
138400,note_on,,,,,0,0,2,,,1,,,49,116
138400,note_on,,,,,0,0,2,,,1,,,55,121
138400,note_on,,,,,8,0,1,,,0,,,61,122
138400,note_on,,,,,6,0,2,,,1,,,52,117
138470,note_off,,,,,70,0,2,,,1,,,52,64
138471,note_off,,,,,71,0,1,,,0,,,64,64
138472,note_off,,,,,2,0,2,,,1,,,55,64
138473,note_off,,,,,2,0,1,,,0,,,61,64
138474,note_off,,,,,2,0,2,,,1,,,49,64
138480,note_on,,,,,0,0,1,,,0,,,61,116
138480,note_on,,,,,0,0,2,,,1,,,55,118
138480,note_on,,,,,6,0,2,,,1,,,52,116
138480,note_on,,,,,0,0,2,,,1,,,49,116
138480,note_on,,,,,7,0,1,,,0,,,64,119
138552,note_off,,,,,72,0,2,,,1,,,49,64
138553,note_off,,,,,73,0,1,,,0,,,64,64
138554,note_off,,,,,1,0,1,,,0,,,61,64
138554,note_off,,,,,2,0,2,,,1,,,55,64
138554,note_off,,,,,0,0,2,,,1,,,52,64
138560,note_on,,,,,0,0,2,,,1,,,49,119
138560,note_on,,,,,0,0,2,,,1,,,55,122
138560,note_on,,,,,0,0,1,,,0,,,64,116
138560,note_on,,,,,6,0,2,,,1,,,52,116
138560,note_on,,,,,6,0,1,,,0,,,61,120
138590,note_off,,,,,30,0,1,,,0,,,73,64
138592,note_off,,,,,32,0,2,,,1,,,44,64
138600,note_on,,,,,0,0,1,,,0,,,70,122
138600,note_on,,,,,8,0,2,,,1,,,44,119
138600,note_on,,,,,10,0,1,,,0,,,58,126
138630,note_off,,,,,30,0,2,,,1,,,52,64
138632,note_off,,,,,0,0,2,,,1,,,49,64
138632,note_off,,,,,32,0,1,,,0,,,61,64
138632,note_off,,,,,2,0,2,,,1,,,55,64
138633,note_off,,,,,1,0,1,,,0,,,64,64
138640,note_on,,,,,7,0,1,,,0,,,64,117
138640,note_on,,,,,0,0,2,,,1,,,49,121
138640,note_on,,,,,0,0,1,,,0,,,61,121
138640,note_on,,,,,8,0,2,,,1,,,52,116
138640,note_on,,,,,0,0,2,,,1,,,55,122
138710,note_off,,,,,70,0,1,,,0,,,58,64
138711,note_off,,,,,71,0,2,,,1,,,44,64
138711,note_off,,,,,1,0,1,,,0,,,70,64
138712,note_off,,,,,1,0,2,,,1,,,49,64
138714,note_off,,,,,0,0,2,,,1,,,52,64
138714,note_off,,,,,2,0,2,,,1,,,55,64
138720,note_on,,,,,0,0,1,,,0,,,61,120
138720,note_on,,,,,0,0,1,,,0,,,64,119
138720,note_on,,,,,0,0,1,,,0,,,67,127
138720,note_on,,,,,9,0,1,,,0,,,55,121
138720,note_on,,,,,6,0,2,,,1,,,52,118
138720,note_on,,,,,0,0,2,,,1,,,49,118
138720,note_on,,,,,0,0,2,,,1,,,44,119
138750,note_off,,,,,30,0,1,,,0,,,64,64
138754,note_off,,,,,4,0,1,,,0,,,61,64
138790,note_off,,,,,70,0,2,,,1,,,49,64
138790,note_off,,,,,36,0,1,,,0,,,61,64
138791,note_off,,,,,1,0,1,,,0,,,64,64
138794,note_off,,,,,4,0,2,,,1,,,52,64
138800,note_on,,,,,0,0,1,,,0,,,64,123
138800,note_on,,,,,9,0,1,,,0,,,61,123
138800,note_on,,,,,0,0,2,,,1,,,49,123
138800,note_on,,,,,6,0,2,,,1,,,52,124
138870,note_off,,,,,70,0,2,,,1,,,49,64
138871,note_off,,,,,1,0,2,,,1,,,52,64
138872,note_off,,,,,72,0,1,,,0,,,64,64
138874,note_off,,,,,2,0,1,,,0,,,61,64
138880,note_on,,,,,0,0,1,,,0,,,64,122
138880,note_on,,,,,9,0,2,,,1,,,52,122
138880,note_on,,,,,0,0,2,,,1,,,49,116
138880,note_on,,,,,6,0,1,,,0,,,61,120
138950,note_off,,,,,70,0,1,,,0,,,61,64
138950,note_off,,,,,0,0,1,,,0,,,55,64
138952,note_off,,,,,2,0,1,,,0,,,64,64
138952,note_off,,,,,0,0,2,,,1,,,44,64
138952,note_off,,,,,0,0,2,,,1,,,52,64
138952,note_off,,,,,72,0,2,,,1,,,49,64
138953,note_off,,,,,1,0,1,,,0,,,67,64
138960,note_on,,,,,0,0,2,,,1,,,55,122
138960,note_on,,,,,0,0,2,,,1,,,49,121
138960,note_on,,,,,0,0,2,,,1,,,44,121
138960,note_on,,,,,0,0,1,,,0,,,64,120
138960,note_on,,,,,0,0,1,,,0,,,61,118
138960,note_on,,,,,0,0,1,,,0,,,70,126
138960,note_on,,,,,8,0,2,,,1,,,52,124
138960,note_on,,,,,7,0,1,,,0,,,58,125
139031,note_off,,,,,71,0,2,,,1,,,55,64
139032,note_off,,,,,1,0,2,,,1,,,52,64
139032,note_off,,,,,72,0,1,,,0,,,61,64
139033,note_off,,,,,1,0,2,,,1,,,49,64
139033,note_off,,,,,1,0,1,,,0,,,64,64
139040,note_on,,,,,0,0,2,,,1,,,55,118
139040,note_on,,,,,0,0,2,,,1,,,49,120
139040,note_on,,,,,7,0,2,,,1,,,52,120
139040,note_on,,,,,0,0,1,,,0,,,64,120
139040,note_on,,,,,7,0,1,,,0,,,61,123
139110,note_off,,,,,70,0,2,,,1,,,49,64
139110,note_off,,,,,0,0,2,,,1,,,52,64
139110,note_off,,,,,70,0,1,,,0,,,61,64
139112,note_off,,,,,2,0,1,,,0,,,64,64
139113,note_off,,,,,3,0,2,,,1,,,55,64
139120,note_on,,,,,0,0,1,,,0,,,64,119
139120,note_on,,,,,0,0,2,,,1,,,49,121
139120,note_on,,,,,0,0,2,,,1,,,55,120
139120,note_on,,,,,8,0,1,,,0,,,61,116
139120,note_on,,,,,7,0,2,,,1,,,52,117
139190,note_off,,,,,70,0,1,,,0,,,70,64
139191,note_off,,,,,71,0,2,,,1,,,55,64
139193,note_off,,,,,0,0,1,,,0,,,61,64
139193,note_off,,,,,0,0,1,,,0,,,58,64
139193,note_off,,,,,3,0,1,,,0,,,64,64
139193,note_off,,,,,2,0,2,,,1,,,49,64
139193,note_off,,,,,0,0,2,,,1,,,44,64
139194,note_off,,,,,1,0,2,,,1,,,52,64
139200,control_change,,,,,0,0,1,,,0,7,100,,
139200,note_on,,,,,0,0,1,,,0,,,56,117
139200,note_on,,,,,0,0,1,,,0,,,63,117
139200,note_on,,,,,0,0,1,,,0,,,68,116
139200,note_on,,,,,0,0,2,,,1,,,32,115
139200,note_on,,,,,0,0,2,,,1,,,44,112
139200,control_change,,,,,6,0,2,,,1,7,100,,
139200,note_on,,,,,7,0,1,,,0,,,60,116
139247,control_change,,,,,47,0,2,,,1,7,99,,
139247,control_change,,,,,47,0,1,,,0,7,99,,
139271,note_off,,,,,24,0,1,,,0,,,63,64
139274,note_off,,,,,3,0,1,,,0,,,60,64
139280,note_on,,,,,33,0,2,,,1,,,51,112
139280,note_on,,,,,0,0,1,,,0,,,63,112
139280,note_on,,,,,0,0,2,,,1,,,56,111
139280,note_on,,,,,6,0,1,,,0,,,60,109
139280,note_on,,,,,0,0,2,,,1,,,48,106
139295,control_change,,,,,15,0,2,,,1,7,98,,
139295,control_change,,,,,15,0,1,,,0,7,98,,
139343,control_change,,,,,48,0,1,,,0,7,97,,
139343,control_change,,,,,48,0,2,,,1,7,97,,
139351,note_off,,,,,8,0,2,,,1,,,51,64
139352,note_off,,,,,9,0,1,,,0,,,60,64
139353,note_off,,,,,1,0,1,,,0,,,63,64
139353,note_off,,,,,2,0,2,,,1,,,56,64
139354,note_off,,,,,1,0,2,,,1,,,48,64
139360,note_on,,,,,7,0,1,,,0,,,60,110
139360,note_on,,,,,0,0,1,,,0,,,63,110
139360,note_on,,,,,6,0,2,,,1,,,51,111
139360,note_on,,,,,0,0,2,,,1,,,48,113
139360,note_on,,,,,0,0,2,,,1,,,56,106
139391,control_change,,,,,31,0,2,,,1,7,96,,
139391,control_change,,,,,31,0,1,,,0,7,96,,
139431,note_off,,,,,40,0,2,,,1,,,48,64
139432,note_off,,,,,1,0,2,,,1,,,44,64
139432,note_off,,,,,41,0,1,,,0,,,60,64
139433,note_off,,,,,1,0,2,,,1,,,56,64
139433,note_off,,,,,1,0,1,,,0,,,63,64
139433,note_off,,,,,0,0,2,,,1,,,51,64
139433,note_off,,,,,0,0,1,,,0,,,56,64
139433,note_off,,,,,0,0,1,,,0,,,68,64
139434,note_off,,,,,1,0,2,,,1,,,32,64
139439,control_change,,,,,5,0,2,,,1,7,95,,
139439,control_change,,,,,6,0,1,,,0,7,95,,
139440,note_on,,,,,0,0,2,,,1,,,48,107
139440,note_on,,,,,0,0,2,,,1,,,56,109
139440,note_on,,,,,1,0,1,,,0,,,63,113
139440,note_on,,,,,1,0,2,,,1,,,51,107
139440,note_on,,,,,0,0,1,,,0,,,60,106
139487,control_change,,,,,47,0,1,,,0,7,94,,
139487,control_change,,,,,47,0,2,,,1,7,94,,
139510,note_off,,,,,23,0,2,,,1,,,56,64
139510,note_off,,,,,0,0,2,,,1,,,51,64
139511,note_off,,,,,24,0,1,,,0,,,60,64
139511,note_off,,,,,0,0,1,,,0,,,63,64
139512,note_off,,,,,2,0,2,,,1,,,48,64
139520,note_on,,,,,9,0,1,,,0,,,63,108
139520,note_on,,,,,0,0,2,,,1,,,56,111
139520,note_on,,,,,0,0,2,,,1,,,48,106
139520,note_on,,,,,0,0,1,,,0,,,60,110
139520,note_on,,,,,8,0,2,,,1,,,51,108
139535,control_change,,,,,15,0,2,,,1,7,93,,
139535,control_change,,,,,15,0,1,,,0,7,93,,
139583,control_change,,,,,48,0,1,,,0,7,92,,
139583,control_change,,,,,48,0,2,,,1,7,92,,
139590,note_off,,,,,7,0,2,,,1,,,56,64
139591,note_off,,,,,8,0,1,,,0,,,60,64
139592,note_off,,,,,1,0,1,,,0,,,63,64
139593,note_off,,,,,3,0,2,,,1,,,51,64
139594,note_off,,,,,1,0,2,,,1,,,48,64
139600,note_on,,,,,0,0,2,,,1,,,56,108
139600,note_on,,,,,0,0,2,,,1,,,48,112
139600,note_on,,,,,0,0,1,,,0,,,60,108
139600,note_on,,,,,6,0,2,,,1,,,51,107
139600,note_on,,,,,8,0,1,,,0,,,63,112
139631,control_change,,,,,31,0,1,,,0,7,91,,
139631,control_change,,,,,31,0,2,,,1,7,91,,
139670,note_off,,,,,0,0,2,,,1,,,48,64
139670,note_off,,,,,39,0,2,,,1,,,56,64
139671,note_off,,,,,40,0,1,,,0,,,63,64
139672,note_off,,,,,1,0,1,,,0,,,60,64
139674,note_off,,,,,4,0,2,,,1,,,51,64
139679,control_change,,,,,7,0,1,,,0,7,90,,
139679,control_change,,,,,5,0,2,,,1,7,90,,
139680,note_on,,,,,0,0,1,,,0,,,60,114
139680,note_on,,,,,0,0,2,,,1,,,48,112
139680,note_on,,,,,0,0,2,,,1,,,56,114
139680,note_on,,,,,1,0,1,,,0,,,63,114
139680,note_on,,,,,1,0,2,,,1,,,51,111
139727,control_change,,,,,47,0,1,,,0,7,89,,
139727,control_change,,,,,47,0,2,,,1,7,89,,
139750,note_off,,,,,23,0,1,,,0,,,60,64
139753,note_off,,,,,0,0,2,,,1,,,48,64
139753,note_off,,,,,26,0,2,,,1,,,56,64
139753,note_off,,,,,3,0,1,,,0,,,63,64
139753,note_off,,,,,0,0,2,,,1,,,51,64
139760,note_on,,,,,7,0,2,,,1,,,51,111
139760,note_on,,,,,0,0,1,,,0,,,60,109
139760,note_on,,,,,0,0,2,,,1,,,56,114
139760,note_on,,,,,7,0,1,,,0,,,63,111
139760,note_on,,,,,0,0,2,,,1,,,48,112
139775,control_change,,,,,15,0,1,,,0,7,88,,
139775,control_change,,,,,15,0,2,,,1,7,88,,
139823,control_change,,,,,48,0,2,,,1,7,87,,
139823,control_change,,,,,48,0,1,,,0,7,87,,
139830,note_off,,,,,7,0,2,,,1,,,56,64
139834,note_off,,,,,4,0,2,,,1,,,48,64
139834,note_off,,,,,0,0,1,,,0,,,63,64
139834,note_off,,,,,11,0,1,,,0,,,60,64
139834,note_off,,,,,0,0,2,,,1,,,51,64
139840,note_on,,,,,6,0,1,,,0,,,60,112
139840,note_on,,,,,0,0,2,,,1,,,48,109
139840,note_on,,,,,0,0,1,,,0,,,63,113
139840,note_on,,,,,0,0,2,,,1,,,56,111
139840,note_on,,,,,6,0,2,,,1,,,51,113
139871,control_change,,,,,31,0,2,,,1,7,86,,
139871,control_change,,,,,31,0,1,,,0,7,86,,
139911,note_off,,,,,40,0,1,,,0,,,60,64
139911,note_off,,,,,40,0,2,,,1,,,48,64
139912,note_off,,,,,1,0,1,,,0,,,63,64
139914,note_off,,,,,3,0,2,,,1,,,56,64
139914,note_off,,,,,0,0,2,,,1,,,51,64
139919,control_change,,,,,5,0,2,,,1,7,85,,
139919,control_change,,,,,7,0,1,,,0,7,85,,
139920,note_on,,,,,1,0,2,,,1,,,51,114
139920,note_on,,,,,1,0,1,,,0,,,63,109
139920,note_on,,,,,0,0,1,,,0,,,60,113
139920,note_on,,,,,0,0,2,,,1,,,56,107
139920,note_on,,,,,0,0,2,,,1,,,48,106
139967,control_change,,,,,47,0,1,,,0,7,84,,
139967,control_change,,,,,47,0,2,,,1,7,84,,
139992,note_off,,,,,25,0,2,,,1,,,48,64
139994,note_off,,,,,0,0,2,,,1,,,51,64
139994,note_off,,,,,27,0,1,,,0,,,60,64
139994,note_off,,,,,0,0,1,,,0,,,63,64
139994,note_off,,,,,2,0,2,,,1,,,56,64
140000,note_on,,,,,6,0,1,,,0,,,63,109
140000,note_on,,,,,0,0,2,,,1,,,48,107
140000,note_on,,,,,0,0,2,,,1,,,56,110
140000,note_on,,,,,6,0,2,,,1,,,51,108
140000,note_on,,,,,0,0,1,,,0,,,60,107
140015,control_change,,,,,15,0,2,,,1,7,83,,
140015,control_change,,,,,15,0,1,,,0,7,83,,
140063,control_change,,,,,48,0,1,,,0,7,82,,
140063,control_change,,,,,48,0,2,,,1,7,82,,
140070,note_off,,,,,7,0,1,,,0,,,63,64
140071,note_off,,,,,8,0,2,,,1,,,56,64
140071,note_off,,,,,1,0,1,,,0,,,60,64
140073,note_off,,,,,2,0,2,,,1,,,48,64
140074,note_off,,,,,1,0,2,,,1,,,51,64
140080,note_on,,,,,9,0,1,,,0,,,63,114
140080,note_on,,,,,0,0,1,,,0,,,60,111
140080,note_on,,,,,0,0,2,,,1,,,56,109
140080,note_on,,,,,6,0,2,,,1,,,51,112
140080,note_on,,,,,0,0,2,,,1,,,48,108
140111,control_change,,,,,31,0,1,,,0,7,81,,
140111,control_change,,,,,31,0,2,,,1,7,81,,
140150,note_off,,,,,39,0,2,,,1,,,48,64
140150,note_off,,,,,39,0,1,,,0,,,60,64
140152,note_off,,,,,2,0,2,,,1,,,56,64
140153,note_off,,,,,3,0,1,,,0,,,63,64
140153,note_off,,,,,1,0,2,,,1,,,51,64
140159,control_change,,,,,6,0,2,,,1,7,80,,
140159,control_change,,,,,6,0,1,,,0,7,80,,
140160,note_on,,,,,0,0,1,,,0,,,60,71
140160,set_tempo,,,,,14400,1,0,461538,,,,,,
140160,note_on,,,,,0,0,2,,,1,,,51,72
140160,note_on,,,,,0,0,2,,,1,,,48,78
140160,note_on,,,,,1,0,1,,,0,,,63,75
140160,control_change,,,,,1,0,2,,,1,7,100,,
140160,control_change,,,,,0,0,1,,,0,7,100,,
140160,note_on,,,,,0,0,2,,,1,,,56,79
140390,note_off,,,,,230,0,2,,,1,,,56,64
140390,note_off,,,,,0,0,2,,,1,,,51,64
140392,note_off,,,,,232,0,1,,,0,,,60,64
140392,note_off,,,,,0,0,1,,,0,,,63,64
140394,note_off,,,,,4,0,2,,,1,,,48,64
140460,note_on,,,,,68,0,1,,,0,,,68,67
140460,note_on,,,,,66,0,2,,,1,,,56,71
140510,note_off,,,,,50,0,2,,,1,,,56,64
140514,note_off,,,,,54,0,1,,,0,,,68,64
140520,note_on,,,,,10,0,2,,,1,,,56,74
140520,note_on,,,,,6,0,1,,,0,,,68,67
140571,note_off,,,,,51,0,1,,,0,,,68,64
140571,note_off,,,,,51,0,2,,,1,,,56,64
140580,note_on,,,,,9,0,2,,,1,,,58,74
140580,note_on,,,,,9,0,1,,,0,,,70,69
140632,note_off,,,,,52,0,1,,,0,,,70,64
140634,note_off,,,,,54,0,2,,,1,,,58,64
140640,note_on,,,,,8,0,1,,,0,,,72,70
140640,note_on,,,,,6,0,2,,,1,,,60,76
140871,note_off,,,,,231,0,2,,,1,,,60,64
140874,note_off,,,,,234,0,1,,,0,,,72,64
140880,note_on,,,,,9,0,2,,,1,,,58,73
140880,note_on,,,,,6,0,1,,,0,,,70,75
140990,note_off,,,,,110,0,2,,,1,,,58,64
140994,note_off,,,,,114,0,1,,,0,,,70,64
141000,note_on,,,,,10,0,2,,,1,,,56,72
141000,note_on,,,,,6,0,1,,,0,,,68,72
141110,note_off,,,,,110,0,2,,,1,,,56,64
141112,note_off,,,,,112,0,1,,,0,,,68,64
141120,note_on,,,,,8,0,1,,,0,,,67,71
141120,note_on,,,,,10,0,2,,,1,,,55,77
141350,note_off,,,,,230,0,2,,,1,,,55,64
141353,note_off,,,,,233,0,1,,,0,,,67,64
141360,set_tempo,,,,,1200,1,0,600000,,,,,,
141360,note_on,,,,,10,0,2,,,1,,,43,75
141360,note_on,,,,,7,0,1,,,0,,,58,69
141360,note_on,,,,,0,0,1,,,0,,,64,68
141360,note_on,,,,,0,0,1,,,0,,,55,71
141360,note_on,,,,,0,0,2,,,1,,,49,75
141360,note_on,,,,,0,0,2,,,1,,,37,68
141360,note_on,,,,,0,0,2,,,1,,,47,67
141470,note_off,,,,,110,0,1,,,0,,,58,64
141471,note_off,,,,,111,0,2,,,1,,,47,64
141471,note_off,,,,,1,0,1,,,0,,,64,64
141472,note_off,,,,,1,0,1,,,0,,,55,64
141472,note_off,,,,,1,0,2,,,1,,,49,64
141473,note_off,,,,,1,0,2,,,1,,,37,64
141474,note_off,,,,,1,0,2,,,1,,,43,64
141480,end_of_track,,,,,0,1,0,,,,,,,
141480,note_on,,,,,6,0,2,,,1,,,37,74
141480,note_on,,,,,0,0,2,,,1,,,49,67
141480,set_tempo,,,,,120,1,0,461538,,,,,,
141591,note_off,,,,,111,0,2,,,1,,,49,64
141594,note_off,,,,,3,0,2,,,1,,,37,64
141600,note_on,,,,,0,0,2,,,1,,,50,72
141600,note_on,,,,,6,0,2,,,1,,,38,70
141833,note_off,,,,,233,0,2,,,1,,,38,64
141834,note_off,,,,,1,0,2,,,1,,,50,64
141840,note_on,,,,,0,0,2,,,1,,,38,75
141840,note_on,,,,,0,0,2,,,1,,,42,67
141840,note_on,,,,,0,0,1,,,0,,,66,71
141840,note_on,,,,,0,0,1,,,0,,,62,69
141840,note_on,,,,,0,0,1,,,0,,,60,73
141840,note_on,,,,,0,0,2,,,1,,,45,74
141840,note_on,,,,,6,0,2,,,1,,,50,74
141840,note_on,,,,,368,0,1,,,0,,,57,75
141950,note_off,,,,,110,0,2,,,1,,,45,64
141950,note_off,,,,,0,0,2,,,1,,,50,64
141951,note_off,,,,,1,0,2,,,1,,,38,64
141951,note_off,,,,,111,0,1,,,0,,,62,64
141952,note_off,,,,,1,0,1,,,0,,,66,64
141954,note_off,,,,,3,0,2,,,1,,,42,64
141954,note_off,,,,,0,0,1,,,0,,,57,64
141954,note_off,,,,,2,0,1,,,0,,,60,64
142080,note_on,,,,,126,0,1,,,0,,,58,75
142080,note_on,,,,,0,0,1,,,0,,,55,73
142080,note_on,,,,,0,0,1,,,0,,,62,71
142080,note_on,,,,,0,0,1,,,0,,,67,72
142080,note_on,,,,,0,0,2,,,1,,,43,75
142080,note_on,,,,,0,0,2,,,1,,,38,76
142080,note_on,,,,,126,0,2,,,1,,,31,75
142080,note_on,,,,,0,0,2,,,1,,,34,79
142310,note_off,,,,,230,0,1,,,0,,,58,64
142311,note_off,,,,,1,0,1,,,0,,,67,64
142311,note_off,,,,,231,0,2,,,1,,,43,64
142311,note_off,,,,,0,0,2,,,1,,,34,64
142312,note_off,,,,,1,0,2,,,1,,,38,64
142312,note_off,,,,,1,0,1,,,0,,,62,64
142314,end_of_track,,,,,0,1,2,,,,,,,
142314,note_off,,,,,2,0,1,,,0,,,55,64
142314,note_off,,,,,2,0,2,,,1,,,31,64
142314,end_of_track,,,,,0,1,1,,,,,,,
