tick,type,numerator,denominator,clocks_per_click,notated_32nd_notes_per_beat,time,meta,track,tempo,program,channel,control,value,note,velocity
0,control_change,,,,,0,0,1,,,0,0,0,,
0,set_tempo,,,,,0,1,0,500000,,,,,,
0,program_change,,,,,0,0,1,,0,0,,,,
0,time_signature,4,4,24,8,0,1,0,,,,,,,
4,set_tempo,,,,,4,1,0,521739,,,,,,
396,note_on,,,,,396,0,1,,,0,,,39,82
408,control_change,,,,,12,0,1,,,0,64,127,,
436,note_off,,,,,28,0,1,,,0,,,39,64
684,note_on,,,,,248,0,1,,,0,,,61,87
684,note_on,,,,,0,0,1,,,0,,,53,69
686,note_on,,,,,2,0,1,,,0,,,56,68
796,note_off,,,,,110,0,1,,,0,,,56,64
798,note_off,,,,,2,0,1,,,0,,,53,64
1028,note_off,,,,,230,0,1,,,0,,,61,64
1080,note_on,,,,,52,0,1,,,0,,,56,61
1088,note_on,,,,,8,0,1,,,0,,,60,56
1090,note_on,,,,,2,0,1,,,0,,,51,61
1102,note_off,,,,,12,0,1,,,0,,,60,64
1104,note_off,,,,,2,0,1,,,0,,,51,64
1108,note_off,,,,,4,0,1,,,0,,,56,64
1152,note_on,,,,,44,0,1,,,0,,,56,71
1154,note_on,,,,,2,0,1,,,0,,,60,76
1158,note_on,,,,,4,0,1,,,0,,,51,76
1168,control_change,,,,,10,0,1,,,0,64,0,,
1304,control_change,,,,,136,0,1,,,0,64,127,,
1358,note_off,,,,,54,0,1,,,0,,,56,64
1372,note_off,,,,,14,0,1,,,0,,,51,64
1660,note_on,,,,,288,0,1,,,0,,,53,49
1668,note_on,,,,,8,0,1,,,0,,,58,53
1676,note_on,,,,,8,0,1,,,0,,,49,45
1682,note_off,,,,,6,0,1,,,0,,,60,64
1698,control_change,,,,,16,0,1,,,0,64,0,,
1908,control_change,,,,,210,0,1,,,0,64,127,,
1938,note_off,,,,,30,0,1,,,0,,,53,64
1968,note_off,,,,,30,0,1,,,0,,,49,64
2064,note_off,,,,,96,0,1,,,0,,,58,64
2240,control_change,,,,,176,0,1,,,0,64,0,,
2316,note_on,,,,,76,0,1,,,0,,,39,77
2344,control_change,,,,,28,0,1,,,0,64,127,,
2354,note_off,,,,,10,0,1,,,0,,,39,64
2502,note_on,,,,,148,0,1,,,0,,,49,67
2542,note_on,,,,,40,0,1,,,0,,,56,63
2560,note_on,,,,,18,0,1,,,0,,,58,68
2564,note_off,,,,,4,0,1,,,0,,,49,64
2588,note_on,,,,,24,0,1,,,0,,,65,82
2596,note_off,,,,,8,0,1,,,0,,,56,64
2608,note_off,,,,,12,0,1,,,0,,,58,64
2780,note_on,,,,,172,0,1,,,0,,,61,65
2782,note_on,,,,,2,0,1,,,0,,,56,69
2792,note_on,,,,,10,0,1,,,0,,,53,60
2804,note_off,,,,,12,0,1,,,0,,,65,64
2820,control_change,,,,,16,0,1,,,0,64,0,,
2886,note_off,,,,,66,0,1,,,0,,,56,64
2886,control_change,,,,,0,0,1,,,0,64,127,,
2888,note_off,,,,,2,0,1,,,0,,,53,64
3108,note_on,,,,,220,0,1,,,0,,,60,63
3112,note_on,,,,,4,0,1,,,0,,,56,58
3114,note_on,,,,,2,0,1,,,0,,,51,56
3126,note_off,,,,,12,0,1,,,0,,,61,64
3134,note_off,,,,,8,0,1,,,0,,,51,64
3138,note_off,,,,,4,0,1,,,0,,,56,64
3148,note_off,,,,,10,0,1,,,0,,,60,64
3214,note_on,,,,,66,0,1,,,0,,,56,61
3216,control_change,,,,,2,0,1,,,0,64,0,,
3218,note_on,,,,,2,0,1,,,0,,,60,59
3220,note_on,,,,,2,0,1,,,0,,,51,62
3402,control_change,,,,,182,0,1,,,0,64,127,,
3524,note_off,,,,,122,0,1,,,0,,,56,64
3536,note_off,,,,,12,0,1,,,0,,,51,64
3920,note_off,,,,,384,0,1,,,0,,,60,64
3924,note_on,,,,,4,0,1,,,0,,,59,53
3926,note_on,,,,,2,0,1,,,0,,,56,34
3932,note_on,,,,,6,0,1,,,0,,,53,31
3934,note_on,,,,,2,0,1,,,0,,,50,47
3956,control_change,,,,,22,0,1,,,0,64,0,,
4132,control_change,,,,,176,0,1,,,0,64,127,,
4220,note_off,,,,,88,0,1,,,0,,,56,64
4226,note_off,,,,,6,0,1,,,0,,,53,64
4250,note_off,,,,,24,0,1,,,0,,,50,64
4266,note_off,,,,,16,0,1,,,0,,,59,64
4424,control_change,,,,,158,0,1,,,0,64,0,,
4502,note_on,,,,,78,0,1,,,0,,,39,88
4520,control_change,,,,,18,0,1,,,0,64,127,,
4544,note_off,,,,,24,0,1,,,0,,,39,64
4886,note_on,,,,,342,0,1,,,0,,,56,75
4892,note_on,,,,,6,0,1,,,0,,,71,75
4894,note_on,,,,,2,0,1,,,0,,,62,75
4896,note_on,,,,,2,0,1,,,0,,,65,75
5252,note_off,,,,,356,0,1,,,0,,,71,64
5274,note_off,,,,,22,0,1,,,0,,,65,64
5284,note_off,,,,,10,0,1,,,0,,,62,64
5288,note_off,,,,,4,0,1,,,0,,,56,64
5738,control_change,,,,,450,0,1,,,0,64,0,,
5754,note_on,,,,,16,0,1,,,0,,,61,31
5760,note_on,,,,,6,0,1,,,0,,,70,47
5760,note_on,,,,,0,0,1,,,0,,,64,31
5770,note_on,,,,,10,0,1,,,0,,,55,41
5792,note_off,,,,,22,0,1,,,0,,,55,64
5802,control_change,,,,,10,0,1,,,0,64,127,,
5828,note_off,,,,,26,0,1,,,0,,,61,64
5830,note_off,,,,,2,0,1,,,0,,,64,64
5836,note_off,,,,,6,0,1,,,0,,,70,64
5920,note_on,,,,,84,0,1,,,0,,,70,50
5922,note_on,,,,,2,0,1,,,0,,,61,42
5928,note_on,,,,,6,0,1,,,0,,,64,45
5932,note_on,,,,,4,0,1,,,0,,,55,49
5938,control_change,,,,,6,0,1,,,0,64,0,,
5964,control_change,,,,,26,0,1,,,0,64,127,,
5968,note_off,,,,,4,0,1,,,0,,,61,64
5972,note_off,,,,,4,0,1,,,0,,,70,64
5976,note_off,,,,,4,0,1,,,0,,,55,64
6000,note_off,,,,,24,0,1,,,0,,,64,64
6038,note_on,,,,,38,0,1,,,0,,,63,53
6042,note_on,,,,,4,0,1,,,0,,,54,58
6044,note_on,,,,,2,0,1,,,0,,,69,50
6044,note_on,,,,,0,0,1,,,0,,,60,37
6060,note_off,,,,,16,0,1,,,0,,,69,64
6060,note_off,,,,,0,0,1,,,0,,,63,64
6066,note_off,,,,,6,0,1,,,0,,,54,64
6068,note_off,,,,,2,0,1,,,0,,,60,64
6148,note_on,,,,,80,0,1,,,0,,,59,53
6152,note_on,,,,,4,0,1,,,0,,,74,50
6152,note_on,,,,,0,0,1,,,0,,,68,50
6158,note_on,,,,,6,0,1,,,0,,,65,25
6166,note_off,,,,,8,0,1,,,0,,,59,64
6174,note_off,,,,,8,0,1,,,0,,,65,64
6182,note_off,,,,,8,0,1,,,0,,,68,64
6182,note_off,,,,,0,0,1,,,0,,,74,64
6214,control_change,,,,,32,0,1,,,0,64,0,,
6218,control_change,,,,,4,0,1,,,0,64,127,,
6236,note_on,,,,,18,0,1,,,0,,,74,49
6240,note_on,,,,,4,0,1,,,0,,,68,50
6246,note_on,,,,,6,0,1,,,0,,,59,51
6256,note_on,,,,,10,0,1,,,0,,,65,35
6272,note_off,,,,,16,0,1,,,0,,,65,64
6282,note_off,,,,,10,0,1,,,0,,,59,64
6290,note_off,,,,,8,0,1,,,0,,,74,64
6292,note_off,,,,,2,0,1,,,0,,,68,64
6304,control_change,,,,,12,0,1,,,0,64,0,,
6314,control_change,,,,,10,0,1,,,0,64,127,,
6322,note_on,,,,,8,0,1,,,0,,,67,57
6326,note_on,,,,,4,0,1,,,0,,,58,67
6328,note_on,,,,,2,0,1,,,0,,,73,56
6332,note_on,,,,,4,0,1,,,0,,,64,63
6336,note_off,,,,,4,0,1,,,0,,,67,64
6344,note_off,,,,,8,0,1,,,0,,,73,64
6352,note_off,,,,,8,0,1,,,0,,,64,64
6354,note_off,,,,,2,0,1,,,0,,,58,64
6378,control_change,,,,,24,0,1,,,0,64,0,,
6414,control_change,,,,,36,0,1,,,0,64,127,,
6420,note_on,,,,,6,0,1,,,0,,,78,62
6420,note_on,,,,,0,0,1,,,0,,,72,54
6420,note_on,,,,,0,0,1,,,0,,,63,61
6426,note_on,,,,,6,0,1,,,0,,,69,46
6436,note_off,,,,,10,0,1,,,0,,,78,64
6454,note_off,,,,,18,0,1,,,0,,,72,64
6458,note_off,,,,,4,0,1,,,0,,,63,64
6462,note_off,,,,,4,0,1,,,0,,,69,64
6482,control_change,,,,,20,0,1,,,0,64,0,,
6512,note_on,,,,,30,0,1,,,0,,,78,62
6516,note_on,,,,,4,0,1,,,0,,,72,60
6516,note_on,,,,,0,0,1,,,0,,,63,57
6520,control_change,,,,,4,0,1,,,0,64,127,,
6522,note_on,,,,,2,0,1,,,0,,,69,65
6560,note_off,,,,,38,0,1,,,0,,,69,64
6576,note_off,,,,,16,0,1,,,0,,,78,64
6582,note_off,,,,,6,0,1,,,0,,,63,64
6608,control_change,,,,,26,0,1,,,0,64,0,,
6612,note_off,,,,,4,0,1,,,0,,,72,64
6618,note_on,,,,,6,0,1,,,0,,,68,63
6620,note_on,,,,,2,0,1,,,0,,,77,51
6624,note_on,,,,,4,0,1,,,0,,,71,59
6628,note_on,,,,,4,0,1,,,0,,,62,53
6640,control_change,,,,,12,0,1,,,0,64,127,,
6642,note_off,,,,,2,0,1,,,0,,,62,64
6650,note_off,,,,,8,0,1,,,0,,,71,64
6658,note_off,,,,,8,0,1,,,0,,,68,64
6660,note_off,,,,,2,0,1,,,0,,,77,64
6736,control_change,,,,,76,0,1,,,0,64,0,,
6736,note_on,,,,,0,0,1,,,0,,,82,62
6740,note_on,,,,,4,0,1,,,0,,,76,49
6744,note_on,,,,,4,0,1,,,0,,,73,52
6748,note_on,,,,,4,0,1,,,0,,,67,34
6776,control_change,,,,,28,0,1,,,0,64,127,,
6788,note_off,,,,,12,0,1,,,0,,,76,64
6792,note_off,,,,,4,0,1,,,0,,,82,64
6796,note_off,,,,,4,0,1,,,0,,,73,64
6804,note_off,,,,,8,0,1,,,0,,,67,64
6870,note_on,,,,,66,0,1,,,0,,,73,47
6870,note_on,,,,,0,0,1,,,0,,,67,51
6874,note_on,,,,,4,0,1,,,0,,,82,61
6876,control_change,,,,,2,0,1,,,0,64,0,,
6880,note_on,,,,,4,0,1,,,0,,,76,50
6908,control_change,,,,,28,0,1,,,0,64,127,,
6922,note_off,,,,,14,0,1,,,0,,,73,64
6932,note_off,,,,,10,0,1,,,0,,,67,64
6954,note_off,,,,,22,0,1,,,0,,,76,64
6964,note_off,,,,,10,0,1,,,0,,,82,64
7016,control_change,,,,,52,0,1,,,0,64,0,,
7022,note_on,,,,,6,0,1,,,0,,,66,59
7032,note_on,,,,,10,0,1,,,0,,,81,60
7034,note_on,,,,,2,0,1,,,0,,,72,56
7038,note_on,,,,,4,0,1,,,0,,,75,47
7058,control_change,,,,,20,0,1,,,0,64,127,,
7072,note_off,,,,,14,0,1,,,0,,,75,64
7074,note_off,,,,,2,0,1,,,0,,,66,64
7076,note_off,,,,,2,0,1,,,0,,,72,64
7080,note_off,,,,,4,0,1,,,0,,,81,64
7224,control_change,,,,,0,0,1,,,0,64,0,,
7224,note_on,,,,,144,0,1,,,0,,,71,63
7226,note_on,,,,,2,0,1,,,0,,,80,56
7228,note_on,,,,,2,0,1,,,0,,,86,57
7232,note_on,,,,,4,0,1,,,0,,,77,48
7282,control_change,,,,,50,0,1,,,0,64,127,,
7290,note_off,,,,,8,0,1,,,0,,,77,64
7304,note_off,,,,,14,0,1,,,0,,,71,64
7328,note_off,,,,,24,0,1,,,0,,,80,64
7338,note_off,,,,,10,0,1,,,0,,,86,64
7528,note_on,,,,,190,0,1,,,0,,,80,53
7532,note_on,,,,,4,0,1,,,0,,,86,46
7538,note_on,,,,,6,0,1,,,0,,,71,35
7544,note_on,,,,,6,0,1,,,0,,,77,36
7562,control_change,,,,,18,0,1,,,0,64,0,,
7646,control_change,,,,,84,0,1,,,0,64,127,,
7702,note_off,,,,,56,0,1,,,0,,,77,64
7732,note_off,,,,,30,0,1,,,0,,,71,64
7934,note_on,,,,,202,0,1,,,0,,,39,72
7942,control_change,,,,,8,0,1,,,0,64,0,,
7970,note_off,,,,,28,0,1,,,0,,,86,64
7974,note_off,,,,,4,0,1,,,0,,,80,64
8020,control_change,,,,,46,0,1,,,0,64,127,,
8050,note_off,,,,,30,0,1,,,0,,,39,64
8272,note_on,,,,,222,0,1,,,0,,,51,67
8338,note_on,,,,,66,0,1,,,0,,,58,61
8340,note_off,,,,,2,0,1,,,0,,,51,64
8376,note_on,,,,,36,0,1,,,0,,,61,57
8388,note_off,,,,,12,0,1,,,0,,,58,64
8434,note_on,,,,,46,0,1,,,0,,,67,59
8440,note_off,,,,,6,0,1,,,0,,,61,64
8464,note_off,,,,,24,0,1,,,0,,,67,64
8482,note_on,,,,,18,0,1,,,0,,,73,56
8540,note_off,,,,,58,0,1,,,0,,,73,64
8540,note_on,,,,,0,0,1,,,0,,,79,44
8596,note_off,,,,,56,0,1,,,0,,,79,64
8600,note_on,,,,,4,0,1,,,0,,,82,52
8626,note_off,,,,,26,0,1,,,0,,,82,64
8786,note_on,,,,,160,0,1,,,0,,,89,71
8936,note_off,,,,,150,0,1,,,0,,,89,64
9252,note_on,,,,,316,0,1,,,0,,,82,39
9256,note_on,,,,,4,0,1,,,0,,,88,43
9256,note_on,,,,,0,0,1,,,0,,,73,52
9260,note_on,,,,,4,0,1,,,0,,,79,47
9288,note_off,,,,,28,0,1,,,0,,,79,64
9288,note_off,,,,,0,0,1,,,0,,,73,64
9308,note_off,,,,,20,0,1,,,0,,,88,64
9312,note_off,,,,,4,0,1,,,0,,,82,64
9420,note_on,,,,,108,0,1,,,0,,,82,43
9424,note_on,,,,,0,0,1,,,0,,,79,48
9424,note_on,,,,,4,0,1,,,0,,,88,43
9428,note_on,,,,,4,0,1,,,0,,,73,42
9472,note_off,,,,,44,0,1,,,0,,,79,64
9480,note_off,,,,,8,0,1,,,0,,,73,64
9484,note_off,,,,,4,0,1,,,0,,,88,64
9522,note_off,,,,,38,0,1,,,0,,,82,64
9528,note_on,,,,,6,0,1,,,0,,,78,53
9532,note_on,,,,,4,0,1,,,0,,,87,59
9544,note_on,,,,,12,0,1,,,0,,,72,53
9552,note_off,,,,,8,0,1,,,0,,,87,64
9562,note_off,,,,,10,0,1,,,0,,,78,64
9578,note_off,,,,,16,0,1,,,0,,,72,64
9620,note_on,,,,,42,0,1,,,0,,,92,61
9628,note_on,,,,,8,0,1,,,0,,,77,55
9628,note_on,,,,,0,0,1,,,0,,,71,60
9632,note_on,,,,,4,0,1,,,0,,,86,42
9644,note_off,,,,,12,0,1,,,0,,,71,64
9648,note_off,,,,,4,0,1,,,0,,,77,64
9652,note_off,,,,,4,0,1,,,0,,,86,64
9656,note_off,,,,,4,0,1,,,0,,,92,64
9712,note_on,,,,,56,0,1,,,0,,,92,66
9720,note_on,,,,,0,0,1,,,0,,,71,62
9720,note_on,,,,,8,0,1,,,0,,,86,61
9722,note_on,,,,,2,0,1,,,0,,,77,44
9724,set_tempo,,,,,9720,1,0,517241,,,,,,
9756,set_tempo,,,,,32,1,0,512821,,,,,,
9756,note_off,,,,,34,0,1,,,0,,,77,64
9760,note_off,,,,,4,0,1,,,0,,,71,64
9778,note_off,,,,,18,0,1,,,0,,,86,64
9784,set_tempo,,,,,28,1,0,508475,,,,,,
9786,note_off,,,,,8,0,1,,,0,,,92,64
9812,note_on,,,,,26,0,1,,,0,,,85,63
9812,note_on,,,,,0,0,1,,,0,,,76,56
9814,note_on,,,,,2,0,1,,,0,,,70,58
9816,set_tempo,,,,,32,1,0,504202,,,,,,
9820,note_on,,,,,6,0,1,,,0,,,91,55
9832,note_off,,,,,12,0,1,,,0,,,85,64
9840,note_off,,,,,8,0,1,,,0,,,91,64
9842,note_off,,,,,2,0,1,,,0,,,76,64
9848,note_off,,,,,6,0,1,,,0,,,70,64
9848,set_tempo,,,,,32,1,0,500000,,,,,,
9876,set_tempo,,,,,28,1,0,495868,,,,,,
9908,set_tempo,,,,,32,1,0,491803,,,,,,
9916,note_on,,,,,68,0,1,,,0,,,90,62
9918,note_on,,,,,2,0,1,,,0,,,96,67
9920,note_on,,,,,2,0,1,,,0,,,75,56
9920,note_on,,,,,0,0,1,,,0,,,69,57
9936,note_off,,,,,16,0,1,,,0,,,69,64
9940,set_tempo,,,,,32,1,0,487805,,,,,,
9946,note_off,,,,,10,0,1,,,0,,,75,64
9950,note_off,,,,,4,0,1,,,0,,,96,64
9952,note_off,,,,,2,0,1,,,0,,,90,64
9968,set_tempo,,,,,28,1,0,483871,,,,,,
10000,set_tempo,,,,,32,1,0,480000,,,,,,
10020,control_change,,,,,68,0,1,,,0,64,0,,
10032,set_tempo,,,,,32,1,0,476190,,,,,,
10040,note_on,,,,,20,0,1,,,0,,,90,69
10040,note_on,,,,,0,0,1,,,0,,,75,58
10042,note_on,,,,,2,0,1,,,0,,,96,67
10044,note_on,,,,,2,0,1,,,0,,,69,62
10060,set_tempo,,,,,28,1,0,472441,,,,,,
10066,control_change,,,,,22,0,1,,,0,64,127,,
10096,set_tempo,,,,,36,1,0,476190,,,,,,
10096,note_off,,,,,30,0,1,,,0,,,69,64
10102,note_off,,,,,6,0,1,,,0,,,75,64
10116,set_tempo,,,,,20,1,0,480000,,,,,,
10136,set_tempo,,,,,20,1,0,483871,,,,,,
10136,note_off,,,,,34,0,1,,,0,,,96,64
10156,set_tempo,,,,,20,1,0,487805,,,,,,
10166,note_on,,,,,30,0,1,,,0,,,68,62
10168,note_on,,,,,2,0,1,,,0,,,89,61
10170,note_on,,,,,2,0,1,,,0,,,74,54
10176,note_on,,,,,6,0,1,,,0,,,95,62
10176,set_tempo,,,,,20,1,0,491803,,,,,,
10184,note_off,,,,,8,0,1,,,0,,,90,64
10196,set_tempo,,,,,20,1,0,495868,,,,,,
10200,note_off,,,,,16,0,1,,,0,,,74,64
10202,note_off,,,,,2,0,1,,,0,,,89,64
10216,note_off,,,,,14,0,1,,,0,,,68,64
10220,note_off,,,,,4,0,1,,,0,,,95,64
10220,set_tempo,,,,,24,1,0,500000,,,,,,
10240,set_tempo,,,,,20,1,0,504202,,,,,,
10260,set_tempo,,,,,20,1,0,508475,,,,,,
10280,set_tempo,,,,,20,1,0,512821,,,,,,
10300,set_tempo,,,,,20,1,0,517241,,,,,,
10304,control_change,,,,,84,0,1,,,0,64,0,,
10316,note_on,,,,,12,0,1,,,0,,,100,76
10320,note_on,,,,,0,0,1,,,0,,,73,61
10320,set_tempo,,,,,20,1,0,521739,,,,,,
10320,note_on,,,,,4,0,1,,,0,,,94,76
10326,note_on,,,,,6,0,1,,,0,,,67,53
10342,control_change,,,,,16,0,1,,,0,64,127,,
10362,note_off,,,,,0,0,1,,,0,,,73,64
10362,note_off,,,,,20,0,1,,,0,,,67,64
10364,note_off,,,,,2,0,1,,,0,,,100,64
10368,note_off,,,,,4,0,1,,,0,,,94,64
10518,note_on,,,,,150,0,1,,,0,,,94,46
10520,note_on,,,,,2,0,1,,,0,,,100,46
10524,note_on,,,,,4,0,1,,,0,,,73,46
10528,note_on,,,,,4,0,1,,,0,,,67,46
10556,control_change,,,,,28,0,1,,,0,64,0,,
10676,control_change,,,,,120,0,1,,,0,64,127,,
10708,note_off,,,,,32,0,1,,,0,,,73,64
10738,note_off,,,,,30,0,1,,,0,,,67,64
10876,note_off,,,,,138,0,1,,,0,,,100,64
10878,note_on,,,,,2,0,1,,,0,,,99,77
10884,note_on,,,,,6,0,1,,,0,,,93,65
10884,note_on,,,,,0,0,1,,,0,,,66,48
10884,note_on,,,,,0,0,1,,,0,,,72,54
10900,note_off,,,,,16,0,1,,,0,,,94,64
10904,control_change,,,,,4,0,1,,,0,64,0,,
10916,control_change,,,,,12,0,1,,,0,64,127,,
10924,note_off,,,,,8,0,1,,,0,,,66,64
10952,note_off,,,,,28,0,1,,,0,,,72,64
10960,note_off,,,,,8,0,1,,,0,,,99,64
10980,note_off,,,,,20,0,1,,,0,,,93,64
11040,note_on,,,,,60,0,1,,,0,,,98,76
11044,note_on,,,,,4,0,1,,,0,,,92,65
11046,note_on,,,,,0,0,1,,,0,,,71,61
11046,note_on,,,,,2,0,1,,,0,,,77,59
11074,note_off,,,,,28,0,1,,,0,,,92,64
11092,note_off,,,,,18,0,1,,,0,,,77,64
11112,note_off,,,,,20,0,1,,,0,,,71,64
11138,note_off,,,,,26,0,1,,,0,,,98,64
11182,note_on,,,,,44,0,1,,,0,,,76,54
11184,note_on,,,,,2,0,1,,,0,,,97,69
11188,note_on,,,,,4,0,1,,,0,,,91,51
11188,note_on,,,,,0,0,1,,,0,,,70,60
11218,note_off,,,,,30,0,1,,,0,,,76,64
11220,note_off,,,,,2,0,1,,,0,,,70,64
11244,note_off,,,,,24,0,1,,,0,,,97,64
11254,note_off,,,,,10,0,1,,,0,,,91,64
11300,note_on,,,,,46,0,1,,,0,,,81,66
11302,note_on,,,,,2,0,1,,,0,,,75,67
11308,note_on,,,,,0,0,1,,,0,,,90,57
11308,note_on,,,,,6,0,1,,,0,,,96,66
11350,note_off,,,,,42,0,1,,,0,,,81,64
11356,note_off,,,,,6,0,1,,,0,,,96,64
11364,note_off,,,,,8,0,1,,,0,,,90,64
11364,note_off,,,,,0,0,1,,,0,,,75,64
11410,note_on,,,,,46,0,1,,,0,,,80,71
11416,note_on,,,,,6,0,1,,,0,,,89,57
11418,note_on,,,,,0,0,1,,,0,,,74,54
11418,note_on,,,,,2,0,1,,,0,,,95,58
11436,note_off,,,,,18,0,1,,,0,,,74,64
11452,note_off,,,,,16,0,1,,,0,,,80,64
11486,note_off,,,,,34,0,1,,,0,,,95,64
11530,note_on,,,,,44,0,1,,,0,,,85,81
11532,note_on,,,,,2,0,1,,,0,,,94,71
11536,note_on,,,,,0,0,1,,,0,,,79,72
11536,note_on,,,,,4,0,1,,,0,,,88,59
11540,note_off,,,,,4,0,1,,,0,,,89,64
11570,note_off,,,,,30,0,1,,,0,,,79,64
11580,note_off,,,,,10,0,1,,,0,,,85,64
11588,note_off,,,,,8,0,1,,,0,,,94,64
11590,note_off,,,,,2,0,1,,,0,,,88,64
11636,set_tempo,,,,,1316,1,0,517241,,,,,,
11640,set_tempo,,,,,4,1,0,512821,,,,,,
11648,note_on,,,,,58,0,1,,,0,,,84,76
11648,set_tempo,,,,,8,1,0,508475,,,,,,
11650,note_on,,,,,2,0,1,,,0,,,78,61
11652,note_on,,,,,2,0,1,,,0,,,93,63
11652,set_tempo,,,,,4,1,0,504202,,,,,,
11656,note_on,,,,,4,0,1,,,0,,,87,66
11660,set_tempo,,,,,8,1,0,500000,,,,,,
11664,set_tempo,,,,,4,1,0,495868,,,,,,
11672,set_tempo,,,,,8,1,0,491803,,,,,,
11676,set_tempo,,,,,4,1,0,487805,,,,,,
11684,set_tempo,,,,,8,1,0,483871,,,,,,
11688,set_tempo,,,,,4,1,0,480000,,,,,,
11692,set_tempo,,,,,4,1,0,476190,,,,,,
11696,note_off,,,,,40,0,1,,,0,,,84,64
11700,note_off,,,,,0,0,1,,,0,,,78,64
11700,note_off,,,,,4,0,1,,,0,,,93,64
11728,note_off,,,,,28,0,1,,,0,,,87,64
11750,note_on,,,,,22,0,1,,,0,,,83,54
11754,note_on,,,,,4,0,1,,,0,,,92,68
11756,note_on,,,,,2,0,1,,,0,,,86,67
11760,note_on,,,,,4,0,1,,,0,,,77,53
11796,note_off,,,,,0,0,1,,,0,,,83,64
11796,note_off,,,,,36,0,1,,,0,,,77,64
11804,note_off,,,,,8,0,1,,,0,,,86,64
11806,note_off,,,,,2,0,1,,,0,,,92,64
11852,note_on,,,,,46,0,1,,,0,,,76,49
11854,note_on,,,,,0,0,1,,,0,,,82,47
11854,note_on,,,,,2,0,1,,,0,,,91,60
11858,note_on,,,,,4,0,1,,,0,,,85,63
11888,note_off,,,,,30,0,1,,,0,,,76,64
11892,note_off,,,,,4,0,1,,,0,,,85,64
11902,note_off,,,,,10,0,1,,,0,,,82,64
11902,note_off,,,,,0,0,1,,,0,,,91,64
11948,note_on,,,,,46,0,1,,,0,,,90,66
11952,note_on,,,,,4,0,1,,,0,,,81,63
11954,note_on,,,,,2,0,1,,,0,,,84,62
11956,note_on,,,,,2,0,1,,,0,,,75,63
11992,note_off,,,,,36,0,1,,,0,,,81,64
12008,note_off,,,,,16,0,1,,,0,,,90,64
12010,note_off,,,,,2,0,1,,,0,,,75,64
12016,set_tempo,,,,,324,1,0,480000,,,,,,
12020,note_off,,,,,10,0,1,,,0,,,84,64
12048,note_on,,,,,28,0,1,,,0,,,89,67
12054,note_on,,,,,0,0,1,,,0,,,74,63
12054,note_on,,,,,6,0,1,,,0,,,80,56
12056,note_on,,,,,2,0,1,,,0,,,83,59
12090,note_off,,,,,34,0,1,,,0,,,74,64
12096,note_off,,,,,6,0,1,,,0,,,83,64
12104,note_off,,,,,8,0,1,,,0,,,80,64
12112,set_tempo,,,,,96,1,0,483871,,,,,,
12138,control_change,,,,,34,0,1,,,0,64,0,,
12150,note_off,,,,,12,0,1,,,0,,,89,64
12156,note_on,,,,,0,0,1,,,0,,,82,62
12156,note_on,,,,,0,0,1,,,0,,,73,70
12156,note_on,,,,,6,0,1,,,0,,,88,66
12162,note_on,,,,,6,0,1,,,0,,,79,66
12168,control_change,,,,,6,0,1,,,0,64,127,,
12194,note_off,,,,,26,0,1,,,0,,,79,64
12204,set_tempo,,,,,92,1,0,487805,,,,,,
12210,note_off,,,,,16,0,1,,,0,,,73,64
12222,note_off,,,,,12,0,1,,,0,,,88,64
12262,note_on,,,,,40,0,1,,,0,,,78,21
12268,note_on,,,,,6,0,1,,,0,,,87,53
12274,note_on,,,,,6,0,1,,,0,,,72,62
12276,note_on,,,,,2,0,1,,,0,,,81,70
12296,note_off,,,,,20,0,1,,,0,,,82,64
12300,set_tempo,,,,,96,1,0,491803,,,,,,
12312,note_off,,,,,16,0,1,,,0,,,72,64
12316,note_off,,,,,4,0,1,,,0,,,78,64
12340,note_off,,,,,24,0,1,,,0,,,87,64
12350,note_off,,,,,10,0,1,,,0,,,81,64
12390,note_on,,,,,40,0,1,,,0,,,86,70
12390,note_on,,,,,0,0,1,,,0,,,77,59
12392,set_tempo,,,,,92,1,0,495868,,,,,,
12392,note_on,,,,,2,0,1,,,0,,,71,64
12398,note_on,,,,,6,0,1,,,0,,,80,60
12430,note_off,,,,,32,0,1,,,0,,,77,64
12436,note_off,,,,,6,0,1,,,0,,,71,64
12488,set_tempo,,,,,96,1,0,500000,,,,,,
12494,note_off,,,,,58,0,1,,,0,,,80,64
12502,note_off,,,,,8,0,1,,,0,,,86,64
12514,note_on,,,,,12,0,1,,,0,,,70,74
12516,note_on,,,,,2,0,1,,,0,,,85,69
12516,note_on,,,,,0,0,1,,,0,,,79,60
12518,note_on,,,,,2,0,1,,,0,,,76,56
12524,control_change,,,,,6,0,1,,,0,64,0,,
12532,control_change,,,,,8,0,1,,,0,64,127,,
12548,note_off,,,,,16,0,1,,,0,,,76,64
12568,note_off,,,,,20,0,1,,,0,,,79,64
12580,note_off,,,,,12,0,1,,,0,,,70,64
12580,set_tempo,,,,,92,1,0,504202,,,,,,
12584,note_off,,,,,4,0,1,,,0,,,85,64
12648,control_change,,,,,64,0,1,,,0,64,0,,
12672,note_on,,,,,24,0,1,,,0,,,85,72
12672,note_on,,,,,0,0,1,,,0,,,76,57
12674,note_on,,,,,2,0,1,,,0,,,69,67
12676,note_on,,,,,2,0,1,,,0,,,79,68
12676,set_tempo,,,,,96,1,0,508475,,,,,,
12696,control_change,,,,,20,0,1,,,0,64,127,,
12718,note_off,,,,,22,0,1,,,0,,,76,64
12724,note_off,,,,,6,0,1,,,0,,,69,64
12750,note_off,,,,,26,0,1,,,0,,,79,64
12766,note_off,,,,,16,0,1,,,0,,,85,64
12768,set_tempo,,,,,92,1,0,512821,,,,,,
12854,control_change,,,,,88,0,1,,,0,64,0,,
12860,note_on,,,,,6,0,1,,,0,,,85,59
12862,note_on,,,,,2,0,1,,,0,,,80,60
12862,note_on,,,,,0,0,1,,,0,,,68,62
12864,set_tempo,,,,,96,1,0,517241,,,,,,
12868,note_on,,,,,6,0,1,,,0,,,76,36
12898,control_change,,,,,30,0,1,,,0,64,127,,
12918,note_off,,,,,20,0,1,,,0,,,76,64
12936,note_off,,,,,18,0,1,,,0,,,68,64
12944,note_off,,,,,8,0,1,,,0,,,80,64
12952,note_off,,,,,8,0,1,,,0,,,85,64
12956,set_tempo,,,,,92,1,0,521739,,,,,,
13112,note_on,,,,,160,0,1,,,0,,,85,52
13118,note_on,,,,,0,0,1,,,0,,,67,37
13118,note_on,,,,,6,0,1,,,0,,,81,53
13120,note_on,,,,,2,0,1,,,0,,,76,30
13154,control_change,,,,,34,0,1,,,0,64,0,,
13240,control_change,,,,,86,0,1,,,0,64,127,,
13252,note_off,,,,,12,0,1,,,0,,,81,64
13254,note_off,,,,,0,0,1,,,0,,,67,64
13254,note_off,,,,,2,0,1,,,0,,,76,64
13272,note_off,,,,,18,0,1,,,0,,,85,64
13464,note_on,,,,,192,0,1,,,0,,,85,53
13466,note_on,,,,,0,0,1,,,0,,,66,52
13466,note_on,,,,,2,0,1,,,0,,,82,43
13474,note_on,,,,,8,0,1,,,0,,,76,32
13506,control_change,,,,,32,0,1,,,0,64,0,,
13568,note_off,,,,,62,0,1,,,0,,,85,64
13588,note_on,,,,,20,0,1,,,0,,,87,44
13616,control_change,,,,,28,0,1,,,0,64,127,,
13650,note_off,,,,,34,0,1,,,0,,,87,64
13660,note_on,,,,,10,0,1,,,0,,,85,53
13696,note_off,,,,,36,0,1,,,0,,,82,64
13700,note_off,,,,,4,0,1,,,0,,,85,64
13712,note_on,,,,,12,0,1,,,0,,,87,51
13758,note_off,,,,,46,0,1,,,0,,,87,64
13770,note_on,,,,,12,0,1,,,0,,,85,47
13806,note_off,,,,,36,0,1,,,0,,,85,64
13820,note_on,,,,,14,0,1,,,0,,,87,56
13840,note_off,,,,,20,0,1,,,0,,,87,64
13866,note_on,,,,,26,0,1,,,0,,,85,57
13880,note_off,,,,,14,0,1,,,0,,,85,64
13906,note_on,,,,,26,0,1,,,0,,,87,48
13920,note_off,,,,,14,0,1,,,0,,,87,64
13944,note_on,,,,,24,0,1,,,0,,,85,59
13958,note_off,,,,,14,0,1,,,0,,,85,64
13982,note_on,,,,,24,0,1,,,0,,,87,49
13998,note_off,,,,,16,0,1,,,0,,,87,64
14020,note_on,,,,,22,0,1,,,0,,,85,56
14034,note_off,,,,,14,0,1,,,0,,,85,64
14058,note_on,,,,,24,0,1,,,0,,,87,51
14072,note_off,,,,,14,0,1,,,0,,,87,64
14096,note_on,,,,,24,0,1,,,0,,,85,56
14110,note_off,,,,,14,0,1,,,0,,,85,64
14120,note_on,,,,,10,0,1,,,0,,,87,51
14136,note_off,,,,,16,0,1,,,0,,,87,64
14160,note_on,,,,,24,0,1,,,0,,,85,56
14174,note_off,,,,,14,0,1,,,0,,,85,64
14188,note_on,,,,,14,0,1,,,0,,,87,56
14204,note_off,,,,,16,0,1,,,0,,,87,64
14212,note_off,,,,,8,0,1,,,0,,,76,64
14224,note_on,,,,,12,0,1,,,0,,,85,40
14240,note_off,,,,,16,0,1,,,0,,,85,64
14242,note_off,,,,,2,0,1,,,0,,,66,64
14254,note_on,,,,,12,0,1,,,0,,,87,59
14276,note_off,,,,,22,0,1,,,0,,,87,64
14300,note_on,,,,,24,0,1,,,0,,,85,40
14318,note_off,,,,,18,0,1,,,0,,,85,64
14338,note_on,,,,,20,0,1,,,0,,,87,51
14356,note_off,,,,,18,0,1,,,0,,,87,64
14376,note_on,,,,,20,0,1,,,0,,,85,52
14396,note_off,,,,,20,0,1,,,0,,,85,64
14420,note_on,,,,,24,0,1,,,0,,,87,50
14456,note_off,,,,,36,0,1,,,0,,,87,64
14468,note_on,,,,,12,0,1,,,0,,,85,44
14530,note_off,,,,,62,0,1,,,0,,,85,64
14554,note_on,,,,,24,0,1,,,0,,,84,31
14624,note_off,,,,,70,0,1,,,0,,,84,64
14636,note_on,,,,,12,0,1,,,0,,,85,50
14654,note_off,,,,,18,0,1,,,0,,,85,64
14724,note_on,,,,,70,0,1,,,0,,,81,38
14748,note_off,,,,,24,0,1,,,0,,,81,64
14768,note_on,,,,,20,0,1,,,0,,,82,60
14804,note_off,,,,,36,0,1,,,0,,,82,64
14812,note_on,,,,,8,0,1,,,0,,,83,52
14846,note_on,,,,,34,0,1,,,0,,,84,60
14854,note_off,,,,,8,0,1,,,0,,,83,64
14880,note_on,,,,,26,0,1,,,0,,,85,56
14892,note_off,,,,,12,0,1,,,0,,,84,64
14918,note_off,,,,,26,0,1,,,0,,,85,64
14928,note_on,,,,,10,0,1,,,0,,,86,58
14986,note_on,,,,,58,0,1,,,0,,,61,53
14990,note_on,,,,,4,0,1,,,0,,,70,36
14992,note_on,,,,,2,0,1,,,0,,,80,66
14996,note_on,,,,,4,0,1,,,0,,,87,79
15004,note_off,,,,,8,0,1,,,0,,,86,64
15032,control_change,,,,,28,0,1,,,0,64,0,,
15168,note_on,,,,,136,0,1,,,0,,,88,58
15202,note_off,,,,,34,0,1,,,0,,,87,64
15418,note_off,,,,,216,0,1,,,0,,,88,64
15420,note_on,,,,,2,0,1,,,0,,,87,53
15576,note_on,,,,,156,0,1,,,0,,,90,69
15582,note_off,,,,,6,0,1,,,0,,,87,64
15632,control_change,,,,,50,0,1,,,0,64,127,,
15712,note_off,,,,,80,0,1,,,0,,,80,64
15712,note_on,,,,,0,0,1,,,0,,,88,61
15730,note_off,,,,,18,0,1,,,0,,,90,64
15802,note_off,,,,,72,0,1,,,0,,,88,64
15928,note_on,,,,,126,0,1,,,0,,,88,64
15978,note_off,,,,,50,0,1,,,0,,,88,64
16066,note_on,,,,,88,0,1,,,0,,,88,67
16118,note_off,,,,,52,0,1,,,0,,,88,64
16164,note_on,,,,,46,0,1,,,0,,,88,58
16192,note_off,,,,,28,0,1,,,0,,,61,64
16204,note_off,,,,,12,0,1,,,0,,,70,64
16208,note_off,,,,,4,0,1,,,0,,,88,64
16238,note_on,,,,,30,0,1,,,0,,,88,62
16254,note_off,,,,,16,0,1,,,0,,,88,64
16304,note_on,,,,,50,0,1,,,0,,,88,71
16336,note_off,,,,,32,0,1,,,0,,,88,64
16364,note_on,,,,,28,0,1,,,0,,,88,64
16406,note_off,,,,,42,0,1,,,0,,,88,64
16436,note_on,,,,,30,0,1,,,0,,,88,64
16464,note_off,,,,,28,0,1,,,0,,,88,64
16530,note_on,,,,,66,0,1,,,0,,,88,51
16574,note_off,,,,,44,0,1,,,0,,,88,64
16692,note_on,,,,,118,0,1,,,0,,,88,60
16736,note_off,,,,,44,0,1,,,0,,,88,64
17022,note_on,,,,,286,0,1,,,0,,,88,47
17044,note_off,,,,,22,0,1,,,0,,,88,64
17252,note_on,,,,,208,0,1,,,0,,,63,29
17258,note_on,,,,,6,0,1,,,0,,,88,41
17266,note_on,,,,,0,0,1,,,0,,,70,36
17266,note_on,,,,,8,0,1,,,0,,,73,13
17272,note_on,,,,,6,0,1,,,0,,,79,4
17306,control_change,,,,,34,0,1,,,0,64,0,,
17652,note_off,,,,,346,0,1,,,0,,,79,64
17668,note_on,,,,,16,0,1,,,0,,,89,43
17676,note_off,,,,,8,0,1,,,0,,,88,64
17698,control_change,,,,,22,0,1,,,0,64,127,,
17778,note_off,,,,,80,0,1,,,0,,,73,64
17790,note_off,,,,,12,0,1,,,0,,,70,64
17792,note_off,,,,,2,0,1,,,0,,,89,64
17796,note_off,,,,,4,0,1,,,0,,,63,64
17806,note_on,,,,,10,0,1,,,0,,,84,31
17862,note_off,,,,,56,0,1,,,0,,,84,64
17884,note_on,,,,,22,0,1,,,0,,,85,47
17926,note_off,,,,,42,0,1,,,0,,,85,64
17956,note_on,,,,,30,0,1,,,0,,,81,45
17978,note_off,,,,,22,0,1,,,0,,,81,64
18012,note_on,,,,,34,0,1,,,0,,,82,48
18074,note_on,,,,,62,0,1,,,0,,,78,34
18078,note_off,,,,,4,0,1,,,0,,,82,64
18116,note_off,,,,,38,0,1,,,0,,,78,64
18120,note_on,,,,,4,0,1,,,0,,,79,48
18160,note_off,,,,,40,0,1,,,0,,,79,64
18176,note_on,,,,,16,0,1,,,0,,,76,55
18192,note_off,,,,,16,0,1,,,0,,,76,64
18236,note_on,,,,,44,0,1,,,0,,,77,66
18304,note_off,,,,,68,0,1,,,0,,,77,64
18306,note_on,,,,,2,0,1,,,0,,,72,52
18358,note_off,,,,,52,0,1,,,0,,,72,64
18368,note_on,,,,,10,0,1,,,0,,,73,60
18420,note_off,,,,,52,0,1,,,0,,,73,64
18442,note_on,,,,,22,0,1,,,0,,,69,41
18500,note_off,,,,,58,0,1,,,0,,,69,64
18506,note_on,,,,,6,0,1,,,0,,,70,53
18582,note_on,,,,,76,0,1,,,0,,,66,38
18620,note_off,,,,,38,0,1,,,0,,,70,64
18664,note_on,,,,,44,0,1,,,0,,,67,53
18668,note_off,,,,,4,0,1,,,0,,,66,64
18756,note_on,,,,,88,0,1,,,0,,,64,48
18778,note_off,,,,,22,0,1,,,0,,,67,64
18836,note_off,,,,,58,0,1,,,0,,,64,64
18850,control_change,,,,,14,0,1,,,0,64,0,,
18854,note_on,,,,,4,0,1,,,0,,,65,45
18880,control_change,,,,,26,0,1,,,0,64,127,,
18954,note_off,,,,,74,0,1,,,0,,,65,64
18980,note_on,,,,,26,0,1,,,0,,,62,50
19014,control_change,,,,,34,0,1,,,0,64,0,,
19104,note_on,,,,,90,0,1,,,0,,,63,53
19106,note_off,,,,,2,0,1,,,0,,,62,64
19142,note_off,,,,,36,0,1,,,0,,,63,64
19170,note_on,,,,,28,0,1,,,0,,,62,45
19242,control_change,,,,,72,0,1,,,0,64,127,,
19252,note_off,,,,,10,0,1,,,0,,,62,64
19256,note_on,,,,,4,0,1,,,0,,,63,49
19324,note_off,,,,,68,0,1,,,0,,,63,64
19328,note_on,,,,,4,0,1,,,0,,,65,49
19396,note_off,,,,,68,0,1,,,0,,,65,64
19416,note_on,,,,,20,0,1,,,0,,,63,48
19418,control_change,,,,,2,0,1,,,0,64,0,,
19464,control_change,,,,,46,0,1,,,0,64,127,,
19474,note_off,,,,,10,0,1,,,0,,,63,64
19480,note_on,,,,,6,0,1,,,0,,,65,45
19536,note_off,,,,,56,0,1,,,0,,,65,64
19548,note_on,,,,,12,0,1,,,0,,,63,41
19584,note_off,,,,,36,0,1,,,0,,,63,64
19602,note_on,,,,,18,0,1,,,0,,,65,37
19632,note_off,,,,,30,0,1,,,0,,,65,64
19648,note_on,,,,,16,0,1,,,0,,,63,40
19682,note_off,,,,,34,0,1,,,0,,,63,64
19702,note_on,,,,,20,0,1,,,0,,,65,36
19728,note_off,,,,,26,0,1,,,0,,,65,64
19746,note_on,,,,,18,0,1,,,0,,,63,41
19774,note_off,,,,,28,0,1,,,0,,,63,64
19794,note_on,,,,,20,0,1,,,0,,,65,37
19818,note_off,,,,,24,0,1,,,0,,,65,64
19832,note_on,,,,,14,0,1,,,0,,,63,58
19860,note_off,,,,,28,0,1,,,0,,,63,64
19884,note_on,,,,,24,0,1,,,0,,,65,35
19904,note_off,,,,,20,0,1,,,0,,,65,64
19922,note_on,,,,,18,0,1,,,0,,,63,47
19940,note_off,,,,,18,0,1,,,0,,,63,64
19960,note_on,,,,,20,0,1,,,0,,,65,39
19982,note_off,,,,,22,0,1,,,0,,,65,64
20000,note_on,,,,,18,0,1,,,0,,,63,56
20018,note_off,,,,,18,0,1,,,0,,,63,64
20046,note_on,,,,,28,0,1,,,0,,,65,32
20064,note_off,,,,,18,0,1,,,0,,,65,64
20076,note_on,,,,,12,0,1,,,0,,,63,52
20098,note_off,,,,,22,0,1,,,0,,,63,64
20120,note_on,,,,,22,0,1,,,0,,,65,43
20124,control_change,,,,,4,0,1,,,0,64,0,,
20134,control_change,,,,,10,0,1,,,0,64,127,,
20138,note_off,,,,,4,0,1,,,0,,,65,64
20156,note_on,,,,,18,0,1,,,0,,,63,56
20178,note_off,,,,,22,0,1,,,0,,,63,64
20200,note_on,,,,,22,0,1,,,0,,,65,45
20218,note_off,,,,,18,0,1,,,0,,,65,64
20238,note_on,,,,,20,0,1,,,0,,,63,47
20256,note_off,,,,,18,0,1,,,0,,,63,64
20280,note_on,,,,,24,0,1,,,0,,,65,25
20296,note_off,,,,,16,0,1,,,0,,,65,64
20316,note_on,,,,,20,0,1,,,0,,,63,50
20336,note_off,,,,,20,0,1,,,0,,,63,64
20360,note_on,,,,,24,0,1,,,0,,,65,42
20384,note_off,,,,,24,0,1,,,0,,,65,64
20406,note_on,,,,,22,0,1,,,0,,,63,29
20436,note_off,,,,,30,0,1,,,0,,,63,64
20460,note_on,,,,,24,0,1,,,0,,,65,32
20522,note_on,,,,,0,0,1,,,0,,,63,10
20522,note_off,,,,,62,0,1,,,0,,,65,64
20578,note_off,,,,,56,0,1,,,0,,,63,64
20596,note_on,,,,,18,0,1,,,0,,,65,32
20660,note_off,,,,,64,0,1,,,0,,,65,64
20662,note_on,,,,,2,0,1,,,0,,,63,41
20756,note_off,,,,,94,0,1,,,0,,,63,64
20772,note_on,,,,,16,0,1,,,0,,,62,31
20898,note_off,,,,,126,0,1,,,0,,,62,64
20906,note_on,,,,,8,0,1,,,0,,,63,43
20958,note_off,,,,,52,0,1,,,0,,,63,64
21138,note_on,,,,,180,0,1,,,0,,,73,69
21140,note_on,,,,,2,0,1,,,0,,,63,44
21176,control_change,,,,,36,0,1,,,0,64,0,,
21246,note_off,,,,,70,0,1,,,0,,,63,64
21248,control_change,,,,,2,0,1,,,0,64,127,,
21458,note_on,,,,,210,0,1,,,0,,,63,35
21468,note_on,,,,,10,0,1,,,0,,,56,20
21486,note_off,,,,,18,0,1,,,0,,,73,64
21536,note_off,,,,,50,0,1,,,0,,,63,64
21562,note_on,,,,,26,0,1,,,0,,,72,54
21602,note_off,,,,,40,0,1,,,0,,,72,64
21674,note_off,,,,,72,0,1,,,0,,,56,64
21678,note_on,,,,,4,0,1,,,0,,,72,80
21684,note_on,,,,,6,0,1,,,0,,,53,42
21794,note_off,,,,,110,0,1,,,0,,,53,64
21876,control_change,,,,,82,0,1,,,0,64,0,,
21880,note_on,,,,,4,0,1,,,0,,,62,47
21886,note_on,,,,,6,0,1,,,0,,,44,44
21902,control_change,,,,,16,0,1,,,0,64,127,,
21922,note_off,,,,,20,0,1,,,0,,,44,64
21988,note_off,,,,,66,0,1,,,0,,,62,64
21996,note_off,,,,,8,0,1,,,0,,,72,64
22086,note_on,,,,,90,0,1,,,0,,,71,56
22096,note_on,,,,,10,0,1,,,0,,,62,40
22202,note_off,,,,,106,0,1,,,0,,,71,64
22246,note_off,,,,,44,0,1,,,0,,,62,64
22288,note_on,,,,,42,0,1,,,0,,,56,35
22292,note_on,,,,,4,0,1,,,0,,,77,43
22310,note_off,,,,,18,0,1,,,0,,,77,64
22508,note_off,,,,,198,0,1,,,0,,,56,64
22528,note_on,,,,,20,0,1,,,0,,,61,54
22536,note_on,,,,,8,0,1,,,0,,,51,44
22556,control_change,,,,,20,0,1,,,0,64,0,,
22576,control_change,,,,,20,0,1,,,0,64,127,,
22790,note_on,,,,,214,0,1,,,0,,,63,53
22792,note_on,,,,,2,0,1,,,0,,,44,40
22812,control_change,,,,,20,0,1,,,0,64,0,,
22836,control_change,,,,,24,0,1,,,0,64,127,,
22862,note_off,,,,,26,0,1,,,0,,,44,64
22940,note_off,,,,,78,0,1,,,0,,,51,64
22950,note_off,,,,,10,0,1,,,0,,,61,64
23008,note_on,,,,,0,0,1,,,0,,,61,45
23008,note_off,,,,,58,0,1,,,0,,,63,64
23014,note_on,,,,,6,0,1,,,0,,,72,63
23136,note_off,,,,,122,0,1,,,0,,,61,64
23210,note_on,,,,,74,0,1,,,0,,,61,56
23212,note_on,,,,,2,0,1,,,0,,,55,46
23240,note_off,,,,,28,0,1,,,0,,,72,64
23252,note_off,,,,,12,0,1,,,0,,,61,64
23292,note_on,,,,,40,0,1,,,0,,,70,66
23326,note_off,,,,,34,0,1,,,0,,,70,64
23372,control_change,,,,,46,0,1,,,0,64,0,,
23376,note_off,,,,,4,0,1,,,0,,,55,64
23382,note_on,,,,,6,0,1,,,0,,,51,60
23384,note_on,,,,,2,0,1,,,0,,,70,80
23394,control_change,,,,,10,0,1,,,0,64,127,,
23560,control_change,,,,,166,0,1,,,0,64,0,,
23562,note_on,,,,,0,0,1,,,0,,,44,65
23562,note_on,,,,,2,0,1,,,0,,,60,57
23564,note_off,,,,,2,0,1,,,0,,,51,64
23582,control_change,,,,,18,0,1,,,0,64,127,,
23614,note_off,,,,,32,0,1,,,0,,,44,64
23668,note_off,,,,,0,0,1,,,0,,,70,64
23668,note_off,,,,,54,0,1,,,0,,,60,64
23744,note_on,,,,,0,0,1,,,0,,,60,59
23744,note_on,,,,,76,0,1,,,0,,,68,65
23752,note_on,,,,,8,0,1,,,0,,,63,43
23764,control_change,,,,,12,0,1,,,0,64,0,,
23776,note_off,,,,,12,0,1,,,0,,,63,64
23784,control_change,,,,,8,0,1,,,0,64,127,,
23918,note_off,,,,,134,0,1,,,0,,,60,64
23934,note_on,,,,,16,0,1,,,0,,,75,41
23936,note_on,,,,,2,0,1,,,0,,,51,52
23946,note_off,,,,,10,0,1,,,0,,,68,64
23948,note_off,,,,,2,0,1,,,0,,,75,64
23956,note_off,,,,,8,0,1,,,0,,,51,64
24138,note_on,,,,,182,0,1,,,0,,,41,49
24140,note_on,,,,,2,0,1,,,0,,,56,67
24174,control_change,,,,,34,0,1,,,0,64,0,,
24244,control_change,,,,,70,0,1,,,0,64,127,,
24348,note_on,,,,,104,0,1,,,0,,,59,51
24358,note_on,,,,,10,0,1,,,0,,,50,26
24396,note_off,,,,,38,0,1,,,0,,,59,64
24400,note_off,,,,,4,0,1,,,0,,,50,64
24406,note_off,,,,,6,0,1,,,0,,,41,64
24408,note_off,,,,,2,0,1,,,0,,,56,64
24458,note_on,,,,,50,0,1,,,0,,,59,66
24586,note_on,,,,,128,0,1,,,0,,,67,75
24588,note_on,,,,,2,0,1,,,0,,,38,53
24620,control_change,,,,,32,0,1,,,0,64,0,,
24700,control_change,,,,,80,0,1,,,0,64,127,,
24840,note_on,,,,,140,0,1,,,0,,,47,32
24848,note_on,,,,,8,0,1,,,0,,,56,59
24872,note_off,,,,,24,0,1,,,0,,,38,64
24890,note_off,,,,,18,0,1,,,0,,,47,64
24932,note_off,,,,,42,0,1,,,0,,,67,64
24972,note_off,,,,,40,0,1,,,0,,,59,64
24974,note_on,,,,,2,0,1,,,0,,,65,65
24996,note_off,,,,,22,0,1,,,0,,,56,64
25054,note_off,,,,,58,0,1,,,0,,,65,64
25134,note_on,,,,,80,0,1,,,0,,,39,45
25142,note_on,,,,,8,0,1,,,0,,,65,75
25144,note_on,,,,,2,0,1,,,0,,,61,58
25172,control_change,,,,,28,0,1,,,0,64,0,,
25296,control_change,,,,,124,0,1,,,0,64,127,,
25384,note_on,,,,,88,0,1,,,0,,,46,47
25388,note_on,,,,,4,0,1,,,0,,,55,28
25408,note_off,,,,,20,0,1,,,0,,,61,64
25580,note_on,,,,,0,0,1,,,0,,,61,57
25580,note_off,,,,,172,0,1,,,0,,,46,64
25584,note_on,,,,,4,0,1,,,0,,,51,54
25684,note_off,,,,,100,0,1,,,0,,,55,64
25764,note_on,,,,,0,0,1,,,0,,,63,66
25764,note_off,,,,,80,0,1,,,0,,,65,64
25770,note_off,,,,,6,0,1,,,0,,,39,64
25772,note_on,,,,,2,0,1,,,0,,,46,51
25774,note_off,,,,,2,0,1,,,0,,,61,64
25798,note_off,,,,,24,0,1,,,0,,,63,64
25824,note_off,,,,,26,0,1,,,0,,,51,64
25846,note_on,,,,,22,0,1,,,0,,,63,58
25956,control_change,,,,,110,0,1,,,0,64,0,,
25958,note_on,,,,,2,0,1,,,0,,,39,60
25962,note_on,,,,,4,0,1,,,0,,,72,80
26004,control_change,,,,,42,0,1,,,0,64,127,,
26014,note_off,,,,,10,0,1,,,0,,,63,64
26016,note_off,,,,,2,0,1,,,0,,,46,64
26028,note_off,,,,,12,0,1,,,0,,,39,64
26160,note_off,,,,,132,0,1,,,0,,,72,64
26172,note_on,,,,,12,0,1,,,0,,,61,57
26180,note_on,,,,,8,0,1,,,0,,,51,66
26414,note_off,,,,,234,0,1,,,0,,,51,64
26416,note_on,,,,,2,0,1,,,0,,,63,59
26420,note_on,,,,,4,0,1,,,0,,,55,51
26688,note_on,,,,,268,0,1,,,0,,,51,59
26698,note_off,,,,,10,0,1,,,0,,,55,64
26744,note_on,,,,,46,0,1,,,0,,,70,56
26756,note_off,,,,,12,0,1,,,0,,,51,64
26860,note_off,,,,,104,0,1,,,0,,,63,64
26924,note_on,,,,,64,0,1,,,0,,,68,65
26928,note_off,,,,,4,0,1,,,0,,,61,64
27004,control_change,,,,,76,0,1,,,0,64,0,,
27010,note_off,,,,,6,0,1,,,0,,,70,64
27114,note_on,,,,,104,0,1,,,0,,,51,50
27116,note_on,,,,,2,0,1,,,0,,,63,51
27144,control_change,,,,,28,0,1,,,0,64,127,,
27286,note_off,,,,,142,0,1,,,0,,,51,64
27306,note_on,,,,,0,0,1,,,0,,,44,51
27306,note_off,,,,,20,0,1,,,0,,,63,64
27314,note_on,,,,,8,0,1,,,0,,,60,48
27330,control_change,,,,,16,0,1,,,0,64,0,,
27374,control_change,,,,,44,0,1,,,0,64,127,,
27498,note_on,,,,,124,0,1,,,0,,,51,51
27502,note_on,,,,,4,0,1,,,0,,,63,34
27510,note_off,,,,,8,0,1,,,0,,,60,64
27620,note_off,,,,,110,0,1,,,0,,,44,64
27694,note_off,,,,,74,0,1,,,0,,,63,64
27700,note_off,,,,,6,0,1,,,0,,,51,64
27710,note_on,,,,,10,0,1,,,0,,,56,42
27712,note_on,,,,,2,0,1,,,0,,,60,36
27912,note_off,,,,,200,0,1,,,0,,,56,64
27916,note_on,,,,,4,0,1,,,0,,,51,45
27920,note_on,,,,,4,0,1,,,0,,,63,35
27944,note_off,,,,,24,0,1,,,0,,,60,64
28044,note_on,,,,,100,0,1,,,0,,,56,51
28192,note_on,,,,,148,0,1,,,0,,,61,76
28228,control_change,,,,,36,0,1,,,0,64,0,,
28266,control_change,,,,,38,0,1,,,0,64,127,,
28296,note_off,,,,,30,0,1,,,0,,,63,64
28298,note_off,,,,,2,0,1,,,0,,,56,64
28300,note_off,,,,,2,0,1,,,0,,,51,64
28324,note_off,,,,,24,0,1,,,0,,,68,64
28330,note_off,,,,,6,0,1,,,0,,,61,64
28432,note_on,,,,,102,0,1,,,0,,,51,62
28478,note_off,,,,,46,0,1,,,0,,,51,64
28528,note_on,,,,,50,0,1,,,0,,,60,62
28566,note_off,,,,,38,0,1,,,0,,,60,64
28644,note_on,,,,,78,0,1,,,0,,,60,77
28656,control_change,,,,,12,0,1,,,0,64,0,,
28680,control_change,,,,,24,0,1,,,0,64,127,,
28718,note_off,,,,,38,0,1,,,0,,,60,64
28818,note_on,,,,,100,0,1,,,0,,,44,57
28920,note_on,,,,,102,0,1,,,0,,,50,57
28960,note_on,,,,,40,0,1,,,0,,,53,45
29000,note_on,,,,,40,0,1,,,0,,,59,66
29010,control_change,,,,,10,0,1,,,0,64,0,,
29014,note_off,,,,,4,0,1,,,0,,,50,64
29028,note_off,,,,,14,0,1,,,0,,,53,64
29042,control_change,,,,,14,0,1,,,0,64,127,,
29080,note_off,,,,,38,0,1,,,0,,,44,64
29146,note_off,,,,,66,0,1,,,0,,,59,64
29166,note_on,,,,,20,0,1,,,0,,,65,24
29312,note_off,,,,,146,0,1,,,0,,,65,64
29352,note_on,,,,,40,0,1,,,0,,,59,54
29490,note_off,,,,,138,0,1,,,0,,,59,64
29520,note_on,,,,,30,0,1,,,0,,,53,53
29548,note_off,,,,,28,0,1,,,0,,,53,64
29630,note_on,,,,,82,0,1,,,0,,,49,56
29696,note_on,,,,,66,0,1,,,0,,,55,46
29740,control_change,,,,,44,0,1,,,0,64,0,,
29752,note_on,,,,,12,0,1,,,0,,,60,76
29820,control_change,,,,,68,0,1,,,0,64,127,,
29910,note_off,,,,,90,0,1,,,0,,,60,64
29948,note_off,,,,,38,0,1,,,0,,,55,64
29970,note_on,,,,,22,0,1,,,0,,,51,49
29972,note_off,,,,,2,0,1,,,0,,,49,64
30016,note_off,,,,,44,0,1,,,0,,,51,64
30056,note_on,,,,,40,0,1,,,0,,,58,70
30092,note_off,,,,,36,0,1,,,0,,,58,64
30152,note_on,,,,,60,0,1,,,0,,,58,70
30164,control_change,,,,,12,0,1,,,0,64,0,,
30190,control_change,,,,,26,0,1,,,0,64,127,,
30300,note_off,,,,,110,0,1,,,0,,,58,64
30328,note_on,,,,,28,0,1,,,0,,,44,47
30468,note_on,,,,,140,0,1,,,0,,,48,48
30496,note_on,,,,,28,0,1,,,0,,,51,63
30516,note_on,,,,,20,0,1,,,0,,,56,62
30534,control_change,,,,,18,0,1,,,0,64,0,,
30538,note_off,,,,,4,0,1,,,0,,,48,64
30568,control_change,,,,,30,0,1,,,0,64,127,,
30582,note_off,,,,,14,0,1,,,0,,,51,64
30638,note_off,,,,,56,0,1,,,0,,,44,64
30684,note_off,,,,,46,0,1,,,0,,,56,64
30704,note_on,,,,,20,0,1,,,0,,,63,48
30774,note_off,,,,,70,0,1,,,0,,,63,64
30880,note_on,,,,,106,0,1,,,0,,,56,58
30932,note_off,,,,,52,0,1,,,0,,,56,64
31056,note_on,,,,,124,0,1,,,0,,,51,59
31122,note_off,,,,,66,0,1,,,0,,,51,64
31144,note_on,,,,,22,0,1,,,0,,,47,51
31196,note_on,,,,,52,0,1,,,0,,,50,56
31256,control_change,,,,,60,0,1,,,0,64,0,,
31272,note_on,,,,,16,0,1,,,0,,,55,77
31340,control_change,,,,,68,0,1,,,0,64,127,,
31358,note_off,,,,,18,0,1,,,0,,,47,64
31412,note_off,,,,,54,0,1,,,0,,,55,64
31468,note_off,,,,,56,0,1,,,0,,,50,64
31494,note_on,,,,,26,0,1,,,0,,,44,63
31528,note_off,,,,,34,0,1,,,0,,,44,64
31626,note_on,,,,,98,0,1,,,0,,,53,72
31660,note_off,,,,,34,0,1,,,0,,,53,64
31772,note_on,,,,,112,0,1,,,0,,,53,86
31786,control_change,,,,,14,0,1,,,0,64,0,,
31874,control_change,,,,,88,0,1,,,0,64,127,,
31972,note_on,,,,,98,0,1,,,0,,,43,59
32144,note_on,,,,,172,0,1,,,0,,,51,72
32148,note_off,,,,,4,0,1,,,0,,,43,64
32150,note_on,,,,,2,0,1,,,0,,,48,57
32164,note_off,,,,,14,0,1,,,0,,,53,64
32170,control_change,,,,,6,0,1,,,0,64,0,,
32222,control_change,,,,,52,0,1,,,0,64,127,,
32342,note_on,,,,,120,0,1,,,0,,,43,67
32346,note_off,,,,,4,0,1,,,0,,,48,64
32358,note_off,,,,,12,0,1,,,0,,,51,64
32428,note_on,,,,,70,0,1,,,0,,,51,49
32550,note_on,,,,,122,0,1,,,0,,,56,85
32572,control_change,,,,,22,0,1,,,0,64,0,,
32604,note_off,,,,,32,0,1,,,0,,,43,64
32608,set_tempo,,,,,19652,1,0,517241,,,,,,
32622,control_change,,,,,18,0,1,,,0,64,127,,
32668,set_tempo,,,,,60,1,0,521739,,,,,,
32726,note_off,,,,,104,0,1,,,0,,,56,64
32728,set_tempo,,,,,60,1,0,526316,,,,,,
32732,note_off,,,,,6,0,1,,,0,,,51,64
32778,note_on,,,,,46,0,1,,,0,,,43,57
32788,set_tempo,,,,,60,1,0,530973,,,,,,
32848,set_tempo,,,,,60,1,0,535714,,,,,,
32908,set_tempo,,,,,60,1,0,540541,,,,,,
32968,set_tempo,,,,,60,1,0,545455,,,,,,
32994,note_on,,,,,216,0,1,,,0,,,53,57
33002,note_on,,,,,8,0,1,,,0,,,47,57
33022,note_off,,,,,20,0,1,,,0,,,43,64
33024,control_change,,,,,2,0,1,,,0,64,0,,
33028,set_tempo,,,,,60,1,0,550459,,,,,,
33066,control_change,,,,,42,0,1,,,0,64,127,,
33088,set_tempo,,,,,60,1,0,555556,,,,,,
33094,note_off,,,,,28,0,1,,,0,,,53,64
33104,set_tempo,,,,,16,1,0,550459,,,,,,
33116,set_tempo,,,,,12,1,0,555556,,,,,,
33142,note_on,,,,,48,0,1,,,0,,,43,62
33146,note_off,,,,,4,0,1,,,0,,,47,64
33188,set_tempo,,,,,72,1,0,550459,,,,,,
33256,set_tempo,,,,,68,1,0,545455,,,,,,
33284,note_on,,,,,138,0,1,,,0,,,55,75
33304,control_change,,,,,20,0,1,,,0,64,0,,
33328,set_tempo,,,,,72,1,0,540541,,,,,,
33350,control_change,,,,,46,0,1,,,0,64,127,,
33396,set_tempo,,,,,68,1,0,535714,,,,,,
33398,note_off,,,,,48,0,1,,,0,,,55,64
33400,note_off,,,,,2,0,1,,,0,,,43,64
33468,set_tempo,,,,,72,1,0,530973,,,,,,
33536,set_tempo,,,,,68,1,0,526316,,,,,,
33572,note_on,,,,,172,0,1,,,0,,,55,83
33604,set_tempo,,,,,68,1,0,521739,,,,,,
33610,control_change,,,,,38,0,1,,,0,64,0,,
33680,control_change,,,,,70,0,1,,,0,64,127,,
33704,note_off,,,,,24,0,1,,,0,,,55,64
33838,note_on,,,,,134,0,1,,,0,,,36,54
34038,note_on,,,,,200,0,1,,,0,,,43,49
34208,note_off,,,,,170,0,1,,,0,,,36,64
34216,note_off,,,,,8,0,1,,,0,,,43,64
34222,note_on,,,,,6,0,1,,,0,,,48,61
34356,note_off,,,,,134,0,1,,,0,,,48,64
34402,note_on,,,,,46,0,1,,,0,,,51,68
34588,note_off,,,,,186,0,1,,,0,,,51,64
34592,note_on,,,,,4,0,1,,,0,,,55,51
34684,note_off,,,,,92,0,1,,,0,,,55,64
34694,note_on,,,,,10,0,1,,,0,,,48,61
34798,note_on,,,,,104,0,1,,,0,,,75,69
34800,note_on,,,,,2,0,1,,,0,,,63,44
34812,note_on,,,,,12,0,1,,,0,,,55,48
34818,control_change,,,,,6,0,1,,,0,64,0,,
35034,control_change,,,,,216,0,1,,,0,64,127,,
35042,note_on,,,,,8,0,1,,,0,,,60,51
35058,note_on,,,,,16,0,1,,,0,,,67,45
35064,note_off,,,,,6,0,1,,,0,,,55,64
35064,note_off,,,,,0,0,1,,,0,,,63,64
35106,note_off,,,,,42,0,1,,,0,,,75,64
35110,note_off,,,,,4,0,1,,,0,,,67,64
35132,note_on,,,,,22,0,1,,,0,,,73,68
35168,note_off,,,,,36,0,1,,,0,,,73,64
35224,note_on,,,,,56,0,1,,,0,,,73,79
35398,note_on,,,,,174,0,1,,,0,,,56,50
35408,note_on,,,,,10,0,1,,,0,,,65,42
35420,note_off,,,,,12,0,1,,,0,,,48,64
35422,note_off,,,,,2,0,1,,,0,,,65,64
35424,note_off,,,,,2,0,1,,,0,,,60,64
35436,note_off,,,,,12,0,1,,,0,,,73,64
35494,note_on,,,,,58,0,1,,,0,,,68,40
35572,note_on,,,,,78,0,1,,,0,,,80,77
35578,note_on,,,,,6,0,1,,,0,,,65,62
35706,note_off,,,,,128,0,1,,,0,,,65,64
35732,note_on,,,,,26,0,1,,,0,,,61,59
35740,note_on,,,,,8,0,1,,,0,,,73,54
35748,note_off,,,,,8,0,1,,,0,,,56,64
35752,note_off,,,,,4,0,1,,,0,,,61,64
35760,note_off,,,,,8,0,1,,,0,,,80,64
35904,note_on,,,,,144,0,1,,,0,,,48,69
35908,control_change,,,,,4,0,1,,,0,64,0,,
35936,control_change,,,,,28,0,1,,,0,64,127,,
35992,note_on,,,,,56,0,1,,,0,,,79,79
35998,note_off,,,,,6,0,1,,,0,,,48,64
36004,note_off,,,,,6,0,1,,,0,,,68,64
36010,note_off,,,,,6,0,1,,,0,,,73,64
36078,note_on,,,,,68,0,1,,,0,,,56,61
36082,note_on,,,,,4,0,1,,,0,,,61,51
36120,note_off,,,,,38,0,1,,,0,,,56,64
36136,note_off,,,,,16,0,1,,,0,,,61,64
36174,note_on,,,,,38,0,1,,,0,,,77,65
36180,note_off,,,,,6,0,1,,,0,,,79,64
36274,note_on,,,,,94,0,1,,,0,,,68,47
36286,note_on,,,,,12,0,1,,,0,,,65,47
36328,note_off,,,,,42,0,1,,,0,,,65,64
36344,note_off,,,,,16,0,1,,,0,,,68,64
36372,note_on,,,,,28,0,1,,,0,,,75,57
36392,note_off,,,,,20,0,1,,,0,,,77,64
36472,note_on,,,,,80,0,1,,,0,,,56,53
36492,note_on,,,,,20,0,1,,,0,,,65,44
36512,note_off,,,,,20,0,1,,,0,,,65,64
36544,note_off,,,,,32,0,1,,,0,,,56,64
36564,note_off,,,,,20,0,1,,,0,,,75,64
36572,note_on,,,,,8,0,1,,,0,,,71,60
36588,note_off,,,,,16,0,1,,,0,,,71,64
36642,note_on,,,,,54,0,1,,,0,,,71,75
36814,note_on,,,,,172,0,1,,,0,,,63,36
36816,note_on,,,,,2,0,1,,,0,,,36,42
36824,note_on,,,,,8,0,1,,,0,,,67,49
36842,control_change,,,,,18,0,1,,,0,64,0,,
36926,control_change,,,,,84,0,1,,,0,64,127,,
36932,note_off,,,,,6,0,1,,,0,,,71,64
36964,note_off,,,,,32,0,1,,,0,,,63,64
36976,note_off,,,,,12,0,1,,,0,,,67,64
36980,note_on,,,,,4,0,1,,,0,,,43,53
36982,note_on,,,,,2,0,1,,,0,,,72,64
37008,control_change,,,,,26,0,1,,,0,64,0,,
37032,control_change,,,,,24,0,1,,,0,64,127,,
37150,note_on,,,,,118,0,1,,,0,,,63,57
37160,note_off,,,,,10,0,1,,,0,,,36,64
37162,note_on,,,,,2,0,1,,,0,,,60,36
37164,note_on,,,,,2,0,1,,,0,,,48,50
37168,note_off,,,,,4,0,1,,,0,,,43,64
37314,note_off,,,,,0,0,1,,,0,,,63,64
37314,note_off,,,,,146,0,1,,,0,,,48,64
37318,note_on,,,,,4,0,1,,,0,,,51,67
37338,note_off,,,,,20,0,1,,,0,,,60,64
37490,note_off,,,,,152,0,1,,,0,,,51,64
37498,note_on,,,,,8,0,1,,,0,,,55,54
37500,note_on,,,,,2,0,1,,,0,,,63,56
37510,note_on,,,,,10,0,1,,,0,,,60,38
37546,note_off,,,,,36,0,1,,,0,,,60,64
37548,note_off,,,,,2,0,1,,,0,,,63,64
37562,note_off,,,,,14,0,1,,,0,,,55,64
37588,note_on,,,,,26,0,1,,,0,,,48,43
37616,note_on,,,,,28,0,1,,,0,,,51,51
37658,note_on,,,,,42,0,1,,,0,,,55,63
37702,control_change,,,,,44,0,1,,,0,64,0,,
37742,note_on,,,,,40,0,1,,,0,,,63,85
37774,note_off,,,,,32,0,1,,,0,,,51,64
37800,control_change,,,,,26,0,1,,,0,64,127,,
37872,note_off,,,,,72,0,1,,,0,,,63,64
37932,note_on,,,,,60,0,1,,,0,,,51,60
37950,note_off,,,,,18,0,1,,,0,,,55,64
38046,note_on,,,,,96,0,1,,,0,,,61,69
38094,note_off,,,,,0,0,1,,,0,,,48,64
38094,note_off,,,,,48,0,1,,,0,,,61,64
38104,note_off,,,,,10,0,1,,,0,,,51,64
38180,note_on,,,,,76,0,1,,,0,,,61,79
38200,note_off,,,,,20,0,1,,,0,,,72,64
38260,control_change,,,,,60,0,1,,,0,64,0,,
38368,note_on,,,,,108,0,1,,,0,,,47,54
38398,control_change,,,,,30,0,1,,,0,64,127,,
38552,note_on,,,,,154,0,1,,,0,,,68,62
38558,note_on,,,,,6,0,1,,,0,,,56,45
38566,note_on,,,,,8,0,1,,,0,,,53,51
38568,note_off,,,,,2,0,1,,,0,,,61,64
38592,note_off,,,,,24,0,1,,,0,,,47,64
38630,note_off,,,,,38,0,1,,,0,,,53,64
38664,note_off,,,,,34,0,1,,,0,,,56,64
38740,note_on,,,,,76,0,1,,,0,,,61,51
38810,note_off,,,,,70,0,1,,,0,,,61,64
38932,note_on,,,,,122,0,1,,,0,,,46,47
38958,control_change,,,,,26,0,1,,,0,64,0,,
38976,note_off,,,,,18,0,1,,,0,,,68,64
39040,note_on,,,,,64,0,1,,,0,,,67,51
39136,note_on,,,,,96,0,1,,,0,,,56,35
39136,note_on,,,,,0,0,1,,,0,,,53,50
39144,control_change,,,,,8,0,1,,,0,64,127,,
39206,note_off,,,,,62,0,1,,,0,,,46,64
39236,note_off,,,,,30,0,1,,,0,,,67,64
39242,note_on,,,,,6,0,1,,,0,,,65,60
39270,note_off,,,,,28,0,1,,,0,,,53,64
39304,note_off,,,,,34,0,1,,,0,,,56,64
39362,note_on,,,,,58,0,1,,,0,,,58,60
39470,note_on,,,,,108,0,1,,,0,,,61,69
39474,note_off,,,,,4,0,1,,,0,,,65,64
39580,note_off,,,,,106,0,1,,,0,,,58,64
39590,note_on,,,,,10,0,1,,,0,,,56,51
39606,note_on,,,,,16,0,1,,,0,,,53,44
39636,note_off,,,,,30,0,1,,,0,,,53,64
39652,note_off,,,,,16,0,1,,,0,,,56,64
39710,note_off,,,,,58,0,1,,,0,,,61,64
39712,note_on,,,,,2,0,1,,,0,,,62,69
39746,note_off,,,,,34,0,1,,,0,,,62,64
39838,note_on,,,,,92,0,1,,,0,,,62,81
40044,control_change,,,,,206,0,1,,,0,64,0,,
40048,note_on,,,,,4,0,1,,,0,,,39,45
40054,note_on,,,,,6,0,1,,,0,,,58,48
40138,control_change,,,,,84,0,1,,,0,64,127,,
40252,note_off,,,,,114,0,1,,,0,,,62,64
40252,note_on,,,,,0,0,1,,,0,,,46,57
40254,note_on,,,,,2,0,1,,,0,,,63,57
40256,note_off,,,,,2,0,1,,,0,,,58,64
40276,control_change,,,,,0,0,1,,,0,64,0,,
40276,note_on,,,,,20,0,1,,,0,,,55,34
40280,note_off,,,,,4,0,1,,,0,,,39,64
40306,control_change,,,,,26,0,1,,,0,64,127,,
40454,note_off,,,,,148,0,1,,,0,,,55,64
40474,note_on,,,,,20,0,1,,,0,,,51,49
40476,note_on,,,,,2,0,1,,,0,,,58,45
40526,note_off,,,,,50,0,1,,,0,,,46,64
40692,note_off,,,,,166,0,1,,,0,,,51,64
40700,note_on,,,,,8,0,1,,,0,,,55,54
40738,note_off,,,,,38,0,1,,,0,,,55,64
40870,note_off,,,,,132,0,1,,,0,,,58,64
40912,note_off,,,,,42,0,1,,,0,,,63,64
40958,note_on,,,,,46,0,1,,,0,,,58,53
41068,note_off,,,,,110,0,1,,,0,,,58,64
41084,note_on,,,,,16,0,1,,,0,,,51,57
41172,note_on,,,,,88,0,1,,,0,,,58,59
41262,note_on,,,,,90,0,1,,,0,,,67,61
41288,control_change,,,,,26,0,1,,,0,64,0,,
41354,note_on,,,,,66,0,1,,,0,,,78,77
41404,control_change,,,,,50,0,1,,,0,64,127,,
41614,note_on,,,,,210,0,1,,,0,,,63,50
41660,note_off,,,,,46,0,1,,,0,,,58,64
41662,note_on,,,,,2,0,1,,,0,,,70,62
41668,note_off,,,,,6,0,1,,,0,,,67,64
41696,note_off,,,,,28,0,1,,,0,,,78,64
41724,note_off,,,,,28,0,1,,,0,,,70,64
41756,note_on,,,,,32,0,1,,,0,,,76,64
41776,note_off,,,,,20,0,1,,,0,,,76,64
41824,note_on,,,,,48,0,1,,,0,,,76,70
41998,note_on,,,,,174,0,1,,,0,,,59,47
42000,note_on,,,,,2,0,1,,,0,,,68,65
42018,note_off,,,,,18,0,1,,,0,,,63,64
42020,note_off,,,,,2,0,1,,,0,,,51,64
42042,note_off,,,,,22,0,1,,,0,,,59,64
42058,note_off,,,,,16,0,1,,,0,,,68,64
42066,note_off,,,,,8,0,1,,,0,,,76,64
42084,note_on,,,,,18,0,1,,,0,,,71,57
42100,note_off,,,,,16,0,1,,,0,,,71,64
42136,note_on,,,,,36,0,1,,,0,,,71,58
42174,note_on,,,,,38,0,1,,,0,,,68,49
42198,note_on,,,,,24,0,1,,,0,,,83,88
42348,note_off,,,,,150,0,1,,,0,,,68,64
42352,note_on,,,,,4,0,1,,,0,,,64,56
42358,note_on,,,,,6,0,1,,,0,,,76,51
42366,note_off,,,,,8,0,1,,,0,,,64,64
42376,note_off,,,,,10,0,1,,,0,,,71,64
42518,note_on,,,,,142,0,1,,,0,,,51,74
42526,control_change,,,,,8,0,1,,,0,64,0,,
42556,control_change,,,,,30,0,1,,,0,64,127,,
42616,note_on,,,,,60,0,1,,,0,,,82,77
42622,note_off,,,,,6,0,1,,,0,,,76,64
42632,note_off,,,,,10,0,1,,,0,,,83,64
42636,note_off,,,,,4,0,1,,,0,,,51,64
42704,note_on,,,,,68,0,1,,,0,,,59,38
42708,note_on,,,,,4,0,1,,,0,,,64,38
42712,note_on,,,,,4,0,1,,,0,,,68,38
42758,note_off,,,,,46,0,1,,,0,,,64,64
42762,note_off,,,,,4,0,1,,,0,,,59,64
42776,note_off,,,,,14,0,1,,,0,,,68,64
42788,note_on,,,,,12,0,1,,,0,,,80,63
42812,note_off,,,,,24,0,1,,,0,,,82,64
42890,note_on,,,,,78,0,1,,,0,,,68,42
42892,note_on,,,,,2,0,1,,,0,,,71,42
42932,note_off,,,,,40,0,1,,,0,,,71,64
42982,note_on,,,,,50,0,1,,,0,,,78,53
43004,note_off,,,,,22,0,1,,,0,,,80,64
43008,note_off,,,,,4,0,1,,,0,,,68,64
43082,note_on,,,,,74,0,1,,,0,,,68,53
43094,note_on,,,,,12,0,1,,,0,,,59,33
43120,note_off,,,,,26,0,1,,,0,,,68,64
43124,note_off,,,,,4,0,1,,,0,,,59,64
43162,note_off,,,,,38,0,1,,,0,,,78,64
43186,note_on,,,,,24,0,1,,,0,,,74,61
43200,note_off,,,,,14,0,1,,,0,,,74,64
43262,note_on,,,,,62,0,1,,,0,,,74,61
43428,note_on,,,,,166,0,1,,,0,,,39,48
43432,note_on,,,,,4,0,1,,,0,,,70,39
43438,note_on,,,,,6,0,1,,,0,,,67,33
43442,control_change,,,,,4,0,1,,,0,64,0,,
43510,control_change,,,,,68,0,1,,,0,64,127,,
43564,note_off,,,,,54,0,1,,,0,,,67,64
43584,note_off,,,,,20,0,1,,,0,,,74,64
43586,note_off,,,,,2,0,1,,,0,,,70,64
43590,note_on,,,,,4,0,1,,,0,,,75,79
43596,note_on,,,,,6,0,1,,,0,,,46,57
43602,note_off,,,,,6,0,1,,,0,,,39,64
43642,control_change,,,,,40,0,1,,,0,64,0,,
43646,control_change,,,,,4,0,1,,,0,64,127,,
43756,note_on,,,,,110,0,1,,,0,,,51,43
43776,note_on,,,,,0,0,1,,,0,,,63,40
43776,note_on,,,,,20,0,1,,,0,,,67,32
43778,note_off,,,,,2,0,1,,,0,,,46,64
43856,note_off,,,,,78,0,1,,,0,,,67,64
43872,note_off,,,,,16,0,1,,,0,,,63,64
43920,note_off,,,,,48,0,1,,,0,,,51,64
43924,note_on,,,,,4,0,1,,,0,,,55,52
43946,note_off,,,,,22,0,1,,,0,,,55,64
44088,note_on,,,,,142,0,1,,,0,,,58,51
44100,note_on,,,,,12,0,1,,,0,,,63,35
44106,note_on,,,,,6,0,1,,,0,,,67,31
44116,note_off,,,,,10,0,1,,,0,,,63,64
44116,note_off,,,,,0,0,1,,,0,,,58,64
44132,note_off,,,,,16,0,1,,,0,,,67,64
44182,note_on,,,,,50,0,1,,,0,,,51,51
44244,note_on,,,,,62,0,1,,,0,,,58,48
44316,note_on,,,,,72,0,1,,,0,,,66,81
44322,control_change,,,,,6,0,1,,,0,64,0,,
44396,control_change,,,,,74,0,1,,,0,64,127,,
44422,note_off,,,,,26,0,1,,,0,,,66,64
44500,note_on,,,,,78,0,1,,,0,,,55,37
44570,note_off,,,,,70,0,1,,,0,,,58,64
44616,note_off,,,,,46,0,1,,,0,,,75,64
44624,note_on,,,,,0,0,1,,,0,,,64,64
44624,note_off,,,,,8,0,1,,,0,,,55,64
44632,note_off,,,,,8,0,1,,,0,,,51,64
44664,note_off,,,,,32,0,1,,,0,,,64,64
44766,note_on,,,,,102,0,1,,,0,,,64,77
44848,control_change,,,,,82,0,1,,,0,64,0,,
44970,note_on,,,,,122,0,1,,,0,,,50,49
44986,control_change,,,,,16,0,1,,,0,64,127,,
45122,note_off,,,,,136,0,1,,,0,,,64,64
45140,note_on,,,,,18,0,1,,,0,,,56,59
45148,note_on,,,,,8,0,1,,,0,,,71,62
45180,note_off,,,,,32,0,1,,,0,,,50,64
45260,note_off,,,,,80,0,1,,,0,,,56,64
45300,note_on,,,,,40,0,1,,,0,,,64,63
45348,note_off,,,,,48,0,1,,,0,,,64,64
45436,note_on,,,,,88,0,1,,,0,,,50,47
45496,note_off,,,,,60,0,1,,,0,,,50,64
45516,note_on,,,,,20,0,1,,,0,,,69,61
45534,note_off,,,,,18,0,1,,,0,,,71,64
45586,note_on,,,,,52,0,1,,,0,,,64,54
45648,note_off,,,,,62,0,1,,,0,,,64,64
45658,note_on,,,,,10,0,1,,,0,,,68,76
45670,note_off,,,,,12,0,1,,,0,,,69,64
45738,note_on,,,,,68,0,1,,,0,,,56,58
45742,note_on,,,,,4,0,1,,,0,,,59,60
45792,note_off,,,,,50,0,1,,,0,,,59,64
45800,note_on,,,,,8,0,1,,,0,,,66,66
45820,note_off,,,,,20,0,1,,,0,,,68,64
45840,note_off,,,,,20,0,1,,,0,,,56,64
45880,note_on,,,,,40,0,1,,,0,,,50,58
45910,note_off,,,,,30,0,1,,,0,,,50,64
45916,note_off,,,,,6,0,1,,,0,,,66,64
45954,note_on,,,,,38,0,1,,,0,,,64,71
45982,note_off,,,,,28,0,1,,,0,,,64,64
46034,note_on,,,,,52,0,1,,,0,,,64,81
46088,control_change,,,,,54,0,1,,,0,64,0,,
46186,note_on,,,,,98,0,1,,,0,,,49,58
46188,control_change,,,,,2,0,1,,,0,64,127,,
46238,note_off,,,,,50,0,1,,,0,,,49,64
46324,note_off,,,,,86,0,1,,,0,,,64,64
46326,note_on,,,,,2,0,1,,,0,,,73,76
46330,note_on,,,,,4,0,1,,,0,,,61,56
46334,note_on,,,,,4,0,1,,,0,,,57,26
46388,note_off,,,,,54,0,1,,,0,,,57,64
46392,note_off,,,,,4,0,1,,,0,,,61,64
46466,note_on,,,,,74,0,1,,,0,,,64,68
46514,note_off,,,,,48,0,1,,,0,,,64,64
46598,note_on,,,,,84,0,1,,,0,,,49,67
46636,note_off,,,,,38,0,1,,,0,,,49,64
46670,note_on,,,,,34,0,1,,,0,,,71,70
46710,note_off,,,,,40,0,1,,,0,,,73,64
46738,note_on,,,,,28,0,1,,,0,,,64,76
46810,note_off,,,,,72,0,1,,,0,,,64,64
46814,note_on,,,,,4,0,1,,,0,,,69,83
46832,note_off,,,,,18,0,1,,,0,,,71,64
46884,note_on,,,,,52,0,1,,,0,,,61,59
46892,note_on,,,,,8,0,1,,,0,,,57,65
46934,note_off,,,,,42,0,1,,,0,,,61,64
46964,note_on,,,,,30,0,1,,,0,,,68,87
46976,note_off,,,,,12,0,1,,,0,,,69,64
47000,note_off,,,,,24,0,1,,,0,,,57,64
47054,note_on,,,,,54,0,1,,,0,,,49,74
47086,note_off,,,,,32,0,1,,,0,,,49,64
47124,note_off,,,,,38,0,1,,,0,,,68,64
47124,note_on,,,,,0,0,1,,,0,,,66,66
47172,note_off,,,,,48,0,1,,,0,,,66,64
47226,note_on,,,,,54,0,1,,,0,,,66,86
47284,control_change,,,,,58,0,1,,,0,64,0,,
47410,control_change,,,,,126,0,1,,,0,64,127,,
47412,note_on,,,,,2,0,1,,,0,,,47,63
47416,note_on,,,,,4,0,1,,,0,,,64,73
47430,note_off,,,,,14,0,1,,,0,,,66,64
47448,note_off,,,,,18,0,1,,,0,,,47,64
47656,note_off,,,,,208,0,1,,,0,,,64,64
47656,note_on,,,,,0,0,1,,,0,,,56,72
47660,note_on,,,,,4,0,1,,,0,,,74,91
47660,note_on,,,,,0,0,1,,,0,,,62,59
47720,note_off,,,,,60,0,1,,,0,,,56,64
47740,note_off,,,,,20,0,1,,,0,,,62,64
47942,note_on,,,,,202,0,1,,,0,,,64,65
48124,note_off,,,,,182,0,1,,,0,,,64,64
48136,note_off,,,,,12,0,1,,,0,,,74,64
48158,note_on,,,,,22,0,1,,,0,,,70,68
48300,note_on,,,,,142,0,1,,,0,,,71,69
48346,note_off,,,,,46,0,1,,,0,,,70,64
48422,note_on,,,,,76,0,1,,,0,,,78,70
48438,note_off,,,,,16,0,1,,,0,,,71,64
48534,note_on,,,,,96,0,1,,,0,,,76,52
48596,note_on,,,,,62,0,1,,,0,,,74,63
48626,note_off,,,,,30,0,1,,,0,,,78,64
48634,note_off,,,,,8,0,1,,,0,,,76,64
48658,note_on,,,,,24,0,1,,,0,,,71,58
48668,note_off,,,,,10,0,1,,,0,,,74,64
48702,note_off,,,,,34,0,1,,,0,,,71,64
48704,note_on,,,,,2,0,1,,,0,,,68,35
48734,note_on,,,,,30,0,1,,,0,,,74,52
48744,note_off,,,,,10,0,1,,,0,,,68,64
48752,control_change,,,,,8,0,1,,,0,64,0,,
48788,note_on,,,,,36,0,1,,,0,,,71,66
48804,control_change,,,,,16,0,1,,,0,64,127,,
48812,note_off,,,,,8,0,1,,,0,,,74,64
48836,note_on,,,,,24,0,1,,,0,,,68,58
48858,note_off,,,,,22,0,1,,,0,,,71,64
48882,note_on,,,,,24,0,1,,,0,,,63,53
48886,note_off,,,,,4,0,1,,,0,,,68,64
48936,note_on,,,,,50,0,1,,,0,,,64,71
48948,note_off,,,,,12,0,1,,,0,,,63,64
48998,note_on,,,,,50,0,1,,,0,,,65,71
49002,note_off,,,,,4,0,1,,,0,,,64,64
49064,note_off,,,,,62,0,1,,,0,,,65,64
49072,note_on,,,,,8,0,1,,,0,,,68,77
49078,control_change,,,,,6,0,1,,,0,64,0,,
49168,note_on,,,,,90,0,1,,,0,,,66,65
49192,note_off,,,,,24,0,1,,,0,,,68,64
49284,note_on,,,,,92,0,1,,,0,,,64,71
49292,note_off,,,,,8,0,1,,,0,,,66,64
49408,note_on,,,,,116,0,1,,,0,,,58,68
49468,note_off,,,,,60,0,1,,,0,,,64,64
49558,note_on,,,,,0,0,1,,,0,,,59,66
49558,note_off,,,,,90,0,1,,,0,,,58,64
49730,note_on,,,,,172,0,1,,,0,,,66,59
49792,note_off,,,,,62,0,1,,,0,,,59,64
49912,note_on,,,,,120,0,1,,,0,,,64,70
49948,note_off,,,,,36,0,1,,,0,,,66,64
50282,control_change,,,,,334,0,1,,,0,64,127,,
50286,note_on,,,,,4,0,1,,,0,,,60,50
50290,note_off,,,,,4,0,1,,,0,,,64,64
50350,note_off,,,,,60,0,1,,,0,,,60,64
50432,note_on,,,,,82,0,1,,,0,,,60,74
50510,control_change,,,,,78,0,1,,,0,64,0,,
50670,note_on,,,,,160,0,1,,,0,,,52,51
50858,note_off,,,,,188,0,1,,,0,,,52,64
50862,note_on,,,,,4,0,1,,,0,,,61,63
50870,note_on,,,,,8,0,1,,,0,,,45,55
50878,note_off,,,,,8,0,1,,,0,,,60,64
51072,note_on,,,,,194,0,1,,,0,,,52,51
51074,note_on,,,,,2,0,1,,,0,,,64,51
51076,note_off,,,,,2,0,1,,,0,,,61,64
51088,control_change,,,,,12,0,1,,,0,64,127,,
51272,note_off,,,,,184,0,1,,,0,,,52,64
51280,note_off,,,,,8,0,1,,,0,,,64,64
51282,note_on,,,,,2,0,1,,,0,,,57,54
51288,note_on,,,,,6,0,1,,,0,,,61,41
51508,note_on,,,,,220,0,1,,,0,,,52,49
51512,note_on,,,,,4,0,1,,,0,,,64,45
51518,note_off,,,,,6,0,1,,,0,,,45,64
51528,note_off,,,,,10,0,1,,,0,,,61,64
51530,note_off,,,,,2,0,1,,,0,,,57,64
51536,note_off,,,,,6,0,1,,,0,,,64,64
51552,note_off,,,,,16,0,1,,,0,,,52,64
51766,note_on,,,,,214,0,1,,,0,,,62,76
51768,note_on,,,,,2,0,1,,,0,,,74,62
51800,control_change,,,,,32,0,1,,,0,64,0,,
51876,control_change,,,,,76,0,1,,,0,64,127,,
51934,note_off,,,,,58,0,1,,,0,,,62,64
51992,note_on,,,,,58,0,1,,,0,,,52,32
51994,note_on,,,,,2,0,1,,,0,,,57,48
51996,note_on,,,,,2,0,1,,,0,,,69,42
52008,note_on,,,,,12,0,1,,,0,,,64,27
52018,note_off,,,,,10,0,1,,,0,,,52,64
52034,note_off,,,,,16,0,1,,,0,,,74,64
52036,note_off,,,,,2,0,1,,,0,,,57,64
52042,note_off,,,,,6,0,1,,,0,,,64,64
52062,note_off,,,,,20,0,1,,,0,,,69,64
52086,note_on,,,,,24,0,1,,,0,,,61,65
52088,note_on,,,,,2,0,1,,,0,,,73,61
52106,note_off,,,,,18,0,1,,,0,,,73,64
52116,note_off,,,,,10,0,1,,,0,,,61,64
52170,control_change,,,,,54,0,1,,,0,64,0,,
52178,note_on,,,,,8,0,1,,,0,,,61,77
52184,note_on,,,,,6,0,1,,,0,,,73,52
52200,control_change,,,,,16,0,1,,,0,64,127,,
52260,note_off,,,,,60,0,1,,,0,,,61,64
52366,note_on,,,,,106,0,1,,,0,,,45,63
52372,note_on,,,,,6,0,1,,,0,,,66,56
52374,note_on,,,,,2,0,1,,,0,,,63,40
52390,note_on,,,,,16,0,1,,,0,,,54,34
52398,control_change,,,,,8,0,1,,,0,64,0,,
52424,control_change,,,,,26,0,1,,,0,64,127,,
52438,note_off,,,,,14,0,1,,,0,,,73,64
52476,note_off,,,,,38,0,1,,,0,,,45,64
52524,note_off,,,,,48,0,1,,,0,,,63,64
52532,note_off,,,,,8,0,1,,,0,,,66,64
52540,note_off,,,,,8,0,1,,,0,,,54,64
52544,note_on,,,,,4,0,1,,,0,,,60,58
52548,note_on,,,,,4,0,1,,,0,,,72,65
52686,note_off,,,,,138,0,1,,,0,,,60,64
52702,note_off,,,,,16,0,1,,,0,,,72,64
52720,note_on,,,,,18,0,1,,,0,,,66,43
52724,note_on,,,,,4,0,1,,,0,,,78,57
52892,note_off,,,,,168,0,1,,,0,,,78,64
52902,note_off,,,,,10,0,1,,,0,,,66,64
52908,note_on,,,,,6,0,1,,,0,,,72,37
52912,note_on,,,,,4,0,1,,,0,,,60,41
52954,note_off,,,,,42,0,1,,,0,,,60,64
53068,note_off,,,,,114,0,1,,,0,,,72,64
53102,note_on,,,,,34,0,1,,,0,,,54,50
53106,note_on,,,,,4,0,1,,,0,,,45,51
53112,note_on,,,,,6,0,1,,,0,,,66,47
53112,note_on,,,,,0,0,1,,,0,,,63,28
53126,note_off,,,,,14,0,1,,,0,,,45,64
53154,note_off,,,,,28,0,1,,,0,,,54,64
53214,note_off,,,,,60,0,1,,,0,,,63,64
53252,note_off,,,,,38,0,1,,,0,,,66,64
53316,note_on,,,,,0,0,1,,,0,,,61,74
53316,note_on,,,,,64,0,1,,,0,,,73,72
53318,control_change,,,,,2,0,1,,,0,64,0,,
53364,control_change,,,,,46,0,1,,,0,64,127,,
53392,note_off,,,,,28,0,1,,,0,,,61,64
53516,note_off,,,,,124,0,1,,,0,,,73,64
53530,note_on,,,,,14,0,1,,,0,,,45,41
53532,note_on,,,,,2,0,1,,,0,,,56,41
53536,note_on,,,,,4,0,1,,,0,,,53,41
53542,note_on,,,,,6,0,1,,,0,,,65,41
53546,note_on,,,,,4,0,1,,,0,,,62,41
53564,note_off,,,,,18,0,1,,,0,,,45,64
53576,note_off,,,,,12,0,1,,,0,,,53,64
53584,note_off,,,,,8,0,1,,,0,,,62,64
53604,note_off,,,,,20,0,1,,,0,,,56,64
53610,note_off,,,,,6,0,1,,,0,,,65,64
53632,note_on,,,,,22,0,1,,,0,,,71,69
53640,note_on,,,,,8,0,1,,,0,,,59,59
53670,note_off,,,,,30,0,1,,,0,,,71,64
53672,note_off,,,,,2,0,1,,,0,,,59,64
53736,control_change,,,,,64,0,1,,,0,64,0,,
53738,note_on,,,,,2,0,1,,,0,,,71,67
53738,note_on,,,,,0,0,1,,,0,,,59,75
53780,control_change,,,,,42,0,1,,,0,64,127,,
53858,note_off,,,,,78,0,1,,,0,,,59,64
53928,note_on,,,,,70,0,1,,,0,,,45,54
53930,note_on,,,,,2,0,1,,,0,,,64,51
53934,note_on,,,,,4,0,1,,,0,,,61,30
53936,note_on,,,,,2,0,1,,,0,,,52,49
53976,control_change,,,,,40,0,1,,,0,64,0,,
54042,note_off,,,,,66,0,1,,,0,,,71,64
54100,note_on,,,,,58,0,1,,,0,,,69,61
54104,note_off,,,,,4,0,1,,,0,,,61,64
54106,note_off,,,,,2,0,1,,,0,,,64,64
54108,note_on,,,,,2,0,1,,,0,,,57,57
54112,control_change,,,,,4,0,1,,,0,64,127,,
54124,note_off,,,,,12,0,1,,,0,,,52,64
54124,note_off,,,,,0,0,1,,,0,,,45,64
54250,note_off,,,,,126,0,1,,,0,,,69,64
54260,note_off,,,,,10,0,1,,,0,,,57,64
54284,note_on,,,,,24,0,1,,,0,,,64,54
54314,note_on,,,,,30,0,1,,,0,,,76,12
54436,note_off,,,,,122,0,1,,,0,,,76,64
54444,note_off,,,,,8,0,1,,,0,,,64,64
54474,note_on,,,,,30,0,1,,,0,,,57,43
54480,note_on,,,,,6,0,1,,,0,,,69,16
54602,note_off,,,,,122,0,1,,,0,,,57,64
54676,note_on,,,,,74,0,1,,,0,,,52,46
54678,note_off,,,,,2,0,1,,,0,,,69,64
54680,note_on,,,,,2,0,1,,,0,,,64,39
54688,note_on,,,,,8,0,1,,,0,,,61,28
54884,note_off,,,,,196,0,1,,,0,,,64,64
54886,note_on,,,,,2,0,1,,,0,,,56,72
54890,note_on,,,,,4,0,1,,,0,,,68,71
54894,note_off,,,,,4,0,1,,,0,,,52,64
54896,note_off,,,,,2,0,1,,,0,,,61,64
54912,control_change,,,,,16,0,1,,,0,64,0,,
54948,control_change,,,,,36,0,1,,,0,64,127,,
55026,note_off,,,,,78,0,1,,,0,,,56,64
55116,note_on,,,,,90,0,1,,,0,,,39,39
55122,note_on,,,,,6,0,1,,,0,,,60,44
55124,note_on,,,,,2,0,1,,,0,,,57,44
55132,note_on,,,,,8,0,1,,,0,,,48,48
55138,note_off,,,,,6,0,1,,,0,,,68,64
55160,control_change,,,,,22,0,1,,,0,64,0,,
55200,control_change,,,,,40,0,1,,,0,64,127,,
55260,note_on,,,,,60,0,1,,,0,,,66,69
55266,note_off,,,,,6,0,1,,,0,,,39,64
55266,note_on,,,,,0,0,1,,,0,,,54,62
55268,note_off,,,,,2,0,1,,,0,,,48,64
55278,note_off,,,,,10,0,1,,,0,,,60,64
55280,note_off,,,,,2,0,1,,,0,,,57,64
55300,note_off,,,,,20,0,1,,,0,,,54,64
55314,note_off,,,,,14,0,1,,,0,,,66,64
55404,note_on,,,,,90,0,1,,,0,,,66,69
55406,note_on,,,,,2,0,1,,,0,,,54,71
55436,control_change,,,,,30,0,1,,,0,64,0,,
55512,control_change,,,,,76,0,1,,,0,64,127,,
55620,note_on,,,,,108,0,1,,,0,,,62,57
55624,note_on,,,,,4,0,1,,,0,,,56,52
55628,note_off,,,,,4,0,1,,,0,,,54,64
55636,note_on,,,,,8,0,1,,,0,,,47,55
55640,note_on,,,,,4,0,1,,,0,,,40,24
55666,control_change,,,,,26,0,1,,,0,64,0,,
55716,control_change,,,,,50,0,1,,,0,64,127,,
55792,note_off,,,,,76,0,1,,,0,,,40,64
55806,note_off,,,,,0,0,1,,,0,,,62,64
55806,note_off,,,,,14,0,1,,,0,,,47,64
55812,note_on,,,,,6,0,1,,,0,,,53,71
55814,note_off,,,,,2,0,1,,,0,,,56,64
55816,note_on,,,,,2,0,1,,,0,,,65,71
55832,note_off,,,,,16,0,1,,,0,,,66,64
55948,note_off,,,,,116,0,1,,,0,,,53,64
56000,note_off,,,,,52,0,1,,,0,,,65,64
56012,note_on,,,,,0,0,1,,,0,,,52,55
56012,note_on,,,,,12,0,1,,,0,,,64,77
56030,control_change,,,,,18,0,1,,,0,64,0,,
56068,control_change,,,,,38,0,1,,,0,64,127,,
56108,note_off,,,,,40,0,1,,,0,,,64,64
56224,note_on,,,,,116,0,1,,,0,,,61,78
56232,note_off,,,,,8,0,1,,,0,,,52,64
56232,note_on,,,,,0,0,1,,,0,,,73,78
56248,control_change,,,,,16,0,1,,,0,64,0,,
56288,control_change,,,,,40,0,1,,,0,64,127,,
56444,note_on,,,,,156,0,1,,,0,,,56,59
56448,note_on,,,,,4,0,1,,,0,,,64,44
56452,note_on,,,,,4,0,1,,,0,,,52,52
56458,note_on,,,,,0,0,1,,,0,,,62,55
56458,note_off,,,,,6,0,1,,,0,,,73,64
56460,note_off,,,,,2,0,1,,,0,,,61,64
56496,note_off,,,,,36,0,1,,,0,,,52,64
56496,note_off,,,,,0,0,1,,,0,,,56,64
56510,note_off,,,,,14,0,1,,,0,,,62,64
56696,note_on,,,,,186,0,1,,,0,,,56,54
56702,note_on,,,,,6,0,1,,,0,,,40,49
56706,control_change,,,,,4,0,1,,,0,64,0,,
56758,note_off,,,,,52,0,1,,,0,,,40,64
56758,note_off,,,,,0,0,1,,,0,,,56,64
56760,control_change,,,,,2,0,1,,,0,64,127,,
56826,note_off,,,,,66,0,1,,,0,,,64,64
56958,note_on,,,,,132,0,1,,,0,,,71,64
56964,note_on,,,,,6,0,1,,,0,,,59,58
57020,note_off,,,,,56,0,1,,,0,,,59,64
57044,note_off,,,,,24,0,1,,,0,,,71,64
57214,note_on,,,,,170,0,1,,,0,,,69,52
57216,note_on,,,,,2,0,1,,,0,,,57,52
57222,control_change,,,,,6,0,1,,,0,64,0,,
57306,control_change,,,,,84,0,1,,,0,64,127,,
57398,note_off,,,,,92,0,1,,,0,,,57,64
57456,note_on,,,,,58,0,1,,,0,,,61,43
57458,note_on,,,,,2,0,1,,,0,,,52,51
57460,note_on,,,,,2,0,1,,,0,,,57,45
57636,note_off,,,,,176,0,1,,,0,,,52,64
57666,note_off,,,,,30,0,1,,,0,,,57,64
57668,note_on,,,,,2,0,1,,,0,,,45,49
57672,note_off,,,,,4,0,1,,,0,,,61,64
57672,note_on,,,,,0,0,1,,,0,,,64,58
57702,control_change,,,,,30,0,1,,,0,64,0,,
57708,control_change,,,,,6,0,1,,,0,64,127,,
57830,note_off,,,,,122,0,1,,,0,,,64,64
57862,note_on,,,,,32,0,1,,,0,,,61,38
57866,note_on,,,,,4,0,1,,,0,,,52,52
57912,note_off,,,,,46,0,1,,,0,,,52,64
57920,note_off,,,,,8,0,1,,,0,,,61,64
58062,note_on,,,,,142,0,1,,,0,,,61,41
58074,note_on,,,,,12,0,1,,,0,,,57,38
58076,note_on,,,,,2,0,1,,,0,,,52,49
58116,note_off,,,,,40,0,1,,,0,,,57,64
58178,note_off,,,,,62,0,1,,,0,,,61,64
58288,note_on,,,,,110,0,1,,,0,,,64,45
58288,note_on,,,,,0,0,1,,,0,,,57,46
58304,note_off,,,,,16,0,1,,,0,,,69,64
58306,note_off,,,,,2,0,1,,,0,,,45,64
58328,note_off,,,,,22,0,1,,,0,,,64,64
58328,note_off,,,,,0,0,1,,,0,,,52,64
58336,note_off,,,,,8,0,1,,,0,,,57,64
58520,note_on,,,,,0,0,1,,,0,,,62,70
58520,note_on,,,,,184,0,1,,,0,,,74,59
58526,control_change,,,,,6,0,1,,,0,64,0,,
58578,control_change,,,,,52,0,1,,,0,64,127,,
58646,note_off,,,,,68,0,1,,,0,,,62,64
58716,note_on,,,,,70,0,1,,,0,,,52,49
58718,note_on,,,,,2,0,1,,,0,,,57,57
58728,note_on,,,,,10,0,1,,,0,,,69,40
58728,note_on,,,,,0,0,1,,,0,,,64,39
58736,note_off,,,,,8,0,1,,,0,,,52,64
58758,note_off,,,,,22,0,1,,,0,,,57,64
58760,note_off,,,,,2,0,1,,,0,,,64,64
58768,note_off,,,,,8,0,1,,,0,,,74,64
58790,note_off,,,,,22,0,1,,,0,,,69,64
58820,note_on,,,,,30,0,1,,,0,,,61,75
58824,note_on,,,,,4,0,1,,,0,,,73,69
58852,note_off,,,,,28,0,1,,,0,,,61,64
58854,note_off,,,,,2,0,1,,,0,,,73,64
58892,control_change,,,,,38,0,1,,,0,64,0,,
58916,note_on,,,,,24,0,1,,,0,,,73,56
58920,note_on,,,,,4,0,1,,,0,,,61,79
58922,control_change,,,,,2,0,1,,,0,64,127,,
58980,note_off,,,,,58,0,1,,,0,,,61,64
59098,note_on,,,,,118,0,1,,,0,,,45,62
59100,note_on,,,,,0,0,1,,,0,,,63,47
59100,note_on,,,,,2,0,1,,,0,,,66,59
59104,note_on,,,,,4,0,1,,,0,,,54,63
59130,control_change,,,,,26,0,1,,,0,64,0,,
59138,control_change,,,,,8,0,1,,,0,64,127,,
59174,note_off,,,,,36,0,1,,,0,,,73,64
59202,note_off,,,,,28,0,1,,,0,,,45,64
59208,note_off,,,,,6,0,1,,,0,,,63,64
59224,note_off,,,,,16,0,1,,,0,,,66,64
59252,note_off,,,,,28,0,1,,,0,,,54,64
59272,note_on,,,,,20,0,1,,,0,,,72,69
59280,note_on,,,,,8,0,1,,,0,,,60,60
59384,note_off,,,,,104,0,1,,,0,,,60,64
59442,note_off,,,,,58,0,1,,,0,,,72,64
59442,note_on,,,,,0,0,1,,,0,,,66,50
59444,note_on,,,,,2,0,1,,,0,,,78,51
59544,note_off,,,,,100,0,1,,,0,,,66,64
59594,note_off,,,,,50,0,1,,,0,,,78,64
59602,note_on,,,,,8,0,1,,,0,,,60,35
59620,note_on,,,,,18,0,1,,,0,,,72,51
59658,note_off,,,,,38,0,1,,,0,,,60,64
59748,note_off,,,,,90,0,1,,,0,,,72,64
59778,note_on,,,,,30,0,1,,,0,,,54,69
59790,note_on,,,,,12,0,1,,,0,,,45,55
59792,note_on,,,,,2,0,1,,,0,,,66,63
59800,note_on,,,,,8,0,1,,,0,,,63,36
59804,note_off,,,,,4,0,1,,,0,,,45,64
59814,note_off,,,,,10,0,1,,,0,,,54,64
59818,note_off,,,,,4,0,1,,,0,,,63,64
59826,note_off,,,,,8,0,1,,,0,,,66,64
59888,note_on,,,,,62,0,1,,,0,,,72,62
59888,note_on,,,,,0,0,1,,,0,,,60,60
59996,note_on,,,,,108,0,1,,,0,,,64,86
60000,note_on,,,,,4,0,1,,,0,,,76,61
60002,control_change,,,,,2,0,1,,,0,64,0,,
60018,note_off,,,,,16,0,1,,,0,,,72,64
60036,note_off,,,,,18,0,1,,,0,,,60,64
60044,note_off,,,,,8,0,1,,,0,,,64,64
60044,control_change,,,,,0,0,1,,,0,64,127,,
60084,note_off,,,,,40,0,1,,,0,,,76,64
60204,note_on,,,,,120,0,1,,,0,,,66,66
60204,note_on,,,,,0,0,1,,,0,,,54,68
60210,note_on,,,,,6,0,1,,,0,,,60,58
60212,note_on,,,,,2,0,1,,,0,,,44,61
60232,note_off,,,,,20,0,1,,,0,,,44,64
60248,note_off,,,,,0,0,1,,,0,,,54,64
60248,note_off,,,,,16,0,1,,,0,,,60,64
60288,note_off,,,,,40,0,1,,,0,,,66,64
60330,note_on,,,,,42,0,1,,,0,,,75,77
60336,note_on,,,,,6,0,1,,,0,,,63,70
60364,note_off,,,,,28,0,1,,,0,,,63,64
60368,note_off,,,,,4,0,1,,,0,,,75,64
60460,control_change,,,,,92,0,1,,,0,64,0,,
60464,note_on,,,,,4,0,1,,,0,,,63,87
60468,note_on,,,,,4,0,1,,,0,,,75,80
60492,control_change,,,,,24,0,1,,,0,64,127,,
60508,note_off,,,,,16,0,1,,,0,,,63,64
60584,note_off,,,,,76,0,1,,,0,,,75,64
60668,note_on,,,,,84,0,1,,,0,,,61,72
60668,note_on,,,,,0,0,1,,,0,,,44,72
60672,note_on,,,,,4,0,1,,,0,,,68,72
60676,note_on,,,,,4,0,1,,,0,,,52,72
60688,control_change,,,,,12,0,1,,,0,64,0,,
60728,control_change,,,,,40,0,1,,,0,64,127,,
60732,note_off,,,,,4,0,1,,,0,,,44,64
60748,note_off,,,,,16,0,1,,,0,,,52,64
60776,note_off,,,,,28,0,1,,,0,,,61,64
60824,note_off,,,,,48,0,1,,,0,,,68,64
60876,note_on,,,,,52,0,1,,,0,,,73,78
60880,note_on,,,,,4,0,1,,,0,,,61,79
60954,note_off,,,,,74,0,1,,,0,,,61,64
61096,note_on,,,,,142,0,1,,,0,,,56,74
61098,note_on,,,,,2,0,1,,,0,,,61,74
61100,note_on,,,,,2,0,1,,,0,,,68,74
61106,note_on,,,,,6,0,1,,,0,,,52,74
61108,control_change,,,,,2,0,1,,,0,64,0,,
61112,control_change,,,,,4,0,1,,,0,64,127,,
61132,note_off,,,,,20,0,1,,,0,,,52,64
61138,note_off,,,,,6,0,1,,,0,,,73,64
61140,note_off,,,,,2,0,1,,,0,,,61,64
61146,note_off,,,,,6,0,1,,,0,,,56,64
61156,note_off,,,,,10,0,1,,,0,,,68,64
61244,note_on,,,,,88,0,1,,,0,,,61,82
61246,note_on,,,,,2,0,1,,,0,,,73,82
61280,note_off,,,,,34,0,1,,,0,,,73,64
61280,note_off,,,,,0,0,1,,,0,,,61,64
61310,note_on,,,,,30,0,1,,,0,,,73,82
61330,note_on,,,,,20,0,1,,,0,,,61,69
61344,note_off,,,,,14,0,1,,,0,,,61,64
61350,note_off,,,,,6,0,1,,,0,,,73,64
61412,control_change,,,,,0,0,1,,,0,64,0,,
61412,note_on,,,,,62,0,1,,,0,,,78,100
61414,note_on,,,,,2,0,1,,,0,,,66,100
61438,control_change,,,,,24,0,1,,,0,64,127,,
61482,note_off,,,,,44,0,1,,,0,,,66,64
61500,note_off,,,,,18,0,1,,,0,,,78,64
61652,note_on,,,,,0,0,1,,,0,,,49,72
61652,note_on,,,,,152,0,1,,,0,,,70,69
61656,note_on,,,,,4,0,1,,,0,,,67,55
61688,control_change,,,,,32,0,1,,,0,64,0,,
61750,control_change,,,,,62,0,1,,,0,64,127,,
61772,note_off,,,,,22,0,1,,,0,,,67,64
61918,note_on,,,,,146,0,1,,,0,,,58,65
61922,note_on,,,,,4,0,1,,,0,,,64,69
61922,note_on,,,,,0,0,1,,,0,,,55,61
61924,note_on,,,,,2,0,1,,,0,,,67,59
62054,note_off,,,,,130,0,1,,,0,,,64,64
62072,note_off,,,,,18,0,1,,,0,,,67,64
62090,note_off,,,,,0,0,1,,,0,,,70,64
62090,note_off,,,,,18,0,1,,,0,,,49,64
62104,note_off,,,,,14,0,1,,,0,,,55,64
62108,note_off,,,,,4,0,1,,,0,,,58,64
62272,note_on,,,,,164,0,1,,,0,,,64,74
62280,note_on,,,,,8,0,1,,,0,,,76,70
62320,note_off,,,,,40,0,1,,,0,,,64,64
62336,note_off,,,,,16,0,1,,,0,,,76,64
62432,note_on,,,,,96,0,1,,,0,,,64,85
62434,note_on,,,,,2,0,1,,,0,,,76,74
62460,control_change,,,,,26,0,1,,,0,64,0,,
62496,control_change,,,,,36,0,1,,,0,64,127,,
62548,note_off,,,,,52,0,1,,,0,,,64,64
62640,note_on,,,,,0,0,1,,,0,,,50,70
62640,note_on,,,,,92,0,1,,,0,,,71,66
62644,note_on,,,,,4,0,1,,,0,,,67,54
62650,note_on,,,,,6,0,1,,,0,,,55,63
62654,note_on,,,,,4,0,1,,,0,,,59,51
62672,control_change,,,,,18,0,1,,,0,64,0,,
62706,control_change,,,,,34,0,1,,,0,64,127,,
62724,note_off,,,,,18,0,1,,,0,,,50,64
62728,note_off,,,,,4,0,1,,,0,,,76,64
62790,note_off,,,,,62,0,1,,,0,,,55,64
62798,note_off,,,,,8,0,1,,,0,,,59,64
62822,note_off,,,,,24,0,1,,,0,,,67,64
62828,note_on,,,,,6,0,1,,,0,,,62,78
62832,note_on,,,,,0,0,1,,,0,,,74,73
62832,note_off,,,,,4,0,1,,,0,,,71,64
62920,note_off,,,,,88,0,1,,,0,,,62,64
63038,note_on,,,,,118,0,1,,,0,,,71,70
63040,note_on,,,,,0,0,1,,,0,,,50,70
63040,note_on,,,,,2,0,1,,,0,,,67,70
63044,note_on,,,,,0,0,1,,,0,,,59,70
63044,note_on,,,,,4,0,1,,,0,,,62,70
63050,note_on,,,,,6,0,1,,,0,,,55,70
63062,control_change,,,,,12,0,1,,,0,64,0,,
63076,note_off,,,,,14,0,1,,,0,,,74,64
63082,control_change,,,,,6,0,1,,,0,64,127,,
63104,note_off,,,,,22,0,1,,,0,,,62,64
63114,note_off,,,,,10,0,1,,,0,,,50,64
63120,note_off,,,,,6,0,1,,,0,,,67,64
63124,note_off,,,,,4,0,1,,,0,,,55,64
63134,note_off,,,,,10,0,1,,,0,,,71,64
63136,note_off,,,,,2,0,1,,,0,,,59,64
63296,note_on,,,,,160,0,1,,,0,,,71,108
63298,note_on,,,,,2,0,1,,,0,,,83,108
63356,note_off,,,,,58,0,1,,,0,,,71,64
63370,note_off,,,,,14,0,1,,,0,,,83,64
63584,note_on,,,,,0,0,1,,,0,,,66,65
63584,note_on,,,,,214,0,1,,,0,,,71,69
63586,note_on,,,,,2,0,1,,,0,,,54,68
63588,note_on,,,,,2,0,1,,,0,,,62,61
63592,note_on,,,,,4,0,1,,,0,,,60,55
63592,note_on,,,,,0,0,1,,,0,,,50,62
63624,control_change,,,,,32,0,1,,,0,64,0,,
63642,control_change,,,,,18,0,1,,,0,64,127,,
63672,note_off,,,,,30,0,1,,,0,,,60,64
63692,note_off,,,,,20,0,1,,,0,,,54,64
63700,note_off,,,,,8,0,1,,,0,,,50,64
63892,note_on,,,,,192,0,1,,,0,,,38,69
63936,control_change,,,,,44,0,1,,,0,64,0,,
64000,control_change,,,,,64,0,1,,,0,64,127,,
64002,note_off,,,,,2,0,1,,,0,,,62,64
64006,note_off,,,,,4,0,1,,,0,,,66,64
64010,note_off,,,,,4,0,1,,,0,,,38,64
64028,note_off,,,,,18,0,1,,,0,,,71,64
64282,note_on,,,,,254,0,1,,,0,,,81,72
64286,note_on,,,,,4,0,1,,,0,,,69,72
64334,note_off,,,,,48,0,1,,,0,,,69,64
64520,note_on,,,,,0,0,1,,,0,,,67,57
64520,note_on,,,,,186,0,1,,,0,,,79,57
64526,control_change,,,,,6,0,1,,,0,64,0,,
64528,note_off,,,,,2,0,1,,,0,,,81,64
64570,control_change,,,,,42,0,1,,,0,64,127,,
64596,note_off,,,,,26,0,1,,,0,,,67,64
64626,note_off,,,,,30,0,1,,,0,,,79,64
64772,note_on,,,,,146,0,1,,,0,,,50,53
64928,note_off,,,,,156,0,1,,,0,,,50,64
64962,note_on,,,,,34,0,1,,,0,,,43,46
64966,note_on,,,,,4,0,1,,,0,,,59,49
64992,control_change,,,,,26,0,1,,,0,64,0,,
65078,control_change,,,,,86,0,1,,,0,64,127,,
65152,note_on,,,,,74,0,1,,,0,,,50,43
65154,note_off,,,,,2,0,1,,,0,,,59,64
65154,note_on,,,,,0,0,1,,,0,,,62,40
65338,note_off,,,,,184,0,1,,,0,,,50,64
65340,note_off,,,,,2,0,1,,,0,,,62,64
65354,note_off,,,,,14,0,1,,,0,,,43,64
65356,note_on,,,,,2,0,1,,,0,,,55,59
65360,note_on,,,,,4,0,1,,,0,,,59,31
65500,note_off,,,,,140,0,1,,,0,,,55,64
65574,note_on,,,,,0,0,1,,,0,,,50,27
65574,note_off,,,,,74,0,1,,,0,,,59,64
65580,note_on,,,,,6,0,1,,,0,,,62,45
65596,note_off,,,,,16,0,1,,,0,,,62,64
65680,note_on,,,,,84,0,1,,,0,,,67,61
65818,note_on,,,,,138,0,1,,,0,,,72,70
65818,note_on,,,,,0,0,1,,,0,,,62,49
65864,control_change,,,,,46,0,1,,,0,64,0,,
65888,control_change,,,,,24,0,1,,,0,64,127,,
65900,note_off,,,,,12,0,1,,,0,,,62,64
65986,note_off,,,,,86,0,1,,,0,,,50,64
66056,note_on,,,,,70,0,1,,,0,,,55,40
66074,note_off,,,,,18,0,1,,,0,,,55,64
66092,note_on,,,,,18,0,1,,,0,,,62,57
66120,note_off,,,,,28,0,1,,,0,,,72,64
66144,note_off,,,,,24,0,1,,,0,,,67,64
66168,note_on,,,,,24,0,1,,,0,,,71,62
66172,note_off,,,,,4,0,1,,,0,,,62,64
66204,note_off,,,,,32,0,1,,,0,,,71,64
66264,note_on,,,,,60,0,1,,,0,,,71,66
66436,control_change,,,,,172,0,1,,,0,64,0,,
66466,note_on,,,,,30,0,1,,,0,,,64,61
66472,note_on,,,,,6,0,1,,,0,,,52,52
66476,note_on,,,,,4,0,1,,,0,,,61,30
66536,control_change,,,,,60,0,1,,,0,64,127,,
66540,note_off,,,,,4,0,1,,,0,,,71,64
66632,note_off,,,,,92,0,1,,,0,,,52,64
66636,note_on,,,,,4,0,1,,,0,,,70,70
66642,note_on,,,,,0,0,1,,,0,,,43,54
66642,note_off,,,,,6,0,1,,,0,,,61,64
66648,note_off,,,,,6,0,1,,,0,,,64,64
66800,note_on,,,,,152,0,1,,,0,,,64,61
66800,note_on,,,,,0,0,1,,,0,,,61,43
66804,note_on,,,,,4,0,1,,,0,,,52,49
66818,note_off,,,,,14,0,1,,,0,,,43,64
66820,note_off,,,,,2,0,1,,,0,,,70,64
66912,note_off,,,,,92,0,1,,,0,,,52,64
66920,note_off,,,,,8,0,1,,,0,,,61,64
66944,note_on,,,,,24,0,1,,,0,,,58,62
66946,note_off,,,,,2,0,1,,,0,,,64,64
66948,note_on,,,,,2,0,1,,,0,,,70,75
67068,note_off,,,,,120,0,1,,,0,,,58,64
67088,note_on,,,,,20,0,1,,,0,,,52,63
67094,note_on,,,,,6,0,1,,,0,,,61,53
67096,note_on,,,,,2,0,1,,,0,,,64,57
67100,note_off,,,,,4,0,1,,,0,,,70,64
67144,note_off,,,,,44,0,1,,,0,,,61,64
67182,note_off,,,,,38,0,1,,,0,,,64,64
67230,note_on,,,,,48,0,1,,,0,,,61,61
67236,note_on,,,,,6,0,1,,,0,,,70,80
67298,note_off,,,,,62,0,1,,,0,,,61,64
67368,note_off,,,,,70,0,1,,,0,,,52,64
67390,note_on,,,,,22,0,1,,,0,,,55,49
67392,note_on,,,,,2,0,1,,,0,,,61,52
67396,note_on,,,,,4,0,1,,,0,,,64,54
67408,note_off,,,,,12,0,1,,,0,,,61,64
67410,note_off,,,,,2,0,1,,,0,,,55,64
67412,note_off,,,,,2,0,1,,,0,,,64,64
67416,note_off,,,,,4,0,1,,,0,,,70,64
67580,note_on,,,,,164,0,1,,,0,,,76,82
67616,control_change,,,,,36,0,1,,,0,64,0,,
67642,note_off,,,,,26,0,1,,,0,,,76,64
67656,control_change,,,,,14,0,1,,,0,64,127,,
67764,note_on,,,,,108,0,1,,,0,,,67,47
67772,note_on,,,,,8,0,1,,,0,,,50,44
67782,note_on,,,,,10,0,1,,,0,,,59,34
67846,note_off,,,,,64,0,1,,,0,,,59,64
67892,note_off,,,,,46,0,1,,,0,,,50,64
67912,note_off,,,,,20,0,1,,,0,,,67,64
67912,note_on,,,,,0,0,1,,,0,,,43,46
67914,note_on,,,,,2,0,1,,,0,,,74,56
67940,control_change,,,,,26,0,1,,,0,64,0,,
67980,control_change,,,,,40,0,1,,,0,64,127,,
67992,note_off,,,,,12,0,1,,,0,,,74,64
68072,note_on,,,,,80,0,1,,,0,,,50,49
68078,note_on,,,,,6,0,1,,,0,,,67,39
68080,note_on,,,,,2,0,1,,,0,,,59,46
68114,note_off,,,,,34,0,1,,,0,,,59,64
68120,note_off,,,,,6,0,1,,,0,,,43,64
68150,note_off,,,,,30,0,1,,,0,,,67,64
68166,note_off,,,,,16,0,1,,,0,,,50,64
68232,note_on,,,,,66,0,1,,,0,,,59,42
68300,note_off,,,,,68,0,1,,,0,,,59,64
68416,note_on,,,,,116,0,1,,,0,,,67,40
68416,note_on,,,,,0,0,1,,,0,,,50,45
68538,note_off,,,,,122,0,1,,,0,,,67,64
68604,note_on,,,,,0,0,1,,,0,,,62,49
68604,note_on,,,,,66,0,1,,,0,,,72,68
68634,control_change,,,,,30,0,1,,,0,64,0,,
68654,control_change,,,,,20,0,1,,,0,64,127,,
68664,note_off,,,,,10,0,1,,,0,,,50,64
68670,note_off,,,,,6,0,1,,,0,,,62,64
68816,note_on,,,,,146,0,1,,,0,,,55,38
68832,note_on,,,,,16,0,1,,,0,,,62,49
68840,note_on,,,,,8,0,1,,,0,,,67,26
68852,note_off,,,,,12,0,1,,,0,,,55,64
68886,note_off,,,,,34,0,1,,,0,,,72,64
68916,note_on,,,,,30,0,1,,,0,,,71,64
68920,note_off,,,,,0,0,1,,,0,,,62,64
68920,note_off,,,,,4,0,1,,,0,,,67,64
68948,note_off,,,,,28,0,1,,,0,,,71,64
69002,note_on,,,,,54,0,1,,,0,,,71,80
69148,control_change,,,,,146,0,1,,,0,64,0,,
69168,note_on,,,,,20,0,1,,,0,,,52,56
69170,note_on,,,,,2,0,1,,,0,,,64,47
69178,note_on,,,,,8,0,1,,,0,,,61,34
69232,control_change,,,,,54,0,1,,,0,64,127,,
69286,note_off,,,,,54,0,1,,,0,,,71,64
69300,note_off,,,,,14,0,1,,,0,,,52,64
69318,note_off,,,,,18,0,1,,,0,,,61,64
69322,note_on,,,,,4,0,1,,,0,,,43,57
69324,note_on,,,,,2,0,1,,,0,,,69,60
69330,note_off,,,,,6,0,1,,,0,,,64,64
69348,control_change,,,,,18,0,1,,,0,64,0,,
69372,control_change,,,,,24,0,1,,,0,64,127,,
69428,note_off,,,,,56,0,1,,,0,,,43,64
69464,note_on,,,,,36,0,1,,,0,,,64,59
69468,note_on,,,,,4,0,1,,,0,,,61,47
69470,note_on,,,,,2,0,1,,,0,,,52,56
69472,note_on,,,,,2,0,1,,,0,,,57,54
69490,note_off,,,,,18,0,1,,,0,,,52,64
69498,note_off,,,,,8,0,1,,,0,,,57,64
69560,note_off,,,,,62,0,1,,,0,,,69,64
69572,note_off,,,,,12,0,1,,,0,,,61,64
69594,note_off,,,,,22,0,1,,,0,,,64,64
69618,note_on,,,,,24,0,1,,,0,,,71,75
69714,control_change,,,,,96,0,1,,,0,64,0,,
69780,note_on,,,,,66,0,1,,,0,,,63,42
69786,note_on,,,,,6,0,1,,,0,,,54,42
69790,note_on,,,,,0,0,1,,,0,,,51,28
69790,note_on,,,,,4,0,1,,,0,,,60,48
69800,control_change,,,,,10,0,1,,,0,64,127,,
69848,note_off,,,,,48,0,1,,,0,,,51,64
69848,note_off,,,,,0,0,1,,,0,,,71,64
69878,note_off,,,,,30,0,1,,,0,,,54,64
69918,note_off,,,,,40,0,1,,,0,,,60,64
69944,note_on,,,,,26,0,1,,,0,,,43,53
69948,note_on,,,,,4,0,1,,,0,,,72,59
69956,note_off,,,,,8,0,1,,,0,,,63,64
69976,control_change,,,,,20,0,1,,,0,64,0,,
69990,control_change,,,,,14,0,1,,,0,64,127,,
69996,note_off,,,,,6,0,1,,,0,,,43,64
70122,note_on,,,,,126,0,1,,,0,,,63,50
70130,note_on,,,,,8,0,1,,,0,,,54,49
70136,note_on,,,,,0,0,1,,,0,,,57,55
70136,note_on,,,,,6,0,1,,,0,,,60,38
70152,note_off,,,,,16,0,1,,,0,,,57,64
70162,note_off,,,,,10,0,1,,,0,,,54,64
70168,note_off,,,,,6,0,1,,,0,,,72,64
70212,note_on,,,,,44,0,1,,,0,,,66,52
70264,note_off,,,,,52,0,1,,,0,,,60,64
70314,note_off,,,,,50,0,1,,,0,,,63,64
70340,note_on,,,,,26,0,1,,,0,,,69,64
70342,note_off,,,,,2,0,1,,,0,,,66,64
70434,control_change,,,,,92,0,1,,,0,64,0,,
70516,note_on,,,,,82,0,1,,,0,,,62,42
70526,note_on,,,,,10,0,1,,,0,,,59,41
70526,note_on,,,,,0,0,1,,,0,,,50,42
70556,control_change,,,,,30,0,1,,,0,64,127,,
70662,note_off,,,,,106,0,1,,,0,,,50,64
70664,note_off,,,,,2,0,1,,,0,,,69,64
70668,note_off,,,,,4,0,1,,,0,,,59,64
70682,note_on,,,,,14,0,1,,,0,,,67,43
70684,note_off,,,,,2,0,1,,,0,,,62,64
70696,note_on,,,,,12,0,1,,,0,,,43,24
70722,control_change,,,,,26,0,1,,,0,64,0,,
70766,control_change,,,,,44,0,1,,,0,64,127,,
70864,note_on,,,,,98,0,1,,,0,,,50,41
70866,note_on,,,,,2,0,1,,,0,,,62,25
70872,note_on,,,,,6,0,1,,,0,,,59,25
70980,note_off,,,,,108,0,1,,,0,,,59,64
71014,note_off,,,,,34,0,1,,,0,,,62,64
71026,note_off,,,,,12,0,1,,,0,,,43,64
71042,note_off,,,,,16,0,1,,,0,,,50,64
71060,note_on,,,,,18,0,1,,,0,,,55,51
71180,note_off,,,,,120,0,1,,,0,,,55,64
71254,note_on,,,,,0,0,1,,,0,,,50,32
71254,note_on,,,,,74,0,1,,,0,,,62,32
71274,note_on,,,,,20,0,1,,,0,,,59,15
71318,note_off,,,,,44,0,1,,,0,,,59,64
71320,note_off,,,,,2,0,1,,,0,,,67,64
71330,note_off,,,,,10,0,1,,,0,,,62,64
71476,note_on,,,,,146,0,1,,,0,,,72,67
71480,note_on,,,,,4,0,1,,,0,,,62,53
71532,note_off,,,,,52,0,1,,,0,,,62,64
71612,note_off,,,,,80,0,1,,,0,,,50,64
71676,note_on,,,,,64,0,1,,,0,,,55,43
71698,note_off,,,,,22,0,1,,,0,,,55,64
71710,note_on,,,,,12,0,1,,,0,,,62,24
71712,note_on,,,,,2,0,1,,,0,,,67,18
71772,note_off,,,,,60,0,1,,,0,,,72,64
71784,note_on,,,,,12,0,1,,,0,,,71,69
71788,note_off,,,,,4,0,1,,,0,,,62,64
71792,note_off,,,,,4,0,1,,,0,,,67,64
71814,note_off,,,,,22,0,1,,,0,,,71,64
71880,note_on,,,,,66,0,1,,,0,,,71,73
72054,note_on,,,,,174,0,1,,,0,,,64,49
72060,note_on,,,,,0,0,1,,,0,,,52,46
72060,note_on,,,,,6,0,1,,,0,,,61,34
72066,control_change,,,,,6,0,1,,,0,64,0,,
72140,control_change,,,,,74,0,1,,,0,64,127,,
72174,note_off,,,,,34,0,1,,,0,,,71,64
72182,note_off,,,,,8,0,1,,,0,,,61,64
72192,note_off,,,,,10,0,1,,,0,,,52,64
72200,note_on,,,,,8,0,1,,,0,,,70,72
72202,note_on,,,,,2,0,1,,,0,,,43,56
72208,note_off,,,,,6,0,1,,,0,,,64,64
72338,note_off,,,,,130,0,1,,,0,,,43,64
72360,note_on,,,,,22,0,1,,,0,,,52,36
72364,note_on,,,,,4,0,1,,,0,,,64,60
72368,note_on,,,,,4,0,1,,,0,,,61,44
72378,note_off,,,,,10,0,1,,,0,,,70,64
72458,note_off,,,,,80,0,1,,,0,,,61,64
72472,note_off,,,,,14,0,1,,,0,,,52,64
72504,note_on,,,,,32,0,1,,,0,,,70,80
72504,note_on,,,,,0,0,1,,,0,,,58,60
72510,note_off,,,,,6,0,1,,,0,,,64,64
72602,note_off,,,,,92,0,1,,,0,,,58,64
72652,note_on,,,,,50,0,1,,,0,,,64,63
72652,note_on,,,,,0,0,1,,,0,,,52,59
72654,note_on,,,,,2,0,1,,,0,,,61,48
72660,note_off,,,,,6,0,1,,,0,,,70,64
72698,note_off,,,,,38,0,1,,,0,,,61,64
72734,note_off,,,,,36,0,1,,,0,,,64,64
72792,note_on,,,,,58,0,1,,,0,,,61,70
72800,note_on,,,,,8,0,1,,,0,,,70,81
72866,note_off,,,,,66,0,1,,,0,,,61,64
72946,note_on,,,,,80,0,1,,,0,,,55,64
72948,note_off,,,,,2,0,1,,,0,,,52,64
72950,note_on,,,,,2,0,1,,,0,,,64,66
72952,note_on,,,,,2,0,1,,,0,,,61,45
72972,note_off,,,,,20,0,1,,,0,,,70,64
72974,note_off,,,,,2,0,1,,,0,,,61,64
72978,note_off,,,,,4,0,1,,,0,,,55,64
72980,note_off,,,,,2,0,1,,,0,,,64,64
73132,note_on,,,,,152,0,1,,,0,,,76,95
73190,control_change,,,,,58,0,1,,,0,64,0,,
73224,control_change,,,,,34,0,1,,,0,64,127,,
73230,note_off,,,,,6,0,1,,,0,,,76,64
73316,note_on,,,,,86,0,1,,,0,,,67,60
73316,note_on,,,,,0,0,1,,,0,,,50,56
73326,note_on,,,,,10,0,1,,,0,,,59,60
73404,note_off,,,,,78,0,1,,,0,,,59,64
73444,note_off,,,,,40,0,1,,,0,,,50,64
73464,note_on,,,,,20,0,1,,,0,,,43,59
73466,note_off,,,,,2,0,1,,,0,,,67,64
73466,note_on,,,,,0,0,1,,,0,,,74,58
73496,control_change,,,,,30,0,1,,,0,64,0,,
73528,control_change,,,,,32,0,1,,,0,64,127,,
73558,note_off,,,,,30,0,1,,,0,,,74,64
73620,note_on,,,,,62,0,1,,,0,,,67,58
73624,note_on,,,,,4,0,1,,,0,,,50,66
73628,note_on,,,,,4,0,1,,,0,,,59,51
73662,note_off,,,,,34,0,1,,,0,,,59,64
73668,note_off,,,,,6,0,1,,,0,,,43,64
73726,note_off,,,,,58,0,1,,,0,,,67,64
73734,note_off,,,,,8,0,1,,,0,,,50,64
73774,note_on,,,,,40,0,1,,,0,,,59,67
73846,note_off,,,,,72,0,1,,,0,,,59,64
73928,note_on,,,,,82,0,1,,,0,,,50,58
73936,note_on,,,,,8,0,1,,,0,,,67,60
73936,note_on,,,,,0,0,1,,,0,,,59,49
73950,note_off,,,,,14,0,1,,,0,,,59,64
74036,note_off,,,,,86,0,1,,,0,,,67,64
74118,note_on,,,,,82,0,1,,,0,,,76,69
74120,note_on,,,,,2,0,1,,,0,,,62,66
74124,note_on,,,,,4,0,1,,,0,,,72,74
74154,control_change,,,,,30,0,1,,,0,64,0,,
74160,control_change,,,,,6,0,1,,,0,64,127,,
74190,note_off,,,,,30,0,1,,,0,,,62,64
74208,note_off,,,,,18,0,1,,,0,,,76,64
74268,note_off,,,,,60,0,1,,,0,,,72,64
74322,note_on,,,,,54,0,1,,,0,,,55,49
74324,note_off,,,,,2,0,1,,,0,,,50,64
74344,note_on,,,,,20,0,1,,,0,,,62,65
74346,note_on,,,,,2,0,1,,,0,,,67,54
74350,note_off,,,,,4,0,1,,,0,,,55,64
74396,note_off,,,,,46,0,1,,,0,,,62,64
74420,note_off,,,,,24,0,1,,,0,,,67,64
74434,note_on,,,,,14,0,1,,,0,,,71,70
74438,note_on,,,,,4,0,1,,,0,,,74,74
74470,note_off,,,,,32,0,1,,,0,,,71,64
74474,note_off,,,,,4,0,1,,,0,,,74,64
74520,note_on,,,,,46,0,1,,,0,,,74,63
74524,note_on,,,,,4,0,1,,,0,,,71,68
74566,note_off,,,,,42,0,1,,,0,,,71,64
74568,note_off,,,,,2,0,1,,,0,,,74,64
74684,note_on,,,,,116,0,1,,,0,,,64,65
74688,note_on,,,,,4,0,1,,,0,,,43,60
74690,note_on,,,,,2,0,1,,,0,,,61,54
74728,control_change,,,,,38,0,1,,,0,64,0,,
74786,control_change,,,,,58,0,1,,,0,64,127,,
74840,note_on,,,,,54,0,1,,,0,,,58,65
74842,note_on,,,,,2,0,1,,,0,,,73,71
74844,note_off,,,,,2,0,1,,,0,,,61,64
74848,note_on,,,,,4,0,1,,,0,,,70,67
74850,note_off,,,,,2,0,1,,,0,,,64,64
74928,note_off,,,,,78,0,1,,,0,,,58,64
74980,note_off,,,,,52,0,1,,,0,,,73,64
74992,note_off,,,,,12,0,1,,,0,,,70,64
74994,note_on,,,,,2,0,1,,,0,,,64,66
74996,note_on,,,,,2,0,1,,,0,,,52,63
74998,note_on,,,,,2,0,1,,,0,,,61,67
75010,note_off,,,,,12,0,1,,,0,,,43,64
75012,note_off,,,,,2,0,1,,,0,,,52,64
75084,note_off,,,,,72,0,1,,,0,,,61,64
75092,note_off,,,,,8,0,1,,,0,,,64,64
75138,note_on,,,,,46,0,1,,,0,,,42,70
75140,control_change,,,,,2,0,1,,,0,64,0,,
75144,note_on,,,,,4,0,1,,,0,,,73,74
75148,note_on,,,,,4,0,1,,,0,,,70,63
75164,control_change,,,,,16,0,1,,,0,64,127,,
75176,note_off,,,,,12,0,1,,,0,,,42,64
75280,note_on,,,,,104,0,1,,,0,,,58,65
75288,note_on,,,,,8,0,1,,,0,,,66,68
75290,note_on,,,,,0,0,1,,,0,,,61,61
75290,note_off,,,,,2,0,1,,,0,,,70,64
75294,note_off,,,,,4,0,1,,,0,,,73,64
75320,note_off,,,,,26,0,1,,,0,,,58,64
75332,note_off,,,,,12,0,1,,,0,,,61,64
75404,note_off,,,,,72,0,1,,,0,,,66,64
75438,note_on,,,,,34,0,1,,,0,,,40,79
75442,note_on,,,,,4,0,1,,,0,,,70,75
75444,note_on,,,,,2,0,1,,,0,,,73,76
75448,control_change,,,,,4,0,1,,,0,64,0,,
75476,note_off,,,,,28,0,1,,,0,,,40,64
75478,control_change,,,,,2,0,1,,,0,64,127,,
75588,note_on,,,,,110,0,1,,,0,,,58,76
75592,note_on,,,,,4,0,1,,,0,,,61,67
75596,note_on,,,,,4,0,1,,,0,,,67,64
75612,note_off,,,,,16,0,1,,,0,,,70,64
75614,note_off,,,,,2,0,1,,,0,,,73,64
75620,note_off,,,,,6,0,1,,,0,,,61,64
75624,note_off,,,,,4,0,1,,,0,,,58,64
75628,note_off,,,,,4,0,1,,,0,,,67,64
75768,note_on,,,,,140,0,1,,,0,,,79,94
75772,note_on,,,,,4,0,1,,,0,,,76,94
75862,control_change,,,,,90,0,1,,,0,64,0,,
75924,note_on,,,,,62,0,1,,,0,,,38,67
75938,control_change,,,,,14,0,1,,,0,64,127,,
75950,note_off,,,,,12,0,1,,,0,,,38,64
76086,note_off,,,,,136,0,1,,,0,,,79,64
76092,note_on,,,,,6,0,1,,,0,,,66,67
76098,note_on,,,,,6,0,1,,,0,,,78,67
76108,note_on,,,,,10,0,1,,,0,,,59,67
76110,note_on,,,,,2,0,1,,,0,,,74,67
76126,note_off,,,,,16,0,1,,,0,,,76,64
76134,note_off,,,,,0,0,1,,,0,,,66,64
76134,note_off,,,,,8,0,1,,,0,,,59,64
76258,note_on,,,,,124,0,1,,,0,,,62,55
76264,note_on,,,,,6,0,1,,,0,,,54,47
76288,note_off,,,,,24,0,1,,,0,,,62,64
76300,note_off,,,,,12,0,1,,,0,,,54,64
76524,note_off,,,,,224,0,1,,,0,,,78,64
76554,control_change,,,,,30,0,1,,,0,64,0,,
76556,note_off,,,,,2,0,1,,,0,,,74,64
76560,note_on,,,,,0,0,1,,,0,,,40,67
76560,note_on,,,,,0,0,1,,,0,,,72,69
76560,note_on,,,,,4,0,1,,,0,,,76,73
76588,control_change,,,,,28,0,1,,,0,64,127,,
76660,note_off,,,,,72,0,1,,,0,,,76,64
76668,note_off,,,,,8,0,1,,,0,,,72,64
76686,note_on,,,,,0,0,1,,,0,,,79,77
76686,note_off,,,,,18,0,1,,,0,,,40,64
76752,note_on,,,,,0,0,1,,,0,,,55,54
76752,note_on,,,,,66,0,1,,,0,,,74,66
76754,note_on,,,,,2,0,1,,,0,,,78,65
76760,note_on,,,,,6,0,1,,,0,,,64,63
76780,note_off,,,,,20,0,1,,,0,,,55,64
76782,control_change,,,,,2,0,1,,,0,64,0,,
76784,note_off,,,,,2,0,1,,,0,,,79,64
76800,control_change,,,,,16,0,1,,,0,64,127,,
76814,note_off,,,,,14,0,1,,,0,,,64,64
76846,note_off,,,,,32,0,1,,,0,,,74,64
76916,note_on,,,,,70,0,1,,,0,,,60,61
76918,note_on,,,,,2,0,1,,,0,,,52,58
76932,note_off,,,,,14,0,1,,,0,,,60,64
76944,note_off,,,,,12,0,1,,,0,,,52,64
76964,note_on,,,,,0,0,1,,,0,,,72,73
76964,note_on,,,,,20,0,1,,,0,,,76,62
76976,note_off,,,,,12,0,1,,,0,,,78,64
76996,note_off,,,,,20,0,1,,,0,,,76,64
76998,note_off,,,,,2,0,1,,,0,,,72,64
77048,note_on,,,,,50,0,1,,,0,,,76,75
77052,note_on,,,,,4,0,1,,,0,,,72,77
77122,control_change,,,,,70,0,1,,,0,64,0,,
77184,note_on,,,,,62,0,1,,,0,,,42,57
77190,control_change,,,,,6,0,1,,,0,64,127,,
77224,note_off,,,,,34,0,1,,,0,,,42,64
77348,note_on,,,,,124,0,1,,,0,,,54,53
77350,note_on,,,,,2,0,1,,,0,,,62,62
77352,note_on,,,,,2,0,1,,,0,,,74,72
77352,note_on,,,,,0,0,1,,,0,,,71,67
77358,note_off,,,,,6,0,1,,,0,,,76,64
77370,note_off,,,,,12,0,1,,,0,,,72,64
77396,note_off,,,,,26,0,1,,,0,,,62,64
77450,note_off,,,,,54,0,1,,,0,,,54,64
77506,note_on,,,,,56,0,1,,,0,,,59,71
77508,note_on,,,,,2,0,1,,,0,,,50,60
77524,note_off,,,,,16,0,1,,,0,,,59,64
77536,note_off,,,,,12,0,1,,,0,,,50,64
77774,note_on,,,,,238,0,1,,,0,,,40,62
77792,control_change,,,,,18,0,1,,,0,64,0,,
77816,note_on,,,,,0,0,1,,,0,,,70,81
77816,note_on,,,,,24,0,1,,,0,,,73,86
77834,note_off,,,,,18,0,1,,,0,,,71,64
77836,control_change,,,,,2,0,1,,,0,64,127,,
77838,note_off,,,,,2,0,1,,,0,,,40,64
77842,note_off,,,,,4,0,1,,,0,,,74,64
77992,note_on,,,,,150,0,1,,,0,,,61,71
77996,note_on,,,,,0,0,1,,,0,,,54,66
77996,note_on,,,,,4,0,1,,,0,,,74,79
78000,note_on,,,,,4,0,1,,,0,,,71,73
78008,note_off,,,,,8,0,1,,,0,,,70,64
78010,note_off,,,,,2,0,1,,,0,,,73,64
78016,note_off,,,,,6,0,1,,,0,,,71,64
78024,note_off,,,,,8,0,1,,,0,,,61,64
78026,note_off,,,,,2,0,1,,,0,,,54,64
78032,note_off,,,,,6,0,1,,,0,,,74,64
78164,note_on,,,,,132,0,1,,,0,,,66,56
78174,note_on,,,,,10,0,1,,,0,,,58,63
78200,note_on,,,,,0,0,1,,,0,,,73,75
78200,note_off,,,,,26,0,1,,,0,,,66,64
78202,note_on,,,,,2,0,1,,,0,,,76,76
78206,note_off,,,,,4,0,1,,,0,,,58,64
78236,note_off,,,,,30,0,1,,,0,,,73,64
78246,note_off,,,,,10,0,1,,,0,,,76,64
78346,note_on,,,,,100,0,1,,,0,,,79,77
78348,note_on,,,,,2,0,1,,,0,,,76,77
78454,control_change,,,,,106,0,1,,,0,64,0,,
78462,note_on,,,,,8,0,1,,,0,,,38,65
78506,note_off,,,,,44,0,1,,,0,,,38,64
78508,note_on,,,,,2,0,1,,,0,,,78,88
78512,note_on,,,,,4,0,1,,,0,,,74,70
78516,control_change,,,,,4,0,1,,,0,64,127,,
78532,note_off,,,,,16,0,1,,,0,,,76,64
78536,note_off,,,,,4,0,1,,,0,,,79,64
78576,note_off,,,,,40,0,1,,,0,,,78,64
78608,note_off,,,,,32,0,1,,,0,,,74,64
78708,note_on,,,,,100,0,1,,,0,,,66,70
78712,note_on,,,,,0,0,1,,,0,,,78,92
78712,note_on,,,,,4,0,1,,,0,,,81,90
78714,note_on,,,,,2,0,1,,,0,,,59,68
78750,note_off,,,,,36,0,1,,,0,,,66,64
78760,note_off,,,,,10,0,1,,,0,,,59,64
78908,note_on,,,,,148,0,1,,,0,,,62,72
78908,note_on,,,,,0,0,1,,,0,,,54,67
78950,note_off,,,,,42,0,1,,,0,,,62,64
78966,note_off,,,,,16,0,1,,,0,,,54,64
79110,note_off,,,,,144,0,1,,,0,,,81,64
79152,note_on,,,,,42,0,1,,,0,,,79,76
79158,note_on,,,,,6,0,1,,,0,,,76,72
79176,note_off,,,,,18,0,1,,,0,,,78,64
79244,control_change,,,,,68,0,1,,,0,64,0,,
79246,note_on,,,,,2,0,1,,,0,,,40,70
79290,control_change,,,,,44,0,1,,,0,64,127,,
79296,note_off,,,,,6,0,1,,,0,,,40,64
79308,note_on,,,,,12,0,1,,,0,,,78,81
79314,note_on,,,,,6,0,1,,,0,,,74,66
79320,note_off,,,,,6,0,1,,,0,,,79,64
79324,note_off,,,,,4,0,1,,,0,,,76,64
79432,note_off,,,,,108,0,1,,,0,,,74,64
79438,note_on,,,,,6,0,1,,,0,,,79,77
79440,note_on,,,,,2,0,1,,,0,,,76,73
79444,note_on,,,,,4,0,1,,,0,,,55,64
79450,note_on,,,,,6,0,1,,,0,,,64,71
79458,note_off,,,,,8,0,1,,,0,,,78,64
79512,note_off,,,,,54,0,1,,,0,,,64,64
79536,note_off,,,,,24,0,1,,,0,,,55,64
79554,note_on,,,,,18,0,1,,,0,,,78,72
79566,note_on,,,,,12,0,1,,,0,,,74,67
79568,note_off,,,,,2,0,1,,,0,,,79,64
79578,note_off,,,,,10,0,1,,,0,,,76,64
79598,note_off,,,,,20,0,1,,,0,,,78,64
79602,note_off,,,,,4,0,1,,,0,,,74,64
79620,note_on,,,,,18,0,1,,,0,,,60,67
79620,note_on,,,,,0,0,1,,,0,,,52,66
79640,note_off,,,,,20,0,1,,,0,,,60,64
79650,note_on,,,,,10,0,1,,,0,,,76,69
79656,note_on,,,,,0,0,1,,,0,,,72,70
79656,note_off,,,,,6,0,1,,,0,,,52,64
79690,note_off,,,,,34,0,1,,,0,,,72,64
79696,note_off,,,,,6,0,1,,,0,,,76,64
79740,note_on,,,,,44,0,1,,,0,,,72,81
79742,note_on,,,,,2,0,1,,,0,,,76,80
79896,control_change,,,,,154,0,1,,,0,64,0,,
79904,note_on,,,,,8,0,1,,,0,,,42,60
79922,note_on,,,,,0,0,1,,,0,,,71,66
79922,note_on,,,,,18,0,1,,,0,,,74,69
79936,note_off,,,,,14,0,1,,,0,,,76,64
79940,note_off,,,,,4,0,1,,,0,,,72,64
79946,control_change,,,,,6,0,1,,,0,64,127,,
79962,note_off,,,,,16,0,1,,,0,,,42,64
79996,note_off,,,,,34,0,1,,,0,,,71,64
80006,note_off,,,,,10,0,1,,,0,,,74,64
80012,note_on,,,,,6,0,1,,,0,,,76,51
80024,note_on,,,,,12,0,1,,,0,,,72,58
80070,note_off,,,,,46,0,1,,,0,,,76,64
80076,note_on,,,,,6,0,1,,,0,,,74,62
80084,note_on,,,,,0,0,1,,,0,,,71,78
80084,note_off,,,,,8,0,1,,,0,,,72,64
80104,note_off,,,,,20,0,1,,,0,,,74,64
80128,note_on,,,,,24,0,1,,,0,,,62,55
80132,note_on,,,,,4,0,1,,,0,,,54,57
80138,note_on,,,,,6,0,1,,,0,,,73,79
80144,note_on,,,,,6,0,1,,,0,,,70,70
80150,control_change,,,,,6,0,1,,,0,64,0,,
80160,note_off,,,,,10,0,1,,,0,,,71,64
80186,control_change,,,,,26,0,1,,,0,64,127,,
80220,note_off,,,,,34,0,1,,,0,,,62,64
80268,note_off,,,,,48,0,1,,,0,,,70,64
80278,note_off,,,,,10,0,1,,,0,,,54,64
80294,note_off,,,,,16,0,1,,,0,,,73,64
80326,note_on,,,,,32,0,1,,,0,,,50,63
80332,note_on,,,,,6,0,1,,,0,,,59,64
80340,note_on,,,,,8,0,1,,,0,,,74,66
80340,note_on,,,,,0,0,1,,,0,,,71,70
80354,note_off,,,,,14,0,1,,,0,,,59,64
80360,note_off,,,,,6,0,1,,,0,,,50,64
80492,note_off,,,,,132,0,1,,,0,,,71,64
80508,note_on,,,,,16,0,1,,,0,,,42,69
80540,control_change,,,,,32,0,1,,,0,64,0,,
80546,note_off,,,,,6,0,1,,,0,,,74,64
80598,control_change,,,,,52,0,1,,,0,64,127,,
80632,note_on,,,,,34,0,1,,,0,,,49,70
80690,note_off,,,,,58,0,1,,,0,,,42,64
80698,note_on,,,,,8,0,1,,,0,,,58,79
80718,note_off,,,,,20,0,1,,,0,,,49,64
80724,note_on,,,,,0,0,1,,,0,,,64,70
80724,note_off,,,,,6,0,1,,,0,,,58,64
80764,note_on,,,,,40,0,1,,,0,,,70,71
80828,note_off,,,,,64,0,1,,,0,,,64,64
80832,note_on,,,,,4,0,1,,,0,,,78,96
80902,note_off,,,,,70,0,1,,,0,,,70,64
81074,note_on,,,,,172,0,1,,,0,,,64,71
81076,note_on,,,,,2,0,1,,,0,,,73,81
81094,note_off,,,,,18,0,1,,,0,,,78,64
81320,note_off,,,,,226,0,1,,,0,,,73,64
81356,note_off,,,,,36,0,1,,,0,,,64,64
81372,note_on,,,,,0,0,1,,,0,,,67,89
81372,note_on,,,,,16,0,1,,,0,,,76,89
82210,note_off,,,,,838,0,1,,,0,,,67,64
82312,note_on,,,,,102,0,1,,,0,,,75,70
82320,note_on,,,,,8,0,1,,,0,,,66,53
82330,note_off,,,,,10,0,1,,,0,,,76,64
82350,control_change,,,,,20,0,1,,,0,64,0,,
82398,control_change,,,,,48,0,1,,,0,64,127,,
82532,note_off,,,,,134,0,1,,,0,,,66,64
82536,note_on,,,,,4,0,1,,,0,,,65,60
82546,note_on,,,,,0,0,1,,,0,,,74,44
82546,note_off,,,,,10,0,1,,,0,,,75,64
82560,control_change,,,,,14,0,1,,,0,64,0,,
82592,control_change,,,,,32,0,1,,,0,64,127,,
82674,note_off,,,,,82,0,1,,,0,,,65,64
82678,note_off,,,,,4,0,1,,,0,,,74,64
82680,note_on,,,,,2,0,1,,,0,,,73,65
82686,note_on,,,,,6,0,1,,,0,,,64,60
82704,note_off,,,,,18,0,1,,,0,,,64,64
82712,control_change,,,,,8,0,1,,,0,64,0,,
82740,control_change,,,,,28,0,1,,,0,64,127,,
82780,note_on,,,,,40,0,1,,,0,,,63,62
82792,note_on,,,,,12,0,1,,,0,,,72,58
82796,note_off,,,,,4,0,1,,,0,,,73,64
82828,control_change,,,,,32,0,1,,,0,64,0,,
82856,note_off,,,,,28,0,1,,,0,,,72,64
82860,note_off,,,,,4,0,1,,,0,,,63,64
82862,control_change,,,,,2,0,1,,,0,64,127,,
82874,note_on,,,,,0,0,1,,,0,,,62,54
82874,note_on,,,,,12,0,1,,,0,,,71,51
82916,note_off,,,,,42,0,1,,,0,,,62,64
82916,note_off,,,,,0,0,1,,,0,,,71,64
82928,control_change,,,,,12,0,1,,,0,64,0,,
82956,note_on,,,,,28,0,1,,,0,,,70,59
82958,note_on,,,,,2,0,1,,,0,,,61,56
82964,control_change,,,,,6,0,1,,,0,64,127,,
83026,control_change,,,,,62,0,1,,,0,64,0,,
83042,note_off,,,,,16,0,1,,,0,,,61,64
83046,note_off,,,,,4,0,1,,,0,,,70,64
83050,note_on,,,,,4,0,1,,,0,,,60,45
83056,note_on,,,,,6,0,1,,,0,,,69,45
83062,control_change,,,,,6,0,1,,,0,64,127,,
83134,note_off,,,,,0,0,1,,,0,,,60,64
83134,note_off,,,,,72,0,1,,,0,,,69,64
83136,control_change,,,,,2,0,1,,,0,64,0,,
83154,note_on,,,,,18,0,1,,,0,,,59,58
83156,note_on,,,,,2,0,1,,,0,,,68,62
83168,control_change,,,,,12,0,1,,,0,64,127,,
83228,control_change,,,,,60,0,1,,,0,64,0,,
83252,note_off,,,,,24,0,1,,,0,,,68,64
83260,note_off,,,,,8,0,1,,,0,,,59,64
83264,note_on,,,,,4,0,1,,,0,,,58,69
83268,control_change,,,,,4,0,1,,,0,64,127,,
83272,note_on,,,,,4,0,1,,,0,,,67,34
83322,control_change,,,,,50,0,1,,,0,64,0,,
83372,control_change,,,,,50,0,1,,,0,64,127,,
83390,note_off,,,,,18,0,1,,,0,,,58,64
83394,note_off,,,,,4,0,1,,,0,,,67,64
83396,note_on,,,,,2,0,1,,,0,,,66,61
83402,note_on,,,,,6,0,1,,,0,,,57,67
83422,control_change,,,,,20,0,1,,,0,64,0,,
83464,control_change,,,,,42,0,1,,,0,64,127,,
83502,control_change,,,,,38,0,1,,,0,64,0,,
83538,control_change,,,,,36,0,1,,,0,64,127,,
83550,note_on,,,,,12,0,1,,,0,,,56,79
83562,note_on,,,,,12,0,1,,,0,,,65,55
83564,note_off,,,,,2,0,1,,,0,,,57,64
83572,note_off,,,,,8,0,1,,,0,,,66,64
83592,control_change,,,,,20,0,1,,,0,64,0,,
83618,control_change,,,,,26,0,1,,,0,64,127,,
83776,note_off,,,,,158,0,1,,,0,,,56,64
83784,note_off,,,,,8,0,1,,,0,,,65,64
83788,note_on,,,,,4,0,1,,,0,,,64,69
83788,note_on,,,,,0,0,1,,,0,,,55,54
83794,control_change,,,,,6,0,1,,,0,64,0,,
83984,control_change,,,,,190,0,1,,,0,64,127,,
84036,note_off,,,,,52,0,1,,,0,,,64,64
84080,note_off,,,,,44,0,1,,,0,,,55,64
84668,control_change,,,,,588,0,1,,,0,64,0,,
84822,note_on,,,,,154,0,1,,,0,,,63,44
84824,note_on,,,,,2,0,1,,,0,,,54,51
84858,control_change,,,,,34,0,1,,,0,64,127,,
84904,note_off,,,,,46,0,1,,,0,,,54,64
84920,note_off,,,,,16,0,1,,,0,,,63,64
85170,note_on,,,,,250,0,1,,,0,,,64,75
85178,note_on,,,,,8,0,1,,,0,,,55,60
85202,control_change,,,,,24,0,1,,,0,64,0,,
85304,control_change,,,,,102,0,1,,,0,64,127,,
85374,note_off,,,,,70,0,1,,,0,,,55,64
85382,note_on,,,,,8,0,1,,,0,,,58,54
85412,note_off,,,,,30,0,1,,,0,,,64,64
85472,note_off,,,,,60,0,1,,,0,,,58,64
85512,note_on,,,,,40,0,1,,,0,,,54,52
85608,note_on,,,,,96,0,1,,,0,,,59,45
85712,note_on,,,,,104,0,1,,,0,,,63,74
85732,control_change,,,,,20,0,1,,,0,64,0,,
85794,control_change,,,,,62,0,1,,,0,64,127,,
85798,note_off,,,,,4,0,1,,,0,,,59,64
85818,note_off,,,,,20,0,1,,,0,,,54,64
85830,note_off,,,,,12,0,1,,,0,,,63,64
85970,note_on,,,,,140,0,1,,,0,,,63,79
85980,note_on,,,,,10,0,1,,,0,,,54,62
86012,control_change,,,,,32,0,1,,,0,64,0,,
86064,control_change,,,,,52,0,1,,,0,64,127,,
86136,note_off,,,,,72,0,1,,,0,,,54,64
86138,note_off,,,,,2,0,1,,,0,,,63,64
86146,note_on,,,,,8,0,1,,,0,,,56,43
86216,note_off,,,,,70,0,1,,,0,,,56,64
86268,note_on,,,,,52,0,1,,,0,,,47,59
86406,note_on,,,,,0,0,1,,,0,,,53,73
86406,note_on,,,,,138,0,1,,,0,,,62,62
86450,control_change,,,,,44,0,1,,,0,64,0,,
86532,control_change,,,,,82,0,1,,,0,64,127,,
86548,note_off,,,,,16,0,1,,,0,,,62,64
86548,note_on,,,,,0,0,1,,,0,,,68,62
86552,note_on,,,,,4,0,1,,,0,,,59,44
86608,note_off,,,,,56,0,1,,,0,,,59,64
86704,note_on,,,,,96,0,1,,,0,,,74,50
86704,note_on,,,,,0,0,1,,,0,,,65,41
86724,note_off,,,,,0,0,1,,,0,,,68,64
86724,note_off,,,,,20,0,1,,,0,,,65,64
86744,note_off,,,,,20,0,1,,,0,,,74,64
86882,note_on,,,,,138,0,1,,,0,,,80,61
86888,note_on,,,,,6,0,1,,,0,,,71,44
86944,note_off,,,,,56,0,1,,,0,,,71,64
87026,note_off,,,,,82,0,1,,,0,,,80,64
87074,note_on,,,,,48,0,1,,,0,,,77,49
87080,note_on,,,,,6,0,1,,,0,,,86,50
87092,note_off,,,,,12,0,1,,,0,,,77,64
87120,note_off,,,,,28,0,1,,,0,,,86,64
87334,note_on,,,,,214,0,1,,,0,,,92,45
87334,note_on,,,,,0,0,1,,,0,,,83,40
87396,note_off,,,,,62,0,1,,,0,,,92,64
87410,note_off,,,,,14,0,1,,,0,,,83,64
87450,note_off,,,,,40,0,1,,,0,,,47,64
87498,note_off,,,,,48,0,1,,,0,,,53,64
88052,control_change,,,,,554,0,1,,,0,64,0,,
88174,note_on,,,,,122,0,1,,,0,,,63,71
88180,note_on,,,,,6,0,1,,,0,,,54,54
88252,control_change,,,,,72,0,1,,,0,64,127,,
88320,note_off,,,,,68,0,1,,,0,,,63,64
88392,note_off,,,,,72,0,1,,,0,,,54,64
88402,note_on,,,,,10,0,1,,,0,,,58,59
88418,note_on,,,,,16,0,1,,,0,,,55,42
88436,note_off,,,,,18,0,1,,,0,,,55,64
88484,note_off,,,,,48,0,1,,,0,,,58,64
88560,note_on,,,,,76,0,1,,,0,,,61,67
88566,note_on,,,,,6,0,1,,,0,,,52,58
88588,note_off,,,,,22,0,1,,,0,,,61,64
88600,note_off,,,,,12,0,1,,,0,,,52,64
88692,note_on,,,,,92,0,1,,,0,,,61,72
88694,note_on,,,,,2,0,1,,,0,,,52,69
88728,control_change,,,,,34,0,1,,,0,64,0,,
88768,control_change,,,,,40,0,1,,,0,64,127,,
88808,note_off,,,,,40,0,1,,,0,,,61,64
88820,note_off,,,,,12,0,1,,,0,,,52,64
88838,note_on,,,,,18,0,1,,,0,,,54,63
88940,note_off,,,,,102,0,1,,,0,,,54,64
88964,note_on,,,,,24,0,1,,,0,,,47,56
89100,note_on,,,,,136,0,1,,,0,,,51,67
89104,note_on,,,,,4,0,1,,,0,,,59,73
89146,control_change,,,,,42,0,1,,,0,64,0,,
89242,control_change,,,,,96,0,1,,,0,64,127,,
89256,note_on,,,,,14,0,1,,,0,,,54,62
89266,note_on,,,,,10,0,1,,,0,,,66,49
89300,note_off,,,,,34,0,1,,,0,,,54,64
89416,note_on,,,,,116,0,1,,,0,,,63,56
89418,note_on,,,,,2,0,1,,,0,,,71,54
89440,note_off,,,,,22,0,1,,,0,,,66,64
89446,note_off,,,,,6,0,1,,,0,,,63,64
89456,note_off,,,,,10,0,1,,,0,,,71,64
89586,note_on,,,,,130,0,1,,,0,,,66,42
89600,note_on,,,,,14,0,1,,,0,,,78,42
89634,note_off,,,,,34,0,1,,,0,,,66,64
89786,note_on,,,,,152,0,1,,,0,,,75,44
89792,note_on,,,,,6,0,1,,,0,,,83,36
89798,note_off,,,,,6,0,1,,,0,,,78,64
89812,note_off,,,,,14,0,1,,,0,,,75,64
89814,note_off,,,,,2,0,1,,,0,,,83,64
90056,note_on,,,,,242,0,1,,,0,,,90,31
90062,note_on,,,,,6,0,1,,,0,,,78,33
90128,note_off,,,,,66,0,1,,,0,,,78,64
90132,note_off,,,,,4,0,1,,,0,,,90,64
90248,note_off,,,,,116,0,1,,,0,,,59,64
90252,note_off,,,,,4,0,1,,,0,,,47,64
90282,note_off,,,,,30,0,1,,,0,,,51,64
90702,control_change,,,,,420,0,1,,,0,64,0,,
90766,note_on,,,,,64,0,1,,,0,,,58,81
90768,note_on,,,,,2,0,1,,,0,,,49,74
90820,control_change,,,,,52,0,1,,,0,64,127,,
90888,note_off,,,,,68,0,1,,,0,,,58,64
90912,note_off,,,,,24,0,1,,,0,,,49,64
90986,note_on,,,,,74,0,1,,,0,,,50,59
91024,note_off,,,,,38,0,1,,,0,,,50,64
91066,note_on,,,,,42,0,1,,,0,,,41,60
91158,note_on,,,,,92,0,1,,,0,,,47,59
91200,note_off,,,,,42,0,1,,,0,,,41,64
91256,note_on,,,,,56,0,1,,,0,,,56,75
91330,note_off,,,,,74,0,1,,,0,,,47,64
91368,note_off,,,,,38,0,1,,,0,,,56,64
91464,note_on,,,,,96,0,1,,,0,,,56,82
91472,note_on,,,,,8,0,1,,,0,,,52,71
91482,control_change,,,,,10,0,1,,,0,64,0,,
91544,control_change,,,,,62,0,1,,,0,64,127,,
91616,note_off,,,,,72,0,1,,,0,,,56,64
91634,note_off,,,,,18,0,1,,,0,,,52,64
91678,note_on,,,,,44,0,1,,,0,,,42,53
91810,note_on,,,,,132,0,1,,,0,,,47,63
91850,note_off,,,,,40,0,1,,,0,,,42,64
91932,note_on,,,,,82,0,1,,,0,,,54,68
91932,note_on,,,,,0,0,1,,,0,,,51,72
91934,note_off,,,,,2,0,1,,,0,,,47,64
91966,control_change,,,,,32,0,1,,,0,64,0,,
92064,control_change,,,,,98,0,1,,,0,64,127,,
92082,note_on,,,,,18,0,1,,,0,,,47,64
92204,note_off,,,,,122,0,1,,,0,,,51,64
92212,note_off,,,,,8,0,1,,,0,,,47,64
92212,note_on,,,,,0,0,1,,,0,,,42,62
92220,note_off,,,,,8,0,1,,,0,,,54,64
92236,note_off,,,,,16,0,1,,,0,,,42,64
92368,note_on,,,,,0,0,1,,,0,,,54,60
92368,note_on,,,,,132,0,1,,,0,,,63,67
92372,note_on,,,,,4,0,1,,,0,,,58,59
92408,control_change,,,,,36,0,1,,,0,64,0,,
92516,control_change,,,,,108,0,1,,,0,64,127,,
92520,note_on,,,,,4,0,1,,,0,,,42,50
92564,note_off,,,,,44,0,1,,,0,,,54,64
92596,note_off,,,,,32,0,1,,,0,,,58,64
92652,note_off,,,,,56,0,1,,,0,,,42,64
92686,note_on,,,,,34,0,1,,,0,,,52,49
92818,note_off,,,,,132,0,1,,,0,,,52,64
92876,note_on,,,,,58,0,1,,,0,,,58,53
92916,note_off,,,,,40,0,1,,,0,,,58,64
93080,note_off,,,,,164,0,1,,,0,,,63,64
93100,note_on,,,,,20,0,1,,,0,,,66,44
93152,note_off,,,,,52,0,1,,,0,,,66,64
93298,note_on,,,,,146,0,1,,,0,,,61,63
93302,note_on,,,,,4,0,1,,,0,,,52,38
93368,note_off,,,,,66,0,1,,,0,,,61,64
93436,note_off,,,,,68,0,1,,,0,,,52,64
93534,note_on,,,,,98,0,1,,,0,,,51,45
93536,note_on,,,,,2,0,1,,,0,,,59,52
93592,control_change,,,,,56,0,1,,,0,64,0,,
93720,note_on,,,,,128,0,1,,,0,,,35,25
93748,control_change,,,,,28,0,1,,,0,64,127,,
93860,note_off,,,,,112,0,1,,,0,,,51,64
93882,note_on,,,,,22,0,1,,,0,,,42,35
93900,note_off,,,,,18,0,1,,,0,,,59,64
94046,note_on,,,,,146,0,1,,,0,,,47,52
94052,note_off,,,,,6,0,1,,,0,,,35,64
94068,note_off,,,,,0,0,1,,,0,,,42,64
94068,note_off,,,,,16,0,1,,,0,,,47,64
94212,note_on,,,,,144,0,1,,,0,,,54,48
94398,note_on,,,,,186,0,1,,,0,,,59,39
94608,note_on,,,,,210,0,1,,,0,,,66,39
94612,note_off,,,,,4,0,1,,,0,,,59,64
94624,note_off,,,,,12,0,1,,,0,,,54,64
94656,note_off,,,,,32,0,1,,,0,,,66,64
94838,control_change,,,,,182,0,1,,,0,64,0,,
94840,note_on,,,,,2,0,1,,,0,,,65,47
94844,note_on,,,,,4,0,1,,,0,,,74,45
94846,note_on,,,,,2,0,1,,,0,,,71,29
94924,control_change,,,,,78,0,1,,,0,64,127,,
94956,note_off,,,,,32,0,1,,,0,,,74,64
94964,note_on,,,,,8,0,1,,,0,,,86,61
94968,note_off,,,,,4,0,1,,,0,,,65,64
94972,note_off,,,,,4,0,1,,,0,,,71,64
94972,note_on,,,,,0,0,1,,,0,,,77,34
95002,note_off,,,,,30,0,1,,,0,,,86,64
95004,note_off,,,,,2,0,1,,,0,,,77,64
95056,note_on,,,,,52,0,1,,,0,,,66,50
95066,note_on,,,,,10,0,1,,,0,,,75,66
95072,note_on,,,,,6,0,1,,,0,,,71,39
95096,note_off,,,,,24,0,1,,,0,,,71,64
95098,note_off,,,,,2,0,1,,,0,,,66,64
95134,note_on,,,,,36,0,1,,,0,,,78,63
95136,note_on,,,,,2,0,1,,,0,,,87,65
95138,note_off,,,,,2,0,1,,,0,,,75,64
95168,note_off,,,,,30,0,1,,,0,,,78,64
95180,note_off,,,,,12,0,1,,,0,,,87,64
95208,note_on,,,,,28,0,1,,,0,,,78,62
95212,note_on,,,,,4,0,1,,,0,,,70,62
95222,note_on,,,,,10,0,1,,,0,,,71,61
95230,control_change,,,,,8,0,1,,,0,64,0,,
95236,note_off,,,,,6,0,1,,,0,,,71,64
95266,control_change,,,,,30,0,1,,,0,64,127,,
95274,note_off,,,,,8,0,1,,,0,,,70,64
95284,note_on,,,,,10,0,1,,,0,,,90,68
95288,note_on,,,,,0,0,1,,,0,,,82,67
95288,note_off,,,,,4,0,1,,,0,,,78,64
95324,note_off,,,,,36,0,1,,,0,,,82,64
95334,note_off,,,,,10,0,1,,,0,,,90,64
95372,note_on,,,,,38,0,1,,,0,,,71,57
95376,note_on,,,,,4,0,1,,,0,,,68,52
95382,note_on,,,,,6,0,1,,,0,,,76,49
95386,control_change,,,,,4,0,1,,,0,64,0,,
95430,note_off,,,,,44,0,1,,,0,,,71,64
95430,control_change,,,,,0,0,1,,,0,64,127,,
95432,note_off,,,,,2,0,1,,,0,,,76,64
95432,note_off,,,,,0,0,1,,,0,,,68,64
95452,note_on,,,,,20,0,1,,,0,,,88,61
95462,note_on,,,,,10,0,1,,,0,,,80,53
95496,note_off,,,,,34,0,1,,,0,,,88,64
95500,note_off,,,,,4,0,1,,,0,,,80,64
95554,note_on,,,,,54,0,1,,,0,,,66,47
95566,note_on,,,,,12,0,1,,,0,,,71,36
95584,note_off,,,,,18,0,1,,,0,,,71,64
95594,note_off,,,,,10,0,1,,,0,,,66,64
95620,note_on,,,,,26,0,1,,,0,,,75,57
95680,note_on,,,,,60,0,1,,,0,,,87,69
95696,note_off,,,,,16,0,1,,,0,,,75,64
95698,note_on,,,,,2,0,1,,,0,,,78,60
95724,note_off,,,,,26,0,1,,,0,,,87,64
95730,note_off,,,,,6,0,1,,,0,,,78,64
95782,note_on,,,,,52,0,1,,,0,,,75,74
95838,note_on,,,,,56,0,1,,,0,,,87,78
95950,control_change,,,,,112,0,1,,,0,64,0,,
95984,note_on,,,,,34,0,1,,,0,,,35,53
95996,note_on,,,,,0,0,1,,,0,,,77,44
95996,note_on,,,,,12,0,1,,,0,,,80,59
96026,control_change,,,,,30,0,1,,,0,64,127,,
96042,note_off,,,,,16,0,1,,,0,,,77,64
96044,note_off,,,,,2,0,1,,,0,,,80,64
96116,note_off,,,,,72,0,1,,,0,,,35,64
96128,note_on,,,,,12,0,1,,,0,,,47,62
96140,note_on,,,,,12,0,1,,,0,,,80,59
96146,note_off,,,,,6,0,1,,,0,,,47,64
96150,note_on,,,,,4,0,1,,,0,,,77,36
96154,note_off,,,,,4,0,1,,,0,,,87,64
96160,note_off,,,,,6,0,1,,,0,,,75,64
96168,note_off,,,,,8,0,1,,,0,,,77,64
96186,note_off,,,,,18,0,1,,,0,,,80,64
96276,note_on,,,,,90,0,1,,,0,,,86,60
96280,note_on,,,,,4,0,1,,,0,,,74,59
96286,note_on,,,,,6,0,1,,,0,,,53,45
96288,note_on,,,,,2,0,1,,,0,,,56,47
96328,note_off,,,,,40,0,1,,,0,,,56,64
96344,note_off,,,,,16,0,1,,,0,,,53,64
96432,note_on,,,,,88,0,1,,,0,,,56,57
96438,note_on,,,,,6,0,1,,,0,,,80,57
96440,note_on,,,,,2,0,1,,,0,,,62,41
96472,note_off,,,,,32,0,1,,,0,,,56,64
96486,note_off,,,,,14,0,1,,,0,,,80,64
96488,note_off,,,,,2,0,1,,,0,,,62,64
96612,note_on,,,,,124,0,1,,,0,,,80,47
96618,note_on,,,,,6,0,1,,,0,,,65,49
96624,note_on,,,,,6,0,1,,,0,,,62,54
96640,note_off,,,,,16,0,1,,,0,,,62,64
96656,note_off,,,,,16,0,1,,,0,,,65,64
96666,note_off,,,,,10,0,1,,,0,,,80,64
96854,note_on,,,,,188,0,1,,,0,,,68,38
96864,note_on,,,,,10,0,1,,,0,,,80,48
96864,note_on,,,,,0,0,1,,,0,,,77,33
96870,note_on,,,,,6,0,1,,,0,,,65,26
97144,note_off,,,,,274,0,1,,,0,,,77,64
97208,note_off,,,,,64,0,1,,,0,,,86,64
97256,note_off,,,,,48,0,1,,,0,,,68,64
97258,note_off,,,,,2,0,1,,,0,,,65,64
97276,note_off,,,,,18,0,1,,,0,,,74,64
97300,note_off,,,,,24,0,1,,,0,,,80,64
97478,control_change,,,,,178,0,1,,,0,64,0,,
97596,note_on,,,,,118,0,1,,,0,,,73,57
97596,note_on,,,,,0,0,1,,,0,,,70,18
97600,note_on,,,,,4,0,1,,,0,,,64,54
97622,control_change,,,,,22,0,1,,,0,64,127,,
97676,note_off,,,,,54,0,1,,,0,,,64,64
97684,note_off,,,,,8,0,1,,,0,,,70,64
97732,note_off,,,,,48,0,1,,,0,,,73,64
97736,note_on,,,,,4,0,1,,,0,,,85,63
97740,note_on,,,,,4,0,1,,,0,,,76,57
97752,note_off,,,,,12,0,1,,,0,,,76,64
97776,note_off,,,,,24,0,1,,,0,,,85,64
97826,note_on,,,,,50,0,1,,,0,,,66,58
97828,note_on,,,,,0,0,1,,,0,,,70,45
97828,note_on,,,,,2,0,1,,,0,,,75,70
97844,note_off,,,,,16,0,1,,,0,,,66,64
97864,note_off,,,,,20,0,1,,,0,,,70,64
97890,note_off,,,,,26,0,1,,,0,,,75,64
97904,note_on,,,,,14,0,1,,,0,,,87,71
97912,note_on,,,,,8,0,1,,,0,,,78,24
97924,note_off,,,,,12,0,1,,,0,,,78,64
97948,note_off,,,,,24,0,1,,,0,,,87,64
97972,note_on,,,,,24,0,1,,,0,,,69,69
97976,note_on,,,,,4,0,1,,,0,,,78,70
97980,note_on,,,,,4,0,1,,,0,,,70,66
97982,control_change,,,,,2,0,1,,,0,64,0,,
98012,note_off,,,,,30,0,1,,,0,,,70,64
98032,control_change,,,,,20,0,1,,,0,64,127,,
98044,note_off,,,,,12,0,1,,,0,,,78,64
98050,note_on,,,,,0,0,1,,,0,,,90,59
98050,note_off,,,,,6,0,1,,,0,,,69,64
98062,note_on,,,,,12,0,1,,,0,,,81,46
98076,note_off,,,,,14,0,1,,,0,,,90,64
98080,note_off,,,,,4,0,1,,,0,,,81,64
98128,control_change,,,,,48,0,1,,,0,64,0,,
98134,note_on,,,,,6,0,1,,,0,,,76,54
98144,note_on,,,,,10,0,1,,,0,,,67,48
98160,control_change,,,,,16,0,1,,,0,64,127,,
98162,note_off,,,,,2,0,1,,,0,,,67,64
98182,note_off,,,,,20,0,1,,,0,,,76,64
98218,note_on,,,,,36,0,1,,,0,,,88,54
98222,note_on,,,,,4,0,1,,,0,,,79,45
98258,note_off,,,,,36,0,1,,,0,,,88,64
98270,note_off,,,,,12,0,1,,,0,,,79,64
98320,note_on,,,,,50,0,1,,,0,,,67,47
98336,note_off,,,,,16,0,1,,,0,,,67,64
98372,note_on,,,,,36,0,1,,,0,,,73,63
98420,note_on,,,,,48,0,1,,,0,,,85,67
98424,note_on,,,,,4,0,1,,,0,,,76,54
98428,note_off,,,,,4,0,1,,,0,,,73,64
98440,note_off,,,,,12,0,1,,,0,,,76,64
98466,note_off,,,,,26,0,1,,,0,,,85,64
98502,note_on,,,,,36,0,1,,,0,,,73,71
98542,note_on,,,,,40,0,1,,,0,,,85,76
98670,control_change,,,,,128,0,1,,,0,64,0,,
98688,note_on,,,,,18,0,1,,,0,,,35,45
98694,note_on,,,,,6,0,1,,,0,,,78,59
98700,note_on,,,,,6,0,1,,,0,,,75,42
98720,note_off,,,,,20,0,1,,,0,,,75,64
98738,note_off,,,,,18,0,1,,,0,,,78,64
98738,control_change,,,,,0,0,1,,,0,64,127,,
98824,note_on,,,,,86,0,1,,,0,,,78,50
98830,note_off,,,,,6,0,1,,,0,,,35,64
98832,note_on,,,,,0,0,1,,,0,,,47,46
98832,note_on,,,,,2,0,1,,,0,,,75,47
98834,note_off,,,,,2,0,1,,,0,,,85,64
98844,note_off,,,,,10,0,1,,,0,,,73,64
98852,note_off,,,,,8,0,1,,,0,,,47,64
98856,note_off,,,,,4,0,1,,,0,,,75,64
98880,note_off,,,,,24,0,1,,,0,,,78,64
98972,note_on,,,,,92,0,1,,,0,,,83,54
98976,note_on,,,,,4,0,1,,,0,,,71,58
98978,note_on,,,,,2,0,1,,,0,,,51,43
98984,note_on,,,,,6,0,1,,,0,,,54,31
99024,note_off,,,,,40,0,1,,,0,,,54,64
99046,note_off,,,,,22,0,1,,,0,,,51,64
99134,note_on,,,,,88,0,1,,,0,,,78,50
99136,note_on,,,,,2,0,1,,,0,,,54,31
99138,note_on,,,,,2,0,1,,,0,,,59,58
99144,note_on,,,,,6,0,1,,,0,,,75,28
99166,note_off,,,,,22,0,1,,,0,,,75,64
99176,note_off,,,,,10,0,1,,,0,,,54,64
99178,note_off,,,,,2,0,1,,,0,,,59,64
99178,note_off,,,,,0,0,1,,,0,,,78,64
99300,note_on,,,,,122,0,1,,,0,,,63,47
99304,note_on,,,,,0,0,1,,,0,,,59,31
99304,note_on,,,,,4,0,1,,,0,,,78,45
99344,note_off,,,,,0,0,1,,,0,,,63,64
99344,note_off,,,,,40,0,1,,,0,,,59,64
99356,note_off,,,,,12,0,1,,,0,,,78,64
99528,note_on,,,,,172,0,1,,,0,,,78,31
99532,note_on,,,,,4,0,1,,,0,,,63,39
99536,note_on,,,,,4,0,1,,,0,,,75,28
99542,note_on,,,,,6,0,1,,,0,,,66,33
99612,note_off,,,,,70,0,1,,,0,,,66,64
99620,note_off,,,,,8,0,1,,,0,,,63,64
99696,note_off,,,,,76,0,1,,,0,,,83,64
99792,note_off,,,,,96,0,1,,,0,,,71,64
99810,note_off,,,,,18,0,1,,,0,,,75,64
99822,note_off,,,,,12,0,1,,,0,,,78,64
100072,note_on,,,,,250,0,1,,,0,,,70,62
100078,note_on,,,,,6,0,1,,,0,,,62,57
100114,control_change,,,,,36,0,1,,,0,64,0,,
100218,control_change,,,,,104,0,1,,,0,64,127,,
100234,note_on,,,,,16,0,1,,,0,,,82,61
100248,note_off,,,,,14,0,1,,,0,,,70,64
100250,note_on,,,,,2,0,1,,,0,,,74,32
100296,note_off,,,,,46,0,1,,,0,,,74,64
100304,note_off,,,,,8,0,1,,,0,,,82,64
100338,note_on,,,,,34,0,1,,,0,,,63,68
100348,note_on,,,,,10,0,1,,,0,,,71,62
100356,note_off,,,,,8,0,1,,,0,,,62,64
100434,note_on,,,,,78,0,1,,,0,,,83,60
100436,note_on,,,,,2,0,1,,,0,,,75,56
100448,note_off,,,,,12,0,1,,,0,,,71,64
100482,note_on,,,,,34,0,1,,,0,,,56,76
100484,note_off,,,,,2,0,1,,,0,,,63,64
100488,note_off,,,,,0,0,1,,,0,,,83,64
100488,note_off,,,,,4,0,1,,,0,,,75,64
100724,note_on,,,,,236,0,1,,,0,,,73,70
100730,note_on,,,,,6,0,1,,,0,,,64,68
100768,control_change,,,,,38,0,1,,,0,64,0,,
100824,control_change,,,,,56,0,1,,,0,64,127,,
100874,note_on,,,,,50,0,1,,,0,,,76,61
100876,note_on,,,,,2,0,1,,,0,,,85,66
100884,note_off,,,,,8,0,1,,,0,,,73,64
100916,note_off,,,,,32,0,1,,,0,,,76,64
100920,note_off,,,,,4,0,1,,,0,,,85,64
100974,note_on,,,,,54,0,1,,,0,,,71,76
100976,note_off,,,,,2,0,1,,,0,,,64,64
100978,note_on,,,,,2,0,1,,,0,,,63,60
101032,note_off,,,,,54,0,1,,,0,,,71,64
101058,note_on,,,,,26,0,1,,,0,,,83,66
101060,note_on,,,,,2,0,1,,,0,,,75,63
101090,note_off,,,,,30,0,1,,,0,,,83,64
101098,note_off,,,,,8,0,1,,,0,,,75,64
101144,note_on,,,,,46,0,1,,,0,,,59,66
101166,note_off,,,,,22,0,1,,,0,,,63,64
101188,note_off,,,,,22,0,1,,,0,,,56,64
101190,note_on,,,,,2,0,1,,,0,,,68,77
101192,note_off,,,,,2,0,1,,,0,,,59,64
101248,note_on,,,,,56,0,1,,,0,,,80,71
101262,note_off,,,,,14,0,1,,,0,,,68,64
101264,note_on,,,,,2,0,1,,,0,,,71,58
101298,note_off,,,,,34,0,1,,,0,,,80,64
101300,note_off,,,,,2,0,1,,,0,,,71,64
101346,note_on,,,,,46,0,1,,,0,,,67,66
101352,note_on,,,,,6,0,1,,,0,,,79,71
101500,control_change,,,,,148,0,1,,,0,64,0,,
101528,note_on,,,,,28,0,1,,,0,,,46,57
101534,note_on,,,,,6,0,1,,,0,,,75,54
101536,note_on,,,,,2,0,1,,,0,,,71,53
101544,note_on,,,,,0,0,1,,,0,,,55,52
101544,note_on,,,,,8,0,1,,,0,,,59,57
101566,note_off,,,,,22,0,1,,,0,,,55,64
101566,note_off,,,,,0,0,1,,,0,,,59,64
101570,control_change,,,,,4,0,1,,,0,64,127,,
101572,note_off,,,,,2,0,1,,,0,,,46,64
101576,note_off,,,,,4,0,1,,,0,,,71,64
101582,note_off,,,,,6,0,1,,,0,,,75,64
101644,note_on,,,,,62,0,1,,,0,,,46,56
101648,note_on,,,,,4,0,1,,,0,,,59,57
101652,note_on,,,,,4,0,1,,,0,,,75,57
101654,note_on,,,,,2,0,1,,,0,,,71,54
101656,note_off,,,,,2,0,1,,,0,,,79,64
101658,note_on,,,,,2,0,1,,,0,,,55,55
101670,note_off,,,,,0,0,1,,,0,,,67,64
101670,note_off,,,,,12,0,1,,,0,,,59,64
101672,note_off,,,,,2,0,1,,,0,,,55,64
101676,note_off,,,,,4,0,1,,,0,,,46,64
101678,note_off,,,,,2,0,1,,,0,,,71,64
101686,note_off,,,,,8,0,1,,,0,,,75,64
101762,note_on,,,,,76,0,1,,,0,,,78,78
101764,note_on,,,,,2,0,1,,,0,,,66,72
101796,control_change,,,,,32,0,1,,,0,64,0,,
101886,note_on,,,,,90,0,1,,,0,,,46,62
101888,note_on,,,,,2,0,1,,,0,,,58,49
101890,control_change,,,,,2,0,1,,,0,64,127,,
101894,note_on,,,,,0,0,1,,,0,,,54,59
101894,note_on,,,,,4,0,1,,,0,,,70,50
101902,note_on,,,,,8,0,1,,,0,,,75,40
101910,note_off,,,,,8,0,1,,,0,,,54,64
101914,note_off,,,,,4,0,1,,,0,,,70,64
101916,note_off,,,,,2,0,1,,,0,,,58,64
101920,note_off,,,,,4,0,1,,,0,,,75,64
101920,note_off,,,,,0,0,1,,,0,,,46,64
101994,note_on,,,,,74,0,1,,,0,,,58,54
101996,note_on,,,,,0,0,1,,,0,,,46,50
101996,note_on,,,,,2,0,1,,,0,,,54,52
102000,note_on,,,,,4,0,1,,,0,,,75,59
102008,note_on,,,,,8,0,1,,,0,,,70,36
102010,note_off,,,,,2,0,1,,,0,,,66,64
102016,note_off,,,,,6,0,1,,,0,,,78,64
102020,note_off,,,,,4,0,1,,,0,,,46,64
102020,note_off,,,,,0,0,1,,,0,,,54,64
102022,note_off,,,,,2,0,1,,,0,,,70,64
102024,note_off,,,,,2,0,1,,,0,,,58,64
102034,note_off,,,,,10,0,1,,,0,,,75,64
102124,note_on,,,,,90,0,1,,,0,,,83,77
102128,note_on,,,,,4,0,1,,,0,,,71,71
102158,control_change,,,,,30,0,1,,,0,64,0,,
102238,control_change,,,,,80,0,1,,,0,64,127,,
102246,note_on,,,,,8,0,1,,,0,,,77,51
102248,note_on,,,,,2,0,1,,,0,,,68,57
102252,note_on,,,,,4,0,1,,,0,,,74,41
102256,note_on,,,,,4,0,1,,,0,,,65,51
102256,note_on,,,,,0,0,1,,,0,,,58,53
102260,note_on,,,,,4,0,1,,,0,,,62,32
102268,note_off,,,,,8,0,1,,,0,,,65,64
102272,note_off,,,,,4,0,1,,,0,,,58,64
102274,note_off,,,,,2,0,1,,,0,,,62,64
102284,note_off,,,,,10,0,1,,,0,,,68,64
102288,note_off,,,,,4,0,1,,,0,,,74,64
102288,note_off,,,,,0,0,1,,,0,,,77,64
102352,note_on,,,,,64,0,1,,,0,,,68,59
102356,note_on,,,,,4,0,1,,,0,,,74,62
102356,note_on,,,,,0,0,1,,,0,,,58,57
102358,note_on,,,,,2,0,1,,,0,,,77,59
102360,note_on,,,,,2,0,1,,,0,,,62,53
102362,note_on,,,,,2,0,1,,,0,,,65,56
102376,note_off,,,,,14,0,1,,,0,,,62,64
102378,note_off,,,,,2,0,1,,,0,,,65,64
102382,note_off,,,,,4,0,1,,,0,,,58,64
102388,note_off,,,,,6,0,1,,,0,,,68,64
102392,note_off,,,,,4,0,1,,,0,,,74,64
102404,note_off,,,,,12,0,1,,,0,,,77,64
102460,note_on,,,,,56,0,1,,,0,,,68,63
102460,note_on,,,,,0,0,1,,,0,,,58,52
102466,note_on,,,,,6,0,1,,,0,,,65,61
102468,note_on,,,,,2,0,1,,,0,,,77,63
102468,note_on,,,,,0,0,1,,,0,,,74,59
102474,note_on,,,,,6,0,1,,,0,,,62,63
102486,note_off,,,,,12,0,1,,,0,,,62,64
102492,note_off,,,,,6,0,1,,,0,,,58,64
102492,note_off,,,,,0,0,1,,,0,,,68,64
102496,note_off,,,,,4,0,1,,,0,,,65,64
102508,note_off,,,,,12,0,1,,,0,,,74,64
102516,note_off,,,,,8,0,1,,,0,,,77,64
102576,note_on,,,,,60,0,1,,,0,,,58,50
102580,note_on,,,,,4,0,1,,,0,,,77,57
102584,note_on,,,,,0,0,1,,,0,,,68,63
102584,note_on,,,,,0,0,1,,,0,,,65,50
102584,note_on,,,,,0,0,1,,,0,,,62,52
102584,note_on,,,,,4,0,1,,,0,,,74,41
102598,note_off,,,,,14,0,1,,,0,,,62,64
102598,note_off,,,,,0,0,1,,,0,,,83,64
102608,note_off,,,,,10,0,1,,,0,,,71,64
102612,note_off,,,,,4,0,1,,,0,,,65,64
102614,note_off,,,,,2,0,1,,,0,,,58,64
102616,note_off,,,,,2,0,1,,,0,,,68,64
102632,note_off,,,,,16,0,1,,,0,,,77,64
102636,note_off,,,,,4,0,1,,,0,,,74,64
102696,note_on,,,,,60,0,1,,,0,,,82,74
102696,note_on,,,,,0,0,1,,,0,,,70,68
102720,note_off,,,,,24,0,1,,,0,,,70,64
102726,note_off,,,,,6,0,1,,,0,,,82,64
102822,note_on,,,,,96,0,1,,,0,,,80,74
102822,note_on,,,,,0,0,1,,,0,,,68,72
102924,control_change,,,,,102,0,1,,,0,64,0,,
102946,note_on,,,,,22,0,1,,,0,,,46,62
102952,note_on,,,,,6,0,1,,,0,,,56,65
102956,note_on,,,,,4,0,1,,,0,,,71,54
102958,note_on,,,,,2,0,1,,,0,,,75,66
102960,note_on,,,,,2,0,1,,,0,,,59,35
102976,note_off,,,,,16,0,1,,,0,,,71,64
102990,control_change,,,,,14,0,1,,,0,64,127,,
102992,note_off,,,,,2,0,1,,,0,,,59,64
103000,note_off,,,,,8,0,1,,,0,,,56,64
103004,note_off,,,,,4,0,1,,,0,,,75,64
103004,note_off,,,,,0,0,1,,,0,,,46,64
103062,note_on,,,,,58,0,1,,,0,,,75,65
103064,note_on,,,,,2,0,1,,,0,,,56,59
103068,note_on,,,,,4,0,1,,,0,,,71,56
103072,note_on,,,,,4,0,1,,,0,,,59,42
103076,note_off,,,,,4,0,1,,,0,,,80,64
103080,note_on,,,,,4,0,1,,,0,,,46,62
103092,note_off,,,,,12,0,1,,,0,,,59,64
103094,note_off,,,,,2,0,1,,,0,,,68,64
103098,note_off,,,,,4,0,1,,,0,,,56,64
103108,note_off,,,,,10,0,1,,,0,,,75,64
103110,note_off,,,,,2,0,1,,,0,,,71,64
103138,note_off,,,,,28,0,1,,,0,,,46,64
103172,note_on,,,,,34,0,1,,,0,,,78,80
103174,note_on,,,,,2,0,1,,,0,,,66,78
103230,control_change,,,,,56,0,1,,,0,64,0,,
103284,note_on,,,,,54,0,1,,,0,,,46,70
103288,note_on,,,,,4,0,1,,,0,,,58,61
103292,note_on,,,,,4,0,1,,,0,,,54,65
103300,note_on,,,,,8,0,1,,,0,,,75,62
103302,control_change,,,,,2,0,1,,,0,64,127,,
103304,note_on,,,,,2,0,1,,,0,,,70,53
103320,note_off,,,,,16,0,1,,,0,,,54,64
103320,note_off,,,,,0,0,1,,,0,,,58,64
103324,note_off,,,,,0,0,1,,,0,,,46,64
103324,note_off,,,,,4,0,1,,,0,,,70,64
103342,note_off,,,,,18,0,1,,,0,,,75,64
103396,note_on,,,,,54,0,1,,,0,,,46,69
103400,note_on,,,,,0,0,1,,,0,,,54,58
103400,note_on,,,,,4,0,1,,,0,,,58,58
103406,note_on,,,,,6,0,1,,,0,,,75,65
103410,note_off,,,,,4,0,1,,,0,,,66,64
103414,note_on,,,,,4,0,1,,,0,,,70,31
103424,note_off,,,,,10,0,1,,,0,,,54,64
103426,note_off,,,,,2,0,1,,,0,,,46,64
103428,note_off,,,,,2,0,1,,,0,,,70,64
103430,note_off,,,,,2,0,1,,,0,,,58,64
103432,note_off,,,,,2,0,1,,,0,,,78,64
103440,note_off,,,,,8,0,1,,,0,,,75,64
103522,note_on,,,,,82,0,1,,,0,,,85,90
103526,note_on,,,,,4,0,1,,,0,,,73,78
103568,control_change,,,,,42,0,1,,,0,64,0,,
103636,note_on,,,,,0,0,1,,,0,,,58,77
103636,note_on,,,,,68,0,1,,,0,,,68,69
103642,control_change,,,,,6,0,1,,,0,64,127,,
103648,note_on,,,,,6,0,1,,,0,,,80,62
103648,note_on,,,,,0,0,1,,,0,,,65,62
103652,note_on,,,,,4,0,1,,,0,,,77,55
103664,note_off,,,,,12,0,1,,,0,,,65,64
103664,note_on,,,,,0,0,1,,,0,,,62,32
103670,note_off,,,,,6,0,1,,,0,,,68,64
103672,note_off,,,,,2,0,1,,,0,,,58,64
103674,note_off,,,,,2,0,1,,,0,,,77,64
103676,note_off,,,,,2,0,1,,,0,,,62,64
103688,note_off,,,,,12,0,1,,,0,,,80,64
103748,note_on,,,,,60,0,1,,,0,,,58,61
103750,note_on,,,,,2,0,1,,,0,,,68,59
103752,note_on,,,,,2,0,1,,,0,,,80,69
103752,note_on,,,,,0,0,1,,,0,,,65,59
103758,note_on,,,,,0,0,1,,,0,,,62,57
103758,note_on,,,,,6,0,1,,,0,,,77,60
103774,note_off,,,,,16,0,1,,,0,,,62,64
103778,note_off,,,,,4,0,1,,,0,,,58,64
103782,note_off,,,,,4,0,1,,,0,,,85,64
103784,note_off,,,,,2,0,1,,,0,,,65,64
103784,note_off,,,,,0,0,1,,,0,,,68,64
103788,note_off,,,,,4,0,1,,,0,,,73,64
103796,note_off,,,,,8,0,1,,,0,,,77,64
103810,note_off,,,,,14,0,1,,,0,,,80,64
103864,note_on,,,,,0,0,1,,,0,,,58,53
103864,note_on,,,,,54,0,1,,,0,,,68,60
103870,note_on,,,,,6,0,1,,,0,,,83,75
103870,note_on,,,,,0,0,1,,,0,,,80,66
103872,note_on,,,,,0,0,1,,,0,,,62,61
103872,note_on,,,,,2,0,1,,,0,,,71,72
103874,note_on,,,,,2,0,1,,,0,,,65,65
103880,note_on,,,,,6,0,1,,,0,,,77,49
103898,note_off,,,,,18,0,1,,,0,,,58,64
103900,note_off,,,,,2,0,1,,,0,,,68,64
103902,note_off,,,,,2,0,1,,,0,,,65,64
103908,note_off,,,,,6,0,1,,,0,,,62,64
103914,note_off,,,,,6,0,1,,,0,,,77,64
103916,note_off,,,,,2,0,1,,,0,,,80,64
103982,note_on,,,,,66,0,1,,,0,,,58,63
103986,note_on,,,,,4,0,1,,,0,,,65,59
103988,note_on,,,,,2,0,1,,,0,,,68,66
103992,note_on,,,,,4,0,1,,,0,,,80,65
103994,note_on,,,,,2,0,1,,,0,,,62,62
103998,note_on,,,,,4,0,1,,,0,,,77,63
104010,note_off,,,,,12,0,1,,,0,,,62,64
104016,note_off,,,,,6,0,1,,,0,,,58,64
104018,note_off,,,,,2,0,1,,,0,,,65,64
104020,note_off,,,,,2,0,1,,,0,,,68,64
104048,note_off,,,,,0,0,1,,,0,,,80,64
104048,note_off,,,,,28,0,1,,,0,,,77,64
104052,note_off,,,,,4,0,1,,,0,,,71,64
104120,note_off,,,,,68,0,1,,,0,,,83,64
104222,note_on,,,,,102,0,1,,,0,,,82,79
104226,note_on,,,,,4,0,1,,,0,,,70,67
104250,note_off,,,,,24,0,1,,,0,,,70,64
104252,note_off,,,,,2,0,1,,,0,,,82,64
104342,note_on,,,,,90,0,1,,,0,,,68,74
104344,note_on,,,,,2,0,1,,,0,,,80,80
104412,control_change,,,,,68,0,1,,,0,64,0,,
104492,note_on,,,,,80,0,1,,,0,,,46,57
104498,note_on,,,,,6,0,1,,,0,,,58,41
104498,note_on,,,,,0,0,1,,,0,,,54,62
104500,note_on,,,,,0,0,1,,,0,,,70,57
104500,note_on,,,,,2,0,1,,,0,,,75,62
104508,control_change,,,,,8,0,1,,,0,64,127,,
104518,note_off,,,,,10,0,1,,,0,,,80,64
104524,note_off,,,,,6,0,1,,,0,,,68,64
104528,note_off,,,,,4,0,1,,,0,,,58,64
104536,note_off,,,,,8,0,1,,,0,,,54,64
104546,note_off,,,,,10,0,1,,,0,,,75,64
104546,note_off,,,,,0,0,1,,,0,,,46,64
104560,note_off,,,,,14,0,1,,,0,,,70,64
104570,note_on,,,,,10,0,1,,,0,,,78,70
104570,note_on,,,,,0,0,1,,,0,,,66,78
104634,control_change,,,,,64,0,1,,,0,64,0,,
104636,note_on,,,,,0,0,1,,,0,,,46,70
104636,note_on,,,,,2,0,1,,,0,,,58,61
104638,note_on,,,,,2,0,1,,,0,,,54,56
104646,note_on,,,,,8,0,1,,,0,,,75,68
104652,note_on,,,,,6,0,1,,,0,,,70,57
104654,control_change,,,,,2,0,1,,,0,64,127,,
104658,note_off,,,,,4,0,1,,,0,,,66,64
104676,note_off,,,,,18,0,1,,,0,,,58,64
104678,note_off,,,,,2,0,1,,,0,,,70,64
104688,note_off,,,,,10,0,1,,,0,,,46,64
104690,note_off,,,,,2,0,1,,,0,,,54,64
104694,note_off,,,,,4,0,1,,,0,,,78,64
104696,note_off,,,,,2,0,1,,,0,,,75,64
104808,note_on,,,,,0,0,1,,,0,,,80,87
104808,note_on,,,,,112,0,1,,,0,,,92,88
104864,control_change,,,,,56,0,1,,,0,64,0,,
104868,control_change,,,,,4,0,1,,,0,64,127,,
104964,note_on,,,,,96,0,1,,,0,,,63,69
104966,note_on,,,,,2,0,1,,,0,,,54,56
104968,note_on,,,,,2,0,1,,,0,,,82,55
104970,note_on,,,,,2,0,1,,,0,,,58,71
104974,note_on,,,,,4,0,1,,,0,,,87,62
104986,note_off,,,,,0,0,1,,,0,,,92,64
104986,note_off,,,,,12,0,1,,,0,,,80,64
105010,note_off,,,,,0,0,1,,,0,,,63,64
105010,note_off,,,,,24,0,1,,,0,,,54,64
105012,note_off,,,,,2,0,1,,,0,,,58,64
105038,note_off,,,,,26,0,1,,,0,,,87,64
105044,note_on,,,,,6,0,1,,,0,,,90,79
105046,note_off,,,,,2,0,1,,,0,,,82,64
105046,note_on,,,,,0,0,1,,,0,,,78,75
105084,note_on,,,,,0,0,1,,,0,,,54,50
105084,note_on,,,,,38,0,1,,,0,,,63,62
105088,note_on,,,,,4,0,1,,,0,,,58,68
105108,note_on,,,,,20,0,1,,,0,,,87,69
105112,note_on,,,,,4,0,1,,,0,,,82,56
105114,note_off,,,,,2,0,1,,,0,,,78,64
105124,note_off,,,,,10,0,1,,,0,,,54,64
105124,note_off,,,,,0,0,1,,,0,,,90,64
105132,note_off,,,,,0,0,1,,,0,,,63,64
105132,note_off,,,,,8,0,1,,,0,,,58,64
105150,note_off,,,,,18,0,1,,,0,,,82,64
105176,note_off,,,,,26,0,1,,,0,,,87,64
105198,note_on,,,,,22,0,1,,,0,,,54,65
105200,note_on,,,,,2,0,1,,,0,,,89,77
105202,note_on,,,,,2,0,1,,,0,,,58,68
105204,note_on,,,,,2,0,1,,,0,,,63,60
105208,note_on,,,,,4,0,1,,,0,,,77,71
105242,note_off,,,,,34,0,1,,,0,,,77,64
105244,note_off,,,,,2,0,1,,,0,,,58,64
105248,note_off,,,,,4,0,1,,,0,,,54,64
105252,note_off,,,,,4,0,1,,,0,,,63,64
105258,note_off,,,,,6,0,1,,,0,,,89,64
105316,note_on,,,,,58,0,1,,,0,,,65,67
105316,note_on,,,,,0,0,1,,,0,,,54,71
105318,note_on,,,,,2,0,1,,,0,,,58,57
105320,note_on,,,,,2,0,1,,,0,,,82,53
105320,note_on,,,,,0,0,1,,,0,,,78,53
105322,note_on,,,,,2,0,1,,,0,,,63,28
105332,note_off,,,,,0,0,1,,,0,,,82,64
105332,note_off,,,,,10,0,1,,,0,,,78,64
105348,note_off,,,,,0,0,1,,,0,,,65,64
105348,note_off,,,,,16,0,1,,,0,,,63,64
105352,note_off,,,,,4,0,1,,,0,,,54,64
105354,note_off,,,,,2,0,1,,,0,,,58,64
105386,note_on,,,,,32,0,1,,,0,,,87,77
105392,note_on,,,,,6,0,1,,,0,,,75,84
105432,note_on,,,,,40,0,1,,,0,,,65,67
105432,note_on,,,,,0,0,1,,,0,,,63,63
105432,note_on,,,,,0,0,1,,,0,,,58,67
105432,note_on,,,,,0,0,1,,,0,,,54,68
105454,note_on,,,,,0,0,1,,,0,,,78,67
105454,note_on,,,,,22,0,1,,,0,,,82,66
105460,note_off,,,,,6,0,1,,,0,,,75,64
105470,note_off,,,,,10,0,1,,,0,,,87,64
105474,note_off,,,,,4,0,1,,,0,,,65,64
105476,note_off,,,,,2,0,1,,,0,,,54,64
105484,note_off,,,,,8,0,1,,,0,,,58,64
105488,note_off,,,,,4,0,1,,,0,,,78,64
105492,note_off,,,,,4,0,1,,,0,,,63,64
105498,note_off,,,,,6,0,1,,,0,,,82,64
105548,note_on,,,,,50,0,1,,,0,,,63,50
105548,note_on,,,,,0,0,1,,,0,,,54,68
105552,note_on,,,,,4,0,1,,,0,,,81,79
105554,note_on,,,,,2,0,1,,,0,,,69,86
105556,note_on,,,,,0,0,1,,,0,,,58,62
105556,note_on,,,,,2,0,1,,,0,,,65,62
105584,note_off,,,,,28,0,1,,,0,,,65,64
105586,note_off,,,,,2,0,1,,,0,,,54,64
105598,note_off,,,,,12,0,1,,,0,,,63,64
105600,note_off,,,,,2,0,1,,,0,,,58,64
105654,note_off,,,,,54,0,1,,,0,,,69,64
105664,note_on,,,,,10,0,1,,,0,,,78,70
105668,control_change,,,,,4,0,1,,,0,64,0,,
105672,note_on,,,,,4,0,1,,,0,,,75,60
105672,note_on,,,,,0,0,1,,,0,,,63,62
105674,note_on,,,,,2,0,1,,,0,,,54,67
105676,note_on,,,,,2,0,1,,,0,,,66,68
105684,control_change,,,,,0,0,1,,,0,64,127,,
105684,note_on,,,,,0,0,1,,,0,,,58,60
105684,note_off,,,,,8,0,1,,,0,,,81,64
105714,note_off,,,,,30,0,1,,,0,,,54,64
105716,note_off,,,,,2,0,1,,,0,,,66,64
105718,note_off,,,,,2,0,1,,,0,,,75,64
105720,note_off,,,,,2,0,1,,,0,,,58,64
105726,note_off,,,,,6,0,1,,,0,,,63,64
105750,note_on,,,,,24,0,1,,,0,,,82,87
105752,note_on,,,,,0,0,1,,,0,,,70,72
105752,note_off,,,,,2,0,1,,,0,,,78,64
105796,control_change,,,,,44,0,1,,,0,64,0,,
105800,control_change,,,,,4,0,1,,,0,64,127,,
105816,note_on,,,,,16,0,1,,,0,,,66,67
105816,note_on,,,,,0,0,1,,,0,,,63,61
105820,note_on,,,,,4,0,1,,,0,,,54,67
105824,note_on,,,,,4,0,1,,,0,,,78,69
105824,note_on,,,,,0,0,1,,,0,,,58,58
105832,note_on,,,,,8,0,1,,,0,,,75,62
105852,note_off,,,,,20,0,1,,,0,,,70,64
105854,note_off,,,,,2,0,1,,,0,,,66,64
105862,note_off,,,,,8,0,1,,,0,,,63,64
105868,note_off,,,,,6,0,1,,,0,,,75,64
105872,note_off,,,,,4,0,1,,,0,,,58,64
105878,note_off,,,,,6,0,1,,,0,,,82,64
105880,note_off,,,,,0,0,1,,,0,,,54,64
105880,note_off,,,,,2,0,1,,,0,,,78,64
106004,note_on,,,,,0,0,1,,,0,,,73,90
106004,note_on,,,,,124,0,1,,,0,,,85,96
106028,control_change,,,,,24,0,1,,,0,64,0,,
106088,control_change,,,,,60,0,1,,,0,64,127,,
106138,note_off,,,,,50,0,1,,,0,,,73,64
106178,note_on,,,,,40,0,1,,,0,,,34,69
106186,note_on,,,,,8,0,1,,,0,,,80,74
106186,note_on,,,,,0,0,1,,,0,,,75,69
106188,note_on,,,,,2,0,1,,,0,,,77,67
106188,note_on,,,,,0,0,1,,,0,,,46,47
106210,note_off,,,,,22,0,1,,,0,,,34,64
106218,note_off,,,,,8,0,1,,,0,,,77,64
106220,note_off,,,,,2,0,1,,,0,,,46,64
106220,note_off,,,,,0,0,1,,,0,,,75,64
106232,note_off,,,,,12,0,1,,,0,,,80,64
106350,note_on,,,,,118,0,1,,,0,,,65,33
106356,note_on,,,,,6,0,1,,,0,,,80,77
106360,note_on,,,,,4,0,1,,,0,,,77,68
106362,note_on,,,,,2,0,1,,,0,,,68,75
106364,note_on,,,,,2,0,1,,,0,,,75,66
106368,note_on,,,,,4,0,1,,,0,,,56,61
106374,note_on,,,,,6,0,1,,,0,,,63,42
106380,note_on,,,,,6,0,1,,,0,,,59,44
106388,note_off,,,,,8,0,1,,,0,,,75,64
106390,note_off,,,,,2,0,1,,,0,,,63,64
106392,note_off,,,,,2,0,1,,,0,,,77,64
106396,note_off,,,,,4,0,1,,,0,,,56,64
106398,note_off,,,,,2,0,1,,,0,,,68,64
106402,note_off,,,,,4,0,1,,,0,,,59,64
106408,note_off,,,,,6,0,1,,,0,,,80,64
106410,note_off,,,,,2,0,1,,,0,,,65,64
106480,note_on,,,,,70,0,1,,,0,,,80,76
106480,note_on,,,,,0,0,1,,,0,,,77,75
106482,note_on,,,,,2,0,1,,,0,,,68,78
106484,note_on,,,,,0,0,1,,,0,,,65,69
106484,note_on,,,,,2,0,1,,,0,,,75,71
106486,note_on,,,,,2,0,1,,,0,,,56,67
106488,note_on,,,,,2,0,1,,,0,,,63,70
106492,note_on,,,,,4,0,1,,,0,,,59,64
106510,note_off,,,,,18,0,1,,,0,,,75,64
106512,note_off,,,,,2,0,1,,,0,,,56,64
106512,note_off,,,,,0,0,1,,,0,,,77,64
106520,note_off,,,,,8,0,1,,,0,,,68,64
106524,note_off,,,,,4,0,1,,,0,,,63,64
106526,note_off,,,,,2,0,1,,,0,,,65,64
106528,note_off,,,,,2,0,1,,,0,,,80,64
106534,note_off,,,,,6,0,1,,,0,,,59,64
106576,note_on,,,,,42,0,1,,,0,,,80,59
106578,note_on,,,,,2,0,1,,,0,,,77,71
106578,note_on,,,,,0,0,1,,,0,,,75,66
106584,note_on,,,,,6,0,1,,,0,,,68,71
106586,note_on,,,,,2,0,1,,,0,,,65,64
106588,note_on,,,,,2,0,1,,,0,,,56,63
106590,note_on,,,,,2,0,1,,,0,,,63,71
106594,note_on,,,,,4,0,1,,,0,,,59,71
106608,note_off,,,,,14,0,1,,,0,,,75,64
106612,note_off,,,,,4,0,1,,,0,,,56,64
106612,note_off,,,,,0,0,1,,,0,,,77,64
106616,note_off,,,,,4,0,1,,,0,,,68,64
106620,note_off,,,,,4,0,1,,,0,,,65,64
106622,note_off,,,,,2,0,1,,,0,,,80,64
106624,note_off,,,,,2,0,1,,,0,,,63,64
106628,note_off,,,,,4,0,1,,,0,,,59,64
106658,note_on,,,,,30,0,1,,,0,,,80,48
106660,note_on,,,,,2,0,1,,,0,,,77,69
106664,note_on,,,,,4,0,1,,,0,,,75,70
106668,note_on,,,,,4,0,1,,,0,,,65,59
106670,note_on,,,,,2,0,1,,,0,,,68,72
106674,note_on,,,,,4,0,1,,,0,,,63,63
106676,note_on,,,,,2,0,1,,,0,,,56,58
106686,note_on,,,,,10,0,1,,,0,,,59,38
106694,note_off,,,,,8,0,1,,,0,,,75,64
106698,note_off,,,,,4,0,1,,,0,,,77,64
106704,note_off,,,,,6,0,1,,,0,,,56,64
106708,note_off,,,,,4,0,1,,,0,,,68,64
106708,note_off,,,,,0,0,1,,,0,,,80,64
106710,note_off,,,,,2,0,1,,,0,,,59,64
106710,note_off,,,,,0,0,1,,,0,,,65,64
106710,note_off,,,,,0,0,1,,,0,,,63,64
106752,note_on,,,,,42,0,1,,,0,,,77,75
106752,note_on,,,,,0,0,1,,,0,,,75,72
106756,note_on,,,,,4,0,1,,,0,,,80,59
106760,note_on,,,,,4,0,1,,,0,,,65,69
106762,note_on,,,,,0,0,1,,,0,,,56,60
106762,note_on,,,,,2,0,1,,,0,,,68,71
106766,note_on,,,,,4,0,1,,,0,,,63,70
106770,note_on,,,,,4,0,1,,,0,,,59,63
106786,note_off,,,,,16,0,1,,,0,,,75,64
106792,note_off,,,,,6,0,1,,,0,,,56,64
106794,note_off,,,,,2,0,1,,,0,,,77,64
106796,note_off,,,,,2,0,1,,,0,,,68,64
106802,note_off,,,,,6,0,1,,,0,,,63,64
106802,note_off,,,,,0,0,1,,,0,,,80,64
106802,note_off,,,,,0,0,1,,,0,,,65,64
106804,note_off,,,,,2,0,1,,,0,,,59,64
106840,note_on,,,,,36,0,1,,,0,,,77,71
106840,note_on,,,,,0,0,1,,,0,,,75,70
106842,note_on,,,,,2,0,1,,,0,,,80,52
106848,note_on,,,,,6,0,1,,,0,,,65,69
106850,note_on,,,,,2,0,1,,,0,,,68,70
106850,note_on,,,,,0,0,1,,,0,,,56,62
106854,note_on,,,,,4,0,1,,,0,,,63,67
106860,note_on,,,,,6,0,1,,,0,,,59,49
106874,note_off,,,,,14,0,1,,,0,,,75,64
106880,note_off,,,,,6,0,1,,,0,,,56,64
106882,note_off,,,,,2,0,1,,,0,,,77,64
106888,note_off,,,,,0,0,1,,,0,,,68,64
106888,note_off,,,,,6,0,1,,,0,,,59,64
106890,note_off,,,,,2,0,1,,,0,,,63,64
106890,note_off,,,,,0,0,1,,,0,,,80,64
106890,note_off,,,,,0,0,1,,,0,,,65,64
106934,note_on,,,,,44,0,1,,,0,,,77,81
106936,note_on,,,,,0,0,1,,,0,,,75,71
106936,note_on,,,,,2,0,1,,,0,,,80,69
106938,note_on,,,,,2,0,1,,,0,,,65,74
106940,note_on,,,,,2,0,1,,,0,,,68,74
106944,note_on,,,,,4,0,1,,,0,,,56,62
106946,note_on,,,,,2,0,1,,,0,,,63,72
106950,note_on,,,,,4,0,1,,,0,,,59,50
106970,note_off,,,,,20,0,1,,,0,,,56,64
106974,note_off,,,,,4,0,1,,,0,,,59,64
106976,note_off,,,,,2,0,1,,,0,,,63,64
106980,note_off,,,,,4,0,1,,,0,,,68,64
106980,note_off,,,,,0,0,1,,,0,,,65,64
106984,note_off,,,,,4,0,1,,,0,,,75,64
106986,note_off,,,,,2,0,1,,,0,,,77,64
106990,note_off,,,,,4,0,1,,,0,,,80,64
106996,note_off,,,,,6,0,1,,,0,,,85,64
107042,note_on,,,,,46,0,1,,,0,,,56,78
107134,note_on,,,,,92,0,1,,,0,,,59,78
107166,note_on,,,,,32,0,1,,,0,,,63,81
107204,note_on,,,,,38,0,1,,,0,,,65,84
107222,note_on,,,,,18,0,1,,,0,,,68,87
107252,note_on,,,,,30,0,1,,,0,,,71,74
107280,note_on,,,,,28,0,1,,,0,,,75,76
107312,note_on,,,,,32,0,1,,,0,,,77,80
107324,note_on,,,,,12,0,1,,,0,,,80,82
107392,note_on,,,,,68,0,1,,,0,,,83,89
107508,note_off,,,,,116,0,1,,,0,,,83,64
107512,note_off,,,,,0,0,1,,,0,,,71,64
107512,note_off,,,,,4,0,1,,,0,,,77,64
107512,note_off,,,,,0,0,1,,,0,,,75,64
107522,note_off,,,,,10,0,1,,,0,,,80,64
107524,note_off,,,,,2,0,1,,,0,,,65,64
107528,note_off,,,,,4,0,1,,,0,,,68,64
107536,note_off,,,,,8,0,1,,,0,,,63,64
107544,note_off,,,,,8,0,1,,,0,,,59,64
107556,note_off,,,,,12,0,1,,,0,,,56,64
108032,control_change,,,,,476,0,1,,,0,64,0,,
108200,control_change,,,,,168,0,1,,,0,64,127,,
108210,note_on,,,,,10,0,1,,,0,,,68,65
108458,note_on,,,,,248,0,1,,,0,,,70,50
108488,note_off,,,,,30,0,1,,,0,,,68,64
108508,note_off,,,,,20,0,1,,,0,,,70,64
108542,note_on,,,,,34,0,1,,,0,,,46,50
108708,note_on,,,,,166,0,1,,,0,,,53,56
108732,note_on,,,,,24,0,1,,,0,,,62,52
108758,note_on,,,,,26,0,1,,,0,,,68,57
108804,control_change,,,,,46,0,1,,,0,64,0,,
108806,note_on,,,,,2,0,1,,,0,,,73,71
108920,control_change,,,,,114,0,1,,,0,64,127,,
108960,note_off,,,,,40,0,1,,,0,,,73,64
108962,note_on,,,,,2,0,1,,,0,,,71,66
109026,note_off,,,,,64,0,1,,,0,,,53,64
109038,note_off,,,,,12,0,1,,,0,,,46,64
109140,note_off,,,,,102,0,1,,,0,,,71,64
109152,note_off,,,,,12,0,1,,,0,,,68,64
109156,note_off,,,,,4,0,1,,,0,,,62,64
109240,note_on,,,,,84,0,1,,,0,,,70,72
109276,note_off,,,,,36,0,1,,,0,,,70,64
109304,note_on,,,,,28,0,1,,,0,,,55,46
109380,note_on,,,,,76,0,1,,,0,,,63,51
109516,note_on,,,,,136,0,1,,,0,,,70,71
109530,control_change,,,,,14,0,1,,,0,64,0,,
109614,control_change,,,,,84,0,1,,,0,64,127,,
109656,note_on,,,,,42,0,1,,,0,,,39,58
109686,note_off,,,,,30,0,1,,,0,,,55,64
109698,note_off,,,,,12,0,1,,,0,,,63,64
109760,note_off,,,,,62,0,1,,,0,,,39,64
109772,note_on,,,,,12,0,1,,,0,,,46,38
109882,note_on,,,,,110,0,1,,,0,,,63,53
109886,note_on,,,,,4,0,1,,,0,,,51,52
109960,note_off,,,,,74,0,1,,,0,,,46,64
110002,note_on,,,,,42,0,1,,,0,,,55,29
110006,note_off,,,,,4,0,1,,,0,,,51,64
110022,note_off,,,,,16,0,1,,,0,,,55,64
110056,note_off,,,,,34,0,1,,,0,,,63,64
110096,note_on,,,,,40,0,1,,,0,,,58,52
110198,note_off,,,,,102,0,1,,,0,,,58,64
110220,note_on,,,,,22,0,1,,,0,,,67,44
110336,note_on,,,,,116,0,1,,,0,,,63,54
110354,note_off,,,,,18,0,1,,,0,,,67,64
110396,note_off,,,,,42,0,1,,,0,,,63,64
110432,note_on,,,,,36,0,1,,,0,,,58,53
110482,note_off,,,,,50,0,1,,,0,,,58,64
110518,note_on,,,,,36,0,1,,,0,,,63,68
110520,note_on,,,,,2,0,1,,,0,,,55,48
110614,note_off,,,,,94,0,1,,,0,,,55,64
110626,note_on,,,,,12,0,1,,,0,,,51,50
110730,note_off,,,,,104,0,1,,,0,,,51,64
110736,note_on,,,,,6,0,1,,,0,,,46,50
110790,note_off,,,,,54,0,1,,,0,,,63,64
110826,note_on,,,,,36,0,1,,,0,,,64,73
110840,note_off,,,,,14,0,1,,,0,,,46,64
110844,note_off,,,,,4,0,1,,,0,,,70,64
110914,control_change,,,,,70,0,1,,,0,64,0,,
110926,note_on,,,,,12,0,1,,,0,,,39,51
110992,control_change,,,,,66,0,1,,,0,64,127,,
111032,note_on,,,,,40,0,1,,,0,,,47,34
111048,note_off,,,,,16,0,1,,,0,,,64,64
111082,note_off,,,,,34,0,1,,,0,,,39,64
111128,note_on,,,,,46,0,1,,,0,,,52,56
111130,note_on,,,,,2,0,1,,,0,,,71,59
111134,note_off,,,,,4,0,1,,,0,,,47,64
111168,note_off,,,,,34,0,1,,,0,,,52,64
111232,note_on,,,,,64,0,1,,,0,,,56,56
111272,note_off,,,,,40,0,1,,,0,,,56,64
111336,note_on,,,,,64,0,1,,,0,,,59,45
111398,note_off,,,,,62,0,1,,,0,,,59,64
111454,note_on,,,,,56,0,1,,,0,,,70,72
111464,note_off,,,,,10,0,1,,,0,,,71,64
111566,note_on,,,,,102,0,1,,,0,,,64,67
111616,note_on,,,,,50,0,1,,,0,,,68,59
111620,note_off,,,,,4,0,1,,,0,,,70,64
111636,control_change,,,,,16,0,1,,,0,64,0,,
111644,note_off,,,,,8,0,1,,,0,,,64,64
111652,control_change,,,,,8,0,1,,,0,64,127,,
111668,note_on,,,,,16,0,1,,,0,,,59,46
111760,note_off,,,,,92,0,1,,,0,,,59,64
111768,note_on,,,,,8,0,1,,,0,,,56,56
111776,note_on,,,,,8,0,1,,,0,,,66,61
111780,note_off,,,,,4,0,1,,,0,,,68,64
111800,note_off,,,,,20,0,1,,,0,,,56,64
111872,note_on,,,,,72,0,1,,,0,,,52,45
111948,note_off,,,,,76,0,1,,,0,,,52,64
111988,note_on,,,,,40,0,1,,,0,,,47,46
112004,set_tempo,,,,,78400,1,0,526316,,,,,,
112008,set_tempo,,,,,4,1,0,530973,,,,,,
112014,note_off,,,,,26,0,1,,,0,,,47,64
112016,set_tempo,,,,,8,1,0,535714,,,,,,
112020,set_tempo,,,,,4,1,0,540541,,,,,,
112034,note_off,,,,,20,0,1,,,0,,,66,64
112040,note_on,,,,,6,0,1,,,0,,,62,63
112052,note_off,,,,,12,0,1,,,0,,,62,64
112112,note_on,,,,,60,0,1,,,0,,,62,62
112178,control_change,,,,,66,0,1,,,0,64,0,,
112220,note_on,,,,,42,0,1,,,0,,,39,49
112272,control_change,,,,,52,0,1,,,0,64,127,,
112328,note_off,,,,,56,0,1,,,0,,,39,64
112328,set_tempo,,,,,308,1,0,535714,,,,,,
112330,note_on,,,,,2,0,1,,,0,,,46,31
112340,set_tempo,,,,,12,1,0,530973,,,,,,
112356,set_tempo,,,,,16,1,0,526316,,,,,,
112368,set_tempo,,,,,12,1,0,521739,,,,,,
112438,note_on,,,,,0,0,1,,,0,,,51,59
112438,note_on,,,,,108,0,1,,,0,,,63,67
112448,note_off,,,,,10,0,1,,,0,,,62,64
112490,control_change,,,,,42,0,1,,,0,64,0,,
112500,note_off,,,,,10,0,1,,,0,,,46,64
112510,control_change,,,,,10,0,1,,,0,64,127,,
112542,note_off,,,,,32,0,1,,,0,,,51,64
112548,note_on,,,,,6,0,1,,,0,,,55,46
112556,note_off,,,,,8,0,1,,,0,,,63,64
112600,note_off,,,,,44,0,1,,,0,,,55,64
112652,note_on,,,,,52,0,1,,,0,,,58,61
112752,note_on,,,,,100,0,1,,,0,,,67,55
112758,note_off,,,,,6,0,1,,,0,,,58,64
112860,note_on,,,,,102,0,1,,,0,,,63,41
112874,note_off,,,,,14,0,1,,,0,,,67,64
112952,note_on,,,,,78,0,1,,,0,,,58,52
112956,note_off,,,,,4,0,1,,,0,,,63,64
113002,note_off,,,,,46,0,1,,,0,,,58,64
113056,note_on,,,,,0,0,1,,,0,,,55,64
113056,note_on,,,,,54,0,1,,,0,,,87,78
113058,note_on,,,,,2,0,1,,,0,,,75,67
113146,note_off,,,,,88,0,1,,,0,,,55,64
113166,note_on,,,,,20,0,1,,,0,,,51,63
113174,note_off,,,,,8,0,1,,,0,,,87,64
113176,note_off,,,,,2,0,1,,,0,,,75,64
113264,note_off,,,,,88,0,1,,,0,,,51,64
113268,note_on,,,,,4,0,1,,,0,,,46,50
113338,note_off,,,,,70,0,1,,,0,,,46,64
113376,note_on,,,,,38,0,1,,,0,,,88,68
113378,note_on,,,,,2,0,1,,,0,,,76,62
113460,control_change,,,,,82,0,1,,,0,64,0,,
113488,note_on,,,,,28,0,1,,,0,,,38,44
113504,note_off,,,,,16,0,1,,,0,,,76,64
113520,control_change,,,,,16,0,1,,,0,64,127,,
113528,note_off,,,,,8,0,1,,,0,,,88,64
113602,note_on,,,,,74,0,1,,,0,,,47,53
113628,note_off,,,,,26,0,1,,,0,,,38,64
113706,note_off,,,,,78,0,1,,,0,,,47,64
113720,note_on,,,,,0,0,1,,,0,,,52,57
113720,note_on,,,,,14,0,1,,,0,,,83,58
113722,note_on,,,,,2,0,1,,,0,,,95,54
113754,note_off,,,,,32,0,1,,,0,,,52,64
113828,note_on,,,,,74,0,1,,,0,,,56,62
113864,note_off,,,,,36,0,1,,,0,,,83,64
113954,note_on,,,,,90,0,1,,,0,,,59,47
113956,note_on,,,,,2,0,1,,,0,,,64,35
113998,note_off,,,,,42,0,1,,,0,,,64,64
114008,note_off,,,,,10,0,1,,,0,,,56,64
114016,note_off,,,,,8,0,1,,,0,,,59,64
114062,note_off,,,,,46,0,1,,,0,,,95,64
114076,note_on,,,,,14,0,1,,,0,,,94,77
114076,note_on,,,,,0,0,1,,,0,,,82,65
114186,note_off,,,,,110,0,1,,,0,,,82,64
114196,note_on,,,,,10,0,1,,,0,,,37,57
114226,control_change,,,,,30,0,1,,,0,64,0,,
114240,control_change,,,,,14,0,1,,,0,64,127,,
114264,note_on,,,,,24,0,1,,,0,,,92,68
114268,note_on,,,,,0,0,1,,,0,,,80,56
114268,note_off,,,,,4,0,1,,,0,,,94,64
114310,note_off,,,,,42,0,1,,,0,,,92,64
114314,note_off,,,,,4,0,1,,,0,,,80,64
114324,note_off,,,,,10,0,1,,,0,,,37,64
114328,note_on,,,,,4,0,1,,,0,,,47,57
114468,note_on,,,,,140,0,1,,,0,,,87,66
114474,note_on,,,,,6,0,1,,,0,,,75,42
114480,note_off,,,,,6,0,1,,,0,,,47,64
114480,note_on,,,,,0,0,1,,,0,,,53,44
114572,note_off,,,,,92,0,1,,,0,,,53,64
114608,note_off,,,,,36,0,1,,,0,,,75,64
114612,note_on,,,,,4,0,1,,,0,,,56,57
114636,note_off,,,,,24,0,1,,,0,,,87,64
114770,note_on,,,,,134,0,1,,,0,,,65,41
114778,note_on,,,,,8,0,1,,,0,,,59,55
114804,note_off,,,,,26,0,1,,,0,,,65,64
114812,note_off,,,,,8,0,1,,,0,,,59,64
114814,note_off,,,,,2,0,1,,,0,,,56,64
114824,note_on,,,,,0,0,1,,,0,,,77,61
114824,note_on,,,,,10,0,1,,,0,,,89,63
114856,note_off,,,,,32,0,1,,,0,,,77,64
114858,note_off,,,,,2,0,1,,,0,,,89,64
114920,note_on,,,,,62,0,1,,,0,,,89,68
114924,note_on,,,,,4,0,1,,,0,,,77,67
115056,note_on,,,,,132,0,1,,,0,,,42,50
115084,control_change,,,,,28,0,1,,,0,64,0,,
115144,control_change,,,,,60,0,1,,,0,64,127,,
115148,note_off,,,,,4,0,1,,,0,,,77,64
115162,note_off,,,,,14,0,1,,,0,,,42,64
115164,note_on,,,,,2,0,1,,,0,,,49,50
115256,note_off,,,,,92,0,1,,,0,,,49,64
115262,note_off,,,,,6,0,1,,,0,,,89,64
115274,note_on,,,,,12,0,1,,,0,,,54,40
115278,note_on,,,,,4,0,1,,,0,,,90,51
115280,note_on,,,,,2,0,1,,,0,,,78,53
115384,note_on,,,,,104,0,1,,,0,,,58,58
115400,note_off,,,,,16,0,1,,,0,,,54,64
115408,note_off,,,,,8,0,1,,,0,,,58,64
115488,note_on,,,,,80,0,1,,,0,,,61,58
115512,note_off,,,,,24,0,1,,,0,,,61,64
115592,note_on,,,,,80,0,1,,,0,,,70,68
115634,note_off,,,,,42,0,1,,,0,,,70,64
115692,note_on,,,,,58,0,1,,,0,,,66,59
115704,note_off,,,,,12,0,1,,,0,,,90,64
115716,note_off,,,,,12,0,1,,,0,,,78,64
115744,note_off,,,,,28,0,1,,,0,,,66,64
115782,note_on,,,,,38,0,1,,,0,,,61,45
115816,note_off,,,,,34,0,1,,,0,,,61,64
115880,note_on,,,,,64,0,1,,,0,,,58,50
115888,note_on,,,,,8,0,1,,,0,,,66,69
115984,note_on,,,,,96,0,1,,,0,,,54,53
116008,note_off,,,,,24,0,1,,,0,,,58,64
116070,note_off,,,,,62,0,1,,,0,,,54,64
116074,note_on,,,,,4,0,1,,,0,,,49,52
116100,note_off,,,,,26,0,1,,,0,,,49,64
116136,note_off,,,,,36,0,1,,,0,,,66,64
116178,note_on,,,,,42,0,1,,,0,,,67,76
116278,note_on,,,,,100,0,1,,,0,,,42,53
116280,control_change,,,,,2,0,1,,,0,64,0,,
116350,control_change,,,,,70,0,1,,,0,64,127,,
116376,note_on,,,,,26,0,1,,,0,,,50,60
116412,note_off,,,,,36,0,1,,,0,,,67,64
116462,note_off,,,,,50,0,1,,,0,,,42,64
116474,note_off,,,,,12,0,1,,,0,,,50,64
116486,note_on,,,,,12,0,1,,,0,,,74,79
116488,note_on,,,,,2,0,1,,,0,,,55,44
116504,note_off,,,,,16,0,1,,,0,,,55,64
116584,note_on,,,,,80,0,1,,,0,,,59,67
116684,note_on,,,,,100,0,1,,,0,,,62,54
116692,note_off,,,,,8,0,1,,,0,,,59,64
116728,note_off,,,,,36,0,1,,,0,,,62,64
116780,note_on,,,,,52,0,1,,,0,,,72,63
116788,note_off,,,,,8,0,1,,,0,,,74,64
116884,note_on,,,,,96,0,1,,,0,,,67,57
116936,note_on,,,,,52,0,1,,,0,,,71,64
116948,note_off,,,,,12,0,1,,,0,,,67,64
116952,note_off,,,,,4,0,1,,,0,,,72,64
116986,note_on,,,,,34,0,1,,,0,,,62,52
117068,note_off,,,,,82,0,1,,,0,,,62,64
117086,note_on,,,,,18,0,1,,,0,,,59,57
117096,note_on,,,,,10,0,1,,,0,,,69,64
117098,note_off,,,,,2,0,1,,,0,,,71,64
117120,note_off,,,,,22,0,1,,,0,,,59,64
117198,note_on,,,,,78,0,1,,,0,,,55,49
117264,note_off,,,,,66,0,1,,,0,,,55,64
117312,note_on,,,,,48,0,1,,,0,,,50,60
117332,note_off,,,,,20,0,1,,,0,,,50,64
117344,note_off,,,,,12,0,1,,,0,,,69,64
117368,note_on,,,,,24,0,1,,,0,,,65,58
117382,note_off,,,,,14,0,1,,,0,,,65,64
117434,note_on,,,,,52,0,1,,,0,,,65,65
117492,control_change,,,,,58,0,1,,,0,64,0,,
117538,note_on,,,,,46,0,1,,,0,,,42,50
117616,control_change,,,,,78,0,1,,,0,64,127,,
117632,note_on,,,,,16,0,1,,,0,,,49,59
117640,note_off,,,,,8,0,1,,,0,,,42,64
117708,note_off,,,,,68,0,1,,,0,,,49,64
117736,note_on,,,,,28,0,1,,,0,,,54,59
117738,note_on,,,,,2,0,1,,,0,,,66,58
117742,note_off,,,,,4,0,1,,,0,,,65,64
117812,note_off,,,,,70,0,1,,,0,,,54,64
117830,note_on,,,,,18,0,1,,,0,,,58,57
117860,note_off,,,,,30,0,1,,,0,,,58,64
117916,note_on,,,,,56,0,1,,,0,,,61,59
117922,note_off,,,,,6,0,1,,,0,,,66,64
118008,note_on,,,,,86,0,1,,,0,,,70,68
118014,note_off,,,,,6,0,1,,,0,,,61,64
118106,note_off,,,,,92,0,1,,,0,,,70,64
118116,note_on,,,,,10,0,1,,,0,,,66,53
118174,note_off,,,,,58,0,1,,,0,,,66,64
118198,note_on,,,,,24,0,1,,,0,,,61,54
118236,note_off,,,,,38,0,1,,,0,,,61,64
118288,note_on,,,,,52,0,1,,,0,,,90,71
118288,note_on,,,,,0,0,1,,,0,,,78,70
118294,note_on,,,,,6,0,1,,,0,,,58,67
118392,note_on,,,,,98,0,1,,,0,,,54,60
118408,note_off,,,,,16,0,1,,,0,,,58,64
118444,note_off,,,,,36,0,1,,,0,,,90,64
118446,note_off,,,,,2,0,1,,,0,,,78,64
118474,note_off,,,,,28,0,1,,,0,,,54,64
118474,note_on,,,,,0,0,1,,,0,,,49,62
118510,note_off,,,,,36,0,1,,,0,,,49,64
118580,note_on,,,,,70,0,1,,,0,,,91,90
118582,note_on,,,,,2,0,1,,,0,,,79,90
118672,control_change,,,,,90,0,1,,,0,64,0,,
118688,note_on,,,,,16,0,1,,,0,,,41,69
118720,note_off,,,,,32,0,1,,,0,,,79,64
118724,control_change,,,,,4,0,1,,,0,64,127,,
118742,note_off,,,,,18,0,1,,,0,,,91,64
118782,note_on,,,,,40,0,1,,,0,,,50,66
118800,note_off,,,,,18,0,1,,,0,,,41,64
118870,note_off,,,,,70,0,1,,,0,,,50,64
118880,note_on,,,,,10,0,1,,,0,,,55,75
118884,note_on,,,,,4,0,1,,,0,,,98,75
118886,note_on,,,,,2,0,1,,,0,,,86,75
118912,note_off,,,,,26,0,1,,,0,,,55,64
118958,note_off,,,,,46,0,1,,,0,,,98,64
118970,note_off,,,,,12,0,1,,,0,,,86,64
118986,note_on,,,,,16,0,1,,,0,,,59,55
119076,note_on,,,,,90,0,1,,,0,,,62,53
119102,note_off,,,,,26,0,1,,,0,,,59,64
119124,note_off,,,,,22,0,1,,,0,,,62,64
119172,note_on,,,,,48,0,1,,,0,,,96,82
119174,note_on,,,,,2,0,1,,,0,,,71,76
119176,note_on,,,,,2,0,1,,,0,,,84,70
119216,note_off,,,,,0,0,1,,,0,,,96,64
119216,note_off,,,,,40,0,1,,,0,,,84,64
119264,note_off,,,,,48,0,1,,,0,,,71,64
119268,note_on,,,,,4,0,1,,,0,,,67,68
119316,note_on,,,,,48,0,1,,,0,,,95,75
119320,note_on,,,,,4,0,1,,,0,,,83,76
119344,note_off,,,,,24,0,1,,,0,,,67,64
119352,note_off,,,,,8,0,1,,,0,,,83,64
119354,note_off,,,,,2,0,1,,,0,,,95,64
119364,note_on,,,,,10,0,1,,,0,,,62,62
119400,note_off,,,,,36,0,1,,,0,,,62,64
119464,note_on,,,,,0,0,1,,,0,,,59,88
119464,note_on,,,,,64,0,1,,,0,,,92,88
119466,note_on,,,,,2,0,1,,,0,,,80,88
119520,note_off,,,,,54,0,1,,,0,,,92,64
119530,note_off,,,,,10,0,1,,,0,,,80,64
119564,note_off,,,,,34,0,1,,,0,,,59,64
119570,note_on,,,,,6,0,1,,,0,,,55,61
119608,note_on,,,,,0,0,1,,,0,,,79,77
119608,note_on,,,,,38,0,1,,,0,,,91,76
119646,note_off,,,,,38,0,1,,,0,,,55,64
119648,note_off,,,,,2,0,1,,,0,,,79,64
119660,note_off,,,,,12,0,1,,,0,,,91,64
119664,note_on,,,,,4,0,1,,,0,,,50,75
119690,note_off,,,,,26,0,1,,,0,,,50,64
119760,note_on,,,,,70,0,1,,,0,,,91,101
119760,note_on,,,,,0,0,1,,,0,,,79,101
119852,control_change,,,,,92,0,1,,,0,64,0,,
119856,note_on,,,,,4,0,1,,,0,,,39,74
119886,note_off,,,,,30,0,1,,,0,,,79,64
119904,control_change,,,,,18,0,1,,,0,64,127,,
119912,note_off,,,,,8,0,1,,,0,,,91,64
119948,note_on,,,,,36,0,1,,,0,,,51,79
119960,note_off,,,,,12,0,1,,,0,,,39,64
119978,note_off,,,,,18,0,1,,,0,,,51,64
120048,note_on,,,,,70,0,1,,,0,,,99,92
120050,note_on,,,,,2,0,1,,,0,,,87,86
120052,note_on,,,,,2,0,1,,,0,,,55,59
120108,note_off,,,,,56,0,1,,,0,,,99,64
120132,note_off,,,,,24,0,1,,,0,,,87,64
120146,note_on,,,,,14,0,1,,,0,,,60,62
120188,note_off,,,,,42,0,1,,,0,,,55,64
120228,note_on,,,,,40,0,1,,,0,,,63,71
120252,note_off,,,,,24,0,1,,,0,,,60,64
120312,note_off,,,,,60,0,1,,,0,,,63,64
120328,note_on,,,,,16,0,1,,,0,,,98,86
120328,note_on,,,,,0,0,1,,,0,,,72,65
120330,note_on,,,,,2,0,1,,,0,,,86,85
120386,note_off,,,,,0,0,1,,,0,,,98,64
120386,note_off,,,,,56,0,1,,,0,,,86,64
120444,note_on,,,,,58,0,1,,,0,,,67,67
120450,note_off,,,,,6,0,1,,,0,,,72,64
120478,note_on,,,,,28,0,1,,,0,,,96,86
120480,note_on,,,,,2,0,1,,,0,,,84,84
120516,note_off,,,,,36,0,1,,,0,,,96,64
120518,note_off,,,,,2,0,1,,,0,,,84,64
120532,note_on,,,,,14,0,1,,,0,,,63,70
120534,note_off,,,,,2,0,1,,,0,,,67,64
120578,note_off,,,,,44,0,1,,,0,,,63,64
120634,note_on,,,,,56,0,1,,,0,,,92,85
120636,note_on,,,,,2,0,1,,,0,,,80,75
120636,note_on,,,,,0,0,1,,,0,,,60,80
120696,note_off,,,,,60,0,1,,,0,,,80,64
120698,note_off,,,,,2,0,1,,,0,,,92,64
120742,note_on,,,,,44,0,1,,,0,,,55,68
120780,note_off,,,,,38,0,1,,,0,,,60,64
120792,note_on,,,,,12,0,1,,,0,,,91,86
120794,note_on,,,,,2,0,1,,,0,,,79,87
120822,note_off,,,,,28,0,1,,,0,,,79,64
120836,note_off,,,,,14,0,1,,,0,,,55,64
120838,note_off,,,,,2,0,1,,,0,,,91,64
120860,note_on,,,,,22,0,1,,,0,,,51,87
120894,note_off,,,,,34,0,1,,,0,,,51,64
120978,note_on,,,,,84,0,1,,,0,,,92,100
120980,note_on,,,,,2,0,1,,,0,,,80,100
121080,control_change,,,,,100,0,1,,,0,64,0,,
121088,note_on,,,,,8,0,1,,,0,,,38,85
121098,note_off,,,,,10,0,1,,,0,,,92,64
121104,note_off,,,,,6,0,1,,,0,,,80,64
121128,control_change,,,,,24,0,1,,,0,64,127,,
121146,note_on,,,,,18,0,1,,,0,,,91,81
121148,note_on,,,,,2,0,1,,,0,,,79,77
121180,note_off,,,,,32,0,1,,,0,,,79,64
121202,note_off,,,,,22,0,1,,,0,,,91,64
121220,note_on,,,,,18,0,1,,,0,,,47,78
121232,note_off,,,,,12,0,1,,,0,,,38,64
121360,note_on,,,,,0,0,1,,,0,,,55,76
121360,note_on,,,,,128,0,1,,,0,,,89,108
121364,note_on,,,,,4,0,1,,,0,,,101,108
121372,note_off,,,,,8,0,1,,,0,,,47,64
121404,note_off,,,,,32,0,1,,,0,,,55,64
121516,note_on,,,,,112,0,1,,,0,,,59,67
121544,note_off,,,,,28,0,1,,,0,,,59,64
121688,note_on,,,,,144,0,1,,,0,,,65,83
121724,note_off,,,,,36,0,1,,,0,,,65,64
121906,note_on,,,,,182,0,1,,,0,,,74,84
121984,control_change,,,,,78,0,1,,,0,64,0,,
121988,control_change,,,,,4,0,1,,,0,64,127,,
122024,note_on,,,,,36,0,1,,,0,,,98,82
122038,note_off,,,,,14,0,1,,,0,,,89,64
122064,note_off,,,,,26,0,1,,,0,,,74,64
122082,note_off,,,,,18,0,1,,,0,,,101,64
122148,note_on,,,,,66,0,1,,,0,,,95,87
122214,control_change,,,,,66,0,1,,,0,64,0,,
122220,control_change,,,,,6,0,1,,,0,64,127,,
122228,note_on,,,,,8,0,1,,,0,,,92,81
122238,note_off,,,,,10,0,1,,,0,,,98,64
122260,note_off,,,,,22,0,1,,,0,,,95,64
122298,note_off,,,,,38,0,1,,,0,,,92,64
122304,note_on,,,,,6,0,1,,,0,,,91,75
122342,note_off,,,,,38,0,1,,,0,,,91,64
122364,note_on,,,,,22,0,1,,,0,,,90,69
122422,note_on,,,,,58,0,1,,,0,,,89,83
122424,note_off,,,,,2,0,1,,,0,,,90,64
122480,note_on,,,,,56,0,1,,,0,,,86,75
122490,note_off,,,,,10,0,1,,,0,,,89,64
122524,note_off,,,,,34,0,1,,,0,,,86,64
122540,note_on,,,,,16,0,1,,,0,,,83,71
122574,note_off,,,,,34,0,1,,,0,,,83,64
122594,note_on,,,,,20,0,1,,,0,,,80,72
122646,note_off,,,,,52,0,1,,,0,,,80,64
122656,note_on,,,,,10,0,1,,,0,,,79,67
122684,note_off,,,,,28,0,1,,,0,,,79,64
122704,note_on,,,,,20,0,1,,,0,,,79,54
122732,note_off,,,,,28,0,1,,,0,,,79,64
122750,note_on,,,,,18,0,1,,,0,,,80,60
122792,note_off,,,,,42,0,1,,,0,,,80,64
122802,note_on,,,,,10,0,1,,,0,,,79,57
122818,control_change,,,,,16,0,1,,,0,64,0,,
122834,control_change,,,,,16,0,1,,,0,64,127,,
122836,note_off,,,,,2,0,1,,,0,,,79,64
122848,note_on,,,,,12,0,1,,,0,,,78,66
122892,note_off,,,,,44,0,1,,,0,,,78,64
122900,note_on,,,,,8,0,1,,,0,,,79,70
122948,note_off,,,,,48,0,1,,,0,,,79,64
122950,note_on,,,,,2,0,1,,,0,,,82,79
122988,control_change,,,,,38,0,1,,,0,64,0,,
122992,control_change,,,,,4,0,1,,,0,64,127,,
123018,note_on,,,,,26,0,1,,,0,,,80,79
123030,note_off,,,,,12,0,1,,,0,,,82,64
123082,note_off,,,,,52,0,1,,,0,,,80,64
123088,note_on,,,,,6,0,1,,,0,,,79,80
123132,note_off,,,,,44,0,1,,,0,,,79,64
123154,note_on,,,,,22,0,1,,,0,,,78,71
123226,note_off,,,,,72,0,1,,,0,,,78,64
123236,note_on,,,,,10,0,1,,,0,,,77,71
123304,note_off,,,,,68,0,1,,,0,,,77,64
123326,note_on,,,,,22,0,1,,,0,,,74,54
123356,note_off,,,,,30,0,1,,,0,,,74,64
123424,note_on,,,,,68,0,1,,,0,,,71,83
123532,note_off,,,,,108,0,1,,,0,,,71,64
123546,note_on,,,,,14,0,1,,,0,,,68,72
123632,note_off,,,,,86,0,1,,,0,,,68,64
123650,note_on,,,,,18,0,1,,,0,,,71,65
123760,note_off,,,,,110,0,1,,,0,,,71,64
123768,note_on,,,,,8,0,1,,,0,,,67,57
123896,note_off,,,,,128,0,1,,,0,,,67,64
123896,note_on,,,,,0,0,1,,,0,,,71,61
124028,note_off,,,,,132,0,1,,,0,,,71,64
124034,note_on,,,,,6,0,1,,,0,,,66,59
124072,control_change,,,,,38,0,1,,,0,64,0,,
124094,control_change,,,,,22,0,1,,,0,64,127,,
124186,note_off,,,,,92,0,1,,,0,,,66,64
124192,note_on,,,,,6,0,1,,,0,,,71,51
124324,note_off,,,,,132,0,1,,,0,,,71,64
124364,note_on,,,,,40,0,1,,,0,,,65,58
124372,control_change,,,,,8,0,1,,,0,64,0,,
124396,control_change,,,,,24,0,1,,,0,64,127,,
124568,note_on,,,,,172,0,1,,,0,,,71,49
124570,note_off,,,,,2,0,1,,,0,,,65,64
124774,note_off,,,,,204,0,1,,,0,,,71,64
124808,note_on,,,,,34,0,1,,,0,,,64,59
124858,control_change,,,,,50,0,1,,,0,64,0,,
124970,control_change,,,,,112,0,1,,,0,64,127,,
124986,note_on,,,,,16,0,1,,,0,,,50,18
125070,note_off,,,,,84,0,1,,,0,,,64,64
125098,note_on,,,,,28,0,1,,,0,,,56,42
125140,note_off,,,,,42,0,1,,,0,,,50,64
125208,note_on,,,,,68,0,1,,,0,,,64,54
125216,note_off,,,,,8,0,1,,,0,,,56,64
125216,note_on,,,,,0,0,1,,,0,,,71,58
125230,note_off,,,,,14,0,1,,,0,,,64,64
125320,note_on,,,,,90,0,1,,,0,,,68,58
125412,note_off,,,,,92,0,1,,,0,,,68,64
125430,note_on,,,,,18,0,1,,,0,,,76,50
125470,note_off,,,,,40,0,1,,,0,,,76,64
125520,note_on,,,,,50,0,1,,,0,,,83,54
125526,note_on,,,,,6,0,1,,,0,,,69,71
125564,note_off,,,,,38,0,1,,,0,,,83,64
125646,note_on,,,,,82,0,1,,,0,,,76,50
125664,note_off,,,,,18,0,1,,,0,,,76,64
125672,note_off,,,,,8,0,1,,,0,,,71,64
125684,note_on,,,,,12,0,1,,,0,,,68,68
125694,note_off,,,,,10,0,1,,,0,,,69,64
125872,note_on,,,,,178,0,1,,,0,,,65,63
125884,note_off,,,,,12,0,1,,,0,,,68,64
125982,note_on,,,,,98,0,1,,,0,,,56,56
126072,note_off,,,,,90,0,1,,,0,,,56,64
126096,note_off,,,,,24,0,1,,,0,,,65,64
126100,note_on,,,,,4,0,1,,,0,,,50,35
126120,note_off,,,,,20,0,1,,,0,,,50,64
126138,note_on,,,,,18,0,1,,,0,,,64,66
126152,note_off,,,,,14,0,1,,,0,,,64,64
126204,note_on,,,,,52,0,1,,,0,,,64,76
126308,control_change,,,,,104,0,1,,,0,64,0,,
126316,note_on,,,,,8,0,1,,,0,,,48,60
126366,control_change,,,,,50,0,1,,,0,64,127,,
126414,note_off,,,,,48,0,1,,,0,,,48,64
126424,note_on,,,,,10,0,1,,,0,,,57,44
126428,note_off,,,,,4,0,1,,,0,,,64,64
126510,note_off,,,,,82,0,1,,,0,,,57,64
126510,note_on,,,,,0,0,1,,,0,,,72,69
126512,note_on,,,,,2,0,1,,,0,,,64,44
126544,note_off,,,,,32,0,1,,,0,,,64,64
126620,note_on,,,,,76,0,1,,,0,,,69,63
126724,note_on,,,,,104,0,1,,,0,,,76,54
126726,note_off,,,,,2,0,1,,,0,,,69,64
126776,note_off,,,,,50,0,1,,,0,,,76,64
126826,note_on,,,,,50,0,1,,,0,,,71,71
126834,note_on,,,,,8,0,1,,,0,,,84,47
126904,note_off,,,,,70,0,1,,,0,,,84,64
126934,note_on,,,,,30,0,1,,,0,,,76,57
126980,note_off,,,,,46,0,1,,,0,,,76,64
126982,note_off,,,,,2,0,1,,,0,,,72,64
126988,note_on,,,,,6,0,1,,,0,,,69,72
127000,note_off,,,,,12,0,1,,,0,,,71,64
127152,note_off,,,,,152,0,1,,,0,,,69,64
127156,note_on,,,,,4,0,1,,,0,,,65,72
127272,note_on,,,,,116,0,1,,,0,,,57,64
127340,note_on,,,,,68,0,1,,,0,,,64,74
127356,note_off,,,,,16,0,1,,,0,,,57,64
127356,note_off,,,,,0,0,1,,,0,,,65,64
127400,note_on,,,,,44,0,1,,,0,,,48,59
127420,note_off,,,,,20,0,1,,,0,,,64,64
127444,note_off,,,,,24,0,1,,,0,,,48,64
127464,note_on,,,,,20,0,1,,,0,,,67,69
127552,note_on,,,,,88,0,1,,,0,,,65,76
127570,note_off,,,,,18,0,1,,,0,,,67,64
127680,note_on,,,,,110,0,1,,,0,,,47,69
127696,control_change,,,,,16,0,1,,,0,64,0,,
127740,note_on,,,,,44,0,1,,,0,,,64,82
127756,control_change,,,,,16,0,1,,,0,64,127,,
127760,note_off,,,,,4,0,1,,,0,,,65,64
127796,note_off,,,,,36,0,1,,,0,,,64,64
127810,note_off,,,,,14,0,1,,,0,,,47,64
127824,note_on,,,,,14,0,1,,,0,,,56,74
127984,note_on,,,,,160,0,1,,,0,,,74,74
127992,note_on,,,,,8,0,1,,,0,,,64,64
127994,note_off,,,,,2,0,1,,,0,,,56,64
128046,note_off,,,,,52,0,1,,,0,,,64,64
128128,note_on,,,,,82,0,1,,,0,,,68,75
128202,note_off,,,,,74,0,1,,,0,,,68,64
128296,note_on,,,,,94,0,1,,,0,,,76,63
128310,note_off,,,,,14,0,1,,,0,,,76,64
128520,note_on,,,,,210,0,1,,,0,,,86,71
128668,note_off,,,,,148,0,1,,,0,,,86,64
128726,note_off,,,,,58,0,1,,,0,,,74,64
128740,note_on,,,,,14,0,1,,,0,,,70,62
128880,note_on,,,,,140,0,1,,,0,,,71,65
128890,note_off,,,,,10,0,1,,,0,,,70,64
128974,control_change,,,,,84,0,1,,,0,64,0,,
128986,note_on,,,,,12,0,1,,,0,,,77,63
129000,note_off,,,,,14,0,1,,,0,,,71,64
129076,note_on,,,,,76,0,1,,,0,,,76,53
129080,note_off,,,,,4,0,1,,,0,,,77,64
129088,control_change,,,,,8,0,1,,,0,64,127,,
129144,note_on,,,,,56,0,1,,,0,,,74,57
129152,note_off,,,,,8,0,1,,,0,,,76,64
129184,note_off,,,,,32,0,1,,,0,,,74,64
129200,note_on,,,,,16,0,1,,,0,,,71,61
129216,note_off,,,,,16,0,1,,,0,,,71,64
129262,note_on,,,,,46,0,1,,,0,,,68,57
129324,note_off,,,,,62,0,1,,,0,,,68,64
129332,note_on,,,,,8,0,1,,,0,,,71,58
129388,note_off,,,,,56,0,1,,,0,,,71,64
129396,note_on,,,,,8,0,1,,,0,,,62,57
129436,note_off,,,,,40,0,1,,,0,,,62,64
129446,note_on,,,,,10,0,1,,,0,,,63,58
129500,note_off,,,,,54,0,1,,,0,,,63,64
129506,note_on,,,,,6,0,1,,,0,,,64,63
129536,note_off,,,,,30,0,1,,,0,,,64,64
129560,note_on,,,,,24,0,1,,,0,,,67,55
129572,set_tempo,,,,,17204,1,0,517241,,,,,,
129576,set_tempo,,,,,4,1,0,512821,,,,,,
129580,set_tempo,,,,,4,1,0,508475,,,,,,
129584,set_tempo,,,,,4,1,0,504202,,,,,,
129588,set_tempo,,,,,4,1,0,500000,,,,,,
129592,set_tempo,,,,,4,1,0,495868,,,,,,
129596,set_tempo,,,,,4,1,0,491803,,,,,,
129600,set_tempo,,,,,4,1,0,487805,,,,,,
129608,set_tempo,,,,,8,1,0,483871,,,,,,
129612,set_tempo,,,,,4,1,0,480000,,,,,,
129616,set_tempo,,,,,4,1,0,476190,,,,,,
129620,set_tempo,,,,,4,1,0,472441,,,,,,
129624,set_tempo,,,,,4,1,0,468750,,,,,,
129626,note_on,,,,,66,0,1,,,0,,,65,64
129628,set_tempo,,,,,4,1,0,465116,,,,,,
129632,set_tempo,,,,,4,1,0,461538,,,,,,
129636,set_tempo,,,,,4,1,0,458015,,,,,,
129640,note_off,,,,,14,0,1,,,0,,,67,64
129686,note_on,,,,,46,0,1,,,0,,,62,53
129700,note_off,,,,,14,0,1,,,0,,,65,64
129730,note_off,,,,,30,0,1,,,0,,,62,64
129744,control_change,,,,,14,0,1,,,0,64,0,,
129748,note_on,,,,,4,0,1,,,0,,,59,57
129764,note_off,,,,,16,0,1,,,0,,,59,64
129770,control_change,,,,,6,0,1,,,0,64,127,,
129808,note_on,,,,,38,0,1,,,0,,,56,62
129856,note_off,,,,,48,0,1,,,0,,,56,64
129860,note_on,,,,,4,0,1,,,0,,,59,62
129918,note_off,,,,,58,0,1,,,0,,,59,64
129928,note_on,,,,,10,0,1,,,0,,,50,59
129960,control_change,,,,,32,0,1,,,0,64,0,,
129988,note_on,,,,,28,0,1,,,0,,,51,69
129992,note_off,,,,,4,0,1,,,0,,,50,64
130018,control_change,,,,,26,0,1,,,0,64,127,,
130058,note_on,,,,,0,0,1,,,0,,,52,74
130058,note_off,,,,,40,0,1,,,0,,,51,64
130078,control_change,,,,,20,0,1,,,0,64,0,,
130116,control_change,,,,,38,0,1,,,0,64,127,,
130128,note_on,,,,,12,0,1,,,0,,,55,57
130172,control_change,,,,,44,0,1,,,0,64,0,,
130176,note_off,,,,,4,0,1,,,0,,,52,64
130188,note_on,,,,,12,0,1,,,0,,,53,59
130218,control_change,,,,,30,0,1,,,0,64,127,,
130240,note_off,,,,,22,0,1,,,0,,,55,64
130268,note_on,,,,,28,0,1,,,0,,,50,60
130276,control_change,,,,,8,0,1,,,0,64,0,,
130296,note_off,,,,,20,0,1,,,0,,,53,64
130300,control_change,,,,,4,0,1,,,0,64,127,,
130336,note_off,,,,,36,0,1,,,0,,,50,64
130344,note_on,,,,,8,0,1,,,0,,,47,64
130350,control_change,,,,,6,0,1,,,0,64,0,,
130358,control_change,,,,,8,0,1,,,0,64,127,,
130376,note_off,,,,,18,0,1,,,0,,,47,64
130428,note_on,,,,,52,0,1,,,0,,,44,71
130460,note_off,,,,,32,0,1,,,0,,,44,64
130532,note_on,,,,,72,0,1,,,0,,,39,71
130576,control_change,,,,,44,0,1,,,0,64,0,,
130628,note_off,,,,,52,0,1,,,0,,,39,64
130634,note_on,,,,,6,0,1,,,0,,,40,69
130760,note_on,,,,,126,0,1,,,0,,,43,71
130772,note_off,,,,,12,0,1,,,0,,,40,64
130796,set_tempo,,,,,1160,1,0,454545,,,,,,
130840,set_tempo,,,,,44,1,0,458015,,,,,,
130880,set_tempo,,,,,40,1,0,461538,,,,,,
130882,note_on,,,,,110,0,1,,,0,,,42,65
130900,note_off,,,,,18,0,1,,,0,,,43,64
130920,set_tempo,,,,,40,1,0,465116,,,,,,
130960,set_tempo,,,,,40,1,0,468750,,,,,,
131000,set_tempo,,,,,40,1,0,472441,,,,,,
131018,note_on,,,,,118,0,1,,,0,,,41,67
131040,note_off,,,,,22,0,1,,,0,,,42,64
131044,set_tempo,,,,,44,1,0,476190,,,,,,
131084,set_tempo,,,,,40,1,0,480000,,,,,,
131124,set_tempo,,,,,40,1,0,483871,,,,,,
131164,note_off,,,,,124,0,1,,,0,,,41,64
131164,set_tempo,,,,,40,1,0,487805,,,,,,
131168,note_on,,,,,4,0,1,,,0,,,40,66
131204,set_tempo,,,,,40,1,0,491803,,,,,,
131244,set_tempo,,,,,40,1,0,495868,,,,,,
131288,set_tempo,,,,,44,1,0,500000,,,,,,
131328,set_tempo,,,,,40,1,0,504202,,,,,,
131328,note_on,,,,,160,0,1,,,0,,,39,71
131338,note_off,,,,,10,0,1,,,0,,,40,64
131368,set_tempo,,,,,40,1,0,508475,,,,,,
131408,set_tempo,,,,,40,1,0,512821,,,,,,
131448,set_tempo,,,,,40,1,0,517241,,,,,,
131488,set_tempo,,,,,40,1,0,521739,,,,,,
131506,note_on,,,,,168,0,1,,,0,,,38,74
131512,note_off,,,,,6,0,1,,,0,,,39,64
131698,note_off,,,,,186,0,1,,,0,,,38,64
131700,note_on,,,,,2,0,1,,,0,,,37,77
131716,note_on,,,,,16,0,1,,,0,,,29,59
131874,control_change,,,,,158,0,1,,,0,64,127,,
131932,note_on,,,,,58,0,1,,,0,,,59,45
131938,note_on,,,,,6,0,1,,,0,,,61,41
131954,note_off,,,,,16,0,1,,,0,,,61,64
131970,note_off,,,,,16,0,1,,,0,,,59,64
132060,note_on,,,,,90,0,1,,,0,,,59,61
132062,note_on,,,,,2,0,1,,,0,,,61,35
132122,note_off,,,,,60,0,1,,,0,,,61,64
132168,note_on,,,,,46,0,1,,,0,,,44,89
132186,note_off,,,,,18,0,1,,,0,,,59,64
132188,note_on,,,,,2,0,1,,,0,,,49,54
132214,control_change,,,,,26,0,1,,,0,64,0,,
132224,note_off,,,,,10,0,1,,,0,,,49,64
132224,control_change,,,,,0,0,1,,,0,64,127,,
132292,note_on,,,,,68,0,1,,,0,,,61,51
132296,note_on,,,,,4,0,1,,,0,,,59,61
132306,note_off,,,,,10,0,1,,,0,,,44,64
132330,note_off,,,,,24,0,1,,,0,,,61,64
132336,note_off,,,,,6,0,1,,,0,,,29,64
132374,note_off,,,,,38,0,1,,,0,,,59,64
132402,note_on,,,,,28,0,1,,,0,,,61,38
132410,note_on,,,,,8,0,1,,,0,,,59,48
132456,note_off,,,,,46,0,1,,,0,,,37,64
132480,note_off,,,,,24,0,1,,,0,,,61,64
132512,note_on,,,,,32,0,1,,,0,,,42,85
132514,note_on,,,,,2,0,1,,,0,,,30,78
132522,note_off,,,,,8,0,1,,,0,,,59,64
132526,note_on,,,,,4,0,1,,,0,,,50,50
132542,control_change,,,,,16,0,1,,,0,64,0,,
132560,control_change,,,,,18,0,1,,,0,64,127,,
132578,note_off,,,,,18,0,1,,,0,,,50,64
132614,note_off,,,,,36,0,1,,,0,,,42,64
132630,note_on,,,,,16,0,1,,,0,,,61,53
132634,note_on,,,,,4,0,1,,,0,,,59,62
132676,note_off,,,,,42,0,1,,,0,,,61,64
132680,note_off,,,,,4,0,1,,,0,,,59,64
132692,note_on,,,,,12,0,1,,,0,,,41,80
132748,note_on,,,,,56,0,1,,,0,,,61,44
132752,note_on,,,,,4,0,1,,,0,,,59,54
132836,note_on,,,,,84,0,1,,,0,,,38,81
132844,note_on,,,,,8,0,1,,,0,,,54,69
132858,control_change,,,,,14,0,1,,,0,64,0,,
132860,note_off,,,,,2,0,1,,,0,,,59,64
132864,note_off,,,,,0,0,1,,,0,,,41,64
132864,note_off,,,,,4,0,1,,,0,,,61,64
132958,note_on,,,,,94,0,1,,,0,,,61,57
132960,control_change,,,,,2,0,1,,,0,64,127,,
132966,note_on,,,,,6,0,1,,,0,,,59,53
132976,note_off,,,,,10,0,1,,,0,,,54,64
132986,note_off,,,,,10,0,1,,,0,,,59,64
132990,note_off,,,,,4,0,1,,,0,,,61,64
133012,note_on,,,,,22,0,1,,,0,,,37,71
133022,note_off,,,,,10,0,1,,,0,,,38,64
133056,note_on,,,,,34,0,1,,,0,,,61,51
133060,note_off,,,,,4,0,1,,,0,,,30,64
133064,note_on,,,,,4,0,1,,,0,,,59,59
133074,note_off,,,,,10,0,1,,,0,,,37,64
133146,note_off,,,,,72,0,1,,,0,,,59,64
133156,note_off,,,,,10,0,1,,,0,,,61,64
133168,control_change,,,,,12,0,1,,,0,64,0,,
133170,note_on,,,,,2,0,1,,,0,,,54,89
133170,note_on,,,,,0,0,1,,,0,,,32,71
133174,note_on,,,,,4,0,1,,,0,,,37,58
133248,control_change,,,,,74,0,1,,,0,64,127,,
133262,note_off,,,,,14,0,1,,,0,,,32,64
133272,note_off,,,,,10,0,1,,,0,,,37,64
133288,note_on,,,,,16,0,1,,,0,,,61,56
133292,note_on,,,,,4,0,1,,,0,,,59,60
133304,note_off,,,,,12,0,1,,,0,,,54,64
133308,note_off,,,,,4,0,1,,,0,,,59,64
133310,note_off,,,,,2,0,1,,,0,,,61,64
133384,note_on,,,,,74,0,1,,,0,,,61,53
133390,note_on,,,,,6,0,1,,,0,,,59,62
133494,note_on,,,,,104,0,1,,,0,,,74,71
133496,note_off,,,,,2,0,1,,,0,,,59,64
133502,note_on,,,,,6,0,1,,,0,,,53,77
133524,note_off,,,,,22,0,1,,,0,,,61,64
133532,control_change,,,,,8,0,1,,,0,64,0,,
133564,control_change,,,,,32,0,1,,,0,64,127,,
133608,note_on,,,,,44,0,1,,,0,,,61,65
133612,note_on,,,,,4,0,1,,,0,,,59,58
133632,note_off,,,,,20,0,1,,,0,,,59,64
133636,note_off,,,,,4,0,1,,,0,,,61,64
133650,note_off,,,,,14,0,1,,,0,,,74,64
133696,note_on,,,,,46,0,1,,,0,,,61,58
133704,note_on,,,,,8,0,1,,,0,,,59,55
133724,note_on,,,,,20,0,1,,,0,,,73,65
133748,note_off,,,,,24,0,1,,,0,,,53,64
133752,note_off,,,,,4,0,1,,,0,,,73,64
133798,note_on,,,,,46,0,1,,,0,,,73,76
133800,note_on,,,,,2,0,1,,,0,,,57,74
133808,control_change,,,,,8,0,1,,,0,64,0,,
133822,note_off,,,,,14,0,1,,,0,,,61,64
133828,note_off,,,,,6,0,1,,,0,,,73,64
133836,note_off,,,,,8,0,1,,,0,,,59,64
133840,control_change,,,,,4,0,1,,,0,64,127,,
133912,note_on,,,,,72,0,1,,,0,,,61,35
133916,note_on,,,,,4,0,1,,,0,,,59,54
133932,note_off,,,,,16,0,1,,,0,,,61,64
133934,note_off,,,,,2,0,1,,,0,,,59,64
134008,note_on,,,,,74,0,1,,,0,,,61,44
134016,note_on,,,,,8,0,1,,,0,,,59,58
134048,note_off,,,,,32,0,1,,,0,,,57,64
134054,note_off,,,,,6,0,1,,,0,,,59,64
134074,note_off,,,,,20,0,1,,,0,,,61,64
134116,note_on,,,,,42,0,1,,,0,,,56,86
134224,note_on,,,,,108,0,1,,,0,,,61,65
134226,note_on,,,,,2,0,1,,,0,,,59,63
134244,note_off,,,,,18,0,1,,,0,,,59,64
134256,note_off,,,,,12,0,1,,,0,,,61,64
134292,note_on,,,,,36,0,1,,,0,,,29,63
134294,note_on,,,,,2,0,1,,,0,,,37,59
134322,note_on,,,,,28,0,1,,,0,,,61,57
134326,note_off,,,,,4,0,1,,,0,,,29,64
134328,control_change,,,,,2,0,1,,,0,64,0,,
134330,note_on,,,,,2,0,1,,,0,,,59,62
134332,note_off,,,,,2,0,1,,,0,,,37,64
134332,control_change,,,,,0,0,1,,,0,64,127,,
134394,note_off,,,,,62,0,1,,,0,,,59,64
134412,note_off,,,,,18,0,1,,,0,,,61,64
134432,note_on,,,,,20,0,1,,,0,,,30,78
134436,note_on,,,,,4,0,1,,,0,,,38,85
134452,note_off,,,,,16,0,1,,,0,,,56,64
134480,control_change,,,,,28,0,1,,,0,64,0,,
134536,note_on,,,,,56,0,1,,,0,,,62,60
134544,note_on,,,,,8,0,1,,,0,,,60,54
134562,control_change,,,,,18,0,1,,,0,64,127,,
134572,note_off,,,,,10,0,1,,,0,,,60,64
134578,note_off,,,,,6,0,1,,,0,,,62,64
134646,note_on,,,,,68,0,1,,,0,,,62,52
134648,note_on,,,,,2,0,1,,,0,,,60,65
134742,note_on,,,,,94,0,1,,,0,,,45,90
134746,note_on,,,,,4,0,1,,,0,,,50,62
134758,note_off,,,,,0,0,1,,,0,,,62,64
134758,note_off,,,,,12,0,1,,,0,,,60,64
134786,control_change,,,,,28,0,1,,,0,64,0,,
134806,control_change,,,,,20,0,1,,,0,64,127,,
134810,note_off,,,,,4,0,1,,,0,,,50,64
134858,note_on,,,,,48,0,1,,,0,,,62,64
134866,note_on,,,,,8,0,1,,,0,,,60,64
134884,note_off,,,,,18,0,1,,,0,,,45,64
134892,note_off,,,,,8,0,1,,,0,,,62,64
134900,note_off,,,,,8,0,1,,,0,,,60,64
134912,note_off,,,,,12,0,1,,,0,,,38,64
134922,note_off,,,,,10,0,1,,,0,,,30,64
134964,note_on,,,,,42,0,1,,,0,,,62,60
134968,note_on,,,,,4,0,1,,,0,,,60,49
135036,note_off,,,,,68,0,1,,,0,,,60,64
135052,note_off,,,,,16,0,1,,,0,,,62,64
135064,note_on,,,,,0,0,1,,,0,,,31,78
135064,note_on,,,,,12,0,1,,,0,,,43,78
135072,note_on,,,,,8,0,1,,,0,,,51,76
135102,control_change,,,,,30,0,1,,,0,64,0,,
135140,note_off,,,,,38,0,1,,,0,,,51,64
135168,note_on,,,,,28,0,1,,,0,,,62,59
135176,note_on,,,,,8,0,1,,,0,,,60,63
135184,control_change,,,,,8,0,1,,,0,64,127,,
135212,note_off,,,,,28,0,1,,,0,,,62,64
135216,note_off,,,,,4,0,1,,,0,,,60,64
135230,note_on,,,,,14,0,1,,,0,,,42,82
135268,note_off,,,,,38,0,1,,,0,,,43,64
135282,note_on,,,,,14,0,1,,,0,,,60,61
135284,note_on,,,,,2,0,1,,,0,,,62,56
135372,note_on,,,,,88,0,1,,,0,,,39,82
135382,note_on,,,,,10,0,1,,,0,,,55,66
135388,note_off,,,,,6,0,1,,,0,,,42,64
135400,note_off,,,,,12,0,1,,,0,,,60,64
135402,note_off,,,,,2,0,1,,,0,,,62,64
135406,control_change,,,,,4,0,1,,,0,64,0,,
135488,control_change,,,,,82,0,1,,,0,64,127,,
135492,note_on,,,,,4,0,1,,,0,,,62,59
135496,note_on,,,,,4,0,1,,,0,,,60,57
135520,note_on,,,,,24,0,1,,,0,,,38,73
135522,note_off,,,,,2,0,1,,,0,,,55,64
135530,note_off,,,,,8,0,1,,,0,,,62,64
135534,note_off,,,,,4,0,1,,,0,,,39,64
135538,note_off,,,,,4,0,1,,,0,,,60,64
135574,note_off,,,,,36,0,1,,,0,,,31,64
135584,note_on,,,,,10,0,1,,,0,,,60,55
135588,note_on,,,,,4,0,1,,,0,,,62,61
135632,note_off,,,,,44,0,1,,,0,,,38,64
135690,note_on,,,,,58,0,1,,,0,,,33,69
135694,note_on,,,,,4,0,1,,,0,,,38,90
135696,note_on,,,,,0,0,1,,,0,,,55,74
135696,note_off,,,,,2,0,1,,,0,,,62,64
135708,note_off,,,,,12,0,1,,,0,,,60,64
135716,control_change,,,,,8,0,1,,,0,64,0,,
135782,note_off,,,,,66,0,1,,,0,,,33,64
135788,control_change,,,,,6,0,1,,,0,64,127,,
135798,note_on,,,,,10,0,1,,,0,,,62,66
135800,note_on,,,,,2,0,1,,,0,,,60,69
135804,note_off,,,,,4,0,1,,,0,,,38,64
135828,note_off,,,,,24,0,1,,,0,,,62,64
135830,note_off,,,,,2,0,1,,,0,,,55,64
135838,note_off,,,,,8,0,1,,,0,,,60,64
135898,note_on,,,,,60,0,1,,,0,,,62,52
135904,note_on,,,,,6,0,1,,,0,,,60,64
135976,note_off,,,,,72,0,1,,,0,,,60,64
136002,note_on,,,,,26,0,1,,,0,,,75,76
136010,note_on,,,,,8,0,1,,,0,,,54,69
136014,note_off,,,,,4,0,1,,,0,,,62,64
136054,control_change,,,,,40,0,1,,,0,64,0,,
136084,control_change,,,,,30,0,1,,,0,64,127,,
136112,note_on,,,,,28,0,1,,,0,,,62,63
136116,note_on,,,,,4,0,1,,,0,,,60,58
136126,note_off,,,,,10,0,1,,,0,,,62,64
136132,note_off,,,,,6,0,1,,,0,,,60,64
136200,note_on,,,,,68,0,1,,,0,,,62,44
136204,note_on,,,,,4,0,1,,,0,,,60,51
136210,note_off,,,,,6,0,1,,,0,,,54,64
136230,note_off,,,,,20,0,1,,,0,,,75,64
136242,note_on,,,,,12,0,1,,,0,,,74,63
136258,note_off,,,,,16,0,1,,,0,,,74,64
136308,note_on,,,,,50,0,1,,,0,,,74,82
136312,note_on,,,,,4,0,1,,,0,,,58,81
136324,note_off,,,,,12,0,1,,,0,,,62,64
136328,control_change,,,,,4,0,1,,,0,64,0,,
136332,control_change,,,,,4,0,1,,,0,64,127,,
136334,note_off,,,,,2,0,1,,,0,,,60,64
136340,note_off,,,,,6,0,1,,,0,,,74,64
136420,note_on,,,,,80,0,1,,,0,,,60,66
136420,note_on,,,,,0,0,1,,,0,,,62,60
136438,note_off,,,,,18,0,1,,,0,,,62,64
136458,note_off,,,,,20,0,1,,,0,,,60,64
136484,note_off,,,,,26,0,1,,,0,,,58,64
136514,note_on,,,,,30,0,1,,,0,,,62,61
136516,note_on,,,,,2,0,1,,,0,,,58,6
136524,note_on,,,,,8,0,1,,,0,,,60,54
136616,note_off,,,,,92,0,1,,,0,,,58,64
136616,note_off,,,,,0,0,1,,,0,,,62,64
136624,note_on,,,,,8,0,1,,,0,,,57,75
136640,note_off,,,,,16,0,1,,,0,,,60,64
136732,note_on,,,,,0,0,1,,,0,,,62,67
136732,note_on,,,,,92,0,1,,,0,,,60,67
136760,note_off,,,,,28,0,1,,,0,,,62,64
136770,note_off,,,,,10,0,1,,,0,,,60,64
136830,note_on,,,,,60,0,1,,,0,,,38,82
136832,note_on,,,,,2,0,1,,,0,,,30,64
136856,note_on,,,,,24,0,1,,,0,,,62,65
136860,note_on,,,,,4,0,1,,,0,,,60,64
136892,note_off,,,,,32,0,1,,,0,,,38,64
136910,note_off,,,,,18,0,1,,,0,,,30,64
136952,note_on,,,,,42,0,1,,,0,,,39,94
136952,note_on,,,,,0,0,1,,,0,,,31,59
136996,note_off,,,,,44,0,1,,,0,,,57,64
137000,note_off,,,,,4,0,1,,,0,,,60,64
137012,note_off,,,,,12,0,1,,,0,,,62,64
137062,control_change,,,,,50,0,1,,,0,64,0,,
137128,note_on,,,,,66,0,1,,,0,,,63,61
137132,note_on,,,,,4,0,1,,,0,,,61,61
137166,note_off,,,,,34,0,1,,,0,,,63,64
137168,control_change,,,,,2,0,1,,,0,64,127,,
137172,note_off,,,,,4,0,1,,,0,,,61,64
137228,note_on,,,,,56,0,1,,,0,,,63,69
137234,note_on,,,,,6,0,1,,,0,,,61,68
137322,note_on,,,,,88,0,1,,,0,,,46,90
137330,note_on,,,,,8,0,1,,,0,,,51,77
137356,note_off,,,,,26,0,1,,,0,,,63,64
137360,note_off,,,,,4,0,1,,,0,,,61,64
137374,note_off,,,,,14,0,1,,,0,,,31,64
137378,control_change,,,,,4,0,1,,,0,64,0,,
137396,control_change,,,,,18,0,1,,,0,64,127,,
137402,note_off,,,,,6,0,1,,,0,,,51,64
137430,note_on,,,,,28,0,1,,,0,,,63,66
137438,note_on,,,,,8,0,1,,,0,,,61,57
137454,note_off,,,,,16,0,1,,,0,,,46,64
137480,note_off,,,,,26,0,1,,,0,,,63,64
137482,note_off,,,,,2,0,1,,,0,,,61,64
137524,note_on,,,,,42,0,1,,,0,,,63,68
137528,note_on,,,,,4,0,1,,,0,,,61,62
137554,note_off,,,,,26,0,1,,,0,,,39,64
137598,note_off,,,,,44,0,1,,,0,,,63,64
137600,note_off,,,,,2,0,1,,,0,,,61,64
137612,note_on,,,,,12,0,1,,,0,,,44,87
137612,note_on,,,,,0,0,1,,,0,,,32,74
137634,note_on,,,,,22,0,1,,,0,,,52,78
137648,control_change,,,,,14,0,1,,,0,64,0,,
137700,control_change,,,,,52,0,1,,,0,64,127,,
137706,note_off,,,,,6,0,1,,,0,,,52,64
137726,note_on,,,,,20,0,1,,,0,,,63,69
137728,note_on,,,,,2,0,1,,,0,,,61,67
137734,note_off,,,,,6,0,1,,,0,,,44,64
137764,note_off,,,,,30,0,1,,,0,,,63,64
137772,note_off,,,,,8,0,1,,,0,,,61,64
137784,note_on,,,,,12,0,1,,,0,,,43,84
137828,note_on,,,,,44,0,1,,,0,,,63,69
137832,note_on,,,,,4,0,1,,,0,,,61,67
137906,note_off,,,,,74,0,1,,,0,,,63,64
137914,note_off,,,,,8,0,1,,,0,,,61,64
137916,note_on,,,,,2,0,1,,,0,,,40,92
137920,note_on,,,,,4,0,1,,,0,,,56,79
137944,note_off,,,,,24,0,1,,,0,,,43,64
137976,control_change,,,,,32,0,1,,,0,64,0,,
138014,note_on,,,,,38,0,1,,,0,,,63,68
138016,control_change,,,,,2,0,1,,,0,64,127,,
138020,note_on,,,,,4,0,1,,,0,,,61,54
138050,note_off,,,,,30,0,1,,,0,,,63,64
138060,note_on,,,,,0,0,1,,,0,,,39,63
138060,note_off,,,,,10,0,1,,,0,,,61,64
138064,note_off,,,,,4,0,1,,,0,,,40,64
138112,note_on,,,,,48,0,1,,,0,,,63,62
138118,note_off,,,,,6,0,1,,,0,,,32,64
138120,note_on,,,,,2,0,1,,,0,,,61,67
138138,note_off,,,,,18,0,1,,,0,,,56,64
138144,note_off,,,,,6,0,1,,,0,,,39,64
138158,note_off,,,,,14,0,1,,,0,,,61,64
138160,note_off,,,,,2,0,1,,,0,,,63,64
138220,note_on,,,,,60,0,1,,,0,,,34,74
138222,note_on,,,,,2,0,1,,,0,,,39,97
138228,note_on,,,,,0,0,1,,,0,,,63,69
138228,note_on,,,,,6,0,1,,,0,,,61,68
138232,note_on,,,,,4,0,1,,,0,,,56,78
138236,control_change,,,,,4,0,1,,,0,64,0,,
138276,note_off,,,,,40,0,1,,,0,,,63,64
138286,note_off,,,,,10,0,1,,,0,,,61,64
138304,control_change,,,,,18,0,1,,,0,64,127,,
138308,note_off,,,,,4,0,1,,,0,,,34,64
138320,note_off,,,,,12,0,1,,,0,,,39,64
138332,note_on,,,,,12,0,1,,,0,,,63,68
138340,note_on,,,,,8,0,1,,,0,,,61,58
138368,note_off,,,,,28,0,1,,,0,,,63,64
138374,note_off,,,,,6,0,1,,,0,,,61,64
138426,note_on,,,,,52,0,1,,,0,,,63,71
138432,note_on,,,,,6,0,1,,,0,,,61,59
138448,note_off,,,,,16,0,1,,,0,,,56,64
138500,note_off,,,,,52,0,1,,,0,,,61,64
138522,note_off,,,,,22,0,1,,,0,,,63,64
138526,note_on,,,,,0,0,1,,,0,,,76,68
138526,note_on,,,,,4,0,1,,,0,,,70,76
138532,note_on,,,,,6,0,1,,,0,,,55,70
138572,control_change,,,,,40,0,1,,,0,64,0,,
138594,control_change,,,,,22,0,1,,,0,64,127,,
138624,note_on,,,,,30,0,1,,,0,,,61,67
138626,note_on,,,,,2,0,1,,,0,,,63,66
138660,note_off,,,,,34,0,1,,,0,,,61,64
138662,note_off,,,,,2,0,1,,,0,,,63,64
138722,note_on,,,,,60,0,1,,,0,,,61,62
138724,note_on,,,,,2,0,1,,,0,,,63,67
138730,note_off,,,,,6,0,1,,,0,,,55,64
138748,note_off,,,,,18,0,1,,,0,,,76,64
138748,note_on,,,,,0,0,1,,,0,,,75,66
138766,note_off,,,,,18,0,1,,,0,,,70,64
138786,note_off,,,,,20,0,1,,,0,,,75,64
138820,note_on,,,,,34,0,1,,,0,,,68,76
138822,note_off,,,,,2,0,1,,,0,,,61,64
138826,note_on,,,,,4,0,1,,,0,,,75,82
138828,note_off,,,,,2,0,1,,,0,,,63,64
138834,note_on,,,,,6,0,1,,,0,,,59,40
138864,note_off,,,,,30,0,1,,,0,,,75,64
138888,note_off,,,,,24,0,1,,,0,,,68,64
138896,note_off,,,,,8,0,1,,,0,,,59,64
138910,note_on,,,,,14,0,1,,,0,,,63,65
138914,note_on,,,,,4,0,1,,,0,,,61,65
138960,note_off,,,,,46,0,1,,,0,,,61,64
138964,note_off,,,,,4,0,1,,,0,,,63,64
138974,note_on,,,,,10,0,1,,,0,,,67,62
138976,note_on,,,,,2,0,1,,,0,,,58,76
139020,note_off,,,,,44,0,1,,,0,,,67,64
139032,note_on,,,,,12,0,1,,,0,,,63,58
139036,note_on,,,,,4,0,1,,,0,,,61,58
139040,note_off,,,,,4,0,1,,,0,,,58,64
139082,note_off,,,,,42,0,1,,,0,,,61,64
139114,note_off,,,,,32,0,1,,,0,,,63,64
139118,note_on,,,,,4,0,1,,,0,,,64,74
139130,note_on,,,,,12,0,1,,,0,,,56,63
139216,note_on,,,,,86,0,1,,,0,,,61,68
139236,note_off,,,,,20,0,1,,,0,,,56,64
139264,note_off,,,,,28,0,1,,,0,,,64,64
139266,note_off,,,,,2,0,1,,,0,,,61,64
139280,note_on,,,,,14,0,1,,,0,,,63,62
139286,note_on,,,,,0,0,1,,,0,,,39,66
139286,note_on,,,,,6,0,1,,,0,,,34,64
139292,note_on,,,,,6,0,1,,,0,,,55,63
139322,note_off,,,,,30,0,1,,,0,,,39,64
139342,note_off,,,,,20,0,1,,,0,,,34,64
139350,note_on,,,,,8,0,1,,,0,,,61,77
139390,note_off,,,,,40,0,1,,,0,,,55,64
139432,note_on,,,,,42,0,1,,,0,,,39,67
139434,note_on,,,,,2,0,1,,,0,,,31,81
139436,note_off,,,,,2,0,1,,,0,,,63,64
139444,note_off,,,,,8,0,1,,,0,,,61,64
139472,control_change,,,,,28,0,1,,,0,64,0,,
139524,note_off,,,,,52,0,1,,,0,,,39,64
139540,note_on,,,,,16,0,1,,,0,,,63,68
139544,note_on,,,,,4,0,1,,,0,,,61,62
139562,control_change,,,,,18,0,1,,,0,64,127,,
139576,note_off,,,,,14,0,1,,,0,,,63,64
139582,note_off,,,,,6,0,1,,,0,,,61,64
139630,note_on,,,,,48,0,1,,,0,,,63,70
139634,note_on,,,,,4,0,1,,,0,,,61,68
139732,note_on,,,,,98,0,1,,,0,,,46,94
139732,note_on,,,,,0,0,1,,,0,,,51,79
139758,note_off,,,,,26,0,1,,,0,,,61,64
139760,note_off,,,,,2,0,1,,,0,,,63,64
139786,note_off,,,,,26,0,1,,,0,,,51,64
139836,note_on,,,,,0,0,1,,,0,,,61,67
139836,note_on,,,,,50,0,1,,,0,,,63,68
139868,note_off,,,,,32,0,1,,,0,,,63,64
139872,note_off,,,,,4,0,1,,,0,,,61,64
139876,note_off,,,,,4,0,1,,,0,,,31,64
139894,note_off,,,,,18,0,1,,,0,,,46,64
139926,note_on,,,,,32,0,1,,,0,,,63,65
139936,note_on,,,,,10,0,1,,,0,,,61,57
140024,note_on,,,,,88,0,1,,,0,,,32,75
140024,note_on,,,,,0,0,1,,,0,,,44,81
140030,note_off,,,,,6,0,1,,,0,,,63,64
140038,note_on,,,,,8,0,1,,,0,,,52,72
140040,note_off,,,,,2,0,1,,,0,,,61,64
140046,control_change,,,,,6,0,1,,,0,64,0,,
140086,note_off,,,,,40,0,1,,,0,,,52,64
140116,control_change,,,,,30,0,1,,,0,64,127,,
140126,note_on,,,,,10,0,1,,,0,,,63,70
140130,note_on,,,,,4,0,1,,,0,,,61,70
140150,note_off,,,,,20,0,1,,,0,,,44,64
140166,note_off,,,,,16,0,1,,,0,,,63,64
140180,note_off,,,,,14,0,1,,,0,,,61,64
140188,note_on,,,,,8,0,1,,,0,,,43,95
140226,note_on,,,,,38,0,1,,,0,,,63,62
140236,note_on,,,,,10,0,1,,,0,,,61,62
140322,note_on,,,,,86,0,1,,,0,,,40,93
140324,note_off,,,,,2,0,1,,,0,,,61,64
140324,note_on,,,,,0,0,1,,,0,,,56,76
140326,note_off,,,,,2,0,1,,,0,,,63,64
140340,note_off,,,,,14,0,1,,,0,,,43,64
140360,control_change,,,,,20,0,1,,,0,64,0,,
140422,note_on,,,,,62,0,1,,,0,,,61,63
140424,note_on,,,,,2,0,1,,,0,,,63,61
140436,control_change,,,,,12,0,1,,,0,64,127,,
140446,note_off,,,,,10,0,1,,,0,,,56,64
140456,note_off,,,,,10,0,1,,,0,,,63,64
140460,note_off,,,,,4,0,1,,,0,,,61,64
140480,note_off,,,,,20,0,1,,,0,,,40,64
140480,note_on,,,,,0,0,1,,,0,,,39,68
140510,note_on,,,,,30,0,1,,,0,,,61,49
140512,note_on,,,,,2,0,1,,,0,,,63,65
140532,note_off,,,,,20,0,1,,,0,,,32,64
140540,note_off,,,,,8,0,1,,,0,,,39,64
140552,note_off,,,,,12,0,1,,,0,,,61,64
140556,note_off,,,,,4,0,1,,,0,,,63,64
140608,note_on,,,,,52,0,1,,,0,,,34,68
140612,note_on,,,,,4,0,1,,,0,,,39,93
140616,note_on,,,,,4,0,1,,,0,,,61,70
140616,note_on,,,,,0,0,1,,,0,,,63,68
140622,control_change,,,,,6,0,1,,,0,64,0,,
140624,note_on,,,,,2,0,1,,,0,,,56,74
140670,note_off,,,,,46,0,1,,,0,,,63,64
140674,note_off,,,,,4,0,1,,,0,,,61,64
140692,control_change,,,,,18,0,1,,,0,64,127,,
140694,note_off,,,,,2,0,1,,,0,,,34,64
140700,note_off,,,,,6,0,1,,,0,,,39,64
140726,note_on,,,,,26,0,1,,,0,,,63,66
140730,note_on,,,,,4,0,1,,,0,,,61,54
140762,note_off,,,,,32,0,1,,,0,,,63,64
140766,note_off,,,,,4,0,1,,,0,,,61,64
140794,note_off,,,,,28,0,1,,,0,,,56,64
140820,note_on,,,,,26,0,1,,,0,,,63,67
140822,note_on,,,,,2,0,1,,,0,,,61,57
140892,note_off,,,,,70,0,1,,,0,,,61,64
140904,note_on,,,,,12,0,1,,,0,,,70,66
140910,note_on,,,,,6,0,1,,,0,,,76,59
140916,note_on,,,,,6,0,1,,,0,,,55,76
140922,note_off,,,,,6,0,1,,,0,,,63,64
140960,control_change,,,,,38,0,1,,,0,64,0,,
140980,control_change,,,,,20,0,1,,,0,64,127,,
141006,note_on,,,,,26,0,1,,,0,,,61,65
141008,note_on,,,,,2,0,1,,,0,,,63,63
141044,note_off,,,,,36,0,1,,,0,,,61,64
141046,note_off,,,,,2,0,1,,,0,,,63,64
141096,note_on,,,,,50,0,1,,,0,,,61,59
141102,note_on,,,,,6,0,1,,,0,,,63,74
141104,note_off,,,,,2,0,1,,,0,,,55,64
141130,note_off,,,,,26,0,1,,,0,,,76,64
141132,note_on,,,,,2,0,1,,,0,,,75,71
141144,note_off,,,,,12,0,1,,,0,,,70,64
141166,note_off,,,,,22,0,1,,,0,,,75,64
141194,note_on,,,,,28,0,1,,,0,,,68,79
141200,note_off,,,,,6,0,1,,,0,,,61,64
141200,note_on,,,,,0,0,1,,,0,,,75,85
141204,note_on,,,,,4,0,1,,,0,,,59,64
141206,note_off,,,,,2,0,1,,,0,,,63,64
141240,note_off,,,,,34,0,1,,,0,,,75,64
141274,note_off,,,,,34,0,1,,,0,,,68,64
141280,note_off,,,,,6,0,1,,,0,,,59,64
141282,note_on,,,,,2,0,1,,,0,,,63,57
141290,note_on,,,,,8,0,1,,,0,,,61,45
141336,note_off,,,,,46,0,1,,,0,,,61,64
141352,note_off,,,,,16,0,1,,,0,,,63,64
141352,note_on,,,,,0,0,1,,,0,,,58,66
141356,note_on,,,,,4,0,1,,,0,,,67,53
141412,note_on,,,,,56,0,1,,,0,,,61,62
141414,note_on,,,,,2,0,1,,,0,,,63,70
141416,note_off,,,,,2,0,1,,,0,,,67,64
141420,note_off,,,,,4,0,1,,,0,,,58,64
141458,note_off,,,,,38,0,1,,,0,,,61,64
141496,note_off,,,,,38,0,1,,,0,,,63,64
141496,note_on,,,,,0,0,1,,,0,,,64,77
141502,note_on,,,,,6,0,1,,,0,,,56,62
141588,note_on,,,,,86,0,1,,,0,,,61,70
141612,note_off,,,,,24,0,1,,,0,,,56,64
141614,note_off,,,,,2,0,1,,,0,,,64,64
141640,note_off,,,,,26,0,1,,,0,,,61,64
141646,note_on,,,,,6,0,1,,,0,,,34,65
141648,note_on,,,,,2,0,1,,,0,,,63,66
141652,note_on,,,,,4,0,1,,,0,,,39,70
141664,note_on,,,,,12,0,1,,,0,,,55,60
141682,note_off,,,,,18,0,1,,,0,,,34,64
141688,note_off,,,,,6,0,1,,,0,,,39,64
141718,note_on,,,,,30,0,1,,,0,,,61,79
141754,note_off,,,,,36,0,1,,,0,,,63,64
141756,note_off,,,,,2,0,1,,,0,,,55,64
141772,note_off,,,,,16,0,1,,,0,,,61,64
141810,control_change,,,,,38,0,1,,,0,64,0,,
141818,note_on,,,,,8,0,1,,,0,,,34,80
141820,note_on,,,,,2,0,1,,,0,,,46,71
141820,note_on,,,,,0,0,1,,,0,,,39,72
141824,note_on,,,,,4,0,1,,,0,,,63,78
141826,note_on,,,,,2,0,1,,,0,,,61,82
141830,note_on,,,,,4,0,1,,,0,,,55,76
141848,control_change,,,,,18,0,1,,,0,64,127,,
141852,note_off,,,,,4,0,1,,,0,,,34,64
141858,note_off,,,,,6,0,1,,,0,,,46,64
141860,note_off,,,,,0,0,1,,,0,,,39,64
141860,note_off,,,,,2,0,1,,,0,,,55,64
141872,note_off,,,,,12,0,1,,,0,,,61,64
141884,note_off,,,,,12,0,1,,,0,,,63,64
141930,note_on,,,,,46,0,1,,,0,,,61,66
141936,note_on,,,,,6,0,1,,,0,,,63,57
141964,note_off,,,,,28,0,1,,,0,,,61,64
141974,note_off,,,,,10,0,1,,,0,,,63,64
142036,note_on,,,,,62,0,1,,,0,,,63,70
142042,note_on,,,,,6,0,1,,,0,,,61,53
142076,note_off,,,,,34,0,1,,,0,,,61,64
142080,note_off,,,,,4,0,1,,,0,,,63,64
142156,note_on,,,,,76,0,1,,,0,,,77,91
142160,note_on,,,,,0,0,1,,,0,,,63,74
142160,note_on,,,,,4,0,1,,,0,,,61,74
142168,note_on,,,,,8,0,1,,,0,,,73,62
142176,note_off,,,,,8,0,1,,,0,,,63,64
142178,control_change,,,,,2,0,1,,,0,64,0,,
142184,note_off,,,,,6,0,1,,,0,,,73,64
142196,note_off,,,,,12,0,1,,,0,,,61,64
142198,control_change,,,,,2,0,1,,,0,64,127,,
142292,note_on,,,,,94,0,1,,,0,,,63,77
142296,note_on,,,,,4,0,1,,,0,,,61,66
142322,note_off,,,,,26,0,1,,,0,,,77,64
142328,note_off,,,,,6,0,1,,,0,,,61,64
142332,note_off,,,,,4,0,1,,,0,,,63,64
142384,note_on,,,,,52,0,1,,,0,,,63,79
142390,note_on,,,,,6,0,1,,,0,,,61,58
142440,note_on,,,,,50,0,1,,,0,,,75,82
142454,note_off,,,,,14,0,1,,,0,,,61,64
142468,note_off,,,,,14,0,1,,,0,,,75,64
142486,note_off,,,,,18,0,1,,,0,,,63,64
142512,note_on,,,,,26,0,1,,,0,,,72,69
142520,note_on,,,,,8,0,1,,,0,,,75,90
142528,note_on,,,,,8,0,1,,,0,,,63,77
142536,note_on,,,,,8,0,1,,,0,,,61,77
142564,note_off,,,,,28,0,1,,,0,,,75,64
142568,note_off,,,,,4,0,1,,,0,,,63,64
142576,note_off,,,,,8,0,1,,,0,,,61,64
142612,note_on,,,,,36,0,1,,,0,,,63,65
142620,note_on,,,,,8,0,1,,,0,,,61,57
142662,note_off,,,,,42,0,1,,,0,,,61,64
142680,note_off,,,,,18,0,1,,,0,,,63,64
142680,note_on,,,,,0,0,1,,,0,,,70,80
142740,note_on,,,,,0,0,1,,,0,,,63,72
142740,note_on,,,,,60,0,1,,,0,,,61,70
142744,note_off,,,,,4,0,1,,,0,,,72,64
142766,note_off,,,,,22,0,1,,,0,,,61,64
142784,note_off,,,,,18,0,1,,,0,,,63,64
142840,note_on,,,,,56,0,1,,,0,,,63,77
142844,note_on,,,,,4,0,1,,,0,,,61,83
142848,note_on,,,,,4,0,1,,,0,,,68,77
142870,note_off,,,,,22,0,1,,,0,,,70,64
142878,note_off,,,,,8,0,1,,,0,,,61,64
142880,note_off,,,,,2,0,1,,,0,,,63,64
142958,note_on,,,,,78,0,1,,,0,,,61,74
142960,note_on,,,,,2,0,1,,,0,,,63,76
142982,note_off,,,,,22,0,1,,,0,,,61,64
142982,note_off,,,,,0,0,1,,,0,,,68,64
142988,note_off,,,,,6,0,1,,,0,,,63,64
143120,note_on,,,,,132,0,1,,,0,,,34,70
143126,note_on,,,,,6,0,1,,,0,,,63,69
143128,note_on,,,,,2,0,1,,,0,,,39,62
143130,note_on,,,,,0,0,1,,,0,,,46,56
143130,note_on,,,,,2,0,1,,,0,,,55,67
143132,note_on,,,,,0,0,1,,,0,,,61,61
143132,note_on,,,,,2,0,1,,,0,,,67,58
143148,note_off,,,,,16,0,1,,,0,,,34,64
143150,note_off,,,,,2,0,1,,,0,,,67,64
143152,note_off,,,,,2,0,1,,,0,,,39,64
143154,note_off,,,,,2,0,1,,,0,,,55,64
143156,note_off,,,,,2,0,1,,,0,,,61,64
143156,note_off,,,,,0,0,1,,,0,,,46,64
143156,note_off,,,,,0,0,1,,,0,,,63,64
143170,control_change,,,,,14,0,1,,,0,64,0,,
143188,note_on,,,,,18,0,1,,,0,,,39,70
143190,note_on,,,,,2,0,1,,,0,,,46,78
143192,note_on,,,,,2,0,1,,,0,,,34,80
143194,note_on,,,,,2,0,1,,,0,,,63,76
143194,note_on,,,,,0,0,1,,,0,,,61,79
143196,note_on,,,,,2,0,1,,,0,,,55,84
143196,note_on,,,,,0,0,1,,,0,,,67,74
143216,note_off,,,,,20,0,1,,,0,,,55,64
143222,note_off,,,,,6,0,1,,,0,,,34,64
143226,note_off,,,,,4,0,1,,,0,,,39,64
143228,control_change,,,,,2,0,1,,,0,64,127,,
143232,note_off,,,,,4,0,1,,,0,,,61,64
143236,note_off,,,,,4,0,1,,,0,,,46,64
143240,note_off,,,,,4,0,1,,,0,,,63,64
143244,note_off,,,,,4,0,1,,,0,,,67,64
143364,note_on,,,,,120,0,1,,,0,,,61,74
143364,note_on,,,,,0,0,1,,,0,,,55,66
143366,note_on,,,,,2,0,1,,,0,,,65,62
143394,note_off,,,,,28,0,1,,,0,,,55,64
143396,note_off,,,,,2,0,1,,,0,,,65,64
143404,note_off,,,,,8,0,1,,,0,,,61,64
143464,note_on,,,,,60,0,1,,,0,,,61,62
143466,note_on,,,,,2,0,1,,,0,,,65,63
143466,note_on,,,,,0,0,1,,,0,,,55,64
143494,note_off,,,,,28,0,1,,,0,,,55,64
143496,note_off,,,,,2,0,1,,,0,,,65,64
143508,note_off,,,,,12,0,1,,,0,,,61,64
143568,note_on,,,,,60,0,1,,,0,,,65,72
143570,note_on,,,,,2,0,1,,,0,,,55,74
143574,note_on,,,,,4,0,1,,,0,,,61,74
143580,note_on,,,,,6,0,1,,,0,,,89,82
143582,note_on,,,,,2,0,1,,,0,,,77,80
143598,note_off,,,,,16,0,1,,,0,,,55,64
143598,note_off,,,,,0,0,1,,,0,,,65,64
143604,note_off,,,,,6,0,1,,,0,,,61,64
143678,note_on,,,,,74,0,1,,,0,,,61,76
143678,note_on,,,,,0,0,1,,,0,,,65,71
143680,note_on,,,,,2,0,1,,,0,,,55,71
143704,note_off,,,,,24,0,1,,,0,,,55,64
143706,note_off,,,,,2,0,1,,,0,,,65,64
143708,note_off,,,,,2,0,1,,,0,,,61,64
143764,set_tempo,,,,,12276,1,0,526316,,,,,,
143776,note_on,,,,,0,0,1,,,0,,,61,76
143776,note_on,,,,,68,0,1,,,0,,,65,71
143778,note_on,,,,,2,0,1,,,0,,,55,69
143800,note_off,,,,,22,0,1,,,0,,,55,64
143804,set_tempo,,,,,40,1,0,521739,,,,,,
143806,note_off,,,,,0,0,1,,,0,,,65,64
143806,note_off,,,,,6,0,1,,,0,,,61,64
143844,set_tempo,,,,,40,1,0,517241,,,,,,
143872,note_on,,,,,66,0,1,,,0,,,65,69
143872,note_on,,,,,0,0,1,,,0,,,55,70
143874,note_on,,,,,2,0,1,,,0,,,61,72
143878,note_off,,,,,4,0,1,,,0,,,77,64
143882,note_off,,,,,4,0,1,,,0,,,89,64
143884,set_tempo,,,,,40,1,0,512821,,,,,,
143900,note_off,,,,,18,0,1,,,0,,,55,64
143900,note_off,,,,,0,0,1,,,0,,,65,64
143906,note_off,,,,,6,0,1,,,0,,,61,64
143924,set_tempo,,,,,40,1,0,508475,,,,,,
143964,set_tempo,,,,,40,1,0,504202,,,,,,
143978,note_on,,,,,72,0,1,,,0,,,55,65
143980,note_on,,,,,2,0,1,,,0,,,61,69
143980,note_on,,,,,0,0,1,,,0,,,65,67
144004,set_tempo,,,,,40,1,0,500000,,,,,,
144008,note_off,,,,,0,0,1,,,0,,,65,64
144008,note_off,,,,,28,0,1,,,0,,,55,64
144016,note_off,,,,,8,0,1,,,0,,,61,64
144030,note_on,,,,,0,0,1,,,0,,,75,77
144030,note_on,,,,,14,0,1,,,0,,,87,84
144044,set_tempo,,,,,40,1,0,495868,,,,,,
144084,set_tempo,,,,,40,1,0,491803,,,,,,
144088,note_on,,,,,0,0,1,,,0,,,55,64
144088,note_on,,,,,58,0,1,,,0,,,65,63
144090,note_on,,,,,2,0,1,,,0,,,61,59
144108,note_off,,,,,18,0,1,,,0,,,87,64
144118,note_off,,,,,0,0,1,,,0,,,75,64
144118,note_off,,,,,10,0,1,,,0,,,65,64
144124,set_tempo,,,,,40,1,0,487805,,,,,,
144132,note_off,,,,,14,0,1,,,0,,,61,64
144136,note_off,,,,,4,0,1,,,0,,,55,64
144164,set_tempo,,,,,40,1,0,483871,,,,,,
144200,control_change,,,,,64,0,1,,,0,64,0,,
144204,set_tempo,,,,,40,1,0,480000,,,,,,
144216,note_on,,,,,16,0,1,,,0,,,85,86
144216,note_on,,,,,0,0,1,,,0,,,48,64
144218,note_on,,,,,2,0,1,,,0,,,73,87
144222,note_on,,,,,4,0,1,,,0,,,36,57
144240,control_change,,,,,18,0,1,,,0,64,127,,
144244,set_tempo,,,,,40,1,0,476190,,,,,,
144278,note_off,,,,,38,0,1,,,0,,,48,64
144284,set_tempo,,,,,40,1,0,472441,,,,,,
144300,note_off,,,,,22,0,1,,,0,,,36,64
144324,set_tempo,,,,,40,1,0,468750,,,,,,
144330,note_off,,,,,30,0,1,,,0,,,73,64
144338,note_off,,,,,8,0,1,,,0,,,85,64
144352,note_on,,,,,14,0,1,,,0,,,54,58
144356,note_on,,,,,4,0,1,,,0,,,63,67
144358,note_on,,,,,2,0,1,,,0,,,57,54
144364,set_tempo,,,,,40,1,0,465116,,,,,,
144392,note_off,,,,,34,0,1,,,0,,,63,64
144394,note_off,,,,,2,0,1,,,0,,,54,64
144398,note_off,,,,,4,0,1,,,0,,,57,64
144404,set_tempo,,,,,40,1,0,461538,,,,,,
144410,note_on,,,,,12,0,1,,,0,,,84,78
144416,note_on,,,,,6,0,1,,,0,,,72,74
144444,set_tempo,,,,,40,1,0,458015,,,,,,
144466,note_off,,,,,50,0,1,,,0,,,72,64
144470,note_on,,,,,4,0,1,,,0,,,63,77
144470,note_on,,,,,0,0,1,,,0,,,54,66
144474,note_off,,,,,4,0,1,,,0,,,84,64
144476,note_on,,,,,2,0,1,,,0,,,57,66
144480,set_tempo,,,,,36,1,0,454545,,,,,,
144492,note_off,,,,,16,0,1,,,0,,,57,64
144504,note_off,,,,,12,0,1,,,0,,,63,64
144518,note_off,,,,,14,0,1,,,0,,,54,64
144604,set_tempo,,,,,124,1,0,458015,,,,,,
144628,set_tempo,,,,,24,1,0,461538,,,,,,
144630,note_on,,,,,112,0,1,,,0,,,49,76
144634,note_on,,,,,4,0,1,,,0,,,37,87
144638,note_on,,,,,4,0,1,,,0,,,84,77
144640,note_on,,,,,2,0,1,,,0,,,72,76
144648,control_change,,,,,8,0,1,,,0,64,0,,
144652,set_tempo,,,,,24,1,0,465116,,,,,,
144676,set_tempo,,,,,24,1,0,468750,,,,,,
144696,note_off,,,,,48,0,1,,,0,,,37,64
144696,note_off,,,,,0,0,1,,,0,,,49,64
144700,control_change,,,,,4,0,1,,,0,64,127,,
144704,set_tempo,,,,,28,1,0,472441,,,,,,
144728,set_tempo,,,,,24,1,0,476190,,,,,,
144752,set_tempo,,,,,24,1,0,480000,,,,,,
144766,note_off,,,,,66,0,1,,,0,,,72,64
144772,note_off,,,,,6,0,1,,,0,,,84,64
144776,set_tempo,,,,,24,1,0,483871,,,,,,
144804,set_tempo,,,,,28,1,0,487805,,,,,,
144828,set_tempo,,,,,24,1,0,491803,,,,,,
144836,note_on,,,,,64,0,1,,,0,,,61,68
144840,note_on,,,,,4,0,1,,,0,,,58,74
144848,note_on,,,,,8,0,1,,,0,,,53,54
144852,set_tempo,,,,,24,1,0,495868,,,,,,
144866,note_off,,,,,18,0,1,,,0,,,53,64
144868,note_off,,,,,2,0,1,,,0,,,61,64
144874,note_off,,,,,6,0,1,,,0,,,58,64
144876,set_tempo,,,,,24,1,0,500000,,,,,,
144890,note_on,,,,,16,0,1,,,0,,,82,81
144894,note_on,,,,,4,0,1,,,0,,,70,72
144904,set_tempo,,,,,28,1,0,504202,,,,,,
144928,set_tempo,,,,,24,1,0,508475,,,,,,
144948,note_on,,,,,54,0,1,,,0,,,53,68
144952,set_tempo,,,,,24,1,0,512821,,,,,,
144952,note_on,,,,,4,0,1,,,0,,,61,65
144954,note_on,,,,,2,0,1,,,0,,,58,62
144958,note_off,,,,,4,0,1,,,0,,,82,64
144968,note_off,,,,,0,0,1,,,0,,,58,64
144968,note_off,,,,,10,0,1,,,0,,,70,64
144976,set_tempo,,,,,24,1,0,517241,,,,,,
144980,note_off,,,,,12,0,1,,,0,,,53,64
144982,note_off,,,,,2,0,1,,,0,,,61,64
145000,set_tempo,,,,,24,1,0,521739,,,,,,
145052,note_on,,,,,70,0,1,,,0,,,53,67
145058,note_on,,,,,6,0,1,,,0,,,61,54
145058,note_on,,,,,0,0,1,,,0,,,80,76
145062,note_on,,,,,0,0,1,,,0,,,58,62
145062,note_on,,,,,4,0,1,,,0,,,68,79
145078,note_off,,,,,16,0,1,,,0,,,58,64
145088,note_off,,,,,10,0,1,,,0,,,53,64
145090,note_off,,,,,2,0,1,,,0,,,61,64
145142,note_off,,,,,52,0,1,,,0,,,80,64
145144,note_off,,,,,2,0,1,,,0,,,68,64
145160,note_on,,,,,16,0,1,,,0,,,53,66
145160,note_on,,,,,0,0,1,,,0,,,58,72
145160,note_on,,,,,0,0,1,,,0,,,61,65
145188,note_off,,,,,28,0,1,,,0,,,53,64
145190,note_off,,,,,2,0,1,,,0,,,58,64
145190,note_off,,,,,0,0,1,,,0,,,61,64
145208,note_on,,,,,18,0,1,,,0,,,79,74
145210,note_on,,,,,2,0,1,,,0,,,67,69
145246,note_off,,,,,36,0,1,,,0,,,67,64
145260,note_off,,,,,14,0,1,,,0,,,79,64
145262,note_on,,,,,2,0,1,,,0,,,58,65
145262,note_on,,,,,0,0,1,,,0,,,61,61
145268,note_on,,,,,6,0,1,,,0,,,53,63
145292,note_off,,,,,24,0,1,,,0,,,61,64
145292,note_off,,,,,0,0,1,,,0,,,58,64
145300,note_off,,,,,8,0,1,,,0,,,53,64
145384,note_on,,,,,84,0,1,,,0,,,50,78
145388,note_on,,,,,4,0,1,,,0,,,38,74
145394,control_change,,,,,6,0,1,,,0,64,0,,
145398,note_on,,,,,4,0,1,,,0,,,79,73
145400,note_on,,,,,2,0,1,,,0,,,67,66
145450,control_change,,,,,50,0,1,,,0,64,127,,
145454,note_off,,,,,4,0,1,,,0,,,50,64
145458,note_off,,,,,4,0,1,,,0,,,38,64
145484,note_off,,,,,26,0,1,,,0,,,79,64
145488,note_off,,,,,4,0,1,,,0,,,67,64
145528,note_on,,,,,40,0,1,,,0,,,56,69
145528,note_on,,,,,0,0,1,,,0,,,59,51
145550,note_off,,,,,22,0,1,,,0,,,59,64
145552,note_off,,,,,2,0,1,,,0,,,56,64
145566,note_on,,,,,14,0,1,,,0,,,77,71
145566,note_on,,,,,0,0,1,,,0,,,65,74
145600,note_off,,,,,34,0,1,,,0,,,65,64
145602,note_off,,,,,2,0,1,,,0,,,77,64
145620,note_on,,,,,18,0,1,,,0,,,56,77
145630,note_on,,,,,10,0,1,,,0,,,59,59
145648,note_off,,,,,18,0,1,,,0,,,59,64
145658,note_off,,,,,10,0,1,,,0,,,56,64
145732,note_on,,,,,74,0,1,,,0,,,41,74
145734,note_on,,,,,2,0,1,,,0,,,53,69
145740,note_on,,,,,0,0,1,,,0,,,61,81
145740,note_on,,,,,6,0,1,,,0,,,73,81
145756,control_change,,,,,16,0,1,,,0,64,0,,
145794,note_off,,,,,38,0,1,,,0,,,41,64
145796,note_off,,,,,2,0,1,,,0,,,53,64
145800,control_change,,,,,4,0,1,,,0,64,127,,
145834,note_off,,,,,34,0,1,,,0,,,73,64
145850,note_off,,,,,16,0,1,,,0,,,61,64
145880,note_on,,,,,30,0,1,,,0,,,56,77
145888,note_on,,,,,8,0,1,,,0,,,59,53
145904,note_off,,,,,16,0,1,,,0,,,59,64
145920,note_off,,,,,16,0,1,,,0,,,56,64
145924,note_on,,,,,4,0,1,,,0,,,62,77
145926,note_on,,,,,2,0,1,,,0,,,74,71
145960,note_off,,,,,34,0,1,,,0,,,62,64
145978,note_off,,,,,18,0,1,,,0,,,74,64
145992,note_on,,,,,14,0,1,,,0,,,56,82
146000,note_on,,,,,8,0,1,,,0,,,59,62
146014,note_off,,,,,14,0,1,,,0,,,59,64
146022,note_off,,,,,8,0,1,,,0,,,56,64
146128,note_on,,,,,106,0,1,,,0,,,51,72
146132,note_on,,,,,4,0,1,,,0,,,39,76
146144,control_change,,,,,12,0,1,,,0,64,0,,
146148,note_on,,,,,4,0,1,,,0,,,65,77
146148,note_on,,,,,0,0,1,,,0,,,77,78
146192,control_change,,,,,44,0,1,,,0,64,127,,
146194,note_off,,,,,2,0,1,,,0,,,51,64
146210,note_off,,,,,16,0,1,,,0,,,39,64
146230,note_off,,,,,20,0,1,,,0,,,77,64
146248,note_off,,,,,18,0,1,,,0,,,65,64
146308,note_on,,,,,60,0,1,,,0,,,56,76
146310,note_on,,,,,2,0,1,,,0,,,60,58
146340,note_off,,,,,30,0,1,,,0,,,56,64
146344,note_off,,,,,4,0,1,,,0,,,60,64
146350,note_on,,,,,6,0,1,,,0,,,75,84
146354,note_on,,,,,4,0,1,,,0,,,63,81
146392,note_off,,,,,38,0,1,,,0,,,75,64
146398,note_on,,,,,6,0,1,,,0,,,56,74
146400,note_on,,,,,2,0,1,,,0,,,60,52
146428,note_off,,,,,28,0,1,,,0,,,56,64
146432,note_off,,,,,4,0,1,,,0,,,60,64
146432,note_off,,,,,0,0,1,,,0,,,63,64
146510,note_on,,,,,78,0,1,,,0,,,56,83
146514,note_on,,,,,4,0,1,,,0,,,60,65
146536,note_on,,,,,22,0,1,,,0,,,62,61
146538,note_off,,,,,2,0,1,,,0,,,60,64
146540,note_off,,,,,2,0,1,,,0,,,56,64
146542,note_on,,,,,2,0,1,,,0,,,74,58
146560,note_off,,,,,18,0,1,,,0,,,74,64
146572,note_off,,,,,12,0,1,,,0,,,62,64
146624,note_on,,,,,0,0,1,,,0,,,56,82
146624,note_on,,,,,52,0,1,,,0,,,60,75
146650,note_off,,,,,26,0,1,,,0,,,56,64
146654,note_off,,,,,4,0,1,,,0,,,60,64
146672,note_on,,,,,0,0,1,,,0,,,63,88
146672,note_on,,,,,18,0,1,,,0,,,75,90
146706,note_off,,,,,34,0,1,,,0,,,63,64
146724,note_on,,,,,18,0,1,,,0,,,56,84
146728,note_on,,,,,4,0,1,,,0,,,60,63
146744,note_off,,,,,16,0,1,,,0,,,60,64
146750,note_off,,,,,6,0,1,,,0,,,75,64
146754,note_off,,,,,4,0,1,,,0,,,56,64
146832,control_change,,,,,78,0,1,,,0,64,0,,
146838,note_on,,,,,6,0,1,,,0,,,51,70
146840,note_on,,,,,2,0,1,,,0,,,39,78
146848,note_on,,,,,8,0,1,,,0,,,77,74
146852,note_on,,,,,4,0,1,,,0,,,65,77
146878,control_change,,,,,26,0,1,,,0,64,127,,
146894,note_off,,,,,16,0,1,,,0,,,65,64
146896,note_off,,,,,2,0,1,,,0,,,77,64
146900,note_off,,,,,4,0,1,,,0,,,51,64
146910,note_off,,,,,10,0,1,,,0,,,39,64
146954,note_on,,,,,44,0,1,,,0,,,55,54
146960,note_on,,,,,6,0,1,,,0,,,61,68
146992,note_off,,,,,32,0,1,,,0,,,61,64
147000,note_off,,,,,8,0,1,,,0,,,55,64
147028,note_on,,,,,28,0,1,,,0,,,75,84
147028,note_on,,,,,0,0,1,,,0,,,63,85
147058,note_off,,,,,30,0,1,,,0,,,63,64
147070,note_off,,,,,12,0,1,,,0,,,75,64
147092,note_on,,,,,22,0,1,,,0,,,61,63
147094,note_on,,,,,2,0,1,,,0,,,55,54
147116,note_off,,,,,22,0,1,,,0,,,61,64
147120,note_off,,,,,4,0,1,,,0,,,55,64
147230,note_on,,,,,110,0,1,,,0,,,37,78
147232,control_change,,,,,2,0,1,,,0,64,0,,
147234,note_on,,,,,0,0,1,,,0,,,49,72
147234,note_on,,,,,2,0,1,,,0,,,84,88
147236,note_on,,,,,2,0,1,,,0,,,72,84
147280,control_change,,,,,44,0,1,,,0,64,127,,
147300,note_off,,,,,20,0,1,,,0,,,37,64
147302,note_off,,,,,2,0,1,,,0,,,84,64
147304,note_off,,,,,2,0,1,,,0,,,72,64
147304,note_off,,,,,0,0,1,,,0,,,49,64
147386,note_on,,,,,82,0,1,,,0,,,63,74
147392,note_on,,,,,0,0,1,,,0,,,58,63
147392,note_on,,,,,6,0,1,,,0,,,55,59
147406,note_off,,,,,14,0,1,,,0,,,58,64
147406,note_off,,,,,0,0,1,,,0,,,55,64
147424,note_off,,,,,18,0,1,,,0,,,63,64
147440,note_on,,,,,16,0,1,,,0,,,82,81
147442,note_on,,,,,2,0,1,,,0,,,70,78
147520,note_on,,,,,0,0,1,,,0,,,63,83
147520,note_on,,,,,78,0,1,,,0,,,58,83
147526,note_on,,,,,6,0,1,,,0,,,55,71
147552,note_off,,,,,26,0,1,,,0,,,63,64
147552,note_off,,,,,0,0,1,,,0,,,58,64
147558,note_off,,,,,6,0,1,,,0,,,55,64
147712,control_change,,,,,154,0,1,,,0,64,0,,
147716,note_on,,,,,4,0,1,,,0,,,36,71
147718,note_on,,,,,2,0,1,,,0,,,48,78
147748,note_off,,,,,30,0,1,,,0,,,70,64
147754,control_change,,,,,6,0,1,,,0,64,127,,
147766,note_off,,,,,12,0,1,,,0,,,82,64
147796,note_off,,,,,30,0,1,,,0,,,48,64
147810,note_off,,,,,14,0,1,,,0,,,36,64
147950,note_on,,,,,140,0,1,,,0,,,54,65
147952,note_on,,,,,0,0,1,,,0,,,57,65
147952,note_on,,,,,2,0,1,,,0,,,63,65
147956,note_on,,,,,4,0,1,,,0,,,66,65
147980,note_off,,,,,24,0,1,,,0,,,66,64
147984,note_off,,,,,4,0,1,,,0,,,54,64
147986,note_off,,,,,2,0,1,,,0,,,57,64
147986,note_off,,,,,0,0,1,,,0,,,63,64
148052,note_on,,,,,66,0,1,,,0,,,63,45
148056,note_on,,,,,4,0,1,,,0,,,66,72
148062,note_on,,,,,6,0,1,,,0,,,54,61
148066,note_on,,,,,4,0,1,,,0,,,57,55
148076,note_off,,,,,10,0,1,,,0,,,54,64
148080,note_off,,,,,4,0,1,,,0,,,57,64
148084,note_off,,,,,4,0,1,,,0,,,66,64
148086,note_off,,,,,2,0,1,,,0,,,63,64
148150,note_on,,,,,64,0,1,,,0,,,66,70
148152,note_on,,,,,2,0,1,,,0,,,57,64
148154,note_on,,,,,2,0,1,,,0,,,63,65
148156,note_on,,,,,2,0,1,,,0,,,54,63
148160,note_on,,,,,4,0,1,,,0,,,89,86
148160,note_on,,,,,0,0,1,,,0,,,101,95
148184,note_off,,,,,24,0,1,,,0,,,54,64
148188,note_off,,,,,0,0,1,,,0,,,66,64
148188,note_off,,,,,4,0,1,,,0,,,63,64
148194,note_off,,,,,6,0,1,,,0,,,57,64
148244,note_on,,,,,0,0,1,,,0,,,66,65
148244,note_on,,,,,0,0,1,,,0,,,63,68
148244,note_on,,,,,50,0,1,,,0,,,57,63
148254,note_on,,,,,10,0,1,,,0,,,54,54
148268,note_off,,,,,14,0,1,,,0,,,54,64
148282,note_off,,,,,14,0,1,,,0,,,63,64
148282,note_off,,,,,0,0,1,,,0,,,66,64
148284,note_off,,,,,2,0,1,,,0,,,57,64
148340,note_on,,,,,56,0,1,,,0,,,63,59
148344,note_on,,,,,4,0,1,,,0,,,66,61
148348,note_on,,,,,4,0,1,,,0,,,57,61
148352,note_on,,,,,4,0,1,,,0,,,54,62
148366,note_off,,,,,14,0,1,,,0,,,54,64
148380,note_off,,,,,14,0,1,,,0,,,66,64
148384,note_off,,,,,4,0,1,,,0,,,57,64
148384,note_off,,,,,0,0,1,,,0,,,63,64
148402,note_off,,,,,18,0,1,,,0,,,101,64
148416,note_off,,,,,14,0,1,,,0,,,89,64
148440,note_on,,,,,0,0,1,,,0,,,66,59
148440,note_on,,,,,24,0,1,,,0,,,63,71
148442,note_on,,,,,2,0,1,,,0,,,57,65
148444,note_on,,,,,2,0,1,,,0,,,54,65
148474,note_off,,,,,30,0,1,,,0,,,54,64
148478,note_off,,,,,4,0,1,,,0,,,66,64
148482,note_off,,,,,4,0,1,,,0,,,63,64
148484,note_off,,,,,2,0,1,,,0,,,57,64
148540,note_on,,,,,56,0,1,,,0,,,63,66
148540,note_on,,,,,0,0,1,,,0,,,66,53
148546,note_on,,,,,6,0,1,,,0,,,57,64
148548,note_on,,,,,2,0,1,,,0,,,54,65
148576,note_off,,,,,28,0,1,,,0,,,54,64
148578,note_off,,,,,2,0,1,,,0,,,66,64
148584,note_off,,,,,0,0,1,,,0,,,63,64
148584,note_off,,,,,6,0,1,,,0,,,57,64
148592,note_on,,,,,8,0,1,,,0,,,99,87
148594,note_on,,,,,2,0,1,,,0,,,87,80
148638,note_off,,,,,44,0,1,,,0,,,99,64
148640,note_on,,,,,2,0,1,,,0,,,57,70
148642,note_on,,,,,2,0,1,,,0,,,63,59
148644,note_off,,,,,2,0,1,,,0,,,87,64
148648,note_on,,,,,4,0,1,,,0,,,54,70
148648,note_on,,,,,0,0,1,,,0,,,66,58
148678,note_off,,,,,30,0,1,,,0,,,66,64
148680,note_off,,,,,2,0,1,,,0,,,63,64
148686,note_off,,,,,6,0,1,,,0,,,57,64
148694,note_off,,,,,8,0,1,,,0,,,54,64
148752,control_change,,,,,58,0,1,,,0,64,0,,
148762,note_on,,,,,10,0,1,,,0,,,51,81
148766,note_on,,,,,4,0,1,,,0,,,39,77
148776,note_on,,,,,10,0,1,,,0,,,97,95
148780,note_on,,,,,4,0,1,,,0,,,85,86
148792,control_change,,,,,12,0,1,,,0,64,127,,
148840,note_off,,,,,0,0,1,,,0,,,97,64
148840,note_off,,,,,48,0,1,,,0,,,51,64
148852,note_off,,,,,12,0,1,,,0,,,39,64
148856,note_off,,,,,4,0,1,,,0,,,85,64
148896,note_on,,,,,40,0,1,,,0,,,57,71
148900,note_on,,,,,4,0,1,,,0,,,66,74
148904,note_on,,,,,4,0,1,,,0,,,69,64
148914,note_on,,,,,10,0,1,,,0,,,60,39
148934,note_off,,,,,20,0,1,,,0,,,60,64
148936,note_off,,,,,2,0,1,,,0,,,69,64
148938,note_off,,,,,2,0,1,,,0,,,57,64
148946,note_off,,,,,8,0,1,,,0,,,66,64
148976,note_on,,,,,30,0,1,,,0,,,84,81
148976,note_on,,,,,0,0,1,,,0,,,96,90
149008,note_on,,,,,32,0,1,,,0,,,66,48
149016,note_on,,,,,8,0,1,,,0,,,69,46
149022,note_on,,,,,6,0,1,,,0,,,60,29
149024,note_on,,,,,2,0,1,,,0,,,57,74
149036,note_off,,,,,12,0,1,,,0,,,84,64
149044,note_off,,,,,8,0,1,,,0,,,69,64
149048,note_off,,,,,4,0,1,,,0,,,96,64
149050,note_off,,,,,2,0,1,,,0,,,66,64
149060,note_off,,,,,10,0,1,,,0,,,60,64
149064,note_off,,,,,4,0,1,,,0,,,57,64
149166,note_on,,,,,102,0,1,,,0,,,49,72
149168,note_on,,,,,2,0,1,,,0,,,37,81
149174,note_on,,,,,6,0,1,,,0,,,96,87
149176,note_on,,,,,2,0,1,,,0,,,84,83
149180,control_change,,,,,4,0,1,,,0,64,0,,
149208,set_tempo,,,,,4208,1,0,517241,,,,,,
149216,set_tempo,,,,,8,1,0,512821,,,,,,
149220,set_tempo,,,,,4,1,0,508475,,,,,,
149222,control_change,,,,,42,0,1,,,0,64,127,,
149224,set_tempo,,,,,4,1,0,504202,,,,,,
149228,set_tempo,,,,,4,1,0,500000,,,,,,
149236,set_tempo,,,,,8,1,0,495868,,,,,,
149238,note_off,,,,,16,0,1,,,0,,,37,64
149240,set_tempo,,,,,4,1,0,491803,,,,,,
149244,note_off,,,,,6,0,1,,,0,,,49,64
149244,set_tempo,,,,,4,1,0,487805,,,,,,
149248,set_tempo,,,,,4,1,0,483871,,,,,,
149252,set_tempo,,,,,4,1,0,480000,,,,,,
149296,note_off,,,,,52,0,1,,,0,,,96,64
149300,note_off,,,,,4,0,1,,,0,,,84,64
149352,note_on,,,,,52,0,1,,,0,,,70,72
149366,note_on,,,,,14,0,1,,,0,,,58,50
149372,note_on,,,,,6,0,1,,,0,,,65,60
149380,note_on,,,,,8,0,1,,,0,,,61,33
149388,note_off,,,,,8,0,1,,,0,,,65,64
149392,note_off,,,,,0,0,1,,,0,,,70,64
149392,note_off,,,,,4,0,1,,,0,,,58,64
149396,note_off,,,,,4,0,1,,,0,,,61,64
149398,note_on,,,,,2,0,1,,,0,,,94,88
149400,note_on,,,,,2,0,1,,,0,,,82,86
149456,note_on,,,,,56,0,1,,,0,,,61,44
149460,note_on,,,,,4,0,1,,,0,,,70,65
149464,note_on,,,,,4,0,1,,,0,,,58,42
149466,note_on,,,,,2,0,1,,,0,,,65,62
149476,note_off,,,,,10,0,1,,,0,,,94,64
149482,note_off,,,,,6,0,1,,,0,,,65,64
149484,note_off,,,,,2,0,1,,,0,,,82,64
149492,note_off,,,,,8,0,1,,,0,,,58,64
149496,note_off,,,,,4,0,1,,,0,,,70,64
149504,note_off,,,,,8,0,1,,,0,,,61,64
149528,set_tempo,,,,,276,1,0,483871,,,,,,
149544,set_tempo,,,,,16,1,0,487805,,,,,,
149560,set_tempo,,,,,16,1,0,491803,,,,,,
149560,note_on,,,,,56,0,1,,,0,,,70,60
149564,note_on,,,,,4,0,1,,,0,,,92,83
149566,note_on,,,,,2,0,1,,,0,,,80,81
149568,note_on,,,,,0,0,1,,,0,,,58,52
149568,note_on,,,,,0,0,1,,,0,,,65,59
149568,note_on,,,,,2,0,1,,,0,,,61,53
149572,set_tempo,,,,,12,1,0,495868,,,,,,
149592,note_off,,,,,24,0,1,,,0,,,65,64
149596,note_off,,,,,4,0,1,,,0,,,58,64
149598,note_off,,,,,2,0,1,,,0,,,70,64
149606,note_off,,,,,8,0,1,,,0,,,61,64
149638,note_off,,,,,32,0,1,,,0,,,80,64
149638,note_off,,,,,0,0,1,,,0,,,92,64
149666,note_on,,,,,28,0,1,,,0,,,61,62
149668,note_on,,,,,2,0,1,,,0,,,65,65
149670,note_on,,,,,0,0,1,,,0,,,58,35
149670,note_on,,,,,2,0,1,,,0,,,70,65
149696,note_off,,,,,26,0,1,,,0,,,58,64
149698,note_off,,,,,0,0,1,,,0,,,65,64
149698,note_off,,,,,2,0,1,,,0,,,70,64
149704,note_off,,,,,6,0,1,,,0,,,61,64
149708,note_on,,,,,4,0,1,,,0,,,91,80
149710,note_on,,,,,2,0,1,,,0,,,79,76
149748,note_off,,,,,38,0,1,,,0,,,79,64
149752,note_off,,,,,4,0,1,,,0,,,91,64
149764,note_on,,,,,12,0,1,,,0,,,70,77
149766,note_on,,,,,2,0,1,,,0,,,65,64
149766,note_on,,,,,0,0,1,,,0,,,58,66
149772,note_on,,,,,6,0,1,,,0,,,61,50
149796,note_off,,,,,24,0,1,,,0,,,65,64
149796,note_off,,,,,0,0,1,,,0,,,70,64
149808,note_off,,,,,12,0,1,,,0,,,61,64
149812,note_off,,,,,4,0,1,,,0,,,58,64
149852,set_tempo,,,,,280,1,0,483871,,,,,,
149860,set_tempo,,,,,8,1,0,487805,,,,,,
149868,set_tempo,,,,,8,1,0,491803,,,,,,
149876,set_tempo,,,,,8,1,0,495868,,,,,,
149884,set_tempo,,,,,8,1,0,500000,,,,,,
149888,control_change,,,,,76,0,1,,,0,64,0,,
149890,note_on,,,,,2,0,1,,,0,,,50,78
149892,set_tempo,,,,,8,1,0,504202,,,,,,
149898,note_on,,,,,8,0,1,,,0,,,91,79
149900,set_tempo,,,,,8,1,0,508475,,,,,,
149900,note_on,,,,,2,0,1,,,0,,,79,76
149908,note_on,,,,,8,0,1,,,0,,,38,43
149908,set_tempo,,,,,8,1,0,512821,,,,,,
149916,set_tempo,,,,,8,1,0,517241,,,,,,
149920,set_tempo,,,,,4,1,0,521739,,,,,,
149932,control_change,,,,,24,0,1,,,0,64,127,,
149968,note_off,,,,,36,0,1,,,0,,,91,64
149988,note_off,,,,,20,0,1,,,0,,,79,64
149992,note_off,,,,,4,0,1,,,0,,,50,64
150018,note_off,,,,,26,0,1,,,0,,,38,64
150028,note_on,,,,,10,0,1,,,0,,,62,68
150044,note_on,,,,,0,0,1,,,0,,,68,74
150044,note_on,,,,,16,0,1,,,0,,,71,74
150046,note_on,,,,,2,0,1,,,0,,,59,74
150068,note_off,,,,,22,0,1,,,0,,,62,64
150070,note_off,,,,,2,0,1,,,0,,,59,64
150072,note_off,,,,,2,0,1,,,0,,,71,64
150080,note_on,,,,,8,0,1,,,0,,,89,78
150082,note_on,,,,,2,0,1,,,0,,,77,75
150086,note_off,,,,,4,0,1,,,0,,,68,64
150128,note_on,,,,,42,0,1,,,0,,,68,64
150134,note_off,,,,,6,0,1,,,0,,,89,64
150140,note_off,,,,,6,0,1,,,0,,,77,64
150142,note_on,,,,,0,0,1,,,0,,,62,36
150142,note_on,,,,,2,0,1,,,0,,,59,77
150144,note_on,,,,,2,0,1,,,0,,,71,64
150164,note_off,,,,,20,0,1,,,0,,,71,64
150170,note_off,,,,,6,0,1,,,0,,,68,64
150182,note_off,,,,,12,0,1,,,0,,,62,64
150184,note_off,,,,,2,0,1,,,0,,,59,64
150260,note_on,,,,,76,0,1,,,0,,,53,76
150262,note_on,,,,,2,0,1,,,0,,,85,85
150264,control_change,,,,,2,0,1,,,0,64,0,,
150266,note_on,,,,,2,0,1,,,0,,,73,79
150272,note_on,,,,,6,0,1,,,0,,,41,65
150302,control_change,,,,,30,0,1,,,0,64,127,,
150322,note_off,,,,,20,0,1,,,0,,,53,64
150336,note_off,,,,,14,0,1,,,0,,,85,64
150358,note_off,,,,,22,0,1,,,0,,,41,64
150390,note_off,,,,,32,0,1,,,0,,,73,64
150404,note_on,,,,,14,0,1,,,0,,,68,63
150408,note_on,,,,,0,0,1,,,0,,,71,78
150408,note_on,,,,,0,0,1,,,0,,,62,21
150408,note_on,,,,,4,0,1,,,0,,,59,36
150438,note_off,,,,,30,0,1,,,0,,,71,64
150442,note_off,,,,,4,0,1,,,0,,,62,64
150444,note_off,,,,,2,0,1,,,0,,,68,64
150450,note_off,,,,,6,0,1,,,0,,,59,64
150458,note_on,,,,,8,0,1,,,0,,,86,79
150460,note_on,,,,,2,0,1,,,0,,,74,78
150504,note_off,,,,,44,0,1,,,0,,,74,64
150514,note_on,,,,,10,0,1,,,0,,,68,72
150520,note_on,,,,,6,0,1,,,0,,,62,63
150522,note_off,,,,,2,0,1,,,0,,,86,64
150524,note_on,,,,,2,0,1,,,0,,,71,65
150528,note_on,,,,,4,0,1,,,0,,,59,71
150550,note_off,,,,,22,0,1,,,0,,,71,64
150560,note_off,,,,,10,0,1,,,0,,,68,64
150568,note_off,,,,,8,0,1,,,0,,,62,64
150572,note_off,,,,,4,0,1,,,0,,,59,64
150636,control_change,,,,,64,0,1,,,0,64,0,,
150638,note_on,,,,,2,0,1,,,0,,,51,84
150640,note_on,,,,,2,0,1,,,0,,,39,84
150648,note_on,,,,,8,0,1,,,0,,,77,77
150648,note_on,,,,,0,0,1,,,0,,,89,82
150680,control_change,,,,,32,0,1,,,0,64,127,,
150708,note_off,,,,,28,0,1,,,0,,,51,64
150710,note_off,,,,,2,0,1,,,0,,,39,64
150736,note_off,,,,,26,0,1,,,0,,,89,64
150752,note_off,,,,,16,0,1,,,0,,,77,64
150808,note_on,,,,,56,0,1,,,0,,,60,64
150812,note_on,,,,,0,0,1,,,0,,,72,33
150812,note_on,,,,,4,0,1,,,0,,,68,63
150822,note_on,,,,,10,0,1,,,0,,,63,43
150838,note_off,,,,,16,0,1,,,0,,,72,64
150842,note_off,,,,,4,0,1,,,0,,,63,64
150844,note_off,,,,,2,0,1,,,0,,,60,64
150848,note_on,,,,,0,0,1,,,0,,,87,85
150848,note_off,,,,,4,0,1,,,0,,,68,64
150852,note_on,,,,,4,0,1,,,0,,,75,81
150904,note_on,,,,,0,0,1,,,0,,,72,69
150904,note_on,,,,,52,0,1,,,0,,,63,68
150906,note_on,,,,,2,0,1,,,0,,,68,68
150908,note_on,,,,,2,0,1,,,0,,,60,58
150920,note_off,,,,,12,0,1,,,0,,,87,64
150922,note_off,,,,,2,0,1,,,0,,,60,64
150934,note_off,,,,,12,0,1,,,0,,,75,64
150936,note_off,,,,,2,0,1,,,0,,,72,64
150938,note_off,,,,,2,0,1,,,0,,,68,64
150942,note_off,,,,,4,0,1,,,0,,,63,64
151008,note_on,,,,,66,0,1,,,0,,,86,77
151010,note_on,,,,,2,0,1,,,0,,,63,71
151012,note_on,,,,,2,0,1,,,0,,,72,63
151014,note_on,,,,,2,0,1,,,0,,,74,69
151014,note_on,,,,,0,0,1,,,0,,,60,61
151016,note_on,,,,,2,0,1,,,0,,,68,65
151028,note_off,,,,,12,0,1,,,0,,,60,64
151042,note_off,,,,,14,0,1,,,0,,,72,64
151046,note_off,,,,,4,0,1,,,0,,,68,64
151050,note_off,,,,,4,0,1,,,0,,,63,64
151060,note_off,,,,,10,0,1,,,0,,,74,64
151066,note_off,,,,,6,0,1,,,0,,,86,64
151128,note_on,,,,,0,0,1,,,0,,,63,62
151128,note_on,,,,,0,0,1,,,0,,,68,68
151128,note_on,,,,,62,0,1,,,0,,,72,71
151136,note_on,,,,,8,0,1,,,0,,,60,45
151152,note_off,,,,,16,0,1,,,0,,,60,64
151160,note_off,,,,,8,0,1,,,0,,,72,64
151162,note_off,,,,,2,0,1,,,0,,,68,64
151164,note_off,,,,,2,0,1,,,0,,,63,64
151170,note_on,,,,,6,0,1,,,0,,,87,87
151172,note_on,,,,,2,0,1,,,0,,,75,81
151206,note_off,,,,,34,0,1,,,0,,,75,64
151212,note_off,,,,,6,0,1,,,0,,,87,64
151232,note_on,,,,,20,0,1,,,0,,,72,74
151234,note_on,,,,,2,0,1,,,0,,,60,65
151236,note_on,,,,,2,0,1,,,0,,,63,68
151236,note_on,,,,,0,0,1,,,0,,,68,67
151256,note_off,,,,,20,0,1,,,0,,,68,64
151258,note_off,,,,,2,0,1,,,0,,,60,64
151262,note_off,,,,,4,0,1,,,0,,,72,64
151266,note_off,,,,,4,0,1,,,0,,,63,64
151348,note_on,,,,,82,0,1,,,0,,,89,74
151352,note_on,,,,,4,0,1,,,0,,,77,78
151356,note_on,,,,,4,0,1,,,0,,,72,71
151358,note_on,,,,,2,0,1,,,0,,,60,63
151358,note_on,,,,,0,0,1,,,0,,,63,68
151360,note_on,,,,,2,0,1,,,0,,,68,66
151372,note_off,,,,,12,0,1,,,0,,,60,64
151384,note_off,,,,,12,0,1,,,0,,,72,64
151384,note_off,,,,,0,0,1,,,0,,,77,64
151388,note_off,,,,,4,0,1,,,0,,,68,64
151388,note_off,,,,,0,0,1,,,0,,,63,64
151390,note_off,,,,,2,0,1,,,0,,,89,64
151482,note_on,,,,,0,0,1,,,0,,,87,89
151482,note_on,,,,,92,0,1,,,0,,,72,75
151484,note_on,,,,,0,0,1,,,0,,,75,86
151484,note_on,,,,,2,0,1,,,0,,,68,70
151486,note_on,,,,,2,0,1,,,0,,,63,69
151488,note_on,,,,,2,0,1,,,0,,,60,64
151502,note_off,,,,,14,0,1,,,0,,,60,64
151506,note_off,,,,,4,0,1,,,0,,,75,64
151512,note_off,,,,,6,0,1,,,0,,,87,64
151512,note_off,,,,,0,0,1,,,0,,,72,64
151514,note_off,,,,,0,0,1,,,0,,,68,64
151514,note_off,,,,,2,0,1,,,0,,,63,64
151612,note_on,,,,,98,0,1,,,0,,,72,76
151612,note_on,,,,,0,0,1,,,0,,,68,71
151614,note_on,,,,,2,0,1,,,0,,,63,68
151616,note_on,,,,,2,0,1,,,0,,,94,96
151616,note_on,,,,,0,0,1,,,0,,,60,64
151620,note_on,,,,,4,0,1,,,0,,,82,84
151630,note_off,,,,,10,0,1,,,0,,,72,64
151632,note_off,,,,,2,0,1,,,0,,,60,64
151642,note_off,,,,,10,0,1,,,0,,,68,64
151644,note_off,,,,,0,0,1,,,0,,,94,64
151644,note_off,,,,,2,0,1,,,0,,,82,64
151652,note_off,,,,,8,0,1,,,0,,,63,64
151744,control_change,,,,,92,0,1,,,0,64,0,,
151770,note_on,,,,,26,0,1,,,0,,,39,86
151772,note_on,,,,,2,0,1,,,0,,,51,74
151774,note_on,,,,,0,0,1,,,0,,,81,83
151774,note_on,,,,,2,0,1,,,0,,,93,85
151780,control_change,,,,,6,0,1,,,0,64,127,,
151800,note_off,,,,,0,0,1,,,0,,,93,64
151800,note_off,,,,,20,0,1,,,0,,,81,64
151856,note_off,,,,,56,0,1,,,0,,,39,64
151858,note_off,,,,,2,0,1,,,0,,,51,64
151944,note_on,,,,,86,0,1,,,0,,,66,68
151948,note_on,,,,,4,0,1,,,0,,,97,103
151948,note_on,,,,,0,0,1,,,0,,,60,74
151950,note_on,,,,,0,0,1,,,0,,,85,95
151950,note_on,,,,,2,0,1,,,0,,,69,66
151952,note_on,,,,,2,0,1,,,0,,,72,64
151988,note_off,,,,,36,0,1,,,0,,,66,64
151992,note_off,,,,,0,0,1,,,0,,,69,64
151992,note_off,,,,,4,0,1,,,0,,,72,64
152000,note_off,,,,,8,0,1,,,0,,,60,64
152104,note_off,,,,,104,0,1,,,0,,,97,64
152112,note_off,,,,,8,0,1,,,0,,,85,64
152118,note_on,,,,,6,0,1,,,0,,,72,77
152118,note_on,,,,,0,0,1,,,0,,,69,71
152120,note_on,,,,,0,0,1,,,0,,,66,71
152120,note_on,,,,,2,0,1,,,0,,,60,75
152140,note_off,,,,,20,0,1,,,0,,,72,64
152144,note_off,,,,,4,0,1,,,0,,,69,64
152158,note_off,,,,,14,0,1,,,0,,,60,64
152160,note_off,,,,,2,0,1,,,0,,,66,64
152200,note_on,,,,,0,0,1,,,0,,,84,83
152200,note_on,,,,,40,0,1,,,0,,,96,88
152230,note_off,,,,,30,0,1,,,0,,,84,64
152244,note_off,,,,,14,0,1,,,0,,,96,64
152296,control_change,,,,,52,0,1,,,0,64,0,,
152314,note_on,,,,,18,0,1,,,0,,,39,84
152316,note_on,,,,,2,0,1,,,0,,,96,95
152316,note_on,,,,,0,0,1,,,0,,,51,93
152318,note_on,,,,,2,0,1,,,0,,,84,91
152334,control_change,,,,,16,0,1,,,0,64,127,,
152394,note_off,,,,,60,0,1,,,0,,,51,64
152408,note_off,,,,,14,0,1,,,0,,,39,64
152434,note_off,,,,,26,0,1,,,0,,,96,64
152436,note_off,,,,,2,0,1,,,0,,,84,64
152528,note_on,,,,,92,0,1,,,0,,,73,35
152534,note_on,,,,,6,0,1,,,0,,,61,69
152540,note_on,,,,,6,0,1,,,0,,,65,73
152546,note_on,,,,,6,0,1,,,0,,,70,81
152564,note_off,,,,,18,0,1,,,0,,,61,64
152566,note_off,,,,,2,0,1,,,0,,,73,64
152576,note_off,,,,,0,0,1,,,0,,,65,64
152576,note_off,,,,,10,0,1,,,0,,,70,64
152592,note_on,,,,,16,0,1,,,0,,,94,95
152598,note_on,,,,,6,0,1,,,0,,,82,91
152656,note_on,,,,,58,0,1,,,0,,,73,89
152656,note_on,,,,,0,0,1,,,0,,,70,81
152662,note_on,,,,,6,0,1,,,0,,,61,76
152666,note_on,,,,,4,0,1,,,0,,,65,69
152668,note_off,,,,,2,0,1,,,0,,,94,64
152678,note_off,,,,,10,0,1,,,0,,,82,64
152690,note_off,,,,,12,0,1,,,0,,,73,64
152696,note_off,,,,,6,0,1,,,0,,,61,64
152698,note_off,,,,,2,0,1,,,0,,,65,64
152698,note_off,,,,,0,0,1,,,0,,,70,64
152772,note_on,,,,,0,0,1,,,0,,,81,85
152772,note_on,,,,,74,0,1,,,0,,,93,90
152774,note_on,,,,,2,0,1,,,0,,,70,62
152774,note_on,,,,,0,0,1,,,0,,,73,74
152778,note_on,,,,,4,0,1,,,0,,,61,71
152780,note_on,,,,,2,0,1,,,0,,,65,48
152804,note_off,,,,,24,0,1,,,0,,,81,64
152806,note_off,,,,,2,0,1,,,0,,,61,64
152808,note_off,,,,,2,0,1,,,0,,,73,64
152808,note_off,,,,,0,0,1,,,0,,,70,64
152814,note_off,,,,,6,0,1,,,0,,,65,64
152828,note_off,,,,,14,0,1,,,0,,,93,64
152888,note_on,,,,,60,0,1,,,0,,,70,61
152894,note_on,,,,,6,0,1,,,0,,,61,71
152896,note_on,,,,,0,0,1,,,0,,,65,40
152896,note_on,,,,,2,0,1,,,0,,,73,79
152926,note_off,,,,,30,0,1,,,0,,,61,64
152928,note_off,,,,,2,0,1,,,0,,,73,64
152932,note_on,,,,,4,0,1,,,0,,,94,93
152936,note_on,,,,,0,0,1,,,0,,,82,90
152936,note_off,,,,,4,0,1,,,0,,,70,64
152938,note_off,,,,,2,0,1,,,0,,,65,64
152988,note_off,,,,,50,0,1,,,0,,,94,64
153000,note_on,,,,,12,0,1,,,0,,,70,71
153000,note_on,,,,,0,0,1,,,0,,,73,83
153004,note_on,,,,,4,0,1,,,0,,,61,74
153010,note_off,,,,,6,0,1,,,0,,,82,64
153010,note_on,,,,,0,0,1,,,0,,,65,52
153030,note_off,,,,,20,0,1,,,0,,,73,64
153042,note_off,,,,,12,0,1,,,0,,,70,64
153048,note_off,,,,,6,0,1,,,0,,,65,64
153060,note_off,,,,,12,0,1,,,0,,,61,64
153124,note_on,,,,,64,0,1,,,0,,,97,96
153128,note_on,,,,,4,0,1,,,0,,,85,90
153134,note_on,,,,,6,0,1,,,0,,,51,81
153138,control_change,,,,,4,0,1,,,0,64,0,,
153144,note_on,,,,,6,0,1,,,0,,,39,94
153156,control_change,,,,,12,0,1,,,0,64,127,,
153192,note_off,,,,,36,0,1,,,0,,,97,64
153196,note_off,,,,,4,0,1,,,0,,,85,64
153204,note_off,,,,,8,0,1,,,0,,,51,64
153222,note_off,,,,,18,0,1,,,0,,,39,64
153290,note_on,,,,,68,0,1,,,0,,,83,81
153292,note_on,,,,,2,0,1,,,0,,,95,81
153302,note_on,,,,,10,0,1,,,0,,,74,81
153304,note_on,,,,,2,0,1,,,0,,,62,81
153304,note_on,,,,,0,0,1,,,0,,,68,81
153304,note_on,,,,,0,0,1,,,0,,,65,81
153320,note_off,,,,,16,0,1,,,0,,,83,64
153324,note_off,,,,,4,0,1,,,0,,,74,64
153328,note_off,,,,,4,0,1,,,0,,,95,64
153332,note_off,,,,,4,0,1,,,0,,,62,64
153334,note_off,,,,,0,0,1,,,0,,,68,64
153334,note_off,,,,,2,0,1,,,0,,,65,64
153458,note_on,,,,,124,0,1,,,0,,,99,79
153460,note_on,,,,,0,0,1,,,0,,,68,79
153460,note_on,,,,,0,0,1,,,0,,,62,79
153460,note_on,,,,,2,0,1,,,0,,,74,79
153462,note_on,,,,,2,0,1,,,0,,,87,79
153464,note_on,,,,,2,0,1,,,0,,,65,79
153486,note_off,,,,,22,0,1,,,0,,,74,64
153492,note_off,,,,,0,0,1,,,0,,,87,64
153492,note_off,,,,,6,0,1,,,0,,,65,64
153496,note_off,,,,,0,0,1,,,0,,,62,64
153496,note_off,,,,,4,0,1,,,0,,,68,64
153498,note_off,,,,,2,0,1,,,0,,,99,64
153620,control_change,,,,,122,0,1,,,0,64,0,,
153648,note_on,,,,,28,0,1,,,0,,,39,81
153648,note_on,,,,,0,0,1,,,0,,,98,97
153648,note_on,,,,,0,0,1,,,0,,,51,94
153650,note_on,,,,,2,0,1,,,0,,,86,94
153660,control_change,,,,,10,0,1,,,0,64,127,,
153674,note_off,,,,,14,0,1,,,0,,,86,64
153682,note_off,,,,,8,0,1,,,0,,,98,64
153734,note_off,,,,,52,0,1,,,0,,,39,64
153758,note_off,,,,,24,0,1,,,0,,,51,64
153888,note_on,,,,,130,0,1,,,0,,,103,100
153890,note_on,,,,,2,0,1,,,0,,,91,100
153892,note_on,,,,,2,0,1,,,0,,,71,82
153896,note_on,,,,,0,0,1,,,0,,,59,69
153896,note_on,,,,,4,0,1,,,0,,,68,81
153902,note_on,,,,,6,0,1,,,0,,,62,64
153996,note_off,,,,,94,0,1,,,0,,,68,64
154008,note_off,,,,,12,0,1,,,0,,,71,64
154010,note_off,,,,,2,0,1,,,0,,,62,64
154016,note_off,,,,,6,0,1,,,0,,,59,64
154142,note_on,,,,,126,0,1,,,0,,,71,86
154144,note_on,,,,,0,0,1,,,0,,,68,80
154144,note_on,,,,,2,0,1,,,0,,,59,84
154150,note_on,,,,,6,0,1,,,0,,,62,80
154172,note_off,,,,,22,0,1,,,0,,,103,64
154176,note_off,,,,,4,0,1,,,0,,,71,64
154178,note_off,,,,,2,0,1,,,0,,,59,64
154182,note_off,,,,,4,0,1,,,0,,,68,64
154188,note_off,,,,,6,0,1,,,0,,,91,64
154190,note_off,,,,,2,0,1,,,0,,,62,64
154346,note_on,,,,,156,0,1,,,0,,,101,80
154350,note_on,,,,,4,0,1,,,0,,,89,73
154386,note_off,,,,,36,0,1,,,0,,,89,64
154392,note_off,,,,,6,0,1,,,0,,,101,64
154438,control_change,,,,,46,0,1,,,0,64,1,,
154448,note_on,,,,,10,0,1,,,0,,,39,82
154450,note_on,,,,,2,0,1,,,0,,,51,95
154452,note_on,,,,,2,0,1,,,0,,,101,90
154456,note_on,,,,,4,0,1,,,0,,,89,90
154466,control_change,,,,,10,0,1,,,0,64,127,,
154482,note_off,,,,,16,0,1,,,0,,,39,64
154486,note_off,,,,,4,0,1,,,0,,,51,64
154488,note_off,,,,,2,0,1,,,0,,,101,64
154512,note_off,,,,,24,0,1,,,0,,,89,64
154680,note_on,,,,,168,0,1,,,0,,,63,79
154682,note_on,,,,,2,0,1,,,0,,,61,74
154684,note_on,,,,,2,0,1,,,0,,,51,77
154684,note_on,,,,,0,0,1,,,0,,,87,79
154686,note_on,,,,,2,0,1,,,0,,,85,81
154688,note_on,,,,,2,0,1,,,0,,,75,80
154692,note_on,,,,,4,0,1,,,0,,,79,79
154694,note_on,,,,,2,0,1,,,0,,,55,63
154724,note_off,,,,,30,0,1,,,0,,,75,64
154732,note_off,,,,,8,0,1,,,0,,,51,64
154736,note_off,,,,,4,0,1,,,0,,,63,64
154748,note_off,,,,,12,0,1,,,0,,,61,64
154750,note_off,,,,,2,0,1,,,0,,,55,64
154752,note_off,,,,,2,0,1,,,0,,,79,64
154754,note_off,,,,,2,0,1,,,0,,,87,64
154758,note_off,,,,,4,0,1,,,0,,,85,64
154878,note_on,,,,,120,0,1,,,0,,,61,79
154880,note_on,,,,,0,0,1,,,0,,,85,81
154880,note_on,,,,,0,0,1,,,0,,,79,82
154880,note_on,,,,,2,0,1,,,0,,,51,84
154882,note_on,,,,,2,0,1,,,0,,,86,84
154884,note_on,,,,,2,0,1,,,0,,,74,82
154886,note_on,,,,,2,0,1,,,0,,,62,81
154894,note_on,,,,,8,0,1,,,0,,,55,54
154908,note_off,,,,,14,0,1,,,0,,,74,64
154912,note_off,,,,,4,0,1,,,0,,,86,64
154920,note_off,,,,,8,0,1,,,0,,,62,64
154924,note_off,,,,,0,0,1,,,0,,,51,64
154924,note_off,,,,,4,0,1,,,0,,,79,64
154930,note_off,,,,,6,0,1,,,0,,,61,64
154932,note_off,,,,,2,0,1,,,0,,,55,64
154934,note_off,,,,,2,0,1,,,0,,,85,64
155040,note_on,,,,,106,0,1,,,0,,,79,84
155040,note_on,,,,,0,0,1,,,0,,,85,81
155040,note_on,,,,,0,0,1,,,0,,,75,84
155042,note_on,,,,,2,0,1,,,0,,,61,74
155042,note_on,,,,,0,0,1,,,0,,,87,80
155046,note_on,,,,,4,0,1,,,0,,,63,87
155048,note_on,,,,,2,0,1,,,0,,,51,70
155054,note_on,,,,,6,0,1,,,0,,,55,59
155064,note_off,,,,,10,0,1,,,0,,,75,64
155068,note_off,,,,,4,0,1,,,0,,,79,64
155080,note_off,,,,,12,0,1,,,0,,,51,64
155080,note_off,,,,,0,0,1,,,0,,,85,64
155080,note_off,,,,,0,0,1,,,0,,,87,64
155088,note_off,,,,,0,0,1,,,0,,,63,64
155088,note_off,,,,,8,0,1,,,0,,,55,64
155088,note_off,,,,,0,0,1,,,0,,,61,64
155200,note_on,,,,,0,0,1,,,0,,,77,81
155200,note_on,,,,,112,0,1,,,0,,,89,87
155202,note_on,,,,,2,0,1,,,0,,,65,80
155204,note_on,,,,,2,0,1,,,0,,,85,88
155204,note_on,,,,,0,0,1,,,0,,,79,87
155208,note_on,,,,,4,0,1,,,0,,,61,63
155212,note_on,,,,,4,0,1,,,0,,,51,59
155214,note_on,,,,,2,0,1,,,0,,,55,53
155218,note_off,,,,,4,0,1,,,0,,,79,64
155226,note_off,,,,,8,0,1,,,0,,,77,64
155234,note_off,,,,,0,0,1,,,0,,,89,64
155234,note_off,,,,,8,0,1,,,0,,,85,64
155236,note_off,,,,,2,0,1,,,0,,,51,64
155238,note_off,,,,,2,0,1,,,0,,,65,64
155240,note_off,,,,,2,0,1,,,0,,,61,64
155256,note_off,,,,,16,0,1,,,0,,,55,64
155370,note_on,,,,,114,0,1,,,0,,,75,83
155372,note_on,,,,,2,0,1,,,0,,,87,86
155372,note_on,,,,,0,0,1,,,0,,,79,80
155374,note_on,,,,,0,0,1,,,0,,,51,74
155374,note_on,,,,,2,0,1,,,0,,,85,80
155378,note_on,,,,,4,0,1,,,0,,,61,63
155378,note_on,,,,,0,0,1,,,0,,,63,89
155392,note_off,,,,,14,0,1,,,0,,,75,64
155394,note_on,,,,,2,0,1,,,0,,,55,38
155398,note_off,,,,,4,0,1,,,0,,,79,64
155400,note_off,,,,,2,0,1,,,0,,,61,64
155404,note_off,,,,,4,0,1,,,0,,,51,64
155408,note_off,,,,,0,0,1,,,0,,,63,64
155408,note_off,,,,,0,0,1,,,0,,,85,64
155408,note_off,,,,,0,0,1,,,0,,,87,64
155408,note_off,,,,,4,0,1,,,0,,,55,64
155520,set_tempo,,,,,5600,1,0,517241,,,,,,
155528,set_tempo,,,,,8,1,0,512821,,,,,,
155536,set_tempo,,,,,8,1,0,508475,,,,,,
155544,set_tempo,,,,,8,1,0,504202,,,,,,
155590,note_on,,,,,182,0,1,,,0,,,63,78
155596,note_on,,,,,0,0,1,,,0,,,84,92
155596,note_on,,,,,6,0,1,,,0,,,96,98
155596,note_on,,,,,0,0,1,,,0,,,87,101
155598,note_on,,,,,2,0,1,,,0,,,72,83
155600,note_on,,,,,2,0,1,,,0,,,67,73
155646,control_change,,,,,46,0,1,,,0,64,0,,
155696,control_change,,,,,50,0,1,,,0,64,127,,
155746,note_off,,,,,50,0,1,,,0,,,96,64
155756,note_off,,,,,10,0,1,,,0,,,72,64
155762,note_off,,,,,6,0,1,,,0,,,63,64
155766,note_off,,,,,4,0,1,,,0,,,67,64
155768,note_off,,,,,2,0,1,,,0,,,84,64
155784,note_off,,,,,16,0,1,,,0,,,87,64
155878,note_on,,,,,94,0,1,,,0,,,61,66
155884,note_on,,,,,6,0,1,,,0,,,70,70
155888,note_on,,,,,4,0,1,,,0,,,94,74
155890,note_on,,,,,2,0,1,,,0,,,82,59
155892,note_on,,,,,2,0,1,,,0,,,87,68
155894,note_on,,,,,2,0,1,,,0,,,67,59
155908,note_off,,,,,14,0,1,,,0,,,67,64
155918,note_off,,,,,10,0,1,,,0,,,82,64
155918,note_off,,,,,0,0,1,,,0,,,61,64
155918,note_off,,,,,0,0,1,,,0,,,70,64
155920,note_off,,,,,2,0,1,,,0,,,94,64
155924,note_off,,,,,4,0,1,,,0,,,87,64
155964,note_on,,,,,40,0,1,,,0,,,70,82
155964,note_on,,,,,0,0,1,,,0,,,82,88
155966,note_on,,,,,2,0,1,,,0,,,94,104
155968,note_on,,,,,2,0,1,,,0,,,87,84
155968,note_on,,,,,0,0,1,,,0,,,66,79
155970,note_on,,,,,2,0,1,,,0,,,60,64
155998,control_change,,,,,28,0,1,,,0,64,0,,
156006,control_change,,,,,8,0,1,,,0,64,127,,
156032,note_off,,,,,26,0,1,,,0,,,82,64
156032,note_off,,,,,0,0,1,,,0,,,70,64
156036,note_off,,,,,4,0,1,,,0,,,60,64
156038,note_off,,,,,2,0,1,,,0,,,94,64
156044,note_off,,,,,6,0,1,,,0,,,87,64
156046,note_off,,,,,2,0,1,,,0,,,66,64
156118,note_on,,,,,72,0,1,,,0,,,66,70
156120,note_on,,,,,2,0,1,,,0,,,60,73
156122,note_on,,,,,2,0,1,,,0,,,69,79
156124,note_on,,,,,2,0,1,,,0,,,87,79
156126,note_on,,,,,0,0,1,,,0,,,93,82
156126,note_on,,,,,2,0,1,,,0,,,81,71
156150,note_off,,,,,24,0,1,,,0,,,60,64
156152,note_off,,,,,2,0,1,,,0,,,69,64
156154,note_off,,,,,2,0,1,,,0,,,81,64
156156,note_off,,,,,2,0,1,,,0,,,66,64
156160,note_off,,,,,4,0,1,,,0,,,87,64
156162,note_off,,,,,2,0,1,,,0,,,93,64
156284,note_on,,,,,122,0,1,,,0,,,93,94
156284,note_on,,,,,0,0,1,,,0,,,81,82
156286,note_on,,,,,2,0,1,,,0,,,86,86
156292,note_on,,,,,0,0,1,,,0,,,59,84
156292,note_on,,,,,6,0,1,,,0,,,69,90
156294,note_on,,,,,2,0,1,,,0,,,65,83
156324,control_change,,,,,30,0,1,,,0,64,0,,
156388,control_change,,,,,64,0,1,,,0,64,127,,
156412,note_off,,,,,24,0,1,,,0,,,69,64
156414,note_off,,,,,2,0,1,,,0,,,65,64
156420,note_off,,,,,0,0,1,,,0,,,93,64
156420,note_off,,,,,6,0,1,,,0,,,59,64
156426,note_off,,,,,6,0,1,,,0,,,81,64
156432,note_off,,,,,6,0,1,,,0,,,86,64
156480,set_tempo,,,,,936,1,0,508475,,,,,,
156488,set_tempo,,,,,8,1,0,512821,,,,,,
156496,set_tempo,,,,,8,1,0,517241,,,,,,
156500,set_tempo,,,,,4,1,0,521739,,,,,,
156528,note_on,,,,,96,0,1,,,0,,,68,77
156528,note_on,,,,,0,0,1,,,0,,,92,74
156530,note_on,,,,,2,0,1,,,0,,,86,74
156530,note_on,,,,,0,0,1,,,0,,,80,66
156532,note_on,,,,,2,0,1,,,0,,,65,64
156540,note_on,,,,,8,0,1,,,0,,,59,31
156550,note_off,,,,,10,0,1,,,0,,,80,64
156552,note_off,,,,,2,0,1,,,0,,,86,64
156554,note_off,,,,,2,0,1,,,0,,,65,64
156556,note_off,,,,,2,0,1,,,0,,,59,64
156556,note_off,,,,,0,0,1,,,0,,,92,64
156560,note_off,,,,,4,0,1,,,0,,,68,64
156592,note_on,,,,,32,0,1,,,0,,,68,80
156596,control_change,,,,,4,0,1,,,0,64,0,,
156598,note_on,,,,,2,0,1,,,0,,,85,92
156600,note_on,,,,,0,0,1,,,0,,,64,84
156600,note_on,,,,,2,0,1,,,0,,,80,88
156602,note_on,,,,,2,0,1,,,0,,,58,85
156604,note_on,,,,,2,0,1,,,0,,,92,90
156636,control_change,,,,,32,0,1,,,0,64,127,,
156664,note_off,,,,,28,0,1,,,0,,,68,64
156668,note_off,,,,,4,0,1,,,0,,,80,64
156670,note_off,,,,,2,0,1,,,0,,,58,64
156676,note_off,,,,,6,0,1,,,0,,,64,64
156676,note_off,,,,,0,0,1,,,0,,,85,64
156690,note_off,,,,,14,0,1,,,0,,,92,64
156750,note_on,,,,,60,0,1,,,0,,,58,76
156756,note_on,,,,,6,0,1,,,0,,,85,82
156756,note_on,,,,,0,0,1,,,0,,,91,80
156756,note_on,,,,,0,0,1,,,0,,,67,77
156758,note_on,,,,,2,0,1,,,0,,,79,77
156760,note_on,,,,,2,0,1,,,0,,,64,70
156776,note_off,,,,,16,0,1,,,0,,,64,64
156782,note_off,,,,,6,0,1,,,0,,,67,64
156784,note_off,,,,,2,0,1,,,0,,,79,64
156786,note_off,,,,,2,0,1,,,0,,,58,64
156788,note_off,,,,,0,0,1,,,0,,,85,64
156788,note_off,,,,,2,0,1,,,0,,,91,64
156926,note_on,,,,,138,0,1,,,0,,,91,87
156928,note_on,,,,,0,0,1,,,0,,,79,83
156928,note_on,,,,,2,0,1,,,0,,,83,86
156934,note_on,,,,,0,0,1,,,0,,,67,82
156934,note_on,,,,,6,0,1,,,0,,,62,82
156936,note_on,,,,,2,0,1,,,0,,,56,87
156958,control_change,,,,,22,0,1,,,0,64,0,,
157008,control_change,,,,,50,0,1,,,0,64,127,,
157062,note_off,,,,,54,0,1,,,0,,,67,64
157074,note_off,,,,,12,0,1,,,0,,,56,64
157076,note_off,,,,,0,0,1,,,0,,,91,64
157076,note_off,,,,,2,0,1,,,0,,,62,64
157094,note_off,,,,,18,0,1,,,0,,,79,64
157100,note_off,,,,,6,0,1,,,0,,,83,64
157184,note_on,,,,,84,0,1,,,0,,,89,77
157186,note_on,,,,,2,0,1,,,0,,,83,77
157188,note_on,,,,,2,0,1,,,0,,,77,71
157188,note_on,,,,,0,0,1,,,0,,,65,75
157190,note_on,,,,,2,0,1,,,0,,,56,80
157190,note_on,,,,,0,0,1,,,0,,,62,71
157214,note_off,,,,,24,0,1,,,0,,,77,64
157216,note_off,,,,,2,0,1,,,0,,,65,64
157218,note_off,,,,,2,0,1,,,0,,,62,64
157220,note_off,,,,,2,0,1,,,0,,,83,64
157222,note_off,,,,,2,0,1,,,0,,,89,64
157236,note_off,,,,,14,0,1,,,0,,,56,64
157326,note_on,,,,,90,0,1,,,0,,,89,84
157328,note_on,,,,,0,0,1,,,0,,,51,93
157328,note_on,,,,,2,0,1,,,0,,,85,91
157332,note_on,,,,,4,0,1,,,0,,,77,82
157334,note_on,,,,,2,0,1,,,0,,,79,77
157336,note_on,,,,,2,0,1,,,0,,,39,86
157342,control_change,,,,,6,0,1,,,0,64,0,,
157390,note_off,,,,,48,0,1,,,0,,,79,64
157392,note_off,,,,,2,0,1,,,0,,,89,64
157394,control_change,,,,,2,0,1,,,0,64,127,,
157400,note_off,,,,,6,0,1,,,0,,,85,64
157402,note_off,,,,,2,0,1,,,0,,,77,64
157406,note_off,,,,,4,0,1,,,0,,,51,64
157422,note_off,,,,,16,0,1,,,0,,,39,64
157554,note_on,,,,,132,0,1,,,0,,,87,87
157556,note_on,,,,,2,0,1,,,0,,,75,81
157556,note_on,,,,,0,0,1,,,0,,,63,81
157556,note_on,,,,,0,0,1,,,0,,,79,81
157558,note_on,,,,,2,0,1,,,0,,,85,80
157562,note_on,,,,,4,0,1,,,0,,,61,72
157566,note_on,,,,,4,0,1,,,0,,,51,77
157570,note_on,,,,,4,0,1,,,0,,,55,60
157598,note_off,,,,,28,0,1,,,0,,,75,64
157612,note_off,,,,,14,0,1,,,0,,,51,64
157618,note_off,,,,,6,0,1,,,0,,,87,64
157620,note_off,,,,,2,0,1,,,0,,,61,64
157622,note_off,,,,,2,0,1,,,0,,,85,64
157624,note_off,,,,,0,0,1,,,0,,,79,64
157624,note_off,,,,,2,0,1,,,0,,,63,64
157632,note_off,,,,,8,0,1,,,0,,,55,64
157720,note_on,,,,,0,0,1,,,0,,,51,81
157720,note_on,,,,,88,0,1,,,0,,,61,65
157722,note_on,,,,,2,0,1,,,0,,,62,66
157722,note_on,,,,,0,0,1,,,0,,,79,82
157724,note_on,,,,,2,0,1,,,0,,,74,82
157724,note_on,,,,,0,0,1,,,0,,,86,82
157728,note_on,,,,,4,0,1,,,0,,,85,86
157732,note_on,,,,,4,0,1,,,0,,,55,64
157734,control_change,,,,,2,0,1,,,0,64,0,,
157740,control_change,,,,,6,0,1,,,0,64,127,,
157750,note_off,,,,,10,0,1,,,0,,,74,64
157756,note_off,,,,,6,0,1,,,0,,,62,64
157760,note_off,,,,,4,0,1,,,0,,,51,64
157762,note_off,,,,,2,0,1,,,0,,,86,64
157764,note_off,,,,,2,0,1,,,0,,,79,64
157768,note_off,,,,,0,0,1,,,0,,,61,64
157768,note_off,,,,,4,0,1,,,0,,,55,64
157776,note_off,,,,,8,0,1,,,0,,,85,64
157880,note_on,,,,,0,0,1,,,0,,,87,82
157880,note_on,,,,,104,0,1,,,0,,,79,83
157882,note_on,,,,,2,0,1,,,0,,,61,77
157884,note_on,,,,,0,0,1,,,0,,,63,87
157884,note_on,,,,,2,0,1,,,0,,,75,80
157886,note_on,,,,,2,0,1,,,0,,,85,81
157892,note_on,,,,,6,0,1,,,0,,,51,77
157900,note_on,,,,,8,0,1,,,0,,,55,45
157908,note_off,,,,,0,0,1,,,0,,,79,64
157908,note_off,,,,,8,0,1,,,0,,,75,64
157922,note_off,,,,,0,0,1,,,0,,,87,64
157922,note_off,,,,,0,0,1,,,0,,,85,64
157922,note_off,,,,,14,0,1,,,0,,,51,64
157928,note_off,,,,,6,0,1,,,0,,,63,64
157928,note_off,,,,,0,0,1,,,0,,,61,64
157930,note_off,,,,,2,0,1,,,0,,,55,64
158046,note_on,,,,,116,0,1,,,0,,,89,84
158048,note_on,,,,,0,0,1,,,0,,,77,74
158048,note_on,,,,,2,0,1,,,0,,,85,89
158050,note_on,,,,,2,0,1,,,0,,,65,82
158052,note_on,,,,,2,0,1,,,0,,,61,72
158056,note_on,,,,,4,0,1,,,0,,,51,76
158056,note_on,,,,,0,0,1,,,0,,,79,76
158062,note_on,,,,,6,0,1,,,0,,,55,60
158068,note_off,,,,,6,0,1,,,0,,,79,64
158076,note_off,,,,,8,0,1,,,0,,,77,64
158080,note_off,,,,,4,0,1,,,0,,,89,64
158084,note_off,,,,,4,0,1,,,0,,,85,64
158086,note_off,,,,,2,0,1,,,0,,,65,64
158088,note_off,,,,,2,0,1,,,0,,,51,64
158090,note_off,,,,,2,0,1,,,0,,,61,64
158104,note_off,,,,,14,0,1,,,0,,,55,64
158214,note_on,,,,,0,0,1,,,0,,,79,85
158214,note_on,,,,,110,0,1,,,0,,,87,84
158216,note_on,,,,,2,0,1,,,0,,,75,88
158216,note_on,,,,,0,0,1,,,0,,,61,63
158218,note_on,,,,,2,0,1,,,0,,,85,79
158220,note_on,,,,,2,0,1,,,0,,,51,71
158222,note_on,,,,,2,0,1,,,0,,,63,85
158234,note_on,,,,,0,0,1,,,0,,,55,40
158234,note_off,,,,,12,0,1,,,0,,,61,64
158236,note_off,,,,,2,0,1,,,0,,,75,64
158238,note_off,,,,,2,0,1,,,0,,,51,64
158240,note_off,,,,,2,0,1,,,0,,,79,64
158248,note_off,,,,,8,0,1,,,0,,,55,64
158254,note_off,,,,,6,0,1,,,0,,,85,64
158254,note_off,,,,,0,0,1,,,0,,,87,64
158256,note_off,,,,,2,0,1,,,0,,,63,64
158432,note_on,,,,,176,0,1,,,0,,,87,95
158432,note_on,,,,,0,0,1,,,0,,,63,84
158432,note_on,,,,,0,0,1,,,0,,,96,97
158436,note_on,,,,,4,0,1,,,0,,,84,86
158436,note_on,,,,,0,0,1,,,0,,,72,83
158438,note_on,,,,,2,0,1,,,0,,,67,78
158446,note_on,,,,,8,0,1,,,0,,,94,72
158460,note_off,,,,,14,0,1,,,0,,,94,64
158480,control_change,,,,,20,0,1,,,0,64,0,,
158556,control_change,,,,,76,0,1,,,0,64,127,,
158582,note_off,,,,,26,0,1,,,0,,,96,64
158590,note_off,,,,,8,0,1,,,0,,,72,64
158600,note_off,,,,,10,0,1,,,0,,,84,64
158600,note_off,,,,,0,0,1,,,0,,,63,64
158606,note_off,,,,,6,0,1,,,0,,,67,64
158618,note_off,,,,,12,0,1,,,0,,,87,64
158710,note_on,,,,,92,0,1,,,0,,,61,74
158712,note_on,,,,,2,0,1,,,0,,,94,77
158716,note_on,,,,,0,0,1,,,0,,,87,71
158716,note_on,,,,,4,0,1,,,0,,,70,72
158718,note_on,,,,,2,0,1,,,0,,,82,61
158722,note_on,,,,,4,0,1,,,0,,,67,58
158734,note_off,,,,,12,0,1,,,0,,,67,64
158740,note_off,,,,,0,0,1,,,0,,,94,64
158740,note_off,,,,,6,0,1,,,0,,,82,64
158742,note_off,,,,,2,0,1,,,0,,,87,64
158742,note_off,,,,,0,0,1,,,0,,,61,64
158744,note_off,,,,,2,0,1,,,0,,,70,64
158788,note_on,,,,,0,0,1,,,0,,,70,91
158788,note_on,,,,,0,0,1,,,0,,,82,90
158788,note_on,,,,,44,0,1,,,0,,,94,105
158790,note_on,,,,,2,0,1,,,0,,,87,89
158794,note_on,,,,,0,0,1,,,0,,,60,76
158794,note_on,,,,,4,0,1,,,0,,,66,81
158800,control_change,,,,,6,0,1,,,0,64,0,,
158838,control_change,,,,,38,0,1,,,0,64,127,,
158854,note_off,,,,,16,0,1,,,0,,,82,64
158860,note_off,,,,,0,0,1,,,0,,,70,64
158860,note_off,,,,,6,0,1,,,0,,,87,64
158862,note_off,,,,,2,0,1,,,0,,,94,64
158868,note_off,,,,,6,0,1,,,0,,,66,64
158870,note_off,,,,,2,0,1,,,0,,,60,64
158956,note_on,,,,,0,0,1,,,0,,,60,72
158956,note_on,,,,,0,0,1,,,0,,,93,76
158956,note_on,,,,,86,0,1,,,0,,,87,74
158958,note_on,,,,,2,0,1,,,0,,,69,76
158960,note_on,,,,,0,0,1,,,0,,,66,66
158960,note_on,,,,,2,0,1,,,0,,,81,64
158980,note_off,,,,,20,0,1,,,0,,,81,64
158984,note_off,,,,,4,0,1,,,0,,,69,64
158988,note_off,,,,,4,0,1,,,0,,,60,64
158988,note_off,,,,,0,0,1,,,0,,,87,64
158988,note_off,,,,,0,0,1,,,0,,,93,64
158992,note_off,,,,,4,0,1,,,0,,,66,64
159114,note_on,,,,,122,0,1,,,0,,,81,86
159116,note_on,,,,,2,0,1,,,0,,,93,91
159116,note_on,,,,,0,0,1,,,0,,,86,90
159120,note_on,,,,,4,0,1,,,0,,,59,81
159122,note_on,,,,,2,0,1,,,0,,,69,73
159126,note_on,,,,,4,0,1,,,0,,,65,77
159168,control_change,,,,,42,0,1,,,0,64,0,,
159232,control_change,,,,,64,0,1,,,0,64,127,,
159260,note_off,,,,,28,0,1,,,0,,,69,64
159266,note_off,,,,,6,0,1,,,0,,,93,64
159266,note_off,,,,,0,0,1,,,0,,,81,64
159268,note_off,,,,,2,0,1,,,0,,,65,64
159284,note_off,,,,,16,0,1,,,0,,,86,64
159290,note_off,,,,,6,0,1,,,0,,,59,64
159364,note_on,,,,,0,0,1,,,0,,,92,72
159364,note_on,,,,,74,0,1,,,0,,,68,82
159366,note_on,,,,,0,0,1,,,0,,,65,60
159366,note_on,,,,,2,0,1,,,0,,,86,74
159370,note_on,,,,,4,0,1,,,0,,,80,68
159376,note_on,,,,,6,0,1,,,0,,,59,46
159392,note_off,,,,,16,0,1,,,0,,,65,64
159394,note_off,,,,,2,0,1,,,0,,,59,64
159394,note_off,,,,,0,0,1,,,0,,,80,64
159396,note_off,,,,,2,0,1,,,0,,,86,64
159400,note_off,,,,,4,0,1,,,0,,,92,64
159400,note_off,,,,,0,0,1,,,0,,,68,64
159448,note_on,,,,,48,0,1,,,0,,,68,84
159450,note_on,,,,,2,0,1,,,0,,,92,92
159452,note_on,,,,,0,0,1,,,0,,,64,81
159452,note_on,,,,,2,0,1,,,0,,,80,87
159454,note_on,,,,,2,0,1,,,0,,,58,84
159456,note_on,,,,,2,0,1,,,0,,,85,87
159462,control_change,,,,,6,0,1,,,0,64,0,,
159498,control_change,,,,,36,0,1,,,0,64,127,,
159524,note_off,,,,,26,0,1,,,0,,,80,64
159528,note_off,,,,,4,0,1,,,0,,,68,64
159536,note_off,,,,,8,0,1,,,0,,,92,64
159538,note_off,,,,,2,0,1,,,0,,,85,64
159544,note_off,,,,,6,0,1,,,0,,,64,64
159552,note_off,,,,,8,0,1,,,0,,,58,64
159630,note_on,,,,,78,0,1,,,0,,,58,74
159636,note_on,,,,,6,0,1,,,0,,,67,74
159638,note_on,,,,,2,0,1,,,0,,,79,70
159640,note_on,,,,,0,0,1,,,0,,,85,78
159640,note_on,,,,,2,0,1,,,0,,,91,74
159644,note_on,,,,,4,0,1,,,0,,,64,70
159656,note_off,,,,,12,0,1,,,0,,,64,64
159662,note_off,,,,,6,0,1,,,0,,,67,64
159664,note_off,,,,,2,0,1,,,0,,,79,64
159664,note_off,,,,,0,0,1,,,0,,,58,64
159666,note_off,,,,,2,0,1,,,0,,,85,64
159670,note_off,,,,,4,0,1,,,0,,,91,64
159820,note_on,,,,,0,0,1,,,0,,,83,90
159820,note_on,,,,,150,0,1,,,0,,,91,84
159822,note_on,,,,,2,0,1,,,0,,,79,88
159826,note_on,,,,,4,0,1,,,0,,,67,82
159826,note_on,,,,,0,0,1,,,0,,,62,81
159828,note_on,,,,,2,0,1,,,0,,,56,88
159852,control_change,,,,,24,0,1,,,0,64,0,,
159906,control_change,,,,,54,0,1,,,0,64,127,,
159960,note_off,,,,,54,0,1,,,0,,,67,64
159968,note_off,,,,,8,0,1,,,0,,,91,64
159984,note_off,,,,,16,0,1,,,0,,,56,64
159984,note_off,,,,,0,0,1,,,0,,,79,64
159986,note_off,,,,,2,0,1,,,0,,,62,64
160000,note_off,,,,,14,0,1,,,0,,,83,64
160096,note_on,,,,,96,0,1,,,0,,,56,76
160098,note_on,,,,,2,0,1,,,0,,,89,77
160100,note_on,,,,,0,0,1,,,0,,,77,67
160100,note_on,,,,,2,0,1,,,0,,,83,75
160100,note_on,,,,,0,0,1,,,0,,,65,69
160104,note_on,,,,,4,0,1,,,0,,,62,65
160124,note_off,,,,,0,0,1,,,0,,,77,64
160124,note_off,,,,,20,0,1,,,0,,,62,64
160124,note_off,,,,,0,0,1,,,0,,,65,64
160128,note_off,,,,,4,0,1,,,0,,,83,64
160130,note_off,,,,,2,0,1,,,0,,,89,64
160144,note_off,,,,,14,0,1,,,0,,,56,64
160248,note_on,,,,,104,0,1,,,0,,,85,88
160250,note_on,,,,,2,0,1,,,0,,,89,82
160254,control_change,,,,,0,0,1,,,0,64,0,,
160254,note_on,,,,,4,0,1,,,0,,,51,93
160256,note_on,,,,,2,0,1,,,0,,,79,73
160258,note_on,,,,,2,0,1,,,0,,,77,75
160260,note_on,,,,,2,0,1,,,0,,,39,79
160312,control_change,,,,,52,0,1,,,0,64,127,,
160316,note_off,,,,,4,0,1,,,0,,,39,64
160320,note_off,,,,,4,0,1,,,0,,,89,64
160322,note_off,,,,,2,0,1,,,0,,,51,64
160322,note_off,,,,,0,0,1,,,0,,,79,64
160328,note_off,,,,,6,0,1,,,0,,,85,64
160332,note_off,,,,,4,0,1,,,0,,,77,64
160478,note_on,,,,,146,0,1,,,0,,,87,87
160480,note_on,,,,,0,0,1,,,0,,,75,83
160480,note_on,,,,,2,0,1,,,0,,,79,84
160482,note_on,,,,,2,0,1,,,0,,,85,83
160484,note_on,,,,,2,0,1,,,0,,,61,69
160486,note_on,,,,,2,0,1,,,0,,,63,83
160490,note_on,,,,,4,0,1,,,0,,,51,77
160494,note_on,,,,,4,0,1,,,0,,,55,65
160504,control_change,,,,,10,0,1,,,0,64,0,,
160524,control_change,,,,,20,0,1,,,0,64,127,,
160540,note_off,,,,,16,0,1,,,0,,,75,64
160542,note_off,,,,,2,0,1,,,0,,,51,64
160544,note_off,,,,,2,0,1,,,0,,,63,64
160550,note_off,,,,,6,0,1,,,0,,,85,64
160552,note_off,,,,,2,0,1,,,0,,,55,64
160552,note_off,,,,,0,0,1,,,0,,,79,64
160554,note_off,,,,,2,0,1,,,0,,,87,64
160556,note_off,,,,,2,0,1,,,0,,,61,64
160660,note_on,,,,,104,0,1,,,0,,,51,85
160660,note_on,,,,,0,0,1,,,0,,,61,69
160660,note_on,,,,,0,0,1,,,0,,,79,80
160662,note_on,,,,,2,0,1,,,0,,,85,82
160664,note_on,,,,,0,0,1,,,0,,,74,79
160664,note_on,,,,,2,0,1,,,0,,,86,80
160668,note_on,,,,,4,0,1,,,0,,,62,71
160672,note_on,,,,,4,0,1,,,0,,,55,65
160674,control_change,,,,,2,0,1,,,0,64,0,,
160686,control_change,,,,,12,0,1,,,0,64,127,,
160688,note_off,,,,,2,0,1,,,0,,,74,64
160694,note_off,,,,,6,0,1,,,0,,,62,64
160694,note_off,,,,,0,0,1,,,0,,,86,64
160698,note_off,,,,,4,0,1,,,0,,,51,64
160702,note_off,,,,,4,0,1,,,0,,,79,64
160706,note_off,,,,,4,0,1,,,0,,,61,64
160708,note_off,,,,,2,0,1,,,0,,,55,64
160712,note_off,,,,,4,0,1,,,0,,,85,64
160828,note_on,,,,,0,0,1,,,0,,,79,82
160828,note_on,,,,,116,0,1,,,0,,,61,74
160830,note_on,,,,,0,0,1,,,0,,,75,83
160830,note_on,,,,,2,0,1,,,0,,,87,81
160834,note_on,,,,,4,0,1,,,0,,,85,81
160836,note_on,,,,,2,0,1,,,0,,,63,88
160838,note_on,,,,,2,0,1,,,0,,,51,72
160842,control_change,,,,,4,0,1,,,0,64,0,,
160846,control_change,,,,,4,0,1,,,0,64,127,,
160848,note_on,,,,,2,0,1,,,0,,,55,55
160856,note_off,,,,,8,0,1,,,0,,,75,64
160858,note_off,,,,,2,0,1,,,0,,,79,64
160864,note_off,,,,,6,0,1,,,0,,,51,64
160876,note_off,,,,,12,0,1,,,0,,,85,64
160876,note_off,,,,,0,0,1,,,0,,,61,64
160876,note_off,,,,,0,0,1,,,0,,,87,64
160878,note_off,,,,,2,0,1,,,0,,,63,64
160880,note_off,,,,,2,0,1,,,0,,,55,64
161008,note_on,,,,,128,0,1,,,0,,,89,83
161010,note_on,,,,,2,0,1,,,0,,,85,88
161012,note_on,,,,,0,0,1,,,0,,,77,76
161012,note_on,,,,,2,0,1,,,0,,,65,85
161016,note_on,,,,,0,0,1,,,0,,,61,67
161016,note_on,,,,,4,0,1,,,0,,,79,85
161020,note_on,,,,,4,0,1,,,0,,,51,75
161022,note_on,,,,,2,0,1,,,0,,,55,66
161028,note_off,,,,,6,0,1,,,0,,,79,64
161040,note_off,,,,,12,0,1,,,0,,,77,64
161044,note_off,,,,,4,0,1,,,0,,,89,64
161052,note_off,,,,,0,0,1,,,0,,,65,64
161052,note_off,,,,,8,0,1,,,0,,,51,64
161052,note_off,,,,,0,0,1,,,0,,,85,64
161060,note_off,,,,,8,0,1,,,0,,,61,64
161068,note_off,,,,,8,0,1,,,0,,,55,64
161190,note_on,,,,,122,0,1,,,0,,,75,81
161192,note_on,,,,,0,0,1,,,0,,,85,81
161192,note_on,,,,,2,0,1,,,0,,,79,82
161194,note_on,,,,,2,0,1,,,0,,,87,84
161196,note_on,,,,,0,0,1,,,0,,,61,67
161196,note_on,,,,,2,0,1,,,0,,,63,84
161204,note_on,,,,,8,0,1,,,0,,,51,79
161212,note_off,,,,,8,0,1,,,0,,,75,64
161216,note_on,,,,,4,0,1,,,0,,,55,32
161218,note_off,,,,,2,0,1,,,0,,,79,64
161224,note_off,,,,,6,0,1,,,0,,,61,64
161226,note_off,,,,,2,0,1,,,0,,,63,64
161230,note_off,,,,,4,0,1,,,0,,,55,64
161230,note_off,,,,,0,0,1,,,0,,,87,64
161232,note_off,,,,,2,0,1,,,0,,,85,64
161240,note_off,,,,,8,0,1,,,0,,,51,64
161392,control_change,,,,,152,0,1,,,0,64,0,,
161404,note_on,,,,,0,0,1,,,0,,,37,93
161404,note_on,,,,,12,0,1,,,0,,,87,102
161406,note_on,,,,,0,0,1,,,0,,,96,100
161406,note_on,,,,,2,0,1,,,0,,,84,91
161408,note_on,,,,,2,0,1,,,0,,,49,96
161424,control_change,,,,,16,0,1,,,0,64,127,,
161436,note_off,,,,,12,0,1,,,0,,,49,64
161436,note_off,,,,,0,0,1,,,0,,,37,64
161440,note_off,,,,,4,0,1,,,0,,,84,64
161446,note_off,,,,,6,0,1,,,0,,,96,64
161452,note_off,,,,,6,0,1,,,0,,,87,64
161626,note_on,,,,,174,0,1,,,0,,,94,98
161628,note_on,,,,,2,0,1,,,0,,,82,79
161628,note_on,,,,,0,0,1,,,0,,,87,85
161630,note_on,,,,,2,0,1,,,0,,,67,77
161632,note_on,,,,,2,0,1,,,0,,,55,74
161632,note_on,,,,,0,0,1,,,0,,,63,81
161638,note_on,,,,,6,0,1,,,0,,,58,82
161656,note_off,,,,,18,0,1,,,0,,,67,64
161658,note_off,,,,,2,0,1,,,0,,,82,64
161660,note_off,,,,,2,0,1,,,0,,,55,64
161664,note_off,,,,,4,0,1,,,0,,,63,64
161668,note_off,,,,,4,0,1,,,0,,,87,64
161672,note_off,,,,,4,0,1,,,0,,,94,64
161674,note_off,,,,,2,0,1,,,0,,,58,64
161884,note_on,,,,,0,0,1,,,0,,,88,86
161884,note_on,,,,,210,0,1,,,0,,,97,100
161886,note_on,,,,,0,0,1,,,0,,,47,91
161886,note_on,,,,,2,0,1,,,0,,,85,90
161888,note_on,,,,,2,0,1,,,0,,,35,94
161890,note_on,,,,,2,0,1,,,0,,,92,89
161902,control_change,,,,,12,0,1,,,0,64,0,,
161964,note_off,,,,,62,0,1,,,0,,,35,64
161970,control_change,,,,,6,0,1,,,0,64,127,,
161980,note_off,,,,,10,0,1,,,0,,,47,64
161996,note_off,,,,,16,0,1,,,0,,,85,64
162012,note_off,,,,,16,0,1,,,0,,,88,64
162014,note_off,,,,,0,0,1,,,0,,,97,64
162014,note_off,,,,,2,0,1,,,0,,,92,64
162152,note_on,,,,,138,0,1,,,0,,,68,72
162156,note_on,,,,,4,0,1,,,0,,,92,82
162156,note_on,,,,,0,0,1,,,0,,,95,79
162158,note_on,,,,,2,0,1,,,0,,,83,75
162160,note_on,,,,,2,0,1,,,0,,,88,75
162162,note_on,,,,,2,0,1,,,0,,,64,66
162164,note_on,,,,,2,0,1,,,0,,,56,77
162168,note_on,,,,,4,0,1,,,0,,,59,77
162212,note_off,,,,,44,0,1,,,0,,,83,64
162220,note_off,,,,,8,0,1,,,0,,,68,64
162222,note_off,,,,,2,0,1,,,0,,,95,64
162228,note_off,,,,,6,0,1,,,0,,,56,64
162230,note_off,,,,,2,0,1,,,0,,,88,64
162232,note_off,,,,,0,0,1,,,0,,,64,64
162232,note_off,,,,,2,0,1,,,0,,,59,64
162236,note_off,,,,,4,0,1,,,0,,,92,64
162326,note_on,,,,,90,0,1,,,0,,,56,84
162328,note_on,,,,,2,0,1,,,0,,,94,89
162330,note_on,,,,,2,0,1,,,0,,,82,85
162332,note_on,,,,,2,0,1,,,0,,,88,76
162332,note_on,,,,,0,0,1,,,0,,,92,77
162336,note_on,,,,,4,0,1,,,0,,,58,77
162336,note_on,,,,,0,0,1,,,0,,,64,64
162340,note_on,,,,,4,0,1,,,0,,,68,84
162392,note_off,,,,,52,0,1,,,0,,,88,64
162398,note_off,,,,,6,0,1,,,0,,,58,64
162400,note_off,,,,,2,0,1,,,0,,,64,64
162404,note_off,,,,,4,0,1,,,0,,,92,64
162404,note_off,,,,,0,0,1,,,0,,,94,64
162408,note_off,,,,,4,0,1,,,0,,,68,64
162408,note_off,,,,,0,0,1,,,0,,,82,64
162444,note_off,,,,,36,0,1,,,0,,,56,64
162506,note_on,,,,,0,0,1,,,0,,,56,84
162506,note_on,,,,,62,0,1,,,0,,,92,77
162508,note_on,,,,,2,0,1,,,0,,,83,80
162508,note_on,,,,,0,0,1,,,0,,,68,89
162510,note_on,,,,,2,0,1,,,0,,,95,81
162512,note_on,,,,,2,0,1,,,0,,,64,79
162512,note_on,,,,,0,0,1,,,0,,,59,70
162512,note_on,,,,,0,0,1,,,0,,,87,84
162530,note_off,,,,,18,0,1,,,0,,,64,64
162542,note_off,,,,,12,0,1,,,0,,,68,64
162544,note_off,,,,,2,0,1,,,0,,,83,64
162548,note_off,,,,,4,0,1,,,0,,,87,64
162548,note_off,,,,,0,0,1,,,0,,,59,64
162558,note_off,,,,,10,0,1,,,0,,,56,64
162564,note_off,,,,,6,0,1,,,0,,,95,64
162572,note_off,,,,,8,0,1,,,0,,,92,64
162708,note_on,,,,,136,0,1,,,0,,,35,85
162712,note_on,,,,,0,0,1,,,0,,,97,96
162712,note_on,,,,,4,0,1,,,0,,,93,79
162714,note_on,,,,,2,0,1,,,0,,,85,87
162716,note_on,,,,,2,0,1,,,0,,,87,88
162716,note_on,,,,,0,0,1,,,0,,,47,82
162722,control_change,,,,,6,0,1,,,0,64,0,,
162730,control_change,,,,,8,0,1,,,0,64,127,,
162736,note_off,,,,,6,0,1,,,0,,,35,64
162742,note_off,,,,,6,0,1,,,0,,,85,64
162748,note_off,,,,,6,0,1,,,0,,,47,64
162756,note_off,,,,,8,0,1,,,0,,,97,64
162764,note_off,,,,,8,0,1,,,0,,,93,64
162766,note_off,,,,,2,0,1,,,0,,,87,64
162908,note_on,,,,,142,0,1,,,0,,,87,87
162910,note_on,,,,,2,0,1,,,0,,,69,88
162912,note_on,,,,,2,0,1,,,0,,,57,82
162912,note_on,,,,,0,0,1,,,0,,,83,81
162914,note_on,,,,,2,0,1,,,0,,,93,82
162914,note_on,,,,,0,0,1,,,0,,,63,77
162918,note_on,,,,,0,0,1,,,0,,,95,85
162918,note_on,,,,,4,0,1,,,0,,,59,75
162934,note_off,,,,,16,0,1,,,0,,,83,64
162938,note_off,,,,,4,0,1,,,0,,,69,64
162944,note_off,,,,,0,0,1,,,0,,,87,64
162944,note_off,,,,,6,0,1,,,0,,,57,64
162946,note_off,,,,,2,0,1,,,0,,,63,64
162952,note_off,,,,,6,0,1,,,0,,,95,64
162954,note_off,,,,,2,0,1,,,0,,,59,64
162954,note_off,,,,,0,0,1,,,0,,,93,64
163144,note_on,,,,,0,0,1,,,0,,,45,97
163144,note_on,,,,,190,0,1,,,0,,,95,93
163144,note_on,,,,,0,0,1,,,0,,,33,97
163146,note_on,,,,,2,0,1,,,0,,,104,100
163148,note_on,,,,,2,0,1,,,0,,,92,92
163162,control_change,,,,,14,0,1,,,0,64,0,,
163196,note_off,,,,,34,0,1,,,0,,,33,64
163200,control_change,,,,,4,0,1,,,0,64,127,,
163216,note_off,,,,,16,0,1,,,0,,,45,64
163228,note_off,,,,,12,0,1,,,0,,,104,64
163228,note_off,,,,,0,0,1,,,0,,,92,64
163238,note_off,,,,,10,0,1,,,0,,,95,64
163400,note_on,,,,,162,0,1,,,0,,,63,72
163404,note_on,,,,,0,0,1,,,0,,,102,95
163404,note_on,,,,,4,0,1,,,0,,,51,80
163406,note_on,,,,,2,0,1,,,0,,,90,82
163408,note_on,,,,,0,0,1,,,0,,,54,79
163408,note_on,,,,,0,0,1,,,0,,,95,91
163408,note_on,,,,,2,0,1,,,0,,,59,71
163432,note_off,,,,,24,0,1,,,0,,,59,64
163436,note_off,,,,,4,0,1,,,0,,,63,64
163440,note_off,,,,,4,0,1,,,0,,,90,64
163442,note_off,,,,,2,0,1,,,0,,,102,64
163444,note_off,,,,,2,0,1,,,0,,,51,64
163450,note_off,,,,,0,0,1,,,0,,,54,64
163450,note_off,,,,,6,0,1,,,0,,,95,64
163672,note_on,,,,,0,0,1,,,0,,,43,94
163672,note_on,,,,,222,0,1,,,0,,,31,91
163682,control_change,,,,,10,0,1,,,0,64,0,,
163750,note_off,,,,,68,0,1,,,0,,,31,64
163756,control_change,,,,,6,0,1,,,0,64,127,,
163770,note_off,,,,,14,0,1,,,0,,,43,64
163800,set_tempo,,,,,7300,1,0,517241,,,,,,
163828,note_on,,,,,58,0,1,,,0,,,80,76
163832,note_on,,,,,4,0,1,,,0,,,68,58
163834,note_on,,,,,2,0,1,,,0,,,72,69
163836,note_on,,,,,2,0,1,,,0,,,75,71
163898,note_off,,,,,62,0,1,,,0,,,72,64
163900,note_off,,,,,2,0,1,,,0,,,75,64
163904,note_off,,,,,4,0,1,,,0,,,68,64
163920,set_tempo,,,,,120,1,0,512821,,,,,,
163924,note_off,,,,,20,0,1,,,0,,,80,64
163932,note_on,,,,,8,0,1,,,0,,,63,77
163938,note_on,,,,,6,0,1,,,0,,,51,76
163944,note_on,,,,,6,0,1,,,0,,,60,58
163950,note_on,,,,,6,0,1,,,0,,,55,48
164012,note_on,,,,,62,0,1,,,0,,,75,76
164014,note_on,,,,,2,0,1,,,0,,,79,69
164016,note_on,,,,,2,0,1,,,0,,,72,68
164016,note_on,,,,,0,0,1,,,0,,,67,68
164020,note_off,,,,,4,0,1,,,0,,,55,64
164028,note_off,,,,,8,0,1,,,0,,,63,64
164032,note_off,,,,,4,0,1,,,0,,,51,64
164036,note_off,,,,,4,0,1,,,0,,,60,64
164040,set_tempo,,,,,120,1,0,508475,,,,,,
164072,note_off,,,,,36,0,1,,,0,,,67,64
164080,note_off,,,,,8,0,1,,,0,,,79,64
164088,note_off,,,,,8,0,1,,,0,,,72,64
164088,note_off,,,,,0,0,1,,,0,,,75,64
164102,note_on,,,,,14,0,1,,,0,,,51,72
164104,note_on,,,,,2,0,1,,,0,,,63,76
164106,note_on,,,,,2,0,1,,,0,,,54,72
164110,note_on,,,,,4,0,1,,,0,,,60,57
164160,set_tempo,,,,,120,1,0,504202,,,,,,
164168,note_on,,,,,58,0,1,,,0,,,78,75
164170,note_on,,,,,2,0,1,,,0,,,66,80
164172,note_on,,,,,2,0,1,,,0,,,75,71
164174,note_on,,,,,2,0,1,,,0,,,72,67
164180,note_off,,,,,6,0,1,,,0,,,54,64
164188,note_off,,,,,8,0,1,,,0,,,63,64
164198,note_off,,,,,10,0,1,,,0,,,51,64
164200,note_off,,,,,2,0,1,,,0,,,60,64
164228,note_off,,,,,28,0,1,,,0,,,72,64
164234,note_off,,,,,6,0,1,,,0,,,75,64
164240,note_off,,,,,6,0,1,,,0,,,78,64
164244,note_off,,,,,4,0,1,,,0,,,66,64
164248,note_on,,,,,4,0,1,,,0,,,51,76
164252,note_on,,,,,4,0,1,,,0,,,63,72
164256,note_on,,,,,4,0,1,,,0,,,55,65
164262,note_on,,,,,6,0,1,,,0,,,60,53
164278,note_off,,,,,16,0,1,,,0,,,60,64
164280,set_tempo,,,,,120,1,0,500000,,,,,,
164304,note_off,,,,,26,0,1,,,0,,,51,64
164314,note_off,,,,,10,0,1,,,0,,,63,64
164316,note_off,,,,,2,0,1,,,0,,,55,64
164320,note_on,,,,,4,0,1,,,0,,,67,71
164320,note_on,,,,,0,0,1,,,0,,,75,76
164322,note_on,,,,,2,0,1,,,0,,,79,73
164326,note_on,,,,,4,0,1,,,0,,,72,68
164382,note_off,,,,,56,0,1,,,0,,,67,64
164384,note_off,,,,,2,0,1,,,0,,,79,64
164390,note_off,,,,,6,0,1,,,0,,,72,64
164400,set_tempo,,,,,120,1,0,495868,,,,,,
164402,note_off,,,,,12,0,1,,,0,,,75,64
164412,note_on,,,,,10,0,1,,,0,,,63,86
164412,note_on,,,,,0,0,1,,,0,,,53,77
164414,note_on,,,,,2,0,1,,,0,,,56,85
164420,note_on,,,,,6,0,1,,,0,,,59,76
164432,control_change,,,,,12,0,1,,,0,64,0,,
164472,control_change,,,,,40,0,1,,,0,64,127,,
164496,set_tempo,,,,,96,1,0,500000,,,,,,
164496,note_on,,,,,0,0,1,,,0,,,75,74
164496,note_on,,,,,24,0,1,,,0,,,80,72
164498,note_on,,,,,2,0,1,,,0,,,71,74
164498,note_on,,,,,0,0,1,,,0,,,68,65
164500,note_off,,,,,2,0,1,,,0,,,59,64
164504,note_off,,,,,4,0,1,,,0,,,63,64
164510,note_off,,,,,6,0,1,,,0,,,53,64
164526,note_off,,,,,16,0,1,,,0,,,56,64
164566,note_off,,,,,40,0,1,,,0,,,68,64
164566,note_off,,,,,0,0,1,,,0,,,71,64
164568,note_off,,,,,2,0,1,,,0,,,80,64
164572,note_off,,,,,4,0,1,,,0,,,75,64
164580,note_on,,,,,8,0,1,,,0,,,63,83
164580,note_on,,,,,0,0,1,,,0,,,55,71
164584,note_on,,,,,4,0,1,,,0,,,53,71
164586,note_on,,,,,2,0,1,,,0,,,59,70
164592,set_tempo,,,,,96,1,0,504202,,,,,,
164618,control_change,,,,,32,0,1,,,0,64,0,,
164624,control_change,,,,,6,0,1,,,0,64,127,,
164644,note_off,,,,,20,0,1,,,0,,,55,64
164650,note_on,,,,,6,0,1,,,0,,,71,77
164652,note_on,,,,,2,0,1,,,0,,,79,75
164654,note_on,,,,,2,0,1,,,0,,,67,66
164656,note_off,,,,,2,0,1,,,0,,,59,64
164660,note_off,,,,,4,0,1,,,0,,,63,64
164664,note_off,,,,,4,0,1,,,0,,,53,64
164682,note_off,,,,,18,0,1,,,0,,,67,64
164688,set_tempo,,,,,96,1,0,508475,,,,,,
164692,note_off,,,,,10,0,1,,,0,,,71,64
164710,note_off,,,,,18,0,1,,,0,,,79,64
164746,note_on,,,,,36,0,1,,,0,,,63,89
164748,note_on,,,,,2,0,1,,,0,,,53,78
164754,note_on,,,,,6,0,1,,,0,,,56,79
164754,note_on,,,,,0,0,1,,,0,,,59,72
164772,control_change,,,,,18,0,1,,,0,64,0,,
164784,set_tempo,,,,,96,1,0,512821,,,,,,
164788,control_change,,,,,16,0,1,,,0,64,127,,
164838,note_on,,,,,50,0,1,,,0,,,87,91
164842,note_on,,,,,4,0,1,,,0,,,75,80
164842,note_on,,,,,0,0,1,,,0,,,80,84
164848,note_off,,,,,6,0,1,,,0,,,59,64
164858,note_off,,,,,10,0,1,,,0,,,53,64
164864,note_off,,,,,6,0,1,,,0,,,63,64
164878,note_off,,,,,14,0,1,,,0,,,56,64
164880,set_tempo,,,,,96,1,0,517241,,,,,,
164884,set_tempo,,,,,4,1,0,495868,,,,,,
164892,set_tempo,,,,,8,1,0,491803,,,,,,
164900,note_off,,,,,22,0,1,,,0,,,75,64
164900,set_tempo,,,,,8,1,0,487805,,,,,,
164908,set_tempo,,,,,8,1,0,483871,,,,,,
164908,note_off,,,,,8,0,1,,,0,,,80,64
164910,note_off,,,,,2,0,1,,,0,,,87,64
164912,set_tempo,,,,,4,1,0,480000,,,,,,
164920,set_tempo,,,,,8,1,0,476190,,,,,,
164928,set_tempo,,,,,8,1,0,472441,,,,,,
164936,set_tempo,,,,,8,1,0,468750,,,,,,
164940,set_tempo,,,,,4,1,0,465116,,,,,,
164946,note_on,,,,,36,0,1,,,0,,,62,84
164950,note_on,,,,,4,0,1,,,0,,,53,79
164952,note_on,,,,,2,0,1,,,0,,,56,79
164956,note_on,,,,,4,0,1,,,0,,,59,74
164972,note_off,,,,,16,0,1,,,0,,,59,64
164974,note_off,,,,,2,0,1,,,0,,,62,64
164984,note_off,,,,,10,0,1,,,0,,,53,64
164996,note_off,,,,,12,0,1,,,0,,,56,64
165044,set_tempo,,,,,104,1,0,461538,,,,,,
165050,note_on,,,,,54,0,1,,,0,,,86,78
165050,note_on,,,,,0,0,1,,,0,,,80,75
165056,note_on,,,,,6,0,1,,,0,,,74,60
165072,set_tempo,,,,,28,1,0,465116,,,,,,
165092,note_off,,,,,36,0,1,,,0,,,86,64
165096,note_off,,,,,4,0,1,,,0,,,74,64
165100,set_tempo,,,,,28,1,0,468750,,,,,,
165112,note_off,,,,,16,0,1,,,0,,,80,64
165124,set_tempo,,,,,24,1,0,472441,,,,,,
165152,set_tempo,,,,,28,1,0,476190,,,,,,
165178,note_on,,,,,66,0,1,,,0,,,31,92
165180,note_on,,,,,2,0,1,,,0,,,43,86
165180,set_tempo,,,,,28,1,0,480000,,,,,,
165194,control_change,,,,,14,0,1,,,0,64,0,,
165204,set_tempo,,,,,24,1,0,483871,,,,,,
165232,set_tempo,,,,,28,1,0,487805,,,,,,
165256,set_tempo,,,,,24,1,0,491803,,,,,,
165260,note_off,,,,,66,0,1,,,0,,,31,64
165264,control_change,,,,,4,0,1,,,0,64,127,,
165282,note_off,,,,,18,0,1,,,0,,,43,64
165284,set_tempo,,,,,28,1,0,495868,,,,,,
165312,set_tempo,,,,,28,1,0,500000,,,,,,
165320,note_on,,,,,38,0,1,,,0,,,80,77
165322,note_on,,,,,2,0,1,,,0,,,68,77
165324,note_on,,,,,2,0,1,,,0,,,72,71
165326,note_on,,,,,2,0,1,,,0,,,75,74
165336,set_tempo,,,,,24,1,0,504202,,,,,,
165364,set_tempo,,,,,28,1,0,508475,,,,,,
165392,set_tempo,,,,,28,1,0,512821,,,,,,
165416,note_off,,,,,90,0,1,,,0,,,75,64
165416,set_tempo,,,,,24,1,0,517241,,,,,,
165418,note_off,,,,,0,0,1,,,0,,,68,64
165418,note_off,,,,,2,0,1,,,0,,,72,64
165428,note_on,,,,,0,0,1,,,0,,,63,83
165428,note_off,,,,,10,0,1,,,0,,,80,64
165430,note_on,,,,,0,0,1,,,0,,,60,66
165430,note_on,,,,,2,0,1,,,0,,,51,75
165438,note_on,,,,,8,0,1,,,0,,,55,62
165444,set_tempo,,,,,28,1,0,521739,,,,,,
165468,set_tempo,,,,,24,1,0,526316,,,,,,
165496,set_tempo,,,,,28,1,0,530973,,,,,,
165502,note_on,,,,,64,0,1,,,0,,,75,76
165504,note_on,,,,,0,0,1,,,0,,,67,63
165504,note_on,,,,,2,0,1,,,0,,,72,69
165506,note_on,,,,,2,0,1,,,0,,,79,49
165508,note_off,,,,,2,0,1,,,0,,,55,64
165520,note_off,,,,,12,0,1,,,0,,,63,64
165524,set_tempo,,,,,28,1,0,535714,,,,,,
165526,note_off,,,,,6,0,1,,,0,,,51,64
165536,note_off,,,,,10,0,1,,,0,,,60,64
165548,set_tempo,,,,,24,1,0,540541,,,,,,
165566,note_off,,,,,30,0,1,,,0,,,67,64
165570,note_off,,,,,4,0,1,,,0,,,79,64
165576,set_tempo,,,,,28,1,0,545455,,,,,,
165582,note_off,,,,,12,0,1,,,0,,,72,64
165584,note_off,,,,,2,0,1,,,0,,,75,64
165588,note_on,,,,,4,0,1,,,0,,,63,77
165590,note_on,,,,,0,0,1,,,0,,,54,77
165590,note_on,,,,,2,0,1,,,0,,,51,72
165594,note_on,,,,,4,0,1,,,0,,,60,51
165600,set_tempo,,,,,24,1,0,550459,,,,,,
165604,set_tempo,,,,,4,1,0,555556,,,,,,
165620,set_tempo,,,,,16,1,0,550459,,,,,,
165644,set_tempo,,,,,24,1,0,545455,,,,,,
165662,note_on,,,,,68,0,1,,,0,,,78,81
165664,note_on,,,,,2,0,1,,,0,,,66,84
165668,note_on,,,,,4,0,1,,,0,,,75,74
165668,set_tempo,,,,,24,1,0,540541,,,,,,
165668,note_on,,,,,0,0,1,,,0,,,72,71
165670,note_off,,,,,2,0,1,,,0,,,54,64
165674,note_off,,,,,4,0,1,,,0,,,63,64
165688,note_off,,,,,14,0,1,,,0,,,51,64
165692,set_tempo,,,,,24,1,0,535714,,,,,,
165696,note_off,,,,,8,0,1,,,0,,,60,64
165716,set_tempo,,,,,24,1,0,530973,,,,,,
165722,note_off,,,,,26,0,1,,,0,,,72,64
165736,note_off,,,,,0,0,1,,,0,,,78,64
165736,note_off,,,,,14,0,1,,,0,,,75,64
165736,note_off,,,,,0,0,1,,,0,,,66,64
165736,set_tempo,,,,,20,1,0,526316,,,,,,
165754,note_on,,,,,18,0,1,,,0,,,63,85
165756,note_on,,,,,2,0,1,,,0,,,55,73
165758,note_on,,,,,2,0,1,,,0,,,51,71
165760,set_tempo,,,,,24,1,0,521739,,,,,,
165768,note_on,,,,,10,0,1,,,0,,,60,38
165784,set_tempo,,,,,24,1,0,517241,,,,,,
165786,note_off,,,,,18,0,1,,,0,,,60,64
165792,note_off,,,,,6,0,1,,,0,,,63,64
165808,set_tempo,,,,,24,1,0,512821,,,,,,
165808,note_off,,,,,16,0,1,,,0,,,55,64
165816,note_off,,,,,8,0,1,,,0,,,51,64
165828,note_on,,,,,12,0,1,,,0,,,75,77
165828,set_tempo,,,,,20,1,0,508475,,,,,,
165830,note_on,,,,,2,0,1,,,0,,,67,77
165832,note_on,,,,,2,0,1,,,0,,,79,69
165836,note_on,,,,,4,0,1,,,0,,,72,67
165852,set_tempo,,,,,24,1,0,504202,,,,,,
165866,note_off,,,,,30,0,1,,,0,,,72,64
165866,note_off,,,,,0,0,1,,,0,,,67,64
165876,set_tempo,,,,,24,1,0,500000,,,,,,
165884,note_off,,,,,18,0,1,,,0,,,79,64
165892,note_off,,,,,8,0,1,,,0,,,75,64
165900,set_tempo,,,,,24,1,0,495868,,,,,,
165920,set_tempo,,,,,20,1,0,491803,,,,,,
165948,control_change,,,,,56,0,1,,,0,64,0,,
165954,note_on,,,,,6,0,1,,,0,,,29,85
165956,note_on,,,,,2,0,1,,,0,,,41,79
165986,control_change,,,,,0,0,1,,,0,64,127,,
165986,note_off,,,,,30,0,1,,,0,,,29,64
166000,note_off,,,,,14,0,1,,,0,,,41,64
166070,note_on,,,,,70,0,1,,,0,,,80,79
166074,note_on,,,,,4,0,1,,,0,,,68,86
166076,note_on,,,,,2,0,1,,,0,,,71,75
166078,note_on,,,,,2,0,1,,,0,,,74,74
166154,note_off,,,,,76,0,1,,,0,,,80,64
166160,note_off,,,,,6,0,1,,,0,,,68,64
166162,note_on,,,,,2,0,1,,,0,,,62,68
166168,note_on,,,,,6,0,1,,,0,,,53,82
166170,note_off,,,,,2,0,1,,,0,,,71,64
166172,note_off,,,,,2,0,1,,,0,,,74,64
166172,note_on,,,,,0,0,1,,,0,,,59,82
166174,note_on,,,,,2,0,1,,,0,,,55,75
166206,note_off,,,,,32,0,1,,,0,,,62,64
166210,note_off,,,,,4,0,1,,,0,,,53,64
166224,note_off,,,,,14,0,1,,,0,,,55,64
166226,note_off,,,,,2,0,1,,,0,,,59,64
166252,note_on,,,,,26,0,1,,,0,,,79,76
166252,note_on,,,,,0,0,1,,,0,,,67,73
166254,note_on,,,,,2,0,1,,,0,,,71,72
166258,note_on,,,,,4,0,1,,,0,,,74,74
166278,note_off,,,,,20,0,1,,,0,,,67,64
166282,note_off,,,,,4,0,1,,,0,,,71,64
166294,note_off,,,,,12,0,1,,,0,,,74,64
166304,note_off,,,,,10,0,1,,,0,,,79,64
166312,set_tempo,,,,,392,1,0,555556,,,,,,
166320,set_tempo,,,,,8,1,0,550459,,,,,,
166324,set_tempo,,,,,4,1,0,545455,,,,,,
166332,set_tempo,,,,,8,1,0,540541,,,,,,
166336,set_tempo,,,,,4,1,0,535714,,,,,,
166344,set_tempo,,,,,8,1,0,530973,,,,,,
166348,set_tempo,,,,,4,1,0,526316,,,,,,
166356,note_on,,,,,52,0,1,,,0,,,63,93
166356,set_tempo,,,,,8,1,0,521739,,,,,,
166358,note_on,,,,,2,0,1,,,0,,,53,82
166360,note_on,,,,,2,0,1,,,0,,,56,81
166360,set_tempo,,,,,4,1,0,517241,,,,,,
166362,note_on,,,,,2,0,1,,,0,,,59,81
166368,set_tempo,,,,,8,1,0,512821,,,,,,
166372,set_tempo,,,,,4,1,0,508475,,,,,,
166376,set_tempo,,,,,4,1,0,504202,,,,,,
166384,set_tempo,,,,,8,1,0,500000,,,,,,
166388,set_tempo,,,,,4,1,0,495868,,,,,,
166396,set_tempo,,,,,8,1,0,491803,,,,,,
166400,set_tempo,,,,,4,1,0,487805,,,,,,
166406,note_off,,,,,44,0,1,,,0,,,53,64
166408,note_off,,,,,2,0,1,,,0,,,63,64
166408,set_tempo,,,,,8,1,0,483871,,,,,,
166412,set_tempo,,,,,4,1,0,480000,,,,,,
166412,note_off,,,,,4,0,1,,,0,,,59,64
166420,set_tempo,,,,,8,1,0,476190,,,,,,
166420,note_off,,,,,8,0,1,,,0,,,56,64
166424,set_tempo,,,,,4,1,0,472441,,,,,,
166428,set_tempo,,,,,4,1,0,468750,,,,,,
166456,note_on,,,,,36,0,1,,,0,,,87,89
166464,note_on,,,,,8,0,1,,,0,,,75,89
166464,note_on,,,,,0,0,1,,,0,,,80,89
166468,note_on,,,,,4,0,1,,,0,,,83,89
166484,note_off,,,,,16,0,1,,,0,,,75,64
166496,note_off,,,,,12,0,1,,,0,,,80,64
166500,note_off,,,,,0,0,1,,,0,,,87,64
166500,note_off,,,,,4,0,1,,,0,,,83,64
166556,set_tempo,,,,,128,1,0,465116,,,,,,
166572,note_on,,,,,72,0,1,,,0,,,53,86
166574,note_on,,,,,2,0,1,,,0,,,62,84
166576,note_on,,,,,2,0,1,,,0,,,56,84
166578,note_on,,,,,2,0,1,,,0,,,59,75
166580,set_tempo,,,,,24,1,0,468750,,,,,,
166596,note_off,,,,,18,0,1,,,0,,,62,64
166600,note_off,,,,,4,0,1,,,0,,,53,64
166604,note_off,,,,,4,0,1,,,0,,,59,64
166604,set_tempo,,,,,24,1,0,472441,,,,,,
166620,note_off,,,,,16,0,1,,,0,,,56,64
166624,set_tempo,,,,,20,1,0,476190,,,,,,
166648,set_tempo,,,,,24,1,0,480000,,,,,,
166672,set_tempo,,,,,24,1,0,483871,,,,,,
166680,note_on,,,,,60,0,1,,,0,,,83,72
166682,note_on,,,,,2,0,1,,,0,,,86,73
166686,note_on,,,,,0,0,1,,,0,,,80,75
166686,note_on,,,,,4,0,1,,,0,,,74,55
166692,set_tempo,,,,,20,1,0,487805,,,,,,
166712,note_on,,,,,26,0,1,,,0,,,39,40
166716,set_tempo,,,,,24,1,0,491803,,,,,,
166732,note_off,,,,,20,0,1,,,0,,,39,64
166740,set_tempo,,,,,24,1,0,495868,,,,,,
166760,set_tempo,,,,,20,1,0,500000,,,,,,
166766,note_off,,,,,34,0,1,,,0,,,86,64
166784,set_tempo,,,,,24,1,0,504202,,,,,,
166788,control_change,,,,,22,0,1,,,0,64,0,,
166794,note_off,,,,,6,0,1,,,0,,,74,64
166802,note_on,,,,,8,0,1,,,0,,,39,87
166804,note_on,,,,,2,0,1,,,0,,,27,97
166808,set_tempo,,,,,24,1,0,508475,,,,,,
166810,note_off,,,,,6,0,1,,,0,,,83,64
166822,note_off,,,,,12,0,1,,,0,,,80,64
166828,set_tempo,,,,,20,1,0,512821,,,,,,
166832,control_change,,,,,10,0,1,,,0,64,127,,
166836,note_off,,,,,0,0,1,,,0,,,39,64
166836,note_off,,,,,4,0,1,,,0,,,27,64
166852,set_tempo,,,,,24,1,0,517241,,,,,,
166876,set_tempo,,,,,24,1,0,521739,,,,,,
166896,set_tempo,,,,,20,1,0,526316,,,,,,
166944,note_on,,,,,108,0,1,,,0,,,89,85
166946,note_on,,,,,2,0,1,,,0,,,77,82
166948,note_on,,,,,2,0,1,,,0,,,80,80
166948,note_on,,,,,0,0,1,,,0,,,84,81
167034,note_off,,,,,86,0,1,,,0,,,89,64
167040,note_off,,,,,6,0,1,,,0,,,77,64
167054,note_on,,,,,0,0,1,,,0,,,51,89
167054,note_on,,,,,14,0,1,,,0,,,63,89
167060,note_on,,,,,6,0,1,,,0,,,60,77
167060,note_on,,,,,0,0,1,,,0,,,56,76
167062,note_off,,,,,2,0,1,,,0,,,80,64
167066,note_off,,,,,4,0,1,,,0,,,84,64
167108,note_off,,,,,42,0,1,,,0,,,63,64
167116,note_off,,,,,8,0,1,,,0,,,60,64
167118,note_off,,,,,2,0,1,,,0,,,51,64
167120,note_off,,,,,2,0,1,,,0,,,56,64
167148,note_on,,,,,28,0,1,,,0,,,75,88
167148,note_on,,,,,0,0,1,,,0,,,87,85
167154,note_on,,,,,6,0,1,,,0,,,84,77
167154,note_on,,,,,0,0,1,,,0,,,80,82
167236,note_off,,,,,0,0,1,,,0,,,84,64
167236,note_off,,,,,82,0,1,,,0,,,80,64
167240,note_off,,,,,4,0,1,,,0,,,75,64
167254,note_on,,,,,0,0,1,,,0,,,51,91
167254,note_off,,,,,14,0,1,,,0,,,87,64
167256,note_on,,,,,2,0,1,,,0,,,60,79
167258,note_on,,,,,2,0,1,,,0,,,62,85
167260,note_on,,,,,2,0,1,,,0,,,56,76
167294,note_off,,,,,34,0,1,,,0,,,62,64
167302,note_off,,,,,8,0,1,,,0,,,51,64
167308,note_off,,,,,6,0,1,,,0,,,60,64
167310,note_off,,,,,2,0,1,,,0,,,56,64
167348,note_on,,,,,38,0,1,,,0,,,86,82
167350,note_on,,,,,2,0,1,,,0,,,74,80
167352,note_on,,,,,0,0,1,,,0,,,80,78
167352,note_on,,,,,2,0,1,,,0,,,84,74
167414,note_off,,,,,62,0,1,,,0,,,74,64
167428,note_off,,,,,14,0,1,,,0,,,86,64
167432,note_off,,,,,4,0,1,,,0,,,84,64
167440,note_off,,,,,8,0,1,,,0,,,80,64
167470,note_on,,,,,30,0,1,,,0,,,63,92
167472,note_on,,,,,2,0,1,,,0,,,60,77
167474,note_on,,,,,2,0,1,,,0,,,51,85
167476,note_on,,,,,2,0,1,,,0,,,56,68
167514,note_off,,,,,38,0,1,,,0,,,56,64
167524,note_off,,,,,10,0,1,,,0,,,63,64
167526,note_off,,,,,2,0,1,,,0,,,60,64
167528,note_off,,,,,2,0,1,,,0,,,51,64
167584,note_on,,,,,56,0,1,,,0,,,75,81
167584,note_on,,,,,0,0,1,,,0,,,87,84
167584,note_on,,,,,0,0,1,,,0,,,80,81
167586,note_on,,,,,2,0,1,,,0,,,84,79
167618,note_off,,,,,32,0,1,,,0,,,75,64
167634,note_off,,,,,16,0,1,,,0,,,80,64
167640,note_off,,,,,6,0,1,,,0,,,84,64
167644,note_off,,,,,4,0,1,,,0,,,87,64
167718,note_on,,,,,74,0,1,,,0,,,61,67
167722,note_on,,,,,4,0,1,,,0,,,65,80
167724,note_on,,,,,2,0,1,,,0,,,51,81
167730,note_on,,,,,6,0,1,,,0,,,55,69
167738,control_change,,,,,8,0,1,,,0,64,0,,
167746,control_change,,,,,8,0,1,,,0,64,127,,
167770,note_off,,,,,24,0,1,,,0,,,51,64
167776,note_off,,,,,6,0,1,,,0,,,65,64
167786,note_off,,,,,10,0,1,,,0,,,61,64
167808,note_off,,,,,22,0,1,,,0,,,55,64
167850,note_on,,,,,42,0,1,,,0,,,89,83
167850,note_on,,,,,0,0,1,,,0,,,85,86
167856,note_on,,,,,0,0,1,,,0,,,77,76
167856,note_on,,,,,6,0,1,,,0,,,79,76
167892,note_off,,,,,0,0,1,,,0,,,79,64
167892,note_off,,,,,36,0,1,,,0,,,77,64
167912,note_off,,,,,20,0,1,,,0,,,89,64
167918,note_off,,,,,6,0,1,,,0,,,85,64
167996,note_on,,,,,0,0,1,,,0,,,63,94
167996,note_on,,,,,78,0,1,,,0,,,61,66
168000,note_on,,,,,4,0,1,,,0,,,51,87
168000,note_on,,,,,0,0,1,,,0,,,55,69
168024,note_off,,,,,24,0,1,,,0,,,61,64
168028,note_off,,,,,4,0,1,,,0,,,51,64
168036,note_off,,,,,8,0,1,,,0,,,55,64
168038,note_off,,,,,2,0,1,,,0,,,63,64
168146,note_on,,,,,0,0,1,,,0,,,79,85
168146,note_on,,,,,108,0,1,,,0,,,75,90
168148,note_on,,,,,2,0,1,,,0,,,85,82
168148,note_on,,,,,0,0,1,,,0,,,87,84
168174,note_off,,,,,26,0,1,,,0,,,75,64
168180,note_off,,,,,6,0,1,,,0,,,79,64
168202,note_off,,,,,22,0,1,,,0,,,87,64
168204,note_off,,,,,2,0,1,,,0,,,85,64
168300,note_on,,,,,96,0,1,,,0,,,63,75
168304,note_on,,,,,4,0,1,,,0,,,72,82
168304,note_on,,,,,0,0,1,,,0,,,67,80
168330,control_change,,,,,26,0,1,,,0,64,0,,
168342,control_change,,,,,12,0,1,,,0,64,127,,
168352,note_on,,,,,10,0,1,,,0,,,84,84
168364,note_off,,,,,12,0,1,,,0,,,72,64
168372,note_off,,,,,8,0,1,,,0,,,67,64
168384,note_off,,,,,0,0,1,,,0,,,63,64
168384,note_off,,,,,12,0,1,,,0,,,84,64
168392,note_on,,,,,8,0,1,,,0,,,87,92
168462,note_on,,,,,70,0,1,,,0,,,96,93
168468,note_off,,,,,6,0,1,,,0,,,87,64
168516,note_off,,,,,48,0,1,,,0,,,96,64
168626,note_on,,,,,110,0,1,,,0,,,61,79
168626,note_on,,,,,0,0,1,,,0,,,70,86
168630,note_on,,,,,4,0,1,,,0,,,67,74
168664,note_off,,,,,34,0,1,,,0,,,70,64
168666,note_off,,,,,2,0,1,,,0,,,67,64
168678,note_off,,,,,12,0,1,,,0,,,61,64
168804,note_on,,,,,126,0,1,,,0,,,94,93
168806,note_on,,,,,2,0,1,,,0,,,87,89
168808,note_on,,,,,2,0,1,,,0,,,82,88
168844,note_off,,,,,36,0,1,,,0,,,94,64
168846,note_off,,,,,2,0,1,,,0,,,82,64
168854,note_off,,,,,8,0,1,,,0,,,87,64
168988,note_on,,,,,134,0,1,,,0,,,44,80
168990,note_on,,,,,0,0,1,,,0,,,87,88
168990,note_on,,,,,2,0,1,,,0,,,92,87
168992,note_on,,,,,2,0,1,,,0,,,80,89
169042,control_change,,,,,50,0,1,,,0,64,0,,
169096,control_change,,,,,54,0,1,,,0,64,127,,
169156,note_on,,,,,60,0,1,,,0,,,51,75
169174,note_off,,,,,18,0,1,,,0,,,44,64
169202,note_off,,,,,28,0,1,,,0,,,51,64
169216,note_on,,,,,14,0,1,,,0,,,60,73
169244,note_off,,,,,28,0,1,,,0,,,60,64
169290,note_on,,,,,46,0,1,,,0,,,68,93
169316,note_off,,,,,26,0,1,,,0,,,68,64
169384,note_off,,,,,68,0,1,,,0,,,92,64
169388,note_off,,,,,4,0,1,,,0,,,87,64
169398,note_off,,,,,10,0,1,,,0,,,80,64
169608,note_on,,,,,210,0,1,,,0,,,51,63
169618,note_on,,,,,10,0,1,,,0,,,60,52
169744,note_off,,,,,126,0,1,,,0,,,51,64
169754,note_on,,,,,10,0,1,,,0,,,44,63
169770,note_on,,,,,16,0,1,,,0,,,63,51
169772,note_off,,,,,2,0,1,,,0,,,60,64
169804,note_off,,,,,32,0,1,,,0,,,44,64
169838,note_off,,,,,34,0,1,,,0,,,63,64
169862,note_on,,,,,24,0,1,,,0,,,51,62
169870,note_on,,,,,8,0,1,,,0,,,60,49
169922,note_off,,,,,52,0,1,,,0,,,60,64
169952,note_off,,,,,30,0,1,,,0,,,51,64
169962,note_on,,,,,10,0,1,,,0,,,44,56
169964,note_on,,,,,2,0,1,,,0,,,63,48
170018,note_off,,,,,54,0,1,,,0,,,63,64
170060,note_on,,,,,42,0,1,,,0,,,51,62
170072,note_on,,,,,12,0,1,,,0,,,60,41
170104,note_off,,,,,32,0,1,,,0,,,44,64
170114,note_off,,,,,10,0,1,,,0,,,60,64
170154,note_off,,,,,40,0,1,,,0,,,51,64
170168,note_on,,,,,14,0,1,,,0,,,63,43
170170,note_on,,,,,2,0,1,,,0,,,56,51
170248,note_off,,,,,78,0,1,,,0,,,56,64
170250,note_off,,,,,2,0,1,,,0,,,63,64
170272,note_on,,,,,22,0,1,,,0,,,51,62
170286,note_on,,,,,14,0,1,,,0,,,60,49
170388,note_on,,,,,102,0,1,,,0,,,63,57
170388,note_on,,,,,0,0,1,,,0,,,56,60
170404,note_off,,,,,16,0,1,,,0,,,60,64
170434,note_off,,,,,30,0,1,,,0,,,51,64
170438,note_off,,,,,4,0,1,,,0,,,63,64
170504,note_off,,,,,66,0,1,,,0,,,56,64
170514,note_on,,,,,0,0,1,,,0,,,73,81
170514,note_on,,,,,10,0,1,,,0,,,63,65
170606,note_off,,,,,92,0,1,,,0,,,63,64
170646,note_on,,,,,40,0,1,,,0,,,60,56
170656,note_on,,,,,10,0,1,,,0,,,51,56
170678,note_off,,,,,22,0,1,,,0,,,73,64
170788,note_on,,,,,110,0,1,,,0,,,44,54
170798,note_off,,,,,10,0,1,,,0,,,51,64
170798,note_on,,,,,0,0,1,,,0,,,63,54
170910,note_off,,,,,112,0,1,,,0,,,60,64
170940,note_on,,,,,30,0,1,,,0,,,51,71
170942,note_off,,,,,2,0,1,,,0,,,63,64
170946,note_on,,,,,4,0,1,,,0,,,72,79
170952,note_off,,,,,6,0,1,,,0,,,44,64
170996,note_off,,,,,44,0,1,,,0,,,72,64
171098,note_off,,,,,102,0,1,,,0,,,51,64
171120,note_on,,,,,0,0,1,,,0,,,72,77
171120,note_on,,,,,22,0,1,,,0,,,62,69
171156,control_change,,,,,36,0,1,,,0,64,0,,
171204,control_change,,,,,48,0,1,,,0,64,127,,
171248,note_off,,,,,44,0,1,,,0,,,62,64
171302,note_on,,,,,54,0,1,,,0,,,53,60
171304,note_on,,,,,2,0,1,,,0,,,62,48
171316,note_off,,,,,12,0,1,,,0,,,72,64
171392,note_off,,,,,76,0,1,,,0,,,53,64
171408,note_on,,,,,16,0,1,,,0,,,44,48
171424,note_on,,,,,16,0,1,,,0,,,65,40
171426,note_off,,,,,2,0,1,,,0,,,62,64
171504,note_off,,,,,78,0,1,,,0,,,65,64
171506,note_on,,,,,2,0,1,,,0,,,53,63
171506,note_on,,,,,0,0,1,,,0,,,72,51
171604,control_change,,,,,98,0,1,,,0,64,0,,
171608,note_on,,,,,4,0,1,,,0,,,71,80
171612,note_on,,,,,4,0,1,,,0,,,62,27
171624,note_off,,,,,12,0,1,,,0,,,53,64
171626,control_change,,,,,2,0,1,,,0,64,127,,
171630,note_off,,,,,4,0,1,,,0,,,44,64
171632,note_off,,,,,2,0,1,,,0,,,72,64
171636,note_off,,,,,4,0,1,,,0,,,71,64
171652,note_off,,,,,16,0,1,,,0,,,62,64
171700,set_tempo,,,,,4804,1,0,521739,,,,,,
171704,set_tempo,,,,,4,1,0,517241,,,,,,
171708,set_tempo,,,,,4,1,0,508475,,,,,,
171712,set_tempo,,,,,4,1,0,504202,,,,,,
171712,note_on,,,,,60,0,1,,,0,,,65,57
171716,note_on,,,,,4,0,1,,,0,,,77,43
171716,set_tempo,,,,,4,1,0,495868,,,,,,
171720,set_tempo,,,,,4,1,0,491803,,,,,,
171724,set_tempo,,,,,4,1,0,483871,,,,,,
171750,note_off,,,,,34,0,1,,,0,,,77,64
171780,note_off,,,,,30,0,1,,,0,,,65,64
171810,note_on,,,,,30,0,1,,,0,,,71,43
171818,note_on,,,,,8,0,1,,,0,,,83,51
171840,note_off,,,,,22,0,1,,,0,,,83,64
171884,note_off,,,,,44,0,1,,,0,,,71,64
171912,note_on,,,,,28,0,1,,,0,,,89,60
171922,note_on,,,,,10,0,1,,,0,,,77,36
171984,note_off,,,,,62,0,1,,,0,,,77,64
172016,note_on,,,,,32,0,1,,,0,,,71,45
172016,note_on,,,,,0,0,1,,,0,,,83,49
172024,set_tempo,,,,,300,1,0,487805,,,,,,
172030,note_off,,,,,14,0,1,,,0,,,89,64
172076,set_tempo,,,,,52,1,0,491803,,,,,,
172076,note_off,,,,,46,0,1,,,0,,,71,64
172080,note_off,,,,,4,0,1,,,0,,,83,64
172112,note_on,,,,,32,0,1,,,0,,,65,56
172124,note_on,,,,,12,0,1,,,0,,,77,40
172124,set_tempo,,,,,48,1,0,495868,,,,,,
172140,note_off,,,,,16,0,1,,,0,,,77,64
172142,note_off,,,,,2,0,1,,,0,,,65,64
172172,set_tempo,,,,,48,1,0,500000,,,,,,
172220,set_tempo,,,,,48,1,0,504202,,,,,,
172224,note_on,,,,,82,0,1,,,0,,,62,24
172226,note_on,,,,,2,0,1,,,0,,,71,58
172262,note_off,,,,,36,0,1,,,0,,,62,64
172272,set_tempo,,,,,52,1,0,508475,,,,,,
172320,set_tempo,,,,,48,1,0,512821,,,,,,
172322,note_on,,,,,60,0,1,,,0,,,53,62
172334,note_off,,,,,12,0,1,,,0,,,71,64
172336,note_on,,,,,2,0,1,,,0,,,65,46
172342,note_off,,,,,6,0,1,,,0,,,53,64
172368,set_tempo,,,,,48,1,0,517241,,,,,,
172370,note_off,,,,,28,0,1,,,0,,,65,64
172416,set_tempo,,,,,48,1,0,521739,,,,,,
172448,note_on,,,,,78,0,1,,,0,,,72,74
172452,note_on,,,,,4,0,1,,,0,,,61,79
172464,set_tempo,,,,,48,1,0,526316,,,,,,
172468,control_change,,,,,16,0,1,,,0,64,0,,
172500,control_change,,,,,32,0,1,,,0,64,127,,
172552,note_off,,,,,52,0,1,,,0,,,61,64
172584,note_on,,,,,32,0,1,,,0,,,55,54
172590,note_on,,,,,6,0,1,,,0,,,61,60
172644,note_off,,,,,54,0,1,,,0,,,55,64
172674,note_off,,,,,30,0,1,,,0,,,72,64
172704,set_tempo,,,,,240,1,0,508475,,,,,,
172714,note_on,,,,,40,0,1,,,0,,,44,57
172724,note_on,,,,,10,0,1,,,0,,,63,65
172772,note_off,,,,,48,0,1,,,0,,,61,64
172798,note_off,,,,,26,0,1,,,0,,,63,64
172804,set_tempo,,,,,100,1,0,512821,,,,,,
172812,set_tempo,,,,,8,1,0,504202,,,,,,
172816,set_tempo,,,,,4,1,0,491803,,,,,,
172820,set_tempo,,,,,4,1,0,480000,,,,,,
172834,note_off,,,,,36,0,1,,,0,,,44,64
172848,note_on,,,,,14,0,1,,,0,,,70,81
172856,note_on,,,,,8,0,1,,,0,,,51,57
172938,note_off,,,,,82,0,1,,,0,,,70,64
172976,note_off,,,,,38,0,1,,,0,,,51,64
173000,note_on,,,,,24,0,1,,,0,,,70,86
173002,note_on,,,,,2,0,1,,,0,,,60,69
173040,set_tempo,,,,,220,1,0,504202,,,,,,
173100,note_off,,,,,98,0,1,,,0,,,60,64
173140,note_on,,,,,40,0,1,,,0,,,60,63
173144,note_on,,,,,4,0,1,,,0,,,51,61
173156,note_off,,,,,12,0,1,,,0,,,70,64
173222,note_off,,,,,66,0,1,,,0,,,51,64
173232,note_on,,,,,10,0,1,,,0,,,44,57
173244,note_on,,,,,12,0,1,,,0,,,63,63
173260,control_change,,,,,16,0,1,,,0,64,0,,
173284,control_change,,,,,24,0,1,,,0,64,127,,
173286,note_off,,,,,2,0,1,,,0,,,60,64
173332,note_on,,,,,46,0,1,,,0,,,51,69
173336,note_on,,,,,4,0,1,,,0,,,70,63
173340,note_off,,,,,4,0,1,,,0,,,44,64
173344,note_off,,,,,4,0,1,,,0,,,63,64
173416,control_change,,,,,72,0,1,,,0,64,0,,
173426,note_off,,,,,10,0,1,,,0,,,51,64
173432,note_on,,,,,6,0,1,,,0,,,68,71
173436,note_off,,,,,4,0,1,,,0,,,70,64
173438,control_change,,,,,2,0,1,,,0,64,127,,
173440,note_on,,,,,2,0,1,,,0,,,60,71
173466,note_off,,,,,26,0,1,,,0,,,68,64
173492,note_off,,,,,26,0,1,,,0,,,60,64
173536,note_on,,,,,44,0,1,,,0,,,72,47
173538,note_on,,,,,2,0,1,,,0,,,63,52
173598,note_off,,,,,60,0,1,,,0,,,72,64
173626,note_off,,,,,28,0,1,,,0,,,63,64
173638,note_on,,,,,12,0,1,,,0,,,68,56
173640,note_on,,,,,2,0,1,,,0,,,80,56
173712,note_off,,,,,72,0,1,,,0,,,68,64
173722,note_off,,,,,10,0,1,,,0,,,80,64
173736,note_on,,,,,14,0,1,,,0,,,87,58
173740,note_on,,,,,4,0,1,,,0,,,75,59
173822,note_off,,,,,82,0,1,,,0,,,75,64
173834,note_off,,,,,12,0,1,,,0,,,87,64
173840,note_on,,,,,6,0,1,,,0,,,68,57
173842,note_on,,,,,2,0,1,,,0,,,80,59
173922,note_off,,,,,80,0,1,,,0,,,68,64
173926,note_off,,,,,4,0,1,,,0,,,80,64
173928,note_on,,,,,2,0,1,,,0,,,75,52
173944,note_on,,,,,16,0,1,,,0,,,63,52
173974,note_off,,,,,30,0,1,,,0,,,75,64
173990,note_off,,,,,16,0,1,,,0,,,63,64
174040,note_on,,,,,50,0,1,,,0,,,60,57
174052,note_on,,,,,12,0,1,,,0,,,68,61
174084,note_off,,,,,32,0,1,,,0,,,60,64
174156,note_on,,,,,0,0,1,,,0,,,51,60
174156,note_off,,,,,72,0,1,,,0,,,68,64
174160,note_on,,,,,4,0,1,,,0,,,63,52
174194,note_off,,,,,34,0,1,,,0,,,51,64
174200,note_off,,,,,6,0,1,,,0,,,63,64
174274,note_on,,,,,74,0,1,,,0,,,67,77
174280,note_on,,,,,6,0,1,,,0,,,47,67
174300,control_change,,,,,20,0,1,,,0,64,0,,
174376,control_change,,,,,76,0,1,,,0,64,127,,
174402,note_on,,,,,26,0,1,,,0,,,50,62
174406,note_on,,,,,4,0,1,,,0,,,56,58
174412,note_off,,,,,6,0,1,,,0,,,47,64
174432,note_off,,,,,20,0,1,,,0,,,50,64
174544,note_on,,,,,112,0,1,,,0,,,38,59
174554,note_on,,,,,10,0,1,,,0,,,59,66
174582,control_change,,,,,28,0,1,,,0,64,0,,
174660,control_change,,,,,78,0,1,,,0,64,127,,
174674,note_off,,,,,14,0,1,,,0,,,67,64
174680,note_on,,,,,6,0,1,,,0,,,47,63
174686,note_on,,,,,6,0,1,,,0,,,65,77
174692,note_off,,,,,6,0,1,,,0,,,56,64
174700,note_off,,,,,0,0,1,,,0,,,38,64
174700,note_off,,,,,8,0,1,,,0,,,59,64
174738,note_off,,,,,38,0,1,,,0,,,65,64
174836,note_off,,,,,98,0,1,,,0,,,47,64
174848,note_on,,,,,12,0,1,,,0,,,65,61
174848,note_on,,,,,0,0,1,,,0,,,39,61
174850,note_on,,,,,2,0,1,,,0,,,61,58
174876,control_change,,,,,26,0,1,,,0,64,0,,
174946,control_change,,,,,70,0,1,,,0,64,127,,
174996,note_off,,,,,50,0,1,,,0,,,61,64
175020,note_on,,,,,24,0,1,,,0,,,46,43
175024,note_on,,,,,4,0,1,,,0,,,55,55
175056,note_off,,,,,32,0,1,,,0,,,39,64
175064,note_off,,,,,8,0,1,,,0,,,65,64
175100,note_off,,,,,36,0,1,,,0,,,55,64
175124,note_on,,,,,24,0,1,,,0,,,61,63
175132,note_on,,,,,8,0,1,,,0,,,51,74
175180,note_off,,,,,48,0,1,,,0,,,46,64
175218,note_on,,,,,38,0,1,,,0,,,65,57
175220,note_off,,,,,2,0,1,,,0,,,61,64
175228,note_on,,,,,0,0,1,,,0,,,55,64
175228,note_off,,,,,8,0,1,,,0,,,51,64
175302,note_off,,,,,74,0,1,,,0,,,55,64
175310,note_off,,,,,8,0,1,,,0,,,65,64
175316,note_on,,,,,6,0,1,,,0,,,63,49
175320,note_on,,,,,4,0,1,,,0,,,58,67
175338,note_off,,,,,18,0,1,,,0,,,63,64
175412,note_on,,,,,0,0,1,,,0,,,67,54
175412,note_on,,,,,74,0,1,,,0,,,63,62
175484,note_off,,,,,72,0,1,,,0,,,67,64
175516,note_on,,,,,0,0,1,,,0,,,77,74
175516,note_on,,,,,32,0,1,,,0,,,67,60
175518,note_on,,,,,2,0,1,,,0,,,73,61
175548,note_off,,,,,30,0,1,,,0,,,67,64
175554,note_off,,,,,6,0,1,,,0,,,63,64
175556,note_off,,,,,2,0,1,,,0,,,58,64
175564,note_off,,,,,8,0,1,,,0,,,73,64
175618,note_off,,,,,54,0,1,,,0,,,77,64
175622,note_on,,,,,4,0,1,,,0,,,75,67
175660,note_off,,,,,38,0,1,,,0,,,75,64
175734,note_on,,,,,74,0,1,,,0,,,39,61
175738,note_on,,,,,4,0,1,,,0,,,72,74
175760,control_change,,,,,22,0,1,,,0,64,0,,
175840,control_change,,,,,80,0,1,,,0,64,127,,
175854,note_on,,,,,14,0,1,,,0,,,51,65
175860,note_on,,,,,6,0,1,,,0,,,61,63
175878,note_off,,,,,18,0,1,,,0,,,39,64
175894,note_off,,,,,16,0,1,,,0,,,51,64
175912,note_off,,,,,18,0,1,,,0,,,72,64
175962,note_off,,,,,50,0,1,,,0,,,61,64
175988,note_on,,,,,26,0,1,,,0,,,63,68
175990,note_on,,,,,2,0,1,,,0,,,55,38
176076,note_off,,,,,86,0,1,,,0,,,63,64
176096,note_on,,,,,20,0,1,,,0,,,61,40
176100,note_on,,,,,4,0,1,,,0,,,72,58
176152,note_off,,,,,52,0,1,,,0,,,55,64
176216,note_on,,,,,64,0,1,,,0,,,70,71
176224,note_on,,,,,8,0,1,,,0,,,63,50
176238,note_off,,,,,14,0,1,,,0,,,72,64
176256,note_off,,,,,18,0,1,,,0,,,70,64
176308,note_on,,,,,52,0,1,,,0,,,73,74
176322,note_off,,,,,14,0,1,,,0,,,73,64
176370,note_on,,,,,48,0,1,,,0,,,67,51
176374,note_off,,,,,4,0,1,,,0,,,61,64
176386,note_off,,,,,12,0,1,,,0,,,63,64
176420,note_on,,,,,34,0,1,,,0,,,75,72
176530,note_off,,,,,110,0,1,,,0,,,67,64
176542,note_on,,,,,12,0,1,,,0,,,73,48
176562,note_on,,,,,20,0,1,,,0,,,84,75
176590,note_off,,,,,28,0,1,,,0,,,75,64
176600,note_off,,,,,10,0,1,,,0,,,73,64
176636,note_off,,,,,36,0,1,,,0,,,84,64
176860,note_on,,,,,224,0,1,,,0,,,82,81
177010,note_on,,,,,150,0,1,,,0,,,68,72
177018,note_off,,,,,8,0,1,,,0,,,82,64
177100,control_change,,,,,82,0,1,,,0,64,0,,
177148,note_on,,,,,48,0,1,,,0,,,44,50
177162,note_off,,,,,14,0,1,,,0,,,68,64
177170,note_on,,,,,8,0,1,,,0,,,60,34
177196,control_change,,,,,26,0,1,,,0,64,127,,
177272,note_on,,,,,76,0,1,,,0,,,51,59
177272,note_on,,,,,0,0,1,,,0,,,68,59
177278,note_off,,,,,6,0,1,,,0,,,60,64
177290,note_off,,,,,12,0,1,,,0,,,44,64
177342,note_off,,,,,52,0,1,,,0,,,68,64
177356,note_off,,,,,14,0,1,,,0,,,51,64
177370,note_on,,,,,14,0,1,,,0,,,77,68
177374,note_on,,,,,4,0,1,,,0,,,60,47
177462,note_off,,,,,88,0,1,,,0,,,60,64
177464,note_off,,,,,2,0,1,,,0,,,77,64
177472,note_on,,,,,8,0,1,,,0,,,75,67
177474,note_on,,,,,2,0,1,,,0,,,63,67
177512,note_off,,,,,38,0,1,,,0,,,75,64
177576,note_off,,,,,64,0,1,,,0,,,63,64
177578,note_on,,,,,2,0,1,,,0,,,56,68
177580,note_on,,,,,2,0,1,,,0,,,72,38
177632,note_off,,,,,52,0,1,,,0,,,72,64
177676,note_on,,,,,44,0,1,,,0,,,63,53
177678,note_on,,,,,2,0,1,,,0,,,80,48
177684,note_off,,,,,6,0,1,,,0,,,56,64
177750,note_off,,,,,66,0,1,,,0,,,80,64
177760,note_off,,,,,10,0,1,,,0,,,63,64
177778,note_on,,,,,18,0,1,,,0,,,72,62
177780,note_on,,,,,2,0,1,,,0,,,89,56
177864,note_off,,,,,84,0,1,,,0,,,72,64
177882,note_on,,,,,18,0,1,,,0,,,75,50
177888,note_on,,,,,6,0,1,,,0,,,87,60
177898,note_off,,,,,10,0,1,,,0,,,89,64
177982,note_off,,,,,84,0,1,,,0,,,75,64
177992,note_on,,,,,10,0,1,,,0,,,80,50
177992,note_on,,,,,0,0,1,,,0,,,72,45
178008,note_off,,,,,16,0,1,,,0,,,72,64
178020,note_off,,,,,12,0,1,,,0,,,87,64
178030,note_off,,,,,10,0,1,,,0,,,80,64
178096,note_on,,,,,66,0,1,,,0,,,72,55
178104,note_on,,,,,8,0,1,,,0,,,63,50
178132,note_off,,,,,28,0,1,,,0,,,72,64
178138,note_off,,,,,6,0,1,,,0,,,63,64
178210,note_on,,,,,72,0,1,,,0,,,63,72
178212,note_on,,,,,2,0,1,,,0,,,56,44
178236,note_off,,,,,24,0,1,,,0,,,56,64
178238,note_off,,,,,2,0,1,,,0,,,63,64
178332,note_on,,,,,94,0,1,,,0,,,73,77
178334,note_on,,,,,2,0,1,,,0,,,63,77
178336,control_change,,,,,2,0,1,,,0,64,0,,
178362,control_change,,,,,26,0,1,,,0,64,127,,
178400,note_off,,,,,38,0,1,,,0,,,63,64
178448,note_off,,,,,48,0,1,,,0,,,73,64
178452,note_on,,,,,4,0,1,,,0,,,56,63
178462,note_on,,,,,10,0,1,,,0,,,60,67
178524,note_off,,,,,62,0,1,,,0,,,56,64
178600,note_on,,,,,76,0,1,,,0,,,63,77
178606,note_on,,,,,6,0,1,,,0,,,44,50
178624,control_change,,,,,18,0,1,,,0,64,0,,
178628,control_change,,,,,4,0,1,,,0,64,127,,
178708,note_off,,,,,80,0,1,,,0,,,60,64
178714,note_off,,,,,6,0,1,,,0,,,44,64
178756,note_on,,,,,42,0,1,,,0,,,72,54
178768,note_on,,,,,12,0,1,,,0,,,51,56
178772,note_off,,,,,4,0,1,,,0,,,63,64
178816,note_off,,,,,44,0,1,,,0,,,72,64
178824,note_off,,,,,8,0,1,,,0,,,51,64
178916,note_on,,,,,92,0,1,,,0,,,72,79
178924,note_on,,,,,8,0,1,,,0,,,62,69
178936,control_change,,,,,12,0,1,,,0,64,0,,
178956,control_change,,,,,20,0,1,,,0,64,127,,
179020,note_off,,,,,64,0,1,,,0,,,62,64
179068,note_on,,,,,48,0,1,,,0,,,53,71
179076,note_on,,,,,8,0,1,,,0,,,62,69
179112,note_off,,,,,36,0,1,,,0,,,72,64
179156,note_off,,,,,44,0,1,,,0,,,53,64
179184,note_on,,,,,28,0,1,,,0,,,44,65
179186,note_on,,,,,2,0,1,,,0,,,65,63
179204,note_off,,,,,18,0,1,,,0,,,62,64
179262,control_change,,,,,58,0,1,,,0,64,0,,
179270,control_change,,,,,8,0,1,,,0,64,127,,
179272,note_on,,,,,2,0,1,,,0,,,72,52
179274,note_off,,,,,2,0,1,,,0,,,65,64
179282,note_on,,,,,8,0,1,,,0,,,53,69
179294,note_off,,,,,12,0,1,,,0,,,44,64
179364,note_off,,,,,70,0,1,,,0,,,53,64
179372,note_on,,,,,8,0,1,,,0,,,71,75
179374,note_on,,,,,2,0,1,,,0,,,62,67
179392,note_off,,,,,18,0,1,,,0,,,72,64
179400,note_off,,,,,8,0,1,,,0,,,71,64
179416,note_off,,,,,16,0,1,,,0,,,62,64
179468,note_on,,,,,52,0,1,,,0,,,77,73
179472,note_on,,,,,4,0,1,,,0,,,65,52
179558,note_off,,,,,86,0,1,,,0,,,65,64
179562,note_on,,,,,4,0,1,,,0,,,71,60
179572,note_on,,,,,10,0,1,,,0,,,83,74
179578,note_off,,,,,6,0,1,,,0,,,77,64
179644,note_off,,,,,66,0,1,,,0,,,71,64
179658,note_on,,,,,0,0,1,,,0,,,89,73
179658,note_off,,,,,14,0,1,,,0,,,83,64
179662,note_on,,,,,4,0,1,,,0,,,77,43
179734,note_off,,,,,72,0,1,,,0,,,77,64
179754,note_on,,,,,20,0,1,,,0,,,71,56
179764,note_on,,,,,10,0,1,,,0,,,83,71
179786,note_off,,,,,22,0,1,,,0,,,89,64
179834,note_off,,,,,48,0,1,,,0,,,71,64
179844,note_off,,,,,10,0,1,,,0,,,83,64
179850,note_on,,,,,6,0,1,,,0,,,65,62
179858,note_on,,,,,8,0,1,,,0,,,77,59
179884,note_off,,,,,0,0,1,,,0,,,65,64
179884,note_off,,,,,26,0,1,,,0,,,77,64
179952,note_on,,,,,68,0,1,,,0,,,62,52
179956,note_on,,,,,4,0,1,,,0,,,71,62
180012,note_off,,,,,56,0,1,,,0,,,62,64
180050,note_on,,,,,38,0,1,,,0,,,53,69
180056,note_off,,,,,6,0,1,,,0,,,71,64
180056,note_on,,,,,0,0,1,,,0,,,65,64
180072,note_off,,,,,16,0,1,,,0,,,65,64
180088,note_off,,,,,16,0,1,,,0,,,53,64
180166,control_change,,,,,78,0,1,,,0,64,0,,
180168,note_on,,,,,2,0,1,,,0,,,75,93
180182,note_on,,,,,14,0,1,,,0,,,59,46
180234,control_change,,,,,52,0,1,,,0,64,127,,
180262,note_off,,,,,28,0,1,,,0,,,59,64
180282,note_on,,,,,20,0,1,,,0,,,53,64
180290,note_on,,,,,8,0,1,,,0,,,65,69
180362,note_off,,,,,72,0,1,,,0,,,53,64
180400,note_on,,,,,38,0,1,,,0,,,43,59
180404,note_off,,,,,4,0,1,,,0,,,75,64
180412,note_on,,,,,8,0,1,,,0,,,68,62
180484,note_off,,,,,72,0,1,,,0,,,65,64
180526,note_on,,,,,42,0,1,,,0,,,53,65
180532,note_on,,,,,0,0,1,,,0,,,74,82
180532,note_off,,,,,6,0,1,,,0,,,68,64
180536,note_off,,,,,4,0,1,,,0,,,43,64
180572,note_off,,,,,0,0,1,,,0,,,53,64
180572,note_off,,,,,36,0,1,,,0,,,74,64
180662,note_on,,,,,90,0,1,,,0,,,74,75
180788,note_on,,,,,126,0,1,,,0,,,48,71
180792,note_on,,,,,4,0,1,,,0,,,63,72
180824,control_change,,,,,32,0,1,,,0,64,0,,
180860,note_off,,,,,36,0,1,,,0,,,74,64
180890,control_change,,,,,30,0,1,,,0,64,127,,
180896,note_on,,,,,6,0,1,,,0,,,67,60
180900,note_off,,,,,4,0,1,,,0,,,63,64
180902,note_on,,,,,2,0,1,,,0,,,55,62
180972,note_off,,,,,70,0,1,,,0,,,67,64
180990,note_on,,,,,18,0,1,,,0,,,74,68
180992,note_off,,,,,2,0,1,,,0,,,55,64
180996,note_off,,,,,4,0,1,,,0,,,48,64
180998,note_on,,,,,2,0,1,,,0,,,60,69
181032,note_off,,,,,34,0,1,,,0,,,74,64
181050,note_off,,,,,18,0,1,,,0,,,60,64
181090,note_on,,,,,40,0,1,,,0,,,63,60
181096,note_on,,,,,6,0,1,,,0,,,72,74
181192,note_on,,,,,96,0,1,,,0,,,75,76
181192,note_on,,,,,0,0,1,,,0,,,67,58
181212,note_off,,,,,20,0,1,,,0,,,72,64
181222,note_off,,,,,10,0,1,,,0,,,63,64
181262,note_off,,,,,40,0,1,,,0,,,75,64
181288,note_on,,,,,26,0,1,,,0,,,72,75
181292,note_off,,,,,4,0,1,,,0,,,67,64
181294,note_on,,,,,2,0,1,,,0,,,79,75
181364,note_off,,,,,70,0,1,,,0,,,79,64
181392,note_off,,,,,28,0,1,,,0,,,72,64
181394,note_on,,,,,2,0,1,,,0,,,75,76
181400,note_on,,,,,6,0,1,,,0,,,84,82
181426,note_off,,,,,26,0,1,,,0,,,75,64
181428,note_off,,,,,2,0,1,,,0,,,84,64
181516,note_on,,,,,88,0,1,,,0,,,77,87
181626,note_on,,,,,110,0,1,,,0,,,48,67
181632,note_on,,,,,6,0,1,,,0,,,66,79
181658,control_change,,,,,26,0,1,,,0,64,0,,
181728,control_change,,,,,70,0,1,,,0,64,127,,
181752,note_on,,,,,24,0,1,,,0,,,54,66
181756,note_on,,,,,4,0,1,,,0,,,69,73
181758,note_off,,,,,2,0,1,,,0,,,66,64
181768,note_off,,,,,10,0,1,,,0,,,77,64
181818,note_off,,,,,50,0,1,,,0,,,48,64
181822,note_off,,,,,4,0,1,,,0,,,69,64
181862,note_on,,,,,0,0,1,,,0,,,77,73
181862,note_on,,,,,40,0,1,,,0,,,57,62
181880,note_off,,,,,18,0,1,,,0,,,54,64
181916,note_off,,,,,36,0,1,,,0,,,77,64
181980,note_on,,,,,64,0,1,,,0,,,63,77
181988,note_off,,,,,8,0,1,,,0,,,57,64
182020,note_off,,,,,32,0,1,,,0,,,63,64
182100,note_on,,,,,80,0,1,,,0,,,66,74
182104,note_on,,,,,4,0,1,,,0,,,78,68
182238,note_on,,,,,134,0,1,,,0,,,75,87
182244,note_on,,,,,6,0,1,,,0,,,81,74
182372,note_off,,,,,128,0,1,,,0,,,75,64
182376,note_on,,,,,4,0,1,,,0,,,69,62
182384,note_on,,,,,8,0,1,,,0,,,87,62
182392,note_off,,,,,8,0,1,,,0,,,81,64
182400,note_off,,,,,8,0,1,,,0,,,78,64
182402,note_off,,,,,2,0,1,,,0,,,69,64
182410,note_off,,,,,8,0,1,,,0,,,66,64
182412,note_off,,,,,2,0,1,,,0,,,87,64
182516,note_on,,,,,104,0,1,,,0,,,75,89
182648,note_on,,,,,132,0,1,,,0,,,49,62
182660,note_on,,,,,12,0,1,,,0,,,66,71
182668,control_change,,,,,8,0,1,,,0,64,0,,
182714,note_off,,,,,46,0,1,,,0,,,75,64
182732,control_change,,,,,18,0,1,,,0,64,127,,
182762,note_on,,,,,30,0,1,,,0,,,54,65
182768,note_on,,,,,6,0,1,,,0,,,70,39
182796,note_off,,,,,28,0,1,,,0,,,66,64
182844,note_off,,,,,48,0,1,,,0,,,70,64
182868,note_on,,,,,24,0,1,,,0,,,58,74
182872,note_on,,,,,4,0,1,,,0,,,75,71
182900,note_off,,,,,28,0,1,,,0,,,49,64
182922,note_off,,,,,22,0,1,,,0,,,75,64
182968,note_off,,,,,46,0,1,,,0,,,54,64
182984,note_on,,,,,16,0,1,,,0,,,73,77
182992,note_on,,,,,8,0,1,,,0,,,61,72
183008,note_off,,,,,16,0,1,,,0,,,58,64
183032,note_off,,,,,24,0,1,,,0,,,61,64
183100,note_on,,,,,68,0,1,,,0,,,78,77
183110,note_on,,,,,0,0,1,,,0,,,66,49
183110,note_off,,,,,10,0,1,,,0,,,73,64
183126,note_off,,,,,16,0,1,,,0,,,66,64
183218,note_on,,,,,92,0,1,,,0,,,82,82
183220,note_on,,,,,2,0,1,,,0,,,70,56
183256,note_off,,,,,36,0,1,,,0,,,78,64
183330,note_off,,,,,74,0,1,,,0,,,70,64
183340,note_on,,,,,10,0,1,,,0,,,73,81
183346,note_on,,,,,6,0,1,,,0,,,85,84
183364,note_off,,,,,18,0,1,,,0,,,82,64
183392,note_off,,,,,28,0,1,,,0,,,85,64
183464,note_off,,,,,72,0,1,,,0,,,73,64
183472,note_on,,,,,8,0,1,,,0,,,70,79
183472,note_on,,,,,0,0,1,,,0,,,82,84
183572,note_off,,,,,100,0,1,,,0,,,70,64
183600,note_on,,,,,28,0,1,,,0,,,65,71
183602,note_on,,,,,2,0,1,,,0,,,85,87
183692,note_off,,,,,90,0,1,,,0,,,82,64
183706,note_off,,,,,14,0,1,,,0,,,65,64
183736,note_on,,,,,0,0,1,,,0,,,89,79
183736,note_on,,,,,30,0,1,,,0,,,59,60
183746,note_off,,,,,10,0,1,,,0,,,85,64
183770,note_off,,,,,24,0,1,,,0,,,59,64
183872,note_on,,,,,102,0,1,,,0,,,49,82
183880,note_on,,,,,8,0,1,,,0,,,94,85
183900,note_off,,,,,20,0,1,,,0,,,49,64
183910,note_off,,,,,10,0,1,,,0,,,89,64
184032,note_on,,,,,122,0,1,,,0,,,89,80
184078,note_off,,,,,46,0,1,,,0,,,94,64
184186,note_on,,,,,108,0,1,,,0,,,68,72
184194,note_on,,,,,8,0,1,,,0,,,85,81
184214,control_change,,,,,20,0,1,,,0,64,0,,
184218,control_change,,,,,4,0,1,,,0,64,127,,
184342,note_off,,,,,124,0,1,,,0,,,85,64
184342,note_on,,,,,0,0,1,,,0,,,65,66
184358,note_on,,,,,16,0,1,,,0,,,80,78
184510,note_off,,,,,152,0,1,,,0,,,65,64
184516,note_on,,,,,6,0,1,,,0,,,59,64
184518,note_off,,,,,2,0,1,,,0,,,68,64
184534,note_off,,,,,16,0,1,,,0,,,59,64
184540,note_on,,,,,6,0,1,,,0,,,85,84
184572,note_off,,,,,32,0,1,,,0,,,89,64
184582,note_off,,,,,10,0,1,,,0,,,80,64
184604,note_off,,,,,22,0,1,,,0,,,85,64
184704,note_on,,,,,100,0,1,,,0,,,42,48
184756,control_change,,,,,52,0,1,,,0,64,127,,
184812,note_on,,,,,56,0,1,,,0,,,49,72
184840,note_off,,,,,28,0,1,,,0,,,42,64
184852,note_off,,,,,12,0,1,,,0,,,49,64
184896,note_on,,,,,44,0,1,,,0,,,58,61
184970,note_off,,,,,74,0,1,,,0,,,58,64
184992,note_on,,,,,22,0,1,,,0,,,66,61
185032,note_off,,,,,40,0,1,,,0,,,66,64
185086,note_on,,,,,54,0,1,,,0,,,54,57
185174,note_on,,,,,88,0,1,,,0,,,61,57
185208,note_off,,,,,34,0,1,,,0,,,54,64
185212,note_off,,,,,4,0,1,,,0,,,61,64
185268,note_on,,,,,56,0,1,,,0,,,70,45
185328,note_off,,,,,60,0,1,,,0,,,70,64
185354,note_on,,,,,26,0,1,,,0,,,78,63
185400,note_off,,,,,46,0,1,,,0,,,78,64
185436,note_on,,,,,36,0,1,,,0,,,66,52
185524,note_on,,,,,88,0,1,,,0,,,73,56
185562,note_off,,,,,0,0,1,,,0,,,66,64
185562,note_off,,,,,38,0,1,,,0,,,73,64
185620,note_on,,,,,58,0,1,,,0,,,82,60
185686,note_off,,,,,66,0,1,,,0,,,82,64
185706,note_on,,,,,20,0,1,,,0,,,90,59
185738,note_off,,,,,32,0,1,,,0,,,90,64
185800,note_on,,,,,62,0,1,,,0,,,78,52
185892,note_on,,,,,92,0,1,,,0,,,85,66
185932,note_off,,,,,40,0,1,,,0,,,85,64
185944,note_off,,,,,12,0,1,,,0,,,78,64
185976,note_on,,,,,32,0,1,,,0,,,94,62
186072,note_on,,,,,96,0,1,,,0,,,102,50
186078,note_off,,,,,6,0,1,,,0,,,94,64
186092,note_off,,,,,14,0,1,,,0,,,102,64
186160,note_on,,,,,68,0,1,,,0,,,66,39
186184,set_tempo,,,,,13144,1,0,500000,,,,,,
186188,set_tempo,,,,,4,1,0,504202,,,,,,
186240,set_tempo,,,,,52,1,0,500000,,,,,,
186242,note_on,,,,,82,0,1,,,0,,,73,51
186276,note_off,,,,,34,0,1,,,0,,,73,64
186288,set_tempo,,,,,48,1,0,495868,,,,,,
186304,note_off,,,,,28,0,1,,,0,,,66,64
186336,set_tempo,,,,,48,1,0,491803,,,,,,
186344,note_on,,,,,40,0,1,,,0,,,82,42
186384,set_tempo,,,,,48,1,0,487805,,,,,,
186432,set_tempo,,,,,48,1,0,483871,,,,,,
186432,note_on,,,,,88,0,1,,,0,,,90,53
186444,note_off,,,,,12,0,1,,,0,,,82,64
186454,note_off,,,,,10,0,1,,,0,,,90,64
186480,set_tempo,,,,,48,1,0,480000,,,,,,
186516,note_on,,,,,62,0,1,,,0,,,54,53
186602,note_on,,,,,86,0,1,,,0,,,61,36
186650,note_off,,,,,48,0,1,,,0,,,61,64
186666,note_off,,,,,16,0,1,,,0,,,54,64
186700,note_on,,,,,34,0,1,,,0,,,70,42
186786,note_on,,,,,86,0,1,,,0,,,78,49
186806,note_off,,,,,20,0,1,,,0,,,78,64
186818,note_off,,,,,12,0,1,,,0,,,70,64
186878,note_on,,,,,60,0,1,,,0,,,42,42
186970,note_on,,,,,92,0,1,,,0,,,49,24
187008,note_off,,,,,38,0,1,,,0,,,42,64
187016,note_off,,,,,8,0,1,,,0,,,49,64
187070,note_on,,,,,54,0,1,,,0,,,58,44
187152,note_off,,,,,82,0,1,,,0,,,58,64
187162,note_on,,,,,10,0,1,,,0,,,66,56
187250,note_on,,,,,88,0,1,,,0,,,54,49
187274,note_on,,,,,24,0,1,,,0,,,71,92
187282,control_change,,,,,8,0,1,,,0,64,0,,
187312,note_off,,,,,30,0,1,,,0,,,66,64
187358,control_change,,,,,46,0,1,,,0,64,127,,
187360,note_on,,,,,2,0,1,,,0,,,61,62
187404,note_off,,,,,44,0,1,,,0,,,61,64
187412,note_off,,,,,8,0,1,,,0,,,54,64
187452,note_on,,,,,40,0,1,,,0,,,61,62
187484,note_off,,,,,32,0,1,,,0,,,71,64
187532,note_off,,,,,48,0,1,,,0,,,61,64
187534,note_on,,,,,2,0,1,,,0,,,70,80
187580,note_off,,,,,46,0,1,,,0,,,70,64
187624,note_on,,,,,44,0,1,,,0,,,42,47
187656,note_on,,,,,32,0,1,,,0,,,70,87
187672,control_change,,,,,16,0,1,,,0,64,0,,
187672,set_tempo,,,,,1192,1,0,476190,,,,,,
187682,set_tempo,,,,,10,1,0,480000,,,,,,
187686,set_tempo,,,,,4,1,0,483871,,,,,,
187690,set_tempo,,,,,4,1,0,487805,,,,,,
187694,set_tempo,,,,,4,1,0,491803,,,,,,
187698,set_tempo,,,,,4,1,0,495868,,,,,,
187702,set_tempo,,,,,4,1,0,500000,,,,,,
187706,set_tempo,,,,,4,1,0,504202,,,,,,
187710,set_tempo,,,,,4,1,0,508475,,,,,,
187714,set_tempo,,,,,4,1,0,512821,,,,,,
187718,set_tempo,,,,,4,1,0,517241,,,,,,
187756,control_change,,,,,84,0,1,,,0,64,127,,
187762,set_tempo,,,,,44,1,0,512821,,,,,,
187764,note_on,,,,,8,0,1,,,0,,,51,59
187796,note_off,,,,,32,0,1,,,0,,,42,64
187800,note_off,,,,,4,0,1,,,0,,,51,64
187834,set_tempo,,,,,72,1,0,508475,,,,,,
187856,note_on,,,,,56,0,1,,,0,,,60,49
187862,note_off,,,,,6,0,1,,,0,,,70,64
187902,set_tempo,,,,,68,1,0,504202,,,,,,
187942,note_on,,,,,80,0,1,,,0,,,63,51
187954,note_off,,,,,12,0,1,,,0,,,60,64
187970,set_tempo,,,,,68,1,0,500000,,,,,,
188012,note_off,,,,,58,0,1,,,0,,,63,64
188020,note_on,,,,,8,0,1,,,0,,,54,44
188038,set_tempo,,,,,68,1,0,495868,,,,,,
188040,note_on,,,,,20,0,1,,,0,,,69,81
188076,set_tempo,,,,,38,1,0,491803,,,,,,
188080,control_change,,,,,40,0,1,,,0,64,0,,
188098,control_change,,,,,18,0,1,,,0,64,127,,
188128,note_on,,,,,30,0,1,,,0,,,63,65
188152,set_tempo,,,,,76,1,0,495868,,,,,,
188158,note_off,,,,,0,0,1,,,0,,,54,64
188158,note_off,,,,,30,0,1,,,0,,,63,64
188216,note_on,,,,,58,0,1,,,0,,,60,54
188232,set_tempo,,,,,80,1,0,500000,,,,,,
188280,note_off,,,,,64,0,1,,,0,,,69,64
188304,note_on,,,,,24,0,1,,,0,,,63,41
188312,set_tempo,,,,,80,1,0,504202,,,,,,
188338,note_off,,,,,34,0,1,,,0,,,60,64
188388,set_tempo,,,,,76,1,0,508475,,,,,,
188398,note_on,,,,,60,0,1,,,0,,,81,66
188404,note_on,,,,,6,0,1,,,0,,,69,88
188410,note_off,,,,,6,0,1,,,0,,,63,64
188440,note_off,,,,,30,0,1,,,0,,,81,64
188468,set_tempo,,,,,80,1,0,512821,,,,,,
188492,note_on,,,,,52,0,1,,,0,,,75,54
188526,note_off,,,,,34,0,1,,,0,,,75,64
188548,set_tempo,,,,,80,1,0,517241,,,,,,
188582,set_tempo,,,,,34,1,0,512821,,,,,,
188598,note_on,,,,,72,0,1,,,0,,,60,52
188614,set_tempo,,,,,32,1,0,508475,,,,,,
188646,set_tempo,,,,,32,1,0,504202,,,,,,
188674,set_tempo,,,,,28,1,0,500000,,,,,,
188680,note_on,,,,,82,0,1,,,0,,,63,62
188694,note_off,,,,,14,0,1,,,0,,,69,64
188706,set_tempo,,,,,32,1,0,495868,,,,,,
188726,note_off,,,,,32,0,1,,,0,,,60,64
188738,set_tempo,,,,,32,1,0,491803,,,,,,
188744,note_off,,,,,18,0,1,,,0,,,63,64
188752,note_on,,,,,8,0,1,,,0,,,54,52
188766,set_tempo,,,,,28,1,0,487805,,,,,,
188782,note_on,,,,,30,0,1,,,0,,,69,92
188832,set_tempo,,,,,66,1,0,500000,,,,,,
188858,note_on,,,,,76,0,1,,,0,,,63,59
188894,note_off,,,,,36,0,1,,,0,,,63,64
188900,set_tempo,,,,,68,1,0,495868,,,,,,
188904,note_off,,,,,10,0,1,,,0,,,54,64
188952,note_on,,,,,48,0,1,,,0,,,60,56
188972,set_tempo,,,,,72,1,0,491803,,,,,,
189036,note_on,,,,,84,0,1,,,0,,,63,59
189040,set_tempo,,,,,68,1,0,487805,,,,,,
189040,note_off,,,,,4,0,1,,,0,,,69,64
189046,note_off,,,,,6,0,1,,,0,,,60,64
189068,note_off,,,,,22,0,1,,,0,,,63,64
189106,note_on,,,,,38,0,1,,,0,,,42,51
189108,set_tempo,,,,,68,1,0,483871,,,,,,
189146,control_change,,,,,40,0,1,,,0,64,0,,
189152,note_on,,,,,6,0,1,,,0,,,75,93
189180,control_change,,,,,28,0,1,,,0,64,127,,
189200,set_tempo,,,,,92,1,0,480000,,,,,,
189250,note_on,,,,,70,0,1,,,0,,,49,53
189270,note_off,,,,,20,0,1,,,0,,,75,64
189286,note_off,,,,,16,0,1,,,0,,,49,64
189288,note_off,,,,,2,0,1,,,0,,,42,64
189358,note_on,,,,,70,0,1,,,0,,,58,74
189392,note_off,,,,,34,0,1,,,0,,,58,64
189396,set_tempo,,,,,196,1,0,476190,,,,,,
189442,note_on,,,,,50,0,1,,,0,,,66,51
189520,note_on,,,,,78,0,1,,,0,,,54,51
189548,note_on,,,,,28,0,1,,,0,,,73,64
189562,control_change,,,,,14,0,1,,,0,64,0,,
189568,set_tempo,,,,,172,1,0,472441,,,,,,
189580,note_off,,,,,18,0,1,,,0,,,66,64
189602,control_change,,,,,22,0,1,,,0,64,127,,
189636,note_on,,,,,34,0,1,,,0,,,61,60
189654,note_off,,,,,18,0,1,,,0,,,73,64
189672,note_off,,,,,18,0,1,,,0,,,61,64
189672,note_off,,,,,0,0,1,,,0,,,54,64
189726,note_on,,,,,54,0,1,,,0,,,58,66
189740,set_tempo,,,,,172,1,0,468750,,,,,,
189824,note_on,,,,,98,0,1,,,0,,,66,56
189854,note_off,,,,,30,0,1,,,0,,,58,64
189888,set_tempo,,,,,148,1,0,465116,,,,,,
189896,set_tempo,,,,,8,1,0,468750,,,,,,
189916,note_on,,,,,62,0,1,,,0,,,85,61
189972,note_off,,,,,56,0,1,,,0,,,85,64
189992,note_on,,,,,20,0,1,,,0,,,78,66
190008,set_tempo,,,,,112,1,0,472441,,,,,,
190038,note_off,,,,,46,0,1,,,0,,,78,64
190068,note_off,,,,,30,0,1,,,0,,,66,64
190088,note_on,,,,,20,0,1,,,0,,,58,57
190116,set_tempo,,,,,108,1,0,476190,,,,,,
190168,note_off,,,,,80,0,1,,,0,,,58,64
190178,note_on,,,,,10,0,1,,,0,,,66,59
190224,set_tempo,,,,,108,1,0,480000,,,,,,
190262,note_on,,,,,84,0,1,,,0,,,54,62
190278,note_on,,,,,16,0,1,,,0,,,71,78
190302,note_off,,,,,24,0,1,,,0,,,66,64
190306,control_change,,,,,4,0,1,,,0,64,0,,
190336,set_tempo,,,,,112,1,0,483871,,,,,,
190348,control_change,,,,,42,0,1,,,0,64,127,,
190360,note_on,,,,,12,0,1,,,0,,,61,66
190392,note_off,,,,,32,0,1,,,0,,,61,64
190404,note_off,,,,,12,0,1,,,0,,,54,64
190444,set_tempo,,,,,108,1,0,487805,,,,,,
190450,note_on,,,,,46,0,1,,,0,,,61,61
190472,note_off,,,,,22,0,1,,,0,,,71,64
190536,note_on,,,,,64,0,1,,,0,,,66,61
190538,note_off,,,,,2,0,1,,,0,,,61,64
190542,note_on,,,,,4,0,1,,,0,,,70,72
190552,set_tempo,,,,,108,1,0,491803,,,,,,
190556,set_tempo,,,,,4,1,0,500000,,,,,,
190560,set_tempo,,,,,4,1,0,504202,,,,,,
190564,set_tempo,,,,,4,1,0,512821,,,,,,
190568,set_tempo,,,,,4,1,0,521739,,,,,,
190572,set_tempo,,,,,4,1,0,530973,,,,,,
190576,set_tempo,,,,,4,1,0,550459,,,,,,
190588,note_off,,,,,46,0,1,,,0,,,70,64
190606,note_off,,,,,18,0,1,,,0,,,66,64
190618,note_on,,,,,12,0,1,,,0,,,42,51
190632,set_tempo,,,,,56,1,0,545455,,,,,,
190648,note_on,,,,,30,0,1,,,0,,,70,90
190670,control_change,,,,,22,0,1,,,0,64,0,,
190688,set_tempo,,,,,56,1,0,540541,,,,,,
190738,note_on,,,,,68,0,1,,,0,,,51,65
190740,control_change,,,,,2,0,1,,,0,64,127,,
190744,set_tempo,,,,,56,1,0,535714,,,,,,
190764,note_off,,,,,24,0,1,,,0,,,42,64
190768,note_off,,,,,4,0,1,,,0,,,51,64
190796,set_tempo,,,,,52,1,0,530973,,,,,,
190826,note_off,,,,,58,0,1,,,0,,,70,64
190832,note_on,,,,,6,0,1,,,0,,,60,57
190852,set_tempo,,,,,56,1,0,526316,,,,,,
190908,set_tempo,,,,,56,1,0,521739,,,,,,
190918,note_on,,,,,86,0,1,,,0,,,63,61
190960,set_tempo,,,,,52,1,0,517241,,,,,,
191006,note_off,,,,,88,0,1,,,0,,,60,64
191008,note_on,,,,,2,0,1,,,0,,,80,66
191012,note_on,,,,,4,0,1,,,0,,,68,67
191024,note_off,,,,,12,0,1,,,0,,,63,64
191094,note_off,,,,,70,0,1,,,0,,,80,64
191100,set_tempo,,,,,140,1,0,480000,,,,,,
191108,note_on,,,,,14,0,1,,,0,,,75,52
191112,note_on,,,,,4,0,1,,,0,,,72,52
191124,note_off,,,,,12,0,1,,,0,,,75,64
191128,note_off,,,,,4,0,1,,,0,,,72,64
191208,note_on,,,,,80,0,1,,,0,,,60,56
191234,note_off,,,,,26,0,1,,,0,,,68,64
191244,set_tempo,,,,,144,1,0,476190,,,,,,
191296,note_on,,,,,62,0,1,,,0,,,63,54
191376,note_on,,,,,80,0,1,,,0,,,42,60
191384,set_tempo,,,,,140,1,0,472441,,,,,,
191400,note_off,,,,,24,0,1,,,0,,,60,64
191400,note_on,,,,,0,0,1,,,0,,,70,87
191408,control_change,,,,,8,0,1,,,0,64,0,,
191418,note_off,,,,,10,0,1,,,0,,,63,64
191464,note_off,,,,,46,0,1,,,0,,,42,64
191468,control_change,,,,,4,0,1,,,0,64,127,,
191472,note_on,,,,,4,0,1,,,0,,,53,65
191476,note_on,,,,,4,0,1,,,0,,,50,65
191520,note_off,,,,,44,0,1,,,0,,,53,64
191522,note_off,,,,,2,0,1,,,0,,,50,64
191524,set_tempo,,,,,140,1,0,468750,,,,,,
191576,set_tempo,,,,,52,1,0,472441,,,,,,
191596,note_on,,,,,74,0,1,,,0,,,59,55
191612,control_change,,,,,16,0,1,,,0,64,0,,
191612,set_tempo,,,,,36,1,0,476190,,,,,,
191624,control_change,,,,,12,0,1,,,0,64,127,,
191634,note_off,,,,,10,0,1,,,0,,,70,64
191648,set_tempo,,,,,36,1,0,480000,,,,,,
191678,note_on,,,,,44,0,1,,,0,,,62,57
191680,set_tempo,,,,,32,1,0,483871,,,,,,
191716,set_tempo,,,,,36,1,0,487805,,,,,,
191748,set_tempo,,,,,32,1,0,491803,,,,,,
191758,note_off,,,,,80,0,1,,,0,,,59,64
191784,set_tempo,,,,,36,1,0,495868,,,,,,
191784,note_on,,,,,26,0,1,,,0,,,83,66
191788,note_on,,,,,4,0,1,,,0,,,71,66
191804,control_change,,,,,16,0,1,,,0,64,0,,
191812,note_off,,,,,8,0,1,,,0,,,62,64
191816,set_tempo,,,,,32,1,0,500000,,,,,,
191828,control_change,,,,,16,0,1,,,0,64,127,,
191852,set_tempo,,,,,36,1,0,504202,,,,,,
191864,note_off,,,,,36,0,1,,,0,,,83,64
191884,set_tempo,,,,,32,1,0,508475,,,,,,
191898,note_on,,,,,34,0,1,,,0,,,77,60
191908,set_tempo,,,,,24,1,0,517241,,,,,,
191908,note_on,,,,,10,0,1,,,0,,,74,54
191918,note_off,,,,,10,0,1,,,0,,,77,64
191922,note_off,,,,,4,0,1,,,0,,,74,64
191992,set_tempo,,,,,84,1,0,512821,,,,,,
192000,note_on,,,,,78,0,1,,,0,,,59,55
192076,set_tempo,,,,,84,1,0,508475,,,,,,
192104,note_on,,,,,104,0,1,,,0,,,62,52
192106,note_on,,,,,2,0,1,,,0,,,65,71
192108,note_off,,,,,2,0,1,,,0,,,71,64
192160,set_tempo,,,,,84,1,0,504202,,,,,,
192178,note_off,,,,,70,0,1,,,0,,,59,64
192216,note_on,,,,,38,0,1,,,0,,,42,43
192230,note_off,,,,,14,0,1,,,0,,,62,64
192238,note_on,,,,,8,0,1,,,0,,,68,76
192240,set_tempo,,,,,80,1,0,500000,,,,,,
192246,control_change,,,,,8,0,1,,,0,64,0,,
192254,note_off,,,,,8,0,1,,,0,,,65,64
192324,set_tempo,,,,,84,1,0,495868,,,,,,
192338,control_change,,,,,84,0,1,,,0,64,127,,
192344,note_on,,,,,6,0,1,,,0,,,49,58
192378,note_off,,,,,34,0,1,,,0,,,42,64
192392,note_off,,,,,14,0,1,,,0,,,49,64
192408,set_tempo,,,,,84,1,0,491803,,,,,,
192432,note_on,,,,,40,0,1,,,0,,,58,54
192492,set_tempo,,,,,84,1,0,487805,,,,,,
192510,note_off,,,,,78,0,1,,,0,,,58,64
192520,note_on,,,,,10,0,1,,,0,,,61,53
192572,set_tempo,,,,,80,1,0,483871,,,,,,
192602,note_on,,,,,82,0,1,,,0,,,54,60
192610,note_on,,,,,8,0,1,,,0,,,66,63
192612,note_off,,,,,2,0,1,,,0,,,61,64
192618,note_off,,,,,6,0,1,,,0,,,68,64
192656,set_tempo,,,,,84,1,0,480000,,,,,,
192672,note_off,,,,,54,0,1,,,0,,,66,64
192702,note_on,,,,,30,0,1,,,0,,,61,60
192738,note_off,,,,,36,0,1,,,0,,,61,64
192740,set_tempo,,,,,84,1,0,476190,,,,,,
192742,note_off,,,,,4,0,1,,,0,,,54,64
192792,note_on,,,,,50,0,1,,,0,,,70,68
192820,set_tempo,,,,,80,1,0,472441,,,,,,
192824,set_tempo,,,,,4,1,0,468750,,,,,,
192828,set_tempo,,,,,4,1,0,472441,,,,,,
192832,set_tempo,,,,,4,1,0,476190,,,,,,
192836,set_tempo,,,,,4,1,0,480000,,,,,,
192840,set_tempo,,,,,4,1,0,487805,,,,,,
192844,set_tempo,,,,,4,1,0,491803,,,,,,
192848,set_tempo,,,,,4,1,0,495868,,,,,,
192852,set_tempo,,,,,4,1,0,504202,,,,,,
192856,set_tempo,,,,,4,1,0,508475,,,,,,
192856,note_off,,,,,64,0,1,,,0,,,70,64
192860,set_tempo,,,,,4,1,0,512821,,,,,,
192864,set_tempo,,,,,4,1,0,521739,,,,,,
192876,note_on,,,,,20,0,1,,,0,,,78,65
192918,note_off,,,,,42,0,1,,,0,,,78,64
192948,set_tempo,,,,,84,1,0,517241,,,,,,
192962,note_on,,,,,44,0,1,,,0,,,66,45
193020,set_tempo,,,,,72,1,0,512821,,,,,,
193048,note_on,,,,,86,0,1,,,0,,,73,41
193096,note_off,,,,,48,0,1,,,0,,,73,64
193096,set_tempo,,,,,76,1,0,508475,,,,,,
193122,note_off,,,,,26,0,1,,,0,,,66,64
193138,note_on,,,,,16,0,1,,,0,,,82,51
193168,set_tempo,,,,,72,1,0,504202,,,,,,
193230,note_on,,,,,92,0,1,,,0,,,90,53
193240,note_off,,,,,10,0,1,,,0,,,82,64
193244,set_tempo,,,,,76,1,0,500000,,,,,,
193244,note_off,,,,,4,0,1,,,0,,,90,64
193316,set_tempo,,,,,72,1,0,495868,,,,,,
193320,note_on,,,,,0,0,1,,,0,,,54,54
193320,note_on,,,,,76,0,1,,,0,,,71,83
193392,set_tempo,,,,,76,1,0,491803,,,,,,
193424,note_on,,,,,104,0,1,,,0,,,61,68
193458,note_off,,,,,34,0,1,,,0,,,61,64
193464,set_tempo,,,,,72,1,0,487805,,,,,,
193468,note_off,,,,,10,0,1,,,0,,,54,64
193500,note_off,,,,,32,0,1,,,0,,,71,64
193514,note_on,,,,,14,0,1,,,0,,,61,70
193536,set_tempo,,,,,72,1,0,483871,,,,,,
193568,note_off,,,,,54,0,1,,,0,,,61,64
193600,note_on,,,,,0,0,1,,,0,,,70,75
193600,note_on,,,,,32,0,1,,,0,,,66,70
193650,note_off,,,,,50,0,1,,,0,,,70,64
193654,note_off,,,,,4,0,1,,,0,,,66,64
193684,note_on,,,,,30,0,1,,,0,,,42,50
193720,note_on,,,,,36,0,1,,,0,,,70,79
193734,control_change,,,,,14,0,1,,,0,64,0,,
193816,control_change,,,,,82,0,1,,,0,64,127,,
193826,note_on,,,,,10,0,1,,,0,,,51,60
193856,note_off,,,,,30,0,1,,,0,,,42,64
193862,note_off,,,,,6,0,1,,,0,,,51,64
193908,note_on,,,,,46,0,1,,,0,,,60,60
193914,note_off,,,,,6,0,1,,,0,,,70,64
193990,note_on,,,,,76,0,1,,,0,,,63,69
194028,note_off,,,,,38,0,1,,,0,,,60,64
194062,note_off,,,,,34,0,1,,,0,,,63,64
194074,note_on,,,,,12,0,1,,,0,,,54,57
194076,set_tempo,,,,,540,1,0,487805,,,,,,
194084,note_on,,,,,10,0,1,,,0,,,69,74
194168,note_on,,,,,84,0,1,,,0,,,63,60
194202,note_off,,,,,34,0,1,,,0,,,54,64
194206,note_off,,,,,4,0,1,,,0,,,63,64
194236,set_tempo,,,,,160,1,0,491803,,,,,,
194258,note_on,,,,,52,0,1,,,0,,,60,60
194292,note_off,,,,,34,0,1,,,0,,,69,64
194336,note_on,,,,,44,0,1,,,0,,,63,67
194384,note_off,,,,,48,0,1,,,0,,,60,64
194396,set_tempo,,,,,160,1,0,495868,,,,,,
194418,note_on,,,,,34,0,1,,,0,,,81,61
194432,note_on,,,,,14,0,1,,,0,,,69,87
194434,note_off,,,,,2,0,1,,,0,,,63,64
194498,note_off,,,,,64,0,1,,,0,,,81,64
194516,note_on,,,,,18,0,1,,,0,,,75,69
194552,set_tempo,,,,,156,1,0,500000,,,,,,
194554,note_off,,,,,38,0,1,,,0,,,75,64
194556,set_tempo,,,,,4,1,0,504202,,,,,,
194560,set_tempo,,,,,4,1,0,508475,,,,,,
194564,set_tempo,,,,,4,1,0,512821,,,,,,
194568,set_tempo,,,,,4,1,0,517241,,,,,,
194572,set_tempo,,,,,4,1,0,521739,,,,,,
194576,set_tempo,,,,,4,1,0,530973,,,,,,
194604,note_on,,,,,50,0,1,,,0,,,60,59
194656,set_tempo,,,,,80,1,0,535714,,,,,,
194680,note_on,,,,,76,0,1,,,0,,,63,71
194706,note_off,,,,,26,0,1,,,0,,,69,64
194726,note_off,,,,,20,0,1,,,0,,,60,64
194748,set_tempo,,,,,92,1,0,530973,,,,,,
194756,note_off,,,,,30,0,1,,,0,,,63,64
194758,note_on,,,,,2,0,1,,,0,,,54,60
194782,note_on,,,,,24,0,1,,,0,,,69,89
194804,control_change,,,,,22,0,1,,,0,64,0,,
194836,set_tempo,,,,,88,1,0,526316,,,,,,
194838,control_change,,,,,34,0,1,,,0,64,127,,
194854,note_on,,,,,16,0,1,,,0,,,63,68
194894,note_off,,,,,40,0,1,,,0,,,63,64
194908,note_off,,,,,14,0,1,,,0,,,54,64
194924,set_tempo,,,,,88,1,0,521739,,,,,,
194936,note_on,,,,,28,0,1,,,0,,,60,61
194936,set_tempo,,,,,12,1,0,526316,,,,,,
194960,set_tempo,,,,,24,1,0,521739,,,,,,
194980,set_tempo,,,,,20,1,0,517241,,,,,,
195000,set_tempo,,,,,20,1,0,512821,,,,,,
195020,set_tempo,,,,,20,1,0,508475,,,,,,
195024,note_on,,,,,88,0,1,,,0,,,63,71
195032,note_off,,,,,8,0,1,,,0,,,69,64
195036,note_off,,,,,4,0,1,,,0,,,60,64
195044,set_tempo,,,,,24,1,0,504202,,,,,,
195060,note_off,,,,,24,0,1,,,0,,,63,64
195064,set_tempo,,,,,20,1,0,500000,,,,,,
195084,set_tempo,,,,,20,1,0,495868,,,,,,
195104,set_tempo,,,,,20,1,0,491803,,,,,,
195120,note_on,,,,,60,0,1,,,0,,,42,45
195124,set_tempo,,,,,20,1,0,487805,,,,,,
195152,note_on,,,,,32,0,1,,,0,,,75,94
195160,control_change,,,,,8,0,1,,,0,64,0,,
195192,control_change,,,,,32,0,1,,,0,64,127,,
195198,note_off,,,,,6,0,1,,,0,,,42,64
195244,note_on,,,,,46,0,1,,,0,,,58,69
195266,note_off,,,,,22,0,1,,,0,,,58,64
195278,note_off,,,,,12,0,1,,,0,,,75,64
195338,note_on,,,,,60,0,1,,,0,,,61,69
195352,set_tempo,,,,,228,1,0,483871,,,,,,
195420,note_on,,,,,82,0,1,,,0,,,66,65
195438,note_off,,,,,18,0,1,,,0,,,61,64
195492,note_on,,,,,0,0,1,,,0,,,54,62
195492,note_off,,,,,54,0,1,,,0,,,66,64
195510,note_on,,,,,18,0,1,,,0,,,73,70
195520,note_on,,,,,10,0,1,,,0,,,70,68
195532,control_change,,,,,12,0,1,,,0,64,0,,
195556,set_tempo,,,,,204,1,0,480000,,,,,,
195584,control_change,,,,,52,0,1,,,0,64,127,,
195608,note_on,,,,,24,0,1,,,0,,,61,56
195644,note_off,,,,,36,0,1,,,0,,,61,64
195650,note_off,,,,,6,0,1,,,0,,,54,64
195688,note_on,,,,,38,0,1,,,0,,,61,52
195760,set_tempo,,,,,204,1,0,476190,,,,,,
195780,note_on,,,,,92,0,1,,,0,,,66,69
195826,note_off,,,,,46,0,1,,,0,,,61,64
195874,note_on,,,,,48,0,1,,,0,,,85,72
195964,note_on,,,,,90,0,1,,,0,,,78,68
195966,note_off,,,,,2,0,1,,,0,,,85,64
196008,note_off,,,,,42,0,1,,,0,,,78,64
196058,note_on,,,,,50,0,1,,,0,,,61,76
196072,note_off,,,,,14,0,1,,,0,,,66,64
196084,set_tempo,,,,,324,1,0,472441,,,,,,
196140,note_on,,,,,68,0,1,,,0,,,66,68
196164,note_off,,,,,0,0,1,,,0,,,70,64
196164,note_off,,,,,24,0,1,,,0,,,73,64
196188,note_off,,,,,24,0,1,,,0,,,61,64
196208,note_on,,,,,20,0,1,,,0,,,54,53
196254,note_off,,,,,46,0,1,,,0,,,66,64
196256,note_on,,,,,2,0,1,,,0,,,75,79
196258,note_on,,,,,2,0,1,,,0,,,71,62
196272,control_change,,,,,14,0,1,,,0,64,0,,
196314,control_change,,,,,42,0,1,,,0,64,127,,
196344,note_on,,,,,30,0,1,,,0,,,61,71
196364,note_off,,,,,20,0,1,,,0,,,75,64
196384,note_off,,,,,20,0,1,,,0,,,61,64
196394,note_off,,,,,10,0,1,,,0,,,54,64
196414,note_on,,,,,20,0,1,,,0,,,61,71
196420,note_off,,,,,6,0,1,,,0,,,71,64
196490,note_on,,,,,70,0,1,,,0,,,73,77
196498,note_off,,,,,8,0,1,,,0,,,61,64
196500,note_on,,,,,2,0,1,,,0,,,66,60
196500,note_on,,,,,0,0,1,,,0,,,70,67
196538,note_off,,,,,38,0,1,,,0,,,66,64
196544,note_off,,,,,6,0,1,,,0,,,73,64
196560,note_off,,,,,16,0,1,,,0,,,70,64
196602,note_on,,,,,42,0,1,,,0,,,42,51
196614,note_on,,,,,12,0,1,,,0,,,73,72
196616,note_on,,,,,2,0,1,,,0,,,70,70
196644,control_change,,,,,28,0,1,,,0,64,0,,
196688,control_change,,,,,44,0,1,,,0,64,127,,
196710,note_on,,,,,22,0,1,,,0,,,51,58
196712,set_tempo,,,,,628,1,0,476190,,,,,,
196724,set_tempo,,,,,12,1,0,480000,,,,,,
196730,note_off,,,,,20,0,1,,,0,,,73,64
196736,set_tempo,,,,,12,1,0,483871,,,,,,
196744,note_off,,,,,14,0,1,,,0,,,42,64
196748,note_off,,,,,4,0,1,,,0,,,70,64
196748,set_tempo,,,,,12,1,0,487805,,,,,,
196752,note_off,,,,,4,0,1,,,0,,,51,64
196760,set_tempo,,,,,12,1,0,491803,,,,,,
196768,set_tempo,,,,,8,1,0,495868,,,,,,
196786,note_on,,,,,34,0,1,,,0,,,60,60
196868,note_on,,,,,82,0,1,,,0,,,63,59
196940,note_off,,,,,72,0,1,,,0,,,60,64
196962,note_on,,,,,22,0,1,,,0,,,84,67
196964,note_on,,,,,2,0,1,,,0,,,72,74
196968,note_on,,,,,4,0,1,,,0,,,81,67
196970,note_on,,,,,2,0,1,,,0,,,69,72
196976,note_off,,,,,6,0,1,,,0,,,63,64
197028,note_off,,,,,52,0,1,,,0,,,84,64
197054,note_on,,,,,26,0,1,,,0,,,75,67
197066,note_off,,,,,12,0,1,,,0,,,81,64
197090,note_off,,,,,24,0,1,,,0,,,75,64
197148,note_on,,,,,58,0,1,,,0,,,60,69
197200,note_off,,,,,52,0,1,,,0,,,69,64
197224,note_on,,,,,24,0,1,,,0,,,63,74
197230,note_off,,,,,6,0,1,,,0,,,72,64
197288,note_off,,,,,58,0,1,,,0,,,60,64
197308,note_on,,,,,20,0,1,,,0,,,41,83
197310,note_off,,,,,2,0,1,,,0,,,63,64
197328,note_on,,,,,18,0,1,,,0,,,69,74
197330,note_on,,,,,2,0,1,,,0,,,72,76
197338,control_change,,,,,8,0,1,,,0,64,0,,
197340,set_tempo,,,,,572,1,0,500000,,,,,,
197378,note_off,,,,,40,0,1,,,0,,,41,64
197384,control_change,,,,,6,0,1,,,0,64,127,,
197416,note_on,,,,,32,0,1,,,0,,,57,73
197444,note_off,,,,,28,0,1,,,0,,,57,64
197498,note_on,,,,,54,0,1,,,0,,,60,75
197550,note_off,,,,,52,0,1,,,0,,,69,64
197556,note_off,,,,,6,0,1,,,0,,,72,64
197564,set_tempo,,,,,224,1,0,504202,,,,,,
197568,set_tempo,,,,,4,1,0,512821,,,,,,
197582,note_on,,,,,26,0,1,,,0,,,65,70
197628,note_off,,,,,46,0,1,,,0,,,60,64
197654,note_on,,,,,26,0,1,,,0,,,39,90
197680,note_off,,,,,26,0,1,,,0,,,65,64
197684,note_on,,,,,4,0,1,,,0,,,69,75
197686,note_on,,,,,2,0,1,,,0,,,72,81
197694,control_change,,,,,8,0,1,,,0,64,0,,
197728,note_off,,,,,34,0,1,,,0,,,39,64
197736,control_change,,,,,8,0,1,,,0,64,127,,
197778,note_on,,,,,42,0,1,,,0,,,57,68
197806,note_off,,,,,28,0,1,,,0,,,57,64
197838,note_on,,,,,32,0,1,,,0,,,60,69
197904,set_tempo,,,,,336,1,0,508475,,,,,,
197924,note_off,,,,,86,0,1,,,0,,,69,64
197926,note_on,,,,,2,0,1,,,0,,,65,76
197936,note_off,,,,,10,0,1,,,0,,,60,64
197942,note_off,,,,,6,0,1,,,0,,,72,64
197958,note_off,,,,,16,0,1,,,0,,,65,64
198004,note_on,,,,,46,0,1,,,0,,,37,98
198040,control_change,,,,,36,0,1,,,0,64,0,,
198060,note_on,,,,,20,0,1,,,0,,,78,86
198064,note_on,,,,,4,0,1,,,0,,,75,86
198074,note_off,,,,,10,0,1,,,0,,,37,64
198084,control_change,,,,,10,0,1,,,0,64,127,,
198164,note_on,,,,,80,0,1,,,0,,,58,79
198184,note_off,,,,,20,0,1,,,0,,,78,64
198188,note_off,,,,,0,0,1,,,0,,,75,64
198188,note_off,,,,,4,0,1,,,0,,,58,64
198236,set_tempo,,,,,332,1,0,504202,,,,,,
198244,note_on,,,,,56,0,1,,,0,,,65,49
198340,note_on,,,,,96,0,1,,,0,,,70,56
198388,note_off,,,,,48,0,1,,,0,,,65,64
198412,note_off,,,,,24,0,1,,,0,,,70,64
198428,note_on,,,,,16,0,1,,,0,,,89,67
198432,note_on,,,,,4,0,1,,,0,,,73,77
198436,note_on,,,,,4,0,1,,,0,,,77,64
198440,note_on,,,,,4,0,1,,,0,,,85,50
198482,note_off,,,,,42,0,1,,,0,,,89,64
198532,note_on,,,,,50,0,1,,,0,,,82,68
198534,note_off,,,,,2,0,1,,,0,,,85,64
198556,note_off,,,,,22,0,1,,,0,,,82,64
198568,set_tempo,,,,,332,1,0,500000,,,,,,
198616,note_on,,,,,60,0,1,,,0,,,65,62
198708,note_on,,,,,92,0,1,,,0,,,70,68
198770,note_off,,,,,62,0,1,,,0,,,77,64
198792,note_on,,,,,22,0,1,,,0,,,39,68
198810,note_off,,,,,18,0,1,,,0,,,65,64
198818,control_change,,,,,8,0,1,,,0,64,0,,
198820,note_off,,,,,2,0,1,,,0,,,73,64
198826,note_off,,,,,6,0,1,,,0,,,70,64
198886,note_on,,,,,60,0,1,,,0,,,54,69
198890,control_change,,,,,4,0,1,,,0,64,127,,
198900,set_tempo,,,,,332,1,0,495868,,,,,,
198928,note_off,,,,,38,0,1,,,0,,,39,64
198932,note_off,,,,,4,0,1,,,0,,,54,64
198980,note_on,,,,,48,0,1,,,0,,,75,63
198982,note_on,,,,,2,0,1,,,0,,,63,71
198988,note_on,,,,,6,0,1,,,0,,,71,65
199014,note_off,,,,,26,0,1,,,0,,,63,64
199014,note_off,,,,,0,0,1,,,0,,,75,64
199054,note_on,,,,,40,0,1,,,0,,,66,65
199084,note_off,,,,,30,0,1,,,0,,,66,64
199088,note_off,,,,,4,0,1,,,0,,,71,64
199088,set_tempo,,,,,188,1,0,491803,,,,,,
199142,note_on,,,,,54,0,1,,,0,,,78,78
199144,note_on,,,,,2,0,1,,,0,,,75,67
199176,note_off,,,,,32,0,1,,,0,,,75,64
199200,set_tempo,,,,,112,1,0,500000,,,,,,
199204,set_tempo,,,,,4,1,0,487805,,,,,,
199208,note_on,,,,,32,0,1,,,0,,,83,72
199208,set_tempo,,,,,4,1,0,472441,,,,,,
199212,note_off,,,,,4,0,1,,,0,,,78,64
199216,note_on,,,,,4,0,1,,,0,,,87,62
199216,note_on,,,,,0,0,1,,,0,,,77,80
199216,note_on,,,,,0,0,1,,,0,,,73,77
199270,note_off,,,,,54,0,1,,,0,,,73,64
199276,note_off,,,,,6,0,1,,,0,,,77,64
199308,note_off,,,,,32,0,1,,,0,,,83,64
199312,note_off,,,,,4,0,1,,,0,,,87,64
199336,note_on,,,,,24,0,1,,,0,,,78,51
199364,note_off,,,,,28,0,1,,,0,,,78,64
199428,note_on,,,,,0,0,1,,,0,,,63,77
199428,note_on,,,,,64,0,1,,,0,,,71,64
199432,note_on,,,,,4,0,1,,,0,,,75,76
199466,note_off,,,,,34,0,1,,,0,,,63,64
199520,note_on,,,,,54,0,1,,,0,,,66,68
199520,set_tempo,,,,,312,1,0,476190,,,,,,
199524,set_tempo,,,,,4,1,0,495868,,,,,,
199542,note_off,,,,,22,0,1,,,0,,,75,64
199564,note_off,,,,,22,0,1,,,0,,,66,64
199578,note_off,,,,,14,0,1,,,0,,,71,64
199614,note_on,,,,,36,0,1,,,0,,,41,79
199624,note_on,,,,,10,0,1,,,0,,,71,70
199626,note_on,,,,,2,0,1,,,0,,,75,76
199638,control_change,,,,,12,0,1,,,0,64,0,,
199680,set_tempo,,,,,156,1,0,491803,,,,,,
199692,set_tempo,,,,,12,1,0,487805,,,,,,
199704,set_tempo,,,,,12,1,0,483871,,,,,,
199708,control_change,,,,,70,0,1,,,0,64,127,,
199712,set_tempo,,,,,8,1,0,480000,,,,,,
199724,set_tempo,,,,,12,1,0,476190,,,,,,
199728,note_on,,,,,20,0,1,,,0,,,53,70
199730,note_off,,,,,2,0,1,,,0,,,75,64
199744,note_off,,,,,14,0,1,,,0,,,41,64
199754,note_off,,,,,10,0,1,,,0,,,71,64
199760,note_off,,,,,6,0,1,,,0,,,53,64
199816,note_on,,,,,56,0,1,,,0,,,61,65
199908,note_on,,,,,92,0,1,,,0,,,65,64
199934,note_off,,,,,26,0,1,,,0,,,61,64
199994,note_on,,,,,60,0,1,,,0,,,73,71
199998,note_on,,,,,4,0,1,,,0,,,85,65
200004,note_on,,,,,0,0,1,,,0,,,70,72
200004,note_on,,,,,6,0,1,,,0,,,82,65
200036,note_off,,,,,32,0,1,,,0,,,65,64
200090,note_off,,,,,54,0,1,,,0,,,85,64
200092,note_on,,,,,2,0,1,,,0,,,77,65
200112,note_off,,,,,20,0,1,,,0,,,82,64
200120,note_off,,,,,8,0,1,,,0,,,77,64
200186,note_on,,,,,66,0,1,,,0,,,61,69
200272,note_on,,,,,86,0,1,,,0,,,65,67
200304,note_off,,,,,32,0,1,,,0,,,70,64
200316,note_off,,,,,12,0,1,,,0,,,73,64
200356,note_on,,,,,40,0,1,,,0,,,39,70
200372,control_change,,,,,16,0,1,,,0,64,0,,
200386,note_off,,,,,14,0,1,,,0,,,61,64
200440,note_off,,,,,54,0,1,,,0,,,65,64
200442,control_change,,,,,2,0,1,,,0,64,127,,
200474,note_on,,,,,32,0,1,,,0,,,53,71
200482,note_off,,,,,8,0,1,,,0,,,39,64
200508,note_off,,,,,26,0,1,,,0,,,53,64
200550,note_on,,,,,42,0,1,,,0,,,69,75
200552,note_on,,,,,2,0,1,,,0,,,60,68
200554,note_on,,,,,2,0,1,,,0,,,72,59
200652,note_on,,,,,98,0,1,,,0,,,65,62
200662,note_off,,,,,10,0,1,,,0,,,60,64
200662,note_off,,,,,0,0,1,,,0,,,72,64
200670,note_off,,,,,8,0,1,,,0,,,69,64
200684,note_off,,,,,14,0,1,,,0,,,65,64
200748,note_on,,,,,64,0,1,,,0,,,70,83
200748,note_on,,,,,0,0,1,,,0,,,84,67
200752,note_on,,,,,4,0,1,,,0,,,81,63
200754,note_on,,,,,2,0,1,,,0,,,73,84
200838,note_off,,,,,84,0,1,,,0,,,84,64
200844,note_on,,,,,6,0,1,,,0,,,77,68
200846,note_off,,,,,2,0,1,,,0,,,70,64
200848,note_off,,,,,2,0,1,,,0,,,73,64
200864,note_off,,,,,16,0,1,,,0,,,81,64
200876,note_off,,,,,12,0,1,,,0,,,77,64
200880,set_tempo,,,,,1156,1,0,480000,,,,,,
200942,note_on,,,,,66,0,1,,,0,,,75,85
200952,note_on,,,,,0,0,1,,,0,,,65,73
200952,note_on,,,,,10,0,1,,,0,,,72,83
200956,set_tempo,,,,,76,1,0,476190,,,,,,
201004,set_tempo,,,,,48,1,0,480000,,,,,,
201040,note_on,,,,,88,0,1,,,0,,,69,79
201048,set_tempo,,,,,44,1,0,483871,,,,,,
201052,note_off,,,,,12,0,1,,,0,,,65,64
201064,note_off,,,,,12,0,1,,,0,,,72,64
201068,note_off,,,,,4,0,1,,,0,,,75,64
201080,note_off,,,,,12,0,1,,,0,,,69,64
201092,set_tempo,,,,,44,1,0,487805,,,,,,
201136,note_on,,,,,56,0,1,,,0,,,37,94
201136,set_tempo,,,,,44,1,0,491803,,,,,,
201152,note_on,,,,,16,0,1,,,0,,,78,97
201160,note_on,,,,,8,0,1,,,0,,,75,86
201180,set_tempo,,,,,44,1,0,495868,,,,,,
201188,control_change,,,,,28,0,1,,,0,64,0,,
201224,set_tempo,,,,,44,1,0,500000,,,,,,
201236,note_off,,,,,48,0,1,,,0,,,75,64
201258,control_change,,,,,22,0,1,,,0,64,127,,
201260,note_on,,,,,2,0,1,,,0,,,49,81
201264,note_off,,,,,4,0,1,,,0,,,78,64
201268,set_tempo,,,,,44,1,0,504202,,,,,,
201302,note_off,,,,,38,0,1,,,0,,,49,64
201308,note_off,,,,,6,0,1,,,0,,,37,64
201312,set_tempo,,,,,44,1,0,508475,,,,,,
201356,set_tempo,,,,,44,1,0,512821,,,,,,
201360,set_tempo,,,,,4,1,0,487805,,,,,,
201366,note_on,,,,,58,0,1,,,0,,,73,78
201366,note_on,,,,,0,0,1,,,0,,,65,68
201370,note_on,,,,,4,0,1,,,0,,,77,64
201472,note_on,,,,,102,0,1,,,0,,,70,74
201492,note_off,,,,,20,0,1,,,0,,,65,64
201500,note_off,,,,,8,0,1,,,0,,,77,64
201504,note_off,,,,,4,0,1,,,0,,,73,64
201510,note_off,,,,,6,0,1,,,0,,,70,64
201600,set_tempo,,,,,240,1,0,491803,,,,,,
201604,note_on,,,,,94,0,1,,,0,,,80,98
201604,note_on,,,,,0,0,1,,,0,,,89,77
201608,note_on,,,,,4,0,1,,,0,,,77,90
201612,note_on,,,,,4,0,1,,,0,,,92,77
201708,note_off,,,,,96,0,1,,,0,,,80,64
201718,note_off,,,,,10,0,1,,,0,,,77,64
201722,note_off,,,,,4,0,1,,,0,,,92,64
201728,note_on,,,,,6,0,1,,,0,,,82,70
201740,note_on,,,,,12,0,1,,,0,,,85,71
201744,note_off,,,,,4,0,1,,,0,,,89,64
201754,note_off,,,,,10,0,1,,,0,,,85,64
201772,note_off,,,,,18,0,1,,,0,,,82,64
201832,note_on,,,,,60,0,1,,,0,,,65,69
201840,set_tempo,,,,,240,1,0,495868,,,,,,
201926,note_on,,,,,94,0,1,,,0,,,70,74
202022,note_on,,,,,96,0,1,,,0,,,39,74
202052,control_change,,,,,30,0,1,,,0,64,0,,
202064,note_off,,,,,12,0,1,,,0,,,65,64
202076,set_tempo,,,,,236,1,0,500000,,,,,,
202084,note_off,,,,,20,0,1,,,0,,,70,64
202100,set_tempo,,,,,24,1,0,504202,,,,,,
202124,control_change,,,,,40,0,1,,,0,64,127,,
202130,note_on,,,,,6,0,1,,,0,,,54,76
202164,set_tempo,,,,,64,1,0,508475,,,,,,
202168,note_off,,,,,38,0,1,,,0,,,39,64
202176,note_off,,,,,8,0,1,,,0,,,54,64
202232,set_tempo,,,,,68,1,0,512821,,,,,,
202234,note_on,,,,,58,0,1,,,0,,,78,72
202236,note_on,,,,,2,0,1,,,0,,,75,74
202300,set_tempo,,,,,68,1,0,517241,,,,,,
202338,note_off,,,,,102,0,1,,,0,,,78,64
202350,note_on,,,,,12,0,1,,,0,,,77,66
202356,note_on,,,,,6,0,1,,,0,,,73,74
202364,set_tempo,,,,,64,1,0,521739,,,,,,
202378,note_off,,,,,22,0,1,,,0,,,75,64
202432,set_tempo,,,,,68,1,0,526316,,,,,,
202458,note_on,,,,,80,0,1,,,0,,,90,63
202460,note_on,,,,,2,0,1,,,0,,,87,72
202470,note_on,,,,,10,0,1,,,0,,,75,71
202474,note_on,,,,,4,0,1,,,0,,,78,83
202480,note_off,,,,,6,0,1,,,0,,,73,64
202500,set_tempo,,,,,68,1,0,530973,,,,,,
202508,note_off,,,,,28,0,1,,,0,,,77,64
202540,note_off,,,,,32,0,1,,,0,,,90,64
202564,set_tempo,,,,,64,1,0,535714,,,,,,
202566,note_on,,,,,26,0,1,,,0,,,83,64
202572,note_off,,,,,6,0,1,,,0,,,87,64
202572,set_tempo,,,,,8,1,0,526316,,,,,,
202576,set_tempo,,,,,4,1,0,521739,,,,,,
202580,set_tempo,,,,,4,1,0,517241,,,,,,
202584,note_off,,,,,12,0,1,,,0,,,83,64
202584,set_tempo,,,,,4,1,0,512821,,,,,,
202588,set_tempo,,,,,4,1,0,508475,,,,,,
202590,note_on,,,,,6,0,1,,,0,,,77,81
202592,set_tempo,,,,,4,1,0,504202,,,,,,
202596,set_tempo,,,,,4,1,0,500000,,,,,,
202598,note_on,,,,,8,0,1,,,0,,,73,74
202600,set_tempo,,,,,4,1,0,495868,,,,,,
202604,set_tempo,,,,,4,1,0,491803,,,,,,
202608,set_tempo,,,,,4,1,0,487805,,,,,,
202612,set_tempo,,,,,4,1,0,483871,,,,,,
202616,set_tempo,,,,,4,1,0,480000,,,,,,
202618,note_off,,,,,20,0,1,,,0,,,78,64
202620,note_off,,,,,2,0,1,,,0,,,75,64
202620,set_tempo,,,,,4,1,0,476190,,,,,,
202624,set_tempo,,,,,4,1,0,472441,,,,,,
202628,set_tempo,,,,,4,1,0,468750,,,,,,
202632,set_tempo,,,,,4,1,0,465116,,,,,,
202636,set_tempo,,,,,4,1,0,461538,,,,,,
202640,set_tempo,,,,,4,1,0,458015,,,,,,
202648,note_off,,,,,28,0,1,,,0,,,73,64
202654,note_off,,,,,6,0,1,,,0,,,77,64
202680,note_on,,,,,26,0,1,,,0,,,63,71
202736,note_off,,,,,56,0,1,,,0,,,63,64
202744,note_on,,,,,8,0,1,,,0,,,71,66
202748,note_on,,,,,4,0,1,,,0,,,75,68
202776,set_tempo,,,,,136,1,0,461538,,,,,,
202806,note_on,,,,,58,0,1,,,0,,,66,68
202818,note_off,,,,,12,0,1,,,0,,,75,64
202832,note_off,,,,,14,0,1,,,0,,,71,64
202856,note_off,,,,,24,0,1,,,0,,,66,64
202908,set_tempo,,,,,132,1,0,465116,,,,,,
202926,note_on,,,,,70,0,1,,,0,,,41,77
202932,note_on,,,,,6,0,1,,,0,,,71,79
202932,note_on,,,,,0,0,1,,,0,,,75,84
202960,control_change,,,,,28,0,1,,,0,64,0,,
203028,note_off,,,,,68,0,1,,,0,,,75,64
203030,control_change,,,,,2,0,1,,,0,64,127,,
203040,set_tempo,,,,,132,1,0,468750,,,,,,
203046,note_on,,,,,16,0,1,,,0,,,53,65
203060,note_off,,,,,14,0,1,,,0,,,71,64
203076,note_off,,,,,16,0,1,,,0,,,41,64
203080,note_off,,,,,4,0,1,,,0,,,53,64
203140,note_on,,,,,60,0,1,,,0,,,70,66
203142,note_on,,,,,2,0,1,,,0,,,73,75
203144,note_on,,,,,2,0,1,,,0,,,61,77
203260,note_on,,,,,116,0,1,,,0,,,65,74
203276,note_off,,,,,16,0,1,,,0,,,61,64
203278,note_off,,,,,2,0,1,,,0,,,73,64
203280,note_off,,,,,2,0,1,,,0,,,70,64
203340,note_off,,,,,60,0,1,,,0,,,65,64
203364,note_on,,,,,24,0,1,,,0,,,82,65
203364,note_on,,,,,0,0,1,,,0,,,85,74
203368,note_on,,,,,4,0,1,,,0,,,69,77
203370,note_on,,,,,2,0,1,,,0,,,72,71
203376,note_on,,,,,6,0,1,,,0,,,65,16
203396,note_off,,,,,20,0,1,,,0,,,65,64
203444,note_off,,,,,48,0,1,,,0,,,72,64
203446,note_off,,,,,2,0,1,,,0,,,69,64
203466,note_off,,,,,20,0,1,,,0,,,85,64
203472,note_on,,,,,6,0,1,,,0,,,77,77
203496,note_off,,,,,24,0,1,,,0,,,82,64
203502,note_off,,,,,6,0,1,,,0,,,77,64
203580,note_on,,,,,78,0,1,,,0,,,73,74
203582,note_on,,,,,2,0,1,,,0,,,61,74
203584,note_on,,,,,2,0,1,,,0,,,70,70
203696,note_on,,,,,112,0,1,,,0,,,65,70
203708,note_off,,,,,12,0,1,,,0,,,61,64
203720,note_off,,,,,12,0,1,,,0,,,70,64
203724,note_off,,,,,4,0,1,,,0,,,65,64
203734,note_on,,,,,10,0,1,,,0,,,41,71
203736,note_off,,,,,2,0,1,,,0,,,73,64
203788,note_on,,,,,52,0,1,,,0,,,63,77
203812,note_on,,,,,24,0,1,,,0,,,69,70
203846,note_on,,,,,34,0,1,,,0,,,77,91
203890,control_change,,,,,44,0,1,,,0,64,0,,
203944,note_off,,,,,54,0,1,,,0,,,63,64
203952,control_change,,,,,8,0,1,,,0,64,127,,
203956,note_on,,,,,0,0,1,,,0,,,51,84
203956,note_off,,,,,4,0,1,,,0,,,77,64
203960,note_off,,,,,4,0,1,,,0,,,69,64
203984,note_off,,,,,24,0,1,,,0,,,41,64
204048,note_off,,,,,64,0,1,,,0,,,51,64
204068,note_on,,,,,20,0,1,,,0,,,57,73
204076,note_on,,,,,8,0,1,,,0,,,72,88
204076,note_on,,,,,0,0,1,,,0,,,63,79
204078,note_on,,,,,2,0,1,,,0,,,69,82
204098,note_off,,,,,20,0,1,,,0,,,57,64
204152,note_off,,,,,54,0,1,,,0,,,63,64
204164,note_off,,,,,12,0,1,,,0,,,69,64
204192,note_on,,,,,28,0,1,,,0,,,63,81
204216,note_off,,,,,24,0,1,,,0,,,72,64
204220,note_off,,,,,4,0,1,,,0,,,63,64
204330,note_on,,,,,110,0,1,,,0,,,75,95
204332,note_on,,,,,2,0,1,,,0,,,66,75
204332,note_on,,,,,0,0,1,,,0,,,69,76
204482,note_on,,,,,150,0,1,,,0,,,77,78
204654,note_on,,,,,172,0,1,,,0,,,81,77
204674,note_off,,,,,20,0,1,,,0,,,77,64
204864,note_on,,,,,190,0,1,,,0,,,89,84
204908,note_off,,,,,44,0,1,,,0,,,89,64
204922,note_off,,,,,14,0,1,,,0,,,81,64
205056,note_off,,,,,134,0,1,,,0,,,66,64
205154,note_off,,,,,98,0,1,,,0,,,69,64
205544,note_on,,,,,390,0,1,,,0,,,73,74
205548,note_off,,,,,4,0,1,,,0,,,75,64
205550,note_on,,,,,2,0,1,,,0,,,65,69
205652,control_change,,,,,102,0,1,,,0,64,0,,
205674,note_on,,,,,22,0,1,,,0,,,34,72
205712,note_off,,,,,38,0,1,,,0,,,73,64
205716,control_change,,,,,4,0,1,,,0,64,127,,
205718,note_off,,,,,2,0,1,,,0,,,65,64
205730,note_off,,,,,12,0,1,,,0,,,34,64
205850,note_on,,,,,120,0,1,,,0,,,53,73
205894,note_off,,,,,44,0,1,,,0,,,53,64
205956,note_on,,,,,62,0,1,,,0,,,65,57
205958,note_on,,,,,2,0,1,,,0,,,62,53
206048,note_on,,,,,90,0,1,,,0,,,70,63
206096,note_off,,,,,48,0,1,,,0,,,65,64
206108,note_off,,,,,12,0,1,,,0,,,62,64
206136,note_on,,,,,28,0,1,,,0,,,53,77
206168,note_off,,,,,32,0,1,,,0,,,70,64
206174,control_change,,,,,6,0,1,,,0,64,0,,
206208,control_change,,,,,34,0,1,,,0,64,127,,
206212,note_on,,,,,4,0,1,,,0,,,58,68
206252,note_off,,,,,40,0,1,,,0,,,53,64
206256,note_off,,,,,4,0,1,,,0,,,58,64
206272,set_tempo,,,,,3232,1,0,476190,,,,,,
206276,set_tempo,,,,,4,1,0,487805,,,,,,
206280,set_tempo,,,,,4,1,0,500000,,,,,,
206296,note_on,,,,,40,0,1,,,0,,,62,49
206300,note_on,,,,,4,0,1,,,0,,,65,69
206354,note_off,,,,,54,0,1,,,0,,,62,64
206386,note_on,,,,,32,0,1,,,0,,,70,70
206400,note_off,,,,,14,0,1,,,0,,,65,64
206428,note_off,,,,,28,0,1,,,0,,,70,64
206476,note_on,,,,,48,0,1,,,0,,,65,74
206558,note_on,,,,,82,0,1,,,0,,,70,69
206580,note_off,,,,,22,0,1,,,0,,,65,64
206600,note_off,,,,,20,0,1,,,0,,,70,64
206642,note_on,,,,,42,0,1,,,0,,,77,71
206646,note_on,,,,,4,0,1,,,0,,,74,53
206712,note_off,,,,,66,0,1,,,0,,,74,64
206724,note_on,,,,,12,0,1,,,0,,,82,75
206732,note_off,,,,,8,0,1,,,0,,,77,64
206764,note_off,,,,,32,0,1,,,0,,,82,64
206814,note_on,,,,,50,0,1,,,0,,,77,67
206898,note_on,,,,,84,0,1,,,0,,,82,69
206932,note_off,,,,,34,0,1,,,0,,,82,64
206946,note_off,,,,,14,0,1,,,0,,,77,64
206986,note_on,,,,,40,0,1,,,0,,,89,66
206988,note_on,,,,,2,0,1,,,0,,,86,55
207068,note_on,,,,,80,0,1,,,0,,,94,79
207084,note_off,,,,,16,0,1,,,0,,,86,64
207090,note_off,,,,,6,0,1,,,0,,,89,64
207102,note_off,,,,,12,0,1,,,0,,,94,64
207160,note_on,,,,,58,0,1,,,0,,,65,67
207240,note_on,,,,,80,0,1,,,0,,,70,70
207278,note_off,,,,,38,0,1,,,0,,,70,64
207286,note_off,,,,,8,0,1,,,0,,,65,64
207332,note_on,,,,,46,0,1,,,0,,,77,66
207338,note_on,,,,,6,0,1,,,0,,,74,40
207416,note_on,,,,,78,0,1,,,0,,,82,74
207416,set_tempo,,,,,1136,1,0,504202,,,,,,
207436,note_off,,,,,20,0,1,,,0,,,77,64
207452,note_off,,,,,16,0,1,,,0,,,74,64
207466,note_off,,,,,14,0,1,,,0,,,82,64
207508,note_on,,,,,42,0,1,,,0,,,53,78
207584,note_on,,,,,76,0,1,,,0,,,58,62
207630,note_off,,,,,46,0,1,,,0,,,58,64
207632,note_off,,,,,2,0,1,,,0,,,53,64
207688,note_on,,,,,56,0,1,,,0,,,65,71
207690,note_on,,,,,2,0,1,,,0,,,62,61
207740,note_off,,,,,50,0,1,,,0,,,62,64
207780,note_on,,,,,40,0,1,,,0,,,70,70
207802,note_off,,,,,22,0,1,,,0,,,65,64
207872,note_on,,,,,70,0,1,,,0,,,46,79
207940,note_off,,,,,68,0,1,,,0,,,70,64
207964,note_on,,,,,24,0,1,,,0,,,58,72
207976,note_on,,,,,12,0,1,,,0,,,53,76
208004,note_off,,,,,28,0,1,,,0,,,58,64
208020,note_off,,,,,16,0,1,,,0,,,53,64
208040,note_off,,,,,20,0,1,,,0,,,46,64
208072,note_on,,,,,0,0,1,,,0,,,62,55
208072,note_on,,,,,32,0,1,,,0,,,65,69
208156,note_on,,,,,84,0,1,,,0,,,70,75
208170,note_off,,,,,14,0,1,,,0,,,62,64
208172,note_off,,,,,2,0,1,,,0,,,65,64
208202,note_off,,,,,30,0,1,,,0,,,70,64
208234,note_on,,,,,32,0,1,,,0,,,41,75
208270,control_change,,,,,36,0,1,,,0,64,0,,
208278,control_change,,,,,8,0,1,,,0,64,127,,
208288,note_on,,,,,10,0,1,,,0,,,87,92
208290,note_on,,,,,2,0,1,,,0,,,75,87
208296,note_off,,,,,6,0,1,,,0,,,41,64
208322,note_off,,,,,26,0,1,,,0,,,75,64
208326,note_off,,,,,4,0,1,,,0,,,87,64
208392,note_on,,,,,66,0,1,,,0,,,58,74
208396,note_on,,,,,4,0,1,,,0,,,53,63
208432,note_off,,,,,36,0,1,,,0,,,58,64
208446,note_off,,,,,14,0,1,,,0,,,53,64
208504,note_on,,,,,58,0,1,,,0,,,65,67
208506,note_on,,,,,2,0,1,,,0,,,62,59
208552,note_off,,,,,46,0,1,,,0,,,62,64
208572,note_on,,,,,20,0,1,,,0,,,70,81
208574,note_off,,,,,2,0,1,,,0,,,65,64
208602,note_off,,,,,28,0,1,,,0,,,70,64
208664,note_on,,,,,62,0,1,,,0,,,86,90
208668,note_on,,,,,4,0,1,,,0,,,74,72
208688,note_off,,,,,20,0,1,,,0,,,74,64
208696,note_off,,,,,8,0,1,,,0,,,86,64
208742,note_on,,,,,46,0,1,,,0,,,34,71
208798,control_change,,,,,56,0,1,,,0,64,0,,
208812,note_on,,,,,14,0,1,,,0,,,86,87
208816,note_on,,,,,4,0,1,,,0,,,74,81
208834,control_change,,,,,18,0,1,,,0,64,127,,
208852,note_off,,,,,18,0,1,,,0,,,34,64
208904,note_off,,,,,52,0,1,,,0,,,86,64
208924,note_off,,,,,20,0,1,,,0,,,74,64
208976,note_on,,,,,52,0,1,,,0,,,55,71
208978,note_on,,,,,2,0,1,,,0,,,62,61
209008,note_off,,,,,30,0,1,,,0,,,55,64
209012,note_off,,,,,4,0,1,,,0,,,62,64
209070,note_on,,,,,58,0,1,,,0,,,64,62
209136,note_off,,,,,66,0,1,,,0,,,64,64
209136,note_on,,,,,0,0,1,,,0,,,67,58
209160,note_on,,,,,24,0,1,,,0,,,73,58
209168,note_off,,,,,8,0,1,,,0,,,67,64
209192,note_off,,,,,24,0,1,,,0,,,73,64
209242,note_on,,,,,50,0,1,,,0,,,52,72
209262,note_on,,,,,20,0,1,,,0,,,85,96
209268,note_on,,,,,6,0,1,,,0,,,73,57
209296,control_change,,,,,0,0,1,,,0,64,0,,
209296,note_off,,,,,28,0,1,,,0,,,85,64
209296,note_off,,,,,0,0,1,,,0,,,73,64
209304,control_change,,,,,8,0,1,,,0,64,127,,
209358,note_on,,,,,54,0,1,,,0,,,61,78
209360,note_on,,,,,2,0,1,,,0,,,55,63
209392,note_off,,,,,32,0,1,,,0,,,52,64
209396,note_off,,,,,4,0,1,,,0,,,61,64
209406,note_off,,,,,10,0,1,,,0,,,55,64
209438,note_on,,,,,32,0,1,,,0,,,64,69
209476,note_off,,,,,38,0,1,,,0,,,64,64
209490,note_on,,,,,14,0,1,,,0,,,67,51
209512,note_on,,,,,22,0,1,,,0,,,73,58
209532,note_off,,,,,20,0,1,,,0,,,67,64
209544,note_off,,,,,12,0,1,,,0,,,73,64
209584,note_on,,,,,40,0,1,,,0,,,46,79
209612,note_on,,,,,28,0,1,,,0,,,85,88
209622,control_change,,,,,10,0,1,,,0,64,0,,
209624,note_on,,,,,2,0,1,,,0,,,73,69
209638,note_off,,,,,14,0,1,,,0,,,85,64
209640,control_change,,,,,2,0,1,,,0,64,127,,
209646,note_off,,,,,6,0,1,,,0,,,73,64
209670,note_off,,,,,24,0,1,,,0,,,46,64
209696,note_on,,,,,26,0,1,,,0,,,55,75
209720,note_on,,,,,24,0,1,,,0,,,61,72
209736,note_off,,,,,16,0,1,,,0,,,55,64
209750,note_off,,,,,14,0,1,,,0,,,61,64
209778,note_on,,,,,28,0,1,,,0,,,64,77
209844,note_on,,,,,0,0,1,,,0,,,67,36
209844,note_off,,,,,66,0,1,,,0,,,64,64
209856,note_on,,,,,12,0,1,,,0,,,73,72
209860,note_off,,,,,4,0,1,,,0,,,67,64
209906,note_off,,,,,46,0,1,,,0,,,73,64
209928,note_on,,,,,22,0,1,,,0,,,40,74
209940,note_on,,,,,12,0,1,,,0,,,73,62
209942,note_on,,,,,2,0,1,,,0,,,85,95
209942,control_change,,,,,0,0,1,,,0,64,0,,
209962,note_off,,,,,20,0,1,,,0,,,40,64
209964,control_change,,,,,2,0,1,,,0,64,127,,
209966,note_off,,,,,2,0,1,,,0,,,85,64
209970,note_off,,,,,4,0,1,,,0,,,73,64
210036,note_on,,,,,66,0,1,,,0,,,61,71
210036,note_on,,,,,0,0,1,,,0,,,55,70
210072,note_off,,,,,36,0,1,,,0,,,55,64
210074,note_off,,,,,2,0,1,,,0,,,61,64
210108,note_on,,,,,34,0,1,,,0,,,64,75
210164,note_on,,,,,56,0,1,,,0,,,67,51
210174,note_off,,,,,10,0,1,,,0,,,64,64
210184,note_on,,,,,10,0,1,,,0,,,73,69
210200,note_off,,,,,16,0,1,,,0,,,67,64
210232,note_off,,,,,32,0,1,,,0,,,73,64
210278,note_on,,,,,46,0,1,,,0,,,34,81
210304,control_change,,,,,26,0,1,,,0,64,0,,
210312,note_on,,,,,8,0,1,,,0,,,79,91
210314,note_on,,,,,2,0,1,,,0,,,91,92
210328,note_off,,,,,14,0,1,,,0,,,34,64
210334,control_change,,,,,6,0,1,,,0,64,127,,
210340,note_off,,,,,6,0,1,,,0,,,79,64
210352,note_off,,,,,12,0,1,,,0,,,91,64
210450,note_on,,,,,98,0,1,,,0,,,62,64
210452,note_on,,,,,2,0,1,,,0,,,67,53
210508,note_on,,,,,56,0,1,,,0,,,70,65
210560,note_off,,,,,52,0,1,,,0,,,67,64
210568,note_off,,,,,8,0,1,,,0,,,70,64
210580,note_on,,,,,12,0,1,,,0,,,74,51
210590,note_on,,,,,10,0,1,,,0,,,77,66
210596,note_off,,,,,6,0,1,,,0,,,74,64
210614,note_off,,,,,18,0,1,,,0,,,62,64
210622,note_off,,,,,8,0,1,,,0,,,77,64
210660,note_on,,,,,38,0,1,,,0,,,53,52
210672,note_on,,,,,12,0,1,,,0,,,89,78
210678,note_on,,,,,6,0,1,,,0,,,77,66
210692,note_off,,,,,14,0,1,,,0,,,89,64
210700,note_off,,,,,8,0,1,,,0,,,77,64
210752,note_on,,,,,52,0,1,,,0,,,65,65
210756,note_on,,,,,4,0,1,,,0,,,62,64
210790,note_off,,,,,34,0,1,,,0,,,65,64
210804,note_off,,,,,14,0,1,,,0,,,62,64
210818,note_off,,,,,14,0,1,,,0,,,53,64
210838,note_on,,,,,20,0,1,,,0,,,70,57
210896,note_off,,,,,58,0,1,,,0,,,70,64
210904,note_on,,,,,8,0,1,,,0,,,77,68
210906,note_on,,,,,2,0,1,,,0,,,74,53
210990,note_off,,,,,84,0,1,,,0,,,74,64
211008,note_on,,,,,18,0,1,,,0,,,46,77
211030,note_off,,,,,22,0,1,,,0,,,77,64
211034,control_change,,,,,4,0,1,,,0,64,0,,
211042,control_change,,,,,8,0,1,,,0,64,127,,
211048,note_off,,,,,6,0,1,,,0,,,46,64
211092,note_on,,,,,44,0,1,,,0,,,62,65
211100,note_on,,,,,8,0,1,,,0,,,58,77
211122,note_off,,,,,22,0,1,,,0,,,62,64
211132,note_off,,,,,10,0,1,,,0,,,58,64
211166,note_on,,,,,34,0,1,,,0,,,65,58
211222,note_off,,,,,56,0,1,,,0,,,65,64
211242,note_on,,,,,20,0,1,,,0,,,70,65
211244,note_on,,,,,2,0,1,,,0,,,77,63
211276,note_off,,,,,32,0,1,,,0,,,70,64
211280,note_off,,,,,4,0,1,,,0,,,77,64
211342,note_on,,,,,62,0,1,,,0,,,41,77
211362,control_change,,,,,20,0,1,,,0,64,0,,
211364,note_on,,,,,0,0,1,,,0,,,75,76
211364,note_on,,,,,2,0,1,,,0,,,87,88
211372,note_off,,,,,8,0,1,,,0,,,41,64
211374,control_change,,,,,2,0,1,,,0,64,127,,
211390,note_off,,,,,16,0,1,,,0,,,87,64
211396,note_off,,,,,6,0,1,,,0,,,75,64
211450,note_on,,,,,54,0,1,,,0,,,62,71
211452,note_on,,,,,2,0,1,,,0,,,58,77
211474,note_off,,,,,22,0,1,,,0,,,62,64
211484,note_off,,,,,10,0,1,,,0,,,58,64
211512,note_on,,,,,28,0,1,,,0,,,65,63
211570,note_off,,,,,58,0,1,,,0,,,65,64
211570,note_on,,,,,0,0,1,,,0,,,70,65
211588,note_on,,,,,18,0,1,,,0,,,74,64
211592,note_off,,,,,4,0,1,,,0,,,70,64
211604,note_off,,,,,12,0,1,,,0,,,74,64
211652,note_on,,,,,48,0,1,,,0,,,74,67
211656,note_on,,,,,4,0,1,,,0,,,86,83
211678,note_off,,,,,22,0,1,,,0,,,74,64
211688,note_off,,,,,10,0,1,,,0,,,86,64
211716,note_on,,,,,28,0,1,,,0,,,34,76
211748,control_change,,,,,32,0,1,,,0,64,0,,
211768,note_on,,,,,20,0,1,,,0,,,74,82
211770,note_on,,,,,2,0,1,,,0,,,86,85
211774,control_change,,,,,4,0,1,,,0,64,127,,
211788,note_off,,,,,14,0,1,,,0,,,34,64
211820,note_off,,,,,32,0,1,,,0,,,86,64
211840,note_off,,,,,20,0,1,,,0,,,74,64
211896,note_on,,,,,56,0,1,,,0,,,62,68
211898,note_on,,,,,2,0,1,,,0,,,55,69
211910,note_off,,,,,12,0,1,,,0,,,62,64
211926,note_off,,,,,16,0,1,,,0,,,55,64
211974,note_on,,,,,48,0,1,,,0,,,64,63
212016,note_off,,,,,42,0,1,,,0,,,64,64
212034,note_on,,,,,18,0,1,,,0,,,67,54
212048,note_on,,,,,14,0,1,,,0,,,74,58
212052,note_off,,,,,4,0,1,,,0,,,67,64
212096,note_off,,,,,44,0,1,,,0,,,74,64
212138,note_on,,,,,42,0,1,,,0,,,52,66
212144,note_on,,,,,6,0,1,,,0,,,72,67
212146,note_on,,,,,2,0,1,,,0,,,84,78
212170,note_off,,,,,24,0,1,,,0,,,72,64
212172,note_off,,,,,2,0,1,,,0,,,84,64
212186,control_change,,,,,14,0,1,,,0,64,0,,
212190,control_change,,,,,4,0,1,,,0,64,127,,
212232,note_on,,,,,42,0,1,,,0,,,60,63
212234,note_on,,,,,2,0,1,,,0,,,55,55
212264,note_off,,,,,30,0,1,,,0,,,60,64
212270,note_off,,,,,6,0,1,,,0,,,52,64
212276,note_off,,,,,6,0,1,,,0,,,55,64
212306,note_on,,,,,30,0,1,,,0,,,64,74
212354,note_off,,,,,48,0,1,,,0,,,64,64
212368,note_on,,,,,14,0,1,,,0,,,67,58
212374,note_on,,,,,6,0,1,,,0,,,72,73
212396,note_off,,,,,22,0,1,,,0,,,67,64
212422,note_off,,,,,26,0,1,,,0,,,72,64
212470,note_on,,,,,48,0,1,,,0,,,46,81
212482,note_on,,,,,12,0,1,,,0,,,86,77
212484,note_on,,,,,2,0,1,,,0,,,74,65
212496,control_change,,,,,12,0,1,,,0,64,0,,
212510,control_change,,,,,0,0,1,,,0,64,127,,
212510,note_off,,,,,14,0,1,,,0,,,86,64
212516,note_off,,,,,6,0,1,,,0,,,74,64
212564,note_off,,,,,48,0,1,,,0,,,46,64
212580,note_on,,,,,16,0,1,,,0,,,62,77
212584,note_on,,,,,0,0,1,,,0,,,57,71
212584,note_on,,,,,4,0,1,,,0,,,54,71
212598,note_off,,,,,14,0,1,,,0,,,57,64
212600,note_off,,,,,2,0,1,,,0,,,62,64
212606,note_off,,,,,6,0,1,,,0,,,54,64
212650,note_on,,,,,44,0,1,,,0,,,63,79
212706,note_off,,,,,56,0,1,,,0,,,63,64
212722,note_on,,,,,16,0,1,,,0,,,74,73
212726,note_on,,,,,4,0,1,,,0,,,66,74
212752,note_off,,,,,26,0,1,,,0,,,66,64
212766,note_off,,,,,14,0,1,,,0,,,74,64
212816,note_on,,,,,50,0,1,,,0,,,42,67
212826,control_change,,,,,10,0,1,,,0,64,0,,
212840,note_on,,,,,14,0,1,,,0,,,75,80
212842,note_on,,,,,2,0,1,,,0,,,87,91
212850,control_change,,,,,8,0,1,,,0,64,127,,
212868,note_off,,,,,18,0,1,,,0,,,87,64
212868,note_off,,,,,0,0,1,,,0,,,75,64
212926,note_off,,,,,58,0,1,,,0,,,42,64
212936,note_on,,,,,10,0,1,,,0,,,54,71
212936,note_on,,,,,0,0,1,,,0,,,63,74
212938,note_on,,,,,2,0,1,,,0,,,57,62
212958,note_off,,,,,20,0,1,,,0,,,54,64
212960,note_off,,,,,2,0,1,,,0,,,57,64
212970,note_off,,,,,10,0,1,,,0,,,63,64
213010,note_on,,,,,40,0,1,,,0,,,63,72
213052,note_off,,,,,42,0,1,,,0,,,63,64
213074,note_on,,,,,22,0,1,,,0,,,75,74
213078,note_on,,,,,4,0,1,,,0,,,66,62
213092,note_off,,,,,14,0,1,,,0,,,66,64
213094,note_off,,,,,2,0,1,,,0,,,75,64
213140,note_on,,,,,46,0,1,,,0,,,69,77
213146,note_on,,,,,6,0,1,,,0,,,81,80
213166,note_off,,,,,20,0,1,,,0,,,69,64
213176,note_off,,,,,10,0,1,,,0,,,81,64
213212,note_on,,,,,36,0,1,,,0,,,34,65
213258,control_change,,,,,46,0,1,,,0,64,0,,
213272,note_on,,,,,14,0,1,,,0,,,72,79
213274,note_on,,,,,2,0,1,,,0,,,84,77
213284,note_off,,,,,10,0,1,,,0,,,34,64
213288,control_change,,,,,4,0,1,,,0,64,127,,
213324,note_off,,,,,36,0,1,,,0,,,84,64
213338,note_off,,,,,14,0,1,,,0,,,72,64
213388,note_on,,,,,50,0,1,,,0,,,53,60
213390,note_on,,,,,2,0,1,,,0,,,60,55
213448,note_on,,,,,58,0,1,,,0,,,62,65
213496,note_off,,,,,48,0,1,,,0,,,62,64
213520,note_off,,,,,24,0,1,,,0,,,60,64
213522,note_on,,,,,2,0,1,,,0,,,65,62
213532,note_on,,,,,10,0,1,,,0,,,72,66
213544,note_off,,,,,12,0,1,,,0,,,65,64
213570,note_off,,,,,26,0,1,,,0,,,72,64
213576,note_off,,,,,6,0,1,,,0,,,53,64
213610,note_on,,,,,34,0,1,,,0,,,50,51
213636,note_on,,,,,26,0,1,,,0,,,82,70
213638,note_on,,,,,2,0,1,,,0,,,70,62
213666,note_off,,,,,28,0,1,,,0,,,82,64
213672,control_change,,,,,6,0,1,,,0,64,0,,
213676,note_off,,,,,4,0,1,,,0,,,70,64
213690,control_change,,,,,14,0,1,,,0,64,127,,
213708,note_on,,,,,18,0,1,,,0,,,58,70
213708,note_on,,,,,0,0,1,,,0,,,53,74
213790,note_on,,,,,82,0,1,,,0,,,62,63
213804,note_off,,,,,14,0,1,,,0,,,50,64
213808,note_off,,,,,4,0,1,,,0,,,58,64
213810,note_off,,,,,2,0,1,,,0,,,53,64
213872,note_on,,,,,62,0,1,,,0,,,70,65
213874,note_on,,,,,2,0,1,,,0,,,65,71
213966,note_on,,,,,92,0,1,,,0,,,46,75
213992,control_change,,,,,26,0,1,,,0,64,0,,
214060,control_change,,,,,68,0,1,,,0,64,127,,
214062,note_on,,,,,2,0,1,,,0,,,58,66
214066,note_off,,,,,4,0,1,,,0,,,62,64
214070,note_on,,,,,4,0,1,,,0,,,53,74
214072,note_off,,,,,2,0,1,,,0,,,65,64
214100,note_off,,,,,28,0,1,,,0,,,70,64
214114,note_off,,,,,14,0,1,,,0,,,58,64
214120,note_off,,,,,6,0,1,,,0,,,53,64
214148,note_off,,,,,28,0,1,,,0,,,46,64
214152,note_on,,,,,4,0,1,,,0,,,62,74
214226,note_on,,,,,74,0,1,,,0,,,70,75
214232,note_on,,,,,0,0,1,,,0,,,65,55
214232,note_off,,,,,6,0,1,,,0,,,62,64
214244,note_off,,,,,12,0,1,,,0,,,65,64
214274,note_off,,,,,30,0,1,,,0,,,70,64
214300,note_on,,,,,26,0,1,,,0,,,41,77
214326,control_change,,,,,26,0,1,,,0,64,0,,
214346,note_on,,,,,20,0,1,,,0,,,75,92
214348,note_off,,,,,2,0,1,,,0,,,41,64
214352,control_change,,,,,4,0,1,,,0,64,127,,
214354,note_on,,,,,2,0,1,,,0,,,87,92
214366,note_off,,,,,12,0,1,,,0,,,87,64
214370,note_off,,,,,4,0,1,,,0,,,75,64
214434,note_on,,,,,64,0,1,,,0,,,58,79
214440,note_on,,,,,6,0,1,,,0,,,53,70
214470,note_off,,,,,30,0,1,,,0,,,58,64
214480,note_off,,,,,10,0,1,,,0,,,53,64
214510,note_on,,,,,30,0,1,,,0,,,62,69
214560,note_off,,,,,50,0,1,,,0,,,62,64
214576,note_on,,,,,0,0,1,,,0,,,70,76
214576,note_on,,,,,16,0,1,,,0,,,65,76
214604,note_off,,,,,0,0,1,,,0,,,65,64
214604,note_off,,,,,28,0,1,,,0,,,70,64
214660,note_on,,,,,56,0,1,,,0,,,86,84
214664,note_on,,,,,4,0,1,,,0,,,74,67
214680,note_off,,,,,16,0,1,,,0,,,74,64
214690,note_off,,,,,10,0,1,,,0,,,86,64
214734,note_on,,,,,44,0,1,,,0,,,34,76
214758,control_change,,,,,24,0,1,,,0,64,0,,
214788,note_on,,,,,30,0,1,,,0,,,86,98
214790,note_on,,,,,2,0,1,,,0,,,74,98
214796,control_change,,,,,6,0,1,,,0,64,127,,
214810,note_off,,,,,14,0,1,,,0,,,34,64
214856,note_off,,,,,46,0,1,,,0,,,86,64
214876,note_off,,,,,20,0,1,,,0,,,74,64
214920,note_on,,,,,44,0,1,,,0,,,62,73
214922,note_on,,,,,2,0,1,,,0,,,55,73
214948,note_off,,,,,26,0,1,,,0,,,62,64
214952,note_off,,,,,4,0,1,,,0,,,55,64
215006,note_on,,,,,54,0,1,,,0,,,64,61
215060,note_off,,,,,54,0,1,,,0,,,64,64
215064,note_on,,,,,4,0,1,,,0,,,67,52
215084,note_on,,,,,20,0,1,,,0,,,74,63
215098,note_off,,,,,14,0,1,,,0,,,67,64
215126,note_off,,,,,28,0,1,,,0,,,74,64
215164,note_on,,,,,38,0,1,,,0,,,52,72
215180,note_on,,,,,16,0,1,,,0,,,73,63
215184,note_on,,,,,4,0,1,,,0,,,85,87
215194,control_change,,,,,10,0,1,,,0,64,0,,
215210,note_off,,,,,16,0,1,,,0,,,85,64
215212,note_off,,,,,2,0,1,,,0,,,73,64
215224,control_change,,,,,12,0,1,,,0,64,127,,
215272,note_on,,,,,48,0,1,,,0,,,61,71
215276,note_on,,,,,4,0,1,,,0,,,55,56
215306,note_off,,,,,30,0,1,,,0,,,52,64
215312,note_off,,,,,6,0,1,,,0,,,61,64
215320,note_off,,,,,8,0,1,,,0,,,55,64
215346,note_on,,,,,26,0,1,,,0,,,64,69
215406,note_on,,,,,60,0,1,,,0,,,67,60
215412,note_off,,,,,6,0,1,,,0,,,64,64
215416,note_on,,,,,4,0,1,,,0,,,73,76
215436,note_off,,,,,20,0,1,,,0,,,67,64
215464,note_off,,,,,28,0,1,,,0,,,73,64
215488,note_on,,,,,24,0,1,,,0,,,46,81
215510,note_on,,,,,22,0,1,,,0,,,85,93
215512,note_on,,,,,2,0,1,,,0,,,73,93
215516,control_change,,,,,4,0,1,,,0,64,0,,
215536,note_off,,,,,20,0,1,,,0,,,85,64
215542,control_change,,,,,6,0,1,,,0,64,127,,
215544,note_off,,,,,2,0,1,,,0,,,73,64
215596,note_on,,,,,52,0,1,,,0,,,55,71
215598,note_on,,,,,2,0,1,,,0,,,61,77
215620,note_off,,,,,22,0,1,,,0,,,46,64
215634,note_off,,,,,0,0,1,,,0,,,55,64
215634,note_off,,,,,14,0,1,,,0,,,61,64
215672,note_on,,,,,38,0,1,,,0,,,64,77
215732,note_on,,,,,60,0,1,,,0,,,67,51
215738,note_off,,,,,6,0,1,,,0,,,64,64
215740,note_on,,,,,2,0,1,,,0,,,73,75
215758,note_off,,,,,18,0,1,,,0,,,67,64
215788,note_off,,,,,30,0,1,,,0,,,73,64
215812,note_on,,,,,24,0,1,,,0,,,40,76
215830,control_change,,,,,18,0,1,,,0,64,0,,
215842,note_on,,,,,12,0,1,,,0,,,85,98
215846,note_off,,,,,4,0,1,,,0,,,40,64
215848,note_on,,,,,2,0,1,,,0,,,73,98
215854,control_change,,,,,6,0,1,,,0,64,127,,
215872,note_off,,,,,18,0,1,,,0,,,85,64
215880,note_off,,,,,8,0,1,,,0,,,73,64
215928,note_on,,,,,48,0,1,,,0,,,61,74
215932,note_on,,,,,4,0,1,,,0,,,55,64
215960,note_off,,,,,28,0,1,,,0,,,61,64
215966,note_off,,,,,6,0,1,,,0,,,55,64
216004,note_on,,,,,38,0,1,,,0,,,64,82
216062,note_off,,,,,58,0,1,,,0,,,64,64
216066,note_on,,,,,4,0,1,,,0,,,73,83
216068,note_on,,,,,2,0,1,,,0,,,67,51
216082,note_off,,,,,14,0,1,,,0,,,67,64
216106,note_off,,,,,24,0,1,,,0,,,73,64
216152,note_on,,,,,46,0,1,,,0,,,34,81
216178,control_change,,,,,26,0,1,,,0,64,0,,
216196,note_on,,,,,18,0,1,,,0,,,79,111
216198,note_on,,,,,2,0,1,,,0,,,91,111
216202,note_off,,,,,4,0,1,,,0,,,34,64
216208,control_change,,,,,6,0,1,,,0,64,127,,
216222,note_off,,,,,14,0,1,,,0,,,79,64
216228,note_off,,,,,6,0,1,,,0,,,91,64
216304,note_on,,,,,76,0,1,,,0,,,62,75
216308,note_on,,,,,4,0,1,,,0,,,67,60
216376,note_on,,,,,68,0,1,,,0,,,70,62
216432,note_off,,,,,56,0,1,,,0,,,70,64
216436,note_on,,,,,4,0,1,,,0,,,74,61
216438,note_on,,,,,2,0,1,,,0,,,77,74
216450,note_off,,,,,12,0,1,,,0,,,67,64
216452,note_off,,,,,2,0,1,,,0,,,74,64
216478,note_off,,,,,26,0,1,,,0,,,77,64
216484,note_off,,,,,6,0,1,,,0,,,62,64
216522,note_on,,,,,38,0,1,,,0,,,53,77
216534,note_on,,,,,12,0,1,,,0,,,89,79
216538,note_on,,,,,4,0,1,,,0,,,77,79
216560,note_off,,,,,22,0,1,,,0,,,77,64
216562,note_off,,,,,2,0,1,,,0,,,89,64
216610,note_on,,,,,48,0,1,,,0,,,62,69
216612,note_on,,,,,2,0,1,,,0,,,65,78
216648,note_off,,,,,36,0,1,,,0,,,65,64
216656,note_off,,,,,8,0,1,,,0,,,53,64
216658,note_off,,,,,2,0,1,,,0,,,62,64
216694,note_on,,,,,36,0,1,,,0,,,70,81
216760,note_off,,,,,66,0,1,,,0,,,70,64
216762,note_on,,,,,2,0,1,,,0,,,77,77
216762,note_on,,,,,0,0,1,,,0,,,74,68
216806,note_off,,,,,44,0,1,,,0,,,74,64
216856,note_on,,,,,50,0,1,,,0,,,50,77
216894,note_off,,,,,38,0,1,,,0,,,77,64
216896,note_off,,,,,2,0,1,,,0,,,50,64
216896,control_change,,,,,0,0,1,,,0,64,0,,
216900,control_change,,,,,4,0,1,,,0,64,127,,
216942,note_on,,,,,42,0,1,,,0,,,62,79
216946,note_on,,,,,4,0,1,,,0,,,65,63
216976,note_off,,,,,30,0,1,,,0,,,65,64
216980,note_off,,,,,4,0,1,,,0,,,62,64
217012,note_on,,,,,32,0,1,,,0,,,70,74
217064,note_off,,,,,52,0,1,,,0,,,70,64
217082,note_on,,,,,18,0,1,,,0,,,74,64
217084,note_on,,,,,2,0,1,,,0,,,77,73
217100,note_off,,,,,16,0,1,,,0,,,74,64
217124,note_off,,,,,24,0,1,,,0,,,77,64
217174,note_on,,,,,50,0,1,,,0,,,46,79
217202,note_on,,,,,28,0,1,,,0,,,79,87
217204,note_on,,,,,2,0,1,,,0,,,91,77
217212,note_off,,,,,8,0,1,,,0,,,46,64
217226,note_off,,,,,14,0,1,,,0,,,91,64
217228,note_off,,,,,2,0,1,,,0,,,79,64
217282,note_on,,,,,54,0,1,,,0,,,62,70
217288,note_on,,,,,6,0,1,,,0,,,58,82
217312,note_off,,,,,24,0,1,,,0,,,62,64
217320,note_off,,,,,8,0,1,,,0,,,58,64
217362,note_on,,,,,42,0,1,,,0,,,65,78
217402,note_off,,,,,40,0,1,,,0,,,65,64
217426,note_on,,,,,24,0,1,,,0,,,74,77
217426,note_on,,,,,0,0,1,,,0,,,70,58
217440,note_off,,,,,14,0,1,,,0,,,70,64
217452,note_off,,,,,12,0,1,,,0,,,74,64
217504,note_on,,,,,52,0,1,,,0,,,77,82
217506,note_on,,,,,2,0,1,,,0,,,89,84
217530,note_off,,,,,24,0,1,,,0,,,77,64
217532,note_off,,,,,2,0,1,,,0,,,89,64
217574,note_on,,,,,42,0,1,,,0,,,34,78
217582,note_on,,,,,8,0,1,,,0,,,46,71
217600,control_change,,,,,18,0,1,,,0,64,0,,
217632,note_on,,,,,32,0,1,,,0,,,89,97
217634,note_on,,,,,2,0,1,,,0,,,77,97
217640,control_change,,,,,6,0,1,,,0,64,127,,
217648,note_off,,,,,8,0,1,,,0,,,34,64
217662,note_off,,,,,14,0,1,,,0,,,46,64
217700,note_off,,,,,38,0,1,,,0,,,89,64
217718,note_off,,,,,18,0,1,,,0,,,77,64
217760,note_on,,,,,42,0,1,,,0,,,65,70
217762,note_on,,,,,2,0,1,,,0,,,61,80
217830,note_on,,,,,68,0,1,,,0,,,67,61
217856,note_off,,,,,26,0,1,,,0,,,65,64
217898,note_on,,,,,42,0,1,,,0,,,77,70
217908,note_on,,,,,10,0,1,,,0,,,73,66
217912,note_off,,,,,4,0,1,,,0,,,67,64
217942,note_off,,,,,30,0,1,,,0,,,73,64
217944,note_off,,,,,2,0,1,,,0,,,77,64
217948,note_off,,,,,4,0,1,,,0,,,61,64
217976,note_on,,,,,28,0,1,,,0,,,55,63
218004,note_on,,,,,28,0,1,,,0,,,76,71
218008,note_on,,,,,4,0,1,,,0,,,88,71
218032,note_off,,,,,24,0,1,,,0,,,76,64
218036,note_off,,,,,4,0,1,,,0,,,88,64
218080,note_on,,,,,44,0,1,,,0,,,64,75
218082,note_on,,,,,2,0,1,,,0,,,61,77
218116,note_off,,,,,34,0,1,,,0,,,64,64
218132,note_off,,,,,16,0,1,,,0,,,55,64
218134,note_off,,,,,2,0,1,,,0,,,61,64
218156,note_on,,,,,22,0,1,,,0,,,67,75
218208,note_off,,,,,52,0,1,,,0,,,67,64
218220,note_on,,,,,12,0,1,,,0,,,73,76
218224,note_on,,,,,4,0,1,,,0,,,76,72
218246,note_off,,,,,22,0,1,,,0,,,73,64
218266,note_off,,,,,20,0,1,,,0,,,76,64
218302,note_on,,,,,36,0,1,,,0,,,45,86
218324,control_change,,,,,22,0,1,,,0,64,0,,
218336,note_on,,,,,12,0,1,,,0,,,88,75
218336,note_on,,,,,0,0,1,,,0,,,76,75
218344,note_off,,,,,8,0,1,,,0,,,45,64
218352,control_change,,,,,8,0,1,,,0,64,127,,
218368,note_off,,,,,16,0,1,,,0,,,76,64
218374,note_off,,,,,6,0,1,,,0,,,88,64
218426,note_on,,,,,52,0,1,,,0,,,61,88
218428,note_on,,,,,2,0,1,,,0,,,64,77
218456,note_off,,,,,28,0,1,,,0,,,64,64
218460,note_off,,,,,4,0,1,,,0,,,61,64
218492,note_on,,,,,32,0,1,,,0,,,69,86
218546,note_off,,,,,54,0,1,,,0,,,69,64
218556,note_on,,,,,10,0,1,,,0,,,73,61
218560,note_on,,,,,4,0,1,,,0,,,76,64
218584,note_off,,,,,24,0,1,,,0,,,73,64
218600,note_off,,,,,16,0,1,,,0,,,76,64
218630,note_on,,,,,30,0,1,,,0,,,43,82
218664,control_change,,,,,34,0,1,,,0,64,0,,
218666,note_on,,,,,2,0,1,,,0,,,88,99
218666,note_on,,,,,0,0,1,,,0,,,76,99
218680,note_off,,,,,14,0,1,,,0,,,43,64
218688,control_change,,,,,8,0,1,,,0,64,127,,
218696,note_off,,,,,8,0,1,,,0,,,76,64
218702,note_off,,,,,6,0,1,,,0,,,88,64
218764,note_on,,,,,62,0,1,,,0,,,61,92
218766,note_on,,,,,2,0,1,,,0,,,64,78
218792,note_off,,,,,0,0,1,,,0,,,61,64
218792,note_off,,,,,26,0,1,,,0,,,64,64
218822,note_on,,,,,30,0,1,,,0,,,70,79
218884,note_off,,,,,62,0,1,,,0,,,70,64
218884,note_on,,,,,0,0,1,,,0,,,73,68
218888,note_on,,,,,4,0,1,,,0,,,76,69
218908,note_off,,,,,20,0,1,,,0,,,73,64
218920,note_off,,,,,12,0,1,,,0,,,76,64
218976,note_on,,,,,56,0,1,,,0,,,41,105
218992,control_change,,,,,16,0,1,,,0,64,0,,
219008,note_on,,,,,16,0,1,,,0,,,94,105
219008,note_on,,,,,0,0,1,,,0,,,82,105
219018,note_off,,,,,10,0,1,,,0,,,41,64
219024,control_change,,,,,6,0,1,,,0,64,127,,
219040,note_off,,,,,0,0,1,,,0,,,94,64
219040,note_off,,,,,16,0,1,,,0,,,82,64
219112,note_on,,,,,72,0,1,,,0,,,65,60
219118,note_on,,,,,6,0,1,,,0,,,70,74
219168,note_off,,,,,50,0,1,,,0,,,70,64
219200,note_on,,,,,32,0,1,,,0,,,74,64
219258,note_on,,,,,58,0,1,,,0,,,82,79
219264,note_off,,,,,6,0,1,,,0,,,74,64
219264,note_on,,,,,0,0,1,,,0,,,77,55
219278,note_off,,,,,14,0,1,,,0,,,77,64
219304,note_off,,,,,26,0,1,,,0,,,82,64
219310,note_off,,,,,6,0,1,,,0,,,65,64
219342,note_on,,,,,32,0,1,,,0,,,62,69
219354,note_on,,,,,12,0,1,,,0,,,81,82
219360,note_on,,,,,6,0,1,,,0,,,93,81
219384,note_off,,,,,24,0,1,,,0,,,81,64
219388,note_off,,,,,4,0,1,,,0,,,93,64
219436,note_on,,,,,48,0,1,,,0,,,69,73
219438,note_on,,,,,2,0,1,,,0,,,65,56
219474,note_off,,,,,36,0,1,,,0,,,69,64
219480,note_off,,,,,6,0,1,,,0,,,65,64
219482,note_off,,,,,2,0,1,,,0,,,62,64
219522,note_on,,,,,40,0,1,,,0,,,74,67
219586,note_on,,,,,64,0,1,,,0,,,81,53
219594,note_on,,,,,8,0,1,,,0,,,77,73
219598,note_off,,,,,4,0,1,,,0,,,74,64
219666,note_on,,,,,68,0,1,,,0,,,43,93
219672,note_on,,,,,6,0,1,,,0,,,55,80
219678,control_change,,,,,6,0,1,,,0,64,0,,
219716,note_off,,,,,38,0,1,,,0,,,55,64
219720,control_change,,,,,4,0,1,,,0,64,127,,
219724,note_off,,,,,4,0,1,,,0,,,77,64
219736,note_off,,,,,12,0,1,,,0,,,43,64
219738,note_off,,,,,2,0,1,,,0,,,81,64
219784,note_on,,,,,46,0,1,,,0,,,63,70
219790,note_on,,,,,6,0,1,,,0,,,69,69
219850,note_on,,,,,60,0,1,,,0,,,70,85
219904,note_off,,,,,54,0,1,,,0,,,70,64
219920,note_on,,,,,16,0,1,,,0,,,75,74
219922,note_on,,,,,2,0,1,,,0,,,81,60
219944,note_off,,,,,22,0,1,,,0,,,81,64
219948,note_off,,,,,4,0,1,,,0,,,75,64
219948,note_off,,,,,0,0,1,,,0,,,69,64
219992,note_off,,,,,44,0,1,,,0,,,63,64
219994,note_on,,,,,2,0,1,,,0,,,58,72
220008,note_on,,,,,14,0,1,,,0,,,79,51
220010,note_on,,,,,2,0,1,,,0,,,91,74
220064,note_off,,,,,54,0,1,,,0,,,91,64
220086,note_off,,,,,22,0,1,,,0,,,79,64
220090,note_on,,,,,4,0,1,,,0,,,67,68
220094,note_on,,,,,4,0,1,,,0,,,63,70
220130,note_off,,,,,36,0,1,,,0,,,67,64
220140,note_off,,,,,10,0,1,,,0,,,58,64
220150,note_off,,,,,10,0,1,,,0,,,63,64
220164,note_on,,,,,14,0,1,,,0,,,70,68
220224,note_off,,,,,60,0,1,,,0,,,70,64
220226,note_on,,,,,2,0,1,,,0,,,75,66
220232,note_on,,,,,6,0,1,,,0,,,79,69
220252,note_off,,,,,20,0,1,,,0,,,75,64
220268,note_off,,,,,16,0,1,,,0,,,79,64
220314,note_on,,,,,46,0,1,,,0,,,45,90
220324,note_on,,,,,10,0,1,,,0,,,57,80
220324,set_tempo,,,,,12908,1,0,512821,,,,,,
220328,set_tempo,,,,,4,1,0,526316,,,,,,
220332,set_tempo,,,,,4,1,0,535714,,,,,,
220332,control_change,,,,,8,0,1,,,0,64,0,,
220336,set_tempo,,,,,4,1,0,550459,,,,,,
220336,note_on,,,,,4,0,1,,,0,,,79,104
220342,note_on,,,,,6,0,1,,,0,,,91,100
220364,control_change,,,,,22,0,1,,,0,64,127,,
220366,note_off,,,,,2,0,1,,,0,,,79,64
220370,note_off,,,,,4,0,1,,,0,,,91,64
220392,note_off,,,,,22,0,1,,,0,,,45,64
220394,note_off,,,,,2,0,1,,,0,,,57,64
220432,note_on,,,,,38,0,1,,,0,,,62,76
220432,note_on,,,,,0,0,1,,,0,,,67,73
220502,note_on,,,,,70,0,1,,,0,,,69,78
220548,note_off,,,,,46,0,1,,,0,,,69,64
220568,set_tempo,,,,,232,1,0,540541,,,,,,
220572,note_on,,,,,24,0,1,,,0,,,79,70
220572,set_tempo,,,,,4,1,0,530973,,,,,,
220574,note_on,,,,,2,0,1,,,0,,,74,53
220576,set_tempo,,,,,4,1,0,521739,,,,,,
220578,note_off,,,,,4,0,1,,,0,,,67,64
220580,set_tempo,,,,,4,1,0,512821,,,,,,
220584,set_tempo,,,,,4,1,0,504202,,,,,,
220588,set_tempo,,,,,4,1,0,495868,,,,,,
220590,note_off,,,,,12,0,1,,,0,,,74,64
220592,set_tempo,,,,,4,1,0,500000,,,,,,
220604,set_tempo,,,,,12,1,0,504202,,,,,,
220604,end_of_track,,,,,0,1,0,,,,,,,
220612,note_off,,,,,22,0,1,,,0,,,79,64
220630,note_off,,,,,18,0,1,,,0,,,62,64
220656,note_on,,,,,26,0,1,,,0,,,57,66
220664,note_on,,,,,0,0,1,,,0,,,77,77
220664,note_on,,,,,8,0,1,,,0,,,89,82
220690,note_off,,,,,26,0,1,,,0,,,77,64
220696,note_off,,,,,6,0,1,,,0,,,89,64
220746,note_on,,,,,50,0,1,,,0,,,65,70
220752,note_on,,,,,6,0,1,,,0,,,62,73
220782,note_off,,,,,30,0,1,,,0,,,65,64
220800,note_off,,,,,18,0,1,,,0,,,62,64
220818,note_off,,,,,18,0,1,,,0,,,57,64
220824,note_on,,,,,6,0,1,,,0,,,69,71
220878,note_off,,,,,54,0,1,,,0,,,69,64
220896,note_on,,,,,18,0,1,,,0,,,77,66
220902,note_on,,,,,6,0,1,,,0,,,74,66
220920,note_off,,,,,18,0,1,,,0,,,74,64
220940,note_off,,,,,20,0,1,,,0,,,77,64
220986,note_on,,,,,46,0,1,,,0,,,55,64
220992,note_on,,,,,6,0,1,,,0,,,43,91
221002,note_on,,,,,10,0,1,,,0,,,77,76
221012,note_on,,,,,10,0,1,,,0,,,89,73
221024,control_change,,,,,12,0,1,,,0,64,0,,
221026,note_off,,,,,2,0,1,,,0,,,89,64
221030,note_off,,,,,4,0,1,,,0,,,77,64
221032,note_off,,,,,2,0,1,,,0,,,55,64
221036,control_change,,,,,4,0,1,,,0,64,127,,
221054,note_off,,,,,18,0,1,,,0,,,43,64
221090,note_on,,,,,36,0,1,,,0,,,61,89
221092,note_on,,,,,2,0,1,,,0,,,65,79
221106,note_off,,,,,14,0,1,,,0,,,65,64
221114,note_off,,,,,8,0,1,,,0,,,61,64
221164,note_on,,,,,50,0,1,,,0,,,67,70
221210,note_off,,,,,46,0,1,,,0,,,67,64
221234,note_on,,,,,24,0,1,,,0,,,73,66
221246,note_on,,,,,12,0,1,,,0,,,77,70
221264,note_off,,,,,18,0,1,,,0,,,73,64
221286,note_off,,,,,22,0,1,,,0,,,77,64
221330,note_on,,,,,44,0,1,,,0,,,58,78
221342,note_on,,,,,12,0,1,,,0,,,76,77
221344,note_on,,,,,2,0,1,,,0,,,88,77
221372,note_off,,,,,28,0,1,,,0,,,88,64
221372,note_off,,,,,0,0,1,,,0,,,76,64
221428,note_on,,,,,56,0,1,,,0,,,61,83
221434,note_on,,,,,6,0,1,,,0,,,64,85
221464,note_off,,,,,30,0,1,,,0,,,64,64
221478,note_off,,,,,14,0,1,,,0,,,61,64
221480,note_off,,,,,2,0,1,,,0,,,58,64
221502,note_on,,,,,22,0,1,,,0,,,70,78
221570,note_on,,,,,68,0,1,,,0,,,73,68
221572,note_off,,,,,2,0,1,,,0,,,70,64
221576,note_on,,,,,4,0,1,,,0,,,76,68
221598,note_off,,,,,22,0,1,,,0,,,73,64
221612,note_off,,,,,14,0,1,,,0,,,76,64
221666,note_on,,,,,54,0,1,,,0,,,41,89
221672,note_on,,,,,6,0,1,,,0,,,53,90
221676,control_change,,,,,4,0,1,,,0,64,0,,
221696,note_on,,,,,20,0,1,,,0,,,94,109
221704,note_on,,,,,8,0,1,,,0,,,82,109
221708,control_change,,,,,4,0,1,,,0,64,127,,
221710,note_off,,,,,2,0,1,,,0,,,94,64
221728,note_off,,,,,18,0,1,,,0,,,41,64
221730,note_off,,,,,2,0,1,,,0,,,82,64
221734,note_off,,,,,4,0,1,,,0,,,53,64
221812,note_on,,,,,0,0,1,,,0,,,70,66
221812,note_on,,,,,78,0,1,,,0,,,65,66
221892,note_on,,,,,80,0,1,,,0,,,74,56
221902,note_off,,,,,10,0,1,,,0,,,70,64
221940,note_off,,,,,38,0,1,,,0,,,74,64
221950,note_on,,,,,10,0,1,,,0,,,82,74
221956,note_on,,,,,6,0,1,,,0,,,77,61
221970,note_off,,,,,14,0,1,,,0,,,77,64
221994,note_off,,,,,24,0,1,,,0,,,65,64
222002,note_off,,,,,8,0,1,,,0,,,82,64
222036,note_on,,,,,34,0,1,,,0,,,62,67
222060,note_on,,,,,0,0,1,,,0,,,93,85
222060,note_on,,,,,24,0,1,,,0,,,81,79
222076,note_off,,,,,16,0,1,,,0,,,93,64
222080,note_off,,,,,4,0,1,,,0,,,81,64
222134,note_on,,,,,54,0,1,,,0,,,69,69
222138,note_on,,,,,4,0,1,,,0,,,65,71
222174,note_off,,,,,36,0,1,,,0,,,69,64
222190,note_off,,,,,16,0,1,,,0,,,65,64
222192,note_off,,,,,2,0,1,,,0,,,62,64
222212,note_on,,,,,20,0,1,,,0,,,74,77
222284,note_on,,,,,72,0,1,,,0,,,81,74
222286,note_off,,,,,2,0,1,,,0,,,74,64
222286,note_on,,,,,0,0,1,,,0,,,77,77
222374,note_on,,,,,88,0,1,,,0,,,43,76
222380,note_on,,,,,6,0,1,,,0,,,55,81
222390,control_change,,,,,10,0,1,,,0,64,0,,
222402,note_off,,,,,12,0,1,,,0,,,77,64
222424,control_change,,,,,22,0,1,,,0,64,127,,
222434,note_off,,,,,10,0,1,,,0,,,55,64
222436,note_off,,,,,2,0,1,,,0,,,43,64
222456,note_off,,,,,20,0,1,,,0,,,81,64
222482,note_on,,,,,26,0,1,,,0,,,63,81
222484,note_on,,,,,2,0,1,,,0,,,69,75
222550,note_on,,,,,66,0,1,,,0,,,70,79
222608,note_off,,,,,58,0,1,,,0,,,70,64
222620,note_on,,,,,12,0,1,,,0,,,81,71
222628,note_on,,,,,8,0,1,,,0,,,75,74
222652,note_off,,,,,24,0,1,,,0,,,75,64
222656,note_off,,,,,0,0,1,,,0,,,69,64
222656,note_off,,,,,4,0,1,,,0,,,81,64
222704,note_on,,,,,48,0,1,,,0,,,58,79
222706,note_off,,,,,2,0,1,,,0,,,63,64
222718,note_on,,,,,0,0,1,,,0,,,79,83
222718,note_on,,,,,12,0,1,,,0,,,91,92
222744,note_off,,,,,26,0,1,,,0,,,79,64
222744,note_off,,,,,0,0,1,,,0,,,91,64
222802,note_on,,,,,0,0,1,,,0,,,67,82
222802,note_on,,,,,58,0,1,,,0,,,63,74
222840,note_off,,,,,38,0,1,,,0,,,67,64
222852,note_off,,,,,12,0,1,,,0,,,58,64
222860,note_off,,,,,8,0,1,,,0,,,63,64
222876,note_on,,,,,16,0,1,,,0,,,70,62
222940,note_off,,,,,64,0,1,,,0,,,70,64
222948,note_on,,,,,8,0,1,,,0,,,75,69
222952,note_on,,,,,4,0,1,,,0,,,79,70
222978,note_off,,,,,26,0,1,,,0,,,75,64
222990,note_off,,,,,12,0,1,,,0,,,79,64
223044,note_on,,,,,0,0,1,,,0,,,45,86
223044,note_on,,,,,54,0,1,,,0,,,57,82
223056,note_on,,,,,12,0,1,,,0,,,79,80
223058,note_on,,,,,2,0,1,,,0,,,91,69
223066,control_change,,,,,8,0,1,,,0,64,0,,
223082,note_off,,,,,16,0,1,,,0,,,91,64
223086,note_off,,,,,4,0,1,,,0,,,79,64
223094,control_change,,,,,8,0,1,,,0,64,127,,
223106,note_off,,,,,12,0,1,,,0,,,57,64
223122,note_off,,,,,16,0,1,,,0,,,45,64
223146,note_on,,,,,24,0,1,,,0,,,62,79
223152,note_on,,,,,6,0,1,,,0,,,67,71
223230,note_on,,,,,78,0,1,,,0,,,69,78
223256,note_off,,,,,26,0,1,,,0,,,69,64
223300,note_on,,,,,44,0,1,,,0,,,74,56
223304,note_on,,,,,4,0,1,,,0,,,79,59
223330,note_off,,,,,26,0,1,,,0,,,74,64
223332,note_off,,,,,2,0,1,,,0,,,67,64
223348,note_off,,,,,16,0,1,,,0,,,79,64
223370,note_off,,,,,22,0,1,,,0,,,62,64
223388,note_on,,,,,18,0,1,,,0,,,57,75
223400,note_on,,,,,12,0,1,,,0,,,77,83
223404,note_on,,,,,4,0,1,,,0,,,89,83
223434,note_off,,,,,30,0,1,,,0,,,77,64
223440,note_off,,,,,6,0,1,,,0,,,89,64
223484,note_on,,,,,0,0,1,,,0,,,65,78
223484,note_on,,,,,44,0,1,,,0,,,62,74
223514,note_off,,,,,30,0,1,,,0,,,65,64
223534,note_off,,,,,20,0,1,,,0,,,62,64
223534,note_off,,,,,0,0,1,,,0,,,57,64
223576,note_on,,,,,42,0,1,,,0,,,69,86
223618,note_off,,,,,42,0,1,,,0,,,69,64
223654,note_on,,,,,36,0,1,,,0,,,77,79
223658,note_on,,,,,4,0,1,,,0,,,74,61
223674,note_off,,,,,16,0,1,,,0,,,74,64
223696,note_off,,,,,22,0,1,,,0,,,77,64
223740,note_on,,,,,44,0,1,,,0,,,46,84
223746,note_on,,,,,6,0,1,,,0,,,58,87
223770,control_change,,,,,24,0,1,,,0,64,0,,
223774,note_on,,,,,4,0,1,,,0,,,77,104
223780,note_on,,,,,6,0,1,,,0,,,89,104
223804,note_off,,,,,24,0,1,,,0,,,58,64
223808,control_change,,,,,0,0,1,,,0,64,127,,
223808,note_off,,,,,4,0,1,,,0,,,77,64
223818,note_off,,,,,10,0,1,,,0,,,46,64
223820,note_off,,,,,2,0,1,,,0,,,89,64
223876,note_on,,,,,56,0,1,,,0,,,65,77
223878,note_on,,,,,2,0,1,,,0,,,61,80
223952,note_on,,,,,74,0,1,,,0,,,67,66
223984,note_off,,,,,32,0,1,,,0,,,65,64
223998,note_off,,,,,14,0,1,,,0,,,67,64
224024,note_on,,,,,26,0,1,,,0,,,73,69
224034,note_on,,,,,10,0,1,,,0,,,77,61
224052,note_off,,,,,18,0,1,,,0,,,73,64
224072,note_off,,,,,20,0,1,,,0,,,77,64
224106,note_off,,,,,34,0,1,,,0,,,61,64
224120,note_on,,,,,14,0,1,,,0,,,55,68
224142,note_on,,,,,22,0,1,,,0,,,88,85
224142,note_on,,,,,0,0,1,,,0,,,76,78
224170,note_off,,,,,28,0,1,,,0,,,76,64
224182,note_off,,,,,12,0,1,,,0,,,88,64
224232,note_on,,,,,50,0,1,,,0,,,61,76
224236,note_on,,,,,4,0,1,,,0,,,64,80
224286,note_off,,,,,50,0,1,,,0,,,64,64
224306,note_off,,,,,0,0,1,,,0,,,55,64
224306,note_off,,,,,20,0,1,,,0,,,61,64
224330,note_on,,,,,24,0,1,,,0,,,67,76
224376,note_off,,,,,46,0,1,,,0,,,67,64
224416,note_on,,,,,40,0,1,,,0,,,76,73
224418,note_on,,,,,2,0,1,,,0,,,73,67
224448,note_off,,,,,30,0,1,,,0,,,73,64
224460,note_off,,,,,12,0,1,,,0,,,76,64
224540,note_on,,,,,80,0,1,,,0,,,35,94
224546,note_on,,,,,6,0,1,,,0,,,47,94
224550,control_change,,,,,4,0,1,,,0,64,0,,
224556,note_on,,,,,6,0,1,,,0,,,88,103
224558,note_on,,,,,2,0,1,,,0,,,76,103
224586,note_off,,,,,28,0,1,,,0,,,35,64
224588,note_off,,,,,2,0,1,,,0,,,76,64
224590,control_change,,,,,2,0,1,,,0,64,127,,
224602,note_off,,,,,12,0,1,,,0,,,47,64
224612,note_off,,,,,10,0,1,,,0,,,88,64
224716,note_on,,,,,0,0,1,,,0,,,59,75
224716,note_on,,,,,104,0,1,,,0,,,64,74
224796,note_on,,,,,80,0,1,,,0,,,68,75
224860,note_on,,,,,64,0,1,,,0,,,76,55
224864,note_off,,,,,4,0,1,,,0,,,68,64
224874,note_on,,,,,10,0,1,,,0,,,71,53
224896,note_off,,,,,22,0,1,,,0,,,71,64
224920,note_off,,,,,24,0,1,,,0,,,76,64
224928,note_off,,,,,8,0,1,,,0,,,64,64
224958,note_on,,,,,30,0,1,,,0,,,56,76
224968,note_off,,,,,10,0,1,,,0,,,59,64
224984,note_on,,,,,16,0,1,,,0,,,75,82
224986,note_on,,,,,2,0,1,,,0,,,87,89
225012,note_off,,,,,26,0,1,,,0,,,87,64
225012,note_off,,,,,0,0,1,,,0,,,75,64
225070,note_on,,,,,58,0,1,,,0,,,63,84
225072,note_on,,,,,2,0,1,,,0,,,59,77
225108,note_off,,,,,36,0,1,,,0,,,63,64
225116,note_off,,,,,8,0,1,,,0,,,59,64
225132,note_off,,,,,16,0,1,,,0,,,56,64
225152,note_on,,,,,20,0,1,,,0,,,68,80
225216,note_on,,,,,0,0,1,,,0,,,75,72
225216,note_on,,,,,64,0,1,,,0,,,71,73
225224,note_off,,,,,8,0,1,,,0,,,68,64
225300,note_off,,,,,76,0,1,,,0,,,71,64
225306,note_on,,,,,6,0,1,,,0,,,40,79
225308,note_on,,,,,2,0,1,,,0,,,52,83
225326,note_off,,,,,18,0,1,,,0,,,75,64
225336,control_change,,,,,10,0,1,,,0,64,0,,
225352,control_change,,,,,16,0,1,,,0,64,127,,
225384,note_off,,,,,32,0,1,,,0,,,40,64
225394,note_off,,,,,10,0,1,,,0,,,52,64
225408,note_on,,,,,14,0,1,,,0,,,63,86
225412,note_on,,,,,4,0,1,,,0,,,56,86
225488,note_on,,,,,76,0,1,,,0,,,64,77
225546,note_off,,,,,58,0,1,,,0,,,64,64
225558,note_on,,,,,12,0,1,,,0,,,75,77
225560,note_on,,,,,2,0,1,,,0,,,68,71
225594,note_off,,,,,34,0,1,,,0,,,68,64
225602,note_off,,,,,8,0,1,,,0,,,75,64
225608,note_off,,,,,6,0,1,,,0,,,63,64
225648,note_off,,,,,40,0,1,,,0,,,56,64
225648,note_on,,,,,0,0,1,,,0,,,52,74
225664,note_on,,,,,16,0,1,,,0,,,73,79
225666,note_on,,,,,2,0,1,,,0,,,85,90
225696,note_off,,,,,30,0,1,,,0,,,85,64
225700,note_off,,,,,4,0,1,,,0,,,73,64
225750,note_on,,,,,50,0,1,,,0,,,61,76
225754,note_on,,,,,4,0,1,,,0,,,56,68
225796,note_off,,,,,42,0,1,,,0,,,61,64
225812,note_off,,,,,16,0,1,,,0,,,52,64
225814,note_off,,,,,2,0,1,,,0,,,56,64
225830,note_on,,,,,16,0,1,,,0,,,64,71
225896,note_on,,,,,66,0,1,,,0,,,68,71
225898,note_on,,,,,2,0,1,,,0,,,73,78
225902,note_off,,,,,4,0,1,,,0,,,64,64
225928,note_off,,,,,26,0,1,,,0,,,68,64
225944,note_off,,,,,16,0,1,,,0,,,73,64
225978,note_on,,,,,34,0,1,,,0,,,39,72
225986,note_on,,,,,8,0,1,,,0,,,51,62
225990,control_change,,,,,4,0,1,,,0,64,0,,
226018,note_on,,,,,28,0,1,,,0,,,73,76
226020,note_on,,,,,2,0,1,,,0,,,85,85
226032,note_off,,,,,12,0,1,,,0,,,39,64
226034,control_change,,,,,2,0,1,,,0,64,127,,
226042,note_off,,,,,8,0,1,,,0,,,51,64
226048,note_off,,,,,6,0,1,,,0,,,85,64
226060,note_off,,,,,12,0,1,,,0,,,73,64
226122,note_on,,,,,62,0,1,,,0,,,61,69
226128,note_on,,,,,6,0,1,,,0,,,56,68
226188,note_on,,,,,60,0,1,,,0,,,63,72
226240,note_off,,,,,52,0,1,,,0,,,63,64
226256,note_on,,,,,16,0,1,,,0,,,73,67
226262,note_on,,,,,6,0,1,,,0,,,68,60
226276,note_off,,,,,14,0,1,,,0,,,68,64
226276,note_off,,,,,0,0,1,,,0,,,61,64
226292,note_off,,,,,16,0,1,,,0,,,73,64
226324,note_off,,,,,32,0,1,,,0,,,56,64
226342,note_on,,,,,18,0,1,,,0,,,51,66
226362,note_on,,,,,0,0,1,,,0,,,71,67
226362,note_on,,,,,20,0,1,,,0,,,83,77
226392,control_change,,,,,30,0,1,,,0,64,0,,
226394,note_off,,,,,2,0,1,,,0,,,71,64
226396,note_off,,,,,2,0,1,,,0,,,83,64
226416,control_change,,,,,20,0,1,,,0,64,127,,
226440,note_on,,,,,24,0,1,,,0,,,56,76
226440,note_on,,,,,0,0,1,,,0,,,59,74
226476,note_off,,,,,36,0,1,,,0,,,59,64
226492,note_off,,,,,16,0,1,,,0,,,51,64
226498,note_off,,,,,6,0,1,,,0,,,56,64
226512,note_on,,,,,14,0,1,,,0,,,63,83
226574,note_off,,,,,62,0,1,,,0,,,63,64
226584,note_on,,,,,10,0,1,,,0,,,68,67
226588,note_on,,,,,4,0,1,,,0,,,71,72
226604,note_off,,,,,16,0,1,,,0,,,68,64
226618,note_off,,,,,14,0,1,,,0,,,71,64
226672,note_on,,,,,54,0,1,,,0,,,37,65
226684,note_on,,,,,12,0,1,,,0,,,49,59
226700,control_change,,,,,16,0,1,,,0,64,0,,
226704,note_on,,,,,4,0,1,,,0,,,83,83
226708,note_on,,,,,4,0,1,,,0,,,71,79
226736,control_change,,,,,28,0,1,,,0,64,127,,
226744,note_off,,,,,8,0,1,,,0,,,71,64
226746,note_off,,,,,2,0,1,,,0,,,83,64
226782,note_off,,,,,36,0,1,,,0,,,37,64
226786,note_off,,,,,4,0,1,,,0,,,49,64
226804,note_on,,,,,18,0,1,,,0,,,55,53
226804,note_on,,,,,0,0,1,,,0,,,59,44
226880,note_on,,,,,76,0,1,,,0,,,63,75
226928,note_off,,,,,48,0,1,,,0,,,63,64
226938,note_on,,,,,10,0,1,,,0,,,67,55
226948,note_on,,,,,10,0,1,,,0,,,71,71
226956,note_off,,,,,8,0,1,,,0,,,67,64
226978,note_off,,,,,22,0,1,,,0,,,59,64
226990,note_off,,,,,12,0,1,,,0,,,71,64
226994,note_off,,,,,4,0,1,,,0,,,55,64
227028,note_on,,,,,34,0,1,,,0,,,49,65
227048,note_on,,,,,20,0,1,,,0,,,70,65
227050,note_on,,,,,2,0,1,,,0,,,82,81
227088,control_change,,,,,38,0,1,,,0,64,0,,
227116,control_change,,,,,28,0,1,,,0,64,127,,
227128,note_on,,,,,12,0,1,,,0,,,58,76
227136,note_on,,,,,8,0,1,,,0,,,55,72
227168,note_off,,,,,32,0,1,,,0,,,82,64
227174,note_off,,,,,6,0,1,,,0,,,58,64
227180,note_off,,,,,6,0,1,,,0,,,55,64
227182,note_off,,,,,2,0,1,,,0,,,70,64
227210,note_on,,,,,28,0,1,,,0,,,63,77
227212,note_off,,,,,2,0,1,,,0,,,49,64
227268,note_off,,,,,56,0,1,,,0,,,63,64
227284,note_on,,,,,16,0,1,,,0,,,70,66
227288,note_on,,,,,4,0,1,,,0,,,67,66
227328,note_off,,,,,40,0,1,,,0,,,70,64
227332,note_off,,,,,4,0,1,,,0,,,67,64
227388,note_on,,,,,56,0,1,,,0,,,35,67
227394,note_on,,,,,6,0,1,,,0,,,47,74
227400,control_change,,,,,6,0,1,,,0,64,0,,
227412,note_on,,,,,12,0,1,,,0,,,76,85
227414,note_on,,,,,2,0,1,,,0,,,88,85
227434,control_change,,,,,20,0,1,,,0,64,127,,
227438,note_off,,,,,4,0,1,,,0,,,88,64
227444,note_off,,,,,6,0,1,,,0,,,76,64
227472,note_off,,,,,28,0,1,,,0,,,47,64
227482,note_off,,,,,10,0,1,,,0,,,35,64
227512,note_on,,,,,30,0,1,,,0,,,64,69
227512,note_on,,,,,0,0,1,,,0,,,59,72
227596,note_on,,,,,84,0,1,,,0,,,68,66
227656,note_off,,,,,60,0,1,,,0,,,68,64
227666,note_on,,,,,10,0,1,,,0,,,76,53
227668,note_on,,,,,2,0,1,,,0,,,71,55
227682,note_off,,,,,14,0,1,,,0,,,71,64
227712,note_off,,,,,30,0,1,,,0,,,76,64
227740,note_off,,,,,28,0,1,,,0,,,64,64
227758,note_on,,,,,18,0,1,,,0,,,56,61
227760,note_off,,,,,2,0,1,,,0,,,59,64
227768,note_on,,,,,8,0,1,,,0,,,75,67
227774,note_on,,,,,6,0,1,,,0,,,87,67
227802,note_off,,,,,28,0,1,,,0,,,75,64
227806,note_off,,,,,4,0,1,,,0,,,87,64
227828,control_change,,,,,22,0,1,,,0,64,0,,
227838,control_change,,,,,10,0,1,,,0,64,127,,
227852,note_on,,,,,14,0,1,,,0,,,63,70
227864,note_on,,,,,12,0,1,,,0,,,59,67
227902,note_off,,,,,38,0,1,,,0,,,63,64
227906,note_off,,,,,4,0,1,,,0,,,59,64
227930,note_off,,,,,24,0,1,,,0,,,56,64
227952,note_on,,,,,22,0,1,,,0,,,68,59
228020,note_on,,,,,68,0,1,,,0,,,75,65
228022,note_on,,,,,2,0,1,,,0,,,71,67
228032,note_off,,,,,10,0,1,,,0,,,68,64
228104,note_on,,,,,72,0,1,,,0,,,37,68
228112,note_on,,,,,8,0,1,,,0,,,49,70
228128,control_change,,,,,16,0,1,,,0,64,0,,
228138,note_off,,,,,10,0,1,,,0,,,71,64
228156,note_off,,,,,18,0,1,,,0,,,75,64
228158,control_change,,,,,2,0,1,,,0,64,127,,
228198,note_off,,,,,40,0,1,,,0,,,49,64
228198,note_off,,,,,0,0,1,,,0,,,37,64
228202,note_on,,,,,4,0,1,,,0,,,63,66
228214,note_on,,,,,12,0,1,,,0,,,57,77
228288,note_on,,,,,74,0,1,,,0,,,64,81
228360,note_off,,,,,72,0,1,,,0,,,64,64
228368,note_on,,,,,8,0,1,,,0,,,75,71
228372,note_on,,,,,4,0,1,,,0,,,69,51
228390,note_off,,,,,18,0,1,,,0,,,69,64
228412,note_off,,,,,22,0,1,,,0,,,75,64
228416,note_off,,,,,4,0,1,,,0,,,63,64
228452,note_off,,,,,36,0,1,,,0,,,57,64
228460,note_on,,,,,8,0,1,,,0,,,52,66
228476,note_on,,,,,16,0,1,,,0,,,73,65
228480,note_on,,,,,4,0,1,,,0,,,85,84
228508,note_off,,,,,28,0,1,,,0,,,85,64
228514,note_off,,,,,6,0,1,,,0,,,73,64
228520,control_change,,,,,6,0,1,,,0,64,0,,
228536,control_change,,,,,16,0,1,,,0,64,127,,
228566,note_on,,,,,30,0,1,,,0,,,61,75
228570,note_on,,,,,4,0,1,,,0,,,57,72
228624,note_off,,,,,54,0,1,,,0,,,61,64
228628,note_off,,,,,4,0,1,,,0,,,57,64
228646,note_off,,,,,18,0,1,,,0,,,52,64
228652,note_on,,,,,6,0,1,,,0,,,64,67
228720,note_off,,,,,68,0,1,,,0,,,64,64
228726,note_on,,,,,6,0,1,,,0,,,73,75
228734,note_on,,,,,8,0,1,,,0,,,69,50
228750,note_off,,,,,16,0,1,,,0,,,69,64
228784,note_off,,,,,34,0,1,,,0,,,73,64
228816,note_on,,,,,32,0,1,,,0,,,39,72
228826,note_on,,,,,10,0,1,,,0,,,51,80
228830,control_change,,,,,4,0,1,,,0,64,0,,
228846,note_on,,,,,16,0,1,,,0,,,85,91
228848,note_on,,,,,2,0,1,,,0,,,73,68
228868,control_change,,,,,20,0,1,,,0,64,127,,
228874,note_off,,,,,6,0,1,,,0,,,85,64
228884,note_off,,,,,10,0,1,,,0,,,73,64
228902,note_off,,,,,18,0,1,,,0,,,39,64
228904,note_off,,,,,2,0,1,,,0,,,51,64
228938,note_on,,,,,34,0,1,,,0,,,61,77
228942,note_on,,,,,4,0,1,,,0,,,56,75
229024,note_on,,,,,82,0,1,,,0,,,63,71
229076,note_off,,,,,52,0,1,,,0,,,63,64
229092,note_on,,,,,16,0,1,,,0,,,73,81
229104,note_on,,,,,12,0,1,,,0,,,68,53
229110,note_off,,,,,6,0,1,,,0,,,61,64
229118,note_off,,,,,8,0,1,,,0,,,68,64
229130,note_off,,,,,12,0,1,,,0,,,73,64
229172,note_off,,,,,42,0,1,,,0,,,56,64
229180,note_on,,,,,8,0,1,,,0,,,51,76
229204,note_on,,,,,24,0,1,,,0,,,71,83
229206,note_on,,,,,2,0,1,,,0,,,83,86
229232,note_off,,,,,26,0,1,,,0,,,71,64
229242,note_off,,,,,10,0,1,,,0,,,83,64
229294,note_on,,,,,52,0,1,,,0,,,59,82
229296,note_on,,,,,2,0,1,,,0,,,56,79
229334,note_off,,,,,38,0,1,,,0,,,59,64
229336,note_off,,,,,2,0,1,,,0,,,51,64
229358,note_off,,,,,22,0,1,,,0,,,56,64
229404,note_on,,,,,46,0,1,,,0,,,63,80
229466,note_off,,,,,62,0,1,,,0,,,63,64
229494,note_on,,,,,28,0,1,,,0,,,75,79
229496,note_on,,,,,2,0,1,,,0,,,71,79
229544,note_off,,,,,48,0,1,,,0,,,75,64
229546,note_off,,,,,2,0,1,,,0,,,71,64
229598,note_on,,,,,52,0,1,,,0,,,39,77
229632,control_change,,,,,34,0,1,,,0,64,0,,
229668,control_change,,,,,36,0,1,,,0,64,127,,
229696,note_on,,,,,28,0,1,,,0,,,47,78
229702,note_off,,,,,6,0,1,,,0,,,39,64
229792,note_on,,,,,90,0,1,,,0,,,51,75
229796,note_on,,,,,4,0,1,,,0,,,83,81
229798,note_on,,,,,0,0,1,,,0,,,80,81
229798,note_on,,,,,2,0,1,,,0,,,71,83
229826,note_off,,,,,28,0,1,,,0,,,47,64
229838,note_off,,,,,12,0,1,,,0,,,71,64
229858,note_off,,,,,20,0,1,,,0,,,83,64
229872,note_off,,,,,14,0,1,,,0,,,80,64
229892,note_off,,,,,20,0,1,,,0,,,51,64
229892,note_on,,,,,0,0,1,,,0,,,56,81
229910,note_on,,,,,18,0,1,,,0,,,80,30
229924,note_off,,,,,14,0,1,,,0,,,56,64
229930,note_off,,,,,6,0,1,,,0,,,80,64
230002,note_on,,,,,72,0,1,,,0,,,59,87
230010,note_on,,,,,8,0,1,,,0,,,82,87
230012,note_on,,,,,2,0,1,,,0,,,70,87
230012,note_on,,,,,0,0,1,,,0,,,79,87
230072,note_off,,,,,60,0,1,,,0,,,70,64
230078,note_off,,,,,6,0,1,,,0,,,79,64
230110,note_on,,,,,32,0,1,,,0,,,63,72
230118,note_off,,,,,8,0,1,,,0,,,82,64
230230,note_on,,,,,112,0,1,,,0,,,68,94
230234,note_on,,,,,4,0,1,,,0,,,80,94
230238,note_on,,,,,4,0,1,,,0,,,83,94
230240,note_on,,,,,2,0,1,,,0,,,71,94
230270,note_off,,,,,30,0,1,,,0,,,68,64
230272,note_off,,,,,2,0,1,,,0,,,59,64
230276,note_off,,,,,4,0,1,,,0,,,63,64
230344,note_on,,,,,68,0,1,,,0,,,75,81
230434,note_on,,,,,90,0,1,,,0,,,51,94
230462,note_off,,,,,28,0,1,,,0,,,71,64
230464,control_change,,,,,2,0,1,,,0,64,0,,
230476,note_off,,,,,12,0,1,,,0,,,83,64
230484,note_off,,,,,8,0,1,,,0,,,75,64
230500,note_off,,,,,16,0,1,,,0,,,80,64
230522,control_change,,,,,22,0,1,,,0,64,127,,
230542,note_on,,,,,20,0,1,,,0,,,58,72
230562,note_off,,,,,20,0,1,,,0,,,51,64
230582,note_on,,,,,20,0,1,,,0,,,61,70
230606,note_off,,,,,24,0,1,,,0,,,58,64
230640,note_on,,,,,34,0,1,,,0,,,67,75
230646,note_off,,,,,6,0,1,,,0,,,61,64
230666,note_off,,,,,20,0,1,,,0,,,67,64
230680,note_on,,,,,14,0,1,,,0,,,73,79
230720,note_on,,,,,40,0,1,,,0,,,79,64
230772,note_on,,,,,52,0,1,,,0,,,87,103
230874,note_off,,,,,102,0,1,,,0,,,73,64
230920,note_off,,,,,46,0,1,,,0,,,87,64
230940,note_off,,,,,20,0,1,,,0,,,79,64
231018,note_on,,,,,78,0,1,,,0,,,67,78
231020,note_on,,,,,2,0,1,,,0,,,64,84
231024,note_on,,,,,0,0,1,,,0,,,73,87
231024,note_on,,,,,4,0,1,,,0,,,82,84
231068,control_change,,,,,44,0,1,,,0,64,0,,
231088,control_change,,,,,20,0,1,,,0,64,127,,
231122,note_off,,,,,34,0,1,,,0,,,67,64
231128,note_off,,,,,6,0,1,,,0,,,64,64
231136,note_off,,,,,8,0,1,,,0,,,73,64
231160,note_off,,,,,24,0,1,,,0,,,82,64
231356,note_on,,,,,196,0,1,,,0,,,85,92
231360,note_on,,,,,0,0,1,,,0,,,76,77
231360,note_on,,,,,4,0,1,,,0,,,70,84
231366,note_on,,,,,6,0,1,,,0,,,67,77
231432,control_change,,,,,66,0,1,,,0,64,0,,
231440,control_change,,,,,8,0,1,,,0,64,127,,
231640,note_off,,,,,200,0,1,,,0,,,70,64
231642,note_off,,,,,2,0,1,,,0,,,85,64
231644,note_off,,,,,2,0,1,,,0,,,76,64
231652,note_off,,,,,8,0,1,,,0,,,67,64
232076,note_on,,,,,424,0,1,,,0,,,69,71
232076,note_on,,,,,0,0,1,,,0,,,75,78
232078,note_on,,,,,2,0,1,,,0,,,84,69
232078,note_on,,,,,0,0,1,,,0,,,66,62
232128,control_change,,,,,50,0,1,,,0,64,0,,
232172,control_change,,,,,44,0,1,,,0,64,127,,
232232,note_off,,,,,60,0,1,,,0,,,84,64
232242,note_off,,,,,10,0,1,,,0,,,75,64
232256,note_off,,,,,14,0,1,,,0,,,66,64
232268,note_off,,,,,12,0,1,,,0,,,69,64
232322,note_on,,,,,54,0,1,,,0,,,83,74
232326,note_on,,,,,4,0,1,,,0,,,74,59
232328,note_on,,,,,2,0,1,,,0,,,68,62
232332,note_on,,,,,4,0,1,,,0,,,65,63
232358,control_change,,,,,26,0,1,,,0,64,0,,
232384,note_off,,,,,26,0,1,,,0,,,74,64
232386,control_change,,,,,2,0,1,,,0,64,127,,
232418,note_off,,,,,32,0,1,,,0,,,65,64
232418,note_off,,,,,0,0,1,,,0,,,68,64
232466,note_off,,,,,48,0,1,,,0,,,83,64
232472,note_on,,,,,6,0,1,,,0,,,73,74
232472,note_on,,,,,0,0,1,,,0,,,82,74
232480,note_on,,,,,0,0,1,,,0,,,67,60
232480,note_on,,,,,8,0,1,,,0,,,64,66
232514,control_change,,,,,34,0,1,,,0,64,0,,
232520,control_change,,,,,6,0,1,,,0,64,127,,
232534,note_off,,,,,14,0,1,,,0,,,67,64
232540,note_off,,,,,6,0,1,,,0,,,73,64
232546,note_off,,,,,6,0,1,,,0,,,82,64
232548,note_off,,,,,2,0,1,,,0,,,64,64
232588,note_on,,,,,40,0,1,,,0,,,66,61
232592,note_on,,,,,4,0,1,,,0,,,81,73
232596,note_on,,,,,4,0,1,,,0,,,63,72
232598,note_on,,,,,2,0,1,,,0,,,72,68
232628,note_off,,,,,30,0,1,,,0,,,72,64
232638,note_off,,,,,0,0,1,,,0,,,66,64
232638,note_off,,,,,10,0,1,,,0,,,63,64
232670,note_off,,,,,32,0,1,,,0,,,81,64
232684,control_change,,,,,14,0,1,,,0,64,0,,
232688,note_on,,,,,4,0,1,,,0,,,80,76
232688,note_on,,,,,0,0,1,,,0,,,62,72
232688,note_on,,,,,0,0,1,,,0,,,71,71
232692,note_on,,,,,4,0,1,,,0,,,65,54
232696,control_change,,,,,4,0,1,,,0,64,127,,
232714,note_off,,,,,18,0,1,,,0,,,65,64
232718,note_off,,,,,4,0,1,,,0,,,71,64
232732,note_off,,,,,14,0,1,,,0,,,62,64
232752,note_off,,,,,20,0,1,,,0,,,80,64
232756,control_change,,,,,4,0,1,,,0,64,0,,
232768,control_change,,,,,12,0,1,,,0,64,127,,
232774,note_on,,,,,6,0,1,,,0,,,61,77
232776,note_on,,,,,2,0,1,,,0,,,79,68
232780,note_on,,,,,4,0,1,,,0,,,64,67
232782,note_on,,,,,2,0,1,,,0,,,70,76
232818,note_off,,,,,36,0,1,,,0,,,70,64
232822,note_off,,,,,4,0,1,,,0,,,64,64
232832,note_off,,,,,10,0,1,,,0,,,61,64
232840,note_off,,,,,8,0,1,,,0,,,79,64
232862,control_change,,,,,22,0,1,,,0,64,0,,
232872,note_on,,,,,0,0,1,,,0,,,78,68
232872,note_on,,,,,10,0,1,,,0,,,63,68
232876,note_on,,,,,0,0,1,,,0,,,69,75
232876,note_on,,,,,4,0,1,,,0,,,60,64
232882,control_change,,,,,6,0,1,,,0,64,127,,
232910,note_off,,,,,28,0,1,,,0,,,69,64
232918,note_off,,,,,8,0,1,,,0,,,60,64
232920,note_off,,,,,2,0,1,,,0,,,63,64
232940,note_off,,,,,20,0,1,,,0,,,78,64
232956,control_change,,,,,16,0,1,,,0,64,0,,
232974,note_on,,,,,18,0,1,,,0,,,77,74
232976,control_change,,,,,2,0,1,,,0,64,127,,
232978,note_on,,,,,2,0,1,,,0,,,68,74
232980,note_on,,,,,0,0,1,,,0,,,59,64
232980,note_on,,,,,2,0,1,,,0,,,62,71
233008,note_off,,,,,28,0,1,,,0,,,68,64
233018,note_off,,,,,10,0,1,,,0,,,62,64
233044,note_off,,,,,26,0,1,,,0,,,59,64
233050,note_off,,,,,6,0,1,,,0,,,77,64
233076,note_on,,,,,26,0,1,,,0,,,61,70
233080,note_on,,,,,4,0,1,,,0,,,76,64
233082,note_on,,,,,2,0,1,,,0,,,67,66
233086,control_change,,,,,4,0,1,,,0,64,0,,
233088,note_on,,,,,2,0,1,,,0,,,58,75
233120,control_change,,,,,32,0,1,,,0,64,127,,
233122,note_off,,,,,2,0,1,,,0,,,67,64
233136,note_off,,,,,14,0,1,,,0,,,76,64
233146,note_off,,,,,10,0,1,,,0,,,58,64
233148,note_off,,,,,2,0,1,,,0,,,61,64
233196,note_on,,,,,48,0,1,,,0,,,75,77
233198,note_on,,,,,2,0,1,,,0,,,60,66
233198,note_on,,,,,0,0,1,,,0,,,57,73
233202,note_on,,,,,4,0,1,,,0,,,66,78
233232,control_change,,,,,30,0,1,,,0,64,0,,
233250,note_off,,,,,18,0,1,,,0,,,60,64
233264,control_change,,,,,14,0,1,,,0,64,127,,
233272,note_off,,,,,8,0,1,,,0,,,57,64
233276,note_off,,,,,4,0,1,,,0,,,66,64
233292,note_off,,,,,16,0,1,,,0,,,75,64
233310,note_on,,,,,18,0,1,,,0,,,56,77
233314,note_on,,,,,4,0,1,,,0,,,59,62
233320,note_on,,,,,6,0,1,,,0,,,74,70
233324,note_on,,,,,4,0,1,,,0,,,65,67
233342,control_change,,,,,18,0,1,,,0,64,0,,
233368,control_change,,,,,26,0,1,,,0,64,127,,
233378,note_off,,,,,10,0,1,,,0,,,65,64
233408,note_off,,,,,30,0,1,,,0,,,59,64
233420,note_off,,,,,12,0,1,,,0,,,56,64
233432,note_off,,,,,12,0,1,,,0,,,74,64
233440,note_on,,,,,8,0,1,,,0,,,58,65
233444,note_on,,,,,4,0,1,,,0,,,73,75
233448,note_on,,,,,4,0,1,,,0,,,64,77
233454,control_change,,,,,6,0,1,,,0,64,0,,
233456,note_on,,,,,2,0,1,,,0,,,55,51
233484,control_change,,,,,28,0,1,,,0,64,127,,
233512,note_off,,,,,28,0,1,,,0,,,64,64
233520,note_off,,,,,8,0,1,,,0,,,55,64
233526,note_off,,,,,6,0,1,,,0,,,58,64
233544,note_off,,,,,18,0,1,,,0,,,73,64
233574,note_on,,,,,30,0,1,,,0,,,54,77
233576,control_change,,,,,2,0,1,,,0,64,0,,
233580,note_on,,,,,4,0,1,,,0,,,57,71
233582,note_on,,,,,2,0,1,,,0,,,72,74
233584,note_on,,,,,2,0,1,,,0,,,63,79
233616,control_change,,,,,32,0,1,,,0,64,127,,
233654,note_off,,,,,38,0,1,,,0,,,63,64
233680,note_off,,,,,26,0,1,,,0,,,57,64
233684,note_off,,,,,4,0,1,,,0,,,72,64
233698,note_off,,,,,14,0,1,,,0,,,54,64
233712,note_on,,,,,14,0,1,,,0,,,56,63
233722,note_on,,,,,10,0,1,,,0,,,53,68
233726,note_on,,,,,0,0,1,,,0,,,62,67
233726,note_on,,,,,4,0,1,,,0,,,71,74
233730,control_change,,,,,4,0,1,,,0,64,0,,
233758,control_change,,,,,28,0,1,,,0,64,127,,
233788,note_off,,,,,30,0,1,,,0,,,62,64
233798,note_off,,,,,10,0,1,,,0,,,71,64
233824,note_off,,,,,26,0,1,,,0,,,53,64
233838,note_off,,,,,14,0,1,,,0,,,56,64
233902,note_on,,,,,0,0,1,,,0,,,55,62
233902,note_on,,,,,64,0,1,,,0,,,70,70
233904,note_on,,,,,2,0,1,,,0,,,61,70
233908,note_on,,,,,4,0,1,,,0,,,52,68
233916,control_change,,,,,8,0,1,,,0,64,0,,
233958,control_change,,,,,42,0,1,,,0,64,127,,
234000,note_off,,,,,42,0,1,,,0,,,61,64
234004,note_off,,,,,4,0,1,,,0,,,70,64
234060,note_off,,,,,56,0,1,,,0,,,55,64
234122,note_on,,,,,62,0,1,,,0,,,54,66
234124,note_on,,,,,2,0,1,,,0,,,69,72
234128,note_on,,,,,0,0,1,,,0,,,60,60
234128,note_off,,,,,4,0,1,,,0,,,52,64
234130,note_on,,,,,2,0,1,,,0,,,51,80
234152,control_change,,,,,22,0,1,,,0,64,0,,
234218,control_change,,,,,66,0,1,,,0,64,127,,
234244,note_off,,,,,26,0,1,,,0,,,60,64
234280,note_off,,,,,36,0,1,,,0,,,69,64
234408,note_off,,,,,128,0,1,,,0,,,54,64
234428,note_on,,,,,20,0,1,,,0,,,70,71
234430,note_on,,,,,2,0,1,,,0,,,61,67
234432,note_on,,,,,2,0,1,,,0,,,55,67
234458,control_change,,,,,26,0,1,,,0,64,0,,
234532,control_change,,,,,74,0,1,,,0,64,127,,
234560,note_off,,,,,28,0,1,,,0,,,51,64
234568,note_off,,,,,8,0,1,,,0,,,55,64
234694,note_on,,,,,126,0,1,,,0,,,39,83
234710,control_change,,,,,16,0,1,,,0,64,0,,
234768,control_change,,,,,58,0,1,,,0,64,127,,
234812,note_off,,,,,44,0,1,,,0,,,61,64
234814,note_off,,,,,2,0,1,,,0,,,70,64
234836,note_off,,,,,22,0,1,,,0,,,39,64
235082,note_on,,,,,246,0,1,,,0,,,73,76
235088,note_on,,,,,6,0,1,,,0,,,65,70
235092,note_on,,,,,4,0,1,,,0,,,55,77
235188,note_off,,,,,96,0,1,,,0,,,55,64
235208,note_off,,,,,20,0,1,,,0,,,65,64
235234,note_off,,,,,26,0,1,,,0,,,73,64
237116,note_on,,,,,1882,0,1,,,0,,,63,57
237122,note_on,,,,,6,0,1,,,0,,,72,57
237174,note_off,,,,,52,0,1,,,0,,,72,64
237182,note_off,,,,,8,0,1,,,0,,,63,64
237374,note_on,,,,,192,0,1,,,0,,,32,38
237416,control_change,,,,,42,0,1,,,0,64,0,,
237420,note_on,,,,,0,0,1,,,0,,,60,50
237420,note_on,,,,,4,0,1,,,0,,,68,50
237484,control_change,,,,,64,0,1,,,0,64,127,,
237498,note_off,,,,,14,0,1,,,0,,,32,64
237700,note_off,,,,,202,0,1,,,0,,,60,64
237700,note_on,,,,,0,0,1,,,0,,,63,48
237704,note_on,,,,,4,0,1,,,0,,,51,47
237844,note_off,,,,,140,0,1,,,0,,,51,64
237876,note_off,,,,,32,0,1,,,0,,,63,64
237878,note_on,,,,,2,0,1,,,0,,,44,57
237896,note_on,,,,,18,0,1,,,0,,,60,49
238038,note_on,,,,,142,0,1,,,0,,,51,50
238046,note_on,,,,,8,0,1,,,0,,,63,48
238054,note_off,,,,,8,0,1,,,0,,,60,64
238124,note_off,,,,,70,0,1,,,0,,,44,64
238210,note_off,,,,,86,0,1,,,0,,,63,64
238220,note_off,,,,,10,0,1,,,0,,,51,64
238230,note_on,,,,,10,0,1,,,0,,,56,53
238238,note_on,,,,,8,0,1,,,0,,,60,41
238376,note_off,,,,,138,0,1,,,0,,,56,64
238408,note_on,,,,,32,0,1,,,0,,,51,52
238412,note_off,,,,,4,0,1,,,0,,,68,64
238416,note_on,,,,,4,0,1,,,0,,,63,52
238418,note_off,,,,,2,0,1,,,0,,,60,64
238442,note_off,,,,,24,0,1,,,0,,,63,64
238490,note_on,,,,,48,0,1,,,0,,,60,54
238558,note_on,,,,,68,0,1,,,0,,,68,59
238614,note_on,,,,,56,0,1,,,0,,,63,45
238660,note_on,,,,,46,0,1,,,0,,,73,72
238694,note_off,,,,,34,0,1,,,0,,,60,64
238712,note_off,,,,,18,0,1,,,0,,,63,64
238716,note_off,,,,,4,0,1,,,0,,,68,64
238890,note_on,,,,,174,0,1,,,0,,,56,53
238928,note_off,,,,,38,0,1,,,0,,,51,64
238950,note_on,,,,,22,0,1,,,0,,,63,57
238968,note_off,,,,,18,0,1,,,0,,,56,64
238982,note_off,,,,,14,0,1,,,0,,,73,64
239034,note_off,,,,,52,0,1,,,0,,,63,64
239052,note_on,,,,,18,0,1,,,0,,,72,69
239088,note_off,,,,,36,0,1,,,0,,,72,64
239166,note_on,,,,,78,0,1,,,0,,,72,66
239346,control_change,,,,,180,0,1,,,0,64,0,,
239362,note_on,,,,,16,0,1,,,0,,,62,59
239368,note_on,,,,,6,0,1,,,0,,,53,56
239426,control_change,,,,,58,0,1,,,0,64,127,,
239530,note_off,,,,,104,0,1,,,0,,,53,64
239548,note_on,,,,,18,0,1,,,0,,,44,57
239550,note_off,,,,,2,0,1,,,0,,,62,64
239554,note_off,,,,,4,0,1,,,0,,,72,64
239556,note_on,,,,,2,0,1,,,0,,,71,75
239562,note_on,,,,,6,0,1,,,0,,,65,36
239590,control_change,,,,,28,0,1,,,0,64,0,,
239608,control_change,,,,,18,0,1,,,0,64,127,,
239690,note_off,,,,,82,0,1,,,0,,,65,64
239710,note_on,,,,,20,0,1,,,0,,,53,52
239720,note_off,,,,,10,0,1,,,0,,,44,64
239720,note_on,,,,,0,0,1,,,0,,,62,44
239750,note_off,,,,,30,0,1,,,0,,,71,64
239808,note_off,,,,,58,0,1,,,0,,,62,64
239834,note_off,,,,,26,0,1,,,0,,,53,64
239858,note_on,,,,,24,0,1,,,0,,,71,71
239860,note_on,,,,,2,0,1,,,0,,,59,55
239864,note_on,,,,,4,0,1,,,0,,,65,56
239972,note_off,,,,,108,0,1,,,0,,,65,64
239974,note_off,,,,,2,0,1,,,0,,,59,64
239996,note_on,,,,,22,0,1,,,0,,,53,49
240002,note_off,,,,,6,0,1,,,0,,,71,64
240004,note_on,,,,,2,0,1,,,0,,,62,54
240076,note_off,,,,,72,0,1,,,0,,,62,64
240148,note_on,,,,,72,0,1,,,0,,,62,47
240154,note_on,,,,,6,0,1,,,0,,,71,78
240244,note_off,,,,,90,0,1,,,0,,,62,64
240306,note_on,,,,,62,0,1,,,0,,,56,52
240312,note_off,,,,,6,0,1,,,0,,,53,64
240316,note_on,,,,,4,0,1,,,0,,,62,54
240332,note_off,,,,,16,0,1,,,0,,,56,64
240338,note_off,,,,,6,0,1,,,0,,,71,64
240344,note_off,,,,,6,0,1,,,0,,,62,64
240512,note_on,,,,,168,0,1,,,0,,,77,74
240548,control_change,,,,,36,0,1,,,0,64,0,,
240572,control_change,,,,,24,0,1,,,0,64,127,,
240584,note_off,,,,,12,0,1,,,0,,,77,64
240720,note_on,,,,,136,0,1,,,0,,,51,52
240720,note_on,,,,,0,0,1,,,0,,,68,48
240722,note_on,,,,,2,0,1,,,0,,,60,39
240810,note_off,,,,,88,0,1,,,0,,,60,64
240852,note_off,,,,,42,0,1,,,0,,,51,64
240868,note_off,,,,,16,0,1,,,0,,,68,64
240870,note_on,,,,,0,0,1,,,0,,,75,55
240870,note_on,,,,,2,0,1,,,0,,,44,59
240886,control_change,,,,,16,0,1,,,0,64,0,,
240932,control_change,,,,,46,0,1,,,0,64,127,,
240984,note_off,,,,,52,0,1,,,0,,,75,64
241042,note_on,,,,,58,0,1,,,0,,,51,59
241044,note_on,,,,,2,0,1,,,0,,,68,56
241050,note_on,,,,,6,0,1,,,0,,,60,42
241134,note_off,,,,,84,0,1,,,0,,,44,64
241206,note_off,,,,,72,0,1,,,0,,,51,64
241208,note_on,,,,,2,0,1,,,0,,,56,61
241220,note_off,,,,,12,0,1,,,0,,,68,64
241224,note_off,,,,,4,0,1,,,0,,,60,64
241352,note_off,,,,,128,0,1,,,0,,,56,64
241390,note_on,,,,,38,0,1,,,0,,,51,50
241410,note_on,,,,,20,0,1,,,0,,,68,58
241412,note_on,,,,,2,0,1,,,0,,,60,49
241536,note_off,,,,,124,0,1,,,0,,,60,64
241574,note_on,,,,,38,0,1,,,0,,,63,59
241594,note_on,,,,,20,0,1,,,0,,,73,76
241620,note_off,,,,,26,0,1,,,0,,,68,64
241660,note_off,,,,,40,0,1,,,0,,,63,64
241804,note_off,,,,,144,0,1,,,0,,,51,64
241804,note_on,,,,,0,0,1,,,0,,,56,57
241844,note_off,,,,,40,0,1,,,0,,,56,64
241848,note_on,,,,,4,0,1,,,0,,,63,59
241856,note_on,,,,,8,0,1,,,0,,,68,62
241880,note_off,,,,,24,0,1,,,0,,,73,64
241928,note_on,,,,,48,0,1,,,0,,,72,71
241930,note_off,,,,,2,0,1,,,0,,,63,64
241940,note_off,,,,,10,0,1,,,0,,,68,64
241964,note_off,,,,,24,0,1,,,0,,,72,64
242016,note_on,,,,,52,0,1,,,0,,,72,68
242164,control_change,,,,,148,0,1,,,0,64,0,,
242192,note_on,,,,,28,0,1,,,0,,,65,36
242194,note_on,,,,,2,0,1,,,0,,,62,54
242196,note_on,,,,,2,0,1,,,0,,,53,59
242244,control_change,,,,,48,0,1,,,0,64,127,,
242296,note_off,,,,,52,0,1,,,0,,,72,64
242322,note_off,,,,,26,0,1,,,0,,,53,64
242334,note_off,,,,,12,0,1,,,0,,,62,64
242336,note_on,,,,,2,0,1,,,0,,,70,63
242340,note_on,,,,,4,0,1,,,0,,,44,65
242350,note_off,,,,,10,0,1,,,0,,,65,64
242488,note_on,,,,,138,0,1,,,0,,,58,60
242494,note_on,,,,,6,0,1,,,0,,,53,51
242500,note_on,,,,,6,0,1,,,0,,,65,47
242504,note_on,,,,,4,0,1,,,0,,,62,47
242510,note_off,,,,,6,0,1,,,0,,,44,64
242536,note_off,,,,,26,0,1,,,0,,,53,64
242542,note_off,,,,,6,0,1,,,0,,,58,64
242604,note_off,,,,,62,0,1,,,0,,,62,64
242644,note_on,,,,,40,0,1,,,0,,,72,69
242648,note_off,,,,,4,0,1,,,0,,,65,64
242662,note_off,,,,,14,0,1,,,0,,,70,64
242728,control_change,,,,,66,0,1,,,0,64,0,,
242814,note_on,,,,,86,0,1,,,0,,,55,37
242818,note_on,,,,,4,0,1,,,0,,,64,47
242820,note_on,,,,,2,0,1,,,0,,,52,37
242824,note_on,,,,,4,0,1,,,0,,,61,39
242828,control_change,,,,,4,0,1,,,0,64,127,,
242838,note_off,,,,,10,0,1,,,0,,,72,64
242864,note_off,,,,,26,0,1,,,0,,,55,64
242978,note_on,,,,,114,0,1,,,0,,,44,60
242982,note_off,,,,,4,0,1,,,0,,,52,64
242982,note_on,,,,,0,0,1,,,0,,,73,68
242982,note_off,,,,,0,0,1,,,0,,,61,64
242992,note_off,,,,,10,0,1,,,0,,,64,64
243020,note_off,,,,,28,0,1,,,0,,,44,64
243168,note_on,,,,,148,0,1,,,0,,,58,53
243172,note_on,,,,,4,0,1,,,0,,,64,45
243172,note_on,,,,,0,0,1,,,0,,,61,29
243176,note_on,,,,,4,0,1,,,0,,,55,49
243192,note_off,,,,,16,0,1,,,0,,,55,64
243208,note_off,,,,,16,0,1,,,0,,,58,64
243222,note_off,,,,,14,0,1,,,0,,,73,64
243270,note_on,,,,,48,0,1,,,0,,,67,60
243288,note_off,,,,,18,0,1,,,0,,,61,64
243322,note_off,,,,,34,0,1,,,0,,,64,64
243398,note_on,,,,,76,0,1,,,0,,,70,74
243406,note_off,,,,,8,0,1,,,0,,,67,64
243488,control_change,,,,,82,0,1,,,0,64,0,,
243564,note_on,,,,,0,0,1,,,0,,,63,49
243564,note_on,,,,,76,0,1,,,0,,,51,58
243574,note_on,,,,,10,0,1,,,0,,,60,39
243602,control_change,,,,,28,0,1,,,0,64,127,,
243720,note_off,,,,,118,0,1,,,0,,,51,64
243734,note_on,,,,,14,0,1,,,0,,,44,51
243738,note_off,,,,,4,0,1,,,0,,,63,64
243740,note_on,,,,,2,0,1,,,0,,,68,58
243742,note_off,,,,,2,0,1,,,0,,,60,64
243760,note_off,,,,,18,0,1,,,0,,,70,64
243772,control_change,,,,,12,0,1,,,0,64,0,,
243798,control_change,,,,,26,0,1,,,0,64,127,,
243916,note_on,,,,,118,0,1,,,0,,,51,52
243918,note_on,,,,,2,0,1,,,0,,,63,42
243924,note_on,,,,,6,0,1,,,0,,,60,33
244060,note_off,,,,,136,0,1,,,0,,,63,64
244076,note_off,,,,,16,0,1,,,0,,,44,64
244088,note_off,,,,,12,0,1,,,0,,,60,64
244116,note_on,,,,,0,0,1,,,0,,,56,40
244116,note_off,,,,,28,0,1,,,0,,,51,64
244286,note_off,,,,,170,0,1,,,0,,,56,64
244308,note_on,,,,,22,0,1,,,0,,,51,44
244324,note_on,,,,,16,0,1,,,0,,,63,45
244332,note_on,,,,,8,0,1,,,0,,,60,34
244362,note_off,,,,,0,0,1,,,0,,,68,64
244362,note_off,,,,,30,0,1,,,0,,,60,64
244366,note_off,,,,,4,0,1,,,0,,,63,64
244530,note_on,,,,,164,0,1,,,0,,,73,70
244530,note_on,,,,,0,0,1,,,0,,,63,49
244632,note_off,,,,,102,0,1,,,0,,,63,64
244734,note_off,,,,,102,0,1,,,0,,,51,64
244744,note_on,,,,,10,0,1,,,0,,,56,45
244768,note_on,,,,,24,0,1,,,0,,,68,52
244784,note_on,,,,,16,0,1,,,0,,,60,24
244792,note_off,,,,,8,0,1,,,0,,,56,64
244794,note_off,,,,,2,0,1,,,0,,,73,64
244868,note_off,,,,,74,0,1,,,0,,,60,64
244874,note_off,,,,,6,0,1,,,0,,,68,64
244876,note_on,,,,,2,0,1,,,0,,,72,62
244912,note_off,,,,,36,0,1,,,0,,,72,64
244976,note_on,,,,,64,0,1,,,0,,,72,71
245052,control_change,,,,,76,0,1,,,0,64,0,,
245156,note_on,,,,,104,0,1,,,0,,,62,40
245158,note_on,,,,,2,0,1,,,0,,,53,51
245160,note_on,,,,,2,0,1,,,0,,,65,30
245162,control_change,,,,,2,0,1,,,0,64,127,,
245280,note_off,,,,,0,0,1,,,0,,,62,64
245280,note_off,,,,,118,0,1,,,0,,,53,64
245304,note_off,,,,,24,0,1,,,0,,,72,64
245314,note_on,,,,,0,0,1,,,0,,,44,54
245314,note_on,,,,,10,0,1,,,0,,,71,71
245320,note_off,,,,,6,0,1,,,0,,,65,64
245460,note_off,,,,,140,0,1,,,0,,,44,64
245464,note_on,,,,,4,0,1,,,0,,,53,48
245470,note_on,,,,,6,0,1,,,0,,,62,44
245476,note_on,,,,,6,0,1,,,0,,,65,40
245488,note_off,,,,,12,0,1,,,0,,,71,64
245562,note_off,,,,,74,0,1,,,0,,,62,64
245578,note_off,,,,,16,0,1,,,0,,,53,64
245608,note_on,,,,,30,0,1,,,0,,,59,63
245610,note_on,,,,,2,0,1,,,0,,,71,77
245612,note_off,,,,,2,0,1,,,0,,,65,64
245730,note_off,,,,,118,0,1,,,0,,,59,64
245748,note_on,,,,,18,0,1,,,0,,,53,63
245752,note_on,,,,,4,0,1,,,0,,,65,66
245754,note_on,,,,,2,0,1,,,0,,,62,60
245780,note_off,,,,,26,0,1,,,0,,,71,64
245830,note_off,,,,,50,0,1,,,0,,,62,64
245876,note_off,,,,,46,0,1,,,0,,,65,64
245898,note_on,,,,,22,0,1,,,0,,,62,61
245902,note_on,,,,,4,0,1,,,0,,,71,78
245978,note_off,,,,,76,0,1,,,0,,,62,64
246048,note_on,,,,,70,0,1,,,0,,,56,62
246060,note_on,,,,,0,0,1,,,0,,,65,68
246060,note_on,,,,,12,0,1,,,0,,,62,65
246064,note_off,,,,,4,0,1,,,0,,,53,64
246074,note_off,,,,,10,0,1,,,0,,,62,64
246074,note_off,,,,,0,0,1,,,0,,,71,64
246084,note_off,,,,,10,0,1,,,0,,,56,64
246086,note_off,,,,,2,0,1,,,0,,,65,64
246252,note_on,,,,,166,0,1,,,0,,,80,90
246266,control_change,,,,,14,0,1,,,0,64,0,,
246300,control_change,,,,,34,0,1,,,0,64,127,,
246332,note_off,,,,,32,0,1,,,0,,,80,64
246440,note_on,,,,,108,0,1,,,0,,,54,60
246452,note_on,,,,,12,0,1,,,0,,,71,63
246452,note_on,,,,,0,0,1,,,0,,,63,60
246544,note_off,,,,,92,0,1,,,0,,,63,64
246548,note_off,,,,,4,0,1,,,0,,,54,64
246592,note_on,,,,,44,0,1,,,0,,,42,60
246598,note_on,,,,,6,0,1,,,0,,,78,72
246608,note_off,,,,,10,0,1,,,0,,,71,64
246620,control_change,,,,,12,0,1,,,0,64,0,,
246658,control_change,,,,,38,0,1,,,0,64,127,,
246748,note_on,,,,,90,0,1,,,0,,,54,58
246760,note_off,,,,,12,0,1,,,0,,,42,64
246760,note_on,,,,,0,0,1,,,0,,,71,62
246760,note_on,,,,,0,0,1,,,0,,,63,52
246786,note_off,,,,,26,0,1,,,0,,,54,64
246914,note_off,,,,,128,0,1,,,0,,,63,64
246924,note_off,,,,,10,0,1,,,0,,,71,64
246930,note_on,,,,,6,0,1,,,0,,,59,67
247100,note_on,,,,,0,0,1,,,0,,,54,62
247100,note_off,,,,,170,0,1,,,0,,,59,64
247110,note_on,,,,,10,0,1,,,0,,,71,63
247114,note_on,,,,,4,0,1,,,0,,,63,59
247122,note_off,,,,,8,0,1,,,0,,,78,64
247216,note_off,,,,,94,0,1,,,0,,,63,64
247296,note_on,,,,,80,0,1,,,0,,,66,59
247302,note_off,,,,,6,0,1,,,0,,,71,64
247304,note_on,,,,,2,0,1,,,0,,,76,68
247386,note_off,,,,,82,0,1,,,0,,,66,64
247520,note_on,,,,,134,0,1,,,0,,,59,43
247540,note_off,,,,,20,0,1,,,0,,,59,64
247540,note_on,,,,,0,0,1,,,0,,,63,59
247540,note_on,,,,,0,0,1,,,0,,,71,62
247546,note_off,,,,,6,0,1,,,0,,,54,64
247570,note_off,,,,,24,0,1,,,0,,,76,64
247610,note_off,,,,,40,0,1,,,0,,,63,64
247622,note_on,,,,,12,0,1,,,0,,,75,70
247626,note_off,,,,,4,0,1,,,0,,,71,64
247652,note_off,,,,,26,0,1,,,0,,,75,64
247704,note_on,,,,,52,0,1,,,0,,,75,80
247864,note_on,,,,,160,0,1,,,0,,,42,47
247870,control_change,,,,,6,0,1,,,0,64,0,,
247880,note_on,,,,,0,0,1,,,0,,,64,61
247880,note_on,,,,,10,0,1,,,0,,,70,59
247916,note_off,,,,,36,0,1,,,0,,,75,64
247936,control_change,,,,,20,0,1,,,0,64,127,,
248036,note_on,,,,,100,0,1,,,0,,,73,67
248040,note_off,,,,,4,0,1,,,0,,,70,64
248040,note_off,,,,,0,0,1,,,0,,,42,64
248048,note_on,,,,,8,0,1,,,0,,,52,37
248052,note_off,,,,,4,0,1,,,0,,,64,64
248214,note_on,,,,,162,0,1,,,0,,,58,62
248216,note_on,,,,,2,0,1,,,0,,,64,51
248218,note_on,,,,,2,0,1,,,0,,,70,54
248230,note_off,,,,,12,0,1,,,0,,,52,64
248238,note_off,,,,,8,0,1,,,0,,,73,64
248244,note_off,,,,,6,0,1,,,0,,,58,64
248366,note_off,,,,,122,0,1,,,0,,,64,64
248390,note_off,,,,,24,0,1,,,0,,,70,64
248396,note_on,,,,,6,0,1,,,0,,,73,62
248492,note_on,,,,,96,0,1,,,0,,,40,56
248504,control_change,,,,,12,0,1,,,0,64,0,,
248538,control_change,,,,,34,0,1,,,0,64,127,,
248562,note_off,,,,,24,0,1,,,0,,,40,64
248588,note_on,,,,,26,0,1,,,0,,,69,59
248594,note_on,,,,,6,0,1,,,0,,,61,42
248596,note_on,,,,,2,0,1,,,0,,,57,31
248600,note_off,,,,,4,0,1,,,0,,,73,64
248616,note_off,,,,,16,0,1,,,0,,,57,64
248710,note_off,,,,,94,0,1,,,0,,,69,64
248726,note_off,,,,,16,0,1,,,0,,,61,64
248770,note_on,,,,,44,0,1,,,0,,,73,61
248896,note_on,,,,,126,0,1,,,0,,,40,51
248898,control_change,,,,,2,0,1,,,0,64,0,,
248936,control_change,,,,,38,0,1,,,0,64,127,,
248974,note_off,,,,,38,0,1,,,0,,,40,64
249008,note_on,,,,,34,0,1,,,0,,,56,33
249016,note_on,,,,,8,0,1,,,0,,,61,53
249020,note_on,,,,,4,0,1,,,0,,,68,59
249052,note_off,,,,,32,0,1,,,0,,,56,64
249088,note_off,,,,,36,0,1,,,0,,,73,64
249126,note_off,,,,,38,0,1,,,0,,,68,64
249134,note_off,,,,,8,0,1,,,0,,,61,64
249240,note_on,,,,,106,0,1,,,0,,,73,59
249302,control_change,,,,,62,0,1,,,0,64,0,,
249424,note_on,,,,,122,0,1,,,0,,,39,41
249428,note_on,,,,,4,0,1,,,0,,,68,60
249430,note_on,,,,,2,0,1,,,0,,,61,47
249432,note_on,,,,,2,0,1,,,0,,,65,55
249436,control_change,,,,,4,0,1,,,0,64,127,,
249460,note_off,,,,,24,0,1,,,0,,,61,64
249472,note_off,,,,,12,0,1,,,0,,,68,64
249474,note_off,,,,,2,0,1,,,0,,,65,64
249510,note_off,,,,,36,0,1,,,0,,,39,64
249604,note_on,,,,,94,0,1,,,0,,,61,60
249616,note_on,,,,,12,0,1,,,0,,,56,63
249618,note_on,,,,,2,0,1,,,0,,,68,62
249620,note_on,,,,,2,0,1,,,0,,,53,59
249624,note_on,,,,,4,0,1,,,0,,,65,44
249642,note_off,,,,,18,0,1,,,0,,,56,64
249648,note_off,,,,,0,0,1,,,0,,,61,64
249648,note_off,,,,,6,0,1,,,0,,,53,64
249660,note_off,,,,,12,0,1,,,0,,,65,64
249666,note_off,,,,,6,0,1,,,0,,,68,64
249776,note_on,,,,,110,0,1,,,0,,,68,49
249780,note_on,,,,,4,0,1,,,0,,,65,45
249820,note_off,,,,,40,0,1,,,0,,,65,64
249826,note_off,,,,,6,0,1,,,0,,,68,64
249842,note_on,,,,,16,0,1,,,0,,,51,70
249844,note_on,,,,,0,0,1,,,0,,,56,69
249844,note_on,,,,,2,0,1,,,0,,,60,62
249868,note_off,,,,,24,0,1,,,0,,,60,64
249872,note_off,,,,,4,0,1,,,0,,,51,64
249874,note_off,,,,,2,0,1,,,0,,,56,64
249920,note_on,,,,,46,0,1,,,0,,,56,65
249924,note_on,,,,,4,0,1,,,0,,,51,77
249926,note_on,,,,,2,0,1,,,0,,,68,72
249930,note_on,,,,,4,0,1,,,0,,,60,56
249930,note_on,,,,,0,0,1,,,0,,,65,59
249960,note_off,,,,,30,0,1,,,0,,,60,64
249966,note_off,,,,,6,0,1,,,0,,,51,64
249968,note_off,,,,,2,0,1,,,0,,,65,64
249968,note_off,,,,,0,0,1,,,0,,,68,64
249998,note_off,,,,,30,0,1,,,0,,,56,64
250062,note_on,,,,,64,0,1,,,0,,,68,71
250066,note_on,,,,,4,0,1,,,0,,,65,67
250082,note_off,,,,,16,0,1,,,0,,,73,64
250116,note_off,,,,,34,0,1,,,0,,,65,64
250140,note_off,,,,,24,0,1,,,0,,,68,64
250198,note_on,,,,,0,0,1,,,0,,,49,70
250198,note_on,,,,,58,0,1,,,0,,,58,74
250204,note_on,,,,,6,0,1,,,0,,,73,87
250216,control_change,,,,,12,0,1,,,0,64,0,,
250218,note_on,,,,,2,0,1,,,0,,,53,47
250226,control_change,,,,,8,0,1,,,0,64,127,,
250232,note_off,,,,,6,0,1,,,0,,,58,64
250234,note_off,,,,,2,0,1,,,0,,,53,64
250242,note_off,,,,,8,0,1,,,0,,,49,64
250306,note_off,,,,,64,0,1,,,0,,,73,64
250342,note_on,,,,,36,0,1,,,0,,,68,76
250346,note_on,,,,,4,0,1,,,0,,,65,67
250360,note_off,,,,,14,0,1,,,0,,,65,64
250370,note_off,,,,,10,0,1,,,0,,,68,64
250494,note_on,,,,,124,0,1,,,0,,,77,84
250538,control_change,,,,,44,0,1,,,0,64,0,,
250624,note_on,,,,,86,0,1,,,0,,,39,68
250628,note_on,,,,,4,0,1,,,0,,,68,77
250630,control_change,,,,,2,0,1,,,0,64,127,,
250632,note_on,,,,,2,0,1,,,0,,,65,67
250634,note_on,,,,,2,0,1,,,0,,,73,71
250650,note_off,,,,,16,0,1,,,0,,,65,64
250662,note_off,,,,,12,0,1,,,0,,,68,64
250674,note_off,,,,,12,0,1,,,0,,,73,64
250702,note_off,,,,,28,0,1,,,0,,,39,64
250780,note_on,,,,,78,0,1,,,0,,,56,72
250782,note_on,,,,,2,0,1,,,0,,,68,75
250782,note_on,,,,,0,0,1,,,0,,,73,72
250784,note_on,,,,,2,0,1,,,0,,,61,69
250784,note_on,,,,,0,0,1,,,0,,,65,66
250812,note_off,,,,,28,0,1,,,0,,,56,64
250816,note_off,,,,,4,0,1,,,0,,,65,64
250816,note_off,,,,,0,0,1,,,0,,,61,64
250818,note_off,,,,,2,0,1,,,0,,,68,64
250832,note_off,,,,,14,0,1,,,0,,,73,64
250920,note_on,,,,,0,0,1,,,0,,,68,71
250920,note_on,,,,,88,0,1,,,0,,,73,72
250924,note_on,,,,,4,0,1,,,0,,,65,65
250940,note_off,,,,,16,0,1,,,0,,,65,64
250950,note_off,,,,,10,0,1,,,0,,,68,64
250962,note_on,,,,,12,0,1,,,0,,,61,68
250966,note_off,,,,,4,0,1,,,0,,,73,64
250972,note_on,,,,,6,0,1,,,0,,,56,72
250976,note_on,,,,,4,0,1,,,0,,,53,61
250988,note_off,,,,,0,0,1,,,0,,,56,64
250988,note_off,,,,,12,0,1,,,0,,,53,64
250990,note_off,,,,,2,0,1,,,0,,,61,64
251038,control_change,,,,,48,0,1,,,0,64,0,,
251042,note_on,,,,,4,0,1,,,0,,,61,76
251048,note_on,,,,,6,0,1,,,0,,,68,77
251048,note_on,,,,,0,0,1,,,0,,,73,74
251050,note_on,,,,,0,0,1,,,0,,,53,66
251050,note_on,,,,,2,0,1,,,0,,,56,77
251054,note_on,,,,,4,0,1,,,0,,,65,66
251058,control_change,,,,,4,0,1,,,0,64,127,,
251082,note_off,,,,,24,0,1,,,0,,,65,64
251084,note_off,,,,,2,0,1,,,0,,,53,64
251086,note_off,,,,,2,0,1,,,0,,,61,64
251088,note_off,,,,,2,0,1,,,0,,,56,64
251092,note_off,,,,,4,0,1,,,0,,,68,64
251108,note_off,,,,,16,0,1,,,0,,,73,64
251190,note_on,,,,,82,0,1,,,0,,,68,79
251192,note_on,,,,,0,0,1,,,0,,,51,87
251192,note_on,,,,,2,0,1,,,0,,,73,70
251196,control_change,,,,,4,0,1,,,0,64,0,,
251198,note_on,,,,,0,0,1,,,0,,,60,68
251198,note_on,,,,,2,0,1,,,0,,,65,70
251218,control_change,,,,,20,0,1,,,0,64,127,,
251234,note_off,,,,,16,0,1,,,0,,,60,64
251240,note_off,,,,,6,0,1,,,0,,,51,64
251242,note_off,,,,,2,0,1,,,0,,,65,64
251262,note_off,,,,,20,0,1,,,0,,,77,64
251290,note_off,,,,,28,0,1,,,0,,,68,64
251292,note_off,,,,,2,0,1,,,0,,,73,64
251342,control_change,,,,,50,0,1,,,0,64,0,,
251348,note_on,,,,,6,0,1,,,0,,,77,90
251354,control_change,,,,,6,0,1,,,0,64,127,,
251500,note_on,,,,,0,0,1,,,0,,,73,78
251500,note_on,,,,,146,0,1,,,0,,,58,74
251500,note_on,,,,,0,0,1,,,0,,,68,79
251502,note_on,,,,,2,0,1,,,0,,,65,72
251504,note_on,,,,,2,0,1,,,0,,,49,76
251508,control_change,,,,,4,0,1,,,0,64,0,,
251512,note_on,,,,,4,0,1,,,0,,,53,78
251516,control_change,,,,,4,0,1,,,0,64,127,,
251528,note_off,,,,,12,0,1,,,0,,,77,64
251530,note_off,,,,,0,0,1,,,0,,,65,64
251530,note_off,,,,,2,0,1,,,0,,,68,64
251536,note_off,,,,,6,0,1,,,0,,,58,64
251544,note_off,,,,,8,0,1,,,0,,,49,64
251544,note_off,,,,,0,0,1,,,0,,,53,64
251548,note_off,,,,,4,0,1,,,0,,,73,64
251760,note_on,,,,,212,0,1,,,0,,,65,85
251762,note_on,,,,,2,0,1,,,0,,,80,92
251764,note_on,,,,,2,0,1,,,0,,,71,79
251768,note_on,,,,,4,0,1,,,0,,,74,82
251820,control_change,,,,,52,0,1,,,0,64,0,,
251948,note_on,,,,,128,0,1,,,0,,,39,78
251954,control_change,,,,,6,0,1,,,0,64,127,,
251984,note_off,,,,,30,0,1,,,0,,,39,64
251994,note_off,,,,,10,0,1,,,0,,,65,64
252028,note_off,,,,,34,0,1,,,0,,,71,64
252216,note_on,,,,,188,0,1,,,0,,,71,86
252222,note_on,,,,,6,0,1,,,0,,,62,83
252224,note_on,,,,,0,0,1,,,0,,,65,76
252224,note_on,,,,,2,0,1,,,0,,,56,87
252384,note_off,,,,,160,0,1,,,0,,,71,64
252400,note_off,,,,,16,0,1,,,0,,,80,64
252404,note_off,,,,,4,0,1,,,0,,,65,64
252408,note_off,,,,,4,0,1,,,0,,,56,64
252416,note_off,,,,,8,0,1,,,0,,,62,64
252430,note_off,,,,,14,0,1,,,0,,,74,64
252878,note_on,,,,,448,0,1,,,0,,,61,38
252880,note_on,,,,,2,0,1,,,0,,,70,60
252884,note_on,,,,,4,0,1,,,0,,,64,61
252894,control_change,,,,,10,0,1,,,0,64,0,,
252896,note_on,,,,,2,0,1,,,0,,,55,42
252934,control_change,,,,,38,0,1,,,0,64,127,,
252954,note_off,,,,,20,0,1,,,0,,,64,64
252960,note_off,,,,,6,0,1,,,0,,,61,64
252962,note_off,,,,,2,0,1,,,0,,,55,64
252966,note_off,,,,,4,0,1,,,0,,,70,64
253030,note_on,,,,,64,0,1,,,0,,,55,45
253036,note_on,,,,,6,0,1,,,0,,,61,45
253040,note_on,,,,,4,0,1,,,0,,,70,56
253044,note_on,,,,,4,0,1,,,0,,,64,53
253092,note_off,,,,,48,0,1,,,0,,,61,64
253100,note_off,,,,,0,0,1,,,0,,,55,64
253100,note_off,,,,,8,0,1,,,0,,,70,64
253108,note_off,,,,,8,0,1,,,0,,,64,64
253144,note_on,,,,,36,0,1,,,0,,,69,64
253148,note_on,,,,,4,0,1,,,0,,,54,60
253150,note_on,,,,,2,0,1,,,0,,,63,61
253154,control_change,,,,,4,0,1,,,0,64,0,,
253156,note_on,,,,,2,0,1,,,0,,,60,42
253164,control_change,,,,,8,0,1,,,0,64,127,,
253168,note_off,,,,,4,0,1,,,0,,,63,64
253178,note_off,,,,,10,0,1,,,0,,,69,64
253180,note_off,,,,,2,0,1,,,0,,,60,64
253180,note_off,,,,,0,0,1,,,0,,,54,64
253232,control_change,,,,,52,0,1,,,0,64,0,,
253248,control_change,,,,,0,0,1,,,0,64,127,,
253248,note_on,,,,,16,0,1,,,0,,,59,61
253252,note_on,,,,,0,0,1,,,0,,,74,74
253252,note_on,,,,,4,0,1,,,0,,,68,69
253256,note_on,,,,,4,0,1,,,0,,,65,61
253274,note_off,,,,,18,0,1,,,0,,,74,64
253280,note_off,,,,,6,0,1,,,0,,,68,64
253284,note_off,,,,,4,0,1,,,0,,,59,64
253292,note_off,,,,,8,0,1,,,0,,,65,64
253334,control_change,,,,,42,0,1,,,0,64,0,,
253350,note_on,,,,,16,0,1,,,0,,,59,71
253352,note_on,,,,,2,0,1,,,0,,,74,63
253352,note_on,,,,,0,0,1,,,0,,,65,69
253356,note_on,,,,,4,0,1,,,0,,,68,66
253360,control_change,,,,,4,0,1,,,0,64,127,,
253388,note_off,,,,,28,0,1,,,0,,,65,64
253390,note_off,,,,,2,0,1,,,0,,,59,64
253432,note_on,,,,,42,0,1,,,0,,,64,61
253434,note_on,,,,,2,0,1,,,0,,,67,65
253436,note_on,,,,,2,0,1,,,0,,,73,80
253438,note_off,,,,,2,0,1,,,0,,,68,64
253444,note_on,,,,,6,0,1,,,0,,,58,67
253448,control_change,,,,,4,0,1,,,0,64,0,,
253450,note_off,,,,,2,0,1,,,0,,,67,64
253450,note_off,,,,,0,0,1,,,0,,,74,64
253460,note_off,,,,,10,0,1,,,0,,,58,64
253464,note_off,,,,,4,0,1,,,0,,,73,64
253468,note_off,,,,,4,0,1,,,0,,,64,64
253472,control_change,,,,,4,0,1,,,0,64,127,,
253530,control_change,,,,,58,0,1,,,0,64,0,,
253536,note_on,,,,,6,0,1,,,0,,,69,67
253536,note_on,,,,,0,0,1,,,0,,,63,69
253540,note_on,,,,,4,0,1,,,0,,,72,57
253544,note_on,,,,,4,0,1,,,0,,,78,69
253552,control_change,,,,,8,0,1,,,0,64,127,,
253570,note_off,,,,,18,0,1,,,0,,,63,64
253572,note_off,,,,,2,0,1,,,0,,,69,64
253574,note_off,,,,,2,0,1,,,0,,,72,64
253608,note_off,,,,,34,0,1,,,0,,,78,64
253620,control_change,,,,,12,0,1,,,0,64,0,,
253632,note_on,,,,,12,0,1,,,0,,,63,53
253636,note_on,,,,,4,0,1,,,0,,,78,69
253640,note_on,,,,,4,0,1,,,0,,,69,67
253644,note_on,,,,,4,0,1,,,0,,,72,55
253648,control_change,,,,,4,0,1,,,0,64,127,,
253682,note_off,,,,,34,0,1,,,0,,,69,64
253692,note_off,,,,,10,0,1,,,0,,,63,64
253700,note_off,,,,,8,0,1,,,0,,,78,64
253702,note_off,,,,,2,0,1,,,0,,,72,64
253720,control_change,,,,,18,0,1,,,0,64,0,,
253732,note_on,,,,,12,0,1,,,0,,,68,67
253738,note_on,,,,,6,0,1,,,0,,,77,60
253740,note_on,,,,,2,0,1,,,0,,,62,57
253740,note_on,,,,,0,0,1,,,0,,,71,57
253752,control_change,,,,,12,0,1,,,0,64,127,,
253758,note_off,,,,,6,0,1,,,0,,,71,64
253762,note_off,,,,,4,0,1,,,0,,,62,64
253776,note_off,,,,,14,0,1,,,0,,,77,64
253776,note_off,,,,,0,0,1,,,0,,,68,64
253832,control_change,,,,,56,0,1,,,0,64,0,,
253846,note_on,,,,,14,0,1,,,0,,,82,76
253852,note_on,,,,,0,0,1,,,0,,,76,49
253852,note_on,,,,,6,0,1,,,0,,,73,67
253852,note_on,,,,,0,0,1,,,0,,,67,56
253864,control_change,,,,,12,0,1,,,0,64,127,,
253872,note_off,,,,,0,0,1,,,0,,,73,64
253872,note_off,,,,,8,0,1,,,0,,,67,64
253886,note_off,,,,,14,0,1,,,0,,,76,64
253892,note_off,,,,,6,0,1,,,0,,,82,64
253938,control_change,,,,,46,0,1,,,0,64,0,,
253972,note_on,,,,,34,0,1,,,0,,,73,61
253976,control_change,,,,,4,0,1,,,0,64,127,,
253978,note_on,,,,,0,0,1,,,0,,,82,72
253978,note_on,,,,,2,0,1,,,0,,,67,58
253984,note_on,,,,,6,0,1,,,0,,,76,55
254020,note_off,,,,,36,0,1,,,0,,,67,64
254026,note_off,,,,,6,0,1,,,0,,,73,64
254048,note_off,,,,,22,0,1,,,0,,,82,64
254066,note_off,,,,,18,0,1,,,0,,,76,64
254100,control_change,,,,,34,0,1,,,0,64,0,,
254112,note_on,,,,,12,0,1,,,0,,,66,64
254112,note_on,,,,,0,0,1,,,0,,,75,64
254114,note_on,,,,,2,0,1,,,0,,,81,64
254116,note_on,,,,,2,0,1,,,0,,,72,64
254126,control_change,,,,,10,0,1,,,0,64,127,,
254140,note_off,,,,,0,0,1,,,0,,,66,64
254140,note_off,,,,,14,0,1,,,0,,,75,64
254148,note_off,,,,,8,0,1,,,0,,,72,64
254148,note_off,,,,,0,0,1,,,0,,,81,64
254300,note_on,,,,,152,0,1,,,0,,,86,77
254302,note_on,,,,,2,0,1,,,0,,,80,70
254308,control_change,,,,,0,0,1,,,0,64,0,,
254308,note_on,,,,,0,0,1,,,0,,,77,69
254308,note_on,,,,,6,0,1,,,0,,,71,71
254344,control_change,,,,,36,0,1,,,0,64,127,,
254352,note_off,,,,,8,0,1,,,0,,,77,64
254364,note_off,,,,,12,0,1,,,0,,,71,64
254424,note_off,,,,,60,0,1,,,0,,,86,64
254426,note_off,,,,,2,0,1,,,0,,,80,64
254568,note_on,,,,,142,0,1,,,0,,,86,70
254570,note_on,,,,,2,0,1,,,0,,,80,69
254572,note_on,,,,,2,0,1,,,0,,,71,69
254576,note_on,,,,,4,0,1,,,0,,,77,54
254608,control_change,,,,,32,0,1,,,0,64,0,,
254682,control_change,,,,,74,0,1,,,0,64,127,,
254696,note_off,,,,,14,0,1,,,0,,,77,64
254722,note_off,,,,,26,0,1,,,0,,,71,64
254900,control_change,,,,,178,0,1,,,0,64,0,,
254908,note_on,,,,,8,0,1,,,0,,,39,87
254946,note_off,,,,,38,0,1,,,0,,,86,64
254960,control_change,,,,,14,0,1,,,0,64,127,,
254962,note_off,,,,,2,0,1,,,0,,,80,64
255106,note_off,,,,,144,0,1,,,0,,,39,64
255152,note_on,,,,,46,0,1,,,0,,,51,84
255242,note_on,,,,,90,0,1,,,0,,,58,65
255272,note_on,,,,,30,0,1,,,0,,,61,62
255328,note_on,,,,,56,0,1,,,0,,,67,67
255338,note_off,,,,,10,0,1,,,0,,,61,64
255344,note_off,,,,,6,0,1,,,0,,,58,64
255356,note_off,,,,,12,0,1,,,0,,,67,64
255358,note_off,,,,,2,0,1,,,0,,,51,64
255384,note_on,,,,,26,0,1,,,0,,,73,68
255446,note_on,,,,,0,0,1,,,0,,,79,67
255446,note_off,,,,,62,0,1,,,0,,,73,64
255496,note_off,,,,,50,0,1,,,0,,,79,64
255600,note_on,,,,,104,0,1,,,0,,,89,72
255822,note_off,,,,,222,0,1,,,0,,,89,64
256078,note_on,,,,,256,0,1,,,0,,,88,62
256080,note_on,,,,,2,0,1,,,0,,,82,59
256084,note_on,,,,,4,0,1,,,0,,,73,63
256088,note_on,,,,,4,0,1,,,0,,,79,51
256108,control_change,,,,,20,0,1,,,0,64,0,,
256132,control_change,,,,,24,0,1,,,0,64,127,,
256146,note_off,,,,,14,0,1,,,0,,,79,64
256150,note_off,,,,,4,0,1,,,0,,,73,64
256166,note_off,,,,,16,0,1,,,0,,,88,64
256168,note_off,,,,,2,0,1,,,0,,,82,64
256260,note_on,,,,,92,0,1,,,0,,,88,61
256262,note_on,,,,,2,0,1,,,0,,,82,57
256262,note_on,,,,,0,0,1,,,0,,,79,61
256268,note_on,,,,,6,0,1,,,0,,,73,53
256270,control_change,,,,,2,0,1,,,0,64,0,,
256288,control_change,,,,,18,0,1,,,0,64,127,,
256316,note_off,,,,,28,0,1,,,0,,,79,64
256328,note_off,,,,,12,0,1,,,0,,,73,64
256330,note_off,,,,,2,0,1,,,0,,,88,64
256364,note_off,,,,,34,0,1,,,0,,,82,64
256368,note_on,,,,,4,0,1,,,0,,,87,70
256372,note_on,,,,,4,0,1,,,0,,,78,54
256376,note_on,,,,,4,0,1,,,0,,,81,32
256388,note_off,,,,,12,0,1,,,0,,,81,64
256394,note_on,,,,,6,0,1,,,0,,,72,40
256402,note_off,,,,,8,0,1,,,0,,,87,64
256408,note_off,,,,,6,0,1,,,0,,,72,64
256412,note_off,,,,,4,0,1,,,0,,,78,64
256444,control_change,,,,,32,0,1,,,0,64,0,,
256462,note_on,,,,,18,0,1,,,0,,,92,78
256464,control_change,,,,,2,0,1,,,0,64,127,,
256470,note_on,,,,,6,0,1,,,0,,,71,56
256472,note_on,,,,,0,0,1,,,0,,,77,44
256472,note_on,,,,,2,0,1,,,0,,,86,58
256488,note_off,,,,,0,0,1,,,0,,,71,64
256488,note_off,,,,,0,0,1,,,0,,,86,64
256488,note_off,,,,,16,0,1,,,0,,,77,64
256494,note_off,,,,,6,0,1,,,0,,,92,64
256546,control_change,,,,,52,0,1,,,0,64,0,,
256552,note_on,,,,,6,0,1,,,0,,,92,66
256556,control_change,,,,,4,0,1,,,0,64,127,,
256558,note_on,,,,,2,0,1,,,0,,,86,65
256560,note_on,,,,,2,0,1,,,0,,,71,66
256564,note_on,,,,,4,0,1,,,0,,,77,42
256588,note_off,,,,,24,0,1,,,0,,,77,64
256596,note_off,,,,,8,0,1,,,0,,,71,64
256604,note_off,,,,,8,0,1,,,0,,,86,64
256612,note_off,,,,,8,0,1,,,0,,,92,64
256640,note_on,,,,,28,0,1,,,0,,,70,70
256644,note_on,,,,,4,0,1,,,0,,,85,69
256646,note_on,,,,,2,0,1,,,0,,,91,64
256652,note_on,,,,,6,0,1,,,0,,,76,50
256662,note_off,,,,,10,0,1,,,0,,,85,64
256668,note_off,,,,,6,0,1,,,0,,,76,64
256668,note_off,,,,,0,0,1,,,0,,,91,64
256676,note_off,,,,,8,0,1,,,0,,,70,64
256722,control_change,,,,,46,0,1,,,0,64,0,,
256740,control_change,,,,,18,0,1,,,0,64,127,,
256742,note_on,,,,,2,0,1,,,0,,,90,68
256746,note_on,,,,,4,0,1,,,0,,,96,67
256748,note_on,,,,,2,0,1,,,0,,,69,67
256750,note_on,,,,,2,0,1,,,0,,,75,60
256770,note_off,,,,,20,0,1,,,0,,,69,64
256772,note_off,,,,,2,0,1,,,0,,,75,64
256774,note_off,,,,,2,0,1,,,0,,,90,64
256778,note_off,,,,,4,0,1,,,0,,,96,64
256828,control_change,,,,,50,0,1,,,0,64,0,,
256852,note_on,,,,,24,0,1,,,0,,,75,69
256856,note_on,,,,,4,0,1,,,0,,,90,69
256856,note_on,,,,,0,0,1,,,0,,,96,67
256858,note_on,,,,,2,0,1,,,0,,,69,67
256862,control_change,,,,,4,0,1,,,0,64,127,,
256920,control_change,,,,,58,0,1,,,0,64,0,,
256926,note_off,,,,,6,0,1,,,0,,,69,64
256930,note_off,,,,,4,0,1,,,0,,,75,64
256936,note_off,,,,,6,0,1,,,0,,,96,64
256960,control_change,,,,,24,0,1,,,0,64,127,,
256966,note_on,,,,,6,0,1,,,0,,,68,62
256972,note_on,,,,,0,0,1,,,0,,,74,62
256972,note_off,,,,,6,0,1,,,0,,,90,64
256972,note_on,,,,,0,0,1,,,0,,,89,58
256976,note_on,,,,,4,0,1,,,0,,,95,59
256992,note_off,,,,,16,0,1,,,0,,,89,64
257004,note_off,,,,,12,0,1,,,0,,,68,64
257008,note_off,,,,,4,0,1,,,0,,,95,64
257008,note_off,,,,,0,0,1,,,0,,,74,64
257104,control_change,,,,,96,0,1,,,0,64,0,,
257108,note_on,,,,,4,0,1,,,0,,,100,75
257108,note_on,,,,,0,0,1,,,0,,,67,59
257112,note_on,,,,,4,0,1,,,0,,,94,68
257114,note_on,,,,,2,0,1,,,0,,,73,58
257128,note_off,,,,,14,0,1,,,0,,,67,64
257136,control_change,,,,,8,0,1,,,0,64,127,,
257154,note_off,,,,,0,0,1,,,0,,,94,64
257154,note_off,,,,,18,0,1,,,0,,,73,64
257160,note_off,,,,,6,0,1,,,0,,,100,64
257294,note_on,,,,,134,0,1,,,0,,,73,59
257296,note_on,,,,,0,0,1,,,0,,,100,73
257296,note_on,,,,,2,0,1,,,0,,,94,63
257302,note_on,,,,,6,0,1,,,0,,,67,53
257340,control_change,,,,,38,0,1,,,0,64,0,,
257428,control_change,,,,,88,0,1,,,0,64,127,,
257460,note_off,,,,,32,0,1,,,0,,,73,64
257500,note_off,,,,,40,0,1,,,0,,,67,64
257550,note_off,,,,,50,0,1,,,0,,,100,64
257572,control_change,,,,,22,0,1,,,0,64,0,,
257584,note_on,,,,,12,0,1,,,0,,,66,59
257588,note_on,,,,,4,0,1,,,0,,,99,75
257590,note_on,,,,,2,0,1,,,0,,,72,49
257596,note_on,,,,,6,0,1,,,0,,,93,59
257604,control_change,,,,,8,0,1,,,0,64,127,,
257606,note_off,,,,,2,0,1,,,0,,,94,64
257616,note_off,,,,,10,0,1,,,0,,,66,64
257634,note_off,,,,,18,0,1,,,0,,,72,64
257644,note_off,,,,,10,0,1,,,0,,,99,64
257656,note_off,,,,,12,0,1,,,0,,,93,64
257736,note_on,,,,,0,0,1,,,0,,,71,63
257736,note_on,,,,,80,0,1,,,0,,,77,58
257738,note_on,,,,,2,0,1,,,0,,,98,77
257740,note_on,,,,,2,0,1,,,0,,,92,66
257746,control_change,,,,,6,0,1,,,0,64,0,,
257754,control_change,,,,,8,0,1,,,0,64,127,,
257774,note_off,,,,,20,0,1,,,0,,,77,64
257782,note_off,,,,,8,0,1,,,0,,,71,64
257854,note_on,,,,,72,0,1,,,0,,,76,59
257856,note_on,,,,,0,0,1,,,0,,,97,81
257856,note_on,,,,,2,0,1,,,0,,,70,62
257858,note_off,,,,,2,0,1,,,0,,,98,64
257860,note_off,,,,,2,0,1,,,0,,,92,64
257862,note_on,,,,,2,0,1,,,0,,,91,67
257892,note_off,,,,,30,0,1,,,0,,,70,64
257894,note_off,,,,,2,0,1,,,0,,,76,64
257904,note_off,,,,,10,0,1,,,0,,,91,64
257912,note_off,,,,,8,0,1,,,0,,,97,64
257966,note_on,,,,,54,0,1,,,0,,,81,69
257966,note_on,,,,,0,0,1,,,0,,,75,71
257972,note_on,,,,,0,0,1,,,0,,,90,65
257972,note_on,,,,,6,0,1,,,0,,,96,71
258008,note_off,,,,,36,0,1,,,0,,,96,64
258016,note_off,,,,,8,0,1,,,0,,,90,64
258016,note_off,,,,,0,0,1,,,0,,,81,64
258022,note_off,,,,,6,0,1,,,0,,,75,64
258054,control_change,,,,,32,0,1,,,0,64,0,,
258058,control_change,,,,,4,0,1,,,0,64,127,,
258062,note_on,,,,,4,0,1,,,0,,,80,76
258064,note_on,,,,,2,0,1,,,0,,,89,66
258066,note_on,,,,,2,0,1,,,0,,,95,67
258068,note_on,,,,,2,0,1,,,0,,,74,63
258086,note_off,,,,,18,0,1,,,0,,,74,64
258100,note_off,,,,,14,0,1,,,0,,,80,64
258120,note_off,,,,,20,0,1,,,0,,,89,64
258144,note_off,,,,,24,0,1,,,0,,,95,64
258146,control_change,,,,,2,0,1,,,0,64,0,,
258174,note_on,,,,,28,0,1,,,0,,,94,79
258180,note_on,,,,,0,0,1,,,0,,,79,71
258180,note_on,,,,,6,0,1,,,0,,,85,83
258184,control_change,,,,,4,0,1,,,0,64,127,,
258186,note_on,,,,,2,0,1,,,0,,,88,64
258222,note_off,,,,,36,0,1,,,0,,,79,64
258234,note_off,,,,,12,0,1,,,0,,,85,64
258236,note_off,,,,,2,0,1,,,0,,,88,64
258236,note_off,,,,,0,0,1,,,0,,,94,64
258300,note_on,,,,,64,0,1,,,0,,,78,69
258302,note_on,,,,,2,0,1,,,0,,,84,55
258304,note_on,,,,,0,0,1,,,0,,,87,71
258304,note_on,,,,,2,0,1,,,0,,,93,68
258330,note_off,,,,,26,0,1,,,0,,,84,64
258346,note_off,,,,,16,0,1,,,0,,,78,64
258350,note_off,,,,,4,0,1,,,0,,,87,64
258352,note_off,,,,,2,0,1,,,0,,,93,64
258402,note_on,,,,,50,0,1,,,0,,,92,69
258404,note_on,,,,,2,0,1,,,0,,,86,70
258404,note_on,,,,,0,0,1,,,0,,,77,69
258408,note_on,,,,,4,0,1,,,0,,,83,38
258432,note_off,,,,,24,0,1,,,0,,,83,64
258434,note_off,,,,,2,0,1,,,0,,,77,64
258438,note_off,,,,,4,0,1,,,0,,,86,64
258440,note_off,,,,,2,0,1,,,0,,,92,64
258488,note_on,,,,,48,0,1,,,0,,,76,61
258488,note_on,,,,,0,0,1,,,0,,,85,67
258490,note_on,,,,,2,0,1,,,0,,,82,62
258492,note_on,,,,,2,0,1,,,0,,,91,63
258524,note_off,,,,,32,0,1,,,0,,,85,64
258530,note_off,,,,,6,0,1,,,0,,,91,64
258530,note_off,,,,,0,0,1,,,0,,,76,64
258532,note_off,,,,,2,0,1,,,0,,,82,64
258548,control_change,,,,,16,0,1,,,0,64,0,,
258560,control_change,,,,,12,0,1,,,0,64,127,,
258578,note_on,,,,,18,0,1,,,0,,,90,68
258580,note_on,,,,,2,0,1,,,0,,,84,68
258582,note_on,,,,,2,0,1,,,0,,,75,77
258590,note_on,,,,,8,0,1,,,0,,,81,58
258612,note_off,,,,,22,0,1,,,0,,,81,64
258632,note_off,,,,,20,0,1,,,0,,,75,64
258632,note_off,,,,,0,0,1,,,0,,,84,64
258632,note_off,,,,,0,0,1,,,0,,,90,64
258642,control_change,,,,,10,0,1,,,0,64,0,,
258650,control_change,,,,,8,0,1,,,0,64,127,,
258672,note_on,,,,,22,0,1,,,0,,,74,63
258674,note_on,,,,,0,0,1,,,0,,,80,60
258674,note_on,,,,,2,0,1,,,0,,,89,65
258676,note_on,,,,,2,0,1,,,0,,,83,67
258708,note_off,,,,,32,0,1,,,0,,,74,64
258714,note_off,,,,,6,0,1,,,0,,,83,64
258722,note_off,,,,,8,0,1,,,0,,,80,64
258728,control_change,,,,,6,0,1,,,0,64,0,,
258748,control_change,,,,,20,0,1,,,0,64,127,,
258758,note_off,,,,,10,0,1,,,0,,,89,64
258764,note_on,,,,,6,0,1,,,0,,,82,65
258766,note_on,,,,,2,0,1,,,0,,,73,74
258768,note_on,,,,,2,0,1,,,0,,,88,69
258774,note_on,,,,,6,0,1,,,0,,,79,73
258804,note_off,,,,,30,0,1,,,0,,,79,64
258812,note_off,,,,,8,0,1,,,0,,,73,64
258842,control_change,,,,,30,0,1,,,0,64,0,,
258846,note_off,,,,,4,0,1,,,0,,,88,64
258854,note_on,,,,,8,0,1,,,0,,,78,74
258858,control_change,,,,,4,0,1,,,0,64,127,,
258860,note_on,,,,,2,0,1,,,0,,,87,72
258868,note_on,,,,,8,0,1,,,0,,,81,73
258868,note_on,,,,,0,0,1,,,0,,,72,62
258878,note_off,,,,,10,0,1,,,0,,,82,64
258888,note_off,,,,,10,0,1,,,0,,,72,64
258900,note_off,,,,,12,0,1,,,0,,,78,64
258910,note_off,,,,,0,0,1,,,0,,,87,64
258910,note_off,,,,,10,0,1,,,0,,,81,64
258936,control_change,,,,,26,0,1,,,0,64,0,,
258960,note_on,,,,,24,0,1,,,0,,,86,77
258960,note_on,,,,,0,0,1,,,0,,,71,72
258962,note_on,,,,,2,0,1,,,0,,,80,74
258962,note_on,,,,,0,0,1,,,0,,,77,52
258964,control_change,,,,,2,0,1,,,0,64,127,,
259004,note_off,,,,,40,0,1,,,0,,,77,64
259022,note_off,,,,,18,0,1,,,0,,,71,64
259032,control_change,,,,,10,0,1,,,0,64,0,,
259048,note_off,,,,,16,0,1,,,0,,,86,64
259054,control_change,,,,,6,0,1,,,0,64,127,,
259062,note_on,,,,,8,0,1,,,0,,,85,79
259064,note_on,,,,,2,0,1,,,0,,,76,57
259066,note_on,,,,,2,0,1,,,0,,,70,68
259068,note_off,,,,,2,0,1,,,0,,,80,64
259068,note_on,,,,,0,0,1,,,0,,,79,70
259102,note_off,,,,,34,0,1,,,0,,,76,64
259112,note_off,,,,,10,0,1,,,0,,,79,64
259112,note_off,,,,,0,0,1,,,0,,,85,64
259122,note_off,,,,,10,0,1,,,0,,,70,64
259158,control_change,,,,,36,0,1,,,0,64,0,,
259170,note_on,,,,,0,0,1,,,0,,,84,64
259170,note_on,,,,,12,0,1,,,0,,,69,67
259174,note_on,,,,,4,0,1,,,0,,,75,63
259176,note_on,,,,,2,0,1,,,0,,,78,67
259182,control_change,,,,,6,0,1,,,0,64,127,,
259220,note_off,,,,,38,0,1,,,0,,,75,64
259224,note_off,,,,,4,0,1,,,0,,,78,64
259236,note_off,,,,,12,0,1,,,0,,,69,64
259240,note_off,,,,,4,0,1,,,0,,,84,64
259276,note_on,,,,,36,0,1,,,0,,,83,71
259278,note_on,,,,,2,0,1,,,0,,,68,70
259280,note_on,,,,,2,0,1,,,0,,,77,62
259284,note_on,,,,,4,0,1,,,0,,,74,64
259288,control_change,,,,,4,0,1,,,0,64,0,,
259314,control_change,,,,,26,0,1,,,0,64,127,,
259334,note_off,,,,,20,0,1,,,0,,,74,64
259368,note_off,,,,,34,0,1,,,0,,,68,64
259378,note_off,,,,,10,0,1,,,0,,,83,64
259392,note_on,,,,,14,0,1,,,0,,,82,68
259394,note_on,,,,,2,0,1,,,0,,,73,68
259398,note_on,,,,,4,0,1,,,0,,,76,68
259398,note_on,,,,,0,0,1,,,0,,,67,68
259400,control_change,,,,,2,0,1,,,0,64,0,,
259404,note_off,,,,,4,0,1,,,0,,,77,64
259436,control_change,,,,,32,0,1,,,0,64,127,,
259440,note_off,,,,,4,0,1,,,0,,,67,64
259452,note_off,,,,,12,0,1,,,0,,,73,64
259454,note_off,,,,,2,0,1,,,0,,,82,64
259464,note_off,,,,,10,0,1,,,0,,,76,64
259510,note_on,,,,,46,0,1,,,0,,,66,65
259514,note_on,,,,,4,0,1,,,0,,,81,65
259516,note_on,,,,,2,0,1,,,0,,,75,65
259518,control_change,,,,,2,0,1,,,0,64,0,,
259520,note_on,,,,,2,0,1,,,0,,,72,65
259544,control_change,,,,,24,0,1,,,0,64,127,,
259562,note_off,,,,,18,0,1,,,0,,,72,64
259578,note_off,,,,,16,0,1,,,0,,,66,64
259612,note_off,,,,,34,0,1,,,0,,,81,64
259634,control_change,,,,,22,0,1,,,0,64,0,,
259636,note_on,,,,,0,0,1,,,0,,,71,63
259636,note_off,,,,,2,0,1,,,0,,,75,64
259638,note_on,,,,,2,0,1,,,0,,,80,63
259638,note_on,,,,,0,0,1,,,0,,,74,63
259640,note_on,,,,,2,0,1,,,0,,,65,63
259664,control_change,,,,,24,0,1,,,0,64,127,,
259692,note_off,,,,,28,0,1,,,0,,,71,64
259698,note_off,,,,,6,0,1,,,0,,,65,64
259704,note_off,,,,,6,0,1,,,0,,,74,64
259708,note_off,,,,,4,0,1,,,0,,,80,64
259748,control_change,,,,,40,0,1,,,0,64,0,,
259764,note_on,,,,,16,0,1,,,0,,,73,61
259766,note_on,,,,,2,0,1,,,0,,,70,61
259770,note_on,,,,,4,0,1,,,0,,,79,61
259774,note_on,,,,,4,0,1,,,0,,,64,61
259780,control_change,,,,,6,0,1,,,0,64,127,,
259796,note_off,,,,,16,0,1,,,0,,,64,64
259822,note_off,,,,,26,0,1,,,0,,,79,64
259838,note_off,,,,,16,0,1,,,0,,,70,64
259852,note_off,,,,,14,0,1,,,0,,,73,64
259892,note_on,,,,,40,0,1,,,0,,,78,58
259894,note_on,,,,,2,0,1,,,0,,,72,58
259898,note_on,,,,,4,0,1,,,0,,,69,58
259900,note_on,,,,,2,0,1,,,0,,,63,58
259912,control_change,,,,,12,0,1,,,0,64,0,,
259948,control_change,,,,,36,0,1,,,0,64,127,,
259972,note_off,,,,,24,0,1,,,0,,,69,64
260000,note_off,,,,,28,0,1,,,0,,,63,64
260000,note_off,,,,,0,0,1,,,0,,,78,64
260006,note_off,,,,,6,0,1,,,0,,,72,64
260030,control_change,,,,,24,0,1,,,0,64,0,,
260036,note_on,,,,,0,0,1,,,0,,,68,54
260036,note_on,,,,,6,0,1,,,0,,,62,54
260038,note_on,,,,,2,0,1,,,0,,,77,54
260040,note_on,,,,,2,0,1,,,0,,,71,54
260058,control_change,,,,,18,0,1,,,0,64,127,,
260088,note_off,,,,,30,0,1,,,0,,,62,64
260110,note_on,,,,,22,0,1,,,0,,,62,52
260128,note_off,,,,,18,0,1,,,0,,,68,64
260130,note_off,,,,,2,0,1,,,0,,,62,64
260134,note_off,,,,,4,0,1,,,0,,,71,64
260174,note_off,,,,,40,0,1,,,0,,,77,64
260176,control_change,,,,,2,0,1,,,0,64,0,,
260186,note_on,,,,,0,0,1,,,0,,,76,51
260186,note_on,,,,,10,0,1,,,0,,,70,51
260188,note_on,,,,,2,0,1,,,0,,,67,51
260188,note_on,,,,,0,0,1,,,0,,,61,51
260216,control_change,,,,,28,0,1,,,0,64,127,,
260234,note_off,,,,,18,0,1,,,0,,,67,64
260254,note_off,,,,,20,0,1,,,0,,,70,64
260284,note_off,,,,,30,0,1,,,0,,,61,64
260286,note_off,,,,,2,0,1,,,0,,,76,64
260364,note_on,,,,,78,0,1,,,0,,,60,49
260368,note_on,,,,,4,0,1,,,0,,,67,49
260370,note_on,,,,,2,0,1,,,0,,,70,49
260372,note_on,,,,,2,0,1,,,0,,,76,49
260382,control_change,,,,,10,0,1,,,0,64,0,,
260428,note_off,,,,,46,0,1,,,0,,,67,64
260430,control_change,,,,,2,0,1,,,0,64,127,,
260472,note_off,,,,,42,0,1,,,0,,,60,64
260488,note_off,,,,,16,0,1,,,0,,,76,64
260494,note_off,,,,,6,0,1,,,0,,,70,64
260580,note_on,,,,,86,0,1,,,0,,,76,49
260580,note_on,,,,,0,0,1,,,0,,,71,49
260582,note_on,,,,,2,0,1,,,0,,,59,49
260584,note_on,,,,,2,0,1,,,0,,,67,50
260586,control_change,,,,,2,0,1,,,0,64,0,,
260628,control_change,,,,,42,0,1,,,0,64,127,,
260662,note_off,,,,,34,0,1,,,0,,,59,64
260678,note_off,,,,,16,0,1,,,0,,,67,64
260694,note_off,,,,,16,0,1,,,0,,,71,64
260696,note_off,,,,,2,0,1,,,0,,,76,64
260884,note_on,,,,,188,0,1,,,0,,,58,59
260886,note_on,,,,,2,0,1,,,0,,,76,63
260888,note_on,,,,,2,0,1,,,0,,,72,57
260898,note_on,,,,,10,0,1,,,0,,,67,45
260912,control_change,,,,,14,0,1,,,0,64,0,,
261006,control_change,,,,,94,0,1,,,0,64,127,,
261052,note_off,,,,,0,0,1,,,0,,,58,64
261052,note_off,,,,,46,0,1,,,0,,,72,64
261056,note_off,,,,,4,0,1,,,0,,,76,64
261070,note_off,,,,,14,0,1,,,0,,,67,64
261396,note_on,,,,,326,0,1,,,0,,,76,55
261398,note_on,,,,,2,0,1,,,0,,,73,48
261398,note_on,,,,,0,0,1,,,0,,,67,29
261402,note_on,,,,,4,0,1,,,0,,,57,48
261422,control_change,,,,,20,0,1,,,0,64,0,,
261576,control_change,,,,,154,0,1,,,0,64,127,,
261620,note_off,,,,,44,0,1,,,0,,,67,64
261638,note_off,,,,,18,0,1,,,0,,,57,64
261784,note_off,,,,,146,0,1,,,0,,,73,64
261860,note_on,,,,,76,0,1,,,0,,,51,61
261876,note_off,,,,,16,0,1,,,0,,,76,64
261928,control_change,,,,,52,0,1,,,0,64,0,,
262048,control_change,,,,,120,0,1,,,0,64,127,,
262050,note_on,,,,,2,0,1,,,0,,,58,60
262122,note_on,,,,,72,0,1,,,0,,,61,68
262184,note_on,,,,,62,0,1,,,0,,,67,52
262232,note_on,,,,,48,0,1,,,0,,,70,58
262392,note_on,,,,,160,0,1,,,0,,,79,68
263240,note_off,,,,,848,0,1,,,0,,,79,64
263268,note_off,,,,,28,0,1,,,0,,,70,64
263290,note_off,,,,,22,0,1,,,0,,,67,64
263294,note_on,,,,,4,0,1,,,0,,,77,50
263534,note_off,,,,,240,0,1,,,0,,,61,64
263574,note_on,,,,,40,0,1,,,0,,,75,57
263594,note_off,,,,,20,0,1,,,0,,,58,64
263608,note_off,,,,,14,0,1,,,0,,,51,64
263730,note_off,,,,,122,0,1,,,0,,,77,64
263772,note_on,,,,,42,0,1,,,0,,,73,65
263818,note_off,,,,,46,0,1,,,0,,,75,64
263924,note_on,,,,,106,0,1,,,0,,,72,69
263926,note_off,,,,,2,0,1,,,0,,,73,64
264076,note_on,,,,,150,0,1,,,0,,,70,63
264086,note_off,,,,,10,0,1,,,0,,,72,64
264246,note_on,,,,,160,0,1,,,0,,,68,53
264264,note_off,,,,,18,0,1,,,0,,,70,64
264444,note_off,,,,,180,0,1,,,0,,,68,64
264444,note_on,,,,,0,0,1,,,0,,,67,50
264660,note_off,,,,,216,0,1,,,0,,,67,64
264664,note_on,,,,,4,0,1,,,0,,,65,44
264748,note_off,,,,,84,0,1,,,0,,,65,64
264964,note_on,,,,,216,0,1,,,0,,,65,71
265020,control_change,,,,,56,0,1,,,0,64,0,,
265420,note_on,,,,,400,0,1,,,0,,,54,34
265430,note_on,,,,,10,0,1,,,0,,,60,41
265432,note_on,,,,,2,0,1,,,0,,,44,51
265436,note_on,,,,,4,0,1,,,0,,,68,45
265542,control_change,,,,,106,0,1,,,0,64,127,,
265740,note_on,,,,,198,0,1,,,0,,,63,60
265828,note_off,,,,,88,0,1,,,0,,,63,64
265916,note_on,,,,,88,0,1,,,0,,,63,68
265928,note_off,,,,,12,0,1,,,0,,,65,64
265930,note_off,,,,,2,0,1,,,0,,,68,64
265934,note_off,,,,,4,0,1,,,0,,,60,64
265980,note_off,,,,,46,0,1,,,0,,,54,64
265984,note_off,,,,,4,0,1,,,0,,,44,64
266188,control_change,,,,,204,0,1,,,0,64,0,,
266352,note_on,,,,,164,0,1,,,0,,,44,58
266352,note_on,,,,,0,0,1,,,0,,,68,50
266360,note_on,,,,,8,0,1,,,0,,,53,52
266370,note_on,,,,,10,0,1,,,0,,,59,25
266628,control_change,,,,,258,0,1,,,0,64,127,,
267280,note_off,,,,,652,0,1,,,0,,,63,64
267288,note_on,,,,,8,0,1,,,0,,,62,44
267292,note_off,,,,,4,0,1,,,0,,,59,64
267382,control_change,,,,,90,0,1,,,0,64,0,,
267588,control_change,,,,,206,0,1,,,0,64,127,,
267590,note_off,,,,,2,0,1,,,0,,,68,64
267638,note_off,,,,,48,0,1,,,0,,,53,64
267644,note_off,,,,,6,0,1,,,0,,,44,64
267918,control_change,,,,,274,0,1,,,0,64,0,,
268166,control_change,,,,,248,0,1,,,0,64,127,,
268230,note_off,,,,,64,0,1,,,0,,,62,64
268316,control_change,,,,,86,0,1,,,0,64,0,,
268444,note_on,,,,,128,0,1,,,0,,,63,70
268478,control_change,,,,,34,0,1,,,0,64,127,,
268768,note_on,,,,,290,0,1,,,0,,,44,50
268776,note_on,,,,,8,0,1,,,0,,,58,47
268780,note_on,,,,,4,0,1,,,0,,,68,49
268786,note_on,,,,,6,0,1,,,0,,,52,39
268800,control_change,,,,,14,0,1,,,0,64,0,,
268908,control_change,,,,,108,0,1,,,0,64,127,,
268996,note_on,,,,,88,0,1,,,0,,,61,67
269014,note_off,,,,,18,0,1,,,0,,,68,64
269024,note_off,,,,,10,0,1,,,0,,,52,64
269028,note_off,,,,,4,0,1,,,0,,,44,64
269056,note_off,,,,,28,0,1,,,0,,,63,64
269066,note_off,,,,,10,0,1,,,0,,,61,64
269070,note_off,,,,,4,0,1,,,0,,,58,64
269144,note_on,,,,,74,0,1,,,0,,,61,77
269230,control_change,,,,,86,0,1,,,0,64,0,,
269494,note_on,,,,,264,0,1,,,0,,,68,50
269500,note_on,,,,,0,0,1,,,0,,,56,45
269500,note_on,,,,,6,0,1,,,0,,,44,33
269504,note_on,,,,,4,0,1,,,0,,,51,36
270218,note_on,,,,,714,0,1,,,0,,,60,51
270226,note_off,,,,,8,0,1,,,0,,,56,64
270248,note_off,,,,,22,0,1,,,0,,,61,64
270498,control_change,,,,,250,0,1,,,0,64,127,,
270570,note_off,,,,,72,0,1,,,0,,,51,64
270586,note_off,,,,,16,0,1,,,0,,,68,64
270634,note_off,,,,,48,0,1,,,0,,,44,64
270708,note_off,,,,,74,0,1,,,0,,,60,64
270990,control_change,,,,,282,0,1,,,0,64,0,,
271096,note_on,,,,,106,0,1,,,0,,,60,71
271100,note_on,,,,,0,0,1,,,0,,,48,58
271100,note_on,,,,,4,0,1,,,0,,,64,72
271102,note_on,,,,,2,0,1,,,0,,,67,69
271102,note_on,,,,,0,0,1,,,0,,,36,45
271104,note_on,,,,,2,0,1,,,0,,,72,60
271236,control_change,,,,,132,0,1,,,0,64,127,,
271324,note_off,,,,,88,0,1,,,0,,,36,64
271328,note_off,,,,,4,0,1,,,0,,,48,64
271346,note_off,,,,,18,0,1,,,0,,,72,64
271364,note_off,,,,,18,0,1,,,0,,,60,64
271394,note_off,,,,,30,0,1,,,0,,,64,64
271402,note_off,,,,,8,0,1,,,0,,,67,64
271570,note_on,,,,,168,0,1,,,0,,,58,76
271612,note_off,,,,,42,0,1,,,0,,,58,64
271810,note_on,,,,,198,0,1,,,0,,,48,59
271810,note_on,,,,,0,0,1,,,0,,,68,67
271814,note_on,,,,,4,0,1,,,0,,,72,64
271816,note_on,,,,,0,0,1,,,0,,,58,54
271816,note_on,,,,,2,0,1,,,0,,,41,58
271820,note_on,,,,,4,0,1,,,0,,,65,59
271852,control_change,,,,,32,0,1,,,0,64,0,,
271944,control_change,,,,,92,0,1,,,0,64,127,,
272100,control_change,,,,,156,0,1,,,0,64,0,,
272108,control_change,,,,,8,0,1,,,0,64,127,,
272338,note_on,,,,,230,0,1,,,0,,,56,70
272448,note_off,,,,,0,0,1,,,0,,,68,64
272448,note_off,,,,,110,0,1,,,0,,,58,64
272452,note_off,,,,,4,0,1,,,0,,,65,64
272514,note_off,,,,,62,0,1,,,0,,,56,64
272530,note_off,,,,,16,0,1,,,0,,,72,64
272544,note_off,,,,,14,0,1,,,0,,,41,64
272686,note_on,,,,,142,0,1,,,0,,,61,50
272750,note_on,,,,,64,0,1,,,0,,,67,45
272814,note_on,,,,,64,0,1,,,0,,,72,43
272842,note_off,,,,,28,0,1,,,0,,,48,64
272934,note_on,,,,,92,0,1,,,0,,,39,57
272938,note_on,,,,,4,0,1,,,0,,,51,58
272952,note_off,,,,,14,0,1,,,0,,,61,64
272966,note_on,,,,,14,0,1,,,0,,,65,74
273014,control_change,,,,,48,0,1,,,0,64,0,,
273176,control_change,,,,,162,0,1,,,0,64,127,,
273570,note_on,,,,,394,0,1,,,0,,,63,53
273618,control_change,,,,,48,0,1,,,0,64,0,,
273646,control_change,,,,,28,0,1,,,0,64,127,,
273752,note_off,,,,,106,0,1,,,0,,,72,64
273836,note_on,,,,,84,0,1,,,0,,,70,69
273874,note_off,,,,,38,0,1,,,0,,,67,64
273882,note_off,,,,,8,0,1,,,0,,,65,64
273902,note_off,,,,,20,0,1,,,0,,,63,64
273926,note_off,,,,,24,0,1,,,0,,,51,64
274150,note_on,,,,,224,0,1,,,0,,,63,43
274150,note_on,,,,,0,0,1,,,0,,,68,66
274154,note_on,,,,,4,0,1,,,0,,,51,34
274156,note_on,,,,,2,0,1,,,0,,,60,34
274166,note_on,,,,,10,0,1,,,0,,,44,43
274184,control_change,,,,,18,0,1,,,0,64,0,,
274204,note_off,,,,,20,0,1,,,0,,,70,64
274242,note_off,,,,,38,0,1,,,0,,,39,64
274368,control_change,,,,,126,0,1,,,0,64,127,,
274676,note_on,,,,,308,0,1,,,0,,,56,56
274784,note_off,,,,,108,0,1,,,0,,,56,64
274920,note_on,,,,,136,0,1,,,0,,,56,51
274936,note_off,,,,,16,0,1,,,0,,,60,64
274948,note_off,,,,,12,0,1,,,0,,,68,64
274956,note_off,,,,,8,0,1,,,0,,,63,64
275062,note_off,,,,,106,0,1,,,0,,,56,64
275126,note_off,,,,,64,0,1,,,0,,,51,64
275150,note_off,,,,,24,0,1,,,0,,,44,64
275546,note_on,,,,,396,0,1,,,0,,,56,62
275548,note_on,,,,,0,0,1,,,0,,,68,58
275548,note_on,,,,,2,0,1,,,0,,,67,66
275550,note_on,,,,,2,0,1,,,0,,,63,65
275552,note_on,,,,,2,0,1,,,0,,,37,47
275554,note_on,,,,,2,0,1,,,0,,,44,47
275588,control_change,,,,,34,0,1,,,0,64,0,,
275696,control_change,,,,,108,0,1,,,0,64,127,,
275786,note_off,,,,,90,0,1,,,0,,,63,64
275996,note_off,,,,,210,0,1,,,0,,,37,64
275998,note_on,,,,,2,0,1,,,0,,,61,56
276004,note_off,,,,,6,0,1,,,0,,,44,64
276004,note_on,,,,,0,0,1,,,0,,,65,55
276042,note_off,,,,,38,0,1,,,0,,,56,64
276046,note_off,,,,,4,0,1,,,0,,,67,64
276072,note_off,,,,,26,0,1,,,0,,,61,64
276078,note_off,,,,,6,0,1,,,0,,,65,64
276092,note_off,,,,,14,0,1,,,0,,,68,64
276248,note_on,,,,,0,0,1,,,0,,,61,56
276248,note_on,,,,,156,0,1,,,0,,,68,45
276252,note_on,,,,,0,0,1,,,0,,,65,61
276252,note_on,,,,,4,0,1,,,0,,,44,38
276254,note_on,,,,,2,0,1,,,0,,,56,31
276260,note_on,,,,,6,0,1,,,0,,,32,39
276282,control_change,,,,,22,0,1,,,0,64,0,,
276408,control_change,,,,,126,0,1,,,0,64,127,,
276570,note_off,,,,,162,0,1,,,0,,,65,64
276600,note_off,,,,,30,0,1,,,0,,,61,64
276892,note_on,,,,,0,0,1,,,0,,,63,41
276892,note_on,,,,,292,0,1,,,0,,,60,38
276918,control_change,,,,,26,0,1,,,0,64,0,,
276952,control_change,,,,,34,0,1,,,0,64,127,,
277062,note_off,,,,,110,0,1,,,0,,,32,64
277158,note_off,,,,,96,0,1,,,0,,,56,64
277306,note_on,,,,,148,0,1,,,0,,,56,41
277416,note_off,,,,,110,0,1,,,0,,,56,64
277480,note_off,,,,,64,0,1,,,0,,,44,64
277538,note_on,,,,,58,0,1,,,0,,,56,47
277688,note_off,,,,,150,0,1,,,0,,,68,64
277740,note_off,,,,,52,0,1,,,0,,,60,64
277752,note_off,,,,,12,0,1,,,0,,,63,64
277758,note_off,,,,,6,0,1,,,0,,,56,64
278136,note_on,,,,,378,0,1,,,0,,,63,72
278140,note_on,,,,,4,0,1,,,0,,,56,65
278142,note_on,,,,,2,0,1,,,0,,,44,44
278144,note_on,,,,,2,0,1,,,0,,,37,31
278154,note_on,,,,,10,0,1,,,0,,,55,35
278168,control_change,,,,,14,0,1,,,0,64,0,,
278244,control_change,,,,,76,0,1,,,0,64,127,,
278330,note_off,,,,,86,0,1,,,0,,,55,64
278556,note_off,,,,,226,0,1,,,0,,,63,64
278558,note_on,,,,,2,0,1,,,0,,,61,63
278568,note_on,,,,,10,0,1,,,0,,,53,57
278572,note_off,,,,,4,0,1,,,0,,,44,64
278584,note_off,,,,,12,0,1,,,0,,,37,64
278594,note_off,,,,,10,0,1,,,0,,,56,64
278640,note_off,,,,,46,0,1,,,0,,,53,64
278650,note_off,,,,,10,0,1,,,0,,,61,64
278792,note_on,,,,,142,0,1,,,0,,,44,50
278794,note_on,,,,,2,0,1,,,0,,,61,60
278796,note_on,,,,,2,0,1,,,0,,,56,53
278800,note_on,,,,,4,0,1,,,0,,,53,46
278804,note_on,,,,,4,0,1,,,0,,,32,47
278842,control_change,,,,,38,0,1,,,0,64,0,,
278948,control_change,,,,,106,0,1,,,0,64,127,,
279078,note_off,,,,,130,0,1,,,0,,,53,64
279398,note_on,,,,,320,0,1,,,0,,,60,47
279404,note_on,,,,,6,0,1,,,0,,,51,27
279408,note_off,,,,,4,0,1,,,0,,,61,64
279422,control_change,,,,,14,0,1,,,0,64,0,,
279424,note_off,,,,,2,0,1,,,0,,,56,64
279516,control_change,,,,,92,0,1,,,0,64,127,,
279604,note_off,,,,,88,0,1,,,0,,,44,64
279840,note_on,,,,,236,0,1,,,0,,,44,59
279870,control_change,,,,,30,0,1,,,0,64,0,,
279892,control_change,,,,,22,0,1,,,0,64,127,,
279964,note_off,,,,,72,0,1,,,0,,,44,64
280088,note_on,,,,,124,0,1,,,0,,,44,57
280094,control_change,,,,,6,0,1,,,0,64,0,,
280122,control_change,,,,,28,0,1,,,0,64,127,,
280268,note_off,,,,,146,0,1,,,0,,,44,64
280326,note_off,,,,,58,0,1,,,0,,,51,64
280780,note_on,,,,,0,0,1,,,0,,,56,70
280780,note_on,,,,,454,0,1,,,0,,,49,57
280782,note_off,,,,,2,0,1,,,0,,,60,64
280782,note_on,,,,,0,0,1,,,0,,,43,50
280798,control_change,,,,,16,0,1,,,0,64,0,,
281006,control_change,,,,,208,0,1,,,0,64,127,,
281184,note_off,,,,,178,0,1,,,0,,,43,64
281188,note_on,,,,,4,0,1,,,0,,,41,56
281224,note_off,,,,,0,0,1,,,0,,,49,64
281224,note_off,,,,,36,0,1,,,0,,,56,64
281260,note_off,,,,,36,0,1,,,0,,,41,64
281402,note_on,,,,,142,0,1,,,0,,,41,63
281406,note_on,,,,,4,0,1,,,0,,,56,66
281410,note_on,,,,,4,0,1,,,0,,,48,62
281428,control_change,,,,,18,0,1,,,0,64,0,,
281518,control_change,,,,,90,0,1,,,0,64,127,,
281796,note_on,,,,,278,0,1,,,0,,,39,61
281808,control_change,,,,,12,0,1,,,0,64,0,,
281840,note_off,,,,,32,0,1,,,0,,,41,64
281852,control_change,,,,,12,0,1,,,0,64,127,,
281936,note_off,,,,,84,0,1,,,0,,,32,64
281940,note_off,,,,,4,0,1,,,0,,,39,64
281952,note_off,,,,,12,0,1,,,0,,,48,64
282090,note_off,,,,,138,0,1,,,0,,,56,64
282206,note_on,,,,,116,0,1,,,0,,,56,61
282216,note_on,,,,,10,0,1,,,0,,,53,56
282226,note_on,,,,,10,0,1,,,0,,,39,50
282258,control_change,,,,,32,0,1,,,0,64,0,,
282386,control_change,,,,,128,0,1,,,0,64,127,,
282774,note_on,,,,,388,0,1,,,0,,,37,52
282798,note_off,,,,,24,0,1,,,0,,,39,64
282814,note_off,,,,,16,0,1,,,0,,,53,64
282834,note_off,,,,,20,0,1,,,0,,,56,64
282846,note_off,,,,,12,0,1,,,0,,,37,64
283004,note_on,,,,,158,0,1,,,0,,,56,61
283008,note_on,,,,,4,0,1,,,0,,,37,58
283014,note_on,,,,,6,0,1,,,0,,,51,52
283024,control_change,,,,,10,0,1,,,0,64,0,,
283144,control_change,,,,,120,0,1,,,0,64,127,,
283394,control_change,,,,,250,0,1,,,0,64,0,,
283428,note_on,,,,,34,0,1,,,0,,,36,54
283434,note_off,,,,,6,0,1,,,0,,,37,64
283440,control_change,,,,,6,0,1,,,0,64,127,,
283536,note_off,,,,,96,0,1,,,0,,,56,64
283544,note_off,,,,,8,0,1,,,0,,,51,64
283630,note_off,,,,,86,0,1,,,0,,,36,64
283874,note_on,,,,,244,0,1,,,0,,,56,59
283878,note_on,,,,,4,0,1,,,0,,,49,47
283882,note_on,,,,,4,0,1,,,0,,,36,27
283902,control_change,,,,,20,0,1,,,0,64,0,,
284046,control_change,,,,,144,0,1,,,0,64,127,,
284384,note_off,,,,,338,0,1,,,0,,,49,64
284412,note_off,,,,,28,0,1,,,0,,,56,64
284490,note_on,,,,,78,0,1,,,0,,,34,47
284506,note_off,,,,,16,0,1,,,0,,,36,64
284538,note_off,,,,,32,0,1,,,0,,,34,64
284734,control_change,,,,,196,0,1,,,0,64,0,,
284738,note_on,,,,,4,0,1,,,0,,,56,62
284740,note_on,,,,,2,0,1,,,0,,,60,40
284742,note_on,,,,,2,0,1,,,0,,,51,50
284748,note_on,,,,,0,0,1,,,0,,,32,42
284748,note_on,,,,,6,0,1,,,0,,,48,40
284836,control_change,,,,,88,0,1,,,0,64,127,,
284842,note_off,,,,,6,0,1,,,0,,,32,64
284844,note_on,,,,,2,0,1,,,0,,,34,42
284900,note_off,,,,,56,0,1,,,0,,,34,64
284920,note_on,,,,,20,0,1,,,0,,,32,48
284972,note_off,,,,,52,0,1,,,0,,,32,64
284988,note_on,,,,,16,0,1,,,0,,,34,35
285016,note_off,,,,,28,0,1,,,0,,,34,64
285040,note_on,,,,,24,0,1,,,0,,,32,29
285072,note_off,,,,,32,0,1,,,0,,,32,64
285098,note_on,,,,,26,0,1,,,0,,,34,30
285122,note_off,,,,,24,0,1,,,0,,,34,64
285140,note_on,,,,,18,0,1,,,0,,,32,38
285184,note_off,,,,,44,0,1,,,0,,,32,64
285196,note_on,,,,,12,0,1,,,0,,,34,33
285224,note_off,,,,,28,0,1,,,0,,,34,64
285240,note_on,,,,,16,0,1,,,0,,,32,41
285280,note_off,,,,,40,0,1,,,0,,,32,64
285296,note_on,,,,,16,0,1,,,0,,,34,40
285328,note_off,,,,,32,0,1,,,0,,,34,64
285344,note_on,,,,,16,0,1,,,0,,,32,50
285376,note_off,,,,,32,0,1,,,0,,,32,64
285392,note_on,,,,,16,0,1,,,0,,,34,44
285424,note_off,,,,,32,0,1,,,0,,,34,64
285440,note_on,,,,,16,0,1,,,0,,,32,51
285470,note_off,,,,,30,0,1,,,0,,,32,64
285492,note_on,,,,,22,0,1,,,0,,,34,39
285518,note_off,,,,,26,0,1,,,0,,,34,64
285532,note_on,,,,,14,0,1,,,0,,,32,49
285562,note_off,,,,,30,0,1,,,0,,,32,64
285588,note_on,,,,,26,0,1,,,0,,,34,39
285610,note_off,,,,,22,0,1,,,0,,,34,64
285630,note_on,,,,,20,0,1,,,0,,,32,44
285658,note_off,,,,,28,0,1,,,0,,,32,64
285682,note_on,,,,,24,0,1,,,0,,,34,45
285702,note_off,,,,,20,0,1,,,0,,,34,64
285724,note_on,,,,,22,0,1,,,0,,,32,47
285756,note_off,,,,,32,0,1,,,0,,,32,64
285778,note_on,,,,,22,0,1,,,0,,,34,31
285794,note_off,,,,,16,0,1,,,0,,,34,64
285814,note_on,,,,,20,0,1,,,0,,,32,49
285840,note_off,,,,,26,0,1,,,0,,,32,64
285868,note_on,,,,,28,0,1,,,0,,,34,43
285892,note_off,,,,,24,0,1,,,0,,,34,64
285906,note_on,,,,,14,0,1,,,0,,,32,47
285940,note_off,,,,,34,0,1,,,0,,,32,64
285962,note_on,,,,,22,0,1,,,0,,,34,45
285988,note_off,,,,,26,0,1,,,0,,,34,64
286006,note_on,,,,,18,0,1,,,0,,,32,47
286048,note_off,,,,,42,0,1,,,0,,,32,64
286068,note_on,,,,,20,0,1,,,0,,,34,47
286096,note_off,,,,,28,0,1,,,0,,,34,64
286112,note_on,,,,,16,0,1,,,0,,,32,49
286150,note_off,,,,,38,0,1,,,0,,,32,64
286166,note_on,,,,,16,0,1,,,0,,,34,44
286192,note_off,,,,,26,0,1,,,0,,,34,64
286214,note_on,,,,,22,0,1,,,0,,,32,49
286240,note_off,,,,,26,0,1,,,0,,,32,64
286266,note_on,,,,,26,0,1,,,0,,,34,53
286300,note_off,,,,,34,0,1,,,0,,,34,64
286304,note_off,,,,,4,0,1,,,0,,,48,64
286316,note_on,,,,,0,0,1,,,0,,,32,49
286316,note_off,,,,,12,0,1,,,0,,,56,64
286320,note_off,,,,,4,0,1,,,0,,,51,64
286322,note_off,,,,,2,0,1,,,0,,,60,64
286358,note_off,,,,,36,0,1,,,0,,,32,64
286374,note_on,,,,,16,0,1,,,0,,,34,57
286404,note_off,,,,,30,0,1,,,0,,,34,64
286424,note_on,,,,,20,0,1,,,0,,,32,49
286436,note_on,,,,,12,0,1,,,0,,,51,56
286440,note_on,,,,,4,0,1,,,0,,,60,54
286440,note_on,,,,,0,0,1,,,0,,,56,57
286446,note_on,,,,,6,0,1,,,0,,,48,39
286466,control_change,,,,,20,0,1,,,0,64,0,,
286472,note_off,,,,,6,0,1,,,0,,,32,64
286484,note_on,,,,,12,0,1,,,0,,,34,49
286524,note_off,,,,,40,0,1,,,0,,,34,64
286536,control_change,,,,,12,0,1,,,0,64,127,,
286544,note_on,,,,,8,0,1,,,0,,,32,42
286582,note_off,,,,,38,0,1,,,0,,,32,64
286604,note_on,,,,,22,0,1,,,0,,,34,42
286628,note_off,,,,,24,0,1,,,0,,,34,64
286662,note_on,,,,,34,0,1,,,0,,,32,35
286684,note_off,,,,,22,0,1,,,0,,,32,64
286716,note_on,,,,,32,0,1,,,0,,,34,31
286738,note_off,,,,,22,0,1,,,0,,,34,64
286766,note_on,,,,,28,0,1,,,0,,,32,43
286796,note_off,,,,,30,0,1,,,0,,,32,64
286828,note_on,,,,,32,0,1,,,0,,,34,41
286858,note_off,,,,,30,0,1,,,0,,,34,64
286876,note_on,,,,,18,0,1,,,0,,,32,43
286920,note_off,,,,,44,0,1,,,0,,,32,64
286940,note_on,,,,,20,0,1,,,0,,,34,31
286968,note_off,,,,,28,0,1,,,0,,,34,64
286986,note_on,,,,,18,0,1,,,0,,,32,47
287024,note_off,,,,,38,0,1,,,0,,,32,64
287048,note_on,,,,,24,0,1,,,0,,,34,36
287070,note_off,,,,,22,0,1,,,0,,,34,64
287090,note_on,,,,,20,0,1,,,0,,,32,40
287128,note_off,,,,,38,0,1,,,0,,,32,64
287148,note_on,,,,,20,0,1,,,0,,,34,49
287176,note_off,,,,,28,0,1,,,0,,,34,64
287180,note_off,,,,,4,0,1,,,0,,,48,64
287182,note_off,,,,,2,0,1,,,0,,,51,64
287188,note_off,,,,,6,0,1,,,0,,,56,64
287188,note_off,,,,,0,0,1,,,0,,,60,64
287196,note_on,,,,,8,0,1,,,0,,,32,40
287244,note_off,,,,,48,0,1,,,0,,,32,64
287256,note_on,,,,,12,0,1,,,0,,,34,49
287292,note_off,,,,,36,0,1,,,0,,,34,64
287310,note_on,,,,,18,0,1,,,0,,,32,44
287328,note_on,,,,,18,0,1,,,0,,,56,57
287332,note_on,,,,,4,0,1,,,0,,,60,52
287334,note_on,,,,,2,0,1,,,0,,,51,53
287338,note_on,,,,,4,0,1,,,0,,,48,43
287360,note_off,,,,,22,0,1,,,0,,,32,64
287368,control_change,,,,,8,0,1,,,0,64,0,,
287376,note_on,,,,,8,0,1,,,0,,,34,49
287428,note_off,,,,,52,0,1,,,0,,,34,64
287440,note_on,,,,,12,0,1,,,0,,,32,49
287442,control_change,,,,,2,0,1,,,0,64,127,,
287492,note_off,,,,,50,0,1,,,0,,,32,64
287508,note_on,,,,,16,0,1,,,0,,,34,42
287540,note_off,,,,,32,0,1,,,0,,,34,64
287566,note_on,,,,,26,0,1,,,0,,,32,34
287616,note_off,,,,,50,0,1,,,0,,,32,64
287630,note_on,,,,,14,0,1,,,0,,,34,48
287658,note_off,,,,,28,0,1,,,0,,,34,64
287688,note_on,,,,,30,0,1,,,0,,,32,35
287728,note_off,,,,,40,0,1,,,0,,,32,64
287750,note_on,,,,,22,0,1,,,0,,,34,43
287780,note_off,,,,,30,0,1,,,0,,,34,64
287808,note_on,,,,,28,0,1,,,0,,,32,42
287842,note_off,,,,,34,0,1,,,0,,,32,64
287866,note_on,,,,,24,0,1,,,0,,,34,40
287896,note_off,,,,,30,0,1,,,0,,,34,64
287930,note_on,,,,,34,0,1,,,0,,,32,41
287976,note_off,,,,,46,0,1,,,0,,,32,64
287988,note_on,,,,,12,0,1,,,0,,,34,50
288024,note_off,,,,,36,0,1,,,0,,,34,64
288048,note_on,,,,,24,0,1,,,0,,,32,38
288096,note_off,,,,,48,0,1,,,0,,,32,64
288112,note_on,,,,,16,0,1,,,0,,,34,39
288182,note_off,,,,,70,0,1,,,0,,,34,64
288194,note_on,,,,,12,0,1,,,0,,,32,50
288282,note_off,,,,,88,0,1,,,0,,,32,64
288292,note_on,,,,,10,0,1,,,0,,,31,64
288432,note_off,,,,,140,0,1,,,0,,,31,64
288432,note_on,,,,,0,0,1,,,0,,,32,69
288454,control_change,,,,,22,0,1,,,0,64,0,,
288476,control_change,,,,,22,0,1,,,0,64,127,,
288534,note_off,,,,,58,0,1,,,0,,,32,64
288616,note_on,,,,,82,0,1,,,0,,,32,65
288760,control_change,,,,,144,0,1,,,0,64,0,,
288824,note_on,,,,,64,0,1,,,0,,,39,59
288840,control_change,,,,,16,0,1,,,0,64,127,,
288948,note_off,,,,,108,0,1,,,0,,,48,64
288968,note_off,,,,,20,0,1,,,0,,,51,64
288970,note_on,,,,,2,0,1,,,0,,,44,47
288984,note_off,,,,,14,0,1,,,0,,,56,64
289090,note_on,,,,,106,0,1,,,0,,,48,38
289096,note_off,,,,,6,0,1,,,0,,,32,64
289124,note_off,,,,,28,0,1,,,0,,,44,64
289124,note_off,,,,,0,0,1,,,0,,,39,64
289208,note_on,,,,,84,0,1,,,0,,,51,58
289264,note_off,,,,,56,0,1,,,0,,,60,64
289336,note_on,,,,,72,0,1,,,0,,,56,51
289410,note_off,,,,,74,0,1,,,0,,,48,64
289456,note_off,,,,,46,0,1,,,0,,,51,64
289484,note_on,,,,,28,0,1,,,0,,,60,38
289512,note_off,,,,,28,0,1,,,0,,,56,64
289632,note_on,,,,,120,0,1,,,0,,,63,47
289644,note_off,,,,,12,0,1,,,0,,,60,64
289792,note_on,,,,,148,0,1,,,0,,,68,56
289944,note_on,,,,,152,0,1,,,0,,,72,45
290112,note_on,,,,,168,0,1,,,0,,,75,38
290304,note_on,,,,,192,0,1,,,0,,,80,45
290522,note_on,,,,,218,0,1,,,0,,,84,32
290768,note_on,,,,,246,0,1,,,0,,,87,39
290770,note_off,,,,,2,0,1,,,0,,,75,64
290796,note_off,,,,,26,0,1,,,0,,,72,64
290818,note_off,,,,,22,0,1,,,0,,,68,64
290828,note_off,,,,,10,0,1,,,0,,,63,64
291084,note_on,,,,,256,0,1,,,0,,,92,54
291274,note_on,,,,,190,0,1,,,0,,,56,61
291310,control_change,,,,,36,0,1,,,0,64,0,,
291340,control_change,,,,,30,0,1,,,0,64,127,,
291378,note_off,,,,,38,0,1,,,0,,,84,64
291430,note_off,,,,,52,0,1,,,0,,,92,64
291432,note_off,,,,,2,0,1,,,0,,,87,64
291446,note_off,,,,,14,0,1,,,0,,,80,64
291522,note_off,,,,,76,0,1,,,0,,,56,64
291530,note_on,,,,,8,0,1,,,0,,,63,56
291598,note_on,,,,,68,0,1,,,0,,,68,59
291616,note_off,,,,,18,0,1,,,0,,,63,64
291668,note_off,,,,,52,0,1,,,0,,,68,64
291668,note_on,,,,,0,0,1,,,0,,,72,54
291708,note_off,,,,,40,0,1,,,0,,,72,64
291746,note_on,,,,,38,0,1,,,0,,,80,59
291820,note_off,,,,,74,0,1,,,0,,,80,64
291828,note_on,,,,,8,0,1,,,0,,,87,56
291844,note_off,,,,,16,0,1,,,0,,,87,64
292010,note_on,,,,,166,0,1,,,0,,,96,69
292144,note_off,,,,,134,0,1,,,0,,,96,64
293988,control_change,,,,,1844,0,1,,,0,64,0,,
293988,end_of_track,,,,,0,1,1,,,,,,,
