tick,type,numerator,denominator,clocks_per_click,notated_32nd_notes_per_beat,time,meta,track,data,tempo,control,value,channel,program,key,note,velocity
0,control_change,,,,,0,0,1,,,0,0,0,,,,
0,key_signature,,,,,0,1,2,,,,,,,C,,
0,key_signature,,,,,0,1,1,,,,,,,C,,
0,end_of_track,,,,,0,1,16,,,,,,,,,
0,end_of_track,,,,,0,1,15,,,,,,,,,
0,end_of_track,,,,,0,1,14,,,,,,,,,
0,end_of_track,,,,,0,1,13,,,,,,,,,
0,end_of_track,,,,,0,1,12,,,,,,,,,
0,end_of_track,,,,,0,1,11,,,,,,,,,
0,end_of_track,,,,,0,1,10,,,,,,,,,
0,end_of_track,,,,,0,1,9,,,,,,,,,
0,end_of_track,,,,,0,1,8,,,,,,,,,
0,end_of_track,,,,,0,1,7,,,,,,,,,
0,end_of_track,,,,,0,1,6,,,,,,,,,
0,end_of_track,,,,,0,1,5,,,,,,,,,
0,end_of_track,,,,,0,1,4,,,,,,,,,
0,key_signature,,,,,0,1,3,,,,,,,C,,
0,key_signature,,,,,0,1,4,,,,,,,C,,
0,key_signature,,,,,0,1,5,,,,,,,C,,
0,key_signature,,,,,0,1,6,,,,,,,C,,
0,track_name,,,,,0,1,1,,,,,,,,,
0,time_signature,4,4,96,8,0,1,0,,,,,,,,,
0,set_tempo,,,,,0,1,0,,480000,,,,,,,
0,sequencer_specific,,,,,0,1,0,"(0, 0, 65)",,,,,,,,
0,program_change,,,,,0,0,1,,,,,0,0,,,
0,track_name,,,,,0,1,2,,,,,,,,,
0,key_signature,,,,,0,1,16,,,,,,,C,,
0,end_of_track,,,,,0,1,3,,,,,,,,,
0,key_signature,,,,,0,1,15,,,,,,,C,,
0,key_signature,,,,,0,1,13,,,,,,,C,,
0,key_signature,,,,,0,1,12,,,,,,,C,,
0,key_signature,,,,,0,1,11,,,,,,,C,,
0,key_signature,,,,,0,1,10,,,,,,,C,,
0,key_signature,,,,,0,1,9,,,,,,,C,,
0,key_signature,,,,,0,1,8,,,,,,,C,,
0,key_signature,,,,,0,1,7,,,,,,,C,,
0,key_signature,,,,,0,1,14,,,,,,,C,,
0,end_of_track,,,,,0,1,2,,,,,,,,,
0,track_name,,,,,0,1,3,,,,,,,,,
0,control_change,,,,,0,0,1,,,7,127,0,,,,
0,control_change,,,,,0,0,1,,,91,127,0,,,,
36,control_change,,,,,36,0,1,,,91,127,0,,,,
1692,note_on,,,,,1656,0,1,,,,,0,,,51,53
1764,control_change,,,,,72,0,1,,,64,24,0,,,,
1780,control_change,,,,,16,0,1,,,64,56,0,,,,
1796,control_change,,,,,16,0,1,,,64,72,0,,,,
1808,control_change,,,,,12,0,1,,,64,88,0,,,,
1824,control_change,,,,,16,0,1,,,64,127,0,,,,
2120,note_on,,,,,296,0,1,,,,,0,,,60,67
2180,control_change,,,,,0,0,1,,,64,104,0,,,,
2180,note_on,,,,,60,0,1,,,,,0,,,44,40
2196,control_change,,,,,16,0,1,,,64,72,0,,,,
2212,control_change,,,,,16,0,1,,,64,24,0,,,,
2228,control_change,,,,,16,0,1,,,64,0,0,,,,
2252,note_off,,,,,24,0,1,,,,,0,,,51,0
2340,note_on,,,,,88,0,1,,,,,0,,,63,44
2352,control_change,,,,,12,0,1,,,64,104,0,,,,
2368,control_change,,,,,16,0,1,,,64,127,0,,,,
2424,note_off,,,,,56,0,1,,,,,0,,,60,0
2440,note_off,,,,,16,0,1,,,,,0,,,44,0
2456,note_off,,,,,16,0,1,,,,,0,,,63,0
2500,note_on,,,,,44,0,1,,,,,0,,,68,50
2624,note_off,,,,,124,0,1,,,,,0,,,68,0
2668,note_on,,,,,44,0,1,,,,,0,,,72,60
2760,note_off,,,,,92,0,1,,,,,0,,,72,0
2832,note_on,,,,,72,0,1,,,,,0,,,68,38
2952,note_off,,,,,120,0,1,,,,,0,,,68,0
2964,note_on,,,,,12,0,1,,,,,0,,,63,44
3064,note_off,,,,,100,0,1,,,,,0,,,63,0
3124,note_on,,,,,60,0,1,,,,,0,,,60,74
3280,note_on,,,,,156,0,1,,,,,0,,,63,47
3392,note_off,,,,,112,0,1,,,,,0,,,63,0
3424,note_off,,,,,32,0,1,,,,,0,,,60,0
3444,note_on,,,,,20,0,1,,,,,0,,,68,53
3568,note_off,,,,,124,0,1,,,,,0,,,68,0
3604,note_on,,,,,36,0,1,,,,,0,,,72,68
3724,note_off,,,,,120,0,1,,,,,0,,,72,0
3756,note_on,,,,,32,0,1,,,,,0,,,68,53
3908,note_off,,,,,152,0,1,,,,,0,,,68,0
3908,note_on,,,,,0,0,1,,,,,0,,,63,60
4100,note_off,,,,,192,0,1,,,,,0,,,63,0
4112,note_on,,,,,12,0,1,,,,,0,,,60,75
4136,note_on,,,,,24,0,1,,,,,0,,,43,49
4224,control_change,,,,,88,0,1,,,64,88,0,,,,
4244,control_change,,,,,20,0,1,,,64,40,0,,,,
4260,control_change,,,,,16,0,1,,,64,0,0,,,,
4312,note_on,,,,,52,0,1,,,,,0,,,64,51
4396,control_change,,,,,84,0,1,,,64,88,0,,,,
4412,control_change,,,,,16,0,1,,,64,127,0,,,,
4436,note_off,,,,,24,0,1,,,,,0,,,64,0
4468,note_on,,,,,32,0,1,,,,,0,,,70,56
4596,note_off,,,,,128,0,1,,,,,0,,,70,0
4632,note_on,,,,,36,0,1,,,,,0,,,72,58
4712,note_off,,,,,0,0,1,,,,,0,,,72,0
4712,note_off,,,,,80,0,1,,,,,0,,,43,0
4764,note_on,,,,,52,0,1,,,,,0,,,70,43
4900,note_off,,,,,136,0,1,,,,,0,,,70,0
4904,note_off,,,,,4,0,1,,,,,0,,,60,0
4928,note_on,,,,,24,0,1,,,,,0,,,64,41
5048,note_off,,,,,120,0,1,,,,,0,,,64,0
5280,note_on,,,,,232,0,1,,,,,0,,,64,44
5428,note_off,,,,,148,0,1,,,,,0,,,64,0
5436,note_on,,,,,8,0,1,,,,,0,,,70,49
5552,note_off,,,,,116,0,1,,,,,0,,,70,0
5604,note_on,,,,,52,0,1,,,,,0,,,72,45
5696,note_off,,,,,92,0,1,,,,,0,,,72,0
5748,note_on,,,,,52,0,1,,,,,0,,,60,82
5768,note_on,,,,,20,0,1,,,,,0,,,70,40
5880,note_off,,,,,112,0,1,,,,,0,,,70,0
5912,note_off,,,,,32,0,1,,,,,0,,,60,0
5928,note_on,,,,,16,0,1,,,,,0,,,64,38
6144,note_off,,,,,216,0,1,,,,,0,,,64,0
6160,note_on,,,,,16,0,1,,,,,0,,,60,80
6216,note_on,,,,,56,0,1,,,,,0,,,41,44
6240,control_change,,,,,24,0,1,,,64,104,0,,,,
6256,control_change,,,,,16,0,1,,,64,24,0,,,,
6272,control_change,,,,,16,0,1,,,64,0,0,,,,
6356,note_on,,,,,84,0,1,,,,,0,,,63,43
6380,control_change,,,,,24,0,1,,,64,104,0,,,,
6396,control_change,,,,,16,0,1,,,64,127,0,,,,
6428,note_off,,,,,32,0,1,,,,,0,,,41,0
6480,note_off,,,,,52,0,1,,,,,0,,,63,0
6516,note_on,,,,,36,0,1,,,,,0,,,69,60
6624,note_off,,,,,108,0,1,,,,,0,,,69,0
6656,note_on,,,,,32,0,1,,,,,0,,,72,55
6696,note_off,,,,,40,0,1,,,,,0,,,60,0
6764,note_off,,,,,68,0,1,,,,,0,,,72,0
6784,note_on,,,,,20,0,1,,,,,0,,,60,79
6836,note_on,,,,,52,0,1,,,,,0,,,69,44
6940,note_off,,,,,104,0,1,,,,,0,,,69,0
6952,note_on,,,,,12,0,1,,,,,0,,,63,48
6996,note_off,,,,,44,0,1,,,,,0,,,60,0
7032,note_off,,,,,36,0,1,,,,,0,,,63,0
7076,note_on,,,,,44,0,1,,,,,0,,,53,42
7080,note_on,,,,,4,0,1,,,,,0,,,57,48
7148,note_on,,,,,68,0,1,,,,,0,,,61,77
7220,control_change,,,,,72,0,1,,,64,104,0,,,,
7232,control_change,,,,,12,0,1,,,64,56,0,,,,
7244,control_change,,,,,12,0,1,,,64,0,0,,,,
7308,note_on,,,,,64,0,1,,,,,0,,,63,51
7356,control_change,,,,,48,0,1,,,64,72,0,,,,
7372,control_change,,,,,16,0,1,,,64,127,0,,,,
7420,note_off,,,,,48,0,1,,,,,0,,,63,0
7472,note_on,,,,,52,0,1,,,,,0,,,69,58
7564,note_off,,,,,92,0,1,,,,,0,,,69,0
7616,note_on,,,,,52,0,1,,,,,0,,,72,47
7724,note_off,,,,,108,0,1,,,,,0,,,61,0
7724,note_off,,,,,0,0,1,,,,,0,,,72,0
7744,note_on,,,,,20,0,1,,,,,0,,,69,41
7776,note_on,,,,,32,0,1,,,,,0,,,60,77
7824,control_change,,,,,48,0,1,,,64,88,0,,,,
7840,control_change,,,,,16,0,1,,,64,40,0,,,,
7868,note_off,,,,,28,0,1,,,,,0,,,69,0
7884,control_change,,,,,16,0,1,,,64,127,0,,,,
7908,note_on,,,,,24,0,1,,,,,0,,,63,47
7920,note_off,,,,,0,0,1,,,,,0,,,60,0
7920,note_off,,,,,12,0,1,,,,,0,,,57,0
7948,note_off,,,,,28,0,1,,,,,0,,,53,0
8160,note_off,,,,,212,0,1,,,,,0,,,63,0
8180,note_on,,,,,20,0,1,,,,,0,,,60,76
8252,note_on,,,,,72,0,1,,,,,0,,,34,48
8256,control_change,,,,,4,0,1,,,64,104,0,,,,
8272,control_change,,,,,16,0,1,,,64,24,0,,,,
8288,control_change,,,,,16,0,1,,,64,0,0,,,,
8404,note_on,,,,,116,0,1,,,,,0,,,62,57
8412,control_change,,,,,8,0,1,,,64,127,0,,,,
8516,note_off,,,,,104,0,1,,,,,0,,,62,0
8540,note_off,,,,,24,0,1,,,,,0,,,34,0
8556,note_on,,,,,16,0,1,,,,,0,,,68,46
8588,note_off,,,,,32,0,1,,,,,0,,,60,0
8656,note_off,,,,,68,0,1,,,,,0,,,68,0
8712,note_on,,,,,56,0,1,,,,,0,,,72,59
8816,note_off,,,,,104,0,1,,,,,0,,,72,0
8864,note_on,,,,,48,0,1,,,,,0,,,68,38
8996,note_off,,,,,132,0,1,,,,,0,,,68,0
9020,note_on,,,,,24,0,1,,,,,0,,,62,52
9140,note_off,,,,,120,0,1,,,,,0,,,62,0
9192,note_on,,,,,52,0,1,,,,,0,,,53,68
9372,note_on,,,,,180,0,1,,,,,0,,,62,41
9420,control_change,,,,,48,0,1,,,64,72,0,,,,
9432,control_change,,,,,12,0,1,,,64,0,0,,,,
9512,control_change,,,,,80,0,1,,,64,56,0,,,,
9524,control_change,,,,,12,0,1,,,64,127,0,,,,
9536,note_on,,,,,12,0,1,,,,,0,,,68,44
9592,note_off,,,,,56,0,1,,,,,0,,,62,0
9608,note_off,,,,,16,0,1,,,,,0,,,53,0
9660,note_off,,,,,52,0,1,,,,,0,,,68,0
9724,note_on,,,,,64,0,1,,,,,0,,,72,49
9852,note_off,,,,,128,0,1,,,,,0,,,72,0
9876,note_on,,,,,24,0,1,,,,,0,,,53,79
9904,note_on,,,,,28,0,1,,,,,0,,,68,43
9964,note_off,,,,,60,0,1,,,,,0,,,53,0
10052,note_off,,,,,88,0,1,,,,,0,,,68,0
10076,note_on,,,,,24,0,1,,,,,0,,,62,42
10124,note_on,,,,,48,0,1,,,,,0,,,39,52
10144,note_off,,,,,20,0,1,,,,,0,,,62,0
10176,control_change,,,,,32,0,1,,,64,56,0,,,,
10192,control_change,,,,,16,0,1,,,64,0,0,,,,
10204,note_off,,,,,12,0,1,,,,,0,,,39,0
10224,note_on,,,,,20,0,1,,,,,0,,,53,78
10240,control_change,,,,,16,0,1,,,64,24,0,,,,
10256,control_change,,,,,16,0,1,,,64,88,0,,,,
10268,control_change,,,,,12,0,1,,,64,127,0,,,,
10364,note_on,,,,,96,0,1,,,,,0,,,61,50
10452,note_off,,,,,88,0,1,,,,,0,,,53,0
10484,note_off,,,,,32,0,1,,,,,0,,,61,0
10496,note_on,,,,,12,0,1,,,,,0,,,63,48
10532,note_on,,,,,36,0,1,,,,,0,,,55,82
10652,note_off,,,,,120,0,1,,,,,0,,,63,0
10692,note_on,,,,,40,0,1,,,,,0,,,72,58
10816,note_off,,,,,0,0,1,,,,,0,,,72,0
10816,note_off,,,,,124,0,1,,,,,0,,,55,0
10832,note_on,,,,,16,0,1,,,,,0,,,56,82
10868,note_on,,,,,36,0,1,,,,,0,,,63,46
11004,note_off,,,,,136,0,1,,,,,0,,,63,0
11008,note_on,,,,,4,0,1,,,,,0,,,61,63
11056,note_off,,,,,48,0,1,,,,,0,,,56,0
11088,note_off,,,,,32,0,1,,,,,0,,,61,0
11124,note_on,,,,,36,0,1,,,,,0,,,51,62
11200,note_on,,,,,76,0,1,,,,,0,,,60,81
11264,control_change,,,,,64,0,1,,,64,56,0,,,,
11276,control_change,,,,,12,0,1,,,64,0,0,,,,
11348,note_on,,,,,72,0,1,,,,,0,,,61,53
11436,control_change,,,,,88,0,1,,,64,56,0,,,,
11448,control_change,,,,,12,0,1,,,64,127,0,,,,
11452,note_off,,,,,4,0,1,,,,,0,,,61,0
11512,note_on,,,,,60,0,1,,,,,0,,,63,42
11632,note_off,,,,,120,0,1,,,,,0,,,63,0
11672,note_on,,,,,40,0,1,,,,,0,,,67,44
11804,note_off,,,,,132,0,1,,,,,0,,,67,0
11832,note_on,,,,,28,0,1,,,,,0,,,58,62
11860,note_off,,,,,28,0,1,,,,,0,,,60,0
11872,note_on,,,,,12,0,1,,,,,0,,,63,30
11884,control_change,,,,,12,0,1,,,64,56,0,,,,
11900,control_change,,,,,16,0,1,,,64,24,0,,,,
11912,control_change,,,,,12,0,1,,,64,40,0,,,,
11928,control_change,,,,,16,0,1,,,64,88,0,,,,
11944,control_change,,,,,16,0,1,,,64,127,0,,,,
11984,note_off,,,,,40,0,1,,,,,0,,,58,0
11992,note_off,,,,,8,0,1,,,,,0,,,51,0
12020,note_on,,,,,28,0,1,,,,,0,,,61,48
12036,note_off,,,,,16,0,1,,,,,0,,,63,0
12096,note_off,,,,,60,0,1,,,,,0,,,61,0
12216,note_on,,,,,120,0,1,,,,,0,,,56,58
12248,note_on,,,,,32,0,1,,,,,0,,,44,40
12332,control_change,,,,,84,0,1,,,64,88,0,,,,
12348,control_change,,,,,16,0,1,,,64,0,0,,,,
12392,note_on,,,,,44,0,1,,,,,0,,,60,49
12508,note_off,,,,,116,0,1,,,,,0,,,60,0
12548,note_on,,,,,40,0,1,,,,,0,,,63,48
12548,control_change,,,,,0,0,1,,,64,56,0,,,,
12564,control_change,,,,,16,0,1,,,64,127,0,,,,
12680,note_off,,,,,116,0,1,,,,,0,,,63,0
12696,note_on,,,,,16,0,1,,,,,0,,,68,46
12748,note_off,,,,,52,0,1,,,,,0,,,56,0
12800,note_off,,,,,52,0,1,,,,,0,,,44,0
12808,note_off,,,,,8,0,1,,,,,0,,,68,0
12844,note_on,,,,,36,0,1,,,,,0,,,63,46
12984,note_off,,,,,140,0,1,,,,,0,,,63,0
13012,note_on,,,,,28,0,1,,,,,0,,,60,48
13112,note_off,,,,,100,0,1,,,,,0,,,60,0
13172,note_on,,,,,60,0,1,,,,,0,,,32,42
13328,note_off,,,,,156,0,1,,,,,0,,,32,0
13328,note_on,,,,,0,0,1,,,,,0,,,56,46
13456,note_off,,,,,128,0,1,,,,,0,,,56,0
13496,note_on,,,,,40,0,1,,,,,0,,,60,43
13608,note_off,,,,,112,0,1,,,,,0,,,60,0
13652,note_on,,,,,44,0,1,,,,,0,,,68,42
13780,note_off,,,,,128,0,1,,,,,0,,,68,0
13812,note_on,,,,,32,0,1,,,,,0,,,51,70
13856,note_on,,,,,44,0,1,,,,,0,,,63,41
13988,note_on,,,,,132,0,1,,,,,0,,,60,43
14060,note_off,,,,,72,0,1,,,,,0,,,60,0
14124,note_off,,,,,64,0,1,,,,,0,,,51,0
14256,note_on,,,,,132,0,1,,,,,0,,,60,70
14308,note_on,,,,,52,0,1,,,,,0,,,44,39
14376,control_change,,,,,68,0,1,,,64,104,0,,,,
14392,control_change,,,,,16,0,1,,,64,24,0,,,,
14408,control_change,,,,,16,0,1,,,64,0,0,,,,
14468,note_on,,,,,60,0,1,,,,,0,,,63,52
14548,control_change,,,,,80,0,1,,,64,127,0,,,,
14608,note_off,,,,,60,0,1,,,,,0,,,63,0
14652,note_on,,,,,44,0,1,,,,,0,,,68,44
14668,note_off,,,,,16,0,1,,,,,0,,,44,0
14708,note_off,,,,,40,0,1,,,,,0,,,60,0
14740,note_off,,,,,32,0,1,,,,,0,,,63,0
14776,note_off,,,,,36,0,1,,,,,0,,,68,0
14800,note_on,,,,,24,0,1,,,,,0,,,72,57
14888,note_off,,,,,88,0,1,,,,,0,,,72,0
14936,note_on,,,,,48,0,1,,,,,0,,,68,47
15072,note_on,,,,,0,0,1,,,,,0,,,63,56
15072,note_off,,,,,136,0,1,,,,,0,,,68,0
15184,note_off,,,,,112,0,1,,,,,0,,,63,0
15224,note_on,,,,,40,0,1,,,,,0,,,60,79
15328,note_off,,,,,104,0,1,,,,,0,,,60,0
15360,note_on,,,,,32,0,1,,,,,0,,,63,49
15488,note_off,,,,,128,0,1,,,,,0,,,63,0
15540,note_on,,,,,52,0,1,,,,,0,,,68,47
15652,note_off,,,,,112,0,1,,,,,0,,,68,0
15676,note_on,,,,,24,0,1,,,,,0,,,72,70
15796,note_off,,,,,120,0,1,,,,,0,,,72,0
15812,note_on,,,,,16,0,1,,,,,0,,,68,54
15944,note_off,,,,,132,0,1,,,,,0,,,68,0
15956,note_on,,,,,12,0,1,,,,,0,,,63,65
16152,note_off,,,,,196,0,1,,,,,0,,,63,0
16156,note_on,,,,,4,0,1,,,,,0,,,60,80
16208,note_on,,,,,52,0,1,,,,,0,,,43,47
16268,control_change,,,,,60,0,1,,,64,56,0,,,,
16284,control_change,,,,,16,0,1,,,64,0,0,,,,
16340,note_on,,,,,56,0,1,,,,,0,,,64,63
16392,control_change,,,,,52,0,1,,,64,104,0,,,,
16408,control_change,,,,,16,0,1,,,64,127,0,,,,
16460,note_off,,,,,52,0,1,,,,,0,,,64,0
16484,note_on,,,,,24,0,1,,,,,0,,,70,62
16604,note_off,,,,,120,0,1,,,,,0,,,70,0
16628,note_on,,,,,24,0,1,,,,,0,,,72,65
16728,note_off,,,,,100,0,1,,,,,0,,,72,0
16764,note_on,,,,,36,0,1,,,,,0,,,70,55
16896,note_on,,,,,0,0,1,,,,,0,,,64,67
16896,note_off,,,,,132,0,1,,,,,0,,,43,0
16896,note_off,,,,,0,0,1,,,,,0,,,70,0
17012,note_off,,,,,116,0,1,,,,,0,,,64,0
17072,note_on,,,,,60,0,1,,,,,0,,,42,59
17180,control_change,,,,,108,0,1,,,64,72,0,,,,
17196,control_change,,,,,16,0,1,,,64,0,0,,,,
17244,note_on,,,,,48,0,1,,,,,0,,,64,53
17308,control_change,,,,,64,0,1,,,64,127,0,,,,
17396,note_off,,,,,88,0,1,,,,,0,,,64,0
17424,note_on,,,,,28,0,1,,,,,0,,,70,53
17440,note_off,,,,,16,0,1,,,,,0,,,42,0
17556,note_off,,,,,116,0,1,,,,,0,,,70,0
17600,note_on,,,,,44,0,1,,,,,0,,,72,56
17636,note_off,,,,,36,0,1,,,,,0,,,60,0
17724,note_off,,,,,88,0,1,,,,,0,,,72,0
17784,note_on,,,,,60,0,1,,,,,0,,,60,70
17796,note_on,,,,,12,0,1,,,,,0,,,70,27
17900,note_off,,,,,104,0,1,,,,,0,,,60,0
17924,note_off,,,,,24,0,1,,,,,0,,,70,0
17968,note_on,,,,,44,0,1,,,,,0,,,64,40
18164,note_off,,,,,196,0,1,,,,,0,,,64,0
18200,note_on,,,,,36,0,1,,,,,0,,,60,73
18220,note_on,,,,,20,0,1,,,,,0,,,41,38
18268,control_change,,,,,48,0,1,,,64,24,0,,,,
18280,control_change,,,,,12,0,1,,,64,0,0,,,,
18360,control_change,,,,,80,0,1,,,64,56,0,,,,
18376,control_change,,,,,16,0,1,,,64,127,0,,,,
18380,note_on,,,,,4,0,1,,,,,0,,,63,51
18392,note_off,,,,,12,0,1,,,,,0,,,41,0
18500,note_off,,,,,108,0,1,,,,,0,,,63,0
18544,note_on,,,,,0,0,1,,,,,0,,,69,57
18544,note_off,,,,,44,0,1,,,,,0,,,60,0
18644,note_off,,,,,100,0,1,,,,,0,,,69,0
18672,note_on,,,,,28,0,1,,,,,0,,,72,62
18776,note_off,,,,,104,0,1,,,,,0,,,72,0
18820,note_on,,,,,44,0,1,,,,,0,,,60,81
18860,note_on,,,,,40,0,1,,,,,0,,,69,45
18968,note_off,,,,,108,0,1,,,,,0,,,69,0
18988,note_on,,,,,20,0,1,,,,,0,,,63,52
19028,note_off,,,,,40,0,1,,,,,0,,,60,0
19068,note_off,,,,,40,0,1,,,,,0,,,63,0
19096,note_on,,,,,28,0,1,,,,,0,,,53,47
19096,note_on,,,,,0,0,1,,,,,0,,,57,49
19172,note_on,,,,,76,0,1,,,,,0,,,61,80
19216,control_change,,,,,44,0,1,,,64,72,0,,,,
19228,control_change,,,,,12,0,1,,,64,0,0,,,,
19336,control_change,,,,,108,0,1,,,64,56,0,,,,
19340,note_on,,,,,4,0,1,,,,,0,,,63,44
19352,control_change,,,,,12,0,1,,,64,127,0,,,,
19444,note_off,,,,,92,0,1,,,,,0,,,63,0
19512,note_on,,,,,68,0,1,,,,,0,,,65,54
19620,note_off,,,,,108,0,1,,,,,0,,,65,0
19656,note_on,,,,,36,0,1,,,,,0,,,72,49
19752,note_off,,,,,96,0,1,,,,,0,,,61,0
19760,note_off,,,,,8,0,1,,,,,0,,,72,0
19796,note_on,,,,,36,0,1,,,,,0,,,60,81
19824,note_on,,,,,28,0,1,,,,,0,,,69,40
19864,control_change,,,,,40,0,1,,,64,72,0,,,,
19880,control_change,,,,,16,0,1,,,64,24,0,,,,
19928,control_change,,,,,48,0,1,,,64,127,0,,,,
19956,note_off,,,,,28,0,1,,,,,0,,,69,0
19972,note_on,,,,,0,0,1,,,,,0,,,63,55
19972,note_off,,,,,0,0,1,,,,,0,,,60,0
19972,note_off,,,,,16,0,1,,,,,0,,,57,0
20000,note_off,,,,,28,0,1,,,,,0,,,53,0
20064,note_off,,,,,64,0,1,,,,,0,,,63,0
20276,note_on,,,,,212,0,1,,,,,0,,,65,77
20328,control_change,,,,,0,0,1,,,64,88,0,,,,
20328,note_on,,,,,52,0,1,,,,,0,,,46,46
20344,control_change,,,,,16,0,1,,,64,0,0,,,,
20544,control_change,,,,,200,0,1,,,64,127,0,,,,
20556,note_on,,,,,12,0,1,,,,,0,,,62,51
20572,note_off,,,,,16,0,1,,,,,0,,,65,0
20648,note_off,,,,,76,0,1,,,,,0,,,62,0
20728,note_on,,,,,80,0,1,,,,,0,,,68,57
20784,note_off,,,,,56,0,1,,,,,0,,,46,0
20836,note_off,,,,,52,0,1,,,,,0,,,68,0
20900,note_on,,,,,64,0,1,,,,,0,,,77,59
20984,note_off,,,,,84,0,1,,,,,0,,,77,0
21048,note_on,,,,,64,0,1,,,,,0,,,72,53
21164,note_off,,,,,116,0,1,,,,,0,,,72,0
21172,note_on,,,,,8,0,1,,,,,0,,,68,49
21244,note_off,,,,,72,0,1,,,,,0,,,68,0
21344,note_on,,,,,100,0,1,,,,,0,,,34,48
21512,note_on,,,,,168,0,1,,,,,0,,,56,44
21656,note_off,,,,,144,0,1,,,,,0,,,56,0
21668,note_on,,,,,12,0,1,,,,,0,,,58,42
21800,note_off,,,,,132,0,1,,,,,0,,,58,0
21836,note_on,,,,,36,0,1,,,,,0,,,65,47
21896,note_off,,,,,60,0,1,,,,,0,,,34,0
21900,note_off,,,,,4,0,1,,,,,0,,,65,0
22024,note_on,,,,,124,0,1,,,,,0,,,53,77
22060,note_on,,,,,36,0,1,,,,,0,,,62,46
22116,note_off,,,,,56,0,1,,,,,0,,,53,0
22188,note_off,,,,,72,0,1,,,,,0,,,62,0
22212,note_on,,,,,24,0,1,,,,,0,,,58,45
22304,note_on,,,,,92,0,1,,,,,0,,,39,51
22316,note_off,,,,,12,0,1,,,,,0,,,58,0
22344,control_change,,,,,28,0,1,,,64,72,0,,,,
22356,control_change,,,,,12,0,1,,,64,0,0,,,,
22396,note_off,,,,,40,0,1,,,,,0,,,39,0
22408,note_on,,,,,12,0,1,,,,,0,,,53,78
22436,control_change,,,,,28,0,1,,,64,72,0,,,,
22452,control_change,,,,,16,0,1,,,64,127,0,,,,
22552,note_on,,,,,100,0,1,,,,,0,,,58,43
22648,note_off,,,,,96,0,1,,,,,0,,,53,0
22672,note_off,,,,,24,0,1,,,,,0,,,58,0
22700,note_on,,,,,28,0,1,,,,,0,,,61,52
22704,note_on,,,,,4,0,1,,,,,0,,,55,81
22832,note_off,,,,,128,0,1,,,,,0,,,61,0
22864,note_on,,,,,32,0,1,,,,,0,,,67,60
22980,note_off,,,,,116,0,1,,,,,0,,,67,0
22996,note_off,,,,,16,0,1,,,,,0,,,55,0
22996,note_on,,,,,0,0,1,,,,,0,,,56,81
23036,note_on,,,,,40,0,1,,,,,0,,,63,49
23156,note_off,,,,,120,0,1,,,,,0,,,63,0
23168,note_on,,,,,12,0,1,,,,,0,,,61,57
23244,note_off,,,,,76,0,1,,,,,0,,,61,0
23248,note_off,,,,,4,0,1,,,,,0,,,56,0
23284,note_on,,,,,36,0,1,,,,,0,,,51,63
23376,note_on,,,,,92,0,1,,,,,0,,,60,82
23428,control_change,,,,,52,0,1,,,64,72,0,,,,
23444,control_change,,,,,16,0,1,,,64,0,0,,,,
23524,note_on,,,,,80,0,1,,,,,0,,,61,53
23616,control_change,,,,,92,0,1,,,64,104,0,,,,
23628,control_change,,,,,12,0,1,,,64,127,0,,,,
23648,note_off,,,,,20,0,1,,,,,0,,,61,0
23668,note_on,,,,,20,0,1,,,,,0,,,63,55
23788,note_off,,,,,120,0,1,,,,,0,,,63,0
23828,note_on,,,,,40,0,1,,,,,0,,,67,48
24008,note_on,,,,,180,0,1,,,,,0,,,58,63
24024,note_off,,,,,16,0,1,,,,,0,,,67,0
24036,note_on,,,,,12,0,1,,,,,0,,,63,34
24052,note_off,,,,,16,0,1,,,,,0,,,60,0
24140,note_off,,,,,88,0,1,,,,,0,,,58,0
24144,note_off,,,,,4,0,1,,,,,0,,,51,0
24196,note_off,,,,,52,0,1,,,,,0,,,63,0
24204,note_on,,,,,8,0,1,,,,,0,,,61,43
24284,note_off,,,,,80,0,1,,,,,0,,,61,0
24400,note_on,,,,,116,0,1,,,,,0,,,56,61
24428,note_on,,,,,28,0,1,,,,,0,,,44,40
24528,control_change,,,,,100,0,1,,,64,56,0,,,,
24544,control_change,,,,,16,0,1,,,64,0,0,,,,
24568,note_on,,,,,24,0,1,,,,,0,,,60,44
24680,note_off,,,,,112,0,1,,,,,0,,,60,0
24716,control_change,,,,,36,0,1,,,64,72,0,,,,
24724,note_on,,,,,8,0,1,,,,,0,,,63,43
24728,control_change,,,,,4,0,1,,,64,127,0,,,,
24856,note_off,,,,,128,0,1,,,,,0,,,63,0
24876,note_on,,,,,20,0,1,,,,,0,,,68,45
24904,note_off,,,,,28,0,1,,,,,0,,,56,0
24956,note_off,,,,,52,0,1,,,,,0,,,44,0
24988,note_off,,,,,32,0,1,,,,,0,,,68,0
25020,note_on,,,,,32,0,1,,,,,0,,,63,45
25156,note_off,,,,,136,0,1,,,,,0,,,63,0
25176,note_on,,,,,20,0,1,,,,,0,,,60,49
25276,note_off,,,,,100,0,1,,,,,0,,,60,0
25352,note_on,,,,,76,0,1,,,,,0,,,32,39
25476,note_off,,,,,124,0,1,,,,,0,,,32,0
25524,note_on,,,,,48,0,1,,,,,0,,,60,48
25672,note_off,,,,,148,0,1,,,,,0,,,60,0
25704,note_on,,,,,32,0,1,,,,,0,,,68,42
25840,note_off,,,,,136,0,1,,,,,0,,,68,0
25868,note_on,,,,,28,0,1,,,,,0,,,63,46
26032,note_off,,,,,164,0,1,,,,,0,,,63,0
26080,note_on,,,,,48,0,1,,,,,0,,,60,42
26232,note_off,,,,,152,0,1,,,,,0,,,60,0
26272,note_on,,,,,40,0,1,,,,,0,,,56,70
26408,note_off,,,,,136,0,1,,,,,0,,,56,0
26572,note_on,,,,,164,0,1,,,,,0,,,56,68
26600,note_on,,,,,28,0,1,,,,,0,,,40,39
26680,control_change,,,,,80,0,1,,,64,72,0,,,,
26696,control_change,,,,,16,0,1,,,64,0,0,,,,
26756,note_on,,,,,60,0,1,,,,,0,,,61,53
26808,control_change,,,,,52,0,1,,,64,72,0,,,,
26824,control_change,,,,,16,0,1,,,64,127,0,,,,
26880,note_off,,,,,56,0,1,,,,,0,,,61,0
26936,note_on,,,,,56,0,1,,,,,0,,,64,42
27028,note_off,,,,,92,0,1,,,,,0,,,64,0
27060,note_on,,,,,32,0,1,,,,,0,,,68,48
27140,note_off,,,,,80,0,1,,,,,0,,,40,0
27224,note_off,,,,,84,0,1,,,,,0,,,68,0
27236,note_on,,,,,12,0,1,,,,,0,,,61,58
27248,note_off,,,,,12,0,1,,,,,0,,,56,0
27340,note_off,,,,,92,0,1,,,,,0,,,61,0
27380,note_on,,,,,40,0,1,,,,,0,,,55,73
27472,note_off,,,,,92,0,1,,,,,0,,,55,0
27540,note_on,,,,,68,0,1,,,,,0,,,37,40
27572,note_on,,,,,32,0,1,,,,,0,,,56,79
27604,note_on,,,,,32,0,1,,,,,0,,,52,38
27660,control_change,,,,,56,0,1,,,64,40,0,,,,
27664,note_off,,,,,4,0,1,,,,,0,,,37,0
27672,control_change,,,,,8,0,1,,,64,0,0,,,,
27744,note_on,,,,,72,0,1,,,,,0,,,61,58
27780,control_change,,,,,36,0,1,,,64,127,0,,,,
27860,note_off,,,,,80,0,1,,,,,0,,,56,0
27876,note_off,,,,,16,0,1,,,,,0,,,61,0
27908,note_on,,,,,32,0,1,,,,,0,,,64,66
28016,note_off,,,,,108,0,1,,,,,0,,,64,0
28040,note_on,,,,,24,0,1,,,,,0,,,68,58
28132,note_off,,,,,92,0,1,,,,,0,,,52,0
28144,note_off,,,,,12,0,1,,,,,0,,,68,0
28196,note_on,,,,,52,0,1,,,,,0,,,64,68
28324,note_off,,,,,128,0,1,,,,,0,,,64,0
28352,note_on,,,,,28,0,1,,,,,0,,,58,77
28500,note_off,,,,,148,0,1,,,,,0,,,58,0
28620,note_on,,,,,120,0,1,,,,,0,,,60,80
28664,note_on,,,,,44,0,1,,,,,0,,,56,37
28668,note_on,,,,,4,0,1,,,,,0,,,44,41
28684,note_on,,,,,16,0,1,,,,,0,,,51,35
28744,control_change,,,,,60,0,1,,,64,88,0,,,,
28760,control_change,,,,,16,0,1,,,64,0,0,,,,
28824,note_on,,,,,64,0,1,,,,,0,,,63,55
28900,control_change,,,,,76,0,1,,,64,104,0,,,,
28916,control_change,,,,,16,0,1,,,64,127,0,,,,
28936,note_off,,,,,20,0,1,,,,,0,,,63,0
28988,note_on,,,,,52,0,1,,,,,0,,,68,52
29056,note_off,,,,,68,0,1,,,,,0,,,56,0
29080,note_off,,,,,24,0,1,,,,,0,,,51,0
29092,note_off,,,,,12,0,1,,,,,0,,,68,0
29120,note_off,,,,,28,0,1,,,,,0,,,44,0
29124,note_on,,,,,4,0,1,,,,,0,,,72,66
29212,note_off,,,,,88,0,1,,,,,0,,,72,0
29268,note_on,,,,,56,0,1,,,,,0,,,68,38
29396,note_off,,,,,128,0,1,,,,,0,,,68,0
29408,note_on,,,,,12,0,1,,,,,0,,,63,56
29444,note_off,,,,,36,0,1,,,,,0,,,60,0
29516,note_off,,,,,72,0,1,,,,,0,,,63,0
29580,note_on,,,,,64,0,1,,,,,0,,,32,37
29672,note_off,,,,,92,0,1,,,,,0,,,32,0
29724,note_on,,,,,52,0,1,,,,,0,,,63,45
29820,note_off,,,,,96,0,1,,,,,0,,,63,0
29924,note_on,,,,,104,0,1,,,,,0,,,72,59
30016,note_off,,,,,92,0,1,,,,,0,,,72,0
30068,note_on,,,,,52,0,1,,,,,0,,,68,55
30200,note_off,,,,,132,0,1,,,,,0,,,68,0
30236,note_on,,,,,36,0,1,,,,,0,,,63,51
30392,note_on,,,,,156,0,1,,,,,0,,,60,74
30396,note_off,,,,,4,0,1,,,,,0,,,63,0
30536,note_off,,,,,140,0,1,,,,,0,,,60,0
30656,note_on,,,,,120,0,1,,,,,0,,,60,77
30704,note_on,,,,,48,0,1,,,,,0,,,44,38
30744,control_change,,,,,40,0,1,,,64,88,0,,,,
30760,control_change,,,,,16,0,1,,,64,0,0,,,,
30832,note_on,,,,,72,0,1,,,,,0,,,65,61
30868,control_change,,,,,36,0,1,,,64,72,0,,,,
30880,control_change,,,,,12,0,1,,,64,127,0,,,,
30936,note_off,,,,,56,0,1,,,,,0,,,65,0
30980,note_on,,,,,44,0,1,,,,,0,,,68,60
31104,note_off,,,,,124,0,1,,,,,0,,,68,0
31132,note_on,,,,,28,0,1,,,,,0,,,72,72
31232,note_off,,,,,100,0,1,,,,,0,,,72,0
31252,note_off,,,,,20,0,1,,,,,0,,,60,0
31300,note_on,,,,,48,0,1,,,,,0,,,65,67
31384,note_off,,,,,84,0,1,,,,,0,,,44,0
31424,note_off,,,,,40,0,1,,,,,0,,,65,0
31436,note_on,,,,,12,0,1,,,,,0,,,59,80
31552,note_off,,,,,116,0,1,,,,,0,,,59,0
31620,note_on,,,,,68,0,1,,,,,0,,,60,82
31628,note_on,,,,,8,0,1,,,,,0,,,41,59
31628,note_on,,,,,0,0,1,,,,,0,,,56,49
31656,control_change,,,,,28,0,1,,,64,72,0,,,,
31672,control_change,,,,,16,0,1,,,64,0,0,,,,
31776,note_on,,,,,104,0,1,,,,,0,,,65,72
31780,control_change,,,,,4,0,1,,,64,56,0,,,,
31796,control_change,,,,,16,0,1,,,64,127,0,,,,
31900,note_off,,,,,104,0,1,,,,,0,,,65,0
31932,note_on,,,,,32,0,1,,,,,0,,,68,64
32004,note_off,,,,,72,0,1,,,,,0,,,60,0
32048,note_off,,,,,44,0,1,,,,,0,,,68,0
32072,note_on,,,,,24,0,1,,,,,0,,,72,80
32200,note_off,,,,,128,0,1,,,,,0,,,56,0
32212,note_off,,,,,12,0,1,,,,,0,,,72,0
32212,note_on,,,,,0,0,1,,,,,0,,,65,74
32288,note_off,,,,,76,0,1,,,,,0,,,41,0
32340,note_off,,,,,52,0,1,,,,,0,,,65,0
32376,note_on,,,,,36,0,1,,,,,0,,,62,87
32512,note_off,,,,,136,0,1,,,,,0,,,62,0
32620,note_on,,,,,108,0,1,,,,,0,,,64,92
32648,control_change,,,,,28,0,1,,,64,72,0,,,,
32652,note_on,,,,,4,0,1,,,,,0,,,36,49
32664,control_change,,,,,12,0,1,,,64,0,0,,,,
32724,note_off,,,,,60,0,1,,,,,0,,,36,0
32756,control_change,,,,,32,0,1,,,64,88,0,,,,
32772,control_change,,,,,16,0,1,,,64,127,0,,,,
32824,note_on,,,,,52,0,1,,,,,0,,,67,66
32868,note_on,,,,,0,0,1,,,,,0,,,55,32
32868,note_off,,,,,44,0,1,,,,,0,,,64,0
32920,note_off,,,,,52,0,1,,,,,0,,,55,0
32940,note_off,,,,,20,0,1,,,,,0,,,67,0
32976,note_on,,,,,36,0,1,,,,,0,,,72,82
33104,note_off,,,,,128,0,1,,,,,0,,,72,0
33120,note_on,,,,,16,0,1,,,,,0,,,76,76
33236,note_off,,,,,116,0,1,,,,,0,,,76,0
33272,note_on,,,,,36,0,1,,,,,0,,,72,74
33384,note_off,,,,,112,0,1,,,,,0,,,72,0
33404,note_on,,,,,20,0,1,,,,,0,,,67,72
33512,note_off,,,,,108,0,1,,,,,0,,,67,0
33548,note_on,,,,,36,0,1,,,,,0,,,64,85
33716,note_on,,,,,168,0,1,,,,,0,,,67,66
33816,note_off,,,,,100,0,1,,,,,0,,,67,0
33824,note_off,,,,,8,0,1,,,,,0,,,64,0
33860,note_on,,,,,36,0,1,,,,,0,,,72,78
33968,note_off,,,,,108,0,1,,,,,0,,,72,0
33996,note_on,,,,,28,0,1,,,,,0,,,76,81
34100,note_off,,,,,104,0,1,,,,,0,,,76,0
34140,note_on,,,,,40,0,1,,,,,0,,,72,75
34260,note_off,,,,,120,0,1,,,,,0,,,72,0
34272,note_on,,,,,12,0,1,,,,,0,,,67,74
34392,note_on,,,,,120,0,1,,,,,0,,,45,58
34420,note_off,,,,,28,0,1,,,,,0,,,67,0
34456,note_on,,,,,36,0,1,,,,,0,,,52,34
34524,note_on,,,,,68,0,1,,,,,0,,,64,82
34560,note_on,,,,,36,0,1,,,,,0,,,60,48
34588,control_change,,,,,28,0,1,,,64,72,0,,,,
34604,control_change,,,,,16,0,1,,,64,0,0,,,,
34724,control_change,,,,,120,0,1,,,64,104,0,,,,
34728,note_on,,,,,4,0,1,,,,,0,,,69,64
34736,control_change,,,,,8,0,1,,,64,127,0,,,,
34744,note_off,,,,,8,0,1,,,,,0,,,64,0
34796,note_off,,,,,52,0,1,,,,,0,,,45,0
34816,note_off,,,,,20,0,1,,,,,0,,,60,0
34832,note_off,,,,,16,0,1,,,,,0,,,69,0
34848,note_off,,,,,16,0,1,,,,,0,,,52,0
34872,note_on,,,,,24,0,1,,,,,0,,,72,70
34980,note_off,,,,,108,0,1,,,,,0,,,72,0
35016,note_on,,,,,36,0,1,,,,,0,,,76,61
35100,note_off,,,,,84,0,1,,,,,0,,,76,0
35152,note_on,,,,,52,0,1,,,,,0,,,72,62
35276,note_off,,,,,124,0,1,,,,,0,,,72,0
35280,note_on,,,,,4,0,1,,,,,0,,,69,68
35388,note_off,,,,,108,0,1,,,,,0,,,69,0
35440,note_on,,,,,52,0,1,,,,,0,,,64,74
35592,note_on,,,,,152,0,1,,,,,0,,,69,58
35704,note_off,,,,,112,0,1,,,,,0,,,69,0
35716,note_off,,,,,12,0,1,,,,,0,,,64,0
35748,note_on,,,,,32,0,1,,,,,0,,,72,67
35876,note_off,,,,,128,0,1,,,,,0,,,72,0
35912,note_on,,,,,36,0,1,,,,,0,,,76,51
36020,note_off,,,,,108,0,1,,,,,0,,,76,0
36076,note_on,,,,,56,0,1,,,,,0,,,72,53
36196,note_off,,,,,120,0,1,,,,,0,,,72,0
36232,note_on,,,,,36,0,1,,,,,0,,,69,53
36352,note_off,,,,,120,0,1,,,,,0,,,69,0
36440,note_on,,,,,88,0,1,,,,,0,,,40,45
36448,control_change,,,,,8,0,1,,,64,88,0,,,,
36460,control_change,,,,,12,0,1,,,64,0,0,,,,
36500,note_on,,,,,40,0,1,,,,,0,,,47,47
36520,note_off,,,,,20,0,1,,,,,0,,,40,0
36520,note_on,,,,,0,0,1,,,,,0,,,64,72
36552,control_change,,,,,32,0,1,,,64,127,0,,,,
36588,note_off,,,,,36,0,1,,,,,0,,,47,0
36624,note_on,,,,,36,0,1,,,,,0,,,56,26
36692,note_on,,,,,68,0,1,,,,,0,,,68,48
36712,note_off,,,,,0,0,1,,,,,0,,,56,0
36712,note_off,,,,,20,0,1,,,,,0,,,64,0
36816,note_off,,,,,104,0,1,,,,,0,,,68,0
36864,note_on,,,,,48,0,1,,,,,0,,,71,48
36984,note_off,,,,,120,0,1,,,,,0,,,71,0
37008,note_on,,,,,24,0,1,,,,,0,,,76,57
37128,note_off,,,,,120,0,1,,,,,0,,,76,0
37160,note_on,,,,,32,0,1,,,,,0,,,71,41
37276,note_on,,,,,0,0,1,,,,,0,,,68,46
37276,note_off,,,,,116,0,1,,,,,0,,,71,0
37356,note_off,,,,,80,0,1,,,,,0,,,68,0
37424,note_on,,,,,68,0,1,,,,,0,,,59,67
37584,note_on,,,,,160,0,1,,,,,0,,,64,50
37680,note_off,,,,,96,0,1,,,,,0,,,64,0
37748,note_off,,,,,68,0,1,,,,,0,,,59,0
37748,note_on,,,,,0,0,1,,,,,0,,,68,49
37868,note_off,,,,,120,0,1,,,,,0,,,68,0
37892,note_on,,,,,24,0,1,,,,,0,,,71,56
38020,note_off,,,,,128,0,1,,,,,0,,,71,0
38052,note_on,,,,,32,0,1,,,,,0,,,68,36
38196,note_off,,,,,144,0,1,,,,,0,,,68,0
38208,note_on,,,,,12,0,1,,,,,0,,,64,41
38268,note_off,,,,,60,0,1,,,,,0,,,64,0
38452,note_on,,,,,184,0,1,,,,,0,,,61,67
38472,note_on,,,,,20,0,1,,,,,0,,,56,34
38496,note_on,,,,,24,0,1,,,,,0,,,40,35
38504,control_change,,,,,8,0,1,,,64,88,0,,,,
38520,control_change,,,,,16,0,1,,,64,24,0,,,,
38540,control_change,,,,,20,0,1,,,64,0,0,,,,
38660,note_on,,,,,120,0,1,,,,,0,,,64,59
38660,control_change,,,,,0,0,1,,,64,72,0,,,,
38676,note_off,,,,,16,0,1,,,,,0,,,61,0
38676,control_change,,,,,0,0,1,,,64,127,0,,,,
38704,note_off,,,,,28,0,1,,,,,0,,,56,0
38772,note_off,,,,,68,0,1,,,,,0,,,64,0
38808,note_on,,,,,36,0,1,,,,,0,,,68,40
38852,note_off,,,,,44,0,1,,,,,0,,,68,0
38940,note_on,,,,,88,0,1,,,,,0,,,73,68
39060,note_off,,,,,120,0,1,,,,,0,,,73,0
39080,note_on,,,,,20,0,1,,,,,0,,,68,51
39228,note_off,,,,,148,0,1,,,,,0,,,40,0
39232,note_off,,,,,4,0,1,,,,,0,,,68,0
39240,note_on,,,,,8,0,1,,,,,0,,,64,55
39284,note_off,,,,,44,0,1,,,,,0,,,64,0
39564,note_on,,,,,280,0,1,,,,,0,,,61,46
39668,note_off,,,,,104,0,1,,,,,0,,,61,0
39736,note_on,,,,,68,0,1,,,,,0,,,64,42
39788,note_off,,,,,52,0,1,,,,,0,,,64,0
39864,note_on,,,,,76,0,1,,,,,0,,,68,40
39988,note_off,,,,,124,0,1,,,,,0,,,68,0
40012,note_on,,,,,24,0,1,,,,,0,,,56,65
40036,note_on,,,,,24,0,1,,,,,0,,,64,40
40132,note_off,,,,,96,0,1,,,,,0,,,56,0
40132,note_off,,,,,0,0,1,,,,,0,,,64,0
40184,note_on,,,,,52,0,1,,,,,0,,,61,37
40396,note_off,,,,,212,0,1,,,,,0,,,61,0
40420,note_on,,,,,24,0,1,,,,,0,,,39,42
40436,note_on,,,,,16,0,1,,,,,0,,,58,67
40444,control_change,,,,,8,0,1,,,64,56,0,,,,
40456,control_change,,,,,12,0,1,,,64,0,0,,,,
40560,note_off,,,,,104,0,1,,,,,0,,,39,0
40568,control_change,,,,,8,0,1,,,64,104,0,,,,
40584,control_change,,,,,16,0,1,,,64,127,0,,,,
40628,note_on,,,,,44,0,1,,,,,0,,,63,53
40644,note_on,,,,,16,0,1,,,,,0,,,55,46
40700,note_off,,,,,56,0,1,,,,,0,,,55,0
40740,note_off,,,,,40,0,1,,,,,0,,,63,0
40784,note_on,,,,,44,0,1,,,,,0,,,67,61
40896,note_off,,,,,112,0,1,,,,,0,,,67,0
40916,note_on,,,,,20,0,1,,,,,0,,,70,55
41028,note_off,,,,,112,0,1,,,,,0,,,70,0
41084,note_on,,,,,56,0,1,,,,,0,,,67,35
41192,note_on,,,,,108,0,1,,,,,0,,,63,53
41208,note_off,,,,,16,0,1,,,,,0,,,67,0
41232,note_off,,,,,24,0,1,,,,,0,,,58,0
41288,note_off,,,,,56,0,1,,,,,0,,,63,0
41432,note_on,,,,,144,0,1,,,,,0,,,61,72
41452,control_change,,,,,20,0,1,,,64,88,0,,,,
41468,control_change,,,,,0,0,1,,,64,24,0,,,,
41468,note_on,,,,,16,0,1,,,,,0,,,56,31
41484,control_change,,,,,16,0,1,,,64,0,0,,,,
41488,note_on,,,,,4,0,1,,,,,0,,,40,40
41572,control_change,,,,,84,0,1,,,64,56,0,,,,
41592,control_change,,,,,20,0,1,,,64,127,0,,,,
41656,note_on,,,,,64,0,1,,,,,0,,,64,61
41664,note_off,,,,,8,0,1,,,,,0,,,56,0
41688,note_off,,,,,24,0,1,,,,,0,,,40,0
41696,note_off,,,,,8,0,1,,,,,0,,,61,0
41780,note_off,,,,,84,0,1,,,,,0,,,64,0
41808,note_on,,,,,28,0,1,,,,,0,,,68,44
41852,note_off,,,,,44,0,1,,,,,0,,,68,0
41924,note_on,,,,,72,0,1,,,,,0,,,73,71
42028,note_off,,,,,104,0,1,,,,,0,,,73,0
42064,note_on,,,,,36,0,1,,,,,0,,,59,75
42072,note_on,,,,,8,0,1,,,,,0,,,68,51
42148,note_off,,,,,76,0,1,,,,,0,,,59,0
42188,note_off,,,,,40,0,1,,,,,0,,,68,0
42224,note_on,,,,,36,0,1,,,,,0,,,64,54
42356,note_on,,,,,132,0,1,,,,,0,,,39,40
42368,note_off,,,,,12,0,1,,,,,0,,,64,0
42380,control_change,,,,,12,0,1,,,64,72,0,,,,
42388,note_on,,,,,8,0,1,,,,,0,,,58,75
42396,control_change,,,,,8,0,1,,,64,0,0,,,,
42464,note_on,,,,,68,0,1,,,,,0,,,55,39
42476,control_change,,,,,12,0,1,,,64,72,0,,,,
42480,note_off,,,,,4,0,1,,,,,0,,,39,0
42492,control_change,,,,,12,0,1,,,64,127,0,,,,
42544,note_on,,,,,52,0,1,,,,,0,,,63,64
42564,note_off,,,,,20,0,1,,,,,0,,,55,0
42584,note_off,,,,,20,0,1,,,,,0,,,58,0
42692,note_on,,,,,0,0,1,,,,,0,,,57,75
42692,note_off,,,,,108,0,1,,,,,0,,,63,0
42712,note_on,,,,,20,0,1,,,,,0,,,67,68
42824,note_off,,,,,112,0,1,,,,,0,,,67,0
42836,note_on,,,,,12,0,1,,,,,0,,,70,61
42952,note_off,,,,,116,0,1,,,,,0,,,57,0
42972,note_on,,,,,20,0,1,,,,,0,,,58,87
42988,note_off,,,,,16,0,1,,,,,0,,,70,0
43008,note_on,,,,,20,0,1,,,,,0,,,67,41
43084,note_off,,,,,76,0,1,,,,,0,,,58,0
43104,note_on,,,,,0,0,1,,,,,0,,,63,55
43104,note_off,,,,,20,0,1,,,,,0,,,67,0
43180,note_off,,,,,76,0,1,,,,,0,,,63,0
43328,note_on,,,,,148,0,1,,,,,0,,,61,83
43340,control_change,,,,,12,0,1,,,64,104,0,,,,
43352,note_on,,,,,12,0,1,,,,,0,,,56,40
43356,control_change,,,,,4,0,1,,,64,40,0,,,,
43372,control_change,,,,,0,0,1,,,64,0,0,,,,
43372,note_on,,,,,16,0,1,,,,,0,,,40,46
43484,control_change,,,,,112,0,1,,,64,127,0,,,,
43504,note_off,,,,,20,0,1,,,,,0,,,56,0
43512,note_on,,,,,8,0,1,,,,,0,,,64,70
43536,note_off,,,,,24,0,1,,,,,0,,,61,0
43560,note_off,,,,,24,0,1,,,,,0,,,40,0
43640,note_off,,,,,80,0,1,,,,,0,,,64,0
43660,note_on,,,,,20,0,1,,,,,0,,,68,64
43736,note_off,,,,,76,0,1,,,,,0,,,68,0
43792,note_on,,,,,56,0,1,,,,,0,,,73,77
43900,note_off,,,,,108,0,1,,,,,0,,,73,0
43924,note_on,,,,,24,0,1,,,,,0,,,68,60
43948,note_on,,,,,24,0,1,,,,,0,,,59,82
44024,note_off,,,,,76,0,1,,,,,0,,,59,0
44048,note_off,,,,,24,0,1,,,,,0,,,68,0
44072,note_on,,,,,24,0,1,,,,,0,,,64,70
44212,note_on,,,,,140,0,1,,,,,0,,,39,57
44220,note_off,,,,,8,0,1,,,,,0,,,64,0
44244,control_change,,,,,24,0,1,,,64,56,0,,,,
44248,note_on,,,,,4,0,1,,,,,0,,,58,79
44256,control_change,,,,,8,0,1,,,64,0,0,,,,
44272,note_off,,,,,16,0,1,,,,,0,,,39,0
44312,note_on,,,,,40,0,1,,,,,0,,,55,67
44336,control_change,,,,,24,0,1,,,64,127,0,,,,
44376,note_off,,,,,40,0,1,,,,,0,,,55,0
44396,note_on,,,,,20,0,1,,,,,0,,,63,65
44412,note_off,,,,,16,0,1,,,,,0,,,58,0
44524,note_off,,,,,112,0,1,,,,,0,,,63,0
44540,note_on,,,,,16,0,1,,,,,0,,,57,83
44552,note_on,,,,,12,0,1,,,,,0,,,67,70
44656,note_off,,,,,104,0,1,,,,,0,,,67,0
44676,note_on,,,,,20,0,1,,,,,0,,,70,62
44776,note_off,,,,,100,0,1,,,,,0,,,57,0
44812,note_on,,,,,36,0,1,,,,,0,,,67,61
44820,note_off,,,,,8,0,1,,,,,0,,,70,0
44820,note_on,,,,,0,0,1,,,,,0,,,58,90
44940,note_off,,,,,120,0,1,,,,,0,,,58,0
44948,note_on,,,,,8,0,1,,,,,0,,,63,63
44964,note_off,,,,,16,0,1,,,,,0,,,67,0
45032,note_off,,,,,68,0,1,,,,,0,,,63,0
45204,note_on,,,,,172,0,1,,,,,0,,,64,92
45224,note_on,,,,,20,0,1,,,,,0,,,37,44
45232,control_change,,,,,8,0,1,,,64,104,0,,,,
45248,control_change,,,,,16,0,1,,,64,0,0,,,,
45252,note_on,,,,,4,0,1,,,,,0,,,49,46
45356,control_change,,,,,104,0,1,,,64,72,0,,,,
45368,control_change,,,,,12,0,1,,,64,127,0,,,,
45396,note_off,,,,,28,0,1,,,,,0,,,37,0
45408,note_on,,,,,12,0,1,,,,,0,,,68,67
45420,note_off,,,,,12,0,1,,,,,0,,,49,0
45544,note_off,,,,,124,0,1,,,,,0,,,68,0
45580,note_off,,,,,36,0,1,,,,,0,,,64,0
45580,note_on,,,,,0,0,1,,,,,0,,,70,69
45600,note_on,,,,,20,0,1,,,,,0,,,56,69
45748,note_off,,,,,148,0,1,,,,,0,,,70,0
45764,note_on,,,,,16,0,1,,,,,0,,,76,79
45928,note_off,,,,,164,0,1,,,,,0,,,56,0
45940,note_off,,,,,12,0,1,,,,,0,,,76,0
45940,note_on,,,,,0,0,1,,,,,0,,,58,79
45952,note_on,,,,,12,0,1,,,,,0,,,70,65
46084,note_off,,,,,132,0,1,,,,,0,,,70,0
46108,note_on,,,,,24,0,1,,,,,0,,,68,62
46176,note_off,,,,,68,0,1,,,,,0,,,68,0
46408,note_on,,,,,232,0,1,,,,,0,,,64,81
46428,note_off,,,,,20,0,1,,,,,0,,,58,0
46676,control_change,,,,,248,0,1,,,64,56,0,,,,
46692,control_change,,,,,16,0,1,,,64,0,0,,,,
46952,control_change,,,,,260,0,1,,,64,72,0,,,,
47000,control_change,,,,,48,0,1,,,64,0,0,,,,
47092,control_change,,,,,92,0,1,,,64,88,0,,,,
47108,control_change,,,,,16,0,1,,,64,127,0,,,,
47616,note_on,,,,,508,0,1,,,,,0,,,63,74
47648,note_off,,,,,32,0,1,,,,,0,,,64,0
47664,control_change,,,,,16,0,1,,,64,88,0,,,,
47680,control_change,,,,,16,0,1,,,64,0,0,,,,
47808,control_change,,,,,128,0,1,,,64,72,0,,,,
47820,control_change,,,,,12,0,1,,,64,127,0,,,,
48080,note_on,,,,,260,0,1,,,,,0,,,61,65
48112,control_change,,,,,0,0,1,,,64,72,0,,,,
48112,note_off,,,,,32,0,1,,,,,0,,,63,0
48128,control_change,,,,,16,0,1,,,64,0,0,,,,
48224,control_change,,,,,96,0,1,,,64,56,0,,,,
48240,control_change,,,,,16,0,1,,,64,127,0,,,,
48424,control_change,,,,,184,0,1,,,64,72,0,,,,
48440,control_change,,,,,16,0,1,,,64,0,0,,,,
48444,note_off,,,,,4,0,1,,,,,0,,,61,0
48444,note_on,,,,,0,0,1,,,,,0,,,59,70
48536,control_change,,,,,92,0,1,,,64,56,0,,,,
48552,control_change,,,,,16,0,1,,,64,127,0,,,,
48796,note_on,,,,,244,0,1,,,,,0,,,58,64
48816,note_off,,,,,20,0,1,,,,,0,,,59,0
48840,control_change,,,,,24,0,1,,,64,24,0,,,,
48856,control_change,,,,,16,0,1,,,64,0,0,,,,
48952,control_change,,,,,96,0,1,,,64,72,0,,,,
48968,control_change,,,,,16,0,1,,,64,127,0,,,,
49212,note_on,,,,,244,0,1,,,,,0,,,56,61
49240,note_off,,,,,28,0,1,,,,,0,,,58,0
49248,control_change,,,,,8,0,1,,,64,104,0,,,,
49264,control_change,,,,,16,0,1,,,64,40,0,,,,
49280,control_change,,,,,16,0,1,,,64,0,0,,,,
49400,control_change,,,,,120,0,1,,,64,72,0,,,,
49416,control_change,,,,,16,0,1,,,64,127,0,,,,
49888,note_off,,,,,472,0,1,,,,,0,,,56,0
49888,note_on,,,,,0,0,1,,,,,0,,,55,54
49988,control_change,,,,,100,0,1,,,64,88,0,,,,
50008,control_change,,,,,20,0,1,,,64,72,0,,,,
50020,control_change,,,,,12,0,1,,,64,24,0,,,,
50036,control_change,,,,,16,0,1,,,64,0,0,,,,
50220,control_change,,,,,184,0,1,,,64,88,0,,,,
50236,control_change,,,,,16,0,1,,,64,127,0,,,,
50388,note_off,,,,,152,0,1,,,,,0,,,55,0
51308,set_tempo,,,,,51308,1,0,,444444,,,,,,,
51316,note_on,,,,,928,0,1,,,,,0,,,39,38
51316,control_change,,,,,0,0,1,,,64,40,0,,,,
51328,control_change,,,,,12,0,1,,,64,88,0,,,,
51340,control_change,,,,,12,0,1,,,64,127,0,,,,
51524,note_off,,,,,184,0,1,,,,,0,,,39,0
51532,note_on,,,,,8,0,1,,,,,0,,,46,40
51696,note_off,,,,,164,0,1,,,,,0,,,46,0
51704,note_on,,,,,8,0,1,,,,,0,,,49,45
51832,note_off,,,,,128,0,1,,,,,0,,,49,0
51864,note_on,,,,,32,0,1,,,,,0,,,55,56
52012,note_on,,,,,148,0,1,,,,,0,,,58,57
52024,note_off,,,,,12,0,1,,,,,0,,,55,0
52164,note_off,,,,,140,0,1,,,,,0,,,58,0
52172,note_on,,,,,8,0,1,,,,,0,,,61,58
52324,note_off,,,,,152,0,1,,,,,0,,,61,0
52332,note_on,,,,,8,0,1,,,,,0,,,64,60
52476,note_off,,,,,144,0,1,,,,,0,,,64,0
52480,note_on,,,,,4,0,1,,,,,0,,,63,60
52548,note_off,,,,,68,0,1,,,,,0,,,63,0
52636,note_on,,,,,88,0,1,,,,,0,,,68,58
52648,note_on,,,,,12,0,1,,,,,0,,,64,47
52728,note_off,,,,,0,0,1,,,,,0,,,64,0
52728,note_off,,,,,80,0,1,,,,,0,,,68,0
52772,note_on,,,,,44,0,1,,,,,0,,,63,47
52780,note_on,,,,,8,0,1,,,,,0,,,67,65
52808,note_off,,,,,28,0,1,,,,,0,,,63,0
52816,note_off,,,,,8,0,1,,,,,0,,,67,0
52928,note_on,,,,,112,0,1,,,,,0,,,68,62
52928,note_on,,,,,0,0,1,,,,,0,,,73,58
52936,note_on,,,,,8,0,1,,,,,0,,,64,53
53008,note_off,,,,,72,0,1,,,,,0,,,68,0
53012,note_off,,,,,4,0,1,,,,,0,,,73,0
53068,note_off,,,,,56,0,1,,,,,0,,,64,0
53076,note_on,,,,,0,0,1,,,,,0,,,70,65
53076,note_on,,,,,0,0,1,,,,,0,,,63,55
53076,note_on,,,,,8,0,1,,,,,0,,,67,49
53108,note_off,,,,,32,0,1,,,,,0,,,67,0
53124,note_off,,,,,16,0,1,,,,,0,,,70,0
53128,note_off,,,,,4,0,1,,,,,0,,,63,0
53220,note_on,,,,,92,0,1,,,,,0,,,76,65
53224,note_on,,,,,4,0,1,,,,,0,,,73,59
53232,note_on,,,,,8,0,1,,,,,0,,,68,50
53284,note_off,,,,,52,0,1,,,,,0,,,76,0
53320,note_off,,,,,36,0,1,,,,,0,,,73,0
53332,note_off,,,,,12,0,1,,,,,0,,,68,0
53360,note_on,,,,,0,0,1,,,,,0,,,70,60
53360,note_on,,,,,28,0,1,,,,,0,,,75,73
53372,note_on,,,,,12,0,1,,,,,0,,,67,52
53404,note_off,,,,,32,0,1,,,,,0,,,70,0
53404,note_off,,,,,0,0,1,,,,,0,,,67,0
53420,note_off,,,,,16,0,1,,,,,0,,,75,0
53492,note_on,,,,,72,0,1,,,,,0,,,80,65
53512,note_on,,,,,20,0,1,,,,,0,,,76,68
53520,note_on,,,,,8,0,1,,,,,0,,,71,52
53536,control_change,,,,,16,0,1,,,64,88,0,,,,
53548,control_change,,,,,12,0,1,,,64,72,0,,,,
53588,control_change,,,,,40,0,1,,,64,127,0,,,,
53600,note_off,,,,,12,0,1,,,,,0,,,76,0
53608,note_off,,,,,8,0,1,,,,,0,,,80,0
53612,note_off,,,,,4,0,1,,,,,0,,,71,0
53636,note_on,,,,,24,0,1,,,,,0,,,75,62
53640,note_on,,,,,4,0,1,,,,,0,,,70,51
53644,note_on,,,,,4,0,1,,,,,0,,,79,76
53684,note_off,,,,,40,0,1,,,,,0,,,75,0
53688,note_off,,,,,4,0,1,,,,,0,,,70,0
53692,note_off,,,,,4,0,1,,,,,0,,,79,0
53788,note_on,,,,,96,0,1,,,,,0,,,85,67
53792,note_on,,,,,4,0,1,,,,,0,,,80,71
53800,note_on,,,,,8,0,1,,,,,0,,,76,61
53812,control_change,,,,,12,0,1,,,64,88,0,,,,
53848,control_change,,,,,36,0,1,,,64,127,0,,,,
53876,note_off,,,,,28,0,1,,,,,0,,,80,0
53880,note_off,,,,,4,0,1,,,,,0,,,76,0
53896,note_off,,,,,16,0,1,,,,,0,,,85,0
53928,note_on,,,,,32,0,1,,,,,0,,,75,58
53932,note_on,,,,,0,0,1,,,,,0,,,79,56
53932,note_on,,,,,4,0,1,,,,,0,,,82,68
53964,note_off,,,,,32,0,1,,,,,0,,,79,0
53972,note_off,,,,,8,0,1,,,,,0,,,75,0
53980,note_off,,,,,8,0,1,,,,,0,,,82,0
54072,note_on,,,,,92,0,1,,,,,0,,,88,68
54080,note_on,,,,,8,0,1,,,,,0,,,85,63
54084,note_on,,,,,4,0,1,,,,,0,,,80,57
54084,control_change,,,,,0,0,1,,,64,104,0,,,,
54096,control_change,,,,,12,0,1,,,64,88,0,,,,
54108,control_change,,,,,12,0,1,,,64,127,0,,,,
54132,note_off,,,,,24,0,1,,,,,0,,,88,0
54180,note_off,,,,,48,0,1,,,,,0,,,80,0
54184,note_off,,,,,4,0,1,,,,,0,,,85,0
54216,note_on,,,,,32,0,1,,,,,0,,,87,70
54220,note_on,,,,,4,0,1,,,,,0,,,82,65
54220,note_on,,,,,0,0,1,,,,,0,,,79,58
54248,note_off,,,,,28,0,1,,,,,0,,,79,0
54260,note_off,,,,,12,0,1,,,,,0,,,82,0
54276,note_off,,,,,16,0,1,,,,,0,,,87,0
54356,note_on,,,,,80,0,1,,,,,0,,,92,78
54372,note_on,,,,,16,0,1,,,,,0,,,88,71
54376,note_on,,,,,4,0,1,,,,,0,,,83,58
54436,note_off,,,,,60,0,1,,,,,0,,,88,0
54456,note_off,,,,,20,0,1,,,,,0,,,92,0
54464,note_off,,,,,8,0,1,,,,,0,,,83,0
54492,note_on,,,,,28,0,1,,,,,0,,,87,69
54500,note_on,,,,,8,0,1,,,,,0,,,91,82
54504,note_on,,,,,4,0,1,,,,,0,,,82,53
54536,note_off,,,,,32,0,1,,,,,0,,,87,0
54544,note_off,,,,,8,0,1,,,,,0,,,91,0
54548,note_off,,,,,4,0,1,,,,,0,,,82,0
54640,note_on,,,,,92,0,1,,,,,0,,,97,78
54648,note_on,,,,,8,0,1,,,,,0,,,92,81
54652,note_on,,,,,4,0,1,,,,,0,,,88,62
54712,note_off,,,,,60,0,1,,,,,0,,,92,0
54744,note_off,,,,,32,0,1,,,,,0,,,97,0
54744,note_off,,,,,0,0,1,,,,,0,,,88,0
54784,note_on,,,,,40,0,1,,,,,0,,,87,58
54792,note_on,,,,,0,0,1,,,,,0,,,91,68
54792,note_on,,,,,8,0,1,,,,,0,,,94,77
54824,note_off,,,,,32,0,1,,,,,0,,,91,0
54836,note_off,,,,,12,0,1,,,,,0,,,87,0
54844,note_off,,,,,8,0,1,,,,,0,,,94,0
54940,note_on,,,,,96,0,1,,,,,0,,,100,85
54948,note_on,,,,,8,0,1,,,,,0,,,97,73
54948,note_on,,,,,0,0,1,,,,,0,,,92,60
54952,control_change,,,,,4,0,1,,,64,88,0,,,,
54964,control_change,,,,,12,0,1,,,64,40,0,,,,
55000,control_change,,,,,36,0,1,,,64,127,0,,,,
55016,note_off,,,,,16,0,1,,,,,0,,,100,0
55024,note_off,,,,,8,0,1,,,,,0,,,97,0
55044,note_off,,,,,20,0,1,,,,,0,,,92,0
55072,note_on,,,,,28,0,1,,,,,0,,,99,79
55080,note_on,,,,,8,0,1,,,,,0,,,91,59
55088,note_on,,,,,8,0,1,,,,,0,,,94,71
55144,note_off,,,,,56,0,1,,,,,0,,,94,0
55164,note_off,,,,,20,0,1,,,,,0,,,99,0
55184,note_off,,,,,20,0,1,,,,,0,,,91,0
55212,note_on,,,,,0,0,1,,,,,0,,,100,79
55212,note_on,,,,,28,0,1,,,,,0,,,92,72
55216,note_on,,,,,4,0,1,,,,,0,,,97,69
55304,note_off,,,,,0,0,1,,,,,0,,,100,0
55304,note_off,,,,,88,0,1,,,,,0,,,97,0
55308,note_off,,,,,4,0,1,,,,,0,,,92,0
55340,note_on,,,,,32,0,1,,,,,0,,,99,77
55348,note_on,,,,,8,0,1,,,,,0,,,91,65
55356,note_on,,,,,8,0,1,,,,,0,,,94,64
55392,note_off,,,,,36,0,1,,,,,0,,,94,0
55404,note_off,,,,,12,0,1,,,,,0,,,99,0
55436,note_off,,,,,32,0,1,,,,,0,,,91,0
55480,note_on,,,,,44,0,1,,,,,0,,,97,77
55484,note_on,,,,,0,0,1,,,,,0,,,88,58
55484,note_on,,,,,4,0,1,,,,,0,,,92,84
55544,note_off,,,,,60,0,1,,,,,0,,,92,0
55572,note_off,,,,,28,0,1,,,,,0,,,97,0
55608,note_off,,,,,36,0,1,,,,,0,,,88,0
55616,note_on,,,,,0,0,1,,,,,0,,,87,61
55616,note_on,,,,,8,0,1,,,,,0,,,94,73
55624,note_on,,,,,8,0,1,,,,,0,,,91,67
55664,note_off,,,,,40,0,1,,,,,0,,,87,0
55668,note_off,,,,,4,0,1,,,,,0,,,94,0
55680,note_off,,,,,12,0,1,,,,,0,,,91,0
55756,note_on,,,,,76,0,1,,,,,0,,,92,71
55756,note_on,,,,,0,0,1,,,,,0,,,88,71
55760,note_on,,,,,4,0,1,,,,,0,,,85,61
55832,note_off,,,,,72,0,1,,,,,0,,,88,0
55844,note_off,,,,,12,0,1,,,,,0,,,92,0
55856,note_off,,,,,12,0,1,,,,,0,,,85,0
55892,note_on,,,,,0,0,1,,,,,0,,,87,64
55892,note_on,,,,,36,0,1,,,,,0,,,91,72
55896,note_on,,,,,4,0,1,,,,,0,,,82,50
55960,note_off,,,,,64,0,1,,,,,0,,,87,0
55972,note_off,,,,,12,0,1,,,,,0,,,91,0
55992,note_off,,,,,20,0,1,,,,,0,,,82,0
56012,note_on,,,,,20,0,1,,,,,0,,,92,65
56024,note_on,,,,,12,0,1,,,,,0,,,85,56
56028,note_on,,,,,4,0,1,,,,,0,,,88,63
56080,note_off,,,,,52,0,1,,,,,0,,,88,0
56108,note_off,,,,,28,0,1,,,,,0,,,92,0
56144,note_off,,,,,36,0,1,,,,,0,,,85,0
56152,note_on,,,,,8,0,1,,,,,0,,,91,75
56156,note_on,,,,,4,0,1,,,,,0,,,82,59
56156,note_on,,,,,0,0,1,,,,,0,,,87,57
56200,note_off,,,,,44,0,1,,,,,0,,,91,0
56208,note_off,,,,,8,0,1,,,,,0,,,87,0
56260,note_off,,,,,52,0,1,,,,,0,,,82,0
56292,note_on,,,,,0,0,1,,,,,0,,,88,71
56292,note_on,,,,,0,0,1,,,,,0,,,85,65
56292,note_on,,,,,32,0,1,,,,,0,,,80,50
56348,note_off,,,,,56,0,1,,,,,0,,,88,0
56356,note_off,,,,,8,0,1,,,,,0,,,85,0
56396,note_off,,,,,40,0,1,,,,,0,,,80,0
56412,note_on,,,,,16,0,1,,,,,0,,,87,71
56420,note_on,,,,,8,0,1,,,,,0,,,82,67
56424,note_on,,,,,4,0,1,,,,,0,,,79,57
56480,note_off,,,,,56,0,1,,,,,0,,,87,0
56484,note_off,,,,,4,0,1,,,,,0,,,82,0
56544,note_off,,,,,60,0,1,,,,,0,,,79,0
56564,note_on,,,,,20,0,1,,,,,0,,,85,63
56572,note_on,,,,,0,0,1,,,,,0,,,76,49
56572,note_on,,,,,8,0,1,,,,,0,,,80,61
56588,control_change,,,,,16,0,1,,,64,88,0,,,,
56600,control_change,,,,,12,0,1,,,64,24,0,,,,
56612,control_change,,,,,12,0,1,,,64,0,0,,,,
56636,control_change,,,,,24,0,1,,,64,40,0,,,,
56644,note_off,,,,,8,0,1,,,,,0,,,80,0
56648,control_change,,,,,4,0,1,,,64,104,0,,,,
56664,control_change,,,,,0,0,1,,,64,127,0,,,,
56664,note_off,,,,,16,0,1,,,,,0,,,85,0
56680,note_off,,,,,16,0,1,,,,,0,,,76,0
56696,note_on,,,,,16,0,1,,,,,0,,,82,63
56700,note_on,,,,,4,0,1,,,,,0,,,75,56
56704,note_on,,,,,4,0,1,,,,,0,,,79,62
56760,note_off,,,,,56,0,1,,,,,0,,,79,0
56788,note_off,,,,,28,0,1,,,,,0,,,82,0
56808,note_off,,,,,20,0,1,,,,,0,,,75,0
56828,note_on,,,,,20,0,1,,,,,0,,,85,62
56836,note_on,,,,,0,0,1,,,,,0,,,76,56
56836,note_on,,,,,8,0,1,,,,,0,,,80,67
56916,note_off,,,,,80,0,1,,,,,0,,,80,0
56924,note_off,,,,,8,0,1,,,,,0,,,85,0
56928,note_off,,,,,4,0,1,,,,,0,,,76,0
56960,note_on,,,,,0,0,1,,,,,0,,,82,62
56960,note_on,,,,,32,0,1,,,,,0,,,75,54
56972,note_on,,,,,12,0,1,,,,,0,,,79,60
57008,note_off,,,,,36,0,1,,,,,0,,,79,0
57012,note_off,,,,,4,0,1,,,,,0,,,82,0
57080,note_off,,,,,68,0,1,,,,,0,,,75,0
57096,note_on,,,,,16,0,1,,,,,0,,,73,49
57104,note_on,,,,,0,0,1,,,,,0,,,76,59
57104,note_on,,,,,8,0,1,,,,,0,,,80,58
57156,note_off,,,,,52,0,1,,,,,0,,,76,0
57180,note_off,,,,,24,0,1,,,,,0,,,80,0
57236,note_on,,,,,0,0,1,,,,,0,,,75,60
57236,note_on,,,,,56,0,1,,,,,0,,,79,70
57248,note_on,,,,,12,0,1,,,,,0,,,70,53
57280,note_off,,,,,32,0,1,,,,,0,,,73,0
57288,note_off,,,,,8,0,1,,,,,0,,,79,0
57300,note_off,,,,,12,0,1,,,,,0,,,75,0
57308,note_off,,,,,8,0,1,,,,,0,,,70,0
57384,note_on,,,,,0,0,1,,,,,0,,,76,61
57384,note_on,,,,,76,0,1,,,,,0,,,73,61
57384,note_on,,,,,0,0,1,,,,,0,,,68,44
57416,note_off,,,,,32,0,1,,,,,0,,,76,0
57456,note_off,,,,,40,0,1,,,,,0,,,73,0
57468,note_off,,,,,12,0,1,,,,,0,,,68,0
57516,note_on,,,,,48,0,1,,,,,0,,,75,67
57524,note_on,,,,,8,0,1,,,,,0,,,70,60
57528,note_on,,,,,4,0,1,,,,,0,,,67,48
57580,note_off,,,,,52,0,1,,,,,0,,,70,0
57596,note_off,,,,,16,0,1,,,,,0,,,75,0
57620,note_off,,,,,24,0,1,,,,,0,,,67,0
57656,note_on,,,,,36,0,1,,,,,0,,,73,59
57660,note_on,,,,,4,0,1,,,,,0,,,76,68
57664,note_on,,,,,4,0,1,,,,,0,,,68,45
57716,note_off,,,,,52,0,1,,,,,0,,,76,0
57740,note_off,,,,,24,0,1,,,,,0,,,73,0
57752,note_off,,,,,12,0,1,,,,,0,,,68,0
57780,note_on,,,,,28,0,1,,,,,0,,,75,69
57796,note_on,,,,,16,0,1,,,,,0,,,70,55
57800,note_on,,,,,4,0,1,,,,,0,,,67,44
57828,note_off,,,,,28,0,1,,,,,0,,,70,0
57844,note_off,,,,,16,0,1,,,,,0,,,75,0
57884,note_off,,,,,40,0,1,,,,,0,,,67,0
57924,note_on,,,,,40,0,1,,,,,0,,,73,60
57940,control_change,,,,,16,0,1,,,64,104,0,,,,
57944,note_on,,,,,4,0,1,,,,,0,,,64,58
57952,control_change,,,,,8,0,1,,,64,56,0,,,,
57988,control_change,,,,,36,0,1,,,64,127,0,,,,
58020,note_off,,,,,32,0,1,,,,,0,,,73,0
58060,note_off,,,,,40,0,1,,,,,0,,,64,0
58072,note_on,,,,,12,0,1,,,,,0,,,70,56
58076,note_on,,,,,4,0,1,,,,,0,,,67,60
58080,note_on,,,,,4,0,1,,,,,0,,,63,52
58132,note_off,,,,,52,0,1,,,,,0,,,67,0
58160,note_off,,,,,28,0,1,,,,,0,,,70,0
58176,note_off,,,,,16,0,1,,,,,0,,,63,0
58224,note_on,,,,,48,0,1,,,,,0,,,73,58
58232,note_on,,,,,8,0,1,,,,,0,,,68,56
58240,note_on,,,,,8,0,1,,,,,0,,,64,41
58240,control_change,,,,,0,0,1,,,64,104,0,,,,
58252,control_change,,,,,12,0,1,,,64,24,0,,,,
58264,control_change,,,,,12,0,1,,,64,0,0,,,,
58312,control_change,,,,,48,0,1,,,64,40,0,,,,
58324,note_off,,,,,12,0,1,,,,,0,,,68,0
58324,control_change,,,,,0,0,1,,,64,104,0,,,,
58336,note_off,,,,,12,0,1,,,,,0,,,64,0
58340,control_change,,,,,4,0,1,,,64,127,0,,,,
58344,note_off,,,,,4,0,1,,,,,0,,,73,0
58360,note_on,,,,,16,0,1,,,,,0,,,70,60
58368,note_on,,,,,0,0,1,,,,,0,,,67,56
58368,note_on,,,,,8,0,1,,,,,0,,,63,44
58428,note_off,,,,,60,0,1,,,,,0,,,67,0
58460,note_off,,,,,32,0,1,,,,,0,,,70,0
58468,note_off,,,,,8,0,1,,,,,0,,,63,0
58500,note_on,,,,,32,0,1,,,,,0,,,73,57
58504,note_on,,,,,4,0,1,,,,,0,,,68,54
58508,note_on,,,,,4,0,1,,,,,0,,,64,44
58588,note_off,,,,,80,0,1,,,,,0,,,68,0
58608,note_off,,,,,20,0,1,,,,,0,,,73,0
58616,note_off,,,,,8,0,1,,,,,0,,,64,0
58636,note_on,,,,,20,0,1,,,,,0,,,70,64
58640,note_on,,,,,4,0,1,,,,,0,,,63,39
58648,note_on,,,,,8,0,1,,,,,0,,,67,55
58720,note_off,,,,,72,0,1,,,,,0,,,67,0
58756,note_off,,,,,36,0,1,,,,,0,,,70,0
58772,note_off,,,,,16,0,1,,,,,0,,,63,0
58780,note_on,,,,,0,0,1,,,,,0,,,68,57
58780,note_on,,,,,8,0,1,,,,,0,,,73,61
58784,control_change,,,,,4,0,1,,,64,72,0,,,,
58792,note_on,,,,,8,0,1,,,,,0,,,64,53
58796,control_change,,,,,4,0,1,,,64,40,0,,,,
58832,control_change,,,,,36,0,1,,,64,104,0,,,,
58844,control_change,,,,,12,0,1,,,64,127,0,,,,
58876,note_off,,,,,32,0,1,,,,,0,,,68,0
58900,note_off,,,,,24,0,1,,,,,0,,,64,0
58908,note_on,,,,,0,0,1,,,,,0,,,63,46
58908,control_change,,,,,0,0,1,,,64,88,0,,,,
58908,note_on,,,,,8,0,1,,,,,0,,,70,64
58916,note_off,,,,,8,0,1,,,,,0,,,73,0
58920,note_on,,,,,4,0,1,,,,,0,,,67,54
58944,control_change,,,,,24,0,1,,,64,127,0,,,,
58992,note_off,,,,,48,0,1,,,,,0,,,67,0
59028,note_off,,,,,36,0,1,,,,,0,,,70,0
59036,note_off,,,,,8,0,1,,,,,0,,,63,0
59048,note_on,,,,,0,0,1,,,,,0,,,73,62
59048,note_on,,,,,12,0,1,,,,,0,,,68,62
59056,note_on,,,,,8,0,1,,,,,0,,,64,48
59140,note_off,,,,,84,0,1,,,,,0,,,68,0
59172,note_off,,,,,32,0,1,,,,,0,,,64,0
59176,note_off,,,,,4,0,1,,,,,0,,,73,0
59188,note_on,,,,,12,0,1,,,,,0,,,70,70
59188,note_on,,,,,0,0,1,,,,,0,,,63,40
59200,note_on,,,,,12,0,1,,,,,0,,,67,59
59264,note_off,,,,,64,0,1,,,,,0,,,67,0
59304,note_off,,,,,40,0,1,,,,,0,,,70,0
59316,note_off,,,,,12,0,1,,,,,0,,,63,0
59328,note_on,,,,,12,0,1,,,,,0,,,73,64
59332,note_on,,,,,4,0,1,,,,,0,,,68,56
59336,note_on,,,,,4,0,1,,,,,0,,,64,50
59420,note_off,,,,,84,0,1,,,,,0,,,68,0
59448,note_off,,,,,28,0,1,,,,,0,,,73,0
59456,note_off,,,,,8,0,1,,,,,0,,,64,0
59460,note_on,,,,,4,0,1,,,,,0,,,70,71
59468,note_on,,,,,8,0,1,,,,,0,,,63,37
59476,note_on,,,,,8,0,1,,,,,0,,,67,53
59516,note_off,,,,,40,0,1,,,,,0,,,67,0
59580,note_off,,,,,64,0,1,,,,,0,,,70,0
59596,note_off,,,,,16,0,1,,,,,0,,,63,0
59604,note_on,,,,,8,0,1,,,,,0,,,73,65
59604,control_change,,,,,0,0,1,,,64,104,0,,,,
59608,note_on,,,,,4,0,1,,,,,0,,,68,61
59616,note_on,,,,,8,0,1,,,,,0,,,64,51
59616,control_change,,,,,0,0,1,,,64,24,0,,,,
59628,control_change,,,,,12,0,1,,,64,0,0,,,,
59680,control_change,,,,,52,0,1,,,64,24,0,,,,
59692,control_change,,,,,12,0,1,,,64,72,0,,,,
59700,note_off,,,,,8,0,1,,,,,0,,,68,0
59704,control_change,,,,,4,0,1,,,64,104,0,,,,
59716,control_change,,,,,12,0,1,,,64,127,0,,,,
59728,note_off,,,,,12,0,1,,,,,0,,,73,0
59732,note_off,,,,,4,0,1,,,,,0,,,64,0
59736,note_on,,,,,4,0,1,,,,,0,,,70,65
59744,note_on,,,,,8,0,1,,,,,0,,,63,42
59752,note_on,,,,,8,0,1,,,,,0,,,67,59
59828,note_off,,,,,76,0,1,,,,,0,,,67,0
59852,note_off,,,,,24,0,1,,,,,0,,,70,0
59868,note_off,,,,,16,0,1,,,,,0,,,63,0
59876,control_change,,,,,8,0,1,,,64,72,0,,,,
59880,note_on,,,,,4,0,1,,,,,0,,,73,55
59884,note_on,,,,,4,0,1,,,,,0,,,68,53
59892,control_change,,,,,8,0,1,,,64,24,0,,,,
59896,note_on,,,,,4,0,1,,,,,0,,,64,44
59904,control_change,,,,,8,0,1,,,64,0,0,,,,
59940,control_change,,,,,36,0,1,,,64,40,0,,,,
59952,control_change,,,,,12,0,1,,,64,88,0,,,,
59964,control_change,,,,,12,0,1,,,64,127,0,,,,
59988,note_off,,,,,24,0,1,,,,,0,,,68,0
60012,note_off,,,,,24,0,1,,,,,0,,,64,0
60024,note_on,,,,,12,0,1,,,,,0,,,63,38
60028,note_on,,,,,0,0,1,,,,,0,,,70,54
60028,note_off,,,,,4,0,1,,,,,0,,,73,0
60036,note_on,,,,,8,0,1,,,,,0,,,67,49
60108,note_off,,,,,72,0,1,,,,,0,,,67,0
60144,note_off,,,,,36,0,1,,,,,0,,,70,0
60152,control_change,,,,,8,0,1,,,64,104,0,,,,
60156,note_off,,,,,4,0,1,,,,,0,,,63,0
60160,control_change,,,,,4,0,1,,,64,56,0,,,,
60172,note_on,,,,,12,0,1,,,,,0,,,68,51
60172,note_on,,,,,0,0,1,,,,,0,,,73,57
60176,note_on,,,,,4,0,1,,,,,0,,,64,41
60176,control_change,,,,,0,0,1,,,64,0,0,,,,
60212,control_change,,,,,36,0,1,,,64,56,0,,,,
60224,control_change,,,,,12,0,1,,,64,88,0,,,,
60236,control_change,,,,,12,0,1,,,64,127,0,,,,
60288,note_off,,,,,52,0,1,,,,,0,,,68,0
60312,note_off,,,,,24,0,1,,,,,0,,,64,0
60316,note_on,,,,,0,0,1,,,,,0,,,70,57
60316,note_off,,,,,4,0,1,,,,,0,,,73,0
60320,note_on,,,,,4,0,1,,,,,0,,,63,34
60328,note_on,,,,,8,0,1,,,,,0,,,67,49
60396,note_off,,,,,68,0,1,,,,,0,,,67,0
60440,note_off,,,,,44,0,1,,,,,0,,,70,0
60460,note_off,,,,,20,0,1,,,,,0,,,63,0
60472,note_on,,,,,12,0,1,,,,,0,,,73,53
60476,note_on,,,,,4,0,1,,,,,0,,,68,46
60480,note_on,,,,,4,0,1,,,,,0,,,64,42
60496,control_change,,,,,16,0,1,,,64,104,0,,,,
60508,control_change,,,,,12,0,1,,,64,56,0,,,,
60524,control_change,,,,,16,0,1,,,64,40,0,,,,
60560,control_change,,,,,0,0,1,,,64,88,0,,,,
60560,note_off,,,,,36,0,1,,,,,0,,,68,0
60572,control_change,,,,,12,0,1,,,64,127,0,,,,
60616,note_off,,,,,44,0,1,,,,,0,,,73,0
60620,control_change,,,,,4,0,1,,,64,88,0,,,,
60632,control_change,,,,,0,0,1,,,64,56,0,,,,
60632,note_on,,,,,0,0,1,,,,,0,,,70,46
60632,note_off,,,,,12,0,1,,,,,0,,,64,0
60636,note_on,,,,,4,0,1,,,,,0,,,63,35
60644,note_on,,,,,8,0,1,,,,,0,,,67,34
60668,control_change,,,,,24,0,1,,,64,88,0,,,,
60684,control_change,,,,,16,0,1,,,64,127,0,,,,
60696,note_off,,,,,12,0,1,,,,,0,,,67,0
60800,note_off,,,,,104,0,1,,,,,0,,,63,0
60816,note_off,,,,,16,0,1,,,,,0,,,70,0
60824,note_on,,,,,8,0,1,,,,,0,,,68,33
60828,note_on,,,,,4,0,1,,,,,0,,,73,49
60840,note_on,,,,,12,0,1,,,,,0,,,64,30
60844,control_change,,,,,4,0,1,,,64,72,0,,,,
60856,control_change,,,,,12,0,1,,,64,24,0,,,,
60892,control_change,,,,,36,0,1,,,64,72,0,,,,
60904,control_change,,,,,12,0,1,,,64,127,0,,,,
61012,note_off,,,,,108,0,1,,,,,0,,,68,0
61060,note_off,,,,,48,0,1,,,,,0,,,73,0
61068,note_off,,,,,8,0,1,,,,,0,,,64,0
61084,note_on,,,,,16,0,1,,,,,0,,,70,38
61092,note_on,,,,,8,0,1,,,,,0,,,63,29
61112,note_on,,,,,20,0,1,,,,,0,,,67,24
61128,control_change,,,,,16,0,1,,,64,104,0,,,,
61140,control_change,,,,,12,0,1,,,64,72,0,,,,
61156,control_change,,,,,16,0,1,,,64,56,0,,,,
61168,control_change,,,,,12,0,1,,,64,24,0,,,,
61180,control_change,,,,,12,0,1,,,64,0,0,,,,
61440,set_tempo,,,,,10132,1,0,,521739,,,,,,,
61724,note_off,,,,,544,0,1,,,,,0,,,67,0
61752,note_off,,,,,28,0,1,,,,,0,,,70,0
61760,note_off,,,,,8,0,1,,,,,0,,,63,0
62328,note_on,,,,,568,0,1,,,,,0,,,74,54
62496,control_change,,,,,168,0,1,,,64,40,0,,,,
62508,control_change,,,,,12,0,1,,,64,72,0,,,,
62520,control_change,,,,,12,0,1,,,64,127,0,,,,
62636,note_off,,,,,116,0,1,,,,,0,,,74,0
62928,control_change,,,,,0,0,1,,,64,72,0,,,,
62928,note_on,,,,,292,0,1,,,,,0,,,75,60
62940,control_change,,,,,12,0,1,,,64,24,0,,,,
62952,control_change,,,,,12,0,1,,,64,0,0,,,,
62960,note_on,,,,,8,0,1,,,,,0,,,47,48
63008,control_change,,,,,48,0,1,,,64,56,0,,,,
63020,control_change,,,,,12,0,1,,,64,127,0,,,,
63048,note_off,,,,,28,0,1,,,,,0,,,47,0
63176,note_on,,,,,128,0,1,,,,,0,,,54,36
63180,note_on,,,,,4,0,1,,,,,0,,,63,39
63256,note_off,,,,,0,0,1,,,,,0,,,63,0
63256,note_off,,,,,76,0,1,,,,,0,,,54,0
63336,note_on,,,,,80,0,1,,,,,0,,,59,31
63344,note_off,,,,,8,0,1,,,,,0,,,75,0
63384,note_off,,,,,40,0,1,,,,,0,,,59,0
63448,note_on,,,,,64,0,1,,,,,0,,,63,23
63464,note_on,,,,,16,0,1,,,,,0,,,71,33
63504,note_off,,,,,40,0,1,,,,,0,,,63,0
63528,note_off,,,,,24,0,1,,,,,0,,,71,0
63584,note_on,,,,,0,0,1,,,,,0,,,59,32
63584,note_on,,,,,56,0,1,,,,,0,,,66,36
63692,note_off,,,,,108,0,1,,,,,0,,,66,0
63708,note_off,,,,,16,0,1,,,,,0,,,59,0
63716,note_on,,,,,8,0,1,,,,,0,,,54,33
63720,note_on,,,,,4,0,1,,,,,0,,,63,31
63756,note_off,,,,,36,0,1,,,,,0,,,54,0
63820,note_off,,,,,64,0,1,,,,,0,,,63,0
63868,note_on,,,,,48,0,1,,,,,0,,,75,79
64012,note_on,,,,,144,0,1,,,,,0,,,63,48
64040,note_on,,,,,28,0,1,,,,,0,,,54,40
64108,note_off,,,,,68,0,1,,,,,0,,,63,0
64120,note_off,,,,,12,0,1,,,,,0,,,54,0
64152,note_on,,,,,32,0,1,,,,,0,,,66,39
64180,note_on,,,,,28,0,1,,,,,0,,,59,39
64188,note_off,,,,,8,0,1,,,,,0,,,75,0
64232,note_off,,,,,44,0,1,,,,,0,,,66,0
64248,note_off,,,,,16,0,1,,,,,0,,,59,0
64272,note_on,,,,,24,0,1,,,,,0,,,71,55
64280,note_on,,,,,8,0,1,,,,,0,,,63,38
64356,note_off,,,,,76,0,1,,,,,0,,,63,0
64372,note_off,,,,,16,0,1,,,,,0,,,71,0
64400,note_on,,,,,28,0,1,,,,,0,,,66,43
64412,note_on,,,,,12,0,1,,,,,0,,,59,34
64504,note_off,,,,,92,0,1,,,,,0,,,59,0
64512,note_off,,,,,8,0,1,,,,,0,,,66,0
64520,note_on,,,,,8,0,1,,,,,0,,,54,39
64532,note_on,,,,,12,0,1,,,,,0,,,63,51
64544,note_off,,,,,12,0,1,,,,,0,,,54,0
64640,note_off,,,,,96,0,1,,,,,0,,,63,0
64732,control_change,,,,,92,0,1,,,64,104,0,,,,
64744,note_on,,,,,12,0,1,,,,,0,,,75,83
64748,control_change,,,,,4,0,1,,,64,40,0,,,,
64760,control_change,,,,,12,0,1,,,64,0,0,,,,
64768,note_on,,,,,8,0,1,,,,,0,,,46,51
64828,control_change,,,,,60,0,1,,,64,88,0,,,,
64840,control_change,,,,,12,0,1,,,64,127,0,,,,
64856,note_off,,,,,16,0,1,,,,,0,,,46,0
64928,note_on,,,,,72,0,1,,,,,0,,,63,47
64952,note_on,,,,,24,0,1,,,,,0,,,55,58
64988,note_off,,,,,36,0,1,,,,,0,,,55,0
65016,note_off,,,,,28,0,1,,,,,0,,,63,0
65068,note_on,,,,,52,0,1,,,,,0,,,67,51
65076,note_on,,,,,8,0,1,,,,,0,,,61,43
65152,note_off,,,,,76,0,1,,,,,0,,,61,0
65160,note_off,,,,,8,0,1,,,,,0,,,75,0
65172,note_off,,,,,12,0,1,,,,,0,,,67,0
65184,note_on,,,,,12,0,1,,,,,0,,,63,40
65188,note_on,,,,,4,0,1,,,,,0,,,73,50
65256,note_off,,,,,68,0,1,,,,,0,,,63,0
65308,note_on,,,,,52,0,1,,,,,0,,,61,35
65316,note_off,,,,,8,0,1,,,,,0,,,73,0
65332,note_on,,,,,16,0,1,,,,,0,,,67,44
65432,note_off,,,,,100,0,1,,,,,0,,,61,0
65436,note_off,,,,,4,0,1,,,,,0,,,67,0
65440,note_on,,,,,4,0,1,,,,,0,,,63,50
65452,note_on,,,,,12,0,1,,,,,0,,,55,53
65476,note_off,,,,,24,0,1,,,,,0,,,55,0
65540,note_off,,,,,64,0,1,,,,,0,,,63,0
65720,note_on,,,,,180,0,1,,,,,0,,,63,39
65748,note_on,,,,,28,0,1,,,,,0,,,55,48
65784,note_off,,,,,36,0,1,,,,,0,,,55,0
65808,note_off,,,,,24,0,1,,,,,0,,,63,0
65852,note_on,,,,,0,0,1,,,,,0,,,61,46
65852,note_on,,,,,44,0,1,,,,,0,,,67,49
65924,note_off,,,,,72,0,1,,,,,0,,,67,0
65944,note_off,,,,,20,0,1,,,,,0,,,61,0
65952,note_on,,,,,8,0,1,,,,,0,,,73,63
65972,note_on,,,,,20,0,1,,,,,0,,,63,46
66040,note_off,,,,,0,0,1,,,,,0,,,63,0
66040,note_off,,,,,68,0,1,,,,,0,,,73,0
66084,note_on,,,,,44,0,1,,,,,0,,,75,85
66092,note_on,,,,,8,0,1,,,,,0,,,61,53
66100,note_on,,,,,8,0,1,,,,,0,,,67,64
66216,note_off,,,,,116,0,1,,,,,0,,,61,0
66220,note_on,,,,,4,0,1,,,,,0,,,63,50
66224,note_on,,,,,4,0,1,,,,,0,,,55,62
66228,note_off,,,,,4,0,1,,,,,0,,,67,0
66240,note_off,,,,,12,0,1,,,,,0,,,75,0
66244,note_off,,,,,4,0,1,,,,,0,,,55,0
66364,note_off,,,,,120,0,1,,,,,0,,,63,0
66424,note_on,,,,,60,0,1,,,,,0,,,75,85
66432,control_change,,,,,8,0,1,,,64,72,0,,,,
66440,note_on,,,,,8,0,1,,,,,0,,,45,61
66448,control_change,,,,,8,0,1,,,64,0,0,,,,
66500,control_change,,,,,52,0,1,,,64,56,0,,,,
66512,control_change,,,,,12,0,1,,,64,127,0,,,,
66544,note_off,,,,,32,0,1,,,,,0,,,45,0
66560,note_on,,,,,16,0,1,,,,,0,,,63,51
66600,note_on,,,,,40,0,1,,,,,0,,,54,40
66640,note_off,,,,,40,0,1,,,,,0,,,63,0
66644,note_off,,,,,4,0,1,,,,,0,,,54,0
66688,note_on,,,,,44,0,1,,,,,0,,,66,55
66704,note_off,,,,,16,0,1,,,,,0,,,75,0
66708,note_on,,,,,4,0,1,,,,,0,,,61,49
66772,note_off,,,,,64,0,1,,,,,0,,,61,0
66784,note_off,,,,,12,0,1,,,,,0,,,66,0
66808,note_on,,,,,24,0,1,,,,,0,,,73,65
66816,note_on,,,,,8,0,1,,,,,0,,,63,55
66884,note_off,,,,,68,0,1,,,,,0,,,63,0
66908,note_off,,,,,24,0,1,,,,,0,,,73,0
66928,note_on,,,,,20,0,1,,,,,0,,,75,88
66944,note_on,,,,,16,0,1,,,,,0,,,61,49
66944,note_on,,,,,0,0,1,,,,,0,,,66,62
67036,note_off,,,,,92,0,1,,,,,0,,,66,0
67052,note_off,,,,,16,0,1,,,,,0,,,61,0
67060,note_on,,,,,8,0,1,,,,,0,,,63,51
67064,note_on,,,,,4,0,1,,,,,0,,,54,43
67088,note_off,,,,,0,0,1,,,,,0,,,54,0
67088,note_off,,,,,24,0,1,,,,,0,,,75,0
67124,note_off,,,,,36,0,1,,,,,0,,,63,0
67224,control_change,,,,,100,0,1,,,64,88,0,,,,
67236,note_on,,,,,12,0,1,,,,,0,,,76,90
67236,control_change,,,,,0,0,1,,,64,0,0,,,,
67256,note_on,,,,,20,0,1,,,,,0,,,44,63
67304,control_change,,,,,48,0,1,,,64,56,0,,,,
67316,control_change,,,,,12,0,1,,,64,127,0,,,,
67344,note_off,,,,,28,0,1,,,,,0,,,44,0
67400,note_on,,,,,56,0,1,,,,,0,,,63,55
67404,note_off,,,,,4,0,1,,,,,0,,,76,0
67420,note_on,,,,,16,0,1,,,,,0,,,54,52
67484,note_off,,,,,64,0,1,,,,,0,,,54,0
67488,note_off,,,,,4,0,1,,,,,0,,,63,0
67540,note_on,,,,,52,0,1,,,,,0,,,66,48
67560,note_on,,,,,20,0,1,,,,,0,,,60,54
67592,note_off,,,,,32,0,1,,,,,0,,,60,0
67636,note_off,,,,,44,0,1,,,,,0,,,66,0
67668,note_on,,,,,0,0,1,,,,,0,,,63,54
67668,note_on,,,,,32,0,1,,,,,0,,,72,75
67736,note_off,,,,,68,0,1,,,,,0,,,63,0
67768,note_off,,,,,32,0,1,,,,,0,,,72,0
67804,note_on,,,,,36,0,1,,,,,0,,,75,87
67816,note_on,,,,,12,0,1,,,,,0,,,66,60
67820,note_on,,,,,4,0,1,,,,,0,,,60,44
67944,note_on,,,,,124,0,1,,,,,0,,,63,55
67960,note_off,,,,,16,0,1,,,,,0,,,66,0
67968,note_off,,,,,8,0,1,,,,,0,,,75,0
67976,note_off,,,,,8,0,1,,,,,0,,,60,0
67980,note_on,,,,,4,0,1,,,,,0,,,54,42
68028,note_off,,,,,48,0,1,,,,,0,,,54,0
68188,note_off,,,,,160,0,1,,,,,0,,,63,0
68240,control_change,,,,,0,0,1,,,64,104,0,,,,
68240,note_on,,,,,52,0,1,,,,,0,,,75,83
68252,note_on,,,,,12,0,1,,,,,0,,,37,63
68252,control_change,,,,,0,0,1,,,64,24,0,,,,
68264,control_change,,,,,12,0,1,,,64,0,0,,,,
68332,control_change,,,,,68,0,1,,,64,88,0,,,,
68344,control_change,,,,,12,0,1,,,64,127,0,,,,
68352,note_off,,,,,8,0,1,,,,,0,,,37,0
68464,note_on,,,,,112,0,1,,,,,0,,,63,51
68512,note_on,,,,,48,0,1,,,,,0,,,53,21
68536,note_off,,,,,24,0,1,,,,,0,,,75,0
68548,note_off,,,,,12,0,1,,,,,0,,,63,0
68556,note_off,,,,,8,0,1,,,,,0,,,53,0
68600,note_on,,,,,44,0,1,,,,,0,,,65,51
68616,note_on,,,,,16,0,1,,,,,0,,,59,31
68660,note_off,,,,,44,0,1,,,,,0,,,59,0
68712,note_on,,,,,52,0,1,,,,,0,,,63,44
68716,note_off,,,,,4,0,1,,,,,0,,,65,0
68736,note_on,,,,,20,0,1,,,,,0,,,71,59
68792,note_off,,,,,56,0,1,,,,,0,,,63,0
68828,note_off,,,,,36,0,1,,,,,0,,,71,0
68844,note_on,,,,,16,0,1,,,,,0,,,59,35
68852,note_on,,,,,8,0,1,,,,,0,,,65,58
68976,note_on,,,,,0,0,1,,,,,0,,,63,55
68976,note_off,,,,,124,0,1,,,,,0,,,65,0
68984,note_on,,,,,8,0,1,,,,,0,,,53,51
69000,note_off,,,,,16,0,1,,,,,0,,,59,0
69020,note_off,,,,,20,0,1,,,,,0,,,53,0
69044,note_off,,,,,24,0,1,,,,,0,,,63,0
69148,note_on,,,,,104,0,1,,,,,0,,,68,64
69240,control_change,,,,,92,0,1,,,64,72,0,,,,
69256,control_change,,,,,16,0,1,,,64,0,0,,,,
69280,note_on,,,,,24,0,1,,,,,0,,,59,45
69296,note_on,,,,,16,0,1,,,,,0,,,49,49
69320,control_change,,,,,24,0,1,,,64,56,0,,,,
69332,control_change,,,,,12,0,1,,,64,127,0,,,,
69368,note_off,,,,,36,0,1,,,,,0,,,59,0
69392,note_off,,,,,24,0,1,,,,,0,,,49,0
69408,note_on,,,,,16,0,1,,,,,0,,,61,56
69432,note_on,,,,,24,0,1,,,,,0,,,53,40
69440,note_off,,,,,8,0,1,,,,,0,,,68,0
69504,note_off,,,,,64,0,1,,,,,0,,,61,0
69524,note_off,,,,,20,0,1,,,,,0,,,53,0
69536,note_on,,,,,12,0,1,,,,,0,,,65,61
69556,note_on,,,,,20,0,1,,,,,0,,,59,47
69608,note_off,,,,,52,0,1,,,,,0,,,59,0
69624,note_off,,,,,16,0,1,,,,,0,,,65,0
69680,note_on,,,,,56,0,1,,,,,0,,,68,63
69688,note_on,,,,,8,0,1,,,,,0,,,53,47
69696,note_on,,,,,8,0,1,,,,,0,,,61,43
69784,note_off,,,,,88,0,1,,,,,0,,,61,0
69812,note_on,,,,,28,0,1,,,,,0,,,59,54
69820,note_off,,,,,8,0,1,,,,,0,,,68,0
69836,note_off,,,,,16,0,1,,,,,0,,,53,0
69848,note_on,,,,,12,0,1,,,,,0,,,49,38
69872,note_off,,,,,24,0,1,,,,,0,,,49,0
69888,note_off,,,,,16,0,1,,,,,0,,,59,0
70024,note_on,,,,,136,0,1,,,,,0,,,68,69
70040,note_on,,,,,16,0,1,,,,,0,,,42,49
70048,control_change,,,,,8,0,1,,,64,40,0,,,,
70060,control_change,,,,,12,0,1,,,64,0,0,,,,
70120,note_off,,,,,60,0,1,,,,,0,,,42,0
70124,control_change,,,,,4,0,1,,,64,88,0,,,,
70136,control_change,,,,,12,0,1,,,64,127,0,,,,
70164,note_on,,,,,28,0,1,,,,,0,,,61,56
70220,note_on,,,,,56,0,1,,,,,0,,,52,46
70256,note_off,,,,,36,0,1,,,,,0,,,68,0
70260,note_off,,,,,4,0,1,,,,,0,,,61,0
70268,note_off,,,,,8,0,1,,,,,0,,,52,0
70316,note_on,,,,,48,0,1,,,,,0,,,70,76
70324,note_on,,,,,8,0,1,,,,,0,,,64,45
70336,note_on,,,,,12,0,1,,,,,0,,,54,54
70396,note_off,,,,,60,0,1,,,,,0,,,64,0
70408,note_off,,,,,12,0,1,,,,,0,,,54,0
70436,note_on,,,,,28,0,1,,,,,0,,,58,46
70436,note_on,,,,,0,0,1,,,,,0,,,66,58
70464,note_off,,,,,28,0,1,,,,,0,,,70,0
70528,note_off,,,,,64,0,1,,,,,0,,,58,0
70552,note_off,,,,,24,0,1,,,,,0,,,66,0
70564,note_on,,,,,12,0,1,,,,,0,,,54,50
70572,note_on,,,,,8,0,1,,,,,0,,,71,87
70584,note_on,,,,,12,0,1,,,,,0,,,64,65
70696,note_on,,,,,112,0,1,,,,,0,,,61,68
70704,note_on,,,,,0,0,1,,,,,0,,,52,60
70704,note_off,,,,,8,0,1,,,,,0,,,54,0
70704,note_off,,,,,0,0,1,,,,,0,,,64,0
70708,note_off,,,,,4,0,1,,,,,0,,,71,0
70728,note_off,,,,,20,0,1,,,,,0,,,52,0
70752,note_off,,,,,24,0,1,,,,,0,,,61,0
70896,note_on,,,,,144,0,1,,,,,0,,,75,84
71040,note_on,,,,,144,0,1,,,,,0,,,64,65
71048,control_change,,,,,8,0,1,,,64,24,0,,,,
71056,note_on,,,,,8,0,1,,,,,0,,,54,50
71056,control_change,,,,,0,0,1,,,64,0,0,,,,
71124,control_change,,,,,68,0,1,,,64,56,0,,,,
71128,note_off,,,,,4,0,1,,,,,0,,,64,0
71136,control_change,,,,,8,0,1,,,64,127,0,,,,
71160,note_on,,,,,0,0,1,,,,,0,,,66,59
71160,note_off,,,,,24,0,1,,,,,0,,,54,0
71184,note_on,,,,,24,0,1,,,,,0,,,58,37
71252,note_off,,,,,68,0,1,,,,,0,,,66,0
71272,note_off,,,,,20,0,1,,,,,0,,,58,0
71288,note_on,,,,,16,0,1,,,,,0,,,70,64
71304,note_on,,,,,16,0,1,,,,,0,,,64,51
71324,note_off,,,,,20,0,1,,,,,0,,,75,0
71356,note_off,,,,,32,0,1,,,,,0,,,64,0
71384,note_off,,,,,28,0,1,,,,,0,,,70,0
71440,note_on,,,,,56,0,1,,,,,0,,,73,74
71448,note_on,,,,,8,0,1,,,,,0,,,58,37
71456,note_on,,,,,8,0,1,,,,,0,,,66,61
71616,note_off,,,,,160,0,1,,,,,0,,,73,0
71620,note_on,,,,,4,0,1,,,,,0,,,64,28
71624,note_on,,,,,4,0,1,,,,,0,,,54,42
71628,note_off,,,,,4,0,1,,,,,0,,,58,0
71696,note_off,,,,,0,0,1,,,,,0,,,54,0
71696,note_off,,,,,68,0,1,,,,,0,,,64,0
71740,note_off,,,,,44,0,1,,,,,0,,,66,0
71776,note_on,,,,,36,0,1,,,,,0,,,73,77
71876,control_change,,,,,100,0,1,,,64,104,0,,,,
71892,control_change,,,,,16,0,1,,,64,24,0,,,,
71904,control_change,,,,,12,0,1,,,64,0,0,,,,
71920,note_on,,,,,16,0,1,,,,,0,,,63,53
71928,note_on,,,,,8,0,1,,,,,0,,,47,56
71968,control_change,,,,,40,0,1,,,64,88,0,,,,
71980,control_change,,,,,12,0,1,,,64,127,0,,,,
72020,note_off,,,,,40,0,1,,,,,0,,,73,0
72032,note_off,,,,,12,0,1,,,,,0,,,63,0
72036,note_off,,,,,4,0,1,,,,,0,,,47,0
72072,note_on,,,,,36,0,1,,,,,0,,,71,75
72084,note_on,,,,,12,0,1,,,,,0,,,54,55
72176,note_on,,,,,92,0,1,,,,,0,,,63,53
72184,note_off,,,,,8,0,1,,,,,0,,,54,0
72204,note_on,,,,,20,0,1,,,,,0,,,59,44
72236,note_off,,,,,32,0,1,,,,,0,,,59,0
72268,note_off,,,,,32,0,1,,,,,0,,,63,0
72292,note_off,,,,,24,0,1,,,,,0,,,71,0
72332,note_on,,,,,40,0,1,,,,,0,,,68,78
72352,control_change,,,,,20,0,1,,,64,104,0,,,,
72364,control_change,,,,,12,0,1,,,64,40,0,,,,
72372,note_on,,,,,8,0,1,,,,,0,,,53,55
72376,control_change,,,,,4,0,1,,,64,0,0,,,,
72392,control_change,,,,,16,0,1,,,64,24,0,,,,
72404,control_change,,,,,12,0,1,,,64,56,0,,,,
72416,note_off,,,,,12,0,1,,,,,0,,,53,0
72416,control_change,,,,,0,0,1,,,64,127,0,,,,
72456,note_on,,,,,40,0,1,,,,,0,,,62,62
72568,note_off,,,,,112,0,1,,,,,0,,,62,0
72648,note_on,,,,,0,0,1,,,,,0,,,66,68
72648,note_off,,,,,80,0,1,,,,,0,,,68,0
72660,note_on,,,,,12,0,1,,,,,0,,,63,46
72672,note_on,,,,,12,0,1,,,,,0,,,54,55
72680,control_change,,,,,8,0,1,,,64,56,0,,,,
72696,control_change,,,,,16,0,1,,,64,0,0,,,,
72756,note_off,,,,,60,0,1,,,,,0,,,63,0
72800,note_off,,,,,44,0,1,,,,,0,,,54,0
72800,control_change,,,,,0,0,1,,,64,104,0,,,,
72808,note_on,,,,,8,0,1,,,,,0,,,63,50
72808,control_change,,,,,0,0,1,,,64,127,0,,,,
72864,note_off,,,,,56,0,1,,,,,0,,,66,0
72896,note_off,,,,,32,0,1,,,,,0,,,63,0
72944,note_on,,,,,48,0,1,,,,,0,,,61,50
73012,note_off,,,,,68,0,1,,,,,0,,,61,0
73068,note_on,,,,,56,0,1,,,,,0,,,59,56
73172,note_off,,,,,104,0,1,,,,,0,,,59,0
73208,note_on,,,,,36,0,1,,,,,0,,,56,50
73312,note_off,,,,,104,0,1,,,,,0,,,56,0
73368,note_on,,,,,56,0,1,,,,,0,,,66,68
73376,note_on,,,,,8,0,1,,,,,0,,,54,44
73420,note_off,,,,,44,0,1,,,,,0,,,54,0
73456,note_off,,,,,36,0,1,,,,,0,,,66,0
73580,note_on,,,,,124,0,1,,,,,0,,,75,83
73580,note_on,,,,,0,0,1,,,,,0,,,47,50
73588,control_change,,,,,8,0,1,,,64,88,0,,,,
73604,control_change,,,,,16,0,1,,,64,0,0,,,,
73684,control_change,,,,,80,0,1,,,64,56,0,,,,
73696,control_change,,,,,12,0,1,,,64,127,0,,,,
73704,note_off,,,,,8,0,1,,,,,0,,,47,0
73744,note_on,,,,,40,0,1,,,,,0,,,63,51
73788,note_on,,,,,44,0,1,,,,,0,,,54,45
73820,note_off,,,,,32,0,1,,,,,0,,,63,0
73836,note_off,,,,,16,0,1,,,,,0,,,54,0
73880,note_on,,,,,44,0,1,,,,,0,,,66,57
73908,note_on,,,,,28,0,1,,,,,0,,,59,46
73948,note_off,,,,,40,0,1,,,,,0,,,75,0
73952,note_off,,,,,4,0,1,,,,,0,,,59,0
73972,note_off,,,,,20,0,1,,,,,0,,,66,0
74016,note_on,,,,,44,0,1,,,,,0,,,71,63
74016,note_on,,,,,0,0,1,,,,,0,,,63,51
74084,note_off,,,,,68,0,1,,,,,0,,,63,0
74128,note_off,,,,,44,0,1,,,,,0,,,71,0
74140,note_on,,,,,12,0,1,,,,,0,,,66,49
74144,note_on,,,,,4,0,1,,,,,0,,,59,54
74236,note_off,,,,,92,0,1,,,,,0,,,59,0
74264,note_on,,,,,28,0,1,,,,,0,,,63,55
74264,note_on,,,,,0,0,1,,,,,0,,,54,50
74276,note_off,,,,,12,0,1,,,,,0,,,66,0
74288,note_off,,,,,12,0,1,,,,,0,,,54,0
74364,note_off,,,,,76,0,1,,,,,0,,,63,0
74416,note_on,,,,,52,0,1,,,,,0,,,75,84
74428,note_on,,,,,12,0,1,,,,,0,,,46,70
74432,control_change,,,,,4,0,1,,,64,104,0,,,,
74444,control_change,,,,,12,0,1,,,64,0,0,,,,
74488,note_off,,,,,44,0,1,,,,,0,,,46,0
74512,control_change,,,,,24,0,1,,,64,40,0,,,,
74528,control_change,,,,,16,0,1,,,64,127,0,,,,
74556,note_on,,,,,28,0,1,,,,,0,,,63,55
74584,note_on,,,,,28,0,1,,,,,0,,,55,63
74640,note_off,,,,,56,0,1,,,,,0,,,63,0
74648,note_off,,,,,8,0,1,,,,,0,,,55,0
74696,note_on,,,,,48,0,1,,,,,0,,,67,56
74708,note_on,,,,,12,0,1,,,,,0,,,61,46
74760,note_off,,,,,52,0,1,,,,,0,,,67,0
74788,note_off,,,,,28,0,1,,,,,0,,,61,0
74812,note_on,,,,,24,0,1,,,,,0,,,73,55
74816,note_on,,,,,4,0,1,,,,,0,,,63,49
74884,note_off,,,,,68,0,1,,,,,0,,,63,0
74900,note_off,,,,,16,0,1,,,,,0,,,73,0
74940,note_on,,,,,0,0,1,,,,,0,,,61,50
74940,note_on,,,,,40,0,1,,,,,0,,,67,62
74972,note_off,,,,,32,0,1,,,,,0,,,75,0
75052,note_off,,,,,80,0,1,,,,,0,,,67,0
75052,note_off,,,,,0,0,1,,,,,0,,,61,0
75056,note_on,,,,,0,0,1,,,,,0,,,63,55
75056,note_on,,,,,4,0,1,,,,,0,,,55,60
75076,note_off,,,,,20,0,1,,,,,0,,,55,0
75160,note_off,,,,,84,0,1,,,,,0,,,63,0
75212,note_on,,,,,52,0,1,,,,,0,,,75,85
75220,control_change,,,,,8,0,1,,,64,40,0,,,,
75232,note_on,,,,,12,0,1,,,,,0,,,45,77
75236,control_change,,,,,4,0,1,,,64,0,0,,,,
75284,note_off,,,,,48,0,1,,,,,0,,,45,0
75300,control_change,,,,,16,0,1,,,64,104,0,,,,
75316,control_change,,,,,16,0,1,,,64,127,0,,,,
75348,note_on,,,,,32,0,1,,,,,0,,,63,60
75376,note_on,,,,,28,0,1,,,,,0,,,54,60
75420,note_off,,,,,44,0,1,,,,,0,,,63,0
75448,note_off,,,,,28,0,1,,,,,0,,,54,0
75484,note_on,,,,,36,0,1,,,,,0,,,66,60
75508,note_on,,,,,24,0,1,,,,,0,,,60,54
75560,note_off,,,,,52,0,1,,,,,0,,,60,0
75564,note_off,,,,,4,0,1,,,,,0,,,66,0
75612,note_on,,,,,48,0,1,,,,,0,,,63,55
75624,note_on,,,,,12,0,1,,,,,0,,,72,66
75684,note_off,,,,,60,0,1,,,,,0,,,63,0
75708,note_off,,,,,24,0,1,,,,,0,,,72,0
75744,note_on,,,,,36,0,1,,,,,0,,,66,50
75760,note_on,,,,,16,0,1,,,,,0,,,60,53
75844,note_off,,,,,84,0,1,,,,,0,,,66,0
75848,note_off,,,,,4,0,1,,,,,0,,,60,0
75864,note_on,,,,,16,0,1,,,,,0,,,63,46
75868,note_on,,,,,4,0,1,,,,,0,,,54,33
75896,note_off,,,,,28,0,1,,,,,0,,,54,0
75960,note_off,,,,,64,0,1,,,,,0,,,63,0
76008,note_on,,,,,48,0,1,,,,,0,,,44,80
76016,control_change,,,,,8,0,1,,,64,72,0,,,,
76028,control_change,,,,,12,0,1,,,64,0,0,,,,
76080,note_off,,,,,52,0,1,,,,,0,,,44,0
76092,control_change,,,,,12,0,1,,,64,72,0,,,,
76108,control_change,,,,,16,0,1,,,64,127,0,,,,
76172,note_on,,,,,64,0,1,,,,,0,,,63,43
76192,note_on,,,,,20,0,1,,,,,0,,,54,51
76244,note_off,,,,,52,0,1,,,,,0,,,63,0
76248,note_off,,,,,4,0,1,,,,,0,,,54,0
76292,note_on,,,,,44,0,1,,,,,0,,,66,48
76300,note_on,,,,,8,0,1,,,,,0,,,60,63
76356,note_off,,,,,56,0,1,,,,,0,,,75,0
76356,note_off,,,,,0,0,1,,,,,0,,,60,0
76384,note_off,,,,,28,0,1,,,,,0,,,66,0
76408,note_on,,,,,0,0,1,,,,,0,,,63,61
76408,note_on,,,,,24,0,1,,,,,0,,,72,74
76484,note_off,,,,,76,0,1,,,,,0,,,63,0
76504,note_off,,,,,20,0,1,,,,,0,,,72,0
76532,note_on,,,,,28,0,1,,,,,0,,,75,92
76536,note_on,,,,,4,0,1,,,,,0,,,60,61
76548,note_on,,,,,12,0,1,,,,,0,,,66,61
76672,note_on,,,,,0,0,1,,,,,0,,,63,49
76672,note_off,,,,,124,0,1,,,,,0,,,60,0
76672,note_on,,,,,0,0,1,,,,,0,,,54,55
76688,note_off,,,,,16,0,1,,,,,0,,,66,0
76716,note_off,,,,,28,0,1,,,,,0,,,75,0
76720,note_off,,,,,4,0,1,,,,,0,,,54,0
76800,note_off,,,,,80,0,1,,,,,0,,,63,0
76892,note_on,,,,,92,0,1,,,,,0,,,75,87
76896,control_change,,,,,4,0,1,,,64,104,0,,,,
76904,note_on,,,,,8,0,1,,,,,0,,,43,82
76908,control_change,,,,,4,0,1,,,64,0,0,,,,
76972,note_off,,,,,64,0,1,,,,,0,,,43,0
76976,control_change,,,,,4,0,1,,,64,40,0,,,,
76988,control_change,,,,,12,0,1,,,64,127,0,,,,
77076,note_on,,,,,88,0,1,,,,,0,,,64,60
77084,note_on,,,,,8,0,1,,,,,0,,,55,73
77144,note_off,,,,,60,0,1,,,,,0,,,75,0
77152,note_off,,,,,8,0,1,,,,,0,,,64,0
77156,note_off,,,,,4,0,1,,,,,0,,,55,0
77204,note_on,,,,,48,0,1,,,,,0,,,60,68
77208,note_on,,,,,4,0,1,,,,,0,,,67,56
77272,note_off,,,,,64,0,1,,,,,0,,,60,0
77280,note_off,,,,,8,0,1,,,,,0,,,67,0
77312,note_on,,,,,32,0,1,,,,,0,,,64,40
77328,note_on,,,,,16,0,1,,,,,0,,,72,70
77396,note_off,,,,,68,0,1,,,,,0,,,64,0
77404,note_off,,,,,8,0,1,,,,,0,,,72,0
77448,note_on,,,,,44,0,1,,,,,0,,,60,60
77460,note_on,,,,,12,0,1,,,,,0,,,76,92
77464,note_on,,,,,4,0,1,,,,,0,,,67,59
77572,note_off,,,,,108,0,1,,,,,0,,,67,0
77576,note_on,,,,,4,0,1,,,,,0,,,55,74
77584,note_off,,,,,8,0,1,,,,,0,,,60,0
77592,note_off,,,,,8,0,1,,,,,0,,,76,0
77600,note_on,,,,,8,0,1,,,,,0,,,64,64
77636,note_off,,,,,36,0,1,,,,,0,,,55,0
77672,note_off,,,,,36,0,1,,,,,0,,,64,0
77720,note_on,,,,,48,0,1,,,,,0,,,75,95
77848,note_on,,,,,128,0,1,,,,,0,,,64,70
77876,note_on,,,,,28,0,1,,,,,0,,,55,76
77888,note_off,,,,,12,0,1,,,,,0,,,75,0
77936,note_off,,,,,48,0,1,,,,,0,,,64,0
77952,note_off,,,,,16,0,1,,,,,0,,,55,0
77984,note_on,,,,,32,0,1,,,,,0,,,67,80
77996,note_on,,,,,12,0,1,,,,,0,,,60,76
78064,note_off,,,,,68,0,1,,,,,0,,,67,0
78088,note_off,,,,,24,0,1,,,,,0,,,60,0
78104,note_on,,,,,16,0,1,,,,,0,,,72,77
78108,note_on,,,,,4,0,1,,,,,0,,,64,71
78200,note_off,,,,,0,0,1,,,,,0,,,64,0
78200,note_off,,,,,92,0,1,,,,,0,,,72,0
78240,note_on,,,,,40,0,1,,,,,0,,,76,103
78240,note_on,,,,,0,0,1,,,,,0,,,60,75
78248,note_on,,,,,8,0,1,,,,,0,,,67,80
78260,note_on,,,,,12,0,1,,,,,0,,,72,46
78284,note_off,,,,,24,0,1,,,,,0,,,72,0
78320,note_off,,,,,36,0,1,,,,,0,,,67,0
78388,note_on,,,,,68,0,1,,,,,0,,,64,66
78404,note_off,,,,,16,0,1,,,,,0,,,60,0
78404,note_on,,,,,0,0,1,,,,,0,,,55,59
78428,note_off,,,,,24,0,1,,,,,0,,,55,0
78464,note_off,,,,,36,0,1,,,,,0,,,76,0
78476,note_off,,,,,12,0,1,,,,,0,,,64,0
78612,control_change,,,,,136,0,1,,,64,24,0,,,,
78620,note_on,,,,,8,0,1,,,,,0,,,77,99
78624,control_change,,,,,4,0,1,,,64,0,0,,,,
78628,note_on,,,,,4,0,1,,,,,0,,,43,74
78684,note_off,,,,,56,0,1,,,,,0,,,43,0
78688,control_change,,,,,4,0,1,,,64,72,0,,,,
78700,control_change,,,,,12,0,1,,,64,127,0,,,,
78816,note_on,,,,,116,0,1,,,,,0,,,65,64
78828,note_on,,,,,12,0,1,,,,,0,,,57,66
78900,note_off,,,,,72,0,1,,,,,0,,,57,0
78904,note_off,,,,,4,0,1,,,,,0,,,65,0
78972,note_on,,,,,68,0,1,,,,,0,,,69,66
78976,note_on,,,,,4,0,1,,,,,0,,,62,63
78984,note_on,,,,,8,0,1,,,,,0,,,60,57
79068,note_off,,,,,84,0,1,,,,,0,,,62,0
79088,note_off,,,,,20,0,1,,,,,0,,,69,0
79092,note_off,,,,,4,0,1,,,,,0,,,60,0
79112,note_on,,,,,20,0,1,,,,,0,,,65,65
79120,note_on,,,,,8,0,1,,,,,0,,,72,70
79192,note_off,,,,,72,0,1,,,,,0,,,65,0
79224,note_off,,,,,32,0,1,,,,,0,,,72,0
79260,note_on,,,,,36,0,1,,,,,0,,,62,54
79268,note_on,,,,,8,0,1,,,,,0,,,60,47
79272,note_on,,,,,4,0,1,,,,,0,,,69,62
79356,note_off,,,,,84,0,1,,,,,0,,,62,0
79400,note_off,,,,,44,0,1,,,,,0,,,69,0
79424,note_on,,,,,24,0,1,,,,,0,,,57,58
79428,note_on,,,,,4,0,1,,,,,0,,,65,41
79472,note_off,,,,,44,0,1,,,,,0,,,60,0
79484,note_off,,,,,12,0,1,,,,,0,,,57,0
79496,note_off,,,,,12,0,1,,,,,0,,,65,0
79524,note_off,,,,,28,0,1,,,,,0,,,77,0
80180,note_on,,,,,656,0,1,,,,,0,,,69,79
80192,note_on,,,,,12,0,1,,,,,0,,,57,54
80220,control_change,,,,,28,0,1,,,64,104,0,,,,
80232,control_change,,,,,12,0,1,,,64,0,0,,,,
80308,control_change,,,,,76,0,1,,,64,104,0,,,,
80324,control_change,,,,,16,0,1,,,64,127,0,,,,
80348,note_off,,,,,24,0,1,,,,,0,,,57,0
80376,note_off,,,,,28,0,1,,,,,0,,,69,0
80512,note_on,,,,,136,0,1,,,,,0,,,69,89
80520,note_on,,,,,8,0,1,,,,,0,,,57,70
80600,control_change,,,,,80,0,1,,,64,72,0,,,,
80612,control_change,,,,,12,0,1,,,64,0,0,,,,
80640,note_off,,,,,28,0,1,,,,,0,,,57,0
80652,control_change,,,,,12,0,1,,,64,72,0,,,,
80660,note_on,,,,,8,0,1,,,,,0,,,43,75
80664,control_change,,,,,4,0,1,,,64,127,0,,,,
80736,note_off,,,,,72,0,1,,,,,0,,,43,0
80780,note_off,,,,,44,0,1,,,,,0,,,69,0
80804,note_on,,,,,24,0,1,,,,,0,,,71,89
80808,note_on,,,,,4,0,1,,,,,0,,,59,70
80808,note_on,,,,,0,0,1,,,,,0,,,50,62
80828,note_on,,,,,20,0,1,,,,,0,,,53,55
80876,note_off,,,,,48,0,1,,,,,0,,,59,0
80908,note_off,,,,,32,0,1,,,,,0,,,53,0
80920,note_off,,,,,12,0,1,,,,,0,,,71,0
80932,note_off,,,,,12,0,1,,,,,0,,,50,0
80940,note_on,,,,,8,0,1,,,,,0,,,57,66
81004,note_off,,,,,64,0,1,,,,,0,,,57,0
81056,note_on,,,,,52,0,1,,,,,0,,,53,66
81060,note_on,,,,,4,0,1,,,,,0,,,72,90
81064,note_on,,,,,4,0,1,,,,,0,,,60,77
81136,note_off,,,,,72,0,1,,,,,0,,,53,0
81136,note_on,,,,,0,0,1,,,,,0,,,50,70
81148,note_off,,,,,12,0,1,,,,,0,,,60,0
81180,control_change,,,,,32,0,1,,,64,88,0,,,,
81192,control_change,,,,,12,0,1,,,64,0,0,,,,
81220,note_off,,,,,28,0,1,,,,,0,,,72,0
81224,note_off,,,,,4,0,1,,,,,0,,,50,0
81240,set_tempo,,,,,19800,1,0,,500000,,,,,,,
81248,control_change,,,,,24,0,1,,,64,56,0,,,,
81252,note_on,,,,,4,0,1,,,,,0,,,43,67
81260,control_change,,,,,8,0,1,,,64,127,0,,,,
81280,note_on,,,,,20,0,1,,,,,0,,,53,24
81300,note_off,,,,,20,0,1,,,,,0,,,43,0
81356,note_off,,,,,56,0,1,,,,,0,,,53,0
81356,note_on,,,,,0,0,1,,,,,0,,,59,71
81400,note_off,,,,,44,0,1,,,,,0,,,59,0
81408,note_on,,,,,8,0,1,,,,,0,,,64,61
81488,note_on,,,,,80,0,1,,,,,0,,,76,100
81808,note_off,,,,,320,0,1,,,,,0,,,76,0
81848,note_off,,,,,40,0,1,,,,,0,,,64,0
82072,note_on,,,,,224,0,1,,,,,0,,,74,87
82080,note_on,,,,,8,0,1,,,,,0,,,62,73
82180,note_off,,,,,100,0,1,,,,,0,,,74,0
82184,note_off,,,,,4,0,1,,,,,0,,,62,0
82236,note_on,,,,,52,0,1,,,,,0,,,36,56
82352,control_change,,,,,116,0,1,,,64,40,0,,,,
82364,control_change,,,,,12,0,1,,,64,0,0,,,,
82388,note_on,,,,,24,0,1,,,,,0,,,72,92
82396,note_on,,,,,8,0,1,,,,,0,,,52,63
82400,note_on,,,,,0,0,1,,,,,0,,,67,66
82400,note_on,,,,,4,0,1,,,,,0,,,60,72
82448,control_change,,,,,48,0,1,,,64,56,0,,,,
82456,control_change,,,,,8,0,1,,,64,72,0,,,,
82468,control_change,,,,,12,0,1,,,64,127,0,,,,
82544,note_off,,,,,76,0,1,,,,,0,,,67,0
82552,note_off,,,,,8,0,1,,,,,0,,,60,0
82576,note_off,,,,,24,0,1,,,,,0,,,72,0
82604,note_off,,,,,28,0,1,,,,,0,,,36,0
82612,note_off,,,,,8,0,1,,,,,0,,,52,0
82680,control_change,,,,,68,0,1,,,64,40,0,,,,
82692,control_change,,,,,12,0,1,,,64,88,0,,,,
82704,control_change,,,,,0,0,1,,,64,127,0,,,,
82704,note_on,,,,,12,0,1,,,,,0,,,72,83
82804,note_off,,,,,100,0,1,,,,,0,,,72,0
82844,note_on,,,,,40,0,1,,,,,0,,,64,69
82940,note_off,,,,,96,0,1,,,,,0,,,64,0
82972,note_on,,,,,32,0,1,,,,,0,,,67,63
83116,note_on,,,,,144,0,1,,,,,0,,,60,66
83120,note_off,,,,,4,0,1,,,,,0,,,67,0
83140,note_off,,,,,20,0,1,,,,,0,,,60,0
83244,note_on,,,,,104,0,1,,,,,0,,,64,66
83328,note_off,,,,,84,0,1,,,,,0,,,64,0
83380,note_on,,,,,52,0,1,,,,,0,,,55,64
83480,note_off,,,,,100,0,1,,,,,0,,,55,0
83516,note_on,,,,,36,0,1,,,,,0,,,60,66
83608,note_off,,,,,92,0,1,,,,,0,,,60,0
83656,note_on,,,,,48,0,1,,,,,0,,,52,60
83740,note_off,,,,,84,0,1,,,,,0,,,52,0
83792,note_on,,,,,52,0,1,,,,,0,,,55,54
83944,note_off,,,,,152,0,1,,,,,0,,,55,0
83944,note_on,,,,,0,0,1,,,,,0,,,84,90
83948,note_on,,,,,4,0,1,,,,,0,,,72,84
83956,note_on,,,,,8,0,1,,,,,0,,,48,61
83972,note_off,,,,,16,0,1,,,,,0,,,48,0
83996,note_off,,,,,24,0,1,,,,,0,,,72,0
84048,note_off,,,,,52,0,1,,,,,0,,,84,0
84140,note_on,,,,,92,0,1,,,,,0,,,84,94
84148,note_on,,,,,0,0,1,,,,,0,,,80,69
84148,note_on,,,,,8,0,1,,,,,0,,,72,82
84156,note_on,,,,,8,0,1,,,,,0,,,77,75
84168,control_change,,,,,12,0,1,,,64,72,0,,,,
84180,control_change,,,,,12,0,1,,,64,0,0,,,,
84192,note_on,,,,,12,0,1,,,,,0,,,53,45
84200,note_on,,,,,8,0,1,,,,,0,,,41,44
84268,control_change,,,,,68,0,1,,,64,88,0,,,,
84280,control_change,,,,,12,0,1,,,64,127,0,,,,
84288,note_off,,,,,8,0,1,,,,,0,,,41,0
84312,note_off,,,,,24,0,1,,,,,0,,,53,0
84460,note_on,,,,,148,0,1,,,,,0,,,68,54
84540,note_off,,,,,80,0,1,,,,,0,,,68,0
84588,note_on,,,,,48,0,1,,,,,0,,,60,60
84660,note_off,,,,,72,0,1,,,,,0,,,72,0
84664,note_off,,,,,4,0,1,,,,,0,,,60,0
84716,note_on,,,,,52,0,1,,,,,0,,,65,62
84752,note_off,,,,,36,0,1,,,,,0,,,84,0
84788,note_off,,,,,36,0,1,,,,,0,,,65,0
84808,note_off,,,,,20,0,1,,,,,0,,,77,0
84812,note_off,,,,,4,0,1,,,,,0,,,80,0
84848,note_on,,,,,36,0,1,,,,,0,,,83,88
84848,note_on,,,,,0,0,1,,,,,0,,,77,70
84848,note_on,,,,,0,0,1,,,,,0,,,80,70
84848,note_on,,,,,0,0,1,,,,,0,,,56,51
84852,note_on,,,,,4,0,1,,,,,0,,,71,78
84912,note_off,,,,,60,0,1,,,,,0,,,71,0
84940,note_off,,,,,28,0,1,,,,,0,,,56,0
84944,note_off,,,,,0,0,1,,,,,0,,,80,0
84944,note_off,,,,,0,0,1,,,,,0,,,77,0
84944,note_off,,,,,4,0,1,,,,,0,,,83,0
84980,note_on,,,,,36,0,1,,,,,0,,,60,61
84988,note_on,,,,,8,0,1,,,,,0,,,80,73
84992,note_on,,,,,4,0,1,,,,,0,,,84,96
84992,note_on,,,,,0,0,1,,,,,0,,,72,85
84996,note_on,,,,,4,0,1,,,,,0,,,77,76
85132,note_off,,,,,136,0,1,,,,,0,,,60,0
85132,note_on,,,,,0,0,1,,,,,0,,,53,57
85156,note_off,,,,,24,0,1,,,,,0,,,53,0
85260,note_on,,,,,104,0,1,,,,,0,,,56,53
85328,note_off,,,,,68,0,1,,,,,0,,,56,0
85384,note_on,,,,,56,0,1,,,,,0,,,48,62
85412,note_off,,,,,28,0,1,,,,,0,,,72,0
85440,note_off,,,,,28,0,1,,,,,0,,,84,0
85444,note_off,,,,,4,0,1,,,,,0,,,48,0
85508,note_on,,,,,64,0,1,,,,,0,,,53,66
85588,note_off,,,,,80,0,1,,,,,0,,,53,0
85612,note_off,,,,,24,0,1,,,,,0,,,77,0
85632,note_off,,,,,20,0,1,,,,,0,,,80,0
85644,note_on,,,,,12,0,1,,,,,0,,,44,57
85648,note_on,,,,,4,0,1,,,,,0,,,86,90
85648,note_on,,,,,0,0,1,,,,,0,,,80,70
85648,note_on,,,,,0,0,1,,,,,0,,,77,70
85652,note_on,,,,,4,0,1,,,,,0,,,74,86
85700,note_off,,,,,0,0,1,,,,,0,,,74,0
85700,note_off,,,,,48,0,1,,,,,0,,,44,0
85740,note_off,,,,,40,0,1,,,,,0,,,86,0
85744,note_off,,,,,0,0,1,,,,,0,,,80,0
85744,note_off,,,,,4,0,1,,,,,0,,,77,0
85808,note_on,,,,,64,0,1,,,,,0,,,36,54
85848,control_change,,,,,40,0,1,,,64,104,0,,,,
85856,control_change,,,,,8,0,1,,,64,0,0,,,,
85872,note_on,,,,,16,0,1,,,,,0,,,88,99
85876,note_on,,,,,4,0,1,,,,,0,,,76,87
85876,note_on,,,,,0,0,1,,,,,0,,,79,83
85880,note_on,,,,,4,0,1,,,,,0,,,84,77
85888,note_on,,,,,8,0,1,,,,,0,,,48,58
85952,note_off,,,,,64,0,1,,,,,0,,,36,0
85956,control_change,,,,,4,0,1,,,64,127,0,,,,
85984,note_off,,,,,28,0,1,,,,,0,,,48,0
86160,note_on,,,,,176,0,1,,,,,0,,,72,60
86224,note_off,,,,,64,0,1,,,,,0,,,72,0
86276,note_on,,,,,52,0,1,,,,,0,,,64,57
86356,note_off,,,,,80,0,1,,,,,0,,,64,0
86360,note_off,,,,,4,0,1,,,,,0,,,88,0
86400,note_on,,,,,40,0,1,,,,,0,,,67,62
86408,note_off,,,,,8,0,1,,,,,0,,,76,0
86444,note_off,,,,,36,0,1,,,,,0,,,84,0
86484,note_off,,,,,40,0,1,,,,,0,,,79,0
86520,note_on,,,,,36,0,1,,,,,0,,,86,86
86528,note_on,,,,,8,0,1,,,,,0,,,74,72
86528,note_on,,,,,0,0,1,,,,,0,,,79,70
86536,note_off,,,,,8,0,1,,,,,0,,,67,0
86536,note_on,,,,,0,0,1,,,,,0,,,60,55
86568,note_off,,,,,32,0,1,,,,,0,,,60,0
86580,note_off,,,,,12,0,1,,,,,0,,,74,0
86588,note_off,,,,,8,0,1,,,,,0,,,86,0
86600,note_off,,,,,12,0,1,,,,,0,,,79,0
86664,note_on,,,,,64,0,1,,,,,0,,,84,94
86668,note_on,,,,,4,0,1,,,,,0,,,79,81
86672,note_on,,,,,4,0,1,,,,,0,,,72,78
86680,note_on,,,,,8,0,1,,,,,0,,,64,60
86748,note_off,,,,,68,0,1,,,,,0,,,64,0
86800,note_on,,,,,52,0,1,,,,,0,,,55,60
86856,note_off,,,,,56,0,1,,,,,0,,,55,0
86928,note_on,,,,,72,0,1,,,,,0,,,60,67
86992,note_off,,,,,64,0,1,,,,,0,,,60,0
87044,note_off,,,,,52,0,1,,,,,0,,,72,0
87060,note_on,,,,,16,0,1,,,,,0,,,52,66
87092,note_off,,,,,32,0,1,,,,,0,,,84,0
87096,note_off,,,,,4,0,1,,,,,0,,,79,0
87144,note_off,,,,,48,0,1,,,,,0,,,52,0
87188,note_on,,,,,44,0,1,,,,,0,,,55,70
87304,note_off,,,,,116,0,1,,,,,0,,,55,0
87316,note_on,,,,,12,0,1,,,,,0,,,88,102
87320,note_on,,,,,4,0,1,,,,,0,,,76,94
87324,note_on,,,,,4,0,1,,,,,0,,,48,62
87348,note_off,,,,,24,0,1,,,,,0,,,48,0
87416,note_off,,,,,68,0,1,,,,,0,,,76,0
87432,note_off,,,,,16,0,1,,,,,0,,,88,0
87512,note_on,,,,,80,0,1,,,,,0,,,88,110
87512,note_on,,,,,0,0,1,,,,,0,,,76,102
87516,note_on,,,,,4,0,1,,,,,0,,,84,88
87520,control_change,,,,,0,0,1,,,64,56,0,,,,
87520,note_on,,,,,4,0,1,,,,,0,,,81,86
87532,control_change,,,,,12,0,1,,,64,0,0,,,,
87540,note_on,,,,,8,0,1,,,,,0,,,33,70
87548,note_on,,,,,8,0,1,,,,,0,,,45,64
87596,note_off,,,,,48,0,1,,,,,0,,,33,0
87612,control_change,,,,,16,0,1,,,64,72,0,,,,
87620,note_off,,,,,8,0,1,,,,,0,,,45,0
87624,control_change,,,,,4,0,1,,,64,127,0,,,,
87832,note_on,,,,,208,0,1,,,,,0,,,72,64
87884,note_off,,,,,52,0,1,,,,,0,,,72,0
87952,note_on,,,,,68,0,1,,,,,0,,,64,59
87968,note_off,,,,,16,0,1,,,,,0,,,76,0
88052,note_off,,,,,84,0,1,,,,,0,,,64,0
88068,note_off,,,,,16,0,1,,,,,0,,,88,0
88076,note_on,,,,,8,0,1,,,,,0,,,69,60
88108,note_off,,,,,32,0,1,,,,,0,,,84,0
88144,note_off,,,,,36,0,1,,,,,0,,,81,0
88184,note_on,,,,,0,0,1,,,,,0,,,84,70
88184,note_on,,,,,40,0,1,,,,,0,,,87,84
88184,note_on,,,,,0,0,1,,,,,0,,,81,70
88188,note_on,,,,,4,0,1,,,,,0,,,75,84
88192,note_off,,,,,4,0,1,,,,,0,,,69,0
88212,note_on,,,,,20,0,1,,,,,0,,,60,57
88236,note_off,,,,,24,0,1,,,,,0,,,60,0
88256,note_off,,,,,20,0,1,,,,,0,,,75,0
88280,note_off,,,,,0,0,1,,,,,0,,,81,0
88280,note_off,,,,,0,0,1,,,,,0,,,84,0
88280,note_off,,,,,24,0,1,,,,,0,,,87,0
88332,note_on,,,,,52,0,1,,,,,0,,,88,100
88336,note_on,,,,,4,0,1,,,,,0,,,76,86
88336,note_on,,,,,0,0,1,,,,,0,,,84,75
88340,note_on,,,,,4,0,1,,,,,0,,,81,70
88348,note_on,,,,,8,0,1,,,,,0,,,64,59
88388,control_change,,,,,40,0,1,,,64,72,0,,,,
88400,control_change,,,,,12,0,1,,,64,56,0,,,,
88424,control_change,,,,,24,0,1,,,64,88,0,,,,
88432,control_change,,,,,8,0,1,,,64,127,0,,,,
88448,note_off,,,,,16,0,1,,,,,0,,,64,0
88464,note_on,,,,,16,0,1,,,,,0,,,57,56
88524,note_off,,,,,60,0,1,,,,,0,,,57,0
88588,note_on,,,,,64,0,1,,,,,0,,,60,59
88668,note_off,,,,,80,0,1,,,,,0,,,60,0
88708,note_off,,,,,40,0,1,,,,,0,,,76,0
88716,note_on,,,,,8,0,1,,,,,0,,,52,63
88740,note_off,,,,,24,0,1,,,,,0,,,88,0
88744,note_off,,,,,4,0,1,,,,,0,,,81,0
88748,note_off,,,,,4,0,1,,,,,0,,,84,0
88800,note_off,,,,,52,0,1,,,,,0,,,52,0
88840,note_on,,,,,40,0,1,,,,,0,,,57,55
88964,note_off,,,,,124,0,1,,,,,0,,,57,0
88980,note_on,,,,,0,0,1,,,,,0,,,78,87
88980,note_on,,,,,16,0,1,,,,,0,,,90,92
88988,note_on,,,,,8,0,1,,,,,0,,,48,62
89008,note_off,,,,,20,0,1,,,,,0,,,48,0
89036,note_off,,,,,28,0,1,,,,,0,,,78,0
89052,note_off,,,,,16,0,1,,,,,0,,,90,0
89176,control_change,,,,,124,0,1,,,64,88,0,,,,
89188,note_on,,,,,12,0,1,,,,,0,,,92,105
89188,control_change,,,,,0,0,1,,,64,0,0,,,,
89188,note_on,,,,,0,0,1,,,,,0,,,80,92
89208,note_on,,,,,20,0,1,,,,,0,,,40,66
89212,note_on,,,,,4,0,1,,,,,0,,,52,63
89256,control_change,,,,,0,0,1,,,64,127,0,,,,
89256,note_off,,,,,0,0,1,,,,,0,,,40,0
89256,note_off,,,,,44,0,1,,,,,0,,,92,0
89268,note_off,,,,,12,0,1,,,,,0,,,80,0
89276,note_off,,,,,8,0,1,,,,,0,,,52,0
89384,note_on,,,,,108,0,1,,,,,0,,,71,53
89388,note_on,,,,,4,0,1,,,,,0,,,59,62
89412,note_off,,,,,24,0,1,,,,,0,,,59,0
89448,note_off,,,,,36,0,1,,,,,0,,,71,0
89476,note_on,,,,,28,0,1,,,,,0,,,76,79
89488,note_on,,,,,12,0,1,,,,,0,,,56,48
89544,note_off,,,,,56,0,1,,,,,0,,,76,0
89580,note_off,,,,,36,0,1,,,,,0,,,56,0
89600,note_on,,,,,20,0,1,,,,,0,,,68,71
89608,note_on,,,,,8,0,1,,,,,0,,,64,57
89672,note_off,,,,,64,0,1,,,,,0,,,64,0
89676,note_off,,,,,4,0,1,,,,,0,,,68,0
89716,note_on,,,,,40,0,1,,,,,0,,,71,70
89728,note_on,,,,,12,0,1,,,,,0,,,59,56
89820,note_off,,,,,92,0,1,,,,,0,,,59,0
89824,note_off,,,,,4,0,1,,,,,0,,,71,0
89828,note_on,,,,,4,0,1,,,,,0,,,56,46
89836,note_on,,,,,8,0,1,,,,,0,,,76,67
89844,note_off,,,,,8,0,1,,,,,0,,,56,0
89856,note_off,,,,,12,0,1,,,,,0,,,76,0
89988,control_change,,,,,132,0,1,,,64,104,0,,,,
90000,control_change,,,,,12,0,1,,,64,24,0,,,,
90004,note_on,,,,,0,0,1,,,,,0,,,80,97
90004,note_on,,,,,4,0,1,,,,,0,,,92,105
90012,control_change,,,,,8,0,1,,,64,0,0,,,,
90016,note_on,,,,,4,0,1,,,,,0,,,40,71
90020,note_on,,,,,4,0,1,,,,,0,,,52,69
90052,note_off,,,,,32,0,1,,,,,0,,,92,0
90056,control_change,,,,,4,0,1,,,64,104,0,,,,
90060,note_off,,,,,4,0,1,,,,,0,,,80,0
90064,control_change,,,,,4,0,1,,,64,127,0,,,,
90076,note_off,,,,,12,0,1,,,,,0,,,52,0
90084,note_off,,,,,8,0,1,,,,,0,,,40,0
90164,note_on,,,,,80,0,1,,,,,0,,,71,70
90168,note_on,,,,,4,0,1,,,,,0,,,59,64
90208,note_off,,,,,40,0,1,,,,,0,,,59,0
90212,note_off,,,,,4,0,1,,,,,0,,,71,0
90272,note_on,,,,,60,0,1,,,,,0,,,76,71
90276,note_on,,,,,4,0,1,,,,,0,,,56,57
90332,note_off,,,,,56,0,1,,,,,0,,,76,0
90356,note_off,,,,,24,0,1,,,,,0,,,56,0
90396,note_on,,,,,40,0,1,,,,,0,,,68,72
90400,note_on,,,,,4,0,1,,,,,0,,,64,60
90468,note_off,,,,,68,0,1,,,,,0,,,64,0
90480,note_off,,,,,12,0,1,,,,,0,,,68,0
90500,note_on,,,,,20,0,1,,,,,0,,,71,69
90520,note_on,,,,,20,0,1,,,,,0,,,59,59
90624,note_on,,,,,0,0,1,,,,,0,,,56,65
90624,note_off,,,,,104,0,1,,,,,0,,,71,0
90628,note_off,,,,,4,0,1,,,,,0,,,59,0
90632,note_on,,,,,4,0,1,,,,,0,,,76,66
90652,note_off,,,,,20,0,1,,,,,0,,,76,0
90656,note_off,,,,,4,0,1,,,,,0,,,56,0
90828,control_change,,,,,0,0,1,,,64,40,0,,,,
90828,note_on,,,,,172,0,1,,,,,0,,,92,108
90832,note_on,,,,,4,0,1,,,,,0,,,80,92
90844,control_change,,,,,12,0,1,,,64,0,0,,,,
90848,note_on,,,,,4,0,1,,,,,0,,,51,81
90848,note_on,,,,,0,0,1,,,,,0,,,39,73
90908,control_change,,,,,60,0,1,,,64,127,0,,,,
90920,note_off,,,,,12,0,1,,,,,0,,,39,0
90924,note_off,,,,,4,0,1,,,,,0,,,92,0
90928,note_off,,,,,4,0,1,,,,,0,,,51,0
90948,note_off,,,,,20,0,1,,,,,0,,,80,0
91044,note_on,,,,,96,0,1,,,,,0,,,72,52
91056,note_on,,,,,12,0,1,,,,,0,,,60,58
91100,note_off,,,,,44,0,1,,,,,0,,,72,0
91120,note_off,,,,,20,0,1,,,,,0,,,60,0
91152,note_on,,,,,32,0,1,,,,,0,,,78,68
91172,note_on,,,,,20,0,1,,,,,0,,,56,50
91224,note_off,,,,,52,0,1,,,,,0,,,78,0
91252,note_off,,,,,28,0,1,,,,,0,,,56,0
91264,note_on,,,,,12,0,1,,,,,0,,,68,61
91272,note_on,,,,,8,0,1,,,,,0,,,66,57
91344,note_off,,,,,72,0,1,,,,,0,,,66,0
91380,note_on,,,,,36,0,1,,,,,0,,,72,71
91388,note_on,,,,,8,0,1,,,,,0,,,60,60
91428,note_off,,,,,40,0,1,,,,,0,,,68,0
91456,note_off,,,,,28,0,1,,,,,0,,,60,0
91460,note_off,,,,,4,0,1,,,,,0,,,72,0
91480,note_on,,,,,20,0,1,,,,,0,,,78,71
91484,note_on,,,,,4,0,1,,,,,0,,,56,52
91492,note_on,,,,,8,0,1,,,,,0,,,68,18
91576,note_off,,,,,84,0,1,,,,,0,,,78,0
91596,note_off,,,,,20,0,1,,,,,0,,,56,0
91600,note_on,,,,,4,0,1,,,,,0,,,80,75
91608,note_on,,,,,8,0,1,,,,,0,,,51,61
91688,note_off,,,,,80,0,1,,,,,0,,,68,0
91696,note_off,,,,,8,0,1,,,,,0,,,51,0
91712,note_on,,,,,16,0,1,,,,,0,,,72,77
91732,note_on,,,,,20,0,1,,,,,0,,,60,60
91748,note_off,,,,,16,0,1,,,,,0,,,80,0
91800,note_off,,,,,52,0,1,,,,,0,,,60,0
91824,note_on,,,,,24,0,1,,,,,0,,,78,72
91840,note_on,,,,,16,0,1,,,,,0,,,56,49
91844,note_off,,,,,4,0,1,,,,,0,,,72,0
91916,note_off,,,,,72,0,1,,,,,0,,,78,0
91936,note_on,,,,,20,0,1,,,,,0,,,68,68
91940,note_off,,,,,4,0,1,,,,,0,,,56,0
91952,note_on,,,,,12,0,1,,,,,0,,,66,65
91968,note_off,,,,,16,0,1,,,,,0,,,68,0
92016,note_off,,,,,48,0,1,,,,,0,,,66,0
92060,note_on,,,,,44,0,1,,,,,0,,,60,66
92144,note_on,,,,,84,0,1,,,,,0,,,56,67
92148,note_on,,,,,4,0,1,,,,,0,,,92,108
92148,note_on,,,,,0,0,1,,,,,0,,,80,90
92152,note_off,,,,,4,0,1,,,,,0,,,60,0
92184,note_off,,,,,32,0,1,,,,,0,,,56,0
92232,note_off,,,,,48,0,1,,,,,0,,,92,0
92236,note_off,,,,,4,0,1,,,,,0,,,80,0
92320,control_change,,,,,84,0,1,,,64,88,0,,,,
92332,control_change,,,,,12,0,1,,,64,0,0,,,,
92340,note_on,,,,,0,0,1,,,,,0,,,80,102
92340,note_on,,,,,8,0,1,,,,,0,,,92,106
92344,note_on,,,,,4,0,1,,,,,0,,,90,87
92348,note_on,,,,,4,0,1,,,,,0,,,83,90
92356,note_on,,,,,8,0,1,,,,,0,,,38,76
92356,note_on,,,,,0,0,1,,,,,0,,,50,80
92388,control_change,,,,,32,0,1,,,64,56,0,,,,
92392,note_off,,,,,4,0,1,,,,,0,,,83,0
92396,control_change,,,,,0,0,1,,,64,127,0,,,,
92396,note_off,,,,,4,0,1,,,,,0,,,38,0
92404,note_off,,,,,8,0,1,,,,,0,,,92,0
92408,note_off,,,,,4,0,1,,,,,0,,,50,0
92412,note_off,,,,,4,0,1,,,,,0,,,90,0
92420,note_off,,,,,8,0,1,,,,,0,,,80,0
92500,note_on,,,,,80,0,1,,,,,0,,,71,84
92504,note_on,,,,,4,0,1,,,,,0,,,59,73
92548,note_off,,,,,44,0,1,,,,,0,,,71,0
92568,note_off,,,,,20,0,1,,,,,0,,,59,0
92592,note_on,,,,,24,0,1,,,,,0,,,78,80
92616,note_on,,,,,24,0,1,,,,,0,,,56,58
92672,note_off,,,,,56,0,1,,,,,0,,,78,0
92704,note_off,,,,,32,0,1,,,,,0,,,56,0
92720,note_on,,,,,16,0,1,,,,,0,,,68,79
92736,note_on,,,,,16,0,1,,,,,0,,,66,77
92760,note_off,,,,,24,0,1,,,,,0,,,68,0
92800,note_off,,,,,40,0,1,,,,,0,,,66,0
92836,note_on,,,,,36,0,1,,,,,0,,,59,72
92936,note_on,,,,,100,0,1,,,,,0,,,56,72
92940,note_on,,,,,0,0,1,,,,,0,,,92,113
92940,note_on,,,,,4,0,1,,,,,0,,,80,93
92944,note_off,,,,,4,0,1,,,,,0,,,59,0
92972,note_off,,,,,28,0,1,,,,,0,,,56,0
93020,note_off,,,,,48,0,1,,,,,0,,,80,0
93020,note_off,,,,,0,0,1,,,,,0,,,92,0
93108,control_change,,,,,88,0,1,,,64,88,0,,,,
93120,control_change,,,,,12,0,1,,,64,0,0,,,,
93132,note_on,,,,,0,0,1,,,,,0,,,81,93
93132,note_on,,,,,12,0,1,,,,,0,,,93,110
93136,note_on,,,,,4,0,1,,,,,0,,,89,86
93148,note_on,,,,,0,0,1,,,,,0,,,37,76
93148,note_on,,,,,12,0,1,,,,,0,,,49,89
93184,control_change,,,,,36,0,1,,,64,104,0,,,,
93188,note_off,,,,,0,0,1,,,,,0,,,37,0
93188,note_off,,,,,4,0,1,,,,,0,,,49,0
93196,control_change,,,,,8,0,1,,,64,127,0,,,,
93200,note_off,,,,,4,0,1,,,,,0,,,93,0
93204,note_off,,,,,4,0,1,,,,,0,,,89,0
93224,note_off,,,,,20,0,1,,,,,0,,,81,0
93304,note_on,,,,,80,0,1,,,,,0,,,71,87
93312,note_on,,,,,8,0,1,,,,,0,,,59,76
93364,note_off,,,,,52,0,1,,,,,0,,,71,0
93376,note_off,,,,,12,0,1,,,,,0,,,59,0
93416,note_on,,,,,40,0,1,,,,,0,,,77,83
93420,note_on,,,,,4,0,1,,,,,0,,,56,62
93484,note_off,,,,,64,0,1,,,,,0,,,77,0
93508,note_off,,,,,24,0,1,,,,,0,,,56,0
93532,note_on,,,,,24,0,1,,,,,0,,,68,76
93536,note_on,,,,,4,0,1,,,,,0,,,65,71
93580,note_off,,,,,44,0,1,,,,,0,,,68,0
93616,note_off,,,,,36,0,1,,,,,0,,,65,0
93656,note_on,,,,,40,0,1,,,,,0,,,59,68
93764,note_on,,,,,0,0,1,,,,,0,,,80,92
93764,note_on,,,,,108,0,1,,,,,0,,,92,113
93780,note_on,,,,,16,0,1,,,,,0,,,56,54
93800,note_off,,,,,20,0,1,,,,,0,,,59,0
93860,note_off,,,,,60,0,1,,,,,0,,,56,0
93912,note_off,,,,,52,0,1,,,,,0,,,92,0
93924,note_off,,,,,12,0,1,,,,,0,,,80,0
94004,note_on,,,,,80,0,1,,,,,0,,,92,115
94008,note_on,,,,,4,0,1,,,,,0,,,80,88
94016,note_on,,,,,8,0,1,,,,,0,,,88,70
94020,note_on,,,,,4,0,1,,,,,0,,,85,51
94036,note_off,,,,,16,0,1,,,,,0,,,88,0
94052,note_on,,,,,16,0,1,,,,,0,,,42,76
94068,note_on,,,,,16,0,1,,,,,0,,,88,48
94072,control_change,,,,,4,0,1,,,64,72,0,,,,
94084,control_change,,,,,12,0,1,,,64,0,0,,,,
94180,note_off,,,,,96,0,1,,,,,0,,,42,0
94184,control_change,,,,,4,0,1,,,64,127,0,,,,
94196,note_on,,,,,12,0,1,,,,,0,,,52,65
94304,note_off,,,,,108,0,1,,,,,0,,,52,0
94308,note_on,,,,,4,0,1,,,,,0,,,58,51
94336,note_off,,,,,28,0,1,,,,,0,,,58,0
94396,note_off,,,,,60,0,1,,,,,0,,,88,0
94424,note_on,,,,,28,0,1,,,,,0,,,58,62
94492,note_off,,,,,68,0,1,,,,,0,,,58,0
94516,note_off,,,,,24,0,1,,,,,0,,,92,0
94552,note_on,,,,,36,0,1,,,,,0,,,64,62
94584,note_off,,,,,0,0,1,,,,,0,,,85,0
94584,note_off,,,,,32,0,1,,,,,0,,,80,0
94628,note_off,,,,,44,0,1,,,,,0,,,64,0
94660,note_on,,,,,32,0,1,,,,,0,,,70,71
94712,note_off,,,,,52,0,1,,,,,0,,,70,0
94772,note_on,,,,,60,0,1,,,,,0,,,85,84
94776,note_on,,,,,4,0,1,,,,,0,,,73,78
94784,note_on,,,,,8,0,1,,,,,0,,,70,64
94884,note_off,,,,,100,0,1,,,,,0,,,70,0
94900,note_on,,,,,16,0,1,,,,,0,,,64,60
95028,note_off,,,,,128,0,1,,,,,0,,,64,0
95028,note_on,,,,,0,0,1,,,,,0,,,58,49
95076,note_off,,,,,48,0,1,,,,,0,,,58,0
95148,note_on,,,,,72,0,1,,,,,0,,,58,53
95236,note_off,,,,,88,0,1,,,,,0,,,58,0
95252,note_off,,,,,16,0,1,,,,,0,,,85,0
95272,note_on,,,,,20,0,1,,,,,0,,,52,66
95296,note_off,,,,,24,0,1,,,,,0,,,73,0
95376,note_off,,,,,80,0,1,,,,,0,,,52,0
95408,note_on,,,,,32,0,1,,,,,0,,,42,60
95412,note_on,,,,,4,0,1,,,,,0,,,73,83
95416,note_on,,,,,4,0,1,,,,,0,,,85,91
95468,note_off,,,,,52,0,1,,,,,0,,,42,0
95520,note_off,,,,,52,0,1,,,,,0,,,73,0
95524,note_off,,,,,4,0,1,,,,,0,,,85,0
95624,note_on,,,,,100,0,1,,,,,0,,,85,89
95632,note_on,,,,,8,0,1,,,,,0,,,73,76
95636,note_on,,,,,4,0,1,,,,,0,,,78,67
95640,note_on,,,,,4,0,1,,,,,0,,,81,65
95668,note_on,,,,,28,0,1,,,,,0,,,35,57
95684,control_change,,,,,16,0,1,,,64,56,0,,,,
95696,control_change,,,,,12,0,1,,,64,0,0,,,,
95764,control_change,,,,,68,0,1,,,64,104,0,,,,
95768,note_off,,,,,4,0,1,,,,,0,,,73,0
95772,note_off,,,,,4,0,1,,,,,0,,,85,0
95772,control_change,,,,,0,0,1,,,64,127,0,,,,
95800,note_on,,,,,28,0,1,,,,,0,,,47,58
95804,note_off,,,,,4,0,1,,,,,0,,,35,0
95836,note_off,,,,,32,0,1,,,,,0,,,47,0
95880,note_off,,,,,44,0,1,,,,,0,,,78,0
95880,note_off,,,,,0,0,1,,,,,0,,,81,0
95928,note_on,,,,,48,0,1,,,,,0,,,87,95
95936,note_on,,,,,8,0,1,,,,,0,,,75,89
95936,note_on,,,,,0,0,1,,,,,0,,,78,65
95940,note_on,,,,,4,0,1,,,,,0,,,83,74
95944,note_on,,,,,4,0,1,,,,,0,,,57,65
96000,note_off,,,,,56,0,1,,,,,0,,,78,0
96000,note_off,,,,,0,0,1,,,,,0,,,83,0
96024,note_off,,,,,24,0,1,,,,,0,,,75,0
96044,note_off,,,,,20,0,1,,,,,0,,,87,0
96052,note_on,,,,,8,0,1,,,,,0,,,57,62
96068,note_off,,,,,16,0,1,,,,,0,,,57,0
96140,note_off,,,,,72,0,1,,,,,0,,,57,0
96156,note_on,,,,,16,0,1,,,,,0,,,88,102
96156,note_on,,,,,0,0,1,,,,,0,,,61,59
96160,note_on,,,,,0,0,1,,,,,0,,,83,78
96160,note_on,,,,,0,0,1,,,,,0,,,81,77
96160,note_on,,,,,4,0,1,,,,,0,,,76,90
96236,note_off,,,,,76,0,1,,,,,0,,,76,0
96240,note_off,,,,,4,0,1,,,,,0,,,81,0
96256,note_off,,,,,16,0,1,,,,,0,,,88,0
96264,note_off,,,,,8,0,1,,,,,0,,,83,0
96280,note_on,,,,,16,0,1,,,,,0,,,64,66
96296,note_off,,,,,16,0,1,,,,,0,,,61,0
96328,note_off,,,,,32,0,1,,,,,0,,,64,0
96420,note_on,,,,,92,0,1,,,,,0,,,92,103
96420,note_on,,,,,0,0,1,,,,,0,,,80,92
96424,note_on,,,,,4,0,1,,,,,0,,,83,86
96428,note_on,,,,,4,0,1,,,,,0,,,87,76
96436,note_on,,,,,8,0,1,,,,,0,,,68,71
96504,control_change,,,,,68,0,1,,,64,72,0,,,,
96516,control_change,,,,,12,0,1,,,64,0,0,,,,
96560,note_on,,,,,44,0,1,,,,,0,,,63,58
96572,note_off,,,,,12,0,1,,,,,0,,,68,0
96584,control_change,,,,,12,0,1,,,64,127,0,,,,
96668,note_off,,,,,84,0,1,,,,,0,,,63,0
96672,note_on,,,,,4,0,1,,,,,0,,,59,56
96696,note_off,,,,,24,0,1,,,,,0,,,92,0
96756,note_off,,,,,60,0,1,,,,,0,,,80,0
96796,note_on,,,,,40,0,1,,,,,0,,,57,58
96812,note_off,,,,,16,0,1,,,,,0,,,59,0
96828,note_off,,,,,16,0,1,,,,,0,,,57,0
96880,note_off,,,,,52,0,1,,,,,0,,,87,0
96916,note_off,,,,,36,0,1,,,,,0,,,83,0
96920,note_on,,,,,4,0,1,,,,,0,,,90,83
96924,note_on,,,,,4,0,1,,,,,0,,,78,79
96928,note_on,,,,,4,0,1,,,,,0,,,51,67
97004,note_off,,,,,76,0,1,,,,,0,,,51,0
97008,note_off,,,,,4,0,1,,,,,0,,,78,0
97028,note_off,,,,,20,0,1,,,,,0,,,90,0
97064,note_on,,,,,36,0,1,,,,,0,,,47,51
97104,note_on,,,,,40,0,1,,,,,0,,,78,69
97160,note_on,,,,,0,0,1,,,,,0,,,80,70
97160,note_off,,,,,56,0,1,,,,,0,,,47,0
97188,note_on,,,,,28,0,1,,,,,0,,,83,76
97228,control_change,,,,,40,0,1,,,64,56,0,,,,
97236,control_change,,,,,8,0,1,,,64,0,0,,,,
97252,note_on,,,,,16,0,1,,,,,0,,,90,100
97256,note_on,,,,,4,0,1,,,,,0,,,40,59
97340,control_change,,,,,84,0,1,,,64,127,0,,,,
97376,note_off,,,,,36,0,1,,,,,0,,,90,0
97392,note_off,,,,,16,0,1,,,,,0,,,78,0
97392,note_on,,,,,0,0,1,,,,,0,,,47,53
97424,note_off,,,,,32,0,1,,,,,0,,,40,0
97488,note_off,,,,,64,0,1,,,,,0,,,47,0
97496,note_on,,,,,8,0,1,,,,,0,,,88,89
97504,note_on,,,,,8,0,1,,,,,0,,,76,76
97516,note_on,,,,,12,0,1,,,,,0,,,52,64
97520,note_off,,,,,4,0,1,,,,,0,,,83,0
97552,note_off,,,,,32,0,1,,,,,0,,,80,0
97576,note_off,,,,,24,0,1,,,,,0,,,88,0
97592,note_off,,,,,16,0,1,,,,,0,,,76,0
97596,note_off,,,,,4,0,1,,,,,0,,,52,0
97620,note_on,,,,,24,0,1,,,,,0,,,56,71
97664,note_off,,,,,44,0,1,,,,,0,,,56,0
97748,note_on,,,,,84,0,1,,,,,0,,,85,90
97752,note_on,,,,,4,0,1,,,,,0,,,58,47
97756,note_on,,,,,4,0,1,,,,,0,,,73,77
97760,note_on,,,,,4,0,1,,,,,0,,,76,75
97760,note_on,,,,,0,0,1,,,,,0,,,79,68
97792,control_change,,,,,32,0,1,,,64,56,0,,,,
97804,control_change,,,,,12,0,1,,,64,24,0,,,,
97816,control_change,,,,,12,0,1,,,64,40,0,,,,
97828,control_change,,,,,12,0,1,,,64,104,0,,,,
97840,control_change,,,,,12,0,1,,,64,127,0,,,,
97860,note_off,,,,,20,0,1,,,,,0,,,58,0
97884,note_on,,,,,24,0,1,,,,,0,,,64,59
97896,note_off,,,,,12,0,1,,,,,0,,,85,0
97908,note_off,,,,,12,0,1,,,,,0,,,73,0
97920,note_off,,,,,12,0,1,,,,,0,,,79,0
97924,note_off,,,,,4,0,1,,,,,0,,,76,0
97952,note_off,,,,,28,0,1,,,,,0,,,64,0
98032,note_on,,,,,80,0,1,,,,,0,,,83,82
98036,note_on,,,,,4,0,1,,,,,0,,,80,61
98040,note_on,,,,,4,0,1,,,,,0,,,71,60
98048,note_on,,,,,8,0,1,,,,,0,,,59,53
98048,note_on,,,,,0,0,1,,,,,0,,,76,59
98116,control_change,,,,,68,0,1,,,64,72,0,,,,
98124,note_off,,,,,8,0,1,,,,,0,,,59,0
98128,control_change,,,,,4,0,1,,,64,0,0,,,,
98152,note_on,,,,,24,0,1,,,,,0,,,68,56
98192,control_change,,,,,40,0,1,,,64,104,0,,,,
98204,control_change,,,,,12,0,1,,,64,127,0,,,,
98260,note_off,,,,,56,0,1,,,,,0,,,68,0
98272,note_off,,,,,12,0,1,,,,,0,,,83,0
98276,note_off,,,,,4,0,1,,,,,0,,,80,0
98280,note_on,,,,,4,0,1,,,,,0,,,64,53
98320,note_off,,,,,40,0,1,,,,,0,,,71,0
98408,note_on,,,,,0,0,1,,,,,0,,,59,59
98408,note_off,,,,,88,0,1,,,,,0,,,64,0
98456,note_off,,,,,48,0,1,,,,,0,,,59,0
98532,note_off,,,,,76,0,1,,,,,0,,,76,0
98540,note_on,,,,,0,0,1,,,,,0,,,71,82
98540,note_on,,,,,8,0,1,,,,,0,,,83,93
98544,note_on,,,,,4,0,1,,,,,0,,,56,62
98584,note_off,,,,,40,0,1,,,,,0,,,71,0
98612,note_off,,,,,28,0,1,,,,,0,,,83,0
98652,note_off,,,,,40,0,1,,,,,0,,,56,0
98660,note_on,,,,,8,0,1,,,,,0,,,47,63
98684,note_off,,,,,24,0,1,,,,,0,,,47,0
98824,control_change,,,,,140,0,1,,,64,104,0,,,,
98836,control_change,,,,,12,0,1,,,64,24,0,,,,
98848,control_change,,,,,0,0,1,,,64,0,0,,,,
98848,note_on,,,,,12,0,1,,,,,0,,,92,97
98856,note_on,,,,,8,0,1,,,,,0,,,80,84
98876,note_on,,,,,0,0,1,,,,,0,,,40,65
98876,note_on,,,,,20,0,1,,,,,0,,,52,72
98904,control_change,,,,,28,0,1,,,64,127,0,,,,
98920,note_off,,,,,16,0,1,,,,,0,,,92,0
98924,note_off,,,,,4,0,1,,,,,0,,,40,0
98936,note_off,,,,,12,0,1,,,,,0,,,80,0
98944,note_off,,,,,8,0,1,,,,,0,,,52,0
99024,note_on,,,,,80,0,1,,,,,0,,,71,77
99036,note_on,,,,,12,0,1,,,,,0,,,59,74
99092,note_off,,,,,56,0,1,,,,,0,,,59,0
99096,note_off,,,,,4,0,1,,,,,0,,,71,0
99140,note_on,,,,,44,0,1,,,,,0,,,76,82
99148,note_on,,,,,8,0,1,,,,,0,,,56,51
99204,note_off,,,,,56,0,1,,,,,0,,,76,0
99228,note_off,,,,,24,0,1,,,,,0,,,56,0
99248,note_on,,,,,20,0,1,,,,,0,,,68,73
99256,note_on,,,,,8,0,1,,,,,0,,,64,62
99324,note_off,,,,,68,0,1,,,,,0,,,68,0
99336,note_off,,,,,12,0,1,,,,,0,,,64,0
99352,note_on,,,,,16,0,1,,,,,0,,,71,69
99372,note_on,,,,,20,0,1,,,,,0,,,59,61
99448,note_off,,,,,76,0,1,,,,,0,,,59,0
99456,note_off,,,,,8,0,1,,,,,0,,,71,0
99456,note_on,,,,,0,0,1,,,,,0,,,76,70
99476,note_off,,,,,20,0,1,,,,,0,,,76,0
99612,control_change,,,,,136,0,1,,,64,40,0,,,,
99624,note_on,,,,,0,0,1,,,,,0,,,80,97
99624,note_on,,,,,12,0,1,,,,,0,,,92,105
99628,control_change,,,,,4,0,1,,,64,0,0,,,,
99632,note_on,,,,,4,0,1,,,,,0,,,39,73
99636,note_on,,,,,4,0,1,,,,,0,,,51,85
99672,note_off,,,,,36,0,1,,,,,0,,,92,0
99672,control_change,,,,,0,0,1,,,64,56,0,,,,
99676,note_off,,,,,4,0,1,,,,,0,,,39,0
99680,note_off,,,,,4,0,1,,,,,0,,,51,0
99684,control_change,,,,,4,0,1,,,64,127,0,,,,
99692,note_off,,,,,8,0,1,,,,,0,,,80,0
99776,note_on,,,,,84,0,1,,,,,0,,,58,36
99784,note_on,,,,,8,0,1,,,,,0,,,72,83
99792,note_on,,,,,0,0,1,,,,,0,,,60,74
99792,note_off,,,,,8,0,1,,,,,0,,,58,0
99832,note_off,,,,,40,0,1,,,,,0,,,72,0
99852,note_off,,,,,20,0,1,,,,,0,,,60,0
99868,note_on,,,,,16,0,1,,,,,0,,,78,72
99892,note_on,,,,,24,0,1,,,,,0,,,56,52
99940,note_off,,,,,48,0,1,,,,,0,,,78,0
99976,note_off,,,,,36,0,1,,,,,0,,,56,0
99988,note_on,,,,,12,0,1,,,,,0,,,68,71
99996,note_on,,,,,8,0,1,,,,,0,,,66,63
100056,note_off,,,,,60,0,1,,,,,0,,,66,0
100060,note_off,,,,,4,0,1,,,,,0,,,68,0
100092,note_on,,,,,32,0,1,,,,,0,,,72,79
100104,note_on,,,,,12,0,1,,,,,0,,,60,64
100192,note_off,,,,,88,0,1,,,,,0,,,60,0
100192,note_on,,,,,0,0,1,,,,,0,,,56,58
100200,note_off,,,,,8,0,1,,,,,0,,,72,0
100200,note_on,,,,,0,0,1,,,,,0,,,78,73
100216,note_off,,,,,16,0,1,,,,,0,,,56,0
100236,note_off,,,,,20,0,1,,,,,0,,,78,0
100360,control_change,,,,,124,0,1,,,64,56,0,,,,
100368,control_change,,,,,8,0,1,,,64,0,0,,,,
100376,note_on,,,,,8,0,1,,,,,0,,,92,102
100380,note_on,,,,,4,0,1,,,,,0,,,80,92
100384,note_on,,,,,4,0,1,,,,,0,,,38,77
100388,note_on,,,,,4,0,1,,,,,0,,,50,76
100428,control_change,,,,,0,0,1,,,64,127,0,,,,
100428,note_off,,,,,40,0,1,,,,,0,,,38,0
100432,note_off,,,,,4,0,1,,,,,0,,,92,0
100448,note_off,,,,,16,0,1,,,,,0,,,50,0
100452,note_off,,,,,4,0,1,,,,,0,,,80,0
100536,note_on,,,,,0,0,1,,,,,0,,,59,74
100536,note_on,,,,,84,0,1,,,,,0,,,71,80
100592,note_off,,,,,56,0,1,,,,,0,,,59,0
100600,note_off,,,,,8,0,1,,,,,0,,,71,0
100624,note_on,,,,,24,0,1,,,,,0,,,77,78
100640,note_on,,,,,16,0,1,,,,,0,,,56,49
100692,note_off,,,,,52,0,1,,,,,0,,,77,0
100716,note_off,,,,,24,0,1,,,,,0,,,56,0
100744,note_on,,,,,28,0,1,,,,,0,,,68,68
100748,note_on,,,,,4,0,1,,,,,0,,,65,60
100808,note_off,,,,,60,0,1,,,,,0,,,65,0
100812,note_off,,,,,4,0,1,,,,,0,,,68,0
100852,note_on,,,,,40,0,1,,,,,0,,,71,69
100876,note_on,,,,,24,0,1,,,,,0,,,59,59
100932,note_off,,,,,56,0,1,,,,,0,,,71,0
100940,note_off,,,,,8,0,1,,,,,0,,,59,0
100960,note_on,,,,,20,0,1,,,,,0,,,77,79
100972,note_on,,,,,12,0,1,,,,,0,,,56,52
100984,note_on,,,,,12,0,1,,,,,0,,,68,22
101024,note_off,,,,,40,0,1,,,,,0,,,68,0
101080,note_off,,,,,56,0,1,,,,,0,,,77,0
101100,note_on,,,,,20,0,1,,,,,0,,,80,79
101104,note_on,,,,,4,0,1,,,,,0,,,68,18
101108,note_on,,,,,4,0,1,,,,,0,,,49,77
101116,note_off,,,,,8,0,1,,,,,0,,,56,0
101136,control_change,,,,,20,0,1,,,64,88,0,,,,
101148,control_change,,,,,12,0,1,,,64,0,0,,,,
101180,control_change,,,,,32,0,1,,,64,40,0,,,,
101192,control_change,,,,,12,0,1,,,64,127,0,,,,
101196,note_off,,,,,4,0,1,,,,,0,,,68,0
101216,note_on,,,,,0,0,1,,,,,0,,,71,68
101216,note_off,,,,,20,0,1,,,,,0,,,49,0
101232,note_on,,,,,16,0,1,,,,,0,,,59,58
101260,note_off,,,,,28,0,1,,,,,0,,,80,0
101300,note_off,,,,,40,0,1,,,,,0,,,71,0
101304,note_off,,,,,4,0,1,,,,,0,,,59,0
101320,note_on,,,,,16,0,1,,,,,0,,,77,75
101332,note_on,,,,,12,0,1,,,,,0,,,56,54
101396,note_off,,,,,64,0,1,,,,,0,,,77,0
101420,note_off,,,,,24,0,1,,,,,0,,,56,0
101436,note_on,,,,,16,0,1,,,,,0,,,68,65
101448,note_on,,,,,12,0,1,,,,,0,,,65,56
101508,note_off,,,,,60,0,1,,,,,0,,,65,0
101528,note_off,,,,,20,0,1,,,,,0,,,68,0
101544,note_on,,,,,16,0,1,,,,,0,,,71,61
101572,note_on,,,,,28,0,1,,,,,0,,,59,41
101648,note_off,,,,,76,0,1,,,,,0,,,71,0
101648,note_on,,,,,0,0,1,,,,,0,,,56,61
101652,note_on,,,,,0,0,1,,,,,0,,,77,68
101652,note_off,,,,,4,0,1,,,,,0,,,59,0
101668,note_off,,,,,0,0,1,,,,,0,,,77,0
101668,note_off,,,,,16,0,1,,,,,0,,,56,0
101804,control_change,,,,,136,0,1,,,64,40,0,,,,
101812,control_change,,,,,8,0,1,,,64,0,0,,,,
101820,note_on,,,,,0,0,1,,,,,0,,,80,93
101820,note_on,,,,,8,0,1,,,,,0,,,92,106
101852,note_on,,,,,32,0,1,,,,,0,,,36,63
101868,control_change,,,,,16,0,1,,,64,104,0,,,,
101876,note_off,,,,,8,0,1,,,,,0,,,92,0
101880,control_change,,,,,4,0,1,,,64,127,0,,,,
101896,note_off,,,,,16,0,1,,,,,0,,,80,0
101908,note_off,,,,,12,0,1,,,,,0,,,36,0
101976,note_on,,,,,68,0,1,,,,,0,,,72,90
102004,note_on,,,,,28,0,1,,,,,0,,,60,82
102036,note_off,,,,,32,0,1,,,,,0,,,72,0
102052,note_off,,,,,16,0,1,,,,,0,,,60,0
102080,note_on,,,,,28,0,1,,,,,0,,,77,83
102148,note_off,,,,,68,0,1,,,,,0,,,77,0
102196,note_on,,,,,48,0,1,,,,,0,,,68,80
102200,note_on,,,,,4,0,1,,,,,0,,,65,70
102276,note_off,,,,,76,0,1,,,,,0,,,65,0
102288,note_off,,,,,12,0,1,,,,,0,,,68,0
102308,note_on,,,,,20,0,1,,,,,0,,,72,79
102320,note_on,,,,,12,0,1,,,,,0,,,60,68
102352,note_on,,,,,32,0,1,,,,,0,,,56,40
102376,note_off,,,,,24,0,1,,,,,0,,,60,0
102404,note_off,,,,,28,0,1,,,,,0,,,56,0
102408,note_off,,,,,4,0,1,,,,,0,,,72,0
102408,note_on,,,,,0,0,1,,,,,0,,,77,78
102436,note_off,,,,,28,0,1,,,,,0,,,77,0
102560,control_change,,,,,124,0,1,,,64,88,0,,,,
102568,control_change,,,,,8,0,1,,,64,0,0,,,,
102572,note_on,,,,,0,0,1,,,,,0,,,80,95
102572,note_on,,,,,4,0,1,,,,,0,,,92,110
102580,note_on,,,,,8,0,1,,,,,0,,,35,83
102584,note_on,,,,,4,0,1,,,,,0,,,47,89
102616,note_off,,,,,32,0,1,,,,,0,,,35,0
102624,control_change,,,,,8,0,1,,,64,72,0,,,,
102632,note_off,,,,,8,0,1,,,,,0,,,92,0
102636,control_change,,,,,4,0,1,,,64,127,0,,,,
102640,note_off,,,,,4,0,1,,,,,0,,,47,0
102648,note_off,,,,,8,0,1,,,,,0,,,80,0
102736,note_on,,,,,88,0,1,,,,,0,,,73,86
102744,note_on,,,,,8,0,1,,,,,0,,,61,69
102808,note_off,,,,,64,0,1,,,,,0,,,61,0
102816,note_off,,,,,8,0,1,,,,,0,,,73,0
102832,note_on,,,,,16,0,1,,,,,0,,,77,82
102840,note_on,,,,,8,0,1,,,,,0,,,56,65
102912,note_off,,,,,72,0,1,,,,,0,,,77,0
102932,note_off,,,,,20,0,1,,,,,0,,,56,0
102956,note_on,,,,,0,0,1,,,,,0,,,65,74
102956,note_on,,,,,24,0,1,,,,,0,,,68,79
103064,note_on,,,,,108,0,1,,,,,0,,,73,80
103080,note_on,,,,,16,0,1,,,,,0,,,61,71
103120,note_off,,,,,40,0,1,,,,,0,,,65,0
103196,note_on,,,,,76,0,1,,,,,0,,,77,87
103204,note_on,,,,,8,0,1,,,,,0,,,56,75
103212,note_off,,,,,8,0,1,,,,,0,,,73,0
103220,note_off,,,,,8,0,1,,,,,0,,,68,0
103224,note_off,,,,,4,0,1,,,,,0,,,61,0
103244,note_off,,,,,20,0,1,,,,,0,,,77,0
103248,note_off,,,,,4,0,1,,,,,0,,,56,0
103412,set_tempo,,,,,22172,1,0,,480000,,,,,,,
103448,note_on,,,,,0,0,1,,,,,0,,,80,89
103448,note_on,,,,,200,0,1,,,,,0,,,92,108
103456,note_on,,,,,8,0,1,,,,,0,,,86,92
103456,control_change,,,,,0,0,1,,,64,104,0,,,,
103464,note_on,,,,,8,0,1,,,,,0,,,46,87
103464,note_on,,,,,0,0,1,,,,,0,,,34,83
103468,control_change,,,,,4,0,1,,,64,0,0,,,,
103544,control_change,,,,,76,0,1,,,64,104,0,,,,
103556,control_change,,,,,12,0,1,,,64,127,0,,,,
103568,note_off,,,,,12,0,1,,,,,0,,,46,0
103572,note_off,,,,,4,0,1,,,,,0,,,34,0
103700,note_on,,,,,128,0,1,,,,,0,,,56,62
103772,note_off,,,,,72,0,1,,,,,0,,,80,0
103772,note_off,,,,,0,0,1,,,,,0,,,56,0
103800,note_off,,,,,28,0,1,,,,,0,,,92,0
103812,note_on,,,,,12,0,1,,,,,0,,,62,71
103900,note_off,,,,,88,0,1,,,,,0,,,62,0
103928,note_on,,,,,28,0,1,,,,,0,,,65,67
104004,note_off,,,,,76,0,1,,,,,0,,,65,0
104008,note_off,,,,,4,0,1,,,,,0,,,86,0
104032,note_on,,,,,24,0,1,,,,,0,,,91,96
104036,note_on,,,,,4,0,1,,,,,0,,,79,88
104044,note_on,,,,,8,0,1,,,,,0,,,62,64
104116,note_off,,,,,72,0,1,,,,,0,,,79,0
104120,note_off,,,,,4,0,1,,,,,0,,,91,0
104152,note_on,,,,,32,0,1,,,,,0,,,56,62
104164,note_off,,,,,12,0,1,,,,,0,,,62,0
104264,note_on,,,,,100,0,1,,,,,0,,,89,88
104268,note_off,,,,,4,0,1,,,,,0,,,56,0
104272,note_on,,,,,4,0,1,,,,,0,,,77,80
104288,note_on,,,,,16,0,1,,,,,0,,,53,74
104348,note_off,,,,,60,0,1,,,,,0,,,89,0
104368,note_off,,,,,20,0,1,,,,,0,,,77,0
104400,note_on,,,,,32,0,1,,,,,0,,,56,62
104404,note_off,,,,,4,0,1,,,,,0,,,53,0
104520,note_off,,,,,116,0,1,,,,,0,,,56,0
104520,note_on,,,,,0,0,1,,,,,0,,,79,92
104524,note_on,,,,,4,0,1,,,,,0,,,67,81
104532,note_on,,,,,8,0,1,,,,,0,,,62,66
104568,note_off,,,,,36,0,1,,,,,0,,,67,0
104600,note_off,,,,,32,0,1,,,,,0,,,79,0
104636,note_off,,,,,36,0,1,,,,,0,,,62,0
104644,note_on,,,,,8,0,1,,,,,0,,,65,72
104744,note_off,,,,,100,0,1,,,,,0,,,65,0
104752,note_on,,,,,8,0,1,,,,,0,,,80,93
104752,note_on,,,,,0,0,1,,,,,0,,,68,88
104772,note_on,,,,,20,0,1,,,,,0,,,62,63
104828,note_off,,,,,56,0,1,,,,,0,,,68,0
104872,note_on,,,,,44,0,1,,,,,0,,,56,72
104876,note_off,,,,,4,0,1,,,,,0,,,80,0
104880,note_off,,,,,4,0,1,,,,,0,,,62,0
104916,note_off,,,,,36,0,1,,,,,0,,,56,0
105052,note_on,,,,,0,0,1,,,,,0,,,80,74
105052,note_on,,,,,136,0,1,,,,,0,,,84,94
105056,note_on,,,,,4,0,1,,,,,0,,,72,84
105060,note_on,,,,,4,0,1,,,,,0,,,77,79
105092,note_on,,,,,32,0,1,,,,,0,,,39,76
105100,control_change,,,,,8,0,1,,,64,24,0,,,,
105112,control_change,,,,,12,0,1,,,64,0,0,,,,
105188,control_change,,,,,76,0,1,,,64,127,0,,,,
105208,note_on,,,,,20,0,1,,,,,0,,,49,61
105216,note_off,,,,,8,0,1,,,,,0,,,39,0
105308,note_off,,,,,92,0,1,,,,,0,,,49,0
105328,note_on,,,,,20,0,1,,,,,0,,,53,58
105432,note_on,,,,,104,0,1,,,,,0,,,56,60
105440,note_off,,,,,8,0,1,,,,,0,,,53,0
105508,note_off,,,,,68,0,1,,,,,0,,,72,0
105528,note_off,,,,,20,0,1,,,,,0,,,56,0
105536,note_on,,,,,8,0,1,,,,,0,,,58,55
105616,note_off,,,,,80,0,1,,,,,0,,,58,0
105640,note_off,,,,,24,0,1,,,,,0,,,84,0
105644,note_on,,,,,4,0,1,,,,,0,,,61,69
105712,note_off,,,,,0,0,1,,,,,0,,,77,0
105712,note_off,,,,,68,0,1,,,,,0,,,80,0
105764,note_off,,,,,52,0,1,,,,,0,,,61,0
105768,note_on,,,,,4,0,1,,,,,0,,,82,77
105768,note_on,,,,,0,0,1,,,,,0,,,70,70
105772,note_on,,,,,4,0,1,,,,,0,,,80,46
105776,note_on,,,,,4,0,1,,,,,0,,,65,57
105784,note_on,,,,,8,0,1,,,,,0,,,77,47
105872,note_off,,,,,88,0,1,,,,,0,,,65,0
105888,note_on,,,,,16,0,1,,,,,0,,,61,58
105892,note_off,,,,,4,0,1,,,,,0,,,70,0
105936,note_off,,,,,44,0,1,,,,,0,,,82,0
105940,note_off,,,,,4,0,1,,,,,0,,,77,0
105944,note_off,,,,,4,0,1,,,,,0,,,80,0
106000,note_on,,,,,56,0,1,,,,,0,,,58,42
106028,note_off,,,,,28,0,1,,,,,0,,,61,0
106108,note_on,,,,,80,0,1,,,,,0,,,56,55
106136,note_off,,,,,28,0,1,,,,,0,,,58,0
106160,note_off,,,,,24,0,1,,,,,0,,,56,0
106248,note_on,,,,,0,0,1,,,,,0,,,80,91
106248,note_on,,,,,88,0,1,,,,,0,,,92,102
106292,note_on,,,,,44,0,1,,,,,0,,,53,36
106352,note_on,,,,,60,0,1,,,,,0,,,49,72
106356,note_off,,,,,4,0,1,,,,,0,,,53,0
106388,note_off,,,,,32,0,1,,,,,0,,,49,0
106400,note_off,,,,,0,0,1,,,,,0,,,80,0
106400,note_off,,,,,12,0,1,,,,,0,,,92,0
106532,control_change,,,,,0,0,1,,,64,104,0,,,,
106532,note_on,,,,,132,0,1,,,,,0,,,92,108
106536,note_on,,,,,4,0,1,,,,,0,,,80,91
106544,control_change,,,,,0,0,1,,,64,0,0,,,,
106544,note_on,,,,,8,0,1,,,,,0,,,86,87
106560,note_on,,,,,16,0,1,,,,,0,,,34,79
106560,note_on,,,,,0,0,1,,,,,0,,,46,72
106600,note_off,,,,,40,0,1,,,,,0,,,34,0
106604,note_off,,,,,4,0,1,,,,,0,,,46,0
106612,control_change,,,,,8,0,1,,,64,88,0,,,,
106620,control_change,,,,,8,0,1,,,64,127,0,,,,
106720,note_on,,,,,100,0,1,,,,,0,,,56,60
106732,note_on,,,,,12,0,1,,,,,0,,,61,26
106752,note_off,,,,,20,0,1,,,,,0,,,61,0
106756,note_off,,,,,4,0,1,,,,,0,,,92,0
106756,note_off,,,,,0,0,1,,,,,0,,,80,0
106796,note_off,,,,,40,0,1,,,,,0,,,56,0
106828,note_on,,,,,32,0,1,,,,,0,,,62,77
106880,note_off,,,,,52,0,1,,,,,0,,,86,0
106924,note_on,,,,,0,0,1,,,,,0,,,79,92
106924,note_on,,,,,0,0,1,,,,,0,,,91,96
106924,note_off,,,,,44,0,1,,,,,0,,,62,0
106940,note_on,,,,,16,0,1,,,,,0,,,65,65
106968,note_off,,,,,28,0,1,,,,,0,,,79,0
106984,note_off,,,,,16,0,1,,,,,0,,,91,0
107036,note_on,,,,,52,0,1,,,,,0,,,94,91
107040,note_on,,,,,4,0,1,,,,,0,,,82,87
107048,note_on,,,,,0,0,1,,,,,0,,,62,66
107048,note_off,,,,,8,0,1,,,,,0,,,65,0
107076,note_off,,,,,28,0,1,,,,,0,,,82,0
107084,note_off,,,,,8,0,1,,,,,0,,,94,0
107128,note_on,,,,,44,0,1,,,,,0,,,92,102
107128,note_on,,,,,0,0,1,,,,,0,,,80,95
107144,note_on,,,,,16,0,1,,,,,0,,,56,60
107152,note_off,,,,,8,0,1,,,,,0,,,62,0
107180,note_off,,,,,28,0,1,,,,,0,,,80,0
107188,note_off,,,,,8,0,1,,,,,0,,,92,0
107216,note_on,,,,,0,0,1,,,,,0,,,79,97
107216,note_on,,,,,28,0,1,,,,,0,,,91,97
107252,note_off,,,,,36,0,1,,,,,0,,,79,0
107256,note_off,,,,,4,0,1,,,,,0,,,91,0
107316,note_on,,,,,0,0,1,,,,,0,,,77,100
107316,note_on,,,,,0,0,1,,,,,0,,,89,102
107316,note_off,,,,,60,0,1,,,,,0,,,56,0
107336,note_on,,,,,20,0,1,,,,,0,,,53,64
107352,note_off,,,,,16,0,1,,,,,0,,,77,0
107360,note_off,,,,,8,0,1,,,,,0,,,89,0
107404,note_off,,,,,44,0,1,,,,,0,,,53,0
107432,note_on,,,,,28,0,1,,,,,0,,,56,63
107548,note_off,,,,,116,0,1,,,,,0,,,56,0
107556,note_on,,,,,8,0,1,,,,,0,,,79,89
107560,note_on,,,,,4,0,1,,,,,0,,,67,82
107564,note_on,,,,,4,0,1,,,,,0,,,62,62
107608,note_off,,,,,44,0,1,,,,,0,,,67,0
107628,note_off,,,,,20,0,1,,,,,0,,,79,0
107660,note_off,,,,,32,0,1,,,,,0,,,62,0
107672,note_on,,,,,12,0,1,,,,,0,,,65,71
107768,note_on,,,,,0,0,1,,,,,0,,,68,89
107768,note_on,,,,,96,0,1,,,,,0,,,80,93
107792,note_off,,,,,24,0,1,,,,,0,,,65,0
107792,note_on,,,,,0,0,1,,,,,0,,,62,59
107836,note_off,,,,,44,0,1,,,,,0,,,68,0
107888,note_on,,,,,52,0,1,,,,,0,,,56,69
107900,note_off,,,,,0,0,1,,,,,0,,,62,0
107900,note_off,,,,,12,0,1,,,,,0,,,80,0
107932,note_off,,,,,32,0,1,,,,,0,,,56,0
108060,note_on,,,,,0,0,1,,,,,0,,,80,70
108060,note_on,,,,,128,0,1,,,,,0,,,84,90
108064,note_on,,,,,4,0,1,,,,,0,,,72,78
108072,note_on,,,,,8,0,1,,,,,0,,,77,74
108120,control_change,,,,,48,0,1,,,64,56,0,,,,
108128,control_change,,,,,8,0,1,,,64,0,0,,,,
108136,note_on,,,,,8,0,1,,,,,0,,,39,68
108208,control_change,,,,,72,0,1,,,64,88,0,,,,
108220,control_change,,,,,12,0,1,,,64,127,0,,,,
108236,note_on,,,,,16,0,1,,,,,0,,,49,62
108244,note_off,,,,,8,0,1,,,,,0,,,39,0
108324,note_off,,,,,80,0,1,,,,,0,,,49,0
108348,note_on,,,,,24,0,1,,,,,0,,,53,59
108396,note_off,,,,,48,0,1,,,,,0,,,72,0
108444,note_on,,,,,48,0,1,,,,,0,,,56,68
108468,note_off,,,,,24,0,1,,,,,0,,,53,0
108544,note_off,,,,,76,0,1,,,,,0,,,56,0
108552,note_on,,,,,8,0,1,,,,,0,,,58,55
108620,note_off,,,,,68,0,1,,,,,0,,,84,0
108624,note_off,,,,,4,0,1,,,,,0,,,58,0
108644,note_off,,,,,20,0,1,,,,,0,,,80,0
108644,note_on,,,,,0,0,1,,,,,0,,,61,61
108676,note_off,,,,,32,0,1,,,,,0,,,77,0
108732,note_on,,,,,56,0,1,,,,,0,,,82,76
108736,note_on,,,,,4,0,1,,,,,0,,,70,69
108740,note_on,,,,,4,0,1,,,,,0,,,80,68
108748,note_on,,,,,8,0,1,,,,,0,,,77,49
108752,note_off,,,,,4,0,1,,,,,0,,,61,0
108764,note_on,,,,,12,0,1,,,,,0,,,65,56
108780,note_off,,,,,16,0,1,,,,,0,,,77,0
108796,note_off,,,,,16,0,1,,,,,0,,,70,0
108844,note_off,,,,,48,0,1,,,,,0,,,80,0
108864,note_on,,,,,20,0,1,,,,,0,,,61,58
108868,note_off,,,,,4,0,1,,,,,0,,,82,0
108872,note_off,,,,,4,0,1,,,,,0,,,65,0
108968,note_on,,,,,96,0,1,,,,,0,,,58,58
108992,note_off,,,,,24,0,1,,,,,0,,,61,0
109076,note_on,,,,,84,0,1,,,,,0,,,56,61
109104,note_off,,,,,28,0,1,,,,,0,,,58,0
109128,note_off,,,,,24,0,1,,,,,0,,,56,0
109196,note_on,,,,,0,0,1,,,,,0,,,80,91
109196,note_on,,,,,68,0,1,,,,,0,,,92,100
109212,note_on,,,,,16,0,1,,,,,0,,,53,56
109288,note_on,,,,,76,0,1,,,,,0,,,49,74
109292,note_off,,,,,4,0,1,,,,,0,,,53,0
109312,note_off,,,,,20,0,1,,,,,0,,,92,0
109320,note_off,,,,,8,0,1,,,,,0,,,49,0
109328,note_off,,,,,8,0,1,,,,,0,,,80,0
109444,control_change,,,,,116,0,1,,,64,40,0,,,,
109452,control_change,,,,,8,0,1,,,64,0,0,,,,
109456,note_on,,,,,0,0,1,,,,,0,,,92,103
109456,note_on,,,,,4,0,1,,,,,0,,,80,85
109468,note_on,,,,,12,0,1,,,,,0,,,86,87
109476,note_on,,,,,8,0,1,,,,,0,,,35,76
109484,note_on,,,,,8,0,1,,,,,0,,,47,70
109508,control_change,,,,,24,0,1,,,64,56,0,,,,
109520,control_change,,,,,12,0,1,,,64,127,0,,,,
109524,note_off,,,,,4,0,1,,,,,0,,,47,0
109536,note_off,,,,,12,0,1,,,,,0,,,35,0
109604,note_on,,,,,68,0,1,,,,,0,,,53,80
109652,note_off,,,,,48,0,1,,,,,0,,,80,0
109672,note_off,,,,,20,0,1,,,,,0,,,92,0
109688,note_off,,,,,16,0,1,,,,,0,,,53,0
109712,note_on,,,,,24,0,1,,,,,0,,,56,65
109796,note_off,,,,,84,0,1,,,,,0,,,86,0
109804,note_off,,,,,8,0,1,,,,,0,,,56,0
109820,note_on,,,,,16,0,1,,,,,0,,,91,94
109824,note_on,,,,,4,0,1,,,,,0,,,79,88
109828,note_on,,,,,4,0,1,,,,,0,,,62,77
109860,note_off,,,,,32,0,1,,,,,0,,,79,0
109884,note_off,,,,,24,0,1,,,,,0,,,91,0
109916,note_off,,,,,32,0,1,,,,,0,,,62,0
109932,note_on,,,,,16,0,1,,,,,0,,,56,61
109940,note_on,,,,,0,0,1,,,,,0,,,82,89
109940,note_on,,,,,8,0,1,,,,,0,,,94,92
109980,note_off,,,,,40,0,1,,,,,0,,,82,0
110000,note_off,,,,,20,0,1,,,,,0,,,94,0
110052,note_on,,,,,52,0,1,,,,,0,,,53,74
110056,note_on,,,,,0,0,1,,,,,0,,,92,95
110056,note_on,,,,,4,0,1,,,,,0,,,80,95
110064,note_off,,,,,8,0,1,,,,,0,,,56,0
110068,note_off,,,,,4,0,1,,,,,0,,,53,0
110100,note_off,,,,,32,0,1,,,,,0,,,80,0
110120,note_off,,,,,20,0,1,,,,,0,,,92,0
110208,control_change,,,,,88,0,1,,,64,40,0,,,,
110212,note_on,,,,,4,0,1,,,,,0,,,95,109
110212,note_on,,,,,0,0,1,,,,,0,,,83,89
110216,control_change,,,,,4,0,1,,,64,0,0,,,,
110232,note_on,,,,,0,0,1,,,,,0,,,46,83
110232,note_on,,,,,16,0,1,,,,,0,,,34,80
110264,control_change,,,,,32,0,1,,,64,127,0,,,,
110292,note_off,,,,,28,0,1,,,,,0,,,83,0
110292,note_off,,,,,0,0,1,,,,,0,,,34,0
110308,note_off,,,,,16,0,1,,,,,0,,,46,0
110324,note_off,,,,,16,0,1,,,,,0,,,95,0
110368,note_on,,,,,0,0,1,,,,,0,,,82,78
110368,note_on,,,,,44,0,1,,,,,0,,,94,93
110384,note_on,,,,,16,0,1,,,,,0,,,53,74
110408,note_off,,,,,24,0,1,,,,,0,,,82,0
110432,note_off,,,,,24,0,1,,,,,0,,,94,0
110456,note_off,,,,,24,0,1,,,,,0,,,53,0
110492,note_on,,,,,36,0,1,,,,,0,,,56,61
110516,note_on,,,,,24,0,1,,,,,0,,,103,107
110516,note_on,,,,,0,0,1,,,,,0,,,91,93
110556,note_off,,,,,40,0,1,,,,,0,,,91,0
110588,note_on,,,,,32,0,1,,,,,0,,,91,27
110672,note_on,,,,,84,0,1,,,,,0,,,62,67
110692,note_off,,,,,20,0,1,,,,,0,,,56,0
110740,note_off,,,,,48,0,1,,,,,0,,,103,0
110772,note_off,,,,,32,0,1,,,,,0,,,62,0
110776,note_off,,,,,4,0,1,,,,,0,,,91,0
110788,note_on,,,,,12,0,1,,,,,0,,,56,68
110896,note_off,,,,,108,0,1,,,,,0,,,56,0
110904,note_on,,,,,0,0,1,,,,,0,,,89,99
110904,note_on,,,,,8,0,1,,,,,0,,,101,99
110912,note_on,,,,,8,0,1,,,,,0,,,53,56
110964,note_off,,,,,52,0,1,,,,,0,,,89,0
110968,note_off,,,,,4,0,1,,,,,0,,,53,0
110976,note_off,,,,,8,0,1,,,,,0,,,101,0
111068,note_on,,,,,92,0,1,,,,,0,,,99,93
111072,note_on,,,,,4,0,1,,,,,0,,,87,95
111148,note_off,,,,,76,0,1,,,,,0,,,87,0
111152,note_off,,,,,4,0,1,,,,,0,,,99,0
111208,note_on,,,,,56,0,1,,,,,0,,,98,94
111212,note_on,,,,,4,0,1,,,,,0,,,86,84
111252,note_off,,,,,40,0,1,,,,,0,,,86,0
111256,note_off,,,,,4,0,1,,,,,0,,,98,0
111324,note_on,,,,,68,0,1,,,,,0,,,96,93
111328,note_on,,,,,4,0,1,,,,,0,,,84,87
111364,note_off,,,,,36,0,1,,,,,0,,,96,0
111368,note_off,,,,,4,0,1,,,,,0,,,84,0
111432,note_on,,,,,64,0,1,,,,,0,,,94,84
111436,note_on,,,,,4,0,1,,,,,0,,,82,84
111472,note_off,,,,,36,0,1,,,,,0,,,82,0
111476,note_off,,,,,4,0,1,,,,,0,,,94,0
111528,note_on,,,,,52,0,1,,,,,0,,,92,93
111528,note_on,,,,,0,0,1,,,,,0,,,80,86
111580,note_off,,,,,52,0,1,,,,,0,,,80,0
111592,note_off,,,,,12,0,1,,,,,0,,,92,0
111632,note_on,,,,,40,0,1,,,,,0,,,91,93
111636,note_on,,,,,4,0,1,,,,,0,,,79,88
111676,note_off,,,,,40,0,1,,,,,0,,,79,0
111680,note_off,,,,,4,0,1,,,,,0,,,91,0
111748,note_on,,,,,68,0,1,,,,,0,,,89,97
111748,note_on,,,,,0,0,1,,,,,0,,,77,94
111788,note_off,,,,,40,0,1,,,,,0,,,77,0
111796,note_off,,,,,8,0,1,,,,,0,,,89,0
112024,note_on,,,,,228,0,1,,,,,0,,,79,82
112036,note_on,,,,,12,0,1,,,,,0,,,67,67
112128,note_off,,,,,92,0,1,,,,,0,,,67,0
112268,note_off,,,,,140,0,1,,,,,0,,,79,0
112368,note_on,,,,,100,0,1,,,,,0,,,80,85
112372,note_on,,,,,4,0,1,,,,,0,,,68,70
112424,note_off,,,,,52,0,1,,,,,0,,,68,0
112480,note_off,,,,,56,0,1,,,,,0,,,80,0
112668,set_tempo,,,,,9256,1,0,,444444,,,,,,,
112672,note_on,,,,,192,0,1,,,,,0,,,84,85
112676,note_on,,,,,0,0,1,,,,,0,,,80,58
112676,note_on,,,,,4,0,1,,,,,0,,,72,71
112684,note_on,,,,,8,0,1,,,,,0,,,77,68
112720,note_on,,,,,36,0,1,,,,,0,,,39,43
112728,control_change,,,,,8,0,1,,,64,56,0,,,,
112740,control_change,,,,,12,0,1,,,64,0,0,,,,
112808,control_change,,,,,68,0,1,,,64,72,0,,,,
112820,control_change,,,,,12,0,1,,,64,127,0,,,,
112836,note_on,,,,,0,0,1,,,,,0,,,49,58
112836,note_off,,,,,16,0,1,,,,,0,,,39,0
112932,note_off,,,,,96,0,1,,,,,0,,,49,0
112960,note_on,,,,,28,0,1,,,,,0,,,53,44
112964,note_off,,,,,4,0,1,,,,,0,,,72,0
113048,note_off,,,,,84,0,1,,,,,0,,,84,0
113064,note_on,,,,,16,0,1,,,,,0,,,56,54
113080,note_off,,,,,16,0,1,,,,,0,,,53,0
113124,note_off,,,,,44,0,1,,,,,0,,,77,0
113132,note_off,,,,,8,0,1,,,,,0,,,80,0
113148,note_off,,,,,16,0,1,,,,,0,,,56,0
113160,note_on,,,,,12,0,1,,,,,0,,,82,73
113164,note_on,,,,,4,0,1,,,,,0,,,70,62
113168,note_on,,,,,4,0,1,,,,,0,,,58,57
113180,note_on,,,,,12,0,1,,,,,0,,,80,46
113200,note_off,,,,,20,0,1,,,,,0,,,80,0
113212,note_off,,,,,12,0,1,,,,,0,,,70,0
113240,note_off,,,,,28,0,1,,,,,0,,,58,0
113248,note_off,,,,,8,0,1,,,,,0,,,82,0
113272,note_on,,,,,24,0,1,,,,,0,,,61,56
113380,note_off,,,,,108,0,1,,,,,0,,,61,0
113384,note_on,,,,,4,0,1,,,,,0,,,87,95
113388,note_on,,,,,4,0,1,,,,,0,,,75,87
113388,note_on,,,,,0,0,1,,,,,0,,,80,80
113388,note_on,,,,,0,0,1,,,,,0,,,77,82
113392,note_on,,,,,4,0,1,,,,,0,,,65,72
113396,note_on,,,,,4,0,1,,,,,0,,,82,63
113488,note_off,,,,,92,0,1,,,,,0,,,65,0
113512,note_on,,,,,24,0,1,,,,,0,,,61,57
113520,note_off,,,,,8,0,1,,,,,0,,,82,0
113540,note_off,,,,,20,0,1,,,,,0,,,87,0
113564,note_off,,,,,24,0,1,,,,,0,,,75,0
113612,note_on,,,,,48,0,1,,,,,0,,,58,53
113636,note_off,,,,,24,0,1,,,,,0,,,61,0
113692,note_off,,,,,56,0,1,,,,,0,,,80,0
113700,note_on,,,,,8,0,1,,,,,0,,,56,57
113720,note_off,,,,,20,0,1,,,,,0,,,58,0
113776,note_off,,,,,56,0,1,,,,,0,,,56,0
113808,note_off,,,,,32,0,1,,,,,0,,,77,0
113832,note_on,,,,,24,0,1,,,,,0,,,73,80
113832,note_on,,,,,0,0,1,,,,,0,,,85,88
113844,note_on,,,,,12,0,1,,,,,0,,,53,66
113876,note_off,,,,,32,0,1,,,,,0,,,73,0
113900,note_off,,,,,24,0,1,,,,,0,,,85,0
113944,note_on,,,,,0,0,1,,,,,0,,,49,72
113944,note_off,,,,,44,0,1,,,,,0,,,53,0
114068,note_on,,,,,124,0,1,,,,,0,,,91,105
114072,note_on,,,,,0,0,1,,,,,0,,,85,82
114072,note_on,,,,,0,0,1,,,,,0,,,82,81
114072,note_on,,,,,4,0,1,,,,,0,,,79,97
114084,note_off,,,,,12,0,1,,,,,0,,,49,0
114096,control_change,,,,,0,0,1,,,64,56,0,,,,
114096,note_on,,,,,12,0,1,,,,,0,,,39,62
114108,control_change,,,,,12,0,1,,,64,0,0,,,,
114172,control_change,,,,,64,0,1,,,64,127,0,,,,
114200,note_on,,,,,28,0,1,,,,,0,,,49,81
114204,note_off,,,,,4,0,1,,,,,0,,,39,0
114220,note_off,,,,,16,0,1,,,,,0,,,91,0
114264,note_off,,,,,44,0,1,,,,,0,,,79,0
114288,note_off,,,,,24,0,1,,,,,0,,,49,0
114308,note_on,,,,,20,0,1,,,,,0,,,53,60
114396,note_off,,,,,88,0,1,,,,,0,,,85,0
114400,note_on,,,,,4,0,1,,,,,0,,,56,71
114420,note_off,,,,,20,0,1,,,,,0,,,53,0
114500,note_on,,,,,80,0,1,,,,,0,,,58,67
114512,note_off,,,,,12,0,1,,,,,0,,,56,0
114520,note_on,,,,,0,0,1,,,,,0,,,77,92
114520,note_on,,,,,8,0,1,,,,,0,,,89,97
114536,note_on,,,,,16,0,1,,,,,0,,,85,45
114548,note_off,,,,,12,0,1,,,,,0,,,82,0
114564,note_off,,,,,16,0,1,,,,,0,,,77,0
114576,note_off,,,,,12,0,1,,,,,0,,,85,0
114592,note_off,,,,,16,0,1,,,,,0,,,58,0
114592,note_off,,,,,0,0,1,,,,,0,,,89,0
114628,note_on,,,,,36,0,1,,,,,0,,,61,64
114660,note_off,,,,,32,0,1,,,,,0,,,61,0
114744,note_on,,,,,84,0,1,,,,,0,,,96,110
114748,note_on,,,,,0,0,1,,,,,0,,,92,89
114748,note_on,,,,,4,0,1,,,,,0,,,84,103
114752,note_on,,,,,4,0,1,,,,,0,,,89,92
114760,note_on,,,,,8,0,1,,,,,0,,,68,62
114848,note_off,,,,,88,0,1,,,,,0,,,68,0
114860,note_on,,,,,12,0,1,,,,,0,,,65,78
114944,note_off,,,,,84,0,1,,,,,0,,,84,0
114964,note_on,,,,,20,0,1,,,,,0,,,61,69
114972,note_off,,,,,8,0,1,,,,,0,,,65,0
115024,note_off,,,,,52,0,1,,,,,0,,,96,0
115068,note_on,,,,,44,0,1,,,,,0,,,56,65
115076,note_off,,,,,8,0,1,,,,,0,,,89,0
115092,note_off,,,,,16,0,1,,,,,0,,,61,0
115096,note_off,,,,,4,0,1,,,,,0,,,92,0
115120,note_off,,,,,24,0,1,,,,,0,,,56,0
115184,note_on,,,,,64,0,1,,,,,0,,,94,93
115188,note_on,,,,,4,0,1,,,,,0,,,82,91
115204,note_on,,,,,16,0,1,,,,,0,,,53,74
115252,note_off,,,,,48,0,1,,,,,0,,,82,0
115288,note_off,,,,,36,0,1,,,,,0,,,94,0
115304,note_on,,,,,16,0,1,,,,,0,,,49,85
115312,note_off,,,,,8,0,1,,,,,0,,,53,0
115336,note_off,,,,,24,0,1,,,,,0,,,49,0
115528,note_on,,,,,192,0,1,,,,,0,,,101,109
115536,note_on,,,,,0,0,1,,,,,0,,,91,89
115536,note_on,,,,,8,0,1,,,,,0,,,89,92
115536,note_on,,,,,0,0,1,,,,,0,,,97,79
115536,note_on,,,,,0,0,1,,,,,0,,,94,81
115544,note_on,,,,,0,0,1,,,,,0,,,39,102
115544,note_on,,,,,8,0,1,,,,,0,,,27,92
115560,control_change,,,,,16,0,1,,,64,24,0,,,,
115572,control_change,,,,,12,0,1,,,64,0,0,,,,
115640,control_change,,,,,68,0,1,,,64,127,0,,,,
115644,note_off,,,,,4,0,1,,,,,0,,,27,0
115648,note_off,,,,,4,0,1,,,,,0,,,39,0
115768,note_on,,,,,120,0,1,,,,,0,,,46,69
115852,note_off,,,,,84,0,1,,,,,0,,,46,0
115864,note_on,,,,,12,0,1,,,,,0,,,49,67
115964,note_off,,,,,100,0,1,,,,,0,,,49,0
115984,note_on,,,,,20,0,1,,,,,0,,,55,66
116088,note_off,,,,,104,0,1,,,,,0,,,55,0
116088,note_on,,,,,0,0,1,,,,,0,,,58,70
116164,note_off,,,,,76,0,1,,,,,0,,,58,0
116188,note_on,,,,,24,0,1,,,,,0,,,61,65
116284,note_off,,,,,96,0,1,,,,,0,,,61,0
116308,note_on,,,,,24,0,1,,,,,0,,,67,69
116416,note_on,,,,,108,0,1,,,,,0,,,70,77
116420,note_off,,,,,4,0,1,,,,,0,,,67,0
116484,note_off,,,,,64,0,1,,,,,0,,,70,0
116520,note_on,,,,,36,0,1,,,,,0,,,73,73
116536,note_off,,,,,16,0,1,,,,,0,,,97,0
116540,note_off,,,,,4,0,1,,,,,0,,,89,0
116612,note_off,,,,,72,0,1,,,,,0,,,94,0
116616,note_off,,,,,4,0,1,,,,,0,,,73,0
116640,note_on,,,,,24,0,1,,,,,0,,,79,78
116672,note_off,,,,,32,0,1,,,,,0,,,91,0
116752,note_on,,,,,80,0,1,,,,,0,,,82,81
116776,note_off,,,,,24,0,1,,,,,0,,,79,0
116840,note_off,,,,,64,0,1,,,,,0,,,82,0
116868,note_on,,,,,28,0,1,,,,,0,,,85,84
116916,note_off,,,,,48,0,1,,,,,0,,,85,0
117008,note_off,,,,,92,0,1,,,,,0,,,101,0
117048,note_on,,,,,40,0,1,,,,,0,,,100,94
117056,note_on,,,,,8,0,1,,,,,0,,,91,49
117140,note_off,,,,,84,0,1,,,,,0,,,91,0
117156,note_off,,,,,16,0,1,,,,,0,,,100,0
117180,note_on,,,,,24,0,1,,,,,0,,,94,68
117188,note_on,,,,,8,0,1,,,,,0,,,96,87
117240,note_off,,,,,52,0,1,,,,,0,,,94,0
117260,note_off,,,,,20,0,1,,,,,0,,,96,0
117280,note_on,,,,,20,0,1,,,,,0,,,99,78
117288,note_on,,,,,8,0,1,,,,,0,,,90,50
117348,note_off,,,,,60,0,1,,,,,0,,,99,0
117352,note_off,,,,,4,0,1,,,,,0,,,90,0
117372,note_on,,,,,20,0,1,,,,,0,,,95,74
117388,note_on,,,,,16,0,1,,,,,0,,,93,54
117412,note_off,,,,,24,0,1,,,,,0,,,93,0
117440,note_off,,,,,28,0,1,,,,,0,,,95,0
117468,note_on,,,,,28,0,1,,,,,0,,,98,73
117472,note_on,,,,,4,0,1,,,,,0,,,89,60
117532,note_off,,,,,60,0,1,,,,,0,,,89,0
117540,note_off,,,,,8,0,1,,,,,0,,,98,0
117548,note_on,,,,,8,0,1,,,,,0,,,94,69
117556,note_on,,,,,8,0,1,,,,,0,,,92,55
117624,note_off,,,,,68,0,1,,,,,0,,,92,0
117628,note_off,,,,,4,0,1,,,,,0,,,94,0
117648,note_on,,,,,20,0,1,,,,,0,,,97,73
117660,note_on,,,,,12,0,1,,,,,0,,,88,55
117708,note_off,,,,,48,0,1,,,,,0,,,88,0
117716,note_off,,,,,8,0,1,,,,,0,,,97,0
117736,note_on,,,,,20,0,1,,,,,0,,,93,71
117748,note_on,,,,,12,0,1,,,,,0,,,91,61
117792,note_off,,,,,44,0,1,,,,,0,,,91,0
117804,note_off,,,,,12,0,1,,,,,0,,,93,0
117824,note_on,,,,,20,0,1,,,,,0,,,96,76
117836,note_on,,,,,12,0,1,,,,,0,,,87,43
117892,note_off,,,,,56,0,1,,,,,0,,,87,0
117908,note_off,,,,,16,0,1,,,,,0,,,96,0
117908,note_on,,,,,0,0,1,,,,,0,,,90,52
117912,note_on,,,,,4,0,1,,,,,0,,,92,78
117976,note_off,,,,,64,0,1,,,,,0,,,90,0
117980,note_off,,,,,4,0,1,,,,,0,,,92,0
118008,note_on,,,,,28,0,1,,,,,0,,,95,81
118012,note_on,,,,,4,0,1,,,,,0,,,86,55
118060,note_off,,,,,48,0,1,,,,,0,,,86,0
118064,note_off,,,,,4,0,1,,,,,0,,,95,0
118080,note_on,,,,,16,0,1,,,,,0,,,91,68
118096,note_on,,,,,16,0,1,,,,,0,,,89,61
118140,note_off,,,,,44,0,1,,,,,0,,,89,0
118152,note_off,,,,,12,0,1,,,,,0,,,91,0
118168,note_on,,,,,16,0,1,,,,,0,,,94,70
118180,note_on,,,,,12,0,1,,,,,0,,,85,55
118236,note_off,,,,,56,0,1,,,,,0,,,85,0
118240,note_off,,,,,4,0,1,,,,,0,,,94,0
118260,note_on,,,,,20,0,1,,,,,0,,,90,67
118264,note_on,,,,,4,0,1,,,,,0,,,88,49
118320,note_off,,,,,56,0,1,,,,,0,,,88,0
118324,note_off,,,,,4,0,1,,,,,0,,,90,0
118340,note_on,,,,,16,0,1,,,,,0,,,93,79
118364,note_on,,,,,24,0,1,,,,,0,,,84,56
118388,note_off,,,,,24,0,1,,,,,0,,,84,0
118428,note_off,,,,,40,0,1,,,,,0,,,93,0
118432,note_on,,,,,4,0,1,,,,,0,,,89,67
118432,note_on,,,,,0,0,1,,,,,0,,,87,56
118492,note_off,,,,,60,0,1,,,,,0,,,87,0
118508,note_off,,,,,16,0,1,,,,,0,,,89,0
118516,note_on,,,,,8,0,1,,,,,0,,,92,71
118536,note_on,,,,,20,0,1,,,,,0,,,83,45
118580,note_off,,,,,44,0,1,,,,,0,,,83,0
118588,note_off,,,,,8,0,1,,,,,0,,,92,0
118596,note_on,,,,,8,0,1,,,,,0,,,88,63
118608,note_on,,,,,12,0,1,,,,,0,,,86,52
118640,note_off,,,,,32,0,1,,,,,0,,,86,0
118664,note_off,,,,,24,0,1,,,,,0,,,88,0
118680,note_on,,,,,16,0,1,,,,,0,,,91,74
118692,note_on,,,,,12,0,1,,,,,0,,,82,40
118744,note_off,,,,,52,0,1,,,,,0,,,82,0
118756,note_on,,,,,12,0,1,,,,,0,,,85,55
118760,note_off,,,,,4,0,1,,,,,0,,,91,0
118764,note_on,,,,,4,0,1,,,,,0,,,87,71
118824,note_off,,,,,60,0,1,,,,,0,,,85,0
118836,note_off,,,,,12,0,1,,,,,0,,,87,0
118852,note_on,,,,,16,0,1,,,,,0,,,90,68
118852,note_on,,,,,0,0,1,,,,,0,,,81,45
118900,note_off,,,,,48,0,1,,,,,0,,,81,0
118916,note_off,,,,,16,0,1,,,,,0,,,90,0
118924,note_on,,,,,8,0,1,,,,,0,,,86,60
118932,note_on,,,,,8,0,1,,,,,0,,,84,54
118976,note_off,,,,,44,0,1,,,,,0,,,84,0
118992,note_off,,,,,16,0,1,,,,,0,,,86,0
119012,note_on,,,,,20,0,1,,,,,0,,,89,79
119024,note_on,,,,,12,0,1,,,,,0,,,80,49
119088,note_off,,,,,64,0,1,,,,,0,,,80,0
119096,note_on,,,,,8,0,1,,,,,0,,,85,74
119108,note_on,,,,,12,0,1,,,,,0,,,83,57
119112,note_off,,,,,4,0,1,,,,,0,,,89,0
119164,note_off,,,,,52,0,1,,,,,0,,,83,0
119168,note_off,,,,,4,0,1,,,,,0,,,85,0
119188,note_on,,,,,20,0,1,,,,,0,,,88,75
119200,note_on,,,,,12,0,1,,,,,0,,,79,42
119232,note_off,,,,,32,0,1,,,,,0,,,79,0
119252,note_off,,,,,20,0,1,,,,,0,,,88,0
119260,note_on,,,,,8,0,1,,,,,0,,,84,74
119264,note_on,,,,,4,0,1,,,,,0,,,82,45
119324,note_off,,,,,60,0,1,,,,,0,,,82,0
119336,note_off,,,,,12,0,1,,,,,0,,,84,0
119348,note_on,,,,,12,0,1,,,,,0,,,87,71
119352,note_on,,,,,4,0,1,,,,,0,,,78,43
119408,note_off,,,,,56,0,1,,,,,0,,,78,0
119416,note_off,,,,,8,0,1,,,,,0,,,87,0
119432,note_on,,,,,16,0,1,,,,,0,,,83,61
119436,note_on,,,,,4,0,1,,,,,0,,,81,55
119496,note_off,,,,,60,0,1,,,,,0,,,81,0
119500,note_off,,,,,4,0,1,,,,,0,,,83,0
119516,note_on,,,,,16,0,1,,,,,0,,,86,76
119544,note_on,,,,,28,0,1,,,,,0,,,77,43
119572,note_off,,,,,28,0,1,,,,,0,,,77,0
119592,note_off,,,,,20,0,1,,,,,0,,,86,0
119596,note_on,,,,,4,0,1,,,,,0,,,80,55
119600,note_on,,,,,4,0,1,,,,,0,,,82,69
119668,note_off,,,,,68,0,1,,,,,0,,,80,0
119672,note_off,,,,,4,0,1,,,,,0,,,82,0
119688,note_on,,,,,16,0,1,,,,,0,,,85,71
119696,note_on,,,,,8,0,1,,,,,0,,,76,53
119736,note_off,,,,,40,0,1,,,,,0,,,76,0
119756,note_off,,,,,20,0,1,,,,,0,,,85,0
119760,note_on,,,,,4,0,1,,,,,0,,,81,63
119772,note_on,,,,,12,0,1,,,,,0,,,79,55
119824,note_off,,,,,52,0,1,,,,,0,,,79,0
119852,note_off,,,,,28,0,1,,,,,0,,,81,0
119852,note_on,,,,,0,0,1,,,,,0,,,84,80
119860,note_on,,,,,8,0,1,,,,,0,,,75,44
119904,note_off,,,,,44,0,1,,,,,0,,,75,0
119924,note_on,,,,,20,0,1,,,,,0,,,78,54
119940,note_on,,,,,16,0,1,,,,,0,,,80,71
119952,note_off,,,,,12,0,1,,,,,0,,,84,0
119996,note_off,,,,,44,0,1,,,,,0,,,78,0
120008,note_off,,,,,12,0,1,,,,,0,,,80,0
120024,note_on,,,,,16,0,1,,,,,0,,,74,47
120032,note_on,,,,,8,0,1,,,,,0,,,83,76
120076,note_off,,,,,44,0,1,,,,,0,,,74,0
120096,note_off,,,,,20,0,1,,,,,0,,,83,0
120108,note_on,,,,,12,0,1,,,,,0,,,79,70
120108,note_on,,,,,0,0,1,,,,,0,,,77,59
120156,note_off,,,,,48,0,1,,,,,0,,,77,0
120188,note_off,,,,,32,0,1,,,,,0,,,79,0
120192,note_on,,,,,4,0,1,,,,,0,,,82,71
120204,note_on,,,,,12,0,1,,,,,0,,,73,42
120252,note_off,,,,,48,0,1,,,,,0,,,73,0
120260,note_off,,,,,8,0,1,,,,,0,,,82,0
120276,note_on,,,,,16,0,1,,,,,0,,,76,54
120280,note_on,,,,,4,0,1,,,,,0,,,78,64
120328,note_off,,,,,48,0,1,,,,,0,,,76,0
120348,note_off,,,,,20,0,1,,,,,0,,,78,0
120364,note_on,,,,,16,0,1,,,,,0,,,81,72
120380,note_on,,,,,16,0,1,,,,,0,,,72,49
120408,note_off,,,,,28,0,1,,,,,0,,,72,0
120436,note_on,,,,,28,0,1,,,,,0,,,75,53
120452,note_off,,,,,16,0,1,,,,,0,,,81,0
120456,note_on,,,,,4,0,1,,,,,0,,,77,73
120504,note_off,,,,,48,0,1,,,,,0,,,75,0
120528,note_off,,,,,24,0,1,,,,,0,,,77,0
120536,note_on,,,,,8,0,1,,,,,0,,,80,69
120540,note_on,,,,,4,0,1,,,,,0,,,71,44
120588,note_off,,,,,48,0,1,,,,,0,,,71,0
120604,note_off,,,,,16,0,1,,,,,0,,,80,0
120620,note_on,,,,,16,0,1,,,,,0,,,76,68
120620,note_on,,,,,0,0,1,,,,,0,,,74,50
120668,note_off,,,,,48,0,1,,,,,0,,,74,0
120692,note_off,,,,,24,0,1,,,,,0,,,76,0
120700,note_on,,,,,8,0,1,,,,,0,,,79,74
120712,note_on,,,,,12,0,1,,,,,0,,,70,43
120768,note_off,,,,,56,0,1,,,,,0,,,70,0
120780,note_on,,,,,12,0,1,,,,,0,,,73,47
120784,note_on,,,,,4,0,1,,,,,0,,,75,71
120788,note_off,,,,,4,0,1,,,,,0,,,79,0
120856,note_off,,,,,68,0,1,,,,,0,,,73,0
120864,note_off,,,,,8,0,1,,,,,0,,,75,0
120880,note_on,,,,,16,0,1,,,,,0,,,78,65
120884,note_on,,,,,4,0,1,,,,,0,,,69,44
120920,note_off,,,,,36,0,1,,,,,0,,,69,0
120944,note_off,,,,,24,0,1,,,,,0,,,78,0
120952,note_on,,,,,8,0,1,,,,,0,,,74,71
120956,note_on,,,,,4,0,1,,,,,0,,,72,52
121008,note_off,,,,,52,0,1,,,,,0,,,72,0
121024,note_off,,,,,16,0,1,,,,,0,,,74,0
121040,note_on,,,,,16,0,1,,,,,0,,,68,45
121044,note_on,,,,,4,0,1,,,,,0,,,77,84
121108,note_off,,,,,64,0,1,,,,,0,,,68,0
121128,note_off,,,,,20,0,1,,,,,0,,,77,0
121128,note_on,,,,,0,0,1,,,,,0,,,73,65
121132,note_on,,,,,4,0,1,,,,,0,,,70,46
121188,note_off,,,,,56,0,1,,,,,0,,,70,0
121192,note_off,,,,,4,0,1,,,,,0,,,73,0
121232,note_on,,,,,40,0,1,,,,,0,,,67,53
121232,note_on,,,,,0,0,1,,,,,0,,,77,80
121244,control_change,,,,,12,0,1,,,64,88,0,,,,
121256,note_on,,,,,12,0,1,,,,,0,,,73,37
121256,control_change,,,,,0,0,1,,,64,0,0,,,,
121284,note_on,,,,,28,0,1,,,,,0,,,70,47
121312,control_change,,,,,0,0,1,,,64,104,0,,,,
121312,note_off,,,,,28,0,1,,,,,0,,,77,0
121324,control_change,,,,,12,0,1,,,64,127,0,,,,
121332,note_off,,,,,8,0,1,,,,,0,,,73,0
121344,note_off,,,,,12,0,1,,,,,0,,,70,0
121348,note_on,,,,,4,0,1,,,,,0,,,75,79
121352,note_off,,,,,4,0,1,,,,,0,,,67,0
121424,note_off,,,,,72,0,1,,,,,0,,,75,0
121448,note_on,,,,,24,0,1,,,,,0,,,73,71
121532,note_off,,,,,84,0,1,,,,,0,,,73,0
121536,note_on,,,,,4,0,1,,,,,0,,,70,65
121620,note_off,,,,,84,0,1,,,,,0,,,70,0
121628,note_on,,,,,8,0,1,,,,,0,,,67,71
121700,note_off,,,,,72,0,1,,,,,0,,,67,0
121720,note_on,,,,,20,0,1,,,,,0,,,62,61
121792,note_off,,,,,72,0,1,,,,,0,,,62,0
121808,note_on,,,,,16,0,1,,,,,0,,,63,65
121868,control_change,,,,,60,0,1,,,64,88,0,,,,
121876,control_change,,,,,8,0,1,,,64,0,0,,,,
121896,note_on,,,,,20,0,1,,,,,0,,,67,68
121924,control_change,,,,,28,0,1,,,64,40,0,,,,
121936,control_change,,,,,12,0,1,,,64,127,0,,,,
121960,note_off,,,,,24,0,1,,,,,0,,,67,0
121988,note_off,,,,,28,0,1,,,,,0,,,63,0
121988,note_on,,,,,0,0,1,,,,,0,,,70,64
122044,note_off,,,,,56,0,1,,,,,0,,,70,0
122080,note_on,,,,,36,0,1,,,,,0,,,73,62
122140,note_off,,,,,60,0,1,,,,,0,,,73,0
122168,note_on,,,,,28,0,1,,,,,0,,,74,73
122256,note_on,,,,,88,0,1,,,,,0,,,77,81
122264,note_off,,,,,8,0,1,,,,,0,,,74,0
122300,note_off,,,,,36,0,1,,,,,0,,,77,0
122348,note_on,,,,,48,0,1,,,,,0,,,75,77
122408,note_off,,,,,60,0,1,,,,,0,,,75,0
122452,note_on,,,,,44,0,1,,,,,0,,,79,74
122508,note_off,,,,,56,0,1,,,,,0,,,79,0
122540,note_on,,,,,32,0,1,,,,,0,,,82,69
122596,note_off,,,,,56,0,1,,,,,0,,,82,0
122628,note_on,,,,,32,0,1,,,,,0,,,85,72
122700,note_off,,,,,72,0,1,,,,,0,,,85,0
122720,note_on,,,,,20,0,1,,,,,0,,,86,72
122800,note_on,,,,,80,0,1,,,,,0,,,89,72
122812,note_off,,,,,12,0,1,,,,,0,,,86,0
122844,note_off,,,,,32,0,1,,,,,0,,,89,0
122880,note_on,,,,,36,0,1,,,,,0,,,87,67
122920,note_off,,,,,40,0,1,,,,,0,,,87,0
122972,note_on,,,,,52,0,1,,,,,0,,,91,72
123040,note_off,,,,,68,0,1,,,,,0,,,91,0
123060,note_on,,,,,20,0,1,,,,,0,,,94,70
123116,note_off,,,,,56,0,1,,,,,0,,,94,0
123148,note_on,,,,,32,0,1,,,,,0,,,97,70
123216,note_off,,,,,68,0,1,,,,,0,,,97,0
123240,note_on,,,,,24,0,1,,,,,0,,,98,79
123308,note_off,,,,,68,0,1,,,,,0,,,98,0
123328,note_on,,,,,20,0,1,,,,,0,,,101,72
123408,note_off,,,,,80,0,1,,,,,0,,,101,0
123412,note_on,,,,,4,0,1,,,,,0,,,99,77
123504,note_on,,,,,92,0,1,,,,,0,,,96,82
123508,note_off,,,,,4,0,1,,,,,0,,,99,0
123584,note_off,,,,,76,0,1,,,,,0,,,96,0
123588,note_on,,,,,4,0,1,,,,,0,,,97,71
123652,note_off,,,,,64,0,1,,,,,0,,,97,0
123664,note_on,,,,,12,0,1,,,,,0,,,93,72
123720,note_off,,,,,56,0,1,,,,,0,,,93,0
123744,note_on,,,,,24,0,1,,,,,0,,,94,65
123828,note_off,,,,,84,0,1,,,,,0,,,94,0
123828,note_on,,,,,0,0,1,,,,,0,,,90,64
123884,note_off,,,,,56,0,1,,,,,0,,,90,0
123908,note_on,,,,,24,0,1,,,,,0,,,91,69
123980,note_off,,,,,72,0,1,,,,,0,,,91,0
123992,note_on,,,,,12,0,1,,,,,0,,,86,70
124056,note_off,,,,,64,0,1,,,,,0,,,86,0
124072,note_on,,,,,16,0,1,,,,,0,,,87,73
124156,note_off,,,,,84,0,1,,,,,0,,,87,0
124172,note_on,,,,,16,0,1,,,,,0,,,84,70
124244,note_off,,,,,72,0,1,,,,,0,,,84,0
124248,note_on,,,,,4,0,1,,,,,0,,,85,64
124324,note_off,,,,,76,0,1,,,,,0,,,85,0
124344,note_on,,,,,20,0,1,,,,,0,,,81,62
124396,note_off,,,,,52,0,1,,,,,0,,,81,0
124424,note_on,,,,,28,0,1,,,,,0,,,82,67
124492,note_off,,,,,68,0,1,,,,,0,,,82,0
124516,note_on,,,,,24,0,1,,,,,0,,,78,64
124588,note_off,,,,,72,0,1,,,,,0,,,78,0
124604,note_on,,,,,16,0,1,,,,,0,,,79,64
124664,note_off,,,,,60,0,1,,,,,0,,,79,0
124688,note_on,,,,,24,0,1,,,,,0,,,74,63
124752,note_off,,,,,64,0,1,,,,,0,,,74,0
124772,note_on,,,,,20,0,1,,,,,0,,,75,62
124852,note_off,,,,,80,0,1,,,,,0,,,75,0
124872,note_on,,,,,20,0,1,,,,,0,,,72,64
124948,note_off,,,,,76,0,1,,,,,0,,,72,0
124956,note_on,,,,,8,0,1,,,,,0,,,73,64
125032,note_off,,,,,76,0,1,,,,,0,,,73,0
125048,note_on,,,,,16,0,1,,,,,0,,,69,64
125112,note_off,,,,,64,0,1,,,,,0,,,69,0
125140,note_on,,,,,28,0,1,,,,,0,,,70,60
125212,note_off,,,,,72,0,1,,,,,0,,,70,0
125224,note_on,,,,,12,0,1,,,,,0,,,66,57
125308,note_off,,,,,84,0,1,,,,,0,,,66,0
125320,note_on,,,,,12,0,1,,,,,0,,,67,53
125380,note_off,,,,,60,0,1,,,,,0,,,67,0
125408,note_on,,,,,28,0,1,,,,,0,,,62,63
125484,control_change,,,,,76,0,1,,,64,88,0,,,,
125500,note_on,,,,,16,0,1,,,,,0,,,63,62
125500,control_change,,,,,0,0,1,,,64,24,0,,,,
125504,note_off,,,,,4,0,1,,,,,0,,,62,0
125508,control_change,,,,,4,0,1,,,64,0,0,,,,
125552,control_change,,,,,44,0,1,,,64,56,0,,,,
125564,control_change,,,,,12,0,1,,,64,127,0,,,,
125572,note_off,,,,,8,0,1,,,,,0,,,63,0
125592,note_on,,,,,20,0,1,,,,,0,,,64,64
125664,control_change,,,,,0,0,1,,,64,72,0,,,,
125664,note_off,,,,,72,0,1,,,,,0,,,64,0
125676,control_change,,,,,12,0,1,,,64,0,0,,,,
125692,note_on,,,,,16,0,1,,,,,0,,,63,47
125708,control_change,,,,,16,0,1,,,64,40,0,,,,
125720,control_change,,,,,12,0,1,,,64,104,0,,,,
125732,control_change,,,,,12,0,1,,,64,127,0,,,,
125768,note_off,,,,,36,0,1,,,,,0,,,63,0
125776,note_on,,,,,8,0,1,,,,,0,,,65,59
125788,control_change,,,,,12,0,1,,,64,88,0,,,,
125796,control_change,,,,,8,0,1,,,64,40,0,,,,
125808,control_change,,,,,12,0,1,,,64,24,0,,,,
125820,control_change,,,,,12,0,1,,,64,40,0,,,,
125832,control_change,,,,,12,0,1,,,64,88,0,,,,
125840,control_change,,,,,8,0,1,,,64,127,0,,,,
125848,note_off,,,,,8,0,1,,,,,0,,,65,0
125880,note_on,,,,,32,0,1,,,,,0,,,63,54
125884,control_change,,,,,4,0,1,,,64,104,0,,,,
125896,control_change,,,,,12,0,1,,,64,56,0,,,,
125920,control_change,,,,,24,0,1,,,64,72,0,,,,
125932,control_change,,,,,12,0,1,,,64,127,0,,,,
125964,note_off,,,,,32,0,1,,,,,0,,,63,0
125972,note_on,,,,,8,0,1,,,,,0,,,66,59
125988,control_change,,,,,16,0,1,,,64,88,0,,,,
125996,control_change,,,,,8,0,1,,,64,56,0,,,,
126008,control_change,,,,,12,0,1,,,64,72,0,,,,
126020,control_change,,,,,12,0,1,,,64,104,0,,,,
126032,control_change,,,,,12,0,1,,,64,127,0,,,,
126068,note_on,,,,,0,0,1,,,,,0,,,63,53
126068,note_off,,,,,36,0,1,,,,,0,,,66,0
126096,control_change,,,,,28,0,1,,,64,88,0,,,,
126132,control_change,,,,,36,0,1,,,64,127,0,,,,
126160,note_off,,,,,28,0,1,,,,,0,,,63,0
126172,note_on,,,,,12,0,1,,,,,0,,,67,62
126252,note_off,,,,,80,0,1,,,,,0,,,67,0
126280,note_on,,,,,28,0,1,,,,,0,,,63,53
126372,note_off,,,,,92,0,1,,,,,0,,,63,0
126384,control_change,,,,,12,0,1,,,64,40,0,,,,
126388,note_on,,,,,4,0,1,,,,,0,,,68,54
126396,control_change,,,,,8,0,1,,,64,0,0,,,,
126428,control_change,,,,,32,0,1,,,64,40,0,,,,
126444,control_change,,,,,16,0,1,,,64,104,0,,,,
126452,control_change,,,,,8,0,1,,,64,127,0,,,,
126492,note_off,,,,,40,0,1,,,,,0,,,68,0
126504,note_on,,,,,12,0,1,,,,,0,,,63,55
126508,control_change,,,,,4,0,1,,,64,104,0,,,,
126520,control_change,,,,,12,0,1,,,64,40,0,,,,
126552,control_change,,,,,32,0,1,,,64,127,0,,,,
126620,note_off,,,,,68,0,1,,,,,0,,,63,0
126648,note_on,,,,,28,0,1,,,,,0,,,69,45
126664,control_change,,,,,16,0,1,,,64,88,0,,,,
126672,control_change,,,,,8,0,1,,,64,0,0,,,,
126696,control_change,,,,,24,0,1,,,64,24,0,,,,
126708,control_change,,,,,12,0,1,,,64,72,0,,,,
126720,control_change,,,,,12,0,1,,,64,127,0,,,,
126756,note_off,,,,,36,0,1,,,,,0,,,69,0
126772,note_on,,,,,16,0,1,,,,,0,,,63,47
126808,control_change,,,,,36,0,1,,,64,104,0,,,,
126816,control_change,,,,,8,0,1,,,64,40,0,,,,
126832,control_change,,,,,16,0,1,,,64,24,0,,,,
126840,control_change,,,,,8,0,1,,,64,56,0,,,,
126852,control_change,,,,,12,0,1,,,64,104,0,,,,
126864,control_change,,,,,12,0,1,,,64,127,0,,,,
126940,note_off,,,,,76,0,1,,,,,0,,,63,0
126952,note_on,,,,,12,0,1,,,,,0,,,70,46
126964,control_change,,,,,12,0,1,,,64,88,0,,,,
126972,control_change,,,,,8,0,1,,,64,24,0,,,,
126988,control_change,,,,,16,0,1,,,64,0,0,,,,
127008,control_change,,,,,20,0,1,,,64,24,0,,,,
127020,control_change,,,,,12,0,1,,,64,88,0,,,,
127032,control_change,,,,,12,0,1,,,64,127,0,,,,
127160,note_off,,,,,128,0,1,,,,,0,,,70,0
127176,note_on,,,,,16,0,1,,,,,0,,,63,31
127240,control_change,,,,,64,0,1,,,64,88,0,,,,
127252,control_change,,,,,12,0,1,,,64,24,0,,,,
127264,control_change,,,,,12,0,1,,,64,0,0,,,,
127296,control_change,,,,,32,0,1,,,64,24,0,,,,
127308,control_change,,,,,12,0,1,,,64,88,0,,,,
127320,control_change,,,,,12,0,1,,,64,127,0,,,,
127488,note_off,,,,,168,0,1,,,,,0,,,63,0
127504,note_on,,,,,16,0,1,,,,,0,,,71,44
127628,control_change,,,,,124,0,1,,,64,88,0,,,,
127640,control_change,,,,,12,0,1,,,64,24,0,,,,
127652,control_change,,,,,12,0,1,,,64,0,0,,,,
127728,control_change,,,,,76,0,1,,,64,104,0,,,,
127740,control_change,,,,,12,0,1,,,64,127,0,,,,
127780,note_off,,,,,40,0,1,,,,,0,,,71,0
128916,set_tempo,,,,,16248,1,0,,428571,,,,,,,
128916,end_of_track,,,,,0,1,0,,,,,,,,,
128996,note_on,,,,,1216,0,1,,,,,0,,,63,60
129716,note_on,,,,,720,0,1,,,,,0,,,72,77
129748,note_off,,,,,32,0,1,,,,,0,,,63,64
129752,note_on,,,,,4,0,1,,,,,0,,,44,42
129844,control_change,,,,,92,0,1,,,64,56,0,,,,
129868,control_change,,,,,24,0,1,,,64,127,0,,,,
129920,note_off,,,,,52,0,1,,,,,0,,,44,0
130012,note_on,,,,,92,0,1,,,,,0,,,60,54
130144,note_off,,,,,132,0,1,,,,,0,,,60,0
130200,note_on,,,,,56,0,1,,,,,0,,,63,46
130380,note_off,,,,,180,0,1,,,,,0,,,72,0
130396,note_off,,,,,16,0,1,,,,,0,,,63,0
130412,note_on,,,,,16,0,1,,,,,0,,,68,47
130588,note_on,,,,,176,0,1,,,,,0,,,75,40
130596,note_on,,,,,8,0,1,,,,,0,,,84,41
130608,note_on,,,,,12,0,1,,,,,0,,,80,43
130616,note_on,,,,,8,0,1,,,,,0,,,63,48
130672,note_off,,,,,56,0,1,,,,,0,,,68,0
130692,note_off,,,,,20,0,1,,,,,0,,,75,0
130704,note_off,,,,,12,0,1,,,,,0,,,84,0
130712,note_off,,,,,8,0,1,,,,,0,,,80,0
130768,note_off,,,,,56,0,1,,,,,0,,,63,0
130784,note_on,,,,,16,0,1,,,,,0,,,60,55
130912,note_off,,,,,128,0,1,,,,,0,,,60,0
130968,note_on,,,,,56,0,1,,,,,0,,,72,82
130976,note_on,,,,,8,0,1,,,,,0,,,75,48
130984,note_on,,,,,8,0,1,,,,,0,,,84,48
130988,note_on,,,,,4,0,1,,,,,0,,,80,43
131084,note_off,,,,,96,0,1,,,,,0,,,84,0
131088,note_off,,,,,4,0,1,,,,,0,,,75,0
131100,note_off,,,,,12,0,1,,,,,0,,,80,0
131148,note_on,,,,,48,0,1,,,,,0,,,60,53
131232,note_off,,,,,84,0,1,,,,,0,,,72,0
131320,note_on,,,,,88,0,1,,,,,0,,,63,44
131368,note_off,,,,,48,0,1,,,,,0,,,60,0
131496,note_on,,,,,0,0,1,,,,,0,,,68,46
131496,note_off,,,,,128,0,1,,,,,0,,,63,0
131684,note_on,,,,,188,0,1,,,,,0,,,63,46
131696,note_off,,,,,12,0,1,,,,,0,,,68,0
131808,note_off,,,,,112,0,1,,,,,0,,,63,0
131856,note_on,,,,,48,0,1,,,,,0,,,60,59
132004,note_off,,,,,148,0,1,,,,,0,,,60,0
132060,control_change,,,,,56,0,1,,,64,72,0,,,,
132080,control_change,,,,,20,0,1,,,64,0,0,,,,
132084,note_on,,,,,4,0,1,,,,,0,,,72,78
132108,note_on,,,,,24,0,1,,,,,0,,,43,47
132200,control_change,,,,,92,0,1,,,64,88,0,,,,
132212,note_off,,,,,12,0,1,,,,,0,,,43,0
132216,control_change,,,,,4,0,1,,,64,127,0,,,,
132304,note_on,,,,,88,0,1,,,,,0,,,60,54
132436,note_off,,,,,132,0,1,,,,,0,,,60,0
132444,note_off,,,,,8,0,1,,,,,0,,,72,0
132496,note_on,,,,,52,0,1,,,,,0,,,64,49
132656,note_off,,,,,160,0,1,,,,,0,,,64,0
132676,note_on,,,,,20,0,1,,,,,0,,,70,47
132844,note_off,,,,,168,0,1,,,,,0,,,70,0
132868,note_on,,,,,24,0,1,,,,,0,,,64,55
132872,note_on,,,,,4,0,1,,,,,0,,,76,47
132876,note_on,,,,,0,0,1,,,,,0,,,84,39
132876,note_on,,,,,4,0,1,,,,,0,,,82,38
132964,note_off,,,,,88,0,1,,,,,0,,,76,0
132988,note_off,,,,,24,0,1,,,,,0,,,82,0
132988,note_off,,,,,0,0,1,,,,,0,,,84,0
133028,note_off,,,,,40,0,1,,,,,0,,,64,0
133048,note_on,,,,,20,0,1,,,,,0,,,60,60
133180,note_off,,,,,132,0,1,,,,,0,,,60,0
133244,note_on,,,,,64,0,1,,,,,0,,,76,49
133244,note_on,,,,,0,0,1,,,,,0,,,84,53
133252,note_on,,,,,8,0,1,,,,,0,,,82,38
133340,note_off,,,,,88,0,1,,,,,0,,,76,0
133340,note_off,,,,,0,0,1,,,,,0,,,84,0
133356,note_off,,,,,16,0,1,,,,,0,,,82,0
133396,note_on,,,,,40,0,1,,,,,0,,,60,52
133512,note_off,,,,,116,0,1,,,,,0,,,60,0
133596,note_on,,,,,84,0,1,,,,,0,,,64,44
133720,note_off,,,,,124,0,1,,,,,0,,,64,0
133760,note_on,,,,,40,0,1,,,,,0,,,70,61
133940,note_off,,,,,180,0,1,,,,,0,,,70,0
133984,note_on,,,,,44,0,1,,,,,0,,,72,85
134016,note_on,,,,,32,0,1,,,,,0,,,64,34
134144,note_off,,,,,128,0,1,,,,,0,,,64,0
134160,note_on,,,,,16,0,1,,,,,0,,,60,58
134168,note_off,,,,,8,0,1,,,,,0,,,72,0
134268,note_off,,,,,100,0,1,,,,,0,,,60,0
134464,note_on,,,,,196,0,1,,,,,0,,,72,85
134464,note_on,,,,,0,0,1,,,,,0,,,41,47
134468,control_change,,,,,4,0,1,,,64,72,0,,,,
134484,control_change,,,,,16,0,1,,,64,0,0,,,,
134588,control_change,,,,,104,0,1,,,64,72,0,,,,
134604,control_change,,,,,16,0,1,,,64,127,0,,,,
134616,note_off,,,,,12,0,1,,,,,0,,,41,0
134676,note_on,,,,,60,0,1,,,,,0,,,63,48
134696,note_off,,,,,20,0,1,,,,,0,,,72,0
134800,note_off,,,,,104,0,1,,,,,0,,,63,0
134864,note_on,,,,,64,0,1,,,,,0,,,65,54
135020,note_off,,,,,156,0,1,,,,,0,,,65,0
135024,note_on,,,,,4,0,1,,,,,0,,,69,71
135188,note_off,,,,,164,0,1,,,,,0,,,69,0
135196,note_on,,,,,8,0,1,,,,,0,,,84,69
135196,note_on,,,,,0,0,1,,,,,0,,,72,86
135212,note_on,,,,,16,0,1,,,,,0,,,81,49
135236,note_on,,,,,24,0,1,,,,,0,,,75,31
135260,note_off,,,,,24,0,1,,,,,0,,,81,0
135272,note_off,,,,,12,0,1,,,,,0,,,75,0
135320,note_off,,,,,48,0,1,,,,,0,,,84,0
135332,note_off,,,,,12,0,1,,,,,0,,,72,0
135388,note_on,,,,,56,0,1,,,,,0,,,63,49
135440,note_on,,,,,52,0,1,,,,,0,,,75,53
135492,note_on,,,,,52,0,1,,,,,0,,,81,47
135584,note_off,,,,,92,0,1,,,,,0,,,63,0
135596,note_on,,,,,12,0,1,,,,,0,,,85,69
135600,note_on,,,,,4,0,1,,,,,0,,,73,77
135808,note_on,,,,,208,0,1,,,,,0,,,63,48
135836,note_off,,,,,28,0,1,,,,,0,,,73,0
135956,note_off,,,,,120,0,1,,,,,0,,,63,0
135992,note_off,,,,,36,0,1,,,,,0,,,81,0
136004,note_off,,,,,12,0,1,,,,,0,,,85,0
136004,note_on,,,,,0,0,1,,,,,0,,,65,44
136020,note_off,,,,,16,0,1,,,,,0,,,75,0
136108,note_off,,,,,88,0,1,,,,,0,,,65,0
136188,note_on,,,,,80,0,1,,,,,0,,,69,62
136316,note_off,,,,,128,0,1,,,,,0,,,69,0
136380,note_on,,,,,64,0,1,,,,,0,,,72,83
136404,note_on,,,,,24,0,1,,,,,0,,,65,51
136536,note_off,,,,,132,0,1,,,,,0,,,72,0
136560,note_off,,,,,24,0,1,,,,,0,,,65,0
136580,note_on,,,,,20,0,1,,,,,0,,,63,45
136756,note_off,,,,,176,0,1,,,,,0,,,63,0
136852,control_change,,,,,96,0,1,,,64,88,0,,,,
136868,control_change,,,,,16,0,1,,,64,0,0,,,,
136876,note_on,,,,,8,0,1,,,,,0,,,72,76
136892,note_on,,,,,16,0,1,,,,,0,,,34,46
136976,control_change,,,,,84,0,1,,,64,56,0,,,,
136992,note_off,,,,,16,0,1,,,,,0,,,72,0
136992,control_change,,,,,0,0,1,,,64,127,0,,,,
137056,note_off,,,,,64,0,1,,,,,0,,,34,0
137104,note_on,,,,,48,0,1,,,,,0,,,56,57
137220,note_off,,,,,116,0,1,,,,,0,,,56,0
137296,note_on,,,,,76,0,1,,,,,0,,,62,60
137416,note_off,,,,,120,0,1,,,,,0,,,62,0
137472,note_on,,,,,56,0,1,,,,,0,,,65,60
137588,note_on,,,,,116,0,1,,,,,0,,,74,35
137596,note_on,,,,,8,0,1,,,,,0,,,77,70
137652,note_off,,,,,56,0,1,,,,,0,,,65,0
137680,note_on,,,,,0,0,1,,,,,0,,,84,77
137680,note_on,,,,,28,0,1,,,,,0,,,62,55
137704,note_off,,,,,24,0,1,,,,,0,,,74,0
137732,note_off,,,,,28,0,1,,,,,0,,,77,0
137784,note_off,,,,,52,0,1,,,,,0,,,62,0
137844,note_on,,,,,60,0,1,,,,,0,,,56,58
137952,note_off,,,,,108,0,1,,,,,0,,,84,0
138000,note_off,,,,,48,0,1,,,,,0,,,56,0
138100,note_on,,,,,100,0,1,,,,,0,,,65,64
138116,note_on,,,,,16,0,1,,,,,0,,,77,59
138120,note_on,,,,,4,0,1,,,,,0,,,74,50
138228,note_off,,,,,108,0,1,,,,,0,,,74,0
138240,note_off,,,,,12,0,1,,,,,0,,,77,0
138272,note_off,,,,,32,0,1,,,,,0,,,65,0
138300,note_on,,,,,28,0,1,,,,,0,,,56,46
138432,note_off,,,,,132,0,1,,,,,0,,,56,0
138484,note_on,,,,,52,0,1,,,,,0,,,58,43
138588,note_off,,,,,104,0,1,,,,,0,,,58,0
138668,note_on,,,,,80,0,1,,,,,0,,,62,49
138796,note_off,,,,,128,0,1,,,,,0,,,62,0
138884,note_on,,,,,88,0,1,,,,,0,,,65,74
138900,note_on,,,,,16,0,1,,,,,0,,,58,47
139068,note_off,,,,,168,0,1,,,,,0,,,58,0
139088,note_off,,,,,20,0,1,,,,,0,,,65,0
139100,note_on,,,,,12,0,1,,,,,0,,,56,48
139204,note_off,,,,,104,0,1,,,,,0,,,56,0
139332,note_on,,,,,128,0,1,,,,,0,,,65,69
139364,note_on,,,,,32,0,1,,,,,0,,,51,44
139364,note_on,,,,,0,0,1,,,,,0,,,39,43
139412,control_change,,,,,48,0,1,,,64,40,0,,,,
139432,control_change,,,,,20,0,1,,,64,0,0,,,,
139536,note_on,,,,,104,0,1,,,,,0,,,58,48
139556,control_change,,,,,20,0,1,,,64,88,0,,,,
139568,note_off,,,,,12,0,1,,,,,0,,,65,0
139572,control_change,,,,,4,0,1,,,64,127,0,,,,
139596,note_off,,,,,24,0,1,,,,,0,,,39,0
139636,note_off,,,,,40,0,1,,,,,0,,,51,0
139688,note_off,,,,,52,0,1,,,,,0,,,58,0
139716,note_on,,,,,28,0,1,,,,,0,,,67,77
139740,note_on,,,,,24,0,1,,,,,0,,,61,54
139848,note_off,,,,,108,0,1,,,,,0,,,67,0
139868,note_off,,,,,20,0,1,,,,,0,,,61,0
139884,note_on,,,,,16,0,1,,,,,0,,,58,46
140032,note_off,,,,,148,0,1,,,,,0,,,58,0
140068,note_on,,,,,36,0,1,,,,,0,,,70,50
140084,note_on,,,,,16,0,1,,,,,0,,,68,81
140092,note_on,,,,,8,0,1,,,,,0,,,73,49
140100,note_on,,,,,8,0,1,,,,,0,,,80,58
140132,note_off,,,,,32,0,1,,,,,0,,,73,0
140144,note_off,,,,,12,0,1,,,,,0,,,70,0
140184,note_off,,,,,40,0,1,,,,,0,,,80,0
140212,note_off,,,,,28,0,1,,,,,0,,,68,0
140220,note_on,,,,,8,0,1,,,,,0,,,58,56
140312,note_off,,,,,92,0,1,,,,,0,,,58,0
140376,note_on,,,,,64,0,1,,,,,0,,,73,43
140396,note_on,,,,,20,0,1,,,,,0,,,75,50
140464,note_on,,,,,68,0,1,,,,,0,,,79,62
140528,note_on,,,,,64,0,1,,,,,0,,,84,74
140536,note_on,,,,,8,0,1,,,,,0,,,72,89
140588,control_change,,,,,52,0,1,,,64,104,0,,,,
140604,control_change,,,,,16,0,1,,,64,24,0,,,,
140620,control_change,,,,,16,0,1,,,64,0,0,,,,
140672,control_change,,,,,52,0,1,,,64,56,0,,,,
140692,control_change,,,,,20,0,1,,,64,127,0,,,,
140720,note_on,,,,,28,0,1,,,,,0,,,61,43
140848,note_off,,,,,128,0,1,,,,,0,,,72,0
140856,note_off,,,,,8,0,1,,,,,0,,,61,0
140892,note_on,,,,,36,0,1,,,,,0,,,63,44
141020,note_off,,,,,0,0,1,,,,,0,,,63,0
141020,note_off,,,,,128,0,1,,,,,0,,,84,0
141064,note_on,,,,,44,0,1,,,,,0,,,67,48
141164,note_off,,,,,100,0,1,,,,,0,,,67,0
141288,note_on,,,,,0,0,1,,,,,0,,,82,56
141288,note_on,,,,,124,0,1,,,,,0,,,70,62
141300,note_on,,,,,12,0,1,,,,,0,,,63,52
141352,note_off,,,,,52,0,1,,,,,0,,,79,0
141356,note_off,,,,,4,0,1,,,,,0,,,82,0
141380,note_off,,,,,24,0,1,,,,,0,,,75,0
141392,note_off,,,,,12,0,1,,,,,0,,,73,0
141456,note_off,,,,,64,0,1,,,,,0,,,63,0
141484,note_on,,,,,28,0,1,,,,,0,,,61,38
141628,note_off,,,,,144,0,1,,,,,0,,,70,0
141640,note_off,,,,,12,0,1,,,,,0,,,61,0
141772,note_on,,,,,132,0,1,,,,,0,,,68,60
141812,note_on,,,,,40,0,1,,,,,0,,,44,38
141824,control_change,,,,,0,0,1,,,64,72,0,,,,
141824,note_on,,,,,12,0,1,,,,,0,,,32,37
141840,control_change,,,,,16,0,1,,,64,0,0,,,,
141948,control_change,,,,,108,0,1,,,64,72,0,,,,
141964,control_change,,,,,16,0,1,,,64,127,0,,,,
141976,note_off,,,,,12,0,1,,,,,0,,,32,0
141992,note_on,,,,,16,0,1,,,,,0,,,60,58
142044,note_off,,,,,52,0,1,,,,,0,,,44,0
142084,note_off,,,,,40,0,1,,,,,0,,,68,0
142100,note_off,,,,,16,0,1,,,,,0,,,60,0
142160,note_on,,,,,60,0,1,,,,,0,,,63,51
142284,note_off,,,,,124,0,1,,,,,0,,,63,0
142340,note_on,,,,,56,0,1,,,,,0,,,65,42
142460,note_off,,,,,120,0,1,,,,,0,,,65,0
142524,note_on,,,,,64,0,1,,,,,0,,,63,55
142532,note_on,,,,,8,0,1,,,,,0,,,80,46
142544,note_on,,,,,12,0,1,,,,,0,,,72,48
142576,note_on,,,,,32,0,1,,,,,0,,,75,26
142600,note_off,,,,,24,0,1,,,,,0,,,72,0
142628,note_off,,,,,0,0,1,,,,,0,,,75,0
142628,note_off,,,,,28,0,1,,,,,0,,,80,0
142672,note_off,,,,,44,0,1,,,,,0,,,63,0
142720,note_on,,,,,48,0,1,,,,,0,,,60,62
142856,note_off,,,,,136,0,1,,,,,0,,,60,0
142908,note_on,,,,,52,0,1,,,,,0,,,80,38
142924,note_on,,,,,16,0,1,,,,,0,,,56,44
142928,note_on,,,,,4,0,1,,,,,0,,,72,38
142932,note_on,,,,,4,0,1,,,,,0,,,75,33
142984,note_off,,,,,52,0,1,,,,,0,,,72,0
143012,note_off,,,,,28,0,1,,,,,0,,,56,0
143020,note_off,,,,,8,0,1,,,,,0,,,80,0
143032,note_off,,,,,12,0,1,,,,,0,,,75,0
143116,note_on,,,,,84,0,1,,,,,0,,,60,56
143188,note_off,,,,,72,0,1,,,,,0,,,60,0
143304,note_on,,,,,116,0,1,,,,,0,,,63,53
143448,note_off,,,,,144,0,1,,,,,0,,,63,0
143480,note_on,,,,,32,0,1,,,,,0,,,65,66
143596,note_off,,,,,116,0,1,,,,,0,,,65,0
143684,note_on,,,,,88,0,1,,,,,0,,,63,75
143916,note_off,,,,,232,0,1,,,,,0,,,63,0
143924,note_on,,,,,8,0,1,,,,,0,,,68,49
144084,note_on,,,,,160,0,1,,,,,0,,,44,43
144140,control_change,,,,,56,0,1,,,64,24,0,,,,
144160,control_change,,,,,20,0,1,,,64,0,0,,,,
144184,note_off,,,,,24,0,1,,,,,0,,,44,0
144204,note_off,,,,,20,0,1,,,,,0,,,68,0
144224,note_on,,,,,0,0,1,,,,,0,,,51,36
144224,note_on,,,,,20,0,1,,,,,0,,,72,80
144248,control_change,,,,,24,0,1,,,64,56,0,,,,
144264,control_change,,,,,16,0,1,,,64,127,0,,,,
144304,note_on,,,,,40,0,1,,,,,0,,,60,28
144352,note_off,,,,,48,0,1,,,,,0,,,51,0
144368,note_off,,,,,16,0,1,,,,,0,,,60,0
144436,note_on,,,,,68,0,1,,,,,0,,,62,55
144536,note_off,,,,,100,0,1,,,,,0,,,62,0
144596,note_off,,,,,60,0,1,,,,,0,,,72,0
144600,note_on,,,,,4,0,1,,,,,0,,,63,37
144728,note_off,,,,,128,0,1,,,,,0,,,63,0
144760,note_on,,,,,32,0,1,,,,,0,,,68,51
144928,note_off,,,,,168,0,1,,,,,0,,,68,0
144944,note_on,,,,,16,0,1,,,,,0,,,63,51
144988,note_on,,,,,44,0,1,,,,,0,,,80,40
144992,note_on,,,,,4,0,1,,,,,0,,,84,48
144992,note_on,,,,,0,0,1,,,,,0,,,75,38
145076,note_off,,,,,84,0,1,,,,,0,,,84,0
145088,note_off,,,,,12,0,1,,,,,0,,,63,0
145096,note_off,,,,,0,0,1,,,,,0,,,75,0
145096,note_off,,,,,8,0,1,,,,,0,,,80,0
145120,note_on,,,,,24,0,1,,,,,0,,,60,61
145252,note_off,,,,,132,0,1,,,,,0,,,60,0
145324,note_on,,,,,72,0,1,,,,,0,,,72,81
145324,note_on,,,,,0,0,1,,,,,0,,,75,48
145332,note_on,,,,,8,0,1,,,,,0,,,84,51
145332,note_on,,,,,0,0,1,,,,,0,,,80,44
145412,note_off,,,,,80,0,1,,,,,0,,,84,0
145448,note_off,,,,,36,0,1,,,,,0,,,75,0
145448,note_off,,,,,0,0,1,,,,,0,,,80,0
145504,note_on,,,,,56,0,1,,,,,0,,,60,54
145580,note_off,,,,,76,0,1,,,,,0,,,72,0
145656,note_off,,,,,76,0,1,,,,,0,,,60,0
145700,note_on,,,,,44,0,1,,,,,0,,,63,34
145856,note_off,,,,,156,0,1,,,,,0,,,63,0
145860,note_on,,,,,4,0,1,,,,,0,,,68,48
146052,note_on,,,,,192,0,1,,,,,0,,,63,40
146064,note_off,,,,,12,0,1,,,,,0,,,68,0
146164,note_off,,,,,100,0,1,,,,,0,,,63,0
146216,note_on,,,,,52,0,1,,,,,0,,,60,48
146264,note_on,,,,,48,0,1,,,,,0,,,43,50
146384,note_off,,,,,120,0,1,,,,,0,,,60,0
146444,control_change,,,,,60,0,1,,,64,56,0,,,,
146448,note_on,,,,,4,0,1,,,,,0,,,52,26
146460,control_change,,,,,12,0,1,,,64,0,0,,,,
146476,note_on,,,,,16,0,1,,,,,0,,,72,76
146532,note_on,,,,,56,0,1,,,,,0,,,58,37
146620,control_change,,,,,88,0,1,,,64,127,0,,,,
146624,note_off,,,,,4,0,1,,,,,0,,,43,0
146684,note_off,,,,,60,0,1,,,,,0,,,52,0
146700,note_on,,,,,16,0,1,,,,,0,,,60,60
146720,note_off,,,,,20,0,1,,,,,0,,,58,0
146812,note_off,,,,,92,0,1,,,,,0,,,60,0
146864,note_off,,,,,52,0,1,,,,,0,,,72,0
146900,note_on,,,,,36,0,1,,,,,0,,,64,44
147036,note_off,,,,,136,0,1,,,,,0,,,64,0
147048,note_on,,,,,12,0,1,,,,,0,,,70,50
147192,note_off,,,,,144,0,1,,,,,0,,,70,0
147232,note_on,,,,,40,0,1,,,,,0,,,64,54
147244,note_on,,,,,12,0,1,,,,,0,,,84,44
147256,note_on,,,,,0,0,1,,,,,0,,,76,42
147256,note_on,,,,,12,0,1,,,,,0,,,82,37
147312,note_off,,,,,56,0,1,,,,,0,,,76,0
147352,note_off,,,,,40,0,1,,,,,0,,,84,0
147368,note_off,,,,,16,0,1,,,,,0,,,82,0
147376,note_off,,,,,8,0,1,,,,,0,,,64,0
147412,note_on,,,,,36,0,1,,,,,0,,,60,47
147520,note_off,,,,,108,0,1,,,,,0,,,60,0
147596,note_on,,,,,76,0,1,,,,,0,,,84,63
147608,note_on,,,,,12,0,1,,,,,0,,,76,53
147608,note_on,,,,,0,0,1,,,,,0,,,82,46
147764,note_on,,,,,156,0,1,,,,,0,,,60,43
147780,note_off,,,,,16,0,1,,,,,0,,,76,0
147796,note_off,,,,,16,0,1,,,,,0,,,84,0
147812,note_off,,,,,16,0,1,,,,,0,,,82,0
147892,note_off,,,,,80,0,1,,,,,0,,,60,0
147964,note_on,,,,,72,0,1,,,,,0,,,64,38
148024,note_off,,,,,60,0,1,,,,,0,,,64,0
148124,note_on,,,,,100,0,1,,,,,0,,,70,52
148264,note_off,,,,,140,0,1,,,,,0,,,70,0
148352,note_on,,,,,88,0,1,,,,,0,,,72,81
148364,note_on,,,,,12,0,1,,,,,0,,,64,48
148492,note_off,,,,,128,0,1,,,,,0,,,64,0
148528,note_off,,,,,36,0,1,,,,,0,,,72,0
148552,note_on,,,,,24,0,1,,,,,0,,,60,53
148696,note_on,,,,,144,0,1,,,,,0,,,41,51
148784,note_off,,,,,88,0,1,,,,,0,,,60,0
148840,note_on,,,,,56,0,1,,,,,0,,,72,82
148872,note_on,,,,,32,0,1,,,,,0,,,57,34
148916,control_change,,,,,44,0,1,,,64,56,0,,,,
148936,control_change,,,,,20,0,1,,,64,0,0,,,,
149016,note_on,,,,,80,0,1,,,,,0,,,60,56
149040,control_change,,,,,24,0,1,,,64,104,0,,,,
149060,control_change,,,,,20,0,1,,,64,127,0,,,,
149068,note_off,,,,,8,0,1,,,,,0,,,72,0
149152,note_off,,,,,84,0,1,,,,,0,,,60,0
149204,note_on,,,,,52,0,1,,,,,0,,,65,57
149292,note_off,,,,,88,0,1,,,,,0,,,65,0
149364,note_off,,,,,72,0,1,,,,,0,,,57,0
149388,note_off,,,,,24,0,1,,,,,0,,,41,0
149388,note_on,,,,,0,0,1,,,,,0,,,69,59
149460,note_off,,,,,72,0,1,,,,,0,,,69,0
149596,note_on,,,,,136,0,1,,,,,0,,,72,90
149756,note_off,,,,,160,0,1,,,,,0,,,72,0
149760,note_on,,,,,4,0,1,,,,,0,,,60,68
149864,note_off,,,,,104,0,1,,,,,0,,,60,0
149952,note_on,,,,,88,0,1,,,,,0,,,39,53
149980,control_change,,,,,28,0,1,,,64,72,0,,,,
149996,note_on,,,,,16,0,1,,,,,0,,,73,85
149996,control_change,,,,,0,0,1,,,64,0,0,,,,
150056,note_off,,,,,60,0,1,,,,,0,,,39,0
150084,control_change,,,,,28,0,1,,,64,88,0,,,,
150104,control_change,,,,,20,0,1,,,64,127,0,,,,
150172,note_on,,,,,68,0,1,,,,,0,,,57,54
150188,note_on,,,,,16,0,1,,,,,0,,,60,62
150208,note_off,,,,,20,0,1,,,,,0,,,73,0
150256,note_off,,,,,48,0,1,,,,,0,,,57,0
150304,note_off,,,,,48,0,1,,,,,0,,,60,0
150364,note_on,,,,,60,0,1,,,,,0,,,66,64
150496,note_off,,,,,132,0,1,,,,,0,,,66,0
150544,note_on,,,,,48,0,1,,,,,0,,,69,67
150724,note_off,,,,,180,0,1,,,,,0,,,69,0
150768,note_on,,,,,44,0,1,,,,,0,,,72,89
150784,note_on,,,,,16,0,1,,,,,0,,,66,54
150900,note_off,,,,,116,0,1,,,,,0,,,66,0
150920,note_on,,,,,20,0,1,,,,,0,,,60,65
151008,note_off,,,,,88,0,1,,,,,0,,,60,0
151048,note_off,,,,,40,0,1,,,,,0,,,72,0
151108,note_on,,,,,60,0,1,,,,,0,,,38,50
151380,note_on,,,,,0,0,1,,,,,0,,,53,47
151380,note_on,,,,,272,0,1,,,,,0,,,77,85
151408,control_change,,,,,28,0,1,,,64,40,0,,,,
151428,control_change,,,,,20,0,1,,,64,0,0,,,,
151568,control_change,,,,,140,0,1,,,64,104,0,,,,
151584,control_change,,,,,16,0,1,,,64,127,0,,,,
151588,note_off,,,,,4,0,1,,,,,0,,,38,0
151620,note_on,,,,,32,0,1,,,,,0,,,65,48
151644,note_off,,,,,24,0,1,,,,,0,,,53,0
151792,note_on,,,,,148,0,1,,,,,0,,,68,54
151876,note_off,,,,,84,0,1,,,,,0,,,65,0
151944,note_off,,,,,68,0,1,,,,,0,,,68,0
151964,note_on,,,,,20,0,1,,,,,0,,,72,66
152104,note_off,,,,,140,0,1,,,,,0,,,72,0
152140,note_on,,,,,36,0,1,,,,,0,,,89,67
152148,note_on,,,,,8,0,1,,,,,0,,,84,55
152168,note_on,,,,,0,0,1,,,,,0,,,80,34
152168,note_on,,,,,20,0,1,,,,,0,,,68,42
152248,note_off,,,,,80,0,1,,,,,0,,,84,0
152264,note_off,,,,,16,0,1,,,,,0,,,89,0
152288,note_off,,,,,24,0,1,,,,,0,,,80,0
152320,note_off,,,,,32,0,1,,,,,0,,,68,0
152352,note_on,,,,,32,0,1,,,,,0,,,65,51
152480,note_off,,,,,128,0,1,,,,,0,,,65,0
152540,note_on,,,,,60,0,1,,,,,0,,,89,61
152548,note_on,,,,,8,0,1,,,,,0,,,80,43
152556,note_on,,,,,8,0,1,,,,,0,,,83,56
152668,note_off,,,,,112,0,1,,,,,0,,,77,0
152728,note_off,,,,,60,0,1,,,,,0,,,89,0
152740,note_on,,,,,12,0,1,,,,,0,,,65,47
152776,note_off,,,,,36,0,1,,,,,0,,,83,0
152800,note_off,,,,,24,0,1,,,,,0,,,80,0
152868,note_off,,,,,68,0,1,,,,,0,,,65,0
152924,note_on,,,,,56,0,1,,,,,0,,,68,43
153060,note_off,,,,,136,0,1,,,,,0,,,68,0
153136,note_on,,,,,76,0,1,,,,,0,,,71,38
153296,note_on,,,,,160,0,1,,,,,0,,,68,44
153332,note_off,,,,,36,0,1,,,,,0,,,71,0
153452,note_off,,,,,120,0,1,,,,,0,,,68,0
153472,note_on,,,,,20,0,1,,,,,0,,,65,41
153536,note_off,,,,,64,0,1,,,,,0,,,65,0
153612,note_on,,,,,76,0,1,,,,,0,,,37,46
153620,control_change,,,,,8,0,1,,,64,104,0,,,,
153644,control_change,,,,,24,0,1,,,64,0,0,,,,
153712,control_change,,,,,68,0,1,,,64,40,0,,,,
153720,note_off,,,,,8,0,1,,,,,0,,,37,0
153728,control_change,,,,,8,0,1,,,64,127,0,,,,
153752,note_on,,,,,24,0,1,,,,,0,,,52,47
153836,note_off,,,,,84,0,1,,,,,0,,,52,0
153896,note_on,,,,,60,0,1,,,,,0,,,58,48
154020,note_off,,,,,124,0,1,,,,,0,,,58,0
154112,note_on,,,,,92,0,1,,,,,0,,,64,37
154196,note_off,,,,,84,0,1,,,,,0,,,64,0
154260,note_on,,,,,64,0,1,,,,,0,,,68,51
154444,note_on,,,,,184,0,1,,,,,0,,,64,49
154448,note_off,,,,,4,0,1,,,,,0,,,68,0
154456,note_on,,,,,8,0,1,,,,,0,,,82,46
154608,note_on,,,,,152,0,1,,,,,0,,,58,54
154612,note_off,,,,,4,0,1,,,,,0,,,82,0
154724,note_off,,,,,112,0,1,,,,,0,,,64,0
154788,note_off,,,,,64,0,1,,,,,0,,,58,0
154820,note_on,,,,,32,0,1,,,,,0,,,70,77
154848,note_on,,,,,28,0,1,,,,,0,,,82,43
154864,note_on,,,,,16,0,1,,,,,0,,,79,55
154868,note_on,,,,,4,0,1,,,,,0,,,76,46
155024,note_on,,,,,156,0,1,,,,,0,,,58,47
155068,note_off,,,,,44,0,1,,,,,0,,,79,0
155072,note_off,,,,,4,0,1,,,,,0,,,82,0
155100,note_off,,,,,28,0,1,,,,,0,,,76,0
155192,note_off,,,,,92,0,1,,,,,0,,,58,0
155232,note_on,,,,,40,0,1,,,,,0,,,64,59
155364,note_off,,,,,132,0,1,,,,,0,,,64,0
155424,note_on,,,,,60,0,1,,,,,0,,,67,44
155612,note_on,,,,,188,0,1,,,,,0,,,64,49
155652,note_off,,,,,40,0,1,,,,,0,,,67,0
155764,note_off,,,,,112,0,1,,,,,0,,,64,0
155780,note_on,,,,,16,0,1,,,,,0,,,58,43
155812,note_off,,,,,32,0,1,,,,,0,,,70,0
155860,note_off,,,,,48,0,1,,,,,0,,,58,0
155920,note_on,,,,,60,0,1,,,,,0,,,36,37
156136,note_on,,,,,216,0,1,,,,,0,,,75,79
156160,note_on,,,,,24,0,1,,,,,0,,,51,44
156204,control_change,,,,,44,0,1,,,64,40,0,,,,
156220,control_change,,,,,16,0,1,,,64,0,0,,,,
156296,note_off,,,,,76,0,1,,,,,0,,,36,0
156324,control_change,,,,,28,0,1,,,64,56,0,,,,
156340,control_change,,,,,16,0,1,,,64,127,0,,,,
156344,note_on,,,,,4,0,1,,,,,0,,,63,45
156392,note_off,,,,,48,0,1,,,,,0,,,51,0
156468,note_off,,,,,76,0,1,,,,,0,,,63,0
156536,note_on,,,,,68,0,1,,,,,0,,,66,43
156644,note_off,,,,,108,0,1,,,,,0,,,66,0
156696,note_on,,,,,52,0,1,,,,,0,,,70,55
156812,note_off,,,,,116,0,1,,,,,0,,,70,0
156900,note_on,,,,,88,0,1,,,,,0,,,66,46
156916,note_on,,,,,16,0,1,,,,,0,,,87,45
156924,note_on,,,,,8,0,1,,,,,0,,,82,40
156924,note_on,,,,,0,0,1,,,,,0,,,78,37
157024,note_off,,,,,100,0,1,,,,,0,,,78,0
157028,note_off,,,,,4,0,1,,,,,0,,,87,0
157056,note_off,,,,,28,0,1,,,,,0,,,66,0
157064,note_off,,,,,8,0,1,,,,,0,,,82,0
157076,note_on,,,,,12,0,1,,,,,0,,,63,50
157216,note_off,,,,,140,0,1,,,,,0,,,63,0
157280,note_on,,,,,64,0,1,,,,,0,,,87,45
157300,note_on,,,,,20,0,1,,,,,0,,,78,32
157316,note_on,,,,,16,0,1,,,,,0,,,81,39
157460,note_on,,,,,144,0,1,,,,,0,,,63,34
157476,note_off,,,,,16,0,1,,,,,0,,,87,0
157500,note_off,,,,,24,0,1,,,,,0,,,81,0
157516,note_off,,,,,16,0,1,,,,,0,,,78,0
157616,note_off,,,,,100,0,1,,,,,0,,,75,0
157640,note_on,,,,,24,0,1,,,,,0,,,66,47
157664,note_off,,,,,24,0,1,,,,,0,,,63,0
157776,note_off,,,,,112,0,1,,,,,0,,,66,0
157828,note_on,,,,,52,0,1,,,,,0,,,69,45
157996,note_on,,,,,168,0,1,,,,,0,,,66,46
158044,note_off,,,,,48,0,1,,,,,0,,,69,0
158164,note_off,,,,,120,0,1,,,,,0,,,66,0
158164,note_on,,,,,0,0,1,,,,,0,,,63,42
158260,note_off,,,,,96,0,1,,,,,0,,,63,0
158288,note_on,,,,,28,0,1,,,,,0,,,35,47
158424,note_on,,,,,136,0,1,,,,,0,,,50,51
158452,control_change,,,,,28,0,1,,,64,88,0,,,,
158468,control_change,,,,,16,0,1,,,64,0,0,,,,
158572,note_off,,,,,104,0,1,,,,,0,,,35,0
158572,control_change,,,,,0,0,1,,,64,127,0,,,,
158580,note_off,,,,,8,0,1,,,,,0,,,50,0
158584,note_on,,,,,4,0,1,,,,,0,,,56,53
158720,note_off,,,,,136,0,1,,,,,0,,,56,0
158808,note_on,,,,,88,0,1,,,,,0,,,62,41
158896,note_off,,,,,88,0,1,,,,,0,,,62,0
158964,note_on,,,,,68,0,1,,,,,0,,,66,54
159176,note_on,,,,,212,0,1,,,,,0,,,78,38
159180,note_off,,,,,4,0,1,,,,,0,,,66,0
159180,note_on,,,,,0,0,1,,,,,0,,,80,35
159188,note_on,,,,,8,0,1,,,,,0,,,62,44
159268,note_off,,,,,80,0,1,,,,,0,,,80,0
159296,note_off,,,,,28,0,1,,,,,0,,,78,0
159320,note_off,,,,,24,0,1,,,,,0,,,62,0
159352,note_on,,,,,32,0,1,,,,,0,,,56,54
159508,note_off,,,,,156,0,1,,,,,0,,,56,0
159572,note_on,,,,,64,0,1,,,,,0,,,68,62
159584,note_on,,,,,12,0,1,,,,,0,,,80,33
159608,note_on,,,,,0,0,1,,,,,0,,,74,40
159608,note_on,,,,,24,0,1,,,,,0,,,77,45
159792,note_on,,,,,184,0,1,,,,,0,,,56,49
159916,note_off,,,,,124,0,1,,,,,0,,,77,0
159916,note_off,,,,,0,0,1,,,,,0,,,80,0
159944,note_off,,,,,28,0,1,,,,,0,,,74,0
159972,note_off,,,,,28,0,1,,,,,0,,,56,0
160008,note_on,,,,,36,0,1,,,,,0,,,62,46
160156,note_off,,,,,148,0,1,,,,,0,,,62,0
160208,note_on,,,,,52,0,1,,,,,0,,,65,48
160404,note_on,,,,,196,0,1,,,,,0,,,62,40
160420,note_off,,,,,16,0,1,,,,,0,,,65,0
160568,note_on,,,,,148,0,1,,,,,0,,,56,46
160588,note_off,,,,,20,0,1,,,,,0,,,62,0
160656,note_off,,,,,68,0,1,,,,,0,,,56,0
160692,note_off,,,,,36,0,1,,,,,0,,,68,0
160916,note_on,,,,,224,0,1,,,,,0,,,73,67
160944,note_on,,,,,28,0,1,,,,,0,,,49,43
160948,note_on,,,,,4,0,1,,,,,0,,,34,47
161028,control_change,,,,,80,0,1,,,64,40,0,,,,
161048,control_change,,,,,20,0,1,,,64,0,0,,,,
161136,note_on,,,,,88,0,1,,,,,0,,,61,54
161168,control_change,,,,,32,0,1,,,64,127,0,,,,
161176,note_off,,,,,8,0,1,,,,,0,,,34,0
161240,note_off,,,,,64,0,1,,,,,0,,,49,0
161264,note_off,,,,,24,0,1,,,,,0,,,61,0
161340,note_on,,,,,76,0,1,,,,,0,,,65,52
161448,note_off,,,,,108,0,1,,,,,0,,,65,0
161520,note_on,,,,,72,0,1,,,,,0,,,68,49
161640,note_off,,,,,120,0,1,,,,,0,,,68,0
161732,note_on,,,,,92,0,1,,,,,0,,,65,45
161740,note_on,,,,,8,0,1,,,,,0,,,85,53
161764,note_on,,,,,0,0,1,,,,,0,,,77,40
161764,note_on,,,,,24,0,1,,,,,0,,,80,42
161848,note_off,,,,,84,0,1,,,,,0,,,77,0
161880,note_off,,,,,0,0,1,,,,,0,,,85,0
161880,note_off,,,,,32,0,1,,,,,0,,,65,0
161884,note_off,,,,,4,0,1,,,,,0,,,80,0
161936,note_on,,,,,52,0,1,,,,,0,,,61,50
162084,note_off,,,,,148,0,1,,,,,0,,,61,0
162184,note_on,,,,,100,0,1,,,,,0,,,85,45
162200,note_on,,,,,16,0,1,,,,,0,,,76,53
162204,note_on,,,,,4,0,1,,,,,0,,,80,46
162300,control_change,,,,,96,0,1,,,64,56,0,,,,
162320,control_change,,,,,20,0,1,,,64,0,0,,,,
162352,control_change,,,,,32,0,1,,,64,24,0,,,,
162368,control_change,,,,,16,0,1,,,64,72,0,,,,
162392,control_change,,,,,24,0,1,,,64,127,0,,,,
162404,note_on,,,,,12,0,1,,,,,0,,,61,39
162524,note_off,,,,,120,0,1,,,,,0,,,76,0
162560,note_off,,,,,36,0,1,,,,,0,,,80,0
162568,note_off,,,,,8,0,1,,,,,0,,,85,0
162592,note_off,,,,,24,0,1,,,,,0,,,61,0
162620,note_on,,,,,28,0,1,,,,,0,,,64,43
162624,note_off,,,,,4,0,1,,,,,0,,,73,0
162668,note_off,,,,,44,0,1,,,,,0,,,64,0
162800,note_on,,,,,132,0,1,,,,,0,,,68,55
162920,note_off,,,,,120,0,1,,,,,0,,,68,0
163056,note_on,,,,,136,0,1,,,,,0,,,72,73
163088,note_on,,,,,32,0,1,,,,,0,,,64,50
163264,note_off,,,,,176,0,1,,,,,0,,,72,0
163288,note_off,,,,,24,0,1,,,,,0,,,64,0
163300,note_on,,,,,12,0,1,,,,,0,,,61,38
163564,note_off,,,,,264,0,1,,,,,0,,,61,0
163660,note_on,,,,,96,0,1,,,,,0,,,72,77
163672,note_on,,,,,12,0,1,,,,,0,,,39,33
163780,control_change,,,,,108,0,1,,,64,104,0,,,,
163800,control_change,,,,,20,0,1,,,64,0,0,,,,
163892,note_on,,,,,92,0,1,,,,,0,,,61,46
163920,control_change,,,,,28,0,1,,,64,72,0,,,,
163940,control_change,,,,,20,0,1,,,64,127,0,,,,
164016,note_off,,,,,76,0,1,,,,,0,,,72,0
164080,note_off,,,,,64,0,1,,,,,0,,,61,0
164100,note_on,,,,,20,0,1,,,,,0,,,64,42
164236,note_off,,,,,136,0,1,,,,,0,,,64,0
164280,note_on,,,,,44,0,1,,,,,0,,,67,48
164412,note_off,,,,,132,0,1,,,,,0,,,67,0
164472,note_on,,,,,60,0,1,,,,,0,,,70,73
164504,note_on,,,,,32,0,1,,,,,0,,,64,59
164608,note_off,,,,,104,0,1,,,,,0,,,39,0
164636,note_off,,,,,28,0,1,,,,,0,,,64,0
164684,note_on,,,,,48,0,1,,,,,0,,,61,43
164692,note_off,,,,,8,0,1,,,,,0,,,70,0
164840,note_off,,,,,148,0,1,,,,,0,,,61,0
164932,note_on,,,,,92,0,1,,,,,0,,,72,76
164980,note_on,,,,,48,0,1,,,,,0,,,55,44
165108,control_change,,,,,128,0,1,,,64,104,0,,,,
165124,control_change,,,,,16,0,1,,,64,0,0,,,,
165140,note_on,,,,,16,0,1,,,,,0,,,61,49
165228,control_change,,,,,88,0,1,,,64,127,0,,,,
165272,note_off,,,,,44,0,1,,,,,0,,,72,0
165324,note_on,,,,,52,0,1,,,,,0,,,63,47
165348,note_off,,,,,24,0,1,,,,,0,,,61,0
165484,note_off,,,,,136,0,1,,,,,0,,,63,0
165528,note_on,,,,,44,0,1,,,,,0,,,67,46
165652,note_off,,,,,124,0,1,,,,,0,,,67,0
165764,note_on,,,,,112,0,1,,,,,0,,,63,48
165768,note_on,,,,,4,0,1,,,,,0,,,70,63
165912,note_off,,,,,144,0,1,,,,,0,,,55,0
165984,note_off,,,,,72,0,1,,,,,0,,,63,0
165984,note_on,,,,,0,0,1,,,,,0,,,61,40
166084,note_off,,,,,100,0,1,,,,,0,,,61,0
166172,note_off,,,,,88,0,1,,,,,0,,,70,0
166184,note_on,,,,,12,0,1,,,,,0,,,60,39
166304,note_on,,,,,120,0,1,,,,,0,,,63,42
166448,note_on,,,,,144,0,1,,,,,0,,,68,65
166536,control_change,,,,,88,0,1,,,64,88,0,,,,
166552,control_change,,,,,16,0,1,,,64,0,0,,,,
166724,control_change,,,,,172,0,1,,,64,104,0,,,,
166744,control_change,,,,,20,0,1,,,64,127,0,,,,
166772,note_on,,,,,28,0,1,,,,,0,,,32,42
167040,note_on,,,,,268,0,1,,,,,0,,,44,44
167052,note_off,,,,,12,0,1,,,,,0,,,32,0
167112,note_off,,,,,60,0,1,,,,,0,,,44,0
167204,note_off,,,,,92,0,1,,,,,0,,,60,0
167280,note_on,,,,,76,0,1,,,,,0,,,51,53
167496,note_on,,,,,216,0,1,,,,,0,,,56,52
167508,note_off,,,,,12,0,1,,,,,0,,,68,0
167536,note_off,,,,,28,0,1,,,,,0,,,63,0
167572,note_off,,,,,36,0,1,,,,,0,,,51,0
167580,note_off,,,,,8,0,1,,,,,0,,,56,0
167700,note_on,,,,,120,0,1,,,,,0,,,60,54
167896,note_on,,,,,196,0,1,,,,,0,,,63,50
167932,note_off,,,,,36,0,1,,,,,0,,,60,0
168096,note_on,,,,,164,0,1,,,,,0,,,68,59
168100,note_off,,,,,4,0,1,,,,,0,,,63,0
168184,note_off,,,,,84,0,1,,,,,0,,,68,0
168328,note_on,,,,,144,0,1,,,,,0,,,72,72
168504,note_off,,,,,176,0,1,,,,,0,,,72,0
168536,note_on,,,,,32,0,1,,,,,0,,,75,70
168744,note_off,,,,,208,0,1,,,,,0,,,75,0
168772,note_on,,,,,28,0,1,,,,,0,,,80,72
169012,note_off,,,,,240,0,1,,,,,0,,,80,0
169036,note_on,,,,,24,0,1,,,,,0,,,82,73
169212,note_off,,,,,176,0,1,,,,,0,,,82,0
169436,note_on,,,,,224,0,1,,,,,0,,,84,75
169460,note_on,,,,,24,0,1,,,,,0,,,75,39
169464,note_on,,,,,4,0,1,,,,,0,,,68,39
169472,note_on,,,,,8,0,1,,,,,0,,,72,39
169620,control_change,,,,,148,0,1,,,64,88,0,,,,
169640,control_change,,,,,20,0,1,,,64,0,0,,,,
169760,control_change,,,,,120,0,1,,,64,56,0,,,,
169776,control_change,,,,,16,0,1,,,64,127,0,,,,
169952,note_off,,,,,176,0,1,,,,,0,,,84,0
169960,note_off,,,,,8,0,1,,,,,0,,,72,0
169976,note_off,,,,,16,0,1,,,,,0,,,75,0
169984,note_off,,,,,8,0,1,,,,,0,,,68,0
170356,note_on,,,,,372,0,1,,,,,0,,,84,71
170376,note_on,,,,,20,0,1,,,,,0,,,70,44
170384,note_on,,,,,8,0,1,,,,,0,,,76,48
170396,note_on,,,,,12,0,1,,,,,0,,,67,40
170408,control_change,,,,,12,0,1,,,64,104,0,,,,
170424,control_change,,,,,16,0,1,,,64,24,0,,,,
170440,control_change,,,,,16,0,1,,,64,0,0,,,,
170528,control_change,,,,,88,0,1,,,64,104,0,,,,
170544,control_change,,,,,16,0,1,,,64,127,0,,,,
170552,note_off,,,,,8,0,1,,,,,0,,,76,0
170576,note_off,,,,,24,0,1,,,,,0,,,67,0
170580,note_off,,,,,4,0,1,,,,,0,,,70,0
170612,note_off,,,,,32,0,1,,,,,0,,,84,0
170816,note_on,,,,,204,0,1,,,,,0,,,84,81
170840,note_on,,,,,24,0,1,,,,,0,,,77,58
170844,note_on,,,,,4,0,1,,,,,0,,,65,41
170844,note_on,,,,,0,0,1,,,,,0,,,69,40
170876,control_change,,,,,32,0,1,,,64,88,0,,,,
170892,control_change,,,,,16,0,1,,,64,0,0,,,,
170936,note_off,,,,,44,0,1,,,,,0,,,77,0
170944,control_change,,,,,8,0,1,,,64,40,0,,,,
170956,note_off,,,,,12,0,1,,,,,0,,,65,0
170964,control_change,,,,,8,0,1,,,64,104,0,,,,
170980,control_change,,,,,16,0,1,,,64,127,0,,,,
171004,note_off,,,,,0,0,1,,,,,0,,,69,0
171004,note_off,,,,,24,0,1,,,,,0,,,84,0
171252,note_on,,,,,248,0,1,,,,,0,,,85,84
171272,note_on,,,,,20,0,1,,,,,0,,,78,55
171288,note_on,,,,,16,0,1,,,,,0,,,63,46
171292,note_on,,,,,4,0,1,,,,,0,,,69,46
171312,control_change,,,,,20,0,1,,,64,24,0,,,,
171328,control_change,,,,,16,0,1,,,64,0,0,,,,
171416,control_change,,,,,88,0,1,,,64,88,0,,,,
171428,control_change,,,,,12,0,1,,,64,127,0,,,,
171468,note_off,,,,,40,0,1,,,,,0,,,69,0
171488,note_off,,,,,20,0,1,,,,,0,,,63,0
171504,note_off,,,,,16,0,1,,,,,0,,,85,0
171540,note_off,,,,,36,0,1,,,,,0,,,78,0
171732,note_on,,,,,192,0,1,,,,,0,,,84,78
171752,note_on,,,,,20,0,1,,,,,0,,,78,49
171752,note_on,,,,,0,0,1,,,,,0,,,69,44
171764,note_on,,,,,12,0,1,,,,,0,,,63,37
171800,control_change,,,,,36,0,1,,,64,72,0,,,,
171816,control_change,,,,,16,0,1,,,64,0,0,,,,
171868,control_change,,,,,52,0,1,,,64,40,0,,,,
171884,control_change,,,,,16,0,1,,,64,127,0,,,,
171900,note_off,,,,,16,0,1,,,,,0,,,78,0
171912,note_off,,,,,12,0,1,,,,,0,,,69,0
171924,note_off,,,,,12,0,1,,,,,0,,,63,0
171952,note_off,,,,,28,0,1,,,,,0,,,84,0
172420,note_on,,,,,468,0,1,,,,,0,,,89,68
172436,note_on,,,,,16,0,1,,,,,0,,,80,42
172444,note_on,,,,,8,0,1,,,,,0,,,71,32
172448,note_on,,,,,4,0,1,,,,,0,,,62,34
172584,control_change,,,,,136,0,1,,,64,72,0,,,,
172600,control_change,,,,,16,0,1,,,64,0,0,,,,
172808,control_change,,,,,208,0,1,,,64,104,0,,,,
172824,control_change,,,,,16,0,1,,,64,127,0,,,,
172952,note_off,,,,,128,0,1,,,,,0,,,62,0
172988,note_off,,,,,36,0,1,,,,,0,,,71,0
173024,note_off,,,,,36,0,1,,,,,0,,,89,0
173024,note_off,,,,,0,0,1,,,,,0,,,80,0
174596,note_on,,,,,1572,0,1,,,,,0,,,82,53
174620,note_on,,,,,24,0,1,,,,,0,,,73,34
174632,note_on,,,,,12,0,1,,,,,0,,,66,32
174636,note_on,,,,,4,0,1,,,,,0,,,70,27
174676,control_change,,,,,40,0,1,,,64,56,0,,,,
174692,control_change,,,,,16,0,1,,,64,0,0,,,,
174884,control_change,,,,,192,0,1,,,64,88,0,,,,
174900,control_change,,,,,16,0,1,,,64,127,0,,,,
175048,note_off,,,,,0,0,1,,,,,0,,,70,0
175048,note_off,,,,,148,0,1,,,,,0,,,66,0
175076,note_off,,,,,28,0,1,,,,,0,,,73,0
175108,note_off,,,,,32,0,1,,,,,0,,,82,0
175480,note_on,,,,,372,0,1,,,,,0,,,82,64
175508,note_on,,,,,28,0,1,,,,,0,,,74,58
175512,note_on,,,,,4,0,1,,,,,0,,,68,28
175532,note_on,,,,,20,0,1,,,,,0,,,64,46
175548,control_change,,,,,16,0,1,,,64,72,0,,,,
175564,control_change,,,,,16,0,1,,,64,0,0,,,,
175616,note_off,,,,,52,0,1,,,,,0,,,74,0
175648,control_change,,,,,32,0,1,,,64,56,0,,,,
175664,control_change,,,,,16,0,1,,,64,127,0,,,,
175688,note_off,,,,,24,0,1,,,,,0,,,64,0
175716,note_off,,,,,28,0,1,,,,,0,,,82,0
175752,note_off,,,,,36,0,1,,,,,0,,,68,0
175928,note_on,,,,,176,0,1,,,,,0,,,82,73
175948,note_on,,,,,20,0,1,,,,,0,,,75,61
175956,note_on,,,,,0,0,1,,,,,0,,,67,44
175956,note_on,,,,,8,0,1,,,,,0,,,63,39
175964,control_change,,,,,8,0,1,,,64,88,0,,,,
175980,control_change,,,,,16,0,1,,,64,24,0,,,,
176000,control_change,,,,,20,0,1,,,64,0,0,,,,
176048,control_change,,,,,48,0,1,,,64,24,0,,,,
176068,control_change,,,,,20,0,1,,,64,88,0,,,,
176084,control_change,,,,,16,0,1,,,64,127,0,,,,
176088,note_off,,,,,4,0,1,,,,,0,,,75,0
176108,note_off,,,,,20,0,1,,,,,0,,,67,0
176120,note_off,,,,,12,0,1,,,,,0,,,63,0
176140,note_off,,,,,20,0,1,,,,,0,,,82,0
176328,note_on,,,,,188,0,1,,,,,0,,,84,86
176348,note_on,,,,,20,0,1,,,,,0,,,61,48
176356,note_on,,,,,8,0,1,,,,,0,,,76,62
176356,note_on,,,,,0,0,1,,,,,0,,,67,49
176364,control_change,,,,,8,0,1,,,64,104,0,,,,
176384,control_change,,,,,20,0,1,,,64,0,0,,,,
176452,control_change,,,,,68,0,1,,,64,24,0,,,,
176468,control_change,,,,,16,0,1,,,64,104,0,,,,
176484,control_change,,,,,16,0,1,,,64,127,0,,,,
176496,note_off,,,,,12,0,1,,,,,0,,,67,0
176508,note_off,,,,,12,0,1,,,,,0,,,76,0
176520,note_off,,,,,12,0,1,,,,,0,,,61,0
176564,note_off,,,,,44,0,1,,,,,0,,,84,0
176828,note_on,,,,,264,0,1,,,,,0,,,82,69
176860,note_on,,,,,32,0,1,,,,,0,,,61,33
176864,note_on,,,,,4,0,1,,,,,0,,,76,44
176872,note_on,,,,,8,0,1,,,,,0,,,67,40
176888,control_change,,,,,16,0,1,,,64,88,0,,,,
176900,control_change,,,,,12,0,1,,,64,0,0,,,,
176940,control_change,,,,,40,0,1,,,64,24,0,,,,
176956,control_change,,,,,16,0,1,,,64,72,0,,,,
176972,control_change,,,,,16,0,1,,,64,127,0,,,,
177000,note_off,,,,,28,0,1,,,,,0,,,76,0
177016,note_off,,,,,16,0,1,,,,,0,,,61,0
177088,note_off,,,,,72,0,1,,,,,0,,,67,0
177108,note_off,,,,,20,0,1,,,,,0,,,82,0
177556,note_on,,,,,448,0,1,,,,,0,,,87,65
177584,note_on,,,,,28,0,1,,,,,0,,,78,35
177596,note_on,,,,,12,0,1,,,,,0,,,69,43
177608,note_on,,,,,12,0,1,,,,,0,,,60,41
177740,control_change,,,,,132,0,1,,,64,88,0,,,,
177756,control_change,,,,,16,0,1,,,64,0,0,,,,
177964,control_change,,,,,208,0,1,,,64,56,0,,,,
177988,control_change,,,,,24,0,1,,,64,104,0,,,,
178004,control_change,,,,,16,0,1,,,64,127,0,,,,
178592,note_off,,,,,588,0,1,,,,,0,,,60,0
178608,note_off,,,,,16,0,1,,,,,0,,,69,0
178676,note_off,,,,,68,0,1,,,,,0,,,78,0
178680,note_off,,,,,4,0,1,,,,,0,,,87,0
179656,control_change,,,,,976,0,1,,,64,72,0,,,,
179672,control_change,,,,,16,0,1,,,64,0,0,,,,
179744,control_change,,,,,72,0,1,,,64,56,0,,,,
179760,note_on,,,,,16,0,1,,,,,0,,,37,42
179764,control_change,,,,,4,0,1,,,64,127,0,,,,
179852,note_off,,,,,88,0,1,,,,,0,,,37,0
180000,note_on,,,,,148,0,1,,,,,0,,,57,48
180084,note_off,,,,,84,0,1,,,,,0,,,57,0
180168,note_on,,,,,84,0,1,,,,,0,,,61,50
180340,note_on,,,,,172,0,1,,,,,0,,,64,70
180376,note_off,,,,,36,0,1,,,,,0,,,61,0
180680,note_on,,,,,304,0,1,,,,,0,,,61,1
180680,note_on,,,,,0,0,1,,,,,0,,,73,75
181724,note_off,,,,,1044,0,1,,,,,0,,,73,0
181732,note_off,,,,,8,0,1,,,,,0,,,61,0
181736,note_off,,,,,4,0,1,,,,,0,,,64,0
182360,control_change,,,,,624,0,1,,,64,72,0,,,,
182376,control_change,,,,,16,0,1,,,64,0,0,,,,
182412,note_on,,,,,36,0,1,,,,,0,,,39,40
182428,control_change,,,,,16,0,1,,,64,40,0,,,,
182444,control_change,,,,,16,0,1,,,64,127,0,,,,
182516,note_off,,,,,72,0,1,,,,,0,,,39,0
182640,note_on,,,,,124,0,1,,,,,0,,,56,46
182796,note_on,,,,,156,0,1,,,,,0,,,61,50
182924,note_on,,,,,128,0,1,,,,,0,,,65,63
183136,note_on,,,,,212,0,1,,,,,0,,,70,74
183936,note_off,,,,,800,0,1,,,,,0,,,65,0
184184,note_off,,,,,248,0,1,,,,,0,,,56,0
184328,note_on,,,,,144,0,1,,,,,0,,,55,33
184468,control_change,,,,,140,0,1,,,64,104,0,,,,
184484,control_change,,,,,16,0,1,,,64,40,0,,,,
184504,control_change,,,,,20,0,1,,,64,0,0,,,,
184572,control_change,,,,,68,0,1,,,64,56,0,,,,
184588,control_change,,,,,16,0,1,,,64,127,0,,,,
184772,note_off,,,,,184,0,1,,,,,0,,,70,0
184780,note_on,,,,,8,0,1,,,,,0,,,63,45
185012,note_off,,,,,232,0,1,,,,,0,,,61,0
185340,note_on,,,,,328,0,1,,,,,0,,,72,66
185592,note_off,,,,,252,0,1,,,,,0,,,72,0
185644,note_off,,,,,52,0,1,,,,,0,,,55,0
185820,note_off,,,,,176,0,1,,,,,0,,,63,0
186132,note_on,,,,,312,0,1,,,,,0,,,68,56
186156,note_on,,,,,24,0,1,,,,,0,,,60,42
186160,note_on,,,,,4,0,1,,,,,0,,,44,32
186164,note_on,,,,,4,0,1,,,,,0,,,51,33
186292,control_change,,,,,128,0,1,,,64,104,0,,,,
186308,control_change,,,,,16,0,1,,,64,24,0,,,,
186328,control_change,,,,,20,0,1,,,64,0,0,,,,
186520,control_change,,,,,192,0,1,,,64,24,0,,,,
186540,control_change,,,,,20,0,1,,,64,88,0,,,,
186556,control_change,,,,,16,0,1,,,64,127,0,,,,
187528,note_off,,,,,972,0,1,,,,,0,,,51,0
187676,note_off,,,,,148,0,1,,,,,0,,,60,0
187720,note_on,,,,,44,0,1,,,,,0,,,59,42
187776,note_on,,,,,56,0,1,,,,,0,,,50,27
188092,note_off,,,,,316,0,1,,,,,0,,,59,0
188180,note_off,,,,,88,0,1,,,,,0,,,50,0
188188,note_on,,,,,8,0,1,,,,,0,,,60,58
188228,note_on,,,,,40,0,1,,,,,0,,,51,43
188260,note_off,,,,,32,0,1,,,,,0,,,44,0
188456,note_off,,,,,196,0,1,,,,,0,,,51,0
188544,note_on,,,,,88,0,1,,,,,0,,,44,30
188640,note_off,,,,,96,0,1,,,,,0,,,68,0
188688,note_on,,,,,48,0,1,,,,,0,,,55,39
188748,note_off,,,,,60,0,1,,,,,0,,,60,0
188800,control_change,,,,,52,0,1,,,64,24,0,,,,
188816,control_change,,,,,0,0,1,,,64,40,0,,,,
188816,note_on,,,,,16,0,1,,,,,0,,,56,44
188836,control_change,,,,,20,0,1,,,64,72,0,,,,
188852,control_change,,,,,16,0,1,,,64,88,0,,,,
188872,control_change,,,,,20,0,1,,,64,104,0,,,,
188888,control_change,,,,,16,0,1,,,64,127,0,,,,
188972,note_on,,,,,84,0,1,,,,,0,,,63,58
189144,note_on,,,,,172,0,1,,,,,0,,,68,64
189864,note_off,,,,,720,0,1,,,,,0,,,63,0
189880,note_off,,,,,16,0,1,,,,,0,,,55,0
189932,note_on,,,,,52,0,1,,,,,0,,,61,49
189952,note_on,,,,,20,0,1,,,,,0,,,53,35
190120,control_change,,,,,168,0,1,,,64,104,0,,,,
190136,control_change,,,,,16,0,1,,,64,72,0,,,,
190156,control_change,,,,,20,0,1,,,64,40,0,,,,
190172,control_change,,,,,16,0,1,,,64,0,0,,,,
190376,control_change,,,,,204,0,1,,,64,40,0,,,,
190392,control_change,,,,,16,0,1,,,64,72,0,,,,
190412,control_change,,,,,20,0,1,,,64,127,0,,,,
190672,note_off,,,,,260,0,1,,,,,0,,,61,0
191036,note_off,,,,,364,0,1,,,,,0,,,53,0
191208,note_on,,,,,172,0,1,,,,,0,,,60,48
191220,note_on,,,,,12,0,1,,,,,0,,,51,29
191416,note_off,,,,,0,0,1,,,,,0,,,51,0
191416,note_off,,,,,196,0,1,,,,,0,,,60,0
191440,note_off,,,,,24,0,1,,,,,0,,,44,0
191908,note_on,,,,,468,0,1,,,,,0,,,60,40
191944,note_on,,,,,36,0,1,,,,,0,,,32,29
192016,control_change,,,,,72,0,1,,,64,104,0,,,,
192040,control_change,,,,,24,0,1,,,64,56,0,,,,
192056,control_change,,,,,16,0,1,,,64,0,0,,,,
192200,control_change,,,,,144,0,1,,,64,56,0,,,,
192216,control_change,,,,,16,0,1,,,64,127,0,,,,
192376,note_off,,,,,160,0,1,,,,,0,,,32,0
192416,note_on,,,,,40,0,1,,,,,0,,,44,33
192456,note_off,,,,,40,0,1,,,,,0,,,56,0
192616,note_off,,,,,160,0,1,,,,,0,,,44,0
192736,note_on,,,,,120,0,1,,,,,0,,,51,35
192840,note_off,,,,,104,0,1,,,,,0,,,60,0
193084,note_on,,,,,244,0,1,,,,,0,,,56,28
193124,note_off,,,,,40,0,1,,,,,0,,,68,0
193216,note_off,,,,,92,0,1,,,,,0,,,51,0
193280,note_off,,,,,64,0,1,,,,,0,,,56,0
193460,note_on,,,,,180,0,1,,,,,0,,,60,39
193984,note_off,,,,,524,0,1,,,,,0,,,60,0
194056,note_on,,,,,72,0,1,,,,,0,,,68,43
194652,note_off,,,,,596,0,1,,,,,0,,,68,0
195600,control_change,,,,,948,0,1,,,64,104,0,,,,
195616,control_change,,,,,16,0,1,,,64,72,0,,,,
195636,control_change,,,,,20,0,1,,,64,40,0,,,,
195652,control_change,,,,,16,0,1,,,64,24,0,,,,
195672,control_change,,,,,20,0,1,,,64,0,0,,,,
196740,control_change,,,,,1068,0,1,,,64,104,0,,,,
196764,control_change,,,,,24,0,1,,,64,88,0,,,,
196800,control_change,,,,,36,0,1,,,64,72,0,,,,
196816,control_change,,,,,16,0,1,,,64,56,0,,,,
196836,control_change,,,,,20,0,1,,,64,40,0,,,,
196852,control_change,,,,,16,0,1,,,64,24,0,,,,
196872,control_change,,,,,20,0,1,,,64,0,0,,,,
196872,end_of_track,,,,,0,1,1,,,,,,,,,
