tick,type,time,meta,track,numerator,denominator,clocks_per_click,notated_32nd_notes_per_beat,key,tempo,port,program,channel,control,value,note,velocity
0,control_change,0,0,1,,,,,,,,,0,7,127,,
0,control_change,0,0,3,,,,,,,,,2,7,127,,
0,control_change,0,0,3,,,,,,,,,2,10,30,,
0,control_change,0,0,4,,,,,,,,,3,7,127,,
0,control_change,0,0,4,,,,,,,,,3,10,30,,
0,copyright,0,1,0,,,,,,,,,,,,,
0,key_signature,0,1,0,,,,,Db,,,,,,,,
0,midi_port,0,1,1,,,,,,,0,,,,,,
0,midi_port,0,1,2,,,,,,,0,,,,,,
0,midi_port,0,1,3,,,,,,,0,,,,,,
0,midi_port,0,1,4,,,,,,,0,,,,,,
0,track_name,0,1,3,,,,,,,,,,,,,
0,program_change,0,0,1,,,,,,,,0,0,,,,
0,program_change,0,0,2,,,,,,,,0,1,,,,
0,program_change,0,0,3,,,,,,,,0,2,,,,
0,program_change,0,0,4,,,,,,,,0,3,,,,
0,set_tempo,0,1,0,,,,,,612245,,,,,,,
0,text,0,1,0,,,,,,,,,,,,,
0,time_signature,0,1,0,2,4,24,8,,,,,,,,,
0,track_name,0,1,0,,,,,,,,,,,,,
0,track_name,0,1,1,,,,,,,,,,,,,
0,track_name,0,1,2,,,,,,,,,,,,,
0,control_change,0,0,2,,,,,,,,,1,10,97,,
0,control_change,0,0,2,,,,,,,,,1,7,127,,
0,track_name,0,1,4,,,,,,,,,,,,,
0,control_change,0,0,1,,,,,,,,,0,10,97,,
20,note_on,20,0,1,,,,,,,,,0,,,56,62
39,note_on,19,0,1,,,,,,,,,0,,,65,62
40,note_on,1,0,1,,,,,,,,,0,,,56,0
59,note_on,19,0,1,,,,,,,,,0,,,65,0
60,note_on,1,0,1,,,,,,,,,0,,,61,62
80,note_on,20,0,1,,,,,,,,,0,,,61,0
80,note_on,0,0,1,,,,,,,,,0,,,68,62
99,note_on,19,0,1,,,,,,,,,0,,,65,62
100,note_on,1,0,1,,,,,,,,,0,,,68,0
119,note_on,19,0,1,,,,,,,,,0,,,65,0
120,note_on,1,0,1,,,,,,,,,0,,,73,88
180,note_on,60,0,1,,,,,,,,,0,,,73,0
180,note_on,0,0,1,,,,,,,,,0,,,68,62
210,note_on,30,0,1,,,,,,,,,0,,,68,0
260,note_on,50,0,1,,,,,,,,,0,,,56,62
279,note_on,19,0,1,,,,,,,,,0,,,65,62
280,note_on,1,0,1,,,,,,,,,0,,,56,0
299,note_on,19,0,1,,,,,,,,,0,,,65,0
300,note_on,1,0,1,,,,,,,,,0,,,61,62
320,note_on,0,0,1,,,,,,,,,0,,,68,62
320,note_on,20,0,1,,,,,,,,,0,,,61,0
339,note_on,19,0,1,,,,,,,,,0,,,65,62
340,note_on,1,0,1,,,,,,,,,0,,,68,0
359,note_on,19,0,1,,,,,,,,,0,,,65,0
360,note_on,1,0,1,,,,,,,,,0,,,73,80
360,note_on,360,0,3,,,,,,,,,2,,,68,49
360,note_on,0,0,1,,,,,,,,,0,,,77,88
420,note_on,0,0,3,,,,,,,,,2,,,65,49
420,note_on,0,0,1,,,,,,,,,0,,,73,62
420,note_on,0,0,1,,,,,,,,,0,,,73,0
420,note_on,0,0,1,,,,,,,,,0,,,68,62
420,note_on,60,0,3,,,,,,,,,2,,,68,0
420,note_on,60,0,1,,,,,,,,,0,,,77,0
450,note_on,30,0,1,,,,,,,,,0,,,73,0
450,note_on,30,0,3,,,,,,,,,2,,,65,0
450,note_on,0,0,1,,,,,,,,,0,,,68,0
500,note_on,50,0,1,,,,,,,,,0,,,57,62
519,note_on,19,0,1,,,,,,,,,0,,,66,62
520,note_on,1,0,1,,,,,,,,,0,,,57,0
539,note_on,19,0,1,,,,,,,,,0,,,66,0
540,note_on,1,0,1,,,,,,,,,0,,,61,62
560,note_on,20,0,1,,,,,,,,,0,,,61,0
560,note_on,0,0,1,,,,,,,,,0,,,69,62
579,note_on,19,0,1,,,,,,,,,0,,,66,62
580,note_on,1,0,1,,,,,,,,,0,,,69,0
599,note_on,19,0,1,,,,,,,,,0,,,66,0
600,note_on,1,0,1,,,,,,,,,0,,,73,88
660,note_on,0,0,1,,,,,,,,,0,,,69,62
660,note_on,60,0,1,,,,,,,,,0,,,73,0
690,note_on,30,0,1,,,,,,,,,0,,,69,0
740,note_on,50,0,1,,,,,,,,,0,,,57,62
759,note_on,19,0,1,,,,,,,,,0,,,66,62
760,note_on,1,0,1,,,,,,,,,0,,,57,0
779,note_on,19,0,1,,,,,,,,,0,,,66,0
780,note_on,1,0,1,,,,,,,,,0,,,61,62
800,note_on,20,0,1,,,,,,,,,0,,,61,0
800,note_on,0,0,1,,,,,,,,,0,,,69,62
819,note_on,19,0,1,,,,,,,,,0,,,66,62
820,note_on,1,0,1,,,,,,,,,0,,,69,0
839,note_on,19,0,1,,,,,,,,,0,,,66,0
840,note_on,390,0,3,,,,,,,,,2,,,69,49
840,note_on,1,0,1,,,,,,,,,0,,,73,80
840,note_on,0,0,1,,,,,,,,,0,,,78,88
900,note_on,0,0,1,,,,,,,,,0,,,69,62
900,note_on,0,0,1,,,,,,,,,0,,,73,0
900,note_on,0,0,1,,,,,,,,,0,,,73,62
900,note_on,60,0,1,,,,,,,,,0,,,78,0
900,note_on,0,0,3,,,,,,,,,2,,,66,49
900,note_on,60,0,3,,,,,,,,,2,,,69,0
930,note_on,30,0,1,,,,,,,,,0,,,73,0
930,note_on,0,0,1,,,,,,,,,0,,,69,0
930,note_on,30,0,3,,,,,,,,,2,,,66,0
960,control_change,30,0,3,,,,,,,,,2,64,127,,
960,control_change,30,0,1,,,,,,,,,0,64,127,,
980,note_on,20,0,1,,,,,,,,,0,,,57,75
999,note_on,19,0,1,,,,,,,,,0,,,66,75
1000,note_on,1,0,1,,,,,,,,,0,,,57,0
1019,note_on,19,0,1,,,,,,,,,0,,,66,0
1020,note_on,1,0,1,,,,,,,,,0,,,62,75
1040,note_on,0,0,1,,,,,,,,,0,,,69,75
1040,note_on,20,0,1,,,,,,,,,0,,,62,0
1059,note_on,19,0,1,,,,,,,,,0,,,66,75
1060,note_on,1,0,1,,,,,,,,,0,,,69,0
1079,note_on,19,0,1,,,,,,,,,0,,,66,0
1080,note_on,120,0,3,,,,,,,,,2,,,74,75
1080,note_on,0,0,3,,,,,,,,,2,,,78,75
1100,note_on,21,0,1,,,,,,,,,0,,,62,75
1110,note_on,30,0,3,,,,,,,,,2,,,78,0
1110,note_on,0,0,3,,,,,,,,,2,,,74,0
1119,note_on,19,0,1,,,,,,,,,0,,,69,75
1120,note_on,1,0,1,,,,,,,,,0,,,62,0
1139,note_on,19,0,1,,,,,,,,,0,,,69,0
1140,note_on,1,0,1,,,,,,,,,0,,,66,75
1160,note_on,20,0,1,,,,,,,,,0,,,66,0
1160,note_on,0,0,1,,,,,,,,,0,,,74,75
1179,note_on,19,0,1,,,,,,,,,0,,,69,75
1180,note_on,1,0,1,,,,,,,,,0,,,74,0
1199,note_on,19,0,1,,,,,,,,,0,,,69,0
1200,note_on,90,0,3,,,,,,,,,2,,,78,75
1200,note_on,0,0,3,,,,,,,,,2,,,81,75
1220,note_on,21,0,1,,,,,,,,,0,,,66,75
1230,note_on,30,0,3,,,,,,,,,2,,,81,0
1230,note_on,0,0,3,,,,,,,,,2,,,78,0
1239,note_on,19,0,1,,,,,,,,,0,,,74,75
1240,note_on,1,0,1,,,,,,,,,0,,,66,0
1259,note_on,19,0,1,,,,,,,,,0,,,74,0
1260,note_on,1,0,1,,,,,,,,,0,,,69,75
1280,note_on,20,0,1,,,,,,,,,0,,,69,0
1280,note_on,0,0,1,,,,,,,,,0,,,78,75
1299,note_on,19,0,1,,,,,,,,,0,,,74,75
1300,note_on,1,0,1,,,,,,,,,0,,,78,0
1319,note_on,19,0,1,,,,,,,,,0,,,74,0
1320,note_on,0,0,3,,,,,,,,,2,,,86,75
1320,note_on,90,0,3,,,,,,,,,2,,,81,75
1340,note_on,21,0,1,,,,,,,,,0,,,69,75
1350,note_on,30,0,3,,,,,,,,,2,,,86,0
1350,note_on,0,0,3,,,,,,,,,2,,,81,0
1359,note_on,19,0,1,,,,,,,,,0,,,78,75
1360,note_on,1,0,1,,,,,,,,,0,,,69,0
1379,note_on,19,0,1,,,,,,,,,0,,,78,0
1380,note_on,1,0,1,,,,,,,,,0,,,74,75
1400,note_on,0,0,1,,,,,,,,,0,,,81,75
1400,note_on,20,0,1,,,,,,,,,0,,,74,0
1419,note_on,19,0,1,,,,,,,,,0,,,78,75
1420,note_on,1,0,1,,,,,,,,,0,,,81,0
1439,note_on,19,0,1,,,,,,,,,0,,,78,0
1440,note_on,90,0,3,,,,,,,,,2,,,86,75
1440,note_on,0,0,3,,,,,,,,,2,,,90,75
1460,note_on,21,0,1,,,,,,,,,0,,,69,75
1470,note_on,30,0,3,,,,,,,,,2,,,90,0
1470,note_on,0,0,3,,,,,,,,,2,,,86,0
1479,note_on,19,0,1,,,,,,,,,0,,,78,75
1480,note_on,1,0,1,,,,,,,,,0,,,69,0
1499,note_on,19,0,1,,,,,,,,,0,,,78,0
1500,note_on,1,0,1,,,,,,,,,0,,,74,75
1520,note_on,20,0,1,,,,,,,,,0,,,74,0
1520,note_on,0,0,1,,,,,,,,,0,,,81,75
1539,note_on,19,0,1,,,,,,,,,0,,,78,75
1540,note_on,1,0,1,,,,,,,,,0,,,81,0
1559,note_on,19,0,1,,,,,,,,,0,,,78,0
1560,note_on,0,0,3,,,,,,,,,2,,,90,88
1560,note_on,90,0,3,,,,,,,,,2,,,86,88
1580,note_on,21,0,1,,,,,,,,,0,,,69,88
1590,note_on,30,0,3,,,,,,,,,2,,,90,0
1590,note_on,0,0,3,,,,,,,,,2,,,86,0
1599,note_on,19,0,1,,,,,,,,,0,,,78,88
1600,note_on,1,0,1,,,,,,,,,0,,,69,0
1619,note_on,19,0,1,,,,,,,,,0,,,78,0
1620,note_on,1,0,1,,,,,,,,,0,,,73,88
1640,note_on,0,0,1,,,,,,,,,0,,,81,88
1640,note_on,20,0,1,,,,,,,,,0,,,73,0
1659,note_on,19,0,1,,,,,,,,,0,,,78,88
1660,note_on,1,0,1,,,,,,,,,0,,,81,0
1679,note_on,19,0,1,,,,,,,,,0,,,78,0
1680,note_on,90,0,3,,,,,,,,,2,,,86,88
1680,note_on,0,0,3,,,,,,,,,2,,,90,88
1700,note_on,21,0,1,,,,,,,,,0,,,68,88
1710,note_on,0,0,3,,,,,,,,,2,,,86,0
1710,note_on,30,0,3,,,,,,,,,2,,,90,0
1719,note_on,19,0,1,,,,,,,,,0,,,78,88
1720,note_on,1,0,1,,,,,,,,,0,,,68,0
1739,note_on,19,0,1,,,,,,,,,0,,,78,0
1740,note_on,1,0,1,,,,,,,,,0,,,72,88
1760,note_on,20,0,1,,,,,,,,,0,,,72,0
1760,note_on,0,0,1,,,,,,,,,0,,,80,88
1779,note_on,19,0,1,,,,,,,,,0,,,78,88
1780,note_on,1,0,1,,,,,,,,,0,,,80,0
1799,note_on,19,0,1,,,,,,,,,0,,,78,0
1800,note_on,0,0,3,,,,,,,,,2,,,90,88
1800,note_on,90,0,3,,,,,,,,,2,,,86,88
1820,note_on,21,0,1,,,,,,,,,0,,,69,88
1830,note_on,0,0,3,,,,,,,,,2,,,86,0
1830,note_on,30,0,3,,,,,,,,,2,,,90,0
1839,note_on,19,0,1,,,,,,,,,0,,,78,88
1840,note_on,1,0,1,,,,,,,,,0,,,69,0
1859,note_on,19,0,1,,,,,,,,,0,,,78,0
1860,note_on,1,0,1,,,,,,,,,0,,,73,88
1860,control_change,30,0,3,,,,,,,,,2,64,0,,
1880,note_on,0,0,1,,,,,,,,,0,,,81,88
1880,note_on,20,0,1,,,,,,,,,0,,,73,0
1899,note_on,0,0,1,,,,,,,,,0,,,78,88
1899,control_change,19,0,1,,,,,,,,,0,64,0,,
1900,note_on,1,0,1,,,,,,,,,0,,,81,0
1919,note_on,19,0,1,,,,,,,,,0,,,78,0
1920,control_change,1,0,1,,,,,,,,,0,64,127,,
1920,control_change,60,0,3,,,,,,,,,2,64,127,,
1920,note_on,0,0,3,,,,,,,,,2,,,86,88
1920,note_on,0,0,3,,,,,,,,,2,,,90,88
1940,note_on,20,0,1,,,,,,,,,0,,,68,88
1950,note_on,0,0,3,,,,,,,,,2,,,86,0
1950,note_on,30,0,3,,,,,,,,,2,,,90,0
1959,note_on,19,0,1,,,,,,,,,0,,,78,88
1960,note_on,1,0,1,,,,,,,,,0,,,68,0
1979,note_on,19,0,1,,,,,,,,,0,,,78,0
1980,control_change,30,0,3,,,,,,,,,2,64,0,,
1980,note_on,1,0,1,,,,,,,,,0,,,72,88
2000,note_on,0,0,1,,,,,,,,,0,,,80,88
2000,note_on,20,0,1,,,,,,,,,0,,,72,0
2019,control_change,19,0,1,,,,,,,,,0,64,0,,
2019,note_on,0,0,1,,,,,,,,,0,,,78,88
2020,note_on,1,0,1,,,,,,,,,0,,,80,0
2039,note_on,19,0,1,,,,,,,,,0,,,78,0
2040,control_change,1,0,1,,,,,,,,,0,64,127,,
2040,note_on,0,0,3,,,,,,,,,2,,,90,75
2040,control_change,60,0,3,,,,,,,,,2,64,127,,
2040,note_on,0,0,3,,,,,,,,,2,,,86,75
2060,note_on,20,0,1,,,,,,,,,0,,,69,75
2070,note_on,0,0,3,,,,,,,,,2,,,86,0
2070,note_on,30,0,3,,,,,,,,,2,,,90,0
2079,note_on,19,0,1,,,,,,,,,0,,,78,75
2080,note_on,1,0,1,,,,,,,,,0,,,69,0
2099,note_on,19,0,1,,,,,,,,,0,,,78,0
2100,note_on,1,0,1,,,,,,,,,0,,,73,75
2100,control_change,30,0,3,,,,,,,,,2,64,0,,
2120,note_on,20,0,1,,,,,,,,,0,,,73,0
2120,note_on,0,0,1,,,,,,,,,0,,,81,75
2139,control_change,19,0,1,,,,,,,,,0,64,0,,
2139,note_on,0,0,1,,,,,,,,,0,,,78,75
2140,note_on,1,0,1,,,,,,,,,0,,,81,0
2159,note_on,19,0,1,,,,,,,,,0,,,78,0
2160,note_on,0,0,3,,,,,,,,,2,,,90,62
2160,note_on,0,0,3,,,,,,,,,2,,,87,62
2160,control_change,1,0,1,,,,,,,,,0,64,127,,
2160,control_change,60,0,3,,,,,,,,,2,64,127,,
2180,note_on,20,0,1,,,,,,,,,0,,,68,62
2190,note_on,30,0,3,,,,,,,,,2,,,90,0
2190,note_on,0,0,3,,,,,,,,,2,,,87,0
2199,note_on,19,0,1,,,,,,,,,0,,,78,62
2200,note_on,1,0,1,,,,,,,,,0,,,68,0
2219,note_on,19,0,1,,,,,,,,,0,,,78,0
2220,note_on,1,0,1,,,,,,,,,0,,,72,62
2240,note_on,0,0,1,,,,,,,,,0,,,80,62
2240,note_on,20,0,1,,,,,,,,,0,,,72,0
2259,note_on,19,0,1,,,,,,,,,0,,,78,62
2260,note_on,1,0,1,,,,,,,,,0,,,80,0
2279,note_on,19,0,1,,,,,,,,,0,,,78,0
2280,note_on,1,0,1,,,,,,,,,0,,,87,62
2300,note_on,0,0,1,,,,,,,,,0,,,80,62
2300,note_on,20,0,1,,,,,,,,,0,,,87,0
2319,note_on,19,0,1,,,,,,,,,0,,,90,62
2320,note_on,1,0,1,,,,,,,,,0,,,80,0
2339,note_on,19,0,1,,,,,,,,,0,,,90,0
2340,note_on,1,0,1,,,,,,,,,0,,,84,62
2360,note_on,0,0,1,,,,,,,,,0,,,92,62
2360,note_on,20,0,1,,,,,,,,,0,,,84,0
2379,note_on,19,0,1,,,,,,,,,0,,,90,62
2380,note_on,1,0,1,,,,,,,,,0,,,92,0
2399,note_on,19,0,1,,,,,,,,,0,,,90,0
2400,note_on,1,0,1,,,,,,,,,0,,,99,62
2404,note_on,4,0,1,,,,,,,,,0,,,99,0
2420,note_on,16,0,1,,,,,,,,,0,,,97,62
2424,note_on,4,0,1,,,,,,,,,0,,,97,0
2439,note_on,15,0,1,,,,,,,,,0,,,94,62
2443,note_on,4,0,1,,,,,,,,,0,,,94,0
2460,note_on,17,0,1,,,,,,,,,0,,,89,62
2464,note_on,4,0,1,,,,,,,,,0,,,89,0
2480,note_on,16,0,1,,,,,,,,,0,,,94,62
2484,note_on,4,0,1,,,,,,,,,0,,,94,0
2499,note_on,15,0,1,,,,,,,,,0,,,90,62
2503,note_on,4,0,1,,,,,,,,,0,,,90,0
2520,note_on,17,0,1,,,,,,,,,0,,,92,62
2524,note_on,4,0,1,,,,,,,,,0,,,92,0
2540,note_on,16,0,1,,,,,,,,,0,,,90,62
2544,note_on,4,0,1,,,,,,,,,0,,,90,0
2559,note_on,15,0,1,,,,,,,,,0,,,94,62
2563,note_on,4,0,1,,,,,,,,,0,,,94,0
2580,note_on,17,0,1,,,,,,,,,0,,,92,62
2584,note_on,4,0,1,,,,,,,,,0,,,92,0
2600,note_on,16,0,1,,,,,,,,,0,,,90,62
2604,note_on,4,0,1,,,,,,,,,0,,,90,0
2619,note_on,15,0,1,,,,,,,,,0,,,87,62
2623,note_on,4,0,1,,,,,,,,,0,,,87,0
2640,note_on,17,0,1,,,,,,,,,0,,,92,62
2644,note_on,4,0,1,,,,,,,,,0,,,92,0
2655,note_on,11,0,1,,,,,,,,,0,,,90,62
2659,note_on,4,0,1,,,,,,,,,0,,,90,0
2670,note_on,11,0,1,,,,,,,,,0,,,87,62
2674,note_on,4,0,1,,,,,,,,,0,,,87,0
2685,note_on,11,0,1,,,,,,,,,0,,,85,62
2689,note_on,4,0,1,,,,,,,,,0,,,85,0
2700,note_on,11,0,1,,,,,,,,,0,,,90,62
2704,note_on,4,0,1,,,,,,,,,0,,,90,0
2715,note_on,11,0,1,,,,,,,,,0,,,87,62
2719,note_on,4,0,1,,,,,,,,,0,,,87,0
2730,note_on,11,0,1,,,,,,,,,0,,,85,62
2734,note_on,4,0,1,,,,,,,,,0,,,85,0
2745,note_on,11,0,1,,,,,,,,,0,,,82,62
2749,note_on,4,0,1,,,,,,,,,0,,,82,0
2760,note_on,11,0,1,,,,,,,,,0,,,87,62
2764,note_on,4,0,1,,,,,,,,,0,,,87,0
2775,note_on,11,0,1,,,,,,,,,0,,,85,62
2779,note_on,4,0,1,,,,,,,,,0,,,85,0
2790,note_on,11,0,1,,,,,,,,,0,,,82,62
2794,note_on,4,0,1,,,,,,,,,0,,,82,0
2805,note_on,11,0,1,,,,,,,,,0,,,80,62
2809,note_on,4,0,1,,,,,,,,,0,,,80,0
2820,note_on,11,0,1,,,,,,,,,0,,,85,62
2824,note_on,4,0,1,,,,,,,,,0,,,85,0
2835,note_on,11,0,1,,,,,,,,,0,,,82,62
2839,note_on,4,0,1,,,,,,,,,0,,,82,0
2850,note_on,11,0,1,,,,,,,,,0,,,80,62
2854,note_on,4,0,1,,,,,,,,,0,,,80,0
2865,note_on,11,0,1,,,,,,,,,0,,,78,62
2869,note_on,4,0,1,,,,,,,,,0,,,78,0
2880,note_on,11,0,1,,,,,,,,,0,,,82,62
2895,note_on,0,0,1,,,,,,,,,0,,,80,62
2895,note_on,15,0,1,,,,,,,,,0,,,82,0
2910,note_on,15,0,1,,,,,,,,,0,,,80,0
2910,note_on,0,0,1,,,,,,,,,0,,,78,62
2925,note_on,0,0,1,,,,,,,,,0,,,75,62
2925,note_on,15,0,1,,,,,,,,,0,,,78,0
2940,note_on,0,0,1,,,,,,,,,0,,,80,62
2940,note_on,15,0,1,,,,,,,,,0,,,75,0
2955,note_on,15,0,1,,,,,,,,,0,,,80,0
2955,note_on,0,0,1,,,,,,,,,0,,,78,62
2970,note_on,0,0,1,,,,,,,,,0,,,75,62
2970,note_on,15,0,1,,,,,,,,,0,,,78,0
2985,note_on,15,0,1,,,,,,,,,0,,,75,0
2985,note_on,0,0,1,,,,,,,,,0,,,73,62
3000,note_on,0,0,1,,,,,,,,,0,,,78,62
3000,note_on,15,0,1,,,,,,,,,0,,,73,0
3015,note_on,15,0,1,,,,,,,,,0,,,78,0
3015,note_on,0,0,1,,,,,,,,,0,,,75,62
3030,note_on,15,0,1,,,,,,,,,0,,,75,0
3030,note_on,0,0,1,,,,,,,,,0,,,73,62
3045,note_on,15,0,1,,,,,,,,,0,,,73,0
3045,note_on,0,0,1,,,,,,,,,0,,,70,62
3060,note_on,0,0,1,,,,,,,,,0,,,75,62
3060,note_on,15,0,1,,,,,,,,,0,,,70,0
3075,note_on,0,0,1,,,,,,,,,0,,,73,62
3075,note_on,15,0,1,,,,,,,,,0,,,75,0
3090,note_on,15,0,1,,,,,,,,,0,,,73,0
3090,note_on,0,0,1,,,,,,,,,0,,,70,62
3105,note_on,15,0,1,,,,,,,,,0,,,70,0
3105,note_on,0,0,1,,,,,,,,,0,,,68,62
3120,note_on,15,0,1,,,,,,,,,0,,,68,0
3120,note_on,0,0,1,,,,,,,,,0,,,73,62
3135,note_on,15,0,1,,,,,,,,,0,,,73,0
3135,note_on,0,0,1,,,,,,,,,0,,,70,62
3150,note_on,15,0,1,,,,,,,,,0,,,70,0
3150,note_on,0,0,1,,,,,,,,,0,,,68,62
3165,note_on,15,0,1,,,,,,,,,0,,,68,0
3165,note_on,0,0,1,,,,,,,,,0,,,66,62
3180,note_on,15,0,1,,,,,,,,,0,,,66,0
3180,note_on,0,0,1,,,,,,,,,0,,,70,62
3195,note_on,15,0,1,,,,,,,,,0,,,70,0
3195,note_on,0,0,1,,,,,,,,,0,,,68,62
3210,note_on,15,0,1,,,,,,,,,0,,,68,0
3210,note_on,0,0,1,,,,,,,,,0,,,66,62
3225,note_on,0,0,1,,,,,,,,,0,,,63,62
3225,note_on,15,0,1,,,,,,,,,0,,,66,0
3240,note_on,15,0,1,,,,,,,,,0,,,63,0
3240,note_on,0,0,1,,,,,,,,,0,,,68,62
3255,note_on,0,0,1,,,,,,,,,0,,,66,62
3255,note_on,15,0,1,,,,,,,,,0,,,68,0
3270,note_on,0,0,1,,,,,,,,,0,,,63,62
3270,note_on,15,0,1,,,,,,,,,0,,,66,0
3285,note_on,0,0,1,,,,,,,,,0,,,61,62
3285,note_on,15,0,1,,,,,,,,,0,,,63,0
3300,note_on,0,0,1,,,,,,,,,0,,,66,88
3300,note_on,15,0,1,,,,,,,,,0,,,61,0
3315,note_on,15,0,1,,,,,,,,,0,,,66,0
3315,note_on,0,0,1,,,,,,,,,0,,,63,88
3330,note_on,15,0,1,,,,,,,,,0,,,63,0
3330,note_on,0,0,1,,,,,,,,,0,,,61,88
3345,note_on,0,0,1,,,,,,,,,0,,,58,88
3345,note_on,15,0,1,,,,,,,,,0,,,61,0
3360,note_on,15,0,1,,,,,,,,,0,,,58,0
3360,note_on,0,0,1,,,,,,,,,0,,,63,88
3375,note_on,0,0,1,,,,,,,,,0,,,61,88
3375,note_on,15,0,1,,,,,,,,,0,,,63,0
3390,note_on,0,0,1,,,,,,,,,0,,,58,88
3390,note_on,15,0,1,,,,,,,,,0,,,61,0
3405,note_on,0,0,1,,,,,,,,,0,,,56,88
3405,note_on,15,0,1,,,,,,,,,0,,,58,0
3420,note_on,15,0,1,,,,,,,,,0,,,56,0
3420,note_on,0,0,1,,,,,,,,,0,,,61,88
3435,note_on,15,0,1,,,,,,,,,0,,,61,0
3435,note_on,0,0,1,,,,,,,,,0,,,58,88
3450,note_on,0,0,1,,,,,,,,,0,,,56,88
3450,note_on,15,0,1,,,,,,,,,0,,,58,0
3465,note_on,15,0,1,,,,,,,,,0,,,56,0
3465,note_on,0,0,1,,,,,,,,,0,,,54,88
3480,note_on,0,0,1,,,,,,,,,0,,,58,88
3480,note_on,15,0,1,,,,,,,,,0,,,54,0
3485,set_tempo,3485,1,0,,,,,,810811,,,,,,,
3495,note_on,0,0,1,,,,,,,,,0,,,56,88
3495,note_on,15,0,1,,,,,,,,,0,,,58,0
3510,note_on,0,0,1,,,,,,,,,0,,,54,88
3510,note_on,15,0,1,,,,,,,,,0,,,56,0
3525,note_on,15,0,1,,,,,,,,,0,,,54,0
3525,note_on,0,0,1,,,,,,,,,0,,,51,88
3540,note_on,15,0,1,,,,,,,,,0,,,51,0
3540,note_on,0,0,1,,,,,,,,,0,,,54,88
3545,set_tempo,60,1,0,,,,,,1304348,,,,,,,
3555,note_on,15,0,1,,,,,,,,,0,,,54,0
3555,note_on,0,0,1,,,,,,,,,0,,,51,88
3570,note_on,15,0,1,,,,,,,,,0,,,51,0
3570,note_on,0,0,1,,,,,,,,,0,,,49,88
3585,note_on,15,0,1,,,,,,,,,0,,,49,0
3585,note_on,0,0,1,,,,,,,,,0,,,46,88
3600,control_change,1410,0,3,,,,,,,,,2,64,0,,
3600,note_on,0,0,1,,,,,,,,,0,,,45,88
3600,note_on,15,0,1,,,,,,,,,0,,,46,0
3605,set_tempo,60,1,0,,,,,,2727273,,,,,,,
3615,note_on,0,0,1,,,,,,,,,0,,,44,88
3615,control_change,0,0,1,,,,,,,,,0,64,0,,
3615,note_on,15,0,1,,,,,,,,,0,,,45,0
3636,set_tempo,31,1,0,,,,,,769231,,,,,,,
3645,note_on,30,0,1,,,,,,,,,0,,,44,0
3665,set_tempo,29,1,0,,,,,,1200000,,,,,,,
3705,note_on,0,0,3,,,,,,,,,2,,,72,101
3705,note_on,60,0,1,,,,,,,,,0,,,78,114
3705,note_on,0,0,3,,,,,,,,,2,,,63,101
3705,note_on,0,0,3,,,,,,,,,2,,,66,101
3705,note_on,105,0,3,,,,,,,,,2,,,56,101
3705,note_on,0,0,1,,,,,,,,,0,,,84,114
3705,note_on,0,0,1,,,,,,,,,0,,,92,114
3711,note_on,6,0,3,,,,,,,,,2,,,72,0
3711,note_on,6,0,1,,,,,,,,,0,,,92,0
3711,note_on,0,0,1,,,,,,,,,0,,,84,0
3711,note_on,0,0,1,,,,,,,,,0,,,78,0
3711,note_on,0,0,3,,,,,,,,,2,,,63,0
3711,note_on,0,0,3,,,,,,,,,2,,,66,0
3711,note_on,0,0,3,,,,,,,,,2,,,56,0
3725,set_tempo,60,1,0,,,,,,2307692,,,,,,,
3730,set_tempo,5,1,0,,,,,,769231,,,,,,,
3785,set_tempo,55,1,0,,,,,,1200000,,,,,,,
3840,set_tempo,55,1,0,,,,,,769231,,,,,,,
3845,set_tempo,5,1,0,,,,,,1111111,,,,,,,
3905,set_tempo,60,1,0,,,,,,2307692,,,,,,,
3966,set_tempo,61,1,0,,,,,,769231,,,,,,,
4020,note_on,309,0,1,,,,,,,,,0,,,56,62
4080,note_on,0,0,1,,,,,,,,,0,,,61,88
4080,note_on,60,0,1,,,,,,,,,0,,,56,0
4080,note_on,0,0,1,,,,,,,,,0,,,53,80
4080,control_change,369,0,3,,,,,,,,,2,64,127,,
4080,note_on,0,0,3,,,,,,,,,2,,,37,49
4080,control_change,0,0,1,,,,,,,,,0,64,127,,
4086,note_on,6,0,3,,,,,,,,,2,,,37,0
4100,control_change,4100,0,2,,,,,,,,,1,64,127,,
4100,note_on,0,0,2,,,,,,,,,1,,,56,49
4119,note_on,19,0,2,,,,,,,,,1,,,65,49
4120,note_on,1,0,2,,,,,,,,,1,,,56,0
4139,note_on,19,0,2,,,,,,,,,1,,,65,0
4140,note_on,0,0,1,,,,,,,,,0,,,53,0
4140,note_on,0,0,3,,,,,,,,,2,,,56,49
4140,note_on,54,0,3,,,,,,,,,2,,,53,49
4140,note_on,0,0,1,,,,,,,,,0,,,61,88
4140,note_on,60,0,1,,,,,,,,,0,,,61,0
4146,note_on,6,0,3,,,,,,,,,2,,,56,0
4146,note_on,0,0,3,,,,,,,,,2,,,53,0
4160,note_on,21,0,2,,,,,,,,,1,,,68,49
4179,note_on,19,0,2,,,,,,,,,1,,,65,49
4180,note_on,1,0,2,,,,,,,,,1,,,68,0
4199,note_on,19,0,2,,,,,,,,,1,,,65,0
4200,note_on,0,0,1,,,,,,,,,0,,,65,88
4200,note_on,54,0,3,,,,,,,,,2,,,56,49
4200,note_on,1,0,2,,,,,,,,,1,,,73,75
4200,note_on,60,0,1,,,,,,,,,0,,,61,0
4206,note_on,6,0,3,,,,,,,,,2,,,56,0
4260,note_on,60,0,2,,,,,,,,,1,,,73,0
4260,note_on,54,0,3,,,,,,,,,2,,,53,49
4260,note_on,60,0,1,,,,,,,,,0,,,65,0
4260,note_on,0,0,2,,,,,,,,,1,,,68,49
4260,note_on,0,0,1,,,,,,,,,0,,,65,88
4266,note_on,6,0,3,,,,,,,,,2,,,53,0
4290,note_on,30,0,2,,,,,,,,,1,,,68,0
4320,control_change,54,0,3,,,,,,,,,2,64,0,,
4320,note_on,60,0,1,,,,,,,,,0,,,65,0
4320,note_on,0,0,3,,,,,,,,,2,,,37,49
4320,control_change,30,0,2,,,,,,,,,1,64,0,,
4320,control_change,0,0,1,,,,,,,,,0,64,0,,
4320,note_on,0,0,1,,,,,,,,,0,,,61,88
4326,note_on,6,0,3,,,,,,,,,2,,,37,0
4340,note_on,20,0,2,,,,,,,,,1,,,56,49
4359,note_on,19,0,2,,,,,,,,,1,,,65,49
4360,note_on,1,0,2,,,,,,,,,1,,,56,0
4379,note_on,19,0,2,,,,,,,,,1,,,65,0
4380,note_on,54,0,3,,,,,,,,,2,,,49,49
4380,note_on,1,0,2,,,,,,,,,1,,,61,49
4380,note_on,0,0,3,,,,,,,,,2,,,53,49
4386,note_on,6,0,3,,,,,,,,,2,,,53,0
4386,note_on,0,0,3,,,,,,,,,2,,,49,0
4400,note_on,0,0,2,,,,,,,,,1,,,68,49
4400,note_on,20,0,2,,,,,,,,,1,,,61,0
4419,note_on,19,0,2,,,,,,,,,1,,,65,49
4420,note_on,1,0,2,,,,,,,,,1,,,68,0
4439,note_on,19,0,2,,,,,,,,,1,,,65,0
4440,note_on,54,0,3,,,,,,,,,2,,,53,49
4440,note_on,120,0,1,,,,,,,,,0,,,61,0
4440,note_on,1,0,2,,,,,,,,,1,,,73,75
4440,note_on,0,0,1,,,,,,,,,0,,,56,88
4446,note_on,6,0,3,,,,,,,,,2,,,53,0
4500,note_on,0,0,3,,,,,,,,,2,,,53,49
4500,note_on,60,0,2,,,,,,,,,1,,,73,0
4500,note_on,0,0,2,,,,,,,,,1,,,68,49
4500,note_on,60,0,1,,,,,,,,,0,,,56,0
4500,note_on,54,0,3,,,,,,,,,2,,,49,49
4506,note_on,6,0,3,,,,,,,,,2,,,53,0
4506,note_on,0,0,3,,,,,,,,,2,,,49,0
4530,note_on,30,0,1,,,,,,,,,0,,,56,62
4530,note_on,30,0,2,,,,,,,,,1,,,68,0
4560,control_change,0,0,1,,,,,,,,,0,64,127,,
4560,note_on,0,0,3,,,,,,,,,2,,,32,49
4560,note_on,0,0,1,,,,,,,,,0,,,56,62
4560,control_change,30,0,2,,,,,,,,,1,64,127,,
4560,note_on,30,0,1,,,,,,,,,0,,,56,0
4560,control_change,54,0,3,,,,,,,,,2,64,127,,
4566,note_on,6,0,3,,,,,,,,,2,,,32,0
4580,note_on,20,0,2,,,,,,,,,1,,,60,49
4599,note_on,19,0,2,,,,,,,,,1,,,66,49
4600,note_on,1,0,2,,,,,,,,,1,,,60,0
4619,note_on,19,0,2,,,,,,,,,1,,,66,0
4620,note_on,54,0,3,,,,,,,,,2,,,48,49
4620,note_on,1,0,2,,,,,,,,,1,,,63,49
4620,note_on,0,0,3,,,,,,,,,2,,,54,49
4626,note_on,0,0,3,,,,,,,,,2,,,48,0
4626,note_on,6,0,3,,,,,,,,,2,,,54,0
4640,note_on,0,0,2,,,,,,,,,1,,,68,49
4640,note_on,20,0,2,,,,,,,,,1,,,63,0
4650,note_on,0,0,1,,,,,,,,,0,,,56,62
4650,note_on,90,0,1,,,,,,,,,0,,,56,0
4659,note_on,19,0,2,,,,,,,,,1,,,66,49
4660,note_on,1,0,2,,,,,,,,,1,,,68,0
4679,note_on,19,0,2,,,,,,,,,1,,,66,0
4680,note_on,54,0,3,,,,,,,,,2,,,54,49
4680,note_on,1,0,2,,,,,,,,,1,,,75,75
4680,note_on,30,0,1,,,,,,,,,0,,,56,0
4680,note_on,0,0,1,,,,,,,,,0,,,63,62
4686,note_on,6,0,3,,,,,,,,,2,,,54,0
4710,note_on,30,0,1,,,,,,,,,0,,,63,0
4710,note_on,0,0,1,,,,,,,,,0,,,61,88
4740,note_on,0,0,2,,,,,,,,,1,,,68,49
4740,note_on,0,0,3,,,,,,,,,2,,,54,49
4740,note_on,54,0,3,,,,,,,,,2,,,51,49
4740,note_on,0,0,1,,,,,,,,,0,,,60,62
4740,note_on,30,0,1,,,,,,,,,0,,,61,0
4740,note_on,60,0,2,,,,,,,,,1,,,75,0
4746,note_on,0,0,3,,,,,,,,,2,,,51,0
4746,note_on,6,0,3,,,,,,,,,2,,,54,0
4770,note_on,30,0,2,,,,,,,,,1,,,68,0
4770,note_on,30,0,1,,,,,,,,,0,,,60,0
4770,note_on,0,0,1,,,,,,,,,0,,,58,88
4800,note_on,0,0,3,,,,,,,,,2,,,32,49
4800,note_on,30,0,1,,,,,,,,,0,,,58,0
4800,control_change,30,0,2,,,,,,,,,1,64,0,,
4800,note_on,0,0,1,,,,,,,,,0,,,56,62
4800,control_change,0,0,1,,,,,,,,,0,64,0,,
4800,control_change,54,0,3,,,,,,,,,2,64,0,,
4820,note_on,20,0,2,,,,,,,,,1,,,60,49
4839,note_on,19,0,2,,,,,,,,,1,,,66,49
4840,note_on,1,0,2,,,,,,,,,1,,,60,0
4859,note_on,19,0,2,,,,,,,,,1,,,66,0
4860,note_on,1,0,2,,,,,,,,,1,,,63,49
4860,note_on,60,0,3,,,,,,,,,2,,,32,0
4860,note_on,0,0,3,,,,,,,,,2,,,54,49
4860,note_on,0,0,3,,,,,,,,,2,,,48,49
4880,note_on,0,0,2,,,,,,,,,1,,,68,49
4880,note_on,20,0,2,,,,,,,,,1,,,63,0
4899,note_on,19,0,2,,,,,,,,,1,,,66,49
4900,note_on,1,0,2,,,,,,,,,1,,,68,0
4919,note_on,19,0,2,,,,,,,,,1,,,66,0
4920,note_on,1,0,2,,,,,,,,,1,,,75,75
4920,note_on,60,0,3,,,,,,,,,2,,,54,0
4920,note_on,120,0,1,,,,,,,,,0,,,56,0
4920,note_on,0,0,3,,,,,,,,,2,,,44,49
4920,note_on,0,0,3,,,,,,,,,2,,,48,0
4980,note_on,60,0,1,,,,,,,,,0,,,56,62
4980,note_on,0,0,2,,,,,,,,,1,,,68,49
4980,note_on,0,0,3,,,,,,,,,2,,,48,49
4980,note_on,0,0,3,,,,,,,,,2,,,54,49
4980,note_on,60,0,3,,,,,,,,,2,,,44,0
4980,note_on,60,0,2,,,,,,,,,1,,,75,0
5010,note_on,30,0,2,,,,,,,,,1,,,68,0
5040,note_on,0,0,3,,,,,,,,,2,,,37,49
5040,note_on,0,0,1,,,,,,,,,0,,,61,88
5040,note_on,60,0,1,,,,,,,,,0,,,56,0
5040,note_on,0,0,3,,,,,,,,,2,,,48,0
5040,control_change,0,0,1,,,,,,,,,0,64,127,,
5040,control_change,0,0,3,,,,,,,,,2,64,127,,
5040,note_on,0,0,1,,,,,,,,,0,,,53,80
5040,note_on,60,0,3,,,,,,,,,2,,,54,0
5046,note_on,6,0,3,,,,,,,,,2,,,37,0
5060,note_on,0,0,2,,,,,,,,,1,,,56,49
5060,control_change,50,0,2,,,,,,,,,1,64,127,,
5079,note_on,19,0,2,,,,,,,,,1,,,65,49
5080,note_on,1,0,2,,,,,,,,,1,,,56,0
5099,note_on,19,0,2,,,,,,,,,1,,,65,0
5100,note_on,54,0,3,,,,,,,,,2,,,53,49
5100,note_on,60,0,1,,,,,,,,,0,,,61,0
5100,note_on,0,0,3,,,,,,,,,2,,,56,49
5100,note_on,0,0,1,,,,,,,,,0,,,53,0
5100,note_on,0,0,1,,,,,,,,,0,,,61,88
5106,note_on,6,0,3,,,,,,,,,2,,,56,0
5106,note_on,0,0,3,,,,,,,,,2,,,53,0
5120,note_on,21,0,2,,,,,,,,,1,,,68,49
5139,note_on,19,0,2,,,,,,,,,1,,,65,49
5140,note_on,1,0,2,,,,,,,,,1,,,68,0
5159,note_on,19,0,2,,,,,,,,,1,,,65,0
5160,note_on,60,0,1,,,,,,,,,0,,,61,0
5160,note_on,0,0,1,,,,,,,,,0,,,65,88
5160,note_on,1,0,2,,,,,,,,,1,,,73,75
5160,note_on,54,0,3,,,,,,,,,2,,,56,49
5166,note_on,6,0,3,,,,,,,,,2,,,56,0
5220,note_on,54,0,3,,,,,,,,,2,,,53,49
5220,note_on,0,0,2,,,,,,,,,1,,,68,49
5220,note_on,60,0,2,,,,,,,,,1,,,73,0
5220,note_on,60,0,1,,,,,,,,,0,,,65,0
5220,note_on,0,0,1,,,,,,,,,0,,,65,88
5226,note_on,6,0,3,,,,,,,,,2,,,53,0
5250,note_on,30,0,2,,,,,,,,,1,,,68,0
5280,note_on,0,0,3,,,,,,,,,2,,,37,49
5280,control_change,0,0,1,,,,,,,,,0,64,0,,
5280,control_change,54,0,3,,,,,,,,,2,64,0,,
5280,note_on,0,0,1,,,,,,,,,0,,,61,88
5280,note_on,60,0,1,,,,,,,,,0,,,65,0
5280,control_change,30,0,2,,,,,,,,,1,64,0,,
5286,note_on,6,0,3,,,,,,,,,2,,,37,0
5300,note_on,20,0,2,,,,,,,,,1,,,56,49
5319,note_on,19,0,2,,,,,,,,,1,,,65,49
5320,note_on,1,0,2,,,,,,,,,1,,,56,0
5339,note_on,19,0,2,,,,,,,,,1,,,65,0
5340,note_on,1,0,2,,,,,,,,,1,,,61,49
5340,note_on,0,0,3,,,,,,,,,2,,,53,49
5340,note_on,54,0,3,,,,,,,,,2,,,49,49
5346,note_on,6,0,3,,,,,,,,,2,,,53,0
5346,note_on,0,0,3,,,,,,,,,2,,,49,0
5360,note_on,20,0,2,,,,,,,,,1,,,61,0
5360,note_on,0,0,2,,,,,,,,,1,,,68,49
5379,note_on,19,0,2,,,,,,,,,1,,,65,49
5380,note_on,1,0,2,,,,,,,,,1,,,68,0
5399,note_on,19,0,2,,,,,,,,,1,,,65,0
5400,note_on,120,0,1,,,,,,,,,0,,,61,0
5400,note_on,1,0,2,,,,,,,,,1,,,73,75
5400,note_on,0,0,1,,,,,,,,,0,,,56,88
5400,note_on,54,0,3,,,,,,,,,2,,,53,49
5406,note_on,6,0,3,,,,,,,,,2,,,53,0
5460,note_on,0,0,1,,,,,,,,,0,,,61,88
5460,note_on,0,0,2,,,,,,,,,1,,,68,49
5460,note_on,0,0,3,,,,,,,,,2,,,53,49
5460,note_on,60,0,1,,,,,,,,,0,,,56,0
5460,note_on,54,0,3,,,,,,,,,2,,,49,49
5460,note_on,60,0,2,,,,,,,,,1,,,73,0
5466,note_on,6,0,3,,,,,,,,,2,,,53,0
5466,note_on,0,0,3,,,,,,,,,2,,,49,0
5490,note_on,30,0,2,,,,,,,,,1,,,68,0
5520,control_change,0,0,1,,,,,,,,,0,64,127,,
5520,control_change,54,0,3,,,,,,,,,2,64,127,,
5520,note_on,0,0,1,,,,,,,,,0,,,60,62
5520,note_on,60,0,1,,,,,,,,,0,,,61,0
5520,control_change,30,0,2,,,,,,,,,1,64,127,,
5520,note_on,0,0,3,,,,,,,,,2,,,39,49
5526,note_on,6,0,1,,,,,,,,,0,,,60,0
5526,note_on,6,0,3,,,,,,,,,2,,,39,0
5540,note_on,20,0,2,,,,,,,,,1,,,63,49
5559,note_on,19,0,2,,,,,,,,,1,,,68,49
5560,note_on,1,0,2,,,,,,,,,1,,,63,0
5579,note_on,19,0,2,,,,,,,,,1,,,68,0
5580,note_on,1,0,2,,,,,,,,,1,,,72,49
5580,note_on,54,0,1,,,,,,,,,0,,,58,62
5580,note_on,0,0,3,,,,,,,,,2,,,51,49
5580,note_on,0,0,3,,,,,,,,,2,,,56,49
5580,control_change,54,0,3,,,,,,,,,2,64,127,,
5586,note_on,0,0,3,,,,,,,,,2,,,51,0
5586,note_on,6,0,3,,,,,,,,,2,,,56,0
5600,note_on,20,0,2,,,,,,,,,1,,,72,0
5600,note_on,0,0,2,,,,,,,,,1,,,68,49
5610,note_on,0,0,1,,,,,,,,,0,,,60,62
5610,note_on,30,0,1,,,,,,,,,0,,,58,0
5619,note_on,19,0,2,,,,,,,,,1,,,77,49
5620,note_on,1,0,2,,,,,,,,,1,,,68,0
5639,note_on,19,0,2,,,,,,,,,1,,,77,0
5640,note_on,0,0,3,,,,,,,,,2,,,39,49
5640,control_change,1,0,2,,,,,,,,,1,64,0,,
5640,note_on,30,0,1,,,,,,,,,0,,,60,0
5640,note_on,0,0,2,,,,,,,,,1,,,75,75
5640,control_change,54,0,3,,,,,,,,,2,64,127,,
5640,note_on,0,0,1,,,,,,,,,0,,,61,62
5640,control_change,0,0,1,,,,,,,,,0,64,0,,
5646,note_on,6,0,3,,,,,,,,,2,,,39,0
5700,note_on,60,0,2,,,,,,,,,1,,,75,0
5700,note_on,0,0,3,,,,,,,,,2,,,49,49
5700,note_on,0,0,3,,,,,,,,,2,,,46,49
5700,note_on,60,0,1,,,,,,,,,0,,,61,0
5700,control_change,54,0,3,,,,,,,,,2,64,0,,
5700,note_on,0,0,1,,,,,,,,,0,,,55,62
5706,note_on,6,0,3,,,,,,,,,2,,,49,0
5706,note_on,0,0,3,,,,,,,,,2,,,46,0
5760,control_change,60,0,2,,,,,,,,,1,64,127,,
5760,note_on,60,0,1,,,,,,,,,0,,,55,0
5760,control_change,54,0,3,,,,,,,,,2,64,127,,
5760,control_change,0,0,1,,,,,,,,,0,64,127,,
5760,note_on,0,0,1,,,,,,,,,0,,,56,62
5760,note_on,0,0,3,,,,,,,,,2,,,32,49
5766,note_on,6,0,3,,,,,,,,,2,,,32,0
5780,note_on,20,0,2,,,,,,,,,1,,,60,49
5799,note_on,19,0,2,,,,,,,,,1,,,68,49
5800,note_on,1,0,2,,,,,,,,,1,,,60,0
5819,note_on,19,0,2,,,,,,,,,1,,,68,0
5820,note_on,54,0,3,,,,,,,,,2,,,48,49
5820,note_on,0,0,3,,,,,,,,,2,,,51,49
5820,note_on,1,0,2,,,,,,,,,1,,,63,49
5826,note_on,0,0,3,,,,,,,,,2,,,48,0
5826,note_on,6,0,3,,,,,,,,,2,,,51,0
5840,note_on,0,0,2,,,,,,,,,1,,,72,49
5840,note_on,20,0,2,,,,,,,,,1,,,63,0
5859,note_on,19,0,2,,,,,,,,,1,,,68,49
5860,note_on,1,0,2,,,,,,,,,1,,,72,0
5879,note_on,19,0,2,,,,,,,,,1,,,68,0
5880,note_on,120,0,1,,,,,,,,,0,,,56,0
5880,note_on,1,0,2,,,,,,,,,1,,,75,75
5880,note_on,54,0,3,,,,,,,,,2,,,44,49
5886,note_on,6,0,3,,,,,,,,,2,,,44,0
5940,note_on,0,0,2,,,,,,,,,1,,,68,49
5940,note_on,60,0,2,,,,,,,,,1,,,75,0
5940,note_on,60,0,1,,,,,,,,,0,,,56,62
5940,note_on,0,0,3,,,,,,,,,2,,,51,49
5940,note_on,54,0,3,,,,,,,,,2,,,48,49
5946,note_on,6,0,3,,,,,,,,,2,,,51,0
5946,note_on,0,0,3,,,,,,,,,2,,,48,0
5970,note_on,0,0,1,,,,,,,,,0,,,58,62
5970,note_on,30,0,1,,,,,,,,,0,,,56,0
5970,note_on,30,0,2,,,,,,,,,1,,,68,0
6000,note_on,0,0,1,,,,,,,,,0,,,60,88
6000,note_on,0,0,3,,,,,,,,,2,,,44,49
6000,control_change,0,0,1,,,,,,,,,0,64,0,,
6000,note_on,30,0,1,,,,,,,,,0,,,58,0
6000,control_change,30,0,2,,,,,,,,,1,64,0,,
6000,control_change,54,0,3,,,,,,,,,2,64,0,,
6006,note_on,6,0,3,,,,,,,,,2,,,44,0
6020,note_on,20,0,2,,,,,,,,,1,,,63,49
6039,note_on,19,0,2,,,,,,,,,1,,,66,49
6040,note_on,1,0,2,,,,,,,,,1,,,63,0
6059,note_on,19,0,2,,,,,,,,,1,,,66,0
6060,note_on,1,0,2,,,,,,,,,1,,,67,49
6060,note_on,0,0,3,,,,,,,,,2,,,54,49
6060,note_on,60,0,1,,,,,,,,,0,,,60,0
6060,note_on,54,0,3,,,,,,,,,2,,,51,49
6060,note_on,0,0,1,,,,,,,,,0,,,60,88
6066,note_on,0,0,3,,,,,,,,,2,,,51,0
6066,note_on,6,0,3,,,,,,,,,2,,,54,0
6080,note_on,20,0,2,,,,,,,,,1,,,67,0
6080,note_on,0,0,2,,,,,,,,,1,,,68,49
6099,note_on,19,0,2,,,,,,,,,1,,,69,49
6100,note_on,1,0,2,,,,,,,,,1,,,68,0
6119,note_on,19,0,2,,,,,,,,,1,,,69,0
6120,note_on,60,0,1,,,,,,,,,0,,,60,0
6120,note_on,0,0,1,,,,,,,,,0,,,61,62
6120,note_on,54,0,3,,,,,,,,,2,,,44,49
6120,note_on,1,0,2,,,,,,,,,1,,,70,75
6126,note_on,6,0,3,,,,,,,,,2,,,44,0
6150,note_on,30,0,1,,,,,,,,,0,,,61,0
6150,note_on,0,0,1,,,,,,,,,0,,,60,62
6154,note_on,4,0,1,,,,,,,,,0,,,60,0
6180,note_on,0,0,2,,,,,,,,,1,,,68,49
6180,note_on,54,0,3,,,,,,,,,2,,,51,49
6180,note_on,60,0,2,,,,,,,,,1,,,70,0
6180,note_on,0,0,3,,,,,,,,,2,,,54,49
6180,note_on,26,0,1,,,,,,,,,0,,,58,62
6186,note_on,0,0,3,,,,,,,,,2,,,51,0
6186,note_on,6,0,3,,,,,,,,,2,,,54,0
6210,note_on,30,0,2,,,,,,,,,1,,,68,0
6210,note_on,0,0,1,,,,,,,,,0,,,60,62
6210,note_on,30,0,1,,,,,,,,,0,,,58,0
6214,note_on,4,0,1,,,,,,,,,0,,,60,0
6240,note_on,26,0,1,,,,,,,,,0,,,61,88
6240,note_on,54,0,3,,,,,,,,,2,,,37,49
6246,note_on,6,0,3,,,,,,,,,2,,,37,0
6260,note_on,50,0,2,,,,,,,,,1,,,65,49
6279,note_on,19,0,2,,,,,,,,,1,,,66,49
6280,note_on,1,0,2,,,,,,,,,1,,,65,0
6299,note_on,19,0,2,,,,,,,,,1,,,66,0
6300,note_on,0,0,3,,,,,,,,,2,,,56,49
6300,note_on,1,0,2,,,,,,,,,1,,,67,49
6300,note_on,54,0,3,,,,,,,,,2,,,53,49
6306,note_on,0,0,3,,,,,,,,,2,,,53,0
6306,note_on,6,0,3,,,,,,,,,2,,,56,0
6320,note_on,0,0,2,,,,,,,,,1,,,70,49
6320,note_on,20,0,2,,,,,,,,,1,,,67,0
6339,note_on,19,0,2,,,,,,,,,1,,,68,49
6340,note_on,1,0,2,,,,,,,,,1,,,70,0
6359,note_on,19,0,2,,,,,,,,,1,,,68,0
6360,note_on,1,0,2,,,,,,,,,1,,,77,75
6360,note_on,120,0,1,,,,,,,,,0,,,61,0
6360,note_on,54,0,3,,,,,,,,,2,,,49,49
6366,note_on,6,0,3,,,,,,,,,2,,,49,0
6420,note_on,60,0,2,,,,,,,,,1,,,77,0
6420,note_on,60,0,1,,,,,,,,,0,,,56,62
6420,note_on,0,0,2,,,,,,,,,1,,,73,49
6420,note_on,54,0,3,,,,,,,,,2,,,53,49
6426,note_on,6,0,3,,,,,,,,,2,,,53,0
6450,note_on,30,0,2,,,,,,,,,1,,,73,0
6450,note_on,0,0,1,,,,,,,,,0,,,61,62
6450,note_on,30,0,1,,,,,,,,,0,,,56,0
6480,control_change,54,0,3,,,,,,,,,2,64,127,,
6480,note_on,30,0,1,,,,,,,,,0,,,61,0
6480,control_change,0,0,1,,,,,,,,,0,64,127,,
6480,note_on,0,0,1,,,,,,,,,0,,,60,88
6480,control_change,30,0,2,,,,,,,,,1,64,127,,
6480,note_on,0,0,3,,,,,,,,,2,,,44,49
6486,note_on,6,0,3,,,,,,,,,2,,,44,0
6500,note_on,20,0,2,,,,,,,,,1,,,63,49
6519,note_on,19,0,2,,,,,,,,,1,,,66,49
6520,note_on,1,0,2,,,,,,,,,1,,,63,0
6539,note_on,19,0,2,,,,,,,,,1,,,66,0
6540,note_on,54,0,3,,,,,,,,,2,,,51,49
6540,note_on,0,0,3,,,,,,,,,2,,,54,49
6540,note_on,0,0,1,,,,,,,,,0,,,60,88
6540,note_on,60,0,1,,,,,,,,,0,,,60,0
6540,note_on,1,0,2,,,,,,,,,1,,,67,49
6546,note_on,6,0,3,,,,,,,,,2,,,54,0
6546,note_on,0,0,3,,,,,,,,,2,,,51,0
6560,note_on,0,0,2,,,,,,,,,1,,,70,49
6560,note_on,20,0,2,,,,,,,,,1,,,67,0
6579,note_on,19,0,2,,,,,,,,,1,,,68,49
6580,note_on,1,0,2,,,,,,,,,1,,,70,0
6599,note_on,19,0,2,,,,,,,,,1,,,68,0
6600,note_on,0,0,1,,,,,,,,,0,,,60,62
6600,note_on,60,0,1,,,,,,,,,0,,,60,0
6600,note_on,1,0,2,,,,,,,,,1,,,78,75
6600,note_on,54,0,3,,,,,,,,,2,,,44,49
6606,note_on,6,0,3,,,,,,,,,2,,,44,0
6630,note_on,0,0,1,,,,,,,,,0,,,66,62
6630,note_on,30,0,1,,,,,,,,,0,,,60,0
6634,note_on,4,0,1,,,,,,,,,0,,,66,0
6660,note_on,0,0,3,,,,,,,,,2,,,56,49
6660,control_change,0,0,2,,,,,,,,,1,64,0,,
6660,control_change,54,0,3,,,,,,,,,2,64,0,,
6660,note_on,26,0,1,,,,,,,,,0,,,63,62
6660,note_on,0,0,2,,,,,,,,,1,,,72,49
6660,note_on,60,0,2,,,,,,,,,1,,,78,0
6660,note_on,0,0,3,,,,,,,,,2,,,54,49
6666,note_on,6,0,3,,,,,,,,,2,,,56,0
6666,note_on,0,0,3,,,,,,,,,2,,,54,0
6690,note_on,30,0,2,,,,,,,,,1,,,72,0
6690,control_change,0,0,1,,,,,,,,,0,64,0,,
6690,note_on,0,0,1,,,,,,,,,0,,,60,62
6690,note_on,30,0,1,,,,,,,,,0,,,63,0
6694,note_on,4,0,1,,,,,,,,,0,,,60,0
6720,note_on,26,0,1,,,,,,,,,0,,,61,88
6720,note_on,0,0,3,,,,,,,,,2,,,37,49
6720,control_change,30,0,2,,,,,,,,,1,64,127,,
6720,control_change,54,0,3,,,,,,,,,2,64,127,,
6726,note_on,6,0,3,,,,,,,,,2,,,37,0
6740,note_on,20,0,2,,,,,,,,,1,,,65,49
6759,note_on,19,0,2,,,,,,,,,1,,,66,49
6760,note_on,1,0,2,,,,,,,,,1,,,65,0
6779,note_on,19,0,2,,,,,,,,,1,,,66,0
6780,note_on,1,0,2,,,,,,,,,1,,,67,49
6780,note_on,54,0,3,,,,,,,,,2,,,53,49
6780,note_on,0,0,3,,,,,,,,,2,,,56,49
6786,note_on,0,0,3,,,,,,,,,2,,,53,0
6786,note_on,6,0,3,,,,,,,,,2,,,56,0
6800,note_on,0,0,2,,,,,,,,,1,,,70,49
6800,note_on,20,0,2,,,,,,,,,1,,,67,0
6819,note_on,19,0,2,,,,,,,,,1,,,68,49
6820,note_on,1,0,2,,,,,,,,,1,,,70,0
6839,note_on,19,0,2,,,,,,,,,1,,,68,0
6840,note_on,54,0,3,,,,,,,,,2,,,49,49
6840,note_on,1,0,2,,,,,,,,,1,,,77,75
6846,note_on,6,0,3,,,,,,,,,2,,,49,0
6900,note_on,0,0,1,,,,,,,,,0,,,61,88
6900,note_on,0,0,2,,,,,,,,,1,,,73,49
6900,control_change,54,0,3,,,,,,,,,2,64,0,,
6900,note_on,60,0,2,,,,,,,,,1,,,77,0
6900,note_on,180,0,1,,,,,,,,,0,,,61,0
6900,note_on,0,0,3,,,,,,,,,2,,,53,49
6900,control_change,0,0,2,,,,,,,,,1,64,0,,
6906,note_on,6,0,3,,,,,,,,,2,,,53,0
6930,note_on,30,0,2,,,,,,,,,1,,,73,0
6960,note_on,0,0,3,,,,,,,,,2,,,42,49
6960,control_change,54,0,3,,,,,,,,,2,64,127,,
6960,control_change,0,0,1,,,,,,,,,0,64,127,,
6960,note_on,60,0,1,,,,,,,,,0,,,61,0
6960,control_change,30,0,2,,,,,,,,,1,64,127,,
6960,note_on,0,0,1,,,,,,,,,0,,,58,88
6966,note_on,6,0,3,,,,,,,,,2,,,42,0
6980,note_on,20,0,2,,,,,,,,,1,,,61,49
6999,note_on,19,0,2,,,,,,,,,1,,,66,49
7000,note_on,1,0,2,,,,,,,,,1,,,61,0
7019,note_on,19,0,2,,,,,,,,,1,,,66,0
7020,note_on,54,0,3,,,,,,,,,2,,,49,49
7020,note_on,1,0,2,,,,,,,,,1,,,70,49
7020,note_on,0,0,3,,,,,,,,,2,,,54,49
7020,note_on,60,0,1,,,,,,,,,0,,,58,0
7020,note_on,0,0,1,,,,,,,,,0,,,58,88
7026,note_on,6,0,3,,,,,,,,,2,,,54,0
7026,note_on,0,0,3,,,,,,,,,2,,,49,0
7040,note_on,0,0,2,,,,,,,,,1,,,71,49
7040,note_on,20,0,2,,,,,,,,,1,,,70,0
7059,note_on,19,0,2,,,,,,,,,1,,,72,49
7060,note_on,1,0,2,,,,,,,,,1,,,71,0
7079,note_on,19,0,2,,,,,,,,,1,,,72,0
7080,note_on,0,0,1,,,,,,,,,0,,,58,88
7080,note_on,60,0,1,,,,,,,,,0,,,58,0
7080,note_on,54,0,3,,,,,,,,,2,,,42,49
7080,note_on,1,0,2,,,,,,,,,1,,,75,75
7086,note_on,6,0,3,,,,,,,,,2,,,42,0
7140,note_on,0,0,3,,,,,,,,,2,,,58,49
7140,note_on,0,0,3,,,,,,,,,2,,,54,49
7140,control_change,0,0,2,,,,,,,,,1,64,0,,
7140,control_change,54,0,3,,,,,,,,,2,64,0,,
7140,note_on,60,0,1,,,,,,,,,0,,,58,0
7140,note_on,0,0,1,,,,,,,,,0,,,61,88
7140,note_on,0,0,2,,,,,,,,,1,,,73,49
7140,control_change,0,0,1,,,,,,,,,0,64,0,,
7140,note_on,60,0,2,,,,,,,,,1,,,75,0
7146,note_on,0,0,3,,,,,,,,,2,,,54,0
7146,note_on,6,0,3,,,,,,,,,2,,,58,0
7170,note_on,30,0,2,,,,,,,,,1,,,73,0
7200,control_change,30,0,2,,,,,,,,,1,64,127,,
7200,note_on,60,0,1,,,,,,,,,0,,,61,0
7200,control_change,54,0,3,,,,,,,,,2,64,127,,
7200,control_change,0,0,1,,,,,,,,,0,64,127,,
7200,note_on,0,0,1,,,,,,,,,0,,,61,88
7200,note_on,0,0,3,,,,,,,,,2,,,37,49
7206,note_on,6,0,3,,,,,,,,,2,,,37,0
7220,note_on,20,0,2,,,,,,,,,1,,,65,49
7239,note_on,19,0,2,,,,,,,,,1,,,66,49
7240,note_on,1,0,2,,,,,,,,,1,,,65,0
7259,note_on,19,0,2,,,,,,,,,1,,,66,0
7260,note_on,1,0,2,,,,,,,,,1,,,67,49
7260,note_on,54,0,3,,,,,,,,,2,,,49,49
7260,note_on,0,0,3,,,,,,,,,2,,,53,49
7266,note_on,0,0,3,,,,,,,,,2,,,49,0
7266,note_on,6,0,3,,,,,,,,,2,,,53,0
7280,note_on,20,0,2,,,,,,,,,1,,,67,0
7280,note_on,0,0,2,,,,,,,,,1,,,70,49
7299,note_on,19,0,2,,,,,,,,,1,,,68,49
7300,note_on,1,0,2,,,,,,,,,1,,,70,0
7319,note_on,19,0,2,,,,,,,,,1,,,68,0
7320,note_on,0,0,1,,,,,,,,,0,,,56,88
7320,note_on,1,0,2,,,,,,,,,1,,,77,75
7320,note_on,120,0,1,,,,,,,,,0,,,61,0
7380,note_on,60,0,1,,,,,,,,,0,,,56,0
7380,note_on,0,0,2,,,,,,,,,1,,,73,49
7380,note_on,0,0,1,,,,,,,,,0,,,56,88
7380,note_on,60,0,2,,,,,,,,,1,,,77,0
7380,control_change,114,0,3,,,,,,,,,2,64,0,,
7380,note_on,0,0,3,,,,,,,,,2,,,53,49
7380,note_on,0,0,3,,,,,,,,,2,,,49,49
7380,control_change,0,0,1,,,,,,,,,0,64,0,,
7380,control_change,0,0,2,,,,,,,,,1,64,0,,
7386,note_on,6,0,3,,,,,,,,,2,,,53,0
7386,note_on,0,0,3,,,,,,,,,2,,,49,0
7410,note_on,30,0,2,,,,,,,,,1,,,73,0
7440,control_change,30,0,2,,,,,,,,,1,64,127,,
7440,control_change,0,0,1,,,,,,,,,0,64,127,,
7440,note_on,60,0,1,,,,,,,,,0,,,56,0
7440,note_on,0,0,1,,,,,,,,,0,,,56,62
7440,control_change,54,0,3,,,,,,,,,2,64,127,,
7440,note_on,0,0,3,,,,,,,,,2,,,32,49
7446,note_on,6,0,3,,,,,,,,,2,,,32,0
7460,note_on,20,0,2,,,,,,,,,1,,,60,49
7479,note_on,19,0,2,,,,,,,,,1,,,66,49
7480,note_on,1,0,2,,,,,,,,,1,,,60,0
7499,note_on,19,0,2,,,,,,,,,1,,,66,0
7500,note_on,1,0,2,,,,,,,,,1,,,67,49
7500,note_on,0,0,3,,,,,,,,,2,,,54,49
7500,note_on,54,0,3,,,,,,,,,2,,,51,49
7506,note_on,6,0,3,,,,,,,,,2,,,54,0
7506,note_on,0,0,3,,,,,,,,,2,,,51,0
7520,note_on,20,0,2,,,,,,,,,1,,,67,0
7520,note_on,0,0,2,,,,,,,,,1,,,68,49
7530,note_on,0,0,1,,,,,,,,,0,,,56,62
7530,note_on,90,0,1,,,,,,,,,0,,,56,0
7539,note_on,19,0,2,,,,,,,,,1,,,72,49
7540,note_on,1,0,2,,,,,,,,,1,,,68,0
7559,note_on,19,0,2,,,,,,,,,1,,,72,0
7560,note_on,0,0,1,,,,,,,,,0,,,63,88
7560,note_on,30,0,1,,,,,,,,,0,,,56,0
7560,note_on,0,0,3,,,,,,,,,2,,,56,49
7560,note_on,54,0,3,,,,,,,,,2,,,54,49
7560,note_on,1,0,2,,,,,,,,,1,,,78,49
7566,note_on,0,0,3,,,,,,,,,2,,,54,0
7566,note_on,6,0,3,,,,,,,,,2,,,56,0
7620,note_on,0,0,1,,,,,,,,,0,,,60,88
7620,control_change,0,0,2,,,,,,,,,1,64,0,,
7620,control_change,0,0,1,,,,,,,,,0,64,0,,
7620,note_on,0,0,3,,,,,,,,,2,,,51,49
7620,note_on,0,0,3,,,,,,,,,2,,,54,49
7620,note_on,60,0,1,,,,,,,,,0,,,63,0
7620,control_change,54,0,3,,,,,,,,,2,64,0,,
7620,note_on,0,0,2,,,,,,,,,1,,,72,49
7620,note_on,60,0,2,,,,,,,,,1,,,78,0
7626,note_on,6,0,3,,,,,,,,,2,,,54,0
7626,note_on,0,0,3,,,,,,,,,2,,,51,0
7650,note_on,30,0,2,,,,,,,,,1,,,72,0
7680,note_on,60,0,1,,,,,,,,,0,,,60,0
7680,control_change,54,0,3,,,,,,,,,2,64,127,,
7680,control_change,30,0,2,,,,,,,,,1,64,127,,
7680,note_on,0,0,1,,,,,,,,,0,,,61,88
7680,note_on,0,0,3,,,,,,,,,2,,,37,49
7680,control_change,0,0,1,,,,,,,,,0,64,127,,
7686,note_on,6,0,3,,,,,,,,,2,,,37,0
7700,note_on,20,0,2,,,,,,,,,1,,,65,49
7719,note_on,19,0,2,,,,,,,,,1,,,66,49
7720,note_on,1,0,2,,,,,,,,,1,,,65,0
7739,note_on,19,0,2,,,,,,,,,1,,,66,0
7740,note_on,1,0,2,,,,,,,,,1,,,67,49
7740,note_on,0,0,3,,,,,,,,,2,,,53,49
7740,note_on,54,0,3,,,,,,,,,2,,,49,49
7746,note_on,6,0,3,,,,,,,,,2,,,53,0
7746,note_on,0,0,3,,,,,,,,,2,,,49,0
7760,note_on,20,0,2,,,,,,,,,1,,,67,0
7760,note_on,0,0,2,,,,,,,,,1,,,70,49
7779,note_on,19,0,2,,,,,,,,,1,,,68,49
7780,note_on,1,0,2,,,,,,,,,1,,,70,0
7799,note_on,19,0,2,,,,,,,,,1,,,68,0
7800,note_on,1,0,2,,,,,,,,,1,,,77,75
7800,note_on,54,0,3,,,,,,,,,2,,,53,49
7800,note_on,120,0,1,,,,,,,,,0,,,61,0
7800,note_on,0,0,3,,,,,,,,,2,,,56,49
7806,note_on,0,0,3,,,,,,,,,2,,,53,0
7806,note_on,6,0,3,,,,,,,,,2,,,56,0
7860,control_change,60,0,1,,,,,,,,,0,64,0,,
7860,control_change,54,0,3,,,,,,,,,2,64,0,,
7860,note_on,0,0,3,,,,,,,,,2,,,53,49
7860,note_on,0,0,3,,,,,,,,,2,,,49,49
7860,note_on,60,0,2,,,,,,,,,1,,,77,0
7860,note_on,0,0,1,,,,,,,,,0,,,61,88
7860,note_on,0,0,2,,,,,,,,,1,,,73,49
7860,control_change,0,0,2,,,,,,,,,1,64,0,,
7866,note_on,6,0,3,,,,,,,,,2,,,53,0
7866,note_on,0,0,3,,,,,,,,,2,,,49,0
7890,note_on,30,0,2,,,,,,,,,1,,,73,0
7920,control_change,54,0,3,,,,,,,,,2,64,127,,
7920,note_on,0,0,1,,,,,,,,,0,,,60,62
7920,note_on,0,0,3,,,,,,,,,2,,,42,49
7920,control_change,0,0,1,,,,,,,,,0,64,127,,
7920,control_change,30,0,2,,,,,,,,,1,64,127,,
7920,note_on,60,0,1,,,,,,,,,0,,,61,0
7926,note_on,6,0,3,,,,,,,,,2,,,42,0
7940,note_on,20,0,2,,,,,,,,,1,,,61,49
7950,note_on,0,0,1,,,,,,,,,0,,,58,62
7950,note_on,30,0,1,,,,,,,,,0,,,60,0
7959,note_on,19,0,2,,,,,,,,,1,,,66,49
7960,note_on,1,0,2,,,,,,,,,1,,,61,0
7979,note_on,19,0,2,,,,,,,,,1,,,66,0
7980,note_on,0,0,1,,,,,,,,,0,,,58,62
7980,note_on,30,0,1,,,,,,,,,0,,,58,0
7980,note_on,0,0,3,,,,,,,,,2,,,54,49
7980,note_on,54,0,3,,,,,,,,,2,,,49,49
7980,note_on,1,0,2,,,,,,,,,1,,,70,49
7986,note_on,6,0,3,,,,,,,,,2,,,54,0
7986,note_on,0,0,3,,,,,,,,,2,,,49,0
8000,note_on,0,0,2,,,,,,,,,1,,,71,49
8000,note_on,20,0,2,,,,,,,,,1,,,70,0
8019,note_on,19,0,2,,,,,,,,,1,,,72,49
8020,note_on,1,0,2,,,,,,,,,1,,,71,0
8039,note_on,19,0,2,,,,,,,,,1,,,72,0
8040,note_on,60,0,1,,,,,,,,,0,,,58,0
8040,note_on,1,0,2,,,,,,,,,1,,,75,75
8040,note_on,0,0,1,,,,,,,,,0,,,58,62
8040,note_on,54,0,3,,,,,,,,,2,,,42,49
8046,note_on,6,0,3,,,,,,,,,2,,,42,0
8070,note_on,0,0,1,,,,,,,,,0,,,61,88
8070,note_on,30,0,1,,,,,,,,,0,,,58,0
8100,note_on,0,0,2,,,,,,,,,1,,,70,49
8100,note_on,0,0,1,,,,,,,,,0,,,60,62
8100,control_change,54,0,3,,,,,,,,,2,64,0,,
8100,note_on,0,0,3,,,,,,,,,2,,,54,49
8100,note_on,60,0,2,,,,,,,,,1,,,75,0
8100,note_on,30,0,1,,,,,,,,,0,,,61,0
8100,note_on,0,0,2,,,,,,,,,1,,,73,49
8100,control_change,0,0,2,,,,,,,,,1,64,0,,
8106,note_on,6,0,3,,,,,,,,,2,,,54,0
8130,note_on,0,0,1,,,,,,,,,0,,,63,88
8130,control_change,0,0,1,,,,,,,,,0,64,0,,
8130,note_on,30,0,1,,,,,,,,,0,,,60,0
8130,note_on,30,0,2,,,,,,,,,1,,,73,0
8130,note_on,0,0,2,,,,,,,,,1,,,70,0
8160,control_change,54,0,3,,,,,,,,,2,64,127,,
8160,control_change,30,0,2,,,,,,,,,1,64,127,,
8160,control_change,0,0,1,,,,,,,,,0,64,127,,
8160,note_on,30,0,1,,,,,,,,,0,,,63,0
8160,note_on,0,0,1,,,,,,,,,0,,,61,88
8160,note_on,0,0,3,,,,,,,,,2,,,37,49
8166,note_on,6,0,3,,,,,,,,,2,,,37,0
8180,note_on,20,0,2,,,,,,,,,1,,,65,49
8199,note_on,19,0,2,,,,,,,,,1,,,66,49
8200,note_on,1,0,2,,,,,,,,,1,,,65,0
8219,note_on,19,0,2,,,,,,,,,1,,,66,0
8220,note_on,54,0,3,,,,,,,,,2,,,49,49
8220,note_on,1,0,2,,,,,,,,,1,,,67,49
8220,note_on,0,0,3,,,,,,,,,2,,,53,49
8226,note_on,6,0,3,,,,,,,,,2,,,53,0
8226,note_on,0,0,3,,,,,,,,,2,,,49,0
8240,note_on,0,0,2,,,,,,,,,1,,,70,49
8240,note_on,20,0,2,,,,,,,,,1,,,67,0
8259,note_on,19,0,2,,,,,,,,,1,,,68,49
8260,note_on,1,0,2,,,,,,,,,1,,,70,0
8279,note_on,19,0,2,,,,,,,,,1,,,68,0
8280,note_on,120,0,1,,,,,,,,,0,,,61,0
8280,note_on,0,0,1,,,,,,,,,0,,,56,88
8280,note_on,1,0,2,,,,,,,,,1,,,77,75
8340,control_change,0,0,2,,,,,,,,,1,64,0,,
8340,note_on,0,0,2,,,,,,,,,1,,,73,49
8340,note_on,0,0,3,,,,,,,,,2,,,49,49
8340,note_on,0,0,3,,,,,,,,,2,,,53,49
8340,note_on,60,0,1,,,,,,,,,0,,,56,0
8340,note_on,60,0,2,,,,,,,,,1,,,77,0
8340,control_change,114,0,3,,,,,,,,,2,64,0,,
8346,note_on,0,0,3,,,,,,,,,2,,,49,0
8346,note_on,6,0,3,,,,,,,,,2,,,53,0
8370,note_on,0,0,1,,,,,,,,,0,,,56,62
8370,note_on,30,0,2,,,,,,,,,1,,,73,0
8370,control_change,30,0,1,,,,,,,,,0,64,0,,
8400,control_change,54,0,3,,,,,,,,,2,64,127,,
8400,control_change,30,0,2,,,,,,,,,1,64,127,,
8400,note_on,30,0,1,,,,,,,,,0,,,56,0
8400,control_change,0,0,1,,,,,,,,,0,64,127,,
8400,note_on,0,0,1,,,,,,,,,0,,,56,62
8400,note_on,0,0,3,,,,,,,,,2,,,32,49
8406,note_on,6,0,3,,,,,,,,,2,,,32,0
8420,note_on,20,0,2,,,,,,,,,1,,,60,49
8439,note_on,19,0,2,,,,,,,,,1,,,66,49
8440,note_on,1,0,2,,,,,,,,,1,,,60,0
8459,note_on,19,0,2,,,,,,,,,1,,,66,0
8460,note_on,0,0,3,,,,,,,,,2,,,54,49
8460,note_on,54,0,3,,,,,,,,,2,,,51,49
8460,note_on,1,0,2,,,,,,,,,1,,,67,49
8466,note_on,6,0,3,,,,,,,,,2,,,54,0
8466,note_on,0,0,3,,,,,,,,,2,,,51,0
8480,note_on,20,0,2,,,,,,,,,1,,,67,0
8480,note_on,0,0,2,,,,,,,,,1,,,68,49
8490,note_on,0,0,1,,,,,,,,,0,,,56,62
8490,note_on,90,0,1,,,,,,,,,0,,,56,0
8499,note_on,19,0,2,,,,,,,,,1,,,72,49
8500,note_on,1,0,2,,,,,,,,,1,,,68,0
8519,note_on,19,0,2,,,,,,,,,1,,,72,0
8520,note_on,0,0,3,,,,,,,,,2,,,56,49
8520,note_on,1,0,2,,,,,,,,,1,,,78,49
8520,note_on,30,0,1,,,,,,,,,0,,,56,0
8520,note_on,0,0,1,,,,,,,,,0,,,63,88
8520,note_on,54,0,3,,,,,,,,,2,,,54,49
8526,note_on,6,0,3,,,,,,,,,2,,,56,0
8526,note_on,0,0,3,,,,,,,,,2,,,54,0
8580,note_on,0,0,3,,,,,,,,,2,,,51,49
8580,control_change,0,0,2,,,,,,,,,1,64,0,,
8580,note_on,0,0,2,,,,,,,,,1,,,72,49
8580,note_on,60,0,1,,,,,,,,,0,,,63,0
8580,note_on,0,0,1,,,,,,,,,0,,,60,88
8580,note_on,0,0,3,,,,,,,,,2,,,54,49
8580,control_change,0,0,1,,,,,,,,,0,64,0,,
8580,note_on,60,0,2,,,,,,,,,1,,,78,0
8580,control_change,54,0,3,,,,,,,,,2,64,0,,
8586,note_on,0,0,3,,,,,,,,,2,,,51,0
8586,note_on,6,0,3,,,,,,,,,2,,,54,0
8610,note_on,30,0,2,,,,,,,,,1,,,72,0
8640,control_change,30,0,2,,,,,,,,,1,64,127,,
8640,note_on,60,0,1,,,,,,,,,0,,,60,0
8640,note_on,0,0,1,,,,,,,,,0,,,61,88
8640,control_change,0,0,1,,,,,,,,,0,64,127,,
8640,note_on,0,0,3,,,,,,,,,2,,,37,49
8640,control_change,54,0,3,,,,,,,,,2,64,127,,
8646,note_on,6,0,3,,,,,,,,,2,,,37,0
8660,note_on,20,0,2,,,,,,,,,1,,,65,49
8679,note_on,19,0,2,,,,,,,,,1,,,66,49
8680,note_on,1,0,2,,,,,,,,,1,,,65,0
8699,note_on,19,0,2,,,,,,,,,1,,,66,0
8700,note_on,54,0,3,,,,,,,,,2,,,53,49
8700,note_on,1,0,2,,,,,,,,,1,,,67,49
8700,note_on,0,0,3,,,,,,,,,2,,,56,49
8706,note_on,0,0,3,,,,,,,,,2,,,53,0
8706,note_on,6,0,3,,,,,,,,,2,,,56,0
8720,note_on,0,0,2,,,,,,,,,1,,,70,49
8720,note_on,20,0,2,,,,,,,,,1,,,67,0
8739,note_on,19,0,2,,,,,,,,,1,,,68,49
8740,note_on,1,0,2,,,,,,,,,1,,,70,0
8759,note_on,19,0,2,,,,,,,,,1,,,68,0
8760,note_on,54,0,3,,,,,,,,,2,,,49,49
8760,note_on,1,0,2,,,,,,,,,1,,,77,75
8760,note_on,120,0,1,,,,,,,,,0,,,61,0
8766,note_on,6,0,3,,,,,,,,,2,,,49,0
8820,control_change,54,0,3,,,,,,,,,2,64,0,,
8820,note_on,60,0,2,,,,,,,,,1,,,77,0
8820,control_change,60,0,1,,,,,,,,,0,64,0,,
8820,note_on,0,0,3,,,,,,,,,2,,,53,49
8820,note_on,0,0,3,,,,,,,,,2,,,56,49
8820,note_on,0,0,3,,,,,,,,,2,,,61,49
8820,control_change,0,0,2,,,,,,,,,1,64,0,,
8820,note_on,0,0,2,,,,,,,,,1,,,73,49
8826,note_on,0,0,3,,,,,,,,,2,,,53,0
8826,note_on,6,0,3,,,,,,,,,2,,,61,0
8826,note_on,0,0,3,,,,,,,,,2,,,56,0
8850,note_on,30,0,2,,,,,,,,,1,,,73,0
8880,note_on,0,0,2,,,,,,,,,1,,,68,49
8880,note_on,30,0,2,,,,,,,,,1,,,65,49
8900,note_on,74,0,3,,,,,,,,,2,,,49,49
8919,note_on,19,0,3,,,,,,,,,2,,,53,49
8920,note_on,1,0,3,,,,,,,,,2,,,49,0
8939,note_on,19,0,3,,,,,,,,,2,,,53,0
8940,note_on,120,0,1,,,,,,,,,0,,,73,62
8940,note_on,1,0,3,,,,,,,,,2,,,54,49
8960,note_on,0,0,3,,,,,,,,,2,,,55,49
8960,note_on,20,0,3,,,,,,,,,2,,,54,0
8979,note_on,19,0,3,,,,,,,,,2,,,56,49
8980,note_on,1,0,3,,,,,,,,,2,,,55,0
8999,note_on,19,0,3,,,,,,,,,2,,,56,0
9000,note_on,120,0,2,,,,,,,,,1,,,68,0
9000,note_on,0,0,2,,,,,,,,,1,,,65,0
9000,note_on,0,0,2,,,,,,,,,1,,,65,49
9000,note_on,0,0,2,,,,,,,,,1,,,68,49
9000,note_on,1,0,3,,,,,,,,,2,,,61,75
9060,note_on,0,0,1,,,,,,,,,0,,,77,62
9060,note_on,0,0,3,,,,,,,,,2,,,56,49
9060,note_on,60,0,3,,,,,,,,,2,,,61,0
9060,note_on,120,0,1,,,,,,,,,0,,,73,0
9090,note_on,30,0,3,,,,,,,,,2,,,56,0
9120,note_on,0,0,2,,,,,,,,,1,,,65,49
9120,note_on,0,0,2,,,,,,,,,1,,,65,0
9120,note_on,0,0,2,,,,,,,,,1,,,68,49
9120,note_on,120,0,2,,,,,,,,,1,,,68,0
9120,note_on,60,0,1,,,,,,,,,0,,,77,0
9140,note_on,50,0,3,,,,,,,,,2,,,49,49
9159,note_on,19,0,3,,,,,,,,,2,,,53,49
9160,note_on,1,0,3,,,,,,,,,2,,,49,0
9179,note_on,19,0,3,,,,,,,,,2,,,53,0
9180,note_on,60,0,1,,,,,,,,,0,,,73,62
9180,note_on,1,0,3,,,,,,,,,2,,,54,49
9200,note_on,0,0,3,,,,,,,,,2,,,55,49
9200,note_on,20,0,3,,,,,,,,,2,,,54,0
9219,note_on,19,0,3,,,,,,,,,2,,,56,49
9220,note_on,1,0,3,,,,,,,,,2,,,55,0
9239,note_on,19,0,3,,,,,,,,,2,,,56,0
9240,note_on,0,0,2,,,,,,,,,1,,,65,0
9240,note_on,1,0,3,,,,,,,,,2,,,61,75
9240,note_on,0,0,2,,,,,,,,,1,,,65,49
9240,note_on,120,0,2,,,,,,,,,1,,,68,0
9240,note_on,0,0,2,,,,,,,,,1,,,68,49
9300,note_on,120,0,1,,,,,,,,,0,,,73,0
9300,note_on,0,0,3,,,,,,,,,2,,,56,49
9300,note_on,60,0,3,,,,,,,,,2,,,61,0
9300,note_on,0,0,1,,,,,,,,,0,,,77,62
9330,note_on,30,0,3,,,,,,,,,2,,,56,0
9360,note_on,0,0,2,,,,,,,,,1,,,65,0
9360,note_on,0,0,2,,,,,,,,,1,,,56,49
9360,note_on,60,0,1,,,,,,,,,0,,,77,0
9360,note_on,0,0,2,,,,,,,,,1,,,53,49
9360,note_on,120,0,2,,,,,,,,,1,,,68,0
9380,note_on,50,0,3,,,,,,,,,2,,,37,49
9399,note_on,19,0,3,,,,,,,,,2,,,41,49
9400,note_on,1,0,3,,,,,,,,,2,,,37,0
9419,note_on,19,0,3,,,,,,,,,2,,,41,0
9420,note_on,1,0,3,,,,,,,,,2,,,42,49
9420,note_on,60,0,1,,,,,,,,,0,,,61,49
9420,set_tempo,5454,1,0,,,,,,833333,,,,,,,
9440,note_on,20,0,3,,,,,,,,,2,,,42,0
9440,note_on,0,0,3,,,,,,,,,2,,,43,49
9459,note_on,19,0,3,,,,,,,,,2,,,44,49
9460,note_on,1,0,3,,,,,,,,,2,,,43,0
9479,note_on,19,0,3,,,,,,,,,2,,,44,0
9480,note_on,120,0,2,,,,,,,,,1,,,56,0
9480,set_tempo,60,1,0,,,,,,923077,,,,,,,
9480,note_on,0,0,2,,,,,,,,,1,,,53,49
9480,note_on,0,0,2,,,,,,,,,1,,,56,49
9480,note_on,0,0,2,,,,,,,,,1,,,53,0
9480,note_on,1,0,3,,,,,,,,,2,,,49,75
9540,set_tempo,60,1,0,,,,,,1016949,,,,,,,
9540,note_on,60,0,3,,,,,,,,,2,,,49,0
9540,note_on,120,0,1,,,,,,,,,0,,,61,0
9540,note_on,0,0,3,,,,,,,,,2,,,44,49
9540,note_on,0,0,1,,,,,,,,,0,,,65,49
9570,note_on,30,0,3,,,,,,,,,2,,,44,0
9600,note_on,0,0,2,,,,,,,,,1,,,53,0
9600,note_on,0,0,2,,,,,,,,,1,,,53,36
9600,note_on,0,0,2,,,,,,,,,1,,,56,36
9600,set_tempo,60,1,0,,,,,,1153846,,,,,,,
9600,note_on,60,0,1,,,,,,,,,0,,,65,0
9600,note_on,120,0,2,,,,,,,,,1,,,56,0
9620,note_on,50,0,3,,,,,,,,,2,,,37,36
9639,note_on,19,0,3,,,,,,,,,2,,,41,36
9640,note_on,1,0,3,,,,,,,,,2,,,37,0
9659,note_on,19,0,3,,,,,,,,,2,,,41,0
9660,set_tempo,60,1,0,,,,,,1304348,,,,,,,
9660,note_on,60,0,1,,,,,,,,,0,,,61,36
9660,note_on,1,0,3,,,,,,,,,2,,,42,36
9680,note_on,0,0,3,,,,,,,,,2,,,43,36
9680,note_on,20,0,3,,,,,,,,,2,,,42,0
9699,note_on,19,0,3,,,,,,,,,2,,,44,36
9700,note_on,1,0,3,,,,,,,,,2,,,43,0
9719,note_on,19,0,3,,,,,,,,,2,,,44,0
9720,note_on,0,0,2,,,,,,,,,1,,,53,0
9720,note_on,120,0,2,,,,,,,,,1,,,56,0
9720,set_tempo,60,1,0,,,,,,1538462,,,,,,,
9720,note_on,0,0,2,,,,,,,,,1,,,53,36
9720,note_on,0,0,2,,,,,,,,,1,,,56,36
9720,note_on,1,0,3,,,,,,,,,2,,,49,62
9780,note_on,0,0,3,,,,,,,,,2,,,44,36
9780,set_tempo,60,1,0,,,,,,1818182,,,,,,,
9780,note_on,120,0,1,,,,,,,,,0,,,61,0
9780,note_on,60,0,3,,,,,,,,,2,,,49,0
9780,note_on,0,0,1,,,,,,,,,0,,,65,36
9810,note_on,30,0,3,,,,,,,,,2,,,44,0
9825,note_on,0,0,1,,,,,,,,,0,,,68,36
9825,control_change,45,0,1,,,,,,,,,0,64,127,,
9840,note_on,120,0,2,,,,,,,,,1,,,56,0
9840,set_tempo,60,1,0,,,,,,845070,,,,,,,
9840,note_on,0,0,1,,,,,,,,,0,,,73,75
9840,note_on,0,0,3,,,,,,,,,2,,,37,88
9840,note_on,0,0,2,,,,,,,,,1,,,53,0
9840,control_change,30,0,3,,,,,,,,,2,64,127,,
9840,note_on,0,0,1,,,,,,,,,0,,,65,0
9840,note_on,15,0,1,,,,,,,,,0,,,68,0
9840,control_change,0,0,2,,,,,,,,,1,64,127,,
9846,note_on,6,0,1,,,,,,,,,0,,,73,0
9846,note_on,6,0,3,,,,,,,,,2,,,37,0
9860,note_on,20,0,2,,,,,,,,,1,,,61,62
9879,note_on,19,0,2,,,,,,,,,1,,,65,62
9880,note_on,1,0,2,,,,,,,,,1,,,61,0
9899,note_on,19,0,2,,,,,,,,,1,,,65,0
9900,note_on,54,0,3,,,,,,,,,2,,,49,80
9900,note_on,1,0,2,,,,,,,,,1,,,61,62
9900,note_on,0,0,3,,,,,,,,,2,,,56,88
9900,note_on,54,0,1,,,,,,,,,0,,,73,75
9906,note_on,6,0,1,,,,,,,,,0,,,73,0
9906,note_on,0,0,3,,,,,,,,,2,,,49,0
9906,note_on,6,0,3,,,,,,,,,2,,,56,0
9920,note_on,0,0,2,,,,,,,,,1,,,68,62
9920,note_on,20,0,2,,,,,,,,,1,,,61,0
9939,note_on,19,0,2,,,,,,,,,1,,,65,62
9940,note_on,1,0,2,,,,,,,,,1,,,68,0
9959,note_on,19,0,2,,,,,,,,,1,,,65,0
9960,note_on,54,0,1,,,,,,,,,0,,,77,75
9960,note_on,1,0,2,,,,,,,,,1,,,73,88
9966,note_on,6,0,1,,,,,,,,,0,,,77,0
9980,note_on,74,0,3,,,,,,,,,2,,,65,88
9999,note_on,19,0,3,,,,,,,,,2,,,56,62
10000,note_on,1,0,3,,,,,,,,,2,,,65,0
10019,note_on,19,0,3,,,,,,,,,2,,,56,0
10020,note_on,60,0,2,,,,,,,,,1,,,73,0
10020,note_on,0,0,2,,,,,,,,,1,,,65,62
10020,note_on,0,0,2,,,,,,,,,1,,,68,62
10020,note_on,54,0,1,,,,,,,,,0,,,77,75
10020,note_on,1,0,3,,,,,,,,,2,,,61,62
10026,note_on,6,0,1,,,,,,,,,0,,,77,0
10040,note_on,0,0,3,,,,,,,,,2,,,53,62
10040,note_on,20,0,3,,,,,,,,,2,,,61,0
10059,note_on,19,0,3,,,,,,,,,2,,,56,62
10060,note_on,1,0,3,,,,,,,,,2,,,53,0
10079,note_on,19,0,3,,,,,,,,,2,,,56,0
10080,note_on,54,0,1,,,,,,,,,0,,,73,75
10080,note_on,0,0,2,,,,,,,,,1,,,65,0
10080,note_on,1,0,3,,,,,,,,,2,,,37,88
10080,note_on,60,0,2,,,,,,,,,1,,,68,0
10086,note_on,6,0,3,,,,,,,,,2,,,37,0
10100,note_on,20,0,2,,,,,,,,,1,,,61,62
10119,note_on,19,0,2,,,,,,,,,1,,,65,62
10120,note_on,1,0,2,,,,,,,,,1,,,61,0
10139,note_on,19,0,2,,,,,,,,,1,,,65,0
10140,note_on,54,0,3,,,,,,,,,2,,,49,80
10140,note_on,1,0,2,,,,,,,,,1,,,61,62
10140,note_on,0,0,3,,,,,,,,,2,,,53,88
10146,note_on,6,0,3,,,,,,,,,2,,,53,0
10146,note_on,0,0,3,,,,,,,,,2,,,49,0
10160,note_on,20,0,2,,,,,,,,,1,,,61,0
10160,note_on,0,0,2,,,,,,,,,1,,,68,62
10179,note_on,19,0,2,,,,,,,,,1,,,65,62
10180,note_on,1,0,2,,,,,,,,,1,,,68,0
10199,note_on,19,0,2,,,,,,,,,1,,,65,0
10200,note_on,0,0,1,,,,,,,,,0,,,68,101
10200,note_on,120,0,1,,,,,,,,,0,,,73,0
10206,note_on,6,0,1,,,,,,,,,0,,,68,0
10220,note_on,74,0,3,,,,,,,,,2,,,61,88
10239,note_on,19,0,3,,,,,,,,,2,,,53,62
10240,note_on,1,0,3,,,,,,,,,2,,,61,0
10259,note_on,19,0,3,,,,,,,,,2,,,53,0
10260,control_change,61,0,2,,,,,,,,,1,64,0,,
10260,note_on,1,0,3,,,,,,,,,2,,,56,62
10260,note_on,0,0,2,,,,,,,,,1,,,61,62
10260,note_on,0,0,2,,,,,,,,,1,,,65,62
10280,note_on,0,0,3,,,,,,,,,2,,,49,62
10280,note_on,20,0,3,,,,,,,,,2,,,56,0
10290,control_change,84,0,1,,,,,,,,,0,64,0,,
10290,note_on,0,0,1,,,,,,,,,0,,,68,75
10294,note_on,4,0,1,,,,,,,,,0,,,68,0
10299,control_change,19,0,3,,,,,,,,,2,64,0,,
10299,note_on,0,0,3,,,,,,,,,2,,,53,62
10300,note_on,1,0,3,,,,,,,,,2,,,49,0
10319,note_on,19,0,3,,,,,,,,,2,,,53,0
10320,control_change,0,0,2,,,,,,,,,1,64,127,,
10320,control_change,26,0,1,,,,,,,,,0,64,127,,
10320,control_change,1,0,3,,,,,,,,,2,64,127,,
10320,note_on,0,0,3,,,,,,,,,2,,,32,88
10320,note_on,60,0,2,,,,,,,,,1,,,65,0
10320,note_on,0,0,2,,,,,,,,,1,,,61,0
10320,note_on,0,0,1,,,,,,,,,0,,,68,75
10326,note_on,6,0,1,,,,,,,,,0,,,68,0
10326,note_on,6,0,3,,,,,,,,,2,,,32,0
10340,note_on,20,0,2,,,,,,,,,1,,,60,62
10359,note_on,19,0,2,,,,,,,,,1,,,63,62
10360,note_on,1,0,2,,,,,,,,,1,,,60,0
10379,note_on,19,0,2,,,,,,,,,1,,,63,0
10380,note_on,54,0,3,,,,,,,,,2,,,51,80
10380,note_on,0,0,3,,,,,,,,,2,,,54,88
10380,note_on,1,0,2,,,,,,,,,1,,,60,62
10380,note_on,54,0,1,,,,,,,,,0,,,68,75
10386,note_on,6,0,1,,,,,,,,,0,,,68,0
10386,note_on,0,0,3,,,,,,,,,2,,,51,0
10386,note_on,6,0,3,,,,,,,,,2,,,54,0
10400,note_on,20,0,2,,,,,,,,,1,,,60,0
10400,note_on,0,0,2,,,,,,,,,1,,,66,62
10419,note_on,19,0,2,,,,,,,,,1,,,63,62
10420,note_on,1,0,2,,,,,,,,,1,,,66,0
10439,note_on,19,0,2,,,,,,,,,1,,,63,0
10440,note_on,1,0,2,,,,,,,,,1,,,66,88
10440,note_on,54,0,1,,,,,,,,,0,,,75,75
10460,note_on,74,0,3,,,,,,,,,2,,,63,88
10470,note_on,0,0,1,,,,,,,,,0,,,73,75
10470,note_on,30,0,1,,,,,,,,,0,,,75,0
10474,note_on,4,0,1,,,,,,,,,0,,,73,0
10479,note_on,19,0,3,,,,,,,,,2,,,54,62
10480,note_on,1,0,3,,,,,,,,,2,,,63,0
10499,note_on,19,0,3,,,,,,,,,2,,,54,0
10500,note_on,26,0,1,,,,,,,,,0,,,72,75
10500,note_on,1,0,3,,,,,,,,,2,,,56,62
10500,note_on,60,0,2,,,,,,,,,1,,,66,0
10500,note_on,0,0,2,,,,,,,,,1,,,63,62
10500,note_on,0,0,2,,,,,,,,,1,,,66,62
10520,note_on,20,0,3,,,,,,,,,2,,,56,0
10520,note_on,0,0,3,,,,,,,,,2,,,51,62
10530,note_on,0,0,1,,,,,,,,,0,,,70,75
10530,note_on,30,0,1,,,,,,,,,0,,,72,0
10534,note_on,4,0,1,,,,,,,,,0,,,70,0
10539,note_on,19,0,3,,,,,,,,,2,,,54,62
10540,note_on,1,0,3,,,,,,,,,2,,,51,0
10559,note_on,19,0,3,,,,,,,,,2,,,54,0
10560,note_on,0,0,2,,,,,,,,,1,,,63,0
10560,note_on,26,0,1,,,,,,,,,0,,,68,75
10560,note_on,1,0,3,,,,,,,,,2,,,32,88
10560,note_on,60,0,2,,,,,,,,,1,,,66,0
10566,note_on,6,0,3,,,,,,,,,2,,,32,0
10580,note_on,20,0,2,,,,,,,,,1,,,60,62
10599,note_on,19,0,2,,,,,,,,,1,,,63,62
10600,note_on,1,0,2,,,,,,,,,1,,,60,0
10619,note_on,19,0,2,,,,,,,,,1,,,63,0
10620,note_on,0,0,3,,,,,,,,,2,,,51,88
10620,note_on,1,0,2,,,,,,,,,1,,,60,62
10620,note_on,54,0,3,,,,,,,,,2,,,48,80
10626,note_on,0,0,3,,,,,,,,,2,,,48,0
10626,note_on,6,0,3,,,,,,,,,2,,,51,0
10640,note_on,0,0,2,,,,,,,,,1,,,66,62
10640,note_on,20,0,2,,,,,,,,,1,,,60,0
10659,note_on,19,0,2,,,,,,,,,1,,,63,62
10660,note_on,1,0,2,,,,,,,,,1,,,66,0
10679,note_on,19,0,2,,,,,,,,,1,,,63,0
10680,control_change,1,0,2,,,,,,,,,1,64,0,,
10680,note_on,0,0,2,,,,,,,,,1,,,60,62
10680,note_on,120,0,1,,,,,,,,,0,,,68,0
10700,note_on,74,0,3,,,,,,,,,2,,,56,62
10719,note_on,19,0,3,,,,,,,,,2,,,51,62
10720,note_on,1,0,3,,,,,,,,,2,,,56,0
10739,note_on,19,0,3,,,,,,,,,2,,,51,0
10740,note_on,0,0,1,,,,,,,,,0,,,68,75
10740,note_on,1,0,3,,,,,,,,,2,,,54,62
10740,note_on,60,0,2,,,,,,,,,1,,,60,0
10740,control_change,60,0,1,,,,,,,,,0,64,0,,
10760,note_on,0,0,3,,,,,,,,,2,,,44,62
10760,note_on,20,0,3,,,,,,,,,2,,,54,0
10779,control_change,19,0,3,,,,,,,,,2,64,0,,
10779,note_on,0,0,3,,,,,,,,,2,,,51,62
10780,note_on,1,0,3,,,,,,,,,2,,,44,0
10799,note_on,19,0,3,,,,,,,,,2,,,51,0
10800,control_change,60,0,2,,,,,,,,,1,64,127,,
10800,note_on,60,0,1,,,,,,,,,0,,,68,0
10800,note_on,0,0,3,,,,,,,,,2,,,37,88
10800,note_on,0,0,1,,,,,,,,,0,,,73,75
10800,control_change,1,0,3,,,,,,,,,2,64,127,,
10800,control_change,0,0,1,,,,,,,,,0,64,127,,
10806,note_on,6,0,3,,,,,,,,,2,,,37,0
10820,note_on,20,0,2,,,,,,,,,1,,,61,62
10839,note_on,19,0,2,,,,,,,,,1,,,65,62
10840,note_on,1,0,2,,,,,,,,,1,,,61,0
10859,note_on,19,0,2,,,,,,,,,1,,,65,0
10860,note_on,0,0,3,,,,,,,,,2,,,56,88
10860,note_on,54,0,3,,,,,,,,,2,,,49,80
10860,note_on,1,0,2,,,,,,,,,1,,,61,62
10866,note_on,6,0,3,,,,,,,,,2,,,56,0
10866,note_on,0,0,3,,,,,,,,,2,,,49,0
10880,note_on,0,0,2,,,,,,,,,1,,,68,62
10880,note_on,20,0,2,,,,,,,,,1,,,61,0
10890,note_on,90,0,1,,,,,,,,,0,,,73,0
10890,note_on,0,0,1,,,,,,,,,0,,,73,75
10899,note_on,19,0,2,,,,,,,,,1,,,65,62
10900,note_on,1,0,2,,,,,,,,,1,,,68,0
10919,note_on,19,0,2,,,,,,,,,1,,,65,0
10920,note_on,0,0,1,,,,,,,,,0,,,77,75
10920,note_on,30,0,1,,,,,,,,,0,,,73,0
10920,note_on,1,0,2,,,,,,,,,1,,,73,62
10940,note_on,74,0,3,,,,,,,,,2,,,65,88
10959,note_on,19,0,3,,,,,,,,,2,,,56,62
10960,note_on,1,0,3,,,,,,,,,2,,,65,0
10979,note_on,19,0,3,,,,,,,,,2,,,56,0
10980,note_on,0,0,1,,,,,,,,,0,,,77,75
10980,note_on,0,0,2,,,,,,,,,1,,,68,62
10980,note_on,60,0,1,,,,,,,,,0,,,77,0
10980,note_on,0,0,2,,,,,,,,,1,,,65,62
10980,note_on,1,0,3,,,,,,,,,2,,,61,62
10980,note_on,60,0,2,,,,,,,,,1,,,73,0
11000,note_on,0,0,3,,,,,,,,,2,,,53,62
11000,note_on,20,0,3,,,,,,,,,2,,,61,0
11019,note_on,19,0,3,,,,,,,,,2,,,56,62
11020,note_on,1,0,3,,,,,,,,,2,,,53,0
11039,note_on,19,0,3,,,,,,,,,2,,,56,0
11040,note_on,60,0,2,,,,,,,,,1,,,68,0
11040,note_on,1,0,3,,,,,,,,,2,,,37,101
11040,note_on,60,0,1,,,,,,,,,0,,,77,0
11040,note_on,0,0,2,,,,,,,,,1,,,65,0
11040,note_on,0,0,1,,,,,,,,,0,,,73,88
11046,note_on,6,0,3,,,,,,,,,2,,,37,0
11060,note_on,20,0,2,,,,,,,,,1,,,61,75
11079,note_on,19,0,2,,,,,,,,,1,,,65,75
11080,note_on,1,0,2,,,,,,,,,1,,,61,0
11099,note_on,19,0,2,,,,,,,,,1,,,65,0
11100,note_on,0,0,3,,,,,,,,,2,,,53,101
11100,note_on,1,0,2,,,,,,,,,1,,,61,75
11100,note_on,54,0,3,,,,,,,,,2,,,49,93
11106,note_on,0,0,3,,,,,,,,,2,,,49,0
11106,note_on,6,0,3,,,,,,,,,2,,,53,0
11120,note_on,20,0,2,,,,,,,,,1,,,61,0
11120,note_on,0,0,2,,,,,,,,,1,,,68,75
11139,note_on,19,0,2,,,,,,,,,1,,,65,75
11140,note_on,1,0,2,,,,,,,,,1,,,68,0
11159,note_on,19,0,2,,,,,,,,,1,,,65,0
11160,note_on,120,0,1,,,,,,,,,0,,,73,0
11160,note_on,0,0,1,,,,,,,,,0,,,68,88
11180,note_on,74,0,3,,,,,,,,,2,,,61,101
11199,note_on,19,0,3,,,,,,,,,2,,,53,75
11200,note_on,1,0,3,,,,,,,,,2,,,61,0
11219,note_on,19,0,3,,,,,,,,,2,,,53,0
11220,note_on,60,0,1,,,,,,,,,0,,,68,0
11220,note_on,1,0,3,,,,,,,,,2,,,56,75
11220,control_change,61,0,2,,,,,,,,,1,64,0,,
11220,note_on,0,0,2,,,,,,,,,1,,,61,75
11220,note_on,0,0,2,,,,,,,,,1,,,65,75
11220,note_on,0,0,1,,,,,,,,,0,,,73,88
11220,control_change,0,0,1,,,,,,,,,0,64,0,,
11240,note_on,20,0,3,,,,,,,,,2,,,56,0
11240,note_on,0,0,3,,,,,,,,,2,,,49,75
11259,control_change,19,0,3,,,,,,,,,2,64,0,,
11259,note_on,0,0,3,,,,,,,,,2,,,53,75
11260,note_on,1,0,3,,,,,,,,,2,,,49,0
11279,note_on,19,0,3,,,,,,,,,2,,,53,0
11280,control_change,0,0,1,,,,,,,,,0,64,127,,
11280,note_on,0,0,2,,,,,,,,,1,,,61,0
11280,control_change,1,0,3,,,,,,,,,2,64,127,,
11280,note_on,60,0,2,,,,,,,,,1,,,65,0
11280,note_on,0,0,1,,,,,,,,,0,,,72,88
11280,note_on,60,0,1,,,,,,,,,0,,,73,0
11280,note_on,0,0,3,,,,,,,,,2,,,39,75
11280,control_change,0,0,2,,,,,,,,,1,64,127,,
11286,note_on,6,0,3,,,,,,,,,2,,,39,0
11300,note_on,20,0,2,,,,,,,,,1,,,60,75
11319,note_on,19,0,2,,,,,,,,,1,,,63,75
11320,note_on,1,0,2,,,,,,,,,1,,,60,0
11339,note_on,19,0,2,,,,,,,,,1,,,63,0
11340,note_on,1,0,2,,,,,,,,,1,,,68,75
11340,note_on,0,0,3,,,,,,,,,2,,,60,75
11340,control_change,54,0,3,,,,,,,,,2,64,0,,
11340,note_on,0,0,3,,,,,,,,,2,,,56,75
11340,note_on,60,0,1,,,,,,,,,0,,,72,0
11340,note_on,0,0,1,,,,,,,,,0,,,70,88
11340,note_on,0,0,3,,,,,,,,,2,,,51,75
11346,note_on,0,0,3,,,,,,,,,2,,,56,0
11346,note_on,0,0,3,,,,,,,,,2,,,51,0
11346,note_on,6,0,3,,,,,,,,,2,,,60,0
11360,note_on,0,0,2,,,,,,,,,1,,,63,75
11360,note_on,20,0,2,,,,,,,,,1,,,68,0
11370,control_change,0,0,1,,,,,,,,,0,64,0,,
11370,note_on,30,0,1,,,,,,,,,0,,,70,0
11370,note_on,0,0,1,,,,,,,,,0,,,72,88
11379,note_on,0,0,2,,,,,,,,,1,,,68,75
11379,control_change,19,0,2,,,,,,,,,1,64,0,,
11380,note_on,1,0,2,,,,,,,,,1,,,63,0
11399,note_on,19,0,2,,,,,,,,,1,,,68,0
11400,note_on,30,0,1,,,,,,,,,0,,,72,0
11400,note_on,0,0,1,,,,,,,,,0,,,73,75
11400,note_on,0,0,3,,,,,,,,,2,,,39,62
11400,control_change,1,0,2,,,,,,,,,1,64,127,,
11400,control_change,54,0,3,,,,,,,,,2,64,127,,
11406,note_on,6,0,3,,,,,,,,,2,,,39,0
11420,note_on,20,0,2,,,,,,,,,1,,,61,62
11439,note_on,19,0,2,,,,,,,,,1,,,63,62
11440,note_on,1,0,2,,,,,,,,,1,,,61,0
11459,note_on,19,0,2,,,,,,,,,1,,,63,0
11460,note_on,60,0,1,,,,,,,,,0,,,73,0
11460,note_on,0,0,3,,,,,,,,,2,,,51,62
11460,note_on,0,0,1,,,,,,,,,0,,,67,75
11460,note_on,0,0,3,,,,,,,,,2,,,58,62
11460,control_change,54,0,3,,,,,,,,,2,64,0,,
11466,note_on,0,0,3,,,,,,,,,2,,,51,0
11466,note_on,6,0,3,,,,,,,,,2,,,58,0
11480,note_on,21,0,2,,,,,,,,,1,,,63,62
11499,note_on,0,0,2,,,,,,,,,1,,,61,62
11499,control_change,19,0,2,,,,,,,,,1,64,0,,
11500,note_on,1,0,2,,,,,,,,,1,,,63,0
11519,note_on,19,0,2,,,,,,,,,1,,,61,0
11520,note_on,0,0,1,,,,,,,,,0,,,68,75
11520,note_on,0,0,3,,,,,,,,,2,,,32,62
11520,note_on,60,0,1,,,,,,,,,0,,,67,0
11520,control_change,54,0,3,,,,,,,,,2,64,127,,
11520,control_change,1,0,2,,,,,,,,,1,64,127,,
11520,control_change,0,0,1,,,,,,,,,0,64,127,,
11526,note_on,6,0,3,,,,,,,,,2,,,32,0
11540,note_on,20,0,2,,,,,,,,,1,,,56,62
11559,note_on,19,0,2,,,,,,,,,1,,,60,62
11560,note_on,1,0,2,,,,,,,,,1,,,56,0
11579,note_on,19,0,2,,,,,,,,,1,,,60,0
11580,note_on,54,0,3,,,,,,,,,2,,,48,62
11580,note_on,1,0,2,,,,,,,,,1,,,56,62
11580,note_on,0,0,3,,,,,,,,,2,,,51,62
11586,note_on,6,0,3,,,,,,,,,2,,,51,0
11586,note_on,0,0,3,,,,,,,,,2,,,48,0
11600,note_on,0,0,2,,,,,,,,,1,,,63,62
11600,note_on,20,0,2,,,,,,,,,1,,,56,0
11619,note_on,19,0,2,,,,,,,,,1,,,60,62
11620,note_on,1,0,2,,,,,,,,,1,,,63,0
11639,note_on,19,0,2,,,,,,,,,1,,,60,0
11640,note_on,1,0,2,,,,,,,,,1,,,56,62
11640,note_on,120,0,1,,,,,,,,,0,,,68,0
11660,note_on,74,0,3,,,,,,,,,2,,,60,88
11679,note_on,19,0,3,,,,,,,,,2,,,51,62
11680,note_on,1,0,3,,,,,,,,,2,,,60,0
11699,note_on,19,0,3,,,,,,,,,2,,,51,0
11700,note_on,60,0,2,,,,,,,,,1,,,56,0
11700,note_on,1,0,3,,,,,,,,,2,,,56,75
11700,note_on,60,0,1,,,,,,,,,0,,,68,88
11720,note_on,20,0,3,,,,,,,,,2,,,56,0
11720,note_on,0,0,3,,,,,,,,,2,,,48,75
11730,note_on,0,0,1,,,,,,,,,0,,,70,88
11730,note_on,30,0,1,,,,,,,,,0,,,68,0
11739,note_on,19,0,3,,,,,,,,,2,,,51,75
11740,note_on,1,0,3,,,,,,,,,2,,,48,0
11759,note_on,19,0,3,,,,,,,,,2,,,51,0
11760,note_on,1,0,3,,,,,,,,,2,,,44,75
11760,note_on,0,0,1,,,,,,,,,0,,,72,88
11760,note_on,30,0,1,,,,,,,,,0,,,70,0
11766,note_on,6,0,3,,,,,,,,,2,,,44,0
11766,note_on,6,0,1,,,,,,,,,0,,,72,0
11780,note_on,80,0,2,,,,,,,,,1,,,60,75
11799,note_on,19,0,2,,,,,,,,,1,,,63,75
11800,note_on,1,0,2,,,,,,,,,1,,,60,0
11819,note_on,19,0,2,,,,,,,,,1,,,63,0
11820,note_on,54,0,3,,,,,,,,,2,,,54,75
11820,note_on,54,0,1,,,,,,,,,0,,,72,88
11820,note_on,0,0,3,,,,,,,,,2,,,63,75
11820,note_on,0,0,3,,,,,,,,,2,,,56,75
11820,note_on,1,0,2,,,,,,,,,1,,,66,75
11826,note_on,6,0,3,,,,,,,,,2,,,63,0
11826,note_on,6,0,1,,,,,,,,,0,,,72,0
11826,note_on,0,0,3,,,,,,,,,2,,,54,0
11826,note_on,0,0,3,,,,,,,,,2,,,56,0
11840,note_on,20,0,2,,,,,,,,,1,,,66,0
11840,note_on,0,0,2,,,,,,,,,1,,,67,75
11859,note_on,19,0,2,,,,,,,,,1,,,68,75
11860,note_on,1,0,2,,,,,,,,,1,,,67,0
11879,note_on,19,0,2,,,,,,,,,1,,,68,0
11880,note_on,1,0,2,,,,,,,,,1,,,63,75
11880,note_on,54,0,1,,,,,,,,,0,,,73,88
11900,note_on,74,0,3,,,,,,,,,2,,,66,101
11910,note_on,0,0,1,,,,,,,,,0,,,72,88
11910,note_on,30,0,1,,,,,,,,,0,,,73,0
11914,note_on,4,0,1,,,,,,,,,0,,,72,0
11919,note_on,19,0,3,,,,,,,,,2,,,56,75
11920,note_on,1,0,3,,,,,,,,,2,,,66,0
11939,note_on,19,0,3,,,,,,,,,2,,,56,0
11940,note_on,1,0,3,,,,,,,,,2,,,63,75
11940,control_change,0,0,2,,,,,,,,,1,64,0,,
11940,note_on,26,0,1,,,,,,,,,0,,,70,88
11940,note_on,60,0,2,,,,,,,,,1,,,63,0
11940,note_on,0,0,2,,,,,,,,,1,,,68,75
11960,note_on,20,0,3,,,,,,,,,2,,,63,0
11960,note_on,0,0,3,,,,,,,,,2,,,54,75
11970,note_on,30,0,1,,,,,,,,,0,,,70,0
11970,note_on,0,0,1,,,,,,,,,0,,,72,88
11970,control_change,0,0,1,,,,,,,,,0,64,0,,
11974,note_on,4,0,1,,,,,,,,,0,,,72,0
11979,control_change,19,0,3,,,,,,,,,2,64,0,,
11979,note_on,0,0,3,,,,,,,,,2,,,56,75
11980,note_on,1,0,3,,,,,,,,,2,,,54,0
11999,note_on,19,0,3,,,,,,,,,2,,,56,0
12000,control_change,0,0,2,,,,,,,,,1,64,127,,
12000,note_on,0,0,3,,,,,,,,,2,,,37,75
12000,note_on,60,0,2,,,,,,,,,1,,,68,0
12000,note_on,0,0,1,,,,,,,,,0,,,73,88
12000,control_change,26,0,1,,,,,,,,,0,64,127,,
12000,control_change,1,0,3,,,,,,,,,2,64,127,,
12006,note_on,6,0,3,,,,,,,,,2,,,37,0
12020,note_on,20,0,2,,,,,,,,,1,,,61,75
12039,note_on,19,0,2,,,,,,,,,1,,,65,75
12040,note_on,1,0,2,,,,,,,,,1,,,61,0
12059,note_on,19,0,2,,,,,,,,,1,,,65,0
12060,note_on,1,0,2,,,,,,,,,1,,,66,75
12060,note_on,54,0,3,,,,,,,,,2,,,53,75
12060,note_on,0,0,3,,,,,,,,,2,,,61,75
12060,note_on,0,0,3,,,,,,,,,2,,,56,75
12066,note_on,6,0,3,,,,,,,,,2,,,61,0
12066,note_on,0,0,3,,,,,,,,,2,,,56,0
12066,note_on,0,0,3,,,,,,,,,2,,,53,0
12080,note_on,0,0,2,,,,,,,,,1,,,67,75
12080,note_on,20,0,2,,,,,,,,,1,,,66,0
12099,note_on,19,0,2,,,,,,,,,1,,,68,75
12100,note_on,1,0,2,,,,,,,,,1,,,67,0
12119,note_on,19,0,2,,,,,,,,,1,,,68,0
12120,note_on,120,0,1,,,,,,,,,0,,,73,0
12120,note_on,1,0,2,,,,,,,,,1,,,65,75
12120,note_on,0,0,1,,,,,,,,,0,,,68,88
12126,note_on,6,0,1,,,,,,,,,0,,,68,0
12140,note_on,74,0,3,,,,,,,,,2,,,65,101
12159,note_on,19,0,3,,,,,,,,,2,,,56,75
12160,note_on,1,0,3,,,,,,,,,2,,,65,0
12179,note_on,19,0,3,,,,,,,,,2,,,56,0
12180,note_on,60,0,2,,,,,,,,,1,,,65,0
12180,note_on,1,0,3,,,,,,,,,2,,,61,75
12180,control_change,54,0,1,,,,,,,,,0,64,0,,
12180,note_on,0,0,2,,,,,,,,,1,,,68,75
12180,note_on,0,0,2,,,,,,,,,1,,,65,75
12180,note_on,0,0,1,,,,,,,,,0,,,73,88
12180,control_change,0,0,2,,,,,,,,,1,64,0,,
12186,note_on,6,0,1,,,,,,,,,0,,,73,0
12200,note_on,0,0,3,,,,,,,,,2,,,53,75
12200,note_on,20,0,3,,,,,,,,,2,,,61,0
12219,note_on,0,0,3,,,,,,,,,2,,,56,75
12219,control_change,19,0,3,,,,,,,,,2,64,0,,
12220,note_on,1,0,3,,,,,,,,,2,,,53,0
12239,note_on,19,0,3,,,,,,,,,2,,,56,0
12240,control_change,0,0,2,,,,,,,,,1,64,127,,
12240,control_change,1,0,3,,,,,,,,,2,64,127,,
12240,note_on,0,0,2,,,,,,,,,1,,,65,0
12240,note_on,0,0,1,,,,,,,,,0,,,72,88
12240,control_change,54,0,1,,,,,,,,,0,64,127,,
12240,note_on,0,0,3,,,,,,,,,2,,,44,75
12240,note_on,60,0,2,,,,,,,,,1,,,68,0
12246,note_on,6,0,3,,,,,,,,,2,,,44,0
12260,note_on,20,0,2,,,,,,,,,1,,,60,75
12279,note_on,19,0,2,,,,,,,,,1,,,63,75
12280,note_on,1,0,2,,,,,,,,,1,,,60,0
12299,note_on,19,0,2,,,,,,,,,1,,,63,0
12300,note_on,54,0,3,,,,,,,,,2,,,54,75
12300,note_on,1,0,2,,,,,,,,,1,,,66,75
12300,note_on,0,0,1,,,,,,,,,0,,,72,88
12300,note_on,60,0,1,,,,,,,,,0,,,72,0
12300,note_on,0,0,3,,,,,,,,,2,,,63,75
12300,note_on,0,0,3,,,,,,,,,2,,,56,75
12306,note_on,6,0,3,,,,,,,,,2,,,63,0
12306,note_on,0,0,3,,,,,,,,,2,,,54,0
12306,note_on,0,0,3,,,,,,,,,2,,,56,0
12320,note_on,20,0,2,,,,,,,,,1,,,66,0
12320,note_on,0,0,2,,,,,,,,,1,,,67,75
12339,note_on,19,0,2,,,,,,,,,1,,,68,75
12340,note_on,1,0,2,,,,,,,,,1,,,67,0
12359,note_on,19,0,2,,,,,,,,,1,,,68,0
12360,note_on,1,0,2,,,,,,,,,1,,,69,75
12360,note_on,0,0,1,,,,,,,,,0,,,72,88
12360,note_on,60,0,1,,,,,,,,,0,,,72,0
12380,note_on,74,0,3,,,,,,,,,2,,,66,101
12390,note_on,0,0,1,,,,,,,,,0,,,78,88
12390,note_on,30,0,1,,,,,,,,,0,,,72,0
12399,note_on,19,0,3,,,,,,,,,2,,,56,75
12400,note_on,1,0,3,,,,,,,,,2,,,66,0
12419,note_on,19,0,3,,,,,,,,,2,,,56,0
12420,note_on,0,0,2,,,,,,,,,1,,,66,75
12420,note_on,0,0,2,,,,,,,,,1,,,68,75
12420,note_on,0,0,1,,,,,,,,,0,,,75,88
12420,control_change,0,0,2,,,,,,,,,1,64,0,,
12420,note_on,60,0,2,,,,,,,,,1,,,69,0
12420,note_on,1,0,3,,,,,,,,,2,,,63,75
12420,control_change,0,0,2,,,,,,,,,1,64,0,,
12420,note_on,30,0,1,,,,,,,,,0,,,78,0
12440,note_on,20,0,3,,,,,,,,,2,,,63,0
12440,note_on,0,0,3,,,,,,,,,2,,,54,75
12450,control_change,0,0,1,,,,,,,,,0,64,0,,
12450,note_on,30,0,1,,,,,,,,,0,,,75,0
12450,note_on,0,0,1,,,,,,,,,0,,,72,88
12459,note_on,0,0,3,,,,,,,,,2,,,56,75
12459,control_change,19,0,3,,,,,,,,,2,64,0,,
12460,note_on,1,0,3,,,,,,,,,2,,,54,0
12479,note_on,19,0,3,,,,,,,,,2,,,56,0
12480,control_change,0,0,2,,,,,,,,,1,64,127,,
12480,note_on,0,0,2,,,,,,,,,1,,,66,0
12480,note_on,0,0,1,,,,,,,,,0,,,73,88
12480,control_change,1,0,3,,,,,,,,,2,64,127,,
12480,note_on,30,0,1,,,,,,,,,0,,,72,0
12480,note_on,60,0,2,,,,,,,,,1,,,68,0
12480,note_on,0,0,3,,,,,,,,,2,,,37,75
12486,note_on,6,0,3,,,,,,,,,2,,,37,0
12500,note_on,20,0,2,,,,,,,,,1,,,61,75
12519,note_on,19,0,2,,,,,,,,,1,,,65,75
12520,note_on,1,0,2,,,,,,,,,1,,,61,0
12539,note_on,19,0,2,,,,,,,,,1,,,65,0
12540,note_on,0,0,3,,,,,,,,,2,,,61,75
12540,note_on,1,0,2,,,,,,,,,1,,,66,75
12540,note_on,54,0,3,,,,,,,,,2,,,53,75
12540,note_on,0,0,3,,,,,,,,,2,,,56,75
12546,note_on,0,0,3,,,,,,,,,2,,,56,0
12546,note_on,0,0,3,,,,,,,,,2,,,53,0
12546,note_on,6,0,3,,,,,,,,,2,,,61,0
12560,note_on,0,0,2,,,,,,,,,1,,,67,75
12560,note_on,20,0,2,,,,,,,,,1,,,66,0
12579,note_on,19,0,2,,,,,,,,,1,,,70,75
12580,note_on,1,0,2,,,,,,,,,1,,,67,0
12599,note_on,19,0,2,,,,,,,,,1,,,70,0
12600,note_on,1,0,2,,,,,,,,,1,,,68,75
12620,note_on,74,0,3,,,,,,,,,2,,,65,101
12639,note_on,19,0,3,,,,,,,,,2,,,56,75
12640,note_on,1,0,3,,,,,,,,,2,,,65,0
12659,note_on,19,0,3,,,,,,,,,2,,,56,0
12660,note_on,0,0,2,,,,,,,,,1,,,65,75
12660,note_on,180,0,1,,,,,,,,,0,,,73,0
12660,note_on,1,0,3,,,,,,,,,2,,,61,75
12660,note_on,0,0,1,,,,,,,,,0,,,73,88
12660,note_on,60,0,2,,,,,,,,,1,,,68,0
12660,control_change,0,0,2,,,,,,,,,1,64,0,,
12660,note_on,0,0,2,,,,,,,,,1,,,68,75
12680,note_on,0,0,3,,,,,,,,,2,,,53,75
12680,note_on,20,0,3,,,,,,,,,2,,,61,0
12699,note_on,0,0,3,,,,,,,,,2,,,56,75
12699,control_change,19,0,3,,,,,,,,,2,64,0,,
12700,note_on,1,0,3,,,,,,,,,2,,,53,0
12719,note_on,19,0,3,,,,,,,,,2,,,56,0
12720,control_change,1,0,3,,,,,,,,,2,64,127,,
12720,note_on,60,0,2,,,,,,,,,1,,,68,0
12720,control_change,12720,0,4,,,,,,,,,3,64,127,,
12720,control_change,0,0,2,,,,,,,,,1,64,127,,
12720,note_on,60,0,1,,,,,,,,,0,,,73,0
12720,note_on,0,0,2,,,,,,,,,1,,,65,0
12720,control_change,0,0,1,,,,,,,,,0,64,127,,
12720,note_on,0,0,1,,,,,,,,,0,,,70,62
12720,note_on,0,0,3,,,,,,,,,2,,,42,49
12726,note_on,6,0,3,,,,,,,,,2,,,42,0
12726,note_on,6,0,1,,,,,,,,,0,,,70,0
12740,note_on,20,0,2,,,,,,,,,1,,,58,49
12759,note_on,19,0,2,,,,,,,,,1,,,61,49
12760,note_on,1,0,2,,,,,,,,,1,,,58,0
12779,note_on,19,0,2,,,,,,,,,1,,,61,0
12780,note_on,1,0,2,,,,,,,,,1,,,63,49
12780,note_on,0,0,3,,,,,,,,,2,,,58,49
12780,note_on,54,0,1,,,,,,,,,0,,,70,62
12780,note_on,0,0,3,,,,,,,,,2,,,54,49
12780,note_on,54,0,3,,,,,,,,,2,,,49,49
12786,note_on,0,0,3,,,,,,,,,2,,,49,0
12786,note_on,0,0,3,,,,,,,,,2,,,54,0
12786,note_on,6,0,1,,,,,,,,,0,,,70,0
12786,note_on,6,0,3,,,,,,,,,2,,,58,0
12800,note_on,20,0,2,,,,,,,,,1,,,63,0
12800,note_on,0,0,2,,,,,,,,,1,,,64,49
12819,note_on,19,0,2,,,,,,,,,1,,,65,49
12820,note_on,1,0,2,,,,,,,,,1,,,64,0
12839,note_on,19,0,2,,,,,,,,,1,,,65,0
12840,control_change,54,0,3,,,,,,,,,2,64,127,,
12840,note_on,54,0,1,,,,,,,,,0,,,70,62
12840,note_on,1,0,2,,,,,,,,,1,,,66,49
12846,note_on,6,0,1,,,,,,,,,0,,,70,0
12860,note_on,20,0,3,,,,,,,,,2,,,61,75
12860,note_on,140,0,4,,,,,,,,,3,,,85,49
12879,note_on,19,0,4,,,,,,,,,3,,,78,49
12879,note_on,19,0,3,,,,,,,,,2,,,54,49
12880,note_on,1,0,4,,,,,,,,,3,,,85,0
12880,note_on,1,0,3,,,,,,,,,2,,,61,0
12899,note_on,19,0,4,,,,,,,,,3,,,78,0
12899,note_on,19,0,3,,,,,,,,,2,,,54,0
12900,note_on,0,0,2,,,,,,,,,1,,,61,49
12900,control_change,0,0,2,,,,,,,,,1,64,0,,
12900,note_on,0,0,2,,,,,,,,,1,,,66,49
12900,note_on,60,0,2,,,,,,,,,1,,,66,0
12900,control_change,54,0,1,,,,,,,,,0,64,0,,
12900,note_on,1,0,3,,,,,,,,,2,,,58,49
12900,note_on,0,0,1,,,,,,,,,0,,,73,62
12900,note_on,1,0,4,,,,,,,,,3,,,82,49
12906,note_on,6,0,1,,,,,,,,,0,,,73,0
12920,note_on,0,0,4,,,,,,,,,3,,,73,49
12920,note_on,0,0,3,,,,,,,,,2,,,49,49
12920,note_on,20,0,3,,,,,,,,,2,,,58,0
12920,note_on,20,0,4,,,,,,,,,3,,,82,0
12939,note_on,0,0,4,,,,,,,,,3,,,78,49
12939,control_change,19,0,3,,,,,,,,,2,64,0,,
12939,control_change,19,0,4,,,,,,,,,3,64,0,,
12939,note_on,0,0,3,,,,,,,,,2,,,54,49
12940,note_on,1,0,3,,,,,,,,,2,,,49,0
12940,note_on,1,0,4,,,,,,,,,3,,,73,0
12959,note_on,19,0,4,,,,,,,,,3,,,78,0
12959,note_on,19,0,3,,,,,,,,,2,,,54,0
12960,note_on,0,0,3,,,,,,,,,2,,,37,49
12960,note_on,0,0,2,,,,,,,,,1,,,61,0
12960,control_change,1,0,4,,,,,,,,,3,64,127,,
12960,note_on,0,0,1,,,,,,,,,0,,,73,62
12960,control_change,54,0,1,,,,,,,,,0,64,127,,
12960,note_on,60,0,2,,,,,,,,,1,,,66,0
12960,control_change,1,0,3,,,,,,,,,2,64,127,,
12960,control_change,0,0,2,,,,,,,,,1,64,127,,
12966,note_on,6,0,3,,,,,,,,,2,,,37,0
12980,note_on,20,0,2,,,,,,,,,1,,,61,49
12999,note_on,19,0,2,,,,,,,,,1,,,65,49
13000,note_on,1,0,2,,,,,,,,,1,,,61,0
13019,note_on,19,0,2,,,,,,,,,1,,,65,0
13020,note_on,1,0,2,,,,,,,,,1,,,66,49
13020,note_on,0,0,3,,,,,,,,,2,,,61,49
13020,note_on,54,0,3,,,,,,,,,2,,,53,49
13020,note_on,0,0,3,,,,,,,,,2,,,56,49
13026,note_on,0,0,3,,,,,,,,,2,,,53,0
13026,note_on,6,0,3,,,,,,,,,2,,,61,0
13026,note_on,0,0,3,,,,,,,,,2,,,56,0
13040,note_on,20,0,2,,,,,,,,,1,,,66,0
13040,note_on,0,0,2,,,,,,,,,1,,,67,49
13059,note_on,19,0,2,,,,,,,,,1,,,68,49
13060,note_on,1,0,2,,,,,,,,,1,,,67,0
13079,note_on,19,0,2,,,,,,,,,1,,,68,0
13080,note_on,120,0,1,,,,,,,,,0,,,73,0
13080,note_on,1,0,2,,,,,,,,,1,,,65,49
13080,note_on,0,0,1,,,,,,,,,0,,,68,62
13080,control_change,54,0,3,,,,,,,,,2,64,127,,
13086,note_on,6,0,1,,,,,,,,,0,,,68,0
13100,note_on,140,0,4,,,,,,,,,3,,,85,49
13100,note_on,20,0,3,,,,,,,,,2,,,61,75
13119,note_on,19,0,4,,,,,,,,,3,,,77,49
13119,note_on,19,0,3,,,,,,,,,2,,,53,49
13120,note_on,1,0,3,,,,,,,,,2,,,61,0
13120,note_on,1,0,4,,,,,,,,,3,,,85,0
13139,note_on,19,0,3,,,,,,,,,2,,,53,0
13139,note_on,19,0,4,,,,,,,,,3,,,77,0
13140,note_on,0,0,2,,,,,,,,,1,,,65,49
13140,control_change,54,0,1,,,,,,,,,0,64,0,,
13140,note_on,0,0,2,,,,,,,,,1,,,61,49
13140,control_change,0,0,2,,,,,,,,,1,64,0,,
13140,note_on,1,0,3,,,,,,,,,2,,,56,49
13140,note_on,60,0,2,,,,,,,,,1,,,65,0
13140,note_on,0,0,1,,,,,,,,,0,,,68,62
13140,note_on,1,0,4,,,,,,,,,3,,,80,49
13146,note_on,6,0,1,,,,,,,,,0,,,68,0
13160,note_on,0,0,4,,,,,,,,,3,,,73,49
13160,note_on,20,0,3,,,,,,,,,2,,,56,0
13160,note_on,0,0,3,,,,,,,,,2,,,49,49
13160,note_on,20,0,4,,,,,,,,,3,,,80,0
13179,note_on,0,0,4,,,,,,,,,3,,,77,49
13179,control_change,19,0,4,,,,,,,,,3,64,0,,
13179,control_change,19,0,3,,,,,,,,,2,64,0,,
13179,note_on,0,0,3,,,,,,,,,2,,,53,49
13180,note_on,1,0,3,,,,,,,,,2,,,49,0
13180,note_on,1,0,4,,,,,,,,,3,,,73,0
13199,note_on,19,0,3,,,,,,,,,2,,,53,0
13199,note_on,19,0,4,,,,,,,,,3,,,77,0
13200,note_on,0,0,2,,,,,,,,,1,,,61,0
13200,control_change,1,0,4,,,,,,,,,3,64,127,,
13200,control_change,54,0,1,,,,,,,,,0,64,127,,
13200,note_on,0,0,3,,,,,,,,,2,,,32,49
13200,control_change,1,0,3,,,,,,,,,2,64,127,,
13200,note_on,60,0,2,,,,,,,,,1,,,65,0
13200,control_change,0,0,2,,,,,,,,,1,64,127,,
13200,note_on,0,0,1,,,,,,,,,0,,,68,62
13206,note_on,6,0,3,,,,,,,,,2,,,32,0
13220,note_on,20,0,2,,,,,,,,,1,,,60,49
13239,note_on,19,0,2,,,,,,,,,1,,,61,49
13240,note_on,1,0,2,,,,,,,,,1,,,60,0
13259,note_on,19,0,2,,,,,,,,,1,,,61,0
13260,note_on,54,0,3,,,,,,,,,2,,,48,49
13260,note_on,0,0,3,,,,,,,,,2,,,54,49
13260,note_on,0,0,3,,,,,,,,,2,,,56,49
13260,note_on,1,0,2,,,,,,,,,1,,,63,49
13266,note_on,0,0,3,,,,,,,,,2,,,54,0
13266,note_on,6,0,3,,,,,,,,,2,,,56,0
13266,note_on,0,0,3,,,,,,,,,2,,,48,0
13280,note_on,0,0,2,,,,,,,,,1,,,64,49
13280,note_on,20,0,2,,,,,,,,,1,,,63,0
13290,note_on,0,0,1,,,,,,,,,0,,,68,62
13290,note_on,90,0,1,,,,,,,,,0,,,68,0
13299,note_on,19,0,2,,,,,,,,,1,,,65,49
13300,note_on,1,0,2,,,,,,,,,1,,,64,0
13319,note_on,19,0,2,,,,,,,,,1,,,65,0
13320,note_on,0,0,2,,,,,,,,,1,,,68,49
13320,control_change,54,0,3,,,,,,,,,2,64,127,,
13320,note_on,0,0,1,,,,,,,,,0,,,75,62
13320,note_on,30,0,1,,,,,,,,,0,,,68,0
13320,note_on,1,0,2,,,,,,,,,1,,,66,49
13326,note_on,6,0,1,,,,,,,,,0,,,75,0
13340,note_on,20,0,3,,,,,,,,,2,,,63,75
13340,note_on,140,0,4,,,,,,,,,3,,,87,49
13359,note_on,19,0,3,,,,,,,,,2,,,54,49
13359,note_on,19,0,4,,,,,,,,,3,,,78,49
13360,note_on,1,0,4,,,,,,,,,3,,,87,0
13360,note_on,1,0,3,,,,,,,,,2,,,63,0
13379,note_on,19,0,3,,,,,,,,,2,,,54,0
13379,note_on,19,0,4,,,,,,,,,3,,,78,0
13380,control_change,54,0,1,,,,,,,,,0,64,0,,
13380,note_on,0,0,2,,,,,,,,,1,,,63,49
13380,note_on,60,0,2,,,,,,,,,1,,,68,0
13380,note_on,1,0,3,,,,,,,,,2,,,56,49
13380,note_on,0,0,2,,,,,,,,,1,,,66,0
13380,note_on,0,0,2,,,,,,,,,1,,,68,49
13380,note_on,0,0,1,,,,,,,,,0,,,72,62
13380,note_on,1,0,4,,,,,,,,,3,,,80,49
13380,control_change,0,0,2,,,,,,,,,1,64,0,,
13386,note_on,6,0,1,,,,,,,,,0,,,72,0
13400,note_on,0,0,3,,,,,,,,,2,,,51,49
13400,note_on,20,0,3,,,,,,,,,2,,,56,0
13400,note_on,20,0,4,,,,,,,,,3,,,80,0
13400,note_on,0,0,4,,,,,,,,,3,,,75,49
13419,control_change,19,0,3,,,,,,,,,2,64,0,,
13419,control_change,19,0,4,,,,,,,,,3,64,0,,
13419,note_on,0,0,4,,,,,,,,,3,,,78,49
13419,note_on,0,0,3,,,,,,,,,2,,,54,49
13420,note_on,1,0,4,,,,,,,,,3,,,75,0
13420,note_on,1,0,3,,,,,,,,,2,,,51,0
13439,note_on,19,0,4,,,,,,,,,3,,,78,0
13439,note_on,19,0,3,,,,,,,,,2,,,54,0
13440,note_on,0,0,3,,,,,,,,,2,,,37,49
13440,note_on,0,0,1,,,,,,,,,0,,,73,62
13440,control_change,1,0,4,,,,,,,,,3,64,127,,
13440,note_on,0,0,2,,,,,,,,,1,,,63,0
13440,control_change,1,0,3,,,,,,,,,2,64,127,,
13440,control_change,54,0,1,,,,,,,,,0,64,127,,
13440,control_change,0,0,2,,,,,,,,,1,64,127,,
13440,note_on,60,0,2,,,,,,,,,1,,,68,0
13446,note_on,6,0,3,,,,,,,,,2,,,37,0
13460,note_on,20,0,2,,,,,,,,,1,,,61,49
13479,note_on,19,0,2,,,,,,,,,1,,,65,49
13480,note_on,1,0,2,,,,,,,,,1,,,61,0
13499,note_on,19,0,2,,,,,,,,,1,,,65,0
13500,note_on,54,0,3,,,,,,,,,2,,,53,49
13500,note_on,1,0,2,,,,,,,,,1,,,66,49
13500,note_on,0,0,3,,,,,,,,,2,,,56,49
13506,note_on,0,0,3,,,,,,,,,2,,,53,0
13506,note_on,6,0,3,,,,,,,,,2,,,56,0
13520,note_on,20,0,2,,,,,,,,,1,,,66,0
13520,note_on,0,0,2,,,,,,,,,1,,,67,49
13539,note_on,19,0,2,,,,,,,,,1,,,68,49
13540,note_on,1,0,2,,,,,,,,,1,,,67,0
13559,note_on,19,0,2,,,,,,,,,1,,,68,0
13560,note_on,1,0,2,,,,,,,,,1,,,65,49
13560,note_on,120,0,1,,,,,,,,,0,,,73,0
13560,note_on,0,0,1,,,,,,,,,0,,,68,62
13566,note_on,6,0,1,,,,,,,,,0,,,68,0
13580,note_on,74,0,3,,,,,,,,,2,,,61,75
13580,note_on,140,0,4,,,,,,,,,3,,,85,49
13599,note_on,19,0,4,,,,,,,,,3,,,77,49
13599,note_on,19,0,3,,,,,,,,,2,,,53,49
13600,note_on,1,0,3,,,,,,,,,2,,,61,0
13600,note_on,1,0,4,,,,,,,,,3,,,85,0
13619,note_on,19,0,4,,,,,,,,,3,,,77,0
13619,note_on,19,0,3,,,,,,,,,2,,,53,0
13620,note_on,1,0,4,,,,,,,,,3,,,80,49
13620,note_on,0,0,2,,,,,,,,,1,,,65,49
13620,note_on,0,0,1,,,,,,,,,0,,,73,62
13620,note_on,1,0,3,,,,,,,,,2,,,56,49
13620,note_on,0,0,2,,,,,,,,,1,,,61,49
13620,control_change,0,0,2,,,,,,,,,1,64,0,,
13620,control_change,54,0,1,,,,,,,,,0,64,0,,
13620,note_on,60,0,2,,,,,,,,,1,,,65,0
13626,note_on,6,0,1,,,,,,,,,0,,,73,0
13640,note_on,20,0,3,,,,,,,,,2,,,56,0
13640,note_on,20,0,4,,,,,,,,,3,,,80,0
13640,note_on,0,0,4,,,,,,,,,3,,,73,49
13640,note_on,0,0,3,,,,,,,,,2,,,49,49
13659,note_on,0,0,4,,,,,,,,,3,,,77,49
13659,note_on,0,0,3,,,,,,,,,2,,,53,49
13659,control_change,19,0,3,,,,,,,,,2,64,0,,
13659,control_change,19,0,4,,,,,,,,,3,64,0,,
13660,note_on,1,0,3,,,,,,,,,2,,,49,0
13660,note_on,1,0,4,,,,,,,,,3,,,73,0
13679,note_on,19,0,4,,,,,,,,,3,,,77,0
13679,note_on,19,0,3,,,,,,,,,2,,,53,0
13680,note_on,0,0,2,,,,,,,,,1,,,61,0
13680,note_on,0,0,1,,,,,,,,,0,,,72,88
13680,note_on,0,0,3,,,,,,,,,2,,,30,75
13680,note_on,0,0,3,,,,,,,,,2,,,42,75
13680,control_change,1,0,4,,,,,,,,,3,64,127,,
13680,control_change,1,0,3,,,,,,,,,2,64,127,,
13680,control_change,54,0,1,,,,,,,,,0,64,127,,
13680,control_change,0,0,2,,,,,,,,,1,64,127,,
13680,note_on,60,0,2,,,,,,,,,1,,,65,0
13686,note_on,0,0,3,,,,,,,,,2,,,30,0
13686,note_on,6,0,3,,,,,,,,,2,,,42,0
13700,note_on,20,0,2,,,,,,,,,1,,,61,75
13710,note_on,30,0,1,,,,,,,,,0,,,72,0
13710,note_on,0,0,1,,,,,,,,,0,,,70,88
13719,note_on,19,0,2,,,,,,,,,1,,,66,75
13720,note_on,1,0,2,,,,,,,,,1,,,61,0
13739,note_on,19,0,2,,,,,,,,,1,,,66,0
13740,note_on,0,0,1,,,,,,,,,0,,,70,88
13740,note_on,30,0,1,,,,,,,,,0,,,70,0
13740,note_on,0,0,3,,,,,,,,,2,,,54,75
13740,note_on,0,0,3,,,,,,,,,2,,,58,75
13740,note_on,54,0,3,,,,,,,,,2,,,49,75
13740,note_on,1,0,2,,,,,,,,,1,,,65,75
13746,note_on,0,0,3,,,,,,,,,2,,,54,0
13746,note_on,6,0,3,,,,,,,,,2,,,58,0
13746,note_on,0,0,3,,,,,,,,,2,,,49,0
13760,note_on,0,0,2,,,,,,,,,1,,,68,75
13760,note_on,20,0,2,,,,,,,,,1,,,65,0
13779,note_on,19,0,2,,,,,,,,,1,,,66,75
13780,note_on,1,0,2,,,,,,,,,1,,,68,0
13799,note_on,19,0,2,,,,,,,,,1,,,66,0
13800,note_on,0,0,1,,,,,,,,,0,,,70,88
13800,note_on,1,0,2,,,,,,,,,1,,,66,75
13800,note_on,60,0,1,,,,,,,,,0,,,70,0
13820,note_on,74,0,3,,,,,,,,,2,,,61,101
13820,note_on,140,0,4,,,,,,,,,3,,,85,49
13830,note_on,0,0,1,,,,,,,,,0,,,73,88
13830,note_on,30,0,1,,,,,,,,,0,,,70,0
13834,note_on,4,0,1,,,,,,,,,0,,,73,0
13839,note_on,19,0,4,,,,,,,,,3,,,78,49
13839,note_on,19,0,3,,,,,,,,,2,,,54,75
13840,note_on,1,0,3,,,,,,,,,2,,,61,0
13840,note_on,1,0,4,,,,,,,,,3,,,85,0
13859,note_on,19,0,3,,,,,,,,,2,,,54,0
13859,note_on,19,0,4,,,,,,,,,3,,,78,0
13860,note_on,0,0,2,,,,,,,,,1,,,61,75
13860,control_change,0,0,2,,,,,,,,,1,64,0,,
13860,note_on,1,0,3,,,,,,,,,2,,,58,75
13860,note_on,60,0,2,,,,,,,,,1,,,66,0
13860,note_on,0,0,2,,,,,,,,,1,,,66,75
13860,note_on,26,0,1,,,,,,,,,0,,,72,88
13860,note_on,1,0,4,,,,,,,,,3,,,82,49
13880,note_on,20,0,3,,,,,,,,,2,,,58,0
13880,note_on,0,0,3,,,,,,,,,2,,,49,75
13880,note_on,20,0,4,,,,,,,,,3,,,82,0
13880,note_on,0,0,4,,,,,,,,,3,,,73,49
13890,note_on,0,0,1,,,,,,,,,0,,,75,88
13890,control_change,0,0,1,,,,,,,,,0,64,0,,
13890,note_on,30,0,1,,,,,,,,,0,,,72,0
13894,note_on,4,0,1,,,,,,,,,0,,,75,0
13899,control_change,19,0,3,,,,,,,,,2,64,0,,
13899,note_on,0,0,4,,,,,,,,,3,,,78,49
13899,note_on,0,0,3,,,,,,,,,2,,,54,75
13899,control_change,19,0,4,,,,,,,,,3,64,0,,
13900,note_on,1,0,3,,,,,,,,,2,,,49,0
13900,note_on,1,0,4,,,,,,,,,3,,,73,0
13919,note_on,19,0,3,,,,,,,,,2,,,54,0
13919,note_on,19,0,4,,,,,,,,,3,,,78,0
13920,control_change,1,0,3,,,,,,,,,2,64,127,,
13920,control_change,1,0,4,,,,,,,,,3,64,127,,
13920,note_on,0,0,1,,,,,,,,,0,,,73,88
13920,control_change,26,0,1,,,,,,,,,0,64,127,,
13920,control_change,0,0,2,,,,,,,,,1,64,127,,
13920,note_on,0,0,3,,,,,,,,,2,,,37,75
13920,note_on,0,0,2,,,,,,,,,1,,,61,0
13920,note_on,60,0,2,,,,,,,,,1,,,66,0
13926,note_on,6,0,3,,,,,,,,,2,,,37,0
13940,note_on,20,0,2,,,,,,,,,1,,,61,75
13959,note_on,19,0,2,,,,,,,,,1,,,65,75
13960,note_on,1,0,2,,,,,,,,,1,,,61,0
13979,note_on,19,0,2,,,,,,,,,1,,,65,0
13980,note_on,0,0,3,,,,,,,,,2,,,61,75
13980,note_on,54,0,3,,,,,,,,,2,,,53,75
13980,note_on,0,0,3,,,,,,,,,2,,,56,75
13980,note_on,1,0,2,,,,,,,,,1,,,66,75
13986,note_on,0,0,3,,,,,,,,,2,,,53,0
13986,note_on,6,0,3,,,,,,,,,2,,,61,0
13986,note_on,0,0,3,,,,,,,,,2,,,56,0
14000,note_on,0,0,2,,,,,,,,,1,,,67,75
14000,note_on,20,0,2,,,,,,,,,1,,,66,0
14019,note_on,19,0,2,,,,,,,,,1,,,68,75
14020,note_on,1,0,2,,,,,,,,,1,,,67,0
14039,note_on,19,0,2,,,,,,,,,1,,,68,0
14040,note_on,1,0,2,,,,,,,,,1,,,65,75
14040,note_on,0,0,1,,,,,,,,,0,,,68,88
14040,note_on,120,0,1,,,,,,,,,0,,,73,0
14046,note_on,6,0,1,,,,,,,,,0,,,68,0
14060,note_on,74,0,3,,,,,,,,,2,,,61,101
14060,note_on,140,0,4,,,,,,,,,3,,,85,49
14079,note_on,19,0,4,,,,,,,,,3,,,77,49
14079,note_on,19,0,3,,,,,,,,,2,,,53,75
14080,note_on,1,0,4,,,,,,,,,3,,,85,0
14080,note_on,1,0,3,,,,,,,,,2,,,61,0
14099,note_on,19,0,4,,,,,,,,,3,,,77,0
14099,note_on,19,0,3,,,,,,,,,2,,,53,0
14100,control_change,0,0,2,,,,,,,,,1,64,0,,
14100,note_on,0,0,2,,,,,,,,,1,,,65,75
14100,note_on,1,0,3,,,,,,,,,2,,,56,75
14100,control_change,54,0,1,,,,,,,,,0,64,0,,
14100,note_on,1,0,4,,,,,,,,,3,,,80,49
14100,note_on,60,0,2,,,,,,,,,1,,,65,0
14100,note_on,0,0,1,,,,,,,,,0,,,68,88
14100,note_on,0,0,2,,,,,,,,,1,,,61,75
14106,note_on,6,0,1,,,,,,,,,0,,,68,0
14120,note_on,0,0,3,,,,,,,,,2,,,49,75
14120,note_on,20,0,4,,,,,,,,,3,,,80,0
14120,note_on,0,0,4,,,,,,,,,3,,,73,49
14120,note_on,20,0,3,,,,,,,,,2,,,56,0
14139,note_on,0,0,3,,,,,,,,,2,,,53,75
14139,control_change,19,0,3,,,,,,,,,2,64,0,,
14139,control_change,19,0,4,,,,,,,,,3,64,0,,
14139,note_on,0,0,4,,,,,,,,,3,,,77,49
14140,note_on,1,0,4,,,,,,,,,3,,,73,0
14140,note_on,1,0,3,,,,,,,,,2,,,49,0
14159,note_on,19,0,4,,,,,,,,,3,,,77,0
14159,note_on,19,0,3,,,,,,,,,2,,,53,0
14160,note_on,0,0,1,,,,,,,,,0,,,68,88
14160,note_on,0,0,3,,,,,,,,,2,,,44,75
14160,control_change,1,0,3,,,,,,,,,2,64,127,,
14160,note_on,0,0,3,,,,,,,,,2,,,32,75
14160,note_on,0,0,2,,,,,,,,,1,,,61,0
14160,control_change,0,0,2,,,,,,,,,1,64,127,,
14160,control_change,1,0,4,,,,,,,,,3,64,127,,
14160,note_on,60,0,2,,,,,,,,,1,,,65,0
14160,control_change,54,0,1,,,,,,,,,0,64,127,,
14166,note_on,0,0,3,,,,,,,,,2,,,32,0
14166,note_on,6,0,3,,,,,,,,,2,,,44,0
14180,note_on,20,0,2,,,,,,,,,1,,,60,75
14199,note_on,19,0,2,,,,,,,,,1,,,61,75
14200,note_on,1,0,2,,,,,,,,,1,,,60,0
14219,note_on,19,0,2,,,,,,,,,1,,,61,0
14220,note_on,1,0,2,,,,,,,,,1,,,63,75
14220,note_on,0,0,3,,,,,,,,,2,,,56,75
14220,note_on,54,0,3,,,,,,,,,2,,,48,75
14220,note_on,0,0,3,,,,,,,,,2,,,54,75
14226,note_on,0,0,3,,,,,,,,,2,,,54,0
14226,note_on,0,0,3,,,,,,,,,2,,,48,0
14226,note_on,6,0,3,,,,,,,,,2,,,56,0
14240,note_on,20,0,2,,,,,,,,,1,,,63,0
14240,note_on,0,0,2,,,,,,,,,1,,,64,75
14259,note_on,19,0,2,,,,,,,,,1,,,65,75
14260,note_on,1,0,2,,,,,,,,,1,,,64,0
14279,note_on,19,0,2,,,,,,,,,1,,,65,0
14280,note_on,1,0,2,,,,,,,,,1,,,66,75
14280,note_on,120,0,1,,,,,,,,,0,,,68,0
14280,note_on,0,0,1,,,,,,,,,0,,,75,88
14280,note_on,0,0,1,,,,,,,,,0,,,68,88
14286,note_on,6,0,1,,,,,,,,,0,,,75,0
14286,note_on,0,0,1,,,,,,,,,0,,,68,0
14300,note_on,140,0,4,,,,,,,,,3,,,90,49
14300,note_on,74,0,3,,,,,,,,,2,,,66,101
14319,note_on,19,0,4,,,,,,,,,3,,,80,49
14319,note_on,19,0,3,,,,,,,,,2,,,56,75
14320,note_on,1,0,3,,,,,,,,,2,,,66,0
14320,note_on,1,0,4,,,,,,,,,3,,,90,0
14339,note_on,19,0,4,,,,,,,,,3,,,80,0
14339,note_on,19,0,3,,,,,,,,,2,,,56,0
14340,note_on,1,0,4,,,,,,,,,3,,,84,49
14340,note_on,60,0,2,,,,,,,,,1,,,66,0
14340,note_on,0,0,1,,,,,,,,,0,,,72,88
14340,note_on,0,0,1,,,,,,,,,0,,,68,88
14340,note_on,0,0,2,,,,,,,,,1,,,66,75
14340,note_on,0,0,2,,,,,,,,,1,,,63,75
14340,note_on,1,0,3,,,,,,,,,2,,,60,75
14340,control_change,0,0,2,,,,,,,,,1,64,0,,
14340,control_change,54,0,1,,,,,,,,,0,64,0,,
14346,note_on,0,0,1,,,,,,,,,0,,,68,0
14346,note_on,6,0,1,,,,,,,,,0,,,72,0
14360,note_on,0,0,3,,,,,,,,,2,,,51,75
14360,note_on,20,0,4,,,,,,,,,3,,,84,0
14360,note_on,20,0,3,,,,,,,,,2,,,60,0
14360,note_on,0,0,4,,,,,,,,,3,,,75,49
14379,note_on,0,0,3,,,,,,,,,2,,,56,75
14379,control_change,19,0,4,,,,,,,,,3,64,0,,
14379,note_on,0,0,4,,,,,,,,,3,,,80,49
14379,control_change,19,0,3,,,,,,,,,2,64,0,,
14380,note_on,1,0,4,,,,,,,,,3,,,75,0
14380,note_on,1,0,3,,,,,,,,,2,,,51,0
14399,note_on,19,0,4,,,,,,,,,3,,,80,0
14399,note_on,19,0,3,,,,,,,,,2,,,56,0
14400,note_on,0,0,1,,,,,,,,,0,,,73,88
14400,note_on,60,0,2,,,,,,,,,1,,,66,0
14400,note_on,0,0,2,,,,,,,,,1,,,65,75
14400,note_on,0,0,2,,,,,,,,,1,,,63,0
14400,note_on,0,0,3,,,,,,,,,2,,,37,75
14400,control_change,54,0,1,,,,,,,,,0,64,127,,
14400,note_on,0,0,1,,,,,,,,,0,,,68,88
14400,control_change,0,0,2,,,,,,,,,1,64,127,,
14400,control_change,1,0,3,,,,,,,,,2,64,127,,
14400,note_on,0,0,3,,,,,,,,,2,,,49,75
14406,note_on,6,0,3,,,,,,,,,2,,,49,0
14406,note_on,0,0,3,,,,,,,,,2,,,37,0
14420,note_on,20,0,2,,,,,,,,,1,,,65,0
14420,note_on,0,0,2,,,,,,,,,1,,,61,75
14439,note_on,19,0,2,,,,,,,,,1,,,65,75
14440,note_on,1,0,2,,,,,,,,,1,,,61,0
14459,note_on,19,0,2,,,,,,,,,1,,,65,0
14460,note_on,1,0,2,,,,,,,,,1,,,66,75
14460,note_on,0,0,3,,,,,,,,,2,,,56,75
14460,note_on,54,0,3,,,,,,,,,2,,,53,75
14460,note_on,0,0,3,,,,,,,,,2,,,61,75
14466,note_on,6,0,3,,,,,,,,,2,,,61,0
14466,note_on,0,0,3,,,,,,,,,2,,,56,0
14466,note_on,0,0,3,,,,,,,,,2,,,53,0
14480,note_on,20,0,2,,,,,,,,,1,,,66,0
14480,note_on,0,0,2,,,,,,,,,1,,,67,75
14499,note_on,19,0,2,,,,,,,,,1,,,68,75
14500,note_on,1,0,2,,,,,,,,,1,,,67,0
14520,note_on,0,0,1,,,,,,,,,0,,,77,75
14520,note_on,120,0,1,,,,,,,,,0,,,73,0
14520,note_on,0,0,1,,,,,,,,,0,,,68,0
14540,note_on,74,0,3,,,,,,,,,2,,,49,62
14559,note_on,19,0,3,,,,,,,,,2,,,53,62
14560,note_on,1,0,3,,,,,,,,,2,,,49,0
14579,note_on,79,0,2,,,,,,,,,1,,,68,0
14579,note_on,19,0,3,,,,,,,,,2,,,53,0
14580,control_change,1,0,2,,,,,,,,,1,64,0,,
14580,note_on,0,0,1,,,,,,,,,0,,,73,75
14580,note_on,0,0,1,,,,,,,,,0,,,65,75
14580,note_on,1,0,3,,,,,,,,,2,,,54,62
14580,control_change,0,0,1,,,,,,,,,0,64,0,,
14580,note_on,60,0,1,,,,,,,,,0,,,77,0
14600,note_on,20,0,3,,,,,,,,,2,,,54,0
14600,note_on,0,0,3,,,,,,,,,2,,,55,62
14610,note_on,30,0,1,,,,,,,,,0,,,73,0
14610,note_on,0,0,1,,,,,,,,,0,,,65,0
14619,note_on,0,0,3,,,,,,,,,2,,,56,62
14619,control_change,19,0,3,,,,,,,,,2,64,0,,
14620,note_on,1,0,3,,,,,,,,,2,,,55,0
14639,note_on,19,0,3,,,,,,,,,2,,,56,0
14640,note_on,0,0,3,,,,,,,,,2,,,65,49
14640,note_on,1,0,3,,,,,,,,,2,,,61,49
14660,note_on,50,0,1,,,,,,,,,0,,,65,49
14660,note_on,0,0,1,,,,,,,,,0,,,73,49
14679,note_on,0,0,1,,,,,,,,,0,,,77,49
14679,note_on,19,0,1,,,,,,,,,0,,,68,49
14680,note_on,1,0,1,,,,,,,,,0,,,73,0
14680,note_on,0,0,1,,,,,,,,,0,,,65,0
14699,note_on,19,0,1,,,,,,,,,0,,,68,0
14699,note_on,0,0,1,,,,,,,,,0,,,77,0
14700,note_on,1,0,1,,,,,,,,,0,,,68,49
14700,set_tempo,4860,1,0,,,,,,923077,,,,,,,
14700,note_on,60,0,3,,,,,,,,,2,,,65,0
14700,note_on,0,0,1,,,,,,,,,0,,,78,49
14700,note_on,0,0,3,,,,,,,,,2,,,56,49
14700,note_on,0,0,3,,,,,,,,,2,,,61,0
14700,note_on,0,0,3,,,,,,,,,2,,,61,49
14720,note_on,20,0,1,,,,,,,,,0,,,78,0
14720,note_on,0,0,1,,,,,,,,,0,,,68,0
14720,note_on,0,0,1,,,,,,,,,0,,,73,49
14720,note_on,0,0,1,,,,,,,,,0,,,79,49
14730,note_on,0,0,3,,,,,,,,,2,,,56,0
14730,note_on,30,0,3,,,,,,,,,2,,,61,0
14739,note_on,19,0,1,,,,,,,,,0,,,77,49
14739,note_on,0,0,1,,,,,,,,,0,,,80,49
14740,note_on,1,0,1,,,,,,,,,0,,,79,0
14740,note_on,0,0,1,,,,,,,,,0,,,73,0
14759,note_on,19,0,1,,,,,,,,,0,,,77,0
14759,note_on,0,0,1,,,,,,,,,0,,,80,0
14760,note_on,0,0,1,,,,,,,,,0,,,89,49
14760,set_tempo,60,1,0,,,,,,1034483,,,,,,,
14760,note_on,1,0,1,,,,,,,,,0,,,80,49
14780,note_on,50,0,3,,,,,,,,,2,,,61,49
14799,note_on,19,0,3,,,,,,,,,2,,,65,49
14800,note_on,1,0,3,,,,,,,,,2,,,61,0
14819,note_on,19,0,3,,,,,,,,,2,,,65,0
14820,note_on,0,0,1,,,,,,,,,0,,,80,0
14820,note_on,60,0,1,,,,,,,,,0,,,89,0
14820,note_on,0,0,1,,,,,,,,,0,,,85,49
14820,note_on,0,0,1,,,,,,,,,0,,,77,49
14820,note_on,1,0,3,,,,,,,,,2,,,66,49
14820,set_tempo,60,1,0,,,,,,1153846,,,,,,,
14840,note_on,0,0,3,,,,,,,,,2,,,67,49
14840,note_on,20,0,3,,,,,,,,,2,,,66,0
14850,note_on,0,0,1,,,,,,,,,0,,,77,0
14850,note_on,30,0,1,,,,,,,,,0,,,85,0
14859,note_on,19,0,3,,,,,,,,,2,,,68,49
14860,note_on,1,0,3,,,,,,,,,2,,,67,0
14879,note_on,19,0,3,,,,,,,,,2,,,68,0
14880,note_on,1,0,3,,,,,,,,,2,,,73,36
14880,note_on,0,0,3,,,,,,,,,2,,,77,36
14880,set_tempo,60,1,0,,,,,,1333333,,,,,,,
14900,note_on,0,0,1,,,,,,,,,0,,,85,36
14900,note_on,50,0,1,,,,,,,,,0,,,77,36
14919,note_on,0,0,1,,,,,,,,,0,,,89,36
14919,note_on,19,0,1,,,,,,,,,0,,,80,36
14920,note_on,0,0,1,,,,,,,,,0,,,77,0
14920,note_on,1,0,1,,,,,,,,,0,,,85,0
14939,note_on,0,0,1,,,,,,,,,0,,,89,0
14939,note_on,19,0,1,,,,,,,,,0,,,80,0
14940,note_on,1,0,1,,,,,,,,,0,,,80,36
14940,note_on,0,0,1,,,,,,,,,0,,,90,36
14940,note_on,0,0,3,,,,,,,,,2,,,68,36
14940,note_on,0,0,3,,,,,,,,,2,,,73,0
14940,note_on,0,0,3,,,,,,,,,2,,,73,36
14940,note_on,60,0,3,,,,,,,,,2,,,77,0
14940,set_tempo,60,1,0,,,,,,1538462,,,,,,,
14960,note_on,20,0,1,,,,,,,,,0,,,90,0
14960,note_on,0,0,1,,,,,,,,,0,,,91,36
14960,note_on,0,0,1,,,,,,,,,0,,,80,0
14960,note_on,0,0,1,,,,,,,,,0,,,85,36
14970,note_on,30,0,3,,,,,,,,,2,,,73,0
14970,note_on,0,0,3,,,,,,,,,2,,,68,0
14979,note_on,19,0,1,,,,,,,,,0,,,89,36
14979,note_on,0,0,1,,,,,,,,,0,,,92,36
14980,note_on,0,0,1,,,,,,,,,0,,,85,0
14980,note_on,1,0,1,,,,,,,,,0,,,91,0
14999,note_on,19,0,1,,,,,,,,,0,,,89,0
14999,note_on,0,0,1,,,,,,,,,0,,,92,0
15000,note_on,1,0,1,,,,,,,,,0,,,92,36
15000,set_tempo,60,1,0,,,,,,1875000,,,,,,,
15000,note_on,0,0,1,,,,,,,,,0,,,101,36
15020,note_on,50,0,3,,,,,,,,,2,,,73,36
15039,note_on,19,0,3,,,,,,,,,2,,,77,36
15040,note_on,1,0,3,,,,,,,,,2,,,73,0
15059,note_on,19,0,3,,,,,,,,,2,,,77,0
15060,note_on,0,0,1,,,,,,,,,0,,,92,0
15060,note_on,60,0,1,,,,,,,,,0,,,101,0
15060,note_on,0,0,1,,,,,,,,,0,,,89,36
15060,set_tempo,60,1,0,,,,,,2307692,,,,,,,
15060,note_on,1,0,3,,,,,,,,,2,,,78,36
15060,note_on,0,0,1,,,,,,,,,0,,,97,36
15080,note_on,0,0,3,,,,,,,,,2,,,79,36
15080,note_on,20,0,3,,,,,,,,,2,,,78,0
15090,note_on,30,0,1,,,,,,,,,0,,,97,0
15090,note_on,0,0,1,,,,,,,,,0,,,89,0
15099,note_on,19,0,3,,,,,,,,,2,,,80,36
15100,note_on,1,0,3,,,,,,,,,2,,,79,0
15120,set_tempo,60,1,0,,,,,,845070,,,,,,,
15120,note_on,0,0,3,,,,,,,,,2,,,89,36
15120,note_on,20,0,3,,,,,,,,,2,,,85,36
15125,note_on,5,0,3,,,,,,,,,2,,,80,0
15126,note_on,1,0,3,,,,,,,,,2,,,89,0
15126,note_on,0,0,3,,,,,,,,,2,,,85,0
15180,note_on,54,0,3,,,,,,,,,2,,,77,36
15180,note_on,0,0,3,,,,,,,,,2,,,85,36
15180,note_on,0,0,3,,,,,,,,,2,,,80,36
15186,note_on,0,0,3,,,,,,,,,2,,,77,0
15186,note_on,6,0,3,,,,,,,,,2,,,85,0
15186,note_on,0,0,3,,,,,,,,,2,,,80,0
15330,set_tempo,210,1,0,,,,,,769231,,,,,,,
15330,note_on,144,0,3,,,,,,,,,2,,,44,88
15330,note_on,0,0,3,,,,,,,,,2,,,56,88
15360,note_on,0,0,3,,,,,,,,,2,,,53,88
15360,note_on,0,0,3,,,,,,,,,2,,,56,88
15360,note_on,0,0,3,,,,,,,,,2,,,61,88
15360,note_on,0,0,3,,,,,,,,,2,,,49,88
15360,note_on,0,0,3,,,,,,,,,2,,,44,0
15360,note_on,30,0,3,,,,,,,,,2,,,56,0
15360,control_change,0,0,3,,,,,,,,,2,64,127,,
15360,control_change,270,0,1,,,,,,,,,0,64,127,,
15380,note_on,20,0,1,,,,,,,,,0,,,68,75
15399,note_on,0,0,1,,,,,,,,,0,,,80,75
15399,note_on,19,0,1,,,,,,,,,0,,,73,75
15400,note_on,1,0,1,,,,,,,,,0,,,68,0
15419,note_on,19,0,1,,,,,,,,,0,,,80,0
15419,note_on,0,0,1,,,,,,,,,0,,,73,0
15420,note_on,0,0,3,,,,,,,,,2,,,56,88
15420,note_on,0,0,3,,,,,,,,,2,,,61,88
15420,note_on,0,0,3,,,,,,,,,2,,,56,0
15420,note_on,0,0,3,,,,,,,,,2,,,53,88
15420,note_on,0,0,3,,,,,,,,,2,,,53,0
15420,note_on,60,0,3,,,,,,,,,2,,,61,0
15420,note_on,0,0,3,,,,,,,,,2,,,49,88
15420,note_on,1,0,1,,,,,,,,,0,,,73,75
15420,note_on,0,0,3,,,,,,,,,2,,,49,0
15440,note_on,0,0,1,,,,,,,,,0,,,85,75
15440,note_on,20,0,1,,,,,,,,,0,,,73,0
15440,note_on,0,0,1,,,,,,,,,0,,,77,75
15459,note_on,19,0,1,,,,,,,,,0,,,80,75
15460,note_on,0,0,1,,,,,,,,,0,,,77,0
15460,note_on,1,0,1,,,,,,,,,0,,,85,0
15479,note_on,19,0,1,,,,,,,,,0,,,80,0
15480,note_on,60,0,3,,,,,,,,,2,,,61,0
15480,note_on,0,0,3,,,,,,,,,2,,,49,0
15480,note_on,0,0,3,,,,,,,,,2,,,53,0
15480,note_on,0,0,3,,,,,,,,,2,,,53,88
15480,note_on,0,0,3,,,,,,,,,2,,,56,0
15480,note_on,0,0,3,,,,,,,,,2,,,56,88
15480,note_on,0,0,3,,,,,,,,,2,,,61,88
15480,note_on,0,0,3,,,,,,,,,2,,,65,88
15500,note_on,21,0,1,,,,,,,,,0,,,80,75
15519,note_on,0,0,1,,,,,,,,,0,,,92,75
15519,note_on,19,0,1,,,,,,,,,0,,,85,75
15520,note_on,1,0,1,,,,,,,,,0,,,80,0
15539,note_on,19,0,1,,,,,,,,,0,,,92,0
15539,note_on,0,0,1,,,,,,,,,0,,,85,0
15540,note_on,0,0,3,,,,,,,,,2,,,61,0
15540,note_on,0,0,3,,,,,,,,,2,,,53,88
15540,note_on,0,0,3,,,,,,,,,2,,,56,0
15540,note_on,1,0,1,,,,,,,,,0,,,85,75
15540,note_on,0,0,3,,,,,,,,,2,,,61,88
15540,note_on,0,0,3,,,,,,,,,2,,,53,0
15540,note_on,0,0,3,,,,,,,,,2,,,56,88
15540,note_on,0,0,3,,,,,,,,,2,,,65,88
15540,note_on,60,0,3,,,,,,,,,2,,,65,0
15560,note_on,20,0,1,,,,,,,,,0,,,85,0
15560,note_on,0,0,1,,,,,,,,,0,,,89,75
15560,note_on,0,0,1,,,,,,,,,0,,,97,75
15579,note_on,19,0,1,,,,,,,,,0,,,92,75
15580,note_on,1,0,1,,,,,,,,,0,,,97,0
15580,note_on,0,0,1,,,,,,,,,0,,,89,0
15599,note_on,19,0,1,,,,,,,,,0,,,92,0
15600,note_on,0,0,3,,,,,,,,,2,,,53,106
15600,note_on,0,0,3,,,,,,,,,2,,,61,114
15600,note_on,0,0,3,,,,,,,,,2,,,61,0
15600,note_on,0,0,3,,,,,,,,,2,,,56,110
15600,note_on,0,0,3,,,,,,,,,2,,,56,0
15600,note_on,0,0,3,,,,,,,,,2,,,49,102
15600,note_on,60,0,3,,,,,,,,,2,,,65,0
15600,note_on,0,0,3,,,,,,,,,2,,,53,0
15620,note_on,21,0,1,,,,,,,,,0,,,68,75
15639,note_on,19,0,1,,,,,,,,,0,,,73,75
15639,note_on,0,0,1,,,,,,,,,0,,,80,75
15640,note_on,1,0,1,,,,,,,,,0,,,68,0
15659,note_on,0,0,1,,,,,,,,,0,,,73,0
15659,note_on,19,0,1,,,,,,,,,0,,,80,0
15660,note_on,1,0,1,,,,,,,,,0,,,73,75
15660,note_on,1261,0,4,,,,,,,,,3,,,37,88
15680,note_on,0,0,1,,,,,,,,,0,,,85,75
15680,note_on,0,0,1,,,,,,,,,0,,,77,75
15680,note_on,20,0,1,,,,,,,,,0,,,73,0
15699,note_on,19,0,1,,,,,,,,,0,,,80,75
15700,note_on,0,0,1,,,,,,,,,0,,,77,0
15700,note_on,1,0,1,,,,,,,,,0,,,85,0
15719,note_on,19,0,1,,,,,,,,,0,,,80,0
15720,note_on,0,0,3,,,,,,,,,2,,,56,88
15720,note_on,0,0,3,,,,,,,,,2,,,53,88
15720,note_on,0,0,3,,,,,,,,,2,,,53,0
15720,note_on,0,0,3,,,,,,,,,2,,,49,88
15720,note_on,120,0,3,,,,,,,,,2,,,61,0
15720,note_on,60,0,4,,,,,,,,,3,,,37,0
15720,note_on,0,0,3,,,,,,,,,2,,,56,0
15720,note_on,0,0,3,,,,,,,,,2,,,49,0
15740,note_on,21,0,1,,,,,,,,,0,,,80,75
15759,note_on,19,0,1,,,,,,,,,0,,,85,75
15759,note_on,0,0,1,,,,,,,,,0,,,92,75
15760,note_on,1,0,1,,,,,,,,,0,,,80,0
15779,note_on,0,0,1,,,,,,,,,0,,,85,0
15779,note_on,19,0,1,,,,,,,,,0,,,92,0
15780,note_on,60,0,3,,,,,,,,,2,,,56,0
15780,note_on,0,0,3,,,,,,,,,2,,,53,0
15780,note_on,1,0,1,,,,,,,,,0,,,85,75
15780,note_on,0,0,3,,,,,,,,,2,,,49,0
15800,note_on,0,0,1,,,,,,,,,0,,,97,75
15800,note_on,20,0,1,,,,,,,,,0,,,85,0
15800,note_on,0,0,1,,,,,,,,,0,,,89,75
15810,note_on,0,0,3,,,,,,,,,2,,,56,88
15810,note_on,0,0,3,,,,,,,,,2,,,53,88
15810,note_on,0,0,3,,,,,,,,,2,,,49,88
15810,control_change,30,0,3,,,,,,,,,2,64,0,,
15819,control_change,19,0,1,,,,,,,,,0,64,0,,
15819,note_on,0,0,1,,,,,,,,,0,,,92,75
15820,note_on,1,0,1,,,,,,,,,0,,,97,0
15820,note_on,0,0,1,,,,,,,,,0,,,89,0
15839,note_on,19,0,1,,,,,,,,,0,,,92,0
15840,control_change,0,0,3,,,,,,,,,2,64,127,,
15840,note_on,0,0,3,,,,,,,,,2,,,48,88
15840,control_change,120,0,4,,,,,,,,,3,64,127,,
15840,note_on,0,0,3,,,,,,,,,2,,,49,0
15840,note_on,0,0,3,,,,,,,,,2,,,53,0
15840,note_on,0,0,3,,,,,,,,,2,,,54,88
15840,note_on,30,0,3,,,,,,,,,2,,,56,0
15840,note_on,0,0,3,,,,,,,,,2,,,56,88
15840,control_change,1,0,1,,,,,,,,,0,64,127,,
15860,note_on,20,0,1,,,,,,,,,0,,,68,75
15879,note_on,0,0,1,,,,,,,,,0,,,80,75
15879,note_on,19,0,1,,,,,,,,,0,,,72,75
15880,note_on,1,0,1,,,,,,,,,0,,,68,0
15899,note_on,19,0,1,,,,,,,,,0,,,80,0
15899,note_on,0,0,1,,,,,,,,,0,,,72,0
15900,note_on,0,0,3,,,,,,,,,2,,,54,0
15900,note_on,1,0,1,,,,,,,,,0,,,75,75
15900,note_on,60,0,4,,,,,,,,,3,,,32,106
15900,note_on,60,0,3,,,,,,,,,2,,,56,0
15900,note_on,0,0,3,,,,,,,,,2,,,48,0
15900,note_on,0,0,4,,,,,,,,,3,,,44,114
15906,note_on,0,0,4,,,,,,,,,3,,,32,0
15906,note_on,6,0,4,,,,,,,,,3,,,44,0
15920,note_on,0,0,1,,,,,,,,,0,,,87,75
15920,note_on,20,0,1,,,,,,,,,0,,,75,0
15920,note_on,0,0,1,,,,,,,,,0,,,78,75
15930,note_on,0,0,3,,,,,,,,,2,,,54,88
15930,note_on,0,0,3,,,,,,,,,2,,,56,88
15930,note_on,30,0,3,,,,,,,,,2,,,48,88
15939,note_on,19,0,1,,,,,,,,,0,,,80,75
15940,note_on,0,0,1,,,,,,,,,0,,,78,0
15940,note_on,1,0,1,,,,,,,,,0,,,87,0
15959,note_on,19,0,1,,,,,,,,,0,,,80,0
15960,note_on,30,0,3,,,,,,,,,2,,,56,0
15960,note_on,0,0,4,,,,,,,,,3,,,56,88
15960,note_on,0,0,3,,,,,,,,,2,,,48,0
15960,note_on,54,0,4,,,,,,,,,3,,,54,88
15960,note_on,0,0,3,,,,,,,,,2,,,54,0
15960,note_on,0,0,3,,,,,,,,,2,,,63,88
15980,note_on,21,0,1,,,,,,,,,0,,,80,75
15990,note_on,30,0,3,,,,,,,,,2,,,63,0
15990,note_on,0,0,3,,,,,,,,,2,,,61,88
15999,note_on,0,0,1,,,,,,,,,0,,,92,75
15999,note_on,19,0,1,,,,,,,,,0,,,84,75
16000,note_on,1,0,1,,,,,,,,,0,,,80,0
16019,note_on,19,0,1,,,,,,,,,0,,,92,0
16019,note_on,0,0,1,,,,,,,,,0,,,84,0
16020,note_on,0,0,4,,,,,,,,,3,,,51,88
16020,note_on,0,0,4,,,,,,,,,3,,,54,0
16020,note_on,0,0,4,,,,,,,,,3,,,54,88
16020,note_on,30,0,3,,,,,,,,,2,,,61,0
16020,note_on,1,0,1,,,,,,,,,0,,,87,75
16020,note_on,60,0,4,,,,,,,,,3,,,56,0
16020,note_on,0,0,3,,,,,,,,,2,,,60,88
16040,note_on,0,0,1,,,,,,,,,0,,,99,75
16040,note_on,20,0,1,,,,,,,,,0,,,87,0
16040,note_on,0,0,1,,,,,,,,,0,,,90,75
16050,note_on,0,0,3,,,,,,,,,2,,,58,88
16050,note_on,30,0,3,,,,,,,,,2,,,60,0
16059,note_on,19,0,1,,,,,,,,,0,,,92,75
16060,note_on,0,0,1,,,,,,,,,0,,,90,0
16060,note_on,1,0,1,,,,,,,,,0,,,99,0
16079,note_on,19,0,1,,,,,,,,,0,,,92,0
16080,note_on,30,0,3,,,,,,,,,2,,,58,0
16080,note_on,60,0,4,,,,,,,,,3,,,54,0
16080,note_on,0,0,3,,,,,,,,,2,,,56,88
16080,note_on,0,0,3,,,,,,,,,2,,,54,88
16080,note_on,0,0,3,,,,,,,,,2,,,48,88
16080,note_on,0,0,4,,,,,,,,,3,,,51,0
16100,note_on,21,0,1,,,,,,,,,0,,,68,75
16119,note_on,19,0,1,,,,,,,,,0,,,72,75
16119,note_on,0,0,1,,,,,,,,,0,,,80,75
16120,note_on,1,0,1,,,,,,,,,0,,,68,0
16139,note_on,19,0,1,,,,,,,,,0,,,80,0
16139,note_on,0,0,1,,,,,,,,,0,,,72,0
16140,note_on,60,0,4,,,,,,,,,3,,,32,106
16140,note_on,1,0,1,,,,,,,,,0,,,75,75
16140,note_on,0,0,4,,,,,,,,,3,,,44,114
16146,note_on,0,0,4,,,,,,,,,3,,,32,0
16146,note_on,6,0,4,,,,,,,,,3,,,44,0
16160,note_on,0,0,1,,,,,,,,,0,,,78,75
16160,note_on,20,0,1,,,,,,,,,0,,,75,0
16160,note_on,0,0,1,,,,,,,,,0,,,87,75
16179,note_on,19,0,1,,,,,,,,,0,,,80,75
16180,note_on,1,0,1,,,,,,,,,0,,,87,0
16180,note_on,0,0,1,,,,,,,,,0,,,78,0
16199,note_on,19,0,1,,,,,,,,,0,,,80,0
16200,note_on,0,0,3,,,,,,,,,2,,,48,0
16200,note_on,54,0,4,,,,,,,,,3,,,56,102
16200,note_on,0,0,3,,,,,,,,,2,,,54,0
16200,note_on,0,0,4,,,,,,,,,3,,,68,114
16200,note_on,0,0,4,,,,,,,,,3,,,60,106
16200,note_on,0,0,4,,,,,,,,,3,,,63,110
16200,note_on,120,0,3,,,,,,,,,2,,,56,0
16206,note_on,6,0,4,,,,,,,,,3,,,68,0
16206,note_on,0,0,4,,,,,,,,,3,,,63,0
16206,note_on,0,0,4,,,,,,,,,3,,,60,0
16206,note_on,0,0,4,,,,,,,,,3,,,56,0
16220,note_on,21,0,1,,,,,,,,,0,,,80,75
16239,note_on,0,0,1,,,,,,,,,0,,,92,75
16239,note_on,19,0,1,,,,,,,,,0,,,84,75
16240,note_on,1,0,1,,,,,,,,,0,,,80,0
16259,note_on,0,0,1,,,,,,,,,0,,,84,0
16259,note_on,19,0,1,,,,,,,,,0,,,92,0
16260,control_change,54,0,4,,,,,,,,,3,64,0,,
16260,note_on,1,0,1,,,,,,,,,0,,,87,75
16280,note_on,0,0,1,,,,,,,,,0,,,99,75
16280,note_on,20,0,1,,,,,,,,,0,,,87,0
16280,note_on,0,0,1,,,,,,,,,0,,,90,75
16290,control_change,90,0,3,,,,,,,,,2,64,0,,
16290,note_on,0,0,3,,,,,,,,,2,,,44,88
16290,note_on,0,0,3,,,,,,,,,2,,,56,88
16299,note_on,0,0,1,,,,,,,,,0,,,92,75
16299,control_change,19,0,1,,,,,,,,,0,64,0,,
16300,note_on,1,0,1,,,,,,,,,0,,,99,0
16300,note_on,0,0,1,,,,,,,,,0,,,90,0
16319,note_on,19,0,1,,,,,,,,,0,,,92,0
16320,note_on,30,0,3,,,,,,,,,2,,,56,0
16320,note_on,0,0,3,,,,,,,,,2,,,61,88
16320,control_change,1,0,1,,,,,,,,,0,64,127,,
16320,note_on,0,0,3,,,,,,,,,2,,,56,88
16320,note_on,0,0,3,,,,,,,,,2,,,49,88
16320,note_on,0,0,3,,,,,,,,,2,,,44,0
16320,control_change,0,0,3,,,,,,,,,2,64,127,,
16320,note_on,0,0,3,,,,,,,,,2,,,53,88
16340,note_on,20,0,1,,,,,,,,,0,,,68,75
16359,note_on,0,0,1,,,,,,,,,0,,,80,75
16359,note_on,19,0,1,,,,,,,,,0,,,73,75
16360,note_on,1,0,1,,,,,,,,,0,,,68,0
16379,note_on,19,0,1,,,,,,,,,0,,,80,0
16379,note_on,0,0,1,,,,,,,,,0,,,73,0
16380,note_on,0,0,3,,,,,,,,,2,,,49,0
16380,note_on,0,0,3,,,,,,,,,2,,,56,88
16380,note_on,60,0,3,,,,,,,,,2,,,61,0
16380,note_on,0,0,3,,,,,,,,,2,,,61,88
16380,note_on,0,0,3,,,,,,,,,2,,,53,0
16380,note_on,0,0,3,,,,,,,,,2,,,53,88
16380,note_on,0,0,3,,,,,,,,,2,,,56,0
16380,note_on,1,0,1,,,,,,,,,0,,,73,75
16380,note_on,0,0,3,,,,,,,,,2,,,49,88
16400,note_on,0,0,1,,,,,,,,,0,,,77,75
16400,note_on,0,0,1,,,,,,,,,0,,,85,75
16400,note_on,20,0,1,,,,,,,,,0,,,73,0
16419,note_on,19,0,1,,,,,,,,,0,,,80,75
16420,note_on,0,0,1,,,,,,,,,0,,,77,0
16420,note_on,1,0,1,,,,,,,,,0,,,85,0
16439,note_on,19,0,1,,,,,,,,,0,,,80,0
16440,note_on,0,0,3,,,,,,,,,2,,,56,0
16440,note_on,0,0,3,,,,,,,,,2,,,56,88
16440,note_on,0,0,3,,,,,,,,,2,,,61,88
16440,note_on,0,0,3,,,,,,,,,2,,,53,0
16440,note_on,0,0,3,,,,,,,,,2,,,49,0
16440,note_on,60,0,3,,,,,,,,,2,,,61,0
16440,note_on,0,0,3,,,,,,,,,2,,,65,88
16440,note_on,0,0,3,,,,,,,,,2,,,53,88
16460,note_on,21,0,1,,,,,,,,,0,,,80,75
16479,note_on,0,0,1,,,,,,,,,0,,,92,75
16479,note_on,19,0,1,,,,,,,,,0,,,85,75
16480,note_on,1,0,1,,,,,,,,,0,,,80,0
16499,note_on,0,0,1,,,,,,,,,0,,,85,0
16499,note_on,19,0,1,,,,,,,,,0,,,92,0
16500,note_on,0,0,3,,,,,,,,,2,,,65,88
16500,note_on,0,0,3,,,,,,,,,2,,,61,88
16500,note_on,0,0,3,,,,,,,,,2,,,56,0
16500,note_on,0,0,3,,,,,,,,,2,,,53,88
16500,note_on,0,0,3,,,,,,,,,2,,,61,0
16500,note_on,1,0,1,,,,,,,,,0,,,85,75
16500,note_on,0,0,3,,,,,,,,,2,,,53,0
16500,note_on,60,0,3,,,,,,,,,2,,,65,0
16500,note_on,0,0,3,,,,,,,,,2,,,56,88
16520,note_on,20,0,1,,,,,,,,,0,,,85,0
16520,note_on,0,0,1,,,,,,,,,0,,,97,75
16520,note_on,0,0,1,,,,,,,,,0,,,89,75
16539,note_on,19,0,1,,,,,,,,,0,,,92,75
16540,note_on,0,0,1,,,,,,,,,0,,,89,0
16540,note_on,1,0,1,,,,,,,,,0,,,97,0
16559,note_on,19,0,1,,,,,,,,,0,,,92,0
16560,note_on,0,0,3,,,,,,,,,2,,,53,0
16560,note_on,0,0,3,,,,,,,,,2,,,49,102
16560,note_on,60,0,3,,,,,,,,,2,,,65,0
16560,note_on,0,0,3,,,,,,,,,2,,,53,106
16560,note_on,0,0,3,,,,,,,,,2,,,61,0
16560,note_on,0,0,3,,,,,,,,,2,,,56,110
16560,note_on,0,0,3,,,,,,,,,2,,,56,0
16560,note_on,0,0,3,,,,,,,,,2,,,61,114
16580,note_on,21,0,1,,,,,,,,,0,,,68,75
16599,note_on,0,0,1,,,,,,,,,0,,,80,75
16599,note_on,19,0,1,,,,,,,,,0,,,73,75
16600,note_on,1,0,1,,,,,,,,,0,,,68,0
16619,note_on,0,0,1,,,,,,,,,0,,,73,0
16619,note_on,19,0,1,,,,,,,,,0,,,80,0
16620,note_on,360,0,4,,,,,,,,,3,,,37,101
16620,note_on,1,0,1,,,,,,,,,0,,,73,75
16626,note_on,6,0,4,,,,,,,,,3,,,37,0
16640,note_on,0,0,1,,,,,,,,,0,,,77,75
16640,note_on,20,0,1,,,,,,,,,0,,,73,0
16640,note_on,0,0,1,,,,,,,,,0,,,85,75
16659,note_on,19,0,1,,,,,,,,,0,,,80,75
16660,note_on,1,0,1,,,,,,,,,0,,,85,0
16660,note_on,0,0,1,,,,,,,,,0,,,77,0
16679,note_on,19,0,1,,,,,,,,,0,,,80,0
16680,note_on,0,0,3,,,,,,,,,2,,,49,88
16680,note_on,0,0,3,,,,,,,,,2,,,53,0
16680,control_change,54,0,4,,,,,,,,,3,64,0,,
16680,note_on,0,0,3,,,,,,,,,2,,,56,88
16680,note_on,0,0,3,,,,,,,,,2,,,56,0
16680,note_on,120,0,3,,,,,,,,,2,,,61,0
16680,note_on,0,0,3,,,,,,,,,2,,,49,0
16680,note_on,0,0,3,,,,,,,,,2,,,53,88
16700,note_on,21,0,1,,,,,,,,,0,,,80,75
16719,note_on,19,0,1,,,,,,,,,0,,,85,75
16719,note_on,0,0,1,,,,,,,,,0,,,92,75
16720,note_on,1,0,1,,,,,,,,,0,,,80,0
16739,note_on,19,0,1,,,,,,,,,0,,,92,0
16739,note_on,0,0,1,,,,,,,,,0,,,85,0
16740,note_on,1,0,1,,,,,,,,,0,,,85,75
16740,note_on,60,0,3,,,,,,,,,2,,,56,0
16740,note_on,0,0,3,,,,,,,,,2,,,61,88
16740,note_on,0,0,3,,,,,,,,,2,,,56,88
16740,note_on,0,0,3,,,,,,,,,2,,,53,88
16740,note_on,0,0,3,,,,,,,,,2,,,53,0
16740,note_on,0,0,3,,,,,,,,,2,,,49,88
16740,note_on,0,0,3,,,,,,,,,2,,,49,0
16740,control_change,0,0,3,,,,,,,,,2,64,0,,
16760,note_on,0,0,1,,,,,,,,,0,,,89,75
16760,note_on,20,0,1,,,,,,,,,0,,,85,0
16760,note_on,0,0,1,,,,,,,,,0,,,97,75
16779,note_on,0,0,1,,,,,,,,,0,,,92,75
16779,control_change,19,0,1,,,,,,,,,0,64,0,,
16780,note_on,1,0,1,,,,,,,,,0,,,97,0
16780,note_on,0,0,1,,,,,,,,,0,,,89,0
16799,note_on,19,0,1,,,,,,,,,0,,,92,0
16800,note_on,0,0,3,,,,,,,,,2,,,56,0
16800,note_on,0,0,3,,,,,,,,,2,,,49,0
16800,note_on,0,0,3,,,,,,,,,2,,,51,88
16800,note_on,0,0,3,,,,,,,,,2,,,53,0
16800,note_on,0,0,3,,,,,,,,,2,,,60,88
16800,note_on,0,0,3,,,,,,,,,2,,,56,88
16800,note_on,60,0,3,,,,,,,,,2,,,61,0
16820,note_on,21,0,1,,,,,,,,,0,,,72,75
16839,note_on,19,0,1,,,,,,,,,0,,,75,75
16839,note_on,0,0,1,,,,,,,,,0,,,84,75
16840,note_on,1,0,1,,,,,,,,,0,,,72,0
16859,note_on,19,0,1,,,,,,,,,0,,,84,0
16859,note_on,0,0,1,,,,,,,,,0,,,75,0
16860,note_on,0,0,3,,,,,,,,,2,,,58,88
16860,note_on,0,0,4,,,,,,,,,3,,,56,75
16860,note_on,0,0,3,,,,,,,,,2,,,51,0
16860,note_on,0,0,3,,,,,,,,,2,,,56,0
16860,note_on,1,0,1,,,,,,,,,0,,,75,75
16860,note_on,60,0,3,,,,,,,,,2,,,60,0
16860,note_on,180,0,4,,,,,,,,,3,,,51,75
16880,note_on,20,0,1,,,,,,,,,0,,,75,0
16880,note_on,0,0,1,,,,,,,,,0,,,87,75
16880,note_on,0,0,1,,,,,,,,,0,,,80,75
16890,note_on,30,0,3,,,,,,,,,2,,,58,0
16890,note_on,0,0,3,,,,,,,,,2,,,60,88
16899,note_on,19,0,1,,,,,,,,,0,,,84,75
16900,note_on,0,0,1,,,,,,,,,0,,,80,0
16900,note_on,1,0,1,,,,,,,,,0,,,87,0
16919,note_on,19,0,1,,,,,,,,,0,,,84,0
16920,note_on,0,0,4,,,,,,,,,3,,,51,0
16920,note_on,0,0,4,,,,,,,,,3,,,51,75
16920,note_on,0,0,4,,,,,,,,,3,,,55,75
16920,note_on,60,0,4,,,,,,,,,3,,,56,0
16920,note_on,30,0,3,,,,,,,,,2,,,60,0
16920,note_on,0,0,3,,,,,,,,,2,,,61,88
16940,note_on,21,0,1,,,,,,,,,0,,,82,75
16959,note_on,0,0,1,,,,,,,,,0,,,94,75
16959,note_on,19,0,1,,,,,,,,,0,,,87,75
16960,note_on,1,0,1,,,,,,,,,0,,,82,0
16979,note_on,19,0,1,,,,,,,,,0,,,94,0
16979,note_on,0,0,1,,,,,,,,,0,,,87,0
16980,note_on,60,0,3,,,,,,,,,2,,,61,0
16980,note_on,0,0,4,,,,,,,,,3,,,51,0
16980,note_on,1,0,1,,,,,,,,,0,,,87,75
16980,note_on,0,0,3,,,,,,,,,2,,,55,114
16980,note_on,0,0,3,,,,,,,,,2,,,49,110
16980,note_on,0,0,3,,,,,,,,,2,,,39,102
16980,note_on,60,0,4,,,,,,,,,3,,,55,0
16980,note_on,0,0,3,,,,,,,,,2,,,46,106
17000,note_on,20,0,1,,,,,,,,,0,,,87,0
17000,note_on,0,0,1,,,,,,,,,0,,,99,75
17000,note_on,0,0,1,,,,,,,,,0,,,91,75
17019,note_on,19,0,1,,,,,,,,,0,,,94,75
17020,note_on,1,0,1,,,,,,,,,0,,,99,0
17020,note_on,0,0,1,,,,,,,,,0,,,91,0
17039,note_on,19,0,1,,,,,,,,,0,,,94,0
17040,note_on,0,0,3,,,,,,,,,2,,,44,102
17040,note_on,0,0,3,,,,,,,,,2,,,51,110
17040,note_on,60,0,3,,,,,,,,,2,,,55,0
17040,note_on,0,0,3,,,,,,,,,2,,,56,114
17040,note_on,0,0,3,,,,,,,,,2,,,49,0
17040,note_on,0,0,3,,,,,,,,,2,,,48,106
17040,note_on,0,0,3,,,,,,,,,2,,,46,0
17040,note_on,0,0,3,,,,,,,,,2,,,39,0
17060,note_on,21,0,1,,,,,,,,,0,,,56,75
17079,note_on,19,0,1,,,,,,,,,0,,,60,75
17079,note_on,0,0,1,,,,,,,,,0,,,68,75
17079,note_on,0,0,1,,,,,,,,,0,,,63,75
17080,note_on,1,0,1,,,,,,,,,0,,,56,0
17099,note_on,0,0,1,,,,,,,,,0,,,68,0
17099,note_on,19,0,1,,,,,,,,,0,,,60,0
17099,note_on,0,0,1,,,,,,,,,0,,,63,0
17100,note_on,1,0,1,,,,,,,,,0,,,60,75
17120,note_on,0,0,1,,,,,,,,,0,,,63,75
17120,note_on,0,0,1,,,,,,,,,0,,,68,75
17120,note_on,0,0,1,,,,,,,,,0,,,72,75
17120,note_on,20,0,1,,,,,,,,,0,,,60,0
17139,note_on,19,0,1,,,,,,,,,0,,,63,75
17140,note_on,0,0,1,,,,,,,,,0,,,68,0
17140,note_on,1,0,1,,,,,,,,,0,,,72,0
17140,note_on,0,0,1,,,,,,,,,0,,,63,0
17159,note_on,19,0,1,,,,,,,,,0,,,63,0
17160,note_on,120,0,3,,,,,,,,,2,,,56,0
17160,note_on,1,0,1,,,,,,,,,0,,,68,88
17160,note_on,0,0,1,,,,,,,,,0,,,72,88
17160,note_on,0,0,1,,,,,,,,,0,,,75,88
17160,note_on,0,0,3,,,,,,,,,2,,,51,0
17160,note_on,0,0,3,,,,,,,,,2,,,48,0
17160,note_on,0,0,3,,,,,,,,,2,,,44,0
17180,note_on,20,0,1,,,,,,,,,0,,,75,0
17180,note_on,0,0,1,,,,,,,,,0,,,68,0
17180,note_on,0,0,1,,,,,,,,,0,,,68,88
17180,note_on,0,0,1,,,,,,,,,0,,,72,0
17199,note_on,19,0,1,,,,,,,,,0,,,72,88
17199,note_on,0,0,1,,,,,,,,,0,,,80,88
17199,note_on,0,0,1,,,,,,,,,0,,,75,88
17200,note_on,1,0,1,,,,,,,,,0,,,68,0
17219,note_on,0,0,1,,,,,,,,,0,,,75,0
17219,note_on,0,0,1,,,,,,,,,0,,,80,0
17219,note_on,19,0,1,,,,,,,,,0,,,72,0
17220,note_on,1,0,1,,,,,,,,,0,,,72,88
17220,note_on,60,0,3,,,,,,,,,2,,,56,101
17235,note_on,0,0,1,,,,,,,,,0,,,75,88
17235,note_on,0,0,1,,,,,,,,,0,,,80,88
17235,note_on,0,0,1,,,,,,,,,0,,,84,88
17235,note_on,15,0,1,,,,,,,,,0,,,72,0
17250,note_on,0,0,3,,,,,,,,,2,,,58,101
17250,note_on,0,0,1,,,,,,,,,0,,,80,0
17250,note_on,0,0,1,,,,,,,,,0,,,75,88
17250,note_on,15,0,1,,,,,,,,,0,,,84,0
17250,note_on,30,0,3,,,,,,,,,2,,,56,0
17250,note_on,0,0,1,,,,,,,,,0,,,75,0
17265,note_on,0,0,1,,,,,,,,,0,,,87,88
17265,note_on,15,0,1,,,,,,,,,0,,,75,0
17265,note_on,0,0,1,,,,,,,,,0,,,84,88
17265,note_on,0,0,1,,,,,,,,,0,,,80,88
17280,note_on,0,0,1,,,,,,,,,0,,,80,0
17280,control_change,300,0,4,,,,,,,,,3,64,127,,
17280,control_change,0,0,1,,,,,,,,,0,64,127,,
17280,note_on,0,0,3,,,,,,,,,2,,,60,101
17280,note_on,0,0,4,,,,,,,,,3,,,51,88
17280,note_on,0,0,4,,,,,,,,,3,,,54,88
17280,control_change,0,0,3,,,,,,,,,2,64,127,,
17280,note_on,30,0,3,,,,,,,,,2,,,58,0
17280,note_on,0,0,4,,,,,,,,,3,,,44,88
17280,note_on,0,0,1,,,,,,,,,0,,,80,88
17280,note_on,15,0,1,,,,,,,,,0,,,87,0
17280,note_on,0,0,1,,,,,,,,,0,,,84,0
17286,note_on,0,0,4,,,,,,,,,3,,,44,0
17286,note_on,6,0,4,,,,,,,,,3,,,54,0
17286,note_on,0,0,4,,,,,,,,,3,,,51,0
17295,note_on,15,0,1,,,,,,,,,0,,,80,0
17295,note_on,0,0,1,,,,,,,,,0,,,87,88
17295,note_on,0,0,1,,,,,,,,,0,,,92,88
17310,note_on,0,0,1,,,,,,,,,0,,,87,0
17310,note_on,15,0,1,,,,,,,,,0,,,92,0
17310,note_on,0,0,1,,,,,,,,,0,,,94,88
17325,note_on,15,0,1,,,,,,,,,0,,,94,0
17325,note_on,0,0,1,,,,,,,,,0,,,92,88
17325,note_on,0,0,1,,,,,,,,,0,,,87,88
17340,note_on,15,0,1,,,,,,,,,0,,,92,0
17340,note_on,54,0,4,,,,,,,,,3,,,51,88
17340,note_on,60,0,3,,,,,,,,,2,,,60,0
17340,note_on,0,0,3,,,,,,,,,2,,,60,101
17340,note_on,0,0,1,,,,,,,,,0,,,87,0
17340,note_on,0,0,4,,,,,,,,,3,,,54,88
17340,note_on,0,0,1,,,,,,,,,0,,,80,88
17346,note_on,0,0,4,,,,,,,,,3,,,51,0
17346,note_on,6,0,4,,,,,,,,,3,,,54,0
17355,note_on,0,0,1,,,,,,,,,0,,,92,88
17355,note_on,15,0,1,,,,,,,,,0,,,80,0
17355,note_on,0,0,1,,,,,,,,,0,,,87,88
17370,note_on,15,0,1,,,,,,,,,0,,,92,0
17370,note_on,0,0,1,,,,,,,,,0,,,94,88
17370,note_on,0,0,1,,,,,,,,,0,,,87,0
17385,note_on,15,0,1,,,,,,,,,0,,,94,0
17385,note_on,0,0,1,,,,,,,,,0,,,92,88
17385,note_on,0,0,1,,,,,,,,,0,,,87,88
17400,note_on,0,0,1,,,,,,,,,0,,,87,0
17400,note_on,54,0,4,,,,,,,,,3,,,44,88
17400,note_on,60,0,3,,,,,,,,,2,,,60,0
17400,note_on,0,0,3,,,,,,,,,2,,,61,101
17400,note_on,0,0,4,,,,,,,,,3,,,51,88
17400,note_on,0,0,4,,,,,,,,,3,,,54,88
17400,note_on,0,0,1,,,,,,,,,0,,,80,88
17400,note_on,15,0,1,,,,,,,,,0,,,92,0
17406,note_on,6,0,4,,,,,,,,,3,,,54,0
17406,note_on,0,0,4,,,,,,,,,3,,,51,0
17406,note_on,0,0,4,,,,,,,,,3,,,44,0
17415,note_on,15,0,1,,,,,,,,,0,,,80,0
17415,note_on,0,0,1,,,,,,,,,0,,,92,88
17415,note_on,0,0,1,,,,,,,,,0,,,87,88
17430,note_on,15,0,1,,,,,,,,,0,,,92,0
17430,note_on,0,0,1,,,,,,,,,0,,,94,88
17430,note_on,30,0,3,,,,,,,,,2,,,61,0
17430,note_on,0,0,1,,,,,,,,,0,,,87,0
17430,note_on,0,0,3,,,,,,,,,2,,,60,101
17434,note_on,4,0,3,,,,,,,,,2,,,60,0
17445,note_on,0,0,1,,,,,,,,,0,,,92,88
17445,note_on,15,0,1,,,,,,,,,0,,,94,0
17445,note_on,0,0,1,,,,,,,,,0,,,87,88
17460,note_on,0,0,1,,,,,,,,,0,,,87,0
17460,note_on,0,0,1,,,,,,,,,0,,,80,88
17460,note_on,26,0,3,,,,,,,,,2,,,58,101
17460,note_on,0,0,4,,,,,,,,,3,,,51,88
17460,note_on,15,0,1,,,,,,,,,0,,,92,0
17460,note_on,0,0,4,,,,,,,,,3,,,54,88
17460,control_change,54,0,4,,,,,,,,,3,64,0,,
17466,note_on,0,0,4,,,,,,,,,3,,,51,0
17466,note_on,6,0,4,,,,,,,,,3,,,54,0
17475,note_on,15,0,1,,,,,,,,,0,,,80,0
17475,note_on,0,0,1,,,,,,,,,0,,,87,88
17475,note_on,0,0,1,,,,,,,,,0,,,92,88
17490,note_on,0,0,3,,,,,,,,,2,,,60,101
17490,note_on,30,0,3,,,,,,,,,2,,,58,0
17490,control_change,0,0,3,,,,,,,,,2,64,0,,
17490,note_on,15,0,1,,,,,,,,,0,,,92,0
17490,note_on,0,0,1,,,,,,,,,0,,,87,0
17490,note_on,0,0,1,,,,,,,,,0,,,94,88
17494,note_on,4,0,3,,,,,,,,,2,,,60,0
17505,note_on,15,0,1,,,,,,,,,0,,,94,0
17505,note_on,0,0,1,,,,,,,,,0,,,92,88
17505,note_on,0,0,1,,,,,,,,,0,,,87,88
17505,control_change,0,0,1,,,,,,,,,0,64,0,,
17520,note_on,0,0,1,,,,,,,,,0,,,87,0
17520,note_on,0,0,1,,,,,,,,,0,,,80,88
17520,note_on,0,0,4,,,,,,,,,3,,,53,88
17520,note_on,0,0,4,,,,,,,,,3,,,49,88
17520,control_change,0,0,1,,,,,,,,,0,64,127,,
17520,control_change,26,0,3,,,,,,,,,2,64,127,,
17520,control_change,54,0,4,,,,,,,,,3,64,127,,
17520,note_on,15,0,1,,,,,,,,,0,,,92,0
17520,note_on,0,0,3,,,,,,,,,2,,,61,127
17526,note_on,0,0,4,,,,,,,,,3,,,49,0
17526,note_on,6,0,4,,,,,,,,,3,,,53,0
17535,note_on,0,0,1,,,,,,,,,0,,,89,88
17535,note_on,0,0,1,,,,,,,,,0,,,92,88
17535,note_on,15,0,1,,,,,,,,,0,,,80,0
17550,note_on,0,0,1,,,,,,,,,0,,,89,0
17550,note_on,0,0,1,,,,,,,,,0,,,94,88
17550,note_on,15,0,1,,,,,,,,,0,,,92,0
17565,note_on,15,0,1,,,,,,,,,0,,,94,0
17565,note_on,0,0,1,,,,,,,,,0,,,92,88
17565,note_on,0,0,1,,,,,,,,,0,,,89,88
17580,note_on,54,0,4,,,,,,,,,3,,,53,88
17580,note_on,15,0,1,,,,,,,,,0,,,92,0
17580,note_on,0,0,1,,,,,,,,,0,,,89,0
17580,note_on,0,0,1,,,,,,,,,0,,,80,88
17580,note_on,0,0,4,,,,,,,,,3,,,56,88
17586,note_on,6,0,4,,,,,,,,,3,,,56,0
17586,note_on,0,0,4,,,,,,,,,3,,,53,0
17595,note_on,15,0,1,,,,,,,,,0,,,80,0
17595,note_on,0,0,1,,,,,,,,,0,,,89,88
17595,note_on,0,0,1,,,,,,,,,0,,,92,88
17610,note_on,15,0,1,,,,,,,,,0,,,92,0
17610,note_on,0,0,1,,,,,,,,,0,,,94,88
17610,note_on,0,0,1,,,,,,,,,0,,,89,0
17625,note_on,105,0,3,,,,,,,,,2,,,37,101
17625,note_on,0,0,1,,,,,,,,,0,,,92,88
17625,note_on,0,0,1,,,,,,,,,0,,,89,88
17625,note_on,15,0,1,,,,,,,,,0,,,94,0
17640,note_on,0,0,3,,,,,,,,,2,,,56,101
17640,note_on,0,0,3,,,,,,,,,2,,,61,0
17640,note_on,0,0,3,,,,,,,,,2,,,53,101
17640,note_on,15,0,1,,,,,,,,,0,,,92,0
17640,note_on,15,0,3,,,,,,,,,2,,,37,0
17640,note_on,0,0,1,,,,,,,,,0,,,80,88
17640,note_on,0,0,1,,,,,,,,,0,,,89,0
17655,note_on,15,0,1,,,,,,,,,0,,,80,0
17655,note_on,0,0,1,,,,,,,,,0,,,89,88
17655,note_on,0,0,1,,,,,,,,,0,,,92,88
17670,note_on,0,0,1,,,,,,,,,0,,,89,0
17670,note_on,0,0,1,,,,,,,,,0,,,94,88
17670,note_on,15,0,1,,,,,,,,,0,,,92,0
17685,note_on,0,0,1,,,,,,,,,0,,,89,88
17685,note_on,15,0,1,,,,,,,,,0,,,94,0
17685,note_on,0,0,1,,,,,,,,,0,,,92,88
17700,note_on,0,0,1,,,,,,,,,0,,,80,88
17700,note_on,0,0,1,,,,,,,,,0,,,89,0
17700,note_on,0,0,3,,,,,,,,,2,,,56,101
17700,note_on,15,0,1,,,,,,,,,0,,,92,0
17700,control_change,114,0,4,,,,,,,,,3,64,0,,
17700,note_on,0,0,4,,,,,,,,,3,,,49,88
17700,note_on,0,0,3,,,,,,,,,2,,,53,101
17700,note_on,0,0,3,,,,,,,,,2,,,53,0
17700,note_on,60,0,3,,,,,,,,,2,,,56,0
17706,note_on,6,0,4,,,,,,,,,3,,,49,0
17715,note_on,15,0,1,,,,,,,,,0,,,80,0
17715,note_on,0,0,1,,,,,,,,,0,,,89,88
17715,note_on,0,0,1,,,,,,,,,0,,,92,88
17730,note_on,0,0,1,,,,,,,,,0,,,94,88
17730,note_on,0,0,1,,,,,,,,,0,,,89,0
17730,note_on,0,0,3,,,,,,,,,2,,,53,0
17730,note_on,15,0,1,,,,,,,,,0,,,92,0
17730,note_on,30,0,3,,,,,,,,,2,,,56,0
17730,note_on,0,0,3,,,,,,,,,2,,,61,101
17730,control_change,0,0,3,,,,,,,,,2,64,0,,
17745,note_on,0,0,1,,,,,,,,,0,,,92,88
17745,note_on,15,0,1,,,,,,,,,0,,,94,0
17745,control_change,0,0,1,,,,,,,,,0,64,0,,
17745,note_on,0,0,1,,,,,,,,,0,,,89,88
17760,note_on,0,0,1,,,,,,,,,0,,,80,88
17760,note_on,0,0,1,,,,,,,,,0,,,89,0
17760,control_change,54,0,4,,,,,,,,,3,64,127,,
17760,note_on,0,0,3,,,,,,,,,2,,,60,101
17760,control_change,0,0,1,,,,,,,,,0,64,127,,
17760,control_change,0,0,3,,,,,,,,,2,64,127,,
17760,note_on,30,0,3,,,,,,,,,2,,,61,0
17760,note_on,0,0,4,,,,,,,,,3,,,44,88
17760,note_on,0,0,4,,,,,,,,,3,,,51,88
17760,note_on,0,0,4,,,,,,,,,3,,,54,88
17760,note_on,15,0,1,,,,,,,,,0,,,92,0
17766,note_on,0,0,4,,,,,,,,,3,,,44,0
17766,note_on,0,0,4,,,,,,,,,3,,,51,0
17766,note_on,6,0,4,,,,,,,,,3,,,54,0
17775,note_on,15,0,1,,,,,,,,,0,,,80,0
17775,note_on,0,0,1,,,,,,,,,0,,,87,88
17775,note_on,0,0,1,,,,,,,,,0,,,92,88
17790,note_on,0,0,1,,,,,,,,,0,,,94,88
17790,note_on,15,0,1,,,,,,,,,0,,,92,0
17790,note_on,0,0,1,,,,,,,,,0,,,87,0
17805,note_on,15,0,1,,,,,,,,,0,,,94,0
17805,note_on,0,0,1,,,,,,,,,0,,,87,88
17805,note_on,0,0,1,,,,,,,,,0,,,92,88
17820,note_on,0,0,4,,,,,,,,,3,,,54,88
17820,note_on,54,0,4,,,,,,,,,3,,,51,88
17820,note_on,60,0,3,,,,,,,,,2,,,60,0
17820,note_on,15,0,1,,,,,,,,,0,,,92,0
17820,note_on,0,0,3,,,,,,,,,2,,,60,101
17820,note_on,0,0,1,,,,,,,,,0,,,80,88
17820,note_on,0,0,1,,,,,,,,,0,,,87,0
17826,note_on,6,0,4,,,,,,,,,3,,,54,0
17826,note_on,0,0,4,,,,,,,,,3,,,51,0
17835,note_on,15,0,1,,,,,,,,,0,,,80,0
17835,note_on,0,0,1,,,,,,,,,0,,,87,88
17835,note_on,0,0,1,,,,,,,,,0,,,92,88
17850,note_on,0,0,1,,,,,,,,,0,,,94,88
17850,note_on,0,0,1,,,,,,,,,0,,,87,0
17850,note_on,15,0,1,,,,,,,,,0,,,92,0
17865,note_on,0,0,1,,,,,,,,,0,,,92,88
17865,note_on,15,0,1,,,,,,,,,0,,,94,0
17865,note_on,0,0,1,,,,,,,,,0,,,87,88
17880,note_on,15,0,1,,,,,,,,,0,,,92,0
17880,note_on,54,0,4,,,,,,,,,3,,,44,88
17880,note_on,0,0,4,,,,,,,,,3,,,51,88
17880,note_on,0,0,4,,,,,,,,,3,,,54,88
17880,note_on,0,0,3,,,,,,,,,2,,,60,101
17880,note_on,0,0,1,,,,,,,,,0,,,87,0
17880,note_on,0,0,1,,,,,,,,,0,,,80,88
17880,note_on,60,0,3,,,,,,,,,2,,,60,0
17886,note_on,0,0,4,,,,,,,,,3,,,51,0
17886,note_on,6,0,4,,,,,,,,,3,,,54,0
17886,note_on,0,0,4,,,,,,,,,3,,,44,0
17895,note_on,0,0,1,,,,,,,,,0,,,92,88
17895,note_on,15,0,1,,,,,,,,,0,,,80,0
17895,note_on,0,0,1,,,,,,,,,0,,,87,88
17910,note_on,0,0,3,,,,,,,,,2,,,66,101
17910,note_on,15,0,1,,,,,,,,,0,,,92,0
17910,note_on,30,0,3,,,,,,,,,2,,,60,0
17910,note_on,0,0,1,,,,,,,,,0,,,87,0
17910,note_on,0,0,1,,,,,,,,,0,,,94,88
17914,note_on,4,0,3,,,,,,,,,2,,,66,0
17925,note_on,0,0,1,,,,,,,,,0,,,92,88
17925,note_on,15,0,1,,,,,,,,,0,,,94,0
17925,note_on,0,0,1,,,,,,,,,0,,,87,88
17940,note_on,0,0,1,,,,,,,,,0,,,87,0
17940,control_change,54,0,4,,,,,,,,,3,64,0,,
17940,note_on,15,0,1,,,,,,,,,0,,,92,0
17940,note_on,0,0,1,,,,,,,,,0,,,80,88
17940,note_on,26,0,3,,,,,,,,,2,,,63,101
17940,note_on,0,0,4,,,,,,,,,3,,,54,88
17940,note_on,0,0,4,,,,,,,,,3,,,56,88
17946,note_on,6,0,4,,,,,,,,,3,,,56,0
17946,note_on,0,0,4,,,,,,,,,3,,,54,0
17955,note_on,0,0,1,,,,,,,,,0,,,92,88
17955,note_on,0,0,1,,,,,,,,,0,,,87,88
17955,note_on,15,0,1,,,,,,,,,0,,,80,0
17970,note_on,0,0,3,,,,,,,,,2,,,60,101
17970,control_change,0,0,3,,,,,,,,,2,64,0,,
17970,note_on,15,0,1,,,,,,,,,0,,,92,0
17970,note_on,30,0,3,,,,,,,,,2,,,63,0
17970,note_on,0,0,1,,,,,,,,,0,,,94,88
17970,note_on,0,0,1,,,,,,,,,0,,,87,0
17974,note_on,4,0,3,,,,,,,,,2,,,60,0
17985,note_on,15,0,1,,,,,,,,,0,,,94,0
17985,control_change,0,0,1,,,,,,,,,0,64,0,,
17985,note_on,0,0,1,,,,,,,,,0,,,92,88
17985,note_on,0,0,1,,,,,,,,,0,,,87,88
18000,note_on,0,0,4,,,,,,,,,3,,,49,88
18000,note_on,0,0,4,,,,,,,,,3,,,53,88
18000,note_on,0,0,1,,,,,,,,,0,,,87,0
18000,control_change,54,0,4,,,,,,,,,3,64,127,,
18000,note_on,26,0,3,,,,,,,,,2,,,61,127
18000,control_change,0,0,1,,,,,,,,,0,64,127,,
18000,note_on,15,0,1,,,,,,,,,0,,,92,0
18000,note_on,0,0,1,,,,,,,,,0,,,80,88
18006,note_on,6,0,4,,,,,,,,,3,,,53,0
18006,note_on,0,0,4,,,,,,,,,3,,,49,0
18015,note_on,0,0,1,,,,,,,,,0,,,89,88
18015,note_on,0,0,1,,,,,,,,,0,,,92,88
18015,note_on,15,0,1,,,,,,,,,0,,,80,0
18030,note_on,15,0,1,,,,,,,,,0,,,92,0
18030,note_on,0,0,1,,,,,,,,,0,,,89,0
18030,note_on,0,0,1,,,,,,,,,0,,,94,88
18045,note_on,15,0,1,,,,,,,,,0,,,94,0
18045,note_on,0,0,1,,,,,,,,,0,,,89,88
18045,note_on,0,0,1,,,,,,,,,0,,,92,88
18060,note_on,0,0,1,,,,,,,,,0,,,80,88
18060,note_on,0,0,1,,,,,,,,,0,,,89,0
18060,note_on,15,0,1,,,,,,,,,0,,,92,0
18060,note_on,54,0,4,,,,,,,,,3,,,53,88
18060,note_on,0,0,4,,,,,,,,,3,,,56,88
18066,note_on,6,0,4,,,,,,,,,3,,,56,0
18066,note_on,0,0,4,,,,,,,,,3,,,53,0
18075,note_on,15,0,1,,,,,,,,,0,,,80,0
18075,note_on,0,0,1,,,,,,,,,0,,,92,88
18075,note_on,0,0,1,,,,,,,,,0,,,89,88
18090,note_on,0,0,1,,,,,,,,,0,,,94,88
18090,note_on,0,0,1,,,,,,,,,0,,,89,0
18090,note_on,15,0,1,,,,,,,,,0,,,92,0
18105,note_on,15,0,1,,,,,,,,,0,,,94,0
18105,note_on,0,0,1,,,,,,,,,0,,,89,88
18105,note_on,0,0,1,,,,,,,,,0,,,92,88
18120,note_on,0,0,1,,,,,,,,,0,,,80,88
18120,note_on,0,0,1,,,,,,,,,0,,,89,0
18120,note_on,54,0,4,,,,,,,,,3,,,37,88
18120,note_on,15,0,1,,,,,,,,,0,,,92,0
18126,note_on,6,0,4,,,,,,,,,3,,,37,0
18135,note_on,0,0,1,,,,,,,,,0,,,89,88
18135,note_on,0,0,1,,,,,,,,,0,,,92,88
18135,note_on,15,0,1,,,,,,,,,0,,,80,0
18150,note_on,0,0,1,,,,,,,,,0,,,94,88
18150,note_on,0,0,1,,,,,,,,,0,,,89,0
18150,note_on,15,0,1,,,,,,,,,0,,,92,0
18165,note_on,15,0,1,,,,,,,,,0,,,94,0
18165,note_on,0,0,1,,,,,,,,,0,,,92,88
18165,note_on,0,0,1,,,,,,,,,0,,,89,88
18180,note_on,15,0,1,,,,,,,,,0,,,92,0
18180,control_change,54,0,4,,,,,,,,,3,64,0,,
18180,note_on,180,0,3,,,,,,,,,2,,,61,0
18180,note_on,0,0,4,,,,,,,,,3,,,53,88
18180,note_on,0,0,4,,,,,,,,,3,,,49,88
18180,note_on,0,0,1,,,,,,,,,0,,,89,0
18180,note_on,0,0,3,,,,,,,,,2,,,61,101
18180,note_on,0,0,1,,,,,,,,,0,,,80,88
18186,note_on,6,0,4,,,,,,,,,3,,,53,0
18186,note_on,0,0,4,,,,,,,,,3,,,49,0
18195,note_on,15,0,1,,,,,,,,,0,,,80,0
18195,note_on,0,0,1,,,,,,,,,0,,,89,88
18195,note_on,0,0,1,,,,,,,,,0,,,92,88
18210,note_on,15,0,1,,,,,,,,,0,,,92,0
18210,note_on,0,0,1,,,,,,,,,0,,,89,0
18210,note_on,0,0,1,,,,,,,,,0,,,94,88
18225,note_on,15,0,1,,,,,,,,,0,,,94,0
18225,control_change,0,0,1,,,,,,,,,0,64,0,,
18225,note_on,0,0,1,,,,,,,,,0,,,92,88
18225,note_on,0,0,1,,,,,,,,,0,,,89,88
18240,note_on,15,0,1,,,,,,,,,0,,,92,0
18240,control_change,54,0,4,,,,,,,,,3,64,127,,
18240,control_change,0,0,1,,,,,,,,,0,64,127,,
18240,note_on,0,0,1,,,,,,,,,0,,,89,0
18240,note_on,0,0,4,,,,,,,,,3,,,49,88
18240,note_on,0,0,1,,,,,,,,,0,,,82,88
18240,note_on,0,0,3,,,,,,,,,2,,,58,101
18240,note_on,60,0,3,,,,,,,,,2,,,61,0
18240,control_change,0,0,3,,,,,,,,,2,64,127,,
18240,note_on,0,0,4,,,,,,,,,3,,,42,88
18246,note_on,6,0,4,,,,,,,,,3,,,49,0
18246,note_on,0,0,4,,,,,,,,,3,,,42,0
18255,note_on,0,0,1,,,,,,,,,0,,,94,88
18255,note_on,15,0,1,,,,,,,,,0,,,82,0
18255,note_on,0,0,1,,,,,,,,,0,,,90,88
18270,note_on,0,0,1,,,,,,,,,0,,,96,88
18270,note_on,15,0,1,,,,,,,,,0,,,94,0
18270,note_on,0,0,1,,,,,,,,,0,,,90,0
18285,note_on,0,0,1,,,,,,,,,0,,,94,88
18285,note_on,15,0,1,,,,,,,,,0,,,96,0
18285,note_on,0,0,1,,,,,,,,,0,,,90,88
18300,note_on,0,0,1,,,,,,,,,0,,,90,0
18300,note_on,15,0,1,,,,,,,,,0,,,94,0
18300,note_on,60,0,3,,,,,,,,,2,,,58,0
18300,note_on,54,0,4,,,,,,,,,3,,,49,88
18300,note_on,0,0,1,,,,,,,,,0,,,82,88
18300,note_on,0,0,3,,,,,,,,,2,,,58,101
18300,note_on,0,0,4,,,,,,,,,3,,,54,88
18306,note_on,6,0,4,,,,,,,,,3,,,54,0
18306,note_on,0,0,4,,,,,,,,,3,,,49,0
18315,note_on,0,0,1,,,,,,,,,0,,,90,88
18315,note_on,0,0,1,,,,,,,,,0,,,94,88
18315,note_on,15,0,1,,,,,,,,,0,,,82,0
18330,note_on,0,0,1,,,,,,,,,0,,,90,0
18330,note_on,0,0,1,,,,,,,,,0,,,96,88
18330,note_on,15,0,1,,,,,,,,,0,,,94,0
18345,note_on,0,0,1,,,,,,,,,0,,,94,88
18345,note_on,15,0,1,,,,,,,,,0,,,96,0
18345,note_on,0,0,1,,,,,,,,,0,,,90,88
18360,note_on,54,0,4,,,,,,,,,3,,,42,88
18360,note_on,0,0,1,,,,,,,,,0,,,90,0
18360,note_on,0,0,4,,,,,,,,,3,,,49,88
18360,note_on,60,0,3,,,,,,,,,2,,,58,0
18360,note_on,15,0,1,,,,,,,,,0,,,94,0
18360,note_on,0,0,3,,,,,,,,,2,,,58,101
18360,note_on,0,0,1,,,,,,,,,0,,,82,88
18366,note_on,0,0,4,,,,,,,,,3,,,42,0
18366,note_on,6,0,4,,,,,,,,,3,,,49,0
18375,note_on,0,0,1,,,,,,,,,0,,,90,88
18375,note_on,15,0,1,,,,,,,,,0,,,82,0
18375,note_on,0,0,1,,,,,,,,,0,,,94,88
18390,note_on,0,0,1,,,,,,,,,0,,,90,0
18390,note_on,0,0,1,,,,,,,,,0,,,96,88
18390,note_on,15,0,1,,,,,,,,,0,,,94,0
18405,note_on,0,0,1,,,,,,,,,0,,,90,88
18405,note_on,0,0,1,,,,,,,,,0,,,94,88
18405,note_on,15,0,1,,,,,,,,,0,,,96,0
18420,control_change,0,0,3,,,,,,,,,2,64,0,,
18420,note_on,0,0,4,,,,,,,,,3,,,54,88
18420,note_on,15,0,1,,,,,,,,,0,,,94,0
18420,note_on,0,0,3,,,,,,,,,2,,,61,101
18420,note_on,0,0,1,,,,,,,,,0,,,90,0
18420,note_on,0,0,1,,,,,,,,,0,,,82,88
18420,control_change,54,0,4,,,,,,,,,3,64,0,,
18420,note_on,60,0,3,,,,,,,,,2,,,58,0
18420,note_on,0,0,4,,,,,,,,,3,,,58,88
18426,note_on,0,0,4,,,,,,,,,3,,,54,0
18426,note_on,6,0,4,,,,,,,,,3,,,58,0
18435,note_on,15,0,1,,,,,,,,,0,,,82,0
18435,note_on,0,0,1,,,,,,,,,0,,,94,88
18435,note_on,0,0,1,,,,,,,,,0,,,90,88
18450,note_on,0,0,1,,,,,,,,,0,,,90,0
18450,note_on,0,0,1,,,,,,,,,0,,,96,88
18450,note_on,15,0,1,,,,,,,,,0,,,94,0
18465,control_change,0,0,1,,,,,,,,,0,64,0,,
18465,note_on,0,0,1,,,,,,,,,0,,,94,88
18465,note_on,0,0,1,,,,,,,,,0,,,90,88
18465,note_on,15,0,1,,,,,,,,,0,,,96,0
18480,control_change,0,0,1,,,,,,,,,0,64,127,,
18480,note_on,0,0,4,,,,,,,,,3,,,53,88
18480,note_on,15,0,1,,,,,,,,,0,,,94,0
18480,note_on,0,0,3,,,,,,,,,2,,,61,127
18480,note_on,0,0,4,,,,,,,,,3,,,49,88
18480,note_on,60,0,3,,,,,,,,,2,,,61,0
18480,note_on,0,0,1,,,,,,,,,0,,,90,0
18480,note_on,0,0,1,,,,,,,,,0,,,85,88
18480,control_change,0,0,3,,,,,,,,,2,64,127,,
18480,control_change,54,0,4,,,,,,,,,3,64,127,,
18486,note_on,6,0,4,,,,,,,,,3,,,53,0
18486,note_on,0,0,4,,,,,,,,,3,,,49,0
18495,note_on,15,0,1,,,,,,,,,0,,,85,0
18495,note_on,0,0,1,,,,,,,,,0,,,97,88
18495,note_on,0,0,1,,,,,,,,,0,,,92,88
18510,note_on,15,0,1,,,,,,,,,0,,,97,0
18510,note_on,0,0,1,,,,,,,,,0,,,92,0
18510,note_on,0,0,1,,,,,,,,,0,,,99,88
18525,note_on,0,0,1,,,,,,,,,0,,,97,88
18525,note_on,0,0,1,,,,,,,,,0,,,92,88
18525,note_on,15,0,1,,,,,,,,,0,,,99,0
18540,note_on,0,0,1,,,,,,,,,0,,,85,88
18540,note_on,0,0,1,,,,,,,,,0,,,92,0
18540,note_on,0,0,4,,,,,,,,,3,,,56,88
18540,note_on,54,0,4,,,,,,,,,3,,,53,88
18540,note_on,15,0,1,,,,,,,,,0,,,97,0
18546,note_on,6,0,4,,,,,,,,,3,,,56,0
18546,note_on,0,0,4,,,,,,,,,3,,,53,0
18555,note_on,0,0,1,,,,,,,,,0,,,97,88
18555,note_on,0,0,1,,,,,,,,,0,,,92,88
18555,note_on,15,0,1,,,,,,,,,0,,,85,0
18570,note_on,0,0,1,,,,,,,,,0,,,92,0
18570,note_on,0,0,1,,,,,,,,,0,,,99,88
18570,note_on,15,0,1,,,,,,,,,0,,,97,0
18585,note_on,0,0,1,,,,,,,,,0,,,92,88
18585,note_on,0,0,1,,,,,,,,,0,,,97,88
18585,note_on,15,0,1,,,,,,,,,0,,,99,0
18585,note_on,105,0,3,,,,,,,,,2,,,37,101
18600,note_on,0,0,1,,,,,,,,,0,,,85,88
18600,note_on,0,0,1,,,,,,,,,0,,,92,0
18600,note_on,0,0,3,,,,,,,,,2,,,61,0
18600,note_on,15,0,3,,,,,,,,,2,,,37,0
18600,note_on,0,0,3,,,,,,,,,2,,,56,101
18600,note_on,0,0,3,,,,,,,,,2,,,53,101
18600,note_on,15,0,1,,,,,,,,,0,,,97,0
18615,note_on,15,0,1,,,,,,,,,0,,,85,0
18615,note_on,0,0,1,,,,,,,,,0,,,92,88
18615,note_on,0,0,1,,,,,,,,,0,,,97,88
18630,note_on,0,0,1,,,,,,,,,0,,,92,0
18630,note_on,0,0,1,,,,,,,,,0,,,99,88
18630,note_on,15,0,1,,,,,,,,,0,,,97,0
18645,note_on,0,0,1,,,,,,,,,0,,,92,88
18645,note_on,0,0,1,,,,,,,,,0,,,97,88
18645,note_on,15,0,1,,,,,,,,,0,,,99,0
18660,note_on,0,0,3,,,,,,,,,2,,,53,0
18660,control_change,0,0,3,,,,,,,,,2,64,0,,
18660,note_on,60,0,3,,,,,,,,,2,,,56,0
18660,control_change,114,0,4,,,,,,,,,3,64,0,,
18660,note_on,15,0,1,,,,,,,,,0,,,97,0
18660,note_on,0,0,3,,,,,,,,,2,,,56,101
18660,note_on,0,0,3,,,,,,,,,2,,,53,101
18660,note_on,0,0,1,,,,,,,,,0,,,92,0
18660,note_on,0,0,4,,,,,,,,,3,,,49,88
18660,note_on,0,0,1,,,,,,,,,0,,,85,88
18675,note_on,0,0,1,,,,,,,,,0,,,92,88
18675,note_on,15,0,1,,,,,,,,,0,,,85,0
18675,note_on,0,0,1,,,,,,,,,0,,,99,88
18690,note_on,0,0,1,,,,,,,,,0,,,92,0
18690,note_on,0,0,1,,,,,,,,,0,,,97,88
18690,note_on,15,0,1,,,,,,,,,0,,,99,0
18705,note_on,15,0,1,,,,,,,,,0,,,97,0
18705,note_on,0,0,1,,,,,,,,,0,,,94,88
18705,control_change,0,0,1,,,,,,,,,0,64,0,,
18720,note_on,0,0,3,,,,,,,,,2,,,44,101
18720,note_on,0,0,3,,,,,,,,,2,,,48,101
18720,note_on,0,0,3,,,,,,,,,2,,,53,0
18720,note_on,0,0,3,,,,,,,,,2,,,54,101
18720,note_on,0,0,3,,,,,,,,,2,,,56,101
18720,note_on,15,0,1,,,,,,,,,0,,,94,0
18720,note_on,0,0,1,,,,,,,,,0,,,80,88
18720,note_on,60,0,4,,,,,,,,,3,,,49,0
18720,control_change,0,0,4,,,,,,,,,3,64,127,,
18720,control_change,0,0,3,,,,,,,,,2,64,127,,
18720,control_change,0,0,1,,,,,,,,,0,64,127,,
18720,note_on,60,0,3,,,,,,,,,2,,,56,0
18735,note_on,15,0,1,,,,,,,,,0,,,80,0
18735,note_on,0,0,1,,,,,,,,,0,,,92,88
18735,note_on,0,0,1,,,,,,,,,0,,,87,88
18750,note_on,15,0,1,,,,,,,,,0,,,92,0
18750,note_on,0,0,1,,,,,,,,,0,,,87,0
18750,note_on,0,0,1,,,,,,,,,0,,,94,88
18765,note_on,15,0,1,,,,,,,,,0,,,94,0
18765,note_on,0,0,1,,,,,,,,,0,,,92,88
18765,note_on,0,0,1,,,,,,,,,0,,,87,88
18780,note_on,0,0,1,,,,,,,,,0,,,87,0
18780,note_on,0,0,1,,,,,,,,,0,,,80,88
18780,note_on,60,0,4,,,,,,,,,3,,,32,88
18780,note_on,15,0,1,,,,,,,,,0,,,92,0
18786,note_on,6,0,4,,,,,,,,,3,,,32,0
18795,note_on,15,0,1,,,,,,,,,0,,,80,0
18795,note_on,0,0,1,,,,,,,,,0,,,92,88
18795,note_on,0,0,1,,,,,,,,,0,,,87,88
18810,note_on,0,0,1,,,,,,,,,0,,,94,88
18810,note_on,0,0,1,,,,,,,,,0,,,87,0
18810,note_on,15,0,1,,,,,,,,,0,,,92,0
18810,note_on,0,0,3,,,,,,,,,2,,,48,101
18810,note_on,0,0,3,,,,,,,,,2,,,56,101
18810,note_on,90,0,3,,,,,,,,,2,,,56,0
18810,note_on,0,0,3,,,,,,,,,2,,,54,101
18810,note_on,0,0,3,,,,,,,,,2,,,54,0
18810,note_on,0,0,3,,,,,,,,,2,,,44,0
18810,note_on,0,0,3,,,,,,,,,2,,,44,101
18810,note_on,0,0,3,,,,,,,,,2,,,48,0
18825,note_on,0,0,1,,,,,,,,,0,,,87,88
18825,note_on,0,0,1,,,,,,,,,0,,,92,88
18825,note_on,15,0,1,,,,,,,,,0,,,94,0
18840,note_on,0,0,3,,,,,,,,,2,,,54,114
18840,note_on,0,0,3,,,,,,,,,2,,,48,0
18840,note_on,0,0,3,,,,,,,,,2,,,44,0
18840,note_on,15,0,1,,,,,,,,,0,,,92,0
18840,note_on,0,0,3,,,,,,,,,2,,,54,0
18840,note_on,0,0,3,,,,,,,,,2,,,56,114
18840,note_on,0,0,3,,,,,,,,,2,,,63,114
18840,note_on,30,0,3,,,,,,,,,2,,,56,0
18840,note_on,0,0,1,,,,,,,,,0,,,80,88
18840,note_on,0,0,1,,,,,,,,,0,,,87,0
18855,note_on,0,0,1,,,,,,,,,0,,,92,88
18855,note_on,15,0,1,,,,,,,,,0,,,80,0
18855,note_on,0,0,1,,,,,,,,,0,,,87,88
18870,note_on,0,0,1,,,,,,,,,0,,,87,0
18870,note_on,15,0,1,,,,,,,,,0,,,92,0
18870,note_on,0,0,1,,,,,,,,,0,,,94,88
18885,note_on,15,0,1,,,,,,,,,0,,,94,0
18885,note_on,0,0,1,,,,,,,,,0,,,87,88
18885,note_on,0,0,1,,,,,,,,,0,,,92,88
18900,control_change,114,0,4,,,,,,,,,3,64,0,,
18900,note_on,0,0,3,,,,,,,,,2,,,51,101
18900,control_change,0,0,3,,,,,,,,,2,64,0,,
18900,note_on,0,0,3,,,,,,,,,2,,,56,0
18900,note_on,15,0,1,,,,,,,,,0,,,92,0
18900,note_on,0,0,3,,,,,,,,,2,,,54,101
18900,note_on,0,0,1,,,,,,,,,0,,,87,0
18900,note_on,60,0,3,,,,,,,,,2,,,63,0
18900,note_on,0,0,3,,,,,,,,,2,,,60,101
18900,note_on,0,0,1,,,,,,,,,0,,,80,88
18900,note_on,0,0,3,,,,,,,,,2,,,54,0
18915,note_on,15,0,1,,,,,,,,,0,,,80,0
18915,note_on,0,0,1,,,,,,,,,0,,,87,88
18915,note_on,0,0,1,,,,,,,,,0,,,92,88
18930,note_on,15,0,1,,,,,,,,,0,,,92,0
18930,note_on,0,0,1,,,,,,,,,0,,,94,88
18930,note_on,0,0,1,,,,,,,,,0,,,87,0
18945,control_change,0,0,1,,,,,,,,,0,64,0,,
18945,note_on,0,0,1,,,,,,,,,0,,,87,88
18945,note_on,0,0,1,,,,,,,,,0,,,92,88
18945,note_on,15,0,1,,,,,,,,,0,,,94,0
18960,note_on,0,0,3,,,,,,,,,2,,,54,0
18960,note_on,0,0,3,,,,,,,,,2,,,53,101
18960,note_on,0,0,3,,,,,,,,,2,,,51,0
18960,note_on,0,0,3,,,,,,,,,2,,,49,101
18960,note_on,0,0,3,,,,,,,,,2,,,61,101
18960,note_on,15,0,1,,,,,,,,,0,,,92,0
18960,control_change,0,0,1,,,,,,,,,0,64,127,,
18960,control_change,0,0,3,,,,,,,,,2,64,127,,
18960,note_on,0,0,1,,,,,,,,,0,,,87,0
18960,note_on,60,0,3,,,,,,,,,2,,,60,0
18960,note_on,0,0,1,,,,,,,,,0,,,80,88
18975,note_on,0,0,1,,,,,,,,,0,,,89,88
18975,note_on,0,0,1,,,,,,,,,0,,,92,88
18975,note_on,15,0,1,,,,,,,,,0,,,80,0
18990,note_on,0,0,1,,,,,,,,,0,,,89,0
18990,note_on,0,0,1,,,,,,,,,0,,,94,88
18990,note_on,15,0,1,,,,,,,,,0,,,92,0
19005,note_on,0,0,1,,,,,,,,,0,,,89,88
19005,note_on,0,0,1,,,,,,,,,0,,,92,88
19005,note_on,15,0,1,,,,,,,,,0,,,94,0
19020,note_on,0,0,3,,,,,,,,,2,,,49,0
19020,note_on,0,0,3,,,,,,,,,2,,,37,101
19020,note_on,60,0,3,,,,,,,,,2,,,61,0
19020,note_on,0,0,1,,,,,,,,,0,,,89,0
19020,note_on,0,0,1,,,,,,,,,0,,,80,88
19020,note_on,15,0,1,,,,,,,,,0,,,92,0
19020,note_on,0,0,3,,,,,,,,,2,,,53,0
19026,note_on,6,0,3,,,,,,,,,2,,,37,0
19035,note_on,15,0,1,,,,,,,,,0,,,80,0
19035,note_on,0,0,1,,,,,,,,,0,,,89,88
19035,note_on,0,0,1,,,,,,,,,0,,,92,88
19050,note_on,15,0,1,,,,,,,,,0,,,92,0
19050,note_on,0,0,1,,,,,,,,,0,,,89,0
19050,note_on,0,0,1,,,,,,,,,0,,,94,88
19065,note_on,15,0,1,,,,,,,,,0,,,94,0
19065,note_on,0,0,1,,,,,,,,,0,,,92,88
19065,note_on,0,0,1,,,,,,,,,0,,,89,88
19080,note_on,0,0,3,,,,,,,,,2,,,56,101
19080,note_on,0,0,1,,,,,,,,,0,,,80,88
19080,note_on,0,0,1,,,,,,,,,0,,,89,0
19080,note_on,15,0,1,,,,,,,,,0,,,92,0
19080,note_on,0,0,3,,,,,,,,,2,,,53,101
19080,note_on,54,0,3,,,,,,,,,2,,,49,101
19095,note_on,0,0,1,,,,,,,,,0,,,89,88
19095,note_on,0,0,1,,,,,,,,,0,,,92,88
19095,note_on,15,0,1,,,,,,,,,0,,,80,0
19110,note_on,0,0,1,,,,,,,,,0,,,94,88
19110,note_on,0,0,1,,,,,,,,,0,,,89,0
19110,note_on,15,0,1,,,,,,,,,0,,,92,0
19125,note_on,0,0,1,,,,,,,,,0,,,92,88
19125,note_on,0,0,1,,,,,,,,,0,,,89,88
19125,note_on,15,0,1,,,,,,,,,0,,,94,0
19140,note_on,0,0,1,,,,,,,,,0,,,89,0
19140,note_on,0,0,1,,,,,,,,,0,,,80,88
19140,control_change,0,0,3,,,,,,,,,2,64,0,,
19140,note_on,0,0,3,,,,,,,,,2,,,49,101
19140,note_on,0,0,3,,,,,,,,,2,,,49,0
19140,note_on,15,0,1,,,,,,,,,0,,,92,0
19140,note_on,0,0,3,,,,,,,,,2,,,61,101
19140,note_on,0,0,3,,,,,,,,,2,,,53,101
19140,note_on,0,0,3,,,,,,,,,2,,,53,0
19140,note_on,60,0,3,,,,,,,,,2,,,56,0
19155,note_on,15,0,1,,,,,,,,,0,,,80,0
19155,note_on,0,0,1,,,,,,,,,0,,,92,88
19155,note_on,0,0,1,,,,,,,,,0,,,89,88
19170,note_on,0,0,1,,,,,,,,,0,,,94,88
19170,note_on,0,0,1,,,,,,,,,0,,,89,0
19170,note_on,15,0,1,,,,,,,,,0,,,92,0
19185,control_change,0,0,1,,,,,,,,,0,64,0,,
19185,note_on,0,0,1,,,,,,,,,0,,,92,88
19185,note_on,45,0,3,,,,,,,,,2,,,42,101
19185,note_on,15,0,1,,,,,,,,,0,,,94,0
19185,note_on,0,0,1,,,,,,,,,0,,,89,88
19200,note_on,0,0,3,,,,,,,,,2,,,49,0
19200,control_change,0,0,1,,,,,,,,,0,64,127,,
19200,note_on,0,0,3,,,,,,,,,2,,,60,101
19200,note_on,0,0,1,,,,,,,,,0,,,89,0
19200,control_change,300,0,4,,,,,,,,,3,64,127,,
19200,note_on,0,0,1,,,,,,,,,0,,,82,88
19200,note_on,15,0,1,,,,,,,,,0,,,92,0
19200,note_on,0,0,3,,,,,,,,,2,,,53,0
19200,note_on,15,0,3,,,,,,,,,2,,,61,0
19200,control_change,0,0,3,,,,,,,,,2,64,127,,
19215,note_on,15,0,1,,,,,,,,,0,,,82,0
19215,note_on,0,0,1,,,,,,,,,0,,,90,88
19215,note_on,0,0,1,,,,,,,,,0,,,94,88
19230,note_on,0,0,3,,,,,,,,,2,,,58,101
19230,note_on,0,0,3,,,,,,,,,2,,,42,0
19230,note_on,30,0,3,,,,,,,,,2,,,60,0
19230,note_on,0,0,1,,,,,,,,,0,,,90,0
19230,note_on,15,0,1,,,,,,,,,0,,,94,0
19230,note_on,0,0,1,,,,,,,,,0,,,96,88
19245,note_on,0,0,1,,,,,,,,,0,,,90,88
19245,note_on,0,0,1,,,,,,,,,0,,,94,88
19245,note_on,15,0,1,,,,,,,,,0,,,96,0
19260,note_on,0,0,1,,,,,,,,,0,,,82,88
19260,note_on,60,0,4,,,,,,,,,3,,,49,88
19260,note_on,0,0,3,,,,,,,,,2,,,58,101
19260,note_on,30,0,3,,,,,,,,,2,,,58,0
19260,note_on,0,0,4,,,,,,,,,3,,,54,88
19260,note_on,15,0,1,,,,,,,,,0,,,94,0
19260,note_on,0,0,1,,,,,,,,,0,,,90,0
19266,note_on,6,0,4,,,,,,,,,3,,,54,0
19266,note_on,0,0,4,,,,,,,,,3,,,49,0
19275,note_on,0,0,1,,,,,,,,,0,,,94,88
19275,note_on,0,0,1,,,,,,,,,0,,,90,88
19275,note_on,15,0,1,,,,,,,,,0,,,82,0
19290,note_on,15,0,1,,,,,,,,,0,,,94,0
19290,note_on,0,0,1,,,,,,,,,0,,,96,88
19290,note_on,0,0,1,,,,,,,,,0,,,90,0
19305,note_on,0,0,1,,,,,,,,,0,,,90,88
19305,note_on,15,0,1,,,,,,,,,0,,,96,0
19305,note_on,0,0,1,,,,,,,,,0,,,94,88
19320,note_on,60,0,3,,,,,,,,,2,,,58,0
19320,note_on,0,0,1,,,,,,,,,0,,,90,0
19320,note_on,54,0,4,,,,,,,,,3,,,42,88
19320,note_on,0,0,3,,,,,,,,,2,,,58,101
19320,note_on,15,0,1,,,,,,,,,0,,,94,0
19320,note_on,0,0,1,,,,,,,,,0,,,82,88
19326,note_on,6,0,4,,,,,,,,,3,,,42,0
19335,note_on,0,0,1,,,,,,,,,0,,,90,88
19335,note_on,0,0,1,,,,,,,,,0,,,94,88
19335,note_on,15,0,1,,,,,,,,,0,,,82,0
19350,note_on,0,0,1,,,,,,,,,0,,,96,88
19350,note_on,0,0,1,,,,,,,,,0,,,90,0
19350,note_on,0,0,3,,,,,,,,,2,,,61,101
19350,note_on,30,0,3,,,,,,,,,2,,,58,0
19350,note_on,15,0,1,,,,,,,,,0,,,94,0
19354,note_on,4,0,3,,,,,,,,,2,,,61,0
19365,note_on,15,0,1,,,,,,,,,0,,,96,0
19365,note_on,0,0,1,,,,,,,,,0,,,90,88
19365,note_on,0,0,1,,,,,,,,,0,,,94,88
19380,note_on,0,0,4,,,,,,,,,3,,,54,88
19380,control_change,54,0,4,,,,,,,,,3,64,0,,
19380,note_on,0,0,1,,,,,,,,,0,,,82,88
19380,note_on,15,0,1,,,,,,,,,0,,,94,0
19380,note_on,0,0,4,,,,,,,,,3,,,58,88
19380,note_on,26,0,3,,,,,,,,,2,,,60,101
19380,note_on,0,0,1,,,,,,,,,0,,,90,0
19386,note_on,6,0,4,,,,,,,,,3,,,58,0
19386,note_on,0,0,4,,,,,,,,,3,,,54,0
19395,note_on,15,0,1,,,,,,,,,0,,,82,0
19395,note_on,0,0,1,,,,,,,,,0,,,94,88
19395,note_on,0,0,1,,,,,,,,,0,,,90,88
19410,note_on,30,0,3,,,,,,,,,2,,,60,0
19410,control_change,0,0,3,,,,,,,,,2,64,0,,
19410,note_on,0,0,1,,,,,,,,,0,,,96,88
19410,note_on,0,0,3,,,,,,,,,2,,,63,101
19410,note_on,0,0,1,,,,,,,,,0,,,90,0
19410,note_on,15,0,1,,,,,,,,,0,,,94,0
19414,note_on,4,0,3,,,,,,,,,2,,,63,0
19425,note_on,0,0,1,,,,,,,,,0,,,94,88
19425,note_on,0,0,1,,,,,,,,,0,,,90,88
19425,control_change,0,0,1,,,,,,,,,0,64,0,,
19425,note_on,15,0,1,,,,,,,,,0,,,96,0
19440,note_on,0,0,1,,,,,,,,,0,,,90,0
19440,note_on,0,0,4,,,,,,,,,3,,,53,88
19440,note_on,0,0,4,,,,,,,,,3,,,49,88
19440,control_change,54,0,4,,,,,,,,,3,64,127,,
19440,control_change,26,0,3,,,,,,,,,2,64,127,,
19440,note_on,0,0,3,,,,,,,,,2,,,61,127
19440,note_on,15,0,1,,,,,,,,,0,,,94,0
19440,control_change,0,0,1,,,,,,,,,0,64,127,,
19440,note_on,0,0,1,,,,,,,,,0,,,85,88
19446,note_on,6,0,4,,,,,,,,,3,,,53,0
19446,note_on,0,0,4,,,,,,,,,3,,,49,0
19455,note_on,0,0,1,,,,,,,,,0,,,97,88
19455,note_on,0,0,1,,,,,,,,,0,,,92,88
19455,note_on,15,0,1,,,,,,,,,0,,,85,0
19470,note_on,0,0,1,,,,,,,,,0,,,92,0
19470,note_on,0,0,1,,,,,,,,,0,,,99,88
19470,note_on,15,0,1,,,,,,,,,0,,,97,0
19485,note_on,0,0,1,,,,,,,,,0,,,92,88
19485,note_on,0,0,1,,,,,,,,,0,,,97,88
19485,note_on,15,0,1,,,,,,,,,0,,,99,0
19500,note_on,0,0,4,,,,,,,,,3,,,56,88
19500,note_on,54,0,4,,,,,,,,,3,,,53,88
19500,note_on,0,0,1,,,,,,,,,0,,,92,0
19500,note_on,0,0,1,,,,,,,,,0,,,85,88
19500,note_on,15,0,1,,,,,,,,,0,,,97,0
19506,note_on,6,0,4,,,,,,,,,3,,,56,0
19506,note_on,0,0,4,,,,,,,,,3,,,53,0
19515,note_on,0,0,1,,,,,,,,,0,,,97,88
19515,note_on,0,0,1,,,,,,,,,0,,,92,88
19515,note_on,15,0,1,,,,,,,,,0,,,85,0
19530,note_on,0,0,1,,,,,,,,,0,,,99,88
19530,note_on,15,0,1,,,,,,,,,0,,,97,0
19530,note_on,0,0,1,,,,,,,,,0,,,92,0
19545,note_on,15,0,1,,,,,,,,,0,,,99,0
19545,note_on,0,0,1,,,,,,,,,0,,,92,88
19545,note_on,0,0,1,,,,,,,,,0,,,97,88
19545,note_on,105,0,3,,,,,,,,,2,,,37,101
19560,note_on,0,0,3,,,,,,,,,2,,,56,101
19560,note_on,15,0,1,,,,,,,,,0,,,97,0
19560,note_on,15,0,3,,,,,,,,,2,,,37,0
19560,note_on,0,0,3,,,,,,,,,2,,,53,101
19560,note_on,0,0,1,,,,,,,,,0,,,85,88
19560,note_on,0,0,1,,,,,,,,,0,,,92,0
19560,note_on,0,0,3,,,,,,,,,2,,,61,0
19575,note_on,0,0,1,,,,,,,,,0,,,92,88
19575,note_on,15,0,1,,,,,,,,,0,,,85,0
19575,note_on,0,0,1,,,,,,,,,0,,,97,88
19590,note_on,0,0,1,,,,,,,,,0,,,92,0
19590,note_on,15,0,1,,,,,,,,,0,,,97,0
19590,note_on,0,0,1,,,,,,,,,0,,,99,88
19605,note_on,0,0,1,,,,,,,,,0,,,92,88
19605,note_on,0,0,1,,,,,,,,,0,,,97,88
19605,note_on,15,0,1,,,,,,,,,0,,,99,0
19620,note_on,0,0,4,,,,,,,,,3,,,49,88
19620,note_on,0,0,1,,,,,,,,,0,,,92,0
19620,note_on,60,0,3,,,,,,,,,2,,,56,0
19620,note_on,0,0,1,,,,,,,,,0,,,85,88
19620,control_change,0,0,3,,,,,,,,,2,64,0,,
19620,note_on,0,0,3,,,,,,,,,2,,,53,0
19620,note_on,0,0,3,,,,,,,,,2,,,56,101
19620,control_change,114,0,4,,,,,,,,,3,64,0,,
19620,note_on,15,0,1,,,,,,,,,0,,,97,0
19620,note_on,0,0,3,,,,,,,,,2,,,53,101
19635,note_on,0,0,1,,,,,,,,,0,,,99,88
19635,note_on,15,0,1,,,,,,,,,0,,,85,0
19635,note_on,0,0,1,,,,,,,,,0,,,92,88
19650,note_on,15,0,1,,,,,,,,,0,,,99,0
19650,note_on,0,0,1,,,,,,,,,0,,,92,0
19650,note_on,0,0,1,,,,,,,,,0,,,97,88
19665,note_on,15,0,1,,,,,,,,,0,,,97,0
19665,control_change,0,0,1,,,,,,,,,0,64,0,,
19665,note_on,0,0,1,,,,,,,,,0,,,94,88
19680,control_change,0,0,4,,,,,,,,,3,64,127,,
19680,control_change,0,0,3,,,,,,,,,2,64,127,,
19680,note_on,0,0,3,,,,,,,,,2,,,48,101
19680,note_on,0,0,1,,,,,,,,,0,,,80,88
19680,control_change,0,0,1,,,,,,,,,0,64,127,,
19680,note_on,0,0,3,,,,,,,,,2,,,53,0
19680,note_on,0,0,3,,,,,,,,,2,,,54,101
19680,note_on,0,0,3,,,,,,,,,2,,,56,101
19680,note_on,60,0,4,,,,,,,,,3,,,49,0
19680,note_on,60,0,3,,,,,,,,,2,,,56,0
19680,note_on,15,0,1,,,,,,,,,0,,,94,0
19680,note_on,0,0,3,,,,,,,,,2,,,44,101
19695,note_on,0,0,1,,,,,,,,,0,,,87,88
19695,note_on,15,0,1,,,,,,,,,0,,,80,0
19695,note_on,0,0,1,,,,,,,,,0,,,92,88
19710,note_on,0,0,1,,,,,,,,,0,,,94,88
19710,note_on,0,0,1,,,,,,,,,0,,,87,0
19710,note_on,15,0,1,,,,,,,,,0,,,92,0
19725,note_on,0,0,1,,,,,,,,,0,,,87,88
19725,note_on,0,0,1,,,,,,,,,0,,,92,88
19725,note_on,15,0,1,,,,,,,,,0,,,94,0
19740,note_on,0,0,1,,,,,,,,,0,,,87,0
19740,note_on,0,0,1,,,,,,,,,0,,,80,88
19740,note_on,15,0,1,,,,,,,,,0,,,92,0
19740,note_on,60,0,4,,,,,,,,,3,,,32,88
19746,note_on,6,0,4,,,,,,,,,3,,,32,0
19755,note_on,15,0,1,,,,,,,,,0,,,80,0
19755,note_on,0,0,1,,,,,,,,,0,,,92,88
19755,note_on,0,0,1,,,,,,,,,0,,,87,88
19770,note_on,0,0,3,,,,,,,,,2,,,48,0
19770,note_on,0,0,3,,,,,,,,,2,,,48,101
19770,note_on,90,0,3,,,,,,,,,2,,,56,0
19770,note_on,0,0,3,,,,,,,,,2,,,54,101
19770,note_on,0,0,3,,,,,,,,,2,,,56,101
19770,note_on,0,0,3,,,,,,,,,2,,,44,0
19770,note_on,15,0,1,,,,,,,,,0,,,92,0
19770,note_on,0,0,1,,,,,,,,,0,,,94,88
19770,note_on,0,0,1,,,,,,,,,0,,,87,0
19770,note_on,0,0,3,,,,,,,,,2,,,44,101
19770,note_on,0,0,3,,,,,,,,,2,,,54,0
19785,note_on,0,0,1,,,,,,,,,0,,,92,88
19785,note_on,0,0,1,,,,,,,,,0,,,87,88
19785,note_on,15,0,1,,,,,,,,,0,,,94,0
19800,note_on,0,0,3,,,,,,,,,2,,,54,0
19800,note_on,0,0,3,,,,,,,,,2,,,56,114
19800,note_on,0,0,3,,,,,,,,,2,,,60,114
19800,note_on,0,0,1,,,,,,,,,0,,,87,0
19800,note_on,0,0,3,,,,,,,,,2,,,66,114
19800,note_on,0,0,3,,,,,,,,,2,,,44,0
19800,note_on,0,0,3,,,,,,,,,2,,,48,0
19800,note_on,30,0,3,,,,,,,,,2,,,56,0
19800,note_on,15,0,1,,,,,,,,,0,,,92,0
19800,note_on,0,0,1,,,,,,,,,0,,,80,88
19815,note_on,0,0,1,,,,,,,,,0,,,87,88
19815,note_on,0,0,1,,,,,,,,,0,,,92,88
19815,note_on,15,0,1,,,,,,,,,0,,,80,0
19830,note_on,15,0,1,,,,,,,,,0,,,92,0
19830,note_on,0,0,1,,,,,,,,,0,,,94,88
19830,note_on,0,0,1,,,,,,,,,0,,,87,0
19845,note_on,0,0,1,,,,,,,,,0,,,87,88
19845,note_on,0,0,1,,,,,,,,,0,,,92,88
19845,note_on,15,0,1,,,,,,,,,0,,,94,0
19860,note_on,0,0,3,,,,,,,,,2,,,56,0
19860,control_change,114,0,4,,,,,,,,,3,64,0,,
19860,control_change,0,0,3,,,,,,,,,2,64,0,,
19860,note_on,15,0,1,,,,,,,,,0,,,92,0
19860,note_on,0,0,3,,,,,,,,,2,,,60,101
19860,note_on,0,0,3,,,,,,,,,2,,,60,0
19860,end_of_track,0,1,4,,,,,,,,,,,,,
19860,note_on,60,0,3,,,,,,,,,2,,,66,0
19860,note_on,0,0,3,,,,,,,,,2,,,51,101
19860,note_on,0,0,1,,,,,,,,,0,,,87,0
19860,note_on,0,0,1,,,,,,,,,0,,,80,88
19860,note_on,0,0,3,,,,,,,,,2,,,54,101
19875,note_on,0,0,1,,,,,,,,,0,,,87,88
19875,note_on,15,0,1,,,,,,,,,0,,,80,0
19875,note_on,0,0,1,,,,,,,,,0,,,92,88
19890,note_on,0,0,1,,,,,,,,,0,,,87,0
19890,note_on,0,0,1,,,,,,,,,0,,,94,88
19890,note_on,15,0,1,,,,,,,,,0,,,92,0
19905,note_on,0,0,1,,,,,,,,,0,,,87,88
19905,control_change,0,0,1,,,,,,,,,0,64,0,,
19905,note_on,0,0,1,,,,,,,,,0,,,92,88
19905,note_on,15,0,1,,,,,,,,,0,,,94,0
19920,note_on,0,0,1,,,,,,,,,0,,,87,0
19920,control_change,0,0,1,,,,,,,,,0,64,127,,
19920,control_change,0,0,3,,,,,,,,,2,64,127,,
19920,note_on,15,0,1,,,,,,,,,0,,,92,0
19920,note_on,0,0,3,,,,,,,,,2,,,37,127
19920,note_on,0,0,3,,,,,,,,,2,,,51,0
19920,note_on,60,0,3,,,,,,,,,2,,,60,0
19920,note_on,0,0,3,,,,,,,,,2,,,54,0
19940,note_on,20,0,3,,,,,,,,,2,,,37,0
19940,note_on,0,0,3,,,,,,,,,2,,,44,101
19959,note_on,19,0,3,,,,,,,,,2,,,49,101
19960,note_on,1,0,3,,,,,,,,,2,,,44,0
19979,note_on,19,0,3,,,,,,,,,2,,,49,0
19980,note_on,60,0,1,,,,,,,,,0,,,53,88
19995,note_on,15,0,1,,,,,,,,,0,,,53,0
19995,note_on,0,0,1,,,,,,,,,0,,,56,88
20010,note_on,0,0,1,,,,,,,,,0,,,61,88
20010,note_on,15,0,1,,,,,,,,,0,,,56,0
20025,note_on,15,0,1,,,,,,,,,0,,,61,0
20025,note_on,0,0,1,,,,,,,,,0,,,65,88
20040,note_on,61,0,3,,,,,,,,,2,,,37,101
20040,note_on,0,0,1,,,,,,,,,0,,,77,88
20040,note_on,0,0,1,,,,,,,,,0,,,73,88
20040,note_on,15,0,1,,,,,,,,,0,,,65,0
20040,note_on,0,0,1,,,,,,,,,0,,,68,88
20046,note_on,6,0,1,,,,,,,,,0,,,77,0
20046,note_on,0,0,1,,,,,,,,,0,,,68,0
20046,note_on,0,0,1,,,,,,,,,0,,,73,0
20060,note_on,20,0,3,,,,,,,,,2,,,37,0
20060,note_on,0,0,3,,,,,,,,,2,,,44,101
20079,note_on,19,0,3,,,,,,,,,2,,,49,101
20080,note_on,1,0,3,,,,,,,,,2,,,44,0
20099,note_on,19,0,3,,,,,,,,,2,,,49,0
20100,note_on,54,0,1,,,,,,,,,0,,,65,88
20100,note_on,1,0,3,,,,,,,,,2,,,53,101
20100,note_on,0,0,1,,,,,,,,,0,,,73,88
20100,note_on,0,0,1,,,,,,,,,0,,,68,88
20106,note_on,6,0,1,,,,,,,,,0,,,73,0
20106,note_on,0,0,1,,,,,,,,,0,,,65,0
20106,note_on,0,0,1,,,,,,,,,0,,,68,0
20120,note_on,20,0,3,,,,,,,,,2,,,53,0
20120,note_on,0,0,3,,,,,,,,,2,,,54,101
20139,note_on,19,0,3,,,,,,,,,2,,,55,101
20140,note_on,1,0,3,,,,,,,,,2,,,54,0
20159,note_on,19,0,3,,,,,,,,,2,,,55,0
20160,note_on,1,0,3,,,,,,,,,2,,,56,49
20160,note_on,0,0,3,,,,,,,,,2,,,65,49
20166,note_on,6,0,3,,,,,,,,,2,,,65,0
20166,note_on,0,0,3,,,,,,,,,2,,,56,0
20180,note_on,74,0,1,,,,,,,,,0,,,65,49
20199,note_on,19,0,1,,,,,,,,,0,,,68,49
20200,note_on,1,0,1,,,,,,,,,0,,,65,0
20219,note_on,19,0,1,,,,,,,,,0,,,68,0
20220,note_on,1,0,1,,,,,,,,,0,,,73,49
20220,note_on,54,0,3,,,,,,,,,2,,,53,49
20220,note_on,0,0,1,,,,,,,,,0,,,77,49
20220,note_on,0,0,3,,,,,,,,,2,,,61,49
20226,note_on,0,0,3,,,,,,,,,2,,,53,0
20226,note_on,6,0,3,,,,,,,,,2,,,61,0
20240,note_on,20,0,1,,,,,,,,,0,,,77,0
20240,note_on,0,0,1,,,,,,,,,0,,,73,0
20240,note_on,0,0,1,,,,,,,,,0,,,77,49
20259,note_on,19,0,1,,,,,,,,,0,,,80,49
20260,note_on,1,0,1,,,,,,,,,0,,,77,0
20280,note_on,0,0,1,,,,,,,,,0,,,89,49
20280,note_on,20,0,1,,,,,,,,,0,,,85,49
20280,note_on,54,0,3,,,,,,,,,2,,,49,49
20300,note_on,0,0,3,,,,,,,,,2,,,56,49
20300,note_on,20,0,3,,,,,,,,,2,,,49,0
20319,note_on,19,0,3,,,,,,,,,2,,,61,49
20320,note_on,1,0,3,,,,,,,,,2,,,56,0
20339,note_on,59,0,1,,,,,,,,,0,,,80,0
20339,note_on,19,0,3,,,,,,,,,2,,,61,0
20340,note_on,0,0,1,,,,,,,,,0,,,85,0
20340,note_on,0,0,1,,,,,,,,,0,,,80,49
20340,note_on,1,0,1,,,,,,,,,0,,,89,0
20340,note_on,0,0,1,,,,,,,,,0,,,85,49
20340,note_on,1,0,3,,,,,,,,,2,,,65,49
20340,note_on,0,0,1,,,,,,,,,0,,,77,49
20360,note_on,0,0,3,,,,,,,,,2,,,66,49
20360,note_on,20,0,3,,,,,,,,,2,,,65,0
20379,note_on,19,0,3,,,,,,,,,2,,,67,49
20380,note_on,1,0,3,,,,,,,,,2,,,66,0
20399,note_on,19,0,3,,,,,,,,,2,,,67,0
20400,note_on,60,0,1,,,,,,,,,0,,,85,0
20400,note_on,0,0,3,,,,,,,,,2,,,77,49
20400,note_on,0,0,1,,,,,,,,,0,,,80,0
20400,note_on,0,0,1,,,,,,,,,0,,,77,0
20400,note_on,1,0,3,,,,,,,,,2,,,68,49
20406,note_on,6,0,3,,,,,,,,,2,,,77,0
20406,note_on,0,0,3,,,,,,,,,2,,,68,0
20420,note_on,20,0,1,,,,,,,,,0,,,77,49
20439,note_on,19,0,1,,,,,,,,,0,,,80,49
20440,note_on,1,0,1,,,,,,,,,0,,,77,0
20459,note_on,19,0,1,,,,,,,,,0,,,80,0
20460,note_on,0,0,3,,,,,,,,,2,,,73,49
20460,note_on,0,0,1,,,,,,,,,0,,,89,49
20460,note_on,1,0,1,,,,,,,,,0,,,85,49
20460,note_on,54,0,3,,,,,,,,,2,,,65,49
20466,note_on,0,0,3,,,,,,,,,2,,,65,0
20466,note_on,6,0,3,,,,,,,,,2,,,73,0
20480,note_on,20,0,1,,,,,,,,,0,,,89,0
20480,note_on,0,0,1,,,,,,,,,0,,,85,0
20480,note_on,0,0,1,,,,,,,,,0,,,89,49
20499,note_on,19,0,1,,,,,,,,,0,,,92,49
20500,note_on,1,0,1,,,,,,,,,0,,,89,0
20520,note_on,0,0,1,,,,,,,,,0,,,101,49
20520,note_on,20,0,1,,,,,,,,,0,,,97,49
20520,note_on,54,0,3,,,,,,,,,2,,,49,49
20525,note_on,5,0,1,,,,,,,,,0,,,92,0
20526,note_on,1,0,1,,,,,,,,,0,,,101,0
20526,note_on,0,0,1,,,,,,,,,0,,,97,0
20540,note_on,0,0,3,,,,,,,,,2,,,56,49
20540,note_on,20,0,3,,,,,,,,,2,,,49,0
20559,note_on,19,0,3,,,,,,,,,2,,,61,49
20560,note_on,1,0,3,,,,,,,,,2,,,56,0
20579,note_on,19,0,3,,,,,,,,,2,,,61,0
20580,note_on,54,0,1,,,,,,,,,0,,,89,49
20580,note_on,1,0,3,,,,,,,,,2,,,65,49
20580,note_on,0,0,1,,,,,,,,,0,,,97,49
20580,note_on,0,0,1,,,,,,,,,0,,,92,49
20586,note_on,6,0,1,,,,,,,,,0,,,97,0
20586,note_on,0,0,1,,,,,,,,,0,,,92,0
20586,note_on,0,0,1,,,,,,,,,0,,,89,0
20600,note_on,0,0,3,,,,,,,,,2,,,66,49
20600,note_on,20,0,3,,,,,,,,,2,,,65,0
20619,note_on,19,0,3,,,,,,,,,2,,,67,49
20620,note_on,1,0,3,,,,,,,,,2,,,66,0
20639,note_on,19,0,3,,,,,,,,,2,,,67,0
20640,note_on,1,0,3,,,,,,,,,2,,,68,36
20640,note_on,0,0,3,,,,,,,,,2,,,77,36
20646,note_on,6,0,3,,,,,,,,,2,,,77,0
20646,note_on,0,0,3,,,,,,,,,2,,,68,0
20660,note_on,74,0,1,,,,,,,,,0,,,77,36
20679,note_on,19,0,1,,,,,,,,,0,,,80,36
20680,note_on,1,0,1,,,,,,,,,0,,,77,0
20699,note_on,19,0,1,,,,,,,,,0,,,80,0
20700,note_on,0,0,3,,,,,,,,,2,,,73,36
20700,set_tempo,5370,1,0,,,,,,833333,,,,,,,
20700,note_on,54,0,3,,,,,,,,,2,,,65,36
20700,note_on,0,0,1,,,,,,,,,0,,,89,36
20700,note_on,1,0,1,,,,,,,,,0,,,85,36
20706,note_on,6,0,3,,,,,,,,,2,,,73,0
20706,note_on,0,0,3,,,,,,,,,2,,,65,0
20720,note_on,0,0,1,,,,,,,,,0,,,89,36
20720,note_on,0,0,1,,,,,,,,,0,,,85,0
20720,note_on,20,0,1,,,,,,,,,0,,,89,0
20739,note_on,19,0,1,,,,,,,,,0,,,92,36
20740,note_on,1,0,1,,,,,,,,,0,,,89,0
20760,set_tempo,60,1,0,,,,,,923077,,,,,,,
20760,note_on,54,0,3,,,,,,,,,2,,,49,36
20760,note_on,20,0,1,,,,,,,,,0,,,97,36
20760,note_on,0,0,1,,,,,,,,,0,,,101,36
20765,note_on,5,0,1,,,,,,,,,0,,,92,0
20766,note_on,0,0,1,,,,,,,,,0,,,97,0
20766,note_on,1,0,1,,,,,,,,,0,,,101,0
20780,note_on,20,0,3,,,,,,,,,2,,,49,0
20780,note_on,0,0,3,,,,,,,,,2,,,56,36
20799,note_on,19,0,3,,,,,,,,,2,,,61,36
20800,note_on,1,0,3,,,,,,,,,2,,,56,0
20819,note_on,19,0,3,,,,,,,,,2,,,61,0
20820,note_on,1,0,3,,,,,,,,,2,,,65,36
20820,set_tempo,60,1,0,,,,,,1016949,,,,,,,
20820,note_on,0,0,1,,,,,,,,,0,,,97,36
20820,note_on,0,0,1,,,,,,,,,0,,,92,36
20820,note_on,54,0,1,,,,,,,,,0,,,89,36
20826,note_on,0,0,1,,,,,,,,,0,,,92,0
20826,note_on,0,0,1,,,,,,,,,0,,,89,0
20826,note_on,6,0,1,,,,,,,,,0,,,97,0
20840,note_on,20,0,3,,,,,,,,,2,,,65,0
20840,note_on,0,0,3,,,,,,,,,2,,,66,36
20859,note_on,19,0,3,,,,,,,,,2,,,67,36
20860,note_on,1,0,3,,,,,,,,,2,,,66,0
20879,note_on,19,0,3,,,,,,,,,2,,,67,0
20880,note_on,0,0,3,,,,,,,,,2,,,77,36
20880,note_on,1,0,3,,,,,,,,,2,,,68,36
20880,set_tempo,60,1,0,,,,,,1153846,,,,,,,
20886,note_on,6,0,3,,,,,,,,,2,,,77,0
20886,note_on,0,0,3,,,,,,,,,2,,,68,0
20900,note_on,74,0,1,,,,,,,,,0,,,77,36
20919,note_on,19,0,1,,,,,,,,,0,,,80,36
20920,note_on,1,0,1,,,,,,,,,0,,,77,0
20939,note_on,19,0,1,,,,,,,,,0,,,80,0
20940,note_on,0,0,1,,,,,,,,,0,,,89,36
20940,note_on,54,0,3,,,,,,,,,2,,,65,36
20940,note_on,0,0,3,,,,,,,,,2,,,73,36
20940,note_on,1,0,1,,,,,,,,,0,,,85,36
20940,set_tempo,60,1,0,,,,,,1304348,,,,,,,
20946,note_on,0,0,3,,,,,,,,,2,,,65,0
20946,note_on,6,0,3,,,,,,,,,2,,,73,0
20960,note_on,0,0,1,,,,,,,,,0,,,89,36
20960,note_on,0,0,1,,,,,,,,,0,,,85,0
20960,note_on,20,0,1,,,,,,,,,0,,,89,0
20979,note_on,19,0,1,,,,,,,,,0,,,92,36
20980,note_on,1,0,1,,,,,,,,,0,,,89,0
21000,note_on,0,0,1,,,,,,,,,0,,,101,36
21000,set_tempo,60,1,0,,,,,,1538462,,,,,,,
21000,note_on,20,0,1,,,,,,,,,0,,,97,36
21005,note_on,5,0,1,,,,,,,,,0,,,92,0
21006,note_on,0,0,1,,,,,,,,,0,,,97,0
21006,note_on,1,0,1,,,,,,,,,0,,,101,0
21060,note_on,0,0,1,,,,,,,,,0,,,97,36
21060,note_on,0,0,1,,,,,,,,,0,,,92,36
21060,note_on,54,0,1,,,,,,,,,0,,,89,36
21060,set_tempo,60,1,0,,,,,,1818182,,,,,,,
21066,note_on,0,0,1,,,,,,,,,0,,,92,0
21066,note_on,0,0,1,,,,,,,,,0,,,89,0
21066,note_on,6,0,1,,,,,,,,,0,,,97,0
21120,control_change,174,0,3,,,,,,,,,2,64,0,,
21120,set_tempo,60,1,0,,,,,,845070,,,,,,,
21120,control_change,54,0,1,,,,,,,,,0,64,0,,
21120,control_change,6540,0,2,,,,,,,,,1,64,0,,
21330,note_on,210,0,1,,,,,,,,,0,,,65,62
21330,set_tempo,210,1,0,,,,,,769231,,,,,,,
21360,note_on,240,0,3,,,,,,,,,2,,,33,49
21360,note_on,30,0,1,,,,,,,,,0,,,65,0
21360,note_on,0,0,1,,,,,,,,,0,,,65,62
21366,note_on,6,0,3,,,,,,,,,2,,,33,0
21380,note_on,260,0,2,,,,,,,,,1,,,60,49
21399,note_on,19,0,2,,,,,,,,,1,,,63,49
21400,note_on,1,0,2,,,,,,,,,1,,,60,0
21419,note_on,19,0,2,,,,,,,,,1,,,63,0
21420,note_on,0,0,3,,,,,,,,,2,,,53,49
21420,note_on,60,0,1,,,,,,,,,0,,,65,0
21420,note_on,54,0,3,,,,,,,,,2,,,45,49
21420,note_on,0,0,1,,,,,,,,,0,,,65,62
21440,note_on,21,0,2,,,,,,,,,1,,,63,49
21459,note_on,19,0,2,,,,,,,,,1,,,60,49
21460,note_on,1,0,2,,,,,,,,,1,,,63,0
21479,note_on,19,0,2,,,,,,,,,1,,,60,0
21480,note_on,0,0,1,,,,,,,,,0,,,65,62
21480,note_on,0,0,1,,,,,,,,,0,,,72,62
21480,note_on,60,0,3,,,,,,,,,2,,,53,0
21480,note_on,0,0,3,,,,,,,,,2,,,45,0
21480,note_on,60,0,1,,,,,,,,,0,,,65,0
21480,note_on,0,0,1,,,,,,,,,0,,,63,62
21500,note_on,20,0,3,,,,,,,,,2,,,60,49
21519,note_on,19,0,3,,,,,,,,,2,,,53,49
21520,note_on,1,0,3,,,,,,,,,2,,,60,0
21539,note_on,19,0,3,,,,,,,,,2,,,53,0
21540,note_on,0,0,1,,,,,,,,,0,,,63,62
21540,note_on,0,0,1,,,,,,,,,0,,,63,0
21540,note_on,1,0,3,,,,,,,,,2,,,48,49
21540,note_on,60,0,1,,,,,,,,,0,,,72,0
21540,note_on,0,0,1,,,,,,,,,0,,,65,0
21540,note_on,0,0,1,,,,,,,,,0,,,65,62
21540,note_on,0,0,1,,,,,,,,,0,,,72,62
21560,note_on,0,0,3,,,,,,,,,2,,,53,49
21560,note_on,20,0,3,,,,,,,,,2,,,48,0
21579,note_on,19,0,3,,,,,,,,,2,,,60,49
21580,note_on,1,0,3,,,,,,,,,2,,,53,0
21599,note_on,19,0,3,,,,,,,,,2,,,60,0
21600,note_on,1,0,3,,,,,,,,,2,,,34,49
21600,note_on,60,0,1,,,,,,,,,0,,,72,0
21600,note_on,0,0,1,,,,,,,,,0,,,63,0
21600,note_on,0,0,1,,,,,,,,,0,,,73,62
21600,note_on,0,0,1,,,,,,,,,0,,,65,0
21620,note_on,141,0,2,,,,,,,,,1,,,61,49
21639,note_on,19,0,2,,,,,,,,,1,,,65,49
21640,note_on,1,0,2,,,,,,,,,1,,,61,0
21659,note_on,19,0,2,,,,,,,,,1,,,65,0
21660,note_on,0,0,3,,,,,,,,,2,,,53,49
21660,note_on,0,0,3,,,,,,,,,2,,,46,49
21660,note_on,1,0,2,,,,,,,,,1,,,66,49
21660,note_on,60,0,3,,,,,,,,,2,,,34,0
21680,note_on,0,0,2,,,,,,,,,1,,,65,49
21680,note_on,20,0,2,,,,,,,,,1,,,66,0
21699,note_on,19,0,2,,,,,,,,,1,,,61,49
21700,note_on,1,0,2,,,,,,,,,1,,,65,0
21719,note_on,19,0,2,,,,,,,,,1,,,61,0
21720,note_on,60,0,3,,,,,,,,,2,,,53,0
21720,note_on,0,0,1,,,,,,,,,0,,,70,62
21720,note_on,0,0,3,,,,,,,,,2,,,46,0
21720,note_on,0,0,1,,,,,,,,,0,,,65,62
21720,note_on,120,0,1,,,,,,,,,0,,,73,0
21740,note_on,20,0,3,,,,,,,,,2,,,61,49
21759,note_on,19,0,3,,,,,,,,,2,,,53,49
21760,note_on,1,0,3,,,,,,,,,2,,,61,0
21779,note_on,19,0,3,,,,,,,,,2,,,53,0
21780,note_on,1,0,3,,,,,,,,,2,,,49,49
21780,note_on,0,0,1,,,,,,,,,0,,,65,0
21780,note_on,60,0,1,,,,,,,,,0,,,70,0
21800,note_on,0,0,3,,,,,,,,,2,,,58,49
21800,note_on,20,0,3,,,,,,,,,2,,,49,0
21810,note_on,30,0,1,,,,,,,,,0,,,65,62
21819,note_on,19,0,3,,,,,,,,,2,,,53,49
21820,note_on,1,0,3,,,,,,,,,2,,,58,0
21839,note_on,19,0,3,,,,,,,,,2,,,53,0
21840,note_on,30,0,1,,,,,,,,,0,,,65,0
21840,note_on,1,0,3,,,,,,,,,2,,,33,49
21840,note_on,0,0,1,,,,,,,,,0,,,65,62
21860,note_on,141,0,2,,,,,,,,,1,,,60,49
21879,note_on,19,0,2,,,,,,,,,1,,,63,49
21880,note_on,1,0,2,,,,,,,,,1,,,60,0
21899,note_on,19,0,2,,,,,,,,,1,,,63,0
21900,note_on,60,0,3,,,,,,,,,2,,,33,0
21900,note_on,60,0,1,,,,,,,,,0,,,65,0
21900,note_on,0,0,1,,,,,,,,,0,,,65,62
21900,note_on,0,0,3,,,,,,,,,2,,,53,49
21900,note_on,0,0,3,,,,,,,,,2,,,45,49
21920,note_on,21,0,2,,,,,,,,,1,,,63,49
21939,note_on,19,0,2,,,,,,,,,1,,,60,49
21940,note_on,1,0,2,,,,,,,,,1,,,63,0
21959,note_on,19,0,2,,,,,,,,,1,,,60,0
21960,note_on,0,0,1,,,,,,,,,0,,,63,62
21960,note_on,0,0,1,,,,,,,,,0,,,65,62
21960,note_on,60,0,3,,,,,,,,,2,,,53,0
21960,note_on,60,0,1,,,,,,,,,0,,,65,0
21960,note_on,0,0,3,,,,,,,,,2,,,45,0
21980,note_on,20,0,3,,,,,,,,,2,,,60,49
21999,note_on,19,0,3,,,,,,,,,2,,,53,49
22000,note_on,1,0,3,,,,,,,,,2,,,60,0
22019,note_on,19,0,3,,,,,,,,,2,,,53,0
22020,note_on,1,0,3,,,,,,,,,2,,,45,49
22020,note_on,0,0,1,,,,,,,,,0,,,72,62
22020,note_on,60,0,1,,,,,,,,,0,,,65,0
22020,note_on,0,0,1,,,,,,,,,0,,,65,62
22020,note_on,0,0,1,,,,,,,,,0,,,63,62
22020,note_on,0,0,1,,,,,,,,,0,,,63,0
22040,note_on,0,0,3,,,,,,,,,2,,,53,49
22040,note_on,20,0,3,,,,,,,,,2,,,45,0
22059,note_on,19,0,3,,,,,,,,,2,,,60,49
22060,note_on,1,0,3,,,,,,,,,2,,,53,0
22079,note_on,19,0,3,,,,,,,,,2,,,60,0
22080,note_on,1,0,3,,,,,,,,,2,,,34,62
22080,note_on,0,0,1,,,,,,,,,0,,,73,75
22080,note_on,0,0,1,,,,,,,,,0,,,65,0
22080,note_on,60,0,1,,,,,,,,,0,,,72,0
22080,note_on,0,0,1,,,,,,,,,0,,,63,0
22100,note_on,141,0,2,,,,,,,,,1,,,61,62
22119,note_on,19,0,2,,,,,,,,,1,,,65,62
22120,note_on,1,0,2,,,,,,,,,1,,,61,0
22139,note_on,19,0,2,,,,,,,,,1,,,65,0
22140,note_on,1,0,2,,,,,,,,,1,,,66,62
22140,note_on,60,0,3,,,,,,,,,2,,,34,0
22140,note_on,0,0,3,,,,,,,,,2,,,53,62
22140,note_on,0,0,3,,,,,,,,,2,,,49,62
22160,note_on,0,0,2,,,,,,,,,1,,,65,62
22160,note_on,20,0,2,,,,,,,,,1,,,66,0
22179,note_on,19,0,2,,,,,,,,,1,,,61,62
22180,note_on,1,0,2,,,,,,,,,1,,,65,0
22199,note_on,19,0,2,,,,,,,,,1,,,61,0
22200,note_on,0,0,3,,,,,,,,,2,,,58,62
22200,note_on,60,0,3,,,,,,,,,2,,,53,0
22200,note_on,0,0,3,,,,,,,,,2,,,49,0
22220,note_on,0,0,3,,,,,,,,,2,,,53,62
22220,note_on,20,0,3,,,,,,,,,2,,,58,0
22239,note_on,19,0,3,,,,,,,,,2,,,49,62
22240,note_on,1,0,3,,,,,,,,,2,,,53,0
22259,note_on,19,0,3,,,,,,,,,2,,,49,0
22260,note_on,1,0,3,,,,,,,,,2,,,46,62
22280,note_on,20,0,3,,,,,,,,,2,,,46,0
22280,note_on,0,0,3,,,,,,,,,2,,,45,62
22299,note_on,19,0,3,,,,,,,,,2,,,44,62
22300,note_on,1,0,3,,,,,,,,,2,,,45,0
22319,note_on,19,0,3,,,,,,,,,2,,,44,0
22320,note_on,0,0,3,,,,,,,,,2,,,43,49
22320,note_on,240,0,1,,,,,,,,,0,,,73,0
22320,control_change,1,0,3,,,,,,,,,2,64,127,,
22320,control_change,0,0,1,,,,,,,,,0,64,127,,
22320,control_change,121,0,2,,,,,,,,,1,64,127,,
22340,note_on,0,0,3,,,,,,,,,2,,,58,49
22340,note_on,20,0,2,,,,,,,,,1,,,61,49
22340,note_on,20,0,3,,,,,,,,,2,,,43,0
22359,note_on,19,0,3,,,,,,,,,2,,,51,49
22359,note_on,19,0,2,,,,,,,,,1,,,63,49
22360,note_on,1,0,3,,,,,,,,,2,,,58,0
22360,note_on,1,0,2,,,,,,,,,1,,,61,0
22379,note_on,19,0,2,,,,,,,,,1,,,63,0
22379,note_on,19,0,3,,,,,,,,,2,,,51,0
22380,note_on,1,0,3,,,,,,,,,2,,,44,49
22380,note_on,60,0,1,,,,,,,,,0,,,73,62
22380,note_on,1,0,2,,,,,,,,,1,,,70,49
22400,note_on,20,0,3,,,,,,,,,2,,,44,0
22400,note_on,0,0,3,,,,,,,,,2,,,58,49
22400,note_on,20,0,2,,,,,,,,,1,,,70,0
22400,note_on,0,0,2,,,,,,,,,1,,,61,49
22419,note_on,19,0,2,,,,,,,,,1,,,64,49
22419,note_on,19,0,3,,,,,,,,,2,,,52,49
22420,note_on,1,0,3,,,,,,,,,2,,,58,0
22420,note_on,1,0,2,,,,,,,,,1,,,61,0
22439,note_on,19,0,3,,,,,,,,,2,,,52,0
22439,note_on,19,0,2,,,,,,,,,1,,,64,0
22440,note_on,1,0,2,,,,,,,,,1,,,70,49
22440,note_on,60,0,1,,,,,,,,,0,,,73,0
22440,note_on,0,0,1,,,,,,,,,0,,,73,62
22440,note_on,1,0,3,,,,,,,,,2,,,43,49
22460,note_on,0,0,3,,,,,,,,,2,,,58,49
22460,note_on,20,0,2,,,,,,,,,1,,,70,0
22460,note_on,0,0,2,,,,,,,,,1,,,73,49
22460,note_on,20,0,3,,,,,,,,,2,,,43,0
22479,note_on,19,0,2,,,,,,,,,1,,,75,49
22479,note_on,19,0,3,,,,,,,,,2,,,51,49
22480,note_on,1,0,3,,,,,,,,,2,,,58,0
22480,note_on,1,0,2,,,,,,,,,1,,,73,0
22499,note_on,19,0,2,,,,,,,,,1,,,75,0
22499,note_on,19,0,3,,,,,,,,,2,,,51,0
22500,note_on,0,0,1,,,,,,,,,0,,,85,62
22500,note_on,1,0,3,,,,,,,,,2,,,44,49
22500,note_on,1,0,2,,,,,,,,,1,,,82,49
22500,note_on,60,0,1,,,,,,,,,0,,,73,0
22520,note_on,20,0,3,,,,,,,,,2,,,44,0
22520,note_on,20,0,2,,,,,,,,,1,,,82,0
22520,note_on,0,0,3,,,,,,,,,2,,,58,49
22520,note_on,0,0,2,,,,,,,,,1,,,73,49
22539,note_on,19,0,3,,,,,,,,,2,,,52,49
22539,note_on,19,0,2,,,,,,,,,1,,,76,49
22540,note_on,1,0,2,,,,,,,,,1,,,73,0
22540,note_on,1,0,3,,,,,,,,,2,,,58,0
22559,note_on,19,0,3,,,,,,,,,2,,,52,0
22559,note_on,19,0,2,,,,,,,,,1,,,76,0
22560,note_on,0,0,1,,,,,,,,,0,,,85,75
22560,note_on,1,0,2,,,,,,,,,1,,,82,75
22560,note_on,1,0,3,,,,,,,,,2,,,43,75
22560,note_on,60,0,1,,,,,,,,,0,,,85,0
22580,note_on,0,0,3,,,,,,,,,2,,,58,75
22580,note_on,20,0,3,,,,,,,,,2,,,43,0
22580,note_on,20,0,2,,,,,,,,,1,,,82,0
22580,note_on,0,0,2,,,,,,,,,1,,,85,75
22599,note_on,19,0,2,,,,,,,,,1,,,87,75
22599,note_on,19,0,3,,,,,,,,,2,,,51,75
22600,note_on,1,0,3,,,,,,,,,2,,,58,0
22600,note_on,1,0,2,,,,,,,,,1,,,85,0
22619,note_on,19,0,2,,,,,,,,,1,,,87,0
22619,note_on,19,0,3,,,,,,,,,2,,,51,0
22620,note_on,1,0,3,,,,,,,,,2,,,44,75
22620,note_on,1,0,2,,,,,,,,,1,,,94,75
22620,note_on,0,0,1,,,,,,,,,0,,,97,75
22620,note_on,60,0,1,,,,,,,,,0,,,85,0
22640,note_on,20,0,2,,,,,,,,,1,,,94,0
22640,note_on,20,0,3,,,,,,,,,2,,,44,0
22640,note_on,0,0,2,,,,,,,,,1,,,85,75
22640,note_on,0,0,3,,,,,,,,,2,,,58,75
22659,note_on,19,0,3,,,,,,,,,2,,,52,75
22659,note_on,19,0,2,,,,,,,,,1,,,88,75
22660,note_on,1,0,3,,,,,,,,,2,,,58,0
22660,note_on,1,0,2,,,,,,,,,1,,,85,0
22679,note_on,19,0,3,,,,,,,,,2,,,52,0
22679,note_on,19,0,2,,,,,,,,,1,,,88,0
22680,note_on,60,0,1,,,,,,,,,0,,,97,0
22680,note_on,0,0,1,,,,,,,,,0,,,97,75
22680,note_on,1,0,3,,,,,,,,,2,,,43,75
22680,note_on,1,0,2,,,,,,,,,1,,,94,75
22700,note_on,0,0,2,,,,,,,,,1,,,85,75
22700,note_on,0,0,3,,,,,,,,,2,,,58,75
22700,note_on,20,0,3,,,,,,,,,2,,,43,0
22700,note_on,20,0,2,,,,,,,,,1,,,94,0
22719,note_on,19,0,2,,,,,,,,,1,,,87,75
22719,note_on,19,0,3,,,,,,,,,2,,,51,75
22720,note_on,1,0,3,,,,,,,,,2,,,58,0
22720,note_on,1,0,2,,,,,,,,,1,,,85,0
22739,note_on,19,0,2,,,,,,,,,1,,,87,0
22739,note_on,19,0,3,,,,,,,,,2,,,51,0
22740,control_change,0,0,1,,,,,,,,,0,64,0,,
22740,note_on,0,0,1,,,,,,,,,0,,,97,75
22740,note_on,60,0,1,,,,,,,,,0,,,97,0
22740,note_on,1,0,3,,,,,,,,,2,,,44,75
22740,note_on,1,0,2,,,,,,,,,1,,,94,75
22760,note_on,20,0,3,,,,,,,,,2,,,44,0
22760,note_on,20,0,2,,,,,,,,,1,,,94,0
22760,note_on,0,0,2,,,,,,,,,1,,,85,75
22760,note_on,0,0,3,,,,,,,,,2,,,58,75
22779,note_on,0,0,3,,,,,,,,,2,,,52,75
22779,note_on,0,0,2,,,,,,,,,1,,,88,75
22779,control_change,19,0,3,,,,,,,,,2,64,0,,
22779,control_change,19,0,2,,,,,,,,,1,64,0,,
22780,note_on,1,0,3,,,,,,,,,2,,,58,0
22780,note_on,1,0,2,,,,,,,,,1,,,85,0
22799,note_on,19,0,2,,,,,,,,,1,,,88,0
22799,note_on,19,0,3,,,,,,,,,2,,,52,0
22800,control_change,1,0,3,,,,,,,,,2,64,127,,
22800,note_on,0,0,1,,,,,,,,,0,,,94,88
22800,note_on,0,0,3,,,,,,,,,2,,,43,88
22800,note_on,0,0,1,,,,,,,,,0,,,97,88
22800,note_on,60,0,1,,,,,,,,,0,,,97,0
22800,control_change,0,0,1,,,,,,,,,0,64,127,,
22820,note_on,0,0,1,,,,,,,,,0,,,87,88
22820,note_on,20,0,3,,,,,,,,,2,,,43,0
22820,note_on,0,0,1,,,,,,,,,0,,,85,88
22820,note_on,0,0,3,,,,,,,,,2,,,51,88
22820,note_on,20,0,1,,,,,,,,,0,,,97,0
22820,note_on,0,0,1,,,,,,,,,0,,,94,0
22839,note_on,0,0,1,,,,,,,,,0,,,97,88
22839,note_on,19,0,3,,,,,,,,,2,,,58,88
22839,note_on,19,0,1,,,,,,,,,0,,,94,88
22840,note_on,1,0,3,,,,,,,,,2,,,51,0
22840,note_on,1,0,1,,,,,,,,,0,,,87,0
22840,note_on,0,0,1,,,,,,,,,0,,,85,0
22859,note_on,19,0,3,,,,,,,,,2,,,58,0
22859,note_on,19,0,1,,,,,,,,,0,,,94,0
22859,note_on,0,0,1,,,,,,,,,0,,,97,0
22860,note_on,0,0,1,,,,,,,,,0,,,87,88
22860,note_on,1,0,1,,,,,,,,,0,,,85,88
22860,note_on,1,0,3,,,,,,,,,2,,,63,88
22864,note_on,4,0,3,,,,,,,,,2,,,63,0
22880,note_on,20,0,1,,,,,,,,,0,,,87,0
22880,note_on,0,0,1,,,,,,,,,0,,,94,88
22880,note_on,0,0,1,,,,,,,,,0,,,85,0
22880,note_on,0,0,1,,,,,,,,,0,,,97,88
22890,note_on,26,0,3,,,,,,,,,2,,,58,88
22894,note_on,4,0,3,,,,,,,,,2,,,58,0
22899,note_on,19,0,1,,,,,,,,,0,,,85,88
22899,note_on,0,0,1,,,,,,,,,0,,,87,88
22900,note_on,0,0,1,,,,,,,,,0,,,94,0
22900,note_on,1,0,1,,,,,,,,,0,,,97,0
22919,note_on,19,0,1,,,,,,,,,0,,,85,0
22919,note_on,0,0,1,,,,,,,,,0,,,87,0
22920,note_on,26,0,3,,,,,,,,,2,,,70,88
22920,note_on,0,0,1,,,,,,,,,0,,,97,88
22920,note_on,1,0,1,,,,,,,,,0,,,94,88
22924,note_on,4,0,3,,,,,,,,,2,,,70,0
22940,note_on,20,0,1,,,,,,,,,0,,,97,0
22940,note_on,0,0,1,,,,,,,,,0,,,85,88
22940,note_on,0,0,1,,,,,,,,,0,,,87,88
22940,note_on,0,0,1,,,,,,,,,0,,,94,0
22950,note_on,26,0,3,,,,,,,,,2,,,63,88
22954,note_on,4,0,3,,,,,,,,,2,,,63,0
22959,note_on,19,0,1,,,,,,,,,0,,,94,88
22959,note_on,0,0,1,,,,,,,,,0,,,97,88
22960,note_on,0,0,1,,,,,,,,,0,,,85,0
22960,note_on,1,0,1,,,,,,,,,0,,,87,0
22979,note_on,0,0,1,,,,,,,,,0,,,97,0
22979,note_on,19,0,1,,,,,,,,,0,,,94,0
22980,note_on,1,0,1,,,,,,,,,0,,,85,88
22980,note_on,26,0,3,,,,,,,,,2,,,75,88
22980,note_on,0,0,1,,,,,,,,,0,,,87,88
22984,note_on,4,0,3,,,,,,,,,2,,,75,0
23000,note_on,0,0,1,,,,,,,,,0,,,94,88
23000,note_on,0,0,1,,,,,,,,,0,,,85,0
23000,note_on,20,0,1,,,,,,,,,0,,,87,0
23000,note_on,0,0,1,,,,,,,,,0,,,97,88
23010,note_on,0,0,3,,,,,,,,,2,,,70,88
23010,control_change,26,0,3,,,,,,,,,2,64,0,,
23014,note_on,4,0,3,,,,,,,,,2,,,70,0
23019,note_on,0,0,1,,,,,,,,,0,,,87,88
23019,note_on,0,0,1,,,,,,,,,0,,,85,88
23019,control_change,19,0,1,,,,,,,,,0,64,0,,
23020,note_on,0,0,1,,,,,,,,,0,,,94,0
23020,note_on,1,0,1,,,,,,,,,0,,,97,0
23039,note_on,0,0,1,,,,,,,,,0,,,87,0
23039,note_on,19,0,1,,,,,,,,,0,,,85,0
23040,note_on,0,0,3,,,,,,,,,2,,,82,114
23040,note_on,0,0,3,,,,,,,,,2,,,75,114
23040,note_on,1,0,1,,,,,,,,,0,,,94,114
23040,note_on,0,0,3,,,,,,,,,2,,,73,114
23040,note_on,0,0,1,,,,,,,,,0,,,97,114
23040,note_on,26,0,3,,,,,,,,,2,,,67,114
23055,note_on,15,0,1,,,,,,,,,0,,,97,0
23055,control_change,0,0,1,,,,,,,,,0,64,127,,
23055,note_on,0,0,1,,,,,,,,,0,,,94,0
23055,note_on,0,0,1,,,,,,,,,0,,,93,101
23070,note_on,15,0,1,,,,,,,,,0,,,93,0
23070,note_on,0,0,1,,,,,,,,,0,,,94,101
23085,note_on,0,0,1,,,,,,,,,0,,,95,101
23085,note_on,15,0,1,,,,,,,,,0,,,94,0
23100,note_on,15,0,1,,,,,,,,,0,,,95,0
23100,note_on,60,0,3,,,,,,,,,2,,,82,0
23100,note_on,0,0,3,,,,,,,,,2,,,67,0
23100,note_on,0,0,3,,,,,,,,,2,,,73,0
23100,note_on,0,0,3,,,,,,,,,2,,,75,0
23100,note_on,0,0,1,,,,,,,,,0,,,96,101
23115,note_on,0,0,1,,,,,,,,,0,,,92,101
23115,note_on,15,0,1,,,,,,,,,0,,,96,0
23130,note_on,15,0,1,,,,,,,,,0,,,92,0
23130,note_on,0,0,1,,,,,,,,,0,,,93,101
23145,note_on,15,0,1,,,,,,,,,0,,,93,0
23145,note_on,0,0,1,,,,,,,,,0,,,94,101
23160,note_on,0,0,1,,,,,,,,,0,,,95,101
23160,note_on,15,0,1,,,,,,,,,0,,,94,0
23175,note_on,15,0,1,,,,,,,,,0,,,95,0
23175,note_on,0,0,1,,,,,,,,,0,,,91,101
23190,note_on,0,0,1,,,,,,,,,0,,,92,101
23190,note_on,15,0,1,,,,,,,,,0,,,91,0
23205,note_on,15,0,1,,,,,,,,,0,,,92,0
23205,note_on,0,0,1,,,,,,,,,0,,,93,101
23220,note_on,15,0,1,,,,,,,,,0,,,93,0
23220,note_on,0,0,1,,,,,,,,,0,,,94,101
23235,note_on,0,0,1,,,,,,,,,0,,,90,101
23235,note_on,15,0,1,,,,,,,,,0,,,94,0
23250,note_on,15,0,1,,,,,,,,,0,,,90,0
23250,note_on,0,0,1,,,,,,,,,0,,,91,101
23265,note_on,15,0,1,,,,,,,,,0,,,91,0
23265,note_on,0,0,1,,,,,,,,,0,,,92,101
23280,note_on,0,0,1,,,,,,,,,0,,,93,101
23280,note_on,15,0,1,,,,,,,,,0,,,92,0
23295,note_on,0,0,1,,,,,,,,,0,,,89,101
23295,note_on,15,0,1,,,,,,,,,0,,,93,0
23310,note_on,0,0,1,,,,,,,,,0,,,90,101
23310,note_on,15,0,1,,,,,,,,,0,,,89,0
23325,note_on,0,0,1,,,,,,,,,0,,,91,101
23325,note_on,15,0,1,,,,,,,,,0,,,90,0
23340,note_on,0,0,1,,,,,,,,,0,,,92,101
23340,note_on,15,0,1,,,,,,,,,0,,,91,0
23355,note_on,0,0,1,,,,,,,,,0,,,88,101
23355,note_on,15,0,1,,,,,,,,,0,,,92,0
23370,note_on,0,0,1,,,,,,,,,0,,,89,101
23370,note_on,15,0,1,,,,,,,,,0,,,88,0
23385,note_on,0,0,1,,,,,,,,,0,,,90,101
23385,note_on,15,0,1,,,,,,,,,0,,,89,0
23400,note_on,15,0,1,,,,,,,,,0,,,90,0
23400,note_on,0,0,1,,,,,,,,,0,,,91,101
23415,note_on,15,0,1,,,,,,,,,0,,,91,0
23415,note_on,0,0,1,,,,,,,,,0,,,87,101
23430,note_on,15,0,1,,,,,,,,,0,,,87,0
23430,note_on,0,0,1,,,,,,,,,0,,,88,101
23445,note_on,15,0,1,,,,,,,,,0,,,88,0
23445,note_on,0,0,1,,,,,,,,,0,,,89,101
23460,note_on,15,0,1,,,,,,,,,0,,,89,0
23460,note_on,0,0,1,,,,,,,,,0,,,90,101
23475,note_on,15,0,1,,,,,,,,,0,,,90,0
23475,note_on,0,0,1,,,,,,,,,0,,,86,101
23490,note_on,0,0,1,,,,,,,,,0,,,87,101
23490,note_on,15,0,1,,,,,,,,,0,,,86,0
23505,note_on,0,0,1,,,,,,,,,0,,,88,101
23505,note_on,15,0,1,,,,,,,,,0,,,87,0
23520,note_on,0,0,1,,,,,,,,,0,,,87,88
23520,note_on,15,0,1,,,,,,,,,0,,,88,0
23535,note_on,0,0,1,,,,,,,,,0,,,83,88
23535,note_on,15,0,1,,,,,,,,,0,,,87,0
23550,note_on,0,0,1,,,,,,,,,0,,,84,88
23550,note_on,15,0,1,,,,,,,,,0,,,83,0
23565,note_on,0,0,1,,,,,,,,,0,,,85,88
23565,note_on,15,0,1,,,,,,,,,0,,,84,0
23580,note_on,15,0,1,,,,,,,,,0,,,85,0
23580,note_on,0,0,1,,,,,,,,,0,,,86,88
23595,note_on,15,0,1,,,,,,,,,0,,,86,0
23595,note_on,0,0,1,,,,,,,,,0,,,82,88
23610,note_on,15,0,1,,,,,,,,,0,,,82,0
23610,note_on,0,0,1,,,,,,,,,0,,,83,88
23625,note_on,0,0,1,,,,,,,,,0,,,84,88
23625,note_on,15,0,1,,,,,,,,,0,,,83,0
23640,note_on,0,0,1,,,,,,,,,0,,,85,88
23640,note_on,15,0,1,,,,,,,,,0,,,84,0
23655,note_on,0,0,1,,,,,,,,,0,,,81,88
23655,note_on,15,0,1,,,,,,,,,0,,,85,0
23670,note_on,0,0,1,,,,,,,,,0,,,82,88
23670,note_on,15,0,1,,,,,,,,,0,,,81,0
23685,note_on,15,0,1,,,,,,,,,0,,,82,0
23685,note_on,0,0,1,,,,,,,,,0,,,83,88
23700,note_on,15,0,1,,,,,,,,,0,,,83,0
23700,note_on,0,0,1,,,,,,,,,0,,,84,88
23715,note_on,0,0,1,,,,,,,,,0,,,80,88
23715,note_on,15,0,1,,,,,,,,,0,,,84,0
23730,note_on,15,0,1,,,,,,,,,0,,,80,0
23730,note_on,0,0,1,,,,,,,,,0,,,81,88
23745,note_on,0,0,1,,,,,,,,,0,,,82,88
23745,note_on,15,0,1,,,,,,,,,0,,,81,0
23760,note_on,0,0,1,,,,,,,,,0,,,83,88
23760,note_on,15,0,1,,,,,,,,,0,,,82,0
23775,note_on,15,0,1,,,,,,,,,0,,,83,0
23775,note_on,0,0,1,,,,,,,,,0,,,79,88
23790,note_on,15,0,1,,,,,,,,,0,,,79,0
23790,note_on,0,0,1,,,,,,,,,0,,,80,88
23805,note_on,15,0,1,,,,,,,,,0,,,80,0
23805,note_on,0,0,1,,,,,,,,,0,,,81,88
23820,note_on,0,0,1,,,,,,,,,0,,,82,88
23820,note_on,15,0,1,,,,,,,,,0,,,81,0
23835,note_on,0,0,1,,,,,,,,,0,,,78,88
23835,note_on,15,0,1,,,,,,,,,0,,,82,0
23850,note_on,0,0,1,,,,,,,,,0,,,79,88
23850,note_on,15,0,1,,,,,,,,,0,,,78,0
23865,note_on,15,0,1,,,,,,,,,0,,,79,0
23865,note_on,0,0,1,,,,,,,,,0,,,80,88
23880,note_on,15,0,1,,,,,,,,,0,,,80,0
23880,note_on,0,0,1,,,,,,,,,0,,,81,88
23895,note_on,0,0,1,,,,,,,,,0,,,77,88
23895,note_on,15,0,1,,,,,,,,,0,,,81,0
23910,note_on,0,0,1,,,,,,,,,0,,,78,88
23910,note_on,15,0,1,,,,,,,,,0,,,77,0
23925,note_on,0,0,1,,,,,,,,,0,,,79,88
23925,note_on,15,0,1,,,,,,,,,0,,,78,0
23940,note_on,0,0,1,,,,,,,,,0,,,80,88
23940,note_on,15,0,1,,,,,,,,,0,,,79,0
23955,note_on,0,0,1,,,,,,,,,0,,,76,88
23955,note_on,15,0,1,,,,,,,,,0,,,80,0
23970,note_on,0,0,1,,,,,,,,,0,,,77,88
23970,note_on,15,0,1,,,,,,,,,0,,,76,0
23985,note_on,15,0,1,,,,,,,,,0,,,77,0
23985,note_on,0,0,1,,,,,,,,,0,,,78,88
24000,note_on,15,0,1,,,,,,,,,0,,,78,0
24000,note_on,0,0,1,,,,,,,,,0,,,77,75
24015,note_on,0,0,1,,,,,,,,,0,,,73,75
24015,note_on,15,0,1,,,,,,,,,0,,,77,0
24030,note_on,0,0,1,,,,,,,,,0,,,74,75
24030,note_on,15,0,1,,,,,,,,,0,,,73,0
24045,note_on,15,0,1,,,,,,,,,0,,,74,0
24045,note_on,0,0,1,,,,,,,,,0,,,75,75
24060,note_on,15,0,1,,,,,,,,,0,,,75,0
24060,set_tempo,2730,1,0,,,,,,833333,,,,,,,
24060,note_on,0,0,1,,,,,,,,,0,,,76,75
24075,note_on,15,0,1,,,,,,,,,0,,,76,0
24075,note_on,0,0,1,,,,,,,,,0,,,72,75
24090,note_on,0,0,1,,,,,,,,,0,,,73,75
24090,note_on,15,0,1,,,,,,,,,0,,,72,0
24105,note_on,0,0,1,,,,,,,,,0,,,74,75
24105,note_on,15,0,1,,,,,,,,,0,,,73,0
24120,set_tempo,60,1,0,,,,,,923077,,,,,,,
24120,note_on,0,0,1,,,,,,,,,0,,,75,75
24120,note_on,15,0,1,,,,,,,,,0,,,74,0
24135,note_on,0,0,1,,,,,,,,,0,,,71,75
24135,note_on,15,0,1,,,,,,,,,0,,,75,0
24150,note_on,0,0,1,,,,,,,,,0,,,72,75
24150,note_on,15,0,1,,,,,,,,,0,,,71,0
24165,note_on,0,0,1,,,,,,,,,0,,,73,75
24165,note_on,15,0,1,,,,,,,,,0,,,72,0
24180,note_on,0,0,1,,,,,,,,,0,,,74,75
24180,note_on,15,0,1,,,,,,,,,0,,,73,0
24180,set_tempo,60,1,0,,,,,,1016949,,,,,,,
24195,note_on,15,0,1,,,,,,,,,0,,,74,0
24195,note_on,0,0,1,,,,,,,,,0,,,70,75
24210,note_on,0,0,1,,,,,,,,,0,,,71,75
24210,note_on,15,0,1,,,,,,,,,0,,,70,0
24225,note_on,15,0,1,,,,,,,,,0,,,71,0
24225,note_on,0,0,1,,,,,,,,,0,,,72,75
24240,note_on,0,0,1,,,,,,,,,0,,,73,62
24240,set_tempo,60,1,0,,,,,,1153846,,,,,,,
24240,note_on,15,0,1,,,,,,,,,0,,,72,0
24255,note_on,15,0,1,,,,,,,,,0,,,73,0
24255,note_on,0,0,1,,,,,,,,,0,,,69,62
24270,note_on,15,0,1,,,,,,,,,0,,,69,0
24270,note_on,0,0,1,,,,,,,,,0,,,70,62
24285,note_on,15,0,1,,,,,,,,,0,,,70,0
24285,note_on,0,0,1,,,,,,,,,0,,,71,62
24300,set_tempo,60,1,0,,,,,,1304348,,,,,,,
24300,note_on,0,0,1,,,,,,,,,0,,,72,62
24300,note_on,15,0,1,,,,,,,,,0,,,71,0
24315,note_on,15,0,1,,,,,,,,,0,,,72,0
24315,note_on,0,0,1,,,,,,,,,0,,,71,62
24330,note_on,0,0,1,,,,,,,,,0,,,70,62
24330,note_on,15,0,1,,,,,,,,,0,,,71,0
24345,note_on,15,0,1,,,,,,,,,0,,,70,0
24345,note_on,0,0,1,,,,,,,,,0,,,69,62
24345,control_change,0,0,1,,,,,,,,,0,64,0,,
24360,note_on,0,0,1,,,,,,,,,0,,,70,62
24360,note_on,15,0,1,,,,,,,,,0,,,69,0
24360,set_tempo,60,1,0,,,,,,1538462,,,,,,,
24364,note_on,4,0,1,,,,,,,,,0,,,70,0
24375,note_on,11,0,1,,,,,,,,,0,,,71,62
24379,note_on,4,0,1,,,,,,,,,0,,,71,0
24390,note_on,11,0,1,,,,,,,,,0,,,72,62
24394,note_on,4,0,1,,,,,,,,,0,,,72,0
24420,set_tempo,60,1,0,,,,,,1818182,,,,,,,
24420,note_on,26,0,1,,,,,,,,,0,,,73,62
24424,note_on,4,0,1,,,,,,,,,0,,,73,0
24450,note_on,26,0,1,,,,,,,,,0,,,74,62
24454,note_on,4,0,1,,,,,,,,,0,,,74,0
24480,note_on,26,0,1,,,,,,,,,0,,,75,88
24480,set_tempo,60,1,0,,,,,,845070,,,,,,,
24510,note_on,1711,0,2,,,,,,,,,1,,,63,49
24510,note_on,1410,0,3,,,,,,,,,2,,,55,49
24510,note_on,0,0,3,,,,,,,,,2,,,58,49
24510,note_on,0,0,3,,,,,,,,,2,,,61,49
24540,note_on,30,0,2,,,,,,,,,1,,,63,0
24540,note_on,30,0,3,,,,,,,,,2,,,61,0
24540,note_on,0,0,2,,,,,,,,,1,,,63,49
24540,note_on,0,0,3,,,,,,,,,2,,,58,49
24540,note_on,0,0,3,,,,,,,,,2,,,55,49
24540,note_on,0,0,3,,,,,,,,,2,,,58,0
24540,note_on,0,0,3,,,,,,,,,2,,,61,49
24540,note_on,0,0,3,,,,,,,,,2,,,55,0
24570,note_on,0,0,3,,,,,,,,,2,,,58,49
24570,note_on,0,0,2,,,,,,,,,1,,,63,49
24570,note_on,0,0,3,,,,,,,,,2,,,61,49
24570,note_on,30,0,3,,,,,,,,,2,,,61,0
24570,note_on,0,0,3,,,,,,,,,2,,,55,0
24570,note_on,0,0,3,,,,,,,,,2,,,55,49
24570,note_on,0,0,3,,,,,,,,,2,,,58,0
24570,note_on,30,0,2,,,,,,,,,1,,,63,0
24600,note_on,0,0,3,,,,,,,,,2,,,55,0
24600,note_on,30,0,2,,,,,,,,,1,,,63,0
24600,note_on,0,0,3,,,,,,,,,2,,,55,49
24600,note_on,0,0,3,,,,,,,,,2,,,58,0
24600,note_on,0,0,3,,,,,,,,,2,,,58,49
24600,note_on,0,0,2,,,,,,,,,1,,,63,49
24600,note_on,0,0,3,,,,,,,,,2,,,61,49
24600,note_on,30,0,3,,,,,,,,,2,,,61,0
24630,note_on,150,0,1,,,,,,,,,0,,,75,0
24630,note_on,0,0,1,,,,,,,,,0,,,70,62
24660,note_on,0,0,1,,,,,,,,,0,,,67,62
24660,note_on,60,0,3,,,,,,,,,2,,,61,0
24660,note_on,0,0,3,,,,,,,,,2,,,55,0
24660,note_on,30,0,1,,,,,,,,,0,,,70,0
24660,note_on,0,0,3,,,,,,,,,2,,,58,0
24660,note_on,60,0,2,,,,,,,,,1,,,63,0
24690,note_on,0,0,1,,,,,,,,,0,,,63,62
24690,note_on,30,0,1,,,,,,,,,0,,,67,0
24720,note_on,30,0,1,,,,,,,,,0,,,63,0
24720,note_on,0,0,1,,,,,,,,,0,,,72,62
24750,note_on,0,0,3,,,,,,,,,2,,,56,49
24750,note_on,90,0,2,,,,,,,,,1,,,60,49
24750,note_on,90,0,3,,,,,,,,,2,,,54,49
24750,note_on,0,0,2,,,,,,,,,1,,,63,49
24780,note_on,0,0,3,,,,,,,,,2,,,54,0
24780,note_on,0,0,2,,,,,,,,,1,,,60,0
24780,note_on,0,0,3,,,,,,,,,2,,,56,49
24780,note_on,0,0,3,,,,,,,,,2,,,54,49
24780,note_on,0,0,2,,,,,,,,,1,,,63,49
24780,note_on,30,0,3,,,,,,,,,2,,,56,0
24780,note_on,0,0,2,,,,,,,,,1,,,60,49
24780,note_on,30,0,2,,,,,,,,,1,,,63,0
24810,note_on,0,0,2,,,,,,,,,1,,,60,0
24810,note_on,0,0,2,,,,,,,,,1,,,60,49
24810,note_on,0,0,2,,,,,,,,,1,,,63,49
24810,note_on,0,0,3,,,,,,,,,2,,,56,49
24810,note_on,0,0,3,,,,,,,,,2,,,54,49
24810,note_on,0,0,3,,,,,,,,,2,,,54,0
24810,note_on,30,0,3,,,,,,,,,2,,,56,0
24810,note_on,30,0,2,,,,,,,,,1,,,63,0
24840,note_on,0,0,2,,,,,,,,,1,,,60,0
24840,note_on,0,0,2,,,,,,,,,1,,,60,49
24840,note_on,0,0,2,,,,,,,,,1,,,63,49
24840,note_on,0,0,3,,,,,,,,,2,,,54,49
24840,note_on,0,0,3,,,,,,,,,2,,,56,49
24840,note_on,30,0,2,,,,,,,,,1,,,63,0
24840,note_on,0,0,3,,,,,,,,,2,,,54,0
24840,note_on,120,0,1,,,,,,,,,0,,,72,0
24840,note_on,30,0,3,,,,,,,,,2,,,56,0
24900,note_on,0,0,3,,,,,,,,,2,,,54,0
24900,note_on,0,0,2,,,,,,,,,1,,,60,0
24900,note_on,60,0,2,,,,,,,,,1,,,63,0
24900,note_on,60,0,3,,,,,,,,,2,,,56,0
24900,note_on,60,0,1,,,,,,,,,0,,,68,62
24960,note_on,60,0,1,,,,,,,,,0,,,68,0
24960,note_on,0,0,1,,,,,,,,,0,,,73,88
24990,note_on,0,0,2,,,,,,,,,1,,,68,49
24990,note_on,0,0,3,,,,,,,,,2,,,56,49
24990,note_on,90,0,3,,,,,,,,,2,,,53,49
24990,note_on,90,0,2,,,,,,,,,1,,,61,49
25020,note_on,0,0,2,,,,,,,,,1,,,68,49
25020,note_on,30,0,3,,,,,,,,,2,,,56,0
25020,note_on,0,0,2,,,,,,,,,1,,,61,49
25020,note_on,0,0,3,,,,,,,,,2,,,56,49
25020,note_on,0,0,2,,,,,,,,,1,,,61,0
25020,note_on,0,0,3,,,,,,,,,2,,,53,0
25020,note_on,30,0,2,,,,,,,,,1,,,68,0
25020,note_on,0,0,3,,,,,,,,,2,,,53,49
25050,note_on,0,0,2,,,,,,,,,1,,,61,0
25050,note_on,30,0,2,,,,,,,,,1,,,68,0
25050,note_on,90,0,1,,,,,,,,,0,,,73,0
25050,note_on,0,0,1,,,,,,,,,0,,,73,62
25050,note_on,0,0,3,,,,,,,,,2,,,53,0
25050,note_on,30,0,3,,,,,,,,,2,,,56,0
25080,note_on,0,0,1,,,,,,,,,0,,,72,88
25080,note_on,30,0,1,,,,,,,,,0,,,73,0
25110,note_on,60,0,3,,,,,,,,,2,,,51,49
25110,note_on,0,0,2,,,,,,,,,1,,,68,49
25110,note_on,0,0,3,,,,,,,,,2,,,56,49
25110,note_on,60,0,2,,,,,,,,,1,,,60,49
25140,note_on,0,0,3,,,,,,,,,2,,,51,0
25140,note_on,0,0,2,,,,,,,,,1,,,60,0
25140,note_on,0,0,2,,,,,,,,,1,,,60,49
25140,note_on,0,0,2,,,,,,,,,1,,,68,49
25140,note_on,0,0,3,,,,,,,,,2,,,51,49
25140,note_on,0,0,3,,,,,,,,,2,,,56,49
25140,note_on,30,0,2,,,,,,,,,1,,,68,0
25140,note_on,30,0,3,,,,,,,,,2,,,56,0
25170,note_on,0,0,3,,,,,,,,,2,,,51,0
25170,note_on,30,0,2,,,,,,,,,1,,,68,0
25170,note_on,0,0,2,,,,,,,,,1,,,60,0
25170,note_on,30,0,3,,,,,,,,,2,,,56,0
25170,note_on,90,0,1,,,,,,,,,0,,,72,0
25170,note_on,0,0,1,,,,,,,,,0,,,72,62
25200,note_on,0,0,1,,,,,,,,,0,,,77,88
25200,note_on,30,0,1,,,,,,,,,0,,,72,0
25230,note_on,0,0,2,,,,,,,,,1,,,68,49
25230,note_on,60,0,3,,,,,,,,,2,,,50,49
25230,note_on,0,0,3,,,,,,,,,2,,,58,49
25230,note_on,60,0,2,,,,,,,,,1,,,65,49
25260,note_on,0,0,3,,,,,,,,,2,,,50,0
25260,note_on,0,0,3,,,,,,,,,2,,,50,49
25260,note_on,0,0,3,,,,,,,,,2,,,58,49
25260,note_on,60,0,1,,,,,,,,,0,,,77,0
25260,note_on,0,0,2,,,,,,,,,1,,,65,0
25260,note_on,0,0,2,,,,,,,,,1,,,65,49
25260,note_on,0,0,2,,,,,,,,,1,,,68,49
25260,note_on,30,0,3,,,,,,,,,2,,,58,0
25260,note_on,30,0,2,,,,,,,,,1,,,68,0
25260,note_on,0,0,1,,,,,,,,,0,,,70,62
25290,note_on,30,0,2,,,,,,,,,1,,,68,0
25290,note_on,0,0,2,,,,,,,,,1,,,65,0
25290,note_on,0,0,2,,,,,,,,,1,,,65,49
25290,note_on,0,0,2,,,,,,,,,1,,,68,49
25290,note_on,30,0,3,,,,,,,,,2,,,58,0
25290,note_on,0,0,3,,,,,,,,,2,,,50,0
25290,note_on,0,0,3,,,,,,,,,2,,,50,49
25290,note_on,0,0,3,,,,,,,,,2,,,58,49
25320,note_on,60,0,1,,,,,,,,,0,,,70,0
25320,note_on,30,0,3,,,,,,,,,2,,,58,0
25320,note_on,30,0,2,,,,,,,,,1,,,68,0
25320,note_on,0,0,3,,,,,,,,,2,,,50,0
25320,note_on,0,0,2,,,,,,,,,1,,,65,0
25380,note_on,0,0,3,,,,,,,,,2,,,58,49
25380,note_on,60,0,1,,,,,,,,,0,,,70,62
25380,note_on,60,0,3,,,,,,,,,2,,,49,49
25380,note_on,60,0,2,,,,,,,,,1,,,63,49
25380,note_on,0,0,3,,,,,,,,,2,,,55,49
25380,note_on,0,0,2,,,,,,,,,1,,,67,49
25410,note_on,30,0,2,,,,,,,,,1,,,67,0
25410,note_on,0,0,3,,,,,,,,,2,,,58,49
25410,note_on,30,0,3,,,,,,,,,2,,,58,0
25410,note_on,0,0,2,,,,,,,,,1,,,63,0
25410,note_on,0,0,3,,,,,,,,,2,,,55,0
25410,note_on,0,0,3,,,,,,,,,2,,,49,49
25410,note_on,0,0,3,,,,,,,,,2,,,49,0
25410,note_on,0,0,2,,,,,,,,,1,,,67,49
25410,note_on,0,0,3,,,,,,,,,2,,,55,49
25410,note_on,0,0,2,,,,,,,,,1,,,63,49
25440,note_on,60,0,1,,,,,,,,,0,,,70,0
25440,note_on,30,0,2,,,,,,,,,1,,,67,0
25440,note_on,0,0,3,,,,,,,,,2,,,55,0
25440,note_on,0,0,2,,,,,,,,,1,,,68,49
25440,note_on,0,0,3,,,,,,,,,2,,,49,0
25440,note_on,0,0,3,,,,,,,,,2,,,48,49
25440,note_on,30,0,3,,,,,,,,,2,,,58,0
25440,note_on,0,0,3,,,,,,,,,2,,,56,49
25440,note_on,0,0,2,,,,,,,,,1,,,63,0
25440,note_on,0,0,2,,,,,,,,,1,,,63,49
25440,note_on,0,0,1,,,,,,,,,0,,,75,75
25470,note_on,30,0,2,,,,,,,,,1,,,68,0
25470,note_on,30,0,3,,,,,,,,,2,,,56,0
25470,note_on,0,0,2,,,,,,,,,1,,,68,49
25470,note_on,0,0,2,,,,,,,,,1,,,63,0
25470,note_on,0,0,3,,,,,,,,,2,,,56,49
25470,note_on,0,0,3,,,,,,,,,2,,,48,49
25470,note_on,0,0,3,,,,,,,,,2,,,48,0
25470,note_on,0,0,2,,,,,,,,,1,,,63,49
25500,note_on,0,0,3,,,,,,,,,2,,,48,0
25500,note_on,0,0,3,,,,,,,,,2,,,48,49
25500,note_on,30,0,3,,,,,,,,,2,,,56,0
25500,note_on,30,0,2,,,,,,,,,1,,,68,0
25500,note_on,0,0,3,,,,,,,,,2,,,56,49
25500,note_on,0,0,2,,,,,,,,,1,,,68,49
25500,note_on,0,0,2,,,,,,,,,1,,,63,49
25500,note_on,0,0,2,,,,,,,,,1,,,63,0
25530,note_on,30,0,2,,,,,,,,,1,,,68,0
25530,note_on,0,0,2,,,,,,,,,1,,,68,49
25530,note_on,0,0,2,,,,,,,,,1,,,63,49
25530,note_on,0,0,2,,,,,,,,,1,,,63,0
25530,note_on,0,0,3,,,,,,,,,2,,,56,49
25530,note_on,0,0,3,,,,,,,,,2,,,48,0
25530,note_on,0,0,3,,,,,,,,,2,,,48,49
25530,note_on,30,0,3,,,,,,,,,2,,,56,0
25560,note_on,0,0,3,,,,,,,,,2,,,56,62
25560,note_on,0,0,2,,,,,,,,,1,,,63,62
25560,note_on,120,0,1,,,,,,,,,0,,,75,0
25560,note_on,30,0,2,,,,,,,,,1,,,68,0
25560,note_on,0,0,3,,,,,,,,,2,,,48,0
25560,note_on,30,0,3,,,,,,,,,2,,,56,0
25560,note_on,0,0,3,,,,,,,,,2,,,48,62
25560,note_on,0,0,2,,,,,,,,,1,,,68,62
25560,note_on,0,0,1,,,,,,,,,0,,,75,88
25560,note_on,0,0,2,,,,,,,,,1,,,63,0
25590,note_on,30,0,2,,,,,,,,,1,,,68,0
25590,note_on,0,0,3,,,,,,,,,2,,,48,62
25590,note_on,0,0,2,,,,,,,,,1,,,63,62
25590,note_on,0,0,2,,,,,,,,,1,,,68,62
25590,note_on,0,0,3,,,,,,,,,2,,,56,62
25590,note_on,30,0,3,,,,,,,,,2,,,56,0
25590,note_on,0,0,2,,,,,,,,,1,,,63,0
25590,note_on,0,0,3,,,,,,,,,2,,,48,0
25620,note_on,0,0,2,,,,,,,,,1,,,68,62
25620,note_on,0,0,2,,,,,,,,,1,,,64,62
25620,note_on,0,0,1,,,,,,,,,0,,,76,88
25620,note_on,30,0,3,,,,,,,,,2,,,56,0
25620,note_on,0,0,3,,,,,,,,,2,,,48,0
25620,note_on,0,0,2,,,,,,,,,1,,,63,0
25620,note_on,0,0,3,,,,,,,,,2,,,56,62
25620,note_on,60,0,1,,,,,,,,,0,,,75,0
25620,note_on,0,0,3,,,,,,,,,2,,,48,62
25620,note_on,30,0,2,,,,,,,,,1,,,68,0
25620,note_on,0,0,3,,,,,,,,,2,,,54,62
25650,note_on,30,0,2,,,,,,,,,1,,,68,0
25650,note_on,0,0,3,,,,,,,,,2,,,54,0
25650,note_on,0,0,3,,,,,,,,,2,,,48,62
25650,note_on,0,0,3,,,,,,,,,2,,,48,0
25650,note_on,0,0,2,,,,,,,,,1,,,64,62
25650,note_on,0,0,2,,,,,,,,,1,,,64,0
25650,note_on,0,0,2,,,,,,,,,1,,,68,62
25650,note_on,0,0,3,,,,,,,,,2,,,56,62
25650,note_on,30,0,3,,,,,,,,,2,,,56,0
25650,note_on,0,0,3,,,,,,,,,2,,,54,62
25680,note_on,0,0,3,,,,,,,,,2,,,53,62
25680,note_on,30,0,2,,,,,,,,,1,,,68,0
25680,note_on,0,0,3,,,,,,,,,2,,,56,62
25680,note_on,30,0,3,,,,,,,,,2,,,56,0
25680,note_on,0,0,1,,,,,,,,,0,,,77,88
25680,note_on,0,0,2,,,,,,,,,1,,,64,0
25680,note_on,0,0,2,,,,,,,,,1,,,65,62
25680,note_on,0,0,2,,,,,,,,,1,,,68,62
25680,note_on,0,0,3,,,,,,,,,2,,,54,0
25680,note_on,0,0,3,,,,,,,,,2,,,48,0
25680,note_on,60,0,1,,,,,,,,,0,,,76,0
25680,note_on,0,0,3,,,,,,,,,2,,,49,62
25710,note_on,0,0,2,,,,,,,,,1,,,68,62
25710,note_on,0,0,3,,,,,,,,,2,,,56,62
25710,note_on,0,0,3,,,,,,,,,2,,,53,62
25710,note_on,0,0,3,,,,,,,,,2,,,53,0
25710,note_on,0,0,2,,,,,,,,,1,,,65,0
25710,note_on,30,0,3,,,,,,,,,2,,,56,0
25710,note_on,0,0,3,,,,,,,,,2,,,49,62
25710,note_on,30,0,2,,,,,,,,,1,,,68,0
25710,note_on,0,0,3,,,,,,,,,2,,,49,0
25710,note_on,0,0,2,,,,,,,,,1,,,65,62
25740,note_on,30,0,2,,,,,,,,,1,,,68,0
25740,note_on,0,0,3,,,,,,,,,2,,,56,62
25740,note_on,30,0,3,,,,,,,,,2,,,56,0
25740,note_on,60,0,1,,,,,,,,,0,,,77,0
25740,note_on,0,0,1,,,,,,,,,0,,,73,88
25740,note_on,0,0,3,,,,,,,,,2,,,53,0
25740,note_on,0,0,3,,,,,,,,,2,,,49,0
25740,note_on,0,0,3,,,,,,,,,2,,,41,62
25740,set_tempo,1260,1,0,,,,,,1016949,,,,,,,
25740,note_on,0,0,2,,,,,,,,,1,,,61,62
25740,note_on,0,0,2,,,,,,,,,1,,,65,0
25740,note_on,0,0,2,,,,,,,,,1,,,68,62
25770,note_on,30,0,2,,,,,,,,,1,,,68,0
25770,note_on,0,0,2,,,,,,,,,1,,,68,62
25770,note_on,0,0,3,,,,,,,,,2,,,56,62
25770,note_on,0,0,2,,,,,,,,,1,,,61,62
25770,note_on,0,0,3,,,,,,,,,2,,,41,62
25770,note_on,0,0,3,,,,,,,,,2,,,41,0
25770,note_on,0,0,2,,,,,,,,,1,,,61,0
25770,note_on,30,0,3,,,,,,,,,2,,,56,0
25800,note_on,0,0,3,,,,,,,,,2,,,56,62
25800,note_on,0,0,1,,,,,,,,,0,,,72,75
25800,set_tempo,60,1,0,,,,,,1276596,,,,,,,
25800,note_on,0,0,2,,,,,,,,,1,,,60,62
25800,note_on,0,0,2,,,,,,,,,1,,,61,0
25800,note_on,30,0,2,,,,,,,,,1,,,68,0
25800,note_on,30,0,3,,,,,,,,,2,,,56,0
25800,note_on,0,0,3,,,,,,,,,2,,,51,62
25800,note_on,0,0,2,,,,,,,,,1,,,68,62
25800,note_on,0,0,3,,,,,,,,,2,,,44,62
25800,note_on,0,0,3,,,,,,,,,2,,,41,0
25800,note_on,60,0,1,,,,,,,,,0,,,73,0
25830,note_on,0,0,3,,,,,,,,,2,,,44,62
25830,note_on,0,0,2,,,,,,,,,1,,,60,0
25830,note_on,0,0,2,,,,,,,,,1,,,60,62
25830,note_on,0,0,2,,,,,,,,,1,,,68,62
25830,note_on,30,0,2,,,,,,,,,1,,,68,0
25830,note_on,0,0,3,,,,,,,,,2,,,44,0
25830,note_on,0,0,3,,,,,,,,,2,,,56,62
25830,note_on,0,0,3,,,,,,,,,2,,,51,62
25830,note_on,0,0,3,,,,,,,,,2,,,51,0
25830,note_on,30,0,3,,,,,,,,,2,,,56,0
25860,note_on,30,0,2,,,,,,,,,1,,,68,0
25860,note_on,30,0,3,,,,,,,,,2,,,56,0
25860,note_on,0,0,3,,,,,,,,,2,,,56,62
25860,set_tempo,60,1,0,,,,,,1714286,,,,,,,
25860,note_on,60,0,1,,,,,,,,,0,,,72,0
25860,note_on,0,0,3,,,,,,,,,2,,,44,0
25860,note_on,0,0,3,,,,,,,,,2,,,44,62
25860,note_on,0,0,2,,,,,,,,,1,,,66,62
25860,note_on,0,0,3,,,,,,,,,2,,,51,0
25860,note_on,0,0,2,,,,,,,,,1,,,60,0
25860,note_on,0,0,2,,,,,,,,,1,,,60,62
25860,note_on,0,0,1,,,,,,,,,0,,,75,75
25890,note_on,30,0,3,,,,,,,,,2,,,56,0
25890,note_on,0,0,2,,,,,,,,,1,,,66,62
25890,note_on,0,0,3,,,,,,,,,2,,,44,0
25890,note_on,0,0,2,,,,,,,,,1,,,60,0
25890,note_on,0,0,3,,,,,,,,,2,,,44,62
25890,note_on,0,0,3,,,,,,,,,2,,,56,62
25890,note_on,30,0,2,,,,,,,,,1,,,66,0
25890,note_on,0,0,2,,,,,,,,,1,,,60,62
25920,note_on,0,0,2,,,,,,,,,1,,,60,0
25920,note_on,0,0,2,,,,,,,,,1,,,61,49
25920,note_on,0,0,3,,,,,,,,,2,,,49,75
25920,note_on,0,0,2,,,,,,,,,1,,,65,49
25920,control_change,0,0,3,,,,,,,,,2,64,127,,
25920,note_on,0,0,3,,,,,,,,,2,,,44,0
25920,note_on,30,0,2,,,,,,,,,1,,,66,0
25920,set_tempo,60,1,0,,,,,,3157895,,,,,,,
25920,note_on,0,0,3,,,,,,,,,2,,,37,67
25920,note_on,60,0,1,,,,,,,,,0,,,75,0
25920,note_on,30,0,3,,,,,,,,,2,,,56,0
25920,note_on,0,0,1,,,,,,,,,0,,,73,62
25923,set_tempo,3,1,0,,,,,,1034483,,,,,,,
25940,note_on,0,0,3,,,,,,,,,2,,,37,0
25940,note_on,20,0,3,,,,,,,,,2,,,49,0
25940,note_on,0,0,3,,,,,,,,,2,,,49,49
25959,note_on,19,0,3,,,,,,,,,2,,,56,49
25960,note_on,1,0,3,,,,,,,,,2,,,49,0
25979,note_on,19,0,3,,,,,,,,,2,,,56,0
25980,set_tempo,57,1,0,,,,,,1304348,,,,,,,
25980,note_on,0,0,2,,,,,,,,,1,,,61,0
25980,note_on,60,0,2,,,,,,,,,1,,,65,0
25980,note_on,1,0,3,,,,,,,,,2,,,53,49
26000,note_on,20,0,3,,,,,,,,,2,,,53,0
26000,note_on,0,0,3,,,,,,,,,2,,,61,49
26019,note_on,19,0,3,,,,,,,,,2,,,56,49
26020,note_on,1,0,3,,,,,,,,,2,,,61,0
26039,note_on,19,0,3,,,,,,,,,2,,,56,0
26040,control_change,60,0,2,,,,,,,,,1,64,127,,
26040,set_tempo,60,1,0,,,,,,1764706,,,,,,,
26040,note_on,120,0,1,,,,,,,,,0,,,73,0
26040,note_on,1,0,3,,,,,,,,,2,,,61,49
26040,note_on,0,0,3,,,,,,,,,2,,,65,49
26044,set_tempo,4,1,0,,,,,,1034483,,,,,,,
26060,note_on,20,0,2,,,,,,,,,1,,,68,49
26079,note_on,19,0,2,,,,,,,,,1,,,77,49
26080,note_on,1,0,2,,,,,,,,,1,,,68,0
26099,note_on,19,0,2,,,,,,,,,1,,,77,0
26100,set_tempo,56,1,0,,,,,,1304348,,,,,,,
26100,note_on,60,0,3,,,,,,,,,2,,,65,0
26100,note_on,60,0,1,,,,,,,,,0,,,85,62
26100,control_change,0,0,3,,,,,,,,,2,64,0,,
26100,note_on,1,0,2,,,,,,,,,1,,,73,49
26100,note_on,0,0,3,,,,,,,,,2,,,61,49
26100,note_on,0,0,3,,,,,,,,,2,,,61,0
26100,note_on,0,0,3,,,,,,,,,2,,,56,49
26120,note_on,0,0,2,,,,,,,,,1,,,80,49
26120,note_on,20,0,2,,,,,,,,,1,,,73,0
26130,note_on,30,0,3,,,,,,,,,2,,,61,0
26130,note_on,0,0,3,,,,,,,,,2,,,56,0
26139,control_change,19,0,2,,,,,,,,,1,64,0,,
26139,note_on,0,0,2,,,,,,,,,1,,,77,49
26140,note_on,1,0,2,,,,,,,,,1,,,80,0
26159,note_on,19,0,2,,,,,,,,,1,,,77,0
26160,note_on,0,0,3,,,,,,,,,2,,,54,75
26160,control_change,30,0,3,,,,,,,,,2,64,127,,
26160,note_on,0,0,1,,,,,,,,,0,,,73,62
26160,note_on,0,0,1,,,,,,,,,0,,,70,62
26160,set_tempo,60,1,0,,,,,,1428571,,,,,,,
26160,note_on,0,0,3,,,,,,,,,2,,,42,67
26160,note_on,60,0,1,,,,,,,,,0,,,85,0
26160,control_change,0,0,1,,,,,,,,,0,64,127,,
26160,note_on,0,0,1,,,,,,,,,0,,,82,62
26180,note_on,20,0,3,,,,,,,,,2,,,54,0
26180,note_on,0,0,3,,,,,,,,,2,,,49,49
26180,note_on,0,0,3,,,,,,,,,2,,,42,0
26199,note_on,19,0,3,,,,,,,,,2,,,58,49
26200,note_on,1,0,3,,,,,,,,,2,,,49,0
26219,note_on,19,0,3,,,,,,,,,2,,,58,0
26220,note_on,1,0,3,,,,,,,,,2,,,54,49
26220,note_on,60,0,1,,,,,,,,,0,,,82,0
26220,note_on,0,0,1,,,,,,,,,0,,,70,0
26220,note_on,0,0,1,,,,,,,,,0,,,70,62
26220,note_on,0,0,1,,,,,,,,,0,,,73,0
26220,note_on,0,0,1,,,,,,,,,0,,,73,62
26220,note_on,0,0,1,,,,,,,,,0,,,82,62
26240,note_on,20,0,3,,,,,,,,,2,,,54,0
26240,note_on,0,0,3,,,,,,,,,2,,,61,49
26259,note_on,19,0,3,,,,,,,,,2,,,58,49
26260,note_on,1,0,3,,,,,,,,,2,,,61,0
26279,note_on,19,0,3,,,,,,,,,2,,,58,0
26280,note_on,1,0,3,,,,,,,,,2,,,61,49
26280,control_change,121,0,2,,,,,,,,,1,64,127,,
26280,note_on,0,0,3,,,,,,,,,2,,,70,49
26280,note_on,0,0,3,,,,,,,,,2,,,66,49
26280,note_on,0,0,1,,,,,,,,,0,,,82,62
26280,note_on,0,0,1,,,,,,,,,0,,,73,0
26280,note_on,0,0,1,,,,,,,,,0,,,70,0
26280,note_on,60,0,1,,,,,,,,,0,,,82,0
26300,note_on,20,0,2,,,,,,,,,1,,,70,49
26319,note_on,19,0,2,,,,,,,,,1,,,78,49
26320,note_on,1,0,2,,,,,,,,,1,,,70,0
26339,note_on,19,0,2,,,,,,,,,1,,,78,0
26340,control_change,0,0,3,,,,,,,,,2,64,0,,
26340,note_on,0,0,3,,,,,,,,,2,,,66,0
26340,note_on,0,0,3,,,,,,,,,2,,,66,49
26340,note_on,0,0,3,,,,,,,,,2,,,61,0
26340,note_on,0,0,3,,,,,,,,,2,,,61,49
26340,note_on,0,0,3,,,,,,,,,2,,,58,49
26340,note_on,60,0,3,,,,,,,,,2,,,70,0
26340,note_on,1,0,2,,,,,,,,,1,,,73,49
26340,control_change,0,0,1,,,,,,,,,0,64,0,,
26340,note_on,60,0,1,,,,,,,,,0,,,82,0
26340,note_on,0,0,1,,,,,,,,,0,,,85,62
26360,note_on,20,0,2,,,,,,,,,1,,,73,0
26360,note_on,0,0,2,,,,,,,,,1,,,82,49
26370,note_on,0,0,3,,,,,,,,,2,,,58,0
26370,note_on,0,0,3,,,,,,,,,2,,,61,0
26370,note_on,30,0,3,,,,,,,,,2,,,66,0
26379,control_change,19,0,2,,,,,,,,,1,64,0,,
26379,note_on,0,0,2,,,,,,,,,1,,,78,49
26380,note_on,1,0,2,,,,,,,,,1,,,82,0
26399,note_on,19,0,2,,,,,,,,,1,,,78,0
26400,note_on,0,0,1,,,,,,,,,0,,,77,62
26400,note_on,0,0,3,,,,,,,,,2,,,49,75
26400,note_on,60,0,1,,,,,,,,,0,,,85,0
26400,note_on,0,0,3,,,,,,,,,2,,,37,67
26400,control_change,0,0,1,,,,,,,,,0,64,127,,
26400,control_change,1,0,2,,,,,,,,,1,64,127,,
26400,note_on,0,0,1,,,,,,,,,0,,,85,62
26400,note_on,0,0,1,,,,,,,,,0,,,73,62
26400,control_change,30,0,3,,,,,,,,,2,64,127,,
26420,note_on,0,0,3,,,,,,,,,2,,,37,0
26420,note_on,0,0,3,,,,,,,,,2,,,49,49
26420,note_on,20,0,3,,,,,,,,,2,,,49,0
26439,note_on,19,0,3,,,,,,,,,2,,,56,49
26440,note_on,1,0,3,,,,,,,,,2,,,49,0
26459,note_on,19,0,3,,,,,,,,,2,,,56,0
26460,note_on,1,0,3,,,,,,,,,2,,,53,49
26480,note_on,20,0,3,,,,,,,,,2,,,53,0
26480,note_on,0,0,3,,,,,,,,,2,,,61,49
26499,note_on,19,0,3,,,,,,,,,2,,,56,49
26500,note_on,1,0,3,,,,,,,,,2,,,61,0
26519,note_on,19,0,3,,,,,,,,,2,,,56,0
26520,note_on,0,0,3,,,,,,,,,2,,,68,49
26520,note_on,0,0,1,,,,,,,,,0,,,77,0
26520,note_on,0,0,1,,,,,,,,,0,,,73,0
26520,note_on,120,0,1,,,,,,,,,0,,,85,0
26520,note_on,1,0,3,,,,,,,,,2,,,61,49
26520,note_on,0,0,3,,,,,,,,,2,,,65,49
26520,control_change,120,0,2,,,,,,,,,1,64,127,,
26520,note_on,0,0,1,,,,,,,,,0,,,80,62
26540,note_on,20,0,2,,,,,,,,,1,,,68,49
26559,note_on,19,0,2,,,,,,,,,1,,,73,49
26560,note_on,1,0,2,,,,,,,,,1,,,68,0
26579,note_on,19,0,2,,,,,,,,,1,,,73,0
26580,note_on,1,0,2,,,,,,,,,1,,,68,49
26580,note_on,0,0,3,,,,,,,,,2,,,65,49
26580,note_on,0,0,3,,,,,,,,,2,,,56,49
26580,note_on,0,0,3,,,,,,,,,2,,,65,0
26580,note_on,0,0,1,,,,,,,,,0,,,80,62
26580,note_on,60,0,3,,,,,,,,,2,,,68,0
26580,note_on,0,0,3,,,,,,,,,2,,,61,0
26580,note_on,0,0,3,,,,,,,,,2,,,61,49
26580,control_change,0,0,1,,,,,,,,,0,64,0,,
26580,control_change,0,0,3,,,,,,,,,2,64,0,,
26580,note_on,60,0,1,,,,,,,,,0,,,80,0
26600,note_on,0,0,2,,,,,,,,,1,,,77,49
26600,note_on,20,0,2,,,,,,,,,1,,,68,0
26610,note_on,30,0,3,,,,,,,,,2,,,65,0
26610,note_on,0,0,3,,,,,,,,,2,,,56,0
26610,note_on,0,0,3,,,,,,,,,2,,,61,0
26619,control_change,19,0,2,,,,,,,,,1,64,0,,
26619,note_on,0,0,2,,,,,,,,,1,,,73,49
26620,note_on,1,0,2,,,,,,,,,1,,,77,0
26639,note_on,19,0,2,,,,,,,,,1,,,73,0
26640,control_change,0,0,1,,,,,,,,,0,64,127,,
26640,control_change,30,0,3,,,,,,,,,2,64,127,,
26640,note_on,0,0,3,,,,,,,,,2,,,44,49
26640,note_on,0,0,1,,,,,,,,,0,,,72,62
26640,note_on,60,0,1,,,,,,,,,0,,,80,0
26640,control_change,1,0,2,,,,,,,,,1,64,127,,
26640,note_on,0,0,1,,,,,,,,,0,,,68,62
26640,note_on,0,0,3,,,,,,,,,2,,,32,49
26640,note_on,0,0,1,,,,,,,,,0,,,78,62
26640,note_on,0,0,1,,,,,,,,,0,,,80,62
26660,note_on,20,0,3,,,,,,,,,2,,,44,0
26660,note_on,0,0,3,,,,,,,,,2,,,51,49
26660,note_on,0,0,3,,,,,,,,,2,,,32,0
26679,note_on,19,0,3,,,,,,,,,2,,,56,49
26680,note_on,1,0,3,,,,,,,,,2,,,51,0
26699,note_on,19,0,3,,,,,,,,,2,,,56,0
26700,note_on,1,0,3,,,,,,,,,2,,,54,49
26720,note_on,20,0,3,,,,,,,,,2,,,54,0
26720,note_on,0,0,3,,,,,,,,,2,,,63,49
26730,note_on,90,0,1,,,,,,,,,0,,,80,0
26730,note_on,0,0,1,,,,,,,,,0,,,80,62
26730,note_on,0,0,1,,,,,,,,,0,,,78,0
26730,note_on,0,0,1,,,,,,,,,0,,,72,0
26730,note_on,0,0,1,,,,,,,,,0,,,68,62
26730,note_on,0,0,1,,,,,,,,,0,,,68,0
26739,note_on,19,0,3,,,,,,,,,2,,,56,49
26740,note_on,1,0,3,,,,,,,,,2,,,63,0
26759,note_on,19,0,3,,,,,,,,,2,,,56,0
26760,note_on,0,0,3,,,,,,,,,2,,,75,49
26760,note_on,0,0,3,,,,,,,,,2,,,68,49
26760,note_on,0,0,1,,,,,,,,,0,,,68,0
26760,control_change,120,0,2,,,,,,,,,1,64,127,,
26760,note_on,0,0,1,,,,,,,,,0,,,87,62
26760,note_on,1,0,3,,,,,,,,,2,,,66,49
26760,note_on,30,0,1,,,,,,,,,0,,,80,0
26780,note_on,20,0,2,,,,,,,,,1,,,75,49
26799,note_on,19,0,2,,,,,,,,,1,,,78,49
26800,note_on,1,0,2,,,,,,,,,1,,,75,0
26819,note_on,19,0,2,,,,,,,,,1,,,78,0
26820,note_on,0,0,3,,,,,,,,,2,,,68,49
26820,note_on,0,0,3,,,,,,,,,2,,,66,49
26820,control_change,0,0,1,,,,,,,,,0,64,0,,
26820,note_on,60,0,3,,,,,,,,,2,,,75,0
26820,note_on,0,0,3,,,,,,,,,2,,,63,49
26820,note_on,0,0,3,,,,,,,,,2,,,68,0
26820,note_on,0,0,3,,,,,,,,,2,,,66,0
26820,control_change,0,0,3,,,,,,,,,2,64,0,,
26820,note_on,1,0,2,,,,,,,,,1,,,80,49
26820,note_on,60,0,1,,,,,,,,,0,,,87,0
26820,note_on,0,0,1,,,,,,,,,0,,,72,62
26820,note_on,0,0,1,,,,,,,,,0,,,84,62
26840,note_on,0,0,2,,,,,,,,,1,,,78,49
26840,note_on,20,0,2,,,,,,,,,1,,,80,0
26850,note_on,0,0,3,,,,,,,,,2,,,63,0
26850,note_on,0,0,3,,,,,,,,,2,,,66,0
26850,note_on,30,0,3,,,,,,,,,2,,,68,0
26859,note_on,0,0,2,,,,,,,,,1,,,75,49
26859,control_change,19,0,2,,,,,,,,,1,64,0,,
26860,note_on,1,0,2,,,,,,,,,1,,,78,0
26879,note_on,19,0,2,,,,,,,,,1,,,75,0
26880,note_on,60,0,1,,,,,,,,,0,,,84,0
26880,note_on,0,0,3,,,,,,,,,2,,,37,67
26880,note_on,0,0,3,,,,,,,,,2,,,49,75
26880,control_change,30,0,3,,,,,,,,,2,64,127,,
26880,note_on,0,0,1,,,,,,,,,0,,,72,0
26880,note_on,0,0,1,,,,,,,,,0,,,73,62
26880,note_on,0,0,1,,,,,,,,,0,,,77,62
26880,note_on,0,0,1,,,,,,,,,0,,,85,62
26900,note_on,20,0,3,,,,,,,,,2,,,49,0
26900,note_on,0,0,3,,,,,,,,,2,,,37,0
26900,note_on,0,0,3,,,,,,,,,2,,,49,49
26919,note_on,19,0,3,,,,,,,,,2,,,56,49
26920,note_on,1,0,3,,,,,,,,,2,,,49,0
26939,note_on,19,0,3,,,,,,,,,2,,,56,0
26940,note_on,1,0,3,,,,,,,,,2,,,53,49
26960,note_on,0,0,3,,,,,,,,,2,,,61,49
26960,note_on,20,0,3,,,,,,,,,2,,,53,0
26979,note_on,19,0,3,,,,,,,,,2,,,56,49
26980,note_on,1,0,3,,,,,,,,,2,,,61,0
26999,note_on,19,0,3,,,,,,,,,2,,,56,0
27000,note_on,0,0,1,,,,,,,,,0,,,73,0
27000,note_on,0,0,3,,,,,,,,,2,,,65,49
27000,note_on,0,0,1,,,,,,,,,0,,,77,0
27000,note_on,1,0,3,,,,,,,,,2,,,61,49
27000,note_on,120,0,1,,,,,,,,,0,,,85,0
27000,control_change,121,0,2,,,,,,,,,1,64,127,,
27020,note_on,20,0,2,,,,,,,,,1,,,68,49
27039,note_on,19,0,2,,,,,,,,,1,,,77,49
27040,note_on,1,0,2,,,,,,,,,1,,,68,0
27059,note_on,19,0,2,,,,,,,,,1,,,77,0
27060,note_on,60,0,1,,,,,,,,,0,,,85,62
27060,note_on,1,0,2,,,,,,,,,1,,,73,49
27060,control_change,0,0,3,,,,,,,,,2,64,0,,
27060,note_on,0,0,3,,,,,,,,,2,,,56,49
27060,note_on,60,0,3,,,,,,,,,2,,,65,0
27060,note_on,0,0,3,,,,,,,,,2,,,61,49
27060,note_on,0,0,3,,,,,,,,,2,,,61,0
27080,note_on,20,0,2,,,,,,,,,1,,,73,0
27080,note_on,0,0,2,,,,,,,,,1,,,80,49
27090,note_on,30,0,3,,,,,,,,,2,,,61,0
27090,note_on,0,0,3,,,,,,,,,2,,,56,0
27099,control_change,19,0,2,,,,,,,,,1,64,0,,
27099,note_on,0,0,2,,,,,,,,,1,,,77,49
27100,note_on,1,0,2,,,,,,,,,1,,,80,0
27119,note_on,19,0,2,,,,,,,,,1,,,77,0
27120,note_on,0,0,3,,,,,,,,,2,,,54,75
27120,note_on,0,0,3,,,,,,,,,2,,,42,67
27120,control_change,30,0,3,,,,,,,,,2,64,127,,
27120,note_on,0,0,1,,,,,,,,,0,,,72,62
27120,note_on,0,0,1,,,,,,,,,0,,,84,62
27120,control_change,0,0,1,,,,,,,,,0,64,127,,
27120,note_on,60,0,1,,,,,,,,,0,,,85,0
27140,note_on,20,0,3,,,,,,,,,2,,,54,0
27140,note_on,0,0,3,,,,,,,,,2,,,42,0
27140,note_on,0,0,3,,,,,,,,,2,,,49,49
27150,note_on,0,0,1,,,,,,,,,0,,,70,62
27150,note_on,0,0,1,,,,,,,,,0,,,72,0
27150,note_on,0,0,1,,,,,,,,,0,,,82,62
27150,note_on,30,0,1,,,,,,,,,0,,,84,0
27159,note_on,19,0,3,,,,,,,,,2,,,58,49
27160,note_on,1,0,3,,,,,,,,,2,,,49,0
27179,note_on,19,0,3,,,,,,,,,2,,,58,0
27180,note_on,0,0,1,,,,,,,,,0,,,70,62
27180,note_on,0,0,1,,,,,,,,,0,,,70,0
27180,note_on,1,0,3,,,,,,,,,2,,,54,49
27180,note_on,0,0,1,,,,,,,,,0,,,82,62
27180,note_on,30,0,1,,,,,,,,,0,,,82,0
27200,note_on,0,0,3,,,,,,,,,2,,,61,49
27200,note_on,20,0,3,,,,,,,,,2,,,54,0
27219,note_on,19,0,3,,,,,,,,,2,,,58,49
27220,note_on,1,0,3,,,,,,,,,2,,,61,0
27239,note_on,19,0,3,,,,,,,,,2,,,58,0
27240,control_change,121,0,2,,,,,,,,,1,64,127,,
27240,note_on,1,0,3,,,,,,,,,2,,,61,49
27240,note_on,0,0,1,,,,,,,,,0,,,70,0
27240,note_on,0,0,1,,,,,,,,,0,,,82,62
27240,note_on,0,0,3,,,,,,,,,2,,,70,49
27240,note_on,60,0,1,,,,,,,,,0,,,82,0
27240,note_on,0,0,3,,,,,,,,,2,,,66,49
27260,note_on,20,0,2,,,,,,,,,1,,,78,49
27270,note_on,0,0,1,,,,,,,,,0,,,85,62
27270,note_on,30,0,1,,,,,,,,,0,,,82,0
27279,note_on,19,0,2,,,,,,,,,1,,,73,49
27280,note_on,1,0,2,,,,,,,,,1,,,78,0
27299,note_on,19,0,2,,,,,,,,,1,,,73,0
27300,note_on,1,0,2,,,,,,,,,1,,,72,49
27300,note_on,30,0,1,,,,,,,,,0,,,85,0
27300,control_change,0,0,3,,,,,,,,,2,64,0,,
27300,note_on,0,0,1,,,,,,,,,0,,,84,62
27300,note_on,0,0,3,,,,,,,,,2,,,58,49
27300,note_on,0,0,3,,,,,,,,,2,,,66,0
27300,note_on,0,0,3,,,,,,,,,2,,,61,49
27300,note_on,0,0,3,,,,,,,,,2,,,61,0
27300,note_on,60,0,3,,,,,,,,,2,,,70,0
27300,note_on,0,0,3,,,,,,,,,2,,,66,49
27320,note_on,0,0,2,,,,,,,,,1,,,78,49
27320,note_on,20,0,2,,,,,,,,,1,,,72,0
27330,note_on,0,0,3,,,,,,,,,2,,,58,0
27330,note_on,0,0,3,,,,,,,,,2,,,61,0
27330,note_on,0,0,1,,,,,,,,,0,,,87,62
27330,note_on,30,0,3,,,,,,,,,2,,,66,0
27330,control_change,0,0,1,,,,,,,,,0,64,0,,
27330,note_on,30,0,1,,,,,,,,,0,,,84,0
27339,control_change,19,0,2,,,,,,,,,1,64,0,,
27339,note_on,0,0,2,,,,,,,,,1,,,75,49
27340,note_on,1,0,2,,,,,,,,,1,,,78,0
27359,note_on,19,0,2,,,,,,,,,1,,,75,0
27360,note_on,0,0,1,,,,,,,,,0,,,77,62
27360,note_on,0,0,1,,,,,,,,,0,,,73,62
27360,control_change,1,0,2,,,,,,,,,1,64,127,,
27360,note_on,0,0,1,,,,,,,,,0,,,85,62
27360,control_change,30,0,3,,,,,,,,,2,64,127,,
27360,note_on,30,0,1,,,,,,,,,0,,,87,0
27360,note_on,0,0,3,,,,,,,,,2,,,37,67
27360,note_on,0,0,3,,,,,,,,,2,,,49,75
27360,control_change,0,0,1,,,,,,,,,0,64,127,,
27380,note_on,20,0,3,,,,,,,,,2,,,49,0
27380,note_on,0,0,3,,,,,,,,,2,,,37,0
27380,note_on,0,0,3,,,,,,,,,2,,,49,49
27399,note_on,19,0,3,,,,,,,,,2,,,56,49
27400,note_on,1,0,3,,,,,,,,,2,,,49,0
27419,note_on,19,0,3,,,,,,,,,2,,,56,0
27420,note_on,1,0,3,,,,,,,,,2,,,53,49
27440,note_on,0,0,3,,,,,,,,,2,,,61,49
27440,note_on,20,0,3,,,,,,,,,2,,,53,0
27459,note_on,19,0,3,,,,,,,,,2,,,56,49
27460,note_on,1,0,3,,,,,,,,,2,,,61,0
27479,note_on,19,0,3,,,,,,,,,2,,,56,0
27480,note_on,0,0,1,,,,,,,,,0,,,73,0
27480,control_change,120,0,2,,,,,,,,,1,64,127,,
27480,note_on,0,0,1,,,,,,,,,0,,,77,0
27480,note_on,0,0,1,,,,,,,,,0,,,80,62
27480,note_on,0,0,3,,,,,,,,,2,,,68,49
27480,note_on,120,0,1,,,,,,,,,0,,,85,0
27480,note_on,1,0,3,,,,,,,,,2,,,61,49
27480,note_on,0,0,3,,,,,,,,,2,,,65,49
27500,note_on,20,0,2,,,,,,,,,1,,,68,49
27519,note_on,19,0,2,,,,,,,,,1,,,73,49
27520,note_on,1,0,2,,,,,,,,,1,,,68,0
27539,note_on,19,0,2,,,,,,,,,1,,,73,0
27540,note_on,0,0,3,,,,,,,,,2,,,56,49
27540,note_on,0,0,1,,,,,,,,,0,,,80,62
27540,note_on,0,0,3,,,,,,,,,2,,,61,0
27540,note_on,0,0,3,,,,,,,,,2,,,61,49
27540,note_on,0,0,3,,,,,,,,,2,,,65,0
27540,note_on,1,0,2,,,,,,,,,1,,,68,49
27540,note_on,0,0,3,,,,,,,,,2,,,65,49
27540,note_on,60,0,1,,,,,,,,,0,,,80,0
27540,control_change,0,0,3,,,,,,,,,2,64,0,,
27540,note_on,60,0,3,,,,,,,,,2,,,68,0
27540,control_change,0,0,1,,,,,,,,,0,64,0,,
27560,note_on,20,0,2,,,,,,,,,1,,,68,0
27560,note_on,0,0,2,,,,,,,,,1,,,77,49
27570,note_on,0,0,3,,,,,,,,,2,,,61,0
27570,note_on,30,0,3,,,,,,,,,2,,,65,0
27570,note_on,0,0,3,,,,,,,,,2,,,56,0
27579,note_on,0,0,2,,,,,,,,,1,,,73,49
27579,control_change,19,0,2,,,,,,,,,1,64,0,,
27580,note_on,1,0,2,,,,,,,,,1,,,77,0
27599,note_on,19,0,2,,,,,,,,,1,,,73,0
27600,control_change,0,0,1,,,,,,,,,0,64,127,,
27600,note_on,0,0,1,,,,,,,,,0,,,68,62
27600,note_on,0,0,1,,,,,,,,,0,,,72,62
27600,control_change,30,0,3,,,,,,,,,2,64,127,,
27600,note_on,0,0,1,,,,,,,,,0,,,78,62
27600,note_on,0,0,1,,,,,,,,,0,,,80,62
27600,note_on,0,0,3,,,,,,,,,2,,,32,49
27600,note_on,60,0,1,,,,,,,,,0,,,80,0
27600,control_change,1,0,2,,,,,,,,,1,64,127,,
27600,note_on,0,0,3,,,,,,,,,2,,,44,49
27620,note_on,20,0,3,,,,,,,,,2,,,44,0
27620,note_on,0,0,3,,,,,,,,,2,,,32,0
27620,note_on,0,0,3,,,,,,,,,2,,,51,49
27639,note_on,19,0,3,,,,,,,,,2,,,56,49
27640,note_on,1,0,3,,,,,,,,,2,,,51,0
27659,note_on,19,0,3,,,,,,,,,2,,,56,0
27660,note_on,1,0,3,,,,,,,,,2,,,54,49
27680,note_on,20,0,3,,,,,,,,,2,,,54,0
27680,note_on,0,0,3,,,,,,,,,2,,,63,49
27690,note_on,90,0,1,,,,,,,,,0,,,80,0
27690,note_on,0,0,1,,,,,,,,,0,,,80,101
27690,note_on,0,0,1,,,,,,,,,0,,,78,0
27690,note_on,0,0,1,,,,,,,,,0,,,72,0
27690,note_on,0,0,1,,,,,,,,,0,,,68,0
27690,note_on,0,0,1,,,,,,,,,0,,,68,101
27699,note_on,19,0,3,,,,,,,,,2,,,56,49
27700,note_on,1,0,3,,,,,,,,,2,,,63,0
27719,note_on,19,0,3,,,,,,,,,2,,,56,0
27720,note_on,0,0,1,,,,,,,,,0,,,68,0
27720,note_on,0,0,1,,,,,,,,,0,,,78,101
27720,note_on,30,0,1,,,,,,,,,0,,,80,0
27720,note_on,1,0,3,,,,,,,,,2,,,66,49
27720,control_change,120,0,2,,,,,,,,,1,64,127,,
27720,note_on,0,0,3,,,,,,,,,2,,,68,49
27720,note_on,0,0,3,,,,,,,,,2,,,75,49
27720,note_on,0,0,1,,,,,,,,,0,,,90,101
27740,note_on,20,0,2,,,,,,,,,1,,,75,49
27759,note_on,19,0,2,,,,,,,,,1,,,78,49
27760,note_on,1,0,2,,,,,,,,,1,,,75,0
27779,note_on,19,0,2,,,,,,,,,1,,,78,0
27780,control_change,0,0,3,,,,,,,,,2,64,0,,
27780,note_on,0,0,1,,,,,,,,,0,,,72,101
27780,note_on,0,0,3,,,,,,,,,2,,,63,49
27780,note_on,0,0,3,,,,,,,,,2,,,68,49
27780,note_on,0,0,1,,,,,,,,,0,,,84,101
27780,control_change,0,0,1,,,,,,,,,0,64,0,,
27780,note_on,0,0,1,,,,,,,,,0,,,78,0
27780,note_on,0,0,3,,,,,,,,,2,,,68,0
27780,note_on,1,0,2,,,,,,,,,1,,,80,49
27780,note_on,0,0,3,,,,,,,,,2,,,66,49
27780,note_on,0,0,3,,,,,,,,,2,,,66,0
27780,note_on,60,0,1,,,,,,,,,0,,,90,0
27780,note_on,60,0,3,,,,,,,,,2,,,75,0
27800,note_on,20,0,2,,,,,,,,,1,,,80,0
27800,note_on,0,0,2,,,,,,,,,1,,,78,49
27810,note_on,30,0,3,,,,,,,,,2,,,68,0
27810,note_on,0,0,3,,,,,,,,,2,,,63,0
27810,note_on,0,0,3,,,,,,,,,2,,,66,0
27819,control_change,19,0,2,,,,,,,,,1,64,0,,
27819,note_on,0,0,2,,,,,,,,,1,,,75,49
27820,note_on,1,0,2,,,,,,,,,1,,,78,0
27839,note_on,19,0,2,,,,,,,,,1,,,75,0
27840,note_on,0,0,1,,,,,,,,,0,,,72,0
27840,set_tempo,1680,1,0,,,,,,769231,,,,,,,
27840,note_on,60,0,1,,,,,,,,,0,,,84,0
27870,control_change,30,0,1,,,,,,,,,0,64,127,,
27870,note_on,0,0,2,,,,,,,,,1,,,93,49
27870,control_change,31,0,2,,,,,,,,,1,64,127,,
27870,note_on,0,0,1,,,,,,,,,0,,,102,62
27885,note_on,0,0,1,,,,,,,,,0,,,96,62
27885,note_on,0,0,2,,,,,,,,,1,,,87,49
27885,note_on,15,0,2,,,,,,,,,1,,,93,0
27885,note_on,15,0,1,,,,,,,,,0,,,102,0
27900,note_on,0,0,2,,,,,,,,,1,,,90,49
27900,note_on,0,0,1,,,,,,,,,0,,,99,62
27900,note_on,15,0,1,,,,,,,,,0,,,96,0
27900,note_on,15,0,2,,,,,,,,,1,,,87,0
27915,note_on,0,0,1,,,,,,,,,0,,,93,62
27915,note_on,15,0,2,,,,,,,,,1,,,90,0
27915,note_on,15,0,1,,,,,,,,,0,,,99,0
27915,note_on,0,0,2,,,,,,,,,1,,,84,49
27930,note_on,0,0,2,,,,,,,,,1,,,87,49
27930,note_on,15,0,2,,,,,,,,,1,,,84,0
27930,note_on,0,0,1,,,,,,,,,0,,,96,62
27930,note_on,15,0,1,,,,,,,,,0,,,93,0
27945,note_on,0,0,2,,,,,,,,,1,,,81,49
27945,note_on,15,0,1,,,,,,,,,0,,,96,0
27945,note_on,15,0,2,,,,,,,,,1,,,87,0
27945,note_on,0,0,1,,,,,,,,,0,,,90,62
27960,note_on,0,0,2,,,,,,,,,1,,,84,49
27960,note_on,15,0,1,,,,,,,,,0,,,90,0
27960,note_on,0,0,1,,,,,,,,,0,,,93,62
27960,note_on,15,0,2,,,,,,,,,1,,,81,0
27975,note_on,0,0,2,,,,,,,,,1,,,78,49
27975,note_on,15,0,1,,,,,,,,,0,,,93,0
27975,note_on,0,0,1,,,,,,,,,0,,,87,62
27975,note_on,15,0,2,,,,,,,,,1,,,84,0
27990,note_on,0,0,1,,,,,,,,,0,,,90,62
27990,note_on,15,0,2,,,,,,,,,1,,,78,0
27990,note_on,0,0,2,,,,,,,,,1,,,81,49
27990,note_on,15,0,1,,,,,,,,,0,,,87,0
28005,note_on,15,0,2,,,,,,,,,1,,,81,0
28005,note_on,0,0,1,,,,,,,,,0,,,84,62
28005,note_on,0,0,2,,,,,,,,,1,,,75,49
28005,note_on,15,0,1,,,,,,,,,0,,,90,0
28020,note_on,15,0,1,,,,,,,,,0,,,84,0
28020,note_on,0,0,1,,,,,,,,,0,,,87,62
28020,note_on,15,0,2,,,,,,,,,1,,,75,0
28020,note_on,0,0,2,,,,,,,,,1,,,78,49
28035,note_on,15,0,2,,,,,,,,,1,,,78,0
28035,note_on,0,0,1,,,,,,,,,0,,,80,62
28035,note_on,15,0,1,,,,,,,,,0,,,87,0
28035,note_on,0,0,2,,,,,,,,,1,,,72,49
28050,note_on,0,0,1,,,,,,,,,0,,,84,62
28050,note_on,15,0,2,,,,,,,,,1,,,72,0
28050,note_on,0,0,2,,,,,,,,,1,,,75,49
28050,note_on,15,0,1,,,,,,,,,0,,,80,0
28065,note_on,0,0,2,,,,,,,,,1,,,69,49
28065,note_on,15,0,2,,,,,,,,,1,,,75,0
28065,note_on,0,0,1,,,,,,,,,0,,,78,62
28065,note_on,15,0,1,,,,,,,,,0,,,84,0
28080,note_on,0,0,1,,,,,,,,,0,,,81,62
28080,note_on,0,0,2,,,,,,,,,1,,,72,49
28080,note_on,15,0,2,,,,,,,,,1,,,69,0
28080,note_on,15,0,1,,,,,,,,,0,,,78,0
28095,note_on,0,0,2,,,,,,,,,1,,,66,49
28095,note_on,0,0,1,,,,,,,,,0,,,75,62
28095,note_on,15,0,2,,,,,,,,,1,,,72,0
28095,note_on,15,0,1,,,,,,,,,0,,,81,0
28110,note_on,0,0,1,,,,,,,,,0,,,78,62
28110,note_on,0,0,2,,,,,,,,,1,,,69,49
28110,note_on,15,0,2,,,,,,,,,1,,,66,0
28110,note_on,15,0,1,,,,,,,,,0,,,75,0
28125,note_on,15,0,2,,,,,,,,,1,,,69,0
28125,note_on,0,0,1,,,,,,,,,0,,,72,62
28125,note_on,0,0,2,,,,,,,,,1,,,63,49
28125,note_on,15,0,1,,,,,,,,,0,,,78,0
28140,note_on,15,0,2,,,,,,,,,1,,,63,0
28140,set_tempo,300,1,0,,,,,,909091,,,,,,,
28140,note_on,0,0,1,,,,,,,,,0,,,75,62
28140,note_on,0,0,2,,,,,,,,,1,,,66,49
28140,note_on,15,0,1,,,,,,,,,0,,,72,0
28155,note_on,15,0,2,,,,,,,,,1,,,66,0
28155,note_on,0,0,2,,,,,,,,,1,,,60,49
28155,note_on,0,0,1,,,,,,,,,0,,,69,62
28155,note_on,15,0,1,,,,,,,,,0,,,75,0
28170,note_on,15,0,1,,,,,,,,,0,,,69,0
28170,note_on,15,0,2,,,,,,,,,1,,,60,0
28170,note_on,0,0,1,,,,,,,,,0,,,72,62
28170,note_on,0,0,2,,,,,,,,,1,,,63,49
28185,note_on,0,0,2,,,,,,,,,1,,,57,49
28185,note_on,15,0,2,,,,,,,,,1,,,63,0
28185,note_on,15,0,1,,,,,,,,,0,,,72,0
28185,note_on,0,0,1,,,,,,,,,0,,,66,62
28200,note_on,15,0,1,,,,,,,,,0,,,66,0
28200,note_on,15,0,2,,,,,,,,,1,,,57,0
28200,note_on,0,0,1,,,,,,,,,0,,,69,62
28200,set_tempo,60,1,0,,,,,,1111111,,,,,,,
28200,note_on,0,0,2,,,,,,,,,1,,,60,49
28215,note_on,15,0,2,,,,,,,,,1,,,60,0
28215,note_on,15,0,1,,,,,,,,,0,,,69,0
28215,note_on,0,0,2,,,,,,,,,1,,,54,49
28215,note_on,0,0,1,,,,,,,,,0,,,63,62
28230,note_on,0,0,1,,,,,,,,,0,,,66,62
28230,note_on,0,0,2,,,,,,,,,1,,,57,49
28230,note_on,15,0,1,,,,,,,,,0,,,63,0
28230,note_on,15,0,2,,,,,,,,,1,,,54,0
28245,note_on,15,0,1,,,,,,,,,0,,,66,0
28245,note_on,0,0,2,,,,,,,,,1,,,51,49
28245,note_on,15,0,2,,,,,,,,,1,,,57,0
28245,note_on,0,0,1,,,,,,,,,0,,,60,62
28260,note_on,15,0,1,,,,,,,,,0,,,60,0
28260,note_on,0,0,1,,,,,,,,,0,,,63,62
28260,note_on,0,0,2,,,,,,,,,1,,,54,49
28260,note_on,15,0,2,,,,,,,,,1,,,51,0
28260,set_tempo,60,1,0,,,,,,1428571,,,,,,,
28290,note_on,30,0,1,,,,,,,,,0,,,63,0
28290,note_on,30,0,2,,,,,,,,,1,,,54,0
28290,control_change,0,0,2,,,,,,,,,1,64,0,,
28290,note_on,0,0,2,,,,,,,,,1,,,54,49
28290,note_on,0,0,1,,,,,,,,,0,,,63,62
28320,note_on,0,0,1,,,,,,,,,0,,,65,62
28320,note_on,510,0,3,,,,,,,,,2,,,56,49
28320,note_on,30,0,2,,,,,,,,,1,,,54,0
28320,set_tempo,60,1,0,,,,,,967742,,,,,,,
28320,note_on,30,0,1,,,,,,,,,0,,,63,0
28320,control_change,0,0,1,,,,,,,,,0,64,0,,
28350,note_on,30,0,1,,,,,,,,,0,,,65,0
28350,note_on,0,0,1,,,,,,,,,0,,,63,62
28350,note_on,30,0,3,,,,,,,,,2,,,56,0
28350,note_on,0,0,3,,,,,,,,,2,,,54,49
28380,note_on,0,0,1,,,,,,,,,0,,,62,62
28380,note_on,30,0,1,,,,,,,,,0,,,63,0
28380,set_tempo,60,1,0,,,,,,1200000,,,,,,,
28380,note_on,0,0,3,,,,,,,,,2,,,53,49
28380,note_on,30,0,3,,,,,,,,,2,,,54,0
28410,note_on,0,0,1,,,,,,,,,0,,,63,62
28410,note_on,30,0,1,,,,,,,,,0,,,62,0
28410,note_on,30,0,3,,,,,,,,,2,,,53,0
28410,note_on,0,0,3,,,,,,,,,2,,,54,49
28440,note_on,0,0,3,,,,,,,,,2,,,57,49
28440,note_on,30,0,1,,,,,,,,,0,,,63,0
28440,set_tempo,60,1,0,,,,,,1578947,,,,,,,
28440,note_on,0,0,1,,,,,,,,,0,,,66,62
28440,note_on,30,0,3,,,,,,,,,2,,,54,0
28500,set_tempo,60,1,0,,,,,,2307692,,,,,,,
28537,note_on,97,0,3,,,,,,,,,2,,,44,49
28545,note_on,8,0,3,,,,,,,,,2,,,51,49
28552,note_on,7,0,3,,,,,,,,,2,,,54,49
28560,note_on,0,0,3,,,,,,,,,2,,,60,49
28560,note_on,120,0,1,,,,,,,,,0,,,66,0
28560,set_tempo,60,1,0,,,,,,967742,,,,,,,
28560,note_on,8,0,3,,,,,,,,,2,,,57,0
28680,note_on,0,0,3,,,,,,,,,2,,,44,0
28680,note_on,0,0,3,,,,,,,,,2,,,51,0
28680,note_on,0,0,3,,,,,,,,,2,,,54,0
28680,note_on,120,0,3,,,,,,,,,2,,,60,0
28800,note_on,240,0,1,,,,,,,,,0,,,53,62
28800,note_on,120,0,3,,,,,,,,,2,,,37,49
28800,note_on,0,0,1,,,,,,,,,0,,,61,62
28820,note_on,0,0,3,,,,,,,,,2,,,44,49
28820,note_on,20,0,3,,,,,,,,,2,,,37,0
28839,note_on,19,0,3,,,,,,,,,2,,,49,49
28840,note_on,1,0,3,,,,,,,,,2,,,44,0
28859,note_on,19,0,3,,,,,,,,,2,,,49,0
28860,note_on,1,0,3,,,,,,,,,2,,,53,49
28880,note_on,20,0,3,,,,,,,,,2,,,53,0
28880,note_on,0,0,3,,,,,,,,,2,,,54,49
28899,note_on,19,0,3,,,,,,,,,2,,,55,49
28900,note_on,1,0,3,,,,,,,,,2,,,54,0
28919,note_on,19,0,3,,,,,,,,,2,,,55,0
28920,note_on,0,0,3,,,,,,,,,2,,,65,49
28920,note_on,120,0,1,,,,,,,,,0,,,61,0
28920,note_on,1,0,3,,,,,,,,,2,,,56,49
28920,note_on,0,0,1,,,,,,,,,0,,,53,0
28940,note_on,20,0,1,,,,,,,,,0,,,65,62
28959,note_on,19,0,1,,,,,,,,,0,,,68,62
28960,note_on,1,0,1,,,,,,,,,0,,,65,0
28979,note_on,19,0,1,,,,,,,,,0,,,68,0
28980,note_on,0,0,1,,,,,,,,,0,,,77,62
28980,note_on,60,0,3,,,,,,,,,2,,,65,0
28980,note_on,0,0,3,,,,,,,,,2,,,61,49
28980,note_on,0,0,3,,,,,,,,,2,,,56,0
28980,note_on,1,0,1,,,,,,,,,0,,,73,62
28980,note_on,0,0,3,,,,,,,,,2,,,53,49
29000,note_on,0,0,1,,,,,,,,,0,,,73,0
29000,note_on,20,0,1,,,,,,,,,0,,,77,0
29000,note_on,0,0,1,,,,,,,,,0,,,77,62
29010,note_on,0,0,3,,,,,,,,,2,,,53,0
29010,note_on,30,0,3,,,,,,,,,2,,,61,0
29019,note_on,19,0,1,,,,,,,,,0,,,80,62
29020,note_on,1,0,1,,,,,,,,,0,,,77,0
29040,note_on,30,0,3,,,,,,,,,2,,,37,49
29040,note_on,20,0,1,,,,,,,,,0,,,85,62
29040,note_on,0,0,1,,,,,,,,,0,,,89,62
29060,note_on,0,0,3,,,,,,,,,2,,,44,49
29060,note_on,20,0,3,,,,,,,,,2,,,37,0
29079,note_on,19,0,3,,,,,,,,,2,,,49,49
29080,note_on,1,0,3,,,,,,,,,2,,,44,0
29099,note_on,59,0,1,,,,,,,,,0,,,80,0
29099,note_on,19,0,3,,,,,,,,,2,,,49,0
29100,note_on,1,0,1,,,,,,,,,0,,,89,0
29100,note_on,1,0,3,,,,,,,,,2,,,53,49
29100,note_on,0,0,1,,,,,,,,,0,,,77,62
29100,note_on,0,0,1,,,,,,,,,0,,,80,62
29100,note_on,0,0,1,,,,,,,,,0,,,85,0
29100,note_on,0,0,1,,,,,,,,,0,,,85,62
29120,note_on,20,0,3,,,,,,,,,2,,,53,0
29120,note_on,0,0,3,,,,,,,,,2,,,54,49
29130,note_on,0,0,1,,,,,,,,,0,,,80,0
29130,note_on,30,0,1,,,,,,,,,0,,,85,0
29130,note_on,0,0,1,,,,,,,,,0,,,77,0
29139,note_on,19,0,3,,,,,,,,,2,,,55,49
29140,note_on,1,0,3,,,,,,,,,2,,,54,0
29159,note_on,19,0,3,,,,,,,,,2,,,55,0
29160,note_on,0,0,3,,,,,,,,,2,,,65,49
29160,note_on,1,0,3,,,,,,,,,2,,,56,49
29180,note_on,50,0,1,,,,,,,,,0,,,77,62
29199,note_on,19,0,1,,,,,,,,,0,,,80,62
29200,note_on,1,0,1,,,,,,,,,0,,,77,0
29219,note_on,19,0,1,,,,,,,,,0,,,80,0
29220,note_on,0,0,3,,,,,,,,,2,,,61,49
29220,note_on,60,0,3,,,,,,,,,2,,,65,0
29220,note_on,1,0,1,,,,,,,,,0,,,85,62
29220,note_on,0,0,3,,,,,,,,,2,,,53,49
29220,note_on,0,0,3,,,,,,,,,2,,,56,0
29220,note_on,0,0,1,,,,,,,,,0,,,89,62
29240,note_on,20,0,1,,,,,,,,,0,,,89,0
29240,note_on,0,0,1,,,,,,,,,0,,,89,62
29240,note_on,0,0,1,,,,,,,,,0,,,85,0
29250,note_on,30,0,3,,,,,,,,,2,,,61,0
29250,note_on,0,0,3,,,,,,,,,2,,,53,0
29259,note_on,19,0,1,,,,,,,,,0,,,92,62
29260,note_on,1,0,1,,,,,,,,,0,,,89,0
29280,note_on,20,0,1,,,,,,,,,0,,,97,62
29280,note_on,0,0,1,,,,,,,,,0,,,101,62
29280,note_on,30,0,3,,,,,,,,,2,,,49,49
29300,note_on,20,0,3,,,,,,,,,2,,,49,0
29300,note_on,0,0,3,,,,,,,,,2,,,56,49
29319,note_on,19,0,3,,,,,,,,,2,,,61,49
29320,note_on,1,0,3,,,,,,,,,2,,,56,0
29339,note_on,59,0,1,,,,,,,,,0,,,92,0
29339,note_on,19,0,3,,,,,,,,,2,,,61,0
29340,note_on,0,0,1,,,,,,,,,0,,,92,62
29340,note_on,0,0,1,,,,,,,,,0,,,97,62
29340,note_on,1,0,3,,,,,,,,,2,,,65,49
29340,note_on,0,0,1,,,,,,,,,0,,,97,0
29340,note_on,0,0,1,,,,,,,,,0,,,89,62
29340,note_on,1,0,1,,,,,,,,,0,,,101,0
29360,note_on,20,0,3,,,,,,,,,2,,,65,0
29360,note_on,0,0,3,,,,,,,,,2,,,66,49
29370,note_on,0,0,1,,,,,,,,,0,,,89,0
29370,note_on,0,0,1,,,,,,,,,0,,,92,0
29370,note_on,30,0,1,,,,,,,,,0,,,97,0
29379,note_on,19,0,3,,,,,,,,,2,,,67,49
29380,note_on,1,0,3,,,,,,,,,2,,,66,0
29399,note_on,19,0,3,,,,,,,,,2,,,67,0
29400,note_on,1,0,3,,,,,,,,,2,,,68,49
29400,note_on,0,0,3,,,,,,,,,2,,,77,49
29420,note_on,50,0,1,,,,,,,,,0,,,77,62
29439,note_on,19,0,1,,,,,,,,,0,,,80,62
29440,note_on,1,0,1,,,,,,,,,0,,,77,0
29459,note_on,19,0,1,,,,,,,,,0,,,80,0
29460,note_on,0,0,1,,,,,,,,,0,,,89,62
29460,note_on,0,0,3,,,,,,,,,2,,,65,49
29460,note_on,0,0,3,,,,,,,,,2,,,68,0
29460,note_on,60,0,3,,,,,,,,,2,,,77,0
29460,note_on,0,0,3,,,,,,,,,2,,,73,49
29460,note_on,1,0,1,,,,,,,,,0,,,85,62
29480,note_on,0,0,1,,,,,,,,,0,,,85,0
29480,note_on,0,0,1,,,,,,,,,0,,,89,62
29480,note_on,20,0,1,,,,,,,,,0,,,89,0
29490,note_on,30,0,3,,,,,,,,,2,,,73,0
29490,note_on,0,0,3,,,,,,,,,2,,,65,0
29499,note_on,19,0,1,,,,,,,,,0,,,92,62
29500,note_on,1,0,1,,,,,,,,,0,,,89,0
29520,note_on,30,0,3,,,,,,,,,2,,,49,49
29520,note_on,20,0,1,,,,,,,,,0,,,97,62
29520,note_on,0,0,1,,,,,,,,,0,,,101,62
29540,note_on,20,0,3,,,,,,,,,2,,,49,0
29540,note_on,0,0,3,,,,,,,,,2,,,56,49
29559,note_on,19,0,3,,,,,,,,,2,,,61,49
29560,note_on,1,0,3,,,,,,,,,2,,,56,0
29579,note_on,19,0,3,,,,,,,,,2,,,61,0
29579,note_on,59,0,1,,,,,,,,,0,,,92,0
29580,note_on,0,0,1,,,,,,,,,0,,,97,0
29580,note_on,1,0,1,,,,,,,,,0,,,101,0
29580,note_on,1,0,3,,,,,,,,,2,,,65,49
29580,note_on,0,0,1,,,,,,,,,0,,,89,62
29580,note_on,0,0,1,,,,,,,,,0,,,92,62
29580,note_on,0,0,1,,,,,,,,,0,,,97,62
29600,note_on,20,0,3,,,,,,,,,2,,,65,0
29600,note_on,0,0,3,,,,,,,,,2,,,66,49
29610,note_on,0,0,1,,,,,,,,,0,,,89,0
29610,note_on,30,0,1,,,,,,,,,0,,,97,0
29610,note_on,0,0,1,,,,,,,,,0,,,92,0
29619,note_on,19,0,3,,,,,,,,,2,,,67,49
29620,note_on,1,0,3,,,,,,,,,2,,,66,0
29639,note_on,19,0,3,,,,,,,,,2,,,67,0
29640,note_on,0,0,3,,,,,,,,,2,,,77,49
29640,note_on,1,0,3,,,,,,,,,2,,,68,49
29660,note_on,50,0,1,,,,,,,,,0,,,77,62
29679,note_on,19,0,1,,,,,,,,,0,,,80,62
29680,note_on,1,0,1,,,,,,,,,0,,,77,0
29699,note_on,19,0,1,,,,,,,,,0,,,80,0
29700,note_on,1,0,1,,,,,,,,,0,,,85,62
29700,note_on,60,0,3,,,,,,,,,2,,,77,0
29700,note_on,0,0,3,,,,,,,,,2,,,73,49
29700,note_on,0,0,1,,,,,,,,,0,,,89,62
29700,note_on,0,0,3,,,,,,,,,2,,,65,49
29700,note_on,0,0,3,,,,,,,,,2,,,68,0
29720,note_on,0,0,1,,,,,,,,,0,,,85,0
29720,note_on,0,0,1,,,,,,,,,0,,,89,62
29720,note_on,20,0,1,,,,,,,,,0,,,89,0
29730,note_on,0,0,3,,,,,,,,,2,,,65,0
29730,note_on,30,0,3,,,,,,,,,2,,,73,0
29739,note_on,19,0,1,,,,,,,,,0,,,92,62
29740,note_on,1,0,1,,,,,,,,,0,,,89,0
29759,note_on,19,0,1,,,,,,,,,0,,,92,0
29760,note_on,0,0,1,,,,,,,,,0,,,101,62
29760,note_on,1,0,1,,,,,,,,,0,,,97,62
29760,set_tempo,1200,1,0,,,,,,612245,,,,,,,
29775,note_on,0,0,1,,,,,,,,,0,,,97,0
29775,note_on,15,0,1,,,,,,,,,0,,,101,0
29775,note_on,0,0,1,,,,,,,,,0,,,99,62
29790,note_on,0,0,1,,,,,,,,,0,,,97,62
29790,note_on,15,0,1,,,,,,,,,0,,,99,0
29805,note_on,0,0,1,,,,,,,,,0,,,94,62
29805,note_on,15,0,1,,,,,,,,,0,,,97,0
29820,note_on,0,0,1,,,,,,,,,0,,,92,62
29820,note_on,15,0,1,,,,,,,,,0,,,94,0
29835,note_on,0,0,1,,,,,,,,,0,,,97,62
29835,note_on,15,0,1,,,,,,,,,0,,,92,0
29850,note_on,15,0,1,,,,,,,,,0,,,97,0
29850,note_on,0,0,1,,,,,,,,,0,,,94,62
29865,note_on,0,0,1,,,,,,,,,0,,,92,62
29865,note_on,15,0,1,,,,,,,,,0,,,94,0
29880,note_on,0,0,1,,,,,,,,,0,,,87,62
29880,note_on,15,0,1,,,,,,,,,0,,,92,0
29895,note_on,15,0,1,,,,,,,,,0,,,87,0
29895,note_on,0,0,1,,,,,,,,,0,,,94,62
29910,note_on,15,0,1,,,,,,,,,0,,,94,0
29910,note_on,0,0,1,,,,,,,,,0,,,92,62
29925,note_on,15,0,1,,,,,,,,,0,,,92,0
29925,note_on,0,0,1,,,,,,,,,0,,,87,62
29940,note_on,15,0,1,,,,,,,,,0,,,87,0
29940,note_on,0,0,1,,,,,,,,,0,,,85,62
29955,note_on,15,0,1,,,,,,,,,0,,,85,0
29955,note_on,0,0,1,,,,,,,,,0,,,92,62
29970,note_on,15,0,1,,,,,,,,,0,,,92,0
29970,note_on,0,0,1,,,,,,,,,0,,,87,62
29985,note_on,15,0,1,,,,,,,,,0,,,87,0
29985,note_on,0,0,1,,,,,,,,,0,,,85,62
30000,note_on,15,0,1,,,,,,,,,0,,,85,0
30000,note_on,0,0,1,,,,,,,,,0,,,82,62
30015,note_on,15,0,1,,,,,,,,,0,,,82,0
30015,note_on,0,0,1,,,,,,,,,0,,,87,62
30030,note_on,15,0,1,,,,,,,,,0,,,87,0
30030,note_on,0,0,1,,,,,,,,,0,,,85,62
30045,note_on,15,0,1,,,,,,,,,0,,,85,0
30045,note_on,0,0,1,,,,,,,,,0,,,82,62
30060,note_on,15,0,1,,,,,,,,,0,,,82,0
30060,note_on,0,0,1,,,,,,,,,0,,,80,62
30075,note_on,15,0,1,,,,,,,,,0,,,80,0
30075,note_on,0,0,1,,,,,,,,,0,,,85,62
30090,note_on,0,0,1,,,,,,,,,0,,,82,62
30090,note_on,15,0,1,,,,,,,,,0,,,85,0
30105,note_on,0,0,1,,,,,,,,,0,,,80,62
30105,note_on,15,0,1,,,,,,,,,0,,,82,0
30120,note_on,15,0,1,,,,,,,,,0,,,80,0
30120,note_on,0,0,1,,,,,,,,,0,,,75,62
30135,note_on,15,0,1,,,,,,,,,0,,,75,0
30135,note_on,0,0,1,,,,,,,,,0,,,82,62
30150,note_on,15,0,1,,,,,,,,,0,,,82,0
30150,note_on,0,0,1,,,,,,,,,0,,,80,62
30165,note_on,15,0,1,,,,,,,,,0,,,80,0
30165,note_on,0,0,1,,,,,,,,,0,,,75,62
30180,note_on,15,0,1,,,,,,,,,0,,,75,0
30180,note_on,0,0,1,,,,,,,,,0,,,73,62
30195,note_on,0,0,1,,,,,,,,,0,,,80,62
30195,note_on,15,0,1,,,,,,,,,0,,,73,0
30210,note_on,0,0,1,,,,,,,,,0,,,75,62
30210,note_on,15,0,1,,,,,,,,,0,,,80,0
30225,note_on,0,0,1,,,,,,,,,0,,,73,62
30225,note_on,15,0,1,,,,,,,,,0,,,75,0
30240,note_on,15,0,1,,,,,,,,,0,,,73,0
30240,note_on,0,0,1,,,,,,,,,0,,,70,62
30255,note_on,0,0,1,,,,,,,,,0,,,75,62
30255,note_on,15,0,1,,,,,,,,,0,,,70,0
30270,note_on,0,0,1,,,,,,,,,0,,,73,62
30270,note_on,15,0,1,,,,,,,,,0,,,75,0
30285,note_on,15,0,1,,,,,,,,,0,,,73,0
30285,note_on,0,0,1,,,,,,,,,0,,,70,62
30300,note_on,15,0,1,,,,,,,,,0,,,70,0
30300,note_on,0,0,1,,,,,,,,,0,,,68,62
30315,note_on,0,0,1,,,,,,,,,0,,,73,62
30315,note_on,15,0,1,,,,,,,,,0,,,68,0
30330,note_on,0,0,1,,,,,,,,,0,,,70,62
30330,note_on,15,0,1,,,,,,,,,0,,,73,0
30345,note_on,0,0,1,,,,,,,,,0,,,68,62
30345,note_on,15,0,1,,,,,,,,,0,,,70,0
30360,note_on,0,0,1,,,,,,,,,0,,,63,62
30360,note_on,15,0,1,,,,,,,,,0,,,68,0
30375,note_on,15,0,1,,,,,,,,,0,,,63,0
30375,note_on,0,0,1,,,,,,,,,0,,,70,62
30390,note_on,0,0,1,,,,,,,,,0,,,68,62
30390,note_on,15,0,1,,,,,,,,,0,,,70,0
30405,note_on,0,0,1,,,,,,,,,0,,,63,62
30405,note_on,15,0,1,,,,,,,,,0,,,68,0
30420,note_on,0,0,1,,,,,,,,,0,,,61,62
30420,note_on,15,0,1,,,,,,,,,0,,,63,0
30435,note_on,0,0,1,,,,,,,,,0,,,68,62
30435,note_on,15,0,1,,,,,,,,,0,,,61,0
30450,note_on,15,0,1,,,,,,,,,0,,,68,0
30450,note_on,0,0,1,,,,,,,,,0,,,63,62
30465,note_on,0,0,1,,,,,,,,,0,,,61,62
30465,note_on,15,0,1,,,,,,,,,0,,,63,0
30480,note_on,0,0,1,,,,,,,,,0,,,58,62
30480,note_on,15,0,1,,,,,,,,,0,,,61,0
30495,note_on,15,0,1,,,,,,,,,0,,,58,0
30495,note_on,0,0,1,,,,,,,,,0,,,63,62
30510,note_on,0,0,1,,,,,,,,,0,,,61,62
30510,note_on,15,0,1,,,,,,,,,0,,,63,0
30525,note_on,0,0,1,,,,,,,,,0,,,58,62
30525,note_on,15,0,1,,,,,,,,,0,,,61,0
30540,note_on,15,0,1,,,,,,,,,0,,,58,0
30540,note_on,810,0,3,,,,,,,,,2,,,56,49
30555,note_on,15,0,3,,,,,,,,,2,,,56,0
30555,note_on,0,0,3,,,,,,,,,2,,,61,49
30570,note_on,15,0,3,,,,,,,,,2,,,61,0
30570,note_on,0,0,3,,,,,,,,,2,,,58,49
30585,note_on,15,0,3,,,,,,,,,2,,,58,0
30585,note_on,0,0,3,,,,,,,,,2,,,56,49
30600,note_on,15,0,3,,,,,,,,,2,,,56,0
30600,note_on,0,0,3,,,,,,,,,2,,,51,49
30615,note_on,0,0,3,,,,,,,,,2,,,58,49
30615,note_on,15,0,3,,,,,,,,,2,,,51,0
30630,note_on,0,0,3,,,,,,,,,2,,,56,49
30630,note_on,15,0,3,,,,,,,,,2,,,58,0
30645,note_on,15,0,3,,,,,,,,,2,,,56,0
30645,note_on,0,0,3,,,,,,,,,2,,,51,49
30660,note_on,0,0,3,,,,,,,,,2,,,49,49
30660,note_on,15,0,3,,,,,,,,,2,,,51,0
30675,note_on,15,0,3,,,,,,,,,2,,,49,0
30675,note_on,0,0,3,,,,,,,,,2,,,56,49
30690,note_on,0,0,3,,,,,,,,,2,,,51,49
30690,note_on,15,0,3,,,,,,,,,2,,,56,0
30705,note_on,15,0,3,,,,,,,,,2,,,51,0
30705,note_on,0,0,3,,,,,,,,,2,,,49,49
30720,note_on,0,0,3,,,,,,,,,2,,,46,49
30720,note_on,15,0,3,,,,,,,,,2,,,49,0
30720,time_signature,960,1,0,3,8,12,8,,,,,,,,,
30735,note_on,15,0,3,,,,,,,,,2,,,46,0
30735,note_on,0,0,3,,,,,,,,,2,,,51,49
30750,note_on,15,0,3,,,,,,,,,2,,,51,0
30750,note_on,0,0,3,,,,,,,,,2,,,49,49
30765,note_on,15,0,3,,,,,,,,,2,,,49,0
30765,note_on,0,0,3,,,,,,,,,2,,,46,49
30780,note_on,15,0,3,,,,,,,,,2,,,46,0
30780,note_on,0,0,3,,,,,,,,,2,,,44,49
30795,note_on,15,0,3,,,,,,,,,2,,,44,0
30795,note_on,0,0,3,,,,,,,,,2,,,49,49
30810,note_on,0,0,3,,,,,,,,,2,,,46,49
30810,note_on,15,0,3,,,,,,,,,2,,,49,0
30825,note_on,0,0,3,,,,,,,,,2,,,44,49
30825,note_on,15,0,3,,,,,,,,,2,,,46,0
30840,note_on,15,0,3,,,,,,,,,2,,,44,0
30840,note_on,0,0,3,,,,,,,,,2,,,39,49
30855,note_on,15,0,3,,,,,,,,,2,,,39,0
30855,note_on,0,0,3,,,,,,,,,2,,,46,49
30870,note_on,15,0,3,,,,,,,,,2,,,46,0
30870,note_on,0,0,3,,,,,,,,,2,,,44,49
30885,note_on,15,0,3,,,,,,,,,2,,,44,0
30885,note_on,0,0,3,,,,,,,,,2,,,41,49
30900,note_on,15,0,3,,,,,,,,,2,,,41,0
30900,time_signature,180,1,0,2,4,24,8,,,,,,,,,
30900,end_of_track,0,1,0,,,,,,,,,,,,,
30900,set_tempo,0,1,0,,,,,,769231,,,,,,,
30900,note_on,0,0,3,,,,,,,,,2,,,37,49
30960,note_on,60,0,3,,,,,,,,,2,,,37,0
30997,note_on,457,0,1,,,,,,,,,0,,,68,62
31000,note_on,40,0,3,,,,,,,,,2,,,49,49
31005,note_on,8,0,1,,,,,,,,,0,,,77,62
31010,note_on,10,0,3,,,,,,,,,2,,,56,49
31012,note_on,7,0,1,,,,,,,,,0,,,80,62
31020,note_on,8,0,1,,,,,,,,,0,,,89,62
31020,note_on,10,0,3,,,,,,,,,2,,,65,49
31025,note_on,0,0,1,,,,,,,,,0,,,68,0
31025,note_on,5,0,1,,,,,,,,,0,,,80,0
31026,note_on,1,0,1,,,,,,,,,0,,,77,0
31026,note_on,0,0,3,,,,,,,,,2,,,49,0
31026,note_on,0,0,3,,,,,,,,,2,,,56,0
31026,note_on,0,0,1,,,,,,,,,0,,,89,0
31026,note_on,6,0,3,,,,,,,,,2,,,65,0
31056,note_on,30,0,1,,,,,,,,,0,,,68,62
31060,note_on,34,0,3,,,,,,,,,2,,,49,49
31062,note_on,6,0,1,,,,,,,,,0,,,73,62
31068,note_on,6,0,1,,,,,,,,,0,,,77,62
31070,note_on,10,0,3,,,,,,,,,2,,,53,49
31074,note_on,6,0,1,,,,,,,,,0,,,80,62
31080,note_on,6,0,1,,,,,,,,,0,,,85,62
31080,note_on,10,0,3,,,,,,,,,2,,,61,49
31086,note_on,6,0,1,,,,,,,,,0,,,85,0
31086,note_on,0,0,3,,,,,,,,,2,,,53,0
31086,end_of_track,0,1,3,,,,,,,,,,,,,
31086,note_on,0,0,3,,,,,,,,,2,,,49,0
31086,note_on,6,0,3,,,,,,,,,2,,,61,0
31086,note_on,0,0,1,,,,,,,,,0,,,68,0
31086,note_on,0,0,1,,,,,,,,,0,,,73,0
31086,note_on,0,0,1,,,,,,,,,0,,,77,0
31086,note_on,0,0,1,,,,,,,,,0,,,80,0
31260,note_on,0,0,1,,,,,,,,,0,,,92,62
31260,note_on,2940,0,2,,,,,,,,,1,,,61,49
31260,note_on,0,0,1,,,,,,,,,0,,,101,62
31260,note_on,174,0,1,,,,,,,,,0,,,85,62
31260,note_on,0,0,2,,,,,,,,,1,,,77,49
31260,note_on,0,0,2,,,,,,,,,1,,,68,49
31266,note_on,0,0,2,,,,,,,,,1,,,61,0
31266,note_on,0,0,2,,,,,,,,,1,,,68,0
31266,note_on,6,0,2,,,,,,,,,1,,,77,0
31266,note_on,0,0,1,,,,,,,,,0,,,92,0
31266,note_on,6,0,1,,,,,,,,,0,,,101,0
31266,note_on,0,0,1,,,,,,,,,0,,,85,0
31320,note_on,0,0,2,,,,,,,,,1,,,65,49
31320,note_on,0,0,2,,,,,,,,,1,,,73,49
31320,note_on,0,0,1,,,,,,,,,0,,,89,62
31320,note_on,0,0,1,,,,,,,,,0,,,97,62
31320,note_on,54,0,2,,,,,,,,,1,,,61,49
31320,note_on,54,0,1,,,,,,,,,0,,,85,62
31326,note_on,0,0,2,,,,,,,,,1,,,65,0
31326,note_on,6,0,2,,,,,,,,,1,,,73,0
31326,note_on,6,0,1,,,,,,,,,0,,,97,0
31326,end_of_track,0,1,2,,,,,,,,,,,,,
31326,note_on,0,0,1,,,,,,,,,0,,,89,0
31326,note_on,0,0,1,,,,,,,,,0,,,85,0
31326,note_on,0,0,2,,,,,,,,,1,,,61,0
31560,note_on,0,0,1,,,,,,,,,0,,,89,0
31560,note_on,234,0,1,,,,,,,,,0,,,89,0
31620,end_of_track,0,1,1,,,,,,,,,,,,,
31620,note_on,60,0,1,,,,,,,,,0,,,89,0
31620,note_on,0,0,1,,,,,,,,,0,,,89,0
