tick,type,time,meta,track,numerator,denominator,clocks_per_click,notated_32nd_notes_per_beat,key,tempo,port,program,channel,control,value,note,velocity
0,control_change,0,0,1,,,,,,,,,0,7,127,,
0,midi_port,0,1,1,,,,,,,0,,,,,,
0,midi_port,0,1,2,,,,,,,0,,,,,,
0,midi_port,0,1,3,,,,,,,0,,,,,,
0,midi_port,0,1,4,,,,,,,0,,,,,,
0,note_on,0,0,1,,,,,,,,,0,,,63,49
0,note_on,0,0,1,,,,,,,,,0,,,72,49
0,note_on,0,0,4,,,,,,,,,3,,,44,49
0,track_name,0,1,3,,,,,,,,,,,,,
0,key_signature,0,1,0,,,,,Ab,,,,,,,,
0,program_change,0,0,1,,,,,,,,0,0,,,,
0,program_change,0,0,3,,,,,,,,0,2,,,,
0,program_change,0,0,4,,,,,,,,0,3,,,,
0,set_tempo,0,1,0,,,,,,2068966,,,,,,,
0,text,0,1,0,,,,,,,,,,,,,
0,time_signature,0,1,0,2,4,24,8,,,,,,,,,
0,track_name,0,1,0,,,,,,,,,,,,,
0,track_name,0,1,1,,,,,,,,,,,,,
0,track_name,0,1,2,,,,,,,,,,,,,
0,program_change,0,0,2,,,,,,,,0,1,,,,
0,copyright,0,1,0,,,,,,,,,,,,,
0,track_name,0,1,4,,,,,,,,,,,,,
0,control_change,0,0,2,,,,,,,,,1,10,97,,
0,control_change,0,0,3,,,,,,,,,2,7,127,,
0,control_change,0,0,2,,,,,,,,,1,7,127,,
0,control_change,0,0,4,,,,,,,,,3,10,30,,
0,control_change,0,0,4,,,,,,,,,3,7,127,,
0,control_change,0,0,3,,,,,,,,,2,10,30,,
0,control_change,0,0,1,,,,,,,,,0,10,97,,
20,control_change,20,0,3,,,,,,,,,2,64,127,,
20,note_on,0,0,3,,,,,,,,,2,,,51,36
39,note_on,19,0,3,,,,,,,,,2,,,56,36
40,note_on,1,0,3,,,,,,,,,2,,,51,0
59,note_on,19,0,3,,,,,,,,,2,,,56,0
60,note_on,0,0,1,,,,,,,,,0,,,63,0
60,note_on,1,0,3,,,,,,,,,2,,,51,36
60,note_on,0,0,1,,,,,,,,,0,,,63,49
60,note_on,0,0,1,,,,,,,,,0,,,72,49
60,note_on,60,0,1,,,,,,,,,0,,,72,0
80,note_on,20,0,3,,,,,,,,,2,,,51,0
80,note_on,0,0,3,,,,,,,,,2,,,56,36
99,control_change,19,0,3,,,,,,,,,2,64,0,,
99,note_on,0,0,3,,,,,,,,,2,,,51,36
100,note_on,1,0,3,,,,,,,,,2,,,56,0
105,note_on,0,0,1,,,,,,,,,0,,,72,49
105,note_on,0,0,1,,,,,,,,,0,,,63,49
105,note_on,0,0,1,,,,,,,,,0,,,63,0
105,note_on,45,0,1,,,,,,,,,0,,,72,0
119,note_on,19,0,3,,,,,,,,,2,,,51,0
120,note_on,0,0,1,,,,,,,,,0,,,63,49
120,note_on,15,0,1,,,,,,,,,0,,,72,0
120,note_on,0,0,4,,,,,,,,,3,,,44,49
120,note_on,120,0,4,,,,,,,,,3,,,44,0
120,note_on,0,0,1,,,,,,,,,0,,,63,0
120,note_on,0,0,1,,,,,,,,,0,,,72,49
140,control_change,21,0,3,,,,,,,,,2,64,127,,
140,note_on,0,0,3,,,,,,,,,2,,,51,36
159,note_on,19,0,3,,,,,,,,,2,,,55,36
160,note_on,1,0,3,,,,,,,,,2,,,51,0
179,note_on,19,0,3,,,,,,,,,2,,,55,0
180,note_on,1,0,3,,,,,,,,,2,,,51,36
200,note_on,20,0,3,,,,,,,,,2,,,51,0
200,note_on,0,0,3,,,,,,,,,2,,,55,36
210,note_on,0,0,1,,,,,,,,,0,,,61,49
210,note_on,0,0,1,,,,,,,,,0,,,70,49
210,note_on,90,0,1,,,,,,,,,0,,,72,0
210,note_on,0,0,1,,,,,,,,,0,,,63,0
219,control_change,19,0,3,,,,,,,,,2,64,0,,
219,note_on,0,0,3,,,,,,,,,2,,,51,36
220,note_on,1,0,3,,,,,,,,,2,,,55,0
239,note_on,19,0,3,,,,,,,,,2,,,51,0
240,note_on,30,0,1,,,,,,,,,0,,,70,0
240,note_on,0,0,1,,,,,,,,,0,,,61,49
240,note_on,120,0,4,,,,,,,,,3,,,44,0
240,note_on,0,0,1,,,,,,,,,0,,,70,49
240,note_on,0,0,4,,,,,,,,,3,,,44,49
240,note_on,0,0,1,,,,,,,,,0,,,61,0
260,note_on,0,0,3,,,,,,,,,2,,,51,36
260,control_change,21,0,3,,,,,,,,,2,64,127,,
270,note_on,0,0,1,,,,,,,,,0,,,60,49
270,note_on,0,0,1,,,,,,,,,0,,,61,0
270,note_on,0,0,1,,,,,,,,,0,,,68,49
270,note_on,30,0,1,,,,,,,,,0,,,70,0
279,note_on,19,0,3,,,,,,,,,2,,,56,36
280,note_on,1,0,3,,,,,,,,,2,,,51,0
299,note_on,19,0,3,,,,,,,,,2,,,56,0
300,note_on,1,0,3,,,,,,,,,2,,,51,36
300,note_on,0,0,1,,,,,,,,,0,,,59,49
300,note_on,0,0,1,,,,,,,,,0,,,67,49
300,note_on,30,0,1,,,,,,,,,0,,,68,0
300,note_on,0,0,1,,,,,,,,,0,,,60,0
320,note_on,0,0,3,,,,,,,,,2,,,56,36
320,note_on,20,0,3,,,,,,,,,2,,,51,0
330,note_on,0,0,1,,,,,,,,,0,,,60,49
330,note_on,0,0,1,,,,,,,,,0,,,68,49
330,note_on,0,0,1,,,,,,,,,0,,,59,0
330,note_on,30,0,1,,,,,,,,,0,,,67,0
339,control_change,19,0,3,,,,,,,,,2,64,0,,
339,note_on,0,0,3,,,,,,,,,2,,,51,36
340,note_on,1,0,3,,,,,,,,,2,,,56,0
359,note_on,19,0,3,,,,,,,,,2,,,51,0
360,note_on,120,0,4,,,,,,,,,3,,,44,0
360,note_on,0,0,1,,,,,,,,,0,,,63,49
360,note_on,30,0,1,,,,,,,,,0,,,68,0
360,note_on,0,0,1,,,,,,,,,0,,,61,49
360,note_on,0,0,4,,,,,,,,,3,,,44,49
360,note_on,0,0,1,,,,,,,,,0,,,60,0
380,note_on,0,0,3,,,,,,,,,2,,,51,36
380,control_change,21,0,3,,,,,,,,,2,64,127,,
399,note_on,19,0,3,,,,,,,,,2,,,55,36
400,note_on,1,0,3,,,,,,,,,2,,,51,0
419,note_on,19,0,3,,,,,,,,,2,,,55,0
420,note_on,1,0,3,,,,,,,,,2,,,51,36
440,note_on,0,0,3,,,,,,,,,2,,,55,36
440,note_on,20,0,3,,,,,,,,,2,,,51,0
459,control_change,19,0,3,,,,,,,,,2,64,0,,
459,note_on,0,0,3,,,,,,,,,2,,,51,36
460,note_on,1,0,3,,,,,,,,,2,,,55,0
479,note_on,19,0,3,,,,,,,,,2,,,51,0
480,note_on,0,0,1,,,,,,,,,0,,,72,62
480,note_on,0,0,1,,,,,,,,,0,,,61,0
480,note_on,0,0,1,,,,,,,,,0,,,63,62
480,note_on,0,0,4,,,,,,,,,3,,,44,49
480,note_on,120,0,4,,,,,,,,,3,,,44,0
480,note_on,0,0,1,,,,,,,,,0,,,60,62
480,note_on,120,0,1,,,,,,,,,0,,,63,0
500,note_on,0,0,3,,,,,,,,,2,,,51,36
500,control_change,21,0,3,,,,,,,,,2,64,127,,
519,note_on,19,0,3,,,,,,,,,2,,,56,36
520,note_on,1,0,3,,,,,,,,,2,,,51,0
539,note_on,19,0,3,,,,,,,,,2,,,56,0
540,note_on,0,0,1,,,,,,,,,0,,,63,75
540,note_on,0,0,1,,,,,,,,,0,,,63,0
540,note_on,1,0,3,,,,,,,,,2,,,51,49
540,note_on,0,0,1,,,,,,,,,0,,,60,0
540,note_on,60,0,1,,,,,,,,,0,,,72,0
540,note_on,0,0,1,,,,,,,,,0,,,72,75
560,note_on,0,0,3,,,,,,,,,2,,,56,49
560,note_on,20,0,3,,,,,,,,,2,,,51,0
579,note_on,0,0,3,,,,,,,,,2,,,51,49
579,control_change,19,0,3,,,,,,,,,2,64,0,,
580,note_on,1,0,3,,,,,,,,,2,,,56,0
585,note_on,0,0,1,,,,,,,,,0,,,63,0
585,note_on,0,0,1,,,,,,,,,0,,,63,75
585,note_on,0,0,1,,,,,,,,,0,,,72,75
585,note_on,45,0,1,,,,,,,,,0,,,72,0
599,note_on,19,0,3,,,,,,,,,2,,,51,0
600,note_on,15,0,1,,,,,,,,,0,,,72,0
600,control_change,1,0,3,,,,,,,,,2,64,127,,
600,note_on,120,0,4,,,,,,,,,3,,,44,0
600,note_on,0,0,1,,,,,,,,,0,,,75,88
600,note_on,0,0,1,,,,,,,,,0,,,66,88
600,note_on,0,0,1,,,,,,,,,0,,,63,0
600,note_on,0,0,3,,,,,,,,,2,,,44,62
620,note_on,0,0,3,,,,,,,,,2,,,56,62
620,note_on,20,0,3,,,,,,,,,2,,,44,0
639,note_on,19,0,3,,,,,,,,,2,,,60,62
640,note_on,1,0,3,,,,,,,,,2,,,56,0
659,note_on,19,0,3,,,,,,,,,2,,,60,0
660,note_on,1,0,3,,,,,,,,,2,,,56,62
680,note_on,0,0,3,,,,,,,,,2,,,60,62
680,note_on,20,0,3,,,,,,,,,2,,,56,0
690,note_on,0,0,1,,,,,,,,,0,,,65,75
690,note_on,0,0,1,,,,,,,,,0,,,66,0
690,note_on,90,0,1,,,,,,,,,0,,,75,0
690,note_on,0,0,1,,,,,,,,,0,,,73,75
699,note_on,0,0,3,,,,,,,,,2,,,61,62
699,control_change,19,0,3,,,,,,,,,2,64,0,,
700,note_on,1,0,3,,,,,,,,,2,,,60,0
719,note_on,19,0,3,,,,,,,,,2,,,61,0
720,note_on,30,0,1,,,,,,,,,0,,,73,0
720,note_on,0,0,3,,,,,,,,,2,,,44,49
720,control_change,1,0,3,,,,,,,,,2,64,127,,
720,note_on,0,0,1,,,,,,,,,0,,,64,75
720,note_on,0,0,1,,,,,,,,,0,,,73,75
720,note_on,0,0,1,,,,,,,,,0,,,65,0
740,note_on,0,0,3,,,,,,,,,2,,,55,49
740,note_on,20,0,3,,,,,,,,,2,,,44,0
759,note_on,19,0,3,,,,,,,,,2,,,58,49
760,note_on,1,0,3,,,,,,,,,2,,,55,0
779,note_on,19,0,3,,,,,,,,,2,,,58,0
780,note_on,1,0,3,,,,,,,,,2,,,55,49
800,note_on,0,0,3,,,,,,,,,2,,,58,49
800,note_on,20,0,3,,,,,,,,,2,,,55,0
810,note_on,0,0,1,,,,,,,,,0,,,63,62
810,note_on,0,0,1,,,,,,,,,0,,,72,62
810,note_on,0,0,1,,,,,,,,,0,,,64,0
810,note_on,90,0,1,,,,,,,,,0,,,73,0
819,note_on,0,0,3,,,,,,,,,2,,,56,49
819,control_change,19,0,3,,,,,,,,,2,64,0,,
820,note_on,1,0,3,,,,,,,,,2,,,58,0
839,note_on,19,0,3,,,,,,,,,2,,,56,0
840,note_on,0,0,3,,,,,,,,,2,,,39,49
840,control_change,1,0,3,,,,,,,,,2,64,127,,
840,note_on,0,0,1,,,,,,,,,0,,,63,0
840,note_on,0,0,1,,,,,,,,,0,,,63,62
840,note_on,30,0,1,,,,,,,,,0,,,72,0
840,note_on,0,0,1,,,,,,,,,0,,,72,62
860,note_on,20,0,3,,,,,,,,,2,,,39,0
860,note_on,0,0,3,,,,,,,,,2,,,51,36
870,note_on,30,0,1,,,,,,,,,0,,,72,0
870,note_on,0,0,1,,,,,,,,,0,,,63,0
870,note_on,0,0,1,,,,,,,,,0,,,70,49
870,note_on,0,0,1,,,,,,,,,0,,,61,49
879,note_on,19,0,3,,,,,,,,,2,,,55,36
880,note_on,1,0,3,,,,,,,,,2,,,51,0
899,note_on,19,0,3,,,,,,,,,2,,,55,0
900,note_on,0,0,1,,,,,,,,,0,,,68,49
900,note_on,0,0,1,,,,,,,,,0,,,60,49
900,note_on,30,0,1,,,,,,,,,0,,,70,0
900,note_on,0,0,1,,,,,,,,,0,,,61,0
900,note_on,1,0,3,,,,,,,,,2,,,51,36
915,note_on,15,0,1,,,,,,,,,0,,,63,49
915,note_on,0,0,1,,,,,,,,,0,,,72,49
920,note_on,20,0,3,,,,,,,,,2,,,51,0
920,note_on,0,0,3,,,,,,,,,2,,,55,36
930,note_on,0,0,1,,,,,,,,,0,,,61,49
930,note_on,15,0,1,,,,,,,,,0,,,72,0
930,note_on,0,0,1,,,,,,,,,0,,,60,0
930,note_on,0,0,1,,,,,,,,,0,,,63,0
930,note_on,0,0,1,,,,,,,,,0,,,68,0
930,note_on,0,0,1,,,,,,,,,0,,,70,49
939,control_change,19,0,3,,,,,,,,,2,64,0,,
939,note_on,0,0,3,,,,,,,,,2,,,51,36
940,note_on,1,0,3,,,,,,,,,2,,,55,0
959,note_on,19,0,3,,,,,,,,,2,,,51,0
960,note_on,0,0,1,,,,,,,,,0,,,68,49
960,note_on,0,0,1,,,,,,,,,0,,,60,49
960,note_on,360,0,4,,,,,,,,,3,,,44,49
960,note_on,0,0,1,,,,,,,,,0,,,61,0
960,note_on,30,0,1,,,,,,,,,0,,,70,0
980,control_change,21,0,3,,,,,,,,,2,64,127,,
980,note_on,0,0,3,,,,,,,,,2,,,51,36
999,note_on,19,0,3,,,,,,,,,2,,,56,36
1000,note_on,1,0,3,,,,,,,,,2,,,51,0
1019,note_on,19,0,3,,,,,,,,,2,,,56,0
1020,note_on,1,0,3,,,,,,,,,2,,,51,36
1040,note_on,0,0,3,,,,,,,,,2,,,56,36
1040,note_on,20,0,3,,,,,,,,,2,,,51,0
1059,note_on,0,0,3,,,,,,,,,2,,,51,36
1059,control_change,19,0,3,,,,,,,,,2,64,0,,
1060,note_on,1,0,3,,,,,,,,,2,,,56,0
1079,note_on,19,0,3,,,,,,,,,2,,,51,0
1080,note_on,120,0,4,,,,,,,,,3,,,44,0
1080,note_on,0,0,4,,,,,,,,,3,,,44,49
1100,control_change,21,0,3,,,,,,,,,2,64,127,,
1100,note_on,0,0,3,,,,,,,,,2,,,51,36
1119,note_on,19,0,3,,,,,,,,,2,,,56,36
1120,note_on,1,0,3,,,,,,,,,2,,,51,0
1139,note_on,19,0,3,,,,,,,,,2,,,56,0
1140,note_on,1,0,3,,,,,,,,,2,,,51,36
1160,note_on,20,0,3,,,,,,,,,2,,,51,0
1160,note_on,0,0,3,,,,,,,,,2,,,56,36
1170,note_on,0,0,1,,,,,,,,,0,,,72,75
1170,note_on,210,0,1,,,,,,,,,0,,,68,0
1170,note_on,0,0,1,,,,,,,,,0,,,60,0
1179,control_change,19,0,3,,,,,,,,,2,64,0,,
1179,note_on,0,0,3,,,,,,,,,2,,,51,36
1180,note_on,1,0,3,,,,,,,,,2,,,56,0
1199,note_on,19,0,3,,,,,,,,,2,,,51,0
1200,note_on,1200,0,2,,,,,,,,,1,,,60,49
1200,note_on,0,0,2,,,,,,,,,1,,,63,49
1200,note_on,120,0,4,,,,,,,,,3,,,44,0
1200,note_on,0,0,4,,,,,,,,,3,,,44,49
1200,note_on,0,0,1,,,,,,,,,0,,,72,75
1200,note_on,30,0,1,,,,,,,,,0,,,72,0
1220,note_on,0,0,3,,,,,,,,,2,,,51,36
1220,control_change,21,0,3,,,,,,,,,2,64,127,,
1230,note_on,30,0,1,,,,,,,,,0,,,72,0
1230,note_on,0,0,1,,,,,,,,,0,,,75,75
1239,note_on,19,0,3,,,,,,,,,2,,,56,36
1240,note_on,1,0,3,,,,,,,,,2,,,51,0
1259,note_on,19,0,3,,,,,,,,,2,,,56,0
1260,note_on,0,0,2,,,,,,,,,1,,,60,0
1260,note_on,0,0,2,,,,,,,,,1,,,60,49
1260,note_on,0,0,2,,,,,,,,,1,,,63,49
1260,note_on,60,0,2,,,,,,,,,1,,,63,0
1260,note_on,0,0,1,,,,,,,,,0,,,73,75
1260,note_on,30,0,1,,,,,,,,,0,,,75,0
1260,note_on,1,0,3,,,,,,,,,2,,,51,36
1280,note_on,20,0,3,,,,,,,,,2,,,51,0
1280,note_on,0,0,3,,,,,,,,,2,,,56,36
1290,note_on,30,0,1,,,,,,,,,0,,,73,0
1290,note_on,0,0,1,,,,,,,,,0,,,72,75
1299,control_change,19,0,3,,,,,,,,,2,64,0,,
1299,note_on,0,0,3,,,,,,,,,2,,,51,36
1300,note_on,1,0,3,,,,,,,,,2,,,56,0
1305,note_on,0,0,2,,,,,,,,,1,,,60,0
1305,note_on,0,0,2,,,,,,,,,1,,,63,49
1305,note_on,45,0,2,,,,,,,,,1,,,63,0
1305,note_on,0,0,2,,,,,,,,,1,,,60,49
1319,note_on,19,0,3,,,,,,,,,2,,,51,0
1320,note_on,120,0,4,,,,,,,,,3,,,44,0
1320,note_on,15,0,2,,,,,,,,,1,,,63,0
1320,note_on,0,0,4,,,,,,,,,3,,,44,49
1320,note_on,0,0,2,,,,,,,,,1,,,60,0
1320,note_on,0,0,2,,,,,,,,,1,,,61,49
1320,note_on,0,0,2,,,,,,,,,1,,,63,49
1320,note_on,0,0,1,,,,,,,,,0,,,72,75
1320,note_on,30,0,1,,,,,,,,,0,,,72,0
1340,note_on,0,0,3,,,,,,,,,2,,,51,36
1340,control_change,21,0,3,,,,,,,,,2,64,127,,
1359,note_on,19,0,3,,,,,,,,,2,,,55,36
1360,note_on,1,0,3,,,,,,,,,2,,,51,0
1379,note_on,19,0,3,,,,,,,,,2,,,55,0
1380,note_on,60,0,1,,,,,,,,,0,,,72,0
1380,note_on,0,0,1,,,,,,,,,0,,,70,75
1380,note_on,1,0,3,,,,,,,,,2,,,51,36
1400,note_on,20,0,3,,,,,,,,,2,,,51,0
1400,note_on,0,0,3,,,,,,,,,2,,,55,36
1419,note_on,0,0,3,,,,,,,,,2,,,51,36
1419,control_change,19,0,3,,,,,,,,,2,64,0,,
1420,note_on,1,0,3,,,,,,,,,2,,,55,0
1439,note_on,19,0,3,,,,,,,,,2,,,51,0
1440,note_on,0,0,2,,,,,,,,,1,,,60,49
1440,note_on,0,0,2,,,,,,,,,1,,,61,0
1440,note_on,0,0,4,,,,,,,,,3,,,44,49
1440,note_on,60,0,1,,,,,,,,,0,,,70,0
1440,note_on,0,0,1,,,,,,,,,0,,,63,75
1440,note_on,120,0,2,,,,,,,,,1,,,63,0
1440,note_on,120,0,4,,,,,,,,,3,,,44,0
1460,note_on,0,0,3,,,,,,,,,2,,,51,36
1460,control_change,21,0,3,,,,,,,,,2,64,127,,
1470,note_on,30,0,1,,,,,,,,,0,,,63,0
1470,note_on,0,0,1,,,,,,,,,0,,,68,75
1479,note_on,19,0,3,,,,,,,,,2,,,56,36
1480,note_on,1,0,3,,,,,,,,,2,,,51,0
1499,note_on,19,0,3,,,,,,,,,2,,,56,0
1500,note_on,60,0,2,,,,,,,,,1,,,60,0
1500,note_on,0,0,1,,,,,,,,,0,,,67,75
1500,note_on,0,0,2,,,,,,,,,1,,,63,49
1500,note_on,0,0,2,,,,,,,,,1,,,60,49
1500,note_on,1,0,3,,,,,,,,,2,,,51,36
1500,note_on,30,0,1,,,,,,,,,0,,,68,0
1520,note_on,20,0,3,,,,,,,,,2,,,51,0
1520,note_on,0,0,3,,,,,,,,,2,,,56,36
1530,note_on,0,0,1,,,,,,,,,0,,,68,75
1530,note_on,30,0,1,,,,,,,,,0,,,67,0
1539,control_change,19,0,3,,,,,,,,,2,64,0,,
1539,note_on,0,0,3,,,,,,,,,2,,,51,36
1540,note_on,1,0,3,,,,,,,,,2,,,56,0
1545,note_on,0,0,2,,,,,,,,,1,,,63,49
1545,note_on,45,0,2,,,,,,,,,1,,,63,0
1545,note_on,0,0,2,,,,,,,,,1,,,60,0
1545,note_on,0,0,2,,,,,,,,,1,,,60,49
1559,note_on,19,0,3,,,,,,,,,2,,,51,0
1560,note_on,0,0,2,,,,,,,,,1,,,61,49
1560,note_on,0,0,2,,,,,,,,,1,,,60,0
1560,note_on,0,0,2,,,,,,,,,1,,,63,49
1560,note_on,0,0,1,,,,,,,,,0,,,70,75
1560,note_on,0,0,4,,,,,,,,,3,,,44,49
1560,note_on,30,0,1,,,,,,,,,0,,,68,0
1560,note_on,120,0,4,,,,,,,,,3,,,44,0
1560,note_on,15,0,2,,,,,,,,,1,,,63,0
1580,note_on,0,0,3,,,,,,,,,2,,,51,36
1580,control_change,21,0,3,,,,,,,,,2,64,127,,
1599,note_on,19,0,3,,,,,,,,,2,,,55,36
1600,note_on,1,0,3,,,,,,,,,2,,,51,0
1619,note_on,19,0,3,,,,,,,,,2,,,55,0
1620,note_on,1,0,3,,,,,,,,,2,,,51,36
1640,note_on,20,0,3,,,,,,,,,2,,,51,0
1640,note_on,0,0,3,,,,,,,,,2,,,55,36
1650,note_on,0,0,1,,,,,,,,,0,,,70,75
1650,note_on,90,0,1,,,,,,,,,0,,,70,0
1659,control_change,19,0,3,,,,,,,,,2,64,0,,
1659,note_on,0,0,3,,,,,,,,,2,,,51,36
1660,note_on,1,0,3,,,,,,,,,2,,,55,0
1679,note_on,19,0,3,,,,,,,,,2,,,51,0
1680,note_on,0,0,4,,,,,,,,,3,,,44,49
1680,note_on,0,0,2,,,,,,,,,1,,,63,49
1680,note_on,0,0,2,,,,,,,,,1,,,60,49
1680,note_on,0,0,2,,,,,,,,,1,,,61,0
1680,note_on,30,0,1,,,,,,,,,0,,,70,0
1680,note_on,0,0,1,,,,,,,,,0,,,72,75
1680,note_on,120,0,2,,,,,,,,,1,,,63,0
1680,note_on,120,0,4,,,,,,,,,3,,,44,0
1700,control_change,21,0,3,,,,,,,,,2,64,127,,
1700,note_on,0,0,3,,,,,,,,,2,,,51,36
1710,note_on,0,0,1,,,,,,,,,0,,,75,75
1710,note_on,30,0,1,,,,,,,,,0,,,72,0
1719,note_on,19,0,3,,,,,,,,,2,,,56,36
1720,note_on,1,0,3,,,,,,,,,2,,,51,0
1739,note_on,19,0,3,,,,,,,,,2,,,56,0
1740,note_on,1,0,3,,,,,,,,,2,,,51,36
1740,note_on,0,0,2,,,,,,,,,1,,,63,49
1740,note_on,60,0,2,,,,,,,,,1,,,63,0
1740,note_on,0,0,1,,,,,,,,,0,,,73,75
1740,note_on,30,0,1,,,,,,,,,0,,,75,0
1740,note_on,0,0,2,,,,,,,,,1,,,60,49
1740,note_on,0,0,2,,,,,,,,,1,,,60,0
1744,note_on,4,0,1,,,,,,,,,0,,,73,0
1760,note_on,20,0,3,,,,,,,,,2,,,51,0
1760,note_on,0,0,3,,,,,,,,,2,,,56,36
1770,note_on,26,0,1,,,,,,,,,0,,,72,75
1774,note_on,4,0,1,,,,,,,,,0,,,72,0
1779,control_change,19,0,3,,,,,,,,,2,64,0,,
1779,note_on,0,0,3,,,,,,,,,2,,,51,36
1780,note_on,1,0,3,,,,,,,,,2,,,56,0
1785,note_on,0,0,2,,,,,,,,,1,,,60,49
1785,note_on,45,0,2,,,,,,,,,1,,,63,0
1785,note_on,0,0,2,,,,,,,,,1,,,60,0
1785,note_on,0,0,2,,,,,,,,,1,,,63,49
1799,note_on,19,0,3,,,,,,,,,2,,,51,0
1800,note_on,15,0,2,,,,,,,,,1,,,63,0
1800,note_on,120,0,4,,,,,,,,,3,,,44,0
1800,note_on,26,0,1,,,,,,,,,0,,,72,75
1800,note_on,0,0,2,,,,,,,,,1,,,60,0
1800,note_on,0,0,2,,,,,,,,,1,,,61,49
1800,note_on,0,0,2,,,,,,,,,1,,,63,49
1800,note_on,0,0,4,,,,,,,,,3,,,44,49
1806,note_on,6,0,1,,,,,,,,,0,,,72,0
1820,note_on,0,0,3,,,,,,,,,2,,,51,36
1820,control_change,21,0,3,,,,,,,,,2,64,127,,
1839,note_on,19,0,3,,,,,,,,,2,,,55,36
1840,note_on,1,0,3,,,,,,,,,2,,,51,0
1859,note_on,19,0,3,,,,,,,,,2,,,55,0
1860,note_on,1,0,3,,,,,,,,,2,,,51,36
1860,note_on,54,0,1,,,,,,,,,0,,,70,75
1866,note_on,6,0,1,,,,,,,,,0,,,70,0
1880,note_on,20,0,3,,,,,,,,,2,,,51,0
1880,note_on,0,0,3,,,,,,,,,2,,,55,36
1899,control_change,19,0,3,,,,,,,,,2,64,0,,
1899,note_on,0,0,3,,,,,,,,,2,,,51,36
1900,note_on,1,0,3,,,,,,,,,2,,,55,0
1919,note_on,19,0,3,,,,,,,,,2,,,51,0
1920,note_on,54,0,1,,,,,,,,,0,,,63,75
1920,note_on,0,0,2,,,,,,,,,1,,,61,0
1920,note_on,0,0,4,,,,,,,,,3,,,44,49
1920,note_on,120,0,2,,,,,,,,,1,,,63,0
1920,note_on,120,0,4,,,,,,,,,3,,,44,0
1920,note_on,0,0,2,,,,,,,,,1,,,60,49
1940,note_on,0,0,3,,,,,,,,,2,,,51,36
1940,control_change,21,0,3,,,,,,,,,2,64,127,,
1950,note_on,30,0,1,,,,,,,,,0,,,63,0
1950,note_on,0,0,1,,,,,,,,,0,,,68,75
1959,note_on,19,0,3,,,,,,,,,2,,,56,36
1960,note_on,1,0,3,,,,,,,,,2,,,51,0
1979,note_on,19,0,3,,,,,,,,,2,,,56,0
1980,note_on,30,0,1,,,,,,,,,0,,,68,0
1980,note_on,60,0,2,,,,,,,,,1,,,60,0
1980,note_on,1,0,3,,,,,,,,,2,,,51,36
1980,note_on,0,0,2,,,,,,,,,1,,,60,49
1980,note_on,0,0,1,,,,,,,,,0,,,67,75
1980,note_on,0,0,2,,,,,,,,,1,,,63,49
2000,note_on,0,0,3,,,,,,,,,2,,,56,36
2000,note_on,20,0,3,,,,,,,,,2,,,51,0
2010,note_on,0,0,1,,,,,,,,,0,,,68,75
2010,note_on,30,0,1,,,,,,,,,0,,,67,0
2019,control_change,19,0,3,,,,,,,,,2,64,0,,
2019,note_on,0,0,3,,,,,,,,,2,,,51,36
2020,note_on,1,0,3,,,,,,,,,2,,,56,0
2025,note_on,0,0,2,,,,,,,,,1,,,60,0
2025,note_on,45,0,2,,,,,,,,,1,,,63,0
2025,note_on,0,0,2,,,,,,,,,1,,,60,49
2025,note_on,0,0,2,,,,,,,,,1,,,63,49
2039,note_on,19,0,3,,,,,,,,,2,,,51,0
2040,note_on,30,0,1,,,,,,,,,0,,,68,0
2040,note_on,120,0,4,,,,,,,,,3,,,44,0
2040,note_on,0,0,2,,,,,,,,,1,,,63,49
2040,note_on,15,0,2,,,,,,,,,1,,,63,0
2040,note_on,0,0,1,,,,,,,,,0,,,70,75
2040,note_on,0,0,2,,,,,,,,,1,,,58,49
2040,note_on,1,0,3,,,,,,,,,2,,,39,36
2040,note_on,0,0,2,,,,,,,,,1,,,60,0
2060,note_on,20,0,3,,,,,,,,,2,,,39,0
2060,note_on,0,0,3,,,,,,,,,2,,,51,36
2060,control_change,0,0,3,,,,,,,,,2,64,127,,
2079,note_on,19,0,3,,,,,,,,,2,,,55,36
2080,note_on,1,0,3,,,,,,,,,2,,,51,0
2099,note_on,19,0,3,,,,,,,,,2,,,55,0
2100,note_on,1,0,3,,,,,,,,,2,,,51,36
2120,note_on,0,0,3,,,,,,,,,2,,,55,36
2120,note_on,20,0,3,,,,,,,,,2,,,51,0
2130,note_on,90,0,1,,,,,,,,,0,,,70,0
2130,note_on,0,0,1,,,,,,,,,0,,,70,75
2139,control_change,19,0,3,,,,,,,,,2,64,0,,
2139,note_on,0,0,3,,,,,,,,,2,,,51,36
2140,note_on,1,0,3,,,,,,,,,2,,,55,0
2159,note_on,19,0,3,,,,,,,,,2,,,51,0
2160,note_on,0,0,1,,,,,,,,,0,,,70,75
2160,note_on,0,0,2,,,,,,,,,1,,,63,49
2160,note_on,0,0,2,,,,,,,,,1,,,58,0
2160,control_change,1,0,3,,,,,,,,,2,64,127,,
2160,note_on,30,0,1,,,,,,,,,0,,,70,0
2160,note_on,0,0,3,,,,,,,,,2,,,43,36
2160,note_on,120,0,2,,,,,,,,,1,,,63,0
2180,note_on,0,0,3,,,,,,,,,2,,,55,36
2180,note_on,20,0,3,,,,,,,,,2,,,43,0
2199,note_on,19,0,3,,,,,,,,,2,,,58,36
2200,note_on,1,0,3,,,,,,,,,2,,,55,0
2219,note_on,19,0,3,,,,,,,,,2,,,58,0
2220,note_on,1,0,3,,,,,,,,,2,,,55,36
2240,note_on,0,0,3,,,,,,,,,2,,,58,36
2240,note_on,20,0,3,,,,,,,,,2,,,55,0
2250,note_on,0,0,2,,,,,,,,,1,,,63,49
2250,note_on,90,0,2,,,,,,,,,1,,,63,0
2250,note_on,0,0,1,,,,,,,,,0,,,70,75
2250,note_on,90,0,1,,,,,,,,,0,,,70,0
2259,note_on,0,0,3,,,,,,,,,2,,,55,36
2259,control_change,19,0,3,,,,,,,,,2,64,0,,
2260,note_on,1,0,3,,,,,,,,,2,,,58,0
2279,note_on,19,0,3,,,,,,,,,2,,,55,0
2280,note_on,0,0,2,,,,,,,,,1,,,64,49
2280,note_on,0,0,2,,,,,,,,,1,,,70,49
2280,note_on,0,0,3,,,,,,,,,2,,,43,36
2280,note_on,0,0,1,,,,,,,,,0,,,72,75
2280,note_on,30,0,1,,,,,,,,,0,,,70,0
2280,note_on,30,0,2,,,,,,,,,1,,,63,0
2280,control_change,1,0,3,,,,,,,,,2,64,127,,
2300,note_on,20,0,3,,,,,,,,,2,,,43,0
2300,note_on,0,0,3,,,,,,,,,2,,,55,36
2319,note_on,0,0,3,,,,,,,,,2,,,60,36
2319,note_on,19,0,3,,,,,,,,,2,,,58,36
2320,note_on,1,0,3,,,,,,,,,2,,,55,0
2339,note_on,0,0,3,,,,,,,,,2,,,58,0
2339,note_on,19,0,3,,,,,,,,,2,,,60,0
2340,note_on,1,0,3,,,,,,,,,2,,,55,36
2360,note_on,20,0,3,,,,,,,,,2,,,55,0
2360,note_on,0,0,3,,,,,,,,,2,,,58,36
2360,note_on,0,0,3,,,,,,,,,2,,,60,36
2370,note_on,0,0,2,,,,,,,,,1,,,64,0
2370,note_on,0,0,2,,,,,,,,,1,,,64,62
2370,note_on,0,0,2,,,,,,,,,1,,,70,62
2370,note_on,90,0,1,,,,,,,,,0,,,72,0
2370,note_on,0,0,1,,,,,,,,,0,,,72,75
2370,note_on,90,0,2,,,,,,,,,1,,,70,0
2379,control_change,19,0,3,,,,,,,,,2,64,0,,
2379,note_on,0,0,3,,,,,,,,,2,,,55,36
2380,note_on,0,0,3,,,,,,,,,2,,,58,0
2380,note_on,1,0,3,,,,,,,,,2,,,60,0
2399,note_on,19,0,3,,,,,,,,,2,,,55,0
2400,note_on,0,0,3,,,,,,,,,2,,,41,62
2400,note_on,0,0,2,,,,,,,,,1,,,64,0
2400,note_on,0,0,2,,,,,,,,,1,,,65,75
2400,note_on,0,0,2,,,,,,,,,1,,,68,75
2400,note_on,30,0,2,,,,,,,,,1,,,70,0
2400,note_on,0,0,1,,,,,,,,,0,,,73,88
2400,note_on,30,0,1,,,,,,,,,0,,,72,0
2400,control_change,1,0,3,,,,,,,,,2,64,127,,
2420,note_on,20,0,3,,,,,,,,,2,,,41,0
2420,note_on,0,0,3,,,,,,,,,2,,,53,62
2439,note_on,0,0,3,,,,,,,,,2,,,61,62
2439,note_on,19,0,3,,,,,,,,,2,,,56,62
2440,note_on,1,0,3,,,,,,,,,2,,,53,0
2459,note_on,19,0,3,,,,,,,,,2,,,61,0
2459,note_on,0,0,3,,,,,,,,,2,,,56,0
2460,note_on,0,0,1,,,,,,,,,0,,,77,75
2460,note_on,60,0,1,,,,,,,,,0,,,73,0
2460,note_on,1,0,3,,,,,,,,,2,,,53,62
2480,note_on,0,0,3,,,,,,,,,2,,,56,62
2480,note_on,0,0,3,,,,,,,,,2,,,61,62
2480,note_on,20,0,3,,,,,,,,,2,,,53,0
2499,note_on,0,0,3,,,,,,,,,2,,,53,62
2499,control_change,19,0,3,,,,,,,,,2,64,0,,
2500,note_on,0,0,3,,,,,,,,,2,,,56,0
2500,note_on,1,0,3,,,,,,,,,2,,,61,0
2519,note_on,19,0,3,,,,,,,,,2,,,53,0
2520,note_on,60,0,1,,,,,,,,,0,,,77,0
2520,note_on,0,0,2,,,,,,,,,1,,,65,49
2520,note_on,480,0,4,,,,,,,,,3,,,53,36
2520,note_on,0,0,4,,,,,,,,,3,,,61,36
2520,note_on,0,0,2,,,,,,,,,1,,,65,0
2520,note_on,0,0,2,,,,,,,,,1,,,73,49
2520,note_on,120,0,2,,,,,,,,,1,,,68,0
2540,note_on,20,0,2,,,,,,,,,1,,,73,0
2540,note_on,21,0,3,,,,,,,,,2,,,56,88
2540,note_on,20,0,1,,,,,,,,,0,,,68,88
2540,note_on,0,0,2,,,,,,,,,1,,,65,0
2540,note_on,0,0,4,,,,,,,,,3,,,53,0
2540,note_on,20,0,4,,,,,,,,,3,,,61,0
2559,note_on,0,0,2,,,,,,,,,1,,,72,49
2559,note_on,0,0,4,,,,,,,,,3,,,60,36
2559,note_on,19,0,4,,,,,,,,,3,,,51,36
2559,note_on,19,0,2,,,,,,,,,1,,,63,49
2579,note_on,20,0,2,,,,,,,,,1,,,72,0
2579,note_on,0,0,2,,,,,,,,,1,,,63,0
2579,note_on,20,0,4,,,,,,,,,3,,,60,0
2579,note_on,0,0,4,,,,,,,,,3,,,51,0
2580,note_on,0,0,4,,,,,,,,,3,,,58,36
2580,note_on,1,0,4,,,,,,,,,3,,,49,36
2580,note_on,0,0,2,,,,,,,,,1,,,70,49
2580,note_on,1,0,2,,,,,,,,,1,,,61,49
2600,note_on,0,0,2,,,,,,,,,1,,,61,0
2600,note_on,20,0,2,,,,,,,,,1,,,70,0
2600,note_on,20,0,4,,,,,,,,,3,,,58,0
2600,note_on,0,0,1,,,,,,,,,0,,,63,88
2600,note_on,60,0,3,,,,,,,,,2,,,56,0
2600,note_on,0,0,3,,,,,,,,,2,,,51,88
2600,note_on,0,0,4,,,,,,,,,3,,,49,0
2600,note_on,60,0,1,,,,,,,,,0,,,68,0
2619,note_on,0,0,2,,,,,,,,,1,,,68,49
2619,note_on,0,0,4,,,,,,,,,3,,,56,36
2619,note_on,19,0,4,,,,,,,,,3,,,48,36
2619,note_on,19,0,2,,,,,,,,,1,,,60,49
2639,note_on,20,0,4,,,,,,,,,3,,,56,0
2639,note_on,20,0,2,,,,,,,,,1,,,68,0
2639,note_on,0,0,4,,,,,,,,,3,,,48,0
2639,note_on,0,0,2,,,,,,,,,1,,,60,0
2640,note_on,0,0,3,,,,,,,,,2,,,39,49
2640,note_on,40,0,3,,,,,,,,,2,,,51,0
2640,note_on,40,0,1,,,,,,,,,0,,,63,0
2640,control_change,0,0,3,,,,,,,,,2,64,127,,
2640,note_on,0,0,1,,,,,,,,,0,,,68,88
2640,note_on,0,0,1,,,,,,,,,0,,,63,83
2640,note_on,0,0,1,,,,,,,,,0,,,60,78
2660,note_on,20,0,3,,,,,,,,,2,,,39,0
2660,note_on,0,0,3,,,,,,,,,2,,,51,49
2679,note_on,19,0,3,,,,,,,,,2,,,56,49
2680,note_on,1,0,3,,,,,,,,,2,,,51,0
2699,note_on,19,0,3,,,,,,,,,2,,,56,0
2700,note_on,1,0,3,,,,,,,,,2,,,51,49
2720,note_on,20,0,3,,,,,,,,,2,,,51,0
2720,note_on,0,0,3,,,,,,,,,2,,,56,49
2730,note_on,90,0,1,,,,,,,,,0,,,68,0
2730,note_on,0,0,1,,,,,,,,,0,,,60,0
2730,note_on,0,0,1,,,,,,,,,0,,,60,62
2730,note_on,0,0,1,,,,,,,,,0,,,63,0
2730,note_on,0,0,1,,,,,,,,,0,,,63,62
2730,note_on,0,0,1,,,,,,,,,0,,,68,62
2739,control_change,19,0,3,,,,,,,,,2,64,0,,
2739,note_on,0,0,3,,,,,,,,,2,,,51,49
2740,note_on,1,0,3,,,,,,,,,2,,,56,0
2759,note_on,19,0,3,,,,,,,,,2,,,51,0
2760,control_change,1,0,3,,,,,,,,,2,64,127,,
2760,note_on,30,0,1,,,,,,,,,0,,,68,0
2760,note_on,0,0,1,,,,,,,,,0,,,61,75
2760,note_on,0,0,1,,,,,,,,,0,,,67,75
2760,note_on,0,0,1,,,,,,,,,0,,,63,75
2760,note_on,0,0,1,,,,,,,,,0,,,63,0
2760,note_on,0,0,1,,,,,,,,,0,,,60,0
2760,note_on,0,0,3,,,,,,,,,2,,,39,62
2780,note_on,20,0,3,,,,,,,,,2,,,39,0
2780,note_on,0,0,3,,,,,,,,,2,,,51,62
2790,note_on,0,0,1,,,,,,,,,0,,,63,0
2790,note_on,0,0,1,,,,,,,,,0,,,61,0
2790,note_on,30,0,1,,,,,,,,,0,,,67,0
2790,note_on,0,0,1,,,,,,,,,0,,,63,75
2790,note_on,0,0,1,,,,,,,,,0,,,67,75
2790,note_on,0,0,1,,,,,,,,,0,,,75,75
2790,note_on,0,0,1,,,,,,,,,0,,,61,75
2799,note_on,19,0,3,,,,,,,,,2,,,58,62
2800,note_on,1,0,3,,,,,,,,,2,,,51,0
2819,note_on,19,0,3,,,,,,,,,2,,,58,0
2820,note_on,1,0,3,,,,,,,,,2,,,51,62
2840,note_on,0,0,3,,,,,,,,,2,,,58,62
2840,note_on,20,0,3,,,,,,,,,2,,,51,0
2850,note_on,0,0,1,,,,,,,,,0,,,67,75
2850,note_on,0,0,1,,,,,,,,,0,,,61,0
2850,note_on,0,0,1,,,,,,,,,0,,,61,75
2850,note_on,0,0,1,,,,,,,,,0,,,63,75
2850,note_on,60,0,1,,,,,,,,,0,,,75,0
2850,note_on,0,0,1,,,,,,,,,0,,,63,0
2850,note_on,0,0,1,,,,,,,,,0,,,67,0
2859,note_on,0,0,3,,,,,,,,,2,,,51,62
2859,control_change,19,0,3,,,,,,,,,2,64,0,,
2860,note_on,1,0,3,,,,,,,,,2,,,58,0
2879,note_on,19,0,3,,,,,,,,,2,,,51,0
2880,note_on,0,0,4,,,,,,,,,3,,,44,36
2880,note_on,0,0,1,,,,,,,,,0,,,61,0
2880,note_on,30,0,1,,,,,,,,,0,,,67,0
2880,control_change,241,0,4,,,,,,,,,3,64,127,,
2880,note_on,0,0,1,,,,,,,,,0,,,63,75
2880,note_on,0,0,1,,,,,,,,,0,,,63,0
2880,note_on,0,0,1,,,,,,,,,0,,,60,75
2880,note_on,0,0,1,,,,,,,,,0,,,68,75
2900,note_on,0,0,4,,,,,,,,,3,,,51,36
2900,note_on,20,0,4,,,,,,,,,3,,,44,0
2919,note_on,19,0,4,,,,,,,,,3,,,56,36
2920,note_on,1,0,4,,,,,,,,,3,,,51,0
2939,note_on,19,0,4,,,,,,,,,3,,,56,0
2940,note_on,1,0,4,,,,,,,,,3,,,51,36
2960,note_on,20,0,4,,,,,,,,,3,,,51,0
2960,note_on,0,0,4,,,,,,,,,3,,,56,36
2979,control_change,19,0,4,,,,,,,,,3,64,0,,
2979,note_on,0,0,4,,,,,,,,,3,,,51,36
2980,note_on,1,0,4,,,,,,,,,3,,,56,0
2999,note_on,19,0,4,,,,,,,,,3,,,51,0
3000,note_on,0,0,1,,,,,,,,,0,,,60,0
3000,control_change,1,0,4,,,,,,,,,3,64,127,,
3000,note_on,120,0,1,,,,,,,,,0,,,68,0
3000,note_on,0,0,1,,,,,,,,,0,,,63,0
3000,note_on,0,0,4,,,,,,,,,3,,,60,36
3020,note_on,20,0,4,,,,,,,,,3,,,60,0
3020,note_on,0,0,4,,,,,,,,,3,,,51,36
3039,note_on,19,0,4,,,,,,,,,3,,,60,36
3040,note_on,1,0,4,,,,,,,,,3,,,51,0
3059,note_on,19,0,4,,,,,,,,,3,,,60,0
3060,note_on,181,0,3,,,,,,,,,2,,,63,88
3080,note_on,21,0,4,,,,,,,,,3,,,51,36
3099,note_on,0,0,4,,,,,,,,,3,,,63,36
3099,control_change,19,0,4,,,,,,,,,3,64,0,,
3100,note_on,1,0,4,,,,,,,,,3,,,51,0
3119,note_on,19,0,4,,,,,,,,,3,,,63,0
3120,note_on,1,0,4,,,,,,,,,3,,,55,49
3120,note_on,120,0,1,,,,,,,,,0,,,75,75
3120,control_change,481,0,2,,,,,,,,,1,64,127,,
3120,note_on,60,0,3,,,,,,,,,2,,,63,0
3120,note_on,0,0,3,,,,,,,,,2,,,58,88
3120,note_on,0,0,2,,,,,,,,,1,,,70,49
3140,note_on,0,0,2,,,,,,,,,1,,,63,49
3140,note_on,20,0,2,,,,,,,,,1,,,70,0
3159,note_on,19,0,2,,,,,,,,,1,,,70,49
3160,note_on,1,0,2,,,,,,,,,1,,,63,0
3179,note_on,19,0,2,,,,,,,,,1,,,70,0
3180,note_on,60,0,4,,,,,,,,,3,,,55,0
3180,note_on,0,0,4,,,,,,,,,3,,,53,62
3180,note_on,0,0,3,,,,,,,,,2,,,56,75
3180,note_on,60,0,3,,,,,,,,,2,,,58,0
3180,note_on,1,0,2,,,,,,,,,1,,,68,49
3200,note_on,0,0,2,,,,,,,,,1,,,63,49
3200,note_on,20,0,2,,,,,,,,,1,,,68,0
3219,control_change,19,0,2,,,,,,,,,1,64,0,,
3219,note_on,0,0,2,,,,,,,,,1,,,70,49
3220,note_on,1,0,2,,,,,,,,,1,,,63,0
3225,note_on,45,0,3,,,,,,,,,2,,,56,0
3225,note_on,45,0,4,,,,,,,,,3,,,53,0
3225,note_on,0,0,4,,,,,,,,,3,,,55,62
3225,note_on,0,0,3,,,,,,,,,2,,,58,75
3239,note_on,19,0,2,,,,,,,,,1,,,70,0
3240,note_on,0,0,3,,,,,,,,,2,,,60,88
3240,note_on,0,0,4,,,,,,,,,3,,,56,75
3240,note_on,0,0,2,,,,,,,,,1,,,72,62
3240,note_on,15,0,3,,,,,,,,,2,,,58,0
3240,control_change,1,0,2,,,,,,,,,1,64,127,,
3240,note_on,15,0,4,,,,,,,,,3,,,55,0
3260,note_on,20,0,2,,,,,,,,,1,,,72,0
3260,note_on,0,0,2,,,,,,,,,1,,,63,62
3279,note_on,19,0,2,,,,,,,,,1,,,72,62
3280,note_on,1,0,2,,,,,,,,,1,,,63,0
3299,note_on,19,0,2,,,,,,,,,1,,,72,0
3300,note_on,1,0,2,,,,,,,,,1,,,63,62
3320,note_on,0,0,2,,,,,,,,,1,,,72,62
3320,note_on,20,0,2,,,,,,,,,1,,,63,0
3330,note_on,90,0,3,,,,,,,,,2,,,60,0
3330,note_on,0,0,3,,,,,,,,,2,,,60,88
3339,note_on,0,0,2,,,,,,,,,1,,,63,62
3339,control_change,19,0,2,,,,,,,,,1,64,0,,
3340,note_on,1,0,2,,,,,,,,,1,,,72,0
3359,note_on,19,0,2,,,,,,,,,1,,,63,0
3360,note_on,0,0,2,,,,,,,,,1,,,73,62
3360,note_on,0,0,3,,,,,,,,,2,,,63,88
3360,note_on,0,0,4,,,,,,,,,3,,,58,75
3360,note_on,120,0,4,,,,,,,,,3,,,56,0
3360,control_change,1,0,2,,,,,,,,,1,64,127,,
3360,note_on,30,0,3,,,,,,,,,2,,,60,0
3380,note_on,20,0,2,,,,,,,,,1,,,73,0
3380,note_on,0,0,2,,,,,,,,,1,,,63,62
3390,note_on,30,0,3,,,,,,,,,2,,,63,0
3390,note_on,0,0,3,,,,,,,,,2,,,61,88
3399,note_on,19,0,2,,,,,,,,,1,,,73,62
3400,note_on,1,0,2,,,,,,,,,1,,,63,0
3419,note_on,19,0,2,,,,,,,,,1,,,73,0
3420,note_on,1,0,2,,,,,,,,,1,,,63,62
3440,note_on,20,0,2,,,,,,,,,1,,,63,0
3440,note_on,0,0,2,,,,,,,,,1,,,73,62
3450,note_on,0,0,4,,,,,,,,,3,,,56,62
3450,note_on,0,0,3,,,,,,,,,2,,,60,75
3450,note_on,60,0,3,,,,,,,,,2,,,61,0
3450,note_on,90,0,4,,,,,,,,,3,,,58,0
3459,note_on,0,0,2,,,,,,,,,1,,,72,62
3459,control_change,19,0,2,,,,,,,,,1,64,0,,
3460,note_on,1,0,2,,,,,,,,,1,,,73,0
3479,note_on,19,0,2,,,,,,,,,1,,,72,0
3480,note_on,0,0,3,,,,,,,,,2,,,58,62
3480,control_change,1,0,2,,,,,,,,,1,64,127,,
3480,note_on,0,0,4,,,,,,,,,3,,,55,49
3480,note_on,30,0,4,,,,,,,,,3,,,56,0
3480,note_on,0,0,2,,,,,,,,,1,,,70,49
3480,note_on,30,0,3,,,,,,,,,2,,,60,0
3500,note_on,20,0,2,,,,,,,,,1,,,70,0
3500,note_on,0,0,2,,,,,,,,,1,,,63,49
3519,note_on,19,0,2,,,,,,,,,1,,,70,49
3520,note_on,1,0,2,,,,,,,,,1,,,63,0
3539,note_on,19,0,2,,,,,,,,,1,,,70,0
3540,note_on,1,0,2,,,,,,,,,1,,,63,49
3560,note_on,20,0,2,,,,,,,,,1,,,63,0
3560,note_on,0,0,2,,,,,,,,,1,,,70,49
3579,control_change,19,0,2,,,,,,,,,1,64,0,,
3579,note_on,0,0,2,,,,,,,,,1,,,63,49
3580,note_on,1,0,2,,,,,,,,,1,,,70,0
3599,note_on,19,0,2,,,,,,,,,1,,,63,0
3600,note_on,0,0,4,,,,,,,,,3,,,55,49
3600,control_change,1,0,2,,,,,,,,,1,64,127,,
3600,note_on,0,0,1,,,,,,,,,0,,,75,75
3600,note_on,120,0,4,,,,,,,,,3,,,55,0
3600,note_on,0,0,3,,,,,,,,,2,,,58,88
3600,note_on,0,0,2,,,,,,,,,1,,,70,49
3600,note_on,120,0,3,,,,,,,,,2,,,58,0
3600,note_on,480,0,1,,,,,,,,,0,,,75,0
3620,note_on,20,0,2,,,,,,,,,1,,,70,0
3620,note_on,0,0,2,,,,,,,,,1,,,63,49
3639,note_on,19,0,2,,,,,,,,,1,,,70,49
3640,note_on,1,0,2,,,,,,,,,1,,,63,0
3659,note_on,19,0,2,,,,,,,,,1,,,70,0
3660,note_on,1,0,2,,,,,,,,,1,,,68,49
3660,note_on,60,0,3,,,,,,,,,2,,,58,0
3660,note_on,0,0,4,,,,,,,,,3,,,53,62
3660,note_on,60,0,4,,,,,,,,,3,,,55,0
3660,note_on,0,0,3,,,,,,,,,2,,,56,75
3680,note_on,0,0,2,,,,,,,,,1,,,63,49
3680,note_on,20,0,2,,,,,,,,,1,,,68,0
3699,control_change,19,0,2,,,,,,,,,1,64,0,,
3699,note_on,0,0,2,,,,,,,,,1,,,70,49
3700,note_on,1,0,2,,,,,,,,,1,,,63,0
3705,note_on,45,0,4,,,,,,,,,3,,,53,0
3705,note_on,45,0,3,,,,,,,,,2,,,56,0
3705,note_on,0,0,3,,,,,,,,,2,,,58,75
3705,note_on,0,0,4,,,,,,,,,3,,,55,62
3719,note_on,19,0,2,,,,,,,,,1,,,70,0
3720,note_on,15,0,4,,,,,,,,,3,,,55,0
3720,note_on,0,0,3,,,,,,,,,2,,,60,88
3720,note_on,0,0,2,,,,,,,,,1,,,72,62
3720,control_change,1,0,2,,,,,,,,,1,64,127,,
3720,note_on,0,0,4,,,,,,,,,3,,,56,75
3720,note_on,15,0,3,,,,,,,,,2,,,58,0
3740,note_on,0,0,2,,,,,,,,,1,,,63,62
3740,note_on,20,0,2,,,,,,,,,1,,,72,0
3759,note_on,19,0,2,,,,,,,,,1,,,72,62
3760,note_on,1,0,2,,,,,,,,,1,,,63,0
3779,note_on,19,0,2,,,,,,,,,1,,,72,0
3780,note_on,1,0,2,,,,,,,,,1,,,63,62
3800,note_on,0,0,2,,,,,,,,,1,,,72,62
3800,note_on,20,0,2,,,,,,,,,1,,,63,0
3810,note_on,0,0,3,,,,,,,,,2,,,60,88
3810,note_on,90,0,3,,,,,,,,,2,,,60,0
3819,note_on,0,0,2,,,,,,,,,1,,,63,62
3819,control_change,19,0,2,,,,,,,,,1,64,0,,
3820,note_on,1,0,2,,,,,,,,,1,,,72,0
3839,note_on,19,0,2,,,,,,,,,1,,,63,0
3840,note_on,120,0,4,,,,,,,,,3,,,56,0
3840,note_on,30,0,3,,,,,,,,,2,,,60,0
3840,note_on,0,0,4,,,,,,,,,3,,,58,75
3840,note_on,0,0,3,,,,,,,,,2,,,63,88
3840,note_on,0,0,2,,,,,,,,,1,,,73,62
3840,control_change,1,0,2,,,,,,,,,1,64,127,,
3860,note_on,20,0,2,,,,,,,,,1,,,73,0
3860,note_on,0,0,2,,,,,,,,,1,,,63,62
3870,note_on,30,0,3,,,,,,,,,2,,,63,0
3870,note_on,0,0,3,,,,,,,,,2,,,61,88
3879,note_on,19,0,2,,,,,,,,,1,,,73,62
3880,note_on,1,0,2,,,,,,,,,1,,,63,0
3899,note_on,19,0,2,,,,,,,,,1,,,73,0
3900,note_on,1,0,2,,,,,,,,,1,,,63,62
3920,note_on,0,0,2,,,,,,,,,1,,,73,62
3920,note_on,20,0,2,,,,,,,,,1,,,63,0
3930,note_on,90,0,4,,,,,,,,,3,,,58,0
3930,note_on,0,0,4,,,,,,,,,3,,,56,62
3930,note_on,60,0,3,,,,,,,,,2,,,61,0
3930,note_on,0,0,3,,,,,,,,,2,,,60,75
3939,control_change,19,0,2,,,,,,,,,1,64,0,,
3939,note_on,0,0,2,,,,,,,,,1,,,72,62
3940,note_on,1,0,2,,,,,,,,,1,,,73,0
3959,note_on,19,0,2,,,,,,,,,1,,,72,0
3960,note_on,0,0,3,,,,,,,,,2,,,58,62
3960,note_on,0,0,2,,,,,,,,,1,,,70,49
3960,note_on,30,0,4,,,,,,,,,3,,,56,0
3960,note_on,30,0,3,,,,,,,,,2,,,60,0
3960,control_change,1,0,2,,,,,,,,,1,64,127,,
3960,note_on,0,0,4,,,,,,,,,3,,,55,49
3980,note_on,0,0,2,,,,,,,,,1,,,63,49
3980,note_on,20,0,2,,,,,,,,,1,,,70,0
3999,note_on,19,0,2,,,,,,,,,1,,,70,49
4000,note_on,1,0,2,,,,,,,,,1,,,63,0
4019,note_on,19,0,2,,,,,,,,,1,,,70,0
4020,note_on,1,0,2,,,,,,,,,1,,,63,49
4040,note_on,0,0,2,,,,,,,,,1,,,70,49
4040,note_on,20,0,2,,,,,,,,,1,,,63,0
4059,note_on,0,0,2,,,,,,,,,1,,,63,49
4059,control_change,19,0,2,,,,,,,,,1,64,0,,
4060,note_on,1,0,2,,,,,,,,,1,,,70,0
4079,note_on,19,0,2,,,,,,,,,1,,,63,0
4080,note_on,480,0,1,,,,,,,,,0,,,75,0
4080,note_on,120,0,4,,,,,,,,,3,,,55,0
4080,note_on,0,0,3,,,,,,,,,2,,,59,88
4080,note_on,120,0,3,,,,,,,,,2,,,58,0
4080,note_on,0,0,4,,,,,,,,,3,,,44,49
4086,note_on,6,0,3,,,,,,,,,2,,,59,0
4100,control_change,20,0,1,,,,,,,,,0,64,127,,
4100,note_on,0,0,1,,,,,,,,,0,,,62,49
4119,note_on,19,0,1,,,,,,,,,0,,,65,49
4120,note_on,1,0,1,,,,,,,,,0,,,62,0
4139,note_on,19,0,1,,,,,,,,,0,,,65,0
4140,note_on,60,0,4,,,,,,,,,3,,,44,0
4140,note_on,54,0,3,,,,,,,,,2,,,59,88
4140,note_on,0,0,4,,,,,,,,,3,,,50,49
4140,note_on,0,0,4,,,,,,,,,3,,,53,49
4140,note_on,1,0,1,,,,,,,,,0,,,71,49
4144,note_on,4,0,3,,,,,,,,,2,,,59,0
4160,note_on,20,0,1,,,,,,,,,0,,,71,0
4160,note_on,0,0,1,,,,,,,,,0,,,65,49
4179,note_on,0,0,1,,,,,,,,,0,,,62,49
4179,control_change,19,0,1,,,,,,,,,0,64,0,,
4180,note_on,1,0,1,,,,,,,,,0,,,65,0
4185,note_on,41,0,3,,,,,,,,,2,,,59,88
4189,note_on,4,0,3,,,,,,,,,2,,,59,0
4199,note_on,19,0,1,,,,,,,,,0,,,62,0
4200,note_on,0,0,4,,,,,,,,,3,,,50,0
4200,note_on,0,0,4,,,,,,,,,3,,,43,49
4200,note_on,11,0,3,,,,,,,,,2,,,59,88
4200,note_on,60,0,4,,,,,,,,,3,,,53,0
4206,note_on,6,0,3,,,,,,,,,2,,,59,0
4220,control_change,21,0,1,,,,,,,,,0,64,127,,
4220,note_on,0,0,1,,,,,,,,,0,,,63,49
4239,note_on,19,0,1,,,,,,,,,0,,,67,49
4240,note_on,1,0,1,,,,,,,,,0,,,63,0
4259,note_on,19,0,1,,,,,,,,,0,,,67,0
4260,note_on,54,0,3,,,,,,,,,2,,,58,88
4260,note_on,1,0,1,,,,,,,,,0,,,70,49
4260,note_on,0,0,4,,,,,,,,,3,,,55,49
4260,note_on,0,0,4,,,,,,,,,3,,,51,49
4260,note_on,60,0,4,,,,,,,,,3,,,43,0
4266,note_on,6,0,3,,,,,,,,,2,,,58,0
4280,note_on,20,0,1,,,,,,,,,0,,,70,0
4280,note_on,0,0,1,,,,,,,,,0,,,67,49
4299,control_change,19,0,1,,,,,,,,,0,64,0,,
4299,note_on,0,0,1,,,,,,,,,0,,,63,49
4300,note_on,1,0,1,,,,,,,,,0,,,67,0
4319,note_on,19,0,1,,,,,,,,,0,,,63,0
4320,note_on,0,0,4,,,,,,,,,3,,,44,49
4320,note_on,60,0,4,,,,,,,,,3,,,55,0
4320,note_on,0,0,4,,,,,,,,,3,,,51,0
4320,note_on,54,0,3,,,,,,,,,2,,,65,75
4340,control_change,21,0,1,,,,,,,,,0,64,127,,
4340,note_on,0,0,1,,,,,,,,,0,,,62,36
4359,note_on,19,0,1,,,,,,,,,0,,,65,36
4360,note_on,1,0,1,,,,,,,,,0,,,62,0
4379,note_on,19,0,1,,,,,,,,,0,,,65,0
4380,note_on,0,0,4,,,,,,,,,3,,,58,49
4380,note_on,1,0,1,,,,,,,,,0,,,70,36
4380,note_on,60,0,4,,,,,,,,,3,,,44,0
4380,note_on,0,0,4,,,,,,,,,3,,,56,49
4400,control_change,0,0,1,,,,,,,,,0,64,0,,
4400,note_on,0,0,1,,,,,,,,,0,,,65,36
4400,note_on,20,0,1,,,,,,,,,0,,,70,0
4419,note_on,99,0,3,,,,,,,,,2,,,62,75
4420,note_on,1,0,3,,,,,,,,,2,,,65,0
4420,note_on,20,0,1,,,,,,,,,0,,,65,0
4423,note_on,3,0,3,,,,,,,,,2,,,62,0
4440,note_on,17,0,3,,,,,,,,,2,,,63,75
4440,note_on,0,0,4,,,,,,,,,3,,,56,0
4440,note_on,0,0,4,,,,,,,,,3,,,43,49
4440,note_on,60,0,4,,,,,,,,,3,,,58,0
4460,note_on,0,0,1,,,,,,,,,0,,,67,36
4460,control_change,40,0,1,,,,,,,,,0,64,127,,
4479,note_on,19,0,1,,,,,,,,,0,,,70,36
4480,note_on,1,0,1,,,,,,,,,0,,,67,0
4499,note_on,19,0,1,,,,,,,,,0,,,70,0
4500,note_on,60,0,4,,,,,,,,,3,,,43,0
4500,note_on,0,0,4,,,,,,,,,3,,,58,49
4500,note_on,0,0,4,,,,,,,,,3,,,55,49
4500,note_on,1,0,1,,,,,,,,,0,,,67,36
4520,note_on,20,0,1,,,,,,,,,0,,,67,0
4520,note_on,0,0,1,,,,,,,,,0,,,63,36
4539,control_change,19,0,1,,,,,,,,,0,64,0,,
4539,note_on,0,0,1,,,,,,,,,0,,,63,36
4540,note_on,1,0,1,,,,,,,,,0,,,63,0
4559,note_on,19,0,1,,,,,,,,,0,,,63,0
4560,note_on,1,0,1,,,,,,,,,0,,,72,75
4560,note_on,0,0,3,,,,,,,,,2,,,56,62
4560,note_on,0,0,2,,,,,,,,,1,,,63,36
4560,note_on,120,0,3,,,,,,,,,2,,,63,0
4560,note_on,0,0,3,,,,,,,,,2,,,60,62
4560,note_on,0,0,4,,,,,,,,,3,,,55,0
4560,note_on,60,0,4,,,,,,,,,3,,,58,0
4560,control_change,481,0,2,,,,,,,,,1,64,127,,
4580,note_on,0,0,2,,,,,,,,,1,,,63,36
4580,note_on,20,0,2,,,,,,,,,1,,,63,0
4599,note_on,19,0,2,,,,,,,,,1,,,63,36
4600,note_on,1,0,2,,,,,,,,,1,,,63,0
4619,note_on,19,0,2,,,,,,,,,1,,,63,0
4620,note_on,1,0,2,,,,,,,,,1,,,63,36
4620,note_on,60,0,1,,,,,,,,,0,,,72,0
4620,note_on,0,0,3,,,,,,,,,2,,,56,0
4620,note_on,0,0,1,,,,,,,,,0,,,73,75
4620,note_on,0,0,3,,,,,,,,,2,,,58,62
4620,note_on,60,0,3,,,,,,,,,2,,,60,0
4620,note_on,0,0,3,,,,,,,,,2,,,61,62
4640,note_on,20,0,2,,,,,,,,,1,,,63,0
4640,note_on,0,0,2,,,,,,,,,1,,,63,36
4659,note_on,19,0,2,,,,,,,,,1,,,63,36
4660,note_on,1,0,2,,,,,,,,,1,,,63,0
4665,note_on,0,0,3,,,,,,,,,2,,,58,0
4665,note_on,0,0,3,,,,,,,,,2,,,55,62
4665,note_on,0,0,3,,,,,,,,,2,,,58,62
4665,note_on,0,0,1,,,,,,,,,0,,,70,75
4665,note_on,45,0,3,,,,,,,,,2,,,61,0
4665,note_on,45,0,1,,,,,,,,,0,,,73,0
4679,note_on,19,0,2,,,,,,,,,1,,,63,0
4680,note_on,0,0,3,,,,,,,,,2,,,55,0
4680,note_on,0,0,3,,,,,,,,,2,,,60,80
4680,note_on,0,0,3,,,,,,,,,2,,,63,88
4680,note_on,15,0,1,,,,,,,,,0,,,70,0
4680,note_on,1,0,2,,,,,,,,,1,,,63,36
4680,note_on,15,0,3,,,,,,,,,2,,,58,0
4680,note_on,0,0,1,,,,,,,,,0,,,75,101
4700,note_on,0,0,2,,,,,,,,,1,,,63,36
4700,note_on,20,0,2,,,,,,,,,1,,,63,0
4719,note_on,19,0,2,,,,,,,,,1,,,63,36
4720,note_on,1,0,2,,,,,,,,,1,,,63,0
4739,note_on,19,0,2,,,,,,,,,1,,,63,0
4740,note_on,0,0,3,,,,,,,,,2,,,56,62
4740,note_on,0,0,3,,,,,,,,,2,,,60,62
4740,note_on,0,0,3,,,,,,,,,2,,,60,0
4740,note_on,60,0,1,,,,,,,,,0,,,75,0
4740,note_on,60,0,3,,,,,,,,,2,,,63,0
4740,note_on,0,0,1,,,,,,,,,0,,,72,75
4740,note_on,1,0,2,,,,,,,,,1,,,63,36
4760,note_on,0,0,2,,,,,,,,,1,,,63,36
4760,note_on,20,0,2,,,,,,,,,1,,,63,0
4779,control_change,19,0,2,,,,,,,,,1,64,0,,
4779,note_on,0,0,2,,,,,,,,,1,,,63,36
4780,note_on,1,0,2,,,,,,,,,1,,,63,0
4799,note_on,19,0,2,,,,,,,,,1,,,63,0
4800,note_on,60,0,1,,,,,,,,,0,,,72,0
4800,note_on,0,0,1,,,,,,,,,0,,,60,88
4800,control_change,240,0,4,,,,,,,,,3,64,127,,
4800,note_on,0,0,4,,,,,,,,,3,,,51,36
4800,note_on,0,0,1,,,,,,,,,0,,,72,88
4800,control_change,1,0,2,,,,,,,,,1,64,127,,
4800,note_on,0,0,3,,,,,,,,,2,,,44,75
4800,note_on,0,0,3,,,,,,,,,2,,,56,0
4800,note_on,0,0,3,,,,,,,,,2,,,56,75
4800,note_on,0,0,2,,,,,,,,,1,,,63,49
4800,note_on,60,0,3,,,,,,,,,2,,,60,0
4820,note_on,0,0,2,,,,,,,,,1,,,63,49
4820,note_on,20,0,2,,,,,,,,,1,,,63,0
4820,note_on,20,0,4,,,,,,,,,3,,,51,0
4820,note_on,0,0,4,,,,,,,,,3,,,51,36
4839,note_on,19,0,2,,,,,,,,,1,,,63,49
4839,note_on,19,0,4,,,,,,,,,3,,,51,36
4840,note_on,1,0,4,,,,,,,,,3,,,51,0
4840,note_on,1,0,2,,,,,,,,,1,,,63,0
4859,note_on,19,0,2,,,,,,,,,1,,,63,0
4859,note_on,19,0,4,,,,,,,,,3,,,51,0
4860,note_on,0,0,3,,,,,,,,,2,,,46,75
4860,note_on,0,0,1,,,,,,,,,0,,,61,88
4860,note_on,0,0,3,,,,,,,,,2,,,58,75
4860,note_on,1,0,4,,,,,,,,,3,,,51,36
4860,note_on,0,0,1,,,,,,,,,0,,,73,88
4860,note_on,1,0,2,,,,,,,,,1,,,63,49
4860,note_on,60,0,3,,,,,,,,,2,,,56,0
4860,note_on,0,0,1,,,,,,,,,0,,,60,0
4860,note_on,60,0,1,,,,,,,,,0,,,72,0
4860,note_on,0,0,3,,,,,,,,,2,,,44,0
4880,note_on,20,0,2,,,,,,,,,1,,,63,0
4880,note_on,0,0,4,,,,,,,,,3,,,51,36
4880,note_on,20,0,4,,,,,,,,,3,,,51,0
4880,note_on,0,0,2,,,,,,,,,1,,,63,49
4899,note_on,19,0,4,,,,,,,,,3,,,51,36
4899,note_on,19,0,2,,,,,,,,,1,,,63,49
4900,note_on,1,0,4,,,,,,,,,3,,,51,0
4900,note_on,1,0,2,,,,,,,,,1,,,63,0
4905,note_on,0,0,1,,,,,,,,,0,,,61,0
4905,note_on,45,0,1,,,,,,,,,0,,,73,0
4905,note_on,45,0,3,,,,,,,,,2,,,58,0
4905,note_on,0,0,1,,,,,,,,,0,,,70,88
4905,note_on,0,0,3,,,,,,,,,2,,,43,75
4905,note_on,0,0,3,,,,,,,,,2,,,55,75
4905,note_on,0,0,3,,,,,,,,,2,,,46,0
4905,note_on,0,0,1,,,,,,,,,0,,,58,88
4919,note_on,19,0,4,,,,,,,,,3,,,51,0
4919,note_on,19,0,2,,,,,,,,,1,,,63,0
4920,note_on,0,0,3,,,,,,,,,2,,,60,114
4920,note_on,0,0,3,,,,,,,,,2,,,48,106
4920,note_on,0,0,1,,,,,,,,,0,,,75,127
4920,note_on,0,0,3,,,,,,,,,2,,,43,0
4920,note_on,0,0,1,,,,,,,,,0,,,58,0
4920,note_on,1,0,2,,,,,,,,,1,,,63,49
4920,note_on,15,0,3,,,,,,,,,2,,,55,0
4920,note_on,1,0,4,,,,,,,,,3,,,51,36
4920,note_on,15,0,1,,,,,,,,,0,,,70,0
4920,note_on,0,0,1,,,,,,,,,0,,,63,119
4940,note_on,20,0,4,,,,,,,,,3,,,51,0
4940,note_on,20,0,2,,,,,,,,,1,,,63,0
4940,note_on,0,0,2,,,,,,,,,1,,,63,49
4940,note_on,0,0,4,,,,,,,,,3,,,51,36
4959,note_on,19,0,2,,,,,,,,,1,,,63,49
4959,note_on,19,0,4,,,,,,,,,3,,,51,36
4960,note_on,1,0,2,,,,,,,,,1,,,63,0
4960,note_on,1,0,4,,,,,,,,,3,,,51,0
4979,note_on,19,0,2,,,,,,,,,1,,,63,0
4979,note_on,19,0,4,,,,,,,,,3,,,51,0
4980,note_on,0,0,3,,,,,,,,,2,,,48,0
4980,note_on,0,0,3,,,,,,,,,2,,,56,88
4980,note_on,0,0,1,,,,,,,,,0,,,72,101
4980,note_on,1,0,4,,,,,,,,,3,,,51,36
4980,note_on,0,0,1,,,,,,,,,0,,,63,0
4980,note_on,0,0,3,,,,,,,,,2,,,44,88
4980,note_on,60,0,3,,,,,,,,,2,,,60,0
4980,note_on,1,0,2,,,,,,,,,1,,,63,49
4980,note_on,0,0,1,,,,,,,,,0,,,60,101
4980,note_on,60,0,1,,,,,,,,,0,,,75,0
5000,note_on,20,0,4,,,,,,,,,3,,,51,0
5000,note_on,20,0,2,,,,,,,,,1,,,63,0
5000,note_on,0,0,2,,,,,,,,,1,,,63,49
5000,note_on,0,0,4,,,,,,,,,3,,,51,36
5019,control_change,19,0,4,,,,,,,,,3,64,0,,
5019,note_on,0,0,2,,,,,,,,,1,,,63,49
5019,note_on,0,0,4,,,,,,,,,3,,,51,36
5019,control_change,19,0,2,,,,,,,,,1,64,0,,
5020,note_on,1,0,2,,,,,,,,,1,,,63,0
5020,note_on,1,0,4,,,,,,,,,3,,,51,0
5039,note_on,19,0,4,,,,,,,,,3,,,51,0
5039,note_on,19,0,2,,,,,,,,,1,,,63,0
5040,note_on,60,0,1,,,,,,,,,0,,,72,0
5040,note_on,0,0,1,,,,,,,,,0,,,60,0
5040,note_on,0,0,3,,,,,,,,,2,,,44,0
5040,note_on,60,0,3,,,,,,,,,2,,,56,0
5070,note_on,30,0,1,,,,,,,,,0,,,66,114
5070,note_on,0,0,1,,,,,,,,,0,,,68,114
5070,note_on,30,0,3,,,,,,,,,2,,,60,101
5100,note_on,0,0,1,,,,,,,,,0,,,66,0
5100,note_on,30,0,1,,,,,,,,,0,,,68,0
5100,note_on,30,0,3,,,,,,,,,2,,,60,0
5100,note_on,0,0,1,,,,,,,,,0,,,65,114
5100,note_on,0,0,3,,,,,,,,,2,,,61,101
5100,note_on,0,0,1,,,,,,,,,0,,,68,114
5130,note_on,0,0,1,,,,,,,,,0,,,65,0
5130,note_on,0,0,1,,,,,,,,,0,,,70,114
5130,note_on,0,0,1,,,,,,,,,0,,,68,114
5130,note_on,30,0,1,,,,,,,,,0,,,68,0
5130,note_on,0,0,3,,,,,,,,,2,,,62,101
5130,note_on,30,0,3,,,,,,,,,2,,,61,0
5160,note_on,30,0,1,,,,,,,,,0,,,70,0
5160,note_on,0,0,3,,,,,,,,,2,,,63,101
5160,note_on,0,0,1,,,,,,,,,0,,,68,0
5160,note_on,30,0,3,,,,,,,,,2,,,62,0
5160,note_on,0,0,1,,,,,,,,,0,,,67,114
5160,note_on,0,0,1,,,,,,,,,0,,,70,114
5190,note_on,0,0,1,,,,,,,,,0,,,67,114
5190,note_on,0,0,1,,,,,,,,,0,,,67,0
5190,note_on,0,0,3,,,,,,,,,2,,,64,101
5190,note_on,30,0,1,,,,,,,,,0,,,70,0
5190,note_on,0,0,1,,,,,,,,,0,,,73,114
5190,note_on,30,0,3,,,,,,,,,2,,,63,0
5250,note_on,0,0,1,,,,,,,,,0,,,72,114
5250,note_on,0,0,1,,,,,,,,,0,,,67,0
5250,note_on,60,0,3,,,,,,,,,2,,,64,0
5250,note_on,60,0,1,,,,,,,,,0,,,73,0
5250,note_on,0,0,3,,,,,,,,,2,,,65,101
5250,note_on,0,0,1,,,,,,,,,0,,,68,114
5280,note_on,241,0,2,,,,,,,,,1,,,65,49
5280,note_on,30,0,1,,,,,,,,,0,,,72,0
5280,note_on,0,0,1,,,,,,,,,0,,,77,127
5280,note_on,0,0,2,,,,,,,,,1,,,68,49
5280,note_on,30,0,3,,,,,,,,,2,,,65,0
5280,note_on,0,0,3,,,,,,,,,2,,,61,101
5280,note_on,0,0,3,,,,,,,,,2,,,56,101
5280,note_on,0,0,3,,,,,,,,,2,,,49,101
5280,note_on,0,0,1,,,,,,,,,0,,,68,0
5370,note_on,0,0,1,,,,,,,,,0,,,75,114
5370,note_on,90,0,1,,,,,,,,,0,,,77,0
5385,note_on,15,0,1,,,,,,,,,0,,,75,0
5385,note_on,0,0,1,,,,,,,,,0,,,73,114
5400,note_on,0,0,2,,,,,,,,,1,,,63,62
5400,note_on,0,0,3,,,,,,,,,2,,,56,62
5400,note_on,15,0,1,,,,,,,,,0,,,73,0
5400,note_on,0,0,3,,,,,,,,,2,,,49,0
5400,note_on,0,0,3,,,,,,,,,2,,,51,62
5400,note_on,0,0,3,,,,,,,,,2,,,56,0
5400,note_on,120,0,3,,,,,,,,,2,,,61,0
5400,note_on,0,0,2,,,,,,,,,1,,,65,0
5400,note_on,0,0,3,,,,,,,,,2,,,60,62
5400,note_on,120,0,2,,,,,,,,,1,,,68,0
5400,note_on,0,0,2,,,,,,,,,1,,,68,62
5400,note_on,0,0,1,,,,,,,,,0,,,72,75
5460,note_on,60,0,3,,,,,,,,,2,,,60,0
5460,note_on,0,0,3,,,,,,,,,2,,,56,0
5460,note_on,0,0,3,,,,,,,,,2,,,51,0
5460,note_on,60,0,1,,,,,,,,,0,,,72,0
5460,note_on,60,0,2,,,,,,,,,1,,,68,0
5460,note_on,0,0,1,,,,,,,,,0,,,72,75
5460,note_on,0,0,2,,,,,,,,,1,,,63,0
5475,note_on,15,0,1,,,,,,,,,0,,,72,0
5475,note_on,0,0,1,,,,,,,,,0,,,72,75
5490,note_on,15,0,1,,,,,,,,,0,,,72,0
5490,note_on,0,0,1,,,,,,,,,0,,,73,75
5505,note_on,15,0,1,,,,,,,,,0,,,73,0
5505,note_on,0,0,1,,,,,,,,,0,,,72,75
5520,note_on,0,0,1,,,,,,,,,0,,,70,75
5520,note_on,15,0,1,,,,,,,,,0,,,72,0
5535,note_on,0,0,1,,,,,,,,,0,,,72,75
5535,note_on,15,0,1,,,,,,,,,0,,,70,0
5540,note_on,5,0,1,,,,,,,,,0,,,39,75
5545,note_on,5,0,1,,,,,,,,,0,,,51,75
5550,note_on,5,0,1,,,,,,,,,0,,,58,75
5555,note_on,5,0,1,,,,,,,,,0,,,61,75
5560,note_on,5,0,1,,,,,,,,,0,,,63,75
5565,note_on,5,0,1,,,,,,,,,0,,,72,0
5565,note_on,0,0,1,,,,,,,,,0,,,73,75
5610,note_on,45,0,1,,,,,,,,,0,,,51,0
5610,note_on,0,0,1,,,,,,,,,0,,,58,0
5610,note_on,0,0,1,,,,,,,,,0,,,61,0
5610,note_on,0,0,1,,,,,,,,,0,,,63,0
5610,note_on,0,0,1,,,,,,,,,0,,,39,0
5670,note_on,60,0,1,,,,,,,,,0,,,73,0
5670,note_on,0,0,1,,,,,,,,,0,,,67,75
5760,note_on,90,0,1,,,,,,,,,0,,,67,0
5760,note_on,721,0,4,,,,,,,,,3,,,44,49
5760,set_tempo,5760,1,0,,,,,,2068966,,,,,,,
5760,note_on,0,0,1,,,,,,,,,0,,,72,49
5760,note_on,0,0,1,,,,,,,,,0,,,63,49
5760,note_on,0,0,1,,,,,,,,,0,,,60,49
5760,note_on,0,0,1,,,,,,,,,0,,,68,49
5780,note_on,0,0,3,,,,,,,,,2,,,51,36
5780,control_change,320,0,3,,,,,,,,,2,64,127,,
5799,note_on,19,0,3,,,,,,,,,2,,,56,36
5800,note_on,1,0,3,,,,,,,,,2,,,51,0
5819,note_on,19,0,3,,,,,,,,,2,,,56,0
5820,note_on,60,0,1,,,,,,,,,0,,,72,0
5820,note_on,1,0,3,,,,,,,,,2,,,51,36
5820,note_on,0,0,1,,,,,,,,,0,,,68,0
5820,note_on,0,0,1,,,,,,,,,0,,,63,49
5820,note_on,0,0,1,,,,,,,,,0,,,72,49
5820,note_on,0,0,1,,,,,,,,,0,,,63,0
5820,note_on,0,0,1,,,,,,,,,0,,,60,0
5840,note_on,0,0,3,,,,,,,,,2,,,56,36
5840,note_on,20,0,3,,,,,,,,,2,,,51,0
5859,note_on,0,0,3,,,,,,,,,2,,,51,36
5859,control_change,19,0,3,,,,,,,,,2,64,0,,
5860,note_on,1,0,3,,,,,,,,,2,,,56,0
5865,note_on,0,0,1,,,,,,,,,0,,,63,0
5865,note_on,0,0,1,,,,,,,,,0,,,63,49
5865,note_on,0,0,1,,,,,,,,,0,,,72,49
5865,note_on,45,0,1,,,,,,,,,0,,,72,0
5879,note_on,19,0,3,,,,,,,,,2,,,51,0
5880,note_on,0,0,1,,,,,,,,,0,,,72,49
5880,note_on,0,0,1,,,,,,,,,0,,,63,0
5880,note_on,0,0,1,,,,,,,,,0,,,63,49
5880,note_on,15,0,1,,,,,,,,,0,,,72,0
5880,note_on,0,0,4,,,,,,,,,3,,,44,49
5880,note_on,120,0,4,,,,,,,,,3,,,44,0
5900,control_change,21,0,3,,,,,,,,,2,64,127,,
5900,note_on,0,0,3,,,,,,,,,2,,,51,36
5919,note_on,19,0,3,,,,,,,,,2,,,55,36
5920,note_on,1,0,3,,,,,,,,,2,,,51,0
5939,note_on,19,0,3,,,,,,,,,2,,,55,0
5940,note_on,1,0,3,,,,,,,,,2,,,51,36
5960,note_on,0,0,3,,,,,,,,,2,,,55,36
5960,note_on,20,0,3,,,,,,,,,2,,,51,0
5970,note_on,90,0,1,,,,,,,,,0,,,72,0
5970,note_on,0,0,1,,,,,,,,,0,,,63,0
5970,note_on,0,0,1,,,,,,,,,0,,,70,49
5970,note_on,0,0,1,,,,,,,,,0,,,61,49
5979,control_change,19,0,3,,,,,,,,,2,64,0,,
5979,note_on,0,0,3,,,,,,,,,2,,,51,36
5980,note_on,1,0,3,,,,,,,,,2,,,55,0
5999,note_on,19,0,3,,,,,,,,,2,,,51,0
6000,note_on,120,0,4,,,,,,,,,3,,,44,0
6000,note_on,0,0,1,,,,,,,,,0,,,61,0
6000,note_on,0,0,1,,,,,,,,,0,,,61,49
6000,note_on,30,0,1,,,,,,,,,0,,,70,0
6000,note_on,0,0,1,,,,,,,,,0,,,70,49
6000,note_on,0,0,4,,,,,,,,,3,,,44,49
6020,control_change,21,0,3,,,,,,,,,2,64,127,,
6020,note_on,0,0,3,,,,,,,,,2,,,51,36
6030,note_on,0,0,1,,,,,,,,,0,,,60,49
6030,note_on,30,0,1,,,,,,,,,0,,,70,0
6030,note_on,0,0,1,,,,,,,,,0,,,68,49
6030,note_on,0,0,1,,,,,,,,,0,,,61,0
6039,note_on,19,0,3,,,,,,,,,2,,,56,36
6040,note_on,1,0,3,,,,,,,,,2,,,51,0
6059,note_on,19,0,3,,,,,,,,,2,,,56,0
6060,note_on,1,0,3,,,,,,,,,2,,,51,36
6060,note_on,0,0,1,,,,,,,,,0,,,59,49
6060,note_on,0,0,1,,,,,,,,,0,,,60,0
6060,note_on,30,0,1,,,,,,,,,0,,,68,0
6060,note_on,0,0,1,,,,,,,,,0,,,67,49
6080,note_on,20,0,3,,,,,,,,,2,,,51,0
6080,note_on,0,0,3,,,,,,,,,2,,,56,36
6090,note_on,0,0,1,,,,,,,,,0,,,59,0
6090,note_on,30,0,1,,,,,,,,,0,,,67,0
6090,note_on,0,0,1,,,,,,,,,0,,,60,49
6090,note_on,0,0,1,,,,,,,,,0,,,68,49
6099,note_on,0,0,3,,,,,,,,,2,,,51,36
6099,control_change,19,0,3,,,,,,,,,2,64,0,,
6100,note_on,1,0,3,,,,,,,,,2,,,56,0
6119,note_on,19,0,3,,,,,,,,,2,,,51,0
6120,note_on,30,0,1,,,,,,,,,0,,,68,0
6120,note_on,120,0,4,,,,,,,,,3,,,44,0
6120,note_on,0,0,4,,,,,,,,,3,,,44,49
6120,note_on,0,0,1,,,,,,,,,0,,,63,49
6120,note_on,0,0,1,,,,,,,,,0,,,60,0
6120,note_on,0,0,1,,,,,,,,,0,,,61,49
6140,control_change,21,0,3,,,,,,,,,2,64,127,,
6140,note_on,0,0,3,,,,,,,,,2,,,51,36
6159,note_on,19,0,3,,,,,,,,,2,,,55,36
6160,note_on,1,0,3,,,,,,,,,2,,,51,0
6179,note_on,19,0,3,,,,,,,,,2,,,55,0
6180,note_on,1,0,3,,,,,,,,,2,,,51,36
6200,note_on,0,0,3,,,,,,,,,2,,,55,36
6200,note_on,20,0,3,,,,,,,,,2,,,51,0
6219,control_change,19,0,3,,,,,,,,,2,64,0,,
6219,note_on,0,0,3,,,,,,,,,2,,,51,36
6220,note_on,1,0,3,,,,,,,,,2,,,55,0
6239,note_on,19,0,3,,,,,,,,,2,,,51,0
6240,note_on,0,0,4,,,,,,,,,3,,,44,49
6240,note_on,0,0,1,,,,,,,,,0,,,60,62
6240,note_on,0,0,1,,,,,,,,,0,,,61,0
6240,note_on,0,0,1,,,,,,,,,0,,,63,62
6240,note_on,120,0,1,,,,,,,,,0,,,63,0
6240,note_on,0,0,1,,,,,,,,,0,,,72,62
6240,note_on,120,0,4,,,,,,,,,3,,,44,0
6260,control_change,21,0,3,,,,,,,,,2,64,127,,
6260,note_on,0,0,3,,,,,,,,,2,,,51,36
6279,note_on,19,0,3,,,,,,,,,2,,,56,36
6280,note_on,1,0,3,,,,,,,,,2,,,51,0
6299,note_on,19,0,3,,,,,,,,,2,,,56,0
6300,note_on,1,0,3,,,,,,,,,2,,,51,49
6300,note_on,60,0,1,,,,,,,,,0,,,72,0
6300,note_on,0,0,1,,,,,,,,,0,,,63,0
6300,note_on,0,0,1,,,,,,,,,0,,,60,0
6300,note_on,0,0,1,,,,,,,,,0,,,72,75
6300,note_on,0,0,1,,,,,,,,,0,,,63,75
6320,note_on,0,0,3,,,,,,,,,2,,,56,49
6320,note_on,20,0,3,,,,,,,,,2,,,51,0
6339,control_change,19,0,3,,,,,,,,,2,64,0,,
6339,note_on,0,0,3,,,,,,,,,2,,,51,49
6340,note_on,1,0,3,,,,,,,,,2,,,56,0
6345,note_on,0,0,1,,,,,,,,,0,,,72,75
6345,note_on,0,0,1,,,,,,,,,0,,,63,0
6345,note_on,0,0,1,,,,,,,,,0,,,63,75
6345,note_on,45,0,1,,,,,,,,,0,,,72,0
6359,note_on,19,0,3,,,,,,,,,2,,,51,0
6360,note_on,0,0,3,,,,,,,,,2,,,44,62
6360,note_on,15,0,1,,,,,,,,,0,,,72,0
6360,note_on,120,0,4,,,,,,,,,3,,,44,0
6360,control_change,1,0,3,,,,,,,,,2,64,127,,
6360,note_on,0,0,1,,,,,,,,,0,,,63,0
6360,note_on,0,0,1,,,,,,,,,0,,,66,88
6360,note_on,0,0,1,,,,,,,,,0,,,75,88
6380,note_on,0,0,3,,,,,,,,,2,,,56,62
6380,note_on,20,0,3,,,,,,,,,2,,,44,0
6399,note_on,19,0,3,,,,,,,,,2,,,60,62
6400,note_on,1,0,3,,,,,,,,,2,,,56,0
6419,note_on,19,0,3,,,,,,,,,2,,,60,0
6420,note_on,1,0,3,,,,,,,,,2,,,56,62
6440,note_on,0,0,3,,,,,,,,,2,,,60,62
6440,note_on,20,0,3,,,,,,,,,2,,,56,0
6450,note_on,0,0,1,,,,,,,,,0,,,65,75
6450,note_on,90,0,1,,,,,,,,,0,,,75,0
6450,note_on,0,0,1,,,,,,,,,0,,,73,75
6450,note_on,0,0,1,,,,,,,,,0,,,66,0
6459,control_change,19,0,3,,,,,,,,,2,64,0,,
6459,note_on,0,0,3,,,,,,,,,2,,,61,62
6460,note_on,1,0,3,,,,,,,,,2,,,60,0
6479,note_on,19,0,3,,,,,,,,,2,,,61,0
6480,note_on,0,0,1,,,,,,,,,0,,,73,75
6480,note_on,0,0,1,,,,,,,,,0,,,65,0
6480,note_on,0,0,1,,,,,,,,,0,,,64,75
6480,control_change,1,0,3,,,,,,,,,2,64,127,,
6480,note_on,30,0,1,,,,,,,,,0,,,73,0
6480,note_on,0,0,3,,,,,,,,,2,,,44,49
6500,note_on,20,0,3,,,,,,,,,2,,,44,0
6500,note_on,0,0,3,,,,,,,,,2,,,55,49
6519,note_on,19,0,3,,,,,,,,,2,,,58,49
6520,note_on,1,0,3,,,,,,,,,2,,,55,0
6539,note_on,19,0,3,,,,,,,,,2,,,58,0
6540,note_on,1,0,3,,,,,,,,,2,,,55,49
6560,note_on,0,0,3,,,,,,,,,2,,,58,49
6560,note_on,20,0,3,,,,,,,,,2,,,55,0
6570,note_on,90,0,1,,,,,,,,,0,,,73,0
6570,note_on,0,0,1,,,,,,,,,0,,,63,62
6570,note_on,0,0,1,,,,,,,,,0,,,64,0
6570,note_on,0,0,1,,,,,,,,,0,,,72,62
6579,control_change,19,0,3,,,,,,,,,2,64,0,,
6579,note_on,0,0,3,,,,,,,,,2,,,56,49
6580,note_on,1,0,3,,,,,,,,,2,,,58,0
6599,note_on,19,0,3,,,,,,,,,2,,,56,0
6600,control_change,1,0,3,,,,,,,,,2,64,127,,
6600,note_on,30,0,1,,,,,,,,,0,,,72,0
6600,note_on,0,0,3,,,,,,,,,2,,,39,49
6600,note_on,0,0,1,,,,,,,,,0,,,72,62
6600,note_on,0,0,1,,,,,,,,,0,,,63,62
6600,note_on,0,0,1,,,,,,,,,0,,,63,0
6620,note_on,20,0,3,,,,,,,,,2,,,39,0
6620,note_on,0,0,3,,,,,,,,,2,,,51,36
6630,note_on,0,0,1,,,,,,,,,0,,,61,49
6630,note_on,30,0,1,,,,,,,,,0,,,72,0
6630,note_on,0,0,1,,,,,,,,,0,,,70,49
6630,note_on,0,0,1,,,,,,,,,0,,,63,0
6639,note_on,19,0,3,,,,,,,,,2,,,55,36
6640,note_on,1,0,3,,,,,,,,,2,,,51,0
6659,note_on,19,0,3,,,,,,,,,2,,,55,0
6660,note_on,0,0,1,,,,,,,,,0,,,68,49
6660,note_on,1,0,3,,,,,,,,,2,,,51,36
6660,note_on,0,0,1,,,,,,,,,0,,,61,0
6660,note_on,0,0,1,,,,,,,,,0,,,60,49
6660,note_on,30,0,1,,,,,,,,,0,,,70,0
6675,note_on,15,0,1,,,,,,,,,0,,,63,49
6675,note_on,0,0,1,,,,,,,,,0,,,72,49
6680,note_on,20,0,3,,,,,,,,,2,,,51,0
6680,note_on,0,0,3,,,,,,,,,2,,,55,36
6690,note_on,0,0,1,,,,,,,,,0,,,63,0
6690,note_on,0,0,1,,,,,,,,,0,,,68,0
6690,note_on,0,0,1,,,,,,,,,0,,,61,49
6690,note_on,15,0,1,,,,,,,,,0,,,72,0
6690,note_on,0,0,1,,,,,,,,,0,,,70,49
6690,note_on,0,0,1,,,,,,,,,0,,,60,0
6699,control_change,19,0,3,,,,,,,,,2,64,0,,
6699,note_on,0,0,3,,,,,,,,,2,,,51,36
6700,note_on,1,0,3,,,,,,,,,2,,,55,0
6719,note_on,19,0,3,,,,,,,,,2,,,51,0
6720,note_on,30,0,1,,,,,,,,,0,,,70,0
6720,note_on,0,0,1,,,,,,,,,0,,,60,49
6720,note_on,0,0,1,,,,,,,,,0,,,61,0
6720,note_on,0,0,1,,,,,,,,,0,,,68,49
6720,note_on,360,0,4,,,,,,,,,3,,,44,49
6740,note_on,0,0,3,,,,,,,,,2,,,51,36
6740,control_change,21,0,3,,,,,,,,,2,64,127,,
6759,note_on,19,0,3,,,,,,,,,2,,,56,36
6760,note_on,1,0,3,,,,,,,,,2,,,51,0
6779,note_on,19,0,3,,,,,,,,,2,,,56,0
6780,note_on,1,0,3,,,,,,,,,2,,,51,36
6800,note_on,20,0,3,,,,,,,,,2,,,51,0
6800,note_on,0,0,3,,,,,,,,,2,,,56,36
6819,control_change,19,0,3,,,,,,,,,2,64,0,,
6819,note_on,0,0,3,,,,,,,,,2,,,51,36
6820,note_on,1,0,3,,,,,,,,,2,,,56,0
6839,note_on,19,0,3,,,,,,,,,2,,,51,0
6840,note_on,0,0,4,,,,,,,,,3,,,44,49
6840,note_on,120,0,4,,,,,,,,,3,,,44,0
6860,note_on,0,0,3,,,,,,,,,2,,,51,36
6860,control_change,21,0,3,,,,,,,,,2,64,127,,
6879,note_on,19,0,3,,,,,,,,,2,,,56,36
6880,note_on,1,0,3,,,,,,,,,2,,,51,0
6899,note_on,19,0,3,,,,,,,,,2,,,56,0
6900,note_on,1,0,3,,,,,,,,,2,,,51,36
6920,note_on,20,0,3,,,,,,,,,2,,,51,0
6920,note_on,0,0,3,,,,,,,,,2,,,56,36
6939,note_on,0,0,3,,,,,,,,,2,,,60,101
6939,control_change,19,0,3,,,,,,,,,2,64,0,,
6940,note_on,0,0,3,,,,,,,,,2,,,44,75
6940,note_on,1,0,3,,,,,,,,,2,,,56,0
6950,note_on,10,0,3,,,,,,,,,2,,,51,75
6959,note_on,9,0,3,,,,,,,,,2,,,60,0
6960,note_on,120,0,4,,,,,,,,,3,,,44,0
6960,note_on,240,0,1,,,,,,,,,0,,,68,0
6960,note_on,0,0,1,,,,,,,,,0,,,60,0
6960,note_on,1,0,3,,,,,,,,,2,,,60,75
6980,note_on,0,0,1,,,,,,,,,0,,,63,36
6980,control_change,20,0,1,,,,,,,,,0,64,127,,
6990,note_on,0,0,3,,,,,,,,,2,,,44,0
6990,note_on,0,0,3,,,,,,,,,2,,,51,0
6990,note_on,0,0,3,,,,,,,,,2,,,63,75
6990,note_on,0,0,4,,,,,,,,,3,,,56,49
6990,note_on,30,0,4,,,,,,,,,3,,,51,49
6990,note_on,30,0,3,,,,,,,,,2,,,60,0
6994,note_on,4,0,4,,,,,,,,,3,,,56,0
6994,note_on,0,0,4,,,,,,,,,3,,,51,0
6999,note_on,0,0,1,,,,,,,,,0,,,75,36
6999,note_on,19,0,1,,,,,,,,,0,,,68,36
7000,note_on,1,0,1,,,,,,,,,0,,,63,0
7019,note_on,0,0,1,,,,,,,,,0,,,68,0
7019,note_on,19,0,1,,,,,,,,,0,,,75,0
7020,note_on,26,0,4,,,,,,,,,3,,,56,49
7020,note_on,1,0,1,,,,,,,,,0,,,63,36
7020,note_on,30,0,3,,,,,,,,,2,,,63,0
7020,note_on,0,0,3,,,,,,,,,2,,,61,75
7024,note_on,4,0,4,,,,,,,,,3,,,56,0
7040,note_on,20,0,1,,,,,,,,,0,,,63,0
7040,note_on,0,0,1,,,,,,,,,0,,,68,36
7040,note_on,0,0,1,,,,,,,,,0,,,75,36
7050,note_on,26,0,4,,,,,,,,,3,,,51,49
7050,note_on,0,0,3,,,,,,,,,2,,,60,75
7050,note_on,30,0,3,,,,,,,,,2,,,61,0
7050,note_on,0,0,4,,,,,,,,,3,,,56,49
7054,note_on,4,0,4,,,,,,,,,3,,,56,0
7054,note_on,0,0,4,,,,,,,,,3,,,51,0
7059,note_on,0,0,1,,,,,,,,,0,,,63,36
7059,control_change,19,0,1,,,,,,,,,0,64,0,,
7060,note_on,0,0,1,,,,,,,,,0,,,68,0
7060,note_on,1,0,1,,,,,,,,,0,,,75,0
7079,note_on,19,0,1,,,,,,,,,0,,,63,0
7080,note_on,30,0,3,,,,,,,,,2,,,60,0
7080,note_on,0,0,4,,,,,,,,,3,,,51,49
7080,note_on,0,0,3,,,,,,,,,2,,,60,75
7080,note_on,26,0,4,,,,,,,,,3,,,44,49
7084,note_on,0,0,4,,,,,,,,,3,,,44,0
7084,note_on,4,0,4,,,,,,,,,3,,,51,0
7100,note_on,0,0,1,,,,,,,,,0,,,63,36
7100,note_on,0,0,1,,,,,,,,,0,,,61,36
7100,control_change,21,0,1,,,,,,,,,0,64,127,,
7110,note_on,0,0,4,,,,,,,,,3,,,55,49
7110,note_on,26,0,4,,,,,,,,,3,,,51,49
7114,note_on,0,0,4,,,,,,,,,3,,,51,0
7114,note_on,4,0,4,,,,,,,,,3,,,55,0
7119,note_on,19,0,1,,,,,,,,,0,,,67,36
7119,note_on,0,0,1,,,,,,,,,0,,,75,36
7120,note_on,0,0,1,,,,,,,,,0,,,61,0
7120,note_on,1,0,1,,,,,,,,,0,,,63,0
7139,note_on,19,0,1,,,,,,,,,0,,,67,0
7139,note_on,0,0,1,,,,,,,,,0,,,75,0
7140,note_on,0,0,1,,,,,,,,,0,,,63,36
7140,note_on,1,0,1,,,,,,,,,0,,,61,36
7140,note_on,0,0,3,,,,,,,,,2,,,58,75
7140,note_on,26,0,4,,,,,,,,,3,,,55,49
7140,note_on,60,0,3,,,,,,,,,2,,,60,0
7144,note_on,4,0,4,,,,,,,,,3,,,55,0
7160,note_on,0,0,1,,,,,,,,,0,,,75,36
7160,note_on,20,0,1,,,,,,,,,0,,,63,0
7160,note_on,0,0,1,,,,,,,,,0,,,67,36
7160,note_on,0,0,1,,,,,,,,,0,,,61,0
7170,note_on,0,0,3,,,,,,,,,2,,,51,75
7170,note_on,30,0,3,,,,,,,,,2,,,58,0
7179,note_on,0,0,1,,,,,,,,,0,,,63,36
7179,control_change,19,0,1,,,,,,,,,0,64,0,,
7179,note_on,0,0,1,,,,,,,,,0,,,61,36
7180,note_on,0,0,1,,,,,,,,,0,,,67,0
7180,note_on,1,0,1,,,,,,,,,0,,,75,0
7185,note_on,15,0,3,,,,,,,,,2,,,44,75
7199,note_on,19,0,1,,,,,,,,,0,,,61,0
7199,note_on,0,0,1,,,,,,,,,0,,,63,0
7200,note_on,15,0,3,,,,,,,,,2,,,51,0
7200,note_on,0,0,3,,,,,,,,,2,,,51,75
7220,control_change,21,0,1,,,,,,,,,0,64,127,,
7220,note_on,0,0,1,,,,,,,,,0,,,60,36
7230,note_on,0,0,3,,,,,,,,,2,,,44,0
7230,note_on,0,0,3,,,,,,,,,2,,,56,75
7230,note_on,86,0,4,,,,,,,,,3,,,48,49
7230,note_on,30,0,3,,,,,,,,,2,,,51,0
7230,note_on,0,0,4,,,,,,,,,3,,,51,49
7234,note_on,0,0,4,,,,,,,,,3,,,48,0
7234,note_on,4,0,4,,,,,,,,,3,,,51,0
7239,note_on,0,0,1,,,,,,,,,0,,,75,36
7239,note_on,19,0,1,,,,,,,,,0,,,68,36
7240,note_on,1,0,1,,,,,,,,,0,,,60,0
7259,note_on,0,0,1,,,,,,,,,0,,,68,0
7259,note_on,19,0,1,,,,,,,,,0,,,75,0
7260,note_on,0,0,3,,,,,,,,,2,,,55,75
7260,note_on,30,0,3,,,,,,,,,2,,,56,0
7260,note_on,26,0,4,,,,,,,,,3,,,51,49
7260,note_on,1,0,1,,,,,,,,,0,,,60,36
7264,note_on,4,0,4,,,,,,,,,3,,,51,0
7280,note_on,20,0,1,,,,,,,,,0,,,60,0
7280,note_on,0,0,1,,,,,,,,,0,,,68,36
7280,note_on,0,0,1,,,,,,,,,0,,,75,36
7290,note_on,30,0,3,,,,,,,,,2,,,55,0
7290,note_on,26,0,4,,,,,,,,,3,,,48,49
7290,note_on,0,0,3,,,,,,,,,2,,,56,75
7290,note_on,0,0,4,,,,,,,,,3,,,51,49
7294,note_on,0,0,4,,,,,,,,,3,,,48,0
7294,note_on,4,0,4,,,,,,,,,3,,,51,0
7299,control_change,19,0,1,,,,,,,,,0,64,0,,
7299,note_on,0,0,1,,,,,,,,,0,,,60,36
7300,note_on,0,0,1,,,,,,,,,0,,,68,0
7300,note_on,1,0,1,,,,,,,,,0,,,75,0
7300,note_on,10,0,3,,,,,,,,,2,,,44,75
7310,note_on,10,0,3,,,,,,,,,2,,,51,75
7319,note_on,19,0,1,,,,,,,,,0,,,60,0
7320,note_on,0,0,3,,,,,,,,,2,,,58,75
7320,note_on,10,0,3,,,,,,,,,2,,,56,0
7340,note_on,0,0,1,,,,,,,,,0,,,61,36
7340,note_on,0,0,1,,,,,,,,,0,,,63,36
7340,control_change,21,0,1,,,,,,,,,0,64,127,,
7350,note_on,56,0,4,,,,,,,,,3,,,51,49
7354,note_on,4,0,4,,,,,,,,,3,,,51,0
7359,note_on,19,0,1,,,,,,,,,0,,,67,36
7359,note_on,0,0,1,,,,,,,,,0,,,75,36
7360,note_on,0,0,1,,,,,,,,,0,,,61,0
7360,note_on,1,0,1,,,,,,,,,0,,,63,0
7379,note_on,19,0,1,,,,,,,,,0,,,67,0
7379,note_on,0,0,1,,,,,,,,,0,,,75,0
7380,note_on,0,0,1,,,,,,,,,0,,,63,36
7380,note_on,26,0,4,,,,,,,,,3,,,55,49
7380,note_on,1,0,1,,,,,,,,,0,,,61,36
7384,note_on,4,0,4,,,,,,,,,3,,,55,0
7400,note_on,0,0,1,,,,,,,,,0,,,67,36
7400,note_on,0,0,1,,,,,,,,,0,,,75,36
7400,note_on,20,0,1,,,,,,,,,0,,,63,0
7400,note_on,0,0,1,,,,,,,,,0,,,61,0
7410,note_on,26,0,4,,,,,,,,,3,,,51,49
7410,note_on,90,0,3,,,,,,,,,2,,,58,0
7410,note_on,0,0,3,,,,,,,,,2,,,58,75
7410,note_on,0,0,3,,,,,,,,,2,,,51,0
7410,note_on,0,0,3,,,,,,,,,2,,,44,0
7414,note_on,4,0,4,,,,,,,,,3,,,51,0
7419,note_on,0,0,1,,,,,,,,,0,,,63,36
7419,note_on,0,0,1,,,,,,,,,0,,,61,36
7419,control_change,19,0,1,,,,,,,,,0,64,0,,
7420,note_on,10,0,3,,,,,,,,,2,,,44,75
7420,note_on,1,0,1,,,,,,,,,0,,,75,0
7420,note_on,0,0,1,,,,,,,,,0,,,67,0
7430,note_on,10,0,3,,,,,,,,,2,,,51,75
7439,note_on,19,0,1,,,,,,,,,0,,,61,0
7439,note_on,0,0,1,,,,,,,,,0,,,63,0
7440,note_on,0,0,3,,,,,,,,,2,,,60,75
7440,note_on,10,0,3,,,,,,,,,2,,,58,0
7460,note_on,0,0,1,,,,,,,,,0,,,63,36
7460,control_change,21,0,1,,,,,,,,,0,64,127,,
7470,note_on,0,0,4,,,,,,,,,3,,,56,49
7470,note_on,56,0,4,,,,,,,,,3,,,51,49
7470,note_on,0,0,3,,,,,,,,,2,,,51,0
7470,note_on,0,0,3,,,,,,,,,2,,,63,75
7470,note_on,30,0,3,,,,,,,,,2,,,60,0
7470,note_on,0,0,3,,,,,,,,,2,,,44,0
7474,note_on,4,0,4,,,,,,,,,3,,,56,0
7474,note_on,0,0,4,,,,,,,,,3,,,51,0
7479,note_on,0,0,1,,,,,,,,,0,,,75,36
7479,note_on,19,0,1,,,,,,,,,0,,,68,36
7480,note_on,1,0,1,,,,,,,,,0,,,63,0
7499,note_on,0,0,1,,,,,,,,,0,,,68,0
7499,note_on,19,0,1,,,,,,,,,0,,,75,0
7500,note_on,1,0,1,,,,,,,,,0,,,63,36
7500,note_on,30,0,3,,,,,,,,,2,,,63,0
7500,note_on,26,0,4,,,,,,,,,3,,,56,49
7500,note_on,0,0,3,,,,,,,,,2,,,61,75
7504,note_on,4,0,4,,,,,,,,,3,,,56,0
7520,note_on,0,0,1,,,,,,,,,0,,,68,36
7520,note_on,0,0,1,,,,,,,,,0,,,75,36
7520,note_on,20,0,1,,,,,,,,,0,,,63,0
7530,note_on,26,0,4,,,,,,,,,3,,,51,49
7530,note_on,0,0,3,,,,,,,,,2,,,60,75
7530,note_on,0,0,4,,,,,,,,,3,,,56,49
7530,note_on,30,0,3,,,,,,,,,2,,,61,0
7534,note_on,0,0,4,,,,,,,,,3,,,51,0
7534,note_on,4,0,4,,,,,,,,,3,,,56,0
7539,note_on,0,0,1,,,,,,,,,0,,,63,36
7539,control_change,19,0,1,,,,,,,,,0,64,0,,
7540,note_on,0,0,1,,,,,,,,,0,,,68,0
7540,note_on,10,0,3,,,,,,,,,2,,,44,75
7540,note_on,1,0,1,,,,,,,,,0,,,75,0
7550,note_on,10,0,3,,,,,,,,,2,,,51,75
7559,note_on,19,0,1,,,,,,,,,0,,,63,0
7560,note_on,10,0,3,,,,,,,,,2,,,60,0
7560,note_on,0,0,3,,,,,,,,,2,,,60,75
7580,control_change,21,0,1,,,,,,,,,0,64,127,,
7580,note_on,0,0,1,,,,,,,,,0,,,63,36
7580,note_on,0,0,1,,,,,,,,,0,,,61,36
7590,note_on,56,0,4,,,,,,,,,3,,,51,49
7590,note_on,0,0,4,,,,,,,,,3,,,55,49
7594,note_on,0,0,4,,,,,,,,,3,,,51,0
7594,note_on,4,0,4,,,,,,,,,3,,,55,0
7599,note_on,19,0,1,,,,,,,,,0,,,67,36
7599,note_on,0,0,1,,,,,,,,,0,,,75,36
7600,note_on,1,0,1,,,,,,,,,0,,,63,0
7600,note_on,0,0,1,,,,,,,,,0,,,61,0
7619,note_on,0,0,1,,,,,,,,,0,,,75,0
7619,note_on,19,0,1,,,,,,,,,0,,,67,0
7620,note_on,26,0,4,,,,,,,,,3,,,55,49
7620,note_on,0,0,3,,,,,,,,,2,,,58,75
7620,note_on,0,0,3,,,,,,,,,2,,,51,0
7620,note_on,1,0,1,,,,,,,,,0,,,61,36
7620,note_on,0,0,3,,,,,,,,,2,,,44,0
7620,note_on,0,0,1,,,,,,,,,0,,,63,36
7620,note_on,60,0,3,,,,,,,,,2,,,60,0
7624,note_on,4,0,4,,,,,,,,,3,,,55,0
7640,note_on,0,0,1,,,,,,,,,0,,,75,36
7640,note_on,0,0,1,,,,,,,,,0,,,67,36
7640,note_on,20,0,1,,,,,,,,,0,,,63,0
7640,note_on,0,0,1,,,,,,,,,0,,,61,0
7650,note_on,30,0,3,,,,,,,,,2,,,58,0
7650,note_on,0,0,3,,,,,,,,,2,,,51,75
7659,note_on,0,0,1,,,,,,,,,0,,,61,36
7659,control_change,19,0,1,,,,,,,,,0,64,0,,
7659,note_on,0,0,1,,,,,,,,,0,,,63,36
7660,note_on,1,0,1,,,,,,,,,0,,,75,0
7660,note_on,0,0,1,,,,,,,,,0,,,67,0
7679,note_on,19,0,1,,,,,,,,,0,,,61,0
7679,note_on,0,0,1,,,,,,,,,0,,,63,0
7680,note_on,0,0,3,,,,,,,,,2,,,51,75
7680,note_on,56,0,4,,,,,,,,,3,,,44,49
7680,note_on,30,0,3,,,,,,,,,2,,,51,0
7684,note_on,4,0,4,,,,,,,,,3,,,44,0
7700,note_on,0,0,1,,,,,,,,,0,,,60,36
7700,control_change,21,0,1,,,,,,,,,0,64,127,,
7710,note_on,0,0,4,,,,,,,,,3,,,51,49
7710,note_on,26,0,4,,,,,,,,,3,,,48,49
7710,note_on,30,0,3,,,,,,,,,2,,,51,0
7710,note_on,0,0,3,,,,,,,,,2,,,56,75
7714,note_on,0,0,4,,,,,,,,,3,,,48,0
7714,note_on,4,0,4,,,,,,,,,3,,,51,0
7719,note_on,0,0,1,,,,,,,,,0,,,75,36
7719,note_on,19,0,1,,,,,,,,,0,,,68,36
7720,note_on,1,0,1,,,,,,,,,0,,,60,0
7739,note_on,19,0,1,,,,,,,,,0,,,75,0
7739,note_on,0,0,1,,,,,,,,,0,,,68,0
7740,note_on,26,0,4,,,,,,,,,3,,,51,49
7740,note_on,30,0,3,,,,,,,,,2,,,56,0
7740,note_on,1,0,1,,,,,,,,,0,,,60,36
7740,note_on,0,0,3,,,,,,,,,2,,,55,75
7744,note_on,4,0,4,,,,,,,,,3,,,51,0
7760,note_on,0,0,1,,,,,,,,,0,,,68,36
7760,note_on,0,0,1,,,,,,,,,0,,,75,36
7760,note_on,20,0,1,,,,,,,,,0,,,60,0
7770,note_on,26,0,4,,,,,,,,,3,,,48,49
7770,note_on,0,0,4,,,,,,,,,3,,,51,49
7770,note_on,30,0,3,,,,,,,,,2,,,55,0
7770,note_on,0,0,3,,,,,,,,,2,,,56,75
7774,note_on,0,0,4,,,,,,,,,3,,,48,0
7774,note_on,4,0,4,,,,,,,,,3,,,51,0
7779,control_change,19,0,1,,,,,,,,,0,64,0,,
7779,note_on,0,0,1,,,,,,,,,0,,,60,36
7780,note_on,1,0,1,,,,,,,,,0,,,75,0
7780,note_on,0,0,1,,,,,,,,,0,,,68,0
7799,note_on,19,0,1,,,,,,,,,0,,,60,0
7800,note_on,26,0,4,,,,,,,,,3,,,39,49
7800,note_on,30,0,3,,,,,,,,,2,,,56,0
7800,note_on,0,0,3,,,,,,,,,2,,,58,75
7804,note_on,4,0,4,,,,,,,,,3,,,39,0
7820,control_change,21,0,1,,,,,,,,,0,64,127,,
7820,note_on,0,0,1,,,,,,,,,0,,,63,36
7830,note_on,0,0,4,,,,,,,,,3,,,51,49
7830,note_on,26,0,4,,,,,,,,,3,,,46,49
7834,note_on,4,0,4,,,,,,,,,3,,,51,0
7834,note_on,0,0,4,,,,,,,,,3,,,46,0
7839,note_on,0,0,1,,,,,,,,,0,,,75,36
7839,note_on,19,0,1,,,,,,,,,0,,,67,36
7840,note_on,1,0,1,,,,,,,,,0,,,63,0
7859,note_on,0,0,1,,,,,,,,,0,,,67,0
7859,note_on,19,0,1,,,,,,,,,0,,,75,0
7860,note_on,26,0,4,,,,,,,,,3,,,51,49
7860,note_on,0,0,4,,,,,,,,,3,,,55,49
7860,note_on,1,0,1,,,,,,,,,0,,,63,36
7864,note_on,0,0,4,,,,,,,,,3,,,51,0
7864,note_on,4,0,4,,,,,,,,,3,,,55,0
7880,note_on,20,0,1,,,,,,,,,0,,,63,0
7880,note_on,0,0,1,,,,,,,,,0,,,75,36
7880,note_on,0,0,1,,,,,,,,,0,,,67,36
7890,note_on,0,0,3,,,,,,,,,2,,,58,75
7890,note_on,26,0,4,,,,,,,,,3,,,46,49
7890,note_on,90,0,3,,,,,,,,,2,,,58,0
7890,note_on,0,0,4,,,,,,,,,3,,,51,49
7894,note_on,0,0,4,,,,,,,,,3,,,46,0
7894,note_on,4,0,4,,,,,,,,,3,,,51,0
7899,control_change,19,0,1,,,,,,,,,0,64,0,,
7899,note_on,0,0,1,,,,,,,,,0,,,63,36
7900,note_on,1,0,1,,,,,,,,,0,,,75,0
7900,note_on,0,0,1,,,,,,,,,0,,,67,0
7905,note_on,15,0,3,,,,,,,,,2,,,43,75
7919,note_on,19,0,1,,,,,,,,,0,,,63,0
7920,note_on,15,0,3,,,,,,,,,2,,,58,0
7920,note_on,0,0,3,,,,,,,,,2,,,58,88
7940,control_change,21,0,1,,,,,,,,,0,64,127,,
7940,note_on,0,0,1,,,,,,,,,0,,,63,62
7950,note_on,0,0,4,,,,,,,,,3,,,46,88
7950,note_on,0,0,4,,,,,,,,,3,,,51,88
7950,control_change,56,0,4,,,,,,,,,3,64,127,,
7959,note_on,19,0,1,,,,,,,,,0,,,70,62
7959,note_on,0,0,1,,,,,,,,,0,,,75,62
7960,note_on,1,0,1,,,,,,,,,0,,,63,0
7979,note_on,19,0,1,,,,,,,,,0,,,75,0
7979,note_on,0,0,1,,,,,,,,,0,,,70,0
7980,note_on,30,0,4,,,,,,,,,3,,,51,0
7980,note_on,1,0,1,,,,,,,,,0,,,63,62
7980,note_on,0,0,4,,,,,,,,,3,,,46,0
7980,note_on,0,0,4,,,,,,,,,3,,,51,88
7980,note_on,0,0,4,,,,,,,,,3,,,55,88
8000,note_on,20,0,1,,,,,,,,,0,,,63,0
8000,note_on,0,0,1,,,,,,,,,0,,,82,62
8000,note_on,0,0,1,,,,,,,,,0,,,75,62
8010,note_on,90,0,3,,,,,,,,,2,,,58,0
8010,note_on,30,0,4,,,,,,,,,3,,,55,0
8010,control_change,0,0,4,,,,,,,,,3,64,0,,
8010,note_on,0,0,3,,,,,,,,,2,,,58,88
8010,note_on,0,0,3,,,,,,,,,2,,,43,0
8010,note_on,0,0,4,,,,,,,,,3,,,51,0
8010,note_on,0,0,4,,,,,,,,,3,,,55,88
8019,control_change,19,0,1,,,,,,,,,0,64,0,,
8019,note_on,0,0,1,,,,,,,,,0,,,70,62
8020,note_on,1,0,1,,,,,,,,,0,,,82,0
8020,note_on,0,0,1,,,,,,,,,0,,,75,0
8025,note_on,15,0,3,,,,,,,,,2,,,43,88
8039,note_on,19,0,1,,,,,,,,,0,,,70,0
8040,note_on,15,0,3,,,,,,,,,2,,,58,0
8040,note_on,30,0,4,,,,,,,,,3,,,55,0
8040,note_on,0,0,3,,,,,,,,,2,,,60,101
8060,control_change,21,0,1,,,,,,,,,0,64,127,,
8060,note_on,0,0,1,,,,,,,,,0,,,64,75
8070,note_on,0,0,4,,,,,,,,,3,,,52,101
8070,control_change,30,0,4,,,,,,,,,3,64,127,,
8070,note_on,0,0,4,,,,,,,,,3,,,48,101
8079,note_on,0,0,1,,,,,,,,,0,,,72,75
8079,note_on,0,0,1,,,,,,,,,0,,,76,75
8079,note_on,19,0,1,,,,,,,,,0,,,70,75
8080,note_on,1,0,1,,,,,,,,,0,,,64,0
8099,note_on,0,0,1,,,,,,,,,0,,,72,0
8099,note_on,0,0,1,,,,,,,,,0,,,76,0
8099,note_on,19,0,1,,,,,,,,,0,,,70,0
8100,note_on,30,0,4,,,,,,,,,3,,,52,0
8100,note_on,1,0,1,,,,,,,,,0,,,64,75
8100,note_on,0,0,4,,,,,,,,,3,,,48,0
8100,note_on,0,0,4,,,,,,,,,3,,,52,101
8100,note_on,0,0,4,,,,,,,,,3,,,55,101
8120,note_on,20,0,1,,,,,,,,,0,,,64,0
8120,note_on,0,0,1,,,,,,,,,0,,,84,75
8120,note_on,0,0,1,,,,,,,,,0,,,76,75
8130,note_on,0,0,3,,,,,,,,,2,,,43,0
8130,control_change,0,0,4,,,,,,,,,3,64,0,,
8130,note_on,90,0,3,,,,,,,,,2,,,60,0
8130,note_on,30,0,4,,,,,,,,,3,,,55,0
8130,note_on,0,0,4,,,,,,,,,3,,,58,101
8130,note_on,0,0,3,,,,,,,,,2,,,60,101
8130,note_on,0,0,4,,,,,,,,,3,,,55,101
8130,note_on,0,0,4,,,,,,,,,3,,,52,0
8139,control_change,19,0,1,,,,,,,,,0,64,0,,
8139,note_on,0,0,1,,,,,,,,,0,,,70,75
8140,note_on,0,0,1,,,,,,,,,0,,,76,0
8140,note_on,1,0,1,,,,,,,,,0,,,84,0
8159,note_on,19,0,1,,,,,,,,,0,,,70,0
8160,note_on,0,0,3,,,,,,,,,2,,,61,114
8160,note_on,30,0,3,,,,,,,,,2,,,60,0
8160,note_on,30,0,4,,,,,,,,,3,,,58,0
8160,control_change,0,0,4,,,,,,,,,3,64,127,,
8160,note_on,0,0,4,,,,,,,,,3,,,41,101
8160,note_on,0,0,4,,,,,,,,,3,,,55,0
8180,note_on,0,0,1,,,,,,,,,0,,,68,88
8180,control_change,21,0,1,,,,,,,,,0,64,127,,
8190,note_on,0,0,4,,,,,,,,,3,,,53,101
8190,note_on,30,0,4,,,,,,,,,3,,,41,0
8190,note_on,0,0,4,,,,,,,,,3,,,56,101
8199,note_on,0,0,1,,,,,,,,,0,,,85,88
8199,note_on,19,0,1,,,,,,,,,0,,,77,88
8200,note_on,1,0,1,,,,,,,,,0,,,68,0
8219,note_on,0,0,1,,,,,,,,,0,,,77,0
8219,note_on,19,0,1,,,,,,,,,0,,,85,0
8220,note_on,30,0,4,,,,,,,,,3,,,56,0
8220,note_on,1,0,1,,,,,,,,,0,,,73,88
8220,note_on,0,0,3,,,,,,,,,2,,,65,127
8220,note_on,0,0,3,,,,,,,,,2,,,61,127
8220,note_on,0,0,4,,,,,,,,,3,,,56,101
8220,note_on,0,0,4,,,,,,,,,3,,,53,0
8220,note_on,60,0,3,,,,,,,,,2,,,61,0
8240,note_on,20,0,1,,,,,,,,,0,,,73,0
8240,note_on,0,0,1,,,,,,,,,0,,,89,88
8240,note_on,0,0,1,,,,,,,,,0,,,80,88
8250,note_on,30,0,4,,,,,,,,,3,,,56,0
8250,note_on,0,0,4,,,,,,,,,3,,,56,101
8250,control_change,0,0,4,,,,,,,,,3,64,0,,
8250,note_on,0,0,4,,,,,,,,,3,,,53,101
8259,note_on,0,0,1,,,,,,,,,0,,,73,88
8259,control_change,19,0,1,,,,,,,,,0,64,0,,
8260,note_on,0,0,1,,,,,,,,,0,,,80,0
8260,note_on,1,0,1,,,,,,,,,0,,,89,0
8279,note_on,19,0,1,,,,,,,,,0,,,73,0
8280,note_on,0,0,4,,,,,,,,,3,,,61,88
8280,note_on,0,0,4,,,,,,,,,3,,,53,88
8280,note_on,0,0,4,,,,,,,,,3,,,53,0
8280,note_on,30,0,4,,,,,,,,,3,,,56,0
8280,note_on,0,0,3,,,,,,,,,2,,,61,0
8280,note_on,0,0,3,,,,,,,,,2,,,56,127
8280,note_on,60,0,3,,,,,,,,,2,,,65,0
8300,note_on,0,0,1,,,,,,,,,0,,,85,88
8300,note_on,21,0,1,,,,,,,,,0,,,73,88
8310,note_on,0,0,4,,,,,,,,,3,,,60,88
8310,note_on,30,0,4,,,,,,,,,3,,,61,0
8310,note_on,0,0,4,,,,,,,,,3,,,51,88
8310,note_on,0,0,4,,,,,,,,,3,,,53,0
8319,note_on,19,0,1,,,,,,,,,0,,,72,88
8319,note_on,0,0,1,,,,,,,,,0,,,84,88
8320,note_on,1,0,1,,,,,,,,,0,,,85,0
8320,note_on,0,0,1,,,,,,,,,0,,,73,0
8339,note_on,0,0,1,,,,,,,,,0,,,84,0
8339,note_on,19,0,1,,,,,,,,,0,,,72,0
8340,note_on,0,0,3,,,,,,,,,2,,,51,127
8340,note_on,0,0,4,,,,,,,,,3,,,49,88
8340,note_on,0,0,4,,,,,,,,,3,,,58,88
8340,note_on,60,0,3,,,,,,,,,2,,,56,0
8340,note_on,0,0,4,,,,,,,,,3,,,51,0
8340,note_on,30,0,4,,,,,,,,,3,,,60,0
8360,note_on,21,0,1,,,,,,,,,0,,,70,88
8360,note_on,0,0,1,,,,,,,,,0,,,82,88
8370,note_on,0,0,4,,,,,,,,,3,,,49,0
8370,note_on,30,0,4,,,,,,,,,3,,,58,0
8370,note_on,0,0,4,,,,,,,,,3,,,48,88
8370,note_on,0,0,4,,,,,,,,,3,,,56,88
8379,note_on,19,0,1,,,,,,,,,0,,,68,88
8379,note_on,0,0,1,,,,,,,,,0,,,80,88
8380,note_on,0,0,1,,,,,,,,,0,,,70,0
8380,note_on,1,0,1,,,,,,,,,0,,,82,0
8399,note_on,0,0,1,,,,,,,,,0,,,80,0
8399,note_on,19,0,1,,,,,,,,,0,,,68,0
8400,note_on,0,0,4,,,,,,,,,3,,,39,88
8400,note_on,30,0,4,,,,,,,,,3,,,56,0
8400,note_on,0,0,3,,,,,,,,,2,,,56,114
8400,note_on,60,0,3,,,,,,,,,2,,,51,0
8400,note_on,0,0,4,,,,,,,,,3,,,48,0
8400,control_change,0,0,4,,,,,,,,,3,64,127,,
8420,note_on,0,0,1,,,,,,,,,0,,,63,88
8420,control_change,21,0,1,,,,,,,,,0,64,127,,
8430,note_on,0,0,4,,,,,,,,,3,,,48,88
8430,note_on,30,0,4,,,,,,,,,3,,,39,0
8439,note_on,0,0,1,,,,,,,,,0,,,72,88
8439,note_on,19,0,1,,,,,,,,,0,,,68,88
8440,note_on,1,0,1,,,,,,,,,0,,,63,0
8459,note_on,19,0,1,,,,,,,,,0,,,72,0
8459,note_on,0,0,1,,,,,,,,,0,,,68,0
8460,note_on,0,0,4,,,,,,,,,3,,,51,88
8460,note_on,1,0,1,,,,,,,,,0,,,63,88
8460,note_on,30,0,4,,,,,,,,,3,,,48,0
8480,note_on,0,0,1,,,,,,,,,0,,,80,88
8480,note_on,20,0,1,,,,,,,,,0,,,63,0
8480,note_on,0,0,1,,,,,,,,,0,,,72,88
8490,note_on,0,0,3,,,,,,,,,2,,,56,114
8490,note_on,30,0,4,,,,,,,,,3,,,51,0
8490,note_on,90,0,3,,,,,,,,,2,,,56,0
8499,note_on,0,0,1,,,,,,,,,0,,,68,88
8499,control_change,19,0,1,,,,,,,,,0,64,0,,
8500,note_on,1,0,1,,,,,,,,,0,,,80,0
8500,note_on,0,0,1,,,,,,,,,0,,,72,0
8519,note_on,19,0,1,,,,,,,,,0,,,68,0
8520,note_on,30,0,3,,,,,,,,,2,,,56,0
8520,note_on,30,0,4,,,,,,,,,3,,,39,88
8520,note_on,0,0,3,,,,,,,,,2,,,55,114
8540,note_on,0,0,1,,,,,,,,,0,,,63,88
8540,control_change,21,0,1,,,,,,,,,0,64,127,,
8550,note_on,30,0,3,,,,,,,,,2,,,55,0
8550,note_on,0,0,3,,,,,,,,,2,,,63,114
8559,note_on,0,0,1,,,,,,,,,0,,,73,88
8559,note_on,19,0,1,,,,,,,,,0,,,70,88
8559,note_on,0,0,1,,,,,,,,,0,,,79,88
8560,note_on,1,0,1,,,,,,,,,0,,,63,0
8579,note_on,0,0,1,,,,,,,,,0,,,73,0
8579,note_on,0,0,1,,,,,,,,,0,,,79,0
8579,note_on,19,0,1,,,,,,,,,0,,,70,0
8580,note_on,60,0,4,,,,,,,,,3,,,39,0
8580,note_on,1,0,1,,,,,,,,,0,,,67,88
8580,control_change,0,0,4,,,,,,,,,3,64,0,,
8580,note_on,0,0,4,,,,,,,,,3,,,51,88
8600,note_on,20,0,1,,,,,,,,,0,,,67,0
8600,note_on,0,0,1,,,,,,,,,0,,,79,88
8600,note_on,0,0,1,,,,,,,,,0,,,87,88
8610,note_on,60,0,3,,,,,,,,,2,,,63,0
8610,note_on,0,0,3,,,,,,,,,2,,,55,114
8619,control_change,19,0,1,,,,,,,,,0,64,0,,
8619,note_on,0,0,1,,,,,,,,,0,,,75,88
8619,note_on,0,0,1,,,,,,,,,0,,,73,88
8620,note_on,1,0,1,,,,,,,,,0,,,87,0
8620,note_on,0,0,1,,,,,,,,,0,,,79,0
8639,note_on,19,0,1,,,,,,,,,0,,,73,0
8639,note_on,0,0,1,,,,,,,,,0,,,75,0
8640,note_on,0,0,1,,,,,,,,,0,,,80,88
8640,note_on,1,0,1,,,,,,,,,0,,,72,88
8640,note_on,0,0,3,,,,,,,,,2,,,56,114
8640,note_on,0,0,3,,,,,,,,,2,,,44,114
8640,note_on,60,0,4,,,,,,,,,3,,,51,0
8640,note_on,30,0,3,,,,,,,,,2,,,55,0
8660,note_on,0,0,2,,,,,,,,,1,,,63,49
8660,control_change,3200,0,2,,,,,,,,,1,64,127,,
8660,control_change,20,0,4,,,,,,,,,3,64,127,,
8660,note_on,0,0,4,,,,,,,,,3,,,51,49
8679,note_on,19,0,4,,,,,,,,,3,,,56,49
8679,note_on,19,0,2,,,,,,,,,1,,,68,49
8680,note_on,1,0,2,,,,,,,,,1,,,63,0
8680,note_on,1,0,4,,,,,,,,,3,,,51,0
8699,note_on,19,0,4,,,,,,,,,3,,,56,0
8699,note_on,19,0,2,,,,,,,,,1,,,68,0
8700,note_on,1,0,4,,,,,,,,,3,,,51,49
8700,note_on,1,0,2,,,,,,,,,1,,,63,49
8720,note_on,0,0,4,,,,,,,,,3,,,56,49
8720,note_on,20,0,2,,,,,,,,,1,,,63,0
8720,note_on,20,0,4,,,,,,,,,3,,,51,0
8720,note_on,0,0,2,,,,,,,,,1,,,68,49
8739,note_on,19,0,2,,,,,,,,,1,,,63,49
8739,note_on,19,0,4,,,,,,,,,3,,,51,49
8740,note_on,1,0,4,,,,,,,,,3,,,56,0
8740,note_on,1,0,2,,,,,,,,,1,,,68,0
8759,note_on,19,0,2,,,,,,,,,1,,,63,0
8759,note_on,19,0,4,,,,,,,,,3,,,51,0
8760,note_on,1,0,2,,,,,,,,,1,,,72,49
8760,note_on,120,0,1,,,,,,,,,0,,,80,0
8760,note_on,120,0,3,,,,,,,,,2,,,56,0
8760,note_on,1,0,4,,,,,,,,,3,,,60,49
8760,note_on,0,0,1,,,,,,,,,0,,,72,0
8760,note_on,0,0,3,,,,,,,,,2,,,44,0
8780,note_on,0,0,4,,,,,,,,,3,,,51,49
8780,note_on,0,0,2,,,,,,,,,1,,,63,49
8780,note_on,20,0,2,,,,,,,,,1,,,72,0
8780,note_on,20,0,4,,,,,,,,,3,,,60,0
8799,note_on,19,0,2,,,,,,,,,1,,,72,49
8799,note_on,19,0,4,,,,,,,,,3,,,60,49
8800,note_on,1,0,4,,,,,,,,,3,,,51,0
8800,note_on,1,0,2,,,,,,,,,1,,,63,0
8819,note_on,19,0,4,,,,,,,,,3,,,60,0
8819,note_on,19,0,2,,,,,,,,,1,,,72,0
8820,note_on,60,0,3,,,,,,,,,2,,,63,62
8820,note_on,60,0,1,,,,,,,,,0,,,75,101
8840,note_on,21,0,4,,,,,,,,,3,,,51,49
8840,note_on,21,0,2,,,,,,,,,1,,,63,49
8859,note_on,0,0,4,,,,,,,,,3,,,63,49
8859,control_change,19,0,4,,,,,,,,,3,64,0,,
8859,note_on,0,0,2,,,,,,,,,1,,,75,49
8859,control_change,19,0,2,,,,,,,,,1,64,0,,
8860,note_on,1,0,4,,,,,,,,,3,,,51,0
8860,note_on,1,0,2,,,,,,,,,1,,,63,0
8879,note_on,19,0,2,,,,,,,,,1,,,75,0
8879,note_on,19,0,4,,,,,,,,,3,,,63,0
8880,note_on,0,0,1,,,,,,,,,0,,,70,75
8880,note_on,0,0,1,,,,,,,,,0,,,55,75
8880,note_on,60,0,1,,,,,,,,,0,,,75,0
8880,note_on,60,0,3,,,,,,,,,2,,,63,0
8900,note_on,0,0,3,,,,,,,,,2,,,39,62
8900,control_change,21,0,2,,,,,,,,,1,64,127,,
8900,control_change,20,0,3,,,,,,,,,2,64,127,,
8900,note_on,0,0,2,,,,,,,,,1,,,63,49
8919,note_on,19,0,2,,,,,,,,,1,,,63,49
8919,note_on,19,0,3,,,,,,,,,2,,,46,62
8920,note_on,1,0,3,,,,,,,,,2,,,39,0
8920,note_on,1,0,2,,,,,,,,,1,,,63,0
8939,note_on,19,0,3,,,,,,,,,2,,,46,0
8939,note_on,19,0,2,,,,,,,,,1,,,63,0
8940,note_on,0,0,1,,,,,,,,,0,,,68,75
8940,note_on,60,0,1,,,,,,,,,0,,,70,0
8940,note_on,1,0,3,,,,,,,,,2,,,51,62
8940,note_on,0,0,1,,,,,,,,,0,,,55,0
8940,note_on,0,0,1,,,,,,,,,0,,,53,75
8940,note_on,1,0,2,,,,,,,,,1,,,63,49
8960,note_on,20,0,2,,,,,,,,,1,,,63,0
8960,note_on,0,0,3,,,,,,,,,2,,,56,62
8960,note_on,20,0,3,,,,,,,,,2,,,51,0
8960,note_on,0,0,2,,,,,,,,,1,,,63,49
8970,note_on,0,0,1,,,,,,,,,0,,,53,0
8970,note_on,0,0,1,,,,,,,,,0,,,70,75
8970,note_on,0,0,1,,,,,,,,,0,,,55,75
8970,note_on,30,0,1,,,,,,,,,0,,,68,0
8979,note_on,19,0,3,,,,,,,,,2,,,58,62
8980,note_on,20,0,2,,,,,,,,,1,,,63,0
8980,note_on,1,0,3,,,,,,,,,2,,,56,0
8999,note_on,19,0,3,,,,,,,,,2,,,58,0
9000,note_on,0,0,1,,,,,,,,,0,,,72,75
9000,note_on,0,0,1,,,,,,,,,0,,,56,75
9000,note_on,0,0,1,,,,,,,,,0,,,55,0
9000,note_on,1,0,3,,,,,,,,,2,,,60,62
9000,note_on,30,0,1,,,,,,,,,0,,,70,0
9020,note_on,0,0,3,,,,,,,,,2,,,63,62
9020,note_on,40,0,2,,,,,,,,,1,,,63,49
9020,note_on,20,0,3,,,,,,,,,2,,,60,0
9039,note_on,19,0,3,,,,,,,,,2,,,68,62
9039,note_on,19,0,2,,,,,,,,,1,,,63,49
9040,note_on,1,0,3,,,,,,,,,2,,,63,0
9040,note_on,1,0,2,,,,,,,,,1,,,63,0
9059,note_on,19,0,2,,,,,,,,,1,,,63,0
9059,note_on,19,0,3,,,,,,,,,2,,,68,0
9060,note_on,1,0,2,,,,,,,,,1,,,63,49
9060,note_on,1,0,3,,,,,,,,,2,,,72,62
9080,control_change,0,0,2,,,,,,,,,1,64,0,,
9080,note_on,0,0,2,,,,,,,,,1,,,63,49
9080,note_on,0,0,3,,,,,,,,,2,,,75,62
9080,note_on,20,0,3,,,,,,,,,2,,,72,0
9080,note_on,20,0,2,,,,,,,,,1,,,63,0
9090,note_on,90,0,1,,,,,,,,,0,,,72,0
9090,note_on,0,0,1,,,,,,,,,0,,,56,0
9090,note_on,0,0,1,,,,,,,,,0,,,56,75
9090,note_on,0,0,1,,,,,,,,,0,,,72,75
9099,note_on,0,0,3,,,,,,,,,2,,,84,62
9099,control_change,19,0,3,,,,,,,,,2,64,0,,
9100,note_on,20,0,2,,,,,,,,,1,,,63,0
9100,note_on,1,0,3,,,,,,,,,2,,,75,0
9119,note_on,19,0,3,,,,,,,,,2,,,84,0
9120,note_on,0,0,1,,,,,,,,,0,,,73,75
9120,note_on,0,0,1,,,,,,,,,0,,,56,0
9120,note_on,0,0,2,,,,,,,,,1,,,63,49
9120,control_change,1,0,3,,,,,,,,,2,64,127,,
9120,note_on,30,0,1,,,,,,,,,0,,,72,0
9120,note_on,0,0,3,,,,,,,,,2,,,87,62
9120,note_on,0,0,1,,,,,,,,,0,,,58,75
9120,control_change,20,0,2,,,,,,,,,1,64,127,,
9140,note_on,0,0,3,,,,,,,,,2,,,85,62
9140,note_on,20,0,3,,,,,,,,,2,,,87,0
9150,note_on,0,0,2,,,,,,,,,1,,,63,49
9150,note_on,30,0,2,,,,,,,,,1,,,63,0
9159,note_on,19,0,3,,,,,,,,,2,,,82,62
9160,note_on,1,0,3,,,,,,,,,2,,,85,0
9179,note_on,19,0,3,,,,,,,,,2,,,82,0
9180,note_on,30,0,2,,,,,,,,,1,,,63,0
9180,note_on,1,0,3,,,,,,,,,2,,,75,62
9180,note_on,0,0,2,,,,,,,,,1,,,63,49
9200,note_on,20,0,3,,,,,,,,,2,,,75,0
9200,note_on,0,0,3,,,,,,,,,2,,,73,62
9210,note_on,0,0,1,,,,,,,,,0,,,56,75
9210,note_on,0,0,1,,,,,,,,,0,,,58,0
9210,note_on,0,0,1,,,,,,,,,0,,,72,75
9210,note_on,0,0,2,,,,,,,,,1,,,63,49
9210,note_on,90,0,1,,,,,,,,,0,,,73,0
9210,note_on,30,0,2,,,,,,,,,1,,,63,0
9220,note_on,20,0,3,,,,,,,,,2,,,73,0
9240,note_on,30,0,2,,,,,,,,,1,,,63,0
9240,note_on,30,0,1,,,,,,,,,0,,,72,0
9240,note_on,0,0,2,,,,,,,,,1,,,63,49
9240,note_on,0,0,1,,,,,,,,,0,,,56,0
9240,note_on,0,0,1,,,,,,,,,0,,,55,75
9240,note_on,0,0,1,,,,,,,,,0,,,70,75
9260,note_on,40,0,3,,,,,,,,,2,,,67,62
9270,note_on,0,0,2,,,,,,,,,1,,,63,49
9270,note_on,30,0,2,,,,,,,,,1,,,63,0
9279,note_on,19,0,3,,,,,,,,,2,,,63,62
9280,note_on,1,0,3,,,,,,,,,2,,,67,0
9299,note_on,19,0,3,,,,,,,,,2,,,63,0
9300,note_on,0,0,2,,,,,,,,,1,,,63,49
9300,note_on,30,0,2,,,,,,,,,1,,,63,0
9300,note_on,1,0,3,,,,,,,,,2,,,58,62
9320,note_on,20,0,3,,,,,,,,,2,,,58,0
9320,note_on,0,0,3,,,,,,,,,2,,,55,62
9330,control_change,0,0,2,,,,,,,,,1,64,0,,
9330,note_on,0,0,2,,,,,,,,,1,,,63,49
9330,note_on,30,0,2,,,,,,,,,1,,,63,0
9339,note_on,0,0,3,,,,,,,,,2,,,51,62
9339,control_change,19,0,3,,,,,,,,,2,64,0,,
9340,note_on,1,0,3,,,,,,,,,2,,,55,0
9359,note_on,19,0,3,,,,,,,,,2,,,51,0
9360,note_on,1,0,3,,,,,,,,,2,,,43,75
9360,note_on,0,0,3,,,,,,,,,2,,,58,75
9360,note_on,30,0,2,,,,,,,,,1,,,63,0
9360,control_change,481,0,4,,,,,,,,,3,64,127,,
9360,note_on,120,0,1,,,,,,,,,0,,,70,0
9360,note_on,0,0,1,,,,,,,,,0,,,55,0
9360,note_on,0,0,4,,,,,,,,,3,,,51,49
9380,note_on,0,0,1,,,,,,,,,0,,,63,75
9380,control_change,20,0,1,,,,,,,,,0,64,127,,
9390,note_on,0,0,4,,,,,,,,,3,,,51,49
9390,note_on,30,0,4,,,,,,,,,3,,,51,0
9399,note_on,19,0,1,,,,,,,,,0,,,70,75
9400,note_on,1,0,1,,,,,,,,,0,,,63,0
9419,note_on,19,0,1,,,,,,,,,0,,,70,0
9420,note_on,60,0,3,,,,,,,,,2,,,58,0
9420,note_on,0,0,4,,,,,,,,,3,,,51,49
9420,note_on,30,0,4,,,,,,,,,3,,,51,0
9420,note_on,0,0,3,,,,,,,,,2,,,41,75
9420,note_on,1,0,1,,,,,,,,,0,,,75,75
9420,note_on,0,0,3,,,,,,,,,2,,,43,0
9420,note_on,0,0,3,,,,,,,,,2,,,56,75
9440,note_on,20,0,1,,,,,,,,,0,,,75,0
9440,note_on,0,0,1,,,,,,,,,0,,,80,75
9450,note_on,0,0,3,,,,,,,,,2,,,43,75
9450,note_on,30,0,3,,,,,,,,,2,,,56,0
9450,note_on,0,0,3,,,,,,,,,2,,,58,75
9450,note_on,0,0,3,,,,,,,,,2,,,41,0
9450,note_on,0,0,4,,,,,,,,,3,,,51,49
9450,note_on,30,0,4,,,,,,,,,3,,,51,0
9459,note_on,19,0,1,,,,,,,,,0,,,82,75
9460,note_on,1,0,1,,,,,,,,,0,,,80,0
9479,note_on,19,0,1,,,,,,,,,0,,,82,0
9480,note_on,1,0,1,,,,,,,,,0,,,84,75
9480,note_on,0,0,4,,,,,,,,,3,,,51,49
9480,note_on,0,0,3,,,,,,,,,2,,,60,88
9480,note_on,30,0,3,,,,,,,,,2,,,58,0
9480,note_on,0,0,3,,,,,,,,,2,,,44,88
9480,note_on,30,0,4,,,,,,,,,3,,,51,0
9480,note_on,0,0,3,,,,,,,,,2,,,43,0
9500,note_on,20,0,1,,,,,,,,,0,,,84,0
9500,note_on,0,0,1,,,,,,,,,0,,,87,75
9510,note_on,0,0,4,,,,,,,,,3,,,51,49
9510,note_on,30,0,4,,,,,,,,,3,,,51,0
9519,note_on,19,0,1,,,,,,,,,0,,,96,75
9520,note_on,1,0,1,,,,,,,,,0,,,87,0
9539,note_on,19,0,1,,,,,,,,,0,,,96,0
9540,note_on,1,0,1,,,,,,,,,0,,,99,75
9540,note_on,30,0,4,,,,,,,,,3,,,51,0
9540,note_on,0,0,4,,,,,,,,,3,,,51,49
9560,note_on,20,0,1,,,,,,,,,0,,,99,0
9560,note_on,0,0,1,,,,,,,,,0,,,96,75
9570,note_on,30,0,4,,,,,,,,,3,,,51,0
9570,note_on,90,0,3,,,,,,,,,2,,,60,0
9570,control_change,0,0,4,,,,,,,,,3,64,0,,
9570,note_on,0,0,3,,,,,,,,,2,,,60,88
9570,note_on,0,0,3,,,,,,,,,2,,,44,0
9570,note_on,0,0,3,,,,,,,,,2,,,44,88
9570,note_on,0,0,4,,,,,,,,,3,,,51,49
9579,control_change,19,0,1,,,,,,,,,0,64,0,,
9579,note_on,0,0,1,,,,,,,,,0,,,87,75
9580,note_on,1,0,1,,,,,,,,,0,,,96,0
9599,note_on,19,0,1,,,,,,,,,0,,,87,0
9600,note_on,30,0,4,,,,,,,,,3,,,51,0
9600,note_on,30,0,3,,,,,,,,,2,,,60,0
9600,control_change,1,0,1,,,,,,,,,0,64,127,,
9600,note_on,0,0,3,,,,,,,,,2,,,63,88
9600,note_on,0,0,4,,,,,,,,,3,,,51,49
9600,note_on,0,0,3,,,,,,,,,2,,,46,88
9600,note_on,0,0,3,,,,,,,,,2,,,44,0
9600,note_on,0,0,1,,,,,,,,,0,,,87,75
9600,control_change,0,0,4,,,,,,,,,3,64,127,,
9604,note_on,0,0,3,,,,,,,,,2,,,46,0
9604,note_on,4,0,3,,,,,,,,,2,,,63,0
9620,note_on,20,0,1,,,,,,,,,0,,,87,0
9620,note_on,0,0,1,,,,,,,,,0,,,85,75
9630,note_on,26,0,3,,,,,,,,,2,,,46,88
9630,note_on,0,0,3,,,,,,,,,2,,,61,88
9630,note_on,30,0,4,,,,,,,,,3,,,51,0
9630,note_on,0,0,4,,,,,,,,,3,,,51,49
9636,note_on,6,0,3,,,,,,,,,2,,,61,0
9636,note_on,0,0,3,,,,,,,,,2,,,46,0
9639,note_on,19,0,1,,,,,,,,,0,,,75,75
9640,note_on,1,0,1,,,,,,,,,0,,,85,0
9659,note_on,19,0,1,,,,,,,,,0,,,75,0
9660,note_on,1,0,1,,,,,,,,,0,,,73,75
9660,note_on,30,0,4,,,,,,,,,3,,,51,0
9660,note_on,0,0,4,,,,,,,,,3,,,51,49
9680,note_on,20,0,1,,,,,,,,,0,,,73,0
9680,note_on,0,0,1,,,,,,,,,0,,,75,75
9690,note_on,54,0,3,,,,,,,,,2,,,44,88
9690,note_on,0,0,3,,,,,,,,,2,,,60,88
9690,note_on,0,0,4,,,,,,,,,3,,,51,49
9690,note_on,30,0,4,,,,,,,,,3,,,51,0
9694,note_on,0,0,3,,,,,,,,,2,,,44,0
9694,note_on,4,0,3,,,,,,,,,2,,,60,0
9699,note_on,19,0,1,,,,,,,,,0,,,72,75
9700,note_on,1,0,1,,,,,,,,,0,,,75,0
9719,note_on,19,0,1,,,,,,,,,0,,,72,0
9720,note_on,0,0,4,,,,,,,,,3,,,51,49
9720,note_on,0,0,3,,,,,,,,,2,,,58,88
9720,note_on,30,0,4,,,,,,,,,3,,,51,0
9720,note_on,1,0,1,,,,,,,,,0,,,70,75
9720,note_on,26,0,3,,,,,,,,,2,,,43,88
9740,note_on,0,0,1,,,,,,,,,0,,,63,75
9740,note_on,20,0,1,,,,,,,,,0,,,70,0
9750,note_on,0,0,4,,,,,,,,,3,,,51,49
9750,note_on,30,0,4,,,,,,,,,3,,,51,0
9759,note_on,19,0,1,,,,,,,,,0,,,70,75
9760,note_on,1,0,1,,,,,,,,,0,,,63,0
9779,note_on,19,0,1,,,,,,,,,0,,,70,0
9780,note_on,30,0,4,,,,,,,,,3,,,51,0
9780,note_on,1,0,1,,,,,,,,,0,,,75,75
9780,note_on,0,0,4,,,,,,,,,3,,,51,49
9800,note_on,0,0,1,,,,,,,,,0,,,82,75
9800,note_on,20,0,1,,,,,,,,,0,,,75,0
9810,note_on,30,0,4,,,,,,,,,3,,,51,0
9810,control_change,0,0,4,,,,,,,,,3,64,0,,
9810,note_on,0,0,4,,,,,,,,,3,,,51,49
9819,control_change,19,0,1,,,,,,,,,0,64,0,,
9819,note_on,0,0,1,,,,,,,,,0,,,87,75
9820,note_on,1,0,1,,,,,,,,,0,,,82,0
9839,note_on,19,0,1,,,,,,,,,0,,,87,0
9840,note_on,120,0,3,,,,,,,,,2,,,58,0
9840,note_on,30,0,4,,,,,,,,,3,,,51,0
9840,note_on,0,0,4,,,,,,,,,3,,,44,49
9840,note_on,0,0,3,,,,,,,,,2,,,43,0
9840,note_on,1,0,1,,,,,,,,,0,,,71,114
9860,control_change,500,0,2,,,,,,,,,1,64,127,,
9860,note_on,0,0,3,,,,,,,,,2,,,50,88
9860,control_change,20,0,3,,,,,,,,,2,64,127,,
9860,note_on,0,0,2,,,,,,,,,1,,,62,62
9879,note_on,19,0,3,,,,,,,,,2,,,53,88
9879,note_on,19,0,2,,,,,,,,,1,,,65,62
9880,note_on,1,0,3,,,,,,,,,2,,,50,0
9880,note_on,1,0,2,,,,,,,,,1,,,62,0
9899,note_on,19,0,3,,,,,,,,,2,,,53,0
9899,note_on,19,0,2,,,,,,,,,1,,,65,0
9900,note_on,0,0,1,,,,,,,,,0,,,71,114
9900,note_on,60,0,1,,,,,,,,,0,,,71,0
9900,note_on,1,0,3,,,,,,,,,2,,,59,88
9920,note_on,21,0,2,,,,,,,,,1,,,74,62
9920,note_on,0,0,2,,,,,,,,,1,,,77,62
9920,note_on,20,0,3,,,,,,,,,2,,,53,88
9939,note_on,0,0,3,,,,,,,,,2,,,50,88
9939,note_on,0,0,2,,,,,,,,,1,,,83,62
9939,control_change,19,0,2,,,,,,,,,1,64,0,,
9939,control_change,19,0,3,,,,,,,,,2,64,0,,
9940,note_on,0,0,2,,,,,,,,,1,,,74,0
9940,note_on,0,0,3,,,,,,,,,2,,,59,0
9940,note_on,1,0,3,,,,,,,,,2,,,53,0
9940,note_on,1,0,2,,,,,,,,,1,,,77,0
9945,note_on,0,0,1,,,,,,,,,0,,,71,88
9945,note_on,45,0,1,,,,,,,,,0,,,71,0
9959,note_on,19,0,2,,,,,,,,,1,,,83,0
9959,note_on,19,0,3,,,,,,,,,2,,,50,0
9960,note_on,0,0,4,,,,,,,,,3,,,43,49
9960,note_on,0,0,1,,,,,,,,,0,,,71,114
9960,note_on,15,0,1,,,,,,,,,0,,,71,0
9960,note_on,120,0,4,,,,,,,,,3,,,44,0
9980,note_on,0,0,2,,,,,,,,,1,,,63,62
9980,control_change,21,0,3,,,,,,,,,2,64,127,,
9980,note_on,0,0,3,,,,,,,,,2,,,51,88
9980,control_change,21,0,2,,,,,,,,,1,64,127,,
9999,note_on,19,0,2,,,,,,,,,1,,,67,62
9999,note_on,19,0,3,,,,,,,,,2,,,55,88
10000,note_on,1,0,3,,,,,,,,,2,,,51,0
10000,note_on,1,0,2,,,,,,,,,1,,,63,0
10019,note_on,19,0,3,,,,,,,,,2,,,55,0
10019,note_on,19,0,2,,,,,,,,,1,,,67,0
10020,note_on,0,0,1,,,,,,,,,0,,,70,88
10020,note_on,1,0,3,,,,,,,,,2,,,58,88
10020,note_on,60,0,1,,,,,,,,,0,,,71,0
10040,note_on,20,0,3,,,,,,,,,2,,,55,88
10040,note_on,0,0,2,,,,,,,,,1,,,79,62
10040,note_on,21,0,2,,,,,,,,,1,,,75,62
10059,note_on,0,0,2,,,,,,,,,1,,,82,62
10059,control_change,19,0,3,,,,,,,,,2,64,0,,
10059,control_change,19,0,2,,,,,,,,,1,64,0,,
10059,note_on,0,0,3,,,,,,,,,2,,,51,88
10060,note_on,1,0,2,,,,,,,,,1,,,79,0
10060,note_on,0,0,2,,,,,,,,,1,,,75,0
10060,note_on,1,0,3,,,,,,,,,2,,,55,0
10060,note_on,0,0,3,,,,,,,,,2,,,58,0
10079,note_on,19,0,3,,,,,,,,,2,,,51,0
10079,note_on,19,0,2,,,,,,,,,1,,,82,0
10080,note_on,0,0,1,,,,,,,,,0,,,77,114
10080,note_on,60,0,1,,,,,,,,,0,,,70,0
10080,note_on,0,0,4,,,,,,,,,3,,,44,75
10080,note_on,120,0,4,,,,,,,,,3,,,43,0
10100,control_change,21,0,3,,,,,,,,,2,64,127,,
10100,control_change,21,0,2,,,,,,,,,1,64,127,,
10100,note_on,0,0,2,,,,,,,,,1,,,62,75
10100,note_on,0,0,3,,,,,,,,,2,,,50,75
10119,note_on,19,0,3,,,,,,,,,2,,,53,75
10119,note_on,19,0,2,,,,,,,,,1,,,65,75
10120,note_on,1,0,3,,,,,,,,,2,,,50,0
10120,note_on,1,0,2,,,,,,,,,1,,,62,0
10139,note_on,19,0,2,,,,,,,,,1,,,65,0
10139,note_on,19,0,3,,,,,,,,,2,,,53,0
10140,note_on,1,0,3,,,,,,,,,2,,,58,75
10140,note_on,0,0,1,,,,,,,,,0,,,74,114
10140,note_on,60,0,1,,,,,,,,,0,,,77,0
10140,note_on,1,0,2,,,,,,,,,1,,,70,75
10160,note_on,20,0,3,,,,,,,,,2,,,58,0
10160,note_on,0,0,3,,,,,,,,,2,,,62,75
10160,note_on,0,0,2,,,,,,,,,1,,,74,75
10160,note_on,20,0,2,,,,,,,,,1,,,70,0
10179,note_on,0,0,2,,,,,,,,,1,,,86,75
10179,control_change,19,0,2,,,,,,,,,1,64,0,,
10179,control_change,19,0,3,,,,,,,,,2,64,0,,
10179,note_on,0,0,3,,,,,,,,,2,,,53,75
10180,note_on,1,0,2,,,,,,,,,1,,,74,0
10180,note_on,1,0,3,,,,,,,,,2,,,62,0
10199,note_on,19,0,3,,,,,,,,,2,,,53,0
10199,note_on,19,0,2,,,,,,,,,1,,,86,0
10200,note_on,0,0,4,,,,,,,,,3,,,43,75
10200,note_on,60,0,1,,,,,,,,,0,,,74,0
10200,note_on,0,0,1,,,,,,,,,0,,,75,88
10200,note_on,120,0,4,,,,,,,,,3,,,44,0
10220,note_on,0,0,3,,,,,,,,,2,,,51,75
10220,note_on,0,0,2,,,,,,,,,1,,,63,75
10220,control_change,21,0,3,,,,,,,,,2,64,127,,
10220,control_change,21,0,2,,,,,,,,,1,64,127,,
10239,note_on,19,0,2,,,,,,,,,1,,,67,75
10239,note_on,19,0,3,,,,,,,,,2,,,55,75
10240,note_on,1,0,3,,,,,,,,,2,,,51,0
10240,note_on,1,0,2,,,,,,,,,1,,,63,0
10259,note_on,19,0,3,,,,,,,,,2,,,55,0
10259,note_on,19,0,2,,,,,,,,,1,,,67,0
10260,note_on,1,0,2,,,,,,,,,1,,,70,75
10260,note_on,1,0,3,,,,,,,,,2,,,58,75
10280,note_on,20,0,2,,,,,,,,,1,,,70,0
10280,note_on,0,0,3,,,,,,,,,2,,,63,75
10280,note_on,0,0,2,,,,,,,,,1,,,75,75
10280,note_on,20,0,3,,,,,,,,,2,,,58,0
10299,note_on,0,0,2,,,,,,,,,1,,,87,75
10299,note_on,0,0,3,,,,,,,,,2,,,63,75
10299,control_change,19,0,3,,,,,,,,,2,64,0,,
10299,control_change,19,0,2,,,,,,,,,1,64,0,,
10300,note_on,1,0,2,,,,,,,,,1,,,75,0
10300,note_on,1,0,3,,,,,,,,,2,,,63,0
10319,note_on,19,0,2,,,,,,,,,1,,,87,0
10319,note_on,19,0,3,,,,,,,,,2,,,63,0
10320,note_on,120,0,4,,,,,,,,,3,,,43,0
10320,note_on,0,0,4,,,,,,,,,3,,,60,75
10320,note_on,0,0,4,,,,,,,,,3,,,56,75
10320,note_on,120,0,1,,,,,,,,,0,,,75,0
10340,control_change,21,0,3,,,,,,,,,2,64,127,,
10340,note_on,20,0,1,,,,,,,,,0,,,72,114
10340,note_on,0,0,3,,,,,,,,,2,,,63,75
10359,note_on,19,0,3,,,,,,,,,2,,,63,75
10359,note_on,40,0,2,,,,,,,,,1,,,87,75
10360,note_on,1,0,3,,,,,,,,,2,,,63,0
10379,note_on,19,0,3,,,,,,,,,2,,,63,0
10379,note_on,20,0,2,,,,,,,,,1,,,87,0
10380,note_on,60,0,4,,,,,,,,,3,,,60,0
10380,note_on,0,0,4,,,,,,,,,3,,,61,75
10380,note_on,1,0,3,,,,,,,,,2,,,63,75
10380,note_on,0,0,4,,,,,,,,,3,,,56,0
10380,note_on,0,0,4,,,,,,,,,3,,,58,75
10380,note_on,40,0,1,,,,,,,,,0,,,72,0
10380,note_on,0,0,1,,,,,,,,,0,,,73,114
10400,note_on,21,0,2,,,,,,,,,1,,,87,75
10400,note_on,0,0,3,,,,,,,,,2,,,63,75
10400,note_on,20,0,3,,,,,,,,,2,,,63,0
10410,note_on,0,0,4,,,,,,,,,3,,,55,75
10410,note_on,0,0,4,,,,,,,,,3,,,58,75
10410,note_on,0,0,4,,,,,,,,,3,,,58,0
10410,note_on,30,0,4,,,,,,,,,3,,,61,0
10419,note_on,39,0,1,,,,,,,,,0,,,70,88
10419,note_on,19,0,3,,,,,,,,,2,,,63,75
10420,note_on,1,0,1,,,,,,,,,0,,,73,0
10420,note_on,1,0,3,,,,,,,,,2,,,63,0
10420,note_on,20,0,2,,,,,,,,,1,,,87,0
10439,note_on,19,0,3,,,,,,,,,2,,,63,0
10440,note_on,0,0,4,,,,,,,,,3,,,60,75
10440,note_on,20,0,2,,,,,,,,,1,,,87,75
10440,note_on,1,0,3,,,,,,,,,2,,,63,75
10440,note_on,30,0,4,,,,,,,,,3,,,58,0
10440,note_on,0,0,4,,,,,,,,,3,,,55,0
10459,note_on,39,0,1,,,,,,,,,0,,,70,0
10460,note_on,20,0,2,,,,,,,,,1,,,87,0
10460,note_on,1,0,1,,,,,,,,,0,,,75,88
10460,note_on,20,0,3,,,,,,,,,2,,,63,0
10460,note_on,0,0,3,,,,,,,,,2,,,63,75
10479,note_on,19,0,2,,,,,,,,,1,,,87,75
10479,note_on,19,0,3,,,,,,,,,2,,,63,75
10480,note_on,1,0,3,,,,,,,,,2,,,63,0
10499,note_on,19,0,3,,,,,,,,,2,,,63,0
10499,note_on,20,0,2,,,,,,,,,1,,,87,0
10500,note_on,0,0,4,,,,,,,,,3,,,60,75
10500,note_on,40,0,1,,,,,,,,,0,,,75,0
10500,note_on,0,0,1,,,,,,,,,0,,,72,114
10500,note_on,60,0,4,,,,,,,,,3,,,60,0
10500,note_on,1,0,3,,,,,,,,,2,,,63,75
10500,note_on,0,0,4,,,,,,,,,3,,,56,75
10520,note_on,0,0,3,,,,,,,,,2,,,63,75
10520,note_on,21,0,2,,,,,,,,,1,,,92,75
10520,note_on,20,0,3,,,,,,,,,2,,,63,0
10539,control_change,19,0,3,,,,,,,,,2,64,0,,
10539,note_on,0,0,3,,,,,,,,,2,,,63,75
10539,note_on,19,0,2,,,,,,,,,1,,,68,36
10540,note_on,1,0,2,,,,,,,,,1,,,92,0
10540,note_on,1,0,3,,,,,,,,,2,,,63,0
10559,note_on,19,0,2,,,,,,,,,1,,,68,0
10559,note_on,19,0,3,,,,,,,,,2,,,63,0
10560,note_on,0,0,4,,,,,,,,,3,,,60,88
10560,note_on,0,0,4,,,,,,,,,3,,,56,0
10560,note_on,0,0,4,,,,,,,,,3,,,44,88
10560,note_on,60,0,4,,,,,,,,,3,,,60,0
10560,note_on,60,0,1,,,,,,,,,0,,,72,0
10560,note_on,0,0,1,,,,,,,,,0,,,96,88
10580,note_on,0,0,3,,,,,,,,,2,,,51,88
10580,control_change,21,0,3,,,,,,,,,2,64,127,,
10580,note_on,20,0,1,,,,,,,,,0,,,96,0
10580,note_on,0,0,1,,,,,,,,,0,,,72,127
10599,note_on,40,0,2,,,,,,,,,1,,,87,88
10599,note_on,19,0,3,,,,,,,,,2,,,51,88
10600,note_on,1,0,3,,,,,,,,,2,,,51,0
10619,note_on,19,0,3,,,,,,,,,2,,,51,0
10619,note_on,20,0,2,,,,,,,,,1,,,87,0
10620,note_on,0,0,1,,,,,,,,,0,,,73,127
10620,note_on,40,0,1,,,,,,,,,0,,,72,0
10620,note_on,1,0,3,,,,,,,,,2,,,51,88
10620,note_on,0,0,4,,,,,,,,,3,,,44,0
10620,note_on,0,0,4,,,,,,,,,3,,,46,88
10620,note_on,0,0,4,,,,,,,,,3,,,61,88
10620,note_on,60,0,4,,,,,,,,,3,,,60,0
10640,note_on,21,0,2,,,,,,,,,1,,,87,88
10640,note_on,0,0,3,,,,,,,,,2,,,51,88
10640,note_on,20,0,3,,,,,,,,,2,,,51,0
10650,note_on,0,0,4,,,,,,,,,3,,,46,0
10650,note_on,0,0,4,,,,,,,,,3,,,58,88
10650,note_on,30,0,4,,,,,,,,,3,,,61,0
10650,note_on,0,0,4,,,,,,,,,3,,,43,88
10659,note_on,19,0,3,,,,,,,,,2,,,51,88
10659,note_on,39,0,1,,,,,,,,,0,,,70,101
10660,note_on,1,0,3,,,,,,,,,2,,,51,0
10660,note_on,1,0,1,,,,,,,,,0,,,73,0
10660,note_on,20,0,2,,,,,,,,,1,,,87,0
10679,note_on,19,0,3,,,,,,,,,2,,,51,0
10680,note_on,1,0,3,,,,,,,,,2,,,51,88
10680,note_on,20,0,2,,,,,,,,,1,,,87,88
10680,note_on,0,0,4,,,,,,,,,3,,,63,88
10680,note_on,0,0,4,,,,,,,,,3,,,48,88
10680,note_on,30,0,4,,,,,,,,,3,,,58,0
10680,note_on,0,0,4,,,,,,,,,3,,,43,0
10699,note_on,39,0,1,,,,,,,,,0,,,70,0
10700,note_on,0,0,3,,,,,,,,,2,,,51,88
10700,note_on,1,0,1,,,,,,,,,0,,,72,101
10700,note_on,20,0,3,,,,,,,,,2,,,51,0
10700,note_on,20,0,2,,,,,,,,,1,,,87,0
10719,note_on,19,0,3,,,,,,,,,2,,,51,88
10719,note_on,19,0,2,,,,,,,,,1,,,92,88
10720,note_on,1,0,3,,,,,,,,,2,,,51,0
10739,note_on,20,0,2,,,,,,,,,1,,,92,0
10739,note_on,19,0,3,,,,,,,,,2,,,51,0
10740,note_on,1,0,3,,,,,,,,,2,,,51,88
10740,note_on,0,0,4,,,,,,,,,3,,,48,0
10740,note_on,40,0,1,,,,,,,,,0,,,72,0
10740,note_on,0,0,4,,,,,,,,,3,,,44,88
10740,note_on,0,0,1,,,,,,,,,0,,,68,127
10740,note_on,60,0,4,,,,,,,,,3,,,63,0
10740,note_on,0,0,4,,,,,,,,,3,,,60,88
10760,note_on,0,0,3,,,,,,,,,2,,,51,88
10760,note_on,21,0,2,,,,,,,,,1,,,96,88
10760,note_on,20,0,3,,,,,,,,,2,,,51,0
10779,control_change,19,0,3,,,,,,,,,2,64,0,,
10779,note_on,19,0,2,,,,,,,,,1,,,72,36
10779,note_on,0,0,3,,,,,,,,,2,,,51,88
10780,note_on,1,0,3,,,,,,,,,2,,,51,0
10780,note_on,1,0,2,,,,,,,,,1,,,96,0
10799,note_on,19,0,2,,,,,,,,,1,,,72,0
10799,note_on,19,0,3,,,,,,,,,2,,,51,0
10800,note_on,60,0,4,,,,,,,,,3,,,60,0
10800,note_on,0,0,1,,,,,,,,,0,,,99,114
10800,note_on,0,0,4,,,,,,,,,3,,,44,0
10800,note_on,60,0,1,,,,,,,,,0,,,68,0
10830,note_on,0,0,1,,,,,,,,,0,,,80,114
10830,note_on,0,0,1,,,,,,,,,0,,,75,114
10830,note_on,0,0,1,,,,,,,,,0,,,68,114
10830,note_on,0,0,1,,,,,,,,,0,,,66,114
10830,note_on,30,0,1,,,,,,,,,0,,,99,0
10830,note_on,0,0,3,,,,,,,,,2,,,56,101
10830,note_on,31,0,3,,,,,,,,,2,,,48,101
10830,note_on,0,0,3,,,,,,,,,2,,,60,101
10860,note_on,0,0,1,,,,,,,,,0,,,80,127
10860,note_on,30,0,3,,,,,,,,,2,,,60,0
10860,note_on,0,0,1,,,,,,,,,0,,,65,127
10860,note_on,0,0,3,,,,,,,,,2,,,56,122
10860,note_on,0,0,3,,,,,,,,,2,,,48,0
10860,note_on,30,0,1,,,,,,,,,0,,,80,0
10860,note_on,0,0,1,,,,,,,,,0,,,66,0
10860,note_on,0,0,1,,,,,,,,,0,,,68,0
10860,note_on,0,0,1,,,,,,,,,0,,,73,127
10860,note_on,0,0,3,,,,,,,,,2,,,56,0
10860,note_on,0,0,3,,,,,,,,,2,,,61,127
10860,note_on,0,0,1,,,,,,,,,0,,,75,0
10860,note_on,0,0,3,,,,,,,,,2,,,49,117
10864,note_on,0,0,3,,,,,,,,,2,,,49,0
10864,note_on,0,0,3,,,,,,,,,2,,,56,0
10864,note_on,0,0,1,,,,,,,,,0,,,65,0
10864,note_on,0,0,1,,,,,,,,,0,,,73,0
10864,note_on,4,0,1,,,,,,,,,0,,,80,0
10864,note_on,4,0,3,,,,,,,,,2,,,61,0
10890,note_on,26,0,1,,,,,,,,,0,,,68,114
10890,note_on,0,0,3,,,,,,,,,2,,,62,101
10890,note_on,0,0,3,,,,,,,,,2,,,58,101
10890,note_on,0,0,1,,,,,,,,,0,,,82,114
10890,note_on,26,0,3,,,,,,,,,2,,,50,101
10890,note_on,0,0,1,,,,,,,,,0,,,70,114
10890,note_on,0,0,1,,,,,,,,,0,,,77,114
10920,note_on,0,0,1,,,,,,,,,0,,,82,127
10920,note_on,0,0,1,,,,,,,,,0,,,70,0
10920,note_on,0,0,3,,,,,,,,,2,,,51,117
10920,note_on,0,0,3,,,,,,,,,2,,,50,0
10920,note_on,0,0,3,,,,,,,,,2,,,58,0
10920,note_on,0,0,3,,,,,,,,,2,,,58,122
10920,note_on,0,0,1,,,,,,,,,0,,,68,0
10920,note_on,0,0,1,,,,,,,,,0,,,75,127
10920,note_on,0,0,3,,,,,,,,,2,,,63,127
10920,note_on,30,0,3,,,,,,,,,2,,,62,0
10920,note_on,30,0,1,,,,,,,,,0,,,82,0
10920,note_on,0,0,1,,,,,,,,,0,,,67,127
10920,note_on,0,0,1,,,,,,,,,0,,,77,0
10924,note_on,0,0,3,,,,,,,,,2,,,51,0
10924,note_on,0,0,1,,,,,,,,,0,,,67,0
10924,note_on,4,0,1,,,,,,,,,0,,,82,0
10924,note_on,0,0,3,,,,,,,,,2,,,58,0
10924,note_on,4,0,3,,,,,,,,,2,,,63,0
10924,note_on,0,0,1,,,,,,,,,0,,,75,0
10950,note_on,0,0,3,,,,,,,,,2,,,67,101
10950,note_on,0,0,3,,,,,,,,,2,,,62,101
10950,note_on,0,0,1,,,,,,,,,0,,,79,127
10950,note_on,0,0,1,,,,,,,,,0,,,85,127
10950,note_on,26,0,3,,,,,,,,,2,,,52,101
10950,note_on,26,0,1,,,,,,,,,0,,,70,127
10950,note_on,0,0,3,,,,,,,,,2,,,58,101
11010,note_on,0,0,3,,,,,,,,,2,,,58,0
11010,note_on,0,0,3,,,,,,,,,2,,,53,101
11010,note_on,0,0,3,,,,,,,,,2,,,56,101
11010,note_on,0,0,3,,,,,,,,,2,,,60,101
11010,note_on,0,0,1,,,,,,,,,0,,,80,114
11010,note_on,0,0,3,,,,,,,,,2,,,65,101
11010,note_on,60,0,3,,,,,,,,,2,,,67,0
11010,note_on,0,0,1,,,,,,,,,0,,,84,114
11010,note_on,0,0,1,,,,,,,,,0,,,79,0
11010,note_on,0,0,1,,,,,,,,,0,,,70,0
11010,note_on,0,0,1,,,,,,,,,0,,,68,114
11010,note_on,60,0,1,,,,,,,,,0,,,85,0
11010,note_on,0,0,3,,,,,,,,,2,,,62,0
11010,note_on,0,0,3,,,,,,,,,2,,,52,0
11040,note_on,30,0,1,,,,,,,,,0,,,84,0
11040,note_on,30,0,3,,,,,,,,,2,,,65,0
11040,note_on,0,0,3,,,,,,,,,2,,,53,0
11040,note_on,0,0,1,,,,,,,,,0,,,89,114
11040,note_on,0,0,1,,,,,,,,,0,,,80,114
11040,note_on,0,0,1,,,,,,,,,0,,,80,0
11040,note_on,0,0,1,,,,,,,,,0,,,73,114
11040,note_on,0,0,1,,,,,,,,,0,,,68,0
11040,note_on,0,0,1,,,,,,,,,0,,,82,114
11040,note_on,0,0,3,,,,,,,,,2,,,49,101
11040,note_on,0,0,3,,,,,,,,,2,,,56,0
11040,note_on,0,0,3,,,,,,,,,2,,,56,101
11040,note_on,0,0,3,,,,,,,,,2,,,58,101
11040,note_on,0,0,3,,,,,,,,,2,,,60,0
11040,note_on,0,0,3,,,,,,,,,2,,,65,101
11130,note_on,0,0,3,,,,,,,,,2,,,58,0
11130,note_on,90,0,1,,,,,,,,,0,,,89,0
11130,note_on,0,0,3,,,,,,,,,2,,,56,0
11130,note_on,90,0,3,,,,,,,,,2,,,65,0
11130,note_on,0,0,1,,,,,,,,,0,,,73,0
11130,note_on,0,0,1,,,,,,,,,0,,,80,0
11130,note_on,0,0,3,,,,,,,,,2,,,49,0
11130,set_tempo,5370,1,0,,,,,,625000,,,,,,,
11130,note_on,0,0,1,,,,,,,,,0,,,88,88
11130,note_on,0,0,1,,,,,,,,,0,,,82,0
11145,note_on,0,0,1,,,,,,,,,0,,,89,88
11145,note_on,15,0,1,,,,,,,,,0,,,88,0
11160,note_on,0,0,1,,,,,,,,,0,,,90,88
11160,note_on,15,0,1,,,,,,,,,0,,,89,0
11175,note_on,0,0,1,,,,,,,,,0,,,91,88
11175,note_on,15,0,1,,,,,,,,,0,,,90,0
11190,note_on,0,0,1,,,,,,,,,0,,,94,88
11190,note_on,15,0,1,,,,,,,,,0,,,91,0
11205,note_on,0,0,1,,,,,,,,,0,,,92,88
11205,note_on,15,0,1,,,,,,,,,0,,,94,0
11220,note_on,15,0,1,,,,,,,,,0,,,92,0
11220,note_on,0,0,1,,,,,,,,,0,,,84,88
11235,note_on,0,0,1,,,,,,,,,0,,,85,88
11235,note_on,15,0,1,,,,,,,,,0,,,84,0
11250,note_on,15,0,1,,,,,,,,,0,,,85,0
11250,note_on,0,0,1,,,,,,,,,0,,,87,88
11265,note_on,0,0,1,,,,,,,,,0,,,88,88
11265,note_on,15,0,1,,,,,,,,,0,,,87,0
11280,note_on,0,0,1,,,,,,,,,0,,,91,88
11280,note_on,15,0,1,,,,,,,,,0,,,88,0
11295,note_on,15,0,1,,,,,,,,,0,,,91,0
11295,note_on,0,0,1,,,,,,,,,0,,,89,88
11310,note_on,0,0,1,,,,,,,,,0,,,81,88
11310,note_on,15,0,1,,,,,,,,,0,,,89,0
11325,note_on,15,0,1,,,,,,,,,0,,,81,0
11325,note_on,0,0,1,,,,,,,,,0,,,82,88
11340,note_on,15,0,1,,,,,,,,,0,,,82,0
11340,note_on,0,0,1,,,,,,,,,0,,,83,88
11355,note_on,15,0,1,,,,,,,,,0,,,83,0
11355,note_on,0,0,1,,,,,,,,,0,,,84,88
11370,set_tempo,240,1,0,,,,,,645161,,,,,,,
11370,note_on,0,0,1,,,,,,,,,0,,,87,88
11370,note_on,15,0,1,,,,,,,,,0,,,84,0
11385,note_on,0,0,1,,,,,,,,,0,,,85,88
11385,note_on,15,0,1,,,,,,,,,0,,,87,0
11400,note_on,0,0,1,,,,,,,,,0,,,77,88
11400,note_on,15,0,1,,,,,,,,,0,,,85,0
11415,note_on,15,0,1,,,,,,,,,0,,,77,0
11415,note_on,0,0,1,,,,,,,,,0,,,79,88
11430,note_on,15,0,1,,,,,,,,,0,,,79,0
11430,set_tempo,60,1,0,,,,,,666667,,,,,,,
11430,note_on,0,0,1,,,,,,,,,0,,,80,88
11445,note_on,15,0,1,,,,,,,,,0,,,80,0
11445,note_on,0,0,1,,,,,,,,,0,,,81,88
11460,note_on,15,0,1,,,,,,,,,0,,,81,0
11460,note_on,0,0,1,,,,,,,,,0,,,84,88
11475,note_on,15,0,1,,,,,,,,,0,,,84,0
11475,note_on,0,0,1,,,,,,,,,0,,,82,88
11490,set_tempo,60,1,0,,,,,,689655,,,,,,,
11490,note_on,15,0,1,,,,,,,,,0,,,82,0
11490,note_on,0,0,1,,,,,,,,,0,,,76,88
11505,note_on,0,0,1,,,,,,,,,0,,,77,88
11505,note_on,15,0,1,,,,,,,,,0,,,76,0
11520,note_on,0,0,1,,,,,,,,,0,,,78,75
11520,note_on,15,0,1,,,,,,,,,0,,,77,0
11535,note_on,15,0,1,,,,,,,,,0,,,78,0
11535,note_on,0,0,1,,,,,,,,,0,,,79,75
11550,set_tempo,60,1,0,,,,,,722892,,,,,,,
11550,note_on,0,0,1,,,,,,,,,0,,,82,75
11550,note_on,15,0,1,,,,,,,,,0,,,79,0
11565,note_on,0,0,1,,,,,,,,,0,,,80,75
11565,note_on,15,0,1,,,,,,,,,0,,,82,0
11580,note_on,15,0,1,,,,,,,,,0,,,80,0
11580,note_on,0,0,1,,,,,,,,,0,,,72,75
11595,note_on,0,0,1,,,,,,,,,0,,,73,75
11595,note_on,15,0,1,,,,,,,,,0,,,72,0
11610,note_on,0,0,1,,,,,,,,,0,,,75,75
11610,note_on,15,0,1,,,,,,,,,0,,,73,0
11610,set_tempo,60,1,0,,,,,,750000,,,,,,,
11625,note_on,15,0,1,,,,,,,,,0,,,75,0
11625,note_on,0,0,1,,,,,,,,,0,,,76,75
11640,note_on,0,0,1,,,,,,,,,0,,,79,75
11640,note_on,15,0,1,,,,,,,,,0,,,76,0
11655,note_on,0,0,1,,,,,,,,,0,,,77,75
11655,note_on,15,0,1,,,,,,,,,0,,,79,0
11670,note_on,15,0,1,,,,,,,,,0,,,77,0
11670,note_on,0,0,1,,,,,,,,,0,,,69,62
11670,set_tempo,60,1,0,,,,,,779221,,,,,,,
11685,note_on,15,0,1,,,,,,,,,0,,,69,0
11685,note_on,0,0,1,,,,,,,,,0,,,70,62
11700,note_on,0,0,1,,,,,,,,,0,,,71,62
11700,note_on,15,0,1,,,,,,,,,0,,,70,0
11715,note_on,15,0,1,,,,,,,,,0,,,71,0
11715,note_on,0,0,1,,,,,,,,,0,,,72,62
11730,note_on,15,0,1,,,,,,,,,0,,,72,0
11730,note_on,0,0,1,,,,,,,,,0,,,75,62
11730,set_tempo,60,1,0,,,,,,810811,,,,,,,
11745,note_on,0,0,1,,,,,,,,,0,,,73,62
11745,note_on,15,0,1,,,,,,,,,0,,,75,0
11760,note_on,630,0,3,,,,,,,,,2,,,51,49
11760,note_on,15,0,1,,,,,,,,,0,,,73,0
11760,note_on,961,0,2,,,,,,,,,1,,,63,49
11760,note_on,0,0,3,,,,,,,,,2,,,56,49
11760,note_on,0,0,3,,,,,,,,,2,,,60,49
11760,note_on,0,0,2,,,,,,,,,1,,,68,49
11760,note_on,0,0,1,,,,,,,,,0,,,72,62
11790,set_tempo,60,1,0,,,,,,857143,,,,,,,
11820,note_on,0,0,2,,,,,,,,,1,,,63,0
11820,note_on,0,0,1,,,,,,,,,0,,,72,62
11820,note_on,60,0,3,,,,,,,,,2,,,60,0
11820,note_on,60,0,1,,,,,,,,,0,,,72,0
11820,note_on,0,0,3,,,,,,,,,2,,,51,0
11820,note_on,60,0,2,,,,,,,,,1,,,68,0
11820,note_on,0,0,3,,,,,,,,,2,,,56,0
11835,note_on,15,0,1,,,,,,,,,0,,,72,0
11835,note_on,0,0,1,,,,,,,,,0,,,72,62
11850,note_on,0,0,1,,,,,,,,,0,,,73,62
11850,note_on,15,0,1,,,,,,,,,0,,,72,0
11865,note_on,15,0,1,,,,,,,,,0,,,73,0
11865,note_on,0,0,1,,,,,,,,,0,,,72,62
11880,note_on,15,0,1,,,,,,,,,0,,,72,0
11880,note_on,0,0,1,,,,,,,,,0,,,70,62
11895,note_on,15,0,1,,,,,,,,,0,,,70,0
11895,note_on,0,0,1,,,,,,,,,0,,,72,62
11900,note_on,5,0,1,,,,,,,,,0,,,39,62
11905,note_on,5,0,1,,,,,,,,,0,,,51,62
11910,note_on,5,0,1,,,,,,,,,0,,,58,62
11915,note_on,5,0,1,,,,,,,,,0,,,61,62
11920,note_on,5,0,1,,,,,,,,,0,,,63,62
11925,note_on,0,0,1,,,,,,,,,0,,,73,62
11925,note_on,5,0,1,,,,,,,,,0,,,72,0
11970,note_on,0,0,1,,,,,,,,,0,,,39,0
11970,note_on,0,0,1,,,,,,,,,0,,,58,0
11970,note_on,0,0,1,,,,,,,,,0,,,61,0
11970,note_on,0,0,1,,,,,,,,,0,,,63,0
11970,note_on,45,0,1,,,,,,,,,0,,,51,0
12030,note_on,0,0,1,,,,,,,,,0,,,67,75
12030,note_on,60,0,1,,,,,,,,,0,,,73,0
12120,note_on,90,0,1,,,,,,,,,0,,,67,0
12240,note_on,1440,0,4,,,,,,,,,3,,,44,49
12240,note_on,120,0,1,,,,,,,,,0,,,60,49
12240,set_tempo,450,1,0,,,,,,2068966,,,,,,,
12240,note_on,0,0,1,,,,,,,,,0,,,72,49
12240,note_on,0,0,1,,,,,,,,,0,,,63,49
12240,note_on,0,0,1,,,,,,,,,0,,,68,49
12260,note_on,0,0,3,,,,,,,,,2,,,51,36
12260,control_change,440,0,3,,,,,,,,,2,64,127,,
12279,note_on,19,0,3,,,,,,,,,2,,,56,36
12280,note_on,1,0,3,,,,,,,,,2,,,51,0
12299,note_on,19,0,3,,,,,,,,,2,,,56,0
12300,note_on,1,0,3,,,,,,,,,2,,,51,36
12300,note_on,0,0,1,,,,,,,,,0,,,60,0
12300,note_on,0,0,1,,,,,,,,,0,,,63,0
12300,note_on,0,0,1,,,,,,,,,0,,,63,49
12300,note_on,0,0,1,,,,,,,,,0,,,68,0
12300,note_on,0,0,1,,,,,,,,,0,,,72,49
12300,note_on,60,0,1,,,,,,,,,0,,,72,0
12320,note_on,0,0,3,,,,,,,,,2,,,56,36
12320,note_on,20,0,3,,,,,,,,,2,,,51,0
12339,control_change,19,0,3,,,,,,,,,2,64,0,,
12339,note_on,0,0,3,,,,,,,,,2,,,51,36
12340,note_on,1,0,3,,,,,,,,,2,,,56,0
12345,note_on,0,0,1,,,,,,,,,0,,,63,0
12345,note_on,0,0,1,,,,,,,,,0,,,63,49
12345,note_on,0,0,1,,,,,,,,,0,,,72,49
12345,note_on,45,0,1,,,,,,,,,0,,,72,0
12359,note_on,19,0,3,,,,,,,,,2,,,51,0
12360,note_on,15,0,1,,,,,,,,,0,,,72,0
12360,note_on,0,0,4,,,,,,,,,3,,,44,49
12360,note_on,120,0,4,,,,,,,,,3,,,44,0
12360,note_on,0,0,1,,,,,,,,,0,,,72,49
12360,note_on,0,0,1,,,,,,,,,0,,,63,0
12360,note_on,0,0,1,,,,,,,,,0,,,63,49
12380,control_change,21,0,3,,,,,,,,,2,64,127,,
12380,note_on,0,0,3,,,,,,,,,2,,,51,36
12399,note_on,19,0,3,,,,,,,,,2,,,55,36
12400,note_on,1,0,3,,,,,,,,,2,,,51,0
12419,note_on,19,0,3,,,,,,,,,2,,,55,0
12420,note_on,1,0,3,,,,,,,,,2,,,51,36
12440,note_on,0,0,3,,,,,,,,,2,,,55,36
12440,note_on,20,0,3,,,,,,,,,2,,,51,0
12450,note_on,0,0,1,,,,,,,,,0,,,63,0
12450,note_on,0,0,1,,,,,,,,,0,,,70,49
12450,note_on,0,0,1,,,,,,,,,0,,,61,49
12450,note_on,90,0,1,,,,,,,,,0,,,72,0
12459,note_on,0,0,3,,,,,,,,,2,,,51,36
12459,control_change,19,0,3,,,,,,,,,2,64,0,,
12460,note_on,1,0,3,,,,,,,,,2,,,55,0
12479,note_on,19,0,3,,,,,,,,,2,,,51,0
12480,note_on,120,0,4,,,,,,,,,3,,,44,0
12480,note_on,0,0,1,,,,,,,,,0,,,61,0
12480,note_on,0,0,1,,,,,,,,,0,,,61,49
12480,note_on,0,0,1,,,,,,,,,0,,,70,49
12480,note_on,0,0,4,,,,,,,,,3,,,44,49
12480,note_on,30,0,1,,,,,,,,,0,,,70,0
12500,note_on,0,0,3,,,,,,,,,2,,,51,36
12500,control_change,21,0,3,,,,,,,,,2,64,127,,
12510,note_on,0,0,1,,,,,,,,,0,,,60,49
12510,note_on,0,0,1,,,,,,,,,0,,,61,0
12510,note_on,0,0,1,,,,,,,,,0,,,68,49
12510,note_on,30,0,1,,,,,,,,,0,,,70,0
12519,note_on,19,0,3,,,,,,,,,2,,,56,36
12520,note_on,1,0,3,,,,,,,,,2,,,51,0
12539,note_on,19,0,3,,,,,,,,,2,,,56,0
12540,note_on,1,0,3,,,,,,,,,2,,,51,36
12540,note_on,0,0,1,,,,,,,,,0,,,60,0
12540,note_on,0,0,1,,,,,,,,,0,,,67,49
12540,note_on,0,0,1,,,,,,,,,0,,,59,49
12540,note_on,30,0,1,,,,,,,,,0,,,68,0
12560,note_on,20,0,3,,,,,,,,,2,,,51,0
12560,note_on,0,0,3,,,,,,,,,2,,,56,36
12570,note_on,0,0,1,,,,,,,,,0,,,59,0
12570,note_on,0,0,1,,,,,,,,,0,,,60,49
12570,note_on,30,0,1,,,,,,,,,0,,,67,0
12570,note_on,0,0,1,,,,,,,,,0,,,68,49
12579,control_change,19,0,3,,,,,,,,,2,64,0,,
12579,note_on,0,0,3,,,,,,,,,2,,,51,36
12580,note_on,1,0,3,,,,,,,,,2,,,56,0
12599,note_on,19,0,3,,,,,,,,,2,,,51,0
12600,note_on,120,0,4,,,,,,,,,3,,,44,0
12600,note_on,30,0,1,,,,,,,,,0,,,68,0
12600,note_on,0,0,1,,,,,,,,,0,,,60,0
12600,note_on,0,0,1,,,,,,,,,0,,,61,49
12600,note_on,0,0,1,,,,,,,,,0,,,63,49
12600,note_on,0,0,4,,,,,,,,,3,,,44,49
12620,note_on,0,0,3,,,,,,,,,2,,,51,36
12620,control_change,21,0,3,,,,,,,,,2,64,127,,
12639,note_on,19,0,3,,,,,,,,,2,,,55,36
12640,note_on,1,0,3,,,,,,,,,2,,,51,0
12659,note_on,19,0,3,,,,,,,,,2,,,55,0
12660,note_on,1,0,3,,,,,,,,,2,,,51,36
12680,note_on,20,0,3,,,,,,,,,2,,,51,0
12680,note_on,0,0,3,,,,,,,,,2,,,55,36
12699,note_on,0,0,3,,,,,,,,,2,,,51,36
12699,control_change,19,0,3,,,,,,,,,2,64,0,,
12700,note_on,1,0,3,,,,,,,,,2,,,55,0
12719,note_on,19,0,3,,,,,,,,,2,,,51,0
12720,note_on,0,0,4,,,,,,,,,3,,,44,49
12720,note_on,120,0,1,,,,,,,,,0,,,63,0
12720,note_on,0,0,1,,,,,,,,,0,,,60,62
12720,note_on,0,0,1,,,,,,,,,0,,,63,62
12720,note_on,0,0,1,,,,,,,,,0,,,72,62
12720,note_on,120,0,4,,,,,,,,,3,,,44,0
12720,note_on,0,0,1,,,,,,,,,0,,,61,0
12740,note_on,0,0,3,,,,,,,,,2,,,51,36
12740,control_change,21,0,3,,,,,,,,,2,64,127,,
12759,note_on,19,0,3,,,,,,,,,2,,,56,36
12760,note_on,1,0,3,,,,,,,,,2,,,51,0
12779,note_on,19,0,3,,,,,,,,,2,,,56,0
12780,note_on,1,0,3,,,,,,,,,2,,,51,49
12780,note_on,0,0,1,,,,,,,,,0,,,63,0
12780,note_on,60,0,1,,,,,,,,,0,,,72,0
12780,note_on,0,0,1,,,,,,,,,0,,,60,0
12780,note_on,0,0,1,,,,,,,,,0,,,63,75
12780,note_on,0,0,1,,,,,,,,,0,,,72,75
12800,note_on,20,0,3,,,,,,,,,2,,,51,0
12800,note_on,0,0,3,,,,,,,,,2,,,56,49
12819,note_on,0,0,3,,,,,,,,,2,,,51,49
12819,control_change,19,0,3,,,,,,,,,2,64,0,,
12820,note_on,1,0,3,,,,,,,,,2,,,56,0
12825,note_on,45,0,1,,,,,,,,,0,,,72,0
12825,note_on,0,0,1,,,,,,,,,0,,,63,0
12825,note_on,0,0,1,,,,,,,,,0,,,63,75
12825,note_on,0,0,1,,,,,,,,,0,,,72,75
12839,note_on,19,0,3,,,,,,,,,2,,,51,0
12840,note_on,0,0,1,,,,,,,,,0,,,66,88
12840,note_on,0,0,1,,,,,,,,,0,,,63,0
12840,note_on,120,0,4,,,,,,,,,3,,,44,0
12840,note_on,15,0,1,,,,,,,,,0,,,72,0
12840,note_on,0,0,1,,,,,,,,,0,,,75,88
12840,control_change,1,0,3,,,,,,,,,2,64,127,,
12840,note_on,0,0,3,,,,,,,,,2,,,44,62
12860,note_on,20,0,3,,,,,,,,,2,,,44,0
12860,note_on,0,0,3,,,,,,,,,2,,,56,62
12879,note_on,19,0,3,,,,,,,,,2,,,60,62
12880,note_on,1,0,3,,,,,,,,,2,,,56,0
12899,note_on,19,0,3,,,,,,,,,2,,,60,0
12900,note_on,1,0,3,,,,,,,,,2,,,56,62
12920,note_on,20,0,3,,,,,,,,,2,,,56,0
12920,note_on,0,0,3,,,,,,,,,2,,,60,62
12930,note_on,0,0,1,,,,,,,,,0,,,73,75
12930,note_on,0,0,1,,,,,,,,,0,,,66,0
12930,note_on,0,0,1,,,,,,,,,0,,,65,75
12930,note_on,90,0,1,,,,,,,,,0,,,75,0
12939,control_change,19,0,3,,,,,,,,,2,64,0,,
12939,note_on,0,0,3,,,,,,,,,2,,,61,62
12940,note_on,1,0,3,,,,,,,,,2,,,60,0
12959,note_on,19,0,3,,,,,,,,,2,,,61,0
12960,note_on,0,0,3,,,,,,,,,2,,,44,49
12960,note_on,0,0,1,,,,,,,,,0,,,64,75
12960,control_change,1,0,3,,,,,,,,,2,64,127,,
12960,note_on,0,0,1,,,,,,,,,0,,,65,0
12960,note_on,30,0,1,,,,,,,,,0,,,73,0
12960,note_on,0,0,1,,,,,,,,,0,,,73,75
12980,note_on,20,0,3,,,,,,,,,2,,,44,0
12980,note_on,0,0,3,,,,,,,,,2,,,55,49
12999,note_on,19,0,3,,,,,,,,,2,,,58,49
13000,note_on,1,0,3,,,,,,,,,2,,,55,0
13019,note_on,19,0,3,,,,,,,,,2,,,58,0
13020,note_on,1,0,3,,,,,,,,,2,,,55,49
13040,note_on,20,0,3,,,,,,,,,2,,,55,0
13040,note_on,0,0,3,,,,,,,,,2,,,58,49
13050,note_on,0,0,1,,,,,,,,,0,,,72,62
13050,note_on,0,0,1,,,,,,,,,0,,,64,0
13050,note_on,0,0,1,,,,,,,,,0,,,63,62
13050,note_on,90,0,1,,,,,,,,,0,,,73,0
13059,control_change,19,0,3,,,,,,,,,2,64,0,,
13059,note_on,0,0,3,,,,,,,,,2,,,56,49
13060,note_on,1,0,3,,,,,,,,,2,,,58,0
13079,note_on,19,0,3,,,,,,,,,2,,,56,0
13080,note_on,0,0,1,,,,,,,,,0,,,63,62
13080,note_on,30,0,1,,,,,,,,,0,,,72,0
13080,note_on,0,0,3,,,,,,,,,2,,,39,49
13080,note_on,0,0,1,,,,,,,,,0,,,63,0
13080,note_on,0,0,1,,,,,,,,,0,,,72,62
13080,control_change,1,0,3,,,,,,,,,2,64,127,,
13100,note_on,20,0,3,,,,,,,,,2,,,39,0
13100,note_on,0,0,3,,,,,,,,,2,,,51,36
13110,note_on,0,0,1,,,,,,,,,0,,,70,49
13110,note_on,0,0,1,,,,,,,,,0,,,63,0
13110,note_on,30,0,1,,,,,,,,,0,,,72,0
13110,note_on,0,0,1,,,,,,,,,0,,,61,49
13119,note_on,19,0,3,,,,,,,,,2,,,55,36
13120,note_on,1,0,3,,,,,,,,,2,,,51,0
13139,note_on,19,0,3,,,,,,,,,2,,,55,0
13140,note_on,0,0,1,,,,,,,,,0,,,68,49
13140,note_on,30,0,1,,,,,,,,,0,,,70,0
13140,note_on,1,0,3,,,,,,,,,2,,,51,36
13140,note_on,0,0,1,,,,,,,,,0,,,61,0
13140,note_on,0,0,1,,,,,,,,,0,,,60,49
13155,note_on,0,0,1,,,,,,,,,0,,,72,49
13155,note_on,15,0,1,,,,,,,,,0,,,63,49
13160,note_on,0,0,3,,,,,,,,,2,,,55,36
13160,note_on,20,0,3,,,,,,,,,2,,,51,0
13170,note_on,15,0,1,,,,,,,,,0,,,72,0
13170,note_on,0,0,1,,,,,,,,,0,,,61,49
13170,note_on,0,0,1,,,,,,,,,0,,,63,0
13170,note_on,0,0,1,,,,,,,,,0,,,68,0
13170,note_on,0,0,1,,,,,,,,,0,,,70,49
13170,note_on,0,0,1,,,,,,,,,0,,,60,0
13179,control_change,19,0,3,,,,,,,,,2,64,0,,
13179,note_on,0,0,3,,,,,,,,,2,,,51,36
13180,note_on,1,0,3,,,,,,,,,2,,,55,0
13199,note_on,19,0,3,,,,,,,,,2,,,51,0
13200,note_on,0,0,1,,,,,,,,,0,,,68,49
13200,note_on,0,0,1,,,,,,,,,0,,,61,0
13200,note_on,0,0,1,,,,,,,,,0,,,60,49
13200,note_on,360,0,4,,,,,,,,,3,,,44,49
13200,note_on,30,0,1,,,,,,,,,0,,,70,0
13220,note_on,0,0,3,,,,,,,,,2,,,51,36
13220,control_change,21,0,3,,,,,,,,,2,64,127,,
13239,note_on,19,0,3,,,,,,,,,2,,,56,36
13240,note_on,1,0,3,,,,,,,,,2,,,51,0
13259,note_on,19,0,3,,,,,,,,,2,,,56,0
13260,note_on,1,0,3,,,,,,,,,2,,,51,36
13260,set_tempo,1020,1,0,,,,,,2307692,,,,,,,
13280,note_on,0,0,3,,,,,,,,,2,,,56,36
13280,note_on,20,0,3,,,,,,,,,2,,,51,0
13299,note_on,0,0,3,,,,,,,,,2,,,51,36
13299,control_change,19,0,3,,,,,,,,,2,64,0,,
13300,note_on,1,0,3,,,,,,,,,2,,,56,0
13319,note_on,19,0,3,,,,,,,,,2,,,51,0
13320,note_on,120,0,1,,,,,,,,,0,,,68,0
13320,set_tempo,60,1,0,,,,,,2608696,,,,,,,
13320,note_on,120,0,4,,,,,,,,,3,,,44,0
13320,note_on,0,0,1,,,,,,,,,0,,,68,49
13320,note_on,0,0,4,,,,,,,,,3,,,44,49
13320,note_on,0,0,1,,,,,,,,,0,,,60,49
13320,note_on,0,0,1,,,,,,,,,0,,,60,0
13340,control_change,21,0,3,,,,,,,,,2,64,127,,
13340,note_on,0,0,3,,,,,,,,,2,,,51,36
13359,note_on,19,0,3,,,,,,,,,2,,,56,36
13360,note_on,1,0,3,,,,,,,,,2,,,51,0
13379,note_on,19,0,3,,,,,,,,,2,,,56,0
13380,end_of_track,0,1,0,,,,,,,,,,,,,
13380,set_tempo,60,1,0,,,,,,3000000,,,,,,,
13380,note_on,1,0,3,,,,,,,,,2,,,51,36
13400,note_on,0,0,3,,,,,,,,,2,,,56,36
13400,note_on,20,0,3,,,,,,,,,2,,,51,0
13419,control_change,19,0,3,,,,,,,,,2,64,0,,
13419,note_on,0,0,3,,,,,,,,,2,,,51,36
13420,note_on,1,0,3,,,,,,,,,2,,,56,0
13439,note_on,19,0,3,,,,,,,,,2,,,51,0
13440,note_on,0,0,1,,,,,,,,,0,,,60,0
13440,note_on,0,0,1,,,,,,,,,0,,,63,49
13440,note_on,0,0,1,,,,,,,,,0,,,68,49
13440,note_on,0,0,4,,,,,,,,,3,,,44,49
13440,note_on,120,0,4,,,,,,,,,3,,,44,0
13440,note_on,0,0,1,,,,,,,,,0,,,60,49
13440,note_on,0,0,4,,,,,,,,,3,,,51,49
13440,note_on,120,0,1,,,,,,,,,0,,,68,0
13440,note_on,0,0,4,,,,,,,,,3,,,56,49
13680,note_on,0,0,1,,,,,,,,,0,,,63,0
13680,note_on,240,0,1,,,,,,,,,0,,,68,0
13680,note_on,0,0,4,,,,,,,,,3,,,44,0
13680,note_on,0,0,4,,,,,,,,,3,,,51,0
13680,note_on,0,0,1,,,,,,,,,0,,,60,0
13680,note_on,240,0,4,,,,,,,,,3,,,56,0
13920,end_of_track,0,1,1,,,,,,,,,,,,,
13920,end_of_track,0,1,2,,,,,,,,,,,,,
13920,end_of_track,0,1,4,,,,,,,,,,,,,
13920,control_change,2100,0,2,,,,,,,,,1,64,0,,
13920,control_change,481,0,3,,,,,,,,,2,64,0,,
13920,control_change,240,0,4,,,,,,,,,3,64,0,,
13920,control_change,240,0,1,,,,,,,,,0,64,0,,
13920,end_of_track,0,1,3,,,,,,,,,,,,,
