tick,type,time,meta,track,numerator,denominator,clocks_per_click,notated_32nd_notes_per_beat,key,tempo,port,program,channel,control,value,note,velocity
0,control_change,0,0,1,,,,,,,,,0,7,127,,
0,control_change,0,0,2,,,,,,,,,1,64,127,,
0,control_change,0,0,3,,,,,,,,,2,7,127,,
0,control_change,0,0,3,,,,,,,,,2,10,30,,
0,control_change,0,0,3,,,,,,,,,2,64,127,,
0,control_change,0,0,4,,,,,,,,,3,7,127,,
0,control_change,0,0,4,,,,,,,,,3,10,30,,
0,copyright,0,1,0,,,,,,,,,,,,,
0,key_signature,0,1,0,,,,,Ab,,,,,,,,
0,midi_port,0,1,1,,,,,,,0,,,,,,
0,midi_port,0,1,2,,,,,,,0,,,,,,
0,midi_port,0,1,3,,,,,,,0,,,,,,
0,midi_port,0,1,4,,,,,,,0,,,,,,
0,note_on,0,0,2,,,,,,,,,1,,,63,49
0,note_on,0,0,3,,,,,,,,,2,,,44,49
0,track_name,0,1,3,,,,,,,,,,,,,
0,program_change,0,0,1,,,,,,,,0,0,,,,
0,program_change,0,0,2,,,,,,,,0,1,,,,
0,program_change,0,0,3,,,,,,,,0,2,,,,
0,program_change,0,0,4,,,,,,,,0,3,,,,
0,set_tempo,0,1,0,,,,,,869565,,,,,,,
0,text,0,1,0,,,,,,,,,,,,,
0,time_signature,0,1,0,6,8,12,8,,,,,,,,,
0,track_name,0,1,0,,,,,,,,,,,,,
0,track_name,0,1,1,,,,,,,,,,,,,
0,track_name,0,1,2,,,,,,,,,,,,,
0,control_change,0,0,2,,,,,,,,,1,10,97,,
0,control_change,0,0,2,,,,,,,,,1,7,127,,
0,track_name,0,1,4,,,,,,,,,,,,,
0,control_change,0,0,1,,,,,,,,,0,10,97,,
0,control_change,0,0,1,,,,,,,,,0,64,127,,
30,note_on,30,0,1,,,,,,,,,0,,,75,49
34,note_on,4,0,1,,,,,,,,,0,,,75,0
60,note_on,0,0,3,,,,,,,,,2,,,51,49
60,note_on,0,0,3,,,,,,,,,2,,,59,49
60,note_on,0,0,3,,,,,,,,,2,,,56,49
60,note_on,60,0,3,,,,,,,,,2,,,44,0
60,note_on,26,0,1,,,,,,,,,0,,,75,62
60,note_on,0,0,2,,,,,,,,,1,,,63,62
60,note_on,60,0,2,,,,,,,,,1,,,63,0
90,note_on,0,0,1,,,,,,,,,0,,,73,62
90,note_on,30,0,1,,,,,,,,,0,,,75,0
94,note_on,4,0,1,,,,,,,,,0,,,73,0
120,note_on,26,0,1,,,,,,,,,0,,,73,75
120,note_on,60,0,3,,,,,,,,,2,,,59,0
120,note_on,60,0,2,,,,,,,,,1,,,63,0
120,note_on,0,0,3,,,,,,,,,2,,,51,0
120,note_on,0,0,3,,,,,,,,,2,,,51,62
120,note_on,0,0,3,,,,,,,,,2,,,56,0
120,note_on,0,0,2,,,,,,,,,1,,,63,75
120,note_on,0,0,3,,,,,,,,,2,,,56,62
120,note_on,0,0,3,,,,,,,,,2,,,59,62
150,note_on,0,0,1,,,,,,,,,0,,,71,75
150,note_on,30,0,1,,,,,,,,,0,,,73,0
154,note_on,4,0,1,,,,,,,,,0,,,71,0
180,note_on,0,0,2,,,,,,,,,1,,,63,75
180,note_on,0,0,3,,,,,,,,,2,,,51,0
180,note_on,26,0,1,,,,,,,,,0,,,71,75
180,note_on,0,0,3,,,,,,,,,2,,,51,62
180,note_on,0,0,3,,,,,,,,,2,,,56,0
180,note_on,0,0,3,,,,,,,,,2,,,56,62
180,note_on,60,0,3,,,,,,,,,2,,,59,0
180,note_on,60,0,2,,,,,,,,,1,,,63,0
180,note_on,0,0,3,,,,,,,,,2,,,59,62
210,note_on,0,0,1,,,,,,,,,0,,,70,75
210,note_on,30,0,1,,,,,,,,,0,,,71,0
214,note_on,4,0,1,,,,,,,,,0,,,70,0
240,note_on,0,0,3,,,,,,,,,2,,,56,0
240,note_on,0,0,3,,,,,,,,,2,,,51,0
240,note_on,0,0,3,,,,,,,,,2,,,51,49
240,note_on,0,0,3,,,,,,,,,2,,,59,49
240,note_on,26,0,1,,,,,,,,,0,,,70,62
240,note_on,60,0,3,,,,,,,,,2,,,59,0
240,note_on,0,0,3,,,,,,,,,2,,,56,49
270,note_on,30,0,1,,,,,,,,,0,,,70,0
270,note_on,0,0,1,,,,,,,,,0,,,68,62
274,note_on,4,0,1,,,,,,,,,0,,,68,0
300,note_on,120,0,2,,,,,,,,,1,,,63,0
300,note_on,26,0,1,,,,,,,,,0,,,68,49
300,note_on,60,0,3,,,,,,,,,2,,,59,0
300,note_on,0,0,3,,,,,,,,,2,,,51,0
300,note_on,0,0,3,,,,,,,,,2,,,51,49
300,note_on,0,0,3,,,,,,,,,2,,,56,0
300,note_on,0,0,3,,,,,,,,,2,,,56,49
300,note_on,0,0,3,,,,,,,,,2,,,59,49
330,note_on,0,0,1,,,,,,,,,0,,,63,49
330,note_on,30,0,1,,,,,,,,,0,,,68,0
334,note_on,4,0,1,,,,,,,,,0,,,63,0
360,note_on,0,0,3,,,,,,,,,2,,,56,0
360,note_on,60,0,3,,,,,,,,,2,,,59,0
360,note_on,0,0,3,,,,,,,,,2,,,51,0
360,note_on,0,0,3,,,,,,,,,2,,,44,49
360,note_on,60,0,2,,,,,,,,,1,,,63,49
390,note_on,56,0,1,,,,,,,,,0,,,75,49
394,note_on,4,0,1,,,,,,,,,0,,,75,0
420,note_on,0,0,3,,,,,,,,,2,,,56,62
420,note_on,26,0,1,,,,,,,,,0,,,75,62
420,note_on,0,0,3,,,,,,,,,2,,,59,62
420,note_on,0,0,3,,,,,,,,,2,,,51,62
420,note_on,0,0,2,,,,,,,,,1,,,63,62
420,note_on,60,0,3,,,,,,,,,2,,,44,0
420,note_on,60,0,2,,,,,,,,,1,,,63,0
450,note_on,30,0,1,,,,,,,,,0,,,75,0
450,note_on,0,0,1,,,,,,,,,0,,,73,62
454,note_on,4,0,1,,,,,,,,,0,,,73,0
480,note_on,0,0,2,,,,,,,,,1,,,63,75
480,note_on,26,0,1,,,,,,,,,0,,,73,75
480,note_on,0,0,3,,,,,,,,,2,,,51,62
480,note_on,0,0,3,,,,,,,,,2,,,56,0
480,note_on,60,0,3,,,,,,,,,2,,,59,0
480,note_on,0,0,3,,,,,,,,,2,,,56,62
480,note_on,0,0,3,,,,,,,,,2,,,51,0
480,note_on,0,0,3,,,,,,,,,2,,,59,62
480,note_on,60,0,2,,,,,,,,,1,,,63,0
510,note_on,30,0,1,,,,,,,,,0,,,73,0
510,note_on,0,0,1,,,,,,,,,0,,,71,75
514,note_on,4,0,1,,,,,,,,,0,,,71,0
540,note_on,60,0,3,,,,,,,,,2,,,59,0
540,note_on,0,0,3,,,,,,,,,2,,,56,0
540,note_on,0,0,3,,,,,,,,,2,,,56,62
540,note_on,60,0,2,,,,,,,,,1,,,63,0
540,note_on,0,0,3,,,,,,,,,2,,,59,62
540,note_on,0,0,3,,,,,,,,,2,,,51,62
540,note_on,0,0,2,,,,,,,,,1,,,63,75
540,note_on,0,0,3,,,,,,,,,2,,,51,0
540,note_on,26,0,1,,,,,,,,,0,,,71,75
570,note_on,30,0,1,,,,,,,,,0,,,71,0
570,note_on,0,0,1,,,,,,,,,0,,,70,75
574,note_on,4,0,1,,,,,,,,,0,,,70,0
600,note_on,0,0,3,,,,,,,,,2,,,59,62
600,note_on,60,0,3,,,,,,,,,2,,,59,0
600,note_on,0,0,3,,,,,,,,,2,,,51,62
600,note_on,0,0,3,,,,,,,,,2,,,56,0
600,note_on,0,0,3,,,,,,,,,2,,,56,62
600,note_on,26,0,1,,,,,,,,,0,,,70,62
600,note_on,0,0,3,,,,,,,,,2,,,51,0
630,note_on,0,0,1,,,,,,,,,0,,,68,62
630,note_on,30,0,1,,,,,,,,,0,,,70,0
634,note_on,4,0,1,,,,,,,,,0,,,68,0
660,note_on,120,0,2,,,,,,,,,1,,,63,0
660,control_change,0,0,2,,,,,,,,,1,64,0,,
660,note_on,0,0,3,,,,,,,,,2,,,56,49
660,note_on,0,0,3,,,,,,,,,2,,,56,0
660,note_on,0,0,3,,,,,,,,,2,,,51,49
660,note_on,0,0,3,,,,,,,,,2,,,51,0
660,note_on,26,0,1,,,,,,,,,0,,,68,49
660,control_change,0,0,3,,,,,,,,,2,64,0,,
660,note_on,0,0,3,,,,,,,,,2,,,59,49
660,note_on,60,0,3,,,,,,,,,2,,,59,0
690,note_on,30,0,1,,,,,,,,,0,,,68,0
690,control_change,0,0,1,,,,,,,,,0,64,0,,
690,note_on,0,0,1,,,,,,,,,0,,,63,49
694,note_on,4,0,1,,,,,,,,,0,,,63,0
720,control_change,60,0,2,,,,,,,,,1,64,127,,
720,note_on,0,0,2,,,,,,,,,1,,,63,49
720,note_on,0,0,3,,,,,,,,,2,,,39,49
720,note_on,60,0,3,,,,,,,,,2,,,59,0
720,note_on,0,0,3,,,,,,,,,2,,,51,0
720,note_on,0,0,3,,,,,,,,,2,,,56,0
750,note_on,56,0,1,,,,,,,,,0,,,76,49
754,note_on,4,0,1,,,,,,,,,0,,,76,0
780,note_on,60,0,3,,,,,,,,,2,,,39,0
780,note_on,0,0,3,,,,,,,,,2,,,55,49
780,note_on,0,0,3,,,,,,,,,2,,,51,49
780,note_on,26,0,1,,,,,,,,,0,,,76,62
780,note_on,0,0,2,,,,,,,,,1,,,63,62
780,note_on,60,0,2,,,,,,,,,1,,,63,0
780,note_on,0,0,3,,,,,,,,,2,,,61,49
810,note_on,30,0,1,,,,,,,,,0,,,76,0
810,note_on,0,0,1,,,,,,,,,0,,,75,62
814,note_on,4,0,1,,,,,,,,,0,,,75,0
840,note_on,0,0,3,,,,,,,,,2,,,55,0
840,note_on,0,0,2,,,,,,,,,1,,,63,75
840,note_on,0,0,3,,,,,,,,,2,,,55,49
840,note_on,0,0,3,,,,,,,,,2,,,51,49
840,note_on,0,0,3,,,,,,,,,2,,,51,0
840,note_on,60,0,2,,,,,,,,,1,,,63,0
840,note_on,26,0,1,,,,,,,,,0,,,75,75
840,note_on,60,0,3,,,,,,,,,2,,,61,0
840,note_on,0,0,3,,,,,,,,,2,,,61,49
870,note_on,0,0,1,,,,,,,,,0,,,73,75
870,note_on,30,0,1,,,,,,,,,0,,,75,0
874,note_on,4,0,1,,,,,,,,,0,,,73,0
900,note_on,0,0,3,,,,,,,,,2,,,51,0
900,note_on,0,0,3,,,,,,,,,2,,,55,0
900,note_on,0,0,3,,,,,,,,,2,,,55,49
900,note_on,0,0,3,,,,,,,,,2,,,61,49
900,note_on,60,0,2,,,,,,,,,1,,,63,0
900,note_on,0,0,3,,,,,,,,,2,,,51,49
900,note_on,26,0,1,,,,,,,,,0,,,73,75
900,note_on,0,0,2,,,,,,,,,1,,,63,75
900,note_on,60,0,3,,,,,,,,,2,,,61,0
930,note_on,30,0,1,,,,,,,,,0,,,73,0
930,note_on,0,0,1,,,,,,,,,0,,,71,75
934,note_on,4,0,1,,,,,,,,,0,,,71,0
960,note_on,0,0,3,,,,,,,,,2,,,51,49
960,note_on,60,0,3,,,,,,,,,2,,,61,0
960,note_on,0,0,3,,,,,,,,,2,,,51,0
960,note_on,0,0,3,,,,,,,,,2,,,61,49
960,note_on,0,0,3,,,,,,,,,2,,,55,0
960,note_on,0,0,3,,,,,,,,,2,,,55,49
960,note_on,26,0,1,,,,,,,,,0,,,71,62
990,note_on,30,0,1,,,,,,,,,0,,,71,0
990,note_on,0,0,1,,,,,,,,,0,,,70,62
994,note_on,4,0,1,,,,,,,,,0,,,70,0
1020,note_on,0,0,3,,,,,,,,,2,,,55,0
1020,note_on,0,0,3,,,,,,,,,2,,,61,49
1020,note_on,0,0,3,,,,,,,,,2,,,55,49
1020,note_on,0,0,3,,,,,,,,,2,,,51,49
1020,note_on,60,0,3,,,,,,,,,2,,,61,0
1020,note_on,120,0,2,,,,,,,,,1,,,63,0
1020,note_on,0,0,3,,,,,,,,,2,,,51,0
1020,note_on,26,0,1,,,,,,,,,0,,,70,49
1050,note_on,0,0,1,,,,,,,,,0,,,63,49
1050,note_on,30,0,1,,,,,,,,,0,,,70,0
1054,note_on,4,0,1,,,,,,,,,0,,,63,0
1080,note_on,0,0,2,,,,,,,,,1,,,63,49
1080,note_on,0,0,3,,,,,,,,,2,,,51,0
1080,note_on,0,0,3,,,,,,,,,2,,,39,49
1080,control_change,60,0,2,,,,,,,,,1,64,127,,
1080,note_on,60,0,3,,,,,,,,,2,,,61,0
1080,note_on,0,0,3,,,,,,,,,2,,,55,0
1110,note_on,56,0,1,,,,,,,,,0,,,76,49
1114,note_on,4,0,1,,,,,,,,,0,,,76,0
1140,note_on,0,0,3,,,,,,,,,2,,,51,62
1140,note_on,60,0,2,,,,,,,,,1,,,63,0
1140,note_on,0,0,3,,,,,,,,,2,,,55,62
1140,note_on,0,0,3,,,,,,,,,2,,,61,62
1140,note_on,26,0,1,,,,,,,,,0,,,76,62
1140,note_on,60,0,3,,,,,,,,,2,,,39,0
1140,note_on,0,0,2,,,,,,,,,1,,,63,62
1170,note_on,30,0,1,,,,,,,,,0,,,76,0
1170,note_on,0,0,1,,,,,,,,,0,,,75,62
1174,note_on,4,0,1,,,,,,,,,0,,,75,0
1200,note_on,60,0,2,,,,,,,,,1,,,63,0
1200,note_on,0,0,3,,,,,,,,,2,,,51,0
1200,note_on,0,0,3,,,,,,,,,2,,,51,62
1200,note_on,0,0,3,,,,,,,,,2,,,55,0
1200,note_on,0,0,3,,,,,,,,,2,,,55,62
1200,note_on,0,0,3,,,,,,,,,2,,,61,62
1200,note_on,26,0,1,,,,,,,,,0,,,75,75
1200,note_on,60,0,3,,,,,,,,,2,,,61,0
1200,note_on,0,0,2,,,,,,,,,1,,,63,75
1230,note_on,0,0,1,,,,,,,,,0,,,73,75
1230,note_on,30,0,1,,,,,,,,,0,,,75,0
1234,note_on,4,0,1,,,,,,,,,0,,,73,0
1260,note_on,0,0,2,,,,,,,,,1,,,63,75
1260,note_on,26,0,1,,,,,,,,,0,,,73,75
1260,note_on,0,0,3,,,,,,,,,2,,,61,62
1260,note_on,60,0,3,,,,,,,,,2,,,61,0
1260,note_on,60,0,2,,,,,,,,,1,,,63,0
1260,note_on,0,0,3,,,,,,,,,2,,,55,0
1260,note_on,0,0,3,,,,,,,,,2,,,51,62
1260,note_on,0,0,3,,,,,,,,,2,,,51,0
1260,note_on,0,0,3,,,,,,,,,2,,,55,62
1290,note_on,0,0,1,,,,,,,,,0,,,71,75
1290,note_on,30,0,1,,,,,,,,,0,,,73,0
1294,note_on,4,0,1,,,,,,,,,0,,,71,0
1320,note_on,26,0,1,,,,,,,,,0,,,71,62
1320,note_on,0,0,3,,,,,,,,,2,,,61,62
1320,note_on,0,0,3,,,,,,,,,2,,,51,0
1320,note_on,0,0,3,,,,,,,,,2,,,55,62
1320,note_on,0,0,3,,,,,,,,,2,,,55,0
1320,note_on,0,0,3,,,,,,,,,2,,,51,62
1320,note_on,60,0,3,,,,,,,,,2,,,61,0
1350,note_on,0,0,1,,,,,,,,,0,,,70,62
1350,note_on,30,0,1,,,,,,,,,0,,,71,0
1354,note_on,4,0,1,,,,,,,,,0,,,70,0
1380,note_on,0,0,3,,,,,,,,,2,,,61,49
1380,note_on,26,0,1,,,,,,,,,0,,,70,49
1380,note_on,0,0,3,,,,,,,,,2,,,55,49
1380,note_on,0,0,3,,,,,,,,,2,,,55,0
1380,note_on,0,0,3,,,,,,,,,2,,,51,49
1380,note_on,0,0,3,,,,,,,,,2,,,51,0
1380,note_on,120,0,2,,,,,,,,,1,,,63,0
1380,note_on,60,0,3,,,,,,,,,2,,,61,0
1410,note_on,30,0,1,,,,,,,,,0,,,70,0
1410,note_on,0,0,1,,,,,,,,,0,,,63,49
1414,note_on,4,0,1,,,,,,,,,0,,,63,0
1440,note_on,0,0,3,,,,,,,,,2,,,44,49
1440,note_on,0,0,3,,,,,,,,,2,,,51,0
1440,note_on,0,0,3,,,,,,,,,2,,,55,0
1440,note_on,0,0,2,,,,,,,,,1,,,63,49
1440,control_change,26,0,1,,,,,,,,,0,64,127,,
1440,note_on,60,0,3,,,,,,,,,2,,,61,0
1440,control_change,60,0,2,,,,,,,,,1,64,127,,
1440,control_change,0,0,3,,,,,,,,,2,64,127,,
1470,note_on,30,0,1,,,,,,,,,0,,,75,49
1474,note_on,4,0,1,,,,,,,,,0,,,75,0
1500,note_on,60,0,3,,,,,,,,,2,,,44,0
1500,note_on,0,0,3,,,,,,,,,2,,,51,62
1500,note_on,0,0,2,,,,,,,,,1,,,63,62
1500,note_on,0,0,3,,,,,,,,,2,,,56,62
1500,note_on,0,0,3,,,,,,,,,2,,,59,62
1500,note_on,60,0,2,,,,,,,,,1,,,63,0
1500,note_on,26,0,1,,,,,,,,,0,,,75,62
1530,note_on,0,0,1,,,,,,,,,0,,,73,62
1530,note_on,30,0,1,,,,,,,,,0,,,75,0
1534,note_on,4,0,1,,,,,,,,,0,,,73,0
1560,note_on,0,0,3,,,,,,,,,2,,,59,62
1560,note_on,0,0,2,,,,,,,,,1,,,63,75
1560,note_on,0,0,3,,,,,,,,,2,,,51,62
1560,note_on,60,0,3,,,,,,,,,2,,,59,0
1560,note_on,0,0,3,,,,,,,,,2,,,51,0
1560,note_on,60,0,2,,,,,,,,,1,,,63,0
1560,note_on,26,0,1,,,,,,,,,0,,,73,75
1560,note_on,0,0,3,,,,,,,,,2,,,56,62
1560,note_on,0,0,3,,,,,,,,,2,,,56,0
1590,note_on,0,0,1,,,,,,,,,0,,,71,75
1590,note_on,30,0,1,,,,,,,,,0,,,73,0
1594,note_on,4,0,1,,,,,,,,,0,,,71,0
1620,note_on,0,0,3,,,,,,,,,2,,,56,62
1620,note_on,26,0,1,,,,,,,,,0,,,71,75
1620,note_on,0,0,2,,,,,,,,,1,,,63,75
1620,note_on,0,0,3,,,,,,,,,2,,,56,0
1620,note_on,0,0,3,,,,,,,,,2,,,51,62
1620,note_on,0,0,3,,,,,,,,,2,,,51,0
1620,note_on,60,0,3,,,,,,,,,2,,,59,0
1620,note_on,0,0,3,,,,,,,,,2,,,59,62
1620,note_on,60,0,2,,,,,,,,,1,,,63,0
1650,note_on,0,0,1,,,,,,,,,0,,,70,75
1650,note_on,30,0,1,,,,,,,,,0,,,71,0
1654,note_on,4,0,1,,,,,,,,,0,,,70,0
1680,note_on,0,0,3,,,,,,,,,2,,,56,0
1680,note_on,0,0,3,,,,,,,,,2,,,51,62
1680,note_on,0,0,3,,,,,,,,,2,,,59,62
1680,note_on,0,0,3,,,,,,,,,2,,,56,62
1680,note_on,26,0,1,,,,,,,,,0,,,70,62
1680,note_on,0,0,3,,,,,,,,,2,,,51,0
1680,note_on,60,0,3,,,,,,,,,2,,,59,0
1710,note_on,30,0,1,,,,,,,,,0,,,70,0
1710,note_on,0,0,1,,,,,,,,,0,,,68,62
1714,note_on,4,0,1,,,,,,,,,0,,,68,0
1740,note_on,120,0,2,,,,,,,,,1,,,63,0
1740,note_on,60,0,3,,,,,,,,,2,,,59,0
1740,note_on,0,0,3,,,,,,,,,2,,,59,49
1740,note_on,0,0,3,,,,,,,,,2,,,56,49
1740,control_change,26,0,1,,,,,,,,,0,64,0,,
1740,note_on,0,0,3,,,,,,,,,2,,,56,0
1740,note_on,0,0,3,,,,,,,,,2,,,51,49
1740,note_on,0,0,3,,,,,,,,,2,,,51,0
1740,control_change,0,0,3,,,,,,,,,2,64,0,,
1740,control_change,0,0,2,,,,,,,,,1,64,0,,
1740,note_on,0,0,1,,,,,,,,,0,,,68,49
1770,control_change,0,0,1,,,,,,,,,0,64,127,,
1770,note_on,0,0,1,,,,,,,,,0,,,63,49
1770,note_on,30,0,1,,,,,,,,,0,,,68,0
1774,note_on,4,0,1,,,,,,,,,0,,,63,0
1785,note_on,11,0,1,,,,,,,,,0,,,68,49
1800,note_on,60,0,3,,,,,,,,,2,,,59,0
1800,note_on,0,0,1,,,,,,,,,0,,,80,101
1800,control_change,0,0,3,,,,,,,,,2,64,127,,
1800,control_change,60,0,2,,,,,,,,,1,64,127,,
1800,note_on,0,0,3,,,,,,,,,2,,,40,49
1800,note_on,0,0,3,,,,,,,,,2,,,51,0
1800,note_on,0,0,3,,,,,,,,,2,,,56,0
1800,note_on,15,0,1,,,,,,,,,0,,,68,0
1830,note_on,30,0,1,,,,,,,,,0,,,80,0
1830,note_on,0,0,1,,,,,,,,,0,,,78,49
1834,note_on,4,0,1,,,,,,,,,0,,,78,0
1860,note_on,60,0,3,,,,,,,,,2,,,40,0
1860,note_on,0,0,3,,,,,,,,,2,,,59,36
1860,note_on,0,0,3,,,,,,,,,2,,,52,36
1860,note_on,26,0,1,,,,,,,,,0,,,78,49
1860,note_on,0,0,3,,,,,,,,,2,,,56,36
1860,note_on,60,0,2,,,,,,,,,1,,,68,75
1890,note_on,30,0,1,,,,,,,,,0,,,78,0
1890,note_on,0,0,1,,,,,,,,,0,,,76,49
1894,note_on,4,0,1,,,,,,,,,0,,,76,0
1920,note_on,0,0,3,,,,,,,,,2,,,52,0
1920,note_on,60,0,2,,,,,,,,,1,,,68,0
1920,note_on,0,0,3,,,,,,,,,2,,,59,36
1920,note_on,0,0,3,,,,,,,,,2,,,56,36
1920,note_on,60,0,3,,,,,,,,,2,,,59,0
1920,note_on,0,0,3,,,,,,,,,2,,,56,0
1920,note_on,0,0,3,,,,,,,,,2,,,52,36
1920,note_on,26,0,1,,,,,,,,,0,,,76,49
1920,note_on,0,0,2,,,,,,,,,1,,,68,75
1950,note_on,30,0,1,,,,,,,,,0,,,76,0
1950,note_on,0,0,1,,,,,,,,,0,,,75,49
1954,note_on,4,0,1,,,,,,,,,0,,,75,0
1980,note_on,0,0,2,,,,,,,,,1,,,68,75
1980,note_on,0,0,3,,,,,,,,,2,,,56,0
1980,note_on,0,0,3,,,,,,,,,2,,,52,36
1980,note_on,0,0,3,,,,,,,,,2,,,52,0
1980,note_on,60,0,2,,,,,,,,,1,,,68,0
1980,note_on,0,0,3,,,,,,,,,2,,,59,36
1980,note_on,26,0,1,,,,,,,,,0,,,75,49
1980,note_on,60,0,3,,,,,,,,,2,,,59,0
1980,note_on,0,0,3,,,,,,,,,2,,,56,36
2010,note_on,30,0,1,,,,,,,,,0,,,75,0
2010,note_on,0,0,1,,,,,,,,,0,,,74,49
2014,note_on,4,0,1,,,,,,,,,0,,,74,0
2040,note_on,60,0,3,,,,,,,,,2,,,59,0
2040,note_on,26,0,1,,,,,,,,,0,,,74,49
2040,note_on,0,0,3,,,,,,,,,2,,,52,0
2040,note_on,0,0,3,,,,,,,,,2,,,52,36
2040,note_on,0,0,3,,,,,,,,,2,,,56,36
2040,note_on,0,0,3,,,,,,,,,2,,,59,36
2040,note_on,0,0,3,,,,,,,,,2,,,56,0
2070,note_on,30,0,1,,,,,,,,,0,,,74,0
2070,note_on,0,0,1,,,,,,,,,0,,,75,49
2074,note_on,4,0,1,,,,,,,,,0,,,75,0
2100,note_on,0,0,3,,,,,,,,,2,,,52,0
2100,note_on,0,0,3,,,,,,,,,2,,,52,36
2100,note_on,60,0,3,,,,,,,,,2,,,59,0
2100,note_on,0,0,3,,,,,,,,,2,,,56,0
2100,note_on,0,0,3,,,,,,,,,2,,,59,36
2100,note_on,26,0,1,,,,,,,,,0,,,75,49
2100,control_change,0,0,3,,,,,,,,,2,64,0,,
2100,note_on,120,0,2,,,,,,,,,1,,,68,0
2100,control_change,0,0,2,,,,,,,,,1,64,0,,
2100,note_on,0,0,3,,,,,,,,,2,,,56,36
2130,note_on,0,0,1,,,,,,,,,0,,,76,49
2130,note_on,30,0,1,,,,,,,,,0,,,75,0
2130,control_change,0,0,1,,,,,,,,,0,64,0,,
2134,note_on,4,0,1,,,,,,,,,0,,,76,0
2145,control_change,11,0,1,,,,,,,,,0,64,127,,
2145,note_on,0,0,1,,,,,,,,,0,,,63,49
2150,note_on,0,0,1,,,,,,,,,0,,,68,49
2150,note_on,5,0,1,,,,,,,,,0,,,63,0
2154,note_on,4,0,1,,,,,,,,,0,,,71,49
2155,note_on,1,0,1,,,,,,,,,0,,,68,0
2159,note_on,4,0,1,,,,,,,,,0,,,71,0
2160,note_on,1,0,1,,,,,,,,,0,,,76,101
2160,note_on,60,0,3,,,,,,,,,2,,,59,0
2160,note_on,0,0,3,,,,,,,,,2,,,39,36
2160,control_change,0,0,3,,,,,,,,,2,64,127,,
2160,note_on,0,0,3,,,,,,,,,2,,,52,0
2160,note_on,0,0,3,,,,,,,,,2,,,56,0
2190,note_on,30,0,1,,,,,,,,,0,,,76,0
2190,note_on,0,0,1,,,,,,,,,0,,,75,49
2220,note_on,0,0,3,,,,,,,,,2,,,51,62
2220,note_on,30,0,1,,,,,,,,,0,,,75,0
2220,note_on,0,0,3,,,,,,,,,2,,,56,62
2220,note_on,60,0,3,,,,,,,,,2,,,39,0
2220,note_on,0,0,3,,,,,,,,,2,,,59,62
2220,note_on,0,0,1,,,,,,,,,0,,,73,49
2250,note_on,30,0,1,,,,,,,,,0,,,73,0
2250,note_on,0,0,1,,,,,,,,,0,,,71,49
2280,note_on,0,0,3,,,,,,,,,2,,,51,62
2280,note_on,30,0,1,,,,,,,,,0,,,71,0
2280,note_on,0,0,3,,,,,,,,,2,,,56,62
2280,note_on,0,0,3,,,,,,,,,2,,,51,0
2280,note_on,0,0,1,,,,,,,,,0,,,70,49
2280,note_on,0,0,3,,,,,,,,,2,,,59,62
2280,control_change,0,0,3,,,,,,,,,2,64,0,,
2280,note_on,60,0,3,,,,,,,,,2,,,59,0
2280,note_on,0,0,3,,,,,,,,,2,,,56,0
2310,control_change,0,0,1,,,,,,,,,0,64,0,,
2310,note_on,0,0,1,,,,,,,,,0,,,68,49
2310,note_on,30,0,1,,,,,,,,,0,,,70,0
2325,control_change,0,0,1,,,,,,,,,0,64,127,,
2325,note_on,15,0,1,,,,,,,,,0,,,68,0
2325,note_on,0,0,1,,,,,,,,,0,,,61,49
2330,note_on,0,0,1,,,,,,,,,0,,,67,49
2330,note_on,5,0,1,,,,,,,,,0,,,61,0
2334,note_on,4,0,1,,,,,,,,,0,,,70,49
2335,note_on,1,0,1,,,,,,,,,0,,,67,0
2339,note_on,4,0,1,,,,,,,,,0,,,70,0
2340,note_on,0,0,3,,,,,,,,,2,,,39,62
2340,note_on,60,0,3,,,,,,,,,2,,,59,0
2340,note_on,0,0,3,,,,,,,,,2,,,56,0
2340,note_on,0,0,3,,,,,,,,,2,,,51,0
2340,note_on,1,0,1,,,,,,,,,0,,,75,101
2340,control_change,0,0,3,,,,,,,,,2,64,127,,
2370,note_on,0,0,1,,,,,,,,,0,,,73,49
2370,note_on,30,0,1,,,,,,,,,0,,,75,0
2400,note_on,0,0,3,,,,,,,,,2,,,51,62
2400,note_on,60,0,3,,,,,,,,,2,,,39,0
2400,note_on,0,0,1,,,,,,,,,0,,,71,49
2400,note_on,30,0,1,,,,,,,,,0,,,73,0
2400,note_on,0,0,3,,,,,,,,,2,,,61,62
2400,note_on,0,0,3,,,,,,,,,2,,,58,62
2430,note_on,30,0,1,,,,,,,,,0,,,71,0
2430,note_on,0,0,1,,,,,,,,,0,,,70,49
2460,note_on,0,0,3,,,,,,,,,2,,,58,0
2460,note_on,0,0,3,,,,,,,,,2,,,51,62
2460,note_on,0,0,3,,,,,,,,,2,,,58,62
2460,note_on,0,0,3,,,,,,,,,2,,,51,0
2460,note_on,60,0,3,,,,,,,,,2,,,61,0
2460,note_on,30,0,1,,,,,,,,,0,,,70,0
2460,note_on,0,0,1,,,,,,,,,0,,,68,49
2460,control_change,0,0,3,,,,,,,,,2,64,0,,
2460,note_on,0,0,3,,,,,,,,,2,,,61,62
2490,control_change,0,0,1,,,,,,,,,0,64,0,,
2490,note_on,0,0,1,,,,,,,,,0,,,67,49
2490,note_on,30,0,1,,,,,,,,,0,,,68,0
2505,note_on,0,0,1,,,,,,,,,0,,,59,49
2505,note_on,15,0,1,,,,,,,,,0,,,67,0
2505,control_change,0,0,1,,,,,,,,,0,64,127,,
2512,note_on,7,0,1,,,,,,,,,0,,,63,49
2513,note_on,1,0,1,,,,,,,,,0,,,59,0
2520,control_change,0,0,3,,,,,,,,,2,64,127,,
2520,note_on,60,0,3,,,,,,,,,2,,,61,0
2520,note_on,0,0,3,,,,,,,,,2,,,44,49
2520,note_on,0,0,3,,,,,,,,,2,,,51,0
2520,note_on,0,0,3,,,,,,,,,2,,,58,0
2520,note_on,0,0,1,,,,,,,,,0,,,70,75
2520,note_on,7,0,1,,,,,,,,,0,,,63,0
2550,note_on,0,0,1,,,,,,,,,0,,,68,49
2550,note_on,30,0,1,,,,,,,,,0,,,70,0
2565,set_tempo,2565,1,0,,,,,,909091,,,,,,,
2580,note_on,0,0,1,,,,,,,,,0,,,63,49
2580,note_on,0,0,3,,,,,,,,,2,,,59,62
2580,note_on,30,0,1,,,,,,,,,0,,,68,0
2580,note_on,0,0,3,,,,,,,,,2,,,56,62
2580,note_on,60,0,3,,,,,,,,,2,,,44,0
2580,note_on,0,0,3,,,,,,,,,2,,,51,62
2610,set_tempo,45,1,0,,,,,,952381,,,,,,,
2610,note_on,0,0,1,,,,,,,,,0,,,59,49
2610,note_on,30,0,1,,,,,,,,,0,,,63,0
2640,note_on,60,0,3,,,,,,,,,2,,,59,0
2640,note_on,0,0,3,,,,,,,,,2,,,59,62
2640,note_on,0,0,1,,,,,,,,,0,,,63,49
2640,note_on,0,0,3,,,,,,,,,2,,,56,62
2640,note_on,0,0,3,,,,,,,,,2,,,56,0
2640,note_on,0,0,3,,,,,,,,,2,,,51,0
2640,note_on,30,0,1,,,,,,,,,0,,,59,0
2640,note_on,0,0,3,,,,,,,,,2,,,51,62
2655,set_tempo,45,1,0,,,,,,1000000,,,,,,,
2670,note_on,30,0,1,,,,,,,,,0,,,63,0
2670,note_on,0,0,1,,,,,,,,,0,,,67,49
2700,note_on,0,0,3,,,,,,,,,2,,,51,0
2700,note_on,30,0,1,,,,,,,,,0,,,67,0
2700,note_on,0,0,3,,,,,,,,,2,,,56,0
2700,note_on,0,0,3,,,,,,,,,2,,,51,62
2700,set_tempo,45,1,0,,,,,,1071429,,,,,,,
2700,note_on,0,0,1,,,,,,,,,0,,,68,49
2700,note_on,60,0,3,,,,,,,,,2,,,59,0
2700,note_on,0,0,3,,,,,,,,,2,,,56,62
2700,note_on,0,0,3,,,,,,,,,2,,,59,62
2745,set_tempo,45,1,0,,,,,,1132075,,,,,,,
2760,note_on,0,0,3,,,,,,,,,2,,,59,62
2760,note_on,60,0,1,,,,,,,,,0,,,68,0
2760,note_on,0,0,3,,,,,,,,,2,,,51,62
2760,note_on,0,0,3,,,,,,,,,2,,,56,0
2760,note_on,0,0,3,,,,,,,,,2,,,56,62
2760,note_on,60,0,3,,,,,,,,,2,,,59,0
2760,note_on,0,0,3,,,,,,,,,2,,,51,0
2790,set_tempo,45,1,0,,,,,,1200000,,,,,,,
2820,note_on,0,0,3,,,,,,,,,2,,,59,49
2820,note_on,0,0,3,,,,,,,,,2,,,56,0
2820,note_on,0,0,3,,,,,,,,,2,,,51,0
2820,note_on,60,0,3,,,,,,,,,2,,,59,0
2820,control_change,0,0,3,,,,,,,,,2,64,0,,
2820,control_change,60,0,1,,,,,,,,,0,64,0,,
2820,note_on,0,0,3,,,,,,,,,2,,,56,49
2820,note_on,0,0,3,,,,,,,,,2,,,51,49
2835,set_tempo,45,1,0,,,,,,1276596,,,,,,,
2860,note_on,40,0,3,,,,,,,,,2,,,44,49
2870,note_on,10,0,3,,,,,,,,,2,,,47,49
2880,note_on,10,0,3,,,,,,,,,2,,,59,0
2880,note_on,0,0,3,,,,,,,,,2,,,56,0
2880,note_on,0,0,3,,,,,,,,,2,,,51,0
2880,note_on,780,0,2,,,,,,,,,1,,,63,49
2880,note_on,0,0,3,,,,,,,,,2,,,51,75
2880,set_tempo,45,1,0,,,,,,923077,,,,,,,
2910,note_on,90,0,1,,,,,,,,,0,,,75,49
2914,note_on,4,0,1,,,,,,,,,0,,,75,0
2940,note_on,26,0,1,,,,,,,,,0,,,75,49
2940,note_on,60,0,2,,,,,,,,,1,,,63,0
2940,note_on,0,0,2,,,,,,,,,1,,,63,49
2970,note_on,0,0,1,,,,,,,,,0,,,73,49
2970,note_on,90,0,3,,,,,,,,,2,,,51,0
2970,note_on,0,0,3,,,,,,,,,2,,,52,75
2970,note_on,0,0,3,,,,,,,,,2,,,47,0
2970,note_on,0,0,3,,,,,,,,,2,,,44,0
2970,note_on,30,0,1,,,,,,,,,0,,,75,0
2974,note_on,4,0,1,,,,,,,,,0,,,73,0
3000,note_on,26,0,1,,,,,,,,,0,,,73,49
3000,note_on,0,0,2,,,,,,,,,1,,,63,49
3000,note_on,30,0,3,,,,,,,,,2,,,52,0
3000,note_on,60,0,2,,,,,,,,,1,,,63,0
3000,note_on,0,0,3,,,,,,,,,2,,,51,75
3030,note_on,30,0,1,,,,,,,,,0,,,73,0
3030,note_on,0,0,1,,,,,,,,,0,,,71,49
3034,note_on,4,0,1,,,,,,,,,0,,,71,0
3060,note_on,0,0,2,,,,,,,,,1,,,63,49
3060,note_on,60,0,2,,,,,,,,,1,,,63,0
3060,note_on,26,0,1,,,,,,,,,0,,,71,49
3060,note_on,0,0,3,,,,,,,,,2,,,51,75
3060,note_on,60,0,3,,,,,,,,,2,,,51,0
3066,note_on,6,0,3,,,,,,,,,2,,,51,0
3090,note_on,0,0,1,,,,,,,,,0,,,70,49
3090,note_on,30,0,1,,,,,,,,,0,,,71,0
3094,note_on,4,0,1,,,,,,,,,0,,,70,0
3120,note_on,54,0,3,,,,,,,,,2,,,56,75
3120,note_on,26,0,1,,,,,,,,,0,,,70,49
3126,note_on,6,0,3,,,,,,,,,2,,,56,0
3150,note_on,30,0,1,,,,,,,,,0,,,70,0
3150,note_on,0,0,1,,,,,,,,,0,,,68,49
3154,note_on,4,0,1,,,,,,,,,0,,,68,0
3180,note_on,54,0,3,,,,,,,,,2,,,51,75
3180,note_on,120,0,2,,,,,,,,,1,,,63,0
3180,note_on,26,0,1,,,,,,,,,0,,,68,49
3210,note_on,0,0,1,,,,,,,,,0,,,63,49
3210,note_on,30,0,1,,,,,,,,,0,,,68,0
3214,note_on,4,0,1,,,,,,,,,0,,,63,0
3225,note_on,45,0,3,,,,,,,,,2,,,44,75
3240,note_on,60,0,2,,,,,,,,,1,,,63,49
3240,note_on,15,0,3,,,,,,,,,2,,,51,0
3240,note_on,0,0,3,,,,,,,,,2,,,51,75
3270,note_on,30,0,3,,,,,,,,,2,,,51,0
3270,note_on,56,0,1,,,,,,,,,0,,,75,49
3270,note_on,0,0,3,,,,,,,,,2,,,59,75
3270,note_on,0,0,3,,,,,,,,,2,,,44,0
3274,note_on,4,0,1,,,,,,,,,0,,,75,0
3300,note_on,60,0,2,,,,,,,,,1,,,63,0
3300,note_on,26,0,1,,,,,,,,,0,,,75,49
3300,note_on,0,0,2,,,,,,,,,1,,,63,49
3300,note_on,30,0,3,,,,,,,,,2,,,59,0
3300,note_on,0,0,3,,,,,,,,,2,,,59,75
3330,note_on,30,0,1,,,,,,,,,0,,,75,0
3330,note_on,30,0,3,,,,,,,,,2,,,59,0
3330,note_on,0,0,3,,,,,,,,,2,,,58,75
3330,note_on,0,0,1,,,,,,,,,0,,,73,49
3334,note_on,4,0,1,,,,,,,,,0,,,73,0
3360,note_on,30,0,3,,,,,,,,,2,,,58,0
3360,note_on,0,0,3,,,,,,,,,2,,,58,75
3360,note_on,0,0,2,,,,,,,,,1,,,63,49
3360,note_on,26,0,1,,,,,,,,,0,,,73,49
3360,note_on,60,0,2,,,,,,,,,1,,,63,0
3390,note_on,30,0,3,,,,,,,,,2,,,58,0
3390,note_on,30,0,1,,,,,,,,,0,,,73,0
3390,note_on,0,0,3,,,,,,,,,2,,,56,75
3390,note_on,0,0,1,,,,,,,,,0,,,71,49
3394,note_on,4,0,1,,,,,,,,,0,,,71,0
3420,note_on,26,0,1,,,,,,,,,0,,,71,49
3420,note_on,0,0,3,,,,,,,,,2,,,56,75
3420,note_on,0,0,2,,,,,,,,,1,,,63,49
3420,note_on,30,0,3,,,,,,,,,2,,,56,0
3420,note_on,60,0,2,,,,,,,,,1,,,63,0
3450,note_on,30,0,1,,,,,,,,,0,,,71,0
3450,note_on,0,0,1,,,,,,,,,0,,,70,49
3454,note_on,4,0,1,,,,,,,,,0,,,70,0
3480,note_on,26,0,1,,,,,,,,,0,,,70,49
3510,note_on,30,0,1,,,,,,,,,0,,,70,0
3510,note_on,0,0,1,,,,,,,,,0,,,68,49
3514,note_on,4,0,1,,,,,,,,,0,,,68,0
3540,note_on,120,0,3,,,,,,,,,2,,,56,0
3540,note_on,0,0,3,,,,,,,,,2,,,51,75
3540,note_on,26,0,1,,,,,,,,,0,,,68,49
3540,note_on,120,0,2,,,,,,,,,1,,,63,0
3570,note_on,0,0,1,,,,,,,,,0,,,63,49
3570,note_on,30,0,1,,,,,,,,,0,,,68,0
3574,note_on,4,0,1,,,,,,,,,0,,,63,0
3577,note_on,37,0,3,,,,,,,,,2,,,39,75
3585,note_on,8,0,3,,,,,,,,,2,,,43,75
3592,note_on,7,0,3,,,,,,,,,2,,,49,75
3600,note_on,8,0,3,,,,,,,,,2,,,51,0
3600,note_on,0,0,3,,,,,,,,,2,,,51,75
3600,note_on,60,0,2,,,,,,,,,1,,,63,49
3630,note_on,56,0,1,,,,,,,,,0,,,76,49
3634,note_on,4,0,1,,,,,,,,,0,,,76,0
3660,note_on,60,0,2,,,,,,,,,1,,,63,0
3660,note_on,26,0,1,,,,,,,,,0,,,76,49
3660,note_on,0,0,2,,,,,,,,,1,,,63,49
3690,note_on,0,0,3,,,,,,,,,2,,,43,0
3690,note_on,30,0,1,,,,,,,,,0,,,76,0
3690,note_on,0,0,1,,,,,,,,,0,,,75,49
3690,note_on,0,0,3,,,,,,,,,2,,,52,75
3690,note_on,0,0,3,,,,,,,,,2,,,49,0
3690,note_on,90,0,3,,,,,,,,,2,,,51,0
3690,note_on,0,0,3,,,,,,,,,2,,,39,0
3694,note_on,4,0,1,,,,,,,,,0,,,75,0
3720,note_on,0,0,2,,,,,,,,,1,,,63,49
3720,note_on,0,0,3,,,,,,,,,2,,,51,75
3720,note_on,30,0,3,,,,,,,,,2,,,52,0
3720,note_on,60,0,2,,,,,,,,,1,,,63,0
3720,note_on,26,0,1,,,,,,,,,0,,,75,49
3750,note_on,30,0,1,,,,,,,,,0,,,75,0
3750,note_on,0,0,1,,,,,,,,,0,,,73,49
3754,note_on,4,0,1,,,,,,,,,0,,,73,0
3780,note_on,0,0,3,,,,,,,,,2,,,51,75
3780,note_on,0,0,2,,,,,,,,,1,,,63,49
3780,note_on,60,0,3,,,,,,,,,2,,,51,0
3780,note_on,60,0,2,,,,,,,,,1,,,63,0
3780,note_on,26,0,1,,,,,,,,,0,,,73,49
3786,note_on,6,0,3,,,,,,,,,2,,,51,0
3810,note_on,0,0,1,,,,,,,,,0,,,71,49
3810,note_on,30,0,1,,,,,,,,,0,,,73,0
3814,note_on,4,0,1,,,,,,,,,0,,,71,0
3840,note_on,26,0,1,,,,,,,,,0,,,71,49
3840,note_on,54,0,3,,,,,,,,,2,,,58,75
3846,note_on,6,0,3,,,,,,,,,2,,,58,0
3870,note_on,30,0,1,,,,,,,,,0,,,71,0
3870,note_on,0,0,1,,,,,,,,,0,,,70,49
3874,note_on,4,0,1,,,,,,,,,0,,,70,0
3900,note_on,54,0,3,,,,,,,,,2,,,51,75
3900,note_on,26,0,1,,,,,,,,,0,,,70,49
3900,note_on,120,0,2,,,,,,,,,1,,,63,0
3930,note_on,30,0,1,,,,,,,,,0,,,70,0
3930,note_on,0,0,1,,,,,,,,,0,,,63,49
3934,note_on,4,0,1,,,,,,,,,0,,,63,0
3940,note_on,40,0,3,,,,,,,,,2,,,39,75
3950,note_on,10,0,3,,,,,,,,,2,,,43,75
3960,note_on,60,0,2,,,,,,,,,1,,,63,49
3960,note_on,10,0,3,,,,,,,,,2,,,51,0
3960,note_on,0,0,3,,,,,,,,,2,,,51,75
3990,note_on,0,0,3,,,,,,,,,2,,,43,0
3990,note_on,30,0,3,,,,,,,,,2,,,51,0
3990,note_on,0,0,3,,,,,,,,,2,,,61,75
3990,note_on,0,0,3,,,,,,,,,2,,,39,0
3990,note_on,56,0,1,,,,,,,,,0,,,76,49
3994,note_on,4,0,1,,,,,,,,,0,,,76,0
4020,note_on,0,0,2,,,,,,,,,1,,,63,49
4020,note_on,30,0,3,,,,,,,,,2,,,61,0
4020,note_on,26,0,1,,,,,,,,,0,,,76,49
4020,note_on,0,0,3,,,,,,,,,2,,,61,75
4020,note_on,60,0,2,,,,,,,,,1,,,63,0
4050,note_on,0,0,1,,,,,,,,,0,,,75,49
4050,note_on,30,0,1,,,,,,,,,0,,,76,0
4050,note_on,30,0,3,,,,,,,,,2,,,61,0
4050,note_on,0,0,3,,,,,,,,,2,,,59,75
4054,note_on,4,0,1,,,,,,,,,0,,,75,0
4080,note_on,30,0,3,,,,,,,,,2,,,59,0
4080,note_on,0,0,2,,,,,,,,,1,,,63,49
4080,note_on,60,0,2,,,,,,,,,1,,,63,0
4080,note_on,0,0,3,,,,,,,,,2,,,59,75
4080,note_on,26,0,1,,,,,,,,,0,,,75,49
4110,note_on,0,0,1,,,,,,,,,0,,,73,49
4110,note_on,30,0,1,,,,,,,,,0,,,75,0
4110,note_on,0,0,3,,,,,,,,,2,,,58,75
4110,note_on,30,0,3,,,,,,,,,2,,,59,0
4114,note_on,4,0,1,,,,,,,,,0,,,73,0
4140,note_on,60,0,2,,,,,,,,,1,,,63,0
4140,note_on,26,0,1,,,,,,,,,0,,,73,49
4140,note_on,0,0,2,,,,,,,,,1,,,63,49
4140,note_on,30,0,3,,,,,,,,,2,,,58,0
4140,note_on,0,0,3,,,,,,,,,2,,,58,75
4170,note_on,30,0,1,,,,,,,,,0,,,73,0
4170,note_on,0,0,1,,,,,,,,,0,,,71,49
4174,note_on,4,0,1,,,,,,,,,0,,,71,0
4200,note_on,26,0,1,,,,,,,,,0,,,71,49
4230,note_on,0,0,1,,,,,,,,,0,,,70,49
4230,note_on,30,0,1,,,,,,,,,0,,,71,0
4234,note_on,4,0,1,,,,,,,,,0,,,70,0
4260,note_on,120,0,2,,,,,,,,,1,,,63,0
4260,note_on,26,0,1,,,,,,,,,0,,,70,49
4290,note_on,30,0,1,,,,,,,,,0,,,70,0
4290,note_on,0,0,1,,,,,,,,,0,,,63,49
4294,note_on,4,0,1,,,,,,,,,0,,,63,0
4320,note_on,60,0,2,,,,,,,,,1,,,66,62
4320,note_on,0,0,3,,,,,,,,,2,,,59,88
4320,note_on,4320,0,4,,,,,,,,,3,,,47,62
4320,note_on,0,0,4,,,,,,,,,3,,,51,62
4320,note_on,180,0,3,,,,,,,,,2,,,58,0
4350,note_on,0,0,3,,,,,,,,,2,,,63,88
4350,note_on,30,0,3,,,,,,,,,2,,,59,0
4350,note_on,56,0,1,,,,,,,,,0,,,78,62
4354,note_on,4,0,1,,,,,,,,,0,,,78,0
4380,note_on,30,0,3,,,,,,,,,2,,,63,0
4380,note_on,26,0,1,,,,,,,,,0,,,78,75
4380,note_on,0,0,3,,,,,,,,,2,,,63,88
4380,note_on,0,0,2,,,,,,,,,1,,,66,75
4380,note_on,60,0,2,,,,,,,,,1,,,66,0
4410,note_on,0,0,3,,,,,,,,,2,,,61,88
4410,note_on,30,0,1,,,,,,,,,0,,,78,0
4410,note_on,30,0,3,,,,,,,,,2,,,63,0
4410,note_on,0,0,1,,,,,,,,,0,,,76,75
4414,note_on,4,0,1,,,,,,,,,0,,,76,0
4440,note_on,0,0,2,,,,,,,,,1,,,66,88
4440,note_on,0,0,3,,,,,,,,,2,,,61,101
4440,note_on,60,0,2,,,,,,,,,1,,,66,0
4440,note_on,26,0,1,,,,,,,,,0,,,76,88
4440,note_on,120,0,4,,,,,,,,,3,,,51,0
4440,note_on,0,0,4,,,,,,,,,3,,,47,0
4440,note_on,30,0,3,,,,,,,,,2,,,61,0
4470,note_on,30,0,1,,,,,,,,,0,,,76,0
4470,note_on,0,0,3,,,,,,,,,2,,,59,101
4470,note_on,30,0,3,,,,,,,,,2,,,61,0
4470,note_on,0,0,1,,,,,,,,,0,,,75,88
4474,note_on,4,0,1,,,,,,,,,0,,,75,0
4500,note_on,26,0,1,,,,,,,,,0,,,75,88
4500,note_on,0,0,2,,,,,,,,,1,,,66,88
4500,note_on,30,0,3,,,,,,,,,2,,,59,0
4500,note_on,60,0,2,,,,,,,,,1,,,66,0
4500,note_on,0,0,3,,,,,,,,,2,,,59,101
4530,note_on,30,0,1,,,,,,,,,0,,,75,0
4530,note_on,0,0,1,,,,,,,,,0,,,73,88
4534,note_on,4,0,1,,,,,,,,,0,,,73,0
4560,note_on,26,0,1,,,,,,,,,0,,,73,75
4590,note_on,0,0,1,,,,,,,,,0,,,71,75
4590,note_on,90,0,3,,,,,,,,,2,,,59,0
4590,note_on,30,0,1,,,,,,,,,0,,,73,0
4590,note_on,0,0,3,,,,,,,,,2,,,54,101
4594,note_on,4,0,1,,,,,,,,,0,,,71,0
4594,note_on,4,0,3,,,,,,,,,2,,,54,0
4620,note_on,26,0,1,,,,,,,,,0,,,71,62
4620,note_on,120,0,2,,,,,,,,,1,,,66,0
4620,note_on,26,0,3,,,,,,,,,2,,,54,101
4626,note_on,6,0,3,,,,,,,,,2,,,54,0
4650,note_on,0,0,1,,,,,,,,,0,,,66,62
4650,note_on,30,0,1,,,,,,,,,0,,,71,0
4654,note_on,4,0,1,,,,,,,,,0,,,66,0
4680,note_on,240,0,4,,,,,,,,,3,,,42,62
4680,note_on,60,0,2,,,,,,,,,1,,,66,62
4680,note_on,54,0,3,,,,,,,,,2,,,54,88
4680,note_on,0,0,4,,,,,,,,,3,,,46,62
4710,note_on,56,0,1,,,,,,,,,0,,,80,62
4710,note_on,0,0,3,,,,,,,,,2,,,64,88
4710,note_on,30,0,3,,,,,,,,,2,,,54,0
4714,note_on,4,0,1,,,,,,,,,0,,,80,0
4740,note_on,60,0,2,,,,,,,,,1,,,66,0
4740,note_on,0,0,3,,,,,,,,,2,,,64,88
4740,note_on,0,0,2,,,,,,,,,1,,,66,75
4740,note_on,26,0,1,,,,,,,,,0,,,80,75
4740,note_on,30,0,3,,,,,,,,,2,,,64,0
4770,note_on,30,0,3,,,,,,,,,2,,,64,0
4770,note_on,0,0,1,,,,,,,,,0,,,78,75
4770,note_on,0,0,3,,,,,,,,,2,,,63,88
4770,note_on,30,0,1,,,,,,,,,0,,,80,0
4774,note_on,4,0,1,,,,,,,,,0,,,78,0
4800,note_on,26,0,1,,,,,,,,,0,,,78,88
4800,note_on,120,0,4,,,,,,,,,3,,,46,0
4800,note_on,0,0,3,,,,,,,,,2,,,63,101
4800,note_on,60,0,2,,,,,,,,,1,,,66,0
4800,note_on,30,0,3,,,,,,,,,2,,,63,0
4800,note_on,0,0,2,,,,,,,,,1,,,66,88
4800,note_on,0,0,4,,,,,,,,,3,,,42,0
4830,note_on,30,0,1,,,,,,,,,0,,,78,0
4830,note_on,0,0,3,,,,,,,,,2,,,61,101
4830,note_on,0,0,1,,,,,,,,,0,,,76,88
4830,note_on,30,0,3,,,,,,,,,2,,,63,0
4834,note_on,4,0,1,,,,,,,,,0,,,76,0
4860,note_on,0,0,3,,,,,,,,,2,,,61,101
4860,note_on,26,0,1,,,,,,,,,0,,,76,88
4860,note_on,60,0,2,,,,,,,,,1,,,66,0
4860,note_on,0,0,2,,,,,,,,,1,,,66,88
4860,note_on,30,0,3,,,,,,,,,2,,,61,0
4890,note_on,30,0,1,,,,,,,,,0,,,76,0
4890,note_on,0,0,1,,,,,,,,,0,,,75,88
4894,note_on,4,0,1,,,,,,,,,0,,,75,0
4920,note_on,26,0,1,,,,,,,,,0,,,75,88
4950,note_on,30,0,1,,,,,,,,,0,,,75,0
4950,note_on,0,0,1,,,,,,,,,0,,,73,88
4954,note_on,4,0,1,,,,,,,,,0,,,73,0
4980,note_on,120,0,2,,,,,,,,,1,,,66,0
4980,note_on,120,0,3,,,,,,,,,2,,,61,0
4980,note_on,0,0,2,,,,,,,,,1,,,64,62
4980,note_on,0,0,3,,,,,,,,,2,,,54,88
4980,note_on,0,0,4,,,,,,,,,3,,,46,62
4980,note_on,26,0,1,,,,,,,,,0,,,73,62
4980,note_on,180,0,4,,,,,,,,,3,,,42,62
5010,note_on,0,0,1,,,,,,,,,0,,,66,62
5010,note_on,30,0,1,,,,,,,,,0,,,73,0
5014,note_on,4,0,1,,,,,,,,,0,,,66,0
5020,note_on,40,0,3,,,,,,,,,2,,,47,88
5030,note_on,10,0,3,,,,,,,,,2,,,54,88
5040,note_on,0,0,3,,,,,,,,,2,,,63,88
5040,note_on,60,0,2,,,,,,,,,1,,,64,0
5040,note_on,10,0,3,,,,,,,,,2,,,54,0
5040,note_on,60,0,4,,,,,,,,,3,,,46,0
5040,note_on,0,0,2,,,,,,,,,1,,,66,62
5040,note_on,0,0,4,,,,,,,,,3,,,42,0
5070,note_on,56,0,1,,,,,,,,,0,,,78,62
5074,note_on,4,0,1,,,,,,,,,0,,,78,0
5100,note_on,26,0,1,,,,,,,,,0,,,78,62
5100,note_on,0,0,2,,,,,,,,,1,,,66,62
5100,note_on,60,0,2,,,,,,,,,1,,,66,0
5130,note_on,0,0,3,,,,,,,,,2,,,63,88
5130,note_on,0,0,3,,,,,,,,,2,,,54,0
5130,note_on,0,0,3,,,,,,,,,2,,,47,0
5130,note_on,30,0,1,,,,,,,,,0,,,78,0
5130,note_on,90,0,3,,,,,,,,,2,,,63,0
5130,note_on,0,0,1,,,,,,,,,0,,,75,62
5134,note_on,4,0,1,,,,,,,,,0,,,75,0
5160,note_on,60,0,2,,,,,,,,,1,,,66,0
5160,note_on,30,0,3,,,,,,,,,2,,,63,0
5160,note_on,26,0,1,,,,,,,,,0,,,75,62
5160,note_on,0,0,2,,,,,,,,,1,,,66,62
5160,note_on,0,0,3,,,,,,,,,2,,,63,88
5190,note_on,30,0,1,,,,,,,,,0,,,75,0
5190,note_on,0,0,1,,,,,,,,,0,,,71,62
5194,note_on,4,0,1,,,,,,,,,0,,,71,0
5200,note_on,40,0,3,,,,,,,,,2,,,56,88
5210,note_on,10,0,3,,,,,,,,,2,,,59,88
5220,note_on,60,0,2,,,,,,,,,1,,,66,0
5220,note_on,0,0,2,,,,,,,,,1,,,68,62
5220,note_on,10,0,3,,,,,,,,,2,,,63,0
5220,note_on,0,0,3,,,,,,,,,2,,,63,88
5250,note_on,56,0,1,,,,,,,,,0,,,80,62
5254,note_on,4,0,1,,,,,,,,,0,,,80,0
5280,note_on,26,0,1,,,,,,,,,0,,,80,62
5280,note_on,60,0,2,,,,,,,,,1,,,68,0
5280,note_on,0,0,2,,,,,,,,,1,,,68,62
5310,note_on,0,0,1,,,,,,,,,0,,,75,62
5310,note_on,90,0,3,,,,,,,,,2,,,63,0
5310,note_on,0,0,3,,,,,,,,,2,,,59,88
5310,note_on,0,0,3,,,,,,,,,2,,,59,0
5310,note_on,0,0,3,,,,,,,,,2,,,56,0
5310,note_on,30,0,1,,,,,,,,,0,,,80,0
5314,note_on,4,0,1,,,,,,,,,0,,,75,0
5314,note_on,4,0,3,,,,,,,,,2,,,59,0
5340,note_on,26,0,1,,,,,,,,,0,,,75,62
5340,note_on,60,0,2,,,,,,,,,1,,,68,0
5340,note_on,0,0,2,,,,,,,,,1,,,68,62
5340,note_on,26,0,3,,,,,,,,,2,,,56,88
5346,note_on,6,0,3,,,,,,,,,2,,,56,0
5370,note_on,0,0,1,,,,,,,,,0,,,71,62
5370,note_on,30,0,1,,,,,,,,,0,,,75,0
5374,note_on,4,0,1,,,,,,,,,0,,,71,0
5380,note_on,34,0,3,,,,,,,,,2,,,51,88
5390,note_on,10,0,3,,,,,,,,,2,,,55,88
5400,note_on,0,0,2,,,,,,,,,1,,,70,75
5400,note_on,10,0,3,,,,,,,,,2,,,58,101
5400,note_on,60,0,2,,,,,,,,,1,,,68,0
5430,note_on,56,0,1,,,,,,,,,0,,,82,75
5434,note_on,4,0,1,,,,,,,,,0,,,82,0
5460,note_on,60,0,3,,,,,,,,,2,,,58,0
5460,note_on,60,0,2,,,,,,,,,1,,,70,0
5460,note_on,0,0,3,,,,,,,,,2,,,51,0
5460,note_on,0,0,2,,,,,,,,,1,,,70,75
5460,note_on,26,0,1,,,,,,,,,0,,,82,75
5460,note_on,0,0,3,,,,,,,,,2,,,63,101
5460,note_on,0,0,3,,,,,,,,,2,,,55,0
5490,note_on,0,0,1,,,,,,,,,0,,,79,75
5490,note_on,30,0,1,,,,,,,,,0,,,82,0
5494,note_on,4,0,1,,,,,,,,,0,,,79,0
5520,note_on,26,0,1,,,,,,,,,0,,,79,75
5520,note_on,60,0,2,,,,,,,,,1,,,70,0
5520,note_on,60,0,3,,,,,,,,,2,,,63,0
5520,note_on,0,0,2,,,,,,,,,1,,,70,75
5520,note_on,0,0,3,,,,,,,,,2,,,55,101
5526,note_on,6,0,3,,,,,,,,,2,,,55,0
5550,note_on,30,0,1,,,,,,,,,0,,,79,0
5550,note_on,0,0,1,,,,,,,,,0,,,75,75
5554,note_on,4,0,1,,,,,,,,,0,,,75,0
5580,note_on,540,0,4,,,,,,,,,3,,,44,62
5580,note_on,0,0,4,,,,,,,,,3,,,47,62
5580,note_on,60,0,2,,,,,,,,,1,,,70,0
5580,note_on,0,0,2,,,,,,,,,1,,,68,75
5580,note_on,54,0,3,,,,,,,,,2,,,56,101
5610,note_on,56,0,1,,,,,,,,,0,,,80,75
5614,note_on,4,0,1,,,,,,,,,0,,,80,0
5640,note_on,26,0,1,,,,,,,,,0,,,80,75
5670,note_on,0,0,1,,,,,,,,,0,,,75,75
5670,note_on,30,0,1,,,,,,,,,0,,,80,0
5674,note_on,4,0,1,,,,,,,,,0,,,75,0
5700,note_on,120,0,2,,,,,,,,,1,,,68,0
5700,note_on,26,0,1,,,,,,,,,0,,,75,75
5730,note_on,0,0,1,,,,,,,,,0,,,71,75
5730,note_on,30,0,1,,,,,,,,,0,,,75,0
5734,note_on,4,0,1,,,,,,,,,0,,,71,0
5740,note_on,160,0,3,,,,,,,,,2,,,47,101
5750,note_on,10,0,3,,,,,,,,,2,,,51,101
5760,note_on,180,0,4,,,,,,,,,3,,,47,0
5760,note_on,0,0,4,,,,,,,,,3,,,44,0
5760,note_on,60,0,2,,,,,,,,,1,,,66,62
5760,note_on,10,0,3,,,,,,,,,2,,,56,0
5760,note_on,0,0,3,,,,,,,,,2,,,54,88
5790,note_on,30,0,3,,,,,,,,,2,,,54,0
5790,note_on,0,0,3,,,,,,,,,2,,,63,88
5790,note_on,0,0,3,,,,,,,,,2,,,51,0
5790,note_on,0,0,3,,,,,,,,,2,,,47,0
5790,note_on,56,0,1,,,,,,,,,0,,,78,62
5794,note_on,4,0,1,,,,,,,,,0,,,78,0
5820,note_on,0,0,2,,,,,,,,,1,,,66,75
5820,note_on,26,0,1,,,,,,,,,0,,,78,75
5820,note_on,60,0,2,,,,,,,,,1,,,66,0
5820,note_on,0,0,3,,,,,,,,,2,,,63,88
5820,note_on,30,0,3,,,,,,,,,2,,,63,0
5850,note_on,30,0,1,,,,,,,,,0,,,78,0
5850,note_on,0,0,1,,,,,,,,,0,,,76,75
5850,note_on,0,0,3,,,,,,,,,2,,,61,88
5850,note_on,30,0,3,,,,,,,,,2,,,63,0
5854,note_on,4,0,1,,,,,,,,,0,,,76,0
5880,note_on,26,0,1,,,,,,,,,0,,,76,88
5880,note_on,0,0,3,,,,,,,,,2,,,61,101
5880,note_on,0,0,2,,,,,,,,,1,,,66,88
5880,note_on,30,0,3,,,,,,,,,2,,,61,0
5880,note_on,60,0,2,,,,,,,,,1,,,66,0
5910,note_on,30,0,3,,,,,,,,,2,,,61,0
5910,note_on,0,0,3,,,,,,,,,2,,,59,101
5910,note_on,30,0,1,,,,,,,,,0,,,76,0
5910,note_on,0,0,1,,,,,,,,,0,,,75,88
5914,note_on,4,0,1,,,,,,,,,0,,,75,0
5940,note_on,0,0,3,,,,,,,,,2,,,54,101
5940,note_on,30,0,3,,,,,,,,,2,,,59,0
5940,note_on,0,0,3,,,,,,,,,2,,,51,101
5940,note_on,60,0,2,,,,,,,,,1,,,66,0
5940,note_on,26,0,1,,,,,,,,,0,,,75,88
5940,note_on,0,0,3,,,,,,,,,2,,,59,101
5940,note_on,0,0,2,,,,,,,,,1,,,63,88
5940,note_on,0,0,2,,,,,,,,,1,,,66,88
5970,note_on,30,0,1,,,,,,,,,0,,,75,0
5970,note_on,0,0,1,,,,,,,,,0,,,73,88
5974,note_on,4,0,1,,,,,,,,,0,,,73,0
6000,note_on,26,0,1,,,,,,,,,0,,,73,75
6030,note_on,0,0,1,,,,,,,,,0,,,71,75
6030,note_on,0,0,3,,,,,,,,,2,,,51,0
6030,note_on,0,0,3,,,,,,,,,2,,,47,101
6030,note_on,90,0,3,,,,,,,,,2,,,59,0
6030,note_on,0,0,3,,,,,,,,,2,,,54,0
6030,note_on,0,0,3,,,,,,,,,2,,,51,101
6030,note_on,0,0,3,,,,,,,,,2,,,54,101
6030,note_on,30,0,1,,,,,,,,,0,,,73,0
6034,note_on,4,0,1,,,,,,,,,0,,,71,0
6034,note_on,0,0,3,,,,,,,,,2,,,47,0
6034,note_on,0,0,3,,,,,,,,,2,,,51,0
6034,note_on,4,0,3,,,,,,,,,2,,,54,0
6060,note_on,120,0,2,,,,,,,,,1,,,66,0
6060,note_on,0,0,2,,,,,,,,,1,,,63,0
6060,note_on,0,0,3,,,,,,,,,2,,,51,101
6060,note_on,26,0,1,,,,,,,,,0,,,71,62
6060,note_on,0,0,3,,,,,,,,,2,,,54,101
6060,note_on,26,0,3,,,,,,,,,2,,,47,101
6066,note_on,0,0,3,,,,,,,,,2,,,47,0
6066,note_on,0,0,3,,,,,,,,,2,,,51,0
6066,note_on,6,0,3,,,,,,,,,2,,,54,0
6090,note_on,0,0,1,,,,,,,,,0,,,66,62
6090,note_on,30,0,1,,,,,,,,,0,,,71,0
6094,note_on,4,0,1,,,,,,,,,0,,,66,0
6120,note_on,360,0,4,,,,,,,,,3,,,42,62
6120,note_on,54,0,3,,,,,,,,,2,,,54,88
6120,note_on,0,0,4,,,,,,,,,3,,,46,62
6120,note_on,60,0,2,,,,,,,,,1,,,66,62
6150,note_on,56,0,1,,,,,,,,,0,,,80,62
6150,note_on,0,0,3,,,,,,,,,2,,,64,88
6150,note_on,30,0,3,,,,,,,,,2,,,54,0
6154,note_on,4,0,1,,,,,,,,,0,,,80,0
6180,note_on,0,0,3,,,,,,,,,2,,,64,88
6180,note_on,30,0,3,,,,,,,,,2,,,64,0
6180,note_on,0,0,2,,,,,,,,,1,,,66,75
6180,note_on,60,0,2,,,,,,,,,1,,,66,0
6180,note_on,26,0,1,,,,,,,,,0,,,80,75
6210,note_on,30,0,1,,,,,,,,,0,,,80,0
6210,note_on,0,0,3,,,,,,,,,2,,,63,88
6210,note_on,0,0,1,,,,,,,,,0,,,78,75
6210,note_on,30,0,3,,,,,,,,,2,,,64,0
6214,note_on,4,0,1,,,,,,,,,0,,,78,0
6240,note_on,0,0,2,,,,,,,,,1,,,66,88
6240,note_on,120,0,4,,,,,,,,,3,,,46,0
6240,note_on,0,0,3,,,,,,,,,2,,,63,101
6240,note_on,26,0,1,,,,,,,,,0,,,78,88
6240,note_on,60,0,2,,,,,,,,,1,,,66,0
6240,note_on,30,0,3,,,,,,,,,2,,,63,0
6240,note_on,0,0,4,,,,,,,,,3,,,42,0
6270,note_on,0,0,3,,,,,,,,,2,,,61,101
6270,note_on,0,0,1,,,,,,,,,0,,,76,88
6270,note_on,30,0,1,,,,,,,,,0,,,78,0
6270,note_on,30,0,3,,,,,,,,,2,,,63,0
6274,note_on,4,0,1,,,,,,,,,0,,,76,0
6300,note_on,60,0,2,,,,,,,,,1,,,66,0
6300,note_on,60,0,4,,,,,,,,,3,,,54,62
6300,note_on,30,0,3,,,,,,,,,2,,,61,0
6300,note_on,0,0,2,,,,,,,,,1,,,66,88
6300,note_on,26,0,1,,,,,,,,,0,,,76,88
6300,note_on,0,0,3,,,,,,,,,2,,,61,101
6300,note_on,0,0,4,,,,,,,,,3,,,58,62
6330,note_on,0,0,1,,,,,,,,,0,,,75,88
6330,note_on,30,0,1,,,,,,,,,0,,,76,0
6334,note_on,4,0,1,,,,,,,,,0,,,75,0
6360,note_on,26,0,1,,,,,,,,,0,,,75,88
6390,note_on,0,0,1,,,,,,,,,0,,,73,88
6390,note_on,30,0,1,,,,,,,,,0,,,75,0
6394,note_on,4,0,1,,,,,,,,,0,,,73,0
6420,note_on,120,0,4,,,,,,,,,3,,,58,0
6420,note_on,0,0,4,,,,,,,,,3,,,42,62
6420,note_on,0,0,3,,,,,,,,,2,,,54,88
6420,note_on,26,0,1,,,,,,,,,0,,,73,62
6420,note_on,0,0,4,,,,,,,,,3,,,46,62
6420,note_on,0,0,2,,,,,,,,,1,,,64,62
6420,note_on,120,0,3,,,,,,,,,2,,,61,0
6420,note_on,120,0,2,,,,,,,,,1,,,66,0
6420,note_on,0,0,4,,,,,,,,,3,,,54,0
6450,note_on,30,0,1,,,,,,,,,0,,,73,0
6450,note_on,0,0,1,,,,,,,,,0,,,66,62
6454,note_on,4,0,1,,,,,,,,,0,,,66,0
6480,note_on,60,0,3,,,,,,,,,2,,,54,0
6480,note_on,60,0,4,,,,,,,,,3,,,46,0
6480,note_on,0,0,3,,,,,,,,,2,,,47,88
6480,note_on,0,0,3,,,,,,,,,2,,,54,88
6480,note_on,0,0,3,,,,,,,,,2,,,63,88
6480,note_on,60,0,2,,,,,,,,,1,,,64,0
6480,note_on,0,0,2,,,,,,,,,1,,,66,62
6480,note_on,0,0,4,,,,,,,,,3,,,42,0
6510,note_on,56,0,1,,,,,,,,,0,,,78,62
6514,note_on,4,0,1,,,,,,,,,0,,,78,0
6540,note_on,0,0,2,,,,,,,,,1,,,66,62
6540,note_on,26,0,1,,,,,,,,,0,,,78,62
6540,note_on,60,0,2,,,,,,,,,1,,,66,0
6570,note_on,0,0,3,,,,,,,,,2,,,59,88
6570,note_on,0,0,3,,,,,,,,,2,,,63,88
6570,note_on,0,0,3,,,,,,,,,2,,,47,0
6570,note_on,0,0,1,,,,,,,,,0,,,75,62
6570,note_on,0,0,3,,,,,,,,,2,,,54,0
6570,note_on,90,0,3,,,,,,,,,2,,,63,0
6570,note_on,30,0,1,,,,,,,,,0,,,78,0
6570,note_on,0,0,3,,,,,,,,,2,,,54,88
6574,note_on,4,0,1,,,,,,,,,0,,,75,0
6600,note_on,60,0,2,,,,,,,,,1,,,66,0
6600,note_on,30,0,3,,,,,,,,,2,,,63,0
6600,note_on,0,0,2,,,,,,,,,1,,,66,62
6600,note_on,0,0,3,,,,,,,,,2,,,54,88
6600,note_on,0,0,3,,,,,,,,,2,,,59,0
6600,note_on,0,0,3,,,,,,,,,2,,,59,88
6600,note_on,0,0,3,,,,,,,,,2,,,63,88
6600,note_on,0,0,3,,,,,,,,,2,,,54,0
6600,note_on,26,0,1,,,,,,,,,0,,,75,62
6630,note_on,30,0,1,,,,,,,,,0,,,75,0
6630,note_on,0,0,1,,,,,,,,,0,,,71,62
6634,note_on,4,0,1,,,,,,,,,0,,,71,0
6660,note_on,60,0,3,,,,,,,,,2,,,63,0
6660,note_on,0,0,3,,,,,,,,,2,,,59,88
6660,note_on,60,0,2,,,,,,,,,1,,,66,0
6660,note_on,0,0,3,,,,,,,,,2,,,56,88
6660,note_on,0,0,3,,,,,,,,,2,,,54,0
6660,note_on,0,0,2,,,,,,,,,1,,,68,62
6660,note_on,0,0,3,,,,,,,,,2,,,59,0
6660,note_on,0,0,3,,,,,,,,,2,,,63,88
6690,note_on,56,0,1,,,,,,,,,0,,,80,62
6694,note_on,4,0,1,,,,,,,,,0,,,80,0
6720,note_on,60,0,2,,,,,,,,,1,,,68,0
6720,note_on,26,0,1,,,,,,,,,0,,,80,62
6720,note_on,0,0,2,,,,,,,,,1,,,68,62
6750,note_on,0,0,3,,,,,,,,,2,,,59,0
6750,note_on,0,0,3,,,,,,,,,2,,,51,88
6750,note_on,0,0,3,,,,,,,,,2,,,56,88
6750,note_on,0,0,3,,,,,,,,,2,,,56,0
6750,note_on,0,0,3,,,,,,,,,2,,,59,88
6750,note_on,0,0,1,,,,,,,,,0,,,75,62
6750,note_on,90,0,3,,,,,,,,,2,,,63,0
6750,note_on,30,0,1,,,,,,,,,0,,,80,0
6754,note_on,4,0,3,,,,,,,,,2,,,59,0
6754,note_on,0,0,3,,,,,,,,,2,,,56,0
6754,note_on,4,0,1,,,,,,,,,0,,,75,0
6754,note_on,0,0,3,,,,,,,,,2,,,51,0
6780,note_on,0,0,3,,,,,,,,,2,,,51,88
6780,note_on,26,0,1,,,,,,,,,0,,,75,62
6780,note_on,60,0,2,,,,,,,,,1,,,68,0
6780,note_on,26,0,3,,,,,,,,,2,,,47,88
6780,note_on,0,0,3,,,,,,,,,2,,,56,88
6780,note_on,0,0,2,,,,,,,,,1,,,68,62
6786,note_on,0,0,3,,,,,,,,,2,,,51,0
6786,note_on,0,0,3,,,,,,,,,2,,,47,0
6786,note_on,6,0,3,,,,,,,,,2,,,56,0
6810,note_on,0,0,1,,,,,,,,,0,,,71,62
6810,note_on,30,0,1,,,,,,,,,0,,,75,0
6814,note_on,4,0,1,,,,,,,,,0,,,71,0
6840,note_on,60,0,2,,,,,,,,,1,,,68,0
6840,note_on,54,0,3,,,,,,,,,2,,,51,101
6840,note_on,0,0,3,,,,,,,,,2,,,58,101
6840,note_on,0,0,3,,,,,,,,,2,,,55,101
6840,note_on,0,0,2,,,,,,,,,1,,,70,75
6870,note_on,56,0,1,,,,,,,,,0,,,82,75
6874,note_on,4,0,1,,,,,,,,,0,,,82,0
6900,note_on,0,0,2,,,,,,,,,1,,,70,75
6900,note_on,26,0,1,,,,,,,,,0,,,82,75
6900,note_on,60,0,3,,,,,,,,,2,,,58,0
6900,note_on,60,0,2,,,,,,,,,1,,,70,0
6900,note_on,0,0,3,,,,,,,,,2,,,55,101
6900,note_on,0,0,3,,,,,,,,,2,,,55,0
6900,note_on,0,0,3,,,,,,,,,2,,,58,101
6900,note_on,0,0,3,,,,,,,,,2,,,63,101
6900,note_on,0,0,3,,,,,,,,,2,,,51,0
6930,note_on,30,0,1,,,,,,,,,0,,,82,0
6930,note_on,0,0,1,,,,,,,,,0,,,79,75
6934,note_on,4,0,1,,,,,,,,,0,,,79,0
6960,note_on,0,0,2,,,,,,,,,1,,,70,75
6960,note_on,60,0,3,,,,,,,,,2,,,63,0
6960,note_on,60,0,2,,,,,,,,,1,,,70,0
6960,note_on,26,0,1,,,,,,,,,0,,,79,75
6960,note_on,0,0,3,,,,,,,,,2,,,58,0
6960,note_on,0,0,3,,,,,,,,,2,,,51,101
6960,note_on,0,0,3,,,,,,,,,2,,,55,101
6960,note_on,0,0,3,,,,,,,,,2,,,55,0
6966,note_on,0,0,3,,,,,,,,,2,,,51,0
6966,note_on,6,0,3,,,,,,,,,2,,,55,0
6990,note_on,30,0,1,,,,,,,,,0,,,79,0
6990,note_on,0,0,1,,,,,,,,,0,,,75,75
6994,note_on,4,0,1,,,,,,,,,0,,,75,0
7020,note_on,540,0,4,,,,,,,,,3,,,44,62
7020,note_on,0,0,3,,,,,,,,,2,,,56,101
7020,note_on,0,0,3,,,,,,,,,2,,,47,101
7020,note_on,0,0,2,,,,,,,,,1,,,68,75
7020,note_on,60,0,2,,,,,,,,,1,,,70,0
7020,note_on,54,0,3,,,,,,,,,2,,,44,101
7020,note_on,0,0,4,,,,,,,,,3,,,47,62
7050,note_on,56,0,1,,,,,,,,,0,,,80,75
7054,note_on,4,0,1,,,,,,,,,0,,,80,0
7080,note_on,26,0,1,,,,,,,,,0,,,80,75
7110,note_on,0,0,1,,,,,,,,,0,,,75,75
7110,note_on,30,0,1,,,,,,,,,0,,,80,0
7114,note_on,4,0,1,,,,,,,,,0,,,75,0
7140,note_on,0,0,3,,,,,,,,,2,,,44,0
7140,note_on,120,0,3,,,,,,,,,2,,,56,0
7140,note_on,120,0,2,,,,,,,,,1,,,68,0
7140,note_on,0,0,3,,,,,,,,,2,,,47,0
7140,note_on,26,0,1,,,,,,,,,0,,,75,75
7170,note_on,0,0,1,,,,,,,,,0,,,71,75
7170,note_on,30,0,1,,,,,,,,,0,,,75,0
7174,note_on,4,0,1,,,,,,,,,0,,,71,0
7200,note_on,0,0,1,,,,,,,,,0,,,69,49
7200,control_change,26,0,1,,,,,,,,,0,64,127,,
7200,control_change,60,0,3,,,,,,,,,2,64,127,,
7200,note_on,0,0,3,,,,,,,,,2,,,48,49
7200,note_on,0,0,4,,,,,,,,,3,,,44,0
7200,note_on,180,0,4,,,,,,,,,3,,,47,0
7230,note_on,30,0,1,,,,,,,,,0,,,69,0
7230,note_on,0,0,1,,,,,,,,,0,,,78,49
7234,note_on,4,0,1,,,,,,,,,0,,,78,0
7260,note_on,60,0,3,,,,,,,,,2,,,48,0
7260,note_on,26,0,1,,,,,,,,,0,,,78,62
7260,note_on,0,0,3,,,,,,,,,2,,,57,62
7260,note_on,0,0,3,,,,,,,,,2,,,63,62
7260,note_on,0,0,3,,,,,,,,,2,,,66,62
7290,note_on,30,0,1,,,,,,,,,0,,,78,0
7290,note_on,0,0,1,,,,,,,,,0,,,76,62
7294,note_on,4,0,1,,,,,,,,,0,,,76,0
7320,note_on,0,0,3,,,,,,,,,2,,,57,0
7320,note_on,0,0,3,,,,,,,,,2,,,63,75
7320,note_on,0,0,3,,,,,,,,,2,,,66,75
7320,note_on,26,0,1,,,,,,,,,0,,,76,75
7320,note_on,60,0,3,,,,,,,,,2,,,66,0
7320,note_on,0,0,3,,,,,,,,,2,,,57,75
7320,note_on,0,0,3,,,,,,,,,2,,,63,0
7350,note_on,0,0,1,,,,,,,,,0,,,75,75
7350,note_on,30,0,1,,,,,,,,,0,,,76,0
7354,note_on,4,0,1,,,,,,,,,0,,,75,0
7380,note_on,60,0,3,,,,,,,,,2,,,66,0
7380,note_on,0,0,3,,,,,,,,,2,,,66,75
7380,note_on,0,0,3,,,,,,,,,2,,,63,0
7380,note_on,0,0,3,,,,,,,,,2,,,57,75
7380,note_on,0,0,3,,,,,,,,,2,,,63,75
7380,note_on,0,0,3,,,,,,,,,2,,,57,0
7380,note_on,26,0,1,,,,,,,,,0,,,75,75
7410,note_on,0,0,1,,,,,,,,,0,,,74,75
7410,note_on,30,0,1,,,,,,,,,0,,,75,0
7414,note_on,4,0,1,,,,,,,,,0,,,74,0
7440,note_on,60,0,3,,,,,,,,,2,,,66,0
7440,note_on,0,0,3,,,,,,,,,2,,,57,0
7440,note_on,0,0,3,,,,,,,,,2,,,57,62
7440,note_on,0,0,3,,,,,,,,,2,,,63,0
7440,note_on,0,0,3,,,,,,,,,2,,,63,62
7440,note_on,0,0,3,,,,,,,,,2,,,66,62
7440,note_on,26,0,1,,,,,,,,,0,,,74,62
7470,note_on,30,0,1,,,,,,,,,0,,,74,0
7470,note_on,0,0,1,,,,,,,,,0,,,75,62
7474,note_on,4,0,1,,,,,,,,,0,,,75,0
7500,note_on,0,0,3,,,,,,,,,2,,,57,0
7500,note_on,0,0,3,,,,,,,,,2,,,66,49
7500,note_on,0,0,3,,,,,,,,,2,,,63,0
7500,note_on,0,0,3,,,,,,,,,2,,,57,49
7500,note_on,26,0,1,,,,,,,,,0,,,75,49
7500,note_on,60,0,3,,,,,,,,,2,,,66,0
7500,note_on,0,0,3,,,,,,,,,2,,,63,49
7500,control_change,0,0,3,,,,,,,,,2,64,0,,
7530,note_on,30,0,1,,,,,,,,,0,,,75,0
7530,note_on,0,0,1,,,,,,,,,0,,,69,49
7530,control_change,0,0,1,,,,,,,,,0,64,0,,
7534,note_on,4,0,1,,,,,,,,,0,,,69,0
7560,note_on,26,0,1,,,,,,,,,0,,,69,49
7560,note_on,60,0,3,,,,,,,,,2,,,66,0
7560,note_on,0,0,4,,,,,,,,,3,,,54,49
7560,note_on,420,0,2,,,,,,,,,1,,,66,49
7560,note_on,360,0,4,,,,,,,,,3,,,48,49
7560,note_on,0,0,3,,,,,,,,,2,,,63,0
7560,note_on,0,0,3,,,,,,,,,2,,,63,101
7560,note_on,0,0,4,,,,,,,,,3,,,57,49
7560,note_on,0,0,3,,,,,,,,,2,,,57,0
7569,note_on,9,0,3,,,,,,,,,2,,,63,0
7590,note_on,0,0,1,,,,,,,,,0,,,78,49
7590,note_on,30,0,1,,,,,,,,,0,,,69,0
7594,note_on,4,0,1,,,,,,,,,0,,,78,0
7620,note_on,60,0,2,,,,,,,,,1,,,66,0
7620,note_on,26,0,1,,,,,,,,,0,,,78,49
7650,note_on,30,0,1,,,,,,,,,0,,,78,0
7650,note_on,81,0,3,,,,,,,,,2,,,64,75
7650,note_on,0,0,1,,,,,,,,,0,,,76,49
7654,note_on,4,0,3,,,,,,,,,2,,,64,0
7654,note_on,4,0,1,,,,,,,,,0,,,76,0
7680,note_on,0,0,4,,,,,,,,,3,,,54,0
7680,note_on,0,0,4,,,,,,,,,3,,,48,0
7680,note_on,120,0,4,,,,,,,,,3,,,57,0
7680,note_on,26,0,3,,,,,,,,,2,,,63,75
7680,note_on,26,0,1,,,,,,,,,0,,,76,49
7686,note_on,6,0,3,,,,,,,,,2,,,63,0
7710,note_on,0,0,1,,,,,,,,,0,,,75,49
7710,note_on,30,0,1,,,,,,,,,0,,,76,0
7714,note_on,4,0,1,,,,,,,,,0,,,75,0
7740,note_on,26,0,1,,,,,,,,,0,,,75,49
7740,note_on,54,0,3,,,,,,,,,2,,,66,75
7749,note_on,9,0,3,,,,,,,,,2,,,66,0
7770,note_on,30,0,1,,,,,,,,,0,,,75,0
7770,note_on,0,0,1,,,,,,,,,0,,,74,49
7774,note_on,4,0,1,,,,,,,,,0,,,74,0
7800,note_on,26,0,1,,,,,,,,,0,,,74,49
7830,note_on,30,0,1,,,,,,,,,0,,,74,0
7830,note_on,81,0,3,,,,,,,,,2,,,64,75
7830,note_on,0,0,1,,,,,,,,,0,,,75,49
7834,note_on,4,0,1,,,,,,,,,0,,,75,0
7834,note_on,4,0,3,,,,,,,,,2,,,64,0
7860,note_on,26,0,3,,,,,,,,,2,,,63,75
7860,note_on,26,0,1,,,,,,,,,0,,,75,49
7866,note_on,6,0,3,,,,,,,,,2,,,63,0
7890,note_on,0,0,1,,,,,,,,,0,,,69,49
7890,note_on,30,0,1,,,,,,,,,0,,,75,0
7894,note_on,4,0,1,,,,,,,,,0,,,69,0
7920,note_on,26,0,1,,,,,,,,,0,,,69,49
7920,note_on,240,0,4,,,,,,,,,3,,,48,49
7920,note_on,54,0,3,,,,,,,,,2,,,63,75
7920,note_on,300,0,2,,,,,,,,,1,,,66,49
7920,note_on,0,0,4,,,,,,,,,3,,,57,49
7920,note_on,0,0,4,,,,,,,,,3,,,54,49
7929,note_on,9,0,3,,,,,,,,,2,,,63,0
7950,note_on,0,0,1,,,,,,,,,0,,,78,49
7950,note_on,30,0,1,,,,,,,,,0,,,69,0
7954,note_on,4,0,1,,,,,,,,,0,,,78,0
7980,note_on,26,0,1,,,,,,,,,0,,,78,62
8010,note_on,0,0,1,,,,,,,,,0,,,76,62
8010,note_on,30,0,1,,,,,,,,,0,,,78,0
8010,note_on,81,0,3,,,,,,,,,2,,,61,75
8014,note_on,4,0,3,,,,,,,,,2,,,61,0
8014,note_on,4,0,1,,,,,,,,,0,,,76,0
8040,note_on,0,0,4,,,,,,,,,3,,,48,0
8040,note_on,120,0,2,,,,,,,,,1,,,66,0
8040,note_on,0,0,4,,,,,,,,,3,,,54,0
8040,note_on,120,0,4,,,,,,,,,3,,,57,0
8040,note_on,26,0,3,,,,,,,,,2,,,63,75
8040,note_on,26,0,1,,,,,,,,,0,,,76,75
8046,note_on,6,0,3,,,,,,,,,2,,,63,0
8070,note_on,30,0,1,,,,,,,,,0,,,76,0
8070,note_on,0,0,1,,,,,,,,,0,,,75,75
8074,note_on,4,0,1,,,,,,,,,0,,,75,0
8100,note_on,54,0,3,,,,,,,,,2,,,64,75
8100,note_on,0,0,4,,,,,,,,,3,,,56,49
8100,note_on,26,0,1,,,,,,,,,0,,,68,49
8100,note_on,60,0,4,,,,,,,,,3,,,49,49
8130,note_on,0,0,1,,,,,,,,,0,,,76,49
8130,note_on,30,0,1,,,,,,,,,0,,,68,0
8134,note_on,4,0,1,,,,,,,,,0,,,76,0
8160,note_on,26,0,1,,,,,,,,,0,,,76,49
8190,note_on,30,0,1,,,,,,,,,0,,,76,0
8190,note_on,0,0,1,,,,,,,,,0,,,75,49
8194,note_on,4,0,1,,,,,,,,,0,,,75,0
8220,note_on,26,0,1,,,,,,,,,0,,,75,49
8220,note_on,0,0,4,,,,,,,,,3,,,49,0
8220,note_on,120,0,4,,,,,,,,,3,,,56,0
8220,note_on,0,0,3,,,,,,,,,2,,,61,75
8220,note_on,120,0,3,,,,,,,,,2,,,64,0
8250,note_on,30,0,1,,,,,,,,,0,,,75,0
8250,note_on,0,0,1,,,,,,,,,0,,,73,49
8254,note_on,4,0,1,,,,,,,,,0,,,73,0
8280,note_on,240,0,2,,,,,,,,,1,,,64,49
8280,note_on,0,0,3,,,,,,,,,2,,,52,75
8280,note_on,0,0,3,,,,,,,,,2,,,61,75
8280,note_on,0,0,3,,,,,,,,,2,,,56,75
8280,note_on,60,0,3,,,,,,,,,2,,,61,0
8280,note_on,26,0,1,,,,,,,,,0,,,68,49
8310,note_on,30,0,1,,,,,,,,,0,,,68,0
8310,note_on,0,0,1,,,,,,,,,0,,,76,49
8314,note_on,4,0,1,,,,,,,,,0,,,76,0
8340,note_on,0,0,2,,,,,,,,,1,,,68,49
8340,note_on,26,0,1,,,,,,,,,0,,,76,49
8340,note_on,60,0,2,,,,,,,,,1,,,64,0
8370,note_on,0,0,3,,,,,,,,,2,,,56,75
8370,note_on,0,0,3,,,,,,,,,2,,,56,0
8370,note_on,0,0,1,,,,,,,,,0,,,75,49
8370,note_on,0,0,3,,,,,,,,,2,,,49,75
8370,note_on,0,0,3,,,,,,,,,2,,,52,0
8370,note_on,0,0,3,,,,,,,,,2,,,52,75
8370,note_on,90,0,3,,,,,,,,,2,,,61,0
8370,note_on,30,0,1,,,,,,,,,0,,,76,0
8374,note_on,4,0,3,,,,,,,,,2,,,56,0
8374,note_on,4,0,1,,,,,,,,,0,,,75,0
8374,note_on,0,0,3,,,,,,,,,2,,,49,0
8374,note_on,0,0,3,,,,,,,,,2,,,52,0
8400,note_on,60,0,2,,,,,,,,,1,,,68,0
8400,note_on,26,0,1,,,,,,,,,0,,,75,49
8400,note_on,0,0,2,,,,,,,,,1,,,68,49
8400,note_on,26,0,3,,,,,,,,,2,,,49,75
8400,note_on,0,0,3,,,,,,,,,2,,,56,75
8400,note_on,0,0,3,,,,,,,,,2,,,52,75
8406,note_on,0,0,3,,,,,,,,,2,,,52,0
8406,note_on,6,0,3,,,,,,,,,2,,,56,0
8406,note_on,0,0,3,,,,,,,,,2,,,49,0
8430,note_on,0,0,1,,,,,,,,,0,,,73,49
8430,note_on,30,0,1,,,,,,,,,0,,,75,0
8434,note_on,4,0,1,,,,,,,,,0,,,73,0
8460,note_on,0,0,3,,,,,,,,,2,,,64,75
8460,note_on,54,0,3,,,,,,,,,2,,,56,75
8460,note_on,0,0,2,,,,,,,,,1,,,68,49
8460,note_on,0,0,3,,,,,,,,,2,,,61,75
8460,note_on,60,0,2,,,,,,,,,1,,,68,0
8490,note_on,56,0,1,,,,,,,,,0,,,80,49
8494,note_on,4,0,1,,,,,,,,,0,,,80,0
8520,note_on,0,0,2,,,,,,,,,1,,,68,49
8520,note_on,60,0,2,,,,,,,,,1,,,68,0
8520,note_on,26,0,1,,,,,,,,,0,,,80,49
8550,note_on,0,0,3,,,,,,,,,2,,,63,75
8550,note_on,0,0,3,,,,,,,,,2,,,61,0
8550,note_on,0,0,3,,,,,,,,,2,,,56,75
8550,note_on,0,0,1,,,,,,,,,0,,,78,49
8550,note_on,30,0,1,,,,,,,,,0,,,80,0
8550,note_on,90,0,3,,,,,,,,,2,,,64,0
8550,note_on,0,0,3,,,,,,,,,2,,,56,0
8554,note_on,4,0,1,,,,,,,,,0,,,78,0
8554,note_on,4,0,3,,,,,,,,,2,,,63,0
8554,note_on,0,0,3,,,,,,,,,2,,,56,0
8580,note_on,60,0,2,,,,,,,,,1,,,68,0
8580,note_on,26,0,1,,,,,,,,,0,,,78,49
8580,note_on,0,0,3,,,,,,,,,2,,,61,75
8580,note_on,26,0,3,,,,,,,,,2,,,49,75
8580,note_on,0,0,2,,,,,,,,,1,,,68,49
8586,note_on,0,0,3,,,,,,,,,2,,,49,0
8586,note_on,6,0,3,,,,,,,,,2,,,61,0
8610,note_on,30,0,1,,,,,,,,,0,,,78,0
8610,note_on,0,0,1,,,,,,,,,0,,,76,49
8614,note_on,4,0,1,,,,,,,,,0,,,76,0
8640,note_on,60,0,2,,,,,,,,,1,,,68,0
8640,note_on,0,0,3,,,,,,,,,2,,,61,75
8640,note_on,0,0,3,,,,,,,,,2,,,55,75
8640,note_on,0,0,2,,,,,,,,,1,,,63,49
8640,note_on,54,0,3,,,,,,,,,2,,,51,75
8670,note_on,56,0,1,,,,,,,,,0,,,76,49
8674,note_on,4,0,1,,,,,,,,,0,,,76,0
8700,note_on,60,0,2,,,,,,,,,1,,,63,0
8700,note_on,0,0,2,,,,,,,,,1,,,63,49
8700,note_on,26,0,1,,,,,,,,,0,,,76,49
8730,note_on,0,0,3,,,,,,,,,2,,,51,0
8730,note_on,30,0,1,,,,,,,,,0,,,76,0
8730,note_on,0,0,1,,,,,,,,,0,,,75,49
8730,note_on,0,0,3,,,,,,,,,2,,,59,75
8730,note_on,0,0,3,,,,,,,,,2,,,55,75
8730,note_on,0,0,3,,,,,,,,,2,,,55,0
8730,note_on,90,0,3,,,,,,,,,2,,,61,0
8730,note_on,0,0,3,,,,,,,,,2,,,51,75
8734,note_on,4,0,1,,,,,,,,,0,,,75,0
8734,note_on,0,0,3,,,,,,,,,2,,,51,0
8734,note_on,0,0,3,,,,,,,,,2,,,55,0
8734,note_on,4,0,3,,,,,,,,,2,,,59,0
8760,note_on,26,0,3,,,,,,,,,2,,,51,75
8760,note_on,0,0,3,,,,,,,,,2,,,58,75
8760,note_on,26,0,1,,,,,,,,,0,,,75,49
8760,note_on,60,0,2,,,,,,,,,1,,,63,0
8760,note_on,0,0,2,,,,,,,,,1,,,63,49
8760,note_on,0,0,3,,,,,,,,,2,,,55,75
8766,note_on,0,0,3,,,,,,,,,2,,,55,0
8766,note_on,0,0,3,,,,,,,,,2,,,51,0
8766,note_on,6,0,3,,,,,,,,,2,,,58,0
8790,note_on,30,0,1,,,,,,,,,0,,,75,0
8790,note_on,0,0,1,,,,,,,,,0,,,73,49
8794,note_on,4,0,1,,,,,,,,,0,,,73,0
8820,note_on,60,0,2,,,,,,,,,1,,,63,0
8820,note_on,54,0,3,,,,,,,,,2,,,44,75
8820,note_on,0,0,3,,,,,,,,,2,,,56,75
8820,note_on,0,0,2,,,,,,,,,1,,,59,49
8820,note_on,26,0,1,,,,,,,,,0,,,63,49
8820,note_on,0,0,3,,,,,,,,,2,,,51,75
8850,note_on,30,0,1,,,,,,,,,0,,,63,0
8850,note_on,0,0,1,,,,,,,,,0,,,71,49
8854,note_on,4,0,1,,,,,,,,,0,,,71,0
8880,note_on,26,0,1,,,,,,,,,0,,,71,49
8910,note_on,0,0,1,,,,,,,,,0,,,70,49
8910,note_on,30,0,1,,,,,,,,,0,,,71,0
8914,note_on,4,0,1,,,,,,,,,0,,,70,0
8940,note_on,26,0,1,,,,,,,,,0,,,70,49
8940,note_on,0,0,3,,,,,,,,,2,,,51,0
8940,note_on,0,0,3,,,,,,,,,2,,,44,0
8940,note_on,120,0,2,,,,,,,,,1,,,59,0
8940,note_on,120,0,3,,,,,,,,,2,,,56,0
8970,note_on,0,0,1,,,,,,,,,0,,,68,49
8970,note_on,30,0,1,,,,,,,,,0,,,70,0
8974,note_on,4,0,1,,,,,,,,,0,,,68,0
9000,note_on,60,0,3,,,,,,,,,2,,,63,101
9000,note_on,780,0,4,,,,,,,,,3,,,39,49
9030,note_on,56,0,1,,,,,,,,,0,,,73,49
9034,note_on,4,0,1,,,,,,,,,0,,,73,0
9060,note_on,0,0,4,,,,,,,,,3,,,61,49
9060,note_on,0,0,4,,,,,,,,,3,,,55,49
9060,note_on,60,0,4,,,,,,,,,3,,,39,0
9060,note_on,26,0,1,,,,,,,,,0,,,73,49
9060,note_on,0,0,4,,,,,,,,,3,,,51,49
9090,note_on,0,0,1,,,,,,,,,0,,,71,49
9090,note_on,30,0,1,,,,,,,,,0,,,73,0
9094,note_on,4,0,1,,,,,,,,,0,,,71,0
9120,note_on,0,0,4,,,,,,,,,3,,,51,0
9120,note_on,0,0,4,,,,,,,,,3,,,61,49
9120,note_on,26,0,1,,,,,,,,,0,,,71,49
9120,note_on,60,0,4,,,,,,,,,3,,,61,0
9120,note_on,0,0,4,,,,,,,,,3,,,55,0
9120,note_on,0,0,4,,,,,,,,,3,,,55,49
9120,note_on,0,0,4,,,,,,,,,3,,,51,49
9150,note_on,30,0,1,,,,,,,,,0,,,71,0
9150,note_on,0,0,1,,,,,,,,,0,,,70,49
9154,note_on,4,0,1,,,,,,,,,0,,,70,0
9180,note_on,0,0,4,,,,,,,,,3,,,55,0
9180,note_on,0,0,4,,,,,,,,,3,,,51,0
9180,note_on,60,0,4,,,,,,,,,3,,,61,0
9180,note_on,26,0,1,,,,,,,,,0,,,63,49
9180,note_on,0,0,4,,,,,,,,,3,,,44,49
9210,note_on,30,0,1,,,,,,,,,0,,,63,0
9210,note_on,0,0,1,,,,,,,,,0,,,71,49
9214,note_on,4,0,1,,,,,,,,,0,,,71,0
9240,note_on,0,0,4,,,,,,,,,3,,,51,49
9240,note_on,60,0,4,,,,,,,,,3,,,44,0
9240,note_on,0,0,4,,,,,,,,,3,,,56,49
9240,note_on,0,0,4,,,,,,,,,3,,,59,49
9240,note_on,26,0,1,,,,,,,,,0,,,71,49
9270,note_on,30,0,1,,,,,,,,,0,,,71,0
9270,note_on,0,0,1,,,,,,,,,0,,,70,49
9274,note_on,4,0,1,,,,,,,,,0,,,70,0
9300,note_on,26,0,1,,,,,,,,,0,,,70,49
9300,note_on,60,0,4,,,,,,,,,3,,,59,0
9300,note_on,0,0,4,,,,,,,,,3,,,56,0
9300,note_on,0,0,4,,,,,,,,,3,,,51,49
9300,note_on,0,0,4,,,,,,,,,3,,,51,0
9300,note_on,0,0,4,,,,,,,,,3,,,56,49
9300,note_on,0,0,4,,,,,,,,,3,,,59,49
9330,note_on,0,0,1,,,,,,,,,0,,,68,49
9330,note_on,30,0,1,,,,,,,,,0,,,70,0
9334,note_on,4,0,1,,,,,,,,,0,,,68,0
9360,note_on,0,0,3,,,,,,,,,2,,,63,101
9360,note_on,0,0,4,,,,,,,,,3,,,39,49
9360,note_on,60,0,4,,,,,,,,,3,,,59,0
9360,note_on,360,0,3,,,,,,,,,2,,,63,0
9360,note_on,0,0,4,,,,,,,,,3,,,56,0
9360,note_on,0,0,4,,,,,,,,,3,,,51,0
9390,note_on,56,0,1,,,,,,,,,0,,,73,49
9394,note_on,4,0,1,,,,,,,,,0,,,73,0
9420,note_on,0,0,4,,,,,,,,,3,,,55,49
9420,note_on,0,0,4,,,,,,,,,3,,,51,49
9420,note_on,26,0,1,,,,,,,,,0,,,73,49
9420,note_on,60,0,4,,,,,,,,,3,,,39,0
9420,note_on,0,0,4,,,,,,,,,3,,,61,49
9450,note_on,0,0,1,,,,,,,,,0,,,72,49
9450,note_on,30,0,1,,,,,,,,,0,,,73,0
9454,note_on,4,0,1,,,,,,,,,0,,,72,0
9480,note_on,0,0,4,,,,,,,,,3,,,55,0
9480,note_on,0,0,4,,,,,,,,,3,,,51,49
9480,note_on,0,0,4,,,,,,,,,3,,,51,0
9480,note_on,0,0,4,,,,,,,,,3,,,61,49
9480,note_on,60,0,4,,,,,,,,,3,,,61,0
9480,note_on,0,0,4,,,,,,,,,3,,,55,49
9480,note_on,26,0,1,,,,,,,,,0,,,72,49
9510,note_on,0,0,1,,,,,,,,,0,,,70,49
9510,note_on,30,0,1,,,,,,,,,0,,,72,0
9514,note_on,4,0,1,,,,,,,,,0,,,70,0
9540,note_on,0,0,3,,,,,,,,,2,,,63,114
9540,note_on,0,0,4,,,,,,,,,3,,,55,0
9540,note_on,0,0,4,,,,,,,,,3,,,51,0
9540,note_on,60,0,4,,,,,,,,,3,,,61,0
9540,note_on,180,0,3,,,,,,,,,2,,,63,0
9540,note_on,0,0,4,,,,,,,,,3,,,44,62
9570,note_on,56,0,1,,,,,,,,,0,,,72,62
9574,note_on,4,0,1,,,,,,,,,0,,,72,0
9600,note_on,26,0,1,,,,,,,,,0,,,72,62
9600,note_on,0,0,4,,,,,,,,,3,,,51,62
9600,note_on,0,0,4,,,,,,,,,3,,,56,62
9600,note_on,0,0,4,,,,,,,,,3,,,60,62
9600,note_on,60,0,4,,,,,,,,,3,,,44,0
9630,note_on,0,0,1,,,,,,,,,0,,,70,62
9630,note_on,30,0,1,,,,,,,,,0,,,72,0
9630,note_on,0,0,3,,,,,,,,,2,,,61,88
9630,note_on,90,0,3,,,,,,,,,2,,,63,0
9634,note_on,4,0,3,,,,,,,,,2,,,61,0
9634,note_on,4,0,1,,,,,,,,,0,,,70,0
9660,note_on,0,0,4,,,,,,,,,3,,,51,0
9660,note_on,0,0,4,,,,,,,,,3,,,51,62
9660,note_on,0,0,4,,,,,,,,,3,,,56,0
9660,note_on,0,0,4,,,,,,,,,3,,,56,62
9660,note_on,26,0,3,,,,,,,,,2,,,60,88
9660,note_on,60,0,4,,,,,,,,,3,,,60,0
9660,note_on,26,0,1,,,,,,,,,0,,,70,62
9666,note_on,6,0,3,,,,,,,,,2,,,60,0
9690,note_on,30,0,1,,,,,,,,,0,,,70,0
9690,note_on,0,0,1,,,,,,,,,0,,,68,62
9694,note_on,4,0,1,,,,,,,,,0,,,68,0
9720,note_on,0,0,4,,,,,,,,,3,,,37,75
9720,note_on,60,0,4,,,,,,,,,3,,,56,0
9720,note_on,0,0,4,,,,,,,,,3,,,51,0
9720,note_on,54,0,3,,,,,,,,,2,,,65,101
9750,note_on,56,0,1,,,,,,,,,0,,,73,75
9754,note_on,4,0,1,,,,,,,,,0,,,73,0
9780,note_on,26,0,1,,,,,,,,,0,,,73,75
9780,note_on,0,0,4,,,,,,,,,3,,,58,75
9780,note_on,60,0,4,,,,,,,,,3,,,37,0
9780,note_on,0,0,4,,,,,,,,,3,,,61,75
9780,note_on,0,0,4,,,,,,,,,3,,,53,75
9810,note_on,0,0,1,,,,,,,,,0,,,72,75
9810,note_on,0,0,3,,,,,,,,,2,,,63,101
9810,note_on,90,0,3,,,,,,,,,2,,,65,0
9810,note_on,30,0,1,,,,,,,,,0,,,73,0
9814,note_on,4,0,3,,,,,,,,,2,,,63,0
9814,note_on,4,0,1,,,,,,,,,0,,,72,0
9840,note_on,26,0,1,,,,,,,,,0,,,72,75
9840,note_on,0,0,4,,,,,,,,,3,,,53,0
9840,note_on,26,0,3,,,,,,,,,2,,,61,101
9840,note_on,0,0,4,,,,,,,,,3,,,53,75
9840,note_on,0,0,4,,,,,,,,,3,,,58,0
9840,note_on,0,0,4,,,,,,,,,3,,,58,75
9840,note_on,60,0,4,,,,,,,,,3,,,61,0
9846,note_on,6,0,3,,,,,,,,,2,,,61,0
9870,note_on,30,0,1,,,,,,,,,0,,,72,0
9870,note_on,0,0,1,,,,,,,,,0,,,70,75
9874,note_on,4,0,1,,,,,,,,,0,,,70,0
9900,note_on,60,0,4,,,,,,,,,3,,,58,0
9900,note_on,0,0,4,,,,,,,,,3,,,51,75
9900,note_on,54,0,3,,,,,,,,,2,,,61,101
9900,note_on,26,0,1,,,,,,,,,0,,,67,75
9900,note_on,0,0,4,,,,,,,,,3,,,53,0
9930,note_on,30,0,1,,,,,,,,,0,,,67,0
9930,note_on,0,0,1,,,,,,,,,0,,,77,75
9934,note_on,4,0,1,,,,,,,,,0,,,77,0
9960,note_on,60,0,4,,,,,,,,,3,,,51,0
9960,note_on,0,0,4,,,,,,,,,3,,,39,75
9960,note_on,26,0,1,,,,,,,,,0,,,77,75
9990,note_on,0,0,1,,,,,,,,,0,,,75,75
9990,note_on,0,0,3,,,,,,,,,2,,,60,101
9990,note_on,30,0,1,,,,,,,,,0,,,77,0
9990,note_on,90,0,3,,,,,,,,,2,,,61,0
9994,note_on,4,0,3,,,,,,,,,2,,,60,0
9994,note_on,4,0,1,,,,,,,,,0,,,75,0
10020,note_on,1080,0,2,,,,,,,,,1,,,67,75
10020,note_on,26,0,1,,,,,,,,,0,,,75,75
10020,note_on,0,0,4,,,,,,,,,3,,,51,75
10020,note_on,26,0,3,,,,,,,,,2,,,58,101
10020,note_on,60,0,4,,,,,,,,,3,,,39,0
10026,note_on,6,0,3,,,,,,,,,2,,,58,0
10050,note_on,30,0,1,,,,,,,,,0,,,75,0
10050,note_on,0,0,1,,,,,,,,,0,,,73,75
10054,note_on,4,0,1,,,,,,,,,0,,,73,0
10080,note_on,0,0,2,,,,,,,,,1,,,72,88
10080,control_change,0,0,2,,,,,,,,,1,64,127,,
10080,note_on,60,0,2,,,,,,,,,1,,,67,0
10080,note_on,0,0,3,,,,,,,,,2,,,44,75
10080,note_on,0,0,3,,,,,,,,,2,,,32,75
10080,control_change,26,0,1,,,,,,,,,0,64,127,,
10080,control_change,54,0,3,,,,,,,,,2,64,127,,
10080,note_on,60,0,4,,,,,,,,,3,,,51,0
10110,note_on,30,0,1,,,,,,,,,0,,,84,88
10114,note_on,4,0,1,,,,,,,,,0,,,84,0
10140,note_on,60,0,3,,,,,,,,,2,,,44,0
10140,note_on,26,0,1,,,,,,,,,0,,,84,88
10140,note_on,0,0,3,,,,,,,,,2,,,56,62
10140,note_on,0,0,3,,,,,,,,,2,,,51,62
10140,note_on,0,0,3,,,,,,,,,2,,,60,62
10140,note_on,60,0,2,,,,,,,,,1,,,72,0
10140,note_on,0,0,2,,,,,,,,,1,,,72,88
10140,note_on,0,0,2,,,,,,,,,1,,,75,88
10140,note_on,0,0,3,,,,,,,,,2,,,32,0
10170,note_on,0,0,1,,,,,,,,,0,,,82,88
10170,note_on,30,0,1,,,,,,,,,0,,,84,0
10174,note_on,4,0,1,,,,,,,,,0,,,82,0
10200,note_on,60,0,3,,,,,,,,,2,,,60,0
10200,note_on,0,0,2,,,,,,,,,1,,,72,0
10200,note_on,0,0,2,,,,,,,,,1,,,72,75
10200,note_on,26,0,1,,,,,,,,,0,,,82,75
10200,note_on,0,0,2,,,,,,,,,1,,,75,75
10200,note_on,60,0,2,,,,,,,,,1,,,75,0
10200,note_on,0,0,3,,,,,,,,,2,,,60,62
10200,note_on,0,0,3,,,,,,,,,2,,,56,62
10200,note_on,0,0,3,,,,,,,,,2,,,51,0
10200,note_on,0,0,3,,,,,,,,,2,,,51,62
10200,note_on,0,0,3,,,,,,,,,2,,,56,0
10230,note_on,0,0,1,,,,,,,,,0,,,80,75
10230,note_on,30,0,1,,,,,,,,,0,,,82,0
10234,note_on,4,0,1,,,,,,,,,0,,,80,0
10260,note_on,26,0,1,,,,,,,,,0,,,75,49
10260,note_on,0,0,2,,,,,,,,,1,,,72,0
10260,note_on,0,0,2,,,,,,,,,1,,,68,49
10260,note_on,0,0,3,,,,,,,,,2,,,60,36
10260,note_on,0,0,2,,,,,,,,,1,,,72,49
10260,note_on,60,0,3,,,,,,,,,2,,,60,0
10260,note_on,0,0,3,,,,,,,,,2,,,56,0
10260,note_on,0,0,3,,,,,,,,,2,,,51,36
10260,note_on,0,0,3,,,,,,,,,2,,,51,0
10260,note_on,60,0,2,,,,,,,,,1,,,75,0
10260,note_on,0,0,3,,,,,,,,,2,,,56,36
10290,note_on,0,0,1,,,,,,,,,0,,,80,49
10290,note_on,30,0,1,,,,,,,,,0,,,75,0
10294,note_on,4,0,1,,,,,,,,,0,,,80,0
10320,note_on,60,0,2,,,,,,,,,1,,,72,0
10320,note_on,0,0,3,,,,,,,,,2,,,60,36
10320,note_on,0,0,3,,,,,,,,,2,,,56,36
10320,note_on,0,0,3,,,,,,,,,2,,,56,0
10320,note_on,0,0,2,,,,,,,,,1,,,72,49
10320,note_on,0,0,2,,,,,,,,,1,,,68,49
10320,note_on,26,0,1,,,,,,,,,0,,,80,49
10320,note_on,0,0,2,,,,,,,,,1,,,68,0
10320,note_on,0,0,3,,,,,,,,,2,,,51,0
10320,note_on,60,0,3,,,,,,,,,2,,,60,0
10320,note_on,0,0,3,,,,,,,,,2,,,51,36
10350,note_on,0,0,1,,,,,,,,,0,,,79,49
10350,note_on,30,0,1,,,,,,,,,0,,,80,0
10354,note_on,4,0,1,,,,,,,,,0,,,79,0
10380,note_on,26,0,1,,,,,,,,,0,,,79,49
10380,note_on,0,0,3,,,,,,,,,2,,,51,36
10380,control_change,0,0,3,,,,,,,,,2,64,0,,
10380,control_change,0,0,2,,,,,,,,,1,64,0,,
10380,note_on,0,0,2,,,,,,,,,1,,,68,0
10380,note_on,0,0,2,,,,,,,,,1,,,68,49
10380,note_on,0,0,2,,,,,,,,,1,,,72,49
10380,note_on,60,0,3,,,,,,,,,2,,,60,0
10380,note_on,60,0,2,,,,,,,,,1,,,72,0
10380,note_on,0,0,3,,,,,,,,,2,,,51,0
10380,note_on,0,0,3,,,,,,,,,2,,,56,0
10380,note_on,0,0,3,,,,,,,,,2,,,56,36
10380,note_on,0,0,3,,,,,,,,,2,,,60,36
10410,control_change,0,0,1,,,,,,,,,0,64,0,,
10410,note_on,30,0,1,,,,,,,,,0,,,79,0
10410,note_on,0,0,1,,,,,,,,,0,,,77,49
10414,note_on,4,0,1,,,,,,,,,0,,,77,0
10440,note_on,60,0,2,,,,,,,,,1,,,72,0
10440,note_on,60,0,3,,,,,,,,,2,,,60,0
10440,note_on,0,0,2,,,,,,,,,1,,,68,0
10440,note_on,0,0,1,,,,,,,,,0,,,75,49
10440,note_on,0,0,1,,,,,,,,,0,,,73,49
10440,note_on,0,0,3,,,,,,,,,2,,,51,0
10440,note_on,0,0,3,,,,,,,,,2,,,56,0
10440,control_change,0,0,3,,,,,,,,,2,64,127,,
10440,control_change,26,0,1,,,,,,,,,0,64,127,,
10440,note_on,0,0,3,,,,,,,,,2,,,39,36
10470,note_on,30,0,1,,,,,,,,,0,,,75,0
10470,note_on,0,0,1,,,,,,,,,0,,,77,49
10470,note_on,0,0,1,,,,,,,,,0,,,73,0
10470,note_on,0,0,1,,,,,,,,,0,,,67,49
10474,note_on,0,0,1,,,,,,,,,0,,,67,0
10474,note_on,4,0,1,,,,,,,,,0,,,77,0
10500,note_on,26,0,1,,,,,,,,,0,,,67,62
10500,note_on,0,0,3,,,,,,,,,2,,,61,36
10500,note_on,0,0,3,,,,,,,,,2,,,58,36
10500,note_on,0,0,3,,,,,,,,,2,,,51,36
10500,note_on,60,0,3,,,,,,,,,2,,,39,0
10500,note_on,0,0,1,,,,,,,,,0,,,77,62
10530,note_on,30,0,1,,,,,,,,,0,,,77,0
10530,note_on,0,0,1,,,,,,,,,0,,,75,62
10530,note_on,0,0,1,,,,,,,,,0,,,73,62
10530,note_on,0,0,1,,,,,,,,,0,,,67,0
10534,note_on,4,0,1,,,,,,,,,0,,,75,0
10534,note_on,0,0,1,,,,,,,,,0,,,73,0
10560,note_on,60,0,3,,,,,,,,,2,,,61,0
10560,note_on,0,0,3,,,,,,,,,2,,,61,62
10560,note_on,0,0,3,,,,,,,,,2,,,58,0
10560,note_on,0,0,3,,,,,,,,,2,,,58,62
10560,note_on,26,0,1,,,,,,,,,0,,,73,75
10560,note_on,0,0,3,,,,,,,,,2,,,51,0
10560,note_on,0,0,3,,,,,,,,,2,,,51,62
10560,note_on,0,0,1,,,,,,,,,0,,,75,75
10590,note_on,0,0,1,,,,,,,,,0,,,67,75
10590,note_on,30,0,1,,,,,,,,,0,,,75,0
10590,note_on,0,0,1,,,,,,,,,0,,,77,75
10590,note_on,0,0,1,,,,,,,,,0,,,73,0
10594,note_on,0,0,1,,,,,,,,,0,,,67,0
10594,note_on,4,0,1,,,,,,,,,0,,,77,0
10620,note_on,0,0,3,,,,,,,,,2,,,61,62
10620,note_on,0,0,3,,,,,,,,,2,,,58,62
10620,note_on,0,0,3,,,,,,,,,2,,,58,0
10620,note_on,0,0,3,,,,,,,,,2,,,51,62
10620,note_on,0,0,3,,,,,,,,,2,,,51,0
10620,note_on,60,0,3,,,,,,,,,2,,,61,0
10620,note_on,0,0,1,,,,,,,,,0,,,77,75
10620,note_on,26,0,1,,,,,,,,,0,,,67,75
10650,note_on,0,0,1,,,,,,,,,0,,,67,0
10650,note_on,0,0,1,,,,,,,,,0,,,73,75
10650,note_on,30,0,1,,,,,,,,,0,,,77,0
10650,note_on,0,0,1,,,,,,,,,0,,,75,75
10654,note_on,4,0,1,,,,,,,,,0,,,75,0
10654,note_on,0,0,1,,,,,,,,,0,,,73,0
10680,note_on,26,0,1,,,,,,,,,0,,,73,62
10680,note_on,60,0,3,,,,,,,,,2,,,61,0
10680,note_on,0,0,3,,,,,,,,,2,,,61,49
10680,note_on,0,0,3,,,,,,,,,2,,,51,0
10680,note_on,0,0,3,,,,,,,,,2,,,51,49
10680,note_on,0,0,3,,,,,,,,,2,,,58,0
10680,note_on,0,0,3,,,,,,,,,2,,,58,49
10680,note_on,0,0,1,,,,,,,,,0,,,75,62
10710,note_on,30,0,1,,,,,,,,,0,,,75,0
10710,note_on,0,0,1,,,,,,,,,0,,,73,0
10710,note_on,0,0,1,,,,,,,,,0,,,77,62
10710,note_on,0,0,1,,,,,,,,,0,,,67,62
10714,note_on,0,0,1,,,,,,,,,0,,,67,0
10714,note_on,4,0,1,,,,,,,,,0,,,77,0
10740,note_on,0,0,3,,,,,,,,,2,,,61,36
10740,note_on,26,0,1,,,,,,,,,0,,,67,49
10740,note_on,0,0,1,,,,,,,,,0,,,77,49
10740,note_on,0,0,3,,,,,,,,,2,,,58,36
10740,note_on,0,0,3,,,,,,,,,2,,,51,36
10740,note_on,60,0,3,,,,,,,,,2,,,61,0
10740,control_change,0,0,3,,,,,,,,,2,64,0,,
10740,note_on,0,0,3,,,,,,,,,2,,,51,0
10740,note_on,0,0,3,,,,,,,,,2,,,58,0
10770,control_change,0,0,1,,,,,,,,,0,64,0,,
10770,note_on,0,0,1,,,,,,,,,0,,,75,49
10770,note_on,0,0,1,,,,,,,,,0,,,67,0
10770,note_on,30,0,1,,,,,,,,,0,,,77,0
10770,note_on,0,0,1,,,,,,,,,0,,,73,49
10774,note_on,4,0,1,,,,,,,,,0,,,75,0
10774,note_on,0,0,1,,,,,,,,,0,,,73,0
10800,note_on,0,0,3,,,,,,,,,2,,,44,75
10800,note_on,0,0,3,,,,,,,,,2,,,51,0
10800,note_on,0,0,3,,,,,,,,,2,,,58,0
10800,note_on,0,0,1,,,,,,,,,0,,,75,88
10800,control_change,360,0,2,,,,,,,,,1,64,127,,
10800,control_change,26,0,1,,,,,,,,,0,64,127,,
10800,control_change,0,0,3,,,,,,,,,2,64,127,,
10800,note_on,0,0,3,,,,,,,,,2,,,32,75
10800,note_on,0,0,2,,,,,,,,,1,,,72,88
10800,note_on,60,0,3,,,,,,,,,2,,,61,0
10830,note_on,0,0,1,,,,,,,,,0,,,84,88
10830,note_on,30,0,1,,,,,,,,,0,,,75,0
10834,note_on,4,0,1,,,,,,,,,0,,,84,0
10860,note_on,26,0,1,,,,,,,,,0,,,84,88
10860,note_on,60,0,2,,,,,,,,,1,,,72,0
10860,note_on,0,0,2,,,,,,,,,1,,,72,88
10860,note_on,0,0,2,,,,,,,,,1,,,75,88
10860,note_on,0,0,3,,,,,,,,,2,,,60,62
10860,note_on,60,0,3,,,,,,,,,2,,,44,0
10860,note_on,0,0,3,,,,,,,,,2,,,51,62
10860,note_on,0,0,3,,,,,,,,,2,,,32,0
10860,note_on,0,0,3,,,,,,,,,2,,,56,62
10890,note_on,0,0,1,,,,,,,,,0,,,82,88
10890,note_on,30,0,1,,,,,,,,,0,,,84,0
10894,note_on,4,0,1,,,,,,,,,0,,,82,0
10920,note_on,0,0,2,,,,,,,,,1,,,72,0
10920,note_on,26,0,1,,,,,,,,,0,,,82,75
10920,note_on,0,0,3,,,,,,,,,2,,,56,0
10920,note_on,0,0,3,,,,,,,,,2,,,56,62
10920,note_on,0,0,2,,,,,,,,,1,,,72,75
10920,note_on,0,0,3,,,,,,,,,2,,,51,62
10920,note_on,0,0,3,,,,,,,,,2,,,51,0
10920,note_on,0,0,3,,,,,,,,,2,,,60,62
10920,note_on,0,0,2,,,,,,,,,1,,,75,75
10920,note_on,60,0,2,,,,,,,,,1,,,75,0
10920,note_on,60,0,3,,,,,,,,,2,,,60,0
10950,note_on,30,0,1,,,,,,,,,0,,,82,0
10950,note_on,0,0,1,,,,,,,,,0,,,80,75
10954,note_on,4,0,1,,,,,,,,,0,,,80,0
10980,note_on,0,0,2,,,,,,,,,1,,,72,0
10980,note_on,0,0,2,,,,,,,,,1,,,72,49
10980,note_on,60,0,2,,,,,,,,,1,,,75,0
10980,note_on,60,0,3,,,,,,,,,2,,,60,0
10980,note_on,26,0,1,,,,,,,,,0,,,75,49
10980,note_on,0,0,2,,,,,,,,,1,,,68,49
10980,note_on,0,0,3,,,,,,,,,2,,,51,0
10980,note_on,0,0,3,,,,,,,,,2,,,51,36
10980,note_on,0,0,3,,,,,,,,,2,,,60,36
10980,note_on,0,0,3,,,,,,,,,2,,,56,36
10980,note_on,0,0,3,,,,,,,,,2,,,56,0
11010,note_on,30,0,1,,,,,,,,,0,,,75,0
11010,note_on,0,0,1,,,,,,,,,0,,,80,49
11014,note_on,4,0,1,,,,,,,,,0,,,80,0
11040,note_on,0,0,3,,,,,,,,,2,,,51,36
11040,note_on,0,0,2,,,,,,,,,1,,,68,0
11040,note_on,60,0,3,,,,,,,,,2,,,60,0
11040,note_on,0,0,2,,,,,,,,,1,,,68,49
11040,note_on,0,0,2,,,,,,,,,1,,,72,49
11040,note_on,26,0,1,,,,,,,,,0,,,80,49
11040,note_on,0,0,3,,,,,,,,,2,,,60,36
11040,note_on,0,0,3,,,,,,,,,2,,,51,0
11040,note_on,60,0,2,,,,,,,,,1,,,72,0
11040,note_on,0,0,3,,,,,,,,,2,,,56,36
11040,note_on,0,0,3,,,,,,,,,2,,,56,0
11070,note_on,30,0,1,,,,,,,,,0,,,80,0
11070,note_on,0,0,1,,,,,,,,,0,,,79,49
11074,note_on,4,0,1,,,,,,,,,0,,,79,0
11100,note_on,0,0,3,,,,,,,,,2,,,56,0
11100,note_on,26,0,1,,,,,,,,,0,,,79,49
11100,note_on,60,0,2,,,,,,,,,1,,,72,0
11100,note_on,0,0,3,,,,,,,,,2,,,56,36
11100,note_on,0,0,3,,,,,,,,,2,,,51,36
11100,note_on,0,0,3,,,,,,,,,2,,,60,36
11100,control_change,0,0,2,,,,,,,,,1,64,0,,
11100,note_on,60,0,3,,,,,,,,,2,,,60,0
11100,note_on,0,0,3,,,,,,,,,2,,,51,0
11100,note_on,0,0,2,,,,,,,,,1,,,68,0
11100,note_on,0,0,2,,,,,,,,,1,,,68,49
11100,note_on,0,0,2,,,,,,,,,1,,,72,49
11100,control_change,0,0,3,,,,,,,,,2,64,0,,
11130,control_change,0,0,1,,,,,,,,,0,64,0,,
11130,note_on,30,0,1,,,,,,,,,0,,,79,0
11130,note_on,0,0,1,,,,,,,,,0,,,77,49
11134,note_on,4,0,1,,,,,,,,,0,,,77,0
11160,note_on,0,0,3,,,,,,,,,2,,,56,0
11160,note_on,0,0,1,,,,,,,,,0,,,75,49
11160,note_on,0,0,3,,,,,,,,,2,,,39,36
11160,control_change,26,0,1,,,,,,,,,0,64,127,,
11160,note_on,0,0,1,,,,,,,,,0,,,73,49
11160,note_on,0,0,2,,,,,,,,,1,,,68,0
11160,control_change,0,0,3,,,,,,,,,2,64,127,,
11160,note_on,60,0,2,,,,,,,,,1,,,72,0
11160,note_on,0,0,3,,,,,,,,,2,,,51,0
11160,note_on,60,0,3,,,,,,,,,2,,,60,0
11190,note_on,30,0,1,,,,,,,,,0,,,75,0
11190,note_on,0,0,1,,,,,,,,,0,,,67,49
11190,note_on,0,0,1,,,,,,,,,0,,,73,0
11190,note_on,0,0,1,,,,,,,,,0,,,77,49
11194,note_on,4,0,1,,,,,,,,,0,,,77,0
11194,note_on,0,0,1,,,,,,,,,0,,,67,0
11220,note_on,26,0,1,,,,,,,,,0,,,67,62
11220,note_on,0,0,3,,,,,,,,,2,,,51,36
11220,note_on,0,0,1,,,,,,,,,0,,,77,62
11220,note_on,0,0,3,,,,,,,,,2,,,61,36
11220,note_on,60,0,3,,,,,,,,,2,,,39,0
11220,note_on,0,0,3,,,,,,,,,2,,,58,36
11250,note_on,0,0,1,,,,,,,,,0,,,75,62
11250,note_on,30,0,1,,,,,,,,,0,,,77,0
11250,note_on,0,0,1,,,,,,,,,0,,,73,62
11250,note_on,0,0,1,,,,,,,,,0,,,67,0
11254,note_on,4,0,1,,,,,,,,,0,,,75,0
11254,note_on,0,0,1,,,,,,,,,0,,,73,0
11280,note_on,0,0,1,,,,,,,,,0,,,75,75
11280,note_on,0,0,3,,,,,,,,,2,,,61,62
11280,note_on,0,0,3,,,,,,,,,2,,,51,0
11280,note_on,0,0,3,,,,,,,,,2,,,51,62
11280,note_on,0,0,3,,,,,,,,,2,,,58,0
11280,note_on,0,0,3,,,,,,,,,2,,,58,62
11280,note_on,26,0,1,,,,,,,,,0,,,73,75
11280,note_on,60,0,3,,,,,,,,,2,,,61,0
11310,note_on,30,0,1,,,,,,,,,0,,,75,0
11310,note_on,0,0,1,,,,,,,,,0,,,77,75
11310,note_on,0,0,1,,,,,,,,,0,,,73,0
11310,note_on,0,0,1,,,,,,,,,0,,,67,75
11314,note_on,0,0,1,,,,,,,,,0,,,67,0
11314,note_on,4,0,1,,,,,,,,,0,,,77,0
11340,note_on,0,0,3,,,,,,,,,2,,,51,0
11340,note_on,0,0,3,,,,,,,,,2,,,61,62
11340,note_on,60,0,3,,,,,,,,,2,,,61,0
11340,note_on,0,0,1,,,,,,,,,0,,,77,75
11340,note_on,26,0,1,,,,,,,,,0,,,67,75
11340,note_on,0,0,3,,,,,,,,,2,,,58,62
11340,note_on,0,0,3,,,,,,,,,2,,,58,0
11340,note_on,0,0,3,,,,,,,,,2,,,51,62
11370,note_on,0,0,1,,,,,,,,,0,,,75,75
11370,note_on,30,0,1,,,,,,,,,0,,,77,0
11370,note_on,0,0,1,,,,,,,,,0,,,73,75
11370,note_on,0,0,1,,,,,,,,,0,,,67,0
11374,note_on,0,0,1,,,,,,,,,0,,,73,0
11374,note_on,4,0,1,,,,,,,,,0,,,75,0
11400,note_on,0,0,1,,,,,,,,,0,,,75,62
11400,note_on,0,0,3,,,,,,,,,2,,,58,0
11400,note_on,60,0,3,,,,,,,,,2,,,61,0
11400,note_on,0,0,3,,,,,,,,,2,,,58,49
11400,note_on,0,0,3,,,,,,,,,2,,,51,49
11400,note_on,0,0,3,,,,,,,,,2,,,51,0
11400,note_on,0,0,3,,,,,,,,,2,,,61,49
11400,note_on,26,0,1,,,,,,,,,0,,,73,62
11430,note_on,30,0,1,,,,,,,,,0,,,75,0
11430,note_on,0,0,1,,,,,,,,,0,,,77,62
11430,note_on,0,0,1,,,,,,,,,0,,,73,0
11430,note_on,0,0,1,,,,,,,,,0,,,67,62
11434,note_on,0,0,1,,,,,,,,,0,,,67,0
11434,note_on,4,0,1,,,,,,,,,0,,,77,0
11460,note_on,0,0,1,,,,,,,,,0,,,77,49
11460,control_change,0,0,3,,,,,,,,,2,64,0,,
11460,note_on,0,0,3,,,,,,,,,2,,,61,36
11460,note_on,0,0,3,,,,,,,,,2,,,58,36
11460,note_on,0,0,3,,,,,,,,,2,,,58,0
11460,note_on,0,0,3,,,,,,,,,2,,,51,36
11460,note_on,26,0,1,,,,,,,,,0,,,67,49
11460,note_on,60,0,3,,,,,,,,,2,,,61,0
11460,note_on,0,0,3,,,,,,,,,2,,,51,0
11490,control_change,0,0,1,,,,,,,,,0,64,0,,
11490,note_on,30,0,1,,,,,,,,,0,,,77,0
11490,note_on,0,0,1,,,,,,,,,0,,,67,0
11490,note_on,0,0,1,,,,,,,,,0,,,73,49
11490,note_on,0,0,1,,,,,,,,,0,,,75,49
11494,note_on,0,0,1,,,,,,,,,0,,,73,0
11494,note_on,4,0,1,,,,,,,,,0,,,75,0
11520,note_on,0,0,1,,,,,,,,,0,,,68,49
11520,note_on,60,0,3,,,,,,,,,2,,,61,0
11520,control_change,0,0,3,,,,,,,,,2,64,127,,
11520,control_change,360,0,2,,,,,,,,,1,64,127,,
11520,note_on,0,0,3,,,,,,,,,2,,,58,0
11520,note_on,0,0,3,,,,,,,,,2,,,32,49
11520,control_change,26,0,1,,,,,,,,,0,64,127,,
11520,note_on,0,0,2,,,,,,,,,1,,,63,49
11520,note_on,0,0,3,,,,,,,,,2,,,51,0
11520,note_on,0,0,3,,,,,,,,,2,,,44,49
11520,note_on,0,0,2,,,,,,,,,1,,,60,49
11550,note_on,30,0,1,,,,,,,,,0,,,68,0
11550,note_on,0,0,1,,,,,,,,,0,,,72,49
11554,note_on,4,0,1,,,,,,,,,0,,,72,0
11580,note_on,0,0,2,,,,,,,,,1,,,60,62
11580,note_on,0,0,2,,,,,,,,,1,,,60,0
11580,note_on,0,0,2,,,,,,,,,1,,,63,62
11580,note_on,60,0,2,,,,,,,,,1,,,63,0
11580,note_on,0,0,3,,,,,,,,,2,,,56,36
11580,note_on,0,0,3,,,,,,,,,2,,,51,36
11580,note_on,0,0,3,,,,,,,,,2,,,32,0
11580,note_on,60,0,3,,,,,,,,,2,,,44,0
11580,note_on,26,0,1,,,,,,,,,0,,,72,62
11610,note_on,0,0,1,,,,,,,,,0,,,68,62
11610,note_on,30,0,1,,,,,,,,,0,,,72,0
11614,note_on,4,0,1,,,,,,,,,0,,,68,0
11640,note_on,26,0,1,,,,,,,,,0,,,68,75
11640,note_on,60,0,2,,,,,,,,,1,,,63,0
11640,note_on,60,0,3,,,,,,,,,2,,,56,0
11640,note_on,0,0,2,,,,,,,,,1,,,63,75
11640,note_on,0,0,2,,,,,,,,,1,,,60,75
11640,note_on,0,0,3,,,,,,,,,2,,,51,49
11640,note_on,0,0,3,,,,,,,,,2,,,56,49
11640,note_on,0,0,2,,,,,,,,,1,,,60,0
11640,note_on,0,0,3,,,,,,,,,2,,,51,0
11670,note_on,0,0,1,,,,,,,,,0,,,72,75
11670,note_on,30,0,1,,,,,,,,,0,,,68,0
11674,note_on,4,0,1,,,,,,,,,0,,,72,0
11700,note_on,0,0,2,,,,,,,,,1,,,63,75
11700,note_on,60,0,2,,,,,,,,,1,,,63,0
11700,note_on,0,0,2,,,,,,,,,1,,,60,75
11700,note_on,0,0,3,,,,,,,,,2,,,56,49
11700,note_on,0,0,3,,,,,,,,,2,,,51,49
11700,note_on,60,0,3,,,,,,,,,2,,,56,0
11700,note_on,26,0,1,,,,,,,,,0,,,72,75
11700,note_on,0,0,2,,,,,,,,,1,,,60,0
11700,note_on,0,0,3,,,,,,,,,2,,,51,0
11730,note_on,0,0,1,,,,,,,,,0,,,68,75
11730,note_on,30,0,1,,,,,,,,,0,,,72,0
11734,note_on,4,0,1,,,,,,,,,0,,,68,0
11760,note_on,0,0,3,,,,,,,,,2,,,56,36
11760,note_on,26,0,1,,,,,,,,,0,,,68,62
11760,note_on,0,0,3,,,,,,,,,2,,,51,36
11760,note_on,0,0,3,,,,,,,,,2,,,51,0
11760,note_on,60,0,3,,,,,,,,,2,,,56,0
11760,note_on,60,0,2,,,,,,,,,1,,,63,0
11760,note_on,0,0,2,,,,,,,,,1,,,60,0
11760,note_on,0,0,2,,,,,,,,,1,,,60,62
11760,note_on,0,0,2,,,,,,,,,1,,,63,62
11790,note_on,30,0,1,,,,,,,,,0,,,68,0
11790,note_on,0,0,1,,,,,,,,,0,,,72,62
11794,note_on,4,0,1,,,,,,,,,0,,,72,0
11820,note_on,0,0,3,,,,,,,,,2,,,51,36
11820,control_change,0,0,3,,,,,,,,,2,64,0,,
11820,control_change,0,0,2,,,,,,,,,1,64,0,,
11820,note_on,0,0,3,,,,,,,,,2,,,51,0
11820,note_on,0,0,3,,,,,,,,,2,,,56,36
11820,note_on,0,0,2,,,,,,,,,1,,,60,0
11820,note_on,26,0,1,,,,,,,,,0,,,72,49
11820,note_on,60,0,2,,,,,,,,,1,,,63,0
11820,note_on,0,0,2,,,,,,,,,1,,,63,49
11820,note_on,60,0,3,,,,,,,,,2,,,56,0
11820,note_on,0,0,2,,,,,,,,,1,,,60,49
11850,note_on,0,0,1,,,,,,,,,0,,,68,49
11850,control_change,0,0,1,,,,,,,,,0,64,0,,
11850,note_on,30,0,1,,,,,,,,,0,,,72,0
11854,note_on,4,0,1,,,,,,,,,0,,,68,0
11880,note_on,0,0,3,,,,,,,,,2,,,44,36
11880,note_on,60,0,2,,,,,,,,,1,,,63,0
11880,note_on,0,0,2,,,,,,,,,1,,,63,49
11880,note_on,0,0,2,,,,,,,,,1,,,60,0
11880,note_on,60,0,3,,,,,,,,,2,,,56,0
11880,control_change,0,0,2,,,,,,,,,1,64,127,,
11880,note_on,0,0,1,,,,,,,,,0,,,68,49
11880,note_on,0,0,2,,,,,,,,,1,,,59,49
11880,note_on,0,0,3,,,,,,,,,2,,,51,0
11880,control_change,0,0,3,,,,,,,,,2,64,127,,
11880,control_change,26,0,1,,,,,,,,,0,64,127,,
11910,note_on,30,0,1,,,,,,,,,0,,,68,0
11910,note_on,0,0,1,,,,,,,,,0,,,71,49
11914,note_on,4,0,1,,,,,,,,,0,,,71,0
11925,set_tempo,9045,1,0,,,,,,967742,,,,,,,
11940,note_on,0,0,3,,,,,,,,,2,,,56,36
11940,note_on,60,0,3,,,,,,,,,2,,,44,0
11940,note_on,0,0,2,,,,,,,,,1,,,63,49
11940,note_on,60,0,2,,,,,,,,,1,,,63,0
11940,note_on,0,0,2,,,,,,,,,1,,,59,49
11940,note_on,0,0,3,,,,,,,,,2,,,51,36
11940,note_on,0,0,2,,,,,,,,,1,,,59,0
11940,note_on,26,0,1,,,,,,,,,0,,,71,49
11970,set_tempo,45,1,0,,,,,,1016949,,,,,,,
11970,note_on,30,0,1,,,,,,,,,0,,,71,0
11970,note_on,0,0,1,,,,,,,,,0,,,68,49
11974,note_on,4,0,1,,,,,,,,,0,,,68,0
12000,note_on,0,0,3,,,,,,,,,2,,,51,36
12000,note_on,0,0,3,,,,,,,,,2,,,56,36
12000,note_on,0,0,2,,,,,,,,,1,,,59,49
12000,note_on,26,0,1,,,,,,,,,0,,,68,49
12000,note_on,0,0,2,,,,,,,,,1,,,59,0
12000,note_on,0,0,3,,,,,,,,,2,,,51,0
12000,note_on,60,0,3,,,,,,,,,2,,,56,0
12000,note_on,0,0,2,,,,,,,,,1,,,63,49
12000,note_on,60,0,2,,,,,,,,,1,,,63,0
12015,set_tempo,45,1,0,,,,,,1071429,,,,,,,
12030,note_on,30,0,1,,,,,,,,,0,,,68,0
12030,note_on,0,0,1,,,,,,,,,0,,,71,49
12034,note_on,4,0,1,,,,,,,,,0,,,71,0
12060,note_on,0,0,2,,,,,,,,,1,,,59,36
12060,note_on,60,0,2,,,,,,,,,1,,,63,0
12060,note_on,60,0,3,,,,,,,,,2,,,56,0
12060,note_on,0,0,2,,,,,,,,,1,,,59,0
12060,set_tempo,45,1,0,,,,,,1153846,,,,,,,
12060,note_on,0,0,2,,,,,,,,,1,,,63,36
12060,note_on,0,0,3,,,,,,,,,2,,,51,0
12060,note_on,26,0,1,,,,,,,,,0,,,71,36
12060,note_on,0,0,3,,,,,,,,,2,,,51,36
12060,note_on,0,0,3,,,,,,,,,2,,,56,36
12090,note_on,30,0,1,,,,,,,,,0,,,71,0
12090,note_on,0,0,1,,,,,,,,,0,,,68,36
12094,note_on,4,0,1,,,,,,,,,0,,,68,0
12105,set_tempo,45,1,0,,,,,,1224490,,,,,,,
12120,note_on,60,0,2,,,,,,,,,1,,,63,0
12120,note_on,60,0,3,,,,,,,,,2,,,56,0
12120,note_on,26,0,1,,,,,,,,,0,,,68,36
12120,note_on,0,0,3,,,,,,,,,2,,,51,0
12120,note_on,0,0,3,,,,,,,,,2,,,51,36
12120,note_on,0,0,3,,,,,,,,,2,,,56,36
12120,note_on,0,0,2,,,,,,,,,1,,,59,0
12120,note_on,0,0,2,,,,,,,,,1,,,59,36
12120,note_on,0,0,2,,,,,,,,,1,,,63,36
12150,note_on,30,0,1,,,,,,,,,0,,,68,0
12150,set_tempo,45,1,0,,,,,,1304348,,,,,,,
12150,note_on,0,0,1,,,,,,,,,0,,,71,36
12154,note_on,4,0,1,,,,,,,,,0,,,71,0
12180,note_on,60,0,3,,,,,,,,,2,,,56,0
12180,note_on,0,0,3,,,,,,,,,2,,,51,0
12180,note_on,26,0,1,,,,,,,,,0,,,71,36
12180,note_on,60,0,2,,,,,,,,,1,,,63,0
12180,control_change,0,0,3,,,,,,,,,2,64,0,,
12180,note_on,0,0,3,,,,,,,,,2,,,51,36
12180,note_on,0,0,3,,,,,,,,,2,,,56,36
12180,note_on,0,0,2,,,,,,,,,1,,,63,36
12180,note_on,0,0,2,,,,,,,,,1,,,59,36
12180,control_change,0,0,2,,,,,,,,,1,64,0,,
12180,note_on,0,0,2,,,,,,,,,1,,,59,0
12195,set_tempo,45,1,0,,,,,,1395349,,,,,,,
12210,note_on,30,0,1,,,,,,,,,0,,,71,0
12210,note_on,0,0,1,,,,,,,,,0,,,68,36
12210,control_change,0,0,1,,,,,,,,,0,64,0,,
12214,note_on,4,0,1,,,,,,,,,0,,,68,0
12240,note_on,60,0,3,,,,,,,,,2,,,56,0
12240,note_on,0,0,2,,,,,,,,,1,,,63,75
12240,set_tempo,45,1,0,,,,,,923077,,,,,,,
12240,note_on,0,0,2,,,,,,,,,1,,,59,0
12240,note_on,0,0,3,,,,,,,,,2,,,51,0
12240,note_on,0,0,3,,,,,,,,,2,,,44,49
12240,note_on,60,0,2,,,,,,,,,1,,,63,0
12270,note_on,56,0,1,,,,,,,,,0,,,75,49
12274,note_on,4,0,1,,,,,,,,,0,,,75,0
12300,note_on,26,0,1,,,,,,,,,0,,,75,49
12300,note_on,60,0,3,,,,,,,,,2,,,44,0
12300,note_on,0,0,3,,,,,,,,,2,,,59,49
12300,note_on,0,0,3,,,,,,,,,2,,,56,49
12300,note_on,0,0,3,,,,,,,,,2,,,51,49
12330,note_on,90,0,2,,,,,,,,,1,,,63,0
12330,note_on,30,0,1,,,,,,,,,0,,,75,0
12330,note_on,0,0,2,,,,,,,,,1,,,64,75
12330,note_on,0,0,1,,,,,,,,,0,,,73,49
12334,note_on,4,0,1,,,,,,,,,0,,,73,0
12360,note_on,30,0,2,,,,,,,,,1,,,64,0
12360,note_on,0,0,2,,,,,,,,,1,,,63,75
12360,note_on,0,0,3,,,,,,,,,2,,,51,49
12360,note_on,60,0,3,,,,,,,,,2,,,59,0
12360,note_on,0,0,3,,,,,,,,,2,,,51,0
12360,note_on,0,0,3,,,,,,,,,2,,,59,49
12360,note_on,0,0,3,,,,,,,,,2,,,56,49
12360,note_on,0,0,3,,,,,,,,,2,,,56,0
12360,note_on,26,0,1,,,,,,,,,0,,,73,49
12390,note_on,0,0,1,,,,,,,,,0,,,71,49
12390,note_on,30,0,1,,,,,,,,,0,,,73,0
12394,note_on,4,0,1,,,,,,,,,0,,,71,0
12420,note_on,60,0,3,,,,,,,,,2,,,59,0
12420,note_on,0,0,2,,,,,,,,,1,,,63,75
12420,note_on,60,0,2,,,,,,,,,1,,,63,0
12420,note_on,0,0,3,,,,,,,,,2,,,51,0
12420,note_on,0,0,3,,,,,,,,,2,,,51,49
12420,note_on,0,0,3,,,,,,,,,2,,,56,0
12420,note_on,0,0,3,,,,,,,,,2,,,56,49
12420,note_on,0,0,3,,,,,,,,,2,,,59,49
12420,note_on,26,0,1,,,,,,,,,0,,,71,49
12450,note_on,30,0,1,,,,,,,,,0,,,71,0
12450,note_on,0,0,1,,,,,,,,,0,,,70,49
12454,note_on,4,0,1,,,,,,,,,0,,,70,0
12480,note_on,26,0,1,,,,,,,,,0,,,70,49
12480,note_on,0,0,3,,,,,,,,,2,,,51,0
12480,note_on,0,0,3,,,,,,,,,2,,,56,0
12480,note_on,0,0,3,,,,,,,,,2,,,51,49
12480,note_on,60,0,3,,,,,,,,,2,,,59,0
12480,note_on,0,0,3,,,,,,,,,2,,,56,49
12480,note_on,0,0,3,,,,,,,,,2,,,59,49
12510,note_on,0,0,2,,,,,,,,,1,,,68,101
12510,note_on,30,0,1,,,,,,,,,0,,,70,0
12510,note_on,90,0,2,,,,,,,,,1,,,63,0
12540,note_on,60,0,3,,,,,,,,,2,,,59,0
12540,note_on,30,0,1,,,,,,,,,0,,,68,49
12540,note_on,0,0,3,,,,,,,,,2,,,56,49
12540,note_on,0,0,3,,,,,,,,,2,,,59,49
12540,note_on,0,0,3,,,,,,,,,2,,,56,0
12540,note_on,0,0,3,,,,,,,,,2,,,51,49
12540,note_on,0,0,3,,,,,,,,,2,,,51,0
12570,note_on,30,0,1,,,,,,,,,0,,,68,0
12570,note_on,0,0,2,,,,,,,,,1,,,63,75
12570,note_on,60,0,2,,,,,,,,,1,,,68,0
12600,note_on,60,0,3,,,,,,,,,2,,,59,0
12600,note_on,0,0,3,,,,,,,,,2,,,51,0
12600,note_on,0,0,3,,,,,,,,,2,,,56,0
12600,note_on,0,0,3,,,,,,,,,2,,,44,49
12600,note_on,30,0,2,,,,,,,,,1,,,63,0
12600,note_on,0,0,2,,,,,,,,,1,,,63,75
12630,note_on,30,0,2,,,,,,,,,1,,,63,0
12630,note_on,0,0,2,,,,,,,,,1,,,71,75
12630,note_on,60,0,1,,,,,,,,,0,,,75,49
12634,note_on,4,0,1,,,,,,,,,0,,,75,0
12660,note_on,60,0,3,,,,,,,,,2,,,44,0
12660,note_on,0,0,2,,,,,,,,,1,,,71,88
12660,note_on,0,0,3,,,,,,,,,2,,,59,62
12660,note_on,0,0,3,,,,,,,,,2,,,56,62
12660,note_on,30,0,2,,,,,,,,,1,,,71,0
12660,note_on,26,0,1,,,,,,,,,0,,,75,62
12660,note_on,0,0,3,,,,,,,,,2,,,51,62
12690,note_on,30,0,2,,,,,,,,,1,,,71,0
12690,note_on,30,0,1,,,,,,,,,0,,,75,0
12690,note_on,0,0,2,,,,,,,,,1,,,70,88
12690,note_on,0,0,1,,,,,,,,,0,,,73,62
12694,note_on,4,0,1,,,,,,,,,0,,,73,0
12720,note_on,0,0,3,,,,,,,,,2,,,56,75
12720,note_on,0,0,3,,,,,,,,,2,,,56,0
12720,note_on,0,0,3,,,,,,,,,2,,,59,75
12720,note_on,0,0,2,,,,,,,,,1,,,70,101
12720,note_on,26,0,1,,,,,,,,,0,,,73,75
12720,note_on,30,0,2,,,,,,,,,1,,,70,0
12720,note_on,0,0,3,,,,,,,,,2,,,51,75
12720,note_on,0,0,3,,,,,,,,,2,,,51,0
12720,note_on,60,0,3,,,,,,,,,2,,,59,0
12750,note_on,0,0,2,,,,,,,,,1,,,68,101
12750,note_on,30,0,2,,,,,,,,,1,,,70,0
12750,note_on,30,0,1,,,,,,,,,0,,,73,0
12750,note_on,0,0,1,,,,,,,,,0,,,71,75
12754,note_on,4,0,1,,,,,,,,,0,,,71,0
12780,note_on,0,0,3,,,,,,,,,2,,,59,75
12780,note_on,0,0,3,,,,,,,,,2,,,56,75
12780,note_on,0,0,3,,,,,,,,,2,,,56,0
12780,note_on,0,0,3,,,,,,,,,2,,,51,75
12780,note_on,0,0,3,,,,,,,,,2,,,51,0
12780,note_on,60,0,3,,,,,,,,,2,,,59,0
12780,note_on,0,0,2,,,,,,,,,1,,,68,101
12780,note_on,30,0,2,,,,,,,,,1,,,68,0
12780,note_on,26,0,1,,,,,,,,,0,,,71,75
12810,note_on,0,0,1,,,,,,,,,0,,,70,75
12810,note_on,30,0,1,,,,,,,,,0,,,71,0
12814,note_on,4,0,1,,,,,,,,,0,,,70,0
12840,note_on,60,0,3,,,,,,,,,2,,,59,0
12840,note_on,0,0,3,,,,,,,,,2,,,51,0
12840,note_on,0,0,3,,,,,,,,,2,,,51,62
12840,note_on,0,0,3,,,,,,,,,2,,,56,0
12840,note_on,0,0,3,,,,,,,,,2,,,56,62
12840,note_on,0,0,3,,,,,,,,,2,,,59,62
12840,note_on,26,0,1,,,,,,,,,0,,,70,62
12870,note_on,0,0,1,,,,,,,,,0,,,68,62
12870,note_on,30,0,1,,,,,,,,,0,,,70,0
12874,note_on,4,0,1,,,,,,,,,0,,,68,0
12900,note_on,0,0,3,,,,,,,,,2,,,56,0
12900,note_on,0,0,3,,,,,,,,,2,,,59,49
12900,note_on,0,0,3,,,,,,,,,2,,,51,0
12900,note_on,60,0,3,,,,,,,,,2,,,59,0
12900,note_on,0,0,3,,,,,,,,,2,,,56,49
12900,note_on,120,0,2,,,,,,,,,1,,,68,0
12900,note_on,0,0,3,,,,,,,,,2,,,51,49
12900,note_on,26,0,1,,,,,,,,,0,,,68,49
12930,note_on,30,0,1,,,,,,,,,0,,,68,0
12930,note_on,30,0,2,,,,,,,,,1,,,63,75
12960,note_on,60,0,3,,,,,,,,,2,,,59,0
12960,note_on,30,0,2,,,,,,,,,1,,,63,0
12960,note_on,0,0,2,,,,,,,,,1,,,63,75
12960,note_on,0,0,3,,,,,,,,,2,,,39,49
12960,note_on,0,0,3,,,,,,,,,2,,,51,0
12960,note_on,0,0,3,,,,,,,,,2,,,56,0
12990,note_on,60,0,1,,,,,,,,,0,,,76,49
12994,note_on,4,0,1,,,,,,,,,0,,,76,0
13020,note_on,0,0,3,,,,,,,,,2,,,55,49
13020,note_on,60,0,3,,,,,,,,,2,,,39,0
13020,note_on,0,0,3,,,,,,,,,2,,,51,49
13020,note_on,0,0,3,,,,,,,,,2,,,61,49
13020,note_on,26,0,1,,,,,,,,,0,,,76,49
13050,note_on,90,0,2,,,,,,,,,1,,,63,0
13050,note_on,30,0,1,,,,,,,,,0,,,76,0
13050,note_on,0,0,1,,,,,,,,,0,,,75,49
13050,note_on,0,0,2,,,,,,,,,1,,,64,75
13054,note_on,4,0,1,,,,,,,,,0,,,75,0
13080,note_on,0,0,3,,,,,,,,,2,,,51,49
13080,note_on,0,0,3,,,,,,,,,2,,,55,0
13080,note_on,30,0,2,,,,,,,,,1,,,64,0
13080,note_on,0,0,3,,,,,,,,,2,,,61,49
13080,note_on,0,0,3,,,,,,,,,2,,,51,0
13080,note_on,0,0,3,,,,,,,,,2,,,55,49
13080,note_on,0,0,2,,,,,,,,,1,,,63,75
13080,note_on,26,0,1,,,,,,,,,0,,,75,49
13080,note_on,60,0,3,,,,,,,,,2,,,61,0
13110,note_on,30,0,1,,,,,,,,,0,,,75,0
13110,note_on,0,0,1,,,,,,,,,0,,,73,49
13114,note_on,4,0,1,,,,,,,,,0,,,73,0
13140,note_on,0,0,3,,,,,,,,,2,,,51,49
13140,note_on,0,0,3,,,,,,,,,2,,,55,0
13140,note_on,0,0,3,,,,,,,,,2,,,51,0
13140,note_on,0,0,3,,,,,,,,,2,,,55,49
13140,note_on,60,0,2,,,,,,,,,1,,,63,0
13140,note_on,0,0,2,,,,,,,,,1,,,63,75
13140,note_on,26,0,1,,,,,,,,,0,,,73,49
13140,note_on,60,0,3,,,,,,,,,2,,,61,0
13140,note_on,0,0,3,,,,,,,,,2,,,61,49
13170,note_on,0,0,1,,,,,,,,,0,,,71,49
13170,note_on,30,0,1,,,,,,,,,0,,,73,0
13200,note_on,60,0,3,,,,,,,,,2,,,61,0
13200,note_on,0,0,3,,,,,,,,,2,,,61,49
13200,note_on,0,0,3,,,,,,,,,2,,,55,49
13200,note_on,0,0,3,,,,,,,,,2,,,55,0
13200,note_on,30,0,1,,,,,,,,,0,,,71,0
13200,note_on,0,0,1,,,,,,,,,0,,,71,49
13200,note_on,0,0,3,,,,,,,,,2,,,51,0
13200,note_on,0,0,3,,,,,,,,,2,,,51,49
13230,note_on,30,0,1,,,,,,,,,0,,,71,0
13230,note_on,90,0,2,,,,,,,,,1,,,63,0
13230,note_on,0,0,2,,,,,,,,,1,,,70,101
13260,note_on,60,0,3,,,,,,,,,2,,,61,0
13260,note_on,0,0,3,,,,,,,,,2,,,55,49
13260,note_on,0,0,3,,,,,,,,,2,,,61,49
13260,note_on,0,0,3,,,,,,,,,2,,,55,0
13260,note_on,0,0,3,,,,,,,,,2,,,51,49
13260,note_on,0,0,3,,,,,,,,,2,,,51,0
13260,note_on,30,0,1,,,,,,,,,0,,,70,49
13290,note_on,0,0,2,,,,,,,,,1,,,63,75
13290,note_on,60,0,2,,,,,,,,,1,,,70,0
13290,note_on,30,0,1,,,,,,,,,0,,,70,0
13320,note_on,0,0,2,,,,,,,,,1,,,63,75
13320,note_on,30,0,2,,,,,,,,,1,,,63,0
13320,note_on,0,0,3,,,,,,,,,2,,,55,0
13320,note_on,0,0,3,,,,,,,,,2,,,51,0
13320,note_on,0,0,3,,,,,,,,,2,,,39,49
13320,note_on,60,0,3,,,,,,,,,2,,,61,0
13350,note_on,0,0,2,,,,,,,,,1,,,73,75
13350,note_on,60,0,1,,,,,,,,,0,,,76,49
13350,note_on,30,0,2,,,,,,,,,1,,,63,0
13354,note_on,4,0,1,,,,,,,,,0,,,76,0
13380,note_on,60,0,3,,,,,,,,,2,,,39,0
13380,note_on,26,0,1,,,,,,,,,0,,,76,62
13380,note_on,0,0,3,,,,,,,,,2,,,61,62
13380,note_on,0,0,3,,,,,,,,,2,,,55,62
13380,note_on,30,0,2,,,,,,,,,1,,,73,0
13380,note_on,0,0,2,,,,,,,,,1,,,73,88
13380,note_on,0,0,3,,,,,,,,,2,,,51,62
13410,note_on,0,0,1,,,,,,,,,0,,,75,62
13410,note_on,0,0,2,,,,,,,,,1,,,71,88
13410,note_on,30,0,1,,,,,,,,,0,,,76,0
13410,note_on,30,0,2,,,,,,,,,1,,,73,0
13414,note_on,4,0,1,,,,,,,,,0,,,75,0
13440,note_on,0,0,3,,,,,,,,,2,,,51,75
13440,note_on,0,0,3,,,,,,,,,2,,,55,0
13440,note_on,0,0,2,,,,,,,,,1,,,71,101
13440,note_on,26,0,1,,,,,,,,,0,,,75,75
13440,note_on,30,0,2,,,,,,,,,1,,,71,0
13440,note_on,0,0,3,,,,,,,,,2,,,55,75
13440,note_on,0,0,3,,,,,,,,,2,,,51,0
13440,note_on,0,0,3,,,,,,,,,2,,,61,75
13440,note_on,60,0,3,,,,,,,,,2,,,61,0
13470,note_on,30,0,1,,,,,,,,,0,,,75,0
13470,note_on,30,0,2,,,,,,,,,1,,,71,0
13470,note_on,0,0,1,,,,,,,,,0,,,73,75
13470,note_on,0,0,2,,,,,,,,,1,,,70,101
13474,note_on,4,0,1,,,,,,,,,0,,,73,0
13500,note_on,30,0,2,,,,,,,,,1,,,70,0
13500,note_on,0,0,3,,,,,,,,,2,,,61,75
13500,note_on,26,0,1,,,,,,,,,0,,,73,75
13500,note_on,60,0,3,,,,,,,,,2,,,61,0
13500,note_on,0,0,3,,,,,,,,,2,,,51,0
13500,note_on,0,0,3,,,,,,,,,2,,,51,75
13500,note_on,0,0,3,,,,,,,,,2,,,55,75
13500,note_on,0,0,3,,,,,,,,,2,,,55,0
13500,note_on,0,0,2,,,,,,,,,1,,,70,101
13530,note_on,0,0,1,,,,,,,,,0,,,71,75
13530,note_on,30,0,1,,,,,,,,,0,,,73,0
13534,note_on,4,0,1,,,,,,,,,0,,,71,0
13560,note_on,26,0,1,,,,,,,,,0,,,71,62
13560,note_on,60,0,3,,,,,,,,,2,,,61,0
13560,note_on,0,0,3,,,,,,,,,2,,,61,62
13560,note_on,0,0,3,,,,,,,,,2,,,51,0
13560,note_on,0,0,3,,,,,,,,,2,,,55,0
13560,note_on,0,0,3,,,,,,,,,2,,,51,62
13560,note_on,0,0,3,,,,,,,,,2,,,55,62
13590,note_on,0,0,1,,,,,,,,,0,,,70,62
13590,note_on,30,0,1,,,,,,,,,0,,,71,0
13594,note_on,4,0,1,,,,,,,,,0,,,70,0
13620,note_on,120,0,2,,,,,,,,,1,,,70,0
13620,note_on,0,0,3,,,,,,,,,2,,,51,0
13620,note_on,0,0,3,,,,,,,,,2,,,51,49
13620,note_on,26,0,1,,,,,,,,,0,,,70,49
13620,note_on,0,0,3,,,,,,,,,2,,,55,0
13620,note_on,0,0,3,,,,,,,,,2,,,55,49
13620,note_on,60,0,3,,,,,,,,,2,,,61,0
13620,note_on,0,0,3,,,,,,,,,2,,,61,49
13650,note_on,30,0,1,,,,,,,,,0,,,70,0
13650,note_on,0,0,1,,,,,,,,,0,,,63,49
13654,note_on,4,0,1,,,,,,,,,0,,,63,0
13680,note_on,0,0,3,,,,,,,,,2,,,51,0
13680,note_on,60,0,2,,,,,,,,,1,,,66,88
13680,note_on,0,0,3,,,,,,,,,2,,,55,0
13680,note_on,60,0,3,,,,,,,,,2,,,61,0
13680,note_on,0,0,3,,,,,,,,,2,,,47,62
13710,note_on,0,0,2,,,,,,,,,1,,,75,88
13710,note_on,30,0,2,,,,,,,,,1,,,66,0
13710,note_on,56,0,1,,,,,,,,,0,,,78,62
13714,note_on,4,0,1,,,,,,,,,0,,,78,0
13740,note_on,30,0,2,,,,,,,,,1,,,75,0
13740,note_on,26,0,1,,,,,,,,,0,,,78,62
13740,note_on,60,0,3,,,,,,,,,2,,,47,0
13740,note_on,0,0,3,,,,,,,,,2,,,54,62
13740,note_on,0,0,3,,,,,,,,,2,,,59,62
13740,note_on,0,0,3,,,,,,,,,2,,,63,62
13740,note_on,0,0,2,,,,,,,,,1,,,75,101
13770,note_on,30,0,1,,,,,,,,,0,,,78,0
13770,note_on,0,0,1,,,,,,,,,0,,,76,62
13770,note_on,0,0,2,,,,,,,,,1,,,73,101
13770,note_on,30,0,2,,,,,,,,,1,,,75,0
13774,note_on,4,0,1,,,,,,,,,0,,,76,0
13800,note_on,30,0,2,,,,,,,,,1,,,73,0
13800,note_on,0,0,3,,,,,,,,,2,,,54,0
13800,note_on,0,0,3,,,,,,,,,2,,,54,62
13800,note_on,60,0,3,,,,,,,,,2,,,63,0
13800,note_on,0,0,2,,,,,,,,,1,,,73,101
13800,note_on,26,0,1,,,,,,,,,0,,,76,62
13800,note_on,0,0,3,,,,,,,,,2,,,63,62
13800,note_on,0,0,3,,,,,,,,,2,,,59,62
13800,note_on,0,0,3,,,,,,,,,2,,,59,0
13830,note_on,30,0,2,,,,,,,,,1,,,73,0
13830,note_on,0,0,2,,,,,,,,,1,,,71,101
13830,note_on,30,0,1,,,,,,,,,0,,,76,0
13830,note_on,0,0,1,,,,,,,,,0,,,75,62
13834,note_on,4,0,1,,,,,,,,,0,,,75,0
13860,note_on,0,0,3,,,,,,,,,2,,,59,0
13860,note_on,0,0,3,,,,,,,,,2,,,59,62
13860,note_on,0,0,3,,,,,,,,,2,,,63,62
13860,note_on,60,0,3,,,,,,,,,2,,,63,0
13860,note_on,26,0,1,,,,,,,,,0,,,75,62
13860,note_on,0,0,2,,,,,,,,,1,,,71,101
13860,note_on,30,0,2,,,,,,,,,1,,,71,0
13860,note_on,0,0,3,,,,,,,,,2,,,54,62
13860,note_on,0,0,3,,,,,,,,,2,,,54,0
13890,note_on,0,0,1,,,,,,,,,0,,,73,62
13890,note_on,30,0,1,,,,,,,,,0,,,75,0
13894,note_on,4,0,1,,,,,,,,,0,,,73,0
13920,note_on,0,0,3,,,,,,,,,2,,,54,0
13920,note_on,0,0,3,,,,,,,,,2,,,54,62
13920,note_on,0,0,3,,,,,,,,,2,,,59,0
13920,note_on,0,0,3,,,,,,,,,2,,,59,62
13920,note_on,0,0,3,,,,,,,,,2,,,63,62
13920,note_on,60,0,3,,,,,,,,,2,,,63,0
13920,note_on,26,0,1,,,,,,,,,0,,,73,62
13950,note_on,0,0,2,,,,,,,,,1,,,66,88
13950,note_on,0,0,1,,,,,,,,,0,,,71,62
13950,note_on,30,0,1,,,,,,,,,0,,,73,0
13950,note_on,90,0,2,,,,,,,,,1,,,71,0
13954,note_on,4,0,1,,,,,,,,,0,,,71,0
13980,note_on,0,0,3,,,,,,,,,2,,,54,0
13980,note_on,60,0,3,,,,,,,,,2,,,63,0
13980,note_on,0,0,3,,,,,,,,,2,,,59,62
13980,note_on,0,0,3,,,,,,,,,2,,,63,62
13980,note_on,30,0,2,,,,,,,,,1,,,66,0
13980,note_on,0,0,3,,,,,,,,,2,,,54,62
13980,note_on,26,0,1,,,,,,,,,0,,,71,62
13980,note_on,0,0,2,,,,,,,,,1,,,66,88
13980,note_on,0,0,3,,,,,,,,,2,,,59,0
14010,note_on,30,0,1,,,,,,,,,0,,,71,0
14010,note_on,0,0,1,,,,,,,,,0,,,66,62
14014,note_on,4,0,1,,,,,,,,,0,,,66,0
14040,note_on,60,0,2,,,,,,,,,1,,,66,0
14040,note_on,0,0,3,,,,,,,,,2,,,42,62
14040,note_on,60,0,3,,,,,,,,,2,,,63,0
14040,note_on,0,0,3,,,,,,,,,2,,,54,0
14040,note_on,0,0,2,,,,,,,,,1,,,66,88
14040,note_on,0,0,3,,,,,,,,,2,,,59,0
14070,note_on,30,0,2,,,,,,,,,1,,,66,0
14070,note_on,0,0,2,,,,,,,,,1,,,76,88
14070,note_on,56,0,1,,,,,,,,,0,,,80,62
14074,note_on,4,0,1,,,,,,,,,0,,,80,0
14100,note_on,30,0,2,,,,,,,,,1,,,76,0
14100,note_on,60,0,3,,,,,,,,,2,,,42,0
14100,note_on,0,0,3,,,,,,,,,2,,,54,62
14100,note_on,0,0,2,,,,,,,,,1,,,76,101
14100,note_on,0,0,3,,,,,,,,,2,,,64,62
14100,note_on,0,0,3,,,,,,,,,2,,,58,62
14100,note_on,26,0,1,,,,,,,,,0,,,80,62
14130,note_on,30,0,2,,,,,,,,,1,,,76,0
14130,note_on,0,0,2,,,,,,,,,1,,,75,101
14130,note_on,30,0,1,,,,,,,,,0,,,80,0
14130,note_on,0,0,1,,,,,,,,,0,,,78,62
14134,note_on,4,0,1,,,,,,,,,0,,,78,0
14160,note_on,26,0,1,,,,,,,,,0,,,78,62
14160,note_on,0,0,2,,,,,,,,,1,,,75,101
14160,note_on,60,0,3,,,,,,,,,2,,,64,0
14160,note_on,0,0,3,,,,,,,,,2,,,54,0
14160,note_on,0,0,3,,,,,,,,,2,,,54,62
14160,note_on,0,0,3,,,,,,,,,2,,,58,0
14160,note_on,30,0,2,,,,,,,,,1,,,75,0
14160,note_on,0,0,3,,,,,,,,,2,,,58,62
14160,note_on,0,0,3,,,,,,,,,2,,,64,62
14190,note_on,0,0,1,,,,,,,,,0,,,76,62
14190,note_on,0,0,2,,,,,,,,,1,,,73,101
14190,note_on,30,0,1,,,,,,,,,0,,,78,0
14190,note_on,30,0,2,,,,,,,,,1,,,75,0
14194,note_on,4,0,1,,,,,,,,,0,,,76,0
14220,note_on,30,0,2,,,,,,,,,1,,,73,0
14220,note_on,26,0,1,,,,,,,,,0,,,76,62
14220,note_on,0,0,3,,,,,,,,,2,,,54,62
14220,note_on,0,0,3,,,,,,,,,2,,,54,0
14220,note_on,0,0,3,,,,,,,,,2,,,58,0
14220,note_on,0,0,2,,,,,,,,,1,,,73,101
14220,note_on,60,0,3,,,,,,,,,2,,,64,0
14220,note_on,0,0,3,,,,,,,,,2,,,64,62
14220,note_on,0,0,3,,,,,,,,,2,,,58,62
14250,note_on,30,0,1,,,,,,,,,0,,,76,0
14250,note_on,0,0,1,,,,,,,,,0,,,75,62
14254,note_on,4,0,1,,,,,,,,,0,,,75,0
14280,note_on,0,0,3,,,,,,,,,2,,,58,0
14280,note_on,0,0,3,,,,,,,,,2,,,58,62
14280,note_on,0,0,3,,,,,,,,,2,,,64,62
14280,note_on,0,0,3,,,,,,,,,2,,,54,62
14280,note_on,60,0,3,,,,,,,,,2,,,64,0
14280,note_on,26,0,1,,,,,,,,,0,,,75,62
14280,note_on,0,0,3,,,,,,,,,2,,,54,0
14310,note_on,30,0,1,,,,,,,,,0,,,75,0
14310,note_on,0,0,1,,,,,,,,,0,,,73,62
14314,note_on,4,0,1,,,,,,,,,0,,,73,0
14340,note_on,0,0,2,,,,,,,,,1,,,66,88
14340,note_on,0,0,3,,,,,,,,,2,,,54,62
14340,note_on,0,0,3,,,,,,,,,2,,,54,0
14340,note_on,0,0,3,,,,,,,,,2,,,64,62
14340,note_on,120,0,2,,,,,,,,,1,,,73,0
14340,note_on,60,0,3,,,,,,,,,2,,,64,0
14340,note_on,0,0,3,,,,,,,,,2,,,58,62
14340,note_on,0,0,3,,,,,,,,,2,,,58,0
14340,note_on,26,0,1,,,,,,,,,0,,,73,62
14370,note_on,0,0,1,,,,,,,,,0,,,66,62
14370,note_on,30,0,1,,,,,,,,,0,,,73,0
14374,note_on,4,0,1,,,,,,,,,0,,,66,0
14400,note_on,60,0,2,,,,,,,,,1,,,66,0
14400,note_on,0,0,2,,,,,,,,,1,,,75,101
14400,note_on,0,0,3,,,,,,,,,2,,,58,0
14400,note_on,0,0,3,,,,,,,,,2,,,54,0
14400,note_on,0,0,3,,,,,,,,,2,,,47,75
14400,note_on,26,0,1,,,,,,,,,0,,,66,62
14400,note_on,60,0,3,,,,,,,,,2,,,64,0
14430,note_on,30,0,1,,,,,,,,,0,,,66,0
14430,note_on,0,0,1,,,,,,,,,0,,,78,62
14434,note_on,4,0,1,,,,,,,,,0,,,78,0
14460,note_on,60,0,3,,,,,,,,,2,,,47,0
14460,note_on,0,0,3,,,,,,,,,2,,,63,75
14460,note_on,0,0,3,,,,,,,,,2,,,59,75
14460,note_on,26,0,1,,,,,,,,,0,,,78,62
14460,note_on,0,0,3,,,,,,,,,2,,,54,75
14490,note_on,0,0,2,,,,,,,,,1,,,75,101
14490,note_on,90,0,2,,,,,,,,,1,,,75,0
14490,note_on,30,0,1,,,,,,,,,0,,,78,0
14494,note_on,4,0,2,,,,,,,,,1,,,75,0
14520,note_on,0,0,3,,,,,,,,,2,,,63,75
14520,note_on,0,0,3,,,,,,,,,2,,,59,0
14520,note_on,0,0,3,,,,,,,,,2,,,59,75
14520,note_on,0,0,3,,,,,,,,,2,,,54,75
14520,note_on,0,0,3,,,,,,,,,2,,,54,0
14520,note_on,26,0,2,,,,,,,,,1,,,75,101
14520,note_on,60,0,3,,,,,,,,,2,,,63,0
14526,note_on,6,0,2,,,,,,,,,1,,,75,0
14550,note_on,60,0,1,,,,,,,,,0,,,71,62
14554,note_on,4,0,1,,,,,,,,,0,,,71,0
14580,note_on,60,0,3,,,,,,,,,2,,,63,0
14580,note_on,26,0,1,,,,,,,,,0,,,68,62
14580,note_on,0,0,3,,,,,,,,,2,,,59,0
14580,note_on,0,0,3,,,,,,,,,2,,,54,0
14580,note_on,0,0,3,,,,,,,,,2,,,44,75
14580,note_on,54,0,2,,,,,,,,,1,,,75,101
14610,note_on,0,0,1,,,,,,,,,0,,,80,62
14610,note_on,30,0,1,,,,,,,,,0,,,68,0
14614,note_on,4,0,1,,,,,,,,,0,,,80,0
14640,note_on,60,0,3,,,,,,,,,2,,,44,0
14640,note_on,0,0,3,,,,,,,,,2,,,56,75
14640,note_on,0,0,3,,,,,,,,,2,,,59,75
14640,note_on,0,0,3,,,,,,,,,2,,,63,75
14640,note_on,26,0,1,,,,,,,,,0,,,80,62
14670,note_on,30,0,1,,,,,,,,,0,,,80,0
14670,note_on,0,0,1,,,,,,,,,0,,,75,62
14670,note_on,0,0,2,,,,,,,,,1,,,71,101
14670,note_on,90,0,2,,,,,,,,,1,,,75,0
14674,note_on,4,0,1,,,,,,,,,0,,,75,0
14674,note_on,4,0,2,,,,,,,,,1,,,71,0
14700,note_on,60,0,3,,,,,,,,,2,,,63,0
14700,note_on,26,0,1,,,,,,,,,0,,,75,62
14700,note_on,0,0,3,,,,,,,,,2,,,63,75
14700,note_on,0,0,3,,,,,,,,,2,,,59,75
14700,note_on,0,0,3,,,,,,,,,2,,,59,0
14700,note_on,0,0,3,,,,,,,,,2,,,56,75
14700,note_on,0,0,3,,,,,,,,,2,,,56,0
14700,note_on,26,0,2,,,,,,,,,1,,,68,101
14706,note_on,6,0,2,,,,,,,,,1,,,68,0
14730,note_on,0,0,1,,,,,,,,,0,,,71,62
14730,note_on,30,0,1,,,,,,,,,0,,,75,0
14734,note_on,4,0,1,,,,,,,,,0,,,71,0
14760,note_on,0,0,3,,,,,,,,,2,,,56,0
14760,note_on,0,0,3,,,,,,,,,2,,,51,75
14760,note_on,60,0,3,,,,,,,,,2,,,63,0
14760,note_on,54,0,2,,,,,,,,,1,,,70,101
14760,note_on,0,0,3,,,,,,,,,2,,,59,0
14766,note_on,6,0,2,,,,,,,,,1,,,70,0
14790,note_on,56,0,1,,,,,,,,,0,,,82,62
14794,note_on,4,0,1,,,,,,,,,0,,,82,0
14820,note_on,54,0,2,,,,,,,,,1,,,75,101
14820,note_on,60,0,3,,,,,,,,,2,,,51,0
14820,note_on,0,0,3,,,,,,,,,2,,,63,75
14820,note_on,0,0,3,,,,,,,,,2,,,61,75
14820,note_on,0,0,3,,,,,,,,,2,,,58,75
14820,note_on,26,0,1,,,,,,,,,0,,,82,62
14826,note_on,6,0,2,,,,,,,,,1,,,75,0
14850,note_on,0,0,1,,,,,,,,,0,,,79,62
14850,note_on,30,0,1,,,,,,,,,0,,,82,0
14854,note_on,4,0,1,,,,,,,,,0,,,79,0
14880,note_on,54,0,2,,,,,,,,,1,,,67,101
14880,note_on,26,0,1,,,,,,,,,0,,,79,62
14880,note_on,60,0,3,,,,,,,,,2,,,63,0
14880,note_on,0,0,3,,,,,,,,,2,,,61,75
14880,note_on,0,0,3,,,,,,,,,2,,,61,0
14880,note_on,0,0,3,,,,,,,,,2,,,58,75
14880,note_on,0,0,3,,,,,,,,,2,,,63,75
14880,note_on,0,0,3,,,,,,,,,2,,,58,0
14886,note_on,6,0,2,,,,,,,,,1,,,67,0
14910,note_on,30,0,1,,,,,,,,,0,,,79,0
14910,note_on,0,0,1,,,,,,,,,0,,,75,62
14914,note_on,4,0,1,,,,,,,,,0,,,75,0
14940,note_on,0,0,3,,,,,,,,,2,,,61,0
14940,note_on,54,0,2,,,,,,,,,1,,,68,101
14940,note_on,0,0,3,,,,,,,,,2,,,44,75
14940,note_on,0,0,3,,,,,,,,,2,,,58,0
14940,note_on,60,0,3,,,,,,,,,2,,,63,0
14970,note_on,56,0,1,,,,,,,,,0,,,80,62
14974,note_on,4,0,1,,,,,,,,,0,,,80,0
15000,note_on,0,0,3,,,,,,,,,2,,,59,75
15000,note_on,0,0,3,,,,,,,,,2,,,63,75
15000,note_on,60,0,3,,,,,,,,,2,,,44,0
15000,note_on,26,0,1,,,,,,,,,0,,,80,62
15000,note_on,0,0,3,,,,,,,,,2,,,56,75
15030,note_on,0,0,1,,,,,,,,,0,,,75,62
15030,note_on,30,0,1,,,,,,,,,0,,,80,0
15034,note_on,4,0,1,,,,,,,,,0,,,75,0
15060,note_on,0,0,3,,,,,,,,,2,,,56,0
15060,note_on,0,0,3,,,,,,,,,2,,,56,75
15060,note_on,26,0,1,,,,,,,,,0,,,75,62
15060,note_on,60,0,3,,,,,,,,,2,,,63,0
15060,note_on,0,0,3,,,,,,,,,2,,,59,0
15060,note_on,0,0,3,,,,,,,,,2,,,59,75
15060,note_on,0,0,3,,,,,,,,,2,,,63,75
15090,note_on,0,0,1,,,,,,,,,0,,,71,62
15090,note_on,30,0,1,,,,,,,,,0,,,75,0
15094,note_on,4,0,1,,,,,,,,,0,,,71,0
15120,note_on,0,0,3,,,,,,,,,2,,,56,0
15120,note_on,0,0,3,,,,,,,,,2,,,47,62
15120,note_on,0,0,2,,,,,,,,,1,,,66,88
15120,note_on,180,0,2,,,,,,,,,1,,,68,0
15120,note_on,0,0,3,,,,,,,,,2,,,59,0
15120,note_on,60,0,3,,,,,,,,,2,,,63,0
15150,note_on,56,0,1,,,,,,,,,0,,,78,62
15150,note_on,30,0,2,,,,,,,,,1,,,66,0
15150,note_on,0,0,2,,,,,,,,,1,,,75,88
15154,note_on,4,0,1,,,,,,,,,0,,,78,0
15180,note_on,0,0,3,,,,,,,,,2,,,59,62
15180,note_on,60,0,3,,,,,,,,,2,,,47,0
15180,note_on,0,0,3,,,,,,,,,2,,,54,62
15180,note_on,30,0,2,,,,,,,,,1,,,75,0
15180,note_on,0,0,2,,,,,,,,,1,,,75,101
15180,note_on,0,0,3,,,,,,,,,2,,,63,62
15180,note_on,26,0,1,,,,,,,,,0,,,78,62
15210,note_on,0,0,2,,,,,,,,,1,,,73,101
15210,note_on,30,0,2,,,,,,,,,1,,,75,0
15210,note_on,30,0,1,,,,,,,,,0,,,78,0
15210,note_on,0,0,1,,,,,,,,,0,,,76,62
15214,note_on,4,0,1,,,,,,,,,0,,,76,0
15240,note_on,0,0,3,,,,,,,,,2,,,54,0
15240,note_on,0,0,3,,,,,,,,,2,,,54,62
15240,note_on,0,0,2,,,,,,,,,1,,,73,101
15240,note_on,30,0,2,,,,,,,,,1,,,73,0
15240,note_on,0,0,3,,,,,,,,,2,,,59,0
15240,note_on,0,0,3,,,,,,,,,2,,,59,62
15240,note_on,0,0,3,,,,,,,,,2,,,63,62
15240,note_on,26,0,1,,,,,,,,,0,,,76,62
15240,note_on,60,0,3,,,,,,,,,2,,,63,0
15270,note_on,0,0,2,,,,,,,,,1,,,71,101
15270,note_on,30,0,1,,,,,,,,,0,,,76,0
15270,note_on,30,0,2,,,,,,,,,1,,,73,0
15270,note_on,0,0,1,,,,,,,,,0,,,75,62
15274,note_on,4,0,1,,,,,,,,,0,,,75,0
15300,note_on,0,0,3,,,,,,,,,2,,,59,62
15300,note_on,30,0,2,,,,,,,,,1,,,71,0
15300,note_on,0,0,3,,,,,,,,,2,,,54,0
15300,note_on,0,0,3,,,,,,,,,2,,,54,62
15300,note_on,0,0,3,,,,,,,,,2,,,59,0
15300,note_on,0,0,2,,,,,,,,,1,,,71,101
15300,note_on,60,0,3,,,,,,,,,2,,,63,0
15300,note_on,26,0,1,,,,,,,,,0,,,75,62
15300,note_on,0,0,3,,,,,,,,,2,,,63,62
15330,note_on,30,0,1,,,,,,,,,0,,,75,0
15330,note_on,0,0,1,,,,,,,,,0,,,73,62
15334,note_on,4,0,1,,,,,,,,,0,,,73,0
15360,note_on,0,0,3,,,,,,,,,2,,,54,0
15360,note_on,0,0,3,,,,,,,,,2,,,54,62
15360,note_on,0,0,3,,,,,,,,,2,,,59,0
15360,note_on,0,0,3,,,,,,,,,2,,,63,62
15360,note_on,60,0,3,,,,,,,,,2,,,63,0
15360,note_on,26,0,1,,,,,,,,,0,,,73,62
15360,note_on,0,0,3,,,,,,,,,2,,,59,62
15390,note_on,0,0,2,,,,,,,,,1,,,66,88
15390,note_on,0,0,1,,,,,,,,,0,,,71,62
15390,note_on,90,0,2,,,,,,,,,1,,,71,0
15390,note_on,30,0,1,,,,,,,,,0,,,73,0
15394,note_on,4,0,1,,,,,,,,,0,,,71,0
15420,note_on,0,0,3,,,,,,,,,2,,,63,62
15420,note_on,0,0,3,,,,,,,,,2,,,59,62
15420,note_on,0,0,3,,,,,,,,,2,,,59,0
15420,note_on,0,0,3,,,,,,,,,2,,,54,62
15420,note_on,0,0,3,,,,,,,,,2,,,54,0
15420,note_on,30,0,2,,,,,,,,,1,,,66,0
15420,note_on,0,0,2,,,,,,,,,1,,,66,88
15420,note_on,60,0,3,,,,,,,,,2,,,63,0
15420,note_on,26,0,1,,,,,,,,,0,,,71,62
15450,note_on,30,0,1,,,,,,,,,0,,,71,0
15450,note_on,0,0,1,,,,,,,,,0,,,66,62
15454,note_on,4,0,1,,,,,,,,,0,,,66,0
15480,note_on,0,0,2,,,,,,,,,1,,,66,88
15480,note_on,60,0,2,,,,,,,,,1,,,66,0
15480,note_on,0,0,3,,,,,,,,,2,,,42,62
15480,note_on,0,0,3,,,,,,,,,2,,,54,0
15480,note_on,0,0,3,,,,,,,,,2,,,59,0
15480,note_on,60,0,3,,,,,,,,,2,,,63,0
15510,note_on,56,0,1,,,,,,,,,0,,,80,62
15510,note_on,0,0,2,,,,,,,,,1,,,76,88
15510,note_on,30,0,2,,,,,,,,,1,,,66,0
15514,note_on,4,0,1,,,,,,,,,0,,,80,0
15540,note_on,0,0,3,,,,,,,,,2,,,54,62
15540,note_on,0,0,3,,,,,,,,,2,,,64,62
15540,note_on,0,0,2,,,,,,,,,1,,,76,101
15540,note_on,0,0,3,,,,,,,,,2,,,58,62
15540,note_on,60,0,3,,,,,,,,,2,,,42,0
15540,note_on,26,0,1,,,,,,,,,0,,,80,62
15540,note_on,30,0,2,,,,,,,,,1,,,76,0
15570,note_on,30,0,2,,,,,,,,,1,,,76,0
15570,note_on,30,0,1,,,,,,,,,0,,,80,0
15570,note_on,0,0,2,,,,,,,,,1,,,75,101
15570,note_on,0,0,1,,,,,,,,,0,,,78,62
15574,note_on,4,0,1,,,,,,,,,0,,,78,0
15600,note_on,26,0,1,,,,,,,,,0,,,78,62
15600,note_on,30,0,2,,,,,,,,,1,,,75,0
15600,note_on,60,0,3,,,,,,,,,2,,,64,0
15600,note_on,0,0,3,,,,,,,,,2,,,64,62
15600,note_on,0,0,3,,,,,,,,,2,,,58,62
15600,note_on,0,0,3,,,,,,,,,2,,,58,0
15600,note_on,0,0,3,,,,,,,,,2,,,54,62
15600,note_on,0,0,3,,,,,,,,,2,,,54,0
15600,note_on,0,0,2,,,,,,,,,1,,,75,101
15630,note_on,0,0,1,,,,,,,,,0,,,76,62
15630,note_on,0,0,2,,,,,,,,,1,,,73,101
15630,note_on,30,0,1,,,,,,,,,0,,,78,0
15630,note_on,30,0,2,,,,,,,,,1,,,75,0
15634,note_on,4,0,1,,,,,,,,,0,,,76,0
15660,note_on,30,0,2,,,,,,,,,1,,,73,0
15660,note_on,0,0,3,,,,,,,,,2,,,54,0
15660,note_on,0,0,3,,,,,,,,,2,,,58,62
15660,note_on,0,0,2,,,,,,,,,1,,,73,101
15660,note_on,0,0,3,,,,,,,,,2,,,58,0
15660,note_on,0,0,3,,,,,,,,,2,,,54,62
15660,note_on,60,0,3,,,,,,,,,2,,,64,0
15660,note_on,26,0,1,,,,,,,,,0,,,76,62
15660,note_on,0,0,3,,,,,,,,,2,,,64,62
15690,note_on,0,0,1,,,,,,,,,0,,,75,62
15690,note_on,30,0,1,,,,,,,,,0,,,76,0
15694,note_on,4,0,1,,,,,,,,,0,,,75,0
15720,note_on,0,0,3,,,,,,,,,2,,,58,0
15720,note_on,0,0,3,,,,,,,,,2,,,54,0
15720,note_on,0,0,3,,,,,,,,,2,,,54,62
15720,note_on,0,0,3,,,,,,,,,2,,,58,62
15720,note_on,26,0,1,,,,,,,,,0,,,75,62
15720,note_on,0,0,3,,,,,,,,,2,,,64,62
15720,note_on,60,0,3,,,,,,,,,2,,,64,0
15750,note_on,30,0,1,,,,,,,,,0,,,75,0
15750,note_on,0,0,1,,,,,,,,,0,,,73,62
15754,note_on,4,0,1,,,,,,,,,0,,,73,0
15780,note_on,0,0,3,,,,,,,,,2,,,54,0
15780,note_on,0,0,3,,,,,,,,,2,,,54,62
15780,note_on,60,0,3,,,,,,,,,2,,,64,0
15780,note_on,0,0,3,,,,,,,,,2,,,58,0
15780,note_on,0,0,3,,,,,,,,,2,,,64,62
15780,note_on,0,0,3,,,,,,,,,2,,,58,62
15780,note_on,0,0,2,,,,,,,,,1,,,66,88
15780,note_on,120,0,2,,,,,,,,,1,,,73,0
15780,note_on,26,0,1,,,,,,,,,0,,,73,62
15810,note_on,0,0,1,,,,,,,,,0,,,66,62
15810,note_on,30,0,1,,,,,,,,,0,,,73,0
15814,note_on,4,0,1,,,,,,,,,0,,,66,0
15840,note_on,60,0,3,,,,,,,,,2,,,64,0
15840,note_on,0,0,2,,,,,,,,,1,,,75,101
15840,note_on,60,0,2,,,,,,,,,1,,,66,0
15840,note_on,0,0,3,,,,,,,,,2,,,47,75
15840,note_on,0,0,3,,,,,,,,,2,,,58,0
15840,note_on,26,0,1,,,,,,,,,0,,,66,62
15840,note_on,0,0,3,,,,,,,,,2,,,54,0
15870,note_on,0,0,1,,,,,,,,,0,,,78,62
15870,note_on,30,0,1,,,,,,,,,0,,,66,0
15874,note_on,4,0,1,,,,,,,,,0,,,78,0
15900,note_on,60,0,3,,,,,,,,,2,,,47,0
15900,note_on,26,0,1,,,,,,,,,0,,,78,62
15900,note_on,0,0,3,,,,,,,,,2,,,59,75
15900,note_on,0,0,3,,,,,,,,,2,,,54,75
15900,note_on,0,0,3,,,,,,,,,2,,,63,75
15930,note_on,30,0,1,,,,,,,,,0,,,78,0
15930,note_on,90,0,2,,,,,,,,,1,,,75,0
15930,note_on,0,0,2,,,,,,,,,1,,,75,101
15934,note_on,4,0,2,,,,,,,,,1,,,75,0
15960,note_on,0,0,3,,,,,,,,,2,,,59,0
15960,note_on,0,0,3,,,,,,,,,2,,,54,0
15960,note_on,60,0,3,,,,,,,,,2,,,63,0
15960,note_on,0,0,3,,,,,,,,,2,,,59,75
15960,note_on,0,0,3,,,,,,,,,2,,,54,75
15960,note_on,26,0,2,,,,,,,,,1,,,75,101
15960,note_on,0,0,3,,,,,,,,,2,,,63,75
15966,note_on,6,0,2,,,,,,,,,1,,,75,0
15990,note_on,60,0,1,,,,,,,,,0,,,71,62
15994,note_on,4,0,1,,,,,,,,,0,,,71,0
16020,note_on,0,0,3,,,,,,,,,2,,,54,0
16020,note_on,0,0,3,,,,,,,,,2,,,44,75
16020,note_on,26,0,1,,,,,,,,,0,,,68,62
16020,note_on,0,0,3,,,,,,,,,2,,,59,0
16020,note_on,60,0,3,,,,,,,,,2,,,63,0
16020,note_on,54,0,2,,,,,,,,,1,,,75,101
16050,note_on,0,0,1,,,,,,,,,0,,,80,62
16050,note_on,30,0,1,,,,,,,,,0,,,68,0
16054,note_on,4,0,1,,,,,,,,,0,,,80,0
16080,note_on,0,0,3,,,,,,,,,2,,,59,75
16080,note_on,60,0,3,,,,,,,,,2,,,44,0
16080,note_on,0,0,3,,,,,,,,,2,,,63,75
16080,note_on,26,0,1,,,,,,,,,0,,,80,62
16080,note_on,0,0,3,,,,,,,,,2,,,56,75
16110,note_on,90,0,2,,,,,,,,,1,,,75,0
16110,note_on,30,0,1,,,,,,,,,0,,,80,0
16110,note_on,0,0,2,,,,,,,,,1,,,71,101
16110,note_on,0,0,1,,,,,,,,,0,,,75,62
16114,note_on,4,0,2,,,,,,,,,1,,,71,0
16114,note_on,4,0,1,,,,,,,,,0,,,75,0
16140,note_on,26,0,1,,,,,,,,,0,,,75,62
16140,note_on,0,0,3,,,,,,,,,2,,,63,75
16140,note_on,0,0,3,,,,,,,,,2,,,59,0
16140,note_on,0,0,3,,,,,,,,,2,,,56,75
16140,note_on,0,0,3,,,,,,,,,2,,,56,0
16140,note_on,60,0,3,,,,,,,,,2,,,63,0
16140,note_on,26,0,2,,,,,,,,,1,,,68,101
16140,note_on,0,0,3,,,,,,,,,2,,,59,75
16146,note_on,6,0,2,,,,,,,,,1,,,68,0
16170,note_on,0,0,1,,,,,,,,,0,,,71,62
16170,note_on,30,0,1,,,,,,,,,0,,,75,0
16174,note_on,4,0,1,,,,,,,,,0,,,71,0
16200,note_on,60,0,3,,,,,,,,,2,,,63,0
16200,note_on,0,0,3,,,,,,,,,2,,,59,0
16200,note_on,0,0,3,,,,,,,,,2,,,56,0
16200,note_on,0,0,3,,,,,,,,,2,,,51,75
16200,note_on,54,0,2,,,,,,,,,1,,,70,101
16206,note_on,6,0,2,,,,,,,,,1,,,70,0
16230,note_on,56,0,1,,,,,,,,,0,,,82,62
16234,note_on,4,0,1,,,,,,,,,0,,,82,0
16260,note_on,60,0,3,,,,,,,,,2,,,51,0
16260,note_on,54,0,2,,,,,,,,,1,,,75,101
16260,note_on,0,0,3,,,,,,,,,2,,,58,75
16260,note_on,0,0,3,,,,,,,,,2,,,61,75
16260,note_on,0,0,3,,,,,,,,,2,,,63,75
16260,note_on,26,0,1,,,,,,,,,0,,,82,62
16266,note_on,6,0,2,,,,,,,,,1,,,75,0
16290,note_on,30,0,1,,,,,,,,,0,,,82,0
16290,note_on,0,0,1,,,,,,,,,0,,,79,62
16294,note_on,4,0,1,,,,,,,,,0,,,79,0
16320,note_on,26,0,1,,,,,,,,,0,,,79,62
16320,note_on,0,0,3,,,,,,,,,2,,,58,0
16320,note_on,0,0,3,,,,,,,,,2,,,61,0
16320,note_on,0,0,3,,,,,,,,,2,,,58,75
16320,note_on,0,0,3,,,,,,,,,2,,,61,75
16320,note_on,0,0,3,,,,,,,,,2,,,63,75
16320,note_on,60,0,3,,,,,,,,,2,,,63,0
16320,note_on,54,0,2,,,,,,,,,1,,,67,101
16326,note_on,6,0,2,,,,,,,,,1,,,67,0
16350,note_on,0,0,1,,,,,,,,,0,,,75,62
16350,note_on,30,0,1,,,,,,,,,0,,,79,0
16354,note_on,4,0,1,,,,,,,,,0,,,75,0
16380,note_on,54,0,2,,,,,,,,,1,,,68,101
16380,note_on,0,0,3,,,,,,,,,2,,,44,75
16380,note_on,0,0,3,,,,,,,,,2,,,58,0
16380,note_on,0,0,3,,,,,,,,,2,,,61,0
16380,note_on,60,0,3,,,,,,,,,2,,,63,0
16410,note_on,56,0,1,,,,,,,,,0,,,80,62
16414,note_on,4,0,1,,,,,,,,,0,,,80,0
16440,note_on,0,0,3,,,,,,,,,2,,,63,75
16440,note_on,0,0,3,,,,,,,,,2,,,59,75
16440,note_on,0,0,3,,,,,,,,,2,,,56,75
16440,note_on,26,0,1,,,,,,,,,0,,,80,62
16440,note_on,60,0,3,,,,,,,,,2,,,44,0
16470,note_on,30,0,1,,,,,,,,,0,,,80,0
16470,note_on,0,0,1,,,,,,,,,0,,,75,62
16474,note_on,4,0,1,,,,,,,,,0,,,75,0
16500,note_on,60,0,3,,,,,,,,,2,,,63,0
16500,note_on,0,0,3,,,,,,,,,2,,,56,0
16500,note_on,0,0,3,,,,,,,,,2,,,56,75
16500,note_on,0,0,3,,,,,,,,,2,,,63,75
16500,note_on,0,0,3,,,,,,,,,2,,,59,75
16500,note_on,26,0,1,,,,,,,,,0,,,75,62
16500,note_on,0,0,3,,,,,,,,,2,,,59,0
16530,note_on,30,0,1,,,,,,,,,0,,,75,0
16530,note_on,0,0,1,,,,,,,,,0,,,71,62
16534,note_on,4,0,1,,,,,,,,,0,,,71,0
16560,note_on,0,0,3,,,,,,,,,2,,,48,49
16560,note_on,0,0,3,,,,,,,,,2,,,56,0
16560,note_on,180,0,2,,,,,,,,,1,,,68,0
16560,note_on,60,0,3,,,,,,,,,2,,,63,0
16560,note_on,0,0,1,,,,,,,,,0,,,69,49
16560,note_on,0,0,3,,,,,,,,,2,,,59,0
16560,control_change,26,0,1,,,,,,,,,0,64,127,,
16560,control_change,0,0,3,,,,,,,,,2,64,127,,
16590,note_on,0,0,1,,,,,,,,,0,,,78,49
16590,note_on,30,0,1,,,,,,,,,0,,,69,0
16594,note_on,4,0,1,,,,,,,,,0,,,78,0
16620,note_on,26,0,1,,,,,,,,,0,,,78,62
16620,note_on,60,0,3,,,,,,,,,2,,,48,0
16620,note_on,0,0,3,,,,,,,,,2,,,63,62
16620,note_on,0,0,3,,,,,,,,,2,,,66,62
16620,note_on,0,0,3,,,,,,,,,2,,,57,62
16650,note_on,0,0,1,,,,,,,,,0,,,76,62
16650,note_on,30,0,1,,,,,,,,,0,,,78,0
16654,note_on,4,0,1,,,,,,,,,0,,,76,0
16680,note_on,0,0,3,,,,,,,,,2,,,57,0
16680,note_on,26,0,1,,,,,,,,,0,,,76,75
16680,note_on,0,0,3,,,,,,,,,2,,,57,75
16680,note_on,0,0,3,,,,,,,,,2,,,63,0
16680,note_on,0,0,3,,,,,,,,,2,,,63,75
16680,note_on,0,0,3,,,,,,,,,2,,,66,75
16680,note_on,60,0,3,,,,,,,,,2,,,66,0
16710,note_on,30,0,1,,,,,,,,,0,,,76,0
16710,note_on,0,0,1,,,,,,,,,0,,,75,75
16714,note_on,4,0,1,,,,,,,,,0,,,75,0
16740,note_on,0,0,3,,,,,,,,,2,,,63,75
16740,note_on,0,0,3,,,,,,,,,2,,,63,0
16740,note_on,0,0,3,,,,,,,,,2,,,57,75
16740,note_on,0,0,3,,,,,,,,,2,,,57,0
16740,note_on,60,0,3,,,,,,,,,2,,,66,0
16740,note_on,26,0,1,,,,,,,,,0,,,75,75
16740,note_on,0,0,3,,,,,,,,,2,,,66,75
16770,note_on,30,0,1,,,,,,,,,0,,,75,0
16770,note_on,0,0,1,,,,,,,,,0,,,74,75
16774,note_on,4,0,1,,,,,,,,,0,,,74,0
16800,note_on,0,0,3,,,,,,,,,2,,,63,0
16800,note_on,0,0,3,,,,,,,,,2,,,57,62
16800,note_on,26,0,1,,,,,,,,,0,,,74,62
16800,note_on,0,0,3,,,,,,,,,2,,,66,62
16800,note_on,0,0,3,,,,,,,,,2,,,63,62
16800,note_on,0,0,3,,,,,,,,,2,,,57,0
16800,note_on,60,0,3,,,,,,,,,2,,,66,0
16830,note_on,30,0,1,,,,,,,,,0,,,74,0
16830,note_on,0,0,1,,,,,,,,,0,,,75,62
16834,note_on,4,0,1,,,,,,,,,0,,,75,0
16860,note_on,0,0,3,,,,,,,,,2,,,63,0
16860,note_on,0,0,3,,,,,,,,,2,,,57,49
16860,note_on,0,0,3,,,,,,,,,2,,,57,0
16860,note_on,0,0,3,,,,,,,,,2,,,63,49
16860,note_on,0,0,3,,,,,,,,,2,,,66,49
16860,control_change,0,0,3,,,,,,,,,2,64,0,,
16860,note_on,60,0,3,,,,,,,,,2,,,66,0
16860,note_on,26,0,1,,,,,,,,,0,,,75,49
16890,control_change,0,0,1,,,,,,,,,0,64,0,,
16890,note_on,0,0,1,,,,,,,,,0,,,69,49
16890,note_on,30,0,1,,,,,,,,,0,,,75,0
16894,note_on,4,0,1,,,,,,,,,0,,,69,0
16920,note_on,0,0,3,,,,,,,,,2,,,48,49
16920,note_on,0,0,3,,,,,,,,,2,,,57,0
16920,note_on,0,0,3,,,,,,,,,2,,,63,0
16920,note_on,26,0,1,,,,,,,,,0,,,69,49
16920,note_on,60,0,3,,,,,,,,,2,,,66,0
16920,note_on,360,0,2,,,,,,,,,1,,,75,101
16920,control_change,0,0,3,,,,,,,,,2,64,127,,
16950,note_on,0,0,1,,,,,,,,,0,,,78,49
16950,note_on,30,0,1,,,,,,,,,0,,,69,0
16954,note_on,4,0,1,,,,,,,,,0,,,78,0
16980,note_on,0,0,3,,,,,,,,,2,,,63,62
16980,note_on,0,0,3,,,,,,,,,2,,,66,62
16980,note_on,60,0,3,,,,,,,,,2,,,48,0
16980,note_on,26,0,1,,,,,,,,,0,,,78,49
16980,note_on,0,0,3,,,,,,,,,2,,,57,62
17010,note_on,0,0,2,,,,,,,,,1,,,76,101
17010,note_on,30,0,1,,,,,,,,,0,,,78,0
17010,note_on,90,0,2,,,,,,,,,1,,,75,0
17040,note_on,30,0,1,,,,,,,,,0,,,76,49
17040,note_on,60,0,3,,,,,,,,,2,,,66,0
17040,note_on,0,0,3,,,,,,,,,2,,,57,0
17040,note_on,0,0,3,,,,,,,,,2,,,57,75
17040,note_on,0,0,3,,,,,,,,,2,,,63,0
17040,note_on,0,0,3,,,,,,,,,2,,,63,75
17040,note_on,0,0,3,,,,,,,,,2,,,66,75
17070,note_on,30,0,1,,,,,,,,,0,,,76,0
17070,note_on,0,0,2,,,,,,,,,1,,,75,101
17070,note_on,60,0,2,,,,,,,,,1,,,76,0
17100,note_on,30,0,1,,,,,,,,,0,,,75,49
17100,note_on,60,0,3,,,,,,,,,2,,,66,0
17100,note_on,0,0,3,,,,,,,,,2,,,63,75
17100,note_on,0,0,3,,,,,,,,,2,,,63,0
17100,note_on,0,0,3,,,,,,,,,2,,,57,75
17100,note_on,0,0,3,,,,,,,,,2,,,66,75
17100,note_on,30,0,2,,,,,,,,,1,,,75,0
17100,note_on,0,0,2,,,,,,,,,1,,,78,101
17100,note_on,0,0,3,,,,,,,,,2,,,57,0
17130,note_on,0,0,1,,,,,,,,,0,,,73,49
17130,note_on,30,0,1,,,,,,,,,0,,,75,0
17134,note_on,4,0,1,,,,,,,,,0,,,73,0
17160,note_on,60,0,3,,,,,,,,,2,,,66,0
17160,note_on,26,0,1,,,,,,,,,0,,,73,49
17160,note_on,0,0,3,,,,,,,,,2,,,63,62
17160,note_on,0,0,3,,,,,,,,,2,,,63,0
17160,note_on,0,0,3,,,,,,,,,2,,,57,62
17160,note_on,0,0,3,,,,,,,,,2,,,57,0
17160,note_on,0,0,3,,,,,,,,,2,,,66,62
17190,note_on,0,0,2,,,,,,,,,1,,,76,101
17190,note_on,30,0,1,,,,,,,,,0,,,73,0
17190,note_on,90,0,2,,,,,,,,,1,,,78,0
17220,note_on,60,0,3,,,,,,,,,2,,,66,0
17220,note_on,30,0,2,,,,,,,,,1,,,76,0
17220,control_change,0,0,3,,,,,,,,,2,64,0,,
17220,note_on,0,0,2,,,,,,,,,1,,,75,101
17220,note_on,0,0,3,,,,,,,,,2,,,66,49
17220,note_on,0,0,3,,,,,,,,,2,,,63,49
17220,note_on,0,0,3,,,,,,,,,2,,,63,0
17220,note_on,0,0,3,,,,,,,,,2,,,57,49
17220,note_on,0,0,3,,,,,,,,,2,,,57,0
17250,note_on,60,0,1,,,,,,,,,0,,,69,49
17254,note_on,4,0,1,,,,,,,,,0,,,69,0
17280,note_on,0,0,3,,,,,,,,,2,,,63,0
17280,note_on,0,0,3,,,,,,,,,2,,,57,0
17280,note_on,0,0,3,,,,,,,,,2,,,48,49
17280,note_on,60,0,2,,,,,,,,,1,,,75,0
17280,note_on,0,0,2,,,,,,,,,1,,,75,75
17280,note_on,60,0,3,,,,,,,,,2,,,66,0
17280,note_on,26,0,1,,,,,,,,,0,,,69,49
17310,note_on,0,0,1,,,,,,,,,0,,,78,49
17310,note_on,30,0,1,,,,,,,,,0,,,69,0
17314,note_on,4,0,1,,,,,,,,,0,,,78,0
17340,note_on,60,0,3,,,,,,,,,2,,,48,0
17340,note_on,26,0,1,,,,,,,,,0,,,78,49
17340,note_on,0,0,3,,,,,,,,,2,,,66,49
17340,note_on,0,0,3,,,,,,,,,2,,,63,49
17340,note_on,0,0,3,,,,,,,,,2,,,57,49
17370,note_on,30,0,1,,,,,,,,,0,,,78,0
17370,note_on,0,0,2,,,,,,,,,1,,,74,75
17370,note_on,90,0,2,,,,,,,,,1,,,75,0
17400,note_on,30,0,1,,,,,,,,,0,,,74,49
17400,note_on,60,0,3,,,,,,,,,2,,,66,0
17400,note_on,0,0,3,,,,,,,,,2,,,66,49
17400,note_on,0,0,3,,,,,,,,,2,,,57,49
17400,note_on,0,0,3,,,,,,,,,2,,,63,0
17400,note_on,0,0,3,,,,,,,,,2,,,63,49
17400,note_on,0,0,3,,,,,,,,,2,,,57,0
17430,note_on,60,0,2,,,,,,,,,1,,,74,0
17430,note_on,30,0,1,,,,,,,,,0,,,74,0
17430,note_on,0,0,2,,,,,,,,,1,,,75,75
17460,note_on,30,0,2,,,,,,,,,1,,,75,0
17460,note_on,0,0,3,,,,,,,,,2,,,63,0
17460,note_on,60,0,3,,,,,,,,,2,,,66,0
17460,note_on,30,0,1,,,,,,,,,0,,,68,49
17460,note_on,0,0,2,,,,,,,,,1,,,76,75
17460,note_on,0,0,3,,,,,,,,,2,,,49,49
17460,note_on,0,0,3,,,,,,,,,2,,,57,0
17490,note_on,30,0,1,,,,,,,,,0,,,68,0
17490,note_on,0,0,1,,,,,,,,,0,,,72,49
17494,note_on,4,0,1,,,,,,,,,0,,,72,0
17520,note_on,26,0,1,,,,,,,,,0,,,72,49
17520,note_on,0,0,3,,,,,,,,,2,,,64,49
17520,note_on,0,0,3,,,,,,,,,2,,,61,49
17520,note_on,0,0,3,,,,,,,,,2,,,56,49
17520,note_on,60,0,3,,,,,,,,,2,,,49,0
17550,note_on,0,0,1,,,,,,,,,0,,,73,49
17550,note_on,90,0,2,,,,,,,,,1,,,76,0
17550,note_on,30,0,1,,,,,,,,,0,,,72,0
17554,note_on,4,0,1,,,,,,,,,0,,,73,0
17580,note_on,30,0,2,,,,,,,,,1,,,73,75
17580,note_on,0,0,3,,,,,,,,,2,,,64,49
17580,note_on,0,0,3,,,,,,,,,2,,,61,49
17580,note_on,0,0,3,,,,,,,,,2,,,61,0
17580,note_on,0,0,3,,,,,,,,,2,,,56,49
17580,note_on,0,0,3,,,,,,,,,2,,,56,0
17580,note_on,60,0,3,,,,,,,,,2,,,64,0
17610,note_on,56,0,1,,,,,,,,,0,,,68,49
17614,note_on,4,0,1,,,,,,,,,0,,,68,0
17640,note_on,60,0,2,,,,,,,,,1,,,73,0
17640,note_on,26,0,1,,,,,,,,,0,,,68,49
17640,note_on,0,0,3,,,,,,,,,2,,,37,62
17640,note_on,0,0,3,,,,,,,,,2,,,56,0
17640,note_on,0,0,2,,,,,,,,,1,,,73,75
17640,note_on,60,0,3,,,,,,,,,2,,,64,0
17640,note_on,0,0,3,,,,,,,,,2,,,61,0
17670,note_on,30,0,1,,,,,,,,,0,,,68,0
17670,note_on,0,0,1,,,,,,,,,0,,,64,49
17674,note_on,4,0,1,,,,,,,,,0,,,64,0
17700,note_on,26,0,1,,,,,,,,,0,,,64,49
17700,note_on,0,0,3,,,,,,,,,2,,,52,62
17700,note_on,0,0,3,,,,,,,,,2,,,56,62
17700,note_on,0,0,3,,,,,,,,,2,,,49,62
17700,note_on,60,0,3,,,,,,,,,2,,,37,0
17730,note_on,0,0,2,,,,,,,,,1,,,68,75
17730,note_on,90,0,2,,,,,,,,,1,,,73,0
17730,note_on,0,0,1,,,,,,,,,0,,,63,49
17730,note_on,30,0,1,,,,,,,,,0,,,64,0
17734,note_on,4,0,2,,,,,,,,,1,,,68,0
17734,note_on,4,0,1,,,,,,,,,0,,,63,0
17760,note_on,60,0,3,,,,,,,,,2,,,56,0
17760,note_on,0,0,3,,,,,,,,,2,,,49,62
17760,note_on,0,0,3,,,,,,,,,2,,,52,62
17760,note_on,26,0,2,,,,,,,,,1,,,68,75
17760,note_on,26,0,1,,,,,,,,,0,,,63,49
17760,note_on,0,0,3,,,,,,,,,2,,,49,0
17760,note_on,0,0,3,,,,,,,,,2,,,56,62
17760,note_on,0,0,3,,,,,,,,,2,,,52,0
17766,note_on,6,0,2,,,,,,,,,1,,,68,0
17790,note_on,30,0,1,,,,,,,,,0,,,63,0
17790,note_on,0,0,1,,,,,,,,,0,,,61,49
17794,note_on,4,0,1,,,,,,,,,0,,,61,0
17820,note_on,60,0,3,,,,,,,,,2,,,56,0
17820,note_on,54,0,2,,,,,,,,,1,,,76,75
17820,note_on,0,0,3,,,,,,,,,2,,,37,62
17820,note_on,0,0,3,,,,,,,,,2,,,49,0
17820,note_on,0,0,3,,,,,,,,,2,,,52,0
17820,note_on,26,0,1,,,,,,,,,0,,,73,49
17850,note_on,0,0,1,,,,,,,,,0,,,68,49
17850,note_on,30,0,1,,,,,,,,,0,,,73,0
17854,note_on,4,0,1,,,,,,,,,0,,,68,0
17880,note_on,0,0,3,,,,,,,,,2,,,56,62
17880,note_on,0,0,3,,,,,,,,,2,,,61,62
17880,note_on,0,0,3,,,,,,,,,2,,,52,62
17880,note_on,26,0,1,,,,,,,,,0,,,68,49
17880,note_on,60,0,3,,,,,,,,,2,,,37,0
17910,note_on,30,0,1,,,,,,,,,0,,,68,0
17910,note_on,90,0,2,,,,,,,,,1,,,76,0
17910,note_on,0,0,1,,,,,,,,,0,,,66,49
17910,note_on,0,0,2,,,,,,,,,1,,,75,75
17914,note_on,4,0,1,,,,,,,,,0,,,66,0
17914,note_on,4,0,2,,,,,,,,,1,,,75,0
17940,note_on,0,0,3,,,,,,,,,2,,,52,0
17940,note_on,60,0,3,,,,,,,,,2,,,61,0
17940,note_on,26,0,1,,,,,,,,,0,,,66,49
17940,note_on,0,0,3,,,,,,,,,2,,,56,0
17940,note_on,0,0,3,,,,,,,,,2,,,56,62
17940,note_on,0,0,3,,,,,,,,,2,,,61,62
17940,note_on,26,0,2,,,,,,,,,1,,,73,75
17940,note_on,0,0,3,,,,,,,,,2,,,52,62
17946,note_on,6,0,2,,,,,,,,,1,,,73,0
17970,note_on,0,0,1,,,,,,,,,0,,,64,49
17970,note_on,30,0,1,,,,,,,,,0,,,66,0
17974,note_on,4,0,1,,,,,,,,,0,,,64,0
18000,note_on,60,0,3,,,,,,,,,2,,,61,0
18000,note_on,26,0,1,,,,,,,,,0,,,73,75
18000,note_on,54,0,2,,,,,,,,,1,,,67,62
18000,note_on,0,0,3,,,,,,,,,2,,,39,62
18000,note_on,0,0,3,,,,,,,,,2,,,52,0
18000,note_on,0,0,3,,,,,,,,,2,,,56,0
18030,note_on,0,0,2,,,,,,,,,1,,,64,62
18030,note_on,30,0,2,,,,,,,,,1,,,67,0
18034,note_on,4,0,2,,,,,,,,,1,,,64,0
18060,note_on,0,0,3,,,,,,,,,2,,,55,62
18060,note_on,0,0,3,,,,,,,,,2,,,51,62
18060,note_on,26,0,2,,,,,,,,,1,,,64,62
18060,note_on,60,0,3,,,,,,,,,2,,,39,0
18090,note_on,0,0,1,,,,,,,,,0,,,71,75
18090,note_on,90,0,1,,,,,,,,,0,,,73,0
18090,note_on,0,0,2,,,,,,,,,1,,,63,62
18090,note_on,30,0,2,,,,,,,,,1,,,64,0
18094,note_on,4,0,1,,,,,,,,,0,,,71,0
18094,note_on,4,0,2,,,,,,,,,1,,,63,0
18120,note_on,60,0,3,,,,,,,,,2,,,55,0
18120,note_on,0,0,3,,,,,,,,,2,,,55,62
18120,note_on,26,0,2,,,,,,,,,1,,,63,62
18120,note_on,0,0,3,,,,,,,,,2,,,51,62
18120,note_on,0,0,3,,,,,,,,,2,,,51,0
18120,note_on,26,0,1,,,,,,,,,0,,,70,75
18126,note_on,6,0,1,,,,,,,,,0,,,70,0
18150,note_on,0,0,2,,,,,,,,,1,,,61,62
18150,note_on,30,0,2,,,,,,,,,1,,,63,0
18154,note_on,4,0,2,,,,,,,,,1,,,61,0
18180,note_on,0,0,3,,,,,,,,,2,,,44,62
18180,note_on,0,0,3,,,,,,,,,2,,,51,0
18180,note_on,26,0,2,,,,,,,,,1,,,59,62
18180,note_on,54,0,1,,,,,,,,,0,,,68,75
18180,note_on,60,0,3,,,,,,,,,2,,,55,0
18210,note_on,30,0,2,,,,,,,,,1,,,59,0
18210,note_on,0,0,2,,,,,,,,,1,,,63,62
18214,note_on,4,0,2,,,,,,,,,1,,,63,0
18240,note_on,26,0,2,,,,,,,,,1,,,63,62
18240,note_on,60,0,3,,,,,,,,,2,,,44,0
18240,note_on,0,0,3,,,,,,,,,2,,,51,62
18240,note_on,0,0,3,,,,,,,,,2,,,56,62
18270,note_on,30,0,2,,,,,,,,,1,,,63,0
18270,note_on,0,0,2,,,,,,,,,1,,,71,62
18274,note_on,4,0,2,,,,,,,,,1,,,71,0
18300,note_on,60,0,3,,,,,,,,,2,,,56,0
18300,note_on,26,0,2,,,,,,,,,1,,,71,62
18300,note_on,0,0,3,,,,,,,,,2,,,51,0
18300,note_on,120,0,1,,,,,,,,,0,,,68,0
18300,note_on,0,0,3,,,,,,,,,2,,,59,62
18300,note_on,0,0,3,,,,,,,,,2,,,56,62
18300,note_on,0,0,3,,,,,,,,,2,,,51,62
18330,note_on,30,0,2,,,,,,,,,1,,,71,0
18330,note_on,0,0,2,,,,,,,,,1,,,68,62
18334,note_on,4,0,2,,,,,,,,,1,,,68,0
18360,note_on,26,0,2,,,,,,,,,1,,,63,62
18360,note_on,60,0,3,,,,,,,,,2,,,59,0
18360,note_on,60,0,1,,,,,,,,,0,,,75,101
18360,note_on,0,0,3,,,,,,,,,2,,,56,0
18360,note_on,0,0,3,,,,,,,,,2,,,39,62
18360,note_on,0,0,3,,,,,,,,,2,,,51,0
18390,note_on,30,0,2,,,,,,,,,1,,,63,0
18390,note_on,0,0,2,,,,,,,,,1,,,73,62
18394,note_on,4,0,2,,,,,,,,,1,,,73,0
18420,note_on,0,0,3,,,,,,,,,2,,,55,62
18420,note_on,26,0,2,,,,,,,,,1,,,73,62
18420,note_on,0,0,3,,,,,,,,,2,,,61,62
18420,note_on,60,0,3,,,,,,,,,2,,,39,0
18420,note_on,0,0,3,,,,,,,,,2,,,51,62
18450,note_on,0,0,2,,,,,,,,,1,,,71,62
18450,note_on,30,0,2,,,,,,,,,1,,,73,0
18454,note_on,4,0,2,,,,,,,,,1,,,71,0
18480,note_on,0,0,3,,,,,,,,,2,,,61,62
18480,note_on,0,0,3,,,,,,,,,2,,,55,62
18480,note_on,0,0,3,,,,,,,,,2,,,55,0
18480,note_on,26,0,2,,,,,,,,,1,,,71,62
18480,note_on,0,0,3,,,,,,,,,2,,,51,62
18480,note_on,0,0,3,,,,,,,,,2,,,51,0
18480,note_on,60,0,3,,,,,,,,,2,,,61,0
18510,note_on,30,0,2,,,,,,,,,1,,,71,0
18510,note_on,0,0,2,,,,,,,,,1,,,70,62
18514,note_on,4,0,2,,,,,,,,,1,,,70,0
18540,note_on,26,0,2,,,,,,,,,1,,,63,62
18540,note_on,0,0,3,,,,,,,,,2,,,51,0
18540,note_on,0,0,3,,,,,,,,,2,,,55,0
18540,note_on,60,0,3,,,,,,,,,2,,,61,0
18540,note_on,0,0,3,,,,,,,,,2,,,44,62
18570,note_on,0,0,2,,,,,,,,,1,,,71,62
18570,note_on,30,0,2,,,,,,,,,1,,,63,0
18574,note_on,4,0,2,,,,,,,,,1,,,71,0
18600,note_on,0,0,3,,,,,,,,,2,,,51,62
18600,note_on,0,0,3,,,,,,,,,2,,,56,62
18600,note_on,0,0,3,,,,,,,,,2,,,59,62
18600,note_on,60,0,3,,,,,,,,,2,,,44,0
18600,note_on,26,0,2,,,,,,,,,1,,,71,62
18630,note_on,0,0,2,,,,,,,,,1,,,70,62
18630,note_on,30,0,2,,,,,,,,,1,,,71,0
18634,note_on,4,0,2,,,,,,,,,1,,,70,0
18660,note_on,0,0,3,,,,,,,,,2,,,51,0
18660,note_on,0,0,3,,,,,,,,,2,,,59,62
18660,note_on,0,0,3,,,,,,,,,2,,,56,62
18660,note_on,0,0,3,,,,,,,,,2,,,56,0
18660,note_on,0,0,3,,,,,,,,,2,,,51,62
18660,note_on,60,0,3,,,,,,,,,2,,,59,0
18660,note_on,26,0,2,,,,,,,,,1,,,70,62
18690,note_on,0,0,2,,,,,,,,,1,,,68,62
18690,note_on,30,0,2,,,,,,,,,1,,,70,0
18694,note_on,4,0,2,,,,,,,,,1,,,68,0
18720,note_on,0,0,1,,,,,,,,,0,,,75,75
18720,note_on,60,0,3,,,,,,,,,2,,,59,0
18720,note_on,26,0,2,,,,,,,,,1,,,63,62
18720,note_on,0,0,3,,,,,,,,,2,,,56,0
18720,note_on,360,0,1,,,,,,,,,0,,,75,0
18720,note_on,0,0,3,,,,,,,,,2,,,51,0
18720,note_on,0,0,3,,,,,,,,,2,,,39,62
18750,note_on,30,0,2,,,,,,,,,1,,,63,0
18750,note_on,0,0,2,,,,,,,,,1,,,73,62
18754,note_on,4,0,2,,,,,,,,,1,,,73,0
18780,note_on,0,0,3,,,,,,,,,2,,,51,62
18780,note_on,60,0,3,,,,,,,,,2,,,39,0
18780,note_on,0,0,3,,,,,,,,,2,,,61,62
18780,note_on,0,0,3,,,,,,,,,2,,,55,62
18780,note_on,26,0,2,,,,,,,,,1,,,73,62
18810,note_on,0,0,2,,,,,,,,,1,,,72,62
18810,note_on,30,0,2,,,,,,,,,1,,,73,0
18814,note_on,4,0,2,,,,,,,,,1,,,72,0
18840,note_on,26,0,2,,,,,,,,,1,,,72,62
18840,note_on,0,0,3,,,,,,,,,2,,,61,62
18840,note_on,0,0,3,,,,,,,,,2,,,55,62
18840,note_on,0,0,3,,,,,,,,,2,,,51,62
18840,note_on,0,0,3,,,,,,,,,2,,,51,0
18840,note_on,60,0,3,,,,,,,,,2,,,61,0
18840,note_on,0,0,3,,,,,,,,,2,,,55,0
18870,note_on,30,0,2,,,,,,,,,1,,,72,0
18870,note_on,0,0,2,,,,,,,,,1,,,70,62
18874,note_on,4,0,2,,,,,,,,,1,,,70,0
18900,note_on,60,0,3,,,,,,,,,2,,,61,0
18900,note_on,0,0,3,,,,,,,,,2,,,55,0
18900,note_on,0,0,3,,,,,,,,,2,,,44,62
18900,note_on,26,0,2,,,,,,,,,1,,,63,62
18900,note_on,0,0,3,,,,,,,,,2,,,51,0
18900,note_on,0,0,1,,,,,,,,,0,,,75,75
18900,note_on,180,0,1,,,,,,,,,0,,,75,0
18930,note_on,0,0,2,,,,,,,,,1,,,72,62
18930,note_on,30,0,2,,,,,,,,,1,,,63,0
18934,note_on,4,0,2,,,,,,,,,1,,,72,0
18960,note_on,60,0,3,,,,,,,,,2,,,44,0
18960,note_on,0,0,3,,,,,,,,,2,,,56,62
18960,note_on,0,0,3,,,,,,,,,2,,,51,62
18960,note_on,26,0,2,,,,,,,,,1,,,72,62
18960,note_on,0,0,3,,,,,,,,,2,,,60,62
18990,note_on,90,0,1,,,,,,,,,0,,,75,0
18990,note_on,0,0,1,,,,,,,,,0,,,73,75
18990,note_on,30,0,2,,,,,,,,,1,,,72,0
18990,note_on,0,0,2,,,,,,,,,1,,,70,62
18994,note_on,4,0,2,,,,,,,,,1,,,70,0
18994,note_on,4,0,1,,,,,,,,,0,,,73,0
19020,note_on,26,0,2,,,,,,,,,1,,,70,62
19020,note_on,60,0,3,,,,,,,,,2,,,60,0
19020,note_on,26,0,1,,,,,,,,,0,,,72,75
19020,note_on,0,0,3,,,,,,,,,2,,,51,0
19020,note_on,0,0,3,,,,,,,,,2,,,51,62
19020,note_on,0,0,3,,,,,,,,,2,,,56,0
19020,note_on,0,0,3,,,,,,,,,2,,,56,62
19020,note_on,0,0,3,,,,,,,,,2,,,60,62
19026,note_on,6,0,1,,,,,,,,,0,,,72,0
19050,note_on,30,0,2,,,,,,,,,1,,,70,0
19050,note_on,0,0,2,,,,,,,,,1,,,68,62
19054,note_on,4,0,2,,,,,,,,,1,,,68,0
19080,note_on,26,0,2,,,,,,,,,1,,,65,75
19080,note_on,60,0,3,,,,,,,,,2,,,60,0
19080,note_on,0,0,3,,,,,,,,,2,,,56,0
19080,note_on,0,0,3,,,,,,,,,2,,,51,0
19080,note_on,54,0,1,,,,,,,,,0,,,77,88
19080,note_on,0,0,3,,,,,,,,,2,,,37,75
19110,note_on,30,0,2,,,,,,,,,1,,,65,0
19110,note_on,0,0,2,,,,,,,,,1,,,73,75
19114,note_on,4,0,2,,,,,,,,,1,,,73,0
19140,note_on,0,0,3,,,,,,,,,2,,,53,75
19140,note_on,60,0,3,,,,,,,,,2,,,37,0
19140,note_on,0,0,3,,,,,,,,,2,,,61,75
19140,note_on,26,0,2,,,,,,,,,1,,,73,75
19140,note_on,0,0,3,,,,,,,,,2,,,58,75
19170,note_on,0,0,1,,,,,,,,,0,,,75,88
19170,note_on,90,0,1,,,,,,,,,0,,,77,0
19170,note_on,30,0,2,,,,,,,,,1,,,73,0
19170,note_on,0,0,2,,,,,,,,,1,,,72,75
19174,note_on,4,0,1,,,,,,,,,0,,,75,0
19174,note_on,4,0,2,,,,,,,,,1,,,72,0
19200,note_on,0,0,3,,,,,,,,,2,,,53,0
19200,note_on,26,0,2,,,,,,,,,1,,,72,75
19200,note_on,26,0,1,,,,,,,,,0,,,73,88
19200,note_on,60,0,3,,,,,,,,,2,,,61,0
19200,note_on,0,0,3,,,,,,,,,2,,,61,75
19200,note_on,0,0,3,,,,,,,,,2,,,58,75
19200,note_on,0,0,3,,,,,,,,,2,,,58,0
19200,note_on,0,0,3,,,,,,,,,2,,,53,75
19206,note_on,6,0,1,,,,,,,,,0,,,73,0
19230,note_on,30,0,2,,,,,,,,,1,,,72,0
19230,note_on,0,0,2,,,,,,,,,1,,,70,75
19234,note_on,4,0,2,,,,,,,,,1,,,70,0
19260,note_on,60,0,3,,,,,,,,,2,,,61,0
19260,note_on,54,0,1,,,,,,,,,0,,,73,88
19260,note_on,0,0,3,,,,,,,,,2,,,58,0
19260,note_on,26,0,2,,,,,,,,,1,,,67,62
19260,note_on,0,0,3,,,,,,,,,2,,,53,0
19260,note_on,0,0,3,,,,,,,,,2,,,39,62
19290,note_on,0,0,2,,,,,,,,,1,,,77,62
19290,note_on,30,0,2,,,,,,,,,1,,,67,0
19294,note_on,4,0,2,,,,,,,,,1,,,77,0
19320,note_on,60,0,3,,,,,,,,,2,,,39,0
19320,note_on,0,0,3,,,,,,,,,2,,,61,62
19320,note_on,0,0,3,,,,,,,,,2,,,55,62
19320,note_on,26,0,2,,,,,,,,,1,,,77,62
19320,note_on,0,0,3,,,,,,,,,2,,,51,62
19350,note_on,90,0,1,,,,,,,,,0,,,73,0
19350,note_on,0,0,1,,,,,,,,,0,,,72,88
19350,note_on,30,0,2,,,,,,,,,1,,,77,0
19350,note_on,0,0,2,,,,,,,,,1,,,75,62
19354,note_on,4,0,1,,,,,,,,,0,,,72,0
19354,note_on,4,0,2,,,,,,,,,1,,,75,0
19380,note_on,60,0,3,,,,,,,,,2,,,61,0
19380,note_on,26,0,1,,,,,,,,,0,,,70,88
19380,note_on,0,0,3,,,,,,,,,2,,,55,0
19380,note_on,26,0,2,,,,,,,,,1,,,75,62
19380,note_on,0,0,3,,,,,,,,,2,,,55,62
19380,note_on,0,0,3,,,,,,,,,2,,,61,62
19380,note_on,0,0,3,,,,,,,,,2,,,51,0
19380,note_on,0,0,3,,,,,,,,,2,,,51,62
19386,note_on,6,0,1,,,,,,,,,0,,,70,0
19410,note_on,30,0,2,,,,,,,,,1,,,75,0
19410,note_on,0,0,2,,,,,,,,,1,,,73,62
19414,note_on,4,0,2,,,,,,,,,1,,,73,0
19440,note_on,60,0,3,,,,,,,,,2,,,61,0
19440,control_change,54,0,1,,,,,,,,,0,64,127,,
19440,note_on,0,0,2,,,,,,,,,1,,,72,101
19440,note_on,0,0,3,,,,,,,,,2,,,51,0
19440,note_on,0,0,3,,,,,,,,,2,,,55,0
19440,note_on,0,0,3,,,,,,,,,2,,,44,88
19440,control_change,0,0,3,,,,,,,,,2,64,127,,
19440,note_on,0,0,3,,,,,,,,,2,,,32,88
19440,control_change,26,0,2,,,,,,,,,1,64,127,,
19470,note_on,30,0,1,,,,,,,,,0,,,84,101
19474,note_on,4,0,1,,,,,,,,,0,,,84,0
19500,note_on,60,0,3,,,,,,,,,2,,,44,0
19500,note_on,0,0,2,,,,,,,,,1,,,75,88
19500,note_on,0,0,2,,,,,,,,,1,,,72,88
19500,note_on,60,0,2,,,,,,,,,1,,,72,0
19500,note_on,0,0,3,,,,,,,,,2,,,56,88
19500,note_on,26,0,1,,,,,,,,,0,,,84,101
19500,note_on,0,0,3,,,,,,,,,2,,,48,88
19500,note_on,0,0,3,,,,,,,,,2,,,32,0
19500,note_on,0,0,3,,,,,,,,,2,,,60,88
19500,note_on,0,0,3,,,,,,,,,2,,,51,88
19530,note_on,0,0,1,,,,,,,,,0,,,82,101
19530,note_on,30,0,1,,,,,,,,,0,,,84,0
19534,note_on,4,0,1,,,,,,,,,0,,,82,0
19560,note_on,0,0,2,,,,,,,,,1,,,72,0
19560,note_on,0,0,2,,,,,,,,,1,,,72,88
19560,note_on,0,0,2,,,,,,,,,1,,,75,88
19560,note_on,0,0,3,,,,,,,,,2,,,60,88
19560,note_on,26,0,1,,,,,,,,,0,,,82,101
19560,note_on,0,0,3,,,,,,,,,2,,,51,88
19560,note_on,0,0,3,,,,,,,,,2,,,48,0
19560,note_on,0,0,3,,,,,,,,,2,,,48,88
19560,note_on,0,0,3,,,,,,,,,2,,,51,0
19560,note_on,0,0,3,,,,,,,,,2,,,56,0
19560,note_on,0,0,3,,,,,,,,,2,,,56,88
19560,note_on,60,0,2,,,,,,,,,1,,,75,0
19560,note_on,60,0,3,,,,,,,,,2,,,60,0
19590,note_on,0,0,1,,,,,,,,,0,,,80,101
19590,note_on,30,0,1,,,,,,,,,0,,,82,0
19594,note_on,4,0,1,,,,,,,,,0,,,80,0
19620,note_on,0,0,2,,,,,,,,,1,,,68,88
19620,note_on,26,0,1,,,,,,,,,0,,,75,101
19620,note_on,60,0,2,,,,,,,,,1,,,75,0
19620,note_on,0,0,3,,,,,,,,,2,,,60,88
19620,note_on,0,0,2,,,,,,,,,1,,,72,0
19620,note_on,60,0,3,,,,,,,,,2,,,60,0
19620,note_on,0,0,3,,,,,,,,,2,,,48,0
19620,note_on,0,0,3,,,,,,,,,2,,,48,88
19620,note_on,0,0,3,,,,,,,,,2,,,51,0
19620,note_on,0,0,3,,,,,,,,,2,,,56,0
19620,note_on,0,0,3,,,,,,,,,2,,,51,88
19620,note_on,0,0,2,,,,,,,,,1,,,72,88
19620,note_on,0,0,3,,,,,,,,,2,,,56,88
19650,note_on,30,0,1,,,,,,,,,0,,,75,0
19650,note_on,0,0,1,,,,,,,,,0,,,80,101
19654,note_on,4,0,1,,,,,,,,,0,,,80,0
19680,note_on,60,0,2,,,,,,,,,1,,,72,0
19680,note_on,26,0,1,,,,,,,,,0,,,80,101
19680,note_on,0,0,3,,,,,,,,,2,,,51,88
19680,note_on,0,0,3,,,,,,,,,2,,,56,0
19680,note_on,0,0,3,,,,,,,,,2,,,48,0
19680,note_on,60,0,3,,,,,,,,,2,,,60,0
19680,note_on,0,0,3,,,,,,,,,2,,,48,88
19680,note_on,0,0,3,,,,,,,,,2,,,51,0
19680,note_on,0,0,2,,,,,,,,,1,,,68,0
19680,note_on,0,0,2,,,,,,,,,1,,,68,88
19680,note_on,0,0,2,,,,,,,,,1,,,72,88
19680,note_on,0,0,3,,,,,,,,,2,,,56,88
19680,note_on,0,0,3,,,,,,,,,2,,,60,88
19710,note_on,0,0,1,,,,,,,,,0,,,79,101
19710,note_on,30,0,1,,,,,,,,,0,,,80,0
19714,note_on,4,0,1,,,,,,,,,0,,,79,0
19740,note_on,0,0,3,,,,,,,,,2,,,48,88
19740,note_on,0,0,3,,,,,,,,,2,,,51,88
19740,note_on,0,0,3,,,,,,,,,2,,,56,0
19740,note_on,0,0,3,,,,,,,,,2,,,56,88
19740,note_on,0,0,3,,,,,,,,,2,,,60,88
19740,note_on,0,0,3,,,,,,,,,2,,,48,0
19740,note_on,0,0,3,,,,,,,,,2,,,51,0
19740,note_on,60,0,2,,,,,,,,,1,,,72,0
19740,note_on,26,0,1,,,,,,,,,0,,,79,101
19740,note_on,0,0,2,,,,,,,,,1,,,68,88
19740,note_on,0,0,2,,,,,,,,,1,,,68,0
19740,control_change,0,0,2,,,,,,,,,1,64,0,,
19740,note_on,60,0,3,,,,,,,,,2,,,60,0
19740,note_on,0,0,2,,,,,,,,,1,,,72,88
19740,control_change,0,0,3,,,,,,,,,2,64,0,,
19770,note_on,30,0,1,,,,,,,,,0,,,79,0
19770,note_on,0,0,1,,,,,,,,,0,,,77,101
19770,control_change,0,0,1,,,,,,,,,0,64,0,,
19774,note_on,4,0,1,,,,,,,,,0,,,77,0
19800,note_on,0,0,3,,,,,,,,,2,,,39,88
19800,note_on,0,0,3,,,,,,,,,2,,,51,0
19800,note_on,0,0,3,,,,,,,,,2,,,51,88
19800,note_on,0,0,3,,,,,,,,,2,,,56,0
19800,note_on,0,0,3,,,,,,,,,2,,,48,0
19800,note_on,60,0,3,,,,,,,,,2,,,60,0
19800,control_change,26,0,1,,,,,,,,,0,64,127,,
19800,control_change,0,0,3,,,,,,,,,2,64,127,,
19800,note_on,0,0,2,,,,,,,,,1,,,67,88
19800,note_on,0,0,2,,,,,,,,,1,,,68,0
19800,note_on,0,0,2,,,,,,,,,1,,,73,88
19800,note_on,0,0,1,,,,,,,,,0,,,75,101
19800,note_on,60,0,2,,,,,,,,,1,,,72,0
19830,note_on,0,0,1,,,,,,,,,0,,,77,101
19830,note_on,30,0,1,,,,,,,,,0,,,75,0
19834,note_on,4,0,1,,,,,,,,,0,,,77,0
19860,note_on,0,0,3,,,,,,,,,2,,,58,88
19860,note_on,0,0,3,,,,,,,,,2,,,51,88
19860,note_on,0,0,3,,,,,,,,,2,,,39,0
19860,note_on,0,0,3,,,,,,,,,2,,,61,88
19860,note_on,0,0,2,,,,,,,,,1,,,73,88
19860,note_on,60,0,2,,,,,,,,,1,,,73,0
19860,note_on,0,0,2,,,,,,,,,1,,,67,0
19860,note_on,0,0,2,,,,,,,,,1,,,67,88
19860,note_on,60,0,3,,,,,,,,,2,,,51,0
19860,note_on,0,0,3,,,,,,,,,2,,,55,88
19860,note_on,26,0,1,,,,,,,,,0,,,77,62
19890,note_on,0,0,1,,,,,,,,,0,,,75,62
19890,note_on,30,0,1,,,,,,,,,0,,,77,0
19894,note_on,4,0,1,,,,,,,,,0,,,75,0
19920,note_on,60,0,2,,,,,,,,,1,,,73,0
19920,note_on,60,0,3,,,,,,,,,2,,,61,0
19920,note_on,0,0,2,,,,,,,,,1,,,73,88
19920,note_on,0,0,2,,,,,,,,,1,,,67,88
19920,note_on,0,0,2,,,,,,,,,1,,,67,0
19920,note_on,0,0,3,,,,,,,,,2,,,51,62
19920,note_on,0,0,3,,,,,,,,,2,,,55,0
19920,note_on,0,0,3,,,,,,,,,2,,,55,62
19920,note_on,0,0,3,,,,,,,,,2,,,58,0
19920,note_on,0,0,3,,,,,,,,,2,,,58,62
19920,note_on,0,0,3,,,,,,,,,2,,,61,62
19920,note_on,0,0,3,,,,,,,,,2,,,51,0
19920,note_on,26,0,1,,,,,,,,,0,,,75,75
19950,note_on,30,0,1,,,,,,,,,0,,,75,0
19950,note_on,0,0,1,,,,,,,,,0,,,77,75
19954,note_on,4,0,1,,,,,,,,,0,,,77,0
19980,note_on,0,0,3,,,,,,,,,2,,,55,62
19980,note_on,0,0,2,,,,,,,,,1,,,73,88
19980,note_on,0,0,2,,,,,,,,,1,,,67,88
19980,note_on,0,0,2,,,,,,,,,1,,,67,0
19980,note_on,26,0,1,,,,,,,,,0,,,77,75
19980,note_on,0,0,3,,,,,,,,,2,,,58,0
19980,note_on,0,0,3,,,,,,,,,2,,,61,62
19980,note_on,0,0,3,,,,,,,,,2,,,58,62
19980,note_on,0,0,3,,,,,,,,,2,,,51,0
19980,note_on,60,0,2,,,,,,,,,1,,,73,0
19980,note_on,0,0,3,,,,,,,,,2,,,51,62
19980,note_on,0,0,3,,,,,,,,,2,,,55,0
19980,note_on,60,0,3,,,,,,,,,2,,,61,0
20010,note_on,30,0,1,,,,,,,,,0,,,77,0
20010,note_on,0,0,1,,,,,,,,,0,,,75,75
20014,note_on,4,0,1,,,,,,,,,0,,,75,0
20040,note_on,0,0,3,,,,,,,,,2,,,61,49
20040,note_on,60,0,3,,,,,,,,,2,,,61,0
20040,note_on,0,0,2,,,,,,,,,1,,,73,88
20040,note_on,26,0,1,,,,,,,,,0,,,75,62
20040,note_on,0,0,2,,,,,,,,,1,,,67,88
20040,note_on,0,0,2,,,,,,,,,1,,,67,0
20040,note_on,0,0,3,,,,,,,,,2,,,58,49
20040,note_on,0,0,3,,,,,,,,,2,,,58,0
20040,note_on,60,0,2,,,,,,,,,1,,,73,0
20040,note_on,0,0,3,,,,,,,,,2,,,55,49
20040,note_on,0,0,3,,,,,,,,,2,,,55,0
20040,note_on,0,0,3,,,,,,,,,2,,,51,49
20040,note_on,0,0,3,,,,,,,,,2,,,51,0
20070,note_on,30,0,1,,,,,,,,,0,,,75,0
20070,note_on,0,0,1,,,,,,,,,0,,,77,62
20074,note_on,4,0,1,,,,,,,,,0,,,77,0
20100,note_on,60,0,3,,,,,,,,,2,,,61,0
20100,note_on,26,0,1,,,,,,,,,0,,,77,49
20100,note_on,0,0,2,,,,,,,,,1,,,67,88
20100,note_on,0,0,2,,,,,,,,,1,,,67,0
20100,note_on,0,0,2,,,,,,,,,1,,,73,88
20100,note_on,0,0,3,,,,,,,,,2,,,61,36
20100,note_on,60,0,2,,,,,,,,,1,,,73,0
20100,note_on,0,0,3,,,,,,,,,2,,,58,36
20100,control_change,0,0,3,,,,,,,,,2,64,0,,
20100,note_on,0,0,3,,,,,,,,,2,,,58,0
20100,note_on,0,0,3,,,,,,,,,2,,,55,36
20100,note_on,0,0,3,,,,,,,,,2,,,55,0
20100,note_on,0,0,3,,,,,,,,,2,,,51,0
20100,note_on,0,0,3,,,,,,,,,2,,,51,36
20130,note_on,30,0,1,,,,,,,,,0,,,77,0
20130,note_on,0,0,1,,,,,,,,,0,,,75,49
20130,control_change,0,0,1,,,,,,,,,0,64,0,,
20134,note_on,4,0,1,,,,,,,,,0,,,75,0
20160,note_on,0,0,2,,,,,,,,,1,,,72,88
20160,note_on,0,0,3,,,,,,,,,2,,,32,75
20160,control_change,26,0,1,,,,,,,,,0,64,127,,
20160,note_on,0,0,3,,,,,,,,,2,,,44,75
20160,control_change,0,0,2,,,,,,,,,1,64,127,,
20160,note_on,60,0,3,,,,,,,,,2,,,61,0
20160,note_on,60,0,2,,,,,,,,,1,,,73,0
20160,note_on,0,0,3,,,,,,,,,2,,,51,0
20160,note_on,0,0,3,,,,,,,,,2,,,55,0
20160,note_on,0,0,3,,,,,,,,,2,,,58,0
20160,note_on,0,0,2,,,,,,,,,1,,,67,0
20160,control_change,0,0,3,,,,,,,,,2,64,127,,
20190,note_on,30,0,1,,,,,,,,,0,,,84,49
20194,note_on,4,0,1,,,,,,,,,0,,,84,0
20220,note_on,0,0,3,,,,,,,,,2,,,56,49
20220,note_on,0,0,3,,,,,,,,,2,,,32,0
20220,note_on,26,0,1,,,,,,,,,0,,,84,49
20220,note_on,0,0,3,,,,,,,,,2,,,48,49
20220,note_on,0,0,2,,,,,,,,,1,,,72,36
20220,note_on,0,0,2,,,,,,,,,1,,,75,36
20220,note_on,60,0,3,,,,,,,,,2,,,44,0
20220,note_on,60,0,2,,,,,,,,,1,,,72,0
20220,note_on,0,0,3,,,,,,,,,2,,,60,49
20220,note_on,0,0,3,,,,,,,,,2,,,51,49
20250,note_on,30,0,1,,,,,,,,,0,,,84,0
20250,note_on,0,0,1,,,,,,,,,0,,,82,49
20254,note_on,4,0,1,,,,,,,,,0,,,82,0
20280,note_on,0,0,2,,,,,,,,,1,,,72,0
20280,note_on,0,0,2,,,,,,,,,1,,,72,36
20280,note_on,0,0,2,,,,,,,,,1,,,75,36
20280,note_on,26,0,1,,,,,,,,,0,,,82,49
20280,note_on,60,0,3,,,,,,,,,2,,,60,0
20280,note_on,60,0,2,,,,,,,,,1,,,75,0
20280,note_on,0,0,3,,,,,,,,,2,,,48,0
20280,note_on,0,0,3,,,,,,,,,2,,,48,49
20280,note_on,0,0,3,,,,,,,,,2,,,51,0
20280,note_on,0,0,3,,,,,,,,,2,,,51,49
20280,note_on,0,0,3,,,,,,,,,2,,,56,0
20280,note_on,0,0,3,,,,,,,,,2,,,56,49
20280,note_on,0,0,3,,,,,,,,,2,,,60,49
20310,note_on,30,0,1,,,,,,,,,0,,,82,0
20310,note_on,0,0,1,,,,,,,,,0,,,80,49
20314,note_on,4,0,1,,,,,,,,,0,,,80,0
20340,note_on,26,0,1,,,,,,,,,0,,,75,49
20340,note_on,60,0,3,,,,,,,,,2,,,60,0
20340,note_on,0,0,2,,,,,,,,,1,,,68,36
20340,note_on,0,0,2,,,,,,,,,1,,,72,0
20340,note_on,0,0,2,,,,,,,,,1,,,72,36
20340,note_on,0,0,3,,,,,,,,,2,,,60,49
20340,note_on,0,0,3,,,,,,,,,2,,,48,49
20340,note_on,0,0,3,,,,,,,,,2,,,48,0
20340,note_on,0,0,3,,,,,,,,,2,,,56,49
20340,note_on,60,0,2,,,,,,,,,1,,,75,0
20340,note_on,0,0,3,,,,,,,,,2,,,56,0
20340,note_on,0,0,3,,,,,,,,,2,,,51,49
20340,note_on,0,0,3,,,,,,,,,2,,,51,0
20370,note_on,30,0,1,,,,,,,,,0,,,75,0
20370,note_on,0,0,1,,,,,,,,,0,,,80,49
20374,note_on,4,0,1,,,,,,,,,0,,,80,0
20400,note_on,0,0,2,,,,,,,,,1,,,68,36
20400,note_on,0,0,2,,,,,,,,,1,,,68,0
20400,note_on,0,0,3,,,,,,,,,2,,,56,0
20400,note_on,0,0,3,,,,,,,,,2,,,56,49
20400,note_on,0,0,3,,,,,,,,,2,,,60,49
20400,note_on,0,0,3,,,,,,,,,2,,,51,49
20400,note_on,0,0,3,,,,,,,,,2,,,51,0
20400,note_on,60,0,2,,,,,,,,,1,,,72,0
20400,note_on,0,0,3,,,,,,,,,2,,,48,49
20400,note_on,0,0,3,,,,,,,,,2,,,48,0
20400,note_on,26,0,1,,,,,,,,,0,,,80,49
20400,note_on,60,0,3,,,,,,,,,2,,,60,0
20400,note_on,0,0,2,,,,,,,,,1,,,72,36
20430,note_on,0,0,1,,,,,,,,,0,,,79,49
20430,note_on,30,0,1,,,,,,,,,0,,,80,0
20434,note_on,4,0,1,,,,,,,,,0,,,79,0
20460,control_change,0,0,2,,,,,,,,,1,64,0,,
20460,note_on,0,0,3,,,,,,,,,2,,,60,49
20460,note_on,60,0,3,,,,,,,,,2,,,60,0
20460,note_on,0,0,3,,,,,,,,,2,,,56,49
20460,note_on,0,0,3,,,,,,,,,2,,,56,0
20460,note_on,0,0,2,,,,,,,,,1,,,68,36
20460,note_on,0,0,3,,,,,,,,,2,,,51,0
20460,note_on,0,0,2,,,,,,,,,1,,,68,0
20460,note_on,0,0,2,,,,,,,,,1,,,72,36
20460,note_on,26,0,1,,,,,,,,,0,,,79,49
20460,note_on,0,0,3,,,,,,,,,2,,,48,0
20460,note_on,0,0,3,,,,,,,,,2,,,51,49
20460,control_change,0,0,3,,,,,,,,,2,64,0,,
20460,note_on,60,0,2,,,,,,,,,1,,,72,0
20460,note_on,0,0,3,,,,,,,,,2,,,48,49
20490,note_on,0,0,1,,,,,,,,,0,,,77,49
20490,note_on,30,0,1,,,,,,,,,0,,,79,0
20490,control_change,0,0,1,,,,,,,,,0,64,0,,
20494,note_on,4,0,1,,,,,,,,,0,,,77,0
20520,note_on,60,0,2,,,,,,,,,1,,,72,0
20520,control_change,26,0,1,,,,,,,,,0,64,127,,
20520,note_on,0,0,1,,,,,,,,,0,,,75,49
20520,control_change,0,0,3,,,,,,,,,2,64,127,,
20520,note_on,60,0,3,,,,,,,,,2,,,60,0
20520,note_on,0,0,2,,,,,,,,,1,,,68,0
20520,note_on,0,0,2,,,,,,,,,1,,,67,36
20520,note_on,0,0,3,,,,,,,,,2,,,39,49
20520,note_on,0,0,3,,,,,,,,,2,,,56,0
20520,note_on,0,0,3,,,,,,,,,2,,,51,49
20520,note_on,0,0,2,,,,,,,,,1,,,73,36
20520,note_on,0,0,3,,,,,,,,,2,,,48,0
20520,note_on,0,0,3,,,,,,,,,2,,,51,0
20550,note_on,0,0,1,,,,,,,,,0,,,77,49
20550,note_on,30,0,1,,,,,,,,,0,,,75,0
20554,note_on,4,0,1,,,,,,,,,0,,,77,0
20580,note_on,0,0,3,,,,,,,,,2,,,61,49
20580,note_on,26,0,1,,,,,,,,,0,,,77,62
20580,note_on,0,0,3,,,,,,,,,2,,,39,0
20580,note_on,0,0,3,,,,,,,,,2,,,51,49
20580,note_on,0,0,3,,,,,,,,,2,,,55,49
20580,note_on,0,0,3,,,,,,,,,2,,,58,49
20580,note_on,60,0,3,,,,,,,,,2,,,51,0
20580,note_on,0,0,2,,,,,,,,,1,,,67,36
20580,note_on,0,0,2,,,,,,,,,1,,,67,0
20580,note_on,60,0,2,,,,,,,,,1,,,73,0
20580,note_on,0,0,2,,,,,,,,,1,,,73,36
20610,note_on,0,0,1,,,,,,,,,0,,,75,62
20610,note_on,30,0,1,,,,,,,,,0,,,77,0
20614,note_on,4,0,1,,,,,,,,,0,,,75,0
20640,note_on,60,0,3,,,,,,,,,2,,,61,0
20640,note_on,0,0,3,,,,,,,,,2,,,51,62
20640,note_on,0,0,3,,,,,,,,,2,,,51,0
20640,note_on,60,0,2,,,,,,,,,1,,,73,0
20640,note_on,26,0,1,,,,,,,,,0,,,75,75
20640,note_on,0,0,3,,,,,,,,,2,,,58,62
20640,note_on,0,0,3,,,,,,,,,2,,,58,0
20640,note_on,0,0,2,,,,,,,,,1,,,73,36
20640,note_on,0,0,2,,,,,,,,,1,,,67,36
20640,note_on,0,0,2,,,,,,,,,1,,,67,0
20640,note_on,0,0,3,,,,,,,,,2,,,55,0
20640,note_on,0,0,3,,,,,,,,,2,,,61,62
20640,note_on,0,0,3,,,,,,,,,2,,,55,62
20670,note_on,30,0,1,,,,,,,,,0,,,75,0
20670,note_on,0,0,1,,,,,,,,,0,,,77,75
20674,note_on,4,0,1,,,,,,,,,0,,,77,0
20700,note_on,0,0,3,,,,,,,,,2,,,55,62
20700,note_on,0,0,3,,,,,,,,,2,,,55,0
20700,note_on,0,0,3,,,,,,,,,2,,,58,0
20700,note_on,0,0,3,,,,,,,,,2,,,61,62
20700,note_on,0,0,3,,,,,,,,,2,,,51,0
20700,note_on,0,0,3,,,,,,,,,2,,,51,62
20700,note_on,0,0,3,,,,,,,,,2,,,58,62
20700,note_on,60,0,2,,,,,,,,,1,,,73,0
20700,note_on,60,0,3,,,,,,,,,2,,,61,0
20700,note_on,0,0,2,,,,,,,,,1,,,67,0
20700,note_on,0,0,2,,,,,,,,,1,,,67,36
20700,note_on,0,0,2,,,,,,,,,1,,,73,36
20700,note_on,26,0,1,,,,,,,,,0,,,77,75
20730,note_on,30,0,1,,,,,,,,,0,,,77,0
20730,note_on,0,0,1,,,,,,,,,0,,,75,75
20734,note_on,4,0,1,,,,,,,,,0,,,75,0
20760,note_on,60,0,2,,,,,,,,,1,,,73,0
20760,note_on,0,0,3,,,,,,,,,2,,,61,49
20760,note_on,0,0,3,,,,,,,,,2,,,58,49
20760,note_on,0,0,3,,,,,,,,,2,,,58,0
20760,note_on,0,0,3,,,,,,,,,2,,,55,49
20760,note_on,0,0,3,,,,,,,,,2,,,55,0
20760,note_on,0,0,3,,,,,,,,,2,,,51,0
20760,note_on,0,0,3,,,,,,,,,2,,,51,49
20760,note_on,0,0,2,,,,,,,,,1,,,73,36
20760,note_on,0,0,2,,,,,,,,,1,,,67,36
20760,note_on,0,0,2,,,,,,,,,1,,,67,0
20760,note_on,60,0,3,,,,,,,,,2,,,61,0
20760,note_on,26,0,1,,,,,,,,,0,,,75,62
20790,note_on,0,0,1,,,,,,,,,0,,,77,62
20790,note_on,30,0,1,,,,,,,,,0,,,75,0
20794,note_on,4,0,1,,,,,,,,,0,,,77,0
20820,note_on,0,0,2,,,,,,,,,1,,,67,36
20820,note_on,60,0,2,,,,,,,,,1,,,73,0
20820,note_on,0,0,3,,,,,,,,,2,,,61,36
20820,note_on,0,0,3,,,,,,,,,2,,,58,36
20820,note_on,0,0,3,,,,,,,,,2,,,51,0
20820,note_on,0,0,3,,,,,,,,,2,,,55,0
20820,note_on,0,0,3,,,,,,,,,2,,,51,36
20820,note_on,0,0,2,,,,,,,,,1,,,73,36
20820,note_on,26,0,1,,,,,,,,,0,,,77,49
20820,note_on,0,0,2,,,,,,,,,1,,,67,0
20820,note_on,0,0,3,,,,,,,,,2,,,55,36
20820,control_change,0,0,3,,,,,,,,,2,64,0,,
20820,note_on,0,0,3,,,,,,,,,2,,,58,0
20820,note_on,60,0,3,,,,,,,,,2,,,61,0
20850,note_on,30,0,1,,,,,,,,,0,,,77,0
20850,control_change,0,0,1,,,,,,,,,0,64,0,,
20850,note_on,0,0,1,,,,,,,,,0,,,75,49
20854,note_on,4,0,1,,,,,,,,,0,,,75,0
20880,note_on,60,0,3,,,,,,,,,2,,,61,0
20880,note_on,0,0,2,,,,,,,,,1,,,67,0
20880,note_on,0,0,2,,,,,,,,,1,,,60,49
20880,control_change,0,0,2,,,,,,,,,1,64,127,,
20880,note_on,0,0,2,,,,,,,,,1,,,63,49
20880,control_change,0,0,3,,,,,,,,,2,64,127,,
20880,control_change,26,0,1,,,,,,,,,0,64,127,,
20880,note_on,0,0,3,,,,,,,,,2,,,32,49
20880,note_on,0,0,3,,,,,,,,,2,,,44,49
20880,note_on,0,0,3,,,,,,,,,2,,,51,0
20880,note_on,0,0,3,,,,,,,,,2,,,55,0
20880,note_on,0,0,3,,,,,,,,,2,,,58,0
20880,note_on,60,0,2,,,,,,,,,1,,,73,0
20880,note_on,0,0,1,,,,,,,,,0,,,68,49
20910,note_on,30,0,1,,,,,,,,,0,,,68,0
20910,note_on,0,0,1,,,,,,,,,0,,,72,49
20914,note_on,4,0,1,,,,,,,,,0,,,72,0
20940,note_on,0,0,3,,,,,,,,,2,,,44,36
20940,note_on,0,0,2,,,,,,,,,1,,,60,0
20940,note_on,0,0,2,,,,,,,,,1,,,60,62
20940,note_on,0,0,3,,,,,,,,,2,,,56,36
20940,note_on,0,0,2,,,,,,,,,1,,,63,62
20940,note_on,60,0,2,,,,,,,,,1,,,63,0
20940,note_on,60,0,3,,,,,,,,,2,,,44,0
20940,note_on,0,0,3,,,,,,,,,2,,,32,0
20940,note_on,0,0,3,,,,,,,,,2,,,51,36
20940,note_on,26,0,1,,,,,,,,,0,,,72,62
20970,note_on,30,0,1,,,,,,,,,0,,,72,0
20970,note_on,0,0,1,,,,,,,,,0,,,68,62
20974,note_on,4,0,1,,,,,,,,,0,,,68,0
21000,note_on,60,0,3,,,,,,,,,2,,,56,0
21000,note_on,26,0,1,,,,,,,,,0,,,68,75
21000,note_on,0,0,2,,,,,,,,,1,,,63,75
21000,note_on,0,0,2,,,,,,,,,1,,,60,0
21000,note_on,0,0,3,,,,,,,,,2,,,56,49
21000,note_on,60,0,2,,,,,,,,,1,,,63,0
21000,note_on,0,0,3,,,,,,,,,2,,,44,0
21000,note_on,0,0,3,,,,,,,,,2,,,44,49
21000,note_on,0,0,3,,,,,,,,,2,,,51,0
21000,note_on,0,0,3,,,,,,,,,2,,,51,49
21000,note_on,0,0,2,,,,,,,,,1,,,60,75
21030,note_on,30,0,1,,,,,,,,,0,,,68,0
21030,note_on,0,0,1,,,,,,,,,0,,,72,75
21034,note_on,4,0,1,,,,,,,,,0,,,72,0
21060,note_on,26,0,1,,,,,,,,,0,,,72,75
21060,note_on,0,0,3,,,,,,,,,2,,,56,49
21060,note_on,0,0,3,,,,,,,,,2,,,44,49
21060,note_on,60,0,2,,,,,,,,,1,,,63,0
21060,note_on,0,0,3,,,,,,,,,2,,,51,49
21060,note_on,0,0,3,,,,,,,,,2,,,51,0
21060,note_on,0,0,2,,,,,,,,,1,,,60,0
21060,note_on,0,0,3,,,,,,,,,2,,,44,0
21060,note_on,60,0,3,,,,,,,,,2,,,56,0
21060,note_on,0,0,2,,,,,,,,,1,,,60,75
21060,note_on,0,0,2,,,,,,,,,1,,,63,75
21090,note_on,0,0,1,,,,,,,,,0,,,68,75
21090,note_on,30,0,1,,,,,,,,,0,,,72,0
21094,note_on,4,0,1,,,,,,,,,0,,,68,0
21120,note_on,0,0,2,,,,,,,,,1,,,60,62
21120,note_on,0,0,3,,,,,,,,,2,,,51,36
21120,note_on,0,0,3,,,,,,,,,2,,,56,36
21120,note_on,0,0,2,,,,,,,,,1,,,63,62
21120,note_on,0,0,3,,,,,,,,,2,,,51,0
21120,note_on,0,0,3,,,,,,,,,2,,,44,36
21120,note_on,0,0,2,,,,,,,,,1,,,60,0
21120,note_on,0,0,3,,,,,,,,,2,,,44,0
21120,note_on,60,0,2,,,,,,,,,1,,,63,0
21120,note_on,60,0,3,,,,,,,,,2,,,56,0
21120,note_on,26,0,1,,,,,,,,,0,,,68,62
21150,note_on,30,0,1,,,,,,,,,0,,,68,0
21150,note_on,0,0,1,,,,,,,,,0,,,72,62
21154,note_on,4,0,1,,,,,,,,,0,,,72,0
21180,note_on,60,0,3,,,,,,,,,2,,,56,0
21180,note_on,0,0,2,,,,,,,,,1,,,63,49
21180,note_on,0,0,2,,,,,,,,,1,,,60,49
21180,control_change,0,0,3,,,,,,,,,2,64,0,,
21180,note_on,0,0,2,,,,,,,,,1,,,60,0
21180,note_on,60,0,2,,,,,,,,,1,,,63,0
21180,note_on,0,0,3,,,,,,,,,2,,,51,36
21180,note_on,0,0,3,,,,,,,,,2,,,51,0
21180,note_on,0,0,3,,,,,,,,,2,,,44,36
21180,note_on,0,0,3,,,,,,,,,2,,,44,0
21180,note_on,26,0,1,,,,,,,,,0,,,72,49
21180,control_change,0,0,2,,,,,,,,,1,64,0,,
21180,note_on,0,0,3,,,,,,,,,2,,,56,36
21210,note_on,30,0,1,,,,,,,,,0,,,72,0
21210,note_on,0,0,1,,,,,,,,,0,,,68,49
21210,control_change,0,0,1,,,,,,,,,0,64,0,,
21214,note_on,4,0,1,,,,,,,,,0,,,68,0
21240,note_on,0,0,2,,,,,,,,,1,,,60,0
21240,note_on,60,0,2,,,,,,,,,1,,,63,0
21240,note_on,0,0,2,,,,,,,,,1,,,59,49
21240,note_on,0,0,1,,,,,,,,,0,,,68,49
21240,note_on,0,0,2,,,,,,,,,1,,,63,49
21240,control_change,26,0,1,,,,,,,,,0,64,127,,
21240,note_on,60,0,3,,,,,,,,,2,,,56,0
21240,control_change,0,0,2,,,,,,,,,1,64,127,,
21240,note_on,0,0,3,,,,,,,,,2,,,32,36
21240,note_on,0,0,3,,,,,,,,,2,,,44,0
21240,control_change,0,0,3,,,,,,,,,2,64,127,,
21240,note_on,0,0,3,,,,,,,,,2,,,51,0
21270,note_on,30,0,1,,,,,,,,,0,,,68,0
21270,note_on,0,0,1,,,,,,,,,0,,,71,49
21274,note_on,4,0,1,,,,,,,,,0,,,71,0
21285,set_tempo,9045,1,0,,,,,,967742,,,,,,,
21300,note_on,0,0,2,,,,,,,,,1,,,59,0
21300,note_on,0,0,2,,,,,,,,,1,,,59,49
21300,note_on,0,0,3,,,,,,,,,2,,,44,36
21300,note_on,60,0,2,,,,,,,,,1,,,63,0
21300,note_on,0,0,2,,,,,,,,,1,,,63,49
21300,note_on,0,0,3,,,,,,,,,2,,,51,36
21300,note_on,0,0,3,,,,,,,,,2,,,56,36
21300,note_on,26,0,1,,,,,,,,,0,,,71,49
21300,note_on,60,0,3,,,,,,,,,2,,,32,0
21330,set_tempo,45,1,0,,,,,,1016949,,,,,,,
21330,note_on,30,0,1,,,,,,,,,0,,,71,0
21330,note_on,0,0,1,,,,,,,,,0,,,68,49
21334,note_on,4,0,1,,,,,,,,,0,,,68,0
21360,note_on,26,0,1,,,,,,,,,0,,,68,49
21360,note_on,60,0,2,,,,,,,,,1,,,63,0
21360,note_on,0,0,3,,,,,,,,,2,,,44,0
21360,note_on,0,0,3,,,,,,,,,2,,,44,36
21360,note_on,0,0,3,,,,,,,,,2,,,51,0
21360,note_on,0,0,3,,,,,,,,,2,,,56,36
21360,note_on,0,0,3,,,,,,,,,2,,,51,36
21360,note_on,0,0,2,,,,,,,,,1,,,59,0
21360,note_on,0,0,2,,,,,,,,,1,,,63,49
21360,note_on,0,0,2,,,,,,,,,1,,,59,49
21360,note_on,60,0,3,,,,,,,,,2,,,56,0
21375,set_tempo,45,1,0,,,,,,1071429,,,,,,,
21390,note_on,30,0,1,,,,,,,,,0,,,68,0
21390,note_on,0,0,1,,,,,,,,,0,,,71,49
21394,note_on,4,0,1,,,,,,,,,0,,,71,0
21420,note_on,0,0,2,,,,,,,,,1,,,59,0
21420,note_on,0,0,2,,,,,,,,,1,,,59,36
21420,note_on,0,0,2,,,,,,,,,1,,,63,36
21420,set_tempo,45,1,0,,,,,,1153846,,,,,,,
21420,note_on,26,0,1,,,,,,,,,0,,,71,36
21420,note_on,60,0,2,,,,,,,,,1,,,63,0
21420,note_on,0,0,3,,,,,,,,,2,,,44,0
21420,note_on,0,0,3,,,,,,,,,2,,,44,36
21420,note_on,0,0,3,,,,,,,,,2,,,51,0
21420,note_on,0,0,3,,,,,,,,,2,,,56,36
21420,note_on,60,0,3,,,,,,,,,2,,,56,0
21420,note_on,0,0,3,,,,,,,,,2,,,51,36
21450,note_on,30,0,1,,,,,,,,,0,,,71,0
21450,note_on,0,0,1,,,,,,,,,0,,,68,36
21454,note_on,4,0,1,,,,,,,,,0,,,68,0
21465,set_tempo,45,1,0,,,,,,1224490,,,,,,,
21480,note_on,0,0,2,,,,,,,,,1,,,59,0
21480,note_on,0,0,2,,,,,,,,,1,,,59,36
21480,note_on,0,0,2,,,,,,,,,1,,,63,36
21480,note_on,0,0,3,,,,,,,,,2,,,51,36
21480,note_on,0,0,3,,,,,,,,,2,,,44,0
21480,note_on,0,0,3,,,,,,,,,2,,,56,36
21480,note_on,0,0,3,,,,,,,,,2,,,44,36
21480,note_on,0,0,3,,,,,,,,,2,,,51,0
21480,note_on,60,0,2,,,,,,,,,1,,,63,0
21480,note_on,60,0,3,,,,,,,,,2,,,56,0
21480,note_on,26,0,1,,,,,,,,,0,,,68,36
21510,set_tempo,45,1,0,,,,,,1304348,,,,,,,
21510,note_on,30,0,1,,,,,,,,,0,,,68,0
21510,note_on,0,0,1,,,,,,,,,0,,,71,36
21514,note_on,4,0,1,,,,,,,,,0,,,71,0
21540,control_change,0,0,3,,,,,,,,,2,64,0,,
21540,note_on,0,0,2,,,,,,,,,1,,,63,36
21540,note_on,60,0,3,,,,,,,,,2,,,56,0
21540,note_on,0,0,2,,,,,,,,,1,,,59,36
21540,note_on,0,0,2,,,,,,,,,1,,,59,0
21540,note_on,0,0,3,,,,,,,,,2,,,44,0
21540,note_on,0,0,3,,,,,,,,,2,,,51,0
21540,note_on,26,0,1,,,,,,,,,0,,,71,36
21540,control_change,0,0,2,,,,,,,,,1,64,0,,
21540,note_on,60,0,2,,,,,,,,,1,,,63,0
21540,note_on,0,0,3,,,,,,,,,2,,,51,36
21540,note_on,0,0,3,,,,,,,,,2,,,44,36
21540,note_on,0,0,3,,,,,,,,,2,,,56,36
21555,set_tempo,45,1,0,,,,,,1395349,,,,,,,
21570,note_on,30,0,1,,,,,,,,,0,,,71,0
21570,note_on,0,0,1,,,,,,,,,0,,,68,36
21570,control_change,0,0,1,,,,,,,,,0,64,0,,
21574,note_on,4,0,1,,,,,,,,,0,,,68,0
21585,note_on,45,0,3,,,,,,,,,2,,,44,36
21600,note_on,0,0,3,,,,,,,,,2,,,51,0
21600,note_on,0,0,2,,,,,,,,,1,,,59,0
21600,note_on,60,0,2,,,,,,,,,1,,,63,0
21600,note_on,0,0,2,,,,,,,,,1,,,68,49
21600,note_on,0,0,2,,,,,,,,,1,,,71,49
21600,set_tempo,45,1,0,,,,,,923077,,,,,,,
21600,note_on,26,0,1,,,,,,,,,0,,,75,75
21600,note_on,15,0,3,,,,,,,,,2,,,56,0
21600,note_on,0,0,3,,,,,,,,,2,,,44,0
21600,note_on,0,0,3,,,,,,,,,2,,,51,62
21630,note_on,0,0,3,,,,,,,,,2,,,44,0
21630,note_on,30,0,3,,,,,,,,,2,,,51,0
21630,note_on,0,0,3,,,,,,,,,2,,,63,62
21634,note_on,4,0,3,,,,,,,,,2,,,63,0
21660,note_on,0,0,2,,,,,,,,,1,,,68,0
21660,note_on,0,0,2,,,,,,,,,1,,,68,49
21660,note_on,60,0,2,,,,,,,,,1,,,71,0
21660,note_on,0,0,2,,,,,,,,,1,,,71,49
21660,note_on,26,0,3,,,,,,,,,2,,,63,62
21690,note_on,30,0,3,,,,,,,,,2,,,63,0
21690,note_on,0,0,1,,,,,,,,,0,,,76,75
21690,note_on,90,0,1,,,,,,,,,0,,,75,0
21690,note_on,0,0,3,,,,,,,,,2,,,61,62
21694,note_on,4,0,3,,,,,,,,,2,,,61,0
21720,note_on,0,0,1,,,,,,,,,0,,,75,75
21720,note_on,0,0,2,,,,,,,,,1,,,71,49
21720,note_on,0,0,2,,,,,,,,,1,,,68,49
21720,note_on,0,0,2,,,,,,,,,1,,,68,0
21720,note_on,30,0,1,,,,,,,,,0,,,76,0
21720,note_on,26,0,3,,,,,,,,,2,,,61,62
21720,note_on,60,0,2,,,,,,,,,1,,,71,0
21750,note_on,30,0,3,,,,,,,,,2,,,61,0
21750,note_on,0,0,3,,,,,,,,,2,,,59,62
21754,note_on,4,0,3,,,,,,,,,2,,,59,0
21780,note_on,0,0,1,,,,,,,,,0,,,75,75
21780,note_on,26,0,3,,,,,,,,,2,,,59,62
21780,note_on,0,0,2,,,,,,,,,1,,,68,0
21780,note_on,0,0,2,,,,,,,,,1,,,71,49
21780,note_on,60,0,2,,,,,,,,,1,,,71,0
21780,note_on,60,0,1,,,,,,,,,0,,,75,0
21780,note_on,0,0,2,,,,,,,,,1,,,68,49
21786,note_on,6,0,1,,,,,,,,,0,,,75,0
21810,note_on,30,0,3,,,,,,,,,2,,,59,0
21810,note_on,0,0,3,,,,,,,,,2,,,58,62
21814,note_on,4,0,3,,,,,,,,,2,,,58,0
21840,note_on,60,0,2,,,,,,,,,1,,,71,0
21840,note_on,0,0,2,,,,,,,,,1,,,71,49
21840,note_on,26,0,3,,,,,,,,,2,,,58,62
21840,note_on,54,0,1,,,,,,,,,0,,,80,75
21840,note_on,0,0,2,,,,,,,,,1,,,68,0
21840,note_on,0,0,2,,,,,,,,,1,,,68,49
21846,note_on,6,0,1,,,,,,,,,0,,,80,0
21870,note_on,30,0,3,,,,,,,,,2,,,58,0
21870,note_on,0,0,3,,,,,,,,,2,,,56,62
21874,note_on,4,0,3,,,,,,,,,2,,,56,0
21900,note_on,26,0,3,,,,,,,,,2,,,56,62
21900,note_on,54,0,1,,,,,,,,,0,,,75,75
21900,note_on,0,0,2,,,,,,,,,1,,,68,49
21900,note_on,60,0,2,,,,,,,,,1,,,71,0
21900,note_on,0,0,2,,,,,,,,,1,,,71,49
21900,note_on,0,0,2,,,,,,,,,1,,,68,0
21906,note_on,6,0,1,,,,,,,,,0,,,75,0
21930,note_on,30,0,3,,,,,,,,,2,,,56,0
21930,note_on,0,0,3,,,,,,,,,2,,,51,62
21934,note_on,4,0,3,,,,,,,,,2,,,51,0
21960,note_on,60,0,2,,,,,,,,,1,,,71,0
21960,note_on,54,0,1,,,,,,,,,0,,,75,75
21960,note_on,0,0,2,,,,,,,,,1,,,71,49
21960,note_on,26,0,3,,,,,,,,,2,,,51,62
21960,note_on,11880,0,4,,,,,,,,,3,,,44,62
21960,note_on,0,0,2,,,,,,,,,1,,,68,0
21990,note_on,30,0,1,,,,,,,,,0,,,75,0
21990,note_on,0,0,1,,,,,,,,,0,,,83,75
21990,note_on,30,0,3,,,,,,,,,2,,,51,0
21990,note_on,0,0,3,,,,,,,,,2,,,63,62
21994,note_on,4,0,3,,,,,,,,,2,,,63,0
22020,note_on,60,0,2,,,,,,,,,1,,,71,0
22020,note_on,60,0,4,,,,,,,,,3,,,44,0
22020,note_on,0,0,2,,,,,,,,,1,,,71,49
22020,note_on,26,0,3,,,,,,,,,2,,,63,75
22020,note_on,0,0,1,,,,,,,,,0,,,83,88
22020,note_on,30,0,1,,,,,,,,,0,,,83,0
22050,note_on,0,0,1,,,,,,,,,0,,,82,88
22050,note_on,30,0,1,,,,,,,,,0,,,83,0
22050,note_on,0,0,3,,,,,,,,,2,,,61,75
22050,note_on,30,0,3,,,,,,,,,2,,,63,0
22054,note_on,4,0,3,,,,,,,,,2,,,61,0
22080,note_on,0,0,2,,,,,,,,,1,,,71,49
22080,note_on,30,0,1,,,,,,,,,0,,,82,0
22080,note_on,0,0,1,,,,,,,,,0,,,82,88
22080,note_on,60,0,2,,,,,,,,,1,,,71,0
22080,note_on,26,0,3,,,,,,,,,2,,,61,75
22110,note_on,30,0,3,,,,,,,,,2,,,61,0
22110,note_on,0,0,1,,,,,,,,,0,,,80,88
22110,note_on,30,0,1,,,,,,,,,0,,,82,0
22110,note_on,0,0,3,,,,,,,,,2,,,59,75
22114,note_on,4,0,3,,,,,,,,,2,,,59,0
22140,note_on,0,0,1,,,,,,,,,0,,,80,88
22140,note_on,60,0,2,,,,,,,,,1,,,71,0
22140,note_on,0,0,2,,,,,,,,,1,,,71,49
22140,note_on,30,0,1,,,,,,,,,0,,,80,0
22140,note_on,26,0,3,,,,,,,,,2,,,59,75
22140,note_on,0,0,2,,,,,,,,,1,,,75,49
22170,note_on,0,0,3,,,,,,,,,2,,,58,75
22170,note_on,30,0,3,,,,,,,,,2,,,59,0
22174,note_on,4,0,3,,,,,,,,,2,,,58,0
22200,note_on,60,0,2,,,,,,,,,1,,,75,0
22200,note_on,26,0,3,,,,,,,,,2,,,58,62
22200,note_on,0,0,2,,,,,,,,,1,,,71,0
22230,note_on,0,0,3,,,,,,,,,2,,,56,62
22230,note_on,0,0,2,,,,,,,,,1,,,71,49
22230,note_on,30,0,3,,,,,,,,,2,,,58,0
22230,note_on,0,0,2,,,,,,,,,1,,,68,49
22230,note_on,30,0,2,,,,,,,,,1,,,63,49
22234,note_on,0,0,2,,,,,,,,,1,,,63,0
22234,note_on,0,0,2,,,,,,,,,1,,,68,0
22234,note_on,4,0,2,,,,,,,,,1,,,71,0
22234,note_on,4,0,3,,,,,,,,,2,,,56,0
22260,note_on,26,0,2,,,,,,,,,1,,,63,49
22260,note_on,26,0,3,,,,,,,,,2,,,56,62
22260,note_on,120,0,1,,,,,,,,,0,,,80,0
22260,note_on,0,0,1,,,,,,,,,0,,,75,88
22260,note_on,0,0,1,,,,,,,,,0,,,71,88
22260,note_on,0,0,1,,,,,,,,,0,,,68,88
22266,note_on,0,0,1,,,,,,,,,0,,,68,0
22266,note_on,6,0,1,,,,,,,,,0,,,75,0
22266,note_on,0,0,1,,,,,,,,,0,,,71,0
22290,note_on,0,0,3,,,,,,,,,2,,,51,62
22290,note_on,30,0,3,,,,,,,,,2,,,56,0
22294,note_on,4,0,3,,,,,,,,,2,,,51,0
22305,note_on,11,0,3,,,,,,,,,2,,,39,62
22320,note_on,0,0,2,,,,,,,,,1,,,73,49
22320,note_on,0,0,2,,,,,,,,,1,,,67,49
22320,note_on,54,0,1,,,,,,,,,0,,,75,75
22320,note_on,15,0,3,,,,,,,,,2,,,51,62
22320,note_on,0,0,2,,,,,,,,,1,,,70,49
22320,note_on,60,0,2,,,,,,,,,1,,,63,0
22320,set_tempo,720,1,0,,,,,,869565,,,,,,,
22350,note_on,30,0,3,,,,,,,,,2,,,51,0
22350,note_on,0,0,3,,,,,,,,,2,,,39,0
22350,note_on,0,0,3,,,,,,,,,2,,,64,62
22380,note_on,0,0,2,,,,,,,,,1,,,73,49
22380,note_on,30,0,3,,,,,,,,,2,,,64,0
22380,note_on,0,0,2,,,,,,,,,1,,,67,0
22380,note_on,0,0,2,,,,,,,,,1,,,67,49
22380,note_on,0,0,2,,,,,,,,,1,,,70,49
22380,note_on,0,0,2,,,,,,,,,1,,,70,0
22380,note_on,60,0,2,,,,,,,,,1,,,73,0
22380,note_on,0,0,3,,,,,,,,,2,,,64,62
22410,note_on,0,0,1,,,,,,,,,0,,,76,75
22410,note_on,30,0,3,,,,,,,,,2,,,64,0
22410,note_on,90,0,1,,,,,,,,,0,,,75,0
22410,note_on,0,0,3,,,,,,,,,2,,,63,62
22440,note_on,30,0,3,,,,,,,,,2,,,63,0
22440,note_on,0,0,1,,,,,,,,,0,,,75,75
22440,note_on,60,0,2,,,,,,,,,1,,,73,0
22440,note_on,0,0,2,,,,,,,,,1,,,67,0
22440,note_on,0,0,2,,,,,,,,,1,,,67,49
22440,note_on,0,0,2,,,,,,,,,1,,,70,0
22440,note_on,30,0,1,,,,,,,,,0,,,76,0
22440,note_on,0,0,2,,,,,,,,,1,,,70,49
22440,note_on,0,0,2,,,,,,,,,1,,,73,49
22440,note_on,0,0,3,,,,,,,,,2,,,63,62
22470,note_on,0,0,3,,,,,,,,,2,,,61,62
22470,note_on,30,0,3,,,,,,,,,2,,,63,0
22500,note_on,0,0,2,,,,,,,,,1,,,70,49
22500,note_on,60,0,1,,,,,,,,,0,,,75,0
22500,note_on,0,0,3,,,,,,,,,2,,,61,62
22500,note_on,60,0,2,,,,,,,,,1,,,73,0
22500,note_on,30,0,3,,,,,,,,,2,,,61,0
22500,note_on,0,0,2,,,,,,,,,1,,,67,0
22500,note_on,0,0,2,,,,,,,,,1,,,67,49
22500,note_on,0,0,2,,,,,,,,,1,,,70,0
22500,note_on,0,0,1,,,,,,,,,0,,,75,75
22506,note_on,6,0,1,,,,,,,,,0,,,75,0
22530,note_on,0,0,3,,,,,,,,,2,,,59,62
22530,note_on,30,0,3,,,,,,,,,2,,,61,0
22560,note_on,30,0,3,,,,,,,,,2,,,59,0
22560,note_on,0,0,2,,,,,,,,,1,,,75,49
22560,note_on,0,0,2,,,,,,,,,1,,,73,49
22560,note_on,0,0,2,,,,,,,,,1,,,67,0
22560,note_on,54,0,1,,,,,,,,,0,,,82,75
22560,note_on,60,0,2,,,,,,,,,1,,,70,0
22560,note_on,0,0,3,,,,,,,,,2,,,59,62
22566,note_on,6,0,1,,,,,,,,,0,,,82,0
22590,note_on,0,0,3,,,,,,,,,2,,,58,62
22590,note_on,30,0,3,,,,,,,,,2,,,59,0
22620,note_on,60,0,2,,,,,,,,,1,,,75,0
22620,note_on,0,0,2,,,,,,,,,1,,,67,49
22620,note_on,0,0,2,,,,,,,,,1,,,73,0
22620,note_on,0,0,3,,,,,,,,,2,,,58,62
22620,note_on,0,0,2,,,,,,,,,1,,,73,49
22620,note_on,54,0,1,,,,,,,,,0,,,75,75
22620,note_on,30,0,3,,,,,,,,,2,,,58,0
22626,note_on,6,0,1,,,,,,,,,0,,,75,0
22650,note_on,30,0,3,,,,,,,,,2,,,58,0
22650,note_on,0,0,3,,,,,,,,,2,,,51,62
22665,note_on,15,0,3,,,,,,,,,2,,,39,62
22680,note_on,0,0,3,,,,,,,,,2,,,51,62
22680,note_on,0,0,2,,,,,,,,,1,,,73,49
22680,note_on,60,0,2,,,,,,,,,1,,,73,0
22680,note_on,15,0,3,,,,,,,,,2,,,51,0
22680,note_on,0,0,2,,,,,,,,,1,,,67,0
22680,note_on,54,0,1,,,,,,,,,0,,,75,75
22710,note_on,30,0,3,,,,,,,,,2,,,51,0
22710,note_on,0,0,3,,,,,,,,,2,,,39,0
22710,note_on,0,0,1,,,,,,,,,0,,,85,75
22710,note_on,30,0,1,,,,,,,,,0,,,75,0
22710,note_on,0,0,3,,,,,,,,,2,,,64,62
22740,note_on,0,0,1,,,,,,,,,0,,,85,88
22740,note_on,60,0,2,,,,,,,,,1,,,73,0
22740,note_on,30,0,3,,,,,,,,,2,,,64,0
22740,note_on,0,0,2,,,,,,,,,1,,,73,62
22740,note_on,0,0,2,,,,,,,,,1,,,75,62
22740,note_on,30,0,1,,,,,,,,,0,,,85,0
22740,note_on,0,0,3,,,,,,,,,2,,,64,75
22770,note_on,30,0,1,,,,,,,,,0,,,85,0
22770,note_on,0,0,1,,,,,,,,,0,,,83,88
22770,note_on,30,0,3,,,,,,,,,2,,,64,0
22770,note_on,0,0,3,,,,,,,,,2,,,63,75
22800,note_on,30,0,3,,,,,,,,,2,,,63,0
22800,note_on,0,0,3,,,,,,,,,2,,,63,75
22800,note_on,30,0,1,,,,,,,,,0,,,83,0
22800,note_on,0,0,2,,,,,,,,,1,,,73,0
22800,note_on,0,0,2,,,,,,,,,1,,,73,62
22800,note_on,0,0,2,,,,,,,,,1,,,75,62
22800,note_on,60,0,2,,,,,,,,,1,,,75,0
22800,note_on,0,0,1,,,,,,,,,0,,,83,88
22830,note_on,0,0,1,,,,,,,,,0,,,82,88
22830,note_on,30,0,1,,,,,,,,,0,,,83,0
22830,note_on,30,0,3,,,,,,,,,2,,,63,0
22830,note_on,0,0,3,,,,,,,,,2,,,61,75
22860,note_on,0,0,1,,,,,,,,,0,,,82,88
22860,note_on,0,0,3,,,,,,,,,2,,,61,75
22860,note_on,30,0,3,,,,,,,,,2,,,61,0
22860,note_on,0,0,2,,,,,,,,,1,,,75,62
22860,note_on,0,0,2,,,,,,,,,1,,,73,62
22860,note_on,0,0,2,,,,,,,,,1,,,73,0
22860,note_on,60,0,2,,,,,,,,,1,,,75,0
22860,note_on,30,0,1,,,,,,,,,0,,,82,0
22890,note_on,30,0,3,,,,,,,,,2,,,61,0
22890,note_on,0,0,3,,,,,,,,,2,,,59,75
22920,note_on,60,0,2,,,,,,,,,1,,,75,0
22920,note_on,30,0,3,,,,,,,,,2,,,59,0
22920,note_on,0,0,3,,,,,,,,,2,,,59,62
22920,note_on,0,0,2,,,,,,,,,1,,,73,0
22950,note_on,30,0,2,,,,,,,,,1,,,63,49
22950,note_on,0,0,2,,,,,,,,,1,,,73,49
22950,note_on,30,0,3,,,,,,,,,2,,,59,0
22950,note_on,0,0,3,,,,,,,,,2,,,58,62
22950,note_on,0,0,2,,,,,,,,,1,,,67,49
22954,note_on,0,0,2,,,,,,,,,1,,,63,0
22954,note_on,0,0,2,,,,,,,,,1,,,67,0
22954,note_on,4,0,2,,,,,,,,,1,,,73,0
22980,note_on,120,0,1,,,,,,,,,0,,,82,0
22980,note_on,0,0,2,,,,,,,,,1,,,67,49
22980,note_on,26,0,2,,,,,,,,,1,,,63,49
22980,note_on,30,0,3,,,,,,,,,2,,,58,0
22980,note_on,0,0,2,,,,,,,,,1,,,73,49
22980,note_on,0,0,2,,,,,,,,,1,,,75,49
22980,note_on,0,0,3,,,,,,,,,2,,,58,62
22986,note_on,0,0,2,,,,,,,,,1,,,67,0
22986,note_on,6,0,2,,,,,,,,,1,,,75,0
22986,note_on,0,0,2,,,,,,,,,1,,,63,0
22986,note_on,0,0,2,,,,,,,,,1,,,73,0
23010,note_on,30,0,3,,,,,,,,,2,,,58,0
23010,note_on,0,0,3,,,,,,,,,2,,,51,62
23040,note_on,60,0,1,,,,,,,,,0,,,78,75
23040,note_on,30,0,3,,,,,,,,,2,,,51,0
23040,note_on,1020,0,4,,,,,,,,,3,,,47,62
23040,note_on,54,0,2,,,,,,,,,1,,,75,49
23040,note_on,0,0,3,,,,,,,,,2,,,54,62
23070,note_on,30,0,3,,,,,,,,,2,,,54,0
23070,note_on,0,0,3,,,,,,,,,2,,,66,62
23070,note_on,0,0,1,,,,,,,,,0,,,87,75
23070,note_on,30,0,1,,,,,,,,,0,,,78,0
23074,note_on,4,0,3,,,,,,,,,2,,,66,0
23100,note_on,0,0,2,,,,,,,,,1,,,78,62
23100,note_on,0,0,2,,,,,,,,,1,,,75,62
23100,note_on,60,0,4,,,,,,,,,3,,,47,0
23100,note_on,0,0,1,,,,,,,,,0,,,87,88
23100,note_on,60,0,2,,,,,,,,,1,,,75,0
23100,note_on,30,0,1,,,,,,,,,0,,,87,0
23100,note_on,26,0,3,,,,,,,,,2,,,66,75
23130,note_on,0,0,1,,,,,,,,,0,,,85,88
23130,note_on,30,0,1,,,,,,,,,0,,,87,0
23130,note_on,0,0,3,,,,,,,,,2,,,64,75
23130,note_on,30,0,3,,,,,,,,,2,,,66,0
23134,note_on,4,0,3,,,,,,,,,2,,,64,0
23160,note_on,30,0,1,,,,,,,,,0,,,85,0
23160,note_on,0,0,2,,,,,,,,,1,,,78,62
23160,note_on,0,0,2,,,,,,,,,1,,,75,62
23160,note_on,0,0,2,,,,,,,,,1,,,75,0
23160,note_on,26,0,3,,,,,,,,,2,,,64,75
23160,note_on,60,0,2,,,,,,,,,1,,,78,0
23160,note_on,0,0,1,,,,,,,,,0,,,85,88
23190,note_on,30,0,3,,,,,,,,,2,,,64,0
23190,note_on,0,0,3,,,,,,,,,2,,,63,75
23190,note_on,30,0,1,,,,,,,,,0,,,85,0
23190,note_on,0,0,1,,,,,,,,,0,,,83,88
23194,note_on,4,0,3,,,,,,,,,2,,,63,0
23220,note_on,60,0,2,,,,,,,,,1,,,78,0
23220,note_on,0,0,2,,,,,,,,,1,,,78,62
23220,note_on,30,0,1,,,,,,,,,0,,,83,0
23220,note_on,26,0,3,,,,,,,,,2,,,63,75
23220,note_on,0,0,2,,,,,,,,,1,,,75,0
23220,note_on,0,0,1,,,,,,,,,0,,,83,88
23220,note_on,0,0,2,,,,,,,,,1,,,75,62
23250,note_on,0,0,3,,,,,,,,,2,,,61,75
23250,note_on,30,0,3,,,,,,,,,2,,,63,0
23254,note_on,4,0,3,,,,,,,,,2,,,61,0
23280,note_on,26,0,3,,,,,,,,,2,,,61,62
23280,note_on,60,0,2,,,,,,,,,1,,,78,0
23280,note_on,0,0,2,,,,,,,,,1,,,75,0
23310,note_on,0,0,3,,,,,,,,,2,,,59,62
23310,note_on,30,0,2,,,,,,,,,1,,,66,49
23310,note_on,0,0,2,,,,,,,,,1,,,75,49
23310,note_on,0,0,2,,,,,,,,,1,,,71,49
23310,note_on,30,0,3,,,,,,,,,2,,,61,0
23314,note_on,0,0,2,,,,,,,,,1,,,71,0
23314,note_on,0,0,2,,,,,,,,,1,,,66,0
23314,note_on,4,0,3,,,,,,,,,2,,,59,0
23314,note_on,4,0,2,,,,,,,,,1,,,75,0
23340,note_on,26,0,3,,,,,,,,,2,,,59,62
23340,note_on,0,0,2,,,,,,,,,1,,,71,49
23340,note_on,26,0,2,,,,,,,,,1,,,66,49
23340,note_on,120,0,1,,,,,,,,,0,,,83,0
23340,note_on,0,0,1,,,,,,,,,0,,,78,75
23340,note_on,0,0,2,,,,,,,,,1,,,75,49
23346,note_on,0,0,2,,,,,,,,,1,,,71,0
23346,note_on,6,0,1,,,,,,,,,0,,,78,0
23346,note_on,6,0,2,,,,,,,,,1,,,75,0
23346,note_on,0,0,2,,,,,,,,,1,,,66,0
23370,note_on,30,0,3,,,,,,,,,2,,,59,0
23370,note_on,0,0,3,,,,,,,,,2,,,54,62
23374,note_on,4,0,3,,,,,,,,,2,,,54,0
23400,note_on,54,0,1,,,,,,,,,0,,,78,75
23400,note_on,54,0,2,,,,,,,,,1,,,70,49
23400,note_on,300,0,4,,,,,,,,,3,,,42,62
23400,note_on,0,0,2,,,,,,,,,1,,,76,49
23430,note_on,56,0,3,,,,,,,,,2,,,68,62
23430,note_on,30,0,1,,,,,,,,,0,,,78,0
23430,note_on,0,0,1,,,,,,,,,0,,,88,75
23434,note_on,4,0,3,,,,,,,,,2,,,68,0
23460,note_on,26,0,3,,,,,,,,,2,,,68,75
23460,note_on,0,0,1,,,,,,,,,0,,,88,88
23460,note_on,30,0,1,,,,,,,,,0,,,88,0
23460,note_on,60,0,2,,,,,,,,,1,,,76,0
23460,note_on,0,0,2,,,,,,,,,1,,,78,62
23460,note_on,0,0,2,,,,,,,,,1,,,76,62
23460,note_on,0,0,2,,,,,,,,,1,,,70,0
23460,note_on,60,0,4,,,,,,,,,3,,,42,0
23490,note_on,30,0,3,,,,,,,,,2,,,68,0
23490,note_on,0,0,3,,,,,,,,,2,,,66,75
23490,note_on,30,0,1,,,,,,,,,0,,,88,0
23490,note_on,0,0,1,,,,,,,,,0,,,87,88
23494,note_on,4,0,3,,,,,,,,,2,,,66,0
23520,note_on,26,0,3,,,,,,,,,2,,,66,75
23520,note_on,0,0,2,,,,,,,,,1,,,78,62
23520,note_on,60,0,2,,,,,,,,,1,,,78,0
23520,note_on,0,0,2,,,,,,,,,1,,,76,0
23520,note_on,0,0,1,,,,,,,,,0,,,87,88
23520,note_on,30,0,1,,,,,,,,,0,,,87,0
23520,note_on,0,0,2,,,,,,,,,1,,,76,62
23550,note_on,30,0,1,,,,,,,,,0,,,87,0
23550,note_on,30,0,3,,,,,,,,,2,,,66,0
23550,note_on,0,0,1,,,,,,,,,0,,,85,88
23550,note_on,0,0,3,,,,,,,,,2,,,64,75
23554,note_on,4,0,3,,,,,,,,,2,,,64,0
23580,note_on,26,0,3,,,,,,,,,2,,,64,75
23580,note_on,30,0,1,,,,,,,,,0,,,85,0
23580,note_on,0,0,1,,,,,,,,,0,,,85,88
23580,note_on,60,0,2,,,,,,,,,1,,,78,0
23580,note_on,0,0,2,,,,,,,,,1,,,78,62
23580,note_on,0,0,2,,,,,,,,,1,,,76,0
23580,note_on,0,0,2,,,,,,,,,1,,,76,62
23610,note_on,0,0,3,,,,,,,,,2,,,63,75
23610,note_on,30,0,3,,,,,,,,,2,,,64,0
23614,note_on,4,0,3,,,,,,,,,2,,,63,0
23640,note_on,60,0,2,,,,,,,,,1,,,78,0
23640,note_on,0,0,2,,,,,,,,,1,,,76,0
23640,note_on,26,0,3,,,,,,,,,2,,,63,62
23670,note_on,0,0,2,,,,,,,,,1,,,76,49
23670,note_on,0,0,2,,,,,,,,,1,,,70,49
23670,note_on,30,0,3,,,,,,,,,2,,,63,0
23670,note_on,30,0,2,,,,,,,,,1,,,66,49
23670,note_on,0,0,3,,,,,,,,,2,,,61,62
23674,note_on,0,0,2,,,,,,,,,1,,,70,0
23674,note_on,4,0,2,,,,,,,,,1,,,76,0
23674,note_on,0,0,2,,,,,,,,,1,,,66,0
23674,note_on,4,0,3,,,,,,,,,2,,,61,0
23700,note_on,0,0,1,,,,,,,,,0,,,78,75
23700,note_on,120,0,1,,,,,,,,,0,,,85,0
23700,note_on,0,0,2,,,,,,,,,1,,,76,49
23700,note_on,26,0,3,,,,,,,,,2,,,61,62
23700,note_on,0,0,2,,,,,,,,,1,,,73,49
23700,note_on,26,0,2,,,,,,,,,1,,,70,49
23706,note_on,0,0,2,,,,,,,,,1,,,73,0
23706,note_on,0,0,2,,,,,,,,,1,,,70,0
23706,note_on,6,0,2,,,,,,,,,1,,,76,0
23706,note_on,6,0,1,,,,,,,,,0,,,78,0
23730,note_on,30,0,3,,,,,,,,,2,,,61,0
23730,note_on,0,0,3,,,,,,,,,2,,,54,62
23734,note_on,4,0,3,,,,,,,,,2,,,54,0
23740,note_on,6,0,3,,,,,,,,,2,,,47,78
23750,note_on,10,0,3,,,,,,,,,2,,,54,83
23760,note_on,0,0,1,,,,,,,,,0,,,78,88
23760,note_on,0,0,1,,,,,,,,,0,,,87,88
23760,note_on,54,0,1,,,,,,,,,0,,,75,88
23760,note_on,10,0,3,,,,,,,,,2,,,63,101
23766,note_on,0,0,3,,,,,,,,,2,,,54,0
23766,note_on,6,0,3,,,,,,,,,2,,,63,0
23766,note_on,0,0,3,,,,,,,,,2,,,47,0
23769,note_on,9,0,1,,,,,,,,,0,,,87,0
23769,note_on,0,0,1,,,,,,,,,0,,,75,0
23769,note_on,0,0,1,,,,,,,,,0,,,78,0
23820,note_on,54,0,3,,,,,,,,,2,,,63,75
23850,note_on,0,0,1,,,,,,,,,0,,,78,88
23850,note_on,0,0,1,,,,,,,,,0,,,87,88
23850,note_on,30,0,3,,,,,,,,,2,,,63,0
23850,note_on,0,0,3,,,,,,,,,2,,,59,75
23850,note_on,81,0,1,,,,,,,,,0,,,75,88
23854,note_on,0,0,1,,,,,,,,,0,,,78,0
23854,note_on,0,0,1,,,,,,,,,0,,,75,0
23854,note_on,4,0,1,,,,,,,,,0,,,87,0
23880,note_on,0,0,1,,,,,,,,,0,,,87,88
23880,note_on,0,0,1,,,,,,,,,0,,,78,88
23880,note_on,26,0,1,,,,,,,,,0,,,75,88
23880,note_on,30,0,3,,,,,,,,,2,,,59,0
23880,note_on,0,0,3,,,,,,,,,2,,,54,75
23886,note_on,6,0,1,,,,,,,,,0,,,87,0
23886,note_on,0,0,1,,,,,,,,,0,,,75,0
23886,note_on,0,0,1,,,,,,,,,0,,,78,0
23910,note_on,0,0,3,,,,,,,,,2,,,51,75
23910,note_on,30,0,3,,,,,,,,,2,,,54,0
23920,note_on,10,0,3,,,,,,,,,2,,,44,91
23930,note_on,10,0,3,,,,,,,,,2,,,51,96
23940,note_on,0,0,3,,,,,,,,,2,,,59,101
23940,note_on,0,0,1,,,,,,,,,0,,,80,88
23940,note_on,0,0,1,,,,,,,,,0,,,87,88
23940,note_on,10,0,3,,,,,,,,,2,,,51,0
23940,note_on,54,0,1,,,,,,,,,0,,,75,88
23946,note_on,6,0,3,,,,,,,,,2,,,59,0
23946,note_on,0,0,3,,,,,,,,,2,,,51,0
23946,note_on,0,0,3,,,,,,,,,2,,,44,0
23949,note_on,9,0,1,,,,,,,,,0,,,87,0
23949,note_on,0,0,1,,,,,,,,,0,,,75,0
23949,note_on,0,0,1,,,,,,,,,0,,,80,0
24000,note_on,54,0,3,,,,,,,,,2,,,59,75
24030,note_on,81,0,1,,,,,,,,,0,,,71,88
24030,note_on,0,0,1,,,,,,,,,0,,,75,88
24030,note_on,0,0,1,,,,,,,,,0,,,83,88
24030,note_on,30,0,3,,,,,,,,,2,,,59,0
24030,note_on,0,0,3,,,,,,,,,2,,,56,75
24034,note_on,0,0,1,,,,,,,,,0,,,75,0
24034,note_on,0,0,1,,,,,,,,,0,,,71,0
24034,note_on,4,0,1,,,,,,,,,0,,,83,0
24060,note_on,0,0,1,,,,,,,,,0,,,80,88
24060,note_on,26,0,1,,,,,,,,,0,,,68,88
24060,note_on,0,0,1,,,,,,,,,0,,,75,88
24060,note_on,0,0,3,,,,,,,,,2,,,51,75
24060,note_on,30,0,3,,,,,,,,,2,,,56,0
24066,note_on,0,0,1,,,,,,,,,0,,,75,0
24066,note_on,0,0,1,,,,,,,,,0,,,68,0
24066,note_on,6,0,1,,,,,,,,,0,,,80,0
24090,note_on,0,0,3,,,,,,,,,2,,,47,75
24090,note_on,30,0,3,,,,,,,,,2,,,51,0
24100,note_on,10,0,3,,,,,,,,,2,,,51,91
24110,note_on,10,0,3,,,,,,,,,2,,,58,96
24120,note_on,0,0,3,,,,,,,,,2,,,67,114
24120,note_on,10,0,3,,,,,,,,,2,,,47,0
24120,note_on,54,0,1,,,,,,,,,0,,,70,101
24120,note_on,0,0,1,,,,,,,,,0,,,75,101
24120,note_on,0,0,1,,,,,,,,,0,,,82,101
24126,note_on,0,0,3,,,,,,,,,2,,,58,0
24126,note_on,0,0,3,,,,,,,,,2,,,51,0
24126,note_on,6,0,3,,,,,,,,,2,,,67,0
24180,note_on,54,0,3,,,,,,,,,2,,,67,88
24180,note_on,60,0,1,,,,,,,,,0,,,82,0
24180,note_on,0,0,1,,,,,,,,,0,,,70,0
24180,note_on,0,0,1,,,,,,,,,0,,,75,0
24180,note_on,0,0,1,,,,,,,,,0,,,75,101
24180,note_on,0,0,1,,,,,,,,,0,,,87,101
24186,note_on,6,0,1,,,,,,,,,0,,,87,0
24186,note_on,0,0,1,,,,,,,,,0,,,75,0
24210,note_on,30,0,3,,,,,,,,,2,,,67,0
24210,note_on,0,0,3,,,,,,,,,2,,,63,88
24240,note_on,30,0,3,,,,,,,,,2,,,63,0
24240,note_on,0,0,1,,,,,,,,,0,,,75,101
24240,note_on,0,0,1,,,,,,,,,0,,,79,101
24240,note_on,54,0,1,,,,,,,,,0,,,67,101
24240,note_on,0,0,3,,,,,,,,,2,,,58,88
24246,note_on,6,0,1,,,,,,,,,0,,,79,0
24246,note_on,0,0,1,,,,,,,,,0,,,67,0
24246,note_on,0,0,1,,,,,,,,,0,,,75,0
24270,note_on,0,0,3,,,,,,,,,2,,,51,88
24270,note_on,30,0,3,,,,,,,,,2,,,58,0
24280,note_on,10,0,3,,,,,,,,,2,,,44,104
24290,note_on,10,0,3,,,,,,,,,2,,,51,109
24300,note_on,0,0,3,,,,,,,,,2,,,59,114
24300,note_on,0,0,1,,,,,,,,,0,,,80,101
24300,note_on,0,0,1,,,,,,,,,0,,,75,101
24300,note_on,10,0,3,,,,,,,,,2,,,51,0
24300,note_on,54,0,1,,,,,,,,,0,,,68,101
24306,note_on,6,0,3,,,,,,,,,2,,,59,0
24306,note_on,0,0,3,,,,,,,,,2,,,51,0
24306,note_on,0,0,3,,,,,,,,,2,,,44,0
24312,note_on,0,0,1,,,,,,,,,0,,,68,0
24312,note_on,12,0,1,,,,,,,,,0,,,80,0
24312,note_on,0,0,1,,,,,,,,,0,,,75,0
24360,note_on,54,0,3,,,,,,,,,2,,,59,88
24390,note_on,0,0,3,,,,,,,,,2,,,56,88
24390,note_on,30,0,3,,,,,,,,,2,,,59,0
24420,note_on,0,0,3,,,,,,,,,2,,,51,88
24420,note_on,30,0,3,,,,,,,,,2,,,56,0
24450,note_on,0,0,3,,,,,,,,,2,,,44,88
24450,note_on,30,0,3,,,,,,,,,2,,,51,0
24480,note_on,774,0,2,,,,,,,,,1,,,75,49
24480,note_on,30,0,3,,,,,,,,,2,,,44,0
24480,note_on,168,0,1,,,,,,,,,0,,,78,75
24480,note_on,0,0,3,,,,,,,,,2,,,54,62
24510,note_on,0,0,3,,,,,,,,,2,,,66,62
24510,note_on,30,0,3,,,,,,,,,2,,,54,0
24510,note_on,30,0,1,,,,,,,,,0,,,78,0
24510,note_on,0,0,1,,,,,,,,,0,,,87,75
24514,note_on,4,0,3,,,,,,,,,2,,,66,0
24540,note_on,26,0,3,,,,,,,,,2,,,66,75
24540,note_on,0,0,1,,,,,,,,,0,,,87,88
24540,note_on,30,0,1,,,,,,,,,0,,,87,0
24540,note_on,0,0,2,,,,,,,,,1,,,75,62
24540,note_on,0,0,2,,,,,,,,,1,,,78,62
24540,note_on,60,0,2,,,,,,,,,1,,,75,0
24570,note_on,0,0,3,,,,,,,,,2,,,64,75
24570,note_on,0,0,1,,,,,,,,,0,,,85,88
24570,note_on,30,0,1,,,,,,,,,0,,,87,0
24570,note_on,30,0,3,,,,,,,,,2,,,66,0
24574,note_on,4,0,3,,,,,,,,,2,,,64,0
24600,note_on,0,0,1,,,,,,,,,0,,,85,88
24600,note_on,60,0,2,,,,,,,,,1,,,78,0
24600,note_on,30,0,1,,,,,,,,,0,,,85,0
24600,note_on,26,0,3,,,,,,,,,2,,,64,75
24600,note_on,0,0,2,,,,,,,,,1,,,78,62
24600,note_on,0,0,2,,,,,,,,,1,,,75,62
24600,note_on,0,0,2,,,,,,,,,1,,,75,0
24630,note_on,30,0,1,,,,,,,,,0,,,85,0
24630,note_on,0,0,1,,,,,,,,,0,,,83,88
24630,note_on,0,0,3,,,,,,,,,2,,,63,75
24630,note_on,30,0,3,,,,,,,,,2,,,64,0
24634,note_on,4,0,3,,,,,,,,,2,,,63,0
24660,note_on,0,0,2,,,,,,,,,1,,,75,0
24660,note_on,0,0,2,,,,,,,,,1,,,75,62
24660,note_on,0,0,2,,,,,,,,,1,,,78,62
24660,note_on,30,0,1,,,,,,,,,0,,,83,0
24660,note_on,60,0,2,,,,,,,,,1,,,78,0
24660,note_on,0,0,1,,,,,,,,,0,,,83,88
24660,note_on,26,0,3,,,,,,,,,2,,,63,75
24690,note_on,0,0,3,,,,,,,,,2,,,61,75
24690,note_on,30,0,3,,,,,,,,,2,,,63,0
24694,note_on,4,0,3,,,,,,,,,2,,,61,0
24720,note_on,0,0,2,,,,,,,,,1,,,75,0
24720,note_on,60,0,2,,,,,,,,,1,,,78,0
24720,note_on,26,0,3,,,,,,,,,2,,,61,62
24750,note_on,30,0,3,,,,,,,,,2,,,61,0
24750,note_on,0,0,2,,,,,,,,,1,,,75,49
24750,note_on,0,0,2,,,,,,,,,1,,,71,49
24750,note_on,30,0,2,,,,,,,,,1,,,66,49
24750,note_on,0,0,3,,,,,,,,,2,,,59,62
24754,note_on,0,0,2,,,,,,,,,1,,,71,0
24754,note_on,0,0,2,,,,,,,,,1,,,66,0
24754,note_on,4,0,3,,,,,,,,,2,,,59,0
24754,note_on,4,0,2,,,,,,,,,1,,,75,0
24780,note_on,0,0,2,,,,,,,,,1,,,71,49
24780,note_on,120,0,1,,,,,,,,,0,,,83,0
24780,note_on,26,0,3,,,,,,,,,2,,,59,62
24780,note_on,26,0,2,,,,,,,,,1,,,66,49
24780,note_on,0,0,1,,,,,,,,,0,,,78,75
24780,note_on,0,0,2,,,,,,,,,1,,,75,49
24786,note_on,0,0,2,,,,,,,,,1,,,66,0
24786,note_on,6,0,1,,,,,,,,,0,,,78,0
24786,note_on,6,0,2,,,,,,,,,1,,,75,0
24786,note_on,0,0,2,,,,,,,,,1,,,71,0
24810,note_on,30,0,3,,,,,,,,,2,,,59,0
24810,note_on,0,0,3,,,,,,,,,2,,,54,62
24814,note_on,4,0,3,,,,,,,,,2,,,54,0
24840,note_on,0,0,2,,,,,,,,,1,,,76,49
24840,note_on,54,0,2,,,,,,,,,1,,,70,49
24840,note_on,54,0,1,,,,,,,,,0,,,78,75
24870,note_on,0,0,1,,,,,,,,,0,,,88,75
24870,note_on,30,0,1,,,,,,,,,0,,,78,0
24870,note_on,56,0,3,,,,,,,,,2,,,68,62
24874,note_on,4,0,3,,,,,,,,,2,,,68,0
24900,note_on,0,0,2,,,,,,,,,1,,,76,62
24900,note_on,26,0,3,,,,,,,,,2,,,68,75
24900,note_on,60,0,2,,,,,,,,,1,,,76,0
24900,note_on,30,0,1,,,,,,,,,0,,,88,0
24900,note_on,0,0,2,,,,,,,,,1,,,70,0
24900,note_on,0,0,1,,,,,,,,,0,,,88,88
24900,note_on,0,0,2,,,,,,,,,1,,,78,62
24930,note_on,30,0,1,,,,,,,,,0,,,88,0
24930,note_on,0,0,3,,,,,,,,,2,,,66,75
24930,note_on,0,0,1,,,,,,,,,0,,,87,88
24930,note_on,30,0,3,,,,,,,,,2,,,68,0
24934,note_on,4,0,3,,,,,,,,,2,,,66,0
24960,note_on,26,0,3,,,,,,,,,2,,,66,75
24960,note_on,30,0,1,,,,,,,,,0,,,87,0
24960,note_on,0,0,2,,,,,,,,,1,,,78,62
24960,note_on,0,0,1,,,,,,,,,0,,,87,88
24960,note_on,0,0,2,,,,,,,,,1,,,76,62
24960,note_on,0,0,2,,,,,,,,,1,,,76,0
24960,note_on,60,0,2,,,,,,,,,1,,,78,0
24990,note_on,30,0,3,,,,,,,,,2,,,66,0
24990,note_on,0,0,3,,,,,,,,,2,,,64,75
24990,note_on,30,0,1,,,,,,,,,0,,,87,0
24990,note_on,0,0,1,,,,,,,,,0,,,85,88
24994,note_on,4,0,3,,,,,,,,,2,,,64,0
25020,note_on,0,0,2,,,,,,,,,1,,,76,62
25020,note_on,30,0,1,,,,,,,,,0,,,85,0
25020,note_on,0,0,1,,,,,,,,,0,,,85,88
25020,note_on,0,0,2,,,,,,,,,1,,,76,0
25020,note_on,0,0,2,,,,,,,,,1,,,78,62
25020,note_on,60,0,2,,,,,,,,,1,,,78,0
25020,note_on,26,0,3,,,,,,,,,2,,,64,75
25050,note_on,0,0,3,,,,,,,,,2,,,63,75
25050,note_on,30,0,3,,,,,,,,,2,,,64,0
25054,note_on,4,0,3,,,,,,,,,2,,,63,0
25080,note_on,0,0,2,,,,,,,,,1,,,76,0
25080,note_on,26,0,3,,,,,,,,,2,,,63,62
25080,note_on,60,0,2,,,,,,,,,1,,,78,0
25110,note_on,30,0,3,,,,,,,,,2,,,63,0
25110,note_on,0,0,2,,,,,,,,,1,,,70,49
25110,note_on,0,0,3,,,,,,,,,2,,,61,62
25110,note_on,0,0,2,,,,,,,,,1,,,76,49
25110,note_on,30,0,2,,,,,,,,,1,,,66,49
25114,note_on,0,0,2,,,,,,,,,1,,,66,0
25114,note_on,4,0,2,,,,,,,,,1,,,76,0
25114,note_on,0,0,2,,,,,,,,,1,,,70,0
25114,note_on,4,0,3,,,,,,,,,2,,,61,0
25140,note_on,120,0,1,,,,,,,,,0,,,85,0
25140,note_on,0,0,2,,,,,,,,,1,,,73,49
25140,note_on,26,0,2,,,,,,,,,1,,,70,49
25140,note_on,0,0,2,,,,,,,,,1,,,76,49
25140,note_on,0,0,1,,,,,,,,,0,,,78,75
25140,note_on,26,0,3,,,,,,,,,2,,,61,62
25146,note_on,6,0,1,,,,,,,,,0,,,78,0
25146,note_on,0,0,2,,,,,,,,,1,,,73,0
25146,note_on,6,0,2,,,,,,,,,1,,,76,0
25146,note_on,0,0,2,,,,,,,,,1,,,70,0
25170,note_on,30,0,3,,,,,,,,,2,,,61,0
25170,note_on,0,0,3,,,,,,,,,2,,,54,62
25174,note_on,4,0,3,,,,,,,,,2,,,54,0
25180,note_on,6,0,3,,,,,,,,,2,,,47,78
25190,note_on,10,0,3,,,,,,,,,2,,,54,83
25200,note_on,54,0,1,,,,,,,,,0,,,75,88
25200,note_on,10,0,3,,,,,,,,,2,,,63,101
25200,note_on,0,0,1,,,,,,,,,0,,,78,88
25200,note_on,0,0,1,,,,,,,,,0,,,87,88
25206,note_on,6,0,3,,,,,,,,,2,,,63,0
25206,note_on,0,0,3,,,,,,,,,2,,,54,0
25206,note_on,0,0,3,,,,,,,,,2,,,47,0
25209,note_on,9,0,1,,,,,,,,,0,,,87,0
25209,note_on,0,0,1,,,,,,,,,0,,,75,0
25209,note_on,0,0,1,,,,,,,,,0,,,78,0
25260,note_on,54,0,3,,,,,,,,,2,,,63,75
25290,note_on,0,0,3,,,,,,,,,2,,,59,75
25290,note_on,30,0,3,,,,,,,,,2,,,63,0
25290,note_on,0,0,1,,,,,,,,,0,,,78,88
25290,note_on,81,0,1,,,,,,,,,0,,,75,88
25290,note_on,0,0,1,,,,,,,,,0,,,87,88
25294,note_on,0,0,1,,,,,,,,,0,,,78,0
25294,note_on,4,0,1,,,,,,,,,0,,,87,0
25294,note_on,0,0,1,,,,,,,,,0,,,75,0
25320,note_on,0,0,1,,,,,,,,,0,,,78,88
25320,note_on,0,0,1,,,,,,,,,0,,,87,88
25320,note_on,26,0,1,,,,,,,,,0,,,75,88
25320,note_on,0,0,3,,,,,,,,,2,,,54,75
25320,note_on,30,0,3,,,,,,,,,2,,,59,0
25326,note_on,6,0,1,,,,,,,,,0,,,87,0
25326,note_on,0,0,1,,,,,,,,,0,,,78,0
25326,note_on,0,0,1,,,,,,,,,0,,,75,0
25350,note_on,0,0,3,,,,,,,,,2,,,51,75
25350,note_on,30,0,3,,,,,,,,,2,,,54,0
25360,note_on,10,0,3,,,,,,,,,2,,,44,91
25370,note_on,10,0,3,,,,,,,,,2,,,51,96
25380,note_on,0,0,3,,,,,,,,,2,,,59,101
25380,note_on,10,0,3,,,,,,,,,2,,,51,0
25380,note_on,54,0,1,,,,,,,,,0,,,75,88
25380,note_on,0,0,1,,,,,,,,,0,,,80,88
25380,note_on,0,0,1,,,,,,,,,0,,,87,88
25386,note_on,0,0,3,,,,,,,,,2,,,51,0
25386,note_on,0,0,3,,,,,,,,,2,,,44,0
25386,note_on,6,0,3,,,,,,,,,2,,,59,0
25440,note_on,54,0,3,,,,,,,,,2,,,59,75
25470,note_on,30,0,3,,,,,,,,,2,,,59,0
25470,note_on,0,0,1,,,,,,,,,0,,,83,88
25470,note_on,0,0,1,,,,,,,,,0,,,80,0
25470,note_on,0,0,1,,,,,,,,,0,,,75,88
25470,note_on,0,0,3,,,,,,,,,2,,,56,75
25470,note_on,0,0,1,,,,,,,,,0,,,71,88
25470,note_on,90,0,1,,,,,,,,,0,,,87,0
25470,note_on,0,0,1,,,,,,,,,0,,,75,0
25474,note_on,0,0,1,,,,,,,,,0,,,71,0
25474,note_on,0,0,1,,,,,,,,,0,,,75,0
25474,note_on,4,0,1,,,,,,,,,0,,,83,0
25500,note_on,0,0,1,,,,,,,,,0,,,75,88
25500,note_on,0,0,1,,,,,,,,,0,,,80,88
25500,note_on,30,0,3,,,,,,,,,2,,,56,0
25500,note_on,26,0,1,,,,,,,,,0,,,68,88
25500,note_on,0,0,3,,,,,,,,,2,,,51,75
25506,note_on,6,0,1,,,,,,,,,0,,,80,0
25506,note_on,0,0,1,,,,,,,,,0,,,75,0
25506,note_on,0,0,1,,,,,,,,,0,,,68,0
25530,note_on,0,0,3,,,,,,,,,2,,,47,75
25530,note_on,30,0,3,,,,,,,,,2,,,51,0
25540,note_on,10,0,3,,,,,,,,,2,,,51,91
25550,note_on,10,0,3,,,,,,,,,2,,,58,96
25560,note_on,10,0,3,,,,,,,,,2,,,47,0
25560,note_on,0,0,1,,,,,,,,,0,,,82,101
25560,note_on,54,0,1,,,,,,,,,0,,,70,101
25560,note_on,0,0,3,,,,,,,,,2,,,67,114
25560,note_on,0,0,1,,,,,,,,,0,,,75,101
25566,note_on,6,0,3,,,,,,,,,2,,,67,0
25566,note_on,0,0,3,,,,,,,,,2,,,51,0
25566,note_on,0,0,3,,,,,,,,,2,,,58,0
25620,note_on,0,0,1,,,,,,,,,0,,,75,0
25620,note_on,0,0,1,,,,,,,,,0,,,75,101
25620,note_on,0,0,1,,,,,,,,,0,,,70,0
25620,note_on,54,0,3,,,,,,,,,2,,,67,88
25620,note_on,0,0,1,,,,,,,,,0,,,87,101
25620,note_on,60,0,1,,,,,,,,,0,,,82,0
25626,note_on,6,0,1,,,,,,,,,0,,,87,0
25626,note_on,0,0,1,,,,,,,,,0,,,75,0
25650,note_on,30,0,3,,,,,,,,,2,,,67,0
25650,note_on,0,0,3,,,,,,,,,2,,,63,88
25680,note_on,0,0,1,,,,,,,,,0,,,79,101
25680,note_on,0,0,1,,,,,,,,,0,,,75,101
25680,note_on,0,0,3,,,,,,,,,2,,,58,88
25680,note_on,30,0,3,,,,,,,,,2,,,63,0
25680,note_on,54,0,1,,,,,,,,,0,,,67,101
25686,note_on,0,0,1,,,,,,,,,0,,,67,0
25686,note_on,6,0,1,,,,,,,,,0,,,79,0
25686,note_on,0,0,1,,,,,,,,,0,,,75,0
25710,note_on,0,0,3,,,,,,,,,2,,,51,88
25710,note_on,30,0,3,,,,,,,,,2,,,58,0
25720,note_on,10,0,3,,,,,,,,,2,,,44,104
25730,note_on,10,0,3,,,,,,,,,2,,,51,109
25740,note_on,54,0,1,,,,,,,,,0,,,68,101
25740,note_on,10,0,3,,,,,,,,,2,,,51,0
25740,note_on,0,0,1,,,,,,,,,0,,,75,101
25740,note_on,0,0,1,,,,,,,,,0,,,80,101
25740,note_on,0,0,3,,,,,,,,,2,,,59,114
25746,note_on,0,0,3,,,,,,,,,2,,,51,0
25746,note_on,6,0,3,,,,,,,,,2,,,59,0
25746,note_on,0,0,3,,,,,,,,,2,,,44,0
25752,note_on,12,0,1,,,,,,,,,0,,,80,0
25752,note_on,0,0,1,,,,,,,,,0,,,68,0
25752,note_on,0,0,1,,,,,,,,,0,,,75,0
25800,note_on,54,0,3,,,,,,,,,2,,,59,88
25830,note_on,0,0,3,,,,,,,,,2,,,56,88
25830,note_on,30,0,3,,,,,,,,,2,,,59,0
25860,note_on,0,0,3,,,,,,,,,2,,,51,88
25860,note_on,30,0,3,,,,,,,,,2,,,56,0
25890,note_on,0,0,3,,,,,,,,,2,,,44,88
25890,note_on,30,0,3,,,,,,,,,2,,,51,0
25920,note_on,30,0,3,,,,,,,,,2,,,44,0
25920,note_on,0,0,4,,,,,,,,,3,,,54,49
25920,note_on,2460,0,4,,,,,,,,,3,,,48,49
25920,note_on,0,0,4,,,,,,,,,3,,,57,49
25920,note_on,168,0,1,,,,,,,,,0,,,75,62
25950,note_on,30,0,3,,,,,,,,,2,,,66,49
25950,note_on,804,0,2,,,,,,,,,1,,,69,49
25954,note_on,4,0,3,,,,,,,,,2,,,66,0
25954,note_on,4,0,2,,,,,,,,,1,,,69,0
25980,note_on,0,0,4,,,,,,,,,3,,,48,0
25980,note_on,26,0,2,,,,,,,,,1,,,69,49
25980,note_on,0,0,4,,,,,,,,,3,,,54,0
25980,note_on,60,0,4,,,,,,,,,3,,,57,0
25980,note_on,26,0,3,,,,,,,,,2,,,66,49
26010,note_on,0,0,3,,,,,,,,,2,,,64,49
26010,note_on,0,0,2,,,,,,,,,1,,,68,49
26010,note_on,30,0,2,,,,,,,,,1,,,69,0
26010,note_on,30,0,3,,,,,,,,,2,,,66,0
26010,note_on,90,0,1,,,,,,,,,0,,,75,0
26010,note_on,0,0,1,,,,,,,,,0,,,76,62
26014,note_on,4,0,2,,,,,,,,,1,,,68,0
26014,note_on,4,0,3,,,,,,,,,2,,,64,0
26040,note_on,0,0,1,,,,,,,,,0,,,75,62
26040,note_on,26,0,2,,,,,,,,,1,,,68,49
26040,note_on,26,0,3,,,,,,,,,2,,,64,49
26040,note_on,30,0,1,,,,,,,,,0,,,76,0
26070,note_on,0,0,2,,,,,,,,,1,,,66,49
26070,note_on,30,0,3,,,,,,,,,2,,,64,0
26070,note_on,0,0,3,,,,,,,,,2,,,63,49
26070,note_on,30,0,2,,,,,,,,,1,,,68,0
26074,note_on,4,0,2,,,,,,,,,1,,,66,0
26074,note_on,4,0,3,,,,,,,,,2,,,63,0
26100,note_on,26,0,2,,,,,,,,,1,,,66,49
26100,note_on,60,0,1,,,,,,,,,0,,,75,0
26100,note_on,26,0,3,,,,,,,,,2,,,63,49
26100,note_on,0,0,1,,,,,,,,,0,,,78,62
26130,note_on,0,0,2,,,,,,,,,1,,,65,49
26130,note_on,30,0,3,,,,,,,,,2,,,63,0
26130,note_on,30,0,2,,,,,,,,,1,,,66,0
26130,note_on,0,0,3,,,,,,,,,2,,,62,49
26134,note_on,4,0,2,,,,,,,,,1,,,65,0
26134,note_on,4,0,3,,,,,,,,,2,,,62,0
26160,note_on,26,0,2,,,,,,,,,1,,,65,49
26160,note_on,26,0,3,,,,,,,,,2,,,62,49
26190,note_on,90,0,1,,,,,,,,,0,,,78,0
26190,note_on,0,0,2,,,,,,,,,1,,,66,49
26190,note_on,30,0,3,,,,,,,,,2,,,62,0
26190,note_on,0,0,1,,,,,,,,,0,,,76,62
26190,note_on,30,0,2,,,,,,,,,1,,,65,0
26190,note_on,0,0,3,,,,,,,,,2,,,63,49
26194,note_on,4,0,3,,,,,,,,,2,,,63,0
26194,note_on,4,0,2,,,,,,,,,1,,,66,0
26220,note_on,0,0,1,,,,,,,,,0,,,75,62
26220,note_on,26,0,3,,,,,,,,,2,,,63,49
26220,note_on,26,0,2,,,,,,,,,1,,,66,49
26220,note_on,30,0,1,,,,,,,,,0,,,76,0
26250,note_on,30,0,3,,,,,,,,,2,,,63,0
26250,note_on,30,0,2,,,,,,,,,1,,,66,0
26250,note_on,0,0,3,,,,,,,,,2,,,56,49
26254,note_on,4,0,3,,,,,,,,,2,,,56,0
26280,note_on,60,0,1,,,,,,,,,0,,,75,0
26280,note_on,0,0,4,,,,,,,,,3,,,42,49
26280,note_on,0,0,1,,,,,,,,,0,,,75,62
26280,note_on,300,0,4,,,,,,,,,3,,,36,49
26310,note_on,60,0,2,,,,,,,,,1,,,69,49
26310,note_on,56,0,3,,,,,,,,,2,,,66,49
26314,note_on,4,0,3,,,,,,,,,2,,,66,0
26314,note_on,4,0,2,,,,,,,,,1,,,69,0
26340,note_on,60,0,4,,,,,,,,,3,,,42,0
26340,note_on,26,0,3,,,,,,,,,2,,,66,49
26340,note_on,26,0,2,,,,,,,,,1,,,69,49
26340,note_on,0,0,4,,,,,,,,,3,,,36,0
26370,note_on,0,0,3,,,,,,,,,2,,,64,49
26370,note_on,0,0,1,,,,,,,,,0,,,73,62
26370,note_on,90,0,1,,,,,,,,,0,,,75,0
26370,note_on,0,0,2,,,,,,,,,1,,,68,49
26370,note_on,30,0,2,,,,,,,,,1,,,69,0
26370,note_on,30,0,3,,,,,,,,,2,,,66,0
26374,note_on,4,0,2,,,,,,,,,1,,,68,0
26374,note_on,4,0,3,,,,,,,,,2,,,64,0
26400,note_on,26,0,2,,,,,,,,,1,,,68,49
26400,note_on,30,0,1,,,,,,,,,0,,,73,0
26400,note_on,26,0,3,,,,,,,,,2,,,64,49
26400,note_on,0,0,1,,,,,,,,,0,,,75,62
26430,note_on,0,0,3,,,,,,,,,2,,,63,49
26430,note_on,0,0,2,,,,,,,,,1,,,66,49
26430,note_on,30,0,3,,,,,,,,,2,,,64,0
26430,note_on,30,0,2,,,,,,,,,1,,,68,0
26434,note_on,4,0,3,,,,,,,,,2,,,63,0
26434,note_on,4,0,2,,,,,,,,,1,,,66,0
26460,note_on,120,0,4,,,,,,,,,3,,,49,49
26460,note_on,60,0,1,,,,,,,,,0,,,75,0
26460,note_on,0,0,1,,,,,,,,,0,,,76,62
26490,note_on,56,0,2,,,,,,,,,1,,,68,49
26490,note_on,56,0,3,,,,,,,,,2,,,64,49
26494,note_on,4,0,3,,,,,,,,,2,,,64,0
26494,note_on,4,0,2,,,,,,,,,1,,,68,0
26520,note_on,26,0,3,,,,,,,,,2,,,64,49
26520,note_on,26,0,2,,,,,,,,,1,,,68,49
26520,note_on,60,0,4,,,,,,,,,3,,,49,0
26550,note_on,0,0,3,,,,,,,,,2,,,63,49
26550,note_on,0,0,2,,,,,,,,,1,,,66,49
26550,note_on,30,0,3,,,,,,,,,2,,,64,0
26550,note_on,30,0,2,,,,,,,,,1,,,68,0
26554,note_on,4,0,2,,,,,,,,,1,,,66,0
26554,note_on,4,0,3,,,,,,,,,2,,,63,0
26580,note_on,26,0,3,,,,,,,,,2,,,63,49
26580,note_on,26,0,2,,,,,,,,,1,,,66,49
26580,note_on,120,0,1,,,,,,,,,0,,,76,0
26580,note_on,0,0,1,,,,,,,,,0,,,73,62
26610,note_on,30,0,3,,,,,,,,,2,,,63,0
26610,note_on,0,0,3,,,,,,,,,2,,,61,49
26610,note_on,0,0,2,,,,,,,,,1,,,64,49
26610,note_on,30,0,2,,,,,,,,,1,,,66,0
26614,note_on,4,0,2,,,,,,,,,1,,,64,0
26614,note_on,4,0,3,,,,,,,,,2,,,61,0
26640,note_on,0,0,1,,,,,,,,,0,,,73,75
26640,note_on,0,0,1,,,,,,,,,0,,,61,75
26640,note_on,26,0,3,,,,,,,,,2,,,37,49
26640,note_on,60,0,1,,,,,,,,,0,,,73,0
26640,note_on,26,0,2,,,,,,,,,1,,,68,62
26670,note_on,0,0,2,,,,,,,,,1,,,64,62
26670,note_on,30,0,2,,,,,,,,,1,,,68,0
26670,note_on,30,0,3,,,,,,,,,2,,,37,0
26670,note_on,0,0,3,,,,,,,,,2,,,44,49
26674,note_on,4,0,2,,,,,,,,,1,,,64,0
26700,note_on,30,0,3,,,,,,,,,2,,,44,0
26700,note_on,0,0,3,,,,,,,,,2,,,52,49
26700,note_on,26,0,2,,,,,,,,,1,,,64,62
26730,note_on,30,0,3,,,,,,,,,2,,,52,0
26730,note_on,0,0,3,,,,,,,,,2,,,51,49
26730,note_on,0,0,2,,,,,,,,,1,,,63,62
26730,note_on,90,0,1,,,,,,,,,0,,,73,0
26730,note_on,0,0,1,,,,,,,,,0,,,56,75
26730,note_on,0,0,1,,,,,,,,,0,,,61,0
26730,note_on,0,0,1,,,,,,,,,0,,,68,75
26730,note_on,30,0,2,,,,,,,,,1,,,64,0
26734,note_on,4,0,3,,,,,,,,,2,,,51,0
26734,note_on,4,0,2,,,,,,,,,1,,,63,0
26760,note_on,0,0,1,,,,,,,,,0,,,56,0
26760,note_on,0,0,1,,,,,,,,,0,,,56,75
26760,note_on,0,0,1,,,,,,,,,0,,,68,75
26760,note_on,26,0,2,,,,,,,,,1,,,63,62
26760,note_on,30,0,1,,,,,,,,,0,,,68,0
26760,note_on,26,0,3,,,,,,,,,2,,,51,49
26790,note_on,0,0,2,,,,,,,,,1,,,61,62
26790,note_on,30,0,3,,,,,,,,,2,,,51,0
26790,note_on,0,0,3,,,,,,,,,2,,,49,49
26790,note_on,30,0,2,,,,,,,,,1,,,63,0
26794,note_on,4,0,2,,,,,,,,,1,,,61,0
26794,note_on,4,0,3,,,,,,,,,2,,,49,0
26820,note_on,26,0,2,,,,,,,,,1,,,73,75
26820,note_on,26,0,3,,,,,,,,,2,,,37,49
26820,note_on,0,0,1,,,,,,,,,0,,,76,88
26820,note_on,60,0,1,,,,,,,,,0,,,68,0
26820,note_on,0,0,1,,,,,,,,,0,,,64,88
26820,note_on,0,0,1,,,,,,,,,0,,,56,0
26850,note_on,0,0,3,,,,,,,,,2,,,44,49
26850,note_on,0,0,2,,,,,,,,,1,,,68,75
26850,note_on,30,0,2,,,,,,,,,1,,,73,0
26850,note_on,30,0,3,,,,,,,,,2,,,37,0
26854,note_on,4,0,2,,,,,,,,,1,,,68,0
26880,note_on,30,0,3,,,,,,,,,2,,,44,0
26880,note_on,26,0,2,,,,,,,,,1,,,68,75
26880,note_on,0,0,3,,,,,,,,,2,,,56,49
26910,note_on,30,0,2,,,,,,,,,1,,,68,0
26910,note_on,90,0,1,,,,,,,,,0,,,76,0
26910,note_on,0,0,1,,,,,,,,,0,,,75,88
26910,note_on,30,0,3,,,,,,,,,2,,,56,0
26910,note_on,0,0,3,,,,,,,,,2,,,54,49
26910,note_on,0,0,2,,,,,,,,,1,,,66,75
26910,note_on,0,0,1,,,,,,,,,0,,,64,0
26910,note_on,0,0,1,,,,,,,,,0,,,63,88
26914,note_on,4,0,3,,,,,,,,,2,,,54,0
26914,note_on,4,0,2,,,,,,,,,1,,,66,0
26940,note_on,30,0,1,,,,,,,,,0,,,75,0
26940,note_on,0,0,1,,,,,,,,,0,,,61,88
26940,note_on,0,0,1,,,,,,,,,0,,,73,88
26940,note_on,26,0,3,,,,,,,,,2,,,54,49
26940,note_on,0,0,1,,,,,,,,,0,,,63,0
26940,note_on,26,0,2,,,,,,,,,1,,,66,75
26970,note_on,0,0,2,,,,,,,,,1,,,64,75
26970,note_on,0,0,3,,,,,,,,,2,,,52,49
26970,note_on,30,0,2,,,,,,,,,1,,,66,0
26970,note_on,30,0,3,,,,,,,,,2,,,54,0
26974,note_on,4,0,2,,,,,,,,,1,,,64,0
26974,note_on,4,0,3,,,,,,,,,2,,,52,0
27000,note_on,60,0,1,,,,,,,,,0,,,73,0
27000,note_on,26,0,3,,,,,,,,,2,,,39,49
27000,note_on,0,0,1,,,,,,,,,0,,,61,0
27000,note_on,0,0,1,,,,,,,,,0,,,61,88
27000,note_on,0,0,1,,,,,,,,,0,,,73,88
27000,note_on,26,0,2,,,,,,,,,1,,,67,75
27030,note_on,30,0,3,,,,,,,,,2,,,39,0
27030,note_on,0,0,2,,,,,,,,,1,,,64,75
27030,note_on,0,0,3,,,,,,,,,2,,,43,49
27030,note_on,30,0,2,,,,,,,,,1,,,67,0
27034,note_on,4,0,2,,,,,,,,,1,,,64,0
27060,note_on,30,0,3,,,,,,,,,2,,,43,0
27060,note_on,0,0,3,,,,,,,,,2,,,52,49
27060,note_on,26,0,2,,,,,,,,,1,,,64,75
27090,note_on,0,0,1,,,,,,,,,0,,,71,88
27090,note_on,0,0,2,,,,,,,,,1,,,63,75
27090,note_on,0,0,3,,,,,,,,,2,,,51,49
27090,note_on,0,0,1,,,,,,,,,0,,,61,0
27090,note_on,0,0,1,,,,,,,,,0,,,59,88
27090,note_on,90,0,1,,,,,,,,,0,,,73,0
27090,note_on,30,0,3,,,,,,,,,2,,,52,0
27090,note_on,30,0,2,,,,,,,,,1,,,64,0
27094,note_on,4,0,2,,,,,,,,,1,,,63,0
27094,note_on,4,0,3,,,,,,,,,2,,,51,0
27120,note_on,0,0,1,,,,,,,,,0,,,70,88
27120,note_on,26,0,3,,,,,,,,,2,,,51,49
27120,note_on,30,0,1,,,,,,,,,0,,,71,0
27120,note_on,0,0,1,,,,,,,,,0,,,59,0
27120,note_on,26,0,2,,,,,,,,,1,,,63,75
27120,note_on,0,0,1,,,,,,,,,0,,,58,88
27150,note_on,0,0,2,,,,,,,,,1,,,61,75
27150,note_on,30,0,2,,,,,,,,,1,,,63,0
27150,note_on,0,0,3,,,,,,,,,2,,,49,49
27150,note_on,30,0,3,,,,,,,,,2,,,51,0
27154,note_on,4,0,2,,,,,,,,,1,,,61,0
27154,note_on,4,0,3,,,,,,,,,2,,,49,0
27180,note_on,0,0,1,,,,,,,,,0,,,56,88
27180,note_on,60,0,1,,,,,,,,,0,,,70,0
27180,note_on,26,0,2,,,,,,,,,1,,,63,75
27180,note_on,26,0,3,,,,,,,,,2,,,44,49
27180,note_on,0,0,1,,,,,,,,,0,,,58,0
27180,note_on,0,0,1,,,,,,,,,0,,,68,88
27210,note_on,30,0,2,,,,,,,,,1,,,63,0
27210,note_on,30,0,3,,,,,,,,,2,,,44,0
27210,note_on,0,0,2,,,,,,,,,1,,,59,75
27210,note_on,0,0,3,,,,,,,,,2,,,47,49
27214,note_on,4,0,3,,,,,,,,,2,,,47,0
27214,note_on,4,0,2,,,,,,,,,1,,,59,0
27240,note_on,0,0,1,,,,,,,,,0,,,56,0
27240,note_on,60,0,1,,,,,,,,,0,,,68,0
27240,note_on,26,0,2,,,,,,,,,1,,,59,75
27240,note_on,26,0,3,,,,,,,,,2,,,47,49
27270,note_on,0,0,3,,,,,,,,,2,,,50,49
27270,note_on,30,0,2,,,,,,,,,1,,,59,0
27270,note_on,30,0,3,,,,,,,,,2,,,47,0
27270,note_on,0,0,2,,,,,,,,,1,,,58,75
27274,note_on,4,0,3,,,,,,,,,2,,,50,0
27274,note_on,4,0,2,,,,,,,,,1,,,58,0
27300,note_on,26,0,2,,,,,,,,,1,,,58,75
27300,note_on,26,0,3,,,,,,,,,2,,,50,49
27330,note_on,30,0,2,,,,,,,,,1,,,58,0
27330,note_on,30,0,3,,,,,,,,,2,,,50,0
27330,note_on,0,0,2,,,,,,,,,1,,,56,75
27330,note_on,0,0,3,,,,,,,,,2,,,51,49
27334,note_on,4,0,3,,,,,,,,,2,,,51,0
27334,note_on,4,0,2,,,,,,,,,1,,,56,0
27360,note_on,840,0,4,,,,,,,,,3,,,51,49
27360,note_on,26,0,3,,,,,,,,,2,,,55,49
27360,note_on,120,0,1,,,,,,,,,0,,,63,88
27366,note_on,6,0,1,,,,,,,,,0,,,63,0
27390,note_on,30,0,3,,,,,,,,,2,,,55,0
27390,note_on,0,0,3,,,,,,,,,2,,,61,49
27394,note_on,4,0,3,,,,,,,,,2,,,61,0
27420,note_on,54,0,1,,,,,,,,,0,,,75,88
27420,note_on,26,0,3,,,,,,,,,2,,,61,49
27426,note_on,6,0,1,,,,,,,,,0,,,75,0
27450,note_on,0,0,3,,,,,,,,,2,,,59,49
27450,note_on,30,0,3,,,,,,,,,2,,,61,0
27454,note_on,4,0,3,,,,,,,,,2,,,59,0
27480,note_on,26,0,3,,,,,,,,,2,,,59,49
27480,note_on,54,0,1,,,,,,,,,0,,,87,88
27486,note_on,6,0,1,,,,,,,,,0,,,87,0
27510,note_on,30,0,3,,,,,,,,,2,,,59,0
27510,note_on,0,0,3,,,,,,,,,2,,,58,49
27514,note_on,4,0,3,,,,,,,,,2,,,58,0
27540,note_on,0,0,4,,,,,,,,,3,,,44,49
27540,note_on,54,0,1,,,,,,,,,0,,,99,88
27540,note_on,26,0,3,,,,,,,,,2,,,51,49
27540,note_on,180,0,4,,,,,,,,,3,,,51,0
27546,note_on,6,0,1,,,,,,,,,0,,,99,0
27570,note_on,30,0,3,,,,,,,,,2,,,51,0
27570,note_on,0,0,3,,,,,,,,,2,,,59,49
27574,note_on,4,0,3,,,,,,,,,2,,,59,0
27600,note_on,54,0,1,,,,,,,,,0,,,87,88
27600,note_on,26,0,3,,,,,,,,,2,,,59,49
27606,note_on,6,0,1,,,,,,,,,0,,,87,0
27630,note_on,0,0,3,,,,,,,,,2,,,58,49
27630,note_on,30,0,3,,,,,,,,,2,,,59,0
27634,note_on,4,0,3,,,,,,,,,2,,,58,0
27660,note_on,26,0,3,,,,,,,,,2,,,58,49
27660,note_on,54,0,1,,,,,,,,,0,,,75,88
27660,note_on,120,0,4,,,,,,,,,3,,,44,0
27666,note_on,6,0,1,,,,,,,,,0,,,75,0
27690,note_on,0,0,3,,,,,,,,,2,,,56,49
27690,note_on,30,0,3,,,,,,,,,2,,,58,0
27694,note_on,4,0,3,,,,,,,,,2,,,56,0
27720,note_on,54,0,1,,,,,,,,,0,,,63,101
27720,note_on,60,0,4,,,,,,,,,3,,,51,62
27720,note_on,26,0,3,,,,,,,,,2,,,55,62
27726,note_on,6,0,1,,,,,,,,,0,,,63,0
27750,note_on,30,0,3,,,,,,,,,2,,,55,0
27750,note_on,0,0,3,,,,,,,,,2,,,61,62
27754,note_on,4,0,3,,,,,,,,,2,,,61,0
27780,note_on,26,0,3,,,,,,,,,2,,,61,62
27780,note_on,54,0,1,,,,,,,,,0,,,75,101
27786,note_on,6,0,1,,,,,,,,,0,,,75,0
27810,note_on,0,0,3,,,,,,,,,2,,,60,62
27810,note_on,30,0,3,,,,,,,,,2,,,61,0
27814,note_on,4,0,3,,,,,,,,,2,,,60,0
27840,note_on,54,0,1,,,,,,,,,0,,,87,101
27840,note_on,26,0,3,,,,,,,,,2,,,60,62
27846,note_on,6,0,1,,,,,,,,,0,,,87,0
27870,note_on,0,0,3,,,,,,,,,2,,,58,62
27870,note_on,30,0,3,,,,,,,,,2,,,60,0
27874,note_on,4,0,3,,,,,,,,,2,,,58,0
27900,note_on,180,0,4,,,,,,,,,3,,,51,0
27900,note_on,0,0,4,,,,,,,,,3,,,44,62
27900,note_on,54,0,1,,,,,,,,,0,,,99,101
27906,note_on,6,0,1,,,,,,,,,0,,,99,0
27930,note_on,56,0,3,,,,,,,,,2,,,60,62
27930,note_on,0,0,3,,,,,,,,,2,,,63,62
27934,note_on,0,0,3,,,,,,,,,2,,,60,0
27934,note_on,4,0,3,,,,,,,,,2,,,63,0
27960,note_on,60,0,4,,,,,,,,,3,,,44,0
27960,note_on,54,0,1,,,,,,,,,0,,,87,101
27960,note_on,26,0,3,,,,,,,,,2,,,60,62
27960,note_on,0,0,3,,,,,,,,,2,,,63,62
27966,note_on,6,0,1,,,,,,,,,0,,,87,0
27990,note_on,0,0,3,,,,,,,,,2,,,58,62
27990,note_on,0,0,3,,,,,,,,,2,,,60,0
27990,note_on,0,0,3,,,,,,,,,2,,,61,62
27990,note_on,30,0,3,,,,,,,,,2,,,63,0
27994,note_on,0,0,3,,,,,,,,,2,,,58,0
27994,note_on,4,0,3,,,,,,,,,2,,,61,0
28020,note_on,54,0,1,,,,,,,,,0,,,75,101
28020,note_on,26,0,3,,,,,,,,,2,,,58,62
28020,note_on,0,0,3,,,,,,,,,2,,,61,62
28026,note_on,6,0,1,,,,,,,,,0,,,75,0
28050,note_on,30,0,3,,,,,,,,,2,,,61,0
28050,note_on,0,0,3,,,,,,,,,2,,,58,0
28050,note_on,0,0,3,,,,,,,,,2,,,56,62
28050,note_on,0,0,3,,,,,,,,,2,,,60,62
28054,note_on,0,0,3,,,,,,,,,2,,,56,0
28054,note_on,4,0,3,,,,,,,,,2,,,60,0
28080,note_on,54,0,1,,,,,,,,,0,,,65,101
28080,note_on,120,0,4,,,,,,,,,3,,,49,62
28086,note_on,6,0,1,,,,,,,,,0,,,65,0
28110,note_on,0,0,3,,,,,,,,,2,,,65,62
28110,note_on,56,0,3,,,,,,,,,2,,,61,62
28114,note_on,4,0,3,,,,,,,,,2,,,65,0
28114,note_on,0,0,3,,,,,,,,,2,,,61,0
28140,note_on,54,0,1,,,,,,,,,0,,,77,101
28140,note_on,60,0,4,,,,,,,,,3,,,49,0
28140,note_on,26,0,3,,,,,,,,,2,,,61,62
28140,note_on,0,0,3,,,,,,,,,2,,,65,62
28146,note_on,6,0,1,,,,,,,,,0,,,77,0
28170,note_on,0,0,3,,,,,,,,,2,,,60,62
28170,note_on,30,0,3,,,,,,,,,2,,,65,0
28170,note_on,0,0,3,,,,,,,,,2,,,63,62
28170,note_on,0,0,3,,,,,,,,,2,,,61,0
28174,note_on,4,0,3,,,,,,,,,2,,,63,0
28174,note_on,0,0,3,,,,,,,,,2,,,60,0
28200,note_on,54,0,1,,,,,,,,,0,,,89,101
28200,note_on,0,0,3,,,,,,,,,2,,,63,62
28200,note_on,26,0,3,,,,,,,,,2,,,60,62
28206,note_on,6,0,1,,,,,,,,,0,,,89,0
28230,note_on,0,0,3,,,,,,,,,2,,,61,62
28230,note_on,0,0,3,,,,,,,,,2,,,58,62
28230,note_on,0,0,3,,,,,,,,,2,,,60,0
28230,note_on,30,0,3,,,,,,,,,2,,,63,0
28234,note_on,4,0,3,,,,,,,,,2,,,61,0
28234,note_on,0,0,3,,,,,,,,,2,,,58,0
28260,note_on,120,0,4,,,,,,,,,3,,,51,62
28260,note_on,54,0,1,,,,,,,,,0,,,67,101
28266,note_on,6,0,1,,,,,,,,,0,,,67,0
28290,note_on,56,0,3,,,,,,,,,2,,,61,62
28290,note_on,0,0,3,,,,,,,,,2,,,65,62
28294,note_on,4,0,3,,,,,,,,,2,,,65,0
28294,note_on,0,0,3,,,,,,,,,2,,,61,0
28320,note_on,54,0,1,,,,,,,,,0,,,79,101
28320,note_on,26,0,3,,,,,,,,,2,,,61,62
28320,note_on,60,0,4,,,,,,,,,3,,,51,0
28320,note_on,0,0,3,,,,,,,,,2,,,65,62
28326,note_on,6,0,1,,,,,,,,,0,,,79,0
28350,note_on,0,0,3,,,,,,,,,2,,,60,62
28350,note_on,0,0,3,,,,,,,,,2,,,61,0
28350,note_on,0,0,3,,,,,,,,,2,,,63,62
28350,note_on,30,0,3,,,,,,,,,2,,,65,0
28354,note_on,0,0,3,,,,,,,,,2,,,60,0
28354,note_on,4,0,3,,,,,,,,,2,,,63,0
28380,note_on,0,0,3,,,,,,,,,2,,,63,62
28380,note_on,54,0,1,,,,,,,,,0,,,91,101
28380,note_on,26,0,3,,,,,,,,,2,,,60,62
28386,note_on,6,0,1,,,,,,,,,0,,,91,0
28410,note_on,0,0,3,,,,,,,,,2,,,58,62
28410,note_on,0,0,3,,,,,,,,,2,,,60,0
28410,note_on,0,0,3,,,,,,,,,2,,,61,62
28410,note_on,30,0,3,,,,,,,,,2,,,63,0
28414,note_on,0,0,3,,,,,,,,,2,,,58,0
28414,note_on,4,0,3,,,,,,,,,2,,,61,0
28440,control_change,54,0,1,,,,,,,,,0,64,127,,
28440,control_change,26,0,3,,,,,,,,,2,64,127,,
28440,note_on,0,0,3,,,,,,,,,2,,,32,88
28440,note_on,0,0,3,,,,,,,,,2,,,44,88
28440,control_change,1106,0,2,,,,,,,,,1,64,127,,
28440,note_on,0,0,1,,,,,,,,,0,,,75,75
28440,note_on,0,0,2,,,,,,,,,1,,,72,101
28470,note_on,0,0,1,,,,,,,,,0,,,84,101
28470,note_on,30,0,1,,,,,,,,,0,,,75,0
28474,note_on,4,0,1,,,,,,,,,0,,,84,0
28500,note_on,0,0,3,,,,,,,,,2,,,56,88
28500,note_on,26,0,1,,,,,,,,,0,,,84,101
28500,note_on,0,0,3,,,,,,,,,2,,,51,88
28500,note_on,0,0,3,,,,,,,,,2,,,48,88
28500,note_on,0,0,3,,,,,,,,,2,,,32,0
28500,note_on,0,0,2,,,,,,,,,1,,,75,88
28500,note_on,0,0,2,,,,,,,,,1,,,72,88
28500,note_on,0,0,3,,,,,,,,,2,,,60,88
28500,note_on,60,0,2,,,,,,,,,1,,,72,0
28500,note_on,60,0,3,,,,,,,,,2,,,44,0
28530,note_on,0,0,1,,,,,,,,,0,,,82,101
28530,note_on,30,0,1,,,,,,,,,0,,,84,0
28534,note_on,4,0,1,,,,,,,,,0,,,82,0
28560,note_on,60,0,3,,,,,,,,,2,,,60,0
28560,note_on,60,0,2,,,,,,,,,1,,,75,0
28560,note_on,0,0,3,,,,,,,,,2,,,56,88
28560,note_on,0,0,3,,,,,,,,,2,,,56,0
28560,note_on,0,0,3,,,,,,,,,2,,,51,88
28560,note_on,0,0,3,,,,,,,,,2,,,51,0
28560,note_on,0,0,3,,,,,,,,,2,,,48,0
28560,note_on,0,0,2,,,,,,,,,1,,,72,88
28560,note_on,0,0,2,,,,,,,,,1,,,72,0
28560,note_on,0,0,3,,,,,,,,,2,,,48,88
28560,note_on,0,0,3,,,,,,,,,2,,,60,88
28560,note_on,26,0,1,,,,,,,,,0,,,82,101
28560,note_on,0,0,2,,,,,,,,,1,,,75,88
28590,note_on,0,0,1,,,,,,,,,0,,,80,101
28590,note_on,30,0,1,,,,,,,,,0,,,82,0
28594,note_on,4,0,1,,,,,,,,,0,,,80,0
28620,note_on,60,0,2,,,,,,,,,1,,,75,0
28620,note_on,60,0,3,,,,,,,,,2,,,60,0
28620,note_on,26,0,1,,,,,,,,,0,,,75,101
28620,note_on,0,0,3,,,,,,,,,2,,,56,88
28620,note_on,0,0,3,,,,,,,,,2,,,51,0
28620,note_on,0,0,3,,,,,,,,,2,,,56,0
28620,note_on,0,0,3,,,,,,,,,2,,,51,88
28620,note_on,0,0,2,,,,,,,,,1,,,72,0
28620,note_on,0,0,3,,,,,,,,,2,,,48,88
28620,note_on,0,0,2,,,,,,,,,1,,,72,88
28620,note_on,0,0,3,,,,,,,,,2,,,48,0
28620,note_on,0,0,3,,,,,,,,,2,,,60,88
28620,note_on,0,0,2,,,,,,,,,1,,,68,88
28650,note_on,0,0,1,,,,,,,,,0,,,80,101
28650,note_on,30,0,1,,,,,,,,,0,,,75,0
28654,note_on,4,0,1,,,,,,,,,0,,,80,0
28680,note_on,0,0,3,,,,,,,,,2,,,51,0
28680,note_on,0,0,3,,,,,,,,,2,,,48,88
28680,note_on,26,0,1,,,,,,,,,0,,,80,101
28680,note_on,0,0,3,,,,,,,,,2,,,56,0
28680,note_on,0,0,3,,,,,,,,,2,,,56,88
28680,note_on,0,0,3,,,,,,,,,2,,,60,88
28680,note_on,60,0,2,,,,,,,,,1,,,72,0
28680,note_on,0,0,2,,,,,,,,,1,,,72,88
28680,note_on,0,0,2,,,,,,,,,1,,,68,88
28680,note_on,0,0,2,,,,,,,,,1,,,68,0
28680,note_on,0,0,3,,,,,,,,,2,,,48,0
28680,note_on,60,0,3,,,,,,,,,2,,,60,0
28680,note_on,0,0,3,,,,,,,,,2,,,51,88
28710,note_on,30,0,1,,,,,,,,,0,,,80,0
28710,note_on,0,0,1,,,,,,,,,0,,,79,101
28714,note_on,4,0,1,,,,,,,,,0,,,79,0
28740,control_change,0,0,3,,,,,,,,,2,64,0,,
28740,note_on,60,0,3,,,,,,,,,2,,,60,0
28740,control_change,0,0,2,,,,,,,,,1,64,0,,
28740,note_on,0,0,3,,,,,,,,,2,,,51,0
28740,note_on,60,0,2,,,,,,,,,1,,,72,0
28740,note_on,0,0,2,,,,,,,,,1,,,68,88
28740,note_on,0,0,3,,,,,,,,,2,,,56,88
28740,note_on,0,0,3,,,,,,,,,2,,,60,88
28740,note_on,0,0,3,,,,,,,,,2,,,51,88
28740,note_on,0,0,3,,,,,,,,,2,,,56,0
28740,note_on,0,0,3,,,,,,,,,2,,,48,88
28740,note_on,0,0,3,,,,,,,,,2,,,48,0
28740,note_on,26,0,1,,,,,,,,,0,,,79,101
28740,note_on,0,0,2,,,,,,,,,1,,,68,0
28740,note_on,0,0,2,,,,,,,,,1,,,72,88
28770,note_on,30,0,1,,,,,,,,,0,,,79,0
28770,note_on,0,0,1,,,,,,,,,0,,,77,101
28770,control_change,0,0,1,,,,,,,,,0,64,0,,
28774,note_on,4,0,1,,,,,,,,,0,,,77,0
28800,control_change,0,0,3,,,,,,,,,2,64,127,,
28800,note_on,0,0,2,,,,,,,,,1,,,73,88
28800,note_on,0,0,2,,,,,,,,,1,,,68,0
28800,note_on,0,0,2,,,,,,,,,1,,,67,88
28800,note_on,0,0,3,,,,,,,,,2,,,56,0
28800,note_on,0,0,3,,,,,,,,,2,,,51,88
28800,control_change,26,0,1,,,,,,,,,0,64,127,,
28800,note_on,0,0,3,,,,,,,,,2,,,48,0
28800,note_on,0,0,1,,,,,,,,,0,,,75,101
28800,note_on,60,0,3,,,,,,,,,2,,,60,0
28800,note_on,0,0,3,,,,,,,,,2,,,39,88
28800,note_on,60,0,2,,,,,,,,,1,,,72,0
28800,note_on,0,0,3,,,,,,,,,2,,,51,0
28830,note_on,30,0,1,,,,,,,,,0,,,75,0
28830,note_on,0,0,1,,,,,,,,,0,,,77,101
28834,note_on,4,0,1,,,,,,,,,0,,,77,0
28860,note_on,0,0,2,,,,,,,,,1,,,67,88
28860,note_on,60,0,2,,,,,,,,,1,,,73,0
28860,note_on,0,0,3,,,,,,,,,2,,,51,88
28860,note_on,0,0,3,,,,,,,,,2,,,58,88
28860,note_on,0,0,3,,,,,,,,,2,,,61,88
28860,note_on,0,0,3,,,,,,,,,2,,,39,0
28860,note_on,26,0,1,,,,,,,,,0,,,77,62
28860,note_on,60,0,3,,,,,,,,,2,,,51,0
28860,note_on,0,0,2,,,,,,,,,1,,,73,88
28860,note_on,0,0,2,,,,,,,,,1,,,67,0
28890,note_on,30,0,1,,,,,,,,,0,,,77,0
28890,note_on,0,0,1,,,,,,,,,0,,,75,62
28894,note_on,4,0,1,,,,,,,,,0,,,75,0
28920,note_on,0,0,2,,,,,,,,,1,,,67,0
28920,note_on,0,0,3,,,,,,,,,2,,,51,62
28920,note_on,0,0,3,,,,,,,,,2,,,51,0
28920,note_on,0,0,3,,,,,,,,,2,,,39,62
28920,note_on,0,0,2,,,,,,,,,1,,,67,88
28920,note_on,0,0,2,,,,,,,,,1,,,73,88
28920,note_on,0,0,3,,,,,,,,,2,,,58,0
28920,note_on,60,0,2,,,,,,,,,1,,,73,0
28920,note_on,26,0,1,,,,,,,,,0,,,75,75
28920,note_on,60,0,3,,,,,,,,,2,,,61,0
28950,note_on,0,0,1,,,,,,,,,0,,,77,75
28950,note_on,30,0,1,,,,,,,,,0,,,75,0
28954,note_on,4,0,1,,,,,,,,,0,,,77,0
28980,note_on,0,0,3,,,,,,,,,2,,,39,0
28980,note_on,0,0,3,,,,,,,,,2,,,51,62
28980,note_on,0,0,3,,,,,,,,,2,,,61,62
28980,note_on,0,0,2,,,,,,,,,1,,,67,0
28980,note_on,60,0,3,,,,,,,,,2,,,51,0
28980,note_on,0,0,2,,,,,,,,,1,,,73,88
28980,note_on,0,0,2,,,,,,,,,1,,,67,88
28980,note_on,26,0,1,,,,,,,,,0,,,77,75
28980,note_on,0,0,3,,,,,,,,,2,,,58,62
28980,note_on,60,0,2,,,,,,,,,1,,,73,0
29010,note_on,0,0,1,,,,,,,,,0,,,75,75
29010,note_on,30,0,1,,,,,,,,,0,,,77,0
29014,note_on,4,0,1,,,,,,,,,0,,,75,0
29040,note_on,0,0,2,,,,,,,,,1,,,67,88
29040,note_on,0,0,2,,,,,,,,,1,,,67,0
29040,note_on,60,0,3,,,,,,,,,2,,,61,0
29040,note_on,0,0,2,,,,,,,,,1,,,73,88
29040,note_on,26,0,1,,,,,,,,,0,,,75,62
29040,note_on,0,0,3,,,,,,,,,2,,,58,0
29040,note_on,0,0,3,,,,,,,,,2,,,51,49
29040,note_on,0,0,3,,,,,,,,,2,,,51,0
29040,note_on,60,0,2,,,,,,,,,1,,,73,0
29040,note_on,0,0,3,,,,,,,,,2,,,39,49
29070,note_on,0,0,1,,,,,,,,,0,,,77,62
29070,note_on,30,0,1,,,,,,,,,0,,,75,0
29074,note_on,4,0,1,,,,,,,,,0,,,77,0
29100,note_on,0,0,2,,,,,,,,,1,,,73,88
29100,note_on,0,0,2,,,,,,,,,1,,,67,88
29100,note_on,0,0,3,,,,,,,,,2,,,61,36
29100,note_on,0,0,3,,,,,,,,,2,,,58,36
29100,note_on,0,0,3,,,,,,,,,2,,,51,36
29100,note_on,60,0,3,,,,,,,,,2,,,51,0
29100,note_on,60,0,2,,,,,,,,,1,,,73,0
29100,control_change,0,0,3,,,,,,,,,2,64,0,,
29100,note_on,26,0,1,,,,,,,,,0,,,77,49
29100,note_on,0,0,2,,,,,,,,,1,,,67,0
29100,note_on,0,0,3,,,,,,,,,2,,,39,0
29130,control_change,0,0,1,,,,,,,,,0,64,0,,
29130,note_on,30,0,1,,,,,,,,,0,,,77,0
29130,note_on,0,0,1,,,,,,,,,0,,,75,49
29134,note_on,4,0,1,,,,,,,,,0,,,75,0
29160,note_on,0,0,3,,,,,,,,,2,,,44,75
29160,note_on,0,0,3,,,,,,,,,2,,,51,0
29160,note_on,0,0,3,,,,,,,,,2,,,32,75
29160,note_on,0,0,3,,,,,,,,,2,,,58,0
29160,control_change,0,0,3,,,,,,,,,2,64,127,,
29160,control_change,26,0,1,,,,,,,,,0,64,127,,
29160,note_on,60,0,2,,,,,,,,,1,,,73,0
29160,note_on,0,0,2,,,,,,,,,1,,,72,88
29160,note_on,0,0,2,,,,,,,,,1,,,67,0
29160,note_on,0,0,1,,,,,,,,,0,,,75,49
29160,note_on,60,0,3,,,,,,,,,2,,,61,0
29160,control_change,0,0,2,,,,,,,,,1,64,127,,
29190,note_on,30,0,1,,,,,,,,,0,,,75,0
29190,note_on,0,0,1,,,,,,,,,0,,,84,49
29194,note_on,4,0,1,,,,,,,,,0,,,84,0
29220,note_on,26,0,1,,,,,,,,,0,,,84,49
29220,note_on,0,0,3,,,,,,,,,2,,,32,0
29220,note_on,0,0,3,,,,,,,,,2,,,48,49
29220,note_on,60,0,3,,,,,,,,,2,,,44,0
29220,note_on,0,0,2,,,,,,,,,1,,,72,36
29220,note_on,0,0,2,,,,,,,,,1,,,75,36
29220,note_on,60,0,2,,,,,,,,,1,,,72,0
29220,note_on,0,0,3,,,,,,,,,2,,,51,49
29220,note_on,0,0,3,,,,,,,,,2,,,56,49
29220,note_on,0,0,3,,,,,,,,,2,,,60,49
29250,note_on,30,0,1,,,,,,,,,0,,,84,0
29250,note_on,0,0,1,,,,,,,,,0,,,82,49
29254,note_on,4,0,1,,,,,,,,,0,,,82,0
29280,note_on,0,0,3,,,,,,,,,2,,,48,49
29280,note_on,0,0,3,,,,,,,,,2,,,51,0
29280,note_on,0,0,3,,,,,,,,,2,,,51,49
29280,note_on,60,0,2,,,,,,,,,1,,,75,0
29280,note_on,0,0,3,,,,,,,,,2,,,56,0
29280,note_on,0,0,2,,,,,,,,,1,,,75,36
29280,note_on,0,0,2,,,,,,,,,1,,,72,36
29280,note_on,0,0,2,,,,,,,,,1,,,72,0
29280,note_on,0,0,3,,,,,,,,,2,,,56,49
29280,note_on,0,0,3,,,,,,,,,2,,,60,49
29280,note_on,26,0,1,,,,,,,,,0,,,82,49
29280,note_on,60,0,3,,,,,,,,,2,,,60,0
29280,note_on,0,0,3,,,,,,,,,2,,,48,0
29310,note_on,0,0,1,,,,,,,,,0,,,80,49
29310,note_on,30,0,1,,,,,,,,,0,,,82,0
29314,note_on,4,0,1,,,,,,,,,0,,,80,0
29340,note_on,0,0,2,,,,,,,,,1,,,72,36
29340,note_on,0,0,2,,,,,,,,,1,,,72,0
29340,note_on,0,0,2,,,,,,,,,1,,,68,36
29340,note_on,60,0,3,,,,,,,,,2,,,60,0
29340,note_on,0,0,3,,,,,,,,,2,,,48,0
29340,note_on,60,0,2,,,,,,,,,1,,,75,0
29340,note_on,26,0,1,,,,,,,,,0,,,75,49
29340,note_on,0,0,3,,,,,,,,,2,,,60,49
29340,note_on,0,0,3,,,,,,,,,2,,,48,49
29340,note_on,0,0,3,,,,,,,,,2,,,56,0
29340,note_on,0,0,3,,,,,,,,,2,,,51,0
29340,note_on,0,0,3,,,,,,,,,2,,,51,49
29340,note_on,0,0,3,,,,,,,,,2,,,56,49
29370,note_on,30,0,1,,,,,,,,,0,,,75,0
29370,note_on,0,0,1,,,,,,,,,0,,,80,49
29374,note_on,4,0,1,,,,,,,,,0,,,80,0
29400,note_on,0,0,3,,,,,,,,,2,,,51,0
29400,note_on,60,0,3,,,,,,,,,2,,,60,0
29400,note_on,0,0,3,,,,,,,,,2,,,48,0
29400,note_on,0,0,3,,,,,,,,,2,,,48,49
29400,note_on,0,0,3,,,,,,,,,2,,,60,49
29400,note_on,26,0,1,,,,,,,,,0,,,80,49
29400,note_on,0,0,2,,,,,,,,,1,,,68,0
29400,note_on,0,0,3,,,,,,,,,2,,,56,0
29400,note_on,60,0,2,,,,,,,,,1,,,72,0
29400,note_on,0,0,2,,,,,,,,,1,,,72,36
29400,note_on,0,0,3,,,,,,,,,2,,,51,49
29400,note_on,0,0,3,,,,,,,,,2,,,56,49
29400,note_on,0,0,2,,,,,,,,,1,,,68,36
29430,note_on,0,0,1,,,,,,,,,0,,,79,49
29430,note_on,30,0,1,,,,,,,,,0,,,80,0
29434,note_on,4,0,1,,,,,,,,,0,,,79,0
29460,note_on,0,0,2,,,,,,,,,1,,,68,0
29460,note_on,60,0,3,,,,,,,,,2,,,60,0
29460,note_on,0,0,2,,,,,,,,,1,,,72,36
29460,note_on,0,0,3,,,,,,,,,2,,,60,49
29460,note_on,0,0,2,,,,,,,,,1,,,68,36
29460,note_on,26,0,1,,,,,,,,,0,,,79,49
29460,control_change,0,0,3,,,,,,,,,2,64,0,,
29460,note_on,0,0,3,,,,,,,,,2,,,56,49
29460,note_on,60,0,2,,,,,,,,,1,,,72,0
29460,note_on,0,0,3,,,,,,,,,2,,,56,0
29460,note_on,0,0,3,,,,,,,,,2,,,51,49
29460,note_on,0,0,3,,,,,,,,,2,,,48,0
29460,note_on,0,0,3,,,,,,,,,2,,,48,49
29460,note_on,0,0,3,,,,,,,,,2,,,51,0
29460,control_change,0,0,2,,,,,,,,,1,64,0,,
29490,control_change,0,0,1,,,,,,,,,0,64,0,,
29490,note_on,30,0,1,,,,,,,,,0,,,79,0
29490,note_on,0,0,1,,,,,,,,,0,,,77,49
29494,note_on,4,0,1,,,,,,,,,0,,,77,0
29520,control_change,26,0,1,,,,,,,,,0,64,127,,
29520,note_on,0,0,3,,,,,,,,,2,,,51,49
29520,note_on,0,0,3,,,,,,,,,2,,,51,0
29520,note_on,0,0,3,,,,,,,,,2,,,48,0
29520,note_on,0,0,3,,,,,,,,,2,,,39,49
29520,note_on,0,0,1,,,,,,,,,0,,,75,49
29520,note_on,60,0,3,,,,,,,,,2,,,60,0
29520,note_on,60,0,2,,,,,,,,,1,,,72,0
29520,note_on,0,0,2,,,,,,,,,1,,,68,0
29520,control_change,0,0,3,,,,,,,,,2,64,127,,
29520,note_on,0,0,2,,,,,,,,,1,,,67,36
29520,note_on,0,0,3,,,,,,,,,2,,,56,0
29520,note_on,0,0,2,,,,,,,,,1,,,73,36
29550,note_on,30,0,1,,,,,,,,,0,,,75,0
29550,note_on,0,0,1,,,,,,,,,0,,,77,49
29554,note_on,4,0,1,,,,,,,,,0,,,77,0
29580,note_on,0,0,2,,,,,,,,,1,,,67,36
29580,note_on,60,0,2,,,,,,,,,1,,,73,0
29580,note_on,0,0,3,,,,,,,,,2,,,61,49
29580,note_on,0,0,2,,,,,,,,,1,,,67,0
29580,note_on,0,0,3,,,,,,,,,2,,,51,49
29580,note_on,0,0,3,,,,,,,,,2,,,58,49
29580,note_on,0,0,3,,,,,,,,,2,,,39,0
29580,note_on,0,0,2,,,,,,,,,1,,,73,36
29580,note_on,26,0,1,,,,,,,,,0,,,77,62
29580,note_on,60,0,3,,,,,,,,,2,,,51,0
29610,note_on,30,0,1,,,,,,,,,0,,,77,0
29610,note_on,0,0,1,,,,,,,,,0,,,75,62
29614,note_on,4,0,1,,,,,,,,,0,,,75,0
29640,note_on,0,0,3,,,,,,,,,2,,,39,62
29640,note_on,0,0,3,,,,,,,,,2,,,51,0
29640,note_on,0,0,2,,,,,,,,,1,,,67,0
29640,note_on,60,0,2,,,,,,,,,1,,,73,0
29640,note_on,0,0,3,,,,,,,,,2,,,58,0
29640,note_on,0,0,2,,,,,,,,,1,,,73,36
29640,note_on,0,0,2,,,,,,,,,1,,,67,36
29640,note_on,0,0,3,,,,,,,,,2,,,51,62
29640,note_on,26,0,1,,,,,,,,,0,,,75,75
29640,note_on,60,0,3,,,,,,,,,2,,,61,0
29670,note_on,30,0,1,,,,,,,,,0,,,75,0
29670,note_on,0,0,1,,,,,,,,,0,,,77,75
29674,note_on,4,0,1,,,,,,,,,0,,,77,0
29700,note_on,0,0,3,,,,,,,,,2,,,39,0
29700,note_on,0,0,3,,,,,,,,,2,,,61,62
29700,note_on,0,0,3,,,,,,,,,2,,,58,62
29700,note_on,0,0,3,,,,,,,,,2,,,51,62
29700,note_on,60,0,3,,,,,,,,,2,,,51,0
29700,note_on,60,0,2,,,,,,,,,1,,,73,0
29700,note_on,0,0,2,,,,,,,,,1,,,73,36
29700,note_on,26,0,1,,,,,,,,,0,,,77,75
29700,note_on,0,0,2,,,,,,,,,1,,,67,0
29700,note_on,0,0,2,,,,,,,,,1,,,67,36
29730,note_on,0,0,1,,,,,,,,,0,,,75,75
29730,note_on,30,0,1,,,,,,,,,0,,,77,0
29734,note_on,4,0,1,,,,,,,,,0,,,75,0
29760,note_on,0,0,3,,,,,,,,,2,,,58,0
29760,note_on,0,0,3,,,,,,,,,2,,,51,49
29760,note_on,0,0,3,,,,,,,,,2,,,51,0
29760,note_on,0,0,3,,,,,,,,,2,,,39,49
29760,note_on,0,0,2,,,,,,,,,1,,,67,36
29760,note_on,26,0,1,,,,,,,,,0,,,75,62
29760,note_on,60,0,2,,,,,,,,,1,,,73,0
29760,note_on,60,0,3,,,,,,,,,2,,,61,0
29760,note_on,0,0,2,,,,,,,,,1,,,67,0
29760,note_on,0,0,2,,,,,,,,,1,,,73,36
29790,note_on,30,0,1,,,,,,,,,0,,,75,0
29790,note_on,0,0,1,,,,,,,,,0,,,77,62
29794,note_on,4,0,1,,,,,,,,,0,,,77,0
29820,note_on,0,0,2,,,,,,,,,1,,,67,0
29820,note_on,0,0,2,,,,,,,,,1,,,67,36
29820,note_on,60,0,2,,,,,,,,,1,,,73,0
29820,note_on,0,0,3,,,,,,,,,2,,,39,0
29820,note_on,0,0,3,,,,,,,,,2,,,58,36
29820,note_on,0,0,3,,,,,,,,,2,,,51,36
29820,note_on,26,0,1,,,,,,,,,0,,,77,49
29820,control_change,0,0,3,,,,,,,,,2,64,0,,
29820,note_on,60,0,3,,,,,,,,,2,,,51,0
29820,note_on,0,0,3,,,,,,,,,2,,,61,36
29820,note_on,0,0,2,,,,,,,,,1,,,73,36
29850,control_change,0,0,1,,,,,,,,,0,64,0,,
29850,note_on,0,0,1,,,,,,,,,0,,,75,49
29850,note_on,30,0,1,,,,,,,,,0,,,77,0
29854,note_on,4,0,1,,,,,,,,,0,,,75,0
29880,note_on,60,0,2,,,,,,,,,1,,,73,0
29880,control_change,0,0,2,,,,,,,,,1,64,127,,
29880,note_on,0,0,2,,,,,,,,,1,,,60,49
29880,note_on,0,0,3,,,,,,,,,2,,,44,49
29880,note_on,0,0,1,,,,,,,,,0,,,68,49
29880,note_on,0,0,3,,,,,,,,,2,,,58,0
29880,note_on,0,0,3,,,,,,,,,2,,,51,0
29880,note_on,0,0,3,,,,,,,,,2,,,32,49
29880,note_on,60,0,3,,,,,,,,,2,,,61,0
29880,control_change,0,0,3,,,,,,,,,2,64,127,,
29880,note_on,0,0,2,,,,,,,,,1,,,63,49
29880,note_on,0,0,2,,,,,,,,,1,,,67,0
29880,control_change,26,0,1,,,,,,,,,0,64,127,,
29910,note_on,30,0,1,,,,,,,,,0,,,68,0
29910,note_on,0,0,1,,,,,,,,,0,,,72,49
29914,note_on,4,0,1,,,,,,,,,0,,,72,0
29940,note_on,60,0,3,,,,,,,,,2,,,44,0
29940,note_on,26,0,1,,,,,,,,,0,,,72,62
29940,note_on,0,0,2,,,,,,,,,1,,,60,0
29940,note_on,0,0,2,,,,,,,,,1,,,60,62
29940,note_on,0,0,3,,,,,,,,,2,,,32,0
29940,note_on,0,0,3,,,,,,,,,2,,,44,36
29940,note_on,0,0,3,,,,,,,,,2,,,51,36
29940,note_on,0,0,3,,,,,,,,,2,,,56,36
29940,note_on,60,0,2,,,,,,,,,1,,,63,0
29940,note_on,0,0,2,,,,,,,,,1,,,63,62
29970,note_on,30,0,1,,,,,,,,,0,,,72,0
29970,note_on,0,0,1,,,,,,,,,0,,,68,62
29974,note_on,4,0,1,,,,,,,,,0,,,68,0
30000,note_on,0,0,3,,,,,,,,,2,,,44,0
30000,note_on,0,0,2,,,,,,,,,1,,,60,0
30000,note_on,26,0,1,,,,,,,,,0,,,68,75
30000,note_on,0,0,2,,,,,,,,,1,,,60,75
30000,note_on,0,0,2,,,,,,,,,1,,,63,75
30000,note_on,0,0,3,,,,,,,,,2,,,44,49
30000,note_on,60,0,3,,,,,,,,,2,,,56,0
30000,note_on,0,0,3,,,,,,,,,2,,,51,49
30000,note_on,60,0,2,,,,,,,,,1,,,63,0
30000,note_on,0,0,3,,,,,,,,,2,,,51,0
30030,note_on,30,0,1,,,,,,,,,0,,,68,0
30030,note_on,0,0,1,,,,,,,,,0,,,72,75
30034,note_on,4,0,1,,,,,,,,,0,,,72,0
30060,note_on,0,0,2,,,,,,,,,1,,,60,0
30060,note_on,60,0,2,,,,,,,,,1,,,63,0
30060,note_on,0,0,2,,,,,,,,,1,,,60,75
30060,note_on,60,0,3,,,,,,,,,2,,,51,0
30060,note_on,26,0,1,,,,,,,,,0,,,72,75
30060,note_on,0,0,3,,,,,,,,,2,,,44,0
30060,note_on,0,0,3,,,,,,,,,2,,,44,49
30060,note_on,0,0,3,,,,,,,,,2,,,51,49
30060,note_on,0,0,3,,,,,,,,,2,,,56,49
30060,note_on,0,0,2,,,,,,,,,1,,,63,75
30090,note_on,0,0,1,,,,,,,,,0,,,68,75
30090,note_on,30,0,1,,,,,,,,,0,,,72,0
30094,note_on,4,0,1,,,,,,,,,0,,,68,0
30120,note_on,0,0,2,,,,,,,,,1,,,60,62
30120,note_on,0,0,2,,,,,,,,,1,,,60,0
30120,note_on,0,0,2,,,,,,,,,1,,,63,62
30120,note_on,26,0,1,,,,,,,,,0,,,68,62
30120,note_on,0,0,3,,,,,,,,,2,,,44,0
30120,note_on,60,0,3,,,,,,,,,2,,,56,0
30120,note_on,0,0,3,,,,,,,,,2,,,44,36
30120,note_on,0,0,3,,,,,,,,,2,,,51,0
30120,note_on,60,0,2,,,,,,,,,1,,,63,0
30120,note_on,0,0,3,,,,,,,,,2,,,51,36
30150,note_on,0,0,1,,,,,,,,,0,,,72,62
30150,note_on,30,0,1,,,,,,,,,0,,,68,0
30154,note_on,4,0,1,,,,,,,,,0,,,72,0
30180,note_on,0,0,3,,,,,,,,,2,,,51,36
30180,note_on,0,0,3,,,,,,,,,2,,,44,36
30180,note_on,0,0,3,,,,,,,,,2,,,56,36
30180,control_change,0,0,2,,,,,,,,,1,64,0,,
30180,note_on,60,0,3,,,,,,,,,2,,,51,0
30180,control_change,0,0,3,,,,,,,,,2,64,0,,
30180,note_on,60,0,2,,,,,,,,,1,,,63,0
30180,note_on,0,0,3,,,,,,,,,2,,,44,0
30180,note_on,0,0,2,,,,,,,,,1,,,60,49
30180,note_on,26,0,1,,,,,,,,,0,,,72,49
30180,note_on,0,0,2,,,,,,,,,1,,,63,49
30180,note_on,0,0,2,,,,,,,,,1,,,60,0
30210,note_on,30,0,1,,,,,,,,,0,,,72,0
30210,control_change,0,0,1,,,,,,,,,0,64,0,,
30210,note_on,0,0,1,,,,,,,,,0,,,68,49
30214,note_on,4,0,1,,,,,,,,,0,,,68,0
30240,note_on,60,0,3,,,,,,,,,2,,,56,0
30240,note_on,0,0,3,,,,,,,,,2,,,44,36
30240,note_on,0,0,3,,,,,,,,,2,,,32,36
30240,note_on,0,0,3,,,,,,,,,2,,,51,0
30240,note_on,0,0,1,,,,,,,,,0,,,68,49
30240,control_change,26,0,1,,,,,,,,,0,64,127,,
30240,note_on,0,0,3,,,,,,,,,2,,,44,0
30240,note_on,60,0,2,,,,,,,,,1,,,63,0
30240,control_change,0,0,2,,,,,,,,,1,64,127,,
30240,control_change,0,0,3,,,,,,,,,2,64,127,,
30240,note_on,0,0,2,,,,,,,,,1,,,59,49
30240,note_on,0,0,2,,,,,,,,,1,,,60,0
30240,note_on,0,0,2,,,,,,,,,1,,,63,49
30270,note_on,30,0,1,,,,,,,,,0,,,68,0
30270,note_on,0,0,1,,,,,,,,,0,,,71,49
30274,note_on,4,0,1,,,,,,,,,0,,,71,0
30285,set_tempo,7965,1,0,,,,,,909091,,,,,,,
30300,note_on,0,0,3,,,,,,,,,2,,,32,0
30300,note_on,0,0,2,,,,,,,,,1,,,59,0
30300,note_on,26,0,1,,,,,,,,,0,,,71,49
30300,note_on,0,0,3,,,,,,,,,2,,,44,36
30300,note_on,0,0,2,,,,,,,,,1,,,59,49
30300,note_on,0,0,3,,,,,,,,,2,,,51,36
30300,note_on,0,0,3,,,,,,,,,2,,,56,36
30300,note_on,60,0,3,,,,,,,,,2,,,44,0
30300,note_on,60,0,2,,,,,,,,,1,,,63,0
30300,note_on,0,0,2,,,,,,,,,1,,,63,49
30330,note_on,0,0,1,,,,,,,,,0,,,68,49
30330,set_tempo,45,1,0,,,,,,952381,,,,,,,
30330,note_on,30,0,1,,,,,,,,,0,,,71,0
30334,note_on,4,0,1,,,,,,,,,0,,,68,0
30360,note_on,0,0,2,,,,,,,,,1,,,59,49
30360,note_on,0,0,2,,,,,,,,,1,,,63,49
30360,note_on,26,0,1,,,,,,,,,0,,,68,49
30360,note_on,0,0,3,,,,,,,,,2,,,51,0
30360,note_on,0,0,3,,,,,,,,,2,,,51,36
30360,note_on,60,0,3,,,,,,,,,2,,,56,0
30360,note_on,60,0,2,,,,,,,,,1,,,63,0
30360,note_on,0,0,3,,,,,,,,,2,,,44,0
30360,note_on,0,0,2,,,,,,,,,1,,,59,0
30360,note_on,0,0,3,,,,,,,,,2,,,44,36
30375,set_tempo,45,1,0,,,,,,1000000,,,,,,,
30390,note_on,0,0,1,,,,,,,,,0,,,71,49
30390,note_on,30,0,1,,,,,,,,,0,,,68,0
30394,note_on,4,0,1,,,,,,,,,0,,,71,0
30420,note_on,26,0,1,,,,,,,,,0,,,71,36
30420,note_on,0,0,3,,,,,,,,,2,,,56,36
30420,note_on,0,0,3,,,,,,,,,2,,,51,36
30420,note_on,60,0,2,,,,,,,,,1,,,63,0
30420,set_tempo,45,1,0,,,,,,1071429,,,,,,,
30420,note_on,60,0,3,,,,,,,,,2,,,51,0
30420,note_on,0,0,2,,,,,,,,,1,,,59,36
30420,note_on,0,0,2,,,,,,,,,1,,,63,36
30420,note_on,0,0,3,,,,,,,,,2,,,44,36
30420,note_on,0,0,3,,,,,,,,,2,,,44,0
30420,note_on,0,0,2,,,,,,,,,1,,,59,0
30450,note_on,30,0,1,,,,,,,,,0,,,71,0
30450,note_on,0,0,1,,,,,,,,,0,,,68,36
30454,note_on,4,0,1,,,,,,,,,0,,,68,0
30465,set_tempo,45,1,0,,,,,,1132075,,,,,,,
30480,note_on,60,0,3,,,,,,,,,2,,,56,0
30480,note_on,26,0,1,,,,,,,,,0,,,68,36
30480,note_on,0,0,3,,,,,,,,,2,,,44,36
30480,note_on,0,0,3,,,,,,,,,2,,,51,0
30480,note_on,60,0,2,,,,,,,,,1,,,63,0
30480,note_on,0,0,3,,,,,,,,,2,,,51,36
30480,note_on,0,0,2,,,,,,,,,1,,,59,0
30480,note_on,0,0,2,,,,,,,,,1,,,59,36
30480,note_on,0,0,2,,,,,,,,,1,,,63,36
30480,note_on,0,0,3,,,,,,,,,2,,,44,0
30510,set_tempo,45,1,0,,,,,,1200000,,,,,,,
30510,note_on,0,0,1,,,,,,,,,0,,,71,36
30510,note_on,30,0,1,,,,,,,,,0,,,68,0
30514,note_on,4,0,1,,,,,,,,,0,,,71,0
30540,note_on,0,0,3,,,,,,,,,2,,,44,0
30540,note_on,0,0,3,,,,,,,,,2,,,44,36
30540,note_on,0,0,2,,,,,,,,,1,,,63,36
30540,note_on,60,0,3,,,,,,,,,2,,,51,0
30540,control_change,0,0,2,,,,,,,,,1,64,0,,
30540,note_on,0,0,3,,,,,,,,,2,,,51,36
30540,control_change,0,0,3,,,,,,,,,2,64,0,,
30540,note_on,60,0,2,,,,,,,,,1,,,63,0
30540,note_on,0,0,2,,,,,,,,,1,,,59,0
30540,note_on,0,0,2,,,,,,,,,1,,,59,36
30540,note_on,26,0,1,,,,,,,,,0,,,71,36
30540,note_on,0,0,3,,,,,,,,,2,,,56,36
30555,set_tempo,45,1,0,,,,,,1276596,,,,,,,
30570,note_on,0,0,1,,,,,,,,,0,,,68,36
30570,note_on,30,0,1,,,,,,,,,0,,,71,0
30570,control_change,0,0,1,,,,,,,,,0,64,0,,
30574,note_on,4,0,1,,,,,,,,,0,,,68,0
30600,note_on,60,0,3,,,,,,,,,2,,,56,0
30600,note_on,0,0,1,,,,,,,,,0,,,75,75
30600,set_tempo,45,1,0,,,,,,800000,,,,,,,
30600,note_on,26,0,1,,,,,,,,,0,,,63,75
30600,note_on,60,0,2,,,,,,,,,1,,,63,0
30600,note_on,0,0,3,,,,,,,,,2,,,32,62
30600,note_on,0,0,2,,,,,,,,,1,,,59,0
30600,note_on,0,0,3,,,,,,,,,2,,,44,0
30600,note_on,0,0,3,,,,,,,,,2,,,51,0
30630,note_on,30,0,2,,,,,,,,,1,,,68,62
30630,note_on,0,0,3,,,,,,,,,2,,,39,62
30630,note_on,30,0,3,,,,,,,,,2,,,32,0
30630,note_on,0,0,2,,,,,,,,,1,,,71,62
30660,note_on,30,0,2,,,,,,,,,1,,,71,0
30660,note_on,30,0,3,,,,,,,,,2,,,39,0
30660,note_on,0,0,2,,,,,,,,,1,,,68,62
30660,note_on,0,0,2,,,,,,,,,1,,,68,0
30660,note_on,0,0,2,,,,,,,,,1,,,71,62
30660,note_on,0,0,3,,,,,,,,,2,,,47,62
30690,note_on,30,0,2,,,,,,,,,1,,,71,0
30690,note_on,0,0,2,,,,,,,,,1,,,68,0
30690,note_on,30,0,3,,,,,,,,,2,,,47,0
30690,note_on,0,0,1,,,,,,,,,0,,,76,75
30690,note_on,90,0,1,,,,,,,,,0,,,75,0
30690,note_on,0,0,1,,,,,,,,,0,,,63,0
30690,note_on,0,0,1,,,,,,,,,0,,,64,75
30690,note_on,0,0,3,,,,,,,,,2,,,44,62
30720,note_on,0,0,1,,,,,,,,,0,,,75,75
30720,note_on,30,0,1,,,,,,,,,0,,,76,0
30720,note_on,0,0,1,,,,,,,,,0,,,63,75
30720,note_on,30,0,3,,,,,,,,,2,,,44,0
30720,note_on,0,0,3,,,,,,,,,2,,,47,62
30720,note_on,0,0,1,,,,,,,,,0,,,64,0
30750,note_on,0,0,3,,,,,,,,,2,,,59,62
30750,note_on,60,0,2,,,,,,,,,1,,,68,62
30750,note_on,0,0,2,,,,,,,,,1,,,71,62
30750,note_on,30,0,3,,,,,,,,,2,,,47,0
30780,note_on,60,0,1,,,,,,,,,0,,,75,0
30780,note_on,30,0,3,,,,,,,,,2,,,59,0
30780,note_on,0,0,2,,,,,,,,,1,,,68,0
30780,note_on,30,0,2,,,,,,,,,1,,,71,0
30780,note_on,0,0,1,,,,,,,,,0,,,63,0
30780,note_on,0,0,3,,,,,,,,,2,,,59,62
30780,note_on,0,0,1,,,,,,,,,0,,,63,75
30780,note_on,0,0,1,,,,,,,,,0,,,75,75
30810,note_on,0,0,3,,,,,,,,,2,,,51,62
30810,note_on,30,0,3,,,,,,,,,2,,,59,0
30810,note_on,0,0,2,,,,,,,,,1,,,71,62
30810,note_on,30,0,2,,,,,,,,,1,,,68,62
30840,note_on,0,0,1,,,,,,,,,0,,,68,75
30840,note_on,0,0,3,,,,,,,,,2,,,44,62
30840,note_on,0,0,2,,,,,,,,,1,,,68,0
30840,note_on,0,0,1,,,,,,,,,0,,,80,75
30840,note_on,30,0,2,,,,,,,,,1,,,71,0
30840,note_on,30,0,3,,,,,,,,,2,,,51,0
30840,note_on,60,0,1,,,,,,,,,0,,,75,0
30840,note_on,0,0,1,,,,,,,,,0,,,63,0
30870,note_on,30,0,3,,,,,,,,,2,,,44,0
30870,note_on,0,0,3,,,,,,,,,2,,,51,62
30870,note_on,30,0,2,,,,,,,,,1,,,71,62
30870,note_on,0,0,2,,,,,,,,,1,,,75,62
30900,note_on,0,0,1,,,,,,,,,0,,,68,0
30900,note_on,30,0,2,,,,,,,,,1,,,75,0
30900,note_on,0,0,3,,,,,,,,,2,,,39,62
30900,note_on,60,0,1,,,,,,,,,0,,,80,0
30900,note_on,0,0,1,,,,,,,,,0,,,75,75
30900,note_on,0,0,2,,,,,,,,,1,,,71,0
30900,note_on,30,0,3,,,,,,,,,2,,,51,0
30900,note_on,0,0,1,,,,,,,,,0,,,63,75
30930,note_on,30,0,2,,,,,,,,,1,,,68,62
30930,note_on,0,0,3,,,,,,,,,2,,,32,62
30930,note_on,0,0,2,,,,,,,,,1,,,71,62
30930,note_on,30,0,3,,,,,,,,,2,,,39,0
30960,note_on,0,0,2,,,,,,,,,1,,,68,0
30960,note_on,0,0,2,,,,,,,,,1,,,71,62
30960,note_on,30,0,3,,,,,,,,,2,,,32,0
30960,note_on,0,0,1,,,,,,,,,0,,,63,0
30960,note_on,0,0,1,,,,,,,,,0,,,75,75
30960,note_on,30,0,2,,,,,,,,,1,,,71,0
30960,note_on,60,0,1,,,,,,,,,0,,,75,0
30960,note_on,0,0,3,,,,,,,,,2,,,32,62
30990,note_on,0,0,1,,,,,,,,,0,,,83,75
30990,note_on,30,0,1,,,,,,,,,0,,,75,0
30990,note_on,30,0,3,,,,,,,,,2,,,32,0
30990,note_on,0,0,3,,,,,,,,,2,,,35,62
31020,note_on,0,0,3,,,,,,,,,2,,,47,75
31020,note_on,60,0,2,,,,,,,,,1,,,71,0
31020,note_on,30,0,3,,,,,,,,,2,,,35,0
31020,note_on,0,0,1,,,,,,,,,0,,,83,88
31020,note_on,30,0,1,,,,,,,,,0,,,83,0
31020,note_on,0,0,2,,,,,,,,,1,,,75,75
31050,note_on,0,0,3,,,,,,,,,2,,,44,75
31050,note_on,30,0,3,,,,,,,,,2,,,47,0
31050,note_on,30,0,2,,,,,,,,,1,,,75,0
31050,note_on,30,0,1,,,,,,,,,0,,,83,0
31050,note_on,0,0,2,,,,,,,,,1,,,73,75
31050,note_on,0,0,1,,,,,,,,,0,,,82,88
31054,note_on,4,0,2,,,,,,,,,1,,,73,0
31080,note_on,26,0,2,,,,,,,,,1,,,73,75
31080,note_on,30,0,1,,,,,,,,,0,,,82,0
31080,note_on,30,0,3,,,,,,,,,2,,,44,0
31080,note_on,0,0,1,,,,,,,,,0,,,82,88
31080,note_on,0,0,3,,,,,,,,,2,,,47,75
31110,note_on,30,0,3,,,,,,,,,2,,,47,0
31110,note_on,0,0,2,,,,,,,,,1,,,71,75
31110,note_on,30,0,2,,,,,,,,,1,,,73,0
31110,note_on,0,0,3,,,,,,,,,2,,,59,75
31110,note_on,0,0,1,,,,,,,,,0,,,80,88
31110,note_on,30,0,1,,,,,,,,,0,,,82,0
31114,note_on,4,0,2,,,,,,,,,1,,,71,0
31140,note_on,0,0,3,,,,,,,,,2,,,59,75
31140,note_on,26,0,2,,,,,,,,,1,,,71,75
31140,note_on,0,0,1,,,,,,,,,0,,,80,88
31140,note_on,30,0,1,,,,,,,,,0,,,80,0
31140,note_on,30,0,3,,,,,,,,,2,,,59,0
31170,note_on,0,0,3,,,,,,,,,2,,,51,75
31170,note_on,30,0,2,,,,,,,,,1,,,71,0
31170,note_on,30,0,3,,,,,,,,,2,,,59,0
31170,note_on,0,0,2,,,,,,,,,1,,,70,75
31174,note_on,4,0,2,,,,,,,,,1,,,70,0
31200,note_on,30,0,3,,,,,,,,,2,,,51,0
31200,note_on,0,0,3,,,,,,,,,2,,,44,62
31200,note_on,26,0,2,,,,,,,,,1,,,70,62
31230,note_on,30,0,2,,,,,,,,,1,,,70,0
31230,note_on,0,0,3,,,,,,,,,2,,,47,62
31230,note_on,0,0,2,,,,,,,,,1,,,68,62
31230,note_on,30,0,3,,,,,,,,,2,,,44,0
31234,note_on,4,0,2,,,,,,,,,1,,,68,0
31260,note_on,0,0,1,,,,,,,,,0,,,71,75
31260,note_on,0,0,1,,,,,,,,,0,,,75,75
31260,note_on,120,0,1,,,,,,,,,0,,,80,0
31260,note_on,0,0,3,,,,,,,,,2,,,39,62
31260,note_on,30,0,3,,,,,,,,,2,,,47,0
31260,note_on,26,0,2,,,,,,,,,1,,,68,62
31290,note_on,0,0,3,,,,,,,,,2,,,32,62
31290,note_on,0,0,2,,,,,,,,,1,,,63,62
31290,note_on,30,0,2,,,,,,,,,1,,,68,0
31290,note_on,30,0,3,,,,,,,,,2,,,39,0
31294,note_on,4,0,2,,,,,,,,,1,,,63,0
31320,note_on,60,0,1,,,,,,,,,0,,,75,0
31320,note_on,30,0,3,,,,,,,,,2,,,32,0
31320,note_on,0,0,3,,,,,,,,,2,,,39,62
31320,note_on,0,0,1,,,,,,,,,0,,,75,75
31320,set_tempo,720,1,0,,,,,,759494,,,,,,,
31320,note_on,0,0,1,,,,,,,,,0,,,63,75
31320,note_on,0,0,1,,,,,,,,,0,,,71,0
31350,note_on,56,0,2,,,,,,,,,1,,,70,62
31350,note_on,30,0,3,,,,,,,,,2,,,39,0
31350,note_on,0,0,3,,,,,,,,,2,,,46,62
31350,note_on,0,0,2,,,,,,,,,1,,,73,62
31380,note_on,0,0,2,,,,,,,,,1,,,73,62
31380,note_on,0,0,2,,,,,,,,,1,,,70,62
31380,note_on,0,0,2,,,,,,,,,1,,,70,0
31380,note_on,30,0,3,,,,,,,,,2,,,46,0
31380,note_on,30,0,2,,,,,,,,,1,,,73,0
31380,note_on,0,0,3,,,,,,,,,2,,,55,62
31410,note_on,30,0,3,,,,,,,,,2,,,55,0
31410,note_on,0,0,1,,,,,,,,,0,,,76,75
31410,note_on,0,0,1,,,,,,,,,0,,,64,75
31410,note_on,0,0,1,,,,,,,,,0,,,63,0
31410,note_on,0,0,2,,,,,,,,,1,,,70,0
31410,note_on,30,0,2,,,,,,,,,1,,,73,0
31410,note_on,90,0,1,,,,,,,,,0,,,75,0
31410,note_on,0,0,3,,,,,,,,,2,,,51,62
31440,note_on,30,0,1,,,,,,,,,0,,,76,0
31440,note_on,0,0,3,,,,,,,,,2,,,58,62
31440,note_on,30,0,3,,,,,,,,,2,,,51,0
31440,note_on,0,0,1,,,,,,,,,0,,,63,75
31440,note_on,0,0,1,,,,,,,,,0,,,64,0
31440,note_on,0,0,1,,,,,,,,,0,,,75,75
31470,note_on,60,0,2,,,,,,,,,1,,,70,62
31470,note_on,0,0,3,,,,,,,,,2,,,67,62
31470,note_on,30,0,3,,,,,,,,,2,,,58,0
31470,note_on,0,0,2,,,,,,,,,1,,,73,62
31500,note_on,0,0,3,,,,,,,,,2,,,67,62
31500,note_on,0,0,2,,,,,,,,,1,,,70,0
31500,note_on,0,0,1,,,,,,,,,0,,,75,75
31500,note_on,0,0,1,,,,,,,,,0,,,63,0
31500,note_on,0,0,1,,,,,,,,,0,,,63,75
31500,note_on,30,0,3,,,,,,,,,2,,,67,0
31500,note_on,60,0,1,,,,,,,,,0,,,75,0
31500,note_on,30,0,2,,,,,,,,,1,,,73,0
31530,note_on,0,0,2,,,,,,,,,1,,,73,62
31530,note_on,0,0,3,,,,,,,,,2,,,58,62
31530,note_on,30,0,3,,,,,,,,,2,,,67,0
31530,note_on,30,0,2,,,,,,,,,1,,,70,62
31560,note_on,30,0,3,,,,,,,,,2,,,58,0
31560,note_on,0,0,1,,,,,,,,,0,,,70,75
31560,note_on,0,0,1,,,,,,,,,0,,,63,0
31560,note_on,0,0,2,,,,,,,,,1,,,70,0
31560,note_on,60,0,1,,,,,,,,,0,,,75,0
31560,note_on,0,0,1,,,,,,,,,0,,,82,75
31560,note_on,0,0,3,,,,,,,,,2,,,51,62
31560,note_on,30,0,2,,,,,,,,,1,,,73,0
31590,note_on,30,0,2,,,,,,,,,1,,,73,62
31590,note_on,0,0,2,,,,,,,,,1,,,75,62
31590,note_on,0,0,3,,,,,,,,,2,,,55,62
31590,note_on,30,0,3,,,,,,,,,2,,,51,0
31620,note_on,0,0,1,,,,,,,,,0,,,63,75
31620,note_on,30,0,2,,,,,,,,,1,,,75,0
31620,note_on,60,0,1,,,,,,,,,0,,,82,0
31620,note_on,0,0,2,,,,,,,,,1,,,73,0
31620,note_on,0,0,3,,,,,,,,,2,,,46,62
31620,note_on,30,0,3,,,,,,,,,2,,,55,0
31620,note_on,0,0,1,,,,,,,,,0,,,75,75
31620,note_on,0,0,1,,,,,,,,,0,,,70,0
31650,note_on,30,0,2,,,,,,,,,1,,,70,62
31650,note_on,0,0,3,,,,,,,,,2,,,39,62
31650,note_on,30,0,3,,,,,,,,,2,,,46,0
31650,note_on,0,0,2,,,,,,,,,1,,,73,62
31680,note_on,0,0,2,,,,,,,,,1,,,73,62
31680,note_on,0,0,2,,,,,,,,,1,,,70,0
31680,note_on,0,0,1,,,,,,,,,0,,,63,0
31680,note_on,0,0,1,,,,,,,,,0,,,75,75
31680,note_on,30,0,2,,,,,,,,,1,,,73,0
31680,note_on,30,0,3,,,,,,,,,2,,,39,0
31680,note_on,0,0,3,,,,,,,,,2,,,39,62
31680,note_on,60,0,1,,,,,,,,,0,,,75,0
31710,note_on,0,0,3,,,,,,,,,2,,,46,62
31710,note_on,30,0,3,,,,,,,,,2,,,39,0
31710,note_on,0,0,1,,,,,,,,,0,,,85,75
31710,note_on,30,0,1,,,,,,,,,0,,,75,0
31740,note_on,0,0,2,,,,,,,,,1,,,76,75
31740,note_on,0,0,3,,,,,,,,,2,,,55,75
31740,note_on,30,0,1,,,,,,,,,0,,,85,0
31740,note_on,30,0,3,,,,,,,,,2,,,46,0
31740,note_on,60,0,2,,,,,,,,,1,,,73,0
31740,note_on,0,0,1,,,,,,,,,0,,,85,88
31770,note_on,30,0,2,,,,,,,,,1,,,76,0
31770,note_on,0,0,1,,,,,,,,,0,,,83,88
31770,note_on,0,0,2,,,,,,,,,1,,,75,75
31770,note_on,0,0,3,,,,,,,,,2,,,51,75
31770,note_on,30,0,1,,,,,,,,,0,,,85,0
31770,note_on,30,0,3,,,,,,,,,2,,,55,0
31774,note_on,4,0,2,,,,,,,,,1,,,75,0
31800,note_on,0,0,1,,,,,,,,,0,,,83,88
31800,note_on,0,0,3,,,,,,,,,2,,,58,75
31800,note_on,30,0,1,,,,,,,,,0,,,83,0
31800,note_on,26,0,2,,,,,,,,,1,,,75,75
31800,note_on,30,0,3,,,,,,,,,2,,,51,0
31830,note_on,30,0,1,,,,,,,,,0,,,83,0
31830,note_on,30,0,2,,,,,,,,,1,,,75,0
31830,note_on,0,0,3,,,,,,,,,2,,,67,75
31830,note_on,0,0,1,,,,,,,,,0,,,82,88
31830,note_on,30,0,3,,,,,,,,,2,,,58,0
31830,note_on,0,0,2,,,,,,,,,1,,,73,75
31834,note_on,4,0,2,,,,,,,,,1,,,73,0
31860,note_on,30,0,1,,,,,,,,,0,,,82,0
31860,note_on,0,0,1,,,,,,,,,0,,,82,88
31860,note_on,30,0,3,,,,,,,,,2,,,67,0
31860,note_on,26,0,2,,,,,,,,,1,,,73,75
31860,note_on,0,0,3,,,,,,,,,2,,,67,75
31890,note_on,0,0,3,,,,,,,,,2,,,58,75
31890,note_on,30,0,2,,,,,,,,,1,,,73,0
31890,note_on,30,0,3,,,,,,,,,2,,,67,0
31890,note_on,0,0,2,,,,,,,,,1,,,71,75
31894,note_on,4,0,2,,,,,,,,,1,,,71,0
31920,note_on,26,0,2,,,,,,,,,1,,,71,62
31920,note_on,30,0,3,,,,,,,,,2,,,58,0
31920,note_on,0,0,3,,,,,,,,,2,,,51,62
31950,note_on,30,0,3,,,,,,,,,2,,,51,0
31950,note_on,0,0,3,,,,,,,,,2,,,55,62
31950,note_on,0,0,2,,,,,,,,,1,,,70,62
31950,note_on,30,0,2,,,,,,,,,1,,,71,0
31954,note_on,4,0,2,,,,,,,,,1,,,70,0
31980,note_on,26,0,2,,,,,,,,,1,,,70,62
31980,note_on,0,0,3,,,,,,,,,2,,,46,62
31980,note_on,30,0,3,,,,,,,,,2,,,55,0
31980,note_on,120,0,1,,,,,,,,,0,,,82,0
32010,note_on,30,0,2,,,,,,,,,1,,,70,0
32010,note_on,0,0,2,,,,,,,,,1,,,63,62
32010,note_on,0,0,3,,,,,,,,,2,,,39,62
32010,note_on,30,0,3,,,,,,,,,2,,,46,0
32014,note_on,4,0,2,,,,,,,,,1,,,63,0
32040,note_on,60,0,1,,,,,,,,,0,,,78,75
32040,note_on,26,0,2,,,,,,,,,1,,,75,62
32040,note_on,30,0,3,,,,,,,,,2,,,39,0
32040,note_on,0,0,3,,,,,,,,,2,,,35,62
32070,note_on,0,0,1,,,,,,,,,0,,,87,75
32070,note_on,0,0,3,,,,,,,,,2,,,42,62
32070,note_on,30,0,1,,,,,,,,,0,,,78,0
32070,note_on,30,0,3,,,,,,,,,2,,,35,0
32100,note_on,60,0,2,,,,,,,,,1,,,75,0
32100,note_on,0,0,3,,,,,,,,,2,,,51,75
32100,note_on,30,0,3,,,,,,,,,2,,,42,0
32100,note_on,30,0,1,,,,,,,,,0,,,87,0
32100,note_on,0,0,2,,,,,,,,,1,,,78,75
32100,note_on,0,0,1,,,,,,,,,0,,,87,88
32130,note_on,30,0,1,,,,,,,,,0,,,87,0
32130,note_on,30,0,2,,,,,,,,,1,,,78,0
32130,note_on,0,0,2,,,,,,,,,1,,,76,75
32130,note_on,0,0,1,,,,,,,,,0,,,85,88
32130,note_on,0,0,3,,,,,,,,,2,,,47,75
32130,note_on,30,0,3,,,,,,,,,2,,,51,0
32160,note_on,30,0,3,,,,,,,,,2,,,47,0
32160,note_on,0,0,2,,,,,,,,,1,,,76,75
32160,note_on,0,0,1,,,,,,,,,0,,,85,88
32160,note_on,30,0,1,,,,,,,,,0,,,85,0
32160,note_on,0,0,3,,,,,,,,,2,,,54,75
32160,note_on,30,0,2,,,,,,,,,1,,,76,0
32190,note_on,0,0,3,,,,,,,,,2,,,63,75
32190,note_on,0,0,1,,,,,,,,,0,,,83,88
32190,note_on,30,0,2,,,,,,,,,1,,,76,0
32190,note_on,30,0,1,,,,,,,,,0,,,85,0
32190,note_on,30,0,3,,,,,,,,,2,,,54,0
32190,note_on,0,0,2,,,,,,,,,1,,,75,75
32220,note_on,0,0,3,,,,,,,,,2,,,63,75
32220,note_on,0,0,2,,,,,,,,,1,,,75,75
32220,note_on,30,0,1,,,,,,,,,0,,,83,0
32220,note_on,30,0,3,,,,,,,,,2,,,63,0
32220,note_on,30,0,2,,,,,,,,,1,,,75,0
32220,note_on,0,0,1,,,,,,,,,0,,,83,88
32250,note_on,30,0,2,,,,,,,,,1,,,75,0
32250,note_on,0,0,3,,,,,,,,,2,,,54,75
32250,note_on,0,0,2,,,,,,,,,1,,,73,75
32250,note_on,30,0,3,,,,,,,,,2,,,63,0
32280,note_on,30,0,3,,,,,,,,,2,,,54,0
32280,note_on,0,0,3,,,,,,,,,2,,,47,62
32280,note_on,0,0,2,,,,,,,,,1,,,73,62
32280,note_on,30,0,2,,,,,,,,,1,,,73,0
32310,note_on,0,0,2,,,,,,,,,1,,,71,62
32310,note_on,30,0,2,,,,,,,,,1,,,73,0
32310,note_on,30,0,3,,,,,,,,,2,,,47,0
32310,note_on,0,0,3,,,,,,,,,2,,,51,62
32340,note_on,0,0,1,,,,,,,,,0,,,75,75
32340,note_on,0,0,3,,,,,,,,,2,,,42,62
32340,note_on,30,0,2,,,,,,,,,1,,,71,0
32340,note_on,120,0,1,,,,,,,,,0,,,83,0
32340,note_on,0,0,2,,,,,,,,,1,,,71,62
32340,note_on,30,0,3,,,,,,,,,2,,,51,0
32340,note_on,0,0,1,,,,,,,,,0,,,78,75
32346,note_on,6,0,1,,,,,,,,,0,,,78,0
32346,note_on,0,0,1,,,,,,,,,0,,,75,0
32370,note_on,30,0,3,,,,,,,,,2,,,42,0
32370,note_on,30,0,2,,,,,,,,,1,,,71,0
32370,note_on,0,0,2,,,,,,,,,1,,,66,62
32370,note_on,0,0,3,,,,,,,,,2,,,35,62
32400,note_on,30,0,2,,,,,,,,,1,,,66,0
32400,note_on,54,0,1,,,,,,,,,0,,,78,75
32400,note_on,0,0,3,,,,,,,,,2,,,42,62
32400,note_on,0,0,2,,,,,,,,,1,,,76,62
32400,note_on,30,0,3,,,,,,,,,2,,,35,0
32430,note_on,0,0,1,,,,,,,,,0,,,88,75
32430,note_on,30,0,3,,,,,,,,,2,,,42,0
32430,note_on,30,0,1,,,,,,,,,0,,,78,0
32430,note_on,0,0,3,,,,,,,,,2,,,49,62
32460,note_on,0,0,3,,,,,,,,,2,,,58,75
32460,note_on,0,0,1,,,,,,,,,0,,,88,88
32460,note_on,30,0,3,,,,,,,,,2,,,49,0
32460,note_on,60,0,2,,,,,,,,,1,,,76,0
32460,note_on,30,0,1,,,,,,,,,0,,,88,0
32460,note_on,0,0,2,,,,,,,,,1,,,80,75
32490,note_on,0,0,2,,,,,,,,,1,,,78,75
32490,note_on,30,0,1,,,,,,,,,0,,,88,0
32490,note_on,0,0,1,,,,,,,,,0,,,87,88
32490,note_on,30,0,3,,,,,,,,,2,,,58,0
32490,note_on,30,0,2,,,,,,,,,1,,,80,0
32490,note_on,0,0,3,,,,,,,,,2,,,54,75
32520,note_on,30,0,3,,,,,,,,,2,,,54,0
32520,note_on,30,0,2,,,,,,,,,1,,,78,0
32520,note_on,30,0,1,,,,,,,,,0,,,87,0
32520,note_on,0,0,1,,,,,,,,,0,,,87,88
32520,note_on,0,0,2,,,,,,,,,1,,,78,75
32520,note_on,0,0,3,,,,,,,,,2,,,61,75
32550,note_on,30,0,2,,,,,,,,,1,,,78,0
32550,note_on,0,0,3,,,,,,,,,2,,,70,75
32550,note_on,30,0,3,,,,,,,,,2,,,61,0
32550,note_on,0,0,1,,,,,,,,,0,,,85,88
32550,note_on,30,0,1,,,,,,,,,0,,,87,0
32550,note_on,0,0,2,,,,,,,,,1,,,76,75
32580,note_on,30,0,3,,,,,,,,,2,,,70,0
32580,note_on,0,0,1,,,,,,,,,0,,,85,101
32580,note_on,30,0,2,,,,,,,,,1,,,76,0
32580,note_on,0,0,3,,,,,,,,,2,,,70,88
32580,note_on,0,0,2,,,,,,,,,1,,,76,88
32580,note_on,30,0,1,,,,,,,,,0,,,85,0
32610,note_on,0,0,2,,,,,,,,,1,,,75,88
32610,note_on,30,0,3,,,,,,,,,2,,,70,0
32610,note_on,30,0,2,,,,,,,,,1,,,76,0
32610,note_on,0,0,3,,,,,,,,,2,,,61,88
32640,note_on,0,0,3,,,,,,,,,2,,,54,88
32640,note_on,0,0,2,,,,,,,,,1,,,75,88
32640,note_on,30,0,2,,,,,,,,,1,,,75,0
32640,note_on,30,0,3,,,,,,,,,2,,,61,0
32670,note_on,30,0,3,,,,,,,,,2,,,54,0
32670,note_on,0,0,3,,,,,,,,,2,,,58,88
32670,note_on,0,0,2,,,,,,,,,1,,,73,88
32670,note_on,30,0,2,,,,,,,,,1,,,75,0
32700,note_on,30,0,2,,,,,,,,,1,,,73,0
32700,note_on,120,0,1,,,,,,,,,0,,,85,0
32700,note_on,0,0,1,,,,,,,,,0,,,76,101
32700,note_on,0,0,2,,,,,,,,,1,,,73,88
32700,note_on,0,0,1,,,,,,,,,0,,,78,101
32700,note_on,0,0,3,,,,,,,,,2,,,49,88
32700,note_on,30,0,3,,,,,,,,,2,,,58,0
32706,note_on,0,0,1,,,,,,,,,0,,,76,0
32706,note_on,6,0,1,,,,,,,,,0,,,78,0
32730,note_on,0,0,3,,,,,,,,,2,,,42,88
32730,note_on,0,0,2,,,,,,,,,1,,,66,88
32730,note_on,30,0,3,,,,,,,,,2,,,49,0
32730,note_on,30,0,2,,,,,,,,,1,,,73,0
32760,note_on,30,0,2,,,,,,,,,1,,,66,0
32760,note_on,0,0,1,,,,,,,,,0,,,78,114
32760,note_on,0,0,3,,,,,,,,,2,,,47,101
32760,note_on,30,0,3,,,,,,,,,2,,,42,0
32760,note_on,0,0,3,,,,,,,,,2,,,35,101
32760,note_on,54,0,1,,,,,,,,,0,,,66,114
32760,note_on,0,0,1,,,,,,,,,0,,,75,114
32764,note_on,4,0,1,,,,,,,,,0,,,78,0
32764,note_on,0,0,3,,,,,,,,,2,,,35,0
32764,note_on,4,0,3,,,,,,,,,2,,,47,0
32764,note_on,0,0,1,,,,,,,,,0,,,75,0
32764,note_on,0,0,1,,,,,,,,,0,,,66,0
32805,note_on,0,0,1,,,,,,,,,0,,,87,114
32805,note_on,0,0,1,,,,,,,,,0,,,78,114
32805,note_on,0,0,3,,,,,,,,,2,,,59,101
32805,note_on,0,0,3,,,,,,,,,2,,,63,101
32805,note_on,41,0,1,,,,,,,,,0,,,75,114
32805,note_on,41,0,3,,,,,,,,,2,,,51,101
32820,note_on,4500,0,4,,,,,,,,,3,,,51,101
32820,note_on,15,0,3,,,,,,,,,2,,,63,0
32820,note_on,0,0,2,,,,,,,,,1,,,78,114
32820,note_on,0,0,3,,,,,,,,,2,,,51,0
32820,note_on,0,0,4,,,,,,,,,3,,,59,101
32820,note_on,0,0,3,,,,,,,,,2,,,63,101
32820,note_on,0,0,1,,,,,,,,,0,,,87,114
32820,note_on,0,0,1,,,,,,,,,0,,,78,0
32820,note_on,15,0,1,,,,,,,,,0,,,87,0
32820,note_on,0,0,1,,,,,,,,,0,,,75,0
32820,note_on,60,0,2,,,,,,,,,1,,,75,114
32820,note_on,0,0,3,,,,,,,,,2,,,59,0
32850,note_on,0,0,4,,,,,,,,,3,,,54,101
32850,note_on,0,0,2,,,,,,,,,1,,,83,114
32850,note_on,0,0,2,,,,,,,,,1,,,75,0
32850,note_on,30,0,2,,,,,,,,,1,,,78,0
32850,note_on,0,0,4,,,,,,,,,3,,,51,0
32850,note_on,30,0,4,,,,,,,,,3,,,59,0
32880,note_on,0,0,2,,,,,,,,,1,,,75,114
32880,note_on,30,0,2,,,,,,,,,1,,,83,0
32880,note_on,60,0,3,,,,,,,,,2,,,63,0
32880,note_on,0,0,4,,,,,,,,,3,,,59,101
32880,note_on,0,0,3,,,,,,,,,2,,,63,101
32880,note_on,30,0,4,,,,,,,,,3,,,54,0
32880,note_on,0,0,1,,,,,,,,,0,,,78,114
32880,note_on,60,0,1,,,,,,,,,0,,,87,0
32910,note_on,30,0,2,,,,,,,,,1,,,75,0
32910,note_on,0,0,2,,,,,,,,,1,,,87,114
32910,note_on,0,0,4,,,,,,,,,3,,,51,101
32910,note_on,30,0,4,,,,,,,,,3,,,59,0
32940,note_on,0,0,3,,,,,,,,,2,,,51,101
32940,note_on,30,0,4,,,,,,,,,3,,,51,0
32940,note_on,30,0,2,,,,,,,,,1,,,87,0
32940,note_on,0,0,3,,,,,,,,,2,,,44,101
32940,note_on,0,0,1,,,,,,,,,0,,,63,114
32940,note_on,0,0,1,,,,,,,,,0,,,59,114
32940,note_on,0,0,3,,,,,,,,,2,,,56,101
32940,note_on,60,0,3,,,,,,,,,2,,,63,0
32940,note_on,60,0,1,,,,,,,,,0,,,78,0
32944,note_on,0,0,3,,,,,,,,,2,,,51,0
32944,note_on,0,0,1,,,,,,,,,0,,,59,0
32944,note_on,4,0,1,,,,,,,,,0,,,63,0
32944,note_on,0,0,3,,,,,,,,,2,,,44,0
32944,note_on,4,0,3,,,,,,,,,2,,,56,0
32985,note_on,0,0,1,,,,,,,,,0,,,80,114
32985,note_on,41,0,3,,,,,,,,,2,,,51,101
32985,note_on,0,0,3,,,,,,,,,2,,,63,101
32985,note_on,41,0,1,,,,,,,,,0,,,75,114
32985,note_on,0,0,3,,,,,,,,,2,,,59,101
32985,note_on,0,0,1,,,,,,,,,0,,,87,114
33000,note_on,0,0,1,,,,,,,,,0,,,75,0
33000,note_on,15,0,3,,,,,,,,,2,,,63,0
33000,note_on,0,0,1,,,,,,,,,0,,,87,114
33000,note_on,0,0,3,,,,,,,,,2,,,63,101
33000,note_on,0,0,2,,,,,,,,,1,,,80,114
33000,note_on,0,0,3,,,,,,,,,2,,,51,0
33000,note_on,0,0,4,,,,,,,,,3,,,59,101
33000,note_on,0,0,1,,,,,,,,,0,,,80,0
33000,note_on,15,0,1,,,,,,,,,0,,,87,0
33000,note_on,60,0,2,,,,,,,,,1,,,75,114
33000,note_on,60,0,4,,,,,,,,,3,,,51,101
33000,note_on,0,0,3,,,,,,,,,2,,,59,0
33030,note_on,0,0,2,,,,,,,,,1,,,75,0
33030,note_on,0,0,2,,,,,,,,,1,,,83,114
33030,note_on,0,0,4,,,,,,,,,3,,,51,0
33030,note_on,0,0,4,,,,,,,,,3,,,56,101
33030,note_on,30,0,4,,,,,,,,,3,,,59,0
33030,note_on,30,0,2,,,,,,,,,1,,,80,0
33060,note_on,0,0,1,,,,,,,,,0,,,80,114
33060,note_on,30,0,2,,,,,,,,,1,,,83,0
33060,note_on,0,0,4,,,,,,,,,3,,,59,101
33060,note_on,30,0,4,,,,,,,,,3,,,56,0
33060,note_on,60,0,3,,,,,,,,,2,,,63,0
33060,note_on,0,0,2,,,,,,,,,1,,,75,114
33060,note_on,60,0,1,,,,,,,,,0,,,87,0
33060,note_on,0,0,3,,,,,,,,,2,,,63,101
33090,note_on,0,0,2,,,,,,,,,1,,,87,114
33090,note_on,30,0,4,,,,,,,,,3,,,59,0
33090,note_on,0,0,4,,,,,,,,,3,,,51,101
33090,note_on,30,0,2,,,,,,,,,1,,,75,0
33120,note_on,0,0,3,,,,,,,,,2,,,46,101
33120,note_on,0,0,1,,,,,,,,,0,,,55,114
33120,note_on,30,0,2,,,,,,,,,1,,,87,0
33120,note_on,0,0,1,,,,,,,,,0,,,58,114
33120,note_on,0,0,3,,,,,,,,,2,,,39,101
33120,note_on,0,0,1,,,,,,,,,0,,,63,114
33120,note_on,0,0,3,,,,,,,,,2,,,51,101
33120,note_on,30,0,4,,,,,,,,,3,,,51,0
33120,note_on,60,0,1,,,,,,,,,0,,,80,0
33120,note_on,60,0,3,,,,,,,,,2,,,63,0
33124,note_on,0,0,3,,,,,,,,,2,,,46,0
33124,note_on,0,0,3,,,,,,,,,2,,,39,0
33124,note_on,0,0,1,,,,,,,,,0,,,58,0
33124,note_on,0,0,1,,,,,,,,,0,,,55,0
33124,note_on,4,0,3,,,,,,,,,2,,,51,0
33124,note_on,4,0,1,,,,,,,,,0,,,63,0
33165,note_on,0,0,3,,,,,,,,,2,,,58,101
33165,note_on,0,0,1,,,,,,,,,0,,,79,114
33165,note_on,0,0,3,,,,,,,,,2,,,63,101
33165,note_on,41,0,3,,,,,,,,,2,,,51,101
33165,note_on,41,0,1,,,,,,,,,0,,,75,114
33165,note_on,0,0,1,,,,,,,,,0,,,87,114
33180,note_on,0,0,4,,,,,,,,,3,,,58,101
33180,note_on,0,0,3,,,,,,,,,2,,,51,0
33180,note_on,15,0,1,,,,,,,,,0,,,87,0
33180,note_on,60,0,4,,,,,,,,,3,,,51,101
33180,note_on,0,0,2,,,,,,,,,1,,,79,114
33180,note_on,60,0,2,,,,,,,,,1,,,75,114
33180,note_on,0,0,1,,,,,,,,,0,,,75,0
33180,note_on,15,0,3,,,,,,,,,2,,,63,0
33180,note_on,0,0,1,,,,,,,,,0,,,87,114
33180,note_on,0,0,3,,,,,,,,,2,,,63,101
33180,note_on,0,0,3,,,,,,,,,2,,,58,0
33180,note_on,0,0,1,,,,,,,,,0,,,79,0
33210,note_on,30,0,2,,,,,,,,,1,,,79,0
33210,note_on,30,0,4,,,,,,,,,3,,,58,0
33210,note_on,0,0,2,,,,,,,,,1,,,75,0
33210,note_on,0,0,2,,,,,,,,,1,,,82,114
33210,note_on,0,0,4,,,,,,,,,3,,,51,0
33210,note_on,0,0,4,,,,,,,,,3,,,55,101
33240,note_on,0,0,2,,,,,,,,,1,,,75,114
33240,note_on,60,0,3,,,,,,,,,2,,,63,0
33240,note_on,30,0,2,,,,,,,,,1,,,82,0
33240,note_on,0,0,1,,,,,,,,,0,,,79,114
33240,note_on,30,0,4,,,,,,,,,3,,,55,0
33240,note_on,60,0,1,,,,,,,,,0,,,87,0
33240,note_on,0,0,3,,,,,,,,,2,,,63,101
33240,note_on,0,0,4,,,,,,,,,3,,,58,101
33270,note_on,30,0,2,,,,,,,,,1,,,75,0
33270,note_on,0,0,2,,,,,,,,,1,,,87,114
33270,note_on,30,0,4,,,,,,,,,3,,,58,0
33270,note_on,0,0,4,,,,,,,,,3,,,55,101
33300,note_on,30,0,2,,,,,,,,,1,,,87,0
33300,note_on,30,0,4,,,,,,,,,3,,,55,0
33300,note_on,0,0,1,,,,,,,,,0,,,68,114
33300,note_on,60,0,1,,,,,,,,,0,,,79,0
33300,note_on,0,0,1,,,,,,,,,0,,,80,114
33300,note_on,60,0,3,,,,,,,,,2,,,63,0
33300,note_on,0,0,3,,,,,,,,,2,,,44,101
33300,note_on,0,0,3,,,,,,,,,2,,,56,101
33330,note_on,0,0,1,,,,,,,,,0,,,75,114
33330,note_on,0,0,3,,,,,,,,,2,,,44,0
33330,note_on,0,0,3,,,,,,,,,2,,,51,101
33330,note_on,30,0,1,,,,,,,,,0,,,80,0
33330,note_on,30,0,3,,,,,,,,,2,,,56,0
33330,note_on,0,0,1,,,,,,,,,0,,,68,0
33360,note_on,30,0,3,,,,,,,,,2,,,51,0
33360,note_on,0,0,1,,,,,,,,,0,,,71,114
33360,note_on,0,0,3,,,,,,,,,2,,,47,101
33360,note_on,30,0,1,,,,,,,,,0,,,75,0
33390,note_on,30,0,1,,,,,,,,,0,,,71,0
33390,note_on,0,0,3,,,,,,,,,2,,,44,101
33390,note_on,0,0,1,,,,,,,,,0,,,68,114
33390,note_on,30,0,3,,,,,,,,,2,,,47,0
33420,note_on,0,0,3,,,,,,,,,2,,,39,101
33420,note_on,0,0,1,,,,,,,,,0,,,63,114
33420,note_on,30,0,1,,,,,,,,,0,,,68,0
33420,note_on,30,0,3,,,,,,,,,2,,,44,0
33450,note_on,0,0,1,,,,,,,,,0,,,56,114
33450,note_on,0,0,3,,,,,,,,,2,,,32,101
33450,note_on,30,0,1,,,,,,,,,0,,,63,0
33450,note_on,30,0,3,,,,,,,,,2,,,39,0
33480,note_on,30,0,1,,,,,,,,,0,,,56,0
33480,note_on,0,0,3,,,,,,,,,2,,,35,101
33480,note_on,0,0,1,,,,,,,,,0,,,78,75
33480,note_on,30,0,3,,,,,,,,,2,,,32,0
33480,note_on,180,0,2,,,,,,,,,1,,,75,114
33510,note_on,30,0,3,,,,,,,,,2,,,35,0
33510,note_on,30,0,1,,,,,,,,,0,,,78,0
33510,note_on,0,0,1,,,,,,,,,0,,,87,75
33510,note_on,0,0,3,,,,,,,,,2,,,42,101
33540,note_on,0,0,1,,,,,,,,,0,,,87,88
33540,note_on,30,0,3,,,,,,,,,2,,,42,0
33540,note_on,0,0,3,,,,,,,,,2,,,51,75
33540,note_on,0,0,2,,,,,,,,,1,,,79,75
33540,note_on,60,0,2,,,,,,,,,1,,,75,0
33540,note_on,30,0,1,,,,,,,,,0,,,87,0
33570,note_on,0,0,1,,,,,,,,,0,,,85,88
33570,note_on,30,0,1,,,,,,,,,0,,,87,0
33570,note_on,30,0,2,,,,,,,,,1,,,79,0
33570,note_on,30,0,3,,,,,,,,,2,,,51,0
33570,note_on,0,0,2,,,,,,,,,1,,,76,75
33570,note_on,0,0,3,,,,,,,,,2,,,47,75
33600,note_on,30,0,3,,,,,,,,,2,,,47,0
33600,note_on,0,0,2,,,,,,,,,1,,,76,75
33600,note_on,30,0,1,,,,,,,,,0,,,85,0
33600,note_on,30,0,2,,,,,,,,,1,,,76,0
33600,note_on,0,0,1,,,,,,,,,0,,,85,88
33600,note_on,0,0,3,,,,,,,,,2,,,54,75
33630,note_on,30,0,2,,,,,,,,,1,,,76,0
33630,note_on,30,0,1,,,,,,,,,0,,,85,0
33630,note_on,0,0,2,,,,,,,,,1,,,75,75
33630,note_on,30,0,3,,,,,,,,,2,,,54,0
33630,note_on,0,0,3,,,,,,,,,2,,,63,75
33630,note_on,0,0,1,,,,,,,,,0,,,83,88
33660,note_on,0,0,1,,,,,,,,,0,,,83,88
33660,note_on,0,0,2,,,,,,,,,1,,,75,75
33660,note_on,30,0,1,,,,,,,,,0,,,83,0
33660,note_on,0,0,3,,,,,,,,,2,,,63,75
33660,note_on,30,0,2,,,,,,,,,1,,,75,0
33660,note_on,30,0,3,,,,,,,,,2,,,63,0
33690,note_on,0,0,2,,,,,,,,,1,,,73,75
33690,note_on,0,0,3,,,,,,,,,2,,,54,75
33690,note_on,30,0,2,,,,,,,,,1,,,75,0
33690,note_on,30,0,3,,,,,,,,,2,,,63,0
33720,note_on,30,0,3,,,,,,,,,2,,,54,0
33720,note_on,0,0,3,,,,,,,,,2,,,47,62
33720,note_on,30,0,2,,,,,,,,,1,,,73,0
33720,note_on,0,0,2,,,,,,,,,1,,,73,62
33750,note_on,0,0,3,,,,,,,,,2,,,51,62
33750,note_on,30,0,2,,,,,,,,,1,,,73,0
33750,note_on,0,0,2,,,,,,,,,1,,,71,62
33750,note_on,30,0,3,,,,,,,,,2,,,47,0
33780,note_on,0,0,1,,,,,,,,,0,,,75,75
33780,note_on,120,0,1,,,,,,,,,0,,,83,0
33780,note_on,0,0,3,,,,,,,,,2,,,42,62
33780,note_on,0,0,1,,,,,,,,,0,,,78,75
33780,note_on,30,0,2,,,,,,,,,1,,,71,0
33780,note_on,0,0,2,,,,,,,,,1,,,71,62
33780,note_on,30,0,3,,,,,,,,,2,,,51,0
33786,note_on,6,0,1,,,,,,,,,0,,,78,0
33786,note_on,0,0,1,,,,,,,,,0,,,75,0
33810,note_on,30,0,2,,,,,,,,,1,,,71,0
33810,note_on,0,0,3,,,,,,,,,2,,,35,62
33810,note_on,30,0,3,,,,,,,,,2,,,42,0
33810,note_on,0,0,2,,,,,,,,,1,,,66,62
33840,note_on,30,0,3,,,,,,,,,2,,,35,0
33840,note_on,0,0,2,,,,,,,,,1,,,76,62
33840,note_on,30,0,2,,,,,,,,,1,,,66,0
33840,note_on,0,0,3,,,,,,,,,2,,,42,62
33840,note_on,54,0,1,,,,,,,,,0,,,78,75
33870,note_on,30,0,3,,,,,,,,,2,,,42,0
33870,note_on,0,0,1,,,,,,,,,0,,,88,75
33870,note_on,0,0,3,,,,,,,,,2,,,49,62
33870,note_on,30,0,1,,,,,,,,,0,,,78,0
33900,note_on,60,0,2,,,,,,,,,1,,,76,0
33900,note_on,30,0,1,,,,,,,,,0,,,88,0
33900,note_on,30,0,3,,,,,,,,,2,,,49,0
33900,note_on,0,0,2,,,,,,,,,1,,,80,75
33900,note_on,0,0,3,,,,,,,,,2,,,58,75
33900,note_on,0,0,1,,,,,,,,,0,,,88,88
33930,note_on,30,0,1,,,,,,,,,0,,,88,0
33930,note_on,30,0,3,,,,,,,,,2,,,58,0
33930,note_on,0,0,2,,,,,,,,,1,,,78,75
33930,note_on,0,0,3,,,,,,,,,2,,,54,75
33930,note_on,0,0,1,,,,,,,,,0,,,87,88
33930,note_on,30,0,2,,,,,,,,,1,,,80,0
33960,note_on,0,0,3,,,,,,,,,2,,,61,75
33960,note_on,30,0,3,,,,,,,,,2,,,54,0
33960,note_on,30,0,2,,,,,,,,,1,,,78,0
33960,note_on,30,0,1,,,,,,,,,0,,,87,0
33960,note_on,0,0,1,,,,,,,,,0,,,87,88
33960,note_on,0,0,2,,,,,,,,,1,,,78,75
33990,note_on,30,0,1,,,,,,,,,0,,,87,0
33990,note_on,30,0,2,,,,,,,,,1,,,78,0
33990,note_on,0,0,2,,,,,,,,,1,,,76,75
33990,note_on,30,0,3,,,,,,,,,2,,,61,0
33990,note_on,0,0,1,,,,,,,,,0,,,85,88
33990,note_on,0,0,3,,,,,,,,,2,,,70,75
34020,note_on,30,0,1,,,,,,,,,0,,,85,0
34020,note_on,30,0,3,,,,,,,,,2,,,70,0
34020,note_on,0,0,1,,,,,,,,,0,,,85,101
34020,note_on,0,0,3,,,,,,,,,2,,,70,88
34020,note_on,0,0,2,,,,,,,,,1,,,76,88
34020,note_on,30,0,2,,,,,,,,,1,,,76,0
34050,note_on,0,0,2,,,,,,,,,1,,,75,88
34050,note_on,30,0,3,,,,,,,,,2,,,70,0
34050,note_on,30,0,2,,,,,,,,,1,,,76,0
34050,note_on,0,0,3,,,,,,,,,2,,,61,88
34080,note_on,0,0,3,,,,,,,,,2,,,54,88
34080,note_on,0,0,2,,,,,,,,,1,,,75,88
34080,note_on,30,0,2,,,,,,,,,1,,,75,0
34080,note_on,30,0,3,,,,,,,,,2,,,61,0
34110,note_on,0,0,3,,,,,,,,,2,,,58,88
34110,note_on,30,0,2,,,,,,,,,1,,,75,0
34110,note_on,30,0,3,,,,,,,,,2,,,54,0
34110,note_on,0,0,2,,,,,,,,,1,,,73,88
34140,note_on,120,0,1,,,,,,,,,0,,,85,0
34140,note_on,30,0,3,,,,,,,,,2,,,58,0
34140,note_on,0,0,3,,,,,,,,,2,,,49,88
34140,note_on,0,0,1,,,,,,,,,0,,,76,101
34140,note_on,0,0,2,,,,,,,,,1,,,73,88
34140,note_on,30,0,2,,,,,,,,,1,,,73,0
34140,note_on,0,0,1,,,,,,,,,0,,,78,101
34146,note_on,0,0,1,,,,,,,,,0,,,76,0
34146,note_on,6,0,1,,,,,,,,,0,,,78,0
34170,note_on,0,0,2,,,,,,,,,1,,,66,88
34170,note_on,0,0,3,,,,,,,,,2,,,42,88
34170,note_on,30,0,2,,,,,,,,,1,,,73,0
34170,note_on,30,0,3,,,,,,,,,2,,,49,0
34200,note_on,54,0,1,,,,,,,,,0,,,66,114
34200,note_on,0,0,3,,,,,,,,,2,,,35,101
34200,note_on,30,0,2,,,,,,,,,1,,,66,0
34200,note_on,0,0,1,,,,,,,,,0,,,78,114
34200,note_on,0,0,3,,,,,,,,,2,,,47,101
34200,note_on,30,0,3,,,,,,,,,2,,,42,0
34200,note_on,0,0,1,,,,,,,,,0,,,75,114
34204,note_on,0,0,3,,,,,,,,,2,,,35,0
34204,note_on,4,0,3,,,,,,,,,2,,,47,0
34204,note_on,0,0,1,,,,,,,,,0,,,66,0
34204,note_on,0,0,1,,,,,,,,,0,,,75,0
34204,note_on,4,0,1,,,,,,,,,0,,,78,0
34245,note_on,41,0,1,,,,,,,,,0,,,75,114
34245,note_on,0,0,3,,,,,,,,,2,,,59,101
34245,note_on,0,0,1,,,,,,,,,0,,,87,114
34245,note_on,0,0,3,,,,,,,,,2,,,63,101
34245,note_on,0,0,1,,,,,,,,,0,,,78,114
34245,note_on,41,0,3,,,,,,,,,2,,,51,101
34260,note_on,0,0,1,,,,,,,,,0,,,87,127
34260,note_on,0,0,4,,,,,,,,,3,,,59,127
34260,note_on,60,0,2,,,,,,,,,1,,,75,127
34260,note_on,15,0,1,,,,,,,,,0,,,87,0
34260,note_on,0,0,1,,,,,,,,,0,,,78,0
34260,note_on,0,0,1,,,,,,,,,0,,,75,0
34260,note_on,960,0,4,,,,,,,,,3,,,51,119
34260,note_on,0,0,2,,,,,,,,,1,,,78,127
34260,note_on,0,0,3,,,,,,,,,2,,,51,0
34260,note_on,0,0,3,,,,,,,,,2,,,59,0
34260,note_on,0,0,3,,,,,,,,,2,,,63,127
34260,note_on,15,0,3,,,,,,,,,2,,,63,0
34290,note_on,0,0,4,,,,,,,,,3,,,51,0
34290,note_on,0,0,2,,,,,,,,,1,,,75,0
34290,note_on,0,0,4,,,,,,,,,3,,,54,101
34290,note_on,0,0,2,,,,,,,,,1,,,83,114
34290,note_on,30,0,4,,,,,,,,,3,,,59,0
34290,note_on,30,0,2,,,,,,,,,1,,,78,0
34320,note_on,30,0,2,,,,,,,,,1,,,83,0
34320,note_on,0,0,3,,,,,,,,,2,,,63,101
34320,note_on,0,0,4,,,,,,,,,3,,,59,101
34320,note_on,0,0,1,,,,,,,,,0,,,78,114
34320,note_on,0,0,2,,,,,,,,,1,,,75,114
34320,note_on,60,0,3,,,,,,,,,2,,,63,0
34320,note_on,60,0,1,,,,,,,,,0,,,87,0
34320,note_on,30,0,4,,,,,,,,,3,,,54,0
34350,note_on,0,0,4,,,,,,,,,3,,,51,101
34350,note_on,30,0,4,,,,,,,,,3,,,59,0
34350,note_on,0,0,2,,,,,,,,,1,,,87,114
34350,note_on,30,0,2,,,,,,,,,1,,,75,0
34380,note_on,30,0,2,,,,,,,,,1,,,87,0
34380,note_on,60,0,3,,,,,,,,,2,,,63,0
34380,note_on,0,0,3,,,,,,,,,2,,,56,101
34380,note_on,0,0,3,,,,,,,,,2,,,51,101
34380,note_on,30,0,4,,,,,,,,,3,,,51,0
34380,note_on,60,0,1,,,,,,,,,0,,,78,0
34380,note_on,0,0,3,,,,,,,,,2,,,44,101
34380,note_on,0,0,1,,,,,,,,,0,,,59,114
34380,note_on,0,0,1,,,,,,,,,0,,,63,114
34384,note_on,4,0,1,,,,,,,,,0,,,63,0
34384,note_on,0,0,3,,,,,,,,,2,,,51,0
34384,note_on,0,0,3,,,,,,,,,2,,,44,0
34384,note_on,0,0,1,,,,,,,,,0,,,59,0
34384,note_on,4,0,3,,,,,,,,,2,,,56,0
34425,note_on,0,0,1,,,,,,,,,0,,,80,114
34425,note_on,0,0,1,,,,,,,,,0,,,87,114
34425,note_on,0,0,3,,,,,,,,,2,,,59,101
34425,note_on,41,0,1,,,,,,,,,0,,,75,114
34425,note_on,41,0,3,,,,,,,,,2,,,51,101
34425,note_on,0,0,3,,,,,,,,,2,,,63,101
34440,note_on,0,0,3,,,,,,,,,2,,,59,0
34440,note_on,0,0,1,,,,,,,,,0,,,80,0
34440,note_on,0,0,1,,,,,,,,,0,,,87,127
34440,note_on,0,0,2,,,,,,,,,1,,,80,127
34440,note_on,0,0,3,,,,,,,,,2,,,51,0
34440,note_on,0,0,1,,,,,,,,,0,,,75,0
34440,note_on,60,0,4,,,,,,,,,3,,,51,119
34440,note_on,15,0,3,,,,,,,,,2,,,63,0
34440,note_on,0,0,4,,,,,,,,,3,,,59,127
34440,note_on,15,0,1,,,,,,,,,0,,,87,0
34440,note_on,0,0,3,,,,,,,,,2,,,63,127
34440,note_on,60,0,2,,,,,,,,,1,,,75,127
34470,note_on,0,0,4,,,,,,,,,3,,,56,101
34470,note_on,0,0,4,,,,,,,,,3,,,51,0
34470,note_on,0,0,2,,,,,,,,,1,,,83,114
34470,note_on,0,0,2,,,,,,,,,1,,,75,0
34470,note_on,30,0,2,,,,,,,,,1,,,80,0
34470,note_on,30,0,4,,,,,,,,,3,,,59,0
34500,note_on,60,0,1,,,,,,,,,0,,,87,0
34500,note_on,0,0,1,,,,,,,,,0,,,80,114
34500,note_on,0,0,3,,,,,,,,,2,,,63,101
34500,note_on,0,0,4,,,,,,,,,3,,,59,101
34500,note_on,30,0,2,,,,,,,,,1,,,83,0
34500,note_on,30,0,4,,,,,,,,,3,,,56,0
34500,note_on,0,0,2,,,,,,,,,1,,,75,114
34500,note_on,60,0,3,,,,,,,,,2,,,63,0
34530,note_on,30,0,4,,,,,,,,,3,,,59,0
34530,note_on,30,0,2,,,,,,,,,1,,,75,0
34530,note_on,0,0,2,,,,,,,,,1,,,87,114
34530,note_on,0,0,4,,,,,,,,,3,,,51,101
34560,note_on,30,0,2,,,,,,,,,1,,,87,0
34560,note_on,30,0,4,,,,,,,,,3,,,51,0
34560,note_on,0,0,1,,,,,,,,,0,,,63,114
34560,note_on,0,0,1,,,,,,,,,0,,,58,114
34560,note_on,0,0,1,,,,,,,,,0,,,55,114
34560,note_on,60,0,1,,,,,,,,,0,,,80,0
34560,note_on,0,0,3,,,,,,,,,2,,,39,101
34560,note_on,0,0,3,,,,,,,,,2,,,46,101
34560,note_on,0,0,3,,,,,,,,,2,,,51,101
34560,note_on,60,0,3,,,,,,,,,2,,,63,0
34564,note_on,0,0,1,,,,,,,,,0,,,55,0
34564,note_on,4,0,3,,,,,,,,,2,,,51,0
34564,note_on,0,0,1,,,,,,,,,0,,,58,0
34564,note_on,0,0,3,,,,,,,,,2,,,39,0
34564,note_on,0,0,3,,,,,,,,,2,,,46,0
34564,note_on,4,0,1,,,,,,,,,0,,,63,0
34605,note_on,0,0,1,,,,,,,,,0,,,87,114
34605,note_on,41,0,1,,,,,,,,,0,,,75,114
34605,note_on,0,0,3,,,,,,,,,2,,,58,101
34605,note_on,0,0,3,,,,,,,,,2,,,63,101
34605,note_on,41,0,3,,,,,,,,,2,,,51,101
34605,note_on,0,0,1,,,,,,,,,0,,,79,114
34620,note_on,0,0,3,,,,,,,,,2,,,58,0
34620,note_on,0,0,2,,,,,,,,,1,,,79,127
34620,note_on,0,0,1,,,,,,,,,0,,,87,127
34620,note_on,0,0,1,,,,,,,,,0,,,75,0
34620,note_on,0,0,3,,,,,,,,,2,,,51,0
34620,note_on,60,0,4,,,,,,,,,3,,,51,119
34620,note_on,15,0,3,,,,,,,,,2,,,63,0
34620,note_on,15,0,1,,,,,,,,,0,,,87,0
34620,note_on,60,0,2,,,,,,,,,1,,,75,127
34620,note_on,0,0,4,,,,,,,,,3,,,58,127
34620,note_on,0,0,3,,,,,,,,,2,,,63,127
34620,note_on,0,0,1,,,,,,,,,0,,,79,0
34650,note_on,0,0,4,,,,,,,,,3,,,51,0
34650,note_on,30,0,2,,,,,,,,,1,,,79,0
34650,note_on,0,0,2,,,,,,,,,1,,,75,0
34650,note_on,30,0,4,,,,,,,,,3,,,58,0
34650,note_on,0,0,2,,,,,,,,,1,,,82,114
34650,note_on,0,0,4,,,,,,,,,3,,,55,101
34680,note_on,30,0,4,,,,,,,,,3,,,55,0
34680,note_on,0,0,4,,,,,,,,,3,,,58,101
34680,note_on,0,0,2,,,,,,,,,1,,,75,114
34680,note_on,0,0,3,,,,,,,,,2,,,63,101
34680,note_on,60,0,1,,,,,,,,,0,,,87,0
34680,note_on,60,0,3,,,,,,,,,2,,,63,0
34680,note_on,0,0,1,,,,,,,,,0,,,79,114
34680,note_on,30,0,2,,,,,,,,,1,,,82,0
34710,note_on,30,0,2,,,,,,,,,1,,,75,0
34710,note_on,0,0,2,,,,,,,,,1,,,87,114
34710,note_on,30,0,4,,,,,,,,,3,,,58,0
34710,note_on,0,0,4,,,,,,,,,3,,,55,101
34740,note_on,0,0,1,,,,,,,,,0,,,80,114
34740,note_on,0,0,1,,,,,,,,,0,,,68,114
34740,note_on,0,0,3,,,,,,,,,2,,,56,101
34740,note_on,30,0,2,,,,,,,,,1,,,87,0
34740,note_on,30,0,4,,,,,,,,,3,,,55,0
34740,note_on,60,0,3,,,,,,,,,2,,,63,0
34740,note_on,60,0,1,,,,,,,,,0,,,79,0
34740,note_on,0,0,3,,,,,,,,,2,,,44,101
34770,note_on,30,0,3,,,,,,,,,2,,,56,0
34770,note_on,0,0,1,,,,,,,,,0,,,71,114
34770,note_on,0,0,1,,,,,,,,,0,,,68,0
34770,note_on,30,0,1,,,,,,,,,0,,,80,0
34770,note_on,0,0,3,,,,,,,,,2,,,44,0
34770,note_on,0,0,3,,,,,,,,,2,,,51,101
34800,note_on,0,0,1,,,,,,,,,0,,,75,114
34800,note_on,0,0,3,,,,,,,,,2,,,47,101
34800,note_on,30,0,1,,,,,,,,,0,,,71,0
34800,note_on,30,0,3,,,,,,,,,2,,,51,0
34830,note_on,0,0,1,,,,,,,,,0,,,80,114
34830,note_on,30,0,3,,,,,,,,,2,,,47,0
34830,note_on,0,0,3,,,,,,,,,2,,,44,101
34830,note_on,30,0,1,,,,,,,,,0,,,75,0
34860,note_on,30,0,1,,,,,,,,,0,,,80,0
34860,note_on,30,0,3,,,,,,,,,2,,,44,0
34860,note_on,0,0,3,,,,,,,,,2,,,39,101
34860,note_on,0,0,1,,,,,,,,,0,,,83,114
34890,note_on,0,0,3,,,,,,,,,2,,,32,101
34890,note_on,30,0,1,,,,,,,,,0,,,83,0
34890,note_on,0,0,1,,,,,,,,,0,,,92,114
34890,note_on,30,0,3,,,,,,,,,2,,,39,0
34920,note_on,0,0,3,,,,,,,,,2,,,39,101
34920,note_on,0,0,3,,,,,,,,,2,,,36,101
34920,note_on,0,0,3,,,,,,,,,2,,,42,101
34920,note_on,0,0,3,,,,,,,,,2,,,45,101
34920,note_on,30,0,3,,,,,,,,,2,,,32,0
34920,note_on,0,0,1,,,,,,,,,0,,,69,114
34920,note_on,0,0,1,,,,,,,,,0,,,63,114
34920,note_on,0,0,1,,,,,,,,,0,,,66,114
34920,note_on,0,0,1,,,,,,,,,0,,,56,114
34920,note_on,30,0,1,,,,,,,,,0,,,92,0
34950,note_on,0,0,1,,,,,,,,,0,,,66,0
34950,note_on,30,0,1,,,,,,,,,0,,,69,0
34950,note_on,0,0,1,,,,,,,,,0,,,56,0
34950,note_on,0,0,3,,,,,,,,,2,,,36,0
34950,note_on,0,0,3,,,,,,,,,2,,,39,0
34950,note_on,0,0,3,,,,,,,,,2,,,42,0
34950,note_on,0,0,3,,,,,,,,,2,,,42,101
34950,note_on,0,0,1,,,,,,,,,0,,,66,114
34950,note_on,0,0,1,,,,,,,,,0,,,63,0
34950,note_on,30,0,3,,,,,,,,,2,,,45,0
34980,note_on,0,0,3,,,,,,,,,2,,,54,127
34980,note_on,30,0,3,,,,,,,,,2,,,42,0
34980,note_on,30,0,1,,,,,,,,,0,,,66,0
34980,note_on,0,0,1,,,,,,,,,0,,,78,127
34984,note_on,4,0,1,,,,,,,,,0,,,78,0
34984,note_on,4,0,3,,,,,,,,,2,,,54,0
35010,note_on,26,0,1,,,,,,,,,0,,,64,101
35010,note_on,26,0,3,,,,,,,,,2,,,40,101
35040,note_on,0,0,1,,,,,,,,,0,,,76,127
35040,note_on,30,0,3,,,,,,,,,2,,,40,0
35040,note_on,0,0,3,,,,,,,,,2,,,52,127
35040,note_on,30,0,1,,,,,,,,,0,,,64,0
35044,note_on,4,0,1,,,,,,,,,0,,,76,0
35044,note_on,4,0,3,,,,,,,,,2,,,52,0
35070,note_on,26,0,3,,,,,,,,,2,,,39,101
35070,note_on,26,0,1,,,,,,,,,0,,,63,101
35100,note_on,30,0,1,,,,,,,,,0,,,63,0
35100,note_on,0,0,3,,,,,,,,,2,,,51,127
35100,note_on,0,0,1,,,,,,,,,0,,,75,127
35100,note_on,30,0,3,,,,,,,,,2,,,39,0
35104,note_on,4,0,1,,,,,,,,,0,,,75,0
35104,note_on,4,0,3,,,,,,,,,2,,,51,0
35130,note_on,26,0,3,,,,,,,,,2,,,38,101
35130,note_on,26,0,1,,,,,,,,,0,,,62,101
35160,note_on,0,0,1,,,,,,,,,0,,,74,127
35160,note_on,0,0,3,,,,,,,,,2,,,50,127
35160,note_on,30,0,1,,,,,,,,,0,,,62,0
35160,note_on,30,0,3,,,,,,,,,2,,,38,0
35164,note_on,4,0,3,,,,,,,,,2,,,50,0
35164,note_on,4,0,1,,,,,,,,,0,,,74,0
35190,note_on,26,0,1,,,,,,,,,0,,,63,101
35190,note_on,26,0,3,,,,,,,,,2,,,39,101
35220,note_on,0,0,1,,,,,,,,,0,,,75,127
35220,note_on,30,0,1,,,,,,,,,0,,,63,0
35220,note_on,0,0,3,,,,,,,,,2,,,51,127
35220,note_on,30,0,3,,,,,,,,,2,,,39,0
35224,note_on,4,0,3,,,,,,,,,2,,,51,0
35224,note_on,4,0,1,,,,,,,,,0,,,75,0
35250,note_on,26,0,3,,,,,,,,,2,,,36,101
35250,note_on,26,0,1,,,,,,,,,0,,,57,101
35280,note_on,0,0,1,,,,,,,,,0,,,63,127
35280,note_on,30,0,3,,,,,,,,,2,,,36,0
35280,note_on,0,0,3,,,,,,,,,2,,,45,127
35280,note_on,0,0,3,,,,,,,,,2,,,42,122
35280,note_on,0,0,1,,,,,,,,,0,,,69,127
35280,note_on,0,0,1,,,,,,,,,0,,,66,127
35280,note_on,0,0,3,,,,,,,,,2,,,39,117
35280,note_on,30,0,1,,,,,,,,,0,,,57,0
35284,note_on,4,0,1,,,,,,,,,0,,,69,0
35284,note_on,0,0,3,,,,,,,,,2,,,42,0
35284,note_on,0,0,1,,,,,,,,,0,,,66,0
35284,note_on,4,0,3,,,,,,,,,2,,,45,0
35284,note_on,0,0,3,,,,,,,,,2,,,39,0
35284,note_on,0,0,1,,,,,,,,,0,,,63,0
35310,note_on,26,0,3,,,,,,,,,2,,,42,101
35310,note_on,26,0,1,,,,,,,,,0,,,66,114
35340,note_on,30,0,1,,,,,,,,,0,,,66,0
35340,note_on,0,0,1,,,,,,,,,0,,,78,127
35340,note_on,30,0,3,,,,,,,,,2,,,42,0
35340,note_on,0,0,3,,,,,,,,,2,,,54,127
35344,note_on,4,0,3,,,,,,,,,2,,,54,0
35344,note_on,4,0,1,,,,,,,,,0,,,78,0
35370,note_on,26,0,3,,,,,,,,,2,,,40,101
35370,note_on,26,0,1,,,,,,,,,0,,,64,114
35400,note_on,30,0,1,,,,,,,,,0,,,64,0
35400,note_on,0,0,3,,,,,,,,,2,,,52,127
35400,note_on,30,0,3,,,,,,,,,2,,,40,0
35400,note_on,0,0,1,,,,,,,,,0,,,76,127
35404,note_on,4,0,1,,,,,,,,,0,,,76,0
35404,note_on,4,0,3,,,,,,,,,2,,,52,0
35430,note_on,26,0,1,,,,,,,,,0,,,63,114
35430,note_on,26,0,3,,,,,,,,,2,,,39,101
35460,note_on,30,0,1,,,,,,,,,0,,,63,0
35460,note_on,0,0,3,,,,,,,,,2,,,51,127
35460,note_on,0,0,1,,,,,,,,,0,,,75,127
35460,note_on,30,0,3,,,,,,,,,2,,,39,0
35464,note_on,4,0,3,,,,,,,,,2,,,51,0
35464,note_on,4,0,1,,,,,,,,,0,,,75,0
35490,note_on,26,0,1,,,,,,,,,0,,,62,114
35490,note_on,26,0,3,,,,,,,,,2,,,38,101
35520,note_on,30,0,1,,,,,,,,,0,,,62,0
35520,note_on,30,0,3,,,,,,,,,2,,,38,0
35520,note_on,0,0,1,,,,,,,,,0,,,74,127
35520,note_on,0,0,3,,,,,,,,,2,,,50,127
35524,note_on,4,0,3,,,,,,,,,2,,,50,0
35524,note_on,4,0,1,,,,,,,,,0,,,74,0
35550,note_on,26,0,3,,,,,,,,,2,,,39,101
35550,note_on,26,0,1,,,,,,,,,0,,,63,114
35580,note_on,0,0,3,,,,,,,,,2,,,51,127
35580,note_on,0,0,1,,,,,,,,,0,,,75,127
35580,note_on,30,0,3,,,,,,,,,2,,,39,0
35580,note_on,30,0,1,,,,,,,,,0,,,63,0
35584,note_on,4,0,3,,,,,,,,,2,,,51,0
35584,note_on,4,0,1,,,,,,,,,0,,,75,0
35610,note_on,26,0,1,,,,,,,,,0,,,57,114
35610,note_on,26,0,3,,,,,,,,,2,,,36,101
35640,note_on,0,0,3,,,,,,,,,2,,,45,127
35640,note_on,30,0,3,,,,,,,,,2,,,36,0
35640,note_on,30,0,1,,,,,,,,,0,,,57,0
35640,note_on,0,0,1,,,,,,,,,0,,,66,127
35640,note_on,0,0,3,,,,,,,,,2,,,39,117
35640,note_on,0,0,1,,,,,,,,,0,,,69,127
35640,note_on,0,0,3,,,,,,,,,2,,,42,122
35640,note_on,0,0,1,,,,,,,,,0,,,63,127
35644,note_on,0,0,1,,,,,,,,,0,,,66,0
35644,note_on,0,0,1,,,,,,,,,0,,,63,0
35644,note_on,4,0,3,,,,,,,,,2,,,45,0
35644,note_on,0,0,3,,,,,,,,,2,,,42,0
35644,note_on,0,0,3,,,,,,,,,2,,,39,0
35644,note_on,4,0,1,,,,,,,,,0,,,69,0
35670,note_on,26,0,1,,,,,,,,,0,,,66,114
35670,note_on,26,0,3,,,,,,,,,2,,,42,101
35700,note_on,0,0,3,,,,,,,,,2,,,54,127
35700,note_on,30,0,3,,,,,,,,,2,,,42,0
35700,note_on,30,0,1,,,,,,,,,0,,,66,0
35700,note_on,0,0,1,,,,,,,,,0,,,78,127
35704,note_on,4,0,3,,,,,,,,,2,,,54,0
35704,note_on,4,0,1,,,,,,,,,0,,,78,0
35730,note_on,26,0,3,,,,,,,,,2,,,39,101
35730,note_on,26,0,1,,,,,,,,,0,,,63,114
35760,note_on,30,0,3,,,,,,,,,2,,,39,0
35760,note_on,30,0,1,,,,,,,,,0,,,63,0
35760,note_on,0,0,1,,,,,,,,,0,,,75,127
35760,note_on,0,0,3,,,,,,,,,2,,,51,127
35764,note_on,4,0,3,,,,,,,,,2,,,51,0
35764,note_on,4,0,1,,,,,,,,,0,,,75,0
35790,note_on,26,0,3,,,,,,,,,2,,,37,101
35790,note_on,26,0,1,,,,,,,,,0,,,56,114
35820,note_on,0,0,1,,,,,,,,,0,,,69,127
35820,note_on,0,0,1,,,,,,,,,0,,,64,127
35820,note_on,0,0,3,,,,,,,,,2,,,40,119
35820,note_on,0,0,3,,,,,,,,,2,,,45,127
35820,note_on,30,0,3,,,,,,,,,2,,,37,0
35820,note_on,30,0,1,,,,,,,,,0,,,56,0
35824,note_on,0,0,3,,,,,,,,,2,,,40,0
35824,note_on,4,0,3,,,,,,,,,2,,,45,0
35824,note_on,0,0,1,,,,,,,,,0,,,64,0
35824,note_on,4,0,1,,,,,,,,,0,,,69,0
35850,note_on,26,0,3,,,,,,,,,2,,,40,101
35850,note_on,26,0,1,,,,,,,,,0,,,64,114
35880,note_on,30,0,3,,,,,,,,,2,,,40,0
35880,note_on,30,0,1,,,,,,,,,0,,,64,0
35880,note_on,0,0,1,,,,,,,,,0,,,76,127
35880,note_on,0,0,3,,,,,,,,,2,,,52,127
35884,note_on,4,0,1,,,,,,,,,0,,,76,0
35884,note_on,4,0,3,,,,,,,,,2,,,52,0
35910,note_on,26,0,1,,,,,,,,,0,,,63,114
35910,note_on,26,0,3,,,,,,,,,2,,,39,101
35940,note_on,0,0,3,,,,,,,,,2,,,51,127
35940,note_on,0,0,1,,,,,,,,,0,,,75,127
35940,note_on,30,0,3,,,,,,,,,2,,,39,0
35940,note_on,30,0,1,,,,,,,,,0,,,63,0
35944,note_on,4,0,3,,,,,,,,,2,,,51,0
35944,note_on,4,0,1,,,,,,,,,0,,,75,0
35970,note_on,26,0,1,,,,,,,,,0,,,61,114
35970,note_on,26,0,3,,,,,,,,,2,,,37,101
36000,note_on,30,0,1,,,,,,,,,0,,,61,0
36000,note_on,0,0,3,,,,,,,,,2,,,49,127
36000,note_on,30,0,3,,,,,,,,,2,,,37,0
36000,note_on,0,0,1,,,,,,,,,0,,,73,127
36004,note_on,4,0,3,,,,,,,,,2,,,49,0
36004,note_on,4,0,1,,,,,,,,,0,,,73,0
36030,note_on,26,0,1,,,,,,,,,0,,,68,114
36030,note_on,26,0,3,,,,,,,,,2,,,44,101
36060,note_on,30,0,3,,,,,,,,,2,,,44,0
36060,note_on,0,0,3,,,,,,,,,2,,,56,127
36060,note_on,0,0,1,,,,,,,,,0,,,80,127
36060,note_on,30,0,1,,,,,,,,,0,,,68,0
36064,note_on,4,0,1,,,,,,,,,0,,,80,0
36064,note_on,4,0,3,,,,,,,,,2,,,56,0
36090,note_on,26,0,1,,,,,,,,,0,,,66,114
36090,note_on,26,0,3,,,,,,,,,2,,,42,101
36120,note_on,30,0,3,,,,,,,,,2,,,42,0
36120,note_on,0,0,3,,,,,,,,,2,,,54,127
36120,note_on,30,0,1,,,,,,,,,0,,,66,0
36120,note_on,0,0,1,,,,,,,,,0,,,78,127
36124,note_on,4,0,1,,,,,,,,,0,,,78,0
36124,note_on,4,0,3,,,,,,,,,2,,,54,0
36150,note_on,26,0,3,,,,,,,,,2,,,40,101
36150,note_on,26,0,1,,,,,,,,,0,,,64,114
36180,note_on,0,0,1,,,,,,,,,0,,,76,127
36180,note_on,30,0,3,,,,,,,,,2,,,40,0
36180,note_on,30,0,1,,,,,,,,,0,,,64,0
36180,note_on,0,0,3,,,,,,,,,2,,,52,127
36184,note_on,4,0,1,,,,,,,,,0,,,76,0
36184,note_on,4,0,3,,,,,,,,,2,,,52,0
36210,note_on,26,0,3,,,,,,,,,2,,,39,101
36210,note_on,26,0,1,,,,,,,,,0,,,63,114
36240,note_on,30,0,1,,,,,,,,,0,,,63,0
36240,note_on,0,0,3,,,,,,,,,2,,,51,127
36240,note_on,30,0,3,,,,,,,,,2,,,39,0
36240,note_on,0,0,1,,,,,,,,,0,,,75,127
36244,note_on,4,0,1,,,,,,,,,0,,,75,0
36244,note_on,4,0,3,,,,,,,,,2,,,51,0
36270,note_on,26,0,1,,,,,,,,,0,,,61,114
36270,note_on,26,0,3,,,,,,,,,2,,,37,101
36300,note_on,30,0,3,,,,,,,,,2,,,37,0
36300,note_on,30,0,1,,,,,,,,,0,,,61,0
36300,note_on,0,0,3,,,,,,,,,2,,,49,127
36300,note_on,0,0,1,,,,,,,,,0,,,73,127
36304,note_on,4,0,3,,,,,,,,,2,,,49,0
36304,note_on,4,0,1,,,,,,,,,0,,,73,0
36330,note_on,26,0,1,,,,,,,,,0,,,61,114
36330,note_on,26,0,3,,,,,,,,,2,,,39,101
36360,note_on,0,0,1,,,,,,,,,0,,,64,127
36360,note_on,0,0,1,,,,,,,,,0,,,73,127
36360,note_on,0,0,3,,,,,,,,,2,,,52,127
36360,note_on,30,0,1,,,,,,,,,0,,,61,0
36360,note_on,0,0,3,,,,,,,,,2,,,43,119
36360,note_on,30,0,3,,,,,,,,,2,,,39,0
36364,note_on,0,0,3,,,,,,,,,2,,,43,0
36364,note_on,4,0,3,,,,,,,,,2,,,52,0
36364,note_on,0,0,1,,,,,,,,,0,,,64,0
36364,note_on,4,0,1,,,,,,,,,0,,,73,0
36390,note_on,26,0,1,,,,,,,,,0,,,59,114
36390,note_on,26,0,3,,,,,,,,,2,,,39,101
36420,note_on,30,0,1,,,,,,,,,0,,,59,0
36420,note_on,0,0,3,,,,,,,,,2,,,43,119
36420,note_on,0,0,3,,,,,,,,,2,,,51,127
36420,note_on,30,0,3,,,,,,,,,2,,,39,0
36420,note_on,0,0,1,,,,,,,,,0,,,71,127
36420,note_on,0,0,1,,,,,,,,,0,,,63,127
36424,note_on,0,0,3,,,,,,,,,2,,,43,0
36424,note_on,4,0,1,,,,,,,,,0,,,71,0
36424,note_on,0,0,1,,,,,,,,,0,,,63,0
36424,note_on,4,0,3,,,,,,,,,2,,,51,0
36450,note_on,26,0,3,,,,,,,,,2,,,39,101
36450,note_on,26,0,1,,,,,,,,,0,,,58,114
36480,note_on,0,0,3,,,,,,,,,2,,,43,119
36480,note_on,30,0,3,,,,,,,,,2,,,39,0
36480,note_on,30,0,1,,,,,,,,,0,,,58,0
36480,note_on,0,0,1,,,,,,,,,0,,,70,127
36480,note_on,0,0,1,,,,,,,,,0,,,61,127
36480,note_on,0,0,3,,,,,,,,,2,,,51,127
36484,note_on,0,0,3,,,,,,,,,2,,,43,0
36484,note_on,4,0,1,,,,,,,,,0,,,70,0
36484,note_on,4,0,3,,,,,,,,,2,,,51,0
36484,note_on,0,0,1,,,,,,,,,0,,,61,0
36510,note_on,26,0,1,,,,,,,,,0,,,56,114
36510,note_on,26,0,3,,,,,,,,,2,,,32,101
36540,note_on,30,0,1,,,,,,,,,0,,,56,0
36540,note_on,0,0,1,,,,,,,,,0,,,59,127
36540,note_on,0,0,3,,,,,,,,,2,,,47,127
36540,note_on,0,0,1,,,,,,,,,0,,,68,127
36540,note_on,30,0,3,,,,,,,,,2,,,32,0
36540,note_on,0,0,3,,,,,,,,,2,,,39,119
36546,note_on,0,0,3,,,,,,,,,2,,,39,0
36546,note_on,6,0,1,,,,,,,,,0,,,68,0
36546,note_on,6,0,3,,,,,,,,,2,,,47,0
36546,note_on,0,0,1,,,,,,,,,0,,,59,0
36600,note_on,54,0,1,,,,,,,,,0,,,71,88
36600,note_on,54,0,3,,,,,,,,,2,,,56,88
36600,note_on,1860,0,4,,,,,,,,,3,,,51,75
36600,note_on,1860,0,2,,,,,,,,,1,,,63,75
36630,note_on,0,0,1,,,,,,,,,0,,,70,88
36630,note_on,30,0,1,,,,,,,,,0,,,71,0
36630,note_on,0,0,3,,,,,,,,,2,,,58,88
36630,note_on,30,0,3,,,,,,,,,2,,,56,0
36660,note_on,0,0,1,,,,,,,,,0,,,68,114
36660,note_on,0,0,3,,,,,,,,,2,,,59,114
36660,note_on,30,0,1,,,,,,,,,0,,,70,0
36660,note_on,30,0,3,,,,,,,,,2,,,58,0
36666,note_on,6,0,1,,,,,,,,,0,,,68,0
36666,note_on,6,0,3,,,,,,,,,2,,,59,0
36720,note_on,54,0,1,,,,,,,,,0,,,75,114
36720,note_on,120,0,4,,,,,,,,,3,,,51,0
36720,set_tempo,5400,1,0,,,,,,606061,,,,,,,
36720,note_on,0,0,3,,,,,,,,,2,,,51,101
36720,note_on,120,0,2,,,,,,,,,1,,,63,0
36720,note_on,0,0,1,,,,,,,,,0,,,87,114
36720,note_on,54,0,3,,,,,,,,,2,,,39,101
36780,note_on,0,0,4,,,,,,,,,3,,,55,101
36780,note_on,0,0,3,,,,,,,,,2,,,58,101
36780,note_on,0,0,3,,,,,,,,,2,,,39,0
36780,note_on,60,0,4,,,,,,,,,3,,,51,101
36780,note_on,60,0,1,,,,,,,,,0,,,87,0
36780,note_on,0,0,2,,,,,,,,,1,,,67,101
36780,note_on,0,0,1,,,,,,,,,0,,,73,114
36780,note_on,0,0,1,,,,,,,,,0,,,75,0
36780,note_on,60,0,3,,,,,,,,,2,,,51,0
36780,note_on,60,0,2,,,,,,,,,1,,,63,101
36810,note_on,30,0,3,,,,,,,,,2,,,58,0
36810,note_on,30,0,1,,,,,,,,,0,,,73,0
36810,note_on,0,0,3,,,,,,,,,2,,,59,101
36810,note_on,0,0,1,,,,,,,,,0,,,71,114
36840,note_on,30,0,3,,,,,,,,,2,,,59,0
36840,note_on,0,0,1,,,,,,,,,0,,,70,127
36840,note_on,0,0,3,,,,,,,,,2,,,61,127
36840,note_on,30,0,1,,,,,,,,,0,,,71,0
36846,note_on,6,0,1,,,,,,,,,0,,,70,0
36846,note_on,6,0,3,,,,,,,,,2,,,61,0
36900,note_on,0,0,1,,,,,,,,,0,,,87,114
36900,note_on,120,0,2,,,,,,,,,1,,,67,0
36900,note_on,0,0,2,,,,,,,,,1,,,63,0
36900,note_on,120,0,4,,,,,,,,,3,,,55,0
36900,note_on,0,0,3,,,,,,,,,2,,,44,101
36900,note_on,0,0,4,,,,,,,,,3,,,51,0
36900,note_on,54,0,1,,,,,,,,,0,,,75,114
36900,note_on,54,0,3,,,,,,,,,2,,,32,101
36960,note_on,60,0,3,,,,,,,,,2,,,44,0
36960,note_on,0,0,3,,,,,,,,,2,,,56,101
36960,note_on,0,0,1,,,,,,,,,0,,,75,0
36960,note_on,0,0,1,,,,,,,,,0,,,71,114
36960,note_on,60,0,1,,,,,,,,,0,,,87,0
36960,note_on,60,0,2,,,,,,,,,1,,,63,101
36960,note_on,0,0,3,,,,,,,,,2,,,32,0
36960,note_on,60,0,4,,,,,,,,,3,,,51,101
36990,note_on,30,0,3,,,,,,,,,2,,,56,0
36990,note_on,0,0,1,,,,,,,,,0,,,70,114
36990,note_on,0,0,3,,,,,,,,,2,,,58,101
36990,note_on,30,0,1,,,,,,,,,0,,,71,0
37020,note_on,30,0,1,,,,,,,,,0,,,70,0
37020,note_on,0,0,3,,,,,,,,,2,,,59,127
37020,note_on,0,0,1,,,,,,,,,0,,,68,127
37020,note_on,30,0,3,,,,,,,,,2,,,58,0
37026,note_on,6,0,1,,,,,,,,,0,,,68,0
37026,note_on,6,0,3,,,,,,,,,2,,,59,0
37080,note_on,120,0,2,,,,,,,,,1,,,63,0
37080,note_on,0,0,3,,,,,,,,,2,,,51,101
37080,note_on,120,0,4,,,,,,,,,3,,,51,0
37080,note_on,54,0,3,,,,,,,,,2,,,39,101
37080,note_on,54,0,1,,,,,,,,,0,,,75,114
37080,note_on,0,0,1,,,,,,,,,0,,,87,114
37140,note_on,0,0,2,,,,,,,,,1,,,67,101
37140,note_on,0,0,1,,,,,,,,,0,,,73,114
37140,note_on,60,0,2,,,,,,,,,1,,,63,101
37140,note_on,60,0,1,,,,,,,,,0,,,87,0
37140,note_on,60,0,4,,,,,,,,,3,,,51,101
37140,note_on,60,0,3,,,,,,,,,2,,,51,0
37140,note_on,0,0,1,,,,,,,,,0,,,75,0
37140,note_on,0,0,3,,,,,,,,,2,,,39,0
37140,note_on,0,0,3,,,,,,,,,2,,,58,101
37170,note_on,0,0,1,,,,,,,,,0,,,72,114
37170,note_on,0,0,3,,,,,,,,,2,,,60,101
37170,note_on,30,0,1,,,,,,,,,0,,,73,0
37170,note_on,30,0,3,,,,,,,,,2,,,58,0
37200,note_on,30,0,1,,,,,,,,,0,,,72,0
37200,note_on,30,0,3,,,,,,,,,2,,,60,0
37200,note_on,0,0,3,,,,,,,,,2,,,61,127
37200,note_on,0,0,1,,,,,,,,,0,,,70,127
37206,note_on,6,0,3,,,,,,,,,2,,,61,0
37206,note_on,6,0,1,,,,,,,,,0,,,70,0
37260,note_on,120,0,4,,,,,,,,,3,,,51,0
37260,note_on,0,0,1,,,,,,,,,0,,,87,114
37260,note_on,120,0,2,,,,,,,,,1,,,67,0
37260,note_on,54,0,1,,,,,,,,,0,,,75,114
37260,note_on,54,0,3,,,,,,,,,2,,,44,101
37260,note_on,0,0,3,,,,,,,,,2,,,56,101
37260,note_on,0,0,2,,,,,,,,,1,,,63,0
37320,note_on,0,0,3,,,,,,,,,2,,,60,101
37320,note_on,0,0,1,,,,,,,,,0,,,75,114
37320,note_on,60,0,3,,,,,,,,,2,,,56,0
37320,note_on,0,0,1,,,,,,,,,0,,,75,0
37320,note_on,0,0,1,,,,,,,,,0,,,72,114
37320,note_on,0,0,3,,,,,,,,,2,,,56,101
37320,note_on,60,0,1,,,,,,,,,0,,,87,0
37320,note_on,0,0,3,,,,,,,,,2,,,44,0
37350,note_on,30,0,3,,,,,,,,,2,,,60,0
37350,note_on,0,0,3,,,,,,,,,2,,,56,0
37350,note_on,0,0,3,,,,,,,,,2,,,61,101
37350,note_on,30,0,1,,,,,,,,,0,,,75,0
37350,note_on,0,0,1,,,,,,,,,0,,,72,0
37350,note_on,0,0,1,,,,,,,,,0,,,73,114
37350,note_on,0,0,1,,,,,,,,,0,,,70,114
37350,note_on,0,0,3,,,,,,,,,2,,,58,101
37380,note_on,30,0,1,,,,,,,,,0,,,73,0
37380,note_on,0,0,1,,,,,,,,,0,,,68,127
37380,note_on,30,0,3,,,,,,,,,2,,,61,0
37380,note_on,0,0,1,,,,,,,,,0,,,70,0
37380,note_on,0,0,1,,,,,,,,,0,,,72,127
37380,note_on,0,0,3,,,,,,,,,2,,,63,127
37380,note_on,0,0,3,,,,,,,,,2,,,60,119
37380,note_on,0,0,3,,,,,,,,,2,,,58,0
37386,note_on,6,0,1,,,,,,,,,0,,,72,0
37386,note_on,6,0,3,,,,,,,,,2,,,63,0
37386,note_on,0,0,3,,,,,,,,,2,,,60,0
37386,note_on,0,0,1,,,,,,,,,0,,,68,0
37440,note_on,0,0,1,,,,,,,,,0,,,89,114
37440,note_on,0,0,3,,,,,,,,,2,,,49,101
37440,note_on,54,0,3,,,,,,,,,2,,,37,101
37440,note_on,54,0,1,,,,,,,,,0,,,77,114
37500,note_on,0,0,3,,,,,,,,,2,,,37,0
37500,note_on,0,0,3,,,,,,,,,2,,,58,101
37500,note_on,60,0,1,,,,,,,,,0,,,89,0
37500,note_on,60,0,3,,,,,,,,,2,,,49,0
37500,note_on,0,0,3,,,,,,,,,2,,,61,101
37500,note_on,0,0,1,,,,,,,,,0,,,77,114
37500,note_on,0,0,1,,,,,,,,,0,,,77,0
37500,note_on,0,0,1,,,,,,,,,0,,,73,114
37530,note_on,0,0,3,,,,,,,,,2,,,58,0
37530,note_on,30,0,1,,,,,,,,,0,,,77,0
37530,note_on,30,0,3,,,,,,,,,2,,,61,0
37530,note_on,0,0,3,,,,,,,,,2,,,60,101
37530,note_on,0,0,3,,,,,,,,,2,,,63,101
37530,note_on,0,0,1,,,,,,,,,0,,,72,114
37530,note_on,0,0,1,,,,,,,,,0,,,73,0
37530,note_on,0,0,1,,,,,,,,,0,,,75,114
37560,note_on,0,0,3,,,,,,,,,2,,,60,0
37560,note_on,0,0,3,,,,,,,,,2,,,61,119
37560,note_on,30,0,3,,,,,,,,,2,,,63,0
37560,note_on,0,0,1,,,,,,,,,0,,,73,127
37560,note_on,0,0,3,,,,,,,,,2,,,65,127
37560,note_on,0,0,1,,,,,,,,,0,,,70,127
37560,note_on,30,0,1,,,,,,,,,0,,,75,0
37560,note_on,0,0,1,,,,,,,,,0,,,72,0
37566,note_on,6,0,1,,,,,,,,,0,,,73,0
37566,note_on,6,0,3,,,,,,,,,2,,,65,0
37566,note_on,0,0,1,,,,,,,,,0,,,70,0
37566,note_on,0,0,3,,,,,,,,,2,,,61,0
37620,note_on,0,0,1,,,,,,,,,0,,,91,114
37620,note_on,54,0,3,,,,,,,,,2,,,39,101
37620,note_on,54,0,1,,,,,,,,,0,,,79,114
37620,note_on,0,0,3,,,,,,,,,2,,,51,101
37680,note_on,60,0,1,,,,,,,,,0,,,91,0
37680,note_on,0,0,3,,,,,,,,,2,,,39,0
37680,note_on,0,0,3,,,,,,,,,2,,,58,101
37680,note_on,0,0,3,,,,,,,,,2,,,61,101
37680,note_on,0,0,3,,,,,,,,,2,,,67,101
37680,note_on,60,0,3,,,,,,,,,2,,,51,0
37680,note_on,0,0,1,,,,,,,,,0,,,79,114
37680,note_on,0,0,1,,,,,,,,,0,,,79,0
37680,note_on,0,0,1,,,,,,,,,0,,,73,114
37680,note_on,0,0,1,,,,,,,,,0,,,70,114
37710,note_on,0,0,3,,,,,,,,,2,,,61,0
37710,note_on,0,0,3,,,,,,,,,2,,,63,101
37710,note_on,0,0,3,,,,,,,,,2,,,58,0
37710,note_on,0,0,3,,,,,,,,,2,,,60,101
37710,note_on,30,0,3,,,,,,,,,2,,,67,0
37710,note_on,0,0,1,,,,,,,,,0,,,75,114
37710,note_on,0,0,1,,,,,,,,,0,,,70,0
37710,note_on,0,0,1,,,,,,,,,0,,,72,114
37710,note_on,0,0,1,,,,,,,,,0,,,73,0
37710,note_on,30,0,1,,,,,,,,,0,,,79,0
37740,note_on,0,0,1,,,,,,,,,0,,,73,127
37740,note_on,0,0,1,,,,,,,,,0,,,72,0
37740,note_on,0,0,1,,,,,,,,,0,,,70,127
37740,note_on,30,0,3,,,,,,,,,2,,,63,0
37740,note_on,0,0,3,,,,,,,,,2,,,67,127
37740,note_on,0,0,3,,,,,,,,,2,,,61,119
37740,note_on,0,0,3,,,,,,,,,2,,,60,0
37740,note_on,30,0,1,,,,,,,,,0,,,75,0
37746,note_on,6,0,1,,,,,,,,,0,,,73,0
37746,note_on,6,0,3,,,,,,,,,2,,,67,0
37746,note_on,0,0,3,,,,,,,,,2,,,61,0
37746,note_on,0,0,1,,,,,,,,,0,,,70,0
37800,note_on,0,0,2,,,,,,,,,1,,,84,101
37800,control_change,540,0,2,,,,,,,,,1,64,127,,
37800,note_on,0,0,3,,,,,,,,,2,,,44,101
37800,note_on,0,0,3,,,,,,,,,2,,,32,101
37800,note_on,0,0,1,,,,,,,,,0,,,87,114
37800,control_change,54,0,3,,,,,,,,,2,64,127,,
37800,control_change,54,0,1,,,,,,,,,0,64,127,,
37830,note_on,0,0,1,,,,,,,,,0,,,96,114
37830,note_on,30,0,1,,,,,,,,,0,,,87,0
37834,note_on,4,0,1,,,,,,,,,0,,,96,0
37860,note_on,0,0,2,,,,,,,,,1,,,84,101
37860,note_on,0,0,2,,,,,,,,,1,,,87,101
37860,note_on,60,0,3,,,,,,,,,2,,,44,0
37860,note_on,26,0,1,,,,,,,,,0,,,96,114
37860,note_on,0,0,3,,,,,,,,,2,,,60,101
37860,note_on,0,0,3,,,,,,,,,2,,,56,101
37860,note_on,60,0,2,,,,,,,,,1,,,84,0
37860,note_on,0,0,3,,,,,,,,,2,,,48,101
37860,note_on,0,0,3,,,,,,,,,2,,,51,101
37860,note_on,0,0,3,,,,,,,,,2,,,32,0
37890,note_on,0,0,1,,,,,,,,,0,,,94,114
37890,note_on,30,0,1,,,,,,,,,0,,,96,0
37894,note_on,4,0,1,,,,,,,,,0,,,94,0
37920,note_on,60,0,3,,,,,,,,,2,,,60,0
37920,note_on,0,0,3,,,,,,,,,2,,,60,101
37920,note_on,0,0,3,,,,,,,,,2,,,56,101
37920,note_on,0,0,3,,,,,,,,,2,,,56,0
37920,note_on,0,0,3,,,,,,,,,2,,,51,101
37920,note_on,0,0,3,,,,,,,,,2,,,51,0
37920,note_on,60,0,2,,,,,,,,,1,,,87,0
37920,note_on,0,0,2,,,,,,,,,1,,,87,101
37920,note_on,0,0,2,,,,,,,,,1,,,84,0
37920,note_on,26,0,1,,,,,,,,,0,,,94,114
37920,note_on,0,0,3,,,,,,,,,2,,,48,101
37920,note_on,0,0,3,,,,,,,,,2,,,48,0
37920,note_on,0,0,2,,,,,,,,,1,,,84,101
37950,note_on,0,0,1,,,,,,,,,0,,,92,114
37950,note_on,30,0,1,,,,,,,,,0,,,94,0
37954,note_on,4,0,1,,,,,,,,,0,,,92,0
37980,note_on,0,0,3,,,,,,,,,2,,,56,0
37980,note_on,0,0,3,,,,,,,,,2,,,60,101
37980,note_on,60,0,3,,,,,,,,,2,,,60,0
37980,note_on,60,0,2,,,,,,,,,1,,,87,0
37980,note_on,0,0,3,,,,,,,,,2,,,56,101
37980,note_on,0,0,3,,,,,,,,,2,,,51,101
37980,note_on,26,0,1,,,,,,,,,0,,,87,114
37980,note_on,0,0,3,,,,,,,,,2,,,48,101
37980,note_on,0,0,3,,,,,,,,,2,,,48,0
37980,note_on,0,0,2,,,,,,,,,1,,,84,0
37980,note_on,0,0,2,,,,,,,,,1,,,80,101
37980,note_on,0,0,3,,,,,,,,,2,,,51,0
37980,note_on,0,0,2,,,,,,,,,1,,,84,101
38010,note_on,0,0,1,,,,,,,,,0,,,92,114
38010,note_on,30,0,1,,,,,,,,,0,,,87,0
38014,note_on,4,0,1,,,,,,,,,0,,,92,0
38040,note_on,0,0,2,,,,,,,,,1,,,80,101
38040,note_on,0,0,2,,,,,,,,,1,,,80,0
38040,note_on,60,0,3,,,,,,,,,2,,,60,0
38040,note_on,0,0,2,,,,,,,,,1,,,84,101
38040,note_on,0,0,3,,,,,,,,,2,,,60,101
38040,note_on,0,0,3,,,,,,,,,2,,,56,101
38040,note_on,0,0,3,,,,,,,,,2,,,56,0
38040,note_on,0,0,3,,,,,,,,,2,,,51,101
38040,note_on,0,0,3,,,,,,,,,2,,,48,101
38040,note_on,0,0,3,,,,,,,,,2,,,51,0
38040,note_on,26,0,1,,,,,,,,,0,,,92,114
38040,note_on,60,0,2,,,,,,,,,1,,,84,0
38040,note_on,0,0,3,,,,,,,,,2,,,48,0
38070,note_on,0,0,1,,,,,,,,,0,,,91,114
38070,note_on,30,0,1,,,,,,,,,0,,,92,0
38074,note_on,4,0,1,,,,,,,,,0,,,91,0
38100,note_on,0,0,2,,,,,,,,,1,,,80,101
38100,note_on,0,0,2,,,,,,,,,1,,,80,0
38100,note_on,0,0,3,,,,,,,,,2,,,51,101
38100,note_on,0,0,3,,,,,,,,,2,,,56,0
38100,note_on,0,0,3,,,,,,,,,2,,,51,0
38100,note_on,0,0,3,,,,,,,,,2,,,56,101
38100,note_on,0,0,2,,,,,,,,,1,,,84,101
38100,note_on,60,0,3,,,,,,,,,2,,,60,0
38100,note_on,0,0,3,,,,,,,,,2,,,48,101
38100,note_on,0,0,3,,,,,,,,,2,,,48,0
38100,note_on,0,0,3,,,,,,,,,2,,,60,101
38100,control_change,0,0,3,,,,,,,,,2,64,0,,
38100,control_change,0,0,2,,,,,,,,,1,64,0,,
38100,note_on,26,0,1,,,,,,,,,0,,,91,114
38100,note_on,60,0,2,,,,,,,,,1,,,84,0
38130,note_on,0,0,1,,,,,,,,,0,,,89,114
38130,control_change,0,0,1,,,,,,,,,0,64,0,,
38130,note_on,30,0,1,,,,,,,,,0,,,91,0
38134,note_on,4,0,1,,,,,,,,,0,,,89,0
38160,note_on,0,0,3,,,,,,,,,2,,,39,101
38160,note_on,60,0,2,,,,,,,,,1,,,84,0
38160,note_on,0,0,3,,,,,,,,,2,,,51,0
38160,note_on,0,0,1,,,,,,,,,0,,,87,114
38160,control_change,0,0,3,,,,,,,,,2,64,127,,
38160,control_change,26,0,1,,,,,,,,,0,64,127,,
38160,note_on,0,0,3,,,,,,,,,2,,,48,0
38160,note_on,60,0,3,,,,,,,,,2,,,60,0
38160,note_on,0,0,2,,,,,,,,,1,,,79,101
38160,note_on,0,0,2,,,,,,,,,1,,,80,0
38160,note_on,0,0,3,,,,,,,,,2,,,56,0
38160,note_on,0,0,3,,,,,,,,,2,,,51,101
38160,note_on,0,0,2,,,,,,,,,1,,,85,101
38190,note_on,30,0,1,,,,,,,,,0,,,87,0
38190,note_on,0,0,1,,,,,,,,,0,,,89,114
38194,note_on,4,0,1,,,,,,,,,0,,,89,0
38220,note_on,60,0,3,,,,,,,,,2,,,51,0
38220,note_on,26,0,1,,,,,,,,,0,,,89,114
38220,note_on,0,0,2,,,,,,,,,1,,,79,0
38220,note_on,0,0,2,,,,,,,,,1,,,85,101
38220,note_on,0,0,2,,,,,,,,,1,,,79,101
38220,note_on,0,0,3,,,,,,,,,2,,,39,0
38220,note_on,0,0,3,,,,,,,,,2,,,58,101
38220,note_on,0,0,3,,,,,,,,,2,,,61,101
38220,note_on,0,0,3,,,,,,,,,2,,,67,101
38220,note_on,60,0,2,,,,,,,,,1,,,85,0
38250,note_on,0,0,1,,,,,,,,,0,,,87,114
38250,note_on,30,0,1,,,,,,,,,0,,,89,0
38254,note_on,4,0,1,,,,,,,,,0,,,87,0
38280,note_on,0,0,2,,,,,,,,,1,,,79,101
38280,note_on,60,0,3,,,,,,,,,2,,,67,0
38280,note_on,60,0,2,,,,,,,,,1,,,85,0
38280,note_on,26,0,1,,,,,,,,,0,,,87,114
38280,note_on,0,0,3,,,,,,,,,2,,,61,101
38280,note_on,0,0,3,,,,,,,,,2,,,61,0
38280,note_on,0,0,3,,,,,,,,,2,,,58,101
38280,note_on,0,0,3,,,,,,,,,2,,,58,0
38280,note_on,0,0,3,,,,,,,,,2,,,51,101
38280,note_on,0,0,2,,,,,,,,,1,,,79,0
38280,note_on,0,0,2,,,,,,,,,1,,,85,101
38310,note_on,30,0,1,,,,,,,,,0,,,87,0
38310,note_on,0,0,1,,,,,,,,,0,,,89,114
38314,note_on,4,0,1,,,,,,,,,0,,,89,0
38340,note_on,60,0,2,,,,,,,,,1,,,85,0
38340,note_on,60,0,3,,,,,,,,,2,,,61,0
38340,note_on,0,0,3,,,,,,,,,2,,,67,101
38340,note_on,0,0,3,,,,,,,,,2,,,61,101
38340,note_on,0,0,2,,,,,,,,,1,,,79,101
38340,note_on,0,0,2,,,,,,,,,1,,,85,101
38340,note_on,26,0,1,,,,,,,,,0,,,89,114
38340,note_on,0,0,3,,,,,,,,,2,,,58,101
38340,note_on,0,0,3,,,,,,,,,2,,,58,0
38340,note_on,0,0,3,,,,,,,,,2,,,51,0
38340,note_on,0,0,2,,,,,,,,,1,,,79,0
38370,note_on,30,0,1,,,,,,,,,0,,,89,0
38370,note_on,0,0,1,,,,,,,,,0,,,87,114
38374,note_on,4,0,1,,,,,,,,,0,,,87,0
38400,note_on,0,0,2,,,,,,,,,1,,,79,0
38400,note_on,0,0,2,,,,,,,,,1,,,85,101
38400,note_on,26,0,1,,,,,,,,,0,,,87,114
38400,note_on,0,0,3,,,,,,,,,2,,,58,101
38400,note_on,0,0,3,,,,,,,,,2,,,61,101
38400,note_on,60,0,3,,,,,,,,,2,,,67,0
38400,note_on,0,0,3,,,,,,,,,2,,,61,0
38400,note_on,0,0,3,,,,,,,,,2,,,58,0
38400,note_on,0,0,3,,,,,,,,,2,,,51,101
38400,note_on,60,0,2,,,,,,,,,1,,,85,0
38400,note_on,0,0,2,,,,,,,,,1,,,79,101
38430,note_on,0,0,1,,,,,,,,,0,,,89,114
38430,note_on,30,0,1,,,,,,,,,0,,,87,0
38434,note_on,4,0,1,,,,,,,,,0,,,89,0
38460,note_on,60,0,2,,,,,,,,,1,,,85,0
38460,note_on,60,0,3,,,,,,,,,2,,,61,0
38460,note_on,0,0,3,,,,,,,,,2,,,51,0
38460,note_on,0,0,2,,,,,,,,,1,,,79,101
38460,note_on,0,0,3,,,,,,,,,2,,,67,101
38460,note_on,0,0,2,,,,,,,,,1,,,79,0
38460,note_on,26,0,1,,,,,,,,,0,,,89,114
38460,note_on,0,0,3,,,,,,,,,2,,,61,101
38460,note_on,0,0,3,,,,,,,,,2,,,58,101
38460,control_change,0,0,3,,,,,,,,,2,64,0,,
38460,note_on,0,0,3,,,,,,,,,2,,,58,0
38460,note_on,0,0,2,,,,,,,,,1,,,85,101
38490,control_change,0,0,1,,,,,,,,,0,64,0,,
38490,note_on,0,0,1,,,,,,,,,0,,,87,114
38490,note_on,30,0,1,,,,,,,,,0,,,89,0
38494,note_on,4,0,1,,,,,,,,,0,,,87,0
38520,note_on,0,0,3,,,,,,,,,2,,,58,0
38520,note_on,60,0,3,,,,,,,,,2,,,67,0
38520,control_change,0,0,3,,,,,,,,,2,64,127,,
38520,note_on,0,0,2,,,,,,,,,1,,,79,0
38520,control_change,0,0,2,,,,,,,,,1,64,127,,
38520,note_on,0,0,2,,,,,,,,,1,,,84,101
38520,note_on,0,0,1,,,,,,,,,0,,,87,114
38520,note_on,60,0,2,,,,,,,,,1,,,85,0
38520,note_on,0,0,3,,,,,,,,,2,,,32,119
38520,note_on,0,0,3,,,,,,,,,2,,,44,127
38520,control_change,26,0,1,,,,,,,,,0,64,127,,
38520,note_on,0,0,3,,,,,,,,,2,,,61,0
38526,note_on,0,0,3,,,,,,,,,2,,,32,0
38526,note_on,6,0,3,,,,,,,,,2,,,44,0
38550,note_on,0,0,1,,,,,,,,,0,,,96,114
38550,note_on,30,0,1,,,,,,,,,0,,,87,0
38554,note_on,4,0,1,,,,,,,,,0,,,96,0
38580,note_on,0,0,3,,,,,,,,,2,,,51,119
38580,note_on,0,0,3,,,,,,,,,2,,,56,123
38580,note_on,54,0,3,,,,,,,,,2,,,48,115
38580,note_on,26,0,1,,,,,,,,,0,,,96,114
38580,note_on,0,0,2,,,,,,,,,1,,,87,101
38580,note_on,0,0,2,,,,,,,,,1,,,84,101
38580,note_on,0,0,3,,,,,,,,,2,,,60,127
38580,note_on,60,0,2,,,,,,,,,1,,,84,0
38586,note_on,0,0,3,,,,,,,,,2,,,48,0
38586,note_on,0,0,3,,,,,,,,,2,,,56,0
38586,note_on,6,0,3,,,,,,,,,2,,,60,0
38586,note_on,0,0,3,,,,,,,,,2,,,51,0
38610,note_on,0,0,1,,,,,,,,,0,,,94,114
38610,note_on,30,0,1,,,,,,,,,0,,,96,0
38614,note_on,4,0,1,,,,,,,,,0,,,94,0
38640,note_on,26,0,1,,,,,,,,,0,,,94,114
38640,note_on,0,0,3,,,,,,,,,2,,,60,127
38640,note_on,0,0,3,,,,,,,,,2,,,56,123
38640,note_on,0,0,3,,,,,,,,,2,,,51,119
38640,note_on,0,0,2,,,,,,,,,1,,,87,101
38640,note_on,0,0,2,,,,,,,,,1,,,84,0
38640,note_on,60,0,2,,,,,,,,,1,,,87,0
38640,note_on,54,0,3,,,,,,,,,2,,,48,115
38640,note_on,0,0,2,,,,,,,,,1,,,84,101
38646,note_on,0,0,3,,,,,,,,,2,,,48,0
38646,note_on,6,0,3,,,,,,,,,2,,,60,0
38646,note_on,0,0,3,,,,,,,,,2,,,56,0
38646,note_on,0,0,3,,,,,,,,,2,,,51,0
38670,note_on,0,0,1,,,,,,,,,0,,,92,114
38670,note_on,30,0,1,,,,,,,,,0,,,94,0
38674,note_on,4,0,1,,,,,,,,,0,,,92,0
38700,note_on,0,0,2,,,,,,,,,1,,,80,101
38700,note_on,26,0,1,,,,,,,,,0,,,87,114
38700,note_on,0,0,3,,,,,,,,,2,,,51,119
38700,note_on,0,0,3,,,,,,,,,2,,,56,123
38700,note_on,0,0,2,,,,,,,,,1,,,84,101
38700,note_on,0,0,2,,,,,,,,,1,,,84,0
38700,note_on,0,0,3,,,,,,,,,2,,,60,127
38700,note_on,54,0,3,,,,,,,,,2,,,48,115
38700,note_on,60,0,2,,,,,,,,,1,,,87,0
38706,note_on,6,0,3,,,,,,,,,2,,,60,0
38706,note_on,0,0,3,,,,,,,,,2,,,48,0
38706,note_on,0,0,3,,,,,,,,,2,,,56,0
38706,note_on,0,0,3,,,,,,,,,2,,,51,0
38730,note_on,30,0,1,,,,,,,,,0,,,87,0
38730,note_on,0,0,1,,,,,,,,,0,,,92,114
38734,note_on,4,0,1,,,,,,,,,0,,,92,0
38760,note_on,60,0,2,,,,,,,,,1,,,84,0
38760,note_on,0,0,2,,,,,,,,,1,,,80,101
38760,note_on,54,0,3,,,,,,,,,2,,,48,115
38760,note_on,26,0,1,,,,,,,,,0,,,92,114
38760,note_on,0,0,2,,,,,,,,,1,,,80,0
38760,note_on,0,0,3,,,,,,,,,2,,,60,127
38760,note_on,0,0,2,,,,,,,,,1,,,84,101
38760,note_on,0,0,3,,,,,,,,,2,,,56,123
38760,note_on,0,0,3,,,,,,,,,2,,,51,119
38766,note_on,0,0,3,,,,,,,,,2,,,48,0
38766,note_on,0,0,3,,,,,,,,,2,,,51,0
38766,note_on,0,0,3,,,,,,,,,2,,,56,0
38766,note_on,6,0,3,,,,,,,,,2,,,60,0
38790,note_on,30,0,1,,,,,,,,,0,,,92,0
38790,note_on,0,0,1,,,,,,,,,0,,,91,114
38794,note_on,4,0,1,,,,,,,,,0,,,91,0
38820,note_on,60,0,2,,,,,,,,,1,,,84,0
38820,control_change,0,0,2,,,,,,,,,1,64,0,,
38820,note_on,0,0,2,,,,,,,,,1,,,84,101
38820,note_on,0,0,3,,,,,,,,,2,,,48,115
38820,note_on,26,0,1,,,,,,,,,0,,,91,114
38820,note_on,0,0,2,,,,,,,,,1,,,80,0
38820,control_change,54,0,3,,,,,,,,,2,64,0,,
38820,note_on,0,0,2,,,,,,,,,1,,,80,101
38820,note_on,0,0,3,,,,,,,,,2,,,51,119
38820,note_on,0,0,3,,,,,,,,,2,,,56,123
38820,note_on,0,0,3,,,,,,,,,2,,,60,127
38826,note_on,0,0,3,,,,,,,,,2,,,56,0
38826,note_on,0,0,3,,,,,,,,,2,,,51,0
38826,note_on,6,0,3,,,,,,,,,2,,,60,0
38826,note_on,0,0,3,,,,,,,,,2,,,48,0
38850,control_change,0,0,1,,,,,,,,,0,64,0,,
38850,note_on,30,0,1,,,,,,,,,0,,,91,0
38850,note_on,0,0,1,,,,,,,,,0,,,89,114
38854,note_on,4,0,1,,,,,,,,,0,,,89,0
38880,note_on,0,0,3,,,,,,,,,2,,,39,101
38880,note_on,60,0,2,,,,,,,,,1,,,84,0
38880,control_change,54,0,3,,,,,,,,,2,64,127,,
38880,control_change,26,0,1,,,,,,,,,0,64,127,,
38880,note_on,0,0,2,,,,,,,,,1,,,79,101
38880,note_on,0,0,3,,,,,,,,,2,,,51,101
38880,note_on,0,0,2,,,,,,,,,1,,,80,0
38880,note_on,0,0,2,,,,,,,,,1,,,85,101
38880,note_on,0,0,1,,,,,,,,,0,,,87,114
38910,note_on,0,0,1,,,,,,,,,0,,,89,114
38910,note_on,30,0,1,,,,,,,,,0,,,87,0
38914,note_on,4,0,1,,,,,,,,,0,,,89,0
38940,note_on,60,0,2,,,,,,,,,1,,,85,0
38940,note_on,0,0,2,,,,,,,,,1,,,79,0
38940,note_on,0,0,2,,,,,,,,,1,,,79,101
38940,note_on,0,0,2,,,,,,,,,1,,,85,101
38940,note_on,0,0,3,,,,,,,,,2,,,39,0
38940,note_on,26,0,1,,,,,,,,,0,,,89,114
38940,note_on,0,0,3,,,,,,,,,2,,,58,117
38940,note_on,0,0,3,,,,,,,,,2,,,67,127
38940,note_on,60,0,3,,,,,,,,,2,,,51,0
38940,note_on,0,0,3,,,,,,,,,2,,,61,122
38946,note_on,0,0,3,,,,,,,,,2,,,58,0
38946,note_on,6,0,3,,,,,,,,,2,,,67,0
38946,note_on,0,0,3,,,,,,,,,2,,,61,0
38970,note_on,0,0,1,,,,,,,,,0,,,87,114
38970,note_on,30,0,1,,,,,,,,,0,,,89,0
38974,note_on,4,0,1,,,,,,,,,0,,,87,0
39000,note_on,54,0,3,,,,,,,,,2,,,51,117
39000,note_on,60,0,2,,,,,,,,,1,,,85,0
39000,note_on,0,0,2,,,,,,,,,1,,,79,0
39000,note_on,0,0,2,,,,,,,,,1,,,79,101
39000,note_on,0,0,3,,,,,,,,,2,,,58,122
39000,note_on,0,0,2,,,,,,,,,1,,,85,101
39000,note_on,26,0,1,,,,,,,,,0,,,87,114
39000,note_on,0,0,3,,,,,,,,,2,,,61,127
39006,note_on,0,0,3,,,,,,,,,2,,,51,0
39006,note_on,0,0,3,,,,,,,,,2,,,58,0
39006,note_on,6,0,3,,,,,,,,,2,,,61,0
39030,note_on,0,0,1,,,,,,,,,0,,,89,114
39030,note_on,30,0,1,,,,,,,,,0,,,87,0
39034,note_on,4,0,1,,,,,,,,,0,,,89,0
39060,note_on,0,0,2,,,,,,,,,1,,,79,0
39060,note_on,0,0,2,,,,,,,,,1,,,79,101
39060,note_on,0,0,3,,,,,,,,,2,,,61,122
39060,note_on,0,0,3,,,,,,,,,2,,,67,127
39060,note_on,54,0,3,,,,,,,,,2,,,58,117
39060,note_on,60,0,2,,,,,,,,,1,,,85,0
39060,note_on,26,0,1,,,,,,,,,0,,,89,114
39060,note_on,0,0,2,,,,,,,,,1,,,85,101
39066,note_on,6,0,3,,,,,,,,,2,,,67,0
39066,note_on,0,0,3,,,,,,,,,2,,,58,0
39066,note_on,0,0,3,,,,,,,,,2,,,61,0
39090,note_on,0,0,1,,,,,,,,,0,,,87,114
39090,note_on,30,0,1,,,,,,,,,0,,,89,0
39094,note_on,4,0,1,,,,,,,,,0,,,87,0
39120,note_on,60,0,2,,,,,,,,,1,,,85,0
39120,note_on,0,0,3,,,,,,,,,2,,,58,101
39120,note_on,0,0,2,,,,,,,,,1,,,85,101
39120,note_on,0,0,2,,,,,,,,,1,,,79,101
39120,note_on,0,0,3,,,,,,,,,2,,,61,101
39120,note_on,0,0,2,,,,,,,,,1,,,79,0
39120,note_on,26,0,1,,,,,,,,,0,,,87,114
39120,note_on,54,0,3,,,,,,,,,2,,,51,101
39126,note_on,6,0,3,,,,,,,,,2,,,61,0
39126,note_on,0,0,3,,,,,,,,,2,,,51,0
39126,note_on,0,0,3,,,,,,,,,2,,,58,0
39150,note_on,0,0,1,,,,,,,,,0,,,89,114
39150,note_on,30,0,1,,,,,,,,,0,,,87,0
39154,note_on,4,0,1,,,,,,,,,0,,,89,0
39180,note_on,26,0,1,,,,,,,,,0,,,89,114
39180,note_on,0,0,3,,,,,,,,,2,,,58,117
39180,note_on,0,0,3,,,,,,,,,2,,,67,127
39180,note_on,0,0,2,,,,,,,,,1,,,85,101
39180,note_on,0,0,3,,,,,,,,,2,,,61,122
39180,note_on,0,0,2,,,,,,,,,1,,,79,0
39180,note_on,60,0,2,,,,,,,,,1,,,85,0
39180,note_on,0,0,2,,,,,,,,,1,,,79,101
39180,control_change,54,0,3,,,,,,,,,2,64,0,,
39186,note_on,0,0,3,,,,,,,,,2,,,61,0
39186,note_on,6,0,3,,,,,,,,,2,,,67,0
39186,note_on,0,0,3,,,,,,,,,2,,,58,0
39210,note_on,30,0,1,,,,,,,,,0,,,89,0
39210,control_change,0,0,1,,,,,,,,,0,64,0,,
39210,note_on,0,0,1,,,,,,,,,0,,,87,114
39214,note_on,4,0,1,,,,,,,,,0,,,87,0
39240,note_on,60,0,2,,,,,,,,,1,,,85,0
39240,note_on,0,0,2,,,,,,,,,1,,,79,0
39240,note_on,0,0,3,,,,,,,,,2,,,32,93
39240,control_change,54,0,3,,,,,,,,,2,64,127,,
39240,note_on,0,0,3,,,,,,,,,2,,,44,101
39246,note_on,0,0,3,,,,,,,,,2,,,32,0
39246,note_on,6,0,3,,,,,,,,,2,,,44,0
39300,control_change,86,0,1,,,,,,,,,0,64,127,,
39300,note_on,0,0,3,,,,,,,,,2,,,51,96
39300,note_on,0,0,3,,,,,,,,,2,,,56,101
39300,note_on,0,0,1,,,,,,,,,0,,,60,88
39300,note_on,0,0,1,,,,,,,,,0,,,63,88
39300,note_on,54,0,3,,,,,,,,,2,,,48,91
39300,note_on,0,0,1,,,,,,,,,0,,,68,88
39306,note_on,0,0,3,,,,,,,,,2,,,48,0
39306,note_on,0,0,3,,,,,,,,,2,,,51,0
39306,note_on,6,0,3,,,,,,,,,2,,,56,0
39330,note_on,0,0,1,,,,,,,,,0,,,63,0
39330,note_on,0,0,1,,,,,,,,,0,,,60,0
39330,note_on,0,0,1,,,,,,,,,0,,,72,88
39330,note_on,30,0,1,,,,,,,,,0,,,68,0
39334,note_on,4,0,1,,,,,,,,,0,,,72,0
39360,note_on,0,0,1,,,,,,,,,0,,,72,88
39360,note_on,26,0,1,,,,,,,,,0,,,63,88
39360,note_on,0,0,3,,,,,,,,,2,,,48,96
39360,note_on,0,0,3,,,,,,,,,2,,,51,101
39360,note_on,0,0,1,,,,,,,,,0,,,68,88
39360,note_on,54,0,3,,,,,,,,,2,,,44,91
39366,note_on,6,0,3,,,,,,,,,2,,,51,0
39366,note_on,0,0,3,,,,,,,,,2,,,44,0
39366,note_on,0,0,3,,,,,,,,,2,,,48,0
39390,note_on,0,0,1,,,,,,,,,0,,,68,0
39390,note_on,30,0,1,,,,,,,,,0,,,72,0
39390,note_on,0,0,1,,,,,,,,,0,,,60,88
39390,note_on,0,0,1,,,,,,,,,0,,,63,0
39394,note_on,4,0,1,,,,,,,,,0,,,60,0
39420,note_on,54,0,3,,,,,,,,,2,,,48,91
39420,note_on,0,0,1,,,,,,,,,0,,,68,88
39420,note_on,0,0,3,,,,,,,,,2,,,56,101
39420,note_on,0,0,3,,,,,,,,,2,,,51,96
39420,note_on,0,0,1,,,,,,,,,0,,,63,88
39420,note_on,26,0,1,,,,,,,,,0,,,60,88
39426,note_on,6,0,3,,,,,,,,,2,,,56,0
39426,note_on,0,0,3,,,,,,,,,2,,,48,0
39426,note_on,0,0,3,,,,,,,,,2,,,51,0
39450,note_on,0,0,1,,,,,,,,,0,,,63,0
39450,note_on,0,0,1,,,,,,,,,0,,,72,88
39450,note_on,0,0,1,,,,,,,,,0,,,60,0
39450,note_on,30,0,1,,,,,,,,,0,,,68,0
39454,note_on,4,0,1,,,,,,,,,0,,,72,0
39480,note_on,0,0,3,,,,,,,,,2,,,51,101
39480,note_on,0,0,1,,,,,,,,,0,,,72,88
39480,note_on,0,0,1,,,,,,,,,0,,,68,88
39480,note_on,54,0,3,,,,,,,,,2,,,44,91
39480,note_on,26,0,1,,,,,,,,,0,,,63,88
39480,note_on,0,0,3,,,,,,,,,2,,,48,96
39486,note_on,0,0,3,,,,,,,,,2,,,44,0
39486,note_on,0,0,3,,,,,,,,,2,,,48,0
39486,note_on,6,0,3,,,,,,,,,2,,,51,0
39510,note_on,30,0,1,,,,,,,,,0,,,72,0
39510,note_on,0,0,1,,,,,,,,,0,,,68,0
39510,note_on,0,0,1,,,,,,,,,0,,,63,0
39510,note_on,0,0,1,,,,,,,,,0,,,60,88
39514,note_on,4,0,1,,,,,,,,,0,,,60,0
39540,note_on,0,0,3,,,,,,,,,2,,,48,91
39540,note_on,0,0,3,,,,,,,,,2,,,51,96
39540,control_change,54,0,3,,,,,,,,,2,64,0,,
39540,note_on,26,0,1,,,,,,,,,0,,,60,88
39540,note_on,0,0,1,,,,,,,,,0,,,68,88
39540,note_on,0,0,3,,,,,,,,,2,,,56,101
39540,note_on,0,0,1,,,,,,,,,0,,,63,88
39546,note_on,6,0,3,,,,,,,,,2,,,56,0
39546,note_on,0,0,3,,,,,,,,,2,,,48,0
39546,note_on,0,0,3,,,,,,,,,2,,,51,0
39570,control_change,0,0,1,,,,,,,,,0,64,0,,
39570,note_on,0,0,1,,,,,,,,,0,,,72,88
39570,note_on,0,0,1,,,,,,,,,0,,,63,0
39570,note_on,30,0,1,,,,,,,,,0,,,68,0
39570,note_on,0,0,1,,,,,,,,,0,,,60,0
39574,note_on,4,0,1,,,,,,,,,0,,,72,0
39600,note_on,0,0,3,,,,,,,,,2,,,44,114
39600,note_on,0,0,3,,,,,,,,,2,,,32,106
39600,control_change,54,0,3,,,,,,,,,2,64,127,,
39606,note_on,6,0,3,,,,,,,,,2,,,44,0
39606,note_on,0,0,3,,,,,,,,,2,,,32,0
39660,note_on,0,0,3,,,,,,,,,2,,,56,109
39660,note_on,0,0,3,,,,,,,,,2,,,60,114
39660,note_on,0,0,1,,,,,,,,,0,,,72,101
39660,control_change,86,0,1,,,,,,,,,0,64,127,,
39660,note_on,0,0,1,,,,,,,,,0,,,63,101
39660,note_on,0,0,1,,,,,,,,,0,,,68,101
39660,note_on,54,0,3,,,,,,,,,2,,,51,104
39666,note_on,6,0,3,,,,,,,,,2,,,60,0
39666,note_on,0,0,3,,,,,,,,,2,,,51,0
39666,note_on,0,0,3,,,,,,,,,2,,,56,0
39690,note_on,30,0,1,,,,,,,,,0,,,72,0
39690,note_on,0,0,1,,,,,,,,,0,,,68,0
39690,note_on,0,0,1,,,,,,,,,0,,,63,0
39690,note_on,0,0,1,,,,,,,,,0,,,75,101
39694,note_on,4,0,1,,,,,,,,,0,,,75,0
39720,note_on,0,0,3,,,,,,,,,2,,,51,109
39720,note_on,0,0,3,,,,,,,,,2,,,56,114
39720,note_on,0,0,1,,,,,,,,,0,,,72,101
39720,note_on,0,0,1,,,,,,,,,0,,,75,101
39720,note_on,54,0,3,,,,,,,,,2,,,48,104
39720,note_on,26,0,1,,,,,,,,,0,,,68,101
39726,note_on,0,0,3,,,,,,,,,2,,,51,0
39726,note_on,0,0,3,,,,,,,,,2,,,48,0
39726,note_on,6,0,3,,,,,,,,,2,,,56,0
39750,note_on,30,0,1,,,,,,,,,0,,,75,0
39750,note_on,0,0,1,,,,,,,,,0,,,63,101
39750,note_on,0,0,1,,,,,,,,,0,,,68,0
39750,note_on,0,0,1,,,,,,,,,0,,,72,0
39754,note_on,4,0,1,,,,,,,,,0,,,63,0
39780,note_on,0,0,1,,,,,,,,,0,,,72,101
39780,note_on,0,0,1,,,,,,,,,0,,,68,101
39780,note_on,26,0,1,,,,,,,,,0,,,63,101
39780,note_on,0,0,3,,,,,,,,,2,,,56,109
39780,note_on,54,0,3,,,,,,,,,2,,,51,104
39780,note_on,0,0,3,,,,,,,,,2,,,60,114
39786,note_on,6,0,3,,,,,,,,,2,,,60,0
39786,note_on,0,0,3,,,,,,,,,2,,,56,0
39786,note_on,0,0,3,,,,,,,,,2,,,51,0
39810,note_on,0,0,1,,,,,,,,,0,,,75,101
39810,note_on,0,0,1,,,,,,,,,0,,,68,0
39810,note_on,0,0,1,,,,,,,,,0,,,63,0
39810,note_on,30,0,1,,,,,,,,,0,,,72,0
39814,note_on,4,0,1,,,,,,,,,0,,,75,0
39840,note_on,0,0,1,,,,,,,,,0,,,75,101
39840,note_on,26,0,1,,,,,,,,,0,,,68,101
39840,note_on,54,0,3,,,,,,,,,2,,,48,104
39840,note_on,0,0,3,,,,,,,,,2,,,51,109
39840,note_on,0,0,3,,,,,,,,,2,,,56,114
39840,note_on,0,0,1,,,,,,,,,0,,,72,101
39846,note_on,0,0,3,,,,,,,,,2,,,51,0
39846,note_on,0,0,3,,,,,,,,,2,,,48,0
39846,note_on,6,0,3,,,,,,,,,2,,,56,0
39870,note_on,30,0,1,,,,,,,,,0,,,75,0
39870,note_on,0,0,1,,,,,,,,,0,,,63,101
39870,note_on,0,0,1,,,,,,,,,0,,,68,0
39870,note_on,0,0,1,,,,,,,,,0,,,72,0
39874,note_on,4,0,1,,,,,,,,,0,,,63,0
39900,note_on,26,0,1,,,,,,,,,0,,,63,101
39900,note_on,0,0,1,,,,,,,,,0,,,68,101
39900,note_on,0,0,1,,,,,,,,,0,,,72,101
39900,note_on,0,0,3,,,,,,,,,2,,,56,109
39900,control_change,54,0,3,,,,,,,,,2,64,0,,
39900,note_on,0,0,3,,,,,,,,,2,,,51,104
39900,note_on,0,0,3,,,,,,,,,2,,,60,114
39906,note_on,0,0,3,,,,,,,,,2,,,51,0
39906,note_on,6,0,3,,,,,,,,,2,,,60,0
39906,note_on,0,0,3,,,,,,,,,2,,,56,0
39930,note_on,0,0,1,,,,,,,,,0,,,63,0
39930,note_on,0,0,1,,,,,,,,,0,,,68,0
39930,note_on,0,0,1,,,,,,,,,0,,,75,101
39930,note_on,30,0,1,,,,,,,,,0,,,72,0
39930,control_change,0,0,1,,,,,,,,,0,64,0,,
39934,note_on,4,0,1,,,,,,,,,0,,,75,0
39960,note_on,0,0,3,,,,,,,,,2,,,44,127
39960,control_change,54,0,3,,,,,,,,,2,64,127,,
39960,control_change,26,0,1,,,,,,,,,0,64,127,,
39960,note_on,0,0,3,,,,,,,,,2,,,32,119
39966,note_on,0,0,3,,,,,,,,,2,,,32,0
39966,note_on,6,0,3,,,,,,,,,2,,,44,0
40020,note_on,0,0,1,,,,,,,,,0,,,75,114
40020,note_on,0,0,1,,,,,,,,,0,,,72,114
40020,note_on,0,0,3,,,,,,,,,2,,,63,127
40020,note_on,0,0,3,,,,,,,,,2,,,60,122
40020,note_on,60,0,1,,,,,,,,,0,,,68,114
40020,note_on,54,0,3,,,,,,,,,2,,,56,117
40026,note_on,6,0,3,,,,,,,,,2,,,63,0
40026,note_on,0,0,3,,,,,,,,,2,,,60,0
40026,note_on,0,0,3,,,,,,,,,2,,,56,0
40050,note_on,0,0,1,,,,,,,,,0,,,80,114
40050,note_on,0,0,1,,,,,,,,,0,,,72,0
40050,note_on,0,0,1,,,,,,,,,0,,,68,0
40050,note_on,30,0,1,,,,,,,,,0,,,75,0
40054,note_on,4,0,1,,,,,,,,,0,,,80,0
40080,note_on,0,0,1,,,,,,,,,0,,,80,114
40080,note_on,0,0,1,,,,,,,,,0,,,75,114
40080,note_on,54,0,3,,,,,,,,,2,,,51,117
40080,note_on,0,0,3,,,,,,,,,2,,,56,122
40080,note_on,0,0,3,,,,,,,,,2,,,60,127
40080,note_on,26,0,1,,,,,,,,,0,,,72,114
40086,note_on,6,0,3,,,,,,,,,2,,,60,0
40086,note_on,0,0,3,,,,,,,,,2,,,51,0
40086,note_on,0,0,3,,,,,,,,,2,,,56,0
40110,note_on,30,0,1,,,,,,,,,0,,,80,0
40110,note_on,0,0,1,,,,,,,,,0,,,68,114
40110,note_on,0,0,1,,,,,,,,,0,,,72,0
40110,note_on,0,0,1,,,,,,,,,0,,,75,0
40114,note_on,4,0,1,,,,,,,,,0,,,68,0
40140,note_on,0,0,3,,,,,,,,,2,,,63,127
40140,note_on,0,0,1,,,,,,,,,0,,,80,114
40140,note_on,0,0,1,,,,,,,,,0,,,75,114
40140,note_on,0,0,3,,,,,,,,,2,,,60,122
40140,note_on,26,0,1,,,,,,,,,0,,,72,114
40140,note_on,54,0,3,,,,,,,,,2,,,56,117
40146,note_on,6,0,3,,,,,,,,,2,,,63,0
40146,note_on,0,0,3,,,,,,,,,2,,,56,0
40146,note_on,0,0,3,,,,,,,,,2,,,60,0
40170,note_on,0,0,1,,,,,,,,,0,,,75,0
40170,note_on,30,0,1,,,,,,,,,0,,,80,0
40170,note_on,0,0,1,,,,,,,,,0,,,72,0
40170,note_on,0,0,1,,,,,,,,,0,,,84,114
40174,note_on,4,0,1,,,,,,,,,0,,,84,0
40200,note_on,54,0,3,,,,,,,,,2,,,60,117
40200,note_on,0,0,3,,,,,,,,,2,,,68,127
40200,note_on,26,0,1,,,,,,,,,0,,,75,114
40200,note_on,0,0,1,,,,,,,,,0,,,80,114
40200,note_on,0,0,3,,,,,,,,,2,,,63,122
40200,note_on,0,0,1,,,,,,,,,0,,,84,114
40206,note_on,6,0,3,,,,,,,,,2,,,68,0
40206,note_on,0,0,3,,,,,,,,,2,,,63,0
40206,note_on,0,0,3,,,,,,,,,2,,,60,0
40230,note_on,0,0,1,,,,,,,,,0,,,72,114
40230,note_on,0,0,1,,,,,,,,,0,,,75,0
40230,note_on,0,0,1,,,,,,,,,0,,,80,0
40230,note_on,30,0,1,,,,,,,,,0,,,84,0
40234,note_on,4,0,1,,,,,,,,,0,,,72,0
40260,note_on,0,0,3,,,,,,,,,2,,,63,122
40260,note_on,0,0,3,,,,,,,,,2,,,68,127
40260,note_on,26,0,1,,,,,,,,,0,,,75,114
40260,note_on,0,0,1,,,,,,,,,0,,,80,114
40260,note_on,0,0,1,,,,,,,,,0,,,84,114
40260,note_on,54,0,3,,,,,,,,,2,,,60,117
40266,note_on,0,0,3,,,,,,,,,2,,,60,0
40266,note_on,6,0,3,,,,,,,,,2,,,68,0
40266,note_on,0,0,3,,,,,,,,,2,,,63,0
40290,note_on,30,0,1,,,,,,,,,0,,,84,0
40290,note_on,0,0,1,,,,,,,,,0,,,75,0
40290,note_on,0,0,1,,,,,,,,,0,,,87,114
40290,note_on,0,0,1,,,,,,,,,0,,,80,0
40294,note_on,4,0,1,,,,,,,,,0,,,87,0
40320,note_on,0,0,3,,,,,,,,,2,,,68,122
40320,note_on,0,0,1,,,,,,,,,0,,,87,114
40320,note_on,0,0,3,,,,,,,,,2,,,72,127
40320,note_on,26,0,1,,,,,,,,,0,,,80,114
40320,note_on,54,0,3,,,,,,,,,2,,,63,117
40320,note_on,0,0,1,,,,,,,,,0,,,84,114
40326,note_on,6,0,3,,,,,,,,,2,,,72,0
40326,note_on,0,0,3,,,,,,,,,2,,,68,0
40326,note_on,0,0,3,,,,,,,,,2,,,63,0
40350,note_on,30,0,1,,,,,,,,,0,,,87,0
40350,note_on,0,0,1,,,,,,,,,0,,,75,114
40350,note_on,0,0,1,,,,,,,,,0,,,84,0
40350,note_on,0,0,1,,,,,,,,,0,,,80,0
40354,note_on,4,0,1,,,,,,,,,0,,,75,0
40380,note_on,0,0,1,,,,,,,,,0,,,87,114
40380,note_on,0,0,1,,,,,,,,,0,,,84,114
40380,note_on,26,0,1,,,,,,,,,0,,,80,114
40380,note_on,54,0,3,,,,,,,,,2,,,63,117
40380,note_on,0,0,3,,,,,,,,,2,,,68,122
40380,note_on,0,0,3,,,,,,,,,2,,,72,127
40386,note_on,6,0,3,,,,,,,,,2,,,72,0
40386,note_on,0,0,3,,,,,,,,,2,,,63,0
40386,note_on,0,0,3,,,,,,,,,2,,,68,0
40410,note_on,0,0,1,,,,,,,,,0,,,92,114
40410,note_on,0,0,1,,,,,,,,,0,,,84,0
40410,note_on,0,0,1,,,,,,,,,0,,,80,0
40410,note_on,30,0,1,,,,,,,,,0,,,87,0
40414,note_on,4,0,1,,,,,,,,,0,,,92,0
40440,note_on,0,0,3,,,,,,,,,2,,,75,127
40440,note_on,54,0,3,,,,,,,,,2,,,68,117
40440,note_on,26,0,1,,,,,,,,,0,,,84,114
40440,note_on,0,0,3,,,,,,,,,2,,,72,122
40440,note_on,0,0,1,,,,,,,,,0,,,92,114
40440,note_on,0,0,1,,,,,,,,,0,,,87,114
40446,note_on,6,0,3,,,,,,,,,2,,,75,0
40446,note_on,0,0,3,,,,,,,,,2,,,72,0
40446,note_on,0,0,3,,,,,,,,,2,,,68,0
40470,note_on,0,0,1,,,,,,,,,0,,,80,114
40470,note_on,0,0,1,,,,,,,,,0,,,87,0
40470,note_on,0,0,1,,,,,,,,,0,,,84,0
40470,note_on,30,0,1,,,,,,,,,0,,,92,0
40474,note_on,4,0,1,,,,,,,,,0,,,80,0
40500,note_on,0,0,1,,,,,,,,,0,,,87,114
40500,note_on,0,0,1,,,,,,,,,0,,,92,114
40500,note_on,0,0,3,,,,,,,,,2,,,75,127
40500,note_on,0,0,3,,,,,,,,,2,,,72,122
40500,note_on,54,0,3,,,,,,,,,2,,,68,117
40500,note_on,26,0,1,,,,,,,,,0,,,84,114
40506,note_on,0,0,3,,,,,,,,,2,,,72,0
40506,note_on,0,0,3,,,,,,,,,2,,,68,0
40506,note_on,6,0,3,,,,,,,,,2,,,75,0
40530,note_on,0,0,1,,,,,,,,,0,,,96,114
40530,note_on,30,0,1,,,,,,,,,0,,,92,0
40530,note_on,0,0,1,,,,,,,,,0,,,84,0
40530,note_on,0,0,1,,,,,,,,,0,,,87,0
40534,note_on,4,0,1,,,,,,,,,0,,,96,0
40560,note_on,54,0,3,,,,,,,,,2,,,72,117
40560,note_on,0,0,1,,,,,,,,,0,,,92,114
40560,note_on,26,0,1,,,,,,,,,0,,,87,114
40560,note_on,0,0,3,,,,,,,,,2,,,75,122
40560,note_on,0,0,3,,,,,,,,,2,,,80,127
40560,note_on,0,0,1,,,,,,,,,0,,,96,114
40566,note_on,6,0,3,,,,,,,,,2,,,80,0
40566,note_on,0,0,3,,,,,,,,,2,,,75,0
40566,note_on,0,0,3,,,,,,,,,2,,,72,0
40590,note_on,30,0,1,,,,,,,,,0,,,96,0
40590,note_on,0,0,1,,,,,,,,,0,,,84,114
40590,note_on,0,0,1,,,,,,,,,0,,,87,0
40590,note_on,0,0,1,,,,,,,,,0,,,92,0
40594,note_on,4,0,1,,,,,,,,,0,,,84,0
40620,note_on,26,0,1,,,,,,,,,0,,,87,114
40620,note_on,0,0,3,,,,,,,,,2,,,75,127
40620,note_on,54,0,3,,,,,,,,,2,,,68,117
40620,note_on,0,0,1,,,,,,,,,0,,,96,114
40620,note_on,0,0,1,,,,,,,,,0,,,92,114
40620,note_on,0,0,3,,,,,,,,,2,,,72,122
40626,note_on,0,0,3,,,,,,,,,2,,,72,0
40626,note_on,0,0,3,,,,,,,,,2,,,68,0
40626,note_on,6,0,3,,,,,,,,,2,,,75,0
40650,note_on,0,0,1,,,,,,,,,0,,,87,0
40650,note_on,0,0,1,,,,,,,,,0,,,92,0
40650,note_on,0,0,1,,,,,,,,,0,,,99,114
40650,note_on,30,0,1,,,,,,,,,0,,,96,0
40654,note_on,4,0,1,,,,,,,,,0,,,99,0
40680,note_on,54,0,3,,,,,,,,,2,,,72,117
40680,note_on,0,0,3,,,,,,,,,2,,,75,122
40680,note_on,0,0,3,,,,,,,,,2,,,80,127
40680,note_on,0,0,1,,,,,,,,,0,,,96,114
40680,note_on,0,0,1,,,,,,,,,0,,,92,114
40680,note_on,26,0,1,,,,,,,,,0,,,87,114
40686,note_on,0,0,3,,,,,,,,,2,,,75,0
40686,note_on,0,0,3,,,,,,,,,2,,,72,0
40686,note_on,6,0,3,,,,,,,,,2,,,80,0
40710,note_on,0,0,1,,,,,,,,,0,,,84,114
40710,note_on,30,0,1,,,,,,,,,0,,,96,0
40710,note_on,0,0,1,,,,,,,,,0,,,92,0
40710,note_on,0,0,1,,,,,,,,,0,,,87,0
40714,note_on,4,0,1,,,,,,,,,0,,,84,0
40740,note_on,0,0,3,,,,,,,,,2,,,75,127
40740,note_on,0,0,3,,,,,,,,,2,,,72,122
40740,note_on,0,0,1,,,,,,,,,0,,,92,114
40740,note_on,54,0,3,,,,,,,,,2,,,68,117
40740,note_on,0,0,1,,,,,,,,,0,,,87,114
40740,note_on,26,0,1,,,,,,,,,0,,,84,114
40746,note_on,6,0,3,,,,,,,,,2,,,75,0
40746,note_on,0,0,3,,,,,,,,,2,,,72,0
40746,note_on,0,0,3,,,,,,,,,2,,,68,0
40770,note_on,0,0,1,,,,,,,,,0,,,84,0
40770,note_on,0,0,1,,,,,,,,,0,,,87,0
40770,note_on,0,0,1,,,,,,,,,0,,,96,114
40770,note_on,30,0,1,,,,,,,,,0,,,92,0
40774,note_on,4,0,1,,,,,,,,,0,,,96,0
40800,note_on,0,0,3,,,,,,,,,2,,,80,127
40800,note_on,26,0,1,,,,,,,,,0,,,87,114
40800,note_on,54,0,3,,,,,,,,,2,,,72,117
40800,note_on,0,0,1,,,,,,,,,0,,,96,114
40800,note_on,0,0,1,,,,,,,,,0,,,92,114
40800,note_on,0,0,3,,,,,,,,,2,,,75,122
40806,note_on,0,0,3,,,,,,,,,2,,,72,0
40806,note_on,6,0,3,,,,,,,,,2,,,80,0
40806,note_on,0,0,3,,,,,,,,,2,,,75,0
40830,note_on,0,0,1,,,,,,,,,0,,,87,0
40830,note_on,0,0,1,,,,,,,,,0,,,84,114
40830,note_on,30,0,1,,,,,,,,,0,,,96,0
40830,note_on,0,0,1,,,,,,,,,0,,,92,0
40834,note_on,4,0,1,,,,,,,,,0,,,84,0
40860,note_on,54,0,3,,,,,,,,,2,,,68,117
40860,note_on,0,0,3,,,,,,,,,2,,,75,127
40860,note_on,0,0,3,,,,,,,,,2,,,72,122
40860,note_on,26,0,1,,,,,,,,,0,,,84,114
40860,note_on,0,0,1,,,,,,,,,0,,,87,114
40860,note_on,0,0,1,,,,,,,,,0,,,92,114
40866,note_on,0,0,3,,,,,,,,,2,,,68,0
40866,note_on,0,0,3,,,,,,,,,2,,,72,0
40866,note_on,6,0,3,,,,,,,,,2,,,75,0
40890,note_on,0,0,1,,,,,,,,,0,,,84,0
40890,note_on,30,0,1,,,,,,,,,0,,,92,0
40890,note_on,0,0,1,,,,,,,,,0,,,87,0
40890,note_on,0,0,1,,,,,,,,,0,,,96,114
40894,note_on,4,0,1,,,,,,,,,0,,,96,0
40920,note_on,26,0,1,,,,,,,,,0,,,87,114
40920,note_on,54,0,3,,,,,,,,,2,,,72,117
40920,note_on,0,0,3,,,,,,,,,2,,,75,122
40920,note_on,0,0,3,,,,,,,,,2,,,80,127
40920,note_on,0,0,1,,,,,,,,,0,,,96,114
40920,note_on,0,0,1,,,,,,,,,0,,,92,114
40926,note_on,6,0,3,,,,,,,,,2,,,80,0
40926,note_on,0,0,3,,,,,,,,,2,,,72,0
40926,note_on,0,0,3,,,,,,,,,2,,,75,0
40950,note_on,0,0,1,,,,,,,,,0,,,92,0
40950,note_on,0,0,1,,,,,,,,,0,,,87,0
40950,note_on,0,0,1,,,,,,,,,0,,,84,114
40950,note_on,30,0,1,,,,,,,,,0,,,96,0
40954,note_on,4,0,1,,,,,,,,,0,,,84,0
40980,note_on,26,0,1,,,,,,,,,0,,,84,114
40980,note_on,0,0,1,,,,,,,,,0,,,92,114
40980,note_on,0,0,1,,,,,,,,,0,,,87,114
40980,note_on,54,0,3,,,,,,,,,2,,,68,117
40980,note_on,0,0,3,,,,,,,,,2,,,75,127
40980,note_on,0,0,3,,,,,,,,,2,,,72,122
40986,note_on,6,0,3,,,,,,,,,2,,,75,0
40986,note_on,0,0,3,,,,,,,,,2,,,72,0
40986,note_on,0,0,3,,,,,,,,,2,,,68,0
41010,note_on,0,0,1,,,,,,,,,0,,,96,114
41010,note_on,0,0,1,,,,,,,,,0,,,87,0
41010,note_on,0,0,1,,,,,,,,,0,,,84,0
41010,note_on,30,0,1,,,,,,,,,0,,,92,0
41014,note_on,4,0,1,,,,,,,,,0,,,96,0
41040,note_on,0,0,1,,,,,,,,,0,,,87,114
41040,note_on,26,0,1,,,,,,,,,0,,,84,114
41040,note_on,0,0,3,,,,,,,,,2,,,80,101
41040,note_on,54,0,3,,,,,,,,,2,,,75,101
41070,note_on,0,0,1,,,,,,,,,0,,,84,0
41070,note_on,0,0,1,,,,,,,,,0,,,92,114
41070,note_on,0,0,1,,,,,,,,,0,,,96,114
41070,note_on,0,0,3,,,,,,,,,2,,,75,0
41070,note_on,0,0,3,,,,,,,,,2,,,72,101
41070,note_on,30,0,1,,,,,,,,,0,,,87,0
41070,note_on,0,0,3,,,,,,,,,2,,,68,101
41070,note_on,30,0,3,,,,,,,,,2,,,80,0
41100,note_on,0,0,1,,,,,,,,,0,,,87,114
41100,note_on,30,0,3,,,,,,,,,2,,,72,0
41100,note_on,0,0,1,,,,,,,,,0,,,84,114
41100,note_on,30,0,1,,,,,,,,,0,,,96,0
41100,note_on,0,0,1,,,,,,,,,0,,,92,0
41100,note_on,0,0,3,,,,,,,,,2,,,80,101
41100,note_on,0,0,3,,,,,,,,,2,,,75,101
41100,note_on,0,0,3,,,,,,,,,2,,,68,0
41130,note_on,0,0,3,,,,,,,,,2,,,75,0
41130,note_on,0,0,3,,,,,,,,,2,,,72,101
41130,note_on,0,0,3,,,,,,,,,2,,,68,101
41130,note_on,0,0,1,,,,,,,,,0,,,96,114
41130,note_on,0,0,1,,,,,,,,,0,,,92,114
41130,note_on,30,0,1,,,,,,,,,0,,,87,0
41130,note_on,0,0,1,,,,,,,,,0,,,84,0
41130,note_on,30,0,3,,,,,,,,,2,,,80,0
41160,note_on,30,0,3,,,,,,,,,2,,,72,0
41160,note_on,0,0,3,,,,,,,,,2,,,68,0
41160,note_on,0,0,3,,,,,,,,,2,,,75,101
41160,note_on,0,0,3,,,,,,,,,2,,,80,101
41160,note_on,30,0,1,,,,,,,,,0,,,96,0
41160,note_on,0,0,1,,,,,,,,,0,,,84,114
41160,note_on,0,0,1,,,,,,,,,0,,,87,114
41160,note_on,0,0,1,,,,,,,,,0,,,92,0
41190,note_on,0,0,1,,,,,,,,,0,,,92,114
41190,note_on,0,0,1,,,,,,,,,0,,,96,114
41190,note_on,0,0,1,,,,,,,,,0,,,84,0
41190,note_on,0,0,3,,,,,,,,,2,,,72,101
41190,note_on,0,0,3,,,,,,,,,2,,,75,0
41190,note_on,0,0,3,,,,,,,,,2,,,68,101
41190,note_on,30,0,3,,,,,,,,,2,,,80,0
41190,note_on,30,0,1,,,,,,,,,0,,,87,0
41220,note_on,30,0,1,,,,,,,,,0,,,96,0
41220,note_on,0,0,3,,,,,,,,,2,,,80,101
41220,note_on,0,0,3,,,,,,,,,2,,,75,101
41220,note_on,0,0,3,,,,,,,,,2,,,68,0
41220,note_on,0,0,1,,,,,,,,,0,,,92,0
41220,note_on,0,0,1,,,,,,,,,0,,,87,114
41220,note_on,30,0,3,,,,,,,,,2,,,72,0
41220,note_on,0,0,1,,,,,,,,,0,,,84,114
41250,note_on,0,0,1,,,,,,,,,0,,,96,114
41250,note_on,0,0,1,,,,,,,,,0,,,92,114
41250,note_on,0,0,1,,,,,,,,,0,,,84,0
41250,note_on,0,0,3,,,,,,,,,2,,,75,0
41250,note_on,0,0,3,,,,,,,,,2,,,72,101
41250,note_on,30,0,3,,,,,,,,,2,,,80,0
41250,note_on,0,0,3,,,,,,,,,2,,,68,101
41250,note_on,30,0,1,,,,,,,,,0,,,87,0
41280,note_on,0,0,1,,,,,,,,,0,,,92,0
41280,note_on,0,0,3,,,,,,,,,2,,,80,101
41280,note_on,0,0,3,,,,,,,,,2,,,75,101
41280,note_on,0,0,1,,,,,,,,,0,,,87,114
41280,note_on,0,0,1,,,,,,,,,0,,,84,114
41280,note_on,0,0,3,,,,,,,,,2,,,68,0
41280,note_on,30,0,3,,,,,,,,,2,,,72,0
41280,note_on,30,0,1,,,,,,,,,0,,,96,0
41310,note_on,30,0,1,,,,,,,,,0,,,87,0
41310,note_on,0,0,1,,,,,,,,,0,,,92,114
41310,note_on,0,0,1,,,,,,,,,0,,,84,0
41310,note_on,30,0,3,,,,,,,,,2,,,80,0
41310,note_on,0,0,1,,,,,,,,,0,,,96,114
41310,note_on,0,0,3,,,,,,,,,2,,,68,101
41310,note_on,0,0,3,,,,,,,,,2,,,72,101
41310,note_on,0,0,3,,,,,,,,,2,,,75,0
41340,note_on,0,0,1,,,,,,,,,0,,,87,114
41340,note_on,0,0,1,,,,,,,,,0,,,84,114
41340,note_on,0,0,3,,,,,,,,,2,,,68,0
41340,note_on,0,0,3,,,,,,,,,2,,,75,101
41340,note_on,0,0,3,,,,,,,,,2,,,80,101
41340,note_on,0,0,1,,,,,,,,,0,,,92,0
41340,note_on,30,0,3,,,,,,,,,2,,,72,0
41340,note_on,30,0,1,,,,,,,,,0,,,96,0
41370,note_on,0,0,3,,,,,,,,,2,,,75,0
41370,note_on,0,0,1,,,,,,,,,0,,,84,0
41370,note_on,0,0,3,,,,,,,,,2,,,68,101
41370,note_on,30,0,3,,,,,,,,,2,,,80,0
41370,note_on,30,0,1,,,,,,,,,0,,,87,0
41370,note_on,0,0,1,,,,,,,,,0,,,96,114
41370,note_on,0,0,1,,,,,,,,,0,,,92,114
41370,note_on,0,0,3,,,,,,,,,2,,,72,101
41400,note_on,0,0,3,,,,,,,,,2,,,68,0
41400,note_on,0,0,3,,,,,,,,,2,,,80,88
41400,note_on,30,0,3,,,,,,,,,2,,,72,0
41400,note_on,0,0,3,,,,,,,,,2,,,75,88
41400,note_on,30,0,1,,,,,,,,,0,,,96,0
41400,note_on,0,0,1,,,,,,,,,0,,,87,101
41400,note_on,0,0,1,,,,,,,,,0,,,84,101
41400,note_on,0,0,1,,,,,,,,,0,,,92,0
41430,note_on,0,0,3,,,,,,,,,2,,,75,0
41430,note_on,0,0,1,,,,,,,,,0,,,84,0
41430,note_on,0,0,3,,,,,,,,,2,,,68,88
41430,note_on,30,0,1,,,,,,,,,0,,,87,0
41430,note_on,0,0,1,,,,,,,,,0,,,96,101
41430,note_on,0,0,1,,,,,,,,,0,,,92,101
41430,note_on,30,0,3,,,,,,,,,2,,,80,0
41430,note_on,0,0,3,,,,,,,,,2,,,72,88
41460,note_on,30,0,3,,,,,,,,,2,,,72,0
41460,note_on,30,0,1,,,,,,,,,0,,,96,0
41460,note_on,0,0,3,,,,,,,,,2,,,75,88
41460,note_on,0,0,3,,,,,,,,,2,,,68,0
41460,note_on,0,0,1,,,,,,,,,0,,,92,0
41460,note_on,0,0,1,,,,,,,,,0,,,87,101
41460,note_on,0,0,1,,,,,,,,,0,,,84,101
41460,note_on,0,0,3,,,,,,,,,2,,,80,88
41490,note_on,30,0,1,,,,,,,,,0,,,87,0
41490,note_on,0,0,3,,,,,,,,,2,,,68,88
41490,note_on,0,0,1,,,,,,,,,0,,,96,101
41490,note_on,0,0,3,,,,,,,,,2,,,72,88
41490,note_on,0,0,1,,,,,,,,,0,,,92,101
41490,note_on,0,0,1,,,,,,,,,0,,,84,0
41490,note_on,0,0,3,,,,,,,,,2,,,75,0
41490,note_on,30,0,3,,,,,,,,,2,,,80,0
41520,note_on,0,0,3,,,,,,,,,2,,,68,0
41520,note_on,0,0,1,,,,,,,,,0,,,84,88
41520,note_on,0,0,1,,,,,,,,,0,,,87,88
41520,note_on,0,0,1,,,,,,,,,0,,,92,0
41520,note_on,30,0,3,,,,,,,,,2,,,72,0
41520,note_on,0,0,3,,,,,,,,,2,,,80,75
41520,note_on,30,0,1,,,,,,,,,0,,,96,0
41520,note_on,0,0,3,,,,,,,,,2,,,75,75
41550,note_on,0,0,3,,,,,,,,,2,,,68,75
41550,note_on,0,0,3,,,,,,,,,2,,,72,75
41550,note_on,0,0,3,,,,,,,,,2,,,75,0
41550,note_on,0,0,1,,,,,,,,,0,,,84,0
41550,note_on,0,0,1,,,,,,,,,0,,,92,88
41550,note_on,30,0,1,,,,,,,,,0,,,87,0
41550,note_on,30,0,3,,,,,,,,,2,,,80,0
41550,note_on,0,0,1,,,,,,,,,0,,,96,88
41580,note_on,0,0,3,,,,,,,,,2,,,68,0
41580,note_on,0,0,3,,,,,,,,,2,,,80,75
41580,note_on,0,0,1,,,,,,,,,0,,,87,88
41580,note_on,0,0,3,,,,,,,,,2,,,75,75
41580,note_on,0,0,1,,,,,,,,,0,,,84,88
41580,note_on,0,0,1,,,,,,,,,0,,,92,0
41580,note_on,30,0,3,,,,,,,,,2,,,72,0
41580,note_on,30,0,1,,,,,,,,,0,,,96,0
41610,note_on,30,0,1,,,,,,,,,0,,,87,0
41610,note_on,0,0,1,,,,,,,,,0,,,84,0
41610,note_on,0,0,3,,,,,,,,,2,,,75,0
41610,note_on,0,0,1,,,,,,,,,0,,,92,88
41610,note_on,30,0,3,,,,,,,,,2,,,80,0
41610,note_on,0,0,3,,,,,,,,,2,,,68,75
41610,note_on,0,0,3,,,,,,,,,2,,,72,75
41610,note_on,0,0,1,,,,,,,,,0,,,96,88
41640,note_on,0,0,3,,,,,,,,,2,,,80,62
41640,note_on,0,0,3,,,,,,,,,2,,,68,0
41640,note_on,0,0,1,,,,,,,,,0,,,92,0
41640,note_on,0,0,3,,,,,,,,,2,,,75,62
41640,note_on,30,0,1,,,,,,,,,0,,,96,0
41640,note_on,0,0,1,,,,,,,,,0,,,87,75
41640,note_on,0,0,1,,,,,,,,,0,,,84,75
41640,note_on,30,0,3,,,,,,,,,2,,,72,0
41670,note_on,0,0,1,,,,,,,,,0,,,96,75
41670,note_on,0,0,3,,,,,,,,,2,,,72,62
41670,note_on,0,0,3,,,,,,,,,2,,,68,62
41670,note_on,0,0,1,,,,,,,,,0,,,84,0
41670,note_on,0,0,3,,,,,,,,,2,,,75,0
41670,note_on,30,0,3,,,,,,,,,2,,,80,0
41670,note_on,0,0,1,,,,,,,,,0,,,92,75
41670,note_on,30,0,1,,,,,,,,,0,,,87,0
41700,note_on,0,0,1,,,,,,,,,0,,,84,75
41700,note_on,0,0,3,,,,,,,,,2,,,80,62
41700,note_on,0,0,1,,,,,,,,,0,,,92,0
41700,note_on,0,0,1,,,,,,,,,0,,,87,75
41700,note_on,0,0,3,,,,,,,,,2,,,75,62
41700,note_on,30,0,3,,,,,,,,,2,,,72,0
41700,note_on,30,0,1,,,,,,,,,0,,,96,0
41700,note_on,0,0,3,,,,,,,,,2,,,68,0
41730,note_on,0,0,3,,,,,,,,,2,,,68,62
41730,note_on,0,0,3,,,,,,,,,2,,,72,62
41730,note_on,30,0,3,,,,,,,,,2,,,80,0
41730,note_on,0,0,3,,,,,,,,,2,,,75,0
41730,note_on,0,0,1,,,,,,,,,0,,,84,0
41730,note_on,0,0,1,,,,,,,,,0,,,92,75
41730,note_on,0,0,1,,,,,,,,,0,,,96,75
41730,note_on,30,0,1,,,,,,,,,0,,,87,0
41760,note_on,30,0,1,,,,,,,,,0,,,96,0
41760,note_on,0,0,3,,,,,,,,,2,,,68,0
41760,note_on,0,0,3,,,,,,,,,2,,,75,49
41760,note_on,0,0,3,,,,,,,,,2,,,80,49
41760,note_on,0,0,1,,,,,,,,,0,,,84,62
41760,note_on,0,0,1,,,,,,,,,0,,,87,62
41760,note_on,30,0,3,,,,,,,,,2,,,72,0
41760,note_on,0,0,1,,,,,,,,,0,,,92,0
41790,note_on,0,0,1,,,,,,,,,0,,,84,0
41790,note_on,0,0,1,,,,,,,,,0,,,92,62
41790,note_on,0,0,1,,,,,,,,,0,,,96,62
41790,note_on,0,0,3,,,,,,,,,2,,,75,0
41790,note_on,0,0,3,,,,,,,,,2,,,72,49
41790,note_on,0,0,3,,,,,,,,,2,,,68,49
41790,note_on,30,0,1,,,,,,,,,0,,,87,0
41790,note_on,30,0,3,,,,,,,,,2,,,80,0
41805,set_tempo,5085,1,0,,,,,,625000,,,,,,,
41820,note_on,30,0,3,,,,,,,,,2,,,72,0
41820,note_on,30,0,1,,,,,,,,,0,,,96,0
41820,note_on,0,0,3,,,,,,,,,2,,,80,49
41820,note_on,0,0,3,,,,,,,,,2,,,75,49
41820,note_on,0,0,1,,,,,,,,,0,,,84,62
41820,note_on,0,0,1,,,,,,,,,0,,,87,62
41820,note_on,0,0,1,,,,,,,,,0,,,92,0
41820,note_on,0,0,3,,,,,,,,,2,,,68,0
41850,note_on,0,0,1,,,,,,,,,0,,,84,0
41850,note_on,0,0,1,,,,,,,,,0,,,92,62
41850,set_tempo,45,1,0,,,,,,645161,,,,,,,
41850,note_on,30,0,3,,,,,,,,,2,,,80,0
41850,note_on,30,0,1,,,,,,,,,0,,,87,0
41850,note_on,0,0,1,,,,,,,,,0,,,96,62
41850,note_on,0,0,3,,,,,,,,,2,,,72,49
41850,note_on,0,0,3,,,,,,,,,2,,,75,0
41850,note_on,0,0,3,,,,,,,,,2,,,68,49
41880,note_on,0,0,1,,,,,,,,,0,,,87,49
41880,note_on,0,0,1,,,,,,,,,0,,,84,49
41880,note_on,30,0,3,,,,,,,,,2,,,72,0
41880,note_on,0,0,3,,,,,,,,,2,,,75,49
41880,note_on,30,0,1,,,,,,,,,0,,,96,0
41880,note_on,0,0,3,,,,,,,,,2,,,68,0
41880,note_on,0,0,3,,,,,,,,,2,,,80,49
41880,note_on,0,0,1,,,,,,,,,0,,,92,0
41895,set_tempo,45,1,0,,,,,,666667,,,,,,,
41910,note_on,0,0,1,,,,,,,,,0,,,96,49
41910,note_on,0,0,3,,,,,,,,,2,,,75,0
41910,note_on,0,0,3,,,,,,,,,2,,,72,49
41910,note_on,30,0,3,,,,,,,,,2,,,80,0
41910,note_on,0,0,3,,,,,,,,,2,,,68,49
41910,note_on,30,0,1,,,,,,,,,0,,,87,0
41910,note_on,0,0,1,,,,,,,,,0,,,92,49
41910,note_on,0,0,1,,,,,,,,,0,,,84,0
41940,note_on,0,0,3,,,,,,,,,2,,,75,49
41940,note_on,0,0,1,,,,,,,,,0,,,92,0
41940,note_on,30,0,3,,,,,,,,,2,,,72,0
41940,note_on,0,0,3,,,,,,,,,2,,,68,0
41940,set_tempo,45,1,0,,,,,,697674,,,,,,,
41940,note_on,0,0,1,,,,,,,,,0,,,87,49
41940,note_on,0,0,1,,,,,,,,,0,,,84,49
41940,note_on,30,0,1,,,,,,,,,0,,,96,0
41940,note_on,0,0,3,,,,,,,,,2,,,80,49
41970,note_on,0,0,1,,,,,,,,,0,,,84,0
41970,note_on,30,0,3,,,,,,,,,2,,,80,0
41970,note_on,30,0,1,,,,,,,,,0,,,87,0
41970,note_on,0,0,3,,,,,,,,,2,,,68,49
41970,note_on,0,0,1,,,,,,,,,0,,,96,49
41970,note_on,0,0,1,,,,,,,,,0,,,92,49
41970,note_on,0,0,3,,,,,,,,,2,,,75,0
41970,note_on,0,0,3,,,,,,,,,2,,,72,49
41985,set_tempo,45,1,0,,,,,,722892,,,,,,,
42000,note_on,0,0,1,,,,,,,,,0,,,84,49
42000,note_on,0,0,1,,,,,,,,,0,,,87,49
42000,note_on,30,0,3,,,,,,,,,2,,,72,0
42000,note_on,30,0,1,,,,,,,,,0,,,96,0
42000,note_on,0,0,3,,,,,,,,,2,,,75,49
42000,note_on,0,0,3,,,,,,,,,2,,,68,0
42000,note_on,0,0,3,,,,,,,,,2,,,80,49
42000,note_on,0,0,1,,,,,,,,,0,,,92,0
42030,note_on,0,0,1,,,,,,,,,0,,,96,49
42030,note_on,0,0,1,,,,,,,,,0,,,92,49
42030,note_on,0,0,1,,,,,,,,,0,,,84,0
42030,note_on,0,0,3,,,,,,,,,2,,,68,49
42030,note_on,0,0,3,,,,,,,,,2,,,72,49
42030,note_on,0,0,3,,,,,,,,,2,,,75,0
42030,set_tempo,45,1,0,,,,,,750000,,,,,,,
42030,note_on,30,0,1,,,,,,,,,0,,,87,0
42030,note_on,30,0,3,,,,,,,,,2,,,80,0
42060,note_on,30,0,3,,,,,,,,,2,,,72,0
42060,note_on,0,0,1,,,,,,,,,0,,,87,49
42060,note_on,0,0,1,,,,,,,,,0,,,92,0
42060,note_on,0,0,1,,,,,,,,,0,,,84,49
42060,note_on,0,0,3,,,,,,,,,2,,,68,0
42060,note_on,0,0,3,,,,,,,,,2,,,75,49
42060,note_on,0,0,3,,,,,,,,,2,,,80,49
42060,note_on,30,0,1,,,,,,,,,0,,,96,0
42075,set_tempo,45,1,0,,,,,,779221,,,,,,,
42075,end_of_track,0,1,0,,,,,,,,,,,,,
42090,note_on,30,0,1,,,,,,,,,0,,,87,0
42090,note_on,0,0,3,,,,,,,,,2,,,75,0
42090,note_on,0,0,3,,,,,,,,,2,,,72,49
42090,note_on,0,0,3,,,,,,,,,2,,,68,49
42090,note_on,0,0,1,,,,,,,,,0,,,96,49
42090,note_on,0,0,1,,,,,,,,,0,,,92,49
42090,note_on,0,0,1,,,,,,,,,0,,,84,0
42090,note_on,30,0,3,,,,,,,,,2,,,80,0
42097,note_on,7,0,1,,,,,,,,,0,,,84,49
42097,note_on,7,0,3,,,,,,,,,2,,,68,49
42105,note_on,8,0,3,,,,,,,,,2,,,72,49
42105,note_on,8,0,1,,,,,,,,,0,,,87,49
42112,note_on,7,0,3,,,,,,,,,2,,,75,49
42112,note_on,7,0,1,,,,,,,,,0,,,92,49
42120,note_on,8,0,1,,,,,,,,,0,,,96,0
42120,note_on,0,0,3,,,,,,,,,2,,,68,0
42120,note_on,0,0,3,,,,,,,,,2,,,80,49
42120,note_on,8,0,3,,,,,,,,,2,,,72,0
42120,note_on,0,0,1,,,,,,,,,0,,,92,0
42120,note_on,0,0,1,,,,,,,,,0,,,96,49
42480,note_on,360,0,3,,,,,,,,,2,,,80,0
42480,note_on,0,0,1,,,,,,,,,0,,,84,0
42480,note_on,0,0,3,,,,,,,,,2,,,72,0
42480,note_on,0,0,3,,,,,,,,,2,,,68,0
42480,note_on,0,0,1,,,,,,,,,0,,,87,0
42480,note_on,0,0,1,,,,,,,,,0,,,92,0
42480,note_on,0,0,3,,,,,,,,,2,,,75,0
42480,note_on,360,0,1,,,,,,,,,0,,,96,0
43200,control_change,720,0,1,,,,,,,,,0,64,0,,
43200,control_change,720,0,3,,,,,,,,,2,64,0,,
43200,control_change,3960,0,2,,,,,,,,,1,64,0,,
43200,control_change,5940,0,4,,,,,,,,,3,64,0,,
43200,end_of_track,0,1,1,,,,,,,,,,,,,
43200,end_of_track,0,1,2,,,,,,,,,,,,,
43200,end_of_track,0,1,3,,,,,,,,,,,,,
43200,end_of_track,0,1,4,,,,,,,,,,,,,
