tick,type,time,meta,track,numerator,denominator,clocks_per_click,notated_32nd_notes_per_beat,key,tempo,port,program,channel,control,value,note,velocity
0,control_change,0,0,1,,,,,,,,,0,7,127,,
0,control_change,0,0,3,,,,,,,,,2,7,127,,
0,control_change,0,0,3,,,,,,,,,2,10,30,,
0,control_change,0,0,4,,,,,,,,,3,7,127,,
0,control_change,0,0,4,,,,,,,,,3,10,30,,
0,control_change,0,0,4,,,,,,,,,3,64,127,,
0,copyright,0,1,0,,,,,,,,,,,,,
0,key_signature,0,1,0,,,,,F,,,,,,,,
0,midi_port,0,1,1,,,,,,,0,,,,,,
0,midi_port,0,1,2,,,,,,,0,,,,,,
0,midi_port,0,1,3,,,,,,,0,,,,,,
0,midi_port,0,1,4,,,,,,,0,,,,,,
0,track_name,0,1,3,,,,,,,,,,,,,
0,note_on,0,0,4,,,,,,,,,3,,,36,36
0,program_change,0,0,1,,,,,,,,0,0,,,,
0,program_change,0,0,2,,,,,,,,0,1,,,,
0,program_change,0,0,3,,,,,,,,0,2,,,,
0,program_change,0,0,4,,,,,,,,0,3,,,,
0,set_tempo,0,1,0,,,,,,750000,,,,,,,
0,text,0,1,0,,,,,,,,,,,,,
0,time_signature,0,1,0,4,4,24,8,,,,,,,,,
0,track_name,0,1,0,,,,,,,,,,,,,
0,track_name,0,1,1,,,,,,,,,,,,,
0,track_name,0,1,2,,,,,,,,,,,,,
0,control_change,0,0,2,,,,,,,,,1,10,97,,
0,control_change,0,0,2,,,,,,,,,1,7,127,,
0,track_name,0,1,4,,,,,,,,,,,,,
0,control_change,0,0,1,,,,,,,,,0,10,97,,
30,note_on,0,0,4,,,,,,,,,3,,,37,36
30,note_on,0,0,4,,,,,,,,,3,,,48,36
30,note_on,30,0,4,,,,,,,,,3,,,36,0
60,note_on,0,0,4,,,,,,,,,3,,,36,36
60,note_on,0,0,4,,,,,,,,,3,,,37,0
60,note_on,30,0,4,,,,,,,,,3,,,48,0
90,note_on,0,0,4,,,,,,,,,3,,,48,36
90,note_on,0,0,4,,,,,,,,,3,,,37,36
90,note_on,30,0,4,,,,,,,,,3,,,36,0
120,note_on,30,0,4,,,,,,,,,3,,,48,0
120,note_on,0,0,4,,,,,,,,,3,,,37,0
120,note_on,0,0,4,,,,,,,,,3,,,36,36
150,note_on,0,0,4,,,,,,,,,3,,,37,36
150,note_on,30,0,4,,,,,,,,,3,,,36,0
150,note_on,0,0,4,,,,,,,,,3,,,48,36
180,note_on,30,0,4,,,,,,,,,3,,,48,0
180,note_on,0,0,4,,,,,,,,,3,,,37,0
180,note_on,0,0,4,,,,,,,,,3,,,36,36
210,note_on,30,0,4,,,,,,,,,3,,,36,0
210,note_on,0,0,4,,,,,,,,,3,,,37,36
210,note_on,0,0,4,,,,,,,,,3,,,48,36
240,note_on,30,0,4,,,,,,,,,3,,,48,0
240,note_on,0,0,4,,,,,,,,,3,,,37,0
240,note_on,0,0,4,,,,,,,,,3,,,36,36
270,note_on,30,0,4,,,,,,,,,3,,,36,0
270,note_on,0,0,4,,,,,,,,,3,,,37,36
270,note_on,0,0,4,,,,,,,,,3,,,48,36
300,note_on,0,0,4,,,,,,,,,3,,,36,36
300,note_on,0,0,4,,,,,,,,,3,,,37,0
300,note_on,30,0,4,,,,,,,,,3,,,48,0
330,note_on,30,0,4,,,,,,,,,3,,,36,0
330,note_on,0,0,4,,,,,,,,,3,,,37,36
330,note_on,0,0,4,,,,,,,,,3,,,48,36
360,note_on,360,0,3,,,,,,,,,2,,,52,62
360,note_on,30,0,4,,,,,,,,,3,,,48,0
360,note_on,360,0,1,,,,,,,,,0,,,60,75
360,note_on,0,0,4,,,,,,,,,3,,,36,36
360,note_on,0,0,4,,,,,,,,,3,,,37,0
390,note_on,0,0,4,,,,,,,,,3,,,48,36
390,note_on,0,0,4,,,,,,,,,3,,,37,36
390,note_on,30,0,4,,,,,,,,,3,,,36,0
399,note_on,399,0,2,,,,,,,,,1,,,60,23
420,note_on,0,0,4,,,,,,,,,3,,,37,0
420,note_on,0,0,4,,,,,,,,,3,,,36,36
420,note_on,30,0,4,,,,,,,,,3,,,48,0
439,note_on,0,0,2,,,,,,,,,1,,,60,23
439,note_on,40,0,2,,,,,,,,,1,,,60,0
450,note_on,30,0,4,,,,,,,,,3,,,36,0
450,control_change,0,0,4,,,,,,,,,3,64,0,,
450,note_on,0,0,4,,,,,,,,,3,,,48,36
450,note_on,0,0,4,,,,,,,,,3,,,37,36
479,note_on,0,0,2,,,,,,,,,1,,,60,23
479,control_change,0,0,2,,,,,,,,,1,64,127,,
479,note_on,40,0,2,,,,,,,,,1,,,60,0
480,note_on,0,0,3,,,,,,,,,2,,,53,62
480,control_change,0,0,3,,,,,,,,,2,64,127,,
480,note_on,0,0,4,,,,,,,,,3,,,37,0
480,note_on,120,0,3,,,,,,,,,2,,,52,0
480,note_on,120,0,1,,,,,,,,,0,,,60,0
480,control_change,0,0,1,,,,,,,,,0,64,127,,
480,note_on,0,0,4,,,,,,,,,3,,,36,36
480,note_on,0,0,1,,,,,,,,,0,,,61,75
480,control_change,0,0,4,,,,,,,,,3,64,127,,
480,note_on,30,0,4,,,,,,,,,3,,,48,0
510,note_on,30,0,4,,,,,,,,,3,,,36,0
510,note_on,0,0,4,,,,,,,,,3,,,48,36
510,note_on,0,0,4,,,,,,,,,3,,,37,36
519,note_on,0,0,2,,,,,,,,,1,,,60,23
519,note_on,40,0,2,,,,,,,,,1,,,60,0
519,note_on,0,0,2,,,,,,,,,1,,,61,23
540,note_on,0,0,4,,,,,,,,,3,,,37,0
540,note_on,0,0,4,,,,,,,,,3,,,36,36
540,note_on,30,0,4,,,,,,,,,3,,,48,0
559,note_on,0,0,2,,,,,,,,,1,,,60,0
559,note_on,0,0,2,,,,,,,,,1,,,61,23
559,note_on,40,0,2,,,,,,,,,1,,,61,0
559,note_on,0,0,2,,,,,,,,,1,,,60,23
570,note_on,30,0,4,,,,,,,,,3,,,36,0
570,note_on,0,0,4,,,,,,,,,3,,,37,36
570,note_on,0,0,4,,,,,,,,,3,,,48,36
599,note_on,40,0,2,,,,,,,,,1,,,61,0
599,note_on,0,0,2,,,,,,,,,1,,,60,23
599,note_on,0,0,2,,,,,,,,,1,,,60,0
600,note_on,120,0,3,,,,,,,,,2,,,53,0
600,note_on,0,0,4,,,,,,,,,3,,,36,36
600,note_on,0,0,4,,,,,,,,,3,,,37,0
600,note_on,0,0,1,,,,,,,,,0,,,61,88
600,note_on,120,0,1,,,,,,,,,0,,,61,0
600,note_on,30,0,4,,,,,,,,,3,,,48,0
600,note_on,0,0,3,,,,,,,,,2,,,56,62
630,note_on,0,0,4,,,,,,,,,3,,,37,36
630,note_on,0,0,4,,,,,,,,,3,,,48,36
630,note_on,30,0,4,,,,,,,,,3,,,36,0
639,note_on,40,0,2,,,,,,,,,1,,,60,0
639,note_on,0,0,2,,,,,,,,,1,,,60,23
639,note_on,0,0,2,,,,,,,,,1,,,61,23
660,note_on,0,0,4,,,,,,,,,3,,,36,36
660,note_on,0,0,4,,,,,,,,,3,,,37,0
660,note_on,30,0,4,,,,,,,,,3,,,48,0
679,note_on,0,0,2,,,,,,,,,1,,,60,23
679,note_on,0,0,2,,,,,,,,,1,,,60,0
679,note_on,40,0,2,,,,,,,,,1,,,61,0
680,note_on,0,0,1,,,,,,,,,0,,,61,88
680,note_on,80,0,1,,,,,,,,,0,,,61,0
690,note_on,0,0,4,,,,,,,,,3,,,37,36
690,note_on,0,0,4,,,,,,,,,3,,,48,36
690,note_on,30,0,4,,,,,,,,,3,,,36,0
719,note_on,0,0,2,,,,,,,,,1,,,58,23
719,note_on,40,0,2,,,,,,,,,1,,,60,0
720,note_on,40,0,1,,,,,,,,,0,,,61,0
720,note_on,0,0,3,,,,,,,,,2,,,55,62
720,note_on,120,0,3,,,,,,,,,2,,,56,0
720,note_on,0,0,4,,,,,,,,,3,,,36,36
720,note_on,0,0,1,,,,,,,,,0,,,61,101
720,note_on,0,0,4,,,,,,,,,3,,,37,0
720,note_on,30,0,4,,,,,,,,,3,,,48,0
750,note_on,30,0,4,,,,,,,,,3,,,36,0
750,note_on,0,0,4,,,,,,,,,3,,,48,36
750,note_on,0,0,4,,,,,,,,,3,,,37,36
759,note_on,0,0,2,,,,,,,,,1,,,61,23
759,note_on,0,0,2,,,,,,,,,1,,,58,23
759,note_on,40,0,2,,,,,,,,,1,,,58,0
780,note_on,0,0,4,,,,,,,,,3,,,36,36
780,note_on,0,0,4,,,,,,,,,3,,,37,0
780,note_on,30,0,4,,,,,,,,,3,,,48,0
799,note_on,0,0,2,,,,,,,,,1,,,61,23
799,note_on,0,0,2,,,,,,,,,1,,,58,23
799,note_on,0,0,2,,,,,,,,,1,,,58,0
799,note_on,40,0,2,,,,,,,,,1,,,61,0
810,note_on,30,0,4,,,,,,,,,3,,,36,0
810,note_on,0,0,4,,,,,,,,,3,,,37,36
810,note_on,0,0,4,,,,,,,,,3,,,48,36
839,note_on,0,0,2,,,,,,,,,1,,,58,0
839,note_on,0,0,2,,,,,,,,,1,,,58,23
839,note_on,40,0,2,,,,,,,,,1,,,61,0
840,note_on,0,0,4,,,,,,,,,3,,,36,36
840,note_on,0,0,3,,,,,,,,,2,,,53,62
840,note_on,120,0,1,,,,,,,,,0,,,61,0
840,note_on,0,0,4,,,,,,,,,3,,,37,0
840,control_change,0,0,3,,,,,,,,,2,64,0,,
840,note_on,120,0,3,,,,,,,,,2,,,55,0
840,note_on,30,0,4,,,,,,,,,3,,,48,0
840,note_on,0,0,1,,,,,,,,,0,,,61,101
870,note_on,30,0,4,,,,,,,,,3,,,36,0
870,note_on,0,0,4,,,,,,,,,3,,,48,36
870,note_on,0,0,4,,,,,,,,,3,,,37,36
879,note_on,40,0,2,,,,,,,,,1,,,58,0
879,note_on,0,0,2,,,,,,,,,1,,,58,23
879,note_on,0,0,2,,,,,,,,,1,,,61,23
900,note_on,0,0,4,,,,,,,,,3,,,37,0
900,note_on,0,0,4,,,,,,,,,3,,,36,36
900,note_on,30,0,4,,,,,,,,,3,,,48,0
919,control_change,0,0,2,,,,,,,,,1,64,0,,
919,note_on,0,0,2,,,,,,,,,1,,,58,23
919,note_on,40,0,2,,,,,,,,,1,,,61,0
919,note_on,0,0,2,,,,,,,,,1,,,58,0
920,note_on,80,0,1,,,,,,,,,0,,,61,0
920,note_on,0,0,1,,,,,,,,,0,,,61,101
920,control_change,0,0,1,,,,,,,,,0,64,0,,
930,note_on,30,0,4,,,,,,,,,3,,,36,0
930,note_on,0,0,4,,,,,,,,,3,,,37,36
930,note_on,0,0,4,,,,,,,,,3,,,48,36
930,control_change,0,0,4,,,,,,,,,3,64,0,,
959,note_on,0,0,2,,,,,,,,,1,,,58,23
959,note_on,0,0,2,,,,,,,,,1,,,60,23
959,note_on,40,0,2,,,,,,,,,1,,,58,0
959,control_change,0,0,2,,,,,,,,,1,64,127,,
960,control_change,0,0,4,,,,,,,,,3,64,127,,
960,note_on,40,0,1,,,,,,,,,0,,,61,0
960,note_on,30,0,4,,,,,,,,,3,,,48,0
960,note_on,0,0,4,,,,,,,,,3,,,36,36
960,note_on,0,0,4,,,,,,,,,3,,,37,0
960,control_change,0,0,3,,,,,,,,,2,64,127,,
960,control_change,0,0,1,,,,,,,,,0,64,127,,
960,note_on,120,0,3,,,,,,,,,2,,,53,0
960,note_on,0,0,3,,,,,,,,,2,,,52,62
960,note_on,0,0,1,,,,,,,,,0,,,67,127
990,note_on,30,0,4,,,,,,,,,3,,,36,0
990,note_on,0,0,4,,,,,,,,,3,,,48,36
990,note_on,0,0,4,,,,,,,,,3,,,37,36
999,note_on,0,0,2,,,,,,,,,1,,,58,0
999,note_on,0,0,2,,,,,,,,,1,,,58,23
999,note_on,0,0,2,,,,,,,,,1,,,60,23
999,note_on,40,0,2,,,,,,,,,1,,,60,0
1020,note_on,30,0,4,,,,,,,,,3,,,48,0
1020,note_on,0,0,4,,,,,,,,,3,,,36,36
1020,note_on,0,0,4,,,,,,,,,3,,,37,0
1039,note_on,40,0,2,,,,,,,,,1,,,60,0
1039,note_on,0,0,2,,,,,,,,,1,,,58,23
1039,note_on,0,0,2,,,,,,,,,1,,,60,23
1039,note_on,0,0,2,,,,,,,,,1,,,58,0
1050,note_on,30,0,4,,,,,,,,,3,,,36,0
1050,note_on,0,0,4,,,,,,,,,3,,,48,36
1050,note_on,0,0,4,,,,,,,,,3,,,37,36
1079,note_on,40,0,2,,,,,,,,,1,,,60,0
1079,note_on,0,0,2,,,,,,,,,1,,,58,0
1079,note_on,0,0,2,,,,,,,,,1,,,58,23
1079,note_on,0,0,2,,,,,,,,,1,,,60,23
1080,note_on,0,0,4,,,,,,,,,3,,,36,36
1080,note_on,0,0,4,,,,,,,,,3,,,37,0
1080,note_on,30,0,4,,,,,,,,,3,,,48,0
1110,note_on,0,0,4,,,,,,,,,3,,,48,36
1110,note_on,0,0,4,,,,,,,,,3,,,37,36
1110,note_on,30,0,4,,,,,,,,,3,,,36,0
1119,note_on,40,0,2,,,,,,,,,1,,,60,0
1119,note_on,0,0,2,,,,,,,,,1,,,58,0
1119,note_on,0,0,2,,,,,,,,,1,,,58,23
1119,note_on,0,0,2,,,,,,,,,1,,,60,23
1140,note_on,0,0,4,,,,,,,,,3,,,37,0
1140,note_on,30,0,4,,,,,,,,,3,,,48,0
1140,note_on,0,0,4,,,,,,,,,3,,,36,36
1159,note_on,0,0,2,,,,,,,,,1,,,60,23
1159,note_on,40,0,2,,,,,,,,,1,,,60,0
1159,note_on,0,0,2,,,,,,,,,1,,,58,23
1159,note_on,0,0,2,,,,,,,,,1,,,58,0
1170,note_on,0,0,4,,,,,,,,,3,,,37,36
1170,note_on,30,0,4,,,,,,,,,3,,,36,0
1170,note_on,0,0,4,,,,,,,,,3,,,48,36
1199,note_on,0,0,2,,,,,,,,,1,,,58,23
1199,note_on,40,0,2,,,,,,,,,1,,,60,0
1199,note_on,0,0,2,,,,,,,,,1,,,60,23
1199,note_on,0,0,2,,,,,,,,,1,,,58,0
1200,note_on,240,0,3,,,,,,,,,2,,,52,0
1200,note_on,0,0,4,,,,,,,,,3,,,37,0
1200,note_on,0,0,3,,,,,,,,,2,,,50,62
1200,note_on,0,0,4,,,,,,,,,3,,,36,36
1200,note_on,30,0,4,,,,,,,,,3,,,48,0
1230,note_on,0,0,4,,,,,,,,,3,,,37,36
1230,note_on,0,0,4,,,,,,,,,3,,,48,36
1230,note_on,30,0,4,,,,,,,,,3,,,36,0
1239,note_on,40,0,2,,,,,,,,,1,,,60,0
1239,note_on,0,0,2,,,,,,,,,1,,,58,0
1239,note_on,0,0,2,,,,,,,,,1,,,58,23
1239,note_on,0,0,2,,,,,,,,,1,,,60,23
1260,note_on,30,0,4,,,,,,,,,3,,,48,0
1260,note_on,0,0,4,,,,,,,,,3,,,36,36
1260,note_on,0,0,4,,,,,,,,,3,,,37,0
1279,note_on,40,0,2,,,,,,,,,1,,,60,0
1279,note_on,0,0,2,,,,,,,,,1,,,58,0
1279,note_on,0,0,2,,,,,,,,,1,,,58,23
1279,note_on,0,0,2,,,,,,,,,1,,,60,23
1290,note_on,0,0,4,,,,,,,,,3,,,48,36
1290,note_on,0,0,4,,,,,,,,,3,,,37,36
1290,note_on,30,0,4,,,,,,,,,3,,,36,0
1319,note_on,40,0,2,,,,,,,,,1,,,60,0
1319,note_on,0,0,2,,,,,,,,,1,,,58,0
1319,note_on,0,0,2,,,,,,,,,1,,,58,23
1320,note_on,0,0,4,,,,,,,,,3,,,36,36
1320,note_on,120,0,3,,,,,,,,,2,,,50,0
1320,note_on,360,0,1,,,,,,,,,0,,,67,0
1320,note_on,0,0,3,,,,,,,,,2,,,53,62
1320,note_on,30,0,4,,,,,,,,,3,,,48,0
1320,note_on,0,0,1,,,,,,,,,0,,,60,88
1320,control_change,0,0,3,,,,,,,,,2,64,0,,
1320,note_on,0,0,4,,,,,,,,,3,,,37,0
1350,note_on,0,0,4,,,,,,,,,3,,,48,36
1350,note_on,0,0,4,,,,,,,,,3,,,37,36
1350,note_on,30,0,4,,,,,,,,,3,,,36,0
1359,note_on,0,0,2,,,,,,,,,1,,,60,23
1359,note_on,40,0,2,,,,,,,,,1,,,58,0
1359,note_on,0,0,2,,,,,,,,,1,,,58,23
1380,note_on,0,0,4,,,,,,,,,3,,,37,0
1380,note_on,0,0,4,,,,,,,,,3,,,36,36
1380,note_on,30,0,4,,,,,,,,,3,,,48,0
1399,note_on,40,0,2,,,,,,,,,1,,,60,0
1399,control_change,0,0,2,,,,,,,,,1,64,0,,
1399,note_on,0,0,2,,,,,,,,,1,,,58,23
1399,note_on,0,0,2,,,,,,,,,1,,,58,0
1400,note_on,0,0,1,,,,,,,,,0,,,60,88
1400,note_on,80,0,1,,,,,,,,,0,,,60,0
1400,control_change,0,0,1,,,,,,,,,0,64,0,,
1410,note_on,0,0,4,,,,,,,,,3,,,48,36
1410,note_on,30,0,4,,,,,,,,,3,,,36,0
1410,control_change,0,0,4,,,,,,,,,3,64,0,,
1410,note_on,0,0,4,,,,,,,,,3,,,37,36
1439,note_on,0,0,2,,,,,,,,,1,,,58,23
1439,note_on,40,0,2,,,,,,,,,1,,,58,0
1439,control_change,0,0,2,,,,,,,,,1,64,127,,
1440,note_on,120,0,3,,,,,,,,,2,,,53,0
1440,note_on,0,0,4,,,,,,,,,3,,,37,0
1440,note_on,0,0,4,,,,,,,,,3,,,36,36
1440,note_on,0,0,3,,,,,,,,,2,,,52,62
1440,note_on,0,0,1,,,,,,,,,0,,,60,75
1440,control_change,0,0,3,,,,,,,,,2,64,127,,
1440,control_change,0,0,1,,,,,,,,,0,64,127,,
1440,note_on,40,0,1,,,,,,,,,0,,,60,0
1440,control_change,0,0,4,,,,,,,,,3,64,127,,
1440,note_on,30,0,4,,,,,,,,,3,,,48,0
1470,note_on,0,0,4,,,,,,,,,3,,,48,36
1470,note_on,30,0,4,,,,,,,,,3,,,36,0
1470,note_on,0,0,4,,,,,,,,,3,,,37,36
1479,note_on,40,0,2,,,,,,,,,1,,,58,0
1479,note_on,0,0,2,,,,,,,,,1,,,60,23
1479,note_on,0,0,2,,,,,,,,,1,,,58,23
1500,note_on,30,0,4,,,,,,,,,3,,,48,0
1500,note_on,0,0,4,,,,,,,,,3,,,37,0
1500,note_on,0,0,4,,,,,,,,,3,,,36,36
1519,note_on,40,0,2,,,,,,,,,1,,,60,0
1519,note_on,0,0,2,,,,,,,,,1,,,60,23
1519,note_on,0,0,2,,,,,,,,,1,,,58,0
1519,note_on,0,0,2,,,,,,,,,1,,,58,23
1530,note_on,0,0,4,,,,,,,,,3,,,48,36
1530,note_on,30,0,4,,,,,,,,,3,,,36,0
1530,note_on,0,0,4,,,,,,,,,3,,,37,36
1559,note_on,40,0,2,,,,,,,,,1,,,60,0
1559,note_on,0,0,2,,,,,,,,,1,,,58,0
1559,note_on,0,0,2,,,,,,,,,1,,,58,23
1560,note_on,0,0,4,,,,,,,,,3,,,37,0
1560,note_on,120,0,3,,,,,,,,,2,,,52,0
1560,note_on,120,0,1,,,,,,,,,0,,,60,0
1560,note_on,0,0,1,,,,,,,,,0,,,60,88
1560,note_on,0,0,3,,,,,,,,,2,,,55,62
1560,note_on,30,0,4,,,,,,,,,3,,,48,0
1560,note_on,0,0,4,,,,,,,,,3,,,36,36
1590,note_on,0,0,4,,,,,,,,,3,,,37,36
1590,note_on,0,0,4,,,,,,,,,3,,,48,36
1590,note_on,30,0,4,,,,,,,,,3,,,36,0
1599,note_on,0,0,2,,,,,,,,,1,,,60,23
1599,note_on,0,0,2,,,,,,,,,1,,,58,23
1599,note_on,40,0,2,,,,,,,,,1,,,58,0
1620,note_on,30,0,4,,,,,,,,,3,,,48,0
1620,note_on,0,0,4,,,,,,,,,3,,,37,0
1620,note_on,0,0,4,,,,,,,,,3,,,36,36
1639,note_on,0,0,2,,,,,,,,,1,,,58,0
1639,note_on,40,0,2,,,,,,,,,1,,,60,0
1639,note_on,0,0,2,,,,,,,,,1,,,58,23
1640,note_on,80,0,1,,,,,,,,,0,,,60,0
1640,note_on,0,0,1,,,,,,,,,0,,,60,101
1650,note_on,0,0,4,,,,,,,,,3,,,48,36
1650,note_on,0,0,4,,,,,,,,,3,,,37,36
1650,note_on,30,0,4,,,,,,,,,3,,,36,0
1679,note_on,40,0,2,,,,,,,,,1,,,58,0
1679,note_on,0,0,2,,,,,,,,,1,,,56,23
1680,note_on,120,0,3,,,,,,,,,2,,,55,0
1680,note_on,0,0,4,,,,,,,,,3,,,36,36
1680,note_on,0,0,4,,,,,,,,,3,,,37,0
1680,note_on,0,0,3,,,,,,,,,2,,,53,62
1680,note_on,30,0,4,,,,,,,,,3,,,48,0
1680,note_on,0,0,1,,,,,,,,,0,,,60,101
1680,note_on,40,0,1,,,,,,,,,0,,,60,0
1710,note_on,0,0,4,,,,,,,,,3,,,48,36
1710,note_on,30,0,4,,,,,,,,,3,,,36,0
1710,note_on,0,0,4,,,,,,,,,3,,,37,36
1719,note_on,0,0,2,,,,,,,,,1,,,56,23
1719,note_on,40,0,2,,,,,,,,,1,,,56,0
1740,note_on,0,0,4,,,,,,,,,3,,,37,0
1740,note_on,30,0,4,,,,,,,,,3,,,48,0
1740,note_on,0,0,4,,,,,,,,,3,,,36,36
1759,note_on,40,0,2,,,,,,,,,1,,,56,0
1759,note_on,0,0,2,,,,,,,,,1,,,56,23
1770,note_on,0,0,4,,,,,,,,,3,,,37,36
1770,note_on,0,0,4,,,,,,,,,3,,,48,36
1770,note_on,30,0,4,,,,,,,,,3,,,36,0
1799,note_on,40,0,2,,,,,,,,,1,,,56,0
1799,note_on,0,0,2,,,,,,,,,1,,,55,23
1800,note_on,120,0,1,,,,,,,,,0,,,60,0
1800,note_on,30,0,4,,,,,,,,,3,,,48,0
1800,control_change,0,0,3,,,,,,,,,2,64,0,,
1800,note_on,0,0,3,,,,,,,,,2,,,52,62
1800,note_on,0,0,4,,,,,,,,,3,,,37,0
1800,note_on,0,0,4,,,,,,,,,3,,,36,36
1800,note_on,0,0,1,,,,,,,,,0,,,60,101
1800,note_on,120,0,3,,,,,,,,,2,,,53,0
1830,note_on,0,0,4,,,,,,,,,3,,,37,36
1830,note_on,30,0,4,,,,,,,,,3,,,36,0
1830,note_on,0,0,4,,,,,,,,,3,,,48,36
1839,note_on,39,0,1,,,,,,,,,0,,,60,88
1839,note_on,40,0,2,,,,,,,,,1,,,55,0
1839,note_on,0,0,2,,,,,,,,,1,,,55,23
1840,note_on,1,0,1,,,,,,,,,0,,,60,0
1860,note_on,30,0,4,,,,,,,,,3,,,48,0
1860,note_on,0,0,4,,,,,,,,,3,,,37,0
1860,note_on,0,0,4,,,,,,,,,3,,,35,36
1879,control_change,0,0,2,,,,,,,,,1,64,0,,
1879,note_on,40,0,2,,,,,,,,,1,,,55,0
1879,note_on,0,0,2,,,,,,,,,1,,,55,23
1879,note_on,39,0,1,,,,,,,,,0,,,60,0
1880,control_change,1,0,1,,,,,,,,,0,64,0,,
1880,note_on,0,0,1,,,,,,,,,0,,,60,75
1890,note_on,0,0,4,,,,,,,,,3,,,36,36
1890,note_on,0,0,4,,,,,,,,,3,,,48,36
1890,control_change,0,0,4,,,,,,,,,3,64,0,,
1890,note_on,30,0,4,,,,,,,,,3,,,35,0
1919,control_change,0,0,2,,,,,,,,,1,64,127,,
1919,note_on,40,0,2,,,,,,,,,1,,,55,0
1919,note_on,0,0,2,,,,,,,,,1,,,53,23
1919,note_on,0,0,2,,,,,,,,,1,,,60,23
1920,note_on,0,0,4,,,,,,,,,3,,,36,0
1920,note_on,0,0,3,,,,,,,,,2,,,53,62
1920,note_on,40,0,1,,,,,,,,,0,,,60,0
1920,note_on,30,0,4,,,,,,,,,3,,,48,0
1920,note_on,0,0,4,,,,,,,,,3,,,37,36
1920,control_change,0,0,4,,,,,,,,,3,64,127,,
1920,note_on,0,0,1,,,,,,,,,0,,,68,88
1920,note_on,120,0,3,,,,,,,,,2,,,52,0
1920,control_change,0,0,3,,,,,,,,,2,64,127,,
1950,note_on,30,0,4,,,,,,,,,3,,,37,0
1950,note_on,0,0,4,,,,,,,,,3,,,40,36
1950,note_on,0,0,4,,,,,,,,,3,,,49,36
1959,note_on,0,0,2,,,,,,,,,1,,,60,62
1959,note_on,0,0,2,,,,,,,,,1,,,53,0
1959,note_on,0,0,2,,,,,,,,,1,,,65,62
1959,note_on,40,0,2,,,,,,,,,1,,,60,0
1980,note_on,0,0,4,,,,,,,,,3,,,40,0
1980,note_on,30,0,4,,,,,,,,,3,,,49,0
1980,note_on,0,0,4,,,,,,,,,3,,,37,36
1999,note_on,40,0,2,,,,,,,,,1,,,65,0
1999,note_on,0,0,2,,,,,,,,,1,,,60,62
1999,note_on,0,0,2,,,,,,,,,1,,,65,62
1999,note_on,0,0,2,,,,,,,,,1,,,60,0
2010,note_on,0,0,4,,,,,,,,,3,,,40,36
2010,note_on,0,0,4,,,,,,,,,3,,,49,36
2010,note_on,30,0,4,,,,,,,,,3,,,37,0
2039,note_on,0,0,2,,,,,,,,,1,,,60,0
2039,note_on,0,0,2,,,,,,,,,1,,,60,62
2039,note_on,0,0,2,,,,,,,,,1,,,65,62
2039,note_on,40,0,2,,,,,,,,,1,,,65,0
2040,note_on,0,0,4,,,,,,,,,3,,,40,0
2040,note_on,0,0,4,,,,,,,,,3,,,37,36
2040,note_on,30,0,4,,,,,,,,,3,,,49,0
2070,note_on,0,0,4,,,,,,,,,3,,,40,36
2070,note_on,30,0,4,,,,,,,,,3,,,37,0
2070,note_on,0,0,4,,,,,,,,,3,,,49,36
2079,note_on,0,0,2,,,,,,,,,1,,,65,62
2079,note_on,0,0,2,,,,,,,,,1,,,60,62
2079,note_on,0,0,2,,,,,,,,,1,,,60,0
2079,note_on,40,0,2,,,,,,,,,1,,,65,0
2100,note_on,30,0,4,,,,,,,,,3,,,49,0
2100,note_on,0,0,4,,,,,,,,,3,,,37,36
2100,note_on,0,0,4,,,,,,,,,3,,,40,0
2119,note_on,40,0,2,,,,,,,,,1,,,65,0
2119,note_on,0,0,2,,,,,,,,,1,,,60,0
2119,note_on,0,0,2,,,,,,,,,1,,,60,62
2119,note_on,0,0,2,,,,,,,,,1,,,65,62
2130,note_on,0,0,4,,,,,,,,,3,,,40,36
2130,note_on,30,0,4,,,,,,,,,3,,,37,0
2130,note_on,0,0,4,,,,,,,,,3,,,49,36
2159,note_on,0,0,2,,,,,,,,,1,,,65,62
2159,note_on,40,0,2,,,,,,,,,1,,,65,0
2159,note_on,0,0,2,,,,,,,,,1,,,60,0
2159,note_on,0,0,2,,,,,,,,,1,,,59,62
2160,note_on,0,0,3,,,,,,,,,2,,,56,62
2160,note_on,240,0,1,,,,,,,,,0,,,68,0
2160,note_on,30,0,4,,,,,,,,,3,,,49,0
2160,note_on,240,0,3,,,,,,,,,2,,,53,0
2160,note_on,0,0,4,,,,,,,,,3,,,40,0
2160,note_on,0,0,4,,,,,,,,,3,,,37,36
2190,note_on,30,0,4,,,,,,,,,3,,,37,0
2190,note_on,0,0,4,,,,,,,,,3,,,49,36
2190,note_on,0,0,4,,,,,,,,,3,,,40,36
2199,note_on,40,0,2,,,,,,,,,1,,,65,0
2199,note_on,0,0,2,,,,,,,,,1,,,59,0
2199,note_on,0,0,2,,,,,,,,,1,,,65,62
2199,note_on,0,0,2,,,,,,,,,1,,,59,62
2220,note_on,0,0,4,,,,,,,,,3,,,40,0
2220,note_on,30,0,4,,,,,,,,,3,,,49,0
2220,note_on,0,0,4,,,,,,,,,3,,,37,36
2239,note_on,0,0,2,,,,,,,,,1,,,65,62
2239,note_on,0,0,2,,,,,,,,,1,,,59,62
2239,note_on,40,0,2,,,,,,,,,1,,,65,0
2239,note_on,0,0,2,,,,,,,,,1,,,59,0
2250,note_on,0,0,4,,,,,,,,,3,,,40,36
2250,note_on,0,0,4,,,,,,,,,3,,,49,36
2250,note_on,30,0,4,,,,,,,,,3,,,37,0
2279,note_on,40,0,2,,,,,,,,,1,,,65,0
2279,note_on,0,0,2,,,,,,,,,1,,,65,62
2279,note_on,0,0,2,,,,,,,,,1,,,59,0
2279,note_on,0,0,2,,,,,,,,,1,,,59,62
2280,note_on,30,0,4,,,,,,,,,3,,,49,0
2280,note_on,0,0,4,,,,,,,,,3,,,37,36
2280,note_on,0,0,4,,,,,,,,,3,,,40,0
2310,note_on,30,0,4,,,,,,,,,3,,,37,0
2310,note_on,0,0,4,,,,,,,,,3,,,40,36
2310,note_on,0,0,4,,,,,,,,,3,,,49,36
2319,note_on,40,0,2,,,,,,,,,1,,,65,0
2319,note_on,0,0,2,,,,,,,,,1,,,59,0
2319,note_on,0,0,2,,,,,,,,,1,,,65,62
2319,note_on,0,0,2,,,,,,,,,1,,,59,62
2340,note_on,0,0,4,,,,,,,,,3,,,40,0
2340,control_change,0,0,3,,,,,,,,,2,64,0,,
2340,note_on,0,0,4,,,,,,,,,3,,,36,36
2340,note_on,0,0,3,,,,,,,,,2,,,57,62
2340,note_on,30,0,4,,,,,,,,,3,,,49,0
2340,note_on,180,0,3,,,,,,,,,2,,,56,0
2359,note_on,0,0,2,,,,,,,,,1,,,65,62
2359,note_on,0,0,2,,,,,,,,,1,,,59,62
2359,control_change,0,0,2,,,,,,,,,1,64,0,,
2359,note_on,40,0,2,,,,,,,,,1,,,65,0
2359,note_on,0,0,2,,,,,,,,,1,,,59,0
2370,note_on,0,0,4,,,,,,,,,3,,,37,36
2370,control_change,0,0,4,,,,,,,,,3,64,0,,
2370,note_on,30,0,4,,,,,,,,,3,,,36,0
2399,note_on,40,0,2,,,,,,,,,1,,,65,0
2399,control_change,0,0,2,,,,,,,,,1,64,127,,
2399,note_on,0,0,2,,,,,,,,,1,,,59,0
2399,note_on,0,0,2,,,,,,,,,1,,,65,62
2399,note_on,0,0,2,,,,,,,,,1,,,68,62
2400,note_on,60,0,3,,,,,,,,,2,,,57,0
2400,note_on,0,0,1,,,,,,,,,0,,,58,101
2400,control_change,0,0,3,,,,,,,,,2,64,127,,
2400,note_on,0,0,3,,,,,,,,,2,,,41,62
2400,note_on,30,0,4,,,,,,,,,3,,,37,0
2400,note_on,0,0,3,,,,,,,,,2,,,46,62
2400,note_on,0,0,1,,,,,,,,,0,,,70,101
2400,control_change,240,0,1,,,,,,,,,0,64,127,,
2400,note_on,0,0,4,,,,,,,,,3,,,38,36
2400,control_change,0,0,4,,,,,,,,,3,64,127,,
2430,note_on,30,0,4,,,,,,,,,3,,,38,0
2430,note_on,0,0,4,,,,,,,,,3,,,40,36
2430,note_on,0,0,4,,,,,,,,,3,,,50,36
2439,note_on,0,0,2,,,,,,,,,1,,,65,0
2439,note_on,0,0,2,,,,,,,,,1,,,65,62
2439,note_on,0,0,2,,,,,,,,,1,,,68,62
2439,note_on,40,0,2,,,,,,,,,1,,,68,0
2460,note_on,0,0,4,,,,,,,,,3,,,38,36
2460,note_on,0,0,4,,,,,,,,,3,,,40,0
2460,note_on,60,0,3,,,,,,,,,2,,,46,0
2460,note_on,0,0,3,,,,,,,,,2,,,41,0
2460,note_on,30,0,4,,,,,,,,,3,,,50,0
2479,note_on,0,0,2,,,,,,,,,1,,,68,62
2479,note_on,0,0,2,,,,,,,,,1,,,65,62
2479,note_on,40,0,2,,,,,,,,,1,,,68,0
2479,note_on,0,0,2,,,,,,,,,1,,,65,0
2490,note_on,0,0,4,,,,,,,,,3,,,50,36
2490,note_on,0,0,4,,,,,,,,,3,,,40,36
2490,note_on,30,0,4,,,,,,,,,3,,,38,0
2519,note_on,0,0,2,,,,,,,,,1,,,65,62
2519,note_on,0,0,2,,,,,,,,,1,,,65,0
2519,note_on,40,0,2,,,,,,,,,1,,,68,0
2519,note_on,0,0,2,,,,,,,,,1,,,68,62
2520,note_on,0,0,4,,,,,,,,,3,,,40,0
2520,note_on,0,0,4,,,,,,,,,3,,,38,36
2520,note_on,30,0,4,,,,,,,,,3,,,50,0
2520,note_on,120,0,1,,,,,,,,,0,,,70,0
2520,note_on,0,0,1,,,,,,,,,0,,,58,0
2520,note_on,0,0,1,,,,,,,,,0,,,58,101
2520,note_on,0,0,1,,,,,,,,,0,,,70,101
2550,note_on,0,0,4,,,,,,,,,3,,,40,36
2550,note_on,0,0,4,,,,,,,,,3,,,50,36
2550,note_on,30,0,4,,,,,,,,,3,,,38,0
2559,note_on,40,0,2,,,,,,,,,1,,,68,0
2559,note_on,0,0,2,,,,,,,,,1,,,68,62
2559,note_on,0,0,2,,,,,,,,,1,,,65,62
2559,note_on,0,0,2,,,,,,,,,1,,,65,0
2580,note_on,30,0,4,,,,,,,,,3,,,50,0
2580,note_on,0,0,4,,,,,,,,,3,,,40,0
2580,note_on,0,0,1,,,,,,,,,0,,,58,101
2580,note_on,0,0,1,,,,,,,,,0,,,70,101
2580,note_on,0,0,4,,,,,,,,,3,,,38,36
2580,note_on,0,0,1,,,,,,,,,0,,,58,0
2580,note_on,60,0,1,,,,,,,,,0,,,70,0
2599,note_on,40,0,2,,,,,,,,,1,,,68,0
2599,note_on,0,0,2,,,,,,,,,1,,,65,0
2599,note_on,0,0,2,,,,,,,,,1,,,68,62
2599,note_on,0,0,2,,,,,,,,,1,,,65,62
2610,note_on,0,0,4,,,,,,,,,3,,,40,36
2610,note_on,30,0,4,,,,,,,,,3,,,38,0
2610,note_on,0,0,4,,,,,,,,,3,,,50,36
2639,note_on,0,0,2,,,,,,,,,1,,,65,0
2639,note_on,0,0,2,,,,,,,,,1,,,65,62
2639,note_on,0,0,2,,,,,,,,,1,,,68,62
2639,note_on,40,0,2,,,,,,,,,1,,,68,0
2640,note_on,180,0,3,,,,,,,,,2,,,41,62
2640,note_on,0,0,4,,,,,,,,,3,,,38,36
2640,note_on,0,0,4,,,,,,,,,3,,,40,0
2640,note_on,0,0,3,,,,,,,,,2,,,47,62
2640,note_on,60,0,1,,,,,,,,,0,,,70,0
2640,note_on,30,0,4,,,,,,,,,3,,,50,0
2640,note_on,0,0,1,,,,,,,,,0,,,71,88
2640,note_on,0,0,1,,,,,,,,,0,,,59,88
2640,note_on,0,0,1,,,,,,,,,0,,,58,0
2670,note_on,30,0,4,,,,,,,,,3,,,38,0
2670,note_on,0,0,4,,,,,,,,,3,,,50,36
2670,note_on,0,0,4,,,,,,,,,3,,,40,36
2679,note_on,40,0,2,,,,,,,,,1,,,68,0
2679,note_on,0,0,2,,,,,,,,,1,,,65,0
2679,note_on,0,0,2,,,,,,,,,1,,,65,62
2679,note_on,0,0,2,,,,,,,,,1,,,68,62
2700,note_on,0,0,3,,,,,,,,,2,,,41,0
2700,note_on,0,0,4,,,,,,,,,3,,,38,36
2700,note_on,0,0,4,,,,,,,,,3,,,40,0
2700,note_on,60,0,3,,,,,,,,,2,,,47,0
2700,note_on,30,0,4,,,,,,,,,3,,,50,0
2719,note_on,0,0,2,,,,,,,,,1,,,65,62
2719,note_on,0,0,2,,,,,,,,,1,,,68,62
2719,note_on,40,0,2,,,,,,,,,1,,,68,0
2719,note_on,0,0,2,,,,,,,,,1,,,65,0
2730,note_on,0,0,4,,,,,,,,,3,,,40,36
2730,note_on,0,0,4,,,,,,,,,3,,,50,36
2730,note_on,30,0,4,,,,,,,,,3,,,38,0
2759,note_on,40,0,2,,,,,,,,,1,,,68,0
2759,note_on,0,0,2,,,,,,,,,1,,,65,0
2759,note_on,0,0,2,,,,,,,,,1,,,65,62
2759,note_on,0,0,2,,,,,,,,,1,,,68,62
2760,note_on,30,0,4,,,,,,,,,3,,,50,0
2760,note_on,0,0,1,,,,,,,,,0,,,70,75
2760,note_on,120,0,1,,,,,,,,,0,,,71,0
2760,note_on,0,0,1,,,,,,,,,0,,,59,0
2760,note_on,0,0,1,,,,,,,,,0,,,58,75
2760,note_on,0,0,3,,,,,,,,,2,,,46,62
2760,note_on,0,0,4,,,,,,,,,3,,,40,0
2760,control_change,60,0,3,,,,,,,,,2,64,0,,
2760,note_on,0,0,4,,,,,,,,,3,,,38,36
2760,note_on,0,0,3,,,,,,,,,2,,,41,62
2790,note_on,0,0,4,,,,,,,,,3,,,50,36
2790,note_on,0,0,4,,,,,,,,,3,,,40,36
2790,note_on,30,0,4,,,,,,,,,3,,,38,0
2799,note_on,40,0,2,,,,,,,,,1,,,68,0
2799,note_on,0,0,2,,,,,,,,,1,,,65,0
2799,note_on,0,0,2,,,,,,,,,1,,,65,62
2799,note_on,0,0,2,,,,,,,,,1,,,68,62
2820,note_on,0,0,1,,,,,,,,,0,,,58,75
2820,note_on,0,0,4,,,,,,,,,3,,,40,0
2820,note_on,0,0,3,,,,,,,,,2,,,41,0
2820,note_on,0,0,4,,,,,,,,,3,,,37,36
2820,control_change,0,0,1,,,,,,,,,0,64,0,,
2820,note_on,60,0,3,,,,,,,,,2,,,46,0
2820,note_on,0,0,1,,,,,,,,,0,,,58,0
2820,note_on,60,0,1,,,,,,,,,0,,,70,0
2820,note_on,30,0,4,,,,,,,,,3,,,50,0
2820,note_on,0,0,1,,,,,,,,,0,,,70,75
2839,note_on,40,0,2,,,,,,,,,1,,,68,0
2839,note_on,0,0,2,,,,,,,,,1,,,65,0
2839,note_on,0,0,2,,,,,,,,,1,,,65,62
2839,note_on,0,0,2,,,,,,,,,1,,,68,62
2839,control_change,0,0,2,,,,,,,,,1,64,0,,
2850,note_on,30,0,4,,,,,,,,,3,,,37,0
2850,note_on,0,0,4,,,,,,,,,3,,,38,36
2850,control_change,0,0,4,,,,,,,,,3,64,0,,
2879,note_on,0,0,2,,,,,,,,,1,,,67,62
2879,note_on,0,0,2,,,,,,,,,1,,,63,62
2879,note_on,0,0,2,,,,,,,,,1,,,65,0
2879,note_on,40,0,2,,,,,,,,,1,,,68,0
2879,control_change,0,0,2,,,,,,,,,1,64,127,,
2880,note_on,0,0,1,,,,,,,,,0,,,58,0
2880,control_change,60,0,3,,,,,,,,,2,64,127,,
2880,note_on,60,0,1,,,,,,,,,0,,,70,0
2880,note_on,0,0,1,,,,,,,,,0,,,58,75
2880,note_on,0,0,3,,,,,,,,,2,,,43,62
2880,note_on,0,0,3,,,,,,,,,2,,,46,62
2880,note_on,0,0,4,,,,,,,,,3,,,39,36
2880,note_on,30,0,4,,,,,,,,,3,,,38,0
2880,control_change,0,0,4,,,,,,,,,3,64,127,,
2880,note_on,0,0,1,,,,,,,,,0,,,70,75
2910,note_on,30,0,4,,,,,,,,,3,,,39,0
2910,note_on,0,0,4,,,,,,,,,3,,,51,36
2910,note_on,0,0,4,,,,,,,,,3,,,40,36
2919,note_on,40,0,2,,,,,,,,,1,,,67,0
2919,note_on,0,0,2,,,,,,,,,1,,,63,62
2919,note_on,0,0,2,,,,,,,,,1,,,67,62
2919,note_on,0,0,2,,,,,,,,,1,,,63,0
2940,note_on,30,0,4,,,,,,,,,3,,,51,0
2940,note_on,0,0,4,,,,,,,,,3,,,40,0
2940,note_on,0,0,3,,,,,,,,,2,,,43,0
2940,note_on,0,0,4,,,,,,,,,3,,,39,36
2940,note_on,60,0,3,,,,,,,,,2,,,46,0
2959,note_on,0,0,2,,,,,,,,,1,,,63,0
2959,note_on,0,0,2,,,,,,,,,1,,,63,62
2959,note_on,0,0,2,,,,,,,,,1,,,67,62
2959,note_on,40,0,2,,,,,,,,,1,,,67,0
2970,note_on,0,0,4,,,,,,,,,3,,,40,36
2970,note_on,0,0,4,,,,,,,,,3,,,51,36
2970,note_on,30,0,4,,,,,,,,,3,,,39,0
2999,note_on,0,0,2,,,,,,,,,1,,,63,62
2999,note_on,0,0,2,,,,,,,,,1,,,67,62
2999,note_on,40,0,2,,,,,,,,,1,,,67,0
2999,note_on,0,0,2,,,,,,,,,1,,,63,0
3000,note_on,0,0,4,,,,,,,,,3,,,39,36
3000,note_on,0,0,4,,,,,,,,,3,,,40,0
3000,note_on,30,0,4,,,,,,,,,3,,,51,0
3030,note_on,0,0,4,,,,,,,,,3,,,51,36
3030,note_on,0,0,4,,,,,,,,,3,,,40,36
3030,note_on,30,0,4,,,,,,,,,3,,,39,0
3039,note_on,0,0,2,,,,,,,,,1,,,67,62
3039,note_on,0,0,2,,,,,,,,,1,,,63,62
3039,note_on,0,0,2,,,,,,,,,1,,,63,0
3039,note_on,40,0,2,,,,,,,,,1,,,67,0
3060,note_on,30,0,4,,,,,,,,,3,,,51,0
3060,note_on,0,0,4,,,,,,,,,3,,,40,0
3060,note_on,0,0,4,,,,,,,,,3,,,39,36
3079,note_on,0,0,2,,,,,,,,,1,,,63,62
3079,note_on,0,0,2,,,,,,,,,1,,,63,0
3079,note_on,40,0,2,,,,,,,,,1,,,67,0
3079,note_on,0,0,2,,,,,,,,,1,,,67,62
3090,note_on,30,0,4,,,,,,,,,3,,,39,0
3090,note_on,0,0,4,,,,,,,,,3,,,40,36
3090,note_on,0,0,4,,,,,,,,,3,,,51,36
3119,note_on,40,0,2,,,,,,,,,1,,,67,0
3119,note_on,0,0,2,,,,,,,,,1,,,63,62
3119,note_on,0,0,2,,,,,,,,,1,,,67,62
3119,note_on,0,0,2,,,,,,,,,1,,,63,0
3120,note_on,240,0,1,,,,,,,,,0,,,70,0
3120,note_on,0,0,4,,,,,,,,,3,,,39,36
3120,note_on,0,0,4,,,,,,,,,3,,,40,0
3120,note_on,0,0,1,,,,,,,,,0,,,58,0
3120,note_on,30,0,4,,,,,,,,,3,,,51,0
3150,note_on,0,0,4,,,,,,,,,3,,,51,36
3150,note_on,30,0,4,,,,,,,,,3,,,39,0
3150,note_on,0,0,4,,,,,,,,,3,,,40,36
3159,note_on,0,0,2,,,,,,,,,1,,,63,62
3159,note_on,40,0,2,,,,,,,,,1,,,67,0
3159,note_on,0,0,2,,,,,,,,,1,,,63,0
3180,note_on,30,0,4,,,,,,,,,3,,,51,0
3180,note_on,0,0,4,,,,,,,,,3,,,40,0
3180,note_on,0,0,4,,,,,,,,,3,,,39,36
3199,note_on,40,0,2,,,,,,,,,1,,,63,0
3199,note_on,0,0,2,,,,,,,,,1,,,63,62
3210,note_on,0,0,4,,,,,,,,,3,,,40,36
3210,note_on,30,0,4,,,,,,,,,3,,,39,0
3210,note_on,0,0,4,,,,,,,,,3,,,51,36
3239,note_on,40,0,2,,,,,,,,,1,,,63,0
3240,note_on,0,0,4,,,,,,,,,3,,,39,36
3240,control_change,300,0,3,,,,,,,,,2,64,0,,
3240,note_on,0,0,3,,,,,,,,,2,,,55,62
3240,note_on,0,0,4,,,,,,,,,3,,,40,0
3240,note_on,120,0,1,,,,,,,,,0,,,64,75
3240,note_on,30,0,4,,,,,,,,,3,,,51,0
3270,note_on,0,0,4,,,,,,,,,3,,,40,36
3270,note_on,0,0,4,,,,,,,,,3,,,51,36
3270,note_on,30,0,4,,,,,,,,,3,,,39,0
3279,note_on,40,0,2,,,,,,,,,1,,,63,62
3300,note_on,0,0,4,,,,,,,,,3,,,40,0
3300,note_on,0,0,4,,,,,,,,,3,,,39,36
3300,note_on,30,0,4,,,,,,,,,3,,,51,0
3319,note_on,0,0,2,,,,,,,,,1,,,63,62
3319,note_on,40,0,2,,,,,,,,,1,,,63,0
3319,control_change,0,0,2,,,,,,,,,1,64,0,,
3330,control_change,0,0,4,,,,,,,,,3,64,0,,
3330,note_on,30,0,4,,,,,,,,,3,,,39,0
3330,note_on,0,0,4,,,,,,,,,3,,,51,36
3330,note_on,0,0,4,,,,,,,,,3,,,40,36
3359,control_change,0,0,2,,,,,,,,,1,64,127,,
3359,note_on,0,0,2,,,,,,,,,1,,,63,23
3359,note_on,40,0,2,,,,,,,,,1,,,63,0
3360,note_on,0,0,4,,,,,,,,,3,,,40,0
3360,note_on,0,0,4,,,,,,,,,3,,,39,36
3360,note_on,30,0,4,,,,,,,,,3,,,51,0
3360,control_change,0,0,4,,,,,,,,,3,64,127,,
3360,note_on,120,0,1,,,,,,,,,0,,,64,0
3360,note_on,0,0,3,,,,,,,,,2,,,56,62
3360,note_on,120,0,3,,,,,,,,,2,,,55,0
3360,note_on,0,0,1,,,,,,,,,0,,,64,75
3360,control_change,0,0,3,,,,,,,,,2,64,127,,
3360,control_change,0,0,1,,,,,,,,,0,64,127,,
3390,note_on,30,0,4,,,,,,,,,3,,,39,0
3390,note_on,0,0,4,,,,,,,,,3,,,51,36
3390,note_on,0,0,4,,,,,,,,,3,,,40,36
3399,note_on,0,0,2,,,,,,,,,1,,,63,23
3399,note_on,40,0,2,,,,,,,,,1,,,63,0
3420,note_on,30,0,4,,,,,,,,,3,,,51,0
3420,note_on,0,0,4,,,,,,,,,3,,,39,36
3420,note_on,0,0,4,,,,,,,,,3,,,40,0
3439,note_on,40,0,2,,,,,,,,,1,,,63,0
3439,note_on,0,0,2,,,,,,,,,1,,,63,23
3450,note_on,0,0,4,,,,,,,,,3,,,51,36
3450,note_on,30,0,4,,,,,,,,,3,,,39,0
3450,note_on,0,0,4,,,,,,,,,3,,,40,36
3479,note_on,40,0,2,,,,,,,,,1,,,63,0
3479,note_on,0,0,2,,,,,,,,,1,,,63,23
3480,note_on,0,0,3,,,,,,,,,2,,,59,62
3480,note_on,120,0,3,,,,,,,,,2,,,56,0
3480,note_on,120,0,1,,,,,,,,,0,,,64,0
3480,note_on,0,0,4,,,,,,,,,3,,,39,36
3480,note_on,0,0,4,,,,,,,,,3,,,40,0
3480,note_on,30,0,4,,,,,,,,,3,,,51,0
3480,note_on,0,0,1,,,,,,,,,0,,,64,88
3510,note_on,0,0,4,,,,,,,,,3,,,40,36
3510,note_on,0,0,4,,,,,,,,,3,,,51,36
3510,note_on,30,0,4,,,,,,,,,3,,,39,0
3519,note_on,0,0,2,,,,,,,,,1,,,63,23
3519,note_on,0,0,2,,,,,,,,,1,,,65,23
3519,note_on,40,0,2,,,,,,,,,1,,,63,0
3540,note_on,30,0,4,,,,,,,,,3,,,51,0
3540,note_on,0,0,4,,,,,,,,,3,,,39,36
3540,note_on,0,0,4,,,,,,,,,3,,,40,0
3559,note_on,0,0,2,,,,,,,,,1,,,63,0
3559,note_on,0,0,2,,,,,,,,,1,,,63,23
3559,note_on,40,0,2,,,,,,,,,1,,,65,0
3560,note_on,0,0,1,,,,,,,,,0,,,64,88
3560,note_on,80,0,1,,,,,,,,,0,,,64,0
3570,note_on,0,0,4,,,,,,,,,3,,,40,36
3570,note_on,30,0,4,,,,,,,,,3,,,39,0
3570,note_on,0,0,4,,,,,,,,,3,,,51,36
3599,note_on,0,0,2,,,,,,,,,1,,,61,23
3599,note_on,40,0,2,,,,,,,,,1,,,63,0
3600,note_on,0,0,4,,,,,,,,,3,,,39,36
3600,note_on,0,0,4,,,,,,,,,3,,,40,0
3600,note_on,0,0,1,,,,,,,,,0,,,64,101
3600,note_on,30,0,4,,,,,,,,,3,,,51,0
3600,note_on,40,0,1,,,,,,,,,0,,,64,0
3600,note_on,0,0,3,,,,,,,,,2,,,58,62
3600,note_on,120,0,3,,,,,,,,,2,,,59,0
3630,note_on,30,0,4,,,,,,,,,3,,,39,0
3630,note_on,0,0,4,,,,,,,,,3,,,40,36
3630,note_on,0,0,4,,,,,,,,,3,,,51,36
3639,note_on,40,0,2,,,,,,,,,1,,,61,0
3639,note_on,0,0,2,,,,,,,,,1,,,61,23
3660,note_on,0,0,4,,,,,,,,,3,,,39,36
3660,note_on,0,0,4,,,,,,,,,3,,,40,0
3660,note_on,30,0,4,,,,,,,,,3,,,51,0
3679,note_on,40,0,2,,,,,,,,,1,,,61,0
3679,note_on,0,0,2,,,,,,,,,1,,,61,23
3690,note_on,30,0,4,,,,,,,,,3,,,39,0
3690,note_on,0,0,4,,,,,,,,,3,,,40,36
3690,note_on,0,0,4,,,,,,,,,3,,,51,36
3719,note_on,0,0,2,,,,,,,,,1,,,61,23
3719,note_on,40,0,2,,,,,,,,,1,,,61,0
3720,note_on,0,0,4,,,,,,,,,3,,,40,0
3720,note_on,120,0,3,,,,,,,,,2,,,58,0
3720,note_on,0,0,4,,,,,,,,,3,,,39,36
3720,note_on,0,0,1,,,,,,,,,0,,,64,101
3720,note_on,0,0,3,,,,,,,,,2,,,56,62
3720,note_on,30,0,4,,,,,,,,,3,,,51,0
3720,control_change,0,0,3,,,,,,,,,2,64,0,,
3720,note_on,120,0,1,,,,,,,,,0,,,64,0
3750,note_on,30,0,4,,,,,,,,,3,,,39,0
3750,note_on,0,0,4,,,,,,,,,3,,,40,36
3750,note_on,0,0,4,,,,,,,,,3,,,51,36
3759,note_on,0,0,2,,,,,,,,,1,,,61,23
3759,note_on,0,0,2,,,,,,,,,1,,,65,23
3759,note_on,40,0,2,,,,,,,,,1,,,61,0
3780,note_on,0,0,4,,,,,,,,,3,,,39,36
3780,note_on,30,0,4,,,,,,,,,3,,,51,0
3780,note_on,0,0,4,,,,,,,,,3,,,40,0
3799,control_change,0,0,2,,,,,,,,,1,64,0,,
3799,note_on,40,0,2,,,,,,,,,1,,,65,0
3799,note_on,0,0,2,,,,,,,,,1,,,61,0
3799,note_on,0,0,2,,,,,,,,,1,,,61,23
3800,note_on,0,0,1,,,,,,,,,0,,,64,101
3800,note_on,80,0,1,,,,,,,,,0,,,64,0
3800,control_change,0,0,1,,,,,,,,,0,64,0,,
3810,note_on,30,0,4,,,,,,,,,3,,,39,0
3810,control_change,0,0,4,,,,,,,,,3,64,0,,
3810,note_on,0,0,4,,,,,,,,,3,,,51,36
3810,note_on,0,0,4,,,,,,,,,3,,,40,36
3839,control_change,0,0,2,,,,,,,,,1,64,127,,
3839,note_on,40,0,2,,,,,,,,,1,,,61,0
3839,note_on,0,0,2,,,,,,,,,1,,,63,23
3839,note_on,0,0,2,,,,,,,,,1,,,61,23
3840,note_on,40,0,1,,,,,,,,,0,,,64,0
3840,control_change,0,0,1,,,,,,,,,0,64,127,,
3840,control_change,0,0,4,,,,,,,,,3,64,127,,
3840,note_on,120,0,3,,,,,,,,,2,,,56,0
3840,control_change,0,0,3,,,,,,,,,2,64,127,,
3840,note_on,0,0,1,,,,,,,,,0,,,70,127
3840,note_on,0,0,3,,,,,,,,,2,,,55,62
3840,note_on,0,0,4,,,,,,,,,3,,,40,0
3840,note_on,0,0,4,,,,,,,,,3,,,39,36
3840,note_on,30,0,4,,,,,,,,,3,,,51,0
3870,note_on,0,0,4,,,,,,,,,3,,,41,36
3870,note_on,0,0,4,,,,,,,,,3,,,51,36
3870,note_on,30,0,4,,,,,,,,,3,,,39,0
3879,note_on,40,0,2,,,,,,,,,1,,,63,0
3879,note_on,0,0,2,,,,,,,,,1,,,63,23
3879,note_on,0,0,2,,,,,,,,,1,,,61,0
3879,note_on,0,0,2,,,,,,,,,1,,,61,23
3900,note_on,0,0,4,,,,,,,,,3,,,39,36
3900,note_on,30,0,4,,,,,,,,,3,,,51,0
3900,note_on,0,0,4,,,,,,,,,3,,,41,0
3919,note_on,40,0,2,,,,,,,,,1,,,63,0
3919,note_on,0,0,2,,,,,,,,,1,,,61,23
3919,note_on,0,0,2,,,,,,,,,1,,,63,23
3919,note_on,0,0,2,,,,,,,,,1,,,61,0
3930,note_on,0,0,4,,,,,,,,,3,,,51,36
3930,note_on,30,0,4,,,,,,,,,3,,,39,0
3930,note_on,0,0,4,,,,,,,,,3,,,41,36
3959,note_on,0,0,2,,,,,,,,,1,,,61,23
3959,note_on,0,0,2,,,,,,,,,1,,,61,0
3959,note_on,0,0,2,,,,,,,,,1,,,63,23
3959,note_on,40,0,2,,,,,,,,,1,,,63,0
3960,note_on,0,0,4,,,,,,,,,3,,,39,36
3960,note_on,30,0,4,,,,,,,,,3,,,51,0
3960,note_on,0,0,4,,,,,,,,,3,,,41,0
3990,note_on,0,0,4,,,,,,,,,3,,,51,36
3990,note_on,0,0,4,,,,,,,,,3,,,41,36
3990,note_on,30,0,4,,,,,,,,,3,,,39,0
3999,note_on,0,0,2,,,,,,,,,1,,,61,0
3999,note_on,40,0,2,,,,,,,,,1,,,63,0
3999,note_on,0,0,2,,,,,,,,,1,,,61,23
3999,note_on,0,0,2,,,,,,,,,1,,,63,23
4020,note_on,0,0,4,,,,,,,,,3,,,41,0
4020,note_on,0,0,4,,,,,,,,,3,,,39,36
4020,note_on,30,0,4,,,,,,,,,3,,,51,0
4039,note_on,0,0,2,,,,,,,,,1,,,61,0
4039,note_on,0,0,2,,,,,,,,,1,,,61,23
4039,note_on,0,0,2,,,,,,,,,1,,,63,23
4039,note_on,40,0,2,,,,,,,,,1,,,63,0
4050,note_on,30,0,4,,,,,,,,,3,,,39,0
4050,note_on,0,0,4,,,,,,,,,3,,,41,36
4050,note_on,0,0,4,,,,,,,,,3,,,51,36
4079,note_on,0,0,2,,,,,,,,,1,,,61,0
4079,note_on,0,0,2,,,,,,,,,1,,,61,23
4079,note_on,40,0,2,,,,,,,,,1,,,63,0
4079,note_on,0,0,2,,,,,,,,,1,,,63,23
4080,note_on,0,0,4,,,,,,,,,3,,,41,0
4080,note_on,0,0,4,,,,,,,,,3,,,39,36
4080,note_on,240,0,3,,,,,,,,,2,,,55,0
4080,note_on,0,0,3,,,,,,,,,2,,,53,62
4080,note_on,30,0,4,,,,,,,,,3,,,51,0
4110,note_on,0,0,4,,,,,,,,,3,,,51,36
4110,note_on,0,0,4,,,,,,,,,3,,,41,36
4110,note_on,30,0,4,,,,,,,,,3,,,39,0
4119,note_on,0,0,2,,,,,,,,,1,,,63,23
4119,note_on,40,0,2,,,,,,,,,1,,,63,0
4119,note_on,0,0,2,,,,,,,,,1,,,61,0
4119,note_on,0,0,2,,,,,,,,,1,,,61,23
4140,note_on,0,0,4,,,,,,,,,3,,,39,36
4140,note_on,30,0,4,,,,,,,,,3,,,51,0
4140,note_on,0,0,4,,,,,,,,,3,,,41,0
4159,note_on,0,0,2,,,,,,,,,1,,,63,23
4159,note_on,0,0,2,,,,,,,,,1,,,61,23
4159,note_on,0,0,2,,,,,,,,,1,,,61,0
4159,note_on,40,0,2,,,,,,,,,1,,,63,0
4170,note_on,0,0,4,,,,,,,,,3,,,41,36
4170,note_on,0,0,4,,,,,,,,,3,,,51,36
4170,note_on,30,0,4,,,,,,,,,3,,,39,0
4199,note_on,40,0,2,,,,,,,,,1,,,63,0
4199,note_on,0,0,2,,,,,,,,,1,,,61,23
4199,note_on,0,0,2,,,,,,,,,1,,,61,0
4200,note_on,360,0,1,,,,,,,,,0,,,70,0
4200,note_on,0,0,4,,,,,,,,,3,,,41,0
4200,note_on,0,0,4,,,,,,,,,3,,,39,36
4200,note_on,30,0,4,,,,,,,,,3,,,51,0
4200,note_on,0,0,1,,,,,,,,,0,,,63,101
4200,control_change,0,0,3,,,,,,,,,2,64,0,,
4200,note_on,120,0,3,,,,,,,,,2,,,53,0
4200,note_on,0,0,3,,,,,,,,,2,,,56,62
4230,note_on,0,0,4,,,,,,,,,3,,,41,36
4230,note_on,0,0,4,,,,,,,,,3,,,51,36
4230,note_on,30,0,4,,,,,,,,,3,,,39,0
4239,note_on,0,0,2,,,,,,,,,1,,,63,23
4239,note_on,0,0,2,,,,,,,,,1,,,61,23
4239,note_on,40,0,2,,,,,,,,,1,,,61,0
4240,note_on,40,0,1,,,,,,,,,0,,,63,0
4260,note_on,30,0,4,,,,,,,,,3,,,51,0
4260,note_on,0,0,4,,,,,,,,,3,,,39,36
4260,note_on,0,0,4,,,,,,,,,3,,,41,0
4279,note_on,0,0,2,,,,,,,,,1,,,61,23
4279,note_on,40,0,2,,,,,,,,,1,,,63,0
4279,note_on,0,0,2,,,,,,,,,1,,,61,0
4279,control_change,0,0,2,,,,,,,,,1,64,0,,
4280,note_on,0,0,1,,,,,,,,,0,,,63,88
4280,control_change,40,0,1,,,,,,,,,0,64,0,,
4290,note_on,0,0,4,,,,,,,,,3,,,51,36
4290,note_on,0,0,4,,,,,,,,,3,,,41,36
4290,note_on,30,0,4,,,,,,,,,3,,,39,0
4290,control_change,0,0,4,,,,,,,,,3,64,0,,
4319,control_change,0,0,2,,,,,,,,,1,64,127,,
4319,note_on,0,0,2,,,,,,,,,1,,,61,23
4319,note_on,40,0,2,,,,,,,,,1,,,61,0
4320,note_on,0,0,4,,,,,,,,,3,,,41,0
4320,note_on,0,0,3,,,,,,,,,2,,,55,62
4320,note_on,0,0,4,,,,,,,,,3,,,39,36
4320,control_change,0,0,3,,,,,,,,,2,64,127,,
4320,control_change,0,0,4,,,,,,,,,3,64,127,,
4320,note_on,120,0,3,,,,,,,,,2,,,56,0
4320,note_on,30,0,4,,,,,,,,,3,,,51,0
4320,note_on,0,0,1,,,,,,,,,0,,,63,75
4320,note_on,40,0,1,,,,,,,,,0,,,63,0
4320,control_change,0,0,1,,,,,,,,,0,64,127,,
4350,note_on,0,0,4,,,,,,,,,3,,,51,36
4350,note_on,0,0,4,,,,,,,,,3,,,41,36
4350,note_on,30,0,4,,,,,,,,,3,,,39,0
4359,note_on,0,0,2,,,,,,,,,1,,,61,23
4359,note_on,0,0,2,,,,,,,,,1,,,63,23
4359,note_on,40,0,2,,,,,,,,,1,,,61,0
4380,note_on,0,0,4,,,,,,,,,3,,,39,36
4380,note_on,0,0,4,,,,,,,,,3,,,41,0
4380,note_on,30,0,4,,,,,,,,,3,,,51,0
4399,note_on,0,0,2,,,,,,,,,1,,,63,23
4399,note_on,0,0,2,,,,,,,,,1,,,61,23
4399,note_on,0,0,2,,,,,,,,,1,,,61,0
4399,note_on,40,0,2,,,,,,,,,1,,,63,0
4410,note_on,0,0,4,,,,,,,,,3,,,51,36
4410,note_on,0,0,4,,,,,,,,,3,,,41,36
4410,note_on,30,0,4,,,,,,,,,3,,,39,0
4439,note_on,0,0,2,,,,,,,,,1,,,61,23
4439,note_on,0,0,2,,,,,,,,,1,,,61,0
4439,note_on,40,0,2,,,,,,,,,1,,,63,0
4440,note_on,0,0,4,,,,,,,,,3,,,39,36
4440,note_on,30,0,4,,,,,,,,,3,,,51,0
4440,note_on,0,0,4,,,,,,,,,3,,,41,0
4440,note_on,120,0,3,,,,,,,,,2,,,55,0
4440,note_on,0,0,3,,,,,,,,,2,,,58,62
4440,note_on,120,0,1,,,,,,,,,0,,,63,0
4440,note_on,0,0,1,,,,,,,,,0,,,63,88
4470,note_on,30,0,4,,,,,,,,,3,,,39,0
4470,note_on,0,0,4,,,,,,,,,3,,,41,36
4470,note_on,0,0,4,,,,,,,,,3,,,51,36
4479,note_on,40,0,2,,,,,,,,,1,,,61,0
4479,note_on,0,0,2,,,,,,,,,1,,,61,23
4479,note_on,0,0,2,,,,,,,,,1,,,63,23
4480,note_on,40,0,1,,,,,,,,,0,,,63,0
4500,note_on,30,0,4,,,,,,,,,3,,,51,0
4500,note_on,0,0,4,,,,,,,,,3,,,41,0
4500,note_on,0,0,4,,,,,,,,,3,,,39,36
4519,note_on,40,0,2,,,,,,,,,1,,,63,0
4519,note_on,0,0,2,,,,,,,,,1,,,61,23
4519,note_on,0,0,2,,,,,,,,,1,,,61,0
4520,note_on,40,0,1,,,,,,,,,0,,,63,101
4530,note_on,30,0,4,,,,,,,,,3,,,39,0
4530,note_on,0,0,4,,,,,,,,,3,,,41,36
4530,note_on,0,0,4,,,,,,,,,3,,,51,36
4559,note_on,40,0,2,,,,,,,,,1,,,61,0
4559,note_on,0,0,2,,,,,,,,,1,,,59,23
4560,note_on,0,0,4,,,,,,,,,3,,,41,0
4560,note_on,0,0,3,,,,,,,,,2,,,56,62
4560,note_on,0,0,4,,,,,,,,,3,,,39,36
4560,note_on,40,0,1,,,,,,,,,0,,,63,0
4560,note_on,30,0,4,,,,,,,,,3,,,51,0
4560,note_on,0,0,1,,,,,,,,,0,,,63,101
4560,note_on,120,0,3,,,,,,,,,2,,,58,0
4590,note_on,30,0,4,,,,,,,,,3,,,39,0
4590,note_on,0,0,4,,,,,,,,,3,,,41,36
4590,note_on,0,0,4,,,,,,,,,3,,,51,36
4599,note_on,0,0,2,,,,,,,,,1,,,59,23
4599,note_on,40,0,2,,,,,,,,,1,,,59,0
4620,note_on,0,0,4,,,,,,,,,3,,,39,36
4620,note_on,30,0,4,,,,,,,,,3,,,51,0
4620,note_on,0,0,4,,,,,,,,,3,,,41,0
4639,note_on,0,0,2,,,,,,,,,1,,,59,23
4639,note_on,40,0,2,,,,,,,,,1,,,59,0
4650,note_on,0,0,4,,,,,,,,,3,,,41,36
4650,note_on,30,0,4,,,,,,,,,3,,,39,0
4650,note_on,0,0,4,,,,,,,,,3,,,51,36
4679,note_on,0,0,2,,,,,,,,,1,,,58,23
4679,note_on,40,0,2,,,,,,,,,1,,,59,0
4680,note_on,30,0,4,,,,,,,,,3,,,51,0
4680,note_on,0,0,4,,,,,,,,,3,,,41,0
4680,note_on,120,0,1,,,,,,,,,0,,,63,0
4680,note_on,0,0,4,,,,,,,,,3,,,39,36
4680,note_on,120,0,3,,,,,,,,,2,,,56,0
4680,note_on,0,0,1,,,,,,,,,0,,,63,101
4680,control_change,0,0,3,,,,,,,,,2,64,0,,
4680,note_on,0,0,3,,,,,,,,,2,,,55,62
4710,note_on,0,0,4,,,,,,,,,3,,,51,36
4710,note_on,0,0,4,,,,,,,,,3,,,41,36
4710,note_on,30,0,4,,,,,,,,,3,,,39,0
4719,note_on,0,0,2,,,,,,,,,1,,,58,23
4719,note_on,40,0,2,,,,,,,,,1,,,58,0
4719,note_on,39,0,1,,,,,,,,,0,,,63,88
4720,note_on,1,0,1,,,,,,,,,0,,,63,0
4740,note_on,0,0,4,,,,,,,,,3,,,39,36
4740,note_on,30,0,4,,,,,,,,,3,,,51,0
4740,note_on,0,0,4,,,,,,,,,3,,,41,0
4759,note_on,40,0,2,,,,,,,,,1,,,58,0
4759,note_on,39,0,1,,,,,,,,,0,,,63,0
4759,note_on,0,0,2,,,,,,,,,1,,,58,23
4759,control_change,0,0,2,,,,,,,,,1,64,0,,
4760,note_on,0,0,1,,,,,,,,,0,,,63,75
4760,control_change,1,0,1,,,,,,,,,0,64,0,,
4770,note_on,30,0,4,,,,,,,,,3,,,39,0
4770,control_change,0,0,4,,,,,,,,,3,64,0,,
4770,note_on,0,0,4,,,,,,,,,3,,,51,36
4770,note_on,0,0,4,,,,,,,,,3,,,41,36
4799,control_change,0,0,2,,,,,,,,,1,64,127,,
4799,note_on,40,0,2,,,,,,,,,1,,,58,0
4799,note_on,0,0,2,,,,,,,,,1,,,63,23
4799,note_on,0,0,2,,,,,,,,,1,,,68,23
4800,note_on,0,0,3,,,,,,,,,2,,,56,62
4800,note_on,120,0,3,,,,,,,,,2,,,55,0
4800,control_change,0,0,4,,,,,,,,,3,64,127,,
4800,control_change,0,0,3,,,,,,,,,2,64,127,,
4800,note_on,0,0,1,,,,,,,,,0,,,71,114
4800,note_on,0,0,4,,,,,,,,,3,,,41,0
4800,note_on,0,0,4,,,,,,,,,3,,,40,36
4800,note_on,40,0,1,,,,,,,,,0,,,63,0
4800,note_on,30,0,4,,,,,,,,,3,,,51,0
4830,note_on,0,0,4,,,,,,,,,3,,,52,36
4830,note_on,0,0,4,,,,,,,,,3,,,43,36
4830,note_on,30,0,4,,,,,,,,,3,,,40,0
4839,note_on,0,0,2,,,,,,,,,1,,,68,23
4839,note_on,0,0,2,,,,,,,,,1,,,63,23
4839,note_on,0,0,2,,,,,,,,,1,,,63,0
4839,note_on,40,0,2,,,,,,,,,1,,,68,0
4860,note_on,30,0,4,,,,,,,,,3,,,52,0
4860,note_on,0,0,4,,,,,,,,,3,,,43,0
4860,note_on,0,0,4,,,,,,,,,3,,,40,36
4879,note_on,0,0,2,,,,,,,,,1,,,63,23
4879,note_on,0,0,2,,,,,,,,,1,,,68,23
4879,note_on,40,0,2,,,,,,,,,1,,,68,0
4879,note_on,0,0,2,,,,,,,,,1,,,63,0
4890,note_on,0,0,4,,,,,,,,,3,,,52,36
4890,note_on,30,0,4,,,,,,,,,3,,,40,0
4890,note_on,0,0,4,,,,,,,,,3,,,43,36
4919,note_on,0,0,2,,,,,,,,,1,,,63,0
4919,note_on,0,0,2,,,,,,,,,1,,,63,23
4919,note_on,40,0,2,,,,,,,,,1,,,68,0
4919,note_on,0,0,2,,,,,,,,,1,,,68,23
4920,note_on,0,0,4,,,,,,,,,3,,,40,36
4920,note_on,30,0,4,,,,,,,,,3,,,52,0
4920,note_on,0,0,4,,,,,,,,,3,,,43,0
4950,note_on,30,0,4,,,,,,,,,3,,,40,0
4950,note_on,0,0,4,,,,,,,,,3,,,43,36
4950,note_on,0,0,4,,,,,,,,,3,,,52,36
4959,note_on,0,0,2,,,,,,,,,1,,,63,23
4959,note_on,0,0,2,,,,,,,,,1,,,68,23
4959,note_on,0,0,2,,,,,,,,,1,,,63,0
4959,note_on,40,0,2,,,,,,,,,1,,,68,0
4980,note_on,0,0,4,,,,,,,,,3,,,43,0
4980,note_on,30,0,4,,,,,,,,,3,,,52,0
4980,note_on,0,0,4,,,,,,,,,3,,,40,36
4999,note_on,40,0,2,,,,,,,,,1,,,68,0
4999,note_on,0,0,2,,,,,,,,,1,,,63,23
4999,note_on,0,0,2,,,,,,,,,1,,,63,0
4999,note_on,0,0,2,,,,,,,,,1,,,68,23
5010,note_on,30,0,4,,,,,,,,,3,,,40,0
5010,note_on,0,0,4,,,,,,,,,3,,,52,36
5010,note_on,0,0,4,,,,,,,,,3,,,43,36
5039,note_on,0,0,2,,,,,,,,,1,,,63,0
5039,note_on,0,0,2,,,,,,,,,1,,,62,23
5039,note_on,0,0,2,,,,,,,,,1,,,68,23
5039,note_on,40,0,2,,,,,,,,,1,,,68,0
5040,note_on,0,0,3,,,,,,,,,2,,,59,62
5040,note_on,240,0,3,,,,,,,,,2,,,56,0
5040,note_on,30,0,4,,,,,,,,,3,,,52,0
5040,note_on,0,0,4,,,,,,,,,3,,,40,36
5040,note_on,0,0,4,,,,,,,,,3,,,43,0
5070,note_on,0,0,4,,,,,,,,,3,,,43,36
5070,note_on,0,0,4,,,,,,,,,3,,,52,36
5070,note_on,30,0,4,,,,,,,,,3,,,40,0
5079,note_on,0,0,2,,,,,,,,,1,,,68,23
5079,note_on,0,0,2,,,,,,,,,1,,,62,0
5079,note_on,0,0,2,,,,,,,,,1,,,62,23
5079,note_on,40,0,2,,,,,,,,,1,,,68,0
5100,note_on,30,0,4,,,,,,,,,3,,,52,0
5100,note_on,0,0,4,,,,,,,,,3,,,43,0
5100,note_on,0,0,4,,,,,,,,,3,,,40,36
5119,note_on,0,0,2,,,,,,,,,1,,,62,0
5119,note_on,0,0,2,,,,,,,,,1,,,62,23
5119,note_on,0,0,2,,,,,,,,,1,,,68,23
5119,note_on,40,0,2,,,,,,,,,1,,,68,0
5130,note_on,30,0,4,,,,,,,,,3,,,40,0
5130,note_on,0,0,4,,,,,,,,,3,,,43,36
5130,note_on,0,0,4,,,,,,,,,3,,,52,36
5159,note_on,0,0,2,,,,,,,,,1,,,62,23
5159,note_on,0,0,2,,,,,,,,,1,,,68,23
5159,note_on,0,0,2,,,,,,,,,1,,,62,0
5159,note_on,40,0,2,,,,,,,,,1,,,68,0
5160,note_on,0,0,4,,,,,,,,,3,,,43,0
5160,note_on,0,0,4,,,,,,,,,3,,,40,36
5160,note_on,30,0,4,,,,,,,,,3,,,52,0
5190,note_on,30,0,4,,,,,,,,,3,,,40,0
5190,note_on,0,0,4,,,,,,,,,3,,,52,36
5190,note_on,0,0,4,,,,,,,,,3,,,43,36
5199,note_on,40,0,2,,,,,,,,,1,,,68,0
5199,note_on,0,0,2,,,,,,,,,1,,,62,0
5199,note_on,0,0,2,,,,,,,,,1,,,62,23
5199,note_on,0,0,2,,,,,,,,,1,,,68,23
5220,note_on,0,0,4,,,,,,,,,3,,,39,36
5220,note_on,0,0,4,,,,,,,,,3,,,43,0
5220,note_on,30,0,4,,,,,,,,,3,,,52,0
5239,note_on,40,0,2,,,,,,,,,1,,,68,0
5239,control_change,0,0,2,,,,,,,,,1,64,0,,
5239,note_on,0,0,2,,,,,,,,,1,,,62,0
5239,note_on,0,0,2,,,,,,,,,1,,,62,23
5239,note_on,0,0,2,,,,,,,,,1,,,68,23
5250,note_on,210,0,3,,,,,,,,,2,,,59,0
5250,note_on,0,0,3,,,,,,,,,2,,,60,62
5250,note_on,30,0,4,,,,,,,,,3,,,39,0
5250,control_change,0,0,4,,,,,,,,,3,64,0,,
5250,control_change,0,0,3,,,,,,,,,2,64,0,,
5250,note_on,0,0,4,,,,,,,,,3,,,40,36
5279,note_on,40,0,2,,,,,,,,,1,,,68,0
5279,note_on,0,0,2,,,,,,,,,1,,,62,0
5279,note_on,0,0,2,,,,,,,,,1,,,68,23
5279,note_on,0,0,2,,,,,,,,,1,,,72,23
5279,control_change,0,0,2,,,,,,,,,1,64,127,,
5280,control_change,0,0,4,,,,,,,,,3,64,127,,
5280,note_on,480,0,1,,,,,,,,,0,,,71,0
5280,note_on,30,0,4,,,,,,,,,3,,,40,0
5280,note_on,0,0,3,,,,,,,,,2,,,49,62
5280,note_on,0,0,1,,,,,,,,,0,,,61,101
5280,note_on,0,0,1,,,,,,,,,0,,,73,101
5280,note_on,30,0,3,,,,,,,,,2,,,60,0
5280,note_on,0,0,3,,,,,,,,,2,,,44,62
5280,control_change,0,0,3,,,,,,,,,2,64,127,,
5280,note_on,0,0,4,,,,,,,,,3,,,41,36
5280,control_change,0,0,1,,,,,,,,,0,64,127,,
5310,note_on,0,0,4,,,,,,,,,3,,,43,36
5310,note_on,0,0,4,,,,,,,,,3,,,53,36
5310,note_on,30,0,4,,,,,,,,,3,,,41,0
5319,note_on,0,0,2,,,,,,,,,1,,,68,23
5319,note_on,0,0,2,,,,,,,,,1,,,72,23
5319,note_on,0,0,2,,,,,,,,,1,,,68,0
5319,note_on,40,0,2,,,,,,,,,1,,,72,0
5340,note_on,60,0,3,,,,,,,,,2,,,49,0
5340,note_on,30,0,4,,,,,,,,,3,,,53,0
5340,note_on,0,0,3,,,,,,,,,2,,,44,0
5340,note_on,0,0,4,,,,,,,,,3,,,41,36
5340,note_on,0,0,4,,,,,,,,,3,,,43,0
5359,note_on,0,0,2,,,,,,,,,1,,,72,23
5359,note_on,0,0,2,,,,,,,,,1,,,68,23
5359,note_on,40,0,2,,,,,,,,,1,,,72,0
5359,note_on,0,0,2,,,,,,,,,1,,,68,0
5370,note_on,0,0,4,,,,,,,,,3,,,43,36
5370,note_on,30,0,4,,,,,,,,,3,,,41,0
5370,note_on,0,0,4,,,,,,,,,3,,,53,36
5399,note_on,0,0,2,,,,,,,,,1,,,68,0
5399,note_on,40,0,2,,,,,,,,,1,,,72,0
5399,note_on,0,0,2,,,,,,,,,1,,,68,23
5399,note_on,0,0,2,,,,,,,,,1,,,72,23
5400,note_on,30,0,4,,,,,,,,,3,,,53,0
5400,note_on,0,0,1,,,,,,,,,0,,,73,101
5400,note_on,0,0,4,,,,,,,,,3,,,43,0
5400,note_on,0,0,1,,,,,,,,,0,,,61,101
5400,note_on,120,0,1,,,,,,,,,0,,,73,0
5400,note_on,0,0,1,,,,,,,,,0,,,61,0
5400,note_on,0,0,4,,,,,,,,,3,,,41,36
5430,note_on,0,0,4,,,,,,,,,3,,,53,36
5430,note_on,30,0,4,,,,,,,,,3,,,41,0
5430,note_on,0,0,4,,,,,,,,,3,,,43,36
5439,note_on,0,0,2,,,,,,,,,1,,,68,0
5439,note_on,0,0,2,,,,,,,,,1,,,72,23
5439,note_on,40,0,2,,,,,,,,,1,,,72,0
5439,note_on,0,0,2,,,,,,,,,1,,,68,23
5460,note_on,30,0,4,,,,,,,,,3,,,53,0
5460,note_on,0,0,1,,,,,,,,,0,,,61,0
5460,note_on,0,0,1,,,,,,,,,0,,,61,101
5460,note_on,0,0,1,,,,,,,,,0,,,73,101
5460,note_on,0,0,4,,,,,,,,,3,,,43,0
5460,note_on,0,0,4,,,,,,,,,3,,,41,36
5460,note_on,60,0,1,,,,,,,,,0,,,73,0
5479,note_on,0,0,2,,,,,,,,,1,,,68,23
5479,note_on,0,0,2,,,,,,,,,1,,,68,0
5479,note_on,0,0,2,,,,,,,,,1,,,72,23
5479,note_on,40,0,2,,,,,,,,,1,,,72,0
5490,note_on,30,0,4,,,,,,,,,3,,,41,0
5490,note_on,0,0,4,,,,,,,,,3,,,43,36
5490,note_on,0,0,4,,,,,,,,,3,,,53,36
5519,note_on,40,0,2,,,,,,,,,1,,,72,0
5519,note_on,0,0,2,,,,,,,,,1,,,68,0
5519,note_on,0,0,2,,,,,,,,,1,,,68,23
5519,note_on,0,0,2,,,,,,,,,1,,,72,23
5520,note_on,180,0,3,,,,,,,,,2,,,47,62
5520,note_on,60,0,1,,,,,,,,,0,,,73,0
5520,note_on,0,0,3,,,,,,,,,2,,,50,62
5520,note_on,0,0,4,,,,,,,,,3,,,41,36
5520,note_on,0,0,4,,,,,,,,,3,,,43,0
5520,note_on,0,0,1,,,,,,,,,0,,,74,127
5520,note_on,0,0,1,,,,,,,,,0,,,62,127
5520,note_on,0,0,1,,,,,,,,,0,,,61,0
5520,note_on,30,0,4,,,,,,,,,3,,,53,0
5550,note_on,30,0,4,,,,,,,,,3,,,41,0
5550,note_on,0,0,4,,,,,,,,,3,,,53,36
5550,note_on,0,0,4,,,,,,,,,3,,,43,36
5559,note_on,0,0,2,,,,,,,,,1,,,72,23
5559,note_on,0,0,2,,,,,,,,,1,,,68,0
5559,note_on,0,0,2,,,,,,,,,1,,,68,23
5559,note_on,40,0,2,,,,,,,,,1,,,72,0
5580,note_on,0,0,4,,,,,,,,,3,,,41,36
5580,note_on,0,0,4,,,,,,,,,3,,,43,0
5580,note_on,30,0,4,,,,,,,,,3,,,53,0
5599,note_on,40,0,2,,,,,,,,,1,,,72,0
5599,note_on,0,0,2,,,,,,,,,1,,,68,23
5599,note_on,0,0,2,,,,,,,,,1,,,72,23
5599,note_on,0,0,2,,,,,,,,,1,,,68,0
5610,note_on,0,0,4,,,,,,,,,3,,,43,36
5610,note_on,0,0,4,,,,,,,,,3,,,53,36
5610,note_on,30,0,4,,,,,,,,,3,,,41,0
5639,note_on,40,0,2,,,,,,,,,1,,,72,0
5639,note_on,0,0,2,,,,,,,,,1,,,72,23
5639,note_on,0,0,2,,,,,,,,,1,,,68,23
5639,note_on,0,0,2,,,,,,,,,1,,,68,0
5640,note_on,0,0,3,,,,,,,,,2,,,44,62
5640,note_on,0,0,4,,,,,,,,,3,,,43,0
5640,note_on,0,0,4,,,,,,,,,3,,,41,36
5640,note_on,120,0,3,,,,,,,,,2,,,50,0
5640,note_on,0,0,1,,,,,,,,,0,,,73,101
5640,note_on,0,0,3,,,,,,,,,2,,,49,62
5640,note_on,0,0,3,,,,,,,,,2,,,47,0
5640,note_on,120,0,1,,,,,,,,,0,,,74,0
5640,note_on,30,0,4,,,,,,,,,3,,,53,0
5640,note_on,0,0,1,,,,,,,,,0,,,61,101
5640,control_change,0,0,3,,,,,,,,,2,64,0,,
5640,note_on,0,0,1,,,,,,,,,0,,,62,0
5670,note_on,0,0,4,,,,,,,,,3,,,53,36
5670,note_on,0,0,4,,,,,,,,,3,,,43,36
5670,note_on,30,0,4,,,,,,,,,3,,,41,0
5679,note_on,0,0,2,,,,,,,,,1,,,68,0
5679,note_on,40,0,2,,,,,,,,,1,,,72,0
5679,note_on,0,0,2,,,,,,,,,1,,,72,23
5679,note_on,0,0,2,,,,,,,,,1,,,68,23
5700,note_on,60,0,1,,,,,,,,,0,,,73,0
5700,note_on,60,0,3,,,,,,,,,2,,,49,0
5700,control_change,0,0,1,,,,,,,,,0,64,0,,
5700,note_on,0,0,1,,,,,,,,,0,,,61,0
5700,note_on,30,0,4,,,,,,,,,3,,,53,0
5700,note_on,0,0,1,,,,,,,,,0,,,61,101
5700,note_on,0,0,1,,,,,,,,,0,,,73,101
5700,note_on,0,0,3,,,,,,,,,2,,,44,0
5700,note_on,0,0,4,,,,,,,,,3,,,43,0
5700,note_on,0,0,4,,,,,,,,,3,,,40,36
5719,note_on,0,0,2,,,,,,,,,1,,,72,23
5719,note_on,0,0,2,,,,,,,,,1,,,68,23
5719,note_on,40,0,2,,,,,,,,,1,,,72,0
5719,note_on,0,0,2,,,,,,,,,1,,,68,0
5719,control_change,0,0,2,,,,,,,,,1,64,0,,
5730,control_change,0,0,4,,,,,,,,,3,64,0,,
5730,note_on,30,0,4,,,,,,,,,3,,,40,0
5730,note_on,0,0,4,,,,,,,,,3,,,41,36
5759,note_on,0,0,2,,,,,,,,,1,,,68,0
5759,note_on,40,0,2,,,,,,,,,1,,,72,0
5759,note_on,0,0,2,,,,,,,,,1,,,66,23
5759,control_change,0,0,2,,,,,,,,,1,64,127,,
5759,note_on,0,0,2,,,,,,,,,1,,,70,23
5760,note_on,0,0,4,,,,,,,,,3,,,42,36
5760,note_on,30,0,4,,,,,,,,,3,,,41,0
5760,note_on,60,0,1,,,,,,,,,0,,,73,0
5760,control_change,0,0,4,,,,,,,,,3,64,127,,
5760,note_on,60,0,3,,,,,,,,,2,,,46,62
5760,note_on,0,0,3,,,,,,,,,2,,,49,62
5760,note_on,0,0,1,,,,,,,,,0,,,61,101
5760,note_on,0,0,1,,,,,,,,,0,,,73,101
5760,note_on,0,0,1,,,,,,,,,0,,,61,0
5790,note_on,0,0,4,,,,,,,,,3,,,54,36
5790,note_on,0,0,4,,,,,,,,,3,,,44,36
5790,note_on,30,0,4,,,,,,,,,3,,,42,0
5799,note_on,0,0,2,,,,,,,,,1,,,70,23
5799,note_on,0,0,2,,,,,,,,,1,,,66,23
5799,note_on,0,0,2,,,,,,,,,1,,,66,0
5799,note_on,40,0,2,,,,,,,,,1,,,70,0
5820,note_on,0,0,4,,,,,,,,,3,,,44,0
5820,note_on,0,0,4,,,,,,,,,3,,,42,36
5820,note_on,30,0,4,,,,,,,,,3,,,54,0
5820,note_on,0,0,3,,,,,,,,,2,,,46,0
5820,note_on,60,0,3,,,,,,,,,2,,,49,0
5839,note_on,40,0,2,,,,,,,,,1,,,70,0
5839,note_on,0,0,2,,,,,,,,,1,,,66,0
5839,note_on,0,0,2,,,,,,,,,1,,,66,23
5839,note_on,0,0,2,,,,,,,,,1,,,70,23
5850,note_on,30,0,4,,,,,,,,,3,,,42,0
5850,note_on,0,0,4,,,,,,,,,3,,,54,36
5850,note_on,0,0,4,,,,,,,,,3,,,44,36
5879,note_on,0,0,2,,,,,,,,,1,,,66,23
5879,note_on,0,0,2,,,,,,,,,1,,,66,0
5879,note_on,40,0,2,,,,,,,,,1,,,70,0
5879,note_on,0,0,2,,,,,,,,,1,,,70,23
5880,note_on,0,0,4,,,,,,,,,3,,,42,36
5880,note_on,0,0,4,,,,,,,,,3,,,44,0
5880,note_on,30,0,4,,,,,,,,,3,,,54,0
5910,note_on,30,0,4,,,,,,,,,3,,,42,0
5910,note_on,0,0,4,,,,,,,,,3,,,44,36
5910,note_on,0,0,4,,,,,,,,,3,,,54,36
5919,note_on,0,0,2,,,,,,,,,1,,,66,0
5919,note_on,0,0,2,,,,,,,,,1,,,66,23
5919,note_on,0,0,2,,,,,,,,,1,,,70,23
5919,note_on,40,0,2,,,,,,,,,1,,,70,0
5940,note_on,0,0,4,,,,,,,,,3,,,44,0
5940,note_on,0,0,4,,,,,,,,,3,,,42,36
5940,note_on,30,0,4,,,,,,,,,3,,,54,0
5959,note_on,0,0,2,,,,,,,,,1,,,66,23
5959,note_on,0,0,2,,,,,,,,,1,,,70,23
5959,note_on,0,0,2,,,,,,,,,1,,,66,0
5959,note_on,40,0,2,,,,,,,,,1,,,70,0
5970,note_on,0,0,4,,,,,,,,,3,,,44,36
5970,note_on,0,0,4,,,,,,,,,3,,,54,36
5970,note_on,30,0,4,,,,,,,,,3,,,42,0
5999,note_on,0,0,2,,,,,,,,,1,,,65,23
5999,note_on,0,0,2,,,,,,,,,1,,,66,0
5999,note_on,0,0,2,,,,,,,,,1,,,70,23
5999,note_on,40,0,2,,,,,,,,,1,,,70,0
6000,note_on,0,0,4,,,,,,,,,3,,,42,36
6000,note_on,0,0,4,,,,,,,,,3,,,44,0
6000,note_on,30,0,4,,,,,,,,,3,,,54,0
6030,note_on,0,0,4,,,,,,,,,3,,,44,36
6030,note_on,30,0,4,,,,,,,,,3,,,42,0
6030,note_on,0,0,4,,,,,,,,,3,,,54,36
6039,note_on,40,0,2,,,,,,,,,1,,,70,0
6039,note_on,0,0,2,,,,,,,,,1,,,65,0
6039,note_on,0,0,2,,,,,,,,,1,,,65,23
6039,note_on,0,0,2,,,,,,,,,1,,,70,23
6060,note_on,0,0,4,,,,,,,,,3,,,42,36
6060,note_on,30,0,4,,,,,,,,,3,,,54,0
6060,note_on,0,0,4,,,,,,,,,3,,,44,0
6079,note_on,40,0,2,,,,,,,,,1,,,70,0
6079,note_on,0,0,2,,,,,,,,,1,,,65,0
6079,note_on,0,0,2,,,,,,,,,1,,,65,23
6079,note_on,0,0,2,,,,,,,,,1,,,70,23
6090,note_on,30,0,4,,,,,,,,,3,,,42,0
6090,note_on,0,0,4,,,,,,,,,3,,,54,36
6090,note_on,0,0,4,,,,,,,,,3,,,44,36
6119,note_on,40,0,2,,,,,,,,,1,,,70,0
6119,note_on,0,0,2,,,,,,,,,1,,,70,23
6119,note_on,0,0,2,,,,,,,,,1,,,65,0
6119,note_on,0,0,2,,,,,,,,,1,,,64,23
6120,note_on,0,0,4,,,,,,,,,3,,,42,36
6120,note_on,0,0,4,,,,,,,,,3,,,44,0
6120,note_on,30,0,4,,,,,,,,,3,,,54,0
6150,note_on,30,0,4,,,,,,,,,3,,,42,0
6150,note_on,0,0,4,,,,,,,,,3,,,44,36
6150,note_on,0,0,4,,,,,,,,,3,,,54,36
6159,note_on,40,0,2,,,,,,,,,1,,,70,0
6159,note_on,0,0,2,,,,,,,,,1,,,64,0
6159,note_on,0,0,2,,,,,,,,,1,,,64,23
6159,note_on,0,0,2,,,,,,,,,1,,,70,23
6180,note_on,0,0,4,,,,,,,,,3,,,41,36
6180,note_on,30,0,4,,,,,,,,,3,,,54,0
6180,note_on,0,0,4,,,,,,,,,3,,,44,0
6199,note_on,0,0,2,,,,,,,,,1,,,64,23
6199,note_on,0,0,2,,,,,,,,,1,,,64,0
6199,note_on,40,0,2,,,,,,,,,1,,,70,0
6199,note_on,0,0,2,,,,,,,,,1,,,70,23
6199,control_change,0,0,2,,,,,,,,,1,64,0,,
6210,note_on,30,0,4,,,,,,,,,3,,,41,0
6210,control_change,0,0,4,,,,,,,,,3,64,0,,
6210,note_on,0,0,4,,,,,,,,,3,,,42,36
6239,control_change,0,0,2,,,,,,,,,1,64,127,,
6239,note_on,0,0,2,,,,,,,,,1,,,64,0
6239,note_on,0,0,2,,,,,,,,,1,,,73,23
6239,note_on,40,0,2,,,,,,,,,1,,,70,0
6239,note_on,0,0,2,,,,,,,,,1,,,70,23
6240,note_on,0,0,4,,,,,,,,,3,,,43,36
6240,note_on,30,0,4,,,,,,,,,3,,,42,0
6240,note_on,480,0,1,,,,,,,,,0,,,73,0
6240,note_on,0,0,1,,,,,,,,,0,,,75,101
6240,control_change,420,0,3,,,,,,,,,2,64,127,,
6240,note_on,0,0,1,,,,,,,,,0,,,63,101
6240,note_on,0,0,1,,,,,,,,,0,,,61,0
6240,note_on,0,0,3,,,,,,,,,2,,,46,62
6240,note_on,0,0,3,,,,,,,,,2,,,51,62
6240,control_change,0,0,4,,,,,,,,,3,64,127,,
6240,control_change,0,0,1,,,,,,,,,0,64,127,,
6270,note_on,0,0,4,,,,,,,,,3,,,55,36
6270,note_on,0,0,4,,,,,,,,,3,,,45,36
6270,note_on,30,0,4,,,,,,,,,3,,,43,0
6279,note_on,40,0,2,,,,,,,,,1,,,73,0
6279,note_on,0,0,2,,,,,,,,,1,,,70,0
6279,note_on,0,0,2,,,,,,,,,1,,,73,23
6279,note_on,0,0,2,,,,,,,,,1,,,70,23
6300,note_on,0,0,4,,,,,,,,,3,,,43,36
6300,note_on,0,0,4,,,,,,,,,3,,,45,0
6300,note_on,30,0,4,,,,,,,,,3,,,55,0
6319,note_on,0,0,2,,,,,,,,,1,,,73,23
6319,note_on,0,0,2,,,,,,,,,1,,,70,0
6319,note_on,0,0,2,,,,,,,,,1,,,70,23
6319,note_on,40,0,2,,,,,,,,,1,,,73,0
6330,note_on,0,0,4,,,,,,,,,3,,,45,36
6330,note_on,30,0,4,,,,,,,,,3,,,43,0
6330,note_on,0,0,4,,,,,,,,,3,,,55,36
6359,note_on,40,0,2,,,,,,,,,1,,,73,0
6359,note_on,0,0,2,,,,,,,,,1,,,73,23
6359,note_on,0,0,2,,,,,,,,,1,,,70,23
6359,note_on,0,0,2,,,,,,,,,1,,,70,0
6360,note_on,120,0,1,,,,,,,,,0,,,75,0
6360,note_on,0,0,1,,,,,,,,,0,,,75,101
6360,note_on,30,0,4,,,,,,,,,3,,,55,0
6360,note_on,0,0,3,,,,,,,,,2,,,46,0
6360,note_on,0,0,4,,,,,,,,,3,,,43,36
6360,note_on,0,0,4,,,,,,,,,3,,,45,0
6360,note_on,120,0,3,,,,,,,,,2,,,51,0
6360,note_on,0,0,1,,,,,,,,,0,,,63,0
6360,note_on,0,0,1,,,,,,,,,0,,,63,101
6390,note_on,0,0,4,,,,,,,,,3,,,45,36
6390,note_on,30,0,4,,,,,,,,,3,,,43,0
6390,note_on,0,0,4,,,,,,,,,3,,,55,36
6399,note_on,0,0,2,,,,,,,,,1,,,73,23
6399,note_on,0,0,2,,,,,,,,,1,,,70,0
6399,note_on,0,0,2,,,,,,,,,1,,,70,23
6399,note_on,40,0,2,,,,,,,,,1,,,73,0
6420,note_on,0,0,1,,,,,,,,,0,,,63,101
6420,note_on,0,0,4,,,,,,,,,3,,,43,36
6420,note_on,0,0,4,,,,,,,,,3,,,45,0
6420,note_on,30,0,4,,,,,,,,,3,,,55,0
6420,note_on,0,0,1,,,,,,,,,0,,,63,0
6420,note_on,60,0,1,,,,,,,,,0,,,75,0
6420,note_on,0,0,1,,,,,,,,,0,,,75,101
6439,note_on,0,0,2,,,,,,,,,1,,,70,23
6439,note_on,40,0,2,,,,,,,,,1,,,73,0
6439,note_on,0,0,2,,,,,,,,,1,,,70,0
6439,note_on,0,0,2,,,,,,,,,1,,,73,23
6450,note_on,0,0,4,,,,,,,,,3,,,45,36
6450,note_on,0,0,4,,,,,,,,,3,,,55,36
6450,note_on,30,0,4,,,,,,,,,3,,,43,0
6479,note_on,40,0,2,,,,,,,,,1,,,73,0
6479,note_on,0,0,2,,,,,,,,,1,,,70,23
6479,note_on,0,0,2,,,,,,,,,1,,,73,23
6479,note_on,0,0,2,,,,,,,,,1,,,70,0
6480,note_on,30,0,4,,,,,,,,,3,,,55,0
6480,note_on,0,0,1,,,,,,,,,0,,,76,127
6480,note_on,0,0,1,,,,,,,,,0,,,64,127
6480,note_on,0,0,1,,,,,,,,,0,,,63,0
6480,note_on,0,0,4,,,,,,,,,3,,,43,36
6480,note_on,0,0,4,,,,,,,,,3,,,45,0
6480,note_on,120,0,3,,,,,,,,,2,,,49,62
6480,note_on,60,0,1,,,,,,,,,0,,,75,0
6480,note_on,0,0,3,,,,,,,,,2,,,52,62
6510,note_on,0,0,4,,,,,,,,,3,,,55,36
6510,note_on,30,0,4,,,,,,,,,3,,,43,0
6510,note_on,0,0,4,,,,,,,,,3,,,45,36
6519,note_on,0,0,2,,,,,,,,,1,,,70,0
6519,note_on,0,0,2,,,,,,,,,1,,,73,23
6519,note_on,0,0,2,,,,,,,,,1,,,70,23
6519,note_on,40,0,2,,,,,,,,,1,,,73,0
6540,note_on,0,0,4,,,,,,,,,3,,,45,0
6540,note_on,30,0,4,,,,,,,,,3,,,55,0
6540,note_on,0,0,4,,,,,,,,,3,,,43,36
6559,note_on,0,0,2,,,,,,,,,1,,,73,23
6559,note_on,0,0,2,,,,,,,,,1,,,70,23
6559,note_on,0,0,2,,,,,,,,,1,,,70,0
6559,note_on,40,0,2,,,,,,,,,1,,,73,0
6570,note_on,0,0,4,,,,,,,,,3,,,55,36
6570,note_on,30,0,4,,,,,,,,,3,,,43,0
6570,note_on,0,0,4,,,,,,,,,3,,,45,36
6599,note_on,0,0,2,,,,,,,,,1,,,73,23
6599,note_on,0,0,2,,,,,,,,,1,,,70,23
6599,note_on,0,0,2,,,,,,,,,1,,,70,0
6599,note_on,40,0,2,,,,,,,,,1,,,73,0
6600,note_on,120,0,3,,,,,,,,,2,,,52,0
6600,note_on,30,0,4,,,,,,,,,3,,,55,0
6600,note_on,0,0,4,,,,,,,,,3,,,43,36
6600,note_on,0,0,4,,,,,,,,,3,,,45,0
6600,control_change,0,0,3,,,,,,,,,2,64,0,,
6600,note_on,0,0,3,,,,,,,,,2,,,46,62
6600,note_on,0,0,3,,,,,,,,,2,,,49,0
6600,note_on,0,0,3,,,,,,,,,2,,,51,62
6630,note_on,0,0,4,,,,,,,,,3,,,55,36
6630,note_on,30,0,4,,,,,,,,,3,,,43,0
6630,note_on,0,0,4,,,,,,,,,3,,,45,36
6639,note_on,40,0,2,,,,,,,,,1,,,73,0
6639,note_on,0,0,2,,,,,,,,,1,,,73,23
6639,note_on,0,0,2,,,,,,,,,1,,,70,23
6639,note_on,0,0,2,,,,,,,,,1,,,70,0
6660,note_on,180,0,1,,,,,,,,,0,,,76,0
6660,note_on,0,0,3,,,,,,,,,2,,,46,0
6660,note_on,60,0,3,,,,,,,,,2,,,51,0
6660,note_on,0,0,1,,,,,,,,,0,,,75,101
6660,note_on,0,0,1,,,,,,,,,0,,,64,0
6660,note_on,0,0,1,,,,,,,,,0,,,63,101
6660,control_change,0,0,1,,,,,,,,,0,64,0,,
6660,note_on,0,0,4,,,,,,,,,3,,,45,0
6660,note_on,30,0,4,,,,,,,,,3,,,55,0
6660,note_on,0,0,4,,,,,,,,,3,,,41,36
6679,note_on,0,0,2,,,,,,,,,1,,,70,0
6679,control_change,0,0,2,,,,,,,,,1,64,0,,
6679,note_on,40,0,2,,,,,,,,,1,,,73,0
6679,note_on,0,0,2,,,,,,,,,1,,,70,23
6679,note_on,0,0,2,,,,,,,,,1,,,73,23
6690,note_on,30,0,4,,,,,,,,,3,,,41,0
6690,control_change,0,0,4,,,,,,,,,3,64,0,,
6690,note_on,0,0,4,,,,,,,,,3,,,43,36
6719,control_change,0,0,2,,,,,,,,,1,64,127,,
6719,note_on,40,0,2,,,,,,,,,1,,,73,0
6719,note_on,0,0,2,,,,,,,,,1,,,68,23
6719,note_on,0,0,2,,,,,,,,,1,,,70,0
6719,note_on,0,0,2,,,,,,,,,1,,,72,23
6720,note_on,0,0,3,,,,,,,,,2,,,51,62
6720,note_on,0,0,1,,,,,,,,,0,,,63,0
6720,note_on,0,0,1,,,,,,,,,0,,,75,127
6720,note_on,0,0,1,,,,,,,,,0,,,63,127
6720,note_on,0,0,4,,,,,,,,,3,,,44,36
6720,note_on,60,0,1,,,,,,,,,0,,,75,0
6720,note_on,60,0,3,,,,,,,,,2,,,48,62
6720,control_change,0,0,4,,,,,,,,,3,64,127,,
6720,note_on,30,0,4,,,,,,,,,3,,,43,0
6750,note_on,30,0,4,,,,,,,,,3,,,44,0
6750,note_on,0,0,4,,,,,,,,,3,,,56,36
6750,note_on,0,0,4,,,,,,,,,3,,,46,36
6759,note_on,0,0,2,,,,,,,,,1,,,72,23
6759,note_on,0,0,2,,,,,,,,,1,,,68,23
6759,note_on,0,0,2,,,,,,,,,1,,,68,0
6759,note_on,40,0,2,,,,,,,,,1,,,72,0
6780,note_on,30,0,4,,,,,,,,,3,,,56,0
6780,note_on,0,0,4,,,,,,,,,3,,,44,36
6780,note_on,0,0,4,,,,,,,,,3,,,46,0
6799,note_on,40,0,2,,,,,,,,,1,,,72,0
6799,note_on,0,0,2,,,,,,,,,1,,,72,23
6799,note_on,0,0,2,,,,,,,,,1,,,68,23
6799,note_on,0,0,2,,,,,,,,,1,,,68,0
6810,note_on,30,0,4,,,,,,,,,3,,,44,0
6810,note_on,0,0,4,,,,,,,,,3,,,56,36
6810,note_on,0,0,4,,,,,,,,,3,,,46,36
6839,note_on,0,0,2,,,,,,,,,1,,,68,23
6839,note_on,0,0,2,,,,,,,,,1,,,68,0
6839,note_on,40,0,2,,,,,,,,,1,,,72,0
6839,note_on,0,0,2,,,,,,,,,1,,,72,23
6840,note_on,0,0,3,,,,,,,,,2,,,48,0
6840,note_on,0,0,4,,,,,,,,,3,,,46,0
6840,note_on,120,0,3,,,,,,,,,2,,,51,0
6840,note_on,0,0,4,,,,,,,,,3,,,44,36
6840,note_on,30,0,4,,,,,,,,,3,,,56,0
6870,note_on,0,0,4,,,,,,,,,3,,,56,36
6870,note_on,30,0,4,,,,,,,,,3,,,44,0
6870,note_on,0,0,4,,,,,,,,,3,,,46,36
6879,note_on,40,0,2,,,,,,,,,1,,,72,0
6879,note_on,0,0,2,,,,,,,,,1,,,72,23
6879,note_on,0,0,2,,,,,,,,,1,,,68,23
6879,note_on,0,0,2,,,,,,,,,1,,,68,0
6900,note_on,0,0,4,,,,,,,,,3,,,44,36
6900,note_on,30,0,4,,,,,,,,,3,,,56,0
6900,note_on,0,0,4,,,,,,,,,3,,,46,0
6919,note_on,0,0,2,,,,,,,,,1,,,72,23
6919,note_on,0,0,2,,,,,,,,,1,,,68,23
6919,note_on,0,0,2,,,,,,,,,1,,,68,0
6919,note_on,40,0,2,,,,,,,,,1,,,72,0
6930,note_on,0,0,4,,,,,,,,,3,,,56,36
6930,note_on,0,0,4,,,,,,,,,3,,,46,36
6930,note_on,30,0,4,,,,,,,,,3,,,44,0
6959,note_on,0,0,2,,,,,,,,,1,,,68,0
6959,note_on,0,0,2,,,,,,,,,1,,,68,23
6959,note_on,40,0,2,,,,,,,,,1,,,72,0
6959,note_on,0,0,2,,,,,,,,,1,,,63,23
6960,note_on,0,0,1,,,,,,,,,0,,,60,127
6960,note_on,0,0,4,,,,,,,,,3,,,46,0
6960,note_on,30,0,4,,,,,,,,,3,,,56,0
6960,note_on,0,0,1,,,,,,,,,0,,,72,127
6960,note_on,0,0,1,,,,,,,,,0,,,63,0
6960,note_on,0,0,4,,,,,,,,,3,,,44,36
6960,note_on,240,0,1,,,,,,,,,0,,,75,0
6990,note_on,0,0,4,,,,,,,,,3,,,46,36
6990,note_on,0,0,4,,,,,,,,,3,,,56,36
6990,note_on,30,0,4,,,,,,,,,3,,,44,0
6999,note_on,0,0,2,,,,,,,,,1,,,63,0
6999,note_on,0,0,2,,,,,,,,,1,,,63,23
6999,note_on,0,0,2,,,,,,,,,1,,,68,23
6999,note_on,40,0,2,,,,,,,,,1,,,68,0
7020,note_on,0,0,4,,,,,,,,,3,,,46,0
7020,note_on,30,0,4,,,,,,,,,3,,,56,0
7020,note_on,0,0,4,,,,,,,,,3,,,44,36
7039,note_on,40,0,2,,,,,,,,,1,,,68,0
7039,note_on,0,0,2,,,,,,,,,1,,,63,0
7039,note_on,0,0,2,,,,,,,,,1,,,63,23
7039,note_on,0,0,2,,,,,,,,,1,,,68,23
7050,note_on,0,0,4,,,,,,,,,3,,,46,36
7050,note_on,30,0,4,,,,,,,,,3,,,44,0
7050,note_on,0,0,4,,,,,,,,,3,,,56,36
7079,note_on,0,0,2,,,,,,,,,1,,,63,0
7079,note_on,0,0,2,,,,,,,,,1,,,68,23
7079,note_on,0,0,2,,,,,,,,,1,,,63,23
7079,note_on,40,0,2,,,,,,,,,1,,,68,0
7080,note_on,0,0,4,,,,,,,,,3,,,46,0
7080,note_on,30,0,4,,,,,,,,,3,,,56,0
7080,note_on,0,0,4,,,,,,,,,3,,,44,36
7110,note_on,0,0,4,,,,,,,,,3,,,46,36
7110,note_on,30,0,4,,,,,,,,,3,,,44,0
7110,note_on,0,0,4,,,,,,,,,3,,,56,36
7119,note_on,0,0,2,,,,,,,,,1,,,63,23
7119,note_on,40,0,2,,,,,,,,,1,,,68,0
7119,note_on,0,0,2,,,,,,,,,1,,,63,0
7119,note_on,0,0,2,,,,,,,,,1,,,68,23
7140,note_on,0,0,4,,,,,,,,,3,,,44,36
7140,note_on,0,0,4,,,,,,,,,3,,,46,0
7140,note_on,30,0,4,,,,,,,,,3,,,56,0
7159,note_on,0,0,2,,,,,,,,,1,,,68,23
7159,note_on,0,0,2,,,,,,,,,1,,,63,23
7159,control_change,0,0,2,,,,,,,,,1,64,0,,
7159,note_on,40,0,2,,,,,,,,,1,,,68,0
7159,note_on,0,0,2,,,,,,,,,1,,,63,0
7170,note_on,0,0,4,,,,,,,,,3,,,46,36
7170,note_on,0,0,4,,,,,,,,,3,,,56,36
7170,note_on,30,0,4,,,,,,,,,3,,,44,0
7170,control_change,0,0,4,,,,,,,,,3,64,0,,
7199,note_on,40,0,2,,,,,,,,,1,,,68,0
7199,control_change,0,0,2,,,,,,,,,1,64,127,,
7199,note_on,0,0,2,,,,,,,,,1,,,60,23
7199,note_on,0,0,2,,,,,,,,,1,,,63,0
7199,note_on,0,0,2,,,,,,,,,1,,,65,23
7200,note_on,0,0,4,,,,,,,,,3,,,46,0
7200,note_on,30,0,4,,,,,,,,,3,,,56,0
7200,note_on,0,0,4,,,,,,,,,3,,,29,36
7200,control_change,0,0,4,,,,,,,,,3,64,127,,
7200,control_change,360,0,3,,,,,,,,,2,64,127,,
7200,note_on,0,0,1,,,,,,,,,0,,,56,127
7200,note_on,0,0,1,,,,,,,,,0,,,60,0
7200,note_on,0,0,1,,,,,,,,,0,,,68,127
7200,note_on,240,0,1,,,,,,,,,0,,,72,0
7200,note_on,0,0,3,,,,,,,,,2,,,41,62
7230,note_on,30,0,3,,,,,,,,,2,,,41,0
7230,note_on,0,0,3,,,,,,,,,2,,,43,62
7239,note_on,40,0,2,,,,,,,,,1,,,65,0
7239,note_on,0,0,2,,,,,,,,,1,,,65,23
7239,note_on,0,0,2,,,,,,,,,1,,,60,23
7239,note_on,0,0,2,,,,,,,,,1,,,60,0
7260,note_on,0,0,3,,,,,,,,,2,,,41,62
7260,note_on,60,0,4,,,,,,,,,3,,,29,0
7260,note_on,30,0,3,,,,,,,,,2,,,43,0
7279,note_on,0,0,2,,,,,,,,,1,,,65,23
7279,note_on,0,0,2,,,,,,,,,1,,,60,23
7279,note_on,40,0,2,,,,,,,,,1,,,65,0
7279,note_on,0,0,2,,,,,,,,,1,,,60,0
7290,note_on,0,0,3,,,,,,,,,2,,,43,62
7290,note_on,30,0,3,,,,,,,,,2,,,41,0
7319,note_on,0,0,2,,,,,,,,,1,,,65,23
7319,note_on,0,0,2,,,,,,,,,1,,,60,0
7319,note_on,40,0,2,,,,,,,,,1,,,65,0
7319,note_on,0,0,2,,,,,,,,,1,,,60,23
7320,note_on,0,0,3,,,,,,,,,2,,,41,62
7320,note_on,30,0,3,,,,,,,,,2,,,43,0
7350,note_on,30,0,3,,,,,,,,,2,,,41,0
7350,note_on,0,0,3,,,,,,,,,2,,,43,62
7359,note_on,0,0,2,,,,,,,,,1,,,65,23
7359,note_on,0,0,2,,,,,,,,,1,,,60,23
7359,note_on,0,0,2,,,,,,,,,1,,,60,0
7359,note_on,40,0,2,,,,,,,,,1,,,65,0
7380,note_on,30,0,3,,,,,,,,,2,,,43,0
7380,note_on,0,0,3,,,,,,,,,2,,,41,62
7399,note_on,0,0,2,,,,,,,,,1,,,65,23
7399,note_on,0,0,2,,,,,,,,,1,,,60,23
7399,note_on,0,0,2,,,,,,,,,1,,,60,0
7399,note_on,40,0,2,,,,,,,,,1,,,65,0
7410,note_on,30,0,3,,,,,,,,,2,,,41,0
7410,note_on,0,0,3,,,,,,,,,2,,,43,62
7439,note_on,0,0,2,,,,,,,,,1,,,61,23
7439,note_on,0,0,2,,,,,,,,,1,,,60,0
7439,note_on,40,0,2,,,,,,,,,1,,,65,0
7439,note_on,0,0,2,,,,,,,,,1,,,65,23
7440,note_on,30,0,3,,,,,,,,,2,,,43,0
7440,note_on,0,0,3,,,,,,,,,2,,,37,62
7440,control_change,180,0,4,,,,,,,,,3,64,0,,
7440,note_on,0,0,4,,,,,,,,,3,,,25,36
7470,note_on,30,0,3,,,,,,,,,2,,,37,0
7470,note_on,0,0,3,,,,,,,,,2,,,39,62
7479,note_on,0,0,2,,,,,,,,,1,,,65,23
7479,note_on,0,0,2,,,,,,,,,1,,,61,23
7479,note_on,40,0,2,,,,,,,,,1,,,65,0
7479,note_on,0,0,2,,,,,,,,,1,,,61,0
7500,note_on,30,0,3,,,,,,,,,2,,,39,0
7500,note_on,0,0,3,,,,,,,,,2,,,37,62
7500,note_on,60,0,4,,,,,,,,,3,,,25,0
7519,note_on,0,0,2,,,,,,,,,1,,,61,23
7519,note_on,0,0,2,,,,,,,,,1,,,61,0
7519,note_on,40,0,2,,,,,,,,,1,,,65,0
7519,note_on,0,0,2,,,,,,,,,1,,,65,23
7530,note_on,0,0,3,,,,,,,,,2,,,39,62
7530,note_on,30,0,3,,,,,,,,,2,,,37,0
7559,note_on,0,0,2,,,,,,,,,1,,,61,23
7559,note_on,0,0,2,,,,,,,,,1,,,65,23
7559,note_on,40,0,2,,,,,,,,,1,,,65,0
7559,note_on,0,0,2,,,,,,,,,1,,,61,0
7560,note_on,360,0,1,,,,,,,,,0,,,68,0
7560,note_on,0,0,1,,,,,,,,,0,,,56,0
7560,note_on,30,0,3,,,,,,,,,2,,,39,0
7560,note_on,0,0,3,,,,,,,,,2,,,37,62
7560,note_on,0,0,1,,,,,,,,,0,,,70,127
7560,note_on,0,0,1,,,,,,,,,0,,,58,127
7590,note_on,0,0,3,,,,,,,,,2,,,39,62
7590,note_on,30,0,3,,,,,,,,,2,,,37,0
7599,note_on,0,0,2,,,,,,,,,1,,,61,0
7599,note_on,0,0,2,,,,,,,,,1,,,61,23
7599,note_on,40,0,2,,,,,,,,,1,,,65,0
7599,note_on,0,0,2,,,,,,,,,1,,,65,23
7620,note_on,0,0,3,,,,,,,,,2,,,37,62
7620,note_on,30,0,3,,,,,,,,,2,,,39,0
7639,note_on,0,0,2,,,,,,,,,1,,,65,23
7639,note_on,40,0,2,,,,,,,,,1,,,65,0
7639,control_change,0,0,2,,,,,,,,,1,64,0,,
7639,note_on,0,0,2,,,,,,,,,1,,,61,23
7639,note_on,0,0,2,,,,,,,,,1,,,61,0
7650,note_on,0,0,3,,,,,,,,,2,,,39,62
7650,control_change,0,0,3,,,,,,,,,2,64,0,,
7650,note_on,30,0,3,,,,,,,,,2,,,37,0
7679,note_on,40,0,2,,,,,,,,,1,,,65,0
7679,note_on,0,0,2,,,,,,,,,1,,,61,0
7680,note_on,0,0,1,,,,,,,,,0,,,72,101
7680,note_on,0,0,3,,,,,,,,,2,,,24,49
7680,note_on,0,0,1,,,,,,,,,0,,,58,0
7680,note_on,30,0,3,,,,,,,,,2,,,39,0
7680,note_on,120,0,1,,,,,,,,,0,,,70,0
7680,note_on,0,0,3,,,,,,,,,2,,,36,49
7680,control_change,0,0,3,,,,,,,,,2,64,127,,
7680,note_on,0,0,1,,,,,,,,,0,,,60,101
7680,note_on,0,0,1,,,,,,,,,0,,,64,101
7719,note_on,39,0,3,,,,,,,,,2,,,36,49
7719,note_on,0,0,3,,,,,,,,,2,,,48,49
7720,note_on,0,0,3,,,,,,,,,2,,,24,0
7720,note_on,1,0,3,,,,,,,,,2,,,36,0
7759,note_on,39,0,3,,,,,,,,,2,,,36,0
7759,note_on,0,0,3,,,,,,,,,2,,,48,0
7760,note_on,1,0,3,,,,,,,,,2,,,36,49
7760,note_on,0,0,3,,,,,,,,,2,,,48,49
7800,note_on,40,0,3,,,,,,,,,2,,,48,0
7800,note_on,0,0,3,,,,,,,,,2,,,36,0
7800,note_on,0,0,1,,,,,,,,,0,,,60,0
7800,note_on,120,0,1,,,,,,,,,0,,,72,0
7800,note_on,0,0,3,,,,,,,,,2,,,36,49
7800,note_on,0,0,3,,,,,,,,,2,,,48,49
7800,note_on,0,0,1,,,,,,,,,0,,,64,0
7839,note_on,39,0,3,,,,,,,,,2,,,36,49
7839,note_on,0,0,3,,,,,,,,,2,,,48,49
7840,note_on,1,0,3,,,,,,,,,2,,,48,0
7840,note_on,0,0,3,,,,,,,,,2,,,36,0
7879,note_on,39,0,3,,,,,,,,,2,,,36,0
7879,note_on,0,0,3,,,,,,,,,2,,,48,0
7880,note_on,0,0,3,,,,,,,,,2,,,48,49
7880,note_on,1,0,3,,,,,,,,,2,,,36,49
7920,note_on,0,0,3,,,,,,,,,2,,,48,62
7920,note_on,0,0,3,,,,,,,,,2,,,46,62
7920,note_on,0,0,3,,,,,,,,,2,,,36,62
7920,note_on,0,0,3,,,,,,,,,2,,,36,0
7920,note_on,40,0,3,,,,,,,,,2,,,48,0
7920,note_on,0,0,3,,,,,,,,,2,,,40,62
7959,note_on,0,0,3,,,,,,,,,2,,,40,62
7959,note_on,0,0,3,,,,,,,,,2,,,46,62
7959,note_on,0,0,3,,,,,,,,,2,,,48,62
7959,note_on,39,0,3,,,,,,,,,2,,,36,62
7960,note_on,0,0,3,,,,,,,,,2,,,36,0
7960,note_on,0,0,3,,,,,,,,,2,,,40,0
7960,note_on,0,0,3,,,,,,,,,2,,,46,0
7960,note_on,1,0,3,,,,,,,,,2,,,48,0
7999,note_on,0,0,3,,,,,,,,,2,,,46,0
7999,note_on,0,0,3,,,,,,,,,2,,,48,0
7999,note_on,0,0,3,,,,,,,,,2,,,40,0
7999,note_on,39,0,3,,,,,,,,,2,,,36,0
8000,note_on,0,0,3,,,,,,,,,2,,,40,62
8000,note_on,1,0,3,,,,,,,,,2,,,36,62
8000,note_on,0,0,3,,,,,,,,,2,,,48,62
8000,note_on,0,0,3,,,,,,,,,2,,,46,62
8040,note_on,40,0,3,,,,,,,,,2,,,48,0
8040,note_on,0,0,3,,,,,,,,,2,,,40,0
8040,note_on,0,0,3,,,,,,,,,2,,,40,62
8040,note_on,0,0,3,,,,,,,,,2,,,46,0
8040,note_on,0,0,3,,,,,,,,,2,,,48,62
8040,note_on,0,0,3,,,,,,,,,2,,,36,62
8040,note_on,0,0,3,,,,,,,,,2,,,46,62
8040,note_on,0,0,3,,,,,,,,,2,,,36,0
8079,note_on,0,0,3,,,,,,,,,2,,,40,62
8079,note_on,39,0,3,,,,,,,,,2,,,36,62
8079,note_on,0,0,3,,,,,,,,,2,,,46,62
8079,note_on,0,0,3,,,,,,,,,2,,,48,62
8080,note_on,0,0,3,,,,,,,,,2,,,40,0
8080,note_on,0,0,3,,,,,,,,,2,,,46,0
8080,note_on,0,0,3,,,,,,,,,2,,,36,0
8080,note_on,1,0,3,,,,,,,,,2,,,48,0
8119,note_on,0,0,3,,,,,,,,,2,,,40,0
8119,note_on,0,0,3,,,,,,,,,2,,,48,0
8119,note_on,39,0,3,,,,,,,,,2,,,36,0
8119,note_on,0,0,3,,,,,,,,,2,,,46,0
8120,control_change,1,0,3,,,,,,,,,2,64,0,,
8120,note_on,0,0,3,,,,,,,,,2,,,48,62
8120,note_on,0,0,3,,,,,,,,,2,,,46,62
8120,note_on,0,0,3,,,,,,,,,2,,,40,62
8120,note_on,0,0,3,,,,,,,,,2,,,36,62
8160,control_change,0,0,3,,,,,,,,,2,64,127,,
8160,note_on,40,0,3,,,,,,,,,2,,,48,0
8160,note_on,0,0,1,,,,,,,,,0,,,60,88
8160,note_on,0,0,1,,,,,,,,,0,,,72,88
8160,control_change,360,0,1,,,,,,,,,0,64,127,,
8160,note_on,0,0,3,,,,,,,,,2,,,36,75
8160,note_on,0,0,3,,,,,,,,,2,,,45,75
8160,note_on,0,0,3,,,,,,,,,2,,,40,0
8160,note_on,0,0,3,,,,,,,,,2,,,48,75
8160,note_on,0,0,3,,,,,,,,,2,,,36,0
8160,note_on,0,0,3,,,,,,,,,2,,,41,75
8160,note_on,0,0,3,,,,,,,,,2,,,46,0
8199,note_on,0,0,3,,,,,,,,,2,,,41,75
8199,note_on,0,0,3,,,,,,,,,2,,,45,75
8199,note_on,0,0,3,,,,,,,,,2,,,48,75
8199,note_on,39,0,3,,,,,,,,,2,,,36,75
8200,note_on,0,0,3,,,,,,,,,2,,,36,0
8200,note_on,0,0,3,,,,,,,,,2,,,41,0
8200,note_on,1,0,3,,,,,,,,,2,,,48,0
8200,note_on,0,0,3,,,,,,,,,2,,,45,0
8239,note_on,0,0,3,,,,,,,,,2,,,41,0
8239,note_on,39,0,3,,,,,,,,,2,,,36,0
8239,note_on,0,0,3,,,,,,,,,2,,,48,0
8239,note_on,0,0,3,,,,,,,,,2,,,45,0
8240,note_on,1,0,3,,,,,,,,,2,,,36,75
8240,note_on,0,0,3,,,,,,,,,2,,,41,75
8240,note_on,0,0,3,,,,,,,,,2,,,45,75
8240,note_on,0,0,3,,,,,,,,,2,,,48,75
8280,note_on,0,0,3,,,,,,,,,2,,,48,75
8280,note_on,0,0,3,,,,,,,,,2,,,36,0
8280,note_on,0,0,3,,,,,,,,,2,,,36,75
8280,note_on,0,0,3,,,,,,,,,2,,,45,75
8280,note_on,0,0,3,,,,,,,,,2,,,41,0
8280,note_on,0,0,1,,,,,,,,,0,,,74,101
8280,note_on,0,0,1,,,,,,,,,0,,,62,101
8280,note_on,40,0,3,,,,,,,,,2,,,48,0
8280,note_on,0,0,3,,,,,,,,,2,,,41,75
8280,note_on,0,0,1,,,,,,,,,0,,,60,0
8280,note_on,0,0,3,,,,,,,,,2,,,45,0
8280,note_on,120,0,1,,,,,,,,,0,,,72,0
8319,note_on,0,0,3,,,,,,,,,2,,,48,75
8319,note_on,0,0,3,,,,,,,,,2,,,41,75
8319,note_on,39,0,3,,,,,,,,,2,,,36,75
8319,note_on,0,0,3,,,,,,,,,2,,,45,75
8320,note_on,0,0,3,,,,,,,,,2,,,36,0
8320,note_on,0,0,3,,,,,,,,,2,,,41,0
8320,note_on,0,0,3,,,,,,,,,2,,,45,0
8320,note_on,1,0,3,,,,,,,,,2,,,48,0
8340,note_on,60,0,1,,,,,,,,,0,,,74,0
8340,note_on,0,0,1,,,,,,,,,0,,,76,101
8340,note_on,0,0,1,,,,,,,,,0,,,62,0
8340,note_on,0,0,1,,,,,,,,,0,,,64,101
8359,note_on,0,0,3,,,,,,,,,2,,,48,0
8359,note_on,0,0,3,,,,,,,,,2,,,45,0
8359,note_on,39,0,3,,,,,,,,,2,,,36,0
8359,note_on,0,0,3,,,,,,,,,2,,,41,0
8360,note_on,1,0,3,,,,,,,,,2,,,36,75
8360,note_on,0,0,3,,,,,,,,,2,,,41,75
8360,note_on,0,0,3,,,,,,,,,2,,,45,75
8360,note_on,0,0,3,,,,,,,,,2,,,48,75
8400,note_on,0,0,3,,,,,,,,,2,,,41,75
8400,note_on,0,0,1,,,,,,,,,0,,,65,127
8400,note_on,0,0,1,,,,,,,,,0,,,77,127
8400,note_on,0,0,1,,,,,,,,,0,,,64,0
8400,note_on,0,0,3,,,,,,,,,2,,,44,75
8400,note_on,0,0,3,,,,,,,,,2,,,45,0
8400,note_on,0,0,3,,,,,,,,,2,,,48,75
8400,note_on,0,0,3,,,,,,,,,2,,,41,0
8400,note_on,0,0,3,,,,,,,,,2,,,36,75
8400,note_on,40,0,3,,,,,,,,,2,,,48,0
8400,note_on,0,0,3,,,,,,,,,2,,,36,0
8400,note_on,60,0,1,,,,,,,,,0,,,76,0
8439,note_on,0,0,3,,,,,,,,,2,,,48,75
8439,note_on,0,0,3,,,,,,,,,2,,,44,75
8439,note_on,0,0,3,,,,,,,,,2,,,41,75
8439,note_on,39,0,3,,,,,,,,,2,,,36,75
8440,note_on,0,0,3,,,,,,,,,2,,,36,0
8440,note_on,0,0,3,,,,,,,,,2,,,41,0
8440,note_on,0,0,3,,,,,,,,,2,,,44,0
8440,note_on,1,0,3,,,,,,,,,2,,,48,0
8460,note_on,60,0,1,,,,,,,,,0,,,77,0
8460,note_on,0,0,1,,,,,,,,,0,,,72,127
8460,note_on,0,0,1,,,,,,,,,0,,,65,0
8460,note_on,0,0,1,,,,,,,,,0,,,60,127
8479,note_on,39,0,3,,,,,,,,,2,,,36,0
8479,note_on,0,0,3,,,,,,,,,2,,,41,0
8479,note_on,0,0,3,,,,,,,,,2,,,44,0
8479,note_on,0,0,3,,,,,,,,,2,,,48,0
8480,note_on,0,0,3,,,,,,,,,2,,,48,75
8480,note_on,0,0,3,,,,,,,,,2,,,44,75
8480,note_on,1,0,3,,,,,,,,,2,,,36,75
8480,note_on,0,0,3,,,,,,,,,2,,,41,75
8520,note_on,0,0,1,,,,,,,,,0,,,68,127
8520,note_on,0,0,3,,,,,,,,,2,,,48,75
8520,note_on,0,0,3,,,,,,,,,2,,,44,75
8520,note_on,0,0,3,,,,,,,,,2,,,36,0
8520,note_on,0,0,3,,,,,,,,,2,,,36,75
8520,note_on,60,0,1,,,,,,,,,0,,,72,0
8520,note_on,40,0,3,,,,,,,,,2,,,48,0
8520,note_on,0,0,3,,,,,,,,,2,,,41,75
8520,note_on,0,0,1,,,,,,,,,0,,,56,127
8520,note_on,0,0,3,,,,,,,,,2,,,41,0
8520,note_on,0,0,3,,,,,,,,,2,,,44,0
8520,note_on,0,0,1,,,,,,,,,0,,,60,0
8559,note_on,39,0,3,,,,,,,,,2,,,36,75
8559,note_on,0,0,3,,,,,,,,,2,,,48,75
8559,note_on,0,0,3,,,,,,,,,2,,,44,75
8559,note_on,0,0,3,,,,,,,,,2,,,41,75
8560,note_on,1,0,3,,,,,,,,,2,,,48,0
8560,note_on,0,0,3,,,,,,,,,2,,,36,0
8560,note_on,0,0,3,,,,,,,,,2,,,44,0
8560,note_on,0,0,3,,,,,,,,,2,,,41,0
8580,note_on,60,0,1,,,,,,,,,0,,,68,0
8580,note_on,0,0,1,,,,,,,,,0,,,53,127
8580,note_on,0,0,1,,,,,,,,,0,,,56,0
8580,note_on,0,0,1,,,,,,,,,0,,,65,127
8580,control_change,0,0,1,,,,,,,,,0,64,0,,
8599,note_on,39,0,3,,,,,,,,,2,,,36,0
8599,note_on,0,0,3,,,,,,,,,2,,,48,0
8599,note_on,0,0,3,,,,,,,,,2,,,44,0
8599,note_on,0,0,3,,,,,,,,,2,,,41,0
8600,note_on,0,0,3,,,,,,,,,2,,,48,75
8600,note_on,0,0,3,,,,,,,,,2,,,36,75
8600,note_on,0,0,3,,,,,,,,,2,,,41,75
8600,note_on,0,0,3,,,,,,,,,2,,,44,75
8600,control_change,1,0,3,,,,,,,,,2,64,0,,
8640,control_change,0,0,1,,,,,,,,,0,64,127,,
8640,note_on,0,0,3,,,,,,,,,2,,,44,0
8640,note_on,0,0,3,,,,,,,,,2,,,48,62
8640,note_on,0,0,1,,,,,,,,,0,,,72,101
8640,note_on,0,0,1,,,,,,,,,0,,,60,101
8640,note_on,0,0,1,,,,,,,,,0,,,53,0
8640,note_on,40,0,3,,,,,,,,,2,,,48,0
8640,note_on,0,0,3,,,,,,,,,2,,,43,62
8640,note_on,0,0,3,,,,,,,,,2,,,36,0
8640,control_change,0,0,3,,,,,,,,,2,64,127,,
8640,note_on,0,0,3,,,,,,,,,2,,,40,62
8640,note_on,0,0,3,,,,,,,,,2,,,41,0
8640,note_on,60,0,1,,,,,,,,,0,,,65,0
8640,note_on,0,0,3,,,,,,,,,2,,,36,62
8679,note_on,39,0,3,,,,,,,,,2,,,36,62
8679,note_on,0,0,3,,,,,,,,,2,,,40,62
8679,note_on,0,0,3,,,,,,,,,2,,,43,62
8679,note_on,0,0,3,,,,,,,,,2,,,48,62
8680,note_on,0,0,3,,,,,,,,,2,,,40,0
8680,note_on,0,0,3,,,,,,,,,2,,,43,0
8680,note_on,1,0,3,,,,,,,,,2,,,48,0
8680,note_on,0,0,3,,,,,,,,,2,,,36,0
8719,note_on,0,0,3,,,,,,,,,2,,,48,0
8719,note_on,0,0,3,,,,,,,,,2,,,40,0
8719,note_on,0,0,3,,,,,,,,,2,,,43,0
8719,note_on,39,0,3,,,,,,,,,2,,,36,0
8720,note_on,0,0,3,,,,,,,,,2,,,43,62
8720,note_on,0,0,3,,,,,,,,,2,,,40,62
8720,note_on,1,0,3,,,,,,,,,2,,,36,62
8720,note_on,0,0,3,,,,,,,,,2,,,48,62
8760,note_on,40,0,3,,,,,,,,,2,,,48,0
8760,note_on,0,0,3,,,,,,,,,2,,,48,62
8760,note_on,0,0,3,,,,,,,,,2,,,43,62
8760,note_on,0,0,3,,,,,,,,,2,,,43,0
8760,note_on,0,0,3,,,,,,,,,2,,,40,0
8760,note_on,0,0,3,,,,,,,,,2,,,36,62
8760,note_on,0,0,3,,,,,,,,,2,,,40,62
8760,note_on,0,0,3,,,,,,,,,2,,,36,0
8799,note_on,39,0,3,,,,,,,,,2,,,36,62
8799,note_on,0,0,3,,,,,,,,,2,,,40,62
8799,note_on,0,0,3,,,,,,,,,2,,,43,62
8799,note_on,0,0,3,,,,,,,,,2,,,48,62
8800,note_on,1,0,3,,,,,,,,,2,,,48,0
8800,note_on,0,0,3,,,,,,,,,2,,,43,0
8800,note_on,0,0,3,,,,,,,,,2,,,40,0
8800,note_on,0,0,3,,,,,,,,,2,,,36,0
8839,note_on,0,0,3,,,,,,,,,2,,,40,0
8839,note_on,39,0,3,,,,,,,,,2,,,36,0
8839,note_on,0,0,3,,,,,,,,,2,,,43,0
8839,note_on,0,0,3,,,,,,,,,2,,,48,0
8840,note_on,0,0,3,,,,,,,,,2,,,40,62
8840,control_change,1,0,3,,,,,,,,,2,64,0,,
8840,note_on,0,0,3,,,,,,,,,2,,,48,62
8840,note_on,0,0,3,,,,,,,,,2,,,43,62
8840,note_on,0,0,3,,,,,,,,,2,,,36,62
8880,control_change,0,0,3,,,,,,,,,2,64,127,,
8880,note_on,0,0,3,,,,,,,,,2,,,48,75
8880,note_on,0,0,3,,,,,,,,,2,,,46,75
8880,note_on,0,0,3,,,,,,,,,2,,,43,0
8880,note_on,0,0,3,,,,,,,,,2,,,40,75
8880,note_on,0,0,3,,,,,,,,,2,,,40,0
8880,note_on,0,0,3,,,,,,,,,2,,,36,75
8880,note_on,0,0,3,,,,,,,,,2,,,36,0
8880,note_on,40,0,3,,,,,,,,,2,,,48,0
8919,note_on,0,0,3,,,,,,,,,2,,,48,75
8919,note_on,0,0,3,,,,,,,,,2,,,46,75
8919,note_on,0,0,3,,,,,,,,,2,,,40,75
8919,note_on,39,0,3,,,,,,,,,2,,,36,75
8920,note_on,1,0,3,,,,,,,,,2,,,48,0
8920,note_on,0,0,3,,,,,,,,,2,,,40,0
8920,note_on,0,0,3,,,,,,,,,2,,,46,0
8920,note_on,0,0,3,,,,,,,,,2,,,36,0
8959,note_on,39,0,3,,,,,,,,,2,,,36,0
8959,note_on,0,0,3,,,,,,,,,2,,,40,0
8959,note_on,0,0,3,,,,,,,,,2,,,46,0
8959,note_on,0,0,3,,,,,,,,,2,,,48,0
8960,note_on,1,0,3,,,,,,,,,2,,,36,75
8960,note_on,0,0,3,,,,,,,,,2,,,40,75
8960,note_on,0,0,3,,,,,,,,,2,,,46,75
8960,note_on,0,0,3,,,,,,,,,2,,,48,75
9000,note_on,0,0,3,,,,,,,,,2,,,48,75
9000,note_on,0,0,3,,,,,,,,,2,,,46,75
9000,note_on,0,0,3,,,,,,,,,2,,,46,0
9000,note_on,0,0,3,,,,,,,,,2,,,40,75
9000,note_on,0,0,3,,,,,,,,,2,,,40,0
9000,note_on,360,0,1,,,,,,,,,0,,,72,0
9000,note_on,0,0,3,,,,,,,,,2,,,36,0
9000,note_on,40,0,3,,,,,,,,,2,,,48,0
9000,note_on,0,0,1,,,,,,,,,0,,,60,0
9000,note_on,0,0,1,,,,,,,,,0,,,60,101
9000,note_on,0,0,1,,,,,,,,,0,,,72,101
9000,note_on,0,0,3,,,,,,,,,2,,,36,75
9039,note_on,0,0,3,,,,,,,,,2,,,46,75
9039,note_on,39,0,3,,,,,,,,,2,,,36,75
9039,note_on,0,0,3,,,,,,,,,2,,,48,75
9039,note_on,0,0,3,,,,,,,,,2,,,40,75
9040,note_on,0,0,3,,,,,,,,,2,,,40,0
9040,note_on,0,0,3,,,,,,,,,2,,,46,0
9040,note_on,1,0,3,,,,,,,,,2,,,48,0
9040,note_on,0,0,3,,,,,,,,,2,,,36,0
9079,note_on,39,0,3,,,,,,,,,2,,,36,0
9079,note_on,0,0,3,,,,,,,,,2,,,40,0
9079,note_on,0,0,3,,,,,,,,,2,,,46,0
9079,note_on,0,0,3,,,,,,,,,2,,,48,0
9080,control_change,1,0,3,,,,,,,,,2,64,0,,
9080,note_on,0,0,3,,,,,,,,,2,,,48,75
9080,note_on,0,0,3,,,,,,,,,2,,,40,75
9080,note_on,0,0,3,,,,,,,,,2,,,36,75
9080,note_on,0,0,3,,,,,,,,,2,,,46,75
9090,control_change,0,0,1,,,,,,,,,0,64,0,,
9090,note_on,0,0,1,,,,,,,,,0,,,60,0
9090,note_on,0,0,1,,,,,,,,,0,,,60,101
9090,note_on,0,0,1,,,,,,,,,0,,,72,101
9090,note_on,90,0,1,,,,,,,,,0,,,72,0
9120,note_on,0,0,3,,,,,,,,,2,,,41,75
9120,note_on,30,0,1,,,,,,,,,0,,,72,0
9120,note_on,40,0,3,,,,,,,,,2,,,48,0
9120,note_on,0,0,1,,,,,,,,,0,,,60,0
9120,note_on,0,0,1,,,,,,,,,0,,,68,101
9120,control_change,0,0,3,,,,,,,,,2,64,127,,
9120,control_change,0,0,1,,,,,,,,,0,64,127,,
9120,note_on,0,0,3,,,,,,,,,2,,,48,75
9120,note_on,0,0,3,,,,,,,,,2,,,46,0
9120,note_on,0,0,3,,,,,,,,,2,,,44,75
9120,note_on,0,0,1,,,,,,,,,0,,,80,101
9120,note_on,0,0,3,,,,,,,,,2,,,36,75
9120,note_on,0,0,3,,,,,,,,,2,,,36,0
9120,note_on,0,0,3,,,,,,,,,2,,,40,0
9159,note_on,0,0,3,,,,,,,,,2,,,41,75
9159,note_on,0,0,3,,,,,,,,,2,,,44,75
9159,note_on,39,0,3,,,,,,,,,2,,,36,75
9159,note_on,0,0,3,,,,,,,,,2,,,48,75
9160,note_on,0,0,3,,,,,,,,,2,,,41,0
9160,note_on,1,0,3,,,,,,,,,2,,,48,0
9160,note_on,0,0,3,,,,,,,,,2,,,36,0
9160,note_on,0,0,3,,,,,,,,,2,,,44,0
9199,note_on,0,0,3,,,,,,,,,2,,,44,0
9199,note_on,39,0,3,,,,,,,,,2,,,36,0
9199,note_on,0,0,3,,,,,,,,,2,,,41,0
9199,note_on,0,0,3,,,,,,,,,2,,,48,0
9200,note_on,0,0,3,,,,,,,,,2,,,48,75
9200,note_on,0,0,3,,,,,,,,,2,,,44,75
9200,note_on,1,0,3,,,,,,,,,2,,,36,75
9200,note_on,0,0,3,,,,,,,,,2,,,41,75
9240,note_on,0,0,3,,,,,,,,,2,,,36,75
9240,note_on,40,0,3,,,,,,,,,2,,,48,0
9240,note_on,0,0,1,,,,,,,,,0,,,65,101
9240,note_on,0,0,1,,,,,,,,,0,,,68,0
9240,note_on,0,0,1,,,,,,,,,0,,,77,101
9240,note_on,0,0,3,,,,,,,,,2,,,44,75
9240,note_on,120,0,1,,,,,,,,,0,,,80,0
9240,note_on,0,0,3,,,,,,,,,2,,,41,75
9240,note_on,0,0,3,,,,,,,,,2,,,48,75
9240,note_on,0,0,3,,,,,,,,,2,,,44,0
9240,note_on,0,0,3,,,,,,,,,2,,,36,0
9240,note_on,0,0,3,,,,,,,,,2,,,41,0
9279,note_on,0,0,3,,,,,,,,,2,,,44,75
9279,note_on,0,0,3,,,,,,,,,2,,,41,75
9279,note_on,39,0,3,,,,,,,,,2,,,36,75
9279,note_on,0,0,3,,,,,,,,,2,,,48,75
9280,note_on,0,0,3,,,,,,,,,2,,,36,0
9280,note_on,0,0,3,,,,,,,,,2,,,41,0
9280,note_on,0,0,3,,,,,,,,,2,,,44,0
9280,note_on,1,0,3,,,,,,,,,2,,,48,0
9319,note_on,0,0,3,,,,,,,,,2,,,48,0
9319,note_on,0,0,3,,,,,,,,,2,,,44,0
9319,note_on,0,0,3,,,,,,,,,2,,,41,0
9319,note_on,39,0,3,,,,,,,,,2,,,36,0
9320,note_on,0,0,3,,,,,,,,,2,,,44,75
9320,note_on,0,0,3,,,,,,,,,2,,,41,75
9320,note_on,0,0,3,,,,,,,,,2,,,48,75
9320,note_on,1,0,3,,,,,,,,,2,,,36,75
9360,note_on,0,0,1,,,,,,,,,0,,,60,101
9360,note_on,0,0,1,,,,,,,,,0,,,65,0
9360,note_on,40,0,3,,,,,,,,,2,,,48,0
9360,note_on,0,0,3,,,,,,,,,2,,,36,75
9360,note_on,0,0,3,,,,,,,,,2,,,44,0
9360,note_on,0,0,1,,,,,,,,,0,,,72,101
9360,note_on,0,0,3,,,,,,,,,2,,,36,0
9360,note_on,0,0,3,,,,,,,,,2,,,41,0
9360,note_on,0,0,3,,,,,,,,,2,,,41,75
9360,note_on,0,0,3,,,,,,,,,2,,,44,75
9360,note_on,0,0,3,,,,,,,,,2,,,48,75
9360,note_on,120,0,1,,,,,,,,,0,,,77,0
9399,note_on,0,0,3,,,,,,,,,2,,,48,75
9399,note_on,0,0,3,,,,,,,,,2,,,44,75
9399,note_on,39,0,3,,,,,,,,,2,,,36,75
9399,note_on,0,0,3,,,,,,,,,2,,,41,75
9400,note_on,0,0,3,,,,,,,,,2,,,36,0
9400,note_on,0,0,3,,,,,,,,,2,,,44,0
9400,note_on,1,0,3,,,,,,,,,2,,,48,0
9400,note_on,0,0,3,,,,,,,,,2,,,41,0
9420,note_on,0,0,1,,,,,,,,,0,,,68,101
9420,note_on,60,0,1,,,,,,,,,0,,,72,0
9420,note_on,0,0,1,,,,,,,,,0,,,56,101
9420,note_on,0,0,1,,,,,,,,,0,,,60,0
9439,note_on,0,0,3,,,,,,,,,2,,,41,0
9439,note_on,0,0,3,,,,,,,,,2,,,48,0
9439,note_on,39,0,3,,,,,,,,,2,,,36,0
9439,note_on,0,0,3,,,,,,,,,2,,,44,0
9440,note_on,0,0,3,,,,,,,,,2,,,36,75
9440,note_on,0,0,3,,,,,,,,,2,,,48,75
9440,note_on,0,0,3,,,,,,,,,2,,,44,75
9440,note_on,0,0,3,,,,,,,,,2,,,41,75
9440,control_change,1,0,3,,,,,,,,,2,64,0,,
9480,control_change,0,0,3,,,,,,,,,2,64,127,,
9480,note_on,0,0,3,,,,,,,,,2,,,36,0
9480,note_on,0,0,3,,,,,,,,,2,,,41,0
9480,note_on,0,0,1,,,,,,,,,0,,,67,101
9480,note_on,60,0,1,,,,,,,,,0,,,68,0
9480,note_on,0,0,1,,,,,,,,,0,,,55,101
9480,note_on,40,0,3,,,,,,,,,2,,,48,0
9480,note_on,0,0,1,,,,,,,,,0,,,56,0
9480,note_on,0,0,3,,,,,,,,,2,,,36,75
9480,note_on,0,0,3,,,,,,,,,2,,,38,75
9480,note_on,0,0,3,,,,,,,,,2,,,47,75
9480,note_on,0,0,3,,,,,,,,,2,,,41,75
9480,note_on,0,0,3,,,,,,,,,2,,,44,0
9480,note_on,0,0,3,,,,,,,,,2,,,44,75
9519,note_on,0,0,3,,,,,,,,,2,,,47,75
9519,note_on,0,0,3,,,,,,,,,2,,,38,75
9519,note_on,39,0,3,,,,,,,,,2,,,36,75
9519,note_on,0,0,3,,,,,,,,,2,,,44,75
9519,note_on,0,0,3,,,,,,,,,2,,,41,75
9520,note_on,1,0,3,,,,,,,,,2,,,47,0
9520,note_on,0,0,3,,,,,,,,,2,,,38,0
9520,note_on,0,0,3,,,,,,,,,2,,,41,0
9520,note_on,0,0,3,,,,,,,,,2,,,36,0
9520,note_on,0,0,3,,,,,,,,,2,,,44,0
9540,control_change,0,0,1,,,,,,,,,0,64,0,,
9540,note_on,0,0,1,,,,,,,,,0,,,53,101
9540,note_on,0,0,1,,,,,,,,,0,,,55,0
9540,note_on,0,0,1,,,,,,,,,0,,,65,101
9540,note_on,60,0,1,,,,,,,,,0,,,67,0
9559,note_on,0,0,3,,,,,,,,,2,,,44,0
9559,note_on,0,0,3,,,,,,,,,2,,,41,0
9559,note_on,0,0,3,,,,,,,,,2,,,38,0
9559,note_on,39,0,3,,,,,,,,,2,,,36,0
9559,note_on,0,0,3,,,,,,,,,2,,,47,0
9560,note_on,0,0,3,,,,,,,,,2,,,38,75
9560,note_on,0,0,3,,,,,,,,,2,,,36,75
9560,note_on,0,0,3,,,,,,,,,2,,,44,75
9560,note_on,0,0,3,,,,,,,,,2,,,47,75
9560,control_change,1,0,3,,,,,,,,,2,64,0,,
9560,note_on,0,0,3,,,,,,,,,2,,,41,75
9599,note_on,1920,0,2,,,,,,,,,1,,,52,49
9599,note_on,0,0,2,,,,,,,,,1,,,55,49
9600,note_on,0,0,1,,,,,,,,,0,,,60,101
9600,note_on,0,0,1,,,,,,,,,0,,,53,0
9600,note_on,0,0,3,,,,,,,,,2,,,38,0
9600,note_on,0,0,3,,,,,,,,,2,,,36,0
9600,note_on,0,0,3,,,,,,,,,2,,,36,62
9600,note_on,0,0,3,,,,,,,,,2,,,40,62
9600,note_on,0,0,3,,,,,,,,,2,,,41,0
9600,note_on,0,0,3,,,,,,,,,2,,,43,62
9600,note_on,0,0,3,,,,,,,,,2,,,44,0
9600,note_on,0,0,3,,,,,,,,,2,,,48,62
9600,note_on,40,0,3,,,,,,,,,2,,,47,0
9600,note_on,60,0,1,,,,,,,,,0,,,65,0
9639,note_on,0,0,2,,,,,,,,,1,,,52,49
9639,note_on,40,0,2,,,,,,,,,1,,,55,0
9639,note_on,0,0,2,,,,,,,,,1,,,52,0
9639,note_on,0,0,2,,,,,,,,,1,,,55,49
9679,note_on,0,0,2,,,,,,,,,1,,,52,0
9679,note_on,0,0,2,,,,,,,,,1,,,52,49
9679,note_on,0,0,2,,,,,,,,,1,,,55,49
9679,note_on,40,0,2,,,,,,,,,1,,,55,0
9719,note_on,0,0,2,,,,,,,,,1,,,52,0
9719,note_on,0,0,2,,,,,,,,,1,,,52,49
9719,note_on,0,0,2,,,,,,,,,1,,,55,49
9719,note_on,40,0,2,,,,,,,,,1,,,55,0
9720,note_on,0,0,3,,,,,,,,,2,,,40,0
9720,note_on,0,0,3,,,,,,,,,2,,,36,0
9720,note_on,120,0,3,,,,,,,,,2,,,48,0
9720,note_on,0,0,3,,,,,,,,,2,,,43,0
9759,note_on,0,0,2,,,,,,,,,1,,,52,49
9759,note_on,0,0,2,,,,,,,,,1,,,52,0
9759,note_on,0,0,2,,,,,,,,,1,,,55,49
9759,note_on,40,0,2,,,,,,,,,1,,,55,0
9799,note_on,0,0,2,,,,,,,,,1,,,52,0
9799,note_on,0,0,2,,,,,,,,,1,,,52,49
9799,note_on,40,0,2,,,,,,,,,1,,,55,0
9799,note_on,0,0,2,,,,,,,,,1,,,55,49
9839,note_on,40,0,2,,,,,,,,,1,,,55,0
9839,note_on,0,0,2,,,,,,,,,1,,,52,0
9839,note_on,0,0,2,,,,,,,,,1,,,53,49
9839,note_on,0,0,2,,,,,,,,,1,,,56,49
9840,note_on,120,0,3,,,,,,,,,2,,,44,88
9840,note_on,240,0,1,,,,,,,,,0,,,60,0
9879,note_on,40,0,2,,,,,,,,,1,,,56,0
9879,note_on,0,0,2,,,,,,,,,1,,,53,0
9879,note_on,0,0,2,,,,,,,,,1,,,53,49
9879,note_on,0,0,2,,,,,,,,,1,,,56,49
9919,note_on,40,0,2,,,,,,,,,1,,,56,0
9919,note_on,0,0,2,,,,,,,,,1,,,56,49
9919,note_on,0,0,2,,,,,,,,,1,,,53,49
9919,note_on,0,0,2,,,,,,,,,1,,,53,0
9920,note_on,0,0,3,,,,,,,,,2,,,41,62
9920,note_on,80,0,3,,,,,,,,,2,,,44,0
9959,note_on,0,0,2,,,,,,,,,1,,,53,0
9959,note_on,40,0,2,,,,,,,,,1,,,56,0
9959,note_on,0,0,2,,,,,,,,,1,,,53,49
9959,note_on,0,0,2,,,,,,,,,1,,,56,49
9960,note_on,0,0,3,,,,,,,,,2,,,36,62
9960,note_on,2460,0,4,,,,,,,,,3,,,29,62
9960,note_on,40,0,3,,,,,,,,,2,,,41,0
9960,note_on,0,0,1,,,,,,,,,0,,,50,127
9960,note_on,0,0,1,,,,,,,,,0,,,59,127
9960,note_on,120,0,1,,,,,,,,,0,,,48,127
9999,note_on,40,0,2,,,,,,,,,1,,,56,0
9999,note_on,0,0,2,,,,,,,,,1,,,53,0
9999,note_on,0,0,2,,,,,,,,,1,,,53,49
9999,note_on,0,0,2,,,,,,,,,1,,,56,49
9999,note_on,39,0,3,,,,,,,,,2,,,32,62
10000,note_on,1,0,3,,,,,,,,,2,,,36,0
10039,note_on,0,0,2,,,,,,,,,1,,,56,49
10039,note_on,40,0,2,,,,,,,,,1,,,56,0
10039,note_on,0,0,2,,,,,,,,,1,,,53,49
10039,note_on,0,0,2,,,,,,,,,1,,,53,0
10039,note_on,39,0,3,,,,,,,,,2,,,32,0
10040,note_on,1,0,3,,,,,,,,,2,,,29,62
10079,note_on,40,0,2,,,,,,,,,1,,,56,0
10079,note_on,0,0,2,,,,,,,,,1,,,52,49
10079,note_on,0,0,2,,,,,,,,,1,,,55,49
10079,note_on,0,0,2,,,,,,,,,1,,,53,0
10080,note_on,0,0,1,,,,,,,,,0,,,48,101
10080,note_on,0,0,3,,,,,,,,,2,,,36,62
10080,note_on,120,0,1,,,,,,,,,0,,,59,0
10080,note_on,0,0,1,,,,,,,,,0,,,50,0
10080,note_on,40,0,3,,,,,,,,,2,,,29,0
10080,note_on,120,0,4,,,,,,,,,3,,,29,0
10080,note_on,0,0,1,,,,,,,,,0,,,60,101
10080,note_on,0,0,1,,,,,,,,,0,,,48,0
10080,note_on,0,0,4,,,,,,,,,3,,,24,62
10119,note_on,0,0,2,,,,,,,,,1,,,52,0
10119,note_on,0,0,2,,,,,,,,,1,,,52,49
10119,note_on,40,0,2,,,,,,,,,1,,,55,0
10119,note_on,0,0,2,,,,,,,,,1,,,55,49
10159,note_on,0,0,2,,,,,,,,,1,,,52,0
10159,note_on,40,0,2,,,,,,,,,1,,,55,0
10159,note_on,0,0,2,,,,,,,,,1,,,55,49
10159,note_on,0,0,2,,,,,,,,,1,,,52,49
10199,note_on,40,0,2,,,,,,,,,1,,,55,0
10199,note_on,0,0,2,,,,,,,,,1,,,55,49
10199,note_on,0,0,2,,,,,,,,,1,,,52,49
10199,note_on,0,0,2,,,,,,,,,1,,,52,0
10200,note_on,120,0,3,,,,,,,,,2,,,36,0
10200,note_on,120,0,4,,,,,,,,,3,,,24,0
10239,note_on,40,0,2,,,,,,,,,1,,,55,0
10239,note_on,0,0,2,,,,,,,,,1,,,55,49
10239,note_on,0,0,2,,,,,,,,,1,,,52,0
10239,note_on,0,0,2,,,,,,,,,1,,,52,49
10279,note_on,0,0,2,,,,,,,,,1,,,52,0
10279,note_on,0,0,2,,,,,,,,,1,,,55,49
10279,note_on,0,0,2,,,,,,,,,1,,,52,49
10279,note_on,40,0,2,,,,,,,,,1,,,55,0
10319,note_on,0,0,2,,,,,,,,,1,,,51,49
10319,note_on,0,0,2,,,,,,,,,1,,,52,0
10319,note_on,0,0,2,,,,,,,,,1,,,56,49
10319,note_on,40,0,2,,,,,,,,,1,,,55,0
10320,note_on,240,0,1,,,,,,,,,0,,,60,0
10320,note_on,120,0,3,,,,,,,,,2,,,44,88
10320,note_on,0,0,1,,,,,,,,,0,,,48,0
10320,note_on,120,0,4,,,,,,,,,3,,,29,62
10359,note_on,0,0,2,,,,,,,,,1,,,51,49
10359,note_on,0,0,2,,,,,,,,,1,,,56,49
10359,note_on,0,0,2,,,,,,,,,1,,,51,0
10359,note_on,40,0,2,,,,,,,,,1,,,56,0
10399,note_on,40,0,2,,,,,,,,,1,,,56,0
10399,note_on,0,0,2,,,,,,,,,1,,,51,0
10399,note_on,0,0,2,,,,,,,,,1,,,51,49
10399,note_on,0,0,2,,,,,,,,,1,,,56,49
10400,note_on,0,0,3,,,,,,,,,2,,,39,62
10400,note_on,80,0,3,,,,,,,,,2,,,44,0
10439,note_on,40,0,2,,,,,,,,,1,,,56,0
10439,note_on,0,0,2,,,,,,,,,1,,,51,0
10439,note_on,0,0,2,,,,,,,,,1,,,53,49
10439,note_on,0,0,2,,,,,,,,,1,,,56,49
10440,note_on,0,0,1,,,,,,,,,0,,,50,114
10440,note_on,0,0,1,,,,,,,,,0,,,62,114
10440,note_on,0,0,1,,,,,,,,,0,,,59,114
10440,note_on,120,0,1,,,,,,,,,0,,,48,114
10440,note_on,120,0,4,,,,,,,,,3,,,29,0
10440,note_on,40,0,3,,,,,,,,,2,,,39,0
10440,note_on,0,0,3,,,,,,,,,2,,,36,62
10479,note_on,0,0,2,,,,,,,,,1,,,56,49
10479,note_on,0,0,2,,,,,,,,,1,,,53,49
10479,note_on,39,0,3,,,,,,,,,2,,,32,62
10479,note_on,40,0,2,,,,,,,,,1,,,56,0
10479,note_on,0,0,2,,,,,,,,,1,,,53,0
10480,note_on,1,0,3,,,,,,,,,2,,,36,0
10519,note_on,40,0,2,,,,,,,,,1,,,56,0
10519,note_on,0,0,2,,,,,,,,,1,,,56,49
10519,note_on,0,0,2,,,,,,,,,1,,,53,49
10519,note_on,39,0,3,,,,,,,,,2,,,32,0
10519,note_on,0,0,2,,,,,,,,,1,,,53,0
10520,note_on,1,0,3,,,,,,,,,2,,,29,62
10559,note_on,0,0,2,,,,,,,,,1,,,52,49
10559,note_on,40,0,2,,,,,,,,,1,,,56,0
10559,note_on,0,0,2,,,,,,,,,1,,,55,49
10559,note_on,0,0,2,,,,,,,,,1,,,53,0
10560,note_on,120,0,4,,,,,,,,,3,,,24,62
10560,note_on,0,0,1,,,,,,,,,0,,,60,75
10560,note_on,0,0,1,,,,,,,,,0,,,59,0
10560,note_on,0,0,3,,,,,,,,,2,,,36,62
10560,note_on,0,0,1,,,,,,,,,0,,,50,0
10560,note_on,0,0,1,,,,,,,,,0,,,48,75
10560,note_on,0,0,1,,,,,,,,,0,,,48,0
10560,note_on,120,0,1,,,,,,,,,0,,,62,0
10560,note_on,40,0,3,,,,,,,,,2,,,29,0
10599,note_on,0,0,2,,,,,,,,,1,,,52,0
10599,note_on,40,0,2,,,,,,,,,1,,,55,0
10599,note_on,0,0,2,,,,,,,,,1,,,52,49
10599,note_on,0,0,2,,,,,,,,,1,,,55,49
10620,set_tempo,10620,1,0,,,,,,779221,,,,,,,
10639,note_on,0,0,2,,,,,,,,,1,,,55,49
10639,note_on,0,0,2,,,,,,,,,1,,,52,49
10639,note_on,40,0,2,,,,,,,,,1,,,55,0
10639,note_on,0,0,2,,,,,,,,,1,,,52,0
10679,note_on,0,0,2,,,,,,,,,1,,,52,49
10679,note_on,40,0,2,,,,,,,,,1,,,55,0
10679,note_on,0,0,2,,,,,,,,,1,,,52,0
10679,note_on,0,0,2,,,,,,,,,1,,,55,49
10680,note_on,120,0,4,,,,,,,,,3,,,24,0
10680,note_on,120,0,1,,,,,,,,,0,,,60,0
10680,note_on,0,0,1,,,,,,,,,0,,,48,0
10680,set_tempo,60,1,0,,,,,,810811,,,,,,,
10680,note_on,120,0,3,,,,,,,,,2,,,36,0
10719,note_on,40,0,2,,,,,,,,,1,,,55,0
10719,note_on,0,0,2,,,,,,,,,1,,,52,0
10719,note_on,0,0,2,,,,,,,,,1,,,52,49
10719,note_on,0,0,2,,,,,,,,,1,,,55,49
10740,set_tempo,60,1,0,,,,,,845070,,,,,,,
10759,note_on,40,0,2,,,,,,,,,1,,,55,0
10759,note_on,0,0,2,,,,,,,,,1,,,52,49
10759,note_on,0,0,2,,,,,,,,,1,,,55,49
10759,note_on,0,0,2,,,,,,,,,1,,,52,0
10799,note_on,0,0,2,,,,,,,,,1,,,52,36
10799,note_on,0,0,2,,,,,,,,,1,,,55,36
10799,note_on,40,0,2,,,,,,,,,1,,,55,0
10799,note_on,0,0,2,,,,,,,,,1,,,52,0
10800,set_tempo,60,1,0,,,,,,895522,,,,,,,
10800,note_on,0,0,1,,,,,,,,,0,,,60,62
10800,note_on,120,0,4,,,,,,,,,3,,,24,62
10800,note_on,120,0,1,,,,,,,,,0,,,48,62
10800,note_on,120,0,3,,,,,,,,,2,,,36,62
10839,note_on,0,0,2,,,,,,,,,1,,,55,36
10839,note_on,0,0,2,,,,,,,,,1,,,52,36
10839,note_on,0,0,2,,,,,,,,,1,,,52,0
10839,note_on,40,0,2,,,,,,,,,1,,,55,0
10860,set_tempo,60,1,0,,,,,,937500,,,,,,,
10879,note_on,40,0,2,,,,,,,,,1,,,55,0
10879,note_on,0,0,2,,,,,,,,,1,,,55,36
10879,note_on,0,0,2,,,,,,,,,1,,,52,36
10879,note_on,0,0,2,,,,,,,,,1,,,52,0
10919,note_on,0,0,2,,,,,,,,,1,,,52,36
10919,note_on,0,0,2,,,,,,,,,1,,,55,36
10919,note_on,40,0,2,,,,,,,,,1,,,55,0
10919,note_on,0,0,2,,,,,,,,,1,,,52,0
10920,note_on,120,0,3,,,,,,,,,2,,,36,0
10920,set_tempo,60,1,0,,,,,,983607,,,,,,,
10920,note_on,120,0,4,,,,,,,,,3,,,24,0
10920,note_on,0,0,1,,,,,,,,,0,,,48,0
10920,note_on,120,0,1,,,,,,,,,0,,,60,0
10959,note_on,40,0,2,,,,,,,,,1,,,55,0
10959,note_on,0,0,2,,,,,,,,,1,,,52,36
10959,note_on,0,0,2,,,,,,,,,1,,,55,36
10959,note_on,0,0,2,,,,,,,,,1,,,52,0
10980,set_tempo,60,1,0,,,,,,1034483,,,,,,,
10999,note_on,0,0,2,,,,,,,,,1,,,52,36
10999,note_on,0,0,2,,,,,,,,,1,,,52,0
10999,note_on,0,0,2,,,,,,,,,1,,,55,36
10999,note_on,40,0,2,,,,,,,,,1,,,55,0
11039,note_on,40,0,2,,,,,,,,,1,,,55,0
11039,note_on,0,0,2,,,,,,,,,1,,,52,0
11039,note_on,0,0,2,,,,,,,,,1,,,55,36
11039,note_on,0,0,2,,,,,,,,,1,,,52,36
11040,note_on,120,0,1,,,,,,,,,0,,,48,62
11040,note_on,120,0,4,,,,,,,,,3,,,24,62
11040,set_tempo,60,1,0,,,,,,1111111,,,,,,,
11040,note_on,0,0,1,,,,,,,,,0,,,60,62
11040,note_on,120,0,3,,,,,,,,,2,,,36,62
11159,note_on,0,0,2,,,,,,,,,1,,,52,0
11159,note_on,120,0,2,,,,,,,,,1,,,55,0
11160,note_on,120,0,4,,,,,,,,,3,,,24,0
11160,note_on,120,0,1,,,,,,,,,0,,,60,0
11160,note_on,0,0,1,,,,,,,,,0,,,48,0
11160,note_on,120,0,3,,,,,,,,,2,,,36,0
11520,time_signature,480,1,0,1,8,12,8,,,,,,,,,
11520,set_tempo,0,1,0,,,,,,500000,,,,,,,
11520,note_on,360,0,3,,,,,,,,,2,,,47,75
11520,note_on,360,0,1,,,,,,,,,0,,,59,75
11535,note_on,15,0,1,,,,,,,,,0,,,59,0
11535,note_on,0,0,3,,,,,,,,,2,,,48,75
11535,note_on,15,0,3,,,,,,,,,2,,,47,0
11535,note_on,0,0,1,,,,,,,,,0,,,60,75
11550,note_on,15,0,3,,,,,,,,,2,,,48,0
11550,note_on,0,0,3,,,,,,,,,2,,,50,75
11550,note_on,15,0,1,,,,,,,,,0,,,60,0
11550,note_on,0,0,1,,,,,,,,,0,,,62,75
11565,note_on,15,0,1,,,,,,,,,0,,,62,0
11565,note_on,15,0,3,,,,,,,,,2,,,50,0
11565,note_on,0,0,1,,,,,,,,,0,,,64,75
11565,note_on,0,0,3,,,,,,,,,2,,,52,75
11580,note_on,0,0,1,,,,,,,,,0,,,60,88
11580,time_signature,60,1,0,4,4,24,8,,,,,,,,,
11580,note_on,15,0,3,,,,,,,,,2,,,52,0
11580,note_on,15,0,1,,,,,,,,,0,,,64,0
11580,note_on,0,0,1,,,,,,,,,0,,,57,88
11580,note_on,0,0,3,,,,,,,,,2,,,41,75
11580,note_on,0,0,1,,,,,,,,,0,,,65,88
11580,set_tempo,0,1,0,,,,,,1000000,,,,,,,
11580,note_on,0,0,3,,,,,,,,,2,,,53,75
11580,control_change,0,0,1,,,,,,,,,0,64,127,,
11619,note_on,0,0,1,,,,,,,,,0,,,60,62
11619,note_on,0,0,1,,,,,,,,,0,,,65,62
11619,note_on,39,0,1,,,,,,,,,0,,,57,62
11620,note_on,1,0,1,,,,,,,,,0,,,65,0
11620,note_on,0,0,1,,,,,,,,,0,,,57,0
11620,note_on,0,0,1,,,,,,,,,0,,,60,0
11659,note_on,39,0,1,,,,,,,,,0,,,57,0
11659,note_on,0,0,1,,,,,,,,,0,,,65,0
11659,note_on,0,0,1,,,,,,,,,0,,,60,0
11660,note_on,1,0,1,,,,,,,,,0,,,57,62
11660,note_on,0,0,1,,,,,,,,,0,,,65,62
11660,note_on,0,0,1,,,,,,,,,0,,,60,62
11700,note_on,0,0,1,,,,,,,,,0,,,60,62
11700,note_on,40,0,1,,,,,,,,,0,,,65,0
11700,note_on,0,0,1,,,,,,,,,0,,,65,62
11700,note_on,0,0,1,,,,,,,,,0,,,57,0
11700,note_on,0,0,1,,,,,,,,,0,,,60,0
11700,note_on,0,0,1,,,,,,,,,0,,,57,62
11739,note_on,0,0,1,,,,,,,,,0,,,65,62
11739,note_on,0,0,1,,,,,,,,,0,,,60,62
11739,note_on,39,0,1,,,,,,,,,0,,,57,62
11740,note_on,0,0,1,,,,,,,,,0,,,57,0
11740,note_on,0,0,1,,,,,,,,,0,,,60,0
11740,note_on,1,0,1,,,,,,,,,0,,,65,0
11779,note_on,39,0,1,,,,,,,,,0,,,57,0
11779,note_on,0,0,1,,,,,,,,,0,,,65,0
11779,note_on,0,0,1,,,,,,,,,0,,,60,0
11780,control_change,1,0,1,,,,,,,,,0,64,0,,
11780,note_on,0,0,1,,,,,,,,,0,,,65,62
11780,note_on,0,0,1,,,,,,,,,0,,,60,62
11780,note_on,0,0,1,,,,,,,,,0,,,57,62
11820,note_on,0,0,3,,,,,,,,,2,,,37,75
11820,note_on,0,0,3,,,,,,,,,2,,,49,75
11820,note_on,0,0,3,,,,,,,,,2,,,41,0
11820,note_on,40,0,1,,,,,,,,,0,,,65,0
11820,control_change,0,0,1,,,,,,,,,0,64,127,,
11820,note_on,0,0,1,,,,,,,,,0,,,57,0
11820,note_on,0,0,1,,,,,,,,,0,,,65,88
11820,note_on,240,0,3,,,,,,,,,2,,,53,0
11820,note_on,0,0,1,,,,,,,,,0,,,60,0
11820,note_on,0,0,1,,,,,,,,,0,,,59,88
11820,note_on,0,0,1,,,,,,,,,0,,,56,88
11859,note_on,0,0,1,,,,,,,,,0,,,65,62
11859,note_on,0,0,1,,,,,,,,,0,,,59,62
11859,note_on,39,0,1,,,,,,,,,0,,,56,62
11860,note_on,0,0,1,,,,,,,,,0,,,56,0
11860,note_on,1,0,1,,,,,,,,,0,,,65,0
11860,note_on,0,0,1,,,,,,,,,0,,,59,0
11899,note_on,39,0,1,,,,,,,,,0,,,56,0
11899,note_on,0,0,1,,,,,,,,,0,,,65,0
11899,note_on,0,0,1,,,,,,,,,0,,,59,0
11900,note_on,0,0,1,,,,,,,,,0,,,59,62
11900,note_on,0,0,1,,,,,,,,,0,,,65,62
11900,note_on,1,0,1,,,,,,,,,0,,,56,62
11940,note_on,0,0,1,,,,,,,,,0,,,56,62
11940,note_on,40,0,1,,,,,,,,,0,,,65,0
11940,note_on,0,0,1,,,,,,,,,0,,,65,62
11940,note_on,0,0,1,,,,,,,,,0,,,56,0
11940,note_on,0,0,1,,,,,,,,,0,,,59,0
11940,note_on,0,0,1,,,,,,,,,0,,,59,62
11979,note_on,39,0,1,,,,,,,,,0,,,56,62
11979,note_on,0,0,1,,,,,,,,,0,,,65,62
11979,note_on,0,0,1,,,,,,,,,0,,,59,62
11980,note_on,0,0,1,,,,,,,,,0,,,59,0
11980,note_on,1,0,1,,,,,,,,,0,,,65,0
11980,note_on,0,0,1,,,,,,,,,0,,,56,0
12019,note_on,0,0,1,,,,,,,,,0,,,59,0
12019,note_on,39,0,1,,,,,,,,,0,,,56,0
12019,note_on,0,0,1,,,,,,,,,0,,,65,0
12020,note_on,0,0,1,,,,,,,,,0,,,59,62
12020,control_change,1,0,1,,,,,,,,,0,64,0,,
12020,note_on,0,0,1,,,,,,,,,0,,,56,62
12020,note_on,0,0,1,,,,,,,,,0,,,65,62
12060,note_on,40,0,1,,,,,,,,,0,,,65,0
12060,note_on,0,0,1,,,,,,,,,0,,,56,0
12060,note_on,240,0,3,,,,,,,,,2,,,49,0
12060,note_on,0,0,1,,,,,,,,,0,,,57,88
12060,note_on,0,0,1,,,,,,,,,0,,,59,0
12060,note_on,0,0,1,,,,,,,,,0,,,60,88
12060,note_on,0,0,1,,,,,,,,,0,,,65,88
12060,note_on,0,0,3,,,,,,,,,2,,,48,75
12060,note_on,0,0,3,,,,,,,,,2,,,37,0
12060,note_on,0,0,3,,,,,,,,,2,,,36,75
12099,note_on,0,0,1,,,,,,,,,0,,,65,62
12099,note_on,39,0,1,,,,,,,,,0,,,57,62
12099,note_on,0,0,1,,,,,,,,,0,,,60,62
12100,note_on,0,0,1,,,,,,,,,0,,,60,0
12100,note_on,0,0,1,,,,,,,,,0,,,57,0
12100,note_on,1,0,1,,,,,,,,,0,,,65,0
12139,note_on,0,0,1,,,,,,,,,0,,,60,0
12139,note_on,39,0,1,,,,,,,,,0,,,57,0
12139,note_on,0,0,1,,,,,,,,,0,,,65,0
12140,note_on,0,0,1,,,,,,,,,0,,,65,62
12140,note_on,0,0,1,,,,,,,,,0,,,60,62
12140,note_on,1,0,1,,,,,,,,,0,,,57,62
12180,note_on,40,0,1,,,,,,,,,0,,,65,0
12180,note_on,0,0,3,,,,,,,,,2,,,47,75
12180,note_on,0,0,3,,,,,,,,,2,,,36,0
12180,note_on,120,0,3,,,,,,,,,2,,,48,0
12180,note_on,0,0,1,,,,,,,,,0,,,57,0
12180,note_on,0,0,1,,,,,,,,,0,,,55,88
12180,note_on,0,0,1,,,,,,,,,0,,,60,0
12180,note_on,0,0,1,,,,,,,,,0,,,62,88
12180,note_on,0,0,1,,,,,,,,,0,,,65,88
12180,note_on,0,0,3,,,,,,,,,2,,,35,75
12219,note_on,39,0,1,,,,,,,,,0,,,55,62
12219,note_on,0,0,1,,,,,,,,,0,,,65,62
12219,note_on,0,0,1,,,,,,,,,0,,,62,62
12220,note_on,0,0,1,,,,,,,,,0,,,62,0
12220,note_on,0,0,1,,,,,,,,,0,,,55,0
12220,note_on,1,0,1,,,,,,,,,0,,,65,0
12259,note_on,0,0,1,,,,,,,,,0,,,62,0
12259,note_on,39,0,1,,,,,,,,,0,,,55,0
12259,note_on,0,0,1,,,,,,,,,0,,,65,0
12260,note_on,0,0,1,,,,,,,,,0,,,62,62
12260,note_on,0,0,1,,,,,,,,,0,,,65,62
12260,note_on,1,0,1,,,,,,,,,0,,,55,62
12300,note_on,0,0,3,,,,,,,,,2,,,48,75
12300,note_on,0,0,3,,,,,,,,,2,,,36,75
12300,note_on,0,0,3,,,,,,,,,2,,,35,0
12300,note_on,0,0,1,,,,,,,,,0,,,60,88
12300,note_on,40,0,1,,,,,,,,,0,,,65,0
12300,note_on,0,0,1,,,,,,,,,0,,,55,88
12300,note_on,0,0,1,,,,,,,,,0,,,65,88
12300,note_on,120,0,3,,,,,,,,,2,,,47,0
12300,note_on,0,0,1,,,,,,,,,0,,,55,0
12300,note_on,0,0,1,,,,,,,,,0,,,62,0
12339,note_on,0,0,1,,,,,,,,,0,,,60,62
12339,note_on,39,0,1,,,,,,,,,0,,,55,62
12339,note_on,0,0,1,,,,,,,,,0,,,65,62
12340,note_on,0,0,1,,,,,,,,,0,,,55,0
12340,note_on,1,0,1,,,,,,,,,0,,,65,0
12340,note_on,0,0,1,,,,,,,,,0,,,60,0
12379,note_on,0,0,1,,,,,,,,,0,,,65,0
12379,note_on,0,0,1,,,,,,,,,0,,,60,0
12379,note_on,39,0,1,,,,,,,,,0,,,55,0
12380,note_on,0,0,1,,,,,,,,,0,,,60,62
12380,note_on,0,0,1,,,,,,,,,0,,,65,62
12380,note_on,1,0,1,,,,,,,,,0,,,55,62
12419,note_on,0,0,2,,,,,,,,,1,,,60,62
12419,note_on,0,0,2,,,,,,,,,1,,,64,62
12419,note_on,1260,0,2,,,,,,,,,1,,,55,62
12420,note_on,0,0,3,,,,,,,,,2,,,36,0
12420,note_on,0,0,3,,,,,,,,,2,,,48,75
12420,note_on,120,0,3,,,,,,,,,2,,,48,0
12420,note_on,0,0,1,,,,,,,,,0,,,55,0
12420,note_on,40,0,1,,,,,,,,,0,,,65,0
12420,note_on,0,0,3,,,,,,,,,2,,,36,75
12420,note_on,0,0,1,,,,,,,,,0,,,60,0
12459,note_on,0,0,2,,,,,,,,,1,,,60,0
12459,note_on,0,0,2,,,,,,,,,1,,,60,62
12459,note_on,0,0,2,,,,,,,,,1,,,55,62
12459,note_on,0,0,2,,,,,,,,,1,,,55,0
12459,note_on,40,0,2,,,,,,,,,1,,,64,0
12459,note_on,0,0,2,,,,,,,,,1,,,64,62
12499,note_on,0,0,2,,,,,,,,,1,,,55,0
12499,note_on,40,0,2,,,,,,,,,1,,,64,0
12499,note_on,0,0,2,,,,,,,,,1,,,64,62
12499,note_on,0,0,2,,,,,,,,,1,,,60,62
12499,note_on,0,0,2,,,,,,,,,1,,,60,0
12499,note_on,0,0,2,,,,,,,,,1,,,55,62
12510,note_on,0,0,3,,,,,,,,,2,,,48,101
12510,note_on,90,0,3,,,,,,,,,2,,,48,0
12510,note_on,90,0,1,,,,,,,,,0,,,60,101
12510,note_on,0,0,3,,,,,,,,,2,,,36,0
12539,note_on,0,0,2,,,,,,,,,1,,,55,0
12539,note_on,40,0,2,,,,,,,,,1,,,64,0
12539,note_on,0,0,2,,,,,,,,,1,,,60,0
12539,note_on,0,0,2,,,,,,,,,1,,,60,62
12539,note_on,0,0,2,,,,,,,,,1,,,57,62
12540,note_on,0,0,1,,,,,,,,,0,,,65,101
12540,note_on,30,0,3,,,,,,,,,2,,,48,0
12540,note_on,0,0,3,,,,,,,,,2,,,53,101
12540,note_on,30,0,1,,,,,,,,,0,,,60,0
12579,note_on,0,0,2,,,,,,,,,1,,,57,0
12579,note_on,0,0,2,,,,,,,,,1,,,57,62
12579,note_on,0,0,2,,,,,,,,,1,,,60,62
12579,note_on,40,0,2,,,,,,,,,1,,,60,0
12619,note_on,0,0,2,,,,,,,,,1,,,57,62
12619,note_on,40,0,2,,,,,,,,,1,,,60,0
12619,note_on,0,0,2,,,,,,,,,1,,,57,0
12619,note_on,0,0,2,,,,,,,,,1,,,60,62
12659,note_on,0,0,2,,,,,,,,,1,,,60,62
12659,note_on,0,0,2,,,,,,,,,1,,,57,0
12659,note_on,0,0,2,,,,,,,,,1,,,65,62
12659,note_on,40,0,2,,,,,,,,,1,,,60,0
12660,note_on,0,0,1,,,,,,,,,0,,,69,101
12660,note_on,0,0,1,,,,,,,,,0,,,57,101
12660,note_on,120,0,3,,,,,,,,,2,,,53,0
12660,note_on,120,0,1,,,,,,,,,0,,,65,0
12699,note_on,40,0,2,,,,,,,,,1,,,65,0
12699,note_on,0,0,2,,,,,,,,,1,,,60,0
12699,note_on,0,0,2,,,,,,,,,1,,,60,62
12699,note_on,0,0,2,,,,,,,,,1,,,65,62
12739,note_on,0,0,2,,,,,,,,,1,,,60,0
12739,note_on,40,0,2,,,,,,,,,1,,,65,0
12739,note_on,0,0,2,,,,,,,,,1,,,60,62
12739,note_on,0,0,2,,,,,,,,,1,,,65,62
12750,note_on,0,0,1,,,,,,,,,0,,,58,101
12750,note_on,90,0,1,,,,,,,,,0,,,69,0
12750,note_on,0,0,1,,,,,,,,,0,,,70,101
12750,note_on,0,0,1,,,,,,,,,0,,,57,0
12779,note_on,0,0,2,,,,,,,,,1,,,60,0
12779,note_on,0,0,2,,,,,,,,,1,,,65,62
12779,note_on,40,0,2,,,,,,,,,1,,,65,0
12779,note_on,0,0,2,,,,,,,,,1,,,69,62
12780,note_on,120,0,3,,,,,,,,,2,,,41,75
12780,note_on,0,0,1,,,,,,,,,0,,,72,101
12780,note_on,0,0,1,,,,,,,,,0,,,60,101
12780,note_on,0,0,1,,,,,,,,,0,,,58,0
12780,note_on,0,0,3,,,,,,,,,2,,,53,75
12780,note_on,30,0,1,,,,,,,,,0,,,70,0
12819,note_on,0,0,2,,,,,,,,,1,,,69,62
12819,note_on,0,0,2,,,,,,,,,1,,,65,62
12819,note_on,0,0,2,,,,,,,,,1,,,65,0
12819,note_on,40,0,2,,,,,,,,,1,,,69,0
12859,note_on,40,0,2,,,,,,,,,1,,,69,0
12859,note_on,0,0,2,,,,,,,,,1,,,65,62
12859,note_on,0,0,2,,,,,,,,,1,,,69,62
12859,note_on,0,0,2,,,,,,,,,1,,,65,0
12899,note_on,0,0,2,,,,,,,,,1,,,65,62
12899,note_on,0,0,2,,,,,,,,,1,,,65,0
12899,note_on,0,0,2,,,,,,,,,1,,,69,62
12899,note_on,40,0,2,,,,,,,,,1,,,69,0
12900,note_on,120,0,3,,,,,,,,,2,,,53,0
12900,note_on,0,0,3,,,,,,,,,2,,,36,75
12900,note_on,0,0,3,,,,,,,,,2,,,48,75
12900,note_on,0,0,3,,,,,,,,,2,,,41,0
12939,note_on,0,0,2,,,,,,,,,1,,,65,0
12939,note_on,0,0,2,,,,,,,,,1,,,69,62
12939,note_on,40,0,2,,,,,,,,,1,,,69,0
12939,note_on,0,0,2,,,,,,,,,1,,,65,62
12979,note_on,0,0,2,,,,,,,,,1,,,65,0
12979,note_on,0,0,2,,,,,,,,,1,,,65,62
12979,note_on,40,0,2,,,,,,,,,1,,,69,0
12979,note_on,0,0,2,,,,,,,,,1,,,69,62
12990,note_on,0,0,3,,,,,,,,,2,,,46,75
12990,note_on,90,0,3,,,,,,,,,2,,,48,0
12990,note_on,0,0,3,,,,,,,,,2,,,36,0
12990,note_on,0,0,3,,,,,,,,,2,,,34,75
13019,note_on,40,0,2,,,,,,,,,1,,,69,0
13019,note_on,0,0,2,,,,,,,,,1,,,65,0
13019,note_on,0,0,2,,,,,,,,,1,,,65,62
13019,note_on,0,0,2,,,,,,,,,1,,,69,62
13020,note_on,0,0,1,,,,,,,,,0,,,72,101
13020,note_on,0,0,1,,,,,,,,,0,,,60,101
13020,note_on,0,0,3,,,,,,,,,2,,,45,75
13020,note_on,0,0,3,,,,,,,,,2,,,33,75
13020,note_on,0,0,3,,,,,,,,,2,,,34,0
13020,note_on,240,0,1,,,,,,,,,0,,,72,0
13020,note_on,30,0,3,,,,,,,,,2,,,46,0
13020,note_on,0,0,1,,,,,,,,,0,,,60,0
13059,note_on,0,0,2,,,,,,,,,1,,,65,0
13059,note_on,0,0,2,,,,,,,,,1,,,65,62
13059,note_on,0,0,2,,,,,,,,,1,,,69,62
13059,note_on,40,0,2,,,,,,,,,1,,,69,0
13099,note_on,0,0,2,,,,,,,,,1,,,65,62
13099,note_on,0,0,2,,,,,,,,,1,,,69,62
13099,note_on,40,0,2,,,,,,,,,1,,,69,0
13099,note_on,0,0,2,,,,,,,,,1,,,65,0
13139,note_on,0,0,2,,,,,,,,,1,,,72,62
13139,note_on,0,0,2,,,,,,,,,1,,,65,0
13139,note_on,0,0,2,,,,,,,,,1,,,69,62
13139,note_on,40,0,2,,,,,,,,,1,,,69,0
13140,note_on,0,0,1,,,,,,,,,0,,,65,101
13140,note_on,0,0,1,,,,,,,,,0,,,77,101
13140,note_on,120,0,1,,,,,,,,,0,,,72,0
13140,note_on,0,0,1,,,,,,,,,0,,,60,0
13179,note_on,40,0,2,,,,,,,,,1,,,72,0
13179,note_on,0,0,2,,,,,,,,,1,,,69,0
13179,note_on,0,0,2,,,,,,,,,1,,,69,62
13179,note_on,0,0,2,,,,,,,,,1,,,72,62
13219,note_on,0,0,2,,,,,,,,,1,,,72,62
13219,note_on,0,0,2,,,,,,,,,1,,,69,62
13219,note_on,40,0,2,,,,,,,,,1,,,72,0
13219,note_on,0,0,2,,,,,,,,,1,,,69,0
13259,note_on,0,0,2,,,,,,,,,1,,,65,62
13259,note_on,0,0,2,,,,,,,,,1,,,69,0
13259,note_on,0,0,2,,,,,,,,,1,,,70,62
13259,note_on,40,0,2,,,,,,,,,1,,,72,0
13260,note_on,0,0,1,,,,,,,,,0,,,62,101
13260,note_on,0,0,3,,,,,,,,,2,,,46,75
13260,note_on,0,0,3,,,,,,,,,2,,,34,75
13260,note_on,0,0,3,,,,,,,,,2,,,33,0
13260,note_on,240,0,3,,,,,,,,,2,,,45,0
13260,note_on,120,0,1,,,,,,,,,0,,,77,0
13260,note_on,0,0,1,,,,,,,,,0,,,74,101
13260,note_on,0,0,1,,,,,,,,,0,,,65,0
13299,note_on,0,0,2,,,,,,,,,1,,,70,62
13299,note_on,40,0,2,,,,,,,,,1,,,70,0
13299,note_on,0,0,2,,,,,,,,,1,,,65,62
13299,note_on,0,0,2,,,,,,,,,1,,,65,0
13339,note_on,40,0,2,,,,,,,,,1,,,70,0
13339,note_on,0,0,2,,,,,,,,,1,,,70,62
13339,note_on,0,0,2,,,,,,,,,1,,,65,62
13339,note_on,0,0,2,,,,,,,,,1,,,65,0
13379,note_on,0,0,2,,,,,,,,,1,,,70,62
13379,note_on,0,0,2,,,,,,,,,1,,,67,62
13379,note_on,40,0,2,,,,,,,,,1,,,70,0
13379,note_on,0,0,2,,,,,,,,,1,,,65,0
13380,note_on,0,0,3,,,,,,,,,2,,,31,75
13380,note_on,0,0,3,,,,,,,,,2,,,34,0
13380,note_on,0,0,3,,,,,,,,,2,,,43,75
13380,note_on,120,0,3,,,,,,,,,2,,,46,0
13419,note_on,0,0,2,,,,,,,,,1,,,67,0
13419,note_on,0,0,2,,,,,,,,,1,,,67,62
13419,note_on,0,0,2,,,,,,,,,1,,,70,62
13419,note_on,40,0,2,,,,,,,,,1,,,70,0
13459,note_on,40,0,2,,,,,,,,,1,,,70,0
13459,note_on,0,0,2,,,,,,,,,1,,,67,62
13459,note_on,0,0,2,,,,,,,,,1,,,67,0
13459,note_on,0,0,2,,,,,,,,,1,,,70,62
13470,note_on,0,0,3,,,,,,,,,2,,,29,75
13470,note_on,90,0,3,,,,,,,,,2,,,43,0
13470,note_on,0,0,3,,,,,,,,,2,,,41,75
13470,note_on,0,0,3,,,,,,,,,2,,,31,0
13499,note_on,40,0,2,,,,,,,,,1,,,70,0
13499,note_on,0,0,2,,,,,,,,,1,,,64,62
13499,note_on,0,0,2,,,,,,,,,1,,,67,0
13499,note_on,0,0,2,,,,,,,,,1,,,67,62
13500,note_on,0,0,3,,,,,,,,,2,,,40,75
13500,note_on,240,0,1,,,,,,,,,0,,,74,0
13500,note_on,30,0,3,,,,,,,,,2,,,41,0
13500,note_on,0,0,1,,,,,,,,,0,,,60,101
13500,note_on,0,0,1,,,,,,,,,0,,,62,0
13500,note_on,0,0,1,,,,,,,,,0,,,72,101
13500,note_on,0,0,3,,,,,,,,,2,,,29,0
13500,note_on,0,0,3,,,,,,,,,2,,,28,75
13539,note_on,0,0,2,,,,,,,,,1,,,64,0
13539,note_on,40,0,2,,,,,,,,,1,,,67,0
13539,note_on,0,0,2,,,,,,,,,1,,,67,62
13539,note_on,0,0,2,,,,,,,,,1,,,64,62
13579,note_on,40,0,2,,,,,,,,,1,,,67,0
13579,note_on,0,0,2,,,,,,,,,1,,,67,62
13579,note_on,0,0,2,,,,,,,,,1,,,64,62
13579,note_on,0,0,2,,,,,,,,,1,,,64,0
13619,note_on,0,0,2,,,,,,,,,1,,,60,62
13619,note_on,0,0,2,,,,,,,,,1,,,64,0
13619,note_on,40,0,2,,,,,,,,,1,,,67,0
13619,note_on,0,0,2,,,,,,,,,1,,,67,62
13620,note_on,120,0,1,,,,,,,,,0,,,72,0
13620,note_on,0,0,1,,,,,,,,,0,,,70,101
13620,note_on,0,0,1,,,,,,,,,0,,,60,0
13620,note_on,0,0,1,,,,,,,,,0,,,58,101
13659,note_on,0,0,2,,,,,,,,,1,,,60,0
13659,note_on,0,0,2,,,,,,,,,1,,,60,62
13659,note_on,0,0,2,,,,,,,,,1,,,67,62
13659,note_on,40,0,2,,,,,,,,,1,,,67,0
13699,note_on,0,0,2,,,,,,,,,1,,,67,62
13699,note_on,0,0,2,,,,,,,,,1,,,60,62
13699,note_on,0,0,2,,,,,,,,,1,,,60,0
13699,note_on,40,0,2,,,,,,,,,1,,,67,0
13710,note_on,90,0,1,,,,,,,,,0,,,70,0
13710,note_on,0,0,1,,,,,,,,,0,,,58,101
13710,note_on,0,0,1,,,,,,,,,0,,,58,0
13710,note_on,0,0,1,,,,,,,,,0,,,70,101
13739,note_on,0,0,2,,,,,,,,,1,,,65,62
13739,note_on,0,0,2,,,,,,,,,1,,,60,62
13739,note_on,0,0,2,,,,,,,,,1,,,60,0
13739,note_on,40,0,2,,,,,,,,,1,,,67,0
13740,note_on,0,0,3,,,,,,,,,2,,,28,0
13740,note_on,0,0,3,,,,,,,,,2,,,29,75
13740,note_on,0,0,1,,,,,,,,,0,,,57,101
13740,note_on,0,0,1,,,,,,,,,0,,,69,101
13740,note_on,0,0,3,,,,,,,,,2,,,41,75
13740,note_on,0,0,1,,,,,,,,,0,,,58,0
13740,note_on,240,0,3,,,,,,,,,2,,,40,0
13740,note_on,30,0,1,,,,,,,,,0,,,70,0
13779,note_on,0,0,2,,,,,,,,,1,,,65,62
13779,note_on,0,0,2,,,,,,,,,1,,,60,62
13779,note_on,40,0,2,,,,,,,,,1,,,65,0
13779,note_on,0,0,2,,,,,,,,,1,,,60,0
13819,note_on,0,0,2,,,,,,,,,1,,,60,62
13819,note_on,0,0,2,,,,,,,,,1,,,60,0
13819,note_on,0,0,2,,,,,,,,,1,,,65,62
13819,note_on,40,0,2,,,,,,,,,1,,,65,0
13859,note_on,40,0,2,,,,,,,,,1,,,65,0
13859,note_on,0,0,2,,,,,,,,,1,,,65,62
13859,note_on,0,0,2,,,,,,,,,1,,,62,62
13859,note_on,0,0,2,,,,,,,,,1,,,60,0
13860,note_on,0,0,3,,,,,,,,,2,,,28,75
13860,note_on,0,0,3,,,,,,,,,2,,,29,0
13860,note_on,0,0,3,,,,,,,,,2,,,40,75
13860,note_on,120,0,3,,,,,,,,,2,,,41,0
13899,note_on,0,0,2,,,,,,,,,1,,,62,0
13899,note_on,0,0,2,,,,,,,,,1,,,62,62
13899,note_on,0,0,2,,,,,,,,,1,,,65,62
13899,note_on,40,0,2,,,,,,,,,1,,,65,0
13939,note_on,0,0,2,,,,,,,,,1,,,62,0
13939,note_on,0,0,2,,,,,,,,,1,,,65,62
13939,note_on,0,0,2,,,,,,,,,1,,,62,62
13939,note_on,40,0,2,,,,,,,,,1,,,65,0
13950,note_on,0,0,3,,,,,,,,,2,,,38,75
13950,note_on,0,0,3,,,,,,,,,2,,,28,0
13950,note_on,90,0,3,,,,,,,,,2,,,40,0
13950,note_on,0,0,3,,,,,,,,,2,,,26,75
13979,note_on,0,0,2,,,,,,,,,1,,,62,0
13979,control_change,0,0,2,,,,,,,,,1,64,127,,
13979,note_on,0,0,2,,,,,,,,,1,,,67,62
13979,note_on,0,0,2,,,,,,,,,1,,,64,62
13979,note_on,40,0,2,,,,,,,,,1,,,65,0
13980,note_on,0,0,3,,,,,,,,,2,,,37,75
13980,note_on,30,0,3,,,,,,,,,2,,,38,0
13980,note_on,0,0,1,,,,,,,,,0,,,69,101
13980,note_on,0,0,1,,,,,,,,,0,,,57,101
13980,note_on,0,0,1,,,,,,,,,0,,,57,0
13980,note_on,240,0,1,,,,,,,,,0,,,69,0
13980,note_on,0,0,3,,,,,,,,,2,,,26,0
13980,note_on,0,0,3,,,,,,,,,2,,,25,75
14019,note_on,0,0,2,,,,,,,,,1,,,64,62
14019,note_on,40,0,2,,,,,,,,,1,,,67,0
14019,note_on,0,0,2,,,,,,,,,1,,,64,0
14019,note_on,0,0,2,,,,,,,,,1,,,67,62
14059,note_on,0,0,2,,,,,,,,,1,,,64,0
14059,note_on,40,0,2,,,,,,,,,1,,,67,0
14059,note_on,0,0,2,,,,,,,,,1,,,64,62
14059,note_on,0,0,2,,,,,,,,,1,,,67,62
14099,note_on,40,0,2,,,,,,,,,1,,,67,0
14099,note_on,0,0,2,,,,,,,,,1,,,67,62
14099,note_on,0,0,2,,,,,,,,,1,,,64,62
14099,note_on,0,0,2,,,,,,,,,1,,,64,0
14139,note_on,0,0,2,,,,,,,,,1,,,67,62
14139,note_on,0,0,2,,,,,,,,,1,,,64,62
14139,note_on,0,0,2,,,,,,,,,1,,,64,0
14139,note_on,40,0,2,,,,,,,,,1,,,67,0
14160,note_on,0,0,1,,,,,,,,,0,,,57,0
14160,note_on,0,0,1,,,,,,,,,0,,,57,101
14160,note_on,0,0,1,,,,,,,,,0,,,69,101
14160,note_on,180,0,1,,,,,,,,,0,,,69,0
14179,note_on,0,0,2,,,,,,,,,1,,,64,62
14179,note_on,0,0,2,,,,,,,,,1,,,67,62
14179,control_change,0,0,2,,,,,,,,,1,64,0,,
14179,note_on,40,0,2,,,,,,,,,1,,,67,0
14179,note_on,0,0,2,,,,,,,,,1,,,64,0
14219,note_on,40,0,2,,,,,,,,,1,,,67,0
14219,note_on,0,0,2,,,,,,,,,1,,,65,62
14219,note_on,0,0,2,,,,,,,,,1,,,64,0
14219,note_on,0,0,2,,,,,,,,,1,,,62,62
14219,control_change,0,0,2,,,,,,,,,1,64,127,,
14220,note_on,60,0,1,,,,,,,,,0,,,69,0
14220,note_on,0,0,1,,,,,,,,,0,,,70,101
14220,note_on,0,0,1,,,,,,,,,0,,,58,101
14220,note_on,0,0,1,,,,,,,,,0,,,57,0
14220,note_on,240,0,3,,,,,,,,,2,,,37,0
14220,note_on,0,0,3,,,,,,,,,2,,,29,75
14220,note_on,0,0,3,,,,,,,,,2,,,41,75
14220,note_on,0,0,3,,,,,,,,,2,,,25,0
14259,note_on,0,0,2,,,,,,,,,1,,,65,62
14259,note_on,0,0,2,,,,,,,,,1,,,62,62
14259,note_on,0,0,2,,,,,,,,,1,,,62,0
14259,note_on,40,0,2,,,,,,,,,1,,,65,0
14299,note_on,0,0,2,,,,,,,,,1,,,65,62
14299,note_on,0,0,2,,,,,,,,,1,,,62,0
14299,note_on,40,0,2,,,,,,,,,1,,,65,0
14299,note_on,0,0,2,,,,,,,,,1,,,62,62
14339,note_on,0,0,2,,,,,,,,,1,,,65,62
14339,note_on,0,0,2,,,,,,,,,1,,,62,0
14339,note_on,40,0,2,,,,,,,,,1,,,65,0
14339,note_on,0,0,2,,,,,,,,,1,,,62,62
14379,note_on,0,0,2,,,,,,,,,1,,,62,62
14379,note_on,0,0,2,,,,,,,,,1,,,62,0
14379,note_on,40,0,2,,,,,,,,,1,,,65,0
14379,note_on,0,0,2,,,,,,,,,1,,,65,62
14419,note_on,0,0,2,,,,,,,,,1,,,62,62
14419,note_on,0,0,2,,,,,,,,,1,,,62,0
14419,note_on,40,0,2,,,,,,,,,1,,,65,0
14419,note_on,0,0,2,,,,,,,,,1,,,65,62
14419,control_change,0,0,2,,,,,,,,,1,64,0,,
14459,note_on,0,0,2,,,,,,,,,1,,,70,62
14459,control_change,0,0,2,,,,,,,,,1,64,127,,
14459,note_on,0,0,2,,,,,,,,,1,,,67,62
14459,note_on,0,0,2,,,,,,,,,1,,,62,0
14459,note_on,40,0,2,,,,,,,,,1,,,65,0
14460,note_on,0,0,3,,,,,,,,,2,,,29,0
14460,note_on,0,0,1,,,,,,,,,0,,,58,0
14460,control_change,0,0,3,,,,,,,,,2,64,127,,
14460,note_on,3300,0,4,,,,,,,,,3,,,40,62
14460,note_on,0,0,3,,,,,,,,,2,,,40,75
14460,note_on,0,0,1,,,,,,,,,0,,,60,101
14460,note_on,0,0,1,,,,,,,,,0,,,72,101
14460,note_on,240,0,3,,,,,,,,,2,,,41,0
14460,note_on,240,0,1,,,,,,,,,0,,,70,0
14475,note_on,15,0,3,,,,,,,,,2,,,40,0
14475,note_on,0,0,3,,,,,,,,,2,,,41,75
14490,note_on,0,0,3,,,,,,,,,2,,,40,75
14490,note_on,15,0,3,,,,,,,,,2,,,41,0
14499,note_on,0,0,2,,,,,,,,,1,,,70,62
14499,note_on,40,0,2,,,,,,,,,1,,,70,0
14499,note_on,0,0,2,,,,,,,,,1,,,67,62
14499,note_on,0,0,2,,,,,,,,,1,,,67,0
14505,note_on,15,0,3,,,,,,,,,2,,,40,0
14505,note_on,0,0,3,,,,,,,,,2,,,41,75
14520,note_on,15,0,3,,,,,,,,,2,,,41,0
14520,note_on,0,0,3,,,,,,,,,2,,,40,75
14535,note_on,15,0,3,,,,,,,,,2,,,40,0
14535,note_on,0,0,3,,,,,,,,,2,,,41,75
14539,note_on,0,0,2,,,,,,,,,1,,,67,0
14539,note_on,40,0,2,,,,,,,,,1,,,70,0
14539,note_on,0,0,2,,,,,,,,,1,,,67,62
14539,note_on,0,0,2,,,,,,,,,1,,,70,62
14550,note_on,0,0,3,,,,,,,,,2,,,40,75
14550,note_on,15,0,3,,,,,,,,,2,,,41,0
14565,note_on,0,0,3,,,,,,,,,2,,,41,75
14565,note_on,15,0,3,,,,,,,,,2,,,40,0
14579,note_on,40,0,2,,,,,,,,,1,,,70,0
14579,note_on,0,0,2,,,,,,,,,1,,,70,62
14579,note_on,0,0,2,,,,,,,,,1,,,67,62
14579,note_on,0,0,2,,,,,,,,,1,,,67,0
14580,note_on,0,0,3,,,,,,,,,2,,,40,75
14580,note_on,15,0,3,,,,,,,,,2,,,41,0
14595,note_on,0,0,3,,,,,,,,,2,,,41,75
14595,note_on,15,0,3,,,,,,,,,2,,,40,0
14610,note_on,0,0,3,,,,,,,,,2,,,40,75
14610,note_on,15,0,3,,,,,,,,,2,,,41,0
14619,note_on,0,0,2,,,,,,,,,1,,,67,0
14619,note_on,0,0,2,,,,,,,,,1,,,67,62
14619,note_on,0,0,2,,,,,,,,,1,,,70,62
14619,note_on,40,0,2,,,,,,,,,1,,,70,0
14625,note_on,0,0,3,,,,,,,,,2,,,41,75
14625,note_on,15,0,3,,,,,,,,,2,,,40,0
14640,note_on,15,0,3,,,,,,,,,2,,,41,0
14640,note_on,0,0,3,,,,,,,,,2,,,38,75
14659,note_on,0,0,2,,,,,,,,,1,,,70,62
14659,note_on,0,0,2,,,,,,,,,1,,,67,62
14659,note_on,0,0,2,,,,,,,,,1,,,67,0
14659,control_change,0,0,2,,,,,,,,,1,64,0,,
14659,note_on,40,0,2,,,,,,,,,1,,,70,0
14670,note_on,30,0,3,,,,,,,,,2,,,38,0
14670,note_on,0,0,3,,,,,,,,,2,,,40,75
14670,control_change,0,0,3,,,,,,,,,2,64,0,,
14699,control_change,0,0,2,,,,,,,,,1,64,127,,
14699,note_on,0,0,2,,,,,,,,,1,,,65,62
14699,note_on,0,0,2,,,,,,,,,1,,,60,62
14699,note_on,40,0,2,,,,,,,,,1,,,70,0
14699,note_on,0,0,2,,,,,,,,,1,,,67,0
14700,note_on,240,0,1,,,,,,,,,0,,,72,0
14700,note_on,0,0,3,,,,,,,,,2,,,41,75
14700,note_on,30,0,3,,,,,,,,,2,,,40,0
14700,note_on,0,0,3,,,,,,,,,2,,,29,75
14700,note_on,0,0,1,,,,,,,,,0,,,69,101
14700,note_on,240,0,4,,,,,,,,,3,,,40,0
14700,note_on,0,0,1,,,,,,,,,0,,,60,0
14700,note_on,0,0,1,,,,,,,,,0,,,57,101
14739,note_on,0,0,2,,,,,,,,,1,,,65,62
14739,note_on,0,0,2,,,,,,,,,1,,,60,62
14739,note_on,40,0,2,,,,,,,,,1,,,65,0
14739,note_on,0,0,2,,,,,,,,,1,,,60,0
14779,note_on,0,0,2,,,,,,,,,1,,,60,0
14779,note_on,40,0,2,,,,,,,,,1,,,65,0
14779,note_on,0,0,2,,,,,,,,,1,,,65,62
14779,note_on,0,0,2,,,,,,,,,1,,,60,62
14819,note_on,40,0,2,,,,,,,,,1,,,65,0
14819,note_on,0,0,2,,,,,,,,,1,,,60,62
14819,note_on,0,0,2,,,,,,,,,1,,,60,0
14819,note_on,0,0,2,,,,,,,,,1,,,57,62
14820,note_on,0,0,1,,,,,,,,,0,,,65,101
14820,note_on,0,0,1,,,,,,,,,0,,,57,0
14820,note_on,0,0,1,,,,,,,,,0,,,53,101
14820,note_on,120,0,1,,,,,,,,,0,,,69,0
14859,note_on,40,0,2,,,,,,,,,1,,,60,0
14859,note_on,0,0,2,,,,,,,,,1,,,60,62
14859,note_on,0,0,2,,,,,,,,,1,,,57,62
14859,note_on,0,0,2,,,,,,,,,1,,,57,0
14899,note_on,0,0,2,,,,,,,,,1,,,60,62
14899,note_on,0,0,2,,,,,,,,,1,,,57,62
14899,note_on,0,0,2,,,,,,,,,1,,,57,0
14899,note_on,40,0,2,,,,,,,,,1,,,60,0
14899,control_change,0,0,2,,,,,,,,,1,64,0,,
14939,control_change,0,0,2,,,,,,,,,1,64,127,,
14939,note_on,0,0,2,,,,,,,,,1,,,68,62
14939,note_on,0,0,2,,,,,,,,,1,,,57,0
14939,note_on,0,0,2,,,,,,,,,1,,,65,62
14939,note_on,40,0,2,,,,,,,,,1,,,60,0
14940,note_on,120,0,1,,,,,,,,,0,,,65,0
14940,note_on,240,0,4,,,,,,,,,3,,,41,62
14940,note_on,240,0,3,,,,,,,,,2,,,41,0
14940,control_change,0,0,1,,,,,,,,,0,64,127,,
14940,note_on,0,0,3,,,,,,,,,2,,,29,0
14940,note_on,0,0,3,,,,,,,,,2,,,48,75
14940,note_on,0,0,3,,,,,,,,,2,,,56,75
14940,note_on,0,0,1,,,,,,,,,0,,,53,0
14940,note_on,0,0,1,,,,,,,,,0,,,60,101
14940,note_on,0,0,1,,,,,,,,,0,,,72,101
14979,note_on,0,0,2,,,,,,,,,1,,,65,0
14979,note_on,0,0,2,,,,,,,,,1,,,68,62
14979,note_on,0,0,2,,,,,,,,,1,,,65,62
14979,note_on,40,0,2,,,,,,,,,1,,,68,0
15019,note_on,40,0,2,,,,,,,,,1,,,68,0
15019,note_on,0,0,2,,,,,,,,,1,,,65,0
15019,note_on,0,0,2,,,,,,,,,1,,,65,62
15019,note_on,0,0,2,,,,,,,,,1,,,68,62
15059,note_on,0,0,2,,,,,,,,,1,,,65,0
15059,note_on,0,0,2,,,,,,,,,1,,,65,62
15059,note_on,0,0,2,,,,,,,,,1,,,68,62
15059,note_on,40,0,2,,,,,,,,,1,,,68,0
15060,note_on,0,0,1,,,,,,,,,0,,,60,101
15060,note_on,120,0,1,,,,,,,,,0,,,72,0
15060,note_on,0,0,1,,,,,,,,,0,,,72,101
15060,note_on,0,0,1,,,,,,,,,0,,,60,0
15099,note_on,40,0,2,,,,,,,,,1,,,68,0
15099,note_on,0,0,2,,,,,,,,,1,,,65,0
15099,note_on,0,0,2,,,,,,,,,1,,,68,62
15099,note_on,0,0,2,,,,,,,,,1,,,65,62
15120,control_change,0,0,1,,,,,,,,,0,64,0,,
15120,note_on,0,0,1,,,,,,,,,0,,,60,0
15120,note_on,0,0,1,,,,,,,,,0,,,60,101
15120,note_on,0,0,1,,,,,,,,,0,,,72,101
15120,note_on,60,0,1,,,,,,,,,0,,,72,0
15139,control_change,0,0,2,,,,,,,,,1,64,0,,
15139,note_on,40,0,2,,,,,,,,,1,,,68,0
15139,note_on,0,0,2,,,,,,,,,1,,,65,62
15139,note_on,0,0,2,,,,,,,,,1,,,68,62
15139,note_on,0,0,2,,,,,,,,,1,,,65,0
15179,note_on,0,0,2,,,,,,,,,1,,,65,0
15179,note_on,0,0,2,,,,,,,,,1,,,65,62
15179,note_on,0,0,2,,,,,,,,,1,,,68,62
15179,control_change,0,0,2,,,,,,,,,1,64,127,,
15179,note_on,40,0,2,,,,,,,,,1,,,68,0
15180,note_on,0,0,3,,,,,,,,,2,,,56,75
15180,note_on,0,0,3,,,,,,,,,2,,,49,75
15180,note_on,240,0,3,,,,,,,,,2,,,56,0
15180,note_on,0,0,1,,,,,,,,,0,,,61,101
15180,note_on,0,0,1,,,,,,,,,0,,,73,101
15180,note_on,60,0,1,,,,,,,,,0,,,72,0
15180,note_on,0,0,3,,,,,,,,,2,,,48,0
15180,note_on,0,0,1,,,,,,,,,0,,,60,0
15219,note_on,0,0,2,,,,,,,,,1,,,65,62
15219,note_on,0,0,2,,,,,,,,,1,,,65,0
15219,note_on,0,0,2,,,,,,,,,1,,,68,62
15219,note_on,40,0,2,,,,,,,,,1,,,68,0
15259,note_on,0,0,2,,,,,,,,,1,,,68,62
15259,note_on,0,0,2,,,,,,,,,1,,,65,62
15259,note_on,0,0,2,,,,,,,,,1,,,65,0
15259,note_on,40,0,2,,,,,,,,,1,,,68,0
15299,note_on,40,0,2,,,,,,,,,1,,,68,0
15299,note_on,0,0,2,,,,,,,,,1,,,65,62
15299,note_on,0,0,2,,,,,,,,,1,,,68,62
15299,note_on,0,0,2,,,,,,,,,1,,,65,0
15300,note_on,0,0,4,,,,,,,,,3,,,41,62
15300,note_on,360,0,4,,,,,,,,,3,,,41,0
15339,note_on,40,0,2,,,,,,,,,1,,,68,0
15339,note_on,0,0,2,,,,,,,,,1,,,65,62
15339,note_on,0,0,2,,,,,,,,,1,,,65,0
15339,note_on,0,0,2,,,,,,,,,1,,,68,62
15379,note_on,0,0,2,,,,,,,,,1,,,65,62
15379,note_on,0,0,2,,,,,,,,,1,,,68,62
15379,control_change,0,0,2,,,,,,,,,1,64,0,,
15379,note_on,40,0,2,,,,,,,,,1,,,68,0
15379,note_on,0,0,2,,,,,,,,,1,,,65,0
15419,control_change,0,0,2,,,,,,,,,1,64,127,,
15419,note_on,0,0,2,,,,,,,,,1,,,65,0
15419,note_on,0,0,2,,,,,,,,,1,,,70,62
15419,note_on,0,0,2,,,,,,,,,1,,,73,62
15419,note_on,40,0,2,,,,,,,,,1,,,68,0
15420,note_on,0,0,3,,,,,,,,,2,,,49,0
15420,note_on,0,0,1,,,,,,,,,0,,,75,101
15420,note_on,0,0,3,,,,,,,,,2,,,58,75
15420,note_on,0,0,3,,,,,,,,,2,,,49,75
15420,note_on,120,0,4,,,,,,,,,3,,,41,0
15420,note_on,0,0,1,,,,,,,,,0,,,63,101
15420,note_on,0,0,1,,,,,,,,,0,,,61,0
15420,control_change,0,0,4,,,,,,,,,3,64,127,,
15420,note_on,240,0,1,,,,,,,,,0,,,73,0
15420,note_on,240,0,3,,,,,,,,,2,,,56,0
15420,note_on,0,0,4,,,,,,,,,3,,,43,62
15435,note_on,15,0,4,,,,,,,,,3,,,43,0
15435,note_on,0,0,4,,,,,,,,,3,,,44,62
15450,note_on,0,0,4,,,,,,,,,3,,,43,62
15450,note_on,15,0,4,,,,,,,,,3,,,44,0
15459,note_on,0,0,2,,,,,,,,,1,,,70,62
15459,note_on,0,0,2,,,,,,,,,1,,,73,62
15459,note_on,0,0,2,,,,,,,,,1,,,70,0
15459,note_on,40,0,2,,,,,,,,,1,,,73,0
15465,note_on,15,0,4,,,,,,,,,3,,,43,0
15465,note_on,0,0,4,,,,,,,,,3,,,44,62
15480,note_on,15,0,4,,,,,,,,,3,,,44,0
15480,note_on,0,0,4,,,,,,,,,3,,,43,62
15495,note_on,15,0,4,,,,,,,,,3,,,43,0
15495,note_on,0,0,4,,,,,,,,,3,,,44,62
15499,note_on,0,0,2,,,,,,,,,1,,,73,62
15499,note_on,0,0,2,,,,,,,,,1,,,70,62
15499,note_on,0,0,2,,,,,,,,,1,,,70,0
15499,note_on,40,0,2,,,,,,,,,1,,,73,0
15510,note_on,0,0,4,,,,,,,,,3,,,43,62
15510,note_on,15,0,4,,,,,,,,,3,,,44,0
15525,note_on,0,0,4,,,,,,,,,3,,,44,62
15525,note_on,15,0,4,,,,,,,,,3,,,43,0
15539,note_on,40,0,2,,,,,,,,,1,,,73,0
15539,note_on,0,0,2,,,,,,,,,1,,,70,62
15539,note_on,0,0,2,,,,,,,,,1,,,73,62
15539,note_on,0,0,2,,,,,,,,,1,,,70,0
15540,note_on,0,0,4,,,,,,,,,3,,,43,62
15540,note_on,15,0,4,,,,,,,,,3,,,44,0
15555,note_on,0,0,4,,,,,,,,,3,,,44,62
15555,note_on,15,0,4,,,,,,,,,3,,,43,0
15570,note_on,0,0,4,,,,,,,,,3,,,43,62
15570,note_on,15,0,4,,,,,,,,,3,,,44,0
15579,note_on,0,0,2,,,,,,,,,1,,,70,0
15579,note_on,0,0,2,,,,,,,,,1,,,70,62
15579,note_on,0,0,2,,,,,,,,,1,,,73,62
15579,note_on,40,0,2,,,,,,,,,1,,,73,0
15585,note_on,15,0,4,,,,,,,,,3,,,43,0
15585,note_on,0,0,4,,,,,,,,,3,,,44,62
15600,note_on,0,0,4,,,,,,,,,3,,,41,62
15600,note_on,15,0,4,,,,,,,,,3,,,44,0
15619,note_on,0,0,2,,,,,,,,,1,,,73,62
15619,note_on,0,0,2,,,,,,,,,1,,,70,0
15619,note_on,40,0,2,,,,,,,,,1,,,73,0
15619,control_change,0,0,2,,,,,,,,,1,64,0,,
15619,note_on,0,0,2,,,,,,,,,1,,,70,62
15630,note_on,0,0,4,,,,,,,,,3,,,43,62
15630,control_change,0,0,4,,,,,,,,,3,64,0,,
15630,note_on,30,0,4,,,,,,,,,3,,,41,0
15659,control_change,0,0,2,,,,,,,,,1,64,127,,
15659,note_on,40,0,2,,,,,,,,,1,,,73,0
15659,note_on,0,0,2,,,,,,,,,1,,,70,0
15659,note_on,0,0,2,,,,,,,,,1,,,68,62
15659,note_on,0,0,2,,,,,,,,,1,,,63,62
15660,note_on,240,0,3,,,,,,,,,2,,,58,0
15660,note_on,0,0,3,,,,,,,,,2,,,44,75
15660,note_on,0,0,3,,,,,,,,,2,,,48,75
15660,note_on,0,0,1,,,,,,,,,0,,,60,101
15660,note_on,0,0,1,,,,,,,,,0,,,63,0
15660,note_on,0,0,1,,,,,,,,,0,,,72,101
15660,note_on,30,0,4,,,,,,,,,3,,,43,0
15660,note_on,240,0,1,,,,,,,,,0,,,75,0
15660,note_on,0,0,3,,,,,,,,,2,,,49,0
15660,note_on,0,0,3,,,,,,,,,2,,,56,75
15699,note_on,0,0,2,,,,,,,,,1,,,68,62
15699,note_on,40,0,2,,,,,,,,,1,,,68,0
15699,note_on,0,0,2,,,,,,,,,1,,,63,62
15699,note_on,0,0,2,,,,,,,,,1,,,63,0
15739,note_on,0,0,2,,,,,,,,,1,,,68,62
15739,note_on,0,0,2,,,,,,,,,1,,,63,62
15739,note_on,0,0,2,,,,,,,,,1,,,63,0
15739,note_on,40,0,2,,,,,,,,,1,,,68,0
15779,note_on,40,0,2,,,,,,,,,1,,,68,0
15779,note_on,0,0,2,,,,,,,,,1,,,60,62
15779,note_on,0,0,2,,,,,,,,,1,,,63,0
15779,note_on,0,0,2,,,,,,,,,1,,,63,62
15780,note_on,0,0,3,,,,,,,,,2,,,36,75
15780,note_on,0,0,3,,,,,,,,,2,,,48,75
15780,note_on,0,0,1,,,,,,,,,0,,,60,0
15780,note_on,0,0,3,,,,,,,,,2,,,44,0
15780,note_on,0,0,3,,,,,,,,,2,,,44,75
15780,note_on,120,0,1,,,,,,,,,0,,,72,0
15780,note_on,120,0,3,,,,,,,,,2,,,56,0
15780,note_on,0,0,3,,,,,,,,,2,,,48,0
15780,note_on,0,0,1,,,,,,,,,0,,,56,101
15780,note_on,0,0,3,,,,,,,,,2,,,39,75
15780,note_on,0,0,1,,,,,,,,,0,,,68,101
15819,note_on,0,0,2,,,,,,,,,1,,,60,62
15819,note_on,0,0,2,,,,,,,,,1,,,63,62
15819,note_on,0,0,2,,,,,,,,,1,,,60,0
15819,note_on,40,0,2,,,,,,,,,1,,,63,0
15859,note_on,0,0,2,,,,,,,,,1,,,63,62
15859,note_on,0,0,2,,,,,,,,,1,,,60,0
15859,control_change,0,0,2,,,,,,,,,1,64,0,,
15859,note_on,0,0,2,,,,,,,,,1,,,60,62
15859,note_on,40,0,2,,,,,,,,,1,,,63,0
15880,note_on,100,0,3,,,,,,,,,2,,,37,75
15890,note_on,10,0,3,,,,,,,,,2,,,44,75
15899,control_change,0,0,2,,,,,,,,,1,64,127,,
15899,note_on,40,0,2,,,,,,,,,1,,,63,0
15899,note_on,0,0,2,,,,,,,,,1,,,56,62
15899,note_on,0,0,2,,,,,,,,,1,,,60,0
15899,note_on,0,0,2,,,,,,,,,1,,,61,62
15900,note_on,0,0,3,,,,,,,,,2,,,36,0
15900,note_on,0,0,3,,,,,,,,,2,,,39,0
15900,note_on,0,0,3,,,,,,,,,2,,,44,0
15900,note_on,10,0,3,,,,,,,,,2,,,48,0
15900,note_on,120,0,1,,,,,,,,,0,,,68,0
15900,note_on,0,0,3,,,,,,,,,2,,,49,75
15900,note_on,0,0,1,,,,,,,,,0,,,53,101
15900,note_on,0,0,1,,,,,,,,,0,,,56,0
15900,note_on,0,0,1,,,,,,,,,0,,,65,101
15939,note_on,40,0,2,,,,,,,,,1,,,61,0
15939,note_on,0,0,2,,,,,,,,,1,,,56,0
15939,note_on,0,0,2,,,,,,,,,1,,,56,62
15939,note_on,0,0,2,,,,,,,,,1,,,61,62
15979,note_on,0,0,2,,,,,,,,,1,,,61,62
15979,note_on,0,0,2,,,,,,,,,1,,,56,62
15979,note_on,0,0,2,,,,,,,,,1,,,56,0
15979,note_on,40,0,2,,,,,,,,,1,,,61,0
16019,note_on,40,0,2,,,,,,,,,1,,,61,0
16019,note_on,0,0,2,,,,,,,,,1,,,56,0
16019,note_on,0,0,2,,,,,,,,,1,,,56,62
16019,note_on,0,0,2,,,,,,,,,1,,,61,62
16020,note_on,120,0,1,,,,,,,,,0,,,65,0
16020,note_on,0,0,1,,,,,,,,,0,,,53,0
16020,note_on,0,0,1,,,,,,,,,0,,,53,101
16020,note_on,0,0,1,,,,,,,,,0,,,65,101
16059,note_on,0,0,2,,,,,,,,,1,,,56,62
16059,note_on,0,0,2,,,,,,,,,1,,,61,62
16059,note_on,40,0,2,,,,,,,,,1,,,61,0
16059,note_on,0,0,2,,,,,,,,,1,,,56,0
16099,note_on,0,0,2,,,,,,,,,1,,,56,62
16099,note_on,0,0,2,,,,,,,,,1,,,61,62
16099,note_on,40,0,2,,,,,,,,,1,,,61,0
16099,control_change,0,0,2,,,,,,,,,1,64,0,,
16099,note_on,0,0,2,,,,,,,,,1,,,56,0
16117,note_on,217,0,3,,,,,,,,,2,,,37,75
16125,note_on,8,0,3,,,,,,,,,2,,,41,75
16132,note_on,7,0,3,,,,,,,,,2,,,46,75
16139,note_on,0,0,2,,,,,,,,,1,,,65,62
16139,note_on,40,0,2,,,,,,,,,1,,,61,0
16139,control_change,0,0,2,,,,,,,,,1,64,127,,
16139,note_on,0,0,2,,,,,,,,,1,,,61,62
16139,note_on,0,0,2,,,,,,,,,1,,,56,0
16140,note_on,120,0,1,,,,,,,,,0,,,65,0
16140,note_on,0,0,1,,,,,,,,,0,,,70,101
16140,note_on,8,0,3,,,,,,,,,2,,,49,0
16140,note_on,0,0,3,,,,,,,,,2,,,44,0
16140,note_on,0,0,1,,,,,,,,,0,,,53,0
16140,note_on,0,0,3,,,,,,,,,2,,,37,0
16140,control_change,0,0,1,,,,,,,,,0,64,127,,
16140,note_on,0,0,3,,,,,,,,,2,,,49,75
16140,note_on,0,0,1,,,,,,,,,0,,,58,101
16179,note_on,40,0,2,,,,,,,,,1,,,65,0
16179,note_on,0,0,2,,,,,,,,,1,,,61,62
16179,note_on,0,0,2,,,,,,,,,1,,,65,62
16179,note_on,0,0,2,,,,,,,,,1,,,61,0
16219,note_on,40,0,2,,,,,,,,,1,,,65,0
16219,note_on,0,0,2,,,,,,,,,1,,,61,0
16219,note_on,0,0,2,,,,,,,,,1,,,61,62
16219,note_on,0,0,2,,,,,,,,,1,,,65,62
16259,note_on,0,0,2,,,,,,,,,1,,,61,0
16259,note_on,0,0,2,,,,,,,,,1,,,61,62
16259,note_on,40,0,2,,,,,,,,,1,,,65,0
16259,note_on,0,0,2,,,,,,,,,1,,,65,62
16260,note_on,0,0,1,,,,,,,,,0,,,58,0
16260,note_on,0,0,1,,,,,,,,,0,,,58,101
16260,note_on,0,0,1,,,,,,,,,0,,,70,101
16260,note_on,120,0,1,,,,,,,,,0,,,70,0
16299,note_on,40,0,2,,,,,,,,,1,,,65,0
16299,note_on,0,0,2,,,,,,,,,1,,,61,0
16299,note_on,0,0,2,,,,,,,,,1,,,61,62
16299,note_on,0,0,2,,,,,,,,,1,,,65,62
16320,control_change,0,0,1,,,,,,,,,0,64,0,,
16320,note_on,60,0,1,,,,,,,,,0,,,70,0
16320,note_on,0,0,1,,,,,,,,,0,,,70,101
16320,note_on,0,0,1,,,,,,,,,0,,,58,101
16320,note_on,0,0,1,,,,,,,,,0,,,58,0
16339,note_on,40,0,2,,,,,,,,,1,,,65,0
16339,control_change,0,0,2,,,,,,,,,1,64,0,,
16339,note_on,0,0,2,,,,,,,,,1,,,65,62
16339,note_on,0,0,2,,,,,,,,,1,,,61,0
16339,note_on,0,0,2,,,,,,,,,1,,,61,62
16357,note_on,217,0,3,,,,,,,,,2,,,36,75
16365,note_on,8,0,3,,,,,,,,,2,,,40,75
16372,note_on,7,0,3,,,,,,,,,2,,,45,75
16379,note_on,40,0,2,,,,,,,,,1,,,65,0
16379,control_change,0,0,2,,,,,,,,,1,64,127,,
16379,note_on,0,0,2,,,,,,,,,1,,,67,62
16379,note_on,0,0,2,,,,,,,,,1,,,64,62
16379,note_on,0,0,2,,,,,,,,,1,,,61,0
16380,note_on,0,0,1,,,,,,,,,0,,,58,0
16380,note_on,0,0,1,,,,,,,,,0,,,60,101
16380,note_on,0,0,1,,,,,,,,,0,,,72,101
16380,note_on,60,0,1,,,,,,,,,0,,,70,0
16380,note_on,0,0,3,,,,,,,,,2,,,37,0
16380,note_on,0,0,3,,,,,,,,,2,,,41,0
16380,note_on,0,0,3,,,,,,,,,2,,,46,0
16380,note_on,0,0,3,,,,,,,,,2,,,48,75
16380,note_on,8,0,3,,,,,,,,,2,,,49,0
16419,note_on,0,0,2,,,,,,,,,1,,,64,62
16419,note_on,0,0,2,,,,,,,,,1,,,64,0
16419,note_on,0,0,2,,,,,,,,,1,,,67,62
16419,note_on,40,0,2,,,,,,,,,1,,,67,0
16459,note_on,0,0,2,,,,,,,,,1,,,67,62
16459,note_on,0,0,2,,,,,,,,,1,,,64,0
16459,note_on,0,0,2,,,,,,,,,1,,,64,62
16459,note_on,40,0,2,,,,,,,,,1,,,67,0
16499,note_on,0,0,2,,,,,,,,,1,,,64,62
16499,note_on,40,0,2,,,,,,,,,1,,,67,0
16499,note_on,0,0,2,,,,,,,,,1,,,67,62
16499,note_on,0,0,2,,,,,,,,,1,,,64,0
16539,note_on,0,0,2,,,,,,,,,1,,,67,62
16539,note_on,0,0,2,,,,,,,,,1,,,64,62
16539,note_on,40,0,2,,,,,,,,,1,,,67,0
16539,note_on,0,0,2,,,,,,,,,1,,,64,0
16579,control_change,0,0,2,,,,,,,,,1,64,0,,
16579,note_on,0,0,2,,,,,,,,,1,,,64,0
16579,note_on,0,0,2,,,,,,,,,1,,,67,62
16579,note_on,0,0,2,,,,,,,,,1,,,64,62
16579,note_on,40,0,2,,,,,,,,,1,,,67,0
16597,note_on,217,0,3,,,,,,,,,2,,,33,75
16605,note_on,8,0,3,,,,,,,,,2,,,37,75
16612,note_on,7,0,3,,,,,,,,,2,,,40,75
16619,control_change,0,0,2,,,,,,,,,1,64,127,,
16619,note_on,40,0,2,,,,,,,,,1,,,67,0
16619,note_on,0,0,2,,,,,,,,,1,,,64,62
16619,note_on,0,0,2,,,,,,,,,1,,,64,0
16619,note_on,0,0,2,,,,,,,,,1,,,67,62
16620,note_on,0,0,1,,,,,,,,,0,,,60,0
16620,note_on,0,0,1,,,,,,,,,0,,,61,101
16620,note_on,0,0,1,,,,,,,,,0,,,73,101
16620,note_on,240,0,1,,,,,,,,,0,,,72,0
16620,note_on,0,0,3,,,,,,,,,2,,,36,0
16620,note_on,0,0,3,,,,,,,,,2,,,45,0
16620,note_on,0,0,3,,,,,,,,,2,,,45,75
16620,note_on,0,0,3,,,,,,,,,2,,,40,0
16620,control_change,0,0,1,,,,,,,,,0,64,127,,
16620,note_on,8,0,3,,,,,,,,,2,,,48,0
16659,note_on,0,0,2,,,,,,,,,1,,,64,62
16659,note_on,0,0,2,,,,,,,,,1,,,67,62
16659,note_on,0,0,2,,,,,,,,,1,,,64,0
16659,note_on,40,0,2,,,,,,,,,1,,,67,0
16699,note_on,0,0,2,,,,,,,,,1,,,64,0
16699,note_on,0,0,2,,,,,,,,,1,,,64,62
16699,note_on,0,0,2,,,,,,,,,1,,,67,62
16699,note_on,40,0,2,,,,,,,,,1,,,67,0
16739,note_on,40,0,2,,,,,,,,,1,,,67,0
16739,note_on,0,0,2,,,,,,,,,1,,,64,62
16739,note_on,0,0,2,,,,,,,,,1,,,67,62
16739,note_on,0,0,2,,,,,,,,,1,,,64,0
16740,note_on,0,0,1,,,,,,,,,0,,,73,101
16740,note_on,0,0,1,,,,,,,,,0,,,61,101
16740,note_on,0,0,1,,,,,,,,,0,,,61,0
16740,note_on,120,0,1,,,,,,,,,0,,,73,0
16779,note_on,0,0,2,,,,,,,,,1,,,64,0
16779,note_on,0,0,2,,,,,,,,,1,,,67,62
16779,note_on,0,0,2,,,,,,,,,1,,,64,62
16779,note_on,40,0,2,,,,,,,,,1,,,67,0
16800,note_on,0,0,1,,,,,,,,,0,,,61,0
16800,note_on,0,0,1,,,,,,,,,0,,,61,101
16800,note_on,0,0,1,,,,,,,,,0,,,73,101
16800,note_on,60,0,1,,,,,,,,,0,,,73,0
16800,control_change,0,0,1,,,,,,,,,0,64,0,,
16819,note_on,40,0,2,,,,,,,,,1,,,67,0
16819,control_change,0,0,2,,,,,,,,,1,64,0,,
16819,note_on,0,0,2,,,,,,,,,1,,,64,0
16819,note_on,0,0,2,,,,,,,,,1,,,67,62
16819,note_on,0,0,2,,,,,,,,,1,,,64,62
16837,note_on,217,0,3,,,,,,,,,2,,,34,75
16845,note_on,8,0,3,,,,,,,,,2,,,38,75
16852,note_on,7,0,3,,,,,,,,,2,,,41,75
16859,note_on,0,0,2,,,,,,,,,1,,,64,0
16859,note_on,0,0,2,,,,,,,,,1,,,65,62
16859,note_on,0,0,2,,,,,,,,,1,,,70,62
16859,control_change,0,0,2,,,,,,,,,1,64,127,,
16859,note_on,40,0,2,,,,,,,,,1,,,67,0
16860,control_change,0,0,1,,,,,,,,,0,64,127,,
16860,note_on,60,0,1,,,,,,,,,0,,,73,0
16860,note_on,0,0,3,,,,,,,,,2,,,33,0
16860,note_on,0,0,1,,,,,,,,,0,,,62,101
16860,note_on,0,0,1,,,,,,,,,0,,,74,101
16860,note_on,0,0,3,,,,,,,,,2,,,37,0
16860,note_on,0,0,1,,,,,,,,,0,,,61,0
16860,note_on,0,0,3,,,,,,,,,2,,,46,75
16860,note_on,0,0,3,,,,,,,,,2,,,40,0
16860,note_on,8,0,3,,,,,,,,,2,,,45,0
16899,note_on,0,0,2,,,,,,,,,1,,,70,62
16899,note_on,40,0,2,,,,,,,,,1,,,70,0
16899,note_on,0,0,2,,,,,,,,,1,,,65,62
16899,note_on,0,0,2,,,,,,,,,1,,,65,0
16939,note_on,0,0,2,,,,,,,,,1,,,70,62
16939,note_on,0,0,2,,,,,,,,,1,,,65,62
16939,note_on,40,0,2,,,,,,,,,1,,,70,0
16939,note_on,0,0,2,,,,,,,,,1,,,65,0
16979,note_on,0,0,2,,,,,,,,,1,,,65,62
16979,note_on,0,0,2,,,,,,,,,1,,,65,0
16979,note_on,0,0,2,,,,,,,,,1,,,70,62
16979,note_on,40,0,2,,,,,,,,,1,,,70,0
16980,note_on,120,0,1,,,,,,,,,0,,,74,0
16980,note_on,0,0,1,,,,,,,,,0,,,74,101
16980,note_on,0,0,1,,,,,,,,,0,,,62,101
16980,note_on,0,0,1,,,,,,,,,0,,,62,0
17019,note_on,40,0,2,,,,,,,,,1,,,70,0
17019,note_on,0,0,2,,,,,,,,,1,,,70,62
17019,note_on,0,0,2,,,,,,,,,1,,,65,62
17019,note_on,0,0,2,,,,,,,,,1,,,65,0
17040,note_on,60,0,1,,,,,,,,,0,,,74,0
17040,note_on,0,0,1,,,,,,,,,0,,,62,0
17040,note_on,0,0,1,,,,,,,,,0,,,62,101
17040,note_on,0,0,1,,,,,,,,,0,,,74,101
17040,control_change,0,0,1,,,,,,,,,0,64,0,,
17059,note_on,0,0,2,,,,,,,,,1,,,65,62
17059,note_on,0,0,2,,,,,,,,,1,,,70,62
17059,control_change,0,0,2,,,,,,,,,1,64,0,,
17059,note_on,0,0,2,,,,,,,,,1,,,65,0
17059,note_on,40,0,2,,,,,,,,,1,,,70,0
17077,note_on,217,0,3,,,,,,,,,2,,,34,75
17085,note_on,8,0,3,,,,,,,,,2,,,40,75
17092,note_on,7,0,3,,,,,,,,,2,,,43,75
17099,control_change,0,0,2,,,,,,,,,1,64,127,,
17099,note_on,40,0,2,,,,,,,,,1,,,70,0
17099,note_on,0,0,2,,,,,,,,,1,,,72,62
17099,note_on,0,0,2,,,,,,,,,1,,,67,62
17099,note_on,0,0,2,,,,,,,,,1,,,65,0
17100,note_on,60,0,1,,,,,,,,,0,,,74,0
17100,note_on,0,0,3,,,,,,,,,2,,,34,0
17100,note_on,0,0,3,,,,,,,,,2,,,46,75
17100,note_on,0,0,1,,,,,,,,,0,,,76,101
17100,note_on,0,0,1,,,,,,,,,0,,,64,101
17100,note_on,0,0,1,,,,,,,,,0,,,62,0
17100,note_on,0,0,3,,,,,,,,,2,,,41,0
17100,note_on,0,0,3,,,,,,,,,2,,,38,0
17100,note_on,8,0,3,,,,,,,,,2,,,46,0
17139,note_on,40,0,2,,,,,,,,,1,,,72,0
17139,note_on,0,0,2,,,,,,,,,1,,,67,62
17139,note_on,0,0,2,,,,,,,,,1,,,72,62
17139,note_on,0,0,2,,,,,,,,,1,,,67,0
17179,note_on,0,0,2,,,,,,,,,1,,,67,0
17179,note_on,40,0,2,,,,,,,,,1,,,72,0
17179,note_on,0,0,2,,,,,,,,,1,,,72,62
17179,note_on,0,0,2,,,,,,,,,1,,,67,62
17219,note_on,0,0,2,,,,,,,,,1,,,67,62
17219,note_on,0,0,2,,,,,,,,,1,,,72,62
17219,note_on,40,0,2,,,,,,,,,1,,,72,0
17219,note_on,0,0,2,,,,,,,,,1,,,67,0
17259,note_on,0,0,2,,,,,,,,,1,,,72,62
17259,note_on,0,0,2,,,,,,,,,1,,,67,62
17259,note_on,0,0,2,,,,,,,,,1,,,67,0
17259,note_on,40,0,2,,,,,,,,,1,,,72,0
17280,note_on,0,0,1,,,,,,,,,0,,,76,101
17280,note_on,0,0,1,,,,,,,,,0,,,64,101
17280,note_on,0,0,1,,,,,,,,,0,,,64,0
17280,note_on,180,0,1,,,,,,,,,0,,,76,0
17299,note_on,40,0,2,,,,,,,,,1,,,72,0
17299,note_on,0,0,2,,,,,,,,,1,,,72,62
17299,note_on,0,0,2,,,,,,,,,1,,,67,62
17299,note_on,0,0,2,,,,,,,,,1,,,67,0
17299,control_change,0,0,2,,,,,,,,,1,64,0,,
17317,note_on,217,0,3,,,,,,,,,2,,,33,75
17325,note_on,8,0,3,,,,,,,,,2,,,36,75
17332,note_on,7,0,3,,,,,,,,,2,,,41,75
17339,note_on,0,0,2,,,,,,,,,1,,,69,62
17339,note_on,0,0,2,,,,,,,,,1,,,67,0
17339,note_on,0,0,2,,,,,,,,,1,,,72,62
17339,note_on,40,0,2,,,,,,,,,1,,,72,0
17340,note_on,0,0,1,,,,,,,,,0,,,64,0
17340,note_on,60,0,1,,,,,,,,,0,,,76,0
17340,note_on,0,0,3,,,,,,,,,2,,,45,75
17340,note_on,8,0,3,,,,,,,,,2,,,46,0
17340,note_on,0,0,3,,,,,,,,,2,,,43,0
17340,note_on,0,0,3,,,,,,,,,2,,,40,0
17340,note_on,0,0,1,,,,,,,,,0,,,77,101
17340,note_on,0,0,1,,,,,,,,,0,,,65,101
17340,note_on,0,0,3,,,,,,,,,2,,,34,0
17379,note_on,0,0,2,,,,,,,,,1,,,69,62
17379,note_on,0,0,2,,,,,,,,,1,,,69,0
17379,note_on,0,0,2,,,,,,,,,1,,,72,62
17379,note_on,40,0,2,,,,,,,,,1,,,72,0
17419,note_on,40,0,2,,,,,,,,,1,,,72,0
17419,note_on,0,0,2,,,,,,,,,1,,,69,0
17419,note_on,0,0,2,,,,,,,,,1,,,69,62
17419,note_on,0,0,2,,,,,,,,,1,,,72,62
17459,note_on,0,0,2,,,,,,,,,1,,,60,62
17459,note_on,40,0,2,,,,,,,,,1,,,72,0
17459,note_on,0,0,2,,,,,,,,,1,,,57,62
17459,note_on,0,0,2,,,,,,,,,1,,,69,0
17460,note_on,120,0,1,,,,,,,,,0,,,77,0
17460,note_on,0,0,1,,,,,,,,,0,,,65,101
17460,note_on,0,0,1,,,,,,,,,0,,,65,0
17460,note_on,0,0,1,,,,,,,,,0,,,53,101
17499,note_on,40,0,2,,,,,,,,,1,,,60,0
17499,note_on,0,0,2,,,,,,,,,1,,,57,62
17499,note_on,0,0,2,,,,,,,,,1,,,60,62
17499,note_on,0,0,2,,,,,,,,,1,,,57,0
17539,note_on,0,0,2,,,,,,,,,1,,,60,62
17539,note_on,0,0,2,,,,,,,,,1,,,57,62
17539,note_on,0,0,2,,,,,,,,,1,,,57,0
17539,note_on,40,0,2,,,,,,,,,1,,,60,0
17579,note_on,0,0,2,,,,,,,,,1,,,65,62
17579,note_on,0,0,2,,,,,,,,,1,,,70,62
17579,note_on,40,0,2,,,,,,,,,1,,,60,0
17579,note_on,0,0,2,,,,,,,,,1,,,57,0
17580,note_on,0,0,3,,,,,,,,,2,,,41,101
17580,note_on,0,0,3,,,,,,,,,2,,,38,101
17580,note_on,0,0,3,,,,,,,,,2,,,34,101
17580,note_on,0,0,1,,,,,,,,,0,,,53,0
17580,note_on,0,0,1,,,,,,,,,0,,,62,127
17580,note_on,0,0,3,,,,,,,,,2,,,36,0
17580,note_on,0,0,1,,,,,,,,,0,,,74,127
17580,note_on,120,0,1,,,,,,,,,0,,,65,0
17580,note_on,0,0,3,,,,,,,,,2,,,46,101
17580,note_on,240,0,3,,,,,,,,,2,,,45,0
17580,note_on,0,0,3,,,,,,,,,2,,,33,0
17580,note_on,0,0,3,,,,,,,,,2,,,41,0
17619,note_on,0,0,2,,,,,,,,,1,,,65,0
17619,note_on,0,0,2,,,,,,,,,1,,,65,62
17619,note_on,40,0,2,,,,,,,,,1,,,70,0
17619,note_on,0,0,2,,,,,,,,,1,,,70,62
17659,note_on,0,0,2,,,,,,,,,1,,,65,0
17659,note_on,0,0,2,,,,,,,,,1,,,65,62
17659,note_on,40,0,2,,,,,,,,,1,,,70,0
17659,note_on,0,0,2,,,,,,,,,1,,,70,62
17699,note_on,40,0,2,,,,,,,,,1,,,70,0
17699,note_on,0,0,2,,,,,,,,,1,,,69,62
17699,note_on,0,0,2,,,,,,,,,1,,,65,62
17699,note_on,0,0,2,,,,,,,,,1,,,65,0
17700,note_on,0,0,3,,,,,,,,,2,,,48,101
17700,note_on,0,0,3,,,,,,,,,2,,,36,101
17700,note_on,120,0,1,,,,,,,,,0,,,74,0
17700,note_on,0,0,3,,,,,,,,,2,,,41,101
17700,note_on,0,0,3,,,,,,,,,2,,,45,101
17700,note_on,0,0,3,,,,,,,,,2,,,34,0
17700,note_on,0,0,1,,,,,,,,,0,,,72,127
17700,note_on,0,0,3,,,,,,,,,2,,,38,0
17700,note_on,0,0,1,,,,,,,,,0,,,60,127
17700,note_on,120,0,3,,,,,,,,,2,,,46,0
17700,note_on,0,0,3,,,,,,,,,2,,,41,0
17700,note_on,0,0,1,,,,,,,,,0,,,62,0
17739,note_on,0,0,2,,,,,,,,,1,,,65,0
17739,note_on,0,0,2,,,,,,,,,1,,,69,62
17739,note_on,40,0,2,,,,,,,,,1,,,69,0
17739,note_on,0,0,2,,,,,,,,,1,,,65,62
17779,note_on,0,0,2,,,,,,,,,1,,,65,62
17779,note_on,0,0,2,,,,,,,,,1,,,65,0
17779,note_on,0,0,2,,,,,,,,,1,,,69,62
17779,note_on,40,0,2,,,,,,,,,1,,,69,0
17819,note_on,0,0,2,,,,,,,,,1,,,68,62
17819,note_on,40,0,2,,,,,,,,,1,,,69,0
17819,note_on,0,0,2,,,,,,,,,1,,,65,62
17819,note_on,0,0,2,,,,,,,,,1,,,65,0
17820,note_on,0,0,1,,,,,,,,,0,,,60,0
17820,note_on,0,0,3,,,,,,,,,2,,,37,75
17820,note_on,0,0,3,,,,,,,,,2,,,41,0
17820,note_on,120,0,3,,,,,,,,,2,,,48,0
17820,note_on,0,0,3,,,,,,,,,2,,,45,0
17820,note_on,0,0,3,,,,,,,,,2,,,49,75
17820,note_on,0,0,3,,,,,,,,,2,,,36,0
17820,note_on,0,0,3,,,,,,,,,2,,,44,75
17820,note_on,0,0,3,,,,,,,,,2,,,41,75
17820,note_on,0,0,1,,,,,,,,,0,,,71,127
17820,note_on,120,0,1,,,,,,,,,0,,,72,0
17820,note_on,0,0,1,,,,,,,,,0,,,59,127
17859,note_on,0,0,2,,,,,,,,,1,,,68,62
17859,note_on,0,0,2,,,,,,,,,1,,,65,0
17859,note_on,40,0,2,,,,,,,,,1,,,68,0
17859,note_on,0,0,2,,,,,,,,,1,,,65,62
17899,note_on,0,0,2,,,,,,,,,1,,,68,62
17899,note_on,0,0,2,,,,,,,,,1,,,65,0
17899,note_on,40,0,2,,,,,,,,,1,,,68,0
17899,note_on,0,0,2,,,,,,,,,1,,,65,62
17939,note_on,40,0,2,,,,,,,,,1,,,68,0
17939,note_on,0,0,2,,,,,,,,,1,,,65,0
17939,note_on,0,0,2,,,,,,,,,1,,,65,62
17939,note_on,0,0,2,,,,,,,,,1,,,68,62
17979,note_on,0,0,2,,,,,,,,,1,,,65,62
17979,note_on,0,0,2,,,,,,,,,1,,,65,0
17979,note_on,0,0,2,,,,,,,,,1,,,68,62
17979,note_on,40,0,2,,,,,,,,,1,,,68,0
18000,note_on,0,0,1,,,,,,,,,0,,,59,0
18000,note_on,0,0,1,,,,,,,,,0,,,59,101
18000,note_on,0,0,1,,,,,,,,,0,,,71,101
18000,note_on,180,0,1,,,,,,,,,0,,,71,0
18019,note_on,40,0,2,,,,,,,,,1,,,68,0
18019,note_on,0,0,2,,,,,,,,,1,,,65,62
18019,note_on,0,0,2,,,,,,,,,1,,,68,62
18019,note_on,0,0,2,,,,,,,,,1,,,65,0
18059,note_on,0,0,2,,,,,,,,,1,,,69,62
18059,note_on,40,0,2,,,,,,,,,1,,,68,0
18059,note_on,0,0,2,,,,,,,,,1,,,65,0
18059,note_on,0,0,2,,,,,,,,,1,,,65,62
18060,note_on,0,0,3,,,,,,,,,2,,,41,101
18060,note_on,0,0,3,,,,,,,,,2,,,45,101
18060,note_on,0,0,1,,,,,,,,,0,,,72,127
18060,note_on,0,0,3,,,,,,,,,2,,,48,101
18060,note_on,240,0,3,,,,,,,,,2,,,49,0
18060,note_on,0,0,1,,,,,,,,,0,,,60,127
18060,note_on,0,0,3,,,,,,,,,2,,,41,0
18060,note_on,0,0,3,,,,,,,,,2,,,37,0
18060,note_on,0,0,3,,,,,,,,,2,,,36,101
18060,note_on,0,0,1,,,,,,,,,0,,,59,0
18060,note_on,60,0,1,,,,,,,,,0,,,71,0
18060,note_on,0,0,3,,,,,,,,,2,,,44,0
18099,note_on,40,0,2,,,,,,,,,1,,,69,0
18099,note_on,0,0,2,,,,,,,,,1,,,69,62
18099,note_on,0,0,2,,,,,,,,,1,,,65,0
18099,note_on,0,0,2,,,,,,,,,1,,,65,62
18139,note_on,40,0,2,,,,,,,,,1,,,69,0
18139,note_on,0,0,2,,,,,,,,,1,,,65,0
18139,note_on,0,0,2,,,,,,,,,1,,,65,62
18139,note_on,0,0,2,,,,,,,,,1,,,69,62
18179,note_on,0,0,2,,,,,,,,,1,,,67,62
18179,note_on,0,0,2,,,,,,,,,1,,,65,0
18179,note_on,0,0,2,,,,,,,,,1,,,64,62
18179,note_on,40,0,2,,,,,,,,,1,,,69,0
18180,note_on,0,0,1,,,,,,,,,0,,,60,0
18180,note_on,0,0,1,,,,,,,,,0,,,72,127
18180,note_on,0,0,3,,,,,,,,,2,,,36,0
18180,note_on,0,0,3,,,,,,,,,2,,,36,101
18180,note_on,0,0,3,,,,,,,,,2,,,40,101
18180,note_on,0,0,3,,,,,,,,,2,,,41,0
18180,note_on,0,0,1,,,,,,,,,0,,,60,127
18180,note_on,120,0,3,,,,,,,,,2,,,48,0
18180,note_on,120,0,1,,,,,,,,,0,,,72,0
18180,note_on,0,0,3,,,,,,,,,2,,,43,101
18180,note_on,0,0,3,,,,,,,,,2,,,45,0
18180,note_on,0,0,3,,,,,,,,,2,,,48,101
18219,note_on,40,0,2,,,,,,,,,1,,,67,0
18219,note_on,0,0,2,,,,,,,,,1,,,64,0
18219,note_on,0,0,2,,,,,,,,,1,,,64,62
18219,note_on,0,0,2,,,,,,,,,1,,,67,62
18259,note_on,40,0,2,,,,,,,,,1,,,67,0
18259,note_on,0,0,2,,,,,,,,,1,,,67,62
18259,note_on,0,0,2,,,,,,,,,1,,,64,62
18259,note_on,0,0,2,,,,,,,,,1,,,64,0
18299,note_on,40,0,2,,,,,,,,,1,,,67,0
18299,note_on,0,0,2,,,,,,,,,1,,,64,0
18299,note_on,0,0,2,,,,,,,,,1,,,57,62
18299,control_change,0,0,2,,,,,,,,,1,64,127,,
18299,note_on,0,0,2,,,,,,,,,1,,,60,62
18300,note_on,0,0,3,,,,,,,,,2,,,41,101
18300,note_on,0,0,3,,,,,,,,,2,,,43,0
18300,note_on,0,0,3,,,,,,,,,2,,,40,0
18300,note_on,120,0,1,,,,,,,,,0,,,72,0
18300,note_on,0,0,3,,,,,,,,,2,,,36,101
18300,note_on,0,0,3,,,,,,,,,2,,,36,0
18300,note_on,0,0,3,,,,,,,,,2,,,33,101
18300,note_on,0,0,3,,,,,,,,,2,,,29,101
18300,note_on,0,0,1,,,,,,,,,0,,,53,101
18300,note_on,0,0,1,,,,,,,,,0,,,60,0
18300,note_on,0,0,1,,,,,,,,,0,,,65,101
18300,note_on,120,0,3,,,,,,,,,2,,,48,0
18339,note_on,0,0,2,,,,,,,,,1,,,57,62
18339,note_on,0,0,2,,,,,,,,,1,,,60,62
18339,note_on,0,0,2,,,,,,,,,1,,,57,0
18339,note_on,40,0,2,,,,,,,,,1,,,60,0
18379,note_on,0,0,2,,,,,,,,,1,,,60,62
18379,note_on,0,0,2,,,,,,,,,1,,,57,62
18379,note_on,0,0,2,,,,,,,,,1,,,57,0
18379,note_on,40,0,2,,,,,,,,,1,,,60,0
18419,note_on,40,0,2,,,,,,,,,1,,,60,0
18419,note_on,0,0,2,,,,,,,,,1,,,57,0
18419,note_on,0,0,2,,,,,,,,,1,,,57,62
18419,note_on,0,0,2,,,,,,,,,1,,,60,62
18459,note_on,40,0,2,,,,,,,,,1,,,60,0
18459,note_on,0,0,2,,,,,,,,,1,,,57,0
18459,note_on,0,0,2,,,,,,,,,1,,,57,62
18459,note_on,0,0,2,,,,,,,,,1,,,60,62
18499,note_on,40,0,2,,,,,,,,,1,,,60,0
18499,note_on,0,0,2,,,,,,,,,1,,,57,0
18499,note_on,0,0,2,,,,,,,,,1,,,57,62
18499,note_on,0,0,2,,,,,,,,,1,,,60,62
18539,note_on,0,0,2,,,,,,,,,1,,,57,62
18539,note_on,0,0,2,,,,,,,,,1,,,60,62
18539,note_on,40,0,2,,,,,,,,,1,,,60,0
18539,note_on,0,0,2,,,,,,,,,1,,,57,0
18540,note_on,240,0,3,,,,,,,,,2,,,41,0
18540,note_on,0,0,3,,,,,,,,,2,,,36,0
18540,note_on,0,0,3,,,,,,,,,2,,,33,0
18540,note_on,0,0,3,,,,,,,,,2,,,29,0
18540,note_on,0,0,1,,,,,,,,,0,,,53,0
18540,note_on,240,0,1,,,,,,,,,0,,,65,0
18579,note_on,0,0,2,,,,,,,,,1,,,57,0
18579,note_on,0,0,2,,,,,,,,,1,,,57,62
18579,note_on,0,0,2,,,,,,,,,1,,,60,62
18579,note_on,40,0,2,,,,,,,,,1,,,60,0
18619,note_on,0,0,2,,,,,,,,,1,,,60,62
18619,note_on,0,0,2,,,,,,,,,1,,,57,62
18619,note_on,0,0,2,,,,,,,,,1,,,57,0
18619,note_on,40,0,2,,,,,,,,,1,,,60,0
18659,note_on,0,0,2,,,,,,,,,1,,,60,62
18659,note_on,0,0,2,,,,,,,,,1,,,57,62
18659,note_on,0,0,2,,,,,,,,,1,,,57,0
18659,note_on,40,0,2,,,,,,,,,1,,,60,0
18699,note_on,0,0,2,,,,,,,,,1,,,60,62
18699,note_on,0,0,2,,,,,,,,,1,,,57,62
18699,note_on,0,0,2,,,,,,,,,1,,,57,0
18699,note_on,40,0,2,,,,,,,,,1,,,60,0
18739,note_on,0,0,2,,,,,,,,,1,,,57,62
18739,note_on,40,0,2,,,,,,,,,1,,,60,0
18739,note_on,0,0,2,,,,,,,,,1,,,57,0
18739,note_on,0,0,2,,,,,,,,,1,,,60,62
18739,control_change,0,0,2,,,,,,,,,1,64,0,,
18750,note_on,210,0,1,,,,,,,,,0,,,60,101
18750,note_on,0,0,1,,,,,,,,,0,,,72,101
18779,note_on,0,0,2,,,,,,,,,1,,,57,0
18779,note_on,40,0,2,,,,,,,,,1,,,60,0
18780,note_on,0,0,4,,,,,,,,,3,,,48,75
18780,note_on,0,0,4,,,,,,,,,3,,,45,75
18780,note_on,30,0,1,,,,,,,,,0,,,72,0
18780,note_on,0,0,1,,,,,,,,,0,,,77,101
18780,note_on,0,0,1,,,,,,,,,0,,,72,101
18780,note_on,0,0,1,,,,,,,,,0,,,69,101
18780,control_change,240,0,3,,,,,,,,,2,64,127,,
18780,control_change,3120,0,4,,,,,,,,,3,64,127,,
18780,note_on,0,0,1,,,,,,,,,0,,,65,101
18780,note_on,0,0,4,,,,,,,,,3,,,53,75
18780,note_on,0,0,1,,,,,,,,,0,,,60,0
18780,note_on,0,0,4,,,,,,,,,3,,,41,75
18780,control_change,0,0,1,,,,,,,,,0,64,127,,
18819,note_on,0,0,3,,,,,,,,,2,,,57,75
18819,note_on,0,0,3,,,,,,,,,2,,,60,75
18819,note_on,0,0,3,,,,,,,,,2,,,65,75
18819,note_on,39,0,3,,,,,,,,,2,,,53,75
18859,note_on,0,0,3,,,,,,,,,2,,,53,0
18859,note_on,0,0,3,,,,,,,,,2,,,57,0
18859,note_on,0,0,3,,,,,,,,,2,,,60,0
18859,note_on,40,0,3,,,,,,,,,2,,,65,0
18860,note_on,1,0,3,,,,,,,,,2,,,53,75
18860,note_on,0,0,3,,,,,,,,,2,,,57,75
18860,note_on,0,0,3,,,,,,,,,2,,,60,75
18860,note_on,0,0,3,,,,,,,,,2,,,65,75
18900,note_on,0,0,3,,,,,,,,,2,,,53,0
18900,note_on,0,0,3,,,,,,,,,2,,,53,75
18900,note_on,0,0,1,,,,,,,,,0,,,69,101
18900,note_on,0,0,1,,,,,,,,,0,,,72,0
18900,note_on,0,0,1,,,,,,,,,0,,,72,101
18900,note_on,0,0,1,,,,,,,,,0,,,77,101
18900,note_on,0,0,1,,,,,,,,,0,,,81,101
18900,note_on,0,0,3,,,,,,,,,2,,,60,75
18900,note_on,120,0,1,,,,,,,,,0,,,77,0
18900,note_on,0,0,3,,,,,,,,,2,,,60,0
18900,note_on,0,0,3,,,,,,,,,2,,,65,75
18900,note_on,0,0,3,,,,,,,,,2,,,57,0
18900,note_on,0,0,3,,,,,,,,,2,,,57,75
18900,note_on,0,0,1,,,,,,,,,0,,,69,0
18900,note_on,0,0,1,,,,,,,,,0,,,65,0
18900,note_on,40,0,3,,,,,,,,,2,,,65,0
18939,note_on,0,0,3,,,,,,,,,2,,,60,75
18939,note_on,0,0,3,,,,,,,,,2,,,65,75
18939,note_on,0,0,3,,,,,,,,,2,,,57,75
18939,note_on,39,0,3,,,,,,,,,2,,,53,75
18940,note_on,1,0,3,,,,,,,,,2,,,65,0
18940,note_on,0,0,3,,,,,,,,,2,,,53,0
18940,note_on,0,0,3,,,,,,,,,2,,,57,0
18940,note_on,0,0,3,,,,,,,,,2,,,60,0
18979,note_on,0,0,3,,,,,,,,,2,,,65,0
18979,note_on,39,0,3,,,,,,,,,2,,,53,0
18979,note_on,0,0,3,,,,,,,,,2,,,57,0
18979,note_on,0,0,3,,,,,,,,,2,,,60,0
18980,control_change,1,0,3,,,,,,,,,2,64,0,,
18980,note_on,0,0,3,,,,,,,,,2,,,53,75
18980,note_on,0,0,3,,,,,,,,,2,,,65,75
18980,note_on,0,0,3,,,,,,,,,2,,,60,75
18980,note_on,0,0,3,,,,,,,,,2,,,57,75
18990,note_on,0,0,1,,,,,,,,,0,,,82,101
18990,note_on,0,0,1,,,,,,,,,0,,,77,0
18990,note_on,0,0,1,,,,,,,,,0,,,72,0
18990,note_on,90,0,1,,,,,,,,,0,,,81,0
18990,note_on,0,0,1,,,,,,,,,0,,,70,101
18990,note_on,0,0,1,,,,,,,,,0,,,69,0
19019,control_change,240,0,2,,,,,,,,,1,64,127,,
19020,control_change,0,0,1,,,,,,,,,0,64,0,,
19020,note_on,0,0,4,,,,,,,,,3,,,48,0
19020,note_on,0,0,4,,,,,,,,,3,,,41,75
19020,note_on,0,0,4,,,,,,,,,3,,,45,0
19020,note_on,240,0,4,,,,,,,,,3,,,53,0
19020,note_on,0,0,4,,,,,,,,,3,,,41,0
19020,note_on,0,0,4,,,,,,,,,3,,,48,75
19020,note_on,0,0,4,,,,,,,,,3,,,45,75
19020,note_on,0,0,4,,,,,,,,,3,,,53,75
19020,note_on,0,0,3,,,,,,,,,2,,,57,0
19020,note_on,0,0,1,,,,,,,,,0,,,70,0
19020,note_on,0,0,1,,,,,,,,,0,,,72,101
19020,note_on,0,0,1,,,,,,,,,0,,,77,101
19020,note_on,0,0,1,,,,,,,,,0,,,81,101
19020,note_on,40,0,3,,,,,,,,,2,,,65,0
19020,note_on,0,0,1,,,,,,,,,0,,,84,101
19020,note_on,30,0,1,,,,,,,,,0,,,82,0
19020,note_on,0,0,3,,,,,,,,,2,,,60,0
19020,note_on,0,0,3,,,,,,,,,2,,,53,0
19059,note_on,40,0,2,,,,,,,,,1,,,53,62
19059,note_on,0,0,2,,,,,,,,,1,,,60,62
19059,note_on,0,0,2,,,,,,,,,1,,,65,62
19059,note_on,0,0,2,,,,,,,,,1,,,57,62
19099,note_on,0,0,2,,,,,,,,,1,,,57,62
19099,note_on,40,0,2,,,,,,,,,1,,,65,0
19099,note_on,0,0,2,,,,,,,,,1,,,53,0
19099,note_on,0,0,2,,,,,,,,,1,,,53,62
19099,note_on,0,0,2,,,,,,,,,1,,,57,0
19099,note_on,0,0,2,,,,,,,,,1,,,65,62
19099,note_on,0,0,2,,,,,,,,,1,,,60,62
19099,note_on,0,0,2,,,,,,,,,1,,,60,0
19139,note_on,0,0,2,,,,,,,,,1,,,53,62
19139,note_on,40,0,2,,,,,,,,,1,,,65,0
19139,note_on,0,0,2,,,,,,,,,1,,,60,62
19139,note_on,0,0,2,,,,,,,,,1,,,57,0
19139,note_on,0,0,2,,,,,,,,,1,,,53,0
19139,note_on,0,0,2,,,,,,,,,1,,,65,62
19139,note_on,0,0,2,,,,,,,,,1,,,60,0
19139,note_on,0,0,2,,,,,,,,,1,,,57,62
19140,note_on,0,0,4,,,,,,,,,3,,,48,0
19140,note_on,0,0,4,,,,,,,,,3,,,41,75
19140,note_on,120,0,4,,,,,,,,,3,,,53,0
19140,note_on,0,0,4,,,,,,,,,3,,,41,0
19140,note_on,0,0,4,,,,,,,,,3,,,45,75
19140,note_on,0,0,4,,,,,,,,,3,,,48,75
19140,note_on,0,0,4,,,,,,,,,3,,,45,0
19140,note_on,0,0,4,,,,,,,,,3,,,36,75
19179,note_on,0,0,2,,,,,,,,,1,,,53,0
19179,note_on,0,0,2,,,,,,,,,1,,,53,62
19179,note_on,0,0,2,,,,,,,,,1,,,57,0
19179,note_on,0,0,2,,,,,,,,,1,,,57,62
19179,note_on,0,0,2,,,,,,,,,1,,,60,0
19179,note_on,0,0,2,,,,,,,,,1,,,60,62
19179,note_on,0,0,2,,,,,,,,,1,,,65,62
19179,note_on,40,0,2,,,,,,,,,1,,,65,0
19219,note_on,0,0,2,,,,,,,,,1,,,57,62
19219,note_on,0,0,2,,,,,,,,,1,,,60,62
19219,note_on,0,0,2,,,,,,,,,1,,,57,0
19219,note_on,0,0,2,,,,,,,,,1,,,53,62
19219,control_change,0,0,2,,,,,,,,,1,64,0,,
19219,note_on,40,0,2,,,,,,,,,1,,,65,0
19219,note_on,0,0,2,,,,,,,,,1,,,53,0
19219,note_on,0,0,2,,,,,,,,,1,,,65,62
19219,note_on,0,0,2,,,,,,,,,1,,,60,0
19230,note_on,0,0,4,,,,,,,,,3,,,34,75
19230,control_change,0,0,4,,,,,,,,,3,64,0,,
19230,note_on,0,0,4,,,,,,,,,3,,,41,0
19230,note_on,0,0,4,,,,,,,,,3,,,46,75
19230,note_on,0,0,4,,,,,,,,,3,,,45,0
19230,note_on,90,0,4,,,,,,,,,3,,,48,0
19230,note_on,0,0,4,,,,,,,,,3,,,36,0
19259,note_on,0,0,2,,,,,,,,,1,,,60,0
19259,note_on,0,0,2,,,,,,,,,1,,,57,0
19259,note_on,0,0,2,,,,,,,,,1,,,53,0
19259,note_on,40,0,2,,,,,,,,,1,,,65,0
19260,note_on,0,0,4,,,,,,,,,3,,,45,75
19260,note_on,0,0,1,,,,,,,,,0,,,81,0
19260,control_change,240,0,3,,,,,,,,,2,64,127,,
19260,note_on,0,0,1,,,,,,,,,0,,,81,101
19260,note_on,0,0,1,,,,,,,,,0,,,84,101
19260,note_on,0,0,1,,,,,,,,,0,,,77,0
19260,note_on,0,0,1,,,,,,,,,0,,,72,0
19260,note_on,0,0,4,,,,,,,,,3,,,36,75
19260,note_on,0,0,1,,,,,,,,,0,,,72,101
19260,note_on,0,0,1,,,,,,,,,0,,,77,101
19260,note_on,240,0,1,,,,,,,,,0,,,84,0
19260,note_on,0,0,4,,,,,,,,,3,,,41,75
19260,note_on,0,0,4,,,,,,,,,3,,,33,75
19260,note_on,0,0,4,,,,,,,,,3,,,34,0
19260,note_on,30,0,4,,,,,,,,,3,,,46,0
19299,note_on,0,0,3,,,,,,,,,2,,,65,75
19299,note_on,0,0,3,,,,,,,,,2,,,60,75
19299,note_on,0,0,3,,,,,,,,,2,,,57,75
19299,note_on,39,0,3,,,,,,,,,2,,,53,75
19339,note_on,0,0,3,,,,,,,,,2,,,53,0
19339,note_on,40,0,3,,,,,,,,,2,,,65,0
19339,note_on,0,0,3,,,,,,,,,2,,,60,0
19339,note_on,0,0,3,,,,,,,,,2,,,57,0
19340,note_on,0,0,3,,,,,,,,,2,,,57,75
19340,note_on,1,0,3,,,,,,,,,2,,,53,75
19340,note_on,0,0,3,,,,,,,,,2,,,65,75
19340,note_on,0,0,3,,,,,,,,,2,,,60,75
19380,note_on,0,0,1,,,,,,,,,0,,,84,101
19380,note_on,0,0,3,,,,,,,,,2,,,53,75
19380,note_on,0,0,3,,,,,,,,,2,,,57,0
19380,note_on,0,0,3,,,,,,,,,2,,,53,0
19380,note_on,0,0,3,,,,,,,,,2,,,60,0
19380,note_on,120,0,1,,,,,,,,,0,,,84,0
19380,note_on,0,0,3,,,,,,,,,2,,,60,75
19380,note_on,0,0,3,,,,,,,,,2,,,65,75
19380,note_on,0,0,3,,,,,,,,,2,,,57,75
19380,note_on,0,0,1,,,,,,,,,0,,,72,0
19380,note_on,0,0,1,,,,,,,,,0,,,89,101
19380,note_on,0,0,1,,,,,,,,,0,,,77,0
19380,note_on,0,0,1,,,,,,,,,0,,,77,101
19380,note_on,0,0,1,,,,,,,,,0,,,81,0
19380,note_on,0,0,1,,,,,,,,,0,,,81,101
19380,note_on,40,0,3,,,,,,,,,2,,,65,0
19419,note_on,0,0,3,,,,,,,,,2,,,65,75
19419,note_on,0,0,3,,,,,,,,,2,,,57,75
19419,note_on,39,0,3,,,,,,,,,2,,,53,75
19419,note_on,0,0,3,,,,,,,,,2,,,60,75
19420,note_on,1,0,3,,,,,,,,,2,,,65,0
19420,note_on,0,0,3,,,,,,,,,2,,,60,0
19420,note_on,0,0,3,,,,,,,,,2,,,57,0
19420,note_on,0,0,3,,,,,,,,,2,,,53,0
19459,note_on,0,0,3,,,,,,,,,2,,,57,0
19459,note_on,0,0,3,,,,,,,,,2,,,65,0
19459,note_on,0,0,3,,,,,,,,,2,,,60,0
19459,note_on,39,0,3,,,,,,,,,2,,,53,0
19460,control_change,1,0,3,,,,,,,,,2,64,0,,
19460,note_on,0,0,3,,,,,,,,,2,,,65,75
19460,note_on,0,0,3,,,,,,,,,2,,,57,75
19460,note_on,0,0,3,,,,,,,,,2,,,53,75
19460,note_on,0,0,3,,,,,,,,,2,,,60,75
19499,control_change,240,0,2,,,,,,,,,1,64,127,,
19500,note_on,0,0,1,,,,,,,,,0,,,86,101
19500,note_on,0,0,3,,,,,,,,,2,,,53,0
19500,note_on,40,0,3,,,,,,,,,2,,,65,0
19500,note_on,0,0,4,,,,,,,,,3,,,46,75
19500,note_on,0,0,4,,,,,,,,,3,,,34,75
19500,note_on,0,0,4,,,,,,,,,3,,,41,0
19500,note_on,0,0,1,,,,,,,,,0,,,74,101
19500,note_on,0,0,1,,,,,,,,,0,,,77,0
19500,note_on,0,0,1,,,,,,,,,0,,,81,0
19500,note_on,0,0,1,,,,,,,,,0,,,82,101
19500,note_on,0,0,1,,,,,,,,,0,,,84,0
19500,note_on,0,0,4,,,,,,,,,3,,,38,75
19500,note_on,0,0,4,,,,,,,,,3,,,36,0
19500,note_on,0,0,3,,,,,,,,,2,,,57,0
19500,note_on,0,0,4,,,,,,,,,3,,,33,0
19500,note_on,120,0,1,,,,,,,,,0,,,89,0
19500,control_change,0,0,4,,,,,,,,,3,64,127,,
19500,note_on,240,0,4,,,,,,,,,3,,,45,0
19500,note_on,0,0,4,,,,,,,,,3,,,41,75
19500,note_on,0,0,3,,,,,,,,,2,,,60,0
19539,note_on,0,0,2,,,,,,,,,1,,,62,62
19539,note_on,40,0,2,,,,,,,,,1,,,53,62
19539,note_on,0,0,2,,,,,,,,,1,,,58,62
19539,note_on,0,0,2,,,,,,,,,1,,,65,62
19579,note_on,0,0,2,,,,,,,,,1,,,53,0
19579,note_on,0,0,2,,,,,,,,,1,,,53,62
19579,note_on,0,0,2,,,,,,,,,1,,,58,0
19579,note_on,0,0,2,,,,,,,,,1,,,58,62
19579,note_on,0,0,2,,,,,,,,,1,,,62,0
19579,note_on,0,0,2,,,,,,,,,1,,,62,62
19579,note_on,0,0,2,,,,,,,,,1,,,65,62
19579,note_on,40,0,2,,,,,,,,,1,,,65,0
19619,note_on,0,0,2,,,,,,,,,1,,,53,0
19619,note_on,0,0,2,,,,,,,,,1,,,55,62
19619,note_on,0,0,2,,,,,,,,,1,,,58,0
19619,note_on,0,0,2,,,,,,,,,1,,,62,0
19619,note_on,0,0,2,,,,,,,,,1,,,62,62
19619,note_on,40,0,2,,,,,,,,,1,,,65,0
19619,note_on,0,0,2,,,,,,,,,1,,,67,62
19619,note_on,0,0,2,,,,,,,,,1,,,58,62
19620,note_on,120,0,4,,,,,,,,,3,,,46,0
19620,note_on,0,0,4,,,,,,,,,3,,,34,75
19620,note_on,0,0,4,,,,,,,,,3,,,31,75
19620,note_on,0,0,4,,,,,,,,,3,,,34,0
19620,note_on,0,0,4,,,,,,,,,3,,,38,0
19620,note_on,0,0,4,,,,,,,,,3,,,38,75
19620,note_on,0,0,4,,,,,,,,,3,,,41,0
19620,note_on,0,0,4,,,,,,,,,3,,,43,75
19659,note_on,0,0,2,,,,,,,,,1,,,62,62
19659,note_on,0,0,2,,,,,,,,,1,,,67,62
19659,note_on,0,0,2,,,,,,,,,1,,,62,0
19659,note_on,40,0,2,,,,,,,,,1,,,67,0
19659,note_on,0,0,2,,,,,,,,,1,,,58,0
19659,note_on,0,0,2,,,,,,,,,1,,,55,62
19659,note_on,0,0,2,,,,,,,,,1,,,55,0
19659,note_on,0,0,2,,,,,,,,,1,,,58,62
19699,note_on,0,0,2,,,,,,,,,1,,,55,62
19699,note_on,0,0,2,,,,,,,,,1,,,58,0
19699,note_on,0,0,2,,,,,,,,,1,,,58,62
19699,note_on,0,0,2,,,,,,,,,1,,,62,0
19699,note_on,0,0,2,,,,,,,,,1,,,55,0
19699,control_change,0,0,2,,,,,,,,,1,64,0,,
19699,note_on,0,0,2,,,,,,,,,1,,,62,62
19699,note_on,40,0,2,,,,,,,,,1,,,67,0
19699,note_on,0,0,2,,,,,,,,,1,,,67,62
19710,note_on,0,0,4,,,,,,,,,3,,,29,75
19710,control_change,0,0,4,,,,,,,,,3,64,0,,
19710,note_on,0,0,4,,,,,,,,,3,,,31,0
19710,note_on,0,0,4,,,,,,,,,3,,,34,0
19710,note_on,0,0,4,,,,,,,,,3,,,38,0
19710,note_on,0,0,4,,,,,,,,,3,,,41,75
19710,note_on,90,0,4,,,,,,,,,3,,,43,0
19739,note_on,0,0,2,,,,,,,,,1,,,55,0
19739,note_on,0,0,2,,,,,,,,,1,,,62,0
19739,note_on,0,0,2,,,,,,,,,1,,,58,0
19739,note_on,40,0,2,,,,,,,,,1,,,67,0
19740,note_on,0,0,1,,,,,,,,,0,,,79,101
19740,note_on,0,0,4,,,,,,,,,3,,,36,75
19740,note_on,0,0,4,,,,,,,,,3,,,31,75
19740,note_on,0,0,4,,,,,,,,,3,,,29,0
19740,note_on,0,0,4,,,,,,,,,3,,,28,75
19740,note_on,0,0,1,,,,,,,,,0,,,82,0
19740,note_on,30,0,4,,,,,,,,,3,,,41,0
19740,control_change,240,0,3,,,,,,,,,2,64,127,,
19740,note_on,240,0,1,,,,,,,,,0,,,86,0
19740,note_on,0,0,1,,,,,,,,,0,,,72,101
19740,control_change,0,0,1,,,,,,,,,0,64,127,,
19740,note_on,0,0,4,,,,,,,,,3,,,40,75
19740,note_on,0,0,1,,,,,,,,,0,,,76,101
19740,note_on,0,0,1,,,,,,,,,0,,,84,101
19740,note_on,0,0,1,,,,,,,,,0,,,74,0
19779,note_on,0,0,3,,,,,,,,,2,,,58,75
19779,note_on,0,0,3,,,,,,,,,2,,,60,75
19779,note_on,0,0,3,,,,,,,,,2,,,64,75
19779,note_on,39,0,3,,,,,,,,,2,,,52,75
19819,note_on,0,0,3,,,,,,,,,2,,,52,0
19819,note_on,40,0,3,,,,,,,,,2,,,64,0
19819,note_on,0,0,3,,,,,,,,,2,,,60,0
19819,note_on,0,0,3,,,,,,,,,2,,,58,0
19820,note_on,1,0,3,,,,,,,,,2,,,52,75
19820,note_on,0,0,3,,,,,,,,,2,,,60,75
19820,note_on,0,0,3,,,,,,,,,2,,,58,75
19820,note_on,0,0,3,,,,,,,,,2,,,64,75
19860,note_on,0,0,3,,,,,,,,,2,,,58,75
19860,note_on,0,0,3,,,,,,,,,2,,,60,0
19860,note_on,0,0,3,,,,,,,,,2,,,60,75
19860,note_on,0,0,1,,,,,,,,,0,,,70,101
19860,note_on,0,0,1,,,,,,,,,0,,,72,0
19860,note_on,0,0,1,,,,,,,,,0,,,72,101
19860,note_on,0,0,1,,,,,,,,,0,,,76,0
19860,note_on,0,0,1,,,,,,,,,0,,,79,0
19860,note_on,0,0,1,,,,,,,,,0,,,82,101
19860,note_on,40,0,3,,,,,,,,,2,,,64,0
19860,note_on,0,0,3,,,,,,,,,2,,,64,75
19860,note_on,0,0,3,,,,,,,,,2,,,58,0
19860,note_on,0,0,1,,,,,,,,,0,,,79,101
19860,note_on,0,0,3,,,,,,,,,2,,,52,0
19860,note_on,0,0,3,,,,,,,,,2,,,52,75
19860,note_on,120,0,1,,,,,,,,,0,,,84,0
19899,note_on,39,0,3,,,,,,,,,2,,,52,75
19899,note_on,0,0,3,,,,,,,,,2,,,58,75
19899,note_on,0,0,3,,,,,,,,,2,,,60,75
19899,note_on,0,0,3,,,,,,,,,2,,,64,75
19900,note_on,1,0,3,,,,,,,,,2,,,64,0
19900,note_on,0,0,3,,,,,,,,,2,,,52,0
19900,note_on,0,0,3,,,,,,,,,2,,,58,0
19900,note_on,0,0,3,,,,,,,,,2,,,60,0
19939,note_on,39,0,3,,,,,,,,,2,,,52,0
19939,note_on,0,0,3,,,,,,,,,2,,,58,0
19939,note_on,0,0,3,,,,,,,,,2,,,60,0
19939,note_on,0,0,3,,,,,,,,,2,,,64,0
19940,note_on,0,0,3,,,,,,,,,2,,,60,75
19940,note_on,0,0,3,,,,,,,,,2,,,64,75
19940,note_on,0,0,3,,,,,,,,,2,,,52,75
19940,control_change,1,0,3,,,,,,,,,2,64,0,,
19940,note_on,0,0,3,,,,,,,,,2,,,58,75
19950,note_on,0,0,1,,,,,,,,,0,,,82,101
19950,note_on,0,0,1,,,,,,,,,0,,,79,101
19950,note_on,0,0,1,,,,,,,,,0,,,79,0
19950,note_on,0,0,1,,,,,,,,,0,,,72,101
19950,note_on,0,0,1,,,,,,,,,0,,,72,0
19950,note_on,0,0,1,,,,,,,,,0,,,70,101
19950,note_on,90,0,1,,,,,,,,,0,,,82,0
19950,control_change,0,0,1,,,,,,,,,0,64,0,,
19950,note_on,0,0,1,,,,,,,,,0,,,70,0
19979,control_change,240,0,2,,,,,,,,,1,64,127,,
19980,note_on,240,0,4,,,,,,,,,3,,,40,0
19980,note_on,40,0,3,,,,,,,,,2,,,64,0
19980,control_change,0,0,4,,,,,,,,,3,64,127,,
19980,note_on,0,0,3,,,,,,,,,2,,,60,0
19980,note_on,0,0,3,,,,,,,,,2,,,58,0
19980,note_on,0,0,3,,,,,,,,,2,,,52,0
19980,note_on,30,0,1,,,,,,,,,0,,,82,0
19980,note_on,0,0,1,,,,,,,,,0,,,72,0
19980,note_on,0,0,1,,,,,,,,,0,,,79,0
19980,note_on,0,0,1,,,,,,,,,0,,,77,101
19980,note_on,0,0,1,,,,,,,,,0,,,70,0
19980,note_on,0,0,1,,,,,,,,,0,,,69,101
19980,note_on,0,0,4,,,,,,,,,3,,,28,0
19980,note_on,0,0,4,,,,,,,,,3,,,31,0
19980,note_on,0,0,1,,,,,,,,,0,,,81,101
19980,note_on,0,0,4,,,,,,,,,3,,,53,75
19980,note_on,0,0,4,,,,,,,,,3,,,36,0
19980,note_on,0,0,4,,,,,,,,,3,,,41,75
19980,note_on,0,0,4,,,,,,,,,3,,,45,75
20019,note_on,0,0,2,,,,,,,,,1,,,65,62
20019,note_on,0,0,2,,,,,,,,,1,,,69,62
20019,note_on,40,0,2,,,,,,,,,1,,,57,62
20059,note_on,0,0,2,,,,,,,,,1,,,57,62
20059,note_on,0,0,2,,,,,,,,,1,,,57,0
20059,note_on,0,0,2,,,,,,,,,1,,,65,0
20059,note_on,40,0,2,,,,,,,,,1,,,69,0
20059,note_on,0,0,2,,,,,,,,,1,,,65,62
20059,note_on,0,0,2,,,,,,,,,1,,,69,62
20099,note_on,40,0,2,,,,,,,,,1,,,69,0
20099,note_on,0,0,2,,,,,,,,,1,,,69,62
20099,note_on,0,0,2,,,,,,,,,1,,,57,62
20099,note_on,0,0,2,,,,,,,,,1,,,65,0
20099,note_on,0,0,2,,,,,,,,,1,,,65,62
20099,note_on,0,0,2,,,,,,,,,1,,,57,0
20100,note_on,0,0,4,,,,,,,,,3,,,45,0
20100,note_on,120,0,4,,,,,,,,,3,,,53,0
20100,note_on,0,0,4,,,,,,,,,3,,,52,75
20100,note_on,0,0,4,,,,,,,,,3,,,40,75
20100,note_on,0,0,4,,,,,,,,,3,,,45,75
20100,note_on,0,0,4,,,,,,,,,3,,,41,0
20139,note_on,40,0,2,,,,,,,,,1,,,69,0
20139,note_on,0,0,2,,,,,,,,,1,,,57,0
20139,note_on,0,0,2,,,,,,,,,1,,,57,62
20139,note_on,0,0,2,,,,,,,,,1,,,65,0
20139,note_on,0,0,2,,,,,,,,,1,,,65,62
20139,note_on,0,0,2,,,,,,,,,1,,,69,62
20179,control_change,0,0,2,,,,,,,,,1,64,0,,
20179,note_on,0,0,2,,,,,,,,,1,,,69,62
20179,note_on,0,0,2,,,,,,,,,1,,,65,62
20179,note_on,40,0,2,,,,,,,,,1,,,69,0
20179,note_on,0,0,2,,,,,,,,,1,,,65,0
20179,note_on,0,0,2,,,,,,,,,1,,,57,62
20179,note_on,0,0,2,,,,,,,,,1,,,57,0
20190,control_change,0,0,4,,,,,,,,,3,64,0,,
20190,note_on,0,0,4,,,,,,,,,3,,,50,75
20190,note_on,0,0,4,,,,,,,,,3,,,45,0
20190,note_on,90,0,4,,,,,,,,,3,,,52,0
20190,note_on,0,0,4,,,,,,,,,3,,,40,0
20190,note_on,0,0,4,,,,,,,,,3,,,45,75
20190,note_on,0,0,4,,,,,,,,,3,,,38,75
20219,note_on,0,0,2,,,,,,,,,1,,,57,0
20219,note_on,40,0,2,,,,,,,,,1,,,69,0
20219,note_on,0,0,2,,,,,,,,,1,,,65,0
20220,note_on,0,0,1,,,,,,,,,0,,,69,0
20220,note_on,0,0,1,,,,,,,,,0,,,69,101
20220,note_on,0,0,1,,,,,,,,,0,,,79,101
20220,note_on,0,0,1,,,,,,,,,0,,,76,101
20220,note_on,0,0,1,,,,,,,,,0,,,81,101
20220,note_on,0,0,1,,,,,,,,,0,,,77,0
20220,control_change,240,0,3,,,,,,,,,2,64,127,,
20220,note_on,0,0,4,,,,,,,,,3,,,37,75
20220,note_on,240,0,1,,,,,,,,,0,,,81,0
20220,note_on,0,0,4,,,,,,,,,3,,,49,75
20220,note_on,0,0,4,,,,,,,,,3,,,45,75
20220,note_on,0,0,4,,,,,,,,,3,,,45,0
20220,note_on,0,0,4,,,,,,,,,3,,,38,0
20220,note_on,30,0,4,,,,,,,,,3,,,50,0
20259,note_on,39,0,3,,,,,,,,,2,,,52,75
20259,note_on,0,0,3,,,,,,,,,2,,,64,75
20259,note_on,0,0,3,,,,,,,,,2,,,57,75
20299,note_on,40,0,3,,,,,,,,,2,,,64,0
20299,note_on,0,0,3,,,,,,,,,2,,,57,0
20299,note_on,0,0,3,,,,,,,,,2,,,52,0
20300,note_on,0,0,3,,,,,,,,,2,,,57,75
20300,note_on,1,0,3,,,,,,,,,2,,,52,75
20300,note_on,0,0,3,,,,,,,,,2,,,64,75
20340,note_on,0,0,3,,,,,,,,,2,,,57,0
20340,note_on,0,0,3,,,,,,,,,2,,,52,75
20340,note_on,0,0,3,,,,,,,,,2,,,52,0
20340,note_on,0,0,3,,,,,,,,,2,,,57,75
20340,note_on,40,0,3,,,,,,,,,2,,,64,0
20340,note_on,0,0,3,,,,,,,,,2,,,64,75
20379,note_on,0,0,3,,,,,,,,,2,,,57,75
20379,note_on,39,0,3,,,,,,,,,2,,,52,75
20379,note_on,0,0,3,,,,,,,,,2,,,64,75
20380,note_on,1,0,3,,,,,,,,,2,,,64,0
20380,note_on,0,0,3,,,,,,,,,2,,,57,0
20380,note_on,0,0,3,,,,,,,,,2,,,52,0
20400,note_on,180,0,1,,,,,,,,,0,,,81,0
20400,note_on,0,0,1,,,,,,,,,0,,,81,101
20400,note_on,0,0,1,,,,,,,,,0,,,79,101
20400,note_on,0,0,1,,,,,,,,,0,,,69,0
20400,note_on,0,0,1,,,,,,,,,0,,,69,101
20400,note_on,0,0,1,,,,,,,,,0,,,76,0
20400,note_on,0,0,1,,,,,,,,,0,,,76,101
20400,note_on,0,0,1,,,,,,,,,0,,,79,0
20419,note_on,0,0,3,,,,,,,,,2,,,57,0
20419,note_on,0,0,3,,,,,,,,,2,,,64,0
20419,note_on,39,0,3,,,,,,,,,2,,,52,0
20420,control_change,1,0,3,,,,,,,,,2,64,0,,
20420,note_on,0,0,3,,,,,,,,,2,,,64,75
20420,note_on,0,0,3,,,,,,,,,2,,,57,75
20420,note_on,0,0,3,,,,,,,,,2,,,52,75
20459,control_change,240,0,2,,,,,,,,,1,64,127,,
20460,note_on,0,0,1,,,,,,,,,0,,,76,0
20460,note_on,0,0,1,,,,,,,,,0,,,77,101
20460,note_on,0,0,1,,,,,,,,,0,,,79,0
20460,note_on,0,0,4,,,,,,,,,3,,,45,0
20460,note_on,0,0,4,,,,,,,,,3,,,37,0
20460,note_on,0,0,1,,,,,,,,,0,,,82,101
20460,note_on,60,0,1,,,,,,,,,0,,,81,0
20460,control_change,0,0,3,,,,,,,,,2,64,127,,
20460,note_on,0,0,1,,,,,,,,,0,,,69,0
20460,note_on,0,0,1,,,,,,,,,0,,,74,101
20460,note_on,40,0,3,,,,,,,,,2,,,64,0
20460,note_on,240,0,4,,,,,,,,,3,,,49,0
20460,note_on,0,0,3,,,,,,,,,2,,,65,75
20460,note_on,0,0,3,,,,,,,,,2,,,58,75
20460,note_on,0,0,3,,,,,,,,,2,,,57,0
20460,note_on,0,0,3,,,,,,,,,2,,,52,0
20460,note_on,0,0,3,,,,,,,,,2,,,50,75
20460,note_on,0,0,1,,,,,,,,,0,,,70,101
20499,note_on,0,0,2,,,,,,,,,1,,,62,62
20499,note_on,0,0,2,,,,,,,,,1,,,69,62
20499,note_on,40,0,2,,,,,,,,,1,,,53,62
20499,note_on,0,0,2,,,,,,,,,1,,,58,62
20520,note_on,0,0,3,,,,,,,,,2,,,58,0
20520,note_on,0,0,3,,,,,,,,,2,,,50,0
20520,note_on,60,0,3,,,,,,,,,2,,,65,0
20539,note_on,0,0,2,,,,,,,,,1,,,53,0
20539,note_on,40,0,2,,,,,,,,,1,,,69,0
20539,note_on,0,0,2,,,,,,,,,1,,,69,62
20539,note_on,0,0,2,,,,,,,,,1,,,62,62
20539,note_on,0,0,2,,,,,,,,,1,,,62,0
20539,note_on,0,0,2,,,,,,,,,1,,,58,62
20539,note_on,0,0,2,,,,,,,,,1,,,58,0
20539,note_on,0,0,2,,,,,,,,,1,,,53,62
20579,note_on,0,0,2,,,,,,,,,1,,,53,0
20579,note_on,0,0,2,,,,,,,,,1,,,69,62
20579,note_on,0,0,2,,,,,,,,,1,,,62,62
20579,note_on,0,0,2,,,,,,,,,1,,,62,0
20579,note_on,40,0,2,,,,,,,,,1,,,69,0
20579,note_on,0,0,2,,,,,,,,,1,,,58,62
20579,note_on,0,0,2,,,,,,,,,1,,,58,0
20579,note_on,0,0,2,,,,,,,,,1,,,53,62
20580,note_on,60,0,3,,,,,,,,,2,,,38,75
20595,note_on,0,0,3,,,,,,,,,2,,,40,75
20595,note_on,15,0,3,,,,,,,,,2,,,38,0
20610,note_on,15,0,3,,,,,,,,,2,,,40,0
20610,note_on,0,0,3,,,,,,,,,2,,,38,75
20619,note_on,0,0,2,,,,,,,,,1,,,58,62
20619,note_on,0,0,2,,,,,,,,,1,,,69,62
20619,note_on,0,0,2,,,,,,,,,1,,,62,62
20619,note_on,0,0,2,,,,,,,,,1,,,62,0
20619,note_on,0,0,2,,,,,,,,,1,,,58,0
20619,note_on,0,0,2,,,,,,,,,1,,,53,0
20619,note_on,0,0,2,,,,,,,,,1,,,53,62
20619,note_on,40,0,2,,,,,,,,,1,,,69,0
20625,note_on,0,0,3,,,,,,,,,2,,,40,75
20625,note_on,15,0,3,,,,,,,,,2,,,38,0
20640,note_on,0,0,3,,,,,,,,,2,,,37,75
20640,note_on,15,0,3,,,,,,,,,2,,,40,0
20659,note_on,40,0,2,,,,,,,,,1,,,69,0
20659,note_on,0,0,2,,,,,,,,,1,,,69,62
20659,note_on,0,0,2,,,,,,,,,1,,,62,62
20659,control_change,0,0,2,,,,,,,,,1,64,0,,
20659,note_on,0,0,2,,,,,,,,,1,,,53,0
20659,note_on,0,0,2,,,,,,,,,1,,,53,62
20659,note_on,0,0,2,,,,,,,,,1,,,58,0
20659,note_on,0,0,2,,,,,,,,,1,,,58,62
20659,note_on,0,0,2,,,,,,,,,1,,,62,0
20670,note_on,0,0,3,,,,,,,,,2,,,38,75
20670,control_change,0,0,3,,,,,,,,,2,64,0,,
20670,note_on,30,0,3,,,,,,,,,2,,,37,0
20699,note_on,40,0,2,,,,,,,,,1,,,69,0
20699,note_on,0,0,2,,,,,,,,,1,,,53,0
20699,note_on,0,0,2,,,,,,,,,1,,,58,0
20699,note_on,0,0,2,,,,,,,,,1,,,62,0
20700,note_on,0,0,1,,,,,,,,,0,,,82,101
20700,note_on,240,0,1,,,,,,,,,0,,,82,0
20700,note_on,30,0,3,,,,,,,,,2,,,38,0
20700,control_change,0,0,3,,,,,,,,,2,64,127,,
20700,note_on,0,0,1,,,,,,,,,0,,,70,0
20700,note_on,0,0,1,,,,,,,,,0,,,72,101
20700,note_on,0,0,1,,,,,,,,,0,,,74,0
20700,note_on,0,0,1,,,,,,,,,0,,,77,0
20700,note_on,0,0,1,,,,,,,,,0,,,79,101
20700,note_on,0,0,1,,,,,,,,,0,,,84,101
20700,note_on,240,0,4,,,,,,,,,3,,,40,75
20739,note_on,0,0,3,,,,,,,,,2,,,58,75
20739,note_on,0,0,3,,,,,,,,,2,,,60,75
20739,note_on,39,0,3,,,,,,,,,2,,,52,75
20739,note_on,0,0,3,,,,,,,,,2,,,67,75
20779,note_on,40,0,3,,,,,,,,,2,,,67,0
20779,note_on,0,0,3,,,,,,,,,2,,,52,0
20779,note_on,0,0,3,,,,,,,,,2,,,58,0
20779,note_on,0,0,3,,,,,,,,,2,,,60,0
20780,note_on,0,0,3,,,,,,,,,2,,,58,75
20780,note_on,0,0,3,,,,,,,,,2,,,60,75
20780,note_on,0,0,3,,,,,,,,,2,,,67,75
20780,note_on,1,0,3,,,,,,,,,2,,,52,75
20820,note_on,0,0,3,,,,,,,,,2,,,67,75
20820,note_on,0,0,3,,,,,,,,,2,,,60,75
20820,note_on,0,0,3,,,,,,,,,2,,,60,0
20820,note_on,0,0,3,,,,,,,,,2,,,58,75
20820,note_on,0,0,3,,,,,,,,,2,,,52,75
20820,note_on,0,0,3,,,,,,,,,2,,,52,0
20820,note_on,40,0,3,,,,,,,,,2,,,67,0
20820,note_on,120,0,4,,,,,,,,,3,,,40,0
20820,note_on,0,0,3,,,,,,,,,2,,,58,0
20859,note_on,0,0,3,,,,,,,,,2,,,60,75
20859,note_on,0,0,3,,,,,,,,,2,,,58,75
20859,note_on,39,0,3,,,,,,,,,2,,,52,75
20859,note_on,0,0,3,,,,,,,,,2,,,67,75
20860,note_on,0,0,3,,,,,,,,,2,,,58,0
20860,note_on,0,0,3,,,,,,,,,2,,,60,0
20860,note_on,0,0,3,,,,,,,,,2,,,52,0
20860,note_on,1,0,3,,,,,,,,,2,,,67,0
20899,note_on,39,0,3,,,,,,,,,2,,,52,0
20899,note_on,0,0,3,,,,,,,,,2,,,60,0
20899,note_on,0,0,3,,,,,,,,,2,,,58,0
20899,note_on,0,0,3,,,,,,,,,2,,,67,0
20900,note_on,0,0,3,,,,,,,,,2,,,52,75
20900,note_on,0,0,3,,,,,,,,,2,,,58,75
20900,note_on,0,0,3,,,,,,,,,2,,,60,75
20900,note_on,0,0,3,,,,,,,,,2,,,67,75
20900,control_change,1,0,3,,,,,,,,,2,64,0,,
20939,control_change,240,0,2,,,,,,,,,1,64,127,,
20940,note_on,40,0,3,,,,,,,,,2,,,67,0
20940,note_on,0,0,1,,,,,,,,,0,,,69,101
20940,note_on,0,0,1,,,,,,,,,0,,,72,0
20940,note_on,0,0,1,,,,,,,,,0,,,72,101
20940,note_on,0,0,1,,,,,,,,,0,,,79,0
20940,note_on,0,0,1,,,,,,,,,0,,,81,101
20940,note_on,0,0,1,,,,,,,,,0,,,82,0
20940,note_on,0,0,3,,,,,,,,,2,,,60,75
20940,note_on,0,0,3,,,,,,,,,2,,,65,75
20940,note_on,0,0,3,,,,,,,,,2,,,60,0
20940,control_change,0,0,3,,,,,,,,,2,64,127,,
20940,note_on,0,0,3,,,,,,,,,2,,,58,0
20940,note_on,0,0,3,,,,,,,,,2,,,57,75
20940,note_on,240,0,1,,,,,,,,,0,,,84,0
20940,note_on,0,0,3,,,,,,,,,2,,,53,75
20940,note_on,0,0,3,,,,,,,,,2,,,52,0
20979,note_on,40,0,2,,,,,,,,,1,,,57,62
20979,note_on,0,0,2,,,,,,,,,1,,,60,62
21000,note_on,60,0,3,,,,,,,,,2,,,65,0
21000,note_on,0,0,3,,,,,,,,,2,,,60,0
21000,note_on,0,0,3,,,,,,,,,2,,,53,0
21000,note_on,0,0,3,,,,,,,,,2,,,57,0
21019,note_on,0,0,2,,,,,,,,,1,,,57,62
21019,note_on,40,0,2,,,,,,,,,1,,,60,0
21019,note_on,0,0,2,,,,,,,,,1,,,57,0
21019,note_on,0,0,2,,,,,,,,,1,,,60,62
21059,note_on,40,0,2,,,,,,,,,1,,,60,0
21059,note_on,0,0,2,,,,,,,,,1,,,57,0
21060,note_on,0,0,1,,,,,,,,,0,,,77,101
21060,note_on,0,0,1,,,,,,,,,0,,,72,0
21060,note_on,0,0,1,,,,,,,,,0,,,69,101
21060,note_on,0,0,1,,,,,,,,,0,,,69,0
21060,note_on,60,0,3,,,,,,,,,2,,,41,75
21060,note_on,0,0,1,,,,,,,,,0,,,65,101
21060,note_on,120,0,1,,,,,,,,,0,,,81,0
21075,note_on,0,0,3,,,,,,,,,2,,,43,75
21075,note_on,15,0,3,,,,,,,,,2,,,41,0
21090,note_on,0,0,3,,,,,,,,,2,,,41,75
21090,note_on,15,0,3,,,,,,,,,2,,,43,0
21099,note_on,40,0,2,,,,,,,,,1,,,57,62
21099,note_on,0,0,2,,,,,,,,,1,,,60,62
21105,note_on,15,0,3,,,,,,,,,2,,,41,0
21105,note_on,0,0,3,,,,,,,,,2,,,43,75
21120,note_on,15,0,3,,,,,,,,,2,,,43,0
21120,note_on,0,0,3,,,,,,,,,2,,,40,75
21139,note_on,40,0,2,,,,,,,,,1,,,60,0
21139,note_on,0,0,2,,,,,,,,,1,,,60,62
21139,control_change,0,0,2,,,,,,,,,1,64,0,,
21139,note_on,0,0,2,,,,,,,,,1,,,57,62
21139,note_on,0,0,2,,,,,,,,,1,,,57,0
21150,note_on,0,0,3,,,,,,,,,2,,,41,75
21150,note_on,30,0,3,,,,,,,,,2,,,40,0
21150,control_change,0,0,3,,,,,,,,,2,64,0,,
21179,note_on,40,0,2,,,,,,,,,1,,,60,0
21179,note_on,0,0,2,,,,,,,,,1,,,57,0
21180,control_change,0,0,1,,,,,,,,,0,64,127,,
21180,note_on,0,0,1,,,,,,,,,0,,,77,101
21180,note_on,30,0,3,,,,,,,,,2,,,41,0
21180,note_on,0,0,1,,,,,,,,,0,,,84,101
21180,control_change,0,0,3,,,,,,,,,2,64,127,,
21180,note_on,0,0,1,,,,,,,,,0,,,80,101
21180,note_on,0,0,1,,,,,,,,,0,,,65,0
21180,note_on,0,0,1,,,,,,,,,0,,,72,101
21180,note_on,0,0,1,,,,,,,,,0,,,69,0
21180,note_on,120,0,1,,,,,,,,,0,,,77,0
21180,note_on,0,0,3,,,,,,,,,2,,,29,75
21219,note_on,0,0,3,,,,,,,,,2,,,56,75
21219,note_on,0,0,3,,,,,,,,,2,,,60,75
21219,note_on,0,0,3,,,,,,,,,2,,,68,75
21219,note_on,39,0,3,,,,,,,,,2,,,53,75
21220,note_on,1,0,3,,,,,,,,,2,,,29,0
21259,note_on,39,0,3,,,,,,,,,2,,,60,0
21259,note_on,0,0,3,,,,,,,,,2,,,53,0
21259,note_on,0,0,3,,,,,,,,,2,,,68,0
21259,note_on,0,0,3,,,,,,,,,2,,,56,0
21260,note_on,0,0,3,,,,,,,,,2,,,60,75
21260,note_on,0,0,3,,,,,,,,,2,,,56,75
21260,note_on,0,0,3,,,,,,,,,2,,,68,75
21260,note_on,1,0,3,,,,,,,,,2,,,53,75
21300,note_on,0,0,1,,,,,,,,,0,,,77,101
21300,note_on,0,0,1,,,,,,,,,0,,,80,0
21300,note_on,0,0,1,,,,,,,,,0,,,77,0
21300,note_on,0,0,1,,,,,,,,,0,,,72,0
21300,note_on,120,0,1,,,,,,,,,0,,,84,0
21300,note_on,0,0,1,,,,,,,,,0,,,80,101
21300,note_on,0,0,1,,,,,,,,,0,,,72,101
21300,note_on,0,0,1,,,,,,,,,0,,,84,101
21300,note_on,0,0,3,,,,,,,,,2,,,60,0
21300,note_on,40,0,3,,,,,,,,,2,,,68,0
21300,note_on,0,0,3,,,,,,,,,2,,,53,0
21300,note_on,0,0,3,,,,,,,,,2,,,53,75
21300,note_on,0,0,3,,,,,,,,,2,,,56,0
21300,note_on,0,0,3,,,,,,,,,2,,,60,75
21300,note_on,0,0,3,,,,,,,,,2,,,68,75
21300,note_on,0,0,3,,,,,,,,,2,,,56,75
21339,note_on,0,0,3,,,,,,,,,2,,,68,75
21339,note_on,0,0,3,,,,,,,,,2,,,60,75
21339,note_on,0,0,3,,,,,,,,,2,,,56,75
21339,note_on,39,0,3,,,,,,,,,2,,,53,75
21340,note_on,0,0,3,,,,,,,,,2,,,60,0
21340,note_on,0,0,3,,,,,,,,,2,,,56,0
21340,note_on,0,0,3,,,,,,,,,2,,,53,0
21340,note_on,1,0,3,,,,,,,,,2,,,68,0
21360,note_on,0,0,1,,,,,,,,,0,,,80,0
21360,note_on,0,0,1,,,,,,,,,0,,,77,101
21360,note_on,0,0,1,,,,,,,,,0,,,77,0
21360,note_on,0,0,1,,,,,,,,,0,,,72,101
21360,note_on,0,0,1,,,,,,,,,0,,,72,0
21360,note_on,60,0,1,,,,,,,,,0,,,84,0
21360,control_change,0,0,1,,,,,,,,,0,64,0,,
21360,note_on,0,0,1,,,,,,,,,0,,,80,101
21360,note_on,0,0,1,,,,,,,,,0,,,84,101
21379,note_on,0,0,3,,,,,,,,,2,,,56,0
21379,note_on,39,0,3,,,,,,,,,2,,,53,0
21379,note_on,0,0,3,,,,,,,,,2,,,68,0
21379,note_on,0,0,3,,,,,,,,,2,,,60,0
21380,note_on,0,0,3,,,,,,,,,2,,,68,75
21380,note_on,0,0,3,,,,,,,,,2,,,60,75
21380,note_on,0,0,3,,,,,,,,,2,,,56,75
21380,control_change,1,0,3,,,,,,,,,2,64,0,,
21380,note_on,0,0,3,,,,,,,,,2,,,53,75
21419,control_change,240,0,2,,,,,,,,,1,64,127,,
21420,note_on,0,0,3,,,,,,,,,2,,,61,75
21420,note_on,0,0,1,,,,,,,,,0,,,85,101
21420,note_on,60,0,1,,,,,,,,,0,,,84,0
21420,note_on,0,0,3,,,,,,,,,2,,,68,75
21420,note_on,0,0,1,,,,,,,,,0,,,77,101
21420,note_on,0,0,1,,,,,,,,,0,,,77,0
21420,note_on,0,0,1,,,,,,,,,0,,,73,101
21420,note_on,0,0,1,,,,,,,,,0,,,72,0
21420,note_on,0,0,1,,,,,,,,,0,,,80,101
21420,note_on,0,0,3,,,,,,,,,2,,,60,0
21420,note_on,0,0,3,,,,,,,,,2,,,56,0
21420,note_on,0,0,3,,,,,,,,,2,,,53,75
21420,note_on,0,0,3,,,,,,,,,2,,,53,0
21420,control_change,0,0,3,,,,,,,,,2,64,127,,
21420,note_on,40,0,3,,,,,,,,,2,,,68,0
21420,note_on,0,0,3,,,,,,,,,2,,,56,75
21420,note_on,0,0,1,,,,,,,,,0,,,80,0
21459,note_on,0,0,2,,,,,,,,,1,,,68,62
21459,note_on,0,0,2,,,,,,,,,1,,,65,62
21459,note_on,40,0,2,,,,,,,,,1,,,56,62
21459,note_on,0,0,2,,,,,,,,,1,,,61,62
21480,note_on,60,0,3,,,,,,,,,2,,,68,0
21480,note_on,0,0,3,,,,,,,,,2,,,56,0
21480,note_on,0,0,3,,,,,,,,,2,,,61,0
21480,note_on,0,0,3,,,,,,,,,2,,,53,0
21499,note_on,0,0,2,,,,,,,,,1,,,56,0
21499,note_on,0,0,2,,,,,,,,,1,,,56,62
21499,note_on,0,0,2,,,,,,,,,1,,,61,0
21499,note_on,0,0,2,,,,,,,,,1,,,61,62
21499,note_on,0,0,2,,,,,,,,,1,,,65,0
21499,note_on,0,0,2,,,,,,,,,1,,,65,62
21499,note_on,0,0,2,,,,,,,,,1,,,68,62
21499,note_on,40,0,2,,,,,,,,,1,,,68,0
21539,note_on,0,0,2,,,,,,,,,1,,,65,0
21539,note_on,0,0,2,,,,,,,,,1,,,56,0
21539,note_on,0,0,2,,,,,,,,,1,,,56,62
21539,note_on,0,0,2,,,,,,,,,1,,,61,62
21539,note_on,0,0,2,,,,,,,,,1,,,61,0
21539,note_on,40,0,2,,,,,,,,,1,,,68,0
21539,note_on,0,0,2,,,,,,,,,1,,,68,62
21539,note_on,0,0,2,,,,,,,,,1,,,65,62
21540,note_on,60,0,3,,,,,,,,,2,,,41,75
21555,note_on,0,0,3,,,,,,,,,2,,,43,75
21555,note_on,15,0,3,,,,,,,,,2,,,41,0
21570,note_on,0,0,3,,,,,,,,,2,,,41,75
21570,note_on,15,0,3,,,,,,,,,2,,,43,0
21579,note_on,0,0,2,,,,,,,,,1,,,56,0
21579,note_on,0,0,2,,,,,,,,,1,,,56,62
21579,note_on,0,0,2,,,,,,,,,1,,,65,62
21579,note_on,0,0,2,,,,,,,,,1,,,61,0
21579,note_on,40,0,2,,,,,,,,,1,,,68,0
21579,note_on,0,0,2,,,,,,,,,1,,,61,62
21579,note_on,0,0,2,,,,,,,,,1,,,65,0
21579,note_on,0,0,2,,,,,,,,,1,,,68,62
21585,note_on,15,0,3,,,,,,,,,2,,,41,0
21585,note_on,0,0,3,,,,,,,,,2,,,43,75
21600,control_change,0,0,3,,,,,,,,,2,64,0,,
21600,note_on,15,0,3,,,,,,,,,2,,,43,0
21600,note_on,0,0,3,,,,,,,,,2,,,40,75
21619,note_on,0,0,2,,,,,,,,,1,,,68,62
21619,note_on,0,0,2,,,,,,,,,1,,,65,62
21619,note_on,40,0,2,,,,,,,,,1,,,68,0
21619,note_on,0,0,2,,,,,,,,,1,,,61,62
21619,note_on,0,0,2,,,,,,,,,1,,,61,0
21619,note_on,0,0,2,,,,,,,,,1,,,56,62
21619,control_change,0,0,2,,,,,,,,,1,64,0,,
21619,note_on,0,0,2,,,,,,,,,1,,,56,0
21619,note_on,0,0,2,,,,,,,,,1,,,65,0
21630,note_on,30,0,3,,,,,,,,,2,,,40,0
21659,note_on,0,0,2,,,,,,,,,1,,,56,0
21659,note_on,0,0,2,,,,,,,,,1,,,61,0
21659,note_on,0,0,2,,,,,,,,,1,,,65,0
21659,note_on,40,0,2,,,,,,,,,1,,,68,0
21660,note_on,0,0,1,,,,,,,,,0,,,75,101
21660,note_on,0,0,1,,,,,,,,,0,,,77,0
21660,note_on,0,0,1,,,,,,,,,0,,,80,0
21660,note_on,0,0,1,,,,,,,,,0,,,82,101
21660,note_on,0,0,1,,,,,,,,,0,,,87,101
21660,note_on,0,0,3,,,,,,,,,2,,,31,75
21660,note_on,0,0,3,,,,,,,,,2,,,43,75
21660,note_on,240,0,1,,,,,,,,,0,,,85,0
21660,control_change,30,0,3,,,,,,,,,2,64,127,,
21660,note_on,0,0,1,,,,,,,,,0,,,73,101
21660,note_on,0,0,1,,,,,,,,,0,,,73,0
21699,note_on,0,0,3,,,,,,,,,2,,,61,75
21699,note_on,0,0,3,,,,,,,,,2,,,63,75
21699,note_on,39,0,3,,,,,,,,,2,,,55,75
21699,note_on,0,0,3,,,,,,,,,2,,,70,75
21700,note_on,0,0,3,,,,,,,,,2,,,31,0
21700,note_on,1,0,3,,,,,,,,,2,,,43,0
21739,note_on,0,0,3,,,,,,,,,2,,,55,0
21739,note_on,0,0,3,,,,,,,,,2,,,70,0
21739,note_on,0,0,3,,,,,,,,,2,,,61,0
21739,note_on,39,0,3,,,,,,,,,2,,,63,0
21740,note_on,1,0,3,,,,,,,,,2,,,55,75
21740,note_on,0,0,3,,,,,,,,,2,,,61,75
21740,note_on,0,0,3,,,,,,,,,2,,,70,75
21740,note_on,0,0,3,,,,,,,,,2,,,63,75
21780,note_on,0,0,3,,,,,,,,,2,,,63,75
21780,note_on,0,0,3,,,,,,,,,2,,,70,75
21780,note_on,0,0,3,,,,,,,,,2,,,63,0
21780,note_on,0,0,3,,,,,,,,,2,,,61,75
21780,note_on,0,0,3,,,,,,,,,2,,,61,0
21780,note_on,40,0,3,,,,,,,,,2,,,70,0
21780,note_on,0,0,3,,,,,,,,,2,,,55,75
21780,note_on,0,0,3,,,,,,,,,2,,,55,0
21819,note_on,0,0,3,,,,,,,,,2,,,61,75
21819,note_on,0,0,3,,,,,,,,,2,,,63,75
21819,note_on,0,0,3,,,,,,,,,2,,,70,75
21819,note_on,39,0,3,,,,,,,,,2,,,55,75
21820,note_on,0,0,3,,,,,,,,,2,,,61,0
21820,note_on,0,0,3,,,,,,,,,2,,,55,0
21820,note_on,1,0,3,,,,,,,,,2,,,70,0
21820,note_on,0,0,3,,,,,,,,,2,,,63,0
21859,note_on,0,0,3,,,,,,,,,2,,,70,0
21859,note_on,0,0,3,,,,,,,,,2,,,63,0
21859,note_on,0,0,3,,,,,,,,,2,,,61,0
21859,note_on,39,0,3,,,,,,,,,2,,,55,0
21860,note_on,0,0,3,,,,,,,,,2,,,63,75
21860,note_on,0,0,3,,,,,,,,,2,,,61,75
21860,note_on,0,0,3,,,,,,,,,2,,,55,75
21860,note_on,0,0,3,,,,,,,,,2,,,70,75
21860,control_change,1,0,3,,,,,,,,,2,64,0,,
21899,control_change,240,0,2,,,,,,,,,1,64,127,,
21900,note_on,0,0,1,,,,,,,,,0,,,72,101
21900,note_on,0,0,1,,,,,,,,,0,,,84,101
21900,note_on,0,0,1,,,,,,,,,0,,,82,0
21900,note_on,0,0,1,,,,,,,,,0,,,75,101
21900,note_on,0,0,1,,,,,,,,,0,,,75,0
21900,note_on,0,0,3,,,,,,,,,2,,,63,0
21900,note_on,0,0,1,,,,,,,,,0,,,73,0
21900,note_on,0,0,3,,,,,,,,,2,,,55,0
21900,note_on,0,0,3,,,,,,,,,2,,,44,75
21900,note_on,0,0,3,,,,,,,,,2,,,61,0
21900,note_on,40,0,3,,,,,,,,,2,,,70,0
21900,note_on,240,0,1,,,,,,,,,0,,,87,0
21900,note_on,1080,0,4,,,,,,,,,3,,,32,75
21915,note_on,15,0,3,,,,,,,,,2,,,44,0
21915,note_on,0,0,3,,,,,,,,,2,,,46,75
21930,note_on,15,0,3,,,,,,,,,2,,,46,0
21930,note_on,0,0,3,,,,,,,,,2,,,44,75
21939,note_on,0,0,2,,,,,,,,,1,,,63,62
21939,note_on,40,0,2,,,,,,,,,1,,,60,62
21945,note_on,0,0,3,,,,,,,,,2,,,46,75
21945,note_on,15,0,3,,,,,,,,,2,,,44,0
21960,note_on,0,0,3,,,,,,,,,2,,,46,75
21960,note_on,15,0,3,,,,,,,,,2,,,46,0
21979,note_on,0,0,2,,,,,,,,,1,,,60,0
21979,note_on,0,0,2,,,,,,,,,1,,,60,62
21979,note_on,0,0,2,,,,,,,,,1,,,63,62
21979,note_on,40,0,2,,,,,,,,,1,,,63,0
21990,note_on,30,0,3,,,,,,,,,2,,,46,0
21990,note_on,0,0,3,,,,,,,,,2,,,48,75
22019,note_on,40,0,2,,,,,,,,,1,,,63,0
22019,note_on,0,0,2,,,,,,,,,1,,,60,0
22020,note_on,0,0,1,,,,,,,,,0,,,80,101
22020,note_on,120,0,1,,,,,,,,,0,,,84,0
22020,note_on,0,0,1,,,,,,,,,0,,,72,0
22020,note_on,0,0,4,,,,,,,,,3,,,36,75
22020,note_on,120,0,4,,,,,,,,,3,,,32,0
22020,note_on,0,0,3,,,,,,,,,2,,,48,75
22020,note_on,0,0,1,,,,,,,,,0,,,75,0
22020,note_on,0,0,1,,,,,,,,,0,,,72,101
22020,note_on,30,0,3,,,,,,,,,2,,,48,0
22020,note_on,0,0,1,,,,,,,,,0,,,68,101
22035,note_on,15,0,3,,,,,,,,,2,,,48,0
22035,note_on,0,0,3,,,,,,,,,2,,,50,75
22050,note_on,15,0,3,,,,,,,,,2,,,50,0
22050,note_on,0,0,3,,,,,,,,,2,,,48,75
22059,note_on,40,0,2,,,,,,,,,1,,,60,62
22059,note_on,0,0,2,,,,,,,,,1,,,63,62
22065,note_on,0,0,3,,,,,,,,,2,,,50,75
22065,note_on,15,0,3,,,,,,,,,2,,,48,0
22080,note_on,15,0,3,,,,,,,,,2,,,50,0
22080,note_on,0,0,3,,,,,,,,,2,,,47,75
22099,note_on,0,0,2,,,,,,,,,1,,,63,62
22099,note_on,0,0,2,,,,,,,,,1,,,60,62
22099,note_on,0,0,2,,,,,,,,,1,,,60,0
22099,note_on,40,0,2,,,,,,,,,1,,,63,0
22110,note_on,30,0,3,,,,,,,,,2,,,47,0
22110,note_on,0,0,3,,,,,,,,,2,,,48,75
22139,control_change,0,0,2,,,,,,,,,1,64,127,,
22139,note_on,0,0,2,,,,,,,,,1,,,60,0
22139,note_on,40,0,2,,,,,,,,,1,,,63,0
22140,note_on,0,0,1,,,,,,,,,0,,,77,127
22140,note_on,0,0,1,,,,,,,,,0,,,68,127
22140,note_on,0,0,1,,,,,,,,,0,,,65,127
22140,note_on,0,0,1,,,,,,,,,0,,,73,127
22140,note_on,120,0,1,,,,,,,,,0,,,80,0
22140,note_on,0,0,1,,,,,,,,,0,,,68,0
22140,control_change,0,0,3,,,,,,,,,2,64,127,,
22140,note_on,0,0,4,,,,,,,,,3,,,37,101
22140,note_on,0,0,4,,,,,,,,,3,,,49,101
22140,note_on,30,0,3,,,,,,,,,2,,,48,0
22140,note_on,0,0,1,,,,,,,,,0,,,72,0
22140,note_on,120,0,4,,,,,,,,,3,,,36,0
22179,note_on,39,0,3,,,,,,,,,2,,,53,75
22179,note_on,0,0,3,,,,,,,,,2,,,56,75
22179,note_on,40,0,2,,,,,,,,,1,,,61,62
22219,note_on,0,0,3,,,,,,,,,2,,,53,0
22219,note_on,40,0,2,,,,,,,,,1,,,61,0
22219,note_on,40,0,3,,,,,,,,,2,,,56,0
22219,note_on,0,0,2,,,,,,,,,1,,,61,62
22220,note_on,1,0,3,,,,,,,,,2,,,53,75
22220,note_on,0,0,3,,,,,,,,,2,,,56,75
22259,note_on,40,0,2,,,,,,,,,1,,,61,0
22260,note_on,0,0,4,,,,,,,,,3,,,49,101
22260,note_on,0,0,1,,,,,,,,,0,,,77,127
22260,note_on,0,0,1,,,,,,,,,0,,,73,127
22260,note_on,120,0,1,,,,,,,,,0,,,77,0
22260,note_on,0,0,1,,,,,,,,,0,,,73,0
22260,note_on,0,0,1,,,,,,,,,0,,,68,127
22260,note_on,0,0,1,,,,,,,,,0,,,68,0
22260,note_on,0,0,3,,,,,,,,,2,,,53,0
22260,note_on,0,0,1,,,,,,,,,0,,,65,0
22260,note_on,0,0,4,,,,,,,,,3,,,37,0
22260,note_on,120,0,4,,,,,,,,,3,,,49,0
22260,note_on,0,0,4,,,,,,,,,3,,,37,101
22260,note_on,40,0,3,,,,,,,,,2,,,56,0
22260,note_on,0,0,1,,,,,,,,,0,,,65,127
22299,note_on,39,0,3,,,,,,,,,2,,,53,75
22299,note_on,0,0,3,,,,,,,,,2,,,56,75
22299,note_on,40,0,2,,,,,,,,,1,,,61,62
22339,note_on,40,0,2,,,,,,,,,1,,,61,0
22339,note_on,0,0,3,,,,,,,,,2,,,53,0
22339,note_on,40,0,3,,,,,,,,,2,,,56,0
22339,note_on,0,0,2,,,,,,,,,1,,,61,62
22340,note_on,1,0,3,,,,,,,,,2,,,53,75
22340,note_on,0,0,3,,,,,,,,,2,,,56,75
22379,control_change,0,0,2,,,,,,,,,1,64,127,,
22379,note_on,40,0,2,,,,,,,,,1,,,61,0
22380,note_on,0,0,1,,,,,,,,,0,,,82,127
22380,note_on,0,0,1,,,,,,,,,0,,,73,127
22380,note_on,0,0,1,,,,,,,,,0,,,73,0
22380,note_on,0,0,1,,,,,,,,,0,,,70,127
22380,note_on,0,0,1,,,,,,,,,0,,,68,0
22380,note_on,0,0,1,,,,,,,,,0,,,65,0
22380,note_on,0,0,4,,,,,,,,,3,,,37,0
22380,note_on,120,0,1,,,,,,,,,0,,,77,0
22380,note_on,0,0,3,,,,,,,,,2,,,53,0
22380,note_on,40,0,3,,,,,,,,,2,,,56,0
22380,note_on,120,0,4,,,,,,,,,3,,,49,0
22380,note_on,0,0,4,,,,,,,,,3,,,49,101
22380,note_on,0,0,4,,,,,,,,,3,,,46,101
22380,note_on,0,0,4,,,,,,,,,3,,,37,101
22380,control_change,0,0,3,,,,,,,,,2,64,127,,
22380,note_on,0,0,1,,,,,,,,,0,,,77,127
22419,note_on,40,0,2,,,,,,,,,1,,,61,62
22419,note_on,0,0,3,,,,,,,,,2,,,58,75
22419,note_on,39,0,3,,,,,,,,,2,,,53,75
22419,note_on,0,0,2,,,,,,,,,1,,,65,62
22459,note_on,40,0,3,,,,,,,,,2,,,58,0
22459,note_on,0,0,3,,,,,,,,,2,,,53,0
22459,note_on,0,0,2,,,,,,,,,1,,,65,62
22459,note_on,0,0,2,,,,,,,,,1,,,61,62
22459,note_on,0,0,2,,,,,,,,,1,,,61,0
22459,note_on,40,0,2,,,,,,,,,1,,,65,0
22460,note_on,0,0,3,,,,,,,,,2,,,58,75
22460,note_on,1,0,3,,,,,,,,,2,,,53,75
22499,note_on,40,0,2,,,,,,,,,1,,,65,0
22499,note_on,0,0,2,,,,,,,,,1,,,61,0
22500,note_on,0,0,4,,,,,,,,,3,,,46,101
22500,note_on,0,0,1,,,,,,,,,0,,,70,0
22500,note_on,120,0,1,,,,,,,,,0,,,82,0
22500,note_on,0,0,4,,,,,,,,,3,,,46,0
22500,note_on,0,0,4,,,,,,,,,3,,,37,101
22500,note_on,0,0,1,,,,,,,,,0,,,82,127
22500,note_on,0,0,4,,,,,,,,,3,,,37,0
22500,note_on,0,0,1,,,,,,,,,0,,,70,127
22500,note_on,0,0,4,,,,,,,,,3,,,49,101
22500,note_on,0,0,3,,,,,,,,,2,,,53,0
22500,note_on,0,0,1,,,,,,,,,0,,,77,0
22500,note_on,120,0,4,,,,,,,,,3,,,49,0
22500,note_on,0,0,1,,,,,,,,,0,,,77,127
22500,note_on,0,0,1,,,,,,,,,0,,,73,127
22500,note_on,0,0,1,,,,,,,,,0,,,73,0
22500,note_on,40,0,3,,,,,,,,,2,,,58,0
22539,note_on,0,0,2,,,,,,,,,1,,,65,62
22539,note_on,39,0,3,,,,,,,,,2,,,53,75
22539,note_on,40,0,2,,,,,,,,,1,,,61,62
22539,note_on,0,0,3,,,,,,,,,2,,,58,75
22579,note_on,40,0,2,,,,,,,,,1,,,65,0
22579,note_on,0,0,2,,,,,,,,,1,,,65,62
22579,note_on,0,0,2,,,,,,,,,1,,,61,62
22579,note_on,0,0,2,,,,,,,,,1,,,61,0
22579,note_on,40,0,3,,,,,,,,,2,,,58,0
22579,note_on,0,0,3,,,,,,,,,2,,,53,0
22580,note_on,0,0,3,,,,,,,,,2,,,58,75
22580,note_on,1,0,3,,,,,,,,,2,,,53,75
22619,note_on,0,0,2,,,,,,,,,1,,,61,0
22619,note_on,40,0,2,,,,,,,,,1,,,65,0
22620,note_on,0,0,1,,,,,,,,,0,,,73,0
22620,note_on,0,0,1,,,,,,,,,0,,,72,88
22620,note_on,0,0,1,,,,,,,,,0,,,70,0
22620,note_on,0,0,1,,,,,,,,,0,,,77,0
22620,note_on,40,0,3,,,,,,,,,2,,,58,0
22620,note_on,0,0,1,,,,,,,,,0,,,79,88
22620,note_on,0,0,1,,,,,,,,,0,,,76,88
22620,note_on,0,0,1,,,,,,,,,0,,,84,88
22620,note_on,0,0,4,,,,,,,,,3,,,36,75
22620,note_on,0,0,4,,,,,,,,,3,,,37,0
22620,note_on,120,0,4,,,,,,,,,3,,,49,0
22620,note_on,0,0,4,,,,,,,,,3,,,40,75
22620,note_on,0,0,4,,,,,,,,,3,,,43,75
22620,note_on,0,0,4,,,,,,,,,3,,,46,0
22620,note_on,0,0,4,,,,,,,,,3,,,48,75
22620,note_on,120,0,1,,,,,,,,,0,,,82,0
22620,note_on,0,0,3,,,,,,,,,2,,,53,0
22659,note_on,0,0,2,,,,,,,,,1,,,64,62
22659,note_on,0,0,2,,,,,,,,,1,,,67,62
22659,note_on,0,0,3,,,,,,,,,2,,,60,62
22659,note_on,0,0,3,,,,,,,,,2,,,52,62
22659,control_change,40,0,2,,,,,,,,,1,64,127,,
22659,note_on,0,0,3,,,,,,,,,2,,,55,62
22659,control_change,39,0,3,,,,,,,,,2,64,127,,
22699,note_on,0,0,2,,,,,,,,,1,,,64,0
22699,note_on,0,0,3,,,,,,,,,2,,,52,0
22699,note_on,0,0,3,,,,,,,,,2,,,55,0
22699,note_on,0,0,2,,,,,,,,,1,,,64,62
22699,note_on,0,0,2,,,,,,,,,1,,,67,62
22699,note_on,40,0,3,,,,,,,,,2,,,60,0
22699,note_on,40,0,2,,,,,,,,,1,,,67,0
22700,note_on,0,0,3,,,,,,,,,2,,,60,62
22700,note_on,0,0,3,,,,,,,,,2,,,55,62
22700,note_on,1,0,3,,,,,,,,,2,,,52,62
22739,note_on,0,0,2,,,,,,,,,1,,,64,0
22739,note_on,0,0,2,,,,,,,,,1,,,64,62
22739,note_on,0,0,2,,,,,,,,,1,,,67,62
22739,note_on,40,0,2,,,,,,,,,1,,,67,0
22740,note_on,0,0,3,,,,,,,,,2,,,60,62
22740,note_on,0,0,3,,,,,,,,,2,,,55,0
22740,note_on,0,0,3,,,,,,,,,2,,,52,62
22740,note_on,0,0,3,,,,,,,,,2,,,52,0
22740,note_on,40,0,3,,,,,,,,,2,,,60,0
22740,note_on,0,0,3,,,,,,,,,2,,,55,62
22779,note_on,40,0,2,,,,,,,,,1,,,67,0
22779,note_on,39,0,3,,,,,,,,,2,,,52,62
22779,note_on,0,0,2,,,,,,,,,1,,,64,62
22779,note_on,0,0,3,,,,,,,,,2,,,60,62
22779,note_on,0,0,2,,,,,,,,,1,,,64,0
22779,note_on,0,0,3,,,,,,,,,2,,,55,62
22779,note_on,0,0,2,,,,,,,,,1,,,67,62
22780,note_on,0,0,3,,,,,,,,,2,,,52,0
22780,note_on,1,0,3,,,,,,,,,2,,,60,0
22780,note_on,0,0,3,,,,,,,,,2,,,55,0
22819,note_on,0,0,3,,,,,,,,,2,,,60,0
22819,note_on,0,0,3,,,,,,,,,2,,,55,0
22819,note_on,40,0,2,,,,,,,,,1,,,67,0
22819,note_on,39,0,3,,,,,,,,,2,,,52,0
22819,note_on,0,0,2,,,,,,,,,1,,,64,62
22819,note_on,0,0,2,,,,,,,,,1,,,64,0
22819,note_on,0,0,2,,,,,,,,,1,,,67,62
22819,control_change,0,0,2,,,,,,,,,1,64,0,,
22820,note_on,0,0,3,,,,,,,,,2,,,60,62
22820,note_on,0,0,3,,,,,,,,,2,,,55,62
22820,note_on,0,0,3,,,,,,,,,2,,,52,62
22820,control_change,1,0,3,,,,,,,,,2,64,0,,
22859,note_on,40,0,2,,,,,,,,,1,,,67,0
22859,note_on,0,0,2,,,,,,,,,1,,,64,0
22860,note_on,0,0,1,,,,,,,,,0,,,72,0
22860,note_on,0,0,1,,,,,,,,,0,,,85,114
22860,note_on,0,0,4,,,,,,,,,3,,,33,75
22860,note_on,0,0,1,,,,,,,,,0,,,79,114
22860,note_on,0,0,1,,,,,,,,,0,,,79,0
22860,note_on,0,0,1,,,,,,,,,0,,,76,114
22860,note_on,40,0,3,,,,,,,,,2,,,60,0
22860,note_on,0,0,3,,,,,,,,,2,,,52,0
22860,note_on,240,0,4,,,,,,,,,3,,,48,0
22860,note_on,0,0,3,,,,,,,,,2,,,55,0
22860,note_on,0,0,4,,,,,,,,,3,,,36,0
22860,note_on,0,0,1,,,,,,,,,0,,,73,114
22860,note_on,0,0,4,,,,,,,,,3,,,45,75
22860,note_on,0,0,4,,,,,,,,,3,,,43,75
22860,note_on,0,0,4,,,,,,,,,3,,,43,0
22860,note_on,240,0,1,,,,,,,,,0,,,84,0
22860,note_on,0,0,1,,,,,,,,,0,,,76,0
22860,note_on,0,0,4,,,,,,,,,3,,,40,75
22860,note_on,0,0,4,,,,,,,,,3,,,40,0
22899,control_change,39,0,3,,,,,,,,,2,64,127,,
22899,control_change,40,0,2,,,,,,,,,1,64,127,,
22899,note_on,0,0,2,,,,,,,,,1,,,64,62
22899,note_on,0,0,3,,,,,,,,,2,,,52,62
22899,note_on,0,0,3,,,,,,,,,2,,,61,62
22899,note_on,0,0,3,,,,,,,,,2,,,55,62
22899,note_on,0,0,2,,,,,,,,,1,,,67,62
22939,note_on,0,0,2,,,,,,,,,1,,,64,0
22939,note_on,40,0,2,,,,,,,,,1,,,67,0
22939,note_on,0,0,2,,,,,,,,,1,,,64,62
22939,note_on,40,0,3,,,,,,,,,2,,,61,0
22939,note_on,0,0,2,,,,,,,,,1,,,67,62
22939,note_on,0,0,3,,,,,,,,,2,,,55,0
22939,note_on,0,0,3,,,,,,,,,2,,,52,0
22940,note_on,1,0,3,,,,,,,,,2,,,52,62
22940,note_on,0,0,3,,,,,,,,,2,,,55,62
22940,note_on,0,0,3,,,,,,,,,2,,,61,62
22979,note_on,40,0,2,,,,,,,,,1,,,67,0
22979,note_on,0,0,2,,,,,,,,,1,,,67,62
22979,note_on,0,0,2,,,,,,,,,1,,,64,62
22979,note_on,0,0,2,,,,,,,,,1,,,64,0
22980,note_on,40,0,3,,,,,,,,,2,,,61,0
22980,note_on,0,0,3,,,,,,,,,2,,,61,62
22980,note_on,0,0,3,,,,,,,,,2,,,52,0
22980,note_on,0,0,3,,,,,,,,,2,,,55,62
22980,note_on,0,0,3,,,,,,,,,2,,,55,0
22980,note_on,0,0,3,,,,,,,,,2,,,52,62
23019,control_change,39,0,3,,,,,,,,,2,64,0,,
23019,control_change,0,0,2,,,,,,,,,1,64,0,,
23019,note_on,0,0,3,,,,,,,,,2,,,61,62
23019,note_on,0,0,3,,,,,,,,,2,,,55,62
23019,note_on,0,0,3,,,,,,,,,2,,,52,62
23019,note_on,0,0,2,,,,,,,,,1,,,64,62
23019,note_on,0,0,2,,,,,,,,,1,,,67,62
23019,note_on,40,0,2,,,,,,,,,1,,,67,0
23019,note_on,0,0,2,,,,,,,,,1,,,64,0
23020,note_on,0,0,3,,,,,,,,,2,,,52,0
23020,note_on,0,0,3,,,,,,,,,2,,,55,0
23020,note_on,1,0,3,,,,,,,,,2,,,61,0
23040,note_on,0,0,1,,,,,,,,,0,,,79,0
23040,note_on,0,0,1,,,,,,,,,0,,,76,88
23040,note_on,0,0,1,,,,,,,,,0,,,76,0
23040,note_on,0,0,1,,,,,,,,,0,,,73,88
23040,note_on,0,0,1,,,,,,,,,0,,,73,0
23040,note_on,0,0,4,,,,,,,,,3,,,43,75
23040,note_on,180,0,1,,,,,,,,,0,,,85,0
23040,note_on,0,0,4,,,,,,,,,3,,,33,0
23040,note_on,0,0,4,,,,,,,,,3,,,33,75
23040,note_on,0,0,4,,,,,,,,,3,,,43,0
23040,note_on,0,0,1,,,,,,,,,0,,,79,88
23040,note_on,0,0,4,,,,,,,,,3,,,40,0
23040,note_on,0,0,4,,,,,,,,,3,,,40,75
23040,note_on,180,0,4,,,,,,,,,3,,,45,0
23040,note_on,0,0,1,,,,,,,,,0,,,85,88
23040,note_on,0,0,4,,,,,,,,,3,,,45,75
23059,note_on,40,0,2,,,,,,,,,1,,,67,0
23059,note_on,0,0,2,,,,,,,,,1,,,64,0
23059,note_on,39,0,3,,,,,,,,,2,,,52,0
23059,note_on,0,0,3,,,,,,,,,2,,,55,0
23059,note_on,0,0,3,,,,,,,,,2,,,61,0
23100,note_on,0,0,1,,,,,,,,,0,,,76,0
23100,note_on,0,0,4,,,,,,,,,3,,,34,75
23100,note_on,0,0,4,,,,,,,,,3,,,38,75
23100,note_on,0,0,4,,,,,,,,,3,,,40,0
23100,note_on,0,0,4,,,,,,,,,3,,,41,75
23100,note_on,0,0,4,,,,,,,,,3,,,43,0
23100,note_on,0,0,1,,,,,,,,,0,,,74,114
23100,note_on,0,0,1,,,,,,,,,0,,,73,0
23100,note_on,0,0,4,,,,,,,,,3,,,46,75
23100,note_on,60,0,1,,,,,,,,,0,,,85,0
23100,note_on,60,0,4,,,,,,,,,3,,,45,0
23100,note_on,0,0,1,,,,,,,,,0,,,86,114
23100,note_on,0,0,4,,,,,,,,,3,,,33,0
23100,note_on,0,0,1,,,,,,,,,0,,,82,114
23100,note_on,0,0,1,,,,,,,,,0,,,79,0
23100,note_on,0,0,1,,,,,,,,,0,,,77,114
23139,note_on,0,0,3,,,,,,,,,2,,,62,62
23139,control_change,80,0,2,,,,,,,,,1,64,127,,
23139,control_change,80,0,3,,,,,,,,,2,64,127,,
23139,note_on,0,0,2,,,,,,,,,1,,,70,62
23139,note_on,0,0,2,,,,,,,,,1,,,65,62
23139,note_on,0,0,3,,,,,,,,,2,,,53,62
23139,note_on,0,0,3,,,,,,,,,2,,,58,62
23179,note_on,40,0,3,,,,,,,,,2,,,62,0
23179,note_on,40,0,2,,,,,,,,,1,,,70,0
23179,note_on,0,0,2,,,,,,,,,1,,,70,62
23179,note_on,0,0,2,,,,,,,,,1,,,65,62
23179,note_on,0,0,2,,,,,,,,,1,,,65,0
23179,note_on,0,0,3,,,,,,,,,2,,,53,0
23179,note_on,0,0,3,,,,,,,,,2,,,58,0
23180,note_on,1,0,3,,,,,,,,,2,,,53,62
23180,note_on,0,0,3,,,,,,,,,2,,,62,62
23180,note_on,0,0,3,,,,,,,,,2,,,58,62
23219,note_on,0,0,2,,,,,,,,,1,,,70,62
23219,note_on,0,0,2,,,,,,,,,1,,,65,0
23219,note_on,40,0,2,,,,,,,,,1,,,70,0
23219,note_on,0,0,2,,,,,,,,,1,,,65,62
23220,note_on,0,0,3,,,,,,,,,2,,,53,0
23220,note_on,0,0,3,,,,,,,,,2,,,53,62
23220,note_on,0,0,3,,,,,,,,,2,,,58,62
23220,note_on,0,0,3,,,,,,,,,2,,,62,62
23220,note_on,0,0,3,,,,,,,,,2,,,58,0
23220,note_on,40,0,3,,,,,,,,,2,,,62,0
23259,note_on,0,0,2,,,,,,,,,1,,,65,62
23259,note_on,40,0,2,,,,,,,,,1,,,70,0
23259,note_on,0,0,2,,,,,,,,,1,,,65,0
23259,control_change,39,0,3,,,,,,,,,2,64,0,,
23259,note_on,0,0,3,,,,,,,,,2,,,53,62
23259,control_change,0,0,2,,,,,,,,,1,64,0,,
23259,note_on,0,0,3,,,,,,,,,2,,,62,62
23259,note_on,0,0,3,,,,,,,,,2,,,58,62
23259,note_on,0,0,2,,,,,,,,,1,,,70,62
23260,note_on,0,0,3,,,,,,,,,2,,,53,0
23260,note_on,0,0,3,,,,,,,,,2,,,58,0
23260,note_on,1,0,3,,,,,,,,,2,,,62,0
23280,note_on,180,0,1,,,,,,,,,0,,,86,0
23280,note_on,180,0,4,,,,,,,,,3,,,46,0
23280,note_on,0,0,4,,,,,,,,,3,,,34,0
23280,note_on,0,0,4,,,,,,,,,3,,,34,75
23280,note_on,0,0,4,,,,,,,,,3,,,38,0
23280,note_on,0,0,4,,,,,,,,,3,,,38,75
23280,note_on,0,0,4,,,,,,,,,3,,,41,0
23280,note_on,0,0,4,,,,,,,,,3,,,41,75
23280,note_on,0,0,4,,,,,,,,,3,,,46,75
23280,note_on,0,0,1,,,,,,,,,0,,,77,0
23280,note_on,0,0,1,,,,,,,,,0,,,74,0
23280,note_on,0,0,1,,,,,,,,,0,,,82,0
23280,note_on,0,0,1,,,,,,,,,0,,,82,88
23280,note_on,0,0,1,,,,,,,,,0,,,86,88
23280,note_on,0,0,1,,,,,,,,,0,,,74,88
23280,note_on,0,0,1,,,,,,,,,0,,,77,88
23299,note_on,0,0,3,,,,,,,,,2,,,58,0
23299,note_on,0,0,3,,,,,,,,,2,,,62,0
23299,note_on,0,0,2,,,,,,,,,1,,,65,0
23299,note_on,40,0,2,,,,,,,,,1,,,70,0
23299,note_on,39,0,3,,,,,,,,,2,,,53,0
23340,note_on,0,0,1,,,,,,,,,0,,,82,0
23340,note_on,0,0,1,,,,,,,,,0,,,76,114
23340,note_on,0,0,1,,,,,,,,,0,,,84,114
23340,note_on,0,0,1,,,,,,,,,0,,,88,114
23340,note_on,0,0,1,,,,,,,,,0,,,77,0
23340,note_on,0,0,4,,,,,,,,,3,,,41,0
23340,note_on,0,0,1,,,,,,,,,0,,,79,114
23340,note_on,0,0,1,,,,,,,,,0,,,74,0
23340,note_on,0,0,4,,,,,,,,,3,,,40,75
23340,note_on,60,0,4,,,,,,,,,3,,,46,0
23340,note_on,60,0,1,,,,,,,,,0,,,86,0
23340,note_on,0,0,4,,,,,,,,,3,,,34,75
23340,note_on,0,0,4,,,,,,,,,3,,,34,0
23340,note_on,0,0,4,,,,,,,,,3,,,46,75
23340,note_on,0,0,4,,,,,,,,,3,,,43,75
23340,note_on,0,0,4,,,,,,,,,3,,,38,0
23379,control_change,80,0,2,,,,,,,,,1,64,127,,
23379,note_on,0,0,3,,,,,,,,,2,,,64,62
23379,note_on,0,0,3,,,,,,,,,2,,,60,62
23379,control_change,80,0,3,,,,,,,,,2,64,127,,
23379,note_on,0,0,2,,,,,,,,,1,,,67,62
23379,note_on,0,0,2,,,,,,,,,1,,,72,62
23379,note_on,0,0,3,,,,,,,,,2,,,55,62
23419,note_on,0,0,3,,,,,,,,,2,,,55,0
23419,note_on,40,0,3,,,,,,,,,2,,,64,0
23419,note_on,0,0,3,,,,,,,,,2,,,60,0
23419,note_on,0,0,2,,,,,,,,,1,,,67,0
23419,note_on,0,0,2,,,,,,,,,1,,,67,62
23419,note_on,40,0,2,,,,,,,,,1,,,72,0
23419,note_on,0,0,2,,,,,,,,,1,,,72,62
23420,note_on,0,0,3,,,,,,,,,2,,,60,62
23420,note_on,0,0,3,,,,,,,,,2,,,64,62
23420,note_on,1,0,3,,,,,,,,,2,,,55,62
23459,note_on,0,0,2,,,,,,,,,1,,,67,0
23459,note_on,0,0,2,,,,,,,,,1,,,72,62
23459,note_on,40,0,2,,,,,,,,,1,,,72,0
23459,note_on,0,0,2,,,,,,,,,1,,,67,62
23460,note_on,0,0,3,,,,,,,,,2,,,60,62
23460,note_on,0,0,3,,,,,,,,,2,,,64,62
23460,note_on,0,0,3,,,,,,,,,2,,,55,0
23460,note_on,0,0,3,,,,,,,,,2,,,60,0
23460,note_on,0,0,3,,,,,,,,,2,,,55,62
23460,note_on,40,0,3,,,,,,,,,2,,,64,0
23499,note_on,40,0,2,,,,,,,,,1,,,72,0
23499,note_on,0,0,2,,,,,,,,,1,,,67,62
23499,note_on,0,0,2,,,,,,,,,1,,,67,0
23499,control_change,0,0,2,,,,,,,,,1,64,0,,
23499,control_change,39,0,3,,,,,,,,,2,64,0,,
23499,note_on,0,0,3,,,,,,,,,2,,,55,62
23499,note_on,0,0,2,,,,,,,,,1,,,72,62
23499,note_on,0,0,3,,,,,,,,,2,,,64,62
23499,note_on,0,0,3,,,,,,,,,2,,,60,62
23500,note_on,1,0,3,,,,,,,,,2,,,64,0
23500,note_on,0,0,3,,,,,,,,,2,,,55,0
23500,note_on,0,0,3,,,,,,,,,2,,,60,0
23520,note_on,0,0,1,,,,,,,,,0,,,84,0
23520,note_on,0,0,4,,,,,,,,,3,,,34,75
23520,note_on,0,0,4,,,,,,,,,3,,,40,0
23520,note_on,0,0,4,,,,,,,,,3,,,34,0
23520,note_on,180,0,1,,,,,,,,,0,,,88,0
23520,note_on,0,0,4,,,,,,,,,3,,,40,75
23520,note_on,0,0,4,,,,,,,,,3,,,43,0
23520,note_on,0,0,1,,,,,,,,,0,,,84,88
23520,note_on,0,0,1,,,,,,,,,0,,,88,88
23520,note_on,0,0,1,,,,,,,,,0,,,76,0
23520,note_on,0,0,4,,,,,,,,,3,,,43,75
23520,note_on,0,0,1,,,,,,,,,0,,,76,88
23520,note_on,0,0,1,,,,,,,,,0,,,79,88
23520,note_on,180,0,4,,,,,,,,,3,,,46,0
23520,note_on,0,0,1,,,,,,,,,0,,,79,0
23520,note_on,0,0,4,,,,,,,,,3,,,46,75
23539,note_on,40,0,2,,,,,,,,,1,,,72,0
23539,note_on,39,0,3,,,,,,,,,2,,,55,0
23539,note_on,0,0,3,,,,,,,,,2,,,60,0
23539,note_on,0,0,3,,,,,,,,,2,,,64,0
23539,note_on,0,0,2,,,,,,,,,1,,,67,0
23580,note_on,0,0,1,,,,,,,,,0,,,89,114
23580,note_on,0,0,4,,,,,,,,,3,,,34,0
23580,note_on,60,0,1,,,,,,,,,0,,,88,0
23580,note_on,60,0,4,,,,,,,,,3,,,46,0
23580,note_on,0,0,4,,,,,,,,,3,,,45,101
23580,note_on,0,0,4,,,,,,,,,3,,,43,0
23580,note_on,0,0,1,,,,,,,,,0,,,84,0
23580,note_on,0,0,1,,,,,,,,,0,,,81,114
23580,note_on,0,0,4,,,,,,,,,3,,,33,101
23580,note_on,0,0,1,,,,,,,,,0,,,79,0
23580,note_on,0,0,1,,,,,,,,,0,,,84,114
23580,note_on,0,0,4,,,,,,,,,3,,,41,101
23580,note_on,0,0,4,,,,,,,,,3,,,40,0
23580,note_on,0,0,4,,,,,,,,,3,,,36,101
23580,note_on,0,0,1,,,,,,,,,0,,,77,114
23580,note_on,0,0,1,,,,,,,,,0,,,76,0
23619,note_on,80,0,2,,,,,,,,,1,,,69,62
23619,note_on,80,0,3,,,,,,,,,2,,,57,62
23619,note_on,0,0,2,,,,,,,,,1,,,72,62
23619,note_on,0,0,3,,,,,,,,,2,,,65,62
23619,note_on,0,0,3,,,,,,,,,2,,,60,62
23659,note_on,0,0,3,,,,,,,,,2,,,60,0
23659,note_on,0,0,3,,,,,,,,,2,,,57,0
23659,note_on,40,0,3,,,,,,,,,2,,,65,0
23659,note_on,40,0,2,,,,,,,,,1,,,72,0
23659,note_on,0,0,2,,,,,,,,,1,,,72,62
23659,note_on,0,0,2,,,,,,,,,1,,,69,62
23659,note_on,0,0,2,,,,,,,,,1,,,69,0
23660,note_on,1,0,3,,,,,,,,,2,,,57,62
23660,note_on,0,0,3,,,,,,,,,2,,,65,62
23660,note_on,0,0,3,,,,,,,,,2,,,60,62
23699,note_on,40,0,2,,,,,,,,,1,,,72,0
23699,note_on,0,0,2,,,,,,,,,1,,,69,0
23700,note_on,0,0,4,,,,,,,,,3,,,29,101
23700,note_on,120,0,1,,,,,,,,,0,,,89,0
23700,note_on,0,0,4,,,,,,,,,3,,,33,0
23700,note_on,0,0,4,,,,,,,,,3,,,41,0
23700,note_on,0,0,4,,,,,,,,,3,,,36,0
23700,note_on,0,0,4,,,,,,,,,3,,,41,101
23700,note_on,0,0,4,,,,,,,,,3,,,33,101
23700,note_on,0,0,3,,,,,,,,,2,,,60,0
23700,note_on,40,0,3,,,,,,,,,2,,,65,0
23700,note_on,0,0,4,,,,,,,,,3,,,36,101
23700,note_on,0,0,3,,,,,,,,,2,,,57,0
23700,note_on,120,0,4,,,,,,,,,3,,,45,0
23700,note_on,0,0,1,,,,,,,,,0,,,84,0
23700,note_on,0,0,1,,,,,,,,,0,,,81,0
23700,note_on,0,0,1,,,,,,,,,0,,,77,114
23700,note_on,0,0,1,,,,,,,,,0,,,77,0
23700,note_on,0,0,1,,,,,,,,,0,,,72,114
23700,note_on,0,0,1,,,,,,,,,0,,,69,114
23700,note_on,0,0,1,,,,,,,,,0,,,65,114
23739,note_on,40,0,2,,,,,,,,,1,,,57,62
23739,note_on,39,0,3,,,,,,,,,2,,,48,62
23739,note_on,0,0,3,,,,,,,,,2,,,53,62
23739,note_on,0,0,2,,,,,,,,,1,,,60,62
23779,note_on,40,0,3,,,,,,,,,2,,,53,0
23779,note_on,40,0,2,,,,,,,,,1,,,60,0
23779,note_on,0,0,2,,,,,,,,,1,,,57,0
23779,note_on,0,0,2,,,,,,,,,1,,,57,62
23779,note_on,0,0,2,,,,,,,,,1,,,60,62
23779,note_on,0,0,3,,,,,,,,,2,,,48,0
23780,note_on,0,0,3,,,,,,,,,2,,,53,62
23780,note_on,1,0,3,,,,,,,,,2,,,48,62
23819,note_on,0,0,2,,,,,,,,,1,,,57,0
23819,note_on,40,0,2,,,,,,,,,1,,,60,0
23820,note_on,120,0,1,,,,,,,,,0,,,77,0
23820,note_on,0,0,4,,,,,,,,,3,,,38,101
23820,note_on,0,0,4,,,,,,,,,3,,,46,101
23820,note_on,0,0,4,,,,,,,,,3,,,41,101
23820,note_on,0,0,4,,,,,,,,,3,,,36,0
23820,note_on,0,0,4,,,,,,,,,3,,,34,101
23820,note_on,40,0,3,,,,,,,,,2,,,53,0
23820,note_on,0,0,4,,,,,,,,,3,,,33,0
23820,note_on,0,0,4,,,,,,,,,3,,,29,0
23820,note_on,0,0,1,,,,,,,,,0,,,77,114
23820,note_on,120,0,4,,,,,,,,,3,,,41,0
23820,note_on,0,0,1,,,,,,,,,0,,,65,0
23820,note_on,0,0,1,,,,,,,,,0,,,69,0
23820,note_on,0,0,1,,,,,,,,,0,,,72,0
23820,note_on,0,0,1,,,,,,,,,0,,,74,114
23820,note_on,0,0,1,,,,,,,,,0,,,82,114
23820,note_on,0,0,1,,,,,,,,,0,,,86,114
23820,note_on,0,0,3,,,,,,,,,2,,,48,0
23859,note_on,0,0,3,,,,,,,,,2,,,58,62
23859,note_on,39,0,3,,,,,,,,,2,,,53,62
23859,note_on,40,0,2,,,,,,,,,1,,,62,62
23859,note_on,0,0,2,,,,,,,,,1,,,65,62
23899,note_on,0,0,2,,,,,,,,,1,,,62,0
23899,note_on,0,0,2,,,,,,,,,1,,,62,62
23899,note_on,0,0,2,,,,,,,,,1,,,65,62
23899,note_on,0,0,3,,,,,,,,,2,,,53,0
23899,note_on,40,0,3,,,,,,,,,2,,,58,0
23899,note_on,40,0,2,,,,,,,,,1,,,65,0
23900,note_on,1,0,3,,,,,,,,,2,,,53,62
23900,note_on,0,0,3,,,,,,,,,2,,,58,62
23939,note_on,0,0,2,,,,,,,,,1,,,62,0
23939,note_on,40,0,2,,,,,,,,,1,,,65,0
23940,note_on,0,0,1,,,,,,,,,0,,,77,0
23940,note_on,0,0,1,,,,,,,,,0,,,74,0
23940,note_on,0,0,1,,,,,,,,,0,,,72,114
23940,note_on,0,0,4,,,,,,,,,3,,,36,101
23940,note_on,0,0,4,,,,,,,,,3,,,34,0
23940,note_on,0,0,4,,,,,,,,,3,,,41,0
23940,note_on,0,0,4,,,,,,,,,3,,,38,0
23940,note_on,0,0,4,,,,,,,,,3,,,41,101
23940,note_on,0,0,1,,,,,,,,,0,,,77,114
23940,note_on,0,0,4,,,,,,,,,3,,,48,101
23940,note_on,120,0,1,,,,,,,,,0,,,86,0
23940,note_on,0,0,4,,,,,,,,,3,,,45,101
23940,note_on,0,0,1,,,,,,,,,0,,,84,114
23940,note_on,120,0,4,,,,,,,,,3,,,46,0
23940,note_on,0,0,1,,,,,,,,,0,,,81,114
23940,note_on,40,0,3,,,,,,,,,2,,,58,0
23940,note_on,0,0,1,,,,,,,,,0,,,82,0
23940,note_on,0,0,3,,,,,,,,,2,,,53,0
23979,note_on,40,0,2,,,,,,,,,1,,,60,62
23979,note_on,0,0,2,,,,,,,,,1,,,65,62
23979,note_on,0,0,3,,,,,,,,,2,,,57,62
23979,note_on,39,0,3,,,,,,,,,2,,,53,62
24019,note_on,40,0,3,,,,,,,,,2,,,57,0
24019,note_on,0,0,2,,,,,,,,,1,,,65,62
24019,note_on,0,0,2,,,,,,,,,1,,,60,0
24019,note_on,0,0,3,,,,,,,,,2,,,53,0
24019,note_on,40,0,2,,,,,,,,,1,,,65,0
24019,note_on,0,0,2,,,,,,,,,1,,,60,62
24020,note_on,0,0,3,,,,,,,,,2,,,57,62
24020,note_on,1,0,3,,,,,,,,,2,,,53,62
24059,note_on,0,0,2,,,,,,,,,1,,,60,0
24059,note_on,40,0,2,,,,,,,,,1,,,65,0
24060,note_on,120,0,4,,,,,,,,,3,,,48,0
24060,note_on,0,0,4,,,,,,,,,3,,,37,75
24060,note_on,0,0,1,,,,,,,,,0,,,77,0
24060,note_on,0,0,1,,,,,,,,,0,,,77,88
24060,note_on,0,0,4,,,,,,,,,3,,,49,75
24060,note_on,0,0,4,,,,,,,,,3,,,45,0
24060,note_on,0,0,1,,,,,,,,,0,,,83,88
24060,note_on,120,0,1,,,,,,,,,0,,,84,0
24060,note_on,0,0,4,,,,,,,,,3,,,44,75
24060,note_on,0,0,1,,,,,,,,,0,,,80,88
24060,note_on,0,0,1,,,,,,,,,0,,,72,0
24060,note_on,0,0,3,,,,,,,,,2,,,53,0
24060,note_on,0,0,4,,,,,,,,,3,,,41,75
24060,note_on,0,0,4,,,,,,,,,3,,,41,0
24060,note_on,0,0,4,,,,,,,,,3,,,36,0
24060,note_on,40,0,3,,,,,,,,,2,,,57,0
24060,note_on,0,0,1,,,,,,,,,0,,,71,88
24060,note_on,0,0,1,,,,,,,,,0,,,81,0
24099,note_on,0,0,3,,,,,,,,,2,,,57,62
24099,note_on,0,0,2,,,,,,,,,1,,,65,62
24099,note_on,39,0,3,,,,,,,,,2,,,53,62
24099,note_on,40,0,2,,,,,,,,,1,,,59,62
24139,note_on,40,0,2,,,,,,,,,1,,,65,0
24139,note_on,0,0,3,,,,,,,,,2,,,53,0
24139,note_on,40,0,3,,,,,,,,,2,,,57,0
24139,note_on,0,0,2,,,,,,,,,1,,,59,62
24139,note_on,0,0,2,,,,,,,,,1,,,65,62
24139,note_on,0,0,2,,,,,,,,,1,,,59,0
24140,note_on,0,0,3,,,,,,,,,2,,,57,62
24140,note_on,1,0,3,,,,,,,,,2,,,53,62
24179,note_on,40,0,2,,,,,,,,,1,,,65,0
24179,note_on,0,0,2,,,,,,,,,1,,,59,0
24179,note_on,0,0,2,,,,,,,,,1,,,59,62
24179,note_on,0,0,2,,,,,,,,,1,,,65,62
24180,note_on,0,0,3,,,,,,,,,2,,,57,62
24180,note_on,0,0,3,,,,,,,,,2,,,53,0
24180,note_on,40,0,3,,,,,,,,,2,,,57,0
24180,note_on,0,0,3,,,,,,,,,2,,,53,62
24219,note_on,0,0,2,,,,,,,,,1,,,65,62
24219,note_on,39,0,3,,,,,,,,,2,,,53,62
24219,note_on,0,0,3,,,,,,,,,2,,,57,62
24219,note_on,40,0,2,,,,,,,,,1,,,65,0
24219,note_on,0,0,2,,,,,,,,,1,,,59,0
24219,note_on,0,0,2,,,,,,,,,1,,,59,62
24220,note_on,0,0,3,,,,,,,,,2,,,53,0
24220,note_on,1,0,3,,,,,,,,,2,,,57,0
24240,note_on,0,0,1,,,,,,,,,0,,,77,88
24240,note_on,0,0,4,,,,,,,,,3,,,41,0
24240,note_on,0,0,1,,,,,,,,,0,,,77,0
24240,note_on,0,0,1,,,,,,,,,0,,,80,0
24240,note_on,0,0,1,,,,,,,,,0,,,80,88
24240,note_on,0,0,1,,,,,,,,,0,,,83,88
24240,note_on,0,0,4,,,,,,,,,3,,,49,75
24240,note_on,0,0,4,,,,,,,,,3,,,44,75
24240,note_on,0,0,4,,,,,,,,,3,,,44,0
24240,note_on,0,0,4,,,,,,,,,3,,,41,75
24240,note_on,0,0,1,,,,,,,,,0,,,71,88
24240,note_on,0,0,4,,,,,,,,,3,,,37,75
24240,note_on,0,0,4,,,,,,,,,3,,,37,0
24240,note_on,0,0,1,,,,,,,,,0,,,71,0
24240,note_on,180,0,1,,,,,,,,,0,,,83,0
24240,note_on,180,0,4,,,,,,,,,3,,,49,0
24259,note_on,0,0,2,,,,,,,,,1,,,59,62
24259,note_on,0,0,2,,,,,,,,,1,,,65,62
24259,note_on,0,0,2,,,,,,,,,1,,,59,0
24259,note_on,40,0,2,,,,,,,,,1,,,65,0
24259,note_on,39,0,3,,,,,,,,,2,,,53,0
24259,note_on,0,0,3,,,,,,,,,2,,,57,0
24260,note_on,0,0,3,,,,,,,,,2,,,57,62
24260,note_on,1,0,3,,,,,,,,,2,,,53,62
24299,note_on,40,0,2,,,,,,,,,1,,,65,0
24299,note_on,0,0,2,,,,,,,,,1,,,59,0
24300,note_on,0,0,1,,,,,,,,,0,,,71,0
24300,note_on,0,0,1,,,,,,,,,0,,,77,88
24300,note_on,0,0,1,,,,,,,,,0,,,80,0
24300,note_on,0,0,1,,,,,,,,,0,,,77,0
24300,note_on,0,0,1,,,,,,,,,0,,,72,88
24300,note_on,0,0,4,,,,,,,,,3,,,37,0
24300,note_on,60,0,4,,,,,,,,,3,,,49,0
24300,note_on,0,0,4,,,,,,,,,3,,,48,75
24300,note_on,0,0,4,,,,,,,,,3,,,45,75
24300,note_on,0,0,4,,,,,,,,,3,,,44,0
24300,note_on,0,0,4,,,,,,,,,3,,,41,75
24300,note_on,0,0,4,,,,,,,,,3,,,41,0
24300,note_on,0,0,1,,,,,,,,,0,,,81,88
24300,note_on,0,0,4,,,,,,,,,3,,,36,75
24300,note_on,0,0,3,,,,,,,,,2,,,53,0
24300,note_on,60,0,1,,,,,,,,,0,,,83,0
24300,note_on,0,0,1,,,,,,,,,0,,,84,88
24300,note_on,40,0,3,,,,,,,,,2,,,57,0
24339,note_on,0,0,2,,,,,,,,,1,,,65,62
24339,note_on,40,0,2,,,,,,,,,1,,,60,62
24379,note_on,0,0,2,,,,,,,,,1,,,65,62
24379,note_on,40,0,2,,,,,,,,,1,,,65,0
24379,note_on,0,0,2,,,,,,,,,1,,,60,0
24379,note_on,0,0,2,,,,,,,,,1,,,60,62
24419,note_on,40,0,2,,,,,,,,,1,,,65,0
24419,note_on,0,0,2,,,,,,,,,1,,,60,0
24420,note_on,0,0,4,,,,,,,,,3,,,43,75
24420,note_on,0,0,4,,,,,,,,,3,,,41,0
24420,note_on,0,0,4,,,,,,,,,3,,,40,75
24420,note_on,0,0,4,,,,,,,,,3,,,36,75
24420,note_on,0,0,4,,,,,,,,,3,,,36,0
24420,note_on,120,0,1,,,,,,,,,0,,,84,0
24420,note_on,0,0,1,,,,,,,,,0,,,77,0
24420,note_on,120,0,4,,,,,,,,,3,,,48,0
24420,note_on,0,0,1,,,,,,,,,0,,,76,88
24420,note_on,0,0,4,,,,,,,,,3,,,45,0
24420,note_on,0,0,1,,,,,,,,,0,,,84,88
24420,note_on,0,0,1,,,,,,,,,0,,,81,0
24420,note_on,0,0,1,,,,,,,,,0,,,79,88
24420,note_on,0,0,1,,,,,,,,,0,,,72,0
24420,note_on,0,0,1,,,,,,,,,0,,,72,88
24420,note_on,0,0,4,,,,,,,,,3,,,48,75
24459,note_on,40,0,2,,,,,,,,,1,,,60,62
24459,note_on,0,0,2,,,,,,,,,1,,,64,62
24499,note_on,0,0,2,,,,,,,,,1,,,60,0
24499,note_on,0,0,2,,,,,,,,,1,,,60,62
24499,note_on,40,0,2,,,,,,,,,1,,,64,0
24499,note_on,0,0,2,,,,,,,,,1,,,64,62
24539,note_on,0,0,2,,,,,,,,,1,,,60,0
24539,note_on,0,0,2,,,,,,,,,1,,,60,127
24539,note_on,0,0,2,,,,,,,,,1,,,65,127
24539,note_on,40,0,2,,,,,,,,,1,,,64,0
24540,note_on,0,0,4,,,,,,,,,3,,,33,62
24540,note_on,0,0,4,,,,,,,,,3,,,29,62
24540,note_on,0,0,1,,,,,,,,,0,,,72,0
24540,note_on,0,0,1,,,,,,,,,0,,,57,75
24540,note_on,120,0,1,,,,,,,,,0,,,84,0
24540,control_change,0,0,4,,,,,,,,,3,64,127,,
24540,note_on,0,0,1,,,,,,,,,0,,,79,0
24540,note_on,120,0,4,,,,,,,,,3,,,48,0
24540,note_on,0,0,1,,,,,,,,,0,,,53,75
24540,note_on,240,0,3,,,,,,,,,2,,,41,127
24540,note_on,0,0,4,,,,,,,,,3,,,36,0
24540,note_on,0,0,1,,,,,,,,,0,,,76,0
24540,control_change,0,0,1,,,,,,,,,0,64,127,,
24540,note_on,0,0,4,,,,,,,,,3,,,43,0
24540,note_on,0,0,4,,,,,,,,,3,,,40,0
24540,note_on,0,0,4,,,,,,,,,3,,,36,62
24548,note_on,0,0,1,,,,,,,,,0,,,53,0
24548,note_on,0,0,4,,,,,,,,,3,,,29,0
24548,note_on,8,0,4,,,,,,,,,3,,,36,0
24548,note_on,0,0,4,,,,,,,,,3,,,33,0
24548,note_on,8,0,1,,,,,,,,,0,,,57,0
24579,note_on,31,0,1,,,,,,,,,0,,,65,75
24579,note_on,0,0,1,,,,,,,,,0,,,77,75
24579,note_on,0,0,1,,,,,,,,,0,,,72,75
24579,note_on,31,0,4,,,,,,,,,3,,,41,62
24579,note_on,0,0,1,,,,,,,,,0,,,69,75
24579,note_on,0,0,4,,,,,,,,,3,,,53,62
24579,note_on,0,0,4,,,,,,,,,3,,,48,62
24579,note_on,0,0,4,,,,,,,,,3,,,45,62
24587,note_on,8,0,4,,,,,,,,,3,,,53,0
24587,note_on,8,0,1,,,,,,,,,0,,,77,0
24587,note_on,0,0,1,,,,,,,,,0,,,65,0
24587,note_on,0,0,1,,,,,,,,,0,,,69,0
24587,note_on,0,0,1,,,,,,,,,0,,,72,0
24587,note_on,0,0,4,,,,,,,,,3,,,48,0
24587,note_on,0,0,4,,,,,,,,,3,,,45,0
24587,note_on,0,0,4,,,,,,,,,3,,,41,0
24620,note_on,0,0,1,,,,,,,,,0,,,84,75
24620,note_on,0,0,1,,,,,,,,,0,,,77,75
24620,note_on,0,0,1,,,,,,,,,0,,,81,75
24620,note_on,0,0,1,,,,,,,,,0,,,89,75
24620,control_change,33,0,4,,,,,,,,,3,64,0,,
24620,note_on,0,0,4,,,,,,,,,3,,,57,62
24620,note_on,0,0,4,,,,,,,,,3,,,65,62
24620,note_on,0,0,4,,,,,,,,,3,,,60,62
24620,note_on,0,0,4,,,,,,,,,3,,,53,62
24620,control_change,33,0,1,,,,,,,,,0,64,0,,
24628,note_on,8,0,4,,,,,,,,,3,,,65,0
24628,note_on,8,0,1,,,,,,,,,0,,,89,0
24628,note_on,0,0,4,,,,,,,,,3,,,60,0
24628,note_on,0,0,1,,,,,,,,,0,,,77,0
24628,note_on,0,0,4,,,,,,,,,3,,,53,0
24628,note_on,0,0,1,,,,,,,,,0,,,84,0
24628,note_on,0,0,4,,,,,,,,,3,,,57,0
24628,note_on,0,0,1,,,,,,,,,0,,,81,0
24659,note_on,0,0,2,,,,,,,,,1,,,60,0
24659,note_on,120,0,2,,,,,,,,,1,,,65,0
24659,note_on,0,0,2,,,,,,,,,1,,,69,127
24660,note_on,0,0,4,,,,,,,,,3,,,36,62
24660,note_on,0,0,4,,,,,,,,,3,,,41,62
24660,note_on,0,0,1,,,,,,,,,0,,,65,75
24660,note_on,0,0,1,,,,,,,,,0,,,60,75
24660,note_on,120,0,3,,,,,,,,,2,,,41,0
24660,note_on,0,0,1,,,,,,,,,0,,,57,75
24660,control_change,32,0,1,,,,,,,,,0,64,127,,
24660,control_change,32,0,4,,,,,,,,,3,64,127,,
24660,note_on,0,0,3,,,,,,,,,2,,,45,101
24660,note_on,0,0,4,,,,,,,,,3,,,33,62
24668,note_on,0,0,4,,,,,,,,,3,,,36,0
24668,note_on,0,0,1,,,,,,,,,0,,,57,0
24668,note_on,8,0,1,,,,,,,,,0,,,65,0
24668,note_on,0,0,4,,,,,,,,,3,,,33,0
24668,note_on,0,0,1,,,,,,,,,0,,,60,0
24668,note_on,8,0,4,,,,,,,,,3,,,41,0
24699,note_on,31,0,1,,,,,,,,,0,,,69,75
24699,note_on,0,0,1,,,,,,,,,0,,,77,75
24699,note_on,0,0,4,,,,,,,,,3,,,48,62
24699,note_on,0,0,4,,,,,,,,,3,,,53,62
24699,note_on,0,0,1,,,,,,,,,0,,,72,75
24699,note_on,31,0,4,,,,,,,,,3,,,45,62
24699,note_on,0,0,4,,,,,,,,,3,,,57,62
24699,note_on,0,0,1,,,,,,,,,0,,,81,75
24707,note_on,0,0,1,,,,,,,,,0,,,77,0
24707,note_on,8,0,1,,,,,,,,,0,,,81,0
24707,note_on,0,0,1,,,,,,,,,0,,,72,0
24707,note_on,8,0,4,,,,,,,,,3,,,57,0
24707,note_on,0,0,4,,,,,,,,,3,,,45,0
24707,note_on,0,0,4,,,,,,,,,3,,,48,0
24707,note_on,0,0,1,,,,,,,,,0,,,69,0
24707,note_on,0,0,4,,,,,,,,,3,,,53,0
24740,note_on,0,0,4,,,,,,,,,3,,,57,62
24740,note_on,0,0,4,,,,,,,,,3,,,60,62
24740,note_on,0,0,4,,,,,,,,,3,,,65,62
24740,control_change,33,0,4,,,,,,,,,3,64,0,,
24740,control_change,33,0,1,,,,,,,,,0,64,0,,
24740,note_on,0,0,4,,,,,,,,,3,,,69,62
24740,note_on,0,0,1,,,,,,,,,0,,,93,75
24740,note_on,0,0,1,,,,,,,,,0,,,81,75
24740,note_on,0,0,1,,,,,,,,,0,,,84,75
24740,note_on,0,0,1,,,,,,,,,0,,,89,75
24748,note_on,0,0,1,,,,,,,,,0,,,84,0
24748,note_on,0,0,1,,,,,,,,,0,,,81,0
24748,note_on,0,0,1,,,,,,,,,0,,,89,0
24748,note_on,8,0,4,,,,,,,,,3,,,69,0
24748,note_on,0,0,4,,,,,,,,,3,,,65,0
24748,note_on,8,0,1,,,,,,,,,0,,,93,0
24748,note_on,0,0,4,,,,,,,,,3,,,57,0
24748,note_on,0,0,4,,,,,,,,,3,,,60,0
24749,note_on,0,0,2,,,,,,,,,1,,,58,114
24749,note_on,90,0,2,,,,,,,,,1,,,69,0
24749,note_on,0,0,2,,,,,,,,,1,,,70,114
24750,note_on,0,0,3,,,,,,,,,2,,,34,101
24750,note_on,0,0,3,,,,,,,,,2,,,46,101
24750,note_on,90,0,3,,,,,,,,,2,,,45,0
24779,note_on,0,0,2,,,,,,,,,1,,,60,127
24779,note_on,0,0,2,,,,,,,,,1,,,72,127
24779,note_on,0,0,2,,,,,,,,,1,,,69,127
24779,note_on,0,0,2,,,,,,,,,1,,,58,0
24779,note_on,30,0,2,,,,,,,,,1,,,70,0
24779,note_on,0,0,2,,,,,,,,,1,,,65,127
24780,note_on,0,0,4,,,,,,,,,3,,,41,62
24780,note_on,0,0,3,,,,,,,,,2,,,34,0
24780,control_change,32,0,4,,,,,,,,,3,64,127,,
24780,control_change,32,0,1,,,,,,,,,0,64,127,,
24780,note_on,0,0,3,,,,,,,,,2,,,48,127
24780,note_on,0,0,4,,,,,,,,,3,,,36,62
24780,note_on,30,0,3,,,,,,,,,2,,,46,0
24780,note_on,0,0,4,,,,,,,,,3,,,45,62
24788,note_on,8,0,4,,,,,,,,,3,,,45,0
24788,note_on,0,0,4,,,,,,,,,3,,,41,0
24788,note_on,0,0,4,,,,,,,,,3,,,36,0
24819,note_on,0,0,4,,,,,,,,,3,,,53,62
24819,note_on,0,0,4,,,,,,,,,3,,,57,62
24819,note_on,0,0,4,,,,,,,,,3,,,60,62
24819,note_on,31,0,4,,,,,,,,,3,,,48,62
24819,note_on,0,0,1,,,,,,,,,0,,,81,75
24819,note_on,0,0,1,,,,,,,,,0,,,77,75
24819,note_on,39,0,1,,,,,,,,,0,,,72,75
24819,note_on,0,0,1,,,,,,,,,0,,,84,75
24827,note_on,8,0,1,,,,,,,,,0,,,84,0
24827,note_on,0,0,1,,,,,,,,,0,,,81,0
24827,note_on,0,0,1,,,,,,,,,0,,,72,0
24827,note_on,0,0,1,,,,,,,,,0,,,77,0
24827,note_on,0,0,4,,,,,,,,,3,,,48,0
24827,note_on,0,0,4,,,,,,,,,3,,,53,0
24827,note_on,0,0,4,,,,,,,,,3,,,57,0
24827,note_on,8,0,4,,,,,,,,,3,,,60,0
24860,note_on,0,0,4,,,,,,,,,3,,,72,62
24860,note_on,0,0,4,,,,,,,,,3,,,69,62
24860,note_on,0,0,4,,,,,,,,,3,,,65,62
24860,note_on,0,0,1,,,,,,,,,0,,,93,75
24860,note_on,33,0,1,,,,,,,,,0,,,84,75
24860,note_on,33,0,4,,,,,,,,,3,,,60,62
24860,note_on,0,0,1,,,,,,,,,0,,,89,75
24860,note_on,0,0,1,,,,,,,,,0,,,96,75
24868,note_on,0,0,4,,,,,,,,,3,,,65,0
24868,note_on,0,0,4,,,,,,,,,3,,,60,0
24868,note_on,8,0,4,,,,,,,,,3,,,72,0
24868,note_on,8,0,1,,,,,,,,,0,,,96,0
24868,note_on,0,0,4,,,,,,,,,3,,,69,0
24868,note_on,0,0,1,,,,,,,,,0,,,89,0
24868,note_on,0,0,1,,,,,,,,,0,,,84,0
24868,note_on,0,0,1,,,,,,,,,0,,,93,0
24900,note_on,0,0,1,,,,,,,,,0,,,89,75
24900,note_on,0,0,1,,,,,,,,,0,,,96,75
24900,note_on,0,0,4,,,,,,,,,3,,,72,62
24900,note_on,32,0,4,,,,,,,,,3,,,60,62
24900,note_on,0,0,4,,,,,,,,,3,,,69,62
24900,note_on,0,0,4,,,,,,,,,3,,,65,62
24900,note_on,32,0,1,,,,,,,,,0,,,84,75
24900,note_on,0,0,1,,,,,,,,,0,,,93,75
24908,note_on,0,0,4,,,,,,,,,3,,,60,0
24908,note_on,0,0,1,,,,,,,,,0,,,89,0
24908,note_on,8,0,4,,,,,,,,,3,,,72,0
24908,note_on,0,0,1,,,,,,,,,0,,,84,0
24908,note_on,0,0,4,,,,,,,,,3,,,65,0
24908,note_on,8,0,1,,,,,,,,,0,,,96,0
24908,note_on,0,0,4,,,,,,,,,3,,,69,0
24908,note_on,0,0,1,,,,,,,,,0,,,93,0
24939,note_on,31,0,4,,,,,,,,,3,,,48,62
24939,note_on,31,0,1,,,,,,,,,0,,,72,75
24939,note_on,0,0,1,,,,,,,,,0,,,77,75
24939,note_on,0,0,1,,,,,,,,,0,,,81,75
24939,note_on,0,0,1,,,,,,,,,0,,,84,75
24939,note_on,0,0,4,,,,,,,,,3,,,57,62
24939,note_on,0,0,4,,,,,,,,,3,,,53,62
24939,note_on,0,0,4,,,,,,,,,3,,,60,62
24947,note_on,0,0,4,,,,,,,,,3,,,48,0
24947,note_on,0,0,1,,,,,,,,,0,,,81,0
24947,note_on,0,0,1,,,,,,,,,0,,,77,0
24947,note_on,0,0,1,,,,,,,,,0,,,72,0
24947,note_on,8,0,4,,,,,,,,,3,,,60,0
24947,note_on,0,0,4,,,,,,,,,3,,,53,0
24947,note_on,8,0,1,,,,,,,,,0,,,84,0
24947,note_on,0,0,4,,,,,,,,,3,,,57,0
24980,note_on,0,0,4,,,,,,,,,3,,,41,62
24980,note_on,0,0,4,,,,,,,,,3,,,36,62
24980,control_change,33,0,1,,,,,,,,,0,64,0,,
24980,note_on,0,0,4,,,,,,,,,3,,,45,62
24980,control_change,33,0,4,,,,,,,,,3,64,0,,
24980,note_on,0,0,1,,,,,,,,,0,,,60,75
24980,note_on,0,0,1,,,,,,,,,0,,,65,75
24980,note_on,0,0,1,,,,,,,,,0,,,69,75
24988,note_on,0,0,4,,,,,,,,,3,,,41,0
24988,note_on,8,0,1,,,,,,,,,0,,,69,0
24988,note_on,0,0,1,,,,,,,,,0,,,60,0
24988,note_on,0,0,1,,,,,,,,,0,,,65,0
24988,note_on,0,0,4,,,,,,,,,3,,,36,0
24988,note_on,8,0,4,,,,,,,,,3,,,45,0
24989,note_on,0,0,2,,,,,,,,,1,,,65,0
24989,note_on,210,0,2,,,,,,,,,1,,,72,0
24989,note_on,0,0,2,,,,,,,,,1,,,69,0
24989,note_on,0,0,2,,,,,,,,,1,,,72,114
24989,note_on,0,0,2,,,,,,,,,1,,,60,0
24990,note_on,0,0,3,,,,,,,,,2,,,48,101
24990,note_on,210,0,3,,,,,,,,,2,,,48,0
25019,note_on,30,0,2,,,,,,,,,1,,,72,0
25019,note_on,0,0,2,,,,,,,,,1,,,72,127
25020,note_on,0,0,1,,,,,,,,,0,,,69,75
25020,note_on,0,0,3,,,,,,,,,2,,,48,127
25020,note_on,0,0,1,,,,,,,,,0,,,65,75
25020,control_change,32,0,4,,,,,,,,,3,64,127,,
25020,note_on,30,0,3,,,,,,,,,2,,,48,0
25020,note_on,0,0,4,,,,,,,,,3,,,36,62
25020,control_change,32,0,1,,,,,,,,,0,64,127,,
25020,note_on,0,0,4,,,,,,,,,3,,,41,62
25020,note_on,0,0,4,,,,,,,,,3,,,45,62
25020,note_on,0,0,1,,,,,,,,,0,,,60,75
25028,note_on,8,0,1,,,,,,,,,0,,,69,0
25028,note_on,0,0,4,,,,,,,,,3,,,41,0
25028,note_on,0,0,1,,,,,,,,,0,,,60,0
25028,note_on,8,0,4,,,,,,,,,3,,,45,0
25028,note_on,0,0,1,,,,,,,,,0,,,65,0
25028,note_on,0,0,4,,,,,,,,,3,,,36,0
25059,note_on,0,0,1,,,,,,,,,0,,,81,75
25059,note_on,0,0,4,,,,,,,,,3,,,53,62
25059,note_on,0,0,4,,,,,,,,,3,,,57,62
25059,note_on,0,0,4,,,,,,,,,3,,,60,62
25059,note_on,0,0,1,,,,,,,,,0,,,84,75
25059,note_on,31,0,1,,,,,,,,,0,,,72,75
25059,note_on,0,0,1,,,,,,,,,0,,,77,75
25059,note_on,31,0,4,,,,,,,,,3,,,48,62
25067,note_on,0,0,1,,,,,,,,,0,,,72,0
25067,note_on,0,0,1,,,,,,,,,0,,,77,0
25067,note_on,0,0,1,,,,,,,,,0,,,81,0
25067,note_on,0,0,4,,,,,,,,,3,,,57,0
25067,note_on,0,0,4,,,,,,,,,3,,,53,0
25067,note_on,0,0,4,,,,,,,,,3,,,48,0
25067,note_on,8,0,1,,,,,,,,,0,,,84,0
25067,note_on,8,0,4,,,,,,,,,3,,,60,0
25100,note_on,0,0,1,,,,,,,,,0,,,84,75
25100,note_on,0,0,1,,,,,,,,,0,,,81,75
25100,note_on,0,0,1,,,,,,,,,0,,,77,75
25100,note_on,0,0,4,,,,,,,,,3,,,69,62
25100,note_on,0,0,1,,,,,,,,,0,,,72,75
25100,note_on,0,0,4,,,,,,,,,3,,,65,62
25100,note_on,0,0,4,,,,,,,,,3,,,60,62
25100,control_change,33,0,4,,,,,,,,,3,64,0,,
25100,control_change,33,0,1,,,,,,,,,0,64,0,,
25100,note_on,0,0,4,,,,,,,,,3,,,72,62
25108,note_on,8,0,4,,,,,,,,,3,,,72,0
25108,note_on,0,0,4,,,,,,,,,3,,,69,0
25108,note_on,0,0,1,,,,,,,,,0,,,77,0
25108,note_on,0,0,1,,,,,,,,,0,,,81,0
25108,note_on,0,0,4,,,,,,,,,3,,,65,0
25108,note_on,0,0,4,,,,,,,,,3,,,60,0
25108,note_on,0,0,1,,,,,,,,,0,,,72,0
25108,note_on,8,0,1,,,,,,,,,0,,,84,0
25139,note_on,120,0,2,,,,,,,,,1,,,72,0
25139,note_on,0,0,2,,,,,,,,,1,,,77,127
25140,note_on,0,0,3,,,,,,,,,2,,,53,127
25140,note_on,0,0,4,,,,,,,,,3,,,45,62
25140,note_on,0,0,4,,,,,,,,,3,,,48,62
25140,control_change,32,0,4,,,,,,,,,3,64,127,,
25140,control_change,32,0,1,,,,,,,,,0,64,127,,
25140,note_on,120,0,3,,,,,,,,,2,,,48,0
25140,note_on,0,0,1,,,,,,,,,0,,,72,75
25140,note_on,0,0,1,,,,,,,,,0,,,69,75
25140,note_on,0,0,1,,,,,,,,,0,,,65,75
25140,note_on,0,0,4,,,,,,,,,3,,,41,62
25148,note_on,8,0,4,,,,,,,,,3,,,48,0
25148,note_on,0,0,4,,,,,,,,,3,,,45,0
25148,note_on,0,0,4,,,,,,,,,3,,,41,0
25148,note_on,0,0,1,,,,,,,,,0,,,69,0
25148,note_on,0,0,1,,,,,,,,,0,,,65,0
25148,note_on,8,0,1,,,,,,,,,0,,,72,0
25179,note_on,0,0,1,,,,,,,,,0,,,89,75
25179,note_on,0,0,1,,,,,,,,,0,,,84,75
25179,note_on,0,0,1,,,,,,,,,0,,,81,75
25179,note_on,31,0,1,,,,,,,,,0,,,77,75
25179,note_on,0,0,4,,,,,,,,,3,,,57,62
25179,note_on,31,0,4,,,,,,,,,3,,,53,62
25179,note_on,0,0,4,,,,,,,,,3,,,60,62
25179,note_on,0,0,4,,,,,,,,,3,,,65,62
25187,note_on,0,0,1,,,,,,,,,0,,,77,0
25187,note_on,0,0,1,,,,,,,,,0,,,81,0
25187,note_on,8,0,1,,,,,,,,,0,,,89,0
25187,note_on,0,0,4,,,,,,,,,3,,,60,0
25187,note_on,0,0,4,,,,,,,,,3,,,57,0
25187,note_on,0,0,1,,,,,,,,,0,,,84,0
25187,note_on,0,0,4,,,,,,,,,3,,,53,0
25187,note_on,8,0,4,,,,,,,,,3,,,65,0
25220,note_on,0,0,4,,,,,,,,,3,,,77,62
25220,control_change,33,0,4,,,,,,,,,3,64,0,,
25220,note_on,0,0,4,,,,,,,,,3,,,72,62
25220,note_on,0,0,1,,,,,,,,,0,,,101,75
25220,note_on,0,0,1,,,,,,,,,0,,,96,75
25220,note_on,0,0,4,,,,,,,,,3,,,69,62
25220,note_on,0,0,4,,,,,,,,,3,,,65,62
25220,note_on,0,0,1,,,,,,,,,0,,,93,75
25220,note_on,0,0,1,,,,,,,,,0,,,89,75
25220,control_change,33,0,1,,,,,,,,,0,64,0,,
25228,note_on,0,0,1,,,,,,,,,0,,,96,0
25228,note_on,0,0,1,,,,,,,,,0,,,93,0
25228,note_on,8,0,4,,,,,,,,,3,,,77,0
25228,note_on,8,0,1,,,,,,,,,0,,,101,0
25228,note_on,0,0,1,,,,,,,,,0,,,89,0
25228,note_on,0,0,4,,,,,,,,,3,,,65,0
25228,note_on,0,0,4,,,,,,,,,3,,,72,0
25228,note_on,0,0,4,,,,,,,,,3,,,69,0
25259,note_on,0,0,2,,,,,,,,,1,,,74,127
25259,note_on,120,0,2,,,,,,,,,1,,,77,0
25260,note_on,0,0,4,,,,,,,,,3,,,41,62
25260,note_on,0,0,1,,,,,,,,,0,,,62,75
25260,note_on,0,0,1,,,,,,,,,0,,,70,75
25260,note_on,0,0,4,,,,,,,,,3,,,38,62
25260,note_on,0,0,4,,,,,,,,,3,,,46,62
25260,note_on,0,0,1,,,,,,,,,0,,,65,75
25260,control_change,32,0,4,,,,,,,,,3,64,127,,
25260,note_on,0,0,3,,,,,,,,,2,,,50,127
25260,control_change,32,0,1,,,,,,,,,0,64,127,,
25260,note_on,120,0,3,,,,,,,,,2,,,53,0
25268,note_on,8,0,4,,,,,,,,,3,,,46,0
25268,note_on,0,0,4,,,,,,,,,3,,,38,0
25268,note_on,0,0,4,,,,,,,,,3,,,41,0
25299,note_on,0,0,4,,,,,,,,,3,,,62,62
25299,note_on,0,0,4,,,,,,,,,3,,,53,62
25299,note_on,39,0,1,,,,,,,,,0,,,74,75
25299,note_on,0,0,4,,,,,,,,,3,,,58,62
25299,note_on,31,0,4,,,,,,,,,3,,,50,62
25299,note_on,0,0,1,,,,,,,,,0,,,77,75
25299,note_on,0,0,1,,,,,,,,,0,,,82,75
25299,note_on,0,0,1,,,,,,,,,0,,,86,75
25300,note_on,1,0,1,,,,,,,,,0,,,70,0
25300,note_on,0,0,1,,,,,,,,,0,,,62,0
25300,note_on,0,0,1,,,,,,,,,0,,,65,0
25307,note_on,8,0,4,,,,,,,,,3,,,62,0
25307,note_on,0,0,4,,,,,,,,,3,,,58,0
25307,note_on,0,0,4,,,,,,,,,3,,,53,0
25307,note_on,0,0,4,,,,,,,,,3,,,50,0
25339,note_on,0,0,1,,,,,,,,,0,,,74,0
25339,note_on,0,0,1,,,,,,,,,0,,,82,0
25339,note_on,0,0,1,,,,,,,,,0,,,86,0
25339,note_on,39,0,1,,,,,,,,,0,,,77,0
25359,note_on,52,0,4,,,,,,,,,3,,,62,62
25359,note_on,20,0,1,,,,,,,,,0,,,86,75
25359,note_on,0,0,4,,,,,,,,,3,,,70,62
25359,note_on,0,0,4,,,,,,,,,3,,,74,62
25359,note_on,0,0,1,,,,,,,,,0,,,94,75
25359,note_on,0,0,1,,,,,,,,,0,,,89,75
25359,note_on,0,0,1,,,,,,,,,0,,,98,75
25359,note_on,0,0,4,,,,,,,,,3,,,65,62
25363,note_on,4,0,1,,,,,,,,,0,,,98,0
25363,note_on,4,0,4,,,,,,,,,3,,,74,0
25363,note_on,0,0,4,,,,,,,,,3,,,70,0
25363,note_on,0,0,1,,,,,,,,,0,,,94,0
25363,note_on,0,0,4,,,,,,,,,3,,,65,0
25363,note_on,0,0,4,,,,,,,,,3,,,62,0
25363,note_on,0,0,1,,,,,,,,,0,,,89,0
25363,note_on,0,0,1,,,,,,,,,0,,,86,0
25379,note_on,120,0,2,,,,,,,,,1,,,74,0
25380,note_on,17,0,4,,,,,,,,,3,,,62,62
25380,note_on,0,0,1,,,,,,,,,0,,,89,75
25380,note_on,0,0,4,,,,,,,,,3,,,70,62
25380,note_on,0,0,1,,,,,,,,,0,,,94,75
25380,note_on,120,0,3,,,,,,,,,2,,,50,0
25380,note_on,0,0,1,,,,,,,,,0,,,98,75
25380,note_on,17,0,1,,,,,,,,,0,,,86,75
25380,note_on,0,0,4,,,,,,,,,3,,,65,62
25380,note_on,0,0,4,,,,,,,,,3,,,74,62
25388,note_on,0,0,1,,,,,,,,,0,,,89,0
25388,note_on,0,0,1,,,,,,,,,0,,,86,0
25388,note_on,8,0,1,,,,,,,,,0,,,98,0
25388,note_on,0,0,1,,,,,,,,,0,,,94,0
25388,note_on,0,0,4,,,,,,,,,3,,,62,0
25388,note_on,0,0,4,,,,,,,,,3,,,65,0
25388,note_on,0,0,4,,,,,,,,,3,,,70,0
25388,note_on,8,0,4,,,,,,,,,3,,,74,0
25419,note_on,31,0,4,,,,,,,,,3,,,50,62
25419,note_on,0,0,1,,,,,,,,,0,,,77,75
25419,note_on,31,0,1,,,,,,,,,0,,,74,75
25419,note_on,0,0,1,,,,,,,,,0,,,82,75
25419,note_on,0,0,4,,,,,,,,,3,,,62,62
25419,note_on,0,0,1,,,,,,,,,0,,,86,75
25419,note_on,0,0,4,,,,,,,,,3,,,58,62
25419,note_on,0,0,4,,,,,,,,,3,,,53,62
25427,note_on,0,0,4,,,,,,,,,3,,,53,0
25427,note_on,0,0,1,,,,,,,,,0,,,74,0
25427,note_on,8,0,1,,,,,,,,,0,,,86,0
25427,note_on,0,0,1,,,,,,,,,0,,,77,0
25427,note_on,8,0,4,,,,,,,,,3,,,62,0
25427,note_on,0,0,1,,,,,,,,,0,,,82,0
25427,note_on,0,0,4,,,,,,,,,3,,,50,0
25427,note_on,0,0,4,,,,,,,,,3,,,58,0
25460,note_on,0,0,1,,,,,,,,,0,,,62,75
25460,note_on,0,0,4,,,,,,,,,3,,,50,62
25460,note_on,0,0,4,,,,,,,,,3,,,46,62
25460,note_on,0,0,4,,,,,,,,,3,,,41,62
25460,control_change,33,0,4,,,,,,,,,3,64,0,,
25460,note_on,0,0,1,,,,,,,,,0,,,65,75
25460,note_on,0,0,1,,,,,,,,,0,,,70,75
25460,note_on,0,0,1,,,,,,,,,0,,,74,75
25460,control_change,33,0,1,,,,,,,,,0,64,0,,
25460,note_on,0,0,4,,,,,,,,,3,,,38,62
25468,note_on,0,0,4,,,,,,,,,3,,,46,0
25468,note_on,0,0,1,,,,,,,,,0,,,62,0
25468,note_on,0,0,1,,,,,,,,,0,,,70,0
25468,note_on,8,0,1,,,,,,,,,0,,,74,0
25468,note_on,0,0,4,,,,,,,,,3,,,41,0
25468,note_on,0,0,1,,,,,,,,,0,,,65,0
25468,note_on,0,0,4,,,,,,,,,3,,,38,0
25468,note_on,8,0,4,,,,,,,,,3,,,50,0
25499,note_on,120,0,2,,,,,,,,,1,,,72,127
25500,note_on,0,0,4,,,,,,,,,3,,,43,62
25500,note_on,0,0,1,,,,,,,,,0,,,67,75
25500,note_on,0,0,1,,,,,,,,,0,,,64,75
25500,note_on,0,0,1,,,,,,,,,0,,,60,75
25500,note_on,0,0,4,,,,,,,,,3,,,40,62
25500,control_change,32,0,4,,,,,,,,,3,64,127,,
25500,note_on,120,0,3,,,,,,,,,2,,,48,127
25500,control_change,32,0,1,,,,,,,,,0,64,127,,
25508,note_on,0,0,1,,,,,,,,,0,,,60,0
25508,note_on,0,0,1,,,,,,,,,0,,,64,0
25508,note_on,8,0,1,,,,,,,,,0,,,67,0
25539,note_on,0,0,4,,,,,,,,,3,,,55,62
25539,note_on,39,0,4,,,,,,,,,3,,,52,62
25539,note_on,0,0,4,,,,,,,,,3,,,58,62
25539,note_on,0,0,1,,,,,,,,,0,,,76,75
25539,note_on,0,0,1,,,,,,,,,0,,,84,75
25539,note_on,0,0,1,,,,,,,,,0,,,79,75
25539,note_on,31,0,1,,,,,,,,,0,,,72,75
25540,note_on,0,0,4,,,,,,,,,3,,,40,0
25540,note_on,1,0,4,,,,,,,,,3,,,43,0
25547,note_on,0,0,1,,,,,,,,,0,,,79,0
25547,note_on,8,0,1,,,,,,,,,0,,,84,0
25547,note_on,0,0,1,,,,,,,,,0,,,72,0
25547,note_on,0,0,1,,,,,,,,,0,,,76,0
25579,note_on,0,0,4,,,,,,,,,3,,,58,0
25579,note_on,0,0,4,,,,,,,,,3,,,52,0
25579,note_on,39,0,4,,,,,,,,,3,,,55,0
25580,note_on,0,0,1,,,,,,,,,0,,,91,75
25580,note_on,0,0,4,,,,,,,,,3,,,67,62
25580,control_change,33,0,1,,,,,,,,,0,64,0,,
25580,control_change,1,0,4,,,,,,,,,3,64,0,,
25580,note_on,0,0,4,,,,,,,,,3,,,72,62
25580,note_on,0,0,1,,,,,,,,,0,,,96,75
25580,note_on,0,0,4,,,,,,,,,3,,,64,62
25580,note_on,0,0,1,,,,,,,,,0,,,88,75
25580,note_on,0,0,1,,,,,,,,,0,,,84,75
25588,note_on,0,0,1,,,,,,,,,0,,,91,0
25588,note_on,0,0,1,,,,,,,,,0,,,88,0
25588,note_on,8,0,1,,,,,,,,,0,,,96,0
25588,note_on,0,0,1,,,,,,,,,0,,,84,0
25619,note_on,0,0,2,,,,,,,,,1,,,70,127
25619,note_on,120,0,2,,,,,,,,,1,,,72,0
25620,note_on,120,0,3,,,,,,,,,2,,,48,0
25620,control_change,0,0,4,,,,,,,,,3,64,127,,
25620,control_change,32,0,1,,,,,,,,,0,64,127,,
25620,note_on,0,0,3,,,,,,,,,2,,,46,127
25620,note_on,40,0,4,,,,,,,,,3,,,72,0
25620,note_on,0,0,1,,,,,,,,,0,,,67,75
25620,note_on,0,0,1,,,,,,,,,0,,,58,75
25620,note_on,0,0,4,,,,,,,,,3,,,43,62
25620,note_on,0,0,4,,,,,,,,,3,,,64,0
25620,note_on,0,0,4,,,,,,,,,3,,,67,0
25620,note_on,0,0,1,,,,,,,,,0,,,64,75
25620,note_on,0,0,4,,,,,,,,,3,,,36,62
25628,note_on,0,0,1,,,,,,,,,0,,,58,0
25628,note_on,0,0,1,,,,,,,,,0,,,64,0
25628,note_on,8,0,1,,,,,,,,,0,,,67,0
25659,note_on,0,0,1,,,,,,,,,0,,,76,75
25659,note_on,0,0,4,,,,,,,,,3,,,58,62
25659,note_on,0,0,4,,,,,,,,,3,,,55,62
25659,note_on,39,0,4,,,,,,,,,3,,,48,62
25659,note_on,31,0,1,,,,,,,,,0,,,70,75
25659,note_on,0,0,1,,,,,,,,,0,,,79,75
25659,note_on,0,0,1,,,,,,,,,0,,,82,75
25660,note_on,1,0,4,,,,,,,,,3,,,43,0
25660,note_on,0,0,4,,,,,,,,,3,,,36,0
25667,note_on,0,0,1,,,,,,,,,0,,,76,0
25667,note_on,0,0,1,,,,,,,,,0,,,70,0
25667,note_on,8,0,1,,,,,,,,,0,,,82,0
25667,note_on,0,0,1,,,,,,,,,0,,,79,0
25699,note_on,0,0,4,,,,,,,,,3,,,48,0
25699,note_on,0,0,4,,,,,,,,,3,,,58,0
25699,note_on,39,0,4,,,,,,,,,3,,,55,0
25700,note_on,0,0,1,,,,,,,,,0,,,88,75
25700,control_change,1,0,4,,,,,,,,,3,64,0,,
25700,note_on,0,0,1,,,,,,,,,0,,,82,75
25700,note_on,0,0,4,,,,,,,,,3,,,60,62
25700,note_on,0,0,4,,,,,,,,,3,,,67,62
25700,note_on,0,0,4,,,,,,,,,3,,,70,62
25700,note_on,0,0,1,,,,,,,,,0,,,91,75
25700,note_on,0,0,1,,,,,,,,,0,,,94,75
25700,control_change,33,0,1,,,,,,,,,0,64,0,,
25708,note_on,0,0,1,,,,,,,,,0,,,82,0
25708,note_on,8,0,1,,,,,,,,,0,,,94,0
25708,note_on,0,0,1,,,,,,,,,0,,,91,0
25708,note_on,0,0,1,,,,,,,,,0,,,88,0
25739,note_on,120,0,2,,,,,,,,,1,,,70,0
25739,note_on,0,0,2,,,,,,,,,1,,,69,127
25740,note_on,0,0,4,,,,,,,,,3,,,60,0
25740,note_on,0,0,3,,,,,,,,,2,,,45,127
25740,note_on,0,0,4,,,,,,,,,3,,,67,0
25740,note_on,120,0,3,,,,,,,,,2,,,46,0
25740,note_on,0,0,4,,,,,,,,,3,,,41,62
25740,note_on,0,0,1,,,,,,,,,0,,,65,75
25740,note_on,40,0,4,,,,,,,,,3,,,70,0
25740,control_change,32,0,1,,,,,,,,,0,64,127,,
25740,control_change,0,0,4,,,,,,,,,3,64,127,,
25740,note_on,0,0,1,,,,,,,,,0,,,57,75
25748,note_on,0,0,1,,,,,,,,,0,,,57,0
25748,note_on,8,0,1,,,,,,,,,0,,,65,0
25779,note_on,31,0,1,,,,,,,,,0,,,69,75
25779,note_on,39,0,4,,,,,,,,,3,,,53,62
25779,note_on,0,0,1,,,,,,,,,0,,,81,75
25779,note_on,0,0,4,,,,,,,,,3,,,57,62
25779,note_on,0,0,1,,,,,,,,,0,,,77,75
25780,note_on,1,0,4,,,,,,,,,3,,,41,0
25787,note_on,0,0,1,,,,,,,,,0,,,69,0
25787,note_on,0,0,1,,,,,,,,,0,,,77,0
25787,note_on,8,0,1,,,,,,,,,0,,,81,0
25819,note_on,0,0,4,,,,,,,,,3,,,53,0
25819,note_on,39,0,4,,,,,,,,,3,,,57,0
25839,note_on,0,0,4,,,,,,,,,3,,,69,62
25839,note_on,52,0,1,,,,,,,,,0,,,81,75
25839,note_on,0,0,1,,,,,,,,,0,,,89,75
25839,note_on,20,0,4,,,,,,,,,3,,,65,62
25839,note_on,0,0,1,,,,,,,,,0,,,93,75
25843,note_on,4,0,1,,,,,,,,,0,,,93,0
25843,note_on,0,0,1,,,,,,,,,0,,,81,0
25843,note_on,0,0,1,,,,,,,,,0,,,89,0
25859,note_on,0,0,4,,,,,,,,,3,,,65,0
25859,note_on,120,0,2,,,,,,,,,1,,,69,0
25859,note_on,20,0,4,,,,,,,,,3,,,69,0
25860,note_on,0,0,1,,,,,,,,,0,,,89,75
25860,note_on,0,0,1,,,,,,,,,0,,,93,75
25860,note_on,0,0,4,,,,,,,,,3,,,69,62
25860,note_on,120,0,3,,,,,,,,,2,,,45,0
25860,note_on,17,0,1,,,,,,,,,0,,,81,75
25860,note_on,1,0,4,,,,,,,,,3,,,65,62
25868,note_on,0,0,1,,,,,,,,,0,,,81,0
25868,note_on,0,0,1,,,,,,,,,0,,,89,0
25868,note_on,8,0,1,,,,,,,,,0,,,93,0
25899,note_on,39,0,4,,,,,,,,,3,,,53,62
25899,note_on,31,0,1,,,,,,,,,0,,,69,75
25899,note_on,0,0,4,,,,,,,,,3,,,57,62
25899,note_on,0,0,1,,,,,,,,,0,,,77,75
25899,note_on,0,0,1,,,,,,,,,0,,,81,75
25900,note_on,0,0,4,,,,,,,,,3,,,65,0
25900,note_on,1,0,4,,,,,,,,,3,,,69,0
25907,note_on,0,0,1,,,,,,,,,0,,,77,0
25907,note_on,8,0,1,,,,,,,,,0,,,81,0
25907,note_on,0,0,1,,,,,,,,,0,,,69,0
25939,note_on,39,0,4,,,,,,,,,3,,,53,0
25939,note_on,0,0,4,,,,,,,,,3,,,57,0
25940,note_on,0,0,1,,,,,,,,,0,,,57,75
25940,note_on,0,0,1,,,,,,,,,0,,,69,75
25940,control_change,33,0,1,,,,,,,,,0,64,0,,
25940,control_change,1,0,4,,,,,,,,,3,64,0,,
25940,note_on,80,0,3,,,,,,,,,2,,,41,101
25940,note_on,0,0,1,,,,,,,,,0,,,65,75
25940,note_on,0,0,4,,,,,,,,,3,,,45,62
25948,note_on,8,0,1,,,,,,,,,0,,,69,0
25948,note_on,0,0,1,,,,,,,,,0,,,57,0
25948,note_on,0,0,1,,,,,,,,,0,,,65,0
25950,note_on,0,0,3,,,,,,,,,2,,,40,101
25950,note_on,10,0,3,,,,,,,,,2,,,41,0
25959,note_on,9,0,3,,,,,,,,,2,,,38,101
25960,note_on,1,0,3,,,,,,,,,2,,,40,0
25969,note_on,9,0,3,,,,,,,,,2,,,38,0
25979,note_on,120,0,2,,,,,,,,,1,,,69,127
25980,note_on,11,0,3,,,,,,,,,2,,,45,127
25980,note_on,0,0,4,,,,,,,,,3,,,40,62
25980,note_on,0,0,4,,,,,,,,,3,,,37,62
25980,control_change,32,0,1,,,,,,,,,0,64,127,,
25980,note_on,0,0,1,,,,,,,,,0,,,57,75
25980,note_on,0,0,1,,,,,,,,,0,,,64,75
25980,note_on,0,0,1,,,,,,,,,0,,,67,75
25980,note_on,40,0,4,,,,,,,,,3,,,45,0
25980,control_change,0,0,4,,,,,,,,,3,64,127,,
25988,note_on,8,0,4,,,,,,,,,3,,,40,0
25988,note_on,0,0,4,,,,,,,,,3,,,37,0
25988,note_on,0,0,1,,,,,,,,,0,,,57,0
25988,note_on,0,0,1,,,,,,,,,0,,,64,0
25988,note_on,8,0,1,,,,,,,,,0,,,67,0
26019,note_on,31,0,4,,,,,,,,,3,,,49,62
26019,note_on,0,0,1,,,,,,,,,0,,,79,75
26019,note_on,0,0,4,,,,,,,,,3,,,52,62
26019,note_on,0,0,1,,,,,,,,,0,,,76,75
26019,note_on,31,0,1,,,,,,,,,0,,,69,75
26019,note_on,0,0,1,,,,,,,,,0,,,81,75
26019,note_on,0,0,4,,,,,,,,,3,,,57,62
26027,note_on,0,0,4,,,,,,,,,3,,,52,0
26027,note_on,0,0,4,,,,,,,,,3,,,49,0
26027,note_on,0,0,1,,,,,,,,,0,,,76,0
26027,note_on,0,0,1,,,,,,,,,0,,,79,0
26027,note_on,8,0,4,,,,,,,,,3,,,57,0
26027,note_on,8,0,1,,,,,,,,,0,,,81,0
26027,note_on,0,0,1,,,,,,,,,0,,,69,0
26079,note_on,0,0,4,,,,,,,,,3,,,69,62
26079,note_on,0,0,1,,,,,,,,,0,,,88,75
26079,note_on,0,0,4,,,,,,,,,3,,,64,62
26079,note_on,52,0,4,,,,,,,,,3,,,61,62
26079,note_on,0,0,1,,,,,,,,,0,,,93,75
26079,note_on,0,0,1,,,,,,,,,0,,,91,75
26079,note_on,52,0,1,,,,,,,,,0,,,81,75
26083,note_on,0,0,1,,,,,,,,,0,,,91,0
26083,note_on,0,0,1,,,,,,,,,0,,,81,0
26083,note_on,0,0,4,,,,,,,,,3,,,64,0
26083,note_on,0,0,1,,,,,,,,,0,,,88,0
26083,note_on,0,0,4,,,,,,,,,3,,,61,0
26083,note_on,4,0,1,,,,,,,,,0,,,93,0
26083,note_on,4,0,4,,,,,,,,,3,,,69,0
26100,note_on,0,0,1,,,,,,,,,0,,,93,75
26100,note_on,17,0,4,,,,,,,,,3,,,61,62
26100,note_on,0,0,4,,,,,,,,,3,,,64,62
26100,note_on,0,0,4,,,,,,,,,3,,,69,62
26100,note_on,0,0,1,,,,,,,,,0,,,91,75
26100,note_on,0,0,1,,,,,,,,,0,,,88,75
26100,note_on,17,0,1,,,,,,,,,0,,,81,75
26108,note_on,8,0,4,,,,,,,,,3,,,69,0
26108,note_on,8,0,1,,,,,,,,,0,,,93,0
26108,note_on,0,0,1,,,,,,,,,0,,,91,0
26108,note_on,0,0,4,,,,,,,,,3,,,61,0
26108,note_on,0,0,1,,,,,,,,,0,,,81,0
26108,note_on,0,0,1,,,,,,,,,0,,,88,0
26108,note_on,0,0,4,,,,,,,,,3,,,64,0
26139,note_on,0,0,1,,,,,,,,,0,,,79,75
26139,note_on,0,0,1,,,,,,,,,0,,,76,75
26139,note_on,0,0,1,,,,,,,,,0,,,81,75
26139,note_on,31,0,4,,,,,,,,,3,,,49,62
26139,note_on,0,0,4,,,,,,,,,3,,,57,62
26139,note_on,0,0,4,,,,,,,,,3,,,52,62
26139,note_on,31,0,1,,,,,,,,,0,,,69,75
26147,note_on,0,0,1,,,,,,,,,0,,,76,0
26147,note_on,0,0,1,,,,,,,,,0,,,79,0
26147,note_on,0,0,4,,,,,,,,,3,,,49,0
26147,note_on,0,0,4,,,,,,,,,3,,,52,0
26147,note_on,0,0,1,,,,,,,,,0,,,69,0
26147,note_on,8,0,1,,,,,,,,,0,,,81,0
26147,note_on,8,0,4,,,,,,,,,3,,,57,0
26180,note_on,0,0,1,,,,,,,,,0,,,57,75
26180,note_on,0,0,1,,,,,,,,,0,,,64,75
26180,note_on,0,0,1,,,,,,,,,0,,,67,75
26180,note_on,0,0,1,,,,,,,,,0,,,69,75
26180,note_on,0,0,4,,,,,,,,,3,,,37,62
26180,note_on,0,0,4,,,,,,,,,3,,,45,62
26180,note_on,0,0,4,,,,,,,,,3,,,40,62
26180,control_change,33,0,1,,,,,,,,,0,64,0,,
26180,control_change,33,0,4,,,,,,,,,3,64,0,,
26188,note_on,8,0,4,,,,,,,,,3,,,45,0
26188,note_on,8,0,1,,,,,,,,,0,,,69,0
26188,note_on,0,0,1,,,,,,,,,0,,,67,0
26188,note_on,0,0,1,,,,,,,,,0,,,64,0
26188,note_on,0,0,1,,,,,,,,,0,,,57,0
26188,note_on,0,0,4,,,,,,,,,3,,,40,0
26188,note_on,0,0,4,,,,,,,,,3,,,37,0
26219,note_on,240,0,2,,,,,,,,,1,,,69,0
26219,note_on,0,0,2,,,,,,,,,1,,,70,127
26220,note_on,0,0,1,,,,,,,,,0,,,65,75
26220,note_on,0,0,1,,,,,,,,,0,,,62,75
26220,note_on,0,0,1,,,,,,,,,0,,,58,75
26220,control_change,32,0,4,,,,,,,,,3,64,127,,
26220,note_on,0,0,4,,,,,,,,,3,,,38,62
26220,note_on,0,0,3,,,,,,,,,2,,,46,127
26220,note_on,0,0,4,,,,,,,,,3,,,41,62
26220,control_change,32,0,1,,,,,,,,,0,64,127,,
26220,note_on,240,0,3,,,,,,,,,2,,,45,0
26228,note_on,0,0,1,,,,,,,,,0,,,62,0
26228,note_on,8,0,4,,,,,,,,,3,,,41,0
26228,note_on,0,0,4,,,,,,,,,3,,,38,0
26228,note_on,8,0,1,,,,,,,,,0,,,65,0
26228,note_on,0,0,1,,,,,,,,,0,,,58,0
26259,note_on,31,0,1,,,,,,,,,0,,,70,75
26259,note_on,0,0,4,,,,,,,,,3,,,58,62
26259,note_on,0,0,1,,,,,,,,,0,,,82,75
26259,note_on,0,0,4,,,,,,,,,3,,,53,62
26259,note_on,0,0,1,,,,,,,,,0,,,74,75
26259,note_on,0,0,1,,,,,,,,,0,,,77,75
26259,note_on,31,0,4,,,,,,,,,3,,,50,62
26267,note_on,0,0,4,,,,,,,,,3,,,50,0
26267,note_on,8,0,4,,,,,,,,,3,,,58,0
26267,note_on,8,0,1,,,,,,,,,0,,,82,0
26267,note_on,0,0,4,,,,,,,,,3,,,53,0
26267,note_on,0,0,1,,,,,,,,,0,,,70,0
26267,note_on,0,0,1,,,,,,,,,0,,,74,0
26267,note_on,0,0,1,,,,,,,,,0,,,77,0
26319,note_on,0,0,1,,,,,,,,,0,,,89,75
26319,note_on,0,0,1,,,,,,,,,0,,,86,75
26319,note_on,0,0,4,,,,,,,,,3,,,65,62
26319,note_on,0,0,1,,,,,,,,,0,,,94,75
26319,note_on,52,0,4,,,,,,,,,3,,,62,62
26319,note_on,52,0,1,,,,,,,,,0,,,82,75
26319,note_on,0,0,4,,,,,,,,,3,,,70,62
26323,note_on,0,0,1,,,,,,,,,0,,,89,0
26323,note_on,0,0,4,,,,,,,,,3,,,62,0
26323,note_on,0,0,4,,,,,,,,,3,,,65,0
26323,note_on,4,0,1,,,,,,,,,0,,,94,0
26323,note_on,0,0,1,,,,,,,,,0,,,82,0
26323,note_on,0,0,1,,,,,,,,,0,,,86,0
26323,note_on,4,0,4,,,,,,,,,3,,,70,0
26340,note_on,0,0,4,,,,,,,,,3,,,65,62
26340,note_on,17,0,4,,,,,,,,,3,,,62,62
26340,note_on,0,0,1,,,,,,,,,0,,,94,75
26340,note_on,17,0,1,,,,,,,,,0,,,82,75
26340,note_on,0,0,1,,,,,,,,,0,,,86,75
26340,note_on,0,0,4,,,,,,,,,3,,,70,62
26340,note_on,0,0,1,,,,,,,,,0,,,89,75
26348,note_on,0,0,1,,,,,,,,,0,,,86,0
26348,note_on,0,0,4,,,,,,,,,3,,,62,0
26348,note_on,8,0,1,,,,,,,,,0,,,94,0
26348,note_on,0,0,1,,,,,,,,,0,,,89,0
26348,note_on,0,0,4,,,,,,,,,3,,,65,0
26348,note_on,8,0,4,,,,,,,,,3,,,70,0
26348,note_on,0,0,1,,,,,,,,,0,,,82,0
26379,note_on,0,0,4,,,,,,,,,3,,,53,62
26379,note_on,0,0,4,,,,,,,,,3,,,58,62
26379,note_on,0,0,1,,,,,,,,,0,,,74,75
26379,note_on,0,0,1,,,,,,,,,0,,,82,75
26379,note_on,0,0,1,,,,,,,,,0,,,77,75
26379,note_on,31,0,4,,,,,,,,,3,,,50,62
26379,note_on,31,0,1,,,,,,,,,0,,,70,75
26387,note_on,0,0,1,,,,,,,,,0,,,77,0
26387,note_on,8,0,1,,,,,,,,,0,,,82,0
26387,note_on,0,0,4,,,,,,,,,3,,,50,0
26387,note_on,8,0,4,,,,,,,,,3,,,58,0
26387,note_on,0,0,1,,,,,,,,,0,,,74,0
26387,note_on,0,0,4,,,,,,,,,3,,,53,0
26387,note_on,0,0,1,,,,,,,,,0,,,70,0
26420,note_on,0,0,4,,,,,,,,,3,,,38,62
26420,control_change,33,0,4,,,,,,,,,3,64,0,,
26420,note_on,0,0,1,,,,,,,,,0,,,65,75
26420,note_on,0,0,1,,,,,,,,,0,,,70,75
26420,note_on,0,0,1,,,,,,,,,0,,,62,75
26420,control_change,33,0,1,,,,,,,,,0,64,0,,
26420,note_on,0,0,4,,,,,,,,,3,,,41,62
26420,note_on,0,0,4,,,,,,,,,3,,,46,62
26420,note_on,0,0,1,,,,,,,,,0,,,58,75
26428,note_on,0,0,1,,,,,,,,,0,,,62,0
26428,note_on,0,0,1,,,,,,,,,0,,,58,0
26428,note_on,0,0,1,,,,,,,,,0,,,65,0
26428,note_on,8,0,1,,,,,,,,,0,,,70,0
26428,note_on,8,0,4,,,,,,,,,3,,,46,0
26428,note_on,0,0,4,,,,,,,,,3,,,38,0
26428,note_on,0,0,4,,,,,,,,,3,,,41,0
26459,note_on,0,0,2,,,,,,,,,1,,,72,127
26459,note_on,240,0,2,,,,,,,,,1,,,70,0
26460,note_on,0,0,4,,,,,,,,,3,,,43,62
26460,note_on,0,0,4,,,,,,,,,3,,,40,62
26460,note_on,240,0,3,,,,,,,,,2,,,46,0
26460,note_on,0,0,1,,,,,,,,,0,,,64,75
26460,control_change,32,0,1,,,,,,,,,0,64,127,,
26460,note_on,0,0,1,,,,,,,,,0,,,57,75
26460,note_on,0,0,3,,,,,,,,,2,,,48,127
26460,control_change,32,0,4,,,,,,,,,3,64,127,,
26460,note_on,0,0,1,,,,,,,,,0,,,67,75
26468,note_on,8,0,1,,,,,,,,,0,,,67,0
26468,note_on,8,0,4,,,,,,,,,3,,,43,0
26468,note_on,0,0,4,,,,,,,,,3,,,40,0
26468,note_on,0,0,1,,,,,,,,,0,,,57,0
26468,note_on,0,0,1,,,,,,,,,0,,,64,0
26499,note_on,0,0,1,,,,,,,,,0,,,79,75
26499,note_on,31,0,1,,,,,,,,,0,,,69,75
26499,note_on,0,0,1,,,,,,,,,0,,,76,75
26499,note_on,0,0,4,,,,,,,,,3,,,55,62
26499,note_on,0,0,4,,,,,,,,,3,,,60,62
26499,note_on,31,0,4,,,,,,,,,3,,,52,62
26499,note_on,0,0,1,,,,,,,,,0,,,81,75
26507,note_on,8,0,4,,,,,,,,,3,,,60,0
26507,note_on,8,0,1,,,,,,,,,0,,,81,0
26507,note_on,0,0,1,,,,,,,,,0,,,69,0
26507,note_on,0,0,4,,,,,,,,,3,,,52,0
26507,note_on,0,0,1,,,,,,,,,0,,,76,0
26507,note_on,0,0,1,,,,,,,,,0,,,79,0
26507,note_on,0,0,4,,,,,,,,,3,,,55,0
26559,note_on,52,0,4,,,,,,,,,3,,,64,62
26559,note_on,52,0,1,,,,,,,,,0,,,81,75
26559,note_on,0,0,4,,,,,,,,,3,,,72,62
26559,note_on,0,0,4,,,,,,,,,3,,,67,62
26559,note_on,0,0,1,,,,,,,,,0,,,93,75
26559,note_on,0,0,1,,,,,,,,,0,,,88,75
26559,note_on,0,0,1,,,,,,,,,0,,,91,75
26563,note_on,0,0,4,,,,,,,,,3,,,67,0
26563,note_on,4,0,4,,,,,,,,,3,,,72,0
26563,note_on,0,0,4,,,,,,,,,3,,,64,0
26563,note_on,4,0,1,,,,,,,,,0,,,93,0
26563,note_on,0,0,1,,,,,,,,,0,,,81,0
26563,note_on,0,0,1,,,,,,,,,0,,,88,0
26563,note_on,0,0,1,,,,,,,,,0,,,91,0
26580,note_on,0,0,1,,,,,,,,,0,,,91,75
26580,note_on,0,0,4,,,,,,,,,3,,,72,62
26580,note_on,0,0,4,,,,,,,,,3,,,67,62
26580,note_on,17,0,1,,,,,,,,,0,,,81,75
26580,note_on,17,0,4,,,,,,,,,3,,,64,62
26580,note_on,0,0,1,,,,,,,,,0,,,93,75
26580,note_on,0,0,1,,,,,,,,,0,,,88,75
26588,note_on,0,0,4,,,,,,,,,3,,,67,0
26588,note_on,0,0,4,,,,,,,,,3,,,64,0
26588,note_on,8,0,1,,,,,,,,,0,,,93,0
26588,note_on,0,0,1,,,,,,,,,0,,,81,0
26588,note_on,0,0,1,,,,,,,,,0,,,88,0
26588,note_on,8,0,4,,,,,,,,,3,,,72,0
26588,note_on,0,0,1,,,,,,,,,0,,,91,0
26619,note_on,31,0,4,,,,,,,,,3,,,52,62
26619,note_on,0,0,1,,,,,,,,,0,,,76,75
26619,note_on,0,0,4,,,,,,,,,3,,,55,62
26619,note_on,31,0,1,,,,,,,,,0,,,69,75
26619,note_on,0,0,1,,,,,,,,,0,,,79,75
26619,note_on,0,0,4,,,,,,,,,3,,,60,62
26619,note_on,0,0,1,,,,,,,,,0,,,81,75
26627,note_on,0,0,4,,,,,,,,,3,,,55,0
26627,note_on,8,0,4,,,,,,,,,3,,,60,0
26627,note_on,8,0,1,,,,,,,,,0,,,81,0
26627,note_on,0,0,1,,,,,,,,,0,,,69,0
26627,note_on,0,0,4,,,,,,,,,3,,,52,0
26627,note_on,0,0,1,,,,,,,,,0,,,76,0
26627,note_on,0,0,1,,,,,,,,,0,,,79,0
26660,note_on,0,0,4,,,,,,,,,3,,,43,62
26660,note_on,0,0,4,,,,,,,,,3,,,40,62
26660,note_on,0,0,1,,,,,,,,,0,,,67,75
26660,control_change,33,0,4,,,,,,,,,3,64,0,,
26660,note_on,0,0,4,,,,,,,,,3,,,48,62
26660,note_on,0,0,1,,,,,,,,,0,,,69,75
26660,control_change,33,0,1,,,,,,,,,0,64,0,,
26660,note_on,0,0,1,,,,,,,,,0,,,64,75
26660,note_on,0,0,1,,,,,,,,,0,,,57,75
26668,note_on,8,0,1,,,,,,,,,0,,,69,0
26668,note_on,0,0,4,,,,,,,,,3,,,40,0
26668,note_on,0,0,1,,,,,,,,,0,,,57,0
26668,note_on,0,0,1,,,,,,,,,0,,,64,0
26668,note_on,0,0,1,,,,,,,,,0,,,67,0
26668,note_on,0,0,4,,,,,,,,,3,,,43,0
26668,note_on,8,0,4,,,,,,,,,3,,,48,0
26699,note_on,0,0,2,,,,,,,,,1,,,69,127
26699,note_on,240,0,2,,,,,,,,,1,,,72,0
26700,control_change,32,0,4,,,,,,,,,3,64,127,,
26700,note_on,0,0,1,,,,,,,,,0,,,57,75
26700,control_change,32,0,1,,,,,,,,,0,64,127,,
26700,note_on,240,0,3,,,,,,,,,2,,,48,0
26700,note_on,0,0,1,,,,,,,,,0,,,60,75
26700,note_on,0,0,4,,,,,,,,,3,,,41,62
26700,note_on,0,0,3,,,,,,,,,2,,,45,127
26708,note_on,0,0,1,,,,,,,,,0,,,57,0
26708,note_on,8,0,1,,,,,,,,,0,,,60,0
26708,note_on,8,0,4,,,,,,,,,3,,,41,0
26739,note_on,31,0,1,,,,,,,,,0,,,69,75
26739,note_on,31,0,4,,,,,,,,,3,,,53,62
26739,note_on,0,0,1,,,,,,,,,0,,,81,75
26739,note_on,0,0,4,,,,,,,,,3,,,57,62
26739,note_on,0,0,1,,,,,,,,,0,,,72,75
26747,note_on,0,0,4,,,,,,,,,3,,,53,0
26747,note_on,0,0,1,,,,,,,,,0,,,72,0
26747,note_on,8,0,1,,,,,,,,,0,,,81,0
26747,note_on,8,0,4,,,,,,,,,3,,,57,0
26747,note_on,0,0,1,,,,,,,,,0,,,69,0
26780,note_on,0,0,4,,,,,,,,,3,,,69,62
26780,note_on,0,0,1,,,,,,,,,0,,,93,75
26780,note_on,0,0,1,,,,,,,,,0,,,84,75
26780,note_on,0,0,1,,,,,,,,,0,,,81,75
26780,control_change,33,0,4,,,,,,,,,3,64,0,,
26780,control_change,33,0,1,,,,,,,,,0,64,0,,
26780,note_on,0,0,4,,,,,,,,,3,,,65,62
26788,note_on,8,0,1,,,,,,,,,0,,,93,0
26788,note_on,0,0,1,,,,,,,,,0,,,81,0
26788,note_on,0,0,4,,,,,,,,,3,,,65,0
26788,note_on,8,0,4,,,,,,,,,3,,,69,0
26788,note_on,0,0,1,,,,,,,,,0,,,84,0
26819,note_on,0,0,2,,,,,,,,,1,,,65,127
26819,note_on,120,0,2,,,,,,,,,1,,,69,0
26820,control_change,32,0,4,,,,,,,,,3,64,127,,
26820,note_on,120,0,3,,,,,,,,,2,,,45,0
26820,control_change,32,0,1,,,,,,,,,0,64,127,,
26820,note_on,0,0,3,,,,,,,,,2,,,41,127
26820,note_on,0,0,4,,,,,,,,,3,,,29,62
26820,note_on,0,0,4,,,,,,,,,3,,,36,62
26828,note_on,8,0,4,,,,,,,,,3,,,36,0
26828,note_on,0,0,4,,,,,,,,,3,,,29,0
26859,note_on,0,0,1,,,,,,,,,0,,,69,75
26859,note_on,39,0,1,,,,,,,,,0,,,65,75
26859,note_on,0,0,4,,,,,,,,,3,,,48,62
26859,note_on,0,0,4,,,,,,,,,3,,,53,62
26859,note_on,31,0,4,,,,,,,,,3,,,41,62
26859,note_on,0,0,1,,,,,,,,,0,,,77,75
26867,note_on,8,0,4,,,,,,,,,3,,,53,0
26867,note_on,0,0,1,,,,,,,,,0,,,65,0
26867,note_on,8,0,1,,,,,,,,,0,,,77,0
26867,note_on,0,0,1,,,,,,,,,0,,,69,0
26867,note_on,0,0,4,,,,,,,,,3,,,48,0
26867,note_on,0,0,4,,,,,,,,,3,,,41,0
26900,note_on,0,0,4,,,,,,,,,3,,,65,62
26900,note_on,0,0,4,,,,,,,,,3,,,53,62
26900,control_change,33,0,1,,,,,,,,,0,64,0,,
26900,note_on,0,0,4,,,,,,,,,3,,,60,62
26900,control_change,33,0,4,,,,,,,,,3,64,0,,
26900,note_on,0,0,1,,,,,,,,,0,,,89,75
26900,note_on,0,0,1,,,,,,,,,0,,,81,75
26900,note_on,0,0,1,,,,,,,,,0,,,77,75
26908,note_on,8,0,4,,,,,,,,,3,,,65,0
26908,note_on,0,0,1,,,,,,,,,0,,,77,0
26908,note_on,0,0,1,,,,,,,,,0,,,81,0
26908,note_on,8,0,1,,,,,,,,,0,,,89,0
26908,note_on,0,0,4,,,,,,,,,3,,,60,0
26908,note_on,0,0,4,,,,,,,,,3,,,53,0
26939,note_on,120,0,2,,,,,,,,,1,,,65,0
26939,note_on,0,0,2,,,,,,,,,1,,,72,127
26940,note_on,120,0,3,,,,,,,,,2,,,41,0
26940,control_change,32,0,4,,,,,,,,,3,64,127,,
26940,note_on,0,0,1,,,,,,,,,0,,,65,75
26940,control_change,32,0,1,,,,,,,,,0,64,127,,
26940,note_on,0,0,4,,,,,,,,,3,,,41,62
26940,note_on,0,0,1,,,,,,,,,0,,,68,75
26940,note_on,0,0,1,,,,,,,,,0,,,60,75
26940,note_on,0,0,3,,,,,,,,,2,,,48,127
26940,note_on,0,0,4,,,,,,,,,3,,,44,62
26948,note_on,0,0,4,,,,,,,,,3,,,41,0
26948,note_on,0,0,1,,,,,,,,,0,,,60,0
26948,note_on,8,0,4,,,,,,,,,3,,,44,0
26948,note_on,8,0,1,,,,,,,,,0,,,68,0
26948,note_on,0,0,1,,,,,,,,,0,,,65,0
26979,note_on,0,0,1,,,,,,,,,0,,,77,75
26979,note_on,31,0,1,,,,,,,,,0,,,72,75
26979,note_on,0,0,1,,,,,,,,,0,,,80,75
26979,note_on,31,0,4,,,,,,,,,3,,,53,62
26979,note_on,0,0,4,,,,,,,,,3,,,60,62
26979,note_on,0,0,4,,,,,,,,,3,,,56,62
26979,note_on,0,0,1,,,,,,,,,0,,,84,75
26987,note_on,0,0,1,,,,,,,,,0,,,80,0
26987,note_on,8,0,1,,,,,,,,,0,,,84,0
26987,note_on,0,0,1,,,,,,,,,0,,,72,0
26987,note_on,0,0,4,,,,,,,,,3,,,56,0
26987,note_on,0,0,4,,,,,,,,,3,,,53,0
26987,note_on,8,0,4,,,,,,,,,3,,,60,0
26987,note_on,0,0,1,,,,,,,,,0,,,77,0
27039,note_on,52,0,4,,,,,,,,,3,,,65,62
27039,note_on,0,0,1,,,,,,,,,0,,,89,75
27039,note_on,0,0,1,,,,,,,,,0,,,96,75
27039,note_on,0,0,4,,,,,,,,,3,,,72,62
27039,note_on,0,0,4,,,,,,,,,3,,,68,62
27039,note_on,0,0,1,,,,,,,,,0,,,92,75
27039,note_on,52,0,1,,,,,,,,,0,,,84,75
27043,note_on,0,0,1,,,,,,,,,0,,,92,0
27043,note_on,0,0,1,,,,,,,,,0,,,84,0
27043,note_on,0,0,1,,,,,,,,,0,,,89,0
27043,note_on,4,0,1,,,,,,,,,0,,,96,0
27043,note_on,4,0,4,,,,,,,,,3,,,72,0
27043,note_on,0,0,4,,,,,,,,,3,,,65,0
27043,note_on,0,0,4,,,,,,,,,3,,,68,0
27060,note_on,0,0,1,,,,,,,,,0,,,89,75
27060,note_on,0,0,1,,,,,,,,,0,,,92,75
27060,note_on,0,0,1,,,,,,,,,0,,,96,75
27060,note_on,17,0,4,,,,,,,,,3,,,65,62
27060,note_on,17,0,1,,,,,,,,,0,,,84,75
27060,note_on,0,0,4,,,,,,,,,3,,,72,62
27060,note_on,0,0,4,,,,,,,,,3,,,68,62
27068,note_on,0,0,4,,,,,,,,,3,,,68,0
27068,note_on,8,0,4,,,,,,,,,3,,,72,0
27068,note_on,8,0,1,,,,,,,,,0,,,96,0
27068,note_on,0,0,1,,,,,,,,,0,,,89,0
27068,note_on,0,0,1,,,,,,,,,0,,,84,0
27068,note_on,0,0,1,,,,,,,,,0,,,92,0
27068,note_on,0,0,4,,,,,,,,,3,,,65,0
27099,note_on,0,0,1,,,,,,,,,0,,,77,75
27099,note_on,0,0,4,,,,,,,,,3,,,56,62
27099,note_on,0,0,4,,,,,,,,,3,,,60,62
27099,note_on,0,0,1,,,,,,,,,0,,,80,75
27099,note_on,31,0,1,,,,,,,,,0,,,72,75
27099,note_on,0,0,1,,,,,,,,,0,,,84,75
27099,note_on,31,0,4,,,,,,,,,3,,,53,62
27107,note_on,8,0,4,,,,,,,,,3,,,60,0
27107,note_on,8,0,1,,,,,,,,,0,,,84,0
27107,note_on,0,0,1,,,,,,,,,0,,,80,0
27107,note_on,0,0,1,,,,,,,,,0,,,77,0
27107,note_on,0,0,1,,,,,,,,,0,,,72,0
27107,note_on,0,0,4,,,,,,,,,3,,,53,0
27107,note_on,0,0,4,,,,,,,,,3,,,56,0
27140,note_on,0,0,1,,,,,,,,,0,,,72,75
27140,note_on,0,0,1,,,,,,,,,0,,,65,75
27140,control_change,33,0,1,,,,,,,,,0,64,0,,
27140,note_on,0,0,4,,,,,,,,,3,,,48,62
27140,note_on,0,0,4,,,,,,,,,3,,,44,62
27140,note_on,0,0,4,,,,,,,,,3,,,41,62
27140,control_change,33,0,4,,,,,,,,,3,64,0,,
27140,note_on,0,0,1,,,,,,,,,0,,,60,75
27140,note_on,0,0,1,,,,,,,,,0,,,68,75
27148,note_on,8,0,4,,,,,,,,,3,,,48,0
27148,note_on,0,0,1,,,,,,,,,0,,,65,0
27148,note_on,0,0,4,,,,,,,,,3,,,41,0
27148,note_on,0,0,4,,,,,,,,,3,,,44,0
27148,note_on,0,0,1,,,,,,,,,0,,,68,0
27148,note_on,0,0,1,,,,,,,,,0,,,60,0
27148,note_on,8,0,1,,,,,,,,,0,,,72,0
27179,note_on,0,0,2,,,,,,,,,1,,,73,127
27179,note_on,240,0,2,,,,,,,,,1,,,72,0
27180,note_on,0,0,1,,,,,,,,,0,,,61,75
27180,note_on,0,0,1,,,,,,,,,0,,,65,75
27180,note_on,0,0,3,,,,,,,,,2,,,49,127
27180,note_on,0,0,4,,,,,,,,,3,,,49,62
27180,control_change,32,0,1,,,,,,,,,0,64,127,,
27180,note_on,0,0,1,,,,,,,,,0,,,68,75
27180,control_change,32,0,4,,,,,,,,,3,64,127,,
27180,note_on,0,0,4,,,,,,,,,3,,,41,62
27180,note_on,240,0,3,,,,,,,,,2,,,48,0
27180,note_on,0,0,4,,,,,,,,,3,,,44,62
27188,note_on,0,0,4,,,,,,,,,3,,,44,0
27188,note_on,8,0,1,,,,,,,,,0,,,68,0
27188,note_on,8,0,4,,,,,,,,,3,,,49,0
27188,note_on,0,0,4,,,,,,,,,3,,,41,0
27188,note_on,0,0,1,,,,,,,,,0,,,61,0
27188,note_on,0,0,1,,,,,,,,,0,,,65,0
27219,note_on,0,0,4,,,,,,,,,3,,,56,62
27219,note_on,0,0,4,,,,,,,,,3,,,61,62
27219,note_on,0,0,1,,,,,,,,,0,,,77,75
27219,note_on,31,0,4,,,,,,,,,3,,,53,62
27219,note_on,31,0,1,,,,,,,,,0,,,73,75
27219,note_on,0,0,1,,,,,,,,,0,,,80,75
27219,note_on,0,0,1,,,,,,,,,0,,,85,75
27227,note_on,8,0,1,,,,,,,,,0,,,85,0
27227,note_on,0,0,4,,,,,,,,,3,,,53,0
27227,note_on,0,0,4,,,,,,,,,3,,,56,0
27227,note_on,8,0,4,,,,,,,,,3,,,61,0
27227,note_on,0,0,1,,,,,,,,,0,,,77,0
27227,note_on,0,0,1,,,,,,,,,0,,,80,0
27227,note_on,0,0,1,,,,,,,,,0,,,73,0
27279,note_on,0,0,4,,,,,,,,,3,,,68,62
27279,note_on,0,0,4,,,,,,,,,3,,,73,62
27279,note_on,52,0,1,,,,,,,,,0,,,85,75
27279,note_on,52,0,4,,,,,,,,,3,,,65,62
27279,note_on,0,0,1,,,,,,,,,0,,,92,75
27279,note_on,0,0,1,,,,,,,,,0,,,89,75
27279,note_on,0,0,1,,,,,,,,,0,,,97,75
27283,note_on,0,0,1,,,,,,,,,0,,,89,0
27283,note_on,0,0,4,,,,,,,,,3,,,68,0
27283,note_on,0,0,4,,,,,,,,,3,,,65,0
27283,note_on,4,0,4,,,,,,,,,3,,,73,0
27283,note_on,4,0,1,,,,,,,,,0,,,97,0
27283,note_on,0,0,1,,,,,,,,,0,,,85,0
27283,note_on,0,0,1,,,,,,,,,0,,,92,0
27300,note_on,0,0,1,,,,,,,,,0,,,89,75
27300,note_on,0,0,1,,,,,,,,,0,,,92,75
27300,note_on,17,0,1,,,,,,,,,0,,,85,75
27300,note_on,17,0,4,,,,,,,,,3,,,65,62
27300,note_on,0,0,1,,,,,,,,,0,,,97,75
27300,note_on,0,0,4,,,,,,,,,3,,,73,62
27300,note_on,0,0,4,,,,,,,,,3,,,68,62
27308,note_on,8,0,4,,,,,,,,,3,,,73,0
27308,note_on,0,0,4,,,,,,,,,3,,,68,0
27308,note_on,0,0,4,,,,,,,,,3,,,65,0
27308,note_on,8,0,1,,,,,,,,,0,,,97,0
27308,note_on,0,0,1,,,,,,,,,0,,,85,0
27308,note_on,0,0,1,,,,,,,,,0,,,89,0
27308,note_on,0,0,1,,,,,,,,,0,,,92,0
27339,note_on,0,0,1,,,,,,,,,0,,,80,75
27339,note_on,0,0,4,,,,,,,,,3,,,61,62
27339,note_on,0,0,4,,,,,,,,,3,,,56,62
27339,note_on,0,0,1,,,,,,,,,0,,,77,75
27339,note_on,0,0,1,,,,,,,,,0,,,85,75
27339,note_on,31,0,1,,,,,,,,,0,,,73,75
27339,note_on,31,0,4,,,,,,,,,3,,,53,62
27347,note_on,8,0,1,,,,,,,,,0,,,85,0
27347,note_on,0,0,4,,,,,,,,,3,,,56,0
27347,note_on,0,0,4,,,,,,,,,3,,,53,0
27347,note_on,8,0,4,,,,,,,,,3,,,61,0
27347,note_on,0,0,1,,,,,,,,,0,,,80,0
27347,note_on,0,0,1,,,,,,,,,0,,,77,0
27347,note_on,0,0,1,,,,,,,,,0,,,73,0
27380,note_on,0,0,1,,,,,,,,,0,,,73,75
27380,note_on,0,0,4,,,,,,,,,3,,,49,62
27380,note_on,0,0,4,,,,,,,,,3,,,44,62
27380,note_on,0,0,4,,,,,,,,,3,,,41,62
27380,note_on,0,0,1,,,,,,,,,0,,,61,75
27380,note_on,0,0,1,,,,,,,,,0,,,68,75
27380,control_change,33,0,4,,,,,,,,,3,64,0,,
27380,control_change,33,0,1,,,,,,,,,0,64,0,,
27380,note_on,0,0,1,,,,,,,,,0,,,65,75
27388,note_on,8,0,1,,,,,,,,,0,,,73,0
27388,note_on,0,0,1,,,,,,,,,0,,,68,0
27388,note_on,0,0,1,,,,,,,,,0,,,65,0
27388,note_on,0,0,1,,,,,,,,,0,,,61,0
27388,note_on,8,0,4,,,,,,,,,3,,,49,0
27388,note_on,0,0,4,,,,,,,,,3,,,41,0
27388,note_on,0,0,4,,,,,,,,,3,,,44,0
27419,note_on,240,0,2,,,,,,,,,1,,,73,0
27419,note_on,0,0,2,,,,,,,,,1,,,75,127
27420,note_on,0,0,1,,,,,,,,,0,,,73,75
27420,note_on,0,0,4,,,,,,,,,3,,,43,62
27420,note_on,0,0,1,,,,,,,,,0,,,63,75
27420,note_on,0,0,1,,,,,,,,,0,,,70,75
27420,note_on,0,0,4,,,,,,,,,3,,,46,62
27420,control_change,32,0,4,,,,,,,,,3,64,127,,
27420,control_change,32,0,1,,,,,,,,,0,64,127,,
27420,note_on,0,0,3,,,,,,,,,2,,,51,127
27420,note_on,240,0,3,,,,,,,,,2,,,49,0
27428,note_on,0,0,1,,,,,,,,,0,,,70,0
27428,note_on,0,0,1,,,,,,,,,0,,,63,0
27428,note_on,8,0,4,,,,,,,,,3,,,46,0
27428,note_on,8,0,1,,,,,,,,,0,,,73,0
27428,note_on,0,0,4,,,,,,,,,3,,,43,0
27459,note_on,31,0,4,,,,,,,,,3,,,55,62
27459,note_on,0,0,1,,,,,,,,,0,,,82,75
27459,note_on,0,0,1,,,,,,,,,0,,,87,75
27459,note_on,0,0,4,,,,,,,,,3,,,58,62
27459,note_on,31,0,1,,,,,,,,,0,,,75,75
27459,note_on,0,0,1,,,,,,,,,0,,,85,75
27459,note_on,0,0,4,,,,,,,,,3,,,63,62
27467,note_on,0,0,1,,,,,,,,,0,,,75,0
27467,note_on,0,0,4,,,,,,,,,3,,,55,0
27467,note_on,0,0,1,,,,,,,,,0,,,82,0
27467,note_on,8,0,4,,,,,,,,,3,,,63,0
27467,note_on,8,0,1,,,,,,,,,0,,,87,0
27467,note_on,0,0,4,,,,,,,,,3,,,58,0
27467,note_on,0,0,1,,,,,,,,,0,,,85,0
27519,note_on,0,0,4,,,,,,,,,3,,,75,62
27519,note_on,0,0,1,,,,,,,,,0,,,99,75
27519,note_on,0,0,1,,,,,,,,,0,,,94,75
27519,note_on,0,0,1,,,,,,,,,0,,,97,75
27519,note_on,52,0,4,,,,,,,,,3,,,67,62
27519,note_on,52,0,1,,,,,,,,,0,,,87,75
27519,note_on,0,0,4,,,,,,,,,3,,,70,62
27523,note_on,4,0,1,,,,,,,,,0,,,99,0
27523,note_on,4,0,4,,,,,,,,,3,,,75,0
27523,note_on,0,0,1,,,,,,,,,0,,,87,0
27523,note_on,0,0,1,,,,,,,,,0,,,94,0
27523,note_on,0,0,1,,,,,,,,,0,,,97,0
27523,note_on,0,0,4,,,,,,,,,3,,,67,0
27523,note_on,0,0,4,,,,,,,,,3,,,70,0
27540,note_on,17,0,4,,,,,,,,,3,,,67,62
27540,note_on,0,0,4,,,,,,,,,3,,,70,62
27540,note_on,0,0,1,,,,,,,,,0,,,99,75
27540,note_on,0,0,4,,,,,,,,,3,,,75,62
27540,note_on,0,0,1,,,,,,,,,0,,,97,75
27540,note_on,0,0,1,,,,,,,,,0,,,94,75
27540,note_on,17,0,1,,,,,,,,,0,,,87,75
27548,note_on,0,0,1,,,,,,,,,0,,,94,0
27548,note_on,0,0,4,,,,,,,,,3,,,67,0
27548,note_on,0,0,1,,,,,,,,,0,,,97,0
27548,note_on,0,0,4,,,,,,,,,3,,,70,0
27548,note_on,8,0,1,,,,,,,,,0,,,99,0
27548,note_on,8,0,4,,,,,,,,,3,,,75,0
27548,note_on,0,0,1,,,,,,,,,0,,,87,0
27579,note_on,0,0,4,,,,,,,,,3,,,58,62
27579,note_on,0,0,4,,,,,,,,,3,,,63,62
27579,note_on,31,0,4,,,,,,,,,3,,,55,62
27579,note_on,0,0,1,,,,,,,,,0,,,87,75
27579,note_on,0,0,1,,,,,,,,,0,,,85,75
27579,note_on,31,0,1,,,,,,,,,0,,,75,75
27579,note_on,0,0,1,,,,,,,,,0,,,82,75
27587,note_on,0,0,1,,,,,,,,,0,,,75,0
27587,note_on,8,0,1,,,,,,,,,0,,,87,0
27587,note_on,8,0,4,,,,,,,,,3,,,63,0
27587,note_on,0,0,4,,,,,,,,,3,,,55,0
27587,note_on,0,0,4,,,,,,,,,3,,,58,0
27587,note_on,0,0,1,,,,,,,,,0,,,85,0
27587,note_on,0,0,1,,,,,,,,,0,,,82,0
27620,note_on,0,0,4,,,,,,,,,3,,,51,62
27620,note_on,0,0,4,,,,,,,,,3,,,46,62
27620,note_on,0,0,1,,,,,,,,,0,,,73,75
27620,note_on,0,0,4,,,,,,,,,3,,,43,62
27620,note_on,0,0,1,,,,,,,,,0,,,70,75
27620,control_change,33,0,1,,,,,,,,,0,64,0,,
27620,note_on,0,0,1,,,,,,,,,0,,,63,75
27620,control_change,33,0,4,,,,,,,,,3,64,0,,
27620,note_on,0,0,1,,,,,,,,,0,,,75,75
27628,note_on,8,0,1,,,,,,,,,0,,,75,0
27628,note_on,0,0,4,,,,,,,,,3,,,43,0
27628,note_on,0,0,4,,,,,,,,,3,,,46,0
27628,note_on,8,0,4,,,,,,,,,3,,,51,0
27628,note_on,0,0,1,,,,,,,,,0,,,73,0
27628,note_on,0,0,1,,,,,,,,,0,,,70,0
27628,note_on,0,0,1,,,,,,,,,0,,,63,0
27659,note_on,240,0,2,,,,,,,,,1,,,75,0
27659,note_on,0,0,2,,,,,,,,,1,,,72,127
27660,note_on,32,0,4,,,,,,,,,3,,,44,62
27660,note_on,32,0,1,,,,,,,,,0,,,60,75
27660,note_on,240,0,3,,,,,,,,,2,,,51,0
27660,note_on,0,0,1,,,,,,,,,0,,,63,75
27660,note_on,0,0,3,,,,,,,,,2,,,48,127
27668,note_on,8,0,4,,,,,,,,,3,,,44,0
27668,note_on,8,0,1,,,,,,,,,0,,,63,0
27668,note_on,0,0,1,,,,,,,,,0,,,60,0
27699,note_on,31,0,4,,,,,,,,,3,,,56,62
27699,note_on,31,0,1,,,,,,,,,0,,,72,75
27699,note_on,0,0,1,,,,,,,,,0,,,84,75
27699,note_on,0,0,1,,,,,,,,,0,,,75,75
27699,note_on,0,0,4,,,,,,,,,3,,,60,62
27707,note_on,0,0,4,,,,,,,,,3,,,56,0
27707,note_on,8,0,1,,,,,,,,,0,,,84,0
27707,note_on,0,0,1,,,,,,,,,0,,,75,0
27707,note_on,0,0,1,,,,,,,,,0,,,72,0
27707,note_on,8,0,4,,,,,,,,,3,,,60,0
27740,note_on,0,0,4,,,,,,,,,3,,,72,62
27740,note_on,33,0,1,,,,,,,,,0,,,84,75
27740,note_on,33,0,4,,,,,,,,,3,,,68,62
27740,note_on,0,0,1,,,,,,,,,0,,,96,75
27740,note_on,0,0,1,,,,,,,,,0,,,87,75
27748,note_on,0,0,1,,,,,,,,,0,,,84,0
27748,note_on,8,0,1,,,,,,,,,0,,,96,0
27748,note_on,8,0,4,,,,,,,,,3,,,72,0
27748,note_on,0,0,1,,,,,,,,,0,,,87,0
27748,note_on,0,0,4,,,,,,,,,3,,,68,0
27779,note_on,0,0,2,,,,,,,,,1,,,68,127
27779,note_on,120,0,2,,,,,,,,,1,,,72,0
27780,note_on,0,0,3,,,,,,,,,2,,,44,127
27780,note_on,120,0,3,,,,,,,,,2,,,48,0
27780,note_on,32,0,1,,,,,,,,,0,,,56,75
27780,note_on,32,0,4,,,,,,,,,3,,,36,62
27780,note_on,0,0,1,,,,,,,,,0,,,63,75
27788,note_on,8,0,4,,,,,,,,,3,,,36,0
27788,note_on,8,0,1,,,,,,,,,0,,,63,0
27788,note_on,0,0,1,,,,,,,,,0,,,56,0
27819,note_on,31,0,4,,,,,,,,,3,,,48,62
27819,note_on,31,0,1,,,,,,,,,0,,,68,75
27819,note_on,0,0,4,,,,,,,,,3,,,56,62
27819,note_on,0,0,1,,,,,,,,,0,,,75,75
27819,note_on,0,0,1,,,,,,,,,0,,,80,75
27827,note_on,8,0,4,,,,,,,,,3,,,56,0
27827,note_on,0,0,4,,,,,,,,,3,,,48,0
27827,note_on,0,0,1,,,,,,,,,0,,,68,0
27827,note_on,0,0,1,,,,,,,,,0,,,75,0
27827,note_on,8,0,1,,,,,,,,,0,,,80,0
27860,note_on,33,0,4,,,,,,,,,3,,,60,62
27860,note_on,0,0,4,,,,,,,,,3,,,68,62
27860,note_on,33,0,1,,,,,,,,,0,,,80,75
27860,note_on,0,0,1,,,,,,,,,0,,,92,75
27860,note_on,0,0,1,,,,,,,,,0,,,87,75
27868,note_on,0,0,1,,,,,,,,,0,,,87,0
27868,note_on,0,0,4,,,,,,,,,3,,,60,0
27868,note_on,8,0,1,,,,,,,,,0,,,92,0
27868,note_on,8,0,4,,,,,,,,,3,,,68,0
27868,note_on,0,0,1,,,,,,,,,0,,,80,0
27899,note_on,120,0,2,,,,,,,,,1,,,68,0
27899,note_on,0,0,2,,,,,,,,,1,,,53,127
27899,note_on,0,0,2,,,,,,,,,1,,,61,127
27900,note_on,0,0,3,,,,,,,,,2,,,41,127
27900,note_on,32,0,4,,,,,,,,,3,,,37,62
27900,note_on,120,0,3,,,,,,,,,2,,,44,0
27900,note_on,32,0,1,,,,,,,,,0,,,65,75
27939,note_on,39,0,1,,,,,,,,,0,,,65,75
27939,note_on,0,0,4,,,,,,,,,3,,,53,62
27939,note_on,39,0,4,,,,,,,,,3,,,49,62
27939,note_on,0,0,1,,,,,,,,,0,,,77,75
27939,note_on,0,0,1,,,,,,,,,0,,,73,75
27940,note_on,1,0,1,,,,,,,,,0,,,65,0
27940,note_on,1,0,4,,,,,,,,,3,,,37,0
27979,note_on,39,0,1,,,,,,,,,0,,,65,0
27979,note_on,0,0,1,,,,,,,,,0,,,73,0
27979,note_on,0,0,1,,,,,,,,,0,,,77,0
27979,note_on,39,0,4,,,,,,,,,3,,,53,0
27979,note_on,0,0,4,,,,,,,,,3,,,49,0
27980,note_on,1,0,1,,,,,,,,,0,,,77,75
27980,note_on,0,0,4,,,,,,,,,3,,,65,62
27980,note_on,0,0,1,,,,,,,,,0,,,89,75
27980,note_on,1,0,4,,,,,,,,,3,,,61,62
27980,note_on,0,0,1,,,,,,,,,0,,,85,75
28019,note_on,120,0,2,,,,,,,,,1,,,61,0
28019,note_on,0,0,2,,,,,,,,,1,,,61,127
28019,note_on,0,0,2,,,,,,,,,1,,,53,127
28019,note_on,0,0,2,,,,,,,,,1,,,53,0
28020,note_on,0,0,1,,,,,,,,,0,,,77,0
28020,note_on,0,0,1,,,,,,,,,0,,,85,0
28020,note_on,40,0,4,,,,,,,,,3,,,65,0
28020,note_on,0,0,1,,,,,,,,,0,,,65,75
28020,note_on,40,0,1,,,,,,,,,0,,,89,0
28020,note_on,0,0,4,,,,,,,,,3,,,61,0
28020,note_on,0,0,3,,,,,,,,,2,,,44,127
28020,note_on,120,0,3,,,,,,,,,2,,,41,0
28020,note_on,0,0,4,,,,,,,,,3,,,37,62
28059,note_on,39,0,4,,,,,,,,,3,,,49,62
28059,note_on,0,0,1,,,,,,,,,0,,,73,75
28059,note_on,39,0,1,,,,,,,,,0,,,65,75
28059,note_on,0,0,4,,,,,,,,,3,,,56,62
28059,note_on,0,0,1,,,,,,,,,0,,,77,75
28060,note_on,1,0,1,,,,,,,,,0,,,65,0
28060,note_on,1,0,4,,,,,,,,,3,,,37,0
28099,note_on,0,0,1,,,,,,,,,0,,,73,0
28099,note_on,0,0,1,,,,,,,,,0,,,77,0
28099,note_on,0,0,4,,,,,,,,,3,,,49,0
28099,note_on,39,0,4,,,,,,,,,3,,,56,0
28099,note_on,39,0,1,,,,,,,,,0,,,65,0
28100,note_on,0,0,4,,,,,,,,,3,,,68,62
28100,note_on,1,0,1,,,,,,,,,0,,,77,75
28100,note_on,1,0,4,,,,,,,,,3,,,61,62
28100,note_on,0,0,1,,,,,,,,,0,,,89,75
28100,note_on,0,0,1,,,,,,,,,0,,,85,75
28139,note_on,0,0,2,,,,,,,,,1,,,58,127
28139,note_on,0,0,2,,,,,,,,,1,,,65,127
28139,note_on,120,0,2,,,,,,,,,1,,,61,0
28139,note_on,0,0,2,,,,,,,,,1,,,53,0
28140,note_on,40,0,4,,,,,,,,,3,,,68,0
28140,note_on,0,0,4,,,,,,,,,3,,,61,0
28140,note_on,0,0,4,,,,,,,,,3,,,41,62
28140,note_on,0,0,4,,,,,,,,,3,,,37,62
28140,note_on,40,0,1,,,,,,,,,0,,,89,0
28140,note_on,0,0,1,,,,,,,,,0,,,70,75
28140,note_on,0,0,1,,,,,,,,,0,,,85,0
28140,note_on,0,0,1,,,,,,,,,0,,,77,0
28140,note_on,0,0,3,,,,,,,,,2,,,46,127
28140,note_on,120,0,3,,,,,,,,,2,,,44,0
28179,note_on,0,0,1,,,,,,,,,0,,,77,75
28179,note_on,39,0,4,,,,,,,,,3,,,49,62
28179,note_on,39,0,1,,,,,,,,,0,,,70,75
28179,note_on,0,0,4,,,,,,,,,3,,,53,62
28179,note_on,0,0,4,,,,,,,,,3,,,58,62
28179,note_on,0,0,1,,,,,,,,,0,,,82,75
28180,note_on,1,0,1,,,,,,,,,0,,,70,0
28180,note_on,1,0,4,,,,,,,,,3,,,41,0
28180,note_on,0,0,4,,,,,,,,,3,,,37,0
28219,note_on,0,0,4,,,,,,,,,3,,,58,0
28219,note_on,39,0,4,,,,,,,,,3,,,53,0
28219,note_on,0,0,4,,,,,,,,,3,,,49,0
28219,note_on,0,0,1,,,,,,,,,0,,,77,0
28219,note_on,0,0,1,,,,,,,,,0,,,82,0
28219,note_on,39,0,1,,,,,,,,,0,,,70,0
28220,note_on,1,0,4,,,,,,,,,3,,,61,62
28220,note_on,0,0,4,,,,,,,,,3,,,65,62
28220,note_on,1,0,1,,,,,,,,,0,,,82,75
28220,note_on,0,0,1,,,,,,,,,0,,,94,75
28220,note_on,0,0,4,,,,,,,,,3,,,70,62
28220,note_on,0,0,1,,,,,,,,,0,,,89,75
28259,note_on,120,0,2,,,,,,,,,1,,,65,0
28259,note_on,0,0,2,,,,,,,,,1,,,65,127
28259,note_on,0,0,2,,,,,,,,,1,,,58,127
28259,note_on,0,0,2,,,,,,,,,1,,,58,0
28260,note_on,40,0,4,,,,,,,,,3,,,70,0
28260,note_on,0,0,3,,,,,,,,,2,,,46,127
28260,note_on,0,0,4,,,,,,,,,3,,,61,0
28260,note_on,120,0,3,,,,,,,,,2,,,46,0
28260,note_on,40,0,1,,,,,,,,,0,,,94,0
28260,note_on,0,0,4,,,,,,,,,3,,,37,62
28260,note_on,0,0,4,,,,,,,,,3,,,65,0
28260,note_on,0,0,1,,,,,,,,,0,,,89,0
28260,note_on,0,0,1,,,,,,,,,0,,,82,0
28260,note_on,0,0,1,,,,,,,,,0,,,70,75
28260,note_on,0,0,4,,,,,,,,,3,,,41,62
28299,note_on,39,0,1,,,,,,,,,0,,,70,75
28299,note_on,0,0,4,,,,,,,,,3,,,53,62
28299,note_on,0,0,4,,,,,,,,,3,,,58,62
28299,note_on,0,0,1,,,,,,,,,0,,,77,75
28299,note_on,39,0,4,,,,,,,,,3,,,49,62
28299,note_on,0,0,1,,,,,,,,,0,,,82,75
28300,note_on,1,0,4,,,,,,,,,3,,,41,0
28300,note_on,0,0,4,,,,,,,,,3,,,37,0
28300,note_on,1,0,1,,,,,,,,,0,,,70,0
28339,note_on,39,0,4,,,,,,,,,3,,,53,0
28339,note_on,0,0,4,,,,,,,,,3,,,49,0
28339,note_on,0,0,4,,,,,,,,,3,,,58,0
28339,note_on,0,0,1,,,,,,,,,0,,,77,0
28339,note_on,0,0,1,,,,,,,,,0,,,82,0
28339,note_on,39,0,1,,,,,,,,,0,,,70,0
28340,note_on,0,0,4,,,,,,,,,3,,,65,62
28340,note_on,1,0,1,,,,,,,,,0,,,82,75
28340,note_on,0,0,1,,,,,,,,,0,,,94,75
28340,note_on,0,0,4,,,,,,,,,3,,,70,62
28340,note_on,0,0,1,,,,,,,,,0,,,89,75
28340,note_on,1,0,4,,,,,,,,,3,,,61,62
28379,note_on,120,0,2,,,,,,,,,1,,,65,0
28379,note_on,0,0,2,,,,,,,,,1,,,72,127
28379,note_on,0,0,2,,,,,,,,,1,,,58,0
28380,note_on,120,0,3,,,,,,,,,2,,,46,0
28380,note_on,0,0,4,,,,,,,,,3,,,65,0
28380,note_on,40,0,4,,,,,,,,,3,,,70,0
28380,note_on,0,0,1,,,,,,,,,0,,,67,75
28380,note_on,0,0,1,,,,,,,,,0,,,64,75
28380,note_on,0,0,1,,,,,,,,,0,,,60,75
28380,note_on,0,0,4,,,,,,,,,3,,,61,0
28380,note_on,0,0,4,,,,,,,,,3,,,48,62
28380,note_on,0,0,4,,,,,,,,,3,,,40,62
28380,note_on,0,0,4,,,,,,,,,3,,,36,62
28380,note_on,0,0,1,,,,,,,,,0,,,89,0
28380,note_on,40,0,1,,,,,,,,,0,,,94,0
28380,note_on,0,0,4,,,,,,,,,3,,,43,62
28380,note_on,0,0,1,,,,,,,,,0,,,82,0
28419,note_on,0,0,1,,,,,,,,,0,,,76,75
28419,note_on,0,0,4,,,,,,,,,3,,,60,62
28419,note_on,0,0,1,,,,,,,,,0,,,79,75
28419,note_on,0,0,1,,,,,,,,,0,,,84,75
28419,note_on,0,0,4,,,,,,,,,3,,,55,62
28419,note_on,39,0,1,,,,,,,,,0,,,72,75
28419,note_on,0,0,4,,,,,,,,,3,,,52,62
28419,note_on,39,0,4,,,,,,,,,3,,,48,62
28420,note_on,0,0,4,,,,,,,,,3,,,40,0
28420,note_on,0,0,4,,,,,,,,,3,,,36,0
28420,note_on,1,0,4,,,,,,,,,3,,,48,0
28420,note_on,0,0,4,,,,,,,,,3,,,43,0
28420,note_on,0,0,1,,,,,,,,,0,,,60,0
28420,note_on,1,0,1,,,,,,,,,0,,,67,0
28420,note_on,0,0,1,,,,,,,,,0,,,64,0
28459,note_on,39,0,4,,,,,,,,,3,,,48,0
28459,note_on,0,0,4,,,,,,,,,3,,,55,0
28459,note_on,0,0,1,,,,,,,,,0,,,84,0
28459,note_on,0,0,4,,,,,,,,,3,,,52,0
28459,note_on,0,0,4,,,,,,,,,3,,,60,0
28459,note_on,39,0,1,,,,,,,,,0,,,76,0
28459,note_on,0,0,1,,,,,,,,,0,,,79,0
28459,note_on,0,0,1,,,,,,,,,0,,,72,0
28479,note_on,0,0,1,,,,,,,,,0,,,91,75
28479,note_on,0,0,1,,,,,,,,,0,,,88,75
28479,note_on,20,0,4,,,,,,,,,3,,,60,62
28479,note_on,0,0,4,,,,,,,,,3,,,72,62
28479,note_on,0,0,4,,,,,,,,,3,,,67,62
28479,note_on,20,0,1,,,,,,,,,0,,,84,75
28479,note_on,0,0,1,,,,,,,,,0,,,96,75
28479,note_on,0,0,4,,,,,,,,,3,,,64,62
28499,note_on,0,0,1,,,,,,,,,0,,,84,0
28499,note_on,0,0,1,,,,,,,,,0,,,88,0
28499,note_on,0,0,1,,,,,,,,,0,,,91,0
28499,note_on,0,0,4,,,,,,,,,3,,,67,0
28499,note_on,0,0,4,,,,,,,,,3,,,60,0
28499,note_on,0,0,4,,,,,,,,,3,,,64,0
28499,note_on,20,0,1,,,,,,,,,0,,,96,0
28499,note_on,20,0,4,,,,,,,,,3,,,72,0
28500,note_on,0,0,4,,,,,,,,,3,,,72,62
28500,note_on,1,0,1,,,,,,,,,0,,,84,75
28500,note_on,0,0,1,,,,,,,,,0,,,88,75
28500,note_on,1,0,4,,,,,,,,,3,,,60,62
28500,note_on,0,0,1,,,,,,,,,0,,,91,75
28500,note_on,0,0,1,,,,,,,,,0,,,96,75
28500,note_on,0,0,4,,,,,,,,,3,,,64,62
28500,note_on,0,0,4,,,,,,,,,3,,,67,62
28539,note_on,0,0,1,,,,,,,,,0,,,76,75
28539,note_on,0,0,4,,,,,,,,,3,,,60,62
28539,note_on,39,0,4,,,,,,,,,3,,,48,62
28539,note_on,0,0,4,,,,,,,,,3,,,52,62
28539,note_on,0,0,1,,,,,,,,,0,,,84,75
28539,note_on,39,0,1,,,,,,,,,0,,,72,75
28539,note_on,0,0,4,,,,,,,,,3,,,55,62
28539,note_on,0,0,1,,,,,,,,,0,,,79,75
28540,note_on,0,0,1,,,,,,,,,0,,,84,0
28540,note_on,0,0,1,,,,,,,,,0,,,88,0
28540,note_on,0,0,1,,,,,,,,,0,,,91,0
28540,note_on,0,0,4,,,,,,,,,3,,,60,0
28540,note_on,0,0,4,,,,,,,,,3,,,67,0
28540,note_on,0,0,4,,,,,,,,,3,,,64,0
28540,note_on,1,0,1,,,,,,,,,0,,,96,0
28540,note_on,1,0,4,,,,,,,,,3,,,72,0
28579,note_on,0,0,1,,,,,,,,,0,,,79,0
28579,note_on,0,0,1,,,,,,,,,0,,,76,0
28579,note_on,39,0,1,,,,,,,,,0,,,72,0
28579,note_on,0,0,1,,,,,,,,,0,,,84,0
28579,note_on,0,0,4,,,,,,,,,3,,,60,0
28579,note_on,39,0,4,,,,,,,,,3,,,48,0
28579,note_on,0,0,4,,,,,,,,,3,,,52,0
28579,note_on,0,0,4,,,,,,,,,3,,,55,0
28580,note_on,0,0,1,,,,,,,,,0,,,64,75
28580,note_on,0,0,1,,,,,,,,,0,,,72,75
28580,note_on,1,0,4,,,,,,,,,3,,,36,62
28580,note_on,0,0,1,,,,,,,,,0,,,67,75
28580,note_on,1,0,1,,,,,,,,,0,,,60,75
28580,note_on,0,0,4,,,,,,,,,3,,,48,62
28580,note_on,0,0,4,,,,,,,,,3,,,43,62
28580,note_on,0,0,4,,,,,,,,,3,,,40,62
28619,note_on,240,0,2,,,,,,,,,1,,,72,0
28620,note_on,0,0,4,,,,,,,,,3,,,40,62
28620,note_on,40,0,4,,,,,,,,,3,,,48,0
28620,note_on,0,0,4,,,,,,,,,3,,,45,62
28620,note_on,0,0,4,,,,,,,,,3,,,33,62
28620,note_on,0,0,4,,,,,,,,,3,,,36,0
28620,note_on,0,0,4,,,,,,,,,3,,,37,62
28620,note_on,0,0,4,,,,,,,,,3,,,43,0
28620,note_on,0,0,4,,,,,,,,,3,,,40,0
28620,note_on,40,0,1,,,,,,,,,0,,,72,0
28620,note_on,0,0,1,,,,,,,,,0,,,64,0
28620,control_change,0,0,1,,,,,,,,,0,64,127,,
28620,note_on,0,0,1,,,,,,,,,0,,,67,0
28620,note_on,0,0,1,,,,,,,,,0,,,60,0
28620,control_change,0,0,4,,,,,,,,,3,64,127,,
28620,note_on,0,0,1,,,,,,,,,0,,,49,101
28633,note_on,0,0,1,,,,,,,,,0,,,52,75
28633,note_on,13,0,1,,,,,,,,,0,,,49,0
28633,note_on,0,0,1,,,,,,,,,0,,,55,75
28646,note_on,0,0,1,,,,,,,,,0,,,61,75
28646,note_on,0,0,1,,,,,,,,,0,,,52,0
28646,note_on,13,0,1,,,,,,,,,0,,,55,0
28659,note_on,39,0,4,,,,,,,,,3,,,45,62
28659,note_on,0,0,4,,,,,,,,,3,,,52,62
28659,note_on,13,0,1,,,,,,,,,0,,,61,0
28659,note_on,0,0,4,,,,,,,,,3,,,57,62
28659,note_on,0,0,1,,,,,,,,,0,,,61,75
28659,note_on,0,0,4,,,,,,,,,3,,,49,62
28660,note_on,0,0,4,,,,,,,,,3,,,33,0
28660,note_on,1,0,4,,,,,,,,,3,,,45,0
28660,note_on,0,0,4,,,,,,,,,3,,,37,0
28660,note_on,0,0,4,,,,,,,,,3,,,40,0
28673,note_on,0,0,1,,,,,,,,,0,,,64,75
28673,note_on,0,0,1,,,,,,,,,0,,,67,75
28673,note_on,14,0,1,,,,,,,,,0,,,61,0
28686,note_on,0,0,1,,,,,,,,,0,,,64,0
28686,note_on,13,0,1,,,,,,,,,0,,,67,0
28686,note_on,0,0,1,,,,,,,,,0,,,73,75
28699,note_on,39,0,4,,,,,,,,,3,,,45,0
28699,note_on,0,0,4,,,,,,,,,3,,,57,0
28699,note_on,0,0,4,,,,,,,,,3,,,52,0
28699,note_on,0,0,4,,,,,,,,,3,,,49,0
28700,note_on,0,0,4,,,,,,,,,3,,,69,62
28700,note_on,0,0,1,,,,,,,,,0,,,73,75
28700,note_on,14,0,1,,,,,,,,,0,,,73,0
28700,note_on,1,0,4,,,,,,,,,3,,,57,62
28700,note_on,0,0,4,,,,,,,,,3,,,61,62
28700,note_on,0,0,4,,,,,,,,,3,,,64,62
28713,note_on,0,0,1,,,,,,,,,0,,,76,75
28713,note_on,0,0,1,,,,,,,,,0,,,79,75
28713,note_on,13,0,1,,,,,,,,,0,,,73,0
28726,note_on,0,0,1,,,,,,,,,0,,,85,75
28726,note_on,0,0,1,,,,,,,,,0,,,76,0
28726,note_on,13,0,1,,,,,,,,,0,,,79,0
28740,note_on,0,0,1,,,,,,,,,0,,,97,101
28740,note_on,0,0,4,,,,,,,,,3,,,57,0
28740,note_on,40,0,4,,,,,,,,,3,,,69,0
28740,note_on,0,0,4,,,,,,,,,3,,,69,62
28740,note_on,14,0,1,,,,,,,,,0,,,85,0
28740,note_on,0,0,4,,,,,,,,,3,,,61,0
28740,note_on,0,0,4,,,,,,,,,3,,,81,62
28740,note_on,0,0,4,,,,,,,,,3,,,76,62
28740,note_on,0,0,4,,,,,,,,,3,,,73,62
28740,note_on,0,0,4,,,,,,,,,3,,,64,0
28753,note_on,13,0,1,,,,,,,,,0,,,97,0
28753,note_on,0,0,1,,,,,,,,,0,,,91,75
28753,note_on,0,0,1,,,,,,,,,0,,,88,75
28766,note_on,0,0,1,,,,,,,,,0,,,88,0
28766,note_on,13,0,1,,,,,,,,,0,,,91,0
28766,note_on,0,0,1,,,,,,,,,0,,,85,75
28779,note_on,0,0,1,,,,,,,,,0,,,85,75
28779,note_on,13,0,1,,,,,,,,,0,,,85,0
28779,note_on,0,0,4,,,,,,,,,3,,,69,62
28779,note_on,0,0,4,,,,,,,,,3,,,64,62
28779,note_on,0,0,4,,,,,,,,,3,,,61,62
28779,note_on,39,0,4,,,,,,,,,3,,,57,62
28780,note_on,0,0,4,,,,,,,,,3,,,69,0
28780,note_on,0,0,4,,,,,,,,,3,,,76,0
28780,note_on,0,0,4,,,,,,,,,3,,,73,0
28780,note_on,1,0,4,,,,,,,,,3,,,81,0
28793,note_on,14,0,1,,,,,,,,,0,,,85,0
28793,note_on,0,0,1,,,,,,,,,0,,,79,75
28793,note_on,0,0,1,,,,,,,,,0,,,76,75
28806,note_on,13,0,1,,,,,,,,,0,,,79,0
28806,note_on,0,0,1,,,,,,,,,0,,,73,75
28806,note_on,0,0,1,,,,,,,,,0,,,76,0
28819,note_on,0,0,4,,,,,,,,,3,,,61,0
28819,note_on,0,0,4,,,,,,,,,3,,,69,0
28819,note_on,39,0,4,,,,,,,,,3,,,57,0
28819,note_on,0,0,4,,,,,,,,,3,,,64,0
28820,control_change,1,0,4,,,,,,,,,3,64,0,,
28820,note_on,0,0,4,,,,,,,,,3,,,57,62
28820,note_on,0,0,4,,,,,,,,,3,,,52,62
28820,note_on,14,0,1,,,,,,,,,0,,,73,0
28820,note_on,0,0,4,,,,,,,,,3,,,45,62
28820,note_on,0,0,4,,,,,,,,,3,,,49,62
28820,note_on,0,0,1,,,,,,,,,0,,,73,75
28833,note_on,13,0,1,,,,,,,,,0,,,73,0
28833,note_on,0,0,1,,,,,,,,,0,,,64,75
28833,note_on,0,0,1,,,,,,,,,0,,,67,75
28846,note_on,0,0,1,,,,,,,,,0,,,64,0
28846,note_on,0,0,1,,,,,,,,,0,,,61,75
28846,note_on,13,0,1,,,,,,,,,0,,,67,0
28846,control_change,0,0,1,,,,,,,,,0,64,0,,
28860,note_on,14,0,1,,,,,,,,,0,,,61,0
28860,note_on,0,0,1,,,,,,,,,0,,,50,75
28860,note_on,0,0,3,,,,,,,,,2,,,41,101
28860,note_on,0,0,4,,,,,,,,,3,,,52,0
28860,note_on,0,0,4,,,,,,,,,3,,,49,0
28860,note_on,0,0,4,,,,,,,,,3,,,45,0
28860,control_change,0,0,1,,,,,,,,,0,64,127,,
28860,note_on,40,0,4,,,,,,,,,3,,,57,0
28860,control_change,480,0,3,,,,,,,,,2,64,127,,
28860,note_on,0,0,3,,,,,,,,,2,,,34,101
28860,note_on,0,0,3,,,,,,,,,2,,,38,101
28860,note_on,0,0,3,,,,,,,,,2,,,46,101
28873,note_on,13,0,1,,,,,,,,,0,,,50,0
28873,note_on,0,0,1,,,,,,,,,0,,,58,75
28873,note_on,0,0,1,,,,,,,,,0,,,53,75
28886,note_on,0,0,1,,,,,,,,,0,,,53,0
28886,note_on,13,0,1,,,,,,,,,0,,,58,0
28886,note_on,0,0,1,,,,,,,,,0,,,62,75
28899,note_on,39,0,3,,,,,,,,,2,,,46,101
28899,note_on,13,0,1,,,,,,,,,0,,,62,0
28899,note_on,0,0,3,,,,,,,,,2,,,58,101
28899,note_on,0,0,3,,,,,,,,,2,,,53,101
28899,note_on,0,0,1,,,,,,,,,0,,,62,75
28899,note_on,0,0,3,,,,,,,,,2,,,50,101
28900,note_on,0,0,3,,,,,,,,,2,,,38,0
28900,note_on,0,0,3,,,,,,,,,2,,,34,0
28900,note_on,0,0,3,,,,,,,,,2,,,41,0
28900,note_on,1,0,3,,,,,,,,,2,,,46,0
28913,note_on,0,0,1,,,,,,,,,0,,,65,75
28913,note_on,0,0,1,,,,,,,,,0,,,70,75
28913,note_on,14,0,1,,,,,,,,,0,,,62,0
28926,note_on,0,0,1,,,,,,,,,0,,,65,0
28926,note_on,13,0,1,,,,,,,,,0,,,70,0
28926,note_on,0,0,1,,,,,,,,,0,,,74,75
28939,note_on,0,0,3,,,,,,,,,2,,,53,0
28939,note_on,0,0,3,,,,,,,,,2,,,50,0
28939,note_on,0,0,3,,,,,,,,,2,,,58,0
28939,note_on,39,0,3,,,,,,,,,2,,,46,0
28940,note_on,0,0,3,,,,,,,,,2,,,62,101
28940,note_on,14,0,1,,,,,,,,,0,,,74,0
28940,note_on,0,0,3,,,,,,,,,2,,,65,101
28940,note_on,0,0,3,,,,,,,,,2,,,70,101
28940,note_on,0,0,1,,,,,,,,,0,,,74,75
28940,note_on,1,0,3,,,,,,,,,2,,,58,101
28953,note_on,13,0,1,,,,,,,,,0,,,74,0
28953,note_on,0,0,1,,,,,,,,,0,,,77,75
28953,note_on,0,0,1,,,,,,,,,0,,,82,75
28966,note_on,13,0,1,,,,,,,,,0,,,82,0
28966,note_on,0,0,1,,,,,,,,,0,,,77,0
28966,note_on,0,0,1,,,,,,,,,0,,,86,75
28980,note_on,14,0,1,,,,,,,,,0,,,86,0
28980,note_on,0,0,1,,,,,,,,,0,,,98,101
28980,note_on,0,0,3,,,,,,,,,2,,,65,0
28980,note_on,0,0,3,,,,,,,,,2,,,58,0
28980,note_on,40,0,3,,,,,,,,,2,,,70,0
28980,note_on,0,0,3,,,,,,,,,2,,,82,101
28980,note_on,0,0,3,,,,,,,,,2,,,77,101
28980,note_on,0,0,3,,,,,,,,,2,,,74,101
28980,note_on,0,0,3,,,,,,,,,2,,,70,101
28980,note_on,0,0,3,,,,,,,,,2,,,62,0
28993,note_on,13,0,1,,,,,,,,,0,,,98,0
28993,note_on,0,0,1,,,,,,,,,0,,,94,75
28993,note_on,0,0,1,,,,,,,,,0,,,89,75
29006,note_on,13,0,1,,,,,,,,,0,,,94,0
29006,note_on,0,0,1,,,,,,,,,0,,,89,0
29006,note_on,0,0,1,,,,,,,,,0,,,86,75
29019,note_on,0,0,3,,,,,,,,,2,,,70,101
29019,note_on,0,0,3,,,,,,,,,2,,,65,101
29019,note_on,0,0,3,,,,,,,,,2,,,62,101
29019,note_on,39,0,3,,,,,,,,,2,,,58,101
29019,note_on,0,0,1,,,,,,,,,0,,,86,75
29019,note_on,13,0,1,,,,,,,,,0,,,86,0
29020,note_on,1,0,3,,,,,,,,,2,,,82,0
29020,note_on,0,0,3,,,,,,,,,2,,,70,0
29020,note_on,0,0,3,,,,,,,,,2,,,74,0
29020,note_on,0,0,3,,,,,,,,,2,,,77,0
29033,note_on,14,0,1,,,,,,,,,0,,,86,0
29033,note_on,0,0,1,,,,,,,,,0,,,77,75
29033,note_on,0,0,1,,,,,,,,,0,,,82,75
29046,note_on,0,0,1,,,,,,,,,0,,,74,75
29046,note_on,0,0,1,,,,,,,,,0,,,77,0
29046,note_on,13,0,1,,,,,,,,,0,,,82,0
29059,note_on,39,0,3,,,,,,,,,2,,,58,0
29059,note_on,0,0,3,,,,,,,,,2,,,62,0
29059,note_on,0,0,3,,,,,,,,,2,,,70,0
29059,note_on,0,0,3,,,,,,,,,2,,,65,0
29060,note_on,0,0,1,,,,,,,,,0,,,74,75
29060,note_on,0,0,3,,,,,,,,,2,,,58,101
29060,note_on,0,0,3,,,,,,,,,2,,,53,101
29060,control_change,1,0,3,,,,,,,,,2,64,0,,
29060,note_on,0,0,3,,,,,,,,,2,,,50,101
29060,note_on,0,0,3,,,,,,,,,2,,,46,101
29060,note_on,14,0,1,,,,,,,,,0,,,74,0
29073,note_on,0,0,1,,,,,,,,,0,,,65,75
29073,note_on,0,0,1,,,,,,,,,0,,,70,75
29073,note_on,13,0,1,,,,,,,,,0,,,74,0
29086,note_on,0,0,1,,,,,,,,,0,,,65,0
29086,note_on,0,0,1,,,,,,,,,0,,,62,75
29086,control_change,0,0,1,,,,,,,,,0,64,0,,
29086,note_on,13,0,1,,,,,,,,,0,,,70,0
29100,note_on,14,0,1,,,,,,,,,0,,,62,0
29100,note_on,0,0,3,,,,,,,,,2,,,36,101
29100,note_on,40,0,3,,,,,,,,,2,,,58,0
29100,note_on,0,0,3,,,,,,,,,2,,,50,0
29100,note_on,0,0,3,,,,,,,,,2,,,48,101
29100,note_on,0,0,3,,,,,,,,,2,,,40,101
29100,note_on,0,0,3,,,,,,,,,2,,,43,101
29100,note_on,0,0,3,,,,,,,,,2,,,53,0
29100,note_on,0,0,3,,,,,,,,,2,,,46,0
29100,note_on,0,0,1,,,,,,,,,0,,,52,75
29100,control_change,0,0,3,,,,,,,,,2,64,127,,
29100,control_change,0,0,1,,,,,,,,,0,64,127,,
29113,note_on,0,0,1,,,,,,,,,0,,,60,75
29113,note_on,0,0,1,,,,,,,,,0,,,55,75
29113,note_on,13,0,1,,,,,,,,,0,,,52,0
29126,note_on,0,0,1,,,,,,,,,0,,,64,75
29126,note_on,0,0,1,,,,,,,,,0,,,55,0
29126,note_on,13,0,1,,,,,,,,,0,,,60,0
29139,note_on,39,0,3,,,,,,,,,2,,,52,101
29139,note_on,0,0,3,,,,,,,,,2,,,55,101
29139,note_on,13,0,1,,,,,,,,,0,,,64,0
29139,note_on,0,0,1,,,,,,,,,0,,,64,75
29139,note_on,0,0,3,,,,,,,,,2,,,60,101
29140,note_on,0,0,3,,,,,,,,,2,,,40,0
29140,note_on,0,0,3,,,,,,,,,2,,,36,0
29140,note_on,1,0,3,,,,,,,,,2,,,48,0
29140,note_on,0,0,3,,,,,,,,,2,,,43,0
29153,note_on,14,0,1,,,,,,,,,0,,,64,0
29153,note_on,0,0,1,,,,,,,,,0,,,72,75
29153,note_on,0,0,1,,,,,,,,,0,,,67,75
29166,note_on,0,0,1,,,,,,,,,0,,,76,75
29166,note_on,0,0,1,,,,,,,,,0,,,67,0
29166,note_on,13,0,1,,,,,,,,,0,,,72,0
29179,note_on,39,0,3,,,,,,,,,2,,,60,0
29179,note_on,0,0,3,,,,,,,,,2,,,55,0
29179,note_on,0,0,3,,,,,,,,,2,,,52,0
29180,note_on,14,0,1,,,,,,,,,0,,,76,0
29180,note_on,0,0,3,,,,,,,,,2,,,67,101
29180,note_on,1,0,3,,,,,,,,,2,,,64,101
29180,note_on,0,0,1,,,,,,,,,0,,,76,75
29180,note_on,0,0,3,,,,,,,,,2,,,72,101
29193,note_on,13,0,1,,,,,,,,,0,,,76,0
29193,note_on,0,0,1,,,,,,,,,0,,,79,75
29193,note_on,0,0,1,,,,,,,,,0,,,84,75
29206,note_on,0,0,1,,,,,,,,,0,,,88,75
29206,note_on,13,0,1,,,,,,,,,0,,,84,0
29206,note_on,0,0,1,,,,,,,,,0,,,79,0
29220,note_on,0,0,3,,,,,,,,,2,,,64,0
29220,note_on,0,0,3,,,,,,,,,2,,,84,101
29220,note_on,0,0,3,,,,,,,,,2,,,67,0
29220,note_on,14,0,1,,,,,,,,,0,,,88,0
29220,note_on,0,0,1,,,,,,,,,0,,,100,101
29220,note_on,40,0,3,,,,,,,,,2,,,72,0
29220,note_on,0,0,3,,,,,,,,,2,,,79,101
29220,note_on,0,0,3,,,,,,,,,2,,,76,101
29233,note_on,0,0,1,,,,,,,,,0,,,91,75
29233,note_on,13,0,1,,,,,,,,,0,,,100,0
29233,note_on,0,0,1,,,,,,,,,0,,,96,75
29246,note_on,13,0,1,,,,,,,,,0,,,96,0
29246,note_on,0,0,1,,,,,,,,,0,,,88,75
29246,note_on,0,0,1,,,,,,,,,0,,,91,0
29259,note_on,0,0,3,,,,,,,,,2,,,67,101
29259,note_on,39,0,3,,,,,,,,,2,,,64,101
29259,note_on,0,0,3,,,,,,,,,2,,,72,101
29259,note_on,0,0,1,,,,,,,,,0,,,88,75
29259,note_on,13,0,1,,,,,,,,,0,,,88,0
29260,note_on,1,0,3,,,,,,,,,2,,,84,0
29260,note_on,0,0,3,,,,,,,,,2,,,76,0
29260,note_on,0,0,3,,,,,,,,,2,,,79,0
29273,note_on,0,0,1,,,,,,,,,0,,,84,75
29273,note_on,14,0,1,,,,,,,,,0,,,88,0
29273,note_on,0,0,1,,,,,,,,,0,,,79,75
29286,note_on,13,0,1,,,,,,,,,0,,,84,0
29286,note_on,0,0,1,,,,,,,,,0,,,79,0
29286,note_on,0,0,1,,,,,,,,,0,,,76,75
29299,note_on,39,0,3,,,,,,,,,2,,,64,0
29299,note_on,0,0,3,,,,,,,,,2,,,67,0
29299,note_on,0,0,3,,,,,,,,,2,,,72,0
29300,note_on,14,0,1,,,,,,,,,0,,,76,0
29300,note_on,0,0,1,,,,,,,,,0,,,76,75
29300,note_on,0,0,3,,,,,,,,,2,,,60,101
29300,note_on,0,0,3,,,,,,,,,2,,,55,101
29300,note_on,0,0,3,,,,,,,,,2,,,48,101
29300,note_on,0,0,3,,,,,,,,,2,,,52,101
29300,control_change,1,0,3,,,,,,,,,2,64,0,,
29313,note_on,0,0,1,,,,,,,,,0,,,72,75
29313,note_on,13,0,1,,,,,,,,,0,,,76,0
29313,note_on,0,0,1,,,,,,,,,0,,,67,75
29326,note_on,0,0,1,,,,,,,,,0,,,64,75
29326,note_on,0,0,1,,,,,,,,,0,,,67,0
29326,control_change,0,0,1,,,,,,,,,0,64,0,,
29326,note_on,13,0,1,,,,,,,,,0,,,72,0
29340,note_on,0,0,3,,,,,,,,,2,,,55,0
29340,control_change,0,0,3,,,,,,,,,2,64,127,,
29340,note_on,0,0,1,,,,,,,,,0,,,53,101
29340,note_on,40,0,3,,,,,,,,,2,,,60,0
29340,note_on,0,0,3,,,,,,,,,2,,,52,0
29340,note_on,0,0,3,,,,,,,,,2,,,48,0
29340,control_change,0,0,1,,,,,,,,,0,64,127,,
29340,note_on,0,0,3,,,,,,,,,2,,,41,101
29340,note_on,0,0,3,,,,,,,,,2,,,36,101
29340,note_on,0,0,3,,,,,,,,,2,,,33,101
29340,note_on,14,0,1,,,,,,,,,0,,,64,0
29340,note_on,0,0,3,,,,,,,,,2,,,45,101
29353,note_on,0,0,1,,,,,,,,,0,,,57,75
29353,note_on,0,0,1,,,,,,,,,0,,,60,75
29353,note_on,13,0,1,,,,,,,,,0,,,53,0
29366,note_on,13,0,1,,,,,,,,,0,,,60,0
29366,note_on,0,0,1,,,,,,,,,0,,,65,75
29366,note_on,0,0,1,,,,,,,,,0,,,57,0
29379,note_on,0,0,3,,,,,,,,,2,,,57,101
29379,note_on,39,0,3,,,,,,,,,2,,,45,101
29379,note_on,0,0,3,,,,,,,,,2,,,48,101
29379,note_on,0,0,1,,,,,,,,,0,,,65,75
29379,note_on,13,0,1,,,,,,,,,0,,,65,0
29379,note_on,0,0,3,,,,,,,,,2,,,53,101
29380,note_on,0,0,3,,,,,,,,,2,,,41,0
29380,note_on,1,0,3,,,,,,,,,2,,,45,0
29380,note_on,0,0,3,,,,,,,,,2,,,36,0
29380,note_on,0,0,3,,,,,,,,,2,,,33,0
29393,note_on,0,0,1,,,,,,,,,0,,,72,75
29393,note_on,0,0,1,,,,,,,,,0,,,69,75
29393,note_on,14,0,1,,,,,,,,,0,,,65,0
29406,note_on,0,0,1,,,,,,,,,0,,,69,0
29406,note_on,0,0,1,,,,,,,,,0,,,77,75
29406,note_on,13,0,1,,,,,,,,,0,,,72,0
29419,note_on,0,0,3,,,,,,,,,2,,,48,0
29419,note_on,0,0,3,,,,,,,,,2,,,53,0
29419,note_on,0,0,3,,,,,,,,,2,,,57,0
29419,note_on,39,0,3,,,,,,,,,2,,,45,0
29420,control_change,1,0,3,,,,,,,,,2,64,0,,
29420,note_on,0,0,1,,,,,,,,,0,,,77,75
29420,note_on,14,0,1,,,,,,,,,0,,,77,0
29420,note_on,0,0,3,,,,,,,,,2,,,69,101
29420,note_on,0,0,3,,,,,,,,,2,,,57,101
29420,note_on,0,0,3,,,,,,,,,2,,,65,101
29420,note_on,0,0,3,,,,,,,,,2,,,60,101
29433,note_on,0,0,1,,,,,,,,,0,,,84,75
29433,note_on,0,0,1,,,,,,,,,0,,,81,75
29433,note_on,13,0,1,,,,,,,,,0,,,77,0
29446,note_on,0,0,1,,,,,,,,,0,,,89,75
29446,note_on,0,0,1,,,,,,,,,0,,,81,0
29446,note_on,13,0,1,,,,,,,,,0,,,84,0
29446,control_change,0,0,1,,,,,,,,,0,64,0,,
29460,note_on,40,0,3,,,,,,,,,2,,,69,0
29460,control_change,0,0,1,,,,,,,,,0,64,127,,
29460,note_on,0,0,3,,,,,,,,,2,,,60,0
29460,note_on,0,0,1,,,,,,,,,0,,,101,101
29460,note_on,0,0,3,,,,,,,,,2,,,29,101
29460,control_change,0,0,3,,,,,,,,,2,64,127,,
29460,note_on,0,0,3,,,,,,,,,2,,,33,101
29460,note_on,14,0,1,,,,,,,,,0,,,89,0
29460,note_on,0,0,3,,,,,,,,,2,,,36,101
29460,note_on,0,0,3,,,,,,,,,2,,,41,101
29460,note_on,0,0,3,,,,,,,,,2,,,57,0
29460,note_on,0,0,3,,,,,,,,,2,,,65,0
29473,note_on,0,0,1,,,,,,,,,0,,,96,75
29473,note_on,0,0,1,,,,,,,,,0,,,93,75
29473,note_on,13,0,1,,,,,,,,,0,,,101,0
29486,note_on,0,0,1,,,,,,,,,0,,,89,75
29486,note_on,0,0,1,,,,,,,,,0,,,93,0
29486,note_on,13,0,1,,,,,,,,,0,,,96,0
29499,note_on,39,0,3,,,,,,,,,2,,,41,101
29499,note_on,13,0,1,,,,,,,,,0,,,89,0
29499,note_on,0,0,3,,,,,,,,,2,,,45,101
29499,note_on,0,0,3,,,,,,,,,2,,,48,101
29499,note_on,0,0,3,,,,,,,,,2,,,53,101
29499,note_on,0,0,1,,,,,,,,,0,,,89,75
29500,note_on,0,0,3,,,,,,,,,2,,,33,0
29500,note_on,1,0,3,,,,,,,,,2,,,41,0
29500,note_on,0,0,3,,,,,,,,,2,,,29,0
29500,note_on,0,0,3,,,,,,,,,2,,,36,0
29513,note_on,0,0,1,,,,,,,,,0,,,81,75
29513,note_on,14,0,1,,,,,,,,,0,,,89,0
29513,note_on,0,0,1,,,,,,,,,0,,,84,75
29526,note_on,0,0,1,,,,,,,,,0,,,77,75
29526,note_on,13,0,1,,,,,,,,,0,,,84,0
29526,note_on,0,0,1,,,,,,,,,0,,,81,0
29539,note_on,39,0,3,,,,,,,,,2,,,41,0
29539,note_on,0,0,3,,,,,,,,,2,,,53,0
29539,note_on,0,0,3,,,,,,,,,2,,,48,0
29539,note_on,0,0,3,,,,,,,,,2,,,45,0
29540,control_change,1,0,3,,,,,,,,,2,64,0,,
29540,note_on,14,0,1,,,,,,,,,0,,,77,0
29540,note_on,0,0,1,,,,,,,,,0,,,77,75
29540,note_on,0,0,3,,,,,,,,,2,,,57,101
29540,note_on,0,0,3,,,,,,,,,2,,,60,101
29540,note_on,0,0,3,,,,,,,,,2,,,65,101
29540,note_on,0,0,3,,,,,,,,,2,,,53,101
29553,note_on,13,0,1,,,,,,,,,0,,,77,0
29553,note_on,0,0,1,,,,,,,,,0,,,72,75
29553,note_on,0,0,1,,,,,,,,,0,,,69,75
29566,control_change,0,0,1,,,,,,,,,0,64,0,,
29566,note_on,0,0,1,,,,,,,,,0,,,65,75
29566,note_on,13,0,1,,,,,,,,,0,,,72,0
29566,note_on,0,0,1,,,,,,,,,0,,,69,0
29580,note_on,0,0,1,,,,,,,,,0,,,86,101
29580,note_on,0,0,1,,,,,,,,,0,,,98,101
29580,note_on,40,0,3,,,,,,,,,2,,,65,0
29580,note_on,0,0,3,,,,,,,,,2,,,60,0
29580,note_on,14,0,1,,,,,,,,,0,,,65,0
29580,control_change,0,0,3,,,,,,,,,2,64,127,,
29580,note_on,0,0,3,,,,,,,,,2,,,34,101
29580,note_on,0,0,3,,,,,,,,,2,,,38,101
29580,note_on,0,0,3,,,,,,,,,2,,,41,101
29580,note_on,0,0,3,,,,,,,,,2,,,46,101
29580,note_on,0,0,3,,,,,,,,,2,,,53,0
29580,note_on,0,0,3,,,,,,,,,2,,,57,0
29580,control_change,0,0,1,,,,,,,,,0,64,127,,
29593,note_on,0,0,1,,,,,,,,,0,,,94,75
29593,note_on,13,0,1,,,,,,,,,0,,,98,0
29593,note_on,0,0,1,,,,,,,,,0,,,86,0
29593,note_on,0,0,1,,,,,,,,,0,,,89,75
29606,note_on,0,0,1,,,,,,,,,0,,,86,75
29606,note_on,0,0,1,,,,,,,,,0,,,89,0
29606,note_on,13,0,1,,,,,,,,,0,,,94,0
29619,note_on,0,0,1,,,,,,,,,0,,,86,75
29619,note_on,0,0,3,,,,,,,,,2,,,50,101
29619,note_on,0,0,3,,,,,,,,,2,,,58,101
29619,note_on,39,0,3,,,,,,,,,2,,,46,101
29619,note_on,0,0,3,,,,,,,,,2,,,53,101
29619,note_on,13,0,1,,,,,,,,,0,,,86,0
29620,note_on,0,0,3,,,,,,,,,2,,,34,0
29620,note_on,0,0,3,,,,,,,,,2,,,38,0
29620,note_on,0,0,3,,,,,,,,,2,,,41,0
29620,note_on,1,0,3,,,,,,,,,2,,,46,0
29633,note_on,0,0,1,,,,,,,,,0,,,77,75
29633,note_on,0,0,1,,,,,,,,,0,,,82,75
29633,note_on,14,0,1,,,,,,,,,0,,,86,0
29646,note_on,13,0,1,,,,,,,,,0,,,82,0
29646,note_on,0,0,1,,,,,,,,,0,,,77,0
29646,note_on,0,0,1,,,,,,,,,0,,,74,75
29659,note_on,0,0,3,,,,,,,,,2,,,58,0
29659,note_on,0,0,3,,,,,,,,,2,,,50,0
29659,note_on,0,0,3,,,,,,,,,2,,,53,0
29659,note_on,39,0,3,,,,,,,,,2,,,46,0
29660,control_change,1,0,3,,,,,,,,,2,64,0,,
29660,note_on,14,0,1,,,,,,,,,0,,,74,0
29660,note_on,0,0,3,,,,,,,,,2,,,53,101
29660,note_on,0,0,1,,,,,,,,,0,,,74,75
29660,note_on,0,0,3,,,,,,,,,2,,,62,101
29660,note_on,0,0,3,,,,,,,,,2,,,58,101
29673,note_on,0,0,1,,,,,,,,,0,,,70,75
29673,note_on,13,0,1,,,,,,,,,0,,,74,0
29673,note_on,0,0,1,,,,,,,,,0,,,65,75
29686,note_on,0,0,1,,,,,,,,,0,,,65,0
29686,note_on,0,0,1,,,,,,,,,0,,,62,75
29686,note_on,13,0,1,,,,,,,,,0,,,70,0
29686,control_change,0,0,1,,,,,,,,,0,64,0,,
29700,note_on,0,0,3,,,,,,,,,2,,,41,101
29700,note_on,0,0,3,,,,,,,,,2,,,58,0
29700,note_on,0,0,3,,,,,,,,,2,,,48,101
29700,note_on,0,0,3,,,,,,,,,2,,,36,101
29700,note_on,0,0,3,,,,,,,,,2,,,53,0
29700,note_on,14,0,1,,,,,,,,,0,,,62,0
29700,note_on,0,0,3,,,,,,,,,2,,,45,101
29700,note_on,40,0,3,,,,,,,,,2,,,62,0
29700,note_on,0,0,1,,,,,,,,,0,,,84,101
29700,note_on,0,0,1,,,,,,,,,0,,,96,101
29700,control_change,0,0,1,,,,,,,,,0,64,127,,
29700,control_change,0,0,3,,,,,,,,,2,64,127,,
29713,note_on,0,0,1,,,,,,,,,0,,,89,75
29713,note_on,13,0,1,,,,,,,,,0,,,96,0
29713,note_on,0,0,1,,,,,,,,,0,,,84,0
29713,note_on,0,0,1,,,,,,,,,0,,,93,75
29726,note_on,0,0,1,,,,,,,,,0,,,84,75
29726,note_on,13,0,1,,,,,,,,,0,,,93,0
29726,note_on,0,0,1,,,,,,,,,0,,,89,0
29739,note_on,0,0,3,,,,,,,,,2,,,53,101
29739,note_on,0,0,1,,,,,,,,,0,,,84,75
29739,note_on,13,0,1,,,,,,,,,0,,,84,0
29739,note_on,39,0,3,,,,,,,,,2,,,48,101
29739,note_on,0,0,3,,,,,,,,,2,,,57,101
29740,note_on,0,0,3,,,,,,,,,2,,,45,0
29740,note_on,1,0,3,,,,,,,,,2,,,48,0
29740,note_on,0,0,3,,,,,,,,,2,,,41,0
29740,note_on,0,0,3,,,,,,,,,2,,,36,0
29753,note_on,14,0,1,,,,,,,,,0,,,84,0
29753,note_on,0,0,1,,,,,,,,,0,,,77,75
29753,note_on,0,0,1,,,,,,,,,0,,,81,75
29766,note_on,13,0,1,,,,,,,,,0,,,81,0
29766,note_on,0,0,1,,,,,,,,,0,,,72,75
29766,note_on,0,0,1,,,,,,,,,0,,,77,0
29779,note_on,0,0,3,,,,,,,,,2,,,48,0
29779,note_on,0,0,3,,,,,,,,,2,,,53,0
29779,note_on,39,0,3,,,,,,,,,2,,,57,0
29780,note_on,0,0,1,,,,,,,,,0,,,72,75
29780,control_change,1,0,3,,,,,,,,,2,64,0,,
29780,note_on,0,0,3,,,,,,,,,2,,,60,101
29780,note_on,0,0,3,,,,,,,,,2,,,53,101
29780,note_on,0,0,3,,,,,,,,,2,,,57,101
29780,note_on,14,0,1,,,,,,,,,0,,,72,0
29793,note_on,13,0,1,,,,,,,,,0,,,72,0
29793,note_on,0,0,1,,,,,,,,,0,,,65,75
29793,note_on,0,0,1,,,,,,,,,0,,,69,75
29806,note_on,13,0,1,,,,,,,,,0,,,69,0
29806,control_change,0,0,1,,,,,,,,,0,64,0,,
29806,note_on,0,0,1,,,,,,,,,0,,,60,75
29806,note_on,0,0,1,,,,,,,,,0,,,65,0
29820,control_change,0,0,1,,,,,,,,,0,64,127,,
29820,control_change,0,0,3,,,,,,,,,2,64,127,,
29820,note_on,40,0,3,,,,,,,,,2,,,60,0
29820,note_on,0,0,3,,,,,,,,,2,,,44,127
29820,note_on,0,0,3,,,,,,,,,2,,,49,127
29820,note_on,0,0,3,,,,,,,,,2,,,37,127
29820,note_on,14,0,1,,,,,,,,,0,,,60,0
29820,note_on,0,0,1,,,,,,,,,0,,,83,101
29820,note_on,0,0,3,,,,,,,,,2,,,53,0
29820,note_on,0,0,3,,,,,,,,,2,,,57,0
29820,note_on,0,0,1,,,,,,,,,0,,,95,101
29833,note_on,13,0,1,,,,,,,,,0,,,95,0
29833,note_on,0,0,1,,,,,,,,,0,,,92,75
29833,note_on,0,0,1,,,,,,,,,0,,,83,0
29846,note_on,0,0,1,,,,,,,,,0,,,83,75
29846,note_on,13,0,1,,,,,,,,,0,,,92,0
29859,note_on,39,0,3,,,,,,,,,2,,,49,101
29859,note_on,13,0,1,,,,,,,,,0,,,83,0
29859,note_on,0,0,3,,,,,,,,,2,,,53,101
29859,note_on,0,0,1,,,,,,,,,0,,,83,75
29859,note_on,0,0,3,,,,,,,,,2,,,56,101
29860,note_on,0,0,3,,,,,,,,,2,,,44,0
29860,note_on,0,0,3,,,,,,,,,2,,,37,0
29860,note_on,1,0,3,,,,,,,,,2,,,49,0
29873,note_on,0,0,1,,,,,,,,,0,,,80,75
29873,note_on,0,0,1,,,,,,,,,0,,,77,75
29873,note_on,14,0,1,,,,,,,,,0,,,83,0
29886,note_on,13,0,1,,,,,,,,,0,,,80,0
29886,note_on,0,0,1,,,,,,,,,0,,,71,75
29886,note_on,0,0,1,,,,,,,,,0,,,77,0
29899,note_on,0,0,3,,,,,,,,,2,,,56,0
29899,note_on,0,0,3,,,,,,,,,2,,,53,0
29899,note_on,39,0,3,,,,,,,,,2,,,49,0
29900,note_on,1,0,3,,,,,,,,,2,,,53,101
29900,note_on,14,0,1,,,,,,,,,0,,,71,0
29900,note_on,0,0,3,,,,,,,,,2,,,56,101
29900,note_on,0,0,3,,,,,,,,,2,,,59,101
29900,note_on,0,0,1,,,,,,,,,0,,,71,75
29913,note_on,0,0,1,,,,,,,,,0,,,68,75
29913,note_on,13,0,1,,,,,,,,,0,,,71,0
29913,note_on,0,0,1,,,,,,,,,0,,,65,75
29926,note_on,13,0,1,,,,,,,,,0,,,68,0
29926,note_on,0,0,1,,,,,,,,,0,,,65,0
29926,note_on,0,0,1,,,,,,,,,0,,,59,75
29940,note_on,0,0,3,,,,,,,,,2,,,56,101
29940,note_on,14,0,1,,,,,,,,,0,,,59,0
29940,note_on,0,0,1,,,,,,,,,0,,,59,75
29940,note_on,0,0,3,,,,,,,,,2,,,53,101
29940,note_on,0,0,3,,,,,,,,,2,,,53,0
29940,note_on,0,0,3,,,,,,,,,2,,,56,0
29940,note_on,40,0,3,,,,,,,,,2,,,59,0
29953,note_on,0,0,1,,,,,,,,,0,,,68,75
29953,note_on,13,0,1,,,,,,,,,0,,,59,0
29953,note_on,0,0,1,,,,,,,,,0,,,65,75
29966,note_on,13,0,1,,,,,,,,,0,,,68,0
29966,note_on,0,0,1,,,,,,,,,0,,,65,0
29966,note_on,0,0,1,,,,,,,,,0,,,71,75
29979,note_on,0,0,3,,,,,,,,,2,,,53,101
29979,note_on,13,0,1,,,,,,,,,0,,,71,0
29979,note_on,0,0,1,,,,,,,,,0,,,71,75
29979,note_on,39,0,3,,,,,,,,,2,,,49,101
29980,note_on,1,0,3,,,,,,,,,2,,,56,0
29980,note_on,0,0,3,,,,,,,,,2,,,53,0
29993,note_on,0,0,1,,,,,,,,,0,,,80,75
29993,note_on,0,0,1,,,,,,,,,0,,,77,75
29993,note_on,14,0,1,,,,,,,,,0,,,71,0
30006,note_on,13,0,1,,,,,,,,,0,,,80,0
30006,note_on,0,0,1,,,,,,,,,0,,,83,75
30006,note_on,0,0,1,,,,,,,,,0,,,77,0
30019,note_on,39,0,3,,,,,,,,,2,,,49,0
30019,note_on,0,0,3,,,,,,,,,2,,,53,0
30020,note_on,0,0,3,,,,,,,,,2,,,41,101
30020,note_on,0,0,3,,,,,,,,,2,,,37,101
30020,note_on,0,0,3,,,,,,,,,2,,,49,101
30020,note_on,0,0,3,,,,,,,,,2,,,44,101
30020,note_on,0,0,1,,,,,,,,,0,,,83,75
30020,note_on,14,0,1,,,,,,,,,0,,,83,0
30020,control_change,1,0,3,,,,,,,,,2,64,0,,
30033,note_on,0,0,1,,,,,,,,,0,,,89,75
30033,note_on,0,0,1,,,,,,,,,0,,,92,75
30033,note_on,13,0,1,,,,,,,,,0,,,83,0
30046,control_change,0,0,1,,,,,,,,,0,64,0,,
30046,note_on,0,0,1,,,,,,,,,0,,,89,0
30046,note_on,0,0,1,,,,,,,,,0,,,95,75
30046,note_on,13,0,1,,,,,,,,,0,,,92,0
30060,control_change,0,0,3,,,,,,,,,2,64,127,,
30060,note_on,0,0,3,,,,,,,,,2,,,36,127
30060,note_on,0,0,3,,,,,,,,,2,,,37,0
30060,note_on,0,0,3,,,,,,,,,2,,,41,127
30060,note_on,0,0,3,,,,,,,,,2,,,44,0
30060,note_on,0,0,3,,,,,,,,,2,,,45,127
30060,note_on,0,0,3,,,,,,,,,2,,,48,127
30060,note_on,14,0,1,,,,,,,,,0,,,95,0
30060,note_on,40,0,3,,,,,,,,,2,,,49,0
30060,note_on,0,0,1,,,,,,,,,0,,,84,101
30060,note_on,0,0,3,,,,,,,,,2,,,41,0
30060,control_change,0,0,1,,,,,,,,,0,64,127,,
30060,note_on,0,0,1,,,,,,,,,0,,,96,101
30073,note_on,0,0,1,,,,,,,,,0,,,84,0
30073,note_on,0,0,1,,,,,,,,,0,,,89,75
30073,note_on,13,0,1,,,,,,,,,0,,,96,0
30073,note_on,0,0,1,,,,,,,,,0,,,93,75
30086,note_on,13,0,1,,,,,,,,,0,,,93,0
30086,note_on,0,0,1,,,,,,,,,0,,,84,75
30086,note_on,0,0,1,,,,,,,,,0,,,89,0
30099,note_on,13,0,1,,,,,,,,,0,,,84,0
30099,note_on,39,0,3,,,,,,,,,2,,,48,101
30099,note_on,0,0,3,,,,,,,,,2,,,53,101
30099,note_on,0,0,3,,,,,,,,,2,,,57,101
30099,note_on,0,0,1,,,,,,,,,0,,,84,75
30100,note_on,0,0,3,,,,,,,,,2,,,41,0
30100,note_on,0,0,3,,,,,,,,,2,,,45,0
30100,note_on,0,0,3,,,,,,,,,2,,,36,0
30100,note_on,1,0,3,,,,,,,,,2,,,48,0
30113,note_on,0,0,1,,,,,,,,,0,,,77,75
30113,note_on,14,0,1,,,,,,,,,0,,,84,0
30113,note_on,0,0,1,,,,,,,,,0,,,81,75
30126,note_on,13,0,1,,,,,,,,,0,,,81,0
30126,note_on,0,0,1,,,,,,,,,0,,,77,0
30126,note_on,0,0,1,,,,,,,,,0,,,72,75
30139,note_on,0,0,3,,,,,,,,,2,,,53,0
30139,note_on,0,0,3,,,,,,,,,2,,,48,0
30139,note_on,39,0,3,,,,,,,,,2,,,57,0
30140,note_on,0,0,3,,,,,,,,,2,,,60,101
30140,note_on,0,0,3,,,,,,,,,2,,,57,101
30140,note_on,0,0,1,,,,,,,,,0,,,72,75
30140,control_change,1,0,3,,,,,,,,,2,64,0,,
30140,note_on,0,0,3,,,,,,,,,2,,,53,101
30140,note_on,14,0,1,,,,,,,,,0,,,72,0
30153,note_on,0,0,1,,,,,,,,,0,,,69,75
30153,note_on,13,0,1,,,,,,,,,0,,,72,0
30153,note_on,0,0,1,,,,,,,,,0,,,65,75
30166,note_on,13,0,1,,,,,,,,,0,,,69,0
30166,control_change,0,0,1,,,,,,,,,0,64,0,,
30166,note_on,0,0,1,,,,,,,,,0,,,60,75
30166,note_on,0,0,1,,,,,,,,,0,,,65,0
30180,note_on,0,0,1,,,,,,,,,0,,,84,101
30180,note_on,0,0,3,,,,,,,,,2,,,43,127
30180,note_on,0,0,1,,,,,,,,,0,,,96,101
30180,note_on,0,0,3,,,,,,,,,2,,,48,127
30180,note_on,0,0,3,,,,,,,,,2,,,40,127
30180,note_on,14,0,1,,,,,,,,,0,,,60,0
30180,note_on,0,0,3,,,,,,,,,2,,,36,127
30180,note_on,0,0,3,,,,,,,,,2,,,53,0
30180,note_on,0,0,3,,,,,,,,,2,,,57,0
30180,control_change,0,0,3,,,,,,,,,2,64,127,,
30180,control_change,0,0,1,,,,,,,,,0,64,127,,
30180,note_on,40,0,3,,,,,,,,,2,,,60,0
30193,note_on,0,0,1,,,,,,,,,0,,,88,75
30193,note_on,0,0,1,,,,,,,,,0,,,91,75
30193,note_on,0,0,1,,,,,,,,,0,,,84,0
30193,note_on,13,0,1,,,,,,,,,0,,,96,0
30206,note_on,0,0,1,,,,,,,,,0,,,88,0
30206,note_on,0,0,1,,,,,,,,,0,,,84,75
30206,note_on,13,0,1,,,,,,,,,0,,,91,0
30219,note_on,0,0,3,,,,,,,,,2,,,52,101
30219,note_on,0,0,1,,,,,,,,,0,,,84,75
30219,note_on,39,0,3,,,,,,,,,2,,,48,101
30219,note_on,0,0,3,,,,,,,,,2,,,55,101
30219,note_on,13,0,1,,,,,,,,,0,,,84,0
30220,note_on,1,0,3,,,,,,,,,2,,,48,0
30220,note_on,0,0,3,,,,,,,,,2,,,36,0
30220,note_on,0,0,3,,,,,,,,,2,,,40,0
30220,note_on,0,0,3,,,,,,,,,2,,,43,0
30233,note_on,0,0,1,,,,,,,,,0,,,79,75
30233,note_on,0,0,1,,,,,,,,,0,,,76,75
30233,note_on,14,0,1,,,,,,,,,0,,,84,0
30246,note_on,0,0,1,,,,,,,,,0,,,76,0
30246,note_on,13,0,1,,,,,,,,,0,,,79,0
30246,note_on,0,0,1,,,,,,,,,0,,,72,75
30259,note_on,39,0,3,,,,,,,,,2,,,55,0
30259,note_on,0,0,3,,,,,,,,,2,,,48,0
30259,note_on,0,0,3,,,,,,,,,2,,,52,0
30260,control_change,1,0,3,,,,,,,,,2,64,0,,
30260,note_on,14,0,1,,,,,,,,,0,,,72,0
30260,note_on,0,0,3,,,,,,,,,2,,,52,101
30260,note_on,0,0,3,,,,,,,,,2,,,60,101
30260,note_on,0,0,3,,,,,,,,,2,,,55,101
30260,note_on,0,0,1,,,,,,,,,0,,,72,75
30273,note_on,0,0,1,,,,,,,,,0,,,64,75
30273,note_on,13,0,1,,,,,,,,,0,,,72,0
30273,note_on,0,0,1,,,,,,,,,0,,,67,75
30286,control_change,0,0,1,,,,,,,,,0,64,0,,
30286,note_on,0,0,1,,,,,,,,,0,,,64,0
30286,note_on,13,0,1,,,,,,,,,0,,,67,0
30286,note_on,0,0,1,,,,,,,,,0,,,60,75
30300,note_on,0,0,1,,,,,,,,,0,,,77,75
30300,note_on,0,0,1,,,,,,,,,0,,,81,75
30300,note_on,0,0,3,,,,,,,,,2,,,41,101
30300,note_on,0,0,3,,,,,,,,,2,,,52,0
30300,note_on,0,0,3,,,,,,,,,2,,,36,101
30300,note_on,0,0,3,,,,,,,,,2,,,33,101
30300,note_on,0,0,3,,,,,,,,,2,,,29,101
30300,note_on,40,0,3,,,,,,,,,2,,,60,0
30300,note_on,0,0,1,,,,,,,,,0,,,84,75
30300,note_on,0,0,3,,,,,,,,,2,,,55,0
30300,note_on,0,0,1,,,,,,,,,0,,,89,75
30300,note_on,14,0,1,,,,,,,,,0,,,60,0
30300,control_change,0,0,1,,,,,,,,,0,64,127,,
30300,control_change,0,0,3,,,,,,,,,2,64,127,,
30339,note_on,39,0,1,,,,,,,,,0,,,53,75
30339,note_on,39,0,3,,,,,,,,,2,,,41,62
30339,note_on,0,0,3,,,,,,,,,2,,,48,62
30339,note_on,0,0,3,,,,,,,,,2,,,45,62
30340,note_on,1,0,3,,,,,,,,,2,,,41,0
30340,note_on,0,0,3,,,,,,,,,2,,,29,0
30340,note_on,0,0,3,,,,,,,,,2,,,36,0
30340,note_on,0,0,1,,,,,,,,,0,,,81,0
30340,note_on,0,0,1,,,,,,,,,0,,,84,0
30340,note_on,1,0,1,,,,,,,,,0,,,89,0
30340,note_on,0,0,3,,,,,,,,,2,,,33,0
30340,note_on,0,0,1,,,,,,,,,0,,,77,0
30352,control_change,1733,0,2,,,,,,,,,1,64,127,,
30352,note_on,0,0,2,,,,,,,,,1,,,60,75
30352,note_on,0,0,2,,,,,,,,,1,,,57,75
30365,note_on,13,0,2,,,,,,,,,1,,,60,0
30365,note_on,0,0,2,,,,,,,,,1,,,57,0
30365,note_on,0,0,2,,,,,,,,,1,,,65,75
30379,note_on,0,0,3,,,,,,,,,2,,,45,0
30379,note_on,0,0,3,,,,,,,,,2,,,41,0
30379,note_on,14,0,2,,,,,,,,,1,,,65,0
30379,note_on,39,0,1,,,,,,,,,0,,,53,0
30379,note_on,39,0,3,,,,,,,,,2,,,48,0
30380,note_on,0,0,3,,,,,,,,,2,,,53,62
30380,note_on,1,0,3,,,,,,,,,2,,,45,62
30380,note_on,1,0,1,,,,,,,,,0,,,57,75
30380,note_on,0,0,3,,,,,,,,,2,,,48,62
30392,note_on,13,0,2,,,,,,,,,1,,,60,75
30392,note_on,0,0,2,,,,,,,,,1,,,65,75
30405,note_on,13,0,2,,,,,,,,,1,,,65,0
30405,note_on,0,0,2,,,,,,,,,1,,,69,75
30405,note_on,0,0,2,,,,,,,,,1,,,60,0
30419,note_on,14,0,2,,,,,,,,,1,,,69,0
30420,note_on,0,0,3,,,,,,,,,2,,,48,0
30420,note_on,40,0,1,,,,,,,,,0,,,57,0
30420,note_on,0,0,3,,,,,,,,,2,,,45,0
30420,note_on,40,0,3,,,,,,,,,2,,,53,0
30420,note_on,0,0,3,,,,,,,,,2,,,57,62
30420,note_on,0,0,3,,,,,,,,,2,,,48,62
30420,note_on,0,0,3,,,,,,,,,2,,,53,62
30420,note_on,0,0,1,,,,,,,,,0,,,60,75
30432,note_on,13,0,2,,,,,,,,,1,,,65,75
30432,note_on,0,0,2,,,,,,,,,1,,,69,75
30445,note_on,0,0,2,,,,,,,,,1,,,72,75
30445,note_on,0,0,2,,,,,,,,,1,,,65,0
30445,note_on,13,0,2,,,,,,,,,1,,,69,0
30458,note_on,13,0,2,,,,,,,,,1,,,72,0
30459,note_on,0,0,3,,,,,,,,,2,,,60,75
30459,note_on,39,0,1,,,,,,,,,0,,,65,88
30459,note_on,39,0,3,,,,,,,,,2,,,53,75
30459,note_on,0,0,3,,,,,,,,,2,,,57,75
30460,note_on,0,0,3,,,,,,,,,2,,,53,0
30460,note_on,1,0,3,,,,,,,,,2,,,57,0
30460,note_on,1,0,1,,,,,,,,,0,,,60,0
30460,note_on,0,0,3,,,,,,,,,2,,,48,0
30472,note_on,14,0,2,,,,,,,,,1,,,69,88
30472,note_on,0,0,2,,,,,,,,,1,,,72,88
30485,note_on,0,0,2,,,,,,,,,1,,,77,88
30485,note_on,0,0,2,,,,,,,,,1,,,69,0
30485,note_on,13,0,2,,,,,,,,,1,,,72,0
30499,note_on,14,0,2,,,,,,,,,1,,,77,0
30499,note_on,0,0,3,,,,,,,,,2,,,60,0
30499,note_on,39,0,1,,,,,,,,,0,,,65,0
30499,note_on,0,0,3,,,,,,,,,2,,,57,0
30499,note_on,39,0,3,,,,,,,,,2,,,53,0
30500,note_on,0,0,3,,,,,,,,,2,,,60,75
30500,note_on,1,0,3,,,,,,,,,2,,,57,75
30500,note_on,1,0,1,,,,,,,,,0,,,69,88
30500,note_on,0,0,3,,,,,,,,,2,,,65,75
30512,note_on,0,0,2,,,,,,,,,1,,,77,88
30512,note_on,13,0,2,,,,,,,,,1,,,72,88
30525,note_on,0,0,2,,,,,,,,,1,,,72,0
30525,note_on,0,0,2,,,,,,,,,1,,,81,88
30525,note_on,13,0,2,,,,,,,,,1,,,77,0
30539,note_on,14,0,2,,,,,,,,,1,,,81,0
30540,note_on,40,0,3,,,,,,,,,2,,,65,0
30540,note_on,0,0,3,,,,,,,,,2,,,69,75
30540,note_on,0,0,1,,,,,,,,,0,,,72,88
30540,note_on,0,0,3,,,,,,,,,2,,,65,75
30540,note_on,0,0,3,,,,,,,,,2,,,60,75
30540,note_on,0,0,3,,,,,,,,,2,,,60,0
30540,note_on,0,0,3,,,,,,,,,2,,,57,0
30540,note_on,40,0,1,,,,,,,,,0,,,69,0
30552,note_on,0,0,2,,,,,,,,,1,,,81,88
30552,note_on,13,0,2,,,,,,,,,1,,,77,88
30565,note_on,0,0,2,,,,,,,,,1,,,77,0
30565,note_on,0,0,2,,,,,,,,,1,,,84,88
30565,note_on,13,0,2,,,,,,,,,1,,,81,0
30578,note_on,13,0,2,,,,,,,,,1,,,84,0
30579,note_on,39,0,3,,,,,,,,,2,,,65,88
30579,note_on,39,0,1,,,,,,,,,0,,,77,101
30579,note_on,0,0,3,,,,,,,,,2,,,69,88
30579,note_on,0,0,3,,,,,,,,,2,,,72,88
30580,note_on,1,0,1,,,,,,,,,0,,,72,0
30580,note_on,0,0,3,,,,,,,,,2,,,60,0
30580,note_on,0,0,3,,,,,,,,,2,,,65,0
30580,note_on,1,0,3,,,,,,,,,2,,,69,0
30592,note_on,0,0,2,,,,,,,,,1,,,84,101
30592,note_on,14,0,2,,,,,,,,,1,,,81,101
30605,note_on,13,0,2,,,,,,,,,1,,,84,0
30605,note_on,0,0,2,,,,,,,,,1,,,89,101
30605,note_on,0,0,2,,,,,,,,,1,,,81,0
30619,note_on,0,0,3,,,,,,,,,2,,,72,0
30619,note_on,39,0,1,,,,,,,,,0,,,77,0
30619,note_on,14,0,2,,,,,,,,,1,,,89,0
30619,note_on,0,0,3,,,,,,,,,2,,,69,0
30619,note_on,39,0,3,,,,,,,,,2,,,65,0
30620,note_on,0,0,3,,,,,,,,,2,,,77,88
30620,note_on,0,0,3,,,,,,,,,2,,,72,88
30620,note_on,1,0,1,,,,,,,,,0,,,81,101
30620,note_on,1,0,3,,,,,,,,,2,,,69,88
30632,note_on,13,0,2,,,,,,,,,1,,,84,101
30632,note_on,0,0,2,,,,,,,,,1,,,89,101
30645,note_on,0,0,2,,,,,,,,,1,,,93,101
30645,note_on,13,0,2,,,,,,,,,1,,,89,0
30645,note_on,0,0,2,,,,,,,,,1,,,84,0
30659,note_on,14,0,2,,,,,,,,,1,,,93,0
30660,note_on,40,0,1,,,,,,,,,0,,,81,0
30660,note_on,40,0,3,,,,,,,,,2,,,77,0
30660,note_on,0,0,3,,,,,,,,,2,,,81,88
30660,note_on,0,0,3,,,,,,,,,2,,,69,0
30660,note_on,0,0,3,,,,,,,,,2,,,77,88
30660,note_on,0,0,3,,,,,,,,,2,,,72,88
30660,note_on,0,0,3,,,,,,,,,2,,,72,0
30660,note_on,0,0,1,,,,,,,,,0,,,84,101
30672,note_on,13,0,2,,,,,,,,,1,,,89,101
30672,note_on,0,0,2,,,,,,,,,1,,,93,101
30685,note_on,0,0,2,,,,,,,,,1,,,89,0
30685,note_on,0,0,2,,,,,,,,,1,,,96,101
30685,note_on,13,0,2,,,,,,,,,1,,,93,0
30698,note_on,13,0,2,,,,,,,,,1,,,96,0
30699,note_on,39,0,3,,,,,,,,,2,,,77,88
30699,note_on,0,0,3,,,,,,,,,2,,,81,88
30699,note_on,0,0,3,,,,,,,,,2,,,84,88
30699,note_on,39,0,1,,,,,,,,,0,,,89,101
30700,note_on,0,0,3,,,,,,,,,2,,,77,0
30700,note_on,1,0,1,,,,,,,,,0,,,84,0
30700,note_on,0,0,3,,,,,,,,,2,,,72,0
30700,note_on,1,0,3,,,,,,,,,2,,,81,0
30712,note_on,0,0,2,,,,,,,,,1,,,96,101
30712,note_on,14,0,2,,,,,,,,,1,,,93,101
30720,control_change,20,0,1,,,,,,,,,0,64,0,,
30725,note_on,13,0,2,,,,,,,,,1,,,96,0
30725,note_on,0,0,2,,,,,,,,,1,,,93,0
30725,note_on,0,0,2,,,,,,,,,1,,,101,101
30739,note_on,14,0,2,,,,,,,,,1,,,101,0
30739,note_on,19,0,1,,,,,,,,,0,,,89,0
30739,control_change,0,0,2,,,,,,,,,1,64,0,,
30739,note_on,39,0,3,,,,,,,,,2,,,77,0
30739,note_on,0,0,3,,,,,,,,,2,,,84,0
30739,note_on,0,0,3,,,,,,,,,2,,,81,0
30740,control_change,1,0,3,,,,,,,,,2,64,0,,
30759,note_on,0,0,1,,,,,,,,,0,,,75,101
30759,note_on,0,0,1,,,,,,,,,0,,,69,101
30759,note_on,19,0,3,,,,,,,,,2,,,53,88
30759,note_on,20,0,1,,,,,,,,,0,,,65,101
30759,note_on,0,0,3,,,,,,,,,2,,,63,88
30759,note_on,0,0,3,,,,,,,,,2,,,60,88
30759,note_on,0,0,1,,,,,,,,,0,,,77,101
30779,note_on,0,0,3,,,,,,,,,2,,,60,0
30779,note_on,20,0,3,,,,,,,,,2,,,63,0
30779,note_on,0,0,1,,,,,,,,,0,,,65,0
30779,note_on,0,0,1,,,,,,,,,0,,,75,0
30779,control_change,40,0,2,,,,,,,,,1,64,127,,
30779,note_on,0,0,3,,,,,,,,,2,,,53,0
30779,note_on,0,0,1,,,,,,,,,0,,,69,0
30779,note_on,20,0,1,,,,,,,,,0,,,77,0
30780,control_change,1,0,1,,,,,,,,,0,64,127,,
30780,note_on,0,0,1,,,,,,,,,0,,,65,127
30780,note_on,0,0,1,,,,,,,,,0,,,77,127
30780,note_on,0,0,3,,,,,,,,,2,,,58,75
30780,control_change,1,0,3,,,,,,,,,2,64,127,,
30780,note_on,0,0,3,,,,,,,,,2,,,53,75
30780,note_on,0,0,3,,,,,,,,,2,,,62,75
30799,note_on,20,0,2,,,,,,,,,1,,,70,75
30799,note_on,0,0,2,,,,,,,,,1,,,74,75
30819,note_on,0,0,2,,,,,,,,,1,,,74,75
30819,note_on,0,0,2,,,,,,,,,1,,,70,75
30819,note_on,0,0,2,,,,,,,,,1,,,70,0
30819,note_on,0,0,3,,,,,,,,,2,,,53,75
30819,note_on,20,0,2,,,,,,,,,1,,,74,0
30819,note_on,0,0,3,,,,,,,,,2,,,58,75
30819,note_on,39,0,3,,,,,,,,,2,,,50,75
30820,note_on,0,0,3,,,,,,,,,2,,,58,0
30820,note_on,0,0,3,,,,,,,,,2,,,53,0
30820,note_on,1,0,3,,,,,,,,,2,,,62,0
30839,note_on,20,0,2,,,,,,,,,1,,,74,0
30839,note_on,0,0,2,,,,,,,,,1,,,70,0
30839,note_on,0,0,2,,,,,,,,,1,,,74,75
30839,note_on,0,0,2,,,,,,,,,1,,,70,75
30859,note_on,20,0,2,,,,,,,,,1,,,74,0
30859,note_on,0,0,3,,,,,,,,,2,,,58,0
30859,note_on,0,0,3,,,,,,,,,2,,,53,0
30859,note_on,0,0,2,,,,,,,,,1,,,74,75
30859,note_on,0,0,2,,,,,,,,,1,,,70,0
30859,note_on,0,0,2,,,,,,,,,1,,,70,75
30859,note_on,39,0,3,,,,,,,,,2,,,50,0
30860,note_on,0,0,3,,,,,,,,,2,,,53,75
30860,note_on,0,0,3,,,,,,,,,2,,,50,75
30860,note_on,1,0,3,,,,,,,,,2,,,46,75
30879,note_on,20,0,2,,,,,,,,,1,,,74,0
30879,note_on,0,0,2,,,,,,,,,1,,,70,0
30879,note_on,0,0,2,,,,,,,,,1,,,74,75
30879,note_on,0,0,2,,,,,,,,,1,,,70,75
30899,note_on,0,0,2,,,,,,,,,1,,,70,0
30899,note_on,20,0,2,,,,,,,,,1,,,74,0
30900,note_on,0,0,3,,,,,,,,,2,,,53,75
30900,note_on,120,0,1,,,,,,,,,0,,,77,0
30900,note_on,0,0,3,,,,,,,,,2,,,50,75
30900,note_on,0,0,3,,,,,,,,,2,,,50,0
30900,note_on,0,0,3,,,,,,,,,2,,,46,0
30900,note_on,0,0,1,,,,,,,,,0,,,65,0
30900,note_on,0,0,1,,,,,,,,,0,,,67,101
30900,note_on,0,0,1,,,,,,,,,0,,,79,101
30900,note_on,0,0,3,,,,,,,,,2,,,41,75
30900,note_on,40,0,3,,,,,,,,,2,,,53,0
30919,note_on,20,0,2,,,,,,,,,1,,,70,75
30919,note_on,0,0,2,,,,,,,,,1,,,74,75
30939,note_on,39,0,3,,,,,,,,,2,,,38,75
30939,note_on,0,0,3,,,,,,,,,2,,,41,75
30939,note_on,0,0,2,,,,,,,,,1,,,70,75
30939,note_on,20,0,2,,,,,,,,,1,,,74,0
30939,note_on,0,0,2,,,,,,,,,1,,,70,0
30939,note_on,0,0,2,,,,,,,,,1,,,74,75
30939,note_on,0,0,3,,,,,,,,,2,,,46,75
30940,note_on,0,0,3,,,,,,,,,2,,,41,0
30940,note_on,0,0,3,,,,,,,,,2,,,50,0
30940,note_on,1,0,3,,,,,,,,,2,,,53,0
30959,note_on,0,0,2,,,,,,,,,1,,,70,0
30959,note_on,0,0,2,,,,,,,,,1,,,70,75
30959,note_on,20,0,2,,,,,,,,,1,,,74,0
30959,note_on,0,0,2,,,,,,,,,1,,,74,75
30979,note_on,20,0,2,,,,,,,,,1,,,74,0
30979,note_on,0,0,3,,,,,,,,,2,,,46,0
30979,note_on,0,0,3,,,,,,,,,2,,,41,0
30979,note_on,39,0,3,,,,,,,,,2,,,38,0
30979,note_on,0,0,2,,,,,,,,,1,,,70,0
30980,note_on,0,0,3,,,,,,,,,2,,,34,75
30980,note_on,0,0,3,,,,,,,,,2,,,38,75
30980,note_on,0,0,3,,,,,,,,,2,,,41,75
30980,note_on,0,0,1,,,,,,,,,0,,,69,101
30980,control_change,0,0,1,,,,,,,,,0,64,0,,
30980,note_on,0,0,1,,,,,,,,,0,,,67,0
30980,note_on,80,0,1,,,,,,,,,0,,,79,0
30980,control_change,1,0,3,,,,,,,,,2,64,0,,
30980,note_on,0,0,1,,,,,,,,,0,,,81,101
30999,control_change,20,0,2,,,,,,,,,1,64,0,,
31019,control_change,20,0,2,,,,,,,,,1,64,127,,
31020,note_on,0,0,3,,,,,,,,,2,,,37,75
31020,note_on,0,0,1,,,,,,,,,0,,,70,127
31020,note_on,40,0,3,,,,,,,,,2,,,41,0
31020,control_change,0,0,3,,,,,,,,,2,64,127,,
31020,note_on,0,0,3,,,,,,,,,2,,,38,0
31020,note_on,0,0,3,,,,,,,,,2,,,29,75
31020,control_change,0,0,1,,,,,,,,,0,64,127,,
31020,note_on,0,0,1,,,,,,,,,0,,,69,0
31020,note_on,0,0,1,,,,,,,,,0,,,82,127
31020,note_on,0,0,3,,,,,,,,,2,,,34,0
31020,note_on,0,0,3,,,,,,,,,2,,,34,75
31020,note_on,40,0,1,,,,,,,,,0,,,81,0
31039,note_on,20,0,2,,,,,,,,,1,,,73,75
31039,note_on,0,0,2,,,,,,,,,1,,,77,75
31059,note_on,0,0,2,,,,,,,,,1,,,73,0
31059,note_on,0,0,2,,,,,,,,,1,,,73,75
31059,note_on,0,0,2,,,,,,,,,1,,,77,75
31059,note_on,20,0,2,,,,,,,,,1,,,77,0
31059,note_on,39,0,3,,,,,,,,,2,,,34,75
31059,note_on,0,0,3,,,,,,,,,2,,,41,75
31059,note_on,0,0,3,,,,,,,,,2,,,37,75
31060,note_on,0,0,3,,,,,,,,,2,,,34,0
31060,note_on,0,0,3,,,,,,,,,2,,,29,0
31060,note_on,1,0,3,,,,,,,,,2,,,37,0
31079,note_on,0,0,2,,,,,,,,,1,,,73,0
31079,note_on,20,0,2,,,,,,,,,1,,,77,0
31079,note_on,0,0,2,,,,,,,,,1,,,73,75
31079,note_on,0,0,2,,,,,,,,,1,,,77,75
31099,note_on,20,0,2,,,,,,,,,1,,,77,0
31099,note_on,0,0,3,,,,,,,,,2,,,41,0
31099,note_on,0,0,3,,,,,,,,,2,,,37,0
31099,note_on,0,0,2,,,,,,,,,1,,,73,0
31099,note_on,39,0,3,,,,,,,,,2,,,34,0
31100,note_on,80,0,1,,,,,,,,,0,,,82,0
31100,note_on,0,0,1,,,,,,,,,0,,,65,101
31100,note_on,1,0,3,,,,,,,,,2,,,37,75
31100,note_on,0,0,3,,,,,,,,,2,,,41,75
31100,note_on,0,0,3,,,,,,,,,2,,,46,75
31100,note_on,0,0,1,,,,,,,,,0,,,70,0
31100,note_on,0,0,1,,,,,,,,,0,,,77,101
31119,note_on,0,0,2,,,,,,,,,1,,,73,75
31119,note_on,20,0,2,,,,,,,,,1,,,70,75
31139,note_on,20,0,2,,,,,,,,,1,,,73,0
31139,note_on,0,0,2,,,,,,,,,1,,,70,0
31140,note_on,0,0,3,,,,,,,,,2,,,49,75
31140,note_on,40,0,3,,,,,,,,,2,,,46,0
31140,note_on,0,0,3,,,,,,,,,2,,,37,0
31140,note_on,0,0,1,,,,,,,,,0,,,61,101
31140,note_on,0,0,3,,,,,,,,,2,,,46,75
31140,note_on,40,0,1,,,,,,,,,0,,,77,0
31140,note_on,0,0,3,,,,,,,,,2,,,41,0
31140,note_on,0,0,3,,,,,,,,,2,,,41,75
31140,note_on,0,0,1,,,,,,,,,0,,,65,0
31140,note_on,0,0,1,,,,,,,,,0,,,73,101
31159,note_on,20,0,2,,,,,,,,,1,,,65,75
31159,note_on,0,0,2,,,,,,,,,1,,,70,75
31179,note_on,20,0,2,,,,,,,,,1,,,70,0
31179,note_on,0,0,2,,,,,,,,,1,,,70,75
31179,note_on,0,0,2,,,,,,,,,1,,,65,0
31179,note_on,0,0,2,,,,,,,,,1,,,65,75
31179,note_on,0,0,3,,,,,,,,,2,,,49,75
31179,note_on,0,0,3,,,,,,,,,2,,,53,75
31179,note_on,39,0,3,,,,,,,,,2,,,46,75
31180,note_on,1,0,3,,,,,,,,,2,,,49,0
31180,note_on,0,0,3,,,,,,,,,2,,,41,0
31180,note_on,0,0,3,,,,,,,,,2,,,46,0
31199,note_on,0,0,2,,,,,,,,,1,,,70,75
31199,note_on,0,0,2,,,,,,,,,1,,,65,75
31199,note_on,0,0,2,,,,,,,,,1,,,65,0
31199,note_on,20,0,2,,,,,,,,,1,,,70,0
31219,note_on,39,0,3,,,,,,,,,2,,,46,0
31219,note_on,0,0,3,,,,,,,,,2,,,53,0
31219,note_on,0,0,3,,,,,,,,,2,,,49,0
31219,note_on,0,0,2,,,,,,,,,1,,,65,0
31219,note_on,20,0,2,,,,,,,,,1,,,70,0
31220,control_change,0,0,1,,,,,,,,,0,64,0,,
31220,note_on,0,0,3,,,,,,,,,2,,,58,75
31220,note_on,80,0,1,,,,,,,,,0,,,73,0
31220,note_on,0,0,1,,,,,,,,,0,,,70,101
31220,note_on,0,0,3,,,,,,,,,2,,,53,75
31220,note_on,0,0,3,,,,,,,,,2,,,49,75
31220,note_on,0,0,1,,,,,,,,,0,,,61,0
31220,control_change,1,0,3,,,,,,,,,2,64,0,,
31220,note_on,0,0,1,,,,,,,,,0,,,58,101
31239,note_on,0,0,2,,,,,,,,,1,,,61,75
31239,control_change,20,0,2,,,,,,,,,1,64,0,,
31239,note_on,0,0,2,,,,,,,,,1,,,65,75
31259,note_on,20,0,2,,,,,,,,,1,,,65,0
31259,note_on,0,0,2,,,,,,,,,1,,,61,0
31260,time_signature,19680,1,0,5,4,24,8,,,,,,,,,
31260,note_on,0,0,1,,,,,,,,,0,,,77,101
31260,note_on,0,0,1,,,,,,,,,0,,,65,101
31260,note_on,40,0,3,,,,,,,,,2,,,58,0
31260,note_on,0,0,1,,,,,,,,,0,,,58,0
31260,control_change,0,0,1,,,,,,,,,0,64,127,,
31260,control_change,0,0,3,,,,,,,,,2,64,127,,
31260,note_on,0,0,1,,,,,,,,,0,,,69,101
31260,note_on,0,0,3,,,,,,,,,2,,,57,75
31260,note_on,0,0,3,,,,,,,,,2,,,53,0
31260,note_on,0,0,3,,,,,,,,,2,,,49,0
31260,note_on,0,0,3,,,,,,,,,2,,,48,75
31260,note_on,0,0,3,,,,,,,,,2,,,41,75
31260,note_on,40,0,1,,,,,,,,,0,,,70,0
31317,note_on,57,0,1,,,,,,,,,0,,,53,101
31320,note_on,60,0,3,,,,,,,,,2,,,57,0
31320,note_on,0,0,3,,,,,,,,,2,,,41,75
31320,note_on,3,0,1,,,,,,,,,0,,,77,0
31320,note_on,0,0,3,,,,,,,,,2,,,48,75
31320,note_on,0,0,3,,,,,,,,,2,,,48,0
31320,note_on,0,0,1,,,,,,,,,0,,,65,0
31320,note_on,0,0,3,,,,,,,,,2,,,41,0
31320,note_on,0,0,3,,,,,,,,,2,,,45,75
31320,note_on,0,0,1,,,,,,,,,0,,,69,0
31325,note_on,5,0,1,,,,,,,,,0,,,57,101
31332,note_on,7,0,1,,,,,,,,,0,,,60,101
31340,note_on,8,0,1,,,,,,,,,0,,,65,75
31357,note_on,17,0,1,,,,,,,,,0,,,57,75
31359,note_on,0,0,3,,,,,,,,,2,,,53,75
31359,note_on,2,0,1,,,,,,,,,0,,,60,0
31359,note_on,39,0,3,,,,,,,,,2,,,45,75
31359,note_on,0,0,1,,,,,,,,,0,,,53,0
31359,note_on,0,0,3,,,,,,,,,2,,,48,75
31360,note_on,1,0,1,,,,,,,,,0,,,57,0
31360,note_on,0,0,1,,,,,,,,,0,,,65,0
31360,note_on,1,0,3,,,,,,,,,2,,,48,0
31360,note_on,0,0,3,,,,,,,,,2,,,45,0
31360,note_on,0,0,3,,,,,,,,,2,,,41,0
31365,note_on,5,0,1,,,,,,,,,0,,,60,75
31372,note_on,7,0,1,,,,,,,,,0,,,65,75
31380,note_on,8,0,1,,,,,,,,,0,,,69,75
31397,note_on,17,0,1,,,,,,,,,0,,,60,75
31399,note_on,39,0,3,,,,,,,,,2,,,45,0
31399,note_on,0,0,3,,,,,,,,,2,,,53,0
31399,note_on,0,0,3,,,,,,,,,2,,,48,0
31400,note_on,1,0,3,,,,,,,,,2,,,48,75
31400,note_on,0,0,1,,,,,,,,,0,,,57,0
31400,note_on,0,0,1,,,,,,,,,0,,,60,0
31400,note_on,0,0,1,,,,,,,,,0,,,65,0
31400,note_on,0,0,3,,,,,,,,,2,,,57,75
31400,note_on,0,0,3,,,,,,,,,2,,,53,75
31400,note_on,3,0,1,,,,,,,,,0,,,69,0
31404,note_on,4,0,1,,,,,,,,,0,,,65,75
31412,note_on,8,0,1,,,,,,,,,0,,,69,75
31419,note_on,7,0,1,,,,,,,,,0,,,72,75
31437,note_on,18,0,1,,,,,,,,,0,,,65,75
31439,note_on,2,0,1,,,,,,,,,0,,,72,0
31439,note_on,0,0,1,,,,,,,,,0,,,65,0
31440,note_on,1,0,1,,,,,,,,,0,,,60,0
31440,note_on,40,0,3,,,,,,,,,2,,,57,0
31440,note_on,0,0,3,,,,,,,,,2,,,60,88
31440,note_on,0,0,1,,,,,,,,,0,,,69,0
31440,note_on,0,0,3,,,,,,,,,2,,,57,88
31440,note_on,0,0,3,,,,,,,,,2,,,48,0
31440,note_on,0,0,3,,,,,,,,,2,,,53,0
31440,note_on,0,0,3,,,,,,,,,2,,,53,88
31445,note_on,5,0,1,,,,,,,,,0,,,69,75
31452,note_on,7,0,1,,,,,,,,,0,,,72,75
31460,note_on,8,0,1,,,,,,,,,0,,,77,88
31477,note_on,17,0,1,,,,,,,,,0,,,69,88
31479,note_on,0,0,3,,,,,,,,,2,,,60,88
31479,note_on,0,0,3,,,,,,,,,2,,,65,88
31479,note_on,39,0,3,,,,,,,,,2,,,57,88
31479,note_on,2,0,1,,,,,,,,,0,,,72,0
31479,note_on,0,0,1,,,,,,,,,0,,,65,0
31480,note_on,0,0,3,,,,,,,,,2,,,53,0
31480,note_on,1,0,3,,,,,,,,,2,,,60,0
31480,note_on,0,0,1,,,,,,,,,0,,,77,0
31480,note_on,0,0,3,,,,,,,,,2,,,57,0
31480,note_on,1,0,1,,,,,,,,,0,,,69,0
31485,note_on,5,0,1,,,,,,,,,0,,,72,88
31492,note_on,7,0,1,,,,,,,,,0,,,77,88
31500,note_on,8,0,1,,,,,,,,,0,,,81,88
31517,note_on,17,0,1,,,,,,,,,0,,,72,88
31519,note_on,0,0,3,,,,,,,,,2,,,65,0
31519,note_on,39,0,3,,,,,,,,,2,,,57,0
31519,note_on,0,0,3,,,,,,,,,2,,,60,0
31520,note_on,0,0,1,,,,,,,,,0,,,72,0
31520,note_on,0,0,3,,,,,,,,,2,,,65,88
31520,note_on,0,0,3,,,,,,,,,2,,,69,88
31520,note_on,0,0,1,,,,,,,,,0,,,77,0
31520,note_on,1,0,3,,,,,,,,,2,,,60,88
31520,note_on,0,0,1,,,,,,,,,0,,,69,0
31520,note_on,3,0,1,,,,,,,,,0,,,81,0
31524,note_on,4,0,1,,,,,,,,,0,,,77,88
31532,note_on,8,0,1,,,,,,,,,0,,,81,88
31539,note_on,7,0,1,,,,,,,,,0,,,84,88
31557,note_on,18,0,1,,,,,,,,,0,,,77,88
31559,note_on,2,0,1,,,,,,,,,0,,,84,0
31559,note_on,0,0,1,,,,,,,,,0,,,77,0
31560,note_on,40,0,3,,,,,,,,,2,,,69,0
31560,note_on,1,0,1,,,,,,,,,0,,,72,0
31560,note_on,0,0,1,,,,,,,,,0,,,81,0
31560,note_on,0,0,3,,,,,,,,,2,,,60,0
31560,note_on,0,0,3,,,,,,,,,2,,,65,101
31560,note_on,0,0,3,,,,,,,,,2,,,69,101
31560,note_on,0,0,3,,,,,,,,,2,,,72,101
31560,note_on,0,0,3,,,,,,,,,2,,,65,0
31565,note_on,5,0,1,,,,,,,,,0,,,81,88
31572,note_on,7,0,1,,,,,,,,,0,,,84,88
31580,note_on,8,0,1,,,,,,,,,0,,,89,101
31597,note_on,17,0,1,,,,,,,,,0,,,81,101
31599,note_on,2,0,1,,,,,,,,,0,,,84,0
31599,note_on,0,0,3,,,,,,,,,2,,,77,101
31599,note_on,39,0,3,,,,,,,,,2,,,69,101
31599,note_on,0,0,1,,,,,,,,,0,,,77,0
31599,note_on,0,0,3,,,,,,,,,2,,,72,101
31600,note_on,1,0,3,,,,,,,,,2,,,72,0
31600,note_on,0,0,3,,,,,,,,,2,,,69,0
31600,note_on,0,0,1,,,,,,,,,0,,,89,0
31600,note_on,1,0,1,,,,,,,,,0,,,81,0
31600,note_on,0,0,3,,,,,,,,,2,,,65,0
31605,note_on,5,0,1,,,,,,,,,0,,,84,101
31612,note_on,7,0,1,,,,,,,,,0,,,89,101
31620,note_on,8,0,1,,,,,,,,,0,,,93,101
31637,note_on,17,0,1,,,,,,,,,0,,,84,101
31639,note_on,0,0,3,,,,,,,,,2,,,72,0
31639,note_on,39,0,3,,,,,,,,,2,,,69,0
31639,note_on,0,0,3,,,,,,,,,2,,,77,0
31640,note_on,0,0,1,,,,,,,,,0,,,89,0
31640,note_on,1,0,3,,,,,,,,,2,,,72,101
31640,note_on,0,0,3,,,,,,,,,2,,,77,101
31640,note_on,3,0,1,,,,,,,,,0,,,93,0
31640,note_on,0,0,1,,,,,,,,,0,,,81,0
31640,note_on,0,0,1,,,,,,,,,0,,,84,0
31640,note_on,0,0,3,,,,,,,,,2,,,81,101
31644,note_on,4,0,1,,,,,,,,,0,,,89,101
31652,note_on,8,0,1,,,,,,,,,0,,,93,101
31659,note_on,7,0,1,,,,,,,,,0,,,96,101
31677,note_on,18,0,1,,,,,,,,,0,,,89,101
31679,note_on,0,0,1,,,,,,,,,0,,,89,0
31679,note_on,2,0,1,,,,,,,,,0,,,96,0
31680,note_on,0,0,3,,,,,,,,,2,,,77,0
31680,note_on,0,0,3,,,,,,,,,2,,,72,0
31680,note_on,0,0,3,,,,,,,,,2,,,84,101
31680,note_on,0,0,3,,,,,,,,,2,,,77,101
31680,note_on,40,0,3,,,,,,,,,2,,,81,0
31680,note_on,0,0,1,,,,,,,,,0,,,93,0
31680,note_on,1,0,1,,,,,,,,,0,,,84,0
31680,note_on,0,0,3,,,,,,,,,2,,,81,101
31685,note_on,5,0,1,,,,,,,,,0,,,93,101
31692,note_on,7,0,1,,,,,,,,,0,,,96,101
31700,note_on,8,0,1,,,,,,,,,0,,,101,101
31719,note_on,19,0,1,,,,,,,,,0,,,96,0
31719,note_on,0,0,1,,,,,,,,,0,,,89,0
31720,note_on,0,0,3,,,,,,,,,2,,,81,0
31720,note_on,0,0,3,,,,,,,,,2,,,77,0
31720,note_on,1,0,1,,,,,,,,,0,,,93,0
31720,note_on,40,0,3,,,,,,,,,2,,,84,0
31720,note_on,0,0,1,,,,,,,,,0,,,101,0
31800,control_change,80,0,1,,,,,,,,,0,64,0,,
31800,control_change,80,0,3,,,,,,,,,2,64,0,,
31830,note_on,30,0,1,,,,,,,,,0,,,65,101
31830,note_on,0,0,3,,,,,,,,,2,,,60,101
31830,note_on,0,0,3,,,,,,,,,2,,,63,101
31830,note_on,0,0,1,,,,,,,,,0,,,77,101
31830,note_on,0,0,1,,,,,,,,,0,,,69,101
31830,note_on,30,0,3,,,,,,,,,2,,,53,101
31859,control_change,600,0,2,,,,,,,,,1,64,127,,
31860,note_on,0,0,1,,,,,,,,,0,,,85,127
31860,control_change,0,0,3,,,,,,,,,2,64,127,,
31860,control_change,0,0,1,,,,,,,,,0,64,127,,
31860,time_signature,600,1,0,4,4,24,8,,,,,,,,,
31860,note_on,30,0,1,,,,,,,,,0,,,77,0
31860,note_on,0,0,3,,,,,,,,,2,,,61,75
31860,note_on,0,0,3,,,,,,,,,2,,,60,0
31860,note_on,0,0,3,,,,,,,,,2,,,58,75
31860,note_on,0,0,3,,,,,,,,,2,,,53,75
31860,note_on,0,0,3,,,,,,,,,2,,,53,0
31860,note_on,30,0,3,,,,,,,,,2,,,63,0
31860,note_on,0,0,1,,,,,,,,,0,,,73,127
31860,note_on,0,0,1,,,,,,,,,0,,,65,0
31860,note_on,0,0,1,,,,,,,,,0,,,69,0
31879,note_on,20,0,2,,,,,,,,,1,,,77,75
31879,note_on,0,0,2,,,,,,,,,1,,,82,75
31899,note_on,20,0,2,,,,,,,,,1,,,82,0
31899,note_on,0,0,3,,,,,,,,,2,,,53,75
31899,note_on,0,0,3,,,,,,,,,2,,,58,75
31899,note_on,0,0,2,,,,,,,,,1,,,82,75
31899,note_on,39,0,3,,,,,,,,,2,,,49,75
31899,note_on,0,0,2,,,,,,,,,1,,,77,0
31899,note_on,0,0,2,,,,,,,,,1,,,77,75
31900,note_on,1,0,3,,,,,,,,,2,,,61,0
31900,note_on,0,0,3,,,,,,,,,2,,,53,0
31900,note_on,0,0,3,,,,,,,,,2,,,58,0
31919,note_on,0,0,2,,,,,,,,,1,,,77,0
31919,note_on,0,0,2,,,,,,,,,1,,,82,75
31919,note_on,20,0,2,,,,,,,,,1,,,82,0
31919,note_on,0,0,2,,,,,,,,,1,,,77,75
31920,set_tempo,60,1,0,,,,,,1052632,,,,,,,
31939,note_on,20,0,2,,,,,,,,,1,,,82,0
31939,note_on,0,0,2,,,,,,,,,1,,,82,75
31939,note_on,0,0,2,,,,,,,,,1,,,77,75
31939,note_on,0,0,3,,,,,,,,,2,,,58,0
31939,note_on,39,0,3,,,,,,,,,2,,,49,0
31939,note_on,0,0,3,,,,,,,,,2,,,53,0
31939,note_on,0,0,2,,,,,,,,,1,,,77,0
31940,note_on,0,0,3,,,,,,,,,2,,,53,75
31940,note_on,0,0,3,,,,,,,,,2,,,49,75
31940,note_on,1,0,3,,,,,,,,,2,,,46,75
31959,note_on,0,0,2,,,,,,,,,1,,,77,0
31959,note_on,0,0,2,,,,,,,,,1,,,77,75
31959,note_on,0,0,2,,,,,,,,,1,,,82,75
31959,note_on,20,0,2,,,,,,,,,1,,,82,0
31979,note_on,20,0,2,,,,,,,,,1,,,82,0
31979,note_on,0,0,2,,,,,,,,,1,,,77,0
31980,note_on,40,0,3,,,,,,,,,2,,,53,0
31980,note_on,0,0,1,,,,,,,,,0,,,82,101
31980,note_on,120,0,1,,,,,,,,,0,,,85,0
31980,note_on,0,0,1,,,,,,,,,0,,,70,101
31980,note_on,0,0,3,,,,,,,,,2,,,49,75
31980,note_on,0,0,3,,,,,,,,,2,,,49,0
31980,note_on,0,0,3,,,,,,,,,2,,,46,75
31980,note_on,0,0,3,,,,,,,,,2,,,46,0
31980,note_on,0,0,3,,,,,,,,,2,,,41,75
31980,set_tempo,60,1,0,,,,,,1111111,,,,,,,
31980,note_on,0,0,1,,,,,,,,,0,,,73,0
31999,note_on,20,0,2,,,,,,,,,1,,,73,75
31999,note_on,0,0,2,,,,,,,,,1,,,77,75
32019,note_on,0,0,2,,,,,,,,,1,,,77,75
32019,note_on,0,0,2,,,,,,,,,1,,,73,75
32019,note_on,0,0,2,,,,,,,,,1,,,73,0
32019,note_on,0,0,3,,,,,,,,,2,,,46,75
32019,note_on,39,0,3,,,,,,,,,2,,,37,75
32019,note_on,0,0,3,,,,,,,,,2,,,41,75
32019,note_on,20,0,2,,,,,,,,,1,,,77,0
32020,note_on,0,0,3,,,,,,,,,2,,,41,0
32020,note_on,0,0,3,,,,,,,,,2,,,46,0
32020,note_on,1,0,3,,,,,,,,,2,,,49,0
32039,note_on,0,0,2,,,,,,,,,1,,,73,0
32039,note_on,0,0,2,,,,,,,,,1,,,77,75
32039,note_on,20,0,2,,,,,,,,,1,,,77,0
32039,note_on,0,0,2,,,,,,,,,1,,,73,75
32040,set_tempo,60,1,0,,,,,,1176471,,,,,,,
32059,note_on,39,0,3,,,,,,,,,2,,,37,0
32059,note_on,0,0,2,,,,,,,,,1,,,73,0
32059,note_on,0,0,3,,,,,,,,,2,,,46,0
32059,note_on,0,0,3,,,,,,,,,2,,,41,0
32059,note_on,20,0,2,,,,,,,,,1,,,77,0
32060,note_on,1,0,3,,,,,,,,,2,,,34,62
32060,note_on,0,0,1,,,,,,,,,0,,,65,88
32060,note_on,0,0,3,,,,,,,,,2,,,37,62
32060,note_on,0,0,3,,,,,,,,,2,,,41,62
32060,note_on,80,0,1,,,,,,,,,0,,,82,0
32060,note_on,0,0,1,,,,,,,,,0,,,70,0
32060,note_on,0,0,1,,,,,,,,,0,,,77,88
32079,note_on,0,0,2,,,,,,,,,1,,,73,62
32079,note_on,20,0,2,,,,,,,,,1,,,70,62
32099,note_on,20,0,2,,,,,,,,,1,,,73,0
32099,note_on,0,0,2,,,,,,,,,1,,,70,0
32100,note_on,40,0,3,,,,,,,,,2,,,41,0
32100,note_on,0,0,1,,,,,,,,,0,,,61,114
32100,note_on,0,0,3,,,,,,,,,2,,,29,62
32100,set_tempo,60,1,0,,,,,,1276596,,,,,,,
32100,note_on,40,0,1,,,,,,,,,0,,,77,0
32100,note_on,0,0,3,,,,,,,,,2,,,34,0
32100,note_on,0,0,3,,,,,,,,,2,,,34,62
32100,note_on,0,0,3,,,,,,,,,2,,,37,0
32100,note_on,0,0,3,,,,,,,,,2,,,37,62
32100,note_on,0,0,1,,,,,,,,,0,,,65,0
32100,note_on,0,0,1,,,,,,,,,0,,,73,114
32119,note_on,20,0,2,,,,,,,,,1,,,65,62
32119,note_on,0,0,2,,,,,,,,,1,,,70,62
32139,note_on,0,0,2,,,,,,,,,1,,,70,62
32139,note_on,20,0,2,,,,,,,,,1,,,70,0
32139,note_on,0,0,2,,,,,,,,,1,,,65,62
32139,note_on,0,0,2,,,,,,,,,1,,,65,0
32139,note_on,39,0,3,,,,,,,,,2,,,34,62
32139,note_on,0,0,3,,,,,,,,,2,,,37,62
32139,note_on,0,0,3,,,,,,,,,2,,,41,62
32140,note_on,1,0,3,,,,,,,,,2,,,37,0
32140,note_on,0,0,3,,,,,,,,,2,,,29,0
32140,note_on,0,0,3,,,,,,,,,2,,,34,0
32159,note_on,0,0,2,,,,,,,,,1,,,65,62
32159,note_on,0,0,2,,,,,,,,,1,,,70,62
32159,note_on,20,0,2,,,,,,,,,1,,,70,0
32159,note_on,0,0,2,,,,,,,,,1,,,65,0
32160,set_tempo,60,1,0,,,,,,1363636,,,,,,,
32179,note_on,0,0,3,,,,,,,,,2,,,41,0
32179,note_on,0,0,3,,,,,,,,,2,,,37,0
32179,note_on,20,0,2,,,,,,,,,1,,,70,0
32179,note_on,39,0,3,,,,,,,,,2,,,34,0
32179,note_on,0,0,2,,,,,,,,,1,,,65,0
32180,note_on,0,0,3,,,,,,,,,2,,,41,49
32180,note_on,0,0,3,,,,,,,,,2,,,46,49
32180,note_on,0,0,1,,,,,,,,,0,,,70,75
32180,note_on,0,0,1,,,,,,,,,0,,,61,0
32180,note_on,1,0,3,,,,,,,,,2,,,37,49
32180,note_on,0,0,1,,,,,,,,,0,,,58,75
32180,note_on,80,0,1,,,,,,,,,0,,,73,0
32199,note_on,20,0,2,,,,,,,,,1,,,61,49
32199,note_on,0,0,2,,,,,,,,,1,,,65,49
32219,note_on,0,0,2,,,,,,,,,1,,,61,0
32219,note_on,20,0,2,,,,,,,,,1,,,65,0
32220,note_on,0,0,3,,,,,,,,,2,,,41,49
32220,note_on,0,0,3,,,,,,,,,2,,,46,49
32220,note_on,0,0,3,,,,,,,,,2,,,49,49
32220,note_on,0,0,3,,,,,,,,,2,,,41,0
32220,note_on,40,0,1,,,,,,,,,0,,,70,0
32220,note_on,0,0,3,,,,,,,,,2,,,37,0
32220,note_on,0,0,1,,,,,,,,,0,,,58,0
32220,note_on,0,0,1,,,,,,,,,0,,,65,75
32220,set_tempo,60,1,0,,,,,,1463415,,,,,,,
32220,note_on,40,0,3,,,,,,,,,2,,,46,0
32220,note_on,0,0,1,,,,,,,,,0,,,53,75
32239,note_on,0,0,2,,,,,,,,,1,,,61,49
32239,note_on,20,0,2,,,,,,,,,1,,,58,49
32259,note_on,0,0,2,,,,,,,,,1,,,58,0
32259,note_on,0,0,2,,,,,,,,,1,,,58,49
32259,note_on,0,0,2,,,,,,,,,1,,,61,49
32259,note_on,0,0,3,,,,,,,,,2,,,41,49
32259,note_on,0,0,3,,,,,,,,,2,,,46,49
32259,note_on,39,0,3,,,,,,,,,2,,,37,49
32259,note_on,20,0,2,,,,,,,,,1,,,61,0
32260,note_on,0,0,3,,,,,,,,,2,,,41,0
32260,note_on,0,0,3,,,,,,,,,2,,,46,0
32260,note_on,1,0,3,,,,,,,,,2,,,49,0
32279,note_on,0,0,2,,,,,,,,,1,,,61,49
32279,note_on,0,0,2,,,,,,,,,1,,,58,49
32279,note_on,0,0,2,,,,,,,,,1,,,58,0
32279,note_on,20,0,2,,,,,,,,,1,,,61,0
32280,set_tempo,60,1,0,,,,,,1578947,,,,,,,
32299,note_on,0,0,3,,,,,,,,,2,,,46,0
32299,note_on,20,0,2,,,,,,,,,1,,,61,0
32299,note_on,0,0,2,,,,,,,,,1,,,58,0
32299,note_on,0,0,3,,,,,,,,,2,,,41,0
32299,note_on,39,0,3,,,,,,,,,2,,,37,0
32300,note_on,0,0,3,,,,,,,,,2,,,34,49
32300,note_on,0,0,3,,,,,,,,,2,,,37,49
32300,note_on,0,0,3,,,,,,,,,2,,,41,49
32300,note_on,0,0,1,,,,,,,,,0,,,49,75
32300,control_change,0,0,1,,,,,,,,,0,64,0,,
32300,note_on,0,0,1,,,,,,,,,0,,,53,0
32300,note_on,80,0,1,,,,,,,,,0,,,65,0
32300,control_change,1,0,3,,,,,,,,,2,64,0,,
32300,note_on,0,0,1,,,,,,,,,0,,,61,75
32319,control_change,20,0,2,,,,,,,,,1,64,0,,
32319,note_on,0,0,2,,,,,,,,,1,,,58,49
32319,note_on,0,0,2,,,,,,,,,1,,,53,49
32339,note_on,20,0,2,,,,,,,,,1,,,58,0
32339,note_on,0,0,2,,,,,,,,,1,,,53,0
32340,note_on,40,0,3,,,,,,,,,2,,,41,0
32340,note_on,0,0,3,,,,,,,,,2,,,37,0
32340,note_on,0,0,3,,,,,,,,,2,,,41,49
32340,set_tempo,60,1,0,,,,,,1071429,,,,,,,
32340,note_on,0,0,1,,,,,,,,,0,,,49,0
32340,note_on,0,0,1,,,,,,,,,0,,,53,75
32340,note_on,0,0,3,,,,,,,,,2,,,36,49
32340,note_on,0,0,3,,,,,,,,,2,,,34,0
32340,note_on,0,0,1,,,,,,,,,0,,,57,75
32340,note_on,0,0,1,,,,,,,,,0,,,65,75
32340,control_change,0,0,3,,,,,,,,,2,64,127,,
32340,control_change,0,0,1,,,,,,,,,0,64,127,,
32340,note_on,40,0,1,,,,,,,,,0,,,61,0
32340,note_on,0,0,3,,,,,,,,,2,,,29,49
32400,note_on,0,0,1,,,,,,,,,0,,,57,0
32400,note_on,0,0,1,,,,,,,,,0,,,53,0
32400,note_on,0,0,1,,,,,,,,,0,,,53,75
32400,note_on,0,0,3,,,,,,,,,2,,,29,0
32400,note_on,60,0,3,,,,,,,,,2,,,41,0
32400,note_on,0,0,3,,,,,,,,,2,,,36,0
32400,note_on,0,0,3,,,,,,,,,2,,,41,49
32400,note_on,60,0,1,,,,,,,,,0,,,65,0
32413,note_on,13,0,1,,,,,,,,,0,,,53,0
32413,note_on,0,0,3,,,,,,,,,2,,,45,49
32413,note_on,0,0,1,,,,,,,,,0,,,57,75
32413,note_on,13,0,3,,,,,,,,,2,,,41,0
32426,note_on,13,0,1,,,,,,,,,0,,,57,0
32426,note_on,0,0,1,,,,,,,,,0,,,60,75
32426,note_on,13,0,3,,,,,,,,,2,,,45,0
32426,note_on,0,0,3,,,,,,,,,2,,,48,49
32439,note_on,13,0,1,,,,,,,,,0,,,60,0
32439,note_on,13,0,3,,,,,,,,,2,,,48,0
32439,note_on,0,0,1,,,,,,,,,0,,,65,75
32439,note_on,0,0,3,,,,,,,,,2,,,53,49
32453,note_on,0,0,1,,,,,,,,,0,,,69,75
32453,note_on,0,0,3,,,,,,,,,2,,,57,49
32453,note_on,14,0,3,,,,,,,,,2,,,53,0
32453,note_on,14,0,1,,,,,,,,,0,,,65,0
32466,note_on,0,0,3,,,,,,,,,2,,,60,49
32466,note_on,13,0,3,,,,,,,,,2,,,57,0
32466,note_on,0,0,1,,,,,,,,,0,,,72,75
32466,note_on,13,0,1,,,,,,,,,0,,,69,0
32480,note_on,0,0,3,,,,,,,,,2,,,65,88
32480,note_on,14,0,1,,,,,,,,,0,,,72,0
32480,note_on,14,0,3,,,,,,,,,2,,,60,0
32480,note_on,0,0,1,,,,,,,,,0,,,77,88
32493,note_on,0,0,3,,,,,,,,,2,,,69,88
32493,note_on,13,0,3,,,,,,,,,2,,,65,0
32493,note_on,0,0,1,,,,,,,,,0,,,81,88
32493,note_on,13,0,1,,,,,,,,,0,,,77,0
32506,note_on,13,0,3,,,,,,,,,2,,,69,0
32506,note_on,0,0,1,,,,,,,,,0,,,84,88
32506,note_on,0,0,3,,,,,,,,,2,,,72,88
32506,note_on,13,0,1,,,,,,,,,0,,,81,0
32520,note_on,14,0,3,,,,,,,,,2,,,72,0
32520,note_on,0,0,3,,,,,,,,,2,,,77,88
32520,note_on,14,0,1,,,,,,,,,0,,,84,0
32520,note_on,0,0,1,,,,,,,,,0,,,89,88
32533,note_on,13,0,1,,,,,,,,,0,,,89,0
32533,note_on,0,0,1,,,,,,,,,0,,,93,88
32533,note_on,13,0,3,,,,,,,,,2,,,77,0
32533,note_on,0,0,3,,,,,,,,,2,,,81,88
32546,note_on,13,0,1,,,,,,,,,0,,,93,0
32546,note_on,13,0,3,,,,,,,,,2,,,81,0
32546,note_on,0,0,1,,,,,,,,,0,,,96,88
32546,note_on,0,0,3,,,,,,,,,2,,,84,88
32559,note_on,13,0,3,,,,,,,,,2,,,84,0
32559,note_on,0,0,1,,,,,,,,,0,,,101,101
32559,note_on,0,0,3,,,,,,,,,2,,,89,101
32559,note_on,13,0,1,,,,,,,,,0,,,96,0
32573,note_on,0,0,1,,,,,,,,,0,,,96,101
32573,note_on,0,0,3,,,,,,,,,2,,,84,101
32573,note_on,14,0,1,,,,,,,,,0,,,101,0
32573,note_on,14,0,3,,,,,,,,,2,,,89,0
32586,note_on,13,0,3,,,,,,,,,2,,,84,0
32586,note_on,0,0,3,,,,,,,,,2,,,81,101
32586,note_on,13,0,1,,,,,,,,,0,,,96,0
32586,note_on,0,0,1,,,,,,,,,0,,,93,101
32600,note_on,0,0,3,,,,,,,,,2,,,77,101
32600,note_on,0,0,1,,,,,,,,,0,,,89,101
32600,note_on,14,0,3,,,,,,,,,2,,,81,0
32600,note_on,14,0,1,,,,,,,,,0,,,93,0
32613,note_on,13,0,3,,,,,,,,,2,,,77,0
32613,note_on,0,0,1,,,,,,,,,0,,,84,101
32613,note_on,0,0,3,,,,,,,,,2,,,72,101
32613,note_on,13,0,1,,,,,,,,,0,,,89,0
32626,note_on,13,0,3,,,,,,,,,2,,,72,0
32626,note_on,0,0,3,,,,,,,,,2,,,69,101
32626,note_on,0,0,1,,,,,,,,,0,,,81,101
32626,note_on,13,0,1,,,,,,,,,0,,,84,0
32640,note_on,14,0,1,,,,,,,,,0,,,81,0
32640,note_on,0,0,1,,,,,,,,,0,,,77,101
32640,note_on,14,0,3,,,,,,,,,2,,,69,0
32640,note_on,0,0,3,,,,,,,,,2,,,65,101
32653,note_on,0,0,3,,,,,,,,,2,,,60,101
32653,note_on,0,0,1,,,,,,,,,0,,,72,101
32653,note_on,13,0,1,,,,,,,,,0,,,77,0
32653,note_on,13,0,3,,,,,,,,,2,,,65,0
32666,note_on,13,0,3,,,,,,,,,2,,,60,0
32666,note_on,0,0,1,,,,,,,,,0,,,69,101
32666,note_on,0,0,3,,,,,,,,,2,,,57,101
32666,note_on,13,0,1,,,,,,,,,0,,,72,0
32679,note_on,13,0,3,,,,,,,,,2,,,57,0
32679,note_on,0,0,1,,,,,,,,,0,,,65,101
32679,note_on,0,0,3,,,,,,,,,2,,,53,101
32679,note_on,13,0,1,,,,,,,,,0,,,69,0
32693,note_on,0,0,3,,,,,,,,,2,,,48,101
32693,note_on,14,0,1,,,,,,,,,0,,,65,0
32693,note_on,14,0,3,,,,,,,,,2,,,53,0
32693,note_on,0,0,1,,,,,,,,,0,,,60,101
32706,note_on,13,0,1,,,,,,,,,0,,,60,0
32706,note_on,0,0,3,,,,,,,,,2,,,45,101
32706,note_on,0,0,3,,,,,,,,,2,,,41,101
32706,note_on,0,0,1,,,,,,,,,0,,,53,101
32706,note_on,13,0,3,,,,,,,,,2,,,48,0
32706,note_on,0,0,1,,,,,,,,,0,,,57,101
32720,note_on,0,0,1,,,,,,,,,0,,,53,101
32720,note_on,14,0,1,,,,,,,,,0,,,57,0
32720,note_on,0,0,3,,,,,,,,,2,,,41,101
32720,note_on,14,0,3,,,,,,,,,2,,,45,0
32720,note_on,0,0,3,,,,,,,,,2,,,41,0
32720,note_on,0,0,1,,,,,,,,,0,,,53,0
32760,note_on,40,0,3,,,,,,,,,2,,,41,0
32760,note_on,40,0,1,,,,,,,,,0,,,53,0
32790,note_on,0,0,1,,,,,,,,,0,,,77,101
32790,note_on,0,0,1,,,,,,,,,0,,,65,101
32790,note_on,0,0,3,,,,,,,,,2,,,53,101
32790,control_change,30,0,3,,,,,,,,,2,64,0,,
32790,control_change,30,0,1,,,,,,,,,0,64,0,,
32790,note_on,0,0,3,,,,,,,,,2,,,41,101
32820,note_on,30,0,1,,,,,,,,,0,,,77,0
32820,note_on,30,0,3,,,,,,,,,2,,,53,0
32820,note_on,0,0,1,,,,,,,,,0,,,69,101
32820,note_on,0,0,1,,,,,,,,,0,,,81,101
32820,note_on,0,0,1,,,,,,,,,0,,,77,101
32820,note_on,0,0,1,,,,,,,,,0,,,65,0
32820,note_on,0,0,3,,,,,,,,,2,,,51,101
32820,control_change,0,0,3,,,,,,,,,2,64,127,,
32820,note_on,0,0,3,,,,,,,,,2,,,39,101
32820,note_on,0,0,3,,,,,,,,,2,,,41,0
32820,control_change,0,0,1,,,,,,,,,0,64,127,,
32880,note_on,0,0,1,,,,,,,,,0,,,69,0
32880,note_on,0,0,1,,,,,,,,,0,,,77,0
32880,note_on,0,0,3,,,,,,,,,2,,,39,0
32880,note_on,0,0,3,,,,,,,,,2,,,41,75
32880,note_on,60,0,3,,,,,,,,,2,,,51,0
32880,note_on,0,0,1,,,,,,,,,0,,,53,75
32880,note_on,60,0,1,,,,,,,,,0,,,81,0
32893,note_on,13,0,1,,,,,,,,,0,,,53,0
32893,note_on,0,0,3,,,,,,,,,2,,,45,75
32893,note_on,13,0,3,,,,,,,,,2,,,41,0
32893,note_on,0,0,1,,,,,,,,,0,,,57,75
32906,note_on,0,0,1,,,,,,,,,0,,,60,75
32906,note_on,13,0,1,,,,,,,,,0,,,57,0
32906,note_on,13,0,3,,,,,,,,,2,,,45,0
32906,note_on,0,0,3,,,,,,,,,2,,,48,75
32919,note_on,13,0,3,,,,,,,,,2,,,48,0
32919,note_on,0,0,1,,,,,,,,,0,,,65,75
32919,note_on,0,0,3,,,,,,,,,2,,,53,75
32919,note_on,13,0,1,,,,,,,,,0,,,60,0
32933,note_on,0,0,1,,,,,,,,,0,,,69,75
32933,note_on,0,0,3,,,,,,,,,2,,,57,75
32933,note_on,14,0,1,,,,,,,,,0,,,65,0
32933,note_on,14,0,3,,,,,,,,,2,,,53,0
32946,note_on,13,0,3,,,,,,,,,2,,,57,0
32946,note_on,0,0,3,,,,,,,,,2,,,60,75
32946,note_on,0,0,1,,,,,,,,,0,,,72,75
32946,note_on,13,0,1,,,,,,,,,0,,,69,0
32960,note_on,14,0,3,,,,,,,,,2,,,60,0
32960,note_on,14,0,1,,,,,,,,,0,,,72,0
32960,note_on,0,0,1,,,,,,,,,0,,,77,88
32960,note_on,0,0,3,,,,,,,,,2,,,65,88
32973,note_on,0,0,1,,,,,,,,,0,,,81,88
32973,note_on,13,0,1,,,,,,,,,0,,,77,0
32973,note_on,0,0,3,,,,,,,,,2,,,69,88
32973,note_on,13,0,3,,,,,,,,,2,,,65,0
32986,note_on,0,0,3,,,,,,,,,2,,,72,88
32986,note_on,13,0,1,,,,,,,,,0,,,81,0
32986,note_on,13,0,3,,,,,,,,,2,,,69,0
32986,note_on,0,0,1,,,,,,,,,0,,,84,88
33000,note_on,0,0,1,,,,,,,,,0,,,89,88
33000,note_on,14,0,1,,,,,,,,,0,,,84,0
33000,note_on,14,0,3,,,,,,,,,2,,,72,0
33000,note_on,0,0,3,,,,,,,,,2,,,77,88
33013,note_on,13,0,1,,,,,,,,,0,,,89,0
33013,note_on,0,0,1,,,,,,,,,0,,,93,88
33013,note_on,0,0,3,,,,,,,,,2,,,81,88
33013,note_on,13,0,3,,,,,,,,,2,,,77,0
33026,note_on,0,0,3,,,,,,,,,2,,,84,88
33026,note_on,13,0,3,,,,,,,,,2,,,81,0
33026,note_on,13,0,1,,,,,,,,,0,,,93,0
33026,note_on,0,0,1,,,,,,,,,0,,,96,88
33039,note_on,0,0,3,,,,,,,,,2,,,89,101
33039,note_on,0,0,1,,,,,,,,,0,,,101,101
33039,note_on,13,0,3,,,,,,,,,2,,,84,0
33039,note_on,13,0,1,,,,,,,,,0,,,96,0
33053,note_on,0,0,1,,,,,,,,,0,,,96,101
33053,note_on,14,0,3,,,,,,,,,2,,,89,0
33053,note_on,14,0,1,,,,,,,,,0,,,101,0
33053,note_on,0,0,3,,,,,,,,,2,,,84,101
33066,note_on,0,0,1,,,,,,,,,0,,,93,101
33066,note_on,0,0,3,,,,,,,,,2,,,81,101
33066,note_on,13,0,3,,,,,,,,,2,,,84,0
33066,note_on,13,0,1,,,,,,,,,0,,,96,0
33080,note_on,14,0,3,,,,,,,,,2,,,81,0
33080,note_on,14,0,1,,,,,,,,,0,,,93,0
33080,note_on,0,0,3,,,,,,,,,2,,,77,101
33080,note_on,0,0,1,,,,,,,,,0,,,89,101
33093,note_on,13,0,1,,,,,,,,,0,,,89,0
33093,note_on,0,0,3,,,,,,,,,2,,,72,101
33093,note_on,13,0,3,,,,,,,,,2,,,77,0
33093,note_on,0,0,1,,,,,,,,,0,,,84,101
33106,note_on,13,0,1,,,,,,,,,0,,,84,0
33106,note_on,0,0,1,,,,,,,,,0,,,81,101
33106,note_on,13,0,3,,,,,,,,,2,,,72,0
33106,note_on,0,0,3,,,,,,,,,2,,,69,101
33120,note_on,0,0,1,,,,,,,,,0,,,77,101
33120,note_on,0,0,3,,,,,,,,,2,,,65,101
33120,note_on,14,0,3,,,,,,,,,2,,,69,0
33120,note_on,14,0,1,,,,,,,,,0,,,81,0
33133,note_on,0,0,1,,,,,,,,,0,,,72,101
33133,note_on,0,0,3,,,,,,,,,2,,,60,101
33133,note_on,13,0,1,,,,,,,,,0,,,77,0
33133,note_on,13,0,3,,,,,,,,,2,,,65,0
33146,note_on,13,0,1,,,,,,,,,0,,,72,0
33146,note_on,0,0,1,,,,,,,,,0,,,69,101
33146,note_on,0,0,3,,,,,,,,,2,,,57,101
33146,note_on,13,0,3,,,,,,,,,2,,,60,0
33159,note_on,0,0,1,,,,,,,,,0,,,65,101
33159,note_on,13,0,1,,,,,,,,,0,,,69,0
33159,note_on,13,0,3,,,,,,,,,2,,,57,0
33159,note_on,0,0,3,,,,,,,,,2,,,53,101
33173,note_on,0,0,1,,,,,,,,,0,,,60,101
33173,note_on,14,0,3,,,,,,,,,2,,,53,0
33173,note_on,14,0,1,,,,,,,,,0,,,65,0
33173,note_on,0,0,3,,,,,,,,,2,,,48,101
33186,note_on,0,0,3,,,,,,,,,2,,,41,101
33186,note_on,0,0,1,,,,,,,,,0,,,53,101
33186,note_on,0,0,1,,,,,,,,,0,,,57,101
33186,note_on,0,0,3,,,,,,,,,2,,,45,101
33186,note_on,13,0,3,,,,,,,,,2,,,48,0
33186,note_on,13,0,1,,,,,,,,,0,,,60,0
33200,note_on,0,0,1,,,,,,,,,0,,,53,0
33200,note_on,0,0,1,,,,,,,,,0,,,53,101
33200,note_on,0,0,3,,,,,,,,,2,,,41,0
33200,note_on,0,0,3,,,,,,,,,2,,,41,101
33200,note_on,14,0,3,,,,,,,,,2,,,45,0
33200,note_on,14,0,1,,,,,,,,,0,,,57,0
33240,note_on,40,0,1,,,,,,,,,0,,,53,0
33240,note_on,40,0,3,,,,,,,,,2,,,41,0
33270,note_on,0,0,3,,,,,,,,,2,,,39,101
33270,note_on,0,0,3,,,,,,,,,2,,,41,101
33270,control_change,30,0,1,,,,,,,,,0,64,0,,
33270,control_change,30,0,3,,,,,,,,,2,64,0,,
33270,note_on,0,0,1,,,,,,,,,0,,,77,101
33270,note_on,0,0,1,,,,,,,,,0,,,69,101
33270,note_on,0,0,3,,,,,,,,,2,,,51,101
33270,note_on,0,0,1,,,,,,,,,0,,,81,101
33300,control_change,0,0,3,,,,,,,,,2,64,127,,
33300,note_on,30,0,3,,,,,,,,,2,,,51,0
33300,note_on,0,0,3,,,,,,,,,2,,,39,0
33300,note_on,0,0,3,,,,,,,,,2,,,41,0
33300,note_on,0,0,3,,,,,,,,,2,,,41,101
33300,note_on,0,0,3,,,,,,,,,2,,,50,101
33300,note_on,0,0,1,,,,,,,,,0,,,77,101
33300,note_on,0,0,1,,,,,,,,,0,,,82,101
33300,note_on,30,0,1,,,,,,,,,0,,,81,0
33300,control_change,0,0,1,,,,,,,,,0,64,127,,
33300,note_on,0,0,3,,,,,,,,,2,,,38,101
33300,note_on,0,0,1,,,,,,,,,0,,,77,0
33300,note_on,0,0,1,,,,,,,,,0,,,69,0
33300,note_on,0,0,1,,,,,,,,,0,,,70,101
33360,note_on,0,0,1,,,,,,,,,0,,,53,75
33360,note_on,0,0,1,,,,,,,,,0,,,70,0
33360,note_on,0,0,1,,,,,,,,,0,,,77,0
33360,note_on,60,0,3,,,,,,,,,2,,,50,0
33360,note_on,60,0,1,,,,,,,,,0,,,82,0
33360,note_on,0,0,3,,,,,,,,,2,,,38,0
33360,note_on,0,0,3,,,,,,,,,2,,,41,0
33360,note_on,0,0,3,,,,,,,,,2,,,41,75
33373,note_on,0,0,1,,,,,,,,,0,,,58,75
33373,note_on,13,0,1,,,,,,,,,0,,,53,0
33373,note_on,13,0,3,,,,,,,,,2,,,41,0
33373,note_on,0,0,3,,,,,,,,,2,,,46,75
33386,note_on,0,0,3,,,,,,,,,2,,,50,75
33386,note_on,13,0,1,,,,,,,,,0,,,58,0
33386,note_on,13,0,3,,,,,,,,,2,,,46,0
33386,note_on,0,0,1,,,,,,,,,0,,,62,75
33399,note_on,0,0,1,,,,,,,,,0,,,65,75
33399,note_on,0,0,3,,,,,,,,,2,,,53,75
33399,note_on,13,0,3,,,,,,,,,2,,,50,0
33399,note_on,13,0,1,,,,,,,,,0,,,62,0
33413,note_on,14,0,3,,,,,,,,,2,,,53,0
33413,note_on,0,0,1,,,,,,,,,0,,,70,75
33413,note_on,14,0,1,,,,,,,,,0,,,65,0
33413,note_on,0,0,3,,,,,,,,,2,,,58,75
33426,note_on,13,0,1,,,,,,,,,0,,,70,0
33426,note_on,0,0,1,,,,,,,,,0,,,74,75
33426,note_on,13,0,3,,,,,,,,,2,,,58,0
33426,note_on,0,0,3,,,,,,,,,2,,,62,75
33440,note_on,14,0,3,,,,,,,,,2,,,62,0
33440,note_on,0,0,3,,,,,,,,,2,,,65,88
33440,note_on,0,0,1,,,,,,,,,0,,,77,88
33440,note_on,14,0,1,,,,,,,,,0,,,74,0
33453,note_on,0,0,3,,,,,,,,,2,,,70,88
33453,note_on,0,0,1,,,,,,,,,0,,,82,88
33453,note_on,13,0,1,,,,,,,,,0,,,77,0
33453,note_on,13,0,3,,,,,,,,,2,,,65,0
33466,note_on,13,0,1,,,,,,,,,0,,,82,0
33466,note_on,0,0,1,,,,,,,,,0,,,86,88
33466,note_on,13,0,3,,,,,,,,,2,,,70,0
33466,note_on,0,0,3,,,,,,,,,2,,,74,88
33480,note_on,14,0,3,,,,,,,,,2,,,74,0
33480,note_on,14,0,1,,,,,,,,,0,,,86,0
33480,note_on,0,0,3,,,,,,,,,2,,,77,88
33480,note_on,0,0,1,,,,,,,,,0,,,89,88
33493,note_on,13,0,1,,,,,,,,,0,,,89,0
33493,note_on,0,0,1,,,,,,,,,0,,,94,88
33493,note_on,0,0,3,,,,,,,,,2,,,82,88
33493,note_on,13,0,3,,,,,,,,,2,,,77,0
33506,note_on,13,0,1,,,,,,,,,0,,,94,0
33506,note_on,0,0,3,,,,,,,,,2,,,86,88
33506,note_on,13,0,3,,,,,,,,,2,,,82,0
33506,note_on,0,0,1,,,,,,,,,0,,,98,88
33519,note_on,0,0,1,,,,,,,,,0,,,101,101
33519,note_on,0,0,3,,,,,,,,,2,,,89,101
33519,note_on,13,0,3,,,,,,,,,2,,,86,0
33519,note_on,13,0,1,,,,,,,,,0,,,98,0
33533,note_on,0,0,1,,,,,,,,,0,,,98,101
33533,note_on,14,0,3,,,,,,,,,2,,,89,0
33533,note_on,0,0,3,,,,,,,,,2,,,86,101
33533,note_on,14,0,1,,,,,,,,,0,,,101,0
33546,note_on,0,0,1,,,,,,,,,0,,,94,101
33546,note_on,13,0,1,,,,,,,,,0,,,98,0
33546,note_on,0,0,3,,,,,,,,,2,,,82,101
33546,note_on,13,0,3,,,,,,,,,2,,,86,0
33560,note_on,0,0,1,,,,,,,,,0,,,89,101
33560,note_on,0,0,3,,,,,,,,,2,,,77,101
33560,note_on,14,0,1,,,,,,,,,0,,,94,0
33560,note_on,14,0,3,,,,,,,,,2,,,82,0
33573,note_on,13,0,3,,,,,,,,,2,,,77,0
33573,note_on,0,0,1,,,,,,,,,0,,,86,101
33573,note_on,0,0,3,,,,,,,,,2,,,74,101
33573,note_on,13,0,1,,,,,,,,,0,,,89,0
33586,note_on,13,0,3,,,,,,,,,2,,,74,0
33586,note_on,0,0,1,,,,,,,,,0,,,82,101
33586,note_on,13,0,1,,,,,,,,,0,,,86,0
33586,note_on,0,0,3,,,,,,,,,2,,,70,101
33600,note_on,0,0,1,,,,,,,,,0,,,77,101
33600,note_on,14,0,1,,,,,,,,,0,,,82,0
33600,note_on,14,0,3,,,,,,,,,2,,,70,0
33600,note_on,0,0,3,,,,,,,,,2,,,65,101
33613,note_on,13,0,3,,,,,,,,,2,,,65,0
33613,note_on,0,0,1,,,,,,,,,0,,,74,101
33613,note_on,13,0,1,,,,,,,,,0,,,77,0
33613,note_on,0,0,3,,,,,,,,,2,,,62,101
33626,note_on,0,0,1,,,,,,,,,0,,,70,101
33626,note_on,13,0,3,,,,,,,,,2,,,62,0
33626,note_on,13,0,1,,,,,,,,,0,,,74,0
33626,note_on,0,0,3,,,,,,,,,2,,,58,101
33639,note_on,13,0,1,,,,,,,,,0,,,70,0
33639,note_on,0,0,1,,,,,,,,,0,,,65,101
33639,note_on,13,0,3,,,,,,,,,2,,,58,0
33639,note_on,0,0,3,,,,,,,,,2,,,53,101
33653,note_on,0,0,3,,,,,,,,,2,,,50,101
33653,note_on,0,0,1,,,,,,,,,0,,,62,101
33653,note_on,14,0,1,,,,,,,,,0,,,65,0
33653,note_on,14,0,3,,,,,,,,,2,,,53,0
33666,note_on,13,0,1,,,,,,,,,0,,,62,0
33666,note_on,0,0,1,,,,,,,,,0,,,58,101
33666,note_on,0,0,3,,,,,,,,,2,,,46,101
33666,note_on,13,0,3,,,,,,,,,2,,,50,0
33680,note_on,14,0,1,,,,,,,,,0,,,58,0
33680,note_on,0,0,3,,,,,,,,,2,,,41,101
33680,note_on,0,0,1,,,,,,,,,0,,,53,101
33680,note_on,14,0,3,,,,,,,,,2,,,46,0
33720,note_on,40,0,3,,,,,,,,,2,,,41,0
33720,note_on,40,0,1,,,,,,,,,0,,,53,0
33750,note_on,0,0,3,,,,,,,,,2,,,41,101
33750,note_on,0,0,3,,,,,,,,,2,,,38,101
33750,note_on,0,0,3,,,,,,,,,2,,,50,101
33750,note_on,0,0,1,,,,,,,,,0,,,70,101
33750,note_on,0,0,1,,,,,,,,,0,,,77,101
33750,note_on,0,0,1,,,,,,,,,0,,,82,101
33750,control_change,30,0,1,,,,,,,,,0,64,0,,
33750,control_change,30,0,3,,,,,,,,,2,64,0,,
33779,control_change,1440,0,2,,,,,,,,,1,64,127,,
33780,note_on,0,0,1,,,,,,,,,0,,,82,101
33780,note_on,0,0,4,,,,,,,,,3,,,42,88
33780,note_on,0,0,1,,,,,,,,,0,,,77,0
33780,note_on,0,0,4,,,,,,,,,3,,,49,88
33780,control_change,0,0,3,,,,,,,,,2,64,127,,
33780,note_on,30,0,1,,,,,,,,,0,,,82,0
33780,note_on,0,0,1,,,,,,,,,0,,,70,101
33780,note_on,0,0,1,,,,,,,,,0,,,76,101
33780,note_on,0,0,1,,,,,,,,,0,,,70,0
33780,note_on,4920,0,4,,,,,,,,,3,,,37,88
33780,note_on,30,0,3,,,,,,,,,2,,,50,0
33780,note_on,0,0,3,,,,,,,,,2,,,41,0
33780,note_on,0,0,3,,,,,,,,,2,,,38,0
33819,note_on,39,0,3,,,,,,,,,2,,,46,75
33819,note_on,40,0,2,,,,,,,,,1,,,58,75
33832,note_on,13,0,2,,,,,,,,,1,,,64,75
33833,note_on,1,0,2,,,,,,,,,1,,,58,0
33833,note_on,14,0,3,,,,,,,,,2,,,46,0
33833,note_on,0,0,3,,,,,,,,,2,,,52,75
33845,note_on,12,0,2,,,,,,,,,1,,,64,0
33845,note_on,0,0,2,,,,,,,,,1,,,66,75
33846,note_on,13,0,3,,,,,,,,,2,,,52,0
33846,note_on,0,0,3,,,,,,,,,2,,,54,75
33859,note_on,14,0,2,,,,,,,,,1,,,66,0
33859,note_on,0,0,2,,,,,,,,,1,,,70,75
33860,note_on,0,0,3,,,,,,,,,2,,,58,75
33860,note_on,14,0,3,,,,,,,,,2,,,54,0
33872,note_on,0,0,2,,,,,,,,,1,,,76,75
33872,note_on,13,0,2,,,,,,,,,1,,,70,0
33873,note_on,0,0,3,,,,,,,,,2,,,64,75
33873,note_on,13,0,3,,,,,,,,,2,,,58,0
33885,note_on,0,0,2,,,,,,,,,1,,,78,75
33885,note_on,13,0,2,,,,,,,,,1,,,76,0
33886,note_on,0,0,3,,,,,,,,,2,,,66,75
33886,note_on,13,0,3,,,,,,,,,2,,,64,0
33899,note_on,0,0,2,,,,,,,,,1,,,82,75
33899,note_on,14,0,2,,,,,,,,,1,,,78,0
33900,note_on,0,0,3,,,,,,,,,2,,,70,75
33900,note_on,14,0,3,,,,,,,,,2,,,66,0
33912,note_on,13,0,2,,,,,,,,,1,,,82,0
33912,note_on,0,0,2,,,,,,,,,1,,,78,75
33913,note_on,13,0,3,,,,,,,,,2,,,70,0
33913,note_on,0,0,3,,,,,,,,,2,,,66,75
33925,note_on,13,0,2,,,,,,,,,1,,,78,0
33925,note_on,0,0,2,,,,,,,,,1,,,76,75
33926,note_on,0,0,3,,,,,,,,,2,,,64,75
33926,note_on,13,0,3,,,,,,,,,2,,,66,0
33938,note_on,13,0,2,,,,,,,,,1,,,76,0
33939,note_on,1,0,2,,,,,,,,,1,,,70,75
33939,note_on,13,0,3,,,,,,,,,2,,,64,0
33939,note_on,0,0,3,,,,,,,,,2,,,58,75
33952,note_on,13,0,2,,,,,,,,,1,,,66,75
33953,note_on,0,0,3,,,,,,,,,2,,,54,75
33953,note_on,14,0,3,,,,,,,,,2,,,58,0
33953,note_on,1,0,2,,,,,,,,,1,,,70,0
33965,note_on,0,0,2,,,,,,,,,1,,,60,75
33965,note_on,12,0,2,,,,,,,,,1,,,66,0
33966,note_on,13,0,3,,,,,,,,,2,,,54,0
33966,note_on,0,0,3,,,,,,,,,2,,,48,75
33979,note_on,0,0,2,,,,,,,,,1,,,58,75
33979,note_on,14,0,2,,,,,,,,,1,,,60,0
33980,note_on,0,0,3,,,,,,,,,2,,,46,75
33980,note_on,14,0,3,,,,,,,,,2,,,48,0
34005,control_change,26,0,2,,,,,,,,,1,64,0,,
34006,control_change,26,0,3,,,,,,,,,2,64,0,,
34019,control_change,0,0,2,,,,,,,,,1,64,127,,
34019,note_on,14,0,2,,,,,,,,,1,,,58,0
34020,note_on,0,0,4,,,,,,,,,3,,,49,114
34020,note_on,0,0,1,,,,,,,,,0,,,70,127
34020,control_change,0,0,3,,,,,,,,,2,64,127,,
34020,note_on,240,0,1,,,,,,,,,0,,,82,0
34020,note_on,240,0,4,,,,,,,,,3,,,49,0
34020,note_on,0,0,4,,,,,,,,,3,,,42,0
34020,note_on,0,0,4,,,,,,,,,3,,,37,114
34020,note_on,0,0,4,,,,,,,,,3,,,37,0
34020,note_on,0,0,4,,,,,,,,,3,,,46,114
34020,note_on,0,0,1,,,,,,,,,0,,,70,0
34020,note_on,0,0,1,,,,,,,,,0,,,76,0
34020,note_on,0,0,1,,,,,,,,,0,,,67,127
34020,note_on,0,0,1,,,,,,,,,0,,,76,127
34020,note_on,0,0,1,,,,,,,,,0,,,79,127
34020,note_on,14,0,3,,,,,,,,,2,,,46,0
34059,note_on,39,0,3,,,,,,,,,2,,,46,75
34059,note_on,40,0,2,,,,,,,,,1,,,58,75
34072,note_on,13,0,2,,,,,,,,,1,,,64,75
34073,note_on,1,0,2,,,,,,,,,1,,,58,0
34073,note_on,14,0,3,,,,,,,,,2,,,46,0
34073,note_on,0,0,3,,,,,,,,,2,,,52,75
34085,note_on,12,0,2,,,,,,,,,1,,,64,0
34085,note_on,0,0,2,,,,,,,,,1,,,67,75
34086,note_on,0,0,3,,,,,,,,,2,,,55,75
34086,note_on,13,0,3,,,,,,,,,2,,,52,0
34099,note_on,14,0,2,,,,,,,,,1,,,67,0
34099,note_on,0,0,2,,,,,,,,,1,,,67,75
34100,note_on,0,0,3,,,,,,,,,2,,,55,75
34100,note_on,14,0,3,,,,,,,,,2,,,55,0
34112,note_on,0,0,2,,,,,,,,,1,,,64,75
34112,note_on,13,0,2,,,,,,,,,1,,,67,0
34113,note_on,0,0,3,,,,,,,,,2,,,52,75
34113,note_on,13,0,3,,,,,,,,,2,,,55,0
34125,note_on,13,0,2,,,,,,,,,1,,,64,0
34125,note_on,0,0,2,,,,,,,,,1,,,58,75
34125,control_change,0,0,2,,,,,,,,,1,64,0,,
34126,note_on,0,0,3,,,,,,,,,2,,,46,75
34126,control_change,0,0,3,,,,,,,,,2,64,0,,
34126,note_on,13,0,3,,,,,,,,,2,,,52,0
34139,control_change,0,0,2,,,,,,,,,1,64,127,,
34139,note_on,14,0,2,,,,,,,,,1,,,58,0
34140,note_on,0,0,4,,,,,,,,,3,,,37,114
34140,note_on,0,0,1,,,,,,,,,0,,,66,127
34140,note_on,120,0,4,,,,,,,,,3,,,49,0
34140,note_on,0,0,4,,,,,,,,,3,,,30,114
34140,note_on,0,0,1,,,,,,,,,0,,,70,127
34140,note_on,0,0,4,,,,,,,,,3,,,37,0
34140,note_on,0,0,4,,,,,,,,,3,,,46,0
34140,note_on,120,0,1,,,,,,,,,0,,,79,0
34140,note_on,0,0,4,,,,,,,,,3,,,42,114
34140,control_change,0,0,3,,,,,,,,,2,64,127,,
34140,note_on,0,0,1,,,,,,,,,0,,,76,0
34140,note_on,0,0,1,,,,,,,,,0,,,70,0
34140,note_on,0,0,1,,,,,,,,,0,,,67,0
34140,note_on,14,0,3,,,,,,,,,2,,,46,0
34140,note_on,0,0,1,,,,,,,,,0,,,78,127
34140,note_on,0,0,1,,,,,,,,,0,,,76,127
34179,note_on,39,0,3,,,,,,,,,2,,,46,75
34179,note_on,40,0,2,,,,,,,,,1,,,58,75
34192,note_on,13,0,2,,,,,,,,,1,,,64,75
34193,note_on,1,0,2,,,,,,,,,1,,,58,0
34193,note_on,0,0,3,,,,,,,,,2,,,52,75
34193,note_on,14,0,3,,,,,,,,,2,,,46,0
34205,note_on,12,0,2,,,,,,,,,1,,,64,0
34205,note_on,0,0,2,,,,,,,,,1,,,66,75
34206,note_on,13,0,3,,,,,,,,,2,,,52,0
34206,note_on,0,0,3,,,,,,,,,2,,,54,75
34219,note_on,14,0,2,,,,,,,,,1,,,66,0
34219,note_on,0,0,2,,,,,,,,,1,,,66,75
34220,note_on,0,0,3,,,,,,,,,2,,,54,75
34220,note_on,14,0,3,,,,,,,,,2,,,54,0
34232,note_on,0,0,2,,,,,,,,,1,,,64,75
34232,note_on,13,0,2,,,,,,,,,1,,,66,0
34233,note_on,0,0,3,,,,,,,,,2,,,52,75
34233,note_on,13,0,3,,,,,,,,,2,,,54,0
34237,note_on,4,0,3,,,,,,,,,2,,,35,75
34245,control_change,0,0,2,,,,,,,,,1,64,0,,
34245,note_on,8,0,3,,,,,,,,,2,,,39,75
34245,note_on,0,0,2,,,,,,,,,1,,,58,75
34245,note_on,13,0,2,,,,,,,,,1,,,64,0
34246,note_on,1,0,3,,,,,,,,,2,,,52,0
34246,note_on,0,0,3,,,,,,,,,2,,,46,75
34246,control_change,0,0,3,,,,,,,,,2,64,0,,
34252,note_on,6,0,3,,,,,,,,,2,,,42,75
34259,note_on,14,0,2,,,,,,,,,1,,,58,0
34260,note_on,8,0,3,,,,,,,,,2,,,46,0
34260,note_on,0,0,1,,,,,,,,,0,,,78,75
34260,note_on,0,0,1,,,,,,,,,0,,,76,0
34260,note_on,0,0,1,,,,,,,,,0,,,75,75
34260,note_on,0,0,1,,,,,,,,,0,,,71,75
34260,note_on,0,0,1,,,,,,,,,0,,,70,0
34260,control_change,0,0,3,,,,,,,,,2,64,127,,
34260,note_on,0,0,3,,,,,,,,,2,,,47,75
34260,note_on,0,0,4,,,,,,,,,3,,,37,0
34260,note_on,0,0,4,,,,,,,,,3,,,30,0
34260,note_on,120,0,1,,,,,,,,,0,,,78,0
34260,note_on,120,0,4,,,,,,,,,3,,,42,0
34260,note_on,0,0,1,,,,,,,,,0,,,66,0
34260,control_change,0,0,1,,,,,,,,,0,64,127,,
34273,note_on,13,0,1,,,,,,,,,0,,,78,0
34273,note_on,0,0,1,,,,,,,,,0,,,71,0
34273,note_on,0,0,1,,,,,,,,,0,,,83,75
34273,note_on,0,0,1,,,,,,,,,0,,,75,0
34286,note_on,13,0,1,,,,,,,,,0,,,83,0
34286,note_on,0,0,1,,,,,,,,,0,,,71,75
34286,note_on,0,0,1,,,,,,,,,0,,,75,75
34286,note_on,0,0,1,,,,,,,,,0,,,78,75
34299,note_on,0,0,3,,,,,,,,,2,,,35,0
34299,note_on,13,0,1,,,,,,,,,0,,,78,0
34299,note_on,39,0,3,,,,,,,,,2,,,42,0
34299,note_on,0,0,3,,,,,,,,,2,,,51,75
34299,note_on,0,0,3,,,,,,,,,2,,,39,75
34299,note_on,0,0,1,,,,,,,,,0,,,71,0
34299,note_on,0,0,1,,,,,,,,,0,,,75,0
34299,note_on,0,0,1,,,,,,,,,0,,,83,75
34300,note_on,1,0,3,,,,,,,,,2,,,39,0
34300,note_on,0,0,3,,,,,,,,,2,,,47,0
34313,note_on,0,0,1,,,,,,,,,0,,,78,75
34313,note_on,0,0,1,,,,,,,,,0,,,75,75
34313,note_on,0,0,1,,,,,,,,,0,,,71,75
34313,note_on,14,0,1,,,,,,,,,0,,,83,0
34326,note_on,0,0,1,,,,,,,,,0,,,71,0
34326,note_on,0,0,1,,,,,,,,,0,,,83,75
34326,note_on,0,0,1,,,,,,,,,0,,,75,0
34326,note_on,13,0,1,,,,,,,,,0,,,78,0
34339,note_on,39,0,3,,,,,,,,,2,,,39,0
34339,note_on,0,0,3,,,,,,,,,2,,,51,0
34340,note_on,0,0,3,,,,,,,,,2,,,54,75
34340,note_on,0,0,1,,,,,,,,,0,,,78,75
34340,note_on,0,0,1,,,,,,,,,0,,,75,75
34340,note_on,0,0,1,,,,,,,,,0,,,71,75
34340,note_on,1,0,3,,,,,,,,,2,,,42,75
34340,note_on,14,0,1,,,,,,,,,0,,,83,0
34353,note_on,13,0,1,,,,,,,,,0,,,78,0
34353,note_on,0,0,1,,,,,,,,,0,,,83,75
34353,note_on,0,0,1,,,,,,,,,0,,,75,0
34353,note_on,0,0,1,,,,,,,,,0,,,71,0
34366,note_on,0,0,1,,,,,,,,,0,,,75,75
34366,note_on,0,0,1,,,,,,,,,0,,,71,75
34366,note_on,13,0,1,,,,,,,,,0,,,83,0
34366,note_on,0,0,1,,,,,,,,,0,,,78,75
34380,note_on,0,0,3,,,,,,,,,2,,,42,0
34380,note_on,0,0,3,,,,,,,,,2,,,47,88
34380,note_on,40,0,3,,,,,,,,,2,,,54,0
34380,note_on,14,0,1,,,,,,,,,0,,,78,0
34380,note_on,0,0,3,,,,,,,,,2,,,59,88
34380,note_on,0,0,1,,,,,,,,,0,,,71,0
34380,note_on,0,0,1,,,,,,,,,0,,,75,0
34380,note_on,0,0,1,,,,,,,,,0,,,83,75
34393,note_on,0,0,1,,,,,,,,,0,,,78,75
34393,note_on,0,0,1,,,,,,,,,0,,,75,75
34393,note_on,13,0,1,,,,,,,,,0,,,83,0
34393,note_on,0,0,1,,,,,,,,,0,,,71,75
34406,note_on,13,0,1,,,,,,,,,0,,,78,0
34406,note_on,0,0,1,,,,,,,,,0,,,83,75
34406,note_on,0,0,1,,,,,,,,,0,,,75,0
34406,note_on,0,0,1,,,,,,,,,0,,,71,0
34419,note_on,0,0,3,,,,,,,,,2,,,63,88
34419,note_on,0,0,1,,,,,,,,,0,,,75,75
34419,note_on,0,0,1,,,,,,,,,0,,,71,75
34419,note_on,0,0,1,,,,,,,,,0,,,78,75
34419,note_on,13,0,1,,,,,,,,,0,,,83,0
34419,note_on,39,0,3,,,,,,,,,2,,,51,88
34420,note_on,1,0,3,,,,,,,,,2,,,59,0
34420,note_on,0,0,3,,,,,,,,,2,,,47,0
34433,note_on,14,0,1,,,,,,,,,0,,,78,0
34433,note_on,0,0,1,,,,,,,,,0,,,83,75
34433,note_on,0,0,1,,,,,,,,,0,,,75,0
34433,note_on,0,0,1,,,,,,,,,0,,,71,0
34446,note_on,0,0,1,,,,,,,,,0,,,75,75
34446,note_on,0,0,1,,,,,,,,,0,,,71,75
34446,note_on,0,0,1,,,,,,,,,0,,,78,75
34446,note_on,13,0,1,,,,,,,,,0,,,83,0
34459,note_on,39,0,3,,,,,,,,,2,,,51,0
34459,note_on,0,0,3,,,,,,,,,2,,,63,0
34460,note_on,0,0,3,,,,,,,,,2,,,66,88
34460,note_on,14,0,1,,,,,,,,,0,,,78,0
34460,note_on,1,0,3,,,,,,,,,2,,,54,88
34460,note_on,0,0,1,,,,,,,,,0,,,83,75
34460,note_on,0,0,1,,,,,,,,,0,,,75,0
34460,note_on,0,0,1,,,,,,,,,0,,,71,0
34473,note_on,13,0,1,,,,,,,,,0,,,83,0
34473,note_on,0,0,1,,,,,,,,,0,,,75,75
34473,note_on,0,0,1,,,,,,,,,0,,,71,75
34473,note_on,0,0,1,,,,,,,,,0,,,78,75
34486,note_on,13,0,1,,,,,,,,,0,,,78,0
34486,note_on,0,0,1,,,,,,,,,0,,,71,0
34486,note_on,0,0,1,,,,,,,,,0,,,83,75
34486,note_on,0,0,1,,,,,,,,,0,,,75,0
34500,note_on,40,0,3,,,,,,,,,2,,,66,0
34500,note_on,14,0,1,,,,,,,,,0,,,83,0
34500,note_on,0,0,3,,,,,,,,,2,,,71,127
34500,note_on,0,0,3,,,,,,,,,2,,,59,127
34500,note_on,0,0,3,,,,,,,,,2,,,54,0
34500,note_on,0,0,1,,,,,,,,,0,,,78,75
34500,note_on,0,0,1,,,,,,,,,0,,,75,75
34500,note_on,0,0,1,,,,,,,,,0,,,71,75
34513,note_on,0,0,1,,,,,,,,,0,,,75,0
34513,note_on,0,0,1,,,,,,,,,0,,,83,75
34513,note_on,0,0,1,,,,,,,,,0,,,71,0
34513,note_on,13,0,1,,,,,,,,,0,,,78,0
34526,note_on,13,0,1,,,,,,,,,0,,,83,0
34526,note_on,0,0,1,,,,,,,,,0,,,71,75
34526,note_on,0,0,1,,,,,,,,,0,,,75,75
34526,note_on,0,0,1,,,,,,,,,0,,,78,75
34539,note_on,0,0,3,,,,,,,,,2,,,66,101
34539,note_on,0,0,1,,,,,,,,,0,,,75,0
34539,note_on,13,0,1,,,,,,,,,0,,,78,0
34539,note_on,39,0,3,,,,,,,,,2,,,54,101
34539,note_on,0,0,1,,,,,,,,,0,,,71,0
34539,note_on,0,0,1,,,,,,,,,0,,,83,75
34540,note_on,0,0,3,,,,,,,,,2,,,59,0
34540,note_on,1,0,3,,,,,,,,,2,,,71,0
34553,note_on,14,0,1,,,,,,,,,0,,,83,0
34553,note_on,0,0,1,,,,,,,,,0,,,78,75
34553,note_on,0,0,1,,,,,,,,,0,,,75,75
34553,note_on,0,0,1,,,,,,,,,0,,,71,75
34566,note_on,13,0,1,,,,,,,,,0,,,78,0
34566,note_on,0,0,1,,,,,,,,,0,,,71,0
34566,note_on,0,0,1,,,,,,,,,0,,,75,0
34566,note_on,0,0,1,,,,,,,,,0,,,83,75
34579,note_on,39,0,3,,,,,,,,,2,,,54,0
34579,note_on,0,0,3,,,,,,,,,2,,,66,0
34580,note_on,0,0,1,,,,,,,,,0,,,75,75
34580,note_on,0,0,1,,,,,,,,,0,,,78,75
34580,note_on,0,0,1,,,,,,,,,0,,,71,75
34580,note_on,0,0,3,,,,,,,,,2,,,63,101
34580,note_on,14,0,1,,,,,,,,,0,,,83,0
34580,note_on,1,0,3,,,,,,,,,2,,,51,101
34593,note_on,13,0,1,,,,,,,,,0,,,78,0
34593,note_on,0,0,1,,,,,,,,,0,,,71,0
34593,note_on,0,0,1,,,,,,,,,0,,,75,0
34593,note_on,0,0,1,,,,,,,,,0,,,83,75
34606,note_on,13,0,1,,,,,,,,,0,,,83,0
34606,note_on,0,0,1,,,,,,,,,0,,,71,75
34606,note_on,0,0,1,,,,,,,,,0,,,78,75
34606,note_on,0,0,1,,,,,,,,,0,,,75,75
34620,note_on,0,0,3,,,,,,,,,2,,,59,101
34620,note_on,0,0,3,,,,,,,,,2,,,51,0
34620,note_on,0,0,3,,,,,,,,,2,,,47,101
34620,note_on,14,0,1,,,,,,,,,0,,,78,0
34620,note_on,0,0,1,,,,,,,,,0,,,83,75
34620,note_on,0,0,1,,,,,,,,,0,,,71,0
34620,note_on,40,0,3,,,,,,,,,2,,,63,0
34620,note_on,0,0,1,,,,,,,,,0,,,75,0
34633,note_on,0,0,1,,,,,,,,,0,,,71,75
34633,note_on,0,0,1,,,,,,,,,0,,,75,75
34633,note_on,0,0,1,,,,,,,,,0,,,78,75
34633,note_on,13,0,1,,,,,,,,,0,,,83,0
34646,note_on,0,0,1,,,,,,,,,0,,,75,0
34646,note_on,0,0,1,,,,,,,,,0,,,71,0
34646,note_on,13,0,1,,,,,,,,,0,,,78,0
34646,note_on,0,0,1,,,,,,,,,0,,,83,75
34659,note_on,0,0,1,,,,,,,,,0,,,71,75
34659,note_on,39,0,3,,,,,,,,,2,,,42,101
34659,note_on,0,0,1,,,,,,,,,0,,,78,75
34659,note_on,0,0,3,,,,,,,,,2,,,54,101
34659,note_on,0,0,1,,,,,,,,,0,,,75,75
34659,note_on,13,0,1,,,,,,,,,0,,,83,0
34660,note_on,0,0,3,,,,,,,,,2,,,47,0
34660,note_on,1,0,3,,,,,,,,,2,,,59,0
34673,note_on,0,0,1,,,,,,,,,0,,,71,0
34673,note_on,0,0,1,,,,,,,,,0,,,83,75
34673,note_on,14,0,1,,,,,,,,,0,,,78,0
34673,note_on,0,0,1,,,,,,,,,0,,,75,0
34686,note_on,13,0,1,,,,,,,,,0,,,83,0
34686,note_on,0,0,1,,,,,,,,,0,,,78,75
34686,note_on,0,0,1,,,,,,,,,0,,,75,75
34686,note_on,0,0,1,,,,,,,,,0,,,71,75
34699,note_on,0,0,3,,,,,,,,,2,,,54,0
34699,note_on,39,0,3,,,,,,,,,2,,,42,0
34700,note_on,0,0,3,,,,,,,,,2,,,35,101
34700,note_on,0,0,1,,,,,,,,,0,,,75,0
34700,note_on,0,0,1,,,,,,,,,0,,,83,75
34700,note_on,0,0,3,,,,,,,,,2,,,47,101
34700,control_change,1,0,3,,,,,,,,,2,64,0,,
34700,note_on,0,0,1,,,,,,,,,0,,,71,0
34700,note_on,14,0,1,,,,,,,,,0,,,78,0
34713,note_on,0,0,1,,,,,,,,,0,,,71,75
34713,note_on,0,0,1,,,,,,,,,0,,,75,75
34713,note_on,0,0,1,,,,,,,,,0,,,78,75
34713,note_on,13,0,1,,,,,,,,,0,,,83,0
34726,note_on,13,0,1,,,,,,,,,0,,,78,0
34726,note_on,0,0,1,,,,,,,,,0,,,83,75
34726,note_on,0,0,1,,,,,,,,,0,,,71,0
34726,note_on,0,0,1,,,,,,,,,0,,,75,0
34726,control_change,0,0,1,,,,,,,,,0,64,0,,
34740,note_on,0,0,1,,,,,,,,,0,,,78,75
34740,note_on,0,0,3,,,,,,,,,2,,,45,101
34740,note_on,14,0,1,,,,,,,,,0,,,83,0
34740,control_change,0,0,1,,,,,,,,,0,64,127,,
34740,note_on,0,0,3,,,,,,,,,2,,,38,101
34740,note_on,0,0,3,,,,,,,,,2,,,33,101
34740,note_on,0,0,1,,,,,,,,,0,,,72,75
34740,note_on,40,0,3,,,,,,,,,2,,,47,0
34740,control_change,0,0,3,,,,,,,,,2,64,127,,
34740,note_on,0,0,3,,,,,,,,,2,,,35,0
34740,note_on,0,0,1,,,,,,,,,0,,,74,75
34753,note_on,0,0,1,,,,,,,,,0,,,72,0
34753,note_on,0,0,1,,,,,,,,,0,,,74,0
34753,note_on,0,0,1,,,,,,,,,0,,,84,75
34753,note_on,0,0,1,,,,,,,,,0,,,86,75
34753,note_on,13,0,1,,,,,,,,,0,,,78,0
34766,note_on,0,0,1,,,,,,,,,0,,,84,0
34766,note_on,0,0,1,,,,,,,,,0,,,78,75
34766,note_on,0,0,1,,,,,,,,,0,,,72,75
34766,note_on,0,0,1,,,,,,,,,0,,,74,75
34766,note_on,13,0,1,,,,,,,,,0,,,86,0
34779,note_on,0,0,1,,,,,,,,,0,,,72,0
34779,note_on,0,0,1,,,,,,,,,0,,,86,75
34779,note_on,0,0,1,,,,,,,,,0,,,74,0
34779,note_on,0,0,1,,,,,,,,,0,,,84,75
34779,note_on,0,0,3,,,,,,,,,2,,,50,75
34779,note_on,39,0,3,,,,,,,,,2,,,38,75
34779,note_on,13,0,1,,,,,,,,,0,,,78,0
34780,note_on,0,0,3,,,,,,,,,2,,,38,0
34780,note_on,0,0,3,,,,,,,,,2,,,33,0
34780,note_on,1,0,3,,,,,,,,,2,,,45,0
34793,note_on,0,0,1,,,,,,,,,0,,,84,0
34793,note_on,0,0,1,,,,,,,,,0,,,78,75
34793,note_on,0,0,1,,,,,,,,,0,,,74,75
34793,note_on,0,0,1,,,,,,,,,0,,,72,75
34793,note_on,14,0,1,,,,,,,,,0,,,86,0
34806,note_on,13,0,1,,,,,,,,,0,,,78,0
34806,note_on,0,0,1,,,,,,,,,0,,,72,0
34806,note_on,0,0,1,,,,,,,,,0,,,84,75
34806,note_on,0,0,1,,,,,,,,,0,,,74,0
34806,note_on,0,0,1,,,,,,,,,0,,,86,75
34819,note_on,0,0,3,,,,,,,,,2,,,50,0
34819,note_on,39,0,3,,,,,,,,,2,,,38,0
34820,note_on,14,0,1,,,,,,,,,0,,,86,0
34820,note_on,0,0,1,,,,,,,,,0,,,74,75
34820,note_on,0,0,1,,,,,,,,,0,,,72,75
34820,note_on,0,0,3,,,,,,,,,2,,,57,75
34820,note_on,0,0,1,,,,,,,,,0,,,84,0
34820,note_on,0,0,1,,,,,,,,,0,,,78,75
34820,note_on,1,0,3,,,,,,,,,2,,,45,75
34833,note_on,0,0,1,,,,,,,,,0,,,86,75
34833,note_on,0,0,1,,,,,,,,,0,,,84,75
34833,note_on,0,0,1,,,,,,,,,0,,,74,0
34833,note_on,0,0,1,,,,,,,,,0,,,72,0
34833,note_on,13,0,1,,,,,,,,,0,,,78,0
34846,note_on,0,0,1,,,,,,,,,0,,,74,75
34846,note_on,0,0,1,,,,,,,,,0,,,78,75
34846,note_on,0,0,1,,,,,,,,,0,,,84,0
34846,note_on,0,0,1,,,,,,,,,0,,,72,75
34846,note_on,13,0,1,,,,,,,,,0,,,86,0
34860,note_on,0,0,1,,,,,,,,,0,,,86,75
34860,note_on,0,0,3,,,,,,,,,2,,,50,88
34860,note_on,0,0,3,,,,,,,,,2,,,45,0
34860,note_on,14,0,1,,,,,,,,,0,,,78,0
34860,note_on,0,0,3,,,,,,,,,2,,,62,88
34860,note_on,40,0,3,,,,,,,,,2,,,57,0
34860,note_on,0,0,1,,,,,,,,,0,,,72,0
34860,note_on,0,0,1,,,,,,,,,0,,,74,0
34860,note_on,0,0,1,,,,,,,,,0,,,84,75
34873,note_on,0,0,1,,,,,,,,,0,,,74,75
34873,note_on,0,0,1,,,,,,,,,0,,,78,75
34873,note_on,13,0,1,,,,,,,,,0,,,86,0
34873,note_on,0,0,1,,,,,,,,,0,,,84,0
34873,note_on,0,0,1,,,,,,,,,0,,,72,75
34886,note_on,0,0,1,,,,,,,,,0,,,86,75
34886,note_on,0,0,1,,,,,,,,,0,,,84,75
34886,note_on,0,0,1,,,,,,,,,0,,,74,0
34886,note_on,0,0,1,,,,,,,,,0,,,72,0
34886,note_on,13,0,1,,,,,,,,,0,,,78,0
34899,note_on,39,0,3,,,,,,,,,2,,,57,88
34899,note_on,0,0,3,,,,,,,,,2,,,69,88
34899,note_on,0,0,1,,,,,,,,,0,,,72,75
34899,note_on,13,0,1,,,,,,,,,0,,,86,0
34899,note_on,0,0,1,,,,,,,,,0,,,74,75
34899,note_on,0,0,1,,,,,,,,,0,,,78,75
34899,note_on,0,0,1,,,,,,,,,0,,,84,0
34900,note_on,0,0,3,,,,,,,,,2,,,50,0
34900,note_on,1,0,3,,,,,,,,,2,,,62,0
34913,note_on,0,0,1,,,,,,,,,0,,,74,0
34913,note_on,14,0,1,,,,,,,,,0,,,78,0
34913,note_on,0,0,1,,,,,,,,,0,,,72,0
34913,note_on,0,0,1,,,,,,,,,0,,,84,75
34913,note_on,0,0,1,,,,,,,,,0,,,86,75
34926,note_on,0,0,1,,,,,,,,,0,,,84,0
34926,note_on,0,0,1,,,,,,,,,0,,,78,75
34926,note_on,13,0,1,,,,,,,,,0,,,86,0
34926,note_on,0,0,1,,,,,,,,,0,,,72,75
34939,note_on,0,0,3,,,,,,,,,2,,,69,0
34939,note_on,39,0,3,,,,,,,,,2,,,57,0
34940,note_on,14,0,1,,,,,,,,,0,,,78,0
34940,note_on,1,0,3,,,,,,,,,2,,,62,88
34940,note_on,0,0,1,,,,,,,,,0,,,72,0
34940,note_on,0,0,1,,,,,,,,,0,,,86,75
34940,note_on,0,0,1,,,,,,,,,0,,,84,75
34940,note_on,0,0,3,,,,,,,,,2,,,74,88
34953,note_on,0,0,1,,,,,,,,,0,,,72,75
34953,note_on,0,0,1,,,,,,,,,0,,,78,75
34953,note_on,0,0,1,,,,,,,,,0,,,84,0
34953,note_on,13,0,1,,,,,,,,,0,,,86,0
34966,note_on,0,0,1,,,,,,,,,0,,,84,75
34966,note_on,0,0,1,,,,,,,,,0,,,86,75
34966,note_on,13,0,1,,,,,,,,,0,,,78,0
34966,note_on,0,0,1,,,,,,,,,0,,,72,0
34980,note_on,14,0,1,,,,,,,,,0,,,86,0
34980,note_on,0,0,3,,,,,,,,,2,,,74,127
34980,note_on,0,0,3,,,,,,,,,2,,,62,0
34980,note_on,0,0,3,,,,,,,,,2,,,62,127
34980,note_on,40,0,3,,,,,,,,,2,,,74,0
34980,note_on,0,0,1,,,,,,,,,0,,,72,101
34980,note_on,0,0,1,,,,,,,,,0,,,78,101
34980,note_on,0,0,1,,,,,,,,,0,,,84,0
34993,note_on,13,0,1,,,,,,,,,0,,,78,0
34993,note_on,0,0,1,,,,,,,,,0,,,72,0
34993,note_on,0,0,1,,,,,,,,,0,,,86,75
34993,note_on,0,0,1,,,,,,,,,0,,,84,75
35006,note_on,13,0,1,,,,,,,,,0,,,86,0
35006,note_on,0,0,1,,,,,,,,,0,,,72,75
35006,note_on,0,0,1,,,,,,,,,0,,,78,75
35006,note_on,0,0,1,,,,,,,,,0,,,84,0
35019,note_on,0,0,3,,,,,,,,,2,,,69,101
35019,note_on,13,0,1,,,,,,,,,0,,,78,0
35019,note_on,0,0,1,,,,,,,,,0,,,72,0
35019,note_on,39,0,3,,,,,,,,,2,,,57,101
35019,note_on,0,0,1,,,,,,,,,0,,,86,75
35019,note_on,0,0,1,,,,,,,,,0,,,84,75
35020,note_on,0,0,3,,,,,,,,,2,,,62,0
35020,note_on,1,0,3,,,,,,,,,2,,,74,0
35033,note_on,0,0,1,,,,,,,,,0,,,84,0
35033,note_on,14,0,1,,,,,,,,,0,,,86,0
35033,note_on,0,0,1,,,,,,,,,0,,,78,75
35033,note_on,0,0,1,,,,,,,,,0,,,74,75
35033,note_on,0,0,1,,,,,,,,,0,,,72,75
35046,note_on,13,0,1,,,,,,,,,0,,,78,0
35046,note_on,0,0,1,,,,,,,,,0,,,74,0
35046,note_on,0,0,1,,,,,,,,,0,,,84,75
35046,note_on,0,0,1,,,,,,,,,0,,,86,75
35046,note_on,0,0,1,,,,,,,,,0,,,72,0
35059,note_on,39,0,3,,,,,,,,,2,,,57,0
35059,note_on,0,0,3,,,,,,,,,2,,,69,0
35060,note_on,0,0,3,,,,,,,,,2,,,62,101
35060,note_on,1,0,3,,,,,,,,,2,,,50,101
35060,note_on,14,0,1,,,,,,,,,0,,,86,0
35060,note_on,0,0,1,,,,,,,,,0,,,72,75
35060,note_on,0,0,1,,,,,,,,,0,,,74,75
35060,note_on,0,0,1,,,,,,,,,0,,,78,75
35060,note_on,0,0,1,,,,,,,,,0,,,84,0
35073,note_on,0,0,1,,,,,,,,,0,,,72,0
35073,note_on,0,0,1,,,,,,,,,0,,,74,0
35073,note_on,0,0,1,,,,,,,,,0,,,84,75
35073,note_on,0,0,1,,,,,,,,,0,,,86,75
35073,note_on,13,0,1,,,,,,,,,0,,,78,0
35086,note_on,0,0,1,,,,,,,,,0,,,72,75
35086,note_on,0,0,1,,,,,,,,,0,,,74,75
35086,note_on,0,0,1,,,,,,,,,0,,,78,75
35086,note_on,0,0,1,,,,,,,,,0,,,84,0
35086,note_on,13,0,1,,,,,,,,,0,,,86,0
35100,note_on,0,0,1,,,,,,,,,0,,,72,0
35100,note_on,0,0,3,,,,,,,,,2,,,50,0
35100,note_on,0,0,1,,,,,,,,,0,,,74,0
35100,note_on,0,0,1,,,,,,,,,0,,,84,101
35100,note_on,0,0,3,,,,,,,,,2,,,45,101
35100,note_on,14,0,1,,,,,,,,,0,,,78,0
35100,note_on,0,0,1,,,,,,,,,0,,,86,101
35100,note_on,40,0,3,,,,,,,,,2,,,62,0
35100,note_on,0,0,3,,,,,,,,,2,,,57,101
35113,note_on,13,0,1,,,,,,,,,0,,,86,0
35113,note_on,0,0,1,,,,,,,,,0,,,74,75
35113,note_on,0,0,1,,,,,,,,,0,,,78,75
35113,note_on,0,0,1,,,,,,,,,0,,,72,75
35113,note_on,0,0,1,,,,,,,,,0,,,84,0
35126,note_on,0,0,1,,,,,,,,,0,,,74,0
35126,note_on,0,0,1,,,,,,,,,0,,,84,75
35126,note_on,0,0,1,,,,,,,,,0,,,86,75
35126,note_on,13,0,1,,,,,,,,,0,,,78,0
35126,note_on,0,0,1,,,,,,,,,0,,,72,0
35139,note_on,0,0,3,,,,,,,,,2,,,50,101
35139,note_on,39,0,3,,,,,,,,,2,,,38,101
35139,note_on,0,0,1,,,,,,,,,0,,,72,75
35139,note_on,0,0,1,,,,,,,,,0,,,74,75
35139,note_on,0,0,1,,,,,,,,,0,,,78,75
35139,note_on,0,0,1,,,,,,,,,0,,,84,0
35139,note_on,13,0,1,,,,,,,,,0,,,86,0
35140,note_on,1,0,3,,,,,,,,,2,,,57,0
35140,note_on,0,0,3,,,,,,,,,2,,,45,0
35153,note_on,0,0,1,,,,,,,,,0,,,74,0
35153,note_on,0,0,1,,,,,,,,,0,,,86,75
35153,note_on,14,0,1,,,,,,,,,0,,,78,0
35153,note_on,0,0,1,,,,,,,,,0,,,72,0
35153,note_on,0,0,1,,,,,,,,,0,,,84,75
35166,note_on,0,0,1,,,,,,,,,0,,,84,0
35166,note_on,0,0,1,,,,,,,,,0,,,72,75
35166,note_on,0,0,1,,,,,,,,,0,,,78,75
35166,note_on,13,0,1,,,,,,,,,0,,,86,0
35166,note_on,0,0,1,,,,,,,,,0,,,74,75
35179,note_on,39,0,3,,,,,,,,,2,,,38,0
35179,note_on,0,0,3,,,,,,,,,2,,,50,0
35180,note_on,0,0,1,,,,,,,,,0,,,72,0
35180,note_on,0,0,1,,,,,,,,,0,,,74,0
35180,note_on,14,0,1,,,,,,,,,0,,,78,0
35180,note_on,0,0,3,,,,,,,,,2,,,33,101
35180,control_change,1,0,3,,,,,,,,,2,64,0,,
35180,note_on,0,0,1,,,,,,,,,0,,,84,75
35180,note_on,0,0,1,,,,,,,,,0,,,86,75
35180,note_on,0,0,3,,,,,,,,,2,,,45,101
35193,note_on,0,0,1,,,,,,,,,0,,,84,0
35193,note_on,13,0,1,,,,,,,,,0,,,86,0
35193,note_on,0,0,1,,,,,,,,,0,,,72,75
35193,note_on,0,0,1,,,,,,,,,0,,,74,75
35193,note_on,0,0,1,,,,,,,,,0,,,78,75
35206,note_on,0,0,1,,,,,,,,,0,,,74,0
35206,note_on,0,0,1,,,,,,,,,0,,,72,0
35206,note_on,0,0,1,,,,,,,,,0,,,84,75
35206,note_on,0,0,1,,,,,,,,,0,,,86,75
35206,note_on,13,0,1,,,,,,,,,0,,,78,0
35206,control_change,0,0,1,,,,,,,,,0,64,0,,
35219,note_on,960,0,2,,,,,,,,,1,,,82,127
35219,note_on,0,0,2,,,,,,,,,1,,,86,127
35220,note_on,0,0,3,,,,,,,,,2,,,31,101
35220,control_change,0,0,3,,,,,,,,,2,64,127,,
35220,note_on,40,0,3,,,,,,,,,2,,,45,0
35220,note_on,0,0,1,,,,,,,,,0,,,84,0
35220,control_change,0,0,1,,,,,,,,,0,64,127,,
35220,note_on,14,0,1,,,,,,,,,0,,,86,0
35220,note_on,0,0,3,,,,,,,,,2,,,43,101
35220,note_on,0,0,3,,,,,,,,,2,,,38,101
35220,note_on,0,0,3,,,,,,,,,2,,,33,0
35228,note_on,8,0,3,,,,,,,,,2,,,43,0
35228,note_on,0,0,3,,,,,,,,,2,,,38,0
35228,note_on,0,0,3,,,,,,,,,2,,,31,0
35233,note_on,13,0,1,,,,,,,,,0,,,94,75
35246,note_on,0,0,1,,,,,,,,,0,,,86,75
35246,note_on,0,0,1,,,,,,,,,0,,,82,75
35246,note_on,13,0,1,,,,,,,,,0,,,94,0
35259,note_on,31,0,3,,,,,,,,,2,,,38,75
35259,note_on,0,0,3,,,,,,,,,2,,,50,75
35259,note_on,0,0,1,,,,,,,,,0,,,94,75
35259,note_on,0,0,1,,,,,,,,,0,,,82,0
35259,note_on,13,0,1,,,,,,,,,0,,,86,0
35267,note_on,0,0,3,,,,,,,,,2,,,38,0
35267,note_on,8,0,3,,,,,,,,,2,,,50,0
35273,note_on,14,0,1,,,,,,,,,0,,,94,0
35273,note_on,0,0,1,,,,,,,,,0,,,86,75
35273,note_on,0,0,1,,,,,,,,,0,,,82,75
35286,note_on,0,0,1,,,,,,,,,0,,,82,0
35286,note_on,0,0,1,,,,,,,,,0,,,94,75
35286,note_on,13,0,1,,,,,,,,,0,,,86,0
35300,note_on,0,0,1,,,,,,,,,0,,,82,75
35300,note_on,0,0,1,,,,,,,,,0,,,86,75
35300,note_on,14,0,1,,,,,,,,,0,,,94,0
35300,note_on,33,0,3,,,,,,,,,2,,,43,88
35300,note_on,0,0,3,,,,,,,,,2,,,55,88
35308,note_on,0,0,3,,,,,,,,,2,,,43,0
35308,note_on,8,0,3,,,,,,,,,2,,,55,0
35313,note_on,0,0,1,,,,,,,,,0,,,82,0
35313,note_on,0,0,1,,,,,,,,,0,,,94,75
35313,note_on,13,0,1,,,,,,,,,0,,,86,0
35326,note_on,0,0,1,,,,,,,,,0,,,82,75
35326,note_on,13,0,1,,,,,,,,,0,,,94,0
35326,note_on,0,0,1,,,,,,,,,0,,,86,75
35340,note_on,0,0,3,,,,,,,,,2,,,58,88
35340,note_on,14,0,1,,,,,,,,,0,,,86,0
35340,note_on,0,0,1,,,,,,,,,0,,,82,0
35340,note_on,0,0,1,,,,,,,,,0,,,94,75
35340,note_on,32,0,3,,,,,,,,,2,,,46,88
35348,note_on,0,0,3,,,,,,,,,2,,,46,0
35348,note_on,8,0,3,,,,,,,,,2,,,58,0
35353,note_on,13,0,1,,,,,,,,,0,,,94,0
35353,note_on,0,0,1,,,,,,,,,0,,,86,75
35353,note_on,0,0,1,,,,,,,,,0,,,82,75
35366,note_on,0,0,1,,,,,,,,,0,,,94,75
35366,note_on,0,0,1,,,,,,,,,0,,,82,0
35366,note_on,13,0,1,,,,,,,,,0,,,86,0
35379,note_on,0,0,1,,,,,,,,,0,,,82,75
35379,note_on,0,0,3,,,,,,,,,2,,,62,101
35379,note_on,31,0,3,,,,,,,,,2,,,50,101
35379,note_on,13,0,1,,,,,,,,,0,,,94,0
35379,note_on,0,0,1,,,,,,,,,0,,,86,75
35387,note_on,8,0,3,,,,,,,,,2,,,62,0
35387,note_on,0,0,3,,,,,,,,,2,,,50,0
35393,note_on,0,0,1,,,,,,,,,0,,,82,0
35393,note_on,0,0,1,,,,,,,,,0,,,94,75
35393,note_on,14,0,1,,,,,,,,,0,,,86,0
35406,note_on,0,0,1,,,,,,,,,0,,,82,75
35406,note_on,13,0,1,,,,,,,,,0,,,94,0
35406,note_on,0,0,1,,,,,,,,,0,,,86,75
35420,note_on,0,0,1,,,,,,,,,0,,,94,75
35420,control_change,33,0,3,,,,,,,,,2,64,0,,
35420,note_on,0,0,1,,,,,,,,,0,,,82,0
35420,note_on,0,0,3,,,,,,,,,2,,,70,101
35420,note_on,0,0,3,,,,,,,,,2,,,58,101
35420,note_on,14,0,1,,,,,,,,,0,,,86,0
35428,note_on,8,0,3,,,,,,,,,2,,,70,0
35428,note_on,0,0,3,,,,,,,,,2,,,58,0
35433,note_on,13,0,1,,,,,,,,,0,,,94,0
35433,note_on,0,0,1,,,,,,,,,0,,,86,75
35433,note_on,0,0,1,,,,,,,,,0,,,82,75
35446,note_on,0,0,1,,,,,,,,,0,,,82,0
35446,note_on,0,0,1,,,,,,,,,0,,,94,75
35446,control_change,0,0,1,,,,,,,,,0,64,0,,
35446,note_on,13,0,1,,,,,,,,,0,,,86,0
35459,note_on,240,0,2,,,,,,,,,1,,,86,0
35459,note_on,0,0,2,,,,,,,,,1,,,81,127
35459,note_on,0,0,2,,,,,,,,,1,,,82,0
35459,note_on,0,0,2,,,,,,,,,1,,,86,127
35460,note_on,14,0,1,,,,,,,,,0,,,94,0
35460,control_change,0,0,1,,,,,,,,,0,64,127,,
35460,note_on,0,0,3,,,,,,,,,2,,,46,101
35460,note_on,0,0,3,,,,,,,,,2,,,38,101
35460,note_on,0,0,3,,,,,,,,,2,,,34,101
35460,control_change,32,0,3,,,,,,,,,2,64,127,,
35468,note_on,0,0,3,,,,,,,,,2,,,38,0
35468,note_on,8,0,3,,,,,,,,,2,,,46,0
35468,note_on,0,0,3,,,,,,,,,2,,,34,0
35473,note_on,13,0,1,,,,,,,,,0,,,93,75
35486,note_on,0,0,1,,,,,,,,,0,,,86,75
35486,note_on,13,0,1,,,,,,,,,0,,,93,0
35486,note_on,0,0,1,,,,,,,,,0,,,81,75
35499,note_on,0,0,1,,,,,,,,,0,,,81,0
35499,note_on,0,0,1,,,,,,,,,0,,,93,75
35499,note_on,0,0,3,,,,,,,,,2,,,50,75
35499,note_on,13,0,1,,,,,,,,,0,,,86,0
35499,note_on,31,0,3,,,,,,,,,2,,,38,75
35507,note_on,0,0,3,,,,,,,,,2,,,38,0
35507,note_on,8,0,3,,,,,,,,,2,,,50,0
35513,note_on,0,0,1,,,,,,,,,0,,,81,75
35513,note_on,0,0,1,,,,,,,,,0,,,86,75
35513,note_on,14,0,1,,,,,,,,,0,,,93,0
35526,note_on,0,0,1,,,,,,,,,0,,,81,0
35526,note_on,0,0,1,,,,,,,,,0,,,93,75
35526,note_on,13,0,1,,,,,,,,,0,,,86,0
35540,note_on,14,0,1,,,,,,,,,0,,,93,0
35540,note_on,0,0,3,,,,,,,,,2,,,55,88
35540,note_on,33,0,3,,,,,,,,,2,,,43,88
35540,note_on,0,0,1,,,,,,,,,0,,,81,75
35540,note_on,0,0,1,,,,,,,,,0,,,86,75
35548,note_on,8,0,3,,,,,,,,,2,,,55,0
35548,note_on,0,0,3,,,,,,,,,2,,,43,0
35553,note_on,0,0,1,,,,,,,,,0,,,93,75
35553,note_on,13,0,1,,,,,,,,,0,,,86,0
35553,note_on,0,0,1,,,,,,,,,0,,,81,0
35566,note_on,13,0,1,,,,,,,,,0,,,93,0
35566,note_on,0,0,1,,,,,,,,,0,,,86,75
35566,note_on,0,0,1,,,,,,,,,0,,,81,75
35579,note_on,120,0,2,,,,,,,,,1,,,86,0
35579,note_on,0,0,2,,,,,,,,,1,,,82,127
35579,note_on,0,0,2,,,,,,,,,1,,,81,0
35579,note_on,0,0,2,,,,,,,,,1,,,86,127
35579,note_on,0,0,2,,,,,,,,,1,,,79,127
35580,note_on,0,0,3,,,,,,,,,2,,,58,88
35580,note_on,32,0,3,,,,,,,,,2,,,46,88
35580,note_on,14,0,1,,,,,,,,,0,,,86,0
35580,note_on,0,0,1,,,,,,,,,0,,,81,0
35588,note_on,8,0,3,,,,,,,,,2,,,58,0
35588,note_on,0,0,3,,,,,,,,,2,,,46,0
35593,note_on,13,0,1,,,,,,,,,0,,,91,75
35606,note_on,0,0,1,,,,,,,,,0,,,79,75
35606,note_on,13,0,1,,,,,,,,,0,,,91,0
35606,note_on,0,0,1,,,,,,,,,0,,,82,75
35606,note_on,0,0,1,,,,,,,,,0,,,86,75
35619,note_on,0,0,3,,,,,,,,,2,,,62,101
35619,note_on,13,0,1,,,,,,,,,0,,,86,0
35619,note_on,31,0,3,,,,,,,,,2,,,50,101
35619,note_on,0,0,1,,,,,,,,,0,,,79,0
35619,note_on,0,0,1,,,,,,,,,0,,,91,75
35619,note_on,0,0,1,,,,,,,,,0,,,82,0
35627,note_on,8,0,3,,,,,,,,,2,,,62,0
35627,note_on,0,0,3,,,,,,,,,2,,,50,0
35633,note_on,0,0,1,,,,,,,,,0,,,82,75
35633,note_on,0,0,1,,,,,,,,,0,,,79,75
35633,note_on,14,0,1,,,,,,,,,0,,,91,0
35633,note_on,0,0,1,,,,,,,,,0,,,86,75
35646,note_on,13,0,1,,,,,,,,,0,,,86,0
35646,note_on,0,0,1,,,,,,,,,0,,,91,75
35646,note_on,0,0,1,,,,,,,,,0,,,82,0
35646,note_on,0,0,1,,,,,,,,,0,,,79,0
35660,control_change,33,0,3,,,,,,,,,2,64,0,,
35660,note_on,0,0,3,,,,,,,,,2,,,67,101
35660,note_on,0,0,1,,,,,,,,,0,,,82,75
35660,note_on,0,0,1,,,,,,,,,0,,,79,75
35660,note_on,0,0,3,,,,,,,,,2,,,55,101
35660,note_on,14,0,1,,,,,,,,,0,,,91,0
35660,note_on,0,0,1,,,,,,,,,0,,,86,75
35668,note_on,0,0,3,,,,,,,,,2,,,55,0
35668,note_on,8,0,3,,,,,,,,,2,,,67,0
35673,note_on,13,0,1,,,,,,,,,0,,,86,0
35673,note_on,0,0,1,,,,,,,,,0,,,79,0
35673,note_on,0,0,1,,,,,,,,,0,,,82,0
35673,note_on,0,0,1,,,,,,,,,0,,,91,75
35686,note_on,13,0,1,,,,,,,,,0,,,91,0
35686,note_on,0,0,1,,,,,,,,,0,,,82,75
35686,note_on,0,0,1,,,,,,,,,0,,,86,75
35686,control_change,0,0,1,,,,,,,,,0,64,0,,
35686,note_on,0,0,1,,,,,,,,,0,,,79,75
35699,note_on,120,0,2,,,,,,,,,1,,,86,0
35699,note_on,0,0,2,,,,,,,,,1,,,84,127
35699,note_on,0,0,2,,,,,,,,,1,,,79,0
35699,note_on,0,0,2,,,,,,,,,1,,,89,127
35699,note_on,0,0,2,,,,,,,,,1,,,93,127
35699,note_on,0,0,2,,,,,,,,,1,,,82,0
35700,note_on,0,0,4,,,,,,,,,3,,,41,114
35700,note_on,14,0,1,,,,,,,,,0,,,86,0
35700,control_change,32,0,3,,,,,,,,,2,64,127,,
35700,note_on,1440,0,4,,,,,,,,,3,,,36,114
35700,note_on,0,0,1,,,,,,,,,0,,,79,0
35700,note_on,0,0,1,,,,,,,,,0,,,82,0
35700,control_change,0,0,1,,,,,,,,,0,64,127,,
35700,note_on,0,0,4,,,,,,,,,3,,,45,114
35713,note_on,13,0,1,,,,,,,,,0,,,96,75
35713,note_on,13,0,3,,,,,,,,,2,,,48,62
35726,note_on,0,0,1,,,,,,,,,0,,,93,75
35726,note_on,13,0,3,,,,,,,,,2,,,48,0
35726,note_on,0,0,3,,,,,,,,,2,,,36,62
35726,note_on,0,0,3,,,,,,,,,2,,,41,62
35726,note_on,0,0,3,,,,,,,,,2,,,45,62
35726,note_on,13,0,1,,,,,,,,,0,,,96,0
35726,note_on,0,0,1,,,,,,,,,0,,,84,75
35726,note_on,0,0,1,,,,,,,,,0,,,89,75
35739,note_on,0,0,3,,,,,,,,,2,,,41,0
35739,note_on,0,0,1,,,,,,,,,0,,,96,75
35739,note_on,0,0,1,,,,,,,,,0,,,89,0
35739,note_on,0,0,3,,,,,,,,,2,,,48,62
35739,note_on,0,0,3,,,,,,,,,2,,,36,0
35739,note_on,13,0,1,,,,,,,,,0,,,93,0
35739,note_on,13,0,3,,,,,,,,,2,,,45,0
35739,note_on,0,0,1,,,,,,,,,0,,,84,0
35753,note_on,0,0,3,,,,,,,,,2,,,45,62
35753,note_on,0,0,1,,,,,,,,,0,,,84,75
35753,note_on,0,0,1,,,,,,,,,0,,,89,75
35753,note_on,0,0,1,,,,,,,,,0,,,93,75
35753,note_on,0,0,3,,,,,,,,,2,,,36,62
35753,note_on,14,0,3,,,,,,,,,2,,,48,0
35753,note_on,0,0,3,,,,,,,,,2,,,41,62
35753,note_on,14,0,1,,,,,,,,,0,,,96,0
35766,note_on,0,0,3,,,,,,,,,2,,,41,0
35766,note_on,0,0,3,,,,,,,,,2,,,48,62
35766,note_on,13,0,3,,,,,,,,,2,,,45,0
35766,note_on,0,0,1,,,,,,,,,0,,,84,0
35766,note_on,0,0,1,,,,,,,,,0,,,89,0
35766,note_on,13,0,1,,,,,,,,,0,,,93,0
35766,note_on,0,0,1,,,,,,,,,0,,,96,75
35766,note_on,0,0,3,,,,,,,,,2,,,36,0
35780,note_on,0,0,3,,,,,,,,,2,,,45,62
35780,note_on,0,0,1,,,,,,,,,0,,,93,75
35780,note_on,0,0,3,,,,,,,,,2,,,41,62
35780,note_on,14,0,1,,,,,,,,,0,,,96,0
35780,note_on,0,0,1,,,,,,,,,0,,,84,75
35780,note_on,14,0,3,,,,,,,,,2,,,48,0
35780,note_on,0,0,3,,,,,,,,,2,,,36,62
35780,note_on,0,0,1,,,,,,,,,0,,,89,75
35793,note_on,0,0,3,,,,,,,,,2,,,36,0
35793,note_on,13,0,3,,,,,,,,,2,,,45,0
35793,note_on,0,0,1,,,,,,,,,0,,,96,75
35793,note_on,0,0,1,,,,,,,,,0,,,84,0
35793,note_on,0,0,3,,,,,,,,,2,,,41,0
35793,note_on,0,0,3,,,,,,,,,2,,,48,62
35793,note_on,0,0,1,,,,,,,,,0,,,89,0
35793,note_on,13,0,1,,,,,,,,,0,,,93,0
35806,note_on,0,0,3,,,,,,,,,2,,,45,62
35806,note_on,0,0,1,,,,,,,,,0,,,93,75
35806,note_on,13,0,3,,,,,,,,,2,,,48,0
35806,note_on,0,0,3,,,,,,,,,2,,,36,62
35806,note_on,0,0,3,,,,,,,,,2,,,41,62
35806,note_on,0,0,1,,,,,,,,,0,,,84,75
35806,note_on,13,0,1,,,,,,,,,0,,,96,0
35806,note_on,0,0,1,,,,,,,,,0,,,89,75
35820,note_on,0,0,1,,,,,,,,,0,,,84,0
35820,note_on,14,0,1,,,,,,,,,0,,,93,0
35820,note_on,0,0,1,,,,,,,,,0,,,96,75
35820,note_on,0,0,1,,,,,,,,,0,,,89,0
35820,note_on,0,0,3,,,,,,,,,2,,,36,0
35820,note_on,0,0,3,,,,,,,,,2,,,41,0
35820,note_on,0,0,3,,,,,,,,,2,,,48,62
35820,note_on,14,0,3,,,,,,,,,2,,,45,0
35833,note_on,0,0,3,,,,,,,,,2,,,45,62
35833,note_on,0,0,3,,,,,,,,,2,,,41,62
35833,note_on,0,0,3,,,,,,,,,2,,,36,62
35833,note_on,13,0,1,,,,,,,,,0,,,96,0
35833,note_on,13,0,3,,,,,,,,,2,,,48,0
35833,note_on,0,0,1,,,,,,,,,0,,,93,75
35833,note_on,0,0,1,,,,,,,,,0,,,89,75
35833,note_on,0,0,1,,,,,,,,,0,,,84,75
35846,note_on,13,0,3,,,,,,,,,2,,,45,0
35846,note_on,0,0,1,,,,,,,,,0,,,96,75
35846,note_on,0,0,1,,,,,,,,,0,,,89,0
35846,note_on,0,0,3,,,,,,,,,2,,,48,62
35846,note_on,0,0,3,,,,,,,,,2,,,41,0
35846,note_on,0,0,3,,,,,,,,,2,,,36,0
35846,note_on,13,0,1,,,,,,,,,0,,,93,0
35846,note_on,0,0,1,,,,,,,,,0,,,84,0
35859,note_on,0,0,3,,,,,,,,,2,,,41,62
35859,note_on,0,0,3,,,,,,,,,2,,,45,62
35859,note_on,0,0,1,,,,,,,,,0,,,89,75
35859,note_on,0,0,1,,,,,,,,,0,,,93,75
35859,note_on,0,0,3,,,,,,,,,2,,,36,62
35859,note_on,0,0,1,,,,,,,,,0,,,84,75
35859,note_on,13,0,1,,,,,,,,,0,,,96,0
35859,note_on,13,0,3,,,,,,,,,2,,,48,0
35873,note_on,0,0,3,,,,,,,,,2,,,36,0
35873,note_on,0,0,1,,,,,,,,,0,,,96,75
35873,note_on,0,0,1,,,,,,,,,0,,,89,0
35873,note_on,0,0,1,,,,,,,,,0,,,84,0
35873,note_on,14,0,1,,,,,,,,,0,,,93,0
35873,note_on,0,0,3,,,,,,,,,2,,,48,62
35873,note_on,0,0,3,,,,,,,,,2,,,41,0
35873,note_on,14,0,3,,,,,,,,,2,,,45,0
35886,note_on,0,0,3,,,,,,,,,2,,,45,62
35886,note_on,0,0,3,,,,,,,,,2,,,41,62
35886,note_on,0,0,3,,,,,,,,,2,,,36,62
35886,note_on,0,0,1,,,,,,,,,0,,,93,75
35886,note_on,0,0,1,,,,,,,,,0,,,89,75
35886,note_on,13,0,3,,,,,,,,,2,,,48,0
35886,note_on,0,0,1,,,,,,,,,0,,,84,75
35886,note_on,13,0,1,,,,,,,,,0,,,96,0
35900,note_on,0,0,3,,,,,,,,,2,,,36,0
35900,note_on,0,0,1,,,,,,,,,0,,,84,0
35900,note_on,14,0,1,,,,,,,,,0,,,93,0
35900,note_on,0,0,3,,,,,,,,,2,,,48,62
35900,note_on,0,0,3,,,,,,,,,2,,,41,0
35900,note_on,0,0,1,,,,,,,,,0,,,96,75
35900,note_on,14,0,3,,,,,,,,,2,,,45,0
35900,note_on,0,0,1,,,,,,,,,0,,,89,0
35913,note_on,0,0,1,,,,,,,,,0,,,89,75
35913,note_on,13,0,3,,,,,,,,,2,,,48,0
35913,note_on,0,0,1,,,,,,,,,0,,,93,75
35913,note_on,0,0,3,,,,,,,,,2,,,36,62
35913,note_on,0,0,3,,,,,,,,,2,,,41,62
35913,note_on,0,0,3,,,,,,,,,2,,,45,62
35913,note_on,0,0,1,,,,,,,,,0,,,84,75
35913,note_on,13,0,1,,,,,,,,,0,,,96,0
35926,note_on,0,0,3,,,,,,,,,2,,,36,0
35926,note_on,0,0,3,,,,,,,,,2,,,41,0
35926,note_on,0,0,3,,,,,,,,,2,,,48,62
35926,control_change,0,0,1,,,,,,,,,0,64,0,,
35926,note_on,0,0,1,,,,,,,,,0,,,89,0
35926,control_change,0,0,3,,,,,,,,,2,64,0,,
35926,note_on,0,0,1,,,,,,,,,0,,,96,75
35926,note_on,13,0,1,,,,,,,,,0,,,93,0
35926,note_on,0,0,1,,,,,,,,,0,,,84,0
35926,note_on,13,0,3,,,,,,,,,2,,,45,0
35939,note_on,0,0,2,,,,,,,,,1,,,84,127
35939,note_on,0,0,2,,,,,,,,,1,,,89,127
35939,note_on,0,0,2,,,,,,,,,1,,,92,127
35939,note_on,240,0,2,,,,,,,,,1,,,93,0
35939,note_on,0,0,2,,,,,,,,,1,,,84,0
35939,note_on,0,0,2,,,,,,,,,1,,,89,0
35940,note_on,14,0,3,,,,,,,,,2,,,48,0
35940,control_change,0,0,3,,,,,,,,,2,64,127,,
35940,note_on,14,0,1,,,,,,,,,0,,,96,0
35940,note_on,0,0,4,,,,,,,,,3,,,41,114
35940,note_on,0,0,4,,,,,,,,,3,,,41,0
35940,note_on,0,0,4,,,,,,,,,3,,,36,114
35940,note_on,0,0,4,,,,,,,,,3,,,44,114
35940,control_change,0,0,1,,,,,,,,,0,64,127,,
35940,note_on,240,0,4,,,,,,,,,3,,,45,0
35940,note_on,0,0,4,,,,,,,,,3,,,36,0
35953,note_on,13,0,1,,,,,,,,,0,,,96,75
35953,note_on,13,0,3,,,,,,,,,2,,,48,62
35966,note_on,0,0,3,,,,,,,,,2,,,44,62
35966,note_on,13,0,1,,,,,,,,,0,,,96,0
35966,note_on,0,0,1,,,,,,,,,0,,,89,75
35966,note_on,13,0,3,,,,,,,,,2,,,48,0
35966,note_on,0,0,1,,,,,,,,,0,,,84,75
35966,note_on,0,0,3,,,,,,,,,2,,,36,62
35966,note_on,0,0,1,,,,,,,,,0,,,92,75
35966,note_on,0,0,3,,,,,,,,,2,,,41,62
35979,note_on,0,0,1,,,,,,,,,0,,,84,0
35979,note_on,0,0,1,,,,,,,,,0,,,96,75
35979,note_on,0,0,3,,,,,,,,,2,,,41,0
35979,note_on,0,0,3,,,,,,,,,2,,,48,62
35979,note_on,0,0,3,,,,,,,,,2,,,36,0
35979,note_on,13,0,1,,,,,,,,,0,,,92,0
35979,note_on,0,0,1,,,,,,,,,0,,,89,0
35979,note_on,13,0,3,,,,,,,,,2,,,44,0
35993,note_on,0,0,3,,,,,,,,,2,,,36,62
35993,note_on,0,0,3,,,,,,,,,2,,,41,62
35993,note_on,0,0,3,,,,,,,,,2,,,44,62
35993,note_on,0,0,1,,,,,,,,,0,,,89,75
35993,note_on,14,0,3,,,,,,,,,2,,,48,0
35993,note_on,0,0,1,,,,,,,,,0,,,92,75
35993,note_on,14,0,1,,,,,,,,,0,,,96,0
35993,note_on,0,0,1,,,,,,,,,0,,,84,75
36006,note_on,0,0,1,,,,,,,,,0,,,84,0
36006,note_on,0,0,1,,,,,,,,,0,,,89,0
36006,note_on,0,0,1,,,,,,,,,0,,,96,75
36006,note_on,13,0,1,,,,,,,,,0,,,92,0
36006,note_on,0,0,3,,,,,,,,,2,,,36,0
36006,note_on,0,0,3,,,,,,,,,2,,,41,0
36006,note_on,0,0,3,,,,,,,,,2,,,48,62
36006,note_on,13,0,3,,,,,,,,,2,,,44,0
36020,note_on,0,0,3,,,,,,,,,2,,,36,62
36020,note_on,0,0,3,,,,,,,,,2,,,41,62
36020,note_on,0,0,3,,,,,,,,,2,,,44,62
36020,note_on,0,0,1,,,,,,,,,0,,,84,75
36020,note_on,0,0,1,,,,,,,,,0,,,89,75
36020,note_on,0,0,1,,,,,,,,,0,,,92,75
36020,note_on,14,0,3,,,,,,,,,2,,,48,0
36020,note_on,14,0,1,,,,,,,,,0,,,96,0
36033,note_on,13,0,3,,,,,,,,,2,,,44,0
36033,note_on,0,0,1,,,,,,,,,0,,,96,75
36033,note_on,0,0,3,,,,,,,,,2,,,36,0
36033,note_on,0,0,3,,,,,,,,,2,,,41,0
36033,note_on,0,0,1,,,,,,,,,0,,,89,0
36033,note_on,0,0,1,,,,,,,,,0,,,84,0
36033,note_on,0,0,3,,,,,,,,,2,,,48,62
36033,note_on,13,0,1,,,,,,,,,0,,,92,0
36046,note_on,0,0,1,,,,,,,,,0,,,84,75
36046,note_on,13,0,1,,,,,,,,,0,,,96,0
36046,note_on,0,0,1,,,,,,,,,0,,,89,75
36046,note_on,0,0,1,,,,,,,,,0,,,92,75
36046,note_on,0,0,3,,,,,,,,,2,,,36,62
36046,note_on,13,0,3,,,,,,,,,2,,,48,0
36046,note_on,0,0,3,,,,,,,,,2,,,44,62
36046,note_on,0,0,3,,,,,,,,,2,,,41,62
36060,note_on,0,0,3,,,,,,,,,2,,,41,0
36060,note_on,0,0,3,,,,,,,,,2,,,36,0
36060,note_on,14,0,3,,,,,,,,,2,,,44,0
36060,note_on,0,0,1,,,,,,,,,0,,,84,0
36060,note_on,14,0,1,,,,,,,,,0,,,92,0
36060,note_on,0,0,3,,,,,,,,,2,,,48,62
36060,note_on,0,0,1,,,,,,,,,0,,,89,0
36060,note_on,0,0,1,,,,,,,,,0,,,96,75
36073,note_on,0,0,3,,,,,,,,,2,,,44,62
36073,note_on,0,0,3,,,,,,,,,2,,,41,62
36073,note_on,0,0,3,,,,,,,,,2,,,36,62
36073,note_on,13,0,3,,,,,,,,,2,,,48,0
36073,note_on,0,0,1,,,,,,,,,0,,,84,75
36073,note_on,13,0,1,,,,,,,,,0,,,96,0
36073,note_on,0,0,1,,,,,,,,,0,,,92,75
36073,note_on,0,0,1,,,,,,,,,0,,,89,75
36086,note_on,13,0,1,,,,,,,,,0,,,92,0
36086,note_on,13,0,3,,,,,,,,,2,,,44,0
36086,note_on,0,0,3,,,,,,,,,2,,,48,62
36086,note_on,0,0,1,,,,,,,,,0,,,96,75
36086,note_on,0,0,1,,,,,,,,,0,,,84,0
36086,note_on,0,0,1,,,,,,,,,0,,,89,0
36086,note_on,0,0,3,,,,,,,,,2,,,36,0
36086,note_on,0,0,3,,,,,,,,,2,,,41,0
36099,note_on,0,0,3,,,,,,,,,2,,,41,62
36099,note_on,0,0,3,,,,,,,,,2,,,36,62
36099,note_on,0,0,3,,,,,,,,,2,,,44,62
36099,note_on,13,0,3,,,,,,,,,2,,,48,0
36099,note_on,13,0,1,,,,,,,,,0,,,96,0
36099,note_on,0,0,1,,,,,,,,,0,,,89,75
36099,note_on,0,0,1,,,,,,,,,0,,,84,75
36099,note_on,0,0,1,,,,,,,,,0,,,92,75
36113,note_on,0,0,1,,,,,,,,,0,,,89,0
36113,note_on,14,0,1,,,,,,,,,0,,,92,0
36113,note_on,0,0,1,,,,,,,,,0,,,84,0
36113,note_on,0,0,1,,,,,,,,,0,,,96,75
36113,note_on,14,0,3,,,,,,,,,2,,,44,0
36113,note_on,0,0,3,,,,,,,,,2,,,48,62
36113,note_on,0,0,3,,,,,,,,,2,,,41,0
36113,note_on,0,0,3,,,,,,,,,2,,,36,0
36126,note_on,0,0,3,,,,,,,,,2,,,44,62
36126,note_on,0,0,1,,,,,,,,,0,,,89,75
36126,note_on,0,0,3,,,,,,,,,2,,,36,62
36126,note_on,0,0,1,,,,,,,,,0,,,92,75
36126,note_on,13,0,3,,,,,,,,,2,,,48,0
36126,note_on,13,0,1,,,,,,,,,0,,,96,0
36126,note_on,0,0,1,,,,,,,,,0,,,84,75
36126,note_on,0,0,3,,,,,,,,,2,,,41,62
36140,note_on,14,0,3,,,,,,,,,2,,,44,0
36140,note_on,0,0,1,,,,,,,,,0,,,84,0
36140,note_on,0,0,1,,,,,,,,,0,,,89,0
36140,note_on,0,0,1,,,,,,,,,0,,,96,75
36140,note_on,0,0,3,,,,,,,,,2,,,48,62
36140,note_on,0,0,3,,,,,,,,,2,,,41,0
36140,note_on,0,0,3,,,,,,,,,2,,,36,0
36140,note_on,14,0,1,,,,,,,,,0,,,92,0
36153,note_on,13,0,3,,,,,,,,,2,,,48,0
36153,note_on,0,0,1,,,,,,,,,0,,,92,75
36153,note_on,0,0,1,,,,,,,,,0,,,89,75
36153,note_on,0,0,1,,,,,,,,,0,,,84,75
36153,note_on,0,0,3,,,,,,,,,2,,,44,62
36153,note_on,0,0,3,,,,,,,,,2,,,41,62
36153,note_on,0,0,3,,,,,,,,,2,,,36,62
36153,note_on,13,0,1,,,,,,,,,0,,,96,0
36166,note_on,13,0,1,,,,,,,,,0,,,92,0
36166,note_on,0,0,1,,,,,,,,,0,,,84,0
36166,note_on,0,0,3,,,,,,,,,2,,,36,0
36166,note_on,0,0,3,,,,,,,,,2,,,41,0
36166,control_change,0,0,3,,,,,,,,,2,64,0,,
36166,control_change,0,0,1,,,,,,,,,0,64,0,,
36166,note_on,0,0,1,,,,,,,,,0,,,96,75
36166,note_on,0,0,3,,,,,,,,,2,,,48,62
36166,note_on,13,0,3,,,,,,,,,2,,,44,0
36166,note_on,0,0,1,,,,,,,,,0,,,89,0
36179,note_on,0,0,2,,,,,,,,,1,,,89,127
36179,note_on,240,0,2,,,,,,,,,1,,,92,0
36179,note_on,0,0,2,,,,,,,,,1,,,84,127
36179,note_on,0,0,2,,,,,,,,,1,,,84,0
36179,note_on,0,0,2,,,,,,,,,1,,,91,127
36179,note_on,0,0,2,,,,,,,,,1,,,89,0
36180,control_change,0,0,3,,,,,,,,,2,64,127,,
36180,note_on,0,0,4,,,,,,,,,3,,,41,114
36180,note_on,14,0,3,,,,,,,,,2,,,48,0
36180,control_change,0,0,1,,,,,,,,,0,64,127,,
36180,note_on,240,0,4,,,,,,,,,3,,,44,0
36180,note_on,0,0,4,,,,,,,,,3,,,43,114
36180,note_on,14,0,1,,,,,,,,,0,,,96,0
36180,note_on,0,0,4,,,,,,,,,3,,,36,114
36180,note_on,0,0,4,,,,,,,,,3,,,36,0
36180,note_on,0,0,4,,,,,,,,,3,,,41,0
36193,note_on,13,0,1,,,,,,,,,0,,,96,75
36193,note_on,13,0,3,,,,,,,,,2,,,48,62
36206,note_on,0,0,1,,,,,,,,,0,,,91,75
36206,note_on,0,0,1,,,,,,,,,0,,,89,75
36206,note_on,0,0,1,,,,,,,,,0,,,84,75
36206,note_on,13,0,3,,,,,,,,,2,,,48,0
36206,note_on,13,0,1,,,,,,,,,0,,,96,0
36206,note_on,0,0,3,,,,,,,,,2,,,43,62
36206,note_on,0,0,3,,,,,,,,,2,,,41,62
36206,note_on,0,0,3,,,,,,,,,2,,,36,62
36219,note_on,0,0,3,,,,,,,,,2,,,36,0
36219,note_on,13,0,3,,,,,,,,,2,,,43,0
36219,note_on,13,0,1,,,,,,,,,0,,,91,0
36219,note_on,0,0,3,,,,,,,,,2,,,41,0
36219,note_on,0,0,1,,,,,,,,,0,,,84,0
36219,note_on,0,0,1,,,,,,,,,0,,,89,0
36219,note_on,0,0,1,,,,,,,,,0,,,96,75
36219,note_on,0,0,3,,,,,,,,,2,,,48,62
36233,note_on,0,0,1,,,,,,,,,0,,,91,75
36233,note_on,0,0,3,,,,,,,,,2,,,36,62
36233,note_on,0,0,1,,,,,,,,,0,,,84,75
36233,note_on,14,0,1,,,,,,,,,0,,,96,0
36233,note_on,0,0,3,,,,,,,,,2,,,43,62
36233,note_on,0,0,3,,,,,,,,,2,,,41,62
36233,note_on,14,0,3,,,,,,,,,2,,,48,0
36233,note_on,0,0,1,,,,,,,,,0,,,89,75
36246,note_on,0,0,3,,,,,,,,,2,,,48,62
36246,note_on,0,0,1,,,,,,,,,0,,,89,0
36246,note_on,0,0,1,,,,,,,,,0,,,96,75
36246,note_on,13,0,1,,,,,,,,,0,,,91,0
36246,note_on,0,0,3,,,,,,,,,2,,,36,0
36246,note_on,13,0,3,,,,,,,,,2,,,43,0
36246,note_on,0,0,3,,,,,,,,,2,,,41,0
36246,note_on,0,0,1,,,,,,,,,0,,,84,0
36260,note_on,14,0,1,,,,,,,,,0,,,96,0
36260,note_on,14,0,3,,,,,,,,,2,,,48,0
36260,note_on,0,0,1,,,,,,,,,0,,,89,75
36260,note_on,0,0,3,,,,,,,,,2,,,36,62
36260,note_on,0,0,3,,,,,,,,,2,,,41,62
36260,note_on,0,0,3,,,,,,,,,2,,,43,62
36260,note_on,0,0,1,,,,,,,,,0,,,91,75
36260,note_on,0,0,1,,,,,,,,,0,,,84,75
36273,note_on,0,0,1,,,,,,,,,0,,,89,0
36273,note_on,0,0,3,,,,,,,,,2,,,48,62
36273,note_on,0,0,1,,,,,,,,,0,,,96,75
36273,note_on,0,0,1,,,,,,,,,0,,,84,0
36273,note_on,0,0,3,,,,,,,,,2,,,36,0
36273,note_on,0,0,3,,,,,,,,,2,,,41,0
36273,note_on,13,0,1,,,,,,,,,0,,,91,0
36273,note_on,13,0,3,,,,,,,,,2,,,43,0
36286,note_on,0,0,3,,,,,,,,,2,,,36,62
36286,note_on,13,0,1,,,,,,,,,0,,,96,0
36286,note_on,0,0,1,,,,,,,,,0,,,91,75
36286,note_on,0,0,1,,,,,,,,,0,,,89,75
36286,note_on,0,0,1,,,,,,,,,0,,,84,75
36286,note_on,0,0,3,,,,,,,,,2,,,43,62
36286,note_on,0,0,3,,,,,,,,,2,,,41,62
36286,note_on,13,0,3,,,,,,,,,2,,,48,0
36300,note_on,14,0,1,,,,,,,,,0,,,91,0
36300,note_on,0,0,1,,,,,,,,,0,,,96,75
36300,note_on,0,0,1,,,,,,,,,0,,,89,0
36300,note_on,0,0,1,,,,,,,,,0,,,84,0
36300,note_on,14,0,3,,,,,,,,,2,,,43,0
36300,note_on,0,0,3,,,,,,,,,2,,,36,0
36300,note_on,0,0,3,,,,,,,,,2,,,41,0
36300,note_on,0,0,3,,,,,,,,,2,,,48,62
36313,note_on,13,0,1,,,,,,,,,0,,,96,0
36313,note_on,13,0,3,,,,,,,,,2,,,48,0
36313,note_on,0,0,3,,,,,,,,,2,,,36,62
36313,note_on,0,0,1,,,,,,,,,0,,,91,75
36313,note_on,0,0,1,,,,,,,,,0,,,89,75
36313,note_on,0,0,1,,,,,,,,,0,,,84,75
36313,note_on,0,0,3,,,,,,,,,2,,,41,62
36313,note_on,0,0,3,,,,,,,,,2,,,43,62
36326,note_on,0,0,1,,,,,,,,,0,,,84,0
36326,note_on,0,0,3,,,,,,,,,2,,,36,0
36326,note_on,0,0,3,,,,,,,,,2,,,41,0
36326,note_on,0,0,1,,,,,,,,,0,,,89,0
36326,note_on,13,0,1,,,,,,,,,0,,,91,0
36326,note_on,13,0,3,,,,,,,,,2,,,43,0
36326,note_on,0,0,1,,,,,,,,,0,,,96,75
36326,note_on,0,0,3,,,,,,,,,2,,,48,62
36339,note_on,0,0,3,,,,,,,,,2,,,41,62
36339,note_on,0,0,3,,,,,,,,,2,,,43,62
36339,note_on,0,0,1,,,,,,,,,0,,,91,75
36339,note_on,0,0,1,,,,,,,,,0,,,89,75
36339,note_on,0,0,1,,,,,,,,,0,,,84,75
36339,note_on,13,0,1,,,,,,,,,0,,,96,0
36339,note_on,0,0,3,,,,,,,,,2,,,36,62
36339,note_on,13,0,3,,,,,,,,,2,,,48,0
36353,note_on,14,0,3,,,,,,,,,2,,,43,0
36353,note_on,0,0,3,,,,,,,,,2,,,48,62
36353,note_on,0,0,1,,,,,,,,,0,,,84,0
36353,note_on,0,0,1,,,,,,,,,0,,,89,0
36353,note_on,0,0,1,,,,,,,,,0,,,96,75
36353,note_on,0,0,3,,,,,,,,,2,,,41,0
36353,note_on,0,0,3,,,,,,,,,2,,,36,0
36353,note_on,14,0,1,,,,,,,,,0,,,91,0
36366,note_on,13,0,1,,,,,,,,,0,,,96,0
36366,note_on,0,0,3,,,,,,,,,2,,,36,62
36366,note_on,0,0,1,,,,,,,,,0,,,91,75
36366,note_on,0,0,1,,,,,,,,,0,,,89,75
36366,note_on,0,0,1,,,,,,,,,0,,,84,75
36366,note_on,13,0,3,,,,,,,,,2,,,48,0
36366,note_on,0,0,3,,,,,,,,,2,,,41,62
36366,note_on,0,0,3,,,,,,,,,2,,,43,62
36380,note_on,0,0,1,,,,,,,,,0,,,89,0
36380,note_on,0,0,1,,,,,,,,,0,,,96,75
36380,note_on,0,0,3,,,,,,,,,2,,,48,62
36380,note_on,0,0,3,,,,,,,,,2,,,41,0
36380,note_on,14,0,3,,,,,,,,,2,,,43,0
36380,note_on,0,0,1,,,,,,,,,0,,,84,0
36380,note_on,14,0,1,,,,,,,,,0,,,91,0
36380,note_on,0,0,3,,,,,,,,,2,,,36,0
36393,note_on,0,0,1,,,,,,,,,0,,,89,75
36393,note_on,0,0,1,,,,,,,,,0,,,91,75
36393,note_on,13,0,3,,,,,,,,,2,,,48,0
36393,note_on,0,0,1,,,,,,,,,0,,,84,75
36393,note_on,0,0,3,,,,,,,,,2,,,41,62
36393,note_on,13,0,1,,,,,,,,,0,,,96,0
36393,note_on,0,0,3,,,,,,,,,2,,,36,62
36393,note_on,0,0,3,,,,,,,,,2,,,43,62
36406,note_on,0,0,3,,,,,,,,,2,,,36,0
36406,control_change,0,0,3,,,,,,,,,2,64,0,,
36406,note_on,13,0,1,,,,,,,,,0,,,91,0
36406,note_on,0,0,1,,,,,,,,,0,,,96,75
36406,note_on,0,0,1,,,,,,,,,0,,,89,0
36406,note_on,0,0,1,,,,,,,,,0,,,84,0
36406,note_on,0,0,3,,,,,,,,,2,,,48,62
36406,note_on,0,0,3,,,,,,,,,2,,,41,0
36406,control_change,0,0,1,,,,,,,,,0,64,0,,
36406,note_on,13,0,3,,,,,,,,,2,,,43,0
36419,note_on,0,0,2,,,,,,,,,1,,,84,0
36419,note_on,0,0,2,,,,,,,,,1,,,91,127
36419,note_on,0,0,2,,,,,,,,,1,,,88,127
36419,note_on,0,0,2,,,,,,,,,1,,,89,0
36419,note_on,0,0,2,,,,,,,,,1,,,84,127
36419,note_on,240,0,2,,,,,,,,,1,,,91,0
36420,note_on,14,0,1,,,,,,,,,0,,,96,0
36420,control_change,0,0,3,,,,,,,,,2,64,127,,
36420,control_change,0,0,1,,,,,,,,,0,64,127,,
36420,note_on,240,0,4,,,,,,,,,3,,,43,0
36420,note_on,14,0,3,,,,,,,,,2,,,48,0
36420,note_on,0,0,4,,,,,,,,,3,,,41,0
36420,note_on,0,0,4,,,,,,,,,3,,,43,114
36420,note_on,0,0,4,,,,,,,,,3,,,40,114
36420,note_on,0,0,4,,,,,,,,,3,,,36,114
36420,note_on,0,0,4,,,,,,,,,3,,,36,0
36433,note_on,13,0,3,,,,,,,,,2,,,48,62
36433,note_on,13,0,1,,,,,,,,,0,,,96,75
36446,note_on,0,0,3,,,,,,,,,2,,,36,62
36446,note_on,13,0,3,,,,,,,,,2,,,48,0
36446,note_on,13,0,1,,,,,,,,,0,,,96,0
36446,note_on,0,0,3,,,,,,,,,2,,,40,62
36446,note_on,0,0,3,,,,,,,,,2,,,43,62
36446,note_on,0,0,1,,,,,,,,,0,,,84,75
36446,note_on,0,0,1,,,,,,,,,0,,,88,75
36446,note_on,0,0,1,,,,,,,,,0,,,91,75
36459,note_on,13,0,3,,,,,,,,,2,,,43,0
36459,note_on,13,0,1,,,,,,,,,0,,,91,0
36459,note_on,0,0,3,,,,,,,,,2,,,40,0
36459,note_on,0,0,3,,,,,,,,,2,,,36,0
36459,note_on,0,0,3,,,,,,,,,2,,,48,62
36459,note_on,0,0,1,,,,,,,,,0,,,88,0
36459,note_on,0,0,1,,,,,,,,,0,,,84,0
36459,note_on,0,0,1,,,,,,,,,0,,,96,75
36473,note_on,0,0,1,,,,,,,,,0,,,84,75
36473,note_on,0,0,1,,,,,,,,,0,,,88,75
36473,note_on,0,0,3,,,,,,,,,2,,,36,62
36473,note_on,14,0,3,,,,,,,,,2,,,48,0
36473,note_on,14,0,1,,,,,,,,,0,,,96,0
36473,note_on,0,0,1,,,,,,,,,0,,,91,75
36473,note_on,0,0,3,,,,,,,,,2,,,40,62
36473,note_on,0,0,3,,,,,,,,,2,,,43,62
36486,note_on,13,0,3,,,,,,,,,2,,,43,0
36486,note_on,13,0,1,,,,,,,,,0,,,91,0
36486,note_on,0,0,1,,,,,,,,,0,,,84,0
36486,note_on,0,0,1,,,,,,,,,0,,,88,0
36486,note_on,0,0,1,,,,,,,,,0,,,96,75
36486,note_on,0,0,3,,,,,,,,,2,,,36,0
36486,note_on,0,0,3,,,,,,,,,2,,,40,0
36486,note_on,0,0,3,,,,,,,,,2,,,48,62
36500,note_on,14,0,3,,,,,,,,,2,,,48,0
36500,note_on,0,0,3,,,,,,,,,2,,,43,62
36500,note_on,0,0,1,,,,,,,,,0,,,88,75
36500,note_on,0,0,3,,,,,,,,,2,,,36,62
36500,note_on,0,0,3,,,,,,,,,2,,,40,62
36500,note_on,14,0,1,,,,,,,,,0,,,96,0
36500,note_on,0,0,1,,,,,,,,,0,,,84,75
36500,note_on,0,0,1,,,,,,,,,0,,,91,75
36513,note_on,13,0,1,,,,,,,,,0,,,91,0
36513,note_on,0,0,3,,,,,,,,,2,,,36,0
36513,note_on,0,0,3,,,,,,,,,2,,,40,0
36513,note_on,0,0,3,,,,,,,,,2,,,48,62
36513,note_on,0,0,1,,,,,,,,,0,,,96,75
36513,note_on,0,0,1,,,,,,,,,0,,,88,0
36513,note_on,0,0,1,,,,,,,,,0,,,84,0
36513,note_on,13,0,3,,,,,,,,,2,,,43,0
36526,note_on,13,0,1,,,,,,,,,0,,,96,0
36526,note_on,0,0,1,,,,,,,,,0,,,88,75
36526,note_on,0,0,3,,,,,,,,,2,,,43,62
36526,note_on,13,0,3,,,,,,,,,2,,,48,0
36526,note_on,0,0,1,,,,,,,,,0,,,84,75
36526,note_on,0,0,3,,,,,,,,,2,,,40,62
36526,note_on,0,0,3,,,,,,,,,2,,,36,62
36526,note_on,0,0,1,,,,,,,,,0,,,91,75
36540,note_on,0,0,1,,,,,,,,,0,,,96,75
36540,note_on,0,0,3,,,,,,,,,2,,,40,0
36540,note_on,14,0,1,,,,,,,,,0,,,91,0
36540,note_on,14,0,3,,,,,,,,,2,,,43,0
36540,note_on,0,0,1,,,,,,,,,0,,,88,0
36540,note_on,0,0,1,,,,,,,,,0,,,84,0
36540,note_on,0,0,3,,,,,,,,,2,,,36,0
36540,note_on,0,0,3,,,,,,,,,2,,,48,62
36553,note_on,0,0,3,,,,,,,,,2,,,40,62
36553,note_on,0,0,3,,,,,,,,,2,,,36,62
36553,note_on,13,0,1,,,,,,,,,0,,,96,0
36553,note_on,0,0,3,,,,,,,,,2,,,43,62
36553,note_on,13,0,3,,,,,,,,,2,,,48,0
36553,note_on,0,0,1,,,,,,,,,0,,,91,75
36553,note_on,0,0,1,,,,,,,,,0,,,88,75
36553,note_on,0,0,1,,,,,,,,,0,,,84,75
36566,note_on,13,0,3,,,,,,,,,2,,,43,0
36566,note_on,0,0,1,,,,,,,,,0,,,96,75
36566,note_on,0,0,1,,,,,,,,,0,,,88,0
36566,note_on,0,0,1,,,,,,,,,0,,,84,0
36566,note_on,13,0,1,,,,,,,,,0,,,91,0
36566,note_on,0,0,3,,,,,,,,,2,,,48,62
36566,note_on,0,0,3,,,,,,,,,2,,,40,0
36566,note_on,0,0,3,,,,,,,,,2,,,36,0
36579,note_on,13,0,1,,,,,,,,,0,,,96,0
36579,note_on,13,0,3,,,,,,,,,2,,,48,0
36579,note_on,0,0,3,,,,,,,,,2,,,36,62
36579,note_on,0,0,3,,,,,,,,,2,,,40,62
36579,note_on,0,0,3,,,,,,,,,2,,,43,62
36579,note_on,0,0,1,,,,,,,,,0,,,84,75
36579,note_on,0,0,1,,,,,,,,,0,,,88,75
36579,note_on,0,0,1,,,,,,,,,0,,,91,75
36593,note_on,0,0,3,,,,,,,,,2,,,36,0
36593,note_on,0,0,3,,,,,,,,,2,,,40,0
36593,note_on,0,0,3,,,,,,,,,2,,,48,62
36593,note_on,14,0,1,,,,,,,,,0,,,91,0
36593,note_on,0,0,1,,,,,,,,,0,,,84,0
36593,note_on,0,0,1,,,,,,,,,0,,,88,0
36593,note_on,14,0,3,,,,,,,,,2,,,43,0
36593,note_on,0,0,1,,,,,,,,,0,,,96,75
36606,note_on,13,0,3,,,,,,,,,2,,,48,0
36606,note_on,0,0,1,,,,,,,,,0,,,88,75
36606,note_on,0,0,1,,,,,,,,,0,,,84,75
36606,note_on,0,0,1,,,,,,,,,0,,,91,75
36606,note_on,0,0,3,,,,,,,,,2,,,43,62
36606,note_on,0,0,3,,,,,,,,,2,,,40,62
36606,note_on,0,0,3,,,,,,,,,2,,,36,62
36606,note_on,13,0,1,,,,,,,,,0,,,96,0
36620,note_on,0,0,3,,,,,,,,,2,,,48,62
36620,note_on,14,0,3,,,,,,,,,2,,,43,0
36620,note_on,0,0,3,,,,,,,,,2,,,36,0
36620,note_on,0,0,1,,,,,,,,,0,,,84,0
36620,note_on,0,0,1,,,,,,,,,0,,,88,0
36620,note_on,0,0,1,,,,,,,,,0,,,96,75
36620,note_on,14,0,1,,,,,,,,,0,,,91,0
36620,note_on,0,0,3,,,,,,,,,2,,,40,0
36633,note_on,0,0,3,,,,,,,,,2,,,40,62
36633,note_on,0,0,3,,,,,,,,,2,,,36,62
36633,note_on,13,0,1,,,,,,,,,0,,,96,0
36633,note_on,0,0,3,,,,,,,,,2,,,43,62
36633,note_on,0,0,1,,,,,,,,,0,,,91,75
36633,note_on,0,0,1,,,,,,,,,0,,,88,75
36633,note_on,0,0,1,,,,,,,,,0,,,84,75
36633,note_on,13,0,3,,,,,,,,,2,,,48,0
36646,note_on,0,0,3,,,,,,,,,2,,,36,0
36646,note_on,0,0,1,,,,,,,,,0,,,96,75
36646,note_on,0,0,3,,,,,,,,,2,,,48,62
36646,note_on,0,0,3,,,,,,,,,2,,,40,0
36646,note_on,0,0,1,,,,,,,,,0,,,84,0
36646,note_on,0,0,1,,,,,,,,,0,,,88,0
36646,note_on,13,0,3,,,,,,,,,2,,,43,0
36646,note_on,13,0,1,,,,,,,,,0,,,91,0
36646,control_change,0,0,3,,,,,,,,,2,64,0,,
36646,control_change,0,0,1,,,,,,,,,0,64,0,,
36659,note_on,240,0,2,,,,,,,,,1,,,91,0
36659,note_on,0,0,2,,,,,,,,,1,,,88,0
36659,note_on,0,0,2,,,,,,,,,1,,,84,0
36660,note_on,240,0,4,,,,,,,,,3,,,43,0
36660,note_on,14,0,1,,,,,,,,,0,,,96,0
36660,note_on,0,0,4,,,,,,,,,3,,,36,0
36660,note_on,0,0,4,,,,,,,,,3,,,40,0
36660,note_on,0,0,3,,,,,,,,,2,,,35,62
36660,note_on,0,0,1,,,,,,,,,0,,,95,75
36660,time_signature,4320,1,0,1,8,12,8,,,,,,,,,
36660,note_on,14,0,3,,,,,,,,,2,,,48,0
36675,note_on,0,0,1,,,,,,,,,0,,,96,75
36675,note_on,15,0,1,,,,,,,,,0,,,95,0
36675,note_on,0,0,3,,,,,,,,,2,,,36,62
36675,note_on,15,0,3,,,,,,,,,2,,,35,0
36690,note_on,0,0,3,,,,,,,,,2,,,38,62
36690,note_on,15,0,1,,,,,,,,,0,,,96,0
36690,note_on,15,0,3,,,,,,,,,2,,,36,0
36690,note_on,0,0,1,,,,,,,,,0,,,98,75
36705,note_on,15,0,3,,,,,,,,,2,,,38,0
36705,note_on,15,0,1,,,,,,,,,0,,,98,0
36705,note_on,0,0,3,,,,,,,,,2,,,40,62
36705,note_on,0,0,1,,,,,,,,,0,,,100,75
36719,control_change,60,0,2,,,,,,,,,1,64,127,,
36720,note_on,15,0,3,,,,,,,,,2,,,40,0
36720,control_change,0,0,3,,,,,,,,,2,64,127,,
36720,note_on,60,0,4,,,,,,,,,3,,,29,114
36720,note_on,0,0,4,,,,,,,,,3,,,41,114
36720,note_on,0,0,1,,,,,,,,,0,,,89,127
36720,time_signature,60,1,0,4,4,24,8,,,,,,,,,
36720,note_on,15,0,1,,,,,,,,,0,,,100,0
36720,note_on,0,0,1,,,,,,,,,0,,,101,127
36759,note_on,39,0,3,,,,,,,,,2,,,53,75
36759,note_on,0,0,2,,,,,,,,,1,,,69,75
36759,note_on,0,0,2,,,,,,,,,1,,,72,75
36759,note_on,0,0,2,,,,,,,,,1,,,77,75
36759,note_on,40,0,2,,,,,,,,,1,,,65,75
36759,note_on,0,0,3,,,,,,,,,2,,,60,75
36759,note_on,0,0,3,,,,,,,,,2,,,57,75
36780,set_tempo,60,1,0,,,,,,1132075,,,,,,,
36799,note_on,40,0,2,,,,,,,,,1,,,77,0
36799,note_on,0,0,2,,,,,,,,,1,,,65,75
36799,note_on,0,0,2,,,,,,,,,1,,,77,75
36799,note_on,0,0,2,,,,,,,,,1,,,69,75
36799,note_on,0,0,3,,,,,,,,,2,,,53,0
36799,note_on,0,0,3,,,,,,,,,2,,,57,0
36799,note_on,0,0,2,,,,,,,,,1,,,69,0
36799,note_on,0,0,2,,,,,,,,,1,,,65,0
36799,note_on,0,0,2,,,,,,,,,1,,,72,75
36799,note_on,0,0,2,,,,,,,,,1,,,72,0
36799,note_on,40,0,3,,,,,,,,,2,,,60,0
36800,note_on,1,0,3,,,,,,,,,2,,,53,75
36800,note_on,0,0,3,,,,,,,,,2,,,60,75
36800,note_on,0,0,3,,,,,,,,,2,,,57,75
36839,note_on,0,0,2,,,,,,,,,1,,,72,0
36839,note_on,0,0,2,,,,,,,,,1,,,69,75
36839,note_on,0,0,2,,,,,,,,,1,,,69,0
36839,note_on,0,0,2,,,,,,,,,1,,,77,75
36839,note_on,0,0,2,,,,,,,,,1,,,72,75
36839,note_on,0,0,2,,,,,,,,,1,,,65,75
36839,note_on,0,0,2,,,,,,,,,1,,,65,0
36839,note_on,40,0,2,,,,,,,,,1,,,77,0
36840,note_on,0,0,3,,,,,,,,,2,,,60,75
36840,note_on,40,0,3,,,,,,,,,2,,,60,0
36840,note_on,0,0,3,,,,,,,,,2,,,53,0
36840,note_on,0,0,3,,,,,,,,,2,,,53,75
36840,note_on,0,0,3,,,,,,,,,2,,,57,0
36840,set_tempo,60,1,0,,,,,,1200000,,,,,,,
36840,note_on,0,0,3,,,,,,,,,2,,,57,75
36879,note_on,40,0,2,,,,,,,,,1,,,77,0
36879,note_on,0,0,3,,,,,,,,,2,,,60,75
36879,note_on,0,0,2,,,,,,,,,1,,,65,0
36879,note_on,0,0,2,,,,,,,,,1,,,69,0
36879,note_on,0,0,3,,,,,,,,,2,,,57,75
36879,note_on,0,0,2,,,,,,,,,1,,,77,75
36879,note_on,0,0,2,,,,,,,,,1,,,72,75
36879,note_on,39,0,3,,,,,,,,,2,,,53,75
36879,note_on,0,0,2,,,,,,,,,1,,,72,0
36879,note_on,0,0,2,,,,,,,,,1,,,69,75
36879,note_on,0,0,2,,,,,,,,,1,,,65,75
36880,note_on,1,0,3,,,,,,,,,2,,,60,0
36880,note_on,0,0,3,,,,,,,,,2,,,53,0
36880,note_on,0,0,3,,,,,,,,,2,,,57,0
36900,set_tempo,60,1,0,,,,,,1276596,,,,,,,
36919,note_on,0,0,3,,,,,,,,,2,,,57,0
36919,note_on,0,0,3,,,,,,,,,2,,,60,0
36919,control_change,0,0,2,,,,,,,,,1,64,0,,
36919,note_on,0,0,2,,,,,,,,,1,,,72,0
36919,note_on,0,0,2,,,,,,,,,1,,,65,0
36919,note_on,0,0,2,,,,,,,,,1,,,72,75
36919,note_on,0,0,2,,,,,,,,,1,,,77,75
36919,note_on,39,0,3,,,,,,,,,2,,,53,0
36919,note_on,40,0,2,,,,,,,,,1,,,77,0
36919,note_on,0,0,2,,,,,,,,,1,,,69,0
36919,note_on,0,0,2,,,,,,,,,1,,,65,75
36919,note_on,0,0,2,,,,,,,,,1,,,69,75
36920,control_change,1,0,3,,,,,,,,,2,64,0,,
36920,note_on,0,0,3,,,,,,,,,2,,,60,75
36920,note_on,0,0,3,,,,,,,,,2,,,57,75
36920,note_on,0,0,3,,,,,,,,,2,,,53,75
36959,control_change,0,0,2,,,,,,,,,1,64,127,,
36959,note_on,0,0,2,,,,,,,,,1,,,69,0
36959,note_on,0,0,2,,,,,,,,,1,,,72,0
36959,note_on,0,0,2,,,,,,,,,1,,,65,0
36959,note_on,40,0,2,,,,,,,,,1,,,77,0
36960,set_tempo,60,1,0,,,,,,1395349,,,,,,,
36960,note_on,40,0,3,,,,,,,,,2,,,60,0
36960,note_on,0,0,1,,,,,,,,,0,,,89,0
36960,note_on,0,0,4,,,,,,,,,3,,,44,114
36960,note_on,0,0,1,,,,,,,,,0,,,92,127
36960,note_on,0,0,1,,,,,,,,,0,,,95,127
36960,note_on,0,0,1,,,,,,,,,0,,,101,127
36960,control_change,0,0,3,,,,,,,,,2,64,127,,
36960,note_on,240,0,4,,,,,,,,,3,,,41,0
36960,note_on,0,0,4,,,,,,,,,3,,,49,114
36960,note_on,0,0,4,,,,,,,,,3,,,41,114
36960,note_on,240,0,1,,,,,,,,,0,,,101,0
36960,note_on,0,0,4,,,,,,,,,3,,,37,114
36960,note_on,0,0,4,,,,,,,,,3,,,29,0
36960,note_on,0,0,3,,,,,,,,,2,,,53,0
36960,note_on,0,0,1,,,,,,,,,0,,,89,127
36960,note_on,0,0,3,,,,,,,,,2,,,57,0
36999,note_on,0,0,3,,,,,,,,,2,,,56,75
36999,note_on,0,0,2,,,,,,,,,1,,,77,75
36999,note_on,0,0,2,,,,,,,,,1,,,71,75
36999,note_on,40,0,2,,,,,,,,,1,,,65,75
36999,note_on,0,0,2,,,,,,,,,1,,,68,75
36999,note_on,0,0,3,,,,,,,,,2,,,59,75
36999,note_on,39,0,3,,,,,,,,,2,,,53,75
37020,set_tempo,60,1,0,,,,,,1500000,,,,,,,
37039,note_on,0,0,3,,,,,,,,,2,,,53,0
37039,note_on,0,0,2,,,,,,,,,1,,,65,0
37039,note_on,0,0,3,,,,,,,,,2,,,56,0
37039,note_on,0,0,2,,,,,,,,,1,,,68,75
37039,note_on,0,0,2,,,,,,,,,1,,,65,75
37039,note_on,0,0,2,,,,,,,,,1,,,68,0
37039,note_on,0,0,2,,,,,,,,,1,,,71,0
37039,note_on,0,0,2,,,,,,,,,1,,,71,75
37039,note_on,0,0,2,,,,,,,,,1,,,77,75
37039,note_on,40,0,2,,,,,,,,,1,,,77,0
37039,note_on,40,0,3,,,,,,,,,2,,,59,0
37040,note_on,0,0,3,,,,,,,,,2,,,59,75
37040,note_on,1,0,3,,,,,,,,,2,,,53,75
37040,note_on,0,0,3,,,,,,,,,2,,,56,75
37079,note_on,0,0,2,,,,,,,,,1,,,68,0
37079,note_on,0,0,2,,,,,,,,,1,,,65,75
37079,note_on,0,0,2,,,,,,,,,1,,,71,75
37079,note_on,0,0,2,,,,,,,,,1,,,77,75
37079,note_on,0,0,2,,,,,,,,,1,,,71,0
37079,note_on,0,0,2,,,,,,,,,1,,,65,0
37079,note_on,40,0,2,,,,,,,,,1,,,77,0
37079,note_on,0,0,2,,,,,,,,,1,,,68,75
37080,note_on,0,0,3,,,,,,,,,2,,,59,75
37080,note_on,0,0,3,,,,,,,,,2,,,56,0
37080,note_on,0,0,3,,,,,,,,,2,,,53,75
37080,note_on,0,0,3,,,,,,,,,2,,,53,0
37080,note_on,40,0,3,,,,,,,,,2,,,59,0
37080,set_tempo,60,1,0,,,,,,1621622,,,,,,,
37080,note_on,0,0,3,,,,,,,,,2,,,56,75
37119,note_on,0,0,3,,,,,,,,,2,,,56,75
37119,note_on,0,0,3,,,,,,,,,2,,,59,75
37119,note_on,0,0,2,,,,,,,,,1,,,77,75
37119,note_on,40,0,2,,,,,,,,,1,,,77,0
37119,note_on,0,0,2,,,,,,,,,1,,,71,0
37119,note_on,0,0,2,,,,,,,,,1,,,71,75
37119,note_on,0,0,2,,,,,,,,,1,,,68,0
37119,note_on,0,0,2,,,,,,,,,1,,,65,75
37119,note_on,0,0,2,,,,,,,,,1,,,65,0
37119,note_on,39,0,3,,,,,,,,,2,,,53,75
37119,note_on,0,0,2,,,,,,,,,1,,,68,75
37120,note_on,1,0,3,,,,,,,,,2,,,59,0
37120,note_on,0,0,3,,,,,,,,,2,,,56,0
37120,note_on,0,0,3,,,,,,,,,2,,,53,0
37140,set_tempo,60,1,0,,,,,,1764706,,,,,,,
37159,note_on,0,0,2,,,,,,,,,1,,,77,75
37159,note_on,0,0,2,,,,,,,,,1,,,71,75
37159,note_on,0,0,2,,,,,,,,,1,,,71,0
37159,note_on,0,0,2,,,,,,,,,1,,,68,75
37159,note_on,0,0,2,,,,,,,,,1,,,68,0
37159,note_on,40,0,2,,,,,,,,,1,,,77,0
37159,control_change,0,0,2,,,,,,,,,1,64,0,,
37159,note_on,39,0,3,,,,,,,,,2,,,53,0
37159,note_on,0,0,3,,,,,,,,,2,,,56,0
37159,note_on,0,0,3,,,,,,,,,2,,,59,0
37159,note_on,0,0,2,,,,,,,,,1,,,65,0
37159,note_on,0,0,2,,,,,,,,,1,,,65,75
37160,control_change,1,0,3,,,,,,,,,2,64,0,,
37160,note_on,0,0,3,,,,,,,,,2,,,53,75
37160,note_on,0,0,3,,,,,,,,,2,,,56,75
37160,note_on,0,0,3,,,,,,,,,2,,,59,75
37199,note_on,40,0,2,,,,,,,,,1,,,77,0
37199,note_on,0,0,2,,,,,,,,,1,,,71,0
37199,note_on,0,0,2,,,,,,,,,1,,,68,0
37199,note_on,0,0,2,,,,,,,,,1,,,65,0
37200,note_on,0,0,1,,,,,,,,,0,,,101,127
37200,note_on,0,0,1,,,,,,,,,0,,,96,127
37200,end_of_track,0,1,0,,,,,,,,,,,,,
37200,note_on,0,0,3,,,,,,,,,2,,,56,0
37200,note_on,0,0,3,,,,,,,,,2,,,53,0
37200,note_on,0,0,1,,,,,,,,,0,,,95,0
37200,note_on,0,0,1,,,,,,,,,0,,,93,127
37200,set_tempo,60,1,0,,,,,,1071429,,,,,,,
37200,note_on,240,0,1,,,,,,,,,0,,,101,0
37200,note_on,0,0,4,,,,,,,,,3,,,37,0
37200,note_on,0,0,4,,,,,,,,,3,,,41,0
37200,note_on,0,0,4,,,,,,,,,3,,,41,114
37200,note_on,0,0,4,,,,,,,,,3,,,44,0
37200,note_on,0,0,4,,,,,,,,,3,,,45,114
37200,note_on,0,0,4,,,,,,,,,3,,,48,114
37200,note_on,0,0,4,,,,,,,,,3,,,36,114
37200,note_on,240,0,4,,,,,,,,,3,,,49,0
37200,note_on,40,0,3,,,,,,,,,2,,,59,0
37200,note_on,0,0,1,,,,,,,,,0,,,89,0
37200,note_on,0,0,1,,,,,,,,,0,,,89,127
37200,note_on,0,0,1,,,,,,,,,0,,,92,0
37239,note_on,0,0,2,,,,,,,,,1,,,77,75
37239,note_on,0,0,2,,,,,,,,,1,,,72,75
37239,note_on,0,0,2,,,,,,,,,1,,,69,75
37239,note_on,39,0,3,,,,,,,,,2,,,53,75
37239,note_on,0,0,3,,,,,,,,,2,,,57,75
37239,note_on,0,0,3,,,,,,,,,2,,,60,75
37239,note_on,40,0,2,,,,,,,,,1,,,65,75
37279,note_on,0,0,2,,,,,,,,,1,,,69,75
37279,note_on,0,0,2,,,,,,,,,1,,,69,0
37279,note_on,0,0,2,,,,,,,,,1,,,65,75
37279,note_on,0,0,2,,,,,,,,,1,,,72,0
37279,note_on,0,0,2,,,,,,,,,1,,,65,0
37279,note_on,0,0,2,,,,,,,,,1,,,77,75
37279,note_on,0,0,3,,,,,,,,,2,,,53,0
37279,note_on,40,0,3,,,,,,,,,2,,,60,0
37279,note_on,40,0,2,,,,,,,,,1,,,77,0
37279,note_on,0,0,2,,,,,,,,,1,,,72,75
37279,note_on,0,0,3,,,,,,,,,2,,,57,0
37280,note_on,1,0,3,,,,,,,,,2,,,53,75
37280,note_on,0,0,3,,,,,,,,,2,,,60,75
37280,note_on,0,0,3,,,,,,,,,2,,,57,75
37319,note_on,0,0,2,,,,,,,,,1,,,65,0
37319,note_on,0,0,2,,,,,,,,,1,,,69,0
37319,note_on,0,0,2,,,,,,,,,1,,,72,0
37319,note_on,40,0,2,,,,,,,,,1,,,77,0
37320,note_on,120,0,1,,,,,,,,,0,,,101,0
37320,note_on,40,0,3,,,,,,,,,2,,,60,0
37320,note_on,0,0,3,,,,,,,,,2,,,57,0
37320,note_on,0,0,3,,,,,,,,,2,,,53,0
37320,note_on,120,0,4,,,,,,,,,3,,,48,0
37320,note_on,0,0,1,,,,,,,,,0,,,96,0
37320,note_on,0,0,1,,,,,,,,,0,,,98,127
37320,note_on,0,0,1,,,,,,,,,0,,,101,127
37320,note_on,0,0,4,,,,,,,,,3,,,47,114
37320,note_on,0,0,4,,,,,,,,,3,,,45,0
37320,note_on,0,0,1,,,,,,,,,0,,,89,0
37320,note_on,0,0,4,,,,,,,,,3,,,43,114
37320,note_on,0,0,4,,,,,,,,,3,,,41,114
37320,note_on,0,0,4,,,,,,,,,3,,,41,0
37320,note_on,0,0,4,,,,,,,,,3,,,36,0
37320,note_on,0,0,4,,,,,,,,,3,,,35,114
37320,note_on,0,0,1,,,,,,,,,0,,,89,127
37320,note_on,0,0,1,,,,,,,,,0,,,91,127
37320,note_on,0,0,1,,,,,,,,,0,,,93,0
37359,note_on,40,0,2,,,,,,,,,1,,,65,75
37359,note_on,39,0,3,,,,,,,,,2,,,53,75
37359,note_on,0,0,2,,,,,,,,,1,,,67,75
37359,note_on,0,0,2,,,,,,,,,1,,,77,75
37359,note_on,0,0,3,,,,,,,,,2,,,55,75
37359,note_on,0,0,3,,,,,,,,,2,,,62,75
37359,note_on,0,0,2,,,,,,,,,1,,,74,75
37399,note_on,0,0,2,,,,,,,,,1,,,67,75
37399,note_on,0,0,3,,,,,,,,,2,,,53,0
37399,note_on,0,0,3,,,,,,,,,2,,,55,0
37399,note_on,0,0,2,,,,,,,,,1,,,67,0
37399,note_on,40,0,2,,,,,,,,,1,,,77,0
37399,note_on,40,0,3,,,,,,,,,2,,,62,0
37399,note_on,0,0,2,,,,,,,,,1,,,65,0
37399,note_on,0,0,2,,,,,,,,,1,,,74,0
37399,note_on,0,0,2,,,,,,,,,1,,,77,75
37399,note_on,0,0,2,,,,,,,,,1,,,74,75
37399,note_on,0,0,2,,,,,,,,,1,,,65,75
37400,note_on,0,0,3,,,,,,,,,2,,,62,75
37400,note_on,1,0,3,,,,,,,,,2,,,53,75
37400,note_on,0,0,3,,,,,,,,,2,,,55,75
37439,note_on,0,0,2,,,,,,,,,1,,,67,0
37439,note_on,0,0,2,,,,,,,,,1,,,65,0
37439,note_on,40,0,2,,,,,,,,,1,,,77,0
37439,note_on,0,0,2,,,,,,,,,1,,,74,0
37440,note_on,0,0,1,,,,,,,,,0,,,91,127
37440,note_on,40,0,3,,,,,,,,,2,,,62,0
37440,note_on,0,0,1,,,,,,,,,0,,,89,0
37440,note_on,0,0,1,,,,,,,,,0,,,89,127
37440,note_on,0,0,1,,,,,,,,,0,,,91,0
37440,note_on,120,0,1,,,,,,,,,0,,,101,0
37440,note_on,0,0,4,,,,,,,,,3,,,35,0
37440,note_on,0,0,4,,,,,,,,,3,,,36,114
37440,note_on,0,0,4,,,,,,,,,3,,,41,0
37440,note_on,0,0,4,,,,,,,,,3,,,41,114
37440,note_on,0,0,4,,,,,,,,,3,,,43,0
37440,note_on,0,0,4,,,,,,,,,3,,,43,114
37440,note_on,0,0,1,,,,,,,,,0,,,101,127
37440,note_on,0,0,1,,,,,,,,,0,,,98,0
37440,note_on,0,0,1,,,,,,,,,0,,,96,127
37440,note_on,0,0,4,,,,,,,,,3,,,48,114
37440,note_on,120,0,4,,,,,,,,,3,,,47,0
37440,note_on,0,0,3,,,,,,,,,2,,,55,0
37440,note_on,0,0,3,,,,,,,,,2,,,53,0
37479,note_on,0,0,2,,,,,,,,,1,,,72,75
37479,note_on,0,0,3,,,,,,,,,2,,,55,75
37479,note_on,0,0,2,,,,,,,,,1,,,77,75
37479,note_on,0,0,3,,,,,,,,,2,,,60,75
37479,note_on,40,0,2,,,,,,,,,1,,,65,75
37479,note_on,0,0,2,,,,,,,,,1,,,67,75
37479,note_on,39,0,3,,,,,,,,,2,,,53,75
37519,note_on,0,0,2,,,,,,,,,1,,,67,75
37519,note_on,0,0,2,,,,,,,,,1,,,72,0
37519,note_on,0,0,2,,,,,,,,,1,,,67,0
37519,note_on,40,0,2,,,,,,,,,1,,,77,0
37519,note_on,0,0,3,,,,,,,,,2,,,55,0
37519,note_on,0,0,2,,,,,,,,,1,,,65,75
37519,note_on,0,0,2,,,,,,,,,1,,,65,0
37519,note_on,40,0,3,,,,,,,,,2,,,60,0
37519,note_on,0,0,2,,,,,,,,,1,,,77,75
37519,note_on,0,0,2,,,,,,,,,1,,,72,75
37519,note_on,0,0,3,,,,,,,,,2,,,53,0
37520,note_on,0,0,3,,,,,,,,,2,,,55,75
37520,note_on,0,0,3,,,,,,,,,2,,,60,75
37520,note_on,1,0,3,,,,,,,,,2,,,53,75
37559,note_on,0,0,2,,,,,,,,,1,,,72,0
37559,note_on,0,0,2,,,,,,,,,1,,,67,0
37559,note_on,0,0,2,,,,,,,,,1,,,65,0
37559,note_on,40,0,2,,,,,,,,,1,,,77,0
37560,note_on,120,0,1,,,,,,,,,0,,,101,0
37560,note_on,120,0,4,,,,,,,,,3,,,48,0
37560,note_on,0,0,1,,,,,,,,,0,,,91,127
37560,note_on,0,0,1,,,,,,,,,0,,,96,0
37560,note_on,0,0,4,,,,,,,,,3,,,43,114
37560,note_on,0,0,1,,,,,,,,,0,,,94,127
37560,note_on,40,0,3,,,,,,,,,2,,,60,0
37560,note_on,0,0,1,,,,,,,,,0,,,88,127
37560,note_on,0,0,1,,,,,,,,,0,,,96,127
37560,note_on,0,0,1,,,,,,,,,0,,,100,127
37560,note_on,0,0,4,,,,,,,,,3,,,48,114
37560,note_on,0,0,1,,,,,,,,,0,,,89,0
37560,note_on,0,0,3,,,,,,,,,2,,,53,0
37560,note_on,0,0,4,,,,,,,,,3,,,43,0
37560,note_on,0,0,4,,,,,,,,,3,,,41,0
37560,note_on,0,0,4,,,,,,,,,3,,,40,114
37560,note_on,0,0,4,,,,,,,,,3,,,36,114
37560,note_on,0,0,4,,,,,,,,,3,,,36,0
37560,note_on,0,0,3,,,,,,,,,2,,,55,0
37560,note_on,0,0,1,,,,,,,,,0,,,91,0
37599,note_on,39,0,3,,,,,,,,,2,,,52,75
37599,note_on,40,0,2,,,,,,,,,1,,,64,75
37599,note_on,0,0,2,,,,,,,,,1,,,67,75
37599,note_on,0,0,2,,,,,,,,,1,,,72,75
37599,note_on,0,0,2,,,,,,,,,1,,,76,75
37599,note_on,0,0,3,,,,,,,,,2,,,58,75
37599,note_on,0,0,3,,,,,,,,,2,,,60,75
37639,note_on,40,0,2,,,,,,,,,1,,,76,0
37639,note_on,0,0,2,,,,,,,,,1,,,76,75
37639,note_on,0,0,3,,,,,,,,,2,,,58,0
37639,note_on,0,0,2,,,,,,,,,1,,,64,0
37639,note_on,0,0,2,,,,,,,,,1,,,64,75
37639,note_on,0,0,2,,,,,,,,,1,,,67,0
37639,note_on,0,0,2,,,,,,,,,1,,,67,75
37639,note_on,0,0,2,,,,,,,,,1,,,72,0
37639,note_on,0,0,2,,,,,,,,,1,,,72,75
37639,note_on,0,0,3,,,,,,,,,2,,,52,0
37639,note_on,40,0,3,,,,,,,,,2,,,60,0
37640,note_on,0,0,3,,,,,,,,,2,,,58,75
37640,note_on,0,0,3,,,,,,,,,2,,,60,75
37640,note_on,1,0,3,,,,,,,,,2,,,52,75
37679,note_on,0,0,2,,,,,,,,,1,,,64,0
37679,note_on,0,0,2,,,,,,,,,1,,,67,0
37679,end_of_track,0,1,2,,,,,,,,,,,,,
37679,note_on,40,0,2,,,,,,,,,1,,,76,0
37679,note_on,0,0,2,,,,,,,,,1,,,72,0
37680,note_on,0,0,1,,,,,,,,,0,,,94,0
37680,note_on,0,0,3,,,,,,,,,2,,,36,75
37680,note_on,0,0,3,,,,,,,,,2,,,33,75
37680,note_on,0,0,3,,,,,,,,,2,,,29,75
37680,note_on,0,0,3,,,,,,,,,2,,,58,0
37680,note_on,120,0,4,,,,,,,,,3,,,48,0
37680,control_change,0,0,3,,,,,,,,,2,64,127,,
37680,note_on,0,0,3,,,,,,,,,2,,,41,75
37680,note_on,40,0,3,,,,,,,,,2,,,60,0
37680,note_on,0,0,1,,,,,,,,,0,,,91,0
37680,note_on,0,0,3,,,,,,,,,2,,,52,0
37680,note_on,0,0,1,,,,,,,,,0,,,88,0
37680,note_on,120,0,1,,,,,,,,,0,,,100,0
37680,note_on,0,0,1,,,,,,,,,0,,,96,0
37680,note_on,0,0,4,,,,,,,,,3,,,43,0
37680,note_on,0,0,4,,,,,,,,,3,,,40,0
37680,end_of_track,0,1,4,,,,,,,,,,,,,
37680,note_on,0,0,4,,,,,,,,,3,,,36,0
37700,note_on,0,0,1,,,,,,,,,0,,,53,75
37700,note_on,0,0,1,,,,,,,,,0,,,60,75
37700,control_change,20,0,1,,,,,,,,,0,64,127,,
37700,note_on,0,0,1,,,,,,,,,0,,,57,75
37700,note_on,0,0,1,,,,,,,,,0,,,65,75
37719,note_on,0,0,3,,,,,,,,,2,,,45,75
37719,note_on,0,0,3,,,,,,,,,2,,,41,75
37719,note_on,0,0,3,,,,,,,,,2,,,36,75
37719,note_on,39,0,3,,,,,,,,,2,,,33,75
37720,note_on,0,0,1,,,,,,,,,0,,,57,0
37720,note_on,0,0,1,,,,,,,,,0,,,53,0
37720,note_on,0,0,3,,,,,,,,,2,,,36,0
37720,note_on,0,0,3,,,,,,,,,2,,,33,0
37720,note_on,0,0,3,,,,,,,,,2,,,29,0
37720,note_on,1,0,3,,,,,,,,,2,,,41,0
37720,note_on,0,0,1,,,,,,,,,0,,,60,0
37720,note_on,20,0,1,,,,,,,,,0,,,65,0
37740,note_on,20,0,1,,,,,,,,,0,,,57,75
37740,note_on,0,0,1,,,,,,,,,0,,,69,75
37740,note_on,0,0,1,,,,,,,,,0,,,65,75
37740,note_on,0,0,1,,,,,,,,,0,,,60,75
37759,note_on,0,0,3,,,,,,,,,2,,,45,0
37759,note_on,39,0,3,,,,,,,,,2,,,33,0
37759,note_on,0,0,3,,,,,,,,,2,,,36,0
37759,note_on,0,0,3,,,,,,,,,2,,,41,0
37760,note_on,0,0,3,,,,,,,,,2,,,48,75
37760,note_on,0,0,1,,,,,,,,,0,,,60,0
37760,note_on,0,0,3,,,,,,,,,2,,,45,75
37760,note_on,0,0,1,,,,,,,,,0,,,57,0
37760,note_on,0,0,3,,,,,,,,,2,,,41,75
37760,note_on,0,0,1,,,,,,,,,0,,,65,0
37760,note_on,1,0,3,,,,,,,,,2,,,36,75
37760,note_on,20,0,1,,,,,,,,,0,,,69,0
37779,note_on,19,0,1,,,,,,,,,0,,,60,75
37779,note_on,0,0,1,,,,,,,,,0,,,72,75
37779,note_on,0,0,1,,,,,,,,,0,,,69,75
37779,note_on,0,0,1,,,,,,,,,0,,,65,75
37799,note_on,0,0,1,,,,,,,,,0,,,69,0
37799,note_on,0,0,1,,,,,,,,,0,,,65,0
37799,note_on,0,0,1,,,,,,,,,0,,,60,0
37799,note_on,20,0,1,,,,,,,,,0,,,72,0
37800,note_on,40,0,3,,,,,,,,,2,,,48,0
37800,note_on,0,0,3,,,,,,,,,2,,,41,0
37800,note_on,0,0,3,,,,,,,,,2,,,48,75
37800,note_on,0,0,3,,,,,,,,,2,,,45,75
37800,note_on,0,0,3,,,,,,,,,2,,,45,0
37800,note_on,0,0,3,,,,,,,,,2,,,41,75
37800,note_on,0,0,3,,,,,,,,,2,,,36,0
37800,note_on,0,0,3,,,,,,,,,2,,,53,75
37820,note_on,0,0,1,,,,,,,,,0,,,69,75
37820,note_on,0,0,1,,,,,,,,,0,,,77,75
37820,note_on,21,0,1,,,,,,,,,0,,,65,75
37820,note_on,0,0,1,,,,,,,,,0,,,72,75
37839,note_on,39,0,3,,,,,,,,,2,,,45,88
37839,note_on,0,0,3,,,,,,,,,2,,,57,88
37839,note_on,0,0,3,,,,,,,,,2,,,48,88
37839,note_on,0,0,3,,,,,,,,,2,,,53,88
37840,note_on,0,0,1,,,,,,,,,0,,,69,0
37840,note_on,0,0,3,,,,,,,,,2,,,41,0
37840,note_on,1,0,3,,,,,,,,,2,,,53,0
37840,note_on,0,0,3,,,,,,,,,2,,,45,0
37840,note_on,0,0,1,,,,,,,,,0,,,72,0
37840,note_on,0,0,3,,,,,,,,,2,,,48,0
37840,note_on,20,0,1,,,,,,,,,0,,,77,0
37840,note_on,0,0,1,,,,,,,,,0,,,65,0
37860,note_on,20,0,1,,,,,,,,,0,,,69,88
37860,note_on,0,0,1,,,,,,,,,0,,,72,88
37860,note_on,0,0,1,,,,,,,,,0,,,81,88
37860,note_on,0,0,1,,,,,,,,,0,,,77,88
37879,note_on,0,0,3,,,,,,,,,2,,,48,0
37879,note_on,0,0,3,,,,,,,,,2,,,53,0
37879,note_on,39,0,3,,,,,,,,,2,,,45,0
37879,note_on,0,0,3,,,,,,,,,2,,,57,0
37880,note_on,0,0,3,,,,,,,,,2,,,53,88
37880,note_on,0,0,1,,,,,,,,,0,,,72,0
37880,note_on,20,0,1,,,,,,,,,0,,,81,0
37880,note_on,0,0,1,,,,,,,,,0,,,77,0
37880,note_on,0,0,3,,,,,,,,,2,,,60,88
37880,note_on,0,0,3,,,,,,,,,2,,,57,88
37880,note_on,0,0,1,,,,,,,,,0,,,69,0
37880,note_on,1,0,3,,,,,,,,,2,,,48,88
37899,note_on,19,0,1,,,,,,,,,0,,,72,88
37899,note_on,0,0,1,,,,,,,,,0,,,77,88
37899,note_on,0,0,1,,,,,,,,,0,,,81,88
37899,note_on,0,0,1,,,,,,,,,0,,,84,88
37919,note_on,20,0,1,,,,,,,,,0,,,84,0
37919,note_on,0,0,1,,,,,,,,,0,,,81,0
37919,note_on,0,0,1,,,,,,,,,0,,,77,0
37919,note_on,0,0,1,,,,,,,,,0,,,72,0
37920,note_on,0,0,3,,,,,,,,,2,,,57,0
37920,note_on,0,0,3,,,,,,,,,2,,,48,0
37920,note_on,40,0,3,,,,,,,,,2,,,60,0
37920,note_on,0,0,3,,,,,,,,,2,,,53,0
37920,note_on,0,0,3,,,,,,,,,2,,,53,88
37920,note_on,0,0,3,,,,,,,,,2,,,57,88
37920,note_on,0,0,3,,,,,,,,,2,,,60,88
37920,note_on,0,0,3,,,,,,,,,2,,,65,88
37940,note_on,0,0,1,,,,,,,,,0,,,81,88
37940,note_on,21,0,1,,,,,,,,,0,,,77,88
37940,note_on,0,0,1,,,,,,,,,0,,,84,88
37940,note_on,0,0,1,,,,,,,,,0,,,89,88
37959,note_on,0,0,3,,,,,,,,,2,,,53,88
37959,note_on,0,0,3,,,,,,,,,2,,,57,88
37959,note_on,39,0,3,,,,,,,,,2,,,48,88
37959,note_on,0,0,3,,,,,,,,,2,,,60,88
37960,note_on,0,0,1,,,,,,,,,0,,,77,0
37960,note_on,20,0,1,,,,,,,,,0,,,89,0
37960,note_on,0,0,1,,,,,,,,,0,,,81,0
37960,note_on,0,0,3,,,,,,,,,2,,,57,0
37960,note_on,0,0,3,,,,,,,,,2,,,60,0
37960,note_on,1,0,3,,,,,,,,,2,,,65,0
37960,note_on,0,0,1,,,,,,,,,0,,,84,0
37960,note_on,0,0,3,,,,,,,,,2,,,53,0
37980,note_on,20,0,1,,,,,,,,,0,,,69,88
37980,note_on,0,0,1,,,,,,,,,0,,,72,88
37980,note_on,0,0,1,,,,,,,,,0,,,77,88
37980,note_on,0,0,1,,,,,,,,,0,,,81,88
37999,note_on,0,0,3,,,,,,,,,2,,,53,0
37999,note_on,0,0,3,,,,,,,,,2,,,57,0
37999,note_on,0,0,3,,,,,,,,,2,,,60,0
37999,note_on,39,0,3,,,,,,,,,2,,,48,0
38000,note_on,1,0,3,,,,,,,,,2,,,45,101
38000,note_on,0,0,1,,,,,,,,,0,,,72,0
38000,note_on,0,0,1,,,,,,,,,0,,,77,0
38000,note_on,0,0,3,,,,,,,,,2,,,53,101
38000,note_on,0,0,3,,,,,,,,,2,,,48,101
38000,note_on,20,0,1,,,,,,,,,0,,,81,0
38000,note_on,0,0,1,,,,,,,,,0,,,69,0
38000,note_on,0,0,3,,,,,,,,,2,,,57,101
38019,note_on,0,0,1,,,,,,,,,0,,,77,101
38019,note_on,0,0,1,,,,,,,,,0,,,81,101
38019,note_on,0,0,1,,,,,,,,,0,,,84,101
38019,note_on,19,0,1,,,,,,,,,0,,,72,101
38039,note_on,20,0,1,,,,,,,,,0,,,84,0
38039,note_on,0,0,1,,,,,,,,,0,,,77,0
38039,note_on,0,0,1,,,,,,,,,0,,,72,0
38039,note_on,0,0,1,,,,,,,,,0,,,81,0
38040,note_on,0,0,3,,,,,,,,,2,,,45,101
38040,note_on,40,0,3,,,,,,,,,2,,,57,0
38040,note_on,0,0,3,,,,,,,,,2,,,53,101
38040,note_on,0,0,3,,,,,,,,,2,,,53,0
38040,note_on,0,0,3,,,,,,,,,2,,,48,101
38040,note_on,0,0,3,,,,,,,,,2,,,48,0
38040,note_on,0,0,3,,,,,,,,,2,,,45,0
38040,note_on,0,0,3,,,,,,,,,2,,,41,101
38060,note_on,0,0,1,,,,,,,,,0,,,81,101
38060,note_on,0,0,1,,,,,,,,,0,,,84,101
38060,note_on,21,0,1,,,,,,,,,0,,,77,101
38060,note_on,0,0,1,,,,,,,,,0,,,89,101
38079,note_on,39,0,3,,,,,,,,,2,,,36,101
38079,note_on,0,0,3,,,,,,,,,2,,,41,101
38079,note_on,0,0,3,,,,,,,,,2,,,48,101
38079,note_on,0,0,3,,,,,,,,,2,,,45,101
38080,note_on,0,0,3,,,,,,,,,2,,,41,0
38080,note_on,0,0,1,,,,,,,,,0,,,81,0
38080,note_on,0,0,1,,,,,,,,,0,,,77,0
38080,note_on,0,0,3,,,,,,,,,2,,,45,0
38080,note_on,1,0,3,,,,,,,,,2,,,53,0
38080,note_on,0,0,3,,,,,,,,,2,,,48,0
38080,note_on,0,0,1,,,,,,,,,0,,,84,0
38080,note_on,20,0,1,,,,,,,,,0,,,89,0
38100,note_on,0,0,1,,,,,,,,,0,,,89,101
38100,note_on,0,0,1,,,,,,,,,0,,,84,101
38100,note_on,20,0,1,,,,,,,,,0,,,81,101
38100,note_on,0,0,1,,,,,,,,,0,,,93,101
38119,note_on,39,0,3,,,,,,,,,2,,,36,0
38119,note_on,0,0,3,,,,,,,,,2,,,41,0
38119,note_on,0,0,3,,,,,,,,,2,,,45,0
38119,note_on,0,0,3,,,,,,,,,2,,,48,0
38120,control_change,1,0,3,,,,,,,,,2,64,0,,
38120,note_on,0,0,3,,,,,,,,,2,,,33,101
38120,note_on,0,0,3,,,,,,,,,2,,,36,101
38120,note_on,0,0,3,,,,,,,,,2,,,41,101
38120,note_on,0,0,3,,,,,,,,,2,,,45,101
38120,note_on,20,0,1,,,,,,,,,0,,,93,0
38120,note_on,0,0,1,,,,,,,,,0,,,81,0
38120,note_on,0,0,1,,,,,,,,,0,,,84,0
38120,note_on,0,0,1,,,,,,,,,0,,,89,0
38139,control_change,19,0,1,,,,,,,,,0,64,0,,
38139,note_on,0,0,1,,,,,,,,,0,,,84,101
38139,note_on,0,0,1,,,,,,,,,0,,,89,101
38139,note_on,0,0,1,,,,,,,,,0,,,93,101
38139,note_on,0,0,1,,,,,,,,,0,,,96,101
38159,note_on,0,0,1,,,,,,,,,0,,,93,0
38159,note_on,0,0,1,,,,,,,,,0,,,84,0
38159,note_on,0,0,1,,,,,,,,,0,,,89,0
38159,note_on,20,0,1,,,,,,,,,0,,,96,0
38160,note_on,0,0,1,,,,,,,,,0,,,93,101
38160,note_on,0,0,1,,,,,,,,,0,,,96,101
38160,note_on,0,0,3,,,,,,,,,2,,,29,101
38160,note_on,0,0,3,,,,,,,,,2,,,33,0
38160,note_on,0,0,3,,,,,,,,,2,,,33,101
38160,note_on,0,0,3,,,,,,,,,2,,,36,0
38160,note_on,0,0,3,,,,,,,,,2,,,36,101
38160,note_on,0,0,3,,,,,,,,,2,,,41,0
38160,note_on,0,0,3,,,,,,,,,2,,,41,101
38160,note_on,0,0,1,,,,,,,,,0,,,101,101
38160,note_on,40,0,3,,,,,,,,,2,,,45,0
38160,note_on,1,0,1,,,,,,,,,0,,,89,101
38280,note_on,0,0,3,,,,,,,,,2,,,33,0
38280,note_on,120,0,1,,,,,,,,,0,,,101,0
38280,note_on,0,0,1,,,,,,,,,0,,,89,0
38280,note_on,0,0,1,,,,,,,,,0,,,93,0
38280,note_on,0,0,1,,,,,,,,,0,,,96,0
38280,note_on,120,0,3,,,,,,,,,2,,,41,0
38280,note_on,0,0,3,,,,,,,,,2,,,29,0
38280,note_on,0,0,3,,,,,,,,,2,,,36,0
38400,note_on,120,0,1,,,,,,,,,0,,,69,101
38400,note_on,0,0,1,,,,,,,,,0,,,72,101
38400,note_on,0,0,1,,,,,,,,,0,,,81,101
38400,note_on,120,0,3,,,,,,,,,2,,,53,101
38400,note_on,0,0,3,,,,,,,,,2,,,60,101
38400,note_on,0,0,3,,,,,,,,,2,,,65,101
38424,note_on,24,0,3,,,,,,,,,2,,,65,0
38424,note_on,24,0,1,,,,,,,,,0,,,81,0
38424,note_on,0,0,3,,,,,,,,,2,,,53,0
38424,note_on,0,0,3,,,,,,,,,2,,,60,0
38424,note_on,0,0,1,,,,,,,,,0,,,69,0
38424,note_on,0,0,1,,,,,,,,,0,,,72,0
38640,note_on,216,0,1,,,,,,,,,0,,,53,127
38640,note_on,0,0,1,,,,,,,,,0,,,57,127
38640,note_on,0,0,1,,,,,,,,,0,,,65,127
38640,note_on,0,0,3,,,,,,,,,2,,,48,127
38640,note_on,216,0,3,,,,,,,,,2,,,41,127
39120,end_of_track,0,1,3,,,,,,,,,,,,,
39120,note_on,480,0,3,,,,,,,,,2,,,48,0
39120,note_on,0,0,1,,,,,,,,,0,,,57,0
39120,note_on,0,0,3,,,,,,,,,2,,,41,0
39120,note_on,0,0,1,,,,,,,,,0,,,53,0
39120,note_on,480,0,1,,,,,,,,,0,,,65,0
39480,note_on,0,0,1,,,,,,,,,0,,,89,0
39480,note_on,360,0,1,,,,,,,,,0,,,89,0
39600,note_on,120,0,1,,,,,,,,,0,,,89,0
39600,note_on,0,0,1,,,,,,,,,0,,,89,0
39600,end_of_track,0,1,1,,,,,,,,,,,,,
