tick,type,time,meta,track,numerator,denominator,clocks_per_click,notated_32nd_notes_per_beat,key,tempo,port,program,channel,control,value,note,velocity
0,control_change,0,0,1,,,,,,,,,0,7,127,,
0,control_change,0,0,2,,,,,,,,,1,64,127,,
0,control_change,0,0,3,,,,,,,,,2,7,127,,
0,control_change,0,0,3,,,,,,,,,2,10,30,,
0,control_change,0,0,3,,,,,,,,,2,64,127,,
0,control_change,0,0,4,,,,,,,,,3,7,127,,
0,control_change,0,0,4,,,,,,,,,3,10,30,,
0,control_change,0,0,4,,,,,,,,,3,64,127,,
0,copyright,0,1,0,,,,,,,,,,,,,
0,key_signature,0,1,0,,,,,Bb,,,,,,,,
0,midi_port,0,1,1,,,,,,,0,,,,,,
0,midi_port,0,1,2,,,,,,,0,,,,,,
0,midi_port,0,1,3,,,,,,,0,,,,,,
0,control_change,0,0,2,,,,,,,,,1,10,97,,
0,midi_port,0,1,4,,,,,,,0,,,,,,
0,note_on,0,0,4,,,,,,,,,3,,,46,36
0,track_name,0,1,3,,,,,,,,,,,,,
0,program_change,0,0,1,,,,,,,,0,0,,,,
0,program_change,0,0,2,,,,,,,,0,1,,,,
0,program_change,0,0,3,,,,,,,,0,2,,,,
0,program_change,0,0,4,,,,,,,,0,3,,,,
0,set_tempo,0,1,0,,,,,,2068966,,,,,,,
0,text,0,1,0,,,,,,,,,,,,,
0,time_signature,0,1,0,4,4,24,8,,,,,,,,,
0,track_name,0,1,0,,,,,,,,,,,,,
0,track_name,0,1,1,,,,,,,,,,,,,
0,track_name,0,1,2,,,,,,,,,,,,,
0,note_on,0,0,4,,,,,,,,,3,,,34,36
0,control_change,0,0,2,,,,,,,,,1,7,127,,
0,track_name,0,1,4,,,,,,,,,,,,,
0,control_change,0,0,1,,,,,,,,,0,10,97,,
0,control_change,0,0,1,,,,,,,,,0,64,127,,
20,note_on,20,0,3,,,,,,,,,2,,,53,36
20,note_on,0,0,1,,,,,,,,,0,,,65,49
20,note_on,20,0,1,,,,,,,,,0,,,62,49
20,note_on,0,0,3,,,,,,,,,2,,,58,36
24,note_on,4,0,3,,,,,,,,,2,,,58,0
24,note_on,0,0,3,,,,,,,,,2,,,53,0
24,note_on,4,0,1,,,,,,,,,0,,,65,0
24,note_on,0,0,1,,,,,,,,,0,,,62,0
39,note_on,0,0,1,,,,,,,,,0,,,70,49
39,note_on,15,0,3,,,,,,,,,2,,,50,36
39,note_on,15,0,1,,,,,,,,,0,,,65,49
39,note_on,0,0,3,,,,,,,,,2,,,53,36
43,note_on,4,0,3,,,,,,,,,2,,,53,0
43,note_on,0,0,1,,,,,,,,,0,,,65,0
43,note_on,0,0,3,,,,,,,,,2,,,50,0
43,note_on,4,0,1,,,,,,,,,0,,,70,0
60,note_on,0,0,1,,,,,,,,,0,,,74,49
60,note_on,0,0,4,,,,,,,,,3,,,53,36
60,note_on,60,0,2,,,,,,,,,1,,,62,75
60,note_on,17,0,3,,,,,,,,,2,,,58,36
60,note_on,60,0,4,,,,,,,,,3,,,46,0
60,note_on,0,0,4,,,,,,,,,3,,,34,0
60,note_on,17,0,1,,,,,,,,,0,,,65,49
64,note_on,4,0,1,,,,,,,,,0,,,74,0
64,note_on,4,0,3,,,,,,,,,2,,,58,0
64,note_on,0,0,1,,,,,,,,,0,,,65,0
80,note_on,0,0,3,,,,,,,,,2,,,62,36
80,note_on,16,0,3,,,,,,,,,2,,,58,36
80,note_on,16,0,1,,,,,,,,,0,,,65,49
80,note_on,0,0,1,,,,,,,,,0,,,70,49
84,note_on,4,0,3,,,,,,,,,2,,,62,0
84,note_on,0,0,3,,,,,,,,,2,,,58,0
84,note_on,4,0,1,,,,,,,,,0,,,70,0
84,note_on,0,0,1,,,,,,,,,0,,,65,0
99,note_on,15,0,1,,,,,,,,,0,,,62,49
99,note_on,15,0,3,,,,,,,,,2,,,53,36
99,note_on,0,0,1,,,,,,,,,0,,,65,49
99,note_on,0,0,3,,,,,,,,,2,,,58,36
103,note_on,4,0,3,,,,,,,,,2,,,58,0
103,note_on,0,0,3,,,,,,,,,2,,,53,0
103,note_on,4,0,1,,,,,,,,,0,,,65,0
103,note_on,0,0,1,,,,,,,,,0,,,62,0
120,note_on,60,0,2,,,,,,,,,1,,,62,0
120,note_on,60,0,4,,,,,,,,,3,,,53,0
120,note_on,0,0,4,,,,,,,,,3,,,34,49
120,note_on,0,0,4,,,,,,,,,3,,,46,49
140,note_on,0,0,3,,,,,,,,,2,,,58,49
140,note_on,37,0,3,,,,,,,,,2,,,53,49
140,note_on,0,0,1,,,,,,,,,0,,,65,62
140,note_on,37,0,1,,,,,,,,,0,,,62,62
144,note_on,4,0,1,,,,,,,,,0,,,65,0
144,note_on,4,0,3,,,,,,,,,2,,,58,0
144,note_on,0,0,1,,,,,,,,,0,,,62,0
144,note_on,0,0,3,,,,,,,,,2,,,53,0
159,note_on,15,0,3,,,,,,,,,2,,,50,49
159,note_on,0,0,1,,,,,,,,,0,,,70,62
159,note_on,0,0,3,,,,,,,,,2,,,53,49
159,note_on,15,0,1,,,,,,,,,0,,,65,62
163,note_on,4,0,1,,,,,,,,,0,,,70,0
163,note_on,4,0,3,,,,,,,,,2,,,53,0
163,note_on,0,0,1,,,,,,,,,0,,,65,0
163,note_on,0,0,3,,,,,,,,,2,,,50,0
180,note_on,60,0,4,,,,,,,,,3,,,46,0
180,note_on,0,0,1,,,,,,,,,0,,,74,62
180,note_on,0,0,4,,,,,,,,,3,,,53,49
180,note_on,17,0,1,,,,,,,,,0,,,65,62
180,note_on,17,0,3,,,,,,,,,2,,,58,49
180,note_on,0,0,4,,,,,,,,,3,,,34,0
180,note_on,60,0,2,,,,,,,,,1,,,62,88
184,note_on,4,0,1,,,,,,,,,0,,,74,0
184,note_on,0,0,1,,,,,,,,,0,,,65,0
184,note_on,4,0,3,,,,,,,,,2,,,58,0
200,note_on,16,0,1,,,,,,,,,0,,,65,62
200,note_on,0,0,1,,,,,,,,,0,,,70,62
200,note_on,16,0,3,,,,,,,,,2,,,58,49
200,note_on,0,0,3,,,,,,,,,2,,,62,49
204,note_on,0,0,3,,,,,,,,,2,,,58,0
204,note_on,4,0,1,,,,,,,,,0,,,70,0
204,note_on,4,0,3,,,,,,,,,2,,,62,0
204,note_on,0,0,1,,,,,,,,,0,,,65,0
219,note_on,0,0,3,,,,,,,,,2,,,58,49
219,note_on,15,0,1,,,,,,,,,0,,,62,62
219,note_on,0,0,1,,,,,,,,,0,,,65,62
219,note_on,15,0,3,,,,,,,,,2,,,53,49
223,note_on,4,0,1,,,,,,,,,0,,,65,0
223,note_on,0,0,3,,,,,,,,,2,,,53,0
223,note_on,0,0,1,,,,,,,,,0,,,62,0
223,note_on,4,0,3,,,,,,,,,2,,,58,0
240,note_on,0,0,4,,,,,,,,,3,,,34,62
240,note_on,0,0,4,,,,,,,,,3,,,46,62
240,note_on,60,0,2,,,,,,,,,1,,,62,0
240,note_on,60,0,4,,,,,,,,,3,,,53,0
260,note_on,0,0,1,,,,,,,,,0,,,70,75
260,note_on,37,0,3,,,,,,,,,2,,,58,62
260,note_on,0,0,3,,,,,,,,,2,,,62,62
260,note_on,37,0,1,,,,,,,,,0,,,65,75
264,note_on,0,0,3,,,,,,,,,2,,,58,0
264,note_on,0,0,1,,,,,,,,,0,,,65,0
264,note_on,4,0,3,,,,,,,,,2,,,62,0
264,note_on,4,0,1,,,,,,,,,0,,,70,0
279,note_on,0,0,1,,,,,,,,,0,,,74,75
279,note_on,15,0,3,,,,,,,,,2,,,53,62
279,note_on,15,0,1,,,,,,,,,0,,,70,75
279,note_on,0,0,3,,,,,,,,,2,,,58,62
283,note_on,0,0,1,,,,,,,,,0,,,70,0
283,note_on,0,0,3,,,,,,,,,2,,,53,0
283,note_on,4,0,1,,,,,,,,,0,,,74,0
283,note_on,4,0,3,,,,,,,,,2,,,58,0
300,note_on,0,0,1,,,,,,,,,0,,,77,75
300,note_on,17,0,3,,,,,,,,,2,,,62,62
300,note_on,60,0,2,,,,,,,,,1,,,65,101
300,note_on,60,0,4,,,,,,,,,3,,,46,0
300,note_on,17,0,1,,,,,,,,,0,,,70,75
300,note_on,0,0,4,,,,,,,,,3,,,58,62
300,note_on,0,0,4,,,,,,,,,3,,,34,0
304,note_on,0,0,1,,,,,,,,,0,,,70,0
304,note_on,4,0,3,,,,,,,,,2,,,62,0
304,note_on,4,0,1,,,,,,,,,0,,,77,0
320,note_on,16,0,1,,,,,,,,,0,,,70,75
320,note_on,16,0,3,,,,,,,,,2,,,62,62
320,note_on,0,0,1,,,,,,,,,0,,,74,75
320,note_on,0,0,3,,,,,,,,,2,,,65,62
324,note_on,0,0,3,,,,,,,,,2,,,62,0
324,note_on,4,0,3,,,,,,,,,2,,,65,0
324,note_on,0,0,1,,,,,,,,,0,,,70,0
324,note_on,4,0,1,,,,,,,,,0,,,74,0
339,note_on,0,0,3,,,,,,,,,2,,,62,62
339,note_on,15,0,1,,,,,,,,,0,,,65,75
339,note_on,15,0,3,,,,,,,,,2,,,58,62
339,note_on,0,0,1,,,,,,,,,0,,,70,75
343,note_on,0,0,1,,,,,,,,,0,,,65,0
343,note_on,4,0,3,,,,,,,,,2,,,62,0
343,note_on,4,0,1,,,,,,,,,0,,,70,0
343,note_on,0,0,3,,,,,,,,,2,,,58,0
360,note_on,0,0,4,,,,,,,,,3,,,34,75
360,note_on,60,0,4,,,,,,,,,3,,,58,0
360,note_on,60,0,2,,,,,,,,,1,,,65,0
360,note_on,0,0,4,,,,,,,,,3,,,46,75
380,note_on,37,0,1,,,,,,,,,0,,,68,88
380,note_on,0,0,1,,,,,,,,,0,,,74,88
380,note_on,37,0,3,,,,,,,,,2,,,58,75
380,note_on,0,0,3,,,,,,,,,2,,,65,75
384,note_on,0,0,1,,,,,,,,,0,,,68,0
384,note_on,4,0,3,,,,,,,,,2,,,65,0
384,note_on,0,0,3,,,,,,,,,2,,,58,0
384,note_on,4,0,1,,,,,,,,,0,,,74,0
399,note_on,0,0,1,,,,,,,,,0,,,77,88
399,note_on,15,0,1,,,,,,,,,0,,,74,88
399,note_on,15,0,3,,,,,,,,,2,,,58,75
403,note_on,4,0,1,,,,,,,,,0,,,77,0
403,note_on,0,0,1,,,,,,,,,0,,,74,0
403,note_on,4,0,3,,,,,,,,,2,,,58,0
420,control_change,0,0,4,,,,,,,,,3,64,0,,
420,note_on,0,0,2,,,,,,,,,1,,,68,114
420,note_on,0,0,4,,,,,,,,,3,,,56,75
420,note_on,0,0,4,,,,,,,,,3,,,34,0
420,note_on,0,0,1,,,,,,,,,0,,,80,88
420,note_on,17,0,1,,,,,,,,,0,,,74,88
420,note_on,0,0,3,,,,,,,,,2,,,65,75
420,note_on,60,0,4,,,,,,,,,3,,,46,0
420,note_on,17,0,3,,,,,,,,,2,,,58,75
420,control_change,60,0,2,,,,,,,,,1,64,0,,
424,note_on,0,0,1,,,,,,,,,0,,,74,0
424,note_on,0,0,3,,,,,,,,,2,,,58,0
424,note_on,4,0,3,,,,,,,,,2,,,65,0
424,note_on,4,0,1,,,,,,,,,0,,,80,0
440,note_on,16,0,3,,,,,,,,,2,,,65,75
440,note_on,0,0,1,,,,,,,,,0,,,77,88
440,note_on,16,0,1,,,,,,,,,0,,,74,88
440,note_on,0,0,3,,,,,,,,,2,,,68,75
444,note_on,4,0,3,,,,,,,,,2,,,68,0
444,note_on,0,0,1,,,,,,,,,0,,,74,0
444,note_on,4,0,1,,,,,,,,,0,,,77,0
444,note_on,0,0,3,,,,,,,,,2,,,65,0
459,note_on,0,0,1,,,,,,,,,0,,,74,88
459,note_on,0,0,1,,,,,,,,,0,,,68,88
459,note_on,0,0,3,,,,,,,,,2,,,65,75
459,control_change,15,0,3,,,,,,,,,2,64,0,,
459,control_change,15,0,1,,,,,,,,,0,64,0,,
459,note_on,0,0,3,,,,,,,,,2,,,58,75
479,note_on,20,0,3,,,,,,,,,2,,,65,0
479,note_on,20,0,1,,,,,,,,,0,,,74,0
479,note_on,0,0,1,,,,,,,,,0,,,68,0
479,note_on,0,0,3,,,,,,,,,2,,,58,0
480,note_on,60,0,2,,,,,,,,,1,,,68,0
480,control_change,1,0,1,,,,,,,,,0,64,127,,
480,note_on,0,0,4,,,,,,,,,3,,,34,62
480,control_change,1,0,3,,,,,,,,,2,64,127,,
480,note_on,60,0,4,,,,,,,,,3,,,56,0
480,note_on,0,0,4,,,,,,,,,3,,,46,62
500,note_on,0,0,1,,,,,,,,,0,,,70,75
500,note_on,20,0,3,,,,,,,,,2,,,58,62
500,note_on,20,0,1,,,,,,,,,0,,,67,75
500,note_on,0,0,3,,,,,,,,,2,,,63,62
504,note_on,0,0,1,,,,,,,,,0,,,67,0
504,note_on,0,0,3,,,,,,,,,2,,,58,0
504,note_on,4,0,3,,,,,,,,,2,,,63,0
504,note_on,4,0,1,,,,,,,,,0,,,70,0
519,note_on,0,0,1,,,,,,,,,0,,,75,75
519,note_on,15,0,1,,,,,,,,,0,,,70,75
519,note_on,0,0,3,,,,,,,,,2,,,58,62
519,note_on,15,0,3,,,,,,,,,2,,,55,62
523,note_on,0,0,1,,,,,,,,,0,,,70,0
523,note_on,4,0,3,,,,,,,,,2,,,58,0
523,note_on,0,0,3,,,,,,,,,2,,,55,0
523,note_on,4,0,1,,,,,,,,,0,,,75,0
540,note_on,0,0,4,,,,,,,,,3,,,34,0
540,note_on,60,0,4,,,,,,,,,3,,,46,0
540,note_on,0,0,1,,,,,,,,,0,,,79,75
540,note_on,17,0,1,,,,,,,,,0,,,70,75
540,note_on,0,0,4,,,,,,,,,3,,,58,62
540,note_on,60,0,2,,,,,,,,,1,,,67,101
540,note_on,17,0,3,,,,,,,,,2,,,63,62
544,note_on,4,0,3,,,,,,,,,2,,,63,0
544,note_on,0,0,1,,,,,,,,,0,,,70,0
544,note_on,4,0,1,,,,,,,,,0,,,79,0
560,note_on,0,0,1,,,,,,,,,0,,,75,75
560,note_on,16,0,3,,,,,,,,,2,,,63,62
560,note_on,16,0,1,,,,,,,,,0,,,70,75
560,note_on,0,0,3,,,,,,,,,2,,,67,62
564,note_on,0,0,3,,,,,,,,,2,,,63,0
564,note_on,4,0,3,,,,,,,,,2,,,67,0
564,note_on,4,0,1,,,,,,,,,0,,,75,0
564,note_on,0,0,1,,,,,,,,,0,,,70,0
579,note_on,0,0,1,,,,,,,,,0,,,70,75
579,control_change,15,0,3,,,,,,,,,2,64,0,,
579,control_change,15,0,1,,,,,,,,,0,64,0,,
579,note_on,0,0,3,,,,,,,,,2,,,63,62
579,note_on,0,0,3,,,,,,,,,2,,,58,62
579,note_on,0,0,1,,,,,,,,,0,,,67,75
599,note_on,0,0,1,,,,,,,,,0,,,67,0
599,note_on,20,0,3,,,,,,,,,2,,,63,0
599,note_on,20,0,1,,,,,,,,,0,,,70,0
599,note_on,0,0,3,,,,,,,,,2,,,58,0
600,note_on,60,0,2,,,,,,,,,1,,,67,0
600,control_change,1,0,1,,,,,,,,,0,64,127,,
600,control_change,1,0,3,,,,,,,,,2,64,127,,
600,note_on,0,0,4,,,,,,,,,3,,,46,49
600,note_on,0,0,4,,,,,,,,,3,,,34,49
600,note_on,60,0,4,,,,,,,,,3,,,58,0
620,note_on,20,0,1,,,,,,,,,0,,,66,62
620,note_on,0,0,3,,,,,,,,,2,,,63,49
620,note_on,20,0,3,,,,,,,,,2,,,60,49
620,note_on,0,0,1,,,,,,,,,0,,,69,62
624,note_on,4,0,1,,,,,,,,,0,,,69,0
624,note_on,4,0,3,,,,,,,,,2,,,63,0
624,note_on,0,0,1,,,,,,,,,0,,,66,0
624,note_on,0,0,3,,,,,,,,,2,,,60,0
639,note_on,0,0,1,,,,,,,,,0,,,75,62
639,note_on,0,0,3,,,,,,,,,2,,,60,49
639,note_on,15,0,1,,,,,,,,,0,,,69,62
639,note_on,15,0,3,,,,,,,,,2,,,54,49
643,note_on,0,0,3,,,,,,,,,2,,,54,0
643,note_on,4,0,1,,,,,,,,,0,,,75,0
643,note_on,4,0,3,,,,,,,,,2,,,60,0
643,note_on,0,0,1,,,,,,,,,0,,,69,0
660,note_on,60,0,4,,,,,,,,,3,,,46,0
660,note_on,0,0,1,,,,,,,,,0,,,78,62
660,note_on,0,0,4,,,,,,,,,3,,,34,0
660,note_on,0,0,4,,,,,,,,,3,,,60,49
660,note_on,17,0,3,,,,,,,,,2,,,63,49
660,note_on,17,0,1,,,,,,,,,0,,,69,62
660,note_on,60,0,2,,,,,,,,,1,,,66,88
664,note_on,4,0,3,,,,,,,,,2,,,63,0
664,note_on,0,0,1,,,,,,,,,0,,,69,0
664,note_on,4,0,1,,,,,,,,,0,,,78,0
680,note_on,0,0,1,,,,,,,,,0,,,75,62
680,note_on,0,0,3,,,,,,,,,2,,,66,49
680,note_on,16,0,1,,,,,,,,,0,,,69,62
680,note_on,16,0,3,,,,,,,,,2,,,60,49
684,note_on,4,0,3,,,,,,,,,2,,,66,0
684,note_on,0,0,3,,,,,,,,,2,,,60,0
684,note_on,0,0,1,,,,,,,,,0,,,69,0
684,note_on,4,0,1,,,,,,,,,0,,,75,0
699,note_on,0,0,3,,,,,,,,,2,,,63,49
699,note_on,0,0,3,,,,,,,,,2,,,60,49
699,control_change,15,0,1,,,,,,,,,0,64,0,,
699,note_on,0,0,1,,,,,,,,,0,,,69,62
699,control_change,15,0,3,,,,,,,,,2,64,0,,
699,note_on,0,0,1,,,,,,,,,0,,,66,62
719,note_on,0,0,1,,,,,,,,,0,,,66,0
719,note_on,20,0,3,,,,,,,,,2,,,63,0
719,note_on,0,0,3,,,,,,,,,2,,,60,0
719,note_on,20,0,1,,,,,,,,,0,,,69,0
720,note_on,0,0,4,,,,,,,,,3,,,46,36
720,note_on,60,0,4,,,,,,,,,3,,,60,0
720,note_on,60,0,2,,,,,,,,,1,,,66,0
720,note_on,0,0,4,,,,,,,,,3,,,34,36
720,control_change,0,0,2,,,,,,,,,1,64,127,,
720,control_change,1,0,3,,,,,,,,,2,64,127,,
720,control_change,1,0,1,,,,,,,,,0,64,127,,
720,control_change,0,0,4,,,,,,,,,3,64,127,,
740,note_on,20,0,1,,,,,,,,,0,,,65,36
740,note_on,0,0,1,,,,,,,,,0,,,70,36
740,note_on,20,0,3,,,,,,,,,2,,,58,36
740,note_on,0,0,3,,,,,,,,,2,,,62,36
744,note_on,0,0,3,,,,,,,,,2,,,58,0
744,note_on,0,0,1,,,,,,,,,0,,,65,0
744,note_on,4,0,1,,,,,,,,,0,,,70,0
744,note_on,4,0,3,,,,,,,,,2,,,62,0
759,note_on,0,0,3,,,,,,,,,2,,,58,36
759,note_on,0,0,1,,,,,,,,,0,,,74,36
759,note_on,15,0,1,,,,,,,,,0,,,70,36
759,note_on,15,0,3,,,,,,,,,2,,,53,36
763,note_on,4,0,1,,,,,,,,,0,,,74,0
763,note_on,0,0,1,,,,,,,,,0,,,70,0
763,note_on,4,0,3,,,,,,,,,2,,,58,0
763,note_on,0,0,3,,,,,,,,,2,,,53,0
780,note_on,60,0,4,,,,,,,,,3,,,46,0
780,note_on,0,0,4,,,,,,,,,3,,,34,0
780,note_on,0,0,4,,,,,,,,,3,,,58,36
780,note_on,0,0,1,,,,,,,,,0,,,77,36
780,note_on,60,0,2,,,,,,,,,1,,,65,62
780,note_on,17,0,1,,,,,,,,,0,,,70,36
780,note_on,17,0,3,,,,,,,,,2,,,62,36
784,note_on,4,0,3,,,,,,,,,2,,,62,0
784,note_on,4,0,1,,,,,,,,,0,,,77,0
784,note_on,0,0,1,,,,,,,,,0,,,70,0
800,note_on,0,0,3,,,,,,,,,2,,,65,36
800,note_on,16,0,3,,,,,,,,,2,,,62,36
800,note_on,0,0,1,,,,,,,,,0,,,74,36
800,note_on,16,0,1,,,,,,,,,0,,,70,36
804,note_on,4,0,1,,,,,,,,,0,,,74,0
804,note_on,0,0,1,,,,,,,,,0,,,70,0
804,note_on,0,0,3,,,,,,,,,2,,,62,0
804,note_on,4,0,3,,,,,,,,,2,,,65,0
819,note_on,0,0,1,,,,,,,,,0,,,70,36
819,note_on,15,0,3,,,,,,,,,2,,,58,36
819,note_on,0,0,3,,,,,,,,,2,,,62,36
819,note_on,15,0,1,,,,,,,,,0,,,65,36
823,note_on,0,0,3,,,,,,,,,2,,,58,0
823,note_on,4,0,3,,,,,,,,,2,,,62,0
823,note_on,4,0,1,,,,,,,,,0,,,70,0
823,note_on,0,0,1,,,,,,,,,0,,,65,0
840,note_on,60,0,2,,,,,,,,,1,,,65,0
840,note_on,60,0,4,,,,,,,,,3,,,58,0
840,note_on,0,0,4,,,,,,,,,3,,,34,36
840,note_on,0,0,4,,,,,,,,,3,,,46,36
855,set_tempo,855,1,0,,,,,,2142857,,,,,,,
860,note_on,37,0,3,,,,,,,,,2,,,53,36
860,note_on,0,0,3,,,,,,,,,2,,,58,36
860,note_on,37,0,1,,,,,,,,,0,,,62,36
860,note_on,0,0,1,,,,,,,,,0,,,65,36
864,note_on,0,0,1,,,,,,,,,0,,,62,0
864,note_on,0,0,3,,,,,,,,,2,,,53,0
864,note_on,4,0,3,,,,,,,,,2,,,58,0
864,note_on,4,0,1,,,,,,,,,0,,,65,0
870,set_tempo,15,1,0,,,,,,2307692,,,,,,,
879,note_on,0,0,1,,,,,,,,,0,,,70,36
879,note_on,15,0,3,,,,,,,,,2,,,50,36
879,note_on,0,0,3,,,,,,,,,2,,,53,36
879,note_on,15,0,1,,,,,,,,,0,,,65,36
883,note_on,4,0,1,,,,,,,,,0,,,70,0
883,note_on,0,0,3,,,,,,,,,2,,,50,0
883,note_on,0,0,1,,,,,,,,,0,,,65,0
883,note_on,4,0,3,,,,,,,,,2,,,53,0
885,set_tempo,15,1,0,,,,,,2500000,,,,,,,
900,note_on,0,0,4,,,,,,,,,3,,,34,0
900,note_on,17,0,1,,,,,,,,,0,,,65,36
900,note_on,60,0,4,,,,,,,,,3,,,46,0
900,control_change,60,0,2,,,,,,,,,1,64,0,,
900,note_on,0,0,1,,,,,,,,,0,,,74,36
900,control_change,0,0,4,,,,,,,,,3,64,0,,
900,note_on,0,0,4,,,,,,,,,3,,,53,36
900,set_tempo,15,1,0,,,,,,2727273,,,,,,,
900,note_on,17,0,3,,,,,,,,,2,,,58,36
900,note_on,0,0,2,,,,,,,,,1,,,62,62
904,note_on,4,0,1,,,,,,,,,0,,,74,0
904,note_on,4,0,3,,,,,,,,,2,,,58,0
904,note_on,0,0,1,,,,,,,,,0,,,65,0
915,set_tempo,15,1,0,,,,,,3000000,,,,,,,
920,note_on,0,0,3,,,,,,,,,2,,,62,36
920,note_on,16,0,1,,,,,,,,,0,,,65,36
920,note_on,16,0,3,,,,,,,,,2,,,58,36
920,note_on,0,0,1,,,,,,,,,0,,,70,36
924,note_on,0,0,3,,,,,,,,,2,,,58,0
924,note_on,4,0,3,,,,,,,,,2,,,62,0
924,note_on,4,0,1,,,,,,,,,0,,,70,0
924,note_on,0,0,1,,,,,,,,,0,,,65,0
930,set_tempo,15,1,0,,,,,,3333333,,,,,,,
939,note_on,0,0,1,,,,,,,,,0,,,65,36
939,note_on,0,0,3,,,,,,,,,2,,,58,36
939,note_on,0,0,3,,,,,,,,,2,,,53,36
939,note_on,0,0,1,,,,,,,,,0,,,62,36
939,control_change,15,0,3,,,,,,,,,2,64,0,,
939,control_change,15,0,1,,,,,,,,,0,64,0,,
945,set_tempo,15,1,0,,,,,,3750000,,,,,,,
959,note_on,0,0,3,,,,,,,,,2,,,53,0
959,note_on,20,0,3,,,,,,,,,2,,,58,0
959,note_on,0,0,1,,,,,,,,,0,,,62,0
959,note_on,20,0,1,,,,,,,,,0,,,65,0
960,note_on,60,0,4,,,,,,,,,3,,,53,0
960,note_on,0,0,2,,,,,,,,,1,,,58,101
960,note_on,0,0,4,,,,,,,,,3,,,34,36
960,note_on,60,0,2,,,,,,,,,1,,,62,0
960,set_tempo,15,1,0,,,,,,2142857,,,,,,,
960,control_change,1,0,1,,,,,,,,,0,64,127,,
960,control_change,1,0,3,,,,,,,,,2,64,127,,
960,note_on,0,0,4,,,,,,,,,3,,,46,36
980,note_on,0,0,1,,,,,,,,,0,,,65,36
980,note_on,0,0,3,,,,,,,,,2,,,58,36
980,note_on,20,0,1,,,,,,,,,0,,,62,36
980,note_on,20,0,3,,,,,,,,,2,,,53,36
984,note_on,0,0,1,,,,,,,,,0,,,62,0
984,note_on,4,0,1,,,,,,,,,0,,,65,0
984,note_on,4,0,3,,,,,,,,,2,,,58,0
984,note_on,0,0,3,,,,,,,,,2,,,53,0
999,note_on,15,0,1,,,,,,,,,0,,,65,36
999,note_on,15,0,3,,,,,,,,,2,,,50,36
999,note_on,0,0,3,,,,,,,,,2,,,53,36
999,note_on,0,0,1,,,,,,,,,0,,,70,36
1003,note_on,0,0,3,,,,,,,,,2,,,50,0
1003,note_on,4,0,1,,,,,,,,,0,,,70,0
1003,note_on,0,0,1,,,,,,,,,0,,,65,0
1003,note_on,4,0,3,,,,,,,,,2,,,53,0
1020,note_on,0,0,3,,,,,,,,,2,,,58,36
1020,note_on,0,0,1,,,,,,,,,0,,,74,36
1020,note_on,0,0,1,,,,,,,,,0,,,65,36
1020,note_on,17,0,1,,,,,,,,,0,,,62,36
1020,note_on,17,0,3,,,,,,,,,2,,,53,36
1024,note_on,4,0,1,,,,,,,,,0,,,74,0
1024,note_on,0,0,1,,,,,,,,,0,,,62,0
1024,note_on,4,0,3,,,,,,,,,2,,,58,0
1024,note_on,0,0,1,,,,,,,,,0,,,65,0
1024,note_on,0,0,3,,,,,,,,,2,,,53,0
1040,note_on,0,0,1,,,,,,,,,0,,,70,36
1040,note_on,16,0,1,,,,,,,,,0,,,65,36
1040,note_on,16,0,3,,,,,,,,,2,,,58,36
1040,note_on,0,0,3,,,,,,,,,2,,,62,36
1044,note_on,0,0,1,,,,,,,,,0,,,65,0
1044,note_on,4,0,1,,,,,,,,,0,,,70,0
1044,note_on,4,0,3,,,,,,,,,2,,,62,0
1044,note_on,0,0,3,,,,,,,,,2,,,58,0
1059,control_change,15,0,3,,,,,,,,,2,64,0,,
1059,note_on,0,0,1,,,,,,,,,0,,,62,36
1059,control_change,15,0,1,,,,,,,,,0,64,0,,
1059,note_on,0,0,1,,,,,,,,,0,,,65,36
1059,note_on,0,0,3,,,,,,,,,2,,,53,36
1059,note_on,0,0,3,,,,,,,,,2,,,58,36
1079,note_on,0,0,1,,,,,,,,,0,,,62,0
1079,note_on,0,0,3,,,,,,,,,2,,,53,0
1079,note_on,20,0,3,,,,,,,,,2,,,58,0
1079,note_on,20,0,1,,,,,,,,,0,,,65,0
1080,set_tempo,120,1,0,,,,,,2068966,,,,,,,
1080,note_on,0,0,4,,,,,,,,,3,,,34,0
1080,note_on,0,0,4,,,,,,,,,3,,,31,36
1080,note_on,0,0,4,,,,,,,,,3,,,43,36
1080,control_change,1,0,3,,,,,,,,,2,64,127,,
1080,note_on,120,0,4,,,,,,,,,3,,,46,0
1080,control_change,1,0,1,,,,,,,,,0,64,127,,
1100,note_on,0,0,3,,,,,,,,,2,,,58,36
1100,note_on,20,0,1,,,,,,,,,0,,,62,36
1100,note_on,20,0,3,,,,,,,,,2,,,52,36
1100,note_on,0,0,1,,,,,,,,,0,,,64,36
1104,note_on,4,0,3,,,,,,,,,2,,,58,0
1104,note_on,4,0,1,,,,,,,,,0,,,64,0
1104,note_on,0,0,3,,,,,,,,,2,,,52,0
1104,note_on,0,0,1,,,,,,,,,0,,,62,0
1119,note_on,15,0,3,,,,,,,,,2,,,50,36
1119,note_on,0,0,3,,,,,,,,,2,,,52,36
1119,note_on,0,0,1,,,,,,,,,0,,,70,36
1119,note_on,15,0,1,,,,,,,,,0,,,64,36
1123,note_on,0,0,1,,,,,,,,,0,,,64,0
1123,note_on,0,0,3,,,,,,,,,2,,,50,0
1123,note_on,4,0,1,,,,,,,,,0,,,70,0
1123,note_on,4,0,3,,,,,,,,,2,,,52,0
1140,note_on,180,0,2,,,,,,,,,1,,,58,0
1140,note_on,0,0,1,,,,,,,,,0,,,64,36
1140,note_on,0,0,1,,,,,,,,,0,,,74,36
1140,note_on,17,0,1,,,,,,,,,0,,,62,36
1140,note_on,0,0,2,,,,,,,,,1,,,57,101
1144,note_on,4,0,1,,,,,,,,,0,,,74,0
1144,note_on,0,0,1,,,,,,,,,0,,,62,0
1144,note_on,0,0,1,,,,,,,,,0,,,64,0
1160,note_on,37,0,3,,,,,,,,,2,,,50,36
1160,note_on,0,0,3,,,,,,,,,2,,,52,36
1160,note_on,16,0,1,,,,,,,,,0,,,64,36
1160,note_on,0,0,1,,,,,,,,,0,,,70,36
1164,note_on,0,0,3,,,,,,,,,2,,,50,0
1164,note_on,0,0,1,,,,,,,,,0,,,64,0
1164,note_on,4,0,1,,,,,,,,,0,,,70,0
1164,note_on,4,0,3,,,,,,,,,2,,,52,0
1170,note_on,30,0,2,,,,,,,,,1,,,57,0
1170,note_on,0,0,2,,,,,,,,,1,,,58,101
1179,note_on,0,0,3,,,,,,,,,2,,,58,36
1179,control_change,15,0,1,,,,,,,,,0,64,0,,
1179,note_on,0,0,1,,,,,,,,,0,,,64,36
1179,note_on,0,0,1,,,,,,,,,0,,,62,36
1179,control_change,15,0,3,,,,,,,,,2,64,0,,
1199,note_on,20,0,1,,,,,,,,,0,,,64,0
1199,note_on,20,0,3,,,,,,,,,2,,,58,0
1199,note_on,0,0,1,,,,,,,,,0,,,62,0
1200,note_on,30,0,2,,,,,,,,,1,,,58,0
1200,note_on,0,0,2,,,,,,,,,1,,,62,101
1200,control_change,1,0,3,,,,,,,,,2,64,127,,
1200,note_on,0,0,4,,,,,,,,,3,,,29,36
1200,control_change,1,0,1,,,,,,,,,0,64,127,,
1200,note_on,0,0,4,,,,,,,,,3,,,31,0
1200,note_on,120,0,4,,,,,,,,,3,,,43,0
1200,note_on,0,0,4,,,,,,,,,3,,,41,36
1220,note_on,20,0,3,,,,,,,,,2,,,53,36
1220,note_on,0,0,3,,,,,,,,,2,,,58,36
1220,note_on,20,0,1,,,,,,,,,0,,,62,36
1220,note_on,0,0,1,,,,,,,,,0,,,65,36
1224,note_on,0,0,3,,,,,,,,,2,,,53,0
1224,note_on,0,0,1,,,,,,,,,0,,,62,0
1224,note_on,4,0,1,,,,,,,,,0,,,65,0
1224,note_on,4,0,3,,,,,,,,,2,,,58,0
1239,note_on,0,0,3,,,,,,,,,2,,,53,36
1239,note_on,15,0,3,,,,,,,,,2,,,50,36
1239,note_on,0,0,1,,,,,,,,,0,,,70,36
1239,note_on,15,0,1,,,,,,,,,0,,,65,36
1243,note_on,0,0,3,,,,,,,,,2,,,50,0
1243,note_on,4,0,1,,,,,,,,,0,,,70,0
1243,note_on,0,0,1,,,,,,,,,0,,,65,0
1243,note_on,4,0,3,,,,,,,,,2,,,53,0
1260,note_on,17,0,3,,,,,,,,,2,,,53,36
1260,note_on,17,0,1,,,,,,,,,0,,,62,36
1260,note_on,0,0,1,,,,,,,,,0,,,74,36
1260,note_on,0,0,1,,,,,,,,,0,,,65,36
1260,note_on,0,0,3,,,,,,,,,2,,,58,36
1264,note_on,0,0,3,,,,,,,,,2,,,53,0
1264,note_on,4,0,3,,,,,,,,,2,,,58,0
1264,note_on,0,0,1,,,,,,,,,0,,,65,0
1264,note_on,4,0,1,,,,,,,,,0,,,74,0
1264,note_on,0,0,1,,,,,,,,,0,,,62,0
1280,note_on,0,0,3,,,,,,,,,2,,,62,36
1280,note_on,0,0,1,,,,,,,,,0,,,70,36
1280,note_on,16,0,1,,,,,,,,,0,,,65,36
1280,note_on,16,0,3,,,,,,,,,2,,,58,36
1284,note_on,4,0,3,,,,,,,,,2,,,62,0
1284,note_on,0,0,3,,,,,,,,,2,,,58,0
1284,note_on,0,0,1,,,,,,,,,0,,,65,0
1284,note_on,4,0,1,,,,,,,,,0,,,70,0
1299,note_on,0,0,3,,,,,,,,,2,,,53,36
1299,control_change,0,0,1,,,,,,,,,0,64,0,,
1299,control_change,15,0,1,,,,,,,,,0,64,0,,
1299,control_change,15,0,3,,,,,,,,,2,64,0,,
1299,note_on,0,0,3,,,,,,,,,2,,,58,36
1299,note_on,0,0,1,,,,,,,,,0,,,65,36
1299,note_on,0,0,1,,,,,,,,,0,,,62,36
1319,note_on,20,0,3,,,,,,,,,2,,,58,0
1319,note_on,20,0,1,,,,,,,,,0,,,65,0
1319,note_on,0,0,1,,,,,,,,,0,,,62,0
1319,note_on,0,0,3,,,,,,,,,2,,,53,0
1320,control_change,1,0,1,,,,,,,,,0,64,127,,
1320,note_on,0,0,4,,,,,,,,,3,,,29,36
1320,note_on,0,0,4,,,,,,,,,3,,,29,0
1320,control_change,1,0,3,,,,,,,,,2,64,127,,
1320,note_on,0,0,4,,,,,,,,,3,,,41,36
1320,note_on,120,0,4,,,,,,,,,3,,,41,0
1340,note_on,20,0,1,,,,,,,,,0,,,63,36
1340,note_on,0,0,3,,,,,,,,,2,,,57,36
1340,note_on,0,0,1,,,,,,,,,0,,,69,36
1340,note_on,20,0,3,,,,,,,,,2,,,53,36
1344,note_on,0,0,3,,,,,,,,,2,,,53,0
1344,note_on,4,0,1,,,,,,,,,0,,,69,0
1344,note_on,4,0,3,,,,,,,,,2,,,57,0
1344,note_on,0,0,1,,,,,,,,,0,,,63,0
1359,note_on,0,0,3,,,,,,,,,2,,,53,36
1359,note_on,15,0,3,,,,,,,,,2,,,51,36
1359,note_on,15,0,1,,,,,,,,,0,,,69,36
1359,note_on,0,0,1,,,,,,,,,0,,,72,36
1363,note_on,4,0,1,,,,,,,,,0,,,72,0
1363,note_on,0,0,3,,,,,,,,,2,,,51,0
1363,note_on,0,0,1,,,,,,,,,0,,,69,0
1363,note_on,4,0,3,,,,,,,,,2,,,53,0
1380,note_on,0,0,1,,,,,,,,,0,,,69,36
1380,note_on,17,0,3,,,,,,,,,2,,,53,36
1380,note_on,17,0,1,,,,,,,,,0,,,63,36
1380,note_on,0,0,2,,,,,,,,,1,,,60,101
1380,note_on,0,0,3,,,,,,,,,2,,,57,36
1380,note_on,180,0,2,,,,,,,,,1,,,62,0
1380,note_on,0,0,1,,,,,,,,,0,,,75,36
1384,note_on,4,0,3,,,,,,,,,2,,,57,0
1384,note_on,4,0,1,,,,,,,,,0,,,75,0
1384,note_on,0,0,1,,,,,,,,,0,,,69,0
1384,note_on,0,0,3,,,,,,,,,2,,,53,0
1384,note_on,0,0,1,,,,,,,,,0,,,63,0
1400,note_on,16,0,1,,,,,,,,,0,,,69,36
1400,note_on,0,0,1,,,,,,,,,0,,,72,36
1400,note_on,16,0,3,,,,,,,,,2,,,51,36
1400,note_on,0,0,3,,,,,,,,,2,,,53,36
1404,note_on,0,0,1,,,,,,,,,0,,,69,0
1404,note_on,0,0,3,,,,,,,,,2,,,51,0
1404,note_on,4,0,1,,,,,,,,,0,,,72,0
1404,note_on,4,0,3,,,,,,,,,2,,,53,0
1419,note_on,0,0,3,,,,,,,,,2,,,53,36
1419,control_change,15,0,3,,,,,,,,,2,64,0,,
1419,note_on,0,0,1,,,,,,,,,0,,,69,36
1419,note_on,0,0,1,,,,,,,,,0,,,63,36
1419,control_change,15,0,1,,,,,,,,,0,64,0,,
1419,note_on,0,0,3,,,,,,,,,2,,,57,36
1439,note_on,20,0,1,,,,,,,,,0,,,69,0
1439,note_on,0,0,1,,,,,,,,,0,,,63,0
1439,note_on,20,0,3,,,,,,,,,2,,,57,0
1439,note_on,0,0,3,,,,,,,,,2,,,53,0
1440,control_change,1,0,3,,,,,,,,,2,64,127,,
1440,note_on,0,0,4,,,,,,,,,3,,,31,36
1440,note_on,0,0,2,,,,,,,,,1,,,58,101
1440,note_on,60,0,2,,,,,,,,,1,,,60,0
1440,note_on,120,0,4,,,,,,,,,3,,,41,0
1440,control_change,1,0,1,,,,,,,,,0,64,127,,
1440,note_on,0,0,4,,,,,,,,,3,,,29,0
1440,note_on,0,0,4,,,,,,,,,3,,,43,36
1460,note_on,0,0,3,,,,,,,,,2,,,58,36
1460,note_on,20,0,3,,,,,,,,,2,,,55,36
1460,note_on,0,0,1,,,,,,,,,0,,,67,36
1460,note_on,20,0,1,,,,,,,,,0,,,62,36
1464,note_on,0,0,3,,,,,,,,,2,,,55,0
1464,note_on,4,0,1,,,,,,,,,0,,,67,0
1464,note_on,4,0,3,,,,,,,,,2,,,58,0
1464,note_on,0,0,1,,,,,,,,,0,,,62,0
1479,note_on,0,0,1,,,,,,,,,0,,,70,36
1479,note_on,0,0,3,,,,,,,,,2,,,55,36
1479,note_on,15,0,3,,,,,,,,,2,,,50,36
1479,note_on,15,0,1,,,,,,,,,0,,,67,36
1483,note_on,4,0,3,,,,,,,,,2,,,55,0
1483,note_on,0,0,1,,,,,,,,,0,,,67,0
1483,note_on,0,0,3,,,,,,,,,2,,,50,0
1483,note_on,4,0,1,,,,,,,,,0,,,70,0
1500,note_on,0,0,3,,,,,,,,,2,,,58,36
1500,note_on,17,0,1,,,,,,,,,0,,,62,36
1500,note_on,17,0,3,,,,,,,,,2,,,55,36
1500,note_on,0,0,1,,,,,,,,,0,,,67,36
1500,note_on,0,0,1,,,,,,,,,0,,,74,36
1504,note_on,4,0,3,,,,,,,,,2,,,58,0
1504,note_on,0,0,1,,,,,,,,,0,,,62,0
1504,note_on,0,0,1,,,,,,,,,0,,,67,0
1504,note_on,0,0,3,,,,,,,,,2,,,55,0
1504,note_on,4,0,1,,,,,,,,,0,,,74,0
1520,note_on,16,0,1,,,,,,,,,0,,,67,36
1520,note_on,0,0,3,,,,,,,,,2,,,62,36
1520,note_on,0,0,1,,,,,,,,,0,,,70,36
1520,note_on,16,0,3,,,,,,,,,2,,,58,36
1524,note_on,0,0,1,,,,,,,,,0,,,67,0
1524,note_on,0,0,3,,,,,,,,,2,,,58,0
1524,note_on,4,0,1,,,,,,,,,0,,,70,0
1524,note_on,4,0,3,,,,,,,,,2,,,62,0
1539,note_on,0,0,3,,,,,,,,,2,,,58,36
1539,note_on,0,0,1,,,,,,,,,0,,,67,36
1539,note_on,15,0,3,,,,,,,,,2,,,55,36
1539,note_on,15,0,1,,,,,,,,,0,,,62,36
1543,note_on,4,0,1,,,,,,,,,0,,,67,0
1543,note_on,0,0,1,,,,,,,,,0,,,62,0
1543,note_on,4,0,3,,,,,,,,,2,,,58,0
1543,note_on,0,0,3,,,,,,,,,2,,,55,0
1560,note_on,0,0,4,,,,,,,,,3,,,43,36
1560,note_on,0,0,4,,,,,,,,,3,,,31,36
1560,note_on,0,0,4,,,,,,,,,3,,,31,0
1560,note_on,120,0,2,,,,,,,,,1,,,58,0
1560,note_on,120,0,4,,,,,,,,,3,,,43,0
1580,note_on,0,0,1,,,,,,,,,0,,,67,36
1580,note_on,37,0,3,,,,,,,,,2,,,55,36
1580,note_on,0,0,3,,,,,,,,,2,,,58,36
1580,note_on,37,0,1,,,,,,,,,0,,,62,36
1584,note_on,0,0,3,,,,,,,,,2,,,55,0
1584,note_on,0,0,1,,,,,,,,,0,,,62,0
1584,note_on,4,0,3,,,,,,,,,2,,,58,0
1584,note_on,4,0,1,,,,,,,,,0,,,67,0
1599,note_on,15,0,3,,,,,,,,,2,,,50,36
1599,note_on,0,0,3,,,,,,,,,2,,,55,36
1599,note_on,0,0,1,,,,,,,,,0,,,70,36
1599,note_on,15,0,1,,,,,,,,,0,,,67,36
1603,note_on,0,0,1,,,,,,,,,0,,,67,0
1603,note_on,4,0,3,,,,,,,,,2,,,55,0
1603,note_on,4,0,1,,,,,,,,,0,,,70,0
1603,note_on,0,0,3,,,,,,,,,2,,,50,0
1620,note_on,0,0,1,,,,,,,,,0,,,74,36
1620,note_on,17,0,1,,,,,,,,,0,,,62,36
1620,note_on,0,0,3,,,,,,,,,2,,,58,36
1620,note_on,0,0,1,,,,,,,,,0,,,67,36
1620,note_on,17,0,3,,,,,,,,,2,,,55,36
1624,note_on,4,0,3,,,,,,,,,2,,,58,0
1624,note_on,0,0,3,,,,,,,,,2,,,55,0
1624,note_on,4,0,1,,,,,,,,,0,,,74,0
1624,note_on,0,0,1,,,,,,,,,0,,,67,0
1624,note_on,0,0,1,,,,,,,,,0,,,62,0
1640,note_on,0,0,1,,,,,,,,,0,,,70,36
1640,note_on,0,0,3,,,,,,,,,2,,,62,36
1640,note_on,16,0,1,,,,,,,,,0,,,67,36
1640,note_on,16,0,3,,,,,,,,,2,,,58,36
1644,note_on,4,0,1,,,,,,,,,0,,,70,0
1644,note_on,0,0,1,,,,,,,,,0,,,67,0
1644,note_on,0,0,3,,,,,,,,,2,,,58,0
1644,note_on,4,0,3,,,,,,,,,2,,,62,0
1659,control_change,15,0,3,,,,,,,,,2,64,0,,
1659,note_on,0,0,3,,,,,,,,,2,,,58,36
1659,note_on,0,0,3,,,,,,,,,2,,,55,36
1659,note_on,0,0,1,,,,,,,,,0,,,62,36
1659,note_on,0,0,1,,,,,,,,,0,,,67,36
1659,control_change,15,0,1,,,,,,,,,0,64,0,,
1679,note_on,20,0,1,,,,,,,,,0,,,67,0
1679,note_on,0,0,3,,,,,,,,,2,,,55,0
1679,note_on,0,0,1,,,,,,,,,0,,,62,0
1679,note_on,20,0,3,,,,,,,,,2,,,58,0
1680,note_on,0,0,4,,,,,,,,,3,,,39,36
1680,note_on,0,0,4,,,,,,,,,3,,,31,0
1680,note_on,0,0,4,,,,,,,,,3,,,27,36
1680,control_change,1,0,1,,,,,,,,,0,64,127,,
1680,note_on,120,0,4,,,,,,,,,3,,,43,0
1680,note_on,120,0,2,,,,,,,,,1,,,60,101
1680,control_change,1,0,3,,,,,,,,,2,64,127,,
1700,note_on,20,0,1,,,,,,,,,0,,,63,36
1700,note_on,20,0,3,,,,,,,,,2,,,55,36
1700,note_on,0,0,1,,,,,,,,,0,,,67,36
1700,note_on,0,0,3,,,,,,,,,2,,,60,36
1704,note_on,4,0,1,,,,,,,,,0,,,67,0
1704,note_on,4,0,3,,,,,,,,,2,,,60,0
1704,note_on,0,0,1,,,,,,,,,0,,,63,0
1704,note_on,0,0,3,,,,,,,,,2,,,55,0
1719,note_on,0,0,1,,,,,,,,,0,,,70,36
1719,note_on,15,0,3,,,,,,,,,2,,,51,36
1719,note_on,0,0,3,,,,,,,,,2,,,55,36
1719,note_on,15,0,1,,,,,,,,,0,,,67,36
1723,note_on,4,0,1,,,,,,,,,0,,,70,0
1723,note_on,4,0,3,,,,,,,,,2,,,55,0
1723,note_on,0,0,3,,,,,,,,,2,,,51,0
1723,note_on,0,0,1,,,,,,,,,0,,,67,0
1740,note_on,0,0,3,,,,,,,,,2,,,60,36
1740,note_on,17,0,3,,,,,,,,,2,,,55,36
1740,note_on,17,0,1,,,,,,,,,0,,,63,36
1740,note_on,0,0,1,,,,,,,,,0,,,67,36
1740,note_on,0,0,1,,,,,,,,,0,,,75,36
1744,note_on,4,0,1,,,,,,,,,0,,,75,0
1744,note_on,0,0,1,,,,,,,,,0,,,63,0
1744,note_on,4,0,3,,,,,,,,,2,,,60,0
1744,note_on,0,0,1,,,,,,,,,0,,,67,0
1744,note_on,0,0,3,,,,,,,,,2,,,55,0
1760,note_on,16,0,1,,,,,,,,,0,,,67,36
1760,note_on,16,0,3,,,,,,,,,2,,,60,36
1760,note_on,0,0,1,,,,,,,,,0,,,72,36
1760,note_on,0,0,3,,,,,,,,,2,,,63,36
1764,note_on,4,0,3,,,,,,,,,2,,,63,0
1764,note_on,4,0,1,,,,,,,,,0,,,72,0
1764,note_on,0,0,3,,,,,,,,,2,,,60,0
1764,note_on,0,0,1,,,,,,,,,0,,,67,0
1770,note_on,90,0,2,,,,,,,,,1,,,62,101
1779,note_on,0,0,3,,,,,,,,,2,,,60,36
1779,note_on,0,0,1,,,,,,,,,0,,,63,36
1779,note_on,0,0,1,,,,,,,,,0,,,67,36
1779,note_on,0,0,3,,,,,,,,,2,,,55,36
1779,control_change,15,0,3,,,,,,,,,2,64,0,,
1779,control_change,15,0,1,,,,,,,,,0,64,0,,
1785,note_on,0,0,2,,,,,,,,,1,,,60,101
1785,note_on,15,0,2,,,,,,,,,1,,,62,0
1799,note_on,0,0,1,,,,,,,,,0,,,63,0
1799,note_on,20,0,3,,,,,,,,,2,,,60,0
1799,note_on,0,0,3,,,,,,,,,2,,,55,0
1799,note_on,20,0,1,,,,,,,,,0,,,67,0
1800,note_on,120,0,4,,,,,,,,,3,,,39,0
1800,note_on,0,0,2,,,,,,,,,1,,,60,0
1800,note_on,0,0,2,,,,,,,,,1,,,58,101
1800,note_on,15,0,2,,,,,,,,,1,,,60,0
1800,control_change,1,0,3,,,,,,,,,2,64,127,,
1800,note_on,0,0,4,,,,,,,,,3,,,41,36
1800,control_change,1,0,1,,,,,,,,,0,64,127,,
1800,note_on,0,0,4,,,,,,,,,3,,,29,36
1800,note_on,0,0,4,,,,,,,,,3,,,27,0
1815,set_tempo,735,1,0,,,,,,2142857,,,,,,,
1820,note_on,0,0,1,,,,,,,,,0,,,65,36
1820,note_on,20,0,3,,,,,,,,,2,,,51,36
1820,note_on,0,0,3,,,,,,,,,2,,,53,36
1820,note_on,20,0,1,,,,,,,,,0,,,63,36
1824,note_on,0,0,3,,,,,,,,,2,,,51,0
1824,note_on,0,0,1,,,,,,,,,0,,,63,0
1824,note_on,4,0,1,,,,,,,,,0,,,65,0
1824,note_on,4,0,3,,,,,,,,,2,,,53,0
1830,note_on,0,0,2,,,,,,,,,1,,,57,101
1830,set_tempo,15,1,0,,,,,,2307692,,,,,,,
1830,note_on,30,0,2,,,,,,,,,1,,,58,0
1839,note_on,0,0,3,,,,,,,,,2,,,51,36
1839,note_on,0,0,1,,,,,,,,,0,,,69,36
1839,note_on,15,0,3,,,,,,,,,2,,,48,36
1839,note_on,15,0,1,,,,,,,,,0,,,65,36
1843,note_on,0,0,1,,,,,,,,,0,,,65,0
1843,note_on,4,0,3,,,,,,,,,2,,,51,0
1843,note_on,0,0,3,,,,,,,,,2,,,48,0
1843,note_on,4,0,1,,,,,,,,,0,,,69,0
1845,set_tempo,15,1,0,,,,,,2500000,,,,,,,
1860,note_on,0,0,1,,,,,,,,,0,,,65,36
1860,note_on,17,0,1,,,,,,,,,0,,,63,36
1860,note_on,17,0,3,,,,,,,,,2,,,53,36
1860,note_on,0,0,1,,,,,,,,,0,,,72,36
1860,set_tempo,15,1,0,,,,,,2727273,,,,,,,
1860,note_on,0,0,2,,,,,,,,,1,,,55,101
1860,note_on,30,0,2,,,,,,,,,1,,,57,0
1864,note_on,4,0,3,,,,,,,,,2,,,53,0
1864,note_on,0,0,1,,,,,,,,,0,,,65,0
1864,note_on,0,0,1,,,,,,,,,0,,,63,0
1864,note_on,4,0,1,,,,,,,,,0,,,72,0
1875,set_tempo,15,1,0,,,,,,3000000,,,,,,,
1880,note_on,16,0,1,,,,,,,,,0,,,65,36
1880,note_on,0,0,1,,,,,,,,,0,,,69,36
1880,note_on,16,0,3,,,,,,,,,2,,,48,36
1880,note_on,0,0,3,,,,,,,,,2,,,51,36
1884,note_on,0,0,1,,,,,,,,,0,,,65,0
1884,note_on,0,0,3,,,,,,,,,2,,,48,0
1884,note_on,4,0,1,,,,,,,,,0,,,69,0
1884,note_on,4,0,3,,,,,,,,,2,,,51,0
1890,note_on,30,0,2,,,,,,,,,1,,,55,0
1890,set_tempo,15,1,0,,,,,,3333333,,,,,,,
1890,note_on,0,0,2,,,,,,,,,1,,,57,101
1899,control_change,15,0,1,,,,,,,,,0,64,0,,
1899,control_change,15,0,3,,,,,,,,,2,64,0,,
1899,note_on,0,0,1,,,,,,,,,0,,,63,36
1899,note_on,0,0,1,,,,,,,,,0,,,65,36
1899,note_on,0,0,3,,,,,,,,,2,,,53,36
1905,set_tempo,15,1,0,,,,,,3750000,,,,,,,
1919,note_on,0,0,1,,,,,,,,,0,,,63,0
1919,note_on,20,0,3,,,,,,,,,2,,,53,0
1919,note_on,20,0,1,,,,,,,,,0,,,65,0
1920,note_on,120,0,4,,,,,,,,,3,,,41,0
1920,control_change,1,0,1,,,,,,,,,0,64,127,,
1920,note_on,0,0,4,,,,,,,,,3,,,29,0
1920,note_on,0,0,4,,,,,,,,,3,,,34,36
1920,set_tempo,15,1,0,,,,,,2142857,,,,,,,
1920,note_on,0,0,4,,,,,,,,,3,,,46,36
1920,control_change,1,0,3,,,,,,,,,2,64,127,,
1920,note_on,0,0,2,,,,,,,,,1,,,58,101
1920,note_on,30,0,2,,,,,,,,,1,,,57,0
1940,note_on,0,0,1,,,,,,,,,0,,,65,36
1940,note_on,0,0,3,,,,,,,,,2,,,58,36
1940,note_on,20,0,1,,,,,,,,,0,,,62,36
1940,note_on,20,0,3,,,,,,,,,2,,,53,36
1944,note_on,4,0,1,,,,,,,,,0,,,65,0
1944,note_on,4,0,3,,,,,,,,,2,,,58,0
1944,note_on,0,0,3,,,,,,,,,2,,,53,0
1944,note_on,0,0,1,,,,,,,,,0,,,62,0
1959,note_on,15,0,1,,,,,,,,,0,,,65,36
1959,note_on,0,0,1,,,,,,,,,0,,,70,36
1959,note_on,0,0,3,,,,,,,,,2,,,53,36
1959,note_on,15,0,3,,,,,,,,,2,,,50,36
1963,note_on,0,0,1,,,,,,,,,0,,,65,0
1963,note_on,4,0,1,,,,,,,,,0,,,70,0
1963,note_on,4,0,3,,,,,,,,,2,,,53,0
1963,note_on,0,0,3,,,,,,,,,2,,,50,0
1980,note_on,17,0,3,,,,,,,,,2,,,53,36
1980,note_on,0,0,1,,,,,,,,,0,,,74,36
1980,note_on,17,0,1,,,,,,,,,0,,,62,36
1980,note_on,0,0,1,,,,,,,,,0,,,65,36
1980,note_on,0,0,3,,,,,,,,,2,,,58,36
1984,note_on,0,0,3,,,,,,,,,2,,,53,0
1984,note_on,0,0,1,,,,,,,,,0,,,65,0
1984,note_on,0,0,1,,,,,,,,,0,,,62,0
1984,note_on,4,0,1,,,,,,,,,0,,,74,0
1984,note_on,4,0,3,,,,,,,,,2,,,58,0
2000,note_on,0,0,1,,,,,,,,,0,,,70,36
2000,note_on,16,0,3,,,,,,,,,2,,,58,36
2000,note_on,0,0,3,,,,,,,,,2,,,62,36
2000,note_on,16,0,1,,,,,,,,,0,,,65,36
2004,note_on,4,0,1,,,,,,,,,0,,,70,0
2004,note_on,0,0,1,,,,,,,,,0,,,65,0
2004,note_on,0,0,3,,,,,,,,,2,,,58,0
2004,note_on,4,0,3,,,,,,,,,2,,,62,0
2019,note_on,0,0,3,,,,,,,,,2,,,58,36
2019,note_on,0,0,1,,,,,,,,,0,,,65,36
2019,note_on,15,0,1,,,,,,,,,0,,,62,36
2019,note_on,15,0,3,,,,,,,,,2,,,53,36
2023,note_on,4,0,1,,,,,,,,,0,,,65,0
2023,note_on,0,0,1,,,,,,,,,0,,,62,0
2023,note_on,4,0,3,,,,,,,,,2,,,58,0
2023,note_on,0,0,3,,,,,,,,,2,,,53,0
2040,note_on,120,0,4,,,,,,,,,3,,,46,0
2040,note_on,0,0,4,,,,,,,,,3,,,46,36
2040,note_on,0,0,4,,,,,,,,,3,,,34,36
2040,note_on,120,0,2,,,,,,,,,1,,,58,0
2040,note_on,0,0,4,,,,,,,,,3,,,34,0
2060,note_on,0,0,3,,,,,,,,,2,,,58,36
2060,note_on,37,0,3,,,,,,,,,2,,,53,36
2060,note_on,0,0,1,,,,,,,,,0,,,65,36
2060,note_on,37,0,1,,,,,,,,,0,,,62,36
2064,note_on,4,0,3,,,,,,,,,2,,,58,0
2064,note_on,0,0,1,,,,,,,,,0,,,62,0
2064,note_on,4,0,1,,,,,,,,,0,,,65,0
2064,note_on,0,0,3,,,,,,,,,2,,,53,0
2079,note_on,0,0,1,,,,,,,,,0,,,70,36
2079,note_on,15,0,3,,,,,,,,,2,,,50,36
2079,note_on,15,0,1,,,,,,,,,0,,,65,36
2079,note_on,0,0,3,,,,,,,,,2,,,53,36
2083,note_on,4,0,1,,,,,,,,,0,,,70,0
2083,note_on,0,0,3,,,,,,,,,2,,,50,0
2083,note_on,4,0,3,,,,,,,,,2,,,53,0
2083,note_on,0,0,1,,,,,,,,,0,,,65,0
2100,note_on,0,0,3,,,,,,,,,2,,,58,36
2100,note_on,17,0,1,,,,,,,,,0,,,65,36
2100,note_on,17,0,3,,,,,,,,,2,,,53,36
2100,note_on,60,0,2,,,,,,,,,1,,,62,101
2100,note_on,0,0,1,,,,,,,,,0,,,74,36
2104,note_on,4,0,1,,,,,,,,,0,,,74,0
2104,note_on,0,0,3,,,,,,,,,2,,,53,0
2104,note_on,4,0,3,,,,,,,,,2,,,58,0
2104,note_on,0,0,1,,,,,,,,,0,,,65,0
2120,note_on,0,0,3,,,,,,,,,2,,,53,36
2120,note_on,16,0,3,,,,,,,,,2,,,50,36
2120,note_on,16,0,1,,,,,,,,,0,,,65,36
2120,note_on,0,0,1,,,,,,,,,0,,,70,36
2124,note_on,4,0,1,,,,,,,,,0,,,70,0
2124,note_on,4,0,3,,,,,,,,,2,,,53,0
2124,note_on,0,0,3,,,,,,,,,2,,,50,0
2124,note_on,0,0,1,,,,,,,,,0,,,65,0
2139,control_change,15,0,1,,,,,,,,,0,64,0,,
2139,note_on,0,0,1,,,,,,,,,0,,,62,36
2139,note_on,0,0,1,,,,,,,,,0,,,65,36
2139,control_change,15,0,3,,,,,,,,,2,64,0,,
2139,note_on,0,0,3,,,,,,,,,2,,,58,36
2139,note_on,0,0,3,,,,,,,,,2,,,53,36
2159,note_on,0,0,3,,,,,,,,,2,,,53,0
2159,note_on,0,0,1,,,,,,,,,0,,,62,0
2159,note_on,20,0,3,,,,,,,,,2,,,58,0
2159,note_on,20,0,1,,,,,,,,,0,,,65,0
2160,note_on,0,0,4,,,,,,,,,3,,,46,36
2160,note_on,60,0,2,,,,,,,,,1,,,62,0
2160,control_change,1,0,3,,,,,,,,,2,64,127,,
2160,control_change,1,0,1,,,,,,,,,0,64,127,,
2160,note_on,0,0,4,,,,,,,,,3,,,34,36
2160,note_on,120,0,4,,,,,,,,,3,,,46,0
2160,note_on,0,0,4,,,,,,,,,3,,,34,0
2160,note_on,0,0,2,,,,,,,,,1,,,62,127
2180,note_on,20,0,1,,,,,,,,,0,,,62,49
2180,note_on,0,0,1,,,,,,,,,0,,,66,49
2180,note_on,20,0,3,,,,,,,,,2,,,54,36
2180,note_on,0,0,3,,,,,,,,,2,,,58,36
2184,note_on,0,0,3,,,,,,,,,2,,,54,0
2184,note_on,0,0,1,,,,,,,,,0,,,62,0
2184,note_on,4,0,1,,,,,,,,,0,,,66,0
2184,note_on,4,0,3,,,,,,,,,2,,,58,0
2199,note_on,15,0,1,,,,,,,,,0,,,66,49
2199,note_on,0,0,3,,,,,,,,,2,,,54,36
2199,note_on,15,0,3,,,,,,,,,2,,,50,36
2199,note_on,0,0,1,,,,,,,,,0,,,70,49
2203,note_on,0,0,3,,,,,,,,,2,,,50,0
2203,note_on,4,0,3,,,,,,,,,2,,,54,0
2203,note_on,0,0,1,,,,,,,,,0,,,66,0
2203,note_on,4,0,1,,,,,,,,,0,,,70,0
2220,note_on,17,0,1,,,,,,,,,0,,,62,49
2220,note_on,17,0,3,,,,,,,,,2,,,54,36
2220,note_on,0,0,3,,,,,,,,,2,,,58,36
2220,note_on,0,0,1,,,,,,,,,0,,,66,49
2220,note_on,0,0,1,,,,,,,,,0,,,74,49
2224,note_on,0,0,3,,,,,,,,,2,,,54,0
2224,note_on,4,0,1,,,,,,,,,0,,,74,0
2224,note_on,0,0,1,,,,,,,,,0,,,62,0
2224,note_on,0,0,1,,,,,,,,,0,,,66,0
2224,note_on,4,0,3,,,,,,,,,2,,,58,0
2240,note_on,0,0,1,,,,,,,,,0,,,70,49
2240,note_on,16,0,3,,,,,,,,,2,,,58,36
2240,note_on,0,0,3,,,,,,,,,2,,,62,36
2240,note_on,16,0,1,,,,,,,,,0,,,66,49
2244,note_on,4,0,3,,,,,,,,,2,,,62,0
2244,note_on,4,0,1,,,,,,,,,0,,,70,0
2244,note_on,0,0,1,,,,,,,,,0,,,66,0
2244,note_on,0,0,3,,,,,,,,,2,,,58,0
2250,note_on,90,0,2,,,,,,,,,1,,,62,0
2250,note_on,0,0,2,,,,,,,,,1,,,60,101
2259,control_change,15,0,1,,,,,,,,,0,64,0,,
2259,note_on,0,0,3,,,,,,,,,2,,,58,36
2259,note_on,0,0,1,,,,,,,,,0,,,62,49
2259,control_change,15,0,3,,,,,,,,,2,64,0,,
2259,note_on,0,0,3,,,,,,,,,2,,,54,36
2259,note_on,0,0,1,,,,,,,,,0,,,66,49
2265,note_on,15,0,2,,,,,,,,,1,,,60,0
2265,note_on,0,0,2,,,,,,,,,1,,,58,101
2279,note_on,0,0,1,,,,,,,,,0,,,62,0
2279,note_on,20,0,3,,,,,,,,,2,,,58,0
2279,note_on,20,0,1,,,,,,,,,0,,,66,0
2279,note_on,0,0,3,,,,,,,,,2,,,54,0
2280,control_change,1,0,3,,,,,,,,,2,64,127,,
2280,control_change,1,0,1,,,,,,,,,0,64,127,,
2280,note_on,0,0,2,,,,,,,,,1,,,57,101
2280,note_on,120,0,4,,,,,,,,,3,,,46,0
2280,note_on,15,0,2,,,,,,,,,1,,,58,0
2280,note_on,0,0,4,,,,,,,,,3,,,34,0
2280,note_on,0,0,4,,,,,,,,,3,,,34,36
2300,note_on,20,0,3,,,,,,,,,2,,,46,36
2300,note_on,0,0,3,,,,,,,,,2,,,50,36
2300,note_on,20,0,1,,,,,,,,,0,,,62,49
2300,note_on,0,0,1,,,,,,,,,0,,,67,49
2304,note_on,0,0,3,,,,,,,,,2,,,46,0
2304,note_on,0,0,1,,,,,,,,,0,,,62,0
2304,note_on,4,0,3,,,,,,,,,2,,,50,0
2304,note_on,4,0,1,,,,,,,,,0,,,67,0
2310,note_on,30,0,2,,,,,,,,,1,,,57,0
2310,note_on,0,0,2,,,,,,,,,1,,,55,101
2319,note_on,15,0,3,,,,,,,,,2,,,50,36
2319,note_on,0,0,3,,,,,,,,,2,,,55,36
2319,note_on,15,0,1,,,,,,,,,0,,,67,49
2319,note_on,0,0,1,,,,,,,,,0,,,70,49
2323,note_on,0,0,3,,,,,,,,,2,,,50,0
2323,note_on,4,0,3,,,,,,,,,2,,,55,0
2323,note_on,0,0,1,,,,,,,,,0,,,67,0
2323,note_on,4,0,1,,,,,,,,,0,,,70,0
2340,note_on,0,0,3,,,,,,,,,2,,,58,36
2340,note_on,0,0,1,,,,,,,,,0,,,74,49
2340,note_on,30,0,2,,,,,,,,,1,,,55,0
2340,note_on,17,0,1,,,,,,,,,0,,,70,49
2340,note_on,17,0,3,,,,,,,,,2,,,55,36
2340,note_on,0,0,2,,,,,,,,,1,,,62,101
2344,note_on,4,0,3,,,,,,,,,2,,,58,0
2344,note_on,0,0,3,,,,,,,,,2,,,55,0
2344,note_on,0,0,1,,,,,,,,,0,,,70,0
2344,note_on,4,0,1,,,,,,,,,0,,,74,0
2360,note_on,16,0,3,,,,,,,,,2,,,50,36
2360,note_on,0,0,3,,,,,,,,,2,,,55,36
2360,note_on,16,0,1,,,,,,,,,0,,,67,49
2360,note_on,0,0,1,,,,,,,,,0,,,70,49
2364,note_on,4,0,1,,,,,,,,,0,,,70,0
2364,note_on,4,0,3,,,,,,,,,2,,,55,0
2364,note_on,0,0,1,,,,,,,,,0,,,67,0
2364,note_on,0,0,3,,,,,,,,,2,,,50,0
2379,control_change,15,0,1,,,,,,,,,0,64,0,,
2379,control_change,15,0,3,,,,,,,,,2,64,0,,
2379,note_on,0,0,3,,,,,,,,,2,,,50,36
2379,note_on,0,0,3,,,,,,,,,2,,,46,36
2379,note_on,0,0,1,,,,,,,,,0,,,62,49
2379,note_on,0,0,1,,,,,,,,,0,,,67,49
2385,note_on,45,0,2,,,,,,,,,1,,,62,0
2385,note_on,0,0,2,,,,,,,,,1,,,64,101
2399,note_on,0,0,3,,,,,,,,,2,,,46,0
2399,note_on,20,0,1,,,,,,,,,0,,,67,0
2399,note_on,20,0,3,,,,,,,,,2,,,50,0
2399,note_on,0,0,1,,,,,,,,,0,,,62,0
2400,note_on,15,0,2,,,,,,,,,1,,,64,0
2400,note_on,0,0,4,,,,,,,,,3,,,45,36
2400,note_on,0,0,4,,,,,,,,,3,,,33,36
2400,control_change,1,0,1,,,,,,,,,0,64,127,,
2400,control_change,1,0,3,,,,,,,,,2,64,127,,
2400,note_on,0,0,2,,,,,,,,,1,,,62,101
2400,note_on,120,0,4,,,,,,,,,3,,,34,0
2420,note_on,0,0,1,,,,,,,,,0,,,67,49
2420,note_on,0,0,3,,,,,,,,,2,,,58,36
2420,note_on,20,0,1,,,,,,,,,0,,,64,49
2420,note_on,20,0,3,,,,,,,,,2,,,55,36
2424,note_on,4,0,1,,,,,,,,,0,,,67,0
2424,note_on,4,0,3,,,,,,,,,2,,,58,0
2424,note_on,0,0,3,,,,,,,,,2,,,55,0
2424,note_on,0,0,1,,,,,,,,,0,,,64,0
2439,note_on,0,0,3,,,,,,,,,2,,,55,36
2439,note_on,0,0,1,,,,,,,,,0,,,70,49
2439,note_on,15,0,3,,,,,,,,,2,,,52,36
2439,note_on,15,0,1,,,,,,,,,0,,,67,49
2443,note_on,4,0,1,,,,,,,,,0,,,70,0
2443,note_on,0,0,3,,,,,,,,,2,,,52,0
2443,note_on,4,0,3,,,,,,,,,2,,,55,0
2443,note_on,0,0,1,,,,,,,,,0,,,67,0
2460,note_on,0,0,3,,,,,,,,,2,,,58,36
2460,note_on,17,0,3,,,,,,,,,2,,,55,36
2460,note_on,17,0,1,,,,,,,,,0,,,70,49
2460,note_on,0,0,1,,,,,,,,,0,,,74,49
2464,note_on,4,0,1,,,,,,,,,0,,,74,0
2464,note_on,0,0,1,,,,,,,,,0,,,70,0
2464,note_on,0,0,3,,,,,,,,,2,,,55,0
2464,note_on,4,0,3,,,,,,,,,2,,,58,0
2480,note_on,16,0,3,,,,,,,,,2,,,58,36
2480,note_on,16,0,1,,,,,,,,,0,,,67,49
2480,note_on,0,0,1,,,,,,,,,0,,,70,49
2480,note_on,0,0,3,,,,,,,,,2,,,62,36
2484,note_on,0,0,3,,,,,,,,,2,,,58,0
2484,note_on,0,0,1,,,,,,,,,0,,,67,0
2484,note_on,4,0,1,,,,,,,,,0,,,70,0
2484,note_on,4,0,3,,,,,,,,,2,,,62,0
2499,note_on,0,0,1,,,,,,,,,0,,,67,49
2499,note_on,0,0,1,,,,,,,,,0,,,64,49
2499,control_change,15,0,1,,,,,,,,,0,64,0,,
2499,control_change,15,0,3,,,,,,,,,2,64,0,,
2499,note_on,0,0,3,,,,,,,,,2,,,55,36
2499,note_on,0,0,3,,,,,,,,,2,,,58,36
2519,note_on,20,0,1,,,,,,,,,0,,,67,0
2519,note_on,0,0,3,,,,,,,,,2,,,55,0
2519,note_on,0,0,1,,,,,,,,,0,,,64,0
2519,note_on,20,0,3,,,,,,,,,2,,,58,0
2520,note_on,0,0,4,,,,,,,,,3,,,33,0
2520,note_on,0,0,4,,,,,,,,,3,,,33,36
2520,note_on,0,0,4,,,,,,,,,3,,,45,36
2520,note_on,120,0,2,,,,,,,,,1,,,62,0
2520,control_change,1,0,1,,,,,,,,,0,64,127,,
2520,control_change,1,0,3,,,,,,,,,2,64,127,,
2520,note_on,120,0,4,,,,,,,,,3,,,45,0
2520,note_on,0,0,2,,,,,,,,,1,,,61,101
2540,note_on,20,0,3,,,,,,,,,2,,,55,36
2540,note_on,20,0,1,,,,,,,,,0,,,64,49
2540,note_on,0,0,1,,,,,,,,,0,,,67,49
2540,note_on,0,0,3,,,,,,,,,2,,,57,36
2544,note_on,4,0,1,,,,,,,,,0,,,67,0
2544,note_on,0,0,1,,,,,,,,,0,,,64,0
2544,note_on,0,0,3,,,,,,,,,2,,,55,0
2544,note_on,4,0,3,,,,,,,,,2,,,57,0
2559,note_on,0,0,3,,,,,,,,,2,,,55,36
2559,note_on,15,0,3,,,,,,,,,2,,,52,36
2559,note_on,0,0,1,,,,,,,,,0,,,69,49
2559,note_on,15,0,1,,,,,,,,,0,,,67,49
2563,note_on,0,0,3,,,,,,,,,2,,,52,0
2563,note_on,4,0,1,,,,,,,,,0,,,69,0
2563,note_on,0,0,1,,,,,,,,,0,,,67,0
2563,note_on,4,0,3,,,,,,,,,2,,,55,0
2580,note_on,0,0,3,,,,,,,,,2,,,57,36
2580,note_on,0,0,1,,,,,,,,,0,,,73,49
2580,note_on,60,0,2,,,,,,,,,1,,,61,0
2580,note_on,17,0,1,,,,,,,,,0,,,69,49
2580,note_on,17,0,3,,,,,,,,,2,,,55,36
2584,note_on,0,0,1,,,,,,,,,0,,,69,0
2584,note_on,4,0,1,,,,,,,,,0,,,73,0
2584,note_on,0,0,3,,,,,,,,,2,,,55,0
2584,note_on,4,0,3,,,,,,,,,2,,,57,0
2600,note_on,16,0,3,,,,,,,,,2,,,57,36
2600,note_on,0,0,1,,,,,,,,,0,,,69,49
2600,note_on,0,0,3,,,,,,,,,2,,,61,36
2600,note_on,16,0,1,,,,,,,,,0,,,67,49
2604,note_on,4,0,3,,,,,,,,,2,,,61,0
2604,note_on,0,0,1,,,,,,,,,0,,,67,0
2604,note_on,4,0,1,,,,,,,,,0,,,69,0
2604,note_on,0,0,3,,,,,,,,,2,,,57,0
2610,note_on,30,0,2,,,,,,,,,1,,,57,101
2619,control_change,15,0,3,,,,,,,,,2,64,0,,
2619,note_on,0,0,1,,,,,,,,,0,,,64,49
2619,note_on,0,0,3,,,,,,,,,2,,,57,36
2619,note_on,0,0,3,,,,,,,,,2,,,55,36
2619,note_on,0,0,1,,,,,,,,,0,,,67,49
2619,control_change,15,0,1,,,,,,,,,0,64,0,,
2639,note_on,0,0,1,,,,,,,,,0,,,64,0
2639,note_on,20,0,1,,,,,,,,,0,,,67,0
2639,note_on,0,0,3,,,,,,,,,2,,,55,0
2639,note_on,20,0,3,,,,,,,,,2,,,57,0
2640,note_on,0,0,2,,,,,,,,,1,,,60,127
2640,note_on,0,0,4,,,,,,,,,3,,,42,36
2640,note_on,0,0,4,,,,,,,,,3,,,33,0
2640,note_on,0,0,4,,,,,,,,,3,,,30,36
2640,note_on,120,0,4,,,,,,,,,3,,,45,0
2640,note_on,30,0,2,,,,,,,,,1,,,57,0
2640,control_change,1,0,3,,,,,,,,,2,64,127,,
2640,control_change,1,0,1,,,,,,,,,0,64,127,,
2660,note_on,0,0,1,,,,,,,,,0,,,69,49
2660,note_on,20,0,3,,,,,,,,,2,,,54,36
2660,note_on,20,0,1,,,,,,,,,0,,,63,49
2660,note_on,0,0,3,,,,,,,,,2,,,60,36
2664,note_on,0,0,3,,,,,,,,,2,,,54,0
2664,note_on,4,0,3,,,,,,,,,2,,,60,0
2664,note_on,4,0,1,,,,,,,,,0,,,69,0
2664,note_on,0,0,1,,,,,,,,,0,,,63,0
2679,note_on,0,0,3,,,,,,,,,2,,,54,36
2679,note_on,0,0,1,,,,,,,,,0,,,72,49
2679,note_on,15,0,3,,,,,,,,,2,,,51,36
2679,note_on,15,0,1,,,,,,,,,0,,,69,49
2683,note_on,4,0,3,,,,,,,,,2,,,54,0
2683,note_on,4,0,1,,,,,,,,,0,,,72,0
2683,note_on,0,0,1,,,,,,,,,0,,,69,0
2683,note_on,0,0,3,,,,,,,,,2,,,51,0
2700,note_on,0,0,1,,,,,,,,,0,,,75,49
2700,note_on,0,0,1,,,,,,,,,0,,,69,49
2700,note_on,0,0,3,,,,,,,,,2,,,60,36
2700,note_on,17,0,1,,,,,,,,,0,,,63,49
2700,note_on,17,0,3,,,,,,,,,2,,,54,36
2704,note_on,4,0,3,,,,,,,,,2,,,60,0
2704,note_on,0,0,3,,,,,,,,,2,,,54,0
2704,note_on,0,0,1,,,,,,,,,0,,,63,0
2704,note_on,0,0,1,,,,,,,,,0,,,69,0
2704,note_on,4,0,1,,,,,,,,,0,,,75,0
2720,note_on,0,0,3,,,,,,,,,2,,,63,36
2720,note_on,0,0,1,,,,,,,,,0,,,72,49
2720,note_on,16,0,3,,,,,,,,,2,,,60,36
2720,note_on,16,0,1,,,,,,,,,0,,,69,49
2724,note_on,0,0,3,,,,,,,,,2,,,60,0
2724,note_on,4,0,1,,,,,,,,,0,,,72,0
2724,note_on,0,0,1,,,,,,,,,0,,,69,0
2724,note_on,4,0,3,,,,,,,,,2,,,63,0
2739,control_change,15,0,3,,,,,,,,,2,64,0,,
2739,note_on,0,0,3,,,,,,,,,2,,,54,36
2739,note_on,0,0,3,,,,,,,,,2,,,60,36
2739,note_on,0,0,1,,,,,,,,,0,,,63,49
2739,control_change,15,0,1,,,,,,,,,0,64,0,,
2739,note_on,0,0,1,,,,,,,,,0,,,69,49
2745,note_on,0,0,2,,,,,,,,,1,,,58,101
2745,note_on,105,0,2,,,,,,,,,1,,,60,0
2759,note_on,20,0,3,,,,,,,,,2,,,60,0
2759,note_on,0,0,1,,,,,,,,,0,,,63,0
2759,note_on,0,0,3,,,,,,,,,2,,,54,0
2759,note_on,20,0,1,,,,,,,,,0,,,69,0
2760,note_on,0,0,4,,,,,,,,,3,,,30,36
2760,control_change,1,0,1,,,,,,,,,0,64,127,,
2760,note_on,0,0,4,,,,,,,,,3,,,42,36
2760,note_on,0,0,4,,,,,,,,,3,,,30,0
2760,note_on,15,0,2,,,,,,,,,1,,,58,0
2760,note_on,0,0,2,,,,,,,,,1,,,57,101
2760,note_on,120,0,4,,,,,,,,,3,,,42,0
2760,control_change,1,0,3,,,,,,,,,2,64,127,,
2775,set_tempo,855,1,0,,,,,,2222222,,,,,,,
2780,note_on,0,0,1,,,,,,,,,0,,,69,49
2780,note_on,0,0,2,,,,,,,,,1,,,60,101
2780,note_on,20,0,1,,,,,,,,,0,,,63,49
2780,note_on,20,0,3,,,,,,,,,2,,,54,36
2780,note_on,20,0,2,,,,,,,,,1,,,57,0
2780,note_on,0,0,3,,,,,,,,,2,,,60,36
2784,note_on,0,0,1,,,,,,,,,0,,,63,0
2784,note_on,4,0,3,,,,,,,,,2,,,60,0
2784,note_on,4,0,1,,,,,,,,,0,,,69,0
2784,note_on,0,0,3,,,,,,,,,2,,,54,0
2790,set_tempo,15,1,0,,,,,,2400000,,,,,,,
2799,note_on,15,0,3,,,,,,,,,2,,,57,36
2799,note_on,15,0,1,,,,,,,,,0,,,66,49
2799,note_on,19,0,2,,,,,,,,,1,,,62,101
2799,note_on,0,0,1,,,,,,,,,0,,,72,49
2799,note_on,0,0,3,,,,,,,,,2,,,62,36
2800,note_on,1,0,2,,,,,,,,,1,,,60,0
2803,note_on,0,0,3,,,,,,,,,2,,,57,0
2803,note_on,4,0,1,,,,,,,,,0,,,72,0
2803,note_on,0,0,1,,,,,,,,,0,,,66,0
2803,note_on,4,0,3,,,,,,,,,2,,,62,0
2805,set_tempo,15,1,0,,,,,,2608696,,,,,,,
2819,note_on,19,0,2,,,,,,,,,1,,,62,0
2820,set_tempo,15,1,0,,,,,,2857143,,,,,,,
2820,note_on,17,0,3,,,,,,,,,2,,,60,36
2820,note_on,0,0,1,,,,,,,,,0,,,69,49
2820,note_on,0,0,1,,,,,,,,,0,,,75,49
2820,note_on,17,0,1,,,,,,,,,0,,,66,49
2820,note_on,1,0,2,,,,,,,,,1,,,63,101
2820,note_on,0,0,3,,,,,,,,,2,,,63,36
2824,note_on,0,0,1,,,,,,,,,0,,,66,0
2824,note_on,4,0,3,,,,,,,,,2,,,63,0
2824,note_on,0,0,3,,,,,,,,,2,,,60,0
2824,note_on,4,0,1,,,,,,,,,0,,,75,0
2824,note_on,0,0,1,,,,,,,,,0,,,69,0
2835,set_tempo,15,1,0,,,,,,3157895,,,,,,,
2840,note_on,16,0,3,,,,,,,,,2,,,57,36
2840,note_on,16,0,1,,,,,,,,,0,,,63,49
2840,note_on,0,0,2,,,,,,,,,1,,,60,101
2840,note_on,20,0,2,,,,,,,,,1,,,63,0
2840,note_on,0,0,3,,,,,,,,,2,,,60,36
2840,note_on,0,0,1,,,,,,,,,0,,,72,49
2840,note_on,0,0,1,,,,,,,,,0,,,66,49
2844,note_on,0,0,3,,,,,,,,,2,,,57,0
2844,note_on,4,0,3,,,,,,,,,2,,,60,0
2844,note_on,0,0,1,,,,,,,,,0,,,66,0
2844,note_on,0,0,1,,,,,,,,,0,,,63,0
2844,note_on,4,0,1,,,,,,,,,0,,,72,0
2850,set_tempo,15,1,0,,,,,,3529412,,,,,,,
2859,note_on,0,0,3,,,,,,,,,2,,,54,36
2859,note_on,0,0,3,,,,,,,,,2,,,57,36
2859,note_on,0,0,1,,,,,,,,,0,,,60,49
2859,note_on,0,0,1,,,,,,,,,0,,,63,49
2859,note_on,19,0,2,,,,,,,,,1,,,57,101
2859,control_change,15,0,1,,,,,,,,,0,64,0,,
2859,control_change,15,0,3,,,,,,,,,2,64,0,,
2859,note_on,0,0,1,,,,,,,,,0,,,69,49
2860,note_on,1,0,2,,,,,,,,,1,,,60,0
2865,set_tempo,15,1,0,,,,,,4000000,,,,,,,
2879,note_on,20,0,3,,,,,,,,,2,,,57,0
2879,note_on,20,0,1,,,,,,,,,0,,,69,0
2879,note_on,0,0,3,,,,,,,,,2,,,54,0
2879,note_on,0,0,1,,,,,,,,,0,,,63,0
2879,note_on,0,0,1,,,,,,,,,0,,,60,0
2879,note_on,19,0,2,,,,,,,,,1,,,57,0
2880,control_change,1,0,3,,,,,,,,,2,64,127,,
2880,note_on,0,0,4,,,,,,,,,3,,,30,0
2880,control_change,1,0,1,,,,,,,,,0,64,127,,
2880,note_on,120,0,4,,,,,,,,,3,,,42,0
2880,note_on,0,0,4,,,,,,,,,3,,,43,36
2880,note_on,0,0,4,,,,,,,,,3,,,31,36
2880,note_on,1,0,2,,,,,,,,,1,,,58,101
2880,set_tempo,15,1,0,,,,,,2142857,,,,,,,
2900,note_on,0,0,3,,,,,,,,,2,,,58,36
2900,note_on,20,0,3,,,,,,,,,2,,,55,36
2900,note_on,20,0,1,,,,,,,,,0,,,62,49
2900,note_on,0,0,1,,,,,,,,,0,,,67,49
2904,note_on,0,0,3,,,,,,,,,2,,,55,0
2904,note_on,4,0,3,,,,,,,,,2,,,58,0
2904,note_on,4,0,1,,,,,,,,,0,,,67,0
2904,note_on,0,0,1,,,,,,,,,0,,,62,0
2919,note_on,0,0,1,,,,,,,,,0,,,70,49
2919,note_on,15,0,3,,,,,,,,,2,,,50,36
2919,note_on,15,0,1,,,,,,,,,0,,,67,49
2919,note_on,0,0,3,,,,,,,,,2,,,55,36
2923,note_on,4,0,1,,,,,,,,,0,,,70,0
2923,note_on,4,0,3,,,,,,,,,2,,,55,0
2923,note_on,0,0,1,,,,,,,,,0,,,67,0
2923,note_on,0,0,3,,,,,,,,,2,,,50,0
2940,note_on,0,0,1,,,,,,,,,0,,,67,49
2940,note_on,0,0,1,,,,,,,,,0,,,74,49
2940,note_on,17,0,3,,,,,,,,,2,,,55,36
2940,note_on,17,0,1,,,,,,,,,0,,,62,49
2940,note_on,0,0,3,,,,,,,,,2,,,58,36
2944,note_on,4,0,1,,,,,,,,,0,,,74,0
2944,note_on,0,0,1,,,,,,,,,0,,,67,0
2944,note_on,0,0,1,,,,,,,,,0,,,62,0
2944,note_on,4,0,3,,,,,,,,,2,,,58,0
2944,note_on,0,0,3,,,,,,,,,2,,,55,0
2960,note_on,0,0,1,,,,,,,,,0,,,70,49
2960,note_on,16,0,1,,,,,,,,,0,,,67,49
2960,note_on,16,0,3,,,,,,,,,2,,,58,36
2960,note_on,0,0,3,,,,,,,,,2,,,62,36
2964,note_on,0,0,1,,,,,,,,,0,,,67,0
2964,note_on,4,0,1,,,,,,,,,0,,,70,0
2964,note_on,4,0,3,,,,,,,,,2,,,62,0
2964,note_on,0,0,3,,,,,,,,,2,,,58,0
2979,note_on,0,0,1,,,,,,,,,0,,,67,49
2979,control_change,15,0,1,,,,,,,,,0,64,0,,
2979,note_on,0,0,3,,,,,,,,,2,,,58,36
2979,note_on,0,0,3,,,,,,,,,2,,,55,36
2979,control_change,15,0,3,,,,,,,,,2,64,0,,
2979,note_on,0,0,1,,,,,,,,,0,,,62,49
2999,note_on,20,0,1,,,,,,,,,0,,,67,0
2999,note_on,0,0,1,,,,,,,,,0,,,62,0
2999,note_on,0,0,3,,,,,,,,,2,,,55,0
2999,note_on,20,0,3,,,,,,,,,2,,,58,0
3000,note_on,0,0,4,,,,,,,,,3,,,43,36
3000,control_change,1,0,1,,,,,,,,,0,64,127,,
3000,note_on,0,0,4,,,,,,,,,3,,,31,0
3000,control_change,1,0,3,,,,,,,,,2,64,127,,
3000,note_on,120,0,4,,,,,,,,,3,,,43,0
3000,note_on,0,0,4,,,,,,,,,3,,,31,36
3020,note_on,0,0,1,,,,,,,,,0,,,64,49
3020,note_on,20,0,1,,,,,,,,,0,,,62,49
3020,note_on,0,0,3,,,,,,,,,2,,,58,36
3020,note_on,20,0,3,,,,,,,,,2,,,52,36
3024,note_on,4,0,1,,,,,,,,,0,,,64,0
3024,note_on,0,0,3,,,,,,,,,2,,,52,0
3024,note_on,0,0,1,,,,,,,,,0,,,62,0
3024,note_on,4,0,3,,,,,,,,,2,,,58,0
3039,note_on,0,0,1,,,,,,,,,0,,,70,49
3039,note_on,15,0,3,,,,,,,,,2,,,50,36
3039,note_on,0,0,3,,,,,,,,,2,,,52,36
3039,note_on,15,0,1,,,,,,,,,0,,,64,49
3043,note_on,0,0,3,,,,,,,,,2,,,50,0
3043,note_on,4,0,3,,,,,,,,,2,,,52,0
3043,note_on,4,0,1,,,,,,,,,0,,,70,0
3043,note_on,0,0,1,,,,,,,,,0,,,64,0
3060,note_on,17,0,1,,,,,,,,,0,,,70,49
3060,note_on,0,0,3,,,,,,,,,2,,,58,36
3060,note_on,17,0,3,,,,,,,,,2,,,52,36
3060,note_on,180,0,2,,,,,,,,,1,,,58,0
3060,note_on,0,0,1,,,,,,,,,0,,,74,49
3060,note_on,0,0,2,,,,,,,,,1,,,62,101
3064,note_on,0,0,1,,,,,,,,,0,,,70,0
3064,note_on,4,0,3,,,,,,,,,2,,,58,0
3064,note_on,4,0,1,,,,,,,,,0,,,74,0
3064,note_on,0,0,3,,,,,,,,,2,,,52,0
3080,note_on,16,0,3,,,,,,,,,2,,,55,36
3080,note_on,0,0,3,,,,,,,,,2,,,58,36
3080,note_on,0,0,1,,,,,,,,,0,,,70,49
3080,note_on,16,0,1,,,,,,,,,0,,,64,49
3084,note_on,0,0,1,,,,,,,,,0,,,64,0
3084,note_on,4,0,1,,,,,,,,,0,,,70,0
3084,note_on,4,0,3,,,,,,,,,2,,,58,0
3084,note_on,0,0,3,,,,,,,,,2,,,55,0
3090,note_on,0,0,2,,,,,,,,,1,,,60,101
3090,note_on,30,0,2,,,,,,,,,1,,,62,0
3099,note_on,0,0,1,,,,,,,,,0,,,64,49
3099,note_on,0,0,3,,,,,,,,,2,,,58,36
3099,control_change,15,0,1,,,,,,,,,0,64,0,,
3099,control_change,15,0,3,,,,,,,,,2,64,0,,
3119,note_on,20,0,3,,,,,,,,,2,,,58,0
3119,note_on,20,0,1,,,,,,,,,0,,,64,0
3120,note_on,120,0,4,,,,,,,,,3,,,43,0
3120,note_on,0,0,4,,,,,,,,,3,,,31,0
3120,note_on,0,0,2,,,,,,,,,1,,,60,101
3120,note_on,0,0,4,,,,,,,,,3,,,45,36
3120,note_on,0,0,4,,,,,,,,,3,,,33,36
3120,control_change,1,0,3,,,,,,,,,2,64,127,,
3120,control_change,1,0,1,,,,,,,,,0,64,127,,
3120,note_on,30,0,2,,,,,,,,,1,,,60,0
3140,note_on,0,0,1,,,,,,,,,0,,,65,49
3140,note_on,20,0,1,,,,,,,,,0,,,60,49
3140,note_on,0,0,3,,,,,,,,,2,,,57,36
3140,note_on,20,0,3,,,,,,,,,2,,,53,36
3144,note_on,0,0,3,,,,,,,,,2,,,53,0
3144,note_on,4,0,3,,,,,,,,,2,,,57,0
3144,note_on,0,0,1,,,,,,,,,0,,,60,0
3144,note_on,4,0,1,,,,,,,,,0,,,65,0
3159,note_on,15,0,3,,,,,,,,,2,,,48,36
3159,note_on,0,0,3,,,,,,,,,2,,,53,36
3159,note_on,15,0,1,,,,,,,,,0,,,65,49
3159,note_on,0,0,1,,,,,,,,,0,,,69,49
3163,note_on,0,0,1,,,,,,,,,0,,,65,0
3163,note_on,4,0,3,,,,,,,,,2,,,53,0
3163,note_on,0,0,3,,,,,,,,,2,,,48,0
3163,note_on,4,0,1,,,,,,,,,0,,,69,0
3180,note_on,0,0,3,,,,,,,,,2,,,57,36
3180,note_on,0,0,1,,,,,,,,,0,,,69,49
3180,note_on,0,0,1,,,,,,,,,0,,,72,49
3180,note_on,17,0,1,,,,,,,,,0,,,60,49
3180,note_on,17,0,3,,,,,,,,,2,,,53,36
3184,note_on,4,0,1,,,,,,,,,0,,,72,0
3184,note_on,0,0,1,,,,,,,,,0,,,69,0
3184,note_on,0,0,1,,,,,,,,,0,,,60,0
3184,note_on,0,0,3,,,,,,,,,2,,,53,0
3184,note_on,4,0,3,,,,,,,,,2,,,57,0
3200,note_on,16,0,3,,,,,,,,,2,,,57,36
3200,note_on,0,0,3,,,,,,,,,2,,,60,36
3200,note_on,16,0,1,,,,,,,,,0,,,65,49
3200,note_on,0,0,1,,,,,,,,,0,,,69,49
3204,note_on,0,0,1,,,,,,,,,0,,,65,0
3204,note_on,4,0,3,,,,,,,,,2,,,60,0
3204,note_on,4,0,1,,,,,,,,,0,,,69,0
3204,note_on,0,0,3,,,,,,,,,2,,,57,0
3210,note_on,0,0,2,,,,,,,,,1,,,57,101
3210,note_on,90,0,2,,,,,,,,,1,,,60,0
3219,control_change,15,0,3,,,,,,,,,2,64,0,,
3219,control_change,15,0,1,,,,,,,,,0,64,0,,
3219,note_on,0,0,1,,,,,,,,,0,,,65,49
3219,note_on,0,0,3,,,,,,,,,2,,,57,36
3219,note_on,0,0,3,,,,,,,,,2,,,48,36
3219,note_on,0,0,1,,,,,,,,,0,,,60,49
3239,note_on,20,0,3,,,,,,,,,2,,,57,0
3239,note_on,0,0,1,,,,,,,,,0,,,60,0
3239,note_on,0,0,3,,,,,,,,,2,,,48,0
3239,note_on,20,0,1,,,,,,,,,0,,,65,0
3240,control_change,1,0,3,,,,,,,,,2,64,127,,
3240,note_on,0,0,4,,,,,,,,,3,,,38,36
3240,note_on,0,0,2,,,,,,,,,1,,,55,101
3240,note_on,30,0,2,,,,,,,,,1,,,57,0
3240,note_on,120,0,4,,,,,,,,,3,,,45,0
3240,control_change,1,0,1,,,,,,,,,0,64,127,,
3240,note_on,0,0,4,,,,,,,,,3,,,33,0
3260,note_on,20,0,3,,,,,,,,,2,,,50,36
3260,note_on,0,0,1,,,,,,,,,0,,,67,49
3260,note_on,0,0,3,,,,,,,,,2,,,55,36
3260,note_on,0,0,3,,,,,,,,,2,,,59,36
3260,note_on,20,0,1,,,,,,,,,0,,,65,49
3260,note_on,20,0,2,,,,,,,,,1,,,55,0
3260,note_on,0,0,2,,,,,,,,,1,,,59,101
3264,note_on,4,0,3,,,,,,,,,2,,,59,0
3264,note_on,0,0,3,,,,,,,,,2,,,50,0
3264,note_on,0,0,1,,,,,,,,,0,,,65,0
3264,note_on,0,0,3,,,,,,,,,2,,,55,0
3264,note_on,4,0,1,,,,,,,,,0,,,67,0
3279,note_on,15,0,3,,,,,,,,,2,,,55,36
3279,note_on,0,0,1,,,,,,,,,0,,,71,49
3279,note_on,19,0,2,,,,,,,,,1,,,62,101
3279,note_on,15,0,1,,,,,,,,,0,,,65,49
3279,note_on,0,0,1,,,,,,,,,0,,,67,49
3279,note_on,0,0,3,,,,,,,,,2,,,59,36
3279,note_on,0,0,3,,,,,,,,,2,,,62,36
3280,note_on,1,0,2,,,,,,,,,1,,,59,0
3283,note_on,4,0,3,,,,,,,,,2,,,62,0
3283,note_on,0,0,3,,,,,,,,,2,,,59,0
3283,note_on,0,0,3,,,,,,,,,2,,,55,0
3283,note_on,0,0,1,,,,,,,,,0,,,67,0
3283,note_on,4,0,1,,,,,,,,,0,,,71,0
3283,note_on,0,0,1,,,,,,,,,0,,,65,0
3299,note_on,19,0,2,,,,,,,,,1,,,62,0
3300,note_on,17,0,3,,,,,,,,,2,,,59,36
3300,note_on,0,0,3,,,,,,,,,2,,,65,36
3300,note_on,17,0,1,,,,,,,,,0,,,65,49
3300,note_on,0,0,3,,,,,,,,,2,,,62,36
3300,note_on,0,0,1,,,,,,,,,0,,,67,49
3300,note_on,1,0,2,,,,,,,,,1,,,65,101
3300,note_on,0,0,1,,,,,,,,,0,,,77,49
3304,note_on,0,0,3,,,,,,,,,2,,,59,0
3304,note_on,0,0,3,,,,,,,,,2,,,62,0
3304,note_on,4,0,3,,,,,,,,,2,,,65,0
3304,note_on,4,0,1,,,,,,,,,0,,,77,0
3304,note_on,0,0,1,,,,,,,,,0,,,67,0
3304,note_on,0,0,1,,,,,,,,,0,,,65,0
3320,note_on,20,0,2,,,,,,,,,1,,,65,0
3320,note_on,0,0,1,,,,,,,,,0,,,67,49
3320,note_on,0,0,2,,,,,,,,,1,,,62,101
3320,note_on,16,0,1,,,,,,,,,0,,,65,49
3320,note_on,16,0,3,,,,,,,,,2,,,55,36
3320,note_on,0,0,3,,,,,,,,,2,,,62,36
3320,note_on,0,0,3,,,,,,,,,2,,,59,36
3320,note_on,0,0,1,,,,,,,,,0,,,74,49
3324,note_on,4,0,3,,,,,,,,,2,,,62,0
3324,note_on,0,0,3,,,,,,,,,2,,,55,0
3324,note_on,0,0,1,,,,,,,,,0,,,67,0
3324,note_on,0,0,3,,,,,,,,,2,,,59,0
3324,note_on,4,0,1,,,,,,,,,0,,,74,0
3324,note_on,0,0,1,,,,,,,,,0,,,65,0
3339,note_on,0,0,1,,,,,,,,,0,,,65,49
3339,note_on,19,0,2,,,,,,,,,1,,,59,101
3339,control_change,15,0,3,,,,,,,,,2,64,0,,
3339,note_on,0,0,3,,,,,,,,,2,,,59,36
3339,control_change,15,0,1,,,,,,,,,0,64,0,,
3339,note_on,0,0,1,,,,,,,,,0,,,67,49
3339,note_on,0,0,3,,,,,,,,,2,,,55,36
3339,note_on,0,0,3,,,,,,,,,2,,,50,36
3339,note_on,0,0,1,,,,,,,,,0,,,71,49
3340,note_on,1,0,2,,,,,,,,,1,,,62,0
3343,note_on,0,0,3,,,,,,,,,2,,,50,0
3343,note_on,4,0,1,,,,,,,,,0,,,71,0
3343,note_on,0,0,3,,,,,,,,,2,,,55,0
3343,note_on,0,0,1,,,,,,,,,0,,,65,0
3343,note_on,0,0,1,,,,,,,,,0,,,67,0
3343,note_on,4,0,3,,,,,,,,,2,,,59,0
3359,note_on,19,0,2,,,,,,,,,1,,,59,0
3360,note_on,1,0,2,,,,,,,,,1,,,60,101
3360,note_on,0,0,4,,,,,,,,,3,,,36,36
3360,control_change,17,0,1,,,,,,,,,0,64,127,,
3360,control_change,17,0,3,,,,,,,,,2,64,127,,
3360,note_on,0,0,4,,,,,,,,,3,,,48,36
3360,note_on,120,0,4,,,,,,,,,3,,,38,0
3380,note_on,20,0,1,,,,,,,,,0,,,65,49
3380,note_on,0,0,3,,,,,,,,,2,,,60,36
3380,note_on,20,0,3,,,,,,,,,2,,,57,36
3380,note_on,0,0,1,,,,,,,,,0,,,69,49
3384,note_on,0,0,1,,,,,,,,,0,,,65,0
3384,note_on,0,0,3,,,,,,,,,2,,,57,0
3384,note_on,4,0,1,,,,,,,,,0,,,69,0
3384,note_on,4,0,3,,,,,,,,,2,,,60,0
3399,note_on,15,0,3,,,,,,,,,2,,,53,36
3399,note_on,15,0,1,,,,,,,,,0,,,69,49
3399,note_on,0,0,3,,,,,,,,,2,,,57,36
3399,note_on,0,0,1,,,,,,,,,0,,,72,49
3403,note_on,0,0,1,,,,,,,,,0,,,69,0
3403,note_on,4,0,1,,,,,,,,,0,,,72,0
3403,note_on,4,0,3,,,,,,,,,2,,,57,0
3403,note_on,0,0,3,,,,,,,,,2,,,53,0
3420,note_on,17,0,1,,,,,,,,,0,,,65,49
3420,note_on,0,0,3,,,,,,,,,2,,,60,36
3420,note_on,0,0,1,,,,,,,,,0,,,77,49
3420,note_on,0,0,1,,,,,,,,,0,,,69,49
3420,note_on,17,0,3,,,,,,,,,2,,,57,36
3424,note_on,0,0,3,,,,,,,,,2,,,57,0
3424,note_on,0,0,1,,,,,,,,,0,,,65,0
3424,note_on,4,0,1,,,,,,,,,0,,,77,0
3424,note_on,0,0,1,,,,,,,,,0,,,69,0
3424,note_on,4,0,3,,,,,,,,,2,,,60,0
3440,note_on,16,0,3,,,,,,,,,2,,,60,36
3440,note_on,0,0,3,,,,,,,,,2,,,65,36
3440,note_on,0,0,1,,,,,,,,,0,,,72,49
3440,note_on,16,0,1,,,,,,,,,0,,,69,49
3444,note_on,0,0,3,,,,,,,,,2,,,60,0
3444,note_on,4,0,3,,,,,,,,,2,,,65,0
3444,note_on,0,0,1,,,,,,,,,0,,,69,0
3444,note_on,4,0,1,,,,,,,,,0,,,72,0
3459,note_on,0,0,3,,,,,,,,,2,,,60,36
3459,note_on,0,0,3,,,,,,,,,2,,,57,36
3459,control_change,15,0,1,,,,,,,,,0,64,0,,
3459,control_change,15,0,3,,,,,,,,,2,64,0,,
3459,note_on,0,0,1,,,,,,,,,0,,,69,49
3459,note_on,0,0,1,,,,,,,,,0,,,65,49
3479,note_on,20,0,3,,,,,,,,,2,,,60,0
3479,note_on,0,0,3,,,,,,,,,2,,,57,0
3479,note_on,20,0,1,,,,,,,,,0,,,69,0
3479,note_on,0,0,1,,,,,,,,,0,,,65,0
3480,note_on,0,0,4,,,,,,,,,3,,,36,0
3480,note_on,120,0,4,,,,,,,,,3,,,48,0
3480,note_on,0,0,4,,,,,,,,,3,,,36,36
3480,control_change,1,0,1,,,,,,,,,0,64,127,,
3495,set_tempo,615,1,0,,,,,,2222222,,,,,,,
3500,note_on,20,0,1,,,,,,,,,0,,,60,49
3500,note_on,140,0,2,,,,,,,,,1,,,60,0
3500,note_on,0,0,1,,,,,,,,,0,,,70,49
3500,note_on,0,0,1,,,,,,,,,0,,,64,49
3500,note_on,0,0,2,,,,,,,,,1,,,55,101
3504,note_on,0,0,1,,,,,,,,,0,,,64,0
3504,note_on,0,0,1,,,,,,,,,0,,,60,0
3504,note_on,4,0,1,,,,,,,,,0,,,70,0
3510,set_tempo,15,1,0,,,,,,2400000,,,,,,,
3519,note_on,0,0,1,,,,,,,,,0,,,72,49
3519,note_on,19,0,2,,,,,,,,,1,,,57,101
3519,note_on,15,0,1,,,,,,,,,0,,,64,49
3520,note_on,1,0,2,,,,,,,,,1,,,55,0
3523,note_on,0,0,1,,,,,,,,,0,,,64,0
3523,note_on,4,0,1,,,,,,,,,0,,,72,0
3525,set_tempo,15,1,0,,,,,,2608696,,,,,,,
3539,note_on,19,0,2,,,,,,,,,1,,,57,0
3540,set_tempo,15,1,0,,,,,,2857143,,,,,,,
3540,note_on,0,0,1,,,,,,,,,0,,,72,49
3540,note_on,17,0,1,,,,,,,,,0,,,64,49
3540,note_on,1,0,2,,,,,,,,,1,,,58,101
3540,note_on,0,0,1,,,,,,,,,0,,,76,49
3544,note_on,4,0,1,,,,,,,,,0,,,76,0
3544,note_on,0,0,1,,,,,,,,,0,,,72,0
3544,note_on,0,0,1,,,,,,,,,0,,,64,0
3549,note_on,9,0,2,,,,,,,,,1,,,60,101
3550,note_on,1,0,2,,,,,,,,,1,,,58,0
3555,set_tempo,15,1,0,,,,,,3157895,,,,,,,
3559,note_on,9,0,2,,,,,,,,,1,,,60,0
3560,note_on,16,0,1,,,,,,,,,0,,,64,49
3560,note_on,0,0,1,,,,,,,,,0,,,72,49
3560,note_on,1,0,2,,,,,,,,,1,,,58,101
3564,note_on,0,0,1,,,,,,,,,0,,,64,0
3564,note_on,4,0,1,,,,,,,,,0,,,72,0
3570,set_tempo,15,1,0,,,,,,3529412,,,,,,,
3570,note_on,10,0,2,,,,,,,,,1,,,58,0
3570,note_on,0,0,2,,,,,,,,,1,,,57,101
3579,note_on,0,0,1,,,,,,,,,0,,,64,49
3579,note_on,0,0,1,,,,,,,,,0,,,60,49
3579,control_change,15,0,1,,,,,,,,,0,64,0,,
3579,note_on,0,0,1,,,,,,,,,0,,,70,49
3583,note_on,0,0,1,,,,,,,,,0,,,60,0
3583,note_on,4,0,1,,,,,,,,,0,,,70,0
3583,note_on,0,0,1,,,,,,,,,0,,,64,0
3585,set_tempo,15,1,0,,,,,,4000000,,,,,,,
3590,note_on,0,0,2,,,,,,,,,1,,,55,101
3590,note_on,20,0,2,,,,,,,,,1,,,57,0
3600,note_on,10,0,2,,,,,,,,,1,,,55,0
3600,control_change,121,0,3,,,,,,,,,2,64,127,,
3600,note_on,120,0,4,,,,,,,,,3,,,36,0
3600,note_on,0,0,4,,,,,,,,,3,,,53,36
3600,set_tempo,15,1,0,,,,,,2142857,,,,,,,
3600,control_change,17,0,1,,,,,,,,,0,64,127,,
3600,note_on,0,0,4,,,,,,,,,3,,,41,36
3600,note_on,0,0,2,,,,,,,,,1,,,53,101
3620,note_on,20,0,3,,,,,,,,,2,,,57,36
3620,note_on,0,0,3,,,,,,,,,2,,,60,36
3620,note_on,0,0,1,,,,,,,,,0,,,69,49
3620,note_on,20,0,1,,,,,,,,,0,,,65,49
3624,note_on,0,0,1,,,,,,,,,0,,,65,0
3624,note_on,4,0,3,,,,,,,,,2,,,60,0
3624,note_on,0,0,3,,,,,,,,,2,,,57,0
3624,note_on,4,0,1,,,,,,,,,0,,,69,0
3639,note_on,0,0,3,,,,,,,,,2,,,57,36
3639,note_on,0,0,1,,,,,,,,,0,,,72,49
3639,note_on,15,0,1,,,,,,,,,0,,,69,49
3639,note_on,15,0,3,,,,,,,,,2,,,53,36
3643,note_on,0,0,1,,,,,,,,,0,,,69,0
3643,note_on,0,0,3,,,,,,,,,2,,,53,0
3643,note_on,4,0,3,,,,,,,,,2,,,57,0
3643,note_on,4,0,1,,,,,,,,,0,,,72,0
3660,note_on,17,0,3,,,,,,,,,2,,,57,36
3660,note_on,0,0,1,,,,,,,,,0,,,77,49
3660,note_on,17,0,1,,,,,,,,,0,,,65,49
3660,note_on,0,0,3,,,,,,,,,2,,,60,36
3660,note_on,0,0,1,,,,,,,,,0,,,69,49
3664,note_on,4,0,1,,,,,,,,,0,,,77,0
3664,note_on,0,0,3,,,,,,,,,2,,,57,0
3664,note_on,4,0,3,,,,,,,,,2,,,60,0
3664,note_on,0,0,1,,,,,,,,,0,,,65,0
3664,note_on,0,0,1,,,,,,,,,0,,,69,0
3680,note_on,16,0,3,,,,,,,,,2,,,60,36
3680,note_on,0,0,3,,,,,,,,,2,,,65,36
3680,note_on,0,0,1,,,,,,,,,0,,,72,49
3680,note_on,16,0,1,,,,,,,,,0,,,69,49
3684,note_on,0,0,1,,,,,,,,,0,,,69,0
3684,note_on,4,0,3,,,,,,,,,2,,,65,0
3684,note_on,0,0,3,,,,,,,,,2,,,60,0
3684,note_on,4,0,1,,,,,,,,,0,,,72,0
3699,note_on,0,0,3,,,,,,,,,2,,,60,36
3699,note_on,15,0,1,,,,,,,,,0,,,65,49
3699,note_on,15,0,3,,,,,,,,,2,,,57,36
3699,note_on,0,0,1,,,,,,,,,0,,,69,49
3703,note_on,4,0,3,,,,,,,,,2,,,60,0
3703,note_on,0,0,1,,,,,,,,,0,,,65,0
3703,note_on,4,0,1,,,,,,,,,0,,,69,0
3703,note_on,0,0,3,,,,,,,,,2,,,57,0
3720,note_on,0,0,4,,,,,,,,,3,,,53,36
3720,note_on,0,0,4,,,,,,,,,3,,,41,36
3720,note_on,120,0,4,,,,,,,,,3,,,53,0
3720,note_on,0,0,4,,,,,,,,,3,,,41,0
3740,note_on,37,0,1,,,,,,,,,0,,,65,49
3740,note_on,0,0,1,,,,,,,,,0,,,69,49
3740,note_on,0,0,3,,,,,,,,,2,,,60,36
3740,note_on,37,0,3,,,,,,,,,2,,,57,36
3744,note_on,4,0,1,,,,,,,,,0,,,69,0
3744,note_on,4,0,3,,,,,,,,,2,,,60,0
3744,note_on,0,0,3,,,,,,,,,2,,,57,0
3744,note_on,0,0,1,,,,,,,,,0,,,65,0
3759,note_on,15,0,1,,,,,,,,,0,,,69,49
3759,note_on,15,0,3,,,,,,,,,2,,,60,36
3759,note_on,0,0,1,,,,,,,,,0,,,72,49
3759,note_on,0,0,3,,,,,,,,,2,,,65,36
3763,note_on,4,0,3,,,,,,,,,2,,,65,0
3763,note_on,4,0,1,,,,,,,,,0,,,72,0
3763,note_on,0,0,1,,,,,,,,,0,,,69,0
3763,note_on,0,0,3,,,,,,,,,2,,,60,0
3780,note_on,17,0,1,,,,,,,,,0,,,69,49
3780,note_on,60,0,4,,,,,,,,,3,,,53,0
3780,note_on,0,0,1,,,,,,,,,0,,,77,49
3780,note_on,0,0,2,,,,,,,,,1,,,65,101
3780,note_on,180,0,2,,,,,,,,,1,,,53,0
3780,note_on,0,0,4,,,,,,,,,3,,,41,0
3780,note_on,0,0,4,,,,,,,,,3,,,53,36
3784,note_on,0,0,1,,,,,,,,,0,,,69,0
3784,note_on,4,0,1,,,,,,,,,0,,,77,0
3800,note_on,37,0,3,,,,,,,,,2,,,60,36
3800,note_on,0,0,3,,,,,,,,,2,,,65,36
3800,note_on,16,0,1,,,,,,,,,0,,,69,49
3800,note_on,0,0,1,,,,,,,,,0,,,72,49
3804,note_on,4,0,3,,,,,,,,,2,,,65,0
3804,note_on,4,0,1,,,,,,,,,0,,,72,0
3804,note_on,0,0,3,,,,,,,,,2,,,60,0
3804,note_on,0,0,1,,,,,,,,,0,,,69,0
3819,note_on,0,0,3,,,,,,,,,2,,,57,36
3819,note_on,0,0,3,,,,,,,,,2,,,60,36
3819,note_on,0,0,1,,,,,,,,,0,,,65,49
3819,control_change,15,0,1,,,,,,,,,0,64,0,,
3819,note_on,0,0,1,,,,,,,,,0,,,69,49
3819,control_change,15,0,3,,,,,,,,,2,64,0,,
3839,note_on,20,0,3,,,,,,,,,2,,,60,0
3839,note_on,0,0,1,,,,,,,,,0,,,65,0
3839,note_on,20,0,1,,,,,,,,,0,,,69,0
3839,note_on,0,0,3,,,,,,,,,2,,,57,0
3840,note_on,0,0,4,,,,,,,,,3,,,41,49
3840,note_on,60,0,2,,,,,,,,,1,,,65,0
3840,note_on,0,0,4,,,,,,,,,3,,,29,49
3840,note_on,0,0,2,,,,,,,,,1,,,60,119
3840,control_change,1,0,3,,,,,,,,,2,64,127,,
3840,note_on,0,0,2,,,,,,,,,1,,,72,127
3840,note_on,60,0,4,,,,,,,,,3,,,53,0
3840,control_change,1,0,1,,,,,,,,,0,64,127,,
3860,note_on,20,0,1,,,,,,,,,0,,,63,62
3860,note_on,0,0,3,,,,,,,,,2,,,60,49
3860,note_on,0,0,1,,,,,,,,,0,,,69,62
3860,note_on,20,0,3,,,,,,,,,2,,,53,49
3860,note_on,0,0,3,,,,,,,,,2,,,57,49
3864,note_on,4,0,3,,,,,,,,,2,,,60,0
3864,note_on,0,0,1,,,,,,,,,0,,,63,0
3864,note_on,0,0,3,,,,,,,,,2,,,53,0
3864,note_on,4,0,1,,,,,,,,,0,,,69,0
3864,note_on,0,0,3,,,,,,,,,2,,,57,0
3879,note_on,0,0,1,,,,,,,,,0,,,72,62
3879,note_on,0,0,3,,,,,,,,,2,,,60,49
3879,note_on,15,0,1,,,,,,,,,0,,,63,62
3879,note_on,15,0,3,,,,,,,,,2,,,57,49
3879,note_on,0,0,3,,,,,,,,,2,,,65,49
3883,note_on,4,0,1,,,,,,,,,0,,,72,0
3883,note_on,4,0,3,,,,,,,,,2,,,65,0
3883,note_on,0,0,3,,,,,,,,,2,,,57,0
3883,note_on,0,0,3,,,,,,,,,2,,,60,0
3883,note_on,0,0,1,,,,,,,,,0,,,63,0
3900,note_on,0,0,3,,,,,,,,,2,,,72,49
3900,note_on,17,0,1,,,,,,,,,0,,,75,62
3900,note_on,0,0,1,,,,,,,,,0,,,89,62
3900,note_on,17,0,3,,,,,,,,,2,,,69,49
3900,note_on,0,0,3,,,,,,,,,2,,,77,49
3904,note_on,4,0,3,,,,,,,,,2,,,77,0
3904,note_on,4,0,1,,,,,,,,,0,,,89,0
3904,note_on,0,0,3,,,,,,,,,2,,,69,0
3904,note_on,0,0,1,,,,,,,,,0,,,75,0
3904,note_on,0,0,3,,,,,,,,,2,,,72,0
3920,note_on,16,0,3,,,,,,,,,2,,,65,49
3920,note_on,0,0,3,,,,,,,,,2,,,69,49
3920,note_on,0,0,3,,,,,,,,,2,,,72,49
3920,note_on,0,0,1,,,,,,,,,0,,,84,62
3920,note_on,16,0,1,,,,,,,,,0,,,75,62
3924,note_on,0,0,3,,,,,,,,,2,,,65,0
3924,note_on,0,0,3,,,,,,,,,2,,,69,0
3924,note_on,4,0,1,,,,,,,,,0,,,84,0
3924,note_on,0,0,1,,,,,,,,,0,,,75,0
3924,note_on,4,0,3,,,,,,,,,2,,,72,0
3939,note_on,15,0,3,,,,,,,,,2,,,65,49
3939,note_on,0,0,3,,,,,,,,,2,,,69,49
3939,note_on,15,0,1,,,,,,,,,0,,,75,62
3939,note_on,0,0,1,,,,,,,,,0,,,81,62
3943,note_on,4,0,3,,,,,,,,,2,,,69,0
3943,note_on,4,0,1,,,,,,,,,0,,,81,0
3943,note_on,0,0,1,,,,,,,,,0,,,75,0
3943,note_on,0,0,3,,,,,,,,,2,,,65,0
3945,note_on,0,0,2,,,,,,,,,1,,,60,101
3945,note_on,105,0,2,,,,,,,,,1,,,72,0
3945,note_on,0,0,2,,,,,,,,,1,,,60,0
3945,note_on,0,0,2,,,,,,,,,1,,,72,101
3960,note_on,0,0,2,,,,,,,,,1,,,72,101
3960,note_on,0,0,2,,,,,,,,,1,,,60,101
3960,note_on,0,0,4,,,,,,,,,3,,,29,0
3960,note_on,0,0,4,,,,,,,,,3,,,29,49
3960,note_on,0,0,2,,,,,,,,,1,,,60,0
3960,note_on,120,0,4,,,,,,,,,3,,,41,0
3960,note_on,0,0,4,,,,,,,,,3,,,41,49
3960,note_on,15,0,2,,,,,,,,,1,,,72,0
3980,note_on,0,0,3,,,,,,,,,2,,,60,49
3980,note_on,0,0,1,,,,,,,,,0,,,69,62
3980,note_on,37,0,1,,,,,,,,,0,,,63,62
3980,note_on,37,0,3,,,,,,,,,2,,,53,49
3980,note_on,0,0,3,,,,,,,,,2,,,57,49
3984,note_on,4,0,3,,,,,,,,,2,,,60,0
3984,note_on,0,0,3,,,,,,,,,2,,,57,0
3984,note_on,4,0,1,,,,,,,,,0,,,69,0
3984,note_on,0,0,3,,,,,,,,,2,,,53,0
3984,note_on,0,0,1,,,,,,,,,0,,,63,0
3999,note_on,0,0,3,,,,,,,,,2,,,60,49
3999,note_on,0,0,3,,,,,,,,,2,,,65,49
3999,note_on,0,0,1,,,,,,,,,0,,,72,62
3999,note_on,15,0,3,,,,,,,,,2,,,57,49
3999,note_on,15,0,1,,,,,,,,,0,,,63,62
4003,note_on,4,0,1,,,,,,,,,0,,,72,0
4003,note_on,0,0,3,,,,,,,,,2,,,60,0
4003,note_on,4,0,3,,,,,,,,,2,,,65,0
4003,note_on,0,0,3,,,,,,,,,2,,,57,0
4003,note_on,0,0,1,,,,,,,,,0,,,63,0
4005,note_on,0,0,2,,,,,,,,,1,,,71,101
4005,note_on,0,0,2,,,,,,,,,1,,,60,0
4005,note_on,0,0,2,,,,,,,,,1,,,59,101
4005,note_on,45,0,2,,,,,,,,,1,,,72,0
4020,note_on,15,0,2,,,,,,,,,1,,,71,0
4020,note_on,0,0,1,,,,,,,,,0,,,81,62
4020,note_on,0,0,2,,,,,,,,,1,,,72,101
4020,note_on,17,0,1,,,,,,,,,0,,,75,62
4020,note_on,17,0,3,,,,,,,,,2,,,60,49
4020,note_on,0,0,2,,,,,,,,,1,,,60,101
4020,note_on,0,0,1,,,,,,,,,0,,,89,62
4020,note_on,0,0,3,,,,,,,,,2,,,72,49
4020,note_on,0,0,2,,,,,,,,,1,,,59,0
4024,note_on,4,0,3,,,,,,,,,2,,,72,0
4024,note_on,0,0,1,,,,,,,,,0,,,75,0
4024,note_on,0,0,1,,,,,,,,,0,,,81,0
4024,note_on,0,0,3,,,,,,,,,2,,,60,0
4024,note_on,4,0,1,,,,,,,,,0,,,89,0
4040,note_on,0,0,3,,,,,,,,,2,,,69,49
4040,note_on,16,0,1,,,,,,,,,0,,,75,62
4040,note_on,0,0,1,,,,,,,,,0,,,84,62
4040,note_on,16,0,3,,,,,,,,,2,,,65,49
4040,note_on,0,0,1,,,,,,,,,0,,,81,62
4044,note_on,0,0,1,,,,,,,,,0,,,75,0
4044,note_on,4,0,3,,,,,,,,,2,,,69,0
4044,note_on,4,0,1,,,,,,,,,0,,,84,0
4044,note_on,0,0,1,,,,,,,,,0,,,81,0
4044,note_on,0,0,3,,,,,,,,,2,,,65,0
4059,control_change,15,0,3,,,,,,,,,2,64,0,,
4059,control_change,15,0,1,,,,,,,,,0,64,0,,
4059,note_on,0,0,3,,,,,,,,,2,,,77,49
4059,note_on,0,0,1,,,,,,,,,0,,,81,62
4059,note_on,0,0,3,,,,,,,,,2,,,69,49
4059,note_on,0,0,1,,,,,,,,,0,,,75,62
4065,note_on,0,0,2,,,,,,,,,1,,,60,0
4065,note_on,45,0,2,,,,,,,,,1,,,72,0
4065,note_on,0,0,2,,,,,,,,,1,,,74,101
4065,note_on,0,0,2,,,,,,,,,1,,,62,101
4079,note_on,0,0,3,,,,,,,,,2,,,69,0
4079,note_on,0,0,1,,,,,,,,,0,,,75,0
4079,note_on,20,0,3,,,,,,,,,2,,,77,0
4079,note_on,20,0,1,,,,,,,,,0,,,81,0
4080,note_on,0,0,4,,,,,,,,,3,,,29,49
4080,note_on,0,0,4,,,,,,,,,3,,,29,0
4080,note_on,120,0,4,,,,,,,,,3,,,41,0
4080,note_on,15,0,2,,,,,,,,,1,,,74,0
4080,note_on,0,0,4,,,,,,,,,3,,,41,49
4080,control_change,1,0,1,,,,,,,,,0,64,127,,
4080,control_change,1,0,3,,,,,,,,,2,64,127,,
4080,note_on,0,0,2,,,,,,,,,1,,,60,101
4080,note_on,0,0,2,,,,,,,,,1,,,62,0
4080,note_on,0,0,2,,,,,,,,,1,,,72,101
4100,note_on,20,0,1,,,,,,,,,0,,,62,62
4100,note_on,0,0,1,,,,,,,,,0,,,65,62
4100,note_on,0,0,3,,,,,,,,,2,,,53,49
4100,note_on,0,0,3,,,,,,,,,2,,,58,49
4100,note_on,20,0,3,,,,,,,,,2,,,50,49
4104,note_on,4,0,3,,,,,,,,,2,,,58,0
4104,note_on,0,0,1,,,,,,,,,0,,,62,0
4104,note_on,0,0,3,,,,,,,,,2,,,53,0
4104,note_on,4,0,1,,,,,,,,,0,,,65,0
4104,note_on,0,0,3,,,,,,,,,2,,,50,0
4110,note_on,0,0,2,,,,,,,,,1,,,74,101
4110,note_on,0,0,2,,,,,,,,,1,,,62,101
4110,note_on,0,0,2,,,,,,,,,1,,,60,0
4110,note_on,30,0,2,,,,,,,,,1,,,72,0
4119,note_on,15,0,1,,,,,,,,,0,,,65,62
4119,note_on,0,0,3,,,,,,,,,2,,,62,49
4119,note_on,0,0,1,,,,,,,,,0,,,74,62
4119,note_on,15,0,3,,,,,,,,,2,,,53,49
4119,note_on,0,0,3,,,,,,,,,2,,,58,49
4123,note_on,0,0,1,,,,,,,,,0,,,65,0
4123,note_on,0,0,3,,,,,,,,,2,,,53,0
4123,note_on,4,0,3,,,,,,,,,2,,,62,0
4123,note_on,0,0,3,,,,,,,,,2,,,58,0
4123,note_on,4,0,1,,,,,,,,,0,,,74,0
4140,note_on,0,0,3,,,,,,,,,2,,,70,49
4140,note_on,30,0,2,,,,,,,,,1,,,74,0
4140,note_on,0,0,2,,,,,,,,,1,,,70,101
4140,note_on,0,0,1,,,,,,,,,0,,,89,62
4140,note_on,17,0,3,,,,,,,,,2,,,58,49
4140,note_on,17,0,1,,,,,,,,,0,,,74,62
4140,note_on,0,0,1,,,,,,,,,0,,,82,62
4140,note_on,0,0,2,,,,,,,,,1,,,62,0
4140,note_on,0,0,2,,,,,,,,,1,,,58,101
4144,note_on,0,0,1,,,,,,,,,0,,,74,0
4144,note_on,0,0,3,,,,,,,,,2,,,58,0
4144,note_on,0,0,1,,,,,,,,,0,,,82,0
4144,note_on,4,0,3,,,,,,,,,2,,,70,0
4144,note_on,4,0,1,,,,,,,,,0,,,89,0
4160,note_on,0,0,3,,,,,,,,,2,,,65,49
4160,note_on,0,0,1,,,,,,,,,0,,,86,62
4160,note_on,16,0,1,,,,,,,,,0,,,77,62
4160,note_on,16,0,3,,,,,,,,,2,,,62,49
4164,note_on,4,0,1,,,,,,,,,0,,,86,0
4164,note_on,0,0,3,,,,,,,,,2,,,62,0
4164,note_on,4,0,3,,,,,,,,,2,,,65,0
4164,note_on,0,0,1,,,,,,,,,0,,,77,0
4179,note_on,0,0,3,,,,,,,,,2,,,70,49
4179,note_on,15,0,1,,,,,,,,,0,,,74,62
4179,note_on,15,0,3,,,,,,,,,2,,,65,49
4179,note_on,0,0,1,,,,,,,,,0,,,82,62
4183,note_on,0,0,3,,,,,,,,,2,,,65,0
4183,note_on,0,0,1,,,,,,,,,0,,,74,0
4183,note_on,4,0,3,,,,,,,,,2,,,70,0
4183,note_on,4,0,1,,,,,,,,,0,,,82,0
4200,note_on,0,0,4,,,,,,,,,3,,,41,49
4200,note_on,0,0,4,,,,,,,,,3,,,29,49
4200,note_on,120,0,4,,,,,,,,,3,,,41,0
4200,note_on,0,0,4,,,,,,,,,3,,,29,0
4220,note_on,0,0,3,,,,,,,,,2,,,53,49
4220,note_on,0,0,1,,,,,,,,,0,,,65,62
4220,note_on,0,0,3,,,,,,,,,2,,,58,49
4220,note_on,37,0,1,,,,,,,,,0,,,62,62
4220,note_on,37,0,3,,,,,,,,,2,,,50,49
4224,note_on,0,0,1,,,,,,,,,0,,,62,0
4224,note_on,0,0,3,,,,,,,,,2,,,50,0
4224,note_on,0,0,3,,,,,,,,,2,,,53,0
4224,note_on,4,0,3,,,,,,,,,2,,,58,0
4224,note_on,4,0,1,,,,,,,,,0,,,65,0
4239,note_on,0,0,3,,,,,,,,,2,,,58,49
4239,note_on,15,0,1,,,,,,,,,0,,,65,62
4239,note_on,0,0,3,,,,,,,,,2,,,62,49
4239,note_on,15,0,3,,,,,,,,,2,,,53,49
4239,note_on,0,0,1,,,,,,,,,0,,,74,62
4243,note_on,4,0,3,,,,,,,,,2,,,62,0
4243,note_on,0,0,3,,,,,,,,,2,,,58,0
4243,note_on,4,0,1,,,,,,,,,0,,,74,0
4243,note_on,0,0,1,,,,,,,,,0,,,65,0
4243,note_on,0,0,3,,,,,,,,,2,,,53,0
4260,note_on,0,0,2,,,,,,,,,1,,,58,101
4260,note_on,0,0,2,,,,,,,,,1,,,70,101
4260,note_on,0,0,2,,,,,,,,,1,,,58,0
4260,note_on,17,0,3,,,,,,,,,2,,,58,49
4260,note_on,120,0,2,,,,,,,,,1,,,70,0
4260,note_on,0,0,3,,,,,,,,,2,,,70,49
4260,note_on,0,0,1,,,,,,,,,0,,,82,62
4260,note_on,0,0,1,,,,,,,,,0,,,89,62
4260,note_on,17,0,1,,,,,,,,,0,,,74,62
4264,note_on,0,0,3,,,,,,,,,2,,,58,0
4264,note_on,4,0,1,,,,,,,,,0,,,89,0
4264,note_on,0,0,1,,,,,,,,,0,,,74,0
4264,note_on,4,0,3,,,,,,,,,2,,,70,0
4264,note_on,0,0,1,,,,,,,,,0,,,82,0
4280,note_on,16,0,3,,,,,,,,,2,,,62,49
4280,note_on,16,0,1,,,,,,,,,0,,,77,62
4280,note_on,0,0,3,,,,,,,,,2,,,65,49
4280,note_on,0,0,1,,,,,,,,,0,,,82,62
4280,note_on,0,0,1,,,,,,,,,0,,,86,62
4284,note_on,4,0,3,,,,,,,,,2,,,65,0
4284,note_on,0,0,1,,,,,,,,,0,,,82,0
4284,note_on,0,0,1,,,,,,,,,0,,,77,0
4284,note_on,4,0,1,,,,,,,,,0,,,86,0
4284,note_on,0,0,3,,,,,,,,,2,,,62,0
4299,control_change,15,0,3,,,,,,,,,2,64,0,,
4299,note_on,0,0,1,,,,,,,,,0,,,82,62
4299,note_on,0,0,1,,,,,,,,,0,,,77,62
4299,note_on,0,0,1,,,,,,,,,0,,,74,62
4299,note_on,0,0,3,,,,,,,,,2,,,65,49
4299,control_change,15,0,1,,,,,,,,,0,64,0,,
4299,note_on,0,0,3,,,,,,,,,2,,,70,49
4319,note_on,20,0,1,,,,,,,,,0,,,82,0
4319,note_on,0,0,1,,,,,,,,,0,,,77,0
4319,note_on,0,0,1,,,,,,,,,0,,,74,0
4319,note_on,20,0,3,,,,,,,,,2,,,70,0
4319,note_on,0,0,3,,,,,,,,,2,,,65,0
4320,control_change,0,0,3,,,,,,,,,2,64,127,,
4320,note_on,60,0,2,,,,,,,,,1,,,70,0
4320,note_on,0,0,4,,,,,,,,,3,,,29,0
4320,note_on,0,0,2,,,,,,,,,1,,,72,127
4320,control_change,1,0,1,,,,,,,,,0,64,127,,
4320,note_on,0,0,2,,,,,,,,,1,,,58,0
4320,note_on,120,0,4,,,,,,,,,3,,,41,0
4320,note_on,0,0,4,,,,,,,,,3,,,41,62
4320,note_on,0,0,4,,,,,,,,,3,,,29,62
4320,control_change,1,0,3,,,,,,,,,2,64,127,,
4320,note_on,0,0,2,,,,,,,,,1,,,60,119
4340,note_on,0,0,3,,,,,,,,,2,,,60,62
4340,note_on,20,0,3,,,,,,,,,2,,,53,62
4340,note_on,20,0,1,,,,,,,,,0,,,63,75
4340,note_on,0,0,1,,,,,,,,,0,,,69,75
4340,note_on,0,0,3,,,,,,,,,2,,,57,62
4344,note_on,4,0,1,,,,,,,,,0,,,69,0
4344,note_on,4,0,3,,,,,,,,,2,,,60,0
4344,note_on,0,0,3,,,,,,,,,2,,,57,0
4344,note_on,0,0,1,,,,,,,,,0,,,63,0
4344,note_on,0,0,3,,,,,,,,,2,,,53,0
4359,note_on,15,0,1,,,,,,,,,0,,,63,75
4359,note_on,15,0,3,,,,,,,,,2,,,57,62
4359,note_on,0,0,3,,,,,,,,,2,,,60,62
4359,note_on,0,0,3,,,,,,,,,2,,,65,62
4359,note_on,0,0,1,,,,,,,,,0,,,72,75
4363,note_on,4,0,1,,,,,,,,,0,,,72,0
4363,note_on,0,0,1,,,,,,,,,0,,,63,0
4363,note_on,0,0,3,,,,,,,,,2,,,60,0
4363,note_on,4,0,3,,,,,,,,,2,,,65,0
4363,note_on,0,0,3,,,,,,,,,2,,,57,0
4380,note_on,0,0,1,,,,,,,,,0,,,89,75
4380,note_on,0,0,3,,,,,,,,,2,,,72,62
4380,note_on,0,0,3,,,,,,,,,2,,,77,62
4380,note_on,0,0,1,,,,,,,,,0,,,81,75
4380,note_on,17,0,1,,,,,,,,,0,,,75,75
4380,note_on,17,0,3,,,,,,,,,2,,,69,62
4384,note_on,4,0,3,,,,,,,,,2,,,77,0
4384,note_on,0,0,1,,,,,,,,,0,,,81,0
4384,note_on,0,0,3,,,,,,,,,2,,,69,0
4384,note_on,4,0,1,,,,,,,,,0,,,89,0
4384,note_on,0,0,1,,,,,,,,,0,,,75,0
4384,note_on,0,0,3,,,,,,,,,2,,,72,0
4400,note_on,0,0,3,,,,,,,,,2,,,69,62
4400,note_on,0,0,3,,,,,,,,,2,,,72,62
4400,note_on,16,0,1,,,,,,,,,0,,,75,75
4400,note_on,16,0,3,,,,,,,,,2,,,65,62
4400,note_on,0,0,1,,,,,,,,,0,,,84,75
4400,note_on,0,0,1,,,,,,,,,0,,,81,75
4404,note_on,4,0,1,,,,,,,,,0,,,84,0
4404,note_on,0,0,3,,,,,,,,,2,,,65,0
4404,note_on,0,0,3,,,,,,,,,2,,,69,0
4404,note_on,0,0,1,,,,,,,,,0,,,75,0
4404,note_on,0,0,1,,,,,,,,,0,,,81,0
4404,note_on,4,0,3,,,,,,,,,2,,,72,0
4419,note_on,0,0,3,,,,,,,,,2,,,69,62
4419,control_change,15,0,3,,,,,,,,,2,64,0,,
4419,note_on,0,0,3,,,,,,,,,2,,,65,62
4419,control_change,15,0,1,,,,,,,,,0,64,0,,
4419,note_on,0,0,1,,,,,,,,,0,,,75,75
4419,note_on,0,0,1,,,,,,,,,0,,,81,75
4423,note_on,4,0,1,,,,,,,,,0,,,81,0
4423,note_on,4,0,3,,,,,,,,,2,,,69,0
4423,note_on,0,0,3,,,,,,,,,2,,,65,0
4423,note_on,0,0,1,,,,,,,,,0,,,75,0
4425,note_on,0,0,2,,,,,,,,,1,,,60,0
4425,note_on,0,0,2,,,,,,,,,1,,,72,101
4425,note_on,105,0,2,,,,,,,,,1,,,72,0
4425,note_on,0,0,2,,,,,,,,,1,,,60,101
4440,control_change,17,0,3,,,,,,,,,2,64,127,,
4440,note_on,0,0,2,,,,,,,,,1,,,60,0
4440,note_on,0,0,2,,,,,,,,,1,,,60,101
4440,note_on,0,0,2,,,,,,,,,1,,,72,101
4440,note_on,15,0,2,,,,,,,,,1,,,72,0
4440,note_on,0,0,4,,,,,,,,,3,,,29,62
4440,note_on,0,0,4,,,,,,,,,3,,,41,62
4440,note_on,0,0,4,,,,,,,,,3,,,29,0
4440,control_change,17,0,1,,,,,,,,,0,64,127,,
4440,note_on,120,0,4,,,,,,,,,3,,,41,0
4455,set_tempo,855,1,0,,,,,,2222222,,,,,,,
4460,note_on,20,0,3,,,,,,,,,2,,,53,62
4460,note_on,0,0,2,,,,,,,,,1,,,71,101
4460,note_on,0,0,2,,,,,,,,,1,,,60,0
4460,note_on,0,0,2,,,,,,,,,1,,,59,101
4460,note_on,20,0,2,,,,,,,,,1,,,72,0
4460,note_on,0,0,1,,,,,,,,,0,,,69,75
4460,note_on,0,0,1,,,,,,,,,0,,,71,75
4460,note_on,0,0,3,,,,,,,,,2,,,57,62
4460,note_on,0,0,3,,,,,,,,,2,,,59,62
4460,note_on,20,0,1,,,,,,,,,0,,,63,75
4464,note_on,0,0,1,,,,,,,,,0,,,69,0
4464,note_on,0,0,3,,,,,,,,,2,,,53,0
4464,note_on,0,0,3,,,,,,,,,2,,,57,0
4464,note_on,0,0,1,,,,,,,,,0,,,63,0
4464,note_on,4,0,3,,,,,,,,,2,,,59,0
4464,note_on,4,0,1,,,,,,,,,0,,,71,0
4470,set_tempo,15,1,0,,,,,,2400000,,,,,,,
4479,note_on,0,0,2,,,,,,,,,1,,,72,101
4479,note_on,0,0,1,,,,,,,,,0,,,72,75
4479,note_on,0,0,1,,,,,,,,,0,,,77,75
4479,note_on,15,0,1,,,,,,,,,0,,,69,75
4479,note_on,15,0,3,,,,,,,,,2,,,57,62
4479,note_on,19,0,2,,,,,,,,,1,,,60,101
4479,note_on,0,0,3,,,,,,,,,2,,,60,62
4479,note_on,0,0,3,,,,,,,,,2,,,65,62
4480,note_on,0,0,2,,,,,,,,,1,,,59,0
4480,note_on,1,0,2,,,,,,,,,1,,,71,0
4483,note_on,4,0,3,,,,,,,,,2,,,65,0
4483,note_on,0,0,1,,,,,,,,,0,,,69,0
4483,note_on,0,0,3,,,,,,,,,2,,,57,0
4483,note_on,0,0,3,,,,,,,,,2,,,60,0
4483,note_on,4,0,1,,,,,,,,,0,,,77,0
4483,note_on,0,0,1,,,,,,,,,0,,,72,0
4485,set_tempo,15,1,0,,,,,,2608696,,,,,,,
4499,note_on,0,0,2,,,,,,,,,1,,,72,0
4499,note_on,19,0,2,,,,,,,,,1,,,60,0
4500,note_on,17,0,3,,,,,,,,,2,,,63,62
4500,note_on,0,0,3,,,,,,,,,2,,,75,62
4500,note_on,0,0,2,,,,,,,,,1,,,75,127
4500,note_on,17,0,1,,,,,,,,,0,,,77,75
4500,note_on,0,0,1,,,,,,,,,0,,,89,75
4500,note_on,1,0,2,,,,,,,,,1,,,63,119
4500,note_on,0,0,1,,,,,,,,,0,,,81,75
4500,set_tempo,15,1,0,,,,,,2857143,,,,,,,
4504,note_on,0,0,1,,,,,,,,,0,,,77,0
4504,note_on,0,0,1,,,,,,,,,0,,,81,0
4504,note_on,4,0,1,,,,,,,,,0,,,89,0
4504,note_on,4,0,3,,,,,,,,,2,,,75,0
4504,note_on,0,0,3,,,,,,,,,2,,,63,0
4515,set_tempo,15,1,0,,,,,,3157895,,,,,,,
4520,note_on,16,0,3,,,,,,,,,2,,,62,62
4520,note_on,0,0,2,,,,,,,,,1,,,74,127
4520,note_on,0,0,2,,,,,,,,,1,,,63,0
4520,note_on,0,0,2,,,,,,,,,1,,,62,119
4520,note_on,0,0,3,,,,,,,,,2,,,74,62
4520,note_on,16,0,1,,,,,,,,,0,,,77,75
4520,note_on,0,0,3,,,,,,,,,2,,,65,62
4520,note_on,20,0,2,,,,,,,,,1,,,75,0
4520,note_on,0,0,1,,,,,,,,,0,,,81,75
4524,note_on,0,0,3,,,,,,,,,2,,,65,0
4524,note_on,0,0,3,,,,,,,,,2,,,62,0
4524,note_on,0,0,1,,,,,,,,,0,,,77,0
4524,note_on,4,0,3,,,,,,,,,2,,,74,0
4524,note_on,4,0,1,,,,,,,,,0,,,81,0
4530,set_tempo,15,1,0,,,,,,3529412,,,,,,,
4539,note_on,0,0,1,,,,,,,,,0,,,75,75
4539,note_on,19,0,2,,,,,,,,,1,,,60,119
4539,note_on,0,0,3,,,,,,,,,2,,,72,62
4539,note_on,0,0,2,,,,,,,,,1,,,72,127
4539,control_change,15,0,1,,,,,,,,,0,64,0,,
4539,note_on,0,0,3,,,,,,,,,2,,,60,62
4539,note_on,0,0,3,,,,,,,,,2,,,69,62
4539,control_change,15,0,3,,,,,,,,,2,64,0,,
4539,note_on,0,0,1,,,,,,,,,0,,,77,75
4540,note_on,1,0,2,,,,,,,,,1,,,74,0
4540,note_on,0,0,2,,,,,,,,,1,,,62,0
4543,note_on,4,0,1,,,,,,,,,0,,,77,0
4543,note_on,0,0,3,,,,,,,,,2,,,69,0
4543,note_on,4,0,3,,,,,,,,,2,,,72,0
4543,note_on,0,0,3,,,,,,,,,2,,,60,0
4543,note_on,0,0,1,,,,,,,,,0,,,75,0
4545,set_tempo,15,1,0,,,,,,4000000,,,,,,,
4559,note_on,19,0,2,,,,,,,,,1,,,60,0
4559,note_on,0,0,2,,,,,,,,,1,,,72,0
4560,note_on,0,0,4,,,,,,,,,3,,,31,75
4560,note_on,0,0,4,,,,,,,,,3,,,43,75
4560,note_on,0,0,4,,,,,,,,,3,,,29,0
4560,note_on,0,0,2,,,,,,,,,1,,,70,101
4560,note_on,120,0,4,,,,,,,,,3,,,41,0
4560,set_tempo,15,1,0,,,,,,2142857,,,,,,,
4560,control_change,17,0,1,,,,,,,,,0,64,127,,
4560,control_change,17,0,3,,,,,,,,,2,64,127,,
4560,note_on,1,0,2,,,,,,,,,1,,,58,101
4580,note_on,20,0,3,,,,,,,,,2,,,50,75
4580,note_on,0,0,1,,,,,,,,,0,,,67,88
4580,note_on,0,0,3,,,,,,,,,2,,,55,75
4580,note_on,0,0,3,,,,,,,,,2,,,58,75
4580,note_on,20,0,1,,,,,,,,,0,,,62,88
4584,note_on,4,0,3,,,,,,,,,2,,,58,0
4584,note_on,0,0,3,,,,,,,,,2,,,55,0
4584,note_on,0,0,1,,,,,,,,,0,,,62,0
4584,note_on,4,0,1,,,,,,,,,0,,,67,0
4584,note_on,0,0,3,,,,,,,,,2,,,50,0
4599,note_on,0,0,1,,,,,,,,,0,,,70,88
4599,note_on,0,0,3,,,,,,,,,2,,,58,75
4599,note_on,15,0,3,,,,,,,,,2,,,55,75
4599,note_on,15,0,1,,,,,,,,,0,,,67,88
4599,note_on,0,0,3,,,,,,,,,2,,,62,75
4603,note_on,4,0,1,,,,,,,,,0,,,70,0
4603,note_on,0,0,3,,,,,,,,,2,,,55,0
4603,note_on,0,0,3,,,,,,,,,2,,,58,0
4603,note_on,0,0,1,,,,,,,,,0,,,67,0
4603,note_on,4,0,3,,,,,,,,,2,,,62,0
4620,note_on,17,0,3,,,,,,,,,2,,,62,75
4620,note_on,0,0,1,,,,,,,,,0,,,86,88
4620,note_on,0,0,1,,,,,,,,,0,,,82,88
4620,note_on,0,0,3,,,,,,,,,2,,,70,75
4620,note_on,0,0,3,,,,,,,,,2,,,67,75
4620,note_on,17,0,1,,,,,,,,,0,,,74,88
4624,note_on,4,0,1,,,,,,,,,0,,,86,0
4624,note_on,0,0,1,,,,,,,,,0,,,74,0
4624,note_on,0,0,3,,,,,,,,,2,,,67,0
4624,note_on,0,0,3,,,,,,,,,2,,,62,0
4624,note_on,0,0,1,,,,,,,,,0,,,82,0
4624,note_on,4,0,3,,,,,,,,,2,,,70,0
4640,note_on,16,0,1,,,,,,,,,0,,,74,88
4640,note_on,0,0,3,,,,,,,,,2,,,62,75
4640,note_on,0,0,3,,,,,,,,,2,,,67,75
4640,note_on,0,0,1,,,,,,,,,0,,,82,88
4640,note_on,16,0,3,,,,,,,,,2,,,58,75
4640,note_on,0,0,1,,,,,,,,,0,,,79,88
4644,note_on,4,0,1,,,,,,,,,0,,,82,0
4644,note_on,4,0,3,,,,,,,,,2,,,67,0
4644,note_on,0,0,3,,,,,,,,,2,,,62,0
4644,note_on,0,0,3,,,,,,,,,2,,,58,0
4644,note_on,0,0,1,,,,,,,,,0,,,79,0
4644,note_on,0,0,1,,,,,,,,,0,,,74,0
4659,note_on,0,0,3,,,,,,,,,2,,,70,75
4659,note_on,0,0,3,,,,,,,,,2,,,67,75
4659,note_on,15,0,1,,,,,,,,,0,,,74,88
4659,note_on,15,0,3,,,,,,,,,2,,,62,75
4659,note_on,0,0,1,,,,,,,,,0,,,79,88
4663,note_on,0,0,3,,,,,,,,,2,,,62,0
4663,note_on,4,0,3,,,,,,,,,2,,,70,0
4663,note_on,0,0,3,,,,,,,,,2,,,67,0
4663,note_on,4,0,1,,,,,,,,,0,,,79,0
4663,note_on,0,0,1,,,,,,,,,0,,,74,0
4680,note_on,120,0,4,,,,,,,,,3,,,43,0
4680,note_on,0,0,4,,,,,,,,,3,,,31,0
4680,note_on,0,0,4,,,,,,,,,3,,,31,75
4680,note_on,120,0,2,,,,,,,,,1,,,70,0
4680,note_on,0,0,2,,,,,,,,,1,,,58,0
4680,note_on,0,0,4,,,,,,,,,3,,,43,75
4700,note_on,37,0,3,,,,,,,,,2,,,50,75
4700,note_on,37,0,1,,,,,,,,,0,,,58,88
4700,note_on,0,0,1,,,,,,,,,0,,,62,88
4700,note_on,0,0,3,,,,,,,,,2,,,55,75
4704,note_on,0,0,3,,,,,,,,,2,,,50,0
4704,note_on,4,0,3,,,,,,,,,2,,,55,0
4704,note_on,0,0,1,,,,,,,,,0,,,58,0
4704,note_on,4,0,1,,,,,,,,,0,,,62,0
4719,note_on,0,0,1,,,,,,,,,0,,,67,88
4719,note_on,15,0,3,,,,,,,,,2,,,55,75
4719,note_on,15,0,1,,,,,,,,,0,,,58,88
4719,note_on,0,0,3,,,,,,,,,2,,,62,75
4723,note_on,4,0,3,,,,,,,,,2,,,62,0
4723,note_on,0,0,1,,,,,,,,,0,,,58,0
4723,note_on,0,0,3,,,,,,,,,2,,,55,0
4723,note_on,4,0,1,,,,,,,,,0,,,67,0
4740,note_on,0,0,2,,,,,,,,,1,,,70,101
4740,note_on,17,0,1,,,,,,,,,0,,,70,88
4740,note_on,0,0,1,,,,,,,,,0,,,82,88
4740,note_on,0,0,1,,,,,,,,,0,,,79,88
4740,note_on,17,0,3,,,,,,,,,2,,,58,75
4740,note_on,60,0,2,,,,,,,,,1,,,58,101
4744,note_on,0,0,1,,,,,,,,,0,,,79,0
4744,note_on,0,0,1,,,,,,,,,0,,,70,0
4744,note_on,4,0,3,,,,,,,,,2,,,58,0
4744,note_on,4,0,1,,,,,,,,,0,,,82,0
4760,note_on,16,0,3,,,,,,,,,2,,,62,75
4760,note_on,16,0,1,,,,,,,,,0,,,74,88
4760,note_on,0,0,3,,,,,,,,,2,,,70,75
4760,note_on,0,0,1,,,,,,,,,0,,,79,88
4760,note_on,0,0,3,,,,,,,,,2,,,67,75
4764,note_on,0,0,3,,,,,,,,,2,,,62,0
4764,note_on,0,0,3,,,,,,,,,2,,,67,0
4764,note_on,4,0,3,,,,,,,,,2,,,70,0
4764,note_on,4,0,1,,,,,,,,,0,,,79,0
4764,note_on,0,0,1,,,,,,,,,0,,,74,0
4779,note_on,0,0,1,,,,,,,,,0,,,70,88
4779,note_on,0,0,3,,,,,,,,,2,,,67,75
4779,control_change,15,0,3,,,,,,,,,2,64,0,,
4779,control_change,15,0,1,,,,,,,,,0,64,0,,
4779,note_on,0,0,3,,,,,,,,,2,,,58,75
4779,note_on,0,0,3,,,,,,,,,2,,,62,75
4779,note_on,0,0,1,,,,,,,,,0,,,74,88
4799,note_on,0,0,3,,,,,,,,,2,,,62,0
4799,note_on,20,0,3,,,,,,,,,2,,,67,0
4799,note_on,0,0,1,,,,,,,,,0,,,70,0
4799,note_on,20,0,1,,,,,,,,,0,,,74,0
4799,note_on,0,0,3,,,,,,,,,2,,,58,0
4800,control_change,1,0,1,,,,,,,,,0,64,127,,
4800,note_on,0,0,2,,,,,,,,,1,,,72,127
4800,note_on,0,0,2,,,,,,,,,1,,,60,119
4800,note_on,0,0,2,,,,,,,,,1,,,58,0
4800,note_on,0,0,4,,,,,,,,,3,,,29,88
4800,note_on,0,0,4,,,,,,,,,3,,,41,88
4800,note_on,60,0,2,,,,,,,,,1,,,70,0
4800,note_on,0,0,4,,,,,,,,,3,,,31,0
4800,control_change,1,0,3,,,,,,,,,2,64,127,,
4800,note_on,120,0,4,,,,,,,,,3,,,43,0
4820,note_on,20,0,3,,,,,,,,,2,,,48,88
4820,note_on,0,0,3,,,,,,,,,2,,,53,88
4820,note_on,0,0,1,,,,,,,,,0,,,69,101
4820,note_on,0,0,3,,,,,,,,,2,,,57,88
4820,note_on,20,0,1,,,,,,,,,0,,,65,101
4824,note_on,4,0,1,,,,,,,,,0,,,69,0
4824,note_on,0,0,3,,,,,,,,,2,,,53,0
4824,note_on,0,0,1,,,,,,,,,0,,,65,0
4824,note_on,4,0,3,,,,,,,,,2,,,57,0
4824,note_on,0,0,3,,,,,,,,,2,,,48,0
4839,note_on,0,0,3,,,,,,,,,2,,,60,88
4839,note_on,0,0,1,,,,,,,,,0,,,72,101
4839,note_on,0,0,3,,,,,,,,,2,,,57,88
4839,note_on,15,0,1,,,,,,,,,0,,,65,101
4839,note_on,0,0,1,,,,,,,,,0,,,69,101
4839,note_on,15,0,3,,,,,,,,,2,,,53,88
4843,note_on,0,0,3,,,,,,,,,2,,,53,0
4843,note_on,4,0,3,,,,,,,,,2,,,60,0
4843,note_on,4,0,1,,,,,,,,,0,,,72,0
4843,note_on,0,0,3,,,,,,,,,2,,,57,0
4843,note_on,0,0,1,,,,,,,,,0,,,69,0
4843,note_on,0,0,1,,,,,,,,,0,,,65,0
4860,note_on,0,0,1,,,,,,,,,0,,,84,101
4860,note_on,17,0,1,,,,,,,,,0,,,77,101
4860,note_on,0,0,1,,,,,,,,,0,,,81,101
4860,note_on,0,0,3,,,,,,,,,2,,,69,88
4860,note_on,17,0,3,,,,,,,,,2,,,65,88
4860,note_on,0,0,3,,,,,,,,,2,,,72,88
4864,note_on,4,0,1,,,,,,,,,0,,,84,0
4864,note_on,0,0,3,,,,,,,,,2,,,69,0
4864,note_on,0,0,3,,,,,,,,,2,,,65,0
4864,note_on,4,0,3,,,,,,,,,2,,,72,0
4864,note_on,0,0,1,,,,,,,,,0,,,77,0
4864,note_on,0,0,1,,,,,,,,,0,,,81,0
4880,note_on,0,0,1,,,,,,,,,0,,,77,101
4880,note_on,0,0,1,,,,,,,,,0,,,81,101
4880,note_on,16,0,1,,,,,,,,,0,,,72,101
4880,note_on,16,0,3,,,,,,,,,2,,,60,88
4880,note_on,0,0,3,,,,,,,,,2,,,69,88
4880,note_on,0,0,3,,,,,,,,,2,,,65,88
4884,note_on,4,0,3,,,,,,,,,2,,,69,0
4884,note_on,0,0,3,,,,,,,,,2,,,65,0
4884,note_on,0,0,3,,,,,,,,,2,,,60,0
4884,note_on,4,0,1,,,,,,,,,0,,,81,0
4884,note_on,0,0,1,,,,,,,,,0,,,77,0
4884,note_on,0,0,1,,,,,,,,,0,,,72,0
4899,control_change,15,0,3,,,,,,,,,2,64,0,,
4899,control_change,15,0,1,,,,,,,,,0,64,0,,
4899,note_on,0,0,1,,,,,,,,,0,,,72,101
4899,note_on,0,0,1,,,,,,,,,0,,,77,101
4899,note_on,0,0,1,,,,,,,,,0,,,69,101
4899,note_on,0,0,3,,,,,,,,,2,,,60,88
4899,note_on,0,0,3,,,,,,,,,2,,,57,88
4899,note_on,0,0,3,,,,,,,,,2,,,65,88
4903,note_on,0,0,1,,,,,,,,,0,,,72,0
4903,note_on,4,0,1,,,,,,,,,0,,,77,0
4903,note_on,0,0,3,,,,,,,,,2,,,60,0
4903,note_on,0,0,3,,,,,,,,,2,,,57,0
4903,note_on,4,0,3,,,,,,,,,2,,,65,0
4903,note_on,0,0,1,,,,,,,,,0,,,69,0
4905,note_on,0,0,2,,,,,,,,,1,,,60,119
4905,note_on,0,0,2,,,,,,,,,1,,,60,0
4905,note_on,105,0,2,,,,,,,,,1,,,72,0
4905,note_on,0,0,2,,,,,,,,,1,,,72,127
4920,control_change,17,0,1,,,,,,,,,0,64,127,,
4920,note_on,120,0,4,,,,,,,,,3,,,41,0
4920,control_change,17,0,3,,,,,,,,,2,64,127,,
4920,note_on,0,0,2,,,,,,,,,1,,,74,127
4920,note_on,0,0,4,,,,,,,,,3,,,26,88
4920,note_on,0,0,2,,,,,,,,,1,,,60,0
4920,note_on,0,0,4,,,,,,,,,3,,,38,88
4920,note_on,15,0,2,,,,,,,,,1,,,72,0
4920,note_on,0,0,2,,,,,,,,,1,,,62,119
4920,note_on,0,0,4,,,,,,,,,3,,,29,0
4940,note_on,20,0,3,,,,,,,,,2,,,50,88
4940,note_on,0,0,3,,,,,,,,,2,,,54,88
4940,note_on,0,0,3,,,,,,,,,2,,,57,88
4940,note_on,0,0,1,,,,,,,,,0,,,69,101
4940,note_on,20,0,1,,,,,,,,,0,,,66,101
4944,note_on,0,0,3,,,,,,,,,2,,,50,0
4944,note_on,0,0,3,,,,,,,,,2,,,54,0
4944,note_on,4,0,3,,,,,,,,,2,,,57,0
4944,note_on,4,0,1,,,,,,,,,0,,,69,0
4944,note_on,0,0,1,,,,,,,,,0,,,66,0
4959,note_on,0,0,3,,,,,,,,,2,,,57,88
4959,note_on,0,0,3,,,,,,,,,2,,,62,88
4959,note_on,0,0,1,,,,,,,,,0,,,74,101
4959,note_on,0,0,1,,,,,,,,,0,,,69,101
4959,note_on,15,0,3,,,,,,,,,2,,,54,88
4959,note_on,15,0,1,,,,,,,,,0,,,66,101
4963,note_on,0,0,3,,,,,,,,,2,,,54,0
4963,note_on,0,0,1,,,,,,,,,0,,,69,0
4963,note_on,0,0,1,,,,,,,,,0,,,66,0
4963,note_on,4,0,1,,,,,,,,,0,,,74,0
4963,note_on,4,0,3,,,,,,,,,2,,,62,0
4963,note_on,0,0,3,,,,,,,,,2,,,57,0
4980,note_on,0,0,3,,,,,,,,,2,,,69,88
4980,note_on,0,0,1,,,,,,,,,0,,,86,101
4980,note_on,17,0,1,,,,,,,,,0,,,78,101
4980,note_on,0,0,1,,,,,,,,,0,,,81,101
4980,note_on,0,0,3,,,,,,,,,2,,,74,88
4980,note_on,17,0,3,,,,,,,,,2,,,66,88
4984,note_on,0,0,3,,,,,,,,,2,,,66,0
4984,note_on,0,0,3,,,,,,,,,2,,,69,0
4984,note_on,4,0,1,,,,,,,,,0,,,86,0
4984,note_on,0,0,1,,,,,,,,,0,,,78,0
4984,note_on,0,0,1,,,,,,,,,0,,,81,0
4984,note_on,4,0,3,,,,,,,,,2,,,74,0
5000,note_on,16,0,3,,,,,,,,,2,,,62,88
5000,note_on,0,0,3,,,,,,,,,2,,,69,88
5000,note_on,0,0,3,,,,,,,,,2,,,66,88
5000,note_on,0,0,1,,,,,,,,,0,,,78,101
5000,note_on,0,0,1,,,,,,,,,0,,,81,101
5000,note_on,16,0,1,,,,,,,,,0,,,74,101
5004,note_on,0,0,3,,,,,,,,,2,,,66,0
5004,note_on,0,0,3,,,,,,,,,2,,,62,0
5004,note_on,4,0,1,,,,,,,,,0,,,81,0
5004,note_on,0,0,1,,,,,,,,,0,,,78,0
5004,note_on,0,0,1,,,,,,,,,0,,,74,0
5004,note_on,4,0,3,,,,,,,,,2,,,69,0
5010,note_on,0,0,2,,,,,,,,,1,,,72,101
5010,note_on,0,0,2,,,,,,,,,1,,,62,0
5010,note_on,0,0,2,,,,,,,,,1,,,60,101
5010,note_on,90,0,2,,,,,,,,,1,,,74,0
5019,note_on,0,0,1,,,,,,,,,0,,,74,101
5019,note_on,0,0,3,,,,,,,,,2,,,57,88
5019,note_on,0,0,3,,,,,,,,,2,,,62,88
5019,note_on,0,0,3,,,,,,,,,2,,,66,88
5019,note_on,0,0,1,,,,,,,,,0,,,69,101
5019,note_on,0,0,1,,,,,,,,,0,,,78,101
5019,control_change,15,0,3,,,,,,,,,2,64,0,,
5019,control_change,15,0,1,,,,,,,,,0,64,0,,
5023,note_on,4,0,1,,,,,,,,,0,,,78,0
5023,note_on,0,0,1,,,,,,,,,0,,,69,0
5023,note_on,0,0,1,,,,,,,,,0,,,74,0
5023,note_on,0,0,3,,,,,,,,,2,,,57,0
5023,note_on,4,0,3,,,,,,,,,2,,,66,0
5023,note_on,0,0,3,,,,,,,,,2,,,62,0
5025,note_on,0,0,2,,,,,,,,,1,,,60,0
5025,note_on,0,0,2,,,,,,,,,1,,,62,101
5025,note_on,0,0,2,,,,,,,,,1,,,74,101
5025,note_on,15,0,2,,,,,,,,,1,,,72,0
5040,note_on,0,0,4,,,,,,,,,3,,,36,88
5040,note_on,0,0,4,,,,,,,,,3,,,26,0
5040,note_on,0,0,2,,,,,,,,,1,,,62,0
5040,note_on,0,0,2,,,,,,,,,1,,,65,119
5040,note_on,0,0,2,,,,,,,,,1,,,77,127
5040,note_on,0,0,4,,,,,,,,,3,,,24,88
5040,note_on,120,0,4,,,,,,,,,3,,,38,0
5040,control_change,17,0,1,,,,,,,,,0,64,127,,
5040,control_change,17,0,3,,,,,,,,,2,64,127,,
5040,note_on,15,0,2,,,,,,,,,1,,,74,0
5060,note_on,0,0,3,,,,,,,,,2,,,55,88
5060,note_on,20,0,3,,,,,,,,,2,,,48,88
5060,note_on,20,0,1,,,,,,,,,0,,,63,101
5060,note_on,0,0,3,,,,,,,,,2,,,51,88
5060,note_on,0,0,1,,,,,,,,,0,,,67,101
5064,note_on,0,0,3,,,,,,,,,2,,,51,0
5064,note_on,0,0,3,,,,,,,,,2,,,48,0
5064,note_on,4,0,3,,,,,,,,,2,,,55,0
5064,note_on,4,0,1,,,,,,,,,0,,,67,0
5064,note_on,0,0,1,,,,,,,,,0,,,63,0
5079,note_on,0,0,3,,,,,,,,,2,,,60,88
5079,note_on,0,0,3,,,,,,,,,2,,,55,88
5079,note_on,15,0,3,,,,,,,,,2,,,51,88
5079,note_on,15,0,1,,,,,,,,,0,,,67,101
5079,note_on,0,0,1,,,,,,,,,0,,,72,101
5083,note_on,4,0,3,,,,,,,,,2,,,60,0
5083,note_on,0,0,1,,,,,,,,,0,,,67,0
5083,note_on,4,0,1,,,,,,,,,0,,,72,0
5083,note_on,0,0,3,,,,,,,,,2,,,51,0
5083,note_on,0,0,3,,,,,,,,,2,,,55,0
5100,note_on,17,0,3,,,,,,,,,2,,,63,88
5100,note_on,0,0,2,,,,,,,,,1,,,65,0
5100,note_on,17,0,1,,,,,,,,,0,,,75,101
5100,note_on,0,0,2,,,,,,,,,1,,,75,127
5100,note_on,0,0,3,,,,,,,,,2,,,67,88
5100,note_on,60,0,2,,,,,,,,,1,,,77,0
5100,note_on,0,0,1,,,,,,,,,0,,,79,101
5100,note_on,0,0,2,,,,,,,,,1,,,63,119
5100,note_on,0,0,3,,,,,,,,,2,,,72,88
5100,note_on,0,0,1,,,,,,,,,0,,,87,101
5104,note_on,0,0,1,,,,,,,,,0,,,79,0
5104,note_on,4,0,3,,,,,,,,,2,,,72,0
5104,note_on,0,0,1,,,,,,,,,0,,,75,0
5104,note_on,4,0,1,,,,,,,,,0,,,87,0
5104,note_on,0,0,3,,,,,,,,,2,,,67,0
5104,note_on,0,0,3,,,,,,,,,2,,,63,0
5120,note_on,0,0,3,,,,,,,,,2,,,63,88
5120,note_on,0,0,3,,,,,,,,,2,,,67,88
5120,note_on,16,0,1,,,,,,,,,0,,,79,101
5120,note_on,16,0,3,,,,,,,,,2,,,60,88
5120,note_on,0,0,1,,,,,,,,,0,,,84,101
5124,note_on,0,0,1,,,,,,,,,0,,,79,0
5124,note_on,4,0,1,,,,,,,,,0,,,84,0
5124,note_on,4,0,3,,,,,,,,,2,,,67,0
5124,note_on,0,0,3,,,,,,,,,2,,,60,0
5124,note_on,0,0,3,,,,,,,,,2,,,63,0
5139,note_on,0,0,1,,,,,,,,,0,,,79,101
5139,note_on,15,0,1,,,,,,,,,0,,,75,101
5139,note_on,15,0,3,,,,,,,,,2,,,63,88
5139,note_on,0,0,3,,,,,,,,,2,,,67,88
5139,note_on,0,0,3,,,,,,,,,2,,,72,88
5143,note_on,0,0,1,,,,,,,,,0,,,75,0
5143,note_on,4,0,1,,,,,,,,,0,,,79,0
5143,note_on,0,0,3,,,,,,,,,2,,,63,0
5143,note_on,4,0,3,,,,,,,,,2,,,72,0
5143,note_on,0,0,3,,,,,,,,,2,,,67,0
5160,note_on,0,0,4,,,,,,,,,3,,,24,88
5160,note_on,120,0,4,,,,,,,,,3,,,36,0
5160,note_on,0,0,4,,,,,,,,,3,,,24,0
5160,note_on,0,0,4,,,,,,,,,3,,,36,88
5180,note_on,0,0,3,,,,,,,,,2,,,55,88
5180,note_on,37,0,1,,,,,,,,,0,,,63,101
5180,note_on,0,0,1,,,,,,,,,0,,,67,101
5180,note_on,37,0,3,,,,,,,,,2,,,48,88
5184,note_on,0,0,3,,,,,,,,,2,,,48,0
5184,note_on,4,0,3,,,,,,,,,2,,,55,0
5184,note_on,0,0,1,,,,,,,,,0,,,63,0
5184,note_on,4,0,1,,,,,,,,,0,,,67,0
5199,note_on,0,0,3,,,,,,,,,2,,,60,88
5199,note_on,15,0,3,,,,,,,,,2,,,51,88
5199,note_on,0,0,1,,,,,,,,,0,,,72,101
5199,note_on,15,0,1,,,,,,,,,0,,,67,101
5203,note_on,4,0,3,,,,,,,,,2,,,60,0
5203,note_on,0,0,1,,,,,,,,,0,,,67,0
5203,note_on,0,0,3,,,,,,,,,2,,,51,0
5203,note_on,4,0,1,,,,,,,,,0,,,72,0
5220,note_on,0,0,1,,,,,,,,,0,,,87,101
5220,note_on,0,0,1,,,,,,,,,0,,,79,101
5220,note_on,17,0,1,,,,,,,,,0,,,75,101
5220,note_on,0,0,2,,,,,,,,,1,,,63,0
5220,note_on,120,0,2,,,,,,,,,1,,,75,0
5220,note_on,17,0,3,,,,,,,,,2,,,63,88
5220,note_on,0,0,3,,,,,,,,,2,,,72,88
5224,note_on,0,0,3,,,,,,,,,2,,,63,0
5224,note_on,4,0,1,,,,,,,,,0,,,87,0
5224,note_on,0,0,1,,,,,,,,,0,,,75,0
5224,note_on,0,0,1,,,,,,,,,0,,,79,0
5224,note_on,4,0,3,,,,,,,,,2,,,72,0
5240,note_on,16,0,1,,,,,,,,,0,,,79,101
5240,note_on,16,0,3,,,,,,,,,2,,,60,88
5240,note_on,0,0,1,,,,,,,,,0,,,84,101
5240,note_on,0,0,3,,,,,,,,,2,,,63,88
5244,note_on,4,0,1,,,,,,,,,0,,,84,0
5244,note_on,0,0,1,,,,,,,,,0,,,79,0
5244,note_on,4,0,3,,,,,,,,,2,,,63,0
5244,note_on,0,0,3,,,,,,,,,2,,,60,0
5250,note_on,30,0,2,,,,,,,,,1,,,55,101
5250,note_on,0,0,2,,,,,,,,,1,,,67,101
5259,control_change,15,0,3,,,,,,,,,2,64,0,,
5259,note_on,0,0,1,,,,,,,,,0,,,79,101
5259,note_on,0,0,1,,,,,,,,,0,,,75,101
5259,control_change,15,0,1,,,,,,,,,0,64,0,,
5263,note_on,0,0,1,,,,,,,,,0,,,75,0
5263,note_on,4,0,1,,,,,,,,,0,,,79,0
5280,control_change,21,0,3,,,,,,,,,2,64,127,,
5280,note_on,120,0,4,,,,,,,,,3,,,36,0
5280,note_on,0,0,2,,,,,,,,,1,,,55,0
5280,note_on,0,0,2,,,,,,,,,1,,,72,101
5280,note_on,0,0,2,,,,,,,,,1,,,60,101
5280,note_on,30,0,2,,,,,,,,,1,,,67,0
5280,note_on,0,0,4,,,,,,,,,3,,,27,75
5280,note_on,0,0,4,,,,,,,,,3,,,24,0
5280,note_on,0,0,4,,,,,,,,,3,,,39,75
5280,control_change,17,0,1,,,,,,,,,0,64,127,,
5300,note_on,0,0,1,,,,,,,,,0,,,63,88
5300,note_on,20,0,3,,,,,,,,,2,,,51,75
5300,note_on,0,0,3,,,,,,,,,2,,,55,75
5300,note_on,20,0,1,,,,,,,,,0,,,60,88
5304,note_on,4,0,3,,,,,,,,,2,,,55,0
5304,note_on,0,0,1,,,,,,,,,0,,,60,0
5304,note_on,0,0,3,,,,,,,,,2,,,51,0
5304,note_on,4,0,1,,,,,,,,,0,,,63,0
5319,note_on,15,0,3,,,,,,,,,2,,,55,75
5319,note_on,0,0,1,,,,,,,,,0,,,67,88
5319,note_on,0,0,3,,,,,,,,,2,,,60,75
5319,note_on,15,0,1,,,,,,,,,0,,,63,88
5323,note_on,4,0,1,,,,,,,,,0,,,67,0
5323,note_on,4,0,3,,,,,,,,,2,,,60,0
5323,note_on,0,0,3,,,,,,,,,2,,,55,0
5323,note_on,0,0,1,,,,,,,,,0,,,63,0
5340,note_on,17,0,3,,,,,,,,,2,,,63,75
5340,note_on,0,0,3,,,,,,,,,2,,,67,75
5340,note_on,17,0,1,,,,,,,,,0,,,72,88
5340,note_on,0,0,1,,,,,,,,,0,,,75,88
5340,note_on,0,0,1,,,,,,,,,0,,,84,88
5344,note_on,0,0,1,,,,,,,,,0,,,75,0
5344,note_on,0,0,1,,,,,,,,,0,,,72,0
5344,note_on,0,0,3,,,,,,,,,2,,,63,0
5344,note_on,4,0,1,,,,,,,,,0,,,84,0
5344,note_on,4,0,3,,,,,,,,,2,,,67,0
5360,note_on,0,0,1,,,,,,,,,0,,,79,88
5360,note_on,0,0,3,,,,,,,,,2,,,63,75
5360,note_on,16,0,1,,,,,,,,,0,,,72,88
5360,note_on,16,0,3,,,,,,,,,2,,,60,75
5364,note_on,4,0,1,,,,,,,,,0,,,79,0
5364,note_on,0,0,3,,,,,,,,,2,,,60,0
5364,note_on,4,0,3,,,,,,,,,2,,,63,0
5364,note_on,0,0,1,,,,,,,,,0,,,72,0
5379,control_change,15,0,3,,,,,,,,,2,64,0,,
5379,note_on,0,0,3,,,,,,,,,2,,,63,75
5379,note_on,0,0,1,,,,,,,,,0,,,75,88
5379,control_change,15,0,1,,,,,,,,,0,64,0,,
5379,note_on,0,0,1,,,,,,,,,0,,,72,88
5379,note_on,0,0,3,,,,,,,,,2,,,67,75
5383,note_on,0,0,3,,,,,,,,,2,,,63,0
5383,note_on,4,0,1,,,,,,,,,0,,,75,0
5383,note_on,4,0,3,,,,,,,,,2,,,67,0
5383,note_on,0,0,1,,,,,,,,,0,,,72,0
5385,note_on,0,0,2,,,,,,,,,1,,,72,101
5385,note_on,0,0,2,,,,,,,,,1,,,60,101
5385,note_on,105,0,2,,,,,,,,,1,,,72,0
5385,note_on,0,0,2,,,,,,,,,1,,,60,0
5400,note_on,0,0,4,,,,,,,,,3,,,31,75
5400,control_change,17,0,1,,,,,,,,,0,64,127,,
5400,note_on,0,0,2,,,,,,,,,1,,,58,101
5400,note_on,120,0,4,,,,,,,,,3,,,39,0
5400,note_on,0,0,2,,,,,,,,,1,,,60,0
5400,note_on,0,0,4,,,,,,,,,3,,,43,75
5400,note_on,0,0,2,,,,,,,,,1,,,70,101
5400,note_on,15,0,2,,,,,,,,,1,,,72,0
5400,control_change,17,0,3,,,,,,,,,2,64,127,,
5400,note_on,0,0,4,,,,,,,,,3,,,27,0
5415,set_tempo,855,1,0,,,,,,2222222,,,,,,,
5420,note_on,20,0,2,,,,,,,,,1,,,70,0
5420,note_on,0,0,2,,,,,,,,,1,,,58,0
5420,note_on,0,0,2,,,,,,,,,1,,,57,101
5420,note_on,0,0,2,,,,,,,,,1,,,69,101
5420,note_on,0,0,1,,,,,,,,,0,,,69,88
5420,note_on,20,0,1,,,,,,,,,0,,,61,88
5420,note_on,20,0,3,,,,,,,,,2,,,55,75
5420,note_on,0,0,1,,,,,,,,,0,,,64,88
5420,note_on,0,0,3,,,,,,,,,2,,,57,75
5424,note_on,0,0,3,,,,,,,,,2,,,55,0
5424,note_on,0,0,1,,,,,,,,,0,,,61,0
5424,note_on,0,0,1,,,,,,,,,0,,,64,0
5424,note_on,4,0,1,,,,,,,,,0,,,69,0
5424,note_on,4,0,3,,,,,,,,,2,,,57,0
5430,set_tempo,15,1,0,,,,,,2400000,,,,,,,
5439,note_on,0,0,3,,,,,,,,,2,,,58,75
5439,note_on,15,0,1,,,,,,,,,0,,,61,88
5439,note_on,0,0,2,,,,,,,,,1,,,70,101
5439,note_on,19,0,2,,,,,,,,,1,,,58,101
5439,note_on,0,0,1,,,,,,,,,0,,,70,88
5439,note_on,0,0,1,,,,,,,,,0,,,64,88
5439,note_on,15,0,3,,,,,,,,,2,,,55,75
5440,note_on,0,0,2,,,,,,,,,1,,,57,0
5440,note_on,1,0,2,,,,,,,,,1,,,69,0
5443,note_on,4,0,3,,,,,,,,,2,,,58,0
5443,note_on,0,0,3,,,,,,,,,2,,,55,0
5443,note_on,4,0,1,,,,,,,,,0,,,70,0
5443,note_on,0,0,1,,,,,,,,,0,,,61,0
5443,note_on,0,0,1,,,,,,,,,0,,,64,0
5445,set_tempo,15,1,0,,,,,,2608696,,,,,,,
5459,note_on,19,0,2,,,,,,,,,1,,,58,0
5459,note_on,0,0,2,,,,,,,,,1,,,70,0
5460,note_on,1,0,2,,,,,,,,,1,,,61,101
5460,note_on,0,0,1,,,,,,,,,0,,,85,114
5460,note_on,17,0,3,,,,,,,,,2,,,61,75
5460,note_on,17,0,1,,,,,,,,,0,,,73,106
5460,set_tempo,15,1,0,,,,,,2857143,,,,,,,
5460,note_on,0,0,2,,,,,,,,,1,,,73,101
5464,note_on,4,0,3,,,,,,,,,2,,,61,0
5464,note_on,0,0,1,,,,,,,,,0,,,73,0
5464,note_on,4,0,1,,,,,,,,,0,,,85,0
5475,set_tempo,15,1,0,,,,,,3157895,,,,,,,
5480,note_on,20,0,2,,,,,,,,,1,,,73,0
5480,note_on,0,0,2,,,,,,,,,1,,,60,101
5480,note_on,0,0,3,,,,,,,,,2,,,67,75
5480,note_on,16,0,1,,,,,,,,,0,,,72,104
5480,note_on,0,0,1,,,,,,,,,0,,,76,109
5480,note_on,0,0,1,,,,,,,,,0,,,84,114
5480,note_on,0,0,2,,,,,,,,,1,,,72,101
5480,note_on,0,0,3,,,,,,,,,2,,,64,75
5480,note_on,16,0,3,,,,,,,,,2,,,60,75
5480,note_on,0,0,2,,,,,,,,,1,,,61,0
5484,note_on,0,0,3,,,,,,,,,2,,,60,0
5484,note_on,4,0,3,,,,,,,,,2,,,67,0
5484,note_on,0,0,1,,,,,,,,,0,,,72,0
5484,note_on,0,0,1,,,,,,,,,0,,,76,0
5484,note_on,0,0,3,,,,,,,,,2,,,64,0
5484,note_on,4,0,1,,,,,,,,,0,,,84,0
5490,set_tempo,15,1,0,,,,,,3529412,,,,,,,
5499,note_on,0,0,3,,,,,,,,,2,,,67,75
5499,note_on,0,0,3,,,,,,,,,2,,,64,75
5499,note_on,0,0,3,,,,,,,,,2,,,58,75
5499,control_change,15,0,3,,,,,,,,,2,64,0,,
5499,note_on,0,0,1,,,,,,,,,0,,,70,104
5499,control_change,15,0,1,,,,,,,,,0,64,0,,
5499,note_on,19,0,2,,,,,,,,,1,,,58,101
5499,note_on,0,0,2,,,,,,,,,1,,,70,101
5499,note_on,0,0,1,,,,,,,,,0,,,73,109
5499,note_on,0,0,1,,,,,,,,,0,,,82,114
5500,note_on,0,0,2,,,,,,,,,1,,,60,0
5500,note_on,1,0,2,,,,,,,,,1,,,72,0
5505,set_tempo,15,1,0,,,,,,4000000,,,,,,,
5519,note_on,19,0,2,,,,,,,,,1,,,58,0
5519,note_on,0,0,2,,,,,,,,,1,,,70,0
5519,note_on,0,0,1,,,,,,,,,0,,,70,0
5519,note_on,0,0,1,,,,,,,,,0,,,73,0
5519,note_on,0,0,3,,,,,,,,,2,,,64,0
5519,note_on,20,0,3,,,,,,,,,2,,,67,0
5519,note_on,20,0,1,,,,,,,,,0,,,82,0
5519,note_on,0,0,3,,,,,,,,,2,,,58,0
5520,note_on,0,0,4,,,,,,,,,3,,,41,75
5520,note_on,0,0,4,,,,,,,,,3,,,29,75
5520,set_tempo,15,1,0,,,,,,2142857,,,,,,,
5520,note_on,1,0,2,,,,,,,,,1,,,60,101
5520,control_change,1,0,1,,,,,,,,,0,64,127,,
5520,control_change,1,0,3,,,,,,,,,2,64,127,,
5520,note_on,0,0,4,,,,,,,,,3,,,31,0
5520,note_on,0,0,2,,,,,,,,,1,,,72,101
5520,note_on,120,0,4,,,,,,,,,3,,,43,0
5540,note_on,0,0,1,,,,,,,,,0,,,65,88
5540,note_on,20,0,1,,,,,,,,,0,,,60,88
5540,note_on,20,0,3,,,,,,,,,2,,,53,75
5540,note_on,0,0,3,,,,,,,,,2,,,57,75
5544,note_on,4,0,3,,,,,,,,,2,,,57,0
5544,note_on,0,0,3,,,,,,,,,2,,,53,0
5544,note_on,4,0,1,,,,,,,,,0,,,65,0
5544,note_on,0,0,1,,,,,,,,,0,,,60,0
5559,note_on,0,0,3,,,,,,,,,2,,,60,75
5559,note_on,15,0,3,,,,,,,,,2,,,57,75
5559,note_on,15,0,1,,,,,,,,,0,,,65,88
5559,note_on,0,0,1,,,,,,,,,0,,,69,88
5563,note_on,0,0,3,,,,,,,,,2,,,57,0
5563,note_on,4,0,3,,,,,,,,,2,,,60,0
5563,note_on,0,0,1,,,,,,,,,0,,,65,0
5563,note_on,4,0,1,,,,,,,,,0,,,69,0
5580,note_on,17,0,3,,,,,,,,,2,,,65,75
5580,note_on,17,0,1,,,,,,,,,0,,,72,88
5580,note_on,0,0,3,,,,,,,,,2,,,69,75
5580,note_on,0,0,1,,,,,,,,,0,,,84,88
5580,note_on,0,0,1,,,,,,,,,0,,,77,88
5584,note_on,0,0,1,,,,,,,,,0,,,72,0
5584,note_on,0,0,3,,,,,,,,,2,,,65,0
5584,note_on,4,0,3,,,,,,,,,2,,,69,0
5584,note_on,0,0,1,,,,,,,,,0,,,77,0
5584,note_on,4,0,1,,,,,,,,,0,,,84,0
5600,note_on,0,0,1,,,,,,,,,0,,,81,88
5600,note_on,16,0,3,,,,,,,,,2,,,60,75
5600,note_on,0,0,3,,,,,,,,,2,,,65,75
5600,note_on,16,0,1,,,,,,,,,0,,,77,88
5604,note_on,0,0,3,,,,,,,,,2,,,60,0
5604,note_on,0,0,1,,,,,,,,,0,,,77,0
5604,note_on,4,0,3,,,,,,,,,2,,,65,0
5604,note_on,4,0,1,,,,,,,,,0,,,81,0
5619,control_change,15,0,3,,,,,,,,,2,64,0,,
5619,note_on,0,0,1,,,,,,,,,0,,,72,88
5619,note_on,0,0,1,,,,,,,,,0,,,77,88
5619,note_on,0,0,3,,,,,,,,,2,,,60,75
5619,control_change,15,0,1,,,,,,,,,0,64,0,,
5619,note_on,0,0,3,,,,,,,,,2,,,57,75
5639,note_on,20,0,3,,,,,,,,,2,,,60,0
5639,note_on,0,0,1,,,,,,,,,0,,,72,0
5639,note_on,20,0,1,,,,,,,,,0,,,77,0
5639,note_on,0,0,3,,,,,,,,,2,,,57,0
5640,note_on,120,0,2,,,,,,,,,1,,,72,0
5640,note_on,0,0,4,,,,,,,,,3,,,29,0
5640,note_on,0,0,4,,,,,,,,,3,,,41,62
5640,note_on,0,0,4,,,,,,,,,3,,,29,62
5640,note_on,120,0,4,,,,,,,,,3,,,41,0
5640,control_change,1,0,3,,,,,,,,,2,64,127,,
5640,control_change,1,0,1,,,,,,,,,0,64,127,,
5640,note_on,0,0,2,,,,,,,,,1,,,60,0
5655,set_tempo,135,1,0,,,,,,2222222,,,,,,,
5660,note_on,20,0,1,,,,,,,,,0,,,60,75
5660,note_on,0,0,3,,,,,,,,,2,,,57,62
5660,note_on,20,0,3,,,,,,,,,2,,,53,62
5660,note_on,0,0,1,,,,,,,,,0,,,65,75
5660,note_on,0,0,1,,,,,,,,,0,,,63,75
5664,note_on,0,0,1,,,,,,,,,0,,,63,0
5664,note_on,0,0,1,,,,,,,,,0,,,60,0
5664,note_on,0,0,3,,,,,,,,,2,,,53,0
5664,note_on,4,0,3,,,,,,,,,2,,,57,0
5664,note_on,4,0,1,,,,,,,,,0,,,65,0
5670,set_tempo,15,1,0,,,,,,2400000,,,,,,,
5679,note_on,15,0,3,,,,,,,,,2,,,53,62
5679,note_on,0,0,1,,,,,,,,,0,,,69,75
5679,note_on,15,0,1,,,,,,,,,0,,,63,75
5679,note_on,0,0,3,,,,,,,,,2,,,60,62
5683,note_on,0,0,1,,,,,,,,,0,,,63,0
5683,note_on,0,0,3,,,,,,,,,2,,,53,0
5683,note_on,4,0,3,,,,,,,,,2,,,60,0
5683,note_on,4,0,1,,,,,,,,,0,,,69,0
5685,set_tempo,15,1,0,,,,,,2608696,,,,,,,
5700,set_tempo,15,1,0,,,,,,2857143,,,,,,,
5700,note_on,0,0,3,,,,,,,,,2,,,65,62
5700,note_on,17,0,3,,,,,,,,,2,,,63,62
5700,note_on,0,0,1,,,,,,,,,0,,,81,75
5700,note_on,0,0,1,,,,,,,,,0,,,72,75
5700,note_on,17,0,1,,,,,,,,,0,,,69,75
5704,note_on,4,0,1,,,,,,,,,0,,,81,0
5704,note_on,0,0,3,,,,,,,,,2,,,63,0
5704,note_on,4,0,3,,,,,,,,,2,,,65,0
5704,note_on,0,0,1,,,,,,,,,0,,,69,0
5704,note_on,0,0,1,,,,,,,,,0,,,72,0
5715,set_tempo,15,1,0,,,,,,3157895,,,,,,,
5720,note_on,16,0,1,,,,,,,,,0,,,69,75
5720,note_on,16,0,3,,,,,,,,,2,,,60,62
5720,note_on,0,0,1,,,,,,,,,0,,,77,75
5720,note_on,0,0,3,,,,,,,,,2,,,63,62
5724,note_on,0,0,3,,,,,,,,,2,,,60,0
5724,note_on,0,0,1,,,,,,,,,0,,,69,0
5724,note_on,4,0,1,,,,,,,,,0,,,77,0
5724,note_on,4,0,3,,,,,,,,,2,,,63,0
5730,set_tempo,15,1,0,,,,,,3529412,,,,,,,
5739,note_on,0,0,1,,,,,,,,,0,,,69,75
5739,control_change,15,0,1,,,,,,,,,0,64,0,,
5739,note_on,0,0,1,,,,,,,,,0,,,72,75
5739,note_on,0,0,3,,,,,,,,,2,,,65,62
5739,note_on,0,0,3,,,,,,,,,2,,,63,62
5739,control_change,15,0,3,,,,,,,,,2,64,0,,
5745,set_tempo,15,1,0,,,,,,4000000,,,,,,,
5759,note_on,0,0,1,,,,,,,,,0,,,69,0
5759,note_on,20,0,3,,,,,,,,,2,,,65,0
5759,note_on,20,0,1,,,,,,,,,0,,,72,0
5759,note_on,0,0,3,,,,,,,,,2,,,63,0
5760,set_tempo,15,1,0,,,,,,2142857,,,,,,,
5760,note_on,0,0,2,,,,,,,,,1,,,70,101
5760,note_on,120,0,2,,,,,,,,,1,,,58,101
5760,note_on,0,0,4,,,,,,,,,3,,,46,62
5760,note_on,0,0,4,,,,,,,,,3,,,34,62
5760,note_on,0,0,4,,,,,,,,,3,,,29,0
5760,note_on,120,0,4,,,,,,,,,3,,,41,0
5780,note_on,21,0,3,,,,,,,,,2,,,53,62
5780,note_on,0,0,3,,,,,,,,,2,,,58,62
5790,note_on,0,0,1,,,,,,,,,0,,,65,75
5790,note_on,31,0,1,,,,,,,,,0,,,62,75
5799,note_on,0,0,3,,,,,,,,,2,,,62,62
5799,note_on,19,0,3,,,,,,,,,2,,,58,62
5800,note_on,0,0,3,,,,,,,,,2,,,53,0
5800,note_on,1,0,3,,,,,,,,,2,,,58,0
5810,note_on,0,0,1,,,,,,,,,0,,,62,0
5810,note_on,0,0,1,,,,,,,,,0,,,65,75
5810,note_on,0,0,1,,,,,,,,,0,,,70,75
5810,note_on,20,0,1,,,,,,,,,0,,,65,0
5819,note_on,0,0,3,,,,,,,,,2,,,62,0
5819,note_on,19,0,3,,,,,,,,,2,,,58,0
5820,note_on,1,0,3,,,,,,,,,2,,,65,62
5820,note_on,0,0,3,,,,,,,,,2,,,74,62
5820,note_on,0,0,3,,,,,,,,,2,,,70,62
5829,note_on,0,0,1,,,,,,,,,0,,,86,75
5829,note_on,0,0,1,,,,,,,,,0,,,82,75
5829,note_on,19,0,1,,,,,,,,,0,,,77,75
5830,note_on,1,0,1,,,,,,,,,0,,,70,0
5830,note_on,0,0,1,,,,,,,,,0,,,65,0
5840,note_on,0,0,3,,,,,,,,,2,,,62,62
5840,note_on,20,0,3,,,,,,,,,2,,,74,0
5840,note_on,0,0,3,,,,,,,,,2,,,65,62
5840,note_on,0,0,3,,,,,,,,,2,,,65,0
5840,note_on,0,0,3,,,,,,,,,2,,,70,0
5840,note_on,0,0,3,,,,,,,,,2,,,70,62
5849,note_on,19,0,1,,,,,,,,,0,,,82,0
5849,note_on,0,0,1,,,,,,,,,0,,,77,0
5849,note_on,0,0,1,,,,,,,,,0,,,86,0
5850,note_on,1,0,1,,,,,,,,,0,,,74,75
5850,note_on,0,0,1,,,,,,,,,0,,,77,75
5850,note_on,0,0,1,,,,,,,,,0,,,82,75
5859,note_on,0,0,3,,,,,,,,,2,,,65,62
5859,note_on,19,0,3,,,,,,,,,2,,,62,62
5860,note_on,0,0,3,,,,,,,,,2,,,65,0
5860,note_on,0,0,3,,,,,,,,,2,,,62,0
5860,note_on,1,0,3,,,,,,,,,2,,,70,0
5870,note_on,0,0,1,,,,,,,,,0,,,77,0
5870,note_on,0,0,1,,,,,,,,,0,,,74,0
5870,note_on,0,0,1,,,,,,,,,0,,,74,75
5870,note_on,0,0,1,,,,,,,,,0,,,77,75
5870,note_on,20,0,1,,,,,,,,,0,,,82,0
5879,note_on,19,0,3,,,,,,,,,2,,,62,0
5879,note_on,0,0,3,,,,,,,,,2,,,65,0
5880,note_on,0,0,4,,,,,,,,,3,,,43,62
5880,note_on,0,0,1,,,,,,,,,0,,,74,0
5880,note_on,0,0,4,,,,,,,,,3,,,31,62
5880,note_on,10,0,1,,,,,,,,,0,,,77,0
5880,note_on,120,0,4,,,,,,,,,3,,,46,0
5880,note_on,0,0,4,,,,,,,,,3,,,34,0
5900,note_on,0,0,3,,,,,,,,,2,,,58,62
5900,note_on,21,0,3,,,,,,,,,2,,,52,62
5910,note_on,0,0,1,,,,,,,,,0,,,64,75
5910,note_on,30,0,1,,,,,,,,,0,,,62,75
5919,note_on,19,0,3,,,,,,,,,2,,,58,62
5919,note_on,0,0,3,,,,,,,,,2,,,62,62
5920,note_on,0,0,3,,,,,,,,,2,,,52,0
5920,note_on,1,0,3,,,,,,,,,2,,,58,0
5930,note_on,20,0,1,,,,,,,,,0,,,64,0
5930,note_on,0,0,1,,,,,,,,,0,,,64,75
5930,note_on,0,0,1,,,,,,,,,0,,,70,75
5930,note_on,0,0,1,,,,,,,,,0,,,62,0
5939,note_on,0,0,3,,,,,,,,,2,,,62,0
5939,note_on,19,0,3,,,,,,,,,2,,,58,0
5940,note_on,0,0,3,,,,,,,,,2,,,69,62
5940,note_on,0,0,2,,,,,,,,,1,,,57,101
5940,note_on,0,0,2,,,,,,,,,1,,,58,0
5940,note_on,180,0,2,,,,,,,,,1,,,70,0
5940,note_on,1,0,3,,,,,,,,,2,,,57,62
5940,note_on,0,0,2,,,,,,,,,1,,,69,101
5949,note_on,0,0,1,,,,,,,,,0,,,86,75
5949,note_on,0,0,1,,,,,,,,,0,,,82,75
5949,note_on,19,0,1,,,,,,,,,0,,,74,75
5949,note_on,0,0,1,,,,,,,,,0,,,76,75
5950,note_on,1,0,1,,,,,,,,,0,,,70,0
5950,note_on,0,0,1,,,,,,,,,0,,,64,0
5960,note_on,0,0,3,,,,,,,,,2,,,64,62
5960,note_on,0,0,3,,,,,,,,,2,,,62,62
5960,note_on,0,0,3,,,,,,,,,2,,,57,0
5960,note_on,20,0,3,,,,,,,,,2,,,69,0
5969,note_on,0,0,1,,,,,,,,,0,,,74,0
5969,note_on,0,0,1,,,,,,,,,0,,,86,0
5969,note_on,19,0,1,,,,,,,,,0,,,82,0
5969,note_on,0,0,1,,,,,,,,,0,,,76,0
5970,note_on,0,0,1,,,,,,,,,0,,,82,75
5970,note_on,30,0,2,,,,,,,,,1,,,69,0
5970,note_on,0,0,1,,,,,,,,,0,,,76,75
5970,note_on,0,0,2,,,,,,,,,1,,,70,101
5970,note_on,0,0,2,,,,,,,,,1,,,58,101
5970,note_on,1,0,1,,,,,,,,,0,,,74,75
5970,note_on,0,0,2,,,,,,,,,1,,,57,0
5979,note_on,0,0,3,,,,,,,,,2,,,70,62
5979,note_on,19,0,3,,,,,,,,,2,,,58,62
5980,note_on,1,0,3,,,,,,,,,2,,,64,0
5980,note_on,0,0,3,,,,,,,,,2,,,62,0
5990,note_on,0,0,1,,,,,,,,,0,,,74,0
5990,note_on,0,0,1,,,,,,,,,0,,,76,0
5990,note_on,20,0,1,,,,,,,,,0,,,82,0
5990,note_on,0,0,1,,,,,,,,,0,,,76,75
5990,note_on,0,0,1,,,,,,,,,0,,,74,75
5999,note_on,0,0,3,,,,,,,,,2,,,70,0
5999,note_on,19,0,3,,,,,,,,,2,,,58,0
6000,note_on,0,0,4,,,,,,,,,3,,,31,0
6000,note_on,0,0,2,,,,,,,,,1,,,62,101
6000,note_on,0,0,4,,,,,,,,,3,,,41,62
6000,note_on,30,0,2,,,,,,,,,1,,,70,0
6000,note_on,0,0,1,,,,,,,,,0,,,74,0
6000,note_on,120,0,4,,,,,,,,,3,,,43,0
6000,note_on,10,0,1,,,,,,,,,0,,,76,0
6000,set_tempo,240,1,0,,,,,,2068966,,,,,,,
6000,note_on,0,0,2,,,,,,,,,1,,,74,101
6000,note_on,0,0,4,,,,,,,,,3,,,29,62
6000,note_on,0,0,2,,,,,,,,,1,,,58,0
6020,note_on,0,0,3,,,,,,,,,2,,,58,62
6020,note_on,21,0,3,,,,,,,,,2,,,53,62
6030,note_on,0,0,1,,,,,,,,,0,,,65,75
6030,note_on,30,0,1,,,,,,,,,0,,,62,75
6039,note_on,19,0,3,,,,,,,,,2,,,58,62
6039,note_on,0,0,3,,,,,,,,,2,,,62,62
6040,note_on,1,0,3,,,,,,,,,2,,,58,0
6040,note_on,0,0,3,,,,,,,,,2,,,53,0
6050,note_on,0,0,1,,,,,,,,,0,,,65,75
6050,note_on,0,0,1,,,,,,,,,0,,,70,75
6050,note_on,20,0,1,,,,,,,,,0,,,65,0
6050,note_on,0,0,1,,,,,,,,,0,,,62,0
6059,note_on,19,0,3,,,,,,,,,2,,,58,0
6059,note_on,0,0,3,,,,,,,,,2,,,62,0
6060,note_on,1,0,3,,,,,,,,,2,,,65,62
6060,note_on,0,0,3,,,,,,,,,2,,,74,62
6060,note_on,0,0,3,,,,,,,,,2,,,70,62
6069,note_on,19,0,1,,,,,,,,,0,,,77,75
6069,note_on,0,0,1,,,,,,,,,0,,,86,75
6069,note_on,0,0,1,,,,,,,,,0,,,82,75
6070,note_on,1,0,1,,,,,,,,,0,,,70,0
6070,note_on,0,0,1,,,,,,,,,0,,,65,0
6080,note_on,0,0,3,,,,,,,,,2,,,70,62
6080,note_on,0,0,3,,,,,,,,,2,,,65,0
6080,note_on,0,0,3,,,,,,,,,2,,,65,62
6080,note_on,0,0,3,,,,,,,,,2,,,70,0
6080,note_on,0,0,3,,,,,,,,,2,,,62,62
6080,note_on,20,0,3,,,,,,,,,2,,,74,0
6089,note_on,0,0,1,,,,,,,,,0,,,77,0
6089,note_on,0,0,1,,,,,,,,,0,,,86,0
6089,note_on,19,0,1,,,,,,,,,0,,,82,0
6090,note_on,0,0,1,,,,,,,,,0,,,77,75
6090,note_on,0,0,1,,,,,,,,,0,,,82,75
6090,note_on,1,0,1,,,,,,,,,0,,,74,75
6099,note_on,19,0,3,,,,,,,,,2,,,62,62
6099,note_on,0,0,3,,,,,,,,,2,,,65,62
6100,note_on,0,0,3,,,,,,,,,2,,,62,0
6100,note_on,1,0,3,,,,,,,,,2,,,70,0
6100,note_on,0,0,3,,,,,,,,,2,,,65,0
6110,note_on,20,0,1,,,,,,,,,0,,,82,0
6110,note_on,0,0,1,,,,,,,,,0,,,77,0
6110,note_on,0,0,1,,,,,,,,,0,,,77,75
6110,note_on,0,0,1,,,,,,,,,0,,,74,75
6110,note_on,0,0,1,,,,,,,,,0,,,74,0
6119,note_on,19,0,3,,,,,,,,,2,,,62,0
6119,note_on,0,0,3,,,,,,,,,2,,,65,0
6120,note_on,0,0,4,,,,,,,,,3,,,29,0
6120,note_on,0,0,4,,,,,,,,,3,,,29,62
6120,note_on,10,0,1,,,,,,,,,0,,,77,0
6120,note_on,120,0,4,,,,,,,,,3,,,41,0
6120,note_on,0,0,1,,,,,,,,,0,,,74,0
6120,note_on,0,0,4,,,,,,,,,3,,,41,62
6140,note_on,21,0,3,,,,,,,,,2,,,53,62
6140,note_on,0,0,3,,,,,,,,,2,,,57,62
6150,note_on,0,0,1,,,,,,,,,0,,,65,75
6150,note_on,30,0,1,,,,,,,,,0,,,63,75
6159,note_on,19,0,3,,,,,,,,,2,,,53,62
6159,note_on,0,0,3,,,,,,,,,2,,,60,62
6160,note_on,0,0,3,,,,,,,,,2,,,53,0
6160,note_on,1,0,3,,,,,,,,,2,,,57,0
6170,note_on,0,0,1,,,,,,,,,0,,,63,0
6170,note_on,0,0,1,,,,,,,,,0,,,69,75
6170,note_on,20,0,1,,,,,,,,,0,,,65,0
6170,note_on,0,0,1,,,,,,,,,0,,,63,75
6179,note_on,19,0,3,,,,,,,,,2,,,53,0
6179,note_on,0,0,3,,,,,,,,,2,,,60,0
6180,note_on,180,0,2,,,,,,,,,1,,,74,0
6180,note_on,0,0,2,,,,,,,,,1,,,72,101
6180,note_on,0,0,2,,,,,,,,,1,,,60,101
6180,note_on,0,0,2,,,,,,,,,1,,,62,0
6189,note_on,0,0,1,,,,,,,,,0,,,77,75
6189,note_on,0,0,1,,,,,,,,,0,,,84,75
6189,note_on,19,0,1,,,,,,,,,0,,,75,75
6190,note_on,1,0,1,,,,,,,,,0,,,69,0
6190,note_on,0,0,1,,,,,,,,,0,,,63,0
6200,note_on,21,0,3,,,,,,,,,2,,,65,62
6200,note_on,0,0,3,,,,,,,,,2,,,69,62
6209,note_on,0,0,1,,,,,,,,,0,,,84,0
6209,note_on,0,0,1,,,,,,,,,0,,,75,0
6209,note_on,19,0,1,,,,,,,,,0,,,77,0
6210,note_on,1,0,1,,,,,,,,,0,,,72,75
6210,note_on,0,0,1,,,,,,,,,0,,,81,75
6210,note_on,0,0,1,,,,,,,,,0,,,75,75
6219,note_on,19,0,3,,,,,,,,,2,,,60,62
6219,note_on,0,0,3,,,,,,,,,2,,,65,62
6220,note_on,0,0,3,,,,,,,,,2,,,65,0
6220,note_on,1,0,3,,,,,,,,,2,,,69,0
6230,note_on,0,0,1,,,,,,,,,0,,,77,75
6230,note_on,20,0,1,,,,,,,,,0,,,81,0
6230,note_on,0,0,1,,,,,,,,,0,,,69,75
6230,note_on,0,0,1,,,,,,,,,0,,,72,0
6230,note_on,0,0,1,,,,,,,,,0,,,75,0
6230,note_on,0,0,1,,,,,,,,,0,,,75,75
6239,note_on,0,0,3,,,,,,,,,2,,,65,0
6239,note_on,19,0,3,,,,,,,,,2,,,60,0
6240,note_on,0,0,4,,,,,,,,,3,,,34,62
6240,note_on,60,0,2,,,,,,,,,1,,,72,0
6240,note_on,0,0,4,,,,,,,,,3,,,46,62
6240,note_on,0,0,4,,,,,,,,,3,,,29,0
6240,control_change,0,0,1,,,,,,,,,0,64,127,,
6240,note_on,10,0,1,,,,,,,,,0,,,77,0
6240,note_on,0,0,2,,,,,,,,,1,,,70,101
6240,note_on,0,0,2,,,,,,,,,1,,,60,0
6240,note_on,0,0,2,,,,,,,,,1,,,58,101
6240,note_on,0,0,1,,,,,,,,,0,,,75,0
6240,note_on,0,0,1,,,,,,,,,0,,,69,0
6240,note_on,120,0,4,,,,,,,,,3,,,41,0
6240,control_change,1,0,3,,,,,,,,,2,64,127,,
6260,note_on,0,0,3,,,,,,,,,2,,,58,62
6260,note_on,0,0,1,,,,,,,,,0,,,65,75
6260,note_on,20,0,1,,,,,,,,,0,,,62,75
6260,note_on,20,0,3,,,,,,,,,2,,,53,62
6264,note_on,4,0,3,,,,,,,,,2,,,58,0
6264,note_on,0,0,3,,,,,,,,,2,,,53,0
6264,note_on,0,0,1,,,,,,,,,0,,,62,0
6264,note_on,4,0,1,,,,,,,,,0,,,65,0
6279,note_on,15,0,1,,,,,,,,,0,,,65,75
6279,note_on,15,0,3,,,,,,,,,2,,,58,62
6279,note_on,0,0,3,,,,,,,,,2,,,62,62
6279,note_on,0,0,1,,,,,,,,,0,,,70,75
6283,note_on,0,0,3,,,,,,,,,2,,,58,0
6283,note_on,0,0,1,,,,,,,,,0,,,65,0
6283,note_on,4,0,1,,,,,,,,,0,,,70,0
6283,note_on,4,0,3,,,,,,,,,2,,,62,0
6300,set_tempo,300,1,0,,,,,,2000000,,,,,,,
6300,note_on,0,0,3,,,,,,,,,2,,,70,62
6300,note_on,0,0,1,,,,,,,,,0,,,82,75
6300,note_on,0,0,1,,,,,,,,,0,,,86,75
6300,note_on,17,0,1,,,,,,,,,0,,,74,75
6300,note_on,17,0,3,,,,,,,,,2,,,65,62
6304,note_on,4,0,1,,,,,,,,,0,,,86,0
6304,note_on,4,0,3,,,,,,,,,2,,,70,0
6304,note_on,0,0,3,,,,,,,,,2,,,65,0
6304,note_on,0,0,1,,,,,,,,,0,,,74,0
6304,note_on,0,0,1,,,,,,,,,0,,,82,0
6320,note_on,16,0,3,,,,,,,,,2,,,62,62
6320,note_on,16,0,1,,,,,,,,,0,,,77,75
6320,note_on,0,0,3,,,,,,,,,2,,,65,62
6320,note_on,0,0,1,,,,,,,,,0,,,82,75
6324,note_on,4,0,1,,,,,,,,,0,,,82,0
6324,note_on,0,0,3,,,,,,,,,2,,,62,0
6324,note_on,4,0,3,,,,,,,,,2,,,65,0
6324,note_on,0,0,1,,,,,,,,,0,,,77,0
6339,note_on,0,0,3,,,,,,,,,2,,,70,62
6339,note_on,0,0,1,,,,,,,,,0,,,77,75
6339,note_on,15,0,1,,,,,,,,,0,,,74,75
6339,note_on,15,0,3,,,,,,,,,2,,,65,62
6343,note_on,4,0,1,,,,,,,,,0,,,77,0
6343,note_on,4,0,3,,,,,,,,,2,,,70,0
6343,note_on,0,0,3,,,,,,,,,2,,,65,0
6343,note_on,0,0,1,,,,,,,,,0,,,74,0
6360,note_on,0,0,2,,,,,,,,,1,,,58,0
6360,note_on,120,0,2,,,,,,,,,1,,,70,0
6360,note_on,120,0,4,,,,,,,,,3,,,46,0
6360,set_tempo,60,1,0,,,,,,1935484,,,,,,,
6360,note_on,0,0,4,,,,,,,,,3,,,34,0
6360,note_on,0,0,4,,,,,,,,,3,,,34,75
6360,note_on,0,0,4,,,,,,,,,3,,,46,75
6380,note_on,0,0,3,,,,,,,,,2,,,58,75
6380,note_on,37,0,1,,,,,,,,,0,,,62,88
6380,note_on,37,0,3,,,,,,,,,2,,,50,75
6380,note_on,0,0,3,,,,,,,,,2,,,53,75
6380,note_on,0,0,1,,,,,,,,,0,,,65,88
6384,note_on,4,0,1,,,,,,,,,0,,,65,0
6384,note_on,0,0,3,,,,,,,,,2,,,50,0
6384,note_on,0,0,3,,,,,,,,,2,,,53,0
6384,note_on,0,0,1,,,,,,,,,0,,,62,0
6384,note_on,4,0,3,,,,,,,,,2,,,58,0
6399,note_on,15,0,3,,,,,,,,,2,,,53,75
6399,note_on,15,0,1,,,,,,,,,0,,,65,88
6399,note_on,0,0,3,,,,,,,,,2,,,62,75
6399,note_on,0,0,3,,,,,,,,,2,,,58,75
6399,note_on,0,0,1,,,,,,,,,0,,,70,88
6403,note_on,4,0,3,,,,,,,,,2,,,62,0
6403,note_on,0,0,3,,,,,,,,,2,,,58,0
6403,note_on,4,0,1,,,,,,,,,0,,,70,0
6403,note_on,0,0,3,,,,,,,,,2,,,53,0
6403,note_on,0,0,1,,,,,,,,,0,,,65,0
6420,note_on,17,0,1,,,,,,,,,0,,,77,88
6420,note_on,0,0,1,,,,,,,,,0,,,86,88
6420,note_on,60,0,4,,,,,,,,,3,,,46,0
6420,note_on,0,0,4,,,,,,,,,3,,,62,75
6420,note_on,0,0,4,,,,,,,,,3,,,34,0
6420,set_tempo,60,1,0,,,,,,1875000,,,,,,,
6420,note_on,17,0,3,,,,,,,,,2,,,65,75
6420,note_on,60,0,2,,,,,,,,,1,,,74,101
6420,note_on,0,0,3,,,,,,,,,2,,,70,75
6424,note_on,0,0,3,,,,,,,,,2,,,65,0
6424,note_on,4,0,1,,,,,,,,,0,,,86,0
6424,note_on,0,0,1,,,,,,,,,0,,,77,0
6424,note_on,4,0,3,,,,,,,,,2,,,70,0
6440,note_on,16,0,1,,,,,,,,,0,,,74,88
6440,note_on,16,0,3,,,,,,,,,2,,,58,75
6440,note_on,0,0,1,,,,,,,,,0,,,82,88
6440,note_on,0,0,1,,,,,,,,,0,,,77,88
6440,note_on,0,0,3,,,,,,,,,2,,,62,75
6440,note_on,0,0,3,,,,,,,,,2,,,65,75
6444,note_on,4,0,3,,,,,,,,,2,,,65,0
6444,note_on,0,0,1,,,,,,,,,0,,,77,0
6444,note_on,0,0,1,,,,,,,,,0,,,74,0
6444,note_on,0,0,3,,,,,,,,,2,,,62,0
6444,note_on,0,0,3,,,,,,,,,2,,,58,0
6444,note_on,4,0,1,,,,,,,,,0,,,82,0
6459,control_change,15,0,1,,,,,,,,,0,64,0,,
6459,note_on,0,0,3,,,,,,,,,2,,,70,75
6459,note_on,0,0,3,,,,,,,,,2,,,65,75
6459,note_on,0,0,1,,,,,,,,,0,,,74,88
6459,control_change,15,0,3,,,,,,,,,2,64,0,,
6459,note_on,0,0,1,,,,,,,,,0,,,77,88
6459,note_on,0,0,3,,,,,,,,,2,,,62,75
6479,note_on,0,0,1,,,,,,,,,0,,,74,0
6479,note_on,0,0,3,,,,,,,,,2,,,62,0
6479,note_on,0,0,3,,,,,,,,,2,,,65,0
6479,note_on,20,0,1,,,,,,,,,0,,,77,0
6479,note_on,20,0,3,,,,,,,,,2,,,70,0
6480,control_change,1,0,3,,,,,,,,,2,64,127,,
6480,set_tempo,60,1,0,,,,,,1764706,,,,,,,
6480,note_on,0,0,4,,,,,,,,,3,,,34,88
6480,note_on,0,0,4,,,,,,,,,3,,,46,88
6480,note_on,60,0,4,,,,,,,,,3,,,62,0
6480,note_on,60,0,2,,,,,,,,,1,,,74,0
6480,control_change,1,0,1,,,,,,,,,0,64,127,,
6500,note_on,0,0,3,,,,,,,,,2,,,58,88
6500,note_on,20,0,1,,,,,,,,,0,,,62,101
6500,note_on,20,0,3,,,,,,,,,2,,,50,88
6500,note_on,0,0,3,,,,,,,,,2,,,53,88
6500,note_on,0,0,1,,,,,,,,,0,,,65,101
6500,note_on,0,0,1,,,,,,,,,0,,,70,101
6504,note_on,4,0,3,,,,,,,,,2,,,58,0
6504,note_on,0,0,3,,,,,,,,,2,,,50,0
6504,note_on,0,0,3,,,,,,,,,2,,,53,0
6504,note_on,4,0,1,,,,,,,,,0,,,70,0
6504,note_on,0,0,1,,,,,,,,,0,,,65,0
6504,note_on,0,0,1,,,,,,,,,0,,,62,0
6519,note_on,15,0,3,,,,,,,,,2,,,53,88
6519,note_on,0,0,1,,,,,,,,,0,,,74,101
6519,note_on,0,0,1,,,,,,,,,0,,,70,101
6519,note_on,15,0,1,,,,,,,,,0,,,65,101
6519,note_on,0,0,3,,,,,,,,,2,,,58,88
6519,note_on,0,0,3,,,,,,,,,2,,,62,88
6523,note_on,4,0,1,,,,,,,,,0,,,74,0
6523,note_on,0,0,3,,,,,,,,,2,,,58,0
6523,note_on,4,0,3,,,,,,,,,2,,,62,0
6523,note_on,0,0,3,,,,,,,,,2,,,53,0
6523,note_on,0,0,1,,,,,,,,,0,,,70,0
6523,note_on,0,0,1,,,,,,,,,0,,,65,0
6540,note_on,0,0,4,,,,,,,,,3,,,34,0
6540,note_on,17,0,3,,,,,,,,,2,,,70,88
6540,set_tempo,60,1,0,,,,,,1714286,,,,,,,
6540,note_on,60,0,4,,,,,,,,,3,,,46,0
6540,note_on,60,0,2,,,,,,,,,1,,,77,101
6540,note_on,17,0,1,,,,,,,,,0,,,82,101
6540,note_on,0,0,4,,,,,,,,,3,,,65,88
6540,note_on,0,0,1,,,,,,,,,0,,,89,101
6540,note_on,0,0,3,,,,,,,,,2,,,74,88
6544,note_on,0,0,3,,,,,,,,,2,,,70,0
6544,note_on,4,0,1,,,,,,,,,0,,,89,0
6544,note_on,4,0,3,,,,,,,,,2,,,74,0
6544,note_on,0,0,1,,,,,,,,,0,,,82,0
6560,note_on,0,0,3,,,,,,,,,2,,,70,88
6560,note_on,0,0,1,,,,,,,,,0,,,82,101
6560,note_on,0,0,1,,,,,,,,,0,,,86,101
6560,note_on,16,0,3,,,,,,,,,2,,,62,88
6560,note_on,0,0,3,,,,,,,,,2,,,65,88
6560,note_on,16,0,1,,,,,,,,,0,,,77,101
6564,note_on,0,0,1,,,,,,,,,0,,,82,0
6564,note_on,0,0,1,,,,,,,,,0,,,77,0
6564,note_on,0,0,3,,,,,,,,,2,,,65,0
6564,note_on,4,0,3,,,,,,,,,2,,,70,0
6564,note_on,4,0,1,,,,,,,,,0,,,86,0
6564,note_on,0,0,3,,,,,,,,,2,,,62,0
6579,control_change,15,0,3,,,,,,,,,2,64,0,,
6579,note_on,0,0,1,,,,,,,,,0,,,82,101
6579,control_change,15,0,1,,,,,,,,,0,64,0,,
6579,note_on,0,0,1,,,,,,,,,0,,,77,101
6579,note_on,0,0,3,,,,,,,,,2,,,74,88
6579,note_on,0,0,3,,,,,,,,,2,,,70,88
6579,note_on,0,0,3,,,,,,,,,2,,,65,88
6599,note_on,0,0,3,,,,,,,,,2,,,65,0
6599,note_on,0,0,1,,,,,,,,,0,,,77,0
6599,note_on,20,0,1,,,,,,,,,0,,,82,0
6599,note_on,20,0,3,,,,,,,,,2,,,74,0
6599,note_on,0,0,3,,,,,,,,,2,,,70,0
6600,control_change,1,0,1,,,,,,,,,0,64,127,,
6600,note_on,0,0,4,,,,,,,,,3,,,46,101
6600,note_on,0,0,4,,,,,,,,,3,,,34,101
6600,control_change,1,0,3,,,,,,,,,2,64,127,,
6600,set_tempo,60,1,0,,,,,,1666667,,,,,,,
6600,note_on,60,0,4,,,,,,,,,3,,,65,0
6600,note_on,60,0,2,,,,,,,,,1,,,77,0
6620,note_on,20,0,3,,,,,,,,,2,,,53,101
6620,note_on,0,0,1,,,,,,,,,0,,,68,114
6620,note_on,20,0,1,,,,,,,,,0,,,65,114
6620,note_on,0,0,3,,,,,,,,,2,,,56,101
6620,note_on,0,0,3,,,,,,,,,2,,,62,101
6620,note_on,0,0,1,,,,,,,,,0,,,74,114
6624,note_on,4,0,1,,,,,,,,,0,,,74,0
6624,note_on,4,0,3,,,,,,,,,2,,,62,0
6624,note_on,0,0,1,,,,,,,,,0,,,65,0
6624,note_on,0,0,1,,,,,,,,,0,,,68,0
6624,note_on,0,0,3,,,,,,,,,2,,,53,0
6624,note_on,0,0,3,,,,,,,,,2,,,56,0
6639,note_on,0,0,1,,,,,,,,,0,,,74,114
6639,note_on,0,0,1,,,,,,,,,0,,,77,114
6639,note_on,15,0,3,,,,,,,,,2,,,56,101
6639,note_on,0,0,3,,,,,,,,,2,,,62,101
6639,note_on,15,0,1,,,,,,,,,0,,,68,114
6639,note_on,0,0,3,,,,,,,,,2,,,65,101
6643,note_on,0,0,3,,,,,,,,,2,,,56,0
6643,note_on,0,0,3,,,,,,,,,2,,,62,0
6643,note_on,0,0,1,,,,,,,,,0,,,68,0
6643,note_on,0,0,1,,,,,,,,,0,,,74,0
6643,note_on,4,0,1,,,,,,,,,0,,,77,0
6643,note_on,4,0,3,,,,,,,,,2,,,65,0
6660,note_on,0,0,4,,,,,,,,,3,,,34,0
6660,note_on,0,0,3,,,,,,,,,2,,,77,127
6660,note_on,17,0,1,,,,,,,,,0,,,86,127
6660,note_on,60,0,4,,,,,,,,,3,,,46,0
6660,note_on,0,0,4,,,,,,,,,3,,,68,127
6660,note_on,60,0,2,,,,,,,,,1,,,80,127
6660,note_on,17,0,3,,,,,,,,,2,,,74,119
6660,note_on,0,0,1,,,,,,,,,0,,,92,127
6660,set_tempo,60,1,0,,,,,,1578947,,,,,,,
6664,note_on,0,0,3,,,,,,,,,2,,,74,0
6664,note_on,0,0,1,,,,,,,,,0,,,86,0
6664,note_on,4,0,3,,,,,,,,,2,,,77,0
6664,note_on,4,0,1,,,,,,,,,0,,,92,0
6680,note_on,0,0,1,,,,,,,,,0,,,89,114
6680,note_on,0,0,1,,,,,,,,,0,,,86,114
6680,note_on,16,0,3,,,,,,,,,2,,,65,101
6680,note_on,0,0,3,,,,,,,,,2,,,68,101
6680,note_on,0,0,3,,,,,,,,,2,,,74,101
6680,note_on,16,0,1,,,,,,,,,0,,,80,114
6684,note_on,0,0,3,,,,,,,,,2,,,68,0
6684,note_on,4,0,3,,,,,,,,,2,,,74,0
6684,note_on,4,0,1,,,,,,,,,0,,,89,0
6684,note_on,0,0,1,,,,,,,,,0,,,80,0
6684,note_on,0,0,1,,,,,,,,,0,,,86,0
6684,note_on,0,0,3,,,,,,,,,2,,,65,0
6699,note_on,0,0,1,,,,,,,,,0,,,80,114
6699,control_change,15,0,3,,,,,,,,,2,64,0,,
6699,note_on,0,0,3,,,,,,,,,2,,,74,101
6699,note_on,0,0,3,,,,,,,,,2,,,77,101
6699,note_on,0,0,1,,,,,,,,,0,,,86,114
6699,note_on,0,0,3,,,,,,,,,2,,,68,101
6699,control_change,15,0,1,,,,,,,,,0,64,0,,
6719,note_on,0,0,3,,,,,,,,,2,,,74,0
6719,note_on,0,0,1,,,,,,,,,0,,,80,0
6719,note_on,20,0,3,,,,,,,,,2,,,77,0
6719,note_on,0,0,3,,,,,,,,,2,,,68,0
6719,note_on,20,0,1,,,,,,,,,0,,,86,0
6720,note_on,0,0,4,,,,,,,,,3,,,34,101
6720,set_tempo,60,1,0,,,,,,1538462,,,,,,,
6720,control_change,1,0,3,,,,,,,,,2,64,127,,
6720,note_on,60,0,2,,,,,,,,,1,,,80,0
6720,note_on,0,0,4,,,,,,,,,3,,,46,101
6720,note_on,60,0,4,,,,,,,,,3,,,68,0
6720,control_change,1,0,1,,,,,,,,,0,64,127,,
6740,note_on,0,0,3,,,,,,,,,2,,,58,101
6740,note_on,20,0,3,,,,,,,,,2,,,51,101
6740,note_on,0,0,3,,,,,,,,,2,,,55,101
6740,note_on,0,0,1,,,,,,,,,0,,,67,114
6740,note_on,0,0,1,,,,,,,,,0,,,70,114
6740,note_on,20,0,1,,,,,,,,,0,,,63,114
6744,note_on,4,0,3,,,,,,,,,2,,,58,0
6744,note_on,0,0,1,,,,,,,,,0,,,67,0
6744,note_on,4,0,1,,,,,,,,,0,,,70,0
6744,note_on,0,0,3,,,,,,,,,2,,,51,0
6744,note_on,0,0,3,,,,,,,,,2,,,55,0
6744,note_on,0,0,1,,,,,,,,,0,,,63,0
6759,note_on,0,0,1,,,,,,,,,0,,,75,114
6759,note_on,15,0,1,,,,,,,,,0,,,67,114
6759,note_on,0,0,3,,,,,,,,,2,,,63,101
6759,note_on,0,0,1,,,,,,,,,0,,,70,114
6759,note_on,15,0,3,,,,,,,,,2,,,55,101
6759,note_on,0,0,3,,,,,,,,,2,,,58,101
6763,note_on,0,0,1,,,,,,,,,0,,,70,0
6763,note_on,4,0,1,,,,,,,,,0,,,75,0
6763,note_on,0,0,1,,,,,,,,,0,,,67,0
6763,note_on,4,0,3,,,,,,,,,2,,,63,0
6763,note_on,0,0,3,,,,,,,,,2,,,58,0
6763,note_on,0,0,3,,,,,,,,,2,,,55,0
6780,note_on,0,0,3,,,,,,,,,2,,,75,101
6780,note_on,0,0,4,,,,,,,,,3,,,67,101
6780,note_on,17,0,3,,,,,,,,,2,,,70,101
6780,note_on,0,0,4,,,,,,,,,3,,,34,0
6780,note_on,60,0,2,,,,,,,,,1,,,79,101
6780,note_on,17,0,1,,,,,,,,,0,,,82,114
6780,note_on,60,0,4,,,,,,,,,3,,,46,0
6780,note_on,0,0,1,,,,,,,,,0,,,91,114
6784,note_on,4,0,1,,,,,,,,,0,,,91,0
6784,note_on,0,0,1,,,,,,,,,0,,,82,0
6784,note_on,0,0,3,,,,,,,,,2,,,70,0
6784,note_on,4,0,3,,,,,,,,,2,,,75,0
6800,note_on,0,0,1,,,,,,,,,0,,,87,114
6800,note_on,0,0,1,,,,,,,,,0,,,82,114
6800,note_on,0,0,3,,,,,,,,,2,,,67,101
6800,note_on,16,0,1,,,,,,,,,0,,,79,114
6800,note_on,0,0,3,,,,,,,,,2,,,70,101
6800,note_on,16,0,3,,,,,,,,,2,,,63,101
6804,note_on,4,0,1,,,,,,,,,0,,,87,0
6804,note_on,0,0,1,,,,,,,,,0,,,79,0
6804,note_on,0,0,3,,,,,,,,,2,,,63,0
6804,note_on,0,0,3,,,,,,,,,2,,,67,0
6804,note_on,4,0,3,,,,,,,,,2,,,70,0
6804,note_on,0,0,1,,,,,,,,,0,,,82,0
6819,control_change,15,0,3,,,,,,,,,2,64,0,,
6819,note_on,0,0,3,,,,,,,,,2,,,67,101
6819,note_on,0,0,3,,,,,,,,,2,,,70,101
6819,note_on,0,0,3,,,,,,,,,2,,,75,101
6819,note_on,0,0,1,,,,,,,,,0,,,79,114
6819,note_on,0,0,1,,,,,,,,,0,,,82,114
6819,control_change,15,0,1,,,,,,,,,0,64,0,,
6839,note_on,0,0,1,,,,,,,,,0,,,79,0
6839,note_on,20,0,3,,,,,,,,,2,,,75,0
6839,note_on,20,0,1,,,,,,,,,0,,,82,0
6839,note_on,0,0,3,,,,,,,,,2,,,70,0
6839,note_on,0,0,3,,,,,,,,,2,,,67,0
6840,note_on,0,0,4,,,,,,,,,3,,,46,101
6840,note_on,0,0,4,,,,,,,,,3,,,34,101
6840,note_on,60,0,4,,,,,,,,,3,,,67,0
6840,note_on,60,0,2,,,,,,,,,1,,,79,0
6840,control_change,1,0,3,,,,,,,,,2,64,127,,
6840,control_change,1,0,1,,,,,,,,,0,64,127,,
6860,note_on,0,0,1,,,,,,,,,0,,,66,114
6860,note_on,20,0,3,,,,,,,,,2,,,51,101
6860,note_on,20,0,1,,,,,,,,,0,,,63,114
6860,note_on,0,0,1,,,,,,,,,0,,,69,114
6860,note_on,0,0,3,,,,,,,,,2,,,54,101
6860,note_on,0,0,3,,,,,,,,,2,,,60,101
6864,note_on,0,0,1,,,,,,,,,0,,,66,0
6864,note_on,0,0,1,,,,,,,,,0,,,63,0
6864,note_on,0,0,3,,,,,,,,,2,,,51,0
6864,note_on,4,0,1,,,,,,,,,0,,,69,0
6864,note_on,4,0,3,,,,,,,,,2,,,60,0
6864,note_on,0,0,3,,,,,,,,,2,,,54,0
6879,note_on,0,0,3,,,,,,,,,2,,,60,101
6879,note_on,0,0,3,,,,,,,,,2,,,63,101
6879,note_on,15,0,3,,,,,,,,,2,,,54,101
6879,note_on,15,0,1,,,,,,,,,0,,,66,114
6879,note_on,0,0,1,,,,,,,,,0,,,75,114
6879,note_on,0,0,1,,,,,,,,,0,,,69,114
6883,note_on,4,0,3,,,,,,,,,2,,,63,0
6883,note_on,0,0,1,,,,,,,,,0,,,69,0
6883,note_on,0,0,3,,,,,,,,,2,,,60,0
6883,note_on,4,0,1,,,,,,,,,0,,,75,0
6883,note_on,0,0,1,,,,,,,,,0,,,66,0
6883,note_on,0,0,3,,,,,,,,,2,,,54,0
6900,note_on,0,0,1,,,,,,,,,0,,,90,114
6900,note_on,17,0,1,,,,,,,,,0,,,81,114
6900,note_on,0,0,3,,,,,,,,,2,,,75,101
6900,note_on,60,0,4,,,,,,,,,3,,,46,0
6900,note_on,0,0,4,,,,,,,,,3,,,66,101
6900,note_on,0,0,4,,,,,,,,,3,,,34,0
6900,note_on,17,0,3,,,,,,,,,2,,,72,101
6900,note_on,60,0,2,,,,,,,,,1,,,78,101
6904,note_on,4,0,3,,,,,,,,,2,,,75,0
6904,note_on,0,0,1,,,,,,,,,0,,,81,0
6904,note_on,4,0,1,,,,,,,,,0,,,90,0
6904,note_on,0,0,3,,,,,,,,,2,,,72,0
6920,note_on,16,0,3,,,,,,,,,2,,,63,101
6920,note_on,16,0,1,,,,,,,,,0,,,78,114
6920,note_on,0,0,1,,,,,,,,,0,,,81,114
6920,note_on,0,0,1,,,,,,,,,0,,,87,114
6920,note_on,0,0,3,,,,,,,,,2,,,72,101
6920,note_on,0,0,3,,,,,,,,,2,,,66,101
6924,note_on,4,0,3,,,,,,,,,2,,,72,0
6924,note_on,0,0,1,,,,,,,,,0,,,81,0
6924,note_on,0,0,3,,,,,,,,,2,,,66,0
6924,note_on,0,0,3,,,,,,,,,2,,,63,0
6924,note_on,0,0,1,,,,,,,,,0,,,78,0
6924,note_on,4,0,1,,,,,,,,,0,,,87,0
6939,control_change,15,0,1,,,,,,,,,0,64,0,,
6939,control_change,15,0,3,,,,,,,,,2,64,0,,
6939,note_on,0,0,3,,,,,,,,,2,,,75,101
6939,note_on,0,0,3,,,,,,,,,2,,,72,101
6939,note_on,0,0,3,,,,,,,,,2,,,66,101
6939,note_on,0,0,1,,,,,,,,,0,,,81,114
6939,note_on,0,0,1,,,,,,,,,0,,,78,114
6959,note_on,0,0,3,,,,,,,,,2,,,72,0
6959,note_on,0,0,3,,,,,,,,,2,,,66,0
6959,note_on,20,0,3,,,,,,,,,2,,,75,0
6959,note_on,20,0,1,,,,,,,,,0,,,81,0
6959,note_on,0,0,1,,,,,,,,,0,,,78,0
6960,note_on,60,0,4,,,,,,,,,3,,,66,0
6960,control_change,1,0,3,,,,,,,,,2,64,127,,
6960,note_on,0,0,4,,,,,,,,,3,,,46,88
6960,note_on,0,0,4,,,,,,,,,3,,,34,88
6960,control_change,1,0,1,,,,,,,,,0,64,127,,
6960,note_on,60,0,2,,,,,,,,,1,,,78,0
6980,note_on,20,0,3,,,,,,,,,2,,,50,88
6980,note_on,0,0,3,,,,,,,,,2,,,53,88
6980,note_on,0,0,1,,,,,,,,,0,,,65,101
6980,note_on,0,0,3,,,,,,,,,2,,,58,88
6980,note_on,20,0,1,,,,,,,,,0,,,62,101
6980,note_on,0,0,1,,,,,,,,,0,,,70,101
6984,note_on,0,0,3,,,,,,,,,2,,,50,0
6984,note_on,0,0,3,,,,,,,,,2,,,53,0
6984,note_on,4,0,3,,,,,,,,,2,,,58,0
6984,note_on,4,0,1,,,,,,,,,0,,,70,0
6984,note_on,0,0,1,,,,,,,,,0,,,62,0
6984,note_on,0,0,1,,,,,,,,,0,,,65,0
6999,note_on,0,0,3,,,,,,,,,2,,,58,88
6999,note_on,15,0,3,,,,,,,,,2,,,53,88
6999,note_on,15,0,1,,,,,,,,,0,,,65,101
6999,note_on,0,0,1,,,,,,,,,0,,,74,101
6999,note_on,0,0,1,,,,,,,,,0,,,70,101
6999,note_on,0,0,3,,,,,,,,,2,,,62,88
7003,note_on,4,0,3,,,,,,,,,2,,,62,0
7003,note_on,0,0,3,,,,,,,,,2,,,53,0
7003,note_on,0,0,3,,,,,,,,,2,,,58,0
7003,note_on,0,0,1,,,,,,,,,0,,,70,0
7003,note_on,0,0,1,,,,,,,,,0,,,65,0
7003,note_on,4,0,1,,,,,,,,,0,,,74,0
7020,note_on,0,0,4,,,,,,,,,3,,,65,88
7020,note_on,17,0,3,,,,,,,,,2,,,70,88
7020,note_on,0,0,4,,,,,,,,,3,,,34,0
7020,note_on,60,0,2,,,,,,,,,1,,,77,101
7020,note_on,17,0,1,,,,,,,,,0,,,82,101
7020,note_on,0,0,3,,,,,,,,,2,,,74,88
7020,note_on,60,0,4,,,,,,,,,3,,,46,0
7020,note_on,0,0,1,,,,,,,,,0,,,89,101
7024,note_on,4,0,1,,,,,,,,,0,,,89,0
7024,note_on,4,0,3,,,,,,,,,2,,,74,0
7024,note_on,0,0,1,,,,,,,,,0,,,82,0
7024,note_on,0,0,3,,,,,,,,,2,,,70,0
7040,note_on,16,0,3,,,,,,,,,2,,,62,88
7040,note_on,0,0,1,,,,,,,,,0,,,82,101
7040,note_on,0,0,1,,,,,,,,,0,,,86,101
7040,note_on,0,0,3,,,,,,,,,2,,,65,88
7040,note_on,16,0,1,,,,,,,,,0,,,77,101
7040,note_on,0,0,3,,,,,,,,,2,,,70,88
7044,note_on,0,0,3,,,,,,,,,2,,,62,0
7044,note_on,4,0,3,,,,,,,,,2,,,70,0
7044,note_on,0,0,1,,,,,,,,,0,,,77,0
7044,note_on,0,0,3,,,,,,,,,2,,,65,0
7044,note_on,0,0,1,,,,,,,,,0,,,82,0
7044,note_on,4,0,1,,,,,,,,,0,,,86,0
7059,note_on,15,0,1,,,,,,,,,0,,,77,101
7059,note_on,0,0,3,,,,,,,,,2,,,74,88
7059,note_on,0,0,3,,,,,,,,,2,,,70,88
7059,note_on,15,0,3,,,,,,,,,2,,,65,88
7059,note_on,0,0,1,,,,,,,,,0,,,82,101
7063,note_on,0,0,3,,,,,,,,,2,,,70,0
7063,note_on,0,0,3,,,,,,,,,2,,,65,0
7063,note_on,4,0,1,,,,,,,,,0,,,82,0
7063,note_on,4,0,3,,,,,,,,,2,,,74,0
7063,note_on,0,0,1,,,,,,,,,0,,,77,0
7080,note_on,60,0,4,,,,,,,,,3,,,65,0
7080,note_on,0,0,4,,,,,,,,,3,,,46,75
7080,note_on,0,0,4,,,,,,,,,3,,,34,75
7080,note_on,60,0,2,,,,,,,,,1,,,77,0
7095,set_tempo,375,1,0,,,,,,1578947,,,,,,,
7100,note_on,0,0,1,,,,,,,,,0,,,65,88
7100,note_on,0,0,3,,,,,,,,,2,,,53,75
7100,note_on,0,0,3,,,,,,,,,2,,,50,75
7100,note_on,37,0,1,,,,,,,,,0,,,58,88
7100,note_on,37,0,3,,,,,,,,,2,,,46,75
7100,note_on,0,0,1,,,,,,,,,0,,,62,88
7104,note_on,0,0,3,,,,,,,,,2,,,50,0
7104,note_on,4,0,1,,,,,,,,,0,,,65,0
7104,note_on,0,0,1,,,,,,,,,0,,,58,0
7104,note_on,4,0,3,,,,,,,,,2,,,53,0
7104,note_on,0,0,3,,,,,,,,,2,,,46,0
7104,note_on,0,0,1,,,,,,,,,0,,,62,0
7110,set_tempo,15,1,0,,,,,,1666667,,,,,,,
7119,note_on,0,0,3,,,,,,,,,2,,,53,75
7119,note_on,0,0,1,,,,,,,,,0,,,65,88
7119,note_on,0,0,3,,,,,,,,,2,,,58,75
7119,note_on,0,0,1,,,,,,,,,0,,,70,88
7119,note_on,15,0,1,,,,,,,,,0,,,62,88
7119,note_on,15,0,3,,,,,,,,,2,,,50,75
7123,note_on,0,0,1,,,,,,,,,0,,,62,0
7123,note_on,4,0,3,,,,,,,,,2,,,58,0
7123,note_on,0,0,3,,,,,,,,,2,,,53,0
7123,note_on,0,0,3,,,,,,,,,2,,,50,0
7123,note_on,0,0,1,,,,,,,,,0,,,65,0
7123,note_on,4,0,1,,,,,,,,,0,,,70,0
7125,set_tempo,15,1,0,,,,,,1764706,,,,,,,
7140,note_on,17,0,3,,,,,,,,,2,,,65,75
7140,note_on,60,0,2,,,,,,,,,1,,,74,88
7140,note_on,0,0,3,,,,,,,,,2,,,70,75
7140,note_on,0,0,1,,,,,,,,,0,,,86,88
7140,note_on,17,0,1,,,,,,,,,0,,,77,88
7140,note_on,0,0,4,,,,,,,,,3,,,62,75
7140,note_on,60,0,4,,,,,,,,,3,,,46,0
7140,set_tempo,15,1,0,,,,,,1875000,,,,,,,
7140,note_on,0,0,4,,,,,,,,,3,,,34,0
7144,note_on,4,0,1,,,,,,,,,0,,,86,0
7144,note_on,0,0,3,,,,,,,,,2,,,65,0
7144,note_on,0,0,1,,,,,,,,,0,,,77,0
7144,note_on,4,0,3,,,,,,,,,2,,,70,0
7155,set_tempo,15,1,0,,,,,,2000000,,,,,,,
7160,note_on,0,0,1,,,,,,,,,0,,,82,88
7160,note_on,16,0,3,,,,,,,,,2,,,58,75
7160,note_on,0,0,1,,,,,,,,,0,,,77,88
7160,note_on,16,0,1,,,,,,,,,0,,,74,88
7160,note_on,0,0,3,,,,,,,,,2,,,65,75
7160,note_on,0,0,3,,,,,,,,,2,,,62,75
7164,note_on,0,0,3,,,,,,,,,2,,,62,0
7164,note_on,0,0,1,,,,,,,,,0,,,77,0
7164,note_on,0,0,3,,,,,,,,,2,,,58,0
7164,note_on,4,0,3,,,,,,,,,2,,,65,0
7164,note_on,4,0,1,,,,,,,,,0,,,82,0
7164,note_on,0,0,1,,,,,,,,,0,,,74,0
7170,set_tempo,15,1,0,,,,,,2142857,,,,,,,
7179,note_on,0,0,1,,,,,,,,,0,,,77,88
7179,note_on,15,0,1,,,,,,,,,0,,,74,88
7179,note_on,15,0,3,,,,,,,,,2,,,62,75
7179,note_on,0,0,3,,,,,,,,,2,,,65,75
7179,note_on,0,0,3,,,,,,,,,2,,,70,75
7183,note_on,0,0,1,,,,,,,,,0,,,74,0
7183,note_on,4,0,1,,,,,,,,,0,,,77,0
7183,note_on,0,0,3,,,,,,,,,2,,,65,0
7183,note_on,4,0,3,,,,,,,,,2,,,70,0
7183,note_on,0,0,3,,,,,,,,,2,,,62,0
7185,set_tempo,15,1,0,,,,,,2307692,,,,,,,
7200,note_on,60,0,4,,,,,,,,,3,,,62,0
7200,note_on,60,0,2,,,,,,,,,1,,,74,0
7200,note_on,0,0,4,,,,,,,,,3,,,34,62
7200,set_tempo,15,1,0,,,,,,2142857,,,,,,,
7220,note_on,0,0,1,,,,,,,,,0,,,62,75
7220,note_on,37,0,1,,,,,,,,,0,,,58,75
7220,note_on,37,0,3,,,,,,,,,2,,,46,62
7220,note_on,0,0,3,,,,,,,,,2,,,53,62
7224,note_on,0,0,1,,,,,,,,,0,,,58,0
7224,note_on,0,0,3,,,,,,,,,2,,,46,0
7224,note_on,4,0,3,,,,,,,,,2,,,53,0
7224,note_on,4,0,1,,,,,,,,,0,,,62,0
7239,note_on,15,0,1,,,,,,,,,0,,,62,75
7239,note_on,15,0,3,,,,,,,,,2,,,50,62
7239,note_on,0,0,3,,,,,,,,,2,,,58,62
7239,note_on,0,0,1,,,,,,,,,0,,,65,75
7243,note_on,4,0,3,,,,,,,,,2,,,58,0
7243,note_on,4,0,1,,,,,,,,,0,,,65,0
7243,note_on,0,0,1,,,,,,,,,0,,,62,0
7243,note_on,0,0,3,,,,,,,,,2,,,50,0
7260,note_on,0,0,1,,,,,,,,,0,,,74,75
7260,note_on,0,0,1,,,,,,,,,0,,,82,75
7260,note_on,17,0,3,,,,,,,,,2,,,58,62
7260,note_on,17,0,1,,,,,,,,,0,,,70,75
7260,note_on,0,0,3,,,,,,,,,2,,,65,62
7264,note_on,0,0,1,,,,,,,,,0,,,70,0
7264,note_on,0,0,1,,,,,,,,,0,,,74,0
7264,note_on,0,0,3,,,,,,,,,2,,,58,0
7264,note_on,4,0,3,,,,,,,,,2,,,65,0
7264,note_on,4,0,1,,,,,,,,,0,,,82,0
7280,note_on,0,0,1,,,,,,,,,0,,,77,75
7280,note_on,16,0,3,,,,,,,,,2,,,62,62
7280,note_on,16,0,1,,,,,,,,,0,,,70,75
7284,note_on,0,0,1,,,,,,,,,0,,,70,0
7284,note_on,4,0,3,,,,,,,,,2,,,62,0
7284,note_on,4,0,1,,,,,,,,,0,,,77,0
7299,note_on,15,0,1,,,,,,,,,0,,,70,75
7299,note_on,0,0,1,,,,,,,,,0,,,74,75
7299,note_on,15,0,3,,,,,,,,,2,,,58,62
7303,note_on,0,0,1,,,,,,,,,0,,,70,0
7303,note_on,4,0,3,,,,,,,,,2,,,58,0
7303,note_on,4,0,1,,,,,,,,,0,,,74,0
7320,note_on,120,0,4,,,,,,,,,3,,,34,0
7320,set_tempo,120,1,0,,,,,,2068966,,,,,,,
7320,note_on,0,0,4,,,,,,,,,3,,,34,49
7340,note_on,0,0,1,,,,,,,,,0,,,58,62
7340,note_on,37,0,1,,,,,,,,,0,,,53,62
7340,note_on,37,0,3,,,,,,,,,2,,,50,49
7344,note_on,4,0,3,,,,,,,,,2,,,50,0
7344,note_on,0,0,1,,,,,,,,,0,,,53,0
7344,note_on,4,0,1,,,,,,,,,0,,,58,0
7359,note_on,15,0,3,,,,,,,,,2,,,53,49
7359,note_on,0,0,1,,,,,,,,,0,,,62,62
7359,note_on,15,0,1,,,,,,,,,0,,,58,62
7363,note_on,0,0,1,,,,,,,,,0,,,58,0
7363,note_on,4,0,3,,,,,,,,,2,,,53,0
7363,note_on,4,0,1,,,,,,,,,0,,,62,0
7380,note_on,0,0,1,,,,,,,,,0,,,70,62
7380,note_on,17,0,3,,,,,,,,,2,,,62,49
7380,note_on,17,0,1,,,,,,,,,0,,,65,62
7380,note_on,0,0,1,,,,,,,,,0,,,77,62
7384,note_on,0,0,1,,,,,,,,,0,,,65,0
7384,note_on,4,0,3,,,,,,,,,2,,,62,0
7384,note_on,4,0,1,,,,,,,,,0,,,77,0
7384,note_on,0,0,1,,,,,,,,,0,,,70,0
7400,note_on,16,0,3,,,,,,,,,2,,,58,49
7400,note_on,16,0,1,,,,,,,,,0,,,65,62
7400,note_on,0,0,1,,,,,,,,,0,,,74,62
7404,note_on,4,0,1,,,,,,,,,0,,,74,0
7404,note_on,0,0,1,,,,,,,,,0,,,65,0
7404,note_on,4,0,3,,,,,,,,,2,,,58,0
7419,note_on,15,0,1,,,,,,,,,0,,,62,62
7419,note_on,0,0,1,,,,,,,,,0,,,70,62
7419,note_on,15,0,3,,,,,,,,,2,,,53,49
7423,note_on,0,0,1,,,,,,,,,0,,,62,0
7423,note_on,4,0,1,,,,,,,,,0,,,70,0
7423,note_on,4,0,3,,,,,,,,,2,,,53,0
7440,note_on,120,0,4,,,,,,,,,3,,,34,0
7440,note_on,0,0,4,,,,,,,,,3,,,34,49
7460,note_on,0,0,3,,,,,,,,,2,,,50,49
7460,note_on,0,0,3,,,,,,,,,2,,,53,49
7460,note_on,37,0,3,,,,,,,,,2,,,46,49
7464,note_on,4,0,3,,,,,,,,,2,,,53,0
7464,note_on,0,0,3,,,,,,,,,2,,,46,0
7464,note_on,0,0,3,,,,,,,,,2,,,50,0
7479,note_on,0,0,3,,,,,,,,,2,,,58,49
7479,note_on,15,0,3,,,,,,,,,2,,,50,49
7479,note_on,0,0,3,,,,,,,,,2,,,53,49
7483,note_on,0,0,3,,,,,,,,,2,,,53,0
7483,note_on,4,0,3,,,,,,,,,2,,,58,0
7483,note_on,0,0,3,,,,,,,,,2,,,50,0
7500,note_on,0,0,1,,,,,,,,,0,,,74,49
7500,note_on,77,0,1,,,,,,,,,0,,,62,49
7500,note_on,0,0,1,,,,,,,,,0,,,65,49
7504,note_on,4,0,1,,,,,,,,,0,,,74,0
7504,note_on,0,0,1,,,,,,,,,0,,,62,0
7504,note_on,0,0,1,,,,,,,,,0,,,65,0
7520,note_on,0,0,1,,,,,,,,,0,,,65,49
7520,note_on,0,0,1,,,,,,,,,0,,,70,49
7520,note_on,16,0,1,,,,,,,,,0,,,62,49
7524,note_on,4,0,1,,,,,,,,,0,,,70,0
7524,note_on,0,0,1,,,,,,,,,0,,,62,0
7524,note_on,0,0,1,,,,,,,,,0,,,65,0
7539,note_on,15,0,1,,,,,,,,,0,,,62,49
7539,note_on,0,0,1,,,,,,,,,0,,,65,49
7543,note_on,4,0,1,,,,,,,,,0,,,65,0
7543,note_on,0,0,1,,,,,,,,,0,,,62,0
7560,note_on,0,0,4,,,,,,,,,3,,,34,36
7560,note_on,120,0,4,,,,,,,,,3,,,34,0
7575,set_tempo,255,1,0,,,,,,2142857,,,,,,,
7580,note_on,97,0,3,,,,,,,,,2,,,46,36
7580,note_on,0,0,3,,,,,,,,,2,,,53,36
7580,note_on,0,0,3,,,,,,,,,2,,,50,36
7584,note_on,0,0,3,,,,,,,,,2,,,50,0
7584,note_on,4,0,3,,,,,,,,,2,,,53,0
7584,note_on,0,0,3,,,,,,,,,2,,,46,0
7590,set_tempo,15,1,0,,,,,,2307692,,,,,,,
7599,note_on,15,0,3,,,,,,,,,2,,,50,36
7599,note_on,0,0,3,,,,,,,,,2,,,53,36
7599,note_on,0,0,3,,,,,,,,,2,,,58,36
7603,note_on,0,0,3,,,,,,,,,2,,,53,0
7603,note_on,0,0,3,,,,,,,,,2,,,50,0
7603,note_on,4,0,3,,,,,,,,,2,,,58,0
7605,set_tempo,15,1,0,,,,,,2500000,,,,,,,
7620,set_tempo,15,1,0,,,,,,2727273,,,,,,,
7620,note_on,0,0,3,,,,,,,,,2,,,58,36
7620,note_on,0,0,3,,,,,,,,,2,,,62,36
7620,note_on,17,0,3,,,,,,,,,2,,,53,36
7624,note_on,0,0,3,,,,,,,,,2,,,58,0
7624,note_on,0,0,3,,,,,,,,,2,,,53,0
7624,note_on,4,0,3,,,,,,,,,2,,,62,0
7635,set_tempo,15,1,0,,,,,,3000000,,,,,,,
7640,note_on,0,0,3,,,,,,,,,2,,,58,36
7640,note_on,0,0,3,,,,,,,,,2,,,53,36
7640,note_on,16,0,3,,,,,,,,,2,,,50,36
7644,note_on,0,0,3,,,,,,,,,2,,,50,0
7644,note_on,0,0,3,,,,,,,,,2,,,53,0
7644,note_on,4,0,3,,,,,,,,,2,,,58,0
7650,set_tempo,15,1,0,,,,,,3333333,,,,,,,
7659,note_on,0,0,3,,,,,,,,,2,,,53,36
7659,note_on,0,0,3,,,,,,,,,2,,,50,36
7659,control_change,116,0,1,,,,,,,,,0,64,0,,
7659,control_change,15,0,3,,,,,,,,,2,64,0,,
7665,set_tempo,15,1,0,,,,,,3750000,,,,,,,
7679,note_on,0,0,3,,,,,,,,,2,,,50,0
7679,note_on,20,0,3,,,,,,,,,2,,,53,0
7680,control_change,1,0,3,,,,,,,,,2,64,127,,
7680,set_tempo,15,1,0,,,,,,2142857,,,,,,,
7680,note_on,120,0,4,,,,,,,,,3,,,34,0
7680,control_change,21,0,1,,,,,,,,,0,64,127,,
7680,note_on,480,0,2,,,,,,,,,1,,,58,127
7680,note_on,0,0,3,,,,,,,,,2,,,46,36
7684,note_on,4,0,3,,,,,,,,,2,,,46,0
7689,note_on,9,0,1,,,,,,,,,0,,,82,49
7699,note_on,10,0,1,,,,,,,,,0,,,82,0
7700,note_on,16,0,3,,,,,,,,,2,,,50,36
7700,note_on,1,0,1,,,,,,,,,0,,,89,49
7704,note_on,4,0,3,,,,,,,,,2,,,50,0
7710,note_on,10,0,1,,,,,,,,,0,,,89,0
7710,note_on,0,0,1,,,,,,,,,0,,,98,49
7719,note_on,9,0,1,,,,,,,,,0,,,94,49
7719,note_on,15,0,3,,,,,,,,,2,,,53,36
7720,note_on,1,0,1,,,,,,,,,0,,,98,0
7723,note_on,4,0,3,,,,,,,,,2,,,53,0
7729,note_on,9,0,1,,,,,,,,,0,,,94,0
7730,note_on,1,0,1,,,,,,,,,0,,,86,49
7740,note_on,0,0,1,,,,,,,,,0,,,77,49
7740,note_on,10,0,1,,,,,,,,,0,,,86,0
7740,note_on,17,0,3,,,,,,,,,2,,,58,36
7744,note_on,4,0,3,,,,,,,,,2,,,58,0
7749,note_on,9,0,1,,,,,,,,,0,,,86,49
7750,note_on,1,0,1,,,,,,,,,0,,,77,0
7759,note_on,9,0,1,,,,,,,,,0,,,86,0
7760,note_on,1,0,1,,,,,,,,,0,,,82,49
7760,note_on,16,0,3,,,,,,,,,2,,,53,36
7764,note_on,4,0,3,,,,,,,,,2,,,53,0
7770,note_on,10,0,1,,,,,,,,,0,,,82,0
7770,note_on,0,0,1,,,,,,,,,0,,,74,49
7779,note_on,0,0,3,,,,,,,,,2,,,50,36
7779,control_change,15,0,3,,,,,,,,,2,64,0,,
7779,note_on,9,0,1,,,,,,,,,0,,,70,49
7780,note_on,1,0,1,,,,,,,,,0,,,74,0
7789,note_on,9,0,1,,,,,,,,,0,,,70,0
7790,note_on,0,0,1,,,,,,,,,0,,,62,49
7790,control_change,1,0,1,,,,,,,,,0,64,0,,
7799,note_on,20,0,3,,,,,,,,,2,,,50,0
7800,note_on,10,0,1,,,,,,,,,0,,,62,0
7800,control_change,0,0,1,,,,,,,,,0,64,127,,
7800,note_on,0,0,3,,,,,,,,,2,,,43,62
7800,control_change,1,0,3,,,,,,,,,2,64,127,,
7804,note_on,4,0,3,,,,,,,,,2,,,43,0
7809,note_on,9,0,1,,,,,,,,,0,,,82,49
7819,note_on,10,0,1,,,,,,,,,0,,,82,0
7820,note_on,1,0,1,,,,,,,,,0,,,88,49
7820,note_on,16,0,3,,,,,,,,,2,,,50,36
7824,note_on,4,0,3,,,,,,,,,2,,,50,0
7830,note_on,10,0,1,,,,,,,,,0,,,88,0
7830,note_on,0,0,1,,,,,,,,,0,,,98,49
7839,note_on,15,0,3,,,,,,,,,2,,,52,36
7839,note_on,9,0,1,,,,,,,,,0,,,94,49
7840,note_on,1,0,1,,,,,,,,,0,,,98,0
7843,note_on,4,0,3,,,,,,,,,2,,,52,0
7849,note_on,9,0,1,,,,,,,,,0,,,94,0
7850,note_on,1,0,1,,,,,,,,,0,,,86,49
7860,note_on,0,0,2,,,,,,,,,1,,,57,101
7860,note_on,10,0,1,,,,,,,,,0,,,86,0
7860,note_on,0,0,1,,,,,,,,,0,,,76,49
7860,note_on,17,0,3,,,,,,,,,2,,,57,36
7860,note_on,180,0,2,,,,,,,,,1,,,58,0
7864,note_on,4,0,3,,,,,,,,,2,,,57,0
7869,note_on,9,0,1,,,,,,,,,0,,,86,49
7870,note_on,1,0,1,,,,,,,,,0,,,76,0
7879,note_on,9,0,1,,,,,,,,,0,,,86,0
7880,note_on,16,0,3,,,,,,,,,2,,,52,36
7880,note_on,1,0,1,,,,,,,,,0,,,82,49
7884,note_on,4,0,3,,,,,,,,,2,,,52,0
7890,note_on,30,0,2,,,,,,,,,1,,,57,0
7890,note_on,0,0,1,,,,,,,,,0,,,74,49
7890,note_on,0,0,2,,,,,,,,,1,,,58,101
7890,note_on,10,0,1,,,,,,,,,0,,,82,0
7899,note_on,9,0,1,,,,,,,,,0,,,70,49
7899,note_on,0,0,3,,,,,,,,,2,,,50,36
7899,control_change,15,0,3,,,,,,,,,2,64,0,,
7900,note_on,1,0,1,,,,,,,,,0,,,74,0
7909,note_on,9,0,1,,,,,,,,,0,,,70,0
7910,control_change,1,0,1,,,,,,,,,0,64,0,,
7910,note_on,0,0,1,,,,,,,,,0,,,62,49
7919,note_on,20,0,3,,,,,,,,,2,,,50,0
7920,note_on,0,0,2,,,,,,,,,1,,,62,101
7920,control_change,0,0,1,,,,,,,,,0,64,127,,
7920,set_tempo,240,1,0,,,,,,2068966,,,,,,,
7920,note_on,0,0,3,,,,,,,,,2,,,41,62
7920,control_change,1,0,3,,,,,,,,,2,64,127,,
7920,note_on,10,0,1,,,,,,,,,0,,,62,0
7920,note_on,30,0,2,,,,,,,,,1,,,58,0
7924,note_on,4,0,3,,,,,,,,,2,,,41,0
7929,note_on,9,0,1,,,,,,,,,0,,,82,49
7939,note_on,10,0,1,,,,,,,,,0,,,82,0
7940,note_on,16,0,3,,,,,,,,,2,,,50,36
7940,note_on,1,0,1,,,,,,,,,0,,,89,49
7944,note_on,4,0,3,,,,,,,,,2,,,50,0
7950,note_on,10,0,1,,,,,,,,,0,,,89,0
7950,note_on,0,0,1,,,,,,,,,0,,,98,49
7959,note_on,15,0,3,,,,,,,,,2,,,53,36
7959,note_on,9,0,1,,,,,,,,,0,,,94,49
7960,note_on,1,0,1,,,,,,,,,0,,,98,0
7963,note_on,4,0,3,,,,,,,,,2,,,53,0
7969,note_on,9,0,1,,,,,,,,,0,,,94,0
7970,note_on,1,0,1,,,,,,,,,0,,,86,49
7980,note_on,0,0,1,,,,,,,,,0,,,77,49
7980,note_on,17,0,3,,,,,,,,,2,,,58,36
7980,note_on,10,0,1,,,,,,,,,0,,,86,0
7984,note_on,4,0,3,,,,,,,,,2,,,58,0
7989,note_on,9,0,1,,,,,,,,,0,,,86,49
7990,note_on,1,0,1,,,,,,,,,0,,,77,0
7999,note_on,9,0,1,,,,,,,,,0,,,86,0
8000,note_on,16,0,3,,,,,,,,,2,,,53,36
8000,note_on,1,0,1,,,,,,,,,0,,,82,49
8004,note_on,4,0,3,,,,,,,,,2,,,53,0
8010,note_on,10,0,1,,,,,,,,,0,,,82,0
8010,note_on,0,0,1,,,,,,,,,0,,,74,49
8019,note_on,9,0,1,,,,,,,,,0,,,70,49
8019,control_change,15,0,3,,,,,,,,,2,64,0,,
8019,note_on,0,0,3,,,,,,,,,2,,,50,36
8020,note_on,1,0,1,,,,,,,,,0,,,74,0
8029,note_on,9,0,1,,,,,,,,,0,,,70,0
8030,control_change,1,0,1,,,,,,,,,0,64,0,,
8030,note_on,0,0,1,,,,,,,,,0,,,62,49
8039,note_on,20,0,3,,,,,,,,,2,,,50,0
8040,note_on,10,0,1,,,,,,,,,0,,,62,0
8040,control_change,1,0,3,,,,,,,,,2,64,127,,
8040,control_change,0,0,1,,,,,,,,,0,64,127,,
8040,note_on,0,0,3,,,,,,,,,2,,,41,62
8044,note_on,4,0,3,,,,,,,,,2,,,41,0
8049,note_on,9,0,1,,,,,,,,,0,,,81,49
8059,note_on,10,0,1,,,,,,,,,0,,,81,0
8060,note_on,1,0,1,,,,,,,,,0,,,87,49
8060,note_on,16,0,3,,,,,,,,,2,,,51,36
8064,note_on,4,0,3,,,,,,,,,2,,,51,0
8070,note_on,10,0,1,,,,,,,,,0,,,87,0
8070,note_on,0,0,1,,,,,,,,,0,,,96,49
8079,note_on,9,0,1,,,,,,,,,0,,,93,49
8079,note_on,15,0,3,,,,,,,,,2,,,53,36
8080,note_on,1,0,1,,,,,,,,,0,,,96,0
8083,note_on,4,0,3,,,,,,,,,2,,,53,0
8089,note_on,9,0,1,,,,,,,,,0,,,93,0
8090,note_on,1,0,1,,,,,,,,,0,,,84,49
8100,note_on,17,0,3,,,,,,,,,2,,,57,36
8100,note_on,0,0,1,,,,,,,,,0,,,75,49
8100,note_on,10,0,1,,,,,,,,,0,,,84,0
8100,note_on,0,0,2,,,,,,,,,1,,,60,101
8100,note_on,180,0,2,,,,,,,,,1,,,62,0
8104,note_on,4,0,3,,,,,,,,,2,,,57,0
8109,note_on,9,0,1,,,,,,,,,0,,,84,49
8110,note_on,1,0,1,,,,,,,,,0,,,75,0
8119,note_on,9,0,1,,,,,,,,,0,,,84,0
8120,note_on,16,0,3,,,,,,,,,2,,,53,36
8120,note_on,1,0,1,,,,,,,,,0,,,81,49
8124,note_on,4,0,3,,,,,,,,,2,,,53,0
8130,note_on,10,0,1,,,,,,,,,0,,,81,0
8130,note_on,0,0,1,,,,,,,,,0,,,72,49
8139,note_on,9,0,1,,,,,,,,,0,,,69,49
8139,note_on,0,0,3,,,,,,,,,2,,,51,36
8139,control_change,15,0,3,,,,,,,,,2,64,0,,
8140,note_on,1,0,1,,,,,,,,,0,,,72,0
8149,note_on,9,0,1,,,,,,,,,0,,,69,0
8150,control_change,1,0,1,,,,,,,,,0,64,0,,
8150,note_on,0,0,1,,,,,,,,,0,,,60,49
8159,note_on,20,0,3,,,,,,,,,2,,,51,0
8160,note_on,10,0,1,,,,,,,,,0,,,60,0
8160,note_on,0,0,3,,,,,,,,,2,,,43,62
8160,note_on,0,0,2,,,,,,,,,1,,,58,101
8160,control_change,1,0,3,,,,,,,,,2,64,127,,
8160,note_on,60,0,2,,,,,,,,,1,,,60,0
8160,control_change,0,0,1,,,,,,,,,0,64,127,,
8164,note_on,4,0,3,,,,,,,,,2,,,43,0
8169,note_on,9,0,1,,,,,,,,,0,,,77,49
8179,note_on,10,0,1,,,,,,,,,0,,,77,0
8180,note_on,1,0,1,,,,,,,,,0,,,86,49
8180,note_on,16,0,3,,,,,,,,,2,,,50,36
8184,note_on,4,0,3,,,,,,,,,2,,,50,0
8190,note_on,10,0,1,,,,,,,,,0,,,86,0
8190,note_on,0,0,1,,,,,,,,,0,,,94,49
8199,note_on,15,0,3,,,,,,,,,2,,,55,36
8199,note_on,9,0,1,,,,,,,,,0,,,91,49
8200,note_on,1,0,1,,,,,,,,,0,,,94,0
8203,note_on,4,0,3,,,,,,,,,2,,,55,0
8209,note_on,9,0,1,,,,,,,,,0,,,91,0
8210,note_on,1,0,1,,,,,,,,,0,,,82,49
8220,note_on,0,0,1,,,,,,,,,0,,,74,49
8220,note_on,10,0,1,,,,,,,,,0,,,82,0
8220,note_on,17,0,3,,,,,,,,,2,,,58,36
8224,note_on,4,0,3,,,,,,,,,2,,,58,0
8229,note_on,9,0,1,,,,,,,,,0,,,82,49
8230,note_on,1,0,1,,,,,,,,,0,,,74,0
8239,note_on,9,0,1,,,,,,,,,0,,,82,0
8240,note_on,1,0,1,,,,,,,,,0,,,79,49
8240,note_on,16,0,3,,,,,,,,,2,,,55,36
8244,note_on,4,0,3,,,,,,,,,2,,,55,0
8250,note_on,10,0,1,,,,,,,,,0,,,79,0
8250,note_on,0,0,1,,,,,,,,,0,,,70,49
8259,note_on,9,0,1,,,,,,,,,0,,,67,49
8259,note_on,15,0,3,,,,,,,,,2,,,50,36
8260,note_on,1,0,1,,,,,,,,,0,,,70,0
8263,note_on,4,0,3,,,,,,,,,2,,,50,0
8269,note_on,9,0,1,,,,,,,,,0,,,67,0
8270,note_on,1,0,1,,,,,,,,,0,,,58,49
8280,note_on,10,0,1,,,,,,,,,0,,,58,0
8280,note_on,17,0,3,,,,,,,,,2,,,31,62
8284,note_on,4,0,3,,,,,,,,,2,,,31,0
8289,note_on,9,0,1,,,,,,,,,0,,,67,49
8299,note_on,10,0,1,,,,,,,,,0,,,67,0
8300,note_on,16,0,3,,,,,,,,,2,,,46,36
8300,note_on,1,0,1,,,,,,,,,0,,,74,49
8304,note_on,4,0,3,,,,,,,,,2,,,46,0
8310,note_on,10,0,1,,,,,,,,,0,,,74,0
8310,note_on,0,0,1,,,,,,,,,0,,,82,49
8319,note_on,9,0,1,,,,,,,,,0,,,79,49
8319,note_on,15,0,3,,,,,,,,,2,,,50,36
8320,note_on,1,0,1,,,,,,,,,0,,,82,0
8323,note_on,4,0,3,,,,,,,,,2,,,50,0
8329,note_on,9,0,1,,,,,,,,,0,,,79,0
8330,note_on,1,0,1,,,,,,,,,0,,,70,49
8340,note_on,0,0,1,,,,,,,,,0,,,62,49
8340,note_on,10,0,1,,,,,,,,,0,,,70,0
8340,note_on,17,0,3,,,,,,,,,2,,,55,36
8344,note_on,4,0,3,,,,,,,,,2,,,55,0
8349,note_on,9,0,1,,,,,,,,,0,,,70,49
8350,note_on,1,0,1,,,,,,,,,0,,,62,0
8359,note_on,9,0,1,,,,,,,,,0,,,70,0
8360,note_on,1,0,1,,,,,,,,,0,,,67,49
8360,note_on,16,0,3,,,,,,,,,2,,,50,36
8364,note_on,4,0,3,,,,,,,,,2,,,50,0
8370,note_on,10,0,1,,,,,,,,,0,,,67,0
8370,note_on,0,0,1,,,,,,,,,0,,,58,49
8379,note_on,0,0,3,,,,,,,,,2,,,46,36
8379,control_change,15,0,3,,,,,,,,,2,64,0,,
8379,note_on,9,0,1,,,,,,,,,0,,,55,49
8380,note_on,1,0,1,,,,,,,,,0,,,58,0
8389,note_on,9,0,1,,,,,,,,,0,,,55,0
8390,note_on,0,0,1,,,,,,,,,0,,,62,49
8390,control_change,1,0,1,,,,,,,,,0,64,0,,
8399,note_on,20,0,3,,,,,,,,,2,,,46,0
8400,control_change,1,0,3,,,,,,,,,2,64,127,,
8400,note_on,10,0,1,,,,,,,,,0,,,62,0
8400,note_on,0,0,3,,,,,,,,,2,,,39,62
8400,control_change,0,0,1,,,,,,,,,0,64,127,,
8400,note_on,240,0,2,,,,,,,,,1,,,58,0
8400,note_on,0,0,2,,,,,,,,,1,,,60,101
8404,note_on,4,0,3,,,,,,,,,2,,,39,0
8409,note_on,9,0,1,,,,,,,,,0,,,79,49
8419,note_on,10,0,1,,,,,,,,,0,,,79,0
8420,note_on,16,0,3,,,,,,,,,2,,,48,36
8420,note_on,1,0,1,,,,,,,,,0,,,87,49
8424,note_on,4,0,3,,,,,,,,,2,,,48,0
8430,note_on,0,0,1,,,,,,,,,0,,,96,49
8430,note_on,10,0,1,,,,,,,,,0,,,87,0
8439,note_on,9,0,1,,,,,,,,,0,,,91,49
8439,note_on,15,0,3,,,,,,,,,2,,,51,36
8440,note_on,1,0,1,,,,,,,,,0,,,96,0
8443,note_on,4,0,3,,,,,,,,,2,,,51,0
8449,note_on,9,0,1,,,,,,,,,0,,,91,0
8450,note_on,1,0,1,,,,,,,,,0,,,84,49
8460,note_on,10,0,1,,,,,,,,,0,,,84,0
8460,note_on,17,0,3,,,,,,,,,2,,,55,36
8460,note_on,0,0,1,,,,,,,,,0,,,75,49
8464,note_on,4,0,3,,,,,,,,,2,,,55,0
8469,note_on,9,0,1,,,,,,,,,0,,,84,49
8470,note_on,1,0,1,,,,,,,,,0,,,75,0
8479,note_on,9,0,1,,,,,,,,,0,,,84,0
8480,note_on,1,0,1,,,,,,,,,0,,,79,49
8480,note_on,16,0,3,,,,,,,,,2,,,51,36
8484,note_on,4,0,3,,,,,,,,,2,,,51,0
8490,note_on,90,0,2,,,,,,,,,1,,,62,101
8490,note_on,0,0,1,,,,,,,,,0,,,72,49
8490,note_on,10,0,1,,,,,,,,,0,,,79,0
8499,note_on,9,0,1,,,,,,,,,0,,,63,49
8499,note_on,0,0,3,,,,,,,,,2,,,48,36
8499,control_change,15,0,3,,,,,,,,,2,64,0,,
8500,note_on,1,0,1,,,,,,,,,0,,,72,0
8505,note_on,0,0,2,,,,,,,,,1,,,60,101
8505,note_on,15,0,2,,,,,,,,,1,,,62,0
8509,note_on,9,0,1,,,,,,,,,0,,,63,0
8510,note_on,0,0,1,,,,,,,,,0,,,67,49
8510,control_change,1,0,1,,,,,,,,,0,64,0,,
8519,note_on,20,0,3,,,,,,,,,2,,,48,0
8520,control_change,0,0,2,,,,,,,,,1,64,127,,
8520,note_on,15,0,2,,,,,,,,,1,,,60,0
8520,control_change,1,0,3,,,,,,,,,2,64,127,,
8520,note_on,0,0,3,,,,,,,,,2,,,41,62
8520,note_on,10,0,1,,,,,,,,,0,,,67,0
8520,note_on,0,0,2,,,,,,,,,1,,,58,101
8520,control_change,0,0,1,,,,,,,,,0,64,127,,
8520,note_on,0,0,2,,,,,,,,,1,,,60,0
8524,note_on,4,0,3,,,,,,,,,2,,,41,0
8524,note_on,4,0,2,,,,,,,,,1,,,58,0
8529,note_on,9,0,1,,,,,,,,,0,,,77,49
8539,note_on,10,0,1,,,,,,,,,0,,,77,0
8540,note_on,1,0,1,,,,,,,,,0,,,87,49
8540,note_on,16,0,3,,,,,,,,,2,,,48,36
8544,note_on,4,0,3,,,,,,,,,2,,,48,0
8550,note_on,26,0,2,,,,,,,,,1,,,57,101
8550,note_on,0,0,1,,,,,,,,,0,,,96,49
8550,note_on,10,0,1,,,,,,,,,0,,,87,0
8554,note_on,4,0,2,,,,,,,,,1,,,57,0
8559,note_on,9,0,1,,,,,,,,,0,,,89,49
8559,note_on,15,0,3,,,,,,,,,2,,,51,36
8560,note_on,1,0,1,,,,,,,,,0,,,96,0
8563,note_on,4,0,3,,,,,,,,,2,,,51,0
8569,note_on,9,0,1,,,,,,,,,0,,,89,0
8570,note_on,1,0,1,,,,,,,,,0,,,81,49
8580,note_on,0,0,1,,,,,,,,,0,,,75,49
8580,note_on,10,0,1,,,,,,,,,0,,,81,0
8580,note_on,17,0,3,,,,,,,,,2,,,53,36
8580,note_on,26,0,2,,,,,,,,,1,,,55,101
8584,note_on,4,0,3,,,,,,,,,2,,,53,0
8584,note_on,4,0,2,,,,,,,,,1,,,55,0
8589,note_on,9,0,1,,,,,,,,,0,,,84,49
8590,note_on,1,0,1,,,,,,,,,0,,,75,0
8599,note_on,9,0,1,,,,,,,,,0,,,84,0
8600,note_on,1,0,1,,,,,,,,,0,,,77,49
8600,note_on,16,0,3,,,,,,,,,2,,,51,36
8604,note_on,4,0,3,,,,,,,,,2,,,51,0
8610,note_on,0,0,2,,,,,,,,,1,,,57,101
8610,control_change,26,0,2,,,,,,,,,1,64,0,,
8610,note_on,0,0,1,,,,,,,,,0,,,69,49
8610,note_on,10,0,1,,,,,,,,,0,,,77,0
8619,note_on,0,0,3,,,,,,,,,2,,,48,36
8619,note_on,9,0,1,,,,,,,,,0,,,63,49
8619,control_change,15,0,3,,,,,,,,,2,64,0,,
8620,note_on,1,0,1,,,,,,,,,0,,,69,0
8629,note_on,9,0,1,,,,,,,,,0,,,63,0
8630,note_on,0,0,1,,,,,,,,,0,,,65,49
8630,control_change,1,0,1,,,,,,,,,0,64,0,,
8639,note_on,20,0,3,,,,,,,,,2,,,48,0
8640,note_on,10,0,1,,,,,,,,,0,,,65,0
8640,note_on,0,0,3,,,,,,,,,2,,,46,62
8640,control_change,1,0,3,,,,,,,,,2,64,127,,
8640,note_on,0,0,2,,,,,,,,,1,,,58,101
8640,note_on,30,0,2,,,,,,,,,1,,,57,0
8640,control_change,0,0,1,,,,,,,,,0,64,127,,
8644,note_on,4,0,3,,,,,,,,,2,,,46,0
8649,note_on,9,0,1,,,,,,,,,0,,,77,49
8659,note_on,10,0,1,,,,,,,,,0,,,77,0
8660,note_on,16,0,3,,,,,,,,,2,,,50,36
8660,note_on,1,0,1,,,,,,,,,0,,,86,49
8664,note_on,4,0,3,,,,,,,,,2,,,50,0
8670,note_on,0,0,1,,,,,,,,,0,,,94,49
8670,note_on,10,0,1,,,,,,,,,0,,,86,0
8679,note_on,15,0,3,,,,,,,,,2,,,53,36
8679,note_on,9,0,1,,,,,,,,,0,,,89,49
8680,note_on,1,0,1,,,,,,,,,0,,,94,0
8683,note_on,4,0,3,,,,,,,,,2,,,53,0
8689,note_on,9,0,1,,,,,,,,,0,,,89,0
8690,note_on,1,0,1,,,,,,,,,0,,,82,49
8700,note_on,17,0,3,,,,,,,,,2,,,58,36
8700,note_on,0,0,1,,,,,,,,,0,,,74,49
8700,note_on,10,0,1,,,,,,,,,0,,,82,0
8704,note_on,4,0,3,,,,,,,,,2,,,58,0
8709,note_on,9,0,1,,,,,,,,,0,,,82,49
8710,note_on,1,0,1,,,,,,,,,0,,,74,0
8719,note_on,9,0,1,,,,,,,,,0,,,82,0
8720,note_on,1,0,1,,,,,,,,,0,,,77,49
8720,note_on,16,0,3,,,,,,,,,2,,,53,36
8724,note_on,4,0,3,,,,,,,,,2,,,53,0
8730,note_on,10,0,1,,,,,,,,,0,,,77,0
8730,note_on,0,0,1,,,,,,,,,0,,,70,49
8739,note_on,15,0,3,,,,,,,,,2,,,50,36
8739,note_on,9,0,1,,,,,,,,,0,,,65,49
8740,note_on,1,0,1,,,,,,,,,0,,,70,0
8743,note_on,4,0,3,,,,,,,,,2,,,50,0
8749,note_on,9,0,1,,,,,,,,,0,,,65,0
8750,note_on,1,0,1,,,,,,,,,0,,,58,49
8760,note_on,17,0,3,,,,,,,,,2,,,34,62
8760,note_on,120,0,2,,,,,,,,,1,,,58,0
8760,note_on,10,0,1,,,,,,,,,0,,,58,0
8764,note_on,4,0,3,,,,,,,,,2,,,34,0
8769,note_on,9,0,1,,,,,,,,,0,,,65,49
8779,note_on,10,0,1,,,,,,,,,0,,,65,0
8780,note_on,1,0,1,,,,,,,,,0,,,74,49
8780,note_on,16,0,3,,,,,,,,,2,,,46,36
8784,note_on,4,0,3,,,,,,,,,2,,,46,0
8790,note_on,10,0,1,,,,,,,,,0,,,74,0
8790,note_on,0,0,1,,,,,,,,,0,,,82,49
8799,note_on,9,0,1,,,,,,,,,0,,,77,49
8799,note_on,15,0,3,,,,,,,,,2,,,50,36
8800,note_on,1,0,1,,,,,,,,,0,,,82,0
8803,note_on,4,0,3,,,,,,,,,2,,,50,0
8809,note_on,9,0,1,,,,,,,,,0,,,77,0
8810,note_on,1,0,1,,,,,,,,,0,,,70,49
8820,note_on,60,0,2,,,,,,,,,1,,,62,127
8820,note_on,10,0,1,,,,,,,,,0,,,70,0
8820,note_on,17,0,3,,,,,,,,,2,,,53,49
8820,note_on,0,0,1,,,,,,,,,0,,,62,62
8824,note_on,4,0,3,,,,,,,,,2,,,53,0
8829,note_on,9,0,1,,,,,,,,,0,,,70,62
8830,note_on,1,0,1,,,,,,,,,0,,,62,0
8839,note_on,9,0,1,,,,,,,,,0,,,70,0
8840,note_on,1,0,1,,,,,,,,,0,,,65,62
8840,note_on,16,0,3,,,,,,,,,2,,,50,49
8844,note_on,4,0,3,,,,,,,,,2,,,50,0
8850,note_on,10,0,1,,,,,,,,,0,,,65,0
8850,note_on,0,0,1,,,,,,,,,0,,,58,62
8859,note_on,9,0,1,,,,,,,,,0,,,53,62
8859,control_change,15,0,3,,,,,,,,,2,64,0,,
8859,note_on,0,0,3,,,,,,,,,2,,,46,49
8859,note_on,39,0,2,,,,,,,,,1,,,53,101
8860,note_on,1,0,2,,,,,,,,,1,,,62,0
8860,note_on,1,0,1,,,,,,,,,0,,,58,0
8869,note_on,9,0,1,,,,,,,,,0,,,53,0
8870,control_change,1,0,1,,,,,,,,,0,64,0,,
8870,note_on,0,0,1,,,,,,,,,0,,,62,62
8879,note_on,20,0,3,,,,,,,,,2,,,46,0
8879,note_on,19,0,2,,,,,,,,,1,,,53,0
8880,control_change,0,0,1,,,,,,,,,0,64,127,,
8880,note_on,0,0,3,,,,,,,,,2,,,46,75
8880,control_change,1,0,3,,,,,,,,,2,64,127,,
8880,note_on,1,0,2,,,,,,,,,1,,,62,101
8880,note_on,10,0,1,,,,,,,,,0,,,62,0
8884,note_on,4,0,3,,,,,,,,,2,,,46,0
8889,note_on,9,0,1,,,,,,,,,0,,,82,62
8899,note_on,10,0,1,,,,,,,,,0,,,82,0
8900,note_on,16,0,3,,,,,,,,,2,,,50,49
8900,note_on,1,0,1,,,,,,,,,0,,,90,62
8904,note_on,4,0,3,,,,,,,,,2,,,50,0
8910,note_on,0,0,1,,,,,,,,,0,,,98,62
8910,note_on,10,0,1,,,,,,,,,0,,,90,0
8919,note_on,9,0,1,,,,,,,,,0,,,94,62
8919,note_on,15,0,3,,,,,,,,,2,,,54,49
8920,note_on,1,0,1,,,,,,,,,0,,,98,0
8923,note_on,4,0,3,,,,,,,,,2,,,54,0
8929,note_on,9,0,1,,,,,,,,,0,,,94,0
8930,note_on,1,0,1,,,,,,,,,0,,,86,62
8940,note_on,17,0,3,,,,,,,,,2,,,58,49
8940,note_on,0,0,1,,,,,,,,,0,,,78,62
8940,note_on,10,0,1,,,,,,,,,0,,,86,0
8944,note_on,4,0,3,,,,,,,,,2,,,58,0
8949,note_on,9,0,1,,,,,,,,,0,,,86,62
8950,note_on,1,0,1,,,,,,,,,0,,,78,0
8959,note_on,9,0,1,,,,,,,,,0,,,86,0
8960,note_on,16,0,3,,,,,,,,,2,,,54,49
8960,note_on,1,0,1,,,,,,,,,0,,,82,62
8964,note_on,4,0,3,,,,,,,,,2,,,54,0
8970,note_on,90,0,2,,,,,,,,,1,,,62,0
8970,note_on,0,0,2,,,,,,,,,1,,,60,101
8970,note_on,10,0,1,,,,,,,,,0,,,82,0
8970,note_on,0,0,1,,,,,,,,,0,,,74,62
8979,note_on,0,0,3,,,,,,,,,2,,,50,49
8979,note_on,9,0,1,,,,,,,,,0,,,70,62
8979,control_change,15,0,3,,,,,,,,,2,64,0,,
8980,note_on,1,0,1,,,,,,,,,0,,,74,0
8985,note_on,15,0,2,,,,,,,,,1,,,60,0
8985,note_on,0,0,2,,,,,,,,,1,,,58,101
8989,note_on,9,0,1,,,,,,,,,0,,,70,0
8990,control_change,1,0,1,,,,,,,,,0,64,0,,
8990,note_on,0,0,1,,,,,,,,,0,,,62,62
8999,note_on,20,0,3,,,,,,,,,2,,,50,0
9000,control_change,0,0,1,,,,,,,,,0,64,127,,
9000,note_on,0,0,2,,,,,,,,,1,,,57,101
9000,note_on,15,0,2,,,,,,,,,1,,,58,0
9000,note_on,10,0,1,,,,,,,,,0,,,62,0
9000,note_on,0,0,3,,,,,,,,,2,,,46,75
9000,control_change,1,0,3,,,,,,,,,2,64,127,,
9000,control_change,0,0,2,,,,,,,,,1,64,127,,
9004,note_on,4,0,3,,,,,,,,,2,,,46,0
9004,note_on,4,0,2,,,,,,,,,1,,,57,0
9009,note_on,9,0,1,,,,,,,,,0,,,82,62
9019,note_on,10,0,1,,,,,,,,,0,,,82,0
9020,note_on,16,0,3,,,,,,,,,2,,,50,49
9020,note_on,1,0,1,,,,,,,,,0,,,91,62
9024,note_on,4,0,3,,,,,,,,,2,,,50,0
9030,note_on,26,0,2,,,,,,,,,1,,,55,101
9030,note_on,10,0,1,,,,,,,,,0,,,91,0
9030,note_on,0,0,1,,,,,,,,,0,,,98,62
9034,note_on,4,0,2,,,,,,,,,1,,,55,0
9039,note_on,9,0,1,,,,,,,,,0,,,94,62
9039,note_on,15,0,3,,,,,,,,,2,,,55,49
9040,note_on,1,0,1,,,,,,,,,0,,,98,0
9043,note_on,4,0,3,,,,,,,,,2,,,55,0
9049,note_on,9,0,1,,,,,,,,,0,,,94,0
9050,note_on,1,0,1,,,,,,,,,0,,,86,62
9060,note_on,26,0,2,,,,,,,,,1,,,62,101
9060,note_on,0,0,1,,,,,,,,,0,,,79,62
9060,note_on,10,0,1,,,,,,,,,0,,,86,0
9060,note_on,17,0,3,,,,,,,,,2,,,58,49
9064,note_on,4,0,2,,,,,,,,,1,,,62,0
9064,note_on,4,0,3,,,,,,,,,2,,,58,0
9069,note_on,9,0,1,,,,,,,,,0,,,86,62
9070,note_on,1,0,1,,,,,,,,,0,,,79,0
9079,note_on,9,0,1,,,,,,,,,0,,,86,0
9080,note_on,1,0,1,,,,,,,,,0,,,82,62
9080,note_on,16,0,3,,,,,,,,,2,,,55,49
9084,note_on,4,0,3,,,,,,,,,2,,,55,0
9090,note_on,0,0,1,,,,,,,,,0,,,74,62
9090,note_on,10,0,1,,,,,,,,,0,,,82,0
9099,control_change,15,0,3,,,,,,,,,2,64,0,,
9099,note_on,0,0,3,,,,,,,,,2,,,50,49
9099,note_on,9,0,1,,,,,,,,,0,,,70,62
9100,note_on,1,0,1,,,,,,,,,0,,,74,0
9105,note_on,0,0,2,,,,,,,,,1,,,64,101
9105,control_change,41,0,2,,,,,,,,,1,64,0,,
9109,note_on,9,0,1,,,,,,,,,0,,,70,0
9110,note_on,0,0,1,,,,,,,,,0,,,62,62
9110,control_change,1,0,1,,,,,,,,,0,64,0,,
9119,note_on,20,0,3,,,,,,,,,2,,,50,0
9120,note_on,15,0,2,,,,,,,,,1,,,64,0
9120,note_on,10,0,1,,,,,,,,,0,,,62,0
9120,note_on,0,0,3,,,,,,,,,2,,,45,75
9120,control_change,1,0,3,,,,,,,,,2,64,127,,
9120,note_on,0,0,2,,,,,,,,,1,,,62,127
9120,control_change,0,0,1,,,,,,,,,0,64,127,,
9124,note_on,4,0,3,,,,,,,,,2,,,45,0
9129,note_on,9,0,1,,,,,,,,,0,,,82,62
9139,note_on,10,0,1,,,,,,,,,0,,,82,0
9140,note_on,1,0,1,,,,,,,,,0,,,91,62
9140,note_on,16,0,3,,,,,,,,,2,,,52,49
9144,note_on,4,0,3,,,,,,,,,2,,,52,0
9150,note_on,10,0,1,,,,,,,,,0,,,91,0
9150,note_on,0,0,1,,,,,,,,,0,,,98,62
9159,note_on,9,0,1,,,,,,,,,0,,,94,62
9159,note_on,15,0,3,,,,,,,,,2,,,55,49
9160,note_on,1,0,1,,,,,,,,,0,,,98,0
9163,note_on,4,0,3,,,,,,,,,2,,,55,0
9169,note_on,9,0,1,,,,,,,,,0,,,94,0
9170,note_on,1,0,1,,,,,,,,,0,,,86,62
9180,note_on,0,0,1,,,,,,,,,0,,,79,62
9180,note_on,17,0,3,,,,,,,,,2,,,58,49
9180,note_on,10,0,1,,,,,,,,,0,,,86,0
9184,note_on,4,0,3,,,,,,,,,2,,,58,0
9189,note_on,9,0,1,,,,,,,,,0,,,86,62
9190,note_on,1,0,1,,,,,,,,,0,,,79,0
9199,note_on,9,0,1,,,,,,,,,0,,,86,0
9200,note_on,16,0,3,,,,,,,,,2,,,55,49
9200,note_on,1,0,1,,,,,,,,,0,,,82,62
9204,note_on,4,0,3,,,,,,,,,2,,,55,0
9210,note_on,0,0,1,,,,,,,,,0,,,74,62
9210,note_on,10,0,1,,,,,,,,,0,,,82,0
9219,note_on,0,0,3,,,,,,,,,2,,,52,49
9219,note_on,9,0,1,,,,,,,,,0,,,70,62
9219,control_change,15,0,3,,,,,,,,,2,64,0,,
9220,note_on,1,0,1,,,,,,,,,0,,,74,0
9229,note_on,9,0,1,,,,,,,,,0,,,70,0
9230,control_change,1,0,1,,,,,,,,,0,64,0,,
9230,note_on,0,0,1,,,,,,,,,0,,,62,62
9239,note_on,20,0,3,,,,,,,,,2,,,52,0
9240,note_on,120,0,2,,,,,,,,,1,,,62,0
9240,control_change,0,0,1,,,,,,,,,0,64,127,,
9240,note_on,10,0,1,,,,,,,,,0,,,62,0
9240,note_on,0,0,3,,,,,,,,,2,,,45,75
9240,note_on,0,0,2,,,,,,,,,1,,,61,101
9240,control_change,1,0,3,,,,,,,,,2,64,127,,
9244,note_on,4,0,3,,,,,,,,,2,,,45,0
9249,note_on,9,0,1,,,,,,,,,0,,,81,62
9259,note_on,10,0,1,,,,,,,,,0,,,81,0
9260,note_on,16,0,3,,,,,,,,,2,,,49,49
9260,note_on,1,0,1,,,,,,,,,0,,,88,62
9264,note_on,4,0,3,,,,,,,,,2,,,49,0
9270,note_on,0,0,1,,,,,,,,,0,,,97,62
9270,note_on,10,0,1,,,,,,,,,0,,,88,0
9279,note_on,15,0,3,,,,,,,,,2,,,52,49
9279,note_on,9,0,1,,,,,,,,,0,,,93,62
9280,note_on,1,0,1,,,,,,,,,0,,,97,0
9283,note_on,4,0,3,,,,,,,,,2,,,52,0
9289,note_on,9,0,1,,,,,,,,,0,,,93,0
9290,note_on,1,0,1,,,,,,,,,0,,,85,62
9300,note_on,17,0,3,,,,,,,,,2,,,57,49
9300,note_on,0,0,2,,,,,,,,,1,,,57,127
9300,note_on,60,0,2,,,,,,,,,1,,,61,0
9300,note_on,10,0,1,,,,,,,,,0,,,85,0
9300,note_on,0,0,1,,,,,,,,,0,,,76,62
9304,note_on,4,0,3,,,,,,,,,2,,,57,0
9309,note_on,9,0,1,,,,,,,,,0,,,85,62
9310,note_on,1,0,1,,,,,,,,,0,,,76,0
9319,note_on,9,0,1,,,,,,,,,0,,,85,0
9320,note_on,1,0,1,,,,,,,,,0,,,81,62
9320,note_on,16,0,3,,,,,,,,,2,,,52,49
9324,note_on,4,0,3,,,,,,,,,2,,,52,0
9330,note_on,0,0,1,,,,,,,,,0,,,73,62
9330,note_on,10,0,1,,,,,,,,,0,,,81,0
9339,note_on,0,0,3,,,,,,,,,2,,,49,49
9339,note_on,9,0,1,,,,,,,,,0,,,69,62
9339,control_change,15,0,3,,,,,,,,,2,64,0,,
9340,note_on,1,0,1,,,,,,,,,0,,,73,0
9349,note_on,9,0,1,,,,,,,,,0,,,69,0
9350,control_change,1,0,1,,,,,,,,,0,64,0,,
9350,note_on,0,0,1,,,,,,,,,0,,,61,62
9359,note_on,20,0,3,,,,,,,,,2,,,49,0
9360,control_change,0,0,1,,,,,,,,,0,64,127,,
9360,note_on,0,0,3,,,,,,,,,2,,,42,75
9360,note_on,60,0,2,,,,,,,,,1,,,57,0
9360,note_on,0,0,2,,,,,,,,,1,,,60,127
9360,control_change,1,0,3,,,,,,,,,2,64,127,,
9360,note_on,10,0,1,,,,,,,,,0,,,61,0
9364,note_on,4,0,3,,,,,,,,,2,,,42,0
9369,note_on,9,0,1,,,,,,,,,0,,,81,62
9379,note_on,10,0,1,,,,,,,,,0,,,81,0
9380,note_on,1,0,1,,,,,,,,,0,,,87,62
9380,note_on,16,0,3,,,,,,,,,2,,,48,49
9384,note_on,4,0,3,,,,,,,,,2,,,48,0
9390,note_on,0,0,1,,,,,,,,,0,,,96,62
9390,note_on,10,0,1,,,,,,,,,0,,,87,0
9399,note_on,15,0,3,,,,,,,,,2,,,51,49
9399,note_on,9,0,1,,,,,,,,,0,,,93,62
9400,note_on,1,0,1,,,,,,,,,0,,,96,0
9403,note_on,4,0,3,,,,,,,,,2,,,51,0
9409,note_on,9,0,1,,,,,,,,,0,,,93,0
9410,note_on,1,0,1,,,,,,,,,0,,,84,62
9420,note_on,0,0,1,,,,,,,,,0,,,75,62
9420,note_on,17,0,3,,,,,,,,,2,,,57,49
9420,note_on,10,0,1,,,,,,,,,0,,,84,0
9424,note_on,4,0,3,,,,,,,,,2,,,57,0
9429,note_on,9,0,1,,,,,,,,,0,,,84,62
9430,note_on,1,0,1,,,,,,,,,0,,,75,0
9439,note_on,9,0,1,,,,,,,,,0,,,84,0
9440,note_on,1,0,1,,,,,,,,,0,,,81,62
9440,note_on,16,0,3,,,,,,,,,2,,,51,49
9444,note_on,4,0,3,,,,,,,,,2,,,51,0
9450,note_on,0,0,1,,,,,,,,,0,,,72,62
9450,note_on,10,0,1,,,,,,,,,0,,,81,0
9459,control_change,15,0,3,,,,,,,,,2,64,0,,
9459,note_on,9,0,1,,,,,,,,,0,,,69,62
9459,note_on,0,0,3,,,,,,,,,2,,,48,49
9460,note_on,1,0,1,,,,,,,,,0,,,72,0
9465,note_on,0,0,2,,,,,,,,,1,,,58,101
9465,note_on,105,0,2,,,,,,,,,1,,,60,0
9469,note_on,9,0,1,,,,,,,,,0,,,69,0
9470,note_on,0,0,1,,,,,,,,,0,,,63,62
9470,control_change,1,0,1,,,,,,,,,0,64,0,,
9479,note_on,20,0,3,,,,,,,,,2,,,48,0
9480,control_change,0,0,1,,,,,,,,,0,64,127,,
9480,note_on,0,0,2,,,,,,,,,1,,,57,101
9480,control_change,1,0,3,,,,,,,,,2,64,127,,
9480,note_on,0,0,3,,,,,,,,,2,,,42,88
9480,note_on,15,0,2,,,,,,,,,1,,,58,0
9480,note_on,10,0,1,,,,,,,,,0,,,63,0
9484,note_on,4,0,3,,,,,,,,,2,,,42,0
9489,note_on,9,0,1,,,,,,,,,0,,,81,75
9495,set_tempo,1575,1,0,,,,,,2142857,,,,,,,
9499,note_on,10,0,1,,,,,,,,,0,,,81,0
9500,note_on,16,0,3,,,,,,,,,2,,,51,62
9500,note_on,1,0,1,,,,,,,,,0,,,96,75
9500,note_on,20,0,2,,,,,,,,,1,,,57,0
9500,note_on,0,0,3,,,,,,,,,2,,,57,62
9500,note_on,0,0,2,,,,,,,,,1,,,60,127
9504,note_on,0,0,3,,,,,,,,,2,,,51,0
9504,note_on,4,0,3,,,,,,,,,2,,,57,0
9510,set_tempo,15,1,0,,,,,,2307692,,,,,,,
9510,note_on,10,0,1,,,,,,,,,0,,,96,0
9510,note_on,0,0,1,,,,,,,,,0,,,84,101
9519,note_on,15,0,3,,,,,,,,,2,,,54,62
9519,note_on,9,0,1,,,,,,,,,0,,,98,75
9519,note_on,0,0,3,,,,,,,,,2,,,57,62
9519,note_on,19,0,2,,,,,,,,,1,,,62,127
9520,note_on,1,0,2,,,,,,,,,1,,,60,0
9520,note_on,1,0,1,,,,,,,,,0,,,84,0
9523,note_on,0,0,3,,,,,,,,,2,,,54,0
9523,note_on,4,0,3,,,,,,,,,2,,,57,0
9525,set_tempo,15,1,0,,,,,,2500000,,,,,,,
9529,note_on,9,0,1,,,,,,,,,0,,,98,0
9530,note_on,1,0,1,,,,,,,,,0,,,86,101
9539,note_on,19,0,2,,,,,,,,,1,,,62,0
9540,set_tempo,15,1,0,,,,,,2727273,,,,,,,
9540,note_on,0,0,1,,,,,,,,,0,,,99,75
9540,note_on,0,0,3,,,,,,,,,2,,,57,62
9540,note_on,17,0,3,,,,,,,,,2,,,54,62
9540,note_on,10,0,1,,,,,,,,,0,,,86,0
9540,note_on,1,0,2,,,,,,,,,1,,,63,127
9544,note_on,0,0,3,,,,,,,,,2,,,54,0
9544,note_on,4,0,3,,,,,,,,,2,,,57,0
9549,note_on,9,0,1,,,,,,,,,0,,,87,101
9550,note_on,1,0,1,,,,,,,,,0,,,99,0
9555,set_tempo,15,1,0,,,,,,3000000,,,,,,,
9559,note_on,9,0,1,,,,,,,,,0,,,87,0
9560,note_on,1,0,1,,,,,,,,,0,,,96,75
9560,note_on,0,0,3,,,,,,,,,2,,,54,62
9560,note_on,20,0,2,,,,,,,,,1,,,63,0
9560,note_on,0,0,2,,,,,,,,,1,,,60,127
9560,note_on,16,0,3,,,,,,,,,2,,,51,62
9564,note_on,0,0,3,,,,,,,,,2,,,51,0
9564,note_on,4,0,3,,,,,,,,,2,,,54,0
9570,note_on,10,0,1,,,,,,,,,0,,,96,0
9570,set_tempo,15,1,0,,,,,,3333333,,,,,,,
9570,note_on,0,0,1,,,,,,,,,0,,,84,101
9579,note_on,9,0,1,,,,,,,,,0,,,93,75
9579,note_on,0,0,3,,,,,,,,,2,,,51,62
9579,note_on,0,0,3,,,,,,,,,2,,,48,62
9579,control_change,15,0,3,,,,,,,,,2,64,0,,
9579,note_on,19,0,2,,,,,,,,,1,,,57,127
9580,note_on,1,0,2,,,,,,,,,1,,,60,0
9580,note_on,1,0,1,,,,,,,,,0,,,84,0
9583,note_on,0,0,3,,,,,,,,,2,,,48,0
9583,note_on,4,0,3,,,,,,,,,2,,,51,0
9585,set_tempo,15,1,0,,,,,,3750000,,,,,,,
9589,note_on,9,0,1,,,,,,,,,0,,,93,0
9590,note_on,0,0,1,,,,,,,,,0,,,81,101
9590,control_change,1,0,1,,,,,,,,,0,64,0,,
9599,note_on,19,0,2,,,,,,,,,1,,,57,0
9600,control_change,17,0,3,,,,,,,,,2,64,127,,
9600,note_on,10,0,1,,,,,,,,,0,,,81,0
9600,note_on,1,0,2,,,,,,,,,1,,,58,101
9600,control_change,0,0,1,,,,,,,,,0,64,127,,
9600,set_tempo,15,1,0,,,,,,2142857,,,,,,,
9600,note_on,0,0,3,,,,,,,,,2,,,43,88
9604,note_on,4,0,3,,,,,,,,,2,,,43,0
9609,note_on,9,0,1,,,,,,,,,0,,,82,75
9619,note_on,10,0,1,,,,,,,,,0,,,82,0
9620,note_on,1,0,1,,,,,,,,,0,,,86,75
9620,note_on,16,0,3,,,,,,,,,2,,,46,62
9624,note_on,4,0,3,,,,,,,,,2,,,46,0
9630,note_on,0,0,1,,,,,,,,,0,,,94,75
9630,note_on,10,0,1,,,,,,,,,0,,,86,0
9639,note_on,9,0,1,,,,,,,,,0,,,91,75
9639,note_on,15,0,3,,,,,,,,,2,,,50,62
9640,note_on,1,0,1,,,,,,,,,0,,,94,0
9643,note_on,4,0,3,,,,,,,,,2,,,50,0
9649,note_on,9,0,1,,,,,,,,,0,,,91,0
9650,note_on,1,0,1,,,,,,,,,0,,,82,75
9660,note_on,10,0,1,,,,,,,,,0,,,82,0
9660,note_on,17,0,3,,,,,,,,,2,,,55,62
9660,note_on,0,0,1,,,,,,,,,0,,,74,75
9664,note_on,4,0,3,,,,,,,,,2,,,55,0
9669,note_on,9,0,1,,,,,,,,,0,,,82,75
9670,note_on,1,0,1,,,,,,,,,0,,,74,0
9679,note_on,9,0,1,,,,,,,,,0,,,82,0
9680,note_on,1,0,1,,,,,,,,,0,,,79,75
9680,note_on,16,0,3,,,,,,,,,2,,,50,62
9684,note_on,4,0,3,,,,,,,,,2,,,50,0
9690,note_on,10,0,1,,,,,,,,,0,,,79,0
9690,note_on,0,0,1,,,,,,,,,0,,,70,75
9699,note_on,0,0,3,,,,,,,,,2,,,46,62
9699,note_on,9,0,1,,,,,,,,,0,,,67,75
9699,control_change,15,0,3,,,,,,,,,2,64,0,,
9700,note_on,1,0,1,,,,,,,,,0,,,70,0
9709,note_on,9,0,1,,,,,,,,,0,,,67,0
9710,note_on,0,0,1,,,,,,,,,0,,,58,75
9710,control_change,1,0,1,,,,,,,,,0,64,0,,
9719,note_on,20,0,3,,,,,,,,,2,,,46,0
9720,control_change,1,0,3,,,,,,,,,2,64,127,,
9720,note_on,0,0,3,,,,,,,,,2,,,31,88
9720,control_change,0,0,1,,,,,,,,,0,64,127,,
9720,note_on,10,0,1,,,,,,,,,0,,,58,0
9724,note_on,4,0,3,,,,,,,,,2,,,31,0
9729,note_on,9,0,1,,,,,,,,,0,,,82,75
9739,note_on,10,0,1,,,,,,,,,0,,,82,0
9740,note_on,1,0,1,,,,,,,,,0,,,88,75
9740,note_on,16,0,3,,,,,,,,,2,,,50,62
9744,note_on,4,0,3,,,,,,,,,2,,,50,0
9750,note_on,10,0,1,,,,,,,,,0,,,88,0
9750,note_on,0,0,1,,,,,,,,,0,,,98,75
9759,note_on,15,0,3,,,,,,,,,2,,,52,62
9759,note_on,9,0,1,,,,,,,,,0,,,94,75
9760,note_on,1,0,1,,,,,,,,,0,,,98,0
9763,note_on,4,0,3,,,,,,,,,2,,,52,0
9769,note_on,9,0,1,,,,,,,,,0,,,94,0
9770,note_on,1,0,1,,,,,,,,,0,,,86,75
9780,note_on,17,0,3,,,,,,,,,2,,,58,62
9780,note_on,0,0,1,,,,,,,,,0,,,76,75
9780,note_on,0,0,2,,,,,,,,,1,,,62,101
9780,note_on,180,0,2,,,,,,,,,1,,,58,0
9780,note_on,10,0,1,,,,,,,,,0,,,86,0
9784,note_on,4,0,3,,,,,,,,,2,,,58,0
9789,note_on,9,0,1,,,,,,,,,0,,,86,75
9790,note_on,1,0,1,,,,,,,,,0,,,76,0
9799,note_on,9,0,1,,,,,,,,,0,,,86,0
9800,note_on,1,0,1,,,,,,,,,0,,,82,75
9800,note_on,16,0,3,,,,,,,,,2,,,52,62
9804,note_on,4,0,3,,,,,,,,,2,,,52,0
9810,note_on,0,0,1,,,,,,,,,0,,,74,75
9810,note_on,10,0,1,,,,,,,,,0,,,82,0
9819,note_on,9,0,1,,,,,,,,,0,,,70,75
9819,control_change,15,0,3,,,,,,,,,2,64,0,,
9819,note_on,0,0,3,,,,,,,,,2,,,50,62
9820,note_on,1,0,1,,,,,,,,,0,,,74,0
9825,note_on,45,0,2,,,,,,,,,1,,,62,0
9825,note_on,0,0,2,,,,,,,,,1,,,60,101
9829,note_on,9,0,1,,,,,,,,,0,,,70,0
9830,control_change,1,0,1,,,,,,,,,0,64,0,,
9830,note_on,0,0,1,,,,,,,,,0,,,64,75
9839,note_on,20,0,3,,,,,,,,,2,,,50,0
9840,note_on,0,0,3,,,,,,,,,2,,,45,88
9840,control_change,0,0,1,,,,,,,,,0,64,127,,
9840,note_on,15,0,2,,,,,,,,,1,,,60,0
9840,control_change,1,0,3,,,,,,,,,2,64,127,,
9840,note_on,0,0,2,,,,,,,,,1,,,60,101
9840,note_on,10,0,1,,,,,,,,,0,,,64,0
9844,note_on,4,0,3,,,,,,,,,2,,,45,0
9849,note_on,9,0,1,,,,,,,,,0,,,81,75
9859,note_on,10,0,1,,,,,,,,,0,,,81,0
9860,note_on,1,0,1,,,,,,,,,0,,,89,75
9860,note_on,16,0,3,,,,,,,,,2,,,48,62
9864,note_on,4,0,3,,,,,,,,,2,,,48,0
9870,note_on,0,0,1,,,,,,,,,0,,,96,75
9870,note_on,10,0,1,,,,,,,,,0,,,89,0
9879,note_on,15,0,3,,,,,,,,,2,,,53,62
9879,note_on,9,0,1,,,,,,,,,0,,,93,75
9880,note_on,1,0,1,,,,,,,,,0,,,96,0
9883,note_on,4,0,3,,,,,,,,,2,,,53,0
9889,note_on,9,0,1,,,,,,,,,0,,,93,0
9890,note_on,1,0,1,,,,,,,,,0,,,84,75
9900,note_on,0,0,1,,,,,,,,,0,,,77,75
9900,note_on,10,0,1,,,,,,,,,0,,,84,0
9900,note_on,17,0,3,,,,,,,,,2,,,57,62
9904,note_on,4,0,3,,,,,,,,,2,,,57,0
9909,note_on,9,0,1,,,,,,,,,0,,,84,75
9910,note_on,1,0,1,,,,,,,,,0,,,77,0
9919,note_on,9,0,1,,,,,,,,,0,,,84,0
9920,note_on,16,0,3,,,,,,,,,2,,,53,62
9920,note_on,1,0,1,,,,,,,,,0,,,81,75
9924,note_on,4,0,3,,,,,,,,,2,,,53,0
9930,note_on,10,0,1,,,,,,,,,0,,,81,0
9930,note_on,0,0,1,,,,,,,,,0,,,72,75
9939,note_on,9,0,1,,,,,,,,,0,,,69,75
9939,note_on,99,0,2,,,,,,,,,1,,,53,101
9939,note_on,0,0,3,,,,,,,,,2,,,48,62
9939,control_change,15,0,3,,,,,,,,,2,64,0,,
9939,note_on,0,0,2,,,,,,,,,1,,,57,101
9940,note_on,1,0,2,,,,,,,,,1,,,60,0
9940,note_on,1,0,1,,,,,,,,,0,,,72,0
9949,note_on,9,0,1,,,,,,,,,0,,,69,0
9950,control_change,1,0,1,,,,,,,,,0,64,0,,
9950,note_on,0,0,1,,,,,,,,,0,,,60,75
9959,note_on,0,0,2,,,,,,,,,1,,,53,0
9959,note_on,20,0,3,,,,,,,,,2,,,48,0
9959,note_on,19,0,2,,,,,,,,,1,,,57,0
9960,note_on,0,0,3,,,,,,,,,2,,,38,101
9960,note_on,10,0,1,,,,,,,,,0,,,60,0
9960,control_change,0,0,1,,,,,,,,,0,64,127,,
9960,note_on,1,0,2,,,,,,,,,1,,,55,101
9960,control_change,1,0,3,,,,,,,,,2,64,127,,
9964,note_on,4,0,3,,,,,,,,,2,,,38,0
9969,note_on,9,0,1,,,,,,,,,0,,,65,88
9975,set_tempo,375,1,0,,,,,,2222222,,,,,,,
9979,note_on,10,0,1,,,,,,,,,0,,,65,0
9980,note_on,20,0,2,,,,,,,,,1,,,55,0
9980,note_on,0,0,3,,,,,,,,,2,,,55,75
9980,note_on,1,0,1,,,,,,,,,0,,,67,88
9980,note_on,16,0,3,,,,,,,,,2,,,50,75
9980,note_on,0,0,2,,,,,,,,,1,,,59,101
9984,note_on,4,0,3,,,,,,,,,2,,,55,0
9984,note_on,0,0,3,,,,,,,,,2,,,50,0
9990,note_on,0,0,1,,,,,,,,,0,,,71,88
9990,set_tempo,15,1,0,,,,,,2400000,,,,,,,
9990,note_on,10,0,1,,,,,,,,,0,,,67,0
9999,note_on,9,0,1,,,,,,,,,0,,,77,88
9999,note_on,19,0,2,,,,,,,,,1,,,62,101
9999,note_on,0,0,3,,,,,,,,,2,,,55,75
9999,note_on,15,0,3,,,,,,,,,2,,,53,75
10000,note_on,1,0,1,,,,,,,,,0,,,71,0
10000,note_on,1,0,2,,,,,,,,,1,,,59,0
10003,note_on,4,0,3,,,,,,,,,2,,,55,0
10003,note_on,0,0,3,,,,,,,,,2,,,53,0
10005,set_tempo,15,1,0,,,,,,2608696,,,,,,,
10009,note_on,9,0,1,,,,,,,,,0,,,77,0
10010,note_on,1,0,1,,,,,,,,,0,,,77,88
10019,note_on,19,0,2,,,,,,,,,1,,,62,0
10020,note_on,1,0,2,,,,,,,,,1,,,65,101
10020,set_tempo,15,1,0,,,,,,2857143,,,,,,,
10020,note_on,10,0,1,,,,,,,,,0,,,77,0
10020,note_on,0,0,1,,,,,,,,,0,,,79,88
10020,note_on,0,0,3,,,,,,,,,2,,,59,75
10020,note_on,17,0,3,,,,,,,,,2,,,55,75
10024,note_on,0,0,3,,,,,,,,,2,,,55,0
10024,note_on,4,0,3,,,,,,,,,2,,,59,0
10029,note_on,9,0,1,,,,,,,,,0,,,83,88
10030,note_on,1,0,1,,,,,,,,,0,,,79,0
10035,set_tempo,15,1,0,,,,,,3157895,,,,,,,
10039,note_on,9,0,1,,,,,,,,,0,,,83,0
10040,note_on,16,0,3,,,,,,,,,2,,,53,75
10040,note_on,1,0,1,,,,,,,,,0,,,89,88
10040,note_on,20,0,2,,,,,,,,,1,,,65,0
10040,note_on,0,0,2,,,,,,,,,1,,,62,101
10040,note_on,0,0,3,,,,,,,,,2,,,55,75
10044,note_on,0,0,3,,,,,,,,,2,,,53,0
10044,note_on,4,0,3,,,,,,,,,2,,,55,0
10050,note_on,0,0,1,,,,,,,,,0,,,89,88
10050,set_tempo,15,1,0,,,,,,3529412,,,,,,,
10050,note_on,10,0,1,,,,,,,,,0,,,89,0
10059,note_on,9,0,1,,,,,,,,,0,,,101,88
10059,note_on,0,0,3,,,,,,,,,2,,,53,75
10059,control_change,15,0,3,,,,,,,,,2,64,0,,
10059,note_on,0,0,3,,,,,,,,,2,,,50,75
10059,note_on,19,0,2,,,,,,,,,1,,,59,101
10060,note_on,1,0,1,,,,,,,,,0,,,89,0
10060,note_on,1,0,2,,,,,,,,,1,,,62,0
10065,set_tempo,15,1,0,,,,,,4000000,,,,,,,
10069,note_on,9,0,1,,,,,,,,,0,,,101,0
10070,note_on,0,0,1,,,,,,,,,0,,,91,88
10070,note_on,0,0,1,,,,,,,,,0,,,89,88
10070,control_change,1,0,1,,,,,,,,,0,64,0,,
10079,note_on,19,0,2,,,,,,,,,1,,,59,0
10079,note_on,0,0,3,,,,,,,,,2,,,50,0
10079,note_on,20,0,3,,,,,,,,,2,,,53,0
10080,set_tempo,15,1,0,,,,,,2142857,,,,,,,
10080,note_on,1,0,2,,,,,,,,,1,,,60,101
10080,control_change,1,0,3,,,,,,,,,2,64,127,,
10080,note_on,0,0,1,,,,,,,,,0,,,101,88
10080,note_on,0,0,3,,,,,,,,,2,,,36,75
10080,note_on,0,0,1,,,,,,,,,0,,,89,0
10080,note_on,10,0,1,,,,,,,,,0,,,91,0
10084,note_on,4,0,3,,,,,,,,,2,,,36,0
10089,note_on,9,0,1,,,,,,,,,0,,,89,88
10089,note_on,0,0,1,,,,,,,,,0,,,93,88
10090,note_on,1,0,1,,,,,,,,,0,,,101,0
10099,note_on,9,0,1,,,,,,,,,0,,,93,0
10099,note_on,0,0,1,,,,,,,,,0,,,89,0
10100,note_on,16,0,3,,,,,,,,,2,,,48,75
10100,note_on,1,0,1,,,,,,,,,0,,,101,88
10104,note_on,4,0,3,,,,,,,,,2,,,48,0
10110,note_on,10,0,1,,,,,,,,,0,,,101,0
10110,note_on,0,0,1,,,,,,,,,0,,,91,88
10110,note_on,0,0,1,,,,,,,,,0,,,94,88
10119,note_on,15,0,3,,,,,,,,,2,,,53,75
10119,note_on,9,0,1,,,,,,,,,0,,,101,88
10120,note_on,0,0,1,,,,,,,,,0,,,91,0
10120,note_on,1,0,1,,,,,,,,,0,,,94,0
10123,note_on,4,0,3,,,,,,,,,2,,,53,0
10129,note_on,9,0,1,,,,,,,,,0,,,101,0
10130,note_on,1,0,1,,,,,,,,,0,,,92,88
10130,note_on,0,0,1,,,,,,,,,0,,,95,88
10140,note_on,10,0,1,,,,,,,,,0,,,95,0
10140,note_on,17,0,3,,,,,,,,,2,,,57,75
10140,note_on,0,0,1,,,,,,,,,0,,,101,88
10140,note_on,0,0,1,,,,,,,,,0,,,92,0
10144,note_on,4,0,3,,,,,,,,,2,,,57,0
10149,note_on,9,0,1,,,,,,,,,0,,,93,88
10149,note_on,0,0,1,,,,,,,,,0,,,96,88
10150,note_on,1,0,1,,,,,,,,,0,,,101,0
10159,note_on,0,0,1,,,,,,,,,0,,,93,0
10159,note_on,9,0,1,,,,,,,,,0,,,96,0
10160,note_on,16,0,3,,,,,,,,,2,,,53,75
10160,note_on,1,0,1,,,,,,,,,0,,,101,88
10164,note_on,4,0,3,,,,,,,,,2,,,53,0
10170,note_on,0,0,1,,,,,,,,,0,,,94,88
10170,note_on,10,0,1,,,,,,,,,0,,,101,0
10170,note_on,0,0,1,,,,,,,,,0,,,98,88
10179,note_on,9,0,1,,,,,,,,,0,,,101,88
10179,note_on,0,0,3,,,,,,,,,2,,,48,75
10179,control_change,15,0,3,,,,,,,,,2,64,0,,
10180,note_on,1,0,1,,,,,,,,,0,,,98,0
10180,note_on,0,0,1,,,,,,,,,0,,,94,0
10189,note_on,9,0,1,,,,,,,,,0,,,101,0
10190,note_on,0,0,1,,,,,,,,,0,,,96,88
10190,note_on,1,0,1,,,,,,,,,0,,,93,88
10199,note_on,20,0,3,,,,,,,,,2,,,48,0
10200,control_change,1,0,3,,,,,,,,,2,64,127,,
10200,note_on,0,0,3,,,,,,,,,2,,,36,75
10200,control_change,0,0,1,,,,,,,,,0,64,127,,
10200,note_on,0,0,1,,,,,,,,,0,,,93,0
10200,note_on,10,0,1,,,,,,,,,0,,,96,0
10204,note_on,4,0,3,,,,,,,,,2,,,36,0
10209,note_on,9,0,1,,,,,,,,,0,,,84,88
10215,set_tempo,135,1,0,,,,,,2222222,,,,,,,
10219,note_on,10,0,1,,,,,,,,,0,,,84,0
10220,note_on,16,0,3,,,,,,,,,2,,,48,75
10220,note_on,1,0,1,,,,,,,,,0,,,94,88
10220,note_on,140,0,2,,,,,,,,,1,,,60,0
10220,note_on,0,0,2,,,,,,,,,1,,,55,101
10224,note_on,4,0,3,,,,,,,,,2,,,48,0
10230,note_on,10,0,1,,,,,,,,,0,,,94,0
10230,note_on,0,0,1,,,,,,,,,0,,,100,88
10230,set_tempo,15,1,0,,,,,,2400000,,,,,,,
10239,note_on,19,0,2,,,,,,,,,1,,,57,101
10239,note_on,9,0,1,,,,,,,,,0,,,96,88
10239,note_on,15,0,3,,,,,,,,,2,,,52,75
10240,note_on,1,0,2,,,,,,,,,1,,,55,0
10240,note_on,1,0,1,,,,,,,,,0,,,100,0
10243,note_on,4,0,3,,,,,,,,,2,,,52,0
10245,set_tempo,15,1,0,,,,,,2608696,,,,,,,
10249,note_on,9,0,1,,,,,,,,,0,,,96,0
10250,note_on,1,0,1,,,,,,,,,0,,,88,88
10259,note_on,19,0,2,,,,,,,,,1,,,57,0
10260,note_on,17,0,3,,,,,,,,,2,,,55,62
10260,set_tempo,15,1,0,,,,,,2857143,,,,,,,
10260,note_on,0,0,1,,,,,,,,,0,,,82,75
10260,note_on,10,0,1,,,,,,,,,0,,,88,0
10260,note_on,1,0,2,,,,,,,,,1,,,58,101
10264,note_on,4,0,3,,,,,,,,,2,,,55,0
10269,note_on,9,0,1,,,,,,,,,0,,,88,75
10269,note_on,9,0,2,,,,,,,,,1,,,60,101
10270,note_on,1,0,1,,,,,,,,,0,,,82,0
10270,note_on,1,0,2,,,,,,,,,1,,,58,0
10275,set_tempo,15,1,0,,,,,,3157895,,,,,,,
10279,note_on,9,0,2,,,,,,,,,1,,,60,0
10279,note_on,9,0,1,,,,,,,,,0,,,88,0
10280,note_on,1,0,2,,,,,,,,,1,,,58,101
10280,note_on,1,0,1,,,,,,,,,0,,,84,75
10280,note_on,16,0,3,,,,,,,,,2,,,52,62
10284,note_on,4,0,3,,,,,,,,,2,,,52,0
10290,note_on,0,0,1,,,,,,,,,0,,,76,75
10290,set_tempo,15,1,0,,,,,,3529412,,,,,,,
10290,note_on,0,0,2,,,,,,,,,1,,,57,101
10290,note_on,10,0,2,,,,,,,,,1,,,58,0
10290,note_on,10,0,1,,,,,,,,,0,,,84,0
10299,note_on,0,0,3,,,,,,,,,2,,,46,62
10299,note_on,9,0,1,,,,,,,,,0,,,72,75
10299,control_change,15,0,3,,,,,,,,,2,64,0,,
10300,note_on,1,0,1,,,,,,,,,0,,,76,0
10305,set_tempo,15,1,0,,,,,,4000000,,,,,,,
10309,note_on,9,0,1,,,,,,,,,0,,,72,0
10310,note_on,0,0,1,,,,,,,,,0,,,64,75
10310,note_on,0,0,2,,,,,,,,,1,,,55,101
10310,control_change,1,0,1,,,,,,,,,0,64,0,,
10310,note_on,20,0,2,,,,,,,,,1,,,57,0
10319,note_on,20,0,3,,,,,,,,,2,,,46,0
10320,note_on,10,0,1,,,,,,,,,0,,,64,0
10320,control_change,1,0,3,,,,,,,,,2,64,127,,
10320,note_on,0,0,3,,,,,,,,,2,,,45,62
10320,note_on,10,0,2,,,,,,,,,1,,,55,0
10320,note_on,0,0,2,,,,,,,,,1,,,53,101
10320,set_tempo,15,1,0,,,,,,2142857,,,,,,,
10320,control_change,0,0,1,,,,,,,,,0,64,127,,
10320,note_on,0,0,3,,,,,,,,,2,,,41,62
10324,note_on,0,0,3,,,,,,,,,2,,,41,0
10324,note_on,4,0,3,,,,,,,,,2,,,45,0
10329,note_on,9,0,1,,,,,,,,,0,,,72,75
10339,note_on,10,0,1,,,,,,,,,0,,,72,0
10340,note_on,1,0,1,,,,,,,,,0,,,81,75
10340,note_on,16,0,3,,,,,,,,,2,,,48,62
10344,note_on,4,0,3,,,,,,,,,2,,,48,0
10350,note_on,0,0,1,,,,,,,,,0,,,89,75
10350,note_on,10,0,1,,,,,,,,,0,,,81,0
10359,note_on,15,0,3,,,,,,,,,2,,,53,62
10359,note_on,9,0,1,,,,,,,,,0,,,84,75
10360,note_on,1,0,1,,,,,,,,,0,,,89,0
10363,note_on,4,0,3,,,,,,,,,2,,,53,0
10369,note_on,9,0,1,,,,,,,,,0,,,84,0
10370,note_on,1,0,1,,,,,,,,,0,,,77,75
10380,note_on,17,0,3,,,,,,,,,2,,,57,62
10380,note_on,0,0,1,,,,,,,,,0,,,72,75
10380,note_on,10,0,1,,,,,,,,,0,,,77,0
10384,note_on,4,0,3,,,,,,,,,2,,,57,0
10389,note_on,9,0,1,,,,,,,,,0,,,81,75
10390,note_on,1,0,1,,,,,,,,,0,,,72,0
10399,note_on,9,0,1,,,,,,,,,0,,,81,0
10400,note_on,1,0,1,,,,,,,,,0,,,77,75
10400,note_on,16,0,3,,,,,,,,,2,,,53,62
10404,note_on,4,0,3,,,,,,,,,2,,,53,0
10410,note_on,0,0,1,,,,,,,,,0,,,69,75
10410,note_on,10,0,1,,,,,,,,,0,,,77,0
10419,control_change,15,0,3,,,,,,,,,2,64,0,,
10419,note_on,0,0,3,,,,,,,,,2,,,48,62
10419,note_on,9,0,1,,,,,,,,,0,,,60,75
10420,note_on,1,0,1,,,,,,,,,0,,,69,0
10429,note_on,9,0,1,,,,,,,,,0,,,60,0
10430,control_change,1,0,1,,,,,,,,,0,64,0,,
10430,note_on,0,0,1,,,,,,,,,0,,,69,75
10439,note_on,20,0,3,,,,,,,,,2,,,48,0
10440,note_on,0,0,3,,,,,,,,,2,,,41,62
10440,note_on,10,0,1,,,,,,,,,0,,,69,0
10440,control_change,1,0,3,,,,,,,,,2,64,127,,
10449,note_on,9,0,3,,,,,,,,,2,,,48,62
10450,note_on,1,0,3,,,,,,,,,2,,,41,0
10459,note_on,9,0,3,,,,,,,,,2,,,48,0
10460,note_on,1,0,3,,,,,,,,,2,,,57,62
10470,note_on,10,0,3,,,,,,,,,2,,,57,0
10470,note_on,0,0,3,,,,,,,,,2,,,65,62
10479,note_on,9,0,3,,,,,,,,,2,,,60,62
10480,note_on,1,0,3,,,,,,,,,2,,,65,0
10489,note_on,9,0,3,,,,,,,,,2,,,60,0
10490,note_on,1,0,3,,,,,,,,,2,,,53,62
10500,note_on,180,0,2,,,,,,,,,1,,,53,0
10500,note_on,0,0,2,,,,,,,,,1,,,65,127
10500,note_on,10,0,3,,,,,,,,,2,,,53,0
10500,note_on,0,0,3,,,,,,,,,2,,,48,62
10509,note_on,9,0,3,,,,,,,,,2,,,57,62
10510,note_on,1,0,3,,,,,,,,,2,,,48,0
10519,note_on,9,0,3,,,,,,,,,2,,,57,0
10520,note_on,1,0,3,,,,,,,,,2,,,53,62
10530,note_on,0,0,3,,,,,,,,,2,,,45,62
10530,note_on,10,0,3,,,,,,,,,2,,,53,0
10539,note_on,9,0,3,,,,,,,,,2,,,41,62
10540,note_on,1,0,3,,,,,,,,,2,,,45,0
10545,note_on,0,0,2,,,,,,,,,1,,,53,101
10545,note_on,0,0,2,,,,,,,,,1,,,65,101
10545,note_on,45,0,2,,,,,,,,,1,,,65,0
10545,note_on,2865,0,4,,,,,,,,,3,,,29,36
10549,note_on,9,0,3,,,,,,,,,2,,,41,0
10550,control_change,1,0,3,,,,,,,,,2,64,0,,
10550,note_on,0,0,3,,,,,,,,,2,,,41,62
10560,note_on,0,0,4,,,,,,,,,3,,,41,62
10560,control_change,15,0,4,,,,,,,,,3,64,127,,
10560,note_on,15,0,2,,,,,,,,,1,,,65,0
10560,control_change,0,0,3,,,,,,,,,2,64,127,,
10560,control_change,120,0,1,,,,,,,,,0,64,127,,
10560,note_on,0,0,1,,,,,,,,,0,,,60,75
10560,note_on,0,0,2,,,,,,,,,1,,,72,127
10560,note_on,0,0,2,,,,,,,,,1,,,60,119
10560,note_on,0,0,2,,,,,,,,,1,,,53,0
10560,note_on,10,0,3,,,,,,,,,2,,,41,0
10564,note_on,4,0,1,,,,,,,,,0,,,60,0
10569,note_on,0,0,1,,,,,,,,,0,,,69,75
10569,note_on,5,0,1,,,,,,,,,0,,,63,75
10573,note_on,0,0,1,,,,,,,,,0,,,63,0
10573,note_on,4,0,1,,,,,,,,,0,,,69,0
10580,note_on,7,0,1,,,,,,,,,0,,,72,75
10580,note_on,0,0,4,,,,,,,,,3,,,29,0
10580,note_on,20,0,3,,,,,,,,,2,,,53,62
10580,note_on,20,0,4,,,,,,,,,3,,,41,0
10580,note_on,0,0,3,,,,,,,,,2,,,57,62
10580,note_on,0,0,3,,,,,,,,,2,,,60,62
10584,note_on,4,0,3,,,,,,,,,2,,,60,0
10584,note_on,4,0,1,,,,,,,,,0,,,72,0
10584,note_on,0,0,3,,,,,,,,,2,,,57,0
10584,note_on,0,0,3,,,,,,,,,2,,,53,0
10590,note_on,6,0,1,,,,,,,,,0,,,75,75
10590,note_on,0,0,1,,,,,,,,,0,,,81,75
10594,note_on,4,0,1,,,,,,,,,0,,,81,0
10594,note_on,0,0,1,,,,,,,,,0,,,75,0
10599,note_on,0,0,3,,,,,,,,,2,,,60,62
10599,note_on,5,0,1,,,,,,,,,0,,,84,75
10599,note_on,15,0,3,,,,,,,,,2,,,57,62
10599,note_on,0,0,3,,,,,,,,,2,,,65,62
10603,note_on,0,0,3,,,,,,,,,2,,,57,0
10603,note_on,4,0,3,,,,,,,,,2,,,65,0
10603,note_on,0,0,3,,,,,,,,,2,,,60,0
10603,note_on,4,0,1,,,,,,,,,0,,,84,0
10610,note_on,7,0,1,,,,,,,,,0,,,87,75
10610,note_on,0,0,1,,,,,,,,,0,,,93,75
10614,note_on,4,0,1,,,,,,,,,0,,,93,0
10614,note_on,0,0,1,,,,,,,,,0,,,87,0
10620,note_on,17,0,3,,,,,,,,,2,,,65,62
10620,note_on,6,0,1,,,,,,,,,0,,,101,75
10620,note_on,0,0,3,,,,,,,,,2,,,72,62
10620,note_on,0,0,3,,,,,,,,,2,,,69,62
10624,note_on,4,0,3,,,,,,,,,2,,,72,0
10624,note_on,4,0,1,,,,,,,,,0,,,101,0
10624,note_on,0,0,3,,,,,,,,,2,,,69,0
10624,note_on,0,0,3,,,,,,,,,2,,,65,0
10629,note_on,5,0,1,,,,,,,,,0,,,87,75
10629,note_on,0,0,1,,,,,,,,,0,,,93,75
10633,note_on,0,0,1,,,,,,,,,0,,,87,0
10633,note_on,4,0,1,,,,,,,,,0,,,93,0
10640,note_on,16,0,3,,,,,,,,,2,,,60,62
10640,note_on,0,0,3,,,,,,,,,2,,,65,62
10640,note_on,0,0,3,,,,,,,,,2,,,69,62
10640,note_on,7,0,1,,,,,,,,,0,,,84,75
10644,note_on,4,0,3,,,,,,,,,2,,,69,0
10644,note_on,0,0,3,,,,,,,,,2,,,65,0
10644,note_on,0,0,3,,,,,,,,,2,,,60,0
10644,note_on,4,0,1,,,,,,,,,0,,,84,0
10650,note_on,6,0,1,,,,,,,,,0,,,75,75
10650,note_on,0,0,1,,,,,,,,,0,,,81,75
10654,note_on,4,0,1,,,,,,,,,0,,,81,0
10654,note_on,0,0,1,,,,,,,,,0,,,75,0
10659,note_on,0,0,2,,,,,,,,,1,,,72,101
10659,note_on,0,0,3,,,,,,,,,2,,,60,62
10659,note_on,0,0,3,,,,,,,,,2,,,57,62
10659,note_on,15,0,3,,,,,,,,,2,,,53,62
10659,control_change,99,0,2,,,,,,,,,1,64,0,,
10659,note_on,0,0,2,,,,,,,,,1,,,60,101
10659,note_on,5,0,1,,,,,,,,,0,,,72,75
10660,note_on,0,0,2,,,,,,,,,1,,,60,0
10660,note_on,1,0,2,,,,,,,,,1,,,72,0
10663,note_on,0,0,3,,,,,,,,,2,,,57,0
10663,note_on,0,0,3,,,,,,,,,2,,,53,0
10663,note_on,4,0,3,,,,,,,,,2,,,60,0
10663,note_on,4,0,1,,,,,,,,,0,,,72,0
10670,note_on,0,0,1,,,,,,,,,0,,,69,75
10670,note_on,7,0,1,,,,,,,,,0,,,63,75
10674,note_on,4,0,1,,,,,,,,,0,,,69,0
10674,note_on,0,0,1,,,,,,,,,0,,,63,0
10679,note_on,19,0,2,,,,,,,,,1,,,60,0
10679,note_on,0,0,2,,,,,,,,,1,,,72,0
10680,note_on,0,0,4,,,,,,,,,3,,,41,62
10680,note_on,1,0,2,,,,,,,,,1,,,60,101
10680,note_on,0,0,2,,,,,,,,,1,,,72,101
10680,note_on,100,0,4,,,,,,,,,3,,,29,62
10680,note_on,6,0,1,,,,,,,,,0,,,60,75
10684,note_on,4,0,1,,,,,,,,,0,,,60,0
10689,note_on,0,0,1,,,,,,,,,0,,,69,75
10689,note_on,5,0,1,,,,,,,,,0,,,63,75
10693,note_on,0,0,1,,,,,,,,,0,,,63,0
10693,note_on,4,0,1,,,,,,,,,0,,,69,0
10700,note_on,0,0,3,,,,,,,,,2,,,57,62
10700,note_on,0,0,3,,,,,,,,,2,,,60,62
10700,note_on,7,0,1,,,,,,,,,0,,,72,75
10700,note_on,0,0,4,,,,,,,,,3,,,29,0
10700,note_on,37,0,3,,,,,,,,,2,,,53,62
10700,note_on,20,0,4,,,,,,,,,3,,,41,0
10704,note_on,0,0,3,,,,,,,,,2,,,57,0
10704,note_on,4,0,3,,,,,,,,,2,,,60,0
10704,note_on,4,0,1,,,,,,,,,0,,,72,0
10704,note_on,0,0,3,,,,,,,,,2,,,53,0
10710,note_on,0,0,1,,,,,,,,,0,,,81,75
10710,note_on,6,0,1,,,,,,,,,0,,,75,75
10714,note_on,4,0,1,,,,,,,,,0,,,81,0
10714,note_on,0,0,1,,,,,,,,,0,,,75,0
10719,note_on,5,0,1,,,,,,,,,0,,,84,75
10719,note_on,15,0,3,,,,,,,,,2,,,57,62
10719,note_on,0,0,3,,,,,,,,,2,,,65,62
10719,note_on,0,0,3,,,,,,,,,2,,,60,62
10723,note_on,4,0,3,,,,,,,,,2,,,65,0
10723,note_on,0,0,3,,,,,,,,,2,,,57,0
10723,note_on,4,0,1,,,,,,,,,0,,,84,0
10723,note_on,0,0,3,,,,,,,,,2,,,60,0
10725,note_on,0,0,2,,,,,,,,,1,,,71,101
10725,note_on,0,0,2,,,,,,,,,1,,,60,0
10725,note_on,0,0,2,,,,,,,,,1,,,59,101
10725,note_on,45,0,2,,,,,,,,,1,,,72,0
10730,note_on,0,0,1,,,,,,,,,0,,,93,75
10730,note_on,7,0,1,,,,,,,,,0,,,87,75
10734,note_on,0,0,1,,,,,,,,,0,,,87,0
10734,note_on,4,0,1,,,,,,,,,0,,,93,0
10740,note_on,15,0,2,,,,,,,,,1,,,71,0
10740,note_on,0,0,2,,,,,,,,,1,,,72,101
10740,note_on,17,0,3,,,,,,,,,2,,,60,62
10740,note_on,0,0,2,,,,,,,,,1,,,60,101
10740,note_on,0,0,2,,,,,,,,,1,,,59,0
10740,note_on,0,0,3,,,,,,,,,2,,,72,62
10740,note_on,6,0,1,,,,,,,,,0,,,101,75
10744,note_on,4,0,3,,,,,,,,,2,,,72,0
10744,note_on,0,0,3,,,,,,,,,2,,,60,0
10744,note_on,4,0,1,,,,,,,,,0,,,101,0
10749,note_on,0,0,1,,,,,,,,,0,,,93,75
10749,note_on,5,0,1,,,,,,,,,0,,,87,75
10753,note_on,4,0,1,,,,,,,,,0,,,93,0
10753,note_on,0,0,1,,,,,,,,,0,,,87,0
10760,note_on,16,0,3,,,,,,,,,2,,,65,62
10760,note_on,0,0,3,,,,,,,,,2,,,69,62
10760,note_on,7,0,1,,,,,,,,,0,,,84,75
10764,note_on,4,0,1,,,,,,,,,0,,,84,0
10764,note_on,4,0,3,,,,,,,,,2,,,69,0
10764,note_on,0,0,3,,,,,,,,,2,,,65,0
10770,note_on,6,0,1,,,,,,,,,0,,,75,75
10770,note_on,0,0,1,,,,,,,,,0,,,81,75
10774,note_on,4,0,1,,,,,,,,,0,,,81,0
10774,note_on,0,0,1,,,,,,,,,0,,,75,0
10779,note_on,0,0,3,,,,,,,,,2,,,60,62
10779,control_change,79,0,4,,,,,,,,,3,64,0,,
10779,control_change,15,0,3,,,,,,,,,2,64,0,,
10779,note_on,5,0,1,,,,,,,,,0,,,72,75
10779,note_on,0,0,3,,,,,,,,,2,,,65,62
10783,note_on,4,0,1,,,,,,,,,0,,,72,0
10785,note_on,0,0,2,,,,,,,,,1,,,74,101
10785,note_on,0,0,2,,,,,,,,,1,,,62,101
10785,note_on,0,0,2,,,,,,,,,1,,,60,0
10785,note_on,45,0,2,,,,,,,,,1,,,72,0
10790,note_on,0,0,1,,,,,,,,,0,,,69,75
10790,control_change,7,0,1,,,,,,,,,0,64,0,,
10790,note_on,0,0,1,,,,,,,,,0,,,63,75
10799,note_on,20,0,3,,,,,,,,,2,,,65,0
10799,note_on,0,0,3,,,,,,,,,2,,,60,0
10800,note_on,15,0,2,,,,,,,,,1,,,74,0
10800,note_on,0,0,1,,,,,,,,,0,,,63,0
10800,control_change,21,0,4,,,,,,,,,3,64,127,,
10800,note_on,0,0,1,,,,,,,,,0,,,60,75
10800,control_change,1,0,3,,,,,,,,,2,64,127,,
10800,note_on,0,0,4,,,,,,,,,3,,,29,62
10800,note_on,0,0,4,,,,,,,,,3,,,41,62
10800,control_change,0,0,1,,,,,,,,,0,64,127,,
10800,note_on,0,0,2,,,,,,,,,1,,,72,101
10800,note_on,0,0,2,,,,,,,,,1,,,60,101
10800,note_on,0,0,2,,,,,,,,,1,,,62,0
10800,note_on,10,0,1,,,,,,,,,0,,,69,0
10804,note_on,4,0,1,,,,,,,,,0,,,60,0
10809,note_on,0,0,1,,,,,,,,,0,,,65,75
10809,note_on,5,0,1,,,,,,,,,0,,,62,75
10813,note_on,4,0,1,,,,,,,,,0,,,65,0
10813,note_on,0,0,1,,,,,,,,,0,,,62,0
10820,note_on,20,0,3,,,,,,,,,2,,,50,62
10820,note_on,20,0,4,,,,,,,,,3,,,41,0
10820,note_on,0,0,4,,,,,,,,,3,,,29,0
10820,note_on,7,0,1,,,,,,,,,0,,,72,75
10820,note_on,0,0,3,,,,,,,,,2,,,53,62
10824,note_on,4,0,1,,,,,,,,,0,,,72,0
10824,note_on,0,0,3,,,,,,,,,2,,,50,0
10824,note_on,4,0,3,,,,,,,,,2,,,53,0
10830,note_on,0,0,1,,,,,,,,,0,,,77,75
10830,note_on,6,0,1,,,,,,,,,0,,,74,75
10834,note_on,0,0,1,,,,,,,,,0,,,74,0
10834,note_on,4,0,1,,,,,,,,,0,,,77,0
10839,note_on,15,0,3,,,,,,,,,2,,,53,62
10839,note_on,0,0,3,,,,,,,,,2,,,62,62
10839,note_on,5,0,1,,,,,,,,,0,,,84,75
10843,note_on,4,0,3,,,,,,,,,2,,,62,0
10843,note_on,0,0,3,,,,,,,,,2,,,53,0
10843,note_on,4,0,1,,,,,,,,,0,,,84,0
10850,note_on,7,0,1,,,,,,,,,0,,,86,75
10850,note_on,0,0,1,,,,,,,,,0,,,89,75
10854,note_on,4,0,1,,,,,,,,,0,,,89,0
10854,note_on,0,0,1,,,,,,,,,0,,,86,0
10860,note_on,17,0,3,,,,,,,,,2,,,58,62
10860,note_on,0,0,2,,,,,,,,,1,,,58,101
10860,note_on,60,0,2,,,,,,,,,1,,,72,0
10860,note_on,0,0,3,,,,,,,,,2,,,70,62
10860,note_on,0,0,2,,,,,,,,,1,,,60,0
10860,note_on,6,0,1,,,,,,,,,0,,,101,75
10860,note_on,0,0,2,,,,,,,,,1,,,70,101
10864,note_on,0,0,3,,,,,,,,,2,,,58,0
10864,note_on,4,0,3,,,,,,,,,2,,,70,0
10864,note_on,4,0,1,,,,,,,,,0,,,101,0
10869,note_on,5,0,1,,,,,,,,,0,,,89,75
10869,note_on,0,0,1,,,,,,,,,0,,,94,75
10873,note_on,0,0,1,,,,,,,,,0,,,89,0
10873,note_on,4,0,1,,,,,,,,,0,,,94,0
10880,note_on,7,0,1,,,,,,,,,0,,,86,75
10880,note_on,16,0,3,,,,,,,,,2,,,62,62
10880,note_on,0,0,3,,,,,,,,,2,,,65,62
10884,note_on,4,0,3,,,,,,,,,2,,,65,0
10884,note_on,4,0,1,,,,,,,,,0,,,86,0
10884,note_on,0,0,3,,,,,,,,,2,,,62,0
10890,note_on,0,0,1,,,,,,,,,0,,,82,75
10890,note_on,6,0,1,,,,,,,,,0,,,77,75
10894,note_on,0,0,1,,,,,,,,,0,,,77,0
10894,note_on,4,0,1,,,,,,,,,0,,,82,0
10899,note_on,0,0,3,,,,,,,,,2,,,62,62
10899,note_on,5,0,1,,,,,,,,,0,,,74,75
10899,note_on,15,0,3,,,,,,,,,2,,,58,62
10903,note_on,4,0,3,,,,,,,,,2,,,62,0
10903,note_on,0,0,3,,,,,,,,,2,,,58,0
10903,note_on,4,0,1,,,,,,,,,0,,,74,0
10910,note_on,0,0,1,,,,,,,,,0,,,70,75
10910,note_on,7,0,1,,,,,,,,,0,,,65,75
10914,note_on,4,0,1,,,,,,,,,0,,,70,0
10914,note_on,0,0,1,,,,,,,,,0,,,65,0
10920,note_on,100,0,4,,,,,,,,,3,,,29,62
10920,note_on,6,0,1,,,,,,,,,0,,,62,75
10920,note_on,0,0,4,,,,,,,,,3,,,41,62
10924,note_on,4,0,1,,,,,,,,,0,,,62,0
10929,note_on,5,0,1,,,,,,,,,0,,,65,75
10929,note_on,0,0,1,,,,,,,,,0,,,70,75
10933,note_on,4,0,1,,,,,,,,,0,,,70,0
10933,note_on,0,0,1,,,,,,,,,0,,,65,0
10940,note_on,0,0,3,,,,,,,,,2,,,53,62
10940,note_on,0,0,3,,,,,,,,,2,,,58,62
10940,note_on,37,0,3,,,,,,,,,2,,,50,62
10940,note_on,0,0,4,,,,,,,,,3,,,29,0
10940,note_on,20,0,4,,,,,,,,,3,,,41,0
10940,note_on,7,0,1,,,,,,,,,0,,,74,75
10944,note_on,4,0,1,,,,,,,,,0,,,74,0
10944,note_on,0,0,3,,,,,,,,,2,,,50,0
10944,note_on,0,0,3,,,,,,,,,2,,,53,0
10944,note_on,4,0,3,,,,,,,,,2,,,58,0
10950,note_on,6,0,1,,,,,,,,,0,,,77,75
10950,note_on,0,0,1,,,,,,,,,0,,,82,75
10954,note_on,0,0,1,,,,,,,,,0,,,77,0
10954,note_on,4,0,1,,,,,,,,,0,,,82,0
10959,note_on,0,0,3,,,,,,,,,2,,,58,62
10959,note_on,0,0,3,,,,,,,,,2,,,62,62
10959,note_on,15,0,3,,,,,,,,,2,,,53,62
10959,note_on,5,0,1,,,,,,,,,0,,,86,75
10963,note_on,4,0,1,,,,,,,,,0,,,86,0
10963,note_on,0,0,3,,,,,,,,,2,,,53,0
10963,note_on,4,0,3,,,,,,,,,2,,,62,0
10963,note_on,0,0,3,,,,,,,,,2,,,58,0
10970,note_on,0,0,1,,,,,,,,,0,,,94,75
10970,note_on,7,0,1,,,,,,,,,0,,,89,75
10974,note_on,0,0,1,,,,,,,,,0,,,89,0
10974,note_on,4,0,1,,,,,,,,,0,,,94,0
10980,note_on,6,0,1,,,,,,,,,0,,,101,75
10980,note_on,17,0,3,,,,,,,,,2,,,58,62
10980,note_on,0,0,2,,,,,,,,,1,,,58,101
10980,note_on,0,0,2,,,,,,,,,1,,,70,101
10980,note_on,0,0,3,,,,,,,,,2,,,70,62
10980,note_on,120,0,2,,,,,,,,,1,,,70,0
10980,note_on,0,0,2,,,,,,,,,1,,,58,0
10984,note_on,4,0,3,,,,,,,,,2,,,70,0
10984,note_on,4,0,1,,,,,,,,,0,,,101,0
10984,note_on,0,0,3,,,,,,,,,2,,,58,0
10989,note_on,0,0,1,,,,,,,,,0,,,94,75
10989,note_on,5,0,1,,,,,,,,,0,,,89,75
10993,note_on,4,0,1,,,,,,,,,0,,,94,0
10993,note_on,0,0,1,,,,,,,,,0,,,89,0
11000,note_on,0,0,3,,,,,,,,,2,,,65,62
11000,note_on,7,0,1,,,,,,,,,0,,,86,75
11000,note_on,16,0,3,,,,,,,,,2,,,62,62
11004,note_on,4,0,3,,,,,,,,,2,,,65,0
11004,note_on,0,0,3,,,,,,,,,2,,,62,0
11004,note_on,4,0,1,,,,,,,,,0,,,86,0
11010,note_on,6,0,1,,,,,,,,,0,,,77,75
11010,note_on,0,0,1,,,,,,,,,0,,,82,75
11014,note_on,0,0,1,,,,,,,,,0,,,77,0
11014,note_on,4,0,1,,,,,,,,,0,,,82,0
11019,note_on,0,0,3,,,,,,,,,2,,,58,62
11019,control_change,79,0,4,,,,,,,,,3,64,0,,
11019,note_on,5,0,1,,,,,,,,,0,,,74,75
11019,control_change,15,0,3,,,,,,,,,2,64,0,,
11019,note_on,0,0,3,,,,,,,,,2,,,62,62
11023,note_on,4,0,1,,,,,,,,,0,,,74,0
11030,control_change,7,0,1,,,,,,,,,0,64,0,,
11030,note_on,0,0,1,,,,,,,,,0,,,70,75
11030,note_on,0,0,1,,,,,,,,,0,,,65,75
11039,note_on,20,0,3,,,,,,,,,2,,,62,0
11039,note_on,0,0,3,,,,,,,,,2,,,58,0
11040,note_on,0,0,1,,,,,,,,,0,,,60,75
11040,note_on,0,0,1,,,,,,,,,0,,,65,0
11040,note_on,10,0,1,,,,,,,,,0,,,70,0
11040,control_change,1,0,3,,,,,,,,,2,64,127,,
11040,note_on,0,0,2,,,,,,,,,1,,,58,0
11040,note_on,0,0,2,,,,,,,,,1,,,60,119
11040,note_on,0,0,2,,,,,,,,,1,,,72,127
11040,note_on,60,0,2,,,,,,,,,1,,,70,0
11040,control_change,0,0,1,,,,,,,,,0,64,127,,
11040,control_change,21,0,4,,,,,,,,,3,64,127,,
11040,note_on,0,0,4,,,,,,,,,3,,,41,62
11040,note_on,0,0,4,,,,,,,,,3,,,29,62
11044,note_on,4,0,1,,,,,,,,,0,,,60,0
11049,note_on,0,0,1,,,,,,,,,0,,,69,75
11049,note_on,5,0,1,,,,,,,,,0,,,63,75
11053,note_on,4,0,1,,,,,,,,,0,,,69,0
11053,note_on,0,0,1,,,,,,,,,0,,,63,0
11060,note_on,20,0,3,,,,,,,,,2,,,53,62
11060,note_on,0,0,4,,,,,,,,,3,,,29,0
11060,note_on,0,0,3,,,,,,,,,2,,,57,62
11060,note_on,0,0,3,,,,,,,,,2,,,60,62
11060,note_on,7,0,1,,,,,,,,,0,,,72,75
11060,note_on,20,0,4,,,,,,,,,3,,,41,0
11064,note_on,0,0,3,,,,,,,,,2,,,53,0
11064,note_on,0,0,3,,,,,,,,,2,,,57,0
11064,note_on,4,0,3,,,,,,,,,2,,,60,0
11064,note_on,4,0,1,,,,,,,,,0,,,72,0
11070,note_on,6,0,1,,,,,,,,,0,,,75,75
11070,note_on,0,0,1,,,,,,,,,0,,,81,75
11074,note_on,0,0,1,,,,,,,,,0,,,75,0
11074,note_on,4,0,1,,,,,,,,,0,,,81,0
11079,note_on,15,0,3,,,,,,,,,2,,,57,62
11079,note_on,0,0,3,,,,,,,,,2,,,60,62
11079,note_on,5,0,1,,,,,,,,,0,,,84,75
11079,note_on,0,0,3,,,,,,,,,2,,,65,62
11083,note_on,4,0,1,,,,,,,,,0,,,84,0
11083,note_on,0,0,3,,,,,,,,,2,,,57,0
11083,note_on,0,0,3,,,,,,,,,2,,,60,0
11083,note_on,4,0,3,,,,,,,,,2,,,65,0
11090,note_on,0,0,1,,,,,,,,,0,,,93,75
11090,note_on,7,0,1,,,,,,,,,0,,,87,75
11094,note_on,4,0,1,,,,,,,,,0,,,93,0
11094,note_on,0,0,1,,,,,,,,,0,,,87,0
11100,note_on,6,0,1,,,,,,,,,0,,,101,75
11100,note_on,0,0,3,,,,,,,,,2,,,69,62
11100,note_on,0,0,3,,,,,,,,,2,,,72,62
11100,note_on,17,0,3,,,,,,,,,2,,,65,62
11104,note_on,4,0,3,,,,,,,,,2,,,72,0
11104,note_on,4,0,1,,,,,,,,,0,,,101,0
11104,note_on,0,0,3,,,,,,,,,2,,,65,0
11104,note_on,0,0,3,,,,,,,,,2,,,69,0
11109,note_on,0,0,1,,,,,,,,,0,,,93,75
11109,note_on,5,0,1,,,,,,,,,0,,,87,75
11113,note_on,4,0,1,,,,,,,,,0,,,93,0
11113,note_on,0,0,1,,,,,,,,,0,,,87,0
11120,note_on,7,0,1,,,,,,,,,0,,,84,75
11120,note_on,0,0,3,,,,,,,,,2,,,65,62
11120,note_on,0,0,3,,,,,,,,,2,,,69,62
11120,note_on,16,0,3,,,,,,,,,2,,,60,62
11124,note_on,4,0,1,,,,,,,,,0,,,84,0
11124,note_on,0,0,3,,,,,,,,,2,,,65,0
11124,note_on,4,0,3,,,,,,,,,2,,,69,0
11124,note_on,0,0,3,,,,,,,,,2,,,60,0
11130,note_on,0,0,1,,,,,,,,,0,,,81,75
11130,note_on,6,0,1,,,,,,,,,0,,,75,75
11134,note_on,0,0,1,,,,,,,,,0,,,75,0
11134,note_on,4,0,1,,,,,,,,,0,,,81,0
11139,control_change,79,0,4,,,,,,,,,3,64,0,,
11139,control_change,15,0,3,,,,,,,,,2,64,0,,
11139,note_on,5,0,1,,,,,,,,,0,,,72,75
11139,note_on,0,0,3,,,,,,,,,2,,,57,62
11139,note_on,0,0,3,,,,,,,,,2,,,53,62
11139,note_on,0,0,3,,,,,,,,,2,,,60,62
11143,note_on,4,0,1,,,,,,,,,0,,,72,0
11145,note_on,0,0,2,,,,,,,,,1,,,60,101
11145,note_on,105,0,2,,,,,,,,,1,,,72,0
11145,note_on,0,0,2,,,,,,,,,1,,,72,101
11145,note_on,0,0,2,,,,,,,,,1,,,60,0
11150,control_change,7,0,1,,,,,,,,,0,64,0,,
11150,note_on,0,0,1,,,,,,,,,0,,,63,75
11150,note_on,0,0,1,,,,,,,,,0,,,69,75
11159,note_on,0,0,3,,,,,,,,,2,,,57,0
11159,note_on,0,0,3,,,,,,,,,2,,,53,0
11159,note_on,20,0,3,,,,,,,,,2,,,60,0
11160,note_on,0,0,4,,,,,,,,,3,,,41,62
11160,control_change,21,0,4,,,,,,,,,3,64,127,,
11160,note_on,0,0,1,,,,,,,,,0,,,60,75
11160,note_on,0,0,1,,,,,,,,,0,,,63,0
11160,note_on,0,0,2,,,,,,,,,1,,,60,0
11160,note_on,0,0,2,,,,,,,,,1,,,60,101
11160,note_on,10,0,1,,,,,,,,,0,,,69,0
11160,note_on,0,0,4,,,,,,,,,3,,,29,62
11160,control_change,0,0,1,,,,,,,,,0,64,127,,
11160,control_change,0,0,1,,,,,,,,,0,64,127,,
11160,note_on,0,0,2,,,,,,,,,1,,,72,101
11160,note_on,15,0,2,,,,,,,,,1,,,72,0
11160,control_change,1,0,3,,,,,,,,,2,64,127,,
11164,note_on,4,0,1,,,,,,,,,0,,,60,0
11169,note_on,0,0,1,,,,,,,,,0,,,69,75
11169,note_on,5,0,1,,,,,,,,,0,,,63,75
11173,note_on,4,0,1,,,,,,,,,0,,,69,0
11173,note_on,0,0,1,,,,,,,,,0,,,63,0
11175,set_tempo,855,1,0,,,,,,2222222,,,,,,,
11180,note_on,0,0,2,,,,,,,,,1,,,71,101
11180,note_on,7,0,1,,,,,,,,,0,,,71,75
11180,note_on,0,0,3,,,,,,,,,2,,,59,62
11180,note_on,0,0,3,,,,,,,,,2,,,57,62
11180,note_on,20,0,4,,,,,,,,,3,,,41,0
11180,note_on,20,0,3,,,,,,,,,2,,,53,62
11180,note_on,0,0,2,,,,,,,,,1,,,59,101
11180,note_on,0,0,2,,,,,,,,,1,,,60,0
11180,note_on,20,0,2,,,,,,,,,1,,,72,0
11180,note_on,0,0,4,,,,,,,,,3,,,29,0
11184,note_on,0,0,3,,,,,,,,,2,,,57,0
11184,note_on,0,0,3,,,,,,,,,2,,,53,0
11184,note_on,4,0,3,,,,,,,,,2,,,59,0
11184,note_on,4,0,1,,,,,,,,,0,,,71,0
11190,set_tempo,15,1,0,,,,,,2400000,,,,,,,
11190,note_on,0,0,1,,,,,,,,,0,,,81,75
11190,note_on,6,0,1,,,,,,,,,0,,,75,75
11194,note_on,4,0,1,,,,,,,,,0,,,81,0
11194,note_on,0,0,1,,,,,,,,,0,,,75,0
11199,note_on,15,0,3,,,,,,,,,2,,,60,62
11199,note_on,5,0,1,,,,,,,,,0,,,84,75
11199,note_on,19,0,2,,,,,,,,,1,,,60,101
11199,note_on,0,0,3,,,,,,,,,2,,,72,62
11199,note_on,0,0,2,,,,,,,,,1,,,72,101
11200,note_on,0,0,2,,,,,,,,,1,,,59,0
11200,note_on,1,0,2,,,,,,,,,1,,,71,0
11203,note_on,4,0,1,,,,,,,,,0,,,84,0
11203,note_on,0,0,3,,,,,,,,,2,,,60,0
11203,note_on,4,0,3,,,,,,,,,2,,,72,0
11205,set_tempo,15,1,0,,,,,,2608696,,,,,,,
11210,note_on,0,0,1,,,,,,,,,0,,,93,75
11210,note_on,7,0,1,,,,,,,,,0,,,87,75
11214,note_on,4,0,1,,,,,,,,,0,,,93,0
11214,note_on,0,0,1,,,,,,,,,0,,,87,0
11219,note_on,0,0,2,,,,,,,,,1,,,72,0
11219,note_on,19,0,2,,,,,,,,,1,,,60,0
11220,note_on,1,0,2,,,,,,,,,1,,,63,119
11220,note_on,6,0,1,,,,,,,,,0,,,101,75
11220,note_on,17,0,3,,,,,,,,,2,,,63,62
11220,note_on,0,0,3,,,,,,,,,2,,,75,62
11220,note_on,0,0,2,,,,,,,,,1,,,75,127
11220,set_tempo,15,1,0,,,,,,2857143,,,,,,,
11224,note_on,4,0,1,,,,,,,,,0,,,101,0
11224,note_on,0,0,3,,,,,,,,,2,,,63,0
11224,note_on,4,0,3,,,,,,,,,2,,,75,0
11229,note_on,5,0,1,,,,,,,,,0,,,87,75
11229,note_on,0,0,1,,,,,,,,,0,,,93,75
11233,note_on,0,0,1,,,,,,,,,0,,,87,0
11233,note_on,4,0,1,,,,,,,,,0,,,93,0
11235,set_tempo,15,1,0,,,,,,3157895,,,,,,,
11240,note_on,20,0,2,,,,,,,,,1,,,75,0
11240,note_on,7,0,1,,,,,,,,,0,,,84,75
11240,note_on,16,0,3,,,,,,,,,2,,,62,62
11240,note_on,0,0,2,,,,,,,,,1,,,63,0
11240,note_on,0,0,2,,,,,,,,,1,,,62,119
11240,note_on,0,0,2,,,,,,,,,1,,,74,127
11240,note_on,0,0,3,,,,,,,,,2,,,65,62
11240,note_on,0,0,3,,,,,,,,,2,,,74,62
11244,note_on,0,0,3,,,,,,,,,2,,,65,0
11244,note_on,4,0,3,,,,,,,,,2,,,74,0
11244,note_on,4,0,1,,,,,,,,,0,,,84,0
11244,note_on,0,0,3,,,,,,,,,2,,,62,0
11250,note_on,6,0,1,,,,,,,,,0,,,75,75
11250,set_tempo,15,1,0,,,,,,3529412,,,,,,,
11250,note_on,0,0,1,,,,,,,,,0,,,81,75
11254,note_on,4,0,1,,,,,,,,,0,,,81,0
11254,note_on,0,0,1,,,,,,,,,0,,,75,0
11259,note_on,0,0,2,,,,,,,,,1,,,72,127
11259,note_on,19,0,2,,,,,,,,,1,,,60,119
11259,note_on,0,0,3,,,,,,,,,2,,,63,62
11259,note_on,0,0,3,,,,,,,,,2,,,72,62
11259,note_on,0,0,3,,,,,,,,,2,,,60,62
11259,control_change,15,0,3,,,,,,,,,2,64,0,,
11259,note_on,5,0,1,,,,,,,,,0,,,69,75
11259,control_change,79,0,4,,,,,,,,,3,64,0,,
11260,note_on,1,0,2,,,,,,,,,1,,,74,0
11260,note_on,0,0,2,,,,,,,,,1,,,62,0
11263,note_on,4,0,1,,,,,,,,,0,,,69,0
11265,set_tempo,15,1,0,,,,,,4000000,,,,,,,
11270,control_change,7,0,1,,,,,,,,,0,64,0,,
11270,note_on,0,0,1,,,,,,,,,0,,,65,75
11279,note_on,20,0,3,,,,,,,,,2,,,72,0
11279,note_on,19,0,2,,,,,,,,,1,,,60,0
11279,note_on,0,0,3,,,,,,,,,2,,,63,0
11279,note_on,0,0,3,,,,,,,,,2,,,60,0
11279,note_on,0,0,2,,,,,,,,,1,,,72,0
11280,note_on,0,0,4,,,,,,,,,3,,,31,62
11280,control_change,0,0,1,,,,,,,,,0,64,127,,
11280,note_on,10,0,1,,,,,,,,,0,,,65,0
11280,control_change,21,0,4,,,,,,,,,3,64,127,,
11280,note_on,1,0,2,,,,,,,,,1,,,58,101
11280,note_on,0,0,4,,,,,,,,,3,,,43,62
11280,note_on,0,0,1,,,,,,,,,0,,,58,75
11280,control_change,1,0,3,,,,,,,,,2,64,127,,
11280,note_on,0,0,2,,,,,,,,,1,,,70,101
11280,set_tempo,15,1,0,,,,,,2142857,,,,,,,
11284,note_on,4,0,1,,,,,,,,,0,,,58,0
11289,note_on,5,0,1,,,,,,,,,0,,,62,75
11289,note_on,0,0,1,,,,,,,,,0,,,67,75
11293,note_on,0,0,1,,,,,,,,,0,,,62,0
11293,note_on,4,0,1,,,,,,,,,0,,,67,0
11300,note_on,0,0,4,,,,,,,,,3,,,31,0
11300,note_on,20,0,4,,,,,,,,,3,,,43,0
11300,note_on,0,0,3,,,,,,,,,2,,,58,62
11300,note_on,20,0,3,,,,,,,,,2,,,50,62
11300,note_on,0,0,3,,,,,,,,,2,,,55,62
11300,note_on,7,0,1,,,,,,,,,0,,,70,75
11304,note_on,4,0,1,,,,,,,,,0,,,70,0
11304,note_on,4,0,3,,,,,,,,,2,,,58,0
11304,note_on,0,0,3,,,,,,,,,2,,,55,0
11304,note_on,0,0,3,,,,,,,,,2,,,50,0
11310,note_on,6,0,1,,,,,,,,,0,,,74,75
11310,note_on,0,0,1,,,,,,,,,0,,,79,75
11314,note_on,0,0,1,,,,,,,,,0,,,74,0
11314,note_on,4,0,1,,,,,,,,,0,,,79,0
11319,note_on,5,0,1,,,,,,,,,0,,,82,75
11319,note_on,0,0,3,,,,,,,,,2,,,62,62
11319,note_on,0,0,3,,,,,,,,,2,,,58,62
11319,note_on,15,0,3,,,,,,,,,2,,,55,62
11323,note_on,4,0,3,,,,,,,,,2,,,62,0
11323,note_on,0,0,3,,,,,,,,,2,,,55,0
11323,note_on,0,0,3,,,,,,,,,2,,,58,0
11323,note_on,4,0,1,,,,,,,,,0,,,82,0
11330,note_on,7,0,1,,,,,,,,,0,,,86,75
11330,note_on,0,0,1,,,,,,,,,0,,,91,75
11334,note_on,4,0,1,,,,,,,,,0,,,91,0
11334,note_on,0,0,1,,,,,,,,,0,,,86,0
11340,note_on,0,0,3,,,,,,,,,2,,,67,62
11340,note_on,0,0,3,,,,,,,,,2,,,70,62
11340,note_on,6,0,1,,,,,,,,,0,,,94,75
11340,note_on,17,0,3,,,,,,,,,2,,,62,62
11344,note_on,4,0,3,,,,,,,,,2,,,70,0
11344,note_on,4,0,1,,,,,,,,,0,,,94,0
11344,note_on,0,0,3,,,,,,,,,2,,,62,0
11344,note_on,0,0,3,,,,,,,,,2,,,67,0
11349,note_on,0,0,1,,,,,,,,,0,,,91,75
11349,note_on,5,0,1,,,,,,,,,0,,,86,75
11353,note_on,0,0,1,,,,,,,,,0,,,86,0
11353,note_on,4,0,1,,,,,,,,,0,,,91,0
11360,note_on,0,0,3,,,,,,,,,2,,,67,62
11360,note_on,0,0,3,,,,,,,,,2,,,62,62
11360,note_on,16,0,3,,,,,,,,,2,,,58,62
11360,note_on,7,0,1,,,,,,,,,0,,,82,75
11364,note_on,0,0,3,,,,,,,,,2,,,62,0
11364,note_on,4,0,3,,,,,,,,,2,,,67,0
11364,note_on,4,0,1,,,,,,,,,0,,,82,0
11364,note_on,0,0,3,,,,,,,,,2,,,58,0
11370,note_on,6,0,1,,,,,,,,,0,,,74,75
11370,note_on,0,0,1,,,,,,,,,0,,,79,75
11374,note_on,4,0,1,,,,,,,,,0,,,79,0
11374,note_on,0,0,1,,,,,,,,,0,,,74,0
11379,note_on,5,0,1,,,,,,,,,0,,,70,75
11379,note_on,0,0,3,,,,,,,,,2,,,62,62
11379,note_on,0,0,3,,,,,,,,,2,,,58,62
11379,note_on,15,0,3,,,,,,,,,2,,,55,62
11383,note_on,4,0,3,,,,,,,,,2,,,62,0
11383,note_on,0,0,3,,,,,,,,,2,,,58,0
11383,note_on,0,0,3,,,,,,,,,2,,,55,0
11383,note_on,4,0,1,,,,,,,,,0,,,70,0
11390,note_on,7,0,1,,,,,,,,,0,,,62,75
11390,note_on,0,0,1,,,,,,,,,0,,,67,75
11394,note_on,0,0,1,,,,,,,,,0,,,62,0
11394,note_on,4,0,1,,,,,,,,,0,,,67,0
11400,note_on,6,0,1,,,,,,,,,0,,,58,75
11400,note_on,120,0,2,,,,,,,,,1,,,70,0
11400,note_on,0,0,2,,,,,,,,,1,,,58,0
11400,note_on,0,0,4,,,,,,,,,3,,,43,62
11400,note_on,100,0,4,,,,,,,,,3,,,31,62
11404,note_on,4,0,1,,,,,,,,,0,,,58,0
11409,note_on,0,0,1,,,,,,,,,0,,,67,75
11409,note_on,5,0,1,,,,,,,,,0,,,62,75
11413,note_on,4,0,1,,,,,,,,,0,,,67,0
11413,note_on,0,0,1,,,,,,,,,0,,,62,0
11420,note_on,0,0,3,,,,,,,,,2,,,55,62
11420,note_on,37,0,3,,,,,,,,,2,,,50,62
11420,note_on,0,0,4,,,,,,,,,3,,,31,0
11420,note_on,0,0,3,,,,,,,,,2,,,58,62
11420,note_on,20,0,4,,,,,,,,,3,,,43,0
11420,note_on,7,0,1,,,,,,,,,0,,,70,75
11424,note_on,0,0,3,,,,,,,,,2,,,50,0
11424,note_on,4,0,3,,,,,,,,,2,,,58,0
11424,note_on,4,0,1,,,,,,,,,0,,,70,0
11424,note_on,0,0,3,,,,,,,,,2,,,55,0
11430,note_on,6,0,1,,,,,,,,,0,,,74,75
11430,note_on,0,0,1,,,,,,,,,0,,,79,75
11434,note_on,4,0,1,,,,,,,,,0,,,79,0
11434,note_on,0,0,1,,,,,,,,,0,,,74,0
11439,note_on,0,0,3,,,,,,,,,2,,,62,62
11439,note_on,0,0,3,,,,,,,,,2,,,58,62
11439,note_on,5,0,1,,,,,,,,,0,,,82,75
11439,note_on,15,0,3,,,,,,,,,2,,,55,62
11443,note_on,0,0,3,,,,,,,,,2,,,55,0
11443,note_on,0,0,3,,,,,,,,,2,,,58,0
11443,note_on,4,0,3,,,,,,,,,2,,,62,0
11443,note_on,4,0,1,,,,,,,,,0,,,82,0
11450,note_on,0,0,1,,,,,,,,,0,,,91,75
11450,note_on,7,0,1,,,,,,,,,0,,,86,75
11454,note_on,4,0,1,,,,,,,,,0,,,91,0
11454,note_on,0,0,1,,,,,,,,,0,,,86,0
11460,note_on,17,0,3,,,,,,,,,2,,,58,62
11460,note_on,60,0,2,,,,,,,,,1,,,58,101
11460,note_on,0,0,3,,,,,,,,,2,,,70,62
11460,note_on,6,0,1,,,,,,,,,0,,,94,75
11460,note_on,0,0,2,,,,,,,,,1,,,70,101
11464,note_on,4,0,3,,,,,,,,,2,,,70,0
11464,note_on,0,0,3,,,,,,,,,2,,,58,0
11464,note_on,4,0,1,,,,,,,,,0,,,94,0
11469,note_on,5,0,1,,,,,,,,,0,,,86,75
11469,note_on,0,0,1,,,,,,,,,0,,,91,75
11473,note_on,4,0,1,,,,,,,,,0,,,91,0
11473,note_on,0,0,1,,,,,,,,,0,,,86,0
11480,note_on,7,0,1,,,,,,,,,0,,,82,75
11480,note_on,16,0,3,,,,,,,,,2,,,62,62
11480,note_on,0,0,3,,,,,,,,,2,,,67,62
11484,note_on,4,0,1,,,,,,,,,0,,,82,0
11484,note_on,4,0,3,,,,,,,,,2,,,67,0
11484,note_on,0,0,3,,,,,,,,,2,,,62,0
11490,note_on,6,0,1,,,,,,,,,0,,,74,75
11490,note_on,0,0,1,,,,,,,,,0,,,79,75
11494,note_on,0,0,1,,,,,,,,,0,,,74,0
11494,note_on,4,0,1,,,,,,,,,0,,,79,0
11499,control_change,79,0,4,,,,,,,,,3,64,0,,
11499,control_change,15,0,3,,,,,,,,,2,64,0,,
11499,note_on,5,0,1,,,,,,,,,0,,,70,75
11499,note_on,0,0,3,,,,,,,,,2,,,62,62
11499,note_on,0,0,3,,,,,,,,,2,,,58,62
11503,note_on,4,0,1,,,,,,,,,0,,,70,0
11510,control_change,7,0,1,,,,,,,,,0,64,0,,
11510,note_on,0,0,1,,,,,,,,,0,,,67,75
11510,note_on,0,0,1,,,,,,,,,0,,,62,75
11519,note_on,20,0,3,,,,,,,,,2,,,62,0
11519,note_on,0,0,3,,,,,,,,,2,,,58,0
11520,note_on,60,0,2,,,,,,,,,1,,,70,0
11520,note_on,0,0,2,,,,,,,,,1,,,58,0
11520,note_on,0,0,2,,,,,,,,,1,,,60,119
11520,note_on,10,0,1,,,,,,,,,0,,,67,0
11520,note_on,0,0,4,,,,,,,,,3,,,41,62
11520,note_on,0,0,4,,,,,,,,,3,,,29,62
11520,note_on,0,0,2,,,,,,,,,1,,,72,127
11520,control_change,0,0,1,,,,,,,,,0,64,127,,
11520,note_on,0,0,1,,,,,,,,,0,,,60,75
11520,note_on,0,0,1,,,,,,,,,0,,,62,0
11520,control_change,1,0,3,,,,,,,,,2,64,127,,
11520,control_change,21,0,4,,,,,,,,,3,64,127,,
11524,note_on,4,0,1,,,,,,,,,0,,,60,0
11529,note_on,0,0,1,,,,,,,,,0,,,69,75
11529,note_on,5,0,1,,,,,,,,,0,,,65,75
11533,note_on,4,0,1,,,,,,,,,0,,,69,0
11533,note_on,0,0,1,,,,,,,,,0,,,65,0
11540,note_on,7,0,1,,,,,,,,,0,,,72,75
11540,note_on,0,0,3,,,,,,,,,2,,,60,62
11540,note_on,0,0,3,,,,,,,,,2,,,57,62
11540,note_on,20,0,3,,,,,,,,,2,,,53,62
11540,note_on,0,0,4,,,,,,,,,3,,,29,0
11540,note_on,20,0,4,,,,,,,,,3,,,41,0
11544,note_on,4,0,3,,,,,,,,,2,,,60,0
11544,note_on,0,0,3,,,,,,,,,2,,,53,0
11544,note_on,4,0,1,,,,,,,,,0,,,72,0
11544,note_on,0,0,3,,,,,,,,,2,,,57,0
11550,note_on,6,0,1,,,,,,,,,0,,,77,75
11550,note_on,0,0,1,,,,,,,,,0,,,81,75
11554,note_on,0,0,1,,,,,,,,,0,,,77,0
11554,note_on,4,0,1,,,,,,,,,0,,,81,0
11559,note_on,15,0,3,,,,,,,,,2,,,57,62
11559,note_on,0,0,3,,,,,,,,,2,,,60,62
11559,note_on,0,0,3,,,,,,,,,2,,,65,62
11559,note_on,5,0,1,,,,,,,,,0,,,84,75
11563,note_on,4,0,3,,,,,,,,,2,,,65,0
11563,note_on,4,0,1,,,,,,,,,0,,,84,0
11563,note_on,0,0,3,,,,,,,,,2,,,60,0
11563,note_on,0,0,3,,,,,,,,,2,,,57,0
11570,note_on,7,0,1,,,,,,,,,0,,,89,75
11570,note_on,0,0,1,,,,,,,,,0,,,93,75
11574,note_on,4,0,1,,,,,,,,,0,,,93,0
11574,note_on,0,0,1,,,,,,,,,0,,,89,0
11580,note_on,17,0,3,,,,,,,,,2,,,65,62
11580,note_on,0,0,3,,,,,,,,,2,,,69,62
11580,note_on,6,0,1,,,,,,,,,0,,,96,75
11580,note_on,0,0,3,,,,,,,,,2,,,72,62
11584,note_on,0,0,3,,,,,,,,,2,,,65,0
11584,note_on,4,0,1,,,,,,,,,0,,,96,0
11584,note_on,0,0,3,,,,,,,,,2,,,69,0
11584,note_on,4,0,3,,,,,,,,,2,,,72,0
11589,note_on,0,0,1,,,,,,,,,0,,,93,75
11589,note_on,5,0,1,,,,,,,,,0,,,89,75
11593,note_on,0,0,1,,,,,,,,,0,,,89,0
11593,note_on,4,0,1,,,,,,,,,0,,,93,0
11600,note_on,7,0,1,,,,,,,,,0,,,84,75
11600,note_on,16,0,3,,,,,,,,,2,,,60,62
11600,note_on,0,0,3,,,,,,,,,2,,,65,62
11600,note_on,0,0,3,,,,,,,,,2,,,69,62
11604,note_on,0,0,3,,,,,,,,,2,,,65,0
11604,note_on,4,0,1,,,,,,,,,0,,,84,0
11604,note_on,0,0,3,,,,,,,,,2,,,60,0
11604,note_on,4,0,3,,,,,,,,,2,,,69,0
11610,note_on,6,0,1,,,,,,,,,0,,,77,75
11610,note_on,0,0,1,,,,,,,,,0,,,81,75
11614,note_on,4,0,1,,,,,,,,,0,,,81,0
11614,note_on,0,0,1,,,,,,,,,0,,,77,0
11619,note_on,0,0,2,,,,,,,,,1,,,60,101
11619,note_on,0,0,2,,,,,,,,,1,,,72,101
11619,control_change,15,0,3,,,,,,,,,2,64,0,,
11619,control_change,79,0,4,,,,,,,,,3,64,0,,
11619,note_on,0,0,3,,,,,,,,,2,,,57,62
11619,note_on,0,0,3,,,,,,,,,2,,,60,62
11619,note_on,5,0,1,,,,,,,,,0,,,72,75
11619,control_change,99,0,2,,,,,,,,,1,64,0,,
11619,note_on,0,0,3,,,,,,,,,2,,,53,62
11620,note_on,0,0,2,,,,,,,,,1,,,60,0
11620,note_on,1,0,2,,,,,,,,,1,,,72,0
11623,note_on,4,0,1,,,,,,,,,0,,,72,0
11630,control_change,7,0,1,,,,,,,,,0,64,0,,
11630,note_on,0,0,1,,,,,,,,,0,,,69,75
11630,note_on,0,0,1,,,,,,,,,0,,,65,75
11639,note_on,0,0,2,,,,,,,,,1,,,72,0
11639,note_on,20,0,3,,,,,,,,,2,,,60,0
11639,note_on,0,0,3,,,,,,,,,2,,,53,0
11639,note_on,0,0,3,,,,,,,,,2,,,57,0
11639,note_on,19,0,2,,,,,,,,,1,,,60,0
11640,note_on,0,0,1,,,,,,,,,0,,,62,88
11640,control_change,1,0,3,,,,,,,,,2,64,127,,
11640,note_on,10,0,1,,,,,,,,,0,,,69,0
11640,note_on,0,0,1,,,,,,,,,0,,,65,0
11640,control_change,21,0,4,,,,,,,,,3,64,127,,
11640,note_on,0,0,2,,,,,,,,,1,,,74,127
11640,note_on,1,0,2,,,,,,,,,1,,,62,119
11640,control_change,0,0,1,,,,,,,,,0,64,127,,
11640,note_on,0,0,4,,,,,,,,,3,,,38,75
11640,note_on,0,0,4,,,,,,,,,3,,,26,75
11644,note_on,4,0,1,,,,,,,,,0,,,62,0
11649,note_on,0,0,1,,,,,,,,,0,,,69,88
11649,note_on,5,0,1,,,,,,,,,0,,,66,88
11653,note_on,0,0,1,,,,,,,,,0,,,66,0
11653,note_on,4,0,1,,,,,,,,,0,,,69,0
11660,note_on,0,0,4,,,,,,,,,3,,,26,0
11660,note_on,0,0,3,,,,,,,,,2,,,54,75
11660,note_on,20,0,4,,,,,,,,,3,,,38,0
11660,note_on,20,0,3,,,,,,,,,2,,,50,75
11660,note_on,7,0,1,,,,,,,,,0,,,74,88
11660,note_on,0,0,3,,,,,,,,,2,,,57,75
11664,note_on,0,0,3,,,,,,,,,2,,,54,0
11664,note_on,4,0,3,,,,,,,,,2,,,57,0
11664,note_on,0,0,3,,,,,,,,,2,,,50,0
11664,note_on,4,0,1,,,,,,,,,0,,,74,0
11670,note_on,6,0,1,,,,,,,,,0,,,78,88
11670,note_on,0,0,1,,,,,,,,,0,,,81,88
11674,note_on,0,0,1,,,,,,,,,0,,,78,0
11674,note_on,4,0,1,,,,,,,,,0,,,81,0
11679,note_on,0,0,3,,,,,,,,,2,,,62,75
11679,note_on,15,0,3,,,,,,,,,2,,,54,75
11679,note_on,0,0,3,,,,,,,,,2,,,57,75
11679,note_on,5,0,1,,,,,,,,,0,,,86,88
11683,note_on,4,0,1,,,,,,,,,0,,,86,0
11683,note_on,0,0,3,,,,,,,,,2,,,57,0
11683,note_on,0,0,3,,,,,,,,,2,,,54,0
11683,note_on,4,0,3,,,,,,,,,2,,,62,0
11690,note_on,7,0,1,,,,,,,,,0,,,90,88
11690,note_on,0,0,1,,,,,,,,,0,,,93,88
11694,note_on,0,0,1,,,,,,,,,0,,,90,0
11694,note_on,4,0,1,,,,,,,,,0,,,93,0
11700,note_on,0,0,3,,,,,,,,,2,,,74,75
11700,note_on,6,0,1,,,,,,,,,0,,,98,88
11700,note_on,17,0,3,,,,,,,,,2,,,66,75
11700,note_on,0,0,3,,,,,,,,,2,,,69,75
11704,note_on,4,0,3,,,,,,,,,2,,,74,0
11704,note_on,4,0,1,,,,,,,,,0,,,98,0
11704,note_on,0,0,3,,,,,,,,,2,,,69,0
11704,note_on,0,0,3,,,,,,,,,2,,,66,0
11709,note_on,5,0,1,,,,,,,,,0,,,90,88
11709,note_on,0,0,1,,,,,,,,,0,,,93,88
11713,note_on,0,0,1,,,,,,,,,0,,,90,0
11713,note_on,4,0,1,,,,,,,,,0,,,93,0
11720,note_on,16,0,3,,,,,,,,,2,,,62,75
11720,note_on,0,0,3,,,,,,,,,2,,,66,75
11720,note_on,0,0,3,,,,,,,,,2,,,69,75
11720,note_on,7,0,1,,,,,,,,,0,,,86,88
11724,note_on,0,0,3,,,,,,,,,2,,,62,0
11724,note_on,0,0,3,,,,,,,,,2,,,66,0
11724,note_on,4,0,3,,,,,,,,,2,,,69,0
11724,note_on,4,0,1,,,,,,,,,0,,,86,0
11730,note_on,6,0,1,,,,,,,,,0,,,78,88
11730,note_on,0,0,1,,,,,,,,,0,,,81,88
11734,note_on,0,0,1,,,,,,,,,0,,,78,0
11734,note_on,4,0,1,,,,,,,,,0,,,81,0
11739,note_on,0,0,3,,,,,,,,,2,,,54,75
11739,control_change,79,0,4,,,,,,,,,3,64,0,,
11739,control_change,15,0,3,,,,,,,,,2,64,0,,
11739,note_on,0,0,3,,,,,,,,,2,,,57,75
11739,note_on,0,0,3,,,,,,,,,2,,,62,75
11739,note_on,5,0,1,,,,,,,,,0,,,74,88
11743,note_on,4,0,1,,,,,,,,,0,,,74,0
11745,note_on,105,0,2,,,,,,,,,1,,,74,0
11745,note_on,0,0,2,,,,,,,,,1,,,62,0
11745,note_on,0,0,2,,,,,,,,,1,,,72,101
11745,note_on,0,0,2,,,,,,,,,1,,,60,101
11750,control_change,7,0,1,,,,,,,,,0,64,0,,
11750,note_on,0,0,1,,,,,,,,,0,,,69,88
11750,note_on,0,0,1,,,,,,,,,0,,,66,88
11752,note_on,0,0,2,,,,,,,,,1,,,74,101
11752,note_on,7,0,2,,,,,,,,,1,,,62,101
11753,note_on,1,0,2,,,,,,,,,1,,,72,0
11753,note_on,0,0,2,,,,,,,,,1,,,60,0
11759,note_on,0,0,3,,,,,,,,,2,,,54,0
11759,note_on,20,0,3,,,,,,,,,2,,,62,0
11759,note_on,0,0,3,,,,,,,,,2,,,57,0
11760,control_change,21,0,4,,,,,,,,,3,64,127,,
11760,note_on,10,0,1,,,,,,,,,0,,,69,0
11760,control_change,1,0,3,,,,,,,,,2,64,127,,
11760,note_on,7,0,2,,,,,,,,,1,,,62,0
11760,note_on,0,0,4,,,,,,,,,3,,,24,88
11760,note_on,0,0,2,,,,,,,,,1,,,74,0
11760,note_on,0,0,1,,,,,,,,,0,,,65,101
11760,note_on,0,0,2,,,,,,,,,1,,,77,127
11760,note_on,0,0,1,,,,,,,,,0,,,66,0
11760,note_on,0,0,2,,,,,,,,,1,,,65,119
11760,control_change,0,0,1,,,,,,,,,0,64,127,,
11760,note_on,0,0,4,,,,,,,,,3,,,36,88
11764,note_on,4,0,1,,,,,,,,,0,,,65,0
11769,note_on,5,0,1,,,,,,,,,0,,,67,101
11769,note_on,0,0,1,,,,,,,,,0,,,72,101
11773,note_on,4,0,1,,,,,,,,,0,,,72,0
11773,note_on,0,0,1,,,,,,,,,0,,,67,0
11780,note_on,0,0,3,,,,,,,,,2,,,55,88
11780,note_on,0,0,3,,,,,,,,,2,,,60,88
11780,note_on,20,0,4,,,,,,,,,3,,,36,0
11780,note_on,0,0,4,,,,,,,,,3,,,24,0
11780,note_on,20,0,3,,,,,,,,,2,,,53,88
11780,note_on,7,0,1,,,,,,,,,0,,,77,101
11784,note_on,0,0,3,,,,,,,,,2,,,53,0
11784,note_on,0,0,3,,,,,,,,,2,,,55,0
11784,note_on,4,0,1,,,,,,,,,0,,,77,0
11784,note_on,4,0,3,,,,,,,,,2,,,60,0
11790,note_on,6,0,1,,,,,,,,,0,,,79,101
11790,note_on,0,0,1,,,,,,,,,0,,,84,101
11794,note_on,0,0,1,,,,,,,,,0,,,79,0
11794,note_on,4,0,1,,,,,,,,,0,,,84,0
11799,note_on,5,0,1,,,,,,,,,0,,,89,101
11799,note_on,15,0,3,,,,,,,,,2,,,55,88
11799,note_on,0,0,3,,,,,,,,,2,,,65,88
11799,note_on,0,0,3,,,,,,,,,2,,,60,88
11803,note_on,4,0,3,,,,,,,,,2,,,65,0
11803,note_on,0,0,3,,,,,,,,,2,,,60,0
11803,note_on,0,0,3,,,,,,,,,2,,,55,0
11803,note_on,4,0,1,,,,,,,,,0,,,89,0
11810,note_on,7,0,1,,,,,,,,,0,,,91,101
11810,note_on,0,0,1,,,,,,,,,0,,,96,101
11814,note_on,0,0,1,,,,,,,,,0,,,91,0
11814,note_on,4,0,1,,,,,,,,,0,,,96,0
11820,note_on,60,0,2,,,,,,,,,1,,,77,0
11820,note_on,17,0,3,,,,,,,,,2,,,63,88
11820,note_on,0,0,2,,,,,,,,,1,,,65,0
11820,note_on,6,0,1,,,,,,,,,0,,,99,101
11820,note_on,0,0,3,,,,,,,,,2,,,75,88
11820,note_on,0,0,2,,,,,,,,,1,,,63,119
11820,note_on,0,0,2,,,,,,,,,1,,,75,127
11824,note_on,4,0,1,,,,,,,,,0,,,99,0
11824,note_on,0,0,3,,,,,,,,,2,,,63,0
11824,note_on,4,0,3,,,,,,,,,2,,,75,0
11829,note_on,0,0,1,,,,,,,,,0,,,96,101
11829,note_on,5,0,1,,,,,,,,,0,,,91,101
11833,note_on,0,0,1,,,,,,,,,0,,,91,0
11833,note_on,4,0,1,,,,,,,,,0,,,96,0
11840,note_on,16,0,3,,,,,,,,,2,,,67,88
11840,note_on,0,0,3,,,,,,,,,2,,,72,88
11840,note_on,7,0,1,,,,,,,,,0,,,87,101
11844,note_on,4,0,1,,,,,,,,,0,,,87,0
11844,note_on,0,0,3,,,,,,,,,2,,,67,0
11844,note_on,4,0,3,,,,,,,,,2,,,72,0
11850,note_on,0,0,1,,,,,,,,,0,,,84,101
11850,note_on,6,0,1,,,,,,,,,0,,,79,101
11854,note_on,4,0,1,,,,,,,,,0,,,84,0
11854,note_on,0,0,1,,,,,,,,,0,,,79,0
11859,control_change,15,0,3,,,,,,,,,2,64,0,,
11859,control_change,79,0,4,,,,,,,,,3,64,0,,
11859,note_on,0,0,3,,,,,,,,,2,,,67,88
11859,note_on,0,0,3,,,,,,,,,2,,,63,88
11859,note_on,5,0,1,,,,,,,,,0,,,75,101
11863,note_on,4,0,1,,,,,,,,,0,,,75,0
11870,control_change,7,0,1,,,,,,,,,0,64,0,,
11870,note_on,0,0,1,,,,,,,,,0,,,67,101
11870,note_on,0,0,1,,,,,,,,,0,,,72,101
11879,note_on,0,0,3,,,,,,,,,2,,,63,0
11879,note_on,20,0,3,,,,,,,,,2,,,67,0
11880,note_on,0,0,1,,,,,,,,,0,,,63,101
11880,note_on,0,0,4,,,,,,,,,3,,,36,88
11880,note_on,0,0,4,,,,,,,,,3,,,24,88
11880,control_change,21,0,4,,,,,,,,,3,64,127,,
11880,note_on,0,0,1,,,,,,,,,0,,,67,0
11880,control_change,1,0,3,,,,,,,,,2,64,127,,
11880,note_on,10,0,1,,,,,,,,,0,,,72,0
11880,control_change,0,0,1,,,,,,,,,0,64,127,,
11884,note_on,4,0,1,,,,,,,,,0,,,63,0
11889,note_on,0,0,1,,,,,,,,,0,,,72,101
11889,note_on,5,0,1,,,,,,,,,0,,,67,101
11893,note_on,4,0,1,,,,,,,,,0,,,72,0
11893,note_on,0,0,1,,,,,,,,,0,,,67,0
11900,note_on,0,0,4,,,,,,,,,3,,,24,0
11900,note_on,7,0,1,,,,,,,,,0,,,75,101
11900,note_on,20,0,3,,,,,,,,,2,,,51,88
11900,note_on,0,0,3,,,,,,,,,2,,,55,88
11900,note_on,20,0,4,,,,,,,,,3,,,36,0
11900,note_on,0,0,3,,,,,,,,,2,,,60,88
11904,note_on,4,0,1,,,,,,,,,0,,,75,0
11904,note_on,4,0,3,,,,,,,,,2,,,60,0
11904,note_on,0,0,3,,,,,,,,,2,,,55,0
11904,note_on,0,0,3,,,,,,,,,2,,,51,0
11910,note_on,0,0,1,,,,,,,,,0,,,84,101
11910,note_on,6,0,1,,,,,,,,,0,,,79,101
11914,note_on,4,0,1,,,,,,,,,0,,,84,0
11914,note_on,0,0,1,,,,,,,,,0,,,79,0
11919,note_on,0,0,3,,,,,,,,,2,,,63,88
11919,note_on,5,0,1,,,,,,,,,0,,,87,101
11919,note_on,15,0,3,,,,,,,,,2,,,55,88
11919,note_on,0,0,3,,,,,,,,,2,,,60,88
11923,note_on,0,0,3,,,,,,,,,2,,,60,0
11923,note_on,4,0,3,,,,,,,,,2,,,63,0
11923,note_on,0,0,3,,,,,,,,,2,,,55,0
11923,note_on,4,0,1,,,,,,,,,0,,,87,0
11930,note_on,0,0,1,,,,,,,,,0,,,96,101
11930,note_on,7,0,1,,,,,,,,,0,,,91,101
11934,note_on,0,0,1,,,,,,,,,0,,,91,0
11934,note_on,4,0,1,,,,,,,,,0,,,96,0
11940,note_on,0,0,2,,,,,,,,,1,,,67,127
11940,note_on,120,0,2,,,,,,,,,1,,,75,0
11940,note_on,0,0,2,,,,,,,,,1,,,63,0
11940,note_on,6,0,1,,,,,,,,,0,,,99,101
11940,note_on,17,0,3,,,,,,,,,2,,,67,88
11944,note_on,4,0,3,,,,,,,,,2,,,67,0
11944,note_on,4,0,1,,,,,,,,,0,,,99,0
11949,note_on,0,0,1,,,,,,,,,0,,,96,101
11949,note_on,5,0,1,,,,,,,,,0,,,91,101
11953,note_on,4,0,1,,,,,,,,,0,,,96,0
11953,note_on,0,0,1,,,,,,,,,0,,,91,0
11960,note_on,7,0,1,,,,,,,,,0,,,87,101
11960,note_on,0,0,3,,,,,,,,,2,,,63,88
11960,note_on,16,0,3,,,,,,,,,2,,,60,88
11964,note_on,0,0,3,,,,,,,,,2,,,60,0
11964,note_on,4,0,1,,,,,,,,,0,,,87,0
11964,note_on,4,0,3,,,,,,,,,2,,,63,0
11970,note_on,6,0,1,,,,,,,,,0,,,79,101
11970,note_on,0,0,1,,,,,,,,,0,,,84,101
11974,note_on,0,0,1,,,,,,,,,0,,,79,0
11974,note_on,4,0,1,,,,,,,,,0,,,84,0
11979,note_on,0,0,3,,,,,,,,,2,,,55,88
11979,control_change,79,0,4,,,,,,,,,3,64,0,,
11979,note_on,5,0,1,,,,,,,,,0,,,75,101
11979,control_change,15,0,3,,,,,,,,,2,64,0,,
11983,note_on,4,0,1,,,,,,,,,0,,,75,0
11990,note_on,0,0,1,,,,,,,,,0,,,67,101
11990,control_change,7,0,1,,,,,,,,,0,64,0,,
11999,note_on,20,0,3,,,,,,,,,2,,,55,0
12000,control_change,1,0,3,,,,,,,,,2,64,127,,
12000,note_on,10,0,1,,,,,,,,,0,,,67,0
12000,note_on,60,0,2,,,,,,,,,1,,,67,0
12000,note_on,0,0,1,,,,,,,,,0,,,60,101
12000,note_on,0,0,4,,,,,,,,,3,,,39,88
12000,note_on,0,0,4,,,,,,,,,3,,,27,88
12000,note_on,0,0,2,,,,,,,,,1,,,72,127
12000,note_on,0,0,2,,,,,,,,,1,,,60,119
12000,control_change,0,0,1,,,,,,,,,0,64,127,,
12000,control_change,21,0,4,,,,,,,,,3,64,127,,
12004,note_on,4,0,1,,,,,,,,,0,,,60,0
12009,note_on,5,0,1,,,,,,,,,0,,,63,101
12009,note_on,0,0,1,,,,,,,,,0,,,67,101
12013,note_on,0,0,1,,,,,,,,,0,,,63,0
12013,note_on,4,0,1,,,,,,,,,0,,,67,0
12020,note_on,20,0,4,,,,,,,,,3,,,39,0
12020,note_on,0,0,3,,,,,,,,,2,,,55,88
12020,note_on,0,0,3,,,,,,,,,2,,,60,88
12020,note_on,0,0,4,,,,,,,,,3,,,27,0
12020,note_on,7,0,1,,,,,,,,,0,,,72,101
12020,note_on,20,0,3,,,,,,,,,2,,,51,88
12024,note_on,0,0,3,,,,,,,,,2,,,51,0
12024,note_on,4,0,1,,,,,,,,,0,,,72,0
12024,note_on,0,0,3,,,,,,,,,2,,,55,0
12024,note_on,4,0,3,,,,,,,,,2,,,60,0
12030,note_on,0,0,1,,,,,,,,,0,,,79,101
12030,note_on,6,0,1,,,,,,,,,0,,,75,101
12034,note_on,0,0,1,,,,,,,,,0,,,75,0
12034,note_on,4,0,1,,,,,,,,,0,,,79,0
12039,note_on,15,0,3,,,,,,,,,2,,,55,88
12039,note_on,5,0,1,,,,,,,,,0,,,84,101
12039,note_on,0,0,3,,,,,,,,,2,,,60,88
12039,note_on,0,0,3,,,,,,,,,2,,,63,88
12043,note_on,4,0,1,,,,,,,,,0,,,84,0
12043,note_on,0,0,3,,,,,,,,,2,,,60,0
12043,note_on,4,0,3,,,,,,,,,2,,,63,0
12043,note_on,0,0,3,,,,,,,,,2,,,55,0
12050,note_on,7,0,1,,,,,,,,,0,,,87,101
12050,note_on,0,0,1,,,,,,,,,0,,,91,101
12054,note_on,4,0,1,,,,,,,,,0,,,91,0
12054,note_on,0,0,1,,,,,,,,,0,,,87,0
12060,note_on,0,0,3,,,,,,,,,2,,,72,88
12060,note_on,17,0,3,,,,,,,,,2,,,63,88
12060,note_on,0,0,3,,,,,,,,,2,,,67,88
12060,note_on,6,0,1,,,,,,,,,0,,,96,101
12064,note_on,4,0,1,,,,,,,,,0,,,96,0
12064,note_on,0,0,3,,,,,,,,,2,,,67,0
12064,note_on,0,0,3,,,,,,,,,2,,,63,0
12064,note_on,4,0,3,,,,,,,,,2,,,72,0
12069,note_on,0,0,1,,,,,,,,,0,,,91,101
12069,note_on,5,0,1,,,,,,,,,0,,,87,101
12073,note_on,0,0,1,,,,,,,,,0,,,87,0
12073,note_on,4,0,1,,,,,,,,,0,,,91,0
12080,note_on,7,0,1,,,,,,,,,0,,,84,101
12080,note_on,16,0,3,,,,,,,,,2,,,60,88
12080,note_on,0,0,3,,,,,,,,,2,,,63,88
12080,note_on,0,0,3,,,,,,,,,2,,,67,88
12084,note_on,0,0,3,,,,,,,,,2,,,60,0
12084,note_on,0,0,3,,,,,,,,,2,,,63,0
12084,note_on,4,0,3,,,,,,,,,2,,,67,0
12084,note_on,4,0,1,,,,,,,,,0,,,84,0
12090,note_on,0,0,1,,,,,,,,,0,,,79,101
12090,note_on,6,0,1,,,,,,,,,0,,,75,101
12094,note_on,4,0,1,,,,,,,,,0,,,79,0
12094,note_on,0,0,1,,,,,,,,,0,,,75,0
12099,control_change,15,0,3,,,,,,,,,2,64,0,,
12099,note_on,0,0,3,,,,,,,,,2,,,55,88
12099,control_change,99,0,2,,,,,,,,,1,64,0,,
12099,note_on,0,0,3,,,,,,,,,2,,,60,88
12099,note_on,0,0,3,,,,,,,,,2,,,51,88
12099,control_change,79,0,4,,,,,,,,,3,64,0,,
12099,note_on,0,0,2,,,,,,,,,1,,,72,101
12099,note_on,0,0,2,,,,,,,,,1,,,60,101
12099,note_on,5,0,1,,,,,,,,,0,,,72,101
12100,note_on,1,0,2,,,,,,,,,1,,,72,0
12100,note_on,0,0,2,,,,,,,,,1,,,60,0
12103,note_on,4,0,1,,,,,,,,,0,,,72,0
12110,note_on,0,0,1,,,,,,,,,0,,,63,101
12110,note_on,0,0,1,,,,,,,,,0,,,67,101
12110,control_change,7,0,1,,,,,,,,,0,64,0,,
12119,note_on,0,0,3,,,,,,,,,2,,,51,0
12119,note_on,0,0,2,,,,,,,,,1,,,72,0
12119,note_on,20,0,3,,,,,,,,,2,,,60,0
12119,note_on,19,0,2,,,,,,,,,1,,,60,0
12119,note_on,0,0,3,,,,,,,,,2,,,55,0
12120,note_on,1,0,2,,,,,,,,,1,,,58,101
12120,note_on,0,0,1,,,,,,,,,0,,,58,101
12120,note_on,0,0,4,,,,,,,,,3,,,31,88
12120,note_on,0,0,4,,,,,,,,,3,,,43,88
12120,note_on,0,0,1,,,,,,,,,0,,,63,0
12120,note_on,0,0,1,,,,,,,,,0,,,70,101
12120,note_on,10,0,1,,,,,,,,,0,,,67,0
12120,control_change,1,0,3,,,,,,,,,2,64,127,,
12120,control_change,21,0,4,,,,,,,,,3,64,127,,
12120,note_on,0,0,2,,,,,,,,,1,,,70,101
12129,note_on,9,0,1,,,,,,,,,0,,,61,101
12129,note_on,0,0,1,,,,,,,,,0,,,64,101
12130,note_on,1,0,1,,,,,,,,,0,,,70,0
12130,note_on,0,0,1,,,,,,,,,0,,,58,0
12135,set_tempo,855,1,0,,,,,,2222222,,,,,,,
12139,note_on,0,0,1,,,,,,,,,0,,,64,0
12139,note_on,9,0,1,,,,,,,,,0,,,61,0
12140,note_on,1,0,1,,,,,,,,,0,,,57,101
12140,note_on,0,0,1,,,,,,,,,0,,,69,101
12140,note_on,20,0,3,,,,,,,,,2,,,49,88
12140,note_on,0,0,2,,,,,,,,,1,,,57,101
12140,note_on,0,0,2,,,,,,,,,1,,,58,0
12140,note_on,20,0,4,,,,,,,,,3,,,43,0
12140,note_on,20,0,2,,,,,,,,,1,,,70,0
12140,note_on,0,0,4,,,,,,,,,3,,,31,0
12140,note_on,0,0,2,,,,,,,,,1,,,69,101
12140,note_on,0,0,3,,,,,,,,,2,,,52,88
12144,note_on,4,0,3,,,,,,,,,2,,,52,0
12144,note_on,0,0,3,,,,,,,,,2,,,49,0
12150,note_on,10,0,1,,,,,,,,,0,,,69,0
12150,note_on,0,0,1,,,,,,,,,0,,,64,101
12150,note_on,0,0,1,,,,,,,,,0,,,61,101
12150,note_on,0,0,1,,,,,,,,,0,,,57,0
12150,set_tempo,15,1,0,,,,,,2400000,,,,,,,
12159,note_on,0,0,3,,,,,,,,,2,,,55,88
12159,note_on,9,0,1,,,,,,,,,0,,,58,101
12159,note_on,0,0,1,,,,,,,,,0,,,70,101
12159,note_on,0,0,2,,,,,,,,,1,,,70,101
12159,note_on,19,0,2,,,,,,,,,1,,,58,101
12159,note_on,15,0,3,,,,,,,,,2,,,52,88
12160,note_on,0,0,1,,,,,,,,,0,,,61,0
12160,note_on,1,0,1,,,,,,,,,0,,,64,0
12160,note_on,1,0,2,,,,,,,,,1,,,69,0
12160,note_on,0,0,2,,,,,,,,,1,,,57,0
12163,note_on,0,0,3,,,,,,,,,2,,,52,0
12163,note_on,4,0,3,,,,,,,,,2,,,55,0
12165,set_tempo,15,1,0,,,,,,2608696,,,,,,,
12169,note_on,0,0,1,,,,,,,,,0,,,70,0
12169,note_on,9,0,1,,,,,,,,,0,,,58,0
12170,note_on,1,0,1,,,,,,,,,0,,,61,101
12170,note_on,0,0,1,,,,,,,,,0,,,64,101
12179,note_on,19,0,2,,,,,,,,,1,,,58,0
12179,note_on,0,0,2,,,,,,,,,1,,,70,0
12180,note_on,0,0,1,,,,,,,,,0,,,73,101
12180,note_on,10,0,1,,,,,,,,,0,,,64,0
12180,note_on,0,0,3,,,,,,,,,2,,,79,88
12180,note_on,0,0,3,,,,,,,,,2,,,85,88
12180,note_on,1,0,2,,,,,,,,,1,,,61,101
12180,note_on,0,0,1,,,,,,,,,0,,,61,101
12180,note_on,0,0,1,,,,,,,,,0,,,61,0
12180,note_on,0,0,2,,,,,,,,,1,,,73,101
12180,set_tempo,15,1,0,,,,,,2857143,,,,,,,
12180,note_on,17,0,3,,,,,,,,,2,,,76,88
12184,note_on,0,0,3,,,,,,,,,2,,,76,0
12184,note_on,0,0,3,,,,,,,,,2,,,79,0
12184,note_on,4,0,3,,,,,,,,,2,,,85,0
12189,note_on,0,0,1,,,,,,,,,0,,,67,101
12189,note_on,9,0,1,,,,,,,,,0,,,64,101
12190,note_on,1,0,1,,,,,,,,,0,,,73,0
12190,note_on,0,0,1,,,,,,,,,0,,,61,0
12195,set_tempo,15,1,0,,,,,,3157895,,,,,,,
12199,note_on,0,0,1,,,,,,,,,0,,,67,0
12199,note_on,9,0,1,,,,,,,,,0,,,64,0
12200,note_on,16,0,3,,,,,,,,,2,,,76,88
12200,note_on,20,0,2,,,,,,,,,1,,,73,0
12200,note_on,0,0,1,,,,,,,,,0,,,72,101
12200,note_on,0,0,3,,,,,,,,,2,,,84,88
12200,note_on,0,0,3,,,,,,,,,2,,,79,88
12200,note_on,0,0,2,,,,,,,,,1,,,60,101
12200,note_on,0,0,2,,,,,,,,,1,,,61,0
12200,note_on,1,0,1,,,,,,,,,0,,,60,101
12200,note_on,0,0,2,,,,,,,,,1,,,72,101
12204,note_on,0,0,3,,,,,,,,,2,,,79,0
12204,note_on,0,0,3,,,,,,,,,2,,,76,0
12204,note_on,4,0,3,,,,,,,,,2,,,84,0
12210,note_on,0,0,1,,,,,,,,,0,,,60,0
12210,note_on,0,0,1,,,,,,,,,0,,,64,101
12210,note_on,0,0,1,,,,,,,,,0,,,67,101
12210,set_tempo,15,1,0,,,,,,3529412,,,,,,,
12210,note_on,10,0,1,,,,,,,,,0,,,72,0
12219,note_on,19,0,2,,,,,,,,,1,,,58,101
12219,control_change,15,0,3,,,,,,,,,2,64,0,,
12219,note_on,0,0,2,,,,,,,,,1,,,70,101
12219,note_on,0,0,1,,,,,,,,,0,,,70,101
12219,note_on,9,0,1,,,,,,,,,0,,,58,101
12219,control_change,79,0,4,,,,,,,,,3,64,0,,
12219,note_on,0,0,3,,,,,,,,,2,,,82,88
12219,note_on,0,0,3,,,,,,,,,2,,,76,88
12219,note_on,0,0,3,,,,,,,,,2,,,73,88
12220,note_on,0,0,2,,,,,,,,,1,,,60,0
12220,note_on,0,0,1,,,,,,,,,0,,,64,0
12220,note_on,1,0,2,,,,,,,,,1,,,72,0
12220,note_on,1,0,1,,,,,,,,,0,,,67,0
12225,set_tempo,15,1,0,,,,,,4000000,,,,,,,
12229,note_on,9,0,1,,,,,,,,,0,,,58,0
12229,note_on,0,0,1,,,,,,,,,0,,,70,0
12230,note_on,0,0,1,,,,,,,,,0,,,64,101
12230,note_on,1,0,1,,,,,,,,,0,,,61,101
12239,note_on,19,0,2,,,,,,,,,1,,,58,0
12239,note_on,0,0,3,,,,,,,,,2,,,76,0
12239,note_on,0,0,2,,,,,,,,,1,,,70,0
12239,note_on,20,0,3,,,,,,,,,2,,,82,0
12239,note_on,0,0,3,,,,,,,,,2,,,73,0
12240,note_on,0,0,2,,,,,,,,,1,,,72,101
12240,note_on,0,0,1,,,,,,,,,0,,,61,0
12240,note_on,0,0,4,,,,,,,,,3,,,29,62
12240,note_on,0,0,4,,,,,,,,,3,,,41,62
12240,note_on,1,0,2,,,,,,,,,1,,,60,101
12240,control_change,1,0,3,,,,,,,,,2,64,127,,
12240,control_change,0,0,1,,,,,,,,,0,64,127,,
12240,note_on,0,0,1,,,,,,,,,0,,,60,75
12240,note_on,0,0,1,,,,,,,,,0,,,72,75
12240,note_on,10,0,1,,,,,,,,,0,,,64,0
12240,control_change,21,0,4,,,,,,,,,3,64,127,,
12240,set_tempo,15,1,0,,,,,,2142857,,,,,,,
12244,note_on,0,0,1,,,,,,,,,0,,,60,0
12244,note_on,4,0,1,,,,,,,,,0,,,72,0
12249,note_on,5,0,1,,,,,,,,,0,,,65,75
12249,note_on,0,0,1,,,,,,,,,0,,,69,75
12253,note_on,0,0,1,,,,,,,,,0,,,65,0
12253,note_on,4,0,1,,,,,,,,,0,,,69,0
12260,note_on,0,0,4,,,,,,,,,3,,,29,0
12260,note_on,0,0,3,,,,,,,,,2,,,53,62
12260,note_on,20,0,3,,,,,,,,,2,,,48,62
12260,note_on,7,0,1,,,,,,,,,0,,,72,75
12260,note_on,0,0,3,,,,,,,,,2,,,57,62
12260,note_on,20,0,4,,,,,,,,,3,,,41,0
12264,note_on,4,0,1,,,,,,,,,0,,,72,0
12264,note_on,4,0,3,,,,,,,,,2,,,57,0
12264,note_on,0,0,3,,,,,,,,,2,,,48,0
12264,note_on,0,0,3,,,,,,,,,2,,,53,0
12270,note_on,6,0,1,,,,,,,,,0,,,77,75
12270,note_on,0,0,1,,,,,,,,,0,,,81,75
12274,note_on,4,0,1,,,,,,,,,0,,,81,0
12274,note_on,0,0,1,,,,,,,,,0,,,77,0
12279,note_on,5,0,1,,,,,,,,,0,,,84,75
12279,note_on,15,0,3,,,,,,,,,2,,,53,62
12279,note_on,0,0,3,,,,,,,,,2,,,60,62
12279,note_on,0,0,3,,,,,,,,,2,,,57,62
12283,note_on,4,0,1,,,,,,,,,0,,,84,0
12283,note_on,0,0,3,,,,,,,,,2,,,57,0
12283,note_on,4,0,3,,,,,,,,,2,,,60,0
12283,note_on,0,0,3,,,,,,,,,2,,,53,0
12290,note_on,0,0,1,,,,,,,,,0,,,93,75
12290,note_on,7,0,1,,,,,,,,,0,,,89,75
12294,note_on,4,0,1,,,,,,,,,0,,,93,0
12294,note_on,0,0,1,,,,,,,,,0,,,89,0
12300,note_on,6,0,1,,,,,,,,,0,,,96,75
12300,note_on,17,0,3,,,,,,,,,2,,,65,62
12300,note_on,0,0,3,,,,,,,,,2,,,72,62
12300,note_on,0,0,3,,,,,,,,,2,,,69,62
12304,note_on,4,0,1,,,,,,,,,0,,,96,0
12304,note_on,4,0,3,,,,,,,,,2,,,72,0
12304,note_on,0,0,3,,,,,,,,,2,,,65,0
12304,note_on,0,0,3,,,,,,,,,2,,,69,0
12309,note_on,5,0,1,,,,,,,,,0,,,89,75
12309,note_on,0,0,1,,,,,,,,,0,,,93,75
12313,note_on,4,0,1,,,,,,,,,0,,,93,0
12313,note_on,0,0,1,,,,,,,,,0,,,89,0
12320,note_on,0,0,3,,,,,,,,,2,,,69,62
12320,note_on,16,0,3,,,,,,,,,2,,,60,62
12320,note_on,7,0,1,,,,,,,,,0,,,84,75
12320,note_on,0,0,3,,,,,,,,,2,,,65,62
12324,note_on,0,0,3,,,,,,,,,2,,,65,0
12324,note_on,0,0,3,,,,,,,,,2,,,60,0
12324,note_on,4,0,1,,,,,,,,,0,,,84,0
12324,note_on,4,0,3,,,,,,,,,2,,,69,0
12330,note_on,6,0,1,,,,,,,,,0,,,77,75
12330,note_on,0,0,1,,,,,,,,,0,,,81,75
12334,note_on,4,0,1,,,,,,,,,0,,,81,0
12334,note_on,0,0,1,,,,,,,,,0,,,77,0
12339,note_on,0,0,3,,,,,,,,,2,,,57,62
12339,control_change,15,0,3,,,,,,,,,2,64,0,,
12339,note_on,5,0,1,,,,,,,,,0,,,72,75
12339,note_on,0,0,3,,,,,,,,,2,,,60,62
12339,control_change,79,0,4,,,,,,,,,3,64,0,,
12339,note_on,0,0,3,,,,,,,,,2,,,53,62
12343,note_on,4,0,1,,,,,,,,,0,,,72,0
12350,note_on,0,0,1,,,,,,,,,0,,,69,75
12350,control_change,7,0,1,,,,,,,,,0,64,0,,
12350,note_on,0,0,1,,,,,,,,,0,,,65,75
12359,note_on,0,0,3,,,,,,,,,2,,,53,0
12359,note_on,0,0,3,,,,,,,,,2,,,57,0
12359,note_on,20,0,3,,,,,,,,,2,,,60,0
12360,note_on,0,0,1,,,,,,,,,0,,,65,0
12360,control_change,1,0,3,,,,,,,,,2,64,127,,
12360,note_on,10,0,1,,,,,,,,,0,,,69,0
12360,control_change,0,0,1,,,,,,,,,0,64,127,,
12360,note_on,0,0,1,,,,,,,,,0,,,60,75
12360,note_on,0,0,2,,,,,,,,,1,,,60,0
12360,note_on,0,0,4,,,,,,,,,3,,,29,62
12360,note_on,0,0,4,,,,,,,,,3,,,41,62
12360,note_on,120,0,2,,,,,,,,,1,,,72,0
12360,control_change,21,0,4,,,,,,,,,3,64,127,,
12364,note_on,4,0,1,,,,,,,,,0,,,60,0
12369,note_on,0,0,1,,,,,,,,,0,,,65,75
12369,note_on,5,0,1,,,,,,,,,0,,,63,75
12373,note_on,4,0,1,,,,,,,,,0,,,65,0
12373,note_on,0,0,1,,,,,,,,,0,,,63,0
12375,set_tempo,135,1,0,,,,,,2222222,,,,,,,
12380,note_on,20,0,4,,,,,,,,,3,,,41,0
12380,note_on,0,0,4,,,,,,,,,3,,,29,0
12380,note_on,0,0,3,,,,,,,,,2,,,53,62
12380,note_on,0,0,3,,,,,,,,,2,,,57,62
12380,note_on,7,0,1,,,,,,,,,0,,,69,75
12380,note_on,20,0,3,,,,,,,,,2,,,51,62
12384,note_on,0,0,3,,,,,,,,,2,,,53,0
12384,note_on,4,0,1,,,,,,,,,0,,,69,0
12384,note_on,0,0,3,,,,,,,,,2,,,51,0
12384,note_on,4,0,3,,,,,,,,,2,,,57,0
12390,note_on,6,0,1,,,,,,,,,0,,,72,75
12390,note_on,0,0,1,,,,,,,,,0,,,77,75
12390,set_tempo,15,1,0,,,,,,2400000,,,,,,,
12394,note_on,4,0,1,,,,,,,,,0,,,77,0
12394,note_on,0,0,1,,,,,,,,,0,,,72,0
12399,note_on,15,0,3,,,,,,,,,2,,,53,62
12399,note_on,5,0,1,,,,,,,,,0,,,81,75
12399,note_on,0,0,3,,,,,,,,,2,,,60,62
12399,note_on,0,0,3,,,,,,,,,2,,,57,62
12403,note_on,4,0,3,,,,,,,,,2,,,60,0
12403,note_on,4,0,1,,,,,,,,,0,,,81,0
12403,note_on,0,0,3,,,,,,,,,2,,,57,0
12403,note_on,0,0,3,,,,,,,,,2,,,53,0
12405,set_tempo,15,1,0,,,,,,2608696,,,,,,,
12410,note_on,7,0,1,,,,,,,,,0,,,84,75
12410,note_on,0,0,1,,,,,,,,,0,,,89,75
12414,note_on,0,0,1,,,,,,,,,0,,,84,0
12414,note_on,4,0,1,,,,,,,,,0,,,89,0
12420,note_on,0,0,3,,,,,,,,,2,,,65,62
12420,set_tempo,15,1,0,,,,,,2857143,,,,,,,
12420,note_on,17,0,3,,,,,,,,,2,,,63,62
12420,note_on,6,0,1,,,,,,,,,0,,,93,75
12420,note_on,0,0,3,,,,,,,,,2,,,69,62
12424,note_on,0,0,3,,,,,,,,,2,,,65,0
12424,note_on,0,0,3,,,,,,,,,2,,,63,0
12424,note_on,4,0,1,,,,,,,,,0,,,93,0
12424,note_on,4,0,3,,,,,,,,,2,,,69,0
12429,note_on,0,0,1,,,,,,,,,0,,,89,75
12429,note_on,5,0,1,,,,,,,,,0,,,84,75
12433,note_on,0,0,1,,,,,,,,,0,,,84,0
12433,note_on,4,0,1,,,,,,,,,0,,,89,0
12435,set_tempo,15,1,0,,,,,,3157895,,,,,,,
12440,note_on,16,0,3,,,,,,,,,2,,,60,62
12440,note_on,0,0,3,,,,,,,,,2,,,63,62
12440,note_on,0,0,3,,,,,,,,,2,,,65,62
12440,note_on,7,0,1,,,,,,,,,0,,,81,75
12444,note_on,4,0,3,,,,,,,,,2,,,65,0
12444,note_on,0,0,3,,,,,,,,,2,,,63,0
12444,note_on,0,0,3,,,,,,,,,2,,,60,0
12444,note_on,4,0,1,,,,,,,,,0,,,81,0
12450,set_tempo,15,1,0,,,,,,3529412,,,,,,,
12450,note_on,6,0,1,,,,,,,,,0,,,72,75
12450,note_on,0,0,1,,,,,,,,,0,,,77,75
12454,note_on,4,0,1,,,,,,,,,0,,,77,0
12454,note_on,0,0,1,,,,,,,,,0,,,72,0
12459,note_on,0,0,3,,,,,,,,,2,,,60,62
12459,note_on,5,0,1,,,,,,,,,0,,,69,75
12459,control_change,15,0,3,,,,,,,,,2,64,0,,
12459,control_change,79,0,4,,,,,,,,,3,64,0,,
12459,note_on,0,0,3,,,,,,,,,2,,,53,62
12463,note_on,4,0,1,,,,,,,,,0,,,69,0
12465,set_tempo,15,1,0,,,,,,4000000,,,,,,,
12470,note_on,0,0,1,,,,,,,,,0,,,65,75
12470,control_change,7,0,1,,,,,,,,,0,64,0,,
12470,note_on,0,0,1,,,,,,,,,0,,,63,75
12479,note_on,0,0,3,,,,,,,,,2,,,53,0
12479,note_on,20,0,3,,,,,,,,,2,,,60,0
12480,note_on,0,0,4,,,,,,,,,3,,,46,62
12480,control_change,0,0,1,,,,,,,,,0,64,127,,
12480,note_on,0,0,2,,,,,,,,,1,,,70,101
12480,control_change,21,0,4,,,,,,,,,3,64,127,,
12480,set_tempo,0,1,0,,,,,,2142857,,,,,,,
12480,note_on,120,0,2,,,,,,,,,1,,,58,101
12480,note_on,0,0,1,,,,,,,,,0,,,63,0
12480,control_change,1,0,3,,,,,,,,,2,64,127,,
12480,time_signature,15,1,0,2,4,24,8,,,,,,,,,
12480,note_on,10,0,1,,,,,,,,,0,,,65,0
12480,control_change,0,0,4,,,,,,,,,3,64,127,,
12480,note_on,0,0,4,,,,,,,,,3,,,34,54
12485,note_on,5,0,1,,,,,,,,,0,,,58,36
12485,note_on,5,0,4,,,,,,,,,3,,,50,36
12486,note_on,1,0,4,,,,,,,,,3,,,46,0
12486,note_on,0,0,4,,,,,,,,,3,,,34,0
12491,note_on,5,0,4,,,,,,,,,3,,,50,0
12491,note_on,0,0,4,,,,,,,,,3,,,53,36
12491,note_on,0,0,1,,,,,,,,,0,,,62,36
12491,note_on,6,0,1,,,,,,,,,0,,,58,0
12497,note_on,6,0,4,,,,,,,,,3,,,53,0
12497,note_on,6,0,1,,,,,,,,,0,,,62,0
12498,note_on,1,0,1,,,,,,,,,0,,,65,36
12498,note_on,1,0,4,,,,,,,,,3,,,58,36
12504,note_on,0,0,4,,,,,,,,,3,,,62,36
12504,note_on,6,0,4,,,,,,,,,3,,,58,0
12504,note_on,0,0,1,,,,,,,,,0,,,70,36
12504,note_on,6,0,1,,,,,,,,,0,,,65,0
12510,note_on,6,0,1,,,,,,,,,0,,,70,0
12510,note_on,6,0,4,,,,,,,,,3,,,62,0
12510,note_on,0,0,4,,,,,,,,,3,,,65,36
12510,note_on,0,0,1,,,,,,,,,0,,,74,36
12515,note_on,5,0,4,,,,,,,,,3,,,70,36
12515,note_on,5,0,1,,,,,,,,,0,,,77,36
12516,note_on,1,0,1,,,,,,,,,0,,,74,0
12516,note_on,1,0,4,,,,,,,,,3,,,65,0
12521,note_on,0,0,4,,,,,,,,,3,,,74,36
12521,note_on,5,0,1,,,,,,,,,0,,,77,0
12521,note_on,5,0,4,,,,,,,,,3,,,70,0
12521,note_on,0,0,1,,,,,,,,,0,,,82,36
12527,note_on,6,0,4,,,,,,,,,3,,,74,0
12527,note_on,6,0,1,,,,,,,,,0,,,82,0
12528,note_on,1,0,1,,,,,,,,,0,,,86,36
12528,note_on,1,0,4,,,,,,,,,3,,,77,36
12534,note_on,0,0,4,,,,,,,,,3,,,82,36
12534,note_on,6,0,1,,,,,,,,,0,,,86,0
12534,note_on,6,0,4,,,,,,,,,3,,,77,0
12534,note_on,0,0,1,,,,,,,,,0,,,89,36
12540,note_on,0,0,1,,,,,,,,,0,,,94,36
12540,note_on,6,0,1,,,,,,,,,0,,,89,0
12540,note_on,60,0,3,,,,,,,,,2,,,86,62
12540,control_change,0,0,4,,,,,,,,,3,64,0,,
12540,note_on,6,0,4,,,,,,,,,3,,,82,0
12545,note_on,5,0,1,,,,,,,,,0,,,89,36
12545,note_on,5,0,3,,,,,,,,,2,,,82,62
12546,note_on,1,0,1,,,,,,,,,0,,,94,0
12546,note_on,1,0,3,,,,,,,,,2,,,86,0
12551,note_on,0,0,1,,,,,,,,,0,,,86,36
12551,note_on,0,0,3,,,,,,,,,2,,,77,62
12551,note_on,5,0,3,,,,,,,,,2,,,82,0
12551,note_on,5,0,1,,,,,,,,,0,,,89,0
12557,note_on,6,0,1,,,,,,,,,0,,,86,0
12557,note_on,6,0,3,,,,,,,,,2,,,77,0
12558,note_on,1,0,3,,,,,,,,,2,,,74,62
12558,note_on,1,0,1,,,,,,,,,0,,,82,36
12564,note_on,6,0,1,,,,,,,,,0,,,82,0
12564,note_on,6,0,3,,,,,,,,,2,,,74,0
12564,note_on,0,0,3,,,,,,,,,2,,,70,62
12564,note_on,0,0,1,,,,,,,,,0,,,77,36
12570,note_on,6,0,3,,,,,,,,,2,,,70,0
12570,note_on,6,0,1,,,,,,,,,0,,,77,0
12570,note_on,0,0,1,,,,,,,,,0,,,74,36
12570,note_on,0,0,3,,,,,,,,,2,,,65,62
12575,note_on,5,0,3,,,,,,,,,2,,,62,62
12575,note_on,5,0,1,,,,,,,,,0,,,70,36
12576,note_on,1,0,1,,,,,,,,,0,,,74,0
12576,note_on,1,0,3,,,,,,,,,2,,,65,0
12581,note_on,0,0,1,,,,,,,,,0,,,65,36
12581,note_on,0,0,3,,,,,,,,,2,,,58,62
12581,note_on,5,0,1,,,,,,,,,0,,,70,0
12581,note_on,5,0,3,,,,,,,,,2,,,62,0
12587,note_on,6,0,3,,,,,,,,,2,,,58,0
12587,note_on,6,0,1,,,,,,,,,0,,,65,0
12588,note_on,1,0,1,,,,,,,,,0,,,62,36
12588,note_on,1,0,3,,,,,,,,,2,,,53,62
12594,note_on,0,0,1,,,,,,,,,0,,,58,36
12594,control_change,0,0,3,,,,,,,,,2,64,0,,
12594,note_on,6,0,1,,,,,,,,,0,,,62,0
12594,note_on,6,0,3,,,,,,,,,2,,,53,0
12594,note_on,0,0,3,,,,,,,,,2,,,50,62
12594,control_change,0,0,1,,,,,,,,,0,64,0,,
12600,control_change,0,0,1,,,,,,,,,0,64,127,,
12600,note_on,0,0,4,,,,,,,,,3,,,31,54
12600,note_on,6,0,3,,,,,,,,,2,,,50,0
12600,note_on,6,0,1,,,,,,,,,0,,,58,0
12600,control_change,60,0,4,,,,,,,,,3,64,127,,
12600,note_on,0,0,4,,,,,,,,,3,,,43,62
12605,note_on,5,0,1,,,,,,,,,0,,,58,36
12605,note_on,5,0,4,,,,,,,,,3,,,50,36
12606,note_on,1,0,4,,,,,,,,,3,,,43,0
12606,note_on,0,0,4,,,,,,,,,3,,,31,0
12611,note_on,6,0,1,,,,,,,,,0,,,58,0
12611,note_on,5,0,4,,,,,,,,,3,,,50,0
12611,note_on,0,0,1,,,,,,,,,0,,,62,36
12611,note_on,0,0,4,,,,,,,,,3,,,52,36
12617,note_on,6,0,4,,,,,,,,,3,,,52,0
12617,note_on,6,0,1,,,,,,,,,0,,,62,0
12618,note_on,1,0,1,,,,,,,,,0,,,64,36
12618,note_on,1,0,4,,,,,,,,,3,,,58,36
12624,note_on,6,0,4,,,,,,,,,3,,,58,0
12624,note_on,0,0,4,,,,,,,,,3,,,62,36
12624,note_on,0,0,1,,,,,,,,,0,,,70,36
12624,note_on,6,0,1,,,,,,,,,0,,,64,0
12630,note_on,6,0,4,,,,,,,,,3,,,62,0
12630,note_on,6,0,1,,,,,,,,,0,,,70,0
12630,note_on,0,0,4,,,,,,,,,3,,,64,36
12630,note_on,0,0,1,,,,,,,,,0,,,74,36
12635,note_on,5,0,1,,,,,,,,,0,,,76,36
12635,note_on,5,0,4,,,,,,,,,3,,,70,36
12636,note_on,1,0,1,,,,,,,,,0,,,74,0
12636,note_on,1,0,4,,,,,,,,,3,,,64,0
12641,note_on,5,0,4,,,,,,,,,3,,,70,0
12641,note_on,0,0,4,,,,,,,,,3,,,74,36
12641,note_on,5,0,1,,,,,,,,,0,,,76,0
12641,note_on,0,0,1,,,,,,,,,0,,,82,36
12647,note_on,6,0,4,,,,,,,,,3,,,74,0
12647,note_on,6,0,1,,,,,,,,,0,,,82,0
12648,note_on,1,0,1,,,,,,,,,0,,,86,36
12648,note_on,1,0,4,,,,,,,,,3,,,76,36
12654,note_on,0,0,4,,,,,,,,,3,,,82,36
12654,note_on,0,0,1,,,,,,,,,0,,,88,36
12654,note_on,6,0,4,,,,,,,,,3,,,76,0
12654,note_on,6,0,1,,,,,,,,,0,,,86,0
12660,note_on,0,0,1,,,,,,,,,0,,,98,36
12660,note_on,0,0,1,,,,,,,,,0,,,94,36
12660,note_on,6,0,1,,,,,,,,,0,,,88,0
12660,note_on,60,0,3,,,,,,,,,2,,,86,62
12660,control_change,0,0,4,,,,,,,,,3,64,0,,
12660,note_on,6,0,4,,,,,,,,,3,,,82,0
12666,note_on,6,0,1,,,,,,,,,0,,,88,36
12667,note_on,0,0,1,,,,,,,,,0,,,94,0
12667,note_on,1,0,1,,,,,,,,,0,,,98,0
12673,note_on,0,0,1,,,,,,,,,0,,,86,36
12673,note_on,6,0,1,,,,,,,,,0,,,88,0
12680,note_on,7,0,1,,,,,,,,,0,,,86,0
12680,note_on,0,0,1,,,,,,,,,0,,,82,36
12680,note_on,0,0,2,,,,,,,,,1,,,58,0
12680,note_on,0,0,2,,,,,,,,,1,,,57,101
12680,note_on,0,0,2,,,,,,,,,1,,,69,101
12680,note_on,200,0,2,,,,,,,,,1,,,70,0
12686,note_on,6,0,1,,,,,,,,,0,,,76,36
12687,note_on,1,0,1,,,,,,,,,0,,,82,0
12690,note_on,30,0,3,,,,,,,,,2,,,86,0
12693,note_on,6,0,1,,,,,,,,,0,,,76,0
12693,note_on,0,0,1,,,,,,,,,0,,,74,36
12699,note_on,6,0,1,,,,,,,,,0,,,64,36
12699,note_on,0,0,2,,,,,,,,,1,,,70,101
12699,note_on,19,0,2,,,,,,,,,1,,,58,101
12700,note_on,0,0,2,,,,,,,,,1,,,57,0
12700,note_on,1,0,2,,,,,,,,,1,,,69,0
12700,note_on,1,0,1,,,,,,,,,0,,,74,0
12706,note_on,0,0,1,,,,,,,,,0,,,62,36
12706,note_on,6,0,1,,,,,,,,,0,,,64,0
12713,note_on,0,0,1,,,,,,,,,0,,,58,36
12713,note_on,7,0,1,,,,,,,,,0,,,62,0
12713,control_change,0,0,1,,,,,,,,,0,64,0,,
12719,note_on,19,0,2,,,,,,,,,1,,,58,0
12719,note_on,0,0,2,,,,,,,,,1,,,70,0
12720,control_change,60,0,4,,,,,,,,,3,64,127,,
12720,note_on,0,0,4,,,,,,,,,3,,,29,54
12720,note_on,1,0,2,,,,,,,,,1,,,62,101
12720,control_change,0,0,1,,,,,,,,,0,64,127,,
12720,note_on,0,0,4,,,,,,,,,3,,,41,62
12720,note_on,0,0,2,,,,,,,,,1,,,74,101
12720,note_on,7,0,1,,,,,,,,,0,,,58,0
12720,control_change,30,0,3,,,,,,,,,2,64,127,,
12725,note_on,5,0,1,,,,,,,,,0,,,62,36
12725,note_on,5,0,4,,,,,,,,,3,,,53,36
12726,note_on,0,0,4,,,,,,,,,3,,,29,0
12726,note_on,1,0,4,,,,,,,,,3,,,41,0
12731,note_on,0,0,1,,,,,,,,,0,,,65,36
12731,note_on,5,0,4,,,,,,,,,3,,,53,0
12731,note_on,6,0,1,,,,,,,,,0,,,62,0
12731,note_on,0,0,4,,,,,,,,,3,,,58,36
12737,note_on,6,0,4,,,,,,,,,3,,,58,0
12737,note_on,6,0,1,,,,,,,,,0,,,65,0
12738,note_on,1,0,1,,,,,,,,,0,,,70,36
12738,note_on,1,0,4,,,,,,,,,3,,,62,36
12744,note_on,0,0,1,,,,,,,,,0,,,74,36
12744,note_on,6,0,4,,,,,,,,,3,,,62,0
12744,note_on,0,0,4,,,,,,,,,3,,,65,36
12744,note_on,6,0,1,,,,,,,,,0,,,70,0
12750,note_on,6,0,4,,,,,,,,,3,,,65,0
12750,note_on,6,0,1,,,,,,,,,0,,,74,0
12750,note_on,0,0,4,,,,,,,,,3,,,70,36
12750,note_on,0,0,1,,,,,,,,,0,,,77,36
12755,note_on,5,0,4,,,,,,,,,3,,,74,36
12755,note_on,5,0,1,,,,,,,,,0,,,82,36
12756,note_on,1,0,4,,,,,,,,,3,,,70,0
12756,note_on,1,0,1,,,,,,,,,0,,,77,0
12761,note_on,0,0,1,,,,,,,,,0,,,86,36
12761,note_on,0,0,4,,,,,,,,,3,,,77,36
12761,note_on,5,0,1,,,,,,,,,0,,,82,0
12761,note_on,5,0,4,,,,,,,,,3,,,74,0
12767,note_on,6,0,1,,,,,,,,,0,,,86,0
12767,note_on,6,0,4,,,,,,,,,3,,,77,0
12768,note_on,1,0,4,,,,,,,,,3,,,82,36
12768,note_on,1,0,1,,,,,,,,,0,,,89,36
12774,note_on,0,0,1,,,,,,,,,0,,,94,36
12774,note_on,6,0,1,,,,,,,,,0,,,89,0
12774,note_on,6,0,4,,,,,,,,,3,,,82,0
12774,note_on,0,0,4,,,,,,,,,3,,,86,36
12780,note_on,60,0,3,,,,,,,,,2,,,89,62
12780,note_on,0,0,1,,,,,,,,,0,,,98,36
12780,note_on,6,0,1,,,,,,,,,0,,,94,0
12780,control_change,0,0,4,,,,,,,,,3,64,0,,
12780,note_on,6,0,4,,,,,,,,,3,,,86,0
12785,note_on,5,0,3,,,,,,,,,2,,,86,62
12785,note_on,5,0,1,,,,,,,,,0,,,94,36
12786,note_on,1,0,3,,,,,,,,,2,,,89,0
12786,note_on,1,0,1,,,,,,,,,0,,,98,0
12791,note_on,0,0,1,,,,,,,,,0,,,89,36
12791,note_on,5,0,1,,,,,,,,,0,,,94,0
12791,note_on,5,0,3,,,,,,,,,2,,,86,0
12791,note_on,0,0,3,,,,,,,,,2,,,82,62
12797,note_on,6,0,3,,,,,,,,,2,,,82,0
12797,note_on,6,0,1,,,,,,,,,0,,,89,0
12798,note_on,1,0,3,,,,,,,,,2,,,77,62
12798,note_on,1,0,1,,,,,,,,,0,,,86,36
12804,note_on,6,0,3,,,,,,,,,2,,,77,0
12804,note_on,0,0,1,,,,,,,,,0,,,82,36
12804,note_on,0,0,3,,,,,,,,,2,,,74,62
12804,note_on,6,0,1,,,,,,,,,0,,,86,0
12810,note_on,0,0,3,,,,,,,,,2,,,70,62
12810,note_on,6,0,3,,,,,,,,,2,,,74,0
12810,note_on,6,0,1,,,,,,,,,0,,,82,0
12810,note_on,0,0,1,,,,,,,,,0,,,77,36
12815,note_on,5,0,3,,,,,,,,,2,,,65,62
12815,note_on,5,0,1,,,,,,,,,0,,,74,36
12816,note_on,1,0,3,,,,,,,,,2,,,70,0
12816,note_on,1,0,1,,,,,,,,,0,,,77,0
12821,note_on,5,0,1,,,,,,,,,0,,,74,0
12821,note_on,0,0,1,,,,,,,,,0,,,70,36
12821,note_on,0,0,3,,,,,,,,,2,,,62,62
12821,note_on,5,0,3,,,,,,,,,2,,,65,0
12827,note_on,6,0,3,,,,,,,,,2,,,62,0
12827,note_on,6,0,1,,,,,,,,,0,,,70,0
12828,note_on,1,0,1,,,,,,,,,0,,,65,36
12828,note_on,1,0,3,,,,,,,,,2,,,58,62
12834,note_on,6,0,1,,,,,,,,,0,,,65,0
12834,control_change,0,0,3,,,,,,,,,2,64,0,,
12834,note_on,0,0,3,,,,,,,,,2,,,53,62
12834,control_change,0,0,1,,,,,,,,,0,64,0,,
12834,note_on,6,0,3,,,,,,,,,2,,,58,0
12834,note_on,0,0,1,,,,,,,,,0,,,62,36
12840,note_on,0,0,4,,,,,,,,,3,,,29,54
12840,note_on,0,0,4,,,,,,,,,3,,,41,62
12840,note_on,6,0,3,,,,,,,,,2,,,53,0
12840,note_on,6,0,1,,,,,,,,,0,,,62,0
12840,note_on,0,0,2,,,,,,,,,1,,,62,0
12840,note_on,120,0,2,,,,,,,,,1,,,74,0
12840,control_change,0,0,1,,,,,,,,,0,64,127,,
12840,control_change,60,0,4,,,,,,,,,3,64,127,,
12844,note_on,4,0,1,,,,,,,,,0,,,60,36
12844,note_on,4,0,4,,,,,,,,,3,,,51,36
12845,note_on,1,0,4,,,,,,,,,3,,,41,0
12845,note_on,0,0,4,,,,,,,,,3,,,29,0
12849,note_on,5,0,1,,,,,,,,,0,,,60,0
12849,note_on,0,0,4,,,,,,,,,3,,,53,36
12849,note_on,0,0,1,,,,,,,,,0,,,63,36
12849,note_on,4,0,4,,,,,,,,,3,,,51,0
12853,note_on,4,0,4,,,,,,,,,3,,,57,36
12853,note_on,4,0,1,,,,,,,,,0,,,65,36
12854,note_on,1,0,4,,,,,,,,,3,,,53,0
12854,note_on,1,0,1,,,,,,,,,0,,,63,0
12858,note_on,0,0,4,,,,,,,,,3,,,60,36
12858,note_on,4,0,4,,,,,,,,,3,,,57,0
12858,note_on,4,0,1,,,,,,,,,0,,,65,0
12858,note_on,0,0,1,,,,,,,,,0,,,69,36
12859,set_tempo,379,1,0,,,,,,2222222,,,,,,,
12863,note_on,0,0,4,,,,,,,,,3,,,63,36
12863,note_on,5,0,4,,,,,,,,,3,,,60,0
12863,note_on,5,0,1,,,,,,,,,0,,,69,0
12863,note_on,0,0,1,,,,,,,,,0,,,72,36
12867,note_on,4,0,1,,,,,,,,,0,,,75,36
12867,note_on,4,0,4,,,,,,,,,3,,,65,36
12868,note_on,1,0,1,,,,,,,,,0,,,72,0
12868,note_on,1,0,4,,,,,,,,,3,,,63,0
12872,note_on,0,0,4,,,,,,,,,3,,,69,36
12872,note_on,4,0,4,,,,,,,,,3,,,65,0
12872,note_on,0,0,1,,,,,,,,,0,,,77,36
12872,note_on,4,0,1,,,,,,,,,0,,,75,0
12874,set_tempo,15,1,0,,,,,,2400000,,,,,,,
12876,note_on,4,0,4,,,,,,,,,3,,,72,36
12876,note_on,4,0,1,,,,,,,,,0,,,81,36
12877,note_on,1,0,4,,,,,,,,,3,,,69,0
12877,note_on,1,0,1,,,,,,,,,0,,,77,0
12881,note_on,0,0,1,,,,,,,,,0,,,84,36
12881,note_on,4,0,1,,,,,,,,,0,,,81,0
12881,note_on,0,0,4,,,,,,,,,3,,,75,36
12881,note_on,4,0,4,,,,,,,,,3,,,72,0
12886,note_on,5,0,4,,,,,,,,,3,,,75,0
12886,note_on,0,0,1,,,,,,,,,0,,,87,36
12886,note_on,0,0,4,,,,,,,,,3,,,77,36
12886,note_on,5,0,1,,,,,,,,,0,,,84,0
12889,set_tempo,15,1,0,,,,,,2608696,,,,,,,
12890,note_on,4,0,4,,,,,,,,,3,,,84,36
12890,note_on,4,0,1,,,,,,,,,0,,,89,36
12891,note_on,1,0,4,,,,,,,,,3,,,77,0
12891,note_on,1,0,1,,,,,,,,,0,,,87,0
12895,note_on,0,0,4,,,,,,,,,3,,,87,36
12895,note_on,4,0,1,,,,,,,,,0,,,89,0
12895,note_on,4,0,4,,,,,,,,,3,,,84,0
12895,note_on,0,0,1,,,,,,,,,0,,,93,36
12900,note_on,5,0,1,,,,,,,,,0,,,93,0
12900,control_change,0,0,4,,,,,,,,,3,64,0,,
12900,note_on,0,0,1,,,,,,,,,0,,,96,36
12900,note_on,5,0,4,,,,,,,,,3,,,87,0
12900,note_on,60,0,3,,,,,,,,,2,,,87,62
12904,set_tempo,15,1,0,,,,,,2857143,,,,,,,
12905,note_on,5,0,1,,,,,,,,,0,,,96,0
12905,note_on,0,0,1,,,,,,,,,0,,,93,36
12909,note_on,4,0,1,,,,,,,,,0,,,89,36
12910,note_on,1,0,1,,,,,,,,,0,,,93,0
12914,note_on,4,0,1,,,,,,,,,0,,,89,0
12915,note_on,1,0,1,,,,,,,,,0,,,87,36
12919,set_tempo,15,1,0,,,,,,3157895,,,,,,,
12920,note_on,0,0,2,,,,,,,,,1,,,72,101
12920,note_on,0,0,3,,,,,,,,,2,,,72,62
12920,note_on,5,0,1,,,,,,,,,0,,,87,0
12920,note_on,0,0,1,,,,,,,,,0,,,84,36
12920,note_on,0,0,3,,,,,,,,,2,,,60,62
12920,note_on,80,0,2,,,,,,,,,1,,,60,101
12920,note_on,20,0,3,,,,,,,,,2,,,87,0
12924,note_on,4,0,1,,,,,,,,,0,,,81,36
12925,note_on,1,0,1,,,,,,,,,0,,,84,0
12929,note_on,4,0,1,,,,,,,,,0,,,81,0
12930,note_on,1,0,1,,,,,,,,,0,,,77,36
12934,set_tempo,15,1,0,,,,,,3529412,,,,,,,
12935,note_on,0,0,1,,,,,,,,,0,,,75,36
12935,note_on,5,0,1,,,,,,,,,0,,,77,0
12939,note_on,0,0,3,,,,,,,,,2,,,65,62
12939,note_on,19,0,3,,,,,,,,,2,,,63,62
12939,note_on,4,0,1,,,,,,,,,0,,,72,36
12940,note_on,1,0,1,,,,,,,,,0,,,75,0
12940,note_on,1,0,3,,,,,,,,,2,,,72,0
12940,note_on,0,0,3,,,,,,,,,2,,,60,0
12944,note_on,4,0,1,,,,,,,,,0,,,72,0
12945,note_on,1,0,1,,,,,,,,,0,,,69,36
12949,set_tempo,15,1,0,,,,,,4000000,,,,,,,
12950,note_on,0,0,1,,,,,,,,,0,,,65,36
12950,note_on,5,0,1,,,,,,,,,0,,,69,0
12954,note_on,0,0,1,,,,,,,,,0,,,63,36
12954,control_change,4,0,1,,,,,,,,,0,64,0,,
12955,note_on,1,0,1,,,,,,,,,0,,,65,0
12959,note_on,4,0,1,,,,,,,,,0,,,63,0
12959,note_on,19,0,3,,,,,,,,,2,,,63,0
12959,note_on,0,0,3,,,,,,,,,2,,,65,0
12960,note_on,40,0,2,,,,,,,,,1,,,72,0
12960,note_on,0,0,1,,,,,,,,,0,,,62,57
12960,note_on,0,0,1,,,,,,,,,0,,,58,52
12960,set_tempo,0,1,0,,,,,,2068966,,,,,,,
12960,time_signature,11,1,0,4,4,24,8,,,,,,,,,
12960,note_on,0,0,4,,,,,,,,,3,,,46,36
12960,note_on,0,0,4,,,,,,,,,3,,,41,36
12960,control_change,60,0,4,,,,,,,,,3,64,127,,
12960,control_change,1,0,1,,,,,,,,,0,64,127,,
12960,note_on,0,0,2,,,,,,,,,1,,,60,0
12960,control_change,1,0,3,,,,,,,,,2,64,127,,
12960,note_on,0,0,1,,,,,,,,,0,,,70,62
12960,note_on,0,0,4,,,,,,,,,3,,,34,36
12964,set_tempo,4,1,0,,,,,,2142857,,,,,,,
12980,note_on,0,0,4,,,,,,,,,3,,,34,0
12980,note_on,0,0,4,,,,,,,,,3,,,41,0
12980,note_on,0,0,3,,,,,,,,,2,,,53,62
12980,note_on,20,0,4,,,,,,,,,3,,,46,0
12980,note_on,0,0,1,,,,,,,,,0,,,65,36
12980,note_on,0,0,1,,,,,,,,,0,,,62,36
12980,note_on,0,0,1,,,,,,,,,0,,,62,0
12980,note_on,20,0,1,,,,,,,,,0,,,70,0
12980,note_on,0,0,1,,,,,,,,,0,,,58,0
12980,note_on,0,0,3,,,,,,,,,2,,,58,62
12980,note_on,20,0,3,,,,,,,,,2,,,50,62
12999,note_on,19,0,3,,,,,,,,,2,,,53,62
12999,note_on,0,0,3,,,,,,,,,2,,,62,62
12999,note_on,19,0,1,,,,,,,,,0,,,65,36
12999,note_on,0,0,1,,,,,,,,,0,,,70,36
12999,note_on,0,0,3,,,,,,,,,2,,,58,62
13000,note_on,1,0,1,,,,,,,,,0,,,65,0
13000,note_on,0,0,1,,,,,,,,,0,,,62,0
13000,note_on,0,0,3,,,,,,,,,2,,,50,0
13000,note_on,0,0,3,,,,,,,,,2,,,53,0
13000,note_on,1,0,3,,,,,,,,,2,,,58,0
13019,note_on,0,0,1,,,,,,,,,0,,,70,0
13019,note_on,19,0,1,,,,,,,,,0,,,65,0
13019,note_on,0,0,3,,,,,,,,,2,,,58,0
13019,note_on,0,0,3,,,,,,,,,2,,,62,0
13019,note_on,19,0,3,,,,,,,,,2,,,53,0
13020,note_on,1,0,1,,,,,,,,,0,,,74,36
13020,note_on,0,0,3,,,,,,,,,2,,,65,62
13020,note_on,1,0,3,,,,,,,,,2,,,58,62
13020,note_on,0,0,1,,,,,,,,,0,,,77,36
13020,note_on,0,0,1,,,,,,,,,0,,,86,36
13020,note_on,0,0,3,,,,,,,,,2,,,70,62
13040,note_on,0,0,3,,,,,,,,,2,,,58,0
13040,note_on,0,0,1,,,,,,,,,0,,,82,36
13040,note_on,0,0,3,,,,,,,,,2,,,65,62
13040,note_on,20,0,1,,,,,,,,,0,,,86,0
13040,note_on,0,0,1,,,,,,,,,0,,,74,0
13040,note_on,0,0,3,,,,,,,,,2,,,65,0
13040,note_on,0,0,1,,,,,,,,,0,,,77,0
13040,note_on,0,0,1,,,,,,,,,0,,,77,36
13040,note_on,0,0,3,,,,,,,,,2,,,62,62
13040,note_on,20,0,3,,,,,,,,,2,,,70,0
13040,note_on,0,0,1,,,,,,,,,0,,,74,36
13059,note_on,19,0,3,,,,,,,,,2,,,65,62
13059,note_on,0,0,1,,,,,,,,,0,,,77,36
13059,note_on,19,0,1,,,,,,,,,0,,,74,36
13059,note_on,0,0,3,,,,,,,,,2,,,70,62
13060,note_on,1,0,3,,,,,,,,,2,,,65,0
13060,note_on,1,0,1,,,,,,,,,0,,,82,0
13060,note_on,0,0,1,,,,,,,,,0,,,74,0
13060,note_on,0,0,3,,,,,,,,,2,,,62,0
13060,note_on,0,0,1,,,,,,,,,0,,,77,0
13079,note_on,19,0,3,,,,,,,,,2,,,65,0
13079,note_on,0,0,3,,,,,,,,,2,,,70,0
13079,note_on,0,0,1,,,,,,,,,0,,,77,0
13079,note_on,19,0,1,,,,,,,,,0,,,74,0
13080,note_on,0,0,4,,,,,,,,,3,,,46,36
13080,note_on,100,0,4,,,,,,,,,3,,,34,36
13100,note_on,0,0,3,,,,,,,,,2,,,53,62
13100,note_on,0,0,3,,,,,,,,,2,,,58,62
13100,note_on,20,0,4,,,,,,,,,3,,,46,0
13100,note_on,0,0,1,,,,,,,,,0,,,65,49
13100,note_on,21,0,1,,,,,,,,,0,,,62,49
13100,note_on,0,0,4,,,,,,,,,3,,,34,0
13100,note_on,21,0,3,,,,,,,,,2,,,50,62
13119,note_on,19,0,1,,,,,,,,,0,,,65,49
13119,note_on,0,0,3,,,,,,,,,2,,,58,62
13119,note_on,0,0,1,,,,,,,,,0,,,70,49
13119,note_on,0,0,3,,,,,,,,,2,,,62,62
13119,note_on,19,0,3,,,,,,,,,2,,,53,62
13120,note_on,0,0,1,,,,,,,,,0,,,62,0
13120,note_on,0,0,3,,,,,,,,,2,,,53,0
13120,note_on,1,0,3,,,,,,,,,2,,,58,0
13120,note_on,0,0,3,,,,,,,,,2,,,50,0
13120,note_on,1,0,1,,,,,,,,,0,,,65,0
13139,note_on,0,0,1,,,,,,,,,0,,,70,0
13139,note_on,0,0,3,,,,,,,,,2,,,58,0
13139,note_on,19,0,1,,,,,,,,,0,,,65,0
13139,note_on,19,0,3,,,,,,,,,2,,,53,0
13139,note_on,0,0,3,,,,,,,,,2,,,62,0
13140,set_tempo,176,1,0,,,,,,2068966,,,,,,,
13140,note_on,1,0,3,,,,,,,,,2,,,65,80
13140,note_on,180,0,2,,,,,,,,,1,,,86,75
13140,note_on,0,0,1,,,,,,,,,0,,,77,75
13140,note_on,0,0,3,,,,,,,,,2,,,70,88
13140,note_on,40,0,4,,,,,,,,,3,,,62,62
13140,note_on,1,0,1,,,,,,,,,0,,,74,67
13160,note_on,0,0,1,,,,,,,,,0,,,77,49
13160,note_on,0,0,1,,,,,,,,,0,,,74,49
13160,note_on,20,0,1,,,,,,,,,0,,,77,0
13160,note_on,0,0,3,,,,,,,,,2,,,58,62
13160,note_on,0,0,3,,,,,,,,,2,,,62,62
13160,note_on,0,0,3,,,,,,,,,2,,,65,0
13160,note_on,0,0,3,,,,,,,,,2,,,65,62
13160,note_on,20,0,3,,,,,,,,,2,,,70,0
13160,note_on,0,0,1,,,,,,,,,0,,,82,49
13160,note_on,0,0,1,,,,,,,,,0,,,74,0
13179,control_change,39,0,4,,,,,,,,,3,64,0,,
13179,control_change,19,0,3,,,,,,,,,2,64,0,,
13179,note_on,0,0,1,,,,,,,,,0,,,77,49
13179,note_on,0,0,1,,,,,,,,,0,,,74,49
13179,control_change,19,0,1,,,,,,,,,0,64,0,,
13179,note_on,0,0,3,,,,,,,,,2,,,70,62
13179,note_on,0,0,3,,,,,,,,,2,,,65,62
13179,note_on,0,0,3,,,,,,,,,2,,,62,62
13180,note_on,1,0,3,,,,,,,,,2,,,65,0
13180,note_on,0,0,1,,,,,,,,,0,,,74,0
13180,note_on,0,0,3,,,,,,,,,2,,,62,0
13180,note_on,1,0,1,,,,,,,,,0,,,82,0
13180,note_on,0,0,3,,,,,,,,,2,,,58,0
13180,note_on,0,0,1,,,,,,,,,0,,,77,0
13199,note_on,19,0,3,,,,,,,,,2,,,62,0
13199,note_on,0,0,1,,,,,,,,,0,,,77,0
13199,note_on,19,0,1,,,,,,,,,0,,,74,0
13199,note_on,0,0,3,,,,,,,,,2,,,70,0
13199,note_on,0,0,3,,,,,,,,,2,,,65,0
13200,control_change,1,0,1,,,,,,,,,0,64,127,,
13200,note_on,21,0,4,,,,,,,,,3,,,62,0
13200,control_change,1,0,3,,,,,,,,,2,64,127,,
13200,note_on,0,0,4,,,,,,,,,3,,,46,49
13200,note_on,0,0,4,,,,,,,,,3,,,34,49
13200,note_on,60,0,2,,,,,,,,,1,,,86,0
13200,control_change,0,0,4,,,,,,,,,3,64,127,,
13200,set_tempo,60,1,0,,,,,,2000000,,,,,,,
13220,note_on,0,0,1,,,,,,,,,0,,,70,62
13220,note_on,0,0,1,,,,,,,,,0,,,65,62
13220,note_on,0,0,4,,,,,,,,,3,,,34,0
13220,note_on,20,0,3,,,,,,,,,2,,,50,49
13220,note_on,0,0,3,,,,,,,,,2,,,58,49
13220,note_on,0,0,3,,,,,,,,,2,,,53,49
13220,note_on,20,0,1,,,,,,,,,0,,,62,62
13220,note_on,20,0,4,,,,,,,,,3,,,46,0
13239,note_on,19,0,3,,,,,,,,,2,,,53,49
13239,note_on,0,0,3,,,,,,,,,2,,,58,49
13239,note_on,0,0,1,,,,,,,,,0,,,74,62
13239,note_on,19,0,1,,,,,,,,,0,,,65,62
13239,note_on,0,0,1,,,,,,,,,0,,,70,62
13239,note_on,0,0,3,,,,,,,,,2,,,62,49
13240,note_on,0,0,3,,,,,,,,,2,,,53,0
13240,note_on,1,0,1,,,,,,,,,0,,,70,0
13240,note_on,0,0,1,,,,,,,,,0,,,65,0
13240,note_on,0,0,1,,,,,,,,,0,,,62,0
13240,note_on,1,0,3,,,,,,,,,2,,,58,0
13240,note_on,0,0,3,,,,,,,,,2,,,50,0
13259,note_on,0,0,1,,,,,,,,,0,,,70,0
13259,note_on,0,0,1,,,,,,,,,0,,,74,0
13259,note_on,0,0,3,,,,,,,,,2,,,58,0
13259,note_on,19,0,3,,,,,,,,,2,,,53,0
13259,note_on,19,0,1,,,,,,,,,0,,,65,0
13259,note_on,0,0,3,,,,,,,,,2,,,62,0
13260,set_tempo,60,1,0,,,,,,1935484,,,,,,,
13260,note_on,0,0,3,,,,,,,,,2,,,74,75
13260,note_on,1,0,1,,,,,,,,,0,,,77,80
13260,note_on,40,0,4,,,,,,,,,3,,,65,75
13260,note_on,0,0,1,,,,,,,,,0,,,82,88
13260,note_on,1,0,3,,,,,,,,,2,,,70,67
13260,note_on,60,0,2,,,,,,,,,1,,,89,88
13280,note_on,0,0,3,,,,,,,,,2,,,70,49
13280,note_on,0,0,3,,,,,,,,,2,,,62,49
13280,note_on,0,0,1,,,,,,,,,0,,,77,0
13280,note_on,0,0,3,,,,,,,,,2,,,70,0
13280,note_on,0,0,3,,,,,,,,,2,,,65,49
13280,note_on,0,0,1,,,,,,,,,0,,,77,62
13280,note_on,20,0,3,,,,,,,,,2,,,74,0
13280,note_on,0,0,1,,,,,,,,,0,,,82,62
13280,note_on,0,0,1,,,,,,,,,0,,,86,62
13280,note_on,20,0,1,,,,,,,,,0,,,82,0
13299,note_on,0,0,3,,,,,,,,,2,,,70,49
13299,control_change,39,0,4,,,,,,,,,3,64,0,,
13299,note_on,0,0,3,,,,,,,,,2,,,74,49
13299,control_change,19,0,1,,,,,,,,,0,64,0,,
13299,note_on,0,0,3,,,,,,,,,2,,,65,49
13299,note_on,0,0,1,,,,,,,,,0,,,82,62
13299,note_on,0,0,1,,,,,,,,,0,,,77,62
13299,control_change,19,0,3,,,,,,,,,2,64,0,,
13300,note_on,0,0,1,,,,,,,,,0,,,82,0
13300,note_on,1,0,3,,,,,,,,,2,,,70,0
13300,note_on,0,0,3,,,,,,,,,2,,,65,0
13300,note_on,0,0,3,,,,,,,,,2,,,62,0
13300,note_on,0,0,1,,,,,,,,,0,,,77,0
13300,note_on,1,0,1,,,,,,,,,0,,,86,0
13319,note_on,0,0,1,,,,,,,,,0,,,82,0
13319,note_on,0,0,3,,,,,,,,,2,,,74,0
13319,note_on,0,0,3,,,,,,,,,2,,,70,0
13319,note_on,19,0,3,,,,,,,,,2,,,65,0
13319,note_on,19,0,1,,,,,,,,,0,,,77,0
13320,note_on,21,0,4,,,,,,,,,3,,,65,0
13320,note_on,60,0,2,,,,,,,,,1,,,89,0
13320,note_on,0,0,4,,,,,,,,,3,,,34,62
13320,note_on,0,0,4,,,,,,,,,3,,,46,62
13320,control_change,1,0,3,,,,,,,,,2,64,127,,
13320,set_tempo,60,1,0,,,,,,1818182,,,,,,,
13320,control_change,1,0,1,,,,,,,,,0,64,127,,
13320,control_change,0,0,4,,,,,,,,,3,64,127,,
13340,note_on,0,0,4,,,,,,,,,3,,,34,0
13340,note_on,20,0,3,,,,,,,,,2,,,53,62
13340,note_on,20,0,1,,,,,,,,,0,,,65,75
13340,note_on,0,0,3,,,,,,,,,2,,,62,62
13340,note_on,0,0,3,,,,,,,,,2,,,56,62
13340,note_on,0,0,1,,,,,,,,,0,,,74,75
13340,note_on,20,0,4,,,,,,,,,3,,,46,0
13340,note_on,0,0,1,,,,,,,,,0,,,68,75
13359,note_on,0,0,3,,,,,,,,,2,,,62,62
13359,note_on,19,0,3,,,,,,,,,2,,,56,62
13359,note_on,0,0,3,,,,,,,,,2,,,65,62
13359,note_on,0,0,1,,,,,,,,,0,,,74,75
13359,note_on,0,0,1,,,,,,,,,0,,,77,75
13359,note_on,19,0,1,,,,,,,,,0,,,68,75
13360,note_on,0,0,3,,,,,,,,,2,,,53,0
13360,note_on,0,0,1,,,,,,,,,0,,,68,0
13360,note_on,0,0,1,,,,,,,,,0,,,65,0
13360,note_on,1,0,1,,,,,,,,,0,,,74,0
13360,note_on,1,0,3,,,,,,,,,2,,,62,0
13360,note_on,0,0,3,,,,,,,,,2,,,56,0
13379,note_on,19,0,1,,,,,,,,,0,,,68,0
13379,note_on,19,0,3,,,,,,,,,2,,,56,0
13379,note_on,0,0,3,,,,,,,,,2,,,62,0
13379,note_on,0,0,3,,,,,,,,,2,,,65,0
13379,note_on,0,0,1,,,,,,,,,0,,,77,0
13379,note_on,0,0,1,,,,,,,,,0,,,74,0
13380,note_on,1,0,3,,,,,,,,,2,,,74,80
13380,note_on,60,0,2,,,,,,,,,1,,,92,127
13380,note_on,40,0,4,,,,,,,,,3,,,68,88
13380,note_on,0,0,1,,,,,,,,,0,,,86,101
13380,note_on,0,0,3,,,,,,,,,2,,,77,88
13380,note_on,1,0,1,,,,,,,,,0,,,80,93
13380,set_tempo,60,1,0,,,,,,1764706,,,,,,,
13400,note_on,20,0,1,,,,,,,,,0,,,86,0
13400,note_on,20,0,3,,,,,,,,,2,,,77,0
13400,note_on,0,0,1,,,,,,,,,0,,,80,75
13400,note_on,0,0,1,,,,,,,,,0,,,80,0
13400,note_on,0,0,3,,,,,,,,,2,,,74,0
13400,note_on,0,0,3,,,,,,,,,2,,,74,62
13400,note_on,0,0,1,,,,,,,,,0,,,86,75
13400,note_on,0,0,1,,,,,,,,,0,,,89,75
13400,note_on,0,0,3,,,,,,,,,2,,,68,62
13400,note_on,0,0,3,,,,,,,,,2,,,65,62
13419,control_change,39,0,4,,,,,,,,,3,64,0,,
13419,note_on,0,0,3,,,,,,,,,2,,,68,62
13419,note_on,0,0,3,,,,,,,,,2,,,74,62
13419,note_on,0,0,1,,,,,,,,,0,,,80,75
13419,note_on,0,0,1,,,,,,,,,0,,,86,75
13419,control_change,19,0,1,,,,,,,,,0,64,0,,
13419,note_on,0,0,3,,,,,,,,,2,,,77,62
13419,control_change,19,0,3,,,,,,,,,2,64,0,,
13420,note_on,0,0,3,,,,,,,,,2,,,68,0
13420,note_on,1,0,3,,,,,,,,,2,,,74,0
13420,note_on,0,0,1,,,,,,,,,0,,,80,0
13420,note_on,0,0,1,,,,,,,,,0,,,86,0
13420,note_on,0,0,3,,,,,,,,,2,,,65,0
13420,note_on,1,0,1,,,,,,,,,0,,,89,0
13439,note_on,19,0,3,,,,,,,,,2,,,68,0
13439,note_on,0,0,3,,,,,,,,,2,,,74,0
13439,note_on,0,0,1,,,,,,,,,0,,,86,0
13439,note_on,19,0,1,,,,,,,,,0,,,80,0
13439,note_on,0,0,3,,,,,,,,,2,,,77,0
13440,control_change,1,0,1,,,,,,,,,0,64,127,,
13440,note_on,21,0,4,,,,,,,,,3,,,68,0
13440,control_change,0,0,4,,,,,,,,,3,64,127,,
13440,set_tempo,60,1,0,,,,,,1714286,,,,,,,
13440,control_change,1,0,3,,,,,,,,,2,64,127,,
13440,note_on,0,0,4,,,,,,,,,3,,,34,75
13440,note_on,0,0,4,,,,,,,,,3,,,46,75
13440,note_on,60,0,2,,,,,,,,,1,,,92,0
13460,note_on,0,0,3,,,,,,,,,2,,,55,75
13460,note_on,0,0,1,,,,,,,,,0,,,67,88
13460,note_on,0,0,1,,,,,,,,,0,,,70,88
13460,note_on,0,0,3,,,,,,,,,2,,,58,75
13460,note_on,20,0,3,,,,,,,,,2,,,51,75
13460,note_on,20,0,1,,,,,,,,,0,,,63,88
13479,note_on,19,0,3,,,,,,,,,2,,,55,75
13479,note_on,19,0,1,,,,,,,,,0,,,67,88
13479,note_on,0,0,1,,,,,,,,,0,,,70,88
13479,note_on,0,0,1,,,,,,,,,0,,,75,88
13479,note_on,0,0,3,,,,,,,,,2,,,63,75
13479,note_on,0,0,3,,,,,,,,,2,,,58,75
13480,note_on,0,0,3,,,,,,,,,2,,,55,0
13480,note_on,0,0,3,,,,,,,,,2,,,51,0
13480,note_on,1,0,3,,,,,,,,,2,,,58,0
13480,note_on,1,0,1,,,,,,,,,0,,,70,0
13480,note_on,0,0,1,,,,,,,,,0,,,63,0
13480,note_on,0,0,1,,,,,,,,,0,,,67,0
13499,note_on,0,0,3,,,,,,,,,2,,,58,0
13499,note_on,0,0,3,,,,,,,,,2,,,63,0
13499,note_on,19,0,3,,,,,,,,,2,,,55,0
13499,note_on,0,0,1,,,,,,,,,0,,,75,0
13499,note_on,19,0,1,,,,,,,,,0,,,67,0
13499,note_on,0,0,1,,,,,,,,,0,,,70,0
13500,note_on,0,0,1,,,,,,,,,0,,,82,109
13500,note_on,1,0,1,,,,,,,,,0,,,79,104
13500,note_on,0,0,1,,,,,,,,,0,,,91,114
13500,control_change,0,0,4,,,,,,,,,3,64,0,,
13500,note_on,0,0,4,,,,,,,,,3,,,34,0
13500,note_on,0,0,4,,,,,,,,,3,,,67,101
13500,note_on,0,0,3,,,,,,,,,2,,,75,101
13500,set_tempo,60,1,0,,,,,,1621622,,,,,,,
13500,note_on,60,0,4,,,,,,,,,3,,,46,0
13500,note_on,1,0,3,,,,,,,,,2,,,70,93
13520,note_on,0,0,3,,,,,,,,,2,,,67,75
13520,note_on,0,0,3,,,,,,,,,2,,,70,0
13520,note_on,0,0,3,,,,,,,,,2,,,70,75
13520,note_on,0,0,3,,,,,,,,,2,,,63,75
13520,note_on,20,0,1,,,,,,,,,0,,,82,0
13520,note_on,0,0,1,,,,,,,,,0,,,79,88
13520,note_on,0,0,1,,,,,,,,,0,,,82,88
13520,note_on,0,0,1,,,,,,,,,0,,,79,0
13520,note_on,0,0,1,,,,,,,,,0,,,87,88
13520,note_on,20,0,3,,,,,,,,,2,,,75,0
13539,note_on,0,0,3,,,,,,,,,2,,,70,75
13539,note_on,0,0,3,,,,,,,,,2,,,75,75
13539,note_on,0,0,3,,,,,,,,,2,,,67,75
13539,control_change,19,0,3,,,,,,,,,2,64,0,,
13539,note_on,0,0,1,,,,,,,,,0,,,79,88
13539,note_on,0,0,1,,,,,,,,,0,,,82,88
13539,control_change,19,0,1,,,,,,,,,0,64,0,,
13540,note_on,0,0,1,,,,,,,,,0,,,82,0
13540,note_on,0,0,3,,,,,,,,,2,,,63,0
13540,note_on,1,0,1,,,,,,,,,0,,,87,0
13540,note_on,0,0,1,,,,,,,,,0,,,79,0
13540,note_on,0,0,3,,,,,,,,,2,,,67,0
13540,note_on,1,0,3,,,,,,,,,2,,,70,0
13540,note_on,0,0,1,,,,,,,,,0,,,91,0
13559,note_on,0,0,3,,,,,,,,,2,,,70,0
13559,note_on,19,0,3,,,,,,,,,2,,,67,0
13559,note_on,19,0,1,,,,,,,,,0,,,82,0
13559,note_on,0,0,1,,,,,,,,,0,,,79,0
13559,note_on,0,0,3,,,,,,,,,2,,,75,0
13560,note_on,0,0,4,,,,,,,,,3,,,46,88
13560,note_on,0,0,4,,,,,,,,,3,,,34,88
13560,control_change,1,0,3,,,,,,,,,2,64,127,,
13560,note_on,60,0,4,,,,,,,,,3,,,67,0
13560,set_tempo,60,1,0,,,,,,1578947,,,,,,,
13560,control_change,1,0,1,,,,,,,,,0,64,127,,
13560,control_change,0,0,4,,,,,,,,,3,64,127,,
13580,note_on,20,0,1,,,,,,,,,0,,,63,101
13580,note_on,0,0,1,,,,,,,,,0,,,69,101
13580,note_on,0,0,3,,,,,,,,,2,,,54,88
13580,note_on,20,0,3,,,,,,,,,2,,,51,88
13580,note_on,0,0,1,,,,,,,,,0,,,66,101
13580,note_on,0,0,3,,,,,,,,,2,,,60,88
13599,note_on,0,0,3,,,,,,,,,2,,,60,88
13599,note_on,0,0,3,,,,,,,,,2,,,63,88
13599,note_on,0,0,1,,,,,,,,,0,,,69,101
13599,note_on,0,0,1,,,,,,,,,0,,,75,101
13599,note_on,19,0,3,,,,,,,,,2,,,54,88
13599,note_on,19,0,1,,,,,,,,,0,,,66,101
13600,note_on,0,0,3,,,,,,,,,2,,,54,0
13600,note_on,1,0,1,,,,,,,,,0,,,69,0
13600,note_on,1,0,3,,,,,,,,,2,,,60,0
13600,note_on,0,0,3,,,,,,,,,2,,,51,0
13600,note_on,0,0,1,,,,,,,,,0,,,63,0
13600,note_on,0,0,1,,,,,,,,,0,,,66,0
13619,note_on,0,0,3,,,,,,,,,2,,,60,0
13619,note_on,0,0,3,,,,,,,,,2,,,63,0
13619,note_on,0,0,1,,,,,,,,,0,,,69,0
13619,note_on,0,0,1,,,,,,,,,0,,,75,0
13619,note_on,19,0,1,,,,,,,,,0,,,66,0
13619,note_on,19,0,3,,,,,,,,,2,,,54,0
13620,note_on,1,0,3,,,,,,,,,2,,,72,106
13620,note_on,1,0,1,,,,,,,,,0,,,78,117
13620,note_on,0,0,3,,,,,,,,,2,,,75,114
13620,note_on,60,0,4,,,,,,,,,3,,,46,0
13620,note_on,0,0,4,,,,,,,,,3,,,34,0
13620,note_on,0,0,4,,,,,,,,,3,,,66,114
13620,note_on,0,0,1,,,,,,,,,0,,,90,127
13620,control_change,0,0,4,,,,,,,,,3,64,0,,
13620,note_on,0,0,1,,,,,,,,,0,,,81,122
13640,note_on,0,0,3,,,,,,,,,2,,,72,88
13640,note_on,0,0,3,,,,,,,,,2,,,66,88
13640,note_on,0,0,3,,,,,,,,,2,,,63,88
13640,note_on,0,0,1,,,,,,,,,0,,,81,101
13640,note_on,20,0,3,,,,,,,,,2,,,75,0
13640,note_on,0,0,1,,,,,,,,,0,,,78,0
13640,note_on,0,0,3,,,,,,,,,2,,,72,0
13640,note_on,0,0,1,,,,,,,,,0,,,78,101
13640,note_on,20,0,1,,,,,,,,,0,,,81,0
13640,note_on,0,0,1,,,,,,,,,0,,,87,101
13659,control_change,19,0,3,,,,,,,,,2,64,0,,
13659,note_on,0,0,1,,,,,,,,,0,,,81,101
13659,note_on,0,0,3,,,,,,,,,2,,,75,88
13659,note_on,0,0,3,,,,,,,,,2,,,72,88
13659,note_on,0,0,3,,,,,,,,,2,,,66,88
13659,note_on,0,0,1,,,,,,,,,0,,,78,101
13659,control_change,19,0,1,,,,,,,,,0,64,0,,
13660,note_on,0,0,1,,,,,,,,,0,,,78,0
13660,note_on,0,0,3,,,,,,,,,2,,,66,0
13660,note_on,0,0,3,,,,,,,,,2,,,63,0
13660,note_on,0,0,1,,,,,,,,,0,,,81,0
13660,note_on,0,0,1,,,,,,,,,0,,,90,0
13660,note_on,1,0,3,,,,,,,,,2,,,72,0
13660,note_on,1,0,1,,,,,,,,,0,,,87,0
13679,note_on,19,0,3,,,,,,,,,2,,,66,0
13679,note_on,0,0,3,,,,,,,,,2,,,75,0
13679,note_on,0,0,3,,,,,,,,,2,,,72,0
13679,note_on,0,0,1,,,,,,,,,0,,,78,0
13679,note_on,19,0,1,,,,,,,,,0,,,81,0
13680,note_on,0,0,4,,,,,,,,,3,,,46,101
13680,note_on,0,0,4,,,,,,,,,3,,,34,101
13680,control_change,1,0,1,,,,,,,,,0,64,127,,
13680,control_change,1,0,3,,,,,,,,,2,64,127,,
13680,control_change,0,0,4,,,,,,,,,3,64,127,,
13680,note_on,60,0,4,,,,,,,,,3,,,66,0
13700,note_on,0,0,3,,,,,,,,,2,,,58,101
13700,note_on,0,0,3,,,,,,,,,2,,,53,101
13700,note_on,20,0,1,,,,,,,,,0,,,62,114
13700,note_on,0,0,1,,,,,,,,,0,,,70,114
13700,note_on,0,0,1,,,,,,,,,0,,,65,114
13700,note_on,20,0,3,,,,,,,,,2,,,50,101
13719,note_on,0,0,3,,,,,,,,,2,,,58,101
13719,note_on,0,0,3,,,,,,,,,2,,,62,101
13719,note_on,19,0,3,,,,,,,,,2,,,53,101
13719,note_on,19,0,1,,,,,,,,,0,,,65,114
13719,note_on,0,0,1,,,,,,,,,0,,,74,114
13719,note_on,0,0,1,,,,,,,,,0,,,70,114
13720,note_on,0,0,1,,,,,,,,,0,,,65,0
13720,note_on,1,0,3,,,,,,,,,2,,,58,0
13720,note_on,0,0,1,,,,,,,,,0,,,62,0
13720,note_on,0,0,3,,,,,,,,,2,,,50,0
13720,note_on,0,0,3,,,,,,,,,2,,,53,0
13720,note_on,1,0,1,,,,,,,,,0,,,70,0
13739,note_on,19,0,3,,,,,,,,,2,,,53,0
13739,note_on,0,0,1,,,,,,,,,0,,,74,0
13739,note_on,0,0,3,,,,,,,,,2,,,58,0
13739,note_on,0,0,3,,,,,,,,,2,,,62,0
13739,note_on,0,0,1,,,,,,,,,0,,,70,0
13739,note_on,19,0,1,,,,,,,,,0,,,65,0
13740,note_on,0,0,4,,,,,,,,,3,,,34,0
13740,note_on,0,0,4,,,,,,,,,3,,,74,127
13740,note_on,1,0,3,,,,,,,,,2,,,65,119
13740,note_on,60,0,4,,,,,,,,,3,,,46,0
13740,note_on,0,0,1,,,,,,,,,0,,,82,127
13740,note_on,0,0,3,,,,,,,,,2,,,70,127
13740,note_on,0,0,1,,,,,,,,,0,,,89,127
13740,note_on,1,0,1,,,,,,,,,0,,,77,127
13740,control_change,0,0,4,,,,,,,,,3,64,0,,
13760,note_on,20,0,3,,,,,,,,,2,,,70,0
13760,note_on,0,0,1,,,,,,,,,0,,,82,114
13760,note_on,20,0,1,,,,,,,,,0,,,82,0
13760,note_on,0,0,1,,,,,,,,,0,,,77,114
13760,note_on,0,0,1,,,,,,,,,0,,,77,0
13760,note_on,0,0,3,,,,,,,,,2,,,62,101
13760,note_on,0,0,3,,,,,,,,,2,,,65,0
13760,note_on,0,0,3,,,,,,,,,2,,,65,101
13760,note_on,0,0,3,,,,,,,,,2,,,70,101
13760,note_on,0,0,1,,,,,,,,,0,,,86,114
13779,note_on,0,0,1,,,,,,,,,0,,,82,114
13779,control_change,19,0,3,,,,,,,,,2,64,0,,
13779,note_on,0,0,3,,,,,,,,,2,,,65,101
13779,control_change,19,0,1,,,,,,,,,0,64,0,,
13779,note_on,0,0,1,,,,,,,,,0,,,77,114
13779,note_on,0,0,3,,,,,,,,,2,,,74,101
13779,note_on,0,0,3,,,,,,,,,2,,,70,101
13780,note_on,1,0,3,,,,,,,,,2,,,70,0
13780,note_on,0,0,3,,,,,,,,,2,,,62,0
13780,note_on,0,0,3,,,,,,,,,2,,,65,0
13780,note_on,0,0,1,,,,,,,,,0,,,89,0
13780,note_on,1,0,1,,,,,,,,,0,,,86,0
13780,note_on,0,0,1,,,,,,,,,0,,,82,0
13780,note_on,0,0,1,,,,,,,,,0,,,77,0
13799,note_on,0,0,3,,,,,,,,,2,,,70,0
13799,note_on,0,0,3,,,,,,,,,2,,,74,0
13799,note_on,0,0,1,,,,,,,,,0,,,77,0
13799,note_on,19,0,1,,,,,,,,,0,,,82,0
13799,note_on,19,0,3,,,,,,,,,2,,,65,0
13800,control_change,0,0,4,,,,,,,,,3,64,127,,
13800,control_change,1,0,3,,,,,,,,,2,64,127,,
13800,note_on,0,0,4,,,,,,,,,3,,,34,101
13800,control_change,1,0,1,,,,,,,,,0,64,127,,
13800,note_on,60,0,4,,,,,,,,,3,,,74,0
13800,note_on,0,0,4,,,,,,,,,3,,,46,101
13820,note_on,0,0,3,,,,,,,,,2,,,52,101
13820,note_on,0,0,1,,,,,,,,,0,,,67,114
13820,note_on,0,0,1,,,,,,,,,0,,,64,114
13820,note_on,0,0,3,,,,,,,,,2,,,55,101
13820,note_on,20,0,1,,,,,,,,,0,,,61,114
13820,note_on,20,0,3,,,,,,,,,2,,,49,101
13839,note_on,19,0,3,,,,,,,,,2,,,52,101
13839,note_on,0,0,1,,,,,,,,,0,,,73,114
13839,note_on,0,0,1,,,,,,,,,0,,,67,114
13839,note_on,0,0,3,,,,,,,,,2,,,55,101
13839,note_on,0,0,3,,,,,,,,,2,,,61,101
13839,note_on,19,0,1,,,,,,,,,0,,,64,114
13840,note_on,0,0,3,,,,,,,,,2,,,52,0
13840,note_on,0,0,3,,,,,,,,,2,,,49,0
13840,note_on,1,0,3,,,,,,,,,2,,,55,0
13840,note_on,0,0,1,,,,,,,,,0,,,61,0
13840,note_on,0,0,1,,,,,,,,,0,,,64,0
13840,note_on,1,0,1,,,,,,,,,0,,,67,0
13859,note_on,0,0,3,,,,,,,,,2,,,55,0
13859,note_on,0,0,3,,,,,,,,,2,,,61,0
13859,note_on,19,0,1,,,,,,,,,0,,,64,0
13859,note_on,0,0,1,,,,,,,,,0,,,67,0
13859,note_on,0,0,1,,,,,,,,,0,,,73,0
13859,note_on,19,0,3,,,,,,,,,2,,,52,0
13860,note_on,1,0,3,,,,,,,,,2,,,64,119
13860,note_on,0,0,3,,,,,,,,,2,,,67,127
13860,note_on,0,0,4,,,,,,,,,3,,,34,0
13860,note_on,60,0,4,,,,,,,,,3,,,46,0
13860,note_on,1,0,1,,,,,,,,,0,,,76,127
13860,note_on,0,0,1,,,,,,,,,0,,,88,127
13860,note_on,0,0,4,,,,,,,,,3,,,73,127
13860,note_on,0,0,1,,,,,,,,,0,,,79,127
13860,control_change,0,0,4,,,,,,,,,3,64,0,,
13880,note_on,0,0,3,,,,,,,,,2,,,67,101
13880,note_on,20,0,1,,,,,,,,,0,,,79,0
13880,note_on,0,0,1,,,,,,,,,0,,,76,114
13880,note_on,0,0,3,,,,,,,,,2,,,61,101
13880,note_on,0,0,1,,,,,,,,,0,,,79,114
13880,note_on,0,0,3,,,,,,,,,2,,,64,0
13880,note_on,0,0,3,,,,,,,,,2,,,64,101
13880,note_on,0,0,1,,,,,,,,,0,,,85,114
13880,note_on,20,0,3,,,,,,,,,2,,,67,0
13880,note_on,0,0,1,,,,,,,,,0,,,76,0
13899,control_change,19,0,1,,,,,,,,,0,64,0,,
13899,note_on,0,0,3,,,,,,,,,2,,,67,101
13899,note_on,0,0,3,,,,,,,,,2,,,73,101
13899,control_change,19,0,3,,,,,,,,,2,64,0,,
13899,note_on,0,0,1,,,,,,,,,0,,,79,114
13899,note_on,0,0,1,,,,,,,,,0,,,76,114
13899,note_on,0,0,3,,,,,,,,,2,,,64,101
13900,note_on,0,0,3,,,,,,,,,2,,,61,0
13900,note_on,0,0,3,,,,,,,,,2,,,64,0
13900,note_on,0,0,1,,,,,,,,,0,,,79,0
13900,note_on,0,0,1,,,,,,,,,0,,,88,0
13900,note_on,1,0,3,,,,,,,,,2,,,67,0
13900,note_on,1,0,1,,,,,,,,,0,,,85,0
13900,note_on,0,0,1,,,,,,,,,0,,,76,0
13919,note_on,0,0,1,,,,,,,,,0,,,76,0
13919,note_on,19,0,3,,,,,,,,,2,,,64,0
13919,note_on,19,0,1,,,,,,,,,0,,,79,0
13919,note_on,0,0,3,,,,,,,,,2,,,73,0
13919,note_on,0,0,3,,,,,,,,,2,,,67,0
13920,control_change,0,0,4,,,,,,,,,3,64,127,,
13920,control_change,1,0,3,,,,,,,,,2,64,127,,
13920,note_on,0,0,4,,,,,,,,,3,,,46,88
13920,note_on,0,0,4,,,,,,,,,3,,,34,88
13920,note_on,60,0,4,,,,,,,,,3,,,73,0
13920,control_change,1,0,1,,,,,,,,,0,64,127,,
13940,note_on,0,0,3,,,,,,,,,2,,,54,88
13940,note_on,20,0,3,,,,,,,,,2,,,48,88
13940,note_on,0,0,1,,,,,,,,,0,,,66,101
13940,note_on,0,0,3,,,,,,,,,2,,,51,88
13940,note_on,20,0,1,,,,,,,,,0,,,60,101
13940,note_on,0,0,1,,,,,,,,,0,,,63,101
13959,note_on,0,0,1,,,,,,,,,0,,,72,101
13959,note_on,0,0,1,,,,,,,,,0,,,66,101
13959,note_on,0,0,3,,,,,,,,,2,,,60,88
13959,note_on,0,0,3,,,,,,,,,2,,,54,88
13959,note_on,19,0,3,,,,,,,,,2,,,51,88
13959,note_on,19,0,1,,,,,,,,,0,,,63,101
13960,note_on,0,0,1,,,,,,,,,0,,,60,0
13960,note_on,1,0,1,,,,,,,,,0,,,66,0
13960,note_on,1,0,3,,,,,,,,,2,,,54,0
13960,note_on,0,0,3,,,,,,,,,2,,,51,0
13960,note_on,0,0,3,,,,,,,,,2,,,48,0
13960,note_on,0,0,1,,,,,,,,,0,,,63,0
13979,note_on,19,0,1,,,,,,,,,0,,,63,0
13979,note_on,0,0,1,,,,,,,,,0,,,66,0
13979,note_on,19,0,3,,,,,,,,,2,,,51,0
13979,note_on,0,0,1,,,,,,,,,0,,,72,0
13979,note_on,0,0,3,,,,,,,,,2,,,54,0
13979,note_on,0,0,3,,,,,,,,,2,,,60,0
13980,note_on,60,0,4,,,,,,,,,3,,,46,0
13980,note_on,0,0,1,,,,,,,,,0,,,87,127
13980,note_on,0,0,1,,,,,,,,,0,,,78,122
13980,note_on,0,0,3,,,,,,,,,2,,,66,114
13980,note_on,0,0,4,,,,,,,,,3,,,34,0
13980,note_on,0,0,4,,,,,,,,,3,,,72,114
13980,note_on,1,0,3,,,,,,,,,2,,,63,106
13980,control_change,0,0,4,,,,,,,,,3,64,0,,
13980,note_on,1,0,1,,,,,,,,,0,,,75,117
14000,note_on,0,0,3,,,,,,,,,2,,,63,0
14000,note_on,0,0,3,,,,,,,,,2,,,63,88
14000,note_on,0,0,1,,,,,,,,,0,,,84,101
14000,note_on,20,0,3,,,,,,,,,2,,,66,0
14000,note_on,0,0,3,,,,,,,,,2,,,66,88
14000,note_on,20,0,1,,,,,,,,,0,,,78,0
14000,note_on,0,0,3,,,,,,,,,2,,,60,88
14000,note_on,0,0,1,,,,,,,,,0,,,75,0
14000,note_on,0,0,1,,,,,,,,,0,,,75,101
14000,note_on,0,0,1,,,,,,,,,0,,,78,101
14019,control_change,19,0,3,,,,,,,,,2,64,0,,
14019,note_on,0,0,3,,,,,,,,,2,,,63,88
14019,note_on,0,0,3,,,,,,,,,2,,,66,88
14019,note_on,0,0,1,,,,,,,,,0,,,78,101
14019,note_on,0,0,3,,,,,,,,,2,,,72,88
14019,control_change,19,0,1,,,,,,,,,0,64,0,,
14019,note_on,0,0,1,,,,,,,,,0,,,75,101
14020,note_on,0,0,3,,,,,,,,,2,,,60,0
14020,note_on,1,0,3,,,,,,,,,2,,,66,0
14020,note_on,0,0,1,,,,,,,,,0,,,75,0
14020,note_on,0,0,1,,,,,,,,,0,,,78,0
14020,note_on,0,0,3,,,,,,,,,2,,,63,0
14020,note_on,1,0,1,,,,,,,,,0,,,84,0
14020,note_on,0,0,1,,,,,,,,,0,,,87,0
14039,note_on,19,0,1,,,,,,,,,0,,,78,0
14039,note_on,0,0,3,,,,,,,,,2,,,66,0
14039,note_on,0,0,1,,,,,,,,,0,,,75,0
14039,note_on,19,0,3,,,,,,,,,2,,,63,0
14039,note_on,0,0,3,,,,,,,,,2,,,72,0
14040,control_change,1,0,3,,,,,,,,,2,64,127,,
14040,control_change,0,0,4,,,,,,,,,3,64,127,,
14040,control_change,1,0,1,,,,,,,,,0,64,127,,
14040,note_on,60,0,4,,,,,,,,,3,,,72,0
14040,note_on,0,0,4,,,,,,,,,3,,,46,75
14040,note_on,0,0,4,,,,,,,,,3,,,34,75
14060,note_on,0,0,1,,,,,,,,,0,,,66,88
14060,note_on,20,0,1,,,,,,,,,0,,,60,88
14060,note_on,0,0,3,,,,,,,,,2,,,54,75
14060,note_on,0,0,3,,,,,,,,,2,,,51,75
14060,note_on,20,0,3,,,,,,,,,2,,,48,75
14060,note_on,0,0,1,,,,,,,,,0,,,63,88
14079,note_on,0,0,1,,,,,,,,,0,,,66,88
14079,note_on,0,0,1,,,,,,,,,0,,,69,88
14079,note_on,0,0,3,,,,,,,,,2,,,54,75
14079,note_on,19,0,1,,,,,,,,,0,,,63,88
14079,note_on,0,0,3,,,,,,,,,2,,,57,75
14079,note_on,19,0,3,,,,,,,,,2,,,51,75
14080,note_on,1,0,3,,,,,,,,,2,,,54,0
14080,note_on,0,0,3,,,,,,,,,2,,,48,0
14080,note_on,0,0,3,,,,,,,,,2,,,51,0
14080,note_on,0,0,1,,,,,,,,,0,,,60,0
14080,note_on,1,0,1,,,,,,,,,0,,,66,0
14080,note_on,0,0,1,,,,,,,,,0,,,63,0
14099,note_on,0,0,1,,,,,,,,,0,,,69,0
14099,note_on,0,0,3,,,,,,,,,2,,,54,0
14099,note_on,19,0,1,,,,,,,,,0,,,63,0
14099,note_on,0,0,3,,,,,,,,,2,,,57,0
14099,note_on,19,0,3,,,,,,,,,2,,,51,0
14099,note_on,0,0,1,,,,,,,,,0,,,66,0
14100,note_on,0,0,3,,,,,,,,,2,,,66,101
14100,note_on,60,0,4,,,,,,,,,3,,,46,0
14100,control_change,0,0,4,,,,,,,,,3,64,0,,
14100,note_on,0,0,4,,,,,,,,,3,,,34,0
14100,note_on,0,0,4,,,,,,,,,3,,,69,101
14100,note_on,1,0,3,,,,,,,,,2,,,63,93
14100,note_on,1,0,1,,,,,,,,,0,,,72,104
14100,note_on,0,0,1,,,,,,,,,0,,,75,109
14100,note_on,0,0,1,,,,,,,,,0,,,84,114
14120,note_on,0,0,1,,,,,,,,,0,,,72,88
14120,note_on,0,0,3,,,,,,,,,2,,,66,75
14120,note_on,0,0,3,,,,,,,,,2,,,63,75
14120,note_on,0,0,1,,,,,,,,,0,,,75,88
14120,note_on,0,0,1,,,,,,,,,0,,,81,88
14120,note_on,0,0,1,,,,,,,,,0,,,72,0
14120,note_on,0,0,3,,,,,,,,,2,,,63,0
14120,note_on,20,0,3,,,,,,,,,2,,,66,0
14120,note_on,0,0,3,,,,,,,,,2,,,60,75
14120,note_on,20,0,1,,,,,,,,,0,,,75,0
14139,control_change,19,0,3,,,,,,,,,2,64,0,,
14139,note_on,0,0,3,,,,,,,,,2,,,63,75
14139,note_on,0,0,1,,,,,,,,,0,,,78,88
14139,note_on,0,0,3,,,,,,,,,2,,,66,75
14139,note_on,0,0,1,,,,,,,,,0,,,75,88
14139,note_on,0,0,1,,,,,,,,,0,,,72,88
14139,control_change,19,0,1,,,,,,,,,0,64,0,,
14140,note_on,0,0,1,,,,,,,,,0,,,84,0
14140,note_on,0,0,1,,,,,,,,,0,,,75,0
14140,note_on,0,0,1,,,,,,,,,0,,,72,0
14140,note_on,1,0,1,,,,,,,,,0,,,81,0
14140,note_on,0,0,3,,,,,,,,,2,,,60,0
14140,note_on,1,0,3,,,,,,,,,2,,,66,0
14140,note_on,0,0,3,,,,,,,,,2,,,63,0
14159,note_on,0,0,3,,,,,,,,,2,,,66,0
14159,note_on,19,0,3,,,,,,,,,2,,,63,0
14159,note_on,0,0,1,,,,,,,,,0,,,72,0
14159,note_on,0,0,1,,,,,,,,,0,,,75,0
14159,note_on,19,0,1,,,,,,,,,0,,,78,0
14160,control_change,1,0,3,,,,,,,,,2,64,127,,
14160,note_on,0,0,4,,,,,,,,,3,,,46,62
14160,note_on,0,0,4,,,,,,,,,3,,,34,62
14160,control_change,1,0,1,,,,,,,,,0,64,127,,
14160,control_change,0,0,4,,,,,,,,,3,64,127,,
14160,note_on,60,0,4,,,,,,,,,3,,,69,0
14180,note_on,0,0,3,,,,,,,,,2,,,54,62
14180,note_on,0,0,1,,,,,,,,,0,,,63,75
14180,note_on,20,0,1,,,,,,,,,0,,,57,75
14180,note_on,0,0,1,,,,,,,,,0,,,60,75
14180,note_on,20,0,3,,,,,,,,,2,,,48,62
14180,note_on,0,0,3,,,,,,,,,2,,,51,62
14199,note_on,0,0,1,,,,,,,,,0,,,66,75
14199,note_on,19,0,1,,,,,,,,,0,,,60,75
14199,note_on,0,0,3,,,,,,,,,2,,,57,62
14199,note_on,19,0,3,,,,,,,,,2,,,51,62
14199,note_on,0,0,3,,,,,,,,,2,,,54,62
14199,note_on,0,0,1,,,,,,,,,0,,,63,75
14200,note_on,1,0,3,,,,,,,,,2,,,54,0
14200,note_on,1,0,1,,,,,,,,,0,,,63,0
14200,note_on,0,0,3,,,,,,,,,2,,,51,0
14200,note_on,0,0,1,,,,,,,,,0,,,57,0
14200,note_on,0,0,3,,,,,,,,,2,,,48,0
14200,note_on,0,0,1,,,,,,,,,0,,,60,0
14219,note_on,0,0,3,,,,,,,,,2,,,57,0
14219,note_on,0,0,1,,,,,,,,,0,,,66,0
14219,note_on,19,0,3,,,,,,,,,2,,,51,0
14219,note_on,19,0,1,,,,,,,,,0,,,60,0
14219,note_on,0,0,3,,,,,,,,,2,,,54,0
14219,note_on,0,0,1,,,,,,,,,0,,,63,0
14220,note_on,0,0,1,,,,,,,,,0,,,81,101
14220,note_on,0,0,1,,,,,,,,,0,,,72,96
14220,note_on,0,0,4,,,,,,,,,3,,,66,88
14220,note_on,1,0,3,,,,,,,,,2,,,63,88
14220,note_on,1,0,1,,,,,,,,,0,,,69,91
14220,control_change,0,0,4,,,,,,,,,3,64,0,,
14220,note_on,60,0,4,,,,,,,,,3,,,46,0
14220,note_on,0,0,4,,,,,,,,,3,,,34,0
14240,note_on,0,0,1,,,,,,,,,0,,,69,0
14240,note_on,20,0,3,,,,,,,,,2,,,63,0
14240,note_on,0,0,1,,,,,,,,,0,,,69,75
14240,note_on,0,0,1,,,,,,,,,0,,,72,75
14240,note_on,0,0,1,,,,,,,,,0,,,78,75
14240,note_on,0,0,3,,,,,,,,,2,,,60,62
14240,note_on,0,0,3,,,,,,,,,2,,,63,62
14240,note_on,20,0,1,,,,,,,,,0,,,72,0
14259,note_on,0,0,1,,,,,,,,,0,,,75,75
14259,control_change,19,0,1,,,,,,,,,0,64,0,,
14259,note_on,0,0,3,,,,,,,,,2,,,63,62
14259,control_change,19,0,3,,,,,,,,,2,64,0,,
14259,note_on,0,0,3,,,,,,,,,2,,,66,62
14259,note_on,0,0,1,,,,,,,,,0,,,72,75
14259,note_on,0,0,1,,,,,,,,,0,,,69,75
14260,note_on,0,0,1,,,,,,,,,0,,,72,0
14260,note_on,0,0,1,,,,,,,,,0,,,69,0
14260,note_on,1,0,1,,,,,,,,,0,,,78,0
14260,note_on,1,0,3,,,,,,,,,2,,,63,0
14260,note_on,0,0,1,,,,,,,,,0,,,81,0
14260,note_on,0,0,3,,,,,,,,,2,,,60,0
14279,note_on,0,0,1,,,,,,,,,0,,,69,0
14279,note_on,0,0,3,,,,,,,,,2,,,66,0
14279,note_on,0,0,1,,,,,,,,,0,,,72,0
14279,note_on,19,0,3,,,,,,,,,2,,,63,0
14279,note_on,19,0,1,,,,,,,,,0,,,75,0
14280,control_change,1,0,3,,,,,,,,,2,64,127,,
14280,note_on,0,0,4,,,,,,,,,3,,,46,49
14280,control_change,1,0,1,,,,,,,,,0,64,127,,
14280,control_change,0,0,4,,,,,,,,,3,64,127,,
14280,note_on,60,0,4,,,,,,,,,3,,,66,0
14280,note_on,0,0,4,,,,,,,,,3,,,34,49
14295,set_tempo,735,1,0,,,,,,1621622,,,,,,,
14300,note_on,0,0,1,,,,,,,,,0,,,60,62
14300,note_on,20,0,3,,,,,,,,,2,,,51,49
14300,note_on,20,0,1,,,,,,,,,0,,,57,62
14300,note_on,0,0,3,,,,,,,,,2,,,54,49
14310,set_tempo,15,1,0,,,,,,1714286,,,,,,,
14319,note_on,19,0,1,,,,,,,,,0,,,60,62
14319,note_on,0,0,3,,,,,,,,,2,,,57,49
14319,note_on,0,0,1,,,,,,,,,0,,,63,62
14319,note_on,19,0,3,,,,,,,,,2,,,54,49
14320,note_on,0,0,3,,,,,,,,,2,,,51,0
14320,note_on,1,0,3,,,,,,,,,2,,,54,0
14320,note_on,1,0,1,,,,,,,,,0,,,60,0
14320,note_on,0,0,1,,,,,,,,,0,,,57,0
14325,set_tempo,15,1,0,,,,,,1818182,,,,,,,
14339,note_on,0,0,1,,,,,,,,,0,,,63,0
14339,note_on,19,0,1,,,,,,,,,0,,,60,0
14339,note_on,19,0,3,,,,,,,,,2,,,54,0
14339,note_on,0,0,3,,,,,,,,,2,,,57,0
14340,note_on,0,0,4,,,,,,,,,3,,,34,0
14340,note_on,60,0,4,,,,,,,,,3,,,46,0
14340,note_on,0,0,4,,,,,,,,,3,,,63,75
14340,note_on,1,0,3,,,,,,,,,2,,,60,75
14340,note_on,1,0,1,,,,,,,,,0,,,66,78
14340,set_tempo,15,1,0,,,,,,1935484,,,,,,,
14340,note_on,0,0,1,,,,,,,,,0,,,78,88
14340,note_on,0,0,1,,,,,,,,,0,,,69,83
14340,control_change,0,0,4,,,,,,,,,3,64,0,,
14355,set_tempo,15,1,0,,,,,,2068966,,,,,,,
14360,note_on,0,0,3,,,,,,,,,2,,,60,49
14360,note_on,0,0,1,,,,,,,,,0,,,75,62
14360,note_on,20,0,3,,,,,,,,,2,,,60,0
14360,note_on,0,0,1,,,,,,,,,0,,,69,62
14360,note_on,0,0,1,,,,,,,,,0,,,66,62
14360,note_on,0,0,1,,,,,,,,,0,,,66,0
14360,note_on,20,0,1,,,,,,,,,0,,,69,0
14360,note_on,0,0,3,,,,,,,,,2,,,54,49
14370,set_tempo,15,1,0,,,,,,2222222,,,,,,,
14379,control_change,19,0,3,,,,,,,,,2,64,0,,
14379,note_on,0,0,3,,,,,,,,,2,,,63,49
14379,note_on,0,0,1,,,,,,,,,0,,,66,62
14379,note_on,0,0,1,,,,,,,,,0,,,69,62
14379,control_change,19,0,1,,,,,,,,,0,64,0,,
14379,note_on,0,0,3,,,,,,,,,2,,,60,49
14379,note_on,0,0,1,,,,,,,,,0,,,72,62
14380,note_on,0,0,3,,,,,,,,,2,,,54,0
14380,note_on,1,0,3,,,,,,,,,2,,,60,0
14380,note_on,1,0,1,,,,,,,,,0,,,75,0
14380,note_on,0,0,1,,,,,,,,,0,,,78,0
14380,note_on,0,0,1,,,,,,,,,0,,,69,0
14380,note_on,0,0,1,,,,,,,,,0,,,66,0
14385,set_tempo,15,1,0,,,,,,2400000,,,,,,,
14399,note_on,19,0,3,,,,,,,,,2,,,60,0
14399,note_on,0,0,1,,,,,,,,,0,,,69,0
14399,note_on,0,0,3,,,,,,,,,2,,,63,0
14399,note_on,0,0,1,,,,,,,,,0,,,66,0
14399,note_on,19,0,1,,,,,,,,,0,,,72,0
14400,note_on,0,0,3,,,,,,,,,2,,,62,36
14400,control_change,1,0,3,,,,,,,,,2,64,127,,
14400,note_on,0,0,1,,,,,,,,,0,,,65,49
14400,control_change,1,0,1,,,,,,,,,0,64,127,,
14400,note_on,0,0,1,,,,,,,,,0,,,70,49
14400,note_on,0,0,1,,,,,,,,,0,,,77,49
14400,note_on,60,0,4,,,,,,,,,3,,,63,0
14400,note_on,0,0,3,,,,,,,,,2,,,53,36
14400,note_on,0,0,3,,,,,,,,,2,,,46,36
14400,set_tempo,15,1,0,,,,,,2142857,,,,,,,
14420,note_on,0,0,3,,,,,,,,,2,,,62,36
14420,note_on,0,0,1,,,,,,,,,0,,,65,0
14420,note_on,0,0,3,,,,,,,,,2,,,46,0
14420,note_on,0,0,3,,,,,,,,,2,,,53,0
14420,note_on,0,0,3,,,,,,,,,2,,,58,36
14420,note_on,0,0,1,,,,,,,,,0,,,65,49
14420,note_on,0,0,1,,,,,,,,,0,,,70,0
14420,note_on,20,0,1,,,,,,,,,0,,,77,0
14420,note_on,0,0,1,,,,,,,,,0,,,74,49
14420,note_on,20,0,3,,,,,,,,,2,,,62,0
14439,note_on,0,0,1,,,,,,,,,0,,,70,49
14439,note_on,19,0,3,,,,,,,,,2,,,53,36
14439,note_on,0,0,3,,,,,,,,,2,,,58,36
14439,note_on,19,0,1,,,,,,,,,0,,,62,49
14440,note_on,1,0,1,,,,,,,,,0,,,74,0
14440,note_on,1,0,3,,,,,,,,,2,,,62,0
14440,note_on,0,0,1,,,,,,,,,0,,,65,0
14440,note_on,0,0,3,,,,,,,,,2,,,58,0
14459,note_on,19,0,1,,,,,,,,,0,,,62,0
14459,note_on,0,0,1,,,,,,,,,0,,,70,0
14459,note_on,19,0,3,,,,,,,,,2,,,53,0
14459,note_on,0,0,3,,,,,,,,,2,,,58,0
14460,note_on,0,0,1,,,,,,,,,0,,,74,49
14460,note_on,0,0,1,,,,,,,,,0,,,65,49
14460,note_on,1,0,3,,,,,,,,,2,,,46,36
14460,note_on,1,0,1,,,,,,,,,0,,,62,49
14460,note_on,0,0,3,,,,,,,,,2,,,58,36
14460,note_on,0,0,3,,,,,,,,,2,,,53,36
14480,note_on,0,0,1,,,,,,,,,0,,,65,0
14480,note_on,0,0,1,,,,,,,,,0,,,62,49
14480,note_on,0,0,1,,,,,,,,,0,,,62,0
14480,note_on,0,0,3,,,,,,,,,2,,,53,36
14480,note_on,0,0,1,,,,,,,,,0,,,70,49
14480,note_on,20,0,1,,,,,,,,,0,,,74,0
14480,note_on,20,0,3,,,,,,,,,2,,,58,0
14480,note_on,0,0,3,,,,,,,,,2,,,58,36
14480,note_on,0,0,3,,,,,,,,,2,,,53,0
14480,note_on,0,0,3,,,,,,,,,2,,,46,0
14499,note_on,19,0,1,,,,,,,,,0,,,58,49
14499,note_on,0,0,1,,,,,,,,,0,,,65,49
14499,note_on,19,0,3,,,,,,,,,2,,,50,36
14499,note_on,0,0,3,,,,,,,,,2,,,53,36
14500,note_on,0,0,1,,,,,,,,,0,,,62,0
14500,note_on,0,0,3,,,,,,,,,2,,,53,0
14500,note_on,1,0,3,,,,,,,,,2,,,58,0
14500,note_on,1,0,1,,,,,,,,,0,,,70,0
14519,note_on,0,0,3,,,,,,,,,2,,,53,0
14519,note_on,19,0,3,,,,,,,,,2,,,50,0
14519,note_on,0,0,1,,,,,,,,,0,,,65,0
14519,note_on,19,0,1,,,,,,,,,0,,,58,0
14520,note_on,1,0,3,,,,,,,,,2,,,46,36
14520,note_on,0,0,3,,,,,,,,,2,,,53,36
14520,note_on,1,0,1,,,,,,,,,0,,,58,36
14520,note_on,0,0,1,,,,,,,,,0,,,70,36
14520,note_on,0,0,1,,,,,,,,,0,,,62,36
14540,note_on,0,0,1,,,,,,,,,0,,,62,0
14540,note_on,0,0,3,,,,,,,,,2,,,53,36
14540,note_on,0,0,1,,,,,,,,,0,,,65,36
14540,note_on,20,0,3,,,,,,,,,2,,,53,0
14540,note_on,0,0,3,,,,,,,,,2,,,50,36
14540,note_on,0,0,1,,,,,,,,,0,,,58,36
14540,note_on,0,0,1,,,,,,,,,0,,,58,0
14540,note_on,0,0,3,,,,,,,,,2,,,46,0
14540,note_on,20,0,1,,,,,,,,,0,,,70,0
14559,note_on,0,0,1,,,,,,,,,0,,,62,36
14559,note_on,0,0,3,,,,,,,,,2,,,50,36
14559,note_on,19,0,1,,,,,,,,,0,,,53,36
14559,note_on,19,0,3,,,,,,,,,2,,,46,36
14560,note_on,0,0,1,,,,,,,,,0,,,58,0
14560,note_on,1,0,3,,,,,,,,,2,,,53,0
14560,note_on,1,0,1,,,,,,,,,0,,,65,0
14560,note_on,0,0,3,,,,,,,,,2,,,50,0
14579,note_on,0,0,3,,,,,,,,,2,,,50,0
14579,note_on,0,0,1,,,,,,,,,0,,,62,0
14579,note_on,19,0,3,,,,,,,,,2,,,46,0
14579,note_on,19,0,1,,,,,,,,,0,,,53,0
14580,note_on,0,0,1,,,,,,,,,0,,,65,36
14580,note_on,0,0,3,,,,,,,,,2,,,50,36
14580,note_on,0,0,3,,,,,,,,,2,,,41,36
14580,note_on,0,0,1,,,,,,,,,0,,,58,36
14580,note_on,1,0,3,,,,,,,,,2,,,34,36
14580,note_on,1,0,1,,,,,,,,,0,,,53,36
14600,note_on,0,0,1,,,,,,,,,0,,,62,36
14600,note_on,0,0,3,,,,,,,,,2,,,50,36
14600,note_on,0,0,3,,,,,,,,,2,,,46,36
14600,note_on,0,0,1,,,,,,,,,0,,,58,0
14600,note_on,0,0,1,,,,,,,,,0,,,53,36
14600,note_on,0,0,3,,,,,,,,,2,,,41,0
14600,note_on,0,0,1,,,,,,,,,0,,,53,0
14600,note_on,20,0,3,,,,,,,,,2,,,50,0
14600,note_on,20,0,1,,,,,,,,,0,,,65,0
14600,note_on,0,0,3,,,,,,,,,2,,,34,0
14619,note_on,19,0,1,,,,,,,,,0,,,50,36
14619,note_on,0,0,3,,,,,,,,,2,,,46,36
14619,note_on,0,0,1,,,,,,,,,0,,,58,36
14619,note_on,19,0,3,,,,,,,,,2,,,41,36
14620,note_on,0,0,1,,,,,,,,,0,,,53,0
14620,note_on,0,0,3,,,,,,,,,2,,,46,0
14620,note_on,1,0,3,,,,,,,,,2,,,50,0
14620,note_on,1,0,1,,,,,,,,,0,,,62,0
14639,note_on,0,0,1,,,,,,,,,0,,,58,0
14639,note_on,0,0,3,,,,,,,,,2,,,46,0
14639,note_on,19,0,1,,,,,,,,,0,,,50,0
14639,note_on,19,0,3,,,,,,,,,2,,,41,0
14640,note_on,0,0,3,,,,,,,,,2,,,46,36
14640,note_on,0,0,3,,,,,,,,,2,,,41,36
14640,note_on,1,0,1,,,,,,,,,0,,,50,36
14640,note_on,1,0,3,,,,,,,,,2,,,34,36
14640,note_on,0,0,1,,,,,,,,,0,,,53,36
14640,note_on,0,0,1,,,,,,,,,0,,,62,36
14660,note_on,0,0,3,,,,,,,,,2,,,41,0
14660,note_on,0,0,3,,,,,,,,,2,,,41,36
14660,note_on,0,0,3,,,,,,,,,2,,,46,36
14660,note_on,0,0,1,,,,,,,,,0,,,53,0
14660,note_on,20,0,1,,,,,,,,,0,,,62,0
14660,note_on,0,0,1,,,,,,,,,0,,,50,36
14660,note_on,0,0,3,,,,,,,,,2,,,34,0
14660,note_on,0,0,1,,,,,,,,,0,,,58,36
14660,note_on,0,0,1,,,,,,,,,0,,,50,0
14660,note_on,20,0,3,,,,,,,,,2,,,46,0
14679,note_on,0,0,1,,,,,,,,,0,,,53,36
14679,note_on,19,0,3,,,,,,,,,2,,,38,36
14679,note_on,19,0,1,,,,,,,,,0,,,46,36
14679,note_on,0,0,3,,,,,,,,,2,,,41,36
14680,note_on,1,0,3,,,,,,,,,2,,,46,0
14680,note_on,1,0,1,,,,,,,,,0,,,58,0
14680,note_on,0,0,3,,,,,,,,,2,,,41,0
14680,note_on,0,0,1,,,,,,,,,0,,,50,0
14699,note_on,19,0,1,,,,,,,,,0,,,46,0
14699,note_on,0,0,1,,,,,,,,,0,,,53,0
14699,note_on,0,0,3,,,,,,,,,2,,,41,0
14699,note_on,19,0,3,,,,,,,,,2,,,38,0
14700,note_on,0,0,3,,,,,,,,,2,,,46,36
14700,note_on,0,0,1,,,,,,,,,0,,,53,36
14700,note_on,0,0,1,,,,,,,,,0,,,62,36
14700,note_on,0,0,3,,,,,,,,,2,,,41,36
14700,note_on,1,0,3,,,,,,,,,2,,,34,36
14700,note_on,1,0,1,,,,,,,,,0,,,50,36
14720,note_on,0,0,3,,,,,,,,,2,,,34,0
14720,note_on,0,0,1,,,,,,,,,0,,,50,0
14720,note_on,0,0,3,,,,,,,,,2,,,41,0
14720,note_on,20,0,1,,,,,,,,,0,,,62,0
14720,note_on,20,0,3,,,,,,,,,2,,,46,0
14720,note_on,0,0,1,,,,,,,,,0,,,50,36
14720,note_on,0,0,3,,,,,,,,,2,,,41,36
14720,note_on,0,0,3,,,,,,,,,2,,,46,36
14720,note_on,0,0,1,,,,,,,,,0,,,58,36
14720,note_on,0,0,1,,,,,,,,,0,,,53,0
14739,note_on,0,0,3,,,,,,,,,2,,,41,36
14739,note_on,19,0,3,,,,,,,,,2,,,38,36
14739,note_on,0,0,1,,,,,,,,,0,,,53,36
14739,note_on,19,0,1,,,,,,,,,0,,,46,36
14740,note_on,0,0,1,,,,,,,,,0,,,50,0
14740,note_on,1,0,3,,,,,,,,,2,,,46,0
14740,note_on,1,0,1,,,,,,,,,0,,,58,0
14740,note_on,0,0,3,,,,,,,,,2,,,41,0
14759,note_on,0,0,3,,,,,,,,,2,,,41,0
14759,note_on,0,0,1,,,,,,,,,0,,,53,0
14759,note_on,19,0,1,,,,,,,,,0,,,46,0
14759,note_on,19,0,3,,,,,,,,,2,,,38,0
14760,note_on,0,0,1,,,,,,,,,0,,,62,36
14760,note_on,1,0,3,,,,,,,,,2,,,34,36
14760,note_on,0,0,1,,,,,,,,,0,,,53,36
14760,note_on,0,0,3,,,,,,,,,2,,,41,36
14760,note_on,0,0,3,,,,,,,,,2,,,46,36
14760,note_on,1,0,1,,,,,,,,,0,,,50,36
14775,set_tempo,375,1,0,,,,,,2222222,,,,,,,
14780,note_on,20,0,3,,,,,,,,,2,,,46,0
14780,note_on,20,0,1,,,,,,,,,0,,,62,0
14780,note_on,0,0,3,,,,,,,,,2,,,46,36
14780,note_on,0,0,1,,,,,,,,,0,,,50,0
14780,note_on,0,0,3,,,,,,,,,2,,,41,36
14780,note_on,0,0,1,,,,,,,,,0,,,50,36
14780,note_on,0,0,1,,,,,,,,,0,,,53,0
14780,note_on,0,0,1,,,,,,,,,0,,,58,36
14780,note_on,0,0,3,,,,,,,,,2,,,34,0
14780,note_on,0,0,3,,,,,,,,,2,,,41,0
14790,set_tempo,15,1,0,,,,,,2400000,,,,,,,
14799,note_on,19,0,1,,,,,,,,,0,,,46,36
14799,note_on,0,0,3,,,,,,,,,2,,,41,36
14799,note_on,19,0,3,,,,,,,,,2,,,38,36
14799,note_on,0,0,1,,,,,,,,,0,,,53,36
14800,note_on,0,0,1,,,,,,,,,0,,,50,0
14800,note_on,1,0,3,,,,,,,,,2,,,46,0
14800,note_on,0,0,3,,,,,,,,,2,,,41,0
14800,note_on,1,0,1,,,,,,,,,0,,,58,0
14805,set_tempo,15,1,0,,,,,,2608696,,,,,,,
14819,note_on,19,0,3,,,,,,,,,2,,,38,0
14819,note_on,19,0,1,,,,,,,,,0,,,46,0
14819,note_on,0,0,1,,,,,,,,,0,,,53,0
14819,note_on,0,0,3,,,,,,,,,2,,,41,0
14820,note_on,1,0,3,,,,,,,,,2,,,34,36
14820,note_on,0,0,3,,,,,,,,,2,,,46,36
14820,note_on,1,0,1,,,,,,,,,0,,,50,36
14820,set_tempo,15,1,0,,,,,,2857143,,,,,,,
14820,note_on,0,0,3,,,,,,,,,2,,,41,36
14820,note_on,0,0,1,,,,,,,,,0,,,53,36
14820,note_on,0,0,1,,,,,,,,,0,,,62,36
14835,set_tempo,15,1,0,,,,,,3157895,,,,,,,
14840,note_on,0,0,3,,,,,,,,,2,,,41,0
14840,note_on,0,0,3,,,,,,,,,2,,,34,0
14840,note_on,0,0,1,,,,,,,,,0,,,58,36
14840,note_on,0,0,3,,,,,,,,,2,,,41,36
14840,note_on,0,0,3,,,,,,,,,2,,,46,36
14840,note_on,0,0,1,,,,,,,,,0,,,53,0
14840,note_on,0,0,1,,,,,,,,,0,,,50,36
14840,note_on,0,0,1,,,,,,,,,0,,,50,0
14840,note_on,20,0,1,,,,,,,,,0,,,62,0
14840,note_on,20,0,3,,,,,,,,,2,,,46,0
14850,set_tempo,15,1,0,,,,,,3529412,,,,,,,
14859,control_change,19,0,1,,,,,,,,,0,64,0,,
14859,control_change,19,0,3,,,,,,,,,2,64,0,,
14859,note_on,0,0,3,,,,,,,,,2,,,38,36
14859,note_on,0,0,3,,,,,,,,,2,,,41,36
14859,set_tempo,9,1,0,,,,,,2068966,,,,,,,
14859,note_on,0,0,1,,,,,,,,,0,,,53,36
14859,note_on,0,0,1,,,,,,,,,0,,,46,36
14860,note_on,1,0,3,,,,,,,,,2,,,46,0
14860,note_on,0,0,3,,,,,,,,,2,,,41,0
14860,note_on,1,0,1,,,,,,,,,0,,,58,0
14860,note_on,0,0,1,,,,,,,,,0,,,50,0
14865,set_tempo,6,1,0,,,,,,2222222,,,,,,,
14865,end_of_track,0,1,0,,,,,,,,,,,,,
14879,note_on,19,0,1,,,,,,,,,0,,,46,0
14879,note_on,0,0,3,,,,,,,,,2,,,41,0
14879,note_on,19,0,3,,,,,,,,,2,,,38,0
14879,note_on,0,0,1,,,,,,,,,0,,,53,0
14880,note_on,0,0,3,,,,,,,,,2,,,34,36
14880,control_change,1,0,3,,,,,,,,,2,64,127,,
14880,control_change,1,0,1,,,,,,,,,0,64,127,,
14889,note_on,9,0,3,,,,,,,,,2,,,41,36
14890,note_on,1,0,3,,,,,,,,,2,,,34,0
14899,note_on,9,0,3,,,,,,,,,2,,,41,0
14900,note_on,1,0,3,,,,,,,,,2,,,50,36
14910,note_on,10,0,3,,,,,,,,,2,,,50,0
14910,note_on,0,0,3,,,,,,,,,2,,,53,36
14919,note_on,9,0,3,,,,,,,,,2,,,58,36
14920,note_on,1,0,3,,,,,,,,,2,,,53,0
14929,note_on,9,0,3,,,,,,,,,2,,,58,0
14930,note_on,1,0,3,,,,,,,,,2,,,62,36
14940,note_on,60,0,1,,,,,,,,,0,,,65,36
14940,note_on,10,0,3,,,,,,,,,2,,,62,0
14949,note_on,9,0,1,,,,,,,,,0,,,70,36
14950,note_on,1,0,1,,,,,,,,,0,,,65,0
14959,note_on,9,0,1,,,,,,,,,0,,,70,0
14960,note_on,1,0,1,,,,,,,,,0,,,74,36
14970,note_on,10,0,1,,,,,,,,,0,,,74,0
14970,note_on,0,0,1,,,,,,,,,0,,,77,36
14979,note_on,9,0,1,,,,,,,,,0,,,82,36
14980,note_on,1,0,1,,,,,,,,,0,,,77,0
14989,note_on,9,0,1,,,,,,,,,0,,,82,0
14990,note_on,1,0,1,,,,,,,,,0,,,86,36
15000,note_on,10,0,1,,,,,,,,,0,,,86,0
15000,note_on,0,0,1,,,,,,,,,0,,,89,36
15009,note_on,9,0,1,,,,,,,,,0,,,98,36
15010,note_on,1,0,1,,,,,,,,,0,,,89,0
15019,note_on,9,0,1,,,,,,,,,0,,,98,0
15020,note_on,1,0,1,,,,,,,,,0,,,94,36
15030,note_on,0,0,1,,,,,,,,,0,,,86,36
15030,note_on,10,0,1,,,,,,,,,0,,,94,0
15039,note_on,9,0,1,,,,,,,,,0,,,82,36
15040,note_on,1,0,1,,,,,,,,,0,,,86,0
15049,note_on,9,0,1,,,,,,,,,0,,,82,0
15050,note_on,1,0,1,,,,,,,,,0,,,89,36
15060,note_on,10,0,1,,,,,,,,,0,,,89,0
15060,note_on,0,0,1,,,,,,,,,0,,,86,36
15069,note_on,9,0,1,,,,,,,,,0,,,77,36
15070,note_on,1,0,1,,,,,,,,,0,,,86,0
15079,note_on,9,0,1,,,,,,,,,0,,,77,0
15080,note_on,1,0,1,,,,,,,,,0,,,74,36
15090,note_on,0,0,1,,,,,,,,,0,,,82,36
15090,note_on,10,0,1,,,,,,,,,0,,,74,0
15099,note_on,9,0,1,,,,,,,,,0,,,77,36
15100,note_on,1,0,1,,,,,,,,,0,,,82,0
15109,note_on,9,0,1,,,,,,,,,0,,,77,0
15110,note_on,1,0,1,,,,,,,,,0,,,70,36
15120,note_on,0,0,1,,,,,,,,,0,,,65,36
15120,note_on,10,0,1,,,,,,,,,0,,,70,0
15129,note_on,9,0,1,,,,,,,,,0,,,74,36
15130,note_on,1,0,1,,,,,,,,,0,,,65,0
15139,note_on,9,0,1,,,,,,,,,0,,,74,0
15140,note_on,1,0,1,,,,,,,,,0,,,70,36
15150,note_on,10,0,1,,,,,,,,,0,,,70,0
15150,note_on,0,0,1,,,,,,,,,0,,,62,36
15159,note_on,9,0,1,,,,,,,,,0,,,58,36
15160,note_on,1,0,1,,,,,,,,,0,,,62,0
15169,note_on,9,0,1,,,,,,,,,0,,,58,0
15170,note_on,1,0,1,,,,,,,,,0,,,65,36
15180,note_on,240,0,3,,,,,,,,,2,,,62,36
15180,note_on,10,0,1,,,,,,,,,0,,,65,0
15189,note_on,9,0,3,,,,,,,,,2,,,53,36
15190,note_on,1,0,3,,,,,,,,,2,,,62,0
15199,note_on,9,0,3,,,,,,,,,2,,,53,0
15200,note_on,1,0,3,,,,,,,,,2,,,50,36
15210,note_on,0,0,3,,,,,,,,,2,,,58,36
15210,note_on,10,0,3,,,,,,,,,2,,,50,0
15219,note_on,9,0,3,,,,,,,,,2,,,53,36
15220,note_on,1,0,3,,,,,,,,,2,,,58,0
15229,note_on,9,0,3,,,,,,,,,2,,,53,0
15230,note_on,1,0,3,,,,,,,,,2,,,46,36
15240,note_on,0,0,3,,,,,,,,,2,,,41,36
15240,note_on,10,0,3,,,,,,,,,2,,,46,0
15240,note_on,0,0,3,,,,,,,,,2,,,34,36
15240,note_on,0,0,3,,,,,,,,,2,,,50,36
15273,note_on,93,0,1,,,,,,,,,0,,,58,36
15277,note_on,4,0,1,,,,,,,,,0,,,65,36
15281,note_on,4,0,1,,,,,,,,,0,,,70,36
15285,note_on,4,0,1,,,,,,,,,0,,,74,36
15288,note_on,3,0,1,,,,,,,,,0,,,77,36
15292,note_on,4,0,1,,,,,,,,,0,,,82,36
15296,note_on,4,0,1,,,,,,,,,0,,,86,36
15300,note_on,0,0,3,,,,,,,,,2,,,41,0
15300,note_on,0,0,3,,,,,,,,,2,,,34,0
15300,note_on,4,0,1,,,,,,,,,0,,,94,36
15300,note_on,60,0,3,,,,,,,,,2,,,50,0
15359,note_on,59,0,1,,,,,,,,,0,,,77,0
15359,note_on,0,0,1,,,,,,,,,0,,,58,0
15360,note_on,0,0,1,,,,,,,,,0,,,94,0
15360,note_on,0,0,1,,,,,,,,,0,,,70,0
15360,note_on,1,0,1,,,,,,,,,0,,,82,0
15360,note_on,0,0,1,,,,,,,,,0,,,74,0
15360,note_on,0,0,1,,,,,,,,,0,,,86,0
15360,note_on,0,0,1,,,,,,,,,0,,,65,0
15600,end_of_track,0,1,4,,,,,,,,,,,,,
15600,end_of_track,0,1,3,,,,,,,,,,,,,
15600,end_of_track,0,1,1,,,,,,,,,,,,,
15600,control_change,2160,0,2,,,,,,,,,1,64,0,,
15600,control_change,1200,0,4,,,,,,,,,3,64,0,,
15600,control_change,300,0,3,,,,,,,,,2,64,0,,
15600,control_change,240,0,1,,,,,,,,,0,64,0,,
15600,end_of_track,0,1,2,,,,,,,,,,,,,
