tick,type,tempo,time,meta,track,numerator,denominator,clocks_per_click,notated_32nd_notes_per_beat,key,port,channel,control,value,program,note,velocity
0,channel_prefix,,0,1,5,,,,,,,1,,,,,
0,midi_port,,0,1,7,,,,,,0,,,,,,
0,track_name,,0,1,6,,,,,,,,,,,,
0,note_on,,0,0,5,,,,,,,1,,,,56,92
0,note_on,,0,0,5,,,,,,,1,,,,85,42
0,note_on,,0,0,6,,,,,,,2,,,,56,92
0,note_on,,0,0,6,,,,,,,2,,,,85,42
0,program_change,,0,0,5,,,,,,,1,,,0,,
0,program_change,,0,0,6,,,,,,,2,,,1,,
0,set_tempo,342857,0,1,0,,,,,,,,,,,,
0,time_signature,,0,1,0,2,4,24,8,,,,,,,,
0,track_name,,0,1,1,,,,,,,,,,,,
0,track_name,,0,1,2,,,,,,,,,,,,
0,track_name,,0,1,3,,,,,,,,,,,,
0,track_name,,0,1,4,,,,,,,,,,,,
0,track_name,,0,1,5,,,,,,,,,,,,
0,midi_port,,0,1,6,,,,,,0,,,,,,
0,midi_port,,0,1,5,,,,,,0,,,,,,
0,track_name,,0,1,7,,,,,,,,,,,,
0,midi_port,,0,1,3,,,,,,0,,,,,,
0,end_of_track,,0,1,7,,,,,,,,,,,,
0,key_signature,,0,1,0,,,,,C,,,,,,,
0,end_of_track,,0,1,3,,,,,,,,,,,,
0,midi_port,,0,1,4,,,,,,0,,,,,,
0,end_of_track,,0,1,1,,,,,,,,,,,,
0,end_of_track,,0,1,0,,,,,,,,,,,,
0,end_of_track,,0,1,2,,,,,,,,,,,,
0,control_change,,0,0,6,,,,,,,2,7,127,,,
0,control_change,,0,0,5,,,,,,,1,10,104,,,
0,control_change,,0,0,5,,,,,,,1,7,127,,,
0,channel_prefix,,0,1,6,,,,,,,2,,,,,
0,midi_port,,0,1,1,,,,,,0,,,,,,
0,midi_port,,0,1,2,,,,,,0,,,,,,
0,control_change,,0,0,6,,,,,,,2,10,24,,,
0,end_of_track,,0,1,4,,,,,,,,,,,,
35,note_off,,35,0,5,,,,,,,1,,,,85,0
35,note_off,,35,0,6,,,,,,,2,,,,85,0
105,note_on,,70,0,6,,,,,,,2,,,,73,54
105,note_on,,70,0,5,,,,,,,1,,,,73,54
160,note_off,,55,0,5,,,,,,,1,,,,73,0
160,note_off,,55,0,6,,,,,,,2,,,,73,0
225,note_on,,65,0,6,,,,,,,2,,,,73,72
225,note_on,,65,0,5,,,,,,,1,,,,73,72
285,note_off,,60,0,5,,,,,,,1,,,,73,0
285,note_off,,60,0,6,,,,,,,2,,,,73,0
335,note_on,,50,0,6,,,,,,,2,,,,73,80
335,note_on,,50,0,5,,,,,,,1,,,,73,80
380,note_off,,45,0,5,,,,,,,1,,,,56,0
380,note_off,,45,0,6,,,,,,,2,,,,56,0
400,note_off,,20,0,6,,,,,,,2,,,,73,0
400,note_off,,20,0,5,,,,,,,1,,,,73,0
455,note_on,,55,0,5,,,,,,,1,,,,85,80
455,note_on,,55,0,6,,,,,,,2,,,,85,80
470,note_on,,15,0,6,,,,,,,2,,,,71,80
470,note_on,,15,0,5,,,,,,,1,,,,71,80
480,note_on,,0,0,5,,,,,,,1,,,,65,78
480,note_on,,10,0,6,,,,,,,2,,,,61,78
480,note_on,,10,0,5,,,,,,,1,,,,61,78
480,note_on,,0,0,6,,,,,,,2,,,,65,78
510,note_off,,30,0,5,,,,,,,1,,,,85,0
510,note_off,,30,0,6,,,,,,,2,,,,85,0
555,note_on,,45,0,6,,,,,,,2,,,,73,72
555,note_on,,45,0,5,,,,,,,1,,,,73,72
625,note_off,,70,0,6,,,,,,,2,,,,73,0
625,note_off,,70,0,5,,,,,,,1,,,,73,0
685,note_on,,60,0,5,,,,,,,1,,,,73,64
685,note_on,,60,0,6,,,,,,,2,,,,73,64
730,note_off,,45,0,5,,,,,,,1,,,,73,0
730,note_off,,45,0,6,,,,,,,2,,,,73,0
800,note_on,,70,0,5,,,,,,,1,,,,73,80
800,note_on,,70,0,6,,,,,,,2,,,,73,80
865,note_off,,65,0,6,,,,,,,2,,,,73,0
865,note_off,,65,0,5,,,,,,,1,,,,73,0
870,note_off,,5,0,5,,,,,,,1,,,,71,0
870,note_off,,5,0,6,,,,,,,2,,,,71,0
890,note_off,,20,0,5,,,,,,,1,,,,65,0
890,note_off,,20,0,6,,,,,,,2,,,,65,0
900,note_off,,10,0,5,,,,,,,1,,,,61,0
900,note_off,,10,0,6,,,,,,,2,,,,61,0
925,note_on,,25,0,6,,,,,,,2,,,,49,92
925,note_on,,25,0,5,,,,,,,1,,,,49,92
940,note_on,,15,0,6,,,,,,,2,,,,85,62
940,note_on,,15,0,5,,,,,,,1,,,,85,62
1000,note_off,,60,0,5,,,,,,,1,,,,85,0
1000,note_off,,60,0,6,,,,,,,2,,,,85,0
1045,note_off,,45,0,5,,,,,,,1,,,,49,0
1045,note_off,,45,0,6,,,,,,,2,,,,49,0
1060,note_on,,15,0,6,,,,,,,2,,,,73,80
1060,note_on,,15,0,5,,,,,,,1,,,,73,80
1120,note_off,,60,0,5,,,,,,,1,,,,73,0
1120,note_off,,60,0,6,,,,,,,2,,,,73,0
1175,note_on,,55,0,5,,,,,,,1,,,,69,76
1175,note_on,,55,0,6,,,,,,,2,,,,69,76
1180,note_on,,5,0,5,,,,,,,1,,,,61,72
1180,note_on,,0,0,6,,,,,,,2,,,,65,72
1180,note_on,,5,0,6,,,,,,,2,,,,61,72
1180,note_on,,0,0,5,,,,,,,1,,,,65,72
1190,note_on,,10,0,5,,,,,,,1,,,,73,64
1190,note_on,,10,0,6,,,,,,,2,,,,73,64
1225,note_off,,35,0,5,,,,,,,1,,,,73,0
1225,note_off,,35,0,6,,,,,,,2,,,,73,0
1295,note_on,,70,0,5,,,,,,,1,,,,73,91
1295,note_on,,70,0,6,,,,,,,2,,,,73,91
1305,note_off,,10,0,5,,,,,,,1,,,,65,0
1305,note_off,,10,0,6,,,,,,,2,,,,65,0
1305,note_off,,0,0,6,,,,,,,2,,,,61,0
1305,note_off,,0,0,5,,,,,,,1,,,,61,0
1310,note_off,,5,0,5,,,,,,,1,,,,69,0
1310,note_off,,5,0,6,,,,,,,2,,,,69,0
1365,note_off,,55,0,5,,,,,,,1,,,,73,0
1365,note_off,,55,0,6,,,,,,,2,,,,73,0
1425,note_on,,60,0,6,,,,,,,2,,,,85,61
1425,note_on,,60,0,5,,,,,,,1,,,,85,61
1430,note_on,,5,0,6,,,,,,,2,,,,59,92
1430,note_on,,5,0,5,,,,,,,1,,,,59,92
1460,note_off,,30,0,5,,,,,,,1,,,,85,0
1460,note_off,,30,0,6,,,,,,,2,,,,85,0
1520,note_off,,60,0,6,,,,,,,2,,,,59,0
1520,note_off,,60,0,5,,,,,,,1,,,,59,0
1540,note_on,,20,0,6,,,,,,,2,,,,73,71
1540,note_on,,20,0,5,,,,,,,1,,,,73,71
1620,note_off,,80,0,5,,,,,,,1,,,,73,0
1620,note_off,,80,0,6,,,,,,,2,,,,73,0
1660,note_on,,0,0,5,,,,,,,1,,,,65,84
1660,note_on,,0,0,5,,,,,,,1,,,,68,88
1660,note_on,,0,0,6,,,,,,,2,,,,65,84
1660,note_on,,0,0,6,,,,,,,2,,,,68,88
1660,note_on,,40,0,5,,,,,,,1,,,,73,71
1660,note_on,,40,0,6,,,,,,,2,,,,73,71
1665,note_on,,5,0,6,,,,,,,2,,,,61,72
1665,note_on,,5,0,5,,,,,,,1,,,,61,72
1725,note_off,,60,0,5,,,,,,,1,,,,73,0
1725,note_off,,60,0,6,,,,,,,2,,,,73,0
1740,note_off,,15,0,5,,,,,,,1,,,,65,0
1740,note_off,,15,0,6,,,,,,,2,,,,65,0
1745,note_off,,5,0,5,,,,,,,1,,,,68,0
1745,note_off,,0,0,5,,,,,,,1,,,,61,0
1745,note_off,,5,0,6,,,,,,,2,,,,68,0
1745,note_off,,0,0,6,,,,,,,2,,,,61,0
1770,note_on,,25,0,5,,,,,,,1,,,,73,80
1770,note_on,,25,0,6,,,,,,,2,,,,73,80
1830,note_off,,60,0,5,,,,,,,1,,,,73,0
1830,note_off,,60,0,6,,,,,,,2,,,,73,0
1895,note_on,,65,0,5,,,,,,,1,,,,85,62
1895,note_on,,65,0,6,,,,,,,2,,,,85,62
1910,note_on,,15,0,6,,,,,,,2,,,,54,92
1910,note_on,,15,0,5,,,,,,,1,,,,54,92
1950,note_off,,40,0,5,,,,,,,1,,,,85,0
1950,note_off,,40,0,6,,,,,,,2,,,,85,0
2020,note_on,,70,0,6,,,,,,,2,,,,73,71
2020,note_on,,70,0,5,,,,,,,1,,,,73,71
2085,note_off,,65,0,5,,,,,,,1,,,,73,0
2085,note_off,,65,0,6,,,,,,,2,,,,73,0
2140,note_on,,55,0,6,,,,,,,2,,,,73,59
2140,note_on,,55,0,5,,,,,,,1,,,,73,59
2175,note_off,,35,0,6,,,,,,,2,,,,73,0
2175,note_off,,35,0,5,,,,,,,1,,,,73,0
2250,note_on,,75,0,5,,,,,,,1,,,,73,80
2250,note_on,,75,0,6,,,,,,,2,,,,73,80
2320,note_off,,70,0,6,,,,,,,2,,,,73,0
2320,note_off,,70,0,5,,,,,,,1,,,,73,0
2390,note_on,,0,0,5,,,,,,,1,,,,85,61
2390,note_on,,70,0,6,,,,,,,2,,,,69,88
2390,note_on,,0,0,6,,,,,,,2,,,,85,61
2390,note_on,,0,0,6,,,,,,,2,,,,66,72
2390,note_on,,70,0,5,,,,,,,1,,,,69,88
2390,note_on,,0,0,6,,,,,,,2,,,,61,80
2390,note_on,,0,0,5,,,,,,,1,,,,66,72
2390,note_on,,0,0,5,,,,,,,1,,,,61,80
2425,note_off,,35,0,5,,,,,,,1,,,,54,0
2425,note_off,,35,0,6,,,,,,,2,,,,54,0
2435,note_off,,10,0,5,,,,,,,1,,,,85,0
2435,note_off,,10,0,6,,,,,,,2,,,,85,0
2510,note_on,,75,0,5,,,,,,,1,,,,73,71
2510,note_on,,75,0,6,,,,,,,2,,,,73,71
2580,note_off,,70,0,5,,,,,,,1,,,,73,0
2580,note_off,,70,0,6,,,,,,,2,,,,73,0
2635,note_on,,55,0,5,,,,,,,1,,,,73,72
2635,note_on,,55,0,6,,,,,,,2,,,,73,72
2680,note_off,,45,0,5,,,,,,,1,,,,73,0
2680,note_off,,45,0,6,,,,,,,2,,,,73,0
2745,note_on,,65,0,5,,,,,,,1,,,,73,80
2745,note_on,,65,0,6,,,,,,,2,,,,73,80
2750,note_off,,5,0,6,,,,,,,2,,,,69,0
2750,note_off,,5,0,5,,,,,,,1,,,,69,0
2760,note_off,,10,0,6,,,,,,,2,,,,66,0
2760,note_off,,10,0,5,,,,,,,1,,,,66,0
2765,note_off,,5,0,5,,,,,,,1,,,,61,0
2765,note_off,,5,0,6,,,,,,,2,,,,61,0
2805,note_off,,40,0,5,,,,,,,1,,,,73,0
2805,note_off,,40,0,6,,,,,,,2,,,,73,0
2875,note_on,,70,0,5,,,,,,,1,,,,85,61
2875,note_on,,70,0,6,,,,,,,2,,,,85,61
2890,note_on,,15,0,6,,,,,,,2,,,,49,80
2890,note_on,,15,0,5,,,,,,,1,,,,49,80
2910,note_off,,20,0,6,,,,,,,2,,,,85,0
2910,note_off,,20,0,5,,,,,,,1,,,,85,0
2990,note_on,,80,0,5,,,,,,,1,,,,73,71
2990,note_on,,80,0,6,,,,,,,2,,,,73,71
2995,note_off,,5,0,5,,,,,,,1,,,,49,0
2995,note_off,,5,0,6,,,,,,,2,,,,49,0
3055,note_off,,60,0,6,,,,,,,2,,,,73,0
3055,note_off,,60,0,5,,,,,,,1,,,,73,0
3100,note_on,,45,0,5,,,,,,,1,,,,61,76
3100,note_on,,45,0,6,,,,,,,2,,,,61,76
3105,note_on,,5,0,5,,,,,,,1,,,,68,80
3105,note_on,,5,0,6,,,,,,,2,,,,68,80
3110,note_on,,5,0,6,,,,,,,2,,,,57,72
3110,note_on,,5,0,5,,,,,,,1,,,,57,72
3125,note_on,,15,0,5,,,,,,,1,,,,73,54
3125,note_on,,15,0,6,,,,,,,2,,,,73,54
3160,note_off,,35,0,5,,,,,,,1,,,,73,0
3160,note_off,,35,0,6,,,,,,,2,,,,73,0
3180,note_off,,20,0,6,,,,,,,2,,,,57,0
3180,note_off,,20,0,5,,,,,,,1,,,,57,0
3190,note_off,,0,0,5,,,,,,,1,,,,61,0
3190,note_off,,10,0,5,,,,,,,1,,,,68,0
3190,note_off,,0,0,6,,,,,,,2,,,,61,0
3190,note_off,,10,0,6,,,,,,,2,,,,68,0
3225,note_on,,35,0,5,,,,,,,1,,,,73,80
3225,note_on,,35,0,6,,,,,,,2,,,,73,80
3295,note_off,,70,0,5,,,,,,,1,,,,73,0
3295,note_off,,70,0,6,,,,,,,2,,,,73,0
3345,note_on,,50,0,6,,,,,,,2,,,,54,80
3345,note_on,,50,0,5,,,,,,,1,,,,54,80
3360,note_on,,15,0,6,,,,,,,2,,,,85,50
3360,note_on,,15,0,5,,,,,,,1,,,,85,50
3390,note_off,,30,0,6,,,,,,,2,,,,85,0
3390,note_off,,30,0,5,,,,,,,1,,,,85,0
3435,note_off,,45,0,6,,,,,,,2,,,,54,0
3435,note_off,,45,0,5,,,,,,,1,,,,54,0
3465,note_on,,30,0,6,,,,,,,2,,,,73,80
3465,note_on,,30,0,5,,,,,,,1,,,,73,80
3525,note_off,,60,0,5,,,,,,,1,,,,73,0
3525,note_off,,60,0,6,,,,,,,2,,,,73,0
3590,note_on,,0,0,6,,,,,,,2,,,,66,72
3590,note_on,,65,0,5,,,,,,,1,,,,61,76
3590,note_on,,0,0,5,,,,,,,1,,,,66,72
3590,note_on,,65,0,6,,,,,,,2,,,,61,76
3595,note_on,,5,0,5,,,,,,,1,,,,73,64
3595,note_on,,0,0,6,,,,,,,2,,,,57,64
3595,note_on,,5,0,6,,,,,,,2,,,,73,64
3595,note_on,,0,0,5,,,,,,,1,,,,57,64
3625,note_off,,30,0,5,,,,,,,1,,,,73,0
3625,note_off,,30,0,6,,,,,,,2,,,,73,0
3640,note_off,,15,0,6,,,,,,,2,,,,57,0
3640,note_off,,15,0,5,,,,,,,1,,,,57,0
3655,note_off,,15,0,6,,,,,,,2,,,,61,0
3655,note_off,,15,0,5,,,,,,,1,,,,61,0
3670,note_off,,15,0,6,,,,,,,2,,,,66,0
3670,note_off,,15,0,5,,,,,,,1,,,,66,0
3700,note_on,,30,0,6,,,,,,,2,,,,73,80
3700,note_on,,30,0,5,,,,,,,1,,,,73,80
3760,note_off,,60,0,5,,,,,,,1,,,,73,0
3760,note_off,,60,0,6,,,,,,,2,,,,73,0
3825,note_on,,65,0,5,,,,,,,1,,,,85,61
3825,note_on,,65,0,6,,,,,,,2,,,,85,61
3845,note_on,,20,0,6,,,,,,,2,,,,56,92
3845,note_on,,20,0,5,,,,,,,1,,,,56,92
3870,note_off,,25,0,6,,,,,,,2,,,,85,0
3870,note_off,,25,0,5,,,,,,,1,,,,85,0
3935,note_on,,65,0,5,,,,,,,1,,,,73,80
3935,note_on,,65,0,6,,,,,,,2,,,,73,80
4000,note_off,,65,0,5,,,,,,,1,,,,73,0
4000,note_off,,65,0,6,,,,,,,2,,,,73,0
4005,note_off,,5,0,6,,,,,,,2,,,,56,0
4005,note_off,,5,0,5,,,,,,,1,,,,56,0
4065,note_on,,60,0,6,,,,,,,2,,,,73,64
4065,note_on,,60,0,5,,,,,,,1,,,,73,64
4105,note_off,,40,0,6,,,,,,,2,,,,73,0
4105,note_off,,40,0,5,,,,,,,1,,,,73,0
4170,note_on,,65,0,5,,,,,,,1,,,,73,92
4170,note_on,,65,0,6,,,,,,,2,,,,73,92
4245,note_off,,75,0,6,,,,,,,2,,,,73,0
4245,note_off,,75,0,5,,,,,,,1,,,,73,0
4305,note_on,,60,0,6,,,,,,,2,,,,85,61
4305,note_on,,60,0,5,,,,,,,1,,,,85,61
4320,note_on,,15,0,6,,,,,,,2,,,,71,84
4320,note_on,,0,0,6,,,,,,,2,,,,65,80
4320,note_on,,15,0,5,,,,,,,1,,,,71,84
4320,note_on,,0,0,5,,,,,,,1,,,,65,80
4325,note_on,,5,0,5,,,,,,,1,,,,61,70
4325,note_on,,5,0,6,,,,,,,2,,,,61,70
4345,note_off,,20,0,6,,,,,,,2,,,,85,0
4345,note_off,,20,0,5,,,,,,,1,,,,85,0
4415,note_on,,70,0,5,,,,,,,1,,,,73,72
4415,note_on,,70,0,6,,,,,,,2,,,,73,72
4490,note_off,,75,0,6,,,,,,,2,,,,73,0
4490,note_off,,75,0,5,,,,,,,1,,,,73,0
4545,note_on,,55,0,5,,,,,,,1,,,,73,64
4545,note_on,,55,0,6,,,,,,,2,,,,73,64
4590,note_off,,45,0,6,,,,,,,2,,,,73,0
4590,note_off,,45,0,5,,,,,,,1,,,,73,0
4655,note_on,,65,0,5,,,,,,,1,,,,73,92
4655,note_on,,65,0,6,,,,,,,2,,,,73,92
4720,note_off,,65,0,6,,,,,,,2,,,,73,0
4720,note_off,,65,0,5,,,,,,,1,,,,73,0
4725,note_off,,5,0,5,,,,,,,1,,,,71,0
4725,note_off,,5,0,6,,,,,,,2,,,,71,0
4745,note_off,,20,0,5,,,,,,,1,,,,65,0
4745,note_off,,20,0,6,,,,,,,2,,,,65,0
4755,note_off,,10,0,6,,,,,,,2,,,,61,0
4755,note_off,,10,0,5,,,,,,,1,,,,61,0
4780,note_on,,25,0,6,,,,,,,2,,,,49,80
4780,note_on,,25,0,5,,,,,,,1,,,,49,80
4785,note_on,,5,0,6,,,,,,,2,,,,85,61
4785,note_on,,5,0,5,,,,,,,1,,,,85,61
4840,note_off,,55,0,5,,,,,,,1,,,,85,0
4840,note_off,,55,0,6,,,,,,,2,,,,85,0
4875,note_off,,35,0,5,,,,,,,1,,,,49,0
4875,note_off,,35,0,6,,,,,,,2,,,,49,0
4890,note_on,,15,0,6,,,,,,,2,,,,73,72
4890,note_on,,15,0,5,,,,,,,1,,,,73,72
4960,note_off,,70,0,6,,,,,,,2,,,,73,0
4960,note_off,,70,0,5,,,,,,,1,,,,73,0
5015,note_on,,0,0,5,,,,,,,1,,,,69,76
5015,note_on,,0,0,5,,,,,,,1,,,,65,72
5015,note_on,,55,0,6,,,,,,,2,,,,61,76
5015,note_on,,55,0,5,,,,,,,1,,,,61,76
5015,note_on,,0,0,6,,,,,,,2,,,,69,76
5015,note_on,,0,0,6,,,,,,,2,,,,65,72
5030,note_on,,15,0,5,,,,,,,1,,,,73,71
5030,note_on,,15,0,6,,,,,,,2,,,,73,71
5060,note_off,,30,0,6,,,,,,,2,,,,73,0
5060,note_off,,30,0,5,,,,,,,1,,,,73,0
5100,note_off,,0,0,6,,,,,,,2,,,,61,0
5100,note_off,,0,0,5,,,,,,,1,,,,61,0
5100,note_off,,0,0,6,,,,,,,2,,,,69,0
5100,note_off,,40,0,5,,,,,,,1,,,,65,0
5100,note_off,,0,0,5,,,,,,,1,,,,69,0
5100,note_off,,40,0,6,,,,,,,2,,,,65,0
5135,note_on,,35,0,5,,,,,,,1,,,,73,80
5135,note_on,,35,0,6,,,,,,,2,,,,73,80
5205,note_off,,70,0,6,,,,,,,2,,,,73,0
5205,note_off,,70,0,5,,,,,,,1,,,,73,0
5250,note_on,,45,0,5,,,,,,,1,,,,59,80
5250,note_on,,45,0,6,,,,,,,2,,,,59,80
5270,note_on,,20,0,6,,,,,,,2,,,,85,50
5270,note_on,,20,0,5,,,,,,,1,,,,85,50
5320,note_off,,50,0,5,,,,,,,1,,,,85,0
5320,note_off,,50,0,6,,,,,,,2,,,,85,0
5330,note_off,,10,0,5,,,,,,,1,,,,59,0
5330,note_off,,10,0,6,,,,,,,2,,,,59,0
5375,note_on,,45,0,6,,,,,,,2,,,,73,80
5375,note_on,,45,0,5,,,,,,,1,,,,73,80
5435,note_off,,60,0,6,,,,,,,2,,,,73,0
5435,note_off,,60,0,5,,,,,,,1,,,,73,0
5485,note_on,,50,0,6,,,,,,,2,,,,68,70
5485,note_on,,50,0,5,,,,,,,1,,,,68,70
5490,note_on,,5,0,5,,,,,,,1,,,,61,78
5490,note_on,,5,0,6,,,,,,,2,,,,61,78
5505,note_on,,0,0,6,,,,,,,2,,,,65,59
5505,note_on,,15,0,6,,,,,,,2,,,,73,71
5505,note_on,,0,0,5,,,,,,,1,,,,65,59
5505,note_on,,15,0,5,,,,,,,1,,,,73,71
5540,note_off,,35,0,5,,,,,,,1,,,,73,0
5540,note_off,,35,0,6,,,,,,,2,,,,73,0
5565,note_off,,25,0,6,,,,,,,2,,,,65,0
5565,note_off,,25,0,5,,,,,,,1,,,,65,0
5570,note_off,,5,0,6,,,,,,,2,,,,68,0
5570,note_off,,5,0,5,,,,,,,1,,,,68,0
5575,note_off,,5,0,5,,,,,,,1,,,,61,0
5575,note_off,,5,0,6,,,,,,,2,,,,61,0
5615,note_on,,40,0,5,,,,,,,1,,,,73,91
5615,note_on,,40,0,6,,,,,,,2,,,,73,91
5690,note_off,,75,0,6,,,,,,,2,,,,73,0
5690,note_off,,75,0,5,,,,,,,1,,,,73,0
5725,note_on,,35,0,6,,,,,,,2,,,,54,92
5725,note_on,,35,0,5,,,,,,,1,,,,54,92
5750,note_on,,25,0,5,,,,,,,1,,,,85,62
5750,note_on,,25,0,6,,,,,,,2,,,,85,62
5805,note_off,,55,0,5,,,,,,,1,,,,85,0
5805,note_off,,55,0,6,,,,,,,2,,,,85,0
5810,note_off,,5,0,6,,,,,,,2,,,,54,0
5810,note_off,,5,0,5,,,,,,,1,,,,54,0
5860,note_on,,50,0,6,,,,,,,2,,,,73,80
5860,note_on,,50,0,5,,,,,,,1,,,,73,80
5915,note_off,,55,0,6,,,,,,,2,,,,73,0
5915,note_off,,55,0,5,,,,,,,1,,,,73,0
5985,note_on,,70,0,6,,,,,,,2,,,,73,71
5985,note_on,,70,0,5,,,,,,,1,,,,73,71
6025,note_off,,40,0,5,,,,,,,1,,,,73,0
6025,note_off,,40,0,6,,,,,,,2,,,,73,0
6085,note_on,,60,0,5,,,,,,,1,,,,73,91
6085,note_on,,60,0,6,,,,,,,2,,,,73,91
6160,note_off,,75,0,6,,,,,,,2,,,,73,0
6160,note_off,,75,0,5,,,,,,,1,,,,73,0
6200,note_on,,40,0,5,,,,,,,1,,,,69,76
6200,note_on,,40,0,6,,,,,,,2,,,,69,76
6205,note_on,,5,0,5,,,,,,,1,,,,66,72
6205,note_on,,5,0,6,,,,,,,2,,,,66,72
6210,note_on,,5,0,5,,,,,,,1,,,,61,72
6210,note_on,,5,0,6,,,,,,,2,,,,61,72
6225,note_on,,15,0,5,,,,,,,1,,,,85,61
6225,note_on,,15,0,6,,,,,,,2,,,,85,61
6280,note_off,,55,0,5,,,,,,,1,,,,85,0
6280,note_off,,55,0,6,,,,,,,2,,,,85,0
6335,note_on,,55,0,5,,,,,,,1,,,,73,80
6335,note_on,,55,0,6,,,,,,,2,,,,73,80
6400,note_off,,65,0,5,,,,,,,1,,,,73,0
6400,note_off,,65,0,6,,,,,,,2,,,,73,0
6470,note_on,,70,0,5,,,,,,,1,,,,73,64
6470,note_on,,70,0,6,,,,,,,2,,,,73,64
6505,note_off,,35,0,6,,,,,,,2,,,,73,0
6505,note_off,,35,0,5,,,,,,,1,,,,73,0
6510,note_off,,5,0,5,,,,,,,1,,,,69,0
6510,note_off,,5,0,6,,,,,,,2,,,,69,0
6530,note_off,,0,0,6,,,,,,,2,,,,61,0
6530,note_off,,0,0,5,,,,,,,1,,,,61,0
6530,note_off,,20,0,6,,,,,,,2,,,,66,0
6530,note_off,,20,0,5,,,,,,,1,,,,66,0
6575,note_on,,45,0,6,,,,,,,2,,,,73,91
6575,note_on,,45,0,5,,,,,,,1,,,,73,91
6650,note_off,,75,0,6,,,,,,,2,,,,73,0
6650,note_off,,75,0,5,,,,,,,1,,,,73,0
6710,note_on,,60,0,6,,,,,,,2,,,,49,80
6710,note_on,,60,0,5,,,,,,,1,,,,49,80
6720,note_on,,10,0,6,,,,,,,2,,,,85,61
6720,note_on,,10,0,5,,,,,,,1,,,,85,61
6775,note_off,,55,0,6,,,,,,,2,,,,85,0
6775,note_off,,55,0,5,,,,,,,1,,,,85,0
6790,note_off,,15,0,5,,,,,,,1,,,,49,0
6790,note_off,,15,0,6,,,,,,,2,,,,49,0
6820,note_on,,30,0,6,,,,,,,2,,,,73,80
6820,note_on,,30,0,5,,,,,,,1,,,,73,80
6885,note_off,,65,0,6,,,,,,,2,,,,73,0
6885,note_off,,65,0,5,,,,,,,1,,,,73,0
6940,note_on,,55,0,6,,,,,,,2,,,,73,64
6940,note_on,,55,0,5,,,,,,,1,,,,73,64
6950,note_on,,10,0,6,,,,,,,2,,,,61,77
6950,note_on,,10,0,5,,,,,,,1,,,,61,77
6955,note_on,,0,0,6,,,,,,,2,,,,57,72
6955,note_on,,5,0,5,,,,,,,1,,,,68,84
6955,note_on,,0,0,5,,,,,,,1,,,,57,72
6955,note_on,,5,0,6,,,,,,,2,,,,68,84
6980,note_off,,25,0,5,,,,,,,1,,,,73,0
6980,note_off,,25,0,6,,,,,,,2,,,,73,0
7025,note_off,,45,0,6,,,,,,,2,,,,57,0
7025,note_off,,45,0,5,,,,,,,1,,,,57,0
7030,note_off,,5,0,6,,,,,,,2,,,,61,0
7030,note_off,,5,0,5,,,,,,,1,,,,61,0
7035,note_off,,5,0,6,,,,,,,2,,,,68,0
7035,note_off,,5,0,5,,,,,,,1,,,,68,0
7055,note_on,,20,0,5,,,,,,,1,,,,73,91
7055,note_on,,20,0,6,,,,,,,2,,,,73,91
7145,note_off,,90,0,6,,,,,,,2,,,,73,0
7145,note_off,,90,0,5,,,,,,,1,,,,73,0
7185,note_on,,40,0,5,,,,,,,1,,,,54,72
7185,note_on,,40,0,6,,,,,,,2,,,,54,72
7195,note_on,,10,0,5,,,,,,,1,,,,85,50
7195,note_on,,10,0,6,,,,,,,2,,,,85,50
7225,note_off,,30,0,5,,,,,,,1,,,,85,0
7225,note_off,,30,0,6,,,,,,,2,,,,85,0
7265,note_off,,40,0,5,,,,,,,1,,,,54,0
7265,note_off,,40,0,6,,,,,,,2,,,,54,0
7295,note_on,,30,0,6,,,,,,,2,,,,73,92
7295,note_on,,30,0,5,,,,,,,1,,,,73,92
7360,note_off,,65,0,5,,,,,,,1,,,,73,0
7360,note_off,,65,0,6,,,,,,,2,,,,73,0
7420,note_on,,0,0,5,,,,,,,1,,,,61,84
7420,note_on,,60,0,5,,,,,,,1,,,,66,77
7420,note_on,,0,0,6,,,,,,,2,,,,61,84
7420,note_on,,60,0,6,,,,,,,2,,,,66,77
7425,note_on,,5,0,5,,,,,,,1,,,,73,54
7425,note_on,,5,0,6,,,,,,,2,,,,73,54
7430,note_on,,5,0,5,,,,,,,1,,,,57,60
7430,note_on,,5,0,6,,,,,,,2,,,,57,60
7460,note_off,,30,0,5,,,,,,,1,,,,73,0
7460,note_off,,30,0,6,,,,,,,2,,,,73,0
7480,note_off,,20,0,5,,,,,,,1,,,,57,0
7480,note_off,,20,0,6,,,,,,,2,,,,57,0
7490,note_off,,10,0,5,,,,,,,1,,,,61,0
7490,note_off,,10,0,6,,,,,,,2,,,,61,0
7500,note_off,,10,0,6,,,,,,,2,,,,66,0
7500,note_off,,10,0,5,,,,,,,1,,,,66,0
7530,note_on,,30,0,6,,,,,,,2,,,,73,80
7530,note_on,,30,0,5,,,,,,,1,,,,73,80
7605,note_off,,75,0,6,,,,,,,2,,,,73,0
7605,note_off,,75,0,5,,,,,,,1,,,,73,0
7665,note_on,,60,0,5,,,,,,,1,,,,56,92
7665,note_on,,60,0,6,,,,,,,2,,,,56,92
7675,note_on,,10,0,6,,,,,,,2,,,,85,61
7675,note_on,,10,0,5,,,,,,,1,,,,85,61
7745,note_off,,70,0,5,,,,,,,1,,,,85,0
7745,note_off,,70,0,6,,,,,,,2,,,,85,0
7785,note_on,,40,0,5,,,,,,,1,,,,73,80
7785,note_on,,40,0,6,,,,,,,2,,,,73,80
7810,note_off,,25,0,5,,,,,,,1,,,,56,0
7810,note_off,,25,0,6,,,,,,,2,,,,56,0
7845,note_off,,35,0,5,,,,,,,1,,,,73,0
7845,note_off,,35,0,6,,,,,,,2,,,,73,0
7915,note_on,,70,0,6,,,,,,,2,,,,85,34
7915,note_on,,70,0,5,,,,,,,1,,,,85,34
7945,note_off,,30,0,5,,,,,,,1,,,,85,0
7945,note_off,,30,0,6,,,,,,,2,,,,85,0
8025,note_on,,80,0,6,,,,,,,2,,,,85,62
8025,note_on,,80,0,5,,,,,,,1,,,,85,62
8090,note_off,,65,0,5,,,,,,,1,,,,85,0
8090,note_off,,65,0,6,,,,,,,2,,,,85,0
8140,note_on,,50,0,6,,,,,,,2,,,,71,76
8140,note_on,,50,0,5,,,,,,,1,,,,71,76
8150,note_on,,0,0,6,,,,,,,2,,,,61,64
8150,note_on,,10,0,6,,,,,,,2,,,,65,64
8150,note_on,,0,0,5,,,,,,,1,,,,61,64
8150,note_on,,10,0,5,,,,,,,1,,,,65,64
8155,note_on,,5,0,6,,,,,,,2,,,,97,61
8155,note_on,,5,0,5,,,,,,,1,,,,97,61
8235,note_off,,80,0,5,,,,,,,1,,,,97,0
8235,note_off,,80,0,6,,,,,,,2,,,,97,0
8255,note_on,,20,0,5,,,,,,,1,,,,85,50
8255,note_on,,20,0,6,,,,,,,2,,,,85,50
8300,note_off,,45,0,6,,,,,,,2,,,,61,0
8300,note_off,,45,0,5,,,,,,,1,,,,61,0
8310,note_off,,10,0,5,,,,,,,1,,,,65,0
8310,note_off,,0,0,6,,,,,,,2,,,,71,0
8310,note_off,,0,0,5,,,,,,,1,,,,71,0
8310,note_off,,10,0,6,,,,,,,2,,,,65,0
8315,note_off,,5,0,5,,,,,,,1,,,,85,0
8315,note_off,,5,0,6,,,,,,,2,,,,85,0
8390,note_on,,75,0,5,,,,,,,1,,,,85,50
8390,note_on,,75,0,6,,,,,,,2,,,,85,50
8410,note_off,,20,0,5,,,,,,,1,,,,85,0
8410,note_off,,20,0,6,,,,,,,2,,,,85,0
8500,note_on,,90,0,5,,,,,,,1,,,,73,110
8500,note_on,,90,0,6,,,,,,,2,,,,73,110
8570,note_off,,70,0,6,,,,,,,2,,,,73,0
8570,note_off,,70,0,5,,,,,,,1,,,,73,0
8625,note_on,,55,0,5,,,,,,,1,,,,85,61
8625,note_on,,55,0,6,,,,,,,2,,,,85,61
8645,note_on,,20,0,6,,,,,,,2,,,,49,92
8645,note_on,,20,0,5,,,,,,,1,,,,49,92
8705,note_off,,60,0,6,,,,,,,2,,,,85,0
8705,note_off,,60,0,5,,,,,,,1,,,,85,0
8740,note_off,,35,0,6,,,,,,,2,,,,49,0
8740,note_off,,35,0,5,,,,,,,1,,,,49,0
8750,note_on,,10,0,6,,,,,,,2,,,,73,92
8750,note_on,,10,0,5,,,,,,,1,,,,73,92
8810,note_off,,60,0,6,,,,,,,2,,,,73,0
8810,note_off,,60,0,5,,,,,,,1,,,,73,0
8875,note_on,,65,0,6,,,,,,,2,,,,73,80
8875,note_on,,65,0,5,,,,,,,1,,,,73,80
8915,note_off,,40,0,6,,,,,,,2,,,,73,0
8915,note_off,,40,0,5,,,,,,,1,,,,73,0
8995,note_on,,80,0,6,,,,,,,2,,,,73,92
8995,note_on,,80,0,5,,,,,,,1,,,,73,92
9070,note_off,,75,0,5,,,,,,,1,,,,73,0
9070,note_off,,75,0,6,,,,,,,2,,,,73,0
9110,note_on,,40,0,5,,,,,,,1,,,,71,88
9110,note_on,,40,0,6,,,,,,,2,,,,71,88
9115,note_on,,5,0,6,,,,,,,2,,,,61,72
9115,note_on,,5,0,5,,,,,,,1,,,,61,72
9115,note_on,,0,0,6,,,,,,,2,,,,65,72
9115,note_on,,0,0,5,,,,,,,1,,,,65,72
9135,note_on,,20,0,6,,,,,,,2,,,,85,62
9135,note_on,,20,0,5,,,,,,,1,,,,85,62
9170,note_off,,35,0,5,,,,,,,1,,,,85,0
9170,note_off,,35,0,6,,,,,,,2,,,,85,0
9205,note_off,,35,0,5,,,,,,,1,,,,61,0
9205,note_off,,35,0,6,,,,,,,2,,,,61,0
9220,note_off,,15,0,5,,,,,,,1,,,,71,0
9220,note_off,,0,0,5,,,,,,,1,,,,65,0
9220,note_off,,15,0,6,,,,,,,2,,,,71,0
9220,note_off,,0,0,6,,,,,,,2,,,,65,0
9235,note_on,,15,0,5,,,,,,,1,,,,73,80
9235,note_on,,15,0,6,,,,,,,2,,,,73,80
9305,note_off,,70,0,6,,,,,,,2,,,,73,0
9305,note_off,,70,0,5,,,,,,,1,,,,73,0
9355,note_on,,50,0,6,,,,,,,2,,,,73,64
9355,note_on,,50,0,5,,,,,,,1,,,,73,64
9395,note_off,,40,0,6,,,,,,,2,,,,73,0
9395,note_off,,40,0,5,,,,,,,1,,,,73,0
9465,note_on,,70,0,6,,,,,,,2,,,,73,91
9465,note_on,,70,0,5,,,,,,,1,,,,73,91
9545,note_off,,80,0,6,,,,,,,2,,,,73,0
9545,note_off,,80,0,5,,,,,,,1,,,,73,0
9595,note_on,,50,0,5,,,,,,,1,,,,54,80
9595,note_on,,50,0,6,,,,,,,2,,,,54,80
9600,note_on,,5,0,6,,,,,,,2,,,,85,80
9600,note_on,,5,0,5,,,,,,,1,,,,85,80
9650,note_off,,50,0,5,,,,,,,1,,,,85,0
9650,note_off,,50,0,6,,,,,,,2,,,,85,0
9705,note_on,,55,0,5,,,,,,,1,,,,73,91
9705,note_on,,55,0,6,,,,,,,2,,,,73,91
9730,note_off,,25,0,6,,,,,,,2,,,,54,0
9730,note_off,,25,0,5,,,,,,,1,,,,54,0
9765,note_off,,35,0,5,,,,,,,1,,,,73,0
9765,note_off,,35,0,6,,,,,,,2,,,,73,0
9850,note_on,,85,0,6,,,,,,,2,,,,85,29
9850,note_on,,85,0,5,,,,,,,1,,,,85,29
9890,note_off,,40,0,6,,,,,,,2,,,,85,0
9890,note_off,,40,0,5,,,,,,,1,,,,85,0
9940,note_on,,50,0,5,,,,,,,1,,,,85,61
9940,note_on,,50,0,6,,,,,,,2,,,,85,61
10015,note_off,,75,0,5,,,,,,,1,,,,85,0
10015,note_off,,75,0,6,,,,,,,2,,,,85,0
10075,note_on,,60,0,6,,,,,,,2,,,,97,61
10075,note_on,,60,0,5,,,,,,,1,,,,97,61
10080,note_on,,5,0,6,,,,,,,2,,,,66,76
10080,note_on,,0,0,6,,,,,,,2,,,,70,76
10080,note_on,,0,0,5,,,,,,,1,,,,70,76
10080,note_on,,5,0,5,,,,,,,1,,,,66,76
10085,note_on,,5,0,6,,,,,,,2,,,,61,72
10085,note_on,,5,0,5,,,,,,,1,,,,61,72
10145,note_off,,60,0,5,,,,,,,1,,,,97,0
10145,note_off,,60,0,6,,,,,,,2,,,,97,0
10160,note_off,,15,0,6,,,,,,,2,,,,61,0
10160,note_off,,15,0,5,,,,,,,1,,,,61,0
10165,note_off,,5,0,5,,,,,,,1,,,,66,0
10165,note_off,,0,0,6,,,,,,,2,,,,70,0
10165,note_off,,0,0,5,,,,,,,1,,,,70,0
10165,note_off,,5,0,6,,,,,,,2,,,,66,0
10180,note_on,,15,0,5,,,,,,,1,,,,85,61
10180,note_on,,15,0,6,,,,,,,2,,,,85,61
10235,note_off,,55,0,6,,,,,,,2,,,,85,0
10235,note_off,,55,0,5,,,,,,,1,,,,85,0
10310,note_on,,75,0,6,,,,,,,2,,,,85,50
10310,note_on,,75,0,5,,,,,,,1,,,,85,50
10340,note_off,,30,0,5,,,,,,,1,,,,85,0
10340,note_off,,30,0,6,,,,,,,2,,,,85,0
10420,note_on,,80,0,6,,,,,,,2,,,,73,92
10420,note_on,,80,0,5,,,,,,,1,,,,73,92
10475,note_off,,55,0,6,,,,,,,2,,,,73,0
10475,note_off,,55,0,5,,,,,,,1,,,,73,0
10550,note_on,,75,0,5,,,,,,,1,,,,49,110
10550,note_on,,0,0,6,,,,,,,2,,,,85,61
10550,note_on,,0,0,5,,,,,,,1,,,,85,61
10550,note_on,,75,0,6,,,,,,,2,,,,49,110
10610,note_off,,60,0,6,,,,,,,2,,,,85,0
10610,note_off,,60,0,5,,,,,,,1,,,,85,0
10660,note_on,,50,0,5,,,,,,,1,,,,73,80
10660,note_on,,50,0,6,,,,,,,2,,,,73,80
10670,note_off,,10,0,6,,,,,,,2,,,,49,0
10670,note_off,,10,0,5,,,,,,,1,,,,49,0
10725,note_off,,55,0,5,,,,,,,1,,,,73,0
10725,note_off,,55,0,6,,,,,,,2,,,,73,0
10795,note_on,,70,0,5,,,,,,,1,,,,73,58
10795,note_on,,70,0,6,,,,,,,2,,,,73,58
10830,note_off,,35,0,6,,,,,,,2,,,,73,0
10830,note_off,,35,0,5,,,,,,,1,,,,73,0
10900,note_on,,70,0,6,,,,,,,2,,,,73,80
10900,note_on,,70,0,5,,,,,,,1,,,,73,80
10975,note_off,,75,0,5,,,,,,,1,,,,73,0
10975,note_off,,75,0,6,,,,,,,2,,,,73,0
11015,note_on,,0,0,5,,,,,,,1,,,,70,72
11015,note_on,,0,0,6,,,,,,,2,,,,70,72
11015,note_on,,40,0,5,,,,,,,1,,,,66,78
11015,note_on,,40,0,6,,,,,,,2,,,,66,78
11020,note_on,,5,0,5,,,,,,,1,,,,61,64
11020,note_on,,5,0,6,,,,,,,2,,,,61,64
11045,note_on,,25,0,6,,,,,,,2,,,,85,61
11045,note_on,,25,0,5,,,,,,,1,,,,85,61
11075,note_off,,30,0,5,,,,,,,1,,,,85,0
11075,note_off,,30,0,6,,,,,,,2,,,,85,0
11105,note_off,,30,0,6,,,,,,,2,,,,61,0
11105,note_off,,0,0,5,,,,,,,1,,,,70,0
11105,note_off,,0,0,6,,,,,,,2,,,,70,0
11105,note_off,,30,0,5,,,,,,,1,,,,61,0
11110,note_off,,5,0,5,,,,,,,1,,,,66,0
11110,note_off,,5,0,6,,,,,,,2,,,,66,0
11140,note_on,,30,0,6,,,,,,,2,,,,73,80
11140,note_on,,30,0,5,,,,,,,1,,,,73,80
11220,note_off,,80,0,5,,,,,,,1,,,,73,0
11220,note_off,,80,0,6,,,,,,,2,,,,73,0
11265,note_on,,45,0,5,,,,,,,1,,,,73,64
11265,note_on,,45,0,6,,,,,,,2,,,,73,64
11315,note_off,,50,0,5,,,,,,,1,,,,73,0
11315,note_off,,50,0,6,,,,,,,2,,,,73,0
11385,note_on,,70,0,5,,,,,,,1,,,,73,80
11385,note_on,,70,0,6,,,,,,,2,,,,73,80
11470,note_off,,85,0,5,,,,,,,1,,,,73,0
11470,note_off,,85,0,6,,,,,,,2,,,,73,0
11525,note_on,,55,0,5,,,,,,,1,,,,56,80
11525,note_on,,55,0,6,,,,,,,2,,,,56,80
11530,note_on,,5,0,5,,,,,,,1,,,,85,50
11530,note_on,,5,0,6,,,,,,,2,,,,85,50
11595,note_off,,65,0,6,,,,,,,2,,,,56,0
11595,note_off,,65,0,5,,,,,,,1,,,,56,0
11625,note_off,,30,0,6,,,,,,,2,,,,85,0
11625,note_off,,30,0,5,,,,,,,1,,,,85,0
11635,note_on,,10,0,5,,,,,,,1,,,,73,91
11635,note_on,,10,0,6,,,,,,,2,,,,73,91
11705,note_off,,70,0,5,,,,,,,1,,,,73,0
11705,note_off,,70,0,6,,,,,,,2,,,,73,0
11740,note_on,,0,0,6,,,,,,,2,,,,65,76
11740,note_on,,0,0,6,,,,,,,2,,,,61,76
11740,note_on,,35,0,5,,,,,,,1,,,,71,64
11740,note_on,,0,0,5,,,,,,,1,,,,61,76
11740,note_on,,0,0,5,,,,,,,1,,,,65,76
11740,note_on,,35,0,6,,,,,,,2,,,,71,64
11755,note_on,,15,0,5,,,,,,,1,,,,85,50
11755,note_on,,15,0,6,,,,,,,2,,,,85,50
11785,note_off,,30,0,6,,,,,,,2,,,,85,0
11785,note_off,,30,0,5,,,,,,,1,,,,85,0
11815,note_off,,30,0,6,,,,,,,2,,,,61,0
11815,note_off,,30,0,5,,,,,,,1,,,,61,0
11820,note_off,,5,0,5,,,,,,,1,,,,65,0
11820,note_off,,5,0,6,,,,,,,2,,,,65,0
11830,note_off,,10,0,6,,,,,,,2,,,,71,0
11830,note_off,,10,0,5,,,,,,,1,,,,71,0
11865,note_on,,35,0,6,,,,,,,2,,,,85,61
11865,note_on,,35,0,5,,,,,,,1,,,,85,61
11940,note_off,,75,0,5,,,,,,,1,,,,85,0
11940,note_off,,75,0,6,,,,,,,2,,,,85,0
11975,note_on,,35,0,5,,,,,,,1,,,,49,71
11975,note_on,,35,0,6,,,,,,,2,,,,49,71
11990,note_on,,15,0,5,,,,,,,1,,,,97,61
11990,note_on,,15,0,6,,,,,,,2,,,,97,61
12050,note_off,,60,0,5,,,,,,,1,,,,97,0
12050,note_off,,60,0,6,,,,,,,2,,,,97,0
12060,note_off,,10,0,5,,,,,,,1,,,,49,0
12060,note_off,,10,0,6,,,,,,,2,,,,49,0
12075,note_on,,15,0,5,,,,,,,1,,,,85,61
12075,note_on,,15,0,6,,,,,,,2,,,,85,61
12130,note_off,,55,0,6,,,,,,,2,,,,85,0
12130,note_off,,55,0,5,,,,,,,1,,,,85,0
12205,note_on,,75,0,5,,,,,,,1,,,,85,61
12205,note_on,,75,0,6,,,,,,,2,,,,85,61
12215,note_on,,10,0,5,,,,,,,1,,,,71,68
12215,note_on,,10,0,6,,,,,,,2,,,,71,68
12220,note_on,,5,0,6,,,,,,,2,,,,61,64
12220,note_on,,0,0,5,,,,,,,1,,,,65,64
12220,note_on,,0,0,6,,,,,,,2,,,,65,64
12220,note_on,,5,0,5,,,,,,,1,,,,61,64
12265,note_off,,45,0,6,,,,,,,2,,,,85,0
12265,note_off,,45,0,5,,,,,,,1,,,,85,0
12275,note_off,,10,0,6,,,,,,,2,,,,61,0
12275,note_off,,10,0,5,,,,,,,1,,,,61,0
12285,note_off,,10,0,6,,,,,,,2,,,,65,0
12285,note_off,,10,0,5,,,,,,,1,,,,65,0
12290,note_off,,5,0,6,,,,,,,2,,,,71,0
12290,note_off,,5,0,5,,,,,,,1,,,,71,0
12330,note_on,,40,0,6,,,,,,,2,,,,73,80
12330,note_on,,40,0,5,,,,,,,1,,,,73,80
12370,note_off,,40,0,6,,,,,,,2,,,,73,0
12370,note_off,,40,0,5,,,,,,,1,,,,73,0
12440,note_on,,70,0,5,,,,,,,1,,,,56,80
12440,note_on,,70,0,6,,,,,,,2,,,,56,80
12460,note_on,,20,0,5,,,,,,,1,,,,85,80
12460,note_on,,20,0,6,,,,,,,2,,,,85,80
12505,note_off,,45,0,5,,,,,,,1,,,,56,0
12505,note_off,,45,0,6,,,,,,,2,,,,56,0
12520,note_off,,15,0,6,,,,,,,2,,,,85,0
12520,note_off,,15,0,5,,,,,,,1,,,,85,0
12575,note_on,,55,0,5,,,,,,,1,,,,73,80
12575,note_on,,55,0,6,,,,,,,2,,,,73,80
12645,note_off,,70,0,6,,,,,,,2,,,,73,0
12645,note_off,,70,0,5,,,,,,,1,,,,73,0
12700,note_on,,55,0,5,,,,,,,1,,,,71,55
12700,note_on,,0,0,6,,,,,,,2,,,,65,58
12700,note_on,,0,0,5,,,,,,,1,,,,61,54
12700,note_on,,0,0,5,,,,,,,1,,,,65,58
12700,note_on,,0,0,6,,,,,,,2,,,,61,54
12700,note_on,,55,0,6,,,,,,,2,,,,71,55
12710,note_on,,10,0,6,,,,,,,2,,,,73,58
12710,note_on,,10,0,5,,,,,,,1,,,,73,58
12740,note_off,,30,0,5,,,,,,,1,,,,73,0
12740,note_off,,30,0,6,,,,,,,2,,,,73,0
12755,note_off,,15,0,5,,,,,,,1,,,,61,0
12755,note_off,,15,0,6,,,,,,,2,,,,61,0
12770,note_off,,15,0,6,,,,,,,2,,,,71,0
12770,note_off,,0,0,6,,,,,,,2,,,,65,0
12770,note_off,,0,0,5,,,,,,,1,,,,65,0
12770,note_off,,15,0,5,,,,,,,1,,,,71,0
12825,note_on,,55,0,6,,,,,,,2,,,,73,80
12825,note_on,,55,0,5,,,,,,,1,,,,73,80
12895,note_off,,70,0,5,,,,,,,1,,,,73,0
12895,note_off,,70,0,6,,,,,,,2,,,,73,0
12935,note_on,,40,0,5,,,,,,,1,,,,49,80
12935,note_on,,40,0,6,,,,,,,2,,,,49,80
12960,note_on,,25,0,5,,,,,,,1,,,,85,62
12960,note_on,,25,0,6,,,,,,,2,,,,85,62
13020,note_off,,60,0,5,,,,,,,1,,,,85,0
13020,note_off,,60,0,6,,,,,,,2,,,,85,0
13040,note_off,,20,0,6,,,,,,,2,,,,49,0
13040,note_off,,20,0,5,,,,,,,1,,,,49,0
13065,note_on,,25,0,6,,,,,,,2,,,,73,80
13065,note_on,,25,0,5,,,,,,,1,,,,73,80
13145,note_off,,80,0,6,,,,,,,2,,,,73,0
13145,note_off,,80,0,5,,,,,,,1,,,,73,0
13190,note_on,,45,0,6,,,,,,,2,,,,71,76
13190,note_on,,0,0,5,,,,,,,1,,,,61,64
13190,note_on,,45,0,5,,,,,,,1,,,,71,76
13190,note_on,,0,0,6,,,,,,,2,,,,61,64
13195,note_on,,0,0,5,,,,,,,1,,,,65,64
13195,note_on,,5,0,5,,,,,,,1,,,,73,58
13195,note_on,,0,0,6,,,,,,,2,,,,65,64
13195,note_on,,5,0,6,,,,,,,2,,,,73,58
13230,note_off,,35,0,6,,,,,,,2,,,,73,0
13230,note_off,,35,0,5,,,,,,,1,,,,73,0
13255,note_off,,25,0,6,,,,,,,2,,,,61,0
13255,note_off,,25,0,5,,,,,,,1,,,,61,0
13260,note_off,,5,0,6,,,,,,,2,,,,65,0
13260,note_off,,5,0,5,,,,,,,1,,,,65,0
13285,note_off,,25,0,5,,,,,,,1,,,,71,0
13285,note_off,,25,0,6,,,,,,,2,,,,71,0
13305,note_on,,20,0,5,,,,,,,1,,,,73,80
13305,note_on,,20,0,6,,,,,,,2,,,,73,80
13380,note_off,,75,0,5,,,,,,,1,,,,73,0
13380,note_off,,75,0,6,,,,,,,2,,,,73,0
13420,note_on,,40,0,5,,,,,,,1,,,,54,80
13420,note_on,,40,0,6,,,,,,,2,,,,54,80
13440,note_on,,20,0,5,,,,,,,1,,,,85,61
13440,note_on,,20,0,6,,,,,,,2,,,,85,61
13500,note_off,,60,0,6,,,,,,,2,,,,54,0
13500,note_off,,60,0,5,,,,,,,1,,,,54,0
13510,note_off,,10,0,6,,,,,,,2,,,,85,0
13510,note_off,,10,0,5,,,,,,,1,,,,85,0
13535,note_on,,25,0,5,,,,,,,1,,,,73,92
13535,note_on,,25,0,6,,,,,,,2,,,,73,92
13605,note_off,,70,0,6,,,,,,,2,,,,73,0
13605,note_off,,70,0,5,,,,,,,1,,,,73,0
13655,note_on,,50,0,6,,,,,,,2,,,,66,76
13655,note_on,,50,0,5,,,,,,,1,,,,66,76
13660,note_on,,5,0,5,,,,,,,1,,,,70,72
13660,note_on,,5,0,6,,,,,,,2,,,,70,72
13665,note_on,,5,0,5,,,,,,,1,,,,61,64
13665,note_on,,5,0,6,,,,,,,2,,,,61,64
13680,note_on,,15,0,5,,,,,,,1,,,,85,24
13680,note_on,,15,0,6,,,,,,,2,,,,85,24
13725,note_off,,0,0,6,,,,,,,2,,,,61,0
13725,note_off,,0,0,5,,,,,,,1,,,,61,0
13725,note_off,,45,0,6,,,,,,,2,,,,85,0
13725,note_off,,45,0,5,,,,,,,1,,,,85,0
13730,note_off,,5,0,5,,,,,,,1,,,,66,0
13730,note_off,,5,0,6,,,,,,,2,,,,66,0
13745,note_off,,15,0,5,,,,,,,1,,,,70,0
13745,note_off,,15,0,6,,,,,,,2,,,,70,0
13785,note_on,,40,0,5,,,,,,,1,,,,85,61
13785,note_on,,40,0,6,,,,,,,2,,,,85,61
13880,note_off,,95,0,6,,,,,,,2,,,,85,0
13880,note_off,,95,0,5,,,,,,,1,,,,85,0
13915,note_on,,35,0,6,,,,,,,2,,,,49,80
13915,note_on,,35,0,5,,,,,,,1,,,,49,80
13920,note_on,,5,0,6,,,,,,,2,,,,97,80
13920,note_on,,5,0,5,,,,,,,1,,,,97,80
14000,note_off,,80,0,6,,,,,,,2,,,,97,0
14000,note_off,,80,0,5,,,,,,,1,,,,97,0
14010,note_off,,10,0,5,,,,,,,1,,,,49,0
14010,note_off,,10,0,6,,,,,,,2,,,,49,0
14025,note_on,,15,0,6,,,,,,,2,,,,85,62
14025,note_on,,15,0,5,,,,,,,1,,,,85,62
14075,note_off,,50,0,5,,,,,,,1,,,,85,0
14075,note_off,,50,0,6,,,,,,,2,,,,85,0
14150,note_on,,75,0,5,,,,,,,1,,,,66,88
14150,note_on,,75,0,6,,,,,,,2,,,,66,88
14155,note_on,,5,0,5,,,,,,,1,,,,70,72
14155,note_on,,5,0,6,,,,,,,2,,,,70,72
14160,note_on,,5,0,5,,,,,,,1,,,,61,64
14160,note_on,,5,0,6,,,,,,,2,,,,61,64
14165,note_on,,5,0,6,,,,,,,2,,,,85,29
14165,note_on,,5,0,5,,,,,,,1,,,,85,29
14205,note_off,,40,0,5,,,,,,,1,,,,85,0
14205,note_off,,40,0,6,,,,,,,2,,,,85,0
14210,note_off,,5,0,6,,,,,,,2,,,,61,0
14210,note_off,,5,0,5,,,,,,,1,,,,61,0
14220,note_off,,0,0,5,,,,,,,1,,,,66,0
14220,note_off,,0,0,6,,,,,,,2,,,,66,0
14220,note_off,,10,0,5,,,,,,,1,,,,70,0
14220,note_off,,10,0,6,,,,,,,2,,,,70,0
14270,note_on,,50,0,6,,,,,,,2,,,,73,92
14270,note_on,,50,0,5,,,,,,,1,,,,73,92
14335,note_off,,65,0,6,,,,,,,2,,,,73,0
14335,note_off,,65,0,5,,,,,,,1,,,,73,0
14395,note_on,,60,0,6,,,,,,,2,,,,54,80
14395,note_on,,60,0,5,,,,,,,1,,,,54,80
14405,note_on,,10,0,5,,,,,,,1,,,,85,61
14405,note_on,,10,0,6,,,,,,,2,,,,85,61
14475,note_off,,70,0,5,,,,,,,1,,,,54,0
14475,note_off,,70,0,6,,,,,,,2,,,,54,0
14485,note_off,,10,0,5,,,,,,,1,,,,85,0
14485,note_off,,10,0,6,,,,,,,2,,,,85,0
14515,note_on,,30,0,5,,,,,,,1,,,,73,80
14515,note_on,,30,0,6,,,,,,,2,,,,73,80
14580,note_off,,65,0,5,,,,,,,1,,,,73,0
14580,note_off,,65,0,6,,,,,,,2,,,,73,0
14635,note_on,,0,0,5,,,,,,,1,,,,70,88
14635,note_on,,0,0,6,,,,,,,2,,,,70,88
14635,note_on,,55,0,5,,,,,,,1,,,,73,72
14635,note_on,,55,0,6,,,,,,,2,,,,73,72
14635,note_on,,0,0,5,,,,,,,1,,,,66,76
14635,note_on,,0,0,6,,,,,,,2,,,,66,76
14645,note_on,,10,0,5,,,,,,,1,,,,61,60
14645,note_on,,10,0,6,,,,,,,2,,,,61,60
14685,note_off,,40,0,5,,,,,,,1,,,,73,0
14685,note_off,,40,0,6,,,,,,,2,,,,73,0
14690,note_off,,5,0,6,,,,,,,2,,,,61,0
14690,note_off,,5,0,5,,,,,,,1,,,,61,0
14700,note_off,,10,0,6,,,,,,,2,,,,66,0
14700,note_off,,10,0,5,,,,,,,1,,,,66,0
14705,note_off,,5,0,5,,,,,,,1,,,,70,0
14705,note_off,,5,0,6,,,,,,,2,,,,70,0
14750,note_on,,45,0,6,,,,,,,2,,,,73,92
14750,note_on,,45,0,5,,,,,,,1,,,,73,92
14835,note_off,,85,0,5,,,,,,,1,,,,73,0
14835,note_off,,85,0,6,,,,,,,2,,,,73,0
14870,note_on,,35,0,5,,,,,,,1,,,,49,80
14870,note_on,,35,0,6,,,,,,,2,,,,49,80
14895,note_on,,25,0,6,,,,,,,2,,,,85,61
14895,note_on,,25,0,5,,,,,,,1,,,,85,61
14930,note_off,,35,0,5,,,,,,,1,,,,85,0
14930,note_off,,35,0,6,,,,,,,2,,,,85,0
14965,note_off,,35,0,6,,,,,,,2,,,,49,0
14965,note_off,,35,0,5,,,,,,,1,,,,49,0
14990,note_on,,25,0,5,,,,,,,1,,,,73,92
14990,note_on,,25,0,6,,,,,,,2,,,,73,92
15075,note_off,,85,0,5,,,,,,,1,,,,73,0
15075,note_off,,85,0,6,,,,,,,2,,,,73,0
15105,note_on,,30,0,6,,,,,,,2,,,,66,70
15105,note_on,,0,0,6,,,,,,,2,,,,70,64
15105,note_on,,30,0,5,,,,,,,1,,,,66,70
15105,note_on,,0,0,5,,,,,,,1,,,,70,64
15115,note_on,,0,0,5,,,,,,,1,,,,61,57
15115,note_on,,0,0,6,,,,,,,2,,,,61,57
15115,note_on,,10,0,6,,,,,,,2,,,,73,71
15115,note_on,,10,0,5,,,,,,,1,,,,73,71
15160,note_off,,45,0,6,,,,,,,2,,,,73,0
15160,note_off,,45,0,5,,,,,,,1,,,,73,0
15165,note_off,,5,0,6,,,,,,,2,,,,61,0
15165,note_off,,5,0,5,,,,,,,1,,,,61,0
15175,note_off,,10,0,6,,,,,,,2,,,,66,0
15175,note_off,,10,0,5,,,,,,,1,,,,66,0
15180,note_off,,5,0,6,,,,,,,2,,,,70,0
15180,note_off,,5,0,5,,,,,,,1,,,,70,0
15225,note_on,,45,0,5,,,,,,,1,,,,73,91
15225,note_on,,45,0,6,,,,,,,2,,,,73,91
15310,note_off,,85,0,6,,,,,,,2,,,,73,0
15310,note_off,,85,0,5,,,,,,,1,,,,73,0
15345,note_on,,35,0,6,,,,,,,2,,,,56,80
15345,note_on,,35,0,5,,,,,,,1,,,,56,80
15360,note_on,,15,0,5,,,,,,,1,,,,85,61
15360,note_on,,15,0,6,,,,,,,2,,,,85,61
15410,note_off,,50,0,6,,,,,,,2,,,,56,0
15410,note_off,,50,0,5,,,,,,,1,,,,56,0
15440,note_off,,30,0,6,,,,,,,2,,,,85,0
15440,note_off,,30,0,5,,,,,,,1,,,,85,0
15460,note_on,,20,0,6,,,,,,,2,,,,73,92
15460,note_on,,20,0,5,,,,,,,1,,,,73,92
15530,note_off,,70,0,5,,,,,,,1,,,,73,0
15530,note_off,,70,0,6,,,,,,,2,,,,73,0
15590,note_on,,60,0,6,,,,,,,2,,,,61,64
15590,note_on,,60,0,5,,,,,,,1,,,,61,64
15590,note_on,,0,0,6,,,,,,,2,,,,71,76
15590,note_on,,0,0,6,,,,,,,2,,,,65,76
15590,note_on,,0,0,5,,,,,,,1,,,,71,76
15590,note_on,,0,0,5,,,,,,,1,,,,65,76
15600,note_on,,10,0,5,,,,,,,1,,,,85,28
15600,note_on,,10,0,6,,,,,,,2,,,,85,28
15630,note_off,,30,0,6,,,,,,,2,,,,85,0
15630,note_off,,30,0,5,,,,,,,1,,,,85,0
15660,note_off,,30,0,6,,,,,,,2,,,,61,0
15660,note_off,,30,0,5,,,,,,,1,,,,61,0
15670,note_off,,0,0,5,,,,,,,1,,,,71,0
15670,note_off,,0,0,6,,,,,,,2,,,,71,0
15670,note_off,,10,0,6,,,,,,,2,,,,65,0
15670,note_off,,10,0,5,,,,,,,1,,,,65,0
15700,note_on,,30,0,6,,,,,,,2,,,,85,61
15700,note_on,,30,0,5,,,,,,,1,,,,85,61
15800,note_off,,100,0,6,,,,,,,2,,,,85,0
15800,note_off,,100,0,5,,,,,,,1,,,,85,0
15830,note_on,,30,0,6,,,,,,,2,,,,97,62
15830,note_on,,30,0,5,,,,,,,1,,,,97,62
15835,note_on,,5,0,6,,,,,,,2,,,,49,80
15835,note_on,,5,0,5,,,,,,,1,,,,49,80
15905,note_off,,70,0,5,,,,,,,1,,,,49,0
15905,note_off,,70,0,6,,,,,,,2,,,,49,0
15905,note_off,,0,0,6,,,,,,,2,,,,97,0
15905,note_off,,0,0,5,,,,,,,1,,,,97,0
15930,note_on,,25,0,5,,,,,,,1,,,,85,61
15930,note_on,,25,0,6,,,,,,,2,,,,85,61
15955,note_off,,25,0,6,,,,,,,2,,,,85,0
15955,note_off,,25,0,5,,,,,,,1,,,,85,0
16060,note_on,,105,0,5,,,,,,,1,,,,85,60
16060,note_on,,105,0,6,,,,,,,2,,,,85,60
16065,note_on,,0,0,5,,,,,,,1,,,,71,72
16065,note_on,,5,0,5,,,,,,,1,,,,65,72
16065,note_on,,5,0,6,,,,,,,2,,,,65,72
16065,note_on,,0,0,6,,,,,,,2,,,,71,72
16070,note_on,,5,0,5,,,,,,,1,,,,61,64
16070,note_on,,5,0,6,,,,,,,2,,,,61,64
16115,note_off,,45,0,6,,,,,,,2,,,,85,0
16115,note_off,,45,0,5,,,,,,,1,,,,85,0
16120,note_off,,5,0,5,,,,,,,1,,,,61,0
16120,note_off,,5,0,6,,,,,,,2,,,,61,0
16140,note_off,,20,0,6,,,,,,,2,,,,65,0
16140,note_off,,20,0,5,,,,,,,1,,,,65,0
16145,note_off,,5,0,5,,,,,,,1,,,,71,0
16145,note_off,,5,0,6,,,,,,,2,,,,71,0
16180,note_on,,35,0,6,,,,,,,2,,,,73,80
16180,note_on,,35,0,5,,,,,,,1,,,,73,80
16235,note_off,,55,0,6,,,,,,,2,,,,73,0
16235,note_off,,55,0,5,,,,,,,1,,,,73,0
16300,note_on,,65,0,6,,,,,,,2,,,,56,92
16300,note_on,,65,0,5,,,,,,,1,,,,56,92
16310,note_on,,10,0,6,,,,,,,2,,,,85,61
16310,note_on,,10,0,5,,,,,,,1,,,,85,61
16380,note_off,,70,0,6,,,,,,,2,,,,56,0
16380,note_off,,70,0,5,,,,,,,1,,,,56,0
16405,note_off,,25,0,5,,,,,,,1,,,,85,0
16405,note_off,,25,0,6,,,,,,,2,,,,85,0
16425,note_on,,20,0,5,,,,,,,1,,,,73,92
16425,note_on,,20,0,6,,,,,,,2,,,,73,92
16495,note_off,,70,0,6,,,,,,,2,,,,73,0
16495,note_off,,70,0,5,,,,,,,1,,,,73,0
16535,note_on,,40,0,5,,,,,,,1,,,,71,76
16535,note_on,,0,0,6,,,,,,,2,,,,65,72
16535,note_on,,40,0,6,,,,,,,2,,,,71,76
16535,note_on,,0,0,5,,,,,,,1,,,,65,72
16540,note_on,,5,0,6,,,,,,,2,,,,61,64
16540,note_on,,5,0,5,,,,,,,1,,,,61,64
16550,note_on,,10,0,6,,,,,,,2,,,,85,50
16550,note_on,,10,0,5,,,,,,,1,,,,85,50
16590,note_off,,40,0,5,,,,,,,1,,,,85,0
16590,note_off,,40,0,6,,,,,,,2,,,,85,0
16600,note_off,,10,0,6,,,,,,,2,,,,61,0
16600,note_off,,10,0,5,,,,,,,1,,,,61,0
16610,note_off,,10,0,5,,,,,,,1,,,,65,0
16610,note_off,,10,0,6,,,,,,,2,,,,65,0
16620,note_off,,10,0,6,,,,,,,2,,,,71,0
16620,note_off,,10,0,5,,,,,,,1,,,,71,0
16655,note_on,,35,0,5,,,,,,,1,,,,85,80
16655,note_on,,35,0,6,,,,,,,2,,,,85,80
16735,note_off,,80,0,6,,,,,,,2,,,,85,0
16735,note_off,,80,0,5,,,,,,,1,,,,85,0
16775,note_on,,40,0,5,,,,,,,1,,,,49,110
16775,note_on,,40,0,6,,,,,,,2,,,,49,110
16785,note_on,,10,0,5,,,,,,,1,,,,97,61
16785,note_on,,10,0,6,,,,,,,2,,,,97,61
16830,note_off,,45,0,5,,,,,,,1,,,,97,0
16830,note_off,,45,0,6,,,,,,,2,,,,97,0
16865,note_off,,35,0,5,,,,,,,1,,,,49,0
16865,note_off,,35,0,6,,,,,,,2,,,,49,0
16875,note_on,,10,0,5,,,,,,,1,,,,85,61
16875,note_on,,10,0,6,,,,,,,2,,,,85,61
16905,note_off,,30,0,6,,,,,,,2,,,,85,0
16905,note_off,,30,0,5,,,,,,,1,,,,85,0
17000,note_on,,95,0,6,,,,,,,2,,,,65,72
17000,note_on,,0,0,6,,,,,,,2,,,,71,72
17000,note_on,,95,0,5,,,,,,,1,,,,65,72
17000,note_on,,0,0,5,,,,,,,1,,,,71,72
17005,note_on,,5,0,5,,,,,,,1,,,,61,59
17005,note_on,,5,0,6,,,,,,,2,,,,61,59
17005,note_on,,0,0,5,,,,,,,1,,,,85,48
17005,note_on,,0,0,6,,,,,,,2,,,,85,48
17045,note_off,,40,0,6,,,,,,,2,,,,85,0
17045,note_off,,40,0,5,,,,,,,1,,,,85,0
17060,note_off,,15,0,5,,,,,,,1,,,,61,0
17060,note_off,,15,0,6,,,,,,,2,,,,61,0
17080,note_off,,20,0,5,,,,,,,1,,,,65,0
17080,note_off,,20,0,6,,,,,,,2,,,,65,0
17085,note_off,,5,0,5,,,,,,,1,,,,71,0
17085,note_off,,5,0,6,,,,,,,2,,,,71,0
17135,note_on,,50,0,6,,,,,,,2,,,,73,80
17135,note_on,,50,0,5,,,,,,,1,,,,73,80
17195,note_off,,60,0,5,,,,,,,1,,,,73,0
17195,note_off,,60,0,6,,,,,,,2,,,,73,0
17235,note_on,,40,0,5,,,,,,,1,,,,54,80
17235,note_on,,40,0,6,,,,,,,2,,,,54,80
17255,note_on,,20,0,6,,,,,,,2,,,,85,62
17255,note_on,,20,0,5,,,,,,,1,,,,85,62
17305,note_off,,50,0,6,,,,,,,2,,,,54,0
17305,note_off,,50,0,5,,,,,,,1,,,,54,0
17370,note_off,,65,0,5,,,,,,,1,,,,85,0
17370,note_on,,0,0,5,,,,,,,1,,,,73,104
17370,note_on,,0,0,6,,,,,,,2,,,,73,104
17370,note_off,,65,0,6,,,,,,,2,,,,85,0
17440,note_off,,70,0,5,,,,,,,1,,,,73,0
17440,note_off,,70,0,6,,,,,,,2,,,,73,0
17465,note_on,,25,0,6,,,,,,,2,,,,66,88
17465,note_on,,25,0,5,,,,,,,1,,,,66,88
17465,note_on,,0,0,5,,,,,,,1,,,,70,72
17465,note_on,,0,0,6,,,,,,,2,,,,70,72
17475,note_on,,10,0,6,,,,,,,2,,,,61,59
17475,note_on,,10,0,5,,,,,,,1,,,,61,59
17490,note_on,,15,0,5,,,,,,,1,,,,85,50
17490,note_on,,15,0,6,,,,,,,2,,,,85,50
17530,note_off,,40,0,6,,,,,,,2,,,,61,0
17530,note_off,,0,0,5,,,,,,,1,,,,66,0
17530,note_off,,40,0,5,,,,,,,1,,,,61,0
17530,note_off,,0,0,6,,,,,,,2,,,,66,0
17535,note_off,,5,0,6,,,,,,,2,,,,85,0
17535,note_off,,5,0,5,,,,,,,1,,,,85,0
17540,note_off,,5,0,6,,,,,,,2,,,,70,0
17540,note_off,,5,0,5,,,,,,,1,,,,70,0
17590,note_on,,50,0,6,,,,,,,2,,,,85,80
17590,note_on,,50,0,5,,,,,,,1,,,,85,80
17670,note_off,,80,0,5,,,,,,,1,,,,85,0
17670,note_off,,80,0,6,,,,,,,2,,,,85,0
17715,note_on,,45,0,6,,,,,,,2,,,,49,91
17715,note_on,,45,0,5,,,,,,,1,,,,49,91
17725,note_on,,10,0,6,,,,,,,2,,,,97,80
17725,note_on,,10,0,5,,,,,,,1,,,,97,80
17805,note_off,,0,0,6,,,,,,,2,,,,49,0
17805,note_off,,80,0,6,,,,,,,2,,,,97,0
17805,note_off,,0,0,5,,,,,,,1,,,,49,0
17805,note_off,,80,0,5,,,,,,,1,,,,97,0
17830,note_on,,25,0,6,,,,,,,2,,,,85,80
17830,note_on,,25,0,5,,,,,,,1,,,,85,80
17880,note_off,,50,0,6,,,,,,,2,,,,85,0
17880,note_off,,50,0,5,,,,,,,1,,,,85,0
17955,note_on,,75,0,6,,,,,,,2,,,,85,50
17955,note_on,,75,0,5,,,,,,,1,,,,85,50
17960,note_on,,5,0,6,,,,,,,2,,,,66,84
17960,note_on,,5,0,5,,,,,,,1,,,,66,84
17960,note_on,,0,0,5,,,,,,,1,,,,70,84
17960,note_on,,0,0,6,,,,,,,2,,,,70,84
17960,note_on,,0,0,6,,,,,,,2,,,,61,72
17960,note_on,,0,0,5,,,,,,,1,,,,61,72
18020,note_off,,60,0,6,,,,,,,2,,,,85,0
18020,note_off,,60,0,5,,,,,,,1,,,,85,0
18025,note_off,,5,0,6,,,,,,,2,,,,66,0
18025,note_off,,0,0,5,,,,,,,1,,,,61,0
18025,note_off,,0,0,6,,,,,,,2,,,,61,0
18025,note_off,,5,0,5,,,,,,,1,,,,66,0
18035,note_off,,10,0,5,,,,,,,1,,,,70,0
18035,note_off,,10,0,6,,,,,,,2,,,,70,0
18070,note_on,,35,0,6,,,,,,,2,,,,73,92
18070,note_on,,35,0,5,,,,,,,1,,,,73,92
18130,note_off,,60,0,5,,,,,,,1,,,,73,0
18130,note_off,,60,0,6,,,,,,,2,,,,73,0
18195,note_on,,65,0,5,,,,,,,1,,,,54,91
18195,note_on,,65,0,6,,,,,,,2,,,,54,91
18200,note_on,,5,0,5,,,,,,,1,,,,85,80
18200,note_on,,5,0,6,,,,,,,2,,,,85,80
18280,note_off,,80,0,6,,,,,,,2,,,,54,0
18280,note_off,,80,0,5,,,,,,,1,,,,54,0
18310,note_on,,0,0,6,,,,,,,2,,,,73,104
18310,note_off,,30,0,6,,,,,,,2,,,,85,0
18310,note_on,,0,0,5,,,,,,,1,,,,73,104
18310,note_off,,30,0,5,,,,,,,1,,,,85,0
18380,note_off,,70,0,5,,,,,,,1,,,,73,0
18380,note_off,,70,0,6,,,,,,,2,,,,73,0
18430,note_on,,50,0,5,,,,,,,1,,,,66,88
18430,note_on,,50,0,6,,,,,,,2,,,,66,88
18435,note_on,,0,0,6,,,,,,,2,,,,61,88
18435,note_on,,0,0,5,,,,,,,1,,,,61,88
18435,note_on,,5,0,5,,,,,,,1,,,,70,72
18435,note_on,,5,0,6,,,,,,,2,,,,70,72
18445,note_on,,10,0,5,,,,,,,1,,,,85,50
18445,note_on,,10,0,6,,,,,,,2,,,,85,50
18500,note_off,,0,0,5,,,,,,,1,,,,66,0
18500,note_off,,55,0,6,,,,,,,2,,,,85,0
18500,note_off,,0,0,5,,,,,,,1,,,,61,0
18500,note_off,,0,0,6,,,,,,,2,,,,61,0
18500,note_off,,55,0,5,,,,,,,1,,,,85,0
18500,note_off,,0,0,6,,,,,,,2,,,,66,0
18505,note_off,,5,0,5,,,,,,,1,,,,70,0
18505,note_off,,5,0,6,,,,,,,2,,,,70,0
18560,note_on,,55,0,6,,,,,,,2,,,,85,80
18560,note_on,,55,0,5,,,,,,,1,,,,85,80
18645,note_off,,85,0,6,,,,,,,2,,,,85,0
18645,note_off,,85,0,5,,,,,,,1,,,,85,0
18670,note_on,,25,0,6,,,,,,,2,,,,49,110
18670,note_on,,25,0,5,,,,,,,1,,,,49,110
18695,note_on,,25,0,6,,,,,,,2,,,,97,80
18695,note_on,,25,0,5,,,,,,,1,,,,97,80
18760,note_off,,65,0,6,,,,,,,2,,,,97,0
18760,note_off,,65,0,5,,,,,,,1,,,,97,0
18770,note_off,,10,0,6,,,,,,,2,,,,49,0
18770,note_off,,10,0,5,,,,,,,1,,,,49,0
18780,note_on,,10,0,5,,,,,,,1,,,,85,61
18780,note_on,,10,0,6,,,,,,,2,,,,85,61
18835,note_off,,55,0,6,,,,,,,2,,,,85,0
18835,note_off,,55,0,5,,,,,,,1,,,,85,0
18915,note_on,,80,0,5,,,,,,,1,,,,85,62
18915,note_on,,80,0,6,,,,,,,2,,,,85,62
18920,note_on,,5,0,5,,,,,,,1,,,,70,88
18920,note_on,,0,0,6,,,,,,,2,,,,66,104
18920,note_on,,5,0,6,,,,,,,2,,,,70,88
18920,note_on,,0,0,5,,,,,,,1,,,,66,104
18925,note_on,,5,0,6,,,,,,,2,,,,61,80
18925,note_on,,5,0,5,,,,,,,1,,,,61,80
18975,note_off,,50,0,5,,,,,,,1,,,,85,0
18975,note_off,,50,0,6,,,,,,,2,,,,85,0
18995,note_off,,20,0,6,,,,,,,2,,,,66,0
18995,note_off,,20,0,5,,,,,,,1,,,,66,0
18995,note_off,,0,0,6,,,,,,,2,,,,61,0
18995,note_off,,0,0,5,,,,,,,1,,,,61,0
19010,note_off,,15,0,6,,,,,,,2,,,,70,0
19010,note_off,,15,0,5,,,,,,,1,,,,70,0
19040,note_on,,30,0,5,,,,,,,1,,,,73,110
19040,note_on,,30,0,6,,,,,,,2,,,,73,110
19100,note_off,,60,0,5,,,,,,,1,,,,73,0
19100,note_off,,60,0,6,,,,,,,2,,,,73,0
19200,note_on,,100,0,6,,,,,,,2,,,,84,84
19200,note_on,,100,0,5,,,,,,,1,,,,84,84
19245,note_off,,45,0,5,,,,,,,1,,,,84,0
19245,note_off,,45,0,6,,,,,,,2,,,,84,0
19410,note_on,,165,0,5,,,,,,,1,,,,56,79
19410,note_on,,165,0,6,,,,,,,2,,,,56,79
19415,note_on,,5,0,6,,,,,,,2,,,,65,72
19415,note_on,,5,0,5,,,,,,,1,,,,65,72
19420,note_on,,5,0,5,,,,,,,1,,,,61,77
19420,note_on,,5,0,6,,,,,,,2,,,,61,77
19455,note_on,,35,0,6,,,,,,,2,,,,80,88
19455,note_on,,35,0,5,,,,,,,1,,,,80,88
19455,note_on,,0,0,5,,,,,,,1,,,,85,50
19455,note_on,,0,0,5,,,,,,,1,,,,73,80
19455,note_on,,0,0,6,,,,,,,2,,,,85,50
19455,note_on,,0,0,6,,,,,,,2,,,,73,80
19480,note_off,,25,0,5,,,,,,,1,,,,56,0
19480,note_off,,25,0,6,,,,,,,2,,,,56,0
19500,note_off,,20,0,5,,,,,,,1,,,,65,0
19500,note_off,,20,0,6,,,,,,,2,,,,65,0
19505,note_off,,5,0,5,,,,,,,1,,,,61,0
19505,note_off,,0,0,6,,,,,,,2,,,,80,0
19505,note_off,,5,0,6,,,,,,,2,,,,61,0
19505,note_off,,0,0,5,,,,,,,1,,,,80,0
19515,note_off,,10,0,6,,,,,,,2,,,,85,0
19515,note_off,,10,0,5,,,,,,,1,,,,85,0
19520,note_off,,5,0,5,,,,,,,1,,,,73,0
19520,note_off,,5,0,6,,,,,,,2,,,,73,0
19690,note_on,,170,0,5,,,,,,,1,,,,37,90
19690,note_on,,170,0,6,,,,,,,2,,,,37,90
19695,note_on,,5,0,6,,,,,,,2,,,,49,104
19695,note_on,,5,0,5,,,,,,,1,,,,49,104
19735,note_on,,40,0,6,,,,,,,2,,,,83,110
19735,note_on,,40,0,5,,,,,,,1,,,,83,110
19740,note_on,,5,0,6,,,,,,,2,,,,71,78
19740,note_on,,5,0,5,,,,,,,1,,,,71,78
19750,note_on,,10,0,6,,,,,,,2,,,,77,92
19750,note_on,,10,0,5,,,,,,,1,,,,77,92
19785,note_off,,35,0,6,,,,,,,2,,,,49,0
19785,note_off,,35,0,5,,,,,,,1,,,,49,0
19800,note_off,,15,0,6,,,,,,,2,,,,37,0
19800,note_off,,15,0,5,,,,,,,1,,,,37,0
19950,note_off,,150,0,5,,,,,,,1,,,,71,0
19950,note_off,,150,0,6,,,,,,,2,,,,71,0
19955,note_off,,5,0,5,,,,,,,1,,,,77,0
19955,note_off,,5,0,6,,,,,,,2,,,,77,0
19965,note_off,,10,0,6,,,,,,,2,,,,83,0
19965,note_off,,10,0,5,,,,,,,1,,,,83,0
19975,note_on,,10,0,5,,,,,,,1,,,,65,88
19975,note_on,,10,0,6,,,,,,,2,,,,65,88
19980,note_on,,5,0,5,,,,,,,1,,,,56,84
19980,note_on,,5,0,6,,,,,,,2,,,,56,84
19985,note_on,,5,0,5,,,,,,,1,,,,61,72
19985,note_on,,5,0,6,,,,,,,2,,,,61,72
20035,note_off,,50,0,6,,,,,,,2,,,,56,0
20035,note_off,,50,0,5,,,,,,,1,,,,56,0
20060,note_off,,25,0,6,,,,,,,2,,,,61,0
20060,note_off,,25,0,5,,,,,,,1,,,,61,0
20065,note_off,,5,0,6,,,,,,,2,,,,65,0
20065,note_off,,5,0,5,,,,,,,1,,,,65,0
20105,note_on,,40,0,6,,,,,,,2,,,,73,77
20105,note_on,,40,0,5,,,,,,,1,,,,73,77
20110,note_on,,5,0,5,,,,,,,1,,,,85,46
20110,note_on,,5,0,6,,,,,,,2,,,,85,46
20155,note_off,,45,0,6,,,,,,,2,,,,73,0
20155,note_off,,45,0,5,,,,,,,1,,,,73,0
20170,note_off,,15,0,5,,,,,,,1,,,,85,0
20170,note_off,,15,0,6,,,,,,,2,,,,85,0
20195,note_on,,25,0,5,,,,,,,1,,,,72,88
20195,note_on,,25,0,6,,,,,,,2,,,,72,88
20200,note_on,,0,0,6,,,,,,,2,,,,77,91
20200,note_on,,5,0,6,,,,,,,2,,,,84,122
20200,note_on,,0,0,5,,,,,,,1,,,,77,91
20200,note_on,,5,0,5,,,,,,,1,,,,84,122
20210,note_on,,10,0,5,,,,,,,1,,,,80,68
20210,note_on,,10,0,6,,,,,,,2,,,,80,68
20235,note_off,,25,0,5,,,,,,,1,,,,80,0
20235,note_off,,25,0,6,,,,,,,2,,,,80,0
20250,note_on,,15,0,5,,,,,,,1,,,,56,90
20250,note_on,,15,0,6,,,,,,,2,,,,56,90
20255,note_on,,5,0,6,,,,,,,2,,,,44,79
20255,note_on,,5,0,5,,,,,,,1,,,,44,79
20265,note_off,,10,0,6,,,,,,,2,,,,72,0
20265,note_off,,10,0,5,,,,,,,1,,,,72,0
20275,note_off,,10,0,5,,,,,,,1,,,,77,0
20275,note_off,,10,0,6,,,,,,,2,,,,77,0
20285,note_off,,10,0,6,,,,,,,2,,,,84,0
20285,note_off,,10,0,5,,,,,,,1,,,,84,0
20315,note_off,,30,0,5,,,,,,,1,,,,56,0
20315,note_off,,30,0,6,,,,,,,2,,,,56,0
20335,note_off,,20,0,6,,,,,,,2,,,,44,0
20335,note_off,,20,0,5,,,,,,,1,,,,44,0
20435,note_on,,0,0,5,,,,,,,1,,,,85,74
20435,note_on,,100,0,5,,,,,,,1,,,,73,104
20435,note_on,,100,0,6,,,,,,,2,,,,73,104
20435,note_on,,0,0,6,,,,,,,2,,,,85,74
20440,note_on,,5,0,5,,,,,,,1,,,,80,72
20440,note_on,,5,0,6,,,,,,,2,,,,80,72
20480,note_on,,40,0,6,,,,,,,2,,,,56,88
20480,note_on,,40,0,5,,,,,,,1,,,,56,88
20485,note_on,,5,0,6,,,,,,,2,,,,65,72
20485,note_on,,5,0,5,,,,,,,1,,,,65,72
20485,note_on,,0,0,5,,,,,,,1,,,,61,80
20485,note_on,,0,0,6,,,,,,,2,,,,61,80
20490,note_off,,5,0,5,,,,,,,1,,,,80,0
20490,note_off,,5,0,6,,,,,,,2,,,,80,0
20505,note_off,,15,0,6,,,,,,,2,,,,85,0
20505,note_off,,15,0,5,,,,,,,1,,,,85,0
20505,note_off,,0,0,6,,,,,,,2,,,,73,0
20505,note_off,,0,0,5,,,,,,,1,,,,73,0
20550,note_off,,45,0,6,,,,,,,2,,,,56,0
20550,note_off,,45,0,5,,,,,,,1,,,,56,0
20570,note_off,,20,0,5,,,,,,,1,,,,65,0
20570,note_off,,20,0,6,,,,,,,2,,,,65,0
20580,note_off,,10,0,5,,,,,,,1,,,,61,0
20580,note_off,,10,0,6,,,,,,,2,,,,61,0
20675,note_on,,95,0,5,,,,,,,1,,,,83,88
20675,note_on,,95,0,6,,,,,,,2,,,,83,88
20680,note_on,,0,0,6,,,,,,,2,,,,77,104
20680,note_on,,5,0,6,,,,,,,2,,,,71,80
20680,note_on,,0,0,5,,,,,,,1,,,,77,104
20680,note_on,,5,0,5,,,,,,,1,,,,71,80
20725,note_on,,0,0,5,,,,,,,1,,,,37,88
20725,note_on,,0,0,6,,,,,,,2,,,,37,88
20725,note_on,,45,0,6,,,,,,,2,,,,49,110
20725,note_on,,45,0,5,,,,,,,1,,,,49,110
20800,note_off,,75,0,5,,,,,,,1,,,,49,0
20800,note_off,,75,0,6,,,,,,,2,,,,49,0
20805,note_off,,5,0,5,,,,,,,1,,,,37,0
20805,note_off,,5,0,6,,,,,,,2,,,,37,0
20845,note_off,,40,0,6,,,,,,,2,,,,71,0
20845,note_off,,40,0,5,,,,,,,1,,,,71,0
20870,note_off,,0,0,6,,,,,,,2,,,,77,0
20870,note_off,,25,0,6,,,,,,,2,,,,83,0
20870,note_off,,25,0,5,,,,,,,1,,,,83,0
20870,note_off,,0,0,5,,,,,,,1,,,,77,0
20940,note_on,,70,0,5,,,,,,,1,,,,56,79
20940,note_on,,70,0,6,,,,,,,2,,,,56,79
20945,note_on,,5,0,5,,,,,,,1,,,,65,64
20945,note_on,,5,0,6,,,,,,,2,,,,65,64
20955,note_on,,10,0,6,,,,,,,2,,,,61,68
20955,note_on,,10,0,5,,,,,,,1,,,,61,68
21005,note_off,,50,0,5,,,,,,,1,,,,56,0
21005,note_off,,50,0,6,,,,,,,2,,,,56,0
21015,note_on,,10,0,5,,,,,,,1,,,,73,68
21015,note_on,,0,0,5,,,,,,,1,,,,85,49
21015,note_on,,10,0,6,,,,,,,2,,,,73,68
21015,note_on,,0,0,6,,,,,,,2,,,,85,49
21035,note_off,,20,0,6,,,,,,,2,,,,65,0
21035,note_off,,20,0,5,,,,,,,1,,,,65,0
21040,note_off,,5,0,6,,,,,,,2,,,,61,0
21040,note_off,,5,0,5,,,,,,,1,,,,61,0
21075,note_off,,35,0,6,,,,,,,2,,,,73,0
21075,note_off,,35,0,5,,,,,,,1,,,,73,0
21080,note_off,,5,0,5,,,,,,,1,,,,85,0
21080,note_off,,5,0,6,,,,,,,2,,,,85,0
21110,note_on,,30,0,5,,,,,,,1,,,,72,88
21110,note_on,,30,0,6,,,,,,,2,,,,72,88
21110,note_on,,0,0,5,,,,,,,1,,,,84,88
21110,note_on,,0,0,6,,,,,,,2,,,,84,88
21115,note_on,,5,0,6,,,,,,,2,,,,81,80
21115,note_on,,5,0,5,,,,,,,1,,,,81,80
21130,note_on,,15,0,6,,,,,,,2,,,,74,59
21130,note_on,,15,0,5,,,,,,,1,,,,74,59
21160,note_on,,30,0,5,,,,,,,1,,,,54,90
21160,note_on,,30,0,6,,,,,,,2,,,,54,90
21165,note_on,,5,0,6,,,,,,,2,,,,42,104
21165,note_on,,5,0,5,,,,,,,1,,,,42,104
21170,note_off,,5,0,6,,,,,,,2,,,,74,0
21170,note_off,,5,0,5,,,,,,,1,,,,74,0
21175,note_off,,5,0,6,,,,,,,2,,,,72,0
21175,note_off,,5,0,5,,,,,,,1,,,,72,0
21190,note_off,,15,0,5,,,,,,,1,,,,84,0
21190,note_off,,15,0,6,,,,,,,2,,,,84,0
21195,note_off,,5,0,6,,,,,,,2,,,,81,0
21195,note_off,,5,0,5,,,,,,,1,,,,81,0
21235,note_off,,40,0,6,,,,,,,2,,,,54,0
21235,note_off,,40,0,5,,,,,,,1,,,,54,0
21260,note_off,,25,0,5,,,,,,,1,,,,42,0
21260,note_off,,25,0,6,,,,,,,2,,,,42,0
21350,note_on,,90,0,6,,,,,,,2,,,,85,50
21350,note_on,,90,0,5,,,,,,,1,,,,85,50
21355,note_on,,5,0,5,,,,,,,1,,,,73,84
21355,note_on,,5,0,6,,,,,,,2,,,,73,84
21365,note_on,,10,0,6,,,,,,,2,,,,82,57
21365,note_on,,10,0,5,,,,,,,1,,,,82,57
21390,note_on,,25,0,5,,,,,,,1,,,,66,88
21390,note_on,,0,0,5,,,,,,,1,,,,58,88
21390,note_on,,0,0,6,,,,,,,2,,,,58,88
21390,note_on,,25,0,6,,,,,,,2,,,,66,88
21395,note_on,,5,0,5,,,,,,,1,,,,61,80
21395,note_on,,5,0,6,,,,,,,2,,,,61,80
21405,note_off,,10,0,5,,,,,,,1,,,,82,0
21405,note_off,,10,0,6,,,,,,,2,,,,82,0
21410,note_off,,5,0,6,,,,,,,2,,,,85,0
21410,note_off,,5,0,5,,,,,,,1,,,,85,0
21415,note_off,,5,0,5,,,,,,,1,,,,73,0
21415,note_off,,5,0,6,,,,,,,2,,,,73,0
21460,note_off,,45,0,5,,,,,,,1,,,,58,0
21460,note_off,,45,0,6,,,,,,,2,,,,58,0
21465,note_off,,5,0,6,,,,,,,2,,,,61,0
21465,note_off,,5,0,5,,,,,,,1,,,,61,0
21480,note_off,,15,0,6,,,,,,,2,,,,66,0
21480,note_off,,15,0,5,,,,,,,1,,,,66,0
21605,note_on,,0,0,6,,,,,,,2,,,,78,104
21605,note_on,,0,0,5,,,,,,,1,,,,78,104
21605,note_on,,0,0,6,,,,,,,2,,,,70,104
21605,note_on,,125,0,5,,,,,,,1,,,,82,84
21605,note_on,,0,0,5,,,,,,,1,,,,70,104
21605,note_on,,125,0,6,,,,,,,2,,,,82,84
21635,note_on,,0,0,6,,,,,,,2,,,,49,88
21635,note_on,,30,0,5,,,,,,,1,,,,37,90
21635,note_on,,0,0,5,,,,,,,1,,,,49,88
21635,note_on,,30,0,6,,,,,,,2,,,,37,90
21705,note_off,,70,0,6,,,,,,,2,,,,49,0
21705,note_off,,70,0,5,,,,,,,1,,,,49,0
21710,note_off,,5,0,6,,,,,,,2,,,,37,0
21710,note_off,,5,0,5,,,,,,,1,,,,37,0
21790,note_off,,80,0,6,,,,,,,2,,,,70,0
21790,note_off,,80,0,5,,,,,,,1,,,,70,0
21805,note_off,,0,0,5,,,,,,,1,,,,82,0
21805,note_off,,0,0,6,,,,,,,2,,,,82,0
21805,note_off,,15,0,6,,,,,,,2,,,,78,0
21805,note_off,,15,0,5,,,,,,,1,,,,78,0
21850,note_on,,45,0,6,,,,,,,2,,,,66,80
21850,note_on,,45,0,5,,,,,,,1,,,,66,80
21855,note_on,,0,0,6,,,,,,,2,,,,61,84
21855,note_on,,0,0,5,,,,,,,1,,,,61,84
21855,note_on,,5,0,6,,,,,,,2,,,,58,70
21855,note_on,,5,0,5,,,,,,,1,,,,58,70
21920,note_off,,0,0,5,,,,,,,1,,,,58,0
21920,note_off,,65,0,5,,,,,,,1,,,,61,0
21920,note_off,,0,0,6,,,,,,,2,,,,58,0
21920,note_off,,65,0,6,,,,,,,2,,,,61,0
21945,note_off,,25,0,5,,,,,,,1,,,,66,0
21945,note_off,,25,0,6,,,,,,,2,,,,66,0
21965,note_on,,20,0,6,,,,,,,2,,,,73,79
21965,note_on,,0,0,6,,,,,,,2,,,,85,38
21965,note_on,,20,0,5,,,,,,,1,,,,73,79
21965,note_on,,0,0,5,,,,,,,1,,,,85,38
22015,note_off,,50,0,6,,,,,,,2,,,,85,0
22015,note_off,,50,0,5,,,,,,,1,,,,85,0
22020,note_off,,5,0,6,,,,,,,2,,,,73,0
22020,note_off,,5,0,5,,,,,,,1,,,,73,0
22060,note_on,,0,0,5,,,,,,,1,,,,81,84
22060,note_on,,40,0,5,,,,,,,1,,,,72,72
22060,note_on,,0,0,6,,,,,,,2,,,,84,84
22060,note_on,,0,0,6,,,,,,,2,,,,81,84
22060,note_on,,0,0,5,,,,,,,1,,,,84,84
22060,note_on,,40,0,6,,,,,,,2,,,,72,72
22070,note_on,,10,0,6,,,,,,,2,,,,74,80
22070,note_on,,10,0,5,,,,,,,1,,,,74,80
22075,note_on,,5,0,5,,,,,,,1,,,,54,80
22075,note_on,,5,0,6,,,,,,,2,,,,54,80
22080,note_on,,5,0,6,,,,,,,2,,,,42,110
22080,note_on,,5,0,5,,,,,,,1,,,,42,110
22105,note_off,,25,0,5,,,,,,,1,,,,74,0
22105,note_off,,25,0,6,,,,,,,2,,,,74,0
22120,note_off,,15,0,5,,,,,,,1,,,,72,0
22120,note_off,,15,0,6,,,,,,,2,,,,72,0
22125,note_off,,5,0,6,,,,,,,2,,,,84,0
22125,note_off,,5,0,5,,,,,,,1,,,,84,0
22130,note_off,,5,0,5,,,,,,,1,,,,81,0
22130,note_off,,5,0,6,,,,,,,2,,,,81,0
22150,note_off,,20,0,6,,,,,,,2,,,,54,0
22150,note_off,,20,0,5,,,,,,,1,,,,54,0
22160,note_off,,10,0,6,,,,,,,2,,,,42,0
22160,note_off,,10,0,5,,,,,,,1,,,,42,0
22285,note_on,,125,0,6,,,,,,,2,,,,85,60
22285,note_on,,125,0,5,,,,,,,1,,,,85,60
22295,note_on,,10,0,6,,,,,,,2,,,,73,90
22295,note_on,,0,0,6,,,,,,,2,,,,82,72
22295,note_on,,10,0,5,,,,,,,1,,,,73,90
22295,note_on,,0,0,5,,,,,,,1,,,,82,72
22320,note_on,,25,0,6,,,,,,,2,,,,61,72
22320,note_on,,0,0,6,,,,,,,2,,,,58,72
22320,note_on,,0,0,5,,,,,,,1,,,,66,72
22320,note_on,,25,0,5,,,,,,,1,,,,61,72
22320,note_on,,0,0,5,,,,,,,1,,,,58,72
22320,note_on,,0,0,6,,,,,,,2,,,,66,72
22325,note_off,,5,0,6,,,,,,,2,,,,82,0
22325,note_off,,5,0,5,,,,,,,1,,,,82,0
22350,note_off,,25,0,6,,,,,,,2,,,,85,0
22350,note_off,,25,0,5,,,,,,,1,,,,85,0
22355,note_off,,5,0,6,,,,,,,2,,,,73,0
22355,note_off,,5,0,5,,,,,,,1,,,,73,0
22380,note_off,,25,0,6,,,,,,,2,,,,58,0
22380,note_off,,25,0,5,,,,,,,1,,,,58,0
22385,note_off,,5,0,5,,,,,,,1,,,,61,0
22385,note_off,,5,0,6,,,,,,,2,,,,61,0
22395,note_off,,10,0,6,,,,,,,2,,,,66,0
22395,note_off,,10,0,5,,,,,,,1,,,,66,0
22535,note_on,,140,0,6,,,,,,,2,,,,70,88
22535,note_on,,0,0,5,,,,,,,1,,,,82,110
22535,note_on,,0,0,6,,,,,,,2,,,,82,110
22535,note_on,,140,0,5,,,,,,,1,,,,70,88
22540,note_on,,5,0,6,,,,,,,2,,,,78,80
22540,note_on,,5,0,5,,,,,,,1,,,,78,80
22555,note_on,,15,0,6,,,,,,,2,,,,37,88
22555,note_on,,15,0,5,,,,,,,1,,,,37,88
22555,note_on,,0,0,6,,,,,,,2,,,,49,88
22555,note_on,,0,0,5,,,,,,,1,,,,49,88
22625,note_off,,70,0,6,,,,,,,2,,,,49,0
22625,note_off,,70,0,5,,,,,,,1,,,,49,0
22630,note_off,,5,0,6,,,,,,,2,,,,37,0
22630,note_off,,5,0,5,,,,,,,1,,,,37,0
22685,note_off,,55,0,6,,,,,,,2,,,,70,0
22685,note_off,,55,0,5,,,,,,,1,,,,70,0
22700,note_off,,15,0,5,,,,,,,1,,,,82,0
22700,note_off,,15,0,6,,,,,,,2,,,,82,0
22710,note_off,,10,0,5,,,,,,,1,,,,78,0
22710,note_off,,10,0,6,,,,,,,2,,,,78,0
22780,note_on,,0,0,6,,,,,,,2,,,,58,84
22780,note_on,,70,0,6,,,,,,,2,,,,66,77
22780,note_on,,70,0,5,,,,,,,1,,,,66,77
22780,note_on,,0,0,5,,,,,,,1,,,,58,84
22790,note_on,,10,0,5,,,,,,,1,,,,61,64
22790,note_on,,10,0,6,,,,,,,2,,,,61,64
22840,note_off,,50,0,5,,,,,,,1,,,,61,0
22840,note_off,,50,0,6,,,,,,,2,,,,61,0
22850,note_off,,10,0,5,,,,,,,1,,,,58,0
22850,note_off,,10,0,6,,,,,,,2,,,,58,0
22860,note_off,,10,0,5,,,,,,,1,,,,66,0
22860,note_off,,10,0,6,,,,,,,2,,,,66,0
22910,note_on,,50,0,5,,,,,,,1,,,,73,79
22910,note_on,,50,0,6,,,,,,,2,,,,73,79
22910,note_on,,0,0,6,,,,,,,2,,,,85,47
22910,note_on,,0,0,5,,,,,,,1,,,,85,47
22960,note_off,,50,0,6,,,,,,,2,,,,73,0
22960,note_off,,50,0,5,,,,,,,1,,,,73,0
22975,note_off,,15,0,6,,,,,,,2,,,,85,0
22975,note_off,,15,0,5,,,,,,,1,,,,85,0
23000,note_on,,25,0,5,,,,,,,1,,,,56,72
23000,note_on,,25,0,6,,,,,,,2,,,,56,72
23005,note_on,,5,0,5,,,,,,,1,,,,44,92
23005,note_on,,5,0,6,,,,,,,2,,,,44,92
23015,note_on,,0,0,5,,,,,,,1,,,,84,90
23015,note_on,,10,0,6,,,,,,,2,,,,72,68
23015,note_on,,0,0,6,,,,,,,2,,,,84,90
23015,note_on,,10,0,5,,,,,,,1,,,,72,68
23060,note_off,,45,0,5,,,,,,,1,,,,56,0
23060,note_off,,45,0,6,,,,,,,2,,,,56,0
23070,note_off,,10,0,6,,,,,,,2,,,,72,0
23070,note_off,,10,0,5,,,,,,,1,,,,72,0
23080,note_off,,10,0,6,,,,,,,2,,,,84,0
23080,note_off,,10,0,5,,,,,,,1,,,,84,0
23090,note_off,,10,0,6,,,,,,,2,,,,44,0
23090,note_off,,10,0,5,,,,,,,1,,,,44,0
23240,note_on,,150,0,5,,,,,,,1,,,,61,69
23240,note_on,,150,0,6,,,,,,,2,,,,61,69
23245,note_on,,5,0,6,,,,,,,2,,,,65,61
23245,note_on,,5,0,5,,,,,,,1,,,,65,61
23250,note_on,,5,0,6,,,,,,,2,,,,73,76
23250,note_on,,0,0,6,,,,,,,2,,,,85,58
23250,note_on,,0,0,5,,,,,,,1,,,,85,58
23250,note_on,,5,0,5,,,,,,,1,,,,73,76
23255,note_on,,5,0,5,,,,,,,1,,,,80,72
23255,note_on,,5,0,6,,,,,,,2,,,,80,72
23305,note_off,,50,0,5,,,,,,,1,,,,73,0
23305,note_off,,50,0,6,,,,,,,2,,,,73,0
23310,note_off,,5,0,6,,,,,,,2,,,,61,0
23310,note_off,,5,0,5,,,,,,,1,,,,61,0
23315,note_off,,5,0,5,,,,,,,1,,,,85,0
23315,note_off,,5,0,6,,,,,,,2,,,,85,0
23325,note_off,,0,0,6,,,,,,,2,,,,80,0
23325,note_off,,10,0,5,,,,,,,1,,,,65,0
23325,note_off,,0,0,5,,,,,,,1,,,,80,0
23325,note_off,,10,0,6,,,,,,,2,,,,65,0
23475,note_on,,150,0,6,,,,,,,2,,,,37,90
23475,note_on,,150,0,5,,,,,,,1,,,,37,90
23480,note_on,,5,0,5,,,,,,,1,,,,49,88
23480,note_on,,5,0,6,,,,,,,2,,,,49,88
23495,note_on,,15,0,5,,,,,,,1,,,,87,78
23495,note_on,,0,0,6,,,,,,,2,,,,75,88
23495,note_on,,15,0,6,,,,,,,2,,,,87,78
23495,note_on,,0,0,5,,,,,,,1,,,,75,88
23505,note_on,,10,0,6,,,,,,,2,,,,83,80
23505,note_on,,10,0,5,,,,,,,1,,,,83,80
23555,note_off,,50,0,6,,,,,,,2,,,,49,0
23555,note_off,,0,0,6,,,,,,,2,,,,37,0
23555,note_off,,0,0,5,,,,,,,1,,,,37,0
23555,note_off,,50,0,5,,,,,,,1,,,,49,0
23675,note_off,,120,0,6,,,,,,,2,,,,87,0
23675,note_off,,120,0,5,,,,,,,1,,,,87,0
23685,note_off,,10,0,6,,,,,,,2,,,,83,0
23685,note_off,,10,0,5,,,,,,,1,,,,83,0
23700,note_off,,15,0,5,,,,,,,1,,,,75,0
23700,note_off,,15,0,6,,,,,,,2,,,,75,0
23720,note_on,,20,0,5,,,,,,,1,,,,61,88
23720,note_on,,20,0,6,,,,,,,2,,,,61,88
23725,note_on,,0,0,6,,,,,,,2,,,,59,72
23725,note_on,,5,0,5,,,,,,,1,,,,65,72
23725,note_on,,5,0,6,,,,,,,2,,,,65,72
23725,note_on,,0,0,5,,,,,,,1,,,,59,72
23785,note_off,,60,0,5,,,,,,,1,,,,59,0
23785,note_off,,60,0,6,,,,,,,2,,,,59,0
23790,note_off,,5,0,5,,,,,,,1,,,,61,0
23790,note_off,,5,0,6,,,,,,,2,,,,61,0
23800,note_off,,10,0,5,,,,,,,1,,,,65,0
23800,note_off,,10,0,6,,,,,,,2,,,,65,0
23860,note_on,,60,0,5,,,,,,,1,,,,73,63
23860,note_on,,60,0,6,,,,,,,2,,,,73,63
23865,note_on,,5,0,5,,,,,,,1,,,,85,38
23865,note_on,,5,0,6,,,,,,,2,,,,85,38
23905,note_off,,40,0,6,,,,,,,2,,,,73,0
23905,note_off,,40,0,5,,,,,,,1,,,,73,0
23910,note_off,,5,0,5,,,,,,,1,,,,85,0
23910,note_off,,5,0,6,,,,,,,2,,,,85,0
23945,note_on,,35,0,5,,,,,,,1,,,,56,78
23945,note_on,,35,0,6,,,,,,,2,,,,56,78
23950,note_on,,5,0,6,,,,,,,2,,,,44,88
23950,note_on,,5,0,5,,,,,,,1,,,,44,88
23960,note_on,,10,0,5,,,,,,,1,,,,72,79
23960,note_on,,0,0,6,,,,,,,2,,,,84,91
23960,note_on,,10,0,6,,,,,,,2,,,,72,79
23960,note_on,,0,0,5,,,,,,,1,,,,84,91
24015,note_off,,55,0,6,,,,,,,2,,,,72,0
24015,note_off,,0,0,5,,,,,,,1,,,,56,0
24015,note_off,,0,0,6,,,,,,,2,,,,56,0
24015,note_off,,55,0,5,,,,,,,1,,,,72,0
24025,note_off,,10,0,5,,,,,,,1,,,,84,0
24025,note_off,,10,0,6,,,,,,,2,,,,84,0
24035,note_off,,10,0,5,,,,,,,1,,,,44,0
24035,note_off,,10,0,6,,,,,,,2,,,,44,0
24190,note_on,,0,0,5,,,,,,,1,,,,61,88
24190,note_on,,0,0,6,,,,,,,2,,,,61,88
24190,note_on,,0,0,6,,,,,,,2,,,,59,72
24190,note_on,,155,0,6,,,,,,,2,,,,65,76
24190,note_on,,155,0,5,,,,,,,1,,,,65,76
24190,note_on,,0,0,5,,,,,,,1,,,,59,72
24210,note_on,,20,0,5,,,,,,,1,,,,73,104
24210,note_on,,20,0,6,,,,,,,2,,,,73,104
24215,note_on,,5,0,5,,,,,,,1,,,,85,65
24215,note_on,,5,0,6,,,,,,,2,,,,85,65
24220,note_on,,5,0,6,,,,,,,2,,,,80,80
24220,note_on,,5,0,5,,,,,,,1,,,,80,80
24260,note_off,,40,0,5,,,,,,,1,,,,59,0
24260,note_off,,40,0,6,,,,,,,2,,,,59,0
24265,note_off,,5,0,5,,,,,,,1,,,,61,0
24265,note_off,,5,0,6,,,,,,,2,,,,61,0
24270,note_off,,5,0,6,,,,,,,2,,,,73,0
24270,note_off,,5,0,5,,,,,,,1,,,,73,0
24275,note_off,,5,0,6,,,,,,,2,,,,65,0
24275,note_off,,5,0,5,,,,,,,1,,,,65,0
24285,note_off,,10,0,6,,,,,,,2,,,,80,0
24285,note_off,,10,0,5,,,,,,,1,,,,80,0
24290,note_off,,5,0,5,,,,,,,1,,,,85,0
24290,note_off,,5,0,6,,,,,,,2,,,,85,0
24420,note_on,,130,0,6,,,,,,,2,,,,37,90
24420,note_on,,130,0,5,,,,,,,1,,,,37,90
24425,note_on,,5,0,6,,,,,,,2,,,,49,104
24425,note_on,,5,0,5,,,,,,,1,,,,49,104
24460,note_on,,35,0,5,,,,,,,1,,,,87,88
24460,note_on,,0,0,6,,,,,,,2,,,,75,95
24460,note_on,,0,0,5,,,,,,,1,,,,75,95
24460,note_on,,35,0,6,,,,,,,2,,,,87,88
24465,note_on,,5,0,6,,,,,,,2,,,,83,80
24465,note_on,,5,0,5,,,,,,,1,,,,83,80
24495,note_off,,0,0,5,,,,,,,1,,,,37,0
24495,note_off,,30,0,5,,,,,,,1,,,,49,0
24495,note_off,,30,0,6,,,,,,,2,,,,49,0
24495,note_off,,0,0,6,,,,,,,2,,,,37,0
24660,note_on,,0,0,6,,,,,,,2,,,,65,80
24660,note_on,,165,0,6,,,,,,,2,,,,61,88
24660,note_on,,165,0,5,,,,,,,1,,,,61,88
24660,note_on,,0,0,5,,,,,,,1,,,,59,72
24660,note_on,,0,0,5,,,,,,,1,,,,65,80
24660,note_on,,0,0,6,,,,,,,2,,,,59,72
24665,note_off,,0,0,6,,,,,,,2,,,,83,0
24665,note_off,,0,0,5,,,,,,,1,,,,83,0
24665,note_off,,5,0,6,,,,,,,2,,,,87,0
24665,note_off,,5,0,5,,,,,,,1,,,,87,0
24675,note_off,,10,0,6,,,,,,,2,,,,75,0
24675,note_off,,10,0,5,,,,,,,1,,,,75,0
24725,note_off,,50,0,5,,,,,,,1,,,,59,0
24725,note_off,,50,0,6,,,,,,,2,,,,59,0
24730,note_off,,5,0,6,,,,,,,2,,,,61,0
24730,note_off,,5,0,5,,,,,,,1,,,,61,0
24740,note_off,,10,0,5,,,,,,,1,,,,65,0
24740,note_off,,10,0,6,,,,,,,2,,,,65,0
24830,note_on,,90,0,6,,,,,,,2,,,,73,68
24830,note_on,,0,0,6,,,,,,,2,,,,85,46
24830,note_on,,90,0,5,,,,,,,1,,,,73,68
24830,note_on,,0,0,5,,,,,,,1,,,,85,46
24860,note_on,,30,0,6,,,,,,,2,,,,80,47
24860,note_on,,30,0,5,,,,,,,1,,,,80,47
24890,note_off,,30,0,6,,,,,,,2,,,,73,0
24890,note_off,,30,0,5,,,,,,,1,,,,73,0
24895,note_on,,5,0,6,,,,,,,2,,,,54,110
24895,note_on,,5,0,5,,,,,,,1,,,,54,110
24900,note_on,,0,0,6,,,,,,,2,,,,42,104
24900,note_on,,0,0,5,,,,,,,1,,,,42,104
24900,note_off,,5,0,6,,,,,,,2,,,,80,0
24900,note_off,,5,0,5,,,,,,,1,,,,80,0
24905,note_off,,5,0,6,,,,,,,2,,,,85,0
24905,note_off,,5,0,5,,,,,,,1,,,,85,0
24935,note_on,,30,0,6,,,,,,,2,,,,80,63
24935,note_on,,30,0,5,,,,,,,1,,,,80,63
24940,note_on,,5,0,5,,,,,,,1,,,,84,104
24940,note_on,,5,0,6,,,,,,,2,,,,84,104
24945,note_on,,5,0,5,,,,,,,1,,,,72,88
24945,note_on,,5,0,6,,,,,,,2,,,,72,88
24950,note_on,,5,0,6,,,,,,,2,,,,81,88
24950,note_on,,5,0,5,,,,,,,1,,,,81,88
24970,note_off,,20,0,6,,,,,,,2,,,,54,0
24970,note_off,,20,0,5,,,,,,,1,,,,54,0
24985,note_off,,15,0,5,,,,,,,1,,,,42,0
24985,note_off,,15,0,6,,,,,,,2,,,,42,0
25005,note_off,,20,0,6,,,,,,,2,,,,72,0
25005,note_off,,20,0,5,,,,,,,1,,,,72,0
25010,note_off,,5,0,6,,,,,,,2,,,,80,0
25010,note_off,,5,0,5,,,,,,,1,,,,80,0
25015,note_off,,5,0,6,,,,,,,2,,,,81,0
25015,note_off,,5,0,5,,,,,,,1,,,,81,0
25030,note_off,,15,0,5,,,,,,,1,,,,84,0
25030,note_off,,15,0,6,,,,,,,2,,,,84,0
25155,note_on,,0,0,5,,,,,,,1,,,,66,80
25155,note_on,,125,0,6,,,,,,,2,,,,58,104
25155,note_on,,0,0,6,,,,,,,2,,,,61,104
25155,note_on,,0,0,6,,,,,,,2,,,,66,80
25155,note_on,,0,0,5,,,,,,,1,,,,61,104
25155,note_on,,125,0,5,,,,,,,1,,,,58,104
25190,note_on,,35,0,6,,,,,,,2,,,,73,88
25190,note_on,,35,0,5,,,,,,,1,,,,73,88
25190,note_on,,0,0,6,,,,,,,2,,,,85,50
25190,note_on,,0,0,5,,,,,,,1,,,,85,50
25200,note_on,,10,0,6,,,,,,,2,,,,82,69
25200,note_on,,10,0,5,,,,,,,1,,,,82,69
25220,note_off,,20,0,5,,,,,,,1,,,,58,0
25220,note_off,,20,0,6,,,,,,,2,,,,58,0
25225,note_off,,5,0,5,,,,,,,1,,,,61,0
25225,note_off,,5,0,6,,,,,,,2,,,,61,0
25240,note_off,,0,0,6,,,,,,,2,,,,73,0
25240,note_off,,15,0,6,,,,,,,2,,,,66,0
25240,note_off,,0,0,5,,,,,,,1,,,,73,0
25240,note_off,,15,0,5,,,,,,,1,,,,66,0
25260,note_off,,20,0,6,,,,,,,2,,,,82,0
25260,note_off,,20,0,5,,,,,,,1,,,,82,0
25265,note_off,,5,0,5,,,,,,,1,,,,85,0
25265,note_off,,5,0,6,,,,,,,2,,,,85,0
25405,note_on,,140,0,6,,,,,,,2,,,,37,90
25405,note_on,,140,0,5,,,,,,,1,,,,37,90
25410,note_on,,5,0,5,,,,,,,1,,,,49,110
25410,note_on,,5,0,6,,,,,,,2,,,,49,110
25430,note_on,,0,0,5,,,,,,,1,,,,90,88
25430,note_on,,20,0,5,,,,,,,1,,,,78,88
25430,note_on,,0,0,6,,,,,,,2,,,,90,88
25430,note_on,,20,0,6,,,,,,,2,,,,78,88
25435,note_on,,5,0,6,,,,,,,2,,,,82,80
25435,note_on,,5,0,5,,,,,,,1,,,,82,80
25475,note_off,,40,0,5,,,,,,,1,,,,49,0
25475,note_off,,40,0,6,,,,,,,2,,,,49,0
25490,note_off,,15,0,5,,,,,,,1,,,,37,0
25490,note_off,,15,0,6,,,,,,,2,,,,37,0
25555,note_off,,65,0,5,,,,,,,1,,,,78,0
25555,note_off,,0,0,6,,,,,,,2,,,,90,0
25555,note_off,,65,0,6,,,,,,,2,,,,78,0
25555,note_off,,0,0,5,,,,,,,1,,,,90,0
25580,note_off,,25,0,6,,,,,,,2,,,,82,0
25580,note_off,,25,0,5,,,,,,,1,,,,82,0
25655,note_on,,0,0,5,,,,,,,1,,,,61,80
25655,note_on,,0,0,5,,,,,,,1,,,,58,84
25655,note_on,,0,0,6,,,,,,,2,,,,61,80
25655,note_on,,75,0,6,,,,,,,2,,,,66,84
25655,note_on,,0,0,6,,,,,,,2,,,,58,84
25655,note_on,,75,0,5,,,,,,,1,,,,66,84
25720,note_off,,65,0,6,,,,,,,2,,,,61,0
25720,note_off,,65,0,5,,,,,,,1,,,,61,0
25720,note_off,,0,0,5,,,,,,,1,,,,58,0
25720,note_off,,0,0,6,,,,,,,2,,,,58,0
25725,note_off,,5,0,6,,,,,,,2,,,,66,0
25725,note_off,,5,0,5,,,,,,,1,,,,66,0
25800,note_on,,75,0,5,,,,,,,1,,,,73,79
25800,note_on,,75,0,6,,,,,,,2,,,,73,79
25810,note_on,,10,0,5,,,,,,,1,,,,85,38
25810,note_on,,10,0,6,,,,,,,2,,,,85,38
25860,note_off,,0,0,6,,,,,,,2,,,,73,0
25860,note_off,,0,0,5,,,,,,,1,,,,73,0
25860,note_off,,50,0,6,,,,,,,2,,,,85,0
25860,note_off,,50,0,5,,,,,,,1,,,,85,0
25885,note_on,,25,0,6,,,,,,,2,,,,54,90
25885,note_on,,25,0,5,,,,,,,1,,,,54,90
25885,note_on,,0,0,5,,,,,,,1,,,,42,104
25885,note_on,,0,0,6,,,,,,,2,,,,42,104
25905,note_on,,0,0,5,,,,,,,1,,,,84,88
25905,note_on,,20,0,5,,,,,,,1,,,,72,88
25905,note_on,,0,0,6,,,,,,,2,,,,84,88
25905,note_on,,20,0,6,,,,,,,2,,,,72,88
25910,note_on,,5,0,5,,,,,,,1,,,,81,72
25910,note_on,,5,0,6,,,,,,,2,,,,81,72
25955,note_off,,45,0,5,,,,,,,1,,,,54,0
25955,note_off,,45,0,6,,,,,,,2,,,,54,0
25970,note_off,,15,0,6,,,,,,,2,,,,72,0
25970,note_off,,15,0,5,,,,,,,1,,,,72,0
25975,note_off,,5,0,6,,,,,,,2,,,,42,0
25975,note_off,,5,0,5,,,,,,,1,,,,42,0
25980,note_off,,0,0,6,,,,,,,2,,,,81,0
25980,note_off,,5,0,5,,,,,,,1,,,,84,0
25980,note_off,,0,0,5,,,,,,,1,,,,81,0
25980,note_off,,5,0,6,,,,,,,2,,,,84,0
26130,note_on,,0,0,6,,,,,,,2,,,,66,80
26130,note_on,,0,0,6,,,,,,,2,,,,61,80
26130,note_on,,0,0,5,,,,,,,1,,,,61,80
26130,note_on,,150,0,6,,,,,,,2,,,,58,88
26130,note_on,,150,0,5,,,,,,,1,,,,58,88
26130,note_on,,0,0,5,,,,,,,1,,,,66,80
26145,note_on,,0,0,6,,,,,,,2,,,,85,58
26145,note_on,,15,0,5,,,,,,,1,,,,73,80
26145,note_on,,0,0,5,,,,,,,1,,,,85,58
26145,note_on,,15,0,6,,,,,,,2,,,,73,80
26150,note_on,,5,0,6,,,,,,,2,,,,82,72
26150,note_on,,5,0,5,,,,,,,1,,,,82,72
26185,note_off,,35,0,5,,,,,,,1,,,,73,0
26185,note_off,,0,0,6,,,,,,,2,,,,61,0
26185,note_off,,0,0,5,,,,,,,1,,,,61,0
26185,note_off,,35,0,6,,,,,,,2,,,,73,0
26190,note_off,,5,0,6,,,,,,,2,,,,58,0
26190,note_off,,5,0,5,,,,,,,1,,,,58,0
26195,note_off,,5,0,6,,,,,,,2,,,,66,0
26195,note_off,,5,0,5,,,,,,,1,,,,66,0
26205,note_off,,10,0,6,,,,,,,2,,,,85,0
26205,note_off,,0,0,6,,,,,,,2,,,,82,0
26205,note_off,,0,0,5,,,,,,,1,,,,82,0
26205,note_off,,10,0,5,,,,,,,1,,,,85,0
26370,note_on,,0,0,5,,,,,,,1,,,,49,104
26370,note_on,,0,0,6,,,,,,,2,,,,49,104
26370,note_on,,165,0,5,,,,,,,1,,,,37,88
26370,note_on,,165,0,6,,,,,,,2,,,,37,88
26380,note_on,,10,0,5,,,,,,,1,,,,78,88
26380,note_on,,10,0,6,,,,,,,2,,,,78,88
26380,note_on,,0,0,6,,,,,,,2,,,,90,110
26380,note_on,,0,0,5,,,,,,,1,,,,90,110
26390,note_on,,10,0,5,,,,,,,1,,,,82,80
26390,note_on,,10,0,6,,,,,,,2,,,,82,80
26440,note_off,,50,0,5,,,,,,,1,,,,37,0
26440,note_off,,50,0,6,,,,,,,2,,,,37,0
26445,note_off,,5,0,6,,,,,,,2,,,,78,0
26445,note_off,,5,0,5,,,,,,,1,,,,78,0
26450,note_off,,0,0,6,,,,,,,2,,,,90,0
26450,note_off,,5,0,6,,,,,,,2,,,,49,0
26450,note_off,,5,0,5,,,,,,,1,,,,49,0
26450,note_off,,0,0,5,,,,,,,1,,,,90,0
26455,note_off,,5,0,5,,,,,,,1,,,,82,0
26455,note_off,,5,0,6,,,,,,,2,,,,82,0
26615,note_on,,160,0,6,,,,,,,2,,,,66,64
26615,note_on,,0,0,6,,,,,,,2,,,,58,72
26615,note_on,,0,0,5,,,,,,,1,,,,58,72
26615,note_on,,0,0,5,,,,,,,1,,,,61,77
26615,note_on,,160,0,5,,,,,,,1,,,,66,64
26615,note_on,,0,0,6,,,,,,,2,,,,61,77
26660,note_off,,45,0,6,,,,,,,2,,,,58,0
26660,note_off,,45,0,5,,,,,,,1,,,,58,0
26665,note_off,,5,0,5,,,,,,,1,,,,61,0
26665,note_off,,5,0,6,,,,,,,2,,,,61,0
26670,note_off,,5,0,5,,,,,,,1,,,,66,0
26670,note_off,,5,0,6,,,,,,,2,,,,66,0
26735,note_on,,65,0,5,,,,,,,1,,,,73,69
26735,note_on,,65,0,6,,,,,,,2,,,,73,69
26745,note_on,,10,0,5,,,,,,,1,,,,85,32
26745,note_on,,10,0,6,,,,,,,2,,,,85,32
26785,note_off,,40,0,6,,,,,,,2,,,,73,0
26785,note_off,,40,0,5,,,,,,,1,,,,73,0
26800,note_off,,15,0,5,,,,,,,1,,,,85,0
26800,note_off,,15,0,6,,,,,,,2,,,,85,0
26840,note_on,,40,0,6,,,,,,,2,,,,56,72
26840,note_on,,40,0,5,,,,,,,1,,,,56,72
26845,note_on,,5,0,5,,,,,,,1,,,,72,69
26845,note_on,,5,0,6,,,,,,,2,,,,72,69
26850,note_on,,5,0,5,,,,,,,1,,,,84,88
26850,note_on,,5,0,6,,,,,,,2,,,,84,88
26875,note_on,,25,0,5,,,,,,,1,,,,77,40
26875,note_on,,25,0,6,,,,,,,2,,,,77,40
26910,note_off,,0,0,5,,,,,,,1,,,,72,0
26910,note_off,,35,0,6,,,,,,,2,,,,77,0
26910,note_off,,0,0,6,,,,,,,2,,,,72,0
26910,note_off,,35,0,5,,,,,,,1,,,,77,0
26915,note_off,,5,0,6,,,,,,,2,,,,84,0
26915,note_off,,5,0,5,,,,,,,1,,,,84,0
26920,note_off,,5,0,5,,,,,,,1,,,,56,0
26920,note_off,,5,0,6,,,,,,,2,,,,56,0
27080,note_on,,160,0,6,,,,,,,2,,,,61,57
27080,note_on,,160,0,5,,,,,,,1,,,,61,57
27090,note_on,,10,0,5,,,,,,,1,,,,65,52
27090,note_on,,10,0,6,,,,,,,2,,,,65,52
27110,note_on,,20,0,5,,,,,,,1,,,,73,78
27110,note_on,,20,0,6,,,,,,,2,,,,73,78
27115,note_on,,5,0,5,,,,,,,1,,,,85,31
27115,note_on,,5,0,6,,,,,,,2,,,,85,31
27155,note_off,,40,0,5,,,,,,,1,,,,61,0
27155,note_off,,40,0,6,,,,,,,2,,,,61,0
27165,note_off,,10,0,5,,,,,,,1,,,,85,0
27165,note_off,,10,0,6,,,,,,,2,,,,85,0
27170,note_off,,5,0,5,,,,,,,1,,,,65,0
27170,note_off,,5,0,6,,,,,,,2,,,,65,0
27175,note_off,,5,0,6,,,,,,,2,,,,73,0
27175,note_off,,5,0,5,,,,,,,1,,,,73,0
27330,note_on,,155,0,5,,,,,,,1,,,,49,64
27330,note_on,,155,0,6,,,,,,,2,,,,49,64
27365,note_on,,35,0,5,,,,,,,1,,,,83,77
27365,note_on,,35,0,6,,,,,,,2,,,,83,77
27370,note_on,,5,0,5,,,,,,,1,,,,71,64
27370,note_on,,5,0,6,,,,,,,2,,,,71,64
27370,note_on,,0,0,6,,,,,,,2,,,,77,64
27370,note_on,,0,0,5,,,,,,,1,,,,77,64
27410,note_off,,40,0,6,,,,,,,2,,,,49,0
27410,note_off,,40,0,5,,,,,,,1,,,,49,0
27560,note_off,,150,0,6,,,,,,,2,,,,71,0
27560,note_off,,150,0,5,,,,,,,1,,,,71,0
27565,note_off,,5,0,6,,,,,,,2,,,,83,0
27565,note_off,,5,0,5,,,,,,,1,,,,83,0
27575,note_off,,10,0,5,,,,,,,1,,,,77,0
27575,note_off,,10,0,6,,,,,,,2,,,,77,0
27585,note_on,,0,0,6,,,,,,,2,,,,61,61
27585,note_on,,10,0,6,,,,,,,2,,,,65,54
27585,note_on,,0,0,5,,,,,,,1,,,,61,61
27585,note_on,,10,0,5,,,,,,,1,,,,65,54
27590,note_on,,5,0,6,,,,,,,2,,,,56,48
27590,note_on,,5,0,5,,,,,,,1,,,,56,48
27640,note_off,,0,0,5,,,,,,,1,,,,61,0
27640,note_off,,0,0,6,,,,,,,2,,,,61,0
27640,note_off,,50,0,5,,,,,,,1,,,,56,0
27640,note_off,,50,0,6,,,,,,,2,,,,56,0
27645,note_off,,5,0,6,,,,,,,2,,,,65,0
27645,note_off,,5,0,5,,,,,,,1,,,,65,0
27685,note_on,,40,0,5,,,,,,,1,,,,73,64
27685,note_on,,40,0,6,,,,,,,2,,,,73,64
27710,note_on,,25,0,5,,,,,,,1,,,,85,21
27710,note_on,,25,0,6,,,,,,,2,,,,85,21
27740,note_off,,30,0,6,,,,,,,2,,,,73,0
27740,note_off,,30,0,5,,,,,,,1,,,,73,0
27750,note_off,,10,0,6,,,,,,,2,,,,85,0
27750,note_off,,10,0,5,,,,,,,1,,,,85,0
27795,note_on,,45,0,5,,,,,,,1,,,,77,88
27795,note_on,,0,0,5,,,,,,,1,,,,72,88
27795,note_on,,45,0,6,,,,,,,2,,,,77,88
27795,note_on,,0,0,6,,,,,,,2,,,,72,88
27800,note_on,,5,0,6,,,,,,,2,,,,84,72
27800,note_on,,5,0,5,,,,,,,1,,,,84,72
27810,note_on,,10,0,6,,,,,,,2,,,,44,64
27810,note_on,,10,0,5,,,,,,,1,,,,44,64
27820,note_on,,10,0,6,,,,,,,2,,,,80,50
27820,note_on,,10,0,5,,,,,,,1,,,,80,50
27855,note_off,,35,0,6,,,,,,,2,,,,80,0
27855,note_off,,35,0,5,,,,,,,1,,,,80,0
27860,note_off,,5,0,5,,,,,,,1,,,,72,0
27860,note_off,,5,0,6,,,,,,,2,,,,72,0
27870,note_off,,10,0,6,,,,,,,2,,,,84,0
27870,note_off,,10,0,5,,,,,,,1,,,,84,0
27875,note_off,,5,0,5,,,,,,,1,,,,77,0
27875,note_off,,5,0,6,,,,,,,2,,,,77,0
27890,note_off,,15,0,6,,,,,,,2,,,,44,0
27890,note_off,,15,0,5,,,,,,,1,,,,44,0
28045,note_on,,155,0,6,,,,,,,2,,,,65,61
28045,note_on,,155,0,5,,,,,,,1,,,,65,61
28055,note_on,,0,0,6,,,,,,,2,,,,61,55
28055,note_on,,10,0,6,,,,,,,2,,,,56,55
28055,note_on,,0,0,5,,,,,,,1,,,,61,55
28055,note_on,,10,0,5,,,,,,,1,,,,56,55
28060,note_on,,0,0,5,,,,,,,1,,,,85,34
28060,note_on,,5,0,6,,,,,,,2,,,,73,68
28060,note_on,,0,0,6,,,,,,,2,,,,85,34
28060,note_on,,5,0,5,,,,,,,1,,,,73,68
28105,note_off,,0,0,5,,,,,,,1,,,,56,0
28105,note_off,,45,0,6,,,,,,,2,,,,61,0
28105,note_off,,0,0,6,,,,,,,2,,,,56,0
28105,note_off,,45,0,5,,,,,,,1,,,,61,0
28110,note_off,,5,0,5,,,,,,,1,,,,85,0
28110,note_off,,5,0,6,,,,,,,2,,,,85,0
28115,note_off,,5,0,5,,,,,,,1,,,,73,0
28115,note_off,,5,0,6,,,,,,,2,,,,73,0
28125,note_off,,10,0,6,,,,,,,2,,,,65,0
28125,note_off,,10,0,5,,,,,,,1,,,,65,0
28280,note_on,,155,0,5,,,,,,,1,,,,37,80
28280,note_on,,155,0,6,,,,,,,2,,,,37,80
28300,note_on,,20,0,6,,,,,,,2,,,,83,104
28300,note_on,,20,0,5,,,,,,,1,,,,83,104
28300,note_on,,0,0,5,,,,,,,1,,,,71,104
28300,note_on,,0,0,6,,,,,,,2,,,,71,104
28305,note_on,,5,0,5,,,,,,,1,,,,77,80
28305,note_on,,5,0,6,,,,,,,2,,,,77,80
28370,note_off,,65,0,6,,,,,,,2,,,,37,0
28370,note_off,,65,0,5,,,,,,,1,,,,37,0
28495,note_off,,125,0,6,,,,,,,2,,,,71,0
28495,note_off,,125,0,5,,,,,,,1,,,,71,0
28510,note_off,,15,0,6,,,,,,,2,,,,83,0
28510,note_off,,15,0,5,,,,,,,1,,,,83,0
28515,note_off,,5,0,6,,,,,,,2,,,,77,0
28515,note_off,,5,0,5,,,,,,,1,,,,77,0
28520,note_on,,5,0,5,,,,,,,1,,,,56,68
28520,note_on,,5,0,6,,,,,,,2,,,,56,68
28525,note_on,,5,0,5,,,,,,,1,,,,65,55
28525,note_on,,5,0,6,,,,,,,2,,,,65,55
28530,note_on,,5,0,6,,,,,,,2,,,,61,59
28530,note_on,,5,0,5,,,,,,,1,,,,61,59
28575,note_off,,45,0,6,,,,,,,2,,,,56,0
28575,note_off,,45,0,5,,,,,,,1,,,,56,0
28585,note_off,,10,0,5,,,,,,,1,,,,65,0
28585,note_off,,0,0,6,,,,,,,2,,,,61,0
28585,note_off,,10,0,6,,,,,,,2,,,,65,0
28585,note_off,,0,0,5,,,,,,,1,,,,61,0
28665,note_on,,0,0,5,,,,,,,1,,,,85,46
28665,note_on,,0,0,6,,,,,,,2,,,,85,46
28665,note_on,,80,0,6,,,,,,,2,,,,73,69
28665,note_on,,80,0,5,,,,,,,1,,,,73,69
28720,note_off,,55,0,5,,,,,,,1,,,,85,0
28720,note_off,,55,0,6,,,,,,,2,,,,85,0
28725,note_off,,5,0,6,,,,,,,2,,,,73,0
28725,note_off,,5,0,5,,,,,,,1,,,,73,0
28750,note_on,,25,0,6,,,,,,,2,,,,54,64
28750,note_on,,25,0,5,,,,,,,1,,,,54,64
28760,note_on,,0,0,5,,,,,,,1,,,,72,72
28760,note_on,,0,0,6,,,,,,,2,,,,72,72
28760,note_on,,10,0,6,,,,,,,2,,,,84,88
28760,note_on,,10,0,5,,,,,,,1,,,,84,88
28765,note_on,,5,0,5,,,,,,,1,,,,81,64
28765,note_on,,5,0,6,,,,,,,2,,,,81,64
28825,note_off,,60,0,6,,,,,,,2,,,,72,0
28825,note_off,,60,0,5,,,,,,,1,,,,72,0
28835,note_off,,0,0,6,,,,,,,2,,,,81,0
28835,note_off,,0,0,6,,,,,,,2,,,,54,0
28835,note_off,,10,0,5,,,,,,,1,,,,84,0
28835,note_off,,10,0,6,,,,,,,2,,,,84,0
28835,note_off,,0,0,5,,,,,,,1,,,,81,0
28835,note_off,,0,0,5,,,,,,,1,,,,54,0
28995,note_on,,160,0,6,,,,,,,2,,,,61,68
28995,note_on,,160,0,5,,,,,,,1,,,,61,68
29000,note_on,,5,0,5,,,,,,,1,,,,66,64
29000,note_on,,5,0,6,,,,,,,2,,,,66,64
29005,note_on,,5,0,6,,,,,,,2,,,,58,59
29005,note_on,,5,0,5,,,,,,,1,,,,58,59
29010,note_on,,5,0,6,,,,,,,2,,,,85,47
29010,note_on,,5,0,5,,,,,,,1,,,,85,47
29015,note_on,,5,0,5,,,,,,,1,,,,73,80
29015,note_on,,5,0,6,,,,,,,2,,,,73,80
29020,note_on,,5,0,5,,,,,,,1,,,,82,68
29020,note_on,,5,0,6,,,,,,,2,,,,82,68
29045,note_off,,25,0,6,,,,,,,2,,,,66,0
29045,note_off,,25,0,5,,,,,,,1,,,,66,0
29050,note_off,,5,0,6,,,,,,,2,,,,58,0
29050,note_off,,5,0,5,,,,,,,1,,,,58,0
29055,note_off,,5,0,5,,,,,,,1,,,,82,0
29055,note_off,,5,0,6,,,,,,,2,,,,82,0
29060,note_off,,5,0,5,,,,,,,1,,,,61,0
29060,note_off,,5,0,6,,,,,,,2,,,,61,0
29070,note_off,,10,0,5,,,,,,,1,,,,85,0
29070,note_off,,10,0,6,,,,,,,2,,,,85,0
29075,note_off,,5,0,5,,,,,,,1,,,,73,0
29075,note_off,,5,0,6,,,,,,,2,,,,73,0
29235,note_on,,160,0,6,,,,,,,2,,,,49,64
29235,note_on,,160,0,5,,,,,,,1,,,,49,64
29260,note_on,,0,0,6,,,,,,,2,,,,70,80
29260,note_on,,25,0,5,,,,,,,1,,,,82,88
29260,note_on,,25,0,6,,,,,,,2,,,,82,88
29260,note_on,,0,0,5,,,,,,,1,,,,70,80
29265,note_on,,5,0,6,,,,,,,2,,,,78,80
29265,note_on,,5,0,5,,,,,,,1,,,,78,80
29320,note_off,,55,0,5,,,,,,,1,,,,49,0
29320,note_off,,55,0,6,,,,,,,2,,,,49,0
29435,note_off,,115,0,5,,,,,,,1,,,,70,0
29435,note_off,,115,0,6,,,,,,,2,,,,70,0
29450,note_off,,15,0,6,,,,,,,2,,,,82,0
29450,note_off,,15,0,5,,,,,,,1,,,,82,0
29455,note_off,,5,0,5,,,,,,,1,,,,78,0
29455,note_off,,5,0,6,,,,,,,2,,,,78,0
29475,note_on,,0,0,5,,,,,,,1,,,,61,77
29475,note_on,,0,0,6,,,,,,,2,,,,61,77
29475,note_on,,20,0,5,,,,,,,1,,,,58,64
29475,note_on,,20,0,6,,,,,,,2,,,,58,64
29480,note_on,,5,0,6,,,,,,,2,,,,66,64
29480,note_on,,5,0,5,,,,,,,1,,,,66,64
29520,note_off,,40,0,5,,,,,,,1,,,,66,0
29520,note_off,,40,0,6,,,,,,,2,,,,66,0
29525,note_off,,5,0,5,,,,,,,1,,,,61,0
29525,note_off,,5,0,6,,,,,,,2,,,,61,0
29530,note_off,,5,0,6,,,,,,,2,,,,58,0
29530,note_off,,5,0,5,,,,,,,1,,,,58,0
29625,note_on,,0,0,5,,,,,,,1,,,,85,34
29625,note_on,,95,0,6,,,,,,,2,,,,73,68
29625,note_on,,95,0,5,,,,,,,1,,,,73,68
29625,note_on,,0,0,6,,,,,,,2,,,,85,34
29665,note_off,,40,0,6,,,,,,,2,,,,85,0
29665,note_off,,40,0,5,,,,,,,1,,,,85,0
29670,note_off,,5,0,6,,,,,,,2,,,,73,0
29670,note_off,,5,0,5,,,,,,,1,,,,73,0
29700,note_on,,30,0,5,,,,,,,1,,,,42,72
29700,note_on,,30,0,6,,,,,,,2,,,,42,72
29725,note_on,,25,0,5,,,,,,,1,,,,84,88
29725,note_on,,25,0,6,,,,,,,2,,,,84,88
29730,note_on,,5,0,6,,,,,,,2,,,,72,72
29730,note_on,,0,0,5,,,,,,,1,,,,81,64
29730,note_on,,5,0,5,,,,,,,1,,,,72,72
29730,note_on,,0,0,6,,,,,,,2,,,,81,64
29775,note_on,,0,0,6,,,,,,,2,,,,82,15
29775,note_off,,45,0,5,,,,,,,1,,,,42,0
29775,note_on,,0,0,5,,,,,,,1,,,,82,15
29775,note_off,,45,0,6,,,,,,,2,,,,42,0
29780,note_off,,5,0,6,,,,,,,2,,,,82,0
29780,note_off,,5,0,5,,,,,,,1,,,,82,0
29790,note_off,,0,0,5,,,,,,,1,,,,81,0
29790,note_off,,10,0,5,,,,,,,1,,,,72,0
29790,note_off,,10,0,6,,,,,,,2,,,,72,0
29790,note_off,,0,0,6,,,,,,,2,,,,81,0
29805,note_off,,15,0,6,,,,,,,2,,,,84,0
29805,note_off,,15,0,5,,,,,,,1,,,,84,0
29970,note_on,,0,0,5,,,,,,,1,,,,85,46
29970,note_on,,0,0,5,,,,,,,1,,,,66,64
29970,note_on,,165,0,6,,,,,,,2,,,,73,80
29970,note_on,,165,0,5,,,,,,,1,,,,73,80
29970,note_on,,0,0,6,,,,,,,2,,,,85,46
29970,note_on,,0,0,6,,,,,,,2,,,,66,64
29975,note_on,,5,0,5,,,,,,,1,,,,58,58
29975,note_on,,5,0,6,,,,,,,2,,,,58,58
29975,note_on,,0,0,6,,,,,,,2,,,,61,64
29975,note_on,,0,0,5,,,,,,,1,,,,61,64
29980,note_on,,5,0,5,,,,,,,1,,,,82,64
29980,note_on,,5,0,6,,,,,,,2,,,,82,64
30015,note_off,,0,0,6,,,,,,,2,,,,85,0
30015,note_off,,35,0,5,,,,,,,1,,,,82,0
30015,note_off,,0,0,5,,,,,,,1,,,,66,0
30015,note_off,,0,0,5,,,,,,,1,,,,85,0
30015,note_off,,35,0,6,,,,,,,2,,,,82,0
30015,note_off,,0,0,6,,,,,,,2,,,,66,0
30020,note_off,,5,0,5,,,,,,,1,,,,58,0
30020,note_off,,5,0,6,,,,,,,2,,,,58,0
30020,note_off,,0,0,5,,,,,,,1,,,,61,0
30020,note_off,,0,0,6,,,,,,,2,,,,61,0
30035,note_off,,15,0,6,,,,,,,2,,,,73,0
30035,note_off,,15,0,5,,,,,,,1,,,,73,0
30215,note_on,,180,0,6,,,,,,,2,,,,70,76
30215,note_on,,180,0,5,,,,,,,1,,,,70,76
30215,note_on,,0,0,6,,,,,,,2,,,,37,80
30215,note_on,,0,0,5,,,,,,,1,,,,37,80
30215,note_on,,0,0,5,,,,,,,1,,,,82,88
30215,note_on,,0,0,6,,,,,,,2,,,,82,88
30220,note_on,,5,0,6,,,,,,,2,,,,78,72
30220,note_on,,5,0,5,,,,,,,1,,,,78,72
30300,note_off,,80,0,5,,,,,,,1,,,,37,0
30300,note_off,,80,0,6,,,,,,,2,,,,37,0
30365,note_off,,65,0,6,,,,,,,2,,,,70,0
30365,note_off,,65,0,5,,,,,,,1,,,,70,0
30385,note_off,,20,0,5,,,,,,,1,,,,82,0
30385,note_off,,20,0,6,,,,,,,2,,,,82,0
30390,note_off,,5,0,6,,,,,,,2,,,,78,0
30390,note_off,,5,0,5,,,,,,,1,,,,78,0
30450,note_on,,0,0,5,,,,,,,1,,,,58,63
30450,note_on,,60,0,5,,,,,,,1,,,,66,60
30450,note_on,,60,0,6,,,,,,,2,,,,66,60
30450,note_on,,0,0,6,,,,,,,2,,,,58,63
30455,note_on,,5,0,5,,,,,,,1,,,,61,68
30455,note_on,,5,0,6,,,,,,,2,,,,61,68
30505,note_off,,50,0,6,,,,,,,2,,,,61,0
30505,note_off,,50,0,5,,,,,,,1,,,,61,0
30510,note_off,,5,0,6,,,,,,,2,,,,58,0
30510,note_off,,5,0,5,,,,,,,1,,,,58,0
30525,note_off,,15,0,6,,,,,,,2,,,,66,0
30525,note_off,,15,0,5,,,,,,,1,,,,66,0
30580,note_on,,55,0,5,,,,,,,1,,,,73,69
30580,note_on,,55,0,6,,,,,,,2,,,,73,69
30585,note_on,,5,0,5,,,,,,,1,,,,85,38
30585,note_on,,5,0,6,,,,,,,2,,,,85,38
30645,note_off,,60,0,5,,,,,,,1,,,,73,0
30645,note_off,,60,0,6,,,,,,,2,,,,73,0
30655,note_off,,10,0,5,,,,,,,1,,,,85,0
30655,note_off,,10,0,6,,,,,,,2,,,,85,0
30685,note_on,,30,0,6,,,,,,,2,,,,56,72
30685,note_on,,30,0,5,,,,,,,1,,,,56,72
30690,note_on,,5,0,5,,,,,,,1,,,,72,79
30690,note_on,,0,0,5,,,,,,,1,,,,84,88
30690,note_on,,0,0,6,,,,,,,2,,,,84,88
30690,note_on,,5,0,6,,,,,,,2,,,,72,79
30745,note_off,,55,0,6,,,,,,,2,,,,72,0
30745,note_off,,55,0,5,,,,,,,1,,,,72,0
30755,note_off,,10,0,6,,,,,,,2,,,,84,0
30755,note_off,,10,0,5,,,,,,,1,,,,84,0
30765,note_off,,10,0,6,,,,,,,2,,,,56,0
30765,note_off,,10,0,5,,,,,,,1,,,,56,0
30925,note_on,,160,0,5,,,,,,,1,,,,61,64
30925,note_on,,160,0,6,,,,,,,2,,,,61,64
30930,note_on,,5,0,6,,,,,,,2,,,,73,88
30930,note_on,,5,0,5,,,,,,,1,,,,73,88
30930,note_on,,0,0,5,,,,,,,1,,,,85,58
30930,note_on,,0,0,6,,,,,,,2,,,,85,58
30940,note_on,,10,0,6,,,,,,,2,,,,80,64
30940,note_on,,0,0,5,,,,,,,1,,,,65,47
30940,note_on,,0,0,6,,,,,,,2,,,,65,47
30940,note_on,,10,0,5,,,,,,,1,,,,80,64
30980,note_off,,40,0,6,,,,,,,2,,,,73,0
30980,note_off,,40,0,5,,,,,,,1,,,,73,0
30985,note_off,,5,0,6,,,,,,,2,,,,65,0
30985,note_off,,5,0,5,,,,,,,1,,,,65,0
30995,note_off,,10,0,5,,,,,,,1,,,,61,0
30995,note_off,,0,0,5,,,,,,,1,,,,85,0
30995,note_off,,0,0,6,,,,,,,2,,,,85,0
30995,note_off,,10,0,6,,,,,,,2,,,,61,0
31030,note_off,,35,0,6,,,,,,,2,,,,80,0
31030,note_off,,35,0,5,,,,,,,1,,,,80,0
31165,note_on,,135,0,6,,,,,,,2,,,,49,64
31165,note_on,,135,0,5,,,,,,,1,,,,49,64
31175,note_on,,10,0,6,,,,,,,2,,,,87,88
31175,note_on,,10,0,5,,,,,,,1,,,,87,88
31180,note_on,,5,0,6,,,,,,,2,,,,75,80
31180,note_on,,5,0,5,,,,,,,1,,,,75,80
31185,note_on,,5,0,6,,,,,,,2,,,,83,72
31185,note_on,,5,0,5,,,,,,,1,,,,83,72
31250,note_off,,65,0,6,,,,,,,2,,,,49,0
31250,note_off,,65,0,5,,,,,,,1,,,,49,0
31370,note_off,,120,0,5,,,,,,,1,,,,87,0
31370,note_off,,120,0,6,,,,,,,2,,,,87,0
31375,note_off,,5,0,6,,,,,,,2,,,,83,0
31375,note_off,,5,0,5,,,,,,,1,,,,83,0
31395,note_off,,20,0,5,,,,,,,1,,,,75,0
31395,note_off,,20,0,6,,,,,,,2,,,,75,0
31400,note_on,,5,0,5,,,,,,,1,,,,65,57
31400,note_on,,5,0,6,,,,,,,2,,,,65,57
31400,note_on,,0,0,6,,,,,,,2,,,,56,70
31400,note_on,,0,0,5,,,,,,,1,,,,56,70
31410,note_on,,10,0,6,,,,,,,2,,,,61,64
31410,note_on,,10,0,5,,,,,,,1,,,,61,64
31450,note_off,,40,0,5,,,,,,,1,,,,56,0
31450,note_off,,40,0,6,,,,,,,2,,,,56,0
31455,note_off,,5,0,6,,,,,,,2,,,,61,0
31455,note_off,,5,0,5,,,,,,,1,,,,61,0
31465,note_off,,10,0,6,,,,,,,2,,,,65,0
31465,note_off,,10,0,5,,,,,,,1,,,,65,0
31525,note_on,,60,0,6,,,,,,,2,,,,73,59
31525,note_on,,60,0,5,,,,,,,1,,,,73,59
31540,note_on,,15,0,6,,,,,,,2,,,,85,20
31540,note_on,,15,0,5,,,,,,,1,,,,85,20
31575,note_off,,35,0,6,,,,,,,2,,,,73,0
31575,note_off,,35,0,5,,,,,,,1,,,,73,0
31590,note_off,,15,0,6,,,,,,,2,,,,85,0
31590,note_off,,15,0,5,,,,,,,1,,,,85,0
31635,note_on,,0,0,6,,,,,,,2,,,,44,72
31635,note_on,,45,0,5,,,,,,,1,,,,84,91
31635,note_on,,45,0,6,,,,,,,2,,,,84,91
31635,note_on,,0,0,5,,,,,,,1,,,,72,64
31635,note_on,,0,0,5,,,,,,,1,,,,44,72
31635,note_on,,0,0,6,,,,,,,2,,,,72,64
31695,note_off,,60,0,5,,,,,,,1,,,,72,0
31695,note_off,,60,0,6,,,,,,,2,,,,72,0
31705,note_off,,10,0,6,,,,,,,2,,,,84,0
31705,note_off,,10,0,5,,,,,,,1,,,,84,0
31715,note_off,,10,0,6,,,,,,,2,,,,44,0
31715,note_off,,10,0,5,,,,,,,1,,,,44,0
31875,note_on,,0,0,5,,,,,,,1,,,,85,74
31875,note_on,,0,0,6,,,,,,,2,,,,85,74
31875,note_on,,160,0,6,,,,,,,2,,,,73,90
31875,note_on,,160,0,5,,,,,,,1,,,,73,90
31885,note_on,,10,0,5,,,,,,,1,,,,80,78
31885,note_on,,0,0,5,,,,,,,1,,,,56,60
31885,note_on,,10,0,6,,,,,,,2,,,,80,78
31885,note_on,,0,0,6,,,,,,,2,,,,56,60
31890,note_on,,0,0,5,,,,,,,1,,,,61,64
31890,note_on,,0,0,6,,,,,,,2,,,,61,64
31890,note_on,,5,0,6,,,,,,,2,,,,65,59
31890,note_on,,5,0,5,,,,,,,1,,,,65,59
31930,note_off,,40,0,6,,,,,,,2,,,,73,0
31930,note_off,,40,0,5,,,,,,,1,,,,73,0
31940,note_off,,10,0,6,,,,,,,2,,,,56,0
31940,note_off,,10,0,5,,,,,,,1,,,,56,0
31945,note_off,,5,0,5,,,,,,,1,,,,80,0
31945,note_off,,5,0,6,,,,,,,2,,,,80,0
31950,note_off,,0,0,5,,,,,,,1,,,,61,0
31950,note_off,,0,0,5,,,,,,,1,,,,65,0
31950,note_off,,5,0,6,,,,,,,2,,,,85,0
31950,note_off,,0,0,6,,,,,,,2,,,,65,0
31950,note_off,,0,0,6,,,,,,,2,,,,61,0
31950,note_off,,5,0,5,,,,,,,1,,,,85,0
32120,note_on,,170,0,5,,,,,,,1,,,,87,88
32120,note_on,,0,0,5,,,,,,,1,,,,75,110
32120,note_on,,0,0,6,,,,,,,2,,,,75,110
32120,note_on,,170,0,6,,,,,,,2,,,,87,88
32125,note_on,,0,0,5,,,,,,,1,,,,37,80
32125,note_on,,5,0,5,,,,,,,1,,,,83,80
32125,note_on,,0,0,6,,,,,,,2,,,,37,80
32125,note_on,,5,0,6,,,,,,,2,,,,83,80
32215,note_off,,90,0,6,,,,,,,2,,,,37,0
32215,note_off,,90,0,5,,,,,,,1,,,,37,0
32315,note_off,,100,0,5,,,,,,,1,,,,83,0
32315,note_off,,0,0,6,,,,,,,2,,,,87,0
32315,note_off,,0,0,5,,,,,,,1,,,,87,0
32315,note_off,,100,0,6,,,,,,,2,,,,83,0
32330,note_off,,15,0,6,,,,,,,2,,,,75,0
32330,note_off,,15,0,5,,,,,,,1,,,,75,0
32370,note_on,,40,0,6,,,,,,,2,,,,56,62
32370,note_on,,40,0,5,,,,,,,1,,,,56,62
32380,note_on,,0,0,5,,,,,,,1,,,,65,50
32380,note_on,,10,0,6,,,,,,,2,,,,61,61
32380,note_on,,10,0,5,,,,,,,1,,,,61,61
32380,note_on,,0,0,6,,,,,,,2,,,,65,50
32425,note_off,,45,0,5,,,,,,,1,,,,56,0
32425,note_off,,45,0,6,,,,,,,2,,,,56,0
32435,note_off,,10,0,6,,,,,,,2,,,,61,0
32435,note_off,,10,0,5,,,,,,,1,,,,61,0
32440,note_off,,5,0,5,,,,,,,1,,,,65,0
32440,note_off,,5,0,6,,,,,,,2,,,,65,0
32495,note_on,,55,0,6,,,,,,,2,,,,73,61
32495,note_on,,0,0,5,,,,,,,1,,,,85,30
32495,note_on,,0,0,6,,,,,,,2,,,,85,30
32495,note_on,,55,0,5,,,,,,,1,,,,73,61
32555,note_off,,60,0,5,,,,,,,1,,,,73,0
32555,note_off,,60,0,6,,,,,,,2,,,,73,0
32560,note_off,,5,0,5,,,,,,,1,,,,85,0
32560,note_off,,5,0,6,,,,,,,2,,,,85,0
32590,note_on,,30,0,6,,,,,,,2,,,,54,80
32590,note_on,,30,0,5,,,,,,,1,,,,54,80
32610,note_on,,20,0,5,,,,,,,1,,,,84,79
32610,note_on,,20,0,6,,,,,,,2,,,,84,79
32615,note_on,,0,0,6,,,,,,,2,,,,72,77
32615,note_on,,5,0,6,,,,,,,2,,,,81,72
32615,note_on,,0,0,5,,,,,,,1,,,,72,77
32615,note_on,,5,0,5,,,,,,,1,,,,81,72
32670,note_off,,55,0,6,,,,,,,2,,,,72,0
32670,note_off,,55,0,5,,,,,,,1,,,,72,0
32680,note_off,,0,0,6,,,,,,,2,,,,84,0
32680,note_off,,0,0,5,,,,,,,1,,,,84,0
32680,note_off,,10,0,5,,,,,,,1,,,,81,0
32680,note_off,,10,0,6,,,,,,,2,,,,81,0
32685,note_off,,5,0,6,,,,,,,2,,,,54,0
32685,note_off,,5,0,5,,,,,,,1,,,,54,0
32855,note_on,,170,0,5,,,,,,,1,,,,73,78
32855,note_on,,0,0,5,,,,,,,1,,,,58,64
32855,note_on,,0,0,5,,,,,,,1,,,,61,76
32855,note_on,,170,0,6,,,,,,,2,,,,73,78
32855,note_on,,0,0,6,,,,,,,2,,,,66,76
32855,note_on,,0,0,6,,,,,,,2,,,,61,76
32855,note_on,,0,0,5,,,,,,,1,,,,66,76
32855,note_on,,0,0,5,,,,,,,1,,,,85,60
32855,note_on,,0,0,6,,,,,,,2,,,,58,64
32855,note_on,,0,0,6,,,,,,,2,,,,85,60
32860,note_on,,5,0,5,,,,,,,1,,,,82,80
32860,note_on,,5,0,6,,,,,,,2,,,,82,80
32900,note_off,,40,0,5,,,,,,,1,,,,73,0
32900,note_off,,40,0,6,,,,,,,2,,,,73,0
32910,note_off,,10,0,6,,,,,,,2,,,,82,0
32910,note_off,,10,0,5,,,,,,,1,,,,82,0
32915,note_off,,0,0,5,,,,,,,1,,,,66,0
32915,note_off,,0,0,5,,,,,,,1,,,,61,0
32915,note_off,,5,0,6,,,,,,,2,,,,58,0
32915,note_off,,5,0,5,,,,,,,1,,,,58,0
32915,note_off,,0,0,6,,,,,,,2,,,,66,0
32915,note_off,,0,0,6,,,,,,,2,,,,61,0
32925,note_off,,10,0,6,,,,,,,2,,,,85,0
32925,note_off,,10,0,5,,,,,,,1,,,,85,0
33100,note_on,,175,0,6,,,,,,,2,,,,49,64
33100,note_on,,175,0,5,,,,,,,1,,,,49,64
33105,note_on,,0,0,6,,,,,,,2,,,,90,84
33105,note_on,,5,0,6,,,,,,,2,,,,78,84
33105,note_on,,0,0,5,,,,,,,1,,,,90,84
33105,note_on,,0,0,6,,,,,,,2,,,,82,110
33105,note_on,,0,0,5,,,,,,,1,,,,82,110
33105,note_on,,5,0,5,,,,,,,1,,,,78,84
33185,note_off,,80,0,5,,,,,,,1,,,,49,0
33185,note_off,,80,0,6,,,,,,,2,,,,49,0
33200,note_off,,15,0,5,,,,,,,1,,,,90,0
33200,note_off,,15,0,6,,,,,,,2,,,,90,0
33205,note_off,,5,0,5,,,,,,,1,,,,78,0
33205,note_off,,5,0,6,,,,,,,2,,,,78,0
33225,note_off,,20,0,6,,,,,,,2,,,,82,0
33225,note_off,,20,0,5,,,,,,,1,,,,82,0
33325,note_on,,0,0,6,,,,,,,2,,,,58,68
33325,note_on,,0,0,5,,,,,,,1,,,,58,68
33325,note_on,,100,0,6,,,,,,,2,,,,66,60
33325,note_on,,100,0,5,,,,,,,1,,,,66,60
33330,note_on,,5,0,5,,,,,,,1,,,,61,55
33330,note_on,,5,0,6,,,,,,,2,,,,61,55
33375,note_off,,45,0,5,,,,,,,1,,,,61,0
33375,note_off,,45,0,6,,,,,,,2,,,,61,0
33385,note_off,,10,0,5,,,,,,,1,,,,58,0
33385,note_off,,0,0,6,,,,,,,2,,,,66,0
33385,note_off,,0,0,5,,,,,,,1,,,,66,0
33385,note_off,,10,0,6,,,,,,,2,,,,58,0
33470,note_on,,0,0,5,,,,,,,1,,,,85,34
33470,note_on,,0,0,6,,,,,,,2,,,,85,34
33470,note_on,,85,0,5,,,,,,,1,,,,73,68
33470,note_on,,85,0,6,,,,,,,2,,,,73,68
33520,note_off,,50,0,6,,,,,,,2,,,,85,0
33520,note_off,,50,0,5,,,,,,,1,,,,85,0
33525,note_off,,5,0,6,,,,,,,2,,,,73,0
33525,note_off,,5,0,5,,,,,,,1,,,,73,0
33550,note_on,,25,0,6,,,,,,,2,,,,42,72
33550,note_on,,25,0,5,,,,,,,1,,,,42,72
33565,note_on,,15,0,6,,,,,,,2,,,,72,88
33565,note_on,,15,0,5,,,,,,,1,,,,72,88
33570,note_on,,0,0,5,,,,,,,1,,,,81,80
33570,note_on,,0,0,6,,,,,,,2,,,,81,80
33570,note_on,,5,0,6,,,,,,,2,,,,84,80
33570,note_on,,5,0,5,,,,,,,1,,,,84,80
33625,note_off,,55,0,6,,,,,,,2,,,,42,0
33625,note_off,,55,0,5,,,,,,,1,,,,42,0
33630,note_off,,5,0,5,,,,,,,1,,,,72,0
33630,note_off,,5,0,6,,,,,,,2,,,,72,0
33635,note_off,,5,0,6,,,,,,,2,,,,84,0
33635,note_off,,5,0,5,,,,,,,1,,,,84,0
33635,note_off,,0,0,5,,,,,,,1,,,,81,0
33635,note_off,,0,0,6,,,,,,,2,,,,81,0
33800,note_on,,165,0,6,,,,,,,2,,,,85,58
33800,note_on,,165,0,5,,,,,,,1,,,,85,58
33805,note_on,,5,0,5,,,,,,,1,,,,73,72
33805,note_on,,5,0,6,,,,,,,2,,,,73,72
33805,note_on,,0,0,5,,,,,,,1,,,,61,72
33805,note_on,,0,0,6,,,,,,,2,,,,61,72
33810,note_on,,0,0,5,,,,,,,1,,,,58,59
33810,note_on,,0,0,6,,,,,,,2,,,,58,59
33810,note_on,,5,0,5,,,,,,,1,,,,82,71
33810,note_on,,0,0,6,,,,,,,2,,,,66,59
33810,note_on,,5,0,6,,,,,,,2,,,,82,71
33810,note_on,,0,0,5,,,,,,,1,,,,66,59
33840,note_off,,30,0,6,,,,,,,2,,,,73,0
33840,note_off,,30,0,5,,,,,,,1,,,,73,0
33850,note_off,,10,0,6,,,,,,,2,,,,82,0
33850,note_off,,10,0,5,,,,,,,1,,,,82,0
33855,note_off,,5,0,6,,,,,,,2,,,,66,0
33855,note_off,,5,0,5,,,,,,,1,,,,66,0
33860,note_off,,5,0,5,,,,,,,1,,,,85,0
33860,note_off,,0,0,5,,,,,,,1,,,,58,0
33860,note_off,,0,0,6,,,,,,,2,,,,58,0
33860,note_off,,5,0,6,,,,,,,2,,,,85,0
33865,note_off,,5,0,6,,,,,,,2,,,,61,0
33865,note_off,,5,0,5,,,,,,,1,,,,61,0
34010,note_on,,145,0,5,,,,,,,1,,,,37,72
34010,note_on,,145,0,6,,,,,,,2,,,,37,72
34040,note_on,,30,0,5,,,,,,,1,,,,78,88
34040,note_on,,30,0,6,,,,,,,2,,,,78,88
34045,note_on,,5,0,5,,,,,,,1,,,,90,84
34045,note_on,,5,0,6,,,,,,,2,,,,90,84
34050,note_on,,5,0,6,,,,,,,2,,,,82,77
34050,note_on,,5,0,5,,,,,,,1,,,,82,77
34085,note_off,,35,0,6,,,,,,,2,,,,37,0
34085,note_off,,35,0,5,,,,,,,1,,,,37,0
34090,note_off,,5,0,5,,,,,,,1,,,,90,0
34090,note_off,,5,0,6,,,,,,,2,,,,90,0
34100,note_off,,10,0,5,,,,,,,1,,,,82,0
34100,note_off,,10,0,6,,,,,,,2,,,,82,0
34105,note_off,,5,0,5,,,,,,,1,,,,78,0
34105,note_off,,5,0,6,,,,,,,2,,,,78,0
34275,note_on,,170,0,6,,,,,,,2,,,,58,64
34275,note_on,,0,0,5,,,,,,,1,,,,66,58
34275,note_on,,0,0,5,,,,,,,1,,,,61,64
34275,note_on,,170,0,5,,,,,,,1,,,,58,64
34275,note_on,,0,0,6,,,,,,,2,,,,61,64
34275,note_on,,0,0,6,,,,,,,2,,,,66,58
34325,note_off,,0,0,5,,,,,,,1,,,,58,0
34325,note_off,,50,0,6,,,,,,,2,,,,61,0
34325,note_off,,0,0,6,,,,,,,2,,,,58,0
34325,note_off,,50,0,5,,,,,,,1,,,,61,0
34335,note_off,,10,0,5,,,,,,,1,,,,66,0
34335,note_off,,10,0,6,,,,,,,2,,,,66,0
34365,note_on,,30,0,6,,,,,,,2,,,,73,80
34365,note_on,,30,0,5,,,,,,,1,,,,73,80
34380,note_on,,15,0,6,,,,,,,2,,,,85,41
34380,note_on,,15,0,5,,,,,,,1,,,,85,41
34410,note_off,,30,0,5,,,,,,,1,,,,73,0
34410,note_off,,30,0,6,,,,,,,2,,,,73,0
34415,note_off,,5,0,6,,,,,,,2,,,,85,0
34415,note_off,,5,0,5,,,,,,,1,,,,85,0
34485,note_on,,0,0,6,,,,,,,2,,,,78,88
34485,note_on,,0,0,5,,,,,,,1,,,,78,88
34485,note_on,,70,0,6,,,,,,,2,,,,87,110
34485,note_on,,70,0,5,,,,,,,1,,,,87,110
34500,note_on,,15,0,6,,,,,,,2,,,,54,64
34500,note_on,,15,0,5,,,,,,,1,,,,54,64
34525,note_off,,25,0,5,,,,,,,1,,,,78,0
34525,note_off,,25,0,6,,,,,,,2,,,,78,0
34535,note_off,,10,0,5,,,,,,,1,,,,87,0
34535,note_off,,10,0,6,,,,,,,2,,,,87,0
34625,note_off,,90,0,5,,,,,,,1,,,,54,0
34625,note_off,,90,0,6,,,,,,,2,,,,54,0
34715,note_on,,90,0,6,,,,,,,2,,,,83,79
34715,note_on,,90,0,5,,,,,,,1,,,,83,79
34720,note_on,,5,0,6,,,,,,,2,,,,78,55
34720,note_on,,5,0,5,,,,,,,1,,,,78,55
34730,note_on,,10,0,5,,,,,,,1,,,,63,63
34730,note_on,,10,0,6,,,,,,,2,,,,63,63
34745,note_on,,15,0,6,,,,,,,2,,,,59,39
34745,note_on,,15,0,5,,,,,,,1,,,,59,39
34765,note_off,,20,0,6,,,,,,,2,,,,78,0
34765,note_off,,20,0,5,,,,,,,1,,,,78,0
34775,note_off,,10,0,5,,,,,,,1,,,,83,0
34775,note_off,,10,0,6,,,,,,,2,,,,83,0
34815,note_off,,40,0,6,,,,,,,2,,,,63,0
34815,note_off,,40,0,5,,,,,,,1,,,,63,0
34815,note_off,,0,0,5,,,,,,,1,,,,59,0
34815,note_off,,0,0,6,,,,,,,2,,,,59,0
34960,note_on,,145,0,5,,,,,,,1,,,,49,64
34960,note_on,,145,0,6,,,,,,,2,,,,49,64
34980,note_on,,20,0,5,,,,,,,1,,,,75,70
34980,note_on,,20,0,6,,,,,,,2,,,,75,70
34985,note_on,,5,0,6,,,,,,,2,,,,78,68
34985,note_on,,5,0,5,,,,,,,1,,,,78,68
35015,note_off,,30,0,5,,,,,,,1,,,,78,0
35015,note_off,,30,0,6,,,,,,,2,,,,78,0
35040,note_off,,25,0,5,,,,,,,1,,,,75,0
35040,note_off,,25,0,6,,,,,,,2,,,,75,0
35055,note_off,,15,0,5,,,,,,,1,,,,49,0
35055,note_off,,15,0,6,,,,,,,2,,,,49,0
35185,note_on,,130,0,5,,,,,,,1,,,,66,50
35185,note_on,,130,0,6,,,,,,,2,,,,66,50
35195,note_on,,10,0,6,,,,,,,2,,,,63,57
35195,note_on,,10,0,5,,,,,,,1,,,,63,57
35240,note_on,,45,0,6,,,,,,,2,,,,75,68
35240,note_on,,45,0,5,,,,,,,1,,,,75,68
35245,note_on,,5,0,5,,,,,,,1,,,,71,55
35245,note_on,,5,0,6,,,,,,,2,,,,71,55
35300,note_off,,55,0,5,,,,,,,1,,,,71,0
35300,note_off,,55,0,6,,,,,,,2,,,,71,0
35305,note_off,,5,0,6,,,,,,,2,,,,75,0
35305,note_off,,5,0,5,,,,,,,1,,,,75,0
35370,note_off,,65,0,5,,,,,,,1,,,,63,0
35370,note_off,,65,0,6,,,,,,,2,,,,63,0
35385,note_off,,15,0,6,,,,,,,2,,,,66,0
35385,note_off,,15,0,5,,,,,,,1,,,,66,0
35420,note_on,,35,0,6,,,,,,,2,,,,54,54
35420,note_on,,35,0,5,,,,,,,1,,,,54,54
35495,note_on,,75,0,5,,,,,,,1,,,,75,88
35495,note_on,,75,0,6,,,,,,,2,,,,75,88
35500,note_on,,5,0,5,,,,,,,1,,,,78,72
35500,note_on,,5,0,6,,,,,,,2,,,,78,72
35555,note_off,,55,0,5,,,,,,,1,,,,75,0
35555,note_off,,55,0,6,,,,,,,2,,,,75,0
35575,note_off,,20,0,5,,,,,,,1,,,,78,0
35575,note_off,,20,0,6,,,,,,,2,,,,78,0
35590,note_off,,15,0,6,,,,,,,2,,,,54,0
35590,note_off,,15,0,5,,,,,,,1,,,,54,0
35705,note_on,,115,0,5,,,,,,,1,,,,63,57
35705,note_on,,115,0,6,,,,,,,2,,,,63,57
35715,note_on,,10,0,6,,,,,,,2,,,,59,46
35715,note_on,,10,0,5,,,,,,,1,,,,59,46
35730,note_on,,15,0,6,,,,,,,2,,,,78,72
35730,note_on,,15,0,5,,,,,,,1,,,,78,72
35740,note_on,,10,0,5,,,,,,,1,,,,83,72
35740,note_on,,10,0,6,,,,,,,2,,,,83,72
35785,note_off,,45,0,6,,,,,,,2,,,,83,0
35785,note_off,,45,0,5,,,,,,,1,,,,83,0
35790,note_off,,5,0,5,,,,,,,1,,,,78,0
35790,note_off,,5,0,6,,,,,,,2,,,,78,0
35825,note_off,,35,0,5,,,,,,,1,,,,63,0
35825,note_off,,35,0,6,,,,,,,2,,,,63,0
35845,note_off,,20,0,6,,,,,,,2,,,,59,0
35845,note_off,,20,0,5,,,,,,,1,,,,59,0
35950,note_on,,105,0,5,,,,,,,1,,,,49,72
35950,note_on,,105,0,6,,,,,,,2,,,,49,72
35985,note_on,,35,0,6,,,,,,,2,,,,83,80
35985,note_on,,35,0,5,,,,,,,1,,,,83,80
35995,note_on,,10,0,6,,,,,,,2,,,,87,68
35995,note_on,,10,0,5,,,,,,,1,,,,87,68
36045,note_off,,50,0,5,,,,,,,1,,,,83,0
36045,note_off,,50,0,6,,,,,,,2,,,,83,0
36050,note_off,,5,0,5,,,,,,,1,,,,87,0
36050,note_off,,5,0,6,,,,,,,2,,,,87,0
36070,note_off,,20,0,6,,,,,,,2,,,,49,0
36070,note_off,,20,0,5,,,,,,,1,,,,49,0
36200,note_on,,130,0,5,,,,,,,1,,,,66,57
36200,note_on,,130,0,6,,,,,,,2,,,,66,57
36205,note_on,,5,0,5,,,,,,,1,,,,63,56
36205,note_on,,5,0,6,,,,,,,2,,,,63,56
36210,note_on,,5,0,6,,,,,,,2,,,,90,88
36210,note_on,,5,0,5,,,,,,,1,,,,90,88
36215,note_on,,5,0,6,,,,,,,2,,,,87,77
36215,note_on,,5,0,5,,,,,,,1,,,,87,77
36260,note_off,,45,0,6,,,,,,,2,,,,87,0
36260,note_off,,45,0,5,,,,,,,1,,,,87,0
36280,note_off,,20,0,6,,,,,,,2,,,,90,0
36280,note_off,,20,0,5,,,,,,,1,,,,90,0
36320,note_off,,0,0,5,,,,,,,1,,,,66,0
36320,note_off,,40,0,6,,,,,,,2,,,,63,0
36320,note_off,,40,0,5,,,,,,,1,,,,63,0
36320,note_off,,0,0,6,,,,,,,2,,,,66,0
36435,note_on,,115,0,5,,,,,,,1,,,,54,64
36435,note_on,,115,0,6,,,,,,,2,,,,54,64
36480,note_on,,45,0,5,,,,,,,1,,,,82,64
36480,note_on,,0,0,5,,,,,,,1,,,,85,38
36480,note_on,,45,0,6,,,,,,,2,,,,82,64
36480,note_on,,0,0,6,,,,,,,2,,,,85,38
36520,note_off,,40,0,6,,,,,,,2,,,,82,0
36520,note_off,,40,0,5,,,,,,,1,,,,82,0
36525,note_off,,5,0,5,,,,,,,1,,,,85,0
36525,note_off,,5,0,6,,,,,,,2,,,,85,0
36625,note_off,,100,0,5,,,,,,,1,,,,54,0
36625,note_off,,100,0,6,,,,,,,2,,,,54,0
36700,note_on,,0,0,6,,,,,,,2,,,,61,70
36700,note_on,,75,0,6,,,,,,,2,,,,58,62
36700,note_on,,75,0,5,,,,,,,1,,,,58,62
36700,note_on,,0,0,5,,,,,,,1,,,,61,70
36715,note_on,,15,0,6,,,,,,,2,,,,78,68
36715,note_on,,15,0,5,,,,,,,1,,,,78,68
36720,note_on,,5,0,6,,,,,,,2,,,,82,64
36720,note_on,,5,0,5,,,,,,,1,,,,82,64
36755,note_off,,35,0,6,,,,,,,2,,,,82,0
36755,note_off,,35,0,5,,,,,,,1,,,,82,0
36770,note_off,,15,0,5,,,,,,,1,,,,78,0
36770,note_off,,15,0,6,,,,,,,2,,,,78,0
36790,note_off,,0,0,6,,,,,,,2,,,,58,0
36790,note_off,,20,0,5,,,,,,,1,,,,61,0
36790,note_off,,0,0,5,,,,,,,1,,,,58,0
36790,note_off,,20,0,6,,,,,,,2,,,,61,0
36930,note_on,,140,0,5,,,,,,,1,,,,49,71
36930,note_on,,140,0,6,,,,,,,2,,,,49,71
36940,note_on,,10,0,6,,,,,,,2,,,,73,69
36940,note_on,,10,0,5,,,,,,,1,,,,73,69
36945,note_on,,5,0,5,,,,,,,1,,,,78,76
36945,note_on,,5,0,6,,,,,,,2,,,,78,76
36975,note_off,,30,0,5,,,,,,,1,,,,78,0
36975,note_off,,30,0,6,,,,,,,2,,,,78,0
37000,note_off,,25,0,5,,,,,,,1,,,,73,0
37000,note_off,,25,0,6,,,,,,,2,,,,73,0
37065,note_off,,65,0,6,,,,,,,2,,,,49,0
37065,note_off,,65,0,5,,,,,,,1,,,,49,0
37180,note_on,,115,0,5,,,,,,,1,,,,61,79
37180,note_on,,0,0,5,,,,,,,1,,,,66,64
37180,note_on,,0,0,6,,,,,,,2,,,,66,64
37180,note_on,,115,0,6,,,,,,,2,,,,61,79
37185,note_on,,5,0,5,,,,,,,1,,,,73,80
37185,note_on,,0,0,5,,,,,,,1,,,,70,51
37185,note_on,,0,0,6,,,,,,,2,,,,70,51
37185,note_on,,5,0,6,,,,,,,2,,,,73,80
37230,note_off,,0,0,6,,,,,,,2,,,,73,0
37230,note_off,,45,0,5,,,,,,,1,,,,70,0
37230,note_off,,0,0,5,,,,,,,1,,,,73,0
37230,note_off,,45,0,6,,,,,,,2,,,,70,0
37250,note_off,,20,0,6,,,,,,,2,,,,61,0
37250,note_off,,20,0,5,,,,,,,1,,,,61,0
37255,note_off,,5,0,6,,,,,,,2,,,,66,0
37255,note_off,,5,0,5,,,,,,,1,,,,66,0
37400,note_on,,145,0,5,,,,,,,1,,,,54,55
37400,note_on,,145,0,6,,,,,,,2,,,,54,55
37420,note_on,,20,0,5,,,,,,,1,,,,73,69
37420,note_on,,20,0,6,,,,,,,2,,,,73,69
37425,note_on,,5,0,5,,,,,,,1,,,,78,77
37425,note_on,,5,0,6,,,,,,,2,,,,78,77
37485,note_off,,60,0,5,,,,,,,1,,,,73,0
37485,note_off,,60,0,6,,,,,,,2,,,,73,0
37495,note_off,,10,0,5,,,,,,,1,,,,78,0
37495,note_off,,10,0,6,,,,,,,2,,,,78,0
37510,note_off,,15,0,6,,,,,,,2,,,,54,0
37510,note_off,,15,0,5,,,,,,,1,,,,54,0
37645,note_on,,135,0,6,,,,,,,2,,,,61,53
37645,note_on,,135,0,5,,,,,,,1,,,,61,53
37650,note_on,,5,0,5,,,,,,,1,,,,58,56
37650,note_on,,5,0,6,,,,,,,2,,,,58,56
37655,note_on,,0,0,6,,,,,,,2,,,,82,68
37655,note_on,,5,0,6,,,,,,,2,,,,78,68
37655,note_on,,5,0,5,,,,,,,1,,,,78,68
37655,note_on,,0,0,5,,,,,,,1,,,,82,68
37685,note_off,,30,0,6,,,,,,,2,,,,78,0
37685,note_off,,30,0,5,,,,,,,1,,,,78,0
37695,note_off,,10,0,5,,,,,,,1,,,,82,0
37695,note_off,,10,0,6,,,,,,,2,,,,82,0
37720,note_off,,25,0,5,,,,,,,1,,,,58,0
37720,note_off,,25,0,6,,,,,,,2,,,,58,0
37725,note_off,,5,0,6,,,,,,,2,,,,61,0
37725,note_off,,5,0,5,,,,,,,1,,,,61,0
37860,note_on,,135,0,5,,,,,,,1,,,,73,71
37860,note_on,,135,0,6,,,,,,,2,,,,73,71
37885,note_on,,25,0,5,,,,,,,1,,,,49,64
37885,note_on,,25,0,6,,,,,,,2,,,,49,64
37890,note_on,,5,0,6,,,,,,,2,,,,78,80
37890,note_on,,5,0,5,,,,,,,1,,,,78,80
37900,note_on,,10,0,5,,,,,,,1,,,,82,80
37900,note_on,,10,0,6,,,,,,,2,,,,82,80
37920,note_on,,20,0,6,,,,,,,2,,,,85,62
37920,note_on,,20,0,5,,,,,,,1,,,,85,62
37990,note_off,,70,0,6,,,,,,,2,,,,49,0
37990,note_off,,70,0,5,,,,,,,1,,,,49,0
38080,note_off,,90,0,6,,,,,,,2,,,,73,0
38080,note_off,,90,0,5,,,,,,,1,,,,73,0
38100,note_off,,20,0,5,,,,,,,1,,,,78,0
38100,note_off,,20,0,6,,,,,,,2,,,,78,0
38110,note_off,,10,0,6,,,,,,,2,,,,85,0
38110,note_off,,10,0,5,,,,,,,1,,,,85,0
38115,note_off,,5,0,5,,,,,,,1,,,,82,0
38115,note_on,,0,0,6,,,,,,,2,,,,66,49
38115,note_off,,5,0,6,,,,,,,2,,,,82,0
38115,note_on,,0,0,5,,,,,,,1,,,,66,49
38120,note_on,,5,0,5,,,,,,,1,,,,61,61
38120,note_on,,5,0,6,,,,,,,2,,,,61,61
38205,note_off,,85,0,6,,,,,,,2,,,,61,0
38205,note_off,,85,0,5,,,,,,,1,,,,61,0
38215,note_off,,10,0,6,,,,,,,2,,,,66,0
38215,note_off,,10,0,5,,,,,,,1,,,,66,0
38295,note_on,,80,0,6,,,,,,,2,,,,75,72
38295,note_on,,80,0,5,,,,,,,1,,,,75,72
38320,note_on,,25,0,6,,,,,,,2,,,,78,71
38320,note_on,,25,0,5,,,,,,,1,,,,78,71
38345,note_on,,25,0,5,,,,,,,1,,,,83,91
38345,note_on,,25,0,6,,,,,,,2,,,,83,91
38355,note_on,,10,0,5,,,,,,,1,,,,54,64
38355,note_on,,10,0,6,,,,,,,2,,,,54,64
38360,note_on,,5,0,5,,,,,,,1,,,,87,92
38360,note_on,,5,0,6,,,,,,,2,,,,87,92
38380,note_off,,20,0,5,,,,,,,1,,,,75,0
38380,note_off,,20,0,6,,,,,,,2,,,,75,0
38405,note_off,,25,0,5,,,,,,,1,,,,78,0
38405,note_off,,25,0,6,,,,,,,2,,,,78,0
38425,note_off,,20,0,6,,,,,,,2,,,,87,0
38425,note_off,,20,0,5,,,,,,,1,,,,87,0
38435,note_off,,10,0,6,,,,,,,2,,,,83,0
38435,note_off,,10,0,5,,,,,,,1,,,,83,0
38460,note_off,,25,0,5,,,,,,,1,,,,54,0
38460,note_off,,25,0,6,,,,,,,2,,,,54,0
38605,note_on,,145,0,5,,,,,,,1,,,,78,79
38605,note_on,,145,0,6,,,,,,,2,,,,78,79
38610,note_on,,0,0,5,,,,,,,1,,,,59,56
38610,note_on,,0,0,6,,,,,,,2,,,,59,56
38610,note_on,,5,0,6,,,,,,,2,,,,63,56
38610,note_on,,5,0,5,,,,,,,1,,,,63,56
38615,note_on,,5,0,5,,,,,,,1,,,,83,78
38615,note_on,,5,0,6,,,,,,,2,,,,83,78
38665,note_off,,50,0,6,,,,,,,2,,,,78,0
38665,note_off,,50,0,5,,,,,,,1,,,,78,0
38670,note_off,,0,0,5,,,,,,,1,,,,83,0
38670,note_off,,5,0,6,,,,,,,2,,,,63,0
38670,note_off,,0,0,6,,,,,,,2,,,,83,0
38670,note_off,,5,0,5,,,,,,,1,,,,63,0
38680,note_off,,10,0,5,,,,,,,1,,,,59,0
38680,note_off,,10,0,6,,,,,,,2,,,,59,0
38850,note_on,,170,0,6,,,,,,,2,,,,49,64
38850,note_on,,170,0,5,,,,,,,1,,,,49,64
38860,note_on,,0,0,6,,,,,,,2,,,,78,77
38860,note_on,,10,0,6,,,,,,,2,,,,75,78
38860,note_on,,10,0,5,,,,,,,1,,,,75,78
38860,note_on,,0,0,5,,,,,,,1,,,,78,77
38925,note_off,,65,0,5,,,,,,,1,,,,75,0
38925,note_off,,65,0,6,,,,,,,2,,,,75,0
38935,note_off,,10,0,6,,,,,,,2,,,,78,0
38935,note_off,,10,0,5,,,,,,,1,,,,78,0
38940,note_off,,5,0,6,,,,,,,2,,,,49,0
38940,note_off,,5,0,5,,,,,,,1,,,,49,0
39080,note_on,,0,0,6,,,,,,,2,,,,66,70
39080,note_on,,0,0,5,,,,,,,1,,,,66,70
39080,note_on,,140,0,5,,,,,,,1,,,,63,62
39080,note_on,,140,0,6,,,,,,,2,,,,63,62
39095,note_on,,15,0,6,,,,,,,2,,,,75,80
39095,note_on,,15,0,5,,,,,,,1,,,,75,80
39115,note_on,,20,0,6,,,,,,,2,,,,71,36
39115,note_on,,20,0,5,,,,,,,1,,,,71,36
39145,note_off,,30,0,5,,,,,,,1,,,,71,0
39145,note_off,,30,0,6,,,,,,,2,,,,71,0
39160,note_off,,15,0,6,,,,,,,2,,,,75,0
39160,note_off,,0,0,5,,,,,,,1,,,,66,0
39160,note_off,,15,0,5,,,,,,,1,,,,75,0
39160,note_off,,0,0,6,,,,,,,2,,,,66,0
39165,note_off,,5,0,5,,,,,,,1,,,,63,0
39165,note_off,,5,0,6,,,,,,,2,,,,63,0
39300,note_on,,135,0,6,,,,,,,2,,,,54,64
39300,note_on,,135,0,5,,,,,,,1,,,,54,64
39345,note_on,,45,0,6,,,,,,,2,,,,78,79
39345,note_on,,45,0,5,,,,,,,1,,,,78,79
39350,note_on,,5,0,5,,,,,,,1,,,,75,68
39350,note_on,,5,0,6,,,,,,,2,,,,75,68
39385,note_off,,35,0,5,,,,,,,1,,,,75,0
39385,note_off,,35,0,6,,,,,,,2,,,,75,0
39405,note_off,,20,0,5,,,,,,,1,,,,78,0
39405,note_off,,0,0,6,,,,,,,2,,,,54,0
39405,note_off,,0,0,5,,,,,,,1,,,,54,0
39405,note_off,,20,0,6,,,,,,,2,,,,78,0
39560,note_on,,155,0,5,,,,,,,1,,,,63,63
39560,note_on,,155,0,6,,,,,,,2,,,,63,63
39565,note_on,,5,0,6,,,,,,,2,,,,59,56
39565,note_on,,5,0,5,,,,,,,1,,,,59,56
39575,note_on,,10,0,5,,,,,,,1,,,,78,80
39575,note_on,,10,0,6,,,,,,,2,,,,78,80
39585,note_on,,10,0,5,,,,,,,1,,,,83,71
39585,note_on,,10,0,6,,,,,,,2,,,,83,71
39625,note_off,,40,0,5,,,,,,,1,,,,83,0
39625,note_off,,40,0,6,,,,,,,2,,,,83,0
39630,note_off,,5,0,5,,,,,,,1,,,,78,0
39630,note_off,,5,0,6,,,,,,,2,,,,78,0
39630,note_off,,0,0,5,,,,,,,1,,,,63,0
39630,note_off,,0,0,6,,,,,,,2,,,,63,0
39635,note_off,,5,0,6,,,,,,,2,,,,59,0
39635,note_off,,5,0,5,,,,,,,1,,,,59,0
39805,note_on,,170,0,5,,,,,,,1,,,,49,72
39805,note_on,,170,0,6,,,,,,,2,,,,49,72
39830,note_on,,25,0,6,,,,,,,2,,,,83,69
39830,note_on,,25,0,5,,,,,,,1,,,,83,69
39835,note_on,,5,0,6,,,,,,,2,,,,87,76
39835,note_on,,5,0,5,,,,,,,1,,,,87,76
39885,note_off,,50,0,6,,,,,,,2,,,,83,0
39885,note_off,,50,0,5,,,,,,,1,,,,83,0
39895,note_off,,10,0,6,,,,,,,2,,,,49,0
39895,note_off,,10,0,5,,,,,,,1,,,,49,0
39900,note_off,,5,0,5,,,,,,,1,,,,87,0
39900,note_off,,5,0,6,,,,,,,2,,,,87,0
40045,note_on,,145,0,6,,,,,,,2,,,,66,68
40045,note_on,,0,0,5,,,,,,,1,,,,63,68
40045,note_on,,0,0,6,,,,,,,2,,,,63,68
40045,note_on,,145,0,5,,,,,,,1,,,,66,68
40055,note_on,,10,0,6,,,,,,,2,,,,90,78
40055,note_on,,0,0,5,,,,,,,1,,,,87,68
40055,note_on,,10,0,5,,,,,,,1,,,,90,78
40055,note_on,,0,0,6,,,,,,,2,,,,87,68
40105,note_off,,50,0,5,,,,,,,1,,,,87,0
40105,note_off,,50,0,6,,,,,,,2,,,,87,0
40120,note_off,,15,0,5,,,,,,,1,,,,63,0
40120,note_off,,15,0,6,,,,,,,2,,,,63,0
40125,note_off,,5,0,5,,,,,,,1,,,,66,0
40125,note_off,,5,0,6,,,,,,,2,,,,66,0
40130,note_off,,5,0,6,,,,,,,2,,,,90,0
40130,note_off,,5,0,5,,,,,,,1,,,,90,0
40275,note_on,,145,0,5,,,,,,,1,,,,54,59
40275,note_on,,145,0,6,,,,,,,2,,,,54,59
40300,note_on,,25,0,5,,,,,,,1,,,,85,50
40300,note_on,,25,0,6,,,,,,,2,,,,85,50
40360,note_off,,60,0,5,,,,,,,1,,,,85,0
40360,note_off,,60,0,6,,,,,,,2,,,,85,0
40375,note_off,,15,0,5,,,,,,,1,,,,54,0
40375,note_off,,15,0,6,,,,,,,2,,,,54,0
40525,note_on,,150,0,6,,,,,,,2,,,,61,62
40525,note_on,,150,0,5,,,,,,,1,,,,61,62
40530,note_on,,5,0,6,,,,,,,2,,,,58,55
40530,note_on,,5,0,5,,,,,,,1,,,,58,55
40560,note_on,,30,0,5,,,,,,,1,,,,78,80
40560,note_on,,30,0,6,,,,,,,2,,,,78,80
40570,note_on,,10,0,5,,,,,,,1,,,,82,80
40570,note_on,,10,0,6,,,,,,,2,,,,82,80
40590,note_off,,20,0,5,,,,,,,1,,,,61,0
40590,note_off,,20,0,6,,,,,,,2,,,,61,0
40595,note_off,,5,0,5,,,,,,,1,,,,58,0
40595,note_off,,5,0,6,,,,,,,2,,,,58,0
40600,note_off,,5,0,6,,,,,,,2,,,,82,0
40600,note_off,,5,0,5,,,,,,,1,,,,82,0
40615,note_off,,15,0,6,,,,,,,2,,,,78,0
40615,note_off,,15,0,5,,,,,,,1,,,,78,0
40775,note_on,,160,0,6,,,,,,,2,,,,49,64
40775,note_on,,160,0,5,,,,,,,1,,,,49,64
40805,note_on,,0,0,5,,,,,,,1,,,,78,77
40805,note_on,,30,0,6,,,,,,,2,,,,73,78
40805,note_on,,0,0,6,,,,,,,2,,,,78,77
40805,note_on,,30,0,5,,,,,,,1,,,,73,78
40865,note_off,,60,0,6,,,,,,,2,,,,78,0
40865,note_off,,60,0,5,,,,,,,1,,,,78,0
40875,note_off,,10,0,6,,,,,,,2,,,,73,0
40875,note_off,,10,0,5,,,,,,,1,,,,73,0
40880,note_off,,5,0,6,,,,,,,2,,,,49,0
40880,note_off,,5,0,5,,,,,,,1,,,,49,0
41025,note_on,,145,0,5,,,,,,,1,,,,61,77
41025,note_on,,145,0,6,,,,,,,2,,,,61,77
41025,note_on,,0,0,5,,,,,,,1,,,,66,59
41025,note_on,,0,0,6,,,,,,,2,,,,66,59
41035,note_on,,10,0,6,,,,,,,2,,,,73,80
41035,note_on,,10,0,5,,,,,,,1,,,,73,80
41080,note_off,,45,0,6,,,,,,,2,,,,66,0
41080,note_off,,45,0,5,,,,,,,1,,,,66,0
41095,note_off,,15,0,6,,,,,,,2,,,,61,0
41095,note_off,,15,0,5,,,,,,,1,,,,61,0
41105,note_off,,10,0,6,,,,,,,2,,,,73,0
41105,note_off,,10,0,5,,,,,,,1,,,,73,0
41260,note_on,,155,0,6,,,,,,,2,,,,54,72
41260,note_on,,155,0,5,,,,,,,1,,,,54,72
41265,note_on,,5,0,5,,,,,,,1,,,,73,79
41265,note_on,,5,0,6,,,,,,,2,,,,73,79
41270,note_on,,5,0,6,,,,,,,2,,,,78,77
41270,note_on,,5,0,5,,,,,,,1,,,,78,77
41320,note_off,,50,0,5,,,,,,,1,,,,73,0
41320,note_off,,50,0,6,,,,,,,2,,,,73,0
41330,note_off,,10,0,6,,,,,,,2,,,,78,0
41330,note_off,,10,0,5,,,,,,,1,,,,78,0
41360,note_off,,30,0,6,,,,,,,2,,,,54,0
41360,note_off,,30,0,5,,,,,,,1,,,,54,0
41505,note_on,,0,0,6,,,,,,,2,,,,82,68
41505,note_on,,0,0,5,,,,,,,1,,,,82,68
41505,note_on,,145,0,5,,,,,,,1,,,,78,68
41505,note_on,,145,0,6,,,,,,,2,,,,78,68
41515,note_on,,0,0,5,,,,,,,1,,,,61,63
41515,note_on,,10,0,5,,,,,,,1,,,,58,57
41515,note_on,,10,0,6,,,,,,,2,,,,58,57
41515,note_on,,0,0,6,,,,,,,2,,,,61,63
41535,note_off,,20,0,5,,,,,,,1,,,,78,0
41535,note_off,,20,0,6,,,,,,,2,,,,78,0
41555,note_off,,20,0,5,,,,,,,1,,,,82,0
41555,note_off,,20,0,6,,,,,,,2,,,,82,0
41575,note_off,,20,0,6,,,,,,,2,,,,61,0
41575,note_off,,20,0,5,,,,,,,1,,,,61,0
41580,note_off,,5,0,6,,,,,,,2,,,,58,0
41580,note_off,,5,0,5,,,,,,,1,,,,58,0
41745,note_on,,165,0,5,,,,,,,1,,,,49,80
41745,note_on,,165,0,6,,,,,,,2,,,,49,80
41760,note_on,,15,0,5,,,,,,,1,,,,82,80
41760,note_on,,0,0,5,,,,,,,1,,,,85,65
41760,note_on,,0,0,5,,,,,,,1,,,,78,95
41760,note_on,,0,0,5,,,,,,,1,,,,73,95
41760,note_on,,0,0,6,,,,,,,2,,,,85,65
41760,note_on,,0,0,6,,,,,,,2,,,,73,95
41760,note_on,,0,0,6,,,,,,,2,,,,78,95
41760,note_on,,15,0,6,,,,,,,2,,,,82,80
41870,note_off,,110,0,5,,,,,,,1,,,,49,0
41870,note_off,,110,0,6,,,,,,,2,,,,49,0
41990,note_on,,120,0,5,,,,,,,1,,,,66,79
41990,note_on,,120,0,6,,,,,,,2,,,,66,79
41995,note_on,,5,0,5,,,,,,,1,,,,61,77
41995,note_on,,5,0,6,,,,,,,2,,,,61,77
42060,note_off,,65,0,6,,,,,,,2,,,,61,0
42060,note_off,,65,0,5,,,,,,,1,,,,61,0
42080,note_off,,20,0,6,,,,,,,2,,,,66,0
42080,note_off,,20,0,5,,,,,,,1,,,,66,0
42100,note_off,,20,0,5,,,,,,,1,,,,85,0
42100,note_off,,20,0,6,,,,,,,2,,,,85,0
42110,note_off,,10,0,5,,,,,,,1,,,,82,0
42110,note_off,,10,0,6,,,,,,,2,,,,82,0
42115,note_off,,0,0,6,,,,,,,2,,,,78,0
42115,note_off,,0,0,5,,,,,,,1,,,,78,0
42115,note_off,,5,0,5,,,,,,,1,,,,73,0
42115,note_off,,5,0,6,,,,,,,2,,,,73,0
42240,note_on,,0,0,5,,,,,,,1,,,,56,110
42240,note_on,,0,0,6,,,,,,,2,,,,56,110
42240,note_on,,125,0,5,,,,,,,1,,,,84,80
42240,note_on,,125,0,6,,,,,,,2,,,,84,80
42350,note_on,,110,0,6,,,,,,,2,,,,97,50
42350,note_on,,110,0,5,,,,,,,1,,,,97,50
42360,note_off,,10,0,5,,,,,,,1,,,,84,0
42360,note_off,,10,0,6,,,,,,,2,,,,84,0
42385,note_off,,25,0,6,,,,,,,2,,,,56,0
42385,note_off,,25,0,5,,,,,,,1,,,,56,0
42465,note_on,,0,0,5,,,,,,,1,,,,65,76
42465,note_on,,0,0,6,,,,,,,2,,,,65,76
42465,note_on,,80,0,6,,,,,,,2,,,,61,88
42465,note_on,,80,0,5,,,,,,,1,,,,61,88
42475,note_on,,0,0,6,,,,,,,2,,,,85,41
42475,note_off,,10,0,5,,,,,,,1,,,,97,0
42475,note_off,,10,0,6,,,,,,,2,,,,97,0
42475,note_on,,0,0,5,,,,,,,1,,,,85,41
42535,note_off,,60,0,5,,,,,,,1,,,,61,0
42535,note_off,,60,0,6,,,,,,,2,,,,61,0
42550,note_off,,15,0,6,,,,,,,2,,,,65,0
42550,note_off,,15,0,5,,,,,,,1,,,,65,0
42560,note_off,,10,0,6,,,,,,,2,,,,85,0
42560,note_off,,10,0,5,,,,,,,1,,,,85,0
42580,note_on,,20,0,5,,,,,,,1,,,,97,62
42580,note_on,,20,0,6,,,,,,,2,,,,97,62
42675,note_off,,95,0,6,,,,,,,2,,,,97,0
42675,note_off,,95,0,5,,,,,,,1,,,,97,0
42695,note_on,,20,0,6,,,,,,,2,,,,83,72
42695,note_on,,20,0,5,,,,,,,1,,,,83,72
42715,note_on,,20,0,6,,,,,,,2,,,,49,92
42715,note_on,,20,0,5,,,,,,,1,,,,49,92
42780,note_off,,65,0,5,,,,,,,1,,,,83,0
42780,note_off,,65,0,6,,,,,,,2,,,,83,0
42820,note_off,,40,0,6,,,,,,,2,,,,49,0
42820,note_on,,0,0,5,,,,,,,1,,,,97,61
42820,note_off,,40,0,5,,,,,,,1,,,,49,0
42820,note_on,,0,0,6,,,,,,,2,,,,97,61
42935,note_on,,0,0,6,,,,,,,2,,,,61,79
42935,note_off,,115,0,5,,,,,,,1,,,,97,0
42935,note_on,,0,0,6,,,,,,,2,,,,65,64
42935,note_off,,115,0,6,,,,,,,2,,,,97,0
42935,note_on,,0,0,5,,,,,,,1,,,,61,79
42935,note_on,,0,0,5,,,,,,,1,,,,65,64
42940,note_on,,5,0,6,,,,,,,2,,,,85,46
42940,note_on,,5,0,5,,,,,,,1,,,,85,46
42995,note_off,,55,0,5,,,,,,,1,,,,61,0
42995,note_off,,55,0,6,,,,,,,2,,,,61,0
43010,note_off,,15,0,5,,,,,,,1,,,,65,0
43010,note_off,,15,0,6,,,,,,,2,,,,65,0
43030,note_off,,20,0,6,,,,,,,2,,,,85,0
43030,note_off,,20,0,5,,,,,,,1,,,,85,0
43045,note_on,,15,0,6,,,,,,,2,,,,97,50
43045,note_on,,15,0,5,,,,,,,1,,,,97,50
43165,note_off,,120,0,6,,,,,,,2,,,,97,0
43165,note_on,,0,0,6,,,,,,,2,,,,84,76
43165,note_on,,0,0,5,,,,,,,1,,,,84,76
43165,note_off,,120,0,5,,,,,,,1,,,,97,0
43185,note_on,,20,0,6,,,,,,,2,,,,68,80
43185,note_on,,20,0,5,,,,,,,1,,,,68,80
43240,note_off,,55,0,5,,,,,,,1,,,,84,0
43240,note_off,,55,0,6,,,,,,,2,,,,84,0
43270,note_off,,30,0,6,,,,,,,2,,,,68,0
43270,note_off,,30,0,5,,,,,,,1,,,,68,0
43280,note_on,,10,0,5,,,,,,,1,,,,97,62
43280,note_on,,10,0,6,,,,,,,2,,,,97,62
43420,note_on,,140,0,5,,,,,,,1,,,,85,50
43420,note_on,,140,0,6,,,,,,,2,,,,85,50
43425,note_off,,5,0,6,,,,,,,2,,,,97,0
43425,note_off,,5,0,5,,,,,,,1,,,,97,0
43430,note_on,,5,0,6,,,,,,,2,,,,73,78
43430,note_on,,0,0,6,,,,,,,2,,,,77,76
43430,note_on,,5,0,5,,,,,,,1,,,,73,78
43430,note_on,,0,0,5,,,,,,,1,,,,77,76
43490,note_off,,60,0,6,,,,,,,2,,,,73,0
43490,note_off,,60,0,5,,,,,,,1,,,,73,0
43510,note_off,,20,0,5,,,,,,,1,,,,77,0
43510,note_off,,20,0,6,,,,,,,2,,,,77,0
43515,note_off,,5,0,5,,,,,,,1,,,,85,0
43515,note_off,,5,0,6,,,,,,,2,,,,85,0
43540,note_on,,25,0,5,,,,,,,1,,,,97,61
43540,note_on,,25,0,6,,,,,,,2,,,,97,61
43650,note_off,,110,0,6,,,,,,,2,,,,97,0
43650,note_off,,110,0,5,,,,,,,1,,,,97,0
43660,note_on,,10,0,6,,,,,,,2,,,,61,92
43660,note_on,,10,0,5,,,,,,,1,,,,61,92
43670,note_on,,10,0,6,,,,,,,2,,,,83,72
43670,note_on,,10,0,5,,,,,,,1,,,,83,72
43740,note_off,,70,0,5,,,,,,,1,,,,83,0
43740,note_off,,70,0,6,,,,,,,2,,,,83,0
43765,note_off,,25,0,5,,,,,,,1,,,,61,0
43765,note_off,,25,0,6,,,,,,,2,,,,61,0
43785,note_on,,20,0,6,,,,,,,2,,,,97,50
43785,note_on,,20,0,5,,,,,,,1,,,,97,50
43900,note_on,,0,0,5,,,,,,,1,,,,77,77
43900,note_on,,0,0,6,,,,,,,2,,,,77,77
43900,note_on,,115,0,6,,,,,,,2,,,,73,77
43900,note_on,,115,0,5,,,,,,,1,,,,73,77
43925,note_off,,25,0,5,,,,,,,1,,,,97,0
43925,note_on,,0,0,6,,,,,,,2,,,,85,50
43925,note_off,,25,0,6,,,,,,,2,,,,97,0
43925,note_on,,0,0,5,,,,,,,1,,,,85,50
43955,note_off,,30,0,5,,,,,,,1,,,,73,0
43955,note_off,,30,0,6,,,,,,,2,,,,73,0
43965,note_off,,10,0,5,,,,,,,1,,,,77,0
43965,note_off,,10,0,6,,,,,,,2,,,,77,0
44000,note_off,,35,0,6,,,,,,,2,,,,85,0
44000,note_off,,35,0,5,,,,,,,1,,,,85,0
44020,note_on,,20,0,6,,,,,,,2,,,,97,62
44020,note_on,,20,0,5,,,,,,,1,,,,97,62
44140,note_off,,120,0,6,,,,,,,2,,,,97,0
44140,note_off,,120,0,5,,,,,,,1,,,,97,0
44150,note_on,,10,0,6,,,,,,,2,,,,84,80
44150,note_on,,10,0,5,,,,,,,1,,,,84,80
44155,note_on,,5,0,5,,,,,,,1,,,,54,72
44155,note_on,,5,0,6,,,,,,,2,,,,54,72
44225,note_off,,70,0,5,,,,,,,1,,,,54,0
44225,note_off,,0,0,6,,,,,,,2,,,,84,0
44225,note_off,,0,0,5,,,,,,,1,,,,84,0
44225,note_off,,70,0,6,,,,,,,2,,,,54,0
44275,note_on,,50,0,5,,,,,,,1,,,,97,61
44275,note_on,,50,0,6,,,,,,,2,,,,97,61
44400,note_on,,125,0,6,,,,,,,2,,,,61,77
44400,note_on,,125,0,5,,,,,,,1,,,,61,77
44405,note_on,,0,0,6,,,,,,,2,,,,58,64
44405,note_on,,5,0,6,,,,,,,2,,,,66,72
44405,note_on,,5,0,5,,,,,,,1,,,,66,72
44405,note_on,,0,0,5,,,,,,,1,,,,58,64
44405,note_on,,0,0,5,,,,,,,1,,,,85,50
44405,note_on,,0,0,6,,,,,,,2,,,,85,50
44410,note_off,,5,0,5,,,,,,,1,,,,97,0
44410,note_off,,5,0,6,,,,,,,2,,,,97,0
44455,note_off,,45,0,6,,,,,,,2,,,,58,0
44455,note_off,,45,0,5,,,,,,,1,,,,58,0
44465,note_off,,10,0,6,,,,,,,2,,,,61,0
44465,note_off,,10,0,5,,,,,,,1,,,,61,0
44470,note_off,,5,0,6,,,,,,,2,,,,66,0
44470,note_off,,5,0,5,,,,,,,1,,,,66,0
44490,note_off,,20,0,5,,,,,,,1,,,,85,0
44490,note_off,,20,0,6,,,,,,,2,,,,85,0
44515,note_on,,25,0,6,,,,,,,2,,,,97,80
44515,note_on,,25,0,5,,,,,,,1,,,,97,80
44635,note_on,,120,0,5,,,,,,,1,,,,49,71
44635,note_on,,120,0,6,,,,,,,2,,,,49,71
44640,note_off,,5,0,6,,,,,,,2,,,,97,0
44640,note_off,,5,0,5,,,,,,,1,,,,97,0
44640,note_on,,0,0,5,,,,,,,1,,,,82,88
44640,note_on,,0,0,6,,,,,,,2,,,,82,88
44720,note_off,,80,0,6,,,,,,,2,,,,82,0
44720,note_off,,80,0,5,,,,,,,1,,,,82,0
44730,note_off,,10,0,6,,,,,,,2,,,,49,0
44730,note_off,,10,0,5,,,,,,,1,,,,49,0
44760,note_on,,30,0,5,,,,,,,1,,,,97,62
44760,note_on,,30,0,6,,,,,,,2,,,,97,62
44865,note_on,,105,0,6,,,,,,,2,,,,66,64
44865,note_on,,0,0,6,,,,,,,2,,,,58,80
44865,note_on,,0,0,5,,,,,,,1,,,,58,80
44865,note_on,,105,0,5,,,,,,,1,,,,66,64
44870,note_on,,5,0,6,,,,,,,2,,,,61,71
44870,note_on,,5,0,5,,,,,,,1,,,,61,71
44880,note_on,,10,0,5,,,,,,,1,,,,85,50
44880,note_on,,10,0,6,,,,,,,2,,,,85,50
44885,note_off,,5,0,5,,,,,,,1,,,,97,0
44885,note_off,,5,0,6,,,,,,,2,,,,97,0
44895,note_off,,10,0,6,,,,,,,2,,,,58,0
44895,note_off,,10,0,5,,,,,,,1,,,,58,0
44905,note_off,,10,0,5,,,,,,,1,,,,61,0
44905,note_off,,10,0,6,,,,,,,2,,,,61,0
44935,note_off,,30,0,5,,,,,,,1,,,,66,0
44935,note_off,,30,0,6,,,,,,,2,,,,66,0
44955,note_off,,20,0,5,,,,,,,1,,,,85,0
44955,note_off,,20,0,6,,,,,,,2,,,,85,0
44980,note_on,,25,0,5,,,,,,,1,,,,97,62
44980,note_on,,25,0,6,,,,,,,2,,,,97,62
45095,note_on,,115,0,5,,,,,,,1,,,,70,80
45095,note_on,,115,0,6,,,,,,,2,,,,70,80
45100,note_off,,5,0,5,,,,,,,1,,,,97,0
45100,note_off,,5,0,6,,,,,,,2,,,,97,0
45110,note_on,,10,0,6,,,,,,,2,,,,84,80
45110,note_on,,10,0,5,,,,,,,1,,,,84,80
45185,note_off,,75,0,5,,,,,,,1,,,,84,0
45185,note_off,,75,0,6,,,,,,,2,,,,84,0
45195,note_off,,10,0,6,,,,,,,2,,,,70,0
45195,note_off,,10,0,5,,,,,,,1,,,,70,0
45230,note_on,,35,0,6,,,,,,,2,,,,97,61
45230,note_on,,35,0,5,,,,,,,1,,,,97,61
45350,note_on,,120,0,6,,,,,,,2,,,,73,77
45350,note_on,,120,0,5,,,,,,,1,,,,73,77
45350,note_on,,0,0,5,,,,,,,1,,,,78,77
45350,note_on,,0,0,6,,,,,,,2,,,,78,77
45355,note_on,,0,0,5,,,,,,,1,,,,85,58
45355,note_off,,5,0,6,,,,,,,2,,,,97,0
45355,note_on,,0,0,6,,,,,,,2,,,,85,58
45355,note_off,,5,0,5,,,,,,,1,,,,97,0
45410,note_off,,55,0,6,,,,,,,2,,,,73,0
45410,note_off,,0,0,5,,,,,,,1,,,,78,0
45410,note_off,,0,0,6,,,,,,,2,,,,78,0
45410,note_off,,55,0,5,,,,,,,1,,,,73,0
45435,note_off,,25,0,6,,,,,,,2,,,,85,0
45435,note_off,,25,0,5,,,,,,,1,,,,85,0
45465,note_on,,30,0,6,,,,,,,2,,,,97,61
45465,note_on,,30,0,5,,,,,,,1,,,,97,61
45590,note_off,,125,0,6,,,,,,,2,,,,97,0
45590,note_on,,0,0,5,,,,,,,1,,,,66,80
45590,note_on,,0,0,6,,,,,,,2,,,,66,80
45590,note_off,,125,0,5,,,,,,,1,,,,97,0
45595,note_on,,5,0,6,,,,,,,2,,,,82,84
45595,note_on,,5,0,5,,,,,,,1,,,,82,84
45665,note_off,,70,0,6,,,,,,,2,,,,82,0
45665,note_off,,70,0,5,,,,,,,1,,,,82,0
45690,note_off,,25,0,5,,,,,,,1,,,,66,0
45690,note_off,,25,0,6,,,,,,,2,,,,66,0
45710,note_on,,20,0,6,,,,,,,2,,,,97,62
45710,note_on,,20,0,5,,,,,,,1,,,,97,62
45825,note_on,,115,0,5,,,,,,,1,,,,78,78
45825,note_on,,115,0,6,,,,,,,2,,,,78,78
45825,note_on,,0,0,6,,,,,,,2,,,,73,77
45825,note_on,,0,0,5,,,,,,,1,,,,73,77
45830,note_off,,5,0,5,,,,,,,1,,,,97,0
45830,note_off,,5,0,6,,,,,,,2,,,,97,0
45830,note_on,,0,0,6,,,,,,,2,,,,85,46
45830,note_on,,0,0,5,,,,,,,1,,,,85,46
45880,note_off,,0,0,6,,,,,,,2,,,,73,0
45880,note_off,,0,0,5,,,,,,,1,,,,73,0
45880,note_off,,50,0,6,,,,,,,2,,,,78,0
45880,note_off,,50,0,5,,,,,,,1,,,,78,0
45910,note_off,,30,0,6,,,,,,,2,,,,85,0
45910,note_off,,30,0,5,,,,,,,1,,,,85,0
45935,note_on,,25,0,6,,,,,,,2,,,,97,61
45935,note_on,,25,0,5,,,,,,,1,,,,97,61
46050,note_off,,115,0,6,,,,,,,2,,,,97,0
46050,note_off,,115,0,5,,,,,,,1,,,,97,0
46060,note_on,,10,0,6,,,,,,,2,,,,84,80
46060,note_on,,10,0,5,,,,,,,1,,,,84,80
46065,note_on,,5,0,5,,,,,,,1,,,,56,72
46065,note_on,,5,0,6,,,,,,,2,,,,56,72
46135,note_off,,70,0,6,,,,,,,2,,,,84,0
46135,note_off,,70,0,5,,,,,,,1,,,,84,0
46145,note_off,,10,0,5,,,,,,,1,,,,56,0
46145,note_off,,10,0,6,,,,,,,2,,,,56,0
46180,note_on,,35,0,6,,,,,,,2,,,,97,61
46180,note_on,,35,0,5,,,,,,,1,,,,97,61
46295,note_off,,115,0,5,,,,,,,1,,,,97,0
46295,note_off,,115,0,6,,,,,,,2,,,,97,0
46295,note_on,,0,0,5,,,,,,,1,,,,85,50
46295,note_on,,0,0,6,,,,,,,2,,,,85,50
46305,note_on,,0,0,5,,,,,,,1,,,,65,77
46305,note_on,,10,0,5,,,,,,,1,,,,61,69
46305,note_on,,10,0,6,,,,,,,2,,,,61,69
46305,note_on,,0,0,6,,,,,,,2,,,,65,77
46370,note_off,,65,0,5,,,,,,,1,,,,85,0
46370,note_off,,65,0,6,,,,,,,2,,,,85,0
46375,note_off,,5,0,6,,,,,,,2,,,,61,0
46375,note_off,,5,0,5,,,,,,,1,,,,61,0
46385,note_off,,10,0,5,,,,,,,1,,,,65,0
46385,note_off,,10,0,6,,,,,,,2,,,,65,0
46400,note_on,,15,0,6,,,,,,,2,,,,97,61
46400,note_on,,15,0,5,,,,,,,1,,,,97,61
46490,note_off,,90,0,5,,,,,,,1,,,,97,0
46490,note_off,,90,0,6,,,,,,,2,,,,97,0
46525,note_on,,0,0,5,,,,,,,1,,,,49,80
46525,note_on,,35,0,6,,,,,,,2,,,,83,62
46525,note_on,,0,0,6,,,,,,,2,,,,89,77
46525,note_on,,0,0,6,,,,,,,2,,,,49,80
46525,note_on,,0,0,5,,,,,,,1,,,,89,77
46525,note_on,,35,0,5,,,,,,,1,,,,83,62
46590,note_off,,65,0,6,,,,,,,2,,,,83,0
46590,note_off,,65,0,5,,,,,,,1,,,,83,0
46605,note_off,,15,0,5,,,,,,,1,,,,49,0
46605,note_off,,15,0,6,,,,,,,2,,,,49,0
46650,note_off,,45,0,5,,,,,,,1,,,,89,0
46650,note_off,,45,0,6,,,,,,,2,,,,89,0
46660,note_on,,10,0,6,,,,,,,2,,,,97,61
46660,note_on,,10,0,5,,,,,,,1,,,,97,61
46755,note_on,,95,0,6,,,,,,,2,,,,61,78
46755,note_on,,0,0,5,,,,,,,1,,,,65,77
46755,note_on,,95,0,5,,,,,,,1,,,,61,78
46755,note_on,,0,0,6,,,,,,,2,,,,65,77
46790,note_off,,35,0,5,,,,,,,1,,,,97,0
46790,note_off,,35,0,6,,,,,,,2,,,,97,0
46795,note_on,,5,0,6,,,,,,,2,,,,85,46
46795,note_on,,5,0,5,,,,,,,1,,,,85,46
46810,note_off,,15,0,5,,,,,,,1,,,,61,0
46810,note_off,,15,0,6,,,,,,,2,,,,61,0
46835,note_off,,25,0,6,,,,,,,2,,,,65,0
46835,note_off,,25,0,5,,,,,,,1,,,,65,0
46865,note_off,,30,0,6,,,,,,,2,,,,85,0
46865,note_off,,30,0,5,,,,,,,1,,,,85,0
46895,note_on,,30,0,6,,,,,,,2,,,,97,61
46895,note_on,,30,0,5,,,,,,,1,,,,97,61
47015,note_on,,120,0,6,,,,,,,2,,,,68,80
47015,note_on,,120,0,5,,,,,,,1,,,,68,80
47020,note_off,,5,0,5,,,,,,,1,,,,97,0
47020,note_off,,5,0,6,,,,,,,2,,,,97,0
47025,note_on,,5,0,6,,,,,,,2,,,,84,88
47025,note_on,,5,0,5,,,,,,,1,,,,84,88
47100,note_off,,75,0,5,,,,,,,1,,,,84,0
47100,note_off,,75,0,6,,,,,,,2,,,,84,0
47130,note_off,,30,0,5,,,,,,,1,,,,68,0
47130,note_off,,30,0,6,,,,,,,2,,,,68,0
47145,note_on,,15,0,5,,,,,,,1,,,,97,50
47145,note_on,,15,0,6,,,,,,,2,,,,97,50
47260,note_off,,115,0,5,,,,,,,1,,,,97,0
47260,note_off,,115,0,6,,,,,,,2,,,,97,0
47265,note_on,,0,0,6,,,,,,,2,,,,77,76
47265,note_on,,5,0,6,,,,,,,2,,,,73,78
47265,note_on,,0,0,5,,,,,,,1,,,,77,76
47265,note_on,,5,0,5,,,,,,,1,,,,73,78
47270,note_on,,5,0,6,,,,,,,2,,,,85,61
47270,note_on,,5,0,5,,,,,,,1,,,,85,61
47320,note_off,,50,0,6,,,,,,,2,,,,73,0
47320,note_off,,50,0,5,,,,,,,1,,,,73,0
47335,note_off,,15,0,6,,,,,,,2,,,,77,0
47335,note_off,,15,0,5,,,,,,,1,,,,77,0
47350,note_off,,15,0,6,,,,,,,2,,,,85,0
47350,note_off,,15,0,5,,,,,,,1,,,,85,0
47370,note_on,,20,0,5,,,,,,,1,,,,97,62
47370,note_on,,20,0,6,,,,,,,2,,,,97,62
47485,note_off,,115,0,6,,,,,,,2,,,,97,0
47485,note_off,,115,0,5,,,,,,,1,,,,97,0
47505,note_on,,20,0,5,,,,,,,1,,,,89,68
47505,note_on,,0,0,6,,,,,,,2,,,,61,72
47505,note_on,,20,0,6,,,,,,,2,,,,89,68
47505,note_on,,0,0,5,,,,,,,1,,,,61,72
47510,note_on,,5,0,5,,,,,,,1,,,,83,77
47510,note_on,,5,0,6,,,,,,,2,,,,83,77
47575,note_off,,65,0,6,,,,,,,2,,,,83,0
47575,note_off,,0,0,6,,,,,,,2,,,,61,0
47575,note_off,,0,0,5,,,,,,,1,,,,61,0
47575,note_off,,65,0,5,,,,,,,1,,,,83,0
47620,note_off,,45,0,6,,,,,,,2,,,,89,0
47620,note_off,,45,0,5,,,,,,,1,,,,89,0
47640,note_on,,20,0,6,,,,,,,2,,,,97,80
47640,note_on,,20,0,5,,,,,,,1,,,,97,80
47745,note_on,,105,0,6,,,,,,,2,,,,73,78
47745,note_on,,105,0,5,,,,,,,1,,,,73,78
47750,note_off,,5,0,5,,,,,,,1,,,,97,0
47750,note_on,,0,0,6,,,,,,,2,,,,77,76
47750,note_off,,5,0,6,,,,,,,2,,,,97,0
47750,note_on,,0,0,5,,,,,,,1,,,,77,76
47755,note_on,,5,0,5,,,,,,,1,,,,85,46
47755,note_on,,5,0,6,,,,,,,2,,,,85,46
47800,note_off,,45,0,6,,,,,,,2,,,,73,0
47800,note_off,,45,0,5,,,,,,,1,,,,73,0
47805,note_off,,5,0,6,,,,,,,2,,,,77,0
47805,note_off,,5,0,5,,,,,,,1,,,,77,0
47835,note_off,,30,0,6,,,,,,,2,,,,85,0
47835,note_off,,30,0,5,,,,,,,1,,,,85,0
47865,note_on,,30,0,6,,,,,,,2,,,,97,80
47865,note_on,,30,0,5,,,,,,,1,,,,97,80
47975,note_on,,110,0,6,,,,,,,2,,,,54,80
47975,note_on,,110,0,5,,,,,,,1,,,,54,80
47980,note_off,,5,0,6,,,,,,,2,,,,97,0
47980,note_off,,5,0,5,,,,,,,1,,,,97,0
48000,note_on,,20,0,5,,,,,,,1,,,,82,92
48000,note_on,,20,0,6,,,,,,,2,,,,82,92
48030,note_off,,30,0,5,,,,,,,1,,,,54,0
48030,note_off,,30,0,6,,,,,,,2,,,,54,0
48075,note_off,,45,0,5,,,,,,,1,,,,82,0
48075,note_off,,45,0,6,,,,,,,2,,,,82,0
48110,note_on,,35,0,5,,,,,,,1,,,,97,60
48110,note_on,,35,0,6,,,,,,,2,,,,97,60
48215,note_on,,105,0,5,,,,,,,1,,,,61,76
48215,note_on,,0,0,5,,,,,,,1,,,,58,76
48215,note_on,,105,0,6,,,,,,,2,,,,61,76
48215,note_on,,0,0,6,,,,,,,2,,,,58,76
48220,note_on,,5,0,6,,,,,,,2,,,,66,72
48220,note_on,,5,0,5,,,,,,,1,,,,66,72
48230,note_on,,10,0,5,,,,,,,1,,,,85,50
48230,note_on,,10,0,6,,,,,,,2,,,,85,50
48235,note_off,,5,0,6,,,,,,,2,,,,97,0
48235,note_off,,5,0,5,,,,,,,1,,,,97,0
48275,note_off,,40,0,6,,,,,,,2,,,,58,0
48275,note_off,,0,0,6,,,,,,,2,,,,66,0
48275,note_off,,40,0,5,,,,,,,1,,,,58,0
48275,note_off,,0,0,5,,,,,,,1,,,,66,0
48280,note_off,,5,0,6,,,,,,,2,,,,61,0
48280,note_off,,5,0,5,,,,,,,1,,,,61,0
48315,note_off,,35,0,6,,,,,,,2,,,,85,0
48315,note_off,,35,0,5,,,,,,,1,,,,85,0
48345,note_on,,30,0,5,,,,,,,1,,,,97,61
48345,note_on,,30,0,6,,,,,,,2,,,,97,61
48460,note_on,,0,0,6,,,,,,,2,,,,49,80
48460,note_off,,115,0,6,,,,,,,2,,,,97,0
48460,note_on,,0,0,5,,,,,,,1,,,,49,80
48460,note_off,,115,0,5,,,,,,,1,,,,97,0
48480,note_on,,20,0,6,,,,,,,2,,,,82,92
48480,note_on,,20,0,5,,,,,,,1,,,,82,92
48485,note_on,,5,0,5,,,,,,,1,,,,90,80
48485,note_on,,5,0,6,,,,,,,2,,,,90,80
48525,note_off,,40,0,5,,,,,,,1,,,,49,0
48525,note_off,,40,0,6,,,,,,,2,,,,49,0
48535,note_off,,10,0,5,,,,,,,1,,,,82,0
48535,note_off,,10,0,6,,,,,,,2,,,,82,0
48590,note_on,,0,0,6,,,,,,,2,,,,97,62
48590,note_off,,55,0,5,,,,,,,1,,,,90,0
48590,note_off,,55,0,6,,,,,,,2,,,,90,0
48590,note_on,,0,0,5,,,,,,,1,,,,97,62
48690,note_on,,100,0,6,,,,,,,2,,,,66,88
48690,note_on,,0,0,6,,,,,,,2,,,,58,80
48690,note_on,,0,0,5,,,,,,,1,,,,58,80
48690,note_on,,100,0,5,,,,,,,1,,,,66,88
48695,note_on,,5,0,6,,,,,,,2,,,,61,80
48695,note_on,,5,0,5,,,,,,,1,,,,61,80
48700,note_off,,5,0,5,,,,,,,1,,,,97,0
48700,note_on,,0,0,6,,,,,,,2,,,,85,74
48700,note_off,,5,0,6,,,,,,,2,,,,97,0
48700,note_on,,0,0,5,,,,,,,1,,,,85,74
48715,note_off,,15,0,6,,,,,,,2,,,,58,0
48715,note_off,,15,0,5,,,,,,,1,,,,58,0
48750,note_off,,35,0,5,,,,,,,1,,,,61,0
48750,note_off,,35,0,6,,,,,,,2,,,,61,0
48765,note_off,,15,0,5,,,,,,,1,,,,66,0
48765,note_off,,15,0,6,,,,,,,2,,,,66,0
48785,note_off,,20,0,5,,,,,,,1,,,,85,0
48785,note_off,,20,0,6,,,,,,,2,,,,85,0
48820,note_on,,35,0,6,,,,,,,2,,,,97,61
48820,note_on,,35,0,5,,,,,,,1,,,,97,61
48925,note_on,,105,0,6,,,,,,,2,,,,66,80
48925,note_on,,105,0,5,,,,,,,1,,,,66,80
48945,note_on,,0,0,6,,,,,,,2,,,,82,104
48945,note_off,,20,0,6,,,,,,,2,,,,97,0
48945,note_off,,20,0,5,,,,,,,1,,,,97,0
48945,note_on,,0,0,5,,,,,,,1,,,,82,104
49020,note_off,,0,0,6,,,,,,,2,,,,82,0
49020,note_off,,75,0,5,,,,,,,1,,,,66,0
49020,note_off,,0,0,5,,,,,,,1,,,,82,0
49020,note_off,,75,0,6,,,,,,,2,,,,66,0
49060,note_on,,40,0,6,,,,,,,2,,,,97,61
49060,note_on,,40,0,5,,,,,,,1,,,,97,61
49180,note_off,,120,0,6,,,,,,,2,,,,97,0
49180,note_on,,0,0,5,,,,,,,1,,,,85,61
49180,note_on,,0,0,6,,,,,,,2,,,,85,61
49180,note_off,,120,0,5,,,,,,,1,,,,97,0
49190,note_on,,10,0,5,,,,,,,1,,,,78,84
49190,note_on,,10,0,6,,,,,,,2,,,,78,84
49190,note_on,,0,0,6,,,,,,,2,,,,70,84
49190,note_on,,0,0,5,,,,,,,1,,,,70,84
49190,note_on,,0,0,5,,,,,,,1,,,,73,69
49190,note_on,,0,0,6,,,,,,,2,,,,73,69
49235,note_off,,45,0,6,,,,,,,2,,,,73,0
49235,note_off,,45,0,5,,,,,,,1,,,,73,0
49240,note_off,,5,0,5,,,,,,,1,,,,70,0
49240,note_off,,5,0,6,,,,,,,2,,,,70,0
49260,note_off,,0,0,5,,,,,,,1,,,,85,0
49260,note_off,,20,0,5,,,,,,,1,,,,78,0
49260,note_off,,20,0,6,,,,,,,2,,,,78,0
49260,note_off,,0,0,6,,,,,,,2,,,,85,0
49290,note_on,,30,0,5,,,,,,,1,,,,97,61
49290,note_on,,30,0,6,,,,,,,2,,,,97,61
49400,note_off,,110,0,6,,,,,,,2,,,,97,0
49400,note_off,,110,0,5,,,,,,,1,,,,97,0
49420,note_on,,20,0,5,,,,,,,1,,,,82,79
49420,note_on,,20,0,6,,,,,,,2,,,,82,79
49425,note_on,,5,0,6,,,,,,,2,,,,90,78
49425,note_on,,5,0,5,,,,,,,1,,,,90,78
49430,note_on,,5,0,6,,,,,,,2,,,,61,92
49430,note_on,,5,0,5,,,,,,,1,,,,61,92
49475,note_off,,45,0,5,,,,,,,1,,,,82,0
49475,note_off,,45,0,6,,,,,,,2,,,,82,0
49505,note_off,,30,0,6,,,,,,,2,,,,61,0
49505,note_off,,30,0,5,,,,,,,1,,,,61,0
49530,note_off,,25,0,6,,,,,,,2,,,,90,0
49530,note_off,,25,0,5,,,,,,,1,,,,90,0
49535,note_on,,5,0,5,,,,,,,1,,,,97,80
49535,note_on,,5,0,6,,,,,,,2,,,,97,80
49655,note_on,,120,0,6,,,,,,,2,,,,85,50
49655,note_on,,120,0,5,,,,,,,1,,,,85,50
49665,note_off,,10,0,6,,,,,,,2,,,,97,0
49665,note_on,,0,0,6,,,,,,,2,,,,73,72
49665,note_on,,0,0,6,,,,,,,2,,,,78,84
49665,note_on,,0,0,5,,,,,,,1,,,,78,84
49665,note_on,,0,0,5,,,,,,,1,,,,73,72
49665,note_on,,0,0,6,,,,,,,2,,,,70,72
49665,note_on,,0,0,5,,,,,,,1,,,,70,72
49665,note_off,,10,0,5,,,,,,,1,,,,97,0
49700,note_off,,35,0,6,,,,,,,2,,,,73,0
49700,note_off,,35,0,5,,,,,,,1,,,,73,0
49705,note_off,,5,0,6,,,,,,,2,,,,78,0
49705,note_off,,5,0,5,,,,,,,1,,,,78,0
49710,note_off,,5,0,5,,,,,,,1,,,,70,0
49710,note_off,,5,0,6,,,,,,,2,,,,70,0
49745,note_off,,35,0,5,,,,,,,1,,,,85,0
49745,note_off,,35,0,6,,,,,,,2,,,,85,0
49775,note_on,,30,0,5,,,,,,,1,,,,97,80
49775,note_on,,30,0,6,,,,,,,2,,,,97,80
49870,note_off,,95,0,6,,,,,,,2,,,,97,0
49870,note_off,,95,0,5,,,,,,,1,,,,97,0
49890,note_on,,20,0,5,,,,,,,1,,,,66,72
49890,note_on,,20,0,6,,,,,,,2,,,,66,72
49900,note_on,,10,0,5,,,,,,,1,,,,87,92
49900,note_on,,10,0,6,,,,,,,2,,,,87,92
49955,note_off,,55,0,5,,,,,,,1,,,,66,0
49955,note_off,,55,0,6,,,,,,,2,,,,66,0
49975,note_off,,20,0,6,,,,,,,2,,,,87,0
49975,note_off,,20,0,5,,,,,,,1,,,,87,0
50010,note_on,,35,0,5,,,,,,,1,,,,97,61
50010,note_on,,35,0,6,,,,,,,2,,,,97,61
50120,note_off,,110,0,6,,,,,,,2,,,,97,0
50120,note_off,,110,0,5,,,,,,,1,,,,97,0
50140,note_on,,20,0,5,,,,,,,1,,,,83,59
50140,note_on,,20,0,6,,,,,,,2,,,,83,59
50160,note_on,,0,0,5,,,,,,,1,,,,71,55
50160,note_on,,20,0,5,,,,,,,1,,,,75,79
50160,note_on,,0,0,6,,,,,,,2,,,,71,55
50160,note_on,,20,0,6,,,,,,,2,,,,75,79
50195,note_off,,35,0,5,,,,,,,1,,,,83,0
50195,note_off,,35,0,6,,,,,,,2,,,,83,0
50215,note_off,,20,0,5,,,,,,,1,,,,75,0
50215,note_off,,20,0,6,,,,,,,2,,,,75,0
50220,note_off,,5,0,6,,,,,,,2,,,,71,0
50220,note_off,,5,0,5,,,,,,,1,,,,71,0
50245,note_on,,25,0,6,,,,,,,2,,,,97,61
50245,note_on,,25,0,5,,,,,,,1,,,,97,61
50345,note_off,,100,0,5,,,,,,,1,,,,97,0
50345,note_off,,100,0,6,,,,,,,2,,,,97,0
50370,note_on,,25,0,5,,,,,,,1,,,,82,91
50370,note_on,,25,0,6,,,,,,,2,,,,82,91
50395,note_on,,25,0,6,,,,,,,2,,,,61,59
50395,note_on,,25,0,5,,,,,,,1,,,,61,59
50435,note_off,,40,0,5,,,,,,,1,,,,82,0
50435,note_off,,40,0,6,,,,,,,2,,,,82,0
50460,note_off,,25,0,6,,,,,,,2,,,,61,0
50460,note_off,,25,0,5,,,,,,,1,,,,61,0
50475,note_on,,15,0,6,,,,,,,2,,,,97,61
50475,note_on,,15,0,5,,,,,,,1,,,,97,61
50585,note_off,,110,0,5,,,,,,,1,,,,97,0
50585,note_off,,110,0,6,,,,,,,2,,,,97,0
50615,note_on,,30,0,5,,,,,,,1,,,,83,71
50615,note_on,,30,0,6,,,,,,,2,,,,83,71
50620,note_on,,0,0,5,,,,,,,1,,,,75,68
50620,note_on,,5,0,6,,,,,,,2,,,,78,69
50620,note_on,,5,0,5,,,,,,,1,,,,78,69
50620,note_on,,0,0,6,,,,,,,2,,,,75,68
50675,note_off,,55,0,6,,,,,,,2,,,,75,0
50675,note_off,,55,0,5,,,,,,,1,,,,75,0
50680,note_off,,5,0,6,,,,,,,2,,,,78,0
50680,note_off,,5,0,5,,,,,,,1,,,,78,0
50685,note_off,,5,0,5,,,,,,,1,,,,83,0
50685,note_off,,5,0,6,,,,,,,2,,,,83,0
50730,note_on,,45,0,6,,,,,,,2,,,,97,61
50730,note_on,,45,0,5,,,,,,,1,,,,97,61
50825,note_off,,95,0,6,,,,,,,2,,,,97,0
50825,note_off,,95,0,5,,,,,,,1,,,,97,0
50860,note_on,,35,0,6,,,,,,,2,,,,66,72
50860,note_on,,35,0,5,,,,,,,1,,,,66,72
50905,note_on,,45,0,5,,,,,,,1,,,,87,15
50905,note_on,,45,0,6,,,,,,,2,,,,87,15
50915,note_off,,10,0,6,,,,,,,2,,,,87,0
50915,note_off,,10,0,5,,,,,,,1,,,,87,0
50920,note_off,,5,0,6,,,,,,,2,,,,66,0
50920,note_off,,5,0,5,,,,,,,1,,,,66,0
50990,note_on,,70,0,5,,,,,,,1,,,,97,80
50990,note_on,,70,0,6,,,,,,,2,,,,97,80
51090,note_off,,100,0,5,,,,,,,1,,,,97,0
51090,note_off,,100,0,6,,,,,,,2,,,,97,0
51110,note_on,,0,0,6,,,,,,,2,,,,75,79
51110,note_on,,0,0,5,,,,,,,1,,,,75,79
51110,note_on,,20,0,5,,,,,,,1,,,,78,68
51110,note_on,,20,0,6,,,,,,,2,,,,78,68
51115,note_on,,5,0,5,,,,,,,1,,,,83,53
51115,note_on,,5,0,6,,,,,,,2,,,,83,53
51165,note_off,,50,0,6,,,,,,,2,,,,83,0
51165,note_off,,50,0,5,,,,,,,1,,,,83,0
51170,note_off,,0,0,6,,,,,,,2,,,,78,0
51170,note_off,,5,0,6,,,,,,,2,,,,75,0
51170,note_off,,5,0,5,,,,,,,1,,,,75,0
51170,note_off,,0,0,5,,,,,,,1,,,,78,0
51200,note_on,,30,0,5,,,,,,,1,,,,97,62
51200,note_on,,30,0,6,,,,,,,2,,,,97,62
51320,note_on,,120,0,5,,,,,,,1,,,,90,72
51320,note_on,,120,0,6,,,,,,,2,,,,90,72
51325,note_off,,5,0,5,,,,,,,1,,,,97,0
51325,note_off,,5,0,6,,,,,,,2,,,,97,0
51365,note_on,,40,0,5,,,,,,,1,,,,71,71
51365,note_on,,40,0,6,,,,,,,2,,,,71,71
51400,note_off,,35,0,6,,,,,,,2,,,,90,0
51400,note_off,,35,0,5,,,,,,,1,,,,90,0
51430,note_off,,30,0,6,,,,,,,2,,,,71,0
51430,note_off,,30,0,5,,,,,,,1,,,,71,0
51435,note_on,,5,0,6,,,,,,,2,,,,97,50
51435,note_on,,5,0,5,,,,,,,1,,,,97,50
51565,note_on,,130,0,5,,,,,,,1,,,,87,80
51565,note_on,,130,0,6,,,,,,,2,,,,87,80
51580,note_off,,15,0,5,,,,,,,1,,,,97,0
51580,note_off,,15,0,6,,,,,,,2,,,,97,0
51585,note_on,,0,0,6,,,,,,,2,,,,75,76
51585,note_on,,0,0,5,,,,,,,1,,,,75,76
51585,note_on,,5,0,6,,,,,,,2,,,,78,78
51585,note_on,,5,0,5,,,,,,,1,,,,78,78
51630,note_off,,45,0,5,,,,,,,1,,,,78,0
51630,note_off,,45,0,6,,,,,,,2,,,,78,0
51650,note_off,,20,0,6,,,,,,,2,,,,75,0
51650,note_off,,20,0,5,,,,,,,1,,,,75,0
51660,note_off,,10,0,5,,,,,,,1,,,,87,0
51660,note_off,,10,0,6,,,,,,,2,,,,87,0
51700,note_on,,40,0,6,,,,,,,2,,,,97,62
51700,note_on,,40,0,5,,,,,,,1,,,,97,62
51810,note_on,,110,0,5,,,,,,,1,,,,66,80
51810,note_on,,110,0,6,,,,,,,2,,,,66,80
51840,note_on,,30,0,5,,,,,,,1,,,,85,58
51840,note_on,,30,0,6,,,,,,,2,,,,85,58
51845,note_off,,5,0,5,,,,,,,1,,,,97,0
51845,note_off,,5,0,6,,,,,,,2,,,,97,0
51885,note_off,,40,0,6,,,,,,,2,,,,66,0
51885,note_off,,40,0,5,,,,,,,1,,,,66,0
51925,note_off,,40,0,6,,,,,,,2,,,,85,0
51925,note_off,,40,0,5,,,,,,,1,,,,85,0
51960,note_on,,35,0,6,,,,,,,2,,,,97,61
51960,note_on,,35,0,5,,,,,,,1,,,,97,61
52065,note_on,,105,0,6,,,,,,,2,,,,70,68
52065,note_on,,0,0,6,,,,,,,2,,,,73,80
52065,note_on,,105,0,5,,,,,,,1,,,,70,68
52065,note_on,,0,0,5,,,,,,,1,,,,73,80
52070,note_off,,5,0,5,,,,,,,1,,,,97,0
52070,note_off,,5,0,6,,,,,,,2,,,,97,0
52075,note_on,,5,0,5,,,,,,,1,,,,82,76
52075,note_on,,5,0,6,,,,,,,2,,,,82,76
52120,note_off,,0,0,5,,,,,,,1,,,,73,0
52120,note_off,,0,0,6,,,,,,,2,,,,73,0
52120,note_off,,45,0,5,,,,,,,1,,,,70,0
52120,note_off,,45,0,6,,,,,,,2,,,,70,0
52160,note_off,,40,0,5,,,,,,,1,,,,82,0
52160,note_off,,40,0,6,,,,,,,2,,,,82,0
52180,note_on,,20,0,6,,,,,,,2,,,,97,80
52180,note_on,,20,0,5,,,,,,,1,,,,97,80
52280,note_off,,100,0,5,,,,,,,1,,,,97,0
52280,note_off,,100,0,6,,,,,,,2,,,,97,0
52295,note_on,,15,0,6,,,,,,,2,,,,61,80
52295,note_on,,15,0,5,,,,,,,1,,,,61,80
52320,note_on,,25,0,6,,,,,,,2,,,,81,64
52320,note_on,,25,0,5,,,,,,,1,,,,81,64
52380,note_off,,60,0,5,,,,,,,1,,,,81,0
52380,note_off,,60,0,6,,,,,,,2,,,,81,0
52385,note_off,,5,0,5,,,,,,,1,,,,61,0
52385,note_off,,5,0,6,,,,,,,2,,,,61,0
52445,note_on,,60,0,6,,,,,,,2,,,,97,80
52445,note_on,,60,0,5,,,,,,,1,,,,97,80
52535,note_off,,90,0,5,,,,,,,1,,,,97,0
52535,note_off,,90,0,6,,,,,,,2,,,,97,0
52545,note_on,,0,0,5,,,,,,,1,,,,73,78
52545,note_on,,0,0,6,,,,,,,2,,,,73,78
52545,note_on,,10,0,5,,,,,,,1,,,,82,80
52545,note_on,,10,0,6,,,,,,,2,,,,82,80
52550,note_on,,5,0,5,,,,,,,1,,,,78,68
52550,note_on,,5,0,6,,,,,,,2,,,,78,68
52590,note_off,,0,0,5,,,,,,,1,,,,73,0
52590,note_off,,40,0,5,,,,,,,1,,,,78,0
52590,note_off,,0,0,6,,,,,,,2,,,,73,0
52590,note_off,,40,0,6,,,,,,,2,,,,78,0
52615,note_off,,25,0,5,,,,,,,1,,,,82,0
52615,note_off,,25,0,6,,,,,,,2,,,,82,0
52670,note_on,,55,0,5,,,,,,,1,,,,97,61
52670,note_on,,55,0,6,,,,,,,2,,,,97,61
52775,note_on,,105,0,6,,,,,,,2,,,,66,80
52775,note_on,,105,0,5,,,,,,,1,,,,66,80
52795,note_on,,20,0,5,,,,,,,1,,,,85,41
52795,note_on,,20,0,6,,,,,,,2,,,,85,41
52805,note_off,,10,0,5,,,,,,,1,,,,97,0
52805,note_off,,10,0,6,,,,,,,2,,,,97,0
52860,note_off,,55,0,5,,,,,,,1,,,,66,0
52860,note_off,,55,0,6,,,,,,,2,,,,66,0
52895,note_off,,35,0,6,,,,,,,2,,,,85,0
52895,note_off,,35,0,5,,,,,,,1,,,,85,0
52920,note_on,,25,0,5,,,,,,,1,,,,97,61
52920,note_on,,25,0,6,,,,,,,2,,,,97,61
53020,note_on,,0,0,6,,,,,,,2,,,,78,64
53020,note_on,,100,0,5,,,,,,,1,,,,73,78
53020,note_on,,100,0,6,,,,,,,2,,,,73,78
53020,note_on,,0,0,5,,,,,,,1,,,,78,64
53035,note_on,,15,0,5,,,,,,,1,,,,82,80
53035,note_on,,15,0,6,,,,,,,2,,,,82,80
53040,note_off,,5,0,6,,,,,,,2,,,,97,0
53040,note_off,,5,0,5,,,,,,,1,,,,97,0
53065,note_off,,25,0,5,,,,,,,1,,,,78,0
53065,note_off,,25,0,6,,,,,,,2,,,,78,0
53075,note_off,,10,0,6,,,,,,,2,,,,73,0
53075,note_off,,10,0,5,,,,,,,1,,,,73,0
53110,note_off,,35,0,5,,,,,,,1,,,,82,0
53110,note_off,,35,0,6,,,,,,,2,,,,82,0
53160,note_on,,50,0,5,,,,,,,1,,,,97,61
53160,note_on,,50,0,6,,,,,,,2,,,,97,61
53250,note_on,,90,0,6,,,,,,,2,,,,70,80
53250,note_on,,90,0,5,,,,,,,1,,,,70,80
53280,note_on,,30,0,6,,,,,,,2,,,,90,64
53280,note_on,,30,0,5,,,,,,,1,,,,90,64
53295,note_off,,15,0,5,,,,,,,1,,,,97,0
53295,note_off,,15,0,6,,,,,,,2,,,,97,0
53335,note_off,,40,0,5,,,,,,,1,,,,70,0
53335,note_off,,40,0,6,,,,,,,2,,,,70,0
53360,note_off,,25,0,6,,,,,,,2,,,,90,0
53360,note_off,,25,0,5,,,,,,,1,,,,90,0
53390,note_on,,30,0,6,,,,,,,2,,,,97,61
53390,note_on,,30,0,5,,,,,,,1,,,,97,61
53495,note_on,,105,0,5,,,,,,,1,,,,73,69
53495,note_on,,105,0,6,,,,,,,2,,,,73,69
53500,note_on,,5,0,6,,,,,,,2,,,,78,76
53500,note_on,,5,0,5,,,,,,,1,,,,78,76
53515,note_on,,15,0,6,,,,,,,2,,,,85,41
53515,note_on,,15,0,5,,,,,,,1,,,,85,41
53525,note_off,,10,0,5,,,,,,,1,,,,97,0
53525,note_off,,10,0,6,,,,,,,2,,,,97,0
53540,note_off,,15,0,6,,,,,,,2,,,,78,0
53540,note_off,,15,0,5,,,,,,,1,,,,78,0
53545,note_off,,5,0,5,,,,,,,1,,,,73,0
53545,note_off,,5,0,6,,,,,,,2,,,,73,0
53605,note_off,,60,0,6,,,,,,,2,,,,85,0
53605,note_off,,60,0,5,,,,,,,1,,,,85,0
53630,note_on,,25,0,6,,,,,,,2,,,,97,61
53630,note_on,,25,0,5,,,,,,,1,,,,97,61
53740,note_on,,110,0,5,,,,,,,1,,,,66,71
53740,note_on,,110,0,6,,,,,,,2,,,,66,71
53750,note_on,,10,0,5,,,,,,,1,,,,87,92
53750,note_on,,10,0,6,,,,,,,2,,,,87,92
53755,note_off,,5,0,5,,,,,,,1,,,,97,0
53755,note_off,,5,0,6,,,,,,,2,,,,97,0
53825,note_off,,70,0,5,,,,,,,1,,,,66,0
53825,note_off,,0,0,5,,,,,,,1,,,,87,0
53825,note_off,,70,0,6,,,,,,,2,,,,66,0
53825,note_off,,0,0,6,,,,,,,2,,,,87,0
53855,note_on,,30,0,6,,,,,,,2,,,,97,62
53855,note_on,,30,0,5,,,,,,,1,,,,97,62
53955,note_off,,100,0,6,,,,,,,2,,,,97,0
53955,note_off,,100,0,5,,,,,,,1,,,,97,0
53960,note_on,,5,0,5,,,,,,,1,,,,83,76
53960,note_on,,5,0,6,,,,,,,2,,,,83,76
53980,note_on,,20,0,5,,,,,,,1,,,,75,79
53980,note_on,,20,0,6,,,,,,,2,,,,75,79
53985,note_on,,5,0,6,,,,,,,2,,,,71,68
53985,note_on,,5,0,5,,,,,,,1,,,,71,68
54045,note_off,,60,0,6,,,,,,,2,,,,71,0
54045,note_off,,0,0,5,,,,,,,1,,,,75,0
54045,note_off,,60,0,5,,,,,,,1,,,,71,0
54045,note_off,,0,0,6,,,,,,,2,,,,75,0
54055,note_off,,10,0,6,,,,,,,2,,,,83,0
54055,note_off,,10,0,5,,,,,,,1,,,,83,0
54085,note_on,,30,0,6,,,,,,,2,,,,97,61
54085,note_on,,30,0,5,,,,,,,1,,,,97,61
54215,note_off,,130,0,6,,,,,,,2,,,,97,0
54215,note_off,,130,0,5,,,,,,,1,,,,97,0
54220,note_on,,5,0,5,,,,,,,1,,,,82,76
54220,note_on,,0,0,6,,,,,,,2,,,,61,80
54220,note_on,,5,0,6,,,,,,,2,,,,82,76
54220,note_on,,0,0,5,,,,,,,1,,,,61,80
54290,note_off,,70,0,6,,,,,,,2,,,,82,0
54290,note_off,,70,0,5,,,,,,,1,,,,82,0
54310,note_off,,20,0,5,,,,,,,1,,,,61,0
54310,note_off,,20,0,6,,,,,,,2,,,,61,0
54320,note_on,,10,0,5,,,,,,,1,,,,97,61
54320,note_on,,10,0,6,,,,,,,2,,,,97,61
54435,note_off,,115,0,5,,,,,,,1,,,,97,0
54435,note_off,,115,0,6,,,,,,,2,,,,97,0
54445,note_on,,10,0,6,,,,,,,2,,,,83,80
54445,note_on,,10,0,5,,,,,,,1,,,,83,80
54455,note_on,,0,0,5,,,,,,,1,,,,75,68
54455,note_on,,0,0,6,,,,,,,2,,,,75,68
54455,note_on,,10,0,6,,,,,,,2,,,,78,68
54455,note_on,,10,0,5,,,,,,,1,,,,78,68
54520,note_off,,65,0,5,,,,,,,1,,,,75,0
54520,note_off,,65,0,6,,,,,,,2,,,,75,0
54525,note_off,,0,0,6,,,,,,,2,,,,83,0
54525,note_off,,5,0,6,,,,,,,2,,,,78,0
54525,note_off,,5,0,5,,,,,,,1,,,,78,0
54525,note_off,,0,0,5,,,,,,,1,,,,83,0
54565,note_on,,40,0,6,,,,,,,2,,,,97,60
54565,note_on,,40,0,5,,,,,,,1,,,,97,60
54685,note_on,,120,0,5,,,,,,,1,,,,66,80
54685,note_on,,120,0,6,,,,,,,2,,,,66,80
54695,note_off,,10,0,6,,,,,,,2,,,,97,0
54695,note_on,,0,0,6,,,,,,,2,,,,87,84
54695,note_on,,0,0,5,,,,,,,1,,,,87,84
54695,note_off,,10,0,5,,,,,,,1,,,,97,0
54765,note_off,,70,0,5,,,,,,,1,,,,66,0
54765,note_off,,70,0,6,,,,,,,2,,,,66,0
54775,note_off,,10,0,6,,,,,,,2,,,,87,0
54775,note_off,,10,0,5,,,,,,,1,,,,87,0
54800,note_on,,25,0,6,,,,,,,2,,,,97,80
54800,note_on,,25,0,5,,,,,,,1,,,,97,80
54900,note_off,,100,0,6,,,,,,,2,,,,97,0
54900,note_off,,100,0,5,,,,,,,1,,,,97,0
54925,note_on,,25,0,6,,,,,,,2,,,,83,71
54925,note_on,,25,0,5,,,,,,,1,,,,83,71
54925,note_on,,0,0,5,,,,,,,1,,,,78,78
54925,note_on,,0,0,6,,,,,,,2,,,,75,64
54925,note_on,,0,0,5,,,,,,,1,,,,75,64
54925,note_on,,0,0,6,,,,,,,2,,,,78,78
54985,note_off,,60,0,5,,,,,,,1,,,,78,0
54985,note_off,,60,0,6,,,,,,,2,,,,78,0
54990,note_off,,5,0,5,,,,,,,1,,,,83,0
54990,note_off,,5,0,6,,,,,,,2,,,,83,0
54995,note_off,,5,0,5,,,,,,,1,,,,75,0
54995,note_off,,5,0,6,,,,,,,2,,,,75,0
55035,note_on,,40,0,5,,,,,,,1,,,,97,61
55035,note_on,,40,0,6,,,,,,,2,,,,97,61
55170,note_on,,0,0,6,,,,,,,2,,,,71,72
55170,note_on,,135,0,6,,,,,,,2,,,,90,80
55170,note_on,,0,0,5,,,,,,,1,,,,71,72
55170,note_on,,135,0,5,,,,,,,1,,,,90,80
55185,note_off,,15,0,5,,,,,,,1,,,,97,0
55185,note_off,,15,0,6,,,,,,,2,,,,97,0
55250,note_off,,65,0,6,,,,,,,2,,,,90,0
55250,note_off,,65,0,5,,,,,,,1,,,,90,0
55260,note_off,,10,0,5,,,,,,,1,,,,71,0
55260,note_off,,10,0,6,,,,,,,2,,,,71,0
55280,note_on,,20,0,5,,,,,,,1,,,,97,50
55280,note_on,,20,0,6,,,,,,,2,,,,97,50
55395,note_on,,115,0,5,,,,,,,1,,,,75,90
55395,note_on,,115,0,6,,,,,,,2,,,,75,90
55400,note_on,,0,0,6,,,,,,,2,,,,78,61
55400,note_on,,5,0,6,,,,,,,2,,,,87,80
55400,note_on,,5,0,5,,,,,,,1,,,,87,80
55400,note_on,,0,0,5,,,,,,,1,,,,78,61
55410,note_off,,10,0,6,,,,,,,2,,,,97,0
55410,note_off,,10,0,5,,,,,,,1,,,,97,0
55435,note_off,,25,0,5,,,,,,,1,,,,78,0
55435,note_off,,25,0,6,,,,,,,2,,,,78,0
55455,note_off,,20,0,5,,,,,,,1,,,,75,0
55455,note_off,,20,0,6,,,,,,,2,,,,75,0
55490,note_off,,35,0,6,,,,,,,2,,,,87,0
55490,note_off,,35,0,5,,,,,,,1,,,,87,0
55525,note_on,,35,0,5,,,,,,,1,,,,97,61
55525,note_on,,35,0,6,,,,,,,2,,,,97,61
55645,note_on,,120,0,5,,,,,,,1,,,,66,72
55645,note_on,,120,0,6,,,,,,,2,,,,66,72
55655,note_off,,10,0,6,,,,,,,2,,,,97,0
55655,note_on,,0,0,5,,,,,,,1,,,,85,58
55655,note_off,,10,0,5,,,,,,,1,,,,97,0
55655,note_on,,0,0,6,,,,,,,2,,,,85,58
55725,note_off,,70,0,6,,,,,,,2,,,,66,0
55725,note_off,,70,0,5,,,,,,,1,,,,66,0
55740,note_off,,15,0,6,,,,,,,2,,,,85,0
55740,note_off,,15,0,5,,,,,,,1,,,,85,0
55770,note_on,,30,0,6,,,,,,,2,,,,97,61
55770,note_on,,30,0,5,,,,,,,1,,,,97,61
55880,note_off,,110,0,5,,,,,,,1,,,,97,0
55880,note_off,,110,0,6,,,,,,,2,,,,97,0
55890,note_on,,0,0,6,,,,,,,2,,,,73,77
55890,note_on,,0,0,5,,,,,,,1,,,,73,77
55890,note_on,,10,0,6,,,,,,,2,,,,70,77
55890,note_on,,10,0,5,,,,,,,1,,,,70,77
55895,note_on,,5,0,5,,,,,,,1,,,,82,80
55895,note_on,,5,0,6,,,,,,,2,,,,82,80
55945,note_off,,50,0,6,,,,,,,2,,,,73,0
55945,note_off,,50,0,5,,,,,,,1,,,,73,0
55960,note_off,,15,0,5,,,,,,,1,,,,70,0
55960,note_off,,15,0,6,,,,,,,2,,,,70,0
55975,note_off,,15,0,5,,,,,,,1,,,,82,0
55975,note_off,,15,0,6,,,,,,,2,,,,82,0
56005,note_on,,30,0,6,,,,,,,2,,,,97,61
56005,note_on,,30,0,5,,,,,,,1,,,,97,61
56095,note_off,,90,0,6,,,,,,,2,,,,97,0
56095,note_off,,90,0,5,,,,,,,1,,,,97,0
56130,note_on,,35,0,6,,,,,,,2,,,,81,91
56130,note_on,,35,0,5,,,,,,,1,,,,81,91
56135,note_on,,5,0,6,,,,,,,2,,,,61,80
56135,note_on,,5,0,5,,,,,,,1,,,,61,80
56200,note_off,,65,0,6,,,,,,,2,,,,81,0
56200,note_off,,65,0,5,,,,,,,1,,,,81,0
56235,note_off,,35,0,6,,,,,,,2,,,,61,0
56235,note_off,,35,0,5,,,,,,,1,,,,61,0
56255,note_on,,20,0,5,,,,,,,1,,,,97,61
56255,note_on,,20,0,6,,,,,,,2,,,,97,61
56320,note_off,,65,0,5,,,,,,,1,,,,97,0
56320,note_off,,65,0,6,,,,,,,2,,,,97,0
56360,note_on,,0,0,5,,,,,,,1,,,,73,90
56360,note_on,,40,0,6,,,,,,,2,,,,78,78
56360,note_on,,40,0,5,,,,,,,1,,,,78,78
56360,note_on,,0,0,6,,,,,,,2,,,,73,90
56370,note_on,,10,0,6,,,,,,,2,,,,82,80
56370,note_on,,10,0,5,,,,,,,1,,,,82,80
56415,note_off,,45,0,5,,,,,,,1,,,,73,0
56415,note_off,,45,0,6,,,,,,,2,,,,73,0
56425,note_off,,10,0,6,,,,,,,2,,,,78,0
56425,note_off,,10,0,5,,,,,,,1,,,,78,0
56440,note_off,,15,0,5,,,,,,,1,,,,82,0
56440,note_off,,15,0,6,,,,,,,2,,,,82,0
56490,note_on,,50,0,6,,,,,,,2,,,,97,61
56490,note_on,,50,0,5,,,,,,,1,,,,97,61
56615,note_on,,125,0,6,,,,,,,2,,,,66,80
56615,note_on,,125,0,5,,,,,,,1,,,,66,80
56620,note_on,,0,0,5,,,,,,,1,,,,85,46
56620,note_off,,5,0,5,,,,,,,1,,,,97,0
56620,note_on,,0,0,6,,,,,,,2,,,,85,46
56620,note_off,,5,0,6,,,,,,,2,,,,97,0
56695,note_off,,75,0,5,,,,,,,1,,,,66,0
56695,note_off,,75,0,6,,,,,,,2,,,,66,0
56705,note_off,,10,0,5,,,,,,,1,,,,85,0
56705,note_off,,10,0,6,,,,,,,2,,,,85,0
56735,note_on,,30,0,5,,,,,,,1,,,,97,50
56735,note_on,,30,0,6,,,,,,,2,,,,97,50
56830,note_off,,95,0,6,,,,,,,2,,,,97,0
56830,note_off,,95,0,5,,,,,,,1,,,,97,0
56840,note_on,,10,0,6,,,,,,,2,,,,82,72
56840,note_on,,10,0,5,,,,,,,1,,,,82,72
56850,note_on,,0,0,6,,,,,,,2,,,,73,72
56850,note_on,,10,0,6,,,,,,,2,,,,78,88
56850,note_on,,10,0,5,,,,,,,1,,,,78,88
56850,note_on,,0,0,5,,,,,,,1,,,,73,72
56900,note_off,,50,0,5,,,,,,,1,,,,73,0
56900,note_off,,0,0,6,,,,,,,2,,,,78,0
56900,note_off,,50,0,6,,,,,,,2,,,,73,0
56900,note_off,,0,0,5,,,,,,,1,,,,78,0
56920,note_off,,20,0,6,,,,,,,2,,,,82,0
56920,note_off,,20,0,5,,,,,,,1,,,,82,0
56965,note_on,,45,0,5,,,,,,,1,,,,97,50
56965,note_on,,45,0,6,,,,,,,2,,,,97,50
57100,note_on,,135,0,5,,,,,,,1,,,,70,80
57100,note_on,,135,0,6,,,,,,,2,,,,70,80
57110,note_on,,10,0,5,,,,,,,1,,,,90,59
57110,note_on,,10,0,6,,,,,,,2,,,,90,59
57115,note_off,,5,0,5,,,,,,,1,,,,97,0
57115,note_off,,5,0,6,,,,,,,2,,,,97,0
57175,note_off,,60,0,5,,,,,,,1,,,,90,0
57175,note_off,,60,0,6,,,,,,,2,,,,90,0
57185,note_off,,10,0,6,,,,,,,2,,,,70,0
57185,note_off,,10,0,5,,,,,,,1,,,,70,0
57210,note_on,,25,0,5,,,,,,,1,,,,97,60
57210,note_on,,25,0,6,,,,,,,2,,,,97,60
57340,note_on,,130,0,6,,,,,,,2,,,,85,41
57340,note_on,,130,0,5,,,,,,,1,,,,85,41
57345,note_on,,5,0,5,,,,,,,1,,,,73,78
57345,note_on,,5,0,6,,,,,,,2,,,,73,78
57345,note_on,,0,0,5,,,,,,,1,,,,78,90
57345,note_on,,0,0,6,,,,,,,2,,,,78,90
57355,note_off,,10,0,6,,,,,,,2,,,,97,0
57355,note_off,,10,0,5,,,,,,,1,,,,97,0
57400,note_off,,45,0,6,,,,,,,2,,,,73,0
57400,note_off,,45,0,5,,,,,,,1,,,,73,0
57415,note_off,,15,0,5,,,,,,,1,,,,78,0
57415,note_off,,15,0,6,,,,,,,2,,,,78,0
57425,note_off,,10,0,6,,,,,,,2,,,,85,0
57425,note_off,,10,0,5,,,,,,,1,,,,85,0
57450,note_on,,25,0,5,,,,,,,1,,,,97,62
57450,note_on,,25,0,6,,,,,,,2,,,,97,62
57540,note_off,,90,0,6,,,,,,,2,,,,97,0
57540,note_off,,90,0,5,,,,,,,1,,,,97,0
57560,note_on,,20,0,5,,,,,,,1,,,,83,69
57560,note_on,,20,0,6,,,,,,,2,,,,83,69
57565,note_on,,5,0,5,,,,,,,1,,,,89,78
57565,note_on,,5,0,6,,,,,,,2,,,,89,78
57625,note_off,,60,0,6,,,,,,,2,,,,83,0
57625,note_off,,60,0,5,,,,,,,1,,,,83,0
57695,note_on,,70,0,6,,,,,,,2,,,,97,61
57695,note_on,,70,0,5,,,,,,,1,,,,97,61
57720,note_off,,25,0,5,,,,,,,1,,,,89,0
57720,note_off,,25,0,6,,,,,,,2,,,,89,0
57780,note_on,,60,0,5,,,,,,,1,,,,60,72
57780,note_on,,60,0,6,,,,,,,2,,,,60,72
57815,note_off,,35,0,6,,,,,,,2,,,,97,0
57815,note_on,,0,0,5,,,,,,,1,,,,61,91
57815,note_on,,0,0,5,,,,,,,1,,,,85,46
57815,note_off,,35,0,5,,,,,,,1,,,,97,0
57815,note_on,,0,0,6,,,,,,,2,,,,85,46
57815,note_on,,0,0,6,,,,,,,2,,,,61,91
57830,note_on,,15,0,5,,,,,,,1,,,,92,64
57830,note_on,,15,0,6,,,,,,,2,,,,92,64
57855,note_off,,25,0,6,,,,,,,2,,,,60,0
57855,note_off,,25,0,5,,,,,,,1,,,,60,0
57880,note_off,,25,0,6,,,,,,,2,,,,85,0
57880,note_off,,25,0,5,,,,,,,1,,,,85,0
57890,note_off,,10,0,6,,,,,,,2,,,,61,0
57890,note_off,,10,0,5,,,,,,,1,,,,61,0
57925,note_off,,35,0,6,,,,,,,2,,,,92,0
57925,note_off,,35,0,5,,,,,,,1,,,,92,0
57935,note_on,,10,0,6,,,,,,,2,,,,97,50
57935,note_on,,10,0,5,,,,,,,1,,,,97,50
58030,note_off,,95,0,5,,,,,,,1,,,,97,0
58030,note_off,,95,0,6,,,,,,,2,,,,97,0
58060,note_on,,30,0,5,,,,,,,1,,,,83,79
58060,note_on,,30,0,6,,,,,,,2,,,,83,79
58065,note_on,,5,0,6,,,,,,,2,,,,89,61
58065,note_on,,5,0,5,,,,,,,1,,,,89,61
58130,note_off,,65,0,6,,,,,,,2,,,,83,0
58130,note_off,,65,0,5,,,,,,,1,,,,83,0
58175,note_off,,45,0,5,,,,,,,1,,,,89,0
58175,note_off,,45,0,6,,,,,,,2,,,,89,0
58200,note_on,,25,0,5,,,,,,,1,,,,97,62
58200,note_on,,25,0,6,,,,,,,2,,,,97,62
58260,note_on,,60,0,6,,,,,,,2,,,,64,58
58260,note_on,,60,0,5,,,,,,,1,,,,64,58
58270,note_on,,10,0,5,,,,,,,1,,,,65,52
58270,note_on,,10,0,6,,,,,,,2,,,,65,52
58300,note_off,,30,0,5,,,,,,,1,,,,97,0
58300,note_off,,30,0,6,,,,,,,2,,,,97,0
58310,note_on,,10,0,6,,,,,,,2,,,,85,50
58310,note_on,,10,0,5,,,,,,,1,,,,85,50
58320,note_on,,10,0,6,,,,,,,2,,,,92,64
58320,note_on,,10,0,5,,,,,,,1,,,,92,64
58325,note_off,,5,0,6,,,,,,,2,,,,64,0
58325,note_off,,5,0,5,,,,,,,1,,,,64,0
58345,note_off,,20,0,6,,,,,,,2,,,,65,0
58345,note_off,,20,0,5,,,,,,,1,,,,65,0
58385,note_off,,40,0,5,,,,,,,1,,,,85,0
58385,note_off,,40,0,6,,,,,,,2,,,,85,0
58405,note_off,,20,0,5,,,,,,,1,,,,92,0
58405,note_off,,20,0,6,,,,,,,2,,,,92,0
58420,note_on,,15,0,6,,,,,,,2,,,,97,80
58420,note_on,,15,0,5,,,,,,,1,,,,97,80
58525,note_off,,105,0,5,,,,,,,1,,,,97,0
58525,note_off,,105,0,6,,,,,,,2,,,,97,0
58550,note_on,,25,0,5,,,,,,,1,,,,83,68
58550,note_on,,25,0,6,,,,,,,2,,,,83,68
58550,note_on,,0,0,5,,,,,,,1,,,,89,78
58550,note_on,,0,0,6,,,,,,,2,,,,89,78
58615,note_off,,65,0,6,,,,,,,2,,,,83,0
58615,note_off,,65,0,5,,,,,,,1,,,,83,0
58670,note_off,,55,0,5,,,,,,,1,,,,89,0
58670,note_off,,55,0,6,,,,,,,2,,,,89,0
58685,note_on,,15,0,5,,,,,,,1,,,,97,62
58685,note_on,,15,0,6,,,,,,,2,,,,97,62
58755,note_on,,70,0,5,,,,,,,1,,,,69,80
58755,note_on,,70,0,6,,,,,,,2,,,,69,80
58785,note_off,,30,0,6,,,,,,,2,,,,97,0
58785,note_off,,30,0,5,,,,,,,1,,,,97,0
58790,note_on,,0,0,5,,,,,,,1,,,,85,50
58790,note_on,,0,0,6,,,,,,,2,,,,85,50
58790,note_on,,5,0,5,,,,,,,1,,,,70,90
58790,note_on,,5,0,6,,,,,,,2,,,,70,90
58805,note_on,,15,0,5,,,,,,,1,,,,92,72
58805,note_on,,15,0,6,,,,,,,2,,,,92,72
58840,note_off,,35,0,6,,,,,,,2,,,,69,0
58840,note_off,,35,0,5,,,,,,,1,,,,69,0
58860,note_off,,20,0,6,,,,,,,2,,,,85,0
58860,note_off,,20,0,5,,,,,,,1,,,,85,0
58875,note_off,,15,0,5,,,,,,,1,,,,70,0
58875,note_off,,15,0,6,,,,,,,2,,,,70,0
58885,note_off,,10,0,6,,,,,,,2,,,,92,0
58885,note_off,,10,0,5,,,,,,,1,,,,92,0
58900,note_on,,15,0,5,,,,,,,1,,,,97,62
58900,note_on,,15,0,6,,,,,,,2,,,,97,62
58995,note_off,,95,0,6,,,,,,,2,,,,97,0
58995,note_off,,95,0,5,,,,,,,1,,,,97,0
59025,note_on,,0,0,6,,,,,,,2,,,,89,68
59025,note_on,,30,0,6,,,,,,,2,,,,83,62
59025,note_on,,0,0,5,,,,,,,1,,,,89,68
59025,note_on,,30,0,5,,,,,,,1,,,,83,62
59085,note_off,,60,0,6,,,,,,,2,,,,83,0
59085,note_off,,60,0,5,,,,,,,1,,,,83,0
59150,note_off,,65,0,5,,,,,,,1,,,,89,0
59150,note_off,,65,0,6,,,,,,,2,,,,89,0
59165,note_on,,15,0,5,,,,,,,1,,,,97,62
59165,note_on,,15,0,6,,,,,,,2,,,,97,62
59225,note_on,,60,0,5,,,,,,,1,,,,67,80
59225,note_on,,60,0,6,,,,,,,2,,,,67,80
59255,note_on,,30,0,5,,,,,,,1,,,,68,92
59255,note_on,,30,0,6,,,,,,,2,,,,68,92
59275,note_on,,20,0,5,,,,,,,1,,,,85,42
59275,note_on,,20,0,6,,,,,,,2,,,,85,42
59290,note_on,,15,0,6,,,,,,,2,,,,92,72
59290,note_on,,15,0,5,,,,,,,1,,,,92,72
59295,note_off,,5,0,5,,,,,,,1,,,,97,0
59295,note_off,,5,0,6,,,,,,,2,,,,97,0
59320,note_off,,25,0,5,,,,,,,1,,,,67,0
59320,note_off,,25,0,6,,,,,,,2,,,,67,0
59345,note_off,,25,0,5,,,,,,,1,,,,85,0
59345,note_off,,25,0,6,,,,,,,2,,,,85,0
59355,note_off,,0,0,6,,,,,,,2,,,,92,0
59355,note_off,,10,0,5,,,,,,,1,,,,68,0
59355,note_off,,0,0,5,,,,,,,1,,,,92,0
59355,note_off,,10,0,6,,,,,,,2,,,,68,0
59375,note_on,,20,0,5,,,,,,,1,,,,97,62
59375,note_on,,20,0,6,,,,,,,2,,,,97,62
59490,note_off,,115,0,6,,,,,,,2,,,,97,0
59490,note_off,,115,0,5,,,,,,,1,,,,97,0
59515,note_on,,25,0,6,,,,,,,2,,,,82,79
59515,note_on,,25,0,5,,,,,,,1,,,,82,79
59520,note_on,,5,0,6,,,,,,,2,,,,90,78
59520,note_on,,5,0,5,,,,,,,1,,,,90,78
59565,note_off,,45,0,5,,,,,,,1,,,,82,0
59565,note_off,,45,0,6,,,,,,,2,,,,82,0
59625,note_on,,60,0,5,,,,,,,1,,,,97,61
59625,note_on,,60,0,6,,,,,,,2,,,,97,61
59645,note_off,,20,0,6,,,,,,,2,,,,90,0
59645,note_off,,20,0,5,,,,,,,1,,,,90,0
59720,note_on,,75,0,5,,,,,,,1,,,,65,80
59720,note_on,,75,0,6,,,,,,,2,,,,65,80
59735,note_off,,15,0,6,,,,,,,2,,,,97,0
59735,note_off,,15,0,5,,,,,,,1,,,,97,0
59745,note_on,,10,0,5,,,,,,,1,,,,85,50
59745,note_on,,10,0,6,,,,,,,2,,,,85,50
59755,note_on,,10,0,6,,,,,,,2,,,,66,92
59755,note_on,,10,0,5,,,,,,,1,,,,66,92
59765,note_on,,10,0,6,,,,,,,2,,,,94,71
59765,note_on,,10,0,5,,,,,,,1,,,,94,71
59810,note_off,,45,0,5,,,,,,,1,,,,65,0
59810,note_off,,45,0,6,,,,,,,2,,,,65,0
59815,note_off,,5,0,6,,,,,,,2,,,,85,0
59815,note_off,,5,0,5,,,,,,,1,,,,85,0
59835,note_off,,20,0,6,,,,,,,2,,,,66,0
59835,note_off,,0,0,6,,,,,,,2,,,,94,0
59835,note_off,,0,0,5,,,,,,,1,,,,94,0
59835,note_off,,20,0,5,,,,,,,1,,,,66,0
59855,note_on,,20,0,5,,,,,,,1,,,,97,62
59855,note_on,,20,0,6,,,,,,,2,,,,97,62
59945,note_on,,90,0,6,,,,,,,2,,,,64,92
59945,note_on,,90,0,5,,,,,,,1,,,,64,92
59960,note_off,,15,0,6,,,,,,,2,,,,97,0
59960,note_off,,15,0,5,,,,,,,1,,,,97,0
59975,note_on,,15,0,5,,,,,,,1,,,,65,91
59975,note_on,,15,0,6,,,,,,,2,,,,65,91
59980,note_on,,0,0,5,,,,,,,1,,,,82,78
59980,note_on,,5,0,6,,,,,,,2,,,,90,78
59980,note_on,,0,0,6,,,,,,,2,,,,82,78
59980,note_on,,5,0,5,,,,,,,1,,,,90,78
60030,note_off,,50,0,6,,,,,,,2,,,,82,0
60030,note_off,,50,0,5,,,,,,,1,,,,82,0
60045,note_off,,15,0,6,,,,,,,2,,,,64,0
60045,note_off,,15,0,5,,,,,,,1,,,,64,0
60055,note_off,,10,0,6,,,,,,,2,,,,65,0
60055,note_off,,10,0,5,,,,,,,1,,,,65,0
60100,note_on,,45,0,5,,,,,,,1,,,,97,61
60100,note_on,,45,0,6,,,,,,,2,,,,97,61
60115,note_off,,15,0,6,,,,,,,2,,,,90,0
60115,note_off,,15,0,5,,,,,,,1,,,,90,0
60210,note_on,,95,0,6,,,,,,,2,,,,62,80
60210,note_on,,95,0,5,,,,,,,1,,,,62,80
60225,note_on,,0,0,6,,,,,,,2,,,,85,47
60225,note_off,,15,0,6,,,,,,,2,,,,97,0
60225,note_off,,15,0,5,,,,,,,1,,,,97,0
60225,note_on,,0,0,5,,,,,,,1,,,,85,47
60235,note_on,,10,0,5,,,,,,,1,,,,63,92
60235,note_on,,10,0,6,,,,,,,2,,,,63,92
60240,note_on,,5,0,5,,,,,,,1,,,,94,72
60240,note_on,,5,0,6,,,,,,,2,,,,94,72
60280,note_off,,40,0,5,,,,,,,1,,,,62,0
60280,note_off,,40,0,6,,,,,,,2,,,,62,0
60295,note_off,,15,0,6,,,,,,,2,,,,85,0
60295,note_off,,15,0,5,,,,,,,1,,,,85,0
60315,note_off,,20,0,6,,,,,,,2,,,,63,0
60315,note_off,,20,0,5,,,,,,,1,,,,63,0
60330,note_off,,15,0,6,,,,,,,2,,,,94,0
60330,note_off,,15,0,5,,,,,,,1,,,,94,0
60335,note_on,,5,0,5,,,,,,,1,,,,97,50
60335,note_on,,5,0,6,,,,,,,2,,,,97,50
60435,note_off,,100,0,5,,,,,,,1,,,,97,0
60435,note_off,,100,0,6,,,,,,,2,,,,97,0
60450,note_on,,15,0,5,,,,,,,1,,,,82,88
60450,note_on,,15,0,6,,,,,,,2,,,,82,88
60455,note_on,,5,0,6,,,,,,,2,,,,90,88
60455,note_on,,5,0,5,,,,,,,1,,,,90,88
60510,note_off,,55,0,6,,,,,,,2,,,,82,0
60510,note_off,,55,0,5,,,,,,,1,,,,82,0
60570,note_on,,0,0,5,,,,,,,1,,,,97,74
60570,note_off,,60,0,6,,,,,,,2,,,,90,0
60570,note_off,,60,0,5,,,,,,,1,,,,90,0
60570,note_on,,0,0,6,,,,,,,2,,,,97,74
60680,note_on,,110,0,6,,,,,,,2,,,,62,80
60680,note_on,,110,0,5,,,,,,,1,,,,62,80
60690,note_off,,10,0,6,,,,,,,2,,,,97,0
60690,note_off,,10,0,5,,,,,,,1,,,,97,0
60695,note_on,,5,0,5,,,,,,,1,,,,85,58
60695,note_on,,5,0,6,,,,,,,2,,,,85,58
60700,note_on,,5,0,5,,,,,,,1,,,,63,91
60700,note_on,,5,0,6,,,,,,,2,,,,63,91
60710,note_on,,10,0,6,,,,,,,2,,,,94,72
60710,note_on,,10,0,5,,,,,,,1,,,,94,72
60770,note_off,,0,0,5,,,,,,,1,,,,85,0
60770,note_off,,0,0,6,,,,,,,2,,,,85,0
60770,note_off,,60,0,5,,,,,,,1,,,,62,0
60770,note_off,,60,0,6,,,,,,,2,,,,62,0
60790,note_off,,20,0,6,,,,,,,2,,,,63,0
60790,note_off,,20,0,5,,,,,,,1,,,,63,0
60800,note_on,,0,0,6,,,,,,,2,,,,97,46
60800,note_off,,10,0,5,,,,,,,1,,,,94,0
60800,note_on,,0,0,5,,,,,,,1,,,,97,46
60800,note_off,,10,0,6,,,,,,,2,,,,94,0
60910,note_off,,110,0,6,,,,,,,2,,,,97,0
60910,note_off,,110,0,5,,,,,,,1,,,,97,0
60915,note_on,,5,0,6,,,,,,,2,,,,61,80
60915,note_on,,5,0,5,,,,,,,1,,,,61,80
60930,note_on,,15,0,6,,,,,,,2,,,,82,92
60930,note_on,,15,0,5,,,,,,,1,,,,82,92
60935,note_on,,5,0,5,,,,,,,1,,,,62,91
60935,note_on,,5,0,6,,,,,,,2,,,,62,91
60940,note_on,,5,0,6,,,,,,,2,,,,90,71
60940,note_on,,5,0,5,,,,,,,1,,,,90,71
60990,note_off,,50,0,5,,,,,,,1,,,,82,0
60990,note_off,,50,0,6,,,,,,,2,,,,82,0
61000,note_off,,10,0,5,,,,,,,1,,,,61,0
61000,note_off,,10,0,6,,,,,,,2,,,,61,0
61015,note_off,,15,0,6,,,,,,,2,,,,62,0
61015,note_off,,15,0,5,,,,,,,1,,,,62,0
61045,note_on,,30,0,5,,,,,,,1,,,,97,80
61045,note_on,,30,0,6,,,,,,,2,,,,97,80
61085,note_off,,40,0,5,,,,,,,1,,,,90,0
61085,note_off,,40,0,6,,,,,,,2,,,,90,0
61145,note_on,,60,0,6,,,,,,,2,,,,60,64
61145,note_on,,60,0,5,,,,,,,1,,,,60,64
61170,note_on,,25,0,5,,,,,,,1,,,,61,91
61170,note_on,,0,0,6,,,,,,,2,,,,85,50
61170,note_on,,0,0,5,,,,,,,1,,,,85,50
61170,note_on,,25,0,6,,,,,,,2,,,,61,91
61180,note_on,,10,0,5,,,,,,,1,,,,94,80
61180,note_on,,10,0,6,,,,,,,2,,,,94,80
61185,note_off,,5,0,6,,,,,,,2,,,,97,0
61185,note_off,,5,0,5,,,,,,,1,,,,97,0
61215,note_off,,30,0,6,,,,,,,2,,,,60,0
61215,note_off,,30,0,5,,,,,,,1,,,,60,0
61240,note_off,,25,0,5,,,,,,,1,,,,85,0
61240,note_off,,25,0,6,,,,,,,2,,,,85,0
61255,note_off,,15,0,6,,,,,,,2,,,,61,0
61255,note_off,,15,0,5,,,,,,,1,,,,61,0
61260,note_off,,5,0,6,,,,,,,2,,,,94,0
61260,note_off,,5,0,5,,,,,,,1,,,,94,0
61275,note_on,,15,0,5,,,,,,,1,,,,97,50
61275,note_on,,15,0,6,,,,,,,2,,,,97,50
61370,note_off,,95,0,6,,,,,,,2,,,,97,0
61370,note_off,,95,0,5,,,,,,,1,,,,97,0
61395,note_on,,25,0,5,,,,,,,1,,,,83,68
61395,note_on,,0,0,6,,,,,,,2,,,,89,79
61395,note_on,,0,0,5,,,,,,,1,,,,89,79
61395,note_on,,25,0,6,,,,,,,2,,,,83,68
61460,note_off,,65,0,6,,,,,,,2,,,,83,0
61460,note_off,,65,0,5,,,,,,,1,,,,83,0
61515,note_off,,55,0,5,,,,,,,1,,,,89,0
61515,note_off,,55,0,6,,,,,,,2,,,,89,0
61540,note_on,,25,0,6,,,,,,,2,,,,97,80
61540,note_on,,25,0,5,,,,,,,1,,,,97,80
61630,note_on,,90,0,6,,,,,,,2,,,,60,80
61630,note_on,,90,0,5,,,,,,,1,,,,60,80
61655,note_on,,25,0,6,,,,,,,2,,,,61,92
61655,note_on,,25,0,5,,,,,,,1,,,,61,92
61665,note_on,,10,0,5,,,,,,,1,,,,85,50
61665,note_on,,10,0,6,,,,,,,2,,,,85,50
61680,note_on,,15,0,6,,,,,,,2,,,,92,64
61680,note_on,,15,0,5,,,,,,,1,,,,92,64
61690,note_off,,10,0,6,,,,,,,2,,,,97,0
61690,note_off,,10,0,5,,,,,,,1,,,,97,0
61705,note_off,,15,0,6,,,,,,,2,,,,60,0
61705,note_off,,15,0,5,,,,,,,1,,,,60,0
61730,note_off,,0,0,5,,,,,,,1,,,,85,0
61730,note_off,,25,0,5,,,,,,,1,,,,61,0
61730,note_off,,0,0,6,,,,,,,2,,,,85,0
61730,note_off,,25,0,6,,,,,,,2,,,,61,0
61775,note_off,,45,0,5,,,,,,,1,,,,92,0
61775,note_on,,0,0,5,,,,,,,1,,,,97,74
61775,note_off,,45,0,6,,,,,,,2,,,,92,0
61775,note_on,,0,0,6,,,,,,,2,,,,97,74
61875,note_off,,100,0,5,,,,,,,1,,,,97,0
61875,note_off,,100,0,6,,,,,,,2,,,,97,0
61900,note_on,,25,0,6,,,,,,,2,,,,89,77
61900,note_on,,25,0,5,,,,,,,1,,,,89,77
61905,note_on,,5,0,5,,,,,,,1,,,,83,55
61905,note_on,,5,0,6,,,,,,,2,,,,83,55
61915,note_on,,10,0,6,,,,,,,2,,,,84,59
61915,note_on,,10,0,5,,,,,,,1,,,,84,59
61950,note_off,,35,0,5,,,,,,,1,,,,84,0
61950,note_off,,35,0,6,,,,,,,2,,,,84,0
61970,note_off,,20,0,5,,,,,,,1,,,,83,0
61970,note_off,,20,0,6,,,,,,,2,,,,83,0
62030,note_on,,60,0,5,,,,,,,1,,,,97,62
62030,note_on,,60,0,6,,,,,,,2,,,,97,62
62060,note_off,,30,0,6,,,,,,,2,,,,89,0
62060,note_off,,30,0,5,,,,,,,1,,,,89,0
62110,note_on,,50,0,6,,,,,,,2,,,,64,80
62110,note_on,,50,0,5,,,,,,,1,,,,64,80
62130,note_on,,20,0,5,,,,,,,1,,,,65,80
62130,note_on,,20,0,6,,,,,,,2,,,,65,80
62140,note_on,,10,0,5,,,,,,,1,,,,85,50
62140,note_on,,10,0,6,,,,,,,2,,,,85,50
62150,note_off,,10,0,6,,,,,,,2,,,,97,0
62150,note_on,,0,0,5,,,,,,,1,,,,92,76
62150,note_on,,0,0,6,,,,,,,2,,,,92,76
62150,note_off,,10,0,5,,,,,,,1,,,,97,0
62180,note_off,,30,0,5,,,,,,,1,,,,64,0
62180,note_off,,30,0,6,,,,,,,2,,,,64,0
62200,note_off,,20,0,6,,,,,,,2,,,,65,0
62200,note_off,,20,0,5,,,,,,,1,,,,65,0
62205,note_off,,5,0,5,,,,,,,1,,,,85,0
62205,note_off,,5,0,6,,,,,,,2,,,,85,0
62240,note_off,,35,0,5,,,,,,,1,,,,92,0
62240,note_off,,35,0,6,,,,,,,2,,,,92,0
62250,note_on,,10,0,6,,,,,,,2,,,,97,61
62250,note_on,,10,0,5,,,,,,,1,,,,97,61
62355,note_off,,105,0,6,,,,,,,2,,,,97,0
62355,note_off,,105,0,5,,,,,,,1,,,,97,0
62380,note_on,,25,0,5,,,,,,,1,,,,83,91
62380,note_on,,25,0,6,,,,,,,2,,,,83,91
62390,note_on,,10,0,6,,,,,,,2,,,,89,80
62390,note_on,,10,0,5,,,,,,,1,,,,89,80
62450,note_off,,60,0,6,,,,,,,2,,,,83,0
62450,note_off,,60,0,5,,,,,,,1,,,,83,0
62505,note_off,,55,0,5,,,,,,,1,,,,89,0
62505,note_off,,55,0,6,,,,,,,2,,,,89,0
62530,note_on,,25,0,5,,,,,,,1,,,,97,61
62530,note_on,,25,0,6,,,,,,,2,,,,97,61
62585,note_on,,55,0,6,,,,,,,2,,,,69,72
62585,note_on,,55,0,5,,,,,,,1,,,,69,72
62615,note_on,,30,0,5,,,,,,,1,,,,70,91
62615,note_on,,30,0,6,,,,,,,2,,,,70,91
62635,note_off,,20,0,6,,,,,,,2,,,,97,0
62635,note_off,,20,0,5,,,,,,,1,,,,97,0
62645,note_on,,0,0,5,,,,,,,1,,,,85,48
62645,note_on,,10,0,6,,,,,,,2,,,,92,77
62645,note_on,,0,0,6,,,,,,,2,,,,85,48
62645,note_on,,10,0,5,,,,,,,1,,,,92,77
62670,note_off,,25,0,6,,,,,,,2,,,,69,0
62670,note_off,,25,0,5,,,,,,,1,,,,69,0
62700,note_off,,30,0,5,,,,,,,1,,,,70,0
62700,note_off,,30,0,6,,,,,,,2,,,,70,0
62700,note_off,,0,0,5,,,,,,,1,,,,85,0
62700,note_off,,0,0,6,,,,,,,2,,,,85,0
62735,note_off,,35,0,6,,,,,,,2,,,,92,0
62735,note_off,,35,0,5,,,,,,,1,,,,92,0
62750,note_on,,15,0,6,,,,,,,2,,,,97,61
62750,note_on,,15,0,5,,,,,,,1,,,,97,61
62845,note_off,,95,0,6,,,,,,,2,,,,97,0
62845,note_off,,95,0,5,,,,,,,1,,,,97,0
62875,note_on,,30,0,5,,,,,,,1,,,,83,62
62875,note_on,,30,0,6,,,,,,,2,,,,83,62
62880,note_on,,5,0,5,,,,,,,1,,,,89,76
62880,note_on,,5,0,6,,,,,,,2,,,,89,76
62935,note_off,,55,0,6,,,,,,,2,,,,83,0
62935,note_off,,55,0,5,,,,,,,1,,,,83,0
62980,note_off,,45,0,5,,,,,,,1,,,,89,0
62980,note_off,,45,0,6,,,,,,,2,,,,89,0
63015,note_on,,35,0,6,,,,,,,2,,,,97,80
63015,note_on,,35,0,5,,,,,,,1,,,,97,80
63065,note_on,,50,0,5,,,,,,,1,,,,67,80
63065,note_on,,50,0,6,,,,,,,2,,,,67,80
63100,note_on,,35,0,5,,,,,,,1,,,,68,90
63100,note_on,,35,0,6,,,,,,,2,,,,68,90
63105,note_off,,5,0,5,,,,,,,1,,,,97,0
63105,note_off,,5,0,6,,,,,,,2,,,,97,0
63120,note_on,,15,0,6,,,,,,,2,,,,85,50
63120,note_on,,15,0,5,,,,,,,1,,,,85,50
63135,note_on,,15,0,5,,,,,,,1,,,,92,71
63135,note_on,,15,0,6,,,,,,,2,,,,92,71
63160,note_off,,25,0,5,,,,,,,1,,,,67,0
63160,note_off,,25,0,6,,,,,,,2,,,,67,0
63185,note_off,,25,0,5,,,,,,,1,,,,85,0
63185,note_off,,25,0,6,,,,,,,2,,,,85,0
63190,note_off,,5,0,5,,,,,,,1,,,,68,0
63190,note_off,,5,0,6,,,,,,,2,,,,68,0
63215,note_off,,25,0,5,,,,,,,1,,,,92,0
63215,note_off,,25,0,6,,,,,,,2,,,,92,0
63230,note_on,,15,0,6,,,,,,,2,,,,97,61
63230,note_on,,15,0,5,,,,,,,1,,,,97,61
63340,note_off,,110,0,5,,,,,,,1,,,,97,0
63340,note_off,,110,0,6,,,,,,,2,,,,97,0
63360,note_on,,20,0,5,,,,,,,1,,,,82,79
63360,note_on,,20,0,6,,,,,,,2,,,,82,79
63365,note_on,,5,0,5,,,,,,,1,,,,90,78
63365,note_on,,5,0,6,,,,,,,2,,,,90,78
63410,note_off,,45,0,5,,,,,,,1,,,,82,0
63410,note_off,,45,0,6,,,,,,,2,,,,82,0
63470,note_on,,60,0,5,,,,,,,1,,,,97,62
63470,note_on,,60,0,6,,,,,,,2,,,,97,62
63485,note_off,,15,0,5,,,,,,,1,,,,90,0
63485,note_off,,15,0,6,,,,,,,2,,,,90,0
63575,note_on,,90,0,6,,,,,,,2,,,,65,64
63575,note_on,,90,0,5,,,,,,,1,,,,65,64
63580,note_off,,5,0,5,,,,,,,1,,,,97,0
63580,note_off,,5,0,6,,,,,,,2,,,,97,0
63590,note_on,,10,0,6,,,,,,,2,,,,85,50
63590,note_on,,10,0,5,,,,,,,1,,,,85,50
63600,note_on,,10,0,5,,,,,,,1,,,,94,64
63600,note_on,,10,0,6,,,,,,,2,,,,94,64
63605,note_on,,5,0,5,,,,,,,1,,,,66,80
63605,note_on,,5,0,6,,,,,,,2,,,,66,80
63655,note_off,,50,0,6,,,,,,,2,,,,85,0
63655,note_off,,50,0,5,,,,,,,1,,,,85,0
63670,note_off,,15,0,5,,,,,,,1,,,,65,0
63670,note_off,,15,0,6,,,,,,,2,,,,65,0
63685,note_off,,15,0,5,,,,,,,1,,,,66,0
63685,note_off,,15,0,6,,,,,,,2,,,,66,0
63690,note_on,,5,0,6,,,,,,,2,,,,97,61
63690,note_on,,5,0,5,,,,,,,1,,,,97,61
63700,note_off,,10,0,5,,,,,,,1,,,,94,0
63700,note_off,,10,0,6,,,,,,,2,,,,94,0
63790,note_on,,90,0,6,,,,,,,2,,,,64,92
63790,note_on,,90,0,5,,,,,,,1,,,,64,92
63810,note_off,,20,0,5,,,,,,,1,,,,97,0
63810,note_off,,20,0,6,,,,,,,2,,,,97,0
63825,note_on,,15,0,5,,,,,,,1,,,,82,79
63825,note_on,,0,0,6,,,,,,,2,,,,90,77
63825,note_on,,0,0,5,,,,,,,1,,,,90,77
63825,note_on,,15,0,6,,,,,,,2,,,,82,79
63835,note_on,,10,0,6,,,,,,,2,,,,65,91
63835,note_on,,10,0,5,,,,,,,1,,,,65,91
63865,note_off,,30,0,5,,,,,,,1,,,,82,0
63865,note_off,,30,0,6,,,,,,,2,,,,82,0
63895,note_off,,30,0,5,,,,,,,1,,,,64,0
63895,note_off,,30,0,6,,,,,,,2,,,,64,0
63915,note_off,,20,0,6,,,,,,,2,,,,65,0
63915,note_off,,20,0,5,,,,,,,1,,,,65,0
63940,note_on,,25,0,5,,,,,,,1,,,,97,61
63940,note_on,,25,0,6,,,,,,,2,,,,97,61
63945,note_off,,5,0,5,,,,,,,1,,,,90,0
63945,note_off,,5,0,6,,,,,,,2,,,,90,0
64025,note_on,,80,0,6,,,,,,,2,,,,63,80
64025,note_on,,80,0,5,,,,,,,1,,,,63,80
64060,note_on,,35,0,5,,,,,,,1,,,,64,92
64060,note_on,,35,0,6,,,,,,,2,,,,64,92
64065,note_on,,5,0,6,,,,,,,2,,,,85,49
64065,note_on,,5,0,5,,,,,,,1,,,,85,49
64070,note_on,,5,0,6,,,,,,,2,,,,94,77
64070,note_on,,5,0,5,,,,,,,1,,,,94,77
64075,note_off,,5,0,5,,,,,,,1,,,,97,0
64075,note_off,,5,0,6,,,,,,,2,,,,97,0
64125,note_off,,50,0,5,,,,,,,1,,,,63,0
64125,note_off,,50,0,6,,,,,,,2,,,,63,0
64140,note_off,,15,0,5,,,,,,,1,,,,85,0
64140,note_off,,15,0,6,,,,,,,2,,,,85,0
64145,note_off,,5,0,6,,,,,,,2,,,,64,0
64145,note_off,,5,0,5,,,,,,,1,,,,64,0
64160,note_off,,15,0,5,,,,,,,1,,,,94,0
64160,note_off,,15,0,6,,,,,,,2,,,,94,0
64180,note_on,,20,0,6,,,,,,,2,,,,97,62
64180,note_on,,20,0,5,,,,,,,1,,,,97,62
64290,note_off,,110,0,6,,,,,,,2,,,,97,0
64290,note_off,,110,0,5,,,,,,,1,,,,97,0
64305,note_on,,15,0,5,,,,,,,1,,,,82,79
64305,note_on,,15,0,6,,,,,,,2,,,,82,79
64310,note_on,,5,0,6,,,,,,,2,,,,90,77
64310,note_on,,5,0,5,,,,,,,1,,,,90,77
64345,note_off,,35,0,6,,,,,,,2,,,,82,0
64345,note_off,,35,0,5,,,,,,,1,,,,82,0
64420,note_off,,75,0,5,,,,,,,1,,,,90,0
64420,note_off,,75,0,6,,,,,,,2,,,,90,0
64420,note_on,,0,0,5,,,,,,,1,,,,97,54
64420,note_on,,0,0,6,,,,,,,2,,,,97,54
64520,note_on,,100,0,5,,,,,,,1,,,,62,80
64520,note_on,,100,0,6,,,,,,,2,,,,62,80
64545,note_on,,0,0,6,,,,,,,2,,,,85,58
64545,note_on,,25,0,6,,,,,,,2,,,,94,72
64545,note_on,,25,0,5,,,,,,,1,,,,94,72
64545,note_on,,0,0,5,,,,,,,1,,,,85,58
64550,note_off,,5,0,5,,,,,,,1,,,,97,0
64550,note_off,,5,0,6,,,,,,,2,,,,97,0
64550,note_on,,0,0,5,,,,,,,1,,,,63,92
64550,note_on,,0,0,6,,,,,,,2,,,,63,92
64605,note_off,,55,0,6,,,,,,,2,,,,62,0
64605,note_off,,55,0,5,,,,,,,1,,,,62,0
64620,note_off,,15,0,5,,,,,,,1,,,,85,0
64620,note_off,,15,0,6,,,,,,,2,,,,85,0
64635,note_off,,15,0,5,,,,,,,1,,,,63,0
64635,note_off,,15,0,6,,,,,,,2,,,,63,0
64655,note_off,,20,0,5,,,,,,,1,,,,94,0
64655,note_off,,20,0,6,,,,,,,2,,,,94,0
64660,note_on,,5,0,6,,,,,,,2,,,,97,62
64660,note_on,,5,0,5,,,,,,,1,,,,97,62
64770,note_on,,110,0,6,,,,,,,2,,,,61,92
64770,note_on,,110,0,5,,,,,,,1,,,,61,92
64775,note_on,,5,0,5,,,,,,,1,,,,82,79
64775,note_on,,5,0,6,,,,,,,2,,,,82,79
64780,note_on,,5,0,5,,,,,,,1,,,,90,68
64780,note_on,,5,0,6,,,,,,,2,,,,90,68
64785,note_on,,0,0,6,,,,,,,2,,,,62,80
64785,note_off,,5,0,5,,,,,,,1,,,,97,0
64785,note_off,,5,0,6,,,,,,,2,,,,97,0
64785,note_on,,0,0,5,,,,,,,1,,,,62,80
64830,note_off,,45,0,5,,,,,,,1,,,,82,0
64830,note_off,,45,0,6,,,,,,,2,,,,82,0
64865,note_off,,35,0,5,,,,,,,1,,,,61,0
64865,note_off,,35,0,6,,,,,,,2,,,,61,0
64880,note_off,,15,0,5,,,,,,,1,,,,62,0
64880,note_off,,15,0,6,,,,,,,2,,,,62,0
64895,note_on,,15,0,6,,,,,,,2,,,,97,80
64895,note_on,,15,0,5,,,,,,,1,,,,97,80
64930,note_off,,35,0,5,,,,,,,1,,,,90,0
64930,note_off,,35,0,6,,,,,,,2,,,,90,0
65005,note_on,,75,0,6,,,,,,,2,,,,60,72
65005,note_on,,75,0,5,,,,,,,1,,,,60,72
65015,note_on,,10,0,5,,,,,,,1,,,,94,80
65015,note_on,,10,0,6,,,,,,,2,,,,94,80
65020,note_on,,0,0,5,,,,,,,1,,,,85,50
65020,note_off,,5,0,5,,,,,,,1,,,,97,0
65020,note_on,,0,0,6,,,,,,,2,,,,85,50
65020,note_off,,5,0,6,,,,,,,2,,,,97,0
65025,note_on,,5,0,5,,,,,,,1,,,,61,92
65025,note_on,,5,0,6,,,,,,,2,,,,61,92
65085,note_off,,0,0,5,,,,,,,1,,,,85,0
65085,note_off,,0,0,6,,,,,,,2,,,,85,0
65085,note_off,,60,0,6,,,,,,,2,,,,60,0
65085,note_off,,60,0,5,,,,,,,1,,,,60,0
65105,note_off,,20,0,6,,,,,,,2,,,,61,0
65105,note_off,,20,0,5,,,,,,,1,,,,61,0
65125,note_on,,20,0,6,,,,,,,2,,,,97,50
65125,note_on,,20,0,5,,,,,,,1,,,,97,50
65185,note_off,,60,0,6,,,,,,,2,,,,94,0
65185,note_off,,60,0,5,,,,,,,1,,,,94,0
65210,note_off,,25,0,6,,,,,,,2,,,,97,0
65210,note_off,,25,0,5,,,,,,,1,,,,97,0
65240,note_on,,30,0,5,,,,,,,1,,,,89,88
65240,note_on,,0,0,6,,,,,,,2,,,,83,64
65240,note_on,,30,0,6,,,,,,,2,,,,89,88
65240,note_on,,0,0,5,,,,,,,1,,,,83,64
65255,note_on,,15,0,6,,,,,,,2,,,,56,110
65255,note_on,,15,0,5,,,,,,,1,,,,56,110
65295,note_off,,40,0,6,,,,,,,2,,,,83,0
65295,note_off,,40,0,5,,,,,,,1,,,,83,0
65360,note_off,,65,0,5,,,,,,,1,,,,56,0
65360,note_off,,65,0,6,,,,,,,2,,,,56,0
65375,note_on,,15,0,5,,,,,,,1,,,,97,61
65375,note_on,,15,0,6,,,,,,,2,,,,97,61
65405,note_off,,30,0,5,,,,,,,1,,,,89,0
65405,note_off,,30,0,6,,,,,,,2,,,,89,0
65495,note_on,,0,0,5,,,,,,,1,,,,85,49
65495,note_on,,90,0,5,,,,,,,1,,,,92,88
65495,note_on,,90,0,6,,,,,,,2,,,,92,88
65495,note_on,,0,0,6,,,,,,,2,,,,85,49
65500,note_on,,5,0,5,,,,,,,1,,,,65,80
65500,note_on,,5,0,6,,,,,,,2,,,,65,80
65510,note_on,,10,0,5,,,,,,,1,,,,61,88
65510,note_on,,10,0,6,,,,,,,2,,,,61,88
65515,note_off,,5,0,6,,,,,,,2,,,,97,0
65515,note_off,,5,0,5,,,,,,,1,,,,97,0
65550,note_off,,35,0,5,,,,,,,1,,,,85,0
65550,note_off,,35,0,6,,,,,,,2,,,,85,0
65565,note_off,,15,0,5,,,,,,,1,,,,65,0
65565,note_off,,15,0,6,,,,,,,2,,,,65,0
65580,note_off,,15,0,6,,,,,,,2,,,,61,0
65580,note_off,,15,0,5,,,,,,,1,,,,61,0
65595,note_on,,0,0,6,,,,,,,2,,,,97,61
65595,note_off,,15,0,5,,,,,,,1,,,,92,0
65595,note_off,,15,0,6,,,,,,,2,,,,92,0
65595,note_on,,0,0,5,,,,,,,1,,,,97,61
65690,note_off,,95,0,5,,,,,,,1,,,,97,0
65690,note_off,,95,0,6,,,,,,,2,,,,97,0
65710,note_on,,20,0,5,,,,,,,1,,,,89,78
65710,note_on,,20,0,6,,,,,,,2,,,,89,78
65720,note_on,,10,0,5,,,,,,,1,,,,83,48
65720,note_on,,10,0,6,,,,,,,2,,,,83,48
65740,note_on,,20,0,6,,,,,,,2,,,,49,91
65740,note_on,,20,0,5,,,,,,,1,,,,49,91
65780,note_off,,40,0,5,,,,,,,1,,,,83,0
65780,note_off,,40,0,6,,,,,,,2,,,,83,0
65800,note_off,,20,0,6,,,,,,,2,,,,49,0
65800,note_off,,20,0,5,,,,,,,1,,,,49,0
65845,note_on,,45,0,5,,,,,,,1,,,,97,80
65845,note_on,,45,0,6,,,,,,,2,,,,97,80
65885,note_off,,40,0,6,,,,,,,2,,,,89,0
65885,note_off,,40,0,5,,,,,,,1,,,,89,0
65895,note_on,,10,0,5,,,,,,,1,,,,61,37
65895,note_on,,10,0,6,,,,,,,2,,,,61,37
65935,note_off,,40,0,5,,,,,,,1,,,,61,0
65935,note_off,,40,0,6,,,,,,,2,,,,61,0
65970,note_on,,0,0,5,,,,,,,1,,,,85,34
65970,note_on,,0,0,5,,,,,,,1,,,,61,79
65970,note_on,,0,0,6,,,,,,,2,,,,61,79
65970,note_on,,0,0,6,,,,,,,2,,,,85,34
65970,note_on,,35,0,5,,,,,,,1,,,,92,78
65970,note_on,,35,0,6,,,,,,,2,,,,92,78
65975,note_on,,5,0,5,,,,,,,1,,,,65,77
65975,note_on,,5,0,6,,,,,,,2,,,,65,77
65980,note_off,,5,0,5,,,,,,,1,,,,97,0
65980,note_off,,5,0,6,,,,,,,2,,,,97,0
66035,note_off,,55,0,5,,,,,,,1,,,,61,0
66035,note_off,,55,0,6,,,,,,,2,,,,61,0
66040,note_off,,5,0,5,,,,,,,1,,,,65,0
66040,note_off,,5,0,6,,,,,,,2,,,,65,0
66045,note_off,,5,0,6,,,,,,,2,,,,85,0
66045,note_off,,5,0,5,,,,,,,1,,,,85,0
66080,note_off,,35,0,5,,,,,,,1,,,,92,0
66080,note_off,,35,0,6,,,,,,,2,,,,92,0
66085,note_on,,5,0,5,,,,,,,1,,,,97,80
66085,note_on,,5,0,6,,,,,,,2,,,,97,80
66185,note_off,,100,0,5,,,,,,,1,,,,97,0
66185,note_off,,100,0,6,,,,,,,2,,,,97,0
66200,note_on,,15,0,5,,,,,,,1,,,,83,78
66200,note_on,,15,0,6,,,,,,,2,,,,83,78
66205,note_on,,5,0,5,,,,,,,1,,,,89,76
66205,note_on,,5,0,6,,,,,,,2,,,,89,76
66215,note_on,,10,0,6,,,,,,,2,,,,68,68
66215,note_on,,0,0,6,,,,,,,2,,,,72,77
66215,note_on,,10,0,5,,,,,,,1,,,,68,68
66215,note_on,,0,0,5,,,,,,,1,,,,72,77
66270,note_off,,55,0,5,,,,,,,1,,,,83,0
66270,note_off,,55,0,6,,,,,,,2,,,,83,0
66290,note_off,,20,0,5,,,,,,,1,,,,72,0
66290,note_off,,20,0,6,,,,,,,2,,,,72,0
66310,note_on,,20,0,5,,,,,,,1,,,,97,80
66310,note_on,,20,0,6,,,,,,,2,,,,97,80
66315,note_off,,5,0,6,,,,,,,2,,,,68,0
66315,note_off,,5,0,5,,,,,,,1,,,,68,0
66365,note_off,,50,0,5,,,,,,,1,,,,89,0
66365,note_off,,50,0,6,,,,,,,2,,,,89,0
66410,note_on,,45,0,6,,,,,,,2,,,,89,64
66410,note_on,,45,0,5,,,,,,,1,,,,89,64
66420,note_on,,10,0,6,,,,,,,2,,,,85,42
66420,note_on,,10,0,5,,,,,,,1,,,,85,42
66455,note_off,,35,0,6,,,,,,,2,,,,97,0
66455,note_off,,35,0,5,,,,,,,1,,,,97,0
66460,note_on,,0,0,6,,,,,,,2,,,,65,79
66460,note_on,,5,0,5,,,,,,,1,,,,92,56
66460,note_on,,0,0,5,,,,,,,1,,,,65,79
66460,note_on,,5,0,6,,,,,,,2,,,,92,56
66465,note_on,,5,0,6,,,,,,,2,,,,73,77
66465,note_on,,5,0,5,,,,,,,1,,,,73,77
66525,note_off,,0,0,6,,,,,,,2,,,,85,0
66525,note_off,,0,0,6,,,,,,,2,,,,89,0
66525,note_off,,60,0,6,,,,,,,2,,,,73,0
66525,note_off,,60,0,5,,,,,,,1,,,,73,0
66525,note_off,,0,0,5,,,,,,,1,,,,89,0
66525,note_off,,0,0,5,,,,,,,1,,,,85,0
66545,note_off,,20,0,6,,,,,,,2,,,,65,0
66545,note_off,,20,0,5,,,,,,,1,,,,65,0
66550,note_on,,5,0,5,,,,,,,1,,,,97,41
66550,note_on,,5,0,6,,,,,,,2,,,,97,41
66575,note_off,,25,0,6,,,,,,,2,,,,97,0
66575,note_off,,25,0,5,,,,,,,1,,,,97,0
66585,note_off,,10,0,6,,,,,,,2,,,,92,0
66585,note_off,,10,0,5,,,,,,,1,,,,92,0
66690,note_on,,105,0,5,,,,,,,1,,,,89,91
66690,note_on,,105,0,6,,,,,,,2,,,,89,91
66695,note_on,,0,0,5,,,,,,,1,,,,85,58
66695,note_on,,5,0,6,,,,,,,2,,,,77,88
66695,note_on,,5,0,5,,,,,,,1,,,,77,88
66695,note_on,,0,0,6,,,,,,,2,,,,85,58
66710,note_on,,15,0,5,,,,,,,1,,,,68,80
66710,note_on,,15,0,6,,,,,,,2,,,,68,80
66720,note_on,,10,0,5,,,,,,,1,,,,71,80
66720,note_on,,10,0,6,,,,,,,2,,,,71,80
66915,note_off,,195,0,5,,,,,,,1,,,,77,0
66915,note_off,,195,0,6,,,,,,,2,,,,77,0
66925,note_off,,10,0,5,,,,,,,1,,,,71,0
66925,note_off,,10,0,6,,,,,,,2,,,,71,0
66945,note_off,,20,0,5,,,,,,,1,,,,85,0
66945,note_off,,20,0,6,,,,,,,2,,,,85,0
66950,note_off,,5,0,6,,,,,,,2,,,,68,0
66950,note_off,,5,0,5,,,,,,,1,,,,68,0
66955,note_off,,5,0,6,,,,,,,2,,,,89,0
66955,note_off,,5,0,5,,,,,,,1,,,,89,0
67050,note_on,,95,0,6,,,,,,,2,,,,73,71
67050,note_on,,95,0,5,,,,,,,1,,,,73,71
67085,note_off,,35,0,6,,,,,,,2,,,,73,0
67085,note_off,,35,0,5,,,,,,,1,,,,73,0
67200,note_on,,115,0,6,,,,,,,2,,,,54,64
67200,note_on,,115,0,5,,,,,,,1,,,,54,64
67220,note_on,,20,0,5,,,,,,,1,,,,82,92
67220,note_on,,20,0,6,,,,,,,2,,,,82,92
67225,note_on,,5,0,5,,,,,,,1,,,,90,80
67225,note_on,,5,0,6,,,,,,,2,,,,90,80
67280,note_off,,0,0,5,,,,,,,1,,,,54,0
67280,note_off,,55,0,6,,,,,,,2,,,,82,0
67280,note_off,,55,0,5,,,,,,,1,,,,82,0
67280,note_off,,0,0,6,,,,,,,2,,,,54,0
67325,note_on,,45,0,6,,,,,,,2,,,,97,61
67325,note_on,,45,0,5,,,,,,,1,,,,97,61
67375,note_off,,50,0,6,,,,,,,2,,,,90,0
67375,note_off,,50,0,5,,,,,,,1,,,,90,0
67420,note_off,,45,0,6,,,,,,,2,,,,97,0
67420,note_off,,45,0,5,,,,,,,1,,,,97,0
67430,note_on,,10,0,5,,,,,,,1,,,,66,79
67430,note_on,,10,0,6,,,,,,,2,,,,66,79
67435,note_on,,5,0,6,,,,,,,2,,,,61,78
67435,note_on,,5,0,5,,,,,,,1,,,,61,78
67440,note_on,,5,0,6,,,,,,,2,,,,85,50
67440,note_on,,5,0,5,,,,,,,1,,,,85,50
67450,note_on,,10,0,5,,,,,,,1,,,,94,80
67450,note_on,,10,0,6,,,,,,,2,,,,94,80
67480,note_off,,30,0,5,,,,,,,1,,,,66,0
67480,note_off,,30,0,6,,,,,,,2,,,,66,0
67505,note_off,,25,0,5,,,,,,,1,,,,85,0
67505,note_off,,25,0,6,,,,,,,2,,,,85,0
67510,note_off,,5,0,6,,,,,,,2,,,,61,0
67510,note_off,,5,0,5,,,,,,,1,,,,61,0
67545,note_on,,0,0,6,,,,,,,2,,,,97,58
67545,note_off,,35,0,6,,,,,,,2,,,,94,0
67545,note_on,,0,0,5,,,,,,,1,,,,97,58
67545,note_off,,35,0,5,,,,,,,1,,,,94,0
67635,note_off,,90,0,5,,,,,,,1,,,,97,0
67635,note_off,,90,0,6,,,,,,,2,,,,97,0
67655,note_on,,20,0,6,,,,,,,2,,,,49,72
67655,note_on,,20,0,5,,,,,,,1,,,,49,72
67665,note_on,,10,0,5,,,,,,,1,,,,82,78
67665,note_on,,10,0,6,,,,,,,2,,,,82,78
67665,note_on,,0,0,6,,,,,,,2,,,,90,90
67665,note_on,,0,0,5,,,,,,,1,,,,90,90
67705,note_off,,40,0,5,,,,,,,1,,,,82,0
67705,note_off,,40,0,6,,,,,,,2,,,,82,0
67730,note_off,,25,0,6,,,,,,,2,,,,49,0
67730,note_off,,25,0,5,,,,,,,1,,,,49,0
67770,note_on,,40,0,5,,,,,,,1,,,,97,60
67770,note_on,,40,0,6,,,,,,,2,,,,97,60
67820,note_off,,50,0,5,,,,,,,1,,,,90,0
67820,note_off,,50,0,6,,,,,,,2,,,,90,0
67870,note_off,,50,0,5,,,,,,,1,,,,97,0
67870,note_off,,50,0,6,,,,,,,2,,,,97,0
67895,note_on,,25,0,6,,,,,,,2,,,,85,50
67895,note_on,,25,0,5,,,,,,,1,,,,85,50
67900,note_on,,5,0,6,,,,,,,2,,,,66,71
67900,note_on,,5,0,5,,,,,,,1,,,,66,71
67905,note_on,,5,0,6,,,,,,,2,,,,94,72
67905,note_on,,5,0,5,,,,,,,1,,,,94,72
67910,note_on,,5,0,5,,,,,,,1,,,,61,72
67910,note_on,,5,0,6,,,,,,,2,,,,61,72
67950,note_off,,40,0,6,,,,,,,2,,,,61,0
67950,note_off,,40,0,5,,,,,,,1,,,,61,0
67960,note_off,,0,0,6,,,,,,,2,,,,85,0
67960,note_off,,0,0,5,,,,,,,1,,,,85,0
67960,note_off,,10,0,5,,,,,,,1,,,,66,0
67960,note_off,,10,0,6,,,,,,,2,,,,66,0
68005,note_off,,45,0,6,,,,,,,2,,,,94,0
68005,note_off,,45,0,5,,,,,,,1,,,,94,0
68010,note_on,,5,0,5,,,,,,,1,,,,97,54
68010,note_on,,5,0,6,,,,,,,2,,,,97,54
68090,note_off,,80,0,6,,,,,,,2,,,,97,0
68090,note_off,,80,0,5,,,,,,,1,,,,97,0
68105,note_on,,15,0,6,,,,,,,2,,,,82,92
68105,note_on,,15,0,5,,,,,,,1,,,,82,92
68115,note_on,,10,0,5,,,,,,,1,,,,90,80
68115,note_on,,10,0,6,,,,,,,2,,,,90,80
68125,note_on,,10,0,6,,,,,,,2,,,,69,80
68125,note_on,,10,0,5,,,,,,,1,,,,69,80
68130,note_on,,5,0,5,,,,,,,1,,,,72,88
68130,note_on,,5,0,6,,,,,,,2,,,,72,88
68155,note_off,,25,0,5,,,,,,,1,,,,82,0
68155,note_off,,25,0,6,,,,,,,2,,,,82,0
68195,note_off,,0,0,6,,,,,,,2,,,,72,0
68195,note_off,,40,0,6,,,,,,,2,,,,69,0
68195,note_off,,0,0,5,,,,,,,1,,,,72,0
68195,note_off,,40,0,5,,,,,,,1,,,,69,0
68210,note_on,,15,0,5,,,,,,,1,,,,97,62
68210,note_on,,15,0,6,,,,,,,2,,,,97,62
68280,note_off,,70,0,6,,,,,,,2,,,,90,0
68280,note_off,,70,0,5,,,,,,,1,,,,90,0
68325,note_on,,45,0,6,,,,,,,2,,,,85,42
68325,note_on,,45,0,5,,,,,,,1,,,,85,42
68355,note_off,,30,0,5,,,,,,,1,,,,97,0
68355,note_off,,30,0,6,,,,,,,2,,,,97,0
68360,note_on,,5,0,5,,,,,,,1,,,,94,64
68360,note_on,,5,0,6,,,,,,,2,,,,94,64
68365,note_on,,5,0,6,,,,,,,2,,,,70,88
68365,note_on,,5,0,5,,,,,,,1,,,,70,88
68365,note_on,,0,0,6,,,,,,,2,,,,73,88
68365,note_on,,0,0,5,,,,,,,1,,,,73,88
68415,note_off,,50,0,6,,,,,,,2,,,,85,0
68415,note_off,,50,0,5,,,,,,,1,,,,85,0
68435,note_off,,20,0,5,,,,,,,1,,,,73,0
68435,note_off,,20,0,6,,,,,,,2,,,,73,0
68450,note_on,,0,0,5,,,,,,,1,,,,97,50
68450,note_on,,0,0,6,,,,,,,2,,,,97,50
68450,note_off,,15,0,6,,,,,,,2,,,,70,0
68450,note_off,,15,0,5,,,,,,,1,,,,70,0
68470,note_off,,20,0,5,,,,,,,1,,,,94,0
68470,note_off,,20,0,6,,,,,,,2,,,,94,0
68480,note_off,,10,0,6,,,,,,,2,,,,97,0
68480,note_off,,10,0,5,,,,,,,1,,,,97,0
68605,note_on,,125,0,6,,,,,,,2,,,,70,88
68605,note_on,,125,0,5,,,,,,,1,,,,70,88
68605,note_on,,0,0,5,,,,,,,1,,,,66,77
68605,note_on,,0,0,6,,,,,,,2,,,,66,77
68615,note_on,,10,0,5,,,,,,,1,,,,90,95
68615,note_on,,0,0,6,,,,,,,2,,,,85,58
68615,note_on,,0,0,5,,,,,,,1,,,,85,58
68615,note_on,,10,0,6,,,,,,,2,,,,90,95
68620,note_on,,5,0,5,,,,,,,1,,,,78,80
68620,note_on,,5,0,6,,,,,,,2,,,,78,80
68840,note_off,,220,0,5,,,,,,,1,,,,78,0
68840,note_off,,220,0,6,,,,,,,2,,,,78,0
68865,note_off,,25,0,6,,,,,,,2,,,,85,0
68865,note_off,,25,0,5,,,,,,,1,,,,85,0
68875,note_off,,10,0,5,,,,,,,1,,,,90,0
68875,note_off,,10,0,6,,,,,,,2,,,,90,0
68960,note_off,,85,0,5,,,,,,,1,,,,70,0
68960,note_off,,85,0,6,,,,,,,2,,,,70,0
68970,note_off,,10,0,6,,,,,,,2,,,,66,0
68970,note_off,,10,0,5,,,,,,,1,,,,66,0
68980,note_on,,10,0,6,,,,,,,2,,,,73,72
68980,note_on,,10,0,5,,,,,,,1,,,,73,72
69010,note_off,,30,0,6,,,,,,,2,,,,73,0
69010,note_off,,30,0,5,,,,,,,1,,,,73,0
69135,note_on,,125,0,6,,,,,,,2,,,,56,37
69135,note_on,,125,0,5,,,,,,,1,,,,56,37
69160,note_on,,25,0,6,,,,,,,2,,,,83,64
69160,note_on,,25,0,5,,,,,,,1,,,,83,64
69165,note_off,,5,0,5,,,,,,,1,,,,56,0
69165,note_off,,5,0,6,,,,,,,2,,,,56,0
69170,note_on,,5,0,5,,,,,,,1,,,,89,71
69170,note_on,,5,0,6,,,,,,,2,,,,89,71
69220,note_off,,50,0,5,,,,,,,1,,,,83,0
69220,note_off,,50,0,6,,,,,,,2,,,,83,0
69275,note_on,,55,0,5,,,,,,,1,,,,97,50
69275,note_on,,55,0,6,,,,,,,2,,,,97,50
69315,note_off,,40,0,5,,,,,,,1,,,,89,0
69315,note_off,,40,0,6,,,,,,,2,,,,89,0
69380,note_on,,65,0,6,,,,,,,2,,,,65,69
69380,note_on,,0,0,6,,,,,,,2,,,,61,77
69380,note_on,,0,0,5,,,,,,,1,,,,61,77
69380,note_on,,0,0,6,,,,,,,2,,,,85,41
69380,note_on,,0,0,5,,,,,,,1,,,,85,41
69380,note_on,,65,0,5,,,,,,,1,,,,65,69
69395,note_on,,0,0,5,,,,,,,1,,,,92,61
69395,note_off,,15,0,5,,,,,,,1,,,,97,0
69395,note_on,,0,0,6,,,,,,,2,,,,92,61
69395,note_off,,15,0,6,,,,,,,2,,,,97,0
69445,note_off,,50,0,5,,,,,,,1,,,,61,0
69445,note_off,,50,0,6,,,,,,,2,,,,61,0
69450,note_off,,5,0,5,,,,,,,1,,,,85,0
69450,note_off,,5,0,6,,,,,,,2,,,,85,0
69455,note_off,,5,0,6,,,,,,,2,,,,65,0
69455,note_off,,5,0,5,,,,,,,1,,,,65,0
69500,note_on,,45,0,5,,,,,,,1,,,,97,50
69500,note_on,,45,0,6,,,,,,,2,,,,97,50
69540,note_off,,40,0,5,,,,,,,1,,,,92,0
69540,note_off,,40,0,6,,,,,,,2,,,,92,0
69585,note_off,,45,0,6,,,,,,,2,,,,97,0
69585,note_off,,45,0,5,,,,,,,1,,,,97,0
69610,note_on,,25,0,5,,,,,,,1,,,,83,79
69610,note_on,,25,0,6,,,,,,,2,,,,83,79
69615,note_on,,5,0,5,,,,,,,1,,,,89,88
69615,note_on,,5,0,6,,,,,,,2,,,,89,88
69625,note_on,,10,0,6,,,,,,,2,,,,49,91
69625,note_on,,10,0,5,,,,,,,1,,,,49,91
69675,note_off,,50,0,5,,,,,,,1,,,,83,0
69675,note_off,,50,0,6,,,,,,,2,,,,83,0
69715,note_off,,40,0,6,,,,,,,2,,,,49,0
69715,note_off,,40,0,5,,,,,,,1,,,,49,0
69745,note_on,,30,0,6,,,,,,,2,,,,97,61
69745,note_on,,30,0,5,,,,,,,1,,,,97,61
69790,note_off,,45,0,5,,,,,,,1,,,,89,0
69790,note_off,,45,0,6,,,,,,,2,,,,89,0
69855,note_on,,65,0,5,,,,,,,1,,,,92,78
69855,note_on,,65,0,6,,,,,,,2,,,,92,78
69860,note_on,,5,0,6,,,,,,,2,,,,61,69
69860,note_on,,5,0,5,,,,,,,1,,,,61,69
69860,note_on,,0,0,5,,,,,,,1,,,,65,77
69860,note_on,,0,0,5,,,,,,,1,,,,85,31
69860,note_on,,0,0,6,,,,,,,2,,,,85,31
69860,note_on,,0,0,6,,,,,,,2,,,,65,77
69865,note_off,,5,0,5,,,,,,,1,,,,97,0
69865,note_off,,5,0,6,,,,,,,2,,,,97,0
69910,note_off,,45,0,6,,,,,,,2,,,,61,0
69910,note_off,,45,0,5,,,,,,,1,,,,61,0
69915,note_off,,5,0,6,,,,,,,2,,,,85,0
69915,note_off,,5,0,5,,,,,,,1,,,,85,0
69930,note_off,,15,0,5,,,,,,,1,,,,65,0
69930,note_off,,15,0,6,,,,,,,2,,,,65,0
69960,note_off,,30,0,6,,,,,,,2,,,,92,0
69960,note_off,,30,0,5,,,,,,,1,,,,92,0
69965,note_on,,5,0,6,,,,,,,2,,,,97,62
69965,note_on,,5,0,5,,,,,,,1,,,,97,62
70065,note_off,,100,0,6,,,,,,,2,,,,97,0
70065,note_off,,100,0,5,,,,,,,1,,,,97,0
70080,note_on,,0,0,6,,,,,,,2,,,,83,58
70080,note_on,,0,0,5,,,,,,,1,,,,83,58
70080,note_on,,15,0,6,,,,,,,2,,,,89,78
70080,note_on,,15,0,5,,,,,,,1,,,,89,78
70095,note_on,,15,0,6,,,,,,,2,,,,68,71
70095,note_on,,15,0,5,,,,,,,1,,,,68,71
70100,note_on,,5,0,5,,,,,,,1,,,,84,52
70100,note_on,,5,0,6,,,,,,,2,,,,84,52
70105,note_on,,5,0,5,,,,,,,1,,,,72,71
70105,note_on,,5,0,6,,,,,,,2,,,,72,71
70115,note_on,,10,0,6,,,,,,,2,,,,92,15
70115,note_on,,10,0,5,,,,,,,1,,,,92,15
70120,note_off,,5,0,6,,,,,,,2,,,,92,0
70120,note_off,,5,0,5,,,,,,,1,,,,92,0
70130,note_off,,10,0,6,,,,,,,2,,,,84,0
70130,note_off,,10,0,5,,,,,,,1,,,,84,0
70150,note_off,,20,0,6,,,,,,,2,,,,83,0
70150,note_off,,20,0,5,,,,,,,1,,,,83,0
70160,note_off,,10,0,5,,,,,,,1,,,,72,0
70160,note_off,,10,0,6,,,,,,,2,,,,72,0
70185,note_off,,25,0,6,,,,,,,2,,,,68,0
70185,note_off,,25,0,5,,,,,,,1,,,,68,0
70195,note_on,,10,0,5,,,,,,,1,,,,97,80
70195,note_on,,10,0,6,,,,,,,2,,,,97,80
70260,note_off,,65,0,6,,,,,,,2,,,,89,0
70260,note_off,,65,0,5,,,,,,,1,,,,89,0
70280,note_on,,20,0,6,,,,,,,2,,,,89,47
70280,note_on,,20,0,5,,,,,,,1,,,,89,47
70290,note_on,,10,0,5,,,,,,,1,,,,85,34
70290,note_on,,10,0,6,,,,,,,2,,,,85,34
70315,note_off,,25,0,6,,,,,,,2,,,,97,0
70315,note_on,,0,0,5,,,,,,,1,,,,92,71
70315,note_off,,25,0,5,,,,,,,1,,,,97,0
70315,note_on,,0,0,6,,,,,,,2,,,,92,71
70325,note_on,,10,0,6,,,,,,,2,,,,65,80
70325,note_on,,10,0,5,,,,,,,1,,,,65,80
70330,note_on,,5,0,5,,,,,,,1,,,,73,80
70330,note_on,,5,0,6,,,,,,,2,,,,73,80
70360,note_off,,30,0,5,,,,,,,1,,,,89,0
70360,note_off,,30,0,6,,,,,,,2,,,,89,0
70375,note_off,,15,0,5,,,,,,,1,,,,85,0
70375,note_off,,15,0,6,,,,,,,2,,,,85,0
70390,note_off,,0,0,6,,,,,,,2,,,,73,0
70390,note_off,,0,0,5,,,,,,,1,,,,73,0
70390,note_off,,15,0,5,,,,,,,1,,,,65,0
70390,note_off,,15,0,6,,,,,,,2,,,,65,0
70395,note_on,,5,0,6,,,,,,,2,,,,97,50
70395,note_on,,5,0,5,,,,,,,1,,,,97,50
70425,note_off,,30,0,5,,,,,,,1,,,,92,0
70425,note_off,,30,0,6,,,,,,,2,,,,92,0
70435,note_off,,10,0,5,,,,,,,1,,,,97,0
70435,note_off,,10,0,6,,,,,,,2,,,,97,0
70550,note_on,,115,0,6,,,,,,,2,,,,89,88
70550,note_on,,115,0,5,,,,,,,1,,,,89,88
70555,note_on,,5,0,6,,,,,,,2,,,,77,84
70555,note_on,,5,0,5,,,,,,,1,,,,77,84
70560,note_on,,5,0,6,,,,,,,2,,,,85,47
70560,note_on,,5,0,5,,,,,,,1,,,,85,47
70565,note_on,,5,0,6,,,,,,,2,,,,71,92
70565,note_on,,5,0,5,,,,,,,1,,,,71,92
70575,note_on,,10,0,6,,,,,,,2,,,,68,92
70575,note_on,,10,0,5,,,,,,,1,,,,68,92
70740,note_off,,165,0,5,,,,,,,1,,,,68,0
70740,note_off,,165,0,6,,,,,,,2,,,,68,0
70745,note_off,,5,0,5,,,,,,,1,,,,77,0
70745,note_off,,5,0,6,,,,,,,2,,,,77,0
70770,note_off,,25,0,5,,,,,,,1,,,,85,0
70770,note_off,,25,0,6,,,,,,,2,,,,85,0
70775,note_off,,5,0,5,,,,,,,1,,,,89,0
70775,note_off,,5,0,6,,,,,,,2,,,,89,0
70890,note_off,,115,0,5,,,,,,,1,,,,71,0
70890,note_off,,115,0,6,,,,,,,2,,,,71,0
70950,note_on,,60,0,6,,,,,,,2,,,,73,92
70950,note_on,,60,0,5,,,,,,,1,,,,73,92
71000,note_off,,50,0,5,,,,,,,1,,,,73,0
71000,note_off,,50,0,6,,,,,,,2,,,,73,0
71050,note_on,,50,0,5,,,,,,,1,,,,54,91
71050,note_on,,50,0,6,,,,,,,2,,,,54,91
71060,note_on,,10,0,5,,,,,,,1,,,,82,80
71060,note_on,,10,0,6,,,,,,,2,,,,82,80
71070,note_on,,10,0,6,,,,,,,2,,,,90,71
71070,note_on,,10,0,5,,,,,,,1,,,,90,71
71110,note_off,,40,0,5,,,,,,,1,,,,54,0
71110,note_off,,40,0,6,,,,,,,2,,,,54,0
71120,note_off,,10,0,5,,,,,,,1,,,,82,0
71120,note_off,,10,0,6,,,,,,,2,,,,82,0
71170,note_on,,50,0,6,,,,,,,2,,,,97,61
71170,note_on,,50,0,5,,,,,,,1,,,,97,61
71180,note_off,,10,0,5,,,,,,,1,,,,90,0
71180,note_off,,10,0,6,,,,,,,2,,,,90,0
71285,note_off,,105,0,5,,,,,,,1,,,,97,0
71285,note_off,,105,0,6,,,,,,,2,,,,97,0
71290,note_on,,0,0,5,,,,,,,1,,,,85,50
71290,note_on,,5,0,5,,,,,,,1,,,,61,69
71290,note_on,,0,0,5,,,,,,,1,,,,66,91
71290,note_on,,5,0,6,,,,,,,2,,,,61,69
71290,note_on,,0,0,6,,,,,,,2,,,,85,50
71290,note_on,,0,0,6,,,,,,,2,,,,66,91
71300,note_on,,10,0,5,,,,,,,1,,,,94,71
71300,note_on,,10,0,6,,,,,,,2,,,,94,71
71345,note_off,,45,0,5,,,,,,,1,,,,61,0
71345,note_off,,45,0,6,,,,,,,2,,,,61,0
71355,note_off,,10,0,5,,,,,,,1,,,,85,0
71355,note_off,,10,0,6,,,,,,,2,,,,85,0
71365,note_off,,10,0,5,,,,,,,1,,,,66,0
71365,note_off,,10,0,6,,,,,,,2,,,,66,0
71390,note_off,,25,0,5,,,,,,,1,,,,94,0
71390,note_off,,25,0,6,,,,,,,2,,,,94,0
71395,note_on,,5,0,5,,,,,,,1,,,,97,50
71395,note_on,,5,0,6,,,,,,,2,,,,97,50
71475,note_off,,80,0,5,,,,,,,1,,,,97,0
71475,note_off,,80,0,6,,,,,,,2,,,,97,0
71505,note_on,,30,0,6,,,,,,,2,,,,82,80
71505,note_on,,30,0,5,,,,,,,1,,,,82,80
71515,note_on,,10,0,6,,,,,,,2,,,,90,72
71515,note_on,,10,0,5,,,,,,,1,,,,90,72
71520,note_on,,5,0,6,,,,,,,2,,,,49,110
71520,note_on,,5,0,5,,,,,,,1,,,,49,110
71565,note_off,,45,0,5,,,,,,,1,,,,82,0
71565,note_off,,45,0,6,,,,,,,2,,,,82,0
71600,note_off,,35,0,6,,,,,,,2,,,,49,0
71600,note_off,,35,0,5,,,,,,,1,,,,49,0
71615,note_on,,15,0,6,,,,,,,2,,,,97,62
71615,note_on,,15,0,5,,,,,,,1,,,,97,62
71625,note_off,,10,0,6,,,,,,,2,,,,90,0
71625,note_off,,10,0,5,,,,,,,1,,,,90,0
71730,note_on,,105,0,5,,,,,,,1,,,,61,79
71730,note_on,,105,0,6,,,,,,,2,,,,61,79
71735,note_on,,5,0,6,,,,,,,2,,,,66,78
71735,note_on,,5,0,5,,,,,,,1,,,,66,78
71740,note_on,,5,0,5,,,,,,,1,,,,85,50
71740,note_on,,5,0,6,,,,,,,2,,,,85,50
71750,note_on,,10,0,6,,,,,,,2,,,,94,80
71750,note_on,,10,0,5,,,,,,,1,,,,94,80
71755,note_off,,5,0,5,,,,,,,1,,,,97,0
71755,note_off,,5,0,6,,,,,,,2,,,,97,0
71785,note_off,,30,0,6,,,,,,,2,,,,61,0
71785,note_off,,30,0,5,,,,,,,1,,,,61,0
71805,note_off,,20,0,5,,,,,,,1,,,,66,0
71805,note_off,,20,0,6,,,,,,,2,,,,66,0
71815,note_off,,10,0,5,,,,,,,1,,,,85,0
71815,note_off,,10,0,6,,,,,,,2,,,,85,0
71830,note_off,,15,0,5,,,,,,,1,,,,94,0
71830,note_off,,15,0,6,,,,,,,2,,,,94,0
71855,note_on,,25,0,5,,,,,,,1,,,,97,50
71855,note_on,,25,0,6,,,,,,,2,,,,97,50
71955,note_off,,100,0,5,,,,,,,1,,,,97,0
71955,note_off,,100,0,6,,,,,,,2,,,,97,0
71965,note_on,,10,0,5,,,,,,,1,,,,82,92
71965,note_on,,10,0,6,,,,,,,2,,,,82,92
71970,note_on,,0,0,5,,,,,,,1,,,,72,104
71970,note_on,,5,0,6,,,,,,,2,,,,69,90
71970,note_on,,0,0,6,,,,,,,2,,,,72,104
71970,note_on,,5,0,5,,,,,,,1,,,,69,90
71980,note_on,,10,0,6,,,,,,,2,,,,90,72
71980,note_on,,10,0,5,,,,,,,1,,,,90,72
72020,note_off,,40,0,5,,,,,,,1,,,,82,0
72020,note_off,,40,0,6,,,,,,,2,,,,82,0
72030,note_off,,10,0,5,,,,,,,1,,,,72,0
72030,note_off,,10,0,6,,,,,,,2,,,,72,0
72040,note_off,,10,0,6,,,,,,,2,,,,69,0
72040,note_off,,10,0,5,,,,,,,1,,,,69,0
72075,note_on,,35,0,5,,,,,,,1,,,,97,80
72075,note_on,,35,0,6,,,,,,,2,,,,97,80
72085,note_off,,10,0,6,,,,,,,2,,,,90,0
72085,note_off,,10,0,5,,,,,,,1,,,,90,0
72165,note_on,,80,0,6,,,,,,,2,,,,85,42
72165,note_on,,80,0,5,,,,,,,1,,,,85,42
72200,note_on,,35,0,5,,,,,,,1,,,,94,80
72200,note_on,,35,0,6,,,,,,,2,,,,94,80
72210,note_off,,10,0,5,,,,,,,1,,,,97,0
72210,note_on,,0,0,6,,,,,,,2,,,,73,88
72210,note_on,,0,0,5,,,,,,,1,,,,70,90
72210,note_on,,0,0,6,,,,,,,2,,,,70,90
72210,note_off,,10,0,6,,,,,,,2,,,,97,0
72210,note_on,,0,0,5,,,,,,,1,,,,73,88
72255,note_off,,45,0,6,,,,,,,2,,,,85,0
72255,note_off,,45,0,5,,,,,,,1,,,,85,0
72280,note_off,,25,0,6,,,,,,,2,,,,70,0
72280,note_off,,25,0,5,,,,,,,1,,,,70,0
72290,note_off,,10,0,5,,,,,,,1,,,,73,0
72290,note_off,,10,0,6,,,,,,,2,,,,73,0
72295,note_off,,5,0,6,,,,,,,2,,,,94,0
72295,note_off,,5,0,5,,,,,,,1,,,,94,0
72315,note_on,,20,0,6,,,,,,,2,,,,97,61
72315,note_on,,20,0,5,,,,,,,1,,,,97,61
72360,note_off,,45,0,5,,,,,,,1,,,,97,0
72360,note_off,,45,0,6,,,,,,,2,,,,97,0
72435,note_on,,75,0,5,,,,,,,1,,,,70,90
72435,note_on,,75,0,6,,,,,,,2,,,,70,90
72440,note_on,,5,0,6,,,,,,,2,,,,66,104
72440,note_on,,5,0,5,,,,,,,1,,,,66,104
72475,note_on,,35,0,5,,,,,,,1,,,,78,88
72475,note_on,,0,0,6,,,,,,,2,,,,90,88
72475,note_on,,35,0,6,,,,,,,2,,,,78,88
72475,note_on,,0,0,5,,,,,,,1,,,,90,88
72480,note_on,,5,0,6,,,,,,,2,,,,85,50
72480,note_on,,5,0,5,,,,,,,1,,,,85,50
72845,note_on,,365,0,5,,,,,,,1,,,,73,91
72845,note_on,,365,0,6,,,,,,,2,,,,73,91
72875,note_off,,30,0,6,,,,,,,2,,,,70,0
72875,note_off,,30,0,5,,,,,,,1,,,,70,0
72895,note_off,,20,0,6,,,,,,,2,,,,66,0
72895,note_off,,20,0,5,,,,,,,1,,,,66,0
72920,note_off,,25,0,5,,,,,,,1,,,,73,0
72920,note_off,,25,0,6,,,,,,,2,,,,73,0
72960,note_on,,0,0,6,,,,,,,2,,,,102,110
72960,note_off,,0,0,6,,,,,,,2,,,,90,0
72960,note_off,,0,0,5,,,,,,,1,,,,85,0
72960,note_on,,0,0,6,,,,,,,2,,,,54,72
72960,note_off,,0,0,5,,,,,,,1,,,,90,0
72960,note_off,,0,0,6,,,,,,,2,,,,85,0
72960,note_on,,0,0,5,,,,,,,1,,,,102,110
72960,note_off,,40,0,6,,,,,,,2,,,,78,0
72960,note_on,,0,0,5,,,,,,,1,,,,54,72
72960,note_off,,40,0,5,,,,,,,1,,,,78,0
73055,note_off,,95,0,5,,,,,,,1,,,,102,0
73055,note_off,,95,0,6,,,,,,,2,,,,102,0
73095,note_off,,40,0,6,,,,,,,2,,,,54,0
73095,note_off,,40,0,5,,,,,,,1,,,,54,0
73225,note_on,,130,0,6,,,,,,,2,,,,70,60
73225,note_on,,130,0,5,,,,,,,1,,,,70,60
73230,note_on,,5,0,5,,,,,,,1,,,,66,64
73230,note_on,,0,0,6,,,,,,,2,,,,61,57
73230,note_on,,0,0,5,,,,,,,1,,,,61,57
73230,note_on,,5,0,6,,,,,,,2,,,,66,64
73280,note_off,,50,0,6,,,,,,,2,,,,66,0
73280,note_off,,50,0,5,,,,,,,1,,,,66,0
73285,note_off,,5,0,5,,,,,,,1,,,,61,0
73285,note_off,,5,0,6,,,,,,,2,,,,61,0
73290,note_off,,5,0,5,,,,,,,1,,,,70,0
73290,note_off,,5,0,6,,,,,,,2,,,,70,0
73440,note_on,,150,0,6,,,,,,,2,,,,78,110
73440,note_on,,150,0,5,,,,,,,1,,,,78,110
73470,note_on,,30,0,5,,,,,,,1,,,,49,54
73470,note_on,,30,0,6,,,,,,,2,,,,49,54
73535,note_off,,65,0,6,,,,,,,2,,,,49,0
73535,note_off,,65,0,5,,,,,,,1,,,,49,0
73615,note_off,,80,0,5,,,,,,,1,,,,78,0
73615,note_off,,80,0,6,,,,,,,2,,,,78,0
73705,note_on,,90,0,5,,,,,,,1,,,,70,56
73705,note_on,,90,0,6,,,,,,,2,,,,70,56
73710,note_on,,5,0,5,,,,,,,1,,,,66,55
73710,note_on,,5,0,6,,,,,,,2,,,,66,55
73715,note_on,,5,0,6,,,,,,,2,,,,61,54
73715,note_on,,5,0,5,,,,,,,1,,,,61,54
73760,note_off,,45,0,5,,,,,,,1,,,,66,0
73760,note_off,,45,0,6,,,,,,,2,,,,66,0
73770,note_off,,10,0,5,,,,,,,1,,,,70,0
73770,note_off,,10,0,6,,,,,,,2,,,,70,0
73770,note_off,,0,0,6,,,,,,,2,,,,61,0
73770,note_off,,0,0,5,,,,,,,1,,,,61,0
73930,note_on,,160,0,6,,,,,,,2,,,,81,92
73930,note_on,,160,0,5,,,,,,,1,,,,81,92
73940,note_on,,10,0,5,,,,,,,1,,,,54,59
73940,note_on,,10,0,6,,,,,,,2,,,,54,59
74020,note_off,,80,0,6,,,,,,,2,,,,54,0
74020,note_off,,80,0,5,,,,,,,1,,,,54,0
74175,note_on,,0,0,5,,,,,,,1,,,,61,51
74175,note_on,,0,0,6,,,,,,,2,,,,61,51
74175,note_on,,155,0,5,,,,,,,1,,,,66,43
74175,note_on,,155,0,6,,,,,,,2,,,,66,43
74180,note_on,,5,0,6,,,,,,,2,,,,69,43
74180,note_on,,5,0,5,,,,,,,1,,,,69,43
74230,note_off,,50,0,6,,,,,,,2,,,,66,0
74230,note_off,,50,0,5,,,,,,,1,,,,66,0
74235,note_off,,5,0,5,,,,,,,1,,,,61,0
74235,note_off,,5,0,6,,,,,,,2,,,,61,0
74240,note_off,,5,0,5,,,,,,,1,,,,69,0
74240,note_off,,5,0,6,,,,,,,2,,,,69,0
74390,note_on,,150,0,6,,,,,,,2,,,,49,55
74390,note_on,,150,0,5,,,,,,,1,,,,49,55
74475,note_off,,85,0,5,,,,,,,1,,,,49,0
74475,note_off,,85,0,6,,,,,,,2,,,,49,0
74615,note_on,,140,0,5,,,,,,,1,,,,66,57
74615,note_on,,140,0,6,,,,,,,2,,,,66,57
74625,note_on,,10,0,6,,,,,,,2,,,,61,48
74625,note_on,,10,0,5,,,,,,,1,,,,61,48
74670,note_off,,45,0,6,,,,,,,2,,,,61,0
74670,note_off,,45,0,5,,,,,,,1,,,,61,0
74675,note_off,,5,0,5,,,,,,,1,,,,66,0
74675,note_off,,5,0,6,,,,,,,2,,,,66,0
74855,note_on,,180,0,5,,,,,,,1,,,,56,64
74855,note_on,,180,0,6,,,,,,,2,,,,56,64
74865,note_off,,10,0,6,,,,,,,2,,,,81,0
74865,note_off,,10,0,5,,,,,,,1,,,,81,0
74870,note_on,,5,0,6,,,,,,,2,,,,80,88
74870,note_on,,5,0,5,,,,,,,1,,,,80,88
74915,note_off,,45,0,6,,,,,,,2,,,,56,0
74915,note_off,,45,0,5,,,,,,,1,,,,56,0
75110,note_on,,0,0,6,,,,,,,2,,,,65,51
75110,note_on,,0,0,5,,,,,,,1,,,,65,51
75110,note_on,,195,0,5,,,,,,,1,,,,61,43
75110,note_on,,195,0,6,,,,,,,2,,,,61,43
75140,note_on,,30,0,5,,,,,,,1,,,,71,15
75140,note_on,,30,0,6,,,,,,,2,,,,71,15
75150,note_off,,10,0,6,,,,,,,2,,,,80,0
75150,note_off,,10,0,5,,,,,,,1,,,,80,0
75165,note_off,,0,0,5,,,,,,,1,,,,71,0
75165,note_off,,0,0,6,,,,,,,2,,,,71,0
75165,note_off,,15,0,5,,,,,,,1,,,,61,0
75165,note_off,,15,0,6,,,,,,,2,,,,61,0
75170,note_off,,5,0,5,,,,,,,1,,,,65,0
75170,note_off,,5,0,6,,,,,,,2,,,,65,0
75245,note_on,,75,0,6,,,,,,,2,,,,81,72
75245,note_on,,75,0,5,,,,,,,1,,,,81,72
75330,note_off,,85,0,5,,,,,,,1,,,,81,0
75330,note_off,,85,0,6,,,,,,,2,,,,81,0
75340,note_on,,10,0,6,,,,,,,2,,,,83,80
75340,note_on,,10,0,5,,,,,,,1,,,,83,80
75345,note_on,,5,0,5,,,,,,,1,,,,49,51
75345,note_on,,5,0,6,,,,,,,2,,,,49,51
75400,note_off,,55,0,5,,,,,,,1,,,,49,0
75400,note_off,,55,0,6,,,,,,,2,,,,49,0
75560,note_off,,160,0,5,,,,,,,1,,,,83,0
75560,note_off,,160,0,6,,,,,,,2,,,,83,0
75575,note_on,,0,0,6,,,,,,,2,,,,65,49
75575,note_on,,15,0,5,,,,,,,1,,,,61,47
75575,note_on,,15,0,6,,,,,,,2,,,,61,47
75575,note_on,,0,0,5,,,,,,,1,,,,65,49
75585,note_on,,10,0,6,,,,,,,2,,,,71,33
75585,note_on,,10,0,5,,,,,,,1,,,,71,33
75625,note_off,,40,0,5,,,,,,,1,,,,61,0
75625,note_off,,40,0,6,,,,,,,2,,,,61,0
75630,note_off,,5,0,6,,,,,,,2,,,,65,0
75630,note_off,,5,0,5,,,,,,,1,,,,65,0
75635,note_off,,5,0,6,,,,,,,2,,,,71,0
75635,note_off,,5,0,5,,,,,,,1,,,,71,0
75705,note_on,,70,0,6,,,,,,,2,,,,86,71
75705,note_on,,70,0,5,,,,,,,1,,,,86,71
75795,note_off,,90,0,5,,,,,,,1,,,,86,0
75795,note_on,,0,0,6,,,,,,,2,,,,56,54
75795,note_off,,90,0,6,,,,,,,2,,,,86,0
75795,note_on,,0,0,5,,,,,,,1,,,,56,54
75805,note_on,,10,0,6,,,,,,,2,,,,85,62
75805,note_on,,10,0,5,,,,,,,1,,,,85,62
75845,note_off,,40,0,6,,,,,,,2,,,,56,0
75845,note_off,,40,0,5,,,,,,,1,,,,56,0
75950,note_off,,105,0,5,,,,,,,1,,,,85,0
75950,note_off,,105,0,6,,,,,,,2,,,,85,0
76060,note_on,,110,0,5,,,,,,,1,,,,71,43
76060,note_on,,110,0,6,,,,,,,2,,,,71,43
76060,note_on,,0,0,6,,,,,,,2,,,,65,56
76060,note_on,,0,0,6,,,,,,,2,,,,61,47
76060,note_on,,0,0,5,,,,,,,1,,,,65,56
76060,note_on,,0,0,5,,,,,,,1,,,,61,47
76115,note_off,,55,0,6,,,,,,,2,,,,61,0
76115,note_off,,55,0,5,,,,,,,1,,,,61,0
76120,note_off,,5,0,6,,,,,,,2,,,,65,0
76120,note_off,,5,0,5,,,,,,,1,,,,65,0
76125,note_off,,5,0,6,,,,,,,2,,,,71,0
76125,note_off,,5,0,5,,,,,,,1,,,,71,0
76175,note_on,,50,0,5,,,,,,,1,,,,73,71
76175,note_on,,50,0,6,,,,,,,2,,,,73,71
76270,note_off,,95,0,6,,,,,,,2,,,,73,0
76270,note_off,,95,0,5,,,,,,,1,,,,73,0
76275,note_on,,5,0,6,,,,,,,2,,,,49,59
76275,note_on,,5,0,5,,,,,,,1,,,,49,59
76285,note_on,,10,0,5,,,,,,,1,,,,75,91
76285,note_on,,10,0,6,,,,,,,2,,,,75,91
76345,note_off,,60,0,5,,,,,,,1,,,,49,0
76345,note_off,,60,0,6,,,,,,,2,,,,49,0
76495,note_off,,150,0,5,,,,,,,1,,,,75,0
76495,note_off,,150,0,6,,,,,,,2,,,,75,0
76515,note_on,,20,0,6,,,,,,,2,,,,61,50
76515,note_on,,20,0,5,,,,,,,1,,,,61,50
76520,note_on,,5,0,6,,,,,,,2,,,,65,46
76520,note_on,,5,0,5,,,,,,,1,,,,65,46
76525,note_on,,5,0,6,,,,,,,2,,,,71,29
76525,note_on,,5,0,5,,,,,,,1,,,,71,29
76585,note_off,,0,0,6,,,,,,,2,,,,61,0
76585,note_off,,0,0,5,,,,,,,1,,,,61,0
76585,note_off,,60,0,5,,,,,,,1,,,,65,0
76585,note_off,,60,0,6,,,,,,,2,,,,65,0
76590,note_off,,5,0,6,,,,,,,2,,,,71,0
76590,note_off,,5,0,5,,,,,,,1,,,,71,0
76665,note_on,,75,0,5,,,,,,,1,,,,77,71
76665,note_on,,75,0,6,,,,,,,2,,,,77,71
76705,note_off,,40,0,5,,,,,,,1,,,,77,0
76705,note_off,,40,0,6,,,,,,,2,,,,77,0
76740,note_on,,35,0,6,,,,,,,2,,,,54,55
76740,note_on,,35,0,5,,,,,,,1,,,,54,55
76765,note_on,,25,0,5,,,,,,,1,,,,78,91
76765,note_on,,25,0,6,,,,,,,2,,,,78,91
76810,note_off,,45,0,5,,,,,,,1,,,,78,0
76810,note_off,,45,0,6,,,,,,,2,,,,78,0
76815,note_off,,5,0,5,,,,,,,1,,,,54,0
76815,note_on,,0,0,6,,,,,,,2,,,,80,88
76815,note_on,,0,0,5,,,,,,,1,,,,80,88
76815,note_off,,5,0,6,,,,,,,2,,,,54,0
76840,note_on,,25,0,5,,,,,,,1,,,,78,91
76840,note_on,,25,0,6,,,,,,,2,,,,78,91
76890,note_off,,50,0,6,,,,,,,2,,,,80,0
76890,note_off,,50,0,5,,,,,,,1,,,,80,0
76995,note_on,,105,0,5,,,,,,,1,,,,70,43
76995,note_on,,105,0,6,,,,,,,2,,,,70,43
77015,note_on,,0,0,5,,,,,,,1,,,,66,56
77015,note_on,,20,0,6,,,,,,,2,,,,61,49
77015,note_on,,20,0,5,,,,,,,1,,,,61,49
77015,note_on,,0,0,6,,,,,,,2,,,,66,56
77070,note_off,,55,0,5,,,,,,,1,,,,78,0
77070,note_off,,55,0,6,,,,,,,2,,,,78,0
77080,note_off,,10,0,6,,,,,,,2,,,,66,0
77080,note_off,,10,0,5,,,,,,,1,,,,66,0
77090,note_off,,10,0,6,,,,,,,2,,,,61,0
77090,note_off,,10,0,5,,,,,,,1,,,,61,0
77100,note_off,,10,0,5,,,,,,,1,,,,70,0
77100,note_off,,10,0,6,,,,,,,2,,,,70,0
77180,note_on,,80,0,5,,,,,,,1,,,,77,80
77180,note_on,,80,0,6,,,,,,,2,,,,77,80
77255,note_on,,75,0,5,,,,,,,1,,,,49,64
77255,note_on,,75,0,6,,,,,,,2,,,,49,64
77260,note_on,,5,0,6,,,,,,,2,,,,78,110
77260,note_on,,5,0,5,,,,,,,1,,,,78,110
77300,note_off,,40,0,5,,,,,,,1,,,,77,0
77300,note_off,,40,0,6,,,,,,,2,,,,77,0
77315,note_off,,15,0,6,,,,,,,2,,,,49,0
77315,note_off,,15,0,5,,,,,,,1,,,,49,0
77365,note_off,,50,0,6,,,,,,,2,,,,78,0
77365,note_off,,50,0,5,,,,,,,1,,,,78,0
77510,note_on,,145,0,6,,,,,,,2,,,,70,68
77510,note_on,,145,0,5,,,,,,,1,,,,70,68
77515,note_on,,5,0,6,,,,,,,2,,,,66,59
77515,note_on,,5,0,5,,,,,,,1,,,,66,59
77520,note_on,,5,0,5,,,,,,,1,,,,61,54
77520,note_on,,5,0,6,,,,,,,2,,,,61,54
77570,note_off,,50,0,6,,,,,,,2,,,,61,0
77570,note_off,,50,0,5,,,,,,,1,,,,61,0
77575,note_off,,5,0,6,,,,,,,2,,,,66,0
77575,note_off,,5,0,5,,,,,,,1,,,,66,0
77580,note_off,,5,0,6,,,,,,,2,,,,70,0
77580,note_off,,5,0,5,,,,,,,1,,,,70,0
77630,note_on,,50,0,6,,,,,,,2,,,,80,80
77630,note_on,,50,0,5,,,,,,,1,,,,80,80
77700,note_off,,70,0,6,,,,,,,2,,,,80,0
77700,note_off,,70,0,5,,,,,,,1,,,,80,0
77725,note_on,,25,0,6,,,,,,,2,,,,81,110
77725,note_on,,0,0,5,,,,,,,1,,,,54,72
77725,note_on,,0,0,6,,,,,,,2,,,,54,72
77725,note_on,,25,0,5,,,,,,,1,,,,81,110
77810,note_off,,85,0,6,,,,,,,2,,,,54,0
77810,note_off,,85,0,5,,,,,,,1,,,,54,0
78015,note_on,,205,0,5,,,,,,,1,,,,66,47
78015,note_on,,205,0,6,,,,,,,2,,,,66,47
78020,note_on,,5,0,5,,,,,,,1,,,,69,43
78020,note_on,,0,0,5,,,,,,,1,,,,61,55
78020,note_on,,0,0,6,,,,,,,2,,,,61,55
78020,note_on,,5,0,6,,,,,,,2,,,,69,43
78080,note_off,,60,0,5,,,,,,,1,,,,61,0
78080,note_off,,60,0,6,,,,,,,2,,,,61,0
78085,note_off,,5,0,6,,,,,,,2,,,,69,0
78085,note_off,,5,0,5,,,,,,,1,,,,69,0
78090,note_off,,5,0,5,,,,,,,1,,,,66,0
78090,note_off,,5,0,6,,,,,,,2,,,,66,0
78255,note_on,,165,0,6,,,,,,,2,,,,49,47
78255,note_on,,165,0,5,,,,,,,1,,,,49,47
78320,note_off,,65,0,5,,,,,,,1,,,,49,0
78320,note_off,,65,0,6,,,,,,,2,,,,49,0
78470,note_on,,0,0,5,,,,,,,1,,,,69,51
78470,note_on,,150,0,5,,,,,,,1,,,,66,51
78470,note_on,,0,0,6,,,,,,,2,,,,69,51
78470,note_on,,150,0,6,,,,,,,2,,,,66,51
78475,note_on,,5,0,6,,,,,,,2,,,,61,54
78475,note_on,,5,0,5,,,,,,,1,,,,61,54
78530,note_off,,55,0,5,,,,,,,1,,,,61,0
78530,note_off,,55,0,6,,,,,,,2,,,,61,0
78535,note_off,,5,0,6,,,,,,,2,,,,66,0
78535,note_off,,5,0,5,,,,,,,1,,,,66,0
78545,note_off,,10,0,6,,,,,,,2,,,,69,0
78545,note_off,,10,0,5,,,,,,,1,,,,69,0
78685,note_off,,140,0,6,,,,,,,2,,,,81,0
78685,note_off,,140,0,5,,,,,,,1,,,,81,0
78710,note_on,,25,0,5,,,,,,,1,,,,56,64
78710,note_on,,25,0,6,,,,,,,2,,,,56,64
78720,note_on,,10,0,6,,,,,,,2,,,,80,80
78720,note_on,,10,0,5,,,,,,,1,,,,80,80
78785,note_off,,65,0,6,,,,,,,2,,,,56,0
78785,note_off,,65,0,5,,,,,,,1,,,,56,0
78865,note_off,,80,0,6,,,,,,,2,,,,80,0
78865,note_off,,80,0,5,,,,,,,1,,,,80,0
78950,note_on,,85,0,5,,,,,,,1,,,,61,56
78950,note_on,,85,0,6,,,,,,,2,,,,61,56
78960,note_on,,10,0,6,,,,,,,2,,,,65,51
78960,note_on,,10,0,5,,,,,,,1,,,,65,51
78965,note_on,,5,0,6,,,,,,,2,,,,71,32
78965,note_on,,5,0,5,,,,,,,1,,,,71,32
79015,note_off,,50,0,5,,,,,,,1,,,,71,0
79015,note_off,,0,0,6,,,,,,,2,,,,65,0
79015,note_off,,0,0,6,,,,,,,2,,,,61,0
79015,note_off,,50,0,6,,,,,,,2,,,,71,0
79015,note_off,,0,0,5,,,,,,,1,,,,65,0
79015,note_off,,0,0,5,,,,,,,1,,,,61,0
79075,note_on,,60,0,6,,,,,,,2,,,,81,72
79075,note_on,,60,0,5,,,,,,,1,,,,81,72
79155,note_off,,80,0,6,,,,,,,2,,,,81,0
79155,note_off,,80,0,5,,,,,,,1,,,,81,0
79180,note_on,,25,0,6,,,,,,,2,,,,83,80
79180,note_on,,25,0,5,,,,,,,1,,,,83,80
79185,note_on,,5,0,5,,,,,,,1,,,,49,64
79185,note_on,,5,0,6,,,,,,,2,,,,49,64
79255,note_off,,70,0,5,,,,,,,1,,,,49,0
79255,note_off,,70,0,6,,,,,,,2,,,,49,0
79315,note_off,,60,0,5,,,,,,,1,,,,83,0
79315,note_off,,60,0,6,,,,,,,2,,,,83,0
79420,note_on,,105,0,6,,,,,,,2,,,,71,48
79420,note_on,,105,0,5,,,,,,,1,,,,71,48
79425,note_on,,5,0,6,,,,,,,2,,,,61,51
79425,note_on,,5,0,5,,,,,,,1,,,,61,51
79430,note_on,,5,0,5,,,,,,,1,,,,65,55
79430,note_on,,5,0,6,,,,,,,2,,,,65,55
79480,note_off,,50,0,6,,,,,,,2,,,,61,0
79480,note_off,,50,0,5,,,,,,,1,,,,61,0
79485,note_off,,5,0,6,,,,,,,2,,,,71,0
79485,note_off,,0,0,6,,,,,,,2,,,,65,0
79485,note_off,,0,0,5,,,,,,,1,,,,65,0
79485,note_off,,5,0,5,,,,,,,1,,,,71,0
79545,note_on,,60,0,5,,,,,,,1,,,,86,80
79545,note_on,,60,0,6,,,,,,,2,,,,86,80
79645,note_on,,100,0,5,,,,,,,1,,,,56,59
79645,note_on,,100,0,6,,,,,,,2,,,,56,59
79650,note_on,,5,0,5,,,,,,,1,,,,85,62
79650,note_on,,5,0,6,,,,,,,2,,,,85,62
79685,note_off,,35,0,5,,,,,,,1,,,,86,0
79685,note_off,,35,0,6,,,,,,,2,,,,86,0
79720,note_off,,35,0,6,,,,,,,2,,,,56,0
79720,note_off,,35,0,5,,,,,,,1,,,,56,0
79790,note_off,,70,0,5,,,,,,,1,,,,85,0
79790,note_off,,70,0,6,,,,,,,2,,,,85,0
79905,note_on,,115,0,5,,,,,,,1,,,,61,44
79905,note_on,,115,0,6,,,,,,,2,,,,61,44
79910,note_on,,5,0,5,,,,,,,1,,,,71,30
79910,note_on,,5,0,6,,,,,,,2,,,,71,30
79935,note_on,,25,0,6,,,,,,,2,,,,65,15
79935,note_on,,25,0,5,,,,,,,1,,,,65,15
79955,note_off,,20,0,6,,,,,,,2,,,,65,0
79955,note_off,,20,0,5,,,,,,,1,,,,65,0
79960,note_off,,5,0,5,,,,,,,1,,,,71,0
79960,note_off,,5,0,6,,,,,,,2,,,,71,0
79965,note_off,,5,0,5,,,,,,,1,,,,61,0
79965,note_off,,5,0,6,,,,,,,2,,,,61,0
80020,note_on,,55,0,5,,,,,,,1,,,,73,80
80020,note_on,,55,0,6,,,,,,,2,,,,73,80
80125,note_on,,105,0,6,,,,,,,2,,,,49,55
80125,note_on,,105,0,5,,,,,,,1,,,,49,55
80130,note_off,,5,0,5,,,,,,,1,,,,73,0
80130,note_off,,5,0,6,,,,,,,2,,,,73,0
80140,note_on,,10,0,6,,,,,,,2,,,,75,88
80140,note_on,,10,0,5,,,,,,,1,,,,75,88
80190,note_off,,50,0,5,,,,,,,1,,,,49,0
80190,note_off,,50,0,6,,,,,,,2,,,,49,0
80225,note_off,,35,0,6,,,,,,,2,,,,75,0
80225,note_off,,35,0,5,,,,,,,1,,,,75,0
80365,note_on,,0,0,6,,,,,,,2,,,,65,61
80365,note_on,,140,0,6,,,,,,,2,,,,61,51
80365,note_on,,140,0,5,,,,,,,1,,,,61,51
80365,note_on,,0,0,5,,,,,,,1,,,,65,61
80375,note_on,,10,0,6,,,,,,,2,,,,71,46
80375,note_on,,10,0,5,,,,,,,1,,,,71,46
80430,note_off,,0,0,6,,,,,,,2,,,,61,0
80430,note_off,,0,0,5,,,,,,,1,,,,61,0
80430,note_off,,55,0,5,,,,,,,1,,,,71,0
80430,note_off,,55,0,6,,,,,,,2,,,,71,0
80435,note_off,,5,0,5,,,,,,,1,,,,65,0
80435,note_off,,5,0,6,,,,,,,2,,,,65,0
80480,note_on,,45,0,6,,,,,,,2,,,,77,72
80480,note_on,,45,0,5,,,,,,,1,,,,77,72
80545,note_off,,65,0,6,,,,,,,2,,,,77,0
80545,note_off,,65,0,5,,,,,,,1,,,,77,0
80585,note_on,,40,0,6,,,,,,,2,,,,54,55
80585,note_on,,40,0,5,,,,,,,1,,,,54,55
80600,note_on,,15,0,5,,,,,,,1,,,,78,80
80600,note_on,,15,0,6,,,,,,,2,,,,78,80
80635,note_off,,35,0,5,,,,,,,1,,,,78,0
80635,note_off,,35,0,6,,,,,,,2,,,,78,0
80645,note_on,,10,0,6,,,,,,,2,,,,80,92
80645,note_on,,10,0,5,,,,,,,1,,,,80,92
80655,note_off,,10,0,6,,,,,,,2,,,,54,0
80655,note_off,,10,0,5,,,,,,,1,,,,54,0
80685,note_on,,30,0,6,,,,,,,2,,,,78,80
80685,note_on,,30,0,5,,,,,,,1,,,,78,80
80720,note_off,,35,0,5,,,,,,,1,,,,80,0
80720,note_off,,35,0,6,,,,,,,2,,,,80,0
80850,note_off,,130,0,6,,,,,,,2,,,,78,0
80850,note_off,,130,0,5,,,,,,,1,,,,78,0
80855,note_on,,5,0,5,,,,,,,1,,,,70,57
80855,note_on,,5,0,6,,,,,,,2,,,,70,57
80860,note_on,,5,0,5,,,,,,,1,,,,61,55
80860,note_on,,5,0,6,,,,,,,2,,,,61,55
80865,note_on,,5,0,5,,,,,,,1,,,,66,57
80865,note_on,,5,0,6,,,,,,,2,,,,66,57
80920,note_off,,55,0,5,,,,,,,1,,,,66,0
80920,note_off,,55,0,6,,,,,,,2,,,,66,0
80930,note_off,,10,0,6,,,,,,,2,,,,61,0
80930,note_off,,0,0,6,,,,,,,2,,,,70,0
80930,note_off,,0,0,5,,,,,,,1,,,,70,0
80930,note_off,,10,0,5,,,,,,,1,,,,61,0
81030,note_on,,100,0,5,,,,,,,1,,,,77,72
81030,note_on,,100,0,6,,,,,,,2,,,,77,72
81100,note_on,,70,0,5,,,,,,,1,,,,49,64
81100,note_on,,70,0,6,,,,,,,2,,,,49,64
81115,note_off,,15,0,6,,,,,,,2,,,,77,0
81115,note_off,,15,0,5,,,,,,,1,,,,77,0
81135,note_on,,20,0,5,,,,,,,1,,,,78,80
81135,note_on,,20,0,6,,,,,,,2,,,,78,80
81170,note_off,,35,0,5,,,,,,,1,,,,49,0
81170,note_off,,35,0,6,,,,,,,2,,,,49,0
81215,note_off,,45,0,6,,,,,,,2,,,,78,0
81215,note_off,,45,0,5,,,,,,,1,,,,78,0
81365,note_on,,150,0,6,,,,,,,2,,,,70,68
81365,note_on,,150,0,5,,,,,,,1,,,,70,68
81375,note_on,,0,0,6,,,,,,,2,,,,61,55
81375,note_on,,10,0,5,,,,,,,1,,,,66,55
81375,note_on,,10,0,6,,,,,,,2,,,,66,55
81375,note_on,,0,0,5,,,,,,,1,,,,61,55
81420,note_off,,45,0,6,,,,,,,2,,,,66,0
81420,note_off,,45,0,5,,,,,,,1,,,,66,0
81425,note_off,,5,0,6,,,,,,,2,,,,61,0
81425,note_off,,5,0,5,,,,,,,1,,,,61,0
81435,note_off,,10,0,5,,,,,,,1,,,,70,0
81435,note_on,,0,0,5,,,,,,,1,,,,80,80
81435,note_off,,10,0,6,,,,,,,2,,,,70,0
81435,note_on,,0,0,6,,,,,,,2,,,,80,80
81500,note_off,,65,0,6,,,,,,,2,,,,80,0
81500,note_off,,65,0,5,,,,,,,1,,,,80,0
81570,note_on,,70,0,5,,,,,,,1,,,,78,80
81570,note_on,,70,0,6,,,,,,,2,,,,78,80
81580,note_on,,10,0,5,,,,,,,1,,,,54,64
81580,note_on,,10,0,6,,,,,,,2,,,,54,64
81595,note_on,,15,0,6,,,,,,,2,,,,80,92
81595,note_on,,15,0,5,,,,,,,1,,,,80,92
81635,note_off,,40,0,6,,,,,,,2,,,,78,0
81635,note_off,,40,0,5,,,,,,,1,,,,78,0
81650,note_on,,15,0,6,,,,,,,2,,,,81,80
81650,note_on,,15,0,5,,,,,,,1,,,,81,80
81660,note_off,,10,0,5,,,,,,,1,,,,54,0
81660,note_off,,10,0,6,,,,,,,2,,,,54,0
81690,note_off,,30,0,6,,,,,,,2,,,,80,0
81690,note_off,,30,0,5,,,,,,,1,,,,80,0
81850,note_on,,160,0,5,,,,,,,1,,,,66,56
81850,note_on,,160,0,6,,,,,,,2,,,,66,56
81855,note_on,,0,0,6,,,,,,,2,,,,61,59
81855,note_on,,5,0,5,,,,,,,1,,,,69,54
81855,note_on,,0,0,5,,,,,,,1,,,,61,59
81855,note_on,,5,0,6,,,,,,,2,,,,69,54
81895,note_off,,40,0,5,,,,,,,1,,,,81,0
81895,note_off,,40,0,6,,,,,,,2,,,,81,0
81910,note_off,,15,0,5,,,,,,,1,,,,61,0
81910,note_off,,15,0,6,,,,,,,2,,,,61,0
81915,note_off,,5,0,6,,,,,,,2,,,,69,0
81915,note_off,,5,0,5,,,,,,,1,,,,69,0
81920,note_off,,5,0,6,,,,,,,2,,,,66,0
81920,note_off,,5,0,5,,,,,,,1,,,,66,0
82075,note_on,,155,0,6,,,,,,,2,,,,81,92
82075,note_on,,155,0,5,,,,,,,1,,,,81,92
82105,note_on,,30,0,5,,,,,,,1,,,,49,64
82105,note_on,,30,0,6,,,,,,,2,,,,49,64
82180,note_off,,75,0,5,,,,,,,1,,,,49,0
82180,note_off,,75,0,6,,,,,,,2,,,,49,0
82330,note_on,,150,0,6,,,,,,,2,,,,66,63
82330,note_on,,150,0,5,,,,,,,1,,,,66,63
82335,note_on,,5,0,5,,,,,,,1,,,,61,62
82335,note_on,,5,0,6,,,,,,,2,,,,61,62
82355,note_on,,20,0,6,,,,,,,2,,,,69,47
82355,note_on,,20,0,5,,,,,,,1,,,,69,47
82405,note_off,,50,0,5,,,,,,,1,,,,69,0
82405,note_off,,0,0,6,,,,,,,2,,,,61,0
82405,note_off,,50,0,6,,,,,,,2,,,,69,0
82405,note_off,,0,0,5,,,,,,,1,,,,61,0
82410,note_off,,5,0,6,,,,,,,2,,,,66,0
82410,note_off,,5,0,5,,,,,,,1,,,,66,0
82540,note_off,,130,0,5,,,,,,,1,,,,81,0
82540,note_off,,130,0,6,,,,,,,2,,,,81,0
82570,note_on,,30,0,5,,,,,,,1,,,,80,92
82570,note_on,,30,0,6,,,,,,,2,,,,80,92
82575,note_on,,5,0,6,,,,,,,2,,,,56,72
82575,note_on,,5,0,5,,,,,,,1,,,,56,72
82665,note_off,,90,0,5,,,,,,,1,,,,56,0
82665,note_off,,90,0,6,,,,,,,2,,,,56,0
82675,note_off,,10,0,6,,,,,,,2,,,,80,0
82675,note_off,,10,0,5,,,,,,,1,,,,80,0
82830,note_on,,155,0,6,,,,,,,2,,,,65,59
82830,note_on,,155,0,5,,,,,,,1,,,,65,59
82835,note_on,,0,0,6,,,,,,,2,,,,71,44
82835,note_on,,5,0,5,,,,,,,1,,,,61,59
82835,note_on,,5,0,6,,,,,,,2,,,,61,59
82835,note_on,,0,0,5,,,,,,,1,,,,71,44
82895,note_off,,60,0,6,,,,,,,2,,,,61,0
82895,note_off,,60,0,5,,,,,,,1,,,,61,0
82900,note_off,,0,0,6,,,,,,,2,,,,71,0
82900,note_off,,5,0,5,,,,,,,1,,,,65,0
82900,note_off,,0,0,5,,,,,,,1,,,,71,0
82900,note_off,,5,0,6,,,,,,,2,,,,65,0
82930,note_on,,30,0,6,,,,,,,2,,,,81,71
82930,note_on,,30,0,5,,,,,,,1,,,,81,71
83015,note_on,,85,0,6,,,,,,,2,,,,83,80
83015,note_on,,85,0,5,,,,,,,1,,,,83,80
83045,note_off,,30,0,6,,,,,,,2,,,,81,0
83045,note_off,,30,0,5,,,,,,,1,,,,81,0
83055,note_on,,10,0,6,,,,,,,2,,,,49,80
83055,note_on,,10,0,5,,,,,,,1,,,,49,80
83130,note_off,,75,0,5,,,,,,,1,,,,83,0
83130,note_off,,75,0,6,,,,,,,2,,,,83,0
83165,note_off,,35,0,5,,,,,,,1,,,,49,0
83165,note_off,,35,0,6,,,,,,,2,,,,49,0
83305,note_on,,0,0,6,,,,,,,2,,,,71,57
83305,note_on,,140,0,5,,,,,,,1,,,,65,72
83305,note_on,,140,0,6,,,,,,,2,,,,65,72
83305,note_on,,0,0,5,,,,,,,1,,,,71,57
83310,note_on,,5,0,5,,,,,,,1,,,,61,59
83310,note_on,,5,0,6,,,,,,,2,,,,61,59
83375,note_off,,65,0,6,,,,,,,2,,,,61,0
83375,note_off,,65,0,5,,,,,,,1,,,,61,0
83380,note_off,,5,0,5,,,,,,,1,,,,65,0
83380,note_off,,5,0,6,,,,,,,2,,,,65,0
83385,note_on,,0,0,5,,,,,,,1,,,,86,71
83385,note_off,,5,0,6,,,,,,,2,,,,71,0
83385,note_on,,0,0,6,,,,,,,2,,,,86,71
83385,note_off,,5,0,5,,,,,,,1,,,,71,0
83500,note_on,,115,0,6,,,,,,,2,,,,85,61
83500,note_on,,115,0,5,,,,,,,1,,,,85,61
83525,note_off,,25,0,5,,,,,,,1,,,,86,0
83525,note_off,,25,0,6,,,,,,,2,,,,86,0
84040,note_off,,515,0,5,,,,,,,1,,,,85,0
84040,note_off,,515,0,6,,,,,,,2,,,,85,0
84480,note_on,,440,0,6,,,,,,,2,,,,37,94
84480,note_on,,440,0,5,,,,,,,1,,,,37,94
84595,note_on,,0,0,5,,,,,,,1,,,,49,77
84595,note_on,,115,0,5,,,,,,,1,,,,61,88
84595,note_on,,115,0,6,,,,,,,2,,,,61,88
84595,note_on,,0,0,6,,,,,,,2,,,,49,77
84645,note_off,,50,0,5,,,,,,,1,,,,49,0
84645,note_off,,50,0,6,,,,,,,2,,,,49,0
84650,note_off,,5,0,6,,,,,,,2,,,,61,0
84650,note_off,,5,0,5,,,,,,,1,,,,61,0
84695,note_on,,45,0,5,,,,,,,1,,,,39,80
84695,note_on,,45,0,6,,,,,,,2,,,,39,80
84750,note_off,,55,0,6,,,,,,,2,,,,37,0
84750,note_off,,55,0,5,,,,,,,1,,,,37,0
84810,note_on,,60,0,6,,,,,,,2,,,,63,91
84810,note_on,,60,0,5,,,,,,,1,,,,63,91
84815,note_on,,5,0,5,,,,,,,1,,,,51,77
84815,note_on,,5,0,6,,,,,,,2,,,,51,77
84860,note_off,,45,0,6,,,,,,,2,,,,51,0
84860,note_off,,45,0,5,,,,,,,1,,,,51,0
84875,note_off,,15,0,5,,,,,,,1,,,,63,0
84875,note_off,,15,0,6,,,,,,,2,,,,63,0
84925,note_off,,50,0,6,,,,,,,2,,,,39,0
84925,note_off,,50,0,5,,,,,,,1,,,,39,0
84940,note_on,,15,0,5,,,,,,,1,,,,41,92
84940,note_on,,15,0,6,,,,,,,2,,,,41,92
85015,note_off,,75,0,5,,,,,,,1,,,,41,0
85015,note_off,,75,0,6,,,,,,,2,,,,41,0
85055,note_on,,40,0,5,,,,,,,1,,,,65,79
85055,note_on,,40,0,6,,,,,,,2,,,,65,79
85065,note_on,,10,0,6,,,,,,,2,,,,53,78
85065,note_on,,10,0,5,,,,,,,1,,,,53,78
85110,note_off,,45,0,6,,,,,,,2,,,,53,0
85110,note_off,,45,0,5,,,,,,,1,,,,53,0
85115,note_off,,5,0,6,,,,,,,2,,,,65,0
85115,note_off,,5,0,5,,,,,,,1,,,,65,0
85165,note_on,,50,0,6,,,,,,,2,,,,42,80
85165,note_on,,50,0,5,,,,,,,1,,,,42,80
85250,note_off,,85,0,5,,,,,,,1,,,,42,0
85250,note_off,,85,0,6,,,,,,,2,,,,42,0
85290,note_on,,40,0,5,,,,,,,1,,,,66,79
85290,note_on,,40,0,6,,,,,,,2,,,,66,79
85295,note_on,,5,0,5,,,,,,,1,,,,54,88
85295,note_on,,5,0,6,,,,,,,2,,,,54,88
85345,note_off,,50,0,5,,,,,,,1,,,,66,0
85345,note_off,,50,0,6,,,,,,,2,,,,66,0
85350,note_off,,5,0,5,,,,,,,1,,,,54,0
85350,note_off,,5,0,6,,,,,,,2,,,,54,0
85420,note_on,,70,0,5,,,,,,,1,,,,44,92
85420,note_on,,70,0,6,,,,,,,2,,,,44,92
85430,note_on,,10,0,6,,,,,,,2,,,,49,92
85430,note_on,,10,0,5,,,,,,,1,,,,49,92
85520,note_off,,90,0,6,,,,,,,2,,,,49,0
85520,note_off,,90,0,5,,,,,,,1,,,,49,0
85535,note_off,,15,0,5,,,,,,,1,,,,44,0
85535,note_off,,15,0,6,,,,,,,2,,,,44,0
85545,note_on,,0,0,5,,,,,,,1,,,,56,72
85545,note_on,,10,0,5,,,,,,,1,,,,61,88
85545,note_on,,0,0,5,,,,,,,1,,,,68,88
85545,note_on,,0,0,6,,,,,,,2,,,,56,72
85545,note_on,,0,0,6,,,,,,,2,,,,68,88
85545,note_on,,10,0,6,,,,,,,2,,,,61,88
85600,note_off,,55,0,6,,,,,,,2,,,,56,0
85600,note_off,,55,0,5,,,,,,,1,,,,56,0
85605,note_off,,0,0,5,,,,,,,1,,,,68,0
85605,note_off,,0,0,6,,,,,,,2,,,,68,0
85605,note_off,,5,0,5,,,,,,,1,,,,61,0
85605,note_off,,5,0,6,,,,,,,2,,,,61,0
85665,note_on,,60,0,5,,,,,,,1,,,,43,80
85665,note_on,,60,0,6,,,,,,,2,,,,43,80
85745,note_off,,80,0,6,,,,,,,2,,,,43,0
85745,note_off,,80,0,5,,,,,,,1,,,,43,0
85765,note_on,,20,0,6,,,,,,,2,,,,67,88
85765,note_on,,20,0,5,,,,,,,1,,,,67,88
85770,note_on,,5,0,5,,,,,,,1,,,,55,77
85770,note_on,,5,0,6,,,,,,,2,,,,55,77
85820,note_off,,50,0,6,,,,,,,2,,,,55,0
85820,note_off,,50,0,5,,,,,,,1,,,,55,0
85825,note_off,,5,0,6,,,,,,,2,,,,67,0
85825,note_off,,5,0,5,,,,,,,1,,,,67,0
85905,note_on,,80,0,5,,,,,,,1,,,,44,88
85905,note_on,,80,0,6,,,,,,,2,,,,44,88
86010,note_off,,105,0,6,,,,,,,2,,,,44,0
86010,note_off,,105,0,5,,,,,,,1,,,,44,0
86035,note_on,,0,0,5,,,,,,,1,,,,56,88
86035,note_on,,25,0,6,,,,,,,2,,,,68,88
86035,note_on,,0,0,6,,,,,,,2,,,,56,88
86035,note_on,,25,0,5,,,,,,,1,,,,68,88
86090,note_off,,55,0,5,,,,,,,1,,,,56,0
86090,note_off,,55,0,6,,,,,,,2,,,,56,0
86095,note_off,,5,0,6,,,,,,,2,,,,68,0
86095,note_off,,5,0,5,,,,,,,1,,,,68,0
86140,note_on,,45,0,5,,,,,,,1,,,,41,80
86140,note_on,,45,0,6,,,,,,,2,,,,41,80
86205,note_off,,65,0,6,,,,,,,2,,,,41,0
86205,note_off,,65,0,5,,,,,,,1,,,,41,0
86260,note_on,,55,0,6,,,,,,,2,,,,65,90
86260,note_on,,55,0,5,,,,,,,1,,,,65,90
86270,note_on,,10,0,6,,,,,,,2,,,,53,53
86270,note_on,,10,0,5,,,,,,,1,,,,53,53
86315,note_off,,45,0,5,,,,,,,1,,,,65,0
86315,note_off,,45,0,6,,,,,,,2,,,,65,0
86320,note_off,,5,0,6,,,,,,,2,,,,53,0
86320,note_off,,5,0,5,,,,,,,1,,,,53,0
86385,note_on,,65,0,6,,,,,,,2,,,,42,110
86385,note_on,,65,0,5,,,,,,,1,,,,42,110
86475,note_off,,90,0,6,,,,,,,2,,,,42,0
86475,note_off,,90,0,5,,,,,,,1,,,,42,0
86500,note_on,,0,0,5,,,,,,,1,,,,66,88
86500,note_on,,25,0,5,,,,,,,1,,,,54,79
86500,note_on,,25,0,6,,,,,,,2,,,,54,79
86500,note_on,,0,0,6,,,,,,,2,,,,66,88
86555,note_off,,55,0,5,,,,,,,1,,,,66,0
86555,note_off,,55,0,6,,,,,,,2,,,,66,0
86560,note_off,,5,0,6,,,,,,,2,,,,54,0
86560,note_off,,5,0,5,,,,,,,1,,,,54,0
86630,note_on,,70,0,5,,,,,,,1,,,,44,92
86630,note_on,,70,0,6,,,,,,,2,,,,44,92
86695,note_off,,65,0,6,,,,,,,2,,,,44,0
86695,note_off,,65,0,5,,,,,,,1,,,,44,0
86740,note_on,,45,0,6,,,,,,,2,,,,68,88
86740,note_on,,45,0,5,,,,,,,1,,,,68,88
86745,note_on,,5,0,6,,,,,,,2,,,,56,68
86745,note_on,,5,0,5,,,,,,,1,,,,56,68
86795,note_off,,50,0,5,,,,,,,1,,,,56,0
86795,note_off,,50,0,6,,,,,,,2,,,,56,0
86810,note_off,,15,0,5,,,,,,,1,,,,68,0
86810,note_off,,15,0,6,,,,,,,2,,,,68,0
86875,note_on,,65,0,6,,,,,,,2,,,,46,91
86875,note_on,,65,0,5,,,,,,,1,,,,46,91
86950,note_off,,75,0,5,,,,,,,1,,,,46,0
86950,note_off,,75,0,6,,,,,,,2,,,,46,0
86990,note_on,,40,0,5,,,,,,,1,,,,70,90
86990,note_on,,40,0,6,,,,,,,2,,,,70,90
86995,note_on,,5,0,6,,,,,,,2,,,,58,77
86995,note_on,,5,0,5,,,,,,,1,,,,58,77
87045,note_off,,50,0,6,,,,,,,2,,,,58,0
87045,note_off,,50,0,5,,,,,,,1,,,,58,0
87060,note_off,,15,0,5,,,,,,,1,,,,70,0
87060,note_off,,15,0,6,,,,,,,2,,,,70,0
87100,note_on,,40,0,5,,,,,,,1,,,,47,92
87100,note_on,,40,0,6,,,,,,,2,,,,47,92
87170,note_off,,70,0,5,,,,,,,1,,,,47,0
87170,note_off,,70,0,6,,,,,,,2,,,,47,0
87220,note_on,,50,0,6,,,,,,,2,,,,71,78
87220,note_on,,50,0,5,,,,,,,1,,,,71,78
87225,note_on,,5,0,6,,,,,,,2,,,,59,77
87225,note_on,,5,0,5,,,,,,,1,,,,59,77
87270,note_off,,45,0,5,,,,,,,1,,,,59,0
87270,note_off,,45,0,6,,,,,,,2,,,,59,0
87285,note_off,,15,0,6,,,,,,,2,,,,71,0
87285,note_off,,15,0,5,,,,,,,1,,,,71,0
87345,note_on,,60,0,5,,,,,,,1,,,,49,92
87345,note_on,,60,0,6,,,,,,,2,,,,49,92
87360,note_on,,15,0,6,,,,,,,2,,,,54,80
87360,note_on,,15,0,5,,,,,,,1,,,,54,80
87440,note_off,,80,0,6,,,,,,,2,,,,54,0
87440,note_off,,80,0,5,,,,,,,1,,,,54,0
87460,note_on,,0,0,5,,,,,,,1,,,,61,80
87460,note_on,,0,0,6,,,,,,,2,,,,61,80
87460,note_on,,20,0,5,,,,,,,1,,,,73,104
87460,note_on,,20,0,6,,,,,,,2,,,,73,104
87465,note_on,,5,0,6,,,,,,,2,,,,66,70
87465,note_on,,5,0,5,,,,,,,1,,,,66,70
87475,note_off,,10,0,6,,,,,,,2,,,,49,0
87475,note_off,,10,0,5,,,,,,,1,,,,49,0
87515,note_off,,40,0,6,,,,,,,2,,,,66,0
87515,note_off,,40,0,5,,,,,,,1,,,,66,0
87520,note_off,,5,0,5,,,,,,,1,,,,61,0
87520,note_off,,5,0,6,,,,,,,2,,,,61,0
87530,note_off,,10,0,5,,,,,,,1,,,,73,0
87530,note_off,,10,0,6,,,,,,,2,,,,73,0
87595,note_on,,65,0,6,,,,,,,2,,,,48,80
87595,note_on,,65,0,5,,,,,,,1,,,,48,80
87665,note_off,,70,0,6,,,,,,,2,,,,48,0
87665,note_off,,70,0,5,,,,,,,1,,,,48,0
87690,note_on,,25,0,6,,,,,,,2,,,,60,76
87690,note_on,,25,0,5,,,,,,,1,,,,60,76
87695,note_on,,5,0,5,,,,,,,1,,,,72,64
87695,note_on,,5,0,6,,,,,,,2,,,,72,64
87700,note_on,,5,0,6,,,,,,,2,,,,66,51
87700,note_on,,5,0,5,,,,,,,1,,,,66,51
87745,note_off,,45,0,5,,,,,,,1,,,,66,0
87745,note_off,,45,0,6,,,,,,,2,,,,66,0
87755,note_off,,0,0,5,,,,,,,1,,,,60,0
87755,note_off,,0,0,6,,,,,,,2,,,,60,0
87755,note_off,,10,0,6,,,,,,,2,,,,72,0
87755,note_off,,10,0,5,,,,,,,1,,,,72,0
87830,note_on,,75,0,5,,,,,,,1,,,,49,80
87830,note_on,,75,0,6,,,,,,,2,,,,49,80
87905,note_off,,75,0,6,,,,,,,2,,,,49,0
87905,note_off,,75,0,5,,,,,,,1,,,,49,0
87945,note_on,,0,0,6,,,,,,,2,,,,61,88
87945,note_on,,40,0,5,,,,,,,1,,,,73,90
87945,note_on,,0,0,5,,,,,,,1,,,,61,88
87945,note_on,,40,0,6,,,,,,,2,,,,73,90
87995,note_off,,0,0,5,,,,,,,1,,,,73,0
87995,note_off,,50,0,6,,,,,,,2,,,,61,0
87995,note_off,,0,0,6,,,,,,,2,,,,73,0
87995,note_off,,50,0,5,,,,,,,1,,,,61,0
88065,note_on,,70,0,6,,,,,,,2,,,,46,92
88065,note_on,,70,0,5,,,,,,,1,,,,46,92
88140,note_off,,75,0,6,,,,,,,2,,,,46,0
88140,note_off,,75,0,5,,,,,,,1,,,,46,0
88180,note_on,,40,0,6,,,,,,,2,,,,58,68
88180,note_on,,0,0,5,,,,,,,1,,,,70,91
88180,note_on,,40,0,5,,,,,,,1,,,,58,68
88180,note_on,,0,0,6,,,,,,,2,,,,70,91
88250,note_off,,70,0,6,,,,,,,2,,,,58,0
88250,note_off,,70,0,5,,,,,,,1,,,,58,0
88260,note_off,,10,0,5,,,,,,,1,,,,70,0
88260,note_off,,10,0,6,,,,,,,2,,,,70,0
88305,note_on,,45,0,6,,,,,,,2,,,,47,92
88305,note_on,,45,0,5,,,,,,,1,,,,47,92
88400,note_off,,95,0,6,,,,,,,2,,,,47,0
88400,note_off,,95,0,5,,,,,,,1,,,,47,0
88430,note_on,,30,0,5,,,,,,,1,,,,59,79
88430,note_on,,0,0,6,,,,,,,2,,,,71,79
88430,note_on,,30,0,6,,,,,,,2,,,,59,79
88430,note_on,,0,0,5,,,,,,,1,,,,71,79
88495,note_off,,65,0,5,,,,,,,1,,,,59,0
88495,note_off,,65,0,6,,,,,,,2,,,,59,0
88500,note_off,,5,0,5,,,,,,,1,,,,71,0
88500,note_off,,5,0,6,,,,,,,2,,,,71,0
88555,note_on,,55,0,6,,,,,,,2,,,,51,92
88555,note_on,,55,0,5,,,,,,,1,,,,51,92
88650,note_off,,95,0,5,,,,,,,1,,,,51,0
88650,note_off,,95,0,6,,,,,,,2,,,,51,0
88685,note_on,,0,0,6,,,,,,,2,,,,75,77
88685,note_on,,35,0,6,,,,,,,2,,,,63,78
88685,note_on,,35,0,5,,,,,,,1,,,,63,78
88685,note_on,,0,0,5,,,,,,,1,,,,75,77
88715,note_off,,30,0,6,,,,,,,2,,,,75,0
88715,note_off,,30,0,5,,,,,,,1,,,,75,0
88725,note_off,,10,0,6,,,,,,,2,,,,63,0
88725,note_off,,10,0,5,,,,,,,1,,,,63,0
88810,note_on,,85,0,6,,,,,,,2,,,,44,92
88810,note_on,,85,0,5,,,,,,,1,,,,44,92
88915,note_off,,105,0,6,,,,,,,2,,,,44,0
88915,note_off,,105,0,5,,,,,,,1,,,,44,0
88925,note_on,,10,0,5,,,,,,,1,,,,56,79
88925,note_on,,10,0,6,,,,,,,2,,,,56,79
88930,note_on,,5,0,5,,,,,,,1,,,,68,77
88930,note_on,,5,0,6,,,,,,,2,,,,68,77
88985,note_off,,55,0,6,,,,,,,2,,,,56,0
88985,note_off,,55,0,5,,,,,,,1,,,,56,0
88990,note_off,,5,0,6,,,,,,,2,,,,68,0
88990,note_off,,5,0,5,,,,,,,1,,,,68,0
89035,note_on,,45,0,6,,,,,,,2,,,,47,80
89035,note_on,,45,0,5,,,,,,,1,,,,47,80
89105,note_off,,70,0,6,,,,,,,2,,,,47,0
89105,note_off,,70,0,5,,,,,,,1,,,,47,0
89155,note_on,,50,0,5,,,,,,,1,,,,71,72
89155,note_on,,50,0,6,,,,,,,2,,,,71,72
89165,note_on,,10,0,6,,,,,,,2,,,,59,72
89165,note_on,,10,0,5,,,,,,,1,,,,59,72
89210,note_off,,45,0,6,,,,,,,2,,,,59,0
89210,note_off,,45,0,5,,,,,,,1,,,,59,0
89230,note_off,,20,0,5,,,,,,,1,,,,71,0
89230,note_off,,20,0,6,,,,,,,2,,,,71,0
89285,note_on,,55,0,6,,,,,,,2,,,,41,110
89285,note_on,,55,0,5,,,,,,,1,,,,41,110
89370,note_off,,85,0,5,,,,,,,1,,,,41,0
89370,note_off,,85,0,6,,,,,,,2,,,,41,0
89400,note_on,,30,0,5,,,,,,,1,,,,65,92
89400,note_on,,30,0,6,,,,,,,2,,,,65,92
89415,note_on,,15,0,6,,,,,,,2,,,,53,51
89415,note_on,,15,0,5,,,,,,,1,,,,53,51
89460,note_off,,45,0,5,,,,,,,1,,,,65,0
89460,note_off,,45,0,6,,,,,,,2,,,,65,0
89465,note_off,,5,0,5,,,,,,,1,,,,53,0
89465,note_off,,5,0,6,,,,,,,2,,,,53,0
89520,note_on,,55,0,5,,,,,,,1,,,,44,80
89520,note_on,,55,0,6,,,,,,,2,,,,44,80
89585,note_off,,65,0,5,,,,,,,1,,,,44,0
89585,note_off,,65,0,6,,,,,,,2,,,,44,0
89640,note_on,,55,0,6,,,,,,,2,,,,68,90
89640,note_on,,55,0,5,,,,,,,1,,,,68,90
89640,note_on,,0,0,6,,,,,,,2,,,,56,104
89640,note_on,,0,0,5,,,,,,,1,,,,56,104
89690,note_off,,50,0,5,,,,,,,1,,,,56,0
89690,note_off,,0,0,5,,,,,,,1,,,,68,0
89690,note_off,,0,0,6,,,,,,,2,,,,68,0
89690,note_off,,50,0,6,,,,,,,2,,,,56,0
89765,note_on,,75,0,6,,,,,,,2,,,,37,92
89765,note_on,,75,0,5,,,,,,,1,,,,37,92
89845,note_off,,80,0,5,,,,,,,1,,,,37,0
89845,note_off,,80,0,6,,,,,,,2,,,,37,0
89880,note_on,,35,0,6,,,,,,,2,,,,61,64
89880,note_on,,35,0,5,,,,,,,1,,,,61,64
89890,note_on,,10,0,5,,,,,,,1,,,,49,64
89890,note_on,,10,0,6,,,,,,,2,,,,49,64
89930,note_off,,40,0,5,,,,,,,1,,,,49,0
89930,note_off,,40,0,6,,,,,,,2,,,,49,0
89960,note_off,,30,0,6,,,,,,,2,,,,61,0
89960,note_off,,30,0,5,,,,,,,1,,,,61,0
89990,note_on,,30,0,6,,,,,,,2,,,,41,91
89990,note_on,,30,0,5,,,,,,,1,,,,41,91
90065,note_off,,75,0,5,,,,,,,1,,,,41,0
90065,note_off,,75,0,6,,,,,,,2,,,,41,0
90090,note_on,,0,0,5,,,,,,,1,,,,65,64
90090,note_on,,25,0,5,,,,,,,1,,,,53,64
90090,note_on,,0,0,6,,,,,,,2,,,,65,64
90090,note_on,,25,0,6,,,,,,,2,,,,53,64
90170,note_off,,0,0,6,,,,,,,2,,,,53,0
90170,note_off,,0,0,5,,,,,,,1,,,,53,0
90170,note_off,,80,0,6,,,,,,,2,,,,65,0
90170,note_off,,80,0,5,,,,,,,1,,,,65,0
90230,note_on,,60,0,5,,,,,,,1,,,,42,110
90230,note_on,,60,0,6,,,,,,,2,,,,42,110
90345,note_off,,115,0,6,,,,,,,2,,,,42,0
90345,note_off,,115,0,5,,,,,,,1,,,,42,0
90350,note_on,,0,0,5,,,,,,,1,,,,66,80
90350,note_on,,0,0,6,,,,,,,2,,,,66,80
90350,note_on,,5,0,5,,,,,,,1,,,,54,80
90350,note_on,,5,0,6,,,,,,,2,,,,54,80
90395,note_off,,45,0,5,,,,,,,1,,,,54,0
90395,note_off,,45,0,6,,,,,,,2,,,,54,0
90405,note_off,,10,0,6,,,,,,,2,,,,66,0
90405,note_off,,10,0,5,,,,,,,1,,,,66,0
90465,note_on,,60,0,5,,,,,,,1,,,,46,80
90465,note_on,,60,0,6,,,,,,,2,,,,46,80
90545,note_off,,80,0,6,,,,,,,2,,,,46,0
90545,note_off,,80,0,5,,,,,,,1,,,,46,0
90580,note_on,,35,0,6,,,,,,,2,,,,70,88
90580,note_on,,35,0,5,,,,,,,1,,,,70,88
90585,note_on,,5,0,5,,,,,,,1,,,,58,88
90585,note_on,,5,0,6,,,,,,,2,,,,58,88
90625,note_off,,40,0,5,,,,,,,1,,,,58,0
90625,note_off,,40,0,6,,,,,,,2,,,,58,0
90630,note_off,,5,0,5,,,,,,,1,,,,70,0
90630,note_off,,5,0,6,,,,,,,2,,,,70,0
90720,note_on,,90,0,6,,,,,,,2,,,,37,92
90720,note_on,,90,0,5,,,,,,,1,,,,37,92
90805,note_off,,85,0,6,,,,,,,2,,,,37,0
90805,note_off,,85,0,5,,,,,,,1,,,,37,0
90820,note_on,,15,0,6,,,,,,,2,,,,49,80
90820,note_on,,15,0,5,,,,,,,1,,,,49,80
90825,note_on,,5,0,6,,,,,,,2,,,,61,79
90825,note_on,,5,0,5,,,,,,,1,,,,61,79
90865,note_off,,40,0,6,,,,,,,2,,,,49,0
90865,note_off,,40,0,5,,,,,,,1,,,,49,0
90885,note_off,,20,0,6,,,,,,,2,,,,61,0
90885,note_off,,20,0,5,,,,,,,1,,,,61,0
90950,note_on,,65,0,5,,,,,,,1,,,,42,80
90950,note_on,,65,0,6,,,,,,,2,,,,42,80
91025,note_off,,75,0,6,,,,,,,2,,,,42,0
91025,note_off,,75,0,5,,,,,,,1,,,,42,0
91060,note_on,,0,0,6,,,,,,,2,,,,54,88
91060,note_on,,0,0,5,,,,,,,1,,,,54,88
91060,note_on,,35,0,6,,,,,,,2,,,,66,88
91060,note_on,,35,0,5,,,,,,,1,,,,66,88
91110,note_off,,50,0,6,,,,,,,2,,,,54,0
91110,note_off,,50,0,5,,,,,,,1,,,,54,0
91115,note_off,,5,0,5,,,,,,,1,,,,66,0
91115,note_off,,5,0,6,,,,,,,2,,,,66,0
91190,note_on,,75,0,6,,,,,,,2,,,,34,92
91190,note_on,,75,0,5,,,,,,,1,,,,34,92
91260,note_off,,70,0,5,,,,,,,1,,,,34,0
91260,note_off,,70,0,6,,,,,,,2,,,,34,0
91300,note_on,,40,0,5,,,,,,,1,,,,58,110
91300,note_on,,0,0,5,,,,,,,1,,,,46,88
91300,note_on,,40,0,6,,,,,,,2,,,,58,110
91300,note_on,,0,0,6,,,,,,,2,,,,46,88
91350,note_off,,50,0,6,,,,,,,2,,,,58,0
91350,note_off,,50,0,5,,,,,,,1,,,,58,0
91355,note_off,,5,0,6,,,,,,,2,,,,46,0
91355,note_off,,5,0,5,,,,,,,1,,,,46,0
91430,note_on,,75,0,6,,,,,,,2,,,,37,80
91430,note_on,,75,0,5,,,,,,,1,,,,37,80
91500,note_off,,70,0,5,,,,,,,1,,,,37,0
91500,note_off,,70,0,6,,,,,,,2,,,,37,0
91540,note_on,,40,0,6,,,,,,,2,,,,49,79
91540,note_on,,0,0,5,,,,,,,1,,,,61,91
91540,note_on,,0,0,6,,,,,,,2,,,,61,91
91540,note_on,,40,0,5,,,,,,,1,,,,49,79
91590,note_off,,50,0,5,,,,,,,1,,,,49,0
91590,note_off,,50,0,6,,,,,,,2,,,,49,0
91595,note_off,,5,0,5,,,,,,,1,,,,61,0
91595,note_off,,5,0,6,,,,,,,2,,,,61,0
91670,note_on,,0,0,6,,,,,,,2,,,,42,88
91670,note_on,,75,0,5,,,,,,,1,,,,30,90
91670,note_on,,75,0,6,,,,,,,2,,,,30,90
91670,note_on,,0,0,5,,,,,,,1,,,,42,88
91715,note_off,,45,0,6,,,,,,,2,,,,42,0
91715,note_off,,45,0,5,,,,,,,1,,,,42,0
91730,note_off,,15,0,6,,,,,,,2,,,,30,0
91730,note_off,,15,0,5,,,,,,,1,,,,30,0
91795,note_on,,0,0,6,,,,,,,2,,,,54,76
91795,note_on,,65,0,6,,,,,,,2,,,,66,90
91795,note_on,,0,0,5,,,,,,,1,,,,54,76
91795,note_on,,65,0,5,,,,,,,1,,,,66,90
91850,note_off,,55,0,5,,,,,,,1,,,,54,0
91850,note_off,,55,0,6,,,,,,,2,,,,54,0
91865,note_off,,15,0,5,,,,,,,1,,,,66,0
91865,note_off,,15,0,6,,,,,,,2,,,,66,0
91905,note_on,,40,0,6,,,,,,,2,,,,34,110
91905,note_on,,40,0,5,,,,,,,1,,,,34,110
91910,note_on,,5,0,6,,,,,,,2,,,,46,104
91910,note_on,,5,0,5,,,,,,,1,,,,46,104
91965,note_off,,55,0,5,,,,,,,1,,,,46,0
91965,note_off,,55,0,6,,,,,,,2,,,,46,0
91970,note_off,,5,0,6,,,,,,,2,,,,34,0
91970,note_off,,5,0,5,,,,,,,1,,,,34,0
92010,note_on,,40,0,5,,,,,,,1,,,,58,79
92010,note_on,,40,0,6,,,,,,,2,,,,58,79
92020,note_on,,10,0,5,,,,,,,1,,,,70,78
92020,note_on,,10,0,6,,,,,,,2,,,,70,78
92070,note_off,,50,0,5,,,,,,,1,,,,70,0
92070,note_off,,50,0,6,,,,,,,2,,,,70,0
92070,note_off,,0,0,5,,,,,,,1,,,,58,0
92070,note_off,,0,0,6,,,,,,,2,,,,58,0
92155,note_on,,85,0,6,,,,,,,2,,,,37,110
92155,note_on,,85,0,5,,,,,,,1,,,,37,110
92160,note_on,,0,0,5,,,,,,,1,,,,44,104
92160,note_on,,5,0,6,,,,,,,2,,,,49,122
92160,note_on,,0,0,6,,,,,,,2,,,,44,104
92160,note_on,,5,0,5,,,,,,,1,,,,49,122
92250,note_off,,90,0,6,,,,,,,2,,,,44,0
92250,note_off,,90,0,5,,,,,,,1,,,,44,0
92265,note_on,,15,0,6,,,,,,,2,,,,61,104
92265,note_on,,15,0,5,,,,,,,1,,,,61,104
92270,note_off,,5,0,5,,,,,,,1,,,,49,0
92270,note_on,,0,0,5,,,,,,,1,,,,73,88
92270,note_off,,0,0,6,,,,,,,2,,,,37,0
92270,note_off,,5,0,6,,,,,,,2,,,,49,0
92270,note_on,,0,0,5,,,,,,,1,,,,65,80
92270,note_on,,0,0,6,,,,,,,2,,,,73,88
92270,note_off,,0,0,5,,,,,,,1,,,,37,0
92270,note_on,,0,0,6,,,,,,,2,,,,65,80
92275,note_on,,5,0,5,,,,,,,1,,,,68,72
92275,note_on,,5,0,6,,,,,,,2,,,,68,72
92335,note_off,,60,0,5,,,,,,,1,,,,61,0
92335,note_off,,60,0,6,,,,,,,2,,,,61,0
92340,note_off,,5,0,6,,,,,,,2,,,,65,0
92340,note_off,,5,0,5,,,,,,,1,,,,65,0
92355,note_off,,15,0,5,,,,,,,1,,,,73,0
92355,note_off,,15,0,6,,,,,,,2,,,,73,0
92360,note_off,,5,0,5,,,,,,,1,,,,68,0
92360,note_off,,5,0,6,,,,,,,2,,,,68,0
92400,note_on,,40,0,5,,,,,,,1,,,,51,90
92400,note_on,,0,0,5,,,,,,,1,,,,39,88
92400,note_on,,0,0,6,,,,,,,2,,,,39,88
92400,note_on,,40,0,6,,,,,,,2,,,,51,90
92460,note_off,,60,0,6,,,,,,,2,,,,39,0
92460,note_off,,0,0,6,,,,,,,2,,,,51,0
92460,note_off,,60,0,5,,,,,,,1,,,,39,0
92460,note_off,,0,0,5,,,,,,,1,,,,51,0
92520,note_on,,60,0,5,,,,,,,1,,,,63,78
92520,note_on,,60,0,6,,,,,,,2,,,,63,78
92520,note_on,,0,0,6,,,,,,,2,,,,75,91
92520,note_on,,0,0,5,,,,,,,1,,,,75,91
92570,note_off,,50,0,6,,,,,,,2,,,,63,0
92570,note_off,,50,0,5,,,,,,,1,,,,63,0
92575,note_off,,5,0,6,,,,,,,2,,,,75,0
92575,note_off,,5,0,5,,,,,,,1,,,,75,0
92655,note_on,,0,0,5,,,,,,,1,,,,53,88
92655,note_on,,80,0,6,,,,,,,2,,,,41,90
92655,note_on,,0,0,6,,,,,,,2,,,,53,88
92655,note_on,,80,0,5,,,,,,,1,,,,41,90
92710,note_off,,55,0,6,,,,,,,2,,,,41,0
92710,note_off,,55,0,5,,,,,,,1,,,,41,0
92715,note_off,,5,0,5,,,,,,,1,,,,53,0
92715,note_off,,5,0,6,,,,,,,2,,,,53,0
92765,note_on,,0,0,5,,,,,,,1,,,,65,64
92765,note_on,,50,0,5,,,,,,,1,,,,77,90
92765,note_on,,0,0,6,,,,,,,2,,,,65,64
92765,note_on,,50,0,6,,,,,,,2,,,,77,90
92825,note_off,,60,0,6,,,,,,,2,,,,65,0
92825,note_off,,60,0,5,,,,,,,1,,,,65,0
92830,note_off,,5,0,5,,,,,,,1,,,,77,0
92830,note_off,,5,0,6,,,,,,,2,,,,77,0
92890,note_on,,60,0,5,,,,,,,1,,,,54,79
92890,note_on,,60,0,6,,,,,,,2,,,,54,79
92890,note_on,,0,0,5,,,,,,,1,,,,42,91
92890,note_on,,0,0,6,,,,,,,2,,,,42,91
92940,note_off,,50,0,5,,,,,,,1,,,,42,0
92940,note_off,,50,0,6,,,,,,,2,,,,42,0
92945,note_off,,5,0,6,,,,,,,2,,,,54,0
92945,note_off,,5,0,5,,,,,,,1,,,,54,0
93005,note_on,,60,0,6,,,,,,,2,,,,66,80
93005,note_on,,60,0,5,,,,,,,1,,,,66,80
93015,note_on,,10,0,5,,,,,,,1,,,,78,92
93015,note_on,,10,0,6,,,,,,,2,,,,78,92
93070,note_off,,55,0,6,,,,,,,2,,,,78,0
93070,note_off,,0,0,5,,,,,,,1,,,,66,0
93070,note_off,,55,0,5,,,,,,,1,,,,78,0
93070,note_off,,0,0,6,,,,,,,2,,,,66,0
93130,note_on,,60,0,6,,,,,,,2,,,,56,104
93130,note_on,,60,0,5,,,,,,,1,,,,56,104
93135,note_on,,0,0,5,,,,,,,1,,,,49,80
93135,note_on,,0,0,6,,,,,,,2,,,,49,80
93135,note_on,,5,0,5,,,,,,,1,,,,44,104
93135,note_on,,5,0,6,,,,,,,2,,,,44,104
93230,note_off,,95,0,6,,,,,,,2,,,,49,0
93230,note_off,,95,0,5,,,,,,,1,,,,49,0
93235,note_off,,0,0,5,,,,,,,1,,,,56,0
93235,note_off,,0,0,6,,,,,,,2,,,,56,0
93235,note_off,,5,0,6,,,,,,,2,,,,44,0
93235,note_off,,5,0,5,,,,,,,1,,,,44,0
93245,note_on,,0,0,5,,,,,,,1,,,,80,90
93245,note_on,,10,0,6,,,,,,,2,,,,68,68
93245,note_on,,10,0,5,,,,,,,1,,,,68,68
93245,note_on,,0,0,6,,,,,,,2,,,,80,90
93260,note_on,,15,0,6,,,,,,,2,,,,73,54
93260,note_on,,15,0,5,,,,,,,1,,,,73,54
93300,note_off,,40,0,5,,,,,,,1,,,,73,0
93300,note_off,,40,0,6,,,,,,,2,,,,73,0
93320,note_off,,20,0,6,,,,,,,2,,,,68,0
93320,note_off,,20,0,5,,,,,,,1,,,,68,0
93325,note_off,,5,0,5,,,,,,,1,,,,80,0
93325,note_off,,5,0,6,,,,,,,2,,,,80,0
93370,note_on,,45,0,5,,,,,,,1,,,,43,90
93370,note_on,,45,0,6,,,,,,,2,,,,43,90
93375,note_on,,5,0,6,,,,,,,2,,,,55,69
93375,note_on,,5,0,5,,,,,,,1,,,,55,69
93430,note_off,,55,0,5,,,,,,,1,,,,55,0
93430,note_off,,55,0,6,,,,,,,2,,,,55,0
93435,note_off,,5,0,6,,,,,,,2,,,,43,0
93435,note_off,,5,0,5,,,,,,,1,,,,43,0
93470,note_on,,35,0,5,,,,,,,1,,,,79,68
93470,note_on,,35,0,6,,,,,,,2,,,,79,68
93475,note_on,,5,0,5,,,,,,,1,,,,67,59
93475,note_on,,5,0,6,,,,,,,2,,,,67,59
93535,note_off,,60,0,5,,,,,,,1,,,,79,0
93535,note_off,,60,0,6,,,,,,,2,,,,79,0
93540,note_off,,5,0,6,,,,,,,2,,,,67,0
93540,note_off,,5,0,5,,,,,,,1,,,,67,0
93595,note_on,,55,0,6,,,,,,,2,,,,56,88
93595,note_on,,55,0,5,,,,,,,1,,,,56,88
93600,note_on,,0,0,5,,,,,,,1,,,,49,80
93600,note_on,,0,0,6,,,,,,,2,,,,49,80
93600,note_on,,5,0,6,,,,,,,2,,,,44,84
93600,note_on,,5,0,5,,,,,,,1,,,,44,84
93685,note_off,,85,0,5,,,,,,,1,,,,56,0
93685,note_off,,85,0,6,,,,,,,2,,,,56,0
93700,note_off,,15,0,6,,,,,,,2,,,,49,0
93700,note_off,,15,0,5,,,,,,,1,,,,49,0
93705,note_off,,5,0,6,,,,,,,2,,,,44,0
93705,note_off,,5,0,5,,,,,,,1,,,,44,0
93725,note_on,,20,0,5,,,,,,,1,,,,68,80
93725,note_on,,20,0,6,,,,,,,2,,,,68,80
93730,note_on,,5,0,6,,,,,,,2,,,,80,88
93730,note_on,,5,0,5,,,,,,,1,,,,80,88
93780,note_off,,50,0,5,,,,,,,1,,,,80,0
93780,note_off,,50,0,6,,,,,,,2,,,,80,0
93790,note_off,,10,0,6,,,,,,,2,,,,68,0
93790,note_off,,10,0,5,,,,,,,1,,,,68,0
93850,note_on,,60,0,6,,,,,,,2,,,,41,62
93850,note_on,,60,0,5,,,,,,,1,,,,41,62
93850,note_on,,0,0,5,,,,,,,1,,,,53,64
93850,note_on,,0,0,6,,,,,,,2,,,,53,64
93865,note_on,,15,0,5,,,,,,,1,,,,43,50
93865,note_on,,15,0,6,,,,,,,2,,,,43,50
93890,note_off,,25,0,5,,,,,,,1,,,,41,0
93890,note_off,,25,0,6,,,,,,,2,,,,41,0
93895,note_off,,5,0,5,,,,,,,1,,,,53,0
93895,note_off,,0,0,6,,,,,,,2,,,,43,0
93895,note_off,,5,0,6,,,,,,,2,,,,53,0
93895,note_off,,0,0,5,,,,,,,1,,,,43,0
93955,note_on,,0,0,5,,,,,,,1,,,,65,72
93955,note_on,,60,0,6,,,,,,,2,,,,77,88
93955,note_on,,60,0,5,,,,,,,1,,,,77,88
93955,note_on,,0,0,6,,,,,,,2,,,,65,72
94015,note_off,,60,0,5,,,,,,,1,,,,77,0
94015,note_off,,60,0,6,,,,,,,2,,,,77,0
94020,note_off,,5,0,5,,,,,,,1,,,,65,0
94020,note_off,,5,0,6,,,,,,,2,,,,65,0
94090,note_on,,70,0,5,,,,,,,1,,,,42,91
94090,note_on,,70,0,6,,,,,,,2,,,,42,91
94095,note_on,,5,0,6,,,,,,,2,,,,49,90
94095,note_on,,0,0,5,,,,,,,1,,,,54,110
94095,note_on,,0,0,6,,,,,,,2,,,,54,110
94095,note_on,,5,0,5,,,,,,,1,,,,49,90
94105,note_on,,10,0,5,,,,,,,1,,,,46,80
94105,note_on,,10,0,6,,,,,,,2,,,,46,80
94185,note_off,,80,0,5,,,,,,,1,,,,46,0
94185,note_off,,80,0,6,,,,,,,2,,,,46,0
94185,note_off,,0,0,5,,,,,,,1,,,,54,0
94185,note_off,,0,0,6,,,,,,,2,,,,54,0
94190,note_off,,5,0,6,,,,,,,2,,,,49,0
94190,note_off,,5,0,5,,,,,,,1,,,,49,0
94195,note_off,,5,0,5,,,,,,,1,,,,42,0
94195,note_off,,5,0,6,,,,,,,2,,,,42,0
94205,note_on,,0,0,5,,,,,,,1,,,,78,77
94205,note_on,,0,0,6,,,,,,,2,,,,78,77
94205,note_on,,10,0,5,,,,,,,1,,,,66,77
94205,note_on,,10,0,6,,,,,,,2,,,,66,77
94215,note_on,,0,0,5,,,,,,,1,,,,73,77
94215,note_on,,10,0,6,,,,,,,2,,,,70,80
94215,note_on,,10,0,5,,,,,,,1,,,,70,80
94215,note_on,,0,0,6,,,,,,,2,,,,73,77
94255,note_off,,40,0,5,,,,,,,1,,,,70,0
94255,note_off,,40,0,6,,,,,,,2,,,,70,0
94265,note_off,,10,0,6,,,,,,,2,,,,66,0
94265,note_off,,10,0,5,,,,,,,1,,,,66,0
94270,note_off,,5,0,5,,,,,,,1,,,,78,0
94270,note_off,,5,0,6,,,,,,,2,,,,78,0
94275,note_off,,5,0,6,,,,,,,2,,,,73,0
94275,note_off,,5,0,5,,,,,,,1,,,,73,0
94340,note_on,,0,0,6,,,,,,,2,,,,56,91
94340,note_on,,65,0,6,,,,,,,2,,,,44,79
94340,note_on,,65,0,5,,,,,,,1,,,,44,79
94340,note_on,,0,0,5,,,,,,,1,,,,56,91
94390,note_off,,50,0,5,,,,,,,1,,,,56,0
94390,note_off,,50,0,6,,,,,,,2,,,,56,0
94395,note_off,,5,0,6,,,,,,,2,,,,44,0
94395,note_off,,5,0,5,,,,,,,1,,,,44,0
94445,note_on,,50,0,6,,,,,,,2,,,,68,79
94445,note_on,,50,0,5,,,,,,,1,,,,68,79
94450,note_on,,5,0,5,,,,,,,1,,,,80,88
94450,note_on,,5,0,6,,,,,,,2,,,,80,88
94515,note_off,,65,0,6,,,,,,,2,,,,68,0
94515,note_off,,65,0,5,,,,,,,1,,,,68,0
94520,note_off,,5,0,6,,,,,,,2,,,,80,0
94520,note_off,,5,0,5,,,,,,,1,,,,80,0
94575,note_on,,55,0,5,,,,,,,1,,,,58,79
94575,note_on,,55,0,6,,,,,,,2,,,,58,79
94575,note_on,,0,0,5,,,,,,,1,,,,46,91
94575,note_on,,0,0,6,,,,,,,2,,,,46,91
94650,note_off,,75,0,5,,,,,,,1,,,,58,0
94650,note_off,,75,0,6,,,,,,,2,,,,58,0
94660,note_off,,10,0,5,,,,,,,1,,,,46,0
94660,note_off,,10,0,6,,,,,,,2,,,,46,0
94700,note_on,,40,0,5,,,,,,,1,,,,70,78
94700,note_on,,40,0,6,,,,,,,2,,,,70,78
94700,note_on,,0,0,6,,,,,,,2,,,,82,88
94700,note_on,,0,0,5,,,,,,,1,,,,82,88
94765,note_off,,65,0,6,,,,,,,2,,,,70,0
94765,note_off,,65,0,5,,,,,,,1,,,,70,0
94775,note_off,,10,0,6,,,,,,,2,,,,82,0
94775,note_off,,10,0,5,,,,,,,1,,,,82,0
94820,note_on,,0,0,6,,,,,,,2,,,,59,90
94820,note_on,,45,0,5,,,,,,,1,,,,47,90
94820,note_on,,45,0,6,,,,,,,2,,,,47,90
94820,note_on,,0,0,5,,,,,,,1,,,,59,90
94880,note_off,,60,0,5,,,,,,,1,,,,59,0
94880,note_off,,60,0,6,,,,,,,2,,,,59,0
94885,note_off,,5,0,6,,,,,,,2,,,,47,0
94885,note_off,,5,0,5,,,,,,,1,,,,47,0
94920,note_on,,35,0,5,,,,,,,1,,,,83,78
94920,note_on,,35,0,6,,,,,,,2,,,,83,78
94925,note_on,,5,0,6,,,,,,,2,,,,71,77
94925,note_on,,5,0,5,,,,,,,1,,,,71,77
94990,note_off,,65,0,5,,,,,,,1,,,,83,0
94990,note_off,,65,0,6,,,,,,,2,,,,83,0
94995,note_off,,5,0,6,,,,,,,2,,,,71,0
94995,note_off,,5,0,5,,,,,,,1,,,,71,0
95045,note_on,,0,0,5,,,,,,,1,,,,49,84
95045,note_on,,50,0,5,,,,,,,1,,,,61,110
95045,note_on,,0,0,6,,,,,,,2,,,,49,84
95045,note_on,,50,0,6,,,,,,,2,,,,61,110
95050,note_on,,5,0,5,,,,,,,1,,,,54,80
95050,note_on,,5,0,6,,,,,,,2,,,,54,80
95135,note_off,,85,0,6,,,,,,,2,,,,61,0
95135,note_off,,85,0,5,,,,,,,1,,,,61,0
95140,note_off,,5,0,5,,,,,,,1,,,,49,0
95140,note_off,,5,0,6,,,,,,,2,,,,49,0
95145,note_off,,5,0,5,,,,,,,1,,,,54,0
95145,note_off,,5,0,6,,,,,,,2,,,,54,0
95160,note_on,,15,0,5,,,,,,,1,,,,73,72
95160,note_on,,0,0,6,,,,,,,2,,,,85,58
95160,note_on,,15,0,6,,,,,,,2,,,,73,72
95160,note_on,,0,0,5,,,,,,,1,,,,85,58
95165,note_on,,5,0,5,,,,,,,1,,,,78,72
95165,note_on,,5,0,6,,,,,,,2,,,,78,72
95225,note_off,,60,0,5,,,,,,,1,,,,73,0
95225,note_off,,60,0,6,,,,,,,2,,,,73,0
95230,note_off,,5,0,6,,,,,,,2,,,,78,0
95230,note_off,,5,0,5,,,,,,,1,,,,78,0
95240,note_off,,10,0,5,,,,,,,1,,,,85,0
95240,note_off,,10,0,6,,,,,,,2,,,,85,0
95280,note_on,,40,0,6,,,,,,,2,,,,48,79
95280,note_on,,40,0,5,,,,,,,1,,,,48,79
95285,note_on,,5,0,6,,,,,,,2,,,,60,68
95285,note_on,,5,0,5,,,,,,,1,,,,60,68
95335,note_off,,50,0,6,,,,,,,2,,,,60,0
95335,note_off,,50,0,5,,,,,,,1,,,,60,0
95340,note_off,,5,0,6,,,,,,,2,,,,48,0
95340,note_off,,5,0,5,,,,,,,1,,,,48,0
95385,note_on,,45,0,5,,,,,,,1,,,,84,77
95385,note_on,,45,0,6,,,,,,,2,,,,84,77
95390,note_on,,5,0,6,,,,,,,2,,,,72,64
95390,note_on,,5,0,5,,,,,,,1,,,,72,64
95390,note_on,,0,0,5,,,,,,,1,,,,78,76
95390,note_on,,0,0,6,,,,,,,2,,,,78,76
95450,note_off,,60,0,5,,,,,,,1,,,,78,0
95450,note_off,,60,0,6,,,,,,,2,,,,78,0
95455,note_off,,5,0,5,,,,,,,1,,,,72,0
95455,note_off,,0,0,6,,,,,,,2,,,,84,0
95455,note_off,,5,0,6,,,,,,,2,,,,72,0
95455,note_off,,0,0,5,,,,,,,1,,,,84,0
95515,note_on,,60,0,5,,,,,,,1,,,,61,90
95515,note_on,,60,0,6,,,,,,,2,,,,61,90
95515,note_on,,0,0,6,,,,,,,2,,,,49,104
95515,note_on,,0,0,5,,,,,,,1,,,,49,104
95520,note_on,,5,0,5,,,,,,,1,,,,54,78
95520,note_on,,5,0,6,,,,,,,2,,,,54,78
95580,note_off,,60,0,6,,,,,,,2,,,,61,0
95580,note_off,,60,0,5,,,,,,,1,,,,61,0
95595,note_off,,15,0,5,,,,,,,1,,,,49,0
95595,note_off,,0,0,6,,,,,,,2,,,,54,0
95595,note_off,,0,0,5,,,,,,,1,,,,54,0
95595,note_off,,15,0,6,,,,,,,2,,,,49,0
95650,note_on,,55,0,5,,,,,,,1,,,,85,58
95650,note_on,,55,0,6,,,,,,,2,,,,85,58
95655,note_on,,5,0,5,,,,,,,1,,,,73,88
95655,note_on,,5,0,6,,,,,,,2,,,,73,88
95695,note_off,,40,0,5,,,,,,,1,,,,73,0
95695,note_off,,0,0,5,,,,,,,1,,,,85,0
95695,note_off,,0,0,6,,,,,,,2,,,,85,0
95695,note_off,,40,0,6,,,,,,,2,,,,73,0
95755,note_on,,60,0,6,,,,,,,2,,,,58,88
95755,note_on,,60,0,5,,,,,,,1,,,,58,88
95755,note_on,,0,0,5,,,,,,,1,,,,46,110
95755,note_on,,0,0,6,,,,,,,2,,,,46,110
95840,note_off,,85,0,6,,,,,,,2,,,,46,0
95840,note_off,,0,0,6,,,,,,,2,,,,58,0
95840,note_off,,0,0,5,,,,,,,1,,,,58,0
95840,note_off,,85,0,5,,,,,,,1,,,,46,0
95875,note_on,,35,0,6,,,,,,,2,,,,82,88
95875,note_on,,35,0,5,,,,,,,1,,,,82,88
95880,note_on,,5,0,5,,,,,,,1,,,,70,88
95880,note_on,,5,0,6,,,,,,,2,,,,70,88
95940,note_off,,60,0,6,,,,,,,2,,,,70,0
95940,note_off,,60,0,5,,,,,,,1,,,,70,0
95945,note_off,,5,0,6,,,,,,,2,,,,82,0
95945,note_off,,5,0,5,,,,,,,1,,,,82,0
96000,note_on,,55,0,6,,,,,,,2,,,,49,110
96000,note_on,,55,0,5,,,,,,,1,,,,49,110
96005,note_on,,5,0,6,,,,,,,2,,,,61,110
96005,note_on,,5,0,5,,,,,,,1,,,,61,110
96010,note_on,,5,0,6,,,,,,,2,,,,56,92
96010,note_on,,5,0,5,,,,,,,1,,,,56,92
96100,note_off,,0,0,5,,,,,,,1,,,,49,0
96100,note_off,,90,0,6,,,,,,,2,,,,56,0
96100,note_off,,0,0,6,,,,,,,2,,,,49,0
96100,note_off,,90,0,5,,,,,,,1,,,,56,0
96115,note_on,,0,0,5,,,,,,,1,,,,77,80
96115,note_on,,15,0,6,,,,,,,2,,,,73,104
96115,note_on,,15,0,5,,,,,,,1,,,,73,104
96115,note_on,,0,0,6,,,,,,,2,,,,77,80
96120,note_off,,5,0,6,,,,,,,2,,,,61,0
96120,note_on,,0,0,6,,,,,,,2,,,,80,88
96120,note_on,,0,0,5,,,,,,,1,,,,80,88
96120,note_off,,5,0,5,,,,,,,1,,,,61,0
96125,note_on,,5,0,5,,,,,,,1,,,,85,58
96125,note_on,,5,0,6,,,,,,,2,,,,85,58
96170,note_off,,45,0,5,,,,,,,1,,,,73,0
96170,note_off,,45,0,6,,,,,,,2,,,,73,0
96180,note_off,,10,0,6,,,,,,,2,,,,77,0
96180,note_off,,10,0,5,,,,,,,1,,,,77,0
96190,note_off,,10,0,6,,,,,,,2,,,,80,0
96190,note_off,,0,0,6,,,,,,,2,,,,85,0
96190,note_off,,0,0,5,,,,,,,1,,,,85,0
96190,note_off,,10,0,5,,,,,,,1,,,,80,0
96235,note_on,,0,0,6,,,,,,,2,,,,63,110
96235,note_on,,0,0,5,,,,,,,1,,,,63,110
96235,note_on,,45,0,5,,,,,,,1,,,,51,88
96235,note_on,,45,0,6,,,,,,,2,,,,51,88
96325,note_off,,90,0,5,,,,,,,1,,,,51,0
96325,note_off,,90,0,6,,,,,,,2,,,,51,0
96330,note_off,,5,0,6,,,,,,,2,,,,63,0
96330,note_off,,5,0,5,,,,,,,1,,,,63,0
96355,note_on,,25,0,5,,,,,,,1,,,,75,88
96355,note_on,,0,0,5,,,,,,,1,,,,87,110
96355,note_on,,25,0,6,,,,,,,2,,,,75,88
96355,note_on,,0,0,6,,,,,,,2,,,,87,110
96415,note_off,,60,0,5,,,,,,,1,,,,75,0
96415,note_off,,60,0,6,,,,,,,2,,,,75,0
96420,note_off,,5,0,5,,,,,,,1,,,,87,0
96420,note_off,,5,0,6,,,,,,,2,,,,87,0
96485,note_on,,0,0,6,,,,,,,2,,,,53,110
96485,note_on,,0,0,5,,,,,,,1,,,,53,110
96485,note_on,,65,0,6,,,,,,,2,,,,65,88
96485,note_on,,65,0,5,,,,,,,1,,,,65,88
96555,note_off,,70,0,5,,,,,,,1,,,,53,0
96555,note_off,,0,0,6,,,,,,,2,,,,65,0
96555,note_off,,70,0,6,,,,,,,2,,,,53,0
96555,note_off,,0,0,5,,,,,,,1,,,,65,0
96595,note_on,,40,0,6,,,,,,,2,,,,89,88
96595,note_on,,40,0,5,,,,,,,1,,,,89,88
96595,note_on,,0,0,5,,,,,,,1,,,,77,77
96595,note_on,,0,0,6,,,,,,,2,,,,77,77
96665,note_off,,70,0,5,,,,,,,1,,,,77,0
96665,note_off,,70,0,6,,,,,,,2,,,,77,0
96670,note_off,,5,0,5,,,,,,,1,,,,89,0
96670,note_off,,5,0,6,,,,,,,2,,,,89,0
96715,note_on,,45,0,6,,,,,,,2,,,,66,88
96715,note_on,,45,0,5,,,,,,,1,,,,66,88
96715,note_on,,0,0,6,,,,,,,2,,,,54,88
96715,note_on,,0,0,5,,,,,,,1,,,,54,88
96830,note_on,,115,0,6,,,,,,,2,,,,78,80
96830,note_on,,115,0,5,,,,,,,1,,,,78,80
96835,note_on,,5,0,6,,,,,,,2,,,,90,88
96835,note_on,,5,0,5,,,,,,,1,,,,90,88
96850,note_off,,15,0,6,,,,,,,2,,,,66,0
96850,note_off,,15,0,5,,,,,,,1,,,,66,0
96855,note_off,,5,0,6,,,,,,,2,,,,54,0
96855,note_off,,5,0,5,,,,,,,1,,,,54,0
96905,note_off,,50,0,5,,,,,,,1,,,,78,0
96905,note_off,,50,0,6,,,,,,,2,,,,78,0
96935,note_off,,30,0,5,,,,,,,1,,,,90,0
96935,note_off,,30,0,6,,,,,,,2,,,,90,0
96970,note_on,,35,0,6,,,,,,,2,,,,56,127
96970,note_on,,0,0,5,,,,,,,1,,,,68,88
96970,note_on,,0,0,6,,,,,,,2,,,,68,88
96970,note_on,,35,0,5,,,,,,,1,,,,56,127
97050,note_off,,80,0,5,,,,,,,1,,,,68,0
97050,note_off,,80,0,6,,,,,,,2,,,,68,0
97055,note_off,,5,0,5,,,,,,,1,,,,56,0
97055,note_off,,5,0,6,,,,,,,2,,,,56,0
97075,note_on,,20,0,6,,,,,,,2,,,,92,88
97075,note_on,,20,0,5,,,,,,,1,,,,92,88
97080,note_on,,5,0,5,,,,,,,1,,,,80,88
97080,note_on,,5,0,6,,,,,,,2,,,,80,88
97090,note_on,,10,0,5,,,,,,,1,,,,85,42
97090,note_on,,10,0,6,,,,,,,2,,,,85,42
97175,note_off,,0,0,6,,,,,,,2,,,,80,0
97175,note_off,,0,0,5,,,,,,,1,,,,80,0
97175,note_off,,85,0,5,,,,,,,1,,,,85,0
97175,note_off,,85,0,6,,,,,,,2,,,,85,0
97190,note_off,,15,0,6,,,,,,,2,,,,92,0
97190,note_off,,15,0,5,,,,,,,1,,,,92,0
97195,note_on,,5,0,5,,,,,,,1,,,,55,79
97195,note_on,,5,0,6,,,,,,,2,,,,55,79
97200,note_on,,5,0,6,,,,,,,2,,,,67,61
97200,note_on,,5,0,5,,,,,,,1,,,,67,61
97270,note_off,,70,0,5,,,,,,,1,,,,67,0
97270,note_off,,0,0,5,,,,,,,1,,,,55,0
97270,note_off,,70,0,6,,,,,,,2,,,,67,0
97270,note_off,,0,0,6,,,,,,,2,,,,55,0
97310,note_on,,40,0,5,,,,,,,1,,,,91,72
97310,note_on,,40,0,6,,,,,,,2,,,,91,72
97315,note_on,,5,0,6,,,,,,,2,,,,79,72
97315,note_on,,0,0,5,,,,,,,1,,,,85,42
97315,note_on,,0,0,6,,,,,,,2,,,,85,42
97315,note_on,,5,0,5,,,,,,,1,,,,79,72
97375,note_off,,60,0,5,,,,,,,1,,,,79,0
97375,note_off,,60,0,6,,,,,,,2,,,,79,0
97385,note_off,,10,0,6,,,,,,,2,,,,91,0
97385,note_off,,10,0,5,,,,,,,1,,,,91,0
97390,note_off,,5,0,6,,,,,,,2,,,,85,0
97390,note_off,,5,0,5,,,,,,,1,,,,85,0
97440,note_on,,0,0,5,,,,,,,1,,,,61,77
97440,note_on,,50,0,5,,,,,,,1,,,,68,79
97440,note_on,,50,0,6,,,,,,,2,,,,68,79
97440,note_on,,0,0,6,,,,,,,2,,,,61,77
97450,note_on,,10,0,6,,,,,,,2,,,,56,80
97450,note_on,,10,0,5,,,,,,,1,,,,56,80
97535,note_off,,85,0,5,,,,,,,1,,,,68,0
97535,note_off,,85,0,6,,,,,,,2,,,,68,0
97540,note_off,,5,0,6,,,,,,,2,,,,61,0
97540,note_off,,5,0,5,,,,,,,1,,,,61,0
97545,note_off,,5,0,5,,,,,,,1,,,,56,0
97545,note_off,,5,0,6,,,,,,,2,,,,56,0
97560,note_on,,15,0,5,,,,,,,1,,,,80,88
97560,note_on,,15,0,6,,,,,,,2,,,,80,88
97565,note_on,,5,0,6,,,,,,,2,,,,92,77
97565,note_on,,5,0,5,,,,,,,1,,,,92,77
97615,note_off,,50,0,5,,,,,,,1,,,,92,0
97615,note_off,,50,0,6,,,,,,,2,,,,92,0
97620,note_off,,5,0,6,,,,,,,2,,,,80,0
97620,note_off,,5,0,5,,,,,,,1,,,,80,0
97675,note_on,,55,0,6,,,,,,,2,,,,53,88
97675,note_on,,55,0,5,,,,,,,1,,,,53,88
97680,note_on,,5,0,5,,,,,,,1,,,,65,78
97680,note_on,,5,0,6,,,,,,,2,,,,65,78
97740,note_off,,60,0,6,,,,,,,2,,,,65,0
97740,note_off,,60,0,5,,,,,,,1,,,,65,0
97745,note_off,,5,0,5,,,,,,,1,,,,53,0
97745,note_off,,5,0,6,,,,,,,2,,,,53,0
97785,note_on,,40,0,5,,,,,,,1,,,,89,88
97785,note_on,,40,0,6,,,,,,,2,,,,89,88
97790,note_on,,5,0,5,,,,,,,1,,,,77,88
97790,note_on,,5,0,6,,,,,,,2,,,,77,88
97845,note_off,,55,0,6,,,,,,,2,,,,89,0
97845,note_off,,55,0,5,,,,,,,1,,,,89,0
97855,note_off,,10,0,6,,,,,,,2,,,,77,0
97855,note_off,,10,0,5,,,,,,,1,,,,77,0
97925,note_on,,0,0,5,,,,,,,1,,,,66,110
97925,note_on,,70,0,5,,,,,,,1,,,,54,110
97925,note_on,,70,0,6,,,,,,,2,,,,54,110
97925,note_on,,0,0,6,,,,,,,2,,,,66,110
98030,note_off,,0,0,6,,,,,,,2,,,,54,0
98030,note_off,,105,0,5,,,,,,,1,,,,66,0
98030,note_off,,105,0,6,,,,,,,2,,,,66,0
98030,note_off,,0,0,5,,,,,,,1,,,,54,0
98035,note_on,,5,0,5,,,,,,,1,,,,90,88
98035,note_on,,5,0,6,,,,,,,2,,,,90,88
98040,note_on,,5,0,5,,,,,,,1,,,,78,88
98040,note_on,,5,0,6,,,,,,,2,,,,78,88
98105,note_off,,65,0,5,,,,,,,1,,,,78,0
98105,note_off,,65,0,6,,,,,,,2,,,,78,0
98110,note_off,,5,0,6,,,,,,,2,,,,90,0
98110,note_off,,5,0,5,,,,,,,1,,,,90,0
98170,note_on,,0,0,6,,,,,,,2,,,,68,90
98170,note_on,,60,0,6,,,,,,,2,,,,56,90
98170,note_on,,0,0,5,,,,,,,1,,,,68,90
98170,note_on,,60,0,5,,,,,,,1,,,,56,90
98250,note_off,,80,0,5,,,,,,,1,,,,56,0
98250,note_off,,80,0,6,,,,,,,2,,,,56,0
98255,note_off,,5,0,5,,,,,,,1,,,,68,0
98255,note_off,,5,0,6,,,,,,,2,,,,68,0
98285,note_on,,30,0,5,,,,,,,1,,,,92,104
98285,note_on,,30,0,6,,,,,,,2,,,,92,104
98290,note_on,,5,0,5,,,,,,,1,,,,80,88
98290,note_on,,5,0,6,,,,,,,2,,,,80,88
98355,note_off,,65,0,5,,,,,,,1,,,,80,0
98355,note_off,,65,0,6,,,,,,,2,,,,80,0
98370,note_off,,15,0,5,,,,,,,1,,,,92,0
98370,note_off,,15,0,6,,,,,,,2,,,,92,0
98415,note_on,,45,0,5,,,,,,,1,,,,70,90
98415,note_on,,0,0,5,,,,,,,1,,,,58,104
98415,note_on,,45,0,6,,,,,,,2,,,,70,90
98415,note_on,,0,0,6,,,,,,,2,,,,58,104
98515,note_off,,100,0,5,,,,,,,1,,,,58,0
98515,note_off,,100,0,6,,,,,,,2,,,,58,0
98520,note_off,,5,0,6,,,,,,,2,,,,70,0
98520,note_off,,5,0,5,,,,,,,1,,,,70,0
98535,note_on,,0,0,5,,,,,,,1,,,,94,91
98535,note_on,,0,0,6,,,,,,,2,,,,94,91
98535,note_on,,15,0,6,,,,,,,2,,,,82,78
98535,note_on,,15,0,5,,,,,,,1,,,,82,78
98605,note_off,,70,0,6,,,,,,,2,,,,82,0
98605,note_off,,70,0,5,,,,,,,1,,,,82,0
98615,note_off,,10,0,5,,,,,,,1,,,,94,0
98615,note_off,,10,0,6,,,,,,,2,,,,94,0
98645,note_on,,0,0,6,,,,,,,2,,,,59,110
98645,note_on,,30,0,5,,,,,,,1,,,,71,88
98645,note_on,,30,0,6,,,,,,,2,,,,71,88
98645,note_on,,0,0,5,,,,,,,1,,,,59,110
98720,note_off,,75,0,6,,,,,,,2,,,,59,0
98720,note_off,,75,0,5,,,,,,,1,,,,59,0
98725,note_off,,5,0,6,,,,,,,2,,,,71,0
98725,note_off,,5,0,5,,,,,,,1,,,,71,0
98755,note_on,,30,0,6,,,,,,,2,,,,95,110
98755,note_on,,30,0,5,,,,,,,1,,,,95,110
98760,note_on,,5,0,5,,,,,,,1,,,,83,78
98760,note_on,,5,0,6,,,,,,,2,,,,83,78
98825,note_off,,65,0,5,,,,,,,1,,,,83,0
98825,note_off,,65,0,6,,,,,,,2,,,,83,0
98830,note_off,,5,0,6,,,,,,,2,,,,95,0
98830,note_off,,5,0,5,,,,,,,1,,,,95,0
98895,note_on,,0,0,5,,,,,,,1,,,,61,125
98895,note_on,,65,0,5,,,,,,,1,,,,73,110
98895,note_on,,0,0,6,,,,,,,2,,,,61,125
98895,note_on,,65,0,6,,,,,,,2,,,,73,110
98980,note_off,,85,0,5,,,,,,,1,,,,73,0
98980,note_off,,85,0,6,,,,,,,2,,,,73,0
98990,note_off,,10,0,6,,,,,,,2,,,,61,0
98990,note_off,,10,0,5,,,,,,,1,,,,61,0
99000,note_on,,0,0,5,,,,,,,1,,,,97,80
99000,note_on,,10,0,5,,,,,,,1,,,,85,58
99000,note_on,,10,0,6,,,,,,,2,,,,85,58
99000,note_on,,0,0,6,,,,,,,2,,,,97,80
99065,note_off,,65,0,5,,,,,,,1,,,,85,0
99065,note_off,,65,0,6,,,,,,,2,,,,85,0
99080,note_off,,15,0,5,,,,,,,1,,,,97,0
99080,note_off,,15,0,6,,,,,,,2,,,,97,0
99105,note_on,,25,0,5,,,,,,,1,,,,60,92
99105,note_on,,25,0,6,,,,,,,2,,,,60,92
99115,note_on,,10,0,6,,,,,,,2,,,,72,71
99115,note_on,,10,0,5,,,,,,,1,,,,72,71
99180,note_off,,0,0,6,,,,,,,2,,,,60,0
99180,note_off,,65,0,6,,,,,,,2,,,,72,0
99180,note_off,,0,0,5,,,,,,,1,,,,60,0
99180,note_off,,65,0,5,,,,,,,1,,,,72,0
99235,note_on,,55,0,6,,,,,,,2,,,,84,90
99235,note_on,,55,0,5,,,,,,,1,,,,84,90
99240,note_on,,5,0,6,,,,,,,2,,,,96,68
99240,note_on,,5,0,5,,,,,,,1,,,,96,68
99295,note_off,,55,0,6,,,,,,,2,,,,96,0
99295,note_off,,55,0,5,,,,,,,1,,,,96,0
99305,note_off,,10,0,5,,,,,,,1,,,,84,0
99305,note_off,,10,0,6,,,,,,,2,,,,84,0
99365,note_on,,60,0,6,,,,,,,2,,,,73,88
99365,note_on,,60,0,5,,,,,,,1,,,,73,88
99370,note_on,,5,0,6,,,,,,,2,,,,61,72
99370,note_on,,0,0,5,,,,,,,1,,,,66,72
99370,note_on,,0,0,6,,,,,,,2,,,,66,72
99370,note_on,,5,0,5,,,,,,,1,,,,61,72
99460,note_off,,90,0,6,,,,,,,2,,,,73,0
99460,note_off,,90,0,5,,,,,,,1,,,,73,0
99475,note_off,,15,0,6,,,,,,,2,,,,66,0
99475,note_off,,15,0,5,,,,,,,1,,,,66,0
99485,note_off,,10,0,5,,,,,,,1,,,,61,0
99485,note_off,,10,0,6,,,,,,,2,,,,61,0
99495,note_on,,10,0,5,,,,,,,1,,,,85,58
99495,note_on,,0,0,5,,,,,,,1,,,,97,80
99495,note_on,,0,0,6,,,,,,,2,,,,97,80
99495,note_on,,10,0,6,,,,,,,2,,,,85,58
99550,note_off,,55,0,6,,,,,,,2,,,,85,0
99550,note_off,,55,0,5,,,,,,,1,,,,85,0
99560,note_off,,10,0,5,,,,,,,1,,,,97,0
99560,note_off,,10,0,6,,,,,,,2,,,,97,0
99610,note_on,,50,0,5,,,,,,,1,,,,70,80
99610,note_on,,50,0,6,,,,,,,2,,,,70,80
99615,note_on,,5,0,6,,,,,,,2,,,,58,110
99615,note_on,,5,0,5,,,,,,,1,,,,58,110
99725,note_off,,110,0,5,,,,,,,1,,,,58,0
99725,note_off,,110,0,6,,,,,,,2,,,,58,0
99730,note_on,,5,0,5,,,,,,,1,,,,94,95
99730,note_on,,5,0,6,,,,,,,2,,,,94,95
99735,note_off,,5,0,5,,,,,,,1,,,,70,0
99735,note_off,,5,0,6,,,,,,,2,,,,70,0
99735,note_on,,0,0,5,,,,,,,1,,,,82,70
99735,note_on,,0,0,6,,,,,,,2,,,,82,70
99795,note_off,,60,0,5,,,,,,,1,,,,82,0
99795,note_off,,60,0,6,,,,,,,2,,,,82,0
99800,note_off,,5,0,6,,,,,,,2,,,,94,0
99800,note_off,,5,0,5,,,,,,,1,,,,94,0
99840,note_on,,40,0,6,,,,,,,2,,,,59,110
99840,note_on,,40,0,5,,,,,,,1,,,,59,110
99845,note_on,,5,0,6,,,,,,,2,,,,71,88
99845,note_on,,5,0,5,,,,,,,1,,,,71,88
99965,note_on,,120,0,6,,,,,,,2,,,,83,88
99965,note_on,,0,0,5,,,,,,,1,,,,95,110
99965,note_on,,120,0,5,,,,,,,1,,,,83,88
99965,note_on,,0,0,6,,,,,,,2,,,,95,110
99980,note_off,,15,0,6,,,,,,,2,,,,59,0
99980,note_off,,15,0,5,,,,,,,1,,,,59,0
99990,note_off,,10,0,5,,,,,,,1,,,,71,0
99990,note_off,,10,0,6,,,,,,,2,,,,71,0
100050,note_off,,60,0,6,,,,,,,2,,,,83,0
100050,note_off,,60,0,5,,,,,,,1,,,,83,0
100075,note_off,,25,0,6,,,,,,,2,,,,95,0
100075,note_off,,25,0,5,,,,,,,1,,,,95,0
100105,note_on,,0,0,6,,,,,,,2,,,,75,104
100105,note_on,,30,0,5,,,,,,,1,,,,63,90
100105,note_on,,0,0,5,,,,,,,1,,,,75,104
100105,note_on,,30,0,6,,,,,,,2,,,,63,90
100160,note_off,,55,0,6,,,,,,,2,,,,75,0
100160,note_off,,55,0,5,,,,,,,1,,,,75,0
100180,note_off,,20,0,6,,,,,,,2,,,,63,0
100180,note_off,,20,0,5,,,,,,,1,,,,63,0
100225,note_on,,45,0,6,,,,,,,2,,,,99,88
100225,note_on,,45,0,5,,,,,,,1,,,,99,88
100225,note_on,,0,0,6,,,,,,,2,,,,87,110
100225,note_on,,0,0,5,,,,,,,1,,,,87,110
100280,note_off,,55,0,5,,,,,,,1,,,,87,0
100280,note_off,,0,0,5,,,,,,,1,,,,99,0
100280,note_off,,0,0,6,,,,,,,2,,,,99,0
100280,note_off,,55,0,6,,,,,,,2,,,,87,0
100335,note_on,,55,0,5,,,,,,,1,,,,56,110
100335,note_on,,55,0,6,,,,,,,2,,,,56,110
100340,note_on,,5,0,6,,,,,,,2,,,,68,88
100340,note_on,,5,0,5,,,,,,,1,,,,68,88
100450,note_on,,110,0,6,,,,,,,2,,,,92,90
100450,note_on,,110,0,5,,,,,,,1,,,,92,90
100455,note_off,,5,0,5,,,,,,,1,,,,68,0
100455,note_off,,5,0,6,,,,,,,2,,,,68,0
100455,note_on,,0,0,5,,,,,,,1,,,,80,88
100455,note_on,,0,0,6,,,,,,,2,,,,80,88
100460,note_off,,5,0,5,,,,,,,1,,,,56,0
100460,note_off,,5,0,6,,,,,,,2,,,,56,0
100515,note_off,,55,0,5,,,,,,,1,,,,80,0
100515,note_off,,55,0,6,,,,,,,2,,,,80,0
100525,note_off,,10,0,5,,,,,,,1,,,,92,0
100525,note_off,,10,0,6,,,,,,,2,,,,92,0
100585,note_on,,60,0,6,,,,,,,2,,,,71,80
100585,note_on,,60,0,5,,,,,,,1,,,,71,80
100590,note_on,,5,0,6,,,,,,,2,,,,59,88
100590,note_on,,5,0,5,,,,,,,1,,,,59,88
100655,note_off,,65,0,5,,,,,,,1,,,,71,0
100655,note_off,,65,0,6,,,,,,,2,,,,71,0
100670,note_off,,15,0,6,,,,,,,2,,,,59,0
100670,note_off,,15,0,5,,,,,,,1,,,,59,0
100695,note_on,,25,0,6,,,,,,,2,,,,95,90
100695,note_on,,25,0,5,,,,,,,1,,,,95,90
100705,note_on,,10,0,6,,,,,,,2,,,,83,68
100705,note_on,,10,0,5,,,,,,,1,,,,83,68
100770,note_off,,65,0,5,,,,,,,1,,,,83,0
100770,note_off,,65,0,6,,,,,,,2,,,,83,0
100780,note_off,,10,0,5,,,,,,,1,,,,95,0
100780,note_off,,10,0,6,,,,,,,2,,,,95,0
100820,note_on,,0,0,6,,,,,,,2,,,,65,88
100820,note_on,,40,0,6,,,,,,,2,,,,53,110
100820,note_on,,0,0,5,,,,,,,1,,,,65,88
100820,note_on,,40,0,5,,,,,,,1,,,,53,110
100885,note_off,,65,0,5,,,,,,,1,,,,65,0
100885,note_off,,65,0,6,,,,,,,2,,,,65,0
100890,note_off,,5,0,5,,,,,,,1,,,,53,0
100890,note_off,,5,0,6,,,,,,,2,,,,53,0
100920,note_on,,30,0,6,,,,,,,2,,,,89,88
100920,note_on,,30,0,5,,,,,,,1,,,,89,88
100925,note_on,,5,0,5,,,,,,,1,,,,77,76
100925,note_on,,5,0,6,,,,,,,2,,,,77,76
100985,note_off,,60,0,5,,,,,,,1,,,,77,0
100985,note_off,,0,0,5,,,,,,,1,,,,89,0
100985,note_off,,60,0,6,,,,,,,2,,,,77,0
100985,note_off,,0,0,6,,,,,,,2,,,,89,0
101055,note_on,,70,0,6,,,,,,,2,,,,56,88
101055,note_on,,0,0,5,,,,,,,1,,,,68,88
101055,note_on,,0,0,6,,,,,,,2,,,,68,88
101055,note_on,,70,0,5,,,,,,,1,,,,56,88
101115,note_off,,60,0,5,,,,,,,1,,,,68,0
101115,note_off,,60,0,6,,,,,,,2,,,,68,0
101130,note_off,,15,0,6,,,,,,,2,,,,56,0
101130,note_off,,15,0,5,,,,,,,1,,,,56,0
101175,note_on,,45,0,6,,,,,,,2,,,,92,78
101175,note_on,,0,0,5,,,,,,,1,,,,80,88
101175,note_on,,45,0,5,,,,,,,1,,,,92,78
101175,note_on,,0,0,6,,,,,,,2,,,,80,88
101225,note_off,,0,0,5,,,,,,,1,,,,92,0
101225,note_off,,0,0,6,,,,,,,2,,,,92,0
101225,note_off,,50,0,5,,,,,,,1,,,,80,0
101225,note_off,,50,0,6,,,,,,,2,,,,80,0
101300,note_on,,0,0,5,,,,,,,1,,,,61,88
101300,note_on,,75,0,5,,,,,,,1,,,,49,90
101300,note_on,,0,0,6,,,,,,,2,,,,61,88
101300,note_on,,75,0,6,,,,,,,2,,,,49,90
101370,note_off,,70,0,5,,,,,,,1,,,,61,0
101370,note_off,,70,0,6,,,,,,,2,,,,61,0
101390,note_off,,20,0,5,,,,,,,1,,,,49,0
101390,note_off,,20,0,6,,,,,,,2,,,,49,0
101400,note_on,,0,0,6,,,,,,,2,,,,85,60
101400,note_on,,0,0,5,,,,,,,1,,,,85,60
101400,note_on,,10,0,6,,,,,,,2,,,,73,78
101400,note_on,,10,0,5,,,,,,,1,,,,73,78
101440,note_off,,40,0,5,,,,,,,1,,,,73,0
101440,note_off,,40,0,6,,,,,,,2,,,,73,0
101455,note_off,,15,0,6,,,,,,,2,,,,85,0
101455,note_off,,15,0,5,,,,,,,1,,,,85,0
101525,note_on,,0,0,5,,,,,,,1,,,,65,64
101525,note_on,,0,0,6,,,,,,,2,,,,65,64
101525,note_on,,70,0,5,,,,,,,1,,,,53,90
101525,note_on,,70,0,6,,,,,,,2,,,,53,90
101580,note_off,,55,0,5,,,,,,,1,,,,65,0
101580,note_off,,55,0,6,,,,,,,2,,,,65,0
101590,note_off,,10,0,5,,,,,,,1,,,,53,0
101590,note_off,,10,0,6,,,,,,,2,,,,53,0
101640,note_on,,50,0,5,,,,,,,1,,,,89,64
101640,note_on,,50,0,6,,,,,,,2,,,,89,64
101645,note_on,,5,0,6,,,,,,,2,,,,77,47
101645,note_on,,5,0,5,,,,,,,1,,,,77,47
101685,note_off,,40,0,5,,,,,,,1,,,,77,0
101685,note_off,,40,0,6,,,,,,,2,,,,77,0
101685,note_off,,0,0,6,,,,,,,2,,,,89,0
101685,note_off,,0,0,5,,,,,,,1,,,,89,0
101770,note_on,,85,0,5,,,,,,,1,,,,58,90
101770,note_on,,0,0,6,,,,,,,2,,,,46,110
101770,note_on,,0,0,5,,,,,,,1,,,,46,110
101770,note_on,,85,0,6,,,,,,,2,,,,58,90
101830,note_off,,60,0,5,,,,,,,1,,,,58,0
101830,note_off,,60,0,6,,,,,,,2,,,,58,0
101850,note_off,,20,0,5,,,,,,,1,,,,46,0
101850,note_off,,20,0,6,,,,,,,2,,,,46,0
101875,note_on,,25,0,5,,,,,,,1,,,,82,88
101875,note_on,,25,0,6,,,,,,,2,,,,82,88
101880,note_on,,5,0,6,,,,,,,2,,,,70,68
101880,note_on,,5,0,5,,,,,,,1,,,,70,68
101935,note_off,,55,0,5,,,,,,,1,,,,70,0
101935,note_off,,55,0,6,,,,,,,2,,,,70,0
101945,note_off,,10,0,6,,,,,,,2,,,,82,0
101945,note_off,,10,0,5,,,,,,,1,,,,82,0
102005,note_on,,60,0,6,,,,,,,2,,,,49,110
102005,note_on,,60,0,5,,,,,,,1,,,,49,110
102010,note_on,,5,0,5,,,,,,,1,,,,61,88
102010,note_on,,5,0,6,,,,,,,2,,,,61,88
102050,note_off,,40,0,6,,,,,,,2,,,,61,0
102050,note_off,,40,0,5,,,,,,,1,,,,61,0
102075,note_off,,25,0,5,,,,,,,1,,,,49,0
102075,note_off,,25,0,6,,,,,,,2,,,,49,0
102120,note_on,,0,0,6,,,,,,,2,,,,85,58
102120,note_on,,45,0,5,,,,,,,1,,,,73,88
102120,note_on,,45,0,6,,,,,,,2,,,,73,88
102120,note_on,,0,0,5,,,,,,,1,,,,85,58
102170,note_off,,50,0,6,,,,,,,2,,,,85,0
102170,note_off,,50,0,5,,,,,,,1,,,,85,0
102175,note_off,,5,0,6,,,,,,,2,,,,73,0
102175,note_off,,5,0,5,,,,,,,1,,,,73,0
102245,note_on,,70,0,5,,,,,,,1,,,,42,110
102245,note_on,,70,0,6,,,,,,,2,,,,42,110
102250,note_on,,5,0,6,,,,,,,2,,,,54,104
102250,note_on,,5,0,5,,,,,,,1,,,,54,104
102300,note_off,,50,0,6,,,,,,,2,,,,54,0
102300,note_off,,50,0,5,,,,,,,1,,,,54,0
102315,note_off,,15,0,5,,,,,,,1,,,,42,0
102315,note_off,,15,0,6,,,,,,,2,,,,42,0
102360,note_on,,0,0,6,,,,,,,2,,,,66,88
102360,note_on,,45,0,6,,,,,,,2,,,,78,90
102360,note_on,,45,0,5,,,,,,,1,,,,78,90
102360,note_on,,0,0,5,,,,,,,1,,,,66,88
102415,note_off,,55,0,6,,,,,,,2,,,,78,0
102415,note_off,,55,0,5,,,,,,,1,,,,78,0
102420,note_off,,5,0,5,,,,,,,1,,,,66,0
102420,note_off,,5,0,6,,,,,,,2,,,,66,0
102465,note_on,,45,0,5,,,,,,,1,,,,58,90
102465,note_on,,45,0,6,,,,,,,2,,,,58,90
102470,note_on,,5,0,5,,,,,,,1,,,,46,104
102470,note_on,,5,0,6,,,,,,,2,,,,46,104
102520,note_off,,50,0,6,,,,,,,2,,,,58,0
102520,note_off,,50,0,5,,,,,,,1,,,,58,0
102535,note_off,,15,0,5,,,,,,,1,,,,46,0
102535,note_off,,15,0,6,,,,,,,2,,,,46,0
102585,note_on,,50,0,5,,,,,,,1,,,,82,90
102585,note_on,,50,0,6,,,,,,,2,,,,82,90
102590,note_on,,5,0,6,,,,,,,2,,,,70,88
102590,note_on,,5,0,5,,,,,,,1,,,,70,88
102640,note_off,,50,0,6,,,,,,,2,,,,82,0
102640,note_off,,50,0,5,,,,,,,1,,,,82,0
102645,note_off,,5,0,5,,,,,,,1,,,,70,0
102645,note_off,,5,0,6,,,,,,,2,,,,70,0
102715,note_on,,0,0,6,,,,,,,2,,,,51,90
102715,note_on,,0,0,5,,,,,,,1,,,,51,90
102715,note_on,,70,0,5,,,,,,,1,,,,39,90
102715,note_on,,70,0,6,,,,,,,2,,,,39,90
102775,note_off,,60,0,6,,,,,,,2,,,,51,0
102775,note_off,,60,0,5,,,,,,,1,,,,51,0
102780,note_off,,5,0,5,,,,,,,1,,,,39,0
102780,note_off,,5,0,6,,,,,,,2,,,,39,0
102815,note_on,,0,0,5,,,,,,,1,,,,75,110
102815,note_on,,35,0,5,,,,,,,1,,,,63,78
102815,note_on,,0,0,6,,,,,,,2,,,,75,110
102815,note_on,,35,0,6,,,,,,,2,,,,63,78
102875,note_off,,60,0,5,,,,,,,1,,,,75,0
102875,note_off,,60,0,6,,,,,,,2,,,,75,0
102880,note_off,,5,0,6,,,,,,,2,,,,63,0
102880,note_off,,5,0,5,,,,,,,1,,,,63,0
102945,note_on,,65,0,6,,,,,,,2,,,,54,91
102945,note_on,,65,0,5,,,,,,,1,,,,54,91
102955,note_on,,10,0,5,,,,,,,1,,,,42,92
102955,note_on,,10,0,6,,,,,,,2,,,,42,92
103005,note_off,,50,0,6,,,,,,,2,,,,54,0
103005,note_off,,50,0,5,,,,,,,1,,,,54,0
103015,note_off,,10,0,5,,,,,,,1,,,,42,0
103015,note_off,,10,0,6,,,,,,,2,,,,42,0
103060,note_on,,0,0,6,,,,,,,2,,,,78,90
103060,note_on,,45,0,5,,,,,,,1,,,,66,78
103060,note_on,,45,0,6,,,,,,,2,,,,66,78
103060,note_on,,0,0,5,,,,,,,1,,,,78,90
103120,note_off,,60,0,6,,,,,,,2,,,,78,0
103120,note_off,,60,0,5,,,,,,,1,,,,78,0
103120,note_off,,0,0,5,,,,,,,1,,,,66,0
103120,note_off,,0,0,6,,,,,,,2,,,,66,0
103190,note_on,,70,0,5,,,,,,,1,,,,35,110
103190,note_on,,70,0,6,,,,,,,2,,,,35,110
103195,note_on,,5,0,6,,,,,,,2,,,,47,78
103195,note_on,,5,0,5,,,,,,,1,,,,47,78
103250,note_off,,55,0,5,,,,,,,1,,,,47,0
103250,note_off,,55,0,6,,,,,,,2,,,,47,0
103260,note_off,,10,0,5,,,,,,,1,,,,35,0
103260,note_off,,10,0,6,,,,,,,2,,,,35,0
103295,note_on,,35,0,5,,,,,,,1,,,,71,88
103295,note_on,,35,0,6,,,,,,,2,,,,71,88
103300,note_on,,5,0,6,,,,,,,2,,,,59,78
103300,note_on,,5,0,5,,,,,,,1,,,,59,78
103360,note_off,,60,0,5,,,,,,,1,,,,59,0
103360,note_off,,60,0,6,,,,,,,2,,,,59,0
103370,note_off,,10,0,6,,,,,,,2,,,,71,0
103370,note_off,,10,0,5,,,,,,,1,,,,71,0
103420,note_on,,50,0,5,,,,,,,1,,,,39,90
103420,note_on,,0,0,5,,,,,,,1,,,,51,110
103420,note_on,,50,0,6,,,,,,,2,,,,39,90
103420,note_on,,0,0,6,,,,,,,2,,,,51,110
103470,note_off,,50,0,6,,,,,,,2,,,,51,0
103470,note_off,,50,0,5,,,,,,,1,,,,51,0
103475,note_off,,5,0,5,,,,,,,1,,,,39,0
103475,note_off,,5,0,6,,,,,,,2,,,,39,0
103545,note_on,,70,0,5,,,,,,,1,,,,63,90
103545,note_on,,70,0,6,,,,,,,2,,,,63,90
103550,note_on,,5,0,6,,,,,,,2,,,,75,64
103550,note_on,,5,0,5,,,,,,,1,,,,75,64
103580,note_off,,30,0,5,,,,,,,1,,,,75,0
103580,note_off,,30,0,6,,,,,,,2,,,,75,0
103585,note_off,,5,0,5,,,,,,,1,,,,63,0
103585,note_off,,5,0,6,,,,,,,2,,,,63,0
103665,note_on,,80,0,6,,,,,,,2,,,,32,110
103665,note_on,,80,0,5,,,,,,,1,,,,32,110
103665,note_on,,0,0,5,,,,,,,1,,,,44,88
103665,note_on,,0,0,6,,,,,,,2,,,,44,88
103725,note_off,,60,0,5,,,,,,,1,,,,44,0
103725,note_off,,60,0,6,,,,,,,2,,,,44,0
103730,note_off,,5,0,5,,,,,,,1,,,,32,0
103730,note_off,,5,0,6,,,,,,,2,,,,32,0
103770,note_on,,40,0,6,,,,,,,2,,,,56,80
103770,note_on,,40,0,5,,,,,,,1,,,,56,80
103775,note_on,,5,0,5,,,,,,,1,,,,68,88
103775,note_on,,5,0,6,,,,,,,2,,,,68,88
103825,note_off,,50,0,6,,,,,,,2,,,,56,0
103825,note_off,,50,0,5,,,,,,,1,,,,56,0
103840,note_off,,15,0,5,,,,,,,1,,,,68,0
103840,note_off,,15,0,6,,,,,,,2,,,,68,0
103880,note_on,,40,0,5,,,,,,,1,,,,47,79
103880,note_on,,0,0,5,,,,,,,1,,,,35,78
103880,note_on,,0,0,6,,,,,,,2,,,,35,78
103880,note_on,,40,0,6,,,,,,,2,,,,47,79
103940,note_off,,60,0,5,,,,,,,1,,,,47,0
103940,note_off,,60,0,6,,,,,,,2,,,,47,0
103945,note_off,,5,0,6,,,,,,,2,,,,35,0
103945,note_off,,5,0,5,,,,,,,1,,,,35,0
104005,note_on,,60,0,5,,,,,,,1,,,,71,80
104005,note_on,,60,0,6,,,,,,,2,,,,71,80
104015,note_on,,10,0,6,,,,,,,2,,,,59,72
104015,note_on,,10,0,5,,,,,,,1,,,,59,72
104070,note_off,,55,0,6,,,,,,,2,,,,71,0
104070,note_off,,55,0,5,,,,,,,1,,,,71,0
104080,note_off,,10,0,6,,,,,,,2,,,,59,0
104080,note_off,,10,0,5,,,,,,,1,,,,59,0
104130,note_on,,50,0,6,,,,,,,2,,,,29,91
104130,note_on,,50,0,5,,,,,,,1,,,,29,91
104140,note_on,,10,0,5,,,,,,,1,,,,41,69
104140,note_on,,10,0,6,,,,,,,2,,,,41,69
104185,note_off,,45,0,6,,,,,,,2,,,,41,0
104185,note_off,,45,0,5,,,,,,,1,,,,41,0
104190,note_off,,5,0,5,,,,,,,1,,,,29,0
104190,note_off,,5,0,6,,,,,,,2,,,,29,0
104235,note_on,,45,0,6,,,,,,,2,,,,65,80
104235,note_on,,45,0,5,,,,,,,1,,,,65,80
104240,note_on,,5,0,6,,,,,,,2,,,,53,88
104240,note_on,,5,0,5,,,,,,,1,,,,53,88
104310,note_off,,70,0,6,,,,,,,2,,,,53,0
104310,note_off,,0,0,5,,,,,,,1,,,,65,0
104310,note_off,,70,0,5,,,,,,,1,,,,53,0
104310,note_off,,0,0,6,,,,,,,2,,,,65,0
104370,note_on,,60,0,6,,,,,,,2,,,,34,80
104370,note_on,,60,0,5,,,,,,,1,,,,34,80
104380,note_on,,10,0,5,,,,,,,1,,,,44,64
104380,note_on,,10,0,6,,,,,,,2,,,,44,64
104440,note_off,,60,0,5,,,,,,,1,,,,34,0
104440,note_off,,60,0,6,,,,,,,2,,,,34,0
104460,note_off,,20,0,5,,,,,,,1,,,,44,0
104460,note_off,,20,0,6,,,,,,,2,,,,44,0
104490,note_on,,0,0,5,,,,,,,1,,,,68,90
104490,note_on,,30,0,5,,,,,,,1,,,,56,90
104490,note_on,,0,0,6,,,,,,,2,,,,68,90
104490,note_on,,30,0,6,,,,,,,2,,,,56,90
104535,note_off,,45,0,6,,,,,,,2,,,,68,0
104535,note_off,,45,0,5,,,,,,,1,,,,68,0
104540,note_off,,5,0,6,,,,,,,2,,,,56,0
104540,note_off,,5,0,5,,,,,,,1,,,,56,0
104615,note_on,,75,0,6,,,,,,,2,,,,37,92
104615,note_on,,75,0,5,,,,,,,1,,,,37,92
104700,note_on,,85,0,6,,,,,,,2,,,,49,70
104700,note_on,,85,0,5,,,,,,,1,,,,49,70
104705,note_on,,5,0,5,,,,,,,1,,,,61,88
104705,note_on,,5,0,6,,,,,,,2,,,,61,88
104710,note_off,,5,0,5,,,,,,,1,,,,37,0
104710,note_off,,5,0,6,,,,,,,2,,,,37,0
104765,note_off,,55,0,5,,,,,,,1,,,,49,0
104765,note_off,,55,0,6,,,,,,,2,,,,49,0
104770,note_off,,5,0,6,,,,,,,2,,,,61,0
104770,note_off,,5,0,5,,,,,,,1,,,,61,0
104850,note_on,,80,0,6,,,,,,,2,,,,41,71
104850,note_on,,80,0,5,,,,,,,1,,,,41,71
104925,note_off,,75,0,6,,,,,,,2,,,,41,0
104925,note_off,,75,0,5,,,,,,,1,,,,41,0
104955,note_on,,30,0,5,,,,,,,1,,,,65,80
104955,note_on,,30,0,6,,,,,,,2,,,,65,80
104965,note_on,,10,0,6,,,,,,,2,,,,53,80
104965,note_on,,10,0,5,,,,,,,1,,,,53,80
105020,note_off,,55,0,6,,,,,,,2,,,,65,0
105020,note_off,,55,0,5,,,,,,,1,,,,65,0
105030,note_off,,10,0,5,,,,,,,1,,,,53,0
105030,note_off,,10,0,6,,,,,,,2,,,,53,0
105095,note_on,,65,0,6,,,,,,,2,,,,34,110
105095,note_on,,65,0,5,,,,,,,1,,,,34,110
105195,note_on,,100,0,6,,,,,,,2,,,,58,104
105195,note_on,,100,0,5,,,,,,,1,,,,58,104
105200,note_on,,0,0,5,,,,,,,1,,,,46,88
105200,note_on,,0,0,6,,,,,,,2,,,,46,88
105200,note_off,,5,0,6,,,,,,,2,,,,34,0
105200,note_off,,5,0,5,,,,,,,1,,,,34,0
105255,note_off,,55,0,5,,,,,,,1,,,,46,0
105255,note_off,,55,0,6,,,,,,,2,,,,46,0
105260,note_off,,5,0,5,,,,,,,1,,,,58,0
105260,note_off,,5,0,6,,,,,,,2,,,,58,0
105330,note_on,,70,0,5,,,,,,,1,,,,37,110
105330,note_on,,70,0,6,,,,,,,2,,,,37,110
105425,note_off,,95,0,5,,,,,,,1,,,,37,0
105425,note_off,,95,0,6,,,,,,,2,,,,37,0
105435,note_on,,10,0,6,,,,,,,2,,,,61,69
105435,note_on,,10,0,5,,,,,,,1,,,,61,69
105440,note_on,,5,0,5,,,,,,,1,,,,49,77
105440,note_on,,5,0,6,,,,,,,2,,,,49,77
105495,note_off,,55,0,5,,,,,,,1,,,,49,0
105495,note_off,,55,0,6,,,,,,,2,,,,49,0
105515,note_off,,20,0,5,,,,,,,1,,,,61,0
105515,note_off,,20,0,6,,,,,,,2,,,,61,0
105560,note_on,,45,0,5,,,,,,,1,,,,30,110
105560,note_on,,45,0,6,,,,,,,2,,,,30,110
105565,note_on,,5,0,5,,,,,,,1,,,,42,110
105565,note_on,,5,0,6,,,,,,,2,,,,42,110
105650,note_off,,85,0,6,,,,,,,2,,,,42,0
105650,note_off,,85,0,5,,,,,,,1,,,,42,0
105660,note_off,,10,0,5,,,,,,,1,,,,30,0
105660,note_off,,10,0,6,,,,,,,2,,,,30,0
105690,note_on,,30,0,5,,,,,,,1,,,,54,92
105690,note_on,,30,0,6,,,,,,,2,,,,54,92
105750,note_off,,60,0,5,,,,,,,1,,,,54,0
105750,note_off,,60,0,6,,,,,,,2,,,,54,0
105810,note_on,,0,0,6,,,,,,,2,,,,34,91
105810,note_on,,60,0,5,,,,,,,1,,,,46,79
105810,note_on,,60,0,6,,,,,,,2,,,,46,79
105810,note_on,,0,0,5,,,,,,,1,,,,34,91
105860,note_off,,50,0,6,,,,,,,2,,,,46,0
105860,note_off,,50,0,5,,,,,,,1,,,,46,0
105870,note_off,,10,0,6,,,,,,,2,,,,34,0
105870,note_off,,10,0,5,,,,,,,1,,,,34,0
105925,note_on,,55,0,6,,,,,,,2,,,,58,80
105925,note_on,,55,0,5,,,,,,,1,,,,58,80
106015,note_off,,90,0,6,,,,,,,2,,,,58,0
106015,note_off,,90,0,5,,,,,,,1,,,,58,0
106045,note_on,,0,0,5,,,,,,,1,,,,39,110
106045,note_on,,30,0,6,,,,,,,2,,,,27,110
106045,note_on,,0,0,6,,,,,,,2,,,,39,110
106045,note_on,,30,0,5,,,,,,,1,,,,27,110
106095,note_off,,50,0,5,,,,,,,1,,,,39,0
106095,note_off,,50,0,6,,,,,,,2,,,,39,0
106100,note_off,,5,0,6,,,,,,,2,,,,27,0
106100,note_off,,5,0,5,,,,,,,1,,,,27,0
106150,note_on,,50,0,6,,,,,,,2,,,,51,92
106150,note_on,,50,0,5,,,,,,,1,,,,51,92
106220,note_off,,70,0,6,,,,,,,2,,,,51,0
106220,note_off,,70,0,5,,,,,,,1,,,,51,0
106275,note_on,,55,0,5,,,,,,,1,,,,42,80
106275,note_on,,55,0,6,,,,,,,2,,,,42,80
106280,note_on,,5,0,5,,,,,,,1,,,,30,88
106280,note_on,,5,0,6,,,,,,,2,,,,30,88
106330,note_off,,0,0,5,,,,,,,1,,,,42,0
106330,note_off,,0,0,6,,,,,,,2,,,,42,0
106330,note_off,,50,0,6,,,,,,,2,,,,30,0
106330,note_off,,50,0,5,,,,,,,1,,,,30,0
106405,note_on,,75,0,6,,,,,,,2,,,,54,80
106405,note_on,,75,0,5,,,,,,,1,,,,54,80
106470,note_off,,65,0,5,,,,,,,1,,,,54,0
106470,note_off,,65,0,6,,,,,,,2,,,,54,0
106550,note_on,,80,0,5,,,,,,,1,,,,35,90
106550,note_on,,80,0,6,,,,,,,2,,,,35,90
106555,note_on,,5,0,6,,,,,,,2,,,,23,110
106555,note_on,,5,0,5,,,,,,,1,,,,23,110
106560,note_on,,5,0,5,,,,,,,1,,,,47,92
106560,note_on,,5,0,6,,,,,,,2,,,,47,92
107120,note_off,,560,0,5,,,,,,,1,,,,47,0
107120,note_off,,560,0,6,,,,,,,2,,,,47,0
107135,note_off,,15,0,5,,,,,,,1,,,,23,0
107135,note_off,,15,0,6,,,,,,,2,,,,23,0
107155,note_off,,20,0,6,,,,,,,2,,,,35,0
107155,note_off,,20,0,5,,,,,,,1,,,,35,0
107485,note_on,,330,0,6,,,,,,,2,,,,47,80
107485,note_on,,330,0,5,,,,,,,1,,,,47,80
107490,note_on,,0,0,5,,,,,,,1,,,,35,77
107490,note_on,,0,0,5,,,,,,,1,,,,71,80
107490,note_on,,5,0,6,,,,,,,2,,,,63,68
107490,note_on,,5,0,5,,,,,,,1,,,,63,68
107490,note_on,,0,0,5,,,,,,,1,,,,75,80
107490,note_on,,0,0,6,,,,,,,2,,,,71,80
107490,note_on,,0,0,6,,,,,,,2,,,,35,77
107490,note_on,,0,0,6,,,,,,,2,,,,75,80
107525,note_off,,35,0,5,,,,,,,1,,,,35,0
107525,note_off,,35,0,6,,,,,,,2,,,,35,0
107535,note_off,,10,0,6,,,,,,,2,,,,47,0
107535,note_off,,10,0,5,,,,,,,1,,,,47,0
107550,note_off,,15,0,6,,,,,,,2,,,,63,0
107550,note_off,,0,0,5,,,,,,,1,,,,75,0
107550,note_off,,0,0,6,,,,,,,2,,,,75,0
107550,note_off,,15,0,5,,,,,,,1,,,,63,0
107575,note_off,,25,0,5,,,,,,,1,,,,71,0
107575,note_off,,25,0,6,,,,,,,2,,,,71,0
107600,note_on,,0,0,6,,,,,,,2,,,,63,125
107600,note_on,,0,0,5,,,,,,,1,,,,63,125
107600,note_on,,25,0,6,,,,,,,2,,,,71,79
107600,note_on,,25,0,5,,,,,,,1,,,,71,79
107605,note_on,,5,0,5,,,,,,,1,,,,75,95
107605,note_on,,5,0,6,,,,,,,2,,,,75,95
107615,note_on,,0,0,6,,,,,,,2,,,,59,80
107615,note_on,,10,0,5,,,,,,,1,,,,51,125
107615,note_on,,0,0,6,,,,,,,2,,,,54,80
107615,note_on,,10,0,6,,,,,,,2,,,,51,125
107615,note_on,,0,0,5,,,,,,,1,,,,54,80
107615,note_on,,0,0,5,,,,,,,1,,,,59,80
107665,note_off,,50,0,6,,,,,,,2,,,,59,0
107665,note_off,,50,0,5,,,,,,,1,,,,59,0
107755,note_on,,90,0,5,,,,,,,1,,,,59,15
107755,note_on,,90,0,6,,,,,,,2,,,,59,15
108085,note_off,,330,0,5,,,,,,,1,,,,75,0
108085,note_off,,330,0,6,,,,,,,2,,,,75,0
108085,note_off,,0,0,5,,,,,,,1,,,,63,0
108085,note_off,,0,0,6,,,,,,,2,,,,63,0
108095,note_off,,10,0,6,,,,,,,2,,,,59,0
108095,note_off,,10,0,5,,,,,,,1,,,,59,0
108105,note_off,,10,0,5,,,,,,,1,,,,51,0
108105,note_off,,10,0,6,,,,,,,2,,,,51,0
108105,note_off,,0,0,5,,,,,,,1,,,,54,0
108105,note_off,,0,0,6,,,,,,,2,,,,54,0
108110,note_off,,5,0,6,,,,,,,2,,,,71,0
108110,note_off,,5,0,5,,,,,,,1,,,,71,0
108355,note_on,,245,0,5,,,,,,,1,,,,37,80
108355,note_on,,245,0,6,,,,,,,2,,,,37,80
108360,note_on,,5,0,6,,,,,,,2,,,,49,88
108360,note_on,,5,0,5,,,,,,,1,,,,49,88
108370,note_on,,10,0,6,,,,,,,2,,,,71,80
108370,note_on,,10,0,5,,,,,,,1,,,,71,80
108375,note_on,,0,0,6,,,,,,,2,,,,65,72
108375,note_on,,5,0,5,,,,,,,1,,,,77,72
108375,note_on,,0,0,6,,,,,,,2,,,,68,72
108375,note_on,,5,0,6,,,,,,,2,,,,77,72
108375,note_on,,0,0,5,,,,,,,1,,,,65,72
108375,note_on,,0,0,5,,,,,,,1,,,,68,72
108400,note_off,,25,0,5,,,,,,,1,,,,37,0
108400,note_off,,25,0,6,,,,,,,2,,,,37,0
108410,note_off,,10,0,5,,,,,,,1,,,,49,0
108410,note_off,,10,0,6,,,,,,,2,,,,49,0
108435,note_off,,0,0,6,,,,,,,2,,,,65,0
108435,note_off,,25,0,5,,,,,,,1,,,,68,0
108435,note_off,,25,0,6,,,,,,,2,,,,68,0
108435,note_off,,0,0,5,,,,,,,1,,,,65,0
108450,note_off,,15,0,6,,,,,,,2,,,,77,0
108450,note_off,,15,0,5,,,,,,,1,,,,77,0
108460,note_off,,10,0,6,,,,,,,2,,,,71,0
108460,note_off,,10,0,5,,,,,,,1,,,,71,0
108470,note_on,,10,0,6,,,,,,,2,,,,71,80
108470,note_on,,10,0,5,,,,,,,1,,,,71,80
108475,note_on,,5,0,5,,,,,,,1,,,,77,125
108475,note_on,,5,0,6,,,,,,,2,,,,77,125
108480,note_on,,0,0,6,,,,,,,2,,,,65,104
108480,note_on,,0,0,5,,,,,,,1,,,,65,104
108480,note_on,,5,0,5,,,,,,,1,,,,68,80
108480,note_on,,5,0,6,,,,,,,2,,,,68,80
108490,note_on,,10,0,5,,,,,,,1,,,,49,110
108490,note_on,,10,0,6,,,,,,,2,,,,49,110
108495,note_on,,5,0,6,,,,,,,2,,,,61,104
108495,note_on,,5,0,5,,,,,,,1,,,,61,104
108985,note_off,,490,0,5,,,,,,,1,,,,61,0
108985,note_off,,490,0,6,,,,,,,2,,,,61,0
109000,note_off,,15,0,6,,,,,,,2,,,,65,0
109000,note_off,,15,0,5,,,,,,,1,,,,65,0
109015,note_off,,15,0,6,,,,,,,2,,,,77,0
109015,note_off,,15,0,5,,,,,,,1,,,,77,0
109020,note_off,,5,0,6,,,,,,,2,,,,49,0
109020,note_off,,5,0,5,,,,,,,1,,,,49,0
109025,note_off,,5,0,6,,,,,,,2,,,,68,0
109025,note_off,,5,0,5,,,,,,,1,,,,68,0
109030,note_off,,5,0,6,,,,,,,2,,,,71,0
109030,note_off,,5,0,5,,,,,,,1,,,,71,0
109290,note_on,,0,0,5,,,,,,,1,,,,66,104
109290,note_on,,260,0,5,,,,,,,1,,,,30,76
109290,note_on,,260,0,6,,,,,,,2,,,,30,76
109290,note_on,,0,0,6,,,,,,,2,,,,66,104
109295,note_on,,5,0,6,,,,,,,2,,,,42,76
109295,note_on,,0,0,6,,,,,,,2,,,,78,120
109295,note_on,,0,0,6,,,,,,,2,,,,70,84
109295,note_on,,5,0,5,,,,,,,1,,,,42,76
109295,note_on,,0,0,5,,,,,,,1,,,,78,120
109295,note_on,,0,0,5,,,,,,,1,,,,70,84
109300,note_on,,5,0,6,,,,,,,2,,,,73,88
109300,note_on,,5,0,5,,,,,,,1,,,,73,88
109335,note_off,,35,0,5,,,,,,,1,,,,30,0
109335,note_off,,35,0,6,,,,,,,2,,,,30,0
109340,note_off,,5,0,5,,,,,,,1,,,,42,0
109340,note_off,,5,0,6,,,,,,,2,,,,42,0
109360,note_off,,0,0,6,,,,,,,2,,,,70,0
109360,note_off,,0,0,5,,,,,,,1,,,,70,0
109360,note_off,,20,0,5,,,,,,,1,,,,66,0
109360,note_off,,20,0,6,,,,,,,2,,,,66,0
109365,note_off,,5,0,5,,,,,,,1,,,,78,0
109365,note_off,,5,0,6,,,,,,,2,,,,78,0
109375,note_off,,10,0,5,,,,,,,1,,,,73,0
109375,note_off,,10,0,6,,,,,,,2,,,,73,0
109420,note_on,,45,0,5,,,,,,,1,,,,78,122
109420,note_on,,45,0,6,,,,,,,2,,,,78,122
109425,note_on,,5,0,5,,,,,,,1,,,,73,91
109425,note_on,,5,0,6,,,,,,,2,,,,73,91
109425,note_on,,0,0,5,,,,,,,1,,,,66,91
109425,note_on,,0,0,6,,,,,,,2,,,,70,91
109425,note_on,,0,0,5,,,,,,,1,,,,70,91
109425,note_on,,0,0,6,,,,,,,2,,,,66,91
109440,note_on,,15,0,5,,,,,,,1,,,,49,92
109440,note_on,,15,0,6,,,,,,,2,,,,49,92
109445,note_on,,5,0,6,,,,,,,2,,,,61,110
109445,note_on,,5,0,5,,,,,,,1,,,,61,110
109935,note_off,,490,0,5,,,,,,,1,,,,49,0
109935,note_off,,490,0,6,,,,,,,2,,,,49,0
109935,note_off,,0,0,6,,,,,,,2,,,,66,0
109935,note_off,,0,0,5,,,,,,,1,,,,66,0
109940,note_off,,5,0,5,,,,,,,1,,,,70,0
109940,note_off,,5,0,6,,,,,,,2,,,,70,0
109945,note_off,,5,0,6,,,,,,,2,,,,61,0
109945,note_off,,5,0,5,,,,,,,1,,,,61,0
109950,note_off,,5,0,6,,,,,,,2,,,,73,0
109950,note_off,,0,0,6,,,,,,,2,,,,78,0
109950,note_off,,0,0,5,,,,,,,1,,,,78,0
109950,note_off,,5,0,5,,,,,,,1,,,,73,0
110400,note_on,,450,0,6,,,,,,,2,,,,61,80
110400,note_on,,450,0,5,,,,,,,1,,,,61,80
110405,note_on,,0,0,5,,,,,,,1,,,,85,42
110405,note_on,,0,0,5,,,,,,,1,,,,73,104
110405,note_on,,0,0,6,,,,,,,2,,,,73,104
110405,note_on,,0,0,6,,,,,,,2,,,,70,104
110405,note_on,,5,0,5,,,,,,,1,,,,78,104
110405,note_on,,0,0,6,,,,,,,2,,,,82,104
110405,note_on,,0,0,6,,,,,,,2,,,,85,42
110405,note_on,,0,0,6,,,,,,,2,,,,90,104
110405,note_on,,0,0,5,,,,,,,1,,,,66,72
110405,note_on,,0,0,5,,,,,,,1,,,,70,104
110405,note_on,,0,0,6,,,,,,,2,,,,66,72
110405,note_on,,0,0,5,,,,,,,1,,,,82,104
110405,note_on,,5,0,6,,,,,,,2,,,,78,104
110405,note_on,,0,0,5,,,,,,,1,,,,90,104
110455,note_off,,50,0,6,,,,,,,2,,,,78,0
110455,note_off,,50,0,5,,,,,,,1,,,,78,0
110460,note_off,,5,0,5,,,,,,,1,,,,61,0
110460,note_off,,5,0,6,,,,,,,2,,,,61,0
110465,note_off,,5,0,6,,,,,,,2,,,,73,0
110465,note_off,,5,0,5,,,,,,,1,,,,73,0
110470,note_off,,0,0,6,,,,,,,2,,,,66,0
110470,note_off,,5,0,5,,,,,,,1,,,,82,0
110470,note_off,,5,0,6,,,,,,,2,,,,82,0
110470,note_off,,0,0,5,,,,,,,1,,,,66,0
110475,note_off,,5,0,5,,,,,,,1,,,,70,0
110475,note_off,,0,0,5,,,,,,,1,,,,85,0
110475,note_off,,5,0,6,,,,,,,2,,,,70,0
110475,note_off,,0,0,6,,,,,,,2,,,,85,0
110495,note_off,,20,0,5,,,,,,,1,,,,90,0
110495,note_off,,20,0,6,,,,,,,2,,,,90,0
110895,note_on,,0,0,5,,,,,,,1,,,,85,58
110895,note_on,,0,0,6,,,,,,,2,,,,85,58
110895,note_on,,400,0,5,,,,,,,1,,,,102,110
110895,note_on,,400,0,6,,,,,,,2,,,,102,110
110900,note_on,,0,0,5,,,,,,,1,,,,82,80
110900,note_on,,0,0,5,,,,,,,1,,,,90,80
110900,note_on,,5,0,5,,,,,,,1,,,,73,72
110900,note_on,,0,0,5,,,,,,,1,,,,94,110
110900,note_on,,0,0,6,,,,,,,2,,,,94,110
110900,note_on,,0,0,6,,,,,,,2,,,,90,80
110900,note_on,,0,0,6,,,,,,,2,,,,82,80
110900,note_on,,5,0,6,,,,,,,2,,,,73,72
110905,note_on,,5,0,5,,,,,,,1,,,,78,80
110905,note_on,,0,0,6,,,,,,,2,,,,97,80
110905,note_on,,5,0,6,,,,,,,2,,,,78,80
110905,note_on,,0,0,5,,,,,,,1,,,,97,80
110950,note_off,,45,0,6,,,,,,,2,,,,85,0
110950,note_off,,45,0,5,,,,,,,1,,,,85,0
110970,note_off,,20,0,6,,,,,,,2,,,,82,0
110970,note_off,,20,0,5,,,,,,,1,,,,82,0
110975,note_off,,5,0,5,,,,,,,1,,,,102,0
110975,note_off,,5,0,6,,,,,,,2,,,,102,0
110980,note_off,,0,0,5,,,,,,,1,,,,78,0
110980,note_off,,5,0,5,,,,,,,1,,,,94,0
110980,note_off,,5,0,6,,,,,,,2,,,,94,0
110980,note_off,,0,0,6,,,,,,,2,,,,78,0
110985,note_off,,5,0,6,,,,,,,2,,,,73,0
110985,note_off,,0,0,6,,,,,,,2,,,,97,0
110985,note_off,,5,0,5,,,,,,,1,,,,73,0
110985,note_off,,0,0,5,,,,,,,1,,,,97,0
110990,note_off,,5,0,6,,,,,,,2,,,,90,0
110990,note_off,,5,0,5,,,,,,,1,,,,90,0
111245,note_on,,255,0,5,,,,,,,1,,,,54,15
111245,note_on,,255,0,6,,,,,,,2,,,,54,15
111250,note_off,,5,0,6,,,,,,,2,,,,54,0
111250,note_off,,5,0,5,,,,,,,1,,,,54,0
111420,note_on,,0,0,6,,,,,,,2,,,,30,127
111420,note_on,,170,0,5,,,,,,,1,,,,42,110
111420,note_on,,170,0,6,,,,,,,2,,,,42,110
111420,note_on,,0,0,5,,,,,,,1,,,,30,127
111440,note_on,,20,0,5,,,,,,,1,,,,54,92
111440,note_on,,20,0,6,,,,,,,2,,,,54,92
113045,note_off,,1605,0,5,,,,,,,1,,,,54,0
113045,note_off,,1605,0,6,,,,,,,2,,,,54,0
113085,note_off,,40,0,6,,,,,,,2,,,,30,0
113085,note_off,,40,0,5,,,,,,,1,,,,30,0
113095,note_off,,10,0,6,,,,,,,2,,,,42,0
113095,note_off,,10,0,5,,,,,,,1,,,,42,0
113095,end_of_track,,0,1,5,,,,,,,,,,,,
113095,end_of_track,,0,1,6,,,,,,,,,,,,
