tick,type,time,meta,track,numerator,denominator,clocks_per_click,notated_32nd_notes_per_beat,key,tempo,port,program,channel,control,value,note,velocity
0,control_change,0,0,1,,,,,,,,,0,7,100,,
0,midi_port,0,1,10,,,,,,,0,,,,,,
0,midi_port,0,1,9,,,,,,,0,,,,,,
0,midi_port,0,1,8,,,,,,,0,,,,,,
0,midi_port,0,1,7,,,,,,,0,,,,,,
0,midi_port,0,1,6,,,,,,,0,,,,,,
0,midi_port,0,1,5,,,,,,,0,,,,,,
0,midi_port,0,1,4,,,,,,,0,,,,,,
0,note_on,0,0,3,,,,,,,,,0,,,31,89
0,midi_port,0,1,3,,,,,,,0,,,,,,
0,midi_port,0,1,1,,,,,,,0,,,,,,
0,key_signature,0,1,0,,,,,Bb,,,,,,,,
0,end_of_track,0,1,10,,,,,,,,,,,,,
0,end_of_track,0,1,9,,,,,,,,,,,,,
0,end_of_track,0,1,8,,,,,,,,,,,,,
0,end_of_track,0,1,7,,,,,,,,,,,,,
0,end_of_track,0,1,6,,,,,,,,,,,,,
0,midi_port,0,1,2,,,,,,,0,,,,,,
0,end_of_track,0,1,5,,,,,,,,,,,,,
0,track_name,0,1,7,,,,,,,,,,,,,
0,program_change,0,0,2,,,,,,,,0,0,,,,
0,track_name,0,1,6,,,,,,,,,,,,,
0,track_name,0,1,5,,,,,,,,,,,,,
0,track_name,0,1,4,,,,,,,,,,,,,
0,track_name,0,1,3,,,,,,,,,,,,,
0,track_name,0,1,2,,,,,,,,,,,,,
0,track_name,0,1,1,,,,,,,,,,,,,
0,track_name,0,1,0,,,,,,,,,,,,,
0,program_change,0,0,1,,,,,,,,0,0,,,,
0,time_signature,0,1,0,6,4,24,8,,,,,,,,,
0,text,0,1,0,,,,,,,,,,,,,
0,text,0,1,0,,,,,,,,,,,,,
0,text,0,1,0,,,,,,,,,,,,,
0,text,0,1,0,,,,,,,,,,,,,
0,set_tempo,0,1,0,,,,,,1379310,,,,,,,
0,program_change,0,0,4,,,,,,,,0,0,,,,
0,program_change,0,0,3,,,,,,,,0,0,,,,
0,text,0,1,1,,,,,,,,,,,,,
0,copyright,0,1,0,,,,,,,,,,,,,
0,track_name,0,1,8,,,,,,,,,,,,,
0,control_change,0,0,1,,,,,,,,,0,91,127,,
0,control_change,0,0,2,,,,,,,,,0,7,100,,
0,control_change,0,0,3,,,,,,,,,0,7,100,,
0,control_change,0,0,4,,,,,,,,,0,7,100,,
1,marker,1,1,0,,,,,,,,,,,,,
3,control_change,3,0,3,,,,,,,,,0,64,127,,
480,set_tempo,479,1,0,,,,,,1379310,,,,,,,
480,note_on,0,0,3,,,,,,,,,0,,,34,62
480,note_on,477,0,3,,,,,,,,,0,,,31,0
540,note_on,0,0,3,,,,,,,,,0,,,38,65
540,note_on,60,0,3,,,,,,,,,0,,,34,0
560,set_tempo,80,1,0,,,,,,1363636,,,,,,,
600,note_on,0,0,3,,,,,,,,,0,,,43,68
600,note_on,60,0,3,,,,,,,,,0,,,38,0
600,set_tempo,40,1,0,,,,,,1348315,,,,,,,
640,set_tempo,40,1,0,,,,,,1212121,,,,,,,
652,set_tempo,12,1,0,,,,,,1200000,,,,,,,
660,note_on,60,0,3,,,,,,,,,0,,,43,0
660,note_on,0,0,3,,,,,,,,,0,,,46,71
664,set_tempo,12,1,0,,,,,,1176471,,,,,,,
680,set_tempo,16,1,0,,,,,,1165049,,,,,,,
692,set_tempo,12,1,0,,,,,,1142857,,,,,,,
704,set_tempo,12,1,0,,,,,,1121495,,,,,,,
720,set_tempo,16,1,0,,,,,,1250000,,,,,,,
720,note_on,0,0,3,,,,,,,,,0,,,50,74
720,note_on,60,0,3,,,,,,,,,0,,,46,0
732,set_tempo,12,1,0,,,,,,1090909,,,,,,,
772,set_tempo,40,1,0,,,,,,1081081,,,,,,,
780,note_on,0,0,3,,,,,,,,,0,,,55,76
780,note_on,60,0,3,,,,,,,,,0,,,50,0
800,set_tempo,28,1,0,,,,,,1071429,,,,,,,
824,set_tempo,24,1,0,,,,,,1061947,,,,,,,
840,note_on,60,0,3,,,,,,,,,0,,,55,0
840,note_on,0,0,3,,,,,,,,,0,,,58,76
852,set_tempo,28,1,0,,,,,,1052632,,,,,,,
880,set_tempo,28,1,0,,,,,,1043478,,,,,,,
900,note_on,0,0,3,,,,,,,,,0,,,62,79
900,note_on,60,0,3,,,,,,,,,0,,,58,0
904,set_tempo,24,1,0,,,,,,1034483,,,,,,,
932,set_tempo,28,1,0,,,,,,1025641,,,,,,,
960,set_tempo,28,1,0,,,,,,1428571,,,,,,,
960,note_on,60,0,3,,,,,,,,,0,,,62,0
960,note_on,0,0,3,,,,,,,,,0,,,67,86
973,control_change,13,0,3,,,,,,,,,0,64,0,,
1131,control_change,158,0,3,,,,,,,,,0,64,127,,
1424,set_tempo,464,1,0,,,,,,1428571,,,,,,,
1452,set_tempo,28,1,0,,,,,,1411765,,,,,,,
1464,set_tempo,12,1,0,,,,,,1395349,,,,,,,
1480,set_tempo,16,1,0,,,,,,1379310,,,,,,,
1492,set_tempo,12,1,0,,,,,,1363636,,,,,,,
1500,note_on,0,0,3,,,,,,,,,0,,,66,67
1500,note_on,369,0,3,,,,,,,,,0,,,67,0
1504,set_tempo,12,1,0,,,,,,1348315,,,,,,,
1520,set_tempo,16,1,0,,,,,,1333333,,,,,,,
1532,set_tempo,12,1,0,,,,,,1318681,,,,,,,
1544,set_tempo,12,1,0,,,,,,1304348,,,,,,,
1560,set_tempo,16,1,0,,,,,,1290323,,,,,,,
1560,note_on,60,0,3,,,,,,,,,0,,,66,0
1560,note_on,0,0,3,,,,,,,,,0,,,63,68
1572,set_tempo,12,1,0,,,,,,1276596,,,,,,,
1584,set_tempo,12,1,0,,,,,,1263158,,,,,,,
1600,set_tempo,16,1,0,,,,,,1250000,,,,,,,
1612,set_tempo,12,1,0,,,,,,1237113,,,,,,,
1620,note_on,60,0,3,,,,,,,,,0,,,63,0
1620,note_on,0,0,3,,,,,,,,,0,,,62,69
1624,set_tempo,12,1,0,,,,,,1224490,,,,,,,
1640,set_tempo,16,1,0,,,,,,1212121,,,,,,,
1652,set_tempo,12,1,0,,,,,,1200000,,,,,,,
1664,set_tempo,12,1,0,,,,,,1188119,,,,,,,
1680,set_tempo,16,1,0,,,,,,1176471,,,,,,,
1680,note_on,60,0,3,,,,,,,,,0,,,62,0
1680,note_on,0,0,3,,,,,,,,,0,,,60,69
1692,set_tempo,12,1,0,,,,,,1165049,,,,,,,
1704,set_tempo,12,1,0,,,,,,1153846,,,,,,,
1720,set_tempo,16,1,0,,,,,,1142857,,,,,,,
1732,set_tempo,12,1,0,,,,,,1132075,,,,,,,
1740,note_on,0,0,3,,,,,,,,,0,,,58,70
1740,note_on,60,0,3,,,,,,,,,0,,,60,0
1744,set_tempo,12,1,0,,,,,,1121495,,,,,,,
1760,set_tempo,16,1,0,,,,,,1111111,,,,,,,
1772,set_tempo,12,1,0,,,,,,1100917,,,,,,,
1784,set_tempo,12,1,0,,,,,,1090909,,,,,,,
1800,note_on,60,0,3,,,,,,,,,0,,,58,0
1800,note_on,0,0,3,,,,,,,,,0,,,57,71
1800,set_tempo,16,1,0,,,,,,1081081,,,,,,,
1812,set_tempo,12,1,0,,,,,,1071429,,,,,,,
1824,set_tempo,12,1,0,,,,,,1061947,,,,,,,
1840,set_tempo,16,1,0,,,,,,1052632,,,,,,,
1852,set_tempo,12,1,0,,,,,,1043478,,,,,,,
1860,note_on,60,0,3,,,,,,,,,0,,,57,0
1860,note_on,0,0,3,,,,,,,,,0,,,55,71
1864,set_tempo,12,1,0,,,,,,1034483,,,,,,,
1880,set_tempo,16,1,0,,,,,,1025641,,,,,,,
1892,set_tempo,12,1,0,,,,,,1016949,,,,,,,
1904,set_tempo,12,1,0,,,,,,1008403,,,,,,,
1920,set_tempo,16,1,0,,,,,,944882,,,,,,,
1920,note_on,60,0,3,,,,,,,,,0,,,55,0
1920,note_on,0,0,3,,,,,,,,,0,,,54,72
1944,set_tempo,24,1,0,,,,,,937500,,,,,,,
1960,set_tempo,16,1,0,,,,,,930233,,,,,,,
1972,set_tempo,12,1,0,,,,,,923077,,,,,,,
1980,note_on,60,0,3,,,,,,,,,0,,,54,0
1980,note_on,0,0,3,,,,,,,,,0,,,51,70
1984,set_tempo,12,1,0,,,,,,916031,,,,,,,
2000,set_tempo,16,1,0,,,,,,909091,,,,,,,
2012,set_tempo,12,1,0,,,,,,902256,,,,,,,
2024,set_tempo,12,1,0,,,,,,895522,,,,,,,
2040,note_on,60,0,3,,,,,,,,,0,,,51,0
2040,note_on,0,0,3,,,,,,,,,0,,,50,71
2040,set_tempo,16,1,0,,,,,,888889,,,,,,,
2052,set_tempo,12,1,0,,,,,,882353,,,,,,,
2080,set_tempo,28,1,0,,,,,,875912,,,,,,,
2092,set_tempo,12,1,0,,,,,,869565,,,,,,,
2100,note_on,0,0,3,,,,,,,,,0,,,48,72
2100,note_on,60,0,3,,,,,,,,,0,,,50,0
2104,set_tempo,12,1,0,,,,,,863309,,,,,,,
2120,set_tempo,16,1,0,,,,,,857143,,,,,,,
2132,set_tempo,12,1,0,,,,,,851064,,,,,,,
2144,set_tempo,12,1,0,,,,,,845070,,,,,,,
2160,note_on,0,0,3,,,,,,,,,0,,,46,72
2160,set_tempo,16,1,0,,,,,,839161,,,,,,,
2160,note_on,60,0,3,,,,,,,,,0,,,48,0
2172,set_tempo,12,1,0,,,,,,833333,,,,,,,
2184,set_tempo,12,1,0,,,,,,827586,,,,,,,
2200,set_tempo,16,1,0,,,,,,821918,,,,,,,
2220,note_on,60,0,3,,,,,,,,,0,,,46,0
2220,note_on,0,0,3,,,,,,,,,0,,,45,73
2224,set_tempo,24,1,0,,,,,,816327,,,,,,,
2240,set_tempo,16,1,0,,,,,,810811,,,,,,,
2252,set_tempo,12,1,0,,,,,,805369,,,,,,,
2264,set_tempo,12,1,0,,,,,,800000,,,,,,,
2280,note_on,0,0,3,,,,,,,,,0,,,43,74
2280,set_tempo,16,1,0,,,,,,794702,,,,,,,
2280,note_on,60,0,3,,,,,,,,,0,,,45,0
2292,set_tempo,12,1,0,,,,,,789474,,,,,,,
2304,set_tempo,12,1,0,,,,,,784314,,,,,,,
2320,set_tempo,16,1,0,,,,,,779221,,,,,,,
2332,set_tempo,12,1,0,,,,,,774194,,,,,,,
2340,note_on,0,0,3,,,,,,,,,0,,,42,75
2340,note_on,60,0,3,,,,,,,,,0,,,43,0
2344,set_tempo,12,1,0,,,,,,769231,,,,,,,
2400,note_on,60,0,3,,,,,,,,,0,,,42,0
2400,note_on,0,0,3,,,,,,,,,0,,,39,76
2460,note_on,60,0,3,,,,,,,,,0,,,39,0
2460,note_on,0,0,3,,,,,,,,,0,,,38,77
2480,set_tempo,136,1,0,,,,,,764331,,,,,,,
2520,note_on,0,0,3,,,,,,,,,0,,,36,78
2520,note_on,60,0,3,,,,,,,,,0,,,38,0
2580,note_on,60,0,3,,,,,,,,,0,,,36,0
2580,note_on,0,0,3,,,,,,,,,0,,,34,78
2612,set_tempo,132,1,0,,,,,,759494,,,,,,,
2640,note_on,0,0,3,,,,,,,,,0,,,33,79
2640,note_on,60,0,3,,,,,,,,,0,,,34,0
2700,note_on,2700,0,1,,,,,,,,,0,,,46,88
2700,note_on,0,0,3,,,,,,,,,0,,,31,83
2700,note_on,60,0,3,,,,,,,,,0,,,33,0
2717,control_change,17,0,3,,,,,,,,,0,64,0,,
2744,set_tempo,132,1,0,,,,,,754717,,,,,,,
2766,control_change,49,0,3,,,,,,,,,0,64,127,,
2880,set_tempo,0,1,0,,,,,,1290323,,,,,,,
2880,time_signature,136,1,0,8,4,24,8,,,,,,,,,
3344,set_tempo,464,1,0,,,,,,1016949,,,,,,,
3360,set_tempo,16,1,0,,,,,,1237113,,,,,,,
3372,set_tempo,12,1,0,,,,,,975610,,,,,,,
3384,set_tempo,12,1,0,,,,,,960000,,,,,,,
3400,set_tempo,16,1,0,,,,,,937500,,,,,,,
3412,set_tempo,12,1,0,,,,,,923077,,,,,,,
3424,set_tempo,12,1,0,,,,,,902256,,,,,,,
3440,set_tempo,16,1,0,,,,,,888889,,,,,,,
3440,note_on,0,0,1,,,,,,,,,0,,,50,67
3440,note_on,674,0,3,,,,,,,,,0,,,31,0
3440,note_on,740,0,1,,,,,,,,,0,,,46,0
3440,note_on,0,0,3,,,,,,,,,0,,,34,60
3452,set_tempo,12,1,0,,,,,,869565,,,,,,,
3464,set_tempo,12,1,0,,,,,,851064,,,,,,,
3480,set_tempo,16,1,0,,,,,,839161,,,,,,,
3492,set_tempo,12,1,0,,,,,,827586,,,,,,,
3504,set_tempo,12,1,0,,,,,,816327,,,,,,,
3520,note_on,0,0,3,,,,,,,,,0,,,38,62
3520,note_on,0,0,1,,,,,,,,,0,,,55,69
3520,set_tempo,16,1,0,,,,,,805369,,,,,,,
3520,note_on,80,0,1,,,,,,,,,0,,,50,0
3520,note_on,80,0,3,,,,,,,,,0,,,34,0
3532,set_tempo,12,1,0,,,,,,794702,,,,,,,
3544,set_tempo,12,1,0,,,,,,784314,,,,,,,
3560,set_tempo,16,1,0,,,,,,769231,,,,,,,
3572,set_tempo,12,1,0,,,,,,759494,,,,,,,
3584,set_tempo,12,1,0,,,,,,750000,,,,,,,
3600,note_on,80,0,1,,,,,,,,,0,,,55,0
3600,note_on,0,0,1,,,,,,,,,0,,,58,70
3600,note_on,0,0,3,,,,,,,,,0,,,43,63
3600,set_tempo,16,1,0,,,,,,740741,,,,,,,
3600,note_on,80,0,3,,,,,,,,,0,,,38,0
3612,set_tempo,12,1,0,,,,,,731707,,,,,,,
3624,set_tempo,12,1,0,,,,,,722892,,,,,,,
3640,set_tempo,16,1,0,,,,,,710059,,,,,,,
3652,set_tempo,12,1,0,,,,,,701754,,,,,,,
3664,set_tempo,12,1,0,,,,,,693642,,,,,,,
3680,note_on,80,0,3,,,,,,,,,0,,,43,0
3680,note_on,0,0,1,,,,,,,,,0,,,62,72
3680,set_tempo,16,1,0,,,,,,685714,,,,,,,
3680,note_on,80,0,1,,,,,,,,,0,,,58,0
3680,note_on,0,0,3,,,,,,,,,0,,,46,65
3692,set_tempo,12,1,0,,,,,,677966,,,,,,,
3704,set_tempo,12,1,0,,,,,,670391,,,,,,,
3720,set_tempo,16,1,0,,,,,,659341,,,,,,,
3732,set_tempo,12,1,0,,,,,,655738,,,,,,,
3744,set_tempo,12,1,0,,,,,,652174,,,,,,,
3760,note_on,0,0,3,,,,,,,,,0,,,50,66
3760,note_on,80,0,1,,,,,,,,,0,,,62,0
3760,note_on,0,0,1,,,,,,,,,0,,,67,73
3760,note_on,80,0,3,,,,,,,,,0,,,46,0
3772,set_tempo,28,1,0,,,,,,645161,,,,,,,
3812,set_tempo,40,1,0,,,,,,641711,,,,,,,
3840,note_on,0,0,1,,,,,,,,,0,,,70,75
3840,note_on,80,0,3,,,,,,,,,0,,,50,0
3840,note_on,80,0,1,,,,,,,,,0,,,67,0
3840,note_on,0,0,3,,,,,,,,,0,,,55,67
3852,set_tempo,40,1,0,,,,,,638298,,,,,,,
3892,set_tempo,40,1,0,,,,,,634921,,,,,,,
3920,note_on,0,0,3,,,,,,,,,0,,,58,69
3920,note_on,0,0,1,,,,,,,,,0,,,74,76
3920,note_on,80,0,1,,,,,,,,,0,,,70,0
3920,note_on,80,0,3,,,,,,,,,0,,,55,0
3932,set_tempo,40,1,0,,,,,,631579,,,,,,,
3972,set_tempo,40,1,0,,,,,,628272,,,,,,,
4000,note_on,0,0,3,,,,,,,,,0,,,62,70
4000,note_on,80,0,1,,,,,,,,,0,,,74,0
4000,note_on,80,0,3,,,,,,,,,0,,,58,0
4000,note_on,0,0,1,,,,,,,,,0,,,79,78
4012,set_tempo,40,1,0,,,,,,625000,,,,,,,
4052,set_tempo,40,1,0,,,,,,621762,,,,,,,
4080,note_on,0,0,1,,,,,,,,,0,,,82,79
4080,note_on,80,0,1,,,,,,,,,0,,,79,0
4080,note_on,80,0,3,,,,,,,,,0,,,62,0
4080,note_on,0,0,3,,,,,,,,,0,,,67,72
4092,set_tempo,40,1,0,,,,,,618557,,,,,,,
4132,set_tempo,40,1,0,,,,,,615385,,,,,,,
4160,note_on,80,0,1,,,,,,,,,0,,,82,0
4160,note_on,80,0,3,,,,,,,,,0,,,67,0
4160,note_on,0,0,3,,,,,,,,,0,,,70,73
4160,note_on,0,0,1,,,,,,,,,0,,,86,81
4172,set_tempo,40,1,0,,,,,,612245,,,,,,,
4212,set_tempo,40,1,0,,,,,,609137,,,,,,,
4240,note_on,0,0,3,,,,,,,,,0,,,74,75
4240,note_on,0,0,1,,,,,,,,,0,,,89,86
4240,set_tempo,28,1,0,,,,,,606061,,,,,,,
4240,note_on,80,0,1,,,,,,,,,0,,,86,0
4240,note_on,80,0,3,,,,,,,,,0,,,70,0
4320,note_on,0,0,3,,,,,,,,,0,,,79,84
4320,set_tempo,80,1,0,,,,,,1212121,,,,,,,
4320,note_on,0,0,1,,,,,,,,,0,,,94,89
4320,note_on,80,0,1,,,,,,,,,0,,,89,0
4320,note_on,80,0,3,,,,,,,,,0,,,74,0
4334,control_change,14,0,3,,,,,,,,,0,64,0,,
4526,control_change,192,0,3,,,,,,,,,0,64,127,,
4840,set_tempo,520,1,0,,,,,,1061947,,,,,,,
4860,note_on,0,0,1,,,,,,,,,0,,,93,65
4860,note_on,334,0,3,,,,,,,,,0,,,79,0
4860,note_on,0,0,3,,,,,,,,,0,,,78,56
4860,note_on,540,0,1,,,,,,,,,0,,,94,0
4864,set_tempo,24,1,0,,,,,,1052632,,,,,,,
4880,set_tempo,16,1,0,,,,,,1043478,,,,,,,
4904,set_tempo,24,1,0,,,,,,1034483,,,,,,,
4920,note_on,60,0,1,,,,,,,,,0,,,93,0
4920,note_on,60,0,3,,,,,,,,,0,,,78,0
4920,note_on,0,0,3,,,,,,,,,0,,,75,57
4920,set_tempo,16,1,0,,,,,,1025641,,,,,,,
4920,note_on,0,0,1,,,,,,,,,0,,,91,66
4960,set_tempo,40,1,0,,,,,,1008403,,,,,,,
4972,set_tempo,12,1,0,,,,,,1000000,,,,,,,
4980,note_on,0,0,3,,,,,,,,,0,,,74,57
4980,note_on,60,0,3,,,,,,,,,0,,,75,0
4980,note_on,60,0,1,,,,,,,,,0,,,91,0
4980,note_on,0,0,1,,,,,,,,,0,,,90,66
4984,set_tempo,12,1,0,,,,,,991736,,,,,,,
5000,set_tempo,16,1,0,,,,,,983607,,,,,,,
5012,set_tempo,12,1,0,,,,,,975610,,,,,,,
5024,set_tempo,12,1,0,,,,,,967742,,,,,,,
5040,set_tempo,16,1,0,,,,,,960000,,,,,,,
5040,note_on,60,0,3,,,,,,,,,0,,,74,0
5040,note_on,0,0,3,,,,,,,,,0,,,72,58
5040,note_on,60,0,1,,,,,,,,,0,,,90,0
5040,note_on,0,0,1,,,,,,,,,0,,,87,67
5052,set_tempo,12,1,0,,,,,,952381,,,,,,,
5064,set_tempo,12,1,0,,,,,,944882,,,,,,,
5080,set_tempo,16,1,0,,,,,,937500,,,,,,,
5092,set_tempo,12,1,0,,,,,,930233,,,,,,,
5100,note_on,60,0,1,,,,,,,,,0,,,87,0
5100,note_on,0,0,1,,,,,,,,,0,,,86,67
5100,note_on,60,0,3,,,,,,,,,0,,,72,0
5100,note_on,0,0,3,,,,,,,,,0,,,70,58
5104,set_tempo,12,1,0,,,,,,923077,,,,,,,
5120,set_tempo,16,1,0,,,,,,916031,,,,,,,
5132,set_tempo,12,1,0,,,,,,902256,,,,,,,
5144,set_tempo,12,1,0,,,,,,895522,,,,,,,
5160,note_on,60,0,3,,,,,,,,,0,,,70,0
5160,note_on,0,0,3,,,,,,,,,0,,,69,59
5160,note_on,60,0,1,,,,,,,,,0,,,86,0
5160,note_on,0,0,1,,,,,,,,,0,,,84,68
5160,set_tempo,16,1,0,,,,,,888889,,,,,,,
5172,set_tempo,12,1,0,,,,,,882353,,,,,,,
5184,set_tempo,12,1,0,,,,,,875912,,,,,,,
5200,set_tempo,16,1,0,,,,,,869565,,,,,,,
5212,set_tempo,12,1,0,,,,,,863309,,,,,,,
5220,note_on,60,0,1,,,,,,,,,0,,,84,0
5220,note_on,0,0,3,,,,,,,,,0,,,67,60
5220,note_on,60,0,3,,,,,,,,,0,,,69,0
5220,note_on,0,0,1,,,,,,,,,0,,,82,69
5224,set_tempo,12,1,0,,,,,,857143,,,,,,,
5240,set_tempo,16,1,0,,,,,,851064,,,,,,,
5252,set_tempo,12,1,0,,,,,,845070,,,,,,,
5264,set_tempo,12,1,0,,,,,,839161,,,,,,,
5280,note_on,60,0,3,,,,,,,,,0,,,67,0
5280,set_tempo,16,1,0,,,,,,833333,,,,,,,
5280,note_on,0,0,3,,,,,,,,,0,,,66,60
5280,note_on,0,0,1,,,,,,,,,0,,,81,69
5280,note_on,60,0,1,,,,,,,,,0,,,82,0
5292,set_tempo,12,1,0,,,,,,827586,,,,,,,
5304,set_tempo,12,1,0,,,,,,821918,,,,,,,
5320,set_tempo,16,1,0,,,,,,816327,,,,,,,
5332,set_tempo,12,1,0,,,,,,810811,,,,,,,
5340,note_on,0,0,1,,,,,,,,,0,,,79,70
5340,note_on,60,0,3,,,,,,,,,0,,,66,0
5340,note_on,0,0,3,,,,,,,,,0,,,63,61
5340,note_on,60,0,1,,,,,,,,,0,,,81,0
5344,set_tempo,12,1,0,,,,,,805369,,,,,,,
5360,set_tempo,16,1,0,,,,,,800000,,,,,,,
5372,set_tempo,12,1,0,,,,,,789474,,,,,,,
5384,set_tempo,12,1,0,,,,,,784314,,,,,,,
5400,set_tempo,16,1,0,,,,,,779221,,,,,,,
5400,note_on,0,0,3,,,,,,,,,0,,,62,61
5400,note_on,0,0,1,,,,,,,,,0,,,78,70
5400,note_on,60,0,3,,,,,,,,,0,,,63,0
5400,note_on,60,0,1,,,,,,,,,0,,,79,0
5412,set_tempo,12,1,0,,,,,,774194,,,,,,,
5424,set_tempo,12,1,0,,,,,,769231,,,,,,,
5440,set_tempo,16,1,0,,,,,,764331,,,,,,,
5452,set_tempo,12,1,0,,,,,,754717,,,,,,,
5460,note_on,60,0,1,,,,,,,,,0,,,78,0
5460,note_on,0,0,3,,,,,,,,,0,,,60,62
5460,note_on,0,0,1,,,,,,,,,0,,,75,71
5460,note_on,60,0,3,,,,,,,,,0,,,62,0
5464,set_tempo,12,1,0,,,,,,750000,,,,,,,
5480,set_tempo,16,1,0,,,,,,745342,,,,,,,
5492,set_tempo,12,1,0,,,,,,740741,,,,,,,
5504,set_tempo,12,1,0,,,,,,736196,,,,,,,
5520,set_tempo,16,1,0,,,,,,731707,,,,,,,
5520,note_on,0,0,3,,,,,,,,,0,,,58,63
5520,note_on,60,0,1,,,,,,,,,0,,,75,0
5520,note_on,0,0,1,,,,,,,,,0,,,74,71
5520,note_on,60,0,3,,,,,,,,,0,,,60,0
5532,set_tempo,12,1,0,,,,,,722892,,,,,,,
5544,set_tempo,12,1,0,,,,,,718563,,,,,,,
5560,set_tempo,16,1,0,,,,,,714286,,,,,,,
5572,set_tempo,12,1,0,,,,,,710059,,,,,,,
5580,note_on,0,0,1,,,,,,,,,0,,,72,72
5580,note_on,60,0,1,,,,,,,,,0,,,74,0
5580,note_on,60,0,3,,,,,,,,,0,,,58,0
5580,note_on,0,0,3,,,,,,,,,0,,,57,63
5584,set_tempo,12,1,0,,,,,,705882,,,,,,,
5600,set_tempo,16,1,0,,,,,,701754,,,,,,,
5612,set_tempo,12,1,0,,,,,,693642,,,,,,,
5624,set_tempo,12,1,0,,,,,,689655,,,,,,,
5640,note_on,60,0,3,,,,,,,,,0,,,57,0
5640,set_tempo,16,1,0,,,,,,685714,,,,,,,
5640,note_on,0,0,1,,,,,,,,,0,,,70,72
5640,note_on,0,0,3,,,,,,,,,0,,,55,64
5640,note_on,60,0,1,,,,,,,,,0,,,72,0
5652,set_tempo,12,1,0,,,,,,681818,,,,,,,
5664,set_tempo,12,1,0,,,,,,677966,,,,,,,
5680,set_tempo,16,1,0,,,,,,674157,,,,,,,
5692,set_tempo,12,1,0,,,,,,666667,,,,,,,
5700,note_on,60,0,3,,,,,,,,,0,,,55,0
5700,note_on,0,0,1,,,,,,,,,0,,,69,73
5700,note_on,0,0,3,,,,,,,,,0,,,54,64
5700,note_on,60,0,1,,,,,,,,,0,,,70,0
5704,set_tempo,12,1,0,,,,,,662983,,,,,,,
5720,set_tempo,16,1,0,,,,,,659341,,,,,,,
5732,set_tempo,12,1,0,,,,,,655738,,,,,,,
5744,set_tempo,12,1,0,,,,,,652174,,,,,,,
5760,note_on,0,0,1,,,,,,,,,0,,,67,73
5760,set_tempo,16,1,0,,,,,,652174,,,,,,,
5760,note_on,60,0,1,,,,,,,,,0,,,69,0
5760,note_on,0,0,3,,,,,,,,,0,,,51,65
5760,note_on,60,0,3,,,,,,,,,0,,,54,0
5820,note_on,60,0,1,,,,,,,,,0,,,67,0
5820,note_on,0,0,1,,,,,,,,,0,,,66,74
5820,note_on,0,0,3,,,,,,,,,0,,,50,65
5820,note_on,60,0,3,,,,,,,,,0,,,51,0
5824,set_tempo,64,1,0,,,,,,648649,,,,,,,
5880,note_on,60,0,3,,,,,,,,,0,,,50,0
5880,note_on,0,0,1,,,,,,,,,0,,,63,74
5880,note_on,60,0,1,,,,,,,,,0,,,66,0
5880,note_on,0,0,3,,,,,,,,,0,,,48,66
5892,set_tempo,68,1,0,,,,,,645161,,,,,,,
5940,note_on,0,0,1,,,,,,,,,0,,,62,75
5940,note_on,0,0,3,,,,,,,,,0,,,46,67
5940,note_on,60,0,1,,,,,,,,,0,,,63,0
5940,note_on,60,0,3,,,,,,,,,0,,,48,0
5944,set_tempo,52,1,0,,,,,,641711,,,,,,,
6000,note_on,60,0,3,,,,,,,,,0,,,46,0
6000,note_on,60,0,1,,,,,,,,,0,,,62,0
6000,note_on,0,0,1,,,,,,,,,0,,,60,76
6000,note_on,0,0,3,,,,,,,,,0,,,45,67
6012,set_tempo,68,1,0,,,,,,638298,,,,,,,
6060,note_on,60,0,1,,,,,,,,,0,,,60,0
6060,note_on,0,0,3,,,,,,,,,0,,,43,68
6060,note_on,0,0,1,,,,,,,,,0,,,58,76
6060,note_on,60,0,3,,,,,,,,,0,,,45,0
6064,set_tempo,52,1,0,,,,,,634921,,,,,,,
6120,note_on,0,0,1,,,,,,,,,0,,,57,77
6120,note_on,60,0,1,,,,,,,,,0,,,58,0
6120,note_on,0,0,3,,,,,,,,,0,,,42,68
6120,note_on,60,0,3,,,,,,,,,0,,,43,0
6132,set_tempo,68,1,0,,,,,,631579,,,,,,,
6180,note_on,60,0,3,,,,,,,,,0,,,42,0
6180,note_on,60,0,1,,,,,,,,,0,,,57,0
6180,note_on,0,0,1,,,,,,,,,0,,,55,77
6180,note_on,0,0,3,,,,,,,,,0,,,39,69
6184,set_tempo,52,1,0,,,,,,628272,,,,,,,
6240,note_on,0,0,1,,,,,,,,,0,,,54,78
6240,note_on,60,0,1,,,,,,,,,0,,,55,0
6240,note_on,0,0,3,,,,,,,,,0,,,38,70
6240,note_on,60,0,3,,,,,,,,,0,,,39,0
6252,set_tempo,68,1,0,,,,,,625000,,,,,,,
6300,note_on,60,0,1,,,,,,,,,0,,,54,0
6300,note_on,0,0,1,,,,,,,,,0,,,51,78
6300,note_on,60,0,3,,,,,,,,,0,,,38,0
6300,note_on,0,0,3,,,,,,,,,0,,,36,70
6304,set_tempo,52,1,0,,,,,,621762,,,,,,,
6360,note_on,0,0,1,,,,,,,,,0,,,50,79
6360,note_on,60,0,3,,,,,,,,,0,,,36,0
6360,note_on,60,0,1,,,,,,,,,0,,,51,0
6360,note_on,0,0,3,,,,,,,,,0,,,34,71
6372,set_tempo,68,1,0,,,,,,618557,,,,,,,
6420,note_on,0,0,3,,,,,,,,,0,,,33,71
6420,note_on,0,0,1,,,,,,,,,0,,,48,79
6420,note_on,60,0,3,,,,,,,,,0,,,34,0
6420,note_on,60,0,1,,,,,,,,,0,,,50,0
6424,set_tempo,52,1,0,,,,,,615385,,,,,,,
6480,note_on,60,0,3,,,,,,,,,0,,,33,0
6480,note_on,60,0,1,,,,,,,,,0,,,48,0
6480,note_on,0,0,3,,,,,,,,,0,,,38,72
6480,note_on,0,0,1,,,,,,,,,0,,,46,80
6492,set_tempo,68,1,0,,,,,,612245,,,,,,,
6540,note_on,0,0,1,,,,,,,,,0,,,45,80
6540,note_on,0,0,3,,,,,,,,,0,,,36,72
6540,note_on,60,0,3,,,,,,,,,0,,,38,0
6540,note_on,60,0,1,,,,,,,,,0,,,46,0
6544,set_tempo,52,1,0,,,,,,609137,,,,,,,
6600,note_on,0,0,3,,,,,,,,,0,,,31,82
6600,note_on,0,0,3,,,,,,,,,0,,,34,82
6600,note_on,0,0,1,,,,,,,,,0,,,43,89
6600,note_on,60,0,3,,,,,,,,,0,,,36,0
6600,note_on,60,0,1,,,,,,,,,0,,,45,0
6612,set_tempo,68,1,0,,,,,,606061,,,,,,,
6617,control_change,17,0,3,,,,,,,,,0,64,0,,
6664,set_tempo,52,1,0,,,,,,603015,,,,,,,
6720,set_tempo,56,1,0,,,,,,1290323,,,,,,,
6743,control_change,126,0,3,,,,,,,,,0,64,127,,
7184,set_tempo,464,1,0,,,,,,1016949,,,,,,,
7200,set_tempo,16,1,0,,,,,,1237113,,,,,,,
7212,set_tempo,12,1,0,,,,,,975610,,,,,,,
7224,set_tempo,12,1,0,,,,,,960000,,,,,,,
7240,set_tempo,16,1,0,,,,,,937500,,,,,,,
7252,set_tempo,12,1,0,,,,,,923077,,,,,,,
7260,note_on,660,0,1,,,,,,,,,0,,,43,0
7260,note_on,517,0,3,,,,,,,,,0,,,34,0
7260,note_on,0,0,1,,,,,,,,,0,,,46,67
7260,note_on,0,0,3,,,,,,,,,0,,,31,0
7260,note_on,0,0,3,,,,,,,,,0,,,38,60
7264,set_tempo,12,1,0,,,,,,902256,,,,,,,
7280,set_tempo,16,1,0,,,,,,888889,,,,,,,
7292,set_tempo,12,1,0,,,,,,869565,,,,,,,
7304,set_tempo,12,1,0,,,,,,851064,,,,,,,
7320,set_tempo,16,1,0,,,,,,839161,,,,,,,
7320,note_on,60,0,3,,,,,,,,,0,,,38,0
7320,note_on,60,0,1,,,,,,,,,0,,,46,0
7320,note_on,0,0,3,,,,,,,,,0,,,43,62
7320,note_on,0,0,1,,,,,,,,,0,,,50,69
7332,set_tempo,12,1,0,,,,,,827586,,,,,,,
7344,set_tempo,12,1,0,,,,,,816327,,,,,,,
7360,set_tempo,16,1,0,,,,,,805369,,,,,,,
7372,set_tempo,12,1,0,,,,,,794702,,,,,,,
7380,note_on,60,0,3,,,,,,,,,0,,,43,0
7380,note_on,60,0,1,,,,,,,,,0,,,50,0
7380,note_on,0,0,3,,,,,,,,,0,,,46,63
7380,note_on,0,0,1,,,,,,,,,0,,,55,70
7384,set_tempo,12,1,0,,,,,,784314,,,,,,,
7400,set_tempo,16,1,0,,,,,,769231,,,,,,,
7412,set_tempo,12,1,0,,,,,,759494,,,,,,,
7424,set_tempo,12,1,0,,,,,,750000,,,,,,,
7440,set_tempo,16,1,0,,,,,,740741,,,,,,,
7440,note_on,60,0,1,,,,,,,,,0,,,55,0
7440,note_on,0,0,3,,,,,,,,,0,,,50,65
7440,note_on,0,0,1,,,,,,,,,0,,,58,72
7440,note_on,60,0,3,,,,,,,,,0,,,46,0
7452,set_tempo,12,1,0,,,,,,731707,,,,,,,
7464,set_tempo,12,1,0,,,,,,722892,,,,,,,
7480,set_tempo,16,1,0,,,,,,710059,,,,,,,
7492,set_tempo,12,1,0,,,,,,701754,,,,,,,
7500,note_on,60,0,1,,,,,,,,,0,,,58,0
7500,note_on,0,0,1,,,,,,,,,0,,,62,73
7500,note_on,60,0,3,,,,,,,,,0,,,50,0
7500,note_on,0,0,3,,,,,,,,,0,,,55,66
7504,set_tempo,12,1,0,,,,,,693642,,,,,,,
7520,set_tempo,16,1,0,,,,,,685714,,,,,,,
7532,set_tempo,12,1,0,,,,,,677966,,,,,,,
7544,set_tempo,12,1,0,,,,,,670391,,,,,,,
7560,note_on,0,0,1,,,,,,,,,0,,,67,75
7560,note_on,0,0,3,,,,,,,,,0,,,58,67
7560,note_on,60,0,1,,,,,,,,,0,,,62,0
7560,set_tempo,16,1,0,,,,,,659341,,,,,,,
7560,note_on,60,0,3,,,,,,,,,0,,,55,0
7572,set_tempo,12,1,0,,,,,,655738,,,,,,,
7584,set_tempo,12,1,0,,,,,,652174,,,,,,,
7612,set_tempo,28,1,0,,,,,,645161,,,,,,,
7620,note_on,60,0,3,,,,,,,,,0,,,58,0
7620,note_on,60,0,1,,,,,,,,,0,,,67,0
7620,note_on,0,0,1,,,,,,,,,0,,,70,76
7620,note_on,0,0,3,,,,,,,,,0,,,62,69
7652,set_tempo,40,1,0,,,,,,641711,,,,,,,
7680,note_on,0,0,1,,,,,,,,,0,,,74,78
7680,note_on,60,0,3,,,,,,,,,0,,,62,0
7680,note_on,60,0,1,,,,,,,,,0,,,70,0
7680,note_on,0,0,3,,,,,,,,,0,,,67,70
7692,set_tempo,40,1,0,,,,,,638298,,,,,,,
7732,set_tempo,40,1,0,,,,,,634921,,,,,,,
7740,note_on,0,0,1,,,,,,,,,0,,,79,79
7740,note_on,0,0,3,,,,,,,,,0,,,70,72
7740,note_on,60,0,1,,,,,,,,,0,,,74,0
7740,note_on,60,0,3,,,,,,,,,0,,,67,0
7772,set_tempo,40,1,0,,,,,,631579,,,,,,,
7800,note_on,0,0,1,,,,,,,,,0,,,82,81
7800,note_on,60,0,1,,,,,,,,,0,,,79,0
7800,note_on,60,0,3,,,,,,,,,0,,,70,0
7800,note_on,0,0,3,,,,,,,,,0,,,74,73
7812,set_tempo,40,1,0,,,,,,628272,,,,,,,
7852,set_tempo,40,1,0,,,,,,625000,,,,,,,
7860,note_on,0,0,3,,,,,,,,,0,,,79,72
7860,note_on,60,0,3,,,,,,,,,0,,,74,0
7860,note_on,0,0,1,,,,,,,,,0,,,86,82
7860,note_on,60,0,1,,,,,,,,,0,,,82,0
7892,set_tempo,40,1,0,,,,,,621762,,,,,,,
7920,note_on,60,0,3,,,,,,,,,0,,,79,0
7920,note_on,0,0,3,,,,,,,,,0,,,82,74
7920,note_on,60,0,1,,,,,,,,,0,,,86,0
7920,note_on,0,0,1,,,,,,,,,0,,,91,84
7932,set_tempo,40,1,0,,,,,,618557,,,,,,,
7972,set_tempo,40,1,0,,,,,,615385,,,,,,,
7980,note_on,60,0,1,,,,,,,,,0,,,91,0
7980,note_on,0,0,3,,,,,,,,,0,,,86,76
7980,note_on,0,0,1,,,,,,,,,0,,,94,87
7980,note_on,60,0,3,,,,,,,,,0,,,82,0
8012,set_tempo,40,1,0,,,,,,612245,,,,,,,
8040,note_on,60,0,3,,,,,,,,,0,,,86,0
8040,note_on,0,0,3,,,,,,,,,0,,,91,84
8040,note_on,60,0,1,,,,,,,,,0,,,98,89
8052,set_tempo,40,1,0,,,,,,609137,,,,,,,
8080,set_tempo,28,1,0,,,,,,606061,,,,,,,
8160,set_tempo,80,1,0,,,,,,1212121,,,,,,,
8174,control_change,134,0,3,,,,,,,,,0,64,0,,
8277,control_change,103,0,3,,,,,,,,,0,64,127,,
8680,set_tempo,520,1,0,,,,,,1061947,,,,,,,
8700,note_on,660,0,1,,,,,,,,,0,,,98,0
8700,note_on,0,0,3,,,,,,,,,0,,,87,56
8700,note_on,423,0,3,,,,,,,,,0,,,91,0
8700,note_on,0,0,1,,,,,,,,,0,,,94,0
8700,note_on,0,0,1,,,,,,,,,0,,,96,65
8704,set_tempo,24,1,0,,,,,,1052632,,,,,,,
8720,set_tempo,16,1,0,,,,,,1043478,,,,,,,
8744,set_tempo,24,1,0,,,,,,1034483,,,,,,,
8760,note_on,0,0,1,,,,,,,,,0,,,94,65
8760,note_on,60,0,3,,,,,,,,,0,,,87,0
8760,note_on,0,0,3,,,,,,,,,0,,,86,56
8760,set_tempo,16,1,0,,,,,,1025641,,,,,,,
8760,note_on,60,0,1,,,,,,,,,0,,,96,0
8800,set_tempo,40,1,0,,,,,,1008403,,,,,,,
8812,set_tempo,12,1,0,,,,,,1000000,,,,,,,
8820,note_on,0,0,1,,,,,,,,,0,,,93,65
8820,note_on,0,0,3,,,,,,,,,0,,,84,56
8820,note_on,60,0,3,,,,,,,,,0,,,86,0
8820,note_on,60,0,1,,,,,,,,,0,,,94,0
8824,set_tempo,12,1,0,,,,,,991736,,,,,,,
8840,set_tempo,16,1,0,,,,,,983607,,,,,,,
8852,set_tempo,12,1,0,,,,,,975610,,,,,,,
8864,set_tempo,12,1,0,,,,,,967742,,,,,,,
8880,set_tempo,16,1,0,,,,,,960000,,,,,,,
8880,note_on,60,0,1,,,,,,,,,0,,,93,0
8880,note_on,60,0,3,,,,,,,,,0,,,84,0
8880,note_on,0,0,3,,,,,,,,,0,,,82,57
8880,note_on,0,0,1,,,,,,,,,0,,,91,66
8892,set_tempo,12,1,0,,,,,,952381,,,,,,,
8904,set_tempo,12,1,0,,,,,,944882,,,,,,,
8920,set_tempo,16,1,0,,,,,,937500,,,,,,,
8932,set_tempo,12,1,0,,,,,,930233,,,,,,,
8940,note_on,60,0,3,,,,,,,,,0,,,82,0
8940,note_on,60,0,1,,,,,,,,,0,,,91,0
8940,note_on,0,0,3,,,,,,,,,0,,,81,57
8940,note_on,0,0,1,,,,,,,,,0,,,90,66
8944,set_tempo,12,1,0,,,,,,923077,,,,,,,
8960,set_tempo,16,1,0,,,,,,916031,,,,,,,
8972,set_tempo,12,1,0,,,,,,902256,,,,,,,
8984,set_tempo,12,1,0,,,,,,895522,,,,,,,
9000,note_on,0,0,3,,,,,,,,,0,,,79,58
9000,note_on,60,0,3,,,,,,,,,0,,,81,0
9000,set_tempo,16,1,0,,,,,,888889,,,,,,,
9000,note_on,60,0,1,,,,,,,,,0,,,90,0
9000,note_on,0,0,1,,,,,,,,,0,,,87,67
9012,set_tempo,12,1,0,,,,,,882353,,,,,,,
9024,set_tempo,12,1,0,,,,,,875912,,,,,,,
9040,set_tempo,16,1,0,,,,,,869565,,,,,,,
9052,set_tempo,12,1,0,,,,,,863309,,,,,,,
9060,note_on,60,0,1,,,,,,,,,0,,,87,0
9060,note_on,0,0,1,,,,,,,,,0,,,86,67
9060,note_on,60,0,3,,,,,,,,,0,,,79,0
9060,note_on,0,0,3,,,,,,,,,0,,,78,58
9064,set_tempo,12,1,0,,,,,,857143,,,,,,,
9080,set_tempo,16,1,0,,,,,,851064,,,,,,,
9092,set_tempo,12,1,0,,,,,,845070,,,,,,,
9104,set_tempo,12,1,0,,,,,,839161,,,,,,,
9120,note_on,60,0,1,,,,,,,,,0,,,86,0
9120,note_on,0,0,3,,,,,,,,,0,,,75,59
9120,set_tempo,16,1,0,,,,,,833333,,,,,,,
9120,note_on,0,0,1,,,,,,,,,0,,,84,68
9120,note_on,60,0,3,,,,,,,,,0,,,78,0
9132,set_tempo,12,1,0,,,,,,827586,,,,,,,
9144,set_tempo,12,1,0,,,,,,821918,,,,,,,
9160,set_tempo,16,1,0,,,,,,816327,,,,,,,
9172,set_tempo,12,1,0,,,,,,810811,,,,,,,
9180,note_on,0,0,3,,,,,,,,,0,,,74,60
9180,note_on,60,0,3,,,,,,,,,0,,,75,0
9180,note_on,0,0,1,,,,,,,,,0,,,82,69
9180,note_on,60,0,1,,,,,,,,,0,,,84,0
9184,set_tempo,12,1,0,,,,,,805369,,,,,,,
9200,set_tempo,16,1,0,,,,,,800000,,,,,,,
9212,set_tempo,12,1,0,,,,,,789474,,,,,,,
9224,set_tempo,12,1,0,,,,,,784314,,,,,,,
9240,note_on,0,0,3,,,,,,,,,0,,,72,60
9240,note_on,60,0,1,,,,,,,,,0,,,82,0
9240,note_on,60,0,3,,,,,,,,,0,,,74,0
9240,note_on,0,0,1,,,,,,,,,0,,,81,69
9240,set_tempo,16,1,0,,,,,,779221,,,,,,,
9252,set_tempo,12,1,0,,,,,,774194,,,,,,,
9264,set_tempo,12,1,0,,,,,,769231,,,,,,,
9280,set_tempo,16,1,0,,,,,,764331,,,,,,,
9292,set_tempo,12,1,0,,,,,,754717,,,,,,,
9300,note_on,60,0,1,,,,,,,,,0,,,81,0
9300,note_on,0,0,1,,,,,,,,,0,,,79,70
9300,note_on,0,0,3,,,,,,,,,0,,,70,61
9300,note_on,60,0,3,,,,,,,,,0,,,72,0
9304,set_tempo,12,1,0,,,,,,750000,,,,,,,
9320,set_tempo,16,1,0,,,,,,745342,,,,,,,
9332,set_tempo,12,1,0,,,,,,740741,,,,,,,
9344,set_tempo,12,1,0,,,,,,736196,,,,,,,
9360,note_on,0,0,3,,,,,,,,,0,,,69,61
9360,set_tempo,16,1,0,,,,,,731707,,,,,,,
9360,note_on,0,0,1,,,,,,,,,0,,,78,70
9360,note_on,60,0,1,,,,,,,,,0,,,79,0
9360,note_on,60,0,3,,,,,,,,,0,,,70,0
9372,set_tempo,12,1,0,,,,,,722892,,,,,,,
9384,set_tempo,12,1,0,,,,,,718563,,,,,,,
9400,set_tempo,16,1,0,,,,,,714286,,,,,,,
9412,set_tempo,12,1,0,,,,,,710059,,,,,,,
9420,note_on,0,0,1,,,,,,,,,0,,,75,71
9420,note_on,60,0,3,,,,,,,,,0,,,69,0
9420,note_on,0,0,3,,,,,,,,,0,,,67,62
9420,note_on,60,0,1,,,,,,,,,0,,,78,0
9424,set_tempo,12,1,0,,,,,,705882,,,,,,,
9440,set_tempo,16,1,0,,,,,,701754,,,,,,,
9452,set_tempo,12,1,0,,,,,,693642,,,,,,,
9464,set_tempo,12,1,0,,,,,,689655,,,,,,,
9480,note_on,60,0,3,,,,,,,,,0,,,67,0
9480,note_on,60,0,1,,,,,,,,,0,,,75,0
9480,set_tempo,16,1,0,,,,,,685714,,,,,,,
9480,note_on,0,0,1,,,,,,,,,0,,,74,71
9480,note_on,0,0,3,,,,,,,,,0,,,66,63
9492,set_tempo,12,1,0,,,,,,681818,,,,,,,
9504,set_tempo,12,1,0,,,,,,677966,,,,,,,
9520,set_tempo,16,1,0,,,,,,674157,,,,,,,
9532,set_tempo,12,1,0,,,,,,666667,,,,,,,
9540,note_on,60,0,1,,,,,,,,,0,,,74,0
9540,note_on,0,0,1,,,,,,,,,0,,,72,72
9540,note_on,60,0,3,,,,,,,,,0,,,66,0
9540,note_on,0,0,3,,,,,,,,,0,,,63,63
9544,set_tempo,12,1,0,,,,,,662983,,,,,,,
9560,set_tempo,16,1,0,,,,,,659341,,,,,,,
9572,set_tempo,12,1,0,,,,,,655738,,,,,,,
9584,set_tempo,12,1,0,,,,,,652174,,,,,,,
9600,note_on,0,0,1,,,,,,,,,0,,,70,72
9600,note_on,60,0,1,,,,,,,,,0,,,72,0
9600,set_tempo,16,1,0,,,,,,652174,,,,,,,
9600,note_on,60,0,3,,,,,,,,,0,,,63,0
9600,note_on,0,0,3,,,,,,,,,0,,,62,64
9660,note_on,0,0,3,,,,,,,,,0,,,60,64
9660,note_on,60,0,3,,,,,,,,,0,,,62,0
9660,note_on,0,0,1,,,,,,,,,0,,,69,73
9660,note_on,60,0,1,,,,,,,,,0,,,70,0
9664,set_tempo,64,1,0,,,,,,648649,,,,,,,
9720,note_on,0,0,3,,,,,,,,,0,,,58,65
9720,note_on,0,0,1,,,,,,,,,0,,,67,73
9720,note_on,60,0,3,,,,,,,,,0,,,60,0
9720,note_on,60,0,1,,,,,,,,,0,,,69,0
9732,set_tempo,68,1,0,,,,,,645161,,,,,,,
9780,note_on,0,0,1,,,,,,,,,0,,,66,74
9780,note_on,60,0,3,,,,,,,,,0,,,58,0
9780,note_on,60,0,1,,,,,,,,,0,,,67,0
9780,note_on,0,0,3,,,,,,,,,0,,,57,65
9784,set_tempo,52,1,0,,,,,,641711,,,,,,,
9840,note_on,60,0,1,,,,,,,,,0,,,66,0
9840,note_on,60,0,3,,,,,,,,,0,,,57,0
9840,note_on,0,0,1,,,,,,,,,0,,,63,74
9840,note_on,0,0,3,,,,,,,,,0,,,55,66
9852,set_tempo,68,1,0,,,,,,638298,,,,,,,
9900,note_on,0,0,3,,,,,,,,,0,,,54,67
9900,note_on,60,0,3,,,,,,,,,0,,,55,0
9900,note_on,60,0,1,,,,,,,,,0,,,63,0
9900,note_on,0,0,1,,,,,,,,,0,,,62,75
9904,set_tempo,52,1,0,,,,,,634921,,,,,,,
9960,note_on,60,0,3,,,,,,,,,0,,,54,0
9960,note_on,0,0,3,,,,,,,,,0,,,51,67
9960,note_on,60,0,1,,,,,,,,,0,,,62,0
9960,note_on,0,0,1,,,,,,,,,0,,,60,76
9972,set_tempo,68,1,0,,,,,,631579,,,,,,,
10020,note_on,60,0,1,,,,,,,,,0,,,60,0
10020,note_on,0,0,3,,,,,,,,,0,,,50,68
10020,note_on,60,0,3,,,,,,,,,0,,,51,0
10020,note_on,0,0,1,,,,,,,,,0,,,58,76
10024,set_tempo,52,1,0,,,,,,628272,,,,,,,
10080,note_on,60,0,1,,,,,,,,,0,,,58,0
10080,note_on,0,0,3,,,,,,,,,0,,,48,68
10080,note_on,0,0,1,,,,,,,,,0,,,57,77
10080,note_on,60,0,3,,,,,,,,,0,,,50,0
10092,set_tempo,68,1,0,,,,,,625000,,,,,,,
10140,note_on,0,0,3,,,,,,,,,0,,,46,69
10140,note_on,60,0,1,,,,,,,,,0,,,57,0
10140,note_on,60,0,3,,,,,,,,,0,,,48,0
10140,note_on,0,0,1,,,,,,,,,0,,,55,77
10144,set_tempo,52,1,0,,,,,,621762,,,,,,,
10200,note_on,0,0,1,,,,,,,,,0,,,54,78
10200,note_on,60,0,3,,,,,,,,,0,,,46,0
10200,note_on,60,0,1,,,,,,,,,0,,,55,0
10200,note_on,0,0,3,,,,,,,,,0,,,45,68
10212,set_tempo,68,1,0,,,,,,618557,,,,,,,
10260,note_on,60,0,3,,,,,,,,,0,,,45,0
10260,note_on,60,0,1,,,,,,,,,0,,,54,0
10260,note_on,0,0,1,,,,,,,,,0,,,51,77
10260,note_on,0,0,3,,,,,,,,,0,,,43,69
10264,set_tempo,52,1,0,,,,,,615385,,,,,,,
10320,note_on,60,0,1,,,,,,,,,0,,,51,0
10320,note_on,0,0,3,,,,,,,,,0,,,42,70
10320,note_on,60,0,3,,,,,,,,,0,,,43,0
10320,note_on,0,0,1,,,,,,,,,0,,,50,78
10332,set_tempo,68,1,0,,,,,,612245,,,,,,,
10380,note_on,0,0,1,,,,,,,,,0,,,48,80
10380,note_on,60,0,3,,,,,,,,,0,,,42,0
10380,note_on,0,0,3,,,,,,,,,0,,,39,71
10380,note_on,60,0,1,,,,,,,,,0,,,50,0
10384,set_tempo,52,1,0,,,,,,609137,,,,,,,
10440,note_on,60,0,1,,,,,,,,,0,,,48,0
10440,note_on,0,0,3,,,,,,,,,0,,,38,73
10440,note_on,0,0,1,,,,,,,,,0,,,46,82
10440,note_on,60,0,3,,,,,,,,,0,,,39,0
10452,set_tempo,68,1,0,,,,,,606061,,,,,,,
10500,note_on,60,0,3,,,,,,,,,0,,,38,0
10500,note_on,60,0,1,,,,,,,,,0,,,46,0
10500,note_on,0,0,1,,,,,,,,,0,,,45,83
10500,note_on,0,0,3,,,,,,,,,0,,,36,74
10504,set_tempo,52,1,0,,,,,,603015,,,,,,,
10560,set_tempo,0,1,0,,,,,,1200000,,,,,,,
10560,note_on,0,0,3,,,,,,,,,0,,,31,82
10560,note_on,60,0,1,,,,,,,,,0,,,45,0
10560,time_signature,56,1,0,7,4,24,8,,,,,,,,,
10560,note_on,0,0,3,,,,,,,,,0,,,34,82
10560,note_on,0,0,1,,,,,,,,,0,,,43,89
10560,note_on,60,0,3,,,,,,,,,0,,,36,0
10577,control_change,17,0,3,,,,,,,,,0,64,0,,
10674,control_change,97,0,3,,,,,,,,,0,64,127,,
11040,set_tempo,480,1,0,,,,,,1081081,,,,,,,
11052,set_tempo,12,1,0,,,,,,1071429,,,,,,,
11064,set_tempo,12,1,0,,,,,,1061947,,,,,,,
11080,set_tempo,16,1,0,,,,,,1052632,,,,,,,
11092,set_tempo,12,1,0,,,,,,1043478,,,,,,,
11100,note_on,0,0,3,,,,,,,,,0,,,35,48
11100,note_on,0,0,3,,,,,,,,,0,,,31,0
11100,note_on,0,0,1,,,,,,,,,0,,,44,68
11100,note_on,426,0,3,,,,,,,,,0,,,34,0
11100,note_on,540,0,1,,,,,,,,,0,,,43,0
11104,set_tempo,12,1,0,,,,,,1034483,,,,,,,
11120,set_tempo,16,1,0,,,,,,1025641,,,,,,,
11132,set_tempo,12,1,0,,,,,,1016949,,,,,,,
11144,set_tempo,12,1,0,,,,,,1000000,,,,,,,
11160,note_on,60,0,3,,,,,,,,,0,,,35,0
11160,set_tempo,16,1,0,,,,,,991736,,,,,,,
11160,note_on,0,0,3,,,,,,,,,0,,,36,49
11160,note_on,0,0,1,,,,,,,,,0,,,45,68
11160,note_on,60,0,1,,,,,,,,,0,,,44,0
11172,set_tempo,12,1,0,,,,,,983607,,,,,,,
11184,set_tempo,12,1,0,,,,,,975610,,,,,,,
11200,set_tempo,16,1,0,,,,,,967742,,,,,,,
11212,set_tempo,12,1,0,,,,,,960000,,,,,,,
11220,note_on,0,0,3,,,,,,,,,0,,,37,49
11220,note_on,60,0,3,,,,,,,,,0,,,36,0
11220,note_on,60,0,1,,,,,,,,,0,,,45,0
11220,note_on,0,0,1,,,,,,,,,0,,,46,69
11224,set_tempo,12,1,0,,,,,,952381,,,,,,,
11240,set_tempo,16,1,0,,,,,,944882,,,,,,,
11252,set_tempo,12,1,0,,,,,,930233,,,,,,,
11264,set_tempo,12,1,0,,,,,,923077,,,,,,,
11280,note_on,0,0,1,,,,,,,,,0,,,47,70
11280,set_tempo,16,1,0,,,,,,916031,,,,,,,
11280,note_on,0,0,3,,,,,,,,,0,,,38,50
11280,note_on,60,0,1,,,,,,,,,0,,,46,0
11280,note_on,60,0,3,,,,,,,,,0,,,37,0
11292,set_tempo,12,1,0,,,,,,909091,,,,,,,
11304,set_tempo,12,1,0,,,,,,902256,,,,,,,
11320,set_tempo,16,1,0,,,,,,895522,,,,,,,
11332,set_tempo,12,1,0,,,,,,888889,,,,,,,
11340,note_on,0,0,3,,,,,,,,,0,,,39,51
11340,note_on,60,0,1,,,,,,,,,0,,,47,0
11340,note_on,0,0,1,,,,,,,,,0,,,48,70
11340,note_on,60,0,3,,,,,,,,,0,,,38,0
11344,set_tempo,12,1,0,,,,,,882353,,,,,,,
11360,set_tempo,16,1,0,,,,,,869565,,,,,,,
11372,set_tempo,12,1,0,,,,,,863309,,,,,,,
11384,set_tempo,12,1,0,,,,,,857143,,,,,,,
11400,note_on,0,0,1,,,,,,,,,0,,,49,71
11400,set_tempo,16,1,0,,,,,,851064,,,,,,,
11400,note_on,0,0,3,,,,,,,,,0,,,40,52
11400,note_on,60,0,1,,,,,,,,,0,,,48,0
11400,note_on,60,0,3,,,,,,,,,0,,,39,0
11412,set_tempo,12,1,0,,,,,,845070,,,,,,,
11424,set_tempo,12,1,0,,,,,,839161,,,,,,,
11440,set_tempo,16,1,0,,,,,,833333,,,,,,,
11452,set_tempo,12,1,0,,,,,,827586,,,,,,,
11460,note_on,0,0,1,,,,,,,,,0,,,50,72
11460,note_on,60,0,3,,,,,,,,,0,,,40,0
11460,note_on,0,0,3,,,,,,,,,0,,,41,52
11460,note_on,60,0,1,,,,,,,,,0,,,49,0
11464,set_tempo,12,1,0,,,,,,816327,,,,,,,
11480,set_tempo,16,1,0,,,,,,810811,,,,,,,
11492,set_tempo,12,1,0,,,,,,805369,,,,,,,
11504,set_tempo,12,1,0,,,,,,800000,,,,,,,
11520,note_on,0,0,1,,,,,,,,,0,,,51,72
11520,note_on,60,0,3,,,,,,,,,0,,,41,0
11520,set_tempo,16,1,0,,,,,,794702,,,,,,,
11520,note_on,60,0,1,,,,,,,,,0,,,50,0
11520,note_on,0,0,3,,,,,,,,,0,,,42,53
11532,set_tempo,12,1,0,,,,,,789474,,,,,,,
11544,set_tempo,12,1,0,,,,,,784314,,,,,,,
11560,set_tempo,16,1,0,,,,,,779221,,,,,,,
11572,set_tempo,12,1,0,,,,,,769231,,,,,,,
11580,note_on,60,0,3,,,,,,,,,0,,,42,0
11580,note_on,60,0,1,,,,,,,,,0,,,51,0
11580,note_on,0,0,3,,,,,,,,,0,,,43,54
11580,note_on,0,0,1,,,,,,,,,0,,,52,73
11584,set_tempo,12,1,0,,,,,,764331,,,,,,,
11600,set_tempo,16,1,0,,,,,,759494,,,,,,,
11612,set_tempo,12,1,0,,,,,,754717,,,,,,,
11624,set_tempo,12,1,0,,,,,,750000,,,,,,,
11640,note_on,0,0,3,,,,,,,,,0,,,44,55
11640,note_on,60,0,1,,,,,,,,,0,,,52,0
11640,note_on,0,0,1,,,,,,,,,0,,,53,74
11640,set_tempo,16,1,0,,,,,,745342,,,,,,,
11640,note_on,60,0,3,,,,,,,,,0,,,43,0
11652,set_tempo,12,1,0,,,,,,740741,,,,,,,
11664,set_tempo,12,1,0,,,,,,736196,,,,,,,
11680,set_tempo,16,1,0,,,,,,727273,,,,,,,
11692,set_tempo,12,1,0,,,,,,722892,,,,,,,
11700,note_on,60,0,3,,,,,,,,,0,,,44,0
11700,note_on,0,0,1,,,,,,,,,0,,,54,74
11700,note_on,60,0,1,,,,,,,,,0,,,53,0
11700,note_on,0,0,3,,,,,,,,,0,,,45,55
11704,set_tempo,12,1,0,,,,,,718563,,,,,,,
11720,set_tempo,16,1,0,,,,,,714286,,,,,,,
11732,set_tempo,12,1,0,,,,,,710059,,,,,,,
11744,set_tempo,12,1,0,,,,,,705882,,,,,,,
11760,note_on,0,0,3,,,,,,,,,0,,,46,56
11760,note_on,0,0,1,,,,,,,,,0,,,55,75
11760,note_on,60,0,1,,,,,,,,,0,,,54,0
11760,set_tempo,16,1,0,,,,,,701754,,,,,,,
11760,note_on,60,0,3,,,,,,,,,0,,,45,0
11772,set_tempo,12,1,0,,,,,,697674,,,,,,,
11784,set_tempo,12,1,0,,,,,,689655,,,,,,,
11800,set_tempo,16,1,0,,,,,,685714,,,,,,,
11812,set_tempo,12,1,0,,,,,,681818,,,,,,,
11820,note_on,0,0,3,,,,,,,,,0,,,47,57
11820,note_on,60,0,1,,,,,,,,,0,,,55,0
11820,note_on,0,0,1,,,,,,,,,0,,,56,76
11820,note_on,60,0,3,,,,,,,,,0,,,46,0
11824,set_tempo,12,1,0,,,,,,677966,,,,,,,
11840,set_tempo,16,1,0,,,,,,674157,,,,,,,
11852,set_tempo,12,1,0,,,,,,670391,,,,,,,
11864,set_tempo,12,1,0,,,,,,666667,,,,,,,
11880,note_on,0,0,3,,,,,,,,,0,,,48,58
11880,note_on,60,0,1,,,,,,,,,0,,,56,0
11880,set_tempo,16,1,0,,,,,,662983,,,,,,,
11880,note_on,60,0,3,,,,,,,,,0,,,47,0
11880,note_on,0,0,1,,,,,,,,,0,,,57,76
11892,set_tempo,12,1,0,,,,,,655738,,,,,,,
11904,set_tempo,12,1,0,,,,,,652174,,,,,,,
11920,set_tempo,16,1,0,,,,,,648649,,,,,,,
11932,set_tempo,12,1,0,,,,,,645161,,,,,,,
11940,note_on,0,0,3,,,,,,,,,0,,,49,58
11940,note_on,0,0,1,,,,,,,,,0,,,58,77
11940,note_on,60,0,3,,,,,,,,,0,,,48,0
11940,note_on,60,0,1,,,,,,,,,0,,,57,0
11944,set_tempo,12,1,0,,,,,,641711,,,,,,,
11960,set_tempo,16,1,0,,,,,,638298,,,,,,,
11972,set_tempo,12,1,0,,,,,,634921,,,,,,,
11984,set_tempo,12,1,0,,,,,,631579,,,,,,,
12000,note_on,0,0,3,,,,,,,,,0,,,50,59
12000,note_on,60,0,3,,,,,,,,,0,,,49,0
12000,note_on,0,0,1,,,,,,,,,0,,,59,77
12000,set_tempo,16,1,0,,,,,,625000,,,,,,,
12000,note_on,60,0,1,,,,,,,,,0,,,58,0
12060,note_on,60,0,1,,,,,,,,,0,,,59,0
12060,note_on,0,0,3,,,,,,,,,0,,,51,60
12060,note_on,60,0,3,,,,,,,,,0,,,50,0
12060,note_on,0,0,1,,,,,,,,,0,,,60,78
12120,note_on,60,0,1,,,,,,,,,0,,,60,0
12120,note_on,0,0,3,,,,,,,,,0,,,52,61
12120,note_on,60,0,3,,,,,,,,,0,,,51,0
12120,note_on,0,0,1,,,,,,,,,0,,,61,79
12180,note_on,60,0,1,,,,,,,,,0,,,61,0
12180,note_on,0,0,1,,,,,,,,,0,,,62,80
12180,note_on,0,0,3,,,,,,,,,0,,,53,61
12180,note_on,60,0,3,,,,,,,,,0,,,52,0
12240,note_on,0,0,1,,,,,,,,,0,,,63,80
12240,note_on,0,0,3,,,,,,,,,0,,,54,62
12240,note_on,60,0,1,,,,,,,,,0,,,62,0
12240,note_on,60,0,3,,,,,,,,,0,,,53,0
12300,note_on,0,0,1,,,,,,,,,0,,,64,81
12300,note_on,60,0,3,,,,,,,,,0,,,54,0
12300,note_on,0,0,3,,,,,,,,,0,,,55,63
12300,note_on,60,0,1,,,,,,,,,0,,,63,0
12360,note_on,0,0,1,,,,,,,,,0,,,65,81
12360,note_on,60,0,3,,,,,,,,,0,,,55,0
12360,note_on,60,0,1,,,,,,,,,0,,,64,0
12360,note_on,0,0,3,,,,,,,,,0,,,56,64
12420,note_on,0,0,3,,,,,,,,,0,,,57,64
12420,note_on,60,0,3,,,,,,,,,0,,,56,0
12420,note_on,60,0,1,,,,,,,,,0,,,65,0
12420,note_on,0,0,1,,,,,,,,,0,,,66,82
12480,note_on,0,0,3,,,,,,,,,0,,,58,59
12480,note_on,60,0,3,,,,,,,,,0,,,57,0
12480,note_on,60,0,1,,,,,,,,,0,,,66,0
12480,set_tempo,480,1,0,,,,,,618557,,,,,,,
12480,note_on,0,0,1,,,,,,,,,0,,,67,85
12540,note_on,0,0,1,,,,,,,,,0,,,66,84
12540,note_on,0,0,3,,,,,,,,,0,,,57,59
12540,note_on,60,0,3,,,,,,,,,0,,,58,0
12540,note_on,60,0,1,,,,,,,,,0,,,67,0
12600,note_on,0,0,3,,,,,,,,,0,,,56,58
12600,note_on,0,0,1,,,,,,,,,0,,,65,83
12600,note_on,60,0,3,,,,,,,,,0,,,57,0
12600,note_on,60,0,1,,,,,,,,,0,,,66,0
12600,set_tempo,120,1,0,,,,,,615385,,,,,,,
12660,note_on,0,0,3,,,,,,,,,0,,,55,57
12660,note_on,60,0,3,,,,,,,,,0,,,56,0
12660,note_on,0,0,1,,,,,,,,,0,,,64,81
12660,note_on,60,0,1,,,,,,,,,0,,,65,0
12704,set_tempo,104,1,0,,,,,,612245,,,,,,,
12720,note_on,0,0,1,,,,,,,,,0,,,63,80
12720,note_on,0,0,3,,,,,,,,,0,,,54,57
12720,note_on,60,0,3,,,,,,,,,0,,,55,0
12720,note_on,60,0,1,,,,,,,,,0,,,64,0
12780,note_on,60,0,1,,,,,,,,,0,,,63,0
12780,note_on,0,0,3,,,,,,,,,0,,,53,56
12780,note_on,0,0,1,,,,,,,,,0,,,62,79
12780,note_on,60,0,3,,,,,,,,,0,,,54,0
12812,set_tempo,108,1,0,,,,,,609137,,,,,,,
12840,note_on,60,0,1,,,,,,,,,0,,,62,0
12840,note_on,0,0,1,,,,,,,,,0,,,61,78
12840,note_on,60,0,3,,,,,,,,,0,,,53,0
12840,note_on,0,0,3,,,,,,,,,0,,,52,55
12900,note_on,0,0,1,,,,,,,,,0,,,60,76
12900,note_on,0,0,3,,,,,,,,,0,,,51,55
12900,note_on,60,0,3,,,,,,,,,0,,,52,0
12900,note_on,60,0,1,,,,,,,,,0,,,61,0
12920,set_tempo,108,1,0,,,,,,606061,,,,,,,
12960,note_on,0,0,1,,,,,,,,,0,,,59,74
12960,note_on,0,0,3,,,,,,,,,0,,,50,52
12960,note_on,60,0,3,,,,,,,,,0,,,51,0
12960,note_on,60,0,1,,,,,,,,,0,,,60,0
12972,set_tempo,52,1,0,,,,,,609137,,,,,,,
13020,note_on,0,0,1,,,,,,,,,0,,,58,75
13020,note_on,60,0,1,,,,,,,,,0,,,59,0
13020,note_on,0,0,3,,,,,,,,,0,,,49,53
13020,note_on,60,0,3,,,,,,,,,0,,,50,0
13024,set_tempo,52,1,0,,,,,,612245,,,,,,,
13064,set_tempo,40,1,0,,,,,,615385,,,,,,,
13080,note_on,60,0,1,,,,,,,,,0,,,58,0
13080,note_on,0,0,3,,,,,,,,,0,,,48,54
13080,note_on,0,0,1,,,,,,,,,0,,,57,76
13080,note_on,60,0,3,,,,,,,,,0,,,49,0
13120,set_tempo,56,1,0,,,,,,618557,,,,,,,
13140,note_on,60,0,3,,,,,,,,,0,,,48,0
13140,note_on,0,0,3,,,,,,,,,0,,,47,56
13140,note_on,60,0,1,,,,,,,,,0,,,57,0
13140,note_on,0,0,1,,,,,,,,,0,,,56,77
13160,set_tempo,40,1,0,,,,,,621762,,,,,,,
13200,note_on,0,0,3,,,,,,,,,0,,,46,57
13200,note_on,0,0,1,,,,,,,,,0,,,55,78
13200,note_on,60,0,3,,,,,,,,,0,,,47,0
13200,note_on,60,0,1,,,,,,,,,0,,,56,0
13212,set_tempo,52,1,0,,,,,,625000,,,,,,,
13252,set_tempo,40,1,0,,,,,,628272,,,,,,,
13260,note_on,0,0,1,,,,,,,,,0,,,54,79
13260,note_on,60,0,3,,,,,,,,,0,,,46,0
13260,note_on,0,0,3,,,,,,,,,0,,,45,59
13260,note_on,60,0,1,,,,,,,,,0,,,55,0
13304,set_tempo,52,1,0,,,,,,631579,,,,,,,
13320,note_on,60,0,3,,,,,,,,,0,,,45,0
13320,note_on,0,0,3,,,,,,,,,0,,,44,60
13320,note_on,60,0,1,,,,,,,,,0,,,54,0
13320,note_on,0,0,1,,,,,,,,,0,,,53,81
13360,set_tempo,56,1,0,,,,,,634921,,,,,,,
13380,note_on,0,0,1,,,,,,,,,0,,,52,82
13380,note_on,60,0,1,,,,,,,,,0,,,53,0
13380,note_on,0,0,3,,,,,,,,,0,,,43,62
13380,note_on,60,0,3,,,,,,,,,0,,,44,0
13400,set_tempo,40,1,0,,,,,,638298,,,,,,,
13440,note_on,0,0,1,,,,,,,,,0,,,51,83
13440,note_on,60,0,1,,,,,,,,,0,,,52,0
13440,note_on,60,0,3,,,,,,,,,0,,,43,0
13440,note_on,0,0,3,,,,,,,,,0,,,42,66
13452,set_tempo,52,1,0,,,,,,641711,,,,,,,
13492,set_tempo,40,1,0,,,,,,645161,,,,,,,
13500,note_on,0,0,1,,,,,,,,,0,,,50,84
13500,note_on,60,0,3,,,,,,,,,0,,,42,0
13500,note_on,60,0,1,,,,,,,,,0,,,51,0
13500,note_on,0,0,3,,,,,,,,,0,,,41,67
13544,set_tempo,52,1,0,,,,,,648649,,,,,,,
13560,note_on,60,0,3,,,,,,,,,0,,,41,0
13560,note_on,0,0,1,,,,,,,,,0,,,49,86
13560,note_on,60,0,1,,,,,,,,,0,,,50,0
13560,note_on,0,0,3,,,,,,,,,0,,,40,69
13584,set_tempo,40,1,0,,,,,,652174,,,,,,,
13620,note_on,0,0,3,,,,,,,,,0,,,39,71
13620,note_on,60,0,3,,,,,,,,,0,,,40,0
13620,note_on,60,0,1,,,,,,,,,0,,,49,0
13620,note_on,0,0,1,,,,,,,,,0,,,48,88
13640,set_tempo,56,1,0,,,,,,655738,,,,,,,
13680,note_on,0,0,3,,,,,,,,,0,,,38,72
13680,note_on,60,0,3,,,,,,,,,0,,,39,0
13680,note_on,60,0,1,,,,,,,,,0,,,48,0
13680,note_on,0,0,1,,,,,,,,,0,,,47,89
13692,set_tempo,52,1,0,,,,,,659341,,,,,,,
13732,set_tempo,40,1,0,,,,,,662983,,,,,,,
13740,note_on,60,0,1,,,,,,,,,0,,,47,0
13740,note_on,0,0,1,,,,,,,,,0,,,46,91
13740,note_on,60,0,3,,,,,,,,,0,,,38,0
13740,note_on,0,0,3,,,,,,,,,0,,,37,74
13784,set_tempo,52,1,0,,,,,,666667,,,,,,,
13800,note_on,0,0,3,,,,,,,,,0,,,36,75
13800,note_on,0,0,1,,,,,,,,,0,,,45,93
13800,note_on,60,0,1,,,,,,,,,0,,,46,0
13800,note_on,60,0,3,,,,,,,,,0,,,37,0
13824,set_tempo,40,1,0,,,,,,670391,,,,,,,
13860,note_on,0,0,1,,,,,,,,,0,,,44,95
13860,note_on,60,0,1,,,,,,,,,0,,,45,0
13860,note_on,0,0,3,,,,,,,,,0,,,35,77
13860,note_on,60,0,3,,,,,,,,,0,,,36,0
13920,note_on,0,0,3,,,,,,,,,0,,,34,88
13920,note_on,60,0,3,,,,,,,,,0,,,35,0
13920,note_on,0,0,3,,,,,,,,,0,,,31,88
13920,note_on,60,0,1,,,,,,,,,0,,,44,0
13920,set_tempo,96,1,0,,,,,,1008403,,,,,,,
13920,note_on,0,0,1,,,,,,,,,0,,,43,108
14040,note_on,120,0,3,,,,,,,,,0,,,34,0
14040,note_on,120,0,1,,,,,,,,,0,,,43,0
14040,note_on,0,0,3,,,,,,,,,0,,,31,0
14089,control_change,49,0,3,,,,,,,,,0,64,0,,
14400,note_on,0,0,3,,,,,,,,,0,,,62,71
14400,note_on,0,0,3,,,,,,,,,0,,,58,71
14400,note_on,0,0,1,,,,,,,,,0,,,91,77
14400,note_on,0,0,1,,,,,,,,,0,,,94,77
14400,note_on,0,0,1,,,,,,,,,0,,,98,91
14400,note_on,0,0,3,,,,,,,,,0,,,55,60
14400,note_on,360,0,1,,,,,,,,,0,,,103,107
14400,note_on,311,0,3,,,,,,,,,0,,,67,85
14442,control_change,42,0,3,,,,,,,,,0,64,127,,
14520,note_on,0,0,3,,,,,,,,,0,,,58,0
14520,note_on,78,0,3,,,,,,,,,0,,,55,0
14520,note_on,0,0,1,,,,,,,,,0,,,103,0
14520,note_on,0,0,1,,,,,,,,,0,,,98,0
14520,note_on,0,0,1,,,,,,,,,0,,,94,0
14520,note_on,0,0,3,,,,,,,,,0,,,67,0
14520,note_on,0,0,3,,,,,,,,,0,,,62,0
14520,note_on,120,0,1,,,,,,,,,0,,,91,0
15134,control_change,614,0,3,,,,,,,,,0,64,0,,
15360,set_tempo,1440,1,0,,,,,,600000,,,,,,,
17040,set_tempo,1680,1,0,,,,,,745342,,,,,,,
17044,set_tempo,4,1,0,,,,,,750000,,,,,,,
17052,set_tempo,8,1,0,,,,,,754717,,,,,,,
17060,set_tempo,8,1,0,,,,,,759494,,,,,,,
17064,set_tempo,4,1,0,,,,,,764331,,,,,,,
17072,set_tempo,8,1,0,,,,,,769231,,,,,,,
17080,set_tempo,8,1,0,,,,,,774194,,,,,,,
17084,set_tempo,4,1,0,,,,,,779221,,,,,,,
17092,set_tempo,8,1,0,,,,,,784314,,,,,,,
17100,set_tempo,8,1,0,,,,,,789474,,,,,,,
17100,note_on,17100,0,4,,,,,,,,,0,,,43,42
17104,set_tempo,4,1,0,,,,,,794702,,,,,,,
17112,set_tempo,8,1,0,,,,,,800000,,,,,,,
17120,set_tempo,8,1,0,,,,,,810811,,,,,,,
17124,set_tempo,4,1,0,,,,,,816327,,,,,,,
17132,set_tempo,8,1,0,,,,,,821918,,,,,,,
17140,set_tempo,8,1,0,,,,,,827586,,,,,,,
17144,set_tempo,4,1,0,,,,,,833333,,,,,,,
17152,set_tempo,8,1,0,,,,,,839161,,,,,,,
17160,set_tempo,8,1,0,,,,,,839161,,,,,,,
17160,note_on,60,0,4,,,,,,,,,0,,,50,47
17164,set_tempo,4,1,0,,,,,,845070,,,,,,,
17172,set_tempo,8,1,0,,,,,,857143,,,,,,,
17180,set_tempo,8,1,0,,,,,,869565,,,,,,,
17184,set_tempo,4,1,0,,,,,,882353,,,,,,,
17192,set_tempo,8,1,0,,,,,,895522,,,,,,,
17200,set_tempo,8,1,0,,,,,,902256,,,,,,,
17204,set_tempo,4,1,0,,,,,,916031,,,,,,,
17212,set_tempo,8,1,0,,,,,,930233,,,,,,,
17220,note_on,60,0,4,,,,,,,,,0,,,58,53
17220,set_tempo,8,1,0,,,,,,944882,,,,,,,
17224,set_tempo,4,1,0,,,,,,960000,,,,,,,
17232,set_tempo,8,1,0,,,,,,967742,,,,,,,
17240,set_tempo,8,1,0,,,,,,983607,,,,,,,
17244,set_tempo,4,1,0,,,,,,869565,,,,,,,
17280,time_signature,36,1,0,6,4,24,8,,,,,,,,,
17280,marker,0,1,0,,,,,,,,,,,,,
17280,note_on,2146,0,3,,,,,,,,,0,,,62,56
17280,set_tempo,0,1,0,,,,,,833333,,,,,,,
17284,set_tempo,4,1,0,,,,,,827244,,,,,,,
17291,control_change,71,0,4,,,,,,,,,0,64,127,,
17324,set_tempo,40,1,0,,,,,,821355,,,,,,,
17340,note_on,0,0,4,,,,,,,,,0,,,55,36
17340,note_on,49,0,4,,,,,,,,,0,,,58,0
17364,set_tempo,40,1,0,,,,,,815550,,,,,,,
17392,set_tempo,28,1,0,,,,,,809826,,,,,,,
17400,note_on,60,0,4,,,,,,,,,0,,,55,0
17400,note_on,0,0,4,,,,,,,,,0,,,58,45
17432,set_tempo,40,1,0,,,,,,804182,,,,,,,
17460,note_on,60,0,4,,,,,,,,,0,,,58,0
17460,note_on,0,0,4,,,,,,,,,0,,,55,35
17472,set_tempo,40,1,0,,,,,,798616,,,,,,,
17500,set_tempo,28,1,0,,,,,,793021,,,,,,,
17520,note_on,0,0,4,,,,,,,,,0,,,58,45
17520,note_on,60,0,4,,,,,,,,,0,,,55,0
17540,set_tempo,40,1,0,,,,,,787608,,,,,,,
17580,note_on,0,0,4,,,,,,,,,0,,,55,35
17580,note_on,60,0,4,,,,,,,,,0,,,58,0
17580,set_tempo,40,1,0,,,,,,782269,,,,,,,
17620,set_tempo,40,1,0,,,,,,777001,,,,,,,
17640,note_on,60,0,4,,,,,,,,,0,,,55,0
17640,note_on,0,0,4,,,,,,,,,0,,,58,45
17644,set_tempo,24,1,0,,,,,,771803,,,,,,,
17684,set_tempo,40,1,0,,,,,,766675,,,,,,,
17700,note_on,0,0,4,,,,,,,,,0,,,55,36
17700,note_on,60,0,4,,,,,,,,,0,,,58,0
17724,set_tempo,40,1,0,,,,,,761518,,,,,,,
17752,set_tempo,28,1,0,,,,,,751597,,,,,,,
17760,note_on,60,0,4,,,,,,,,,0,,,55,0
17760,note_on,0,0,4,,,,,,,,,0,,,58,46
17820,note_on,0,0,4,,,,,,,,,0,,,55,37
17820,note_on,60,0,4,,,,,,,,,0,,,58,0
17872,set_tempo,120,1,0,,,,,,746733,,,,,,,
17880,note_on,60,0,4,,,,,,,,,0,,,55,0
17880,note_on,0,0,4,,,,,,,,,0,,,58,46
17940,note_on,60,0,4,,,,,,,,,0,,,58,0
17940,note_on,0,0,4,,,,,,,,,0,,,55,37
17980,set_tempo,108,1,0,,,,,,741931,,,,,,,
18000,note_on,60,0,4,,,,,,,,,0,,,55,0
18000,note_on,0,0,4,,,,,,,,,0,,,58,47
18060,note_on,60,0,4,,,,,,,,,0,,,58,0
18060,note_on,0,0,4,,,,,,,,,0,,,55,37
18084,set_tempo,104,1,0,,,,,,737101,,,,,,,
18120,note_on,60,0,4,,,,,,,,,0,,,55,0
18120,note_on,0,0,4,,,,,,,,,0,,,58,47
18180,note_on,60,0,4,,,,,,,,,0,,,58,0
18180,note_on,0,0,4,,,,,,,,,0,,,55,38
18180,note_on,0,0,4,,,,,,,,,0,,,50,0
18180,note_on,0,0,4,,,,,,,,,0,,,43,0
18192,set_tempo,108,1,0,,,,,,732422,,,,,,,
18224,set_tempo,32,1,0,,,,,,740010,,,,,,,
18240,note_on,60,0,4,,,,,,,,,0,,,55,0
18240,note_on,0,0,4,,,,,,,,,0,,,58,47
18300,note_on,60,0,4,,,,,,,,,0,,,58,0
18300,note_on,0,0,4,,,,,,,,,0,,,55,38
18344,set_tempo,120,1,0,,,,,,744509,,,,,,,
18360,note_on,60,0,4,,,,,,,,,0,,,55,0
18360,note_on,0,0,4,,,,,,,,,0,,,58,48
18420,note_on,0,0,4,,,,,,,,,0,,,55,38
18420,note_on,60,0,4,,,,,,,,,0,,,58,0
18464,set_tempo,120,1,0,,,,,,748970,,,,,,,
18480,note_on,60,0,4,,,,,,,,,0,,,55,0
18480,note_on,0,0,4,,,,,,,,,0,,,58,48
18540,note_on,0,0,4,,,,,,,,,0,,,55,38
18540,note_on,60,0,4,,,,,,,,,0,,,58,0
18584,set_tempo,120,1,0,,,,,,753580,,,,,,,
18600,note_on,60,0,4,,,,,,,,,0,,,55,0
18600,note_on,0,0,4,,,,,,,,,0,,,58,49
18660,note_on,0,0,4,,,,,,,,,0,,,55,39
18660,note_on,60,0,4,,,,,,,,,0,,,58,0
18692,set_tempo,108,1,0,,,,,,758246,,,,,,,
18704,set_tempo,12,1,0,,,,,,758246,,,,,,,
18720,note_on,0,0,4,,,,,,,,,0,,,63,54
18720,note_on,60,0,4,,,,,,,,,0,,,55,0
18720,note_on,0,0,3,,,,,,,,,0,,,67,63
18720,note_on,1440,0,3,,,,,,,,,0,,,62,0
18732,set_tempo,28,1,0,,,,,,753580,,,,,,,
18733,control_change,13,0,4,,,,,,,,,0,64,0,,
18760,set_tempo,28,1,0,,,,,,748970,,,,,,,
18773,control_change,40,0,4,,,,,,,,,0,64,127,,
18780,note_on,0,0,4,,,,,,,,,0,,,55,40
18780,note_on,7,0,4,,,,,,,,,0,,,63,0
18784,set_tempo,24,1,0,,,,,,744509,,,,,,,
18812,set_tempo,28,1,0,,,,,,740010,,,,,,,
18840,note_on,60,0,4,,,,,,,,,0,,,55,0
18840,set_tempo,28,1,0,,,,,,735565,,,,,,,
18840,note_on,0,0,4,,,,,,,,,0,,,63,49
18852,set_tempo,12,1,0,,,,,,731261,,,,,,,
18900,note_on,0,0,4,,,,,,,,,0,,,55,37
18900,note_on,60,0,4,,,,,,,,,0,,,63,0
18960,note_on,0,0,4,,,,,,,,,0,,,63,45
18960,note_on,60,0,4,,,,,,,,,0,,,55,0
19020,note_on,0,0,4,,,,,,,,,0,,,55,50
19020,note_on,60,0,4,,,,,,,,,0,,,63,0
19024,set_tempo,172,1,0,,,,,,735565,,,,,,,
19080,note_on,0,0,4,,,,,,,,,0,,,63,38
19080,note_on,60,0,4,,,,,,,,,0,,,55,0
19104,set_tempo,80,1,0,,,,,,735565,,,,,,,
19132,set_tempo,28,1,0,,,,,,740010,,,,,,,
19140,note_on,0,0,4,,,,,,,,,0,,,55,45
19140,note_on,60,0,4,,,,,,,,,0,,,63,0
19160,set_tempo,28,1,0,,,,,,744509,,,,,,,
19184,set_tempo,24,1,0,,,,,,748970,,,,,,,
19200,note_on,60,0,4,,,,,,,,,0,,,55,0
19200,set_tempo,16,1,0,,,,,,753580,,,,,,,
19200,note_on,0,0,3,,,,,,,,,0,,,66,60
19200,note_on,480,0,3,,,,,,,,,0,,,67,0
19200,note_on,0,0,4,,,,,,,,,0,,,62,53
19210,control_change,10,0,4,,,,,,,,,0,64,0,,
19246,control_change,36,0,4,,,,,,,,,0,64,127,,
19252,set_tempo,52,1,0,,,,,,748970,,,,,,,
19260,note_on,0,0,4,,,,,,,,,0,,,55,38
19260,note_on,14,0,4,,,,,,,,,0,,,62,0
19292,set_tempo,40,1,0,,,,,,744509,,,,,,,
19320,note_on,0,0,4,,,,,,,,,0,,,62,48
19320,note_on,60,0,4,,,,,,,,,0,,,55,0
19332,set_tempo,40,1,0,,,,,,740010,,,,,,,
19372,set_tempo,40,1,0,,,,,,735565,,,,,,,
19380,note_on,60,0,4,,,,,,,,,0,,,62,0
19380,note_on,0,0,4,,,,,,,,,0,,,55,39
19440,note_on,60,0,4,,,,,,,,,0,,,55,0
19440,note_on,0,0,4,,,,,,,,,0,,,62,45
19440,set_tempo,68,1,0,,,,,,740010,,,,,,,
19492,set_tempo,52,1,0,,,,,,744509,,,,,,,
19500,note_on,60,0,4,,,,,,,,,0,,,62,0
19500,note_on,0,0,4,,,,,,,,,0,,,55,39
19560,note_on,60,0,4,,,,,,,,,0,,,55,0
19560,set_tempo,68,1,0,,,,,,748970,,,,,,,
19560,note_on,0,0,4,,,,,,,,,0,,,62,49
19612,set_tempo,52,1,0,,,,,,753580,,,,,,,
19620,note_on,0,0,4,,,,,,,,,0,,,55,45
19620,note_on,60,0,4,,,,,,,,,0,,,62,0
19664,set_tempo,52,1,0,,,,,,758246,,,,,,,
19680,note_on,480,0,3,,,,,,,,,0,,,66,0
19680,note_on,0,0,4,,,,,,,,,0,,,60,53
19680,note_on,60,0,4,,,,,,,,,0,,,55,0
19680,note_on,0,0,3,,,,,,,,,0,,,63,60
19694,control_change,14,0,4,,,,,,,,,0,64,0,,
19720,set_tempo,56,1,0,,,,,,753580,,,,,,,
19733,control_change,39,0,4,,,,,,,,,0,64,127,,
19740,note_on,7,0,4,,,,,,,,,0,,,60,0
19740,note_on,0,0,4,,,,,,,,,0,,,55,37
19772,set_tempo,52,1,0,,,,,,748970,,,,,,,
19800,note_on,0,0,4,,,,,,,,,0,,,60,48
19800,note_on,60,0,4,,,,,,,,,0,,,55,0
19824,set_tempo,52,1,0,,,,,,744509,,,,,,,
19860,note_on,60,0,4,,,,,,,,,0,,,60,0
19860,note_on,0,0,4,,,,,,,,,0,,,55,38
19864,set_tempo,40,1,0,,,,,,740010,,,,,,,
19880,set_tempo,16,1,0,,,,,,736196,,,,,,,
19896,set_tempo,16,1,0,,,,,,745342,,,,,,,
19908,set_tempo,12,1,0,,,,,,754717,,,,,,,
19920,note_on,60,0,4,,,,,,,,,0,,,55,0
19920,note_on,0,0,4,,,,,,,,,0,,,60,47
19920,set_tempo,12,1,0,,,,,,764331,,,,,,,
19936,set_tempo,16,1,0,,,,,,774194,,,,,,,
19948,set_tempo,12,1,0,,,,,,784314,,,,,,,
19960,set_tempo,12,1,0,,,,,,794702,,,,,,,
19976,set_tempo,16,1,0,,,,,,805369,,,,,,,
19980,note_on,60,0,4,,,,,,,,,0,,,60,0
19980,note_on,0,0,4,,,,,,,,,0,,,55,37
19988,set_tempo,12,1,0,,,,,,816327,,,,,,,
20000,set_tempo,12,1,0,,,,,,827586,,,,,,,
20016,set_tempo,16,1,0,,,,,,839161,,,,,,,
20028,set_tempo,12,1,0,,,,,,851064,,,,,,,
20040,note_on,0,0,4,,,,,,,,,0,,,60,47
20040,set_tempo,12,1,0,,,,,,863309,,,,,,,
20040,note_on,60,0,4,,,,,,,,,0,,,55,0
20056,set_tempo,16,1,0,,,,,,875912,,,,,,,
20068,set_tempo,12,1,0,,,,,,888889,,,,,,,
20080,set_tempo,12,1,0,,,,,,902256,,,,,,,
20096,set_tempo,16,1,0,,,,,,916031,,,,,,,
20100,note_on,60,0,4,,,,,,,,,0,,,60,0
20100,note_on,0,0,4,,,,,,,,,0,,,55,38
20108,set_tempo,12,1,0,,,,,,930233,,,,,,,
20120,set_tempo,12,1,0,,,,,,944882,,,,,,,
20136,set_tempo,16,1,0,,,,,,967742,,,,,,,
20160,note_on,0,0,3,,,,,,,,,0,,,62,56
20160,set_tempo,24,1,0,,,,,,772599,,,,,,,
20160,note_on,0,0,4,,,,,,,,,0,,,58,49
20160,note_on,480,0,3,,,,,,,,,0,,,63,0
20160,note_on,60,0,4,,,,,,,,,0,,,55,0
20178,control_change,18,0,4,,,,,,,,,0,64,0,,
20200,set_tempo,40,1,0,,,,,,782371,,,,,,,
20220,note_on,42,0,4,,,,,,,,,0,,,58,0
20220,note_on,0,0,4,,,,,,,,,0,,,55,36
20220,control_change,0,0,4,,,,,,,,,0,64,127,,
20240,set_tempo,40,1,0,,,,,,777403,,,,,,,
20280,note_on,0,0,4,,,,,,,,,0,,,58,45
20280,note_on,60,0,4,,,,,,,,,0,,,55,0
20292,set_tempo,52,1,0,,,,,,772599,,,,,,,
20332,set_tempo,40,1,0,,,,,,767754,,,,,,,
20340,note_on,0,0,4,,,,,,,,,0,,,55,35
20340,note_on,60,0,4,,,,,,,,,0,,,58,0
20372,set_tempo,40,1,0,,,,,,762970,,,,,,,
20400,note_on,0,0,4,,,,,,,,,0,,,58,45
20400,note_on,60,0,4,,,,,,,,,0,,,55,0
20424,set_tempo,52,1,0,,,,,,758246,,,,,,,
20460,note_on,60,0,4,,,,,,,,,0,,,58,0
20460,note_on,0,0,4,,,,,,,,,0,,,55,35
20464,set_tempo,40,1,0,,,,,,753580,,,,,,,
20504,set_tempo,40,1,0,,,,,,748970,,,,,,,
20520,note_on,60,0,4,,,,,,,,,0,,,55,0
20520,note_on,0,0,4,,,,,,,,,0,,,58,45
20560,set_tempo,56,1,0,,,,,,744509,,,,,,,
20580,note_on,60,0,4,,,,,,,,,0,,,58,0
20580,note_on,0,0,4,,,,,,,,,0,,,55,35
20600,set_tempo,40,1,0,,,,,,740010,,,,,,,
20640,note_on,0,0,4,,,,,,,,,0,,,58,45
20640,set_tempo,40,1,0,,,,,,735565,,,,,,,
20640,note_on,60,0,4,,,,,,,,,0,,,55,0
20700,note_on,60,0,4,,,,,,,,,0,,,58,0
20700,note_on,0,0,4,,,,,,,,,0,,,55,35
20760,note_on,60,0,4,,,,,,,,,0,,,55,0
20760,note_on,0,0,4,,,,,,,,,0,,,58,44
20820,note_on,60,0,4,,,,,,,,,0,,,58,0
20820,note_on,0,0,4,,,,,,,,,0,,,55,34
20880,note_on,60,0,4,,,,,,,,,0,,,55,0
20880,note_on,0,0,4,,,,,,,,,0,,,58,42
20940,note_on,60,0,4,,,,,,,,,0,,,58,0
20940,note_on,0,0,4,,,,,,,,,0,,,55,33
21000,note_on,60,0,4,,,,,,,,,0,,,55,0
21000,note_on,0,0,4,,,,,,,,,0,,,58,41
21060,note_on,0,0,4,,,,,,,,,0,,,55,33
21060,note_on,60,0,4,,,,,,,,,0,,,58,0
21104,set_tempo,464,1,0,,,,,,740010,,,,,,,
21120,note_on,60,0,4,,,,,,,,,0,,,55,0
21120,note_on,0,0,4,,,,,,,,,0,,,58,36
21180,note_on,60,0,4,,,,,,,,,0,,,58,0
21180,note_on,0,0,4,,,,,,,,,0,,,55,32
21224,set_tempo,120,1,0,,,,,,744509,,,,,,,
21240,note_on,60,0,4,,,,,,,,,0,,,55,0
21240,note_on,0,0,4,,,,,,,,,0,,,58,41
21300,note_on,60,0,4,,,,,,,,,0,,,58,0
21300,note_on,0,0,4,,,,,,,,,0,,,55,33
21344,set_tempo,120,1,0,,,,,,748970,,,,,,,
21360,note_on,60,0,4,,,,,,,,,0,,,55,0
21360,note_on,0,0,4,,,,,,,,,0,,,58,42
21420,note_on,60,0,4,,,,,,,,,0,,,58,0
21420,note_on,0,0,4,,,,,,,,,0,,,55,34
21464,set_tempo,120,1,0,,,,,,753580,,,,,,,
21480,note_on,60,0,4,,,,,,,,,0,,,55,0
21480,note_on,0,0,4,,,,,,,,,0,,,58,44
21540,note_on,60,0,4,,,,,,,,,0,,,58,0
21540,set_tempo,76,1,0,,,,,,1147886,,,,,,,
21540,note_on,0,0,4,,,,,,,,,0,,,55,35
21560,note_on,0,0,4,,,,,,,,,0,,,53,39
21560,note_on,20,0,4,,,,,,,,,0,,,55,0
21580,note_on,20,0,4,,,,,,,,,0,,,57,54
21600,note_on,1440,0,3,,,,,,,,,0,,,62,0
21600,note_on,0,0,3,,,,,,,,,0,,,62,63
21612,set_tempo,72,1,0,,,,,,753580,,,,,,,
21613,control_change,33,0,4,,,,,,,,,0,64,0,,
21640,set_tempo,28,1,0,,,,,,748970,,,,,,,
21653,control_change,40,0,4,,,,,,,,,0,64,127,,
21660,note_on,7,0,4,,,,,,,,,0,,,57,0
21660,note_on,0,0,4,,,,,,,,,0,,,53,40
21660,note_on,0,0,4,,,,,,,,,0,,,53,0
21664,set_tempo,24,1,0,,,,,,744509,,,,,,,
21692,set_tempo,28,1,0,,,,,,740010,,,,,,,
21720,set_tempo,28,1,0,,,,,,735565,,,,,,,
21720,note_on,60,0,4,,,,,,,,,0,,,53,0
21720,note_on,0,0,4,,,,,,,,,0,,,57,49
21732,set_tempo,12,1,0,,,,,,731261,,,,,,,
21780,note_on,60,0,4,,,,,,,,,0,,,57,0
21780,note_on,0,0,4,,,,,,,,,0,,,53,37
21840,note_on,60,0,4,,,,,,,,,0,,,53,0
21840,note_on,0,0,4,,,,,,,,,0,,,57,45
21900,note_on,60,0,4,,,,,,,,,0,,,57,0
21900,note_on,0,0,4,,,,,,,,,0,,,53,50
21904,set_tempo,172,1,0,,,,,,735565,,,,,,,
21960,note_on,60,0,4,,,,,,,,,0,,,53,0
21960,note_on,0,0,4,,,,,,,,,0,,,57,38
21984,set_tempo,80,1,0,,,,,,735565,,,,,,,
22012,set_tempo,28,1,0,,,,,,740010,,,,,,,
22020,note_on,0,0,4,,,,,,,,,0,,,53,45
22020,note_on,60,0,4,,,,,,,,,0,,,57,0
22020,set_tempo,8,1,0,,,,,,1116695,,,,,,,
22040,note_on,0,0,4,,,,,,,,,0,,,51,44
22040,note_on,20,0,4,,,,,,,,,0,,,53,0
22060,note_on,20,0,4,,,,,,,,,0,,,55,53
22080,note_on,480,0,3,,,,,,,,,0,,,62,0
22080,note_on,0,0,3,,,,,,,,,0,,,60,60
22080,set_tempo,60,1,0,,,,,,753580,,,,,,,
22090,control_change,30,0,4,,,,,,,,,0,64,0,,
22126,control_change,36,0,4,,,,,,,,,0,64,127,,
22132,set_tempo,52,1,0,,,,,,748970,,,,,,,
22140,note_on,0,0,4,,,,,,,,,0,,,51,0
22140,note_on,14,0,4,,,,,,,,,0,,,55,0
22140,note_on,0,0,4,,,,,,,,,0,,,51,38
22172,set_tempo,40,1,0,,,,,,744509,,,,,,,
22200,note_on,0,0,4,,,,,,,,,0,,,55,48
22200,note_on,60,0,4,,,,,,,,,0,,,51,0
22212,set_tempo,40,1,0,,,,,,740010,,,,,,,
22252,set_tempo,40,1,0,,,,,,735565,,,,,,,
22260,note_on,60,0,4,,,,,,,,,0,,,55,0
22260,note_on,0,0,4,,,,,,,,,0,,,51,39
22320,note_on,0,0,4,,,,,,,,,0,,,55,45
22320,set_tempo,68,1,0,,,,,,740010,,,,,,,
22320,note_on,60,0,4,,,,,,,,,0,,,51,0
22372,set_tempo,52,1,0,,,,,,744509,,,,,,,
22380,note_on,0,0,4,,,,,,,,,0,,,51,39
22380,note_on,60,0,4,,,,,,,,,0,,,55,0
22440,note_on,0,0,4,,,,,,,,,0,,,55,49
22440,set_tempo,68,1,0,,,,,,748970,,,,,,,
22440,note_on,60,0,4,,,,,,,,,0,,,51,0
22492,set_tempo,52,1,0,,,,,,753580,,,,,,,
22500,set_tempo,8,1,0,,,,,,1137441,,,,,,,
22500,note_on,60,0,4,,,,,,,,,0,,,55,0
22500,note_on,0,0,4,,,,,,,,,0,,,51,45
22520,note_on,20,0,4,,,,,,,,,0,,,51,0
22520,note_on,0,0,4,,,,,,,,,0,,,50,44
22540,note_on,20,0,4,,,,,,,,,0,,,53,53
22560,note_on,480,0,3,,,,,,,,,0,,,60,0
22560,note_on,0,0,3,,,,,,,,,0,,,58,60
22560,set_tempo,60,1,0,,,,,,772599,,,,,,,
22574,control_change,34,0,4,,,,,,,,,0,64,0,,
22600,set_tempo,40,1,0,,,,,,753580,,,,,,,
22613,control_change,39,0,4,,,,,,,,,0,64,127,,
22620,note_on,7,0,4,,,,,,,,,0,,,53,0
22620,note_on,0,0,4,,,,,,,,,0,,,50,0
22620,note_on,0,0,4,,,,,,,,,0,,,50,37
22652,set_tempo,52,1,0,,,,,,748970,,,,,,,
22680,note_on,60,0,4,,,,,,,,,0,,,50,0
22680,note_on,0,0,4,,,,,,,,,0,,,53,48
22704,set_tempo,52,1,0,,,,,,744509,,,,,,,
22740,note_on,60,0,4,,,,,,,,,0,,,53,0
22740,note_on,0,0,4,,,,,,,,,0,,,50,38
22744,set_tempo,40,1,0,,,,,,740010,,,,,,,
22800,note_on,60,0,4,,,,,,,,,0,,,50,0
22800,set_tempo,56,1,0,,,,,,744509,,,,,,,
22800,note_on,0,0,4,,,,,,,,,0,,,53,47
22840,set_tempo,40,1,0,,,,,,748970,,,,,,,
22860,note_on,60,0,4,,,,,,,,,0,,,53,0
22860,note_on,0,0,4,,,,,,,,,0,,,50,37
22892,set_tempo,52,1,0,,,,,,753580,,,,,,,
22920,note_on,0,0,4,,,,,,,,,0,,,53,47
22920,note_on,60,0,4,,,,,,,,,0,,,50,0
22932,set_tempo,40,1,0,,,,,,758246,,,,,,,
22972,set_tempo,40,1,0,,,,,,762970,,,,,,,
22980,set_tempo,8,1,0,,,,,,1279863,,,,,,,
22980,note_on,60,0,4,,,,,,,,,0,,,53,0
22980,note_on,0,0,4,,,,,,,,,0,,,50,38
23000,note_on,0,0,4,,,,,,,,,0,,,48,36
23000,note_on,20,0,4,,,,,,,,,0,,,50,0
23020,note_on,20,0,4,,,,,,,,,0,,,51,49
23040,note_on,0,0,3,,,,,,,,,0,,,57,56
23040,note_on,480,0,3,,,,,,,,,0,,,58,0
23040,set_tempo,60,1,0,,,,,,772599,,,,,,,
23058,control_change,38,0,4,,,,,,,,,0,64,0,,
23080,set_tempo,40,1,0,,,,,,782371,,,,,,,
23100,note_on,42,0,4,,,,,,,,,0,,,51,0
23100,note_on,0,0,4,,,,,,,,,0,,,48,0
23100,control_change,0,0,4,,,,,,,,,0,64,127,,
23100,note_on,0,0,4,,,,,,,,,0,,,48,36
23120,set_tempo,40,1,0,,,,,,777403,,,,,,,
23160,note_on,60,0,4,,,,,,,,,0,,,48,0
23160,note_on,0,0,4,,,,,,,,,0,,,51,45
23172,set_tempo,52,1,0,,,,,,772599,,,,,,,
23212,set_tempo,40,1,0,,,,,,767754,,,,,,,
23220,note_on,60,0,4,,,,,,,,,0,,,51,0
23220,note_on,0,0,4,,,,,,,,,0,,,48,36
23252,set_tempo,40,1,0,,,,,,762970,,,,,,,
23280,note_on,60,0,4,,,,,,,,,0,,,48,0
23280,note_on,0,0,4,,,,,,,,,0,,,51,47
23304,set_tempo,52,1,0,,,,,,758246,,,,,,,
23340,note_on,60,0,4,,,,,,,,,0,,,51,0
23340,note_on,0,0,4,,,,,,,,,0,,,48,37
23344,set_tempo,40,1,0,,,,,,753580,,,,,,,
23384,set_tempo,40,1,0,,,,,,748970,,,,,,,
23400,note_on,0,0,4,,,,,,,,,0,,,51,48
23400,note_on,60,0,4,,,,,,,,,0,,,48,0
23440,set_tempo,56,1,0,,,,,,744509,,,,,,,
23460,note_on,0,0,4,,,,,,,,,0,,,48,37
23460,note_on,60,0,4,,,,,,,,,0,,,51,0
23480,set_tempo,40,1,0,,,,,,740010,,,,,,,
23520,note_on,0,0,4,,,,,,,,,0,,,51,49
23520,set_tempo,40,1,0,,,,,,735565,,,,,,,
23520,note_on,60,0,4,,,,,,,,,0,,,48,0
23580,note_on,0,0,4,,,,,,,,,0,,,48,39
23580,note_on,60,0,4,,,,,,,,,0,,,51,0
23640,note_on,60,0,4,,,,,,,,,0,,,48,0
23640,note_on,0,0,4,,,,,,,,,0,,,51,50
23700,note_on,60,0,4,,,,,,,,,0,,,51,0
23700,note_on,0,0,4,,,,,,,,,0,,,48,40
23760,note_on,60,0,4,,,,,,,,,0,,,48,0
23760,note_on,0,0,4,,,,,,,,,0,,,51,51
23820,note_on,60,0,4,,,,,,,,,0,,,51,0
23820,note_on,0,0,4,,,,,,,,,0,,,48,41
23880,note_on,0,0,4,,,,,,,,,0,,,51,52
23880,note_on,60,0,4,,,,,,,,,0,,,48,0
23940,note_on,60,0,4,,,,,,,,,0,,,51,0
23940,note_on,0,0,4,,,,,,,,,0,,,48,42
23984,set_tempo,464,1,0,,,,,,740010,,,,,,,
24000,note_on,0,0,4,,,,,,,,,0,,,51,54
24000,note_on,60,0,4,,,,,,,,,0,,,48,0
24060,note_on,60,0,4,,,,,,,,,0,,,51,0
24060,note_on,0,0,4,,,,,,,,,0,,,48,43
24104,set_tempo,120,1,0,,,,,,744509,,,,,,,
24120,note_on,0,0,4,,,,,,,,,0,,,51,54
24120,note_on,60,0,4,,,,,,,,,0,,,48,0
24180,note_on,0,0,4,,,,,,,,,0,,,48,44
24180,note_on,60,0,4,,,,,,,,,0,,,51,0
24224,set_tempo,120,1,0,,,,,,748970,,,,,,,
24240,note_on,0,0,4,,,,,,,,,0,,,51,56
24240,note_on,60,0,4,,,,,,,,,0,,,48,0
24300,note_on,0,0,4,,,,,,,,,0,,,48,45
24300,note_on,60,0,4,,,,,,,,,0,,,51,0
24344,set_tempo,120,1,0,,,,,,753580,,,,,,,
24360,note_on,60,0,4,,,,,,,,,0,,,48,0
24360,note_on,0,0,4,,,,,,,,,0,,,51,57
24404,set_tempo,60,1,0,,,,,,762970,,,,,,,
24420,note_on,60,0,4,,,,,,,,,0,,,51,0
24420,note_on,0,0,4,,,,,,,,,0,,,48,46
24432,set_tempo,28,1,0,,,,,,767754,,,,,,,
24460,set_tempo,28,1,0,,,,,,777001,,,,,,,
24480,note_on,0,0,3,,,,,,,,,0,,,60,81
24480,note_on,60,0,4,,,,,,,,,0,,,48,0
24480,note_on,0,0,4,,,,,,,,,0,,,51,64
24480,note_on,1440,0,3,,,,,,,,,0,,,57,0
24493,control_change,13,0,4,,,,,,,,,0,64,0,,
24500,set_tempo,40,1,0,,,,,,771803,,,,,,,
24533,control_change,40,0,4,,,,,,,,,0,64,127,,
24540,note_on,7,0,4,,,,,,,,,0,,,51,0
24540,set_tempo,40,1,0,,,,,,766675,,,,,,,
24540,note_on,0,0,4,,,,,,,,,0,,,48,44
24560,set_tempo,20,1,0,,,,,,761518,,,,,,,
24600,note_on,60,0,4,,,,,,,,,0,,,48,0
24600,set_tempo,40,1,0,,,,,,756525,,,,,,,
24600,note_on,0,0,4,,,,,,,,,0,,,51,57
24640,set_tempo,40,1,0,,,,,,751597,,,,,,,
24660,note_on,0,0,4,,,,,,,,,0,,,48,40
24660,note_on,60,0,4,,,,,,,,,0,,,51,0
24660,set_tempo,20,1,0,,,,,,746733,,,,,,,
24720,note_on,60,0,4,,,,,,,,,0,,,48,0
24720,note_on,0,0,4,,,,,,,,,0,,,51,49
24780,note_on,0,0,4,,,,,,,,,0,,,48,54
24780,note_on,60,0,4,,,,,,,,,0,,,51,0
24840,note_on,0,0,4,,,,,,,,,0,,,51,41
24840,note_on,60,0,4,,,,,,,,,0,,,48,0
24860,set_tempo,200,1,0,,,,,,751597,,,,,,,
24864,set_tempo,4,1,0,,,,,,735565,,,,,,,
24892,set_tempo,28,1,0,,,,,,740010,,,,,,,
24900,set_tempo,8,1,0,,,,,,1116695,,,,,,,
24900,note_on,0,0,4,,,,,,,,,0,,,48,48
24900,note_on,60,0,4,,,,,,,,,0,,,51,0
24920,note_on,0,0,4,,,,,,,,,0,,,49,47
24920,note_on,20,0,4,,,,,,,,,0,,,48,0
24940,note_on,20,0,4,,,,,,,,,0,,,52,58
24960,set_tempo,60,1,0,,,,,,753580,,,,,,,
24960,note_on,0,0,3,,,,,,,,,0,,,57,75
24960,note_on,480,0,3,,,,,,,,,0,,,60,0
24970,control_change,30,0,4,,,,,,,,,0,64,0,,
25006,control_change,36,0,4,,,,,,,,,0,64,127,,
25012,set_tempo,52,1,0,,,,,,748970,,,,,,,
25020,note_on,14,0,4,,,,,,,,,0,,,52,0
25020,note_on,0,0,4,,,,,,,,,0,,,49,40
25020,note_on,0,0,4,,,,,,,,,0,,,49,0
25052,set_tempo,40,1,0,,,,,,744509,,,,,,,
25080,note_on,60,0,4,,,,,,,,,0,,,49,0
25080,note_on,0,0,4,,,,,,,,,0,,,52,50
25092,set_tempo,40,1,0,,,,,,740010,,,,,,,
25132,set_tempo,40,1,0,,,,,,735565,,,,,,,
25140,note_on,0,0,4,,,,,,,,,0,,,49,41
25140,note_on,60,0,4,,,,,,,,,0,,,52,0
25200,note_on,60,0,4,,,,,,,,,0,,,49,0
25200,note_on,0,0,4,,,,,,,,,0,,,52,49
25200,set_tempo,68,1,0,,,,,,740010,,,,,,,
25252,set_tempo,52,1,0,,,,,,744509,,,,,,,
25260,note_on,60,0,4,,,,,,,,,0,,,52,0
25260,note_on,0,0,4,,,,,,,,,0,,,49,43
25320,set_tempo,68,1,0,,,,,,748970,,,,,,,
25320,note_on,60,0,4,,,,,,,,,0,,,49,0
25320,note_on,0,0,4,,,,,,,,,0,,,52,51
25372,set_tempo,52,1,0,,,,,,753580,,,,,,,
25380,set_tempo,8,1,0,,,,,,772599,,,,,,,
25380,note_on,0,0,4,,,,,,,,,0,,,49,46
25380,note_on,60,0,4,,,,,,,,,0,,,52,0
25404,set_tempo,24,1,0,,,,,,777403,,,,,,,
25432,set_tempo,28,1,0,,,,,,782371,,,,,,,
25440,set_tempo,8,1,0,,,,,,772599,,,,,,,
25440,note_on,480,0,3,,,,,,,,,0,,,57,0
25440,note_on,0,0,4,,,,,,,,,0,,,52,58
25440,note_on,60,0,4,,,,,,,,,0,,,49,0
25440,note_on,0,0,3,,,,,,,,,0,,,55,68
25454,control_change,14,0,4,,,,,,,,,0,64,0,,
25480,set_tempo,40,1,0,,,,,,753580,,,,,,,
25493,control_change,39,0,4,,,,,,,,,0,64,127,,
25500,note_on,0,0,4,,,,,,,,,0,,,49,38
25500,note_on,7,0,4,,,,,,,,,0,,,52,0
25532,set_tempo,52,1,0,,,,,,748970,,,,,,,
25560,note_on,0,0,4,,,,,,,,,0,,,52,49
25560,note_on,60,0,4,,,,,,,,,0,,,49,0
25584,set_tempo,52,1,0,,,,,,744509,,,,,,,
25620,note_on,0,0,4,,,,,,,,,0,,,49,39
25620,note_on,60,0,4,,,,,,,,,0,,,52,0
25624,set_tempo,40,1,0,,,,,,740010,,,,,,,
25680,set_tempo,56,1,0,,,,,,744509,,,,,,,
25680,note_on,60,0,4,,,,,,,,,0,,,49,0
25680,note_on,0,0,4,,,,,,,,,0,,,52,47
25720,set_tempo,40,1,0,,,,,,748970,,,,,,,
25740,note_on,60,0,4,,,,,,,,,0,,,52,0
25740,note_on,0,0,4,,,,,,,,,0,,,49,37
25772,set_tempo,52,1,0,,,,,,753580,,,,,,,
25800,note_on,60,0,4,,,,,,,,,0,,,49,0
25800,note_on,0,0,4,,,,,,,,,0,,,52,47
25812,set_tempo,40,1,0,,,,,,758246,,,,,,,
25852,set_tempo,40,1,0,,,,,,762970,,,,,,,
25860,note_on,60,0,4,,,,,,,,,0,,,52,0
25860,note_on,0,0,4,,,,,,,,,0,,,49,38
25860,set_tempo,8,1,0,,,,,,1240695,,,,,,,
25880,note_on,0,0,4,,,,,,,,,0,,,50,49
25880,note_on,20,0,4,,,,,,,,,0,,,49,0
25900,note_on,20,0,4,,,,,,,,,0,,,55,49
25920,note_on,0,0,3,,,,,,,,,0,,,58,67
25920,note_on,480,0,3,,,,,,,,,0,,,55,0
25920,set_tempo,60,1,0,,,,,,772599,,,,,,,
25938,control_change,38,0,4,,,,,,,,,0,64,0,,
25960,set_tempo,40,1,0,,,,,,782371,,,,,,,
25980,note_on,42,0,4,,,,,,,,,0,,,55,0
25980,note_on,0,0,4,,,,,,,,,0,,,50,0
25980,note_on,0,0,4,,,,,,,,,0,,,50,36
25980,control_change,0,0,4,,,,,,,,,0,64,127,,
26000,set_tempo,40,1,0,,,,,,777403,,,,,,,
26040,note_on,60,0,4,,,,,,,,,0,,,50,0
26040,note_on,0,0,4,,,,,,,,,0,,,55,45
26052,set_tempo,52,1,0,,,,,,772599,,,,,,,
26092,set_tempo,40,1,0,,,,,,767754,,,,,,,
26100,note_on,0,0,4,,,,,,,,,0,,,50,36
26100,note_on,60,0,4,,,,,,,,,0,,,55,0
26132,set_tempo,40,1,0,,,,,,762970,,,,,,,
26160,note_on,0,0,4,,,,,,,,,0,,,55,47
26160,note_on,60,0,4,,,,,,,,,0,,,50,0
26184,set_tempo,52,1,0,,,,,,758246,,,,,,,
26220,note_on,60,0,4,,,,,,,,,0,,,55,0
26220,note_on,0,0,4,,,,,,,,,0,,,50,37
26224,set_tempo,40,1,0,,,,,,753580,,,,,,,
26264,set_tempo,40,1,0,,,,,,748970,,,,,,,
26280,note_on,0,0,4,,,,,,,,,0,,,55,48
26280,note_on,60,0,4,,,,,,,,,0,,,50,0
26320,set_tempo,56,1,0,,,,,,744509,,,,,,,
26340,note_on,0,0,4,,,,,,,,,0,,,50,37
26340,note_on,60,0,4,,,,,,,,,0,,,55,0
26360,set_tempo,40,1,0,,,,,,740010,,,,,,,
26392,set_tempo,32,1,0,,,,,,727802,,,,,,,
26400,note_on,60,0,4,,,,,,,,,0,,,50,0
26400,note_on,0,0,4,,,,,,,,,0,,,55,49
26432,set_tempo,40,1,0,,,,,,723240,,,,,,,
26460,note_on,0,0,4,,,,,,,,,0,,,50,39
26460,note_on,60,0,4,,,,,,,,,0,,,55,0
26472,set_tempo,40,1,0,,,,,,718735,,,,,,,
26520,note_on,0,0,4,,,,,,,,,0,,,55,48
26520,note_on,60,0,4,,,,,,,,,0,,,50,0
26524,set_tempo,52,1,0,,,,,,723240,,,,,,,
26564,set_tempo,40,1,0,,,,,,727802,,,,,,,
26580,note_on,60,0,4,,,,,,,,,0,,,55,0
26580,note_on,0,0,4,,,,,,,,,0,,,50,38
26604,set_tempo,40,1,0,,,,,,727802,,,,,,,
26632,set_tempo,28,1,0,,,,,,723240,,,,,,,
26640,note_on,60,0,4,,,,,,,,,0,,,50,0
26640,note_on,0,0,4,,,,,,,,,0,,,55,47
26660,set_tempo,28,1,0,,,,,,718735,,,,,,,
26672,set_tempo,12,1,0,,,,,,714286,,,,,,,
26700,note_on,60,0,4,,,,,,,,,0,,,55,0
26700,note_on,0,0,4,,,,,,,,,0,,,50,37
26700,set_tempo,28,1,0,,,,,,709807,,,,,,,
26712,set_tempo,12,1,0,,,,,,709807,,,,,,,
26752,set_tempo,40,1,0,,,,,,714286,,,,,,,
26760,note_on,60,0,4,,,,,,,,,0,,,50,0
26760,note_on,0,0,4,,,,,,,,,0,,,55,46
26780,set_tempo,28,1,0,,,,,,718735,,,,,,,
26820,set_tempo,40,1,0,,,,,,723240,,,,,,,
26820,note_on,60,0,4,,,,,,,,,0,,,55,0
26820,note_on,0,0,4,,,,,,,,,0,,,50,36
26844,set_tempo,24,1,0,,,,,,727802,,,,,,,
26864,set_tempo,20,1,0,,,,,,740010,,,,,,,
26880,note_on,960,0,3,,,,,,,,,0,,,58,0
26880,note_on,0,0,4,,,,,,,,,0,,,54,45
26880,note_on,0,0,3,,,,,,,,,0,,,57,54
26880,note_on,60,0,4,,,,,,,,,0,,,50,0
26894,control_change,14,0,4,,,,,,,,,0,64,0,,
26923,control_change,29,0,4,,,,,,,,,0,64,127,,
26940,note_on,17,0,4,,,,,,,,,0,,,54,0
26940,note_on,0,0,4,,,,,,,,,0,,,50,36
26984,set_tempo,120,1,0,,,,,,744509,,,,,,,
27000,note_on,60,0,4,,,,,,,,,0,,,50,0
27000,note_on,0,0,4,,,,,,,,,0,,,54,45
27060,note_on,60,0,4,,,,,,,,,0,,,54,0
27060,note_on,0,0,4,,,,,,,,,0,,,50,36
27104,set_tempo,120,1,0,,,,,,748970,,,,,,,
27120,note_on,60,0,4,,,,,,,,,0,,,50,0
27120,note_on,0,0,4,,,,,,,,,0,,,54,45
27180,note_on,0,0,4,,,,,,,,,0,,,50,36
27180,note_on,60,0,4,,,,,,,,,0,,,54,0
27224,set_tempo,120,1,0,,,,,,753580,,,,,,,
27240,note_on,0,0,4,,,,,,,,,0,,,54,45
27240,note_on,60,0,4,,,,,,,,,0,,,50,0
27300,note_on,0,0,4,,,,,,,,,0,,,50,36
27300,set_tempo,76,1,0,,,,,,1147886,,,,,,,
27300,note_on,60,0,4,,,,,,,,,0,,,54,0
27320,note_on,20,0,4,,,,,,,,,0,,,50,0
27320,note_on,0,0,4,,,,,,,,,0,,,48,39
27340,note_on,20,0,4,,,,,,,,,0,,,51,54
27360,note_on,480,0,3,,,,,,,,,0,,,57,0
27360,note_on,0,0,3,,,,,,,,,0,,,57,63
27364,set_tempo,64,1,0,,,,,,761518,,,,,,,
27373,control_change,33,0,4,,,,,,,,,0,64,0,,
27404,set_tempo,40,1,0,,,,,,756525,,,,,,,
27413,control_change,40,0,4,,,,,,,,,0,64,127,,
27420,note_on,0,0,4,,,,,,,,,0,,,48,40
27420,note_on,0,0,4,,,,,,,,,0,,,48,0
27420,note_on,7,0,4,,,,,,,,,0,,,51,0
27432,set_tempo,28,1,0,,,,,,751597,,,,,,,
27460,set_tempo,28,1,0,,,,,,746733,,,,,,,
27480,note_on,60,0,4,,,,,,,,,0,,,48,0
27480,note_on,0,0,4,,,,,,,,,0,,,51,49
27484,set_tempo,24,1,0,,,,,,741931,,,,,,,
27512,set_tempo,28,1,0,,,,,,737101,,,,,,,
27540,note_on,60,0,4,,,,,,,,,0,,,51,0
27540,note_on,0,0,4,,,,,,,,,0,,,48,37
27540,set_tempo,28,1,0,,,,,,732422,,,,,,,
27592,set_tempo,52,1,0,,,,,,737101,,,,,,,
27600,note_on,60,0,4,,,,,,,,,0,,,48,0
27600,note_on,0,0,4,,,,,,,,,0,,,51,45
27632,set_tempo,40,1,0,,,,,,741931,,,,,,,
27660,note_on,0,0,4,,,,,,,,,0,,,48,50
27660,note_on,60,0,4,,,,,,,,,0,,,51,0
27672,set_tempo,40,1,0,,,,,,746733,,,,,,,
27712,set_tempo,40,1,0,,,,,,751597,,,,,,,
27720,note_on,0,0,4,,,,,,,,,0,,,51,38
27720,note_on,60,0,4,,,,,,,,,0,,,48,0
27752,set_tempo,40,1,0,,,,,,756525,,,,,,,
27772,set_tempo,20,1,0,,,,,,740010,,,,,,,
27780,note_on,60,0,4,,,,,,,,,0,,,51,0
27780,note_on,0,0,4,,,,,,,,,0,,,48,45
27780,set_tempo,8,1,0,,,,,,1116695,,,,,,,
27800,note_on,20,0,4,,,,,,,,,0,,,48,0
27800,note_on,0,0,4,,,,,,,,,0,,,46,44
27820,note_on,20,0,4,,,,,,,,,0,,,50,53
27832,set_tempo,52,1,0,,,,,,771803,,,,,,,
27840,note_on,480,0,3,,,,,,,,,0,,,57,0
27840,note_on,0,0,3,,,,,,,,,0,,,55,60
27850,control_change,30,0,4,,,,,,,,,0,64,0,,
27872,set_tempo,40,1,0,,,,,,766675,,,,,,,
27886,control_change,36,0,4,,,,,,,,,0,64,127,,
27900,note_on,14,0,4,,,,,,,,,0,,,50,0
27900,set_tempo,28,1,0,,,,,,761518,,,,,,,
27900,note_on,0,0,4,,,,,,,,,0,,,46,0
27900,note_on,0,0,4,,,,,,,,,0,,,46,38
27924,set_tempo,24,1,0,,,,,,756525,,,,,,,
27952,set_tempo,28,1,0,,,,,,751597,,,,,,,
27960,note_on,0,0,4,,,,,,,,,0,,,50,48
27960,note_on,60,0,4,,,,,,,,,0,,,46,0
27980,set_tempo,28,1,0,,,,,,746733,,,,,,,
28004,set_tempo,24,1,0,,,,,,741931,,,,,,,
28012,set_tempo,8,1,0,,,,,,735565,,,,,,,
28020,note_on,0,0,4,,,,,,,,,0,,,46,39
28020,note_on,60,0,4,,,,,,,,,0,,,50,0
28032,set_tempo,20,1,0,,,,,,737101,,,,,,,
28060,set_tempo,28,1,0,,,,,,741931,,,,,,,
28080,note_on,0,0,4,,,,,,,,,0,,,50,45
28080,note_on,60,0,4,,,,,,,,,0,,,46,0
28084,set_tempo,24,1,0,,,,,,746733,,,,,,,
28112,set_tempo,28,1,0,,,,,,751597,,,,,,,
28140,note_on,0,0,4,,,,,,,,,0,,,46,39
28140,set_tempo,28,1,0,,,,,,756525,,,,,,,
28140,note_on,60,0,4,,,,,,,,,0,,,50,0
28164,set_tempo,24,1,0,,,,,,761518,,,,,,,
28192,set_tempo,28,1,0,,,,,,766675,,,,,,,
28200,note_on,60,0,4,,,,,,,,,0,,,46,0
28200,note_on,0,0,4,,,,,,,,,0,,,50,49
28220,set_tempo,28,1,0,,,,,,771803,,,,,,,
28244,set_tempo,24,1,0,,,,,,777001,,,,,,,
28252,set_tempo,8,1,0,,,,,,753580,,,,,,,
28260,note_on,60,0,4,,,,,,,,,0,,,50,0
28260,note_on,0,0,4,,,,,,,,,0,,,46,45
28260,set_tempo,8,1,0,,,,,,1137441,,,,,,,
28280,note_on,20,0,4,,,,,,,,,0,,,46,0
28280,note_on,0,0,4,,,,,,,,,0,,,45,44
28300,note_on,20,0,4,,,,,,,,,0,,,50,53
28312,set_tempo,52,1,0,,,,,,777001,,,,,,,
28320,note_on,480,0,3,,,,,,,,,0,,,55,0
28320,note_on,0,0,3,,,,,,,,,0,,,54,60
28334,control_change,34,0,4,,,,,,,,,0,64,0,,
28352,set_tempo,40,1,0,,,,,,771803,,,,,,,
28373,control_change,39,0,4,,,,,,,,,0,64,127,,
28380,note_on,0,0,4,,,,,,,,,0,,,45,37
28380,note_on,0,0,4,,,,,,,,,0,,,45,0
28380,note_on,7,0,4,,,,,,,,,0,,,50,0
28392,set_tempo,40,1,0,,,,,,766675,,,,,,,
28432,set_tempo,40,1,0,,,,,,761518,,,,,,,
28440,note_on,60,0,4,,,,,,,,,0,,,45,0
28440,note_on,0,0,4,,,,,,,,,0,,,50,48
28472,set_tempo,40,1,0,,,,,,756525,,,,,,,
28500,note_on,60,0,4,,,,,,,,,0,,,50,0
28500,note_on,0,0,4,,,,,,,,,0,,,45,38
28512,set_tempo,40,1,0,,,,,,751597,,,,,,,
28540,set_tempo,28,1,0,,,,,,756525,,,,,,,
28560,note_on,0,0,4,,,,,,,,,0,,,50,47
28560,note_on,60,0,4,,,,,,,,,0,,,45,0
28564,set_tempo,24,1,0,,,,,,761518,,,,,,,
28592,set_tempo,28,1,0,,,,,,766675,,,,,,,
28620,note_on,60,0,4,,,,,,,,,0,,,50,0
28620,note_on,0,0,4,,,,,,,,,0,,,45,37
28620,set_tempo,28,1,0,,,,,,771803,,,,,,,
28644,set_tempo,24,1,0,,,,,,777001,,,,,,,
28672,set_tempo,28,1,0,,,,,,782269,,,,,,,
28680,note_on,60,0,4,,,,,,,,,0,,,45,0
28680,note_on,0,0,4,,,,,,,,,0,,,50,47
28700,set_tempo,28,1,0,,,,,,787608,,,,,,,
28724,set_tempo,24,1,0,,,,,,793021,,,,,,,
28732,set_tempo,8,1,0,,,,,,762970,,,,,,,
28740,set_tempo,8,1,0,,,,,,1742666,,,,,,,
28740,note_on,60,0,4,,,,,,,,,0,,,50,0
28740,note_on,0,0,4,,,,,,,,,0,,,45,36
28755,note_on,0,0,4,,,,,,,,,0,,,43,45
28755,note_on,15,0,4,,,,,,,,,0,,,45,0
28770,note_on,15,0,4,,,,,,,,,0,,,50,45
28784,set_tempo,44,1,0,,,,,,833333,,,,,,,
28785,note_on,15,0,4,,,,,,,,,0,,,58,45
28800,note_on,480,0,3,,,,,,,,,0,,,54,0
28800,set_tempo,16,1,0,,,,,,833333,,,,,,,
28800,control_change,15,0,4,,,,,,,,,0,64,0,,
28800,note_on,0,0,3,,,,,,,,,0,,,62,56
28844,set_tempo,44,1,0,,,,,,821355,,,,,,,
28860,note_on,0,0,4,,,,,,,,,0,,,55,36
28860,note_on,60,0,4,,,,,,,,,0,,,58,0
28878,control_change,18,0,4,,,,,,,,,0,64,127,,
28884,set_tempo,40,1,0,,,,,,815550,,,,,,,
28912,set_tempo,28,1,0,,,,,,809826,,,,,,,
28920,note_on,0,0,4,,,,,,,,,0,,,58,45
28920,note_on,42,0,4,,,,,,,,,0,,,55,0
28952,set_tempo,40,1,0,,,,,,804182,,,,,,,
28980,note_on,60,0,4,,,,,,,,,0,,,58,0
28980,note_on,0,0,4,,,,,,,,,0,,,55,35
28992,set_tempo,40,1,0,,,,,,798616,,,,,,,
29020,set_tempo,28,1,0,,,,,,793021,,,,,,,
29040,note_on,60,0,4,,,,,,,,,0,,,55,0
29040,note_on,0,0,4,,,,,,,,,0,,,58,45
29060,set_tempo,40,1,0,,,,,,787608,,,,,,,
29100,note_on,0,0,4,,,,,,,,,0,,,55,35
29100,note_on,60,0,4,,,,,,,,,0,,,58,0
29100,set_tempo,40,1,0,,,,,,782269,,,,,,,
29140,set_tempo,40,1,0,,,,,,777001,,,,,,,
29160,note_on,60,0,4,,,,,,,,,0,,,55,0
29160,note_on,0,0,4,,,,,,,,,0,,,58,45
29164,set_tempo,24,1,0,,,,,,771803,,,,,,,
29204,set_tempo,40,1,0,,,,,,766675,,,,,,,
29220,note_on,60,0,4,,,,,,,,,0,,,58,0
29220,note_on,0,0,4,,,,,,,,,0,,,55,35
29244,set_tempo,40,1,0,,,,,,761518,,,,,,,
29272,set_tempo,28,1,0,,,,,,745342,,,,,,,
29280,note_on,60,0,4,,,,,,,,,0,,,55,0
29280,note_on,0,0,4,,,,,,,,,0,,,58,46
29340,note_on,60,0,4,,,,,,,,,0,,,58,0
29340,set_tempo,68,1,0,,,,,,740741,,,,,,,
29340,note_on,0,0,4,,,,,,,,,0,,,55,37
29400,note_on,60,0,4,,,,,,,,,0,,,55,0
29400,note_on,0,0,4,,,,,,,,,0,,,58,46
29404,set_tempo,64,1,0,,,,,,736196,,,,,,,
29460,note_on,60,0,4,,,,,,,,,0,,,58,0
29460,note_on,0,0,4,,,,,,,,,0,,,55,37
29472,set_tempo,68,1,0,,,,,,731707,,,,,,,
29520,note_on,0,0,4,,,,,,,,,0,,,58,47
29520,note_on,60,0,4,,,,,,,,,0,,,55,0
29540,set_tempo,68,1,0,,,,,,727273,,,,,,,
29580,note_on,60,0,4,,,,,,,,,0,,,58,0
29580,note_on,0,0,4,,,,,,,,,0,,,55,37
29604,set_tempo,64,1,0,,,,,,722892,,,,,,,
29640,note_on,60,0,4,,,,,,,,,0,,,55,0
29640,note_on,0,0,4,,,,,,,,,0,,,58,47
29672,set_tempo,68,1,0,,,,,,718563,,,,,,,
29700,note_on,0,0,4,,,,,,,,,0,,,55,38
29700,note_on,60,0,4,,,,,,,,,0,,,58,0
29724,set_tempo,52,1,0,,,,,,710059,,,,,,,
29760,note_on,60,0,4,,,,,,,,,0,,,55,0
29760,note_on,0,0,4,,,,,,,,,0,,,58,47
29760,note_on,0,0,4,,,,,,,,,0,,,50,0
29775,note_on,15,0,4,,,,,,,,,0,,,43,0
29780,set_tempo,56,1,0,,,,,,714286,,,,,,,
29820,note_on,0,0,4,,,,,,,,,0,,,55,38
29820,note_on,45,0,4,,,,,,,,,0,,,58,0
29832,set_tempo,52,1,0,,,,,,718563,,,,,,,
29880,note_on,60,0,4,,,,,,,,,0,,,55,0
29880,note_on,0,0,4,,,,,,,,,0,,,58,48
29884,set_tempo,52,1,0,,,,,,722892,,,,,,,
29924,set_tempo,40,1,0,,,,,,727273,,,,,,,
29940,note_on,0,0,4,,,,,,,,,0,,,55,38
29940,note_on,60,0,4,,,,,,,,,0,,,58,0
29980,set_tempo,56,1,0,,,,,,731707,,,,,,,
30000,note_on,60,0,4,,,,,,,,,0,,,55,0
30000,note_on,0,0,4,,,,,,,,,0,,,58,48
30032,set_tempo,52,1,0,,,,,,736196,,,,,,,
30060,note_on,0,0,4,,,,,,,,,0,,,55,38
30060,note_on,60,0,4,,,,,,,,,0,,,58,0
30072,set_tempo,40,1,0,,,,,,740741,,,,,,,
30120,note_on,0,0,4,,,,,,,,,0,,,58,49
30120,note_on,60,0,4,,,,,,,,,0,,,55,0
30124,set_tempo,52,1,0,,,,,,745342,,,,,,,
30180,note_on,60,0,4,,,,,,,,,0,,,58,0
30180,note_on,0,0,4,,,,,,,,,0,,,55,39
30180,set_tempo,56,1,0,,,,,,750000,,,,,,,
30220,set_tempo,40,1,0,,,,,,754717,,,,,,,
30224,set_tempo,4,1,0,,,,,,758246,,,,,,,
30240,note_on,0,0,4,,,,,,,,,0,,,59,59
30240,note_on,1440,0,3,,,,,,,,,0,,,62,0
30240,note_on,60,0,4,,,,,,,,,0,,,55,0
30240,note_on,0,0,3,,,,,,,,,0,,,62,76
30252,set_tempo,28,1,0,,,,,,753580,,,,,,,
30253,control_change,13,0,4,,,,,,,,,0,64,0,,
30280,set_tempo,28,1,0,,,,,,748970,,,,,,,
30293,control_change,40,0,4,,,,,,,,,0,64,127,,
30300,note_on,0,0,4,,,,,,,,,0,,,55,44
30300,note_on,7,0,4,,,,,,,,,0,,,59,0
30304,set_tempo,24,1,0,,,,,,744509,,,,,,,
30332,set_tempo,28,1,0,,,,,,740010,,,,,,,
30360,note_on,0,0,4,,,,,,,,,0,,,59,53
30360,note_on,60,0,4,,,,,,,,,0,,,55,0
30360,set_tempo,28,1,0,,,,,,735565,,,,,,,
30372,set_tempo,12,1,0,,,,,,731261,,,,,,,
30420,note_on,60,0,4,,,,,,,,,0,,,59,0
30420,note_on,0,0,4,,,,,,,,,0,,,55,41
30480,note_on,0,0,4,,,,,,,,,0,,,59,49
30480,note_on,60,0,4,,,,,,,,,0,,,55,0
30540,note_on,60,0,4,,,,,,,,,0,,,59,0
30540,note_on,0,0,4,,,,,,,,,0,,,55,56
30544,set_tempo,172,1,0,,,,,,735565,,,,,,,
30600,note_on,0,0,4,,,,,,,,,0,,,59,42
30600,note_on,60,0,4,,,,,,,,,0,,,55,0
30624,set_tempo,80,1,0,,,,,,735565,,,,,,,
30652,set_tempo,28,1,0,,,,,,740010,,,,,,,
30660,note_on,0,0,4,,,,,,,,,0,,,55,50
30660,note_on,60,0,4,,,,,,,,,0,,,59,0
30680,set_tempo,28,1,0,,,,,,744509,,,,,,,
30704,set_tempo,24,1,0,,,,,,748970,,,,,,,
30720,note_on,0,0,3,,,,,,,,,0,,,63,81
30720,note_on,60,0,4,,,,,,,,,0,,,55,0
30720,set_tempo,16,1,0,,,,,,753580,,,,,,,
30720,note_on,0,0,4,,,,,,,,,0,,,60,66
30720,note_on,480,0,3,,,,,,,,,0,,,62,0
30730,control_change,10,0,4,,,,,,,,,0,64,0,,
30766,control_change,36,0,4,,,,,,,,,0,64,127,,
30772,set_tempo,52,1,0,,,,,,748970,,,,,,,
30780,note_on,0,0,4,,,,,,,,,0,,,55,49
30780,note_on,14,0,4,,,,,,,,,0,,,60,0
30812,set_tempo,40,1,0,,,,,,744509,,,,,,,
30840,note_on,0,0,4,,,,,,,,,0,,,60,59
30840,note_on,60,0,4,,,,,,,,,0,,,55,0
30852,set_tempo,40,1,0,,,,,,740010,,,,,,,
30892,set_tempo,40,1,0,,,,,,735565,,,,,,,
30900,note_on,60,0,4,,,,,,,,,0,,,60,0
30900,note_on,0,0,4,,,,,,,,,0,,,55,47
30960,note_on,0,0,4,,,,,,,,,0,,,60,56
30960,note_on,60,0,4,,,,,,,,,0,,,55,0
30960,set_tempo,68,1,0,,,,,,740010,,,,,,,
31012,set_tempo,52,1,0,,,,,,744509,,,,,,,
31020,note_on,60,0,4,,,,,,,,,0,,,60,0
31020,note_on,0,0,4,,,,,,,,,0,,,55,49
31080,note_on,0,0,4,,,,,,,,,0,,,60,56
31080,note_on,60,0,4,,,,,,,,,0,,,55,0
31080,set_tempo,68,1,0,,,,,,748970,,,,,,,
31132,set_tempo,52,1,0,,,,,,753580,,,,,,,
31140,note_on,0,0,4,,,,,,,,,0,,,55,52
31140,note_on,60,0,4,,,,,,,,,0,,,60,0
31184,set_tempo,52,1,0,,,,,,758246,,,,,,,
31200,note_on,0,0,4,,,,,,,,,0,,,58,68
31200,note_on,0,0,3,,,,,,,,,0,,,60,74
31200,note_on,0,0,3,,,,,,,,,0,,,63,74
31200,note_on,60,0,4,,,,,,,,,0,,,55,0
31200,note_on,480,0,3,,,,,,,,,0,,,63,0
31214,control_change,14,0,4,,,,,,,,,0,64,0,,
31240,set_tempo,56,1,0,,,,,,753580,,,,,,,
31253,control_change,39,0,4,,,,,,,,,0,64,127,,
31260,note_on,7,0,4,,,,,,,,,0,,,58,0
31260,note_on,0,0,4,,,,,,,,,0,,,54,49
31292,set_tempo,52,1,0,,,,,,748970,,,,,,,
31320,note_on,60,0,4,,,,,,,,,0,,,54,0
31320,note_on,0,0,4,,,,,,,,,0,,,58,62
31344,set_tempo,52,1,0,,,,,,744509,,,,,,,
31380,note_on,0,0,4,,,,,,,,,0,,,54,49
31380,note_on,60,0,4,,,,,,,,,0,,,58,0
31384,set_tempo,40,1,0,,,,,,740010,,,,,,,
31414,set_tempo,30,1,0,,,,,,736196,,,,,,,
31430,set_tempo,16,1,0,,,,,,740741,,,,,,,
31440,note_on,0,0,4,,,,,,,,,0,,,58,58
31440,note_on,60,0,4,,,,,,,,,0,,,54,0
31442,set_tempo,12,1,0,,,,,,745342,,,,,,,
31454,set_tempo,12,1,0,,,,,,754717,,,,,,,
31470,set_tempo,16,1,0,,,,,,759494,,,,,,,
31482,set_tempo,12,1,0,,,,,,764331,,,,,,,
31494,set_tempo,12,1,0,,,,,,774194,,,,,,,
31500,note_on,0,0,4,,,,,,,,,0,,,54,43
31500,note_on,60,0,4,,,,,,,,,0,,,58,0
31510,set_tempo,16,1,0,,,,,,779221,,,,,,,
31522,set_tempo,12,1,0,,,,,,789474,,,,,,,
31534,set_tempo,12,1,0,,,,,,805369,,,,,,,
31550,set_tempo,16,1,0,,,,,,827586,,,,,,,
31560,note_on,0,0,4,,,,,,,,,0,,,58,55
31560,note_on,60,0,4,,,,,,,,,0,,,54,0
31562,set_tempo,12,1,0,,,,,,851064,,,,,,,
31574,set_tempo,12,1,0,,,,,,875912,,,,,,,
31590,set_tempo,16,1,0,,,,,,902256,,,,,,,
31602,set_tempo,12,1,0,,,,,,923077,,,,,,,
31614,set_tempo,12,1,0,,,,,,952381,,,,,,,
31620,note_on,60,0,4,,,,,,,,,0,,,58,0
31620,note_on,0,0,4,,,,,,,,,0,,,54,45
31630,set_tempo,16,1,0,,,,,,983607,,,,,,,
31642,set_tempo,12,1,0,,,,,,1016949,,,,,,,
31654,set_tempo,12,1,0,,,,,,1052632,,,,,,,
31670,set_tempo,16,1,0,,,,,,769231,,,,,,,
31680,note_on,0,0,4,,,,,,,,,0,,,57,49
31680,note_on,0,0,3,,,,,,,,,0,,,60,0
31680,note_on,0,0,3,,,,,,,,,0,,,60,68
31680,note_on,480,0,3,,,,,,,,,0,,,63,0
31680,note_on,0,0,3,,,,,,,,,0,,,63,68
31680,note_on,60,0,4,,,,,,,,,0,,,54,0
31698,control_change,18,0,4,,,,,,,,,0,64,0,,
31710,set_tempo,40,1,0,,,,,,764331,,,,,,,
31740,note_on,0,0,4,,,,,,,,,0,,,53,36
31740,control_change,0,0,4,,,,,,,,,0,64,127,,
31740,note_on,42,0,4,,,,,,,,,0,,,57,0
31750,set_tempo,40,1,0,,,,,,759494,,,,,,,
31790,set_tempo,40,1,0,,,,,,754717,,,,,,,
31800,note_on,0,0,4,,,,,,,,,0,,,57,45
31800,note_on,60,0,4,,,,,,,,,0,,,53,0
31830,set_tempo,40,1,0,,,,,,750000,,,,,,,
31854,set_tempo,24,1,0,,,,,,745342,,,,,,,
31860,note_on,60,0,4,,,,,,,,,0,,,57,0
31860,note_on,0,0,4,,,,,,,,,0,,,53,35
31894,set_tempo,40,1,0,,,,,,740741,,,,,,,
31920,note_on,0,0,4,,,,,,,,,0,,,57,45
31920,note_on,60,0,4,,,,,,,,,0,,,53,0
31934,set_tempo,40,1,0,,,,,,736196,,,,,,,
31974,set_tempo,40,1,0,,,,,,731707,,,,,,,
31980,note_on,0,0,4,,,,,,,,,0,,,53,35
31980,note_on,60,0,4,,,,,,,,,0,,,57,0
32002,set_tempo,28,1,0,,,,,,727273,,,,,,,
32040,note_on,0,0,4,,,,,,,,,0,,,57,45
32040,note_on,60,0,4,,,,,,,,,0,,,53,0
32042,set_tempo,40,1,0,,,,,,722892,,,,,,,
32082,set_tempo,40,1,0,,,,,,718563,,,,,,,
32100,note_on,60,0,4,,,,,,,,,0,,,57,0
32100,note_on,0,0,4,,,,,,,,,0,,,53,35
32122,set_tempo,40,1,0,,,,,,714286,,,,,,,
32134,set_tempo,12,1,0,,,,,,714286,,,,,,,
32160,note_on,60,0,4,,,,,,,,,0,,,53,0
32160,note_on,0,0,4,,,,,,,,,0,,,57,45
32220,note_on,0,0,4,,,,,,,,,0,,,53,36
32220,note_on,60,0,4,,,,,,,,,0,,,57,0
32270,set_tempo,136,1,0,,,,,,718563,,,,,,,
32280,note_on,0,0,4,,,,,,,,,0,,,57,45
32280,note_on,60,0,4,,,,,,,,,0,,,53,0
32340,note_on,60,0,4,,,,,,,,,0,,,57,0
32340,note_on,0,0,4,,,,,,,,,0,,,53,36
32390,set_tempo,120,1,0,,,,,,722892,,,,,,,
32400,note_on,60,0,4,,,,,,,,,0,,,53,0
32400,note_on,0,0,4,,,,,,,,,0,,,57,45
32460,note_on,0,0,4,,,,,,,,,0,,,53,36
32460,note_on,60,0,4,,,,,,,,,0,,,57,0
32510,set_tempo,120,1,0,,,,,,727273,,,,,,,
32520,note_on,0,0,4,,,,,,,,,0,,,57,45
32520,note_on,60,0,4,,,,,,,,,0,,,53,0
32580,note_on,0,0,4,,,,,,,,,0,,,53,36
32580,note_on,60,0,4,,,,,,,,,0,,,57,0
32630,set_tempo,120,1,0,,,,,,731707,,,,,,,
32640,note_on,0,0,4,,,,,,,,,0,,,57,45
32640,note_on,60,0,4,,,,,,,,,0,,,53,0
32700,note_on,0,0,4,,,,,,,,,0,,,53,36
32700,note_on,60,0,4,,,,,,,,,0,,,57,0
32744,set_tempo,114,1,0,,,,,,744509,,,,,,,
32760,note_on,60,0,4,,,,,,,,,0,,,53,0
32760,note_on,0,0,4,,,,,,,,,0,,,57,45
32820,note_on,60,0,4,,,,,,,,,0,,,57,0
32820,note_on,0,0,4,,,,,,,,,0,,,53,37
32864,set_tempo,120,1,0,,,,,,748970,,,,,,,
32880,note_on,0,0,4,,,,,,,,,0,,,57,47
32880,note_on,60,0,4,,,,,,,,,0,,,53,0
32940,note_on,0,0,4,,,,,,,,,0,,,53,38
32940,note_on,60,0,4,,,,,,,,,0,,,57,0
32984,set_tempo,120,1,0,,,,,,753580,,,,,,,
33000,note_on,0,0,4,,,,,,,,,0,,,57,48
33000,note_on,60,0,4,,,,,,,,,0,,,53,0
33040,set_tempo,56,1,0,,,,,,761518,,,,,,,
33060,note_on,0,0,4,,,,,,,,,0,,,53,39
33060,note_on,60,0,4,,,,,,,,,0,,,57,0
33120,note_on,0,0,4,,,,,,,,,0,,,57,54
33120,note_on,0,0,3,,,,,,,,,0,,,60,63
33120,note_on,0,0,3,,,,,,,,,0,,,63,63
33120,note_on,0,0,3,,,,,,,,,0,,,60,0
33120,note_on,1440,0,3,,,,,,,,,0,,,63,0
33120,note_on,60,0,4,,,,,,,,,0,,,53,0
33132,set_tempo,92,1,0,,,,,,753580,,,,,,,
33133,control_change,13,0,4,,,,,,,,,0,64,0,,
33160,set_tempo,28,1,0,,,,,,748970,,,,,,,
33173,control_change,40,0,4,,,,,,,,,0,64,127,,
33180,note_on,0,0,4,,,,,,,,,0,,,54,40
33180,note_on,7,0,4,,,,,,,,,0,,,57,0
33184,set_tempo,24,1,0,,,,,,744509,,,,,,,
33212,set_tempo,28,1,0,,,,,,740010,,,,,,,
33240,note_on,60,0,4,,,,,,,,,0,,,54,0
33240,set_tempo,28,1,0,,,,,,735565,,,,,,,
33240,note_on,0,0,4,,,,,,,,,0,,,57,49
33252,set_tempo,12,1,0,,,,,,731261,,,,,,,
33300,note_on,0,0,4,,,,,,,,,0,,,54,37
33300,note_on,60,0,4,,,,,,,,,0,,,57,0
33360,note_on,0,0,4,,,,,,,,,0,,,57,45
33360,note_on,60,0,4,,,,,,,,,0,,,54,0
33420,note_on,60,0,4,,,,,,,,,0,,,57,0
33420,note_on,0,0,4,,,,,,,,,0,,,54,50
33424,set_tempo,172,1,0,,,,,,735565,,,,,,,
33480,note_on,0,0,4,,,,,,,,,0,,,57,38
33480,note_on,60,0,4,,,,,,,,,0,,,54,0
33504,set_tempo,80,1,0,,,,,,735565,,,,,,,
33532,set_tempo,28,1,0,,,,,,756525,,,,,,,
33540,note_on,0,0,4,,,,,,,,,0,,,54,45
33540,note_on,60,0,4,,,,,,,,,0,,,57,0
33600,note_on,0,0,4,,,,,,,,,0,,,58,53
33600,set_tempo,68,1,0,,,,,,753580,,,,,,,
33600,note_on,0,0,3,,,,,,,,,0,,,60,0
33600,note_on,0,0,3,,,,,,,,,0,,,62,60
33600,note_on,60,0,4,,,,,,,,,0,,,54,0
33600,note_on,480,0,3,,,,,,,,,0,,,63,0
33610,control_change,10,0,4,,,,,,,,,0,64,0,,
33646,control_change,36,0,4,,,,,,,,,0,64,127,,
33652,set_tempo,52,1,0,,,,,,748970,,,,,,,
33660,note_on,0,0,4,,,,,,,,,0,,,55,38
33660,note_on,14,0,4,,,,,,,,,0,,,58,0
33692,set_tempo,40,1,0,,,,,,744509,,,,,,,
33720,note_on,60,0,4,,,,,,,,,0,,,55,0
33720,note_on,0,0,4,,,,,,,,,0,,,58,48
33732,set_tempo,40,1,0,,,,,,740010,,,,,,,
33772,set_tempo,40,1,0,,,,,,735565,,,,,,,
33780,note_on,0,0,4,,,,,,,,,0,,,55,39
33780,note_on,60,0,4,,,,,,,,,0,,,58,0
33840,set_tempo,68,1,0,,,,,,740010,,,,,,,
33840,note_on,0,0,4,,,,,,,,,0,,,58,45
33840,note_on,60,0,4,,,,,,,,,0,,,55,0
33892,set_tempo,52,1,0,,,,,,744509,,,,,,,
33900,note_on,60,0,4,,,,,,,,,0,,,58,0
33900,note_on,0,0,4,,,,,,,,,0,,,55,39
33960,set_tempo,68,1,0,,,,,,748970,,,,,,,
33960,note_on,0,0,4,,,,,,,,,0,,,58,49
33960,note_on,60,0,4,,,,,,,,,0,,,55,0
33984,set_tempo,24,1,0,,,,,,751597,,,,,,,
34000,set_tempo,16,1,0,,,,,,756525,,,,,,,
34012,set_tempo,12,1,0,,,,,,766675,,,,,,,
34020,note_on,60,0,4,,,,,,,,,0,,,58,0
34020,note_on,0,0,4,,,,,,,,,0,,,55,45
34024,set_tempo,12,1,0,,,,,,777001,,,,,,,
34040,set_tempo,16,1,0,,,,,,782269,,,,,,,
34052,set_tempo,12,1,0,,,,,,793021,,,,,,,
34064,set_tempo,12,1,0,,,,,,804182,,,,,,,
34080,set_tempo,16,1,0,,,,,,772599,,,,,,,
34080,note_on,60,0,4,,,,,,,,,0,,,55,0
34080,note_on,0,0,4,,,,,,,,,0,,,56,53
34080,note_on,0,0,3,,,,,,,,,0,,,62,60
34080,note_on,480,0,3,,,,,,,,,0,,,62,0
34094,control_change,14,0,4,,,,,,,,,0,64,0,,
34120,set_tempo,40,1,0,,,,,,753580,,,,,,,
34133,control_change,39,0,4,,,,,,,,,0,64,127,,
34140,note_on,7,0,4,,,,,,,,,0,,,53,37
34160,note_on,20,0,4,,,,,,,,,0,,,56,0
34172,set_tempo,52,1,0,,,,,,748970,,,,,,,
34200,note_on,0,0,4,,,,,,,,,0,,,56,48
34200,note_on,40,0,4,,,,,,,,,0,,,53,0
34224,set_tempo,52,1,0,,,,,,744509,,,,,,,
34260,note_on,60,0,4,,,,,,,,,0,,,56,0
34260,note_on,0,0,4,,,,,,,,,0,,,53,38
34264,set_tempo,40,1,0,,,,,,740010,,,,,,,
34310,set_tempo,46,1,0,,,,,,736196,,,,,,,
34320,note_on,60,0,4,,,,,,,,,0,,,53,0
34320,note_on,0,0,4,,,,,,,,,0,,,56,47
34322,set_tempo,12,1,0,,,,,,740741,,,,,,,
34334,set_tempo,12,1,0,,,,,,750000,,,,,,,
34350,set_tempo,16,1,0,,,,,,759494,,,,,,,
34362,set_tempo,12,1,0,,,,,,769231,,,,,,,
34374,set_tempo,12,1,0,,,,,,779221,,,,,,,
34380,note_on,0,0,4,,,,,,,,,0,,,53,37
34380,note_on,60,0,4,,,,,,,,,0,,,56,0
34390,set_tempo,16,1,0,,,,,,784314,,,,,,,
34402,set_tempo,12,1,0,,,,,,794702,,,,,,,
34414,set_tempo,12,1,0,,,,,,805369,,,,,,,
34430,set_tempo,16,1,0,,,,,,816327,,,,,,,
34440,note_on,60,0,4,,,,,,,,,0,,,53,0
34440,note_on,0,0,4,,,,,,,,,0,,,56,47
34442,set_tempo,12,1,0,,,,,,827586,,,,,,,
34454,set_tempo,12,1,0,,,,,,839161,,,,,,,
34500,note_on,0,0,4,,,,,,,,,0,,,53,38
34500,note_on,60,0,4,,,,,,,,,0,,,56,0
34500,set_tempo,46,1,0,,,,,,1279863,,,,,,,
34520,note_on,20,0,4,,,,,,,,,0,,,53,0
34520,note_on,0,0,4,,,,,,,,,0,,,51,36
34540,note_on,20,0,4,,,,,,,,,0,,,55,49
34560,set_tempo,60,1,0,,,,,,772599,,,,,,,
34560,note_on,0,0,3,,,,,,,,,0,,,60,56
34560,note_on,480,0,3,,,,,,,,,0,,,62,0
34578,control_change,38,0,4,,,,,,,,,0,64,0,,
34600,set_tempo,40,1,0,,,,,,782371,,,,,,,
34620,note_on,42,0,4,,,,,,,,,0,,,55,0
34620,control_change,0,0,4,,,,,,,,,0,64,127,,
34620,note_on,0,0,4,,,,,,,,,0,,,51,0
34620,note_on,0,0,4,,,,,,,,,0,,,51,36
34640,set_tempo,40,1,0,,,,,,777403,,,,,,,
34680,note_on,60,0,4,,,,,,,,,0,,,51,0
34680,note_on,0,0,4,,,,,,,,,0,,,55,45
34692,set_tempo,52,1,0,,,,,,772599,,,,,,,
34732,set_tempo,40,1,0,,,,,,767754,,,,,,,
34740,note_on,60,0,4,,,,,,,,,0,,,55,0
34740,note_on,0,0,4,,,,,,,,,0,,,51,36
34772,set_tempo,40,1,0,,,,,,762970,,,,,,,
34800,note_on,60,0,4,,,,,,,,,0,,,51,0
34800,note_on,0,0,4,,,,,,,,,0,,,55,47
34824,set_tempo,52,1,0,,,,,,758246,,,,,,,
34860,note_on,0,0,4,,,,,,,,,0,,,51,37
34860,note_on,60,0,4,,,,,,,,,0,,,55,0
34864,set_tempo,40,1,0,,,,,,753580,,,,,,,
34904,set_tempo,40,1,0,,,,,,748970,,,,,,,
34920,note_on,0,0,4,,,,,,,,,0,,,55,48
34920,note_on,60,0,4,,,,,,,,,0,,,51,0
34960,set_tempo,56,1,0,,,,,,744509,,,,,,,
34980,note_on,0,0,4,,,,,,,,,0,,,51,37
34980,note_on,60,0,4,,,,,,,,,0,,,55,0
35000,set_tempo,40,1,0,,,,,,740010,,,,,,,
35040,note_on,0,0,4,,,,,,,,,0,,,55,49
35040,note_on,60,0,4,,,,,,,,,0,,,51,0
35040,set_tempo,40,1,0,,,,,,735565,,,,,,,
35100,note_on,60,0,4,,,,,,,,,0,,,55,0
35100,note_on,0,0,4,,,,,,,,,0,,,51,39
35160,note_on,0,0,4,,,,,,,,,0,,,55,50
35160,note_on,60,0,4,,,,,,,,,0,,,51,0
35220,note_on,60,0,4,,,,,,,,,0,,,55,0
35220,note_on,0,0,4,,,,,,,,,0,,,51,40
35280,note_on,60,0,4,,,,,,,,,0,,,51,0
35280,note_on,0,0,4,,,,,,,,,0,,,55,51
35340,note_on,60,0,4,,,,,,,,,0,,,55,0
35340,note_on,0,0,4,,,,,,,,,0,,,51,41
35400,note_on,0,0,4,,,,,,,,,0,,,55,52
35400,note_on,60,0,4,,,,,,,,,0,,,51,0
35460,note_on,0,0,4,,,,,,,,,0,,,51,42
35460,note_on,60,0,4,,,,,,,,,0,,,55,0
35504,set_tempo,464,1,0,,,,,,740010,,,,,,,
35520,note_on,0,0,4,,,,,,,,,0,,,55,54
35520,note_on,60,0,4,,,,,,,,,0,,,51,0
35580,note_on,0,0,4,,,,,,,,,0,,,51,43
35580,note_on,60,0,4,,,,,,,,,0,,,55,0
35624,set_tempo,120,1,0,,,,,,744509,,,,,,,
35640,note_on,60,0,4,,,,,,,,,0,,,51,0
35640,note_on,0,0,4,,,,,,,,,0,,,55,54
35700,note_on,60,0,4,,,,,,,,,0,,,55,0
35700,note_on,0,0,4,,,,,,,,,0,,,51,44
35744,set_tempo,120,1,0,,,,,,748970,,,,,,,
35760,note_on,60,0,4,,,,,,,,,0,,,51,0
35760,note_on,0,0,4,,,,,,,,,0,,,55,56
35820,note_on,60,0,4,,,,,,,,,0,,,55,0
35820,note_on,0,0,4,,,,,,,,,0,,,51,45
35864,set_tempo,120,1,0,,,,,,753580,,,,,,,
35880,note_on,0,0,4,,,,,,,,,0,,,55,57
35880,note_on,60,0,4,,,,,,,,,0,,,51,0
35924,set_tempo,60,1,0,,,,,,762970,,,,,,,
35940,note_on,60,0,4,,,,,,,,,0,,,55,0
35940,note_on,0,0,4,,,,,,,,,0,,,51,46
35952,set_tempo,28,1,0,,,,,,767754,,,,,,,
35980,set_tempo,28,1,0,,,,,,777001,,,,,,,
36000,note_on,1440,0,3,,,,,,,,,0,,,60,0
36000,note_on,0,0,3,,,,,,,,,0,,,61,81
36000,note_on,0,0,4,,,,,,,,,0,,,55,64
36000,note_on,60,0,4,,,,,,,,,0,,,51,0
36013,control_change,13,0,4,,,,,,,,,0,64,0,,
36020,set_tempo,40,1,0,,,,,,771803,,,,,,,
36053,control_change,40,0,4,,,,,,,,,0,64,127,,
36060,set_tempo,40,1,0,,,,,,766675,,,,,,,
36060,note_on,7,0,4,,,,,,,,,0,,,55,0
36060,note_on,0,0,4,,,,,,,,,0,,,52,44
36080,set_tempo,20,1,0,,,,,,761518,,,,,,,
36120,set_tempo,40,1,0,,,,,,756525,,,,,,,
36120,note_on,0,0,4,,,,,,,,,0,,,55,57
36120,note_on,60,0,4,,,,,,,,,0,,,52,0
36160,set_tempo,40,1,0,,,,,,751597,,,,,,,
36180,set_tempo,20,1,0,,,,,,746733,,,,,,,
36180,note_on,60,0,4,,,,,,,,,0,,,55,0
36180,note_on,0,0,4,,,,,,,,,0,,,52,40
36240,note_on,0,0,4,,,,,,,,,0,,,55,49
36240,note_on,60,0,4,,,,,,,,,0,,,52,0
36300,note_on,0,0,4,,,,,,,,,0,,,52,54
36300,note_on,60,0,4,,,,,,,,,0,,,55,0
36360,note_on,0,0,4,,,,,,,,,0,,,55,41
36360,note_on,60,0,4,,,,,,,,,0,,,52,0
36373,set_tempo,193,1,0,,,,,,751597,,,,,,,
36420,note_on,0,0,4,,,,,,,,,0,,,52,48
36420,note_on,60,0,4,,,,,,,,,0,,,55,0
36426,set_tempo,53,1,0,,,,,,756525,,,,,,,
36476,set_tempo,50,1,0,,,,,,761518,,,,,,,
36480,note_on,60,0,4,,,,,,,,,0,,,52,0
36480,note_on,0,0,4,,,,,,,,,0,,,55,58
36480,note_on,0,0,3,,,,,,,,,0,,,60,75
36480,set_tempo,4,1,0,,,,,,753580,,,,,,,
36480,note_on,480,0,3,,,,,,,,,0,,,61,0
36490,control_change,10,0,4,,,,,,,,,0,64,0,,
36526,control_change,36,0,4,,,,,,,,,0,64,127,,
36532,set_tempo,52,1,0,,,,,,748970,,,,,,,
36540,note_on,14,0,4,,,,,,,,,0,,,52,40
36560,note_on,20,0,4,,,,,,,,,0,,,55,0
36572,set_tempo,40,1,0,,,,,,744509,,,,,,,
36600,note_on,0,0,4,,,,,,,,,0,,,55,50
36600,note_on,40,0,4,,,,,,,,,0,,,52,0
36612,set_tempo,40,1,0,,,,,,740010,,,,,,,
36652,set_tempo,40,1,0,,,,,,735565,,,,,,,
36660,note_on,0,0,4,,,,,,,,,0,,,52,41
36660,note_on,60,0,4,,,,,,,,,0,,,55,0
36720,set_tempo,68,1,0,,,,,,740010,,,,,,,
36720,note_on,0,0,4,,,,,,,,,0,,,55,49
36720,note_on,60,0,4,,,,,,,,,0,,,52,0
36772,set_tempo,52,1,0,,,,,,744509,,,,,,,
36780,note_on,0,0,4,,,,,,,,,0,,,52,43
36780,note_on,60,0,4,,,,,,,,,0,,,55,0
36840,note_on,60,0,4,,,,,,,,,0,,,52,0
36840,set_tempo,68,1,0,,,,,,748970,,,,,,,
36840,note_on,0,0,4,,,,,,,,,0,,,55,51
36892,set_tempo,52,1,0,,,,,,753580,,,,,,,
36900,note_on,60,0,4,,,,,,,,,0,,,55,0
36900,set_tempo,8,1,0,,,,,,772599,,,,,,,
36900,note_on,0,0,4,,,,,,,,,0,,,52,46
36924,set_tempo,24,1,0,,,,,,777403,,,,,,,
36952,set_tempo,28,1,0,,,,,,782371,,,,,,,
36960,set_tempo,8,1,0,,,,,,772599,,,,,,,
36960,note_on,480,0,3,,,,,,,,,0,,,60,0
36960,note_on,0,0,3,,,,,,,,,0,,,58,68
36960,note_on,0,0,4,,,,,,,,,0,,,55,58
36960,note_on,60,0,4,,,,,,,,,0,,,52,0
36974,control_change,14,0,4,,,,,,,,,0,64,0,,
37000,set_tempo,40,1,0,,,,,,753580,,,,,,,
37013,control_change,39,0,4,,,,,,,,,0,64,127,,
37020,note_on,7,0,4,,,,,,,,,0,,,55,0
37020,note_on,0,0,4,,,,,,,,,0,,,52,38
37052,set_tempo,52,1,0,,,,,,748970,,,,,,,
37080,note_on,0,0,4,,,,,,,,,0,,,55,49
37080,note_on,60,0,4,,,,,,,,,0,,,52,0
37104,set_tempo,52,1,0,,,,,,744509,,,,,,,
37140,note_on,60,0,4,,,,,,,,,0,,,55,0
37140,note_on,0,0,4,,,,,,,,,0,,,52,39
37144,set_tempo,40,1,0,,,,,,740010,,,,,,,
37200,note_on,0,0,4,,,,,,,,,0,,,55,47
37200,note_on,60,0,4,,,,,,,,,0,,,52,0
37200,set_tempo,56,1,0,,,,,,744509,,,,,,,
37240,set_tempo,40,1,0,,,,,,748970,,,,,,,
37260,note_on,0,0,4,,,,,,,,,0,,,52,37
37260,note_on,60,0,4,,,,,,,,,0,,,55,0
37292,set_tempo,52,1,0,,,,,,753580,,,,,,,
37320,note_on,60,0,4,,,,,,,,,0,,,52,0
37320,note_on,0,0,4,,,,,,,,,0,,,55,47
37332,set_tempo,40,1,0,,,,,,758246,,,,,,,
37372,set_tempo,40,1,0,,,,,,762970,,,,,,,
37373,set_tempo,1,1,0,,,,,,756525,,,,,,,
37380,note_on,0,0,4,,,,,,,,,0,,,52,37
37380,note_on,60,0,4,,,,,,,,,0,,,55,0
37436,set_tempo,63,1,0,,,,,,761518,,,,,,,
37440,note_on,0,0,4,,,,,,,,,0,,,57,52
37440,note_on,0,0,3,,,,,,,,,0,,,60,68
37440,note_on,480,0,3,,,,,,,,,0,,,58,0
37440,note_on,60,0,4,,,,,,,,,0,,,52,0
37449,control_change,9,0,4,,,,,,,,,0,64,0,,
37460,set_tempo,24,1,0,,,,,,761518,,,,,,,
37474,control_change,25,0,4,,,,,,,,,0,64,127,,
37500,note_on,26,0,4,,,,,,,,,0,,,57,0
37500,note_on,0,0,4,,,,,,,,,0,,,53,42
37560,note_on,0,0,4,,,,,,,,,0,,,57,52
37560,note_on,60,0,4,,,,,,,,,0,,,53,0
37580,set_tempo,120,1,0,,,,,,756525,,,,,,,
37620,note_on,0,0,4,,,,,,,,,0,,,53,41
37620,note_on,60,0,4,,,,,,,,,0,,,57,0
37680,note_on,0,0,4,,,,,,,,,0,,,57,51
37680,note_on,60,0,4,,,,,,,,,0,,,53,0
37700,set_tempo,120,1,0,,,,,,751597,,,,,,,
37740,note_on,60,0,4,,,,,,,,,0,,,57,0
37740,note_on,0,0,4,,,,,,,,,0,,,53,38
37800,note_on,60,0,4,,,,,,,,,0,,,53,0
37800,note_on,0,0,4,,,,,,,,,0,,,57,50
37820,set_tempo,120,1,0,,,,,,746733,,,,,,,
37860,note_on,60,0,4,,,,,,,,,0,,,57,0
37860,note_on,0,0,4,,,,,,,,,0,,,53,41
37880,note_on,0,0,4,,,,,,,,,0,,,51,41
37880,note_on,20,0,4,,,,,,,,,0,,,53,0
37900,note_on,20,0,4,,,,,,,,,0,,,57,50
37920,set_tempo,100,1,0,,,,,,741931,,,,,,,
37920,note_on,0,0,3,,,,,,,,,0,,,65,72
37920,note_on,480,0,3,,,,,,,,,0,,,60,0
37980,note_on,0,0,4,,,,,,,,,0,,,51,0
37980,note_on,80,0,4,,,,,,,,,0,,,57,0
37980,note_on,0,0,4,,,,,,,,,0,,,51,43
38040,note_on,0,0,4,,,,,,,,,0,,,57,53
38040,note_on,60,0,4,,,,,,,,,0,,,51,0
38100,note_on,60,0,4,,,,,,,,,0,,,57,0
38100,note_on,0,0,4,,,,,,,,,0,,,51,49
38160,note_on,0,0,4,,,,,,,,,0,,,57,54
38160,note_on,60,0,4,,,,,,,,,0,,,51,0
38220,note_on,0,0,4,,,,,,,,,0,,,51,43
38220,note_on,60,0,4,,,,,,,,,0,,,57,0
38280,note_on,60,0,4,,,,,,,,,0,,,51,0
38280,note_on,0,0,4,,,,,,,,,0,,,57,50
38340,note_on,0,0,4,,,,,,,,,0,,,51,42
38340,set_tempo,420,1,0,,,,,,1161665,,,,,,,
38340,note_on,60,0,4,,,,,,,,,0,,,57,0
38360,note_on,0,0,4,,,,,,,,,0,,,50,45
38360,note_on,20,0,4,,,,,,,,,0,,,51,0
38380,note_on,20,0,4,,,,,,,,,0,,,58,52
38400,note_on,480,0,3,,,,,,,,,0,,,65,0
38400,note_on,0,0,3,,,,,,,,,0,,,65,71
38400,set_tempo,60,1,0,,,,,,746733,,,,,,,
38411,control_change,31,0,4,,,,,,,,,0,64,0,,
38460,note_on,0,0,4,,,,,,,,,0,,,50,0
38460,note_on,0,0,4,,,,,,,,,0,,,50,43
38460,note_on,49,0,4,,,,,,,,,0,,,58,0
38471,control_change,11,0,4,,,,,,,,,0,64,127,,
38520,note_on,0,0,4,,,,,,,,,0,,,58,52
38520,note_on,49,0,4,,,,,,,,,0,,,50,0
38580,note_on,0,0,4,,,,,,,,,0,,,50,43
38580,note_on,60,0,4,,,,,,,,,0,,,58,0
38640,note_on,60,0,4,,,,,,,,,0,,,50,0
38640,note_on,0,0,4,,,,,,,,,0,,,58,53
38700,note_on,0,0,4,,,,,,,,,0,,,50,44
38700,note_on,60,0,4,,,,,,,,,0,,,58,0
38760,note_on,60,0,4,,,,,,,,,0,,,50,0
38760,note_on,0,0,4,,,,,,,,,0,,,58,53
38820,set_tempo,420,1,0,,,,,,1055038,,,,,,,
38820,note_on,60,0,4,,,,,,,,,0,,,58,0
38820,note_on,0,0,4,,,,,,,,,0,,,50,44
38840,note_on,0,0,4,,,,,,,,,0,,,54,47
38840,note_on,20,0,4,,,,,,,,,0,,,50,0
38860,note_on,20,0,4,,,,,,,,,0,,,57,53
38880,note_on,0,0,3,,,,,,,,,0,,,60,74
38880,set_tempo,60,1,0,,,,,,746733,,,,,,,
38880,note_on,480,0,3,,,,,,,,,0,,,65,0
38891,control_change,31,0,4,,,,,,,,,0,64,0,,
38900,set_tempo,20,1,0,,,,,,746733,,,,,,,
38940,control_change,0,0,4,,,,,,,,,0,64,127,,
38940,note_on,49,0,4,,,,,,,,,0,,,57,0
38940,note_on,0,0,4,,,,,,,,,0,,,54,0
38940,note_on,0,0,4,,,,,,,,,0,,,54,44
38960,set_tempo,60,1,0,,,,,,741931,,,,,,,
39000,note_on,0,0,4,,,,,,,,,0,,,57,54
39000,set_tempo,40,1,0,,,,,,737101,,,,,,,
39000,note_on,60,0,4,,,,,,,,,0,,,54,0
39060,set_tempo,60,1,0,,,,,,732422,,,,,,,
39060,note_on,0,0,4,,,,,,,,,0,,,54,44
39060,note_on,60,0,4,,,,,,,,,0,,,57,0
39100,set_tempo,40,1,0,,,,,,727802,,,,,,,
39120,note_on,0,0,4,,,,,,,,,0,,,57,54
39120,note_on,60,0,4,,,,,,,,,0,,,54,0
39140,set_tempo,40,1,0,,,,,,732422,,,,,,,
39180,set_tempo,40,1,0,,,,,,737101,,,,,,,
39180,note_on,60,0,4,,,,,,,,,0,,,57,0
39180,note_on,0,0,4,,,,,,,,,0,,,54,45
39220,set_tempo,40,1,0,,,,,,741931,,,,,,,
39240,note_on,0,0,4,,,,,,,,,0,,,57,55
39240,note_on,60,0,4,,,,,,,,,0,,,54,0
39260,set_tempo,40,1,0,,,,,,746733,,,,,,,
39300,set_tempo,40,1,0,,,,,,1064774,,,,,,,
39300,note_on,0,0,4,,,,,,,,,0,,,54,45
39300,note_on,60,0,4,,,,,,,,,0,,,57,0
39320,note_on,20,0,4,,,,,,,,,0,,,54,0
39320,note_on,0,0,4,,,,,,,,,0,,,53,48
39340,note_on,20,0,4,,,,,,,,,0,,,58,55
39360,set_tempo,60,1,0,,,,,,756525,,,,,,,
39360,note_on,480,0,3,,,,,,,,,0,,,60,0
39360,note_on,0,0,3,,,,,,,,,0,,,62,75
39372,control_change,32,0,4,,,,,,,,,0,64,0,,
39400,set_tempo,40,1,0,,,,,,751597,,,,,,,
39420,note_on,48,0,4,,,,,,,,,0,,,58,0
39420,note_on,0,0,4,,,,,,,,,0,,,53,45
39420,note_on,0,0,4,,,,,,,,,0,,,53,0
39429,control_change,9,0,4,,,,,,,,,0,64,127,,
39460,set_tempo,60,1,0,,,,,,746733,,,,,,,
39480,note_on,51,0,4,,,,,,,,,0,,,53,0
39480,note_on,0,0,4,,,,,,,,,0,,,58,56
39520,set_tempo,60,1,0,,,,,,741931,,,,,,,
39540,note_on,0,0,4,,,,,,,,,0,,,53,45
39540,note_on,60,0,4,,,,,,,,,0,,,58,0
39580,set_tempo,60,1,0,,,,,,737101,,,,,,,
39600,note_on,60,0,4,,,,,,,,,0,,,53,0
39600,note_on,0,0,4,,,,,,,,,0,,,58,56
39620,set_tempo,40,1,0,,,,,,741931,,,,,,,
39640,set_tempo,20,1,0,,,,,,746733,,,,,,,
39660,note_on,0,0,4,,,,,,,,,0,,,53,46
39660,note_on,60,0,4,,,,,,,,,0,,,58,0
39660,set_tempo,20,1,0,,,,,,751597,,,,,,,
39680,set_tempo,20,1,0,,,,,,756525,,,,,,,
39700,set_tempo,20,1,0,,,,,,761518,,,,,,,
39720,note_on,0,0,4,,,,,,,,,0,,,58,57
39720,note_on,60,0,4,,,,,,,,,0,,,53,0
39780,note_on,0,0,4,,,,,,,,,0,,,53,47
39780,note_on,60,0,4,,,,,,,,,0,,,58,0
39780,set_tempo,80,1,0,,,,,,1150086,,,,,,,
39800,note_on,20,0,4,,,,,,,,,0,,,53,0
39800,note_on,0,0,4,,,,,,,,,0,,,51,49
39820,note_on,20,0,4,,,,,,,,,0,,,57,57
39840,set_tempo,60,1,0,,,,,,727802,,,,,,,
39840,note_on,480,0,3,,,,,,,,,0,,,62,0
39840,note_on,0,0,3,,,,,,,,,0,,,65,75
39900,note_on,0,0,4,,,,,,,,,0,,,51,0
39900,note_on,0,0,4,,,,,,,,,0,,,51,49
39900,note_on,80,0,4,,,,,,,,,0,,,57,0
39960,note_on,60,0,4,,,,,,,,,0,,,51,0
39960,note_on,0,0,4,,,,,,,,,0,,,57,58
40020,note_on,60,0,4,,,,,,,,,0,,,57,0
40020,note_on,0,0,4,,,,,,,,,0,,,51,48
40080,note_on,0,0,4,,,,,,,,,0,,,57,58
40080,note_on,60,0,4,,,,,,,,,0,,,51,0
40140,note_on,0,0,4,,,,,,,,,0,,,51,48
40140,note_on,60,0,4,,,,,,,,,0,,,57,0
40200,note_on,60,0,4,,,,,,,,,0,,,51,0
40200,note_on,0,0,4,,,,,,,,,0,,,57,59
40260,note_on,60,0,4,,,,,,,,,0,,,57,0
40260,note_on,0,0,4,,,,,,,,,0,,,51,48
40260,set_tempo,420,1,0,,,,,,1017639,,,,,,,
40280,note_on,20,0,4,,,,,,,,,0,,,51,0
40280,note_on,0,0,4,,,,,,,,,0,,,50,52
40300,note_on,20,0,4,,,,,,,,,0,,,58,59
40320,note_on,0,0,3,,,,,,,,,0,,,65,77
40320,note_on,480,0,3,,,,,,,,,0,,,65,0
40320,set_tempo,60,1,0,,,,,,723240,,,,,,,
40339,control_change,39,0,4,,,,,,,,,0,64,0,,
40356,control_change,17,0,4,,,,,,,,,0,64,127,,
40380,note_on,0,0,4,,,,,,,,,0,,,50,49
40380,note_on,24,0,4,,,,,,,,,0,,,58,0
40380,note_on,0,0,4,,,,,,,,,0,,,50,0
40420,set_tempo,100,1,0,,,,,,718735,,,,,,,
40440,note_on,0,0,4,,,,,,,,,0,,,58,58
40440,note_on,60,0,4,,,,,,,,,0,,,50,0
40500,note_on,60,0,4,,,,,,,,,0,,,58,0
40500,note_on,0,0,4,,,,,,,,,0,,,50,48
40520,set_tempo,100,1,0,,,,,,714286,,,,,,,
40560,note_on,0,0,4,,,,,,,,,0,,,58,58
40560,note_on,60,0,4,,,,,,,,,0,,,50,0
40620,set_tempo,100,1,0,,,,,,709807,,,,,,,
40620,note_on,60,0,4,,,,,,,,,0,,,58,0
40620,note_on,0,0,4,,,,,,,,,0,,,50,49
40680,note_on,0,0,4,,,,,,,,,0,,,58,58
40680,note_on,60,0,4,,,,,,,,,0,,,50,0
40720,set_tempo,100,1,0,,,,,,705467,,,,,,,
40740,note_on,0,0,4,,,,,,,,,0,,,50,49
40740,note_on,60,0,4,,,,,,,,,0,,,58,0
40800,note_on,0,0,4,,,,,,,,,0,,,58,58
40800,note_on,480,0,3,,,,,,,,,0,,,65,0
40800,set_tempo,80,1,0,,,,,,701180,,,,,,,
40800,note_on,60,0,4,,,,,,,,,0,,,50,0
40800,note_on,0,0,3,,,,,,,,,0,,,66,83
40810,control_change,10,0,4,,,,,,,,,0,64,0,,
40834,control_change,24,0,4,,,,,,,,,0,64,127,,
40860,note_on,26,0,4,,,,,,,,,0,,,58,0
40860,note_on,0,0,4,,,,,,,,,0,,,50,49
40900,set_tempo,100,1,0,,,,,,696945,,,,,,,
40920,note_on,60,0,4,,,,,,,,,0,,,50,0
40920,note_on,0,0,4,,,,,,,,,0,,,58,58
40960,set_tempo,60,1,0,,,,,,701180,,,,,,,
40980,note_on,60,0,4,,,,,,,,,0,,,58,0
40980,note_on,0,0,4,,,,,,,,,0,,,50,49
41000,set_tempo,40,1,0,,,,,,705467,,,,,,,
41040,note_on,60,0,4,,,,,,,,,0,,,50,0
41040,set_tempo,40,1,0,,,,,,709807,,,,,,,
41040,note_on,0,0,4,,,,,,,,,0,,,58,58
41080,set_tempo,40,1,0,,,,,,714286,,,,,,,
41100,note_on,0,0,4,,,,,,,,,0,,,50,50
41100,note_on,60,0,4,,,,,,,,,0,,,58,0
41120,set_tempo,40,1,0,,,,,,718735,,,,,,,
41160,note_on,60,0,4,,,,,,,,,0,,,50,0
41160,note_on,0,0,4,,,,,,,,,0,,,58,58
41220,note_on,0,0,4,,,,,,,,,0,,,50,51
41220,note_on,60,0,4,,,,,,,,,0,,,58,0
41220,set_tempo,100,1,0,,,,,,895522,,,,,,,
41240,note_on,0,0,4,,,,,,,,,0,,,51,54
41240,note_on,20,0,4,,,,,,,,,0,,,50,0
41260,note_on,20,0,4,,,,,,,,,0,,,58,59
41280,set_tempo,60,1,0,,,,,,737101,,,,,,,
41280,note_on,480,0,3,,,,,,,,,0,,,66,0
41280,note_on,0,0,3,,,,,,,,,0,,,67,81
41290,control_change,30,0,4,,,,,,,,,0,64,0,,
41308,control_change,18,0,4,,,,,,,,,0,64,127,,
41340,note_on,0,0,4,,,,,,,,,0,,,51,51
41340,note_on,0,0,4,,,,,,,,,0,,,51,0
41340,note_on,32,0,4,,,,,,,,,0,,,58,0
41380,set_tempo,100,1,0,,,,,,732422,,,,,,,
41400,note_on,60,0,4,,,,,,,,,0,,,51,0
41400,note_on,0,0,4,,,,,,,,,0,,,58,59
41460,note_on,0,0,4,,,,,,,,,0,,,51,51
41460,note_on,60,0,4,,,,,,,,,0,,,58,0
41480,set_tempo,100,1,0,,,,,,727802,,,,,,,
41520,note_on,60,0,4,,,,,,,,,0,,,51,0
41520,note_on,0,0,4,,,,,,,,,0,,,58,58
41580,note_on,60,0,4,,,,,,,,,0,,,58,0
41580,note_on,0,0,4,,,,,,,,,0,,,51,51
41580,set_tempo,100,1,0,,,,,,723240,,,,,,,
41640,note_on,60,0,4,,,,,,,,,0,,,51,0
41640,note_on,0,0,4,,,,,,,,,0,,,58,60
41660,set_tempo,80,1,0,,,,,,718735,,,,,,,
41700,note_on,60,0,4,,,,,,,,,0,,,58,0
41700,note_on,0,0,4,,,,,,,,,0,,,51,52
41760,note_on,60,0,4,,,,,,,,,0,,,51,0
41760,note_on,0,0,4,,,,,,,,,0,,,61,61
41760,note_on,0,0,4,,,,,,,,,0,,,58,61
41760,note_on,0,0,3,,,,,,,,,0,,,67,84
41760,note_on,480,0,3,,,,,,,,,0,,,67,0
41766,control_change,6,0,4,,,,,,,,,0,64,0,,
41792,control_change,26,0,4,,,,,,,,,0,64,127,,
41820,note_on,0,0,4,,,,,,,,,0,,,61,0
41820,note_on,0,0,4,,,,,,,,,0,,,52,53
41820,note_on,28,0,4,,,,,,,,,0,,,58,0
41860,set_tempo,200,1,0,,,,,,723240,,,,,,,
41880,note_on,60,0,4,,,,,,,,,0,,,52,0
41880,note_on,0,0,4,,,,,,,,,0,,,61,62
41880,note_on,0,0,4,,,,,,,,,0,,,58,62
41940,note_on,0,0,4,,,,,,,,,0,,,52,53
41940,note_on,60,0,4,,,,,,,,,0,,,58,0
41940,note_on,0,0,4,,,,,,,,,0,,,61,0
42000,note_on,0,0,4,,,,,,,,,0,,,61,63
42000,note_on,60,0,4,,,,,,,,,0,,,52,0
42000,note_on,0,0,4,,,,,,,,,0,,,58,63
42060,set_tempo,200,1,0,,,,,,727802,,,,,,,
42060,note_on,0,0,4,,,,,,,,,0,,,52,53
42060,note_on,60,0,4,,,,,,,,,0,,,58,0
42060,note_on,0,0,4,,,,,,,,,0,,,61,0
42120,note_on,0,0,4,,,,,,,,,0,,,61,64
42120,note_on,60,0,4,,,,,,,,,0,,,52,0
42120,note_on,0,0,4,,,,,,,,,0,,,58,64
42180,note_on,60,0,4,,,,,,,,,0,,,58,0
42180,note_on,0,0,4,,,,,,,,,0,,,52,54
42180,set_tempo,120,1,0,,,,,,912686,,,,,,,
42180,note_on,0,0,4,,,,,,,,,0,,,61,0
42220,set_tempo,40,1,0,,,,,,737101,,,,,,,
42240,note_on,60,0,4,,,,,,,,,0,,,52,0
42240,note_on,27720,0,1,,,,,,,,,0,,,70,84
42240,note_on,480,0,3,,,,,,,,,0,,,67,0
42240,note_on,0,0,2,,,,,,,,,0,,,64,66
42240,note_on,42240,0,2,,,,,,,,,0,,,61,66
42251,control_change,11,0,4,,,,,,,,,0,64,0,,
42253,control_change,2,0,4,,,,,,,,,0,64,127,,
42300,note_on,0,0,2,,,,,,,,,0,,,61,0
42300,note_on,60,0,2,,,,,,,,,0,,,64,0
42300,note_on,0,0,2,,,,,,,,,0,,,55,56
42360,note_on,0,0,2,,,,,,,,,0,,,61,66
42360,note_on,0,0,2,,,,,,,,,0,,,64,66
42360,note_on,60,0,2,,,,,,,,,0,,,55,0
42420,note_on,0,0,2,,,,,,,,,0,,,61,0
42420,note_on,0,0,2,,,,,,,,,0,,,55,56
42420,note_on,60,0,2,,,,,,,,,0,,,64,0
42480,note_on,0,0,2,,,,,,,,,0,,,64,67
42480,note_on,60,0,2,,,,,,,,,0,,,55,0
42480,set_tempo,260,1,0,,,,,,732422,,,,,,,
42480,note_on,0,0,2,,,,,,,,,0,,,61,67
42500,set_tempo,20,1,0,,,,,,727273,,,,,,,
42540,note_on,0,0,2,,,,,,,,,0,,,55,57
42540,note_on,0,0,2,,,,,,,,,0,,,61,0
42540,note_on,60,0,2,,,,,,,,,0,,,64,0
42560,set_tempo,60,1,0,,,,,,722892,,,,,,,
42600,note_on,0,0,2,,,,,,,,,0,,,64,67
42600,set_tempo,40,1,0,,,,,,718563,,,,,,,
42600,note_on,0,0,2,,,,,,,,,0,,,61,67
42600,note_on,60,0,2,,,,,,,,,0,,,55,0
42640,set_tempo,40,1,0,,,,,,714286,,,,,,,
42660,note_on,0,0,2,,,,,,,,,0,,,61,0
42660,note_on,60,0,2,,,,,,,,,0,,,64,0
42660,note_on,0,0,2,,,,,,,,,0,,,55,57
42680,set_tempo,40,1,0,,,,,,710059,,,,,,,
42720,note_on,480,0,1,,,,,,,,,0,,,70,0
42720,note_on,0,0,2,,,,,,,,,0,,,64,67
42720,note_on,0,0,2,,,,,,,,,0,,,67,67
42720,set_tempo,40,1,0,,,,,,705882,,,,,,,
42720,note_on,0,0,1,,,,,,,,,0,,,73,87
42720,note_on,60,0,2,,,,,,,,,0,,,55,0
42732,control_change,479,0,4,,,,,,,,,0,64,0,,
42740,set_tempo,20,1,0,,,,,,727802,,,,,,,
42764,control_change,32,0,4,,,,,,,,,0,64,127,,
42780,note_on,0,0,2,,,,,,,,,0,,,64,0
42780,note_on,60,0,2,,,,,,,,,0,,,67,0
42780,note_on,0,0,2,,,,,,,,,0,,,58,58
42820,set_tempo,80,1,0,,,,,,732422,,,,,,,
42840,note_on,0,0,2,,,,,,,,,0,,,67,68
42840,note_on,60,0,2,,,,,,,,,0,,,58,0
42840,note_on,0,0,2,,,,,,,,,0,,,64,68
42880,set_tempo,60,1,0,,,,,,737101,,,,,,,
42900,note_on,0,0,2,,,,,,,,,0,,,64,0
42900,note_on,0,0,2,,,,,,,,,0,,,58,57
42900,note_on,60,0,2,,,,,,,,,0,,,67,0
42940,set_tempo,60,1,0,,,,,,741931,,,,,,,
42960,note_on,0,0,2,,,,,,,,,0,,,64,69
42960,note_on,60,0,2,,,,,,,,,0,,,58,0
42960,note_on,0,0,2,,,,,,,,,0,,,67,69
43020,note_on,60,0,2,,,,,,,,,0,,,67,0
43020,set_tempo,80,1,0,,,,,,746733,,,,,,,
43020,note_on,0,0,2,,,,,,,,,0,,,64,0
43020,note_on,0,0,2,,,,,,,,,0,,,58,63
43080,note_on,0,0,2,,,,,,,,,0,,,67,72
43080,note_on,0,0,2,,,,,,,,,0,,,64,72
43080,set_tempo,60,1,0,,,,,,751597,,,,,,,
43080,note_on,60,0,2,,,,,,,,,0,,,58,0
43100,set_tempo,20,1,0,,,,,,745342,,,,,,,
43120,set_tempo,20,1,0,,,,,,764331,,,,,,,
43140,note_on,0,0,2,,,,,,,,,0,,,64,0
43140,note_on,60,0,2,,,,,,,,,0,,,67,0
43140,set_tempo,20,1,0,,,,,,784314,,,,,,,
43140,note_on,0,0,2,,,,,,,,,0,,,58,57
43160,set_tempo,20,1,0,,,,,,805369,,,,,,,
43180,set_tempo,20,1,0,,,,,,827586,,,,,,,
43200,note_on,0,0,1,,,,,,,,,0,,,74,90
43200,note_on,480,0,1,,,,,,,,,0,,,73,0
43200,set_tempo,20,1,0,,,,,,751597,,,,,,,
43200,note_on,60,0,2,,,,,,,,,0,,,58,0
43200,control_change,436,0,4,,,,,,,,,0,64,0,,
43200,note_on,0,0,2,,,,,,,,,0,,,65,72
43260,note_on,0,0,2,,,,,,,,,0,,,58,58
43260,note_on,60,0,2,,,,,,,,,0,,,65,0
43274,control_change,74,0,4,,,,,,,,,0,64,127,,
43280,set_tempo,80,1,0,,,,,,746733,,,,,,,
43320,note_on,60,0,2,,,,,,,,,0,,,58,0
43320,note_on,0,0,2,,,,,,,,,0,,,65,70
43340,set_tempo,60,1,0,,,,,,741931,,,,,,,
43380,note_on,60,0,2,,,,,,,,,0,,,65,0
43380,note_on,0,0,2,,,,,,,,,0,,,58,58
43400,set_tempo,60,1,0,,,,,,737101,,,,,,,
43440,note_on,0,0,2,,,,,,,,,0,,,65,70
43440,note_on,60,0,2,,,,,,,,,0,,,58,0
43460,set_tempo,60,1,0,,,,,,732422,,,,,,,
43500,note_on,0,0,2,,,,,,,,,0,,,58,59
43500,note_on,60,0,2,,,,,,,,,0,,,65,0
43560,note_on,0,0,2,,,,,,,,,0,,,65,71
43560,note_on,60,0,2,,,,,,,,,0,,,58,0
43620,note_on,0,0,2,,,,,,,,,0,,,58,58
43620,note_on,60,0,2,,,,,,,,,0,,,65,0
43680,note_on,0,0,2,,,,,,,,,0,,,62,70
43680,note_on,60,0,2,,,,,,,,,0,,,58,0
43680,note_on,480,0,1,,,,,,,,,0,,,74,0
43680,note_on,0,0,1,,,,,,,,,0,,,70,83
43700,set_tempo,240,1,0,,,,,,737101,,,,,,,
43740,note_on,0,0,2,,,,,,,,,0,,,53,58
43740,note_on,60,0,2,,,,,,,,,0,,,62,0
43800,note_on,0,0,2,,,,,,,,,0,,,62,69
43800,note_on,60,0,2,,,,,,,,,0,,,53,0
43860,note_on,0,0,2,,,,,,,,,0,,,53,57
43860,note_on,60,0,2,,,,,,,,,0,,,62,0
43920,note_on,60,0,2,,,,,,,,,0,,,53,0
43920,note_on,0,0,2,,,,,,,,,0,,,62,68
43980,note_on,60,0,2,,,,,,,,,0,,,62,0
43980,note_on,0,0,2,,,,,,,,,0,,,53,56
44040,note_on,0,0,2,,,,,,,,,0,,,62,67
44040,note_on,60,0,2,,,,,,,,,0,,,53,0
44100,note_on,0,0,2,,,,,,,,,0,,,53,56
44100,note_on,60,0,2,,,,,,,,,0,,,62,0
44120,set_tempo,420,1,0,,,,,,727802,,,,,,,
44160,note_on,60,0,2,,,,,,,,,0,,,53,0
44160,note_on,886,0,4,,,,,,,,,0,,,58,63
44160,note_on,480,0,1,,,,,,,,,0,,,70,0
44160,note_on,1920,0,3,,,,,,,,,0,,,65,78
44177,control_change,17,0,4,,,,,,,,,0,64,0,,
44217,control_change,40,0,4,,,,,,,,,0,64,127,,
44220,note_on,3,0,4,,,,,,,,,0,,,58,0
44220,set_tempo,100,1,0,,,,,,732422,,,,,,,
44220,note_on,0,0,4,,,,,,,,,0,,,50,52
44280,note_on,0,0,4,,,,,,,,,0,,,58,62
44280,note_on,60,0,4,,,,,,,,,0,,,50,0
44300,set_tempo,80,1,0,,,,,,737101,,,,,,,
44340,note_on,0,0,4,,,,,,,,,0,,,50,51
44340,note_on,60,0,4,,,,,,,,,0,,,58,0
44380,set_tempo,80,1,0,,,,,,741931,,,,,,,
44400,note_on,60,0,4,,,,,,,,,0,,,50,0
44400,note_on,0,0,4,,,,,,,,,0,,,58,62
44460,note_on,0,0,4,,,,,,,,,0,,,50,51
44460,note_on,60,0,4,,,,,,,,,0,,,58,0
44480,set_tempo,100,1,0,,,,,,746733,,,,,,,
44520,note_on,0,0,4,,,,,,,,,0,,,58,61
44520,note_on,60,0,4,,,,,,,,,0,,,50,0
44560,set_tempo,80,1,0,,,,,,751597,,,,,,,
44580,note_on,0,0,4,,,,,,,,,0,,,50,50
44580,note_on,60,0,4,,,,,,,,,0,,,58,0
44620,set_tempo,60,1,0,,,,,,746733,,,,,,,
44629,control_change,49,0,4,,,,,,,,,0,64,0,,
44640,note_on,0,0,4,,,,,,,,,0,,,59,60
44640,note_on,11,0,4,,,,,,,,,0,,,50,0
44663,control_change,23,0,4,,,,,,,,,0,64,127,,
44680,set_tempo,60,1,0,,,,,,741931,,,,,,,
44700,note_on,0,0,4,,,,,,,,,0,,,50,49
44700,note_on,37,0,4,,,,,,,,,0,,,59,0
44720,set_tempo,40,1,0,,,,,,737101,,,,,,,
44760,note_on,60,0,4,,,,,,,,,0,,,50,0
44760,set_tempo,40,1,0,,,,,,732422,,,,,,,
44760,note_on,0,0,4,,,,,,,,,0,,,59,60
44800,set_tempo,40,1,0,,,,,,727802,,,,,,,
44820,note_on,60,0,4,,,,,,,,,0,,,59,0
44820,note_on,0,0,4,,,,,,,,,0,,,50,49
44840,set_tempo,40,1,0,,,,,,723240,,,,,,,
44860,set_tempo,20,1,0,,,,,,723240,,,,,,,
44880,note_on,0,0,4,,,,,,,,,0,,,59,59
44880,note_on,60,0,4,,,,,,,,,0,,,50,0
44900,set_tempo,40,1,0,,,,,,727802,,,,,,,
44920,set_tempo,20,1,0,,,,,,732422,,,,,,,
44940,note_on,60,0,4,,,,,,,,,0,,,59,0
44940,note_on,0,0,4,,,,,,,,,0,,,50,49
44940,set_tempo,20,1,0,,,,,,737101,,,,,,,
44960,set_tempo,20,1,0,,,,,,741931,,,,,,,
44980,set_tempo,20,1,0,,,,,,746733,,,,,,,
45000,note_on,60,0,4,,,,,,,,,0,,,50,0
45000,note_on,0,0,4,,,,,,,,,0,,,59,58
45060,set_tempo,80,1,0,,,,,,864678,,,,,,,
45060,note_on,60,0,4,,,,,,,,,0,,,59,0
45060,note_on,0,0,4,,,,,,,,,0,,,50,48
45100,set_tempo,40,1,0,,,,,,756525,,,,,,,
45120,note_on,0,0,3,,,,,,,,,0,,,65,71
45120,note_on,960,0,3,,,,,,,,,0,,,65,0
45120,note_on,60,0,4,,,,,,,,,0,,,50,0
45120,note_on,0,0,4,,,,,,,,,0,,,60,58
45135,control_change,15,0,4,,,,,,,,,0,64,0,,
45171,control_change,36,0,4,,,,,,,,,0,64,127,,
45180,note_on,9,0,4,,,,,,,,,0,,,60,0
45180,note_on,0,0,4,,,,,,,,,0,,,51,48
45200,set_tempo,100,1,0,,,,,,751597,,,,,,,
45240,note_on,60,0,4,,,,,,,,,0,,,51,0
45240,note_on,0,0,4,,,,,,,,,0,,,60,57
45280,set_tempo,80,1,0,,,,,,746733,,,,,,,
45300,note_on,60,0,4,,,,,,,,,0,,,60,0
45300,note_on,0,0,4,,,,,,,,,0,,,51,47
45360,note_on,60,0,4,,,,,,,,,0,,,51,0
45360,note_on,0,0,4,,,,,,,,,0,,,60,56
45360,set_tempo,80,1,0,,,,,,751597,,,,,,,
45420,note_on,0,0,4,,,,,,,,,0,,,51,46
45420,note_on,60,0,4,,,,,,,,,0,,,60,0
45440,set_tempo,80,1,0,,,,,,756525,,,,,,,
45480,note_on,0,0,4,,,,,,,,,0,,,60,56
45480,note_on,60,0,4,,,,,,,,,0,,,51,0
45520,set_tempo,80,1,0,,,,,,761518,,,,,,,
45540,note_on,0,0,4,,,,,,,,,0,,,51,46
45540,note_on,60,0,4,,,,,,,,,0,,,60,0
45600,note_on,60,0,4,,,,,,,,,0,,,51,0
45600,set_tempo,80,1,0,,,,,,754717,,,,,,,
45600,note_on,0,0,4,,,,,,,,,0,,,57,56
45660,note_on,0,0,4,,,,,,,,,0,,,48,45
45660,note_on,60,0,4,,,,,,,,,0,,,57,0
45680,set_tempo,80,1,0,,,,,,759494,,,,,,,
45720,note_on,0,0,4,,,,,,,,,0,,,57,55
45720,note_on,60,0,4,,,,,,,,,0,,,48,0
45740,set_tempo,60,1,0,,,,,,764331,,,,,,,
45780,note_on,0,0,4,,,,,,,,,0,,,48,45
45780,note_on,60,0,4,,,,,,,,,0,,,57,0
45800,set_tempo,60,1,0,,,,,,769231,,,,,,,
45840,note_on,0,0,4,,,,,,,,,0,,,57,54
45840,note_on,60,0,4,,,,,,,,,0,,,48,0
45880,set_tempo,80,1,0,,,,,,774194,,,,,,,
45900,note_on,0,0,4,,,,,,,,,0,,,48,44
45900,note_on,60,0,4,,,,,,,,,0,,,57,0
45940,set_tempo,60,1,0,,,,,,779221,,,,,,,
45960,note_on,0,0,4,,,,,,,,,0,,,57,53
45960,note_on,60,0,4,,,,,,,,,0,,,48,0
46000,set_tempo,60,1,0,,,,,,784314,,,,,,,
46020,note_on,0,0,4,,,,,,,,,0,,,48,44
46020,note_on,60,0,4,,,,,,,,,0,,,57,0
46044,set_tempo,44,1,0,,,,,,833333,,,,,,,
46080,note_on,0,0,3,,,,,,,,,0,,,58,56
46080,note_on,0,0,4,,,,,,,,,0,,,50,45
46080,note_on,0,0,3,,,,,,,,,0,,,46,56
46080,note_on,60,0,4,,,,,,,,,0,,,48,0
46080,set_tempo,36,1,0,,,,,,772599,,,,,,,
46080,note_on,960,0,3,,,,,,,,,0,,,65,0
46090,control_change,10,0,4,,,,,,,,,0,64,0,,
46120,set_tempo,40,1,0,,,,,,782371,,,,,,,
46140,note_on,0,0,4,,,,,,,,,0,,,53,36
46140,control_change,0,0,4,,,,,,,,,0,64,127,,
46140,note_on,50,0,4,,,,,,,,,0,,,50,0
46160,set_tempo,40,1,0,,,,,,777403,,,,,,,
46200,note_on,60,0,4,,,,,,,,,0,,,53,0
46200,note_on,0,0,4,,,,,,,,,0,,,50,45
46212,set_tempo,52,1,0,,,,,,772599,,,,,,,
46252,set_tempo,40,1,0,,,,,,767754,,,,,,,
46260,note_on,60,0,4,,,,,,,,,0,,,50,0
46260,note_on,0,0,4,,,,,,,,,0,,,53,36
46292,set_tempo,40,1,0,,,,,,762970,,,,,,,
46320,note_on,60,0,4,,,,,,,,,0,,,53,0
46320,note_on,0,0,4,,,,,,,,,0,,,50,47
46344,set_tempo,52,1,0,,,,,,758246,,,,,,,
46380,note_on,60,0,4,,,,,,,,,0,,,50,0
46380,note_on,0,0,4,,,,,,,,,0,,,53,38
46384,set_tempo,40,1,0,,,,,,753580,,,,,,,
46424,set_tempo,40,1,0,,,,,,748970,,,,,,,
46440,note_on,60,0,4,,,,,,,,,0,,,53,0
46440,note_on,0,0,4,,,,,,,,,0,,,50,49
46480,set_tempo,56,1,0,,,,,,744509,,,,,,,
46500,note_on,60,0,4,,,,,,,,,0,,,50,0
46500,note_on,0,0,4,,,,,,,,,0,,,53,38
46520,set_tempo,40,1,0,,,,,,740010,,,,,,,
46560,note_on,0,0,4,,,,,,,,,0,,,50,49
46560,note_on,60,0,4,,,,,,,,,0,,,53,0
46560,set_tempo,40,1,0,,,,,,735565,,,,,,,
46620,note_on,60,0,4,,,,,,,,,0,,,50,0
46620,note_on,0,0,4,,,,,,,,,0,,,53,36
46680,note_on,0,0,4,,,,,,,,,0,,,50,48
46680,note_on,60,0,4,,,,,,,,,0,,,53,0
46740,note_on,0,0,4,,,,,,,,,0,,,53,39
46740,note_on,60,0,4,,,,,,,,,0,,,50,0
46800,note_on,0,0,4,,,,,,,,,0,,,50,51
46800,note_on,60,0,4,,,,,,,,,0,,,53,0
46860,note_on,60,0,4,,,,,,,,,0,,,50,0
46860,note_on,0,0,4,,,,,,,,,0,,,53,39
46920,note_on,60,0,4,,,,,,,,,0,,,53,0
46920,note_on,0,0,4,,,,,,,,,0,,,50,52
46980,note_on,0,0,4,,,,,,,,,0,,,53,39
46980,note_on,60,0,4,,,,,,,,,0,,,50,0
47024,set_tempo,464,1,0,,,,,,740010,,,,,,,
47040,note_on,0,0,4,,,,,,,,,0,,,50,53
47040,note_on,60,0,4,,,,,,,,,0,,,53,0
47100,note_on,60,0,4,,,,,,,,,0,,,50,0
47100,note_on,0,0,4,,,,,,,,,0,,,53,41
47144,set_tempo,120,1,0,,,,,,744509,,,,,,,
47160,note_on,60,0,4,,,,,,,,,0,,,53,0
47160,note_on,0,0,4,,,,,,,,,0,,,50,50
47220,note_on,0,0,4,,,,,,,,,0,,,53,38
47220,note_on,60,0,4,,,,,,,,,0,,,50,0
47264,set_tempo,120,1,0,,,,,,748970,,,,,,,
47280,note_on,0,0,4,,,,,,,,,0,,,50,51
47280,note_on,60,0,4,,,,,,,,,0,,,53,0
47340,note_on,0,0,4,,,,,,,,,0,,,53,38
47340,note_on,60,0,4,,,,,,,,,0,,,50,0
47384,set_tempo,120,1,0,,,,,,753580,,,,,,,
47400,note_on,0,0,4,,,,,,,,,0,,,50,50
47400,note_on,60,0,4,,,,,,,,,0,,,53,0
47444,set_tempo,60,1,0,,,,,,762970,,,,,,,
47460,note_on,0,0,4,,,,,,,,,0,,,53,38
47460,note_on,60,0,4,,,,,,,,,0,,,50,0
47472,set_tempo,28,1,0,,,,,,767754,,,,,,,
47480,note_on,0,0,3,,,,,,,,,0,,,46,0
47480,note_on,0,0,3,,,,,,,,,0,,,46,50
47480,note_on,1400,0,3,,,,,,,,,0,,,58,0
47500,note_on,20,0,3,,,,,,,,,0,,,53,48
47500,set_tempo,28,1,0,,,,,,777001,,,,,,,
47520,note_on,60,0,4,,,,,,,,,0,,,53,0
47520,note_on,20,0,3,,,,,,,,,0,,,62,57
47520,note_on,0,0,4,,,,,,,,,0,,,57,50
47533,control_change,13,0,4,,,,,,,,,0,64,0,,
47540,set_tempo,40,1,0,,,,,,771803,,,,,,,
47573,control_change,40,0,4,,,,,,,,,0,64,127,,
47580,set_tempo,40,1,0,,,,,,766675,,,,,,,
47580,note_on,7,0,4,,,,,,,,,0,,,57,0
47580,note_on,0,0,4,,,,,,,,,0,,,53,40
47600,set_tempo,20,1,0,,,,,,761518,,,,,,,
47640,set_tempo,40,1,0,,,,,,756525,,,,,,,
47640,note_on,60,0,4,,,,,,,,,0,,,53,0
47640,note_on,0,0,4,,,,,,,,,0,,,57,49
47680,set_tempo,40,1,0,,,,,,751597,,,,,,,
47700,note_on,60,0,4,,,,,,,,,0,,,57,0
47700,set_tempo,20,1,0,,,,,,746733,,,,,,,
47700,note_on,0,0,4,,,,,,,,,0,,,53,36
47760,note_on,60,0,4,,,,,,,,,0,,,53,0
47760,note_on,0,0,4,,,,,,,,,0,,,57,49
47820,note_on,0,0,4,,,,,,,,,0,,,53,40
47820,note_on,60,0,4,,,,,,,,,0,,,57,0
47880,note_on,0,0,4,,,,,,,,,0,,,57,49
47880,note_on,60,0,4,,,,,,,,,0,,,53,0
47900,set_tempo,200,1,0,,,,,,751597,,,,,,,
47904,set_tempo,4,1,0,,,,,,735565,,,,,,,
47932,set_tempo,28,1,0,,,,,,740010,,,,,,,
47940,note_on,0,0,4,,,,,,,,,0,,,53,39
47940,set_tempo,8,1,0,,,,,,1116695,,,,,,,
47940,note_on,60,0,4,,,,,,,,,0,,,57,0
47960,note_on,0,0,3,,,,,,,,,0,,,46,53
47960,note_on,0,0,3,,,,,,,,,0,,,46,0
47960,note_on,440,0,3,,,,,,,,,0,,,62,0
47960,note_on,0,0,3,,,,,,,,,0,,,53,0
48000,note_on,40,0,3,,,,,,,,,0,,,63,63
48000,set_tempo,60,1,0,,,,,,753580,,,,,,,
48000,note_on,60,0,4,,,,,,,,,0,,,53,0
48000,note_on,0,0,4,,,,,,,,,0,,,55,52
48010,control_change,10,0,4,,,,,,,,,0,64,0,,
48046,control_change,36,0,4,,,,,,,,,0,64,127,,
48052,set_tempo,52,1,0,,,,,,748970,,,,,,,
48060,note_on,14,0,4,,,,,,,,,0,,,55,0
48060,note_on,0,0,4,,,,,,,,,0,,,51,43
48092,set_tempo,40,1,0,,,,,,744509,,,,,,,
48120,note_on,0,0,4,,,,,,,,,0,,,55,54
48120,note_on,60,0,4,,,,,,,,,0,,,51,0
48132,set_tempo,40,1,0,,,,,,740010,,,,,,,
48172,set_tempo,40,1,0,,,,,,735565,,,,,,,
48180,note_on,60,0,4,,,,,,,,,0,,,55,0
48180,note_on,0,0,4,,,,,,,,,0,,,51,41
48240,note_on,60,0,4,,,,,,,,,0,,,51,0
48240,note_on,0,0,4,,,,,,,,,0,,,55,54
48240,set_tempo,68,1,0,,,,,,740010,,,,,,,
48292,set_tempo,52,1,0,,,,,,744509,,,,,,,
48300,note_on,60,0,4,,,,,,,,,0,,,55,0
48300,note_on,0,0,4,,,,,,,,,0,,,51,45
48360,set_tempo,68,1,0,,,,,,748970,,,,,,,
48360,note_on,0,0,4,,,,,,,,,0,,,55,55
48360,note_on,60,0,4,,,,,,,,,0,,,51,0
48412,set_tempo,52,1,0,,,,,,753580,,,,,,,
48420,note_on,60,0,4,,,,,,,,,0,,,55,0
48420,note_on,0,0,4,,,,,,,,,0,,,51,46
48420,set_tempo,8,1,0,,,,,,772599,,,,,,,
48440,note_on,440,0,3,,,,,,,,,0,,,63,0
48440,note_on,0,0,3,,,,,,,,,0,,,46,56
48440,note_on,0,0,3,,,,,,,,,0,,,46,0
48444,set_tempo,24,1,0,,,,,,777403,,,,,,,
48472,set_tempo,28,1,0,,,,,,782371,,,,,,,
48480,note_on,0,0,4,,,,,,,,,0,,,54,55
48480,note_on,60,0,4,,,,,,,,,0,,,51,0
48480,note_on,40,0,3,,,,,,,,,0,,,63,68
48480,set_tempo,8,1,0,,,,,,772599,,,,,,,
48494,control_change,14,0,4,,,,,,,,,0,64,0,,
48520,set_tempo,40,1,0,,,,,,753580,,,,,,,
48533,control_change,39,0,4,,,,,,,,,0,64,127,,
48540,note_on,0,0,4,,,,,,,,,0,,,49,38
48540,note_on,7,0,4,,,,,,,,,0,,,54,0
48572,set_tempo,52,1,0,,,,,,748970,,,,,,,
48600,note_on,0,0,4,,,,,,,,,0,,,54,56
48600,note_on,60,0,4,,,,,,,,,0,,,49,0
48624,set_tempo,52,1,0,,,,,,744509,,,,,,,
48660,note_on,60,0,4,,,,,,,,,0,,,54,0
48660,note_on,0,0,4,,,,,,,,,0,,,49,39
48664,set_tempo,40,1,0,,,,,,740010,,,,,,,
48720,note_on,60,0,4,,,,,,,,,0,,,49,0
48720,note_on,0,0,4,,,,,,,,,0,,,54,55
48720,set_tempo,56,1,0,,,,,,744509,,,,,,,
48760,set_tempo,40,1,0,,,,,,748970,,,,,,,
48780,note_on,60,0,4,,,,,,,,,0,,,54,0
48780,note_on,0,0,4,,,,,,,,,0,,,49,43
48812,set_tempo,52,1,0,,,,,,753580,,,,,,,
48840,note_on,0,0,4,,,,,,,,,0,,,54,54
48840,note_on,60,0,4,,,,,,,,,0,,,49,0
48852,set_tempo,40,1,0,,,,,,758246,,,,,,,
48892,set_tempo,40,1,0,,,,,,762970,,,,,,,
48900,set_tempo,8,1,0,,,,,,1240695,,,,,,,
48900,note_on,0,0,4,,,,,,,,,0,,,49,38
48900,note_on,60,0,4,,,,,,,,,0,,,54,0
48920,note_on,0,0,3,,,,,,,,,0,,,45,60
48920,note_on,0,0,3,,,,,,,,,0,,,46,0
48920,note_on,440,0,3,,,,,,,,,0,,,63,0
48960,set_tempo,60,1,0,,,,,,772599,,,,,,,
48960,note_on,0,0,4,,,,,,,,,0,,,54,57
48960,note_on,60,0,4,,,,,,,,,0,,,49,0
48960,note_on,40,0,3,,,,,,,,,0,,,63,71
48978,control_change,18,0,4,,,,,,,,,0,64,0,,
49000,set_tempo,40,1,0,,,,,,782371,,,,,,,
49020,control_change,42,0,4,,,,,,,,,0,64,127,,
49020,note_on,0,0,4,,,,,,,,,0,,,48,36
49040,set_tempo,40,1,0,,,,,,777403,,,,,,,
49080,note_on,60,0,4,,,,,,,,,0,,,48,0
49080,note_on,0,0,4,,,,,,,,,0,,,54,0
49080,note_on,0,0,4,,,,,,,,,0,,,54,45
49092,set_tempo,52,1,0,,,,,,772599,,,,,,,
49132,set_tempo,40,1,0,,,,,,767754,,,,,,,
49140,note_on,60,0,4,,,,,,,,,0,,,48,36
49172,set_tempo,40,1,0,,,,,,762970,,,,,,,
49200,note_on,0,0,4,,,,,,,,,0,,,54,47
49200,note_on,0,0,4,,,,,,,,,0,,,54,0
49200,note_on,60,0,4,,,,,,,,,0,,,48,0
49224,set_tempo,52,1,0,,,,,,758246,,,,,,,
49260,note_on,60,0,4,,,,,,,,,0,,,48,37
49264,set_tempo,40,1,0,,,,,,753580,,,,,,,
49304,set_tempo,40,1,0,,,,,,748970,,,,,,,
49320,note_on,0,0,4,,,,,,,,,0,,,54,0
49320,note_on,0,0,4,,,,,,,,,0,,,54,48
49320,note_on,60,0,4,,,,,,,,,0,,,48,0
49360,set_tempo,56,1,0,,,,,,744509,,,,,,,
49380,note_on,60,0,4,,,,,,,,,0,,,48,38
49400,set_tempo,40,1,0,,,,,,740010,,,,,,,
49432,set_tempo,32,1,0,,,,,,727802,,,,,,,
49440,note_on,0,0,4,,,,,,,,,0,,,54,0
49440,note_on,60,0,4,,,,,,,,,0,,,48,0
49440,note_on,0,0,4,,,,,,,,,0,,,53,52
49446,control_change,6,0,4,,,,,,,,,0,64,0,,
49471,control_change,25,0,4,,,,,,,,,0,64,127,,
49472,set_tempo,40,1,0,,,,,,723240,,,,,,,
49500,note_on,29,0,4,,,,,,,,,0,,,48,42
49512,set_tempo,40,1,0,,,,,,718735,,,,,,,
49560,note_on,60,0,4,,,,,,,,,0,,,48,0
49560,note_on,0,0,4,,,,,,,,,0,,,53,0
49560,note_on,0,0,4,,,,,,,,,0,,,53,47
49564,set_tempo,52,1,0,,,,,,723240,,,,,,,
49604,set_tempo,40,1,0,,,,,,727802,,,,,,,
49620,note_on,60,0,4,,,,,,,,,0,,,48,36
49644,set_tempo,40,1,0,,,,,,727802,,,,,,,
49672,set_tempo,28,1,0,,,,,,723240,,,,,,,
49680,note_on,60,0,4,,,,,,,,,0,,,48,0
49680,note_on,0,0,4,,,,,,,,,0,,,53,45
49680,note_on,0,0,4,,,,,,,,,0,,,53,0
49700,set_tempo,28,1,0,,,,,,718735,,,,,,,
49712,set_tempo,12,1,0,,,,,,714286,,,,,,,
49740,note_on,60,0,4,,,,,,,,,0,,,48,36
49740,set_tempo,28,1,0,,,,,,709807,,,,,,,
49752,set_tempo,12,1,0,,,,,,709807,,,,,,,
49792,set_tempo,40,1,0,,,,,,714286,,,,,,,
49800,note_on,0,0,4,,,,,,,,,0,,,53,45
49800,note_on,60,0,4,,,,,,,,,0,,,48,0
49800,note_on,0,0,4,,,,,,,,,0,,,53,0
49860,note_on,60,0,4,,,,,,,,,0,,,48,36
49860,set_tempo,68,1,0,,,,,,1045478,,,,,,,
49880,note_on,0,0,3,,,,,,,,,0,,,46,57
49880,note_on,0,0,3,,,,,,,,,0,,,45,0
49880,note_on,920,0,3,,,,,,,,,0,,,63,0
49904,set_tempo,44,1,0,,,,,,740010,,,,,,,
49920,note_on,0,0,4,,,,,,,,,0,,,53,0
49920,note_on,0,0,4,,,,,,,,,0,,,53,45
49920,note_on,40,0,3,,,,,,,,,0,,,62,68
49920,note_on,60,0,4,,,,,,,,,0,,,48,0
49934,control_change,14,0,4,,,,,,,,,0,64,0,,
49963,control_change,29,0,4,,,,,,,,,0,64,127,,
49980,note_on,0,0,4,,,,,,,,,0,,,50,36
49980,note_on,17,0,4,,,,,,,,,0,,,53,0
50024,set_tempo,120,1,0,,,,,,744509,,,,,,,
50040,note_on,0,0,4,,,,,,,,,0,,,53,45
50040,note_on,60,0,4,,,,,,,,,0,,,50,0
50100,note_on,60,0,4,,,,,,,,,0,,,53,0
50100,note_on,0,0,4,,,,,,,,,0,,,50,36
50144,set_tempo,120,1,0,,,,,,748970,,,,,,,
50160,note_on,0,0,4,,,,,,,,,0,,,53,45
50160,note_on,60,0,4,,,,,,,,,0,,,50,0
50220,note_on,60,0,4,,,,,,,,,0,,,53,0
50220,note_on,0,0,4,,,,,,,,,0,,,50,36
50264,set_tempo,120,1,0,,,,,,753580,,,,,,,
50280,note_on,0,0,4,,,,,,,,,0,,,53,45
50280,note_on,60,0,4,,,,,,,,,0,,,50,0
50340,set_tempo,76,1,0,,,,,,1147886,,,,,,,
50340,note_on,60,0,4,,,,,,,,,0,,,53,0
50360,note_on,440,0,3,,,,,,,,,0,,,62,0
50360,note_on,0,0,3,,,,,,,,,0,,,46,0
50360,note_on,0,0,3,,,,,,,,,0,,,46,49
50380,note_on,20,0,3,,,,,,,,,0,,,53,49
50400,note_on,20,0,3,,,,,,,,,0,,,62,54
50400,note_on,60,0,4,,,,,,,,,0,,,57,46
50404,set_tempo,64,1,0,,,,,,761518,,,,,,,
50413,control_change,13,0,4,,,,,,,,,0,64,0,,
50444,set_tempo,40,1,0,,,,,,756525,,,,,,,
50453,control_change,40,0,4,,,,,,,,,0,64,127,,
50460,note_on,0,0,4,,,,,,,,,0,,,53,35
50460,note_on,7,0,4,,,,,,,,,0,,,57,0
50472,set_tempo,28,1,0,,,,,,751597,,,,,,,
50500,set_tempo,28,1,0,,,,,,746733,,,,,,,
50520,note_on,0,0,4,,,,,,,,,0,,,57,45
50520,note_on,60,0,4,,,,,,,,,0,,,53,0
50524,set_tempo,24,1,0,,,,,,741931,,,,,,,
50552,set_tempo,28,1,0,,,,,,737101,,,,,,,
50580,note_on,60,0,4,,,,,,,,,0,,,57,0
50580,set_tempo,28,1,0,,,,,,732422,,,,,,,
50580,note_on,0,0,4,,,,,,,,,0,,,53,37
50632,set_tempo,52,1,0,,,,,,737101,,,,,,,
50640,note_on,0,0,4,,,,,,,,,0,,,57,45
50640,note_on,60,0,4,,,,,,,,,0,,,53,0
50672,set_tempo,40,1,0,,,,,,741931,,,,,,,
50700,note_on,60,0,4,,,,,,,,,0,,,57,0
50700,note_on,0,0,4,,,,,,,,,0,,,53,38
50712,set_tempo,40,1,0,,,,,,746733,,,,,,,
50752,set_tempo,40,1,0,,,,,,751597,,,,,,,
50760,note_on,0,0,4,,,,,,,,,0,,,57,46
50760,note_on,60,0,4,,,,,,,,,0,,,53,0
50792,set_tempo,40,1,0,,,,,,756525,,,,,,,
50812,set_tempo,20,1,0,,,,,,740010,,,,,,,
50820,note_on,0,0,4,,,,,,,,,0,,,51,38
50820,set_tempo,8,1,0,,,,,,1116695,,,,,,,
50820,note_on,60,0,4,,,,,,,,,0,,,57,0
50840,note_on,440,0,3,,,,,,,,,0,,,62,0
50840,note_on,0,0,3,,,,,,,,,0,,,46,0
50840,note_on,0,0,3,,,,,,,,,0,,,46,52
50840,note_on,0,0,3,,,,,,,,,0,,,53,0
50872,set_tempo,52,1,0,,,,,,771803,,,,,,,
50880,note_on,40,0,3,,,,,,,,,0,,,63,62
50880,note_on,60,0,4,,,,,,,,,0,,,51,0
50880,note_on,0,0,4,,,,,,,,,0,,,55,50
50890,control_change,10,0,4,,,,,,,,,0,64,0,,
50912,set_tempo,40,1,0,,,,,,766675,,,,,,,
50926,control_change,36,0,4,,,,,,,,,0,64,127,,
50940,note_on,14,0,4,,,,,,,,,0,,,51,43
50940,set_tempo,28,1,0,,,,,,761518,,,,,,,
50960,note_on,20,0,4,,,,,,,,,0,,,55,0
50964,set_tempo,24,1,0,,,,,,756525,,,,,,,
50992,set_tempo,28,1,0,,,,,,751597,,,,,,,
51000,note_on,0,0,4,,,,,,,,,0,,,55,51
51000,note_on,40,0,4,,,,,,,,,0,,,51,0
51020,set_tempo,28,1,0,,,,,,746733,,,,,,,
51044,set_tempo,24,1,0,,,,,,741931,,,,,,,
51052,set_tempo,8,1,0,,,,,,735565,,,,,,,
51060,note_on,0,0,4,,,,,,,,,0,,,51,39
51060,note_on,60,0,4,,,,,,,,,0,,,55,0
51072,set_tempo,20,1,0,,,,,,737101,,,,,,,
51100,set_tempo,28,1,0,,,,,,741931,,,,,,,
51120,note_on,60,0,4,,,,,,,,,0,,,51,0
51120,note_on,0,0,4,,,,,,,,,0,,,55,50
51124,set_tempo,24,1,0,,,,,,746733,,,,,,,
51152,set_tempo,28,1,0,,,,,,751597,,,,,,,
51180,note_on,0,0,4,,,,,,,,,0,,,51,39
51180,set_tempo,28,1,0,,,,,,756525,,,,,,,
51180,note_on,60,0,4,,,,,,,,,0,,,55,0
51204,set_tempo,24,1,0,,,,,,761518,,,,,,,
51232,set_tempo,28,1,0,,,,,,766675,,,,,,,
51240,note_on,60,0,4,,,,,,,,,0,,,51,0
51240,note_on,0,0,4,,,,,,,,,0,,,55,53
51260,set_tempo,28,1,0,,,,,,771803,,,,,,,
51284,set_tempo,24,1,0,,,,,,777001,,,,,,,
51292,set_tempo,8,1,0,,,,,,753580,,,,,,,
51300,set_tempo,8,1,0,,,,,,1137441,,,,,,,
51300,note_on,0,0,4,,,,,,,,,0,,,51,39
51300,note_on,60,0,4,,,,,,,,,0,,,55,0
51320,note_on,0,0,3,,,,,,,,,0,,,46,0
51320,note_on,0,0,3,,,,,,,,,0,,,46,60
51320,note_on,440,0,3,,,,,,,,,0,,,63,0
51352,set_tempo,52,1,0,,,,,,777001,,,,,,,
51360,note_on,60,0,4,,,,,,,,,0,,,51,0
51360,note_on,40,0,3,,,,,,,,,0,,,63,69
51360,note_on,0,0,4,,,,,,,,,0,,,54,53
51374,control_change,14,0,4,,,,,,,,,0,64,0,,
51392,set_tempo,40,1,0,,,,,,771803,,,,,,,
51413,control_change,39,0,4,,,,,,,,,0,64,127,,
51420,note_on,7,0,4,,,,,,,,,0,,,49,37
51432,set_tempo,40,1,0,,,,,,766675,,,,,,,
51440,note_on,20,0,4,,,,,,,,,0,,,54,0
51472,set_tempo,40,1,0,,,,,,761518,,,,,,,
51480,note_on,0,0,4,,,,,,,,,0,,,54,48
51480,note_on,40,0,4,,,,,,,,,0,,,49,0
51512,set_tempo,40,1,0,,,,,,756525,,,,,,,
51540,note_on,60,0,4,,,,,,,,,0,,,54,0
51540,note_on,0,0,4,,,,,,,,,0,,,49,38
51552,set_tempo,40,1,0,,,,,,751597,,,,,,,
51580,set_tempo,28,1,0,,,,,,756525,,,,,,,
51600,note_on,60,0,4,,,,,,,,,0,,,49,0
51600,note_on,0,0,4,,,,,,,,,0,,,54,47
51604,set_tempo,24,1,0,,,,,,761518,,,,,,,
51632,set_tempo,28,1,0,,,,,,766675,,,,,,,
51660,note_on,60,0,4,,,,,,,,,0,,,54,0
51660,set_tempo,28,1,0,,,,,,771803,,,,,,,
51660,note_on,0,0,4,,,,,,,,,0,,,49,37
51684,set_tempo,24,1,0,,,,,,777001,,,,,,,
51712,set_tempo,28,1,0,,,,,,782269,,,,,,,
51720,note_on,0,0,4,,,,,,,,,0,,,54,47
51720,note_on,60,0,4,,,,,,,,,0,,,49,0
51740,set_tempo,28,1,0,,,,,,787608,,,,,,,
51764,set_tempo,24,1,0,,,,,,793021,,,,,,,
51772,set_tempo,8,1,0,,,,,,762970,,,,,,,
51780,set_tempo,8,1,0,,,,,,1742666,,,,,,,
51780,note_on,0,0,4,,,,,,,,,0,,,49,37
51780,note_on,60,0,4,,,,,,,,,0,,,54,0
51800,note_on,0,0,3,,,,,,,,,0,,,45,60
51800,note_on,0,0,3,,,,,,,,,0,,,46,0
51800,note_on,440,0,3,,,,,,,,,0,,,63,0
51840,set_tempo,60,1,0,,,,,,772599,,,,,,,
51840,note_on,0,0,4,,,,,,,,,0,,,54,57
51840,note_on,40,0,3,,,,,,,,,0,,,63,71
51840,note_on,60,0,4,,,,,,,,,0,,,49,0
51858,control_change,18,0,4,,,,,,,,,0,64,0,,
51875,control_change,17,0,4,,,,,,,,,0,64,0,,
51880,set_tempo,40,1,0,,,,,,782371,,,,,,,
51900,note_on,0,0,4,,,,,,,,,0,,,48,36
51900,control_change,25,0,4,,,,,,,,,0,64,127,,
51920,set_tempo,40,1,0,,,,,,777403,,,,,,,
51960,note_on,0,0,4,,,,,,,,,0,,,54,0
51960,note_on,0,0,4,,,,,,,,,0,,,54,45
51960,note_on,60,0,4,,,,,,,,,0,,,48,0
51972,set_tempo,52,1,0,,,,,,772599,,,,,,,
52012,set_tempo,40,1,0,,,,,,767754,,,,,,,
52020,note_on,60,0,4,,,,,,,,,0,,,48,35
52052,set_tempo,40,1,0,,,,,,762970,,,,,,,
52080,note_on,60,0,4,,,,,,,,,0,,,48,0
52080,note_on,0,0,4,,,,,,,,,0,,,54,49
52080,note_on,0,0,4,,,,,,,,,0,,,54,0
52104,set_tempo,52,1,0,,,,,,758246,,,,,,,
52140,note_on,60,0,4,,,,,,,,,0,,,48,38
52144,set_tempo,40,1,0,,,,,,753580,,,,,,,
52184,set_tempo,40,1,0,,,,,,748970,,,,,,,
52200,note_on,0,0,4,,,,,,,,,0,,,54,48
52200,note_on,60,0,4,,,,,,,,,0,,,48,0
52200,note_on,0,0,4,,,,,,,,,0,,,54,0
52240,set_tempo,56,1,0,,,,,,744509,,,,,,,
52260,note_on,60,0,4,,,,,,,,,0,,,48,40
52280,set_tempo,40,1,0,,,,,,740010,,,,,,,
52312,set_tempo,32,1,0,,,,,,727802,,,,,,,
52320,note_on,0,0,4,,,,,,,,,0,,,53,52
52320,note_on,0,0,4,,,,,,,,,0,,,54,0
52320,note_on,60,0,4,,,,,,,,,0,,,48,0
52326,control_change,6,0,4,,,,,,,,,0,64,0,,
52351,control_change,25,0,4,,,,,,,,,0,64,127,,
52352,set_tempo,40,1,0,,,,,,723240,,,,,,,
52380,note_on,29,0,4,,,,,,,,,0,,,48,41
52392,set_tempo,40,1,0,,,,,,718735,,,,,,,
52440,note_on,60,0,4,,,,,,,,,0,,,48,0
52440,note_on,0,0,4,,,,,,,,,0,,,53,46
52440,note_on,0,0,4,,,,,,,,,0,,,53,0
52444,set_tempo,52,1,0,,,,,,723240,,,,,,,
52484,set_tempo,40,1,0,,,,,,727802,,,,,,,
52500,note_on,60,0,4,,,,,,,,,0,,,48,36
52524,set_tempo,40,1,0,,,,,,727802,,,,,,,
52552,set_tempo,28,1,0,,,,,,723240,,,,,,,
52560,note_on,0,0,4,,,,,,,,,0,,,53,0
52560,note_on,60,0,4,,,,,,,,,0,,,48,0
52560,note_on,0,0,4,,,,,,,,,0,,,53,45
52580,set_tempo,28,1,0,,,,,,718735,,,,,,,
52592,set_tempo,12,1,0,,,,,,714286,,,,,,,
52620,set_tempo,28,1,0,,,,,,709807,,,,,,,
52620,note_on,60,0,4,,,,,,,,,0,,,48,36
52632,set_tempo,12,1,0,,,,,,709807,,,,,,,
52672,set_tempo,40,1,0,,,,,,714286,,,,,,,
52680,note_on,60,0,4,,,,,,,,,0,,,48,0
52680,note_on,0,0,4,,,,,,,,,0,,,53,0
52680,note_on,0,0,4,,,,,,,,,0,,,53,45
52740,note_on,60,0,4,,,,,,,,,0,,,48,36
52740,set_tempo,68,1,0,,,,,,1045478,,,,,,,
52760,note_on,0,0,3,,,,,,,,,0,,,46,57
52760,note_on,0,0,3,,,,,,,,,0,,,45,0
52760,note_on,920,0,3,,,,,,,,,0,,,63,0
52784,set_tempo,44,1,0,,,,,,740010,,,,,,,
52800,note_on,40,0,3,,,,,,,,,0,,,62,68
52800,note_on,0,0,4,,,,,,,,,0,,,53,45
52800,note_on,0,0,4,,,,,,,,,0,,,53,0
52800,note_on,60,0,4,,,,,,,,,0,,,48,0
52814,control_change,14,0,4,,,,,,,,,0,64,0,,
52843,control_change,29,0,4,,,,,,,,,0,64,127,,
52880,note_on,0,0,4,,,,,,,,,0,,,50,36
52880,note_on,37,0,4,,,,,,,,,0,,,53,0
52904,set_tempo,120,1,0,,,,,,744509,,,,,,,
52960,note_on,0,0,4,,,,,,,,,0,,,53,45
52960,note_on,80,0,4,,,,,,,,,0,,,50,0
53024,set_tempo,120,1,0,,,,,,748970,,,,,,,
53040,note_on,80,0,4,,,,,,,,,0,,,53,0
53040,note_on,0,0,4,,,,,,,,,0,,,50,36
53120,note_on,0,0,4,,,,,,,,,0,,,53,45
53120,note_on,80,0,4,,,,,,,,,0,,,50,0
53144,set_tempo,120,1,0,,,,,,753580,,,,,,,
53200,note_on,80,0,4,,,,,,,,,0,,,53,0
53200,note_on,0,0,4,,,,,,,,,0,,,50,36
53220,set_tempo,76,1,0,,,,,,1147886,,,,,,,
53280,set_tempo,60,1,0,,,,,,709807,,,,,,,
53280,note_on,0,0,4,,,,,,,,,0,,,53,51
53280,note_on,80,0,4,,,,,,,,,0,,,50,0
53280,note_on,0,0,3,,,,,,,,,0,,,58,68
53280,note_on,0,0,3,,,,,,,,,0,,,56,58
53280,note_on,480,0,3,,,,,,,,,0,,,62,0
53280,note_on,0,0,3,,,,,,,,,0,,,46,0
53290,control_change,10,0,4,,,,,,,,,0,64,0,,
53311,control_change,21,0,4,,,,,,,,,0,64,127,,
53360,note_on,0,0,4,,,,,,,,,0,,,50,43
53360,note_on,49,0,4,,,,,,,,,0,,,53,0
53440,note_on,0,0,4,,,,,,,,,0,,,53,51
53440,note_on,80,0,4,,,,,,,,,0,,,50,0
53520,note_on,0,0,4,,,,,,,,,0,,,50,43
53520,note_on,80,0,4,,,,,,,,,0,,,53,0
53600,note_on,0,0,4,,,,,,,,,0,,,53,51
53600,note_on,80,0,4,,,,,,,,,0,,,50,0
53680,note_on,80,0,4,,,,,,,,,0,,,53,0
53680,note_on,0,0,4,,,,,,,,,0,,,50,43
53760,note_on,80,0,4,,,,,,,,,0,,,50,0
53760,note_on,0,0,3,,,,,,,,,0,,,58,68
53760,note_on,480,0,3,,,,,,,,,0,,,58,0
53760,note_on,0,0,3,,,,,,,,,0,,,56,0
53760,note_on,0,0,4,,,,,,,,,0,,,55,51
53775,control_change,15,0,4,,,,,,,,,0,64,0,,
53820,control_change,45,0,4,,,,,,,,,0,64,127,,
53840,note_on,20,0,4,,,,,,,,,0,,,55,0
53840,note_on,0,0,4,,,,,,,,,0,,,51,43
53920,note_on,80,0,4,,,,,,,,,0,,,51,0
53920,note_on,0,0,4,,,,,,,,,0,,,55,51
54000,note_on,0,0,4,,,,,,,,,0,,,51,43
54000,note_on,80,0,4,,,,,,,,,0,,,55,0
54080,note_on,80,0,4,,,,,,,,,0,,,51,0
54080,note_on,0,0,4,,,,,,,,,0,,,55,51
54160,note_on,0,0,4,,,,,,,,,0,,,51,42
54160,note_on,80,0,4,,,,,,,,,0,,,55,0
54240,note_on,0,0,4,,,,,,,,,0,,,55,54
54240,set_tempo,960,1,0,,,,,,693642,,,,,,,
54240,note_on,0,0,3,,,,,,,,,0,,,60,71
54240,note_on,0,0,3,,,,,,,,,0,,,58,56
54240,note_on,80,0,4,,,,,,,,,0,,,51,0
54240,note_on,480,0,3,,,,,,,,,0,,,58,0
54253,control_change,13,0,4,,,,,,,,,0,64,0,,
54294,control_change,41,0,4,,,,,,,,,0,64,127,,
54320,note_on,26,0,4,,,,,,,,,0,,,55,0
54320,note_on,0,0,4,,,,,,,,,0,,,52,44
54400,note_on,80,0,4,,,,,,,,,0,,,52,0
54400,note_on,0,0,4,,,,,,,,,0,,,55,54
54400,set_tempo,160,1,0,,,,,,689655,,,,,,,
54480,note_on,0,0,4,,,,,,,,,0,,,52,46
54480,note_on,80,0,4,,,,,,,,,0,,,55,0
54520,set_tempo,120,1,0,,,,,,685714,,,,,,,
54560,note_on,0,0,4,,,,,,,,,0,,,55,54
54560,note_on,80,0,4,,,,,,,,,0,,,52,0
54640,note_on,0,0,4,,,,,,,,,0,,,52,46
54640,note_on,80,0,4,,,,,,,,,0,,,55,0
54640,set_tempo,120,1,0,,,,,,681818,,,,,,,
54720,note_on,480,0,3,,,,,,,,,0,,,60,0
54720,note_on,80,0,4,,,,,,,,,0,,,52,0
54720,note_on,0,0,3,,,,,,,,,0,,,58,0
54720,note_on,0,0,3,,,,,,,,,0,,,60,71
54720,note_on,0,0,4,,,,,,,,,0,,,57,54
54728,control_change,8,0,4,,,,,,,,,0,64,0,,
54757,control_change,29,0,4,,,,,,,,,0,64,127,,
54760,set_tempo,120,1,0,,,,,,677966,,,,,,,
54800,note_on,43,0,4,,,,,,,,,0,,,57,0
54800,note_on,0,0,4,,,,,,,,,0,,,53,44
54880,note_on,0,0,4,,,,,,,,,0,,,57,54
54880,note_on,80,0,4,,,,,,,,,0,,,53,0
54960,note_on,80,0,4,,,,,,,,,0,,,57,0
54960,note_on,0,0,4,,,,,,,,,0,,,53,46
55040,note_on,80,0,4,,,,,,,,,0,,,53,0
55040,note_on,0,0,4,,,,,,,,,0,,,57,54
55120,note_on,80,0,4,,,,,,,,,0,,,57,0
55120,note_on,0,0,4,,,,,,,,,0,,,53,46
55198,note_on,478,0,3,,,,,,,,,0,,,60,0
55200,note_on,80,0,4,,,,,,,,,0,,,53,0
55200,set_tempo,440,1,0,,,,,,662983,,,,,,,
55200,note_on,0,0,1,,,,,,,,,0,,,62,74
55200,note_on,11040,0,2,,,,,,,,,0,,,57,56
55200,note_on,11040,0,1,,,,,,,,,0,,,60,59
55206,control_change,6,0,4,,,,,,,,,0,64,0,,
55243,control_change,37,0,4,,,,,,,,,0,64,127,,
55280,note_on,80,0,2,,,,,,,,,0,,,57,0
55280,note_on,0,0,2,,,,,,,,,0,,,54,46
55360,note_on,80,0,2,,,,,,,,,0,,,54,0
55360,note_on,0,0,2,,,,,,,,,0,,,57,56
55440,note_on,80,0,2,,,,,,,,,0,,,57,0
55440,note_on,0,0,2,,,,,,,,,0,,,54,48
55520,note_on,80,0,2,,,,,,,,,0,,,54,0
55520,note_on,0,0,2,,,,,,,,,0,,,57,56
55600,note_on,0,0,2,,,,,,,,,0,,,54,48
55600,note_on,80,0,2,,,,,,,,,0,,,57,0
55680,set_tempo,480,1,0,,,,,,674157,,,,,,,
55680,note_on,482,0,3,,,,,,,,,0,,,62,74
55680,note_on,437,0,4,,,,,,,,,0,,,58,56
55680,note_on,0,0,1,,,,,,,,,0,,,60,0
55680,note_on,480,0,1,,,,,,,,,0,,,62,0
55680,note_on,80,0,2,,,,,,,,,0,,,54,0
55688,control_change,8,0,4,,,,,,,,,0,64,0,,
55726,control_change,38,0,4,,,,,,,,,0,64,127,,
55760,note_on,34,0,4,,,,,,,,,0,,,58,0
55760,note_on,0,0,4,,,,,,,,,0,,,55,46
55840,note_on,0,0,4,,,,,,,,,0,,,58,56
55840,note_on,80,0,4,,,,,,,,,0,,,55,0
55920,note_on,80,0,4,,,,,,,,,0,,,58,0
55920,note_on,0,0,4,,,,,,,,,0,,,55,48
56000,note_on,0,0,4,,,,,,,,,0,,,58,57
56000,note_on,80,0,4,,,,,,,,,0,,,55,0
56080,note_on,0,0,4,,,,,,,,,0,,,55,48
56080,note_on,80,0,4,,,,,,,,,0,,,58,0
56160,note_on,480,0,3,,,,,,,,,0,,,62,0
56160,set_tempo,480,1,0,,,,,,652174,,,,,,,
56160,note_on,480,0,1,,,,,,,,,0,,,65,77
56160,note_on,0,0,1,,,,,,,,,0,,,63,61
56160,note_on,80,0,4,,,,,,,,,0,,,55,0
56160,note_on,480,0,2,,,,,,,,,0,,,60,59
56172,control_change,12,0,4,,,,,,,,,0,64,0,,
56237,control_change,65,0,4,,,,,,,,,0,64,127,,
56240,note_on,0,0,2,,,,,,,,,0,,,57,48
56240,note_on,80,0,2,,,,,,,,,0,,,60,0
56320,note_on,80,0,2,,,,,,,,,0,,,57,0
56320,note_on,0,0,2,,,,,,,,,0,,,60,59
56400,note_on,0,0,2,,,,,,,,,0,,,57,51
56400,note_on,80,0,2,,,,,,,,,0,,,60,0
56480,note_on,80,0,2,,,,,,,,,0,,,57,0
56480,note_on,0,0,2,,,,,,,,,0,,,60,59
56560,note_on,0,0,2,,,,,,,,,0,,,57,51
56560,note_on,80,0,2,,,,,,,,,0,,,60,0
56640,note_on,0,0,1,,,,,,,,,0,,,65,0
56640,note_on,480,0,1,,,,,,,,,0,,,63,0
56640,note_on,480,0,3,,,,,,,,,0,,,65,77
56640,note_on,403,0,4,,,,,,,,,0,,,62,59
56640,note_on,80,0,2,,,,,,,,,0,,,57,0
56652,control_change,12,0,4,,,,,,,,,0,64,0,,
56714,control_change,62,0,4,,,,,,,,,0,64,127,,
56720,note_on,0,0,4,,,,,,,,,0,,,58,49
56720,note_on,6,0,4,,,,,,,,,0,,,62,0
56800,note_on,0,0,4,,,,,,,,,0,,,62,59
56800,note_on,80,0,4,,,,,,,,,0,,,58,0
56880,note_on,0,0,4,,,,,,,,,0,,,58,51
56880,note_on,80,0,4,,,,,,,,,0,,,62,0
56960,note_on,0,0,4,,,,,,,,,0,,,62,59
56960,note_on,80,0,4,,,,,,,,,0,,,58,0
57040,note_on,0,0,4,,,,,,,,,0,,,58,52
57040,note_on,80,0,4,,,,,,,,,0,,,62,0
57118,note_on,478,0,3,,,,,,,,,0,,,65,0
57120,note_on,480,0,2,,,,,,,,,0,,,63,62
57120,note_on,80,0,4,,,,,,,,,0,,,58,0
57120,set_tempo,960,1,0,,,,,,659341,,,,,,,
57120,note_on,480,0,1,,,,,,,,,0,,,65,64
57120,note_on,0,0,1,,,,,,,,,0,,,69,80
57131,control_change,11,0,4,,,,,,,,,0,64,0,,
57157,control_change,26,0,4,,,,,,,,,0,64,127,,
57200,note_on,80,0,2,,,,,,,,,0,,,63,0
57200,note_on,0,0,2,,,,,,,,,0,,,60,52
57280,note_on,80,0,2,,,,,,,,,0,,,60,0
57280,note_on,0,0,2,,,,,,,,,0,,,63,62
57360,note_on,0,0,2,,,,,,,,,0,,,60,54
57360,note_on,80,0,2,,,,,,,,,0,,,63,0
57440,note_on,80,0,2,,,,,,,,,0,,,60,0
57440,note_on,0,0,2,,,,,,,,,0,,,63,62
57520,note_on,80,0,2,,,,,,,,,0,,,63,0
57520,note_on,0,0,2,,,,,,,,,0,,,60,54
57600,note_on,443,0,4,,,,,,,,,0,,,65,63
57600,note_on,0,0,1,,,,,,,,,0,,,65,0
57600,note_on,80,0,2,,,,,,,,,0,,,60,0
57600,note_on,482,0,3,,,,,,,,,0,,,70,80
57600,note_on,480,0,1,,,,,,,,,0,,,69,0
57608,control_change,8,0,4,,,,,,,,,0,64,0,,
57641,control_change,33,0,4,,,,,,,,,0,64,127,,
57680,note_on,39,0,4,,,,,,,,,0,,,65,0
57680,note_on,0,0,4,,,,,,,,,0,,,62,52
57760,note_on,80,0,4,,,,,,,,,0,,,62,0
57760,note_on,0,0,4,,,,,,,,,0,,,65,63
57840,note_on,80,0,4,,,,,,,,,0,,,65,0
57840,note_on,0,0,4,,,,,,,,,0,,,62,54
57920,note_on,80,0,4,,,,,,,,,0,,,62,0
57920,note_on,0,0,4,,,,,,,,,0,,,65,63
58000,note_on,0,0,4,,,,,,,,,0,,,62,54
58000,note_on,80,0,4,,,,,,,,,0,,,65,0
58078,note_on,478,0,3,,,,,,,,,0,,,70,0
58080,note_on,480,0,2,,,,,,,,,0,,,66,63
58080,note_on,80,0,4,,,,,,,,,0,,,62,0
58080,note_on,480,0,1,,,,,,,,,0,,,70,80
58080,set_tempo,960,1,0,,,,,,648649,,,,,,,
58090,control_change,10,0,4,,,,,,,,,0,64,0,,
58113,control_change,23,0,4,,,,,,,,,0,64,127,,
58160,note_on,80,0,2,,,,,,,,,0,,,66,0
58160,note_on,0,0,2,,,,,,,,,0,,,63,52
58240,note_on,0,0,2,,,,,,,,,0,,,66,63
58240,note_on,80,0,2,,,,,,,,,0,,,63,0
58320,note_on,80,0,2,,,,,,,,,0,,,66,0
58320,note_on,0,0,2,,,,,,,,,0,,,63,55
58400,note_on,80,0,2,,,,,,,,,0,,,63,0
58400,note_on,0,0,2,,,,,,,,,0,,,66,63
58480,note_on,80,0,2,,,,,,,,,0,,,66,0
58480,note_on,0,0,2,,,,,,,,,0,,,63,55
58560,set_tempo,480,1,0,,,,,,662983,,,,,,,
58560,note_on,447,0,4,,,,,,,,,0,,,67,63
58560,note_on,480,0,1,,,,,,,,,0,,,70,0
58560,note_on,0,0,3,,,,,,,,,0,,,72,85
58560,note_on,80,0,2,,,,,,,,,0,,,63,0
58560,note_on,482,0,3,,,,,,,,,0,,,70,68
58571,control_change,11,0,4,,,,,,,,,0,64,0,,
58603,control_change,32,0,4,,,,,,,,,0,64,127,,
58640,note_on,0,0,4,,,,,,,,,0,,,64,53
58640,note_on,37,0,4,,,,,,,,,0,,,67,0
58720,note_on,0,0,4,,,,,,,,,0,,,67,64
58720,note_on,80,0,4,,,,,,,,,0,,,64,0
58800,note_on,80,0,4,,,,,,,,,0,,,67,0
58800,note_on,0,0,4,,,,,,,,,0,,,64,55
58880,note_on,80,0,4,,,,,,,,,0,,,64,0
58880,note_on,0,0,4,,,,,,,,,0,,,67,64
58960,note_on,80,0,4,,,,,,,,,0,,,67,0
58960,note_on,0,0,4,,,,,,,,,0,,,64,55
59040,note_on,480,0,3,,,,,,,,,0,,,72,0
59040,note_on,480,0,1,,,,,,,,,0,,,73,84
59040,note_on,80,0,4,,,,,,,,,0,,,64,0
59040,set_tempo,480,1,0,,,,,,676437,,,,,,,
59040,note_on,480,0,2,,,,,,,,,0,,,67,52
59040,note_on,0,0,2,,,,,,,,,0,,,70,66
59040,note_on,0,0,3,,,,,,,,,0,,,70,0
59052,control_change,12,0,4,,,,,,,,,0,64,0,,
59088,control_change,36,0,4,,,,,,,,,0,64,127,,
59120,note_on,0,0,2,,,,,,,,,0,,,64,53
59120,note_on,0,0,2,,,,,,,,,0,,,67,0
59120,note_on,80,0,2,,,,,,,,,0,,,70,0
59200,note_on,0,0,2,,,,,,,,,0,,,70,66
59200,note_on,80,0,2,,,,,,,,,0,,,64,0
59200,note_on,0,0,2,,,,,,,,,0,,,67,52
59280,note_on,0,0,2,,,,,,,,,0,,,64,55
59280,note_on,80,0,2,,,,,,,,,0,,,70,0
59280,note_on,0,0,2,,,,,,,,,0,,,67,0
59360,note_on,80,0,2,,,,,,,,,0,,,64,0
59360,note_on,0,0,2,,,,,,,,,0,,,70,66
59360,note_on,0,0,2,,,,,,,,,0,,,67,52
59440,note_on,0,0,2,,,,,,,,,0,,,67,0
59440,note_on,0,0,2,,,,,,,,,0,,,64,56
59440,note_on,80,0,2,,,,,,,,,0,,,70,0
59520,note_on,432,0,4,,,,,,,,,0,,,70,52
59520,note_on,0,0,4,,,,,,,,,0,,,73,66
59520,note_on,80,0,2,,,,,,,,,0,,,64,0
59520,note_on,480,0,3,,,,,,,,,0,,,79,87
59520,note_on,480,0,1,,,,,,,,,0,,,73,0
59520,set_tempo,480,1,0,,,,,,684463,,,,,,,
59600,note_on,80,0,4,,,,,,,,,0,,,73,0
59600,note_on,0,0,4,,,,,,,,,0,,,64,55
59600,note_on,0,0,4,,,,,,,,,0,,,70,0
59680,note_on,0,0,4,,,,,,,,,0,,,70,52
59680,note_on,80,0,4,,,,,,,,,0,,,64,0
59680,note_on,0,0,4,,,,,,,,,0,,,73,66
59760,note_on,0,0,4,,,,,,,,,0,,,70,0
59760,note_on,0,0,4,,,,,,,,,0,,,64,58
59760,note_on,80,0,4,,,,,,,,,0,,,73,0
59840,note_on,0,0,4,,,,,,,,,0,,,73,66
59840,note_on,80,0,4,,,,,,,,,0,,,64,0
59840,note_on,0,0,4,,,,,,,,,0,,,70,52
59920,note_on,80,0,4,,,,,,,,,0,,,73,0
59920,note_on,0,0,4,,,,,,,,,0,,,70,0
59920,note_on,0,0,4,,,,,,,,,0,,,64,58
60000,set_tempo,480,1,0,,,,,,696945,,,,,,,
60000,note_on,80,0,4,,,,,,,,,0,,,64,0
60000,note_on,480,0,1,,,,,,,,,0,,,82,88
60000,note_on,480,0,3,,,,,,,,,0,,,79,0
60000,note_on,480,0,2,,,,,,,,,0,,,73,54
60000,note_on,0,0,2,,,,,,,,,0,,,76,68
60080,note_on,0,0,2,,,,,,,,,0,,,73,0
60080,note_on,80,0,2,,,,,,,,,0,,,76,0
60080,note_on,0,0,2,,,,,,,,,0,,,67,55
60160,note_on,80,0,2,,,,,,,,,0,,,67,0
60160,note_on,0,0,2,,,,,,,,,0,,,73,54
60160,note_on,0,0,2,,,,,,,,,0,,,76,68
60240,note_on,0,0,2,,,,,,,,,0,,,67,58
60240,note_on,80,0,2,,,,,,,,,0,,,76,0
60240,note_on,0,0,2,,,,,,,,,0,,,73,0
60320,note_on,0,0,2,,,,,,,,,0,,,73,54
60320,note_on,0,0,2,,,,,,,,,0,,,76,68
60320,note_on,80,0,2,,,,,,,,,0,,,67,0
60400,note_on,0,0,2,,,,,,,,,0,,,64,58
60400,note_on,0,0,2,,,,,,,,,0,,,73,0
60400,note_on,80,0,2,,,,,,,,,0,,,76,0
60480,set_tempo,480,1,0,,,,,,714286,,,,,,,
60480,note_on,480,0,1,,,,,,,,,0,,,82,0
60480,note_on,0,0,4,,,,,,,,,0,,,74,66
60480,note_on,480,0,3,,,,,,,,,0,,,77,85
60480,note_on,480,0,4,,,,,,,,,0,,,70,52
60480,note_on,80,0,2,,,,,,,,,0,,,64,0
60500,set_tempo,20,1,0,,,,,,696945,,,,,,,
60519,control_change,39,0,4,,,,,,,,,0,64,0,,
60560,note_on,41,0,4,,,,,,,,,0,,,74,0
60560,note_on,0,0,4,,,,,,,,,0,,,70,0
60560,note_on,0,0,4,,,,,,,,,0,,,65,55
60572,control_change,12,0,4,,,,,,,,,0,64,127,,
60640,note_on,0,0,4,,,,,,,,,0,,,74,65
60640,note_on,0,0,4,,,,,,,,,0,,,70,52
60640,note_on,68,0,4,,,,,,,,,0,,,65,0
60720,note_on,80,0,4,,,,,,,,,0,,,74,0
60720,note_on,0,0,4,,,,,,,,,0,,,70,0
60720,note_on,0,0,4,,,,,,,,,0,,,65,56
60800,note_on,80,0,4,,,,,,,,,0,,,65,0
60800,note_on,0,0,4,,,,,,,,,0,,,70,51
60800,note_on,0,0,4,,,,,,,,,0,,,74,64
60880,note_on,0,0,4,,,,,,,,,0,,,65,56
60880,note_on,0,0,4,,,,,,,,,0,,,70,0
60880,note_on,80,0,4,,,,,,,,,0,,,74,0
60960,note_on,480,0,1,,,,,,,,,0,,,74,80
60960,note_on,480,0,2,,,,,,,,,0,,,65,51
60960,note_on,480,0,3,,,,,,,,,0,,,77,0
60960,note_on,0,0,2,,,,,,,,,0,,,70,64
60960,set_tempo,460,1,0,,,,,,714286,,,,,,,
60960,note_on,80,0,4,,,,,,,,,0,,,65,0
61040,note_on,0,0,2,,,,,,,,,0,,,65,0
61040,note_on,80,0,2,,,,,,,,,0,,,70,0
61040,note_on,0,0,2,,,,,,,,,0,,,62,53
61120,note_on,0,0,2,,,,,,,,,0,,,65,51
61120,note_on,80,0,2,,,,,,,,,0,,,62,0
61120,note_on,0,0,2,,,,,,,,,0,,,70,64
61200,note_on,80,0,2,,,,,,,,,0,,,70,0
61200,note_on,0,0,2,,,,,,,,,0,,,62,55
61200,note_on,0,0,2,,,,,,,,,0,,,65,0
61280,note_on,80,0,2,,,,,,,,,0,,,62,0
61280,note_on,0,0,2,,,,,,,,,0,,,70,63
61280,note_on,0,0,2,,,,,,,,,0,,,65,50
61360,note_on,0,0,2,,,,,,,,,0,,,62,55
61360,note_on,0,0,2,,,,,,,,,0,,,65,0
61360,note_on,80,0,2,,,,,,,,,0,,,70,0
61440,set_tempo,480,1,0,,,,,,741931,,,,,,,
61440,note_on,80,0,2,,,,,,,,,0,,,62,0
61440,note_on,480,0,1,,,,,,,,,0,,,74,0
61440,note_on,480,0,4,,,,,,,,,0,,,62,49
61440,note_on,480,0,3,,,,,,,,,0,,,70,78
61440,note_on,0,0,4,,,,,,,,,0,,,65,62
61520,note_on,80,0,4,,,,,,,,,0,,,65,0
61520,note_on,0,0,4,,,,,,,,,0,,,62,0
61520,note_on,0,0,4,,,,,,,,,0,,,58,52
61600,note_on,80,0,4,,,,,,,,,0,,,58,0
61600,note_on,0,0,4,,,,,,,,,0,,,62,49
61600,note_on,0,0,4,,,,,,,,,0,,,65,61
61680,note_on,80,0,4,,,,,,,,,0,,,65,0
61680,note_on,0,0,4,,,,,,,,,0,,,62,0
61680,note_on,0,0,4,,,,,,,,,0,,,58,53
61760,note_on,80,0,4,,,,,,,,,0,,,58,0
61760,note_on,0,0,4,,,,,,,,,0,,,62,48
61760,note_on,0,0,4,,,,,,,,,0,,,65,61
61840,note_on,0,0,4,,,,,,,,,0,,,58,53
61840,note_on,0,0,4,,,,,,,,,0,,,62,0
61840,note_on,80,0,4,,,,,,,,,0,,,65,0
61920,note_on,480,0,3,,,,,,,,,0,,,70,0
61920,note_on,480,0,2,,,,,,,,,0,,,58,49
61920,note_on,480,0,1,,,,,,,,,0,,,65,78
61920,note_on,0,0,2,,,,,,,,,0,,,62,61
61920,note_on,80,0,4,,,,,,,,,0,,,58,0
62000,note_on,80,0,2,,,,,,,,,0,,,62,0
62000,note_on,0,0,2,,,,,,,,,0,,,58,0
62000,note_on,0,0,2,,,,,,,,,0,,,53,51
62080,note_on,0,0,2,,,,,,,,,0,,,62,61
62080,note_on,0,0,2,,,,,,,,,0,,,58,48
62080,note_on,80,0,2,,,,,,,,,0,,,53,0
62160,note_on,0,0,2,,,,,,,,,0,,,53,53
62160,note_on,0,0,2,,,,,,,,,0,,,58,0
62160,note_on,80,0,2,,,,,,,,,0,,,62,0
62240,note_on,80,0,2,,,,,,,,,0,,,53,0
62240,note_on,0,0,2,,,,,,,,,0,,,58,48
62240,note_on,0,0,2,,,,,,,,,0,,,62,60
62320,note_on,0,0,2,,,,,,,,,0,,,58,0
62320,note_on,80,0,2,,,,,,,,,0,,,62,0
62320,note_on,0,0,2,,,,,,,,,0,,,53,52
62360,note_on,0,0,2,,,,,,,,,0,,,57,48
62360,note_on,40,0,2,,,,,,,,,0,,,53,0
62360,set_tempo,920,1,0,,,,,,1419782,,,,,,,
62380,note_on,20,0,2,,,,,,,,,0,,,60,57
62400,note_on,480,0,1,,,,,,,,,0,,,65,0
62400,set_tempo,40,1,0,,,,,,727802,,,,,,,
62400,note_on,0,0,1,,,,,,,,,0,,,66,72
62412,control_change,492,0,4,,,,,,,,,0,64,0,,
62467,control_change,55,0,4,,,,,,,,,0,64,127,,
62480,note_on,0,0,2,,,,,,,,,0,,,57,0
62480,note_on,100,0,2,,,,,,,,,0,,,60,0
62480,note_on,0,0,2,,,,,,,,,0,,,51,50
62560,note_on,0,0,2,,,,,,,,,0,,,60,58
62560,note_on,80,0,2,,,,,,,,,0,,,51,0
62560,note_on,0,0,2,,,,,,,,,0,,,57,58
62640,note_on,0,0,2,,,,,,,,,0,,,51,52
62640,note_on,80,0,2,,,,,,,,,0,,,60,0
62640,note_on,0,0,2,,,,,,,,,0,,,57,0
62720,note_on,0,0,2,,,,,,,,,0,,,57,56
62720,note_on,0,0,2,,,,,,,,,0,,,60,56
62720,note_on,80,0,2,,,,,,,,,0,,,51,0
62800,note_on,80,0,2,,,,,,,,,0,,,60,0
62800,note_on,0,0,2,,,,,,,,,0,,,57,0
62800,note_on,0,0,2,,,,,,,,,0,,,51,51
62880,note_on,960,0,3,,,,,,,,,0,,,57,68
62880,note_on,480,0,1,,,,,,,,,0,,,66,0
62880,note_on,413,0,4,,,,,,,,,0,,,48,43
62880,note_on,0,0,4,,,,,,,,,0,,,51,54
62880,set_tempo,480,1,0,,,,,,741931,,,,,,,
62880,note_on,80,0,2,,,,,,,,,0,,,51,0
62887,control_change,7,0,4,,,,,,,,,0,64,0,,
62919,control_change,32,0,4,,,,,,,,,0,64,127,,
62960,note_on,0,0,4,,,,,,,,,0,,,41,45
62960,note_on,0,0,4,,,,,,,,,0,,,48,0
62960,note_on,41,0,4,,,,,,,,,0,,,51,0
63040,note_on,0,0,4,,,,,,,,,0,,,48,43
63040,note_on,80,0,4,,,,,,,,,0,,,41,0
63040,note_on,0,0,4,,,,,,,,,0,,,51,54
63120,note_on,80,0,4,,,,,,,,,0,,,51,0
63120,note_on,0,0,4,,,,,,,,,0,,,41,46
63120,note_on,0,0,4,,,,,,,,,0,,,48,0
63200,note_on,80,0,4,,,,,,,,,0,,,41,0
63200,note_on,0,0,4,,,,,,,,,0,,,48,43
63200,note_on,0,0,4,,,,,,,,,0,,,51,54
63280,note_on,0,0,4,,,,,,,,,0,,,48,0
63280,note_on,80,0,4,,,,,,,,,0,,,51,0
63280,note_on,0,0,4,,,,,,,,,0,,,41,46
63360,note_on,0,0,3,,,,,,,,,0,,,58,67
63360,note_on,0,0,4,,,,,,,,,0,,,50,50
63360,note_on,480,0,3,,,,,,,,,0,,,57,0
63360,note_on,80,0,4,,,,,,,,,0,,,41,0
63367,control_change,7,0,4,,,,,,,,,0,64,0,,
63413,control_change,46,0,4,,,,,,,,,0,64,127,,
63440,note_on,27,0,4,,,,,,,,,0,,,50,0
63440,note_on,0,0,4,,,,,,,,,0,,,46,42
63520,note_on,80,0,4,,,,,,,,,0,,,46,0
63520,note_on,0,0,4,,,,,,,,,0,,,50,50
63600,note_on,0,0,4,,,,,,,,,0,,,46,40
63600,note_on,80,0,4,,,,,,,,,0,,,50,0
63680,note_on,80,0,4,,,,,,,,,0,,,46,0
63680,note_on,0,0,4,,,,,,,,,0,,,50,49
63760,note_on,80,0,4,,,,,,,,,0,,,50,0
63760,note_on,0,0,4,,,,,,,,,0,,,46,39
63800,set_tempo,920,1,0,,,,,,714286,,,,,,,
63840,note_on,0,0,3,,,,,,,,,0,,,57,65
63840,note_on,80,0,4,,,,,,,,,0,,,46,0
63840,note_on,0,0,4,,,,,,,,,0,,,50,49
63840,note_on,480,0,3,,,,,,,,,0,,,58,0
63852,control_change,12,0,4,,,,,,,,,0,64,0,,
63896,control_change,44,0,4,,,,,,,,,0,64,127,,
63920,note_on,24,0,4,,,,,,,,,0,,,50,0
63920,note_on,0,0,4,,,,,,,,,0,,,46,39
64000,note_on,80,0,4,,,,,,,,,0,,,46,0
64000,note_on,0,0,4,,,,,,,,,0,,,50,48
64080,note_on,80,0,4,,,,,,,,,0,,,50,0
64080,note_on,0,0,4,,,,,,,,,0,,,46,39
64160,note_on,80,0,4,,,,,,,,,0,,,46,0
64160,note_on,0,0,4,,,,,,,,,0,,,50,48
64240,note_on,0,0,4,,,,,,,,,0,,,46,38
64240,set_tempo,440,1,0,,,,,,718735,,,,,,,
64240,note_on,80,0,4,,,,,,,,,0,,,50,0
64320,note_on,0,0,4,,,,,,,,,0,,,50,47
64320,note_on,0,0,3,,,,,,,,,0,,,56,64
64320,note_on,480,0,3,,,,,,,,,0,,,57,0
64320,note_on,80,0,4,,,,,,,,,0,,,46,0
64329,control_change,9,0,4,,,,,,,,,0,64,0,,
64369,control_change,40,0,4,,,,,,,,,0,64,127,,
64400,note_on,0,0,4,,,,,,,,,0,,,46,38
64400,note_on,31,0,4,,,,,,,,,0,,,50,0
64480,note_on,0,0,4,,,,,,,,,0,,,50,47
64480,note_on,80,0,4,,,,,,,,,0,,,46,0
64560,note_on,0,0,4,,,,,,,,,0,,,46,38
64560,note_on,80,0,4,,,,,,,,,0,,,50,0
64640,note_on,80,0,4,,,,,,,,,0,,,46,0
64640,set_tempo,400,1,0,,,,,,723240,,,,,,,
64640,note_on,0,0,4,,,,,,,,,0,,,50,46
64720,note_on,0,0,4,,,,,,,,,0,,,46,34
64720,note_on,80,0,4,,,,,,,,,0,,,50,0
64800,note_on,480,0,3,,,,,,,,,0,,,56,0
64800,note_on,0,0,3,,,,,,,,,0,,,55,62
64800,note_on,80,0,4,,,,,,,,,0,,,46,0
64800,note_on,0,0,4,,,,,,,,,0,,,51,46
64814,control_change,14,0,4,,,,,,,,,0,64,0,,
64856,control_change,42,0,4,,,,,,,,,0,64,127,,
64880,note_on,24,0,4,,,,,,,,,0,,,51,0
64880,note_on,0,0,4,,,,,,,,,0,,,46,36
64960,note_on,0,0,4,,,,,,,,,0,,,51,45
64960,note_on,80,0,4,,,,,,,,,0,,,46,0
65040,note_on,0,0,4,,,,,,,,,0,,,46,34
65040,set_tempo,400,1,0,,,,,,727802,,,,,,,
65040,note_on,80,0,4,,,,,,,,,0,,,51,0
65120,note_on,80,0,4,,,,,,,,,0,,,46,0
65120,note_on,0,0,4,,,,,,,,,0,,,51,45
65200,note_on,0,0,4,,,,,,,,,0,,,46,34
65200,note_on,80,0,4,,,,,,,,,0,,,51,0
65280,note_on,0,0,4,,,,,,,,,0,,,51,44
65280,note_on,0,0,3,,,,,,,,,0,,,54,61
65280,note_on,480,0,3,,,,,,,,,0,,,55,0
65280,note_on,80,0,4,,,,,,,,,0,,,46,0
65292,control_change,12,0,4,,,,,,,,,0,64,0,,
65360,note_on,0,0,4,,,,,,,,,0,,,45,35
65360,note_on,68,0,4,,,,,,,,,0,,,51,0
65365,control_change,5,0,4,,,,,,,,,0,64,127,,
65440,note_on,0,0,4,,,,,,,,,0,,,51,44
65440,note_on,75,0,4,,,,,,,,,0,,,45,0
65440,set_tempo,400,1,0,,,,,,732422,,,,,,,
65520,note_on,0,0,4,,,,,,,,,0,,,45,33
65520,note_on,80,0,4,,,,,,,,,0,,,51,0
65600,note_on,0,0,4,,,,,,,,,0,,,51,43
65600,note_on,80,0,4,,,,,,,,,0,,,45,0
65680,note_on,0,0,4,,,,,,,,,0,,,45,33
65680,note_on,80,0,4,,,,,,,,,0,,,51,0
65760,note_on,480,0,3,,,,,,,,,0,,,54,0
65760,note_on,0,0,3,,,,,,,,,0,,,53,59
65760,note_on,0,0,4,,,,,,,,,0,,,51,43
65760,note_on,80,0,4,,,,,,,,,0,,,45,0
65771,control_change,11,0,4,,,,,,,,,0,64,0,,
65824,control_change,53,0,4,,,,,,,,,0,64,127,,
65840,set_tempo,400,1,0,,,,,,737101,,,,,,,
65840,note_on,0,0,4,,,,,,,,,0,,,45,33
65840,note_on,16,0,4,,,,,,,,,0,,,51,0
65920,note_on,80,0,4,,,,,,,,,0,,,45,0
65920,note_on,0,0,4,,,,,,,,,0,,,51,42
66000,note_on,80,0,4,,,,,,,,,0,,,51,0
66000,note_on,0,0,4,,,,,,,,,0,,,45,33
66080,note_on,0,0,4,,,,,,,,,0,,,51,42
66080,note_on,80,0,4,,,,,,,,,0,,,45,0
66160,set_tempo,320,1,0,,,,,,723240,,,,,,,
66160,note_on,80,0,4,,,,,,,,,0,,,51,0
66160,note_on,0,0,4,,,,,,,,,0,,,45,33
66200,set_tempo,40,1,0,,,,,,727802,,,,,,,
66240,note_on,0,0,3,,,,,,,,,0,,,53,59
66240,note_on,80,0,4,,,,,,,,,0,,,45,0
66240,control_change,0,0,4,,,,,,,,,0,64,0,,
66240,note_on,480,0,3,,,,,,,,,0,,,53,0
66240,note_on,0,0,4,,,,,,,,,0,,,51,44
66249,control_change,9,0,4,,,,,,,,,0,64,0,,
66289,control_change,40,0,4,,,,,,,,,0,64,127,,
66320,note_on,31,0,4,,,,,,,,,0,,,51,0
66320,note_on,0,0,4,,,,,,,,,0,,,46,36
66400,note_on,0,0,4,,,,,,,,,0,,,51,44
66400,note_on,80,0,4,,,,,,,,,0,,,46,0
66480,note_on,80,0,4,,,,,,,,,0,,,51,0
66480,note_on,0,0,4,,,,,,,,,0,,,46,36
66560,note_on,0,0,4,,,,,,,,,0,,,51,43
66560,note_on,80,0,4,,,,,,,,,0,,,46,0
66640,note_on,80,0,4,,,,,,,,,0,,,51,0
66640,note_on,0,0,4,,,,,,,,,0,,,46,32
66720,note_on,0,0,4,,,,,,,,,0,,,51,43
66720,note_on,80,0,4,,,,,,,,,0,,,46,0
66720,set_tempo,520,1,0,,,,,,732422,,,,,,,
66800,note_on,80,0,4,,,,,,,,,0,,,51,0
66800,note_on,0,0,4,,,,,,,,,0,,,46,34
66880,note_on,0,0,4,,,,,,,,,0,,,51,42
66880,note_on,80,0,4,,,,,,,,,0,,,46,0
66960,note_on,0,0,4,,,,,,,,,0,,,46,32
66960,note_on,80,0,4,,,,,,,,,0,,,51,0
67040,note_on,80,0,4,,,,,,,,,0,,,46,0
67040,note_on,0,0,4,,,,,,,,,0,,,51,42
67120,note_on,0,0,4,,,,,,,,,0,,,46,32
67120,note_on,80,0,4,,,,,,,,,0,,,51,0
67200,note_on,0,0,4,,,,,,,,,0,,,50,41
67200,note_on,80,0,4,,,,,,,,,0,,,46,0
67200,note_on,0,0,3,,,,,,,,,0,,,53,56
67200,set_tempo,480,1,0,,,,,,737101,,,,,,,
67200,note_on,960,0,3,,,,,,,,,0,,,53,0
67212,control_change,12,0,4,,,,,,,,,0,64,0,,
67280,note_on,68,0,4,,,,,,,,,0,,,50,0
67280,note_on,0,0,4,,,,,,,,,0,,,46,33
67285,control_change,5,0,4,,,,,,,,,0,64,127,,
67360,note_on,0,0,4,,,,,,,,,0,,,50,41
67360,note_on,75,0,4,,,,,,,,,0,,,46,0
67440,note_on,80,0,4,,,,,,,,,0,,,50,0
67440,note_on,0,0,4,,,,,,,,,0,,,46,31
67520,note_on,80,0,4,,,,,,,,,0,,,46,0
67520,note_on,0,0,4,,,,,,,,,0,,,50,40
67600,note_on,0,0,4,,,,,,,,,0,,,46,31
67600,note_on,80,0,4,,,,,,,,,0,,,50,0
67680,set_tempo,480,1,0,,,,,,741931,,,,,,,
67680,note_on,80,0,4,,,,,,,,,0,,,46,0
67680,note_on,0,0,4,,,,,,,,,0,,,50,40
67760,note_on,80,0,4,,,,,,,,,0,,,50,0
67760,note_on,0,0,4,,,,,,,,,0,,,46,31
67840,note_on,80,0,4,,,,,,,,,0,,,46,0
67840,note_on,0,0,4,,,,,,,,,0,,,50,39
67920,note_on,80,0,4,,,,,,,,,0,,,50,0
67920,note_on,0,0,4,,,,,,,,,0,,,46,31
68000,note_on,80,0,4,,,,,,,,,0,,,46,0
68000,note_on,0,0,4,,,,,,,,,0,,,50,39
68080,note_on,80,0,4,,,,,,,,,0,,,50,0
68080,note_on,0,0,4,,,,,,,,,0,,,46,31
68160,note_on,5280,0,1,,,,,,,,,0,,,50,74
68160,note_on,80,0,4,,,,,,,,,0,,,46,0
68160,set_tempo,480,1,0,,,,,,746733,,,,,,,
68160,note_on,0,0,4,,,,,,,,,0,,,48,56
68160,note_on,960,0,3,,,,,,,,,0,,,53,0
68160,note_on,0,0,1,,,,,,,,,0,,,62,74
68160,control_change,0,0,4,,,,,,,,,0,64,0,,
68160,note_on,0,0,3,,,,,,,,,0,,,54,56
68224,control_change,64,0,4,,,,,,,,,0,64,127,,
68240,note_on,0,0,4,,,,,,,,,0,,,45,47
68240,note_on,16,0,4,,,,,,,,,0,,,48,0
68320,note_on,80,0,4,,,,,,,,,0,,,45,0
68320,note_on,0,0,4,,,,,,,,,0,,,48,56
68400,note_on,0,0,4,,,,,,,,,0,,,45,49
68400,note_on,80,0,4,,,,,,,,,0,,,48,0
68480,note_on,0,0,4,,,,,,,,,0,,,48,57
68480,note_on,80,0,4,,,,,,,,,0,,,45,0
68560,note_on,0,0,4,,,,,,,,,0,,,45,50
68560,note_on,80,0,4,,,,,,,,,0,,,48,0
68640,note_on,80,0,4,,,,,,,,,0,,,45,0
68640,set_tempo,480,1,0,,,,,,779221,,,,,,,
68640,note_on,0,0,4,,,,,,,,,0,,,48,58
68720,note_on,0,0,4,,,,,,,,,0,,,45,52
68720,note_on,80,0,4,,,,,,,,,0,,,48,0
68800,note_on,0,0,4,,,,,,,,,0,,,48,59
68800,note_on,80,0,4,,,,,,,,,0,,,45,0
68880,set_tempo,240,1,0,,,,,,864678,,,,,,,
68880,note_on,0,0,4,,,,,,,,,0,,,45,52
68880,note_on,0,0,1,,,,,,,,,0,,,50,75
68880,note_on,0,0,1,,,,,,,,,0,,,62,75
68880,note_on,720,0,1,,,,,,,,,0,,,62,0
68880,note_on,80,0,4,,,,,,,,,0,,,48,0
68880,note_on,0,0,1,,,,,,,,,0,,,50,0
68960,note_on,0,0,4,,,,,,,,,0,,,48,60
68960,note_on,80,0,4,,,,,,,,,0,,,45,0
69040,note_on,0,0,4,,,,,,,,,0,,,45,53
69040,note_on,80,0,4,,,,,,,,,0,,,48,0
69100,set_tempo,220,1,0,,,,,,745342,,,,,,,
69120,control_change,0,0,4,,,,,,,,,0,64,0,,
69120,note_on,0,0,2,,,,,,,,,0,,,59,59
69120,note_on,6240,0,2,,,,,,,,,0,,,50,59
69120,note_on,0,0,1,,,,,,,,,0,,,50,0
69120,note_on,0,0,3,,,,,,,,,0,,,31,56
69120,note_on,80,0,4,,,,,,,,,0,,,45,0
69120,note_on,960,0,3,,,,,,,,,0,,,54,0
69120,note_on,0,0,3,,,,,,,,,0,,,35,56
69120,note_on,0,0,3,,,,,,,,,0,,,43,67
69120,note_on,240,0,1,,,,,,,,,0,,,62,0
69120,note_on,0,0,3,,,,,,,,,0,,,38,56
69180,note_on,60,0,2,,,,,,,,,0,,,59,0
69180,set_tempo,80,1,0,,,,,,740741,,,,,,,
69180,control_change,60,0,4,,,,,,,,,0,64,127,,
69180,note_on,0,0,2,,,,,,,,,0,,,50,0
69180,note_on,0,0,2,,,,,,,,,0,,,62,51
69240,note_on,60,0,2,,,,,,,,,0,,,62,0
69240,note_on,0,0,2,,,,,,,,,0,,,59,59
69240,note_on,0,0,2,,,,,,,,,0,,,50,59
69260,set_tempo,80,1,0,,,,,,736196,,,,,,,
69300,note_on,0,0,2,,,,,,,,,0,,,62,52
69300,note_on,60,0,2,,,,,,,,,0,,,59,0
69300,note_on,0,0,2,,,,,,,,,0,,,50,0
69340,set_tempo,80,1,0,,,,,,731707,,,,,,,
69360,note_on,0,0,2,,,,,,,,,0,,,59,58
69360,note_on,0,0,2,,,,,,,,,0,,,50,58
69360,note_on,60,0,2,,,,,,,,,0,,,62,0
69400,set_tempo,60,1,0,,,,,,727273,,,,,,,
69420,note_on,0,0,2,,,,,,,,,0,,,50,0
69420,note_on,60,0,2,,,,,,,,,0,,,59,0
69420,note_on,0,0,2,,,,,,,,,0,,,62,50
69480,note_on,0,0,2,,,,,,,,,0,,,59,57
69480,note_on,60,0,2,,,,,,,,,0,,,62,0
69480,note_on,0,0,2,,,,,,,,,0,,,50,57
69480,set_tempo,80,1,0,,,,,,722892,,,,,,,
69540,note_on,0,0,2,,,,,,,,,0,,,62,52
69540,note_on,60,0,2,,,,,,,,,0,,,59,0
69540,note_on,0,0,2,,,,,,,,,0,,,50,0
69560,set_tempo,80,1,0,,,,,,718563,,,,,,,
69600,note_on,0,0,2,,,,,,,,,0,,,50,57
69600,note_on,0,0,2,,,,,,,,,0,,,59,57
69600,note_on,60,0,2,,,,,,,,,0,,,62,0
69620,set_tempo,60,1,0,,,,,,714286,,,,,,,
69660,note_on,60,0,2,,,,,,,,,0,,,59,0
69660,note_on,0,0,2,,,,,,,,,0,,,62,49
69660,note_on,0,0,2,,,,,,,,,0,,,50,0
69700,set_tempo,80,1,0,,,,,,710059,,,,,,,
69720,note_on,60,0,2,,,,,,,,,0,,,62,0
69720,note_on,0,0,2,,,,,,,,,0,,,59,56
69720,note_on,0,0,2,,,,,,,,,0,,,50,56
69780,note_on,0,0,2,,,,,,,,,0,,,50,0
69780,set_tempo,80,1,0,,,,,,705882,,,,,,,
69780,note_on,0,0,2,,,,,,,,,0,,,62,50
69780,note_on,60,0,2,,,,,,,,,0,,,59,0
69840,note_on,0,0,2,,,,,,,,,0,,,59,56
69840,set_tempo,60,1,0,,,,,,701754,,,,,,,
69840,note_on,0,0,2,,,,,,,,,0,,,50,56
69840,note_on,60,0,2,,,,,,,,,0,,,62,0
69900,note_on,0,0,2,,,,,,,,,0,,,50,0
69900,note_on,60,0,2,,,,,,,,,0,,,59,0
69900,note_on,0,0,2,,,,,,,,,0,,,62,49
69960,note_on,60,0,2,,,,,,,,,0,,,62,0
69960,note_on,0,0,2,,,,,,,,,0,,,59,55
69960,note_on,0,0,2,,,,,,,,,0,,,50,55
69980,set_tempo,140,1,0,,,,,,701754,,,,,,,
70020,note_on,60,0,2,,,,,,,,,0,,,59,0
70020,note_on,0,0,2,,,,,,,,,0,,,62,50
70020,note_on,0,0,2,,,,,,,,,0,,,50,0
70060,set_tempo,80,1,0,,,,,,705882,,,,,,,
70080,note_on,0,0,3,,,,,,,,,0,,,31,0
70080,note_on,0,0,3,,,,,,,,,0,,,35,0
70080,note_on,0,0,3,,,,,,,,,0,,,38,0
70080,note_on,60,0,2,,,,,,,,,0,,,62,0
70080,note_on,0,0,2,,,,,,,,,0,,,59,55
70080,note_on,0,0,2,,,,,,,,,0,,,50,55
70080,note_on,960,0,3,,,,,,,,,0,,,43,0
70140,note_on,60,0,2,,,,,,,,,0,,,59,0
70140,note_on,0,0,2,,,,,,,,,0,,,62,47
70140,note_on,0,0,2,,,,,,,,,0,,,50,0
70140,set_tempo,80,1,0,,,,,,710059,,,,,,,
70200,note_on,60,0,2,,,,,,,,,0,,,62,0
70200,note_on,0,0,2,,,,,,,,,0,,,50,54
70200,note_on,0,0,2,,,,,,,,,0,,,59,54
70200,set_tempo,60,1,0,,,,,,714286,,,,,,,
70260,note_on,60,0,2,,,,,,,,,0,,,59,0
70260,note_on,0,0,2,,,,,,,,,0,,,62,48
70260,note_on,0,0,2,,,,,,,,,0,,,50,0
70280,set_tempo,80,1,0,,,,,,718563,,,,,,,
70320,note_on,0,0,2,,,,,,,,,0,,,59,54
70320,note_on,60,0,2,,,,,,,,,0,,,62,0
70320,note_on,0,0,2,,,,,,,,,0,,,50,54
70360,set_tempo,80,1,0,,,,,,722892,,,,,,,
70380,note_on,60,0,2,,,,,,,,,0,,,59,0
70380,note_on,0,0,2,,,,,,,,,0,,,62,47
70380,note_on,0,0,2,,,,,,,,,0,,,50,0
70420,set_tempo,60,1,0,,,,,,727273,,,,,,,
70440,note_on,60,0,2,,,,,,,,,0,,,62,0
70440,note_on,0,0,2,,,,,,,,,0,,,50,53
70440,note_on,0,0,2,,,,,,,,,0,,,59,53
70500,note_on,0,0,2,,,,,,,,,0,,,62,48
70500,set_tempo,80,1,0,,,,,,731707,,,,,,,
70500,note_on,60,0,2,,,,,,,,,0,,,59,0
70500,note_on,0,0,2,,,,,,,,,0,,,50,0
70560,note_on,1440,0,1,,,,,,,,,0,,,67,79
70560,note_on,0,0,1,,,,,,,,,0,,,79,79
70560,note_on,60,0,2,,,,,,,,,0,,,62,0
70560,set_tempo,60,1,0,,,,,,736196,,,,,,,
70560,note_on,1380,0,4,,,,,,,,,0,,,47,72
70571,control_change,11,0,4,,,,,,,,,0,64,0,,
70603,control_change,32,0,4,,,,,,,,,0,64,127,,
70640,note_on,37,0,4,,,,,,,,,0,,,47,0
70640,note_on,0,0,4,,,,,,,,,0,,,55,62
70720,note_on,0,0,4,,,,,,,,,0,,,47,71
70720,note_on,80,0,4,,,,,,,,,0,,,55,0
70800,note_on,80,0,4,,,,,,,,,0,,,47,0
70800,note_on,0,0,4,,,,,,,,,0,,,55,59
70880,note_on,80,0,4,,,,,,,,,0,,,55,0
70880,note_on,0,0,4,,,,,,,,,0,,,47,71
70960,note_on,80,0,4,,,,,,,,,0,,,47,0
70960,note_on,0,0,4,,,,,,,,,0,,,55,62
71040,note_on,0,0,1,,,,,,,,,0,,,66,77
71040,note_on,0,0,1,,,,,,,,,0,,,67,0
71040,note_on,80,0,4,,,,,,,,,0,,,55,0
71040,note_on,0,0,1,,,,,,,,,0,,,78,77
71040,note_on,480,0,1,,,,,,,,,0,,,79,0
71040,note_on,0,0,4,,,,,,,,,0,,,48,71
71050,control_change,10,0,4,,,,,,,,,0,64,0,,
71091,control_change,41,0,4,,,,,,,,,0,64,127,,
71120,note_on,29,0,4,,,,,,,,,0,,,48,0
71120,note_on,0,0,4,,,,,,,,,0,,,57,62
71200,note_on,0,0,4,,,,,,,,,0,,,48,70
71200,note_on,80,0,4,,,,,,,,,0,,,57,0
71280,note_on,0,0,4,,,,,,,,,0,,,57,59
71280,note_on,80,0,4,,,,,,,,,0,,,48,0
71360,note_on,0,0,4,,,,,,,,,0,,,48,69
71360,note_on,80,0,4,,,,,,,,,0,,,57,0
71440,note_on,0,0,4,,,,,,,,,0,,,57,59
71440,note_on,80,0,4,,,,,,,,,0,,,48,0
71520,note_on,80,0,4,,,,,,,,,0,,,57,0
71520,note_on,0,0,1,,,,,,,,,0,,,65,75
71520,note_on,0,0,1,,,,,,,,,0,,,66,0
71520,note_on,0,0,4,,,,,,,,,0,,,50,69
71520,note_on,480,0,1,,,,,,,,,0,,,78,0
71520,set_tempo,960,1,0,,,,,,766675,,,,,,,
71520,note_on,0,0,1,,,,,,,,,0,,,77,75
71529,control_change,9,0,4,,,,,,,,,0,64,0,,
71563,control_change,34,0,4,,,,,,,,,0,64,127,,
71600,note_on,0,0,4,,,,,,,,,0,,,59,60
71600,note_on,37,0,4,,,,,,,,,0,,,50,0
71680,note_on,80,0,4,,,,,,,,,0,,,59,0
71680,note_on,0,0,4,,,,,,,,,0,,,50,71
71760,note_on,0,0,4,,,,,,,,,0,,,59,64
71760,note_on,80,0,4,,,,,,,,,0,,,50,0
71840,note_on,0,0,4,,,,,,,,,0,,,50,72
71840,note_on,80,0,4,,,,,,,,,0,,,59,0
71920,note_on,80,0,4,,,,,,,,,0,,,50,0
71920,note_on,0,0,4,,,,,,,,,0,,,59,66
72000,note_on,80,0,4,,,,,,,,,0,,,59,0
72000,note_on,0,0,1,,,,,,,,,0,,,75,74
72000,note_on,0,0,1,,,,,,,,,0,,,65,0
72000,note_on,0,0,1,,,,,,,,,0,,,63,74
72000,note_on,480,0,1,,,,,,,,,0,,,77,0
72000,note_on,0,0,4,,,,,,,,,0,,,51,75
72000,set_tempo,480,1,0,,,,,,732422,,,,,,,
72009,control_change,9,0,4,,,,,,,,,0,64,0,,
72043,control_change,34,0,4,,,,,,,,,0,64,127,,
72080,note_on,37,0,4,,,,,,,,,0,,,51,0
72080,note_on,0,0,4,,,,,,,,,0,,,60,61
72160,note_on,0,0,4,,,,,,,,,0,,,51,67
72160,note_on,80,0,4,,,,,,,,,0,,,60,0
72240,note_on,0,0,4,,,,,,,,,0,,,60,58
72240,note_on,80,0,4,,,,,,,,,0,,,51,0
72320,note_on,80,0,4,,,,,,,,,0,,,60,0
72320,note_on,0,0,4,,,,,,,,,0,,,51,67
72400,note_on,0,0,4,,,,,,,,,0,,,60,58
72400,note_on,80,0,4,,,,,,,,,0,,,51,0
72480,note_on,0,0,4,,,,,,,,,0,,,53,66
72480,set_tempo,480,1,0,,,,,,751597,,,,,,,
72480,note_on,0,0,1,,,,,,,,,0,,,63,0
72480,note_on,0,0,1,,,,,,,,,0,,,71,73
72480,note_on,0,0,1,,,,,,,,,0,,,68,66
72480,note_on,0,0,1,,,,,,,,,0,,,74,73
72480,note_on,480,0,1,,,,,,,,,0,,,75,0
72480,note_on,80,0,4,,,,,,,,,0,,,60,0
72494,control_change,14,0,4,,,,,,,,,0,64,0,,
72520,control_change,26,0,4,,,,,,,,,0,64,127,,
72560,note_on,40,0,4,,,,,,,,,0,,,53,0
72560,note_on,0,0,4,,,,,,,,,0,,,62,59
72640,note_on,80,0,4,,,,,,,,,0,,,62,0
72640,note_on,0,0,4,,,,,,,,,0,,,53,65
72720,note_on,0,0,4,,,,,,,,,0,,,62,57
72720,note_on,80,0,4,,,,,,,,,0,,,53,0
72800,note_on,0,0,4,,,,,,,,,0,,,53,65
72800,note_on,80,0,4,,,,,,,,,0,,,62,0
72880,note_on,80,0,4,,,,,,,,,0,,,53,0
72880,note_on,0,0,4,,,,,,,,,0,,,62,57
72960,note_on,80,0,4,,,,,,,,,0,,,62,0
72960,note_on,0,0,4,,,,,,,,,0,,,55,64
72960,note_on,480,0,1,,,,,,,,,0,,,74,0
72960,note_on,0,0,1,,,,,,,,,0,,,67,71
72960,note_on,0,0,1,,,,,,,,,0,,,68,0
72960,note_on,0,0,1,,,,,,,,,0,,,71,0
72960,note_on,0,0,1,,,,,,,,,0,,,72,71
72971,control_change,11,0,4,,,,,,,,,0,64,0,,
72997,control_change,26,0,4,,,,,,,,,0,64,127,,
73040,note_on,43,0,4,,,,,,,,,0,,,55,0
73040,note_on,0,0,4,,,,,,,,,0,,,63,57
73120,note_on,0,0,4,,,,,,,,,0,,,55,63
73120,note_on,80,0,4,,,,,,,,,0,,,63,0
73200,note_on,80,0,4,,,,,,,,,0,,,55,0
73200,note_on,0,0,4,,,,,,,,,0,,,63,56
73280,note_on,80,0,4,,,,,,,,,0,,,63,0
73280,note_on,0,0,4,,,,,,,,,0,,,55,64
73360,note_on,80,0,4,,,,,,,,,0,,,55,0
73360,note_on,0,0,4,,,,,,,,,0,,,63,57
73440,note_on,2880,0,2,,,,,,,,,0,,,63,70
73440,note_on,3360,0,3,,,,,,,,,0,,,27,62
73440,note_on,80,0,4,,,,,,,,,0,,,63,0
73440,set_tempo,960,1,0,,,,,,714286,,,,,,,
73440,note_on,0,0,1,,,,,,,,,0,,,67,0
73440,note_on,480,0,1,,,,,,,,,0,,,72,0
73440,note_on,0,0,2,,,,,,,,,0,,,55,70
73440,note_on,0,0,3,,,,,,,,,0,,,39,74
73477,control_change,37,0,4,,,,,,,,,0,64,0,,
73511,control_change,34,0,4,,,,,,,,,0,64,127,,
73520,note_on,80,0,2,,,,,,,,,0,,,55,0
73520,note_on,0,0,2,,,,,,,,,0,,,63,0
73520,note_on,0,0,2,,,,,,,,,0,,,67,57
73560,set_tempo,120,1,0,,,,,,710059,,,,,,,
73600,note_on,0,0,2,,,,,,,,,0,,,63,65
73600,note_on,0,0,2,,,,,,,,,0,,,55,65
73600,note_on,80,0,2,,,,,,,,,0,,,67,0
73680,note_on,80,0,2,,,,,,,,,0,,,55,0
73680,note_on,0,0,2,,,,,,,,,0,,,63,0
73680,note_on,0,0,2,,,,,,,,,0,,,67,58
73680,set_tempo,120,1,0,,,,,,705882,,,,,,,
73760,note_on,80,0,2,,,,,,,,,0,,,67,0
73760,note_on,0,0,2,,,,,,,,,0,,,55,67
73760,note_on,0,0,2,,,,,,,,,0,,,63,67
73800,set_tempo,120,1,0,,,,,,701754,,,,,,,
73840,note_on,80,0,2,,,,,,,,,0,,,63,0
73840,note_on,0,0,2,,,,,,,,,0,,,67,60
73840,note_on,0,0,2,,,,,,,,,0,,,55,0
73920,note_on,0,0,3,,,,,,,,,0,,,27,0
73920,note_on,0,0,2,,,,,,,,,0,,,62,74
73920,note_on,80,0,2,,,,,,,,,0,,,67,0
73920,note_on,0,0,2,,,,,,,,,0,,,53,74
73920,set_tempo,120,1,0,,,,,,697674,,,,,,,
73920,note_on,0,0,3,,,,,,,,,0,,,41,75
73920,note_on,480,0,3,,,,,,,,,0,,,39,0
73920,note_on,0,0,3,,,,,,,,,0,,,29,63
73969,control_change,458,0,4,,,,,,,,,0,64,0,,
73994,control_change,25,0,4,,,,,,,,,0,64,127,,
74000,note_on,0,0,2,,,,,,,,,0,,,62,0
74000,note_on,0,0,2,,,,,,,,,0,,,65,62
74000,note_on,80,0,2,,,,,,,,,0,,,53,0
74080,note_on,80,0,2,,,,,,,,,0,,,65,0
74080,note_on,0,0,2,,,,,,,,,0,,,53,69
74080,note_on,0,0,2,,,,,,,,,0,,,62,69
74160,note_on,0,0,2,,,,,,,,,0,,,62,0
74160,note_on,0,0,2,,,,,,,,,0,,,65,63
74160,note_on,80,0,2,,,,,,,,,0,,,53,0
74240,note_on,80,0,2,,,,,,,,,0,,,65,0
74240,note_on,0,0,2,,,,,,,,,0,,,53,70
74240,note_on,0,0,2,,,,,,,,,0,,,62,70
74320,note_on,80,0,2,,,,,,,,,0,,,62,0
74320,note_on,0,0,2,,,,,,,,,0,,,53,0
74320,note_on,0,0,2,,,,,,,,,0,,,65,64
74400,note_on,0,0,3,,,,,,,,,0,,,29,0
74400,note_on,0,0,2,,,,,,,,,0,,,60,78
74400,note_on,480,0,3,,,,,,,,,0,,,41,0
74400,note_on,80,0,2,,,,,,,,,0,,,65,0
74400,note_on,0,0,3,,,,,,,,,0,,,42,77
74400,note_on,0,0,2,,,,,,,,,0,,,51,78
74400,note_on,0,0,3,,,,,,,,,0,,,30,64
74406,control_change,412,0,4,,,,,,,,,0,64,0,,
74431,control_change,25,0,4,,,,,,,,,0,64,127,,
74480,note_on,0,0,2,,,,,,,,,0,,,60,0
74480,note_on,80,0,2,,,,,,,,,0,,,51,0
74480,note_on,0,0,2,,,,,,,,,0,,,63,65
74560,note_on,80,0,2,,,,,,,,,0,,,63,0
74560,note_on,0,0,2,,,,,,,,,0,,,60,73
74560,note_on,0,0,2,,,,,,,,,0,,,51,73
74640,note_on,80,0,2,,,,,,,,,0,,,51,0
74640,note_on,0,0,3,,,,,,,,,0,,,30,0
74640,set_tempo,720,1,0,,,,,,787608,,,,,,,
74640,note_on,0,0,2,,,,,,,,,0,,,63,67
74640,note_on,0,0,2,,,,,,,,,0,,,60,0
74640,note_on,240,0,3,,,,,,,,,0,,,42,0
74720,note_on,0,0,2,,,,,,,,,0,,,51,75
74720,note_on,0,0,2,,,,,,,,,0,,,60,75
74720,note_on,80,0,2,,,,,,,,,0,,,63,0
74760,note_on,120,0,3,,,,,,,,,0,,,31,65
74760,set_tempo,120,1,0,,,,,,1197844,,,,,,,
74790,note_on,30,0,3,,,,,,,,,0,,,31,0
74790,note_on,0,0,3,,,,,,,,,0,,,35,69
74800,note_on,80,0,2,,,,,,,,,0,,,60,0
74800,note_on,0,0,2,,,,,,,,,0,,,51,0
74800,note_on,0,0,2,,,,,,,,,0,,,63,69
74820,note_on,0,0,3,,,,,,,,,0,,,38,74
74820,note_on,30,0,3,,,,,,,,,0,,,35,0
74850,note_on,0,0,3,,,,,,,,,0,,,43,78
74850,note_on,30,0,3,,,,,,,,,0,,,38,0
74880,control_change,449,0,4,,,,,,,,,0,64,0,,
74880,note_on,0,0,3,,,,,,,,,0,,,74,89
74880,note_on,0,0,2,,,,,,,,,0,,,59,59
74880,note_on,30,0,3,,,,,,,,,0,,,43,0
74880,note_on,0,0,3,,,,,,,,,0,,,71,89
74880,note_on,80,0,2,,,,,,,,,0,,,63,0
74880,note_on,0,0,2,,,,,,,,,0,,,50,59
74880,set_tempo,120,1,0,,,,,,727802,,,,,,,
74923,control_change,43,0,4,,,,,,,,,0,64,127,,
74940,note_on,0,0,2,,,,,,,,,0,,,62,51
74940,note_on,60,0,2,,,,,,,,,0,,,59,0
74940,note_on,0,0,2,,,,,,,,,0,,,50,0
74960,set_tempo,80,1,0,,,,,,723240,,,,,,,
75000,note_on,60,0,2,,,,,,,,,0,,,62,0
75000,note_on,0,0,2,,,,,,,,,0,,,59,59
75000,note_on,0,0,2,,,,,,,,,0,,,50,59
75020,set_tempo,60,1,0,,,,,,718735,,,,,,,
75060,note_on,60,0,2,,,,,,,,,0,,,59,0
75060,note_on,0,0,2,,,,,,,,,0,,,62,54
75060,note_on,0,0,2,,,,,,,,,0,,,50,0
75080,set_tempo,60,1,0,,,,,,714286,,,,,,,
75120,note_on,60,0,2,,,,,,,,,0,,,62,0
75120,note_on,0,0,2,,,,,,,,,0,,,50,60
75120,note_on,0,0,2,,,,,,,,,0,,,59,60
75140,set_tempo,60,1,0,,,,,,709807,,,,,,,
75180,note_on,60,0,2,,,,,,,,,0,,,59,0
75180,note_on,0,0,2,,,,,,,,,0,,,50,0
75180,note_on,0,0,2,,,,,,,,,0,,,62,53
75220,set_tempo,80,1,0,,,,,,705467,,,,,,,
75240,note_on,60,0,2,,,,,,,,,0,,,62,0
75240,note_on,0,0,2,,,,,,,,,0,,,50,60
75240,note_on,0,0,2,,,,,,,,,0,,,59,60
75280,set_tempo,60,1,0,,,,,,701180,,,,,,,
75300,note_on,0,0,2,,,,,,,,,0,,,62,56
75300,note_on,60,0,2,,,,,,,,,0,,,59,0
75300,note_on,0,0,2,,,,,,,,,0,,,50,0
75340,set_tempo,60,1,0,,,,,,696945,,,,,,,
75360,note_on,60,0,2,,,,,,,,,0,,,62,0
75360,note_on,0,0,2,,,,,,,,,0,,,59,61
75360,note_on,0,0,2,,,,,,,,,0,,,50,61
75400,set_tempo,60,1,0,,,,,,684463,,,,,,,
75420,note_on,0,0,2,,,,,,,,,0,,,50,0
75420,note_on,60,0,2,,,,,,,,,0,,,59,0
75420,note_on,0,0,2,,,,,,,,,0,,,62,53
75480,note_on,0,0,2,,,,,,,,,0,,,59,62
75480,note_on,0,0,2,,,,,,,,,0,,,50,62
75480,note_on,60,0,2,,,,,,,,,0,,,62,0
75540,set_tempo,140,1,0,,,,,,688547,,,,,,,
75540,note_on,0,0,2,,,,,,,,,0,,,62,56
75540,note_on,60,0,2,,,,,,,,,0,,,59,0
75540,note_on,0,0,2,,,,,,,,,0,,,50,0
75600,note_on,0,0,2,,,,,,,,,0,,,50,63
75600,note_on,0,0,2,,,,,,,,,0,,,59,63
75600,note_on,60,0,2,,,,,,,,,0,,,62,0
75660,note_on,60,0,2,,,,,,,,,0,,,59,0
75660,set_tempo,120,1,0,,,,,,692761,,,,,,,
75660,note_on,0,0,2,,,,,,,,,0,,,62,56
75660,note_on,0,0,2,,,,,,,,,0,,,50,0
75720,note_on,0,0,2,,,,,,,,,0,,,59,63
75720,note_on,0,0,2,,,,,,,,,0,,,50,63
75720,note_on,60,0,2,,,,,,,,,0,,,62,0
75780,note_on,0,0,2,,,,,,,,,0,,,50,0
75780,note_on,0,0,2,,,,,,,,,0,,,62,58
75780,note_on,60,0,2,,,,,,,,,0,,,59,0
75780,set_tempo,120,1,0,,,,,,696945,,,,,,,
75840,note_on,0,0,2,,,,,,,,,0,,,50,64
75840,note_on,60,0,2,,,,,,,,,0,,,62,0
75840,note_on,0,0,2,,,,,,,,,0,,,59,64
75900,note_on,0,0,2,,,,,,,,,0,,,62,55
75900,note_on,0,0,2,,,,,,,,,0,,,50,0
75900,set_tempo,120,1,0,,,,,,701180,,,,,,,
75900,note_on,60,0,2,,,,,,,,,0,,,59,0
75960,note_on,0,0,2,,,,,,,,,0,,,50,63
75960,note_on,0,0,2,,,,,,,,,0,,,59,63
75960,note_on,60,0,2,,,,,,,,,0,,,62,0
76020,set_tempo,120,1,0,,,,,,705467,,,,,,,
76020,note_on,0,0,2,,,,,,,,,0,,,50,0
76020,note_on,0,0,2,,,,,,,,,0,,,62,56
76020,note_on,60,0,2,,,,,,,,,0,,,59,0
76080,note_on,0,0,2,,,,,,,,,0,,,59,61
76080,note_on,0,0,2,,,,,,,,,0,,,50,61
76080,note_on,60,0,2,,,,,,,,,0,,,62,0
76140,note_on,60,0,2,,,,,,,,,0,,,59,0
76140,note_on,0,0,2,,,,,,,,,0,,,62,54
76140,note_on,0,0,2,,,,,,,,,0,,,50,0
76140,set_tempo,120,1,0,,,,,,709807,,,,,,,
76200,note_on,0,0,2,,,,,,,,,0,,,59,60
76200,note_on,0,0,2,,,,,,,,,0,,,50,60
76200,note_on,60,0,2,,,,,,,,,0,,,62,0
76260,note_on,0,0,2,,,,,,,,,0,,,62,54
76260,note_on,60,0,2,,,,,,,,,0,,,59,0
76260,set_tempo,120,1,0,,,,,,714286,,,,,,,
76260,note_on,0,0,2,,,,,,,,,0,,,50,0
76320,note_on,60,0,2,,,,,,,,,0,,,62,0
76320,note_on,1440,0,3,,,,,,,,,0,,,74,0
76320,note_on,0,0,3,,,,,,,,,0,,,71,0
76320,set_tempo,60,1,0,,,,,,657102,,,,,,,
76320,note_on,0,0,3,,,,,,,,,0,,,53,83
76334,control_change,1411,0,4,,,,,,,,,0,64,0,,
76371,control_change,37,0,4,,,,,,,,,0,64,127,,
76400,note_on,29,0,4,,,,,,,,,0,,,56,61
76480,note_on,80,0,4,,,,,,,,,0,,,56,0
76480,note_on,0,0,4,,,,,,,,,0,,,53,67
76560,note_on,0,0,1,,,,,,,,,0,,,71,73
76560,set_tempo,240,1,0,,,,,,638842,,,,,,,
76560,note_on,0,0,1,,,,,,,,,0,,,62,60
76560,note_on,3120,0,1,,,,,,,,,0,,,59,60
76560,note_on,0,0,4,,,,,,,,,0,,,56,61
76560,note_on,80,0,4,,,,,,,,,0,,,53,0
76640,note_on,0,0,4,,,,,,,,,0,,,53,67
76640,note_on,80,0,4,,,,,,,,,0,,,56,0
76720,note_on,80,0,4,,,,,,,,,0,,,53,0
76720,note_on,0,0,4,,,,,,,,,0,,,56,60
76800,note_on,80,0,4,,,,,,,,,0,,,56,0
76800,note_on,480,0,3,,,,,,,,,0,,,53,0
76800,note_on,0,0,3,,,,,,,,,0,,,51,84
76811,control_change,11,0,4,,,,,,,,,0,64,0,,
76840,control_change,29,0,4,,,,,,,,,0,64,127,,
76880,note_on,40,0,4,,,,,,,,,0,,,55,58
76960,note_on,0,0,4,,,,,,,,,0,,,51,64
76960,note_on,80,0,4,,,,,,,,,0,,,55,0
77040,note_on,0,0,1,,,,,,,,,0,,,63,66
77040,note_on,0,0,1,,,,,,,,,0,,,72,79
77040,note_on,0,0,4,,,,,,,,,0,,,55,59
77040,note_on,0,0,1,,,,,,,,,0,,,60,66
77040,note_on,0,0,1,,,,,,,,,0,,,62,0
77040,note_on,80,0,4,,,,,,,,,0,,,51,0
77040,note_on,480,0,1,,,,,,,,,0,,,71,0
77040,note_on,0,0,1,,,,,,,,,0,,,59,0
77120,note_on,0,0,4,,,,,,,,,0,,,51,64
77120,note_on,80,0,4,,,,,,,,,0,,,55,0
77200,note_on,0,0,4,,,,,,,,,0,,,55,60
77200,note_on,80,0,4,,,,,,,,,0,,,51,0
77240,set_tempo,680,1,0,,,,,,649702,,,,,,,
77260,set_tempo,20,1,0,,,,,,634921,,,,,,,
77280,note_on,0,0,3,,,,,,,,,0,,,44,85
77280,note_on,480,0,3,,,,,,,,,0,,,51,0
77280,note_on,80,0,4,,,,,,,,,0,,,55,0
77306,control_change,26,0,4,,,,,,,,,0,64,0,,
77331,control_change,25,0,4,,,,,,,,,0,64,127,,
77360,note_on,29,0,4,,,,,,,,,0,,,53,63
77420,set_tempo,160,1,0,,,,,,631579,,,,,,,
77440,note_on,80,0,4,,,,,,,,,0,,,53,0
77440,note_on,0,0,4,,,,,,,,,0,,,44,68
77520,note_on,0,0,1,,,,,,,,,0,,,62,67
77520,note_on,0,0,1,,,,,,,,,0,,,65,67
77520,note_on,0,0,4,,,,,,,,,0,,,53,62
77520,note_on,480,0,1,,,,,,,,,0,,,72,0
77520,note_on,0,0,1,,,,,,,,,0,,,74,80
77520,note_on,0,0,1,,,,,,,,,0,,,63,0
77520,note_on,0,0,1,,,,,,,,,0,,,60,0
77520,note_on,80,0,4,,,,,,,,,0,,,44,0
77580,set_tempo,160,1,0,,,,,,628272,,,,,,,
77600,note_on,80,0,4,,,,,,,,,0,,,53,0
77600,note_on,0,0,4,,,,,,,,,0,,,44,68
77680,note_on,0,0,4,,,,,,,,,0,,,53,68
77680,note_on,80,0,4,,,,,,,,,0,,,44,0
77740,set_tempo,160,1,0,,,,,,625000,,,,,,,
77760,note_on,480,0,3,,,,,,,,,0,,,44,0
77760,note_on,0,0,3,,,,,,,,,0,,,43,86
77760,note_on,80,0,4,,,,,,,,,0,,,53,0
77772,control_change,12,0,4,,,,,,,,,0,64,0,,
77794,control_change,22,0,4,,,,,,,,,0,64,127,,
77840,note_on,46,0,4,,,,,,,,,0,,,51,61
77900,set_tempo,160,1,0,,,,,,621762,,,,,,,
77920,note_on,0,0,4,,,,,,,,,0,,,43,67
77920,note_on,80,0,4,,,,,,,,,0,,,51,0
78000,note_on,480,0,1,,,,,,,,,0,,,74,0
78000,note_on,0,0,1,,,,,,,,,0,,,67,70
78000,note_on,0,0,4,,,,,,,,,0,,,51,63
78000,note_on,0,0,1,,,,,,,,,0,,,75,83
78000,note_on,0,0,1,,,,,,,,,0,,,63,70
78000,note_on,0,0,1,,,,,,,,,0,,,62,0
78000,note_on,0,0,1,,,,,,,,,0,,,65,0
78000,note_on,80,0,4,,,,,,,,,0,,,43,0
78060,set_tempo,160,1,0,,,,,,618557,,,,,,,
78080,note_on,80,0,4,,,,,,,,,0,,,51,0
78080,note_on,0,0,4,,,,,,,,,0,,,43,68
78160,note_on,0,0,4,,,,,,,,,0,,,51,62
78160,note_on,80,0,4,,,,,,,,,0,,,43,0
78220,set_tempo,160,1,0,,,,,,615385,,,,,,,
78240,note_on,0,0,3,,,,,,,,,0,,,41,86
78240,note_on,480,0,3,,,,,,,,,0,,,43,0
78240,note_on,80,0,4,,,,,,,,,0,,,51,0
78250,control_change,10,0,4,,,,,,,,,0,64,0,,
78291,control_change,41,0,4,,,,,,,,,0,64,127,,
78320,note_on,29,0,4,,,,,,,,,0,,,50,65
78400,note_on,80,0,4,,,,,,,,,0,,,50,0
78400,note_on,0,0,4,,,,,,,,,0,,,41,70
78440,set_tempo,220,1,0,,,,,,612245,,,,,,,
78480,note_on,80,0,4,,,,,,,,,0,,,41,0
78480,note_on,0,0,1,,,,,,,,,0,,,65,72
78480,note_on,0,0,1,,,,,,,,,0,,,74,72
78480,note_on,0,0,1,,,,,,,,,0,,,77,85
78480,note_on,480,0,1,,,,,,,,,0,,,75,0
78480,note_on,0,0,4,,,,,,,,,0,,,50,64
78480,note_on,0,0,1,,,,,,,,,0,,,63,0
78480,note_on,0,0,1,,,,,,,,,0,,,67,0
78560,note_on,0,0,4,,,,,,,,,0,,,41,70
78560,note_on,80,0,4,,,,,,,,,0,,,50,0
78640,note_on,80,0,4,,,,,,,,,0,,,41,0
78640,note_on,0,0,4,,,,,,,,,0,,,50,63
78640,set_tempo,200,1,0,,,,,,609137,,,,,,,
78720,note_on,80,0,4,,,,,,,,,0,,,50,0
78720,note_on,0,0,3,,,,,,,,,0,,,39,88
78720,note_on,480,0,3,,,,,,,,,0,,,41,0
78730,control_change,10,0,4,,,,,,,,,0,64,0,,
78766,control_change,36,0,4,,,,,,,,,0,64,127,,
78800,note_on,34,0,4,,,,,,,,,0,,,48,66
78860,set_tempo,220,1,0,,,,,,606061,,,,,,,
78880,note_on,80,0,4,,,,,,,,,0,,,48,0
78880,note_on,0,0,4,,,,,,,,,0,,,39,71
78960,note_on,480,0,1,,,,,,,,,0,,,77,0
78960,note_on,0,0,4,,,,,,,,,0,,,48,67
78960,note_on,0,0,1,,,,,,,,,0,,,79,88
78960,note_on,0,0,1,,,,,,,,,0,,,75,75
78960,note_on,0,0,1,,,,,,,,,0,,,74,0
78960,note_on,0,0,1,,,,,,,,,0,,,67,75
78960,note_on,80,0,4,,,,,,,,,0,,,39,0
78960,note_on,0,0,1,,,,,,,,,0,,,65,0
79040,note_on,0,0,4,,,,,,,,,0,,,39,72
79040,note_on,80,0,4,,,,,,,,,0,,,48,0
79060,set_tempo,200,1,0,,,,,,603015,,,,,,,
79120,note_on,0,0,4,,,,,,,,,0,,,48,66
79120,note_on,80,0,4,,,,,,,,,0,,,39,0
79200,note_on,80,0,4,,,,,,,,,0,,,48,0
79200,note_on,480,0,3,,,,,,,,,0,,,39,0
79200,note_on,0,0,3,,,,,,,,,0,,,38,89
79213,control_change,13,0,4,,,,,,,,,0,64,0,,
79260,control_change,47,0,4,,,,,,,,,0,64,127,,
79280,note_on,20,0,4,,,,,,,,,0,,,47,67
79280,set_tempo,220,1,0,,,,,,600000,,,,,,,
79360,note_on,80,0,4,,,,,,,,,0,,,47,0
79360,note_on,0,0,4,,,,,,,,,0,,,38,73
79440,note_on,80,0,4,,,,,,,,,0,,,38,0
79440,note_on,480,0,1,,,,,,,,,0,,,79,0
79440,note_on,0,0,4,,,,,,,,,0,,,47,66
79440,note_on,0,0,1,,,,,,,,,0,,,67,0
79440,note_on,0,0,1,,,,,,,,,0,,,67,78
79440,note_on,0,0,1,,,,,,,,,0,,,79,92
79440,note_on,0,0,1,,,,,,,,,0,,,77,78
79440,note_on,0,0,1,,,,,,,,,0,,,75,0
79480,set_tempo,200,1,0,,,,,,597015,,,,,,,
79520,note_on,80,0,4,,,,,,,,,0,,,47,0
79520,note_on,0,0,4,,,,,,,,,0,,,38,72
79600,note_on,0,0,4,,,,,,,,,0,,,47,69
79600,note_on,80,0,4,,,,,,,,,0,,,38,0
79680,note_on,80,0,4,,,,,,,,,0,,,47,0
79680,note_on,0,0,3,,,,,,,,,0,,,36,90
79680,note_on,0,0,4,,,,,,,,,0,,,39,84
79680,set_tempo,200,1,0,,,,,,594059,,,,,,,
79680,note_on,480,0,3,,,,,,,,,0,,,38,0
79688,control_change,8,0,4,,,,,,,,,0,64,0,,
79754,control_change,66,0,4,,,,,,,,,0,64,127,,
79760,note_on,0,0,4,,,,,,,,,0,,,48,69
79760,note_on,6,0,4,,,,,,,,,0,,,39,0
79760,set_tempo,80,1,0,,,,,,614943,,,,,,,
79840,note_on,80,0,4,,,,,,,,,0,,,48,0
79840,note_on,0,0,4,,,,,,,,,0,,,39,74
79920,note_on,0,0,4,,,,,,,,,0,,,48,68
79920,note_on,480,0,1,,,,,,,,,0,,,79,0
79920,note_on,0,0,1,,,,,,,,,0,,,79,85
79920,note_on,80,0,4,,,,,,,,,0,,,39,0
79920,note_on,0,0,1,,,,,,,,,0,,,87,101
79920,note_on,0,0,1,,,,,,,,,0,,,77,0
79920,note_on,0,0,1,,,,,,,,,0,,,75,85
79920,note_on,0,0,1,,,,,,,,,0,,,67,0
79960,set_tempo,200,1,0,,,,,,608458,,,,,,,
80000,note_on,80,0,4,,,,,,,,,0,,,48,0
80000,note_on,0,0,4,,,,,,,,,0,,,39,73
80080,note_on,80,0,4,,,,,,,,,0,,,39,0
80080,note_on,0,0,4,,,,,,,,,0,,,48,68
80120,set_tempo,160,1,0,,,,,,611683,,,,,,,
80160,note_on,0,0,4,,,,,,,,,0,,,40,86
80160,note_on,0,0,3,,,,,,,,,0,,,34,91
80160,note_on,480,0,3,,,,,,,,,0,,,36,0
80160,note_on,80,0,4,,,,,,,,,0,,,48,0
80168,control_change,8,0,4,,,,,,,,,0,64,0,,
80189,control_change,21,0,4,,,,,,,,,0,64,127,,
80240,note_on,0,0,4,,,,,,,,,0,,,46,71
80240,set_tempo,120,1,0,,,,,,614943,,,,,,,
80240,note_on,51,0,4,,,,,,,,,0,,,40,0
80280,set_tempo,40,1,0,,,,,,624935,,,,,,,
80320,note_on,0,0,4,,,,,,,,,0,,,34,75
80320,note_on,80,0,4,,,,,,,,,0,,,46,0
80320,note_on,160,0,3,,,,,,,,,0,,,34,0
80320,note_on,0,0,4,,,,,,,,,0,,,40,75
80360,set_tempo,80,1,0,,,,,,645995,,,,,,,
80400,note_on,0,0,1,,,,,,,,,0,,,86,102
80400,note_on,0,0,1,,,,,,,,,0,,,74,85
80400,set_tempo,40,1,0,,,,,,782269,,,,,,,
80400,note_on,0,0,1,,,,,,,,,0,,,79,0
80400,note_on,0,0,1,,,,,,,,,0,,,80,85
80400,note_on,80,0,4,,,,,,,,,0,,,40,0
80400,note_on,0,0,1,,,,,,,,,0,,,87,0
80400,note_on,480,0,1,,,,,,,,,0,,,75,0
80400,note_on,0,0,4,,,,,,,,,0,,,46,71
80480,note_on,0,0,4,,,,,,,,,0,,,34,75
80480,note_on,0,0,4,,,,,,,,,0,,,34,0
80480,note_on,80,0,4,,,,,,,,,0,,,46,0
80480,note_on,0,0,4,,,,,,,,,0,,,40,74
80560,note_on,0,0,4,,,,,,,,,0,,,46,71
80560,note_on,80,0,4,,,,,,,,,0,,,40,0
80600,set_tempo,200,1,0,,,,,,672495,,,,,,,
80640,note_on,0,0,1,,,,,,,,,0,,,80,0
80640,note_on,0,0,3,,,,,,,,,0,,,45,88
80640,note_on,0,0,3,,,,,,,,,0,,,40,88
80640,note_on,240,0,1,,,,,,,,,0,,,74,0
80640,note_on,320,0,3,,,,,,,,,0,,,33,88
80640,note_on,0,0,1,,,,,,,,,0,,,86,0
80640,note_on,0,0,1,,,,,,,,,0,,,85,106
80640,note_on,0,0,1,,,,,,,,,0,,,81,89
80640,note_on,0,0,4,,,,,,,,,0,,,34,0
80640,note_on,80,0,4,,,,,,,,,0,,,46,0
80640,note_on,0,0,1,,,,,,,,,0,,,73,89
80640,set_tempo,40,1,0,,,,,,680426,,,,,,,
80651,control_change,11,0,4,,,,,,,,,0,64,0,,
80880,note_on,0,0,1,,,,,,,,,0,,,81,0
80880,note_on,0,0,1,,,,,,,,,0,,,85,0
80880,note_on,0,0,3,,,,,,,,,0,,,33,0
80880,note_on,240,0,3,,,,,,,,,0,,,45,0
80880,note_on,240,0,1,,,,,,,,,0,,,73,0
80880,note_on,0,0,3,,,,,,,,,0,,,40,0
81120,note_on,4800,0,2,,,,,,,,,0,,,52,62
81120,note_on,0,0,2,,,,,,,,,0,,,61,62
81120,set_tempo,480,1,0,,,,,,740741,,,,,,,
81160,set_tempo,40,1,0,,,,,,736196,,,,,,,
81166,control_change,515,0,4,,,,,,,,,0,64,127,,
81180,set_tempo,20,1,0,,,,,,731707,,,,,,,
81180,note_on,0,0,2,,,,,,,,,0,,,52,0
81180,note_on,0,0,2,,,,,,,,,0,,,64,53
81180,note_on,60,0,2,,,,,,,,,0,,,61,0
81220,set_tempo,40,1,0,,,,,,727273,,,,,,,
81240,set_tempo,20,1,0,,,,,,722892,,,,,,,
81240,note_on,0,0,2,,,,,,,,,0,,,52,61
81240,note_on,0,0,2,,,,,,,,,0,,,61,61
81240,note_on,60,0,2,,,,,,,,,0,,,64,0
81280,set_tempo,40,1,0,,,,,,718563,,,,,,,
81300,note_on,60,0,2,,,,,,,,,0,,,61,0
81300,note_on,0,0,2,,,,,,,,,0,,,64,55
81300,note_on,0,0,2,,,,,,,,,0,,,52,0
81300,set_tempo,20,1,0,,,,,,714286,,,,,,,
81340,set_tempo,40,1,0,,,,,,710059,,,,,,,
81360,note_on,0,0,2,,,,,,,,,0,,,61,61
81360,note_on,0,0,2,,,,,,,,,0,,,52,61
81360,set_tempo,20,1,0,,,,,,705882,,,,,,,
81360,note_on,60,0,2,,,,,,,,,0,,,64,0
81400,set_tempo,40,1,0,,,,,,701754,,,,,,,
81420,note_on,0,0,2,,,,,,,,,0,,,64,53
81420,note_on,0,0,2,,,,,,,,,0,,,52,0
81420,note_on,60,0,2,,,,,,,,,0,,,61,0
81420,set_tempo,20,1,0,,,,,,697674,,,,,,,
81440,set_tempo,20,1,0,,,,,,693642,,,,,,,
81460,set_tempo,20,1,0,,,,,,705882,,,,,,,
81480,note_on,60,0,2,,,,,,,,,0,,,64,0
81480,note_on,0,0,2,,,,,,,,,0,,,61,60
81480,note_on,0,0,2,,,,,,,,,0,,,52,60
81540,note_on,0,0,2,,,,,,,,,0,,,64,55
81540,note_on,0,0,2,,,,,,,,,0,,,52,0
81540,note_on,60,0,2,,,,,,,,,0,,,61,0
81560,set_tempo,100,1,0,,,,,,701754,,,,,,,
81600,note_on,0,0,2,,,,,,,,,0,,,61,60
81600,note_on,0,0,2,,,,,,,,,0,,,52,60
81600,note_on,60,0,2,,,,,,,,,0,,,64,0
81620,set_tempo,60,1,0,,,,,,705882,,,,,,,
81660,note_on,60,0,2,,,,,,,,,0,,,61,0
81660,note_on,0,0,2,,,,,,,,,0,,,64,51
81660,note_on,0,0,2,,,,,,,,,0,,,52,0
81680,set_tempo,60,1,0,,,,,,710059,,,,,,,
81720,set_tempo,40,1,0,,,,,,714286,,,,,,,
81720,note_on,0,0,2,,,,,,,,,0,,,52,59
81720,note_on,60,0,2,,,,,,,,,0,,,64,0
81720,note_on,0,0,2,,,,,,,,,0,,,61,59
81780,note_on,0,0,2,,,,,,,,,0,,,52,0
81780,set_tempo,60,1,0,,,,,,718563,,,,,,,
81780,note_on,60,0,2,,,,,,,,,0,,,61,0
81780,note_on,0,0,2,,,,,,,,,0,,,64,52
81840,note_on,60,0,2,,,,,,,,,0,,,64,0
81840,note_on,0,0,2,,,,,,,,,0,,,52,59
81840,set_tempo,60,1,0,,,,,,722892,,,,,,,
81840,note_on,0,0,2,,,,,,,,,0,,,61,59
81880,set_tempo,40,1,0,,,,,,727273,,,,,,,
81900,note_on,0,0,2,,,,,,,,,0,,,64,51
81900,note_on,0,0,2,,,,,,,,,0,,,52,0
81900,note_on,60,0,2,,,,,,,,,0,,,61,0
81940,set_tempo,60,1,0,,,,,,731707,,,,,,,
81960,note_on,0,0,2,,,,,,,,,0,,,52,58
81960,note_on,0,0,2,,,,,,,,,0,,,61,58
81960,note_on,60,0,2,,,,,,,,,0,,,64,0
82000,set_tempo,60,1,0,,,,,,736196,,,,,,,
82020,note_on,0,0,2,,,,,,,,,0,,,52,0
82020,note_on,0,0,2,,,,,,,,,0,,,64,52
82020,note_on,60,0,2,,,,,,,,,0,,,61,0
82040,set_tempo,40,1,0,,,,,,740741,,,,,,,
82080,note_on,60,0,2,,,,,,,,,0,,,64,0
82080,set_tempo,40,1,0,,,,,,746733,,,,,,,
82080,note_on,0,0,1,,,,,,,,,0,,,81,79
82080,note_on,1200,0,1,,,,,,,,,0,,,69,79
82080,note_on,914,0,4,,,,,,,,,0,,,49,72
82091,control_change,11,0,4,,,,,,,,,0,64,0,,
82143,control_change,52,0,4,,,,,,,,,0,64,127,,
82160,note_on,0,0,4,,,,,,,,,0,,,57,62
82160,note_on,17,0,4,,,,,,,,,0,,,49,0
82240,note_on,0,0,4,,,,,,,,,0,,,49,71
82240,note_on,80,0,4,,,,,,,,,0,,,57,0
82320,note_on,0,0,4,,,,,,,,,0,,,57,59
82320,note_on,80,0,4,,,,,,,,,0,,,49,0
82400,note_on,0,0,4,,,,,,,,,0,,,49,71
82400,note_on,80,0,4,,,,,,,,,0,,,57,0
82480,note_on,0,0,4,,,,,,,,,0,,,57,62
82480,note_on,80,0,4,,,,,,,,,0,,,49,0
82560,set_tempo,480,1,0,,,,,,731707,,,,,,,
82560,note_on,0,0,1,,,,,,,,,0,,,68,77
82560,note_on,0,0,1,,,,,,,,,0,,,69,0
82560,note_on,0,0,1,,,,,,,,,0,,,80,77
82560,note_on,80,0,4,,,,,,,,,0,,,57,0
82560,note_on,480,0,1,,,,,,,,,0,,,81,0
82560,note_on,0,0,4,,,,,,,,,0,,,50,71
82570,control_change,10,0,4,,,,,,,,,0,64,0,,
82611,control_change,41,0,4,,,,,,,,,0,64,127,,
82640,note_on,29,0,4,,,,,,,,,0,,,50,0
82640,note_on,0,0,4,,,,,,,,,0,,,59,62
82720,note_on,0,0,4,,,,,,,,,0,,,50,70
82720,note_on,80,0,4,,,,,,,,,0,,,59,0
82800,note_on,0,0,4,,,,,,,,,0,,,59,59
82800,note_on,80,0,4,,,,,,,,,0,,,50,0
82880,note_on,80,0,4,,,,,,,,,0,,,59,0
82880,note_on,0,0,4,,,,,,,,,0,,,50,69
82960,note_on,0,0,4,,,,,,,,,0,,,59,59
82960,note_on,80,0,4,,,,,,,,,0,,,50,0
83040,set_tempo,480,1,0,,,,,,766675,,,,,,,
83040,note_on,80,0,4,,,,,,,,,0,,,59,0
83040,note_on,0,0,4,,,,,,,,,0,,,52,69
83040,note_on,0,0,1,,,,,,,,,0,,,79,75
83040,note_on,0,0,1,,,,,,,,,0,,,67,75
83040,note_on,0,0,1,,,,,,,,,0,,,68,0
83040,note_on,480,0,1,,,,,,,,,0,,,80,0
83049,control_change,9,0,4,,,,,,,,,0,64,0,,
83083,control_change,34,0,4,,,,,,,,,0,64,127,,
83120,note_on,0,0,4,,,,,,,,,0,,,61,60
83120,note_on,37,0,4,,,,,,,,,0,,,52,0
83200,note_on,80,0,4,,,,,,,,,0,,,61,0
83200,note_on,0,0,4,,,,,,,,,0,,,52,68
83280,note_on,0,0,4,,,,,,,,,0,,,61,59
83280,note_on,80,0,4,,,,,,,,,0,,,52,0
83360,note_on,0,0,4,,,,,,,,,0,,,52,69
83360,note_on,80,0,4,,,,,,,,,0,,,61,0
83440,note_on,0,0,4,,,,,,,,,0,,,61,60
83440,note_on,80,0,4,,,,,,,,,0,,,52,0
83520,note_on,80,0,4,,,,,,,,,0,,,61,0
83520,set_tempo,480,1,0,,,,,,718563,,,,,,,
83520,note_on,480,0,1,,,,,,,,,0,,,79,0
83520,note_on,0,0,1,,,,,,,,,0,,,65,74
83520,note_on,0,0,1,,,,,,,,,0,,,67,0
83520,note_on,0,0,1,,,,,,,,,0,,,77,74
83520,note_on,0,0,4,,,,,,,,,0,,,53,73
83529,control_change,9,0,4,,,,,,,,,0,64,0,,
83563,control_change,34,0,4,,,,,,,,,0,64,127,,
83600,note_on,0,0,4,,,,,,,,,0,,,62,62
83600,note_on,37,0,4,,,,,,,,,0,,,53,0
83680,note_on,0,0,4,,,,,,,,,0,,,53,67
83680,note_on,80,0,4,,,,,,,,,0,,,62,0
83760,note_on,0,0,4,,,,,,,,,0,,,62,58
83760,note_on,80,0,4,,,,,,,,,0,,,53,0
83840,note_on,0,0,4,,,,,,,,,0,,,53,67
83840,note_on,80,0,4,,,,,,,,,0,,,62,0
83920,note_on,0,0,4,,,,,,,,,0,,,62,58
83920,note_on,80,0,4,,,,,,,,,0,,,53,0
84000,set_tempo,480,1,0,,,,,,740741,,,,,,,
84000,note_on,0,0,4,,,,,,,,,0,,,55,66
84000,note_on,0,0,1,,,,,,,,,0,,,65,0
84000,note_on,480,0,1,,,,,,,,,0,,,77,0
84000,note_on,80,0,4,,,,,,,,,0,,,62,0
84000,note_on,0,0,1,,,,,,,,,0,,,76,73
84000,note_on,0,0,1,,,,,,,,,0,,,73,73
84000,note_on,0,0,1,,,,,,,,,0,,,70,66
84014,control_change,14,0,4,,,,,,,,,0,64,0,,
84040,control_change,26,0,4,,,,,,,,,0,64,127,,
84080,note_on,0,0,4,,,,,,,,,0,,,64,59
84080,note_on,40,0,4,,,,,,,,,0,,,55,0
84160,note_on,80,0,4,,,,,,,,,0,,,64,0
84160,note_on,0,0,4,,,,,,,,,0,,,55,65
84240,note_on,0,0,4,,,,,,,,,0,,,64,57
84240,note_on,80,0,4,,,,,,,,,0,,,55,0
84320,note_on,80,0,4,,,,,,,,,0,,,64,0
84320,note_on,0,0,4,,,,,,,,,0,,,55,65
84400,note_on,80,0,4,,,,,,,,,0,,,55,0
84400,note_on,0,0,4,,,,,,,,,0,,,64,57
84480,note_on,480,0,1,,,,,,,,,0,,,76,0
84480,set_tempo,480,1,0,,,,,,745342,,,,,,,
84480,note_on,0,0,4,,,,,,,,,0,,,57,64
84480,note_on,0,0,1,,,,,,,,,0,,,74,71
84480,note_on,0,0,1,,,,,,,,,0,,,69,71
84480,note_on,80,0,4,,,,,,,,,0,,,64,0
84480,note_on,0,0,1,,,,,,,,,0,,,73,0
84480,note_on,0,0,1,,,,,,,,,0,,,70,0
84491,control_change,11,0,4,,,,,,,,,0,64,0,,
84517,control_change,26,0,4,,,,,,,,,0,64,127,,
84560,note_on,0,0,4,,,,,,,,,0,,,65,57
84560,note_on,43,0,4,,,,,,,,,0,,,57,0
84640,note_on,0,0,4,,,,,,,,,0,,,57,63
84640,note_on,80,0,4,,,,,,,,,0,,,65,0
84720,note_on,80,0,4,,,,,,,,,0,,,57,0
84720,note_on,0,0,4,,,,,,,,,0,,,65,56
84800,note_on,80,0,4,,,,,,,,,0,,,65,0
84800,note_on,0,0,4,,,,,,,,,0,,,57,64
84880,note_on,0,0,4,,,,,,,,,0,,,65,57
84880,note_on,80,0,4,,,,,,,,,0,,,57,0
84960,note_on,0,0,2,,,,,,,,,0,,,57,70
84960,note_on,2880,0,2,,,,,,,,,0,,,65,70
84960,note_on,0,0,1,,,,,,,,,0,,,69,0
84960,note_on,480,0,1,,,,,,,,,0,,,74,0
84960,note_on,0,0,3,,,,,,,,,0,,,41,74
84960,note_on,4080,0,3,,,,,,,,,0,,,29,62
84960,note_on,80,0,4,,,,,,,,,0,,,65,0
84960,set_tempo,480,1,0,,,,,,718735,,,,,,,
84997,control_change,37,0,4,,,,,,,,,0,64,0,,
85031,control_change,34,0,4,,,,,,,,,0,64,127,,
85040,note_on,0,0,2,,,,,,,,,0,,,65,0
85040,note_on,0,0,2,,,,,,,,,0,,,69,57
85040,note_on,80,0,2,,,,,,,,,0,,,57,0
85120,note_on,80,0,2,,,,,,,,,0,,,69,0
85120,note_on,0,0,2,,,,,,,,,0,,,65,65
85120,note_on,0,0,2,,,,,,,,,0,,,57,65
85200,note_on,80,0,2,,,,,,,,,0,,,57,0
85200,note_on,0,0,2,,,,,,,,,0,,,65,0
85200,note_on,0,0,2,,,,,,,,,0,,,69,58
85280,note_on,80,0,2,,,,,,,,,0,,,69,0
85280,note_on,0,0,2,,,,,,,,,0,,,65,67
85280,note_on,0,0,2,,,,,,,,,0,,,57,67
85360,note_on,80,0,2,,,,,,,,,0,,,65,0
85360,note_on,0,0,2,,,,,,,,,0,,,69,60
85360,note_on,0,0,2,,,,,,,,,0,,,57,0
85400,set_tempo,440,1,0,,,,,,727802,,,,,,,
85440,note_on,480,0,3,,,,,,,,,0,,,41,0
85440,note_on,0,0,3,,,,,,,,,0,,,43,75
85440,note_on,0,0,3,,,,,,,,,0,,,29,0
85440,note_on,0,0,2,,,,,,,,,0,,,55,74
85440,note_on,0,0,3,,,,,,,,,0,,,31,63
85440,note_on,0,0,2,,,,,,,,,0,,,64,74
85440,note_on,80,0,2,,,,,,,,,0,,,69,0
85440,set_tempo,40,1,0,,,,,,701180,,,,,,,
85489,control_change,458,0,4,,,,,,,,,0,64,0,,
85514,control_change,25,0,4,,,,,,,,,0,64,127,,
85520,note_on,0,0,2,,,,,,,,,0,,,64,0
85520,note_on,0,0,2,,,,,,,,,0,,,67,62
85520,note_on,80,0,2,,,,,,,,,0,,,55,0
85600,note_on,80,0,2,,,,,,,,,0,,,67,0
85600,note_on,0,0,2,,,,,,,,,0,,,64,69
85600,note_on,0,0,2,,,,,,,,,0,,,55,69
85680,note_on,0,0,2,,,,,,,,,0,,,67,63
85680,note_on,0,0,2,,,,,,,,,0,,,64,0
85680,note_on,80,0,2,,,,,,,,,0,,,55,0
85760,note_on,0,0,2,,,,,,,,,0,,,64,70
85760,note_on,0,0,2,,,,,,,,,0,,,55,70
85760,note_on,80,0,2,,,,,,,,,0,,,67,0
85840,note_on,0,0,2,,,,,,,,,0,,,67,64
85840,note_on,0,0,2,,,,,,,,,0,,,55,0
85840,note_on,80,0,2,,,,,,,,,0,,,64,0
85920,note_on,0,0,2,,,,,,,,,0,,,53,78
85920,note_on,0,0,3,,,,,,,,,0,,,31,0
85920,note_on,80,0,2,,,,,,,,,0,,,67,0
85920,note_on,0,0,2,,,,,,,,,0,,,62,78
85920,note_on,0,0,3,,,,,,,,,0,,,44,77
85920,note_on,0,0,3,,,,,,,,,0,,,32,64
85920,note_on,480,0,3,,,,,,,,,0,,,43,0
85926,control_change,412,0,4,,,,,,,,,0,64,0,,
85951,control_change,25,0,4,,,,,,,,,0,64,127,,
86000,note_on,80,0,2,,,,,,,,,0,,,53,0
86000,note_on,0,0,2,,,,,,,,,0,,,62,0
86000,note_on,0,0,2,,,,,,,,,0,,,65,65
86080,note_on,80,0,2,,,,,,,,,0,,,65,0
86080,note_on,0,0,2,,,,,,,,,0,,,53,73
86080,note_on,0,0,2,,,,,,,,,0,,,62,73
86160,note_on,240,0,3,,,,,,,,,0,,,44,0
86160,note_on,0,0,3,,,,,,,,,0,,,32,0
86160,note_on,80,0,2,,,,,,,,,0,,,53,0
86160,note_on,0,0,2,,,,,,,,,0,,,62,0
86160,set_tempo,720,1,0,,,,,,787608,,,,,,,
86160,note_on,0,0,2,,,,,,,,,0,,,65,67
86240,note_on,0,0,2,,,,,,,,,0,,,62,75
86240,note_on,80,0,2,,,,,,,,,0,,,65,0
86240,note_on,0,0,2,,,,,,,,,0,,,53,75
86280,note_on,120,0,3,,,,,,,,,0,,,33,65
86280,set_tempo,120,1,0,,,,,,1197844,,,,,,,
86310,note_on,30,0,3,,,,,,,,,0,,,33,0
86310,note_on,0,0,3,,,,,,,,,0,,,37,69
86320,note_on,0,0,2,,,,,,,,,0,,,53,0
86320,note_on,80,0,2,,,,,,,,,0,,,62,0
86320,note_on,0,0,2,,,,,,,,,0,,,65,69
86340,note_on,30,0,3,,,,,,,,,0,,,37,0
86340,note_on,0,0,3,,,,,,,,,0,,,40,74
86370,note_on,30,0,3,,,,,,,,,0,,,40,0
86370,note_on,0,0,3,,,,,,,,,0,,,45,78
86400,note_on,0,0,2,,,,,,,,,0,,,61,59
86400,set_tempo,120,1,0,,,,,,727802,,,,,,,
86400,note_on,80,0,2,,,,,,,,,0,,,65,0
86400,control_change,449,0,4,,,,,,,,,0,64,0,,
86400,note_on,30,0,3,,,,,,,,,0,,,45,0
86400,note_on,0,0,2,,,,,,,,,0,,,52,59
86400,note_on,0,0,3,,,,,,,,,0,,,76,89
86400,note_on,0,0,3,,,,,,,,,0,,,73,89
86443,control_change,43,0,4,,,,,,,,,0,64,127,,
86460,note_on,60,0,2,,,,,,,,,0,,,61,0
86460,note_on,0,0,2,,,,,,,,,0,,,52,0
86460,note_on,0,0,2,,,,,,,,,0,,,64,51
86480,set_tempo,80,1,0,,,,,,723240,,,,,,,
86520,note_on,60,0,2,,,,,,,,,0,,,64,0
86520,note_on,0,0,2,,,,,,,,,0,,,52,59
86520,note_on,0,0,2,,,,,,,,,0,,,61,59
86540,set_tempo,60,1,0,,,,,,718735,,,,,,,
86580,note_on,60,0,2,,,,,,,,,0,,,61,0
86580,note_on,0,0,2,,,,,,,,,0,,,52,0
86580,note_on,0,0,2,,,,,,,,,0,,,64,54
86600,set_tempo,60,1,0,,,,,,714286,,,,,,,
86640,note_on,0,0,2,,,,,,,,,0,,,52,60
86640,note_on,0,0,2,,,,,,,,,0,,,61,60
86640,note_on,60,0,2,,,,,,,,,0,,,64,0
86660,set_tempo,60,1,0,,,,,,709807,,,,,,,
86700,note_on,0,0,2,,,,,,,,,0,,,64,53
86700,note_on,60,0,2,,,,,,,,,0,,,61,0
86700,note_on,0,0,2,,,,,,,,,0,,,52,0
86740,set_tempo,80,1,0,,,,,,705467,,,,,,,
86760,note_on,0,0,2,,,,,,,,,0,,,52,60
86760,note_on,60,0,2,,,,,,,,,0,,,64,0
86760,note_on,0,0,2,,,,,,,,,0,,,61,60
86800,set_tempo,60,1,0,,,,,,701180,,,,,,,
86820,note_on,60,0,2,,,,,,,,,0,,,61,0
86820,note_on,0,0,2,,,,,,,,,0,,,52,0
86820,note_on,0,0,2,,,,,,,,,0,,,64,56
86860,set_tempo,60,1,0,,,,,,696945,,,,,,,
86880,note_on,0,0,2,,,,,,,,,0,,,61,61
86880,note_on,0,0,2,,,,,,,,,0,,,52,61
86880,note_on,60,0,2,,,,,,,,,0,,,64,0
86920,set_tempo,60,1,0,,,,,,684463,,,,,,,
86940,note_on,0,0,2,,,,,,,,,0,,,64,53
86940,note_on,0,0,2,,,,,,,,,0,,,52,0
86940,note_on,60,0,2,,,,,,,,,0,,,61,0
87000,note_on,0,0,2,,,,,,,,,0,,,52,62
87000,note_on,60,0,2,,,,,,,,,0,,,64,0
87000,note_on,0,0,2,,,,,,,,,0,,,61,62
87060,note_on,60,0,2,,,,,,,,,0,,,61,0
87060,note_on,0,0,2,,,,,,,,,0,,,52,0
87060,note_on,0,0,2,,,,,,,,,0,,,64,56
87060,set_tempo,140,1,0,,,,,,688547,,,,,,,
87120,note_on,0,0,2,,,,,,,,,0,,,52,63
87120,note_on,60,0,2,,,,,,,,,0,,,64,0
87120,note_on,0,0,2,,,,,,,,,0,,,61,63
87180,note_on,60,0,2,,,,,,,,,0,,,61,0
87180,set_tempo,120,1,0,,,,,,692761,,,,,,,
87180,note_on,0,0,2,,,,,,,,,0,,,52,0
87180,note_on,0,0,2,,,,,,,,,0,,,64,56
87240,note_on,0,0,2,,,,,,,,,0,,,52,63
87240,note_on,0,0,2,,,,,,,,,0,,,61,63
87240,note_on,60,0,2,,,,,,,,,0,,,64,0
87300,set_tempo,120,1,0,,,,,,696945,,,,,,,
87300,note_on,0,0,2,,,,,,,,,0,,,64,58
87300,note_on,0,0,2,,,,,,,,,0,,,52,0
87300,note_on,60,0,2,,,,,,,,,0,,,61,0
87360,note_on,0,0,2,,,,,,,,,0,,,61,64
87360,note_on,60,0,2,,,,,,,,,0,,,64,0
87360,note_on,0,0,2,,,,,,,,,0,,,52,64
87420,set_tempo,120,1,0,,,,,,701180,,,,,,,
87420,note_on,0,0,2,,,,,,,,,0,,,52,0
87420,note_on,0,0,2,,,,,,,,,0,,,64,55
87420,note_on,60,0,2,,,,,,,,,0,,,61,0
87480,note_on,0,0,2,,,,,,,,,0,,,52,63
87480,note_on,60,0,2,,,,,,,,,0,,,64,0
87480,note_on,0,0,2,,,,,,,,,0,,,61,63
87540,set_tempo,120,1,0,,,,,,705467,,,,,,,
87540,note_on,60,0,2,,,,,,,,,0,,,61,0
87540,note_on,0,0,2,,,,,,,,,0,,,52,0
87540,note_on,0,0,2,,,,,,,,,0,,,64,56
87600,note_on,0,0,2,,,,,,,,,0,,,61,61
87600,note_on,60,0,2,,,,,,,,,0,,,64,0
87600,note_on,0,0,2,,,,,,,,,0,,,52,61
87660,set_tempo,120,1,0,,,,,,709807,,,,,,,
87660,note_on,0,0,2,,,,,,,,,0,,,52,0
87660,note_on,60,0,2,,,,,,,,,0,,,61,0
87660,note_on,0,0,2,,,,,,,,,0,,,64,54
87720,note_on,0,0,2,,,,,,,,,0,,,61,60
87720,note_on,60,0,2,,,,,,,,,0,,,64,0
87720,note_on,0,0,2,,,,,,,,,0,,,52,60
87780,note_on,0,0,2,,,,,,,,,0,,,64,55
87780,set_tempo,120,1,0,,,,,,714286,,,,,,,
87780,note_on,60,0,2,,,,,,,,,0,,,61,0
87780,note_on,0,0,2,,,,,,,,,0,,,52,0
87840,note_on,1440,0,3,,,,,,,,,0,,,76,0
87840,set_tempo,60,1,0,,,,,,657102,,,,,,,
87840,note_on,60,0,2,,,,,,,,,0,,,64,0
87840,note_on,0,0,3,,,,,,,,,0,,,73,0
87840,note_on,0,0,3,,,,,,,,,0,,,55,83
87854,control_change,1411,0,4,,,,,,,,,0,64,0,,
87891,control_change,37,0,4,,,,,,,,,0,64,127,,
87920,note_on,29,0,4,,,,,,,,,0,,,58,60
88000,note_on,0,0,4,,,,,,,,,0,,,55,67
88000,note_on,80,0,4,,,,,,,,,0,,,58,0
88080,note_on,0,0,1,,,,,,,,,0,,,64,60
88080,note_on,0,0,4,,,,,,,,,0,,,58,59
88080,note_on,0,0,1,,,,,,,,,0,,,73,73
88080,note_on,80,0,4,,,,,,,,,0,,,55,0
88080,set_tempo,240,1,0,,,,,,638842,,,,,,,
88080,note_on,3120,0,1,,,,,,,,,0,,,61,60
88160,note_on,80,0,4,,,,,,,,,0,,,58,0
88160,note_on,0,0,4,,,,,,,,,0,,,55,67
88240,note_on,80,0,4,,,,,,,,,0,,,55,0
88240,note_on,0,0,4,,,,,,,,,0,,,58,60
88320,note_on,480,0,3,,,,,,,,,0,,,55,0
88320,note_on,0,0,3,,,,,,,,,0,,,53,84
88320,note_on,80,0,4,,,,,,,,,0,,,58,0
88331,control_change,11,0,4,,,,,,,,,0,64,0,,
88360,control_change,29,0,4,,,,,,,,,0,64,127,,
88400,note_on,40,0,4,,,,,,,,,0,,,57,58
88480,note_on,80,0,4,,,,,,,,,0,,,57,0
88480,note_on,0,0,4,,,,,,,,,0,,,53,64
88560,note_on,480,0,1,,,,,,,,,0,,,73,0
88560,note_on,0,0,4,,,,,,,,,0,,,57,57
88560,note_on,80,0,4,,,,,,,,,0,,,53,0
88560,note_on,0,0,1,,,,,,,,,0,,,65,66
88560,note_on,0,0,1,,,,,,,,,0,,,64,0
88560,note_on,0,0,1,,,,,,,,,0,,,61,0
88560,note_on,0,0,1,,,,,,,,,0,,,74,79
88560,note_on,0,0,1,,,,,,,,,0,,,62,66
88640,note_on,0,0,4,,,,,,,,,0,,,53,64
88640,note_on,80,0,4,,,,,,,,,0,,,57,0
88720,note_on,80,0,4,,,,,,,,,0,,,53,0
88720,note_on,0,0,4,,,,,,,,,0,,,57,59
88760,set_tempo,680,1,0,,,,,,649702,,,,,,,
88800,note_on,480,0,3,,,,,,,,,0,,,53,0
88800,note_on,80,0,4,,,,,,,,,0,,,57,0
88800,note_on,0,0,3,,,,,,,,,0,,,46,85
88826,control_change,26,0,4,,,,,,,,,0,64,0,,
88840,set_tempo,80,1,0,,,,,,638842,,,,,,,
88851,control_change,25,0,4,,,,,,,,,0,64,127,,
88880,note_on,29,0,4,,,,,,,,,0,,,55,62
88960,note_on,0,0,4,,,,,,,,,0,,,46,68
88960,note_on,80,0,4,,,,,,,,,0,,,55,0
89040,note_on,0,0,1,,,,,,,,,0,,,65,0
89040,note_on,0,0,1,,,,,,,,,0,,,67,67
89040,note_on,480,0,1,,,,,,,,,0,,,74,0
89040,note_on,0,0,4,,,,,,,,,0,,,55,60
89040,note_on,0,0,1,,,,,,,,,0,,,62,0
89040,note_on,0,0,1,,,,,,,,,0,,,64,67
89040,note_on,80,0,4,,,,,,,,,0,,,46,0
89040,note_on,0,0,1,,,,,,,,,0,,,76,80
89120,note_on,80,0,4,,,,,,,,,0,,,55,0
89120,set_tempo,280,1,0,,,,,,635324,,,,,,,
89120,note_on,0,0,4,,,,,,,,,0,,,46,68
89200,note_on,0,0,4,,,,,,,,,0,,,55,61
89200,note_on,80,0,4,,,,,,,,,0,,,46,0
89280,note_on,480,0,3,,,,,,,,,0,,,46,0
89280,note_on,80,0,4,,,,,,,,,0,,,55,0
89280,note_on,0,0,3,,,,,,,,,0,,,45,86
89292,control_change,12,0,4,,,,,,,,,0,64,0,,
89314,control_change,22,0,4,,,,,,,,,0,64,127,,
89360,set_tempo,240,1,0,,,,,,631845,,,,,,,
89360,note_on,46,0,4,,,,,,,,,0,,,53,60
89440,note_on,0,0,4,,,,,,,,,0,,,45,67
89440,note_on,80,0,4,,,,,,,,,0,,,53,0
89520,note_on,0,0,1,,,,,,,,,0,,,67,0
89520,note_on,0,0,1,,,,,,,,,0,,,69,70
89520,note_on,0,0,1,,,,,,,,,0,,,65,70
89520,note_on,0,0,1,,,,,,,,,0,,,64,0
89520,note_on,0,0,1,,,,,,,,,0,,,77,83
89520,note_on,480,0,1,,,,,,,,,0,,,76,0
89520,note_on,0,0,4,,,,,,,,,0,,,53,60
89520,note_on,80,0,4,,,,,,,,,0,,,45,0
89600,note_on,0,0,4,,,,,,,,,0,,,45,68
89600,note_on,80,0,4,,,,,,,,,0,,,53,0
89640,set_tempo,280,1,0,,,,,,628404,,,,,,,
89680,note_on,80,0,4,,,,,,,,,0,,,45,0
89680,note_on,0,0,4,,,,,,,,,0,,,53,62
89760,note_on,480,0,3,,,,,,,,,0,,,45,0
89760,note_on,0,0,3,,,,,,,,,0,,,43,87
89760,note_on,80,0,4,,,,,,,,,0,,,53,0
89770,control_change,10,0,4,,,,,,,,,0,64,0,,
89811,control_change,41,0,4,,,,,,,,,0,64,127,,
89840,note_on,29,0,4,,,,,,,,,0,,,52,64
89880,set_tempo,240,1,0,,,,,,624935,,,,,,,
89920,note_on,80,0,4,,,,,,,,,0,,,52,0
89920,note_on,0,0,4,,,,,,,,,0,,,43,70
90000,note_on,480,0,1,,,,,,,,,0,,,77,0
90000,note_on,0,0,4,,,,,,,,,0,,,52,63
90000,note_on,0,0,1,,,,,,,,,0,,,76,73
90000,note_on,0,0,1,,,,,,,,,0,,,69,0
90000,note_on,0,0,1,,,,,,,,,0,,,67,73
90000,note_on,0,0,1,,,,,,,,,0,,,79,86
90000,note_on,80,0,4,,,,,,,,,0,,,43,0
90000,note_on,0,0,1,,,,,,,,,0,,,65,0
90080,note_on,80,0,4,,,,,,,,,0,,,52,0
90080,note_on,0,0,4,,,,,,,,,0,,,43,70
90160,set_tempo,280,1,0,,,,,,621568,,,,,,,
90160,note_on,80,0,4,,,,,,,,,0,,,43,0
90160,note_on,0,0,4,,,,,,,,,0,,,52,64
90240,note_on,80,0,4,,,,,,,,,0,,,52,0
90240,note_on,480,0,3,,,,,,,,,0,,,43,0
90240,note_on,0,0,3,,,,,,,,,0,,,41,89
90250,control_change,10,0,4,,,,,,,,,0,64,0,,
90286,control_change,36,0,4,,,,,,,,,0,64,127,,
90320,note_on,34,0,4,,,,,,,,,0,,,50,65
90400,note_on,80,0,4,,,,,,,,,0,,,50,0
90400,note_on,0,0,4,,,,,,,,,0,,,41,71
90400,set_tempo,240,1,0,,,,,,618238,,,,,,,
90480,note_on,0,0,4,,,,,,,,,0,,,50,65
90480,note_on,0,0,1,,,,,,,,,0,,,76,0
90480,note_on,0,0,1,,,,,,,,,0,,,69,77
90480,note_on,0,0,1,,,,,,,,,0,,,77,77
90480,note_on,0,0,1,,,,,,,,,0,,,81,90
90480,note_on,480,0,1,,,,,,,,,0,,,79,0
90480,note_on,0,0,1,,,,,,,,,0,,,67,0
90480,note_on,80,0,4,,,,,,,,,0,,,41,0
90560,note_on,80,0,4,,,,,,,,,0,,,50,0
90560,note_on,0,0,4,,,,,,,,,0,,,41,72
90640,note_on,80,0,4,,,,,,,,,0,,,41,0
90640,note_on,0,0,4,,,,,,,,,0,,,50,67
90680,set_tempo,280,1,0,,,,,,614943,,,,,,,
90720,note_on,0,0,3,,,,,,,,,0,,,40,91
90720,note_on,480,0,3,,,,,,,,,0,,,41,0
90720,note_on,80,0,4,,,,,,,,,0,,,50,0
90733,control_change,13,0,4,,,,,,,,,0,64,0,,
90780,control_change,47,0,4,,,,,,,,,0,64,127,,
90800,note_on,20,0,4,,,,,,,,,0,,,49,68
90880,note_on,80,0,4,,,,,,,,,0,,,49,0
90880,note_on,0,0,4,,,,,,,,,0,,,40,73
90920,set_tempo,240,1,0,,,,,,611683,,,,,,,
90960,note_on,480,0,1,,,,,,,,,0,,,81,0
90960,note_on,80,0,4,,,,,,,,,0,,,40,0
90960,note_on,0,0,1,,,,,,,,,0,,,69,0
90960,note_on,0,0,4,,,,,,,,,0,,,49,66
90960,note_on,0,0,1,,,,,,,,,0,,,81,94
90960,note_on,0,0,1,,,,,,,,,0,,,79,80
90960,note_on,0,0,1,,,,,,,,,0,,,77,0
90960,note_on,0,0,1,,,,,,,,,0,,,69,80
91040,note_on,0,0,4,,,,,,,,,0,,,40,72
91040,note_on,80,0,4,,,,,,,,,0,,,49,0
91120,note_on,0,0,4,,,,,,,,,0,,,49,67
91120,note_on,80,0,4,,,,,,,,,0,,,40,0
91160,set_tempo,240,1,0,,,,,,608458,,,,,,,
91200,note_on,80,0,4,,,,,,,,,0,,,49,0
91200,note_on,0,0,4,,,,,,,,,0,,,45,84
91200,note_on,0,0,3,,,,,,,,,0,,,38,92
91200,note_on,0,0,4,,,,,,,,,0,,,41,72
91200,note_on,480,0,3,,,,,,,,,0,,,40,0
91208,control_change,8,0,4,,,,,,,,,0,64,0,,
91274,control_change,66,0,4,,,,,,,,,0,64,127,,
91280,note_on,0,0,4,,,,,,,,,0,,,50,70
91280,note_on,0,0,4,,,,,,,,,0,,,45,0
91280,set_tempo,120,1,0,,,,,,614943,,,,,,,
91280,note_on,6,0,4,,,,,,,,,0,,,41,0
91359,note_on,159,0,3,,,,,,,,,0,,,38,0
91360,note_on,80,0,4,,,,,,,,,0,,,50,0
91360,note_on,0,0,4,,,,,,,,,0,,,38,64
91360,note_on,0,0,4,,,,,,,,,0,,,45,64
91360,note_on,0,0,4,,,,,,,,,0,,,41,74
91440,note_on,80,0,4,,,,,,,,,0,,,41,0
91440,note_on,0,0,4,,,,,,,,,0,,,38,0
91440,note_on,0,0,4,,,,,,,,,0,,,50,69
91440,note_on,0,0,1,,,,,,,,,0,,,69,0
91440,note_on,0,0,1,,,,,,,,,0,,,77,86
91440,note_on,0,0,1,,,,,,,,,0,,,79,0
91440,note_on,0,0,1,,,,,,,,,0,,,81,88
91440,note_on,0,0,1,,,,,,,,,0,,,89,105
91440,note_on,480,0,1,,,,,,,,,0,,,81,0
91440,note_on,0,0,4,,,,,,,,,0,,,45,0
91480,set_tempo,200,1,0,,,,,,608458,,,,,,,
91520,note_on,0,0,4,,,,,,,,,0,,,38,70
91520,note_on,80,0,4,,,,,,,,,0,,,50,0
91520,note_on,0,0,4,,,,,,,,,0,,,45,70
91520,note_on,0,0,4,,,,,,,,,0,,,41,73
91600,note_on,0,0,4,,,,,,,,,0,,,38,0
91600,note_on,0,0,4,,,,,,,,,0,,,50,69
91600,note_on,0,0,4,,,,,,,,,0,,,45,0
91600,note_on,80,0,4,,,,,,,,,0,,,41,0
91640,set_tempo,160,1,0,,,,,,611683,,,,,,,
91680,note_on,80,0,4,,,,,,,,,0,,,50,0
91680,note_on,0,0,4,,,,,,,,,0,,,40,86
91680,note_on,0,0,4,,,,,,,,,0,,,45,86
91680,note_on,321,0,3,,,,,,,,,0,,,37,94
91688,control_change,8,0,4,,,,,,,,,0,64,0,,
91709,control_change,21,0,4,,,,,,,,,0,64,127,,
91760,set_tempo,120,1,0,,,,,,614943,,,,,,,
91760,note_on,0,0,4,,,,,,,,,0,,,45,0
91760,note_on,0,0,4,,,,,,,,,0,,,49,70
91760,note_on,51,0,4,,,,,,,,,0,,,40,0
91800,set_tempo,40,1,0,,,,,,624935,,,,,,,
91840,note_on,160,0,3,,,,,,,,,0,,,37,0
91840,note_on,0,0,4,,,,,,,,,0,,,37,75
91840,note_on,0,0,4,,,,,,,,,0,,,40,75
91840,note_on,0,0,4,,,,,,,,,0,,,45,75
91840,note_on,80,0,4,,,,,,,,,0,,,49,0
91880,set_tempo,80,1,0,,,,,,645995,,,,,,,
91920,note_on,80,0,4,,,,,,,,,0,,,40,0
91920,note_on,480,0,1,,,,,,,,,0,,,77,0
91920,note_on,0,0,4,,,,,,,,,0,,,49,69
91920,note_on,0,0,4,,,,,,,,,0,,,45,0
91920,note_on,0,0,1,,,,,,,,,0,,,89,0
91920,note_on,0,0,1,,,,,,,,,0,,,88,105
91920,note_on,0,0,1,,,,,,,,,0,,,81,87
91920,note_on,0,0,1,,,,,,,,,0,,,81,0
91920,note_on,0,0,1,,,,,,,,,0,,,76,83
91920,set_tempo,40,1,0,,,,,,782269,,,,,,,
91920,note_on,0,0,4,,,,,,,,,0,,,37,0
92000,note_on,0,0,4,,,,,,,,,0,,,45,74
92000,note_on,0,0,4,,,,,,,,,0,,,40,74
92000,note_on,80,0,4,,,,,,,,,0,,,49,0
92000,note_on,0,0,4,,,,,,,,,0,,,37,75
92080,note_on,80,0,4,,,,,,,,,0,,,45,0
92080,note_on,0,0,4,,,,,,,,,0,,,37,0
92080,note_on,0,0,4,,,,,,,,,0,,,49,70
92080,note_on,0,0,4,,,,,,,,,0,,,40,0
92100,set_tempo,180,1,0,,,,,,1017639,,,,,,,
92100,note_on,260,0,3,,,,,,,,,0,,,36,88
92130,note_on,30,0,3,,,,,,,,,0,,,36,0
92130,note_on,0,0,3,,,,,,,,,0,,,48,88
92160,note_on,0,0,2,,,,,,,,,0,,,81,87
92160,note_on,0,0,2,,,,,,,,,0,,,77,73
92160,note_on,4320,0,2,,,,,,,,,0,,,75,73
92160,note_on,0,0,1,,,,,,,,,0,,,81,0
92160,note_on,30,0,3,,,,,,,,,0,,,48,0
92160,note_on,0,0,3,,,,,,,,,0,,,60,103
92160,set_tempo,60,1,0,,,,,,714456,,,,,,,
92160,control_change,0,0,4,,,,,,,,,0,64,0,,
92160,note_on,240,0,1,,,,,,,,,0,,,76,0
92160,note_on,0,0,1,,,,,,,,,0,,,88,0
92160,note_on,80,0,4,,,,,,,,,0,,,49,0
92191,control_change,31,0,4,,,,,,,,,0,64,127,,
92220,note_on,0,0,2,,,,,,,,,0,,,77,0
92220,note_on,0,0,2,,,,,,,,,0,,,75,0
92220,note_on,60,0,2,,,,,,,,,0,,,81,0
92220,note_on,0,0,2,,,,,,,,,0,,,87,73
92280,note_on,60,0,2,,,,,,,,,0,,,87,0
92280,note_on,0,0,2,,,,,,,,,0,,,81,73
92280,note_on,0,0,2,,,,,,,,,0,,,77,62
92280,note_on,0,0,2,,,,,,,,,0,,,75,62
92340,note_on,0,0,2,,,,,,,,,0,,,75,0
92340,note_on,60,0,2,,,,,,,,,0,,,81,0
92340,note_on,0,0,2,,,,,,,,,0,,,87,70
92340,note_on,0,0,2,,,,,,,,,0,,,77,0
92360,set_tempo,200,1,0,,,,,,709807,,,,,,,
92400,note_on,60,0,2,,,,,,,,,0,,,87,0
92400,note_on,0,0,2,,,,,,,,,0,,,81,72
92400,note_on,0,0,2,,,,,,,,,0,,,77,61
92400,note_on,0,0,2,,,,,,,,,0,,,75,61
92460,note_on,60,0,2,,,,,,,,,0,,,81,0
92460,note_on,0,0,2,,,,,,,,,0,,,75,0
92460,note_on,0,0,2,,,,,,,,,0,,,77,0
92460,note_on,0,0,2,,,,,,,,,0,,,87,71
92520,set_tempo,160,1,0,,,,,,705219,,,,,,,
92520,note_on,0,0,2,,,,,,,,,0,,,75,61
92520,note_on,0,0,2,,,,,,,,,0,,,77,61
92520,note_on,60,0,2,,,,,,,,,0,,,87,0
92520,note_on,0,0,2,,,,,,,,,0,,,81,72
92580,note_on,0,0,2,,,,,,,,,0,,,77,0
92580,note_on,60,0,2,,,,,,,,,0,,,81,0
92580,note_on,0,0,2,,,,,,,,,0,,,87,70
92580,note_on,0,0,2,,,,,,,,,0,,,75,0
92640,note_on,60,0,2,,,,,,,,,0,,,87,0
92640,note_on,0,0,2,,,,,,,,,0,,,75,63
92640,note_on,0,0,2,,,,,,,,,0,,,77,63
92640,note_on,0,0,2,,,,,,,,,0,,,81,76
92660,set_tempo,140,1,0,,,,,,705882,,,,,,,
92680,set_tempo,20,1,0,,,,,,701754,,,,,,,
92700,note_on,0,0,2,,,,,,,,,0,,,87,68
92700,note_on,60,0,2,,,,,,,,,0,,,81,0
92700,note_on,0,0,2,,,,,,,,,0,,,77,0
92700,note_on,0,0,2,,,,,,,,,0,,,75,0
92700,set_tempo,20,1,0,,,,,,697674,,,,,,,
92720,set_tempo,20,1,0,,,,,,693642,,,,,,,
92740,set_tempo,20,1,0,,,,,,689655,,,,,,,
92760,note_on,0,0,2,,,,,,,,,0,,,81,65
92760,set_tempo,20,1,0,,,,,,685714,,,,,,,
92760,note_on,0,0,2,,,,,,,,,0,,,77,55
92760,note_on,60,0,2,,,,,,,,,0,,,87,0
92760,note_on,0,0,2,,,,,,,,,0,,,75,55
92780,set_tempo,20,1,0,,,,,,681818,,,,,,,
92800,set_tempo,20,1,0,,,,,,677966,,,,,,,
92820,note_on,0,0,2,,,,,,,,,0,,,87,65
92820,set_tempo,20,1,0,,,,,,674157,,,,,,,
92820,note_on,0,0,2,,,,,,,,,0,,,77,0
92820,note_on,0,0,2,,,,,,,,,0,,,75,0
92820,note_on,60,0,2,,,,,,,,,0,,,81,0
92840,set_tempo,20,1,0,,,,,,670391,,,,,,,
92860,set_tempo,20,1,0,,,,,,662983,,,,,,,
92880,note_on,0,0,2,,,,,,,,,0,,,81,64
92880,note_on,60,0,2,,,,,,,,,0,,,87,0
92880,note_on,0,0,2,,,,,,,,,0,,,75,54
92880,note_on,0,0,2,,,,,,,,,0,,,77,54
92880,set_tempo,20,1,0,,,,,,670391,,,,,,,
92900,set_tempo,20,1,0,,,,,,677966,,,,,,,
92920,set_tempo,20,1,0,,,,,,685714,,,,,,,
92940,note_on,60,0,2,,,,,,,,,0,,,81,0
92940,note_on,0,0,2,,,,,,,,,0,,,75,0
92940,note_on,0,0,2,,,,,,,,,0,,,77,0
92940,note_on,0,0,2,,,,,,,,,0,,,87,65
93000,note_on,0,0,2,,,,,,,,,0,,,81,64
93000,note_on,0,0,2,,,,,,,,,0,,,77,53
93000,note_on,0,0,2,,,,,,,,,0,,,75,53
93000,note_on,60,0,2,,,,,,,,,0,,,87,0
93040,set_tempo,120,1,0,,,,,,700771,,,,,,,
93060,note_on,0,0,2,,,,,,,,,0,,,77,0
93060,note_on,0,0,2,,,,,,,,,0,,,75,0
93060,note_on,60,0,2,,,,,,,,,0,,,81,0
93060,note_on,900,0,3,,,,,,,,,0,,,35,88
93060,note_on,0,0,2,,,,,,,,,0,,,87,66
93069,control_change,878,0,4,,,,,,,,,0,64,0,,
93090,note_on,30,0,3,,,,,,,,,0,,,35,0
93090,note_on,0,0,3,,,,,,,,,0,,,47,88
93120,control_change,51,0,4,,,,,,,,,0,64,127,,
93120,note_on,60,0,2,,,,,,,,,0,,,87,0
93120,note_on,0,0,2,,,,,,,,,0,,,75,68
93120,note_on,0,0,2,,,,,,,,,0,,,81,81
93120,note_on,0,0,3,,,,,,,,,0,,,59,103
93120,note_on,0,0,3,,,,,,,,,0,,,60,0
93120,note_on,0,0,2,,,,,,,,,0,,,77,68
93120,set_tempo,80,1,0,,,,,,666815,,,,,,,
93120,note_on,30,0,3,,,,,,,,,0,,,47,0
93180,note_on,0,0,2,,,,,,,,,0,,,77,0
93180,note_on,0,0,2,,,,,,,,,0,,,87,69
93180,note_on,0,0,2,,,,,,,,,0,,,75,0
93180,note_on,60,0,2,,,,,,,,,0,,,81,0
93240,note_on,0,0,2,,,,,,,,,0,,,81,67
93240,note_on,0,0,2,,,,,,,,,0,,,75,56
93240,note_on,0,0,2,,,,,,,,,0,,,77,56
93240,note_on,60,0,2,,,,,,,,,0,,,87,0
93300,note_on,0,0,2,,,,,,,,,0,,,75,0
93300,note_on,0,0,2,,,,,,,,,0,,,77,0
93300,note_on,60,0,2,,,,,,,,,0,,,81,0
93300,note_on,0,0,2,,,,,,,,,0,,,87,69
93360,note_on,0,0,2,,,,,,,,,0,,,75,56
93360,note_on,0,0,2,,,,,,,,,0,,,81,67
93360,note_on,0,0,2,,,,,,,,,0,,,77,56
93360,note_on,60,0,2,,,,,,,,,0,,,87,0
93420,note_on,0,0,2,,,,,,,,,0,,,87,69
93420,note_on,0,0,2,,,,,,,,,0,,,75,0
93420,note_on,0,0,2,,,,,,,,,0,,,77,0
93420,note_on,60,0,2,,,,,,,,,0,,,81,0
93480,note_on,60,0,2,,,,,,,,,0,,,87,0
93480,note_on,0,0,2,,,,,,,,,0,,,75,56
93480,note_on,0,0,2,,,,,,,,,0,,,77,56
93480,note_on,0,0,2,,,,,,,,,0,,,81,67
93540,note_on,60,0,2,,,,,,,,,0,,,81,0
93540,note_on,0,0,2,,,,,,,,,0,,,87,69
93540,note_on,0,0,2,,,,,,,,,0,,,77,0
93540,note_on,0,0,2,,,,,,,,,0,,,75,0
93600,note_on,0,0,3,,,,,,,,,0,,,72,84
93600,note_on,60,0,2,,,,,,,,,0,,,87,0
93600,note_on,480,0,3,,,,,,,,,0,,,59,0
93600,set_tempo,480,1,0,,,,,,650971,,,,,,,
93600,note_on,1440,0,1,,,,,,,,,0,,,81,93
93600,note_on,0,0,3,,,,,,,,,0,,,60,84
93600,note_on,0,0,2,,,,,,,,,0,,,75,62
93600,note_on,0,0,2,,,,,,,,,0,,,77,74
93605,control_change,485,0,4,,,,,,,,,0,64,0,,
93631,control_change,26,0,4,,,,,,,,,0,64,127,,
93680,note_on,80,0,2,,,,,,,,,0,,,77,0
93680,note_on,0,0,2,,,,,,,,,0,,,87,68
93680,note_on,0,0,2,,,,,,,,,0,,,75,0
93758,note_on,158,0,1,,,,,,,,,0,,,81,0
93760,note_on,80,0,2,,,,,,,,,0,,,87,0
93760,note_on,0,0,2,,,,,,,,,0,,,77,62
93760,note_on,0,0,2,,,,,,,,,0,,,75,62
93760,note_on,0,0,2,,,,,,,,,0,,,81,74
93840,note_on,0,0,2,,,,,,,,,0,,,87,68
93840,note_on,0,0,2,,,,,,,,,0,,,77,0
93840,note_on,0,0,2,,,,,,,,,0,,,75,0
93840,note_on,80,0,2,,,,,,,,,0,,,81,0
93920,note_on,0,0,2,,,,,,,,,0,,,81,75
93920,note_on,0,0,2,,,,,,,,,0,,,77,63
93920,note_on,80,0,2,,,,,,,,,0,,,87,0
93920,note_on,0,0,2,,,,,,,,,0,,,75,63
94000,note_on,0,0,2,,,,,,,,,0,,,77,0
94000,note_on,0,0,2,,,,,,,,,0,,,87,69
94000,note_on,80,0,2,,,,,,,,,0,,,81,0
94000,note_on,0,0,2,,,,,,,,,0,,,75,0
94080,set_tempo,480,1,0,,,,,,666815,,,,,,,
94080,note_on,0,0,3,,,,,,,,,0,,,59,88
94080,note_on,0,0,3,,,,,,,,,0,,,60,0
94080,note_on,0,0,3,,,,,,,,,0,,,71,88
94080,note_on,322,0,1,,,,,,,,,0,,,83,98
94080,note_on,480,0,3,,,,,,,,,0,,,72,0
94080,note_on,0,0,2,,,,,,,,,0,,,77,76
94080,note_on,0,0,2,,,,,,,,,0,,,75,64
94080,note_on,80,0,2,,,,,,,,,0,,,87,0
94087,control_change,456,0,4,,,,,,,,,0,64,0,,
94120,control_change,33,0,4,,,,,,,,,0,64,127,,
94160,note_on,0,0,2,,,,,,,,,0,,,87,70
94160,note_on,80,0,2,,,,,,,,,0,,,77,0
94160,note_on,0,0,2,,,,,,,,,0,,,75,0
94238,note_on,158,0,1,,,,,,,,,0,,,83,0
94240,note_on,0,0,2,,,,,,,,,0,,,75,65
94240,note_on,0,0,2,,,,,,,,,0,,,77,65
94240,note_on,0,0,2,,,,,,,,,0,,,83,77
94240,note_on,80,0,2,,,,,,,,,0,,,87,0
94320,note_on,80,0,2,,,,,,,,,0,,,83,0
94320,note_on,0,0,2,,,,,,,,,0,,,87,70
94320,note_on,0,0,2,,,,,,,,,0,,,75,0
94320,note_on,0,0,2,,,,,,,,,0,,,77,0
94400,note_on,0,0,2,,,,,,,,,0,,,77,65
94400,note_on,80,0,2,,,,,,,,,0,,,87,0
94400,note_on,0,0,2,,,,,,,,,0,,,83,77
94400,note_on,0,0,2,,,,,,,,,0,,,75,65
94480,note_on,0,0,2,,,,,,,,,0,,,87,70
94480,note_on,80,0,2,,,,,,,,,0,,,83,0
94480,note_on,0,0,2,,,,,,,,,0,,,75,0
94480,note_on,0,0,2,,,,,,,,,0,,,77,0
94560,note_on,0,0,3,,,,,,,,,0,,,57,92
94560,note_on,0,0,2,,,,,,,,,0,,,75,66
94560,note_on,80,0,2,,,,,,,,,0,,,87,0
94560,note_on,0,0,2,,,,,,,,,0,,,77,78
94560,note_on,322,0,1,,,,,,,,,0,,,84,102
94560,note_on,0,0,3,,,,,,,,,0,,,69,92
94560,note_on,0,0,3,,,,,,,,,0,,,59,0
94560,note_on,480,0,3,,,,,,,,,0,,,71,0
94578,control_change,458,0,4,,,,,,,,,0,64,0,,
94629,control_change,51,0,4,,,,,,,,,0,64,127,,
94640,note_on,80,0,2,,,,,,,,,0,,,77,0
94640,note_on,0,0,2,,,,,,,,,0,,,87,72
94640,note_on,0,0,2,,,,,,,,,0,,,75,0
94718,note_on,158,0,1,,,,,,,,,0,,,84,0
94720,note_on,0,0,2,,,,,,,,,0,,,84,79
94720,note_on,80,0,2,,,,,,,,,0,,,87,0
94720,note_on,0,0,2,,,,,,,,,0,,,75,67
94720,note_on,0,0,2,,,,,,,,,0,,,77,67
94800,note_on,0,0,2,,,,,,,,,0,,,75,0
94800,note_on,0,0,2,,,,,,,,,0,,,77,0
94800,note_on,0,0,2,,,,,,,,,0,,,87,72
94800,note_on,80,0,2,,,,,,,,,0,,,84,0
94837,set_tempo,757,1,0,,,,,,714456,,,,,,,
94880,note_on,0,0,2,,,,,,,,,0,,,75,68
94880,note_on,80,0,2,,,,,,,,,0,,,87,0
94880,note_on,0,0,2,,,,,,,,,0,,,84,80
94880,note_on,0,0,2,,,,,,,,,0,,,77,68
94960,note_on,0,0,2,,,,,,,,,0,,,87,73
94960,note_on,0,0,2,,,,,,,,,0,,,77,0
94960,note_on,0,0,2,,,,,,,,,0,,,75,0
94960,note_on,80,0,2,,,,,,,,,0,,,84,0
95040,note_on,80,0,2,,,,,,,,,0,,,87,0
95040,note_on,0,0,2,,,,,,,,,0,,,80,81
95040,control_change,0,0,4,,,,,,,,,0,64,0,,
95040,set_tempo,203,1,0,,,,,,647179,,,,,,,
95040,note_on,480,0,3,,,,,,,,,0,,,69,0
95040,note_on,0,0,2,,,,,,,,,0,,,76,69
95040,note_on,0,0,3,,,,,,,,,0,,,64,92
95040,note_on,0,0,3,,,,,,,,,0,,,57,0
95040,note_on,411,0,4,,,,,,,,,0,,,56,85
95074,control_change,34,0,4,,,,,,,,,0,64,127,,
95120,note_on,0,0,2,,,,,,,,,0,,,88,75
95120,note_on,80,0,2,,,,,,,,,0,,,80,0
95120,note_on,0,0,2,,,,,,,,,0,,,76,0
95160,note_on,86,0,4,,,,,,,,,0,,,56,0
95200,note_on,0,0,2,,,,,,,,,0,,,80,70
95200,note_on,0,0,2,,,,,,,,,0,,,76,70
95200,note_on,80,0,2,,,,,,,,,0,,,88,0
95280,note_on,80,0,2,,,,,,,,,0,,,80,0
95280,note_on,120,0,4,,,,,,,,,0,,,40,71
95280,set_tempo,240,1,0,,,,,,670841,,,,,,,
95280,note_on,0,0,2,,,,,,,,,0,,,88,75
95280,note_on,0,0,2,,,,,,,,,0,,,76,0
95360,note_on,80,0,2,,,,,,,,,0,,,88,0
95360,note_on,0,0,2,,,,,,,,,0,,,76,71
95360,note_on,0,0,2,,,,,,,,,0,,,80,71
95400,note_on,120,0,4,,,,,,,,,0,,,40,0
95440,note_on,0,0,2,,,,,,,,,0,,,76,0
95440,note_on,80,0,2,,,,,,,,,0,,,80,0
95440,note_on,0,0,2,,,,,,,,,0,,,88,76
95520,note_on,80,0,2,,,,,,,,,0,,,88,0
95520,note_on,802,0,1,,,,,,,,,0,,,84,102
95520,note_on,480,0,3,,,,,,,,,0,,,64,0
95520,note_on,120,0,4,,,,,,,,,0,,,60,83
95520,note_on,0,0,3,,,,,,,,,0,,,63,94
95520,note_on,0,0,2,,,,,,,,,0,,,75,69
95520,set_tempo,240,1,0,,,,,,582129,,,,,,,
95529,control_change,9,0,4,,,,,,,,,0,64,0,,
95563,control_change,34,0,4,,,,,,,,,0,64,127,,
95600,note_on,80,0,2,,,,,,,,,0,,,75,0
95600,note_on,0,0,2,,,,,,,,,0,,,87,75
95640,note_on,77,0,4,,,,,,,,,0,,,60,0
95678,note_on,158,0,1,,,,,,,,,0,,,84,0
95680,note_on,0,0,2,,,,,,,,,0,,,84,70
95680,note_on,0,0,2,,,,,,,,,0,,,75,70
95680,note_on,80,0,2,,,,,,,,,0,,,87,0
95760,note_on,120,0,4,,,,,,,,,0,,,52,70
95760,note_on,0,0,2,,,,,,,,,0,,,75,0
95760,note_on,80,0,2,,,,,,,,,0,,,84,0
95760,set_tempo,240,1,0,,,,,,643363,,,,,,,
95760,note_on,0,0,2,,,,,,,,,0,,,87,75
95840,note_on,80,0,2,,,,,,,,,0,,,87,0
95840,note_on,0,0,2,,,,,,,,,0,,,84,71
95840,note_on,0,0,2,,,,,,,,,0,,,75,71
95880,note_on,120,0,4,,,,,,,,,0,,,52,0
95920,note_on,0,0,2,,,,,,,,,0,,,75,0
95920,note_on,80,0,2,,,,,,,,,0,,,84,0
95920,note_on,0,0,2,,,,,,,,,0,,,87,76
96000,note_on,0,0,2,,,,,,,,,0,,,74,69
96000,note_on,322,0,1,,,,,,,,,0,,,83,101
96000,note_on,480,0,3,,,,,,,,,0,,,63,0
96000,note_on,0,0,3,,,,,,,,,0,,,62,93
96000,set_tempo,240,1,0,,,,,,601202,,,,,,,
96000,note_on,80,0,2,,,,,,,,,0,,,87,0
96000,note_on,120,0,4,,,,,,,,,0,,,59,84
96006,control_change,6,0,4,,,,,,,,,0,64,0,,
96031,control_change,25,0,4,,,,,,,,,0,64,127,,
96080,note_on,0,0,2,,,,,,,,,0,,,86,75
96080,note_on,80,0,2,,,,,,,,,0,,,74,0
96120,note_on,89,0,4,,,,,,,,,0,,,59,0
96158,note_on,158,0,1,,,,,,,,,0,,,83,0
96160,note_on,80,0,2,,,,,,,,,0,,,86,0
96160,note_on,0,0,2,,,,,,,,,0,,,83,70
96160,note_on,0,0,2,,,,,,,,,0,,,74,70
96240,note_on,0,0,2,,,,,,,,,0,,,74,0
96240,note_on,120,0,4,,,,,,,,,0,,,40,72
96240,note_on,80,0,2,,,,,,,,,0,,,83,0
96240,set_tempo,240,1,0,,,,,,643363,,,,,,,
96240,note_on,0,0,2,,,,,,,,,0,,,86,75
96320,note_on,80,0,2,,,,,,,,,0,,,86,0
96320,note_on,0,0,2,,,,,,,,,0,,,74,71
96320,note_on,0,0,2,,,,,,,,,0,,,83,71
96360,note_on,120,0,4,,,,,,,,,0,,,40,0
96400,note_on,0,0,2,,,,,,,,,0,,,86,76
96400,note_on,0,0,2,,,,,,,,,0,,,74,0
96400,note_on,80,0,2,,,,,,,,,0,,,83,0
96480,note_on,120,0,4,,,,,,,,,0,,,58,84
96480,note_on,322,0,1,,,,,,,,,0,,,82,100
96480,note_on,80,0,2,,,,,,,,,0,,,86,0
96480,note_on,0,0,2,,,,,,,,,0,,,73,69
96480,note_on,480,0,3,,,,,,,,,0,,,62,0
96480,note_on,0,0,3,,,,,,,,,0,,,61,92
96480,set_tempo,240,1,0,,,,,,621568,,,,,,,
96489,control_change,9,0,4,,,,,,,,,0,64,0,,
96520,control_change,31,0,4,,,,,,,,,0,64,127,,
96560,note_on,80,0,2,,,,,,,,,0,,,73,0
96560,note_on,0,0,2,,,,,,,,,0,,,85,75
96600,note_on,80,0,4,,,,,,,,,0,,,58,0
96638,note_on,158,0,1,,,,,,,,,0,,,82,0
96640,note_on,0,0,2,,,,,,,,,0,,,82,70
96640,note_on,0,0,2,,,,,,,,,0,,,73,70
96640,note_on,80,0,2,,,,,,,,,0,,,85,0
96720,note_on,120,0,4,,,,,,,,,0,,,52,72
96720,note_on,0,0,2,,,,,,,,,0,,,73,0
96720,note_on,0,0,2,,,,,,,,,0,,,85,75
96720,note_on,80,0,2,,,,,,,,,0,,,82,0
96720,set_tempo,240,1,0,,,,,,647179,,,,,,,
96800,note_on,0,0,2,,,,,,,,,0,,,82,71
96800,note_on,80,0,2,,,,,,,,,0,,,85,0
96800,note_on,0,0,2,,,,,,,,,0,,,73,71
96840,note_on,120,0,4,,,,,,,,,0,,,52,0
96880,note_on,0,0,2,,,,,,,,,0,,,73,0
96880,note_on,0,0,2,,,,,,,,,0,,,85,76
96880,note_on,80,0,2,,,,,,,,,0,,,82,0
96960,note_on,80,0,2,,,,,,,,,0,,,85,0
96960,note_on,0,0,2,,,,,,,,,0,,,72,69
96960,note_on,322,0,1,,,,,,,,,0,,,81,98
96960,note_on,120,0,4,,,,,,,,,0,,,51,86
96960,note_on,480,0,3,,,,,,,,,0,,,61,0
96960,note_on,0,0,4,,,,,,,,,0,,,57,86
96960,note_on,0,0,3,,,,,,,,,0,,,60,91
96960,set_tempo,240,1,0,,,,,,625065,,,,,,,
96971,control_change,11,0,4,,,,,,,,,0,64,0,,
97023,control_change,52,0,4,,,,,,,,,0,64,127,,
97040,note_on,80,0,2,,,,,,,,,0,,,72,0
97040,note_on,0,0,2,,,,,,,,,0,,,84,75
97080,note_on,0,0,4,,,,,,,,,0,,,51,0
97080,note_on,57,0,4,,,,,,,,,0,,,57,0
97118,note_on,158,0,1,,,,,,,,,0,,,81,0
97120,note_on,80,0,2,,,,,,,,,0,,,84,0
97120,note_on,0,0,2,,,,,,,,,0,,,81,70
97120,note_on,0,0,2,,,,,,,,,0,,,72,70
97200,note_on,120,0,4,,,,,,,,,0,,,40,72
97200,note_on,80,0,2,,,,,,,,,0,,,81,0
97200,note_on,0,0,2,,,,,,,,,0,,,72,0
97200,set_tempo,240,1,0,,,,,,650971,,,,,,,
97200,note_on,0,0,2,,,,,,,,,0,,,84,75
97280,note_on,0,0,2,,,,,,,,,0,,,72,71
97280,note_on,0,0,2,,,,,,,,,0,,,81,71
97280,note_on,80,0,2,,,,,,,,,0,,,84,0
97320,note_on,120,0,4,,,,,,,,,0,,,40,0
97360,note_on,80,0,2,,,,,,,,,0,,,81,0
97360,note_on,0,0,2,,,,,,,,,0,,,72,0
97360,note_on,0,0,2,,,,,,,,,0,,,84,76
97440,note_on,0,0,3,,,,,,,,,0,,,59,90
97440,set_tempo,240,1,0,,,,,,628667,,,,,,,
97440,note_on,0,0,2,,,,,,,,,0,,,71,69
97440,note_on,322,0,1,,,,,,,,,0,,,80,97
97440,note_on,0,0,4,,,,,,,,,0,,,56,89
97440,note_on,480,0,3,,,,,,,,,0,,,60,0
97440,note_on,80,0,2,,,,,,,,,0,,,84,0
97440,note_on,120,0,4,,,,,,,,,0,,,52,75
97450,control_change,10,0,4,,,,,,,,,0,64,0,,
97489,control_change,39,0,4,,,,,,,,,0,64,127,,
97520,note_on,80,0,2,,,,,,,,,0,,,71,0
97520,note_on,0,0,2,,,,,,,,,0,,,83,75
97560,note_on,0,0,4,,,,,,,,,0,,,52,0
97560,note_on,71,0,4,,,,,,,,,0,,,56,0
97598,note_on,158,0,1,,,,,,,,,0,,,80,0
97600,note_on,0,0,2,,,,,,,,,0,,,71,70
97600,note_on,0,0,2,,,,,,,,,0,,,80,70
97600,note_on,80,0,2,,,,,,,,,0,,,83,0
97680,note_on,0,0,2,,,,,,,,,0,,,83,75
97680,note_on,0,0,2,,,,,,,,,0,,,71,0
97680,note_on,80,0,2,,,,,,,,,0,,,80,0
97680,set_tempo,240,1,0,,,,,,650971,,,,,,,
97760,note_on,0,0,2,,,,,,,,,0,,,71,71
97760,note_on,80,0,2,,,,,,,,,0,,,83,0
97760,note_on,0,0,2,,,,,,,,,0,,,80,71
97840,note_on,80,0,2,,,,,,,,,0,,,80,0
97840,note_on,0,0,2,,,,,,,,,0,,,71,0
97840,note_on,0,0,2,,,,,,,,,0,,,83,76
97860,note_on,420,0,3,,,,,,,,,0,,,59,0
97860,note_on,0,0,3,,,,,,,,,0,,,37,88
97860,set_tempo,180,1,0,,,,,,973710,,,,,,,
97890,note_on,0,0,3,,,,,,,,,0,,,49,88
97890,note_on,30,0,3,,,,,,,,,0,,,37,0
97920,control_change,360,0,4,,,,,,,,,0,64,0,,
97920,note_on,0,0,2,,,,,,,,,0,,,76,73
97920,note_on,0,0,2,,,,,,,,,0,,,79,73
97920,note_on,0,0,2,,,,,,,,,0,,,82,87
97920,note_on,30,0,3,,,,,,,,,0,,,49,0
97920,note_on,80,0,2,,,,,,,,,0,,,83,0
97920,set_tempo,60,1,0,,,,,,714456,,,,,,,
97920,note_on,0,0,3,,,,,,,,,0,,,61,103
97940,set_tempo,20,1,0,,,,,,710059,,,,,,,
97951,control_change,31,0,4,,,,,,,,,0,64,127,,
97960,set_tempo,20,1,0,,,,,,705882,,,,,,,
97980,note_on,0,0,2,,,,,,,,,0,,,88,73
97980,note_on,0,0,2,,,,,,,,,0,,,79,0
97980,note_on,60,0,2,,,,,,,,,0,,,82,0
97980,note_on,0,0,2,,,,,,,,,0,,,76,0
97980,set_tempo,20,1,0,,,,,,701754,,,,,,,
98000,set_tempo,20,1,0,,,,,,697674,,,,,,,
98020,set_tempo,20,1,0,,,,,,693642,,,,,,,
98040,note_on,60,0,2,,,,,,,,,0,,,88,0
98040,set_tempo,20,1,0,,,,,,689655,,,,,,,
98040,note_on,0,0,2,,,,,,,,,0,,,76,62
98040,note_on,0,0,2,,,,,,,,,0,,,79,62
98040,note_on,0,0,2,,,,,,,,,0,,,82,73
98060,set_tempo,20,1,0,,,,,,685714,,,,,,,
98080,set_tempo,20,1,0,,,,,,681818,,,,,,,
98100,note_on,60,0,2,,,,,,,,,0,,,82,0
98100,set_tempo,20,1,0,,,,,,677966,,,,,,,
98100,note_on,0,0,2,,,,,,,,,0,,,76,0
98100,note_on,0,0,2,,,,,,,,,0,,,79,0
98100,note_on,0,0,2,,,,,,,,,0,,,88,70
98120,set_tempo,20,1,0,,,,,,670391,,,,,,,
98160,note_on,60,0,2,,,,,,,,,0,,,88,0
98160,note_on,0,0,2,,,,,,,,,0,,,76,61
98160,set_tempo,40,1,0,,,,,,674157,,,,,,,
98160,note_on,0,0,2,,,,,,,,,0,,,79,61
98160,note_on,0,0,2,,,,,,,,,0,,,82,72
98200,set_tempo,40,1,0,,,,,,677966,,,,,,,
98220,note_on,60,0,2,,,,,,,,,0,,,82,0
98220,note_on,0,0,2,,,,,,,,,0,,,76,0
98220,note_on,0,0,2,,,,,,,,,0,,,88,71
98220,note_on,0,0,2,,,,,,,,,0,,,79,0
98240,set_tempo,40,1,0,,,,,,681818,,,,,,,
98280,note_on,60,0,2,,,,,,,,,0,,,88,0
98280,set_tempo,40,1,0,,,,,,685714,,,,,,,
98280,note_on,0,0,2,,,,,,,,,0,,,76,61
98280,note_on,0,0,2,,,,,,,,,0,,,79,61
98280,note_on,0,0,2,,,,,,,,,0,,,82,72
98320,set_tempo,40,1,0,,,,,,689655,,,,,,,
98340,note_on,0,0,2,,,,,,,,,0,,,76,0
98340,note_on,0,0,2,,,,,,,,,0,,,79,0
98340,note_on,60,0,2,,,,,,,,,0,,,82,0
98340,note_on,0,0,2,,,,,,,,,0,,,88,70
98400,note_on,0,0,2,,,,,,,,,0,,,76,63
98400,note_on,60,0,2,,,,,,,,,0,,,88,0
98400,note_on,0,0,2,,,,,,,,,0,,,79,63
98400,note_on,0,0,2,,,,,,,,,0,,,82,76
98460,note_on,60,0,2,,,,,,,,,0,,,82,0
98460,note_on,0,0,2,,,,,,,,,0,,,76,0
98460,note_on,0,0,2,,,,,,,,,0,,,79,0
98460,note_on,0,0,2,,,,,,,,,0,,,88,68
98480,set_tempo,160,1,0,,,,,,700771,,,,,,,
98520,note_on,0,0,2,,,,,,,,,0,,,79,55
98520,note_on,0,0,2,,,,,,,,,0,,,76,55
98520,note_on,0,0,2,,,,,,,,,0,,,82,65
98520,note_on,60,0,2,,,,,,,,,0,,,88,0
98580,note_on,0,0,2,,,,,,,,,0,,,88,65
98580,note_on,0,0,2,,,,,,,,,0,,,76,0
98580,note_on,60,0,2,,,,,,,,,0,,,82,0
98580,note_on,0,0,2,,,,,,,,,0,,,79,0
98640,note_on,0,0,2,,,,,,,,,0,,,76,54
98640,note_on,60,0,2,,,,,,,,,0,,,88,0
98640,note_on,0,0,2,,,,,,,,,0,,,82,64
98640,note_on,0,0,2,,,,,,,,,0,,,79,54
98640,set_tempo,160,1,0,,,,,,696379,,,,,,,
98700,note_on,0,0,2,,,,,,,,,0,,,76,0
98700,note_on,60,0,2,,,,,,,,,0,,,82,0
98700,note_on,0,0,2,,,,,,,,,0,,,79,0
98700,note_on,0,0,2,,,,,,,,,0,,,88,65
98760,note_on,60,0,2,,,,,,,,,0,,,88,0
98760,note_on,0,0,2,,,,,,,,,0,,,76,53
98760,note_on,0,0,2,,,,,,,,,0,,,79,53
98760,note_on,0,0,2,,,,,,,,,0,,,82,64
98800,set_tempo,160,1,0,,,,,,700771,,,,,,,
98820,note_on,0,0,2,,,,,,,,,0,,,76,0
98820,note_on,0,0,2,,,,,,,,,0,,,88,66
98820,note_on,0,0,2,,,,,,,,,0,,,79,0
98820,note_on,900,0,3,,,,,,,,,0,,,36,88
98820,note_on,60,0,2,,,,,,,,,0,,,82,0
98829,control_change,878,0,4,,,,,,,,,0,64,0,,
98850,note_on,0,0,3,,,,,,,,,0,,,48,88
98850,note_on,30,0,3,,,,,,,,,0,,,36,0
98880,note_on,0,0,3,,,,,,,,,0,,,60,103
98880,note_on,60,0,2,,,,,,,,,0,,,88,0
98880,note_on,30,0,3,,,,,,,,,0,,,48,0
98880,note_on,0,0,2,,,,,,,,,0,,,76,68
98880,control_change,51,0,4,,,,,,,,,0,64,127,,
98880,note_on,0,0,2,,,,,,,,,0,,,82,81
98880,note_on,0,0,2,,,,,,,,,0,,,79,68
98880,note_on,0,0,3,,,,,,,,,0,,,61,0
98880,set_tempo,80,1,0,,,,,,666815,,,,,,,
98940,note_on,60,0,2,,,,,,,,,0,,,82,0
98940,note_on,0,0,2,,,,,,,,,0,,,79,0
98940,note_on,0,0,2,,,,,,,,,0,,,88,69
98940,note_on,0,0,2,,,,,,,,,0,,,76,0
99000,note_on,0,0,2,,,,,,,,,0,,,79,56
99000,note_on,0,0,2,,,,,,,,,0,,,82,67
99000,note_on,0,0,2,,,,,,,,,0,,,76,56
99000,note_on,60,0,2,,,,,,,,,0,,,88,0
99060,note_on,60,0,2,,,,,,,,,0,,,82,0
99060,note_on,0,0,2,,,,,,,,,0,,,76,0
99060,note_on,0,0,2,,,,,,,,,0,,,79,0
99060,note_on,0,0,2,,,,,,,,,0,,,88,69
99120,note_on,0,0,2,,,,,,,,,0,,,76,56
99120,note_on,60,0,2,,,,,,,,,0,,,88,0
99120,note_on,0,0,2,,,,,,,,,0,,,82,67
99120,note_on,0,0,2,,,,,,,,,0,,,79,56
99180,note_on,60,0,2,,,,,,,,,0,,,82,0
99180,note_on,0,0,2,,,,,,,,,0,,,79,0
99180,note_on,0,0,2,,,,,,,,,0,,,76,0
99180,note_on,0,0,2,,,,,,,,,0,,,88,69
99240,note_on,0,0,2,,,,,,,,,0,,,79,56
99240,note_on,60,0,2,,,,,,,,,0,,,88,0
99240,note_on,0,0,2,,,,,,,,,0,,,76,56
99240,note_on,0,0,2,,,,,,,,,0,,,82,67
99300,note_on,0,0,2,,,,,,,,,0,,,76,0
99300,note_on,60,0,2,,,,,,,,,0,,,82,0
99300,note_on,0,0,2,,,,,,,,,0,,,79,0
99300,note_on,0,0,2,,,,,,,,,0,,,88,69
99360,note_on,1762,0,1,,,,,,,,,0,,,82,93
99360,set_tempo,480,1,0,,,,,,650971,,,,,,,
99360,note_on,0,0,3,,,,,,,,,0,,,61,84
99360,note_on,0,0,2,,,,,,,,,0,,,76,62
99360,note_on,0,0,3,,,,,,,,,0,,,73,84
99360,note_on,60,0,2,,,,,,,,,0,,,88,0
99360,note_on,0,0,2,,,,,,,,,0,,,79,74
99360,note_on,480,0,3,,,,,,,,,0,,,60,0
99365,control_change,485,0,4,,,,,,,,,0,64,0,,
99391,control_change,26,0,4,,,,,,,,,0,64,127,,
99440,note_on,80,0,2,,,,,,,,,0,,,79,0
99440,note_on,0,0,2,,,,,,,,,0,,,76,0
99440,note_on,0,0,2,,,,,,,,,0,,,88,68
99518,note_on,158,0,1,,,,,,,,,0,,,82,0
99520,note_on,0,0,2,,,,,,,,,0,,,82,74
99520,note_on,0,0,2,,,,,,,,,0,,,79,62
99520,note_on,80,0,2,,,,,,,,,0,,,88,0
99520,note_on,0,0,2,,,,,,,,,0,,,76,62
99600,note_on,80,0,2,,,,,,,,,0,,,82,0
99600,note_on,0,0,2,,,,,,,,,0,,,88,68
99600,note_on,0,0,2,,,,,,,,,0,,,76,0
99600,note_on,0,0,2,,,,,,,,,0,,,79,0
99680,note_on,80,0,2,,,,,,,,,0,,,88,0
99680,note_on,0,0,2,,,,,,,,,0,,,76,63
99680,note_on,0,0,2,,,,,,,,,0,,,82,75
99680,note_on,0,0,2,,,,,,,,,0,,,79,63
99760,note_on,0,0,2,,,,,,,,,0,,,76,0
99760,note_on,80,0,2,,,,,,,,,0,,,82,0
99760,note_on,0,0,2,,,,,,,,,0,,,88,69
99760,note_on,0,0,2,,,,,,,,,0,,,79,0
99840,note_on,0,0,3,,,,,,,,,0,,,61,0
99840,note_on,0,0,3,,,,,,,,,0,,,72,88
99840,note_on,80,0,2,,,,,,,,,0,,,88,0
99840,note_on,0,0,3,,,,,,,,,0,,,60,88
99840,note_on,322,0,1,,,,,,,,,0,,,84,98
99840,note_on,0,0,2,,,,,,,,,0,,,76,64
99840,note_on,480,0,3,,,,,,,,,0,,,73,0
99840,note_on,0,0,2,,,,,,,,,0,,,79,76
99840,set_tempo,480,1,0,,,,,,666815,,,,,,,
99847,control_change,456,0,4,,,,,,,,,0,64,0,,
99880,control_change,33,0,4,,,,,,,,,0,64,127,,
99920,note_on,0,0,2,,,,,,,,,0,,,76,0
99920,note_on,0,0,2,,,,,,,,,0,,,88,70
99920,note_on,80,0,2,,,,,,,,,0,,,79,0
99998,note_on,158,0,1,,,,,,,,,0,,,84,0
100000,note_on,80,0,2,,,,,,,,,0,,,88,0
100000,note_on,0,0,2,,,,,,,,,0,,,79,65
100000,note_on,0,0,2,,,,,,,,,0,,,84,77
100000,note_on,0,0,2,,,,,,,,,0,,,76,65
100080,note_on,0,0,2,,,,,,,,,0,,,79,0
100080,note_on,0,0,2,,,,,,,,,0,,,88,70
100080,note_on,0,0,2,,,,,,,,,0,,,76,0
100080,note_on,80,0,2,,,,,,,,,0,,,84,0
100160,note_on,0,0,2,,,,,,,,,0,,,76,65
100160,note_on,0,0,2,,,,,,,,,0,,,84,77
100160,note_on,80,0,2,,,,,,,,,0,,,88,0
100160,note_on,0,0,2,,,,,,,,,0,,,79,65
100240,note_on,0,0,2,,,,,,,,,0,,,79,0
100240,note_on,0,0,2,,,,,,,,,0,,,88,70
100240,note_on,0,0,2,,,,,,,,,0,,,76,0
100240,note_on,80,0,2,,,,,,,,,0,,,84,0
100320,note_on,80,0,2,,,,,,,,,0,,,88,0
100320,note_on,0,0,2,,,,,,,,,0,,,79,78
100320,note_on,322,0,1,,,,,,,,,0,,,85,102
100320,note_on,0,0,3,,,,,,,,,0,,,60,0
100320,note_on,0,0,3,,,,,,,,,0,,,58,92
100320,note_on,0,0,2,,,,,,,,,0,,,76,66
100320,note_on,480,0,3,,,,,,,,,0,,,72,0
100320,note_on,0,0,3,,,,,,,,,0,,,70,92
100338,control_change,458,0,4,,,,,,,,,0,64,0,,
100389,control_change,51,0,4,,,,,,,,,0,64,127,,
100400,note_on,80,0,2,,,,,,,,,0,,,79,0
100400,note_on,0,0,2,,,,,,,,,0,,,76,0
100400,note_on,0,0,2,,,,,,,,,0,,,88,72
100478,note_on,158,0,1,,,,,,,,,0,,,85,0
100480,note_on,80,0,2,,,,,,,,,0,,,88,0
100480,note_on,0,0,2,,,,,,,,,0,,,79,67
100480,note_on,0,0,2,,,,,,,,,0,,,85,79
100480,note_on,0,0,2,,,,,,,,,0,,,76,67
100560,note_on,0,0,2,,,,,,,,,0,,,88,72
100560,note_on,0,0,2,,,,,,,,,0,,,76,0
100560,note_on,80,0,2,,,,,,,,,0,,,85,0
100560,note_on,0,0,2,,,,,,,,,0,,,79,0
100597,set_tempo,757,1,0,,,,,,714456,,,,,,,
100640,note_on,0,0,2,,,,,,,,,0,,,85,80
100640,note_on,80,0,2,,,,,,,,,0,,,88,0
100640,note_on,0,0,2,,,,,,,,,0,,,79,68
100640,note_on,0,0,2,,,,,,,,,0,,,76,68
100720,note_on,80,0,2,,,,,,,,,0,,,85,0
100720,note_on,0,0,2,,,,,,,,,0,,,79,0
100720,note_on,0,0,2,,,,,,,,,0,,,88,73
100720,note_on,0,0,2,,,,,,,,,0,,,76,0
100800,note_on,80,0,2,,,,,,,,,0,,,88,0
100800,note_on,0,0,3,,,,,,,,,0,,,65,92
100800,set_tempo,203,1,0,,,,,,647179,,,,,,,
100800,control_change,0,0,4,,,,,,,,,0,64,0,,
100800,note_on,0,0,3,,,,,,,,,0,,,58,0
100800,note_on,0,0,2,,,,,,,,,0,,,81,81
100800,note_on,411,0,4,,,,,,,,,0,,,57,82
100800,note_on,480,0,3,,,,,,,,,0,,,70,0
100800,note_on,0,0,2,,,,,,,,,0,,,77,69
100834,control_change,34,0,4,,,,,,,,,0,64,127,,
100880,note_on,0,0,2,,,,,,,,,0,,,77,0
100880,note_on,0,0,2,,,,,,,,,0,,,89,75
100880,note_on,80,0,2,,,,,,,,,0,,,81,0
100920,note_on,86,0,4,,,,,,,,,0,,,57,0
100960,note_on,0,0,2,,,,,,,,,0,,,77,70
100960,note_on,0,0,2,,,,,,,,,0,,,81,70
100960,note_on,80,0,2,,,,,,,,,0,,,89,0
101040,note_on,80,0,2,,,,,,,,,0,,,81,0
101040,set_tempo,240,1,0,,,,,,670841,,,,,,,
101040,note_on,120,0,4,,,,,,,,,0,,,41,71
101040,note_on,0,0,2,,,,,,,,,0,,,77,0
101040,note_on,0,0,2,,,,,,,,,0,,,89,75
101120,note_on,0,0,2,,,,,,,,,0,,,77,71
101120,note_on,0,0,2,,,,,,,,,0,,,81,71
101120,note_on,80,0,2,,,,,,,,,0,,,89,0
101160,note_on,120,0,4,,,,,,,,,0,,,41,0
101200,note_on,80,0,2,,,,,,,,,0,,,81,0
101200,note_on,0,0,2,,,,,,,,,0,,,89,76
101200,note_on,0,0,2,,,,,,,,,0,,,77,0
101280,note_on,80,0,2,,,,,,,,,0,,,89,0
101280,note_on,120,0,4,,,,,,,,,0,,,61,85
101280,set_tempo,240,1,0,,,,,,611185,,,,,,,
101280,note_on,802,0,1,,,,,,,,,0,,,85,102
101280,note_on,0,0,2,,,,,,,,,0,,,76,69
101280,note_on,0,0,3,,,,,,,,,0,,,64,94
101280,note_on,480,0,3,,,,,,,,,0,,,65,0
101289,control_change,9,0,4,,,,,,,,,0,64,0,,
101323,control_change,34,0,4,,,,,,,,,0,64,127,,
101360,note_on,80,0,2,,,,,,,,,0,,,76,0
101360,note_on,0,0,2,,,,,,,,,0,,,88,75
101400,note_on,77,0,4,,,,,,,,,0,,,61,0
101438,note_on,158,0,1,,,,,,,,,0,,,85,0
101440,note_on,0,0,2,,,,,,,,,0,,,85,70
101440,note_on,0,0,2,,,,,,,,,0,,,76,70
101440,note_on,80,0,2,,,,,,,,,0,,,88,0
101520,note_on,0,0,2,,,,,,,,,0,,,76,0
101520,set_tempo,240,1,0,,,,,,643363,,,,,,,
101520,note_on,80,0,2,,,,,,,,,0,,,85,0
101520,note_on,0,0,2,,,,,,,,,0,,,88,75
101520,note_on,120,0,4,,,,,,,,,0,,,53,70
101600,note_on,0,0,2,,,,,,,,,0,,,85,71
101600,note_on,0,0,2,,,,,,,,,0,,,76,71
101600,note_on,80,0,2,,,,,,,,,0,,,88,0
101640,note_on,120,0,4,,,,,,,,,0,,,53,0
101680,note_on,80,0,2,,,,,,,,,0,,,85,0
101680,note_on,0,0,2,,,,,,,,,0,,,76,0
101680,note_on,0,0,2,,,,,,,,,0,,,88,76
101760,note_on,120,0,4,,,,,,,,,0,,,60,80
101760,note_on,0,0,3,,,,,,,,,0,,,63,93
101760,set_tempo,240,1,0,,,,,,618111,,,,,,,
101760,note_on,322,0,1,,,,,,,,,0,,,84,101
101760,note_on,80,0,2,,,,,,,,,0,,,88,0
101760,note_on,0,0,2,,,,,,,,,0,,,75,69
101760,note_on,480,0,3,,,,,,,,,0,,,64,0
101766,control_change,6,0,4,,,,,,,,,0,64,0,,
101791,control_change,25,0,4,,,,,,,,,0,64,127,,
101840,note_on,80,0,2,,,,,,,,,0,,,75,0
101840,note_on,0,0,2,,,,,,,,,0,,,87,75
101880,note_on,89,0,4,,,,,,,,,0,,,60,0
101918,note_on,158,0,1,,,,,,,,,0,,,84,0
101920,note_on,80,0,2,,,,,,,,,0,,,87,0
101920,note_on,0,0,2,,,,,,,,,0,,,75,70
101920,note_on,0,0,2,,,,,,,,,0,,,84,70
102000,note_on,0,0,2,,,,,,,,,0,,,75,0
102000,note_on,80,0,2,,,,,,,,,0,,,84,0
102000,set_tempo,240,1,0,,,,,,643363,,,,,,,
102000,note_on,120,0,4,,,,,,,,,0,,,41,72
102000,note_on,0,0,2,,,,,,,,,0,,,87,75
102080,note_on,80,0,2,,,,,,,,,0,,,87,0
102080,note_on,0,0,2,,,,,,,,,0,,,75,71
102080,note_on,0,0,2,,,,,,,,,0,,,84,71
102120,note_on,120,0,4,,,,,,,,,0,,,41,0
102160,note_on,0,0,2,,,,,,,,,0,,,75,0
102160,note_on,0,0,2,,,,,,,,,0,,,87,76
102160,note_on,80,0,2,,,,,,,,,0,,,84,0
102240,note_on,0,0,3,,,,,,,,,0,,,62,92
102240,note_on,0,0,2,,,,,,,,,0,,,74,69
102240,note_on,120,0,4,,,,,,,,,0,,,59,81
102240,note_on,480,0,3,,,,,,,,,0,,,63,0
102240,note_on,322,0,1,,,,,,,,,0,,,83,100
102240,note_on,80,0,2,,,,,,,,,0,,,87,0
102240,set_tempo,240,1,0,,,,,,621568,,,,,,,
102249,control_change,9,0,4,,,,,,,,,0,64,0,,
102280,control_change,31,0,4,,,,,,,,,0,64,127,,
102320,note_on,0,0,2,,,,,,,,,0,,,86,75
102320,note_on,80,0,2,,,,,,,,,0,,,74,0
102360,note_on,80,0,4,,,,,,,,,0,,,59,0
102398,note_on,158,0,1,,,,,,,,,0,,,83,0
102400,note_on,0,0,2,,,,,,,,,0,,,83,70
102400,note_on,0,0,2,,,,,,,,,0,,,74,70
102400,note_on,80,0,2,,,,,,,,,0,,,86,0
102480,note_on,80,0,2,,,,,,,,,0,,,83,0
102480,note_on,0,0,2,,,,,,,,,0,,,74,0
102480,note_on,0,0,2,,,,,,,,,0,,,86,75
102480,note_on,120,0,4,,,,,,,,,0,,,53,72
102480,set_tempo,240,1,0,,,,,,647179,,,,,,,
102560,note_on,80,0,2,,,,,,,,,0,,,86,0
102560,note_on,0,0,2,,,,,,,,,0,,,83,71
102560,note_on,0,0,2,,,,,,,,,0,,,74,71
102600,note_on,120,0,4,,,,,,,,,0,,,53,0
102640,note_on,80,0,2,,,,,,,,,0,,,83,0
102640,note_on,0,0,2,,,,,,,,,0,,,86,76
102640,note_on,0,0,2,,,,,,,,,0,,,74,0
102720,note_on,322,0,1,,,,,,,,,0,,,82,98
102720,set_tempo,240,1,0,,,,,,625065,,,,,,,
102720,note_on,0,0,4,,,,,,,,,0,,,58,81
102720,note_on,80,0,2,,,,,,,,,0,,,86,0
102720,note_on,0,0,2,,,,,,,,,0,,,73,69
102720,note_on,0,0,3,,,,,,,,,0,,,61,91
102720,note_on,120,0,4,,,,,,,,,0,,,52,69
102720,note_on,480,0,3,,,,,,,,,0,,,62,0
102731,control_change,11,0,4,,,,,,,,,0,64,0,,
102783,control_change,52,0,4,,,,,,,,,0,64,127,,
102800,note_on,0,0,2,,,,,,,,,0,,,85,75
102800,note_on,80,0,2,,,,,,,,,0,,,73,0
102840,note_on,57,0,4,,,,,,,,,0,,,58,0
102840,note_on,0,0,4,,,,,,,,,0,,,52,0
102878,note_on,158,0,1,,,,,,,,,0,,,82,0
102880,note_on,80,0,2,,,,,,,,,0,,,85,0
102880,note_on,0,0,2,,,,,,,,,0,,,73,70
102880,note_on,0,0,2,,,,,,,,,0,,,82,70
102960,set_tempo,240,1,0,,,,,,650971,,,,,,,
102960,note_on,120,0,4,,,,,,,,,0,,,41,72
102960,note_on,0,0,2,,,,,,,,,0,,,85,75
102960,note_on,0,0,2,,,,,,,,,0,,,73,0
102960,note_on,80,0,2,,,,,,,,,0,,,82,0
103040,note_on,80,0,2,,,,,,,,,0,,,85,0
103040,note_on,0,0,2,,,,,,,,,0,,,73,71
103040,note_on,0,0,2,,,,,,,,,0,,,82,71
103080,note_on,120,0,4,,,,,,,,,0,,,41,0
103120,note_on,80,0,2,,,,,,,,,0,,,82,0
103120,note_on,0,0,2,,,,,,,,,0,,,73,0
103120,note_on,0,0,2,,,,,,,,,0,,,85,76
103200,note_on,0,0,4,,,,,,,,,0,,,57,81
103200,note_on,120,0,4,,,,,,,,,0,,,53,69
103200,note_on,0,0,3,,,,,,,,,0,,,60,90
103200,note_on,322,0,1,,,,,,,,,0,,,81,97
103200,note_on,80,0,2,,,,,,,,,0,,,85,0
103200,set_tempo,240,1,0,,,,,,628667,,,,,,,
103200,note_on,0,0,2,,,,,,,,,0,,,72,69
103200,note_on,480,0,3,,,,,,,,,0,,,61,0
103210,control_change,10,0,4,,,,,,,,,0,64,0,,
103249,control_change,39,0,4,,,,,,,,,0,64,127,,
103280,note_on,80,0,2,,,,,,,,,0,,,72,0
103280,note_on,0,0,2,,,,,,,,,0,,,84,75
103320,note_on,71,0,4,,,,,,,,,0,,,57,0
103320,note_on,0,0,4,,,,,,,,,0,,,53,0
103358,note_on,158,0,1,,,,,,,,,0,,,81,0
103360,note_on,0,0,2,,,,,,,,,0,,,72,70
103360,note_on,80,0,2,,,,,,,,,0,,,84,0
103360,note_on,0,0,2,,,,,,,,,0,,,81,70
103440,note_on,0,0,2,,,,,,,,,0,,,72,0
103440,set_tempo,240,1,0,,,,,,650971,,,,,,,
103440,note_on,80,0,2,,,,,,,,,0,,,81,0
103440,note_on,0,0,2,,,,,,,,,0,,,84,75
103520,note_on,80,0,2,,,,,,,,,0,,,84,0
103520,note_on,0,0,2,,,,,,,,,0,,,81,71
103520,note_on,0,0,2,,,,,,,,,0,,,72,71
103600,note_on,80,0,2,,,,,,,,,0,,,81,0
103600,note_on,0,0,2,,,,,,,,,0,,,84,76
103600,note_on,0,0,2,,,,,,,,,0,,,72,0
103620,set_tempo,180,1,0,,,,,,973710,,,,,,,
103620,note_on,420,0,3,,,,,,,,,0,,,39,88
103650,note_on,30,0,3,,,,,,,,,0,,,39,0
103650,note_on,0,0,3,,,,,,,,,0,,,51,88
103680,note_on,0,0,3,,,,,,,,,0,,,60,0
103680,note_on,30,0,3,,,,,,,,,0,,,51,0
103680,note_on,0,0,2,,,,,,,,,0,,,84,87
103680,note_on,80,0,2,,,,,,,,,0,,,84,0
103680,note_on,0,0,2,,,,,,,,,0,,,81,73
103680,note_on,0,0,2,,,,,,,,,0,,,78,73
103680,control_change,360,0,4,,,,,,,,,0,64,0,,
103680,note_on,0,0,3,,,,,,,,,0,,,63,103
103680,set_tempo,60,1,0,,,,,,710059,,,,,,,
103700,set_tempo,20,1,0,,,,,,705882,,,,,,,
103711,control_change,31,0,4,,,,,,,,,0,64,127,,
103720,set_tempo,20,1,0,,,,,,697674,,,,,,,
103740,set_tempo,20,1,0,,,,,,689655,,,,,,,
103740,note_on,60,0,2,,,,,,,,,0,,,84,0
103740,note_on,0,0,2,,,,,,,,,0,,,90,73
103740,note_on,0,0,2,,,,,,,,,0,,,81,0
103740,note_on,0,0,2,,,,,,,,,0,,,78,0
103760,set_tempo,20,1,0,,,,,,681818,,,,,,,
103780,set_tempo,20,1,0,,,,,,674157,,,,,,,
103800,note_on,60,0,2,,,,,,,,,0,,,90,0
103800,note_on,0,0,2,,,,,,,,,0,,,84,73
103800,note_on,0,0,2,,,,,,,,,0,,,78,62
103800,set_tempo,20,1,0,,,,,,666667,,,,,,,
103800,note_on,0,0,2,,,,,,,,,0,,,81,62
103820,set_tempo,20,1,0,,,,,,655738,,,,,,,
103860,note_on,60,0,2,,,,,,,,,0,,,84,0
103860,note_on,0,0,2,,,,,,,,,0,,,90,71
103860,note_on,0,0,2,,,,,,,,,0,,,81,0
103860,note_on,0,0,2,,,,,,,,,0,,,78,0
103860,set_tempo,40,1,0,,,,,,659341,,,,,,,
103900,set_tempo,40,1,0,,,,,,662983,,,,,,,
103920,note_on,60,0,2,,,,,,,,,0,,,90,0
103920,note_on,0,0,2,,,,,,,,,0,,,81,62
103920,note_on,0,0,2,,,,,,,,,0,,,84,73
103920,set_tempo,20,1,0,,,,,,666667,,,,,,,
103920,note_on,0,0,2,,,,,,,,,0,,,78,62
103960,set_tempo,40,1,0,,,,,,670391,,,,,,,
103980,note_on,0,0,2,,,,,,,,,0,,,78,0
103980,note_on,0,0,2,,,,,,,,,0,,,90,72
103980,note_on,0,0,2,,,,,,,,,0,,,81,0
103980,set_tempo,20,1,0,,,,,,674157,,,,,,,
103980,note_on,60,0,2,,,,,,,,,0,,,84,0
104020,set_tempo,40,1,0,,,,,,677966,,,,,,,
104040,note_on,0,0,2,,,,,,,,,0,,,84,73
104040,note_on,0,0,2,,,,,,,,,0,,,81,62
104040,note_on,0,0,2,,,,,,,,,0,,,78,62
104040,note_on,60,0,2,,,,,,,,,0,,,90,0
104040,set_tempo,20,1,0,,,,,,681818,,,,,,,
104080,set_tempo,40,1,0,,,,,,685714,,,,,,,
104100,set_tempo,20,1,0,,,,,,689655,,,,,,,
104100,note_on,0,0,2,,,,,,,,,0,,,78,0
104100,note_on,0,0,2,,,,,,,,,0,,,81,0
104100,note_on,0,0,2,,,,,,,,,0,,,90,72
104100,note_on,60,0,2,,,,,,,,,0,,,84,0
104140,set_tempo,40,1,0,,,,,,693642,,,,,,,
104160,set_tempo,20,1,0,,,,,,697674,,,,,,,
104160,note_on,0,0,2,,,,,,,,,0,,,78,65
104160,note_on,0,0,2,,,,,,,,,0,,,81,65
104160,note_on,0,0,2,,,,,,,,,0,,,84,78
104160,note_on,60,0,2,,,,,,,,,0,,,90,0
104200,set_tempo,40,1,0,,,,,,693642,,,,,,,
104220,note_on,0,0,2,,,,,,,,,0,,,90,70
104220,set_tempo,20,1,0,,,,,,689655,,,,,,,
104220,note_on,0,0,2,,,,,,,,,0,,,78,0
104220,note_on,60,0,2,,,,,,,,,0,,,84,0
104220,note_on,0,0,2,,,,,,,,,0,,,81,0
104240,set_tempo,20,1,0,,,,,,685714,,,,,,,
104280,note_on,0,0,2,,,,,,,,,0,,,78,57
104280,note_on,0,0,2,,,,,,,,,0,,,81,57
104280,set_tempo,40,1,0,,,,,,681818,,,,,,,
104280,note_on,0,0,2,,,,,,,,,0,,,84,68
104280,note_on,60,0,2,,,,,,,,,0,,,90,0
104300,set_tempo,20,1,0,,,,,,677966,,,,,,,
104320,set_tempo,20,1,0,,,,,,674157,,,,,,,
104340,set_tempo,20,1,0,,,,,,670391,,,,,,,
104340,note_on,0,0,2,,,,,,,,,0,,,81,0
104340,note_on,0,0,2,,,,,,,,,0,,,78,0
104340,note_on,0,0,2,,,,,,,,,0,,,90,68
104340,note_on,60,0,2,,,,,,,,,0,,,84,0
104360,set_tempo,20,1,0,,,,,,674157,,,,,,,
104380,set_tempo,20,1,0,,,,,,677966,,,,,,,
104400,note_on,0,0,2,,,,,,,,,0,,,81,56
104400,note_on,0,0,2,,,,,,,,,0,,,84,67
104400,note_on,60,0,2,,,,,,,,,0,,,90,0
104400,set_tempo,20,1,0,,,,,,681818,,,,,,,
104400,note_on,0,0,2,,,,,,,,,0,,,78,56
104420,set_tempo,20,1,0,,,,,,685714,,,,,,,
104440,set_tempo,20,1,0,,,,,,689655,,,,,,,
104460,note_on,0,0,2,,,,,,,,,0,,,78,0
104460,note_on,0,0,2,,,,,,,,,0,,,81,0
104460,note_on,0,0,2,,,,,,,,,0,,,90,68
104460,set_tempo,20,1,0,,,,,,693642,,,,,,,
104460,note_on,60,0,2,,,,,,,,,0,,,84,0
104520,note_on,60,0,2,,,,,,,,,0,,,90,0
104520,note_on,0,0,2,,,,,,,,,0,,,78,56
104520,note_on,0,0,2,,,,,,,,,0,,,81,56
104520,note_on,0,0,2,,,,,,,,,0,,,84,67
104560,set_tempo,100,1,0,,,,,,700771,,,,,,,
104580,note_on,0,0,2,,,,,,,,,0,,,90,69
104580,note_on,60,0,2,,,,,,,,,0,,,84,0
104580,note_on,900,0,3,,,,,,,,,0,,,38,88
104580,note_on,0,0,2,,,,,,,,,0,,,78,0
104580,note_on,0,0,2,,,,,,,,,0,,,81,0
104589,control_change,878,0,4,,,,,,,,,0,64,0,,
104610,note_on,0,0,3,,,,,,,,,0,,,50,88
104610,note_on,30,0,3,,,,,,,,,0,,,38,0
104640,note_on,0,0,3,,,,,,,,,0,,,63,0
104640,note_on,0,0,3,,,,,,,,,0,,,62,103
104640,note_on,0,0,2,,,,,,,,,0,,,78,68
104640,set_tempo,80,1,0,,,,,,666815,,,,,,,
104640,control_change,51,0,4,,,,,,,,,0,64,127,,
104640,note_on,60,0,2,,,,,,,,,0,,,90,0
104640,note_on,30,0,3,,,,,,,,,0,,,50,0
104640,note_on,0,0,2,,,,,,,,,0,,,81,68
104640,note_on,0,0,2,,,,,,,,,0,,,84,81
104660,set_tempo,20,1,0,,,,,,662983,,,,,,,
104700,note_on,0,0,2,,,,,,,,,0,,,90,69
104700,note_on,0,0,2,,,,,,,,,0,,,81,0
104700,note_on,0,0,2,,,,,,,,,0,,,78,0
104700,note_on,60,0,2,,,,,,,,,0,,,84,0
104700,set_tempo,40,1,0,,,,,,659341,,,,,,,
104740,set_tempo,40,1,0,,,,,,655738,,,,,,,
104760,note_on,0,0,2,,,,,,,,,0,,,78,56
104760,note_on,0,0,2,,,,,,,,,0,,,81,56
104760,note_on,0,0,2,,,,,,,,,0,,,84,67
104760,note_on,60,0,2,,,,,,,,,0,,,90,0
104780,set_tempo,40,1,0,,,,,,652174,,,,,,,
104800,set_tempo,20,1,0,,,,,,648649,,,,,,,
104820,note_on,0,0,2,,,,,,,,,0,,,78,0
104820,note_on,0,0,2,,,,,,,,,0,,,90,69
104820,note_on,0,0,2,,,,,,,,,0,,,81,0
104820,note_on,60,0,2,,,,,,,,,0,,,84,0
104880,note_on,0,0,2,,,,,,,,,0,,,84,67
104880,note_on,0,0,2,,,,,,,,,0,,,81,56
104880,note_on,0,0,2,,,,,,,,,0,,,78,56
104880,note_on,60,0,2,,,,,,,,,0,,,90,0
104900,set_tempo,100,1,0,,,,,,652174,,,,,,,
104940,note_on,60,0,2,,,,,,,,,0,,,84,0
104940,note_on,0,0,2,,,,,,,,,0,,,90,69
104940,note_on,0,0,2,,,,,,,,,0,,,78,0
104940,note_on,0,0,2,,,,,,,,,0,,,81,0
104980,set_tempo,80,1,0,,,,,,655738,,,,,,,
105000,note_on,60,0,2,,,,,,,,,0,,,90,0
105000,note_on,0,0,2,,,,,,,,,0,,,84,67
105000,note_on,0,0,2,,,,,,,,,0,,,81,56
105000,note_on,0,0,2,,,,,,,,,0,,,78,56
105060,note_on,60,0,2,,,,,,,,,0,,,84,0
105060,note_on,0,0,2,,,,,,,,,0,,,78,0
105060,note_on,0,0,2,,,,,,,,,0,,,81,0
105060,note_on,0,0,2,,,,,,,,,0,,,90,69
105080,set_tempo,100,1,0,,,,,,659341,,,,,,,
105120,note_on,0,0,3,,,,,,,,,0,,,75,84
105120,note_on,60,0,2,,,,,,,,,0,,,90,0
105120,note_on,1762,0,1,,,,,,,,,0,,,84,93
105120,note_on,0,0,3,,,,,,,,,0,,,63,84
105120,note_on,480,0,3,,,,,,,,,0,,,62,0
105120,note_on,0,0,2,,,,,,,,,0,,,81,74
105120,note_on,0,0,2,,,,,,,,,0,,,78,62
105125,control_change,485,0,4,,,,,,,,,0,64,0,,
105140,set_tempo,60,1,0,,,,,,662983,,,,,,,
105151,control_change,26,0,4,,,,,,,,,0,64,127,,
105180,set_tempo,40,1,0,,,,,,659341,,,,,,,
105200,note_on,0,0,2,,,,,,,,,0,,,78,0
105200,note_on,0,0,2,,,,,,,,,0,,,90,68
105200,note_on,80,0,2,,,,,,,,,0,,,81,0
105220,set_tempo,40,1,0,,,,,,655738,,,,,,,
105260,set_tempo,40,1,0,,,,,,652174,,,,,,,
105278,note_on,158,0,1,,,,,,,,,0,,,84,0
105280,note_on,80,0,2,,,,,,,,,0,,,90,0
105280,note_on,0,0,2,,,,,,,,,0,,,78,62
105280,set_tempo,20,1,0,,,,,,648649,,,,,,,
105280,note_on,0,0,2,,,,,,,,,0,,,84,74
105280,note_on,0,0,2,,,,,,,,,0,,,81,62
105320,set_tempo,40,1,0,,,,,,645161,,,,,,,
105360,note_on,0,0,2,,,,,,,,,0,,,78,0
105360,set_tempo,40,1,0,,,,,,641711,,,,,,,
105360,note_on,0,0,2,,,,,,,,,0,,,90,68
105360,note_on,0,0,2,,,,,,,,,0,,,81,0
105360,note_on,80,0,2,,,,,,,,,0,,,84,0
105380,set_tempo,20,1,0,,,,,,638298,,,,,,,
105440,note_on,0,0,2,,,,,,,,,0,,,81,63
105440,set_tempo,60,1,0,,,,,,641711,,,,,,,
105440,note_on,0,0,2,,,,,,,,,0,,,78,63
105440,note_on,80,0,2,,,,,,,,,0,,,90,0
105440,note_on,0,0,2,,,,,,,,,0,,,84,75
105480,set_tempo,40,1,0,,,,,,645161,,,,,,,
105520,note_on,80,0,2,,,,,,,,,0,,,84,0
105520,note_on,0,0,2,,,,,,,,,0,,,81,0
105520,note_on,0,0,2,,,,,,,,,0,,,78,0
105520,note_on,0,0,2,,,,,,,,,0,,,90,69
105520,set_tempo,40,1,0,,,,,,648649,,,,,,,
105560,set_tempo,40,1,0,,,,,,652174,,,,,,,
105600,note_on,0,0,2,,,,,,,,,0,,,78,64
105600,note_on,0,0,3,,,,,,,,,0,,,62,88
105600,note_on,80,0,2,,,,,,,,,0,,,90,0
105600,note_on,0,0,3,,,,,,,,,0,,,74,88
105600,set_tempo,40,1,0,,,,,,645161,,,,,,,
105600,note_on,480,0,3,,,,,,,,,0,,,75,0
105600,note_on,322,0,1,,,,,,,,,0,,,86,98
105600,note_on,0,0,2,,,,,,,,,0,,,81,76
105600,note_on,0,0,3,,,,,,,,,0,,,63,0
105607,control_change,456,0,4,,,,,,,,,0,64,0,,
105640,control_change,33,0,4,,,,,,,,,0,64,127,,
105680,note_on,80,0,2,,,,,,,,,0,,,81,0
105680,note_on,0,0,2,,,,,,,,,0,,,78,0
105680,note_on,0,0,2,,,,,,,,,0,,,90,70
105700,set_tempo,100,1,0,,,,,,648649,,,,,,,
105758,note_on,158,0,1,,,,,,,,,0,,,86,0
105760,note_on,0,0,2,,,,,,,,,0,,,86,77
105760,note_on,0,0,2,,,,,,,,,0,,,78,65
105760,note_on,80,0,2,,,,,,,,,0,,,90,0
105760,note_on,0,0,2,,,,,,,,,0,,,81,65
105780,set_tempo,80,1,0,,,,,,652174,,,,,,,
105840,note_on,0,0,2,,,,,,,,,0,,,81,0
105840,note_on,0,0,2,,,,,,,,,0,,,78,0
105840,note_on,0,0,2,,,,,,,,,0,,,90,70
105840,note_on,80,0,2,,,,,,,,,0,,,86,0
105860,set_tempo,80,1,0,,,,,,655738,,,,,,,
105920,note_on,0,0,2,,,,,,,,,0,,,86,77
105920,note_on,0,0,2,,,,,,,,,0,,,81,65
105920,note_on,80,0,2,,,,,,,,,0,,,90,0
105920,note_on,0,0,2,,,,,,,,,0,,,78,65
105940,set_tempo,80,1,0,,,,,,659341,,,,,,,
106000,note_on,0,0,2,,,,,,,,,0,,,90,70
106000,note_on,80,0,2,,,,,,,,,0,,,86,0
106000,note_on,0,0,2,,,,,,,,,0,,,78,0
106000,note_on,0,0,2,,,,,,,,,0,,,81,0
106040,set_tempo,100,1,0,,,,,,662983,,,,,,,
106080,note_on,80,0,2,,,,,,,,,0,,,90,0
106080,note_on,0,0,3,,,,,,,,,0,,,60,92
106080,note_on,0,0,3,,,,,,,,,0,,,62,0
106080,note_on,322,0,1,,,,,,,,,0,,,87,102
106080,note_on,0,0,2,,,,,,,,,0,,,78,66
106080,note_on,0,0,2,,,,,,,,,0,,,81,78
106080,note_on,0,0,3,,,,,,,,,0,,,72,92
106080,note_on,480,0,3,,,,,,,,,0,,,74,0
106098,control_change,458,0,4,,,,,,,,,0,64,0,,
106120,set_tempo,80,1,0,,,,,,666667,,,,,,,
106149,control_change,51,0,4,,,,,,,,,0,64,127,,
106160,note_on,0,0,2,,,,,,,,,0,,,78,0
106160,note_on,80,0,2,,,,,,,,,0,,,81,0
106160,note_on,0,0,2,,,,,,,,,0,,,90,72
106200,set_tempo,80,1,0,,,,,,670391,,,,,,,
106238,note_on,158,0,1,,,,,,,,,0,,,87,0
106240,note_on,0,0,2,,,,,,,,,0,,,78,67
106240,note_on,80,0,2,,,,,,,,,0,,,90,0
106240,note_on,0,0,2,,,,,,,,,0,,,87,79
106240,note_on,0,0,2,,,,,,,,,0,,,81,67
106280,set_tempo,80,1,0,,,,,,674157,,,,,,,
106320,note_on,0,0,2,,,,,,,,,0,,,90,72
106320,note_on,0,0,2,,,,,,,,,0,,,81,0
106320,note_on,0,0,2,,,,,,,,,0,,,78,0
106320,note_on,80,0,2,,,,,,,,,0,,,87,0
106357,set_tempo,77,1,0,,,,,,714456,,,,,,,
106400,note_on,0,0,2,,,,,,,,,0,,,81,68
106400,note_on,0,0,2,,,,,,,,,0,,,87,80
106400,note_on,80,0,2,,,,,,,,,0,,,90,0
106400,note_on,0,0,2,,,,,,,,,0,,,78,68
106480,note_on,80,0,2,,,,,,,,,0,,,87,0
106480,note_on,0,0,2,,,,,,,,,0,,,78,0
106480,note_on,0,0,2,,,,,,,,,0,,,90,73
106480,note_on,0,0,2,,,,,,,,,0,,,81,0
106560,note_on,480,0,3,,,,,,,,,0,,,72,0
106560,note_on,80,0,2,,,,,,,,,0,,,90,0
106560,set_tempo,203,1,0,,,,,,601202,,,,,,,
106560,note_on,411,0,4,,,,,,,,,0,,,55,80
106560,note_on,0,0,2,,,,,,,,,0,,,83,81
106560,note_on,0,0,2,,,,,,,,,0,,,79,69
106560,control_change,0,0,4,,,,,,,,,0,64,0,,
106560,note_on,0,0,3,,,,,,,,,0,,,67,92
106560,note_on,0,0,3,,,,,,,,,0,,,60,0
106560,note_on,0,0,3,,,,,,,,,0,,,59,84
106594,control_change,34,0,4,,,,,,,,,0,64,127,,
106640,note_on,402,0,1,,,,,,,,,0,,,91,102
106640,note_on,80,0,2,,,,,,,,,0,,,83,0
106640,note_on,0,0,2,,,,,,,,,0,,,79,0
106680,note_on,86,0,4,,,,,,,,,0,,,55,0
106720,note_on,0,0,2,,,,,,,,,0,,,83,70
106720,note_on,80,0,2,,,,,,,,,0,,,79,70
106798,note_on,158,0,1,,,,,,,,,0,,,91,0
106800,note_on,80,0,2,,,,,,,,,0,,,83,0
106800,note_on,0,0,2,,,,,,,,,0,,,91,75
106800,note_on,120,0,4,,,,,,,,,0,,,43,71
106800,set_tempo,240,1,0,,,,,,647179,,,,,,,
106800,note_on,0,0,2,,,,,,,,,0,,,79,0
106880,note_on,80,0,2,,,,,,,,,0,,,79,71
106880,note_on,0,0,2,,,,,,,,,0,,,83,71
106920,note_on,120,0,4,,,,,,,,,0,,,43,0
106960,note_on,0,0,2,,,,,,,,,0,,,91,76
106960,note_on,0,0,2,,,,,,,,,0,,,91,0
106960,note_on,0,0,2,,,,,,,,,0,,,79,0
106960,note_on,80,0,2,,,,,,,,,0,,,83,0
107040,note_on,0,0,3,,,,,,,,,0,,,65,94
107040,note_on,120,0,4,,,,,,,,,0,,,59,71
107040,note_on,480,0,3,,,,,,,,,0,,,67,0
107040,note_on,0,0,4,,,,,,,,,0,,,62,80
107040,note_on,0,0,2,,,,,,,,,0,,,77,69
107040,note_on,0,0,2,,,,,,,,,0,,,79,69
107040,set_tempo,240,1,0,,,,,,594707,,,,,,,
107040,note_on,0,0,3,,,,,,,,,0,,,59,0
107040,note_on,80,0,2,,,,,,,,,0,,,91,0
107049,control_change,9,0,4,,,,,,,,,0,64,0,,
107083,control_change,34,0,4,,,,,,,,,0,64,127,,
107120,note_on,80,0,2,,,,,,,,,0,,,77,0
107120,note_on,0,0,2,,,,,,,,,0,,,79,0
107120,note_on,322,0,1,,,,,,,,,0,,,89,101
107160,note_on,77,0,4,,,,,,,,,0,,,62,0
107160,note_on,0,0,4,,,,,,,,,0,,,59,0
107200,note_on,80,0,2,,,,,,,,,0,,,79,69
107200,note_on,0,0,2,,,,,,,,,0,,,77,70
107200,note_on,0,0,2,,,,,,,,,0,,,86,70
107278,note_on,158,0,1,,,,,,,,,0,,,89,0
107280,set_tempo,240,1,0,,,,,,643363,,,,,,,
107280,note_on,120,0,4,,,,,,,,,0,,,47,70
107280,note_on,0,0,2,,,,,,,,,0,,,89,75
107280,note_on,0,0,2,,,,,,,,,0,,,79,0
107280,note_on,80,0,2,,,,,,,,,0,,,86,0
107280,note_on,0,0,2,,,,,,,,,0,,,77,0
107360,note_on,0,0,2,,,,,,,,,0,,,86,71
107360,note_on,0,0,2,,,,,,,,,0,,,77,71
107360,note_on,80,0,2,,,,,,,,,0,,,79,71
107400,note_on,120,0,4,,,,,,,,,0,,,47,0
107440,note_on,0,0,2,,,,,,,,,0,,,89,76
107440,note_on,0,0,2,,,,,,,,,0,,,89,0
107440,note_on,0,0,2,,,,,,,,,0,,,79,0
107440,note_on,80,0,2,,,,,,,,,0,,,86,0
107440,note_on,0,0,2,,,,,,,,,0,,,77,0
107520,note_on,80,0,2,,,,,,,,,0,,,89,0
107520,set_tempo,240,1,0,,,,,,601202,,,,,,,
107520,note_on,0,0,2,,,,,,,,,0,,,79,69
107520,note_on,120,0,4,,,,,,,,,0,,,60,80
107520,note_on,0,0,2,,,,,,,,,0,,,75,69
107520,note_on,480,0,3,,,,,,,,,0,,,65,0
107520,note_on,0,0,3,,,,,,,,,0,,,63,93
107526,control_change,6,0,4,,,,,,,,,0,64,0,,
107551,control_change,25,0,4,,,,,,,,,0,64,127,,
107600,note_on,322,0,1,,,,,,,,,0,,,87,100
107600,note_on,0,0,2,,,,,,,,,0,,,75,0
107600,note_on,80,0,2,,,,,,,,,0,,,79,0
107640,note_on,89,0,4,,,,,,,,,0,,,60,0
107680,note_on,80,0,2,,,,,,,,,0,,,75,70
107680,note_on,0,0,2,,,,,,,,,0,,,79,70
107758,note_on,158,0,1,,,,,,,,,0,,,87,0
107760,note_on,0,0,2,,,,,,,,,0,,,87,75
107760,note_on,80,0,2,,,,,,,,,0,,,79,0
107760,note_on,0,0,2,,,,,,,,,0,,,75,0
107760,note_on,120,0,4,,,,,,,,,0,,,48,72
107760,set_tempo,240,1,0,,,,,,643363,,,,,,,
107840,note_on,0,0,2,,,,,,,,,0,,,79,71
107840,note_on,80,0,2,,,,,,,,,0,,,75,71
107880,note_on,120,0,4,,,,,,,,,0,,,48,0
107920,note_on,0,0,2,,,,,,,,,0,,,75,0
107920,note_on,0,0,2,,,,,,,,,0,,,87,0
107920,note_on,80,0,2,,,,,,,,,0,,,79,0
107920,note_on,0,0,2,,,,,,,,,0,,,87,76
108000,note_on,0,0,2,,,,,,,,,0,,,72,69
108000,set_tempo,240,1,0,,,,,,582129,,,,,,,
108000,note_on,0,0,3,,,,,,,,,0,,,60,92
108000,note_on,80,0,2,,,,,,,,,0,,,87,0
108000,note_on,480,0,3,,,,,,,,,0,,,63,0
108000,note_on,120,0,4,,,,,,,,,0,,,58,81
108000,note_on,0,0,2,,,,,,,,,0,,,75,69
108009,control_change,9,0,4,,,,,,,,,0,64,0,,
108040,control_change,31,0,4,,,,,,,,,0,64,127,,
108080,note_on,0,0,2,,,,,,,,,0,,,72,0
108080,note_on,80,0,2,,,,,,,,,0,,,75,0
108080,note_on,322,0,1,,,,,,,,,0,,,84,98
108120,note_on,80,0,4,,,,,,,,,0,,,58,0
108160,note_on,0,0,2,,,,,,,,,0,,,75,70
108160,note_on,80,0,2,,,,,,,,,0,,,72,70
108238,note_on,158,0,1,,,,,,,,,0,,,84,0
108240,note_on,120,0,4,,,,,,,,,0,,,46,72
108240,note_on,80,0,2,,,,,,,,,0,,,75,0
108240,set_tempo,240,1,0,,,,,,597907,,,,,,,
108240,note_on,0,0,2,,,,,,,,,0,,,72,0
108240,note_on,0,0,2,,,,,,,,,0,,,84,75
108320,note_on,80,0,2,,,,,,,,,0,,,72,71
108320,note_on,0,0,2,,,,,,,,,0,,,75,71
108360,note_on,120,0,4,,,,,,,,,0,,,46,0
108400,note_on,80,0,2,,,,,,,,,0,,,75,0
108400,note_on,0,0,2,,,,,,,,,0,,,72,0
108400,note_on,0,0,2,,,,,,,,,0,,,84,0
108400,note_on,0,0,2,,,,,,,,,0,,,84,76
108480,note_on,80,0,2,,,,,,,,,0,,,84,0
108480,note_on,120,0,4,,,,,,,,,0,,,57,69
108480,note_on,480,0,3,,,,,,,,,0,,,60,0
108480,note_on,0,0,4,,,,,,,,,0,,,60,81
108480,note_on,0,0,2,,,,,,,,,0,,,75,69
108480,note_on,0,0,2,,,,,,,,,0,,,79,69
108480,note_on,0,0,3,,,,,,,,,0,,,63,91
108480,set_tempo,240,1,0,,,,,,601202,,,,,,,
108491,control_change,11,0,4,,,,,,,,,0,64,0,,
108543,control_change,52,0,4,,,,,,,,,0,64,127,,
108560,note_on,0,0,2,,,,,,,,,0,,,75,0
108560,note_on,80,0,2,,,,,,,,,0,,,79,0
108560,note_on,322,0,1,,,,,,,,,0,,,87,97
108600,note_on,0,0,4,,,,,,,,,0,,,57,0
108600,note_on,57,0,4,,,,,,,,,0,,,60,0
108640,note_on,80,0,2,,,,,,,,,0,,,75,70
108640,note_on,0,0,2,,,,,,,,,0,,,79,70
108718,note_on,158,0,1,,,,,,,,,0,,,87,0
108720,set_tempo,240,1,0,,,,,,635930,,,,,,,
108720,note_on,120,0,4,,,,,,,,,0,,,45,72
108720,note_on,0,0,2,,,,,,,,,0,,,87,75
108720,note_on,0,0,2,,,,,,,,,0,,,75,0
108720,note_on,80,0,2,,,,,,,,,0,,,79,0
108800,note_on,80,0,2,,,,,,,,,0,,,75,71
108800,note_on,0,0,2,,,,,,,,,0,,,79,71
108840,note_on,120,0,4,,,,,,,,,0,,,45,0
108880,note_on,0,0,2,,,,,,,,,0,,,87,0
108880,note_on,80,0,2,,,,,,,,,0,,,79,0
108880,note_on,0,0,2,,,,,,,,,0,,,87,76
108880,note_on,0,0,2,,,,,,,,,0,,,75,0
108960,note_on,480,0,3,,,,,,,,,0,,,63,0
108960,note_on,0,0,2,,,,,,,,,0,,,72,69
108960,note_on,120,0,4,,,,,,,,,0,,,55,69
108960,note_on,0,0,3,,,,,,,,,0,,,60,90
108960,note_on,0,0,4,,,,,,,,,0,,,57,81
108960,note_on,80,0,2,,,,,,,,,0,,,87,0
108960,set_tempo,240,1,0,,,,,,611185,,,,,,,
108960,note_on,0,0,2,,,,,,,,,0,,,75,69
108970,control_change,10,0,4,,,,,,,,,0,64,0,,
109009,control_change,39,0,4,,,,,,,,,0,64,127,,
109040,note_on,0,0,2,,,,,,,,,0,,,72,0
109040,note_on,80,0,2,,,,,,,,,0,,,75,0
109040,note_on,322,0,1,,,,,,,,,0,,,84,97
109080,note_on,0,0,4,,,,,,,,,0,,,55,0
109080,note_on,71,0,4,,,,,,,,,0,,,57,0
109120,note_on,0,0,2,,,,,,,,,0,,,75,70
109120,note_on,80,0,2,,,,,,,,,0,,,72,70
109198,note_on,158,0,1,,,,,,,,,0,,,84,0
109200,set_tempo,240,1,0,,,,,,650971,,,,,,,
109200,note_on,120,0,4,,,,,,,,,0,,,43,72
109200,note_on,80,0,2,,,,,,,,,0,,,75,0
109200,note_on,0,0,2,,,,,,,,,0,,,72,0
109200,note_on,0,0,2,,,,,,,,,0,,,84,75
109280,note_on,80,0,2,,,,,,,,,0,,,72,71
109280,note_on,0,0,2,,,,,,,,,0,,,75,71
109320,note_on,120,0,4,,,,,,,,,0,,,43,0
109360,note_on,80,0,2,,,,,,,,,0,,,75,0
109360,note_on,0,0,2,,,,,,,,,0,,,84,76
109360,note_on,0,0,2,,,,,,,,,0,,,84,0
109360,note_on,0,0,2,,,,,,,,,0,,,72,0
109400,set_tempo,200,1,0,,,,,,632311,,,,,,,
109440,note_on,0,0,3,,,,,,,,,0,,,57,84
109440,note_on,120,0,4,,,,,,,,,0,,,53,80
109440,note_on,480,0,3,,,,,,,,,0,,,60,0
109440,note_on,0,0,2,,,,,,,,,0,,,81,81
109440,control_change,0,0,4,,,,,,,,,0,64,0,,
109440,note_on,0,0,3,,,,,,,,,0,,,65,92
109440,note_on,80,0,2,,,,,,,,,0,,,84,0
109440,note_on,0,0,2,,,,,,,,,0,,,77,69
109440,set_tempo,40,1,0,,,,,,585195,,,,,,,
109474,control_change,34,0,4,,,,,,,,,0,64,127,,
109520,note_on,0,0,2,,,,,,,,,0,,,77,0
109520,note_on,80,0,2,,,,,,,,,0,,,81,0
109520,note_on,322,0,1,,,,,,,,,0,,,89,102
109560,note_on,86,0,4,,,,,,,,,0,,,53,0
109600,note_on,0,0,2,,,,,,,,,0,,,81,70
109600,note_on,80,0,2,,,,,,,,,0,,,77,70
109678,note_on,158,0,1,,,,,,,,,0,,,89,0
109680,note_on,120,0,4,,,,,,,,,0,,,41,71
109680,note_on,0,0,2,,,,,,,,,0,,,89,75
109680,note_on,0,0,2,,,,,,,,,0,,,77,0
109680,set_tempo,240,1,0,,,,,,604473,,,,,,,
109680,note_on,80,0,2,,,,,,,,,0,,,81,0
109760,note_on,80,0,2,,,,,,,,,0,,,77,71
109760,note_on,0,0,2,,,,,,,,,0,,,81,71
109800,note_on,120,0,4,,,,,,,,,0,,,41,0
109840,note_on,0,0,2,,,,,,,,,0,,,77,0
109840,note_on,80,0,2,,,,,,,,,0,,,81,0
109840,note_on,0,0,2,,,,,,,,,0,,,89,76
109840,note_on,0,0,2,,,,,,,,,0,,,89,0
109920,note_on,120,0,4,,,,,,,,,0,,,57,71
109920,note_on,0,0,3,,,,,,,,,0,,,57,0
109920,note_on,0,0,3,,,,,,,,,0,,,63,94
109920,set_tempo,240,1,0,,,,,,597907,,,,,,,
109920,note_on,480,0,3,,,,,,,,,0,,,65,0
109920,note_on,80,0,2,,,,,,,,,0,,,89,0
109920,note_on,0,0,2,,,,,,,,,0,,,84,69
109920,note_on,0,0,4,,,,,,,,,0,,,60,80
109920,note_on,0,0,2,,,,,,,,,0,,,75,69
109929,control_change,9,0,4,,,,,,,,,0,64,0,,
109963,control_change,34,0,4,,,,,,,,,0,64,127,,
110000,note_on,322,0,1,,,,,,,,,0,,,87,101
110000,note_on,80,0,2,,,,,,,,,0,,,75,0
110000,note_on,0,0,2,,,,,,,,,0,,,84,0
110040,note_on,77,0,4,,,,,,,,,0,,,60,0
110040,note_on,0,0,4,,,,,,,,,0,,,57,0
110080,note_on,0,0,2,,,,,,,,,0,,,84,70
110080,note_on,80,0,2,,,,,,,,,0,,,75,70
110158,note_on,158,0,1,,,,,,,,,0,,,87,0
110160,note_on,0,0,2,,,,,,,,,0,,,75,0
110160,note_on,80,0,2,,,,,,,,,0,,,84,0
110160,note_on,120,0,4,,,,,,,,,0,,,45,70
110160,set_tempo,240,1,0,,,,,,614628,,,,,,,
110160,note_on,0,0,2,,,,,,,,,0,,,87,75
110240,note_on,80,0,2,,,,,,,,,0,,,75,71
110240,note_on,0,0,2,,,,,,,,,0,,,84,71
110280,note_on,120,0,4,,,,,,,,,0,,,45,0
110320,note_on,0,0,2,,,,,,,,,0,,,87,76
110320,note_on,80,0,2,,,,,,,,,0,,,84,0
110320,note_on,0,0,2,,,,,,,,,0,,,87,0
110320,note_on,0,0,2,,,,,,,,,0,,,75,0
110400,note_on,0,0,2,,,,,,,,,0,,,74,69
110400,note_on,0,0,3,,,,,,,,,0,,,62,93
110400,note_on,0,0,2,,,,,,,,,0,,,77,69
110400,note_on,120,0,4,,,,,,,,,0,,,58,80
110400,set_tempo,240,1,0,,,,,,579039,,,,,,,
110400,note_on,80,0,2,,,,,,,,,0,,,87,0
110400,note_on,480,0,3,,,,,,,,,0,,,63,0
110406,control_change,6,0,4,,,,,,,,,0,64,0,,
110431,control_change,25,0,4,,,,,,,,,0,64,127,,
110480,note_on,322,0,1,,,,,,,,,0,,,86,100
110480,note_on,80,0,2,,,,,,,,,0,,,77,0
110480,note_on,0,0,2,,,,,,,,,0,,,74,0
110520,note_on,89,0,4,,,,,,,,,0,,,58,0
110560,note_on,80,0,2,,,,,,,,,0,,,74,70
110560,note_on,0,0,2,,,,,,,,,0,,,77,70
110638,note_on,158,0,1,,,,,,,,,0,,,86,0
110640,note_on,120,0,4,,,,,,,,,0,,,46,72
110640,note_on,80,0,2,,,,,,,,,0,,,77,0
110640,note_on,0,0,2,,,,,,,,,0,,,74,0
110640,note_on,0,0,2,,,,,,,,,0,,,86,75
110640,set_tempo,240,1,0,,,,,,594707,,,,,,,
110720,note_on,0,0,2,,,,,,,,,0,,,77,71
110720,note_on,80,0,2,,,,,,,,,0,,,74,71
110760,note_on,120,0,4,,,,,,,,,0,,,46,0
110800,note_on,0,0,2,,,,,,,,,0,,,74,0
110800,note_on,80,0,2,,,,,,,,,0,,,77,0
110800,note_on,0,0,2,,,,,,,,,0,,,86,0
110800,note_on,0,0,2,,,,,,,,,0,,,86,76
110880,note_on,0,0,3,,,,,,,,,0,,,58,92
110880,note_on,480,0,3,,,,,,,,,0,,,62,0
110880,note_on,0,0,2,,,,,,,,,0,,,74,69
110880,note_on,0,0,2,,,,,,,,,0,,,70,69
110880,note_on,80,0,2,,,,,,,,,0,,,86,0
110880,set_tempo,240,1,0,,,,,,597907,,,,,,,
110880,note_on,120,0,4,,,,,,,,,0,,,57,81
110889,control_change,9,0,4,,,,,,,,,0,64,0,,
110920,control_change,31,0,4,,,,,,,,,0,64,127,,
110960,note_on,0,0,2,,,,,,,,,0,,,70,0
110960,note_on,322,0,1,,,,,,,,,0,,,82,98
110960,note_on,80,0,2,,,,,,,,,0,,,74,0
111000,note_on,80,0,4,,,,,,,,,0,,,57,0
111040,note_on,80,0,2,,,,,,,,,0,,,70,70
111040,note_on,0,0,2,,,,,,,,,0,,,74,70
111118,note_on,158,0,1,,,,,,,,,0,,,82,0
111120,set_tempo,240,1,0,,,,,,628667,,,,,,,
111120,note_on,120,0,4,,,,,,,,,0,,,45,72
111120,note_on,0,0,2,,,,,,,,,0,,,70,0
111120,note_on,0,0,2,,,,,,,,,0,,,82,75
111120,note_on,80,0,2,,,,,,,,,0,,,74,0
111200,note_on,0,0,2,,,,,,,,,0,,,74,71
111200,note_on,80,0,2,,,,,,,,,0,,,70,71
111240,note_on,120,0,4,,,,,,,,,0,,,45,0
111280,note_on,0,0,2,,,,,,,,,0,,,70,0
111280,note_on,0,0,2,,,,,,,,,0,,,82,0
111280,note_on,0,0,2,,,,,,,,,0,,,82,76
111280,note_on,80,0,2,,,,,,,,,0,,,74,0
111360,note_on,0,0,3,,,,,,,,,0,,,62,91
111360,note_on,0,0,4,,,,,,,,,0,,,58,81
111360,note_on,80,0,2,,,,,,,,,0,,,82,0
111360,note_on,480,0,3,,,,,,,,,0,,,58,0
111360,note_on,120,0,4,,,,,,,,,0,,,55,69
111360,set_tempo,240,1,0,,,,,,601202,,,,,,,
111360,note_on,0,0,2,,,,,,,,,0,,,77,69
111360,note_on,0,0,2,,,,,,,,,0,,,74,69
111371,control_change,11,0,4,,,,,,,,,0,64,0,,
111423,control_change,52,0,4,,,,,,,,,0,64,127,,
111440,note_on,80,0,2,,,,,,,,,0,,,77,0
111440,note_on,322,0,1,,,,,,,,,0,,,86,97
111440,note_on,0,0,2,,,,,,,,,0,,,74,0
111480,note_on,0,0,4,,,,,,,,,0,,,55,0
111480,note_on,57,0,4,,,,,,,,,0,,,58,0
111520,note_on,80,0,2,,,,,,,,,0,,,74,70
111520,note_on,0,0,2,,,,,,,,,0,,,77,70
111598,note_on,158,0,1,,,,,,,,,0,,,86,0
111600,note_on,80,0,2,,,,,,,,,0,,,77,0
111600,note_on,120,0,4,,,,,,,,,0,,,43,72
111600,note_on,0,0,2,,,,,,,,,0,,,74,0
111600,set_tempo,240,1,0,,,,,,632311,,,,,,,
111600,note_on,0,0,2,,,,,,,,,0,,,86,75
111680,note_on,80,0,2,,,,,,,,,0,,,74,71
111680,note_on,0,0,2,,,,,,,,,0,,,77,71
111720,note_on,120,0,4,,,,,,,,,0,,,43,0
111760,note_on,80,0,2,,,,,,,,,0,,,77,0
111760,note_on,0,0,2,,,,,,,,,0,,,74,0
111760,note_on,0,0,2,,,,,,,,,0,,,86,76
111760,note_on,0,0,2,,,,,,,,,0,,,86,0
111840,note_on,0,0,2,,,,,,,,,0,,,70,69
111840,note_on,0,0,4,,,,,,,,,0,,,57,81
111840,note_on,80,0,2,,,,,,,,,0,,,86,0
111840,set_tempo,240,1,0,,,,,,607841,,,,,,,
111840,note_on,120,0,4,,,,,,,,,0,,,53,69
111840,note_on,0,0,2,,,,,,,,,0,,,74,69
111840,note_on,0,0,3,,,,,,,,,0,,,58,90
111840,note_on,480,0,3,,,,,,,,,0,,,62,0
111850,control_change,10,0,4,,,,,,,,,0,64,0,,
111889,control_change,39,0,4,,,,,,,,,0,64,127,,
111920,note_on,0,0,2,,,,,,,,,0,,,70,0
111920,note_on,322,0,1,,,,,,,,,0,,,82,97
111920,note_on,80,0,2,,,,,,,,,0,,,74,0
111960,note_on,71,0,4,,,,,,,,,0,,,57,0
111960,note_on,0,0,4,,,,,,,,,0,,,53,0
112000,note_on,0,0,2,,,,,,,,,0,,,74,70
112000,note_on,80,0,2,,,,,,,,,0,,,70,70
112078,note_on,158,0,1,,,,,,,,,0,,,82,0
112080,note_on,0,0,2,,,,,,,,,0,,,70,0
112080,note_on,80,0,2,,,,,,,,,0,,,74,0
112080,note_on,0,0,2,,,,,,,,,0,,,82,75
112080,set_tempo,240,1,0,,,,,,650971,,,,,,,
112080,note_on,120,0,4,,,,,,,,,0,,,41,72
112160,note_on,80,0,2,,,,,,,,,0,,,70,71
112160,note_on,0,0,2,,,,,,,,,0,,,74,71
112200,note_on,120,0,4,,,,,,,,,0,,,41,0
112240,note_on,0,0,2,,,,,,,,,0,,,82,0
112240,note_on,0,0,2,,,,,,,,,0,,,82,76
112240,note_on,0,0,2,,,,,,,,,0,,,70,0
112240,note_on,80,0,2,,,,,,,,,0,,,74,0
112280,set_tempo,200,1,0,,,,,,632311,,,,,,,
112320,note_on,480,0,3,,,,,,,,,0,,,58,0
112320,set_tempo,40,1,0,,,,,,591483,,,,,,,
112320,note_on,0,0,3,,,,,,,,,0,,,55,84
112320,note_on,0,0,3,,,,,,,,,0,,,63,92
112320,control_change,0,0,4,,,,,,,,,0,64,0,,
112320,note_on,0,0,2,,,,,,,,,0,,,79,81
112320,note_on,0,0,2,,,,,,,,,0,,,75,69
112320,note_on,80,0,2,,,,,,,,,0,,,82,0
112320,note_on,120,0,4,,,,,,,,,0,,,51,80
112354,control_change,34,0,4,,,,,,,,,0,64,127,,
112400,note_on,322,0,1,,,,,,,,,0,,,87,102
112400,note_on,0,0,2,,,,,,,,,0,,,75,0
112400,note_on,80,0,2,,,,,,,,,0,,,79,0
112440,note_on,86,0,4,,,,,,,,,0,,,51,0
112480,note_on,80,0,2,,,,,,,,,0,,,75,70
112480,note_on,0,0,2,,,,,,,,,0,,,79,70
112558,note_on,158,0,1,,,,,,,,,0,,,87,0
112560,note_on,120,0,4,,,,,,,,,0,,,39,71
112560,note_on,0,0,2,,,,,,,,,0,,,87,75
112560,note_on,0,0,2,,,,,,,,,0,,,75,0
112560,note_on,80,0,2,,,,,,,,,0,,,79,0
112560,set_tempo,240,1,0,,,,,,607841,,,,,,,
112640,note_on,0,0,2,,,,,,,,,0,,,79,71
112640,note_on,80,0,2,,,,,,,,,0,,,75,71
112680,note_on,120,0,4,,,,,,,,,0,,,39,0
112720,note_on,80,0,2,,,,,,,,,0,,,79,0
112720,note_on,0,0,2,,,,,,,,,0,,,75,0
112720,note_on,0,0,2,,,,,,,,,0,,,87,76
112720,note_on,0,0,2,,,,,,,,,0,,,87,0
112800,note_on,0,0,4,,,,,,,,,0,,,58,80
112800,note_on,480,0,3,,,,,,,,,0,,,63,0
112800,note_on,80,0,2,,,,,,,,,0,,,87,0
112800,note_on,0,0,3,,,,,,,,,0,,,62,94
112800,note_on,0,0,2,,,,,,,,,0,,,82,69
112800,set_tempo,240,1,0,,,,,,588293,,,,,,,
112800,note_on,0,0,3,,,,,,,,,0,,,55,0
112800,note_on,0,0,2,,,,,,,,,0,,,74,69
112800,note_on,120,0,4,,,,,,,,,0,,,55,71
112809,control_change,9,0,4,,,,,,,,,0,64,0,,
112843,control_change,34,0,4,,,,,,,,,0,64,127,,
112880,note_on,80,0,2,,,,,,,,,0,,,74,0
112880,note_on,0,0,2,,,,,,,,,0,,,82,0
112880,note_on,322,0,1,,,,,,,,,0,,,86,101
112920,note_on,0,0,4,,,,,,,,,0,,,55,0
112920,note_on,77,0,4,,,,,,,,,0,,,58,0
112960,note_on,80,0,2,,,,,,,,,0,,,74,70
112960,note_on,0,0,2,,,,,,,,,0,,,82,70
113038,note_on,158,0,1,,,,,,,,,0,,,86,0
113040,note_on,0,0,2,,,,,,,,,0,,,86,75
113040,note_on,0,0,2,,,,,,,,,0,,,74,0
113040,set_tempo,240,1,0,,,,,,604473,,,,,,,
113040,note_on,80,0,2,,,,,,,,,0,,,82,0
113040,note_on,120,0,4,,,,,,,,,0,,,43,70
113120,note_on,80,0,2,,,,,,,,,0,,,74,71
113120,note_on,0,0,2,,,,,,,,,0,,,82,71
113160,note_on,120,0,4,,,,,,,,,0,,,43,0
113200,note_on,0,0,2,,,,,,,,,0,,,74,0
113200,note_on,0,0,2,,,,,,,,,0,,,86,76
113200,note_on,0,0,2,,,,,,,,,0,,,86,0
113200,note_on,80,0,2,,,,,,,,,0,,,82,0
113280,note_on,0,0,2,,,,,,,,,0,,,72,69
113280,set_tempo,240,1,0,,,,,,585195,,,,,,,
113280,note_on,0,0,2,,,,,,,,,0,,,75,69
113280,note_on,0,0,3,,,,,,,,,0,,,60,93
113280,note_on,480,0,3,,,,,,,,,0,,,62,0
113280,note_on,120,0,4,,,,,,,,,0,,,57,80
113280,note_on,80,0,2,,,,,,,,,0,,,86,0
113286,control_change,6,0,4,,,,,,,,,0,64,0,,
113311,control_change,25,0,4,,,,,,,,,0,64,127,,
113360,note_on,322,0,1,,,,,,,,,0,,,84,100
113360,note_on,80,0,2,,,,,,,,,0,,,75,0
113360,note_on,0,0,2,,,,,,,,,0,,,72,0
113400,note_on,89,0,4,,,,,,,,,0,,,57,0
113440,note_on,0,0,2,,,,,,,,,0,,,75,70
113440,note_on,80,0,2,,,,,,,,,0,,,72,70
113518,note_on,158,0,1,,,,,,,,,0,,,84,0
113520,note_on,0,0,2,,,,,,,,,0,,,84,75
113520,note_on,120,0,4,,,,,,,,,0,,,45,72
113520,note_on,80,0,2,,,,,,,,,0,,,75,0
113520,note_on,0,0,2,,,,,,,,,0,,,72,0
113520,set_tempo,240,1,0,,,,,,611185,,,,,,,
113600,note_on,0,0,2,,,,,,,,,0,,,75,71
113600,note_on,80,0,2,,,,,,,,,0,,,72,71
113640,note_on,120,0,4,,,,,,,,,0,,,45,0
113680,note_on,0,0,2,,,,,,,,,0,,,84,76
113680,note_on,80,0,2,,,,,,,,,0,,,75,0
113680,note_on,0,0,2,,,,,,,,,0,,,84,0
113680,note_on,0,0,2,,,,,,,,,0,,,72,0
113760,note_on,480,0,3,,,,,,,,,0,,,60,0
113760,note_on,120,0,4,,,,,,,,,0,,,55,81
113760,note_on,0,0,2,,,,,,,,,0,,,69,69
113760,note_on,0,0,2,,,,,,,,,0,,,72,69
113760,note_on,0,0,3,,,,,,,,,0,,,57,92
113760,note_on,80,0,2,,,,,,,,,0,,,84,0
113760,set_tempo,240,1,0,,,,,,604473,,,,,,,
113769,control_change,9,0,4,,,,,,,,,0,64,0,,
113800,control_change,31,0,4,,,,,,,,,0,64,127,,
113840,note_on,80,0,2,,,,,,,,,0,,,72,0
113840,note_on,322,0,1,,,,,,,,,0,,,81,98
113840,note_on,0,0,2,,,,,,,,,0,,,69,0
113880,note_on,80,0,4,,,,,,,,,0,,,55,0
113920,note_on,80,0,2,,,,,,,,,0,,,69,70
113920,note_on,0,0,2,,,,,,,,,0,,,72,70
113998,note_on,158,0,1,,,,,,,,,0,,,81,0
114000,note_on,80,0,2,,,,,,,,,0,,,72,0
114000,note_on,120,0,4,,,,,,,,,0,,,43,72
114000,note_on,0,0,2,,,,,,,,,0,,,81,75
114000,set_tempo,240,1,0,,,,,,628667,,,,,,,
114000,note_on,0,0,2,,,,,,,,,0,,,69,0
114080,note_on,80,0,2,,,,,,,,,0,,,69,71
114080,note_on,0,0,2,,,,,,,,,0,,,72,71
114120,note_on,120,0,4,,,,,,,,,0,,,43,0
114160,note_on,80,0,2,,,,,,,,,0,,,72,0
114160,note_on,0,0,2,,,,,,,,,0,,,81,76
114160,note_on,0,0,2,,,,,,,,,0,,,81,0
114160,note_on,0,0,2,,,,,,,,,0,,,69,0
114240,note_on,480,0,3,,,,,,,,,0,,,57,0
114240,note_on,80,0,2,,,,,,,,,0,,,81,0
114240,note_on,0,0,4,,,,,,,,,0,,,57,81
114240,note_on,0,0,3,,,,,,,,,0,,,60,91
114240,note_on,120,0,4,,,,,,,,,0,,,54,69
114240,set_tempo,240,1,0,,,,,,601202,,,,,,,
114240,note_on,0,0,2,,,,,,,,,0,,,75,69
114240,note_on,0,0,2,,,,,,,,,0,,,72,69
114251,control_change,11,0,4,,,,,,,,,0,64,0,,
114303,control_change,52,0,4,,,,,,,,,0,64,127,,
114320,note_on,0,0,2,,,,,,,,,0,,,72,0
114320,note_on,80,0,2,,,,,,,,,0,,,75,0
114320,note_on,322,0,1,,,,,,,,,0,,,84,97
114360,note_on,0,0,4,,,,,,,,,0,,,54,0
114360,note_on,57,0,4,,,,,,,,,0,,,57,0
114400,note_on,0,0,2,,,,,,,,,0,,,75,70
114400,note_on,80,0,2,,,,,,,,,0,,,72,70
114478,note_on,158,0,1,,,,,,,,,0,,,84,0
114480,note_on,0,0,2,,,,,,,,,0,,,72,0
114480,note_on,120,0,4,,,,,,,,,0,,,42,72
114480,note_on,0,0,2,,,,,,,,,0,,,84,75
114480,note_on,80,0,2,,,,,,,,,0,,,75,0
114480,set_tempo,240,1,0,,,,,,628667,,,,,,,
114560,note_on,80,0,2,,,,,,,,,0,,,72,71
114560,note_on,0,0,2,,,,,,,,,0,,,75,71
114600,note_on,120,0,4,,,,,,,,,0,,,42,0
114640,note_on,80,0,2,,,,,,,,,0,,,75,0
114640,note_on,0,0,2,,,,,,,,,0,,,84,76
114640,note_on,0,0,2,,,,,,,,,0,,,84,0
114640,note_on,0,0,2,,,,,,,,,0,,,72,0
114720,note_on,480,0,3,,,,,,,,,0,,,60,0
114720,note_on,80,0,2,,,,,,,,,0,,,84,0
114720,set_tempo,240,1,0,,,,,,604473,,,,,,,
114720,note_on,0,0,4,,,,,,,,,0,,,55,81
114720,note_on,120,0,4,,,,,,,,,0,,,51,69
114720,note_on,0,0,2,,,,,,,,,0,,,69,69
114720,note_on,0,0,2,,,,,,,,,0,,,72,69
114720,note_on,0,0,3,,,,,,,,,0,,,57,90
114730,control_change,10,0,4,,,,,,,,,0,64,0,,
114769,control_change,39,0,4,,,,,,,,,0,64,127,,
114800,note_on,322,0,1,,,,,,,,,0,,,81,97
114800,note_on,0,0,2,,,,,,,,,0,,,69,0
114800,note_on,80,0,2,,,,,,,,,0,,,72,0
114840,note_on,0,0,4,,,,,,,,,0,,,51,0
114840,note_on,71,0,4,,,,,,,,,0,,,55,0
114880,note_on,80,0,2,,,,,,,,,0,,,69,70
114880,note_on,0,0,2,,,,,,,,,0,,,72,70
114958,note_on,158,0,1,,,,,,,,,0,,,81,0
114960,note_on,80,0,2,,,,,,,,,0,,,72,0
114960,note_on,0,0,2,,,,,,,,,0,,,81,75
114960,note_on,0,0,2,,,,,,,,,0,,,69,0
114960,set_tempo,240,1,0,,,,,,650971,,,,,,,
114960,note_on,120,0,4,,,,,,,,,0,,,39,72
115040,note_on,80,0,2,,,,,,,,,0,,,69,71
115040,note_on,0,0,2,,,,,,,,,0,,,72,71
115080,note_on,120,0,4,,,,,,,,,0,,,39,0
115120,note_on,0,0,2,,,,,,,,,0,,,81,76
115120,note_on,0,0,2,,,,,,,,,0,,,81,0
115120,note_on,80,0,2,,,,,,,,,0,,,72,0
115120,note_on,0,0,2,,,,,,,,,0,,,69,0
115160,set_tempo,200,1,0,,,,,,632311,,,,,,,
115200,control_change,0,0,4,,,,,,,,,0,64,0,,
115200,note_on,0,0,2,,,,,,,,,0,,,78,81
115200,note_on,120,0,4,,,,,,,,,0,,,50,80
115200,set_tempo,40,1,0,,,,,,604473,,,,,,,
115200,note_on,0,0,3,,,,,,,,,0,,,62,92
115200,note_on,480,0,3,,,,,,,,,0,,,57,0
115200,note_on,0,0,2,,,,,,,,,0,,,74,69
115200,note_on,80,0,2,,,,,,,,,0,,,81,0
115200,note_on,0,0,3,,,,,,,,,0,,,54,84
115234,control_change,34,0,4,,,,,,,,,0,64,127,,
115280,note_on,0,0,2,,,,,,,,,0,,,74,0
115280,note_on,80,0,2,,,,,,,,,0,,,78,0
115280,note_on,322,0,1,,,,,,,,,0,,,86,102
115320,note_on,86,0,4,,,,,,,,,0,,,50,0
115360,note_on,80,0,2,,,,,,,,,0,,,74,70
115360,note_on,0,0,2,,,,,,,,,0,,,78,70
115438,note_on,158,0,1,,,,,,,,,0,,,86,0
115440,note_on,120,0,4,,,,,,,,,0,,,38,71
115440,set_tempo,240,1,0,,,,,,632311,,,,,,,
115440,note_on,0,0,2,,,,,,,,,0,,,74,0
115440,note_on,0,0,2,,,,,,,,,0,,,86,75
115440,note_on,80,0,2,,,,,,,,,0,,,78,0
115520,note_on,80,0,2,,,,,,,,,0,,,74,71
115520,note_on,0,0,2,,,,,,,,,0,,,78,71
115560,note_on,120,0,4,,,,,,,,,0,,,38,0
115600,note_on,0,0,2,,,,,,,,,0,,,86,0
115600,note_on,80,0,2,,,,,,,,,0,,,78,0
115600,note_on,0,0,2,,,,,,,,,0,,,74,0
115600,note_on,0,0,2,,,,,,,,,0,,,86,76
115680,set_tempo,240,1,0,,,,,,601202,,,,,,,
115680,note_on,80,0,2,,,,,,,,,0,,,86,0
115680,note_on,0,0,4,,,,,,,,,0,,,57,80
115680,note_on,0,0,3,,,,,,,,,0,,,54,0
115680,note_on,0,0,3,,,,,,,,,0,,,60,94
115680,note_on,480,0,3,,,,,,,,,0,,,62,0
115680,note_on,0,0,2,,,,,,,,,0,,,81,69
115680,note_on,0,0,2,,,,,,,,,0,,,72,69
115680,note_on,120,0,4,,,,,,,,,0,,,54,71
115689,control_change,9,0,4,,,,,,,,,0,64,0,,
115723,control_change,34,0,4,,,,,,,,,0,64,127,,
115760,note_on,322,0,1,,,,,,,,,0,,,84,101
115760,note_on,80,0,2,,,,,,,,,0,,,72,0
115760,note_on,0,0,2,,,,,,,,,0,,,81,0
115800,note_on,77,0,4,,,,,,,,,0,,,57,0
115800,note_on,0,0,4,,,,,,,,,0,,,54,0
115840,note_on,0,0,2,,,,,,,,,0,,,81,70
115840,note_on,80,0,2,,,,,,,,,0,,,72,70
115918,note_on,158,0,1,,,,,,,,,0,,,84,0
115920,note_on,0,0,2,,,,,,,,,0,,,72,0
115920,note_on,0,0,2,,,,,,,,,0,,,84,75
115920,note_on,80,0,2,,,,,,,,,0,,,81,0
115920,note_on,120,0,4,,,,,,,,,0,,,42,70
115920,set_tempo,240,1,0,,,,,,643363,,,,,,,
116000,note_on,0,0,2,,,,,,,,,0,,,81,71
116000,note_on,80,0,2,,,,,,,,,0,,,72,71
116040,note_on,120,0,4,,,,,,,,,0,,,42,0
116080,note_on,80,0,2,,,,,,,,,0,,,81,0
116080,note_on,0,0,2,,,,,,,,,0,,,72,0
116080,note_on,0,0,2,,,,,,,,,0,,,84,0
116080,note_on,0,0,2,,,,,,,,,0,,,84,76
116160,note_on,0,0,2,,,,,,,,,0,,,79,69
116160,note_on,120,0,4,,,,,,,,,0,,,55,80
116160,note_on,0,0,3,,,,,,,,,0,,,58,93
116160,note_on,80,0,2,,,,,,,,,0,,,84,0
116160,set_tempo,240,1,0,,,,,,618111,,,,,,,
116160,note_on,480,0,3,,,,,,,,,0,,,60,0
116160,note_on,0,0,2,,,,,,,,,0,,,70,69
116166,control_change,6,0,4,,,,,,,,,0,64,0,,
116191,control_change,25,0,4,,,,,,,,,0,64,127,,
116240,note_on,0,0,2,,,,,,,,,0,,,70,0
116240,note_on,80,0,2,,,,,,,,,0,,,79,0
116240,note_on,322,0,1,,,,,,,,,0,,,82,100
116280,note_on,89,0,4,,,,,,,,,0,,,55,0
116320,note_on,0,0,2,,,,,,,,,0,,,79,70
116320,note_on,80,0,2,,,,,,,,,0,,,70,70
116398,note_on,158,0,1,,,,,,,,,0,,,82,0
116400,set_tempo,240,1,0,,,,,,643363,,,,,,,
116400,note_on,0,0,2,,,,,,,,,0,,,82,75
116400,note_on,120,0,4,,,,,,,,,0,,,43,72
116400,note_on,80,0,2,,,,,,,,,0,,,79,0
116400,note_on,0,0,2,,,,,,,,,0,,,70,0
116480,note_on,0,0,2,,,,,,,,,0,,,79,71
116480,note_on,80,0,2,,,,,,,,,0,,,70,71
116520,note_on,120,0,4,,,,,,,,,0,,,43,0
116560,note_on,0,0,2,,,,,,,,,0,,,82,76
116560,note_on,80,0,2,,,,,,,,,0,,,79,0
116560,note_on,0,0,2,,,,,,,,,0,,,82,0
116560,note_on,0,0,2,,,,,,,,,0,,,70,0
116640,note_on,0,0,2,,,,,,,,,0,,,74,69
116640,set_tempo,240,1,0,,,,,,621568,,,,,,,
116640,note_on,120,0,4,,,,,,,,,0,,,53,78
116640,note_on,0,0,2,,,,,,,,,0,,,81,69
116640,note_on,0,0,3,,,,,,,,,0,,,62,92
116640,note_on,80,0,2,,,,,,,,,0,,,82,0
116640,note_on,480,0,3,,,,,,,,,0,,,58,0
116640,note_on,0,0,4,,,,,,,,,0,,,57,81
116649,control_change,9,0,4,,,,,,,,,0,64,0,,
116680,control_change,31,0,4,,,,,,,,,0,64,127,,
116720,note_on,322,0,1,,,,,,,,,0,,,86,98
116720,note_on,80,0,2,,,,,,,,,0,,,81,0
116720,note_on,0,0,2,,,,,,,,,0,,,74,0
116760,note_on,0,0,4,,,,,,,,,0,,,53,0
116760,note_on,80,0,4,,,,,,,,,0,,,57,0
116800,note_on,0,0,2,,,,,,,,,0,,,81,70
116800,note_on,80,0,2,,,,,,,,,0,,,74,70
116878,note_on,158,0,1,,,,,,,,,0,,,86,0
116880,note_on,0,0,2,,,,,,,,,0,,,74,0
116880,note_on,0,0,2,,,,,,,,,0,,,86,75
116880,note_on,80,0,2,,,,,,,,,0,,,81,0
116880,set_tempo,240,1,0,,,,,,647179,,,,,,,
116880,note_on,120,0,4,,,,,,,,,0,,,41,72
116960,note_on,80,0,2,,,,,,,,,0,,,74,71
116960,note_on,0,0,2,,,,,,,,,0,,,81,71
117000,note_on,120,0,4,,,,,,,,,0,,,41,0
117040,note_on,0,0,2,,,,,,,,,0,,,86,76
117040,note_on,0,0,2,,,,,,,,,0,,,74,0
117040,note_on,0,0,2,,,,,,,,,0,,,86,0
117040,note_on,80,0,2,,,,,,,,,0,,,81,0
117120,set_tempo,240,1,0,,,,,,625065,,,,,,,
117120,note_on,480,0,3,,,,,,,,,0,,,62,0
117120,note_on,0,0,3,,,,,,,,,0,,,62,91
117120,note_on,0,0,4,,,,,,,,,0,,,55,81
117120,note_on,120,0,4,,,,,,,,,0,,,51,69
117120,note_on,80,0,2,,,,,,,,,0,,,86,0
117120,note_on,0,0,2,,,,,,,,,0,,,79,69
117120,note_on,0,0,2,,,,,,,,,0,,,74,69
117131,control_change,11,0,4,,,,,,,,,0,64,0,,
117183,control_change,52,0,4,,,,,,,,,0,64,127,,
117200,note_on,322,0,1,,,,,,,,,0,,,86,97
117200,note_on,80,0,2,,,,,,,,,0,,,79,0
117200,note_on,0,0,2,,,,,,,,,0,,,74,0
117240,note_on,57,0,4,,,,,,,,,0,,,55,0
117240,note_on,0,0,4,,,,,,,,,0,,,51,0
117280,note_on,0,0,2,,,,,,,,,0,,,79,70
117280,note_on,80,0,2,,,,,,,,,0,,,74,70
117358,note_on,158,0,1,,,,,,,,,0,,,86,0
117360,note_on,120,0,4,,,,,,,,,0,,,39,72
117360,note_on,0,0,2,,,,,,,,,0,,,74,0
117360,note_on,0,0,2,,,,,,,,,0,,,86,75
117360,set_tempo,240,1,0,,,,,,650971,,,,,,,
117360,note_on,80,0,2,,,,,,,,,0,,,79,0
117440,note_on,0,0,2,,,,,,,,,0,,,79,71
117440,note_on,80,0,2,,,,,,,,,0,,,74,71
117480,note_on,120,0,4,,,,,,,,,0,,,39,0
117520,note_on,80,0,2,,,,,,,,,0,,,79,0
117520,note_on,0,0,2,,,,,,,,,0,,,74,0
117520,note_on,0,0,2,,,,,,,,,0,,,86,0
117520,note_on,0,0,2,,,,,,,,,0,,,86,76
117600,set_tempo,240,1,0,,,,,,628667,,,,,,,
117600,note_on,120,0,4,,,,,,,,,0,,,51,69
117600,note_on,480,0,3,,,,,,,,,0,,,62,0
117600,note_on,0,0,2,,,,,,,,,0,,,73,69
117600,note_on,0,0,2,,,,,,,,,0,,,79,69
117600,note_on,0,0,3,,,,,,,,,0,,,61,90
117600,note_on,0,0,4,,,,,,,,,0,,,55,81
117600,note_on,80,0,2,,,,,,,,,0,,,86,0
117610,control_change,10,0,4,,,,,,,,,0,64,0,,
117649,control_change,39,0,4,,,,,,,,,0,64,127,,
117680,note_on,0,0,2,,,,,,,,,0,,,73,0
117680,note_on,322,0,1,,,,,,,,,0,,,85,97
117680,note_on,80,0,2,,,,,,,,,0,,,79,0
117720,note_on,71,0,4,,,,,,,,,0,,,55,0
117720,note_on,0,0,4,,,,,,,,,0,,,51,0
117760,note_on,80,0,2,,,,,,,,,0,,,73,70
117760,note_on,0,0,2,,,,,,,,,0,,,79,70
117838,note_on,158,0,1,,,,,,,,,0,,,85,0
117840,set_tempo,240,1,0,,,,,,650971,,,,,,,
117840,note_on,80,0,2,,,,,,,,,0,,,79,0
117840,note_on,0,0,2,,,,,,,,,0,,,73,0
117840,note_on,0,0,2,,,,,,,,,0,,,85,75
117920,note_on,80,0,2,,,,,,,,,0,,,73,71
117920,note_on,0,0,2,,,,,,,,,0,,,79,71
118000,note_on,0,0,2,,,,,,,,,0,,,73,0
118000,note_on,80,0,2,,,,,,,,,0,,,79,0
118000,note_on,0,0,2,,,,,,,,,0,,,85,0
118000,note_on,0,0,2,,,,,,,,,0,,,85,76
118040,set_tempo,200,1,0,,,,,,632311,,,,,,,
118080,control_change,360,0,4,,,,,,,,,0,64,0,,
118080,note_on,0,0,3,,,,,,,,,0,,,50,88
118080,control_change,0,0,4,,,,,,,,,0,64,0,,
118080,set_tempo,40,1,0,,,,,,604473,,,,,,,
118080,note_on,480,0,3,,,,,,,,,0,,,61,0
118080,note_on,80,0,2,,,,,,,,,0,,,85,0
118080,note_on,0,0,3,,,,,,,,,0,,,38,88
118080,note_on,0,0,2,,,,,,,,,0,,,74,69
118080,note_on,0,0,3,,,,,,,,,0,,,45,88
118080,note_on,0,0,2,,,,,,,,,0,,,78,81
118114,control_change,34,0,4,,,,,,,,,0,64,127,,
118160,note_on,80,0,2,,,,,,,,,0,,,78,0
118160,note_on,0,0,2,,,,,,,,,0,,,86,75
118160,note_on,0,0,2,,,,,,,,,0,,,74,0
118240,note_on,0,0,2,,,,,,,,,0,,,74,70
118240,note_on,80,0,2,,,,,,,,,0,,,86,0
118320,note_on,80,0,2,,,,,,,,,0,,,74,0
118320,note_on,0,0,2,,,,,,,,,0,,,86,75
118320,set_tempo,240,1,0,,,,,,632311,,,,,,,
118400,note_on,80,0,2,,,,,,,,,0,,,86,0
118400,note_on,0,0,2,,,,,,,,,0,,,74,70
118480,note_on,80,0,2,,,,,,,,,0,,,74,0
118480,note_on,0,0,2,,,,,,,,,0,,,86,75
118560,note_on,0,0,3,,,,,,,,,0,,,62,79
118560,note_on,0,0,3,,,,,,,,,0,,,50,79
118560,note_on,0,0,3,,,,,,,,,0,,,45,0
118560,note_on,480,0,3,,,,,,,,,0,,,50,0
118560,note_on,0,0,3,,,,,,,,,0,,,38,0
118560,note_on,80,0,2,,,,,,,,,0,,,86,0
118560,note_on,0,0,2,,,,,,,,,0,,,74,68
118560,set_tempo,240,1,0,,,,,,601202,,,,,,,
118569,control_change,455,0,4,,,,,,,,,0,64,0,,
118603,control_change,34,0,4,,,,,,,,,0,64,127,,
118640,note_on,80,0,2,,,,,,,,,0,,,74,0
118640,note_on,0,0,2,,,,,,,,,0,,,86,69
118720,note_on,80,0,2,,,,,,,,,0,,,86,0
118720,note_on,0,0,2,,,,,,,,,0,,,74,68
118800,note_on,80,0,2,,,,,,,,,0,,,74,0
118800,set_tempo,240,1,0,,,,,,643363,,,,,,,
118800,note_on,0,0,2,,,,,,,,,0,,,86,73
118860,note_on,60,0,2,,,,,,,,,0,,,86,0
118880,note_on,20,0,2,,,,,,,,,0,,,74,69
118960,note_on,0,0,2,,,,,,,,,0,,,86,73
118960,note_on,80,0,2,,,,,,,,,0,,,74,0
118980,note_on,0,0,3,,,,,,,,,0,,,50,0
118980,note_on,420,0,3,,,,,,,,,0,,,62,0
118980,note_on,0,0,3,,,,,,,,,0,,,55,68
119010,note_on,30,0,3,,,,,,,,,0,,,62,76
119040,note_on,0,0,2,,,,,,,,,0,,,82,77
119040,note_on,80,0,2,,,,,,,,,0,,,86,0
119040,note_on,30,0,3,,,,,,,,,0,,,70,80
119040,set_tempo,240,1,0,,,,,,618111,,,,,,,
119040,note_on,0,0,2,,,,,,,,,0,,,74,77
119046,control_change,443,0,4,,,,,,,,,0,64,0,,
119071,control_change,25,0,4,,,,,,,,,0,64,127,,
119120,note_on,0,0,2,,,,,,,,,0,,,86,68
119120,note_on,0,0,2,,,,,,,,,0,,,74,0
119120,note_on,80,0,2,,,,,,,,,0,,,82,0
119200,note_on,0,0,2,,,,,,,,,0,,,74,66
119200,note_on,80,0,2,,,,,,,,,0,,,86,0
119280,note_on,0,0,2,,,,,,,,,0,,,86,71
119280,set_tempo,240,1,0,,,,,,643363,,,,,,,
119280,note_on,80,0,2,,,,,,,,,0,,,74,0
119360,note_on,0,0,2,,,,,,,,,0,,,74,66
119360,note_on,80,0,2,,,,,,,,,0,,,86,0
119440,note_on,0,0,2,,,,,,,,,0,,,86,70
119440,note_on,80,0,2,,,,,,,,,0,,,74,0
119460,note_on,0,0,3,,,,,,,,,0,,,62,0
119460,note_on,0,0,3,,,,,,,,,0,,,58,69
119460,note_on,420,0,3,,,,,,,,,0,,,70,0
119460,note_on,0,0,3,,,,,,,,,0,,,55,0
119490,note_on,30,0,3,,,,,,,,,0,,,67,75
119520,set_tempo,240,1,0,,,,,,621568,,,,,,,
119520,note_on,80,0,2,,,,,,,,,0,,,86,0
119520,note_on,30,0,3,,,,,,,,,0,,,74,82
119529,control_change,458,0,4,,,,,,,,,0,64,0,,
119560,control_change,31,0,4,,,,,,,,,0,64,127,,
119600,note_on,80,0,2,,,,,,,,,0,,,86,64
119678,note_on,158,0,3,,,,,,,,,0,,,74,0
119680,note_on,0,0,2,,,,,,,,,0,,,74,63
119680,note_on,80,0,2,,,,,,,,,0,,,86,0
119760,set_tempo,240,1,0,,,,,,647179,,,,,,,
119760,note_on,0,0,2,,,,,,,,,0,,,86,67
119760,note_on,80,0,2,,,,,,,,,0,,,74,0
119840,note_on,80,0,2,,,,,,,,,0,,,86,0
119840,note_on,0,0,2,,,,,,,,,0,,,74,62
119920,note_on,0,0,2,,,,,,,,,0,,,86,67
119920,note_on,80,0,2,,,,,,,,,0,,,74,0
119940,note_on,0,0,3,,,,,,,,,0,,,58,0
119940,note_on,0,0,3,,,,,,,,,0,,,57,54
119940,note_on,262,0,3,,,,,,,,,0,,,67,0
119960,note_on,20,0,3,,,,,,,,,0,,,62,61
119980,note_on,20,0,3,,,,,,,,,0,,,66,68
120000,set_tempo,240,1,0,,,,,,625065,,,,,,,
120000,note_on,20,0,3,,,,,,,,,0,,,72,74
120000,note_on,80,0,2,,,,,,,,,0,,,86,0
120011,control_change,451,0,4,,,,,,,,,0,64,0,,
120063,control_change,52,0,4,,,,,,,,,0,64,127,,
120080,note_on,80,0,2,,,,,,,,,0,,,84,65
120158,note_on,158,0,3,,,,,,,,,0,,,72,0
120160,note_on,0,0,2,,,,,,,,,0,,,72,60
120160,note_on,80,0,2,,,,,,,,,0,,,84,0
120240,note_on,0,0,2,,,,,,,,,0,,,84,64
120240,note_on,80,0,2,,,,,,,,,0,,,72,0
120240,set_tempo,240,1,0,,,,,,650971,,,,,,,
120320,note_on,80,0,2,,,,,,,,,0,,,84,0
120320,note_on,0,0,2,,,,,,,,,0,,,72,60
120400,note_on,0,0,2,,,,,,,,,0,,,84,64
120400,note_on,80,0,2,,,,,,,,,0,,,72,0
120420,note_on,0,0,3,,,,,,,,,0,,,55,62
120420,note_on,0,0,3,,,,,,,,,0,,,66,0
120420,note_on,262,0,3,,,,,,,,,0,,,57,0
120420,note_on,0,0,3,,,,,,,,,0,,,62,0
120450,note_on,30,0,3,,,,,,,,,0,,,62,69
120480,note_on,30,0,3,,,,,,,,,0,,,70,76
120480,note_on,80,0,2,,,,,,,,,0,,,84,0
120480,set_tempo,240,1,0,,,,,,628667,,,,,,,
120490,control_change,427,0,4,,,,,,,,,0,64,0,,
120529,control_change,39,0,4,,,,,,,,,0,64,127,,
120560,note_on,80,0,2,,,,,,,,,0,,,82,62
120638,note_on,158,0,3,,,,,,,,,0,,,70,0
120640,note_on,0,0,2,,,,,,,,,0,,,70,57
120640,note_on,80,0,2,,,,,,,,,0,,,82,0
120720,note_on,0,0,2,,,,,,,,,0,,,82,62
120720,note_on,80,0,2,,,,,,,,,0,,,70,0
120720,set_tempo,240,1,0,,,,,,650971,,,,,,,
120800,note_on,80,0,2,,,,,,,,,0,,,82,0
120800,note_on,0,0,2,,,,,,,,,0,,,70,57
120880,note_on,0,0,2,,,,,,,,,0,,,82,61
120880,note_on,80,0,2,,,,,,,,,0,,,70,0
120900,note_on,262,0,3,,,,,,,,,0,,,62,0
120900,note_on,0,0,3,,,,,,,,,0,,,54,63
120900,note_on,0,0,3,,,,,,,,,0,,,55,0
120930,note_on,30,0,3,,,,,,,,,0,,,62,67
120960,note_on,80,0,2,,,,,,,,,0,,,82,0
120960,set_tempo,240,1,0,,,,,,625065,,,,,,,
120960,note_on,30,0,3,,,,,,,,,0,,,69,74
120971,control_change,442,0,4,,,,,,,,,0,64,0,,
121023,control_change,52,0,4,,,,,,,,,0,64,127,,
121040,note_on,80,0,2,,,,,,,,,0,,,81,65
121118,note_on,158,0,3,,,,,,,,,0,,,69,0
121120,note_on,80,0,2,,,,,,,,,0,,,81,0
121120,note_on,0,0,2,,,,,,,,,0,,,69,60
121200,set_tempo,240,1,0,,,,,,650971,,,,,,,
121200,note_on,0,0,2,,,,,,,,,0,,,81,63
121200,note_on,80,0,2,,,,,,,,,0,,,69,0
121280,note_on,0,0,2,,,,,,,,,0,,,69,59
121280,note_on,80,0,2,,,,,,,,,0,,,81,0
121360,note_on,0,0,2,,,,,,,,,0,,,81,62
121360,note_on,80,0,2,,,,,,,,,0,,,69,0
121380,note_on,0,0,3,,,,,,,,,0,,,54,0
121380,note_on,0,0,3,,,,,,,,,0,,,51,60
121380,note_on,262,0,3,,,,,,,,,0,,,62,0
121410,note_on,30,0,3,,,,,,,,,0,,,62,66
121440,note_on,30,0,3,,,,,,,,,0,,,67,73
121440,note_on,80,0,2,,,,,,,,,0,,,81,0
121440,set_tempo,240,1,0,,,,,,628667,,,,,,,
121450,control_change,427,0,4,,,,,,,,,0,64,0,,
121489,control_change,39,0,4,,,,,,,,,0,64,127,,
121520,note_on,80,0,2,,,,,,,,,0,,,79,60
121598,note_on,158,0,3,,,,,,,,,0,,,67,0
121600,note_on,0,0,2,,,,,,,,,0,,,67,56
121600,note_on,80,0,2,,,,,,,,,0,,,79,0
121680,set_tempo,240,1,0,,,,,,650971,,,,,,,
121680,note_on,80,0,2,,,,,,,,,0,,,67,0
121680,note_on,0,0,2,,,,,,,,,0,,,79,60
121760,note_on,0,0,2,,,,,,,,,0,,,67,55
121760,note_on,80,0,2,,,,,,,,,0,,,79,0
121840,note_on,0,0,2,,,,,,,,,0,,,79,58
121840,note_on,80,0,2,,,,,,,,,0,,,67,0
121860,note_on,0,0,3,,,,,,,,,0,,,51,0
121860,note_on,262,0,3,,,,,,,,,0,,,62,0
121860,note_on,0,0,3,,,,,,,,,0,,,50,60
121890,note_on,30,0,3,,,,,,,,,0,,,57,64
121920,note_on,30,0,3,,,,,,,,,0,,,66,70
121920,set_tempo,240,1,0,,,,,,625065,,,,,,,
121920,note_on,80,0,2,,,,,,,,,0,,,79,0
121931,control_change,442,0,4,,,,,,,,,0,64,0,,
121983,control_change,52,0,4,,,,,,,,,0,64,127,,
122000,note_on,80,0,2,,,,,,,,,0,,,78,61
122078,note_on,158,0,3,,,,,,,,,0,,,66,0
122080,note_on,80,0,2,,,,,,,,,0,,,78,0
122080,note_on,0,0,2,,,,,,,,,0,,,66,57
122160,set_tempo,240,1,0,,,,,,650971,,,,,,,
122160,note_on,0,0,2,,,,,,,,,0,,,78,59
122160,note_on,80,0,2,,,,,,,,,0,,,66,0
122240,note_on,80,0,2,,,,,,,,,0,,,78,0
122240,note_on,0,0,2,,,,,,,,,0,,,66,57
122320,note_on,80,0,2,,,,,,,,,0,,,66,0
122320,note_on,0,0,2,,,,,,,,,0,,,78,59
122340,note_on,0,0,3,,,,,,,,,0,,,50,0
122340,note_on,0,0,3,,,,,,,,,0,,,48,47
122340,note_on,262,0,3,,,,,,,,,0,,,57,0
122360,note_on,20,0,3,,,,,,,,,0,,,54,52
122380,note_on,20,0,3,,,,,,,,,0,,,57,57
122400,note_on,20,0,3,,,,,,,,,0,,,63,69
122400,set_tempo,240,1,0,,,,,,628667,,,,,,,
122400,note_on,80,0,2,,,,,,,,,0,,,78,0
122410,control_change,427,0,4,,,,,,,,,0,64,0,,
122449,control_change,39,0,4,,,,,,,,,0,64,127,,
122480,note_on,80,0,2,,,,,,,,,0,,,75,57
122558,note_on,158,0,3,,,,,,,,,0,,,63,0
122560,note_on,80,0,2,,,,,,,,,0,,,75,0
122560,note_on,0,0,2,,,,,,,,,0,,,63,53
122640,set_tempo,240,1,0,,,,,,650971,,,,,,,
122640,note_on,80,0,2,,,,,,,,,0,,,63,0
122640,note_on,0,0,2,,,,,,,,,0,,,75,57
122720,note_on,0,0,2,,,,,,,,,0,,,63,53
122720,note_on,80,0,2,,,,,,,,,0,,,75,0
122800,note_on,0,0,2,,,,,,,,,0,,,75,56
122800,note_on,80,0,2,,,,,,,,,0,,,63,0
122820,note_on,0,0,3,,,,,,,,,0,,,57,0
122820,note_on,262,0,3,,,,,,,,,0,,,48,0
122820,note_on,0,0,3,,,,,,,,,0,,,46,54
122820,note_on,0,0,3,,,,,,,,,0,,,54,0
122850,note_on,30,0,3,,,,,,,,,0,,,55,59
122880,note_on,30,0,3,,,,,,,,,0,,,62,65
122880,note_on,80,0,2,,,,,,,,,0,,,75,0
122880,set_tempo,240,1,0,,,,,,625065,,,,,,,
122891,control_change,442,0,4,,,,,,,,,0,64,0,,
122943,control_change,52,0,4,,,,,,,,,0,64,127,,
122960,note_on,80,0,2,,,,,,,,,0,,,74,58
123038,note_on,158,0,3,,,,,,,,,0,,,62,0
123040,note_on,80,0,2,,,,,,,,,0,,,74,0
123040,note_on,0,0,2,,,,,,,,,0,,,62,54
123120,note_on,0,0,2,,,,,,,,,0,,,74,57
123120,note_on,80,0,2,,,,,,,,,0,,,62,0
123120,set_tempo,240,1,0,,,,,,650971,,,,,,,
123200,note_on,0,0,2,,,,,,,,,0,,,62,53
123200,note_on,80,0,2,,,,,,,,,0,,,74,0
123280,note_on,0,0,2,,,,,,,,,0,,,74,57
123280,note_on,80,0,2,,,,,,,,,0,,,62,0
123300,note_on,0,0,3,,,,,,,,,0,,,43,56
123300,note_on,262,0,3,,,,,,,,,0,,,55,0
123300,note_on,0,0,3,,,,,,,,,0,,,46,0
123330,note_on,30,0,3,,,,,,,,,0,,,50,58
123360,note_on,80,0,2,,,,,,,,,0,,,74,0
123360,note_on,30,0,3,,,,,,,,,0,,,58,66
123360,set_tempo,240,1,0,,,,,,628667,,,,,,,
123370,control_change,427,0,4,,,,,,,,,0,64,0,,
123409,control_change,39,0,4,,,,,,,,,0,64,127,,
123440,note_on,80,0,2,,,,,,,,,0,,,62,55
123440,note_on,0,0,2,,,,,,,,,0,,,70,55
123518,note_on,158,0,3,,,,,,,,,0,,,58,0
123520,note_on,80,0,2,,,,,,,,,0,,,70,0
123520,note_on,0,0,2,,,,,,,,,0,,,62,0
123520,note_on,0,0,2,,,,,,,,,0,,,58,50
123600,note_on,0,0,2,,,,,,,,,0,,,70,54
123600,note_on,0,0,2,,,,,,,,,0,,,62,53
123600,note_on,80,0,2,,,,,,,,,0,,,58,0
123600,set_tempo,240,1,0,,,,,,650971,,,,,,,
123680,note_on,0,0,2,,,,,,,,,0,,,62,0
123680,note_on,0,0,2,,,,,,,,,0,,,58,50
123680,note_on,80,0,2,,,,,,,,,0,,,70,0
123760,note_on,0,0,2,,,,,,,,,0,,,70,52
123760,note_on,0,0,2,,,,,,,,,0,,,62,52
123760,note_on,80,0,2,,,,,,,,,0,,,58,0
123780,note_on,0,0,3,,,,,,,,,0,,,42,53
123780,note_on,0,0,3,,,,,,,,,0,,,43,0
123780,note_on,262,0,3,,,,,,,,,0,,,50,0
123810,note_on,30,0,3,,,,,,,,,0,,,50,56
123828,set_tempo,228,1,0,,,,,,614628,,,,,,,
123840,note_on,0,0,2,,,,,,,,,0,,,62,0
123840,note_on,30,0,3,,,,,,,,,0,,,57,62
123840,note_on,80,0,2,,,,,,,,,0,,,70,0
123851,control_change,442,0,4,,,,,,,,,0,64,0,,
123900,set_tempo,72,1,0,,,,,,618111,,,,,,,
123903,control_change,52,0,4,,,,,,,,,0,64,127,,
123920,note_on,0,0,2,,,,,,,,,0,,,69,55
123920,note_on,80,0,2,,,,,,,,,0,,,62,50
123968,set_tempo,68,1,0,,,,,,621568,,,,,,,
123998,note_on,158,0,3,,,,,,,,,0,,,57,0
124000,note_on,0,0,2,,,,,,,,,0,,,57,50
124000,note_on,80,0,2,,,,,,,,,0,,,69,0
124000,note_on,0,0,2,,,,,,,,,0,,,62,0
124040,set_tempo,72,1,0,,,,,,625065,,,,,,,
124080,note_on,80,0,2,,,,,,,,,0,,,57,0
124080,note_on,0,0,2,,,,,,,,,0,,,69,53
124080,note_on,0,0,2,,,,,,,,,0,,,62,49
124108,set_tempo,68,1,0,,,,,,628667,,,,,,,
124160,note_on,0,0,2,,,,,,,,,0,,,62,0
124160,note_on,0,0,2,,,,,,,,,0,,,57,49
124160,note_on,80,0,2,,,,,,,,,0,,,69,0
124180,set_tempo,72,1,0,,,,,,632311,,,,,,,
124240,note_on,0,0,2,,,,,,,,,0,,,69,51
124240,note_on,80,0,2,,,,,,,,,0,,,57,0
124240,note_on,0,0,2,,,,,,,,,0,,,62,48
124248,set_tempo,68,1,0,,,,,,635930,,,,,,,
124260,note_on,0,0,3,,,,,,,,,0,,,39,49
124260,note_on,0,0,3,,,,,,,,,0,,,42,0
124260,note_on,262,0,3,,,,,,,,,0,,,50,0
124290,note_on,30,0,3,,,,,,,,,0,,,50,54
124308,set_tempo,60,1,0,,,,,,639659,,,,,,,
124320,note_on,80,0,2,,,,,,,,,0,,,69,0
124320,note_on,30,0,3,,,,,,,,,0,,,55,60
124320,note_on,0,0,2,,,,,,,,,0,,,62,0
124330,control_change,427,0,4,,,,,,,,,0,64,0,,
124369,control_change,39,0,4,,,,,,,,,0,64,127,,
124380,set_tempo,72,1,0,,,,,,643363,,,,,,,
124400,note_on,80,0,2,,,,,,,,,0,,,62,43
124400,note_on,0,0,2,,,,,,,,,0,,,67,49
124448,set_tempo,68,1,0,,,,,,647179,,,,,,,
124478,note_on,158,0,3,,,,,,,,,0,,,55,0
124480,note_on,0,0,2,,,,,,,,,0,,,55,45
124480,note_on,80,0,2,,,,,,,,,0,,,67,0
124480,note_on,0,0,2,,,,,,,,,0,,,62,0
124520,set_tempo,72,1,0,,,,,,650971,,,,,,,
124560,note_on,80,0,2,,,,,,,,,0,,,55,0
124560,note_on,0,0,2,,,,,,,,,0,,,67,49
124560,note_on,0,0,2,,,,,,,,,0,,,62,43
124588,set_tempo,68,1,0,,,,,,654879,,,,,,,
124640,note_on,80,0,2,,,,,,,,,0,,,67,0
124640,note_on,0,0,2,,,,,,,,,0,,,55,43
124640,note_on,0,0,2,,,,,,,,,0,,,62,0
124660,set_tempo,72,1,0,,,,,,658762,,,,,,,
124720,set_tempo,60,1,0,,,,,,662764,,,,,,,
124720,note_on,80,0,2,,,,,,,,,0,,,55,0
124720,note_on,0,0,2,,,,,,,,,0,,,67,47
124720,note_on,0,0,2,,,,,,,,,0,,,62,42
124740,note_on,262,0,3,,,,,,,,,0,,,50,0
124740,note_on,0,0,3,,,,,,,,,0,,,39,0
124740,note_on,0,0,3,,,,,,,,,0,,,38,48
124770,note_on,30,0,3,,,,,,,,,0,,,45,51
124788,set_tempo,68,1,0,,,,,,666815,,,,,,,
124800,note_on,0,0,2,,,,,,,,,0,,,62,0
124800,note_on,80,0,2,,,,,,,,,0,,,67,0
124800,note_on,30,0,3,,,,,,,,,0,,,54,56
124811,control_change,442,0,4,,,,,,,,,0,64,0,,
124860,set_tempo,72,1,0,,,,,,670841,,,,,,,
124863,control_change,52,0,4,,,,,,,,,0,64,127,,
124880,note_on,80,0,2,,,,,,,,,0,,,62,41
124880,note_on,0,0,2,,,,,,,,,0,,,66,49
124928,set_tempo,68,1,0,,,,,,674916,,,,,,,
124958,note_on,158,0,3,,,,,,,,,0,,,54,0
124960,note_on,0,0,2,,,,,,,,,0,,,62,0
124960,note_on,0,0,2,,,,,,,,,0,,,54,45
124960,note_on,80,0,2,,,,,,,,,0,,,66,0
125000,set_tempo,72,1,0,,,,,,679117,,,,,,,
125040,note_on,0,0,2,,,,,,,,,0,,,66,46
125040,note_on,0,0,2,,,,,,,,,0,,,62,41
125040,note_on,80,0,2,,,,,,,,,0,,,54,0
125068,set_tempo,68,1,0,,,,,,683371,,,,,,,
125120,note_on,80,0,2,,,,,,,,,0,,,66,0
125120,note_on,0,0,2,,,,,,,,,0,,,62,0
125120,note_on,0,0,2,,,,,,,,,0,,,54,44
125128,set_tempo,60,1,0,,,,,,687600,,,,,,,
125200,note_on,80,0,2,,,,,,,,,0,,,54,0
125200,set_tempo,72,1,0,,,,,,691962,,,,,,,
125200,note_on,0,0,2,,,,,,,,,0,,,62,38
125200,note_on,0,0,2,,,,,,,,,0,,,66,46
125220,note_on,0,0,3,,,,,,,,,0,,,38,0
125220,note_on,0,0,3,,,,,,,,,0,,,36,36
125220,note_on,262,0,3,,,,,,,,,0,,,45,0
125240,note_on,20,0,3,,,,,,,,,0,,,42,40
125260,note_on,20,0,3,,,,,,,,,0,,,45,44
125268,set_tempo,68,1,0,,,,,,696379,,,,,,,
125280,note_on,0,0,2,,,,,,,,,0,,,62,0
125280,note_on,80,0,2,,,,,,,,,0,,,66,0
125280,note_on,20,0,3,,,,,,,,,0,,,51,53
125290,control_change,427,0,4,,,,,,,,,0,64,0,,
125329,control_change,39,0,4,,,,,,,,,0,64,127,,
125340,set_tempo,72,1,0,,,,,,700771,,,,,,,
125360,note_on,0,0,2,,,,,,,,,0,,,63,44
125360,note_on,0,0,2,,,,,,,,,0,,,57,38
125360,note_on,80,0,2,,,,,,,,,0,,,54,37
125408,set_tempo,68,1,0,,,,,,705219,,,,,,,
125438,note_on,158,0,3,,,,,,,,,0,,,51,0
125440,note_on,0,0,2,,,,,,,,,0,,,51,40
125440,note_on,80,0,2,,,,,,,,,0,,,63,0
125440,note_on,0,0,2,,,,,,,,,0,,,57,0
125440,note_on,0,0,2,,,,,,,,,0,,,54,0
125480,set_tempo,72,1,0,,,,,,709807,,,,,,,
125520,note_on,0,0,2,,,,,,,,,0,,,54,37
125520,note_on,80,0,2,,,,,,,,,0,,,51,0
125520,note_on,0,0,2,,,,,,,,,0,,,57,37
125520,note_on,0,0,2,,,,,,,,,0,,,63,43
125548,set_tempo,68,1,0,,,,,,714456,,,,,,,
125600,note_on,0,0,2,,,,,,,,,0,,,51,39
125600,note_on,0,0,2,,,,,,,,,0,,,54,0
125600,note_on,0,0,2,,,,,,,,,0,,,57,0
125600,note_on,80,0,2,,,,,,,,,0,,,63,0
125608,set_tempo,60,1,0,,,,,,719080,,,,,,,
125680,note_on,0,0,2,,,,,,,,,0,,,63,41
125680,note_on,0,0,2,,,,,,,,,0,,,57,37
125680,note_on,80,0,2,,,,,,,,,0,,,51,0
125680,set_tempo,72,1,0,,,,,,723764,,,,,,,
125680,note_on,0,0,2,,,,,,,,,0,,,54,37
125700,note_on,262,0,3,,,,,,,,,0,,,36,0
125700,note_on,0,0,3,,,,,,,,,0,,,34,35
125700,note_on,0,0,3,,,,,,,,,0,,,42,0
125700,note_on,0,0,3,,,,,,,,,0,,,45,0
125730,note_on,30,0,3,,,,,,,,,0,,,43,38
125748,set_tempo,68,1,0,,,,,,728597,,,,,,,
125760,note_on,0,0,2,,,,,,,,,0,,,57,0
125760,note_on,80,0,2,,,,,,,,,0,,,63,0
125760,note_on,30,0,3,,,,,,,,,0,,,50,49
125760,note_on,0,0,2,,,,,,,,,0,,,54,0
125771,control_change,442,0,4,,,,,,,,,0,64,0,,
125820,set_tempo,72,1,0,,,,,,733496,,,,,,,
125823,control_change,52,0,4,,,,,,,,,0,64,127,,
125840,note_on,80,0,2,,,,,,,,,0,,,55,37
125840,note_on,0,0,2,,,,,,,,,0,,,62,43
125840,note_on,0,0,2,,,,,,,,,0,,,58,37
125888,set_tempo,68,1,0,,,,,,738371,,,,,,,
125918,note_on,158,0,3,,,,,,,,,0,,,50,0
125920,note_on,0,0,2,,,,,,,,,0,,,55,0
125920,note_on,0,0,2,,,,,,,,,0,,,50,39
125920,note_on,80,0,2,,,,,,,,,0,,,62,0
125920,note_on,0,0,2,,,,,,,,,0,,,58,0
125960,set_tempo,72,1,0,,,,,,743310,,,,,,,
126000,note_on,0,0,2,,,,,,,,,0,,,55,36
126000,note_on,0,0,2,,,,,,,,,0,,,62,42
126000,note_on,80,0,2,,,,,,,,,0,,,50,0
126000,note_on,0,0,2,,,,,,,,,0,,,58,36
126020,set_tempo,60,1,0,,,,,,748503,,,,,,,
126080,note_on,80,0,2,,,,,,,,,0,,,62,0
126080,note_on,0,0,2,,,,,,,,,0,,,50,38
126080,note_on,0,0,2,,,,,,,,,0,,,58,0
126080,note_on,0,0,2,,,,,,,,,0,,,55,0
126088,set_tempo,68,1,0,,,,,,753580,,,,,,,
126160,note_on,0,0,2,,,,,,,,,0,,,58,36
126160,note_on,80,0,2,,,,,,,,,0,,,50,0
126160,note_on,0,0,2,,,,,,,,,0,,,62,41
126160,set_tempo,72,1,0,,,,,,758725,,,,,,,
126160,note_on,0,0,2,,,,,,,,,0,,,55,36
126180,note_on,262,0,3,,,,,,,,,0,,,43,0
126180,note_on,0,0,3,,,,,,,,,0,,,34,0
126180,note_on,0,0,3,,,,,,,,,0,,,33,32
126200,note_on,20,0,3,,,,,,,,,0,,,38,35
126220,note_on,20,0,3,,,,,,,,,0,,,42,40
126228,set_tempo,68,1,0,,,,,,763942,,,,,,,
126240,note_on,0,0,2,,,,,,,,,0,,,58,0
126240,note_on,20,0,3,,,,,,,,,0,,,48,48
126240,note_on,0,0,2,,,,,,,,,0,,,55,0
126240,note_on,80,0,2,,,,,,,,,0,,,62,0
126250,control_change,427,0,4,,,,,,,,,0,64,0,,
126289,control_change,39,0,4,,,,,,,,,0,64,127,,
126300,set_tempo,72,1,0,,,,,,769428,,,,,,,
126320,note_on,0,0,2,,,,,,,,,0,,,54,39
126320,note_on,0,0,2,,,,,,,,,0,,,62,39
126320,note_on,80,0,2,,,,,,,,,0,,,60,38
126368,set_tempo,68,1,0,,,,,,774793,,,,,,,
126400,note_on,0,0,2,,,,,,,,,0,,,60,0
126400,note_on,0,0,2,,,,,,,,,0,,,54,0
126400,note_on,0,0,2,,,,,,,,,0,,,46,36
126400,note_on,80,0,2,,,,,,,,,0,,,62,0
126428,set_tempo,60,1,0,,,,,,780234,,,,,,,
126480,note_on,0,0,2,,,,,,,,,0,,,62,38
126480,note_on,0,0,2,,,,,,,,,0,,,60,31
126480,note_on,0,0,2,,,,,,,,,0,,,54,32
126480,note_on,80,0,2,,,,,,,,,0,,,46,0
126560,note_on,80,0,2,,,,,,,,,0,,,62,0
126560,note_on,0,0,2,,,,,,,,,0,,,46,36
126560,note_on,0,0,2,,,,,,,,,0,,,54,0
126560,note_on,0,0,2,,,,,,,,,0,,,60,0
126640,note_on,0,0,2,,,,,,,,,0,,,62,37
126640,note_on,0,0,2,,,,,,,,,0,,,60,31
126640,note_on,80,0,2,,,,,,,,,0,,,46,0
126640,note_on,0,0,2,,,,,,,,,0,,,54,31
126660,note_on,420,0,3,,,,,,,,,0,,,48,0
126660,note_on,0,0,3,,,,,,,,,0,,,42,0
126660,note_on,0,0,3,,,,,,,,,0,,,38,0
126660,note_on,0,0,3,,,,,,,,,0,,,31,38
126660,note_on,0,0,3,,,,,,,,,0,,,33,0
126680,set_tempo,252,1,0,,,,,,727802,,,,,,,
126690,note_on,30,0,3,,,,,,,,,0,,,38,42
126720,note_on,30,0,3,,,,,,,,,0,,,46,49
126720,note_on,0,0,2,,,,,,,,,0,,,60,0
126720,note_on,0,0,2,,,,,,,,,0,,,54,0
126720,note_on,80,0,2,,,,,,,,,0,,,62,0
126728,control_change,439,0,4,,,,,,,,,0,64,0,,
126740,note_on,20,0,2,,,,,,,,,0,,,50,45
126760,note_on,20,0,2,,,,,,,,,0,,,55,48
126780,note_on,20,0,2,,,,,,,,,0,,,58,49
126800,note_on,20,0,2,,,,,,,,,0,,,62,52
126846,control_change,118,0,4,,,,,,,,,0,64,127,,
126880,set_tempo,200,1,0,,,,,,723240,,,,,,,
127040,set_tempo,160,1,0,,,,,,718735,,,,,,,
127200,note_on,480,0,3,,,,,,,,,0,,,46,0
127200,note_on,0,0,3,,,,,,,,,0,,,38,0
127200,set_tempo,160,1,0,,,,,,696945,,,,,,,
127200,note_on,0,0,3,,,,,,,,,0,,,31,0
127200,note_on,0,0,2,,,,,,,,,0,,,50,0
127200,note_on,0,0,2,,,,,,,,,0,,,55,0
127200,note_on,0,0,2,,,,,,,,,0,,,58,0
127200,note_on,0,0,2,,,,,,,,,0,,,70,50
127200,note_on,400,0,2,,,,,,,,,0,,,62,0
127220,control_change,374,0,4,,,,,,,,,0,64,0,,
127260,control_change,40,0,4,,,,,,,,,0,64,127,,
127280,note_on,0,0,2,,,,,,,,,0,,,86,42
127280,note_on,80,0,2,,,,,,,,,0,,,70,0
127320,set_tempo,120,1,0,,,,,,692761,,,,,,,
127360,note_on,0,0,2,,,,,,,,,0,,,74,45
127360,note_on,80,0,2,,,,,,,,,0,,,86,0
127440,note_on,0,0,2,,,,,,,,,0,,,86,43
127440,set_tempo,120,1,0,,,,,,688547,,,,,,,
127440,note_on,80,0,2,,,,,,,,,0,,,74,0
127520,note_on,0,0,2,,,,,,,,,0,,,79,46
127520,note_on,80,0,2,,,,,,,,,0,,,86,0
127520,set_tempo,80,1,0,,,,,,684463,,,,,,,
127600,note_on,80,0,2,,,,,,,,,0,,,79,0
127600,note_on,0,0,2,,,,,,,,,0,,,86,44
127640,set_tempo,120,1,0,,,,,,680426,,,,,,,
127680,note_on,80,0,2,,,,,,,,,0,,,86,0
127680,note_on,0,0,2,,,,,,,,,0,,,82,53
127720,set_tempo,80,1,0,,,,,,676437,,,,,,,
127760,note_on,0,0,2,,,,,,,,,0,,,86,44
127760,note_on,80,0,2,,,,,,,,,0,,,82,0
127840,note_on,80,0,2,,,,,,,,,0,,,86,0
127840,note_on,0,0,2,,,,,,,,,0,,,79,48
127880,set_tempo,160,1,0,,,,,,680426,,,,,,,
127920,note_on,80,0,2,,,,,,,,,0,,,79,0
127920,note_on,0,0,2,,,,,,,,,0,,,86,48
128000,note_on,80,0,2,,,,,,,,,0,,,86,0
128000,note_on,0,0,2,,,,,,,,,0,,,74,49
128040,set_tempo,160,1,0,,,,,,684463,,,,,,,
128080,note_on,0,0,2,,,,,,,,,0,,,86,46
128080,note_on,80,0,2,,,,,,,,,0,,,74,0
128120,set_tempo,80,1,0,,,,,,684463,,,,,,,
128130,note_on,930,0,3,,,,,,,,,0,,,55,45
128160,note_on,0,0,2,,,,,,,,,0,,,75,56
128160,note_on,80,0,2,,,,,,,,,0,,,86,0
128160,note_on,30,0,3,,,,,,,,,0,,,67,60
128171,control_change,911,0,4,,,,,,,,,0,64,0,,
128211,control_change,40,0,4,,,,,,,,,0,64,127,,
128240,note_on,0,0,2,,,,,,,,,0,,,87,48
128240,note_on,80,0,2,,,,,,,,,0,,,75,0
128280,set_tempo,160,1,0,,,,,,680426,,,,,,,
128320,note_on,80,0,2,,,,,,,,,0,,,87,0
128320,note_on,0,0,2,,,,,,,,,0,,,79,50
128400,note_on,80,0,2,,,,,,,,,0,,,79,0
128400,note_on,0,0,2,,,,,,,,,0,,,87,47
128400,set_tempo,120,1,0,,,,,,676437,,,,,,,
128480,note_on,0,0,2,,,,,,,,,0,,,84,50
128480,note_on,80,0,2,,,,,,,,,0,,,87,0
128520,set_tempo,120,1,0,,,,,,672495,,,,,,,
128560,note_on,80,0,2,,,,,,,,,0,,,84,0
128560,note_on,0,0,2,,,,,,,,,0,,,87,47
128610,note_on,450,0,3,,,,,,,,,0,,,55,46
128640,note_on,80,0,2,,,,,,,,,0,,,87,0
128640,note_on,30,0,3,,,,,,,,,0,,,67,0
128640,set_tempo,120,1,0,,,,,,668598,,,,,,,
128640,note_on,0,0,3,,,,,,,,,0,,,55,0
128640,note_on,0,0,3,,,,,,,,,0,,,66,65
128640,note_on,0,0,2,,,,,,,,,0,,,74,56
128654,control_change,443,0,4,,,,,,,,,0,64,0,,
128697,control_change,43,0,4,,,,,,,,,0,64,127,,
128720,note_on,80,0,2,,,,,,,,,0,,,74,0
128720,note_on,0,0,2,,,,,,,,,0,,,90,47
128800,note_on,80,0,2,,,,,,,,,0,,,90,0
128800,note_on,0,0,2,,,,,,,,,0,,,78,50
128880,note_on,0,0,2,,,,,,,,,0,,,90,47
128880,note_on,80,0,2,,,,,,,,,0,,,78,0
128960,note_on,0,0,2,,,,,,,,,0,,,86,50
128960,note_on,80,0,2,,,,,,,,,0,,,90,0
129040,note_on,0,0,2,,,,,,,,,0,,,90,47
129040,note_on,80,0,2,,,,,,,,,0,,,86,0
129090,note_on,450,0,3,,,,,,,,,0,,,55,48
129120,note_on,30,0,3,,,,,,,,,0,,,66,0
129120,note_on,0,0,2,,,,,,,,,0,,,72,56
129120,note_on,80,0,2,,,,,,,,,0,,,90,0
129120,note_on,0,0,3,,,,,,,,,0,,,55,0
129120,set_tempo,480,1,0,,,,,,664673,,,,,,,
129120,note_on,0,0,3,,,,,,,,,0,,,63,66
129131,control_change,434,0,4,,,,,,,,,0,64,0,,
129160,control_change,29,0,4,,,,,,,,,0,64,127,,
129200,note_on,80,0,2,,,,,,,,,0,,,72,0
129200,note_on,0,0,2,,,,,,,,,0,,,87,47
129240,set_tempo,120,1,0,,,,,,668598,,,,,,,
129280,note_on,0,0,2,,,,,,,,,0,,,75,50
129280,note_on,80,0,2,,,,,,,,,0,,,87,0
129320,set_tempo,80,1,0,,,,,,672495,,,,,,,
129360,note_on,0,0,2,,,,,,,,,0,,,87,48
129360,note_on,80,0,2,,,,,,,,,0,,,75,0
129400,set_tempo,80,1,0,,,,,,676437,,,,,,,
129440,note_on,80,0,2,,,,,,,,,0,,,87,0
129440,note_on,0,0,2,,,,,,,,,0,,,79,50
129480,set_tempo,80,1,0,,,,,,680426,,,,,,,
129520,note_on,80,0,2,,,,,,,,,0,,,79,0
129520,note_on,0,0,2,,,,,,,,,0,,,87,46
129560,set_tempo,80,1,0,,,,,,684463,,,,,,,
129600,note_on,0,0,3,,,,,,,,,0,,,55,0
129600,note_on,0,0,3,,,,,,,,,0,,,55,50
129600,note_on,0,0,3,,,,,,,,,0,,,62,59
129600,note_on,480,0,3,,,,,,,,,0,,,63,0
129600,set_tempo,40,1,0,,,,,,684463,,,,,,,
129600,note_on,80,0,2,,,,,,,,,0,,,87,0
129600,note_on,0,0,2,,,,,,,,,0,,,70,56
129627,control_change,467,0,4,,,,,,,,,0,64,0,,
129656,control_change,29,0,4,,,,,,,,,0,64,127,,
129680,note_on,0,0,2,,,,,,,,,0,,,86,47
129680,note_on,80,0,2,,,,,,,,,0,,,70,0
129760,note_on,80,0,2,,,,,,,,,0,,,86,0
129760,note_on,0,0,2,,,,,,,,,0,,,74,50
129840,note_on,80,0,2,,,,,,,,,0,,,74,0
129840,note_on,0,0,2,,,,,,,,,0,,,86,48
129920,note_on,0,0,2,,,,,,,,,0,,,79,50
129920,note_on,80,0,2,,,,,,,,,0,,,86,0
130000,note_on,0,0,2,,,,,,,,,0,,,86,46
130000,note_on,80,0,2,,,,,,,,,0,,,79,0
130080,set_tempo,480,1,0,,,,,,696945,,,,,,,
130080,note_on,0,0,2,,,,,,,,,0,,,82,56
130080,note_on,480,0,3,,,,,,,,,0,,,55,0
130080,note_on,80,0,2,,,,,,,,,0,,,86,0
130160,note_on,0,0,2,,,,,,,,,0,,,86,47
130160,note_on,80,0,2,,,,,,,,,0,,,82,0
130200,set_tempo,120,1,0,,,,,,692761,,,,,,,
130240,note_on,80,0,2,,,,,,,,,0,,,86,0
130240,note_on,0,0,2,,,,,,,,,0,,,79,50
130320,note_on,80,0,2,,,,,,,,,0,,,79,0
130320,set_tempo,120,1,0,,,,,,688547,,,,,,,
130320,note_on,0,0,2,,,,,,,,,0,,,86,47
130400,set_tempo,80,1,0,,,,,,684463,,,,,,,
130400,note_on,0,0,2,,,,,,,,,0,,,74,50
130400,note_on,80,0,2,,,,,,,,,0,,,86,0
130480,note_on,80,0,2,,,,,,,,,0,,,74,0
130480,note_on,0,0,2,,,,,,,,,0,,,86,47
130520,set_tempo,120,1,0,,,,,,680426,,,,,,,
130560,note_on,80,0,2,,,,,,,,,0,,,86,0
130560,note_on,0,0,2,,,,,,,,,0,,,70,56
130600,set_tempo,80,1,0,,,,,,676437,,,,,,,
130640,note_on,80,0,2,,,,,,,,,0,,,70,0
130640,note_on,0,0,2,,,,,,,,,0,,,86,47
130720,note_on,0,0,2,,,,,,,,,0,,,74,50
130720,note_on,80,0,2,,,,,,,,,0,,,86,0
130760,set_tempo,160,1,0,,,,,,680426,,,,,,,
130800,note_on,0,0,2,,,,,,,,,0,,,86,50
130800,note_on,80,0,2,,,,,,,,,0,,,74,0
130880,note_on,80,0,2,,,,,,,,,0,,,86,0
130880,note_on,0,0,2,,,,,,,,,0,,,79,50
130920,set_tempo,160,1,0,,,,,,684463,,,,,,,
130960,note_on,80,0,2,,,,,,,,,0,,,79,0
130960,note_on,0,0,2,,,,,,,,,0,,,86,47
131000,set_tempo,80,1,0,,,,,,684463,,,,,,,
131040,note_on,80,0,2,,,,,,,,,0,,,86,0
131040,note_on,960,0,3,,,,,,,,,0,,,62,0
131040,note_on,0,0,3,,,,,,,,,0,,,65,60
131040,note_on,0,0,2,,,,,,,,,0,,,69,56
131051,control_change,1395,0,4,,,,,,,,,0,64,0,,
131091,control_change,40,0,4,,,,,,,,,0,64,127,,
131120,note_on,80,0,2,,,,,,,,,0,,,69,0
131120,note_on,0,0,2,,,,,,,,,0,,,86,48
131160,set_tempo,160,1,0,,,,,,680426,,,,,,,
131200,note_on,80,0,2,,,,,,,,,0,,,86,0
131200,note_on,0,0,2,,,,,,,,,0,,,74,50
131280,set_tempo,120,1,0,,,,,,676437,,,,,,,
131280,note_on,0,0,2,,,,,,,,,0,,,86,47
131280,note_on,80,0,2,,,,,,,,,0,,,74,0
131360,note_on,80,0,2,,,,,,,,,0,,,86,0
131360,note_on,0,0,2,,,,,,,,,0,,,77,50
131400,set_tempo,120,1,0,,,,,,672495,,,,,,,
131440,note_on,0,0,2,,,,,,,,,0,,,86,47
131440,note_on,80,0,2,,,,,,,,,0,,,77,0
131520,note_on,0,0,3,,,,,,,,,0,,,63,64
131520,note_on,480,0,3,,,,,,,,,0,,,65,0
131520,note_on,80,0,2,,,,,,,,,0,,,86,0
131520,note_on,0,0,2,,,,,,,,,0,,,67,56
131520,set_tempo,120,1,0,,,,,,668598,,,,,,,
131534,control_change,443,0,4,,,,,,,,,0,64,0,,
131577,control_change,43,0,4,,,,,,,,,0,64,127,,
131600,note_on,80,0,2,,,,,,,,,0,,,67,0
131600,note_on,0,0,2,,,,,,,,,0,,,84,47
131680,note_on,0,0,2,,,,,,,,,0,,,72,50
131680,note_on,80,0,2,,,,,,,,,0,,,84,0
131760,note_on,0,0,2,,,,,,,,,0,,,84,47
131760,note_on,80,0,2,,,,,,,,,0,,,72,0
131840,note_on,80,0,2,,,,,,,,,0,,,84,0
131840,note_on,0,0,2,,,,,,,,,0,,,75,50
131920,note_on,0,0,2,,,,,,,,,0,,,84,47
131920,note_on,80,0,2,,,,,,,,,0,,,75,0
132000,note_on,480,0,3,,,,,,,,,0,,,63,0
132000,note_on,0,0,3,,,,,,,,,0,,,62,64
132000,note_on,80,0,2,,,,,,,,,0,,,84,0
132000,set_tempo,480,1,0,,,,,,664673,,,,,,,
132000,note_on,0,0,2,,,,,,,,,0,,,65,56
132011,control_change,434,0,4,,,,,,,,,0,64,0,,
132040,control_change,29,0,4,,,,,,,,,0,64,127,,
132080,note_on,80,0,2,,,,,,,,,0,,,65,0
132080,note_on,0,0,2,,,,,,,,,0,,,82,47
132120,set_tempo,120,1,0,,,,,,668598,,,,,,,
132160,note_on,0,0,2,,,,,,,,,0,,,70,50
132160,note_on,80,0,2,,,,,,,,,0,,,82,0
132200,set_tempo,80,1,0,,,,,,672495,,,,,,,
132240,note_on,0,0,2,,,,,,,,,0,,,82,48
132240,note_on,80,0,2,,,,,,,,,0,,,70,0
132280,set_tempo,80,1,0,,,,,,676437,,,,,,,
132320,note_on,80,0,2,,,,,,,,,0,,,82,0
132320,note_on,0,0,2,,,,,,,,,0,,,74,50
132360,set_tempo,80,1,0,,,,,,680426,,,,,,,
132400,note_on,0,0,2,,,,,,,,,0,,,82,46
132400,note_on,80,0,2,,,,,,,,,0,,,74,0
132440,set_tempo,80,1,0,,,,,,684463,,,,,,,
132480,note_on,0,0,3,,,,,,,,,0,,,60,59
132480,note_on,480,0,3,,,,,,,,,0,,,62,0
132480,note_on,80,0,2,,,,,,,,,0,,,82,0
132480,set_tempo,40,1,0,,,,,,684463,,,,,,,
132480,note_on,0,0,2,,,,,,,,,0,,,63,56
132507,control_change,467,0,4,,,,,,,,,0,64,0,,
132536,control_change,29,0,4,,,,,,,,,0,64,127,,
132560,note_on,0,0,2,,,,,,,,,0,,,81,47
132560,note_on,80,0,2,,,,,,,,,0,,,63,0
132640,note_on,80,0,2,,,,,,,,,0,,,81,0
132640,note_on,0,0,2,,,,,,,,,0,,,69,50
132720,note_on,80,0,2,,,,,,,,,0,,,69,0
132720,note_on,0,0,2,,,,,,,,,0,,,81,48
132800,note_on,80,0,2,,,,,,,,,0,,,81,0
132800,note_on,0,0,2,,,,,,,,,0,,,72,50
132880,note_on,0,0,2,,,,,,,,,0,,,81,46
132880,note_on,80,0,2,,,,,,,,,0,,,72,0
132940,set_tempo,460,1,0,,,,,,693642,,,,,,,
132960,note_on,0,0,2,,,,,,,,,0,,,75,56
132960,note_on,80,0,2,,,,,,,,,0,,,81,0
133000,set_tempo,60,1,0,,,,,,689655,,,,,,,
133040,note_on,0,0,2,,,,,,,,,0,,,81,47
133040,note_on,80,0,2,,,,,,,,,0,,,75,0
133040,set_tempo,40,1,0,,,,,,685714,,,,,,,
133080,set_tempo,40,1,0,,,,,,681818,,,,,,,
133120,note_on,0,0,2,,,,,,,,,0,,,72,50
133120,note_on,80,0,2,,,,,,,,,0,,,81,0
133140,set_tempo,60,1,0,,,,,,677966,,,,,,,
133180,set_tempo,40,1,0,,,,,,674157,,,,,,,
133200,note_on,0,0,2,,,,,,,,,0,,,81,47
133200,note_on,80,0,2,,,,,,,,,0,,,72,0
133220,set_tempo,40,1,0,,,,,,670391,,,,,,,
133260,set_tempo,40,1,0,,,,,,666667,,,,,,,
133280,note_on,0,0,2,,,,,,,,,0,,,69,50
133280,note_on,80,0,2,,,,,,,,,0,,,81,0
133320,set_tempo,60,1,0,,,,,,662983,,,,,,,
133360,note_on,0,0,2,,,,,,,,,0,,,81,47
133360,note_on,80,0,2,,,,,,,,,0,,,69,0
133360,set_tempo,40,1,0,,,,,,659341,,,,,,,
133400,set_tempo,40,1,0,,,,,,655738,,,,,,,
133440,set_tempo,40,1,0,,,,,,652174,,,,,,,
133440,note_on,80,0,2,,,,,,,,,0,,,81,0
133440,note_on,0,0,2,,,,,,,,,0,,,63,56
133480,set_tempo,40,1,0,,,,,,652174,,,,,,,
133520,set_tempo,40,1,0,,,,,,655738,,,,,,,
133520,note_on,0,0,2,,,,,,,,,0,,,81,47
133520,note_on,80,0,2,,,,,,,,,0,,,63,0
133560,set_tempo,40,1,0,,,,,,659341,,,,,,,
133600,note_on,0,0,2,,,,,,,,,0,,,69,50
133600,note_on,80,0,2,,,,,,,,,0,,,81,0
133600,set_tempo,40,1,0,,,,,,662983,,,,,,,
133620,set_tempo,20,1,0,,,,,,666667,,,,,,,
133640,set_tempo,20,1,0,,,,,,680426,,,,,,,
133680,set_tempo,40,1,0,,,,,,676437,,,,,,,
133680,note_on,0,0,2,,,,,,,,,0,,,81,50
133680,note_on,80,0,2,,,,,,,,,0,,,69,0
133720,set_tempo,40,1,0,,,,,,692761,,,,,,,
133760,set_tempo,40,1,0,,,,,,709807,,,,,,,
133760,note_on,80,0,2,,,,,,,,,0,,,81,0
133760,note_on,0,0,2,,,,,,,,,0,,,72,50
133800,set_tempo,40,1,0,,,,,,732422,,,,,,,
133840,note_on,0,0,2,,,,,,,,,0,,,81,47
133840,set_tempo,40,1,0,,,,,,751597,,,,,,,
133840,note_on,80,0,2,,,,,,,,,0,,,72,0
133880,set_tempo,40,1,0,,,,,,777001,,,,,,,
133920,set_tempo,40,1,0,,,,,,692761,,,,,,,
133920,note_on,0,0,3,,,,,,,,,0,,,63,66
133920,note_on,0,0,3,,,,,,,,,0,,,48,55
133920,note_on,1440,0,3,,,,,,,,,0,,,60,0
133920,note_on,80,0,2,,,,,,,,,0,,,81,0
133920,note_on,0,0,2,,,,,,,,,0,,,69,66
133931,control_change,1395,0,4,,,,,,,,,0,64,0,,
133971,control_change,40,0,4,,,,,,,,,0,64,127,,
134000,note_on,0,0,2,,,,,,,,,0,,,84,48
134000,note_on,80,0,2,,,,,,,,,0,,,69,0
134040,set_tempo,120,1,0,,,,,,680426,,,,,,,
134080,note_on,80,0,2,,,,,,,,,0,,,84,0
134080,note_on,0,0,2,,,,,,,,,0,,,72,56
134160,set_tempo,120,1,0,,,,,,676437,,,,,,,
134160,note_on,0,0,2,,,,,,,,,0,,,84,47
134160,note_on,80,0,2,,,,,,,,,0,,,72,0
134240,note_on,0,0,2,,,,,,,,,0,,,75,53
134240,note_on,80,0,2,,,,,,,,,0,,,84,0
134280,set_tempo,120,1,0,,,,,,672495,,,,,,,
134320,note_on,0,0,2,,,,,,,,,0,,,84,47
134320,note_on,80,0,2,,,,,,,,,0,,,75,0
134398,note_on,478,0,3,,,,,,,,,0,,,63,0
134400,note_on,0,0,3,,,,,,,,,0,,,60,64
134400,note_on,80,0,2,,,,,,,,,0,,,84,0
134400,note_on,2,0,3,,,,,,,,,0,,,48,0
134400,note_on,0,0,2,,,,,,,,,0,,,63,56
134400,note_on,0,0,3,,,,,,,,,0,,,48,54
134400,set_tempo,120,1,0,,,,,,668598,,,,,,,
134414,control_change,443,0,4,,,,,,,,,0,64,0,,
134457,control_change,43,0,4,,,,,,,,,0,64,127,,
134480,note_on,0,0,2,,,,,,,,,0,,,81,47
134480,note_on,80,0,2,,,,,,,,,0,,,63,0
134560,note_on,80,0,2,,,,,,,,,0,,,81,0
134560,note_on,0,0,2,,,,,,,,,0,,,69,50
134640,note_on,80,0,2,,,,,,,,,0,,,69,0
134640,note_on,0,0,2,,,,,,,,,0,,,81,47
134720,note_on,0,0,2,,,,,,,,,0,,,72,50
134720,note_on,80,0,2,,,,,,,,,0,,,81,0
134800,note_on,80,0,2,,,,,,,,,0,,,72,0
134800,note_on,0,0,2,,,,,,,,,0,,,81,47
134880,note_on,80,0,2,,,,,,,,,0,,,81,0
134880,note_on,480,0,3,,,,,,,,,0,,,60,0
134880,set_tempo,480,1,0,,,,,,664673,,,,,,,
134880,note_on,0,0,3,,,,,,,,,0,,,48,0
134880,note_on,0,0,3,,,,,,,,,0,,,58,64
134880,note_on,0,0,3,,,,,,,,,0,,,49,54
134880,note_on,0,0,2,,,,,,,,,0,,,64,56
134891,control_change,434,0,4,,,,,,,,,0,64,0,,
134920,control_change,29,0,4,,,,,,,,,0,64,127,,
134960,note_on,80,0,2,,,,,,,,,0,,,64,0
134960,note_on,0,0,2,,,,,,,,,0,,,79,47
135000,set_tempo,120,1,0,,,,,,668598,,,,,,,
135040,note_on,80,0,2,,,,,,,,,0,,,79,0
135040,note_on,0,0,2,,,,,,,,,0,,,70,50
135080,set_tempo,80,1,0,,,,,,672495,,,,,,,
135120,set_tempo,40,1,0,,,,,,676437,,,,,,,
135120,note_on,80,0,2,,,,,,,,,0,,,70,0
135120,note_on,0,0,2,,,,,,,,,0,,,79,48
135160,set_tempo,40,1,0,,,,,,696945,,,,,,,
135200,note_on,0,0,2,,,,,,,,,0,,,76,50
135200,set_tempo,40,1,0,,,,,,723240,,,,,,,
135200,note_on,80,0,2,,,,,,,,,0,,,79,0
135240,set_tempo,40,1,0,,,,,,751597,,,,,,,
135280,set_tempo,40,1,0,,,,,,782269,,,,,,,
135280,note_on,80,0,2,,,,,,,,,0,,,76,0
135280,note_on,0,0,2,,,,,,,,,0,,,79,46
135320,set_tempo,40,1,0,,,,,,777001,,,,,,,
135360,note_on,0,0,3,,,,,,,,,0,,,58,54
135360,note_on,0,0,3,,,,,,,,,0,,,49,0
135360,note_on,0,0,3,,,,,,,,,0,,,50,54
135360,note_on,0,0,3,,,,,,,,,0,,,62,64
135360,note_on,480,0,3,,,,,,,,,0,,,58,0
135360,note_on,0,0,2,,,,,,,,,0,,,67,65
135360,note_on,80,0,2,,,,,,,,,0,,,79,0
135360,set_tempo,40,1,0,,,,,,684463,,,,,,,
135387,control_change,467,0,4,,,,,,,,,0,64,0,,
135416,control_change,29,0,4,,,,,,,,,0,64,127,,
135440,note_on,0,0,2,,,,,,,,,0,,,82,52
135440,note_on,80,0,2,,,,,,,,,0,,,67,0
135520,note_on,80,0,2,,,,,,,,,0,,,82,0
135520,note_on,0,0,2,,,,,,,,,0,,,70,56
135600,note_on,80,0,2,,,,,,,,,0,,,70,0
135600,note_on,0,0,2,,,,,,,,,0,,,82,48
135680,note_on,80,0,2,,,,,,,,,0,,,82,0
135680,note_on,0,0,2,,,,,,,,,0,,,74,50
135760,note_on,0,0,2,,,,,,,,,0,,,82,46
135760,note_on,80,0,2,,,,,,,,,0,,,74,0
135840,note_on,0,0,2,,,,,,,,,0,,,79,56
135840,note_on,80,0,2,,,,,,,,,0,,,82,0
135840,set_tempo,480,1,0,,,,,,696945,,,,,,,
135920,note_on,80,0,2,,,,,,,,,0,,,79,0
135920,note_on,0,0,2,,,,,,,,,0,,,82,47
135960,set_tempo,120,1,0,,,,,,692761,,,,,,,
136000,note_on,0,0,2,,,,,,,,,0,,,74,50
136000,note_on,80,0,2,,,,,,,,,0,,,82,0
136080,note_on,80,0,2,,,,,,,,,0,,,74,0
136080,set_tempo,120,1,0,,,,,,688547,,,,,,,
136080,note_on,0,0,2,,,,,,,,,0,,,82,47
136160,set_tempo,80,1,0,,,,,,684463,,,,,,,
136160,note_on,0,0,2,,,,,,,,,0,,,70,50
136160,note_on,80,0,2,,,,,,,,,0,,,82,0
136240,note_on,80,0,2,,,,,,,,,0,,,70,0
136240,note_on,0,0,2,,,,,,,,,0,,,82,47
136280,set_tempo,120,1,0,,,,,,680426,,,,,,,
136320,note_on,80,0,2,,,,,,,,,0,,,82,0
136320,note_on,0,0,3,,,,,,,,,0,,,57,54
136320,note_on,960,0,3,,,,,,,,,0,,,58,0
136320,note_on,0,0,2,,,,,,,,,0,,,66,56
136320,note_on,0,0,3,,,,,,,,,0,,,50,54
136320,note_on,0,0,3,,,,,,,,,0,,,50,0
136334,control_change,918,0,4,,,,,,,,,0,64,0,,
136360,set_tempo,80,1,0,,,,,,676437,,,,,,,
136391,control_change,57,0,4,,,,,,,,,0,64,127,,
136400,note_on,0,0,2,,,,,,,,,0,,,81,47
136400,note_on,80,0,2,,,,,,,,,0,,,66,0
136480,note_on,0,0,2,,,,,,,,,0,,,69,50
136480,note_on,80,0,2,,,,,,,,,0,,,81,0
136520,set_tempo,160,1,0,,,,,,680426,,,,,,,
136560,note_on,0,0,2,,,,,,,,,0,,,81,50
136560,note_on,80,0,2,,,,,,,,,0,,,69,0
136640,note_on,0,0,2,,,,,,,,,0,,,74,50
136640,note_on,80,0,2,,,,,,,,,0,,,81,0
136680,set_tempo,160,1,0,,,,,,684463,,,,,,,
136720,note_on,0,0,2,,,,,,,,,0,,,81,47
136720,note_on,80,0,2,,,,,,,,,0,,,74,0
136760,set_tempo,80,1,0,,,,,,684463,,,,,,,
136800,note_on,480,0,3,,,,,,,,,0,,,57,0
136800,note_on,0,0,3,,,,,,,,,0,,,50,0
136800,note_on,80,0,2,,,,,,,,,0,,,81,0
136800,note_on,0,0,3,,,,,,,,,0,,,62,0
136800,note_on,0,0,3,,,,,,,,,0,,,63,60
136800,note_on,0,0,3,,,,,,,,,0,,,60,51
136800,note_on,0,0,2,,,,,,,,,0,,,66,56
136811,control_change,420,0,4,,,,,,,,,0,64,0,,
136851,control_change,40,0,4,,,,,,,,,0,64,127,,
136880,note_on,0,0,2,,,,,,,,,0,,,81,48
136880,note_on,80,0,2,,,,,,,,,0,,,66,0
136920,set_tempo,160,1,0,,,,,,680426,,,,,,,
136960,note_on,0,0,2,,,,,,,,,0,,,69,50
136960,note_on,80,0,2,,,,,,,,,0,,,81,0
137040,note_on,80,0,2,,,,,,,,,0,,,69,0
137040,note_on,0,0,2,,,,,,,,,0,,,81,47
137040,set_tempo,120,1,0,,,,,,676437,,,,,,,
137120,note_on,0,0,2,,,,,,,,,0,,,75,50
137120,note_on,80,0,2,,,,,,,,,0,,,81,0
137160,set_tempo,120,1,0,,,,,,672495,,,,,,,
137200,note_on,0,0,2,,,,,,,,,0,,,81,47
137200,note_on,80,0,2,,,,,,,,,0,,,75,0
137280,note_on,80,0,2,,,,,,,,,0,,,81,0
137280,note_on,0,0,2,,,,,,,,,0,,,67,56
137280,set_tempo,120,1,0,,,,,,668598,,,,,,,
137280,note_on,0,0,3,,,,,,,,,0,,,62,64
137280,note_on,0,0,3,,,,,,,,,0,,,60,0
137280,note_on,0,0,3,,,,,,,,,0,,,58,54
137280,note_on,480,0,3,,,,,,,,,0,,,63,0
137294,control_change,443,0,4,,,,,,,,,0,64,0,,
137337,control_change,43,0,4,,,,,,,,,0,64,127,,
137360,note_on,80,0,2,,,,,,,,,0,,,67,0
137360,note_on,0,0,2,,,,,,,,,0,,,79,47
137440,note_on,80,0,2,,,,,,,,,0,,,79,0
137440,note_on,0,0,2,,,,,,,,,0,,,70,50
137520,note_on,80,0,2,,,,,,,,,0,,,70,0
137520,note_on,0,0,2,,,,,,,,,0,,,79,47
137600,note_on,0,0,2,,,,,,,,,0,,,74,50
137600,note_on,80,0,2,,,,,,,,,0,,,79,0
137680,note_on,80,0,2,,,,,,,,,0,,,74,0
137680,note_on,0,0,2,,,,,,,,,0,,,79,47
137760,note_on,480,0,3,,,,,,,,,0,,,62,0
137760,note_on,80,0,2,,,,,,,,,0,,,79,0
137760,set_tempo,480,1,0,,,,,,664673,,,,,,,
137760,note_on,0,0,3,,,,,,,,,0,,,60,45
137760,note_on,0,0,3,,,,,,,,,0,,,58,0
137760,note_on,0,0,3,,,,,,,,,0,,,62,64
137760,note_on,0,0,2,,,,,,,,,0,,,66,56
137760,note_on,0,0,3,,,,,,,,,0,,,57,45
137771,control_change,434,0,4,,,,,,,,,0,64,0,,
137820,control_change,49,0,4,,,,,,,,,0,64,127,,
137840,note_on,0,0,2,,,,,,,,,0,,,78,47
137840,note_on,80,0,2,,,,,,,,,0,,,66,0
137880,set_tempo,120,1,0,,,,,,668598,,,,,,,
137920,note_on,0,0,2,,,,,,,,,0,,,69,50
137920,note_on,80,0,2,,,,,,,,,0,,,78,0
137960,set_tempo,80,1,0,,,,,,672495,,,,,,,
138000,note_on,0,0,2,,,,,,,,,0,,,78,48
138000,note_on,80,0,2,,,,,,,,,0,,,69,0
138040,set_tempo,80,1,0,,,,,,676437,,,,,,,
138080,note_on,0,0,2,,,,,,,,,0,,,74,50
138080,note_on,80,0,2,,,,,,,,,0,,,78,0
138120,set_tempo,80,1,0,,,,,,680426,,,,,,,
138160,note_on,0,0,2,,,,,,,,,0,,,78,46
138160,note_on,80,0,2,,,,,,,,,0,,,74,0
138200,set_tempo,80,1,0,,,,,,684463,,,,,,,
138240,set_tempo,40,1,0,,,,,,684463,,,,,,,
138240,note_on,0,0,3,,,,,,,,,0,,,59,54
138240,note_on,80,0,2,,,,,,,,,0,,,78,0
138240,note_on,480,0,3,,,,,,,,,0,,,62,0
138240,note_on,0,0,3,,,,,,,,,0,,,57,0
138240,note_on,0,0,3,,,,,,,,,0,,,60,0
138240,note_on,0,0,3,,,,,,,,,0,,,56,54
138240,note_on,0,0,3,,,,,,,,,0,,,62,64
138240,note_on,20402,0,1,,,,,,,,,0,,,65,62
138267,control_change,447,0,4,,,,,,,,,0,64,0,,
138296,control_change,29,0,4,,,,,,,,,0,64,127,,
138320,note_on,80,0,2,,,,,,,,,0,,,77,52
138400,note_on,80,0,2,,,,,,,,,0,,,77,0
138400,note_on,0,0,2,,,,,,,,,0,,,68,56
138480,note_on,0,0,2,,,,,,,,,0,,,77,48
138480,note_on,80,0,2,,,,,,,,,0,,,68,0
138560,note_on,80,0,2,,,,,,,,,0,,,77,0
138560,note_on,0,0,2,,,,,,,,,0,,,71,50
138640,note_on,0,0,2,,,,,,,,,0,,,77,46
138640,note_on,80,0,2,,,,,,,,,0,,,71,0
138720,note_on,0,0,2,,,,,,,,,0,,,74,56
138720,set_tempo,480,1,0,,,,,,696945,,,,,,,
138720,note_on,80,0,2,,,,,,,,,0,,,77,0
138800,note_on,0,0,2,,,,,,,,,0,,,77,47
138800,note_on,80,0,2,,,,,,,,,0,,,74,0
138840,set_tempo,120,1,0,,,,,,692761,,,,,,,
138880,note_on,0,0,2,,,,,,,,,0,,,71,50
138880,note_on,80,0,2,,,,,,,,,0,,,77,0
138960,note_on,0,0,2,,,,,,,,,0,,,77,47
138960,set_tempo,120,1,0,,,,,,688547,,,,,,,
138960,note_on,80,0,2,,,,,,,,,0,,,71,0
139040,note_on,80,0,2,,,,,,,,,0,,,77,0
139040,note_on,0,0,2,,,,,,,,,0,,,68,50
139040,set_tempo,80,1,0,,,,,,684463,,,,,,,
139120,note_on,0,0,2,,,,,,,,,0,,,77,47
139120,note_on,80,0,2,,,,,,,,,0,,,68,0
139160,set_tempo,120,1,0,,,,,,680426,,,,,,,
139200,note_on,0,0,1,,,,,,,,,0,,,64,56
139200,note_on,960,0,1,,,,,,,,,0,,,65,0
139200,note_on,80,0,2,,,,,,,,,0,,,77,0
139200,note_on,960,0,3,,,,,,,,,0,,,62,0
139200,note_on,0,0,3,,,,,,,,,0,,,56,0
139200,note_on,0,0,3,,,,,,,,,0,,,55,54
139200,note_on,0,0,3,,,,,,,,,0,,,59,0
139214,control_change,918,0,4,,,,,,,,,0,64,0,,
139240,set_tempo,80,1,0,,,,,,676437,,,,,,,
139271,control_change,57,0,4,,,,,,,,,0,64,127,,
139280,note_on,80,0,2,,,,,,,,,0,,,76,47
139360,note_on,0,0,2,,,,,,,,,0,,,67,50
139360,note_on,80,0,2,,,,,,,,,0,,,76,0
139400,set_tempo,160,1,0,,,,,,680426,,,,,,,
139440,note_on,0,0,2,,,,,,,,,0,,,76,50
139440,set_tempo,40,1,0,,,,,,657102,,,,,,,
139440,note_on,80,0,2,,,,,,,,,0,,,67,0
139520,note_on,0,0,2,,,,,,,,,0,,,72,50
139520,note_on,80,0,2,,,,,,,,,0,,,76,0
139600,note_on,0,0,2,,,,,,,,,0,,,76,47
139600,note_on,80,0,2,,,,,,,,,0,,,72,0
139640,set_tempo,200,1,0,,,,,,684463,,,,,,,
139680,note_on,0,0,1,,,,,,,,,0,,,63,67
139680,note_on,0,0,3,,,,,,,,,0,,,67,65
139680,note_on,80,0,2,,,,,,,,,0,,,76,0
139680,note_on,480,0,1,,,,,,,,,0,,,64,0
139680,set_tempo,40,1,0,,,,,,624935,,,,,,,
139680,note_on,480,0,3,,,,,,,,,0,,,55,0
139691,control_change,420,0,4,,,,,,,,,0,64,0,,
139731,control_change,40,0,4,,,,,,,,,0,64,127,,
139760,note_on,80,0,2,,,,,,,,,0,,,75,48
139840,note_on,0,0,2,,,,,,,,,0,,,67,50
139840,note_on,80,0,2,,,,,,,,,0,,,75,0
139920,note_on,0,0,2,,,,,,,,,0,,,75,47
139920,note_on,80,0,2,,,,,,,,,0,,,67,0
140000,note_on,80,0,2,,,,,,,,,0,,,75,0
140000,note_on,0,0,2,,,,,,,,,0,,,72,50
140040,set_tempo,360,1,0,,,,,,672495,,,,,,,
140080,note_on,80,0,2,,,,,,,,,0,,,72,0
140080,note_on,0,0,2,,,,,,,,,0,,,75,47
140160,note_on,0,0,3,,,,,,,,,0,,,65,60
140160,note_on,0,0,1,,,,,,,,,0,,,62,63
140160,note_on,480,0,1,,,,,,,,,0,,,63,0
140160,note_on,80,0,2,,,,,,,,,0,,,75,0
140160,note_on,480,0,3,,,,,,,,,0,,,67,0
140160,set_tempo,120,1,0,,,,,,653381,,,,,,,
140174,control_change,443,0,4,,,,,,,,,0,64,0,,
140217,control_change,43,0,4,,,,,,,,,0,64,127,,
140240,note_on,80,0,2,,,,,,,,,0,,,74,47
140320,note_on,0,0,2,,,,,,,,,0,,,67,50
140320,note_on,80,0,2,,,,,,,,,0,,,74,0
140400,note_on,0,0,2,,,,,,,,,0,,,74,47
140400,note_on,80,0,2,,,,,,,,,0,,,67,0
140480,note_on,0,0,2,,,,,,,,,0,,,71,50
140480,note_on,80,0,2,,,,,,,,,0,,,74,0
140560,note_on,0,0,2,,,,,,,,,0,,,74,47
140560,note_on,80,0,2,,,,,,,,,0,,,71,0
140640,note_on,0,0,1,,,,,,,,,0,,,63,65
140640,note_on,0,0,3,,,,,,,,,0,,,60,60
140640,note_on,0,0,3,,,,,,,,,0,,,55,54
140640,note_on,80,0,2,,,,,,,,,0,,,74,0
140640,note_on,480,0,3,,,,,,,,,0,,,65,0
140640,note_on,480,0,1,,,,,,,,,0,,,62,0
140640,set_tempo,480,1,0,,,,,,664673,,,,,,,
140651,control_change,434,0,4,,,,,,,,,0,64,0,,
140700,control_change,49,0,4,,,,,,,,,0,64,127,,
140720,note_on,80,0,2,,,,,,,,,0,,,75,47
140760,set_tempo,120,1,0,,,,,,668598,,,,,,,
140800,note_on,80,0,2,,,,,,,,,0,,,75,0
140800,note_on,0,0,2,,,,,,,,,0,,,67,50
140840,set_tempo,80,1,0,,,,,,672495,,,,,,,
140880,note_on,0,0,2,,,,,,,,,0,,,75,48
140880,note_on,80,0,2,,,,,,,,,0,,,67,0
140920,set_tempo,80,1,0,,,,,,676437,,,,,,,
140960,note_on,80,0,2,,,,,,,,,0,,,75,0
140960,note_on,0,0,2,,,,,,,,,0,,,72,50
141000,set_tempo,80,1,0,,,,,,680426,,,,,,,
141040,note_on,0,0,2,,,,,,,,,0,,,75,46
141040,note_on,80,0,2,,,,,,,,,0,,,72,0
141080,set_tempo,80,1,0,,,,,,684463,,,,,,,
141120,note_on,480,0,3,,,,,,,,,0,,,60,0
141120,note_on,0,0,3,,,,,,,,,0,,,60,64
141120,note_on,80,0,2,,,,,,,,,0,,,75,0
141120,note_on,0,0,3,,,,,,,,,0,,,54,54
141120,note_on,480,0,1,,,,,,,,,0,,,63,0
141120,note_on,0,0,3,,,,,,,,,0,,,55,0
141120,set_tempo,40,1,0,,,,,,684463,,,,,,,
141120,note_on,0,0,1,,,,,,,,,0,,,63,62
141147,control_change,447,0,4,,,,,,,,,0,64,0,,
141176,control_change,29,0,4,,,,,,,,,0,64,127,,
141200,note_on,80,0,2,,,,,,,,,0,,,75,52
141280,note_on,0,0,2,,,,,,,,,0,,,67,56
141280,note_on,80,0,2,,,,,,,,,0,,,75,0
141360,note_on,0,0,2,,,,,,,,,0,,,75,48
141360,note_on,80,0,2,,,,,,,,,0,,,67,0
141440,note_on,0,0,2,,,,,,,,,0,,,68,50
141440,note_on,80,0,2,,,,,,,,,0,,,75,0
141520,note_on,0,0,2,,,,,,,,,0,,,75,46
141520,note_on,80,0,2,,,,,,,,,0,,,68,0
141600,note_on,0,0,2,,,,,,,,,0,,,72,56
141600,note_on,80,0,2,,,,,,,,,0,,,75,0
141600,set_tempo,480,1,0,,,,,,696945,,,,,,,
141680,note_on,0,0,2,,,,,,,,,0,,,75,47
141680,note_on,80,0,2,,,,,,,,,0,,,72,0
141720,set_tempo,120,1,0,,,,,,692761,,,,,,,
141760,note_on,80,0,2,,,,,,,,,0,,,75,0
141760,note_on,0,0,2,,,,,,,,,0,,,67,50
141840,note_on,0,0,2,,,,,,,,,0,,,75,47
141840,note_on,80,0,2,,,,,,,,,0,,,67,0
141840,set_tempo,120,1,0,,,,,,688547,,,,,,,
141920,set_tempo,80,1,0,,,,,,684463,,,,,,,
141920,note_on,80,0,2,,,,,,,,,0,,,75,0
141920,note_on,0,0,2,,,,,,,,,0,,,68,50
142000,note_on,80,0,2,,,,,,,,,0,,,68,0
142000,note_on,0,0,2,,,,,,,,,0,,,75,47
142040,set_tempo,120,1,0,,,,,,680426,,,,,,,
142080,note_on,960,0,1,,,,,,,,,0,,,63,0
142080,note_on,0,0,1,,,,,,,,,0,,,63,56
142080,note_on,80,0,2,,,,,,,,,0,,,75,0
142080,note_on,960,0,3,,,,,,,,,0,,,54,0
142080,note_on,0,0,3,,,,,,,,,0,,,53,54
142094,control_change,918,0,4,,,,,,,,,0,64,0,,
142120,set_tempo,80,1,0,,,,,,676437,,,,,,,
142151,control_change,57,0,4,,,,,,,,,0,64,127,,
142160,note_on,80,0,2,,,,,,,,,0,,,75,47
142240,note_on,80,0,2,,,,,,,,,0,,,75,0
142240,note_on,0,0,2,,,,,,,,,0,,,68,50
142320,note_on,0,0,2,,,,,,,,,0,,,75,50
142320,note_on,80,0,2,,,,,,,,,0,,,68,0
142400,note_on,0,0,2,,,,,,,,,0,,,69,50
142400,note_on,80,0,2,,,,,,,,,0,,,75,0
142480,note_on,80,0,2,,,,,,,,,0,,,69,0
142480,note_on,0,0,2,,,,,,,,,0,,,75,47
142520,set_tempo,400,1,0,,,,,,649702,,,,,,,
142560,note_on,0,0,2,,,,,,,,,0,,,72,47
142560,note_on,0,0,3,,,,,,,,,0,,,60,0
142560,note_on,0,0,3,,,,,,,,,0,,,60,61
142560,note_on,480,0,1,,,,,,,,,0,,,63,0
142560,note_on,0,0,1,,,,,,,,,0,,,63,63
142560,note_on,0,0,3,,,,,,,,,0,,,54,54
142560,note_on,80,0,2,,,,,,,,,0,,,75,0
142560,note_on,480,0,3,,,,,,,,,0,,,53,0
142571,control_change,420,0,4,,,,,,,,,0,64,0,,
142611,control_change,40,0,4,,,,,,,,,0,64,127,,
142640,note_on,0,0,2,,,,,,,,,0,,,75,48
142640,note_on,80,0,2,,,,,,,,,0,,,72,0
142640,set_tempo,120,1,0,,,,,,653381,,,,,,,
142720,note_on,80,0,2,,,,,,,,,0,,,75,0
142720,note_on,0,0,2,,,,,,,,,0,,,68,50
142760,set_tempo,120,1,0,,,,,,657102,,,,,,,
142800,note_on,80,0,2,,,,,,,,,0,,,68,0
142800,note_on,0,0,2,,,,,,,,,0,,,75,47
142880,note_on,80,0,2,,,,,,,,,0,,,75,0
142880,note_on,0,0,2,,,,,,,,,0,,,69,50
142880,set_tempo,120,1,0,,,,,,660866,,,,,,,
142960,note_on,80,0,2,,,,,,,,,0,,,69,0
142960,note_on,0,0,2,,,,,,,,,0,,,75,47
143000,set_tempo,120,1,0,,,,,,664673,,,,,,,
143040,note_on,480,0,1,,,,,,,,,0,,,63,0
143040,note_on,0,0,3,,,,,,,,,0,,,54,0
143040,note_on,0,0,3,,,,,,,,,0,,,55,51
143040,note_on,0,0,3,,,,,,,,,0,,,58,57
143040,note_on,80,0,2,,,,,,,,,0,,,75,0
143040,note_on,480,0,3,,,,,,,,,0,,,60,0
143040,note_on,0,0,1,,,,,,,,,0,,,62,59
143040,set_tempo,40,1,0,,,,,,668598,,,,,,,
143054,control_change,443,0,4,,,,,,,,,0,64,0,,
143097,control_change,43,0,4,,,,,,,,,0,64,127,,
143120,note_on,80,0,2,,,,,,,,,0,,,74,47
143200,note_on,80,0,2,,,,,,,,,0,,,74,0
143200,note_on,0,0,2,,,,,,,,,0,,,69,50
143280,note_on,80,0,2,,,,,,,,,0,,,69,0
143280,note_on,0,0,2,,,,,,,,,0,,,74,47
143360,note_on,80,0,2,,,,,,,,,0,,,74,0
143360,note_on,0,0,2,,,,,,,,,0,,,70,50
143440,note_on,80,0,2,,,,,,,,,0,,,70,0
143440,note_on,0,0,2,,,,,,,,,0,,,74,47
143520,note_on,480,0,1,,,,,,,,,0,,,62,0
143520,set_tempo,480,1,0,,,,,,664673,,,,,,,
143520,note_on,0,0,3,,,,,,,,,0,,,53,50
143520,note_on,0,0,1,,,,,,,,,0,,,62,61
143520,note_on,80,0,2,,,,,,,,,0,,,74,0
143520,note_on,0,0,3,,,,,,,,,0,,,56,57
143520,note_on,0,0,3,,,,,,,,,0,,,55,0
143520,note_on,480,0,3,,,,,,,,,0,,,58,0
143520,note_on,0,0,2,,,,,,,,,0,,,71,47
143531,control_change,434,0,4,,,,,,,,,0,64,0,,
143580,control_change,49,0,4,,,,,,,,,0,64,127,,
143600,note_on,80,0,2,,,,,,,,,0,,,71,0
143600,note_on,0,0,2,,,,,,,,,0,,,74,47
143640,set_tempo,120,1,0,,,,,,668598,,,,,,,
143680,note_on,80,0,2,,,,,,,,,0,,,74,0
143680,note_on,0,0,2,,,,,,,,,0,,,67,50
143720,set_tempo,80,1,0,,,,,,672495,,,,,,,
143760,note_on,0,0,2,,,,,,,,,0,,,74,48
143760,note_on,80,0,2,,,,,,,,,0,,,67,0
143800,set_tempo,80,1,0,,,,,,676437,,,,,,,
143840,note_on,80,0,2,,,,,,,,,0,,,74,0
143840,note_on,0,0,2,,,,,,,,,0,,,68,50
143880,set_tempo,80,1,0,,,,,,680426,,,,,,,
143920,note_on,80,0,2,,,,,,,,,0,,,68,0
143920,note_on,0,0,2,,,,,,,,,0,,,74,46
143960,set_tempo,80,1,0,,,,,,684463,,,,,,,
144000,note_on,480,0,1,,,,,,,,,0,,,62,0
144000,note_on,0,0,3,,,,,,,,,0,,,53,0
144000,note_on,80,0,2,,,,,,,,,0,,,74,0
144000,note_on,0,0,1,,,,,,,,,0,,,62,59
144000,note_on,480,0,3,,,,,,,,,0,,,56,0
144000,note_on,0,0,3,,,,,,,,,0,,,55,57
144000,note_on,0,0,3,,,,,,,,,0,,,52,51
144000,set_tempo,40,1,0,,,,,,668598,,,,,,,
144014,control_change,434,0,4,,,,,,,,,0,64,0,,
144057,control_change,43,0,4,,,,,,,,,0,64,127,,
144080,note_on,80,0,2,,,,,,,,,0,,,74,47
144160,note_on,0,0,2,,,,,,,,,0,,,67,50
144160,note_on,80,0,2,,,,,,,,,0,,,74,0
144240,note_on,0,0,2,,,,,,,,,0,,,74,47
144240,note_on,80,0,2,,,,,,,,,0,,,67,0
144320,note_on,0,0,2,,,,,,,,,0,,,69,50
144320,note_on,80,0,2,,,,,,,,,0,,,74,0
144400,note_on,0,0,2,,,,,,,,,0,,,74,47
144400,note_on,80,0,2,,,,,,,,,0,,,69,0
144480,note_on,480,0,1,,,,,,,,,0,,,62,0
144480,note_on,0,0,2,,,,,,,,,0,,,70,47
144480,note_on,0,0,3,,,,,,,,,0,,,52,0
144480,note_on,0,0,3,,,,,,,,,0,,,51,45
144480,note_on,80,0,2,,,,,,,,,0,,,74,0
144480,note_on,0,0,1,,,,,,,,,0,,,61,56
144480,note_on,480,0,3,,,,,,,,,0,,,55,0
144480,note_on,0,0,3,,,,,,,,,0,,,55,51
144480,set_tempo,480,1,0,,,,,,684463,,,,,,,
144491,control_change,434,0,4,,,,,,,,,0,64,0,,
144540,control_change,49,0,4,,,,,,,,,0,64,127,,
144560,note_on,0,0,2,,,,,,,,,0,,,73,47
144560,note_on,80,0,2,,,,,,,,,0,,,70,0
144640,note_on,80,0,2,,,,,,,,,0,,,73,0
144640,note_on,0,0,2,,,,,,,,,0,,,66,50
144680,set_tempo,200,1,0,,,,,,680426,,,,,,,
144720,note_on,0,0,2,,,,,,,,,0,,,73,48
144720,note_on,80,0,2,,,,,,,,,0,,,66,0
144720,set_tempo,40,1,0,,,,,,684463,,,,,,,
144760,set_tempo,40,1,0,,,,,,692761,,,,,,,
144800,note_on,0,0,2,,,,,,,,,0,,,67,50
144800,set_tempo,40,1,0,,,,,,696945,,,,,,,
144800,note_on,80,0,2,,,,,,,,,0,,,73,0
144840,set_tempo,40,1,0,,,,,,705467,,,,,,,
144880,set_tempo,40,1,0,,,,,,714286,,,,,,,
144880,note_on,80,0,2,,,,,,,,,0,,,67,0
144880,note_on,0,0,2,,,,,,,,,0,,,73,46
144920,set_tempo,40,1,0,,,,,,684463,,,,,,,
144960,note_on,0,0,1,,,,,,,,,0,,,62,56
144960,set_tempo,40,1,0,,,,,,680426,,,,,,,
144960,note_on,0,0,3,,,,,,,,,0,,,51,0
144960,note_on,0,0,3,,,,,,,,,0,,,50,48
144960,note_on,480,0,1,,,,,,,,,0,,,61,0
144960,note_on,80,0,2,,,,,,,,,0,,,73,0
144960,note_on,480,0,3,,,,,,,,,0,,,55,0
144960,note_on,0,0,3,,,,,,,,,0,,,58,54
144974,control_change,434,0,4,,,,,,,,,0,64,0,,
145017,control_change,43,0,4,,,,,,,,,0,64,127,,
145040,note_on,80,0,2,,,,,,,,,0,,,74,44
145120,note_on,80,0,2,,,,,,,,,0,,,74,0
145120,note_on,0,0,2,,,,,,,,,0,,,66,47
145200,note_on,80,0,2,,,,,,,,,0,,,66,0
145200,note_on,0,0,2,,,,,,,,,0,,,74,44
145280,note_on,0,0,2,,,,,,,,,0,,,67,46
145280,note_on,80,0,2,,,,,,,,,0,,,74,0
145360,note_on,80,0,2,,,,,,,,,0,,,67,0
145360,note_on,0,0,2,,,,,,,,,0,,,74,43
145438,note_on,478,0,3,,,,,,,,,0,,,58,0
145440,note_on,2,0,3,,,,,,,,,0,,,55,52
145440,note_on,0,0,1,,,,,,,,,0,,,58,56
145440,note_on,480,0,1,,,,,,,,,0,,,62,0
145440,note_on,80,0,2,,,,,,,,,0,,,74,0
145440,set_tempo,480,1,0,,,,,,664673,,,,,,,
145451,control_change,434,0,4,,,,,,,,,0,64,0,,
145500,control_change,49,0,4,,,,,,,,,0,64,127,,
145520,note_on,80,0,2,,,,,,,,,0,,,70,42
145560,set_tempo,120,1,0,,,,,,668598,,,,,,,
145600,note_on,80,0,2,,,,,,,,,0,,,70,0
145600,note_on,0,0,2,,,,,,,,,0,,,61,45
145640,set_tempo,80,1,0,,,,,,676437,,,,,,,
145680,note_on,80,0,2,,,,,,,,,0,,,61,0
145680,note_on,0,0,2,,,,,,,,,0,,,70,43
145680,set_tempo,40,1,0,,,,,,684463,,,,,,,
145720,set_tempo,40,1,0,,,,,,692761,,,,,,,
145760,note_on,80,0,2,,,,,,,,,0,,,70,0
145760,set_tempo,40,1,0,,,,,,701180,,,,,,,
145760,note_on,0,0,2,,,,,,,,,0,,,62,44
145800,set_tempo,40,1,0,,,,,,709807,,,,,,,
145840,set_tempo,40,1,0,,,,,,718735,,,,,,,
145840,note_on,0,0,2,,,,,,,,,0,,,70,40
145840,note_on,80,0,2,,,,,,,,,0,,,62,0
145880,set_tempo,40,1,0,,,,,,732422,,,,,,,
145920,note_on,80,0,2,,,,,,,,,0,,,70,0
145920,note_on,0,0,1,,,,,,,,,0,,,60,51
145920,note_on,480,0,1,,,,,,,,,0,,,58,0
145920,note_on,0,0,3,,,,,,,,,0,,,57,50
145920,set_tempo,40,1,0,,,,,,688547,,,,,,,
145920,note_on,0,0,3,,,,,,,,,0,,,50,44
145920,note_on,480,0,3,,,,,,,,,0,,,55,0
145920,note_on,0,0,3,,,,,,,,,0,,,50,0
145934,control_change,434,0,4,,,,,,,,,0,64,0,,
145977,control_change,43,0,4,,,,,,,,,0,64,127,,
146000,note_on,80,0,2,,,,,,,,,0,,,72,40
146080,note_on,80,0,2,,,,,,,,,0,,,72,0
146080,note_on,0,0,2,,,,,,,,,0,,,63,43
146160,note_on,80,0,2,,,,,,,,,0,,,63,0
146160,note_on,0,0,2,,,,,,,,,0,,,72,40
146240,note_on,0,0,2,,,,,,,,,0,,,62,42
146240,note_on,80,0,2,,,,,,,,,0,,,72,0
146320,note_on,0,0,2,,,,,,,,,0,,,72,39
146320,note_on,80,0,2,,,,,,,,,0,,,62,0
146360,set_tempo,440,1,0,,,,,,696945,,,,,,,
146398,note_on,478,0,3,,,,,,,,,0,,,57,0
146400,note_on,2,0,3,,,,,,,,,0,,,54,47
146400,note_on,0,0,1,,,,,,,,,0,,,57,51
146400,note_on,480,0,1,,,,,,,,,0,,,60,0
146400,note_on,80,0,2,,,,,,,,,0,,,72,0
146411,control_change,434,0,4,,,,,,,,,0,64,0,,
146440,set_tempo,80,1,0,,,,,,701180,,,,,,,
146460,control_change,49,0,4,,,,,,,,,0,64,127,,
146480,note_on,80,0,2,,,,,,,,,0,,,69,39
146520,set_tempo,80,1,0,,,,,,705467,,,,,,,
146560,note_on,80,0,2,,,,,,,,,0,,,69,0
146560,note_on,0,0,2,,,,,,,,,0,,,63,41
146640,note_on,80,0,2,,,,,,,,,0,,,63,0
146640,set_tempo,120,1,0,,,,,,705467,,,,,,,
146640,note_on,0,0,2,,,,,,,,,0,,,69,39
146680,set_tempo,40,1,0,,,,,,718735,,,,,,,
146720,set_tempo,40,1,0,,,,,,732422,,,,,,,
146720,note_on,80,0,2,,,,,,,,,0,,,69,0
146720,note_on,0,0,2,,,,,,,,,0,,,62,41
146760,set_tempo,40,1,0,,,,,,746733,,,,,,,
146800,note_on,80,0,2,,,,,,,,,0,,,62,0
146800,set_tempo,40,1,0,,,,,,761518,,,,,,,
146800,note_on,0,0,2,,,,,,,,,0,,,69,37
146840,set_tempo,40,1,0,,,,,,777001,,,,,,,
146880,note_on,480,0,1,,,,,,,,,0,,,57,0
146880,set_tempo,40,1,0,,,,,,688547,,,,,,,
146880,note_on,0,0,3,,,,,,,,,0,,,50,0
146880,note_on,480,0,3,,,,,,,,,0,,,54,0
146880,note_on,0,0,3,,,,,,,,,0,,,31,41
146880,note_on,80,0,2,,,,,,,,,0,,,69,0
146880,note_on,0,0,1,,,,,,,,,0,,,58,51
146880,note_on,0,0,3,,,,,,,,,0,,,43,49
146894,control_change,434,0,4,,,,,,,,,0,64,0,,
146937,control_change,43,0,4,,,,,,,,,0,64,127,,
146960,note_on,80,0,2,,,,,,,,,0,,,67,34
146960,note_on,0,0,2,,,,,,,,,0,,,70,40
147040,note_on,0,0,2,,,,,,,,,0,,,61,43
147040,note_on,0,0,2,,,,,,,,,0,,,67,0
147040,note_on,80,0,2,,,,,,,,,0,,,70,0
147120,note_on,0,0,2,,,,,,,,,0,,,70,40
147120,note_on,0,0,2,,,,,,,,,0,,,67,33
147120,note_on,80,0,2,,,,,,,,,0,,,61,0
147200,note_on,0,0,2,,,,,,,,,0,,,67,0
147200,note_on,80,0,2,,,,,,,,,0,,,70,0
147200,note_on,0,0,2,,,,,,,,,0,,,62,42
147280,note_on,0,0,2,,,,,,,,,0,,,70,40
147280,note_on,0,0,2,,,,,,,,,0,,,67,33
147280,note_on,80,0,2,,,,,,,,,0,,,62,0
147320,set_tempo,440,1,0,,,,,,696945,,,,,,,
147358,note_on,478,0,1,,,,,,,,,0,,,58,0
147360,note_on,0,0,2,,,,,,,,,0,,,67,0
147360,note_on,0,0,3,,,,,,,,,0,,,31,0
147360,note_on,0,0,3,,,,,,,,,0,,,50,38
147360,note_on,0,0,3,,,,,,,,,0,,,55,38
147360,note_on,0,0,3,,,,,,,,,0,,,58,45
147360,set_tempo,40,1,0,,,,,,648649,,,,,,,
147360,note_on,480,0,3,,,,,,,,,0,,,43,0
147360,note_on,2,0,1,,,,,,,,,0,,,62,53
147360,note_on,80,0,2,,,,,,,,,0,,,70,0
147371,control_change,434,0,4,,,,,,,,,0,64,0,,
147420,control_change,49,0,4,,,,,,,,,0,64,127,,
147440,note_on,80,0,2,,,,,,,,,0,,,70,34
147440,note_on,0,0,2,,,,,,,,,0,,,74,40
147520,note_on,80,0,2,,,,,,,,,0,,,74,0
147520,note_on,0,0,2,,,,,,,,,0,,,70,0
147520,note_on,0,0,2,,,,,,,,,0,,,66,48
147600,note_on,0,0,2,,,,,,,,,0,,,74,41
147600,note_on,0,0,2,,,,,,,,,0,,,70,32
147600,note_on,80,0,2,,,,,,,,,0,,,66,0
147680,note_on,0,0,2,,,,,,,,,0,,,67,48
147680,note_on,80,0,2,,,,,,,,,0,,,74,0
147680,note_on,0,0,2,,,,,,,,,0,,,70,0
147760,note_on,80,0,2,,,,,,,,,0,,,67,0
147760,note_on,0,0,2,,,,,,,,,0,,,74,41
147760,note_on,0,0,2,,,,,,,,,0,,,70,35
147838,note_on,478,0,3,,,,,,,,,0,,,58,0
147840,note_on,2,0,3,,,,,,,,,0,,,55,0
147840,note_on,0,0,2,,,,,,,,,0,,,70,0
147840,note_on,0,0,3,,,,,,,,,0,,,31,45
147840,note_on,0,0,3,,,,,,,,,0,,,43,53
147840,note_on,0,0,3,,,,,,,,,0,,,50,0
147840,set_tempo,480,1,0,,,,,,668598,,,,,,,
147840,note_on,480,0,1,,,,,,,,,0,,,62,0
147840,note_on,0,0,1,,,,,,,,,0,,,58,56
147840,note_on,80,0,2,,,,,,,,,0,,,74,0
147854,control_change,434,0,4,,,,,,,,,0,64,0,,
147897,control_change,43,0,4,,,,,,,,,0,64,127,,
147920,note_on,80,0,2,,,,,,,,,0,,,67,38
147920,note_on,0,0,2,,,,,,,,,0,,,70,44
148000,note_on,80,0,2,,,,,,,,,0,,,70,0
148000,note_on,0,0,2,,,,,,,,,0,,,61,47
148000,note_on,0,0,2,,,,,,,,,0,,,67,0
148080,note_on,80,0,2,,,,,,,,,0,,,61,0
148080,note_on,0,0,2,,,,,,,,,0,,,70,45
148080,note_on,0,0,2,,,,,,,,,0,,,67,37
148160,note_on,80,0,2,,,,,,,,,0,,,70,0
148160,note_on,0,0,2,,,,,,,,,0,,,62,47
148160,note_on,0,0,2,,,,,,,,,0,,,67,0
148240,note_on,0,0,2,,,,,,,,,0,,,67,37
148240,note_on,0,0,2,,,,,,,,,0,,,70,44
148240,note_on,80,0,2,,,,,,,,,0,,,62,0
148318,note_on,478,0,1,,,,,,,,,0,,,58,0
148320,set_tempo,480,1,0,,,,,,655738,,,,,,,
148320,note_on,0,0,2,,,,,,,,,0,,,67,0
148320,note_on,0,0,3,,,,,,,,,0,,,31,0
148320,note_on,480,0,3,,,,,,,,,0,,,43,0
148320,note_on,80,0,2,,,,,,,,,0,,,70,0
148320,note_on,0,0,3,,,,,,,,,0,,,55,43
148320,note_on,0,0,3,,,,,,,,,0,,,58,51
148320,note_on,2,0,1,,,,,,,,,0,,,62,61
148320,note_on,0,0,3,,,,,,,,,0,,,50,43
148331,control_change,434,0,4,,,,,,,,,0,64,0,,
148380,control_change,49,0,4,,,,,,,,,0,64,127,,
148400,note_on,80,0,2,,,,,,,,,0,,,70,38
148400,note_on,0,0,2,,,,,,,,,0,,,74,46
148480,note_on,80,0,2,,,,,,,,,0,,,74,0
148480,note_on,0,0,2,,,,,,,,,0,,,70,0
148480,note_on,0,0,2,,,,,,,,,0,,,66,53
148560,set_tempo,240,1,0,,,,,,701180,,,,,,,
148560,note_on,0,0,2,,,,,,,,,0,,,74,46
148560,note_on,0,0,2,,,,,,,,,0,,,70,36
148560,note_on,80,0,2,,,,,,,,,0,,,66,0
148640,note_on,80,0,2,,,,,,,,,0,,,74,0
148640,note_on,0,0,2,,,,,,,,,0,,,67,55
148640,note_on,0,0,2,,,,,,,,,0,,,70,0
148720,note_on,80,0,2,,,,,,,,,0,,,67,0
148720,note_on,0,0,2,,,,,,,,,0,,,70,38
148720,note_on,0,0,2,,,,,,,,,0,,,74,45
148800,note_on,0,0,1,,,,,,,,,0,,,62,62
148800,note_on,480,0,1,,,,,,,,,0,,,62,0
148800,note_on,0,0,3,,,,,,,,,0,,,55,0
148800,note_on,0,0,3,,,,,,,,,0,,,50,0
148800,note_on,0,0,3,,,,,,,,,0,,,43,59
148800,note_on,80,0,2,,,,,,,,,0,,,74,0
148800,note_on,0,0,2,,,,,,,,,0,,,70,0
148800,note_on,0,0,3,,,,,,,,,0,,,31,49
148800,set_tempo,240,1,0,,,,,,645995,,,,,,,
148800,note_on,480,0,3,,,,,,,,,0,,,58,0
148814,control_change,434,0,4,,,,,,,,,0,64,0,,
148857,control_change,43,0,4,,,,,,,,,0,64,127,,
148880,note_on,0,0,2,,,,,,,,,0,,,74,48
148880,note_on,80,0,2,,,,,,,,,0,,,71,41
148960,note_on,80,0,2,,,,,,,,,0,,,74,0
148960,note_on,0,0,2,,,,,,,,,0,,,66,53
148960,note_on,0,0,2,,,,,,,,,0,,,71,0
149040,note_on,80,0,2,,,,,,,,,0,,,66,0
149040,note_on,0,0,2,,,,,,,,,0,,,71,40
149040,note_on,0,0,2,,,,,,,,,0,,,74,50
149120,note_on,80,0,2,,,,,,,,,0,,,74,0
149120,note_on,0,0,2,,,,,,,,,0,,,71,0
149120,note_on,0,0,2,,,,,,,,,0,,,67,52
149200,note_on,80,0,2,,,,,,,,,0,,,67,0
149200,note_on,0,0,2,,,,,,,,,0,,,74,49
149200,note_on,0,0,2,,,,,,,,,0,,,71,42
149278,note_on,478,0,1,,,,,,,,,0,,,62,0
149280,note_on,0,0,3,,,,,,,,,0,,,62,56
149280,note_on,0,0,3,,,,,,,,,0,,,55,47
149280,note_on,0,0,3,,,,,,,,,0,,,53,47
149280,note_on,0,0,3,,,,,,,,,0,,,31,0
149280,note_on,480,0,3,,,,,,,,,0,,,43,0
149280,note_on,0,0,3,,,,,,,,,0,,,59,47
149280,note_on,0,0,2,,,,,,,,,0,,,71,0
149280,note_on,80,0,2,,,,,,,,,0,,,74,0
149280,note_on,2,0,1,,,,,,,,,0,,,65,68
149291,control_change,434,0,4,,,,,,,,,0,64,0,,
149340,control_change,49,0,4,,,,,,,,,0,64,127,,
149360,note_on,0,0,2,,,,,,,,,0,,,77,50
149360,note_on,80,0,2,,,,,,,,,0,,,74,42
149440,note_on,0,0,2,,,,,,,,,0,,,74,0
149440,note_on,80,0,2,,,,,,,,,0,,,77,0
149440,note_on,0,0,2,,,,,,,,,0,,,68,56
149520,note_on,0,0,2,,,,,,,,,0,,,74,40
149520,note_on,0,0,2,,,,,,,,,0,,,77,51
149520,set_tempo,720,1,0,,,,,,746733,,,,,,,
149520,note_on,80,0,2,,,,,,,,,0,,,68,0
149600,note_on,0,0,2,,,,,,,,,0,,,74,0
149600,note_on,0,0,2,,,,,,,,,0,,,67,57
149600,note_on,80,0,2,,,,,,,,,0,,,77,0
149680,note_on,80,0,2,,,,,,,,,0,,,67,0
149680,note_on,0,0,2,,,,,,,,,0,,,74,42
149680,note_on,0,0,2,,,,,,,,,0,,,77,51
149760,note_on,80,0,2,,,,,,,,,0,,,77,0
149760,note_on,0,0,1,,,,,,,,,0,,,67,69
149760,set_tempo,240,1,0,,,,,,668598,,,,,,,
149760,note_on,0,0,3,,,,,,,,,0,,,31,56
149760,note_on,480,0,1,,,,,,,,,0,,,65,0
149760,note_on,0,0,3,,,,,,,,,0,,,43,67
149760,note_on,0,0,3,,,,,,,,,0,,,53,0
149760,note_on,0,0,2,,,,,,,,,0,,,74,0
149760,note_on,0,0,3,,,,,,,,,0,,,55,0
149760,note_on,480,0,3,,,,,,,,,0,,,62,0
149760,note_on,0,0,3,,,,,,,,,0,,,59,0
149774,control_change,434,0,4,,,,,,,,,0,64,0,,
149817,control_change,43,0,4,,,,,,,,,0,64,127,,
149840,note_on,80,0,2,,,,,,,,,0,,,75,46
149840,note_on,0,0,2,,,,,,,,,0,,,79,55
149920,note_on,0,0,2,,,,,,,,,0,,,71,58
149920,note_on,80,0,2,,,,,,,,,0,,,79,0
149920,note_on,0,0,2,,,,,,,,,0,,,75,0
150000,set_tempo,240,1,0,,,,,,641711,,,,,,,
150000,note_on,80,0,2,,,,,,,,,0,,,71,0
150000,note_on,0,0,2,,,,,,,,,0,,,75,45
150000,note_on,0,0,2,,,,,,,,,0,,,79,55
150080,note_on,0,0,2,,,,,,,,,0,,,72,56
150080,note_on,0,0,2,,,,,,,,,0,,,75,0
150080,note_on,80,0,2,,,,,,,,,0,,,79,0
150160,note_on,0,0,2,,,,,,,,,0,,,79,52
150160,note_on,0,0,2,,,,,,,,,0,,,75,44
150160,note_on,80,0,2,,,,,,,,,0,,,72,0
150220,set_tempo,220,1,0,,,,,,648649,,,,,,,
150240,note_on,0,0,2,,,,,,,,,0,,,75,0
150240,note_on,0,0,3,,,,,,,,,0,,,60,59
150240,note_on,480,0,3,,,,,,,,,0,,,43,0
150240,note_on,0,0,3,,,,,,,,,0,,,55,50
150240,note_on,0,0,3,,,,,,,,,0,,,51,50
150240,note_on,80,0,2,,,,,,,,,0,,,79,0
150240,note_on,0,0,1,,,,,,,,,0,,,63,71
150240,set_tempo,20,1,0,,,,,,652174,,,,,,,
150240,note_on,480,0,1,,,,,,,,,0,,,67,0
150240,note_on,0,0,3,,,,,,,,,0,,,31,0
150251,control_change,434,0,4,,,,,,,,,0,64,0,,
150260,set_tempo,20,1,0,,,,,,655738,,,,,,,
150280,set_tempo,20,1,0,,,,,,659341,,,,,,,
150300,set_tempo,20,1,0,,,,,,662983,,,,,,,
150300,control_change,49,0,4,,,,,,,,,0,64,127,,
150320,set_tempo,20,1,0,,,,,,666667,,,,,,,
150320,note_on,80,0,2,,,,,,,,,0,,,72,44
150320,note_on,0,0,2,,,,,,,,,0,,,75,52
150340,set_tempo,20,1,0,,,,,,670391,,,,,,,
150360,set_tempo,20,1,0,,,,,,674157,,,,,,,
150380,set_tempo,20,1,0,,,,,,677966,,,,,,,
150400,note_on,80,0,2,,,,,,,,,0,,,75,0
150400,note_on,0,0,2,,,,,,,,,0,,,72,0
150400,set_tempo,20,1,0,,,,,,681818,,,,,,,
150400,note_on,0,0,2,,,,,,,,,0,,,66,57
150420,set_tempo,20,1,0,,,,,,685714,,,,,,,
150480,note_on,80,0,2,,,,,,,,,0,,,66,0
150480,set_tempo,60,1,0,,,,,,751597,,,,,,,
150480,note_on,0,0,2,,,,,,,,,0,,,72,41
150480,note_on,0,0,2,,,,,,,,,0,,,75,51
150560,note_on,0,0,2,,,,,,,,,0,,,67,57
150560,note_on,0,0,2,,,,,,,,,0,,,72,0
150560,note_on,80,0,2,,,,,,,,,0,,,75,0
150640,note_on,0,0,2,,,,,,,,,0,,,72,42
150640,note_on,0,0,2,,,,,,,,,0,,,75,50
150640,note_on,80,0,2,,,,,,,,,0,,,67,0
150720,note_on,0,0,1,,,,,,,,,0,,,62,65
150720,note_on,0,0,3,,,,,,,,,0,,,38,62
150720,note_on,0,0,3,,,,,,,,,0,,,51,0
150720,set_tempo,240,1,0,,,,,,684463,,,,,,,
150720,note_on,0,0,2,,,,,,,,,0,,,72,0
150720,note_on,80,0,2,,,,,,,,,0,,,75,0
150720,note_on,0,0,3,,,,,,,,,0,,,55,0
150720,note_on,480,0,3,,,,,,,,,0,,,60,0
150720,note_on,480,0,1,,,,,,,,,0,,,63,0
150734,control_change,434,0,4,,,,,,,,,0,64,0,,
150777,control_change,43,0,4,,,,,,,,,0,64,127,,
150800,note_on,0,0,2,,,,,,,,,0,,,74,51
150800,note_on,80,0,2,,,,,,,,,0,,,70,42
150880,note_on,0,0,2,,,,,,,,,0,,,70,0
150880,note_on,80,0,2,,,,,,,,,0,,,74,0
150880,note_on,0,0,2,,,,,,,,,0,,,66,54
150960,note_on,0,0,2,,,,,,,,,0,,,70,40
150960,note_on,0,0,2,,,,,,,,,0,,,74,49
150960,note_on,80,0,2,,,,,,,,,0,,,66,0
151040,note_on,80,0,2,,,,,,,,,0,,,74,0
151040,note_on,0,0,2,,,,,,,,,0,,,70,0
151040,note_on,0,0,2,,,,,,,,,0,,,67,51
151120,note_on,80,0,2,,,,,,,,,0,,,67,0
151120,note_on,0,0,2,,,,,,,,,0,,,70,40
151120,note_on,0,0,2,,,,,,,,,0,,,74,47
151200,note_on,80,0,2,,,,,,,,,0,,,74,0
151200,note_on,0,0,3,,,,,,,,,0,,,50,44
151200,note_on,480,0,3,,,,,,,,,0,,,38,0
151200,note_on,0,0,3,,,,,,,,,0,,,55,52
151200,note_on,480,0,1,,,,,,,,,0,,,62,0
151200,set_tempo,480,1,0,,,,,,696945,,,,,,,
151200,note_on,0,0,2,,,,,,,,,0,,,70,0
151200,note_on,0,0,1,,,,,,,,,0,,,58,63
151211,control_change,434,0,4,,,,,,,,,0,64,0,,
151260,control_change,49,0,4,,,,,,,,,0,64,127,,
151280,note_on,0,0,2,,,,,,,,,0,,,70,46
151280,note_on,80,0,2,,,,,,,,,0,,,67,38
151360,note_on,0,0,2,,,,,,,,,0,,,61,52
151360,note_on,0,0,2,,,,,,,,,0,,,67,0
151360,note_on,80,0,2,,,,,,,,,0,,,70,0
151440,note_on,0,0,2,,,,,,,,,0,,,67,36
151440,note_on,80,0,2,,,,,,,,,0,,,61,0
151440,set_tempo,240,1,0,,,,,,746733,,,,,,,
151440,note_on,0,0,2,,,,,,,,,0,,,70,46
151520,note_on,0,0,2,,,,,,,,,0,,,62,51
151520,note_on,80,0,2,,,,,,,,,0,,,70,0
151520,note_on,0,0,2,,,,,,,,,0,,,67,0
151600,note_on,0,0,2,,,,,,,,,0,,,67,36
151600,note_on,0,0,2,,,,,,,,,0,,,70,43
151600,note_on,80,0,2,,,,,,,,,0,,,62,0
151680,note_on,80,0,2,,,,,,,,,0,,,70,0
151680,note_on,0,0,3,,,,,,,,,0,,,50,0
151680,note_on,480,0,3,,,,,,,,,0,,,55,0
151680,note_on,480,0,1,,,,,,,,,0,,,58,0
151680,note_on,0,0,3,,,,,,,,,0,,,57,53
151680,note_on,0,0,1,,,,,,,,,0,,,60,58
151680,set_tempo,240,1,0,,,,,,705467,,,,,,,
151680,note_on,0,0,2,,,,,,,,,0,,,67,0
151680,note_on,0,0,3,,,,,,,,,0,,,50,41
151694,control_change,434,0,4,,,,,,,,,0,64,0,,
151737,control_change,43,0,4,,,,,,,,,0,64,127,,
151760,note_on,0,0,2,,,,,,,,,0,,,75,45
151760,note_on,80,0,2,,,,,,,,,0,,,72,38
151840,note_on,0,0,2,,,,,,,,,0,,,72,0
151840,note_on,0,0,2,,,,,,,,,0,,,63,47
151840,note_on,80,0,2,,,,,,,,,0,,,75,0
151920,note_on,80,0,2,,,,,,,,,0,,,63,0
151920,note_on,0,0,2,,,,,,,,,0,,,69,36
151920,note_on,0,0,2,,,,,,,,,0,,,72,44
152000,note_on,0,0,2,,,,,,,,,0,,,69,0
152000,note_on,80,0,2,,,,,,,,,0,,,72,0
152000,note_on,0,0,2,,,,,,,,,0,,,62,45
152080,note_on,0,0,2,,,,,,,,,0,,,72,41
152080,note_on,80,0,2,,,,,,,,,0,,,62,0
152080,note_on,0,0,2,,,,,,,,,0,,,69,34
152158,note_on,478,0,3,,,,,,,,,0,,,57,0
152160,note_on,0,0,3,,,,,,,,,0,,,54,46
152160,note_on,0,0,3,,,,,,,,,0,,,50,38
152160,note_on,80,0,2,,,,,,,,,0,,,72,0
152160,note_on,480,0,1,,,,,,,,,0,,,60,0
152160,set_tempo,480,1,0,,,,,,718735,,,,,,,
152160,note_on,0,0,1,,,,,,,,,0,,,57,56
152160,note_on,2,0,3,,,,,,,,,0,,,50,0
152160,note_on,0,0,2,,,,,,,,,0,,,69,0
152171,control_change,434,0,4,,,,,,,,,0,64,0,,
152200,set_tempo,40,1,0,,,,,,718735,,,,,,,
152220,control_change,49,0,4,,,,,,,,,0,64,127,,
152240,note_on,0,0,2,,,,,,,,,0,,,69,40
152240,note_on,80,0,2,,,,,,,,,0,,,66,34
152280,set_tempo,80,1,0,,,,,,723240,,,,,,,
152320,note_on,80,0,2,,,,,,,,,0,,,69,0
152320,note_on,0,0,2,,,,,,,,,0,,,63,47
152320,note_on,0,0,2,,,,,,,,,0,,,66,0
152320,set_tempo,40,1,0,,,,,,727802,,,,,,,
152400,set_tempo,80,1,0,,,,,,732422,,,,,,,
152400,note_on,80,0,2,,,,,,,,,0,,,63,0
152400,note_on,0,0,2,,,,,,,,,0,,,66,31
152400,note_on,0,0,2,,,,,,,,,0,,,69,40
152440,set_tempo,40,1,0,,,,,,737101,,,,,,,
152480,note_on,0,0,2,,,,,,,,,0,,,66,0
152480,note_on,80,0,2,,,,,,,,,0,,,69,0
152480,set_tempo,40,1,0,,,,,,746733,,,,,,,
152480,note_on,0,0,2,,,,,,,,,0,,,62,46
152520,set_tempo,40,1,0,,,,,,756525,,,,,,,
152560,note_on,80,0,2,,,,,,,,,0,,,62,0
152560,set_tempo,40,1,0,,,,,,766675,,,,,,,
152560,note_on,0,0,2,,,,,,,,,0,,,66,32
152560,note_on,0,0,2,,,,,,,,,0,,,69,38
152600,set_tempo,40,1,0,,,,,,723240,,,,,,,
152640,set_tempo,40,1,0,,,,,,718735,,,,,,,
152640,note_on,80,0,2,,,,,,,,,0,,,69,0
152640,note_on,0,0,3,,,,,,,,,0,,,50,0
152640,note_on,0,0,3,,,,,,,,,0,,,43,49
152640,note_on,0,0,2,,,,,,,,,0,,,66,0
152640,note_on,0,0,1,,,,,,,,,0,,,58,51
152640,note_on,480,0,3,,,,,,,,,0,,,54,0
152640,note_on,480,0,1,,,,,,,,,0,,,57,0
152640,note_on,0,0,3,,,,,,,,,0,,,31,41
152654,control_change,434,0,4,,,,,,,,,0,64,0,,
152680,set_tempo,40,1,0,,,,,,714286,,,,,,,
152697,control_change,43,0,4,,,,,,,,,0,64,127,,
152720,note_on,0,0,2,,,,,,,,,0,,,70,40
152720,note_on,80,0,2,,,,,,,,,0,,,67,34
152720,set_tempo,40,1,0,,,,,,709807,,,,,,,
152760,set_tempo,40,1,0,,,,,,701180,,,,,,,
152800,note_on,80,0,2,,,,,,,,,0,,,70,0
152800,set_tempo,40,1,0,,,,,,696945,,,,,,,
152800,note_on,0,0,2,,,,,,,,,0,,,67,0
152800,note_on,0,0,2,,,,,,,,,0,,,61,43
152840,set_tempo,40,1,0,,,,,,692761,,,,,,,
152880,set_tempo,40,1,0,,,,,,684463,,,,,,,
152880,note_on,0,0,2,,,,,,,,,0,,,70,40
152880,note_on,80,0,2,,,,,,,,,0,,,61,0
152880,note_on,0,0,2,,,,,,,,,0,,,67,33
152960,note_on,0,0,2,,,,,,,,,0,,,67,0
152960,note_on,0,0,2,,,,,,,,,0,,,62,42
152960,note_on,80,0,2,,,,,,,,,0,,,70,0
153040,note_on,0,0,2,,,,,,,,,0,,,67,33
153040,note_on,0,0,2,,,,,,,,,0,,,70,40
153040,note_on,80,0,2,,,,,,,,,0,,,62,0
153080,set_tempo,200,1,0,,,,,,696945,,,,,,,
153118,note_on,478,0,1,,,,,,,,,0,,,58,0
153120,note_on,80,0,2,,,,,,,,,0,,,70,0
153120,set_tempo,40,1,0,,,,,,670391,,,,,,,
153120,note_on,2,0,1,,,,,,,,,0,,,62,54
153120,note_on,0,0,3,,,,,,,,,0,,,31,0
153120,note_on,0,0,2,,,,,,,,,0,,,67,0
153120,note_on,0,0,3,,,,,,,,,0,,,50,38
153120,note_on,0,0,3,,,,,,,,,0,,,55,38
153120,note_on,0,0,3,,,,,,,,,0,,,58,45
153120,note_on,480,0,3,,,,,,,,,0,,,43,0
153131,control_change,434,0,4,,,,,,,,,0,64,0,,
153140,set_tempo,20,1,0,,,,,,666667,,,,,,,
153160,set_tempo,20,1,0,,,,,,662983,,,,,,,
153180,set_tempo,20,1,0,,,,,,659341,,,,,,,
153180,control_change,49,0,4,,,,,,,,,0,64,127,,
153200,note_on,80,0,2,,,,,,,,,0,,,70,34
153200,note_on,0,0,2,,,,,,,,,0,,,74,40
153200,set_tempo,20,1,0,,,,,,655738,,,,,,,
153220,set_tempo,20,1,0,,,,,,652174,,,,,,,
153240,set_tempo,20,1,0,,,,,,648649,,,,,,,
153260,set_tempo,20,1,0,,,,,,645161,,,,,,,
153280,note_on,80,0,2,,,,,,,,,0,,,74,0
153280,set_tempo,20,1,0,,,,,,641711,,,,,,,
153280,note_on,0,0,2,,,,,,,,,0,,,70,0
153280,note_on,0,0,2,,,,,,,,,0,,,66,48
153300,set_tempo,20,1,0,,,,,,638298,,,,,,,
153320,set_tempo,20,1,0,,,,,,634921,,,,,,,
153360,note_on,80,0,2,,,,,,,,,0,,,66,0
153360,note_on,0,0,2,,,,,,,,,0,,,74,41
153360,note_on,0,0,2,,,,,,,,,0,,,70,32
153400,set_tempo,80,1,0,,,,,,638298,,,,,,,
153440,note_on,80,0,2,,,,,,,,,0,,,74,0
153440,note_on,0,0,2,,,,,,,,,0,,,70,0
153440,note_on,0,0,2,,,,,,,,,0,,,67,48
153480,set_tempo,80,1,0,,,,,,641711,,,,,,,
153520,note_on,80,0,2,,,,,,,,,0,,,67,0
153520,note_on,0,0,2,,,,,,,,,0,,,70,35
153520,note_on,0,0,2,,,,,,,,,0,,,74,41
153540,set_tempo,60,1,0,,,,,,645161,,,,,,,
153598,note_on,478,0,3,,,,,,,,,0,,,58,0
153600,note_on,0,0,3,,,,,,,,,0,,,31,45
153600,note_on,80,0,2,,,,,,,,,0,,,74,0
153600,note_on,2,0,3,,,,,,,,,0,,,55,0
153600,note_on,0,0,3,,,,,,,,,0,,,43,53
153600,note_on,0,0,3,,,,,,,,,0,,,50,0
153600,note_on,0,0,1,,,,,,,,,0,,,58,56
153600,note_on,480,0,1,,,,,,,,,0,,,62,0
153600,set_tempo,60,1,0,,,,,,680426,,,,,,,
153600,note_on,0,0,2,,,,,,,,,0,,,70,0
153614,control_change,434,0,4,,,,,,,,,0,64,0,,
153620,set_tempo,20,1,0,,,,,,674157,,,,,,,
153657,control_change,43,0,4,,,,,,,,,0,64,127,,
153680,note_on,80,0,2,,,,,,,,,0,,,67,38
153680,note_on,0,0,2,,,,,,,,,0,,,70,44
153700,set_tempo,80,1,0,,,,,,670391,,,,,,,
153760,note_on,80,0,2,,,,,,,,,0,,,70,0
153760,note_on,0,0,2,,,,,,,,,0,,,61,47
153760,set_tempo,60,1,0,,,,,,666667,,,,,,,
153760,note_on,0,0,2,,,,,,,,,0,,,67,0
153840,note_on,0,0,2,,,,,,,,,0,,,70,45
153840,note_on,0,0,2,,,,,,,,,0,,,67,37
153840,note_on,80,0,2,,,,,,,,,0,,,61,0
153840,set_tempo,80,1,0,,,,,,662983,,,,,,,
153900,set_tempo,60,1,0,,,,,,659341,,,,,,,
153920,note_on,80,0,2,,,,,,,,,0,,,70,0
153920,note_on,0,0,2,,,,,,,,,0,,,67,0
153920,note_on,0,0,2,,,,,,,,,0,,,62,47
153980,set_tempo,80,1,0,,,,,,655738,,,,,,,
154000,note_on,0,0,2,,,,,,,,,0,,,67,37
154000,note_on,80,0,2,,,,,,,,,0,,,62,0
154000,note_on,0,0,2,,,,,,,,,0,,,70,44
154040,set_tempo,60,1,0,,,,,,652174,,,,,,,
154078,note_on,478,0,1,,,,,,,,,0,,,58,0
154080,note_on,80,0,2,,,,,,,,,0,,,70,0
154080,note_on,0,0,2,,,,,,,,,0,,,67,0
154080,note_on,2,0,1,,,,,,,,,0,,,62,61
154080,note_on,0,0,3,,,,,,,,,0,,,50,43
154080,note_on,0,0,3,,,,,,,,,0,,,31,0
154080,note_on,480,0,3,,,,,,,,,0,,,43,0
154080,note_on,0,0,3,,,,,,,,,0,,,55,43
154080,note_on,0,0,3,,,,,,,,,0,,,58,51
154091,control_change,434,0,4,,,,,,,,,0,64,0,,
154100,set_tempo,60,1,0,,,,,,648649,,,,,,,
154140,control_change,49,0,4,,,,,,,,,0,64,127,,
154160,note_on,0,0,2,,,,,,,,,0,,,74,46
154160,note_on,80,0,2,,,,,,,,,0,,,70,38
154240,note_on,0,0,2,,,,,,,,,0,,,66,52
154240,note_on,80,0,2,,,,,,,,,0,,,74,0
154240,note_on,0,0,2,,,,,,,,,0,,,70,0
154320,note_on,0,0,2,,,,,,,,,0,,,70,36
154320,note_on,0,0,2,,,,,,,,,0,,,74,46
154320,set_tempo,220,1,0,,,,,,701180,,,,,,,
154320,note_on,80,0,2,,,,,,,,,0,,,66,0
154400,note_on,80,0,2,,,,,,,,,0,,,74,0
154400,note_on,0,0,2,,,,,,,,,0,,,67,53
154400,note_on,0,0,2,,,,,,,,,0,,,70,0
154480,note_on,80,0,2,,,,,,,,,0,,,67,0
154480,note_on,0,0,2,,,,,,,,,0,,,70,38
154480,note_on,0,0,2,,,,,,,,,0,,,74,45
154560,note_on,0,0,3,,,,,,,,,0,,,43,59
154560,note_on,0,0,2,,,,,,,,,0,,,70,0
154560,note_on,0,0,3,,,,,,,,,0,,,31,49
154560,note_on,480,0,3,,,,,,,,,0,,,58,0
154560,note_on,0,0,1,,,,,,,,,0,,,62,62
154560,set_tempo,240,1,0,,,,,,660866,,,,,,,
154560,note_on,80,0,2,,,,,,,,,0,,,74,0
154560,note_on,0,0,3,,,,,,,,,0,,,55,0
154560,note_on,0,0,3,,,,,,,,,0,,,50,0
154560,note_on,480,0,1,,,,,,,,,0,,,62,0
154574,control_change,434,0,4,,,,,,,,,0,64,0,,
154617,control_change,43,0,4,,,,,,,,,0,64,127,,
154640,note_on,80,0,2,,,,,,,,,0,,,71,41
154640,note_on,0,0,2,,,,,,,,,0,,,74,48
154720,note_on,0,0,2,,,,,,,,,0,,,66,53
154720,note_on,0,0,2,,,,,,,,,0,,,71,0
154720,note_on,80,0,2,,,,,,,,,0,,,74,0
154800,note_on,80,0,2,,,,,,,,,0,,,66,0
154800,set_tempo,240,1,0,,,,,,631845,,,,,,,
154800,note_on,0,0,2,,,,,,,,,0,,,71,40
154800,note_on,0,0,2,,,,,,,,,0,,,74,50
154880,note_on,80,0,2,,,,,,,,,0,,,74,0
154880,note_on,0,0,2,,,,,,,,,0,,,71,0
154880,note_on,0,0,2,,,,,,,,,0,,,67,52
154960,note_on,80,0,2,,,,,,,,,0,,,67,0
154960,note_on,0,0,2,,,,,,,,,0,,,71,42
154960,note_on,0,0,2,,,,,,,,,0,,,74,49
155038,note_on,478,0,1,,,,,,,,,0,,,62,0
155040,note_on,0,0,3,,,,,,,,,0,,,53,47
155040,note_on,2,0,1,,,,,,,,,0,,,65,68
155040,note_on,0,0,3,,,,,,,,,0,,,59,47
155040,note_on,0,0,2,,,,,,,,,0,,,71,0
155040,note_on,0,0,3,,,,,,,,,0,,,62,56
155040,note_on,0,0,3,,,,,,,,,0,,,55,47
155040,note_on,0,0,3,,,,,,,,,0,,,31,0
155040,note_on,480,0,3,,,,,,,,,0,,,43,0
155040,note_on,80,0,2,,,,,,,,,0,,,74,0
155051,control_change,434,0,4,,,,,,,,,0,64,0,,
155100,control_change,49,0,4,,,,,,,,,0,64,127,,
155120,note_on,80,0,2,,,,,,,,,0,,,74,42
155120,note_on,0,0,2,,,,,,,,,0,,,77,50
155200,note_on,80,0,2,,,,,,,,,0,,,77,0
155200,note_on,0,0,2,,,,,,,,,0,,,68,56
155200,note_on,0,0,2,,,,,,,,,0,,,74,0
155280,note_on,0,0,2,,,,,,,,,0,,,74,40
155280,note_on,0,0,2,,,,,,,,,0,,,77,51
155280,note_on,80,0,2,,,,,,,,,0,,,68,0
155280,set_tempo,480,1,0,,,,,,746733,,,,,,,
155360,note_on,0,0,2,,,,,,,,,0,,,67,58
155360,note_on,80,0,2,,,,,,,,,0,,,77,0
155360,note_on,0,0,2,,,,,,,,,0,,,74,0
155440,note_on,80,0,2,,,,,,,,,0,,,67,0
155440,note_on,0,0,2,,,,,,,,,0,,,77,51
155440,note_on,0,0,2,,,,,,,,,0,,,74,42
155520,note_on,480,0,1,,,,,,,,,0,,,65,0
155520,note_on,480,0,3,,,,,,,,,0,,,62,0
155520,set_tempo,240,1,0,,,,,,641711,,,,,,,
155520,note_on,0,0,3,,,,,,,,,0,,,59,0
155520,note_on,0,0,3,,,,,,,,,0,,,55,0
155520,note_on,0,0,3,,,,,,,,,0,,,53,0
155520,note_on,0,0,3,,,,,,,,,0,,,43,67
155520,note_on,0,0,3,,,,,,,,,0,,,31,56
155520,note_on,0,0,2,,,,,,,,,0,,,74,0
155520,note_on,80,0,2,,,,,,,,,0,,,77,0
155520,note_on,0,0,1,,,,,,,,,0,,,67,69
155534,control_change,434,0,4,,,,,,,,,0,64,0,,
155577,control_change,43,0,4,,,,,,,,,0,64,127,,
155600,note_on,80,0,2,,,,,,,,,0,,,75,46
155600,note_on,0,0,2,,,,,,,,,0,,,79,55
155680,note_on,80,0,2,,,,,,,,,0,,,79,0
155680,note_on,0,0,2,,,,,,,,,0,,,75,0
155680,note_on,0,0,2,,,,,,,,,0,,,71,58
155760,note_on,0,0,2,,,,,,,,,0,,,79,55
155760,note_on,80,0,2,,,,,,,,,0,,,71,0
155760,note_on,0,0,2,,,,,,,,,0,,,75,45
155840,note_on,0,0,2,,,,,,,,,0,,,72,56
155840,note_on,0,0,2,,,,,,,,,0,,,75,0
155840,note_on,80,0,2,,,,,,,,,0,,,79,0
155920,note_on,0,0,2,,,,,,,,,0,,,75,44
155920,note_on,0,0,2,,,,,,,,,0,,,79,52
155920,note_on,80,0,2,,,,,,,,,0,,,72,0
156000,set_tempo,480,1,0,,,,,,648649,,,,,,,
156000,note_on,480,0,1,,,,,,,,,0,,,67,0
156000,note_on,0,0,1,,,,,,,,,0,,,63,71
156000,note_on,80,0,2,,,,,,,,,0,,,79,0
156000,note_on,0,0,3,,,,,,,,,0,,,55,50
156000,note_on,0,0,3,,,,,,,,,0,,,60,59
156000,note_on,0,0,2,,,,,,,,,0,,,75,0
156000,note_on,0,0,3,,,,,,,,,0,,,51,50
156000,note_on,0,0,3,,,,,,,,,0,,,31,0
156000,note_on,480,0,3,,,,,,,,,0,,,43,0
156011,control_change,434,0,4,,,,,,,,,0,64,0,,
156040,set_tempo,40,1,0,,,,,,652174,,,,,,,
156060,set_tempo,20,1,0,,,,,,655738,,,,,,,
156060,control_change,49,0,4,,,,,,,,,0,64,127,,
156080,note_on,80,0,2,,,,,,,,,0,,,72,44
156080,note_on,0,0,2,,,,,,,,,0,,,75,52
156100,set_tempo,40,1,0,,,,,,659341,,,,,,,
156120,set_tempo,20,1,0,,,,,,662983,,,,,,,
156160,set_tempo,40,1,0,,,,,,666667,,,,,,,
156160,note_on,80,0,2,,,,,,,,,0,,,75,0
156160,note_on,0,0,2,,,,,,,,,0,,,72,0
156160,note_on,0,0,2,,,,,,,,,0,,,66,58
156180,set_tempo,20,1,0,,,,,,670391,,,,,,,
156240,note_on,0,0,2,,,,,,,,,0,,,72,41
156240,note_on,0,0,2,,,,,,,,,0,,,75,51
156240,set_tempo,60,1,0,,,,,,709807,,,,,,,
156240,note_on,80,0,2,,,,,,,,,0,,,66,0
156320,note_on,0,0,2,,,,,,,,,0,,,67,56
156320,note_on,0,0,2,,,,,,,,,0,,,72,0
156320,note_on,80,0,2,,,,,,,,,0,,,75,0
156400,note_on,0,0,2,,,,,,,,,0,,,72,42
156400,note_on,0,0,2,,,,,,,,,0,,,75,50
156400,note_on,80,0,2,,,,,,,,,0,,,67,0
156480,note_on,480,0,3,,,,,,,,,0,,,60,0
156480,note_on,0,0,3,,,,,,,,,0,,,51,0
156480,note_on,0,0,3,,,,,,,,,0,,,55,0
156480,note_on,0,0,3,,,,,,,,,0,,,38,62
156480,note_on,480,0,1,,,,,,,,,0,,,63,0
156480,note_on,80,0,2,,,,,,,,,0,,,75,0
156480,note_on,0,0,2,,,,,,,,,0,,,72,0
156480,set_tempo,240,1,0,,,,,,680426,,,,,,,
156480,note_on,0,0,1,,,,,,,,,0,,,62,65
156494,control_change,434,0,4,,,,,,,,,0,64,0,,
156537,control_change,43,0,4,,,,,,,,,0,64,127,,
156560,note_on,0,0,2,,,,,,,,,0,,,74,51
156560,note_on,80,0,2,,,,,,,,,0,,,70,42
156640,note_on,80,0,2,,,,,,,,,0,,,74,0
156640,note_on,0,0,2,,,,,,,,,0,,,70,0
156640,note_on,0,0,2,,,,,,,,,0,,,66,54
156720,note_on,0,0,2,,,,,,,,,0,,,70,40
156720,note_on,80,0,2,,,,,,,,,0,,,66,0
156720,note_on,0,0,2,,,,,,,,,0,,,74,49
156800,note_on,0,0,2,,,,,,,,,0,,,67,51
156800,note_on,0,0,2,,,,,,,,,0,,,70,0
156800,note_on,80,0,2,,,,,,,,,0,,,74,0
156880,note_on,0,0,2,,,,,,,,,0,,,70,40
156880,note_on,0,0,2,,,,,,,,,0,,,74,47
156880,note_on,80,0,2,,,,,,,,,0,,,67,0
156960,note_on,0,0,2,,,,,,,,,0,,,70,0
156960,set_tempo,480,1,0,,,,,,696945,,,,,,,
156960,note_on,0,0,3,,,,,,,,,0,,,55,52
156960,note_on,0,0,3,,,,,,,,,0,,,50,44
156960,note_on,480,0,3,,,,,,,,,0,,,38,0
156960,note_on,480,0,1,,,,,,,,,0,,,62,0
156960,note_on,0,0,1,,,,,,,,,0,,,58,63
156960,note_on,80,0,2,,,,,,,,,0,,,74,0
156971,control_change,434,0,4,,,,,,,,,0,64,0,,
157020,control_change,49,0,4,,,,,,,,,0,64,127,,
157040,note_on,0,0,2,,,,,,,,,0,,,70,46
157040,note_on,80,0,2,,,,,,,,,0,,,67,38
157120,note_on,80,0,2,,,,,,,,,0,,,70,0
157120,note_on,0,0,2,,,,,,,,,0,,,61,53
157120,note_on,0,0,2,,,,,,,,,0,,,67,0
157200,set_tempo,240,1,0,,,,,,746733,,,,,,,
157200,note_on,0,0,2,,,,,,,,,0,,,67,36
157200,note_on,0,0,2,,,,,,,,,0,,,70,46
157200,note_on,80,0,2,,,,,,,,,0,,,61,0
157280,note_on,0,0,2,,,,,,,,,0,,,62,53
157280,note_on,0,0,2,,,,,,,,,0,,,67,0
157280,note_on,80,0,2,,,,,,,,,0,,,70,0
157360,note_on,80,0,2,,,,,,,,,0,,,62,0
157360,note_on,0,0,2,,,,,,,,,0,,,70,43
157360,note_on,0,0,2,,,,,,,,,0,,,67,36
157440,set_tempo,240,1,0,,,,,,705467,,,,,,,
157440,note_on,480,0,1,,,,,,,,,0,,,58,0
157440,note_on,0,0,3,,,,,,,,,0,,,50,0
157440,note_on,0,0,3,,,,,,,,,0,,,50,41
157440,note_on,480,0,3,,,,,,,,,0,,,55,0
157440,note_on,0,0,1,,,,,,,,,0,,,60,58
157440,note_on,0,0,3,,,,,,,,,0,,,57,53
157440,note_on,0,0,2,,,,,,,,,0,,,67,0
157440,note_on,80,0,2,,,,,,,,,0,,,70,0
157454,control_change,434,0,4,,,,,,,,,0,64,0,,
157497,control_change,43,0,4,,,,,,,,,0,64,127,,
157520,note_on,80,0,2,,,,,,,,,0,,,72,38
157520,note_on,0,0,2,,,,,,,,,0,,,75,45
157600,note_on,80,0,2,,,,,,,,,0,,,75,0
157600,note_on,0,0,2,,,,,,,,,0,,,72,0
157600,note_on,0,0,2,,,,,,,,,0,,,63,47
157680,note_on,0,0,2,,,,,,,,,0,,,72,44
157680,note_on,0,0,2,,,,,,,,,0,,,69,36
157680,note_on,80,0,2,,,,,,,,,0,,,63,0
157760,note_on,80,0,2,,,,,,,,,0,,,72,0
157760,note_on,0,0,2,,,,,,,,,0,,,62,45
157760,note_on,0,0,2,,,,,,,,,0,,,69,0
157840,note_on,80,0,2,,,,,,,,,0,,,62,0
157840,note_on,0,0,2,,,,,,,,,0,,,72,41
157840,note_on,0,0,2,,,,,,,,,0,,,69,34
157918,note_on,478,0,3,,,,,,,,,0,,,57,0
157920,note_on,80,0,2,,,,,,,,,0,,,72,0
157920,note_on,2,0,3,,,,,,,,,0,,,50,0
157920,note_on,0,0,1,,,,,,,,,0,,,57,56
157920,set_tempo,480,1,0,,,,,,718735,,,,,,,
157920,note_on,0,0,2,,,,,,,,,0,,,69,0
157920,note_on,480,0,1,,,,,,,,,0,,,60,0
157920,note_on,0,0,3,,,,,,,,,0,,,50,38
157920,note_on,0,0,3,,,,,,,,,0,,,54,46
157931,control_change,434,0,4,,,,,,,,,0,64,0,,
157980,control_change,49,0,4,,,,,,,,,0,64,127,,
158000,note_on,80,0,2,,,,,,,,,0,,,66,34
158000,note_on,0,0,2,,,,,,,,,0,,,69,40
158080,note_on,80,0,2,,,,,,,,,0,,,69,0
158080,note_on,0,0,2,,,,,,,,,0,,,63,47
158080,note_on,0,0,2,,,,,,,,,0,,,66,0
158160,note_on,80,0,2,,,,,,,,,0,,,63,0
158160,note_on,0,0,2,,,,,,,,,0,,,69,40
158160,note_on,0,0,2,,,,,,,,,0,,,66,31
158240,note_on,80,0,2,,,,,,,,,0,,,69,0
158240,note_on,0,0,2,,,,,,,,,0,,,62,46
158240,note_on,0,0,2,,,,,,,,,0,,,66,0
158320,note_on,80,0,2,,,,,,,,,0,,,62,0
158320,note_on,0,0,2,,,,,,,,,0,,,66,32
158320,note_on,0,0,2,,,,,,,,,0,,,69,38
158400,note_on,80,0,2,,,,,,,,,0,,,69,0
158400,note_on,0,0,3,,,,,,,,,0,,,62,57
158400,note_on,480,0,1,,,,,,,,,0,,,57,0
158400,note_on,420,0,4,,,,,,,,,0,,,58,51
158400,set_tempo,480,1,0,,,,,,684463,,,,,,,
158400,note_on,0,0,2,,,,,,,,,0,,,66,0
158400,note_on,480,0,3,,,,,,,,,0,,,54,0
158400,note_on,0,0,3,,,,,,,,,0,,,67,57
158400,note_on,0,0,3,,,,,,,,,0,,,50,0
158414,control_change,14,0,4,,,,,,,,,0,64,0,,
158446,control_change,32,0,4,,,,,,,,,0,64,127,,
158480,note_on,34,0,4,,,,,,,,,0,,,58,0
158480,note_on,0,0,4,,,,,,,,,0,,,55,44
158560,note_on,80,0,4,,,,,,,,,0,,,55,0
158560,note_on,0,0,4,,,,,,,,,0,,,58,49
158640,note_on,0,0,4,,,,,,,,,0,,,55,46
158640,note_on,80,0,4,,,,,,,,,0,,,58,0
158720,note_on,0,0,4,,,,,,,,,0,,,58,55
158720,note_on,80,0,4,,,,,,,,,0,,,55,0
158800,note_on,0,0,4,,,,,,,,,0,,,55,52
158800,note_on,80,0,4,,,,,,,,,0,,,58,0
158860,set_tempo,460,1,0,,,,,,670391,,,,,,,
158880,note_on,480,0,3,,,,,,,,,0,,,67,0
158880,note_on,80,0,4,,,,,,,,,0,,,55,0
158880,note_on,0,0,3,,,,,,,,,0,,,65,63
158880,note_on,0,0,3,,,,,,,,,0,,,62,63
158880,note_on,0,0,3,,,,,,,,,0,,,62,0
158880,note_on,0,0,4,,,,,,,,,0,,,59,59
158892,control_change,12,0,4,,,,,,,,,0,64,0,,
158915,control_change,23,0,4,,,,,,,,,0,64,127,,
158960,note_on,0,0,4,,,,,,,,,0,,,55,53
158960,note_on,45,0,4,,,,,,,,,0,,,59,0
159000,set_tempo,140,1,0,,,,,,666667,,,,,,,
159040,note_on,80,0,4,,,,,,,,,0,,,55,0
159040,note_on,0,0,4,,,,,,,,,0,,,59,59
159120,note_on,80,0,4,,,,,,,,,0,,,59,0
159120,set_tempo,120,1,0,,,,,,662983,,,,,,,
159120,note_on,0,0,4,,,,,,,,,0,,,55,56
159200,note_on,80,0,4,,,,,,,,,0,,,55,0
159200,note_on,0,0,4,,,,,,,,,0,,,59,60
159240,set_tempo,120,1,0,,,,,,659341,,,,,,,
159280,note_on,0,0,4,,,,,,,,,0,,,55,56
159280,note_on,80,0,4,,,,,,,,,0,,,59,0
159320,set_tempo,80,1,0,,,,,,662983,,,,,,,
159360,note_on,0,0,4,,,,,,,,,0,,,60,66
159360,note_on,80,0,4,,,,,,,,,0,,,55,0
159360,note_on,0,0,3,,,,,,,,,0,,,62,0
159360,note_on,0,0,3,,,,,,,,,0,,,64,69
159360,note_on,480,0,3,,,,,,,,,0,,,65,0
159370,control_change,10,0,4,,,,,,,,,0,64,0,,
159423,control_change,53,0,4,,,,,,,,,0,64,127,,
159440,note_on,0,0,4,,,,,,,,,0,,,55,58
159440,note_on,17,0,4,,,,,,,,,0,,,60,0
159460,set_tempo,140,1,0,,,,,,659341,,,,,,,
159520,note_on,0,0,4,,,,,,,,,0,,,60,60
159520,note_on,80,0,4,,,,,,,,,0,,,55,0
159580,set_tempo,120,1,0,,,,,,655738,,,,,,,
159600,note_on,80,0,4,,,,,,,,,0,,,60,0
159600,note_on,0,0,4,,,,,,,,,0,,,55,51
159680,note_on,80,0,4,,,,,,,,,0,,,55,0
159680,note_on,0,0,4,,,,,,,,,0,,,60,57
159720,set_tempo,140,1,0,,,,,,652174,,,,,,,
159760,note_on,80,0,4,,,,,,,,,0,,,60,0
159760,note_on,0,0,4,,,,,,,,,0,,,55,49
159840,note_on,0,0,4,,,,,,,,,0,,,60,72
159840,note_on,480,0,3,,,,,,,,,0,,,64,0
159840,note_on,1440,0,1,,,,,,,,,0,,,91,81
159840,note_on,0,0,1,,,,,,,,,0,,,79,69
159840,note_on,0,0,3,,,,,,,,,0,,,63,65
159840,set_tempo,120,1,0,,,,,,648649,,,,,,,
159840,note_on,80,0,4,,,,,,,,,0,,,55,0
159871,control_change,31,0,4,,,,,,,,,0,64,0,,
159897,control_change,26,0,4,,,,,,,,,0,64,127,,
159920,note_on,23,0,4,,,,,,,,,0,,,60,0
159920,note_on,0,0,4,,,,,,,,,0,,,55,56
160000,note_on,0,0,4,,,,,,,,,0,,,60,67
160000,note_on,80,0,4,,,,,,,,,0,,,55,0
160080,note_on,0,0,4,,,,,,,,,0,,,55,56
160080,note_on,80,0,4,,,,,,,,,0,,,60,0
160160,note_on,80,0,4,,,,,,,,,0,,,55,0
160160,note_on,0,0,4,,,,,,,,,0,,,60,63
160200,set_tempo,360,1,0,,,,,,746733,,,,,,,
160240,note_on,80,0,4,,,,,,,,,0,,,60,0
160240,note_on,0,0,4,,,,,,,,,0,,,55,52
160320,note_on,0,0,1,,,,,,,,,0,,,78,66
160320,set_tempo,120,1,0,,,,,,660866,,,,,,,
160320,note_on,0,0,3,,,,,,,,,0,,,66,65
160320,note_on,0,0,1,,,,,,,,,0,,,90,78
160320,note_on,0,0,1,,,,,,,,,0,,,91,0
160320,note_on,480,0,3,,,,,,,,,0,,,63,0
160320,note_on,480,0,1,,,,,,,,,0,,,79,0
160320,note_on,80,0,4,,,,,,,,,0,,,63,70
160326,control_change,6,0,4,,,,,,,,,0,64,0,,
160354,control_change,28,0,4,,,,,,,,,0,64,127,,
160400,note_on,0,0,4,,,,,,,,,0,,,60,54
160400,note_on,46,0,4,,,,,,,,,0,,,63,0
160480,note_on,0,0,4,,,,,,,,,0,,,63,63
160480,note_on,80,0,4,,,,,,,,,0,,,60,0
160560,note_on,80,0,4,,,,,,,,,0,,,63,0
160560,note_on,0,0,4,,,,,,,,,0,,,60,54
160640,note_on,80,0,4,,,,,,,,,0,,,60,0
160640,note_on,0,0,4,,,,,,,,,0,,,63,61
160720,note_on,0,0,4,,,,,,,,,0,,,60,50
160720,note_on,80,0,4,,,,,,,,,0,,,63,0
160800,note_on,80,0,4,,,,,,,,,0,,,60,0
160800,note_on,0,0,4,,,,,,,,,0,,,63,58
160880,note_on,0,0,4,,,,,,,,,0,,,60,44
160880,note_on,80,0,4,,,,,,,,,0,,,63,0
160960,note_on,80,0,4,,,,,,,,,0,,,60,0
160960,note_on,0,0,4,,,,,,,,,0,,,63,53
161040,note_on,0,0,1,,,,,,,,,0,,,78,0
161040,note_on,80,0,4,,,,,,,,,0,,,63,0
161040,note_on,720,0,1,,,,,,,,,0,,,90,0
161040,set_tempo,720,1,0,,,,,,680426,,,,,,,
161040,note_on,0,0,4,,,,,,,,,0,,,60,43
161040,note_on,0,0,1,,,,,,,,,0,,,75,64
161040,note_on,0,0,1,,,,,,,,,0,,,87,75
161120,note_on,80,0,4,,,,,,,,,0,,,60,0
161120,note_on,0,0,4,,,,,,,,,0,,,63,50
161200,note_on,0,0,4,,,,,,,,,0,,,60,42
161200,note_on,80,0,4,,,,,,,,,0,,,63,0
161280,note_on,0,0,4,,,,,,,,,0,,,58,51
161280,note_on,0,0,3,,,,,,,,,0,,,62,57
161280,note_on,960,0,3,,,,,,,,,0,,,66,0
161280,note_on,0,0,1,,,,,,,,,0,,,75,0
161280,note_on,0,0,1,,,,,,,,,0,,,74,56
161280,note_on,0,0,4,,,,,,,,,0,,,55,0
161280,note_on,240,0,1,,,,,,,,,0,,,87,0
161280,note_on,0,0,3,,,,,,,,,0,,,67,57
161280,note_on,80,0,4,,,,,,,,,0,,,60,0
161280,note_on,0,0,1,,,,,,,,,0,,,86,67
161280,set_tempo,240,1,0,,,,,,684463,,,,,,,
161294,control_change,14,0,4,,,,,,,,,0,64,0,,
161326,control_change,32,0,4,,,,,,,,,0,64,127,,
161360,note_on,0,0,4,,,,,,,,,0,,,55,44
161360,note_on,34,0,4,,,,,,,,,0,,,58,0
161440,note_on,0,0,4,,,,,,,,,0,,,58,49
161440,note_on,80,0,4,,,,,,,,,0,,,55,0
161520,note_on,80,0,4,,,,,,,,,0,,,58,0
161520,note_on,0,0,4,,,,,,,,,0,,,55,46
161600,note_on,80,0,4,,,,,,,,,0,,,55,0
161600,note_on,0,0,4,,,,,,,,,0,,,58,55
161680,note_on,80,0,4,,,,,,,,,0,,,58,0
161680,note_on,0,0,4,,,,,,,,,0,,,55,52
161760,note_on,0,0,4,,,,,,,,,0,,,59,59
161760,note_on,0,0,3,,,,,,,,,0,,,62,63
161760,note_on,80,0,4,,,,,,,,,0,,,55,0
161760,note_on,0,0,3,,,,,,,,,0,,,65,63
161760,note_on,480,0,1,,,,,,,,,0,,,86,0
161760,note_on,0,0,1,,,,,,,,,0,,,74,0
161760,set_tempo,480,1,0,,,,,,672495,,,,,,,
161760,note_on,0,0,3,,,,,,,,,0,,,62,0
161760,note_on,480,0,3,,,,,,,,,0,,,67,0
161772,control_change,12,0,4,,,,,,,,,0,64,0,,
161780,set_tempo,20,1,0,,,,,,670391,,,,,,,
161795,control_change,23,0,4,,,,,,,,,0,64,127,,
161840,note_on,0,0,4,,,,,,,,,0,,,55,53
161840,note_on,45,0,4,,,,,,,,,0,,,59,0
161880,set_tempo,100,1,0,,,,,,666667,,,,,,,
161920,note_on,80,0,4,,,,,,,,,0,,,55,0
161920,note_on,0,0,4,,,,,,,,,0,,,59,59
161980,set_tempo,100,1,0,,,,,,662983,,,,,,,
162000,note_on,80,0,4,,,,,,,,,0,,,59,0
162000,note_on,0,0,4,,,,,,,,,0,,,55,56
162060,set_tempo,80,1,0,,,,,,659341,,,,,,,
162080,note_on,80,0,4,,,,,,,,,0,,,55,0
162080,note_on,0,0,4,,,,,,,,,0,,,59,60
162160,note_on,0,0,4,,,,,,,,,0,,,55,56
162160,note_on,80,0,4,,,,,,,,,0,,,59,0
162160,set_tempo,100,1,0,,,,,,655738,,,,,,,
162240,set_tempo,80,1,0,,,,,,655738,,,,,,,
162240,note_on,480,0,3,,,,,,,,,0,,,65,0
162240,note_on,80,0,4,,,,,,,,,0,,,55,0
162240,note_on,0,0,4,,,,,,,,,0,,,60,66
162240,note_on,0,0,3,,,,,,,,,0,,,62,0
162240,note_on,0,0,3,,,,,,,,,0,,,64,69
162250,control_change,10,0,4,,,,,,,,,0,64,0,,
162303,control_change,53,0,4,,,,,,,,,0,64,127,,
162320,note_on,17,0,4,,,,,,,,,0,,,60,0
162320,note_on,0,0,4,,,,,,,,,0,,,55,58
162400,note_on,0,0,4,,,,,,,,,0,,,60,60
162400,set_tempo,160,1,0,,,,,,652174,,,,,,,
162400,note_on,80,0,4,,,,,,,,,0,,,55,0
162480,note_on,80,0,4,,,,,,,,,0,,,60,0
162480,note_on,0,0,4,,,,,,,,,0,,,55,51
162560,set_tempo,160,1,0,,,,,,648649,,,,,,,
162560,note_on,0,0,4,,,,,,,,,0,,,60,57
162560,note_on,80,0,4,,,,,,,,,0,,,55,0
162640,note_on,80,0,4,,,,,,,,,0,,,60,0
162640,note_on,0,0,4,,,,,,,,,0,,,55,49
162720,note_on,0,0,4,,,,,,,,,0,,,60,72
162720,note_on,480,0,3,,,,,,,,,0,,,64,0
162720,note_on,80,0,4,,,,,,,,,0,,,55,0
162720,note_on,0,0,1,,,,,,,,,0,,,79,78
162720,note_on,960,0,1,,,,,,,,,0,,,67,66
162720,note_on,0,0,3,,,,,,,,,0,,,63,65
162720,set_tempo,160,1,0,,,,,,645161,,,,,,,
162751,control_change,31,0,4,,,,,,,,,0,64,0,,
162777,control_change,26,0,4,,,,,,,,,0,64,127,,
162800,note_on,0,0,4,,,,,,,,,0,,,55,56
162800,note_on,23,0,4,,,,,,,,,0,,,60,0
162880,note_on,0,0,4,,,,,,,,,0,,,60,67
162880,note_on,80,0,4,,,,,,,,,0,,,55,0
162960,note_on,0,0,4,,,,,,,,,0,,,55,56
162960,note_on,80,0,4,,,,,,,,,0,,,60,0
163040,note_on,0,0,4,,,,,,,,,0,,,60,63
163040,note_on,80,0,4,,,,,,,,,0,,,55,0
163080,set_tempo,360,1,0,,,,,,746733,,,,,,,
163120,note_on,80,0,4,,,,,,,,,0,,,60,0
163120,note_on,0,0,4,,,,,,,,,0,,,55,52
163200,note_on,0,0,1,,,,,,,,,0,,,66,63
163200,note_on,0,0,1,,,,,,,,,0,,,67,0
163200,note_on,80,0,4,,,,,,,,,0,,,57,70
163200,note_on,0,0,1,,,,,,,,,0,,,78,75
163200,note_on,480,0,1,,,,,,,,,0,,,79,0
163200,set_tempo,120,1,0,,,,,,660866,,,,,,,
163200,note_on,480,0,3,,,,,,,,,0,,,63,0
163206,control_change,6,0,4,,,,,,,,,0,64,0,,
163234,control_change,28,0,4,,,,,,,,,0,64,127,,
163280,note_on,46,0,4,,,,,,,,,0,,,57,0
163280,note_on,0,0,4,,,,,,,,,0,,,60,54
163360,note_on,0,0,4,,,,,,,,,0,,,57,63
163360,note_on,80,0,4,,,,,,,,,0,,,60,0
163440,note_on,0,0,4,,,,,,,,,0,,,60,54
163440,note_on,80,0,4,,,,,,,,,0,,,57,0
163520,note_on,80,0,4,,,,,,,,,0,,,60,0
163520,note_on,0,0,4,,,,,,,,,0,,,57,61
163600,note_on,80,0,4,,,,,,,,,0,,,57,0
163600,note_on,0,0,4,,,,,,,,,0,,,60,50
163680,note_on,80,0,4,,,,,,,,,0,,,60,0
163680,note_on,0,0,4,,,,,,,,,0,,,57,58
163760,note_on,80,0,4,,,,,,,,,0,,,57,0
163760,note_on,0,0,4,,,,,,,,,0,,,60,44
163840,note_on,0,0,4,,,,,,,,,0,,,57,53
163840,note_on,80,0,4,,,,,,,,,0,,,60,0
163920,note_on,80,0,4,,,,,,,,,0,,,57,0
163920,note_on,0,0,1,,,,,,,,,0,,,66,0
163920,note_on,0,0,4,,,,,,,,,0,,,60,43
163920,set_tempo,720,1,0,,,,,,680426,,,,,,,
163920,note_on,0,0,1,,,,,,,,,0,,,75,72
163920,note_on,0,0,1,,,,,,,,,0,,,63,61
163920,note_on,720,0,1,,,,,,,,,0,,,78,0
164000,note_on,80,0,4,,,,,,,,,0,,,60,0
164000,note_on,0,0,4,,,,,,,,,0,,,57,50
164080,note_on,0,0,4,,,,,,,,,0,,,60,42
164080,note_on,80,0,4,,,,,,,,,0,,,57,0
164160,note_on,0,0,1,,,,,,,,,0,,,74,67
164160,note_on,0,0,1,,,,,,,,,0,,,63,0
164160,note_on,0,0,1,,,,,,,,,0,,,62,56
164160,set_tempo,240,1,0,,,,,,705467,,,,,,,
164160,note_on,0,0,4,,,,,,,,,0,,,46,51
164160,note_on,960,0,3,,,,,,,,,0,,,55,57
164160,note_on,80,0,4,,,,,,,,,0,,,60,0
164160,note_on,0,0,4,,,,,,,,,0,,,55,0
164160,note_on,240,0,1,,,,,,,,,0,,,75,0
164174,control_change,14,0,4,,,,,,,,,0,64,0,,
164206,control_change,32,0,4,,,,,,,,,0,64,127,,
164240,note_on,0,0,4,,,,,,,,,0,,,43,44
164240,note_on,34,0,4,,,,,,,,,0,,,46,0
164320,note_on,80,0,4,,,,,,,,,0,,,43,0
164320,note_on,0,0,4,,,,,,,,,0,,,46,49
164400,note_on,80,0,4,,,,,,,,,0,,,46,0
164400,note_on,0,0,4,,,,,,,,,0,,,43,46
164480,note_on,0,0,4,,,,,,,,,0,,,46,55
164480,note_on,80,0,4,,,,,,,,,0,,,43,0
164560,note_on,0,0,4,,,,,,,,,0,,,43,52
164560,note_on,80,0,4,,,,,,,,,0,,,46,0
164640,note_on,480,0,1,,,,,,,,,0,,,62,0
164640,note_on,0,0,1,,,,,,,,,0,,,74,0
164640,note_on,0,0,1,,,,,,,,,0,,,67,66
164640,note_on,80,0,4,,,,,,,,,0,,,43,0
164640,note_on,0,0,3,,,,,,,,,0,,,53,63
164640,set_tempo,480,1,0,,,,,,692761,,,,,,,
164640,note_on,0,0,1,,,,,,,,,0,,,62,66
164640,note_on,0,0,4,,,,,,,,,0,,,47,59
164640,note_on,480,0,3,,,,,,,,,0,,,55,0
164640,note_on,0,0,1,,,,,,,,,0,,,74,78
164652,control_change,12,0,4,,,,,,,,,0,64,0,,
164675,control_change,23,0,4,,,,,,,,,0,64,127,,
164720,note_on,45,0,4,,,,,,,,,0,,,47,0
164720,note_on,0,0,4,,,,,,,,,0,,,43,53
164800,note_on,0,0,4,,,,,,,,,0,,,47,59
164800,note_on,80,0,4,,,,,,,,,0,,,43,0
164880,note_on,0,0,4,,,,,,,,,0,,,43,56
164880,note_on,80,0,4,,,,,,,,,0,,,47,0
164960,note_on,80,0,4,,,,,,,,,0,,,43,0
164960,note_on,0,0,4,,,,,,,,,0,,,47,60
165040,note_on,0,0,4,,,,,,,,,0,,,43,56
165040,note_on,80,0,4,,,,,,,,,0,,,47,0
165120,note_on,0,0,4,,,,,,,,,0,,,52,66
165120,note_on,0,0,3,,,,,,,,,0,,,55,69
165120,note_on,0,0,1,,,,,,,,,0,,,67,0
165120,note_on,0,0,1,,,,,,,,,0,,,62,63
165120,note_on,0,0,1,,,,,,,,,0,,,67,63
165120,note_on,0,0,1,,,,,,,,,0,,,74,75
165120,note_on,0,0,1,,,,,,,,,0,,,74,0
165120,note_on,480,0,3,,,,,,,,,0,,,53,0
165120,note_on,480,0,1,,,,,,,,,0,,,62,0
165120,note_on,80,0,4,,,,,,,,,0,,,43,0
165120,set_tempo,480,1,0,,,,,,676437,,,,,,,
165130,control_change,10,0,4,,,,,,,,,0,64,0,,
165183,control_change,53,0,4,,,,,,,,,0,64,127,,
165200,note_on,0,0,4,,,,,,,,,0,,,43,58
165200,note_on,17,0,4,,,,,,,,,0,,,52,0
165240,set_tempo,120,1,0,,,,,,672495,,,,,,,
165280,note_on,0,0,4,,,,,,,,,0,,,52,60
165280,note_on,80,0,4,,,,,,,,,0,,,43,0
165360,note_on,0,0,4,,,,,,,,,0,,,43,52
165360,note_on,80,0,4,,,,,,,,,0,,,52,0
165360,set_tempo,120,1,0,,,,,,668598,,,,,,,
165440,note_on,80,0,4,,,,,,,,,0,,,43,0
165440,note_on,0,0,4,,,,,,,,,0,,,52,58
165480,set_tempo,120,1,0,,,,,,664673,,,,,,,
165520,note_on,80,0,4,,,,,,,,,0,,,52,0
165520,note_on,0,0,4,,,,,,,,,0,,,43,50
165600,note_on,0,0,4,,,,,,,,,0,,,52,58
165600,note_on,80,0,4,,,,,,,,,0,,,43,0
165680,note_on,80,0,4,,,,,,,,,0,,,52,0
165680,note_on,0,0,4,,,,,,,,,0,,,43,46
165760,note_on,80,0,4,,,,,,,,,0,,,43,0
165760,note_on,0,0,4,,,,,,,,,0,,,52,56
165840,note_on,80,0,4,,,,,,,,,0,,,52,0
165840,note_on,0,0,4,,,,,,,,,0,,,43,48
165920,note_on,80,0,4,,,,,,,,,0,,,43,0
165920,note_on,0,0,4,,,,,,,,,0,,,52,56
166000,note_on,80,0,4,,,,,,,,,0,,,52,0
166000,note_on,0,0,4,,,,,,,,,0,,,43,46
166080,note_on,960,0,3,,,,,,,,,0,,,55,0
166080,note_on,80,0,4,,,,,,,,,0,,,43,0
166080,note_on,0,0,4,,,,,,,,,0,,,51,64
166080,note_on,0,0,3,,,,,,,,,0,,,55,71
166080,set_tempo,600,1,0,,,,,,688547,,,,,,,
166086,control_change,6,0,4,,,,,,,,,0,64,0,,
166114,control_change,28,0,4,,,,,,,,,0,64,127,,
166160,note_on,46,0,4,,,,,,,,,0,,,51,0
166160,note_on,0,0,4,,,,,,,,,0,,,43,50
166240,note_on,80,0,4,,,,,,,,,0,,,43,0
166240,note_on,0,0,4,,,,,,,,,0,,,51,59
166320,note_on,0,0,4,,,,,,,,,0,,,43,52
166320,note_on,80,0,4,,,,,,,,,0,,,51,0
166400,note_on,0,0,4,,,,,,,,,0,,,51,61
166400,note_on,80,0,4,,,,,,,,,0,,,43,0
166480,note_on,0,0,4,,,,,,,,,0,,,43,51
166480,note_on,80,0,4,,,,,,,,,0,,,51,0
166560,note_on,0,0,4,,,,,,,,,0,,,51,60
166560,set_tempo,480,1,0,,,,,,714286,,,,,,,
166560,note_on,1440,0,1,,,,,,,,,0,,,62,0
166560,note_on,80,0,4,,,,,,,,,0,,,43,0
166560,note_on,0,0,1,,,,,,,,,0,,,60,70
166560,note_on,0,0,1,,,,,,,,,0,,,67,0
166560,note_on,0,0,1,,,,,,,,,0,,,67,70
166560,note_on,0,0,1,,,,,,,,,0,,,72,82
166560,note_on,0,0,1,,,,,,,,,0,,,74,0
166640,note_on,0,0,4,,,,,,,,,0,,,43,47
166640,note_on,80,0,4,,,,,,,,,0,,,51,0
166720,note_on,0,0,4,,,,,,,,,0,,,51,58
166720,note_on,80,0,4,,,,,,,,,0,,,43,0
166800,note_on,80,0,4,,,,,,,,,0,,,51,0
166800,note_on,0,0,4,,,,,,,,,0,,,43,47
166880,note_on,0,0,4,,,,,,,,,0,,,51,57
166880,note_on,80,0,4,,,,,,,,,0,,,43,0
166960,note_on,0,0,4,,,,,,,,,0,,,43,49
166960,note_on,80,0,4,,,,,,,,,0,,,51,0
166960,set_tempo,400,1,0,,,,,,991736,,,,,,,
167000,note_on,920,0,3,,,,,,,,,0,,,43,49
167020,note_on,20,0,3,,,,,,,,,0,,,50,51
167040,note_on,8640,0,2,,,,,,,,,0,,,59,70
167040,set_tempo,0,1,0,,,,,,714286,,,,,,,
167040,note_on,0,0,1,,,,,,,,,0,,,67,0
167040,note_on,20,0,3,,,,,,,,,0,,,55,0
167040,note_on,80,0,4,,,,,,,,,0,,,43,0
167040,note_on,0,0,3,,,,,,,,,0,,,55,55
167040,note_on,0,0,1,,,,,,,,,0,,,72,0
167040,key_signature,80,1,0,,,,,G,,,,,,,,
167040,note_on,480,0,1,,,,,,,,,0,,,60,0
167040,control_change,0,0,4,,,,,,,,,0,64,0,,
167040,note_on,0,0,2,,,,,,,,,0,,,67,70
167096,control_change,56,0,4,,,,,,,,,0,64,127,,
167120,note_on,80,0,2,,,,,,,,,0,,,67,0
167120,note_on,0,0,2,,,,,,,,,0,,,59,0
167120,note_on,0,0,2,,,,,,,,,0,,,71,57
167200,note_on,0,0,2,,,,,,,,,0,,,59,60
167200,note_on,0,0,2,,,,,,,,,0,,,67,60
167200,note_on,80,0,2,,,,,,,,,0,,,71,0
167280,note_on,240,0,3,,,,,,,,,0,,,55,0
167280,note_on,80,0,2,,,,,,,,,0,,,67,0
167280,note_on,0,0,2,,,,,,,,,0,,,59,0
167280,note_on,0,0,3,,,,,,,,,0,,,50,0
167280,note_on,0,0,2,,,,,,,,,0,,,71,55
167280,note_on,0,0,3,,,,,,,,,0,,,43,0
167360,note_on,0,0,2,,,,,,,,,0,,,67,60
167360,note_on,80,0,2,,,,,,,,,0,,,71,0
167360,note_on,0,0,2,,,,,,,,,0,,,59,60
167440,note_on,0,0,2,,,,,,,,,0,,,59,0
167440,note_on,80,0,2,,,,,,,,,0,,,67,0
167440,note_on,0,0,2,,,,,,,,,0,,,71,56
167520,note_on,240,0,3,,,,,,,,,0,,,43,47
167520,note_on,0,0,3,,,,,,,,,0,,,55,56
167520,note_on,0,0,3,,,,,,,,,0,,,47,47
167520,note_on,0,0,2,,,,,,,,,0,,,59,69
167520,set_tempo,480,1,0,,,,,,701180,,,,,,,
167520,note_on,80,0,2,,,,,,,,,0,,,71,0
167520,note_on,480,0,1,,,,,,,,,0,,,67,83
167600,note_on,0,0,2,,,,,,,,,0,,,71,56
167600,note_on,80,0,2,,,,,,,,,0,,,59,0
167678,note_on,158,0,1,,,,,,,,,0,,,67,0
167680,note_on,0,0,2,,,,,,,,,0,,,59,61
167680,note_on,0,0,2,,,,,,,,,0,,,67,61
167680,note_on,80,0,2,,,,,,,,,0,,,71,0
167760,note_on,0,0,2,,,,,,,,,0,,,59,0
167760,note_on,0,0,2,,,,,,,,,0,,,71,56
167760,note_on,80,0,2,,,,,,,,,0,,,67,0
167840,note_on,0,0,2,,,,,,,,,0,,,67,61
167840,note_on,80,0,2,,,,,,,,,0,,,71,0
167840,note_on,0,0,2,,,,,,,,,0,,,59,61
167920,note_on,0,0,2,,,,,,,,,0,,,59,0
167920,note_on,0,0,2,,,,,,,,,0,,,71,56
167920,note_on,80,0,2,,,,,,,,,0,,,67,0
168000,note_on,480,0,3,,,,,,,,,0,,,55,0
168000,note_on,322,0,1,,,,,,,,,0,,,66,74
168000,note_on,0,0,3,,,,,,,,,0,,,42,48
168000,set_tempo,480,1,0,,,,,,710059,,,,,,,
168000,note_on,0,0,2,,,,,,,,,0,,,59,70
168000,note_on,0,0,2,,,,,,,,,0,,,67,70
168000,note_on,80,0,2,,,,,,,,,0,,,71,0
168000,note_on,0,0,3,,,,,,,,,0,,,43,0
168000,note_on,0,0,3,,,,,,,,,0,,,47,0
168000,note_on,0,0,3,,,,,,,,,0,,,47,48
168000,note_on,0,0,3,,,,,,,,,0,,,54,57
168080,note_on,80,0,2,,,,,,,,,0,,,67,0
168080,note_on,0,0,2,,,,,,,,,0,,,71,56
168080,note_on,0,0,2,,,,,,,,,0,,,59,0
168160,note_on,0,0,2,,,,,,,,,0,,,59,61
168160,note_on,0,0,2,,,,,,,,,0,,,67,61
168160,note_on,80,0,2,,,,,,,,,0,,,71,0
168240,note_on,80,0,2,,,,,,,,,0,,,67,0
168240,note_on,0,0,2,,,,,,,,,0,,,59,0
168240,note_on,0,0,2,,,,,,,,,0,,,71,58
168320,note_on,80,0,2,,,,,,,,,0,,,71,0
168320,note_on,0,0,2,,,,,,,,,0,,,59,62
168320,note_on,0,0,2,,,,,,,,,0,,,67,62
168400,note_on,80,0,2,,,,,,,,,0,,,67,0
168400,note_on,0,0,2,,,,,,,,,0,,,71,57
168400,note_on,0,0,2,,,,,,,,,0,,,59,0
168480,note_on,80,0,2,,,,,,,,,0,,,71,0
168480,note_on,0,0,2,,,,,,,,,0,,,67,72
168480,note_on,480,0,3,,,,,,,,,0,,,54,0
168480,note_on,0,0,3,,,,,,,,,0,,,47,0
168480,note_on,0,0,3,,,,,,,,,0,,,42,0
168480,note_on,0,0,2,,,,,,,,,0,,,59,72
168480,note_on,0,0,3,,,,,,,,,0,,,47,49
168480,note_on,0,0,3,,,,,,,,,0,,,40,49
168480,note_on,0,0,1,,,,,,,,,0,,,64,72
168480,set_tempo,480,1,0,,,,,,710059,,,,,,,
168480,note_on,480,0,1,,,,,,,,,0,,,66,0
168480,note_on,0,0,3,,,,,,,,,0,,,52,58
168560,note_on,0,0,2,,,,,,,,,0,,,71,58
168560,note_on,0,0,2,,,,,,,,,0,,,59,0
168560,note_on,80,0,2,,,,,,,,,0,,,67,0
168640,note_on,0,0,2,,,,,,,,,0,,,59,63
168640,note_on,0,0,2,,,,,,,,,0,,,67,63
168640,note_on,80,0,2,,,,,,,,,0,,,71,0
168680,set_tempo,200,1,0,,,,,,714286,,,,,,,
168720,note_on,0,0,2,,,,,,,,,0,,,59,0
168720,note_on,0,0,2,,,,,,,,,0,,,71,57
168720,note_on,80,0,2,,,,,,,,,0,,,67,0
168800,note_on,0,0,2,,,,,,,,,0,,,59,63
168800,note_on,80,0,2,,,,,,,,,0,,,71,0
168800,note_on,0,0,2,,,,,,,,,0,,,67,63
168880,note_on,80,0,2,,,,,,,,,0,,,67,0
168880,set_tempo,200,1,0,,,,,,718563,,,,,,,
168880,note_on,0,0,2,,,,,,,,,0,,,71,59
168880,note_on,0,0,2,,,,,,,,,0,,,59,0
168960,note_on,80,0,2,,,,,,,,,0,,,71,0
168960,note_on,0,0,2,,,,,,,,,0,,,67,73
168960,note_on,0,0,3,,,,,,,,,0,,,38,50
168960,note_on,0,0,2,,,,,,,,,0,,,59,73
168960,note_on,0,0,3,,,,,,,,,0,,,50,59
168960,note_on,0,0,3,,,,,,,,,0,,,47,50
168960,note_on,0,0,3,,,,,,,,,0,,,47,0
168960,note_on,0,0,3,,,,,,,,,0,,,40,0
168960,note_on,480,0,3,,,,,,,,,0,,,52,0
168960,note_on,0,0,1,,,,,,,,,0,,,62,73
168960,note_on,480,0,1,,,,,,,,,0,,,64,0
169040,note_on,80,0,2,,,,,,,,,0,,,67,0
169040,note_on,0,0,2,,,,,,,,,0,,,71,59
169040,set_tempo,160,1,0,,,,,,722892,,,,,,,
169040,note_on,0,0,2,,,,,,,,,0,,,59,0
169120,note_on,0,0,2,,,,,,,,,0,,,67,63
169120,note_on,0,0,2,,,,,,,,,0,,,59,63
169120,note_on,80,0,2,,,,,,,,,0,,,71,0
169200,note_on,0,0,2,,,,,,,,,0,,,71,58
169200,note_on,0,0,2,,,,,,,,,0,,,59,0
169200,note_on,80,0,2,,,,,,,,,0,,,67,0
169240,set_tempo,200,1,0,,,,,,727273,,,,,,,
169280,note_on,0,0,2,,,,,,,,,0,,,59,64
169280,note_on,0,0,2,,,,,,,,,0,,,67,64
169280,note_on,80,0,2,,,,,,,,,0,,,71,0
169360,note_on,80,0,2,,,,,,,,,0,,,67,0
169360,note_on,0,0,2,,,,,,,,,0,,,71,59
169360,note_on,0,0,2,,,,,,,,,0,,,59,0
169400,set_tempo,160,1,0,,,,,,731707,,,,,,,
169440,note_on,0,0,2,,,,,,,,,0,,,67,72
169440,note_on,480,0,3,,,,,,,,,0,,,50,0
169440,note_on,480,0,1,,,,,,,,,0,,,62,0
169440,set_tempo,40,1,0,,,,,,751597,,,,,,,
169440,note_on,0,0,3,,,,,,,,,0,,,35,51
169440,note_on,0,0,3,,,,,,,,,0,,,38,0
169440,note_on,0,0,3,,,,,,,,,0,,,47,0
169440,note_on,0,0,3,,,,,,,,,0,,,47,60
169440,note_on,80,0,2,,,,,,,,,0,,,71,0
169440,note_on,0,0,1,,,,,,,,,0,,,59,76
169520,note_on,0,0,2,,,,,,,,,0,,,71,59
169520,note_on,80,0,2,,,,,,,,,0,,,67,0
169598,note_on,158,0,1,,,,,,,,,0,,,59,0
169600,note_on,0,0,2,,,,,,,,,0,,,67,64
169600,note_on,80,0,2,,,,,,,,,0,,,71,0
169600,note_on,0,0,2,,,,,,,,,0,,,59,64
169680,note_on,0,0,2,,,,,,,,,0,,,71,60
169680,note_on,80,0,2,,,,,,,,,0,,,67,0
169680,note_on,0,0,2,,,,,,,,,0,,,59,0
169760,note_on,0,0,2,,,,,,,,,0,,,67,64
169760,note_on,0,0,2,,,,,,,,,0,,,59,64
169760,note_on,80,0,2,,,,,,,,,0,,,71,0
169840,note_on,0,0,2,,,,,,,,,0,,,59,0
169840,note_on,80,0,2,,,,,,,,,0,,,67,0
169840,note_on,0,0,2,,,,,,,,,0,,,71,61
169920,note_on,322,0,1,,,,,,,,,0,,,55,73
169920,note_on,80,0,2,,,,,,,,,0,,,71,0
169920,set_tempo,480,1,0,,,,,,731707,,,,,,,
169920,note_on,0,0,3,,,,,,,,,0,,,31,50
169920,note_on,0,0,3,,,,,,,,,0,,,35,0
169920,note_on,0,0,3,,,,,,,,,0,,,35,50
169920,note_on,0,0,3,,,,,,,,,0,,,43,59
169920,note_on,480,0,3,,,,,,,,,0,,,47,0
169931,control_change,2835,0,4,,,,,,,,,0,64,0,,
169973,control_change,42,0,4,,,,,,,,,0,64,127,,
170000,note_on,80,0,2,,,,,,,,,0,,,59,61
170078,note_on,158,0,1,,,,,,,,,0,,,55,0
170080,note_on,0,0,2,,,,,,,,,0,,,55,66
170080,note_on,80,0,2,,,,,,,,,0,,,59,0
170160,note_on,0,0,2,,,,,,,,,0,,,59,61
170160,note_on,80,0,2,,,,,,,,,0,,,55,0
170240,note_on,80,0,2,,,,,,,,,0,,,59,0
170240,note_on,0,0,2,,,,,,,,,0,,,55,66
170320,note_on,0,0,2,,,,,,,,,0,,,59,61
170320,note_on,80,0,2,,,,,,,,,0,,,55,0
170400,note_on,0,0,2,,,,,,,,,0,,,55,74
170400,note_on,322,0,1,,,,,,,,,0,,,54,74
170400,note_on,80,0,2,,,,,,,,,0,,,59,0
170400,note_on,0,0,3,,,,,,,,,0,,,35,0
170400,note_on,0,0,3,,,,,,,,,0,,,31,51
170400,note_on,0,0,3,,,,,,,,,0,,,31,0
170400,set_tempo,480,1,0,,,,,,727273,,,,,,,
170400,note_on,480,0,3,,,,,,,,,0,,,43,0
170400,note_on,0,0,3,,,,,,,,,0,,,35,51
170400,note_on,0,0,3,,,,,,,,,0,,,42,61
170480,note_on,80,0,2,,,,,,,,,0,,,55,0
170480,set_tempo,80,1,0,,,,,,731707,,,,,,,
170480,note_on,0,0,2,,,,,,,,,0,,,59,62
170560,note_on,0,0,2,,,,,,,,,0,,,55,66
170560,set_tempo,80,1,0,,,,,,736196,,,,,,,
170560,note_on,80,0,2,,,,,,,,,0,,,59,0
170640,note_on,0,0,2,,,,,,,,,0,,,59,62
170640,set_tempo,80,1,0,,,,,,740741,,,,,,,
170640,note_on,80,0,2,,,,,,,,,0,,,55,0
170720,set_tempo,80,1,0,,,,,,745342,,,,,,,
170720,note_on,0,0,2,,,,,,,,,0,,,55,67
170720,note_on,80,0,2,,,,,,,,,0,,,59,0
170800,note_on,80,0,2,,,,,,,,,0,,,55,0
170800,note_on,0,0,2,,,,,,,,,0,,,59,61
170800,set_tempo,80,1,0,,,,,,750000,,,,,,,
170880,note_on,80,0,2,,,,,,,,,0,,,59,0
170880,note_on,480,0,3,,,,,,,,,0,,,42,0
170880,note_on,480,0,1,,,,,,,,,0,,,54,0
170880,set_tempo,80,1,0,,,,,,754717,,,,,,,
170880,note_on,0,0,3,,,,,,,,,0,,,31,0
170880,note_on,0,0,1,,,,,,,,,0,,,52,76
170880,note_on,0,0,2,,,,,,,,,0,,,55,76
170880,note_on,0,0,3,,,,,,,,,0,,,35,0
170880,note_on,0,0,3,,,,,,,,,0,,,35,53
170880,note_on,0,0,3,,,,,,,,,0,,,40,63
170880,note_on,0,0,3,,,,,,,,,0,,,31,53
170960,set_tempo,80,1,0,,,,,,759494,,,,,,,
170960,note_on,0,0,2,,,,,,,,,0,,,59,62
170960,note_on,80,0,2,,,,,,,,,0,,,55,0
171040,note_on,0,0,2,,,,,,,,,0,,,55,67
171040,note_on,80,0,2,,,,,,,,,0,,,59,0
171040,set_tempo,80,1,0,,,,,,764331,,,,,,,
171120,note_on,0,0,2,,,,,,,,,0,,,59,61
171120,set_tempo,80,1,0,,,,,,769231,,,,,,,
171120,note_on,80,0,2,,,,,,,,,0,,,55,0
171200,note_on,0,0,2,,,,,,,,,0,,,55,67
171200,set_tempo,80,1,0,,,,,,774194,,,,,,,
171200,note_on,80,0,2,,,,,,,,,0,,,59,0
171280,note_on,0,0,2,,,,,,,,,0,,,59,62
171280,set_tempo,80,1,0,,,,,,779221,,,,,,,
171280,note_on,80,0,2,,,,,,,,,0,,,55,0
171360,note_on,0,0,3,,,,,,,,,0,,,35,55
171360,note_on,480,0,1,,,,,,,,,0,,,52,0
171360,note_on,0,0,3,,,,,,,,,0,,,35,0
171360,note_on,80,0,2,,,,,,,,,0,,,59,0
171360,note_on,0,0,3,,,,,,,,,0,,,31,55
171360,note_on,0,0,3,,,,,,,,,0,,,31,0
171360,note_on,0,0,3,,,,,,,,,0,,,39,65
171360,note_on,0,0,1,,,,,,,,,0,,,51,77
171360,note_on,480,0,3,,,,,,,,,0,,,40,0
171360,note_on,0,0,2,,,,,,,,,0,,,55,78
171360,set_tempo,80,1,0,,,,,,784314,,,,,,,
171440,note_on,0,0,2,,,,,,,,,0,,,59,62
171440,set_tempo,80,1,0,,,,,,789474,,,,,,,
171440,note_on,80,0,2,,,,,,,,,0,,,55,0
171520,set_tempo,80,1,0,,,,,,794702,,,,,,,
171520,note_on,0,0,2,,,,,,,,,0,,,55,68
171520,note_on,80,0,2,,,,,,,,,0,,,59,0
171600,set_tempo,80,1,0,,,,,,800000,,,,,,,
171600,note_on,0,0,2,,,,,,,,,0,,,59,63
171600,note_on,80,0,2,,,,,,,,,0,,,55,0
171680,note_on,0,0,2,,,,,,,,,0,,,55,69
171680,set_tempo,80,1,0,,,,,,805369,,,,,,,
171680,note_on,80,0,2,,,,,,,,,0,,,59,0
171760,note_on,0,0,2,,,,,,,,,0,,,59,63
171760,note_on,80,0,2,,,,,,,,,0,,,55,0
171760,set_tempo,80,1,0,,,,,,810811,,,,,,,
171840,set_tempo,80,1,0,,,,,,869565,,,,,,,
171840,note_on,0,0,3,,,,,,,,,0,,,31,57
171840,note_on,0,0,3,,,,,,,,,0,,,35,0
171840,note_on,0,0,3,,,,,,,,,0,,,35,57
171840,note_on,0,0,1,,,,,,,,,0,,,50,79
171840,note_on,0,0,3,,,,,,,,,0,,,38,68
171840,note_on,480,0,1,,,,,,,,,0,,,51,0
171840,note_on,0,0,2,,,,,,,,,0,,,55,78
171840,note_on,480,0,3,,,,,,,,,0,,,39,0
171840,note_on,80,0,2,,,,,,,,,0,,,59,0
171840,note_on,0,0,3,,,,,,,,,0,,,31,0
171920,note_on,0,0,2,,,,,,,,,0,,,59,63
171920,note_on,80,0,2,,,,,,,,,0,,,55,0
172000,note_on,80,0,2,,,,,,,,,0,,,59,0
172000,note_on,0,0,2,,,,,,,,,0,,,55,69
172080,note_on,0,0,2,,,,,,,,,0,,,59,63
172080,note_on,80,0,2,,,,,,,,,0,,,55,0
172160,note_on,80,0,2,,,,,,,,,0,,,59,0
172160,note_on,0,0,2,,,,,,,,,0,,,55,69
172240,note_on,80,0,2,,,,,,,,,0,,,55,0
172240,note_on,0,0,2,,,,,,,,,0,,,59,64
172320,note_on,480,0,1,,,,,,,,,0,,,50,0
172320,note_on,480,0,3,,,,,,,,,0,,,38,0
172320,set_tempo,480,1,0,,,,,,923077,,,,,,,
172320,note_on,0,0,2,,,,,,,,,0,,,55,81
172320,note_on,0,0,3,,,,,,,,,0,,,35,0
172320,note_on,80,0,2,,,,,,,,,0,,,59,0
172320,note_on,0,0,1,,,,,,,,,0,,,47,81
172320,note_on,0,0,3,,,,,,,,,0,,,31,0
172320,note_on,0,0,3,,,,,,,,,0,,,35,70
172320,note_on,0,0,3,,,,,,,,,0,,,31,59
172360,set_tempo,40,1,0,,,,,,923077,,,,,,,
172400,note_on,80,0,2,,,,,,,,,0,,,55,0
172400,set_tempo,40,1,0,,,,,,937500,,,,,,,
172400,note_on,0,0,2,,,,,,,,,0,,,59,65
172440,set_tempo,40,1,0,,,,,,960000,,,,,,,
172480,note_on,80,0,2,,,,,,,,,0,,,59,0
172480,note_on,0,0,2,,,,,,,,,0,,,55,70
172480,set_tempo,40,1,0,,,,,,983607,,,,,,,
172520,set_tempo,40,1,0,,,,,,1000000,,,,,,,
172560,note_on,80,0,2,,,,,,,,,0,,,55,0
172560,set_tempo,40,1,0,,,,,,1025641,,,,,,,
172560,note_on,0,0,2,,,,,,,,,0,,,59,64
172600,set_tempo,40,1,0,,,,,,1052632,,,,,,,
172620,set_tempo,20,1,0,,,,,,1043478,,,,,,,
172640,note_on,80,0,2,,,,,,,,,0,,,59,0
172640,note_on,0,0,2,,,,,,,,,0,,,55,70
172640,set_tempo,20,1,0,,,,,,1071429,,,,,,,
172660,set_tempo,20,1,0,,,,,,1100917,,,,,,,
172680,set_tempo,20,1,0,,,,,,1132075,,,,,,,
172700,set_tempo,20,1,0,,,,,,1165049,,,,,,,
172720,set_tempo,20,1,0,,,,,,1200000,,,,,,,
172720,note_on,0,0,2,,,,,,,,,0,,,59,66
172720,note_on,80,0,2,,,,,,,,,0,,,55,0
172740,set_tempo,20,1,0,,,,,,1237113,,,,,,,
172760,set_tempo,20,1,0,,,,,,1276596,,,,,,,
172780,set_tempo,20,1,0,,,,,,1318681,,,,,,,
172800,end_of_track,0,1,4,,,,,,,,,,,,,
172800,marker,0,1,0,,,,,,,,,,,,,
172800,note_on,480,0,1,,,,,,,,,0,,,47,0
172800,control_change,2827,0,4,,,,,,,,,0,64,0,,
172800,note_on,80,0,2,,,,,,,,,0,,,59,0
172800,control_change,0,0,1,,,,,,,,,0,91,127,,
172800,end_of_track,0,1,2,,,,,,,,,,,,,
172800,text,0,1,1,,,,,,,,,,,,,
172800,note_on,0,0,3,,,,,,,,,0,,,31,89
172800,note_on,0,0,3,,,,,,,,,0,,,31,0
172800,note_on,480,0,3,,,,,,,,,0,,,35,0
172800,set_tempo,20,1,0,,,,,,1363636,,,,,,,
172843,control_change,43,0,3,,,,,,,,,0,64,127,,
173280,set_tempo,480,1,0,,,,,,1379310,,,,,,,
173280,note_on,437,0,3,,,,,,,,,0,,,31,0
173280,note_on,0,0,3,,,,,,,,,0,,,35,62
173340,note_on,60,0,3,,,,,,,,,0,,,35,0
173340,note_on,0,0,3,,,,,,,,,0,,,38,65
173360,set_tempo,80,1,0,,,,,,1363636,,,,,,,
173400,note_on,0,0,3,,,,,,,,,0,,,43,68
173400,note_on,60,0,3,,,,,,,,,0,,,38,0
173400,set_tempo,40,1,0,,,,,,1348315,,,,,,,
173440,set_tempo,40,1,0,,,,,,1212121,,,,,,,
173452,set_tempo,12,1,0,,,,,,1200000,,,,,,,
173460,note_on,0,0,3,,,,,,,,,0,,,47,71
173460,note_on,60,0,3,,,,,,,,,0,,,43,0
173464,set_tempo,12,1,0,,,,,,1176471,,,,,,,
173480,set_tempo,16,1,0,,,,,,1165049,,,,,,,
173492,set_tempo,12,1,0,,,,,,1142857,,,,,,,
173504,set_tempo,12,1,0,,,,,,1121495,,,,,,,
173520,note_on,60,0,3,,,,,,,,,0,,,47,0
173520,set_tempo,16,1,0,,,,,,1250000,,,,,,,
173520,note_on,0,0,3,,,,,,,,,0,,,50,74
173532,set_tempo,12,1,0,,,,,,1090909,,,,,,,
173572,set_tempo,40,1,0,,,,,,1081081,,,,,,,
173580,note_on,0,0,3,,,,,,,,,0,,,55,76
173580,note_on,60,0,3,,,,,,,,,0,,,50,0
173600,set_tempo,28,1,0,,,,,,1071429,,,,,,,
173624,set_tempo,24,1,0,,,,,,1061947,,,,,,,
173640,note_on,0,0,3,,,,,,,,,0,,,59,76
173640,note_on,60,0,3,,,,,,,,,0,,,55,0
173652,set_tempo,28,1,0,,,,,,1052632,,,,,,,
173680,set_tempo,28,1,0,,,,,,1043478,,,,,,,
173700,note_on,60,0,3,,,,,,,,,0,,,59,0
173700,note_on,0,0,3,,,,,,,,,0,,,62,79
173704,set_tempo,24,1,0,,,,,,1034483,,,,,,,
173732,set_tempo,28,1,0,,,,,,1025641,,,,,,,
173760,set_tempo,28,1,0,,,,,,1428571,,,,,,,
173760,note_on,0,0,3,,,,,,,,,0,,,67,86
173760,note_on,60,0,3,,,,,,,,,0,,,62,0
173773,control_change,13,0,3,,,,,,,,,0,64,0,,
173931,control_change,158,0,3,,,,,,,,,0,64,127,,
174224,set_tempo,464,1,0,,,,,,1428571,,,,,,,
174252,set_tempo,28,1,0,,,,,,1411765,,,,,,,
174264,set_tempo,12,1,0,,,,,,1395349,,,,,,,
174280,set_tempo,16,1,0,,,,,,1379310,,,,,,,
174292,set_tempo,12,1,0,,,,,,1363636,,,,,,,
174300,note_on,0,0,3,,,,,,,,,0,,,66,67
174300,note_on,369,0,3,,,,,,,,,0,,,67,0
174304,set_tempo,12,1,0,,,,,,1348315,,,,,,,
174320,set_tempo,16,1,0,,,,,,1333333,,,,,,,
174332,set_tempo,12,1,0,,,,,,1318681,,,,,,,
174344,set_tempo,12,1,0,,,,,,1304348,,,,,,,
174360,note_on,0,0,3,,,,,,,,,0,,,64,68
174360,set_tempo,16,1,0,,,,,,1290323,,,,,,,
174360,note_on,60,0,3,,,,,,,,,0,,,66,0
174372,set_tempo,12,1,0,,,,,,1276596,,,,,,,
174384,set_tempo,12,1,0,,,,,,1263158,,,,,,,
174400,set_tempo,16,1,0,,,,,,1250000,,,,,,,
174412,set_tempo,12,1,0,,,,,,1237113,,,,,,,
174420,note_on,0,0,3,,,,,,,,,0,,,62,69
174420,note_on,60,0,3,,,,,,,,,0,,,64,0
174424,set_tempo,12,1,0,,,,,,1224490,,,,,,,
174440,set_tempo,16,1,0,,,,,,1212121,,,,,,,
174452,set_tempo,12,1,0,,,,,,1200000,,,,,,,
174464,set_tempo,12,1,0,,,,,,1188119,,,,,,,
174480,note_on,60,0,3,,,,,,,,,0,,,62,0
174480,note_on,0,0,3,,,,,,,,,0,,,60,69
174480,set_tempo,16,1,0,,,,,,1176471,,,,,,,
174492,set_tempo,12,1,0,,,,,,1165049,,,,,,,
174504,set_tempo,12,1,0,,,,,,1153846,,,,,,,
174520,set_tempo,16,1,0,,,,,,1142857,,,,,,,
174532,set_tempo,12,1,0,,,,,,1132075,,,,,,,
174540,note_on,0,0,3,,,,,,,,,0,,,59,70
174540,note_on,60,0,3,,,,,,,,,0,,,60,0
174544,set_tempo,12,1,0,,,,,,1121495,,,,,,,
174560,set_tempo,16,1,0,,,,,,1111111,,,,,,,
174572,set_tempo,12,1,0,,,,,,1100917,,,,,,,
174584,set_tempo,12,1,0,,,,,,1090909,,,,,,,
174600,set_tempo,16,1,0,,,,,,1081081,,,,,,,
174600,note_on,0,0,3,,,,,,,,,0,,,57,71
174600,note_on,60,0,3,,,,,,,,,0,,,59,0
174612,set_tempo,12,1,0,,,,,,1071429,,,,,,,
174624,set_tempo,12,1,0,,,,,,1061947,,,,,,,
174640,set_tempo,16,1,0,,,,,,1052632,,,,,,,
174652,set_tempo,12,1,0,,,,,,1043478,,,,,,,
174660,note_on,0,0,3,,,,,,,,,0,,,55,71
174660,note_on,60,0,3,,,,,,,,,0,,,57,0
174664,set_tempo,12,1,0,,,,,,1034483,,,,,,,
174680,set_tempo,16,1,0,,,,,,1025641,,,,,,,
174692,set_tempo,12,1,0,,,,,,1016949,,,,,,,
174700,set_tempo,8,1,0,,,,,,1008403,,,,,,,
174720,note_on,60,0,3,,,,,,,,,0,,,55,0
174720,set_tempo,20,1,0,,,,,,1000000,,,,,,,
174720,note_on,0,0,3,,,,,,,,,0,,,54,72
174740,set_tempo,20,1,0,,,,,,983607,,,,,,,
174760,set_tempo,20,1,0,,,,,,975610,,,,,,,
174780,note_on,0,0,3,,,,,,,,,0,,,52,70
174780,note_on,60,0,3,,,,,,,,,0,,,54,0
174780,set_tempo,20,1,0,,,,,,960000,,,,,,,
174800,set_tempo,20,1,0,,,,,,952381,,,,,,,
174820,set_tempo,20,1,0,,,,,,937500,,,,,,,
174840,set_tempo,20,1,0,,,,,,930233,,,,,,,
174840,note_on,0,0,3,,,,,,,,,0,,,50,71
174840,note_on,60,0,3,,,,,,,,,0,,,52,0
174860,set_tempo,20,1,0,,,,,,916031,,,,,,,
174880,set_tempo,20,1,0,,,,,,909091,,,,,,,
174900,set_tempo,20,1,0,,,,,,895522,,,,,,,
174900,note_on,60,0,3,,,,,,,,,0,,,50,0
174900,note_on,0,0,3,,,,,,,,,0,,,48,72
174920,set_tempo,20,1,0,,,,,,888889,,,,,,,
174940,set_tempo,20,1,0,,,,,,875912,,,,,,,
174960,note_on,0,0,3,,,,,,,,,0,,,47,72
174960,note_on,60,0,3,,,,,,,,,0,,,48,0
174960,set_tempo,20,1,0,,,,,,863309,,,,,,,
174980,set_tempo,20,1,0,,,,,,857143,,,,,,,
175000,set_tempo,20,1,0,,,,,,845070,,,,,,,
175020,note_on,60,0,3,,,,,,,,,0,,,47,0
175020,note_on,0,0,3,,,,,,,,,0,,,45,73
175020,set_tempo,20,1,0,,,,,,839161,,,,,,,
175040,set_tempo,20,1,0,,,,,,827586,,,,,,,
175060,set_tempo,20,1,0,,,,,,821918,,,,,,,
175080,note_on,60,0,3,,,,,,,,,0,,,45,0
175080,set_tempo,20,1,0,,,,,,810811,,,,,,,
175080,note_on,0,0,3,,,,,,,,,0,,,43,74
175100,set_tempo,20,1,0,,,,,,805369,,,,,,,
175120,set_tempo,20,1,0,,,,,,794702,,,,,,,
175140,note_on,60,0,3,,,,,,,,,0,,,43,0
175140,note_on,0,0,3,,,,,,,,,0,,,42,75
175140,set_tempo,20,1,0,,,,,,789474,,,,,,,
175160,set_tempo,20,1,0,,,,,,779221,,,,,,,
175180,set_tempo,20,1,0,,,,,,769231,,,,,,,
175200,note_on,60,0,3,,,,,,,,,0,,,42,0
175200,note_on,0,0,3,,,,,,,,,0,,,40,76
175260,note_on,60,0,3,,,,,,,,,0,,,40,0
175260,note_on,0,0,3,,,,,,,,,0,,,38,77
175280,set_tempo,100,1,0,,,,,,764331,,,,,,,
175320,note_on,60,0,3,,,,,,,,,0,,,38,0
175320,note_on,0,0,3,,,,,,,,,0,,,36,78
175380,note_on,60,0,3,,,,,,,,,0,,,36,0
175380,note_on,0,0,3,,,,,,,,,0,,,35,78
175412,set_tempo,132,1,0,,,,,,759494,,,,,,,
175440,note_on,60,0,3,,,,,,,,,0,,,35,0
175440,note_on,0,0,3,,,,,,,,,0,,,33,79
175500,note_on,60,0,3,,,,,,,,,0,,,33,0
175500,note_on,0,0,3,,,,,,,,,0,,,31,83
175500,note_on,2700,0,1,,,,,,,,,0,,,47,88
175517,control_change,17,0,3,,,,,,,,,0,64,0,,
175544,set_tempo,132,1,0,,,,,,754717,,,,,,,
175566,control_change,49,0,3,,,,,,,,,0,64,127,,
175680,time_signature,136,1,0,8,4,24,8,,,,,,,,,
175680,set_tempo,0,1,0,,,,,,1290323,,,,,,,
176144,set_tempo,464,1,0,,,,,,1016949,,,,,,,
176160,set_tempo,16,1,0,,,,,,1237113,,,,,,,
176172,set_tempo,12,1,0,,,,,,975610,,,,,,,
176184,set_tempo,12,1,0,,,,,,960000,,,,,,,
176200,set_tempo,16,1,0,,,,,,937500,,,,,,,
176212,set_tempo,12,1,0,,,,,,923077,,,,,,,
176224,set_tempo,12,1,0,,,,,,902256,,,,,,,
176240,note_on,740,0,1,,,,,,,,,0,,,47,0
176240,note_on,0,0,3,,,,,,,,,0,,,35,60
176240,note_on,674,0,3,,,,,,,,,0,,,31,0
176240,set_tempo,16,1,0,,,,,,888889,,,,,,,
176240,note_on,0,0,1,,,,,,,,,0,,,50,67
176252,set_tempo,12,1,0,,,,,,869565,,,,,,,
176264,set_tempo,12,1,0,,,,,,851064,,,,,,,
176280,set_tempo,16,1,0,,,,,,839161,,,,,,,
176292,set_tempo,12,1,0,,,,,,827586,,,,,,,
176304,set_tempo,12,1,0,,,,,,816327,,,,,,,
176320,note_on,80,0,3,,,,,,,,,0,,,35,0
176320,note_on,0,0,1,,,,,,,,,0,,,55,69
176320,note_on,0,0,3,,,,,,,,,0,,,38,62
176320,note_on,80,0,1,,,,,,,,,0,,,50,0
176320,set_tempo,16,1,0,,,,,,805369,,,,,,,
176332,set_tempo,12,1,0,,,,,,794702,,,,,,,
176344,set_tempo,12,1,0,,,,,,784314,,,,,,,
176360,set_tempo,16,1,0,,,,,,769231,,,,,,,
176372,set_tempo,12,1,0,,,,,,759494,,,,,,,
176384,set_tempo,12,1,0,,,,,,750000,,,,,,,
176400,note_on,80,0,3,,,,,,,,,0,,,38,0
176400,set_tempo,16,1,0,,,,,,740741,,,,,,,
176400,note_on,0,0,1,,,,,,,,,0,,,59,70
176400,note_on,80,0,1,,,,,,,,,0,,,55,0
176400,note_on,0,0,3,,,,,,,,,0,,,43,63
176412,set_tempo,12,1,0,,,,,,731707,,,,,,,
176424,set_tempo,12,1,0,,,,,,722892,,,,,,,
176440,set_tempo,16,1,0,,,,,,710059,,,,,,,
176452,set_tempo,12,1,0,,,,,,701754,,,,,,,
176464,set_tempo,12,1,0,,,,,,693642,,,,,,,
176480,note_on,80,0,3,,,,,,,,,0,,,43,0
176480,note_on,80,0,1,,,,,,,,,0,,,59,0
176480,note_on,0,0,1,,,,,,,,,0,,,62,72
176480,note_on,0,0,3,,,,,,,,,0,,,47,65
176480,set_tempo,16,1,0,,,,,,685714,,,,,,,
176492,set_tempo,12,1,0,,,,,,677966,,,,,,,
176504,set_tempo,12,1,0,,,,,,670391,,,,,,,
176520,set_tempo,16,1,0,,,,,,659341,,,,,,,
176532,set_tempo,12,1,0,,,,,,655738,,,,,,,
176540,set_tempo,8,1,0,,,,,,648649,,,,,,,
176560,note_on,0,0,1,,,,,,,,,0,,,67,73
176560,note_on,0,0,3,,,,,,,,,0,,,50,66
176560,note_on,80,0,1,,,,,,,,,0,,,62,0
176560,note_on,80,0,3,,,,,,,,,0,,,47,0
176580,set_tempo,40,1,0,,,,,,645161,,,,,,,
176600,set_tempo,20,1,0,,,,,,641711,,,,,,,
176640,note_on,0,0,1,,,,,,,,,0,,,71,75
176640,note_on,80,0,1,,,,,,,,,0,,,67,0
176640,note_on,80,0,3,,,,,,,,,0,,,50,0
176640,set_tempo,40,1,0,,,,,,638298,,,,,,,
176640,note_on,0,0,3,,,,,,,,,0,,,55,67
176660,set_tempo,20,1,0,,,,,,634921,,,,,,,
176680,set_tempo,20,1,0,,,,,,631579,,,,,,,
176720,note_on,80,0,3,,,,,,,,,0,,,55,0
176720,note_on,0,0,1,,,,,,,,,0,,,74,76
176720,note_on,80,0,1,,,,,,,,,0,,,71,0
176720,note_on,0,0,3,,,,,,,,,0,,,59,69
176720,set_tempo,40,1,0,,,,,,628272,,,,,,,
176740,set_tempo,20,1,0,,,,,,625000,,,,,,,
176780,set_tempo,40,1,0,,,,,,621762,,,,,,,
176800,note_on,80,0,1,,,,,,,,,0,,,74,0
176800,set_tempo,20,1,0,,,,,,618557,,,,,,,
176800,note_on,0,0,3,,,,,,,,,0,,,62,70
176800,note_on,0,0,1,,,,,,,,,0,,,79,78
176800,note_on,80,0,3,,,,,,,,,0,,,59,0
176820,set_tempo,20,1,0,,,,,,615385,,,,,,,
176860,set_tempo,40,1,0,,,,,,612245,,,,,,,
176880,note_on,80,0,1,,,,,,,,,0,,,79,0
176880,set_tempo,20,1,0,,,,,,609137,,,,,,,
176880,note_on,80,0,3,,,,,,,,,0,,,62,0
176880,note_on,0,0,3,,,,,,,,,0,,,67,72
176880,note_on,0,0,1,,,,,,,,,0,,,83,79
176920,set_tempo,40,1,0,,,,,,606061,,,,,,,
176940,set_tempo,20,1,0,,,,,,603015,,,,,,,
176960,note_on,80,0,3,,,,,,,,,0,,,67,0
176960,note_on,0,0,1,,,,,,,,,0,,,86,81
176960,set_tempo,20,1,0,,,,,,600000,,,,,,,
176960,note_on,0,0,3,,,,,,,,,0,,,71,73
176960,note_on,80,0,1,,,,,,,,,0,,,83,0
177000,set_tempo,40,1,0,,,,,,597015,,,,,,,
177020,set_tempo,20,1,0,,,,,,594059,,,,,,,
177040,note_on,80,0,1,,,,,,,,,0,,,86,0
177040,note_on,0,0,1,,,,,,,,,0,,,91,86
177040,note_on,0,0,3,,,,,,,,,0,,,74,75
177040,note_on,80,0,3,,,,,,,,,0,,,71,0
177060,set_tempo,40,1,0,,,,,,591133,,,,,,,
177080,set_tempo,20,1,0,,,,,,588235,,,,,,,
177100,set_tempo,20,1,0,,,,,,585366,,,,,,,
177120,note_on,80,0,1,,,,,,,,,0,,,91,0
177120,note_on,80,0,3,,,,,,,,,0,,,74,0
177120,note_on,0,0,1,,,,,,,,,0,,,95,89
177120,note_on,0,0,3,,,,,,,,,0,,,79,84
177120,set_tempo,20,1,0,,,,,,1212121,,,,,,,
177134,control_change,14,0,3,,,,,,,,,0,64,0,,
177326,control_change,192,0,3,,,,,,,,,0,64,127,,
177600,set_tempo,480,1,0,,,,,,1081081,,,,,,,
177640,set_tempo,40,1,0,,,,,,1071429,,,,,,,
177660,note_on,0,0,1,,,,,,,,,0,,,93,65
177660,note_on,540,0,1,,,,,,,,,0,,,95,0
177660,note_on,334,0,3,,,,,,,,,0,,,79,0
177660,note_on,0,0,3,,,,,,,,,0,,,78,56
177660,set_tempo,20,1,0,,,,,,1061947,,,,,,,
177680,set_tempo,20,1,0,,,,,,1052632,,,,,,,
177700,set_tempo,20,1,0,,,,,,1043478,,,,,,,
177720,note_on,0,0,3,,,,,,,,,0,,,76,57
177720,note_on,60,0,1,,,,,,,,,0,,,93,0
177720,note_on,60,0,3,,,,,,,,,0,,,78,0
177720,note_on,0,0,1,,,,,,,,,0,,,91,66
177740,set_tempo,40,1,0,,,,,,1034483,,,,,,,
177760,set_tempo,20,1,0,,,,,,1025641,,,,,,,
177780,note_on,60,0,1,,,,,,,,,0,,,91,0
177780,note_on,60,0,3,,,,,,,,,0,,,76,0
177780,set_tempo,20,1,0,,,,,,1016949,,,,,,,
177780,note_on,0,0,1,,,,,,,,,0,,,90,66
177780,note_on,0,0,3,,,,,,,,,0,,,74,57
177800,set_tempo,20,1,0,,,,,,1008403,,,,,,,
177840,note_on,60,0,3,,,,,,,,,0,,,74,0
177840,note_on,0,0,3,,,,,,,,,0,,,72,58
177840,note_on,0,0,1,,,,,,,,,0,,,88,67
177840,note_on,60,0,1,,,,,,,,,0,,,90,0
177840,set_tempo,40,1,0,,,,,,1000000,,,,,,,
177860,set_tempo,20,1,0,,,,,,991736,,,,,,,
177880,set_tempo,20,1,0,,,,,,983607,,,,,,,
177900,note_on,60,0,1,,,,,,,,,0,,,88,0
177900,note_on,0,0,1,,,,,,,,,0,,,86,67
177900,note_on,60,0,3,,,,,,,,,0,,,72,0
177900,set_tempo,20,1,0,,,,,,975610,,,,,,,
177900,note_on,0,0,3,,,,,,,,,0,,,71,58
177940,set_tempo,40,1,0,,,,,,967742,,,,,,,
177960,set_tempo,20,1,0,,,,,,960000,,,,,,,
177960,note_on,60,0,1,,,,,,,,,0,,,86,0
177960,note_on,60,0,3,,,,,,,,,0,,,71,0
177960,note_on,0,0,1,,,,,,,,,0,,,84,68
177960,note_on,0,0,3,,,,,,,,,0,,,69,59
177980,set_tempo,20,1,0,,,,,,952381,,,,,,,
178000,set_tempo,20,1,0,,,,,,944882,,,,,,,
178020,note_on,60,0,1,,,,,,,,,0,,,84,0
178020,note_on,0,0,1,,,,,,,,,0,,,83,69
178020,note_on,60,0,3,,,,,,,,,0,,,69,0
178020,set_tempo,20,1,0,,,,,,930233,,,,,,,
178020,note_on,0,0,3,,,,,,,,,0,,,67,60
178040,set_tempo,20,1,0,,,,,,916031,,,,,,,
178060,set_tempo,20,1,0,,,,,,902256,,,,,,,
178080,note_on,0,0,1,,,,,,,,,0,,,81,69
178080,set_tempo,20,1,0,,,,,,888889,,,,,,,
178080,note_on,60,0,1,,,,,,,,,0,,,83,0
178080,note_on,0,0,3,,,,,,,,,0,,,66,60
178080,note_on,60,0,3,,,,,,,,,0,,,67,0
178100,set_tempo,20,1,0,,,,,,869565,,,,,,,
178120,set_tempo,20,1,0,,,,,,857143,,,,,,,
178140,note_on,60,0,3,,,,,,,,,0,,,66,0
178140,note_on,60,0,1,,,,,,,,,0,,,81,0
178140,note_on,0,0,1,,,,,,,,,0,,,79,70
178140,set_tempo,20,1,0,,,,,,845070,,,,,,,
178140,note_on,0,0,3,,,,,,,,,0,,,64,61
178160,set_tempo,20,1,0,,,,,,833333,,,,,,,
178180,set_tempo,20,1,0,,,,,,816327,,,,,,,
178200,note_on,0,0,1,,,,,,,,,0,,,78,70
178200,note_on,0,0,3,,,,,,,,,0,,,62,61
178200,note_on,60,0,3,,,,,,,,,0,,,64,0
178200,note_on,60,0,1,,,,,,,,,0,,,79,0
178200,set_tempo,20,1,0,,,,,,805369,,,,,,,
178220,set_tempo,20,1,0,,,,,,794702,,,,,,,
178240,set_tempo,20,1,0,,,,,,784314,,,,,,,
178260,note_on,60,0,3,,,,,,,,,0,,,62,0
178260,note_on,0,0,3,,,,,,,,,0,,,60,62
178260,note_on,60,0,1,,,,,,,,,0,,,78,0
178260,set_tempo,20,1,0,,,,,,769231,,,,,,,
178260,note_on,0,0,1,,,,,,,,,0,,,76,71
178280,set_tempo,20,1,0,,,,,,759494,,,,,,,
178300,set_tempo,20,1,0,,,,,,750000,,,,,,,
178320,set_tempo,20,1,0,,,,,,740741,,,,,,,
178320,note_on,0,0,1,,,,,,,,,0,,,74,71
178320,note_on,60,0,1,,,,,,,,,0,,,76,0
178320,note_on,0,0,3,,,,,,,,,0,,,59,63
178320,note_on,60,0,3,,,,,,,,,0,,,60,0
178340,set_tempo,20,1,0,,,,,,727273,,,,,,,
178360,set_tempo,20,1,0,,,,,,718563,,,,,,,
178380,note_on,60,0,1,,,,,,,,,0,,,74,0
178380,note_on,60,0,3,,,,,,,,,0,,,59,0
178380,note_on,0,0,3,,,,,,,,,0,,,57,63
178380,set_tempo,20,1,0,,,,,,710059,,,,,,,
178380,note_on,0,0,1,,,,,,,,,0,,,72,72
178400,set_tempo,20,1,0,,,,,,701754,,,,,,,
178420,set_tempo,20,1,0,,,,,,689655,,,,,,,
178440,note_on,60,0,3,,,,,,,,,0,,,57,0
178440,note_on,60,0,1,,,,,,,,,0,,,72,0
178440,note_on,0,0,3,,,,,,,,,0,,,55,64
178440,note_on,0,0,1,,,,,,,,,0,,,71,72
178440,set_tempo,20,1,0,,,,,,681818,,,,,,,
178460,set_tempo,20,1,0,,,,,,674157,,,,,,,
178480,set_tempo,20,1,0,,,,,,666667,,,,,,,
178500,note_on,60,0,1,,,,,,,,,0,,,71,0
178500,note_on,60,0,3,,,,,,,,,0,,,55,0
178500,set_tempo,20,1,0,,,,,,655738,,,,,,,
178500,note_on,0,0,3,,,,,,,,,0,,,54,64
178500,note_on,0,0,1,,,,,,,,,0,,,69,73
178504,set_tempo,4,1,0,,,,,,662983,,,,,,,
178520,set_tempo,16,1,0,,,,,,659341,,,,,,,
178532,set_tempo,12,1,0,,,,,,655738,,,,,,,
178540,set_tempo,8,1,0,,,,,,648649,,,,,,,
178560,note_on,0,0,1,,,,,,,,,0,,,67,73
178560,note_on,60,0,1,,,,,,,,,0,,,69,0
178560,note_on,0,0,3,,,,,,,,,0,,,52,65
178560,note_on,60,0,3,,,,,,,,,0,,,54,0
178600,set_tempo,60,1,0,,,,,,645161,,,,,,,
178620,note_on,60,0,1,,,,,,,,,0,,,67,0
178620,note_on,0,0,1,,,,,,,,,0,,,66,74
178620,note_on,60,0,3,,,,,,,,,0,,,52,0
178620,note_on,0,0,3,,,,,,,,,0,,,50,65
178640,set_tempo,40,1,0,,,,,,641711,,,,,,,
178680,note_on,60,0,3,,,,,,,,,0,,,50,0
178680,note_on,60,0,1,,,,,,,,,0,,,66,0
178680,note_on,0,0,3,,,,,,,,,0,,,48,66
178680,note_on,0,0,1,,,,,,,,,0,,,64,74
178700,set_tempo,60,1,0,,,,,,638298,,,,,,,
178740,set_tempo,40,1,0,,,,,,634921,,,,,,,
178740,note_on,0,0,3,,,,,,,,,0,,,47,67
178740,note_on,60,0,1,,,,,,,,,0,,,64,0
178740,note_on,0,0,1,,,,,,,,,0,,,62,75
178740,note_on,60,0,3,,,,,,,,,0,,,48,0
178780,set_tempo,40,1,0,,,,,,631579,,,,,,,
178800,note_on,60,0,3,,,,,,,,,0,,,47,0
178800,note_on,0,0,3,,,,,,,,,0,,,45,67
178800,note_on,60,0,1,,,,,,,,,0,,,62,0
178800,note_on,0,0,1,,,,,,,,,0,,,60,76
178840,set_tempo,60,1,0,,,,,,628272,,,,,,,
178860,note_on,0,0,3,,,,,,,,,0,,,43,68
178860,note_on,60,0,1,,,,,,,,,0,,,60,0
178860,note_on,0,0,1,,,,,,,,,0,,,59,76
178860,note_on,60,0,3,,,,,,,,,0,,,45,0
178880,set_tempo,40,1,0,,,,,,625000,,,,,,,
178920,note_on,0,0,1,,,,,,,,,0,,,57,77
178920,note_on,0,0,3,,,,,,,,,0,,,42,68
178920,note_on,60,0,1,,,,,,,,,0,,,59,0
178920,note_on,60,0,3,,,,,,,,,0,,,43,0
178940,set_tempo,60,1,0,,,,,,621762,,,,,,,
178980,note_on,60,0,1,,,,,,,,,0,,,57,0
178980,note_on,0,0,3,,,,,,,,,0,,,40,69
178980,note_on,0,0,1,,,,,,,,,0,,,55,77
178980,set_tempo,40,1,0,,,,,,618557,,,,,,,
178980,note_on,60,0,3,,,,,,,,,0,,,42,0
179020,set_tempo,40,1,0,,,,,,615385,,,,,,,
179040,note_on,60,0,1,,,,,,,,,0,,,55,0
179040,note_on,60,0,3,,,,,,,,,0,,,40,0
179040,note_on,0,0,1,,,,,,,,,0,,,54,78
179040,note_on,0,0,3,,,,,,,,,0,,,38,70
179080,set_tempo,60,1,0,,,,,,612245,,,,,,,
179100,note_on,60,0,1,,,,,,,,,0,,,54,0
179100,note_on,60,0,3,,,,,,,,,0,,,38,0
179100,note_on,0,0,3,,,,,,,,,0,,,36,70
179100,note_on,0,0,1,,,,,,,,,0,,,52,78
179120,set_tempo,40,1,0,,,,,,609137,,,,,,,
179160,note_on,60,0,3,,,,,,,,,0,,,36,0
179160,note_on,60,0,1,,,,,,,,,0,,,52,0
179160,note_on,0,0,1,,,,,,,,,0,,,50,79
179160,note_on,0,0,3,,,,,,,,,0,,,35,71
179180,set_tempo,60,1,0,,,,,,606061,,,,,,,
179220,note_on,60,0,1,,,,,,,,,0,,,50,0
179220,note_on,0,0,1,,,,,,,,,0,,,48,79
179220,note_on,60,0,3,,,,,,,,,0,,,35,0
179220,note_on,0,0,3,,,,,,,,,0,,,33,71
179220,set_tempo,40,1,0,,,,,,603015,,,,,,,
179260,set_tempo,40,1,0,,,,,,600000,,,,,,,
179280,note_on,60,0,3,,,,,,,,,0,,,33,0
179280,note_on,0,0,3,,,,,,,,,0,,,38,72
179280,note_on,60,0,1,,,,,,,,,0,,,48,0
179280,note_on,0,0,1,,,,,,,,,0,,,47,80
179320,set_tempo,60,1,0,,,,,,597015,,,,,,,
179340,note_on,0,0,3,,,,,,,,,0,,,36,72
179340,note_on,60,0,3,,,,,,,,,0,,,38,0
179340,note_on,60,0,1,,,,,,,,,0,,,47,0
179340,note_on,0,0,1,,,,,,,,,0,,,45,80
179360,set_tempo,40,1,0,,,,,,594059,,,,,,,
179400,note_on,60,0,1,,,,,,,,,0,,,45,0
179400,note_on,60,0,3,,,,,,,,,0,,,36,0
179400,note_on,0,0,3,,,,,,,,,0,,,31,82
179400,note_on,0,0,3,,,,,,,,,0,,,35,82
179400,note_on,0,0,1,,,,,,,,,0,,,43,89
179417,control_change,17,0,3,,,,,,,,,0,64,0,,
179420,set_tempo,60,1,0,,,,,,591133,,,,,,,
179460,set_tempo,40,1,0,,,,,,588235,,,,,,,
179500,set_tempo,40,1,0,,,,,,585366,,,,,,,
179520,set_tempo,20,1,0,,,,,,1290323,,,,,,,
179543,control_change,126,0,3,,,,,,,,,0,64,127,,
179980,set_tempo,460,1,0,,,,,,1052632,,,,,,,
180000,set_tempo,20,1,0,,,,,,1025641,,,,,,,
180020,set_tempo,20,1,0,,,,,,1000000,,,,,,,
180040,set_tempo,20,1,0,,,,,,975610,,,,,,,
180060,note_on,0,0,3,,,,,,,,,0,,,38,60
180060,set_tempo,20,1,0,,,,,,952381,,,,,,,
180060,note_on,0,0,1,,,,,,,,,0,,,47,67
180060,note_on,517,0,3,,,,,,,,,0,,,35,0
180060,note_on,660,0,1,,,,,,,,,0,,,43,0
180060,note_on,0,0,3,,,,,,,,,0,,,31,0
180080,set_tempo,20,1,0,,,,,,930233,,,,,,,
180100,set_tempo,20,1,0,,,,,,902256,,,,,,,
180120,note_on,0,0,3,,,,,,,,,0,,,43,62
180120,note_on,60,0,1,,,,,,,,,0,,,47,0
180120,set_tempo,20,1,0,,,,,,882353,,,,,,,
180120,note_on,0,0,1,,,,,,,,,0,,,50,69
180120,note_on,60,0,3,,,,,,,,,0,,,38,0
180140,set_tempo,20,1,0,,,,,,863309,,,,,,,
180160,set_tempo,20,1,0,,,,,,845070,,,,,,,
180180,note_on,0,0,1,,,,,,,,,0,,,55,70
180180,note_on,60,0,1,,,,,,,,,0,,,50,0
180180,note_on,60,0,3,,,,,,,,,0,,,43,0
180180,set_tempo,20,1,0,,,,,,827586,,,,,,,
180180,note_on,0,0,3,,,,,,,,,0,,,47,63
180200,set_tempo,20,1,0,,,,,,805369,,,,,,,
180220,set_tempo,20,1,0,,,,,,789474,,,,,,,
180240,note_on,0,0,3,,,,,,,,,0,,,50,65
180240,note_on,60,0,3,,,,,,,,,0,,,47,0
180240,set_tempo,20,1,0,,,,,,774194,,,,,,,
180240,note_on,60,0,1,,,,,,,,,0,,,55,0
180240,note_on,0,0,1,,,,,,,,,0,,,59,72
180260,set_tempo,20,1,0,,,,,,759494,,,,,,,
180280,set_tempo,20,1,0,,,,,,745342,,,,,,,
180300,set_tempo,20,1,0,,,,,,731707,,,,,,,
180300,note_on,0,0,1,,,,,,,,,0,,,62,73
180300,note_on,60,0,3,,,,,,,,,0,,,50,0
180300,note_on,0,0,3,,,,,,,,,0,,,55,66
180300,note_on,60,0,1,,,,,,,,,0,,,59,0
180320,set_tempo,20,1,0,,,,,,714286,,,,,,,
180340,set_tempo,20,1,0,,,,,,701754,,,,,,,
180360,note_on,60,0,1,,,,,,,,,0,,,62,0
180360,note_on,0,0,1,,,,,,,,,0,,,67,75
180360,set_tempo,20,1,0,,,,,,689655,,,,,,,
180360,note_on,60,0,3,,,,,,,,,0,,,55,0
180360,note_on,0,0,3,,,,,,,,,0,,,59,67
180380,set_tempo,20,1,0,,,,,,677966,,,,,,,
180400,set_tempo,20,1,0,,,,,,666667,,,,,,,
180420,note_on,0,0,3,,,,,,,,,0,,,62,69
180420,note_on,0,0,1,,,,,,,,,0,,,71,76
180420,note_on,60,0,1,,,,,,,,,0,,,67,0
180420,note_on,60,0,3,,,,,,,,,0,,,59,0
180420,set_tempo,20,1,0,,,,,,652174,,,,,,,
180460,set_tempo,40,1,0,,,,,,648649,,,,,,,
180480,note_on,60,0,3,,,,,,,,,0,,,62,0
180480,note_on,0,0,3,,,,,,,,,0,,,67,70
180480,set_tempo,20,1,0,,,,,,645161,,,,,,,
180480,note_on,0,0,1,,,,,,,,,0,,,74,78
180480,note_on,60,0,1,,,,,,,,,0,,,71,0
180500,set_tempo,20,1,0,,,,,,641711,,,,,,,
180520,set_tempo,20,1,0,,,,,,638298,,,,,,,
180540,note_on,60,0,3,,,,,,,,,0,,,67,0
180540,note_on,0,0,1,,,,,,,,,0,,,79,79
180540,note_on,60,0,1,,,,,,,,,0,,,74,0
180540,note_on,0,0,3,,,,,,,,,0,,,71,72
180560,set_tempo,40,1,0,,,,,,634921,,,,,,,
180580,set_tempo,20,1,0,,,,,,631579,,,,,,,
180600,set_tempo,20,1,0,,,,,,628272,,,,,,,
180600,note_on,60,0,1,,,,,,,,,0,,,79,0
180600,note_on,60,0,3,,,,,,,,,0,,,71,0
180600,note_on,0,0,1,,,,,,,,,0,,,83,81
180600,note_on,0,0,3,,,,,,,,,0,,,74,73
180620,set_tempo,20,1,0,,,,,,625000,,,,,,,
180660,note_on,60,0,1,,,,,,,,,0,,,83,0
180660,set_tempo,40,1,0,,,,,,621762,,,,,,,
180660,note_on,0,0,1,,,,,,,,,0,,,86,82
180660,note_on,0,0,3,,,,,,,,,0,,,79,72
180660,note_on,60,0,3,,,,,,,,,0,,,74,0
180680,set_tempo,20,1,0,,,,,,618557,,,,,,,
180700,set_tempo,20,1,0,,,,,,615385,,,,,,,
180720,note_on,60,0,3,,,,,,,,,0,,,79,0
180720,note_on,0,0,1,,,,,,,,,0,,,91,84
180720,note_on,60,0,1,,,,,,,,,0,,,86,0
180720,note_on,0,0,3,,,,,,,,,0,,,83,74
180720,set_tempo,20,1,0,,,,,,612245,,,,,,,
180760,set_tempo,40,1,0,,,,,,609137,,,,,,,
180780,note_on,0,0,1,,,,,,,,,0,,,95,87
180780,note_on,0,0,3,,,,,,,,,0,,,86,76
180780,set_tempo,20,1,0,,,,,,606061,,,,,,,
180780,note_on,60,0,3,,,,,,,,,0,,,83,0
180780,note_on,60,0,1,,,,,,,,,0,,,91,0
180800,set_tempo,20,1,0,,,,,,603015,,,,,,,
180820,set_tempo,20,1,0,,,,,,600000,,,,,,,
180840,note_on,60,0,3,,,,,,,,,0,,,86,0
180840,note_on,60,0,1,,,,,,,,,0,,,98,89
180840,note_on,0,0,3,,,,,,,,,0,,,91,84
180860,set_tempo,40,1,0,,,,,,597015,,,,,,,
180880,set_tempo,20,1,0,,,,,,594059,,,,,,,
180900,set_tempo,20,1,0,,,,,,591133,,,,,,,
180920,set_tempo,20,1,0,,,,,,588235,,,,,,,
180940,set_tempo,20,1,0,,,,,,585366,,,,,,,
180960,set_tempo,20,1,0,,,,,,1212121,,,,,,,
180974,control_change,134,0,3,,,,,,,,,0,64,0,,
181077,control_change,103,0,3,,,,,,,,,0,64,127,,
181460,set_tempo,500,1,0,,,,,,1090909,,,,,,,
181500,note_on,423,0,3,,,,,,,,,0,,,91,0
181500,note_on,0,0,1,,,,,,,,,0,,,96,65
181500,note_on,0,0,1,,,,,,,,,0,,,95,0
181500,note_on,660,0,1,,,,,,,,,0,,,98,0
181500,note_on,0,0,3,,,,,,,,,0,,,88,56
181500,set_tempo,40,1,0,,,,,,1081081,,,,,,,
181520,set_tempo,20,1,0,,,,,,1071429,,,,,,,
181540,set_tempo,20,1,0,,,,,,1061947,,,,,,,
181560,note_on,0,0,1,,,,,,,,,0,,,95,65
181560,note_on,60,0,3,,,,,,,,,0,,,88,0
181560,note_on,60,0,1,,,,,,,,,0,,,96,0
181560,note_on,0,0,3,,,,,,,,,0,,,86,56
181580,set_tempo,40,1,0,,,,,,1052632,,,,,,,
181600,set_tempo,20,1,0,,,,,,1043478,,,,,,,
181620,note_on,0,0,3,,,,,,,,,0,,,84,56
181620,note_on,60,0,3,,,,,,,,,0,,,86,0
181620,note_on,60,0,1,,,,,,,,,0,,,95,0
181620,note_on,0,0,1,,,,,,,,,0,,,93,65
181620,set_tempo,20,1,0,,,,,,1034483,,,,,,,
181640,set_tempo,20,1,0,,,,,,1025641,,,,,,,
181660,set_tempo,20,1,0,,,,,,1008403,,,,,,,
181680,note_on,0,0,1,,,,,,,,,0,,,91,66
181680,note_on,0,0,3,,,,,,,,,0,,,83,57
181680,note_on,60,0,3,,,,,,,,,0,,,84,0
181680,note_on,60,0,1,,,,,,,,,0,,,93,0
181680,set_tempo,20,1,0,,,,,,991736,,,,,,,
181700,set_tempo,20,1,0,,,,,,983607,,,,,,,
181720,set_tempo,20,1,0,,,,,,967742,,,,,,,
181740,note_on,60,0,3,,,,,,,,,0,,,83,0
181740,note_on,60,0,1,,,,,,,,,0,,,91,0
181740,note_on,0,0,1,,,,,,,,,0,,,90,66
181740,set_tempo,20,1,0,,,,,,952381,,,,,,,
181740,note_on,0,0,3,,,,,,,,,0,,,81,57
181760,set_tempo,20,1,0,,,,,,937500,,,,,,,
181780,set_tempo,20,1,0,,,,,,930233,,,,,,,
181800,note_on,60,0,1,,,,,,,,,0,,,90,0
181800,set_tempo,20,1,0,,,,,,916031,,,,,,,
181800,note_on,0,0,1,,,,,,,,,0,,,88,67
181800,note_on,60,0,3,,,,,,,,,0,,,81,0
181800,note_on,0,0,3,,,,,,,,,0,,,79,58
181820,set_tempo,20,1,0,,,,,,902256,,,,,,,
181840,set_tempo,20,1,0,,,,,,888889,,,,,,,
181860,set_tempo,20,1,0,,,,,,882353,,,,,,,
181860,note_on,60,0,3,,,,,,,,,0,,,79,0
181860,note_on,60,0,1,,,,,,,,,0,,,88,0
181860,note_on,0,0,3,,,,,,,,,0,,,78,58
181860,note_on,0,0,1,,,,,,,,,0,,,86,67
181880,set_tempo,20,1,0,,,,,,869565,,,,,,,
181900,set_tempo,20,1,0,,,,,,857143,,,,,,,
181920,note_on,0,0,1,,,,,,,,,0,,,84,68
181920,set_tempo,20,1,0,,,,,,845070,,,,,,,
181920,note_on,0,0,3,,,,,,,,,0,,,76,59
181920,note_on,60,0,3,,,,,,,,,0,,,78,0
181920,note_on,60,0,1,,,,,,,,,0,,,86,0
181940,set_tempo,20,1,0,,,,,,839161,,,,,,,
181960,set_tempo,20,1,0,,,,,,827586,,,,,,,
181980,note_on,60,0,1,,,,,,,,,0,,,84,0
181980,note_on,0,0,1,,,,,,,,,0,,,83,69
181980,note_on,0,0,3,,,,,,,,,0,,,74,60
181980,set_tempo,20,1,0,,,,,,816327,,,,,,,
181980,note_on,60,0,3,,,,,,,,,0,,,76,0
182000,set_tempo,20,1,0,,,,,,805369,,,,,,,
182020,set_tempo,20,1,0,,,,,,800000,,,,,,,
182040,note_on,0,0,1,,,,,,,,,0,,,81,69
182040,set_tempo,20,1,0,,,,,,789474,,,,,,,
182040,note_on,60,0,3,,,,,,,,,0,,,74,0
182040,note_on,60,0,1,,,,,,,,,0,,,83,0
182040,note_on,0,0,3,,,,,,,,,0,,,72,60
182060,set_tempo,20,1,0,,,,,,779221,,,,,,,
182080,set_tempo,20,1,0,,,,,,774194,,,,,,,
182100,note_on,0,0,3,,,,,,,,,0,,,71,61
182100,note_on,60,0,1,,,,,,,,,0,,,81,0
182100,set_tempo,20,1,0,,,,,,764331,,,,,,,
182100,note_on,0,0,1,,,,,,,,,0,,,79,70
182100,note_on,60,0,3,,,,,,,,,0,,,72,0
182120,set_tempo,20,1,0,,,,,,754717,,,,,,,
182140,set_tempo,20,1,0,,,,,,745342,,,,,,,
182160,note_on,0,0,3,,,,,,,,,0,,,69,61
182160,note_on,60,0,1,,,,,,,,,0,,,79,0
182160,note_on,60,0,3,,,,,,,,,0,,,71,0
182160,note_on,0,0,1,,,,,,,,,0,,,78,70
182160,set_tempo,20,1,0,,,,,,740741,,,,,,,
182180,set_tempo,20,1,0,,,,,,731707,,,,,,,
182200,set_tempo,20,1,0,,,,,,722892,,,,,,,
182220,note_on,0,0,3,,,,,,,,,0,,,67,62
182220,note_on,60,0,3,,,,,,,,,0,,,69,0
182220,note_on,60,0,1,,,,,,,,,0,,,78,0
182220,set_tempo,20,1,0,,,,,,714286,,,,,,,
182220,note_on,0,0,1,,,,,,,,,0,,,76,71
182240,set_tempo,20,1,0,,,,,,710059,,,,,,,
182260,set_tempo,20,1,0,,,,,,701754,,,,,,,
182280,set_tempo,20,1,0,,,,,,693642,,,,,,,
182280,note_on,0,0,3,,,,,,,,,0,,,66,63
182280,note_on,0,0,1,,,,,,,,,0,,,74,71
182280,note_on,60,0,1,,,,,,,,,0,,,76,0
182280,note_on,60,0,3,,,,,,,,,0,,,67,0
182300,set_tempo,20,1,0,,,,,,685714,,,,,,,
182320,set_tempo,20,1,0,,,,,,681818,,,,,,,
182340,set_tempo,20,1,0,,,,,,674157,,,,,,,
182340,note_on,0,0,1,,,,,,,,,0,,,72,72
182340,note_on,60,0,1,,,,,,,,,0,,,74,0
182340,note_on,0,0,3,,,,,,,,,0,,,64,63
182340,note_on,60,0,3,,,,,,,,,0,,,66,0
182360,set_tempo,20,1,0,,,,,,659341,,,,,,,
182400,note_on,0,0,1,,,,,,,,,0,,,71,72
182400,note_on,60,0,3,,,,,,,,,0,,,64,0
182400,set_tempo,40,1,0,,,,,,655738,,,,,,,
182400,note_on,60,0,1,,,,,,,,,0,,,72,0
182400,note_on,0,0,3,,,,,,,,,0,,,62,64
182440,set_tempo,40,1,0,,,,,,652174,,,,,,,
182460,note_on,0,0,3,,,,,,,,,0,,,60,64
182460,note_on,60,0,1,,,,,,,,,0,,,71,0
182460,note_on,0,0,1,,,,,,,,,0,,,69,73
182460,note_on,60,0,3,,,,,,,,,0,,,62,0
182480,set_tempo,40,1,0,,,,,,648649,,,,,,,
182520,note_on,0,0,1,,,,,,,,,0,,,67,73
182520,note_on,60,0,1,,,,,,,,,0,,,69,0
182520,note_on,0,0,3,,,,,,,,,0,,,59,65
182520,note_on,60,0,3,,,,,,,,,0,,,60,0
182520,set_tempo,40,1,0,,,,,,645161,,,,,,,
182560,set_tempo,40,1,0,,,,,,641711,,,,,,,
182580,note_on,0,0,3,,,,,,,,,0,,,57,65
182580,note_on,60,0,3,,,,,,,,,0,,,59,0
182580,note_on,0,0,1,,,,,,,,,0,,,66,74
182580,note_on,60,0,1,,,,,,,,,0,,,67,0
182600,set_tempo,40,1,0,,,,,,638298,,,,,,,
182620,set_tempo,20,1,0,,,,,,634921,,,,,,,
182640,note_on,0,0,3,,,,,,,,,0,,,55,66
182640,note_on,60,0,1,,,,,,,,,0,,,66,0
182640,note_on,60,0,3,,,,,,,,,0,,,57,0
182640,note_on,0,0,1,,,,,,,,,0,,,64,74
182660,set_tempo,40,1,0,,,,,,631579,,,,,,,
182700,note_on,60,0,1,,,,,,,,,0,,,64,0
182700,note_on,0,0,3,,,,,,,,,0,,,54,67
182700,set_tempo,40,1,0,,,,,,628272,,,,,,,
182700,note_on,60,0,3,,,,,,,,,0,,,55,0
182700,note_on,0,0,1,,,,,,,,,0,,,62,75
182740,set_tempo,40,1,0,,,,,,625000,,,,,,,
182760,note_on,0,0,1,,,,,,,,,0,,,60,76
182760,note_on,60,0,3,,,,,,,,,0,,,54,0
182760,note_on,60,0,1,,,,,,,,,0,,,62,0
182760,note_on,0,0,3,,,,,,,,,0,,,52,67
182780,set_tempo,40,1,0,,,,,,621762,,,,,,,
182820,note_on,0,0,1,,,,,,,,,0,,,59,76
182820,note_on,60,0,3,,,,,,,,,0,,,52,0
182820,note_on,0,0,3,,,,,,,,,0,,,50,68
182820,set_tempo,40,1,0,,,,,,618557,,,,,,,
182820,note_on,60,0,1,,,,,,,,,0,,,60,0
182860,set_tempo,40,1,0,,,,,,615385,,,,,,,
182880,note_on,0,0,3,,,,,,,,,0,,,48,68
182880,note_on,60,0,1,,,,,,,,,0,,,59,0
182880,note_on,0,0,1,,,,,,,,,0,,,57,77
182880,set_tempo,20,1,0,,,,,,612245,,,,,,,
182880,note_on,60,0,3,,,,,,,,,0,,,50,0
182940,note_on,0,0,3,,,,,,,,,0,,,47,69
182940,note_on,0,0,1,,,,,,,,,0,,,55,77
182940,note_on,60,0,1,,,,,,,,,0,,,57,0
182940,note_on,60,0,3,,,,,,,,,0,,,48,0
182940,set_tempo,60,1,0,,,,,,609137,,,,,,,
183000,set_tempo,60,1,0,,,,,,606061,,,,,,,
183000,note_on,60,0,3,,,,,,,,,0,,,47,0
183000,note_on,60,0,1,,,,,,,,,0,,,55,0
183000,note_on,0,0,3,,,,,,,,,0,,,45,68
183000,note_on,0,0,1,,,,,,,,,0,,,54,78
183060,note_on,60,0,1,,,,,,,,,0,,,54,0
183060,note_on,60,0,3,,,,,,,,,0,,,45,0
183060,set_tempo,60,1,0,,,,,,603015,,,,,,,
183060,note_on,0,0,1,,,,,,,,,0,,,52,77
183060,note_on,0,0,3,,,,,,,,,0,,,43,69
183120,note_on,0,0,1,,,,,,,,,0,,,50,78
183120,note_on,60,0,1,,,,,,,,,0,,,52,0
183120,set_tempo,60,1,0,,,,,,600000,,,,,,,
183120,note_on,0,0,3,,,,,,,,,0,,,42,70
183120,note_on,60,0,3,,,,,,,,,0,,,43,0
183180,set_tempo,60,1,0,,,,,,597015,,,,,,,
183180,note_on,60,0,1,,,,,,,,,0,,,50,0
183180,note_on,0,0,1,,,,,,,,,0,,,48,80
183180,note_on,60,0,3,,,,,,,,,0,,,42,0
183180,note_on,0,0,3,,,,,,,,,0,,,40,71
183240,note_on,0,0,1,,,,,,,,,0,,,47,82
183240,set_tempo,60,1,0,,,,,,594059,,,,,,,
183240,note_on,60,0,1,,,,,,,,,0,,,48,0
183240,note_on,60,0,3,,,,,,,,,0,,,40,0
183240,note_on,0,0,3,,,,,,,,,0,,,38,73
183300,set_tempo,60,1,0,,,,,,591133,,,,,,,
183300,note_on,0,0,3,,,,,,,,,0,,,36,74
183300,note_on,60,0,3,,,,,,,,,0,,,38,0
183300,note_on,0,0,1,,,,,,,,,0,,,45,83
183300,note_on,60,0,1,,,,,,,,,0,,,47,0
183340,set_tempo,40,1,0,,,,,,588235,,,,,,,
183360,time_signature,20,1,0,7,4,24,8,,,,,,,,,
183360,note_on,60,0,3,,,,,,,,,0,,,36,0
183360,note_on,60,0,1,,,,,,,,,0,,,45,0
183360,note_on,0,0,3,,,,,,,,,0,,,31,82
183360,note_on,0,0,1,,,,,,,,,0,,,43,89
183360,note_on,0,0,3,,,,,,,,,0,,,35,82
183360,set_tempo,0,1,0,,,,,,1200000,,,,,,,
183377,control_change,17,0,3,,,,,,,,,0,64,0,,
183474,control_change,97,0,3,,,,,,,,,0,64,127,,
183840,set_tempo,480,1,0,,,,,,1081081,,,,,,,
183852,set_tempo,12,1,0,,,,,,1071429,,,,,,,
183864,set_tempo,12,1,0,,,,,,1061947,,,,,,,
183880,set_tempo,16,1,0,,,,,,1052632,,,,,,,
183892,set_tempo,12,1,0,,,,,,1043478,,,,,,,
183900,note_on,0,0,3,,,,,,,,,0,,,31,0
183900,note_on,0,0,3,,,,,,,,,0,,,36,48
183900,note_on,540,0,1,,,,,,,,,0,,,43,0
183900,note_on,426,0,3,,,,,,,,,0,,,35,0
183900,note_on,0,0,1,,,,,,,,,0,,,44,68
183904,set_tempo,12,1,0,,,,,,1034483,,,,,,,
183920,set_tempo,16,1,0,,,,,,1025641,,,,,,,
183932,set_tempo,12,1,0,,,,,,1016949,,,,,,,
183944,set_tempo,12,1,0,,,,,,1000000,,,,,,,
183960,note_on,0,0,1,,,,,,,,,0,,,45,68
183960,note_on,0,0,3,,,,,,,,,0,,,37,49
183960,note_on,60,0,1,,,,,,,,,0,,,44,0
183960,note_on,60,0,3,,,,,,,,,0,,,36,0
183960,set_tempo,16,1,0,,,,,,991736,,,,,,,
183972,set_tempo,12,1,0,,,,,,983607,,,,,,,
183984,set_tempo,12,1,0,,,,,,975610,,,,,,,
184000,set_tempo,16,1,0,,,,,,967742,,,,,,,
184012,set_tempo,12,1,0,,,,,,960000,,,,,,,
184020,note_on,60,0,3,,,,,,,,,0,,,37,0
184020,note_on,60,0,1,,,,,,,,,0,,,45,0
184020,note_on,0,0,3,,,,,,,,,0,,,38,49
184020,note_on,0,0,1,,,,,,,,,0,,,46,69
184024,set_tempo,12,1,0,,,,,,952381,,,,,,,
184040,set_tempo,16,1,0,,,,,,944882,,,,,,,
184052,set_tempo,12,1,0,,,,,,930233,,,,,,,
184064,set_tempo,12,1,0,,,,,,923077,,,,,,,
184080,note_on,0,0,1,,,,,,,,,0,,,47,70
184080,note_on,60,0,1,,,,,,,,,0,,,46,0
184080,set_tempo,16,1,0,,,,,,916031,,,,,,,
184080,note_on,0,0,3,,,,,,,,,0,,,39,50
184080,note_on,60,0,3,,,,,,,,,0,,,38,0
184092,set_tempo,12,1,0,,,,,,909091,,,,,,,
184104,set_tempo,12,1,0,,,,,,902256,,,,,,,
184120,set_tempo,16,1,0,,,,,,895522,,,,,,,
184132,set_tempo,12,1,0,,,,,,888889,,,,,,,
184140,note_on,60,0,1,,,,,,,,,0,,,47,0
184140,note_on,0,0,1,,,,,,,,,0,,,48,70
184140,note_on,60,0,3,,,,,,,,,0,,,39,0
184140,note_on,0,0,3,,,,,,,,,0,,,40,51
184144,set_tempo,12,1,0,,,,,,882353,,,,,,,
184160,set_tempo,16,1,0,,,,,,869565,,,,,,,
184172,set_tempo,12,1,0,,,,,,863309,,,,,,,
184184,set_tempo,12,1,0,,,,,,857143,,,,,,,
184200,note_on,0,0,1,,,,,,,,,0,,,49,71
184200,set_tempo,16,1,0,,,,,,851064,,,,,,,
184200,note_on,60,0,1,,,,,,,,,0,,,48,0
184200,note_on,0,0,3,,,,,,,,,0,,,41,52
184200,note_on,60,0,3,,,,,,,,,0,,,40,0
184212,set_tempo,12,1,0,,,,,,845070,,,,,,,
184224,set_tempo,12,1,0,,,,,,839161,,,,,,,
184240,set_tempo,16,1,0,,,,,,833333,,,,,,,
184252,set_tempo,12,1,0,,,,,,827586,,,,,,,
184260,note_on,0,0,1,,,,,,,,,0,,,50,72
184260,note_on,60,0,3,,,,,,,,,0,,,41,0
184260,note_on,0,0,3,,,,,,,,,0,,,42,52
184260,note_on,60,0,1,,,,,,,,,0,,,49,0
184264,set_tempo,12,1,0,,,,,,816327,,,,,,,
184280,set_tempo,16,1,0,,,,,,810811,,,,,,,
184292,set_tempo,12,1,0,,,,,,805369,,,,,,,
184300,set_tempo,8,1,0,,,,,,805369,,,,,,,
184320,set_tempo,20,1,0,,,,,,800000,,,,,,,
184320,note_on,60,0,1,,,,,,,,,0,,,50,0
184320,note_on,0,0,3,,,,,,,,,0,,,43,53
184320,note_on,0,0,1,,,,,,,,,0,,,51,72
184320,note_on,60,0,3,,,,,,,,,0,,,42,0
184340,set_tempo,20,1,0,,,,,,789474,,,,,,,
184360,set_tempo,20,1,0,,,,,,784314,,,,,,,
184380,note_on,0,0,3,,,,,,,,,0,,,44,54
184380,set_tempo,20,1,0,,,,,,774194,,,,,,,
184380,note_on,60,0,1,,,,,,,,,0,,,51,0
184380,note_on,60,0,3,,,,,,,,,0,,,43,0
184380,note_on,0,0,1,,,,,,,,,0,,,52,73
184400,set_tempo,20,1,0,,,,,,769231,,,,,,,
184420,set_tempo,20,1,0,,,,,,759494,,,,,,,
184440,note_on,60,0,1,,,,,,,,,0,,,52,0
184440,note_on,0,0,3,,,,,,,,,0,,,45,55
184440,note_on,0,0,1,,,,,,,,,0,,,53,74
184440,set_tempo,20,1,0,,,,,,750000,,,,,,,
184440,note_on,60,0,3,,,,,,,,,0,,,44,0
184460,set_tempo,20,1,0,,,,,,745342,,,,,,,
184480,set_tempo,20,1,0,,,,,,736196,,,,,,,
184500,note_on,60,0,1,,,,,,,,,0,,,53,0
184500,note_on,60,0,3,,,,,,,,,0,,,45,0
184500,note_on,0,0,3,,,,,,,,,0,,,46,55
184500,set_tempo,20,1,0,,,,,,731707,,,,,,,
184500,note_on,0,0,1,,,,,,,,,0,,,54,74
184520,set_tempo,20,1,0,,,,,,722892,,,,,,,
184540,set_tempo,20,1,0,,,,,,714286,,,,,,,
184560,note_on,60,0,1,,,,,,,,,0,,,54,0
184560,note_on,60,0,3,,,,,,,,,0,,,46,0
184560,note_on,0,0,1,,,,,,,,,0,,,55,75
184560,set_tempo,20,1,0,,,,,,710059,,,,,,,
184560,note_on,0,0,3,,,,,,,,,0,,,47,56
184580,set_tempo,20,1,0,,,,,,701754,,,,,,,
184600,set_tempo,20,1,0,,,,,,697674,,,,,,,
184620,note_on,60,0,1,,,,,,,,,0,,,55,0
184620,note_on,0,0,1,,,,,,,,,0,,,56,76
184620,note_on,0,0,3,,,,,,,,,0,,,48,57
184620,note_on,60,0,3,,,,,,,,,0,,,47,0
184620,set_tempo,20,1,0,,,,,,689655,,,,,,,
184640,set_tempo,20,1,0,,,,,,685714,,,,,,,
184660,set_tempo,20,1,0,,,,,,677966,,,,,,,
184680,note_on,0,0,3,,,,,,,,,0,,,49,58
184680,note_on,60,0,3,,,,,,,,,0,,,48,0
184680,set_tempo,20,1,0,,,,,,670391,,,,,,,
184680,note_on,60,0,1,,,,,,,,,0,,,56,0
184680,note_on,0,0,1,,,,,,,,,0,,,57,76
184700,set_tempo,20,1,0,,,,,,666667,,,,,,,
184720,set_tempo,20,1,0,,,,,,659341,,,,,,,
184740,note_on,0,0,3,,,,,,,,,0,,,50,58
184740,note_on,60,0,3,,,,,,,,,0,,,49,0
184740,note_on,60,0,1,,,,,,,,,0,,,57,0
184740,note_on,0,0,1,,,,,,,,,0,,,58,77
184740,set_tempo,20,1,0,,,,,,655738,,,,,,,
184760,set_tempo,20,1,0,,,,,,648649,,,,,,,
184780,set_tempo,20,1,0,,,,,,641711,,,,,,,
184784,set_tempo,4,1,0,,,,,,631579,,,,,,,
184800,note_on,0,0,1,,,,,,,,,0,,,59,77
184800,note_on,0,0,3,,,,,,,,,0,,,51,59
184800,set_tempo,16,1,0,,,,,,638298,,,,,,,
184800,note_on,60,0,1,,,,,,,,,0,,,58,0
184800,note_on,60,0,3,,,,,,,,,0,,,50,0
184860,note_on,0,0,3,,,,,,,,,0,,,52,60
184860,note_on,0,0,1,,,,,,,,,0,,,60,78
184860,set_tempo,60,1,0,,,,,,634921,,,,,,,
184860,note_on,60,0,1,,,,,,,,,0,,,59,0
184860,note_on,60,0,3,,,,,,,,,0,,,51,0
184920,set_tempo,60,1,0,,,,,,631579,,,,,,,
184920,note_on,60,0,3,,,,,,,,,0,,,52,0
184920,note_on,60,0,1,,,,,,,,,0,,,60,0
184920,note_on,0,0,3,,,,,,,,,0,,,53,61
184920,note_on,0,0,1,,,,,,,,,0,,,61,79
184960,set_tempo,40,1,0,,,,,,628272,,,,,,,
184980,note_on,60,0,1,,,,,,,,,0,,,61,0
184980,note_on,0,0,1,,,,,,,,,0,,,62,80
184980,note_on,60,0,3,,,,,,,,,0,,,53,0
184980,note_on,0,0,3,,,,,,,,,0,,,54,61
185020,set_tempo,60,1,0,,,,,,625000,,,,,,,
185040,note_on,60,0,3,,,,,,,,,0,,,54,0
185040,note_on,0,0,1,,,,,,,,,0,,,63,80
185040,note_on,0,0,3,,,,,,,,,0,,,55,62
185040,note_on,60,0,1,,,,,,,,,0,,,62,0
185080,set_tempo,60,1,0,,,,,,621762,,,,,,,
185100,note_on,0,0,3,,,,,,,,,0,,,56,63
185100,note_on,0,0,1,,,,,,,,,0,,,64,81
185100,note_on,60,0,1,,,,,,,,,0,,,63,0
185100,note_on,60,0,3,,,,,,,,,0,,,55,0
185120,set_tempo,40,1,0,,,,,,618557,,,,,,,
185160,note_on,0,0,3,,,,,,,,,0,,,57,64
185160,note_on,0,0,1,,,,,,,,,0,,,65,81
185160,note_on,60,0,1,,,,,,,,,0,,,64,0
185160,note_on,60,0,3,,,,,,,,,0,,,56,0
185180,set_tempo,60,1,0,,,,,,615385,,,,,,,
185220,note_on,60,0,1,,,,,,,,,0,,,65,0
185220,note_on,60,0,3,,,,,,,,,0,,,57,0
185220,note_on,0,0,1,,,,,,,,,0,,,66,82
185220,note_on,0,0,3,,,,,,,,,0,,,58,64
185240,set_tempo,60,1,0,,,,,,612245,,,,,,,
185260,set_tempo,20,1,0,,,,,,606061,,,,,,,
185280,note_on,60,0,1,,,,,,,,,0,,,66,0
185280,note_on,60,0,3,,,,,,,,,0,,,58,0
185280,note_on,0,0,1,,,,,,,,,0,,,67,85
185280,note_on,0,0,3,,,,,,,,,0,,,59,59
185340,note_on,0,0,1,,,,,,,,,0,,,66,84
185340,note_on,60,0,1,,,,,,,,,0,,,67,0
185340,note_on,60,0,3,,,,,,,,,0,,,59,0
185340,note_on,0,0,3,,,,,,,,,0,,,58,59
185360,set_tempo,100,1,0,,,,,,603015,,,,,,,
185400,note_on,60,0,1,,,,,,,,,0,,,66,0
185400,note_on,0,0,3,,,,,,,,,0,,,57,58
185400,note_on,60,0,3,,,,,,,,,0,,,58,0
185400,note_on,0,0,1,,,,,,,,,0,,,65,83
185440,set_tempo,80,1,0,,,,,,600000,,,,,,,
185460,note_on,0,0,3,,,,,,,,,0,,,56,57
185460,note_on,60,0,1,,,,,,,,,0,,,65,0
185460,note_on,60,0,3,,,,,,,,,0,,,57,0
185460,note_on,0,0,1,,,,,,,,,0,,,64,81
185520,note_on,60,0,1,,,,,,,,,0,,,64,0
185520,note_on,60,0,3,,,,,,,,,0,,,56,0
185520,note_on,0,0,3,,,,,,,,,0,,,55,57
185520,set_tempo,80,1,0,,,,,,597015,,,,,,,
185520,note_on,0,0,1,,,,,,,,,0,,,63,80
185580,note_on,0,0,1,,,,,,,,,0,,,62,79
185580,note_on,60,0,3,,,,,,,,,0,,,55,0
185580,note_on,0,0,3,,,,,,,,,0,,,54,56
185580,note_on,60,0,1,,,,,,,,,0,,,63,0
185600,set_tempo,80,1,0,,,,,,594059,,,,,,,
185640,note_on,60,0,3,,,,,,,,,0,,,54,0
185640,note_on,0,0,1,,,,,,,,,0,,,61,78
185640,note_on,60,0,1,,,,,,,,,0,,,62,0
185640,note_on,0,0,3,,,,,,,,,0,,,53,55
185680,set_tempo,80,1,0,,,,,,591133,,,,,,,
185700,note_on,0,0,1,,,,,,,,,0,,,60,76
185700,note_on,60,0,1,,,,,,,,,0,,,61,0
185700,note_on,60,0,3,,,,,,,,,0,,,53,0
185700,note_on,0,0,3,,,,,,,,,0,,,52,55
185760,note_on,0,0,1,,,,,,,,,0,,,59,74
185760,note_on,0,0,3,,,,,,,,,0,,,51,52
185760,note_on,60,0,1,,,,,,,,,0,,,60,0
185760,note_on,60,0,3,,,,,,,,,0,,,52,0
185760,set_tempo,80,1,0,,,,,,588235,,,,,,,
185800,set_tempo,40,1,0,,,,,,591133,,,,,,,
185820,note_on,60,0,1,,,,,,,,,0,,,59,0
185820,note_on,60,0,3,,,,,,,,,0,,,51,0
185820,note_on,0,0,3,,,,,,,,,0,,,50,53
185820,note_on,0,0,1,,,,,,,,,0,,,58,75
185840,set_tempo,40,1,0,,,,,,594059,,,,,,,
185880,note_on,60,0,1,,,,,,,,,0,,,58,0
185880,note_on,60,0,3,,,,,,,,,0,,,50,0
185880,note_on,0,0,1,,,,,,,,,0,,,57,76
185880,note_on,0,0,3,,,,,,,,,0,,,49,54
185880,set_tempo,40,1,0,,,,,,597015,,,,,,,
185920,set_tempo,40,1,0,,,,,,600000,,,,,,,
185940,note_on,0,0,3,,,,,,,,,0,,,48,56
185940,note_on,60,0,1,,,,,,,,,0,,,57,0
185940,note_on,0,0,1,,,,,,,,,0,,,56,77
185940,note_on,60,0,3,,,,,,,,,0,,,49,0
185960,set_tempo,40,1,0,,,,,,603015,,,,,,,
186000,set_tempo,40,1,0,,,,,,606061,,,,,,,
186000,note_on,60,0,3,,,,,,,,,0,,,48,0
186000,note_on,0,0,1,,,,,,,,,0,,,55,78
186000,note_on,60,0,1,,,,,,,,,0,,,56,0
186000,note_on,0,0,3,,,,,,,,,0,,,47,57
186040,set_tempo,40,1,0,,,,,,609137,,,,,,,
186060,note_on,60,0,1,,,,,,,,,0,,,55,0
186060,set_tempo,20,1,0,,,,,,612245,,,,,,,
186060,note_on,0,0,1,,,,,,,,,0,,,54,79
186060,note_on,0,0,3,,,,,,,,,0,,,46,59
186060,note_on,60,0,3,,,,,,,,,0,,,47,0
186100,set_tempo,40,1,0,,,,,,615385,,,,,,,
186120,note_on,0,0,3,,,,,,,,,0,,,45,60
186120,note_on,0,0,1,,,,,,,,,0,,,53,81
186120,note_on,60,0,1,,,,,,,,,0,,,54,0
186120,note_on,60,0,3,,,,,,,,,0,,,46,0
186140,set_tempo,40,1,0,,,,,,618557,,,,,,,
186180,set_tempo,40,1,0,,,,,,621762,,,,,,,
186180,note_on,60,0,3,,,,,,,,,0,,,45,0
186180,note_on,0,0,3,,,,,,,,,0,,,44,62
186180,note_on,60,0,1,,,,,,,,,0,,,53,0
186180,note_on,0,0,1,,,,,,,,,0,,,52,82
186220,set_tempo,40,1,0,,,,,,625000,,,,,,,
186240,note_on,0,0,1,,,,,,,,,0,,,51,83
186240,note_on,60,0,1,,,,,,,,,0,,,52,0
186240,note_on,60,0,3,,,,,,,,,0,,,44,0
186240,note_on,0,0,3,,,,,,,,,0,,,43,66
186260,set_tempo,40,1,0,,,,,,628272,,,,,,,
186300,set_tempo,40,1,0,,,,,,631579,,,,,,,
186300,note_on,0,0,1,,,,,,,,,0,,,50,84
186300,note_on,60,0,3,,,,,,,,,0,,,43,0
186300,note_on,0,0,3,,,,,,,,,0,,,42,67
186300,note_on,60,0,1,,,,,,,,,0,,,51,0
186340,set_tempo,40,1,0,,,,,,634921,,,,,,,
186360,note_on,60,0,1,,,,,,,,,0,,,50,0
186360,note_on,0,0,3,,,,,,,,,0,,,41,69
186360,note_on,0,0,1,,,,,,,,,0,,,49,86
186360,set_tempo,20,1,0,,,,,,638298,,,,,,,
186360,note_on,60,0,3,,,,,,,,,0,,,42,0
186400,set_tempo,40,1,0,,,,,,641711,,,,,,,
186420,note_on,0,0,1,,,,,,,,,0,,,48,88
186420,note_on,60,0,1,,,,,,,,,0,,,49,0
186420,note_on,60,0,3,,,,,,,,,0,,,41,0
186420,note_on,0,0,3,,,,,,,,,0,,,40,71
186440,set_tempo,40,1,0,,,,,,645161,,,,,,,
186480,note_on,60,0,1,,,,,,,,,0,,,48,0
186480,note_on,0,0,3,,,,,,,,,0,,,39,72
186480,note_on,60,0,3,,,,,,,,,0,,,40,0
186480,set_tempo,40,1,0,,,,,,648649,,,,,,,
186480,note_on,0,0,1,,,,,,,,,0,,,47,89
186520,set_tempo,40,1,0,,,,,,652174,,,,,,,
186540,note_on,60,0,1,,,,,,,,,0,,,47,0
186540,note_on,0,0,1,,,,,,,,,0,,,46,91
186540,note_on,60,0,3,,,,,,,,,0,,,39,0
186540,note_on,0,0,3,,,,,,,,,0,,,38,74
186560,set_tempo,40,1,0,,,,,,655738,,,,,,,
186600,note_on,0,0,1,,,,,,,,,0,,,45,93
186600,note_on,60,0,3,,,,,,,,,0,,,38,0
186600,note_on,60,0,1,,,,,,,,,0,,,46,0
186600,set_tempo,40,1,0,,,,,,659341,,,,,,,
186600,note_on,0,0,3,,,,,,,,,0,,,37,75
186640,set_tempo,40,1,0,,,,,,662983,,,,,,,
186660,set_tempo,20,1,0,,,,,,666667,,,,,,,
186660,note_on,60,0,1,,,,,,,,,0,,,45,0
186660,note_on,60,0,3,,,,,,,,,0,,,37,0
186660,note_on,0,0,1,,,,,,,,,0,,,44,95
186660,note_on,0,0,3,,,,,,,,,0,,,36,77
186720,note_on,0,0,3,,,,,,,,,0,,,35,88
186720,set_tempo,60,1,0,,,,,,1008403,,,,,,,
186720,note_on,60,0,1,,,,,,,,,0,,,44,0
186720,note_on,0,0,1,,,,,,,,,0,,,43,108
186720,note_on,60,0,3,,,,,,,,,0,,,36,0
186720,note_on,0,0,3,,,,,,,,,0,,,31,88
186840,note_on,120,0,1,,,,,,,,,0,,,43,0
186840,note_on,0,0,3,,,,,,,,,0,,,31,0
186840,note_on,120,0,3,,,,,,,,,0,,,35,0
186889,control_change,49,0,3,,,,,,,,,0,64,0,,
187200,note_on,0,0,3,,,,,,,,,0,,,62,75
187200,note_on,0,0,3,,,,,,,,,0,,,59,75
187200,note_on,0,0,3,,,,,,,,,0,,,55,63
187200,note_on,360,0,1,,,,,,,,,0,,,103,113
187200,note_on,311,0,3,,,,,,,,,0,,,67,90
187200,note_on,0,0,1,,,,,,,,,0,,,91,81
187200,note_on,0,0,1,,,,,,,,,0,,,95,81
187200,note_on,0,0,1,,,,,,,,,0,,,98,96
187242,control_change,42,0,3,,,,,,,,,0,64,127,,
187320,note_on,0,0,3,,,,,,,,,0,,,59,0
187320,note_on,0,0,1,,,,,,,,,0,,,95,0
187320,note_on,0,0,1,,,,,,,,,0,,,98,0
187320,note_on,0,0,1,,,,,,,,,0,,,103,0
187320,note_on,120,0,1,,,,,,,,,0,,,91,0
187320,end_of_track,0,1,1,,,,,,,,,,,,,
187320,note_on,0,0,3,,,,,,,,,0,,,67,0
187320,note_on,78,0,3,,,,,,,,,0,,,55,0
187320,note_on,0,0,3,,,,,,,,,0,,,62,0
187934,end_of_track,0,1,3,,,,,,,,,,,,,
187934,control_change,614,0,3,,,,,,,,,0,64,0,,
188640,end_of_track,0,1,0,,,,,,,,,,,,,
188640,set_tempo,1920,1,0,,,,,,1200000,,,,,,,
