tick,type,time,meta,track,numerator,denominator,clocks_per_click,notated_32nd_notes_per_beat,key,tempo,port,program,channel,control,value,note,velocity
0,control_change,0,0,1,,,,,,,,,0,7,100,,
0,midi_port,0,1,8,,,,,,,0,,,,,,
0,midi_port,0,1,7,,,,,,,0,,,,,,
0,midi_port,0,1,6,,,,,,,0,,,,,,
0,midi_port,0,1,5,,,,,,,0,,,,,,
0,midi_port,0,1,4,,,,,,,0,,,,,,
0,midi_port,0,1,3,,,,,,,0,,,,,,
0,track_name,0,1,6,,,,,,,,,,,,,
0,midi_port,0,1,2,,,,,,,0,,,,,,
0,key_signature,0,1,0,,,,,E,,,,,,,,
0,end_of_track,0,1,8,,,,,,,,,,,,,
0,end_of_track,0,1,7,,,,,,,,,,,,,
0,end_of_track,0,1,6,,,,,,,,,,,,,
0,end_of_track,0,1,5,,,,,,,,,,,,,
0,end_of_track,0,1,4,,,,,,,,,,,,,
0,midi_port,0,1,1,,,,,,,0,,,,,,
0,program_change,0,0,1,,,,,,,,0,0,,,,
0,program_change,0,0,2,,,,,,,,0,0,,,,
0,set_tempo,0,1,0,,,,,,857143,,,,,,,
0,track_name,0,1,5,,,,,,,,,,,,,
0,track_name,0,1,4,,,,,,,,,,,,,
0,track_name,0,1,3,,,,,,,,,,,,,
0,track_name,0,1,2,,,,,,,,,,,,,
0,track_name,0,1,1,,,,,,,,,,,,,
0,track_name,0,1,0,,,,,,,,,,,,,
0,time_signature,0,1,0,2,4,24,8,,,,,,,,,
0,text,0,1,1,,,,,,,,,,,,,
0,text,0,1,0,,,,,,,,,,,,,
0,text,0,1,0,,,,,,,,,,,,,
0,text,0,1,0,,,,,,,,,,,,,
0,text,0,1,0,,,,,,,,,,,,,
0,text,0,1,0,,,,,,,,,,,,,
0,text,0,1,0,,,,,,,,,,,,,
0,text,0,1,0,,,,,,,,,,,,,
0,end_of_track,0,1,3,,,,,,,,,,,,,
0,copyright,0,1,0,,,,,,,,,,,,,
0,track_name,0,1,7,,,,,,,,,,,,,
0,control_change,0,0,2,,,,,,,,,0,7,100,,
0,control_change,0,0,2,,,,,,,,,0,64,0,,
0,control_change,0,0,1,,,,,,,,,0,91,127,,
719,control_change,0,0,1,,,,,,,,,0,91,127,,
719,control_change,719,0,2,,,,,,,,,0,64,0,,
719,control_change,719,0,1,,,,,,,,,0,64,0,,
719,control_change,0,0,2,,,,,,,,,0,91,127,,
720,note_on,1,0,1,,,,,,,,,0,,,80,44
720,note_on,0,0,1,,,,,,,,,0,,,83,49
838,note_on,118,0,1,,,,,,,,,0,,,83,0
838,note_on,0,0,1,,,,,,,,,0,,,80,0
840,note_on,0,0,1,,,,,,,,,0,,,78,40
840,note_on,2,0,1,,,,,,,,,0,,,81,46
958,note_on,118,0,1,,,,,,,,,0,,,78,0
958,note_on,0,0,1,,,,,,,,,0,,,81,0
960,note_on,2,0,1,,,,,,,,,0,,,76,47
960,note_on,0,0,1,,,,,,,,,0,,,80,52
1180,note_on,220,0,1,,,,,,,,,0,,,80,0
1180,note_on,0,0,1,,,,,,,,,0,,,76,0
1200,note_on,20,0,1,,,,,,,,,0,,,80,42
1200,note_on,0,0,1,,,,,,,,,0,,,76,38
1200,set_tempo,1200,1,0,,,,,,833333,,,,,,,
1318,note_on,0,0,1,,,,,,,,,0,,,80,0
1318,note_on,118,0,1,,,,,,,,,0,,,76,0
1320,note_on,0,0,1,,,,,,,,,0,,,78,40
1320,note_on,2,0,1,,,,,,,,,0,,,71,36
1438,note_on,0,0,1,,,,,,,,,0,,,71,0
1438,note_on,118,0,1,,,,,,,,,0,,,78,0
1440,note_on,0,0,1,,,,,,,,,0,,,76,45
1440,note_on,2,0,1,,,,,,,,,0,,,68,39
1440,set_tempo,240,1,0,,,,,,857143,,,,,,,
1660,note_on,220,0,1,,,,,,,,,0,,,76,0
1660,note_on,0,0,1,,,,,,,,,0,,,68,0
1680,note_on,0,0,1,,,,,,,,,0,,,80,42
1680,note_on,20,0,1,,,,,,,,,0,,,83,48
1680,set_tempo,240,1,0,,,,,,827586,,,,,,,
1798,note_on,0,0,1,,,,,,,,,0,,,83,0
1798,note_on,118,0,1,,,,,,,,,0,,,80,0
1800,note_on,0,0,1,,,,,,,,,0,,,81,45
1800,note_on,2,0,1,,,,,,,,,0,,,78,39
1918,note_on,0,0,1,,,,,,,,,0,,,78,0
1918,note_on,118,0,1,,,,,,,,,0,,,81,0
1920,note_on,2,0,1,,,,,,,,,0,,,76,45
1920,note_on,0,0,1,,,,,,,,,0,,,80,50
1920,set_tempo,240,1,0,,,,,,857143,,,,,,,
2140,note_on,0,0,1,,,,,,,,,0,,,76,0
2140,note_on,220,0,1,,,,,,,,,0,,,80,0
2160,note_on,0,0,1,,,,,,,,,0,,,76,38
2160,set_tempo,240,1,0,,,,,,833333,,,,,,,
2160,note_on,20,0,1,,,,,,,,,0,,,80,42
2278,note_on,118,0,1,,,,,,,,,0,,,76,0
2278,note_on,0,0,1,,,,,,,,,0,,,80,0
2280,note_on,2,0,1,,,,,,,,,0,,,71,36
2280,note_on,0,0,1,,,,,,,,,0,,,78,40
2398,note_on,0,0,1,,,,,,,,,0,,,71,0
2398,note_on,118,0,1,,,,,,,,,0,,,78,0
2400,note_on,2,0,1,,,,,,,,,0,,,76,47
2400,note_on,0,0,1,,,,,,,,,0,,,68,41
2400,set_tempo,240,1,0,,,,,,857143,,,,,,,
2620,note_on,0,0,1,,,,,,,,,0,,,76,0
2620,note_on,220,0,1,,,,,,,,,0,,,68,0
2640,set_tempo,240,1,0,,,,,,821918,,,,,,,
2640,note_on,0,0,1,,,,,,,,,0,,,68,41
2640,note_on,20,0,1,,,,,,,,,0,,,76,47
2758,note_on,118,0,1,,,,,,,,,0,,,68,0
2758,note_on,0,0,1,,,,,,,,,0,,,76,0
2760,note_on,0,0,1,,,,,,,,,0,,,78,42
2760,set_tempo,120,1,0,,,,,,821918,,,,,,,
2760,note_on,2,0,1,,,,,,,,,0,,,71,38
2878,note_on,0,0,1,,,,,,,,,0,,,71,0
2878,note_on,118,0,1,,,,,,,,,0,,,78,0
2880,set_tempo,120,1,0,,,,,,827586,,,,,,,
2880,note_on,0,0,1,,,,,,,,,0,,,76,45
2880,note_on,2,0,1,,,,,,,,,0,,,80,50
3100,note_on,0,0,1,,,,,,,,,0,,,80,0
3100,note_on,220,0,1,,,,,,,,,0,,,76,0
3120,note_on,0,0,1,,,,,,,,,0,,,78,49
3120,set_tempo,240,1,0,,,,,,789474,,,,,,,
3120,note_on,20,0,1,,,,,,,,,0,,,71,44
3238,note_on,118,0,1,,,,,,,,,0,,,78,0
3238,note_on,0,0,1,,,,,,,,,0,,,71,0
3240,note_on,0,0,1,,,,,,,,,0,,,80,45
3240,set_tempo,120,1,0,,,,,,810811,,,,,,,
3240,note_on,2,0,1,,,,,,,,,0,,,76,39
3358,note_on,118,0,1,,,,,,,,,0,,,80,0
3358,note_on,0,0,1,,,,,,,,,0,,,76,0
3360,set_tempo,120,1,0,,,,,,816327,,,,,,,
3360,note_on,0,0,1,,,,,,,,,0,,,81,53
3360,note_on,2,0,1,,,,,,,,,0,,,78,53
3580,note_on,220,0,1,,,,,,,,,0,,,81,0
3580,note_on,0,0,1,,,,,,,,,0,,,78,0
3600,note_on,0,0,1,,,,,,,,,0,,,78,50
3600,set_tempo,240,1,0,,,,,,789474,,,,,,,
3600,note_on,20,0,1,,,,,,,,,0,,,71,45
3718,note_on,0,0,1,,,,,,,,,0,,,71,0
3718,note_on,118,0,1,,,,,,,,,0,,,78,0
3720,note_on,2,0,1,,,,,,,,,0,,,78,42
3720,set_tempo,120,1,0,,,,,,810811,,,,,,,
3720,note_on,0,0,1,,,,,,,,,0,,,81,48
3838,note_on,118,0,1,,,,,,,,,0,,,81,0
3838,note_on,0,0,1,,,,,,,,,0,,,78,0
3840,note_on,2,0,1,,,,,,,,,0,,,83,56
3840,note_on,0,0,1,,,,,,,,,0,,,80,49
3840,set_tempo,120,1,0,,,,,,800000,,,,,,,
4060,note_on,0,0,1,,,,,,,,,0,,,83,0
4060,note_on,220,0,1,,,,,,,,,0,,,80,0
4080,note_on,0,0,1,,,,,,,,,0,,,81,44
4080,set_tempo,240,1,0,,,,,,784314,,,,,,,
4080,note_on,20,0,1,,,,,,,,,0,,,78,39
4198,note_on,0,0,1,,,,,,,,,0,,,78,0
4198,note_on,118,0,1,,,,,,,,,0,,,81,0
4200,set_tempo,120,1,0,,,,,,845070,,,,,,,
4200,note_on,0,0,1,,,,,,,,,0,,,76,37
4200,note_on,2,0,1,,,,,,,,,0,,,80,41
4318,note_on,118,0,1,,,,,,,,,0,,,76,0
4318,note_on,0,0,1,,,,,,,,,0,,,80,0
4320,note_on,0,0,1,,,,,,,,,0,,,78,49
4320,note_on,2,0,1,,,,,,,,,0,,,71,44
4320,set_tempo,120,1,0,,,,,,816327,,,,,,,
4540,note_on,220,0,1,,,,,,,,,0,,,78,0
4540,note_on,0,0,1,,,,,,,,,0,,,71,0
4560,note_on,0,0,1,,,,,,,,,0,,,80,44
4560,note_on,20,0,1,,,,,,,,,0,,,83,49
4560,set_tempo,240,1,0,,,,,,789474,,,,,,,
4678,note_on,0,0,1,,,,,,,,,0,,,83,0
4678,note_on,118,0,1,,,,,,,,,0,,,80,0
4680,note_on,0,0,1,,,,,,,,,0,,,81,46
4680,note_on,2,0,1,,,,,,,,,0,,,78,40
4680,set_tempo,120,1,0,,,,,,800000,,,,,,,
4798,note_on,0,0,1,,,,,,,,,0,,,78,0
4798,note_on,118,0,1,,,,,,,,,0,,,81,0
4800,note_on,2,0,1,,,,,,,,,0,,,80,55
4800,note_on,0,0,1,,,,,,,,,0,,,76,49
4800,set_tempo,120,1,0,,,,,,816327,,,,,,,
5020,note_on,0,0,1,,,,,,,,,0,,,80,0
5020,note_on,220,0,1,,,,,,,,,0,,,76,0
5040,set_tempo,240,1,0,,,,,,800000,,,,,,,
5040,note_on,0,0,1,,,,,,,,,0,,,80,45
5040,note_on,20,0,1,,,,,,,,,0,,,76,39
5158,note_on,0,0,1,,,,,,,,,0,,,76,0
5158,note_on,118,0,1,,,,,,,,,0,,,80,0
5160,note_on,0,0,1,,,,,,,,,0,,,71,37
5160,note_on,2,0,1,,,,,,,,,0,,,78,41
5278,note_on,0,0,1,,,,,,,,,0,,,78,0
5278,note_on,118,0,1,,,,,,,,,0,,,71,0
5280,note_on,0,0,1,,,,,,,,,0,,,68,44
5280,set_tempo,240,1,0,,,,,,816327,,,,,,,
5280,note_on,2,0,1,,,,,,,,,0,,,76,49
5500,note_on,220,0,1,,,,,,,,,0,,,68,0
5500,note_on,0,0,1,,,,,,,,,0,,,76,0
5520,note_on,20,0,1,,,,,,,,,0,,,80,48
5520,set_tempo,240,1,0,,,,,,774194,,,,,,,
5520,note_on,0,0,1,,,,,,,,,0,,,83,53
5638,note_on,0,0,1,,,,,,,,,0,,,80,0
5638,note_on,118,0,1,,,,,,,,,0,,,83,0
5640,set_tempo,120,1,0,,,,,,784314,,,,,,,
5640,note_on,2,0,1,,,,,,,,,0,,,81,49
5640,note_on,0,0,1,,,,,,,,,0,,,78,44
5758,note_on,118,0,1,,,,,,,,,0,,,78,0
5758,note_on,0,0,1,,,,,,,,,0,,,81,0
5760,note_on,0,0,1,,,,,,,,,0,,,80,59
5760,set_tempo,120,1,0,,,,,,800000,,,,,,,
5760,note_on,2,0,1,,,,,,,,,0,,,76,52
5980,note_on,220,0,1,,,,,,,,,0,,,80,0
5980,note_on,0,0,1,,,,,,,,,0,,,76,0
6000,note_on,20,0,1,,,,,,,,,0,,,76,39
6000,note_on,0,0,1,,,,,,,,,0,,,80,44
6000,set_tempo,240,1,0,,,,,,779221,,,,,,,
6118,note_on,118,0,1,,,,,,,,,0,,,80,0
6118,note_on,0,0,1,,,,,,,,,0,,,76,0
6120,note_on,0,0,1,,,,,,,,,0,,,78,40
6120,note_on,2,0,1,,,,,,,,,0,,,71,36
6120,set_tempo,120,1,0,,,,,,794702,,,,,,,
6238,note_on,118,0,1,,,,,,,,,0,,,78,0
6238,note_on,0,0,1,,,,,,,,,0,,,71,0
6240,set_tempo,120,1,0,,,,,,800000,,,,,,,
6240,note_on,0,0,1,,,,,,,,,0,,,76,49
6240,note_on,2,0,1,,,,,,,,,0,,,68,49
6460,note_on,220,0,1,,,,,,,,,0,,,76,0
6460,note_on,0,0,1,,,,,,,,,0,,,68,0
6480,note_on,20,0,1,,,,,,,,,0,,,68,45
6480,note_on,0,0,1,,,,,,,,,0,,,76,50
6480,set_tempo,240,1,0,,,,,,810811,,,,,,,
6598,note_on,118,0,1,,,,,,,,,0,,,76,0
6598,note_on,0,0,1,,,,,,,,,0,,,68,0
6600,note_on,0,0,1,,,,,,,,,0,,,71,40
6600,note_on,2,0,1,,,,,,,,,0,,,78,46
6600,set_tempo,120,1,0,,,,,,833333,,,,,,,
6718,note_on,118,0,1,,,,,,,,,0,,,71,0
6718,note_on,0,0,1,,,,,,,,,0,,,78,0
6720,note_on,2,0,1,,,,,,,,,0,,,76,44
6720,set_tempo,120,1,0,,,,,,821918,,,,,,,
6720,note_on,0,0,1,,,,,,,,,0,,,80,49
6940,note_on,220,0,1,,,,,,,,,0,,,80,0
6940,note_on,0,0,1,,,,,,,,,0,,,76,0
6960,note_on,0,0,1,,,,,,,,,0,,,78,39
6960,note_on,20,0,1,,,,,,,,,0,,,81,44
6960,set_tempo,240,1,0,,,,,,839161,,,,,,,
7078,note_on,118,0,1,,,,,,,,,0,,,78,0
7078,note_on,0,0,1,,,,,,,,,0,,,81,0
7080,note_on,0,0,1,,,,,,,,,0,,,76,35
7080,note_on,2,0,1,,,,,,,,,0,,,80,39
7198,note_on,118,0,1,,,,,,,,,0,,,76,0
7198,note_on,0,0,1,,,,,,,,,0,,,80,0
7200,set_tempo,240,1,0,,,,,,821918,,,,,,,
7200,note_on,2,0,1,,,,,,,,,0,,,71,37
7200,note_on,0,0,1,,,,,,,,,0,,,78,41
7420,note_on,0,0,1,,,,,,,,,0,,,71,0
7420,note_on,220,0,1,,,,,,,,,0,,,78,0
7440,note_on,0,0,1,,,,,,,,,0,,,76,36
7440,note_on,20,0,1,,,,,,,,,0,,,80,40
7440,set_tempo,240,1,0,,,,,,863309,,,,,,,
7558,note_on,118,0,1,,,,,,,,,0,,,76,0
7558,note_on,0,0,1,,,,,,,,,0,,,80,0
7560,note_on,0,0,1,,,,,,,,,0,,,78,36
7560,note_on,2,0,1,,,,,,,,,0,,,71,31
7560,set_tempo,120,1,0,,,,,,952381,,,,,,,
7678,note_on,118,0,1,,,,,,,,,0,,,78,0
7678,note_on,0,0,1,,,,,,,,,0,,,71,0
7680,note_on,0,0,1,,,,,,,,,0,,,76,38
7680,note_on,2,0,1,,,,,,,,,0,,,68,34
7920,set_tempo,360,1,0,,,,,,800000,,,,,,,
8160,note_on,0,0,1,,,,,,,,,0,,,68,0
8160,note_on,480,0,1,,,,,,,,,0,,,76,0
8400,note_on,0,0,1,,,,,,,,,0,,,64,74
8400,note_on,240,0,1,,,,,,,,,0,,,56,67
8400,set_tempo,480,1,0,,,,,,736196,,,,,,,
8458,note_on,0,0,1,,,,,,,,,0,,,56,0
8458,note_on,58,0,1,,,,,,,,,0,,,64,0
8520,set_tempo,120,1,0,,,,,,769231,,,,,,,
8520,note_on,62,0,1,,,,,,,,,0,,,64,63
8520,note_on,0,0,1,,,,,,,,,0,,,68,71
8578,note_on,58,0,1,,,,,,,,,0,,,68,0
8578,note_on,0,0,1,,,,,,,,,0,,,64,0
8640,set_tempo,120,1,0,,,,,,779221,,,,,,,
8640,note_on,62,0,1,,,,,,,,,0,,,59,73
8640,note_on,0,0,1,,,,,,,,,0,,,66,82
8860,note_on,0,0,1,,,,,,,,,0,,,59,0
8860,note_on,220,0,1,,,,,,,,,0,,,66,0
8880,set_tempo,240,1,0,,,,,,722892,,,,,,,
8880,note_on,0,0,1,,,,,,,,,0,,,68,74
8880,note_on,20,0,1,,,,,,,,,0,,,64,67
8938,note_on,58,0,1,,,,,,,,,0,,,68,0
8938,note_on,0,0,1,,,,,,,,,0,,,64,0
9000,note_on,0,0,1,,,,,,,,,0,,,66,63
9000,note_on,62,0,1,,,,,,,,,0,,,69,71
9000,set_tempo,120,1,0,,,,,,745342,,,,,,,
9058,note_on,58,0,1,,,,,,,,,0,,,66,0
9058,note_on,0,0,1,,,,,,,,,0,,,69,0
9120,note_on,62,0,1,,,,,,,,,0,,,68,71
9120,note_on,0,0,1,,,,,,,,,0,,,71,80
9120,set_tempo,120,1,0,,,,,,759494,,,,,,,
9340,note_on,0,0,1,,,,,,,,,0,,,68,0
9340,note_on,220,0,1,,,,,,,,,0,,,71,0
9360,note_on,0,0,1,,,,,,,,,0,,,69,66
9360,note_on,20,0,1,,,,,,,,,0,,,73,73
9360,set_tempo,240,1,0,,,,,,718563,,,,,,,
9418,note_on,0,0,1,,,,,,,,,0,,,73,0
9418,note_on,58,0,1,,,,,,,,,0,,,69,0
9460,set_tempo,100,1,0,,,,,,745342,,,,,,,
9480,note_on,0,0,1,,,,,,,,,0,,,68,62
9480,set_tempo,20,1,0,,,,,,779221,,,,,,,
9480,note_on,62,0,1,,,,,,,,,0,,,71,70
9538,note_on,0,0,1,,,,,,,,,0,,,71,0
9538,note_on,58,0,1,,,,,,,,,0,,,68,0
9600,note_on,62,0,1,,,,,,,,,0,,,66,70
9600,note_on,0,0,1,,,,,,,,,0,,,69,79
9600,set_tempo,120,1,0,,,,,,769231,,,,,,,
9820,note_on,0,0,1,,,,,,,,,0,,,66,0
9820,note_on,220,0,1,,,,,,,,,0,,,69,0
9840,note_on,20,0,1,,,,,,,,,0,,,68,79
9840,note_on,0,0,1,,,,,,,,,0,,,64,70
9840,set_tempo,240,1,0,,,,,,736196,,,,,,,
9898,note_on,58,0,1,,,,,,,,,0,,,64,0
9898,note_on,0,0,1,,,,,,,,,0,,,68,0
9960,set_tempo,120,1,0,,,,,,769231,,,,,,,
9960,note_on,62,0,1,,,,,,,,,0,,,66,67
9960,note_on,0,0,1,,,,,,,,,0,,,69,74
10018,note_on,58,0,1,,,,,,,,,0,,,69,0
10018,note_on,0,0,1,,,,,,,,,0,,,66,0
10080,set_tempo,120,1,0,,,,,,833333,,,,,,,
10080,note_on,62,0,1,,,,,,,,,0,,,59,74
10080,note_on,0,0,1,,,,,,,,,0,,,66,83
10300,note_on,220,0,1,,,,,,,,,0,,,66,0
10300,note_on,0,0,1,,,,,,,,,0,,,59,0
10320,set_tempo,240,1,0,,,,,,740741,,,,,,,
10320,note_on,20,0,1,,,,,,,,,0,,,56,67
10320,note_on,0,0,1,,,,,,,,,0,,,64,74
10378,note_on,58,0,1,,,,,,,,,0,,,64,0
10378,note_on,0,0,1,,,,,,,,,0,,,56,0
10440,set_tempo,120,1,0,,,,,,764331,,,,,,,
10440,note_on,0,0,1,,,,,,,,,0,,,68,72
10440,note_on,62,0,1,,,,,,,,,0,,,64,64
10498,note_on,0,0,1,,,,,,,,,0,,,64,0
10498,note_on,58,0,1,,,,,,,,,0,,,68,0
10560,note_on,62,0,1,,,,,,,,,0,,,59,73
10560,note_on,0,0,1,,,,,,,,,0,,,66,82
10560,set_tempo,120,1,0,,,,,,769231,,,,,,,
10780,note_on,0,0,1,,,,,,,,,0,,,59,0
10780,note_on,220,0,1,,,,,,,,,0,,,66,0
10800,note_on,0,0,1,,,,,,,,,0,,,64,67
10800,set_tempo,240,1,0,,,,,,697674,,,,,,,
10800,note_on,20,0,1,,,,,,,,,0,,,68,74
10858,note_on,58,0,1,,,,,,,,,0,,,64,0
10858,note_on,0,0,1,,,,,,,,,0,,,68,0
10920,note_on,62,0,1,,,,,,,,,0,,,66,63
10920,set_tempo,120,1,0,,,,,,754717,,,,,,,
10920,note_on,0,0,1,,,,,,,,,0,,,69,71
10978,note_on,0,0,1,,,,,,,,,0,,,66,0
10978,note_on,58,0,1,,,,,,,,,0,,,69,0
11040,set_tempo,120,1,0,,,,,,718563,,,,,,,
11040,note_on,62,0,1,,,,,,,,,0,,,71,80
11040,note_on,0,0,1,,,,,,,,,0,,,68,71
11260,note_on,0,0,1,,,,,,,,,0,,,71,0
11260,note_on,220,0,1,,,,,,,,,0,,,68,0
11280,set_tempo,240,1,0,,,,,,731707,,,,,,,
11280,note_on,0,0,1,,,,,,,,,0,,,69,66
11280,note_on,20,0,1,,,,,,,,,0,,,73,73
11338,note_on,0,0,1,,,,,,,,,0,,,73,0
11338,note_on,58,0,1,,,,,,,,,0,,,69,0
11400,note_on,62,0,1,,,,,,,,,0,,,68,63
11400,note_on,0,0,1,,,,,,,,,0,,,71,71
11400,set_tempo,120,1,0,,,,,,779221,,,,,,,
11458,note_on,58,0,1,,,,,,,,,0,,,71,0
11458,note_on,0,0,1,,,,,,,,,0,,,68,0
11520,note_on,62,0,1,,,,,,,,,0,,,69,77
11520,set_tempo,120,1,0,,,,,,800000,,,,,,,
11520,note_on,0,0,1,,,,,,,,,0,,,66,69
11740,note_on,0,0,1,,,,,,,,,0,,,69,0
11740,note_on,220,0,1,,,,,,,,,0,,,66,0
11760,set_tempo,240,1,0,,,,,,833333,,,,,,,
11760,note_on,0,0,1,,,,,,,,,0,,,68,79
11760,note_on,20,0,1,,,,,,,,,0,,,64,70
11818,note_on,58,0,1,,,,,,,,,0,,,68,0
11818,note_on,0,0,1,,,,,,,,,0,,,64,0
11880,note_on,0,0,1,,,,,,,,,0,,,69,74
11880,set_tempo,120,1,0,,,,,,944882,,,,,,,
11880,note_on,62,0,1,,,,,,,,,0,,,66,67
11938,note_on,58,0,1,,,,,,,,,0,,,69,0
11938,note_on,0,0,1,,,,,,,,,0,,,66,0
12000,set_tempo,120,1,0,,,,,,923077,,,,,,,
12000,note_on,0,0,1,,,,,,,,,0,,,66,74
12000,note_on,62,0,1,,,,,,,,,0,,,59,67
12180,note_on,0,0,1,,,,,,,,,0,,,59,0
12180,note_on,180,0,1,,,,,,,,,0,,,66,0
12240,note_on,60,0,1,,,,,,,,,0,,,83,53
12240,set_tempo,240,1,0,,,,,,810811,,,,,,,
12240,note_on,0,0,1,,,,,,,,,0,,,80,48
12358,note_on,0,0,1,,,,,,,,,0,,,83,0
12358,note_on,118,0,1,,,,,,,,,0,,,80,0
12360,note_on,2,0,1,,,,,,,,,0,,,78,46
12360,set_tempo,120,1,0,,,,,,816327,,,,,,,
12360,note_on,0,0,1,,,,,,,,,0,,,81,51
12478,note_on,0,0,1,,,,,,,,,0,,,78,0
12478,note_on,118,0,1,,,,,,,,,0,,,81,0
12480,set_tempo,120,1,0,,,,,,821918,,,,,,,
12480,note_on,0,0,1,,,,,,,,,0,,,76,52
12480,note_on,2,0,1,,,,,,,,,0,,,80,59
12700,note_on,220,0,1,,,,,,,,,0,,,76,0
12700,note_on,0,0,1,,,,,,,,,0,,,80,0
12720,note_on,20,0,1,,,,,,,,,0,,,76,39
12720,note_on,0,0,1,,,,,,,,,0,,,80,44
12720,set_tempo,240,1,0,,,,,,794702,,,,,,,
12838,note_on,118,0,1,,,,,,,,,0,,,80,0
12838,note_on,0,0,1,,,,,,,,,0,,,76,0
12840,note_on,2,0,1,,,,,,,,,0,,,71,37
12840,set_tempo,120,1,0,,,,,,821918,,,,,,,
12840,note_on,0,0,1,,,,,,,,,0,,,78,41
12958,note_on,0,0,1,,,,,,,,,0,,,71,0
12958,note_on,118,0,1,,,,,,,,,0,,,78,0
12960,note_on,2,0,1,,,,,,,,,0,,,68,44
12960,note_on,0,0,1,,,,,,,,,0,,,76,49
12960,set_tempo,120,1,0,,,,,,845070,,,,,,,
13180,note_on,220,0,1,,,,,,,,,0,,,76,0
13180,note_on,0,0,1,,,,,,,,,0,,,68,0
13200,note_on,0,0,1,,,,,,,,,0,,,71,74
13200,set_tempo,240,1,0,,,,,,736196,,,,,,,
13200,note_on,20,0,1,,,,,,,,,0,,,68,67
13258,note_on,0,0,1,,,,,,,,,0,,,68,0
13258,note_on,58,0,1,,,,,,,,,0,,,71,0
13320,set_tempo,120,1,0,,,,,,754717,,,,,,,
13320,note_on,62,0,1,,,,,,,,,0,,,66,61
13320,note_on,0,0,1,,,,,,,,,0,,,69,69
13378,note_on,0,0,1,,,,,,,,,0,,,66,0
13378,note_on,58,0,1,,,,,,,,,0,,,69,0
13440,note_on,0,0,1,,,,,,,,,0,,,64,72
13440,note_on,62,0,1,,,,,,,,,0,,,68,81
13440,set_tempo,120,1,0,,,,,,800000,,,,,,,
13660,note_on,220,0,1,,,,,,,,,0,,,64,0
13660,note_on,0,0,1,,,,,,,,,0,,,68,0
13680,set_tempo,240,1,0,,,,,,750000,,,,,,,
13680,note_on,20,0,1,,,,,,,,,0,,,64,66
13680,note_on,0,0,1,,,,,,,,,0,,,68,73
13738,note_on,58,0,1,,,,,,,,,0,,,68,0
13738,note_on,0,0,1,,,,,,,,,0,,,64,0
13800,note_on,0,0,1,,,,,,,,,0,,,59,61
13800,note_on,62,0,1,,,,,,,,,0,,,66,69
13800,set_tempo,120,1,0,,,,,,794702,,,,,,,
13858,note_on,0,0,1,,,,,,,,,0,,,66,0
13858,note_on,58,0,1,,,,,,,,,0,,,59,0
13920,set_tempo,120,1,0,,,,,,833333,,,,,,,
13920,note_on,0,0,1,,,,,,,,,0,,,56,71
13920,note_on,62,0,1,,,,,,,,,0,,,64,80
14100,note_on,0,0,1,,,,,,,,,0,,,64,0
14100,note_on,180,0,1,,,,,,,,,0,,,56,0
14160,set_tempo,240,1,0,,,,,,810811,,,,,,,
14160,note_on,60,0,1,,,,,,,,,0,,,68,45
14160,note_on,0,0,1,,,,,,,,,0,,,76,50
14278,note_on,118,0,1,,,,,,,,,0,,,76,0
14278,note_on,0,0,1,,,,,,,,,0,,,68,0
14280,note_on,2,0,1,,,,,,,,,0,,,78,46
14280,note_on,0,0,1,,,,,,,,,0,,,71,40
14280,set_tempo,120,1,0,,,,,,833333,,,,,,,
14398,note_on,118,0,1,,,,,,,,,0,,,71,0
14398,note_on,0,0,1,,,,,,,,,0,,,78,0
14400,note_on,2,0,1,,,,,,,,,0,,,76,44
14400,set_tempo,120,1,0,,,,,,821918,,,,,,,
14400,note_on,0,0,1,,,,,,,,,0,,,80,49
14620,note_on,0,0,1,,,,,,,,,0,,,76,0
14620,note_on,220,0,1,,,,,,,,,0,,,80,0
14640,set_tempo,240,1,0,,,,,,839161,,,,,,,
14640,note_on,0,0,1,,,,,,,,,0,,,81,44
14640,note_on,20,0,1,,,,,,,,,0,,,78,39
14758,note_on,0,0,1,,,,,,,,,0,,,78,0
14758,note_on,118,0,1,,,,,,,,,0,,,81,0
14760,note_on,0,0,1,,,,,,,,,0,,,80,39
14760,note_on,2,0,1,,,,,,,,,0,,,76,35
14878,note_on,118,0,1,,,,,,,,,0,,,80,0
14878,note_on,0,0,1,,,,,,,,,0,,,76,0
14880,note_on,2,0,1,,,,,,,,,0,,,71,37
14880,set_tempo,240,1,0,,,,,,821918,,,,,,,
14880,note_on,0,0,1,,,,,,,,,0,,,78,41
15100,note_on,0,0,1,,,,,,,,,0,,,71,0
15100,note_on,220,0,1,,,,,,,,,0,,,78,0
15120,note_on,0,0,1,,,,,,,,,0,,,80,40
15120,set_tempo,240,1,0,,,,,,923077,,,,,,,
15120,note_on,20,0,1,,,,,,,,,0,,,76,36
15238,note_on,0,0,1,,,,,,,,,0,,,76,0
15238,note_on,118,0,1,,,,,,,,,0,,,80,0
15240,note_on,2,0,1,,,,,,,,,0,,,78,36
15240,note_on,0,0,1,,,,,,,,,0,,,71,31
15240,set_tempo,120,1,0,,,,,,1176471,,,,,,,
15358,note_on,0,0,1,,,,,,,,,0,,,78,0
15358,note_on,118,0,1,,,,,,,,,0,,,71,0
15360,note_on,2,0,1,,,,,,,,,0,,,68,34
15360,set_tempo,120,1,0,,,,,,1025641,,,,,,,
15360,note_on,0,0,1,,,,,,,,,0,,,76,38
15840,note_on,480,0,1,,,,,,,,,0,,,76,0
15840,note_on,0,0,1,,,,,,,,,0,,,68,0
16040,set_tempo,680,1,0,,,,,,844357,,,,,,,
16079,control_change,239,0,1,,,,,,,,,0,91,127,,
16079,control_change,15360,0,2,,,,,,,,,0,91,127,,
16080,note_on,0,0,1,,,,,,,,,0,,,95,48
16080,set_tempo,40,1,0,,,,,,701754,,,,,,,
16080,note_on,1,0,1,,,,,,,,,0,,,92,42
16198,note_on,0,0,1,,,,,,,,,0,,,92,0
16198,note_on,118,0,1,,,,,,,,,0,,,95,0
16200,note_on,2,0,1,,,,,,,,,0,,,90,39
16200,note_on,0,0,1,,,,,,,,,0,,,93,44
16318,note_on,118,0,1,,,,,,,,,0,,,93,0
16318,note_on,0,0,1,,,,,,,,,0,,,90,0
16320,note_on,2,0,1,,,,,,,,,0,,,92,52
16320,set_tempo,240,1,0,,,,,,722892,,,,,,,
16320,control_change,0,0,2,,,,,,,,,0,64,127,,
16320,note_on,241,0,2,,,,,,,,,0,,,52,42
16320,note_on,0,0,2,,,,,,,,,0,,,59,42
16320,note_on,0,0,1,,,,,,,,,0,,,88,47
16438,note_on,118,0,2,,,,,,,,,0,,,59,0
16440,note_on,2,0,2,,,,,,,,,0,,,64,39
16550,note_on,230,0,1,,,,,,,,,0,,,88,0
16550,note_on,0,0,1,,,,,,,,,0,,,92,0
16558,note_on,118,0,2,,,,,,,,,0,,,64,0
16560,note_on,10,0,1,,,,,,,,,0,,,88,38
16560,set_tempo,240,1,0,,,,,,697674,,,,,,,
16560,note_on,2,0,2,,,,,,,,,0,,,71,36
16560,note_on,0,0,1,,,,,,,,,0,,,92,42
16678,note_on,118,0,1,,,,,,,,,0,,,92,0
16678,note_on,0,0,1,,,,,,,,,0,,,88,0
16680,note_on,2,0,1,,,,,,,,,0,,,90,39
16680,note_on,0,0,1,,,,,,,,,0,,,83,35
16790,note_on,230,0,2,,,,,,,,,0,,,71,0
16798,note_on,118,0,1,,,,,,,,,0,,,83,0
16798,note_on,0,0,1,,,,,,,,,0,,,90,0
16800,note_on,10,0,2,,,,,,,,,0,,,52,0
16800,set_tempo,240,1,0,,,,,,718563,,,,,,,
16800,note_on,2,0,1,,,,,,,,,0,,,80,40
16800,note_on,0,0,1,,,,,,,,,0,,,88,46
16800,note_on,0,0,2,,,,,,,,,0,,,64,42
16800,note_on,0,0,2,,,,,,,,,0,,,71,42
16918,note_on,118,0,2,,,,,,,,,0,,,64,0
16920,note_on,2,0,2,,,,,,,,,0,,,59,40
17030,note_on,230,0,1,,,,,,,,,0,,,88,0
17030,note_on,0,0,1,,,,,,,,,0,,,80,0
17038,note_on,118,0,2,,,,,,,,,0,,,59,0
17040,note_on,0,0,1,,,,,,,,,0,,,80,41
17040,note_on,2,0,2,,,,,,,,,0,,,52,39
17040,note_on,10,0,1,,,,,,,,,0,,,83,47
17040,set_tempo,240,1,0,,,,,,693642,,,,,,,
17158,note_on,118,0,1,,,,,,,,,0,,,80,0
17158,note_on,0,0,1,,,,,,,,,0,,,83,0
17160,note_on,0,0,1,,,,,,,,,0,,,81,41
17160,note_on,2,0,1,,,,,,,,,0,,,78,37
17202,control_change,162,0,2,,,,,,,,,0,64,0,,
17270,note_on,68,0,2,,,,,,,,,0,,,52,0
17278,note_on,0,0,1,,,,,,,,,0,,,78,0
17278,note_on,118,0,1,,,,,,,,,0,,,81,0
17280,note_on,0,0,2,,,,,,,,,0,,,59,40
17280,note_on,10,0,2,,,,,,,,,0,,,71,0
17280,set_tempo,240,1,0,,,,,,718563,,,,,,,
17280,note_on,0,0,1,,,,,,,,,0,,,80,50
17280,note_on,2,0,1,,,,,,,,,0,,,76,45
17280,control_change,0,0,2,,,,,,,,,0,64,127,,
17280,note_on,0,0,2,,,,,,,,,0,,,52,36
17398,note_on,118,0,2,,,,,,,,,0,,,59,0
17400,note_on,2,0,2,,,,,,,,,0,,,64,39
17510,note_on,230,0,1,,,,,,,,,0,,,80,0
17510,note_on,0,0,1,,,,,,,,,0,,,76,0
17518,note_on,118,0,2,,,,,,,,,0,,,64,0
17520,note_on,2,0,2,,,,,,,,,0,,,71,39
17520,note_on,10,0,1,,,,,,,,,0,,,76,38
17520,note_on,0,0,1,,,,,,,,,0,,,80,42
17520,set_tempo,240,1,0,,,,,,693642,,,,,,,
17638,note_on,0,0,1,,,,,,,,,0,,,76,0
17638,note_on,118,0,1,,,,,,,,,0,,,80,0
17640,note_on,2,0,1,,,,,,,,,0,,,78,39
17640,note_on,0,0,1,,,,,,,,,0,,,71,35
17750,note_on,230,0,2,,,,,,,,,0,,,71,0
17758,note_on,118,0,1,,,,,,,,,0,,,71,0
17758,note_on,0,0,1,,,,,,,,,0,,,78,0
17760,note_on,0,0,2,,,,,,,,,0,,,71,41
17760,note_on,2,0,1,,,,,,,,,0,,,68,47
17760,note_on,10,0,2,,,,,,,,,0,,,52,0
17760,note_on,0,0,1,,,,,,,,,0,,,76,47
17760,note_on,0,0,2,,,,,,,,,0,,,64,41
17760,set_tempo,240,1,0,,,,,,714286,,,,,,,
17878,note_on,118,0,2,,,,,,,,,0,,,64,0
17880,note_on,2,0,2,,,,,,,,,0,,,59,39
17990,note_on,230,0,1,,,,,,,,,0,,,76,0
17990,note_on,0,0,1,,,,,,,,,0,,,68,0
17998,note_on,118,0,2,,,,,,,,,0,,,59,0
18000,note_on,0,0,1,,,,,,,,,0,,,68,41
18000,set_tempo,240,1,0,,,,,,677966,,,,,,,
18000,note_on,10,0,1,,,,,,,,,0,,,76,47
18000,note_on,2,0,2,,,,,,,,,0,,,52,39
18118,note_on,118,0,1,,,,,,,,,0,,,68,0
18118,note_on,0,0,1,,,,,,,,,0,,,76,0
18120,note_on,2,0,1,,,,,,,,,0,,,78,42
18120,set_tempo,120,1,0,,,,,,728597,,,,,,,
18120,note_on,0,0,1,,,,,,,,,0,,,71,38
18120,control_change,120,0,2,,,,,,,,,0,64,0,,
18230,note_on,110,0,2,,,,,,,,,0,,,52,0
18238,note_on,118,0,1,,,,,,,,,0,,,71,0
18238,note_on,0,0,1,,,,,,,,,0,,,78,0
18240,note_on,10,0,2,,,,,,,,,0,,,71,0
18240,note_on,2,0,1,,,,,,,,,0,,,76,45
18240,set_tempo,120,1,0,,,,,,710059,,,,,,,
18240,note_on,0,0,1,,,,,,,,,0,,,80,50
18240,control_change,0,0,2,,,,,,,,,0,64,127,,
18240,note_on,0,0,2,,,,,,,,,0,,,59,40
18240,note_on,0,0,2,,,,,,,,,0,,,52,40
18358,note_on,118,0,2,,,,,,,,,0,,,52,0
18360,note_on,2,0,2,,,,,,,,,0,,,64,37
18470,note_on,0,0,1,,,,,,,,,0,,,76,0
18470,note_on,110,0,2,,,,,,,,,0,,,59,0
18470,note_on,230,0,1,,,,,,,,,0,,,80,0
18478,note_on,8,0,2,,,,,,,,,0,,,64,0
18480,note_on,10,0,1,,,,,,,,,0,,,78,48
18480,note_on,0,0,1,,,,,,,,,0,,,71,42
18480,set_tempo,240,1,0,,,,,,677966,,,,,,,
18598,note_on,0,0,1,,,,,,,,,0,,,78,0
18598,note_on,118,0,1,,,,,,,,,0,,,71,0
18600,set_tempo,120,1,0,,,,,,718735,,,,,,,
18600,note_on,2,0,1,,,,,,,,,0,,,76,38
18600,note_on,0,0,1,,,,,,,,,0,,,80,42
18718,note_on,118,0,1,,,,,,,,,0,,,80,0
18718,note_on,0,0,1,,,,,,,,,0,,,76,0
18720,note_on,0,0,2,,,,,,,,,0,,,71,40
18720,note_on,2,0,1,,,,,,,,,0,,,78,48
18720,set_tempo,120,1,0,,,,,,705882,,,,,,,
18720,note_on,0,0,1,,,,,,,,,0,,,81,53
18720,note_on,242,0,2,,,,,,,,,0,,,63,36
18840,note_on,120,0,2,,,,,,,,,0,,,59,37
18950,note_on,230,0,1,,,,,,,,,0,,,81,0
18950,note_on,0,0,1,,,,,,,,,0,,,78,0
18950,note_on,0,0,2,,,,,,,,,0,,,63,0
18950,note_on,110,0,2,,,,,,,,,0,,,71,0
18958,note_on,8,0,2,,,,,,,,,0,,,59,0
18960,note_on,10,0,1,,,,,,,,,0,,,71,45
18960,set_tempo,240,1,0,,,,,,677966,,,,,,,
18960,note_on,0,0,1,,,,,,,,,0,,,78,50
19078,note_on,118,0,1,,,,,,,,,0,,,78,0
19078,note_on,0,0,1,,,,,,,,,0,,,71,0
19080,note_on,2,0,1,,,,,,,,,0,,,78,41
19080,set_tempo,120,1,0,,,,,,718735,,,,,,,
19080,note_on,0,0,1,,,,,,,,,0,,,81,47
19087,control_change,129,0,2,,,,,,,,,0,64,0,,
19198,note_on,118,0,1,,,,,,,,,0,,,81,0
19198,note_on,0,0,1,,,,,,,,,0,,,78,0
19200,note_on,113,0,2,,,,,,,,,0,,,52,35
19200,note_on,2,0,1,,,,,,,,,0,,,80,49
19200,note_on,0,0,2,,,,,,,,,0,,,59,39
19200,control_change,0,0,2,,,,,,,,,0,64,127,,
19200,set_tempo,120,1,0,,,,,,705882,,,,,,,
19200,note_on,0,0,1,,,,,,,,,0,,,83,56
19320,note_on,120,0,2,,,,,,,,,0,,,64,37
19430,note_on,0,0,2,,,,,,,,,0,,,52,0
19430,note_on,230,0,1,,,,,,,,,0,,,83,0
19430,note_on,0,0,1,,,,,,,,,0,,,80,0
19430,note_on,110,0,2,,,,,,,,,0,,,59,0
19438,note_on,8,0,2,,,,,,,,,0,,,64,0
19440,note_on,0,0,1,,,,,,,,,0,,,78,39
19440,note_on,10,0,1,,,,,,,,,0,,,81,44
19440,set_tempo,240,1,0,,,,,,674157,,,,,,,
19558,note_on,118,0,1,,,,,,,,,0,,,78,0
19558,note_on,0,0,1,,,,,,,,,0,,,81,0
19560,set_tempo,120,1,0,,,,,,701754,,,,,,,
19560,note_on,2,0,1,,,,,,,,,0,,,76,36
19560,note_on,0,0,1,,,,,,,,,0,,,80,40
19602,control_change,164,0,2,,,,,,,,,0,64,0,,
19678,note_on,118,0,1,,,,,,,,,0,,,80,0
19678,note_on,0,0,1,,,,,,,,,0,,,76,0
19680,set_tempo,120,1,0,,,,,,710059,,,,,,,
19680,note_on,78,0,2,,,,,,,,,0,,,66,39
19680,note_on,0,0,1,,,,,,,,,0,,,71,44
19680,note_on,2,0,1,,,,,,,,,0,,,78,49
19680,note_on,0,0,2,,,,,,,,,0,,,63,35
19800,note_on,120,0,2,,,,,,,,,0,,,59,36
19910,note_on,230,0,1,,,,,,,,,0,,,71,0
19910,note_on,0,0,2,,,,,,,,,0,,,66,0
19910,note_on,0,0,1,,,,,,,,,0,,,78,0
19910,note_on,110,0,2,,,,,,,,,0,,,63,0
19918,note_on,8,0,2,,,,,,,,,0,,,59,0
19920,note_on,0,0,1,,,,,,,,,0,,,95,48
19920,note_on,10,0,1,,,,,,,,,0,,,92,42
19920,set_tempo,240,1,0,,,,,,701754,,,,,,,
20038,note_on,118,0,1,,,,,,,,,0,,,95,0
20038,note_on,0,0,1,,,,,,,,,0,,,92,0
20040,note_on,2,0,1,,,,,,,,,0,,,90,39
20040,note_on,0,0,1,,,,,,,,,0,,,93,44
20158,note_on,118,0,1,,,,,,,,,0,,,93,0
20158,note_on,0,0,1,,,,,,,,,0,,,90,0
20160,note_on,2,0,1,,,,,,,,,0,,,88,47
20160,note_on,0,0,1,,,,,,,,,0,,,92,52
20160,control_change,242,0,2,,,,,,,,,0,64,127,,
20160,set_tempo,240,1,0,,,,,,722892,,,,,,,
20160,note_on,0,0,2,,,,,,,,,0,,,59,42
20160,note_on,0,0,2,,,,,,,,,0,,,52,38
20278,note_on,118,0,2,,,,,,,,,0,,,59,0
20280,note_on,2,0,2,,,,,,,,,0,,,64,39
20390,note_on,230,0,1,,,,,,,,,0,,,92,0
20390,note_on,0,0,1,,,,,,,,,0,,,88,0
20398,note_on,118,0,2,,,,,,,,,0,,,64,0
20400,note_on,2,0,2,,,,,,,,,0,,,71,36
20400,set_tempo,240,1,0,,,,,,697674,,,,,,,
20400,note_on,0,0,1,,,,,,,,,0,,,88,38
20400,note_on,10,0,1,,,,,,,,,0,,,92,42
20518,note_on,118,0,1,,,,,,,,,0,,,88,0
20518,note_on,0,0,1,,,,,,,,,0,,,92,0
20520,note_on,0,0,1,,,,,,,,,0,,,90,39
20520,note_on,2,0,1,,,,,,,,,0,,,83,35
20630,note_on,230,0,2,,,,,,,,,0,,,71,0
20638,note_on,0,0,1,,,,,,,,,0,,,83,0
20638,note_on,118,0,1,,,,,,,,,0,,,90,0
20640,note_on,0,0,1,,,,,,,,,0,,,80,40
20640,note_on,0,0,2,,,,,,,,,0,,,71,42
20640,set_tempo,240,1,0,,,,,,718563,,,,,,,
20640,note_on,10,0,2,,,,,,,,,0,,,52,0
20640,note_on,2,0,1,,,,,,,,,0,,,88,46
20640,note_on,0,0,2,,,,,,,,,0,,,64,42
20758,note_on,118,0,2,,,,,,,,,0,,,64,0
20760,note_on,2,0,2,,,,,,,,,0,,,59,39
20870,note_on,0,0,1,,,,,,,,,0,,,88,0
20870,note_on,230,0,1,,,,,,,,,0,,,80,0
20878,note_on,118,0,2,,,,,,,,,0,,,59,0
20880,note_on,2,0,2,,,,,,,,,0,,,52,39
20880,note_on,10,0,1,,,,,,,,,0,,,80,41
20880,note_on,0,0,1,,,,,,,,,0,,,83,47
20880,set_tempo,240,1,0,,,,,,693642,,,,,,,
20998,note_on,118,0,1,,,,,,,,,0,,,83,0
20998,note_on,0,0,1,,,,,,,,,0,,,80,0
21000,note_on,0,0,1,,,,,,,,,0,,,81,42
21000,note_on,2,0,1,,,,,,,,,0,,,78,38
21042,control_change,162,0,2,,,,,,,,,0,64,0,,
21110,note_on,68,0,2,,,,,,,,,0,,,52,0
21118,note_on,0,0,1,,,,,,,,,0,,,78,0
21118,note_on,118,0,1,,,,,,,,,0,,,81,0
21120,note_on,0,0,2,,,,,,,,,0,,,59,40
21120,note_on,0,0,2,,,,,,,,,0,,,52,36
21120,control_change,0,0,2,,,,,,,,,0,64,127,,
21120,note_on,0,0,1,,,,,,,,,0,,,76,45
21120,set_tempo,240,1,0,,,,,,714286,,,,,,,
21120,note_on,2,0,1,,,,,,,,,0,,,80,50
21120,note_on,10,0,2,,,,,,,,,0,,,71,0
21238,note_on,118,0,2,,,,,,,,,0,,,59,0
21240,note_on,2,0,2,,,,,,,,,0,,,64,39
21350,note_on,230,0,1,,,,,,,,,0,,,76,0
21350,note_on,0,0,1,,,,,,,,,0,,,80,0
21358,note_on,118,0,2,,,,,,,,,0,,,64,0
21360,note_on,2,0,2,,,,,,,,,0,,,71,39
21360,set_tempo,240,1,0,,,,,,674157,,,,,,,
21360,note_on,0,0,1,,,,,,,,,0,,,80,42
21360,note_on,10,0,1,,,,,,,,,0,,,76,38
21478,note_on,0,0,1,,,,,,,,,0,,,76,0
21478,note_on,118,0,1,,,,,,,,,0,,,80,0
21480,note_on,0,0,1,,,,,,,,,0,,,78,39
21480,note_on,2,0,1,,,,,,,,,0,,,71,35
21480,set_tempo,120,1,0,,,,,,677966,,,,,,,
21590,note_on,230,0,2,,,,,,,,,0,,,71,0
21598,note_on,0,0,1,,,,,,,,,0,,,71,0
21598,note_on,118,0,1,,,,,,,,,0,,,78,0
21600,note_on,0,0,2,,,,,,,,,0,,,64,41
21600,note_on,0,0,1,,,,,,,,,0,,,76,47
21600,note_on,10,0,2,,,,,,,,,0,,,52,0
21600,set_tempo,120,1,0,,,,,,705882,,,,,,,
21600,note_on,2,0,1,,,,,,,,,0,,,68,41
21600,note_on,0,0,2,,,,,,,,,0,,,71,41
21718,note_on,118,0,2,,,,,,,,,0,,,64,0
21720,note_on,2,0,2,,,,,,,,,0,,,59,39
21830,note_on,230,0,1,,,,,,,,,0,,,76,0
21830,note_on,0,0,1,,,,,,,,,0,,,68,0
21838,note_on,118,0,2,,,,,,,,,0,,,59,0
21840,note_on,2,0,2,,,,,,,,,0,,,52,39
21840,set_tempo,240,1,0,,,,,,674157,,,,,,,
21840,note_on,10,0,1,,,,,,,,,0,,,68,41
21840,note_on,0,0,1,,,,,,,,,0,,,76,47
21958,note_on,118,0,1,,,,,,,,,0,,,76,0
21958,note_on,0,0,1,,,,,,,,,0,,,68,0
21960,set_tempo,120,1,0,,,,,,681818,,,,,,,
21960,note_on,2,0,1,,,,,,,,,0,,,71,38
21960,control_change,120,0,2,,,,,,,,,0,64,0,,
21960,note_on,0,0,1,,,,,,,,,0,,,78,42
22070,note_on,110,0,2,,,,,,,,,0,,,52,0
22078,note_on,118,0,1,,,,,,,,,0,,,78,0
22078,note_on,0,0,1,,,,,,,,,0,,,71,0
22080,note_on,0,0,2,,,,,,,,,0,,,52,40
22080,note_on,2,0,1,,,,,,,,,0,,,80,50
22080,set_tempo,120,1,0,,,,,,705882,,,,,,,
22080,note_on,10,0,2,,,,,,,,,0,,,71,0
22080,note_on,0,0,1,,,,,,,,,0,,,76,45
22080,control_change,0,0,2,,,,,,,,,0,64,127,,
22080,note_on,0,0,2,,,,,,,,,0,,,59,40
22198,note_on,118,0,2,,,,,,,,,0,,,52,0
22200,note_on,2,0,2,,,,,,,,,0,,,64,37
22310,note_on,230,0,1,,,,,,,,,0,,,76,0
22310,note_on,110,0,2,,,,,,,,,0,,,59,0
22310,note_on,0,0,1,,,,,,,,,0,,,80,0
22318,note_on,8,0,2,,,,,,,,,0,,,64,0
22320,note_on,10,0,1,,,,,,,,,0,,,78,44
22320,note_on,0,0,1,,,,,,,,,0,,,81,49
22320,set_tempo,240,1,0,,,,,,689655,,,,,,,
22438,note_on,0,0,1,,,,,,,,,0,,,78,0
22438,note_on,118,0,1,,,,,,,,,0,,,81,0
22440,note_on,0,0,1,,,,,,,,,0,,,76,39
22440,set_tempo,120,1,0,,,,,,718735,,,,,,,
22440,note_on,2,0,1,,,,,,,,,0,,,80,44
22558,note_on,0,0,1,,,,,,,,,0,,,80,0
22558,note_on,118,0,1,,,,,,,,,0,,,76,0
22560,note_on,2,0,1,,,,,,,,,0,,,78,46
22560,note_on,0,0,1,,,,,,,,,0,,,71,40
22560,note_on,242,0,2,,,,,,,,,0,,,69,40
22560,note_on,0,0,2,,,,,,,,,0,,,63,40
22560,set_tempo,120,1,0,,,,,,685714,,,,,,,
22680,note_on,120,0,2,,,,,,,,,0,,,59,37
22790,note_on,0,0,2,,,,,,,,,0,,,69,0
22790,note_on,0,0,1,,,,,,,,,0,,,78,0
22790,note_on,230,0,1,,,,,,,,,0,,,71,0
22790,note_on,110,0,2,,,,,,,,,0,,,63,0
22798,note_on,8,0,2,,,,,,,,,0,,,59,0
22800,note_on,0,0,1,,,,,,,,,0,,,80,50
22800,note_on,10,0,1,,,,,,,,,0,,,76,45
22800,set_tempo,240,1,0,,,,,,718563,,,,,,,
22918,note_on,118,0,1,,,,,,,,,0,,,80,0
22918,note_on,0,0,1,,,,,,,,,0,,,76,0
22920,note_on,0,0,1,,,,,,,,,0,,,71,38
22920,set_tempo,120,1,0,,,,,,750000,,,,,,,
22920,note_on,2,0,1,,,,,,,,,0,,,78,42
22927,control_change,129,0,2,,,,,,,,,0,64,0,,
23038,note_on,118,0,1,,,,,,,,,0,,,71,0
23038,note_on,0,0,1,,,,,,,,,0,,,78,0
23040,note_on,2,0,1,,,,,,,,,0,,,68,39
23040,note_on,113,0,2,,,,,,,,,0,,,52,44
23040,control_change,0,0,2,,,,,,,,,0,64,127,,
23040,note_on,0,0,1,,,,,,,,,0,,,76,44
23158,note_on,118,0,2,,,,,,,,,0,,,52,0
23160,set_tempo,240,1,0,,,,,,714286,,,,,,,
23160,note_on,2,0,2,,,,,,,,,0,,,59,36
23278,note_on,118,0,2,,,,,,,,,0,,,59,0
23280,note_on,2,0,2,,,,,,,,,0,,,68,38
23280,set_tempo,120,1,0,,,,,,731707,,,,,,,
23398,note_on,118,0,2,,,,,,,,,0,,,68,0
23400,note_on,2,0,2,,,,,,,,,0,,,64,36
23480,set_tempo,200,1,0,,,,,,713861,,,,,,,
23518,note_on,118,0,2,,,,,,,,,0,,,64,0
23520,note_on,2,0,2,,,,,,,,,0,,,71,44
23520,note_on,480,0,1,,,,,,,,,0,,,76,0
23520,note_on,0,0,1,,,,,,,,,0,,,68,0
23689,control_change,169,0,2,,,,,,,,,0,64,0,,
23750,note_on,61,0,2,,,,,,,,,0,,,71,0
23760,note_on,0,0,1,,,,,,,,,0,,,64,74
23760,set_tempo,280,1,0,,,,,,681818,,,,,,,
23760,note_on,240,0,1,,,,,,,,,0,,,56,67
23818,note_on,0,0,1,,,,,,,,,0,,,56,0
23818,note_on,58,0,1,,,,,,,,,0,,,64,0
23880,note_on,62,0,1,,,,,,,,,0,,,64,62
23880,set_tempo,120,1,0,,,,,,727273,,,,,,,
23880,note_on,0,0,1,,,,,,,,,0,,,68,70
23938,note_on,0,0,1,,,,,,,,,0,,,64,0
23938,note_on,58,0,1,,,,,,,,,0,,,68,0
24000,note_on,0,0,1,,,,,,,,,0,,,66,82
24000,note_on,62,0,1,,,,,,,,,0,,,59,73
24000,set_tempo,120,1,0,,,,,,710059,,,,,,,
24220,note_on,220,0,1,,,,,,,,,0,,,66,0
24220,note_on,0,0,1,,,,,,,,,0,,,59,0
24240,note_on,0,0,1,,,,,,,,,0,,,68,74
24240,note_on,20,0,1,,,,,,,,,0,,,64,67
24240,set_tempo,240,1,0,,,,,,659341,,,,,,,
24298,note_on,0,0,1,,,,,,,,,0,,,64,0
24298,note_on,58,0,1,,,,,,,,,0,,,68,0
24360,note_on,0,0,1,,,,,,,,,0,,,69,72
24360,set_tempo,120,1,0,,,,,,681818,,,,,,,
24360,note_on,62,0,1,,,,,,,,,0,,,66,64
24418,note_on,0,0,1,,,,,,,,,0,,,66,0
24418,note_on,58,0,1,,,,,,,,,0,,,69,0
24480,note_on,0,0,1,,,,,,,,,0,,,68,71
24480,set_tempo,120,1,0,,,,,,701754,,,,,,,
24480,note_on,62,0,1,,,,,,,,,0,,,71,80
24700,note_on,0,0,1,,,,,,,,,0,,,71,0
24700,note_on,220,0,1,,,,,,,,,0,,,68,0
24720,set_tempo,240,1,0,,,,,,648649,,,,,,,
24720,note_on,0,0,1,,,,,,,,,0,,,73,77
24720,note_on,20,0,1,,,,,,,,,0,,,69,69
24778,note_on,0,0,1,,,,,,,,,0,,,69,0
24778,note_on,58,0,1,,,,,,,,,0,,,73,0
24840,note_on,62,0,1,,,,,,,,,0,,,71,72
24840,note_on,0,0,1,,,,,,,,,0,,,68,64
24840,set_tempo,120,1,0,,,,,,681818,,,,,,,
24898,note_on,0,0,1,,,,,,,,,0,,,71,0
24898,note_on,58,0,1,,,,,,,,,0,,,68,0
24960,set_tempo,120,1,0,,,,,,714286,,,,,,,
24960,note_on,62,0,1,,,,,,,,,0,,,69,83
24960,note_on,0,0,1,,,,,,,,,0,,,66,74
25180,note_on,0,0,1,,,,,,,,,0,,,69,0
25180,note_on,220,0,1,,,,,,,,,0,,,66,0
25200,set_tempo,240,1,0,,,,,,641711,,,,,,,
25200,note_on,20,0,1,,,,,,,,,0,,,64,68
25200,note_on,0,0,1,,,,,,,,,0,,,68,75
25258,note_on,58,0,1,,,,,,,,,0,,,68,0
25258,note_on,0,0,1,,,,,,,,,0,,,64,0
25320,note_on,0,0,1,,,,,,,,,0,,,66,64
25320,note_on,62,0,1,,,,,,,,,0,,,69,72
25320,set_tempo,120,1,0,,,,,,681818,,,,,,,
25378,note_on,0,0,1,,,,,,,,,0,,,69,0
25378,note_on,58,0,1,,,,,,,,,0,,,66,0
25440,note_on,0,0,1,,,,,,,,,0,,,66,83
25440,note_on,62,0,1,,,,,,,,,0,,,59,74
25440,set_tempo,120,1,0,,,,,,714286,,,,,,,
25660,set_tempo,220,1,0,,,,,,670391,,,,,,,
25660,note_on,220,0,1,,,,,,,,,0,,,66,0
25660,note_on,0,0,1,,,,,,,,,0,,,59,0
25680,set_tempo,20,1,0,,,,,,685714,,,,,,,
25680,note_on,20,0,1,,,,,,,,,0,,,56,67
25680,note_on,0,0,1,,,,,,,,,0,,,64,74
25738,note_on,0,0,1,,,,,,,,,0,,,56,0
25738,note_on,58,0,1,,,,,,,,,0,,,64,0
25800,note_on,62,0,1,,,,,,,,,0,,,64,63
25800,note_on,0,0,1,,,,,,,,,0,,,68,71
25800,set_tempo,120,1,0,,,,,,710059,,,,,,,
25858,note_on,0,0,1,,,,,,,,,0,,,64,0
25858,note_on,58,0,1,,,,,,,,,0,,,68,0
25920,note_on,62,0,1,,,,,,,,,0,,,59,73
25920,note_on,0,0,1,,,,,,,,,0,,,66,82
25920,set_tempo,120,1,0,,,,,,722892,,,,,,,
26140,note_on,0,0,1,,,,,,,,,0,,,59,0
26140,note_on,220,0,1,,,,,,,,,0,,,66,0
26160,note_on,20,0,1,,,,,,,,,0,,,64,67
26160,set_tempo,240,1,0,,,,,,641711,,,,,,,
26160,note_on,0,0,1,,,,,,,,,0,,,68,74
26218,note_on,0,0,1,,,,,,,,,0,,,64,0
26218,note_on,58,0,1,,,,,,,,,0,,,68,0
26280,note_on,0,0,1,,,,,,,,,0,,,66,63
26280,set_tempo,120,1,0,,,,,,701754,,,,,,,
26280,note_on,62,0,1,,,,,,,,,0,,,69,71
26338,note_on,0,0,1,,,,,,,,,0,,,69,0
26338,note_on,58,0,1,,,,,,,,,0,,,66,0
26400,note_on,62,0,1,,,,,,,,,0,,,68,71
26400,note_on,0,0,1,,,,,,,,,0,,,71,80
26400,set_tempo,120,1,0,,,,,,689655,,,,,,,
26620,note_on,0,0,1,,,,,,,,,0,,,68,0
26620,note_on,220,0,1,,,,,,,,,0,,,71,0
26640,set_tempo,240,1,0,,,,,,670391,,,,,,,
26640,note_on,0,0,1,,,,,,,,,0,,,69,71
26640,note_on,20,0,1,,,,,,,,,0,,,73,80
26698,note_on,58,0,1,,,,,,,,,0,,,69,0
26698,note_on,0,0,1,,,,,,,,,0,,,73,0
26760,set_tempo,120,1,0,,,,,,718563,,,,,,,
26760,note_on,0,0,1,,,,,,,,,0,,,68,69
26760,note_on,62,0,1,,,,,,,,,0,,,71,77
26818,note_on,0,0,1,,,,,,,,,0,,,71,0
26818,note_on,58,0,1,,,,,,,,,0,,,68,0
26880,note_on,0,0,1,,,,,,,,,0,,,69,83
26880,note_on,62,0,1,,,,,,,,,0,,,66,74
26880,set_tempo,120,1,0,,,,,,869565,,,,,,,
27100,note_on,0,0,1,,,,,,,,,0,,,66,0
27100,note_on,220,0,1,,,,,,,,,0,,,69,0
27120,note_on,0,0,1,,,,,,,,,0,,,64,67
27120,note_on,20,0,1,,,,,,,,,0,,,68,74
27120,set_tempo,240,1,0,,,,,,1071429,,,,,,,
27178,note_on,0,0,1,,,,,,,,,0,,,68,0
27178,note_on,58,0,1,,,,,,,,,0,,,64,0
27240,note_on,62,0,1,,,,,,,,,0,,,66,63
27240,note_on,0,0,1,,,,,,,,,0,,,69,71
27240,set_tempo,120,1,0,,,,,,1188119,,,,,,,
27298,note_on,0,0,1,,,,,,,,,0,,,66,0
27298,note_on,58,0,1,,,,,,,,,0,,,69,0
27360,note_on,62,0,1,,,,,,,,,0,,,59,64
27360,note_on,0,0,1,,,,,,,,,0,,,66,72
27360,set_tempo,120,1,0,,,,,,1904762,,,,,,,
27540,note_on,180,0,1,,,,,,,,,0,,,66,0
27540,note_on,0,0,1,,,,,,,,,0,,,59,0
27600,note_on,0,0,1,,,,,,,,,0,,,95,48
27600,note_on,60,0,1,,,,,,,,,0,,,92,42
27600,set_tempo,240,1,0,,,,,,701754,,,,,,,
27718,note_on,118,0,1,,,,,,,,,0,,,95,0
27718,note_on,0,0,1,,,,,,,,,0,,,92,0
27720,note_on,0,0,1,,,,,,,,,0,,,90,40
27720,note_on,2,0,1,,,,,,,,,0,,,93,46
27838,note_on,0,0,1,,,,,,,,,0,,,93,0
27838,note_on,118,0,1,,,,,,,,,0,,,90,0
27840,note_on,0,0,2,,,,,,,,,0,,,59,42
27840,note_on,4090,0,2,,,,,,,,,0,,,52,38
27840,control_change,0,0,2,,,,,,,,,0,64,127,,
27840,note_on,2,0,1,,,,,,,,,0,,,88,47
27840,set_tempo,240,1,0,,,,,,722892,,,,,,,
27840,note_on,0,0,1,,,,,,,,,0,,,92,52
27958,note_on,118,0,2,,,,,,,,,0,,,59,0
27960,note_on,2,0,2,,,,,,,,,0,,,64,38
28070,note_on,230,0,1,,,,,,,,,0,,,92,0
28070,note_on,0,0,1,,,,,,,,,0,,,88,0
28078,note_on,118,0,2,,,,,,,,,0,,,64,0
28080,set_tempo,240,1,0,,,,,,697674,,,,,,,
28080,note_on,10,0,1,,,,,,,,,0,,,92,42
28080,note_on,0,0,1,,,,,,,,,0,,,88,38
28080,note_on,2,0,2,,,,,,,,,0,,,71,36
28198,note_on,0,0,1,,,,,,,,,0,,,92,0
28198,note_on,118,0,1,,,,,,,,,0,,,88,0
28200,note_on,0,0,1,,,,,,,,,0,,,90,39
28200,note_on,2,0,1,,,,,,,,,0,,,83,35
28310,note_on,230,0,2,,,,,,,,,0,,,71,0
28318,note_on,118,0,1,,,,,,,,,0,,,90,0
28318,note_on,0,0,1,,,,,,,,,0,,,83,0
28320,note_on,0,0,1,,,,,,,,,0,,,88,46
28320,note_on,10,0,2,,,,,,,,,0,,,52,0
28320,note_on,0,0,2,,,,,,,,,0,,,64,42
28320,set_tempo,240,1,0,,,,,,718563,,,,,,,
28320,note_on,2,0,1,,,,,,,,,0,,,80,40
28320,note_on,0,0,2,,,,,,,,,0,,,71,42
28438,note_on,118,0,2,,,,,,,,,0,,,64,0
28440,note_on,2,0,2,,,,,,,,,0,,,59,38
28550,note_on,0,0,1,,,,,,,,,0,,,80,0
28550,note_on,230,0,1,,,,,,,,,0,,,88,0
28558,note_on,118,0,2,,,,,,,,,0,,,59,0
28560,note_on,10,0,1,,,,,,,,,0,,,83,47
28560,note_on,2,0,2,,,,,,,,,0,,,52,39
28560,note_on,0,0,1,,,,,,,,,0,,,80,41
28560,set_tempo,240,1,0,,,,,,693642,,,,,,,
28678,note_on,118,0,1,,,,,,,,,0,,,80,0
28678,note_on,0,0,1,,,,,,,,,0,,,83,0
28680,note_on,0,0,1,,,,,,,,,0,,,81,42
28680,note_on,2,0,1,,,,,,,,,0,,,78,38
28722,control_change,162,0,2,,,,,,,,,0,64,0,,
28790,note_on,68,0,2,,,,,,,,,0,,,52,0
28798,note_on,118,0,1,,,,,,,,,0,,,81,0
28798,note_on,0,0,1,,,,,,,,,0,,,78,0
28800,note_on,0,0,2,,,,,,,,,0,,,59,40
28800,set_tempo,240,1,0,,,,,,718563,,,,,,,
28800,note_on,0,0,1,,,,,,,,,0,,,80,50
28800,control_change,0,0,2,,,,,,,,,0,64,127,,
28800,note_on,10,0,2,,,,,,,,,0,,,71,0
28800,note_on,2,0,1,,,,,,,,,0,,,76,45
28800,note_on,0,0,2,,,,,,,,,0,,,52,36
28918,note_on,118,0,2,,,,,,,,,0,,,59,0
28920,note_on,2,0,2,,,,,,,,,0,,,64,39
29030,note_on,230,0,1,,,,,,,,,0,,,80,0
29030,note_on,0,0,1,,,,,,,,,0,,,76,0
29038,note_on,118,0,2,,,,,,,,,0,,,64,0
29040,set_tempo,240,1,0,,,,,,693642,,,,,,,
29040,note_on,0,0,1,,,,,,,,,0,,,76,38
29040,note_on,10,0,1,,,,,,,,,0,,,80,42
29040,note_on,2,0,2,,,,,,,,,0,,,71,39
29158,note_on,0,0,1,,,,,,,,,0,,,80,0
29158,note_on,118,0,1,,,,,,,,,0,,,76,0
29160,note_on,2,0,1,,,,,,,,,0,,,71,36
29160,note_on,0,0,1,,,,,,,,,0,,,78,40
29270,note_on,230,0,2,,,,,,,,,0,,,71,0
29278,note_on,0,0,1,,,,,,,,,0,,,71,0
29278,note_on,118,0,1,,,,,,,,,0,,,78,0
29280,note_on,2,0,1,,,,,,,,,0,,,76,47
29280,set_tempo,240,1,0,,,,,,714286,,,,,,,
29280,note_on,0,0,1,,,,,,,,,0,,,68,41
29280,note_on,0,0,2,,,,,,,,,0,,,64,41
29280,note_on,10,0,2,,,,,,,,,0,,,52,0
29280,note_on,0,0,2,,,,,,,,,0,,,71,41
29398,note_on,118,0,2,,,,,,,,,0,,,64,0
29400,note_on,2,0,2,,,,,,,,,0,,,59,39
29510,note_on,230,0,1,,,,,,,,,0,,,68,0
29510,note_on,0,0,1,,,,,,,,,0,,,76,0
29518,note_on,118,0,2,,,,,,,,,0,,,59,0
29520,set_tempo,240,1,0,,,,,,750000,,,,,,,
29520,note_on,10,0,1,,,,,,,,,0,,,64,47
29520,note_on,0,0,1,,,,,,,,,0,,,56,41
29520,note_on,2,0,2,,,,,,,,,0,,,52,39
29578,note_on,0,0,1,,,,,,,,,0,,,64,0
29578,note_on,58,0,1,,,,,,,,,0,,,56,0
29640,note_on,62,0,1,,,,,,,,,0,,,59,37
29640,note_on,0,0,1,,,,,,,,,0,,,66,41
29640,control_change,120,0,2,,,,,,,,,0,64,0,,
29698,note_on,0,0,1,,,,,,,,,0,,,59,0
29698,note_on,58,0,1,,,,,,,,,0,,,66,0
29750,note_on,110,0,2,,,,,,,,,0,,,52,0
29760,set_tempo,240,1,0,,,,,,789474,,,,,,,
29760,note_on,10,0,2,,,,,,,,,0,,,71,0
29760,note_on,62,0,1,,,,,,,,,0,,,68,50
29760,note_on,0,0,1,,,,,,,,,0,,,64,45
29990,note_on,0,0,1,,,,,,,,,0,,,68,0
29990,note_on,230,0,1,,,,,,,,,0,,,64,0
30000,note_on,0,0,1,,,,,,,,,0,,,69,47
30000,note_on,10,0,1,,,,,,,,,0,,,66,41
30000,set_tempo,240,1,0,,,,,,882353,,,,,,,
30058,note_on,0,0,1,,,,,,,,,0,,,66,0
30058,note_on,58,0,1,,,,,,,,,0,,,69,0
30120,set_tempo,120,1,0,,,,,,882353,,,,,,,
30120,note_on,0,0,1,,,,,,,,,0,,,68,41
30120,note_on,62,0,1,,,,,,,,,0,,,64,37
30178,note_on,58,0,1,,,,,,,,,0,,,68,0
30178,note_on,0,0,1,,,,,,,,,0,,,64,0
30220,set_tempo,100,1,0,,,,,,895522,,,,,,,
30240,note_on,0,0,1,,,,,,,,,0,,,66,41
30240,note_on,62,0,1,,,,,,,,,0,,,59,37
30470,note_on,230,0,1,,,,,,,,,0,,,66,0
30470,note_on,0,0,1,,,,,,,,,0,,,59,0
30480,note_on,10,0,1,,,,,,,,,0,,,64,40
30480,note_on,0,0,1,,,,,,,,,0,,,68,46
30480,set_tempo,260,1,0,,,,,,1081081,,,,,,,
30538,note_on,58,0,1,,,,,,,,,0,,,68,0
30538,note_on,0,0,1,,,,,,,,,0,,,64,0
30600,note_on,62,0,1,,,,,,,,,0,,,59,35
30600,set_tempo,120,1,0,,,,,,1250000,,,,,,,
30600,note_on,0,0,1,,,,,,,,,0,,,66,39
30658,note_on,58,0,1,,,,,,,,,0,,,66,0
30658,note_on,0,0,1,,,,,,,,,0,,,59,0
30700,set_tempo,100,1,0,,,,,,1100917,,,,,,,
30720,note_on,62,0,1,,,,,,,,,0,,,64,40
30720,note_on,0,0,1,,,,,,,,,0,,,56,36
31200,set_tempo,500,1,0,,,,,,670391,,,,,,,
31200,note_on,0,0,1,,,,,,,,,0,,,64,0
31200,note_on,480,0,1,,,,,,,,,0,,,56,0
31440,note_on,0,0,1,,,,,,,,,0,,,71,74
31440,set_tempo,240,1,0,,,,,,888889,,,,,,,
31440,note_on,240,0,1,,,,,,,,,0,,,59,66
31558,note_on,0,0,1,,,,,,,,,0,,,59,0
31558,note_on,118,0,1,,,,,,,,,0,,,71,0
31680,note_on,0,0,1,,,,,,,,,0,,,71,82
31680,key_signature,240,1,0,,,,,G,,,,,,,,
31680,note_on,0,0,1,,,,,,,,,0,,,67,74
31680,note_on,0,0,1,,,,,,,,,0,,,64,74
31680,set_tempo,0,1,0,,,,,,774194,,,,,,,
31680,note_on,122,0,1,,,,,,,,,0,,,59,74
31680,note_on,0,0,2,,,,,,,,,0,,,47,74
31680,note_on,1920,0,2,,,,,,,,,0,,,40,66
31860,note_on,180,0,2,,,,,,,,,0,,,47,0
31860,note_on,0,0,2,,,,,,,,,0,,,40,0
31920,note_on,0,0,1,,,,,,,,,0,,,67,0
31920,note_on,0,0,1,,,,,,,,,0,,,64,0
31920,note_on,240,0,1,,,,,,,,,0,,,71,0
31920,note_on,0,0,1,,,,,,,,,0,,,59,0
31920,set_tempo,240,1,0,,,,,,666667,,,,,,,
31920,note_on,0,0,1,,,,,,,,,0,,,57,74
32010,note_on,90,0,1,,,,,,,,,0,,,57,0
32040,note_on,30,0,1,,,,,,,,,0,,,55,70
32040,set_tempo,120,1,0,,,,,,816327,,,,,,,
32098,note_on,58,0,1,,,,,,,,,0,,,55,0
32160,set_tempo,120,1,0,,,,,,745342,,,,,,,
32160,note_on,0,0,2,,,,,,,,,0,,,47,69
32160,note_on,0,0,1,,,,,,,,,0,,,69,82
32160,note_on,0,0,1,,,,,,,,,0,,,66,74
32160,note_on,300,0,2,,,,,,,,,0,,,39,62
32160,note_on,62,0,1,,,,,,,,,0,,,57,74
32340,note_on,180,0,2,,,,,,,,,0,,,47,0
32340,note_on,0,0,2,,,,,,,,,0,,,39,0
32400,note_on,0,0,1,,,,,,,,,0,,,55,74
32400,note_on,0,0,1,,,,,,,,,0,,,57,0
32400,note_on,0,0,1,,,,,,,,,0,,,66,0
32400,note_on,240,0,1,,,,,,,,,0,,,69,0
32400,set_tempo,240,1,0,,,,,,670391,,,,,,,
32490,note_on,90,0,1,,,,,,,,,0,,,55,0
32520,note_on,30,0,1,,,,,,,,,0,,,54,69
32520,set_tempo,120,1,0,,,,,,794702,,,,,,,
32578,note_on,58,0,1,,,,,,,,,0,,,54,0
32640,note_on,300,0,2,,,,,,,,,0,,,40,66
32640,set_tempo,120,1,0,,,,,,745342,,,,,,,
32640,note_on,0,0,1,,,,,,,,,0,,,64,82
32640,note_on,0,0,2,,,,,,,,,0,,,47,74
32640,note_on,62,0,1,,,,,,,,,0,,,55,74
32640,note_on,0,0,1,,,,,,,,,0,,,60,74
32820,note_on,0,0,2,,,,,,,,,0,,,40,0
32820,note_on,180,0,2,,,,,,,,,0,,,47,0
32880,note_on,0,0,1,,,,,,,,,0,,,60,0
32880,set_tempo,240,1,0,,,,,,674157,,,,,,,
32880,note_on,240,0,1,,,,,,,,,0,,,64,0
32880,note_on,0,0,1,,,,,,,,,0,,,55,0
32880,note_on,0,0,1,,,,,,,,,0,,,54,74
32970,note_on,90,0,1,,,,,,,,,0,,,54,0
33000,set_tempo,120,1,0,,,,,,784314,,,,,,,
33000,note_on,30,0,1,,,,,,,,,0,,,52,70
33058,note_on,58,0,1,,,,,,,,,0,,,52,0
33120,note_on,0,0,1,,,,,,,,,0,,,60,78
33120,note_on,62,0,1,,,,,,,,,0,,,55,78
33120,note_on,0,0,1,,,,,,,,,0,,,64,88
33120,note_on,0,0,2,,,,,,,,,0,,,48,68
33120,note_on,300,0,2,,,,,,,,,0,,,36,61
33120,set_tempo,120,1,0,,,,,,745342,,,,,,,
33300,note_on,0,0,2,,,,,,,,,0,,,36,0
33300,note_on,180,0,2,,,,,,,,,0,,,48,0
33360,note_on,0,0,1,,,,,,,,,0,,,60,0
33360,set_tempo,240,1,0,,,,,,685714,,,,,,,
33360,note_on,0,0,1,,,,,,,,,0,,,54,74
33360,note_on,0,0,1,,,,,,,,,0,,,55,0
33360,note_on,240,0,1,,,,,,,,,0,,,64,0
33450,note_on,90,0,1,,,,,,,,,0,,,54,0
33480,note_on,30,0,1,,,,,,,,,0,,,52,69
33480,set_tempo,120,1,0,,,,,,805369,,,,,,,
33538,note_on,58,0,1,,,,,,,,,0,,,52,0
33600,note_on,0,0,1,,,,,,,,,0,,,59,75
33600,note_on,62,0,1,,,,,,,,,0,,,55,75
33600,note_on,0,0,2,,,,,,,,,0,,,47,72
33600,note_on,300,0,2,,,,,,,,,0,,,35,64
33600,set_tempo,120,1,0,,,,,,745342,,,,,,,
33600,note_on,0,0,1,,,,,,,,,0,,,67,84
33600,note_on,0,0,1,,,,,,,,,0,,,64,75
33780,note_on,180,0,2,,,,,,,,,0,,,47,0
33780,note_on,0,0,2,,,,,,,,,0,,,35,0
33840,note_on,0,0,1,,,,,,,,,0,,,54,74
33840,note_on,240,0,1,,,,,,,,,0,,,64,0
33840,note_on,0,0,1,,,,,,,,,0,,,55,0
33840,note_on,0,0,1,,,,,,,,,0,,,59,0
33840,note_on,0,0,1,,,,,,,,,0,,,67,0
33840,set_tempo,240,1,0,,,,,,697674,,,,,,,
33930,note_on,90,0,1,,,,,,,,,0,,,54,0
33960,note_on,30,0,1,,,,,,,,,0,,,52,69
33960,set_tempo,120,1,0,,,,,,800000,,,,,,,
34018,note_on,58,0,1,,,,,,,,,0,,,52,0
34080,note_on,62,0,1,,,,,,,,,0,,,52,73
34080,set_tempo,120,1,0,,,,,,745342,,,,,,,
34080,note_on,0,0,1,,,,,,,,,0,,,64,81
34080,note_on,300,0,2,,,,,,,,,0,,,34,61
34080,note_on,0,0,1,,,,,,,,,0,,,61,73
34080,note_on,0,0,2,,,,,,,,,0,,,46,68
34080,note_on,0,0,1,,,,,,,,,0,,,55,73
34260,note_on,0,0,2,,,,,,,,,0,,,34,0
34260,note_on,180,0,2,,,,,,,,,0,,,46,0
34320,note_on,0,0,1,,,,,,,,,0,,,55,0
34320,note_on,0,0,1,,,,,,,,,0,,,61,0
34320,note_on,0,0,1,,,,,,,,,0,,,52,0
34320,note_on,240,0,1,,,,,,,,,0,,,64,0
34320,set_tempo,240,1,0,,,,,,774194,,,,,,,
34320,note_on,0,0,1,,,,,,,,,0,,,51,74
34410,note_on,90,0,1,,,,,,,,,0,,,51,0
34440,note_on,30,0,1,,,,,,,,,0,,,52,69
34440,set_tempo,120,1,0,,,,,,882353,,,,,,,
34530,note_on,90,0,1,,,,,,,,,0,,,52,0
34560,note_on,0,0,2,,,,,,,,,0,,,47,77
34560,note_on,30,0,1,,,,,,,,,0,,,67,88
34560,note_on,0,0,1,,,,,,,,,0,,,64,78
34560,note_on,300,0,2,,,,,,,,,0,,,35,68
34560,set_tempo,120,1,0,,,,,,839161,,,,,,,
34560,note_on,0,0,1,,,,,,,,,0,,,55,78
34560,note_on,0,0,1,,,,,,,,,0,,,59,78
35040,note_on,0,0,1,,,,,,,,,0,,,64,0
35040,note_on,0,0,1,,,,,,,,,0,,,63,73
35040,note_on,480,0,2,,,,,,,,,0,,,47,0
35040,note_on,480,0,1,,,,,,,,,0,,,55,0
35040,note_on,0,0,1,,,,,,,,,0,,,59,0
35040,note_on,0,0,1,,,,,,,,,0,,,54,73
35040,note_on,0,0,1,,,,,,,,,0,,,66,81
35040,note_on,0,0,1,,,,,,,,,0,,,67,0
35040,note_on,0,0,2,,,,,,,,,0,,,35,0
35040,note_on,0,0,2,,,,,,,,,0,,,35,64
35040,note_on,0,0,2,,,,,,,,,0,,,47,73
35280,note_on,0,0,1,,,,,,,,,0,,,63,0
35280,note_on,240,0,1,,,,,,,,,0,,,66,0
35280,note_on,240,0,2,,,,,,,,,0,,,47,0
35280,note_on,0,0,1,,,,,,,,,0,,,62,80
35280,note_on,0,0,1,,,,,,,,,0,,,54,0
35280,note_on,0,0,2,,,,,,,,,0,,,35,0
35280,set_tempo,720,1,0,,,,,,805369,,,,,,,
35280,note_on,0,0,1,,,,,,,,,0,,,50,80
35398,note_on,0,0,1,,,,,,,,,0,,,50,0
35398,note_on,118,0,1,,,,,,,,,0,,,62,0
35520,note_on,122,0,1,,,,,,,,,0,,,55,85
35520,note_on,240,0,2,,,,,,,,,0,,,31,74
35520,note_on,0,0,1,,,,,,,,,0,,,59,85
35520,note_on,0,0,1,,,,,,,,,0,,,62,85
35520,note_on,0,0,1,,,,,,,,,0,,,67,94
35520,set_tempo,240,1,0,,,,,,774194,,,,,,,
35520,note_on,0,0,2,,,,,,,,,0,,,43,82
35700,note_on,180,0,2,,,,,,,,,0,,,43,0
35700,note_on,0,0,2,,,,,,,,,0,,,31,0
35760,note_on,0,0,1,,,,,,,,,0,,,62,0
35760,note_on,240,0,1,,,,,,,,,0,,,67,0
35760,note_on,0,0,1,,,,,,,,,0,,,59,0
35760,note_on,0,0,1,,,,,,,,,0,,,55,0
35760,note_on,0,0,1,,,,,,,,,0,,,54,74
35760,set_tempo,240,1,0,,,,,,681818,,,,,,,
35818,note_on,58,0,1,,,,,,,,,0,,,54,0
35880,note_on,62,0,1,,,,,,,,,0,,,55,68
35880,set_tempo,120,1,0,,,,,,816327,,,,,,,
35938,note_on,58,0,1,,,,,,,,,0,,,55,0
36000,set_tempo,120,1,0,,,,,,745342,,,,,,,
36000,note_on,0,0,1,,,,,,,,,0,,,57,80
36000,note_on,0,0,1,,,,,,,,,0,,,66,80
36000,note_on,0,0,1,,,,,,,,,0,,,69,90
36000,note_on,300,0,2,,,,,,,,,0,,,38,66
36000,note_on,62,0,1,,,,,,,,,0,,,62,80
36000,note_on,0,0,2,,,,,,,,,0,,,50,74
36180,note_on,0,0,2,,,,,,,,,0,,,38,0
36180,note_on,180,0,2,,,,,,,,,0,,,50,0
36240,note_on,0,0,1,,,,,,,,,0,,,66,0
36240,note_on,240,0,1,,,,,,,,,0,,,69,0
36240,note_on,0,0,1,,,,,,,,,0,,,62,0
36240,note_on,0,0,1,,,,,,,,,0,,,57,0
36240,note_on,0,0,1,,,,,,,,,0,,,55,74
36240,set_tempo,240,1,0,,,,,,693642,,,,,,,
36298,note_on,58,0,1,,,,,,,,,0,,,55,0
36360,set_tempo,120,1,0,,,,,,794702,,,,,,,
36360,note_on,62,0,1,,,,,,,,,0,,,57,68
36418,note_on,58,0,1,,,,,,,,,0,,,57,0
36480,note_on,300,0,2,,,,,,,,,0,,,43,66
36480,note_on,0,0,1,,,,,,,,,0,,,71,82
36480,note_on,62,0,1,,,,,,,,,0,,,67,74
36480,set_tempo,120,1,0,,,,,,745342,,,,,,,
36480,note_on,0,0,1,,,,,,,,,0,,,62,74
36480,note_on,0,0,1,,,,,,,,,0,,,59,74
36480,note_on,0,0,2,,,,,,,,,0,,,55,74
36660,note_on,180,0,2,,,,,,,,,0,,,55,0
36660,note_on,0,0,2,,,,,,,,,0,,,43,0
36720,note_on,0,0,1,,,,,,,,,0,,,62,0
36720,set_tempo,240,1,0,,,,,,710059,,,,,,,
36720,note_on,0,0,1,,,,,,,,,0,,,59,0
36720,note_on,240,0,1,,,,,,,,,0,,,71,0
36720,note_on,0,0,1,,,,,,,,,0,,,67,0
36720,note_on,0,0,1,,,,,,,,,0,,,57,74
36778,note_on,58,0,1,,,,,,,,,0,,,57,0
36840,note_on,62,0,1,,,,,,,,,0,,,59,69
36840,set_tempo,120,1,0,,,,,,827586,,,,,,,
36898,note_on,58,0,1,,,,,,,,,0,,,59,0
36960,note_on,0,0,1,,,,,,,,,0,,,60,84
36960,note_on,0,0,1,,,,,,,,,0,,,64,84
36960,note_on,0,0,1,,,,,,,,,0,,,72,93
36960,note_on,300,0,2,,,,,,,,,0,,,36,62
36960,note_on,62,0,1,,,,,,,,,0,,,67,84
36960,set_tempo,120,1,0,,,,,,740741,,,,,,,
36960,note_on,0,0,2,,,,,,,,,0,,,48,69
37140,note_on,180,0,2,,,,,,,,,0,,,48,0
37140,note_on,0,0,2,,,,,,,,,0,,,36,0
37200,note_on,240,0,1,,,,,,,,,0,,,72,0
37200,note_on,0,0,1,,,,,,,,,0,,,62,74
37200,set_tempo,240,1,0,,,,,,693642,,,,,,,
37200,note_on,0,0,1,,,,,,,,,0,,,60,0
37200,note_on,0,0,1,,,,,,,,,0,,,64,0
37200,note_on,0,0,1,,,,,,,,,0,,,67,0
37258,note_on,58,0,1,,,,,,,,,0,,,62,0
37320,set_tempo,120,1,0,,,,,,731707,,,,,,,
37320,note_on,62,0,1,,,,,,,,,0,,,64,69
37378,note_on,58,0,1,,,,,,,,,0,,,64,0
37440,note_on,300,0,2,,,,,,,,,0,,,38,64
37440,note_on,0,0,1,,,,,,,,,0,,,71,86
37440,set_tempo,120,1,0,,,,,,718563,,,,,,,
37440,note_on,0,0,1,,,,,,,,,0,,,62,77
37440,note_on,0,0,1,,,,,,,,,0,,,59,77
37440,note_on,62,0,1,,,,,,,,,0,,,55,77
37440,note_on,0,0,2,,,,,,,,,0,,,50,72
37620,note_on,180,0,2,,,,,,,,,0,,,50,0
37620,note_on,0,0,2,,,,,,,,,0,,,38,0
37680,note_on,240,0,1,,,,,,,,,0,,,62,0
37680,note_on,0,0,1,,,,,,,,,0,,,55,0
37680,set_tempo,240,1,0,,,,,,685714,,,,,,,
37680,note_on,0,0,1,,,,,,,,,0,,,57,74
37680,note_on,0,0,1,,,,,,,,,0,,,59,0
37680,note_on,0,0,1,,,,,,,,,0,,,71,0
37738,note_on,58,0,1,,,,,,,,,0,,,57,0
37800,set_tempo,120,1,0,,,,,,774194,,,,,,,
37800,note_on,62,0,1,,,,,,,,,0,,,59,69
37858,note_on,58,0,1,,,,,,,,,0,,,59,0
37920,set_tempo,120,1,0,,,,,,745342,,,,,,,
37920,note_on,0,0,1,,,,,,,,,0,,,60,75
37920,note_on,0,0,1,,,,,,,,,0,,,66,75
37920,note_on,0,0,1,,,,,,,,,0,,,69,85
37920,note_on,62,0,1,,,,,,,,,0,,,57,75
37920,note_on,300,0,2,,,,,,,,,0,,,38,61
37920,note_on,0,0,2,,,,,,,,,0,,,50,68
38100,note_on,0,0,2,,,,,,,,,0,,,38,0
38100,note_on,180,0,2,,,,,,,,,0,,,50,0
38160,note_on,240,0,1,,,,,,,,,0,,,69,0
38160,set_tempo,240,1,0,,,,,,810811,,,,,,,
38160,note_on,0,0,1,,,,,,,,,0,,,66,0
38160,note_on,0,0,1,,,,,,,,,0,,,59,74
38160,note_on,0,0,1,,,,,,,,,0,,,57,0
38160,note_on,0,0,1,,,,,,,,,0,,,60,0
38218,note_on,58,0,1,,,,,,,,,0,,,59,0
38280,note_on,62,0,1,,,,,,,,,0,,,54,68
38280,set_tempo,120,1,0,,,,,,902256,,,,,,,
38338,note_on,58,0,1,,,,,,,,,0,,,54,0
38400,note_on,0,0,2,,,,,,,,,0,,,43,81
38400,note_on,62,0,1,,,,,,,,,0,,,67,92
38400,note_on,0,0,1,,,,,,,,,0,,,55,82
38400,note_on,300,0,2,,,,,,,,,0,,,31,73
38400,note_on,0,0,1,,,,,,,,,0,,,62,82
38400,set_tempo,120,1,0,,,,,,816327,,,,,,,
38400,note_on,0,0,1,,,,,,,,,0,,,59,82
38880,note_on,480,0,1,,,,,,,,,0,,,55,0
38880,note_on,480,0,2,,,,,,,,,0,,,43,0
38880,note_on,0,0,2,,,,,,,,,0,,,31,0
38880,note_on,0,0,1,,,,,,,,,0,,,67,0
38880,note_on,0,0,1,,,,,,,,,0,,,59,0
38880,note_on,0,0,1,,,,,,,,,0,,,62,0
39120,set_tempo,720,1,0,,,,,,805369,,,,,,,
39120,note_on,240,0,1,,,,,,,,,0,,,59,69
39120,note_on,0,0,1,,,,,,,,,0,,,71,78
39238,note_on,118,0,1,,,,,,,,,0,,,71,0
39238,note_on,0,0,1,,,,,,,,,0,,,59,0
39360,note_on,0,0,2,,,,,,,,,0,,,47,66
39360,note_on,0,0,1,,,,,,,,,0,,,69,85
39360,note_on,0,0,2,,,,,,,,,0,,,39,66
39360,set_tempo,240,1,0,,,,,,759494,,,,,,,
39360,note_on,122,0,1,,,,,,,,,0,,,57,75
39360,note_on,0,0,1,,,,,,,,,0,,,66,75
39360,note_on,480,0,2,,,,,,,,,0,,,51,74
39540,note_on,0,0,2,,,,,,,,,0,,,51,0
39540,note_on,0,0,2,,,,,,,,,0,,,39,0
39540,note_on,180,0,2,,,,,,,,,0,,,47,0
39600,note_on,0,0,1,,,,,,,,,0,,,55,70
39600,note_on,240,0,1,,,,,,,,,0,,,69,0
39600,set_tempo,240,1,0,,,,,,681818,,,,,,,
39600,note_on,0,0,1,,,,,,,,,0,,,57,0
39600,note_on,0,0,1,,,,,,,,,0,,,66,0
39658,note_on,58,0,1,,,,,,,,,0,,,55,0
39720,note_on,62,0,1,,,,,,,,,0,,,54,68
39720,set_tempo,120,1,0,,,,,,789474,,,,,,,
39778,note_on,58,0,1,,,,,,,,,0,,,54,0
39840,note_on,0,0,1,,,,,,,,,0,,,64,79
39840,note_on,0,0,1,,,,,,,,,0,,,55,70
39840,note_on,62,0,1,,,,,,,,,0,,,60,70
39840,note_on,0,0,2,,,,,,,,,0,,,40,60
39840,note_on,0,0,2,,,,,,,,,0,,,52,67
39840,set_tempo,120,1,0,,,,,,750000,,,,,,,
39840,note_on,300,0,2,,,,,,,,,0,,,47,60
40020,note_on,0,0,2,,,,,,,,,0,,,40,0
40020,note_on,0,0,2,,,,,,,,,0,,,47,0
40020,note_on,180,0,2,,,,,,,,,0,,,52,0
40080,note_on,0,0,1,,,,,,,,,0,,,55,0
40080,note_on,240,0,1,,,,,,,,,0,,,64,0
40080,note_on,0,0,1,,,,,,,,,0,,,60,0
40080,note_on,0,0,1,,,,,,,,,0,,,54,72
40080,set_tempo,240,1,0,,,,,,689655,,,,,,,
40138,note_on,58,0,1,,,,,,,,,0,,,54,0
40200,note_on,62,0,1,,,,,,,,,0,,,52,68
40200,set_tempo,120,1,0,,,,,,769231,,,,,,,
40258,note_on,58,0,1,,,,,,,,,0,,,52,0
40320,note_on,0,0,1,,,,,,,,,0,,,51,72
40320,set_tempo,120,1,0,,,,,,740741,,,,,,,
40320,note_on,0,0,1,,,,,,,,,0,,,59,72
40320,note_on,62,0,1,,,,,,,,,0,,,63,80
40320,note_on,0,0,2,,,,,,,,,0,,,35,60
40320,note_on,300,0,2,,,,,,,,,0,,,42,60
40320,note_on,0,0,2,,,,,,,,,0,,,47,67
40500,note_on,180,0,2,,,,,,,,,0,,,47,0
40500,note_on,0,0,2,,,,,,,,,0,,,42,0
40500,note_on,0,0,2,,,,,,,,,0,,,35,0
40560,set_tempo,240,1,0,,,,,,571429,,,,,,,
40560,note_on,0,0,2,,,,,,,,,0,,,59,77
40560,note_on,60,0,2,,,,,,,,,0,,,47,68
40560,note_on,240,0,1,,,,,,,,,0,,,59,0
40560,note_on,0,0,1,,,,,,,,,0,,,63,0
40560,note_on,0,0,1,,,,,,,,,0,,,51,0
40650,note_on,0,0,2,,,,,,,,,0,,,47,0
40650,note_on,90,0,2,,,,,,,,,0,,,59,0
40680,note_on,0,0,2,,,,,,,,,0,,,60,73
40680,note_on,30,0,2,,,,,,,,,0,,,48,64
40680,set_tempo,120,1,0,,,,,,631579,,,,,,,
40770,note_on,0,0,2,,,,,,,,,0,,,48,0
40770,note_on,90,0,2,,,,,,,,,0,,,60,0
40800,note_on,30,0,2,,,,,,,,,0,,,47,75
40800,set_tempo,120,1,0,,,,,,718563,,,,,,,
40800,note_on,0,0,2,,,,,,,,,0,,,59,85
40918,note_on,118,0,2,,,,,,,,,0,,,59,0
40918,note_on,0,0,2,,,,,,,,,0,,,47,0
41040,set_tempo,240,1,0,,,,,,779221,,,,,,,
41040,note_on,0,0,1,,,,,,,,,0,,,71,79
41040,note_on,480,0,1,,,,,,,,,0,,,59,70
41158,note_on,0,0,1,,,,,,,,,0,,,59,0
41158,note_on,118,0,1,,,,,,,,,0,,,71,0
41280,set_tempo,240,1,0,,,,,,750000,,,,,,,
41280,note_on,362,0,2,,,,,,,,,0,,,51,75
41280,note_on,0,0,2,,,,,,,,,0,,,47,67
41280,note_on,0,0,1,,,,,,,,,0,,,66,74
41280,note_on,0,0,1,,,,,,,,,0,,,69,82
41280,note_on,0,0,2,,,,,,,,,0,,,39,67
41280,note_on,122,0,1,,,,,,,,,0,,,57,74
41460,note_on,180,0,2,,,,,,,,,0,,,47,0
41460,note_on,0,0,2,,,,,,,,,0,,,51,0
41460,note_on,0,0,2,,,,,,,,,0,,,39,0
41520,note_on,0,0,1,,,,,,,,,0,,,66,0
41520,note_on,0,0,1,,,,,,,,,0,,,57,0
41520,note_on,0,0,1,,,,,,,,,0,,,55,69
41520,note_on,240,0,1,,,,,,,,,0,,,69,0
41520,set_tempo,240,1,0,,,,,,681818,,,,,,,
41578,note_on,58,0,1,,,,,,,,,0,,,55,0
41640,set_tempo,120,1,0,,,,,,789474,,,,,,,
41640,note_on,62,0,1,,,,,,,,,0,,,54,66
41698,note_on,58,0,1,,,,,,,,,0,,,54,0
41760,set_tempo,120,1,0,,,,,,764331,,,,,,,
41760,note_on,300,0,2,,,,,,,,,0,,,47,60
41760,note_on,0,0,1,,,,,,,,,0,,,64,79
41760,note_on,0,0,1,,,,,,,,,0,,,55,70
41760,note_on,0,0,2,,,,,,,,,0,,,40,60
41760,note_on,0,0,2,,,,,,,,,0,,,52,67
41760,note_on,62,0,1,,,,,,,,,0,,,60,70
41940,note_on,180,0,2,,,,,,,,,0,,,52,0
41940,note_on,0,0,2,,,,,,,,,0,,,40,0
41940,note_on,0,0,2,,,,,,,,,0,,,47,0
42000,note_on,240,0,1,,,,,,,,,0,,,64,0
42000,note_on,0,0,1,,,,,,,,,0,,,54,70
42000,note_on,0,0,1,,,,,,,,,0,,,60,0
42000,note_on,0,0,1,,,,,,,,,0,,,55,0
42000,set_tempo,240,1,0,,,,,,670391,,,,,,,
42058,note_on,58,0,1,,,,,,,,,0,,,54,0
42120,set_tempo,120,1,0,,,,,,693642,,,,,,,
42120,note_on,62,0,1,,,,,,,,,0,,,52,67
42178,note_on,58,0,1,,,,,,,,,0,,,52,0
42240,note_on,0,0,2,,,,,,,,,0,,,47,67
42240,note_on,62,0,1,,,,,,,,,0,,,71,80
42240,note_on,0,0,1,,,,,,,,,0,,,59,72
42240,note_on,0,0,1,,,,,,,,,0,,,63,72
42240,set_tempo,120,1,0,,,,,,718563,,,,,,,
42240,note_on,0,0,2,,,,,,,,,0,,,35,60
42240,note_on,300,0,2,,,,,,,,,0,,,42,60
42420,note_on,0,0,2,,,,,,,,,0,,,35,0
42420,note_on,0,0,2,,,,,,,,,0,,,42,0
42420,note_on,180,0,2,,,,,,,,,0,,,47,0
42480,note_on,0,0,1,,,,,,,,,0,,,59,0
42480,note_on,240,0,1,,,,,,,,,0,,,63,0
42480,note_on,60,0,2,,,,,,,,,0,,,58,74
42480,set_tempo,240,1,0,,,,,,574163,,,,,,,
42480,note_on,0,0,1,,,,,,,,,0,,,71,0
42570,note_on,90,0,2,,,,,,,,,0,,,58,0
42600,note_on,30,0,2,,,,,,,,,0,,,60,72
42600,set_tempo,120,1,0,,,,,,652174,,,,,,,
42690,note_on,90,0,2,,,,,,,,,0,,,60,0
42720,note_on,30,0,2,,,,,,,,,0,,,59,81
42720,set_tempo,120,1,0,,,,,,754717,,,,,,,
42838,note_on,118,0,2,,,,,,,,,0,,,59,0
42960,note_on,0,0,1,,,,,,,,,0,,,71,78
42960,set_tempo,240,1,0,,,,,,779221,,,,,,,
42960,note_on,480,0,1,,,,,,,,,0,,,59,69
43078,note_on,118,0,1,,,,,,,,,0,,,71,0
43078,note_on,0,0,1,,,,,,,,,0,,,59,0
43200,note_on,0,0,2,,,,,,,,,0,,,44,70
43200,note_on,122,0,1,,,,,,,,,0,,,64,81
43200,note_on,362,0,2,,,,,,,,,0,,,56,79
43200,note_on,0,0,2,,,,,,,,,0,,,52,70
43200,note_on,0,0,1,,,,,,,,,0,,,71,81
43200,note_on,0,0,1,,,,,,,,,0,,,76,91
43200,set_tempo,240,1,0,,,,,,750000,,,,,,,
43220,set_tempo,20,1,0,,,,,,761132,,,,,,,
43380,note_on,0,0,2,,,,,,,,,0,,,56,0
43380,note_on,0,0,2,,,,,,,,,0,,,44,0
43380,note_on,180,0,2,,,,,,,,,0,,,52,0
43440,set_tempo,220,1,0,,,,,,594059,,,,,,,
43440,note_on,0,0,1,,,,,,,,,0,,,62,72
43440,note_on,0,0,1,,,,,,,,,0,,,64,0
43440,note_on,0,0,1,,,,,,,,,0,,,71,0
43440,note_on,240,0,1,,,,,,,,,0,,,76,0
43498,note_on,58,0,1,,,,,,,,,0,,,62,0
43560,set_tempo,120,1,0,,,,,,689655,,,,,,,
43560,note_on,62,0,1,,,,,,,,,0,,,59,66
43618,note_on,58,0,1,,,,,,,,,0,,,59,0
43680,note_on,0,0,1,,,,,,,,,0,,,60,61
43680,note_on,0,0,2,,,,,,,,,0,,,57,62
43680,note_on,62,0,1,,,,,,,,,0,,,64,61
43680,note_on,300,0,2,,,,,,,,,0,,,52,55
43680,set_tempo,120,1,0,,,,,,710059,,,,,,,
43680,note_on,0,0,1,,,,,,,,,0,,,72,68
43680,note_on,0,0,2,,,,,,,,,0,,,45,55
43860,note_on,180,0,2,,,,,,,,,0,,,57,0
43860,note_on,0,0,2,,,,,,,,,0,,,45,0
43860,note_on,0,0,2,,,,,,,,,0,,,52,0
43920,set_tempo,240,1,0,,,,,,585366,,,,,,,
43920,note_on,240,0,1,,,,,,,,,0,,,72,0
43920,note_on,0,0,1,,,,,,,,,0,,,59,66
43920,note_on,0,0,1,,,,,,,,,0,,,60,0
43920,note_on,0,0,1,,,,,,,,,0,,,64,0
43978,note_on,58,0,1,,,,,,,,,0,,,59,0
44040,set_tempo,120,1,0,,,,,,754717,,,,,,,
44040,note_on,62,0,1,,,,,,,,,0,,,57,62
44098,note_on,58,0,1,,,,,,,,,0,,,57,0
44160,note_on,0,0,1,,,,,,,,,0,,,74,86
44160,note_on,0,0,2,,,,,,,,,0,,,50,64
44160,note_on,0,0,1,,,,,,,,,0,,,69,77
44160,note_on,62,0,1,,,,,,,,,0,,,62,77
44160,note_on,300,0,2,,,,,,,,,0,,,54,73
44160,note_on,0,0,2,,,,,,,,,0,,,42,64
44160,set_tempo,120,1,0,,,,,,731707,,,,,,,
44340,note_on,180,0,2,,,,,,,,,0,,,50,0
44340,note_on,0,0,2,,,,,,,,,0,,,54,0
44340,note_on,0,0,2,,,,,,,,,0,,,42,0
44400,note_on,0,0,1,,,,,,,,,0,,,60,70
44400,note_on,0,0,1,,,,,,,,,0,,,62,0
44400,note_on,0,0,1,,,,,,,,,0,,,69,0
44400,note_on,240,0,1,,,,,,,,,0,,,74,0
44400,set_tempo,240,1,0,,,,,,574163,,,,,,,
44458,note_on,58,0,1,,,,,,,,,0,,,60,0
44520,set_tempo,120,1,0,,,,,,693642,,,,,,,
44520,note_on,62,0,1,,,,,,,,,0,,,57,64
44578,note_on,58,0,1,,,,,,,,,0,,,57,0
44640,note_on,0,0,2,,,,,,,,,0,,,43,55
44640,note_on,300,0,2,,,,,,,,,0,,,50,55
44640,note_on,0,0,2,,,,,,,,,0,,,55,62
44640,note_on,0,0,1,,,,,,,,,0,,,59,61
44640,note_on,0,0,1,,,,,,,,,0,,,71,68
44640,set_tempo,120,1,0,,,,,,705882,,,,,,,
44640,note_on,62,0,1,,,,,,,,,0,,,62,61
44820,note_on,0,0,2,,,,,,,,,0,,,50,0
44820,note_on,0,0,2,,,,,,,,,0,,,43,0
44820,note_on,180,0,2,,,,,,,,,0,,,55,0
44880,note_on,0,0,1,,,,,,,,,0,,,57,66
44880,set_tempo,240,1,0,,,,,,594059,,,,,,,
44880,note_on,240,0,1,,,,,,,,,0,,,71,0
44880,note_on,0,0,1,,,,,,,,,0,,,62,0
44880,note_on,0,0,1,,,,,,,,,0,,,59,0
44938,note_on,58,0,1,,,,,,,,,0,,,57,0
45000,set_tempo,120,1,0,,,,,,736196,,,,,,,
45000,note_on,62,0,1,,,,,,,,,0,,,55,63
45058,note_on,58,0,1,,,,,,,,,0,,,55,0
45120,note_on,0,0,2,,,,,,,,,0,,,52,72
45120,note_on,0,0,1,,,,,,,,,0,,,67,78
45120,note_on,0,0,1,,,,,,,,,0,,,72,88
45120,note_on,0,0,2,,,,,,,,,0,,,40,64
45120,note_on,62,0,1,,,,,,,,,0,,,60,78
45120,set_tempo,120,1,0,,,,,,722892,,,,,,,
45120,note_on,300,0,2,,,,,,,,,0,,,48,64
45300,note_on,0,0,2,,,,,,,,,0,,,40,0
45300,note_on,0,0,2,,,,,,,,,0,,,48,0
45300,note_on,180,0,2,,,,,,,,,0,,,52,0
45360,note_on,0,0,1,,,,,,,,,0,,,67,0
45360,set_tempo,240,1,0,,,,,,621311,,,,,,,
45360,note_on,0,0,1,,,,,,,,,0,,,60,0
45360,note_on,0,0,1,,,,,,,,,0,,,59,68
45360,note_on,240,0,1,,,,,,,,,0,,,72,0
45418,note_on,58,0,1,,,,,,,,,0,,,59,0
45460,set_tempo,100,1,0,,,,,,674157,,,,,,,
45480,set_tempo,20,1,0,,,,,,670391,,,,,,,
45480,note_on,62,0,1,,,,,,,,,0,,,55,63
45538,note_on,58,0,1,,,,,,,,,0,,,55,0
45600,note_on,0,0,2,,,,,,,,,0,,,54,58
45600,note_on,0,0,2,,,,,,,,,0,,,42,52
45600,note_on,0,0,1,,,,,,,,,0,,,57,62
45600,note_on,0,0,1,,,,,,,,,0,,,69,69
45600,set_tempo,120,1,0,,,,,,685714,,,,,,,
45600,note_on,62,0,1,,,,,,,,,0,,,60,62
45600,note_on,300,0,2,,,,,,,,,0,,,48,52
45780,note_on,0,0,2,,,,,,,,,0,,,48,0
45780,note_on,0,0,2,,,,,,,,,0,,,42,0
45780,note_on,180,0,2,,,,,,,,,0,,,54,0
45840,note_on,0,0,1,,,,,,,,,0,,,57,0
45840,note_on,0,0,1,,,,,,,,,0,,,55,67
45840,note_on,0,0,1,,,,,,,,,0,,,60,0
45840,note_on,240,0,1,,,,,,,,,0,,,69,0
45840,set_tempo,240,1,0,,,,,,621311,,,,,,,
45898,note_on,58,0,1,,,,,,,,,0,,,55,0
45960,set_tempo,120,1,0,,,,,,769231,,,,,,,
45960,note_on,62,0,1,,,,,,,,,0,,,54,63
46018,note_on,58,0,1,,,,,,,,,0,,,54,0
46080,note_on,0,0,1,,,,,,,,,0,,,71,84
46080,note_on,0,0,2,,,,,,,,,0,,,39,62
46080,note_on,300,0,2,,,,,,,,,0,,,51,69
46080,note_on,0,0,1,,,,,,,,,0,,,66,75
46080,note_on,62,0,1,,,,,,,,,0,,,59,75
46080,set_tempo,120,1,0,,,,,,733586,,,,,,,
46080,note_on,0,0,2,,,,,,,,,0,,,47,62
46260,note_on,180,0,2,,,,,,,,,0,,,47,0
46260,note_on,0,0,2,,,,,,,,,0,,,51,0
46260,note_on,0,0,2,,,,,,,,,0,,,39,0
46320,note_on,0,0,1,,,,,,,,,0,,,59,0
46320,note_on,0,0,1,,,,,,,,,0,,,57,68
46320,note_on,0,0,1,,,,,,,,,0,,,66,0
46320,note_on,240,0,1,,,,,,,,,0,,,71,0
46320,set_tempo,240,1,0,,,,,,627746,,,,,,,
46378,note_on,58,0,1,,,,,,,,,0,,,57,0
46440,set_tempo,120,1,0,,,,,,703895,,,,,,,
46440,note_on,62,0,1,,,,,,,,,0,,,54,63
46498,note_on,58,0,1,,,,,,,,,0,,,54,0
46560,set_tempo,120,1,0,,,,,,685714,,,,,,,
46560,note_on,0,0,2,,,,,,,,,0,,,40,53
46560,note_on,0,0,2,,,,,,,,,0,,,52,61
46560,note_on,0,0,1,,,,,,,,,0,,,67,70
46560,note_on,0,0,1,,,,,,,,,0,,,55,63
46560,note_on,300,0,2,,,,,,,,,0,,,47,53
46560,note_on,62,0,1,,,,,,,,,0,,,59,63
46740,note_on,0,0,2,,,,,,,,,0,,,40,0
46740,note_on,180,0,2,,,,,,,,,0,,,52,0
46740,note_on,0,0,2,,,,,,,,,0,,,47,0
46800,note_on,240,0,1,,,,,,,,,0,,,67,0
46800,note_on,0,0,1,,,,,,,,,0,,,55,0
46800,note_on,0,0,1,,,,,,,,,0,,,59,0
46800,set_tempo,240,1,0,,,,,,624480,,,,,,,
46800,note_on,0,0,1,,,,,,,,,0,,,54,67
46858,note_on,58,0,1,,,,,,,,,0,,,54,0
46900,set_tempo,100,1,0,,,,,,845666,,,,,,,
46920,note_on,62,0,1,,,,,,,,,0,,,52,63
47010,note_on,90,0,1,,,,,,,,,0,,,52,0
47040,note_on,0,0,1,,,,,,,,,0,,,55,56
47040,note_on,0,0,1,,,,,,,,,0,,,60,56
47040,note_on,0,0,2,,,,,,,,,0,,,48,58
47040,note_on,0,0,1,,,,,,,,,0,,,64,56
47040,set_tempo,140,1,0,,,,,,761132,,,,,,,
47040,note_on,30,0,1,,,,,,,,,0,,,67,63
47040,note_on,300,0,2,,,,,,,,,0,,,36,52
47081,set_tempo,41,1,0,,,,,,750000,,,,,,,
47220,note_on,0,0,2,,,,,,,,,0,,,36,0
47220,note_on,180,0,2,,,,,,,,,0,,,48,0
47280,set_tempo,199,1,0,,,,,,625000,,,,,,,
47280,note_on,0,0,1,,,,,,,,,0,,,60,0
47280,note_on,240,0,1,,,,,,,,,0,,,64,0
47280,note_on,0,0,1,,,,,,,,,0,,,55,0
47280,note_on,0,0,1,,,,,,,,,0,,,67,0
47280,note_on,0,0,1,,,,,,,,,0,,,54,70
47338,note_on,58,0,1,,,,,,,,,0,,,54,0
47400,set_tempo,120,1,0,,,,,,827586,,,,,,,
47400,note_on,62,0,1,,,,,,,,,0,,,52,75
47458,note_on,58,0,1,,,,,,,,,0,,,52,0
47520,set_tempo,120,1,0,,,,,,722892,,,,,,,
47520,note_on,62,0,1,,,,,,,,,0,,,67,79
47520,note_on,0,0,1,,,,,,,,,0,,,64,70
47520,note_on,300,0,2,,,,,,,,,0,,,46,64
47520,note_on,0,0,1,,,,,,,,,0,,,61,70
47520,note_on,0,0,1,,,,,,,,,0,,,55,70
47520,note_on,0,0,2,,,,,,,,,0,,,34,57
47700,note_on,180,0,2,,,,,,,,,0,,,34,0
47700,note_on,0,0,2,,,,,,,,,0,,,46,0
47760,set_tempo,240,1,0,,,,,,662983,,,,,,,
47760,note_on,0,0,1,,,,,,,,,0,,,61,0
47760,note_on,0,0,1,,,,,,,,,0,,,67,0
47760,note_on,240,0,1,,,,,,,,,0,,,64,0
47760,note_on,0,0,1,,,,,,,,,0,,,55,0
47760,note_on,0,0,1,,,,,,,,,0,,,54,75
47818,note_on,58,0,1,,,,,,,,,0,,,54,0
47880,note_on,62,0,1,,,,,,,,,0,,,52,70
47880,set_tempo,120,1,0,,,,,,863309,,,,,,,
47938,note_on,58,0,1,,,,,,,,,0,,,52,0
48000,note_on,62,0,1,,,,,,,,,0,,,51,75
48000,note_on,0,0,2,,,,,,,,,0,,,47,68
48000,note_on,0,0,1,,,,,,,,,0,,,59,75
48000,note_on,300,0,2,,,,,,,,,0,,,35,61
48000,set_tempo,120,1,0,,,,,,779221,,,,,,,
48000,note_on,0,0,1,,,,,,,,,0,,,63,84
48180,note_on,180,0,2,,,,,,,,,0,,,47,0
48180,note_on,0,0,2,,,,,,,,,0,,,35,0
48240,note_on,0,0,1,,,,,,,,,0,,,51,0
48240,note_on,0,0,1,,,,,,,,,0,,,52,64
48240,note_on,0,0,1,,,,,,,,,0,,,59,0
48240,set_tempo,240,1,0,,,,,,674157,,,,,,,
48240,note_on,240,0,1,,,,,,,,,0,,,63,0
48298,note_on,58,0,1,,,,,,,,,0,,,52,0
48360,note_on,62,0,1,,,,,,,,,0,,,54,61
48360,set_tempo,120,1,0,,,,,,779221,,,,,,,
48418,note_on,58,0,1,,,,,,,,,0,,,54,0
48480,note_on,0,0,1,,,,,,,,,0,,,52,62
48480,note_on,0,0,1,,,,,,,,,0,,,64,69
48480,note_on,0,0,2,,,,,,,,,0,,,36,49
48480,note_on,62,0,1,,,,,,,,,0,,,55,62
48480,note_on,300,0,2,,,,,,,,,0,,,48,55
48480,set_tempo,120,1,0,,,,,,764331,,,,,,,
48660,note_on,180,0,2,,,,,,,,,0,,,36,0
48660,note_on,0,0,2,,,,,,,,,0,,,48,0
48720,set_tempo,240,1,0,,,,,,645161,,,,,,,
48720,note_on,240,0,1,,,,,,,,,0,,,64,0
48720,note_on,0,0,1,,,,,,,,,0,,,52,0
48720,note_on,0,0,1,,,,,,,,,0,,,54,62
48720,note_on,0,0,1,,,,,,,,,0,,,55,0
48778,note_on,58,0,1,,,,,,,,,0,,,54,0
48840,set_tempo,120,1,0,,,,,,810811,,,,,,,
48840,note_on,62,0,1,,,,,,,,,0,,,55,62
48898,note_on,58,0,1,,,,,,,,,0,,,55,0
48960,note_on,62,0,1,,,,,,,,,0,,,60,75
48960,note_on,0,0,1,,,,,,,,,0,,,53,67
48960,note_on,0,0,2,,,,,,,,,0,,,45,63
48960,set_tempo,120,1,0,,,,,,710059,,,,,,,
48960,note_on,300,0,2,,,,,,,,,0,,,33,56
49140,note_on,0,0,2,,,,,,,,,0,,,33,0
49140,note_on,180,0,2,,,,,,,,,0,,,45,0
49200,set_tempo,240,1,0,,,,,,670391,,,,,,,
49200,note_on,60,0,2,,,,,,,,,0,,,60,55
49200,note_on,240,0,1,,,,,,,,,0,,,53,0
49200,note_on,0,0,1,,,,,,,,,0,,,60,0
49200,note_on,0,0,1,,,,,,,,,0,,,69,61
49200,note_on,0,0,1,,,,,,,,,0,,,65,53
49258,note_on,58,0,1,,,,,,,,,0,,,69,0
49258,note_on,0,0,1,,,,,,,,,0,,,65,0
49258,note_on,58,0,2,,,,,,,,,0,,,60,0
49320,set_tempo,120,1,0,,,,,,833333,,,,,,,
49320,note_on,0,0,1,,,,,,,,,0,,,65,57
49320,note_on,62,0,1,,,,,,,,,0,,,60,51
49320,note_on,62,0,2,,,,,,,,,0,,,57,55
49378,note_on,0,0,1,,,,,,,,,0,,,60,0
49378,note_on,58,0,1,,,,,,,,,0,,,65,0
49378,note_on,58,0,2,,,,,,,,,0,,,57,0
49440,note_on,62,0,2,,,,,,,,,0,,,35,57
49440,note_on,0,0,1,,,,,,,,,0,,,64,73
49440,set_tempo,120,1,0,,,,,,789474,,,,,,,
49440,note_on,0,0,2,,,,,,,,,0,,,47,64
49440,note_on,0,0,1,,,,,,,,,0,,,59,64
49440,note_on,62,0,1,,,,,,,,,0,,,55,64
49620,note_on,180,0,1,,,,,,,,,0,,,64,0
49620,note_on,180,0,2,,,,,,,,,0,,,47,0
49620,note_on,0,0,1,,,,,,,,,0,,,59,0
49620,note_on,0,0,1,,,,,,,,,0,,,55,0
49620,note_on,0,0,2,,,,,,,,,0,,,35,0
49680,note_on,60,0,1,,,,,,,,,0,,,59,60
49680,set_tempo,240,1,0,,,,,,1034483,,,,,,,
49680,note_on,0,0,1,,,,,,,,,0,,,66,67
49680,note_on,60,0,2,,,,,,,,,0,,,57,60
49738,note_on,58,0,2,,,,,,,,,0,,,57,0
49738,note_on,58,0,1,,,,,,,,,0,,,66,0
49738,note_on,0,0,1,,,,,,,,,0,,,59,0
49800,note_on,62,0,2,,,,,,,,,0,,,54,57
49800,note_on,0,0,1,,,,,,,,,0,,,63,63
49800,set_tempo,120,1,0,,,,,,1250000,,,,,,,
49800,note_on,62,0,1,,,,,,,,,0,,,59,56
49890,note_on,0,0,1,,,,,,,,,0,,,59,0
49890,note_on,90,0,1,,,,,,,,,0,,,63,0
49890,note_on,90,0,2,,,,,,,,,0,,,54,0
49920,note_on,30,0,2,,,,,,,,,0,,,40,67
49920,note_on,30,0,1,,,,,,,,,0,,,55,69
49920,note_on,0,0,1,,,,,,,,,0,,,59,69
49920,note_on,0,0,2,,,,,,,,,0,,,52,75
49920,set_tempo,0,1,0,,,,,,1411765,,,,,,,
49920,note_on,0,0,1,,,,,,,,,0,,,64,78
49920,key_signature,120,1,0,,,,,E,,,,,,,,
50400,note_on,480,0,1,,,,,,,,,0,,,64,0
50400,note_on,480,0,2,,,,,,,,,0,,,52,0
50400,note_on,0,0,1,,,,,,,,,0,,,59,0
50400,note_on,0,0,2,,,,,,,,,0,,,40,0
50400,note_on,0,0,1,,,,,,,,,0,,,55,0
50600,set_tempo,680,1,0,,,,,,1424840,,,,,,,
50640,set_tempo,40,1,0,,,,,,708132,,,,,,,
50640,note_on,240,0,1,,,,,,,,,0,,,92,42
50640,note_on,0,0,1,,,,,,,,,0,,,95,48
50758,note_on,0,0,1,,,,,,,,,0,,,92,0
50758,note_on,118,0,1,,,,,,,,,0,,,95,0
50760,note_on,0,0,1,,,,,,,,,0,,,93,44
50760,note_on,2,0,1,,,,,,,,,0,,,90,39
50878,note_on,118,0,1,,,,,,,,,0,,,93,0
50878,note_on,0,0,1,,,,,,,,,0,,,90,0
50880,set_tempo,240,1,0,,,,,,729483,,,,,,,
50880,note_on,2,0,1,,,,,,,,,0,,,88,47
50880,control_change,480,0,2,,,,,,,,,0,64,127,,
50880,note_on,0,0,2,,,,,,,,,0,,,59,42
50880,note_on,0,0,2,,,,,,,,,0,,,52,38
50880,note_on,0,0,1,,,,,,,,,0,,,92,52
50998,note_on,118,0,2,,,,,,,,,0,,,59,0
51000,note_on,2,0,2,,,,,,,,,0,,,64,39
51110,note_on,0,0,1,,,,,,,,,0,,,88,0
51110,note_on,230,0,1,,,,,,,,,0,,,92,0
51118,note_on,118,0,2,,,,,,,,,0,,,64,0
51120,note_on,10,0,1,,,,,,,,,0,,,88,38
51120,note_on,0,0,1,,,,,,,,,0,,,92,42
51120,note_on,2,0,2,,,,,,,,,0,,,71,36
51120,set_tempo,240,1,0,,,,,,704060,,,,,,,
51238,note_on,118,0,1,,,,,,,,,0,,,92,0
51238,note_on,0,0,1,,,,,,,,,0,,,88,0
51240,note_on,0,0,1,,,,,,,,,0,,,90,39
51240,note_on,2,0,1,,,,,,,,,0,,,83,35
51350,note_on,230,0,2,,,,,,,,,0,,,71,0
51358,note_on,0,0,1,,,,,,,,,0,,,83,0
51358,note_on,118,0,1,,,,,,,,,0,,,90,0
51360,note_on,2,0,1,,,,,,,,,0,,,80,40
51360,note_on,10,0,2,,,,,,,,,0,,,52,0
51360,note_on,0,0,1,,,,,,,,,0,,,88,46
51360,note_on,0,0,2,,,,,,,,,0,,,64,42
51360,note_on,0,0,2,,,,,,,,,0,,,71,42
51360,set_tempo,240,1,0,,,,,,725163,,,,,,,
51478,note_on,118,0,2,,,,,,,,,0,,,64,0
51480,note_on,2,0,2,,,,,,,,,0,,,59,40
51590,note_on,0,0,1,,,,,,,,,0,,,80,0
51590,note_on,230,0,1,,,,,,,,,0,,,88,0
51598,note_on,118,0,2,,,,,,,,,0,,,59,0
51600,note_on,0,0,1,,,,,,,,,0,,,80,41
51600,note_on,2,0,2,,,,,,,,,0,,,52,39
51600,note_on,10,0,1,,,,,,,,,0,,,83,47
51600,set_tempo,240,1,0,,,,,,699953,,,,,,,
51718,note_on,0,0,1,,,,,,,,,0,,,83,0
51718,note_on,118,0,1,,,,,,,,,0,,,80,0
51720,note_on,0,0,1,,,,,,,,,0,,,81,42
51720,note_on,2,0,1,,,,,,,,,0,,,78,38
51762,control_change,162,0,2,,,,,,,,,0,64,0,,
51830,note_on,68,0,2,,,,,,,,,0,,,52,0
51838,note_on,118,0,1,,,,,,,,,0,,,81,0
51838,note_on,0,0,1,,,,,,,,,0,,,78,0
51840,note_on,10,0,2,,,,,,,,,0,,,71,0
51840,note_on,0,0,2,,,,,,,,,0,,,52,36
51840,note_on,0,0,2,,,,,,,,,0,,,59,40
51840,set_tempo,240,1,0,,,,,,725163,,,,,,,
51840,note_on,2,0,1,,,,,,,,,0,,,76,45
51840,note_on,0,0,1,,,,,,,,,0,,,80,50
51840,control_change,0,0,2,,,,,,,,,0,64,127,,
51958,note_on,118,0,2,,,,,,,,,0,,,59,0
51960,note_on,2,0,2,,,,,,,,,0,,,64,39
52070,note_on,230,0,1,,,,,,,,,0,,,80,0
52070,note_on,0,0,1,,,,,,,,,0,,,76,0
52078,note_on,118,0,2,,,,,,,,,0,,,64,0
52080,note_on,10,0,1,,,,,,,,,0,,,76,38
52080,note_on,2,0,2,,,,,,,,,0,,,71,39
52080,note_on,0,0,1,,,,,,,,,0,,,80,42
52080,set_tempo,240,1,0,,,,,,699953,,,,,,,
52198,note_on,0,0,1,,,,,,,,,0,,,76,0
52198,note_on,118,0,1,,,,,,,,,0,,,80,0
52200,note_on,0,0,1,,,,,,,,,0,,,78,39
52200,note_on,2,0,1,,,,,,,,,0,,,71,35
52310,note_on,230,0,2,,,,,,,,,0,,,71,0
52318,note_on,0,0,1,,,,,,,,,0,,,71,0
52318,note_on,118,0,1,,,,,,,,,0,,,78,0
52320,note_on,2,0,1,,,,,,,,,0,,,68,41
52320,note_on,0,0,2,,,,,,,,,0,,,64,41
52320,note_on,0,0,2,,,,,,,,,0,,,71,41
52320,note_on,0,0,1,,,,,,,,,0,,,76,47
52320,note_on,10,0,2,,,,,,,,,0,,,52,0
52320,set_tempo,240,1,0,,,,,,720807,,,,,,,
52438,note_on,118,0,2,,,,,,,,,0,,,64,0
52440,note_on,2,0,2,,,,,,,,,0,,,59,39
52550,note_on,0,0,1,,,,,,,,,0,,,68,0
52550,note_on,230,0,1,,,,,,,,,0,,,76,0
52558,note_on,118,0,2,,,,,,,,,0,,,59,0
52560,set_tempo,240,1,0,,,,,,684151,,,,,,,
52560,note_on,2,0,2,,,,,,,,,0,,,52,39
52560,note_on,0,0,1,,,,,,,,,0,,,76,47
52560,note_on,10,0,1,,,,,,,,,0,,,68,41
52678,note_on,0,0,1,,,,,,,,,0,,,68,0
52678,note_on,118,0,1,,,,,,,,,0,,,76,0
52680,control_change,120,0,2,,,,,,,,,0,64,0,,
52680,note_on,2,0,1,,,,,,,,,0,,,71,38
52680,note_on,0,0,1,,,,,,,,,0,,,78,42
52680,set_tempo,120,1,0,,,,,,735204,,,,,,,
52790,note_on,110,0,2,,,,,,,,,0,,,52,0
52798,note_on,118,0,1,,,,,,,,,0,,,78,0
52798,note_on,0,0,1,,,,,,,,,0,,,71,0
52800,note_on,10,0,2,,,,,,,,,0,,,71,0
52800,note_on,0,0,2,,,,,,,,,0,,,52,40
52800,set_tempo,120,1,0,,,,,,716503,,,,,,,
52800,note_on,0,0,2,,,,,,,,,0,,,59,36
52800,control_change,0,0,2,,,,,,,,,0,64,127,,
52800,note_on,2,0,1,,,,,,,,,0,,,76,45
52800,note_on,0,0,1,,,,,,,,,0,,,80,50
52918,note_on,118,0,2,,,,,,,,,0,,,52,0
52920,note_on,2,0,2,,,,,,,,,0,,,64,37
53030,note_on,0,0,1,,,,,,,,,0,,,76,0
53030,note_on,110,0,2,,,,,,,,,0,,,59,0
53030,note_on,230,0,1,,,,,,,,,0,,,80,0
53038,note_on,8,0,2,,,,,,,,,0,,,64,0
53040,note_on,10,0,1,,,,,,,,,0,,,71,42
53040,set_tempo,240,1,0,,,,,,684151,,,,,,,
53040,note_on,0,0,1,,,,,,,,,0,,,78,48
53158,note_on,118,0,1,,,,,,,,,0,,,78,0
53158,note_on,0,0,1,,,,,,,,,0,,,71,0
53160,set_tempo,120,1,0,,,,,,725338,,,,,,,
53160,note_on,0,0,1,,,,,,,,,0,,,80,44
53160,note_on,2,0,1,,,,,,,,,0,,,76,39
53278,note_on,0,0,1,,,,,,,,,0,,,76,0
53278,note_on,118,0,1,,,,,,,,,0,,,80,0
53280,note_on,2,0,1,,,,,,,,,0,,,78,48
53280,note_on,0,0,1,,,,,,,,,0,,,81,53
53280,note_on,242,0,2,,,,,,,,,0,,,71,40
53280,set_tempo,120,1,0,,,,,,712335,,,,,,,
53280,note_on,0,0,2,,,,,,,,,0,,,63,36
53400,note_on,120,0,2,,,,,,,,,0,,,59,40
53510,note_on,230,0,1,,,,,,,,,0,,,81,0
53510,note_on,0,0,1,,,,,,,,,0,,,78,0
53510,note_on,110,0,2,,,,,,,,,0,,,63,0
53510,note_on,0,0,2,,,,,,,,,0,,,71,0
53518,note_on,8,0,2,,,,,,,,,0,,,59,0
53520,set_tempo,240,1,0,,,,,,684151,,,,,,,
53520,note_on,10,0,1,,,,,,,,,0,,,71,45
53520,note_on,0,0,1,,,,,,,,,0,,,78,50
53638,note_on,118,0,1,,,,,,,,,0,,,78,0
53638,note_on,0,0,1,,,,,,,,,0,,,71,0
53640,set_tempo,120,1,0,,,,,,725338,,,,,,,
53640,note_on,2,0,1,,,,,,,,,0,,,78,41
53640,note_on,0,0,1,,,,,,,,,0,,,81,47
53647,control_change,129,0,2,,,,,,,,,0,64,0,,
53758,note_on,118,0,1,,,,,,,,,0,,,81,0
53758,note_on,0,0,1,,,,,,,,,0,,,78,0
53760,note_on,0,0,2,,,,,,,,,0,,,59,39
53760,note_on,0,0,1,,,,,,,,,0,,,83,56
53760,control_change,113,0,2,,,,,,,,,0,64,127,,
53760,note_on,2,0,1,,,,,,,,,0,,,80,49
53760,set_tempo,120,1,0,,,,,,712335,,,,,,,
53760,note_on,0,0,2,,,,,,,,,0,,,52,35
53880,note_on,120,0,2,,,,,,,,,0,,,64,37
53990,note_on,110,0,2,,,,,,,,,0,,,59,0
53990,note_on,0,0,2,,,,,,,,,0,,,52,0
53990,note_on,0,0,1,,,,,,,,,0,,,80,0
53990,note_on,230,0,1,,,,,,,,,0,,,83,0
53998,note_on,8,0,2,,,,,,,,,0,,,64,0
54000,note_on,10,0,1,,,,,,,,,0,,,78,39
54000,note_on,0,0,1,,,,,,,,,0,,,81,44
54000,set_tempo,240,1,0,,,,,,680272,,,,,,,
54118,note_on,118,0,1,,,,,,,,,0,,,81,0
54118,note_on,0,0,1,,,,,,,,,0,,,78,0
54120,note_on,0,0,1,,,,,,,,,0,,,80,41
54120,note_on,2,0,1,,,,,,,,,0,,,76,37
54120,set_tempo,120,1,0,,,,,,708132,,,,,,,
54162,control_change,164,0,2,,,,,,,,,0,64,0,,
54238,note_on,0,0,1,,,,,,,,,0,,,76,0
54238,note_on,118,0,1,,,,,,,,,0,,,80,0
54240,note_on,2,0,1,,,,,,,,,0,,,71,44
54240,note_on,0,0,1,,,,,,,,,0,,,78,49
54240,set_tempo,120,1,0,,,,,,716503,,,,,,,
54240,note_on,0,0,2,,,,,,,,,0,,,66,39
54240,note_on,78,0,2,,,,,,,,,0,,,63,35
54360,note_on,120,0,2,,,,,,,,,0,,,59,37
54470,note_on,110,0,2,,,,,,,,,0,,,66,0
54470,note_on,0,0,1,,,,,,,,,0,,,71,0
54470,note_on,0,0,2,,,,,,,,,0,,,63,0
54470,note_on,230,0,1,,,,,,,,,0,,,78,0
54478,note_on,8,0,2,,,,,,,,,0,,,59,0
54480,set_tempo,240,1,0,,,,,,708132,,,,,,,
54480,note_on,0,0,1,,,,,,,,,0,,,95,48
54480,note_on,10,0,1,,,,,,,,,0,,,92,42
54598,note_on,118,0,1,,,,,,,,,0,,,95,0
54598,note_on,0,0,1,,,,,,,,,0,,,92,0
54600,note_on,2,0,1,,,,,,,,,0,,,90,39
54600,note_on,0,0,1,,,,,,,,,0,,,93,44
54718,note_on,118,0,1,,,,,,,,,0,,,93,0
54718,note_on,0,0,1,,,,,,,,,0,,,90,0
54720,control_change,242,0,2,,,,,,,,,0,64,127,,
54720,note_on,0,0,1,,,,,,,,,0,,,92,52
54720,note_on,0,0,2,,,,,,,,,0,,,59,42
54720,note_on,0,0,2,,,,,,,,,0,,,52,38
54720,set_tempo,240,1,0,,,,,,729483,,,,,,,
54720,note_on,2,0,1,,,,,,,,,0,,,88,47
54838,note_on,118,0,2,,,,,,,,,0,,,59,0
54840,note_on,2,0,2,,,,,,,,,0,,,64,39
54950,note_on,230,0,1,,,,,,,,,0,,,92,0
54950,note_on,0,0,1,,,,,,,,,0,,,88,0
54958,note_on,118,0,2,,,,,,,,,0,,,64,0
54960,set_tempo,240,1,0,,,,,,704060,,,,,,,
54960,note_on,10,0,1,,,,,,,,,0,,,88,38
54960,note_on,2,0,2,,,,,,,,,0,,,71,36
54960,note_on,0,0,1,,,,,,,,,0,,,92,42
55078,note_on,0,0,1,,,,,,,,,0,,,88,0
55078,note_on,118,0,1,,,,,,,,,0,,,92,0
55080,note_on,0,0,1,,,,,,,,,0,,,90,40
55080,note_on,2,0,1,,,,,,,,,0,,,83,36
55190,note_on,230,0,2,,,,,,,,,0,,,71,0
55198,note_on,118,0,1,,,,,,,,,0,,,90,0
55198,note_on,0,0,1,,,,,,,,,0,,,83,0
55200,note_on,2,0,1,,,,,,,,,0,,,80,46
55200,note_on,0,0,1,,,,,,,,,0,,,88,46
55200,note_on,0,0,2,,,,,,,,,0,,,71,42
55200,note_on,0,0,2,,,,,,,,,0,,,64,42
55200,set_tempo,240,1,0,,,,,,725163,,,,,,,
55200,note_on,10,0,2,,,,,,,,,0,,,52,0
55318,note_on,118,0,2,,,,,,,,,0,,,64,0
55320,note_on,2,0,2,,,,,,,,,0,,,59,39
55430,note_on,230,0,1,,,,,,,,,0,,,88,0
55430,note_on,0,0,1,,,,,,,,,0,,,80,0
55438,note_on,118,0,2,,,,,,,,,0,,,59,0
55440,note_on,2,0,2,,,,,,,,,0,,,52,39
55440,set_tempo,240,1,0,,,,,,685714,,,,,,,
55440,note_on,10,0,1,,,,,,,,,0,,,83,47
55440,note_on,0,0,1,,,,,,,,,0,,,80,41
55558,note_on,0,0,1,,,,,,,,,0,,,83,0
55558,note_on,118,0,1,,,,,,,,,0,,,80,0
55560,set_tempo,120,1,0,,,,,,701754,,,,,,,
55560,note_on,0,0,1,,,,,,,,,0,,,81,44
55560,note_on,2,0,1,,,,,,,,,0,,,78,39
55602,control_change,162,0,2,,,,,,,,,0,64,0,,
55670,note_on,68,0,2,,,,,,,,,0,,,52,0
55678,note_on,0,0,1,,,,,,,,,0,,,78,0
55678,note_on,118,0,1,,,,,,,,,0,,,81,0
55680,note_on,10,0,2,,,,,,,,,0,,,71,0
55680,control_change,0,0,2,,,,,,,,,0,64,127,,
55680,set_tempo,120,1,0,,,,,,720807,,,,,,,
55680,note_on,2,0,1,,,,,,,,,0,,,76,45
55680,note_on,0,0,2,,,,,,,,,0,,,59,40
55680,note_on,0,0,2,,,,,,,,,0,,,52,36
55680,note_on,0,0,1,,,,,,,,,0,,,80,50
55798,note_on,118,0,2,,,,,,,,,0,,,59,0
55800,note_on,2,0,2,,,,,,,,,0,,,64,39
55910,note_on,0,0,1,,,,,,,,,0,,,76,0
55910,note_on,230,0,1,,,,,,,,,0,,,80,0
55918,note_on,118,0,2,,,,,,,,,0,,,64,0
55920,note_on,0,0,1,,,,,,,,,0,,,80,42
55920,set_tempo,240,1,0,,,,,,680272,,,,,,,
55920,note_on,10,0,1,,,,,,,,,0,,,76,38
55920,note_on,2,0,2,,,,,,,,,0,,,71,39
56038,note_on,0,0,1,,,,,,,,,0,,,76,0
56038,note_on,118,0,1,,,,,,,,,0,,,80,0
56040,note_on,0,0,1,,,,,,,,,0,,,78,38
56040,note_on,2,0,1,,,,,,,,,0,,,71,34
56040,set_tempo,120,1,0,,,,,,684151,,,,,,,
56150,note_on,230,0,2,,,,,,,,,0,,,71,0
56158,note_on,118,0,1,,,,,,,,,0,,,78,0
56158,note_on,0,0,1,,,,,,,,,0,,,71,0
56160,note_on,2,0,1,,,,,,,,,0,,,68,41
56160,note_on,0,0,1,,,,,,,,,0,,,76,47
56160,note_on,10,0,2,,,,,,,,,0,,,52,0
56160,note_on,0,0,2,,,,,,,,,0,,,71,41
56160,note_on,0,0,2,,,,,,,,,0,,,64,41
56160,set_tempo,120,1,0,,,,,,712335,,,,,,,
56278,note_on,118,0,2,,,,,,,,,0,,,64,0
56280,note_on,2,0,2,,,,,,,,,0,,,59,39
56390,note_on,230,0,1,,,,,,,,,0,,,76,0
56390,note_on,0,0,1,,,,,,,,,0,,,68,0
56398,note_on,118,0,2,,,,,,,,,0,,,59,0
56400,note_on,0,0,1,,,,,,,,,0,,,76,47
56400,set_tempo,240,1,0,,,,,,680272,,,,,,,
56400,note_on,2,0,2,,,,,,,,,0,,,52,39
56400,note_on,10,0,1,,,,,,,,,0,,,68,41
56518,note_on,0,0,1,,,,,,,,,0,,,68,0
56518,note_on,118,0,1,,,,,,,,,0,,,76,0
56520,set_tempo,120,1,0,,,,,,688073,,,,,,,
56520,control_change,120,0,2,,,,,,,,,0,64,0,,
56520,note_on,0,0,1,,,,,,,,,0,,,78,42
56520,note_on,2,0,1,,,,,,,,,0,,,71,38
56630,note_on,110,0,2,,,,,,,,,0,,,52,0
56638,note_on,0,0,1,,,,,,,,,0,,,71,0
56638,note_on,118,0,1,,,,,,,,,0,,,78,0
56640,note_on,0,0,2,,,,,,,,,0,,,52,40
56640,set_tempo,120,1,0,,,,,,712335,,,,,,,
56640,note_on,0,0,2,,,,,,,,,0,,,59,36
56640,control_change,0,0,2,,,,,,,,,0,64,127,,
56640,note_on,10,0,2,,,,,,,,,0,,,71,0
56640,note_on,2,0,1,,,,,,,,,0,,,76,45
56640,note_on,0,0,1,,,,,,,,,0,,,80,50
56758,note_on,118,0,2,,,,,,,,,0,,,52,0
56760,note_on,2,0,2,,,,,,,,,0,,,64,37
56870,note_on,0,0,1,,,,,,,,,0,,,76,0
56870,note_on,230,0,1,,,,,,,,,0,,,80,0
56870,note_on,110,0,2,,,,,,,,,0,,,59,0
56878,note_on,8,0,2,,,,,,,,,0,,,64,0
56880,set_tempo,240,1,0,,,,,,695975,,,,,,,
56880,note_on,10,0,1,,,,,,,,,0,,,78,44
56880,note_on,0,0,1,,,,,,,,,0,,,81,49
56998,note_on,0,0,1,,,,,,,,,0,,,78,0
56998,note_on,118,0,1,,,,,,,,,0,,,81,0
57000,note_on,2,0,1,,,,,,,,,0,,,76,39
57000,set_tempo,120,1,0,,,,,,725338,,,,,,,
57000,note_on,0,0,1,,,,,,,,,0,,,80,44
57118,note_on,0,0,1,,,,,,,,,0,,,76,0
57118,note_on,118,0,1,,,,,,,,,0,,,80,0
57120,note_on,2,0,1,,,,,,,,,0,,,71,40
57120,note_on,0,0,2,,,,,,,,,0,,,63,36
57120,note_on,0,0,1,,,,,,,,,0,,,78,46
57120,note_on,242,0,2,,,,,,,,,0,,,69,40
57120,set_tempo,120,1,0,,,,,,691962,,,,,,,
57240,note_on,120,0,2,,,,,,,,,0,,,59,37
57350,note_on,230,0,1,,,,,,,,,0,,,78,0
57350,note_on,110,0,2,,,,,,,,,0,,,63,0
57350,note_on,0,0,1,,,,,,,,,0,,,71,0
57350,note_on,0,0,2,,,,,,,,,0,,,69,0
57358,note_on,8,0,2,,,,,,,,,0,,,59,0
57360,set_tempo,240,1,0,,,,,,725163,,,,,,,
57360,note_on,0,0,1,,,,,,,,,0,,,80,50
57360,note_on,10,0,1,,,,,,,,,0,,,76,45
57478,note_on,118,0,1,,,,,,,,,0,,,80,0
57478,note_on,0,0,1,,,,,,,,,0,,,76,0
57480,set_tempo,120,1,0,,,,,,756811,,,,,,,
57480,note_on,0,0,1,,,,,,,,,0,,,78,42
57480,note_on,2,0,1,,,,,,,,,0,,,71,38
57487,control_change,129,0,2,,,,,,,,,0,64,0,,
57598,note_on,0,0,1,,,,,,,,,0,,,71,0
57598,note_on,118,0,1,,,,,,,,,0,,,78,0
57600,control_change,113,0,2,,,,,,,,,0,64,127,,
57600,note_on,0,0,2,,,,,,,,,0,,,52,44
57600,note_on,2,0,1,,,,,,,,,0,,,68,39
57600,note_on,0,0,1,,,,,,,,,0,,,76,44
57600,set_tempo,120,1,0,,,,,,736196,,,,,,,
57718,note_on,118,0,2,,,,,,,,,0,,,52,0
57720,note_on,2,0,2,,,,,,,,,0,,,59,36
57720,set_tempo,120,1,0,,,,,,705882,,,,,,,
57838,note_on,118,0,2,,,,,,,,,0,,,59,0
57840,note_on,2,0,2,,,,,,,,,0,,,68,38
57840,set_tempo,120,1,0,,,,,,722892,,,,,,,
57958,note_on,118,0,2,,,,,,,,,0,,,68,0
57960,note_on,2,0,2,,,,,,,,,0,,,64,36
58040,set_tempo,200,1,0,,,,,,720375,,,,,,,
58078,note_on,118,0,2,,,,,,,,,0,,,64,0
58080,note_on,2,0,2,,,,,,,,,0,,,71,44
58080,note_on,0,0,1,,,,,,,,,0,,,68,0
58080,note_on,480,0,1,,,,,,,,,0,,,76,0
58101,set_tempo,61,1,0,,,,,,713861,,,,,,,
58249,control_change,169,0,2,,,,,,,,,0,64,0,,
58310,note_on,61,0,2,,,,,,,,,0,,,71,0
58320,set_tempo,219,1,0,,,,,,681818,,,,,,,
58320,note_on,0,0,1,,,,,,,,,0,,,64,74
58320,note_on,240,0,1,,,,,,,,,0,,,56,67
58378,note_on,0,0,1,,,,,,,,,0,,,56,0
58378,note_on,58,0,1,,,,,,,,,0,,,64,0
58440,note_on,0,0,1,,,,,,,,,0,,,68,70
58440,set_tempo,120,1,0,,,,,,727273,,,,,,,
58440,note_on,62,0,1,,,,,,,,,0,,,64,62
58498,note_on,58,0,1,,,,,,,,,0,,,68,0
58498,note_on,0,0,1,,,,,,,,,0,,,64,0
58560,set_tempo,120,1,0,,,,,,710059,,,,,,,
58560,note_on,0,0,1,,,,,,,,,0,,,66,82
58560,note_on,62,0,1,,,,,,,,,0,,,59,73
58780,note_on,220,0,1,,,,,,,,,0,,,66,0
58780,note_on,0,0,1,,,,,,,,,0,,,59,0
58800,note_on,0,0,1,,,,,,,,,0,,,68,74
58800,note_on,20,0,1,,,,,,,,,0,,,64,67
58800,set_tempo,240,1,0,,,,,,659341,,,,,,,
58858,note_on,0,0,1,,,,,,,,,0,,,64,0
58858,note_on,58,0,1,,,,,,,,,0,,,68,0
58920,note_on,62,0,1,,,,,,,,,0,,,66,64
58920,note_on,0,0,1,,,,,,,,,0,,,69,72
58920,set_tempo,120,1,0,,,,,,681818,,,,,,,
58978,note_on,0,0,1,,,,,,,,,0,,,66,0
58978,note_on,58,0,1,,,,,,,,,0,,,69,0
59040,note_on,62,0,1,,,,,,,,,0,,,68,71
59040,note_on,0,0,1,,,,,,,,,0,,,71,80
59040,set_tempo,120,1,0,,,,,,701754,,,,,,,
59260,note_on,0,0,1,,,,,,,,,0,,,68,0
59260,note_on,220,0,1,,,,,,,,,0,,,71,0
59280,note_on,20,0,1,,,,,,,,,0,,,69,69
59280,note_on,0,0,1,,,,,,,,,0,,,73,77
59280,set_tempo,240,1,0,,,,,,648649,,,,,,,
59338,note_on,0,0,1,,,,,,,,,0,,,69,0
59338,note_on,58,0,1,,,,,,,,,0,,,73,0
59400,set_tempo,120,1,0,,,,,,681818,,,,,,,
59400,note_on,0,0,1,,,,,,,,,0,,,71,72
59400,note_on,62,0,1,,,,,,,,,0,,,68,64
59458,note_on,0,0,1,,,,,,,,,0,,,68,0
59458,note_on,58,0,1,,,,,,,,,0,,,71,0
59520,set_tempo,120,1,0,,,,,,714286,,,,,,,
59520,note_on,0,0,1,,,,,,,,,0,,,69,83
59520,note_on,62,0,1,,,,,,,,,0,,,66,74
59740,note_on,0,0,1,,,,,,,,,0,,,66,0
59740,note_on,220,0,1,,,,,,,,,0,,,69,0
59760,note_on,0,0,1,,,,,,,,,0,,,68,75
59760,note_on,20,0,1,,,,,,,,,0,,,64,68
59760,set_tempo,240,1,0,,,,,,641711,,,,,,,
59818,note_on,0,0,1,,,,,,,,,0,,,64,0
59818,note_on,58,0,1,,,,,,,,,0,,,68,0
59880,set_tempo,120,1,0,,,,,,681818,,,,,,,
59880,note_on,0,0,1,,,,,,,,,0,,,69,71
59880,note_on,62,0,1,,,,,,,,,0,,,66,63
59938,note_on,58,0,1,,,,,,,,,0,,,69,0
59938,note_on,0,0,1,,,,,,,,,0,,,66,0
60000,set_tempo,120,1,0,,,,,,714286,,,,,,,
60000,note_on,62,0,1,,,,,,,,,0,,,59,74
60000,note_on,0,0,1,,,,,,,,,0,,,66,83
60220,note_on,0,0,1,,,,,,,,,0,,,59,0
60220,note_on,220,0,1,,,,,,,,,0,,,66,0
60220,set_tempo,220,1,0,,,,,,670391,,,,,,,
60240,note_on,20,0,1,,,,,,,,,0,,,56,67
60240,note_on,0,0,1,,,,,,,,,0,,,64,74
60240,set_tempo,20,1,0,,,,,,685714,,,,,,,
60298,note_on,0,0,1,,,,,,,,,0,,,56,0
60298,note_on,58,0,1,,,,,,,,,0,,,64,0
60360,note_on,0,0,1,,,,,,,,,0,,,68,71
60360,note_on,62,0,1,,,,,,,,,0,,,64,63
60360,set_tempo,120,1,0,,,,,,710059,,,,,,,
60418,note_on,0,0,1,,,,,,,,,0,,,64,0
60418,note_on,58,0,1,,,,,,,,,0,,,68,0
60480,note_on,62,0,1,,,,,,,,,0,,,59,73
60480,note_on,0,0,1,,,,,,,,,0,,,66,82
60480,set_tempo,120,1,0,,,,,,722892,,,,,,,
60700,note_on,220,0,1,,,,,,,,,0,,,66,0
60700,note_on,0,0,1,,,,,,,,,0,,,59,0
60720,note_on,0,0,1,,,,,,,,,0,,,68,74
60720,set_tempo,240,1,0,,,,,,641711,,,,,,,
60720,note_on,20,0,1,,,,,,,,,0,,,64,67
60778,note_on,58,0,1,,,,,,,,,0,,,68,0
60778,note_on,0,0,1,,,,,,,,,0,,,64,0
60840,note_on,62,0,1,,,,,,,,,0,,,66,63
60840,set_tempo,120,1,0,,,,,,701754,,,,,,,
60840,note_on,0,0,1,,,,,,,,,0,,,69,71
60898,note_on,58,0,1,,,,,,,,,0,,,69,0
60898,note_on,0,0,1,,,,,,,,,0,,,66,0
60960,note_on,62,0,1,,,,,,,,,0,,,68,71
60960,set_tempo,120,1,0,,,,,,689655,,,,,,,
60960,note_on,0,0,1,,,,,,,,,0,,,71,80
61180,note_on,220,0,1,,,,,,,,,0,,,71,0
61180,note_on,0,0,1,,,,,,,,,0,,,68,0
61200,set_tempo,240,1,0,,,,,,670391,,,,,,,
61200,note_on,20,0,1,,,,,,,,,0,,,69,71
61200,note_on,0,0,1,,,,,,,,,0,,,73,80
61258,note_on,0,0,1,,,,,,,,,0,,,69,0
61258,note_on,58,0,1,,,,,,,,,0,,,73,0
61320,note_on,0,0,1,,,,,,,,,0,,,71,77
61320,set_tempo,120,1,0,,,,,,718563,,,,,,,
61320,note_on,62,0,1,,,,,,,,,0,,,68,69
61378,note_on,58,0,1,,,,,,,,,0,,,71,0
61378,note_on,0,0,1,,,,,,,,,0,,,68,0
61440,set_tempo,120,1,0,,,,,,863309,,,,,,,
61440,note_on,62,0,1,,,,,,,,,0,,,66,74
61440,note_on,0,0,1,,,,,,,,,0,,,69,83
61660,note_on,220,0,1,,,,,,,,,0,,,69,0
61660,note_on,0,0,1,,,,,,,,,0,,,66,0
61680,note_on,20,0,1,,,,,,,,,0,,,64,67
61680,note_on,0,0,1,,,,,,,,,0,,,68,74
61680,set_tempo,240,1,0,,,,,,1061947,,,,,,,
61738,note_on,58,0,1,,,,,,,,,0,,,68,0
61738,note_on,0,0,1,,,,,,,,,0,,,64,0
61800,note_on,62,0,1,,,,,,,,,0,,,66,62
61800,note_on,0,0,1,,,,,,,,,0,,,69,70
61800,set_tempo,120,1,0,,,,,,1224490,,,,,,,
61858,note_on,58,0,1,,,,,,,,,0,,,69,0
61858,note_on,0,0,1,,,,,,,,,0,,,66,0
61920,note_on,0,0,1,,,,,,,,,0,,,66,72
61920,note_on,62,0,1,,,,,,,,,0,,,59,64
61920,set_tempo,120,1,0,,,,,,2142857,,,,,,,
62100,note_on,0,0,1,,,,,,,,,0,,,59,0
62100,note_on,180,0,1,,,,,,,,,0,,,66,0
62160,note_on,0,0,1,,,,,,,,,0,,,95,48
62160,note_on,60,0,1,,,,,,,,,0,,,92,42
62160,set_tempo,240,1,0,,,,,,693642,,,,,,,
62278,note_on,118,0,1,,,,,,,,,0,,,95,0
62278,note_on,0,0,1,,,,,,,,,0,,,92,0
62280,note_on,0,0,1,,,,,,,,,0,,,93,44
62280,note_on,2,0,1,,,,,,,,,0,,,90,39
62398,note_on,0,0,1,,,,,,,,,0,,,90,0
62398,note_on,118,0,1,,,,,,,,,0,,,93,0
62400,note_on,0,0,1,,,,,,,,,0,,,92,52
62400,note_on,0,0,2,,,,,,,,,0,,,52,38
62400,note_on,0,0,2,,,,,,,,,0,,,59,42
62400,note_on,2,0,1,,,,,,,,,0,,,88,47
62400,set_tempo,240,1,0,,,,,,718563,,,,,,,
62400,control_change,4090,0,2,,,,,,,,,0,64,127,,
62518,note_on,118,0,2,,,,,,,,,0,,,59,0
62520,note_on,2,0,2,,,,,,,,,0,,,64,38
62630,note_on,230,0,1,,,,,,,,,0,,,92,0
62630,note_on,0,0,1,,,,,,,,,0,,,88,0
62638,note_on,118,0,2,,,,,,,,,0,,,64,0
62640,set_tempo,240,1,0,,,,,,689655,,,,,,,
62640,note_on,0,0,1,,,,,,,,,0,,,92,42
62640,note_on,2,0,2,,,,,,,,,0,,,71,36
62640,note_on,10,0,1,,,,,,,,,0,,,88,38
62758,note_on,118,0,1,,,,,,,,,0,,,92,0
62758,note_on,0,0,1,,,,,,,,,0,,,88,0
62760,note_on,2,0,1,,,,,,,,,0,,,83,35
62760,note_on,0,0,1,,,,,,,,,0,,,90,39
62870,note_on,230,0,2,,,,,,,,,0,,,71,0
62878,note_on,0,0,1,,,,,,,,,0,,,83,0
62878,note_on,118,0,1,,,,,,,,,0,,,90,0
62880,note_on,0,0,2,,,,,,,,,0,,,71,42
62880,note_on,10,0,2,,,,,,,,,0,,,52,0
62880,note_on,0,0,1,,,,,,,,,0,,,88,46
62880,note_on,0,0,2,,,,,,,,,0,,,64,42
62880,set_tempo,240,1,0,,,,,,718563,,,,,,,
62880,note_on,2,0,1,,,,,,,,,0,,,80,40
62998,note_on,118,0,2,,,,,,,,,0,,,64,0
63000,note_on,2,0,2,,,,,,,,,0,,,59,38
63110,note_on,230,0,1,,,,,,,,,0,,,88,0
63110,note_on,0,0,1,,,,,,,,,0,,,80,0
63118,note_on,118,0,2,,,,,,,,,0,,,59,0
63120,note_on,2,0,2,,,,,,,,,0,,,52,39
63120,set_tempo,240,1,0,,,,,,685714,,,,,,,
63120,note_on,0,0,1,,,,,,,,,0,,,80,41
63120,note_on,10,0,1,,,,,,,,,0,,,83,47
63238,note_on,0,0,1,,,,,,,,,0,,,83,0
63238,note_on,118,0,1,,,,,,,,,0,,,80,0
63240,note_on,2,0,1,,,,,,,,,0,,,78,38
63240,note_on,0,0,1,,,,,,,,,0,,,81,42
63282,control_change,162,0,2,,,,,,,,,0,64,0,,
63350,note_on,68,0,2,,,,,,,,,0,,,52,0
63358,note_on,0,0,1,,,,,,,,,0,,,78,0
63358,note_on,118,0,1,,,,,,,,,0,,,81,0
63360,note_on,0,0,2,,,,,,,,,0,,,59,40
63360,note_on,0,0,1,,,,,,,,,0,,,80,50
63360,set_tempo,240,1,0,,,,,,718563,,,,,,,
63360,note_on,10,0,2,,,,,,,,,0,,,71,0
63360,note_on,0,0,2,,,,,,,,,0,,,52,36
63360,control_change,0,0,2,,,,,,,,,0,64,127,,
63360,note_on,2,0,1,,,,,,,,,0,,,76,45
63478,note_on,118,0,2,,,,,,,,,0,,,59,0
63480,note_on,2,0,2,,,,,,,,,0,,,64,39
63590,note_on,0,0,1,,,,,,,,,0,,,76,0
63590,note_on,230,0,1,,,,,,,,,0,,,80,0
63598,note_on,118,0,2,,,,,,,,,0,,,64,0
63600,note_on,10,0,1,,,,,,,,,0,,,76,38
63600,set_tempo,240,1,0,,,,,,685714,,,,,,,
63600,note_on,2,0,2,,,,,,,,,0,,,71,39
63600,note_on,0,0,1,,,,,,,,,0,,,80,42
63718,note_on,118,0,1,,,,,,,,,0,,,80,0
63718,note_on,0,0,1,,,,,,,,,0,,,76,0
63720,note_on,2,0,1,,,,,,,,,0,,,71,40
63720,note_on,0,0,1,,,,,,,,,0,,,78,40
63830,note_on,230,0,2,,,,,,,,,0,,,71,0
63838,note_on,0,0,1,,,,,,,,,0,,,71,0
63838,note_on,118,0,1,,,,,,,,,0,,,78,0
63840,note_on,10,0,2,,,,,,,,,0,,,52,0
63840,note_on,2,0,1,,,,,,,,,0,,,68,41
63840,note_on,0,0,2,,,,,,,,,0,,,71,41
63840,note_on,0,0,2,,,,,,,,,0,,,64,41
63840,note_on,0,0,1,,,,,,,,,0,,,76,47
63840,set_tempo,240,1,0,,,,,,705882,,,,,,,
63958,note_on,118,0,2,,,,,,,,,0,,,64,0
63960,note_on,2,0,2,,,,,,,,,0,,,59,39
64070,note_on,230,0,1,,,,,,,,,0,,,76,0
64070,note_on,0,0,1,,,,,,,,,0,,,68,0
64078,note_on,118,0,2,,,,,,,,,0,,,59,0
64080,note_on,10,0,1,,,,,,,,,0,,,56,41
64080,note_on,0,0,1,,,,,,,,,0,,,64,47
64080,set_tempo,240,1,0,,,,,,750000,,,,,,,
64080,note_on,2,0,2,,,,,,,,,0,,,52,39
64138,note_on,58,0,1,,,,,,,,,0,,,64,0
64138,note_on,0,0,1,,,,,,,,,0,,,56,0
64200,note_on,62,0,1,,,,,,,,,0,,,59,38
64200,control_change,120,0,2,,,,,,,,,0,64,0,,
64200,note_on,0,0,1,,,,,,,,,0,,,66,42
64258,note_on,0,0,1,,,,,,,,,0,,,59,0
64258,note_on,58,0,1,,,,,,,,,0,,,66,0
64310,note_on,110,0,2,,,,,,,,,0,,,52,0
64320,set_tempo,240,1,0,,,,,,789474,,,,,,,
64320,note_on,0,0,1,,,,,,,,,0,,,68,50
64320,note_on,10,0,2,,,,,,,,,0,,,71,0
64320,note_on,62,0,1,,,,,,,,,0,,,64,45
64550,note_on,230,0,1,,,,,,,,,0,,,68,0
64550,note_on,0,0,1,,,,,,,,,0,,,64,0
64560,note_on,0,0,1,,,,,,,,,0,,,69,47
64560,set_tempo,240,1,0,,,,,,882353,,,,,,,
64560,note_on,10,0,1,,,,,,,,,0,,,66,41
64618,note_on,0,0,1,,,,,,,,,0,,,66,0
64618,note_on,58,0,1,,,,,,,,,0,,,69,0
64680,set_tempo,120,1,0,,,,,,882353,,,,,,,
64680,note_on,62,0,1,,,,,,,,,0,,,64,36
64680,note_on,0,0,1,,,,,,,,,0,,,68,40
64738,note_on,0,0,1,,,,,,,,,0,,,64,0
64738,note_on,58,0,1,,,,,,,,,0,,,68,0
64780,set_tempo,100,1,0,,,,,,895522,,,,,,,
64800,note_on,0,0,1,,,,,,,,,0,,,66,41
64800,note_on,62,0,1,,,,,,,,,0,,,59,37
64800,set_tempo,20,1,0,,,,,,930233,,,,,,,
65030,note_on,230,0,1,,,,,,,,,0,,,66,0
65030,note_on,0,0,1,,,,,,,,,0,,,59,0
65040,note_on,0,0,1,,,,,,,,,0,,,68,46
65040,set_tempo,240,1,0,,,,,,1132075,,,,,,,
65040,note_on,10,0,1,,,,,,,,,0,,,64,40
65098,note_on,58,0,1,,,,,,,,,0,,,68,0
65098,note_on,0,0,1,,,,,,,,,0,,,64,0
65160,note_on,62,0,1,,,,,,,,,0,,,59,35
65160,set_tempo,120,1,0,,,,,,1445783,,,,,,,
65160,note_on,0,0,1,,,,,,,,,0,,,66,39
65218,note_on,58,0,1,,,,,,,,,0,,,66,0
65218,note_on,0,0,1,,,,,,,,,0,,,59,0
65280,set_tempo,120,1,0,,,,,,937500,,,,,,,
65280,note_on,62,0,1,,,,,,,,,0,,,56,36
65280,note_on,0,0,1,,,,,,,,,0,,,64,40
65760,note_on,0,0,1,,,,,,,,,0,,,56,0
65760,note_on,480,0,1,,,,,,,,,0,,,64,0
66000,note_on,0,0,2,,,,,,,,,0,,,52,79
66000,note_on,1680,0,2,,,,,,,,,0,,,40,79
66000,note_on,0,0,1,,,,,,,,,0,,,76,88
66000,note_on,240,0,1,,,,,,,,,0,,,64,79
66118,note_on,118,0,1,,,,,,,,,0,,,76,0
66118,note_on,0,0,2,,,,,,,,,0,,,40,0
66118,note_on,0,0,1,,,,,,,,,0,,,64,0
66118,note_on,118,0,2,,,,,,,,,0,,,52,0
66240,note_on,122,0,2,,,,,,,,,0,,,45,86
66240,set_tempo,0,1,0,,,,,,769231,,,,,,,
66240,note_on,0,0,2,,,,,,,,,0,,,57,86
66240,note_on,0,0,1,,,,,,,,,0,,,81,97
66240,key_signature,960,1,0,,,,,C,,,,,,,,
66240,note_on,122,0,1,,,,,,,,,0,,,69,88
66960,set_tempo,720,1,0,,,,,,784314,,,,,,,
66960,note_on,0,0,1,,,,,,,,,0,,,64,81
66960,note_on,0,0,1,,,,,,,,,0,,,69,0
66960,note_on,0,0,1,,,,,,,,,0,,,76,91
66960,note_on,720,0,1,,,,,,,,,0,,,81,0
66960,note_on,0,0,2,,,,,,,,,0,,,40,81
66960,note_on,0,0,2,,,,,,,,,0,,,45,0
66960,note_on,0,0,2,,,,,,,,,0,,,52,81
66960,note_on,720,0,2,,,,,,,,,0,,,57,0
67140,note_on,0,0,1,,,,,,,,,0,,,64,0
67140,note_on,0,0,2,,,,,,,,,0,,,40,0
67140,note_on,180,0,2,,,,,,,,,0,,,52,0
67140,note_on,180,0,1,,,,,,,,,0,,,76,0
67200,set_tempo,240,1,0,,,,,,800000,,,,,,,
67200,note_on,0,0,2,,,,,,,,,0,,,48,88
67200,note_on,60,0,2,,,,,,,,,0,,,36,88
67200,note_on,60,0,1,,,,,,,,,0,,,60,88
67200,note_on,0,0,1,,,,,,,,,0,,,72,97
67440,note_on,240,0,2,,,,,,,,,0,,,48,0
67440,note_on,0,0,2,,,,,,,,,0,,,36,0
67440,note_on,0,0,2,,,,,,,,,0,,,33,84
67440,note_on,0,0,1,,,,,,,,,0,,,69,93
67440,note_on,0,0,1,,,,,,,,,0,,,60,0
67440,set_tempo,240,1,0,,,,,,937500,,,,,,,
67440,note_on,240,0,1,,,,,,,,,0,,,72,0
67440,note_on,0,0,1,,,,,,,,,0,,,57,83
67440,note_on,0,0,2,,,,,,,,,0,,,45,84
67680,note_on,240,0,1,,,,,,,,,0,,,69,0
67680,note_on,240,0,2,,,,,,,,,0,,,45,0
67680,note_on,0,0,2,,,,,,,,,0,,,33,0
67680,note_on,0,0,1,,,,,,,,,0,,,57,0
67900,set_tempo,460,1,0,,,,,,727273,,,,,,,
67920,set_tempo,20,1,0,,,,,,750000,,,,,,,
67920,note_on,240,0,1,,,,,,,,,0,,,57,48
67920,note_on,240,0,2,,,,,,,,,0,,,48,41
67954,note_on,34,0,2,,,,,,,,,0,,,50,41
67954,note_on,34,0,1,,,,,,,,,0,,,59,48
67956,note_on,2,0,2,,,,,,,,,0,,,48,0
67956,note_on,2,0,1,,,,,,,,,0,,,57,0
67980,set_tempo,60,1,0,,,,,,745342,,,,,,,
67988,note_on,32,0,2,,,,,,,,,0,,,52,41
67988,note_on,32,0,1,,,,,,,,,0,,,60,48
67990,note_on,2,0,2,,,,,,,,,0,,,50,0
67990,note_on,2,0,1,,,,,,,,,0,,,59,0
68022,note_on,32,0,2,,,,,,,,,0,,,53,42
68022,note_on,32,0,1,,,,,,,,,0,,,62,48
68024,note_on,2,0,2,,,,,,,,,0,,,52,0
68024,note_on,2,0,1,,,,,,,,,0,,,60,0
68040,set_tempo,60,1,0,,,,,,740741,,,,,,,
68056,note_on,32,0,2,,,,,,,,,0,,,55,42
68056,note_on,32,0,1,,,,,,,,,0,,,64,49
68058,note_on,2,0,1,,,,,,,,,0,,,62,0
68058,note_on,2,0,2,,,,,,,,,0,,,53,0
68090,note_on,32,0,1,,,,,,,,,0,,,65,49
68090,note_on,32,0,2,,,,,,,,,0,,,57,42
68092,note_on,2,0,1,,,,,,,,,0,,,64,0
68092,note_on,2,0,2,,,,,,,,,0,,,55,0
68100,set_tempo,60,1,0,,,,,,736196,,,,,,,
68124,note_on,32,0,1,,,,,,,,,0,,,67,49
68124,note_on,32,0,2,,,,,,,,,0,,,59,44
68126,note_on,2,0,1,,,,,,,,,0,,,65,0
68126,note_on,2,0,2,,,,,,,,,0,,,57,0
68140,set_tempo,40,1,0,,,,,,731707,,,,,,,
68160,note_on,0,0,2,,,,,,,,,0,,,60,44
68160,note_on,34,0,1,,,,,,,,,0,,,67,0
68160,note_on,34,0,2,,,,,,,,,0,,,59,0
68160,note_on,0,0,1,,,,,,,,,0,,,69,49
68194,note_on,34,0,1,,,,,,,,,0,,,71,49
68194,note_on,34,0,2,,,,,,,,,0,,,62,44
68196,note_on,2,0,2,,,,,,,,,0,,,60,0
68196,note_on,2,0,1,,,,,,,,,0,,,69,0
68200,set_tempo,60,1,0,,,,,,727273,,,,,,,
68228,note_on,32,0,2,,,,,,,,,0,,,64,44
68228,note_on,32,0,1,,,,,,,,,0,,,72,49
68230,note_on,2,0,1,,,,,,,,,0,,,71,0
68230,note_on,2,0,2,,,,,,,,,0,,,62,0
68260,set_tempo,60,1,0,,,,,,722892,,,,,,,
68262,note_on,32,0,1,,,,,,,,,0,,,74,49
68262,note_on,32,0,2,,,,,,,,,0,,,65,44
68264,note_on,2,0,1,,,,,,,,,0,,,72,0
68264,note_on,2,0,2,,,,,,,,,0,,,64,0
68296,note_on,32,0,2,,,,,,,,,0,,,67,44
68296,note_on,32,0,1,,,,,,,,,0,,,76,50
68298,note_on,2,0,1,,,,,,,,,0,,,74,0
68298,note_on,2,0,2,,,,,,,,,0,,,65,0
68300,set_tempo,40,1,0,,,,,,718563,,,,,,,
68330,note_on,32,0,2,,,,,,,,,0,,,69,45
68330,note_on,32,0,1,,,,,,,,,0,,,77,50
68332,note_on,2,0,2,,,,,,,,,0,,,67,0
68332,note_on,2,0,1,,,,,,,,,0,,,76,0
68360,set_tempo,60,1,0,,,,,,714286,,,,,,,
68364,note_on,32,0,2,,,,,,,,,0,,,71,45
68364,note_on,32,0,1,,,,,,,,,0,,,79,50
68366,note_on,2,0,2,,,,,,,,,0,,,69,0
68366,note_on,2,0,1,,,,,,,,,0,,,77,0
68400,note_on,0,0,2,,,,,,,,,0,,,72,44
68400,note_on,34,0,1,,,,,,,,,0,,,79,0
68400,note_on,0,0,1,,,,,,,,,0,,,81,49
68400,note_on,34,0,2,,,,,,,,,0,,,71,0
68420,set_tempo,60,1,0,,,,,,710059,,,,,,,
68434,note_on,34,0,2,,,,,,,,,0,,,74,44
68434,note_on,34,0,1,,,,,,,,,0,,,83,49
68436,note_on,2,0,1,,,,,,,,,0,,,81,0
68436,note_on,2,0,2,,,,,,,,,0,,,72,0
68460,set_tempo,40,1,0,,,,,,705882,,,,,,,
68468,note_on,32,0,1,,,,,,,,,0,,,84,49
68468,note_on,32,0,2,,,,,,,,,0,,,76,44
68470,note_on,2,0,1,,,,,,,,,0,,,83,0
68470,note_on,2,0,2,,,,,,,,,0,,,74,0
68502,note_on,32,0,2,,,,,,,,,0,,,77,44
68502,note_on,32,0,1,,,,,,,,,0,,,86,49
68504,note_on,2,0,2,,,,,,,,,0,,,76,0
68504,note_on,2,0,1,,,,,,,,,0,,,84,0
68520,set_tempo,60,1,0,,,,,,701754,,,,,,,
68536,note_on,32,0,1,,,,,,,,,0,,,88,49
68536,note_on,32,0,2,,,,,,,,,0,,,79,44
68538,note_on,2,0,2,,,,,,,,,0,,,77,0
68538,note_on,2,0,1,,,,,,,,,0,,,86,0
68570,note_on,32,0,1,,,,,,,,,0,,,89,48
68570,note_on,32,0,2,,,,,,,,,0,,,81,42
68572,note_on,2,0,1,,,,,,,,,0,,,88,0
68572,note_on,2,0,2,,,,,,,,,0,,,79,0
68580,set_tempo,60,1,0,,,,,,697674,,,,,,,
68604,note_on,32,0,1,,,,,,,,,0,,,91,48
68604,note_on,32,0,2,,,,,,,,,0,,,83,42
68606,note_on,2,0,2,,,,,,,,,0,,,81,0
68606,note_on,2,0,1,,,,,,,,,0,,,89,0
68620,set_tempo,40,1,0,,,,,,693642,,,,,,,
68640,note_on,34,0,2,,,,,,,,,0,,,83,0
68640,note_on,0,0,1,,,,,,,,,0,,,93,53
68640,note_on,34,0,1,,,,,,,,,0,,,91,0
68640,note_on,0,0,2,,,,,,,,,0,,,84,48
68640,set_tempo,20,1,0,,,,,,759494,,,,,,,
68758,note_on,118,0,1,,,,,,,,,0,,,93,0
68758,note_on,118,0,2,,,,,,,,,0,,,84,0
68880,note_on,0,0,1,,,,,,,,,0,,,86,38
68880,note_on,122,0,2,,,,,,,,,0,,,83,36
68880,note_on,0,0,2,,,,,,,,,0,,,74,31
68880,set_tempo,240,1,0,,,,,,784314,,,,,,,
68880,note_on,0,0,2,,,,,,,,,0,,,77,31
68880,note_on,0,0,1,,,,,,,,,0,,,89,38
68880,note_on,122,0,1,,,,,,,,,0,,,96,61
68938,note_on,0,0,2,,,,,,,,,0,,,74,0
68938,note_on,58,0,1,,,,,,,,,0,,,89,0
68938,note_on,58,0,2,,,,,,,,,0,,,77,0
68938,note_on,0,0,1,,,,,,,,,0,,,86,0
68938,note_on,0,0,2,,,,,,,,,0,,,83,0
68938,note_on,0,0,1,,,,,,,,,0,,,96,0
69000,note_on,0,0,2,,,,,,,,,0,,,77,31
69000,note_on,0,0,2,,,,,,,,,0,,,83,36
69000,note_on,0,0,1,,,,,,,,,0,,,89,38
69000,note_on,0,0,1,,,,,,,,,0,,,95,52
69000,note_on,62,0,1,,,,,,,,,0,,,86,38
69000,note_on,62,0,2,,,,,,,,,0,,,74,31
69058,note_on,58,0,2,,,,,,,,,0,,,83,0
69058,note_on,0,0,1,,,,,,,,,0,,,86,0
69058,note_on,0,0,1,,,,,,,,,0,,,89,0
69058,note_on,0,0,2,,,,,,,,,0,,,74,0
69058,note_on,0,0,2,,,,,,,,,0,,,77,0
69058,note_on,58,0,1,,,,,,,,,0,,,95,0
69060,note_on,2,0,2,,,,,,,,,0,,,64,40
69118,note_on,58,0,2,,,,,,,,,0,,,64,0
69120,note_on,0,0,2,,,,,,,,,0,,,76,36
69120,note_on,2,0,2,,,,,,,,,0,,,81,40
69120,note_on,62,0,1,,,,,,,,,0,,,95,53
69120,note_on,0,0,2,,,,,,,,,0,,,72,36
69120,set_tempo,240,1,0,,,,,,740741,,,,,,,
69120,note_on,0,0,1,,,,,,,,,0,,,84,44
69170,note_on,50,0,1,,,,,,,,,0,,,95,0
69170,note_on,0,0,1,,,,,,,,,0,,,93,49
69220,note_on,0,0,1,,,,,,,,,0,,,95,53
69220,note_on,50,0,1,,,,,,,,,0,,,93,0
69270,note_on,50,0,1,,,,,,,,,0,,,95,0
69270,note_on,0,0,1,,,,,,,,,0,,,93,49
69320,note_on,50,0,1,,,,,,,,,0,,,93,0
69320,note_on,0,0,1,,,,,,,,,0,,,95,53
69370,note_on,50,0,1,,,,,,,,,0,,,95,0
69370,note_on,0,0,1,,,,,,,,,0,,,93,49
69420,note_on,50,0,1,,,,,,,,,0,,,93,0
69420,note_on,0,0,1,,,,,,,,,0,,,92,50
69478,note_on,58,0,1,,,,,,,,,0,,,92,0
69480,note_on,2,0,1,,,,,,,,,0,,,95,57
69538,note_on,58,0,1,,,,,,,,,0,,,95,0
69540,note_on,2,0,1,,,,,,,,,0,,,93,53
69598,note_on,58,0,1,,,,,,,,,0,,,93,0
69600,note_on,0,0,1,,,,,,,,,0,,,83,39
69600,note_on,0,0,2,,,,,,,,,0,,,76,29
69600,note_on,0,0,1,,,,,,,,,0,,,92,48
69600,note_on,480,0,2,,,,,,,,,0,,,76,0
69600,note_on,0,0,2,,,,,,,,,0,,,81,0
69600,note_on,0,0,2,,,,,,,,,0,,,71,29
69600,note_on,2,0,1,,,,,,,,,0,,,84,0
69600,note_on,0,0,2,,,,,,,,,0,,,72,0
69600,note_on,0,0,2,,,,,,,,,0,,,80,34
69810,note_on,210,0,2,,,,,,,,,0,,,80,0
69810,note_on,210,0,1,,,,,,,,,0,,,83,0
69810,note_on,0,0,2,,,,,,,,,0,,,76,0
69810,note_on,0,0,1,,,,,,,,,0,,,92,0
69810,note_on,0,0,2,,,,,,,,,0,,,71,0
69840,set_tempo,720,1,0,,,,,,937500,,,,,,,
69840,note_on,0,0,1,,,,,,,,,0,,,74,88
69840,note_on,30,0,1,,,,,,,,,0,,,62,79
69840,note_on,0,0,2,,,,,,,,,0,,,50,79
69840,note_on,30,0,2,,,,,,,,,0,,,38,79
69958,note_on,118,0,2,,,,,,,,,0,,,50,0
69958,note_on,0,0,1,,,,,,,,,0,,,62,0
69958,note_on,0,0,2,,,,,,,,,0,,,38,0
69958,note_on,118,0,1,,,,,,,,,0,,,74,0
70080,note_on,0,0,2,,,,,,,,,0,,,53,86
70080,note_on,122,0,2,,,,,,,,,0,,,41,86
70080,note_on,0,0,1,,,,,,,,,0,,,77,97
70080,set_tempo,240,1,0,,,,,,769231,,,,,,,
70080,note_on,122,0,1,,,,,,,,,0,,,65,88
70800,note_on,720,0,1,,,,,,,,,0,,,77,0
70800,note_on,720,0,2,,,,,,,,,0,,,53,0
70800,note_on,0,0,1,,,,,,,,,0,,,74,91
70800,note_on,0,0,1,,,,,,,,,0,,,65,0
70800,note_on,0,0,1,,,,,,,,,0,,,62,81
70800,note_on,0,0,2,,,,,,,,,0,,,50,81
70800,note_on,0,0,2,,,,,,,,,0,,,41,0
70800,note_on,0,0,2,,,,,,,,,0,,,38,81
70800,set_tempo,720,1,0,,,,,,750000,,,,,,,
70980,note_on,0,0,1,,,,,,,,,0,,,62,0
70980,note_on,0,0,2,,,,,,,,,0,,,38,0
70980,note_on,180,0,1,,,,,,,,,0,,,74,0
70980,note_on,180,0,2,,,,,,,,,0,,,50,0
71040,note_on,0,0,2,,,,,,,,,0,,,47,88
71040,set_tempo,240,1,0,,,,,,769231,,,,,,,
71040,note_on,0,0,1,,,,,,,,,0,,,71,97
71040,note_on,60,0,1,,,,,,,,,0,,,59,88
71040,note_on,60,0,2,,,,,,,,,0,,,35,88
71270,note_on,0,0,2,,,,,,,,,0,,,35,0
71270,note_on,230,0,2,,,,,,,,,0,,,47,0
71270,note_on,0,0,1,,,,,,,,,0,,,59,0
71270,note_on,230,0,1,,,,,,,,,0,,,71,0
71280,note_on,10,0,2,,,,,,,,,0,,,32,83
71280,note_on,0,0,2,,,,,,,,,0,,,44,83
71280,note_on,10,0,1,,,,,,,,,0,,,56,83
71280,set_tempo,240,1,0,,,,,,937500,,,,,,,
71280,note_on,0,0,1,,,,,,,,,0,,,68,93
71520,note_on,240,0,1,,,,,,,,,0,,,68,0
71520,note_on,240,0,2,,,,,,,,,0,,,44,0
71520,note_on,0,0,2,,,,,,,,,0,,,32,0
71520,note_on,0,0,1,,,,,,,,,0,,,56,0
71740,set_tempo,460,1,0,,,,,,727273,,,,,,,
71760,set_tempo,20,1,0,,,,,,750000,,,,,,,
71760,note_on,240,0,2,,,,,,,,,0,,,50,41
71760,note_on,240,0,1,,,,,,,,,0,,,59,48
71794,note_on,34,0,2,,,,,,,,,0,,,52,41
71794,note_on,34,0,1,,,,,,,,,0,,,60,48
71796,note_on,2,0,2,,,,,,,,,0,,,50,0
71796,note_on,2,0,1,,,,,,,,,0,,,59,0
71820,set_tempo,60,1,0,,,,,,745342,,,,,,,
71828,note_on,32,0,1,,,,,,,,,0,,,62,48
71828,note_on,32,0,2,,,,,,,,,0,,,53,41
71830,note_on,2,0,2,,,,,,,,,0,,,52,0
71830,note_on,2,0,1,,,,,,,,,0,,,60,0
71862,note_on,32,0,1,,,,,,,,,0,,,64,48
71862,note_on,32,0,2,,,,,,,,,0,,,55,42
71864,note_on,2,0,2,,,,,,,,,0,,,53,0
71864,note_on,2,0,1,,,,,,,,,0,,,62,0
71880,set_tempo,60,1,0,,,,,,740741,,,,,,,
71896,note_on,32,0,2,,,,,,,,,0,,,57,42
71896,note_on,32,0,1,,,,,,,,,0,,,65,49
71898,note_on,2,0,2,,,,,,,,,0,,,55,0
71898,note_on,2,0,1,,,,,,,,,0,,,64,0
71930,note_on,32,0,2,,,,,,,,,0,,,59,42
71930,note_on,32,0,1,,,,,,,,,0,,,67,49
71932,note_on,2,0,1,,,,,,,,,0,,,65,0
71932,note_on,2,0,2,,,,,,,,,0,,,57,0
71940,set_tempo,60,1,0,,,,,,736196,,,,,,,
71964,note_on,32,0,2,,,,,,,,,0,,,60,44
71964,note_on,32,0,1,,,,,,,,,0,,,69,49
71966,note_on,2,0,2,,,,,,,,,0,,,59,0
71966,note_on,2,0,1,,,,,,,,,0,,,67,0
71980,set_tempo,40,1,0,,,,,,731707,,,,,,,
72000,note_on,34,0,1,,,,,,,,,0,,,69,0
72000,note_on,0,0,2,,,,,,,,,0,,,62,44
72000,note_on,34,0,2,,,,,,,,,0,,,60,0
72000,note_on,0,0,1,,,,,,,,,0,,,71,49
72034,note_on,34,0,1,,,,,,,,,0,,,72,49
72034,note_on,34,0,2,,,,,,,,,0,,,64,44
72036,note_on,2,0,1,,,,,,,,,0,,,71,0
72036,note_on,2,0,2,,,,,,,,,0,,,62,0
72040,set_tempo,60,1,0,,,,,,727273,,,,,,,
72068,note_on,32,0,2,,,,,,,,,0,,,65,44
72068,note_on,32,0,1,,,,,,,,,0,,,74,49
72070,note_on,2,0,2,,,,,,,,,0,,,64,0
72070,note_on,2,0,1,,,,,,,,,0,,,72,0
72100,set_tempo,60,1,0,,,,,,722892,,,,,,,
72102,note_on,32,0,1,,,,,,,,,0,,,76,49
72102,note_on,32,0,2,,,,,,,,,0,,,67,44
72104,note_on,2,0,1,,,,,,,,,0,,,74,0
72104,note_on,2,0,2,,,,,,,,,0,,,65,0
72136,note_on,32,0,1,,,,,,,,,0,,,77,50
72136,note_on,32,0,2,,,,,,,,,0,,,69,44
72138,note_on,2,0,2,,,,,,,,,0,,,67,0
72138,note_on,2,0,1,,,,,,,,,0,,,76,0
72140,set_tempo,40,1,0,,,,,,718563,,,,,,,
72170,note_on,32,0,2,,,,,,,,,0,,,71,45
72170,note_on,32,0,1,,,,,,,,,0,,,79,50
72172,note_on,2,0,2,,,,,,,,,0,,,69,0
72172,note_on,2,0,1,,,,,,,,,0,,,77,0
72200,set_tempo,60,1,0,,,,,,714286,,,,,,,
72204,note_on,32,0,2,,,,,,,,,0,,,72,45
72204,note_on,32,0,1,,,,,,,,,0,,,81,50
72206,note_on,2,0,2,,,,,,,,,0,,,71,0
72206,note_on,2,0,1,,,,,,,,,0,,,79,0
72240,note_on,0,0,1,,,,,,,,,0,,,83,49
72240,note_on,34,0,2,,,,,,,,,0,,,72,0
72240,note_on,0,0,2,,,,,,,,,0,,,74,44
72240,note_on,34,0,1,,,,,,,,,0,,,81,0
72260,set_tempo,60,1,0,,,,,,710059,,,,,,,
72274,note_on,34,0,1,,,,,,,,,0,,,84,49
72274,note_on,34,0,2,,,,,,,,,0,,,76,44
72276,note_on,2,0,1,,,,,,,,,0,,,83,0
72276,note_on,2,0,2,,,,,,,,,0,,,74,0
72300,set_tempo,40,1,0,,,,,,705882,,,,,,,
72308,note_on,32,0,1,,,,,,,,,0,,,86,49
72308,note_on,32,0,2,,,,,,,,,0,,,77,44
72310,note_on,2,0,1,,,,,,,,,0,,,84,0
72310,note_on,2,0,2,,,,,,,,,0,,,76,0
72342,note_on,32,0,1,,,,,,,,,0,,,88,49
72342,note_on,32,0,2,,,,,,,,,0,,,79,44
72344,note_on,2,0,1,,,,,,,,,0,,,86,0
72344,note_on,2,0,2,,,,,,,,,0,,,77,0
72360,set_tempo,60,1,0,,,,,,701754,,,,,,,
72376,note_on,32,0,1,,,,,,,,,0,,,89,49
72376,note_on,32,0,2,,,,,,,,,0,,,81,44
72378,note_on,2,0,1,,,,,,,,,0,,,88,0
72378,note_on,2,0,2,,,,,,,,,0,,,79,0
72410,note_on,32,0,1,,,,,,,,,0,,,91,48
72410,note_on,32,0,2,,,,,,,,,0,,,83,42
72412,note_on,2,0,2,,,,,,,,,0,,,81,0
72412,note_on,2,0,1,,,,,,,,,0,,,89,0
72420,set_tempo,60,1,0,,,,,,697674,,,,,,,
72444,note_on,32,0,1,,,,,,,,,0,,,93,48
72444,note_on,32,0,2,,,,,,,,,0,,,84,42
72446,note_on,2,0,2,,,,,,,,,0,,,83,0
72446,note_on,2,0,1,,,,,,,,,0,,,91,0
72460,set_tempo,40,1,0,,,,,,693642,,,,,,,
72480,note_on,0,0,1,,,,,,,,,0,,,95,53
72480,set_tempo,20,1,0,,,,,,731707,,,,,,,
72480,note_on,34,0,1,,,,,,,,,0,,,93,0
72480,note_on,0,0,2,,,,,,,,,0,,,86,48
72480,note_on,34,0,2,,,,,,,,,0,,,84,0
72598,note_on,118,0,1,,,,,,,,,0,,,95,0
72598,note_on,118,0,2,,,,,,,,,0,,,86,0
72720,note_on,0,0,2,,,,,,,,,0,,,77,36
72720,set_tempo,240,1,0,,,,,,754717,,,,,,,
72720,note_on,122,0,1,,,,,,,,,0,,,98,55
72720,note_on,122,0,2,,,,,,,,,0,,,68,31
72720,note_on,0,0,1,,,,,,,,,0,,,89,38
72778,note_on,0,0,2,,,,,,,,,0,,,68,0
72778,note_on,0,0,1,,,,,,,,,0,,,98,0
72778,note_on,58,0,1,,,,,,,,,0,,,89,0
72778,note_on,58,0,2,,,,,,,,,0,,,77,0
72840,note_on,0,0,1,,,,,,,,,0,,,96,51
72840,note_on,62,0,1,,,,,,,,,0,,,88,38
72840,note_on,62,0,2,,,,,,,,,0,,,76,36
72840,note_on,0,0,2,,,,,,,,,0,,,68,31
72898,note_on,0,0,1,,,,,,,,,0,,,88,0
72898,note_on,58,0,2,,,,,,,,,0,,,68,0
72898,note_on,0,0,2,,,,,,,,,0,,,76,0
72898,note_on,58,0,1,,,,,,,,,0,,,96,0
72960,set_tempo,240,1,0,,,,,,740741,,,,,,,
72960,note_on,0,0,1,,,,,,,,,0,,,86,44
72960,note_on,62,0,1,,,,,,,,,0,,,96,53
72960,note_on,62,0,2,,,,,,,,,0,,,80,40
72960,note_on,0,0,2,,,,,,,,,0,,,69,36
72960,note_on,0,0,2,,,,,,,,,0,,,77,36
73010,note_on,0,0,1,,,,,,,,,0,,,95,49
73010,note_on,50,0,1,,,,,,,,,0,,,96,0
73060,note_on,0,0,1,,,,,,,,,0,,,96,53
73060,note_on,50,0,1,,,,,,,,,0,,,95,0
73110,note_on,0,0,1,,,,,,,,,0,,,95,49
73110,note_on,50,0,1,,,,,,,,,0,,,96,0
73160,note_on,0,0,1,,,,,,,,,0,,,96,53
73160,note_on,50,0,1,,,,,,,,,0,,,95,0
73210,note_on,0,0,1,,,,,,,,,0,,,95,49
73210,note_on,50,0,1,,,,,,,,,0,,,96,0
73260,note_on,0,0,1,,,,,,,,,0,,,93,50
73260,note_on,50,0,1,,,,,,,,,0,,,95,0
73318,note_on,58,0,1,,,,,,,,,0,,,93,0
73320,note_on,2,0,1,,,,,,,,,0,,,96,57
73378,note_on,58,0,1,,,,,,,,,0,,,96,0
73380,note_on,2,0,1,,,,,,,,,0,,,95,53
73438,note_on,58,0,1,,,,,,,,,0,,,95,0
73440,note_on,2,0,1,,,,,,,,,0,,,86,0
73440,note_on,0,0,2,,,,,,,,,0,,,69,0
73440,note_on,0,0,1,,,,,,,,,0,,,93,48
73440,note_on,0,0,1,,,,,,,,,0,,,84,39
73440,note_on,0,0,2,,,,,,,,,0,,,81,38
73440,note_on,0,0,2,,,,,,,,,0,,,80,0
73440,note_on,0,0,2,,,,,,,,,0,,,69,34
73440,note_on,0,0,2,,,,,,,,,0,,,76,34
73440,note_on,480,0,2,,,,,,,,,0,,,77,0
73640,note_on,0,0,1,,,,,,,,,0,,,93,0
73640,note_on,200,0,2,,,,,,,,,0,,,81,0
73640,note_on,0,0,2,,,,,,,,,0,,,69,0
73640,note_on,0,0,2,,,,,,,,,0,,,76,0
73640,note_on,200,0,1,,,,,,,,,0,,,84,0
73680,note_on,0,0,1,,,,,,,,,0,,,88,57
73680,note_on,40,0,1,,,,,,,,,0,,,100,63
73738,note_on,58,0,1,,,,,,,,,0,,,88,0
73738,note_on,0,0,1,,,,,,,,,0,,,100,0
73920,set_tempo,960,1,0,,,,,,710059,,,,,,,
73920,note_on,182,0,1,,,,,,,,,0,,,105,70
73920,note_on,0,0,1,,,,,,,,,0,,,93,62
73978,note_on,0,0,1,,,,,,,,,0,,,105,0
73978,note_on,58,0,1,,,,,,,,,0,,,93,0
74160,set_tempo,240,1,0,,,,,,666667,,,,,,,
74160,note_on,182,0,1,,,,,,,,,0,,,64,51
74218,note_on,58,0,1,,,,,,,,,0,,,64,0
74220,note_on,2,0,1,,,,,,,,,0,,,62,48
74278,note_on,58,0,1,,,,,,,,,0,,,62,0
74280,note_on,2,0,1,,,,,,,,,0,,,61,51
74310,note_on,670,0,2,,,,,,,,,0,,,67,31
74338,note_on,58,0,1,,,,,,,,,0,,,61,0
74340,note_on,2,0,1,,,,,,,,,0,,,59,49
74340,note_on,30,0,2,,,,,,,,,0,,,73,31
74370,note_on,30,0,2,,,,,,,,,0,,,76,31
74398,note_on,58,0,1,,,,,,,,,0,,,59,0
74400,set_tempo,240,1,0,,,,,,718563,,,,,,,
74400,note_on,30,0,2,,,,,,,,,0,,,81,37
74400,note_on,2,0,1,,,,,,,,,0,,,57,56
74580,note_on,0,0,2,,,,,,,,,0,,,73,0
74580,note_on,180,0,1,,,,,,,,,0,,,57,0
74580,note_on,0,0,2,,,,,,,,,0,,,67,0
74580,note_on,180,0,2,,,,,,,,,0,,,81,0
74580,note_on,0,0,2,,,,,,,,,0,,,76,0
74640,note_on,60,0,1,,,,,,,,,0,,,93,49
74640,set_tempo,240,1,0,,,,,,670391,,,,,,,
74698,note_on,58,0,1,,,,,,,,,0,,,93,0
74700,note_on,2,0,1,,,,,,,,,0,,,91,46
74758,note_on,58,0,1,,,,,,,,,0,,,91,0
74760,note_on,2,0,1,,,,,,,,,0,,,89,49
74818,note_on,58,0,1,,,,,,,,,0,,,89,0
74820,note_on,2,0,1,,,,,,,,,0,,,88,45
74878,note_on,58,0,1,,,,,,,,,0,,,88,0
74880,set_tempo,240,1,0,,,,,,689655,,,,,,,
74880,note_on,2,0,1,,,,,,,,,0,,,89,53
75060,note_on,180,0,1,,,,,,,,,0,,,89,0
75120,note_on,60,0,1,,,,,,,,,0,,,69,51
75120,note_on,0,0,2,,,,,,,,,0,,,77,30
75120,set_tempo,240,1,0,,,,,,666667,,,,,,,
75120,note_on,540,0,2,,,,,,,,,0,,,74,30
75120,note_on,0,0,2,,,,,,,,,0,,,81,35
75178,note_on,58,0,1,,,,,,,,,0,,,69,0
75180,note_on,2,0,1,,,,,,,,,0,,,67,47
75238,note_on,58,0,1,,,,,,,,,0,,,67,0
75240,note_on,2,0,1,,,,,,,,,0,,,65,51
75298,note_on,58,0,1,,,,,,,,,0,,,65,0
75300,note_on,0,0,2,,,,,,,,,0,,,74,0
75300,note_on,180,0,2,,,,,,,,,0,,,77,0
75300,note_on,2,0,1,,,,,,,,,0,,,64,48
75300,note_on,0,0,2,,,,,,,,,0,,,81,0
75358,note_on,58,0,1,,,,,,,,,0,,,64,0
75360,note_on,0,0,2,,,,,,,,,0,,,77,36
75360,note_on,60,0,2,,,,,,,,,0,,,86,40
75360,set_tempo,240,1,0,,,,,,714286,,,,,,,
75360,note_on,2,0,1,,,,,,,,,0,,,62,55
75360,note_on,0,0,2,,,,,,,,,0,,,81,36
75540,note_on,180,0,2,,,,,,,,,0,,,77,0
75540,note_on,0,0,2,,,,,,,,,0,,,81,0
75540,note_on,0,0,2,,,,,,,,,0,,,86,0
75540,note_on,180,0,1,,,,,,,,,0,,,62,0
75600,note_on,60,0,1,,,,,,,,,0,,,101,63
75600,set_tempo,240,1,0,,,,,,736196,,,,,,,
75600,note_on,0,0,1,,,,,,,,,0,,,93,63
75658,note_on,0,0,1,,,,,,,,,0,,,101,0
75658,note_on,58,0,1,,,,,,,,,0,,,93,0
75840,set_tempo,240,1,0,,,,,,718563,,,,,,,
75840,note_on,182,0,1,,,,,,,,,0,,,98,70
75840,note_on,0,0,1,,,,,,,,,0,,,89,70
75898,note_on,0,0,1,,,,,,,,,0,,,98,0
75898,note_on,58,0,1,,,,,,,,,0,,,89,0
76080,set_tempo,240,1,0,,,,,,685714,,,,,,,
76080,note_on,182,0,1,,,,,,,,,0,,,62,51
76138,note_on,58,0,1,,,,,,,,,0,,,62,0
76140,note_on,2,0,1,,,,,,,,,0,,,60,48
76198,note_on,58,0,1,,,,,,,,,0,,,60,0
76200,note_on,2,0,1,,,,,,,,,0,,,59,51
76230,note_on,690,0,2,,,,,,,,,0,,,65,31
76258,note_on,58,0,1,,,,,,,,,0,,,59,0
76260,note_on,30,0,2,,,,,,,,,0,,,71,31
76260,note_on,2,0,1,,,,,,,,,0,,,57,49
76290,note_on,30,0,2,,,,,,,,,0,,,74,31
76318,note_on,58,0,1,,,,,,,,,0,,,57,0
76320,note_on,2,0,1,,,,,,,,,0,,,55,55
76320,set_tempo,240,1,0,,,,,,750000,,,,,,,
76320,note_on,30,0,2,,,,,,,,,0,,,79,38
76500,note_on,180,0,2,,,,,,,,,0,,,79,0
76500,note_on,0,0,2,,,,,,,,,0,,,65,0
76500,note_on,180,0,1,,,,,,,,,0,,,55,0
76500,note_on,0,0,2,,,,,,,,,0,,,74,0
76500,note_on,0,0,2,,,,,,,,,0,,,71,0
76560,note_on,60,0,1,,,,,,,,,0,,,91,47
76560,set_tempo,240,1,0,,,,,,641711,,,,,,,
76618,note_on,58,0,1,,,,,,,,,0,,,91,0
76620,note_on,2,0,1,,,,,,,,,0,,,89,44
76678,note_on,58,0,1,,,,,,,,,0,,,89,0
76680,note_on,2,0,1,,,,,,,,,0,,,88,47
76738,note_on,58,0,1,,,,,,,,,0,,,88,0
76740,note_on,2,0,1,,,,,,,,,0,,,86,44
76798,note_on,58,0,1,,,,,,,,,0,,,86,0
76800,set_tempo,240,1,0,,,,,,689655,,,,,,,
76800,note_on,2,0,1,,,,,,,,,0,,,88,51
76980,note_on,180,0,1,,,,,,,,,0,,,88,0
77040,note_on,540,0,2,,,,,,,,,0,,,72,30
77040,set_tempo,240,1,0,,,,,,666667,,,,,,,
77040,note_on,0,0,2,,,,,,,,,0,,,76,30
77040,note_on,0,0,2,,,,,,,,,0,,,79,35
77040,note_on,60,0,1,,,,,,,,,0,,,67,51
77098,note_on,58,0,1,,,,,,,,,0,,,67,0
77100,note_on,2,0,1,,,,,,,,,0,,,65,48
77158,note_on,58,0,1,,,,,,,,,0,,,65,0
77160,note_on,2,0,1,,,,,,,,,0,,,64,51
77218,note_on,58,0,1,,,,,,,,,0,,,64,0
77220,note_on,0,0,2,,,,,,,,,0,,,79,0
77220,note_on,180,0,2,,,,,,,,,0,,,76,0
77220,note_on,0,0,2,,,,,,,,,0,,,72,0
77220,note_on,2,0,1,,,,,,,,,0,,,62,48
77278,note_on,58,0,1,,,,,,,,,0,,,62,0
77280,note_on,60,0,2,,,,,,,,,0,,,84,40
77280,set_tempo,240,1,0,,,,,,714286,,,,,,,
77280,note_on,0,0,2,,,,,,,,,0,,,76,36
77280,note_on,0,0,2,,,,,,,,,0,,,79,36
77280,note_on,2,0,1,,,,,,,,,0,,,60,55
77460,note_on,180,0,1,,,,,,,,,0,,,60,0
77460,note_on,0,0,2,,,,,,,,,0,,,79,0
77460,note_on,0,0,2,,,,,,,,,0,,,84,0
77460,note_on,180,0,2,,,,,,,,,0,,,76,0
77520,note_on,0,0,1,,,,,,,,,0,,,91,67
77520,set_tempo,240,1,0,,,,,,736196,,,,,,,
77520,note_on,60,0,1,,,,,,,,,0,,,100,67
77578,note_on,58,0,1,,,,,,,,,0,,,91,0
77578,note_on,0,0,1,,,,,,,,,0,,,100,0
77760,set_tempo,240,1,0,,,,,,718563,,,,,,,
77760,note_on,0,0,1,,,,,,,,,0,,,89,72
77760,note_on,182,0,1,,,,,,,,,0,,,98,72
77818,note_on,58,0,1,,,,,,,,,0,,,89,0
77818,note_on,0,0,1,,,,,,,,,0,,,98,0
78000,set_tempo,240,1,0,,,,,,685714,,,,,,,
78000,note_on,182,0,1,,,,,,,,,0,,,74,52
78058,note_on,58,0,1,,,,,,,,,0,,,74,0
78060,note_on,2,0,1,,,,,,,,,0,,,72,48
78118,note_on,58,0,1,,,,,,,,,0,,,72,0
78120,note_on,2,0,1,,,,,,,,,0,,,71,52
78178,note_on,58,0,1,,,,,,,,,0,,,71,0
78180,note_on,2,0,1,,,,,,,,,0,,,69,48
78238,note_on,58,0,1,,,,,,,,,0,,,69,0
78240,set_tempo,240,1,0,,,,,,731707,,,,,,,
78240,note_on,0,0,2,,,,,,,,,0,,,83,37
78240,note_on,0,0,2,,,,,,,,,0,,,77,37
78240,note_on,780,0,2,,,,,,,,,0,,,86,41
78240,note_on,2,0,1,,,,,,,,,0,,,68,58
78420,note_on,180,0,1,,,,,,,,,0,,,68,0
78420,note_on,0,0,2,,,,,,,,,0,,,86,0
78420,note_on,0,0,2,,,,,,,,,0,,,83,0
78420,note_on,180,0,2,,,,,,,,,0,,,77,0
78480,set_tempo,240,1,0,,,,,,736196,,,,,,,
78480,note_on,60,0,1,,,,,,,,,0,,,98,67
78480,note_on,0,0,1,,,,,,,,,0,,,89,67
78538,note_on,0,0,1,,,,,,,,,0,,,98,0
78538,note_on,58,0,1,,,,,,,,,0,,,89,0
78720,note_on,182,0,1,,,,,,,,,0,,,96,72
78720,note_on,0,0,1,,,,,,,,,0,,,88,72
78720,set_tempo,240,1,0,,,,,,718563,,,,,,,
78778,note_on,58,0,1,,,,,,,,,0,,,88,0
78778,note_on,0,0,1,,,,,,,,,0,,,96,0
78960,note_on,182,0,1,,,,,,,,,0,,,76,52
78960,set_tempo,240,1,0,,,,,,670391,,,,,,,
79018,note_on,58,0,1,,,,,,,,,0,,,76,0
79020,note_on,2,0,1,,,,,,,,,0,,,74,48
79078,note_on,58,0,1,,,,,,,,,0,,,74,0
79080,note_on,2,0,1,,,,,,,,,0,,,72,52
79138,note_on,58,0,1,,,,,,,,,0,,,72,0
79140,note_on,2,0,1,,,,,,,,,0,,,71,49
79198,note_on,58,0,1,,,,,,,,,0,,,71,0
79200,note_on,0,0,2,,,,,,,,,0,,,76,37
79200,note_on,0,0,2,,,,,,,,,0,,,81,37
79200,note_on,2,0,1,,,,,,,,,0,,,69,58
79200,set_tempo,240,1,0,,,,,,705882,,,,,,,
79200,note_on,780,0,2,,,,,,,,,0,,,84,41
79380,note_on,0,0,2,,,,,,,,,0,,,81,0
79380,note_on,180,0,1,,,,,,,,,0,,,69,0
79380,note_on,180,0,2,,,,,,,,,0,,,76,0
79380,note_on,0,0,2,,,,,,,,,0,,,84,0
79440,set_tempo,240,1,0,,,,,,670391,,,,,,,
79440,note_on,60,0,1,,,,,,,,,0,,,72,52
79498,note_on,58,0,1,,,,,,,,,0,,,72,0
79500,note_on,2,0,1,,,,,,,,,0,,,71,49
79558,note_on,58,0,1,,,,,,,,,0,,,71,0
79560,note_on,2,0,1,,,,,,,,,0,,,69,52
79618,note_on,58,0,1,,,,,,,,,0,,,69,0
79620,note_on,2,0,1,,,,,,,,,0,,,67,50
79678,note_on,58,0,1,,,,,,,,,0,,,67,0
79680,note_on,2,0,1,,,,,,,,,0,,,65,58
79680,note_on,0,0,2,,,,,,,,,0,,,77,37
79680,note_on,0,0,2,,,,,,,,,0,,,81,37
79680,set_tempo,240,1,0,,,,,,710059,,,,,,,
79680,note_on,300,0,2,,,,,,,,,0,,,84,41
79860,note_on,180,0,2,,,,,,,,,0,,,77,0
79860,note_on,180,0,1,,,,,,,,,0,,,65,0
79860,note_on,0,0,2,,,,,,,,,0,,,81,0
79860,note_on,0,0,2,,,,,,,,,0,,,84,0
79920,set_tempo,240,1,0,,,,,,674157,,,,,,,
79920,note_on,60,0,1,,,,,,,,,0,,,69,52
79978,note_on,58,0,1,,,,,,,,,0,,,69,0
79980,note_on,2,0,1,,,,,,,,,0,,,67,50
80038,note_on,58,0,1,,,,,,,,,0,,,67,0
80040,note_on,2,0,1,,,,,,,,,0,,,65,52
80040,set_tempo,120,1,0,,,,,,697674,,,,,,,
80098,note_on,58,0,1,,,,,,,,,0,,,65,0
80100,note_on,2,0,1,,,,,,,,,0,,,64,49
80100,set_tempo,60,1,0,,,,,,714286,,,,,,,
80158,note_on,58,0,1,,,,,,,,,0,,,64,0
80160,note_on,300,0,2,,,,,,,,,0,,,77,37
80160,set_tempo,60,1,0,,,,,,731707,,,,,,,
80160,note_on,0,0,2,,,,,,,,,0,,,72,37
80160,note_on,0,0,2,,,,,,,,,0,,,81,41
80160,note_on,2,0,1,,,,,,,,,0,,,63,58
80340,note_on,0,0,2,,,,,,,,,0,,,81,0
80340,note_on,0,0,2,,,,,,,,,0,,,77,0
80340,note_on,180,0,1,,,,,,,,,0,,,63,0
80340,note_on,180,0,2,,,,,,,,,0,,,72,0
80400,note_on,60,0,1,,,,,,,,,0,,,96,53
80400,set_tempo,240,1,0,,,,,,677966,,,,,,,
80458,note_on,58,0,1,,,,,,,,,0,,,96,0
80460,note_on,2,0,1,,,,,,,,,0,,,93,50
80518,note_on,58,0,1,,,,,,,,,0,,,93,0
80520,note_on,2,0,1,,,,,,,,,0,,,89,53
80578,note_on,58,0,1,,,,,,,,,0,,,89,0
80580,note_on,2,0,1,,,,,,,,,0,,,87,50
80638,note_on,58,0,1,,,,,,,,,0,,,87,0
80640,note_on,0,0,2,,,,,,,,,0,,,64,31
80640,note_on,0,0,2,,,,,,,,,0,,,71,31
80640,note_on,2,0,1,,,,,,,,,0,,,88,59
80640,note_on,300,0,2,,,,,,,,,0,,,80,36
80640,set_tempo,240,1,0,,,,,,705882,,,,,,,
80820,note_on,0,0,2,,,,,,,,,0,,,80,0
80820,note_on,0,0,2,,,,,,,,,0,,,64,0
80820,note_on,180,0,1,,,,,,,,,0,,,88,0
80820,note_on,180,0,2,,,,,,,,,0,,,71,0
80880,note_on,60,0,1,,,,,,,,,0,,,76,48
80880,set_tempo,240,1,0,,,,,,674157,,,,,,,
80938,note_on,58,0,1,,,,,,,,,0,,,76,0
80940,note_on,2,0,1,,,,,,,,,0,,,71,45
80998,note_on,58,0,1,,,,,,,,,0,,,71,0
81000,note_on,2,0,1,,,,,,,,,0,,,68,49
81058,note_on,58,0,1,,,,,,,,,0,,,68,0
81060,note_on,2,0,1,,,,,,,,,0,,,71,47
81118,note_on,58,0,1,,,,,,,,,0,,,71,0
81120,set_tempo,240,1,0,,,,,,827586,,,,,,,
81120,note_on,2,0,1,,,,,,,,,0,,,64,53
81300,note_on,180,0,1,,,,,,,,,0,,,64,0
81360,set_tempo,240,1,0,,,,,,1016949,,,,,,,
81360,note_on,60,0,1,,,,,,,,,0,,,67,79
81360,note_on,540,0,2,,,,,,,,,0,,,43,79
81360,note_on,0,0,2,,,,,,,,,0,,,55,79
81360,note_on,0,0,1,,,,,,,,,0,,,79,88
81478,note_on,0,0,1,,,,,,,,,0,,,67,0
81478,note_on,118,0,1,,,,,,,,,0,,,79,0
81478,note_on,118,0,2,,,,,,,,,0,,,55,0
81478,note_on,0,0,2,,,,,,,,,0,,,43,0
81600,note_on,0,0,1,,,,,,,,,0,,,84,97
81600,note_on,122,0,1,,,,,,,,,0,,,72,88
81600,note_on,122,0,2,,,,,,,,,0,,,48,86
81600,set_tempo,240,1,0,,,,,,769231,,,,,,,
81600,note_on,0,0,2,,,,,,,,,0,,,60,86
82320,set_tempo,720,1,0,,,,,,750000,,,,,,,
82320,note_on,0,0,2,,,,,,,,,0,,,43,81
82320,note_on,0,0,2,,,,,,,,,0,,,48,0
82320,note_on,0,0,2,,,,,,,,,0,,,55,81
82320,note_on,0,0,1,,,,,,,,,0,,,79,91
82320,note_on,0,0,1,,,,,,,,,0,,,67,81
82320,note_on,720,0,1,,,,,,,,,0,,,84,0
82320,note_on,720,0,2,,,,,,,,,0,,,60,0
82320,note_on,0,0,1,,,,,,,,,0,,,72,0
82500,note_on,180,0,1,,,,,,,,,0,,,79,0
82500,note_on,0,0,1,,,,,,,,,0,,,67,0
82500,note_on,180,0,2,,,,,,,,,0,,,55,0
82500,note_on,0,0,2,,,,,,,,,0,,,43,0
82560,note_on,60,0,1,,,,,,,,,0,,,64,88
82560,set_tempo,240,1,0,,,,,,705882,,,,,,,
82560,note_on,60,0,2,,,,,,,,,0,,,40,88
82560,note_on,0,0,2,,,,,,,,,0,,,52,88
82560,note_on,0,0,1,,,,,,,,,0,,,76,97
82800,note_on,0,0,2,,,,,,,,,0,,,48,85
82800,note_on,0,0,2,,,,,,,,,0,,,40,0
82800,note_on,0,0,2,,,,,,,,,0,,,36,85
82800,note_on,240,0,2,,,,,,,,,0,,,52,0
82800,note_on,0,0,1,,,,,,,,,0,,,64,0
82800,note_on,0,0,1,,,,,,,,,0,,,72,94
82800,set_tempo,240,1,0,,,,,,937500,,,,,,,
82800,note_on,0,0,1,,,,,,,,,0,,,60,84
82800,note_on,240,0,1,,,,,,,,,0,,,76,0
83040,note_on,240,0,2,,,,,,,,,0,,,48,0
83040,note_on,0,0,1,,,,,,,,,0,,,60,0
83040,note_on,0,0,2,,,,,,,,,0,,,36,0
83040,note_on,240,0,1,,,,,,,,,0,,,72,0
83260,set_tempo,460,1,0,,,,,,727273,,,,,,,
83280,note_on,240,0,2,,,,,,,,,0,,,52,41
83280,set_tempo,20,1,0,,,,,,750000,,,,,,,
83280,note_on,240,0,1,,,,,,,,,0,,,60,48
83314,note_on,34,0,2,,,,,,,,,0,,,53,41
83314,note_on,34,0,1,,,,,,,,,0,,,62,48
83316,note_on,2,0,1,,,,,,,,,0,,,60,0
83316,note_on,2,0,2,,,,,,,,,0,,,52,0
83340,set_tempo,60,1,0,,,,,,745342,,,,,,,
83348,note_on,32,0,1,,,,,,,,,0,,,64,48
83348,note_on,32,0,2,,,,,,,,,0,,,55,41
83350,note_on,2,0,2,,,,,,,,,0,,,53,0
83350,note_on,2,0,1,,,,,,,,,0,,,62,0
83382,note_on,32,0,2,,,,,,,,,0,,,57,42
83382,note_on,32,0,1,,,,,,,,,0,,,65,48
83384,note_on,2,0,2,,,,,,,,,0,,,55,0
83384,note_on,2,0,1,,,,,,,,,0,,,64,0
83400,set_tempo,60,1,0,,,,,,740741,,,,,,,
83416,note_on,32,0,2,,,,,,,,,0,,,59,42
83416,note_on,32,0,1,,,,,,,,,0,,,67,49
83418,note_on,2,0,2,,,,,,,,,0,,,57,0
83418,note_on,2,0,1,,,,,,,,,0,,,65,0
83450,note_on,32,0,2,,,,,,,,,0,,,60,42
83450,note_on,32,0,1,,,,,,,,,0,,,69,49
83452,note_on,2,0,2,,,,,,,,,0,,,59,0
83452,note_on,2,0,1,,,,,,,,,0,,,67,0
83460,set_tempo,60,1,0,,,,,,736196,,,,,,,
83484,note_on,32,0,2,,,,,,,,,0,,,62,44
83484,note_on,32,0,1,,,,,,,,,0,,,71,49
83486,note_on,2,0,2,,,,,,,,,0,,,60,0
83486,note_on,2,0,1,,,,,,,,,0,,,69,0
83500,set_tempo,40,1,0,,,,,,731707,,,,,,,
83520,note_on,34,0,1,,,,,,,,,0,,,71,0
83520,note_on,34,0,2,,,,,,,,,0,,,62,0
83520,note_on,0,0,1,,,,,,,,,0,,,72,49
83520,note_on,0,0,2,,,,,,,,,0,,,64,44
83554,note_on,34,0,1,,,,,,,,,0,,,74,49
83554,note_on,34,0,2,,,,,,,,,0,,,65,44
83556,note_on,2,0,2,,,,,,,,,0,,,64,0
83556,note_on,2,0,1,,,,,,,,,0,,,72,0
83560,set_tempo,60,1,0,,,,,,727273,,,,,,,
83588,note_on,32,0,2,,,,,,,,,0,,,67,44
83588,note_on,32,0,1,,,,,,,,,0,,,76,49
83590,note_on,2,0,2,,,,,,,,,0,,,65,0
83590,note_on,2,0,1,,,,,,,,,0,,,74,0
83620,set_tempo,60,1,0,,,,,,722892,,,,,,,
83622,note_on,32,0,2,,,,,,,,,0,,,69,44
83622,note_on,32,0,1,,,,,,,,,0,,,77,49
83624,note_on,2,0,1,,,,,,,,,0,,,76,0
83624,note_on,2,0,2,,,,,,,,,0,,,67,0
83656,note_on,32,0,2,,,,,,,,,0,,,71,44
83656,note_on,32,0,1,,,,,,,,,0,,,79,50
83658,note_on,2,0,1,,,,,,,,,0,,,77,0
83658,note_on,2,0,2,,,,,,,,,0,,,69,0
83660,set_tempo,40,1,0,,,,,,718563,,,,,,,
83690,note_on,32,0,1,,,,,,,,,0,,,81,50
83690,note_on,32,0,2,,,,,,,,,0,,,72,45
83692,note_on,2,0,1,,,,,,,,,0,,,79,0
83692,note_on,2,0,2,,,,,,,,,0,,,71,0
83720,set_tempo,60,1,0,,,,,,714286,,,,,,,
83724,note_on,32,0,1,,,,,,,,,0,,,83,50
83724,note_on,32,0,2,,,,,,,,,0,,,74,45
83726,note_on,2,0,2,,,,,,,,,0,,,72,0
83726,note_on,2,0,1,,,,,,,,,0,,,81,0
83760,note_on,34,0,1,,,,,,,,,0,,,83,0
83760,note_on,0,0,2,,,,,,,,,0,,,76,44
83760,note_on,34,0,2,,,,,,,,,0,,,74,0
83760,note_on,0,0,1,,,,,,,,,0,,,84,49
83780,set_tempo,60,1,0,,,,,,710059,,,,,,,
83794,note_on,34,0,2,,,,,,,,,0,,,77,44
83794,note_on,34,0,1,,,,,,,,,0,,,86,49
83796,note_on,2,0,2,,,,,,,,,0,,,76,0
83796,note_on,2,0,1,,,,,,,,,0,,,84,0
83820,set_tempo,40,1,0,,,,,,705882,,,,,,,
83828,note_on,32,0,1,,,,,,,,,0,,,88,49
83828,note_on,32,0,2,,,,,,,,,0,,,79,44
83830,note_on,2,0,1,,,,,,,,,0,,,86,0
83830,note_on,2,0,2,,,,,,,,,0,,,77,0
83862,note_on,32,0,1,,,,,,,,,0,,,89,49
83862,note_on,32,0,2,,,,,,,,,0,,,81,44
83864,note_on,2,0,2,,,,,,,,,0,,,79,0
83864,note_on,2,0,1,,,,,,,,,0,,,88,0
83880,set_tempo,60,1,0,,,,,,701754,,,,,,,
83896,note_on,32,0,2,,,,,,,,,0,,,83,44
83896,note_on,32,0,1,,,,,,,,,0,,,91,49
83898,note_on,2,0,2,,,,,,,,,0,,,81,0
83898,note_on,2,0,1,,,,,,,,,0,,,89,0
83930,note_on,32,0,2,,,,,,,,,0,,,84,42
83930,note_on,32,0,1,,,,,,,,,0,,,93,48
83932,note_on,2,0,2,,,,,,,,,0,,,83,0
83932,note_on,2,0,1,,,,,,,,,0,,,91,0
83940,set_tempo,60,1,0,,,,,,697674,,,,,,,
83964,note_on,32,0,2,,,,,,,,,0,,,86,42
83964,note_on,32,0,1,,,,,,,,,0,,,95,48
83966,note_on,2,0,2,,,,,,,,,0,,,84,0
83966,note_on,2,0,1,,,,,,,,,0,,,93,0
83980,set_tempo,40,1,0,,,,,,693642,,,,,,,
84000,note_on,0,0,2,,,,,,,,,0,,,88,48
84000,note_on,0,0,1,,,,,,,,,0,,,96,53
84000,note_on,34,0,2,,,,,,,,,0,,,86,0
84000,set_tempo,20,1,0,,,,,,697674,,,,,,,
84000,note_on,34,0,1,,,,,,,,,0,,,95,0
84118,note_on,118,0,1,,,,,,,,,0,,,96,0
84118,note_on,118,0,2,,,,,,,,,0,,,88,0
84240,note_on,0,0,2,,,,,,,,,0,,,77,31
84240,note_on,0,0,2,,,,,,,,,0,,,81,31
84240,note_on,122,0,2,,,,,,,,,0,,,86,36
84240,note_on,122,0,1,,,,,,,,,0,,,100,61
84240,set_tempo,240,1,0,,,,,,727273,,,,,,,
84240,note_on,0,0,1,,,,,,,,,0,,,89,38
84240,note_on,0,0,1,,,,,,,,,0,,,93,38
84298,note_on,58,0,2,,,,,,,,,0,,,81,0
84298,note_on,58,0,1,,,,,,,,,0,,,93,0
84298,note_on,0,0,1,,,,,,,,,0,,,89,0
84298,note_on,0,0,1,,,,,,,,,0,,,100,0
84298,note_on,0,0,2,,,,,,,,,0,,,77,0
84298,note_on,0,0,2,,,,,,,,,0,,,86,0
84360,note_on,0,0,1,,,,,,,,,0,,,98,51
84360,note_on,0,0,2,,,,,,,,,0,,,81,31
84360,note_on,0,0,2,,,,,,,,,0,,,86,36
84360,note_on,62,0,2,,,,,,,,,0,,,77,31
84360,note_on,0,0,1,,,,,,,,,0,,,93,38
84360,note_on,62,0,1,,,,,,,,,0,,,89,38
84418,note_on,58,0,1,,,,,,,,,0,,,98,0
84418,note_on,0,0,1,,,,,,,,,0,,,93,0
84418,note_on,58,0,2,,,,,,,,,0,,,86,0
84418,note_on,0,0,2,,,,,,,,,0,,,81,0
84418,note_on,0,0,2,,,,,,,,,0,,,77,0
84418,note_on,0,0,1,,,,,,,,,0,,,89,0
84420,note_on,2,0,2,,,,,,,,,0,,,67,40
84450,note_on,30,0,2,,,,,,,,,0,,,79,40
84480,note_on,0,0,1,,,,,,,,,0,,,88,44
84480,set_tempo,240,1,0,,,,,,710059,,,,,,,
84480,note_on,0,0,2,,,,,,,,,0,,,76,40
84480,note_on,62,0,1,,,,,,,,,0,,,98,53
84480,note_on,30,0,2,,,,,,,,,0,,,84,40
84530,note_on,0,0,1,,,,,,,,,0,,,96,49
84530,note_on,50,0,1,,,,,,,,,0,,,98,0
84580,note_on,50,0,1,,,,,,,,,0,,,96,0
84580,note_on,0,0,1,,,,,,,,,0,,,98,53
84630,note_on,0,0,1,,,,,,,,,0,,,96,49
84630,note_on,50,0,1,,,,,,,,,0,,,98,0
84680,note_on,0,0,1,,,,,,,,,0,,,98,53
84680,note_on,50,0,1,,,,,,,,,0,,,96,0
84730,note_on,0,0,1,,,,,,,,,0,,,96,49
84730,note_on,50,0,1,,,,,,,,,0,,,98,0
84780,note_on,50,0,1,,,,,,,,,0,,,96,0
84780,note_on,0,0,1,,,,,,,,,0,,,95,50
84838,note_on,58,0,1,,,,,,,,,0,,,95,0
84840,note_on,2,0,1,,,,,,,,,0,,,98,57
84898,note_on,58,0,1,,,,,,,,,0,,,98,0
84900,note_on,2,0,1,,,,,,,,,0,,,96,53
84958,note_on,58,0,1,,,,,,,,,0,,,96,0
84960,note_on,0,0,2,,,,,,,,,0,,,67,0
84960,note_on,480,0,2,,,,,,,,,0,,,76,0
84960,note_on,0,0,1,,,,,,,,,0,,,86,44
84960,note_on,0,0,1,,,,,,,,,0,,,95,48
84960,note_on,0,0,2,,,,,,,,,0,,,67,38
84960,note_on,2,0,1,,,,,,,,,0,,,88,0
84960,note_on,0,0,2,,,,,,,,,0,,,84,0
84960,note_on,0,0,2,,,,,,,,,0,,,83,38
84960,note_on,0,0,2,,,,,,,,,0,,,79,38
84960,note_on,0,0,2,,,,,,,,,0,,,79,0
84960,note_on,0,0,2,,,,,,,,,0,,,74,38
85170,note_on,210,0,1,,,,,,,,,0,,,86,0
85170,note_on,0,0,2,,,,,,,,,0,,,79,0
85170,note_on,0,0,2,,,,,,,,,0,,,74,0
85170,note_on,0,0,2,,,,,,,,,0,,,67,0
85170,note_on,0,0,1,,,,,,,,,0,,,95,0
85170,note_on,210,0,2,,,,,,,,,0,,,83,0
85200,set_tempo,720,1,0,,,,,,937500,,,,,,,
85200,note_on,30,0,1,,,,,,,,,0,,,62,70
85200,note_on,30,0,2,,,,,,,,,0,,,38,70
85200,note_on,0,0,1,,,,,,,,,0,,,74,79
85200,note_on,0,0,2,,,,,,,,,0,,,50,70
85318,note_on,118,0,2,,,,,,,,,0,,,50,0
85318,note_on,0,0,2,,,,,,,,,0,,,38,0
85318,note_on,0,0,1,,,,,,,,,0,,,62,0
85318,note_on,118,0,1,,,,,,,,,0,,,74,0
85440,note_on,0,0,1,,,,,,,,,0,,,77,88
85440,note_on,122,0,2,,,,,,,,,0,,,41,78
85440,note_on,0,0,2,,,,,,,,,0,,,53,78
85440,note_on,122,0,1,,,,,,,,,0,,,65,79
85440,set_tempo,240,1,0,,,,,,769231,,,,,,,
86160,note_on,0,0,1,,,,,,,,,0,,,65,0
86160,note_on,0,0,2,,,,,,,,,0,,,41,0
86160,note_on,0,0,1,,,,,,,,,0,,,62,72
86160,note_on,0,0,2,,,,,,,,,0,,,38,72
86160,note_on,720,0,2,,,,,,,,,0,,,53,0
86160,note_on,720,0,1,,,,,,,,,0,,,77,0
86160,set_tempo,720,1,0,,,,,,816327,,,,,,,
86160,note_on,0,0,2,,,,,,,,,0,,,50,72
86160,note_on,0,0,1,,,,,,,,,0,,,74,81
86340,note_on,180,0,2,,,,,,,,,0,,,50,0
86340,note_on,0,0,2,,,,,,,,,0,,,38,0
86340,note_on,0,0,1,,,,,,,,,0,,,62,0
86340,note_on,180,0,1,,,,,,,,,0,,,74,0
86400,note_on,0,0,1,,,,,,,,,0,,,71,88
86400,set_tempo,240,1,0,,,,,,794702,,,,,,,
86400,note_on,60,0,1,,,,,,,,,0,,,59,79
86400,note_on,0,0,2,,,,,,,,,0,,,47,79
86400,note_on,60,0,2,,,,,,,,,0,,,35,79
86640,note_on,0,0,1,,,,,,,,,0,,,67,75
86640,note_on,240,0,1,,,,,,,,,0,,,71,0
86640,note_on,0,0,1,,,,,,,,,0,,,59,0
86640,set_tempo,240,1,0,,,,,,937500,,,,,,,
86640,note_on,0,0,1,,,,,,,,,0,,,55,75
86640,note_on,0,0,2,,,,,,,,,0,,,43,75
86640,note_on,0,0,2,,,,,,,,,0,,,35,0
86640,note_on,0,0,2,,,,,,,,,0,,,31,75
86640,note_on,240,0,2,,,,,,,,,0,,,47,0
86880,note_on,240,0,1,,,,,,,,,0,,,67,0
86880,note_on,240,0,2,,,,,,,,,0,,,43,0
86880,note_on,0,0,1,,,,,,,,,0,,,55,0
86880,note_on,0,0,2,,,,,,,,,0,,,31,0
87100,set_tempo,460,1,0,,,,,,727273,,,,,,,
87120,note_on,240,0,2,,,,,,,,,0,,,50,41
87120,set_tempo,20,1,0,,,,,,750000,,,,,,,
87120,note_on,240,0,1,,,,,,,,,0,,,59,48
87154,note_on,34,0,1,,,,,,,,,0,,,60,48
87154,note_on,34,0,2,,,,,,,,,0,,,52,41
87156,note_on,2,0,1,,,,,,,,,0,,,59,0
87156,note_on,2,0,2,,,,,,,,,0,,,50,0
87180,set_tempo,60,1,0,,,,,,745342,,,,,,,
87188,note_on,32,0,1,,,,,,,,,0,,,62,48
87188,note_on,32,0,2,,,,,,,,,0,,,53,41
87190,note_on,2,0,2,,,,,,,,,0,,,52,0
87190,note_on,2,0,1,,,,,,,,,0,,,60,0
87222,note_on,32,0,2,,,,,,,,,0,,,55,42
87222,note_on,32,0,1,,,,,,,,,0,,,64,48
87224,note_on,2,0,2,,,,,,,,,0,,,53,0
87224,note_on,2,0,1,,,,,,,,,0,,,62,0
87240,set_tempo,60,1,0,,,,,,740741,,,,,,,
87256,note_on,32,0,1,,,,,,,,,0,,,65,49
87256,note_on,32,0,2,,,,,,,,,0,,,57,42
87258,note_on,2,0,2,,,,,,,,,0,,,55,0
87258,note_on,2,0,1,,,,,,,,,0,,,64,0
87290,note_on,32,0,1,,,,,,,,,0,,,67,49
87290,note_on,32,0,2,,,,,,,,,0,,,59,42
87292,note_on,2,0,2,,,,,,,,,0,,,57,0
87292,note_on,2,0,1,,,,,,,,,0,,,65,0
87300,set_tempo,60,1,0,,,,,,736196,,,,,,,
87324,note_on,32,0,2,,,,,,,,,0,,,60,44
87324,note_on,32,0,1,,,,,,,,,0,,,69,49
87326,note_on,2,0,1,,,,,,,,,0,,,67,0
87326,note_on,2,0,2,,,,,,,,,0,,,59,0
87340,set_tempo,40,1,0,,,,,,731707,,,,,,,
87360,note_on,34,0,2,,,,,,,,,0,,,60,0
87360,note_on,0,0,2,,,,,,,,,0,,,62,44
87360,note_on,34,0,1,,,,,,,,,0,,,69,0
87360,note_on,0,0,1,,,,,,,,,0,,,71,49
87394,note_on,34,0,1,,,,,,,,,0,,,72,49
87394,note_on,34,0,2,,,,,,,,,0,,,64,44
87396,note_on,2,0,2,,,,,,,,,0,,,62,0
87396,note_on,2,0,1,,,,,,,,,0,,,71,0
87400,set_tempo,60,1,0,,,,,,727273,,,,,,,
87428,note_on,32,0,2,,,,,,,,,0,,,65,44
87428,note_on,32,0,1,,,,,,,,,0,,,74,49
87430,note_on,2,0,1,,,,,,,,,0,,,72,0
87430,note_on,2,0,2,,,,,,,,,0,,,64,0
87460,set_tempo,60,1,0,,,,,,722892,,,,,,,
87462,note_on,32,0,2,,,,,,,,,0,,,67,44
87462,note_on,32,0,1,,,,,,,,,0,,,76,49
87464,note_on,2,0,1,,,,,,,,,0,,,74,0
87464,note_on,2,0,2,,,,,,,,,0,,,65,0
87496,note_on,32,0,2,,,,,,,,,0,,,69,44
87496,note_on,32,0,1,,,,,,,,,0,,,77,50
87498,note_on,2,0,1,,,,,,,,,0,,,76,0
87498,note_on,2,0,2,,,,,,,,,0,,,67,0
87500,set_tempo,40,1,0,,,,,,718563,,,,,,,
87530,note_on,32,0,2,,,,,,,,,0,,,71,45
87530,note_on,32,0,1,,,,,,,,,0,,,79,50
87532,note_on,2,0,1,,,,,,,,,0,,,77,0
87532,note_on,2,0,2,,,,,,,,,0,,,69,0
87560,set_tempo,60,1,0,,,,,,714286,,,,,,,
87564,note_on,32,0,2,,,,,,,,,0,,,72,45
87564,note_on,32,0,1,,,,,,,,,0,,,81,50
87566,note_on,2,0,1,,,,,,,,,0,,,79,0
87566,note_on,2,0,2,,,,,,,,,0,,,71,0
87600,note_on,34,0,1,,,,,,,,,0,,,81,0
87600,note_on,0,0,2,,,,,,,,,0,,,74,44
87600,note_on,34,0,2,,,,,,,,,0,,,72,0
87600,note_on,0,0,1,,,,,,,,,0,,,83,49
87620,set_tempo,60,1,0,,,,,,710059,,,,,,,
87634,note_on,34,0,2,,,,,,,,,0,,,76,44
87634,note_on,34,0,1,,,,,,,,,0,,,84,49
87636,note_on,2,0,1,,,,,,,,,0,,,83,0
87636,note_on,2,0,2,,,,,,,,,0,,,74,0
87660,set_tempo,40,1,0,,,,,,705882,,,,,,,
87668,note_on,32,0,2,,,,,,,,,0,,,77,44
87668,note_on,32,0,1,,,,,,,,,0,,,86,49
87670,note_on,2,0,2,,,,,,,,,0,,,76,0
87670,note_on,2,0,1,,,,,,,,,0,,,84,0
87702,note_on,32,0,2,,,,,,,,,0,,,79,44
87702,note_on,32,0,1,,,,,,,,,0,,,88,49
87704,note_on,2,0,2,,,,,,,,,0,,,77,0
87704,note_on,2,0,1,,,,,,,,,0,,,86,0
87720,set_tempo,60,1,0,,,,,,701754,,,,,,,
87736,note_on,32,0,1,,,,,,,,,0,,,89,49
87736,note_on,32,0,2,,,,,,,,,0,,,81,44
87738,note_on,2,0,1,,,,,,,,,0,,,88,0
87738,note_on,2,0,2,,,,,,,,,0,,,79,0
87770,note_on,32,0,2,,,,,,,,,0,,,83,42
87770,note_on,32,0,1,,,,,,,,,0,,,91,48
87772,note_on,2,0,1,,,,,,,,,0,,,89,0
87772,note_on,2,0,2,,,,,,,,,0,,,81,0
87780,set_tempo,60,1,0,,,,,,697674,,,,,,,
87804,note_on,32,0,1,,,,,,,,,0,,,93,48
87804,note_on,32,0,2,,,,,,,,,0,,,84,42
87806,note_on,2,0,2,,,,,,,,,0,,,83,0
87806,note_on,2,0,1,,,,,,,,,0,,,91,0
87820,set_tempo,40,1,0,,,,,,693642,,,,,,,
87840,note_on,0,0,2,,,,,,,,,0,,,86,48
87840,note_on,34,0,1,,,,,,,,,0,,,93,0
87840,note_on,0,0,1,,,,,,,,,0,,,95,53
87840,set_tempo,20,1,0,,,,,,731707,,,,,,,
87840,note_on,34,0,2,,,,,,,,,0,,,84,0
87958,note_on,118,0,1,,,,,,,,,0,,,95,0
87958,note_on,118,0,2,,,,,,,,,0,,,86,0
88080,note_on,0,0,1,,,,,,,,,0,,,93,38
88080,note_on,0,0,2,,,,,,,,,0,,,81,36
88080,note_on,122,0,2,,,,,,,,,0,,,71,31
88080,set_tempo,240,1,0,,,,,,754717,,,,,,,
88080,note_on,122,0,1,,,,,,,,,0,,,101,57
88138,note_on,58,0,1,,,,,,,,,0,,,93,0
88138,note_on,58,0,2,,,,,,,,,0,,,81,0
88138,note_on,0,0,2,,,,,,,,,0,,,71,0
88138,note_on,0,0,1,,,,,,,,,0,,,101,0
88200,note_on,0,0,1,,,,,,,,,0,,,100,51
88200,note_on,62,0,2,,,,,,,,,0,,,79,36
88200,note_on,0,0,2,,,,,,,,,0,,,71,31
88200,note_on,62,0,1,,,,,,,,,0,,,91,38
88258,note_on,58,0,2,,,,,,,,,0,,,71,0
88258,note_on,58,0,1,,,,,,,,,0,,,100,0
88258,note_on,0,0,2,,,,,,,,,0,,,79,0
88258,note_on,0,0,1,,,,,,,,,0,,,91,0
88320,note_on,0,0,2,,,,,,,,,0,,,67,36
88320,note_on,0,0,1,,,,,,,,,0,,,89,44
88320,note_on,0,0,2,,,,,,,,,0,,,71,36
88320,set_tempo,240,1,0,,,,,,740741,,,,,,,
88320,note_on,62,0,1,,,,,,,,,0,,,100,53
88320,note_on,62,0,2,,,,,,,,,0,,,77,40
88370,note_on,0,0,1,,,,,,,,,0,,,98,49
88370,note_on,50,0,1,,,,,,,,,0,,,100,0
88420,note_on,0,0,1,,,,,,,,,0,,,100,53
88420,note_on,50,0,1,,,,,,,,,0,,,98,0
88470,note_on,0,0,1,,,,,,,,,0,,,98,49
88470,note_on,50,0,1,,,,,,,,,0,,,100,0
88520,note_on,0,0,1,,,,,,,,,0,,,100,53
88520,note_on,50,0,1,,,,,,,,,0,,,98,0
88570,note_on,0,0,1,,,,,,,,,0,,,98,49
88570,note_on,50,0,1,,,,,,,,,0,,,100,0
88620,note_on,50,0,1,,,,,,,,,0,,,98,0
88620,note_on,0,0,1,,,,,,,,,0,,,97,50
88678,note_on,58,0,1,,,,,,,,,0,,,97,0
88680,note_on,2,0,1,,,,,,,,,0,,,100,57
88738,note_on,58,0,1,,,,,,,,,0,,,100,0
88740,note_on,2,0,1,,,,,,,,,0,,,98,53
88798,note_on,58,0,1,,,,,,,,,0,,,98,0
88800,note_on,0,0,1,,,,,,,,,0,,,88,39
88800,note_on,0,0,2,,,,,,,,,0,,,77,0
88800,note_on,0,0,2,,,,,,,,,0,,,76,38
88800,note_on,0,0,2,,,,,,,,,0,,,72,34
88800,note_on,0,0,2,,,,,,,,,0,,,71,0
88800,note_on,480,0,2,,,,,,,,,0,,,67,0
88800,note_on,0,0,1,,,,,,,,,0,,,96,48
88800,set_tempo,480,1,0,,,,,,722892,,,,,,,
88800,note_on,2,0,1,,,,,,,,,0,,,89,0
89000,note_on,0,0,2,,,,,,,,,0,,,72,0
89000,note_on,200,0,1,,,,,,,,,0,,,88,0
89000,note_on,200,0,2,,,,,,,,,0,,,76,0
89000,note_on,0,0,1,,,,,,,,,0,,,96,0
89040,note_on,40,0,1,,,,,,,,,0,,,91,73
89098,note_on,58,0,1,,,,,,,,,0,,,91,0
89280,note_on,182,0,1,,,,,,,,,0,,,96,82
89280,set_tempo,480,1,0,,,,,,710059,,,,,,,
89338,note_on,58,0,1,,,,,,,,,0,,,96,0
89520,note_on,182,0,1,,,,,,,,,0,,,67,51
89520,set_tempo,240,1,0,,,,,,666667,,,,,,,
89578,note_on,58,0,1,,,,,,,,,0,,,67,0
89580,note_on,2,0,1,,,,,,,,,0,,,65,48
89638,note_on,58,0,1,,,,,,,,,0,,,65,0
89640,note_on,2,0,1,,,,,,,,,0,,,64,51
89670,note_on,670,0,2,,,,,,,,,0,,,70,31
89698,note_on,58,0,1,,,,,,,,,0,,,64,0
89700,note_on,30,0,2,,,,,,,,,0,,,76,31
89700,note_on,2,0,1,,,,,,,,,0,,,62,48
89730,note_on,30,0,2,,,,,,,,,0,,,79,31
89758,note_on,58,0,1,,,,,,,,,0,,,62,0
89760,set_tempo,240,1,0,,,,,,718563,,,,,,,
89760,note_on,2,0,1,,,,,,,,,0,,,60,56
89760,note_on,30,0,2,,,,,,,,,0,,,84,37
89940,note_on,0,0,2,,,,,,,,,0,,,79,0
89940,note_on,0,0,2,,,,,,,,,0,,,76,0
89940,note_on,0,0,2,,,,,,,,,0,,,70,0
89940,note_on,180,0,2,,,,,,,,,0,,,84,0
89940,note_on,180,0,1,,,,,,,,,0,,,60,0
90000,set_tempo,240,1,0,,,,,,659341,,,,,,,
90000,note_on,60,0,1,,,,,,,,,0,,,84,48
90058,note_on,58,0,1,,,,,,,,,0,,,84,0
90060,note_on,2,0,1,,,,,,,,,0,,,88,44
90118,note_on,58,0,1,,,,,,,,,0,,,88,0
90120,note_on,2,0,1,,,,,,,,,0,,,91,48
90178,note_on,58,0,1,,,,,,,,,0,,,91,0
90180,note_on,2,0,1,,,,,,,,,0,,,88,44
90238,note_on,58,0,1,,,,,,,,,0,,,88,0
90240,set_tempo,240,1,0,,,,,,689655,,,,,,,
90240,note_on,2,0,1,,,,,,,,,0,,,89,51
90420,note_on,180,0,1,,,,,,,,,0,,,89,0
90480,set_tempo,240,1,0,,,,,,666667,,,,,,,
90480,note_on,0,0,2,,,,,,,,,0,,,77,30
90480,note_on,60,0,1,,,,,,,,,0,,,72,51
90480,note_on,540,0,2,,,,,,,,,0,,,81,35
90538,note_on,58,0,1,,,,,,,,,0,,,72,0
90540,note_on,2,0,1,,,,,,,,,0,,,70,47
90598,note_on,58,0,1,,,,,,,,,0,,,70,0
90600,note_on,2,0,1,,,,,,,,,0,,,69,51
90658,note_on,58,0,1,,,,,,,,,0,,,69,0
90660,note_on,0,0,2,,,,,,,,,0,,,81,0
90660,note_on,2,0,1,,,,,,,,,0,,,67,48
90660,note_on,180,0,2,,,,,,,,,0,,,77,0
90718,note_on,58,0,1,,,,,,,,,0,,,67,0
90720,note_on,60,0,2,,,,,,,,,0,,,72,36
90720,note_on,2,0,1,,,,,,,,,0,,,65,55
90720,set_tempo,240,1,0,,,,,,714286,,,,,,,
90720,note_on,0,0,2,,,,,,,,,0,,,77,36
90720,note_on,0,0,2,,,,,,,,,0,,,81,40
90900,note_on,180,0,2,,,,,,,,,0,,,77,0
90900,note_on,0,0,2,,,,,,,,,0,,,72,0
90900,note_on,0,0,2,,,,,,,,,0,,,81,0
90900,note_on,180,0,1,,,,,,,,,0,,,65,0
90960,note_on,60,0,1,,,,,,,,,0,,,101,63
90960,set_tempo,240,1,0,,,,,,736196,,,,,,,
90960,note_on,0,0,1,,,,,,,,,0,,,93,57
91018,note_on,58,0,1,,,,,,,,,0,,,93,0
91018,note_on,0,0,1,,,,,,,,,0,,,101,0
91200,set_tempo,240,1,0,,,,,,718563,,,,,,,
91200,note_on,182,0,1,,,,,,,,,0,,,98,70
91200,note_on,0,0,1,,,,,,,,,0,,,90,62
91258,note_on,0,0,1,,,,,,,,,0,,,98,0
91258,note_on,58,0,1,,,,,,,,,0,,,90,0
91440,set_tempo,240,1,0,,,,,,685714,,,,,,,
91440,note_on,182,0,1,,,,,,,,,0,,,69,51
91498,note_on,58,0,1,,,,,,,,,0,,,69,0
91500,note_on,2,0,1,,,,,,,,,0,,,67,47
91558,note_on,58,0,1,,,,,,,,,0,,,67,0
91560,note_on,2,0,1,,,,,,,,,0,,,66,51
91590,note_on,690,0,2,,,,,,,,,0,,,72,31
91618,note_on,58,0,1,,,,,,,,,0,,,66,0
91620,note_on,30,0,2,,,,,,,,,0,,,78,31
91620,note_on,2,0,1,,,,,,,,,0,,,64,48
91650,note_on,30,0,2,,,,,,,,,0,,,81,31
91678,note_on,58,0,1,,,,,,,,,0,,,64,0
91680,set_tempo,240,1,0,,,,,,750000,,,,,,,
91680,note_on,2,0,1,,,,,,,,,0,,,62,55
91680,note_on,30,0,2,,,,,,,,,0,,,86,38
91860,note_on,0,0,2,,,,,,,,,0,,,78,0
91860,note_on,0,0,2,,,,,,,,,0,,,72,0
91860,note_on,180,0,2,,,,,,,,,0,,,86,0
91860,note_on,0,0,2,,,,,,,,,0,,,81,0
91860,note_on,180,0,1,,,,,,,,,0,,,62,0
91920,note_on,60,0,1,,,,,,,,,0,,,86,55
91920,set_tempo,240,1,0,,,,,,641711,,,,,,,
91978,note_on,58,0,1,,,,,,,,,0,,,86,0
91980,note_on,2,0,1,,,,,,,,,0,,,90,57
92038,note_on,58,0,1,,,,,,,,,0,,,90,0
92040,note_on,2,0,1,,,,,,,,,0,,,93,59
92098,note_on,58,0,1,,,,,,,,,0,,,93,0
92100,note_on,2,0,1,,,,,,,,,0,,,90,56
92158,note_on,58,0,1,,,,,,,,,0,,,90,0
92160,set_tempo,240,1,0,,,,,,689655,,,,,,,
92160,note_on,2,0,1,,,,,,,,,0,,,91,58
92340,note_on,180,0,1,,,,,,,,,0,,,91,0
92400,note_on,0,0,2,,,,,,,,,0,,,83,38
92400,note_on,60,0,1,,,,,,,,,0,,,74,53
92400,note_on,540,0,2,,,,,,,,,0,,,79,34
92400,set_tempo,240,1,0,,,,,,645161,,,,,,,
92458,note_on,58,0,1,,,,,,,,,0,,,74,0
92460,note_on,2,0,1,,,,,,,,,0,,,72,49
92518,note_on,58,0,1,,,,,,,,,0,,,72,0
92520,note_on,2,0,1,,,,,,,,,0,,,71,53
92578,note_on,58,0,1,,,,,,,,,0,,,71,0
92580,note_on,180,0,2,,,,,,,,,0,,,83,0
92580,note_on,2,0,1,,,,,,,,,0,,,69,49
92580,note_on,0,0,2,,,,,,,,,0,,,79,0
92638,note_on,58,0,1,,,,,,,,,0,,,69,0
92640,note_on,2,0,1,,,,,,,,,0,,,67,58
92640,note_on,0,0,2,,,,,,,,,0,,,79,39
92640,note_on,60,0,2,,,,,,,,,0,,,83,45
92640,note_on,0,0,2,,,,,,,,,0,,,74,39
92640,set_tempo,240,1,0,,,,,,674157,,,,,,,
92820,note_on,0,0,2,,,,,,,,,0,,,79,0
92820,note_on,0,0,2,,,,,,,,,0,,,83,0
92820,note_on,180,0,1,,,,,,,,,0,,,67,0
92820,note_on,180,0,2,,,,,,,,,0,,,74,0
92880,note_on,60,0,1,,,,,,,,,0,,,103,72
92880,note_on,0,0,1,,,,,,,,,0,,,95,64
92880,set_tempo,240,1,0,,,,,,701754,,,,,,,
92938,note_on,58,0,1,,,,,,,,,0,,,95,0
92938,note_on,0,0,1,,,,,,,,,0,,,103,0
93120,note_on,0,0,1,,,,,,,,,0,,,92,71
93120,note_on,182,0,1,,,,,,,,,0,,,100,80
93120,set_tempo,240,1,0,,,,,,718563,,,,,,,
93178,note_on,58,0,1,,,,,,,,,0,,,92,0
93178,note_on,0,0,1,,,,,,,,,0,,,100,0
93360,set_tempo,240,1,0,,,,,,677966,,,,,,,
93360,note_on,182,0,1,,,,,,,,,0,,,71,56
93418,note_on,58,0,1,,,,,,,,,0,,,71,0
93420,note_on,2,0,1,,,,,,,,,0,,,69,53
93478,note_on,58,0,1,,,,,,,,,0,,,69,0
93480,note_on,2,0,1,,,,,,,,,0,,,68,56
93510,note_on,690,0,2,,,,,,,,,0,,,74,36
93538,note_on,58,0,1,,,,,,,,,0,,,68,0
93540,note_on,30,0,2,,,,,,,,,0,,,80,36
93540,note_on,2,0,1,,,,,,,,,0,,,66,52
93570,note_on,30,0,2,,,,,,,,,0,,,83,36
93598,note_on,58,0,1,,,,,,,,,0,,,66,0
93600,set_tempo,240,1,0,,,,,,693642,,,,,,,
93600,note_on,30,0,2,,,,,,,,,0,,,88,41
93600,note_on,2,0,1,,,,,,,,,0,,,64,60
93780,note_on,180,0,2,,,,,,,,,0,,,88,0
93780,note_on,180,0,1,,,,,,,,,0,,,64,0
93780,note_on,0,0,2,,,,,,,,,0,,,74,0
93780,note_on,0,0,2,,,,,,,,,0,,,80,0
93780,note_on,0,0,2,,,,,,,,,0,,,83,0
93840,set_tempo,240,1,0,,,,,,655738,,,,,,,
93840,note_on,60,0,1,,,,,,,,,0,,,88,60
93898,note_on,58,0,1,,,,,,,,,0,,,88,0
93900,note_on,2,0,1,,,,,,,,,0,,,92,61
93958,note_on,58,0,1,,,,,,,,,0,,,92,0
93960,note_on,2,0,1,,,,,,,,,0,,,95,63
94018,note_on,58,0,1,,,,,,,,,0,,,95,0
94020,note_on,2,0,1,,,,,,,,,0,,,92,59
94078,note_on,58,0,1,,,,,,,,,0,,,92,0
94080,set_tempo,240,1,0,,,,,,689655,,,,,,,
94080,note_on,2,0,1,,,,,,,,,0,,,93,63
94260,note_on,180,0,1,,,,,,,,,0,,,93,0
94320,note_on,60,0,1,,,,,,,,,0,,,76,58
94320,note_on,0,0,2,,,,,,,,,0,,,81,37
94320,note_on,540,0,2,,,,,,,,,0,,,84,41
94320,set_tempo,240,1,0,,,,,,652174,,,,,,,
94378,note_on,58,0,1,,,,,,,,,0,,,76,0
94380,note_on,2,0,1,,,,,,,,,0,,,74,55
94438,note_on,58,0,1,,,,,,,,,0,,,74,0
94440,note_on,2,0,1,,,,,,,,,0,,,72,57
94498,note_on,58,0,1,,,,,,,,,0,,,72,0
94500,note_on,0,0,2,,,,,,,,,0,,,84,0
94500,note_on,2,0,1,,,,,,,,,0,,,71,53
94500,note_on,180,0,2,,,,,,,,,0,,,81,0
94558,note_on,58,0,1,,,,,,,,,0,,,71,0
94560,note_on,2,0,1,,,,,,,,,0,,,69,61
94560,note_on,0,0,2,,,,,,,,,0,,,81,40
94560,note_on,0,0,2,,,,,,,,,0,,,76,40
94560,note_on,60,0,2,,,,,,,,,0,,,84,46
94560,set_tempo,240,1,0,,,,,,677966,,,,,,,
94740,note_on,0,0,2,,,,,,,,,0,,,84,0
94740,note_on,0,0,2,,,,,,,,,0,,,81,0
94740,note_on,180,0,2,,,,,,,,,0,,,76,0
94740,note_on,180,0,1,,,,,,,,,0,,,69,0
94780,set_tempo,220,1,0,,,,,,648649,,,,,,,
94800,note_on,60,0,1,,,,,,,,,0,,,76,57
94858,note_on,58,0,1,,,,,,,,,0,,,76,0
94860,note_on,2,0,1,,,,,,,,,0,,,72,53
94918,note_on,58,0,1,,,,,,,,,0,,,72,0
94920,note_on,2,0,1,,,,,,,,,0,,,69,57
94978,note_on,58,0,1,,,,,,,,,0,,,69,0
94980,note_on,2,0,1,,,,,,,,,0,,,67,53
95038,note_on,58,0,1,,,,,,,,,0,,,67,0
95040,note_on,2,0,1,,,,,,,,,0,,,65,61
95040,set_tempo,260,1,0,,,,,,677966,,,,,,,
95220,note_on,180,0,1,,,,,,,,,0,,,65,0
95280,note_on,540,0,2,,,,,,,,,0,,,72,26
95280,note_on,0,0,2,,,,,,,,,0,,,77,26
95280,set_tempo,240,1,0,,,,,,645161,,,,,,,
95280,note_on,60,0,1,,,,,,,,,0,,,89,56
95280,note_on,0,0,2,,,,,,,,,0,,,81,29
95338,note_on,58,0,1,,,,,,,,,0,,,89,0
95340,note_on,2,0,1,,,,,,,,,0,,,93,53
95398,note_on,58,0,1,,,,,,,,,0,,,93,0
95400,note_on,2,0,1,,,,,,,,,0,,,96,56
95458,note_on,58,0,1,,,,,,,,,0,,,96,0
95460,note_on,0,0,2,,,,,,,,,0,,,77,0
95460,note_on,180,0,2,,,,,,,,,0,,,81,0
95460,note_on,2,0,1,,,,,,,,,0,,,93,52
95460,note_on,0,0,2,,,,,,,,,0,,,72,0
95518,note_on,58,0,1,,,,,,,,,0,,,93,0
95520,note_on,60,0,2,,,,,,,,,0,,,84,31
95520,note_on,2,0,1,,,,,,,,,0,,,89,60
95520,note_on,0,0,2,,,,,,,,,0,,,81,28
95520,note_on,0,0,2,,,,,,,,,0,,,77,28
95520,set_tempo,240,1,0,,,,,,674157,,,,,,,
95700,note_on,180,0,1,,,,,,,,,0,,,89,0
95700,note_on,0,0,2,,,,,,,,,0,,,81,0
95700,note_on,0,0,2,,,,,,,,,0,,,84,0
95700,note_on,180,0,2,,,,,,,,,0,,,77,0
95760,note_on,60,0,1,,,,,,,,,0,,,77,53
95760,set_tempo,240,1,0,,,,,,631579,,,,,,,
95818,note_on,58,0,1,,,,,,,,,0,,,77,0
95820,note_on,2,0,1,,,,,,,,,0,,,72,48
95878,note_on,58,0,1,,,,,,,,,0,,,72,0
95880,note_on,2,0,1,,,,,,,,,0,,,69,53
95938,note_on,58,0,1,,,,,,,,,0,,,69,0
95940,note_on,2,0,1,,,,,,,,,0,,,65,50
95998,note_on,58,0,1,,,,,,,,,0,,,65,0
96000,set_tempo,240,1,0,,,,,,670391,,,,,,,
96000,note_on,2,0,1,,,,,,,,,0,,,64,61
96180,note_on,180,0,1,,,,,,,,,0,,,64,0
96220,set_tempo,220,1,0,,,,,,648649,,,,,,,
96240,note_on,60,0,1,,,,,,,,,0,,,88,50
96240,note_on,540,0,2,,,,,,,,,0,,,72,26
96240,note_on,0,0,2,,,,,,,,,0,,,76,26
96240,note_on,0,0,2,,,,,,,,,0,,,81,29
96240,set_tempo,20,1,0,,,,,,648649,,,,,,,
96298,note_on,58,0,1,,,,,,,,,0,,,88,0
96300,note_on,2,0,1,,,,,,,,,0,,,93,46
96358,note_on,58,0,1,,,,,,,,,0,,,93,0
96360,note_on,2,0,1,,,,,,,,,0,,,96,50
96418,note_on,58,0,1,,,,,,,,,0,,,96,0
96420,note_on,180,0,2,,,,,,,,,0,,,81,0
96420,note_on,0,0,2,,,,,,,,,0,,,76,0
96420,note_on,0,0,2,,,,,,,,,0,,,72,0
96420,note_on,2,0,1,,,,,,,,,0,,,93,47
96478,note_on,58,0,1,,,,,,,,,0,,,93,0
96480,note_on,0,0,2,,,,,,,,,0,,,81,28
96480,note_on,60,0,2,,,,,,,,,0,,,84,31
96480,note_on,0,0,2,,,,,,,,,0,,,76,28
96480,set_tempo,240,1,0,,,,,,670391,,,,,,,
96480,note_on,2,0,1,,,,,,,,,0,,,88,55
96660,note_on,180,0,2,,,,,,,,,0,,,76,0
96660,note_on,0,0,2,,,,,,,,,0,,,84,0
96660,note_on,0,0,2,,,,,,,,,0,,,81,0
96660,note_on,180,0,1,,,,,,,,,0,,,88,0
96720,set_tempo,240,1,0,,,,,,638298,,,,,,,
96720,note_on,60,0,1,,,,,,,,,0,,,76,50
96778,note_on,58,0,1,,,,,,,,,0,,,76,0
96780,note_on,2,0,1,,,,,,,,,0,,,72,47
96838,note_on,58,0,1,,,,,,,,,0,,,72,0
96840,note_on,2,0,1,,,,,,,,,0,,,69,50
96898,note_on,58,0,1,,,,,,,,,0,,,69,0
96900,note_on,2,0,1,,,,,,,,,0,,,64,47
96958,note_on,58,0,1,,,,,,,,,0,,,64,0
96960,set_tempo,240,1,0,,,,,,677966,,,,,,,
96960,note_on,2,0,1,,,,,,,,,0,,,63,53
97140,note_on,180,0,1,,,,,,,,,0,,,63,0
97180,set_tempo,220,1,0,,,,,,648649,,,,,,,
97200,set_tempo,20,1,0,,,,,,655738,,,,,,,
97200,note_on,60,0,1,,,,,,,,,0,,,87,49
97200,note_on,0,0,2,,,,,,,,,0,,,81,29
97200,note_on,0,0,2,,,,,,,,,0,,,78,26
97200,note_on,540,0,2,,,,,,,,,0,,,72,26
97258,note_on,58,0,1,,,,,,,,,0,,,87,0
97260,note_on,2,0,1,,,,,,,,,0,,,93,46
97318,note_on,58,0,1,,,,,,,,,0,,,93,0
97320,note_on,2,0,1,,,,,,,,,0,,,96,49
97378,note_on,58,0,1,,,,,,,,,0,,,96,0
97380,note_on,180,0,2,,,,,,,,,0,,,81,0
97380,note_on,2,0,1,,,,,,,,,0,,,93,45
97380,note_on,0,0,2,,,,,,,,,0,,,78,0
97380,note_on,0,0,2,,,,,,,,,0,,,72,0
97438,note_on,58,0,1,,,,,,,,,0,,,93,0
97440,set_tempo,240,1,0,,,,,,689655,,,,,,,
97440,note_on,2,0,1,,,,,,,,,0,,,87,51
97440,note_on,60,0,2,,,,,,,,,0,,,84,31
97440,note_on,0,0,2,,,,,,,,,0,,,78,28
97440,note_on,0,0,2,,,,,,,,,0,,,81,28
97620,note_on,180,0,2,,,,,,,,,0,,,78,0
97620,note_on,0,0,2,,,,,,,,,0,,,81,0
97620,note_on,0,0,2,,,,,,,,,0,,,84,0
97620,note_on,180,0,1,,,,,,,,,0,,,87,0
97680,note_on,60,0,1,,,,,,,,,0,,,75,51
97680,set_tempo,240,1,0,,,,,,641711,,,,,,,
97738,note_on,58,0,1,,,,,,,,,0,,,75,0
97740,note_on,2,0,1,,,,,,,,,0,,,72,46
97798,note_on,58,0,1,,,,,,,,,0,,,72,0
97800,note_on,2,0,1,,,,,,,,,0,,,69,51
97858,note_on,58,0,1,,,,,,,,,0,,,69,0
97860,note_on,2,0,1,,,,,,,,,0,,,66,47
97918,note_on,58,0,1,,,,,,,,,0,,,66,0
97920,set_tempo,240,1,0,,,,,,677966,,,,,,,
97920,note_on,2,0,1,,,,,,,,,0,,,64,56
98100,note_on,180,0,1,,,,,,,,,0,,,64,0
98140,set_tempo,220,1,0,,,,,,648649,,,,,,,
98160,note_on,540,0,2,,,,,,,,,0,,,71,29
98160,set_tempo,20,1,0,,,,,,662983,,,,,,,
98160,note_on,0,0,2,,,,,,,,,0,,,76,29
98160,note_on,60,0,1,,,,,,,,,0,,,88,49
98160,note_on,0,0,2,,,,,,,,,0,,,79,33
98218,note_on,58,0,1,,,,,,,,,0,,,88,0
98220,note_on,2,0,1,,,,,,,,,0,,,91,45
98278,note_on,58,0,1,,,,,,,,,0,,,91,0
98280,note_on,2,0,1,,,,,,,,,0,,,95,49
98338,note_on,58,0,1,,,,,,,,,0,,,95,0
98340,note_on,2,0,1,,,,,,,,,0,,,91,45
98340,note_on,180,0,2,,,,,,,,,0,,,79,0
98340,note_on,0,0,2,,,,,,,,,0,,,71,0
98340,note_on,0,0,2,,,,,,,,,0,,,76,0
98398,note_on,58,0,1,,,,,,,,,0,,,91,0
98400,note_on,60,0,2,,,,,,,,,0,,,83,36
98400,note_on,0,0,2,,,,,,,,,0,,,79,31
98400,note_on,2,0,1,,,,,,,,,0,,,88,52
98400,set_tempo,240,1,0,,,,,,689655,,,,,,,
98400,note_on,0,0,2,,,,,,,,,0,,,76,31
98580,note_on,0,0,2,,,,,,,,,0,,,83,0
98580,note_on,180,0,2,,,,,,,,,0,,,76,0
98580,note_on,180,0,1,,,,,,,,,0,,,88,0
98580,note_on,0,0,2,,,,,,,,,0,,,79,0
98640,set_tempo,240,1,0,,,,,,645161,,,,,,,
98640,note_on,60,0,1,,,,,,,,,0,,,71,52
98698,note_on,58,0,1,,,,,,,,,0,,,71,0
98700,note_on,2,0,1,,,,,,,,,0,,,67,48
98758,note_on,58,0,1,,,,,,,,,0,,,67,0
98760,note_on,2,0,1,,,,,,,,,0,,,64,52
98818,note_on,58,0,1,,,,,,,,,0,,,64,0
98820,note_on,2,0,1,,,,,,,,,0,,,62,48
98878,note_on,58,0,1,,,,,,,,,0,,,62,0
98880,note_on,2,0,1,,,,,,,,,0,,,60,57
98880,set_tempo,240,1,0,,,,,,677966,,,,,,,
99060,note_on,180,0,1,,,,,,,,,0,,,60,0
99120,note_on,540,0,2,,,,,,,,,0,,,67,33
99120,note_on,60,0,1,,,,,,,,,0,,,84,48
99120,note_on,0,0,2,,,,,,,,,0,,,79,37
99120,set_tempo,240,1,0,,,,,,631579,,,,,,,
99120,note_on,0,0,1,,,,,,,,,0,,,88,55
99120,note_on,0,0,2,,,,,,,,,0,,,76,33
99178,note_on,58,0,1,,,,,,,,,0,,,88,0
99180,note_on,2,0,1,,,,,,,,,0,,,91,50
99238,note_on,58,0,1,,,,,,,,,0,,,91,0
99240,note_on,2,0,1,,,,,,,,,0,,,96,55
99298,note_on,58,0,1,,,,,,,,,0,,,96,0
99300,note_on,0,0,2,,,,,,,,,0,,,67,0
99300,note_on,0,0,2,,,,,,,,,0,,,76,0
99300,note_on,180,0,2,,,,,,,,,0,,,79,0
99300,note_on,2,0,1,,,,,,,,,0,,,91,50
99358,note_on,58,0,1,,,,,,,,,0,,,91,0
99360,set_tempo,240,1,0,,,,,,655738,,,,,,,
99360,note_on,0,0,1,,,,,,,,,0,,,84,48
99360,note_on,2,0,1,,,,,,,,,0,,,84,0
99360,note_on,0,0,2,,,,,,,,,0,,,79,40
99360,note_on,0,0,2,,,,,,,,,0,,,76,36
99360,note_on,60,0,2,,,,,,,,,0,,,72,36
99360,note_on,0,0,1,,,,,,,,,0,,,88,58
99478,note_on,0,0,2,,,,,,,,,0,,,79,0
99478,note_on,0,0,2,,,,,,,,,0,,,72,0
99478,note_on,0,0,1,,,,,,,,,0,,,84,0
99478,note_on,118,0,1,,,,,,,,,0,,,88,0
99478,note_on,118,0,2,,,,,,,,,0,,,76,0
99600,note_on,122,0,1,,,,,,,,,0,,,72,55
99600,set_tempo,240,1,0,,,,,,628272,,,,,,,
99658,note_on,58,0,1,,,,,,,,,0,,,72,0
99660,note_on,2,0,1,,,,,,,,,0,,,67,50
99718,note_on,58,0,1,,,,,,,,,0,,,67,0
99720,note_on,2,0,1,,,,,,,,,0,,,64,55
99778,note_on,58,0,1,,,,,,,,,0,,,64,0
99780,note_on,2,0,1,,,,,,,,,0,,,60,51
99838,note_on,58,0,1,,,,,,,,,0,,,60,0
99840,set_tempo,240,1,0,,,,,,655738,,,,,,,
99840,note_on,2,0,1,,,,,,,,,0,,,59,59
100020,note_on,180,0,1,,,,,,,,,0,,,59,0
100080,note_on,602,0,2,,,,,,,,,0,,,67,34
100080,note_on,60,0,1,,,,,,,,,0,,,83,48
100080,set_tempo,240,1,0,,,,,,638298,,,,,,,
100080,note_on,0,0,1,,,,,,,,,0,,,88,55
100080,note_on,0,0,2,,,,,,,,,0,,,76,34
100080,note_on,0,0,2,,,,,,,,,0,,,79,38
100138,note_on,58,0,1,,,,,,,,,0,,,88,0
100140,note_on,2,0,1,,,,,,,,,0,,,91,51
100198,note_on,58,0,1,,,,,,,,,0,,,91,0
100200,note_on,2,0,1,,,,,,,,,0,,,95,55
100258,note_on,58,0,1,,,,,,,,,0,,,95,0
100260,note_on,2,0,1,,,,,,,,,0,,,91,51
100260,note_on,0,0,2,,,,,,,,,0,,,67,0
100260,note_on,0,0,2,,,,,,,,,0,,,76,0
100260,note_on,180,0,2,,,,,,,,,0,,,79,0
100318,note_on,58,0,1,,,,,,,,,0,,,91,0
100320,note_on,60,0,2,,,,,,,,,0,,,71,36
100320,note_on,2,0,1,,,,,,,,,0,,,83,0
100320,set_tempo,240,1,0,,,,,,666667,,,,,,,
100320,note_on,0,0,2,,,,,,,,,0,,,76,36
100320,note_on,0,0,2,,,,,,,,,0,,,79,40
100320,note_on,0,0,1,,,,,,,,,0,,,83,48
100320,note_on,0,0,1,,,,,,,,,0,,,88,57
100438,note_on,118,0,2,,,,,,,,,0,,,76,0
100438,note_on,118,0,1,,,,,,,,,0,,,88,0
100438,note_on,0,0,2,,,,,,,,,0,,,71,0
100438,note_on,0,0,2,,,,,,,,,0,,,79,0
100438,note_on,0,0,1,,,,,,,,,0,,,83,0
100560,note_on,122,0,1,,,,,,,,,0,,,71,56
100560,set_tempo,240,1,0,,,,,,634921,,,,,,,
100618,note_on,58,0,1,,,,,,,,,0,,,71,0
100620,note_on,2,0,1,,,,,,,,,0,,,67,51
100678,note_on,58,0,1,,,,,,,,,0,,,67,0
100680,note_on,2,0,1,,,,,,,,,0,,,64,56
100738,note_on,58,0,1,,,,,,,,,0,,,64,0
100740,note_on,2,0,1,,,,,,,,,0,,,59,52
100798,note_on,58,0,1,,,,,,,,,0,,,59,0
100800,set_tempo,240,1,0,,,,,,685714,,,,,,,
100800,note_on,2,0,1,,,,,,,,,0,,,58,60
100980,note_on,180,0,1,,,,,,,,,0,,,58,0
101040,note_on,60,0,1,,,,,,,,,0,,,82,59
101040,set_tempo,240,1,0,,,,,,693642,,,,,,,
101040,note_on,0,0,2,,,,,,,,,0,,,76,34
101040,note_on,0,0,2,,,,,,,,,0,,,79,38
101040,note_on,0,0,1,,,,,,,,,0,,,88,59
101040,note_on,602,0,2,,,,,,,,,0,,,67,34
101098,note_on,58,0,1,,,,,,,,,0,,,88,0
101100,note_on,2,0,1,,,,,,,,,0,,,91,55
101158,note_on,58,0,1,,,,,,,,,0,,,91,0
101160,note_on,2,0,1,,,,,,,,,0,,,94,59
101218,note_on,58,0,1,,,,,,,,,0,,,94,0
101220,note_on,0,0,2,,,,,,,,,0,,,67,0
101220,note_on,0,0,2,,,,,,,,,0,,,76,0
101220,note_on,2,0,1,,,,,,,,,0,,,91,55
101220,note_on,180,0,2,,,,,,,,,0,,,79,0
101278,note_on,58,0,1,,,,,,,,,0,,,91,0
101280,note_on,0,0,1,,,,,,,,,0,,,82,63
101280,set_tempo,240,1,0,,,,,,670391,,,,,,,
101280,note_on,60,0,2,,,,,,,,,0,,,73,36
101280,note_on,2,0,1,,,,,,,,,0,,,82,0
101280,note_on,0,0,1,,,,,,,,,0,,,88,63
101280,note_on,0,0,2,,,,,,,,,0,,,79,40
101280,note_on,0,0,2,,,,,,,,,0,,,76,36
101398,note_on,0,0,2,,,,,,,,,0,,,73,0
101398,note_on,0,0,2,,,,,,,,,0,,,79,0
101398,note_on,0,0,1,,,,,,,,,0,,,82,0
101398,note_on,118,0,1,,,,,,,,,0,,,88,0
101398,note_on,118,0,2,,,,,,,,,0,,,76,0
101520,note_on,0,0,2,,,,,,,,,0,,,76,31
101520,note_on,0,0,2,,,,,,,,,0,,,79,36
101520,note_on,122,0,1,,,,,,,,,0,,,70,57
101520,note_on,122,0,2,,,,,,,,,0,,,73,31
101520,set_tempo,240,1,0,,,,,,681818,,,,,,,
101578,note_on,58,0,1,,,,,,,,,0,,,70,0
101580,note_on,2,0,1,,,,,,,,,0,,,67,53
101638,note_on,58,0,1,,,,,,,,,0,,,67,0
101640,note_on,2,0,1,,,,,,,,,0,,,64,57
101698,note_on,58,0,1,,,,,,,,,0,,,64,0
101700,note_on,0,0,2,,,,,,,,,0,,,76,0
101700,note_on,2,0,1,,,,,,,,,0,,,61,53
101700,note_on,180,0,2,,,,,,,,,0,,,79,0
101700,note_on,0,0,2,,,,,,,,,0,,,73,0
101758,note_on,58,0,1,,,,,,,,,0,,,61,0
101760,set_tempo,240,1,0,,,,,,677966,,,,,,,
101760,note_on,2,0,1,,,,,,,,,0,,,59,60
101760,note_on,0,0,2,,,,,,,,,0,,,78,34
101760,note_on,60,0,2,,,,,,,,,0,,,75,34
101760,note_on,0,0,2,,,,,,,,,0,,,83,38
101940,note_on,0,0,2,,,,,,,,,0,,,75,0
101940,note_on,180,0,2,,,,,,,,,0,,,83,0
101940,note_on,0,0,2,,,,,,,,,0,,,78,0
101940,note_on,180,0,1,,,,,,,,,0,,,59,0
101980,set_tempo,220,1,0,,,,,,648649,,,,,,,
102000,note_on,60,0,1,,,,,,,,,0,,,87,56
102000,set_tempo,20,1,0,,,,,,645161,,,,,,,
102058,note_on,58,0,1,,,,,,,,,0,,,87,0
102060,note_on,2,0,1,,,,,,,,,0,,,95,52
102118,note_on,58,0,1,,,,,,,,,0,,,95,0
102120,note_on,2,0,1,,,,,,,,,0,,,90,56
102178,note_on,58,0,1,,,,,,,,,0,,,90,0
102180,note_on,2,0,1,,,,,,,,,0,,,87,51
102238,note_on,58,0,1,,,,,,,,,0,,,87,0
102240,note_on,2,0,1,,,,,,,,,0,,,83,59
102240,set_tempo,240,1,0,,,,,,568720,,,,,,,
102240,note_on,300,0,2,,,,,,,,,0,,,75,58
102298,note_on,58,0,2,,,,,,,,,0,,,75,0
102300,note_on,2,0,2,,,,,,,,,0,,,83,51
102340,set_tempo,100,1,0,,,,,,571429,,,,,,,
102358,note_on,58,0,2,,,,,,,,,0,,,83,0
102360,note_on,2,0,2,,,,,,,,,0,,,78,56
102418,note_on,58,0,2,,,,,,,,,0,,,78,0
102420,note_on,180,0,1,,,,,,,,,0,,,83,0
102420,note_on,2,0,2,,,,,,,,,0,,,75,52
102440,set_tempo,100,1,0,,,,,,574163,,,,,,,
102478,note_on,58,0,2,,,,,,,,,0,,,75,0
102480,note_on,60,0,1,,,,,,,,,0,,,81,56
102538,note_on,58,0,1,,,,,,,,,0,,,81,0
102540,set_tempo,100,1,0,,,,,,576923,,,,,,,
102540,note_on,2,0,1,,,,,,,,,0,,,83,52
102598,note_on,58,0,1,,,,,,,,,0,,,83,0
102600,note_on,2,0,1,,,,,,,,,0,,,81,56
102640,set_tempo,100,1,0,,,,,,579710,,,,,,,
102658,note_on,58,0,1,,,,,,,,,0,,,81,0
102660,note_on,2,0,1,,,,,,,,,0,,,78,53
102718,note_on,58,0,1,,,,,,,,,0,,,78,0
102720,note_on,2,0,1,,,,,,,,,0,,,76,59
102720,note_on,242,0,2,,,,,,,,,0,,,67,57
102720,set_tempo,80,1,0,,,,,,582524,,,,,,,
102778,note_on,58,0,2,,,,,,,,,0,,,67,0
102780,note_on,2,0,2,,,,,,,,,0,,,76,52
102838,note_on,58,0,2,,,,,,,,,0,,,76,0
102840,note_on,2,0,2,,,,,,,,,0,,,71,56
102898,note_on,58,0,2,,,,,,,,,0,,,71,0
102900,note_on,2,0,2,,,,,,,,,0,,,67,52
102900,note_on,180,0,1,,,,,,,,,0,,,76,0
102958,note_on,58,0,2,,,,,,,,,0,,,67,0
102960,note_on,60,0,1,,,,,,,,,0,,,76,59
102960,set_tempo,240,1,0,,,,,,563380,,,,,,,
103018,note_on,58,0,1,,,,,,,,,0,,,76,0
103020,note_on,2,0,1,,,,,,,,,0,,,79,53
103078,note_on,58,0,1,,,,,,,,,0,,,79,0
103080,note_on,2,0,1,,,,,,,,,0,,,76,56
103080,set_tempo,120,1,0,,,,,,566038,,,,,,,
103138,note_on,58,0,1,,,,,,,,,0,,,76,0
103140,note_on,2,0,1,,,,,,,,,0,,,74,53
103198,note_on,58,0,1,,,,,,,,,0,,,74,0
103200,set_tempo,120,1,0,,,,,,568720,,,,,,,
103200,note_on,242,0,2,,,,,,,,,0,,,64,59
103200,note_on,2,0,1,,,,,,,,,0,,,72,60
103258,note_on,58,0,2,,,,,,,,,0,,,64,0
103260,note_on,2,0,2,,,,,,,,,0,,,72,53
103318,note_on,58,0,2,,,,,,,,,0,,,72,0
103320,note_on,2,0,2,,,,,,,,,0,,,67,57
103320,set_tempo,120,1,0,,,,,,571429,,,,,,,
103378,note_on,58,0,2,,,,,,,,,0,,,67,0
103380,note_on,180,0,1,,,,,,,,,0,,,72,0
103380,note_on,2,0,2,,,,,,,,,0,,,64,55
103438,note_on,58,0,2,,,,,,,,,0,,,64,0
103440,note_on,60,0,1,,,,,,,,,0,,,72,61
103440,set_tempo,120,1,0,,,,,,574163,,,,,,,
103498,note_on,58,0,1,,,,,,,,,0,,,72,0
103500,note_on,2,0,1,,,,,,,,,0,,,76,55
103558,note_on,58,0,1,,,,,,,,,0,,,76,0
103560,set_tempo,120,1,0,,,,,,576923,,,,,,,
103560,note_on,2,0,1,,,,,,,,,0,,,72,58
103618,note_on,58,0,1,,,,,,,,,0,,,72,0
103620,note_on,2,0,1,,,,,,,,,0,,,70,56
103660,set_tempo,100,1,0,,,,,,579710,,,,,,,
103678,note_on,58,0,1,,,,,,,,,0,,,70,0
103680,note_on,2,0,1,,,,,,,,,0,,,71,61
103680,note_on,242,0,2,,,,,,,,,0,,,63,60
103680,set_tempo,20,1,0,,,,,,582524,,,,,,,
103738,note_on,58,0,2,,,,,,,,,0,,,63,0
103740,note_on,2,0,2,,,,,,,,,0,,,71,56
103798,note_on,58,0,2,,,,,,,,,0,,,71,0
103800,note_on,2,0,2,,,,,,,,,0,,,66,58
103858,note_on,58,0,2,,,,,,,,,0,,,66,0
103860,note_on,2,0,2,,,,,,,,,0,,,63,55
103860,note_on,180,0,1,,,,,,,,,0,,,71,0
103918,note_on,58,0,2,,,,,,,,,0,,,63,0
103920,set_tempo,240,1,0,,,,,,560748,,,,,,,
103920,note_on,60,0,1,,,,,,,,,0,,,75,61
103978,note_on,58,0,1,,,,,,,,,0,,,75,0
103980,note_on,2,0,1,,,,,,,,,0,,,83,56
104038,note_on,58,0,1,,,,,,,,,0,,,83,0
104040,note_on,2,0,1,,,,,,,,,0,,,78,59
104098,note_on,58,0,1,,,,,,,,,0,,,78,0
104100,note_on,2,0,1,,,,,,,,,0,,,75,56
104100,set_tempo,180,1,0,,,,,,563380,,,,,,,
104158,note_on,58,0,1,,,,,,,,,0,,,75,0
104160,note_on,242,0,2,,,,,,,,,0,,,63,60
104160,note_on,2,0,1,,,,,,,,,0,,,71,62
104218,note_on,58,0,2,,,,,,,,,0,,,63,0
104220,note_on,2,0,2,,,,,,,,,0,,,71,56
104278,note_on,58,0,2,,,,,,,,,0,,,71,0
104280,note_on,2,0,2,,,,,,,,,0,,,66,60
104280,set_tempo,180,1,0,,,,,,566038,,,,,,,
104338,note_on,58,0,2,,,,,,,,,0,,,66,0
104340,note_on,2,0,2,,,,,,,,,0,,,63,57
104340,note_on,180,0,1,,,,,,,,,0,,,71,0
104398,note_on,58,0,2,,,,,,,,,0,,,63,0
104400,note_on,60,0,1,,,,,,,,,0,,,69,64
104458,note_on,58,0,1,,,,,,,,,0,,,69,0
104460,set_tempo,180,1,0,,,,,,568720,,,,,,,
104460,note_on,2,0,1,,,,,,,,,0,,,71,58
104518,note_on,58,0,1,,,,,,,,,0,,,71,0
104520,note_on,2,0,1,,,,,,,,,0,,,69,62
104578,note_on,58,0,1,,,,,,,,,0,,,69,0
104580,note_on,2,0,1,,,,,,,,,0,,,66,60
104620,set_tempo,160,1,0,,,,,,571429,,,,,,,
104638,note_on,58,0,1,,,,,,,,,0,,,66,0
104640,set_tempo,20,1,0,,,,,,576923,,,,,,,
104640,note_on,2,0,1,,,,,,,,,0,,,64,70
104640,note_on,242,0,2,,,,,,,,,0,,,55,70
104698,note_on,58,0,2,,,,,,,,,0,,,55,0
104700,note_on,2,0,2,,,,,,,,,0,,,64,62
104758,note_on,58,0,2,,,,,,,,,0,,,64,0
104760,note_on,2,0,2,,,,,,,,,0,,,59,66
104818,note_on,58,0,2,,,,,,,,,0,,,59,0
104820,note_on,180,0,1,,,,,,,,,0,,,64,0
104820,note_on,2,0,2,,,,,,,,,0,,,55,61
104878,note_on,58,0,2,,,,,,,,,0,,,55,0
104880,note_on,60,0,1,,,,,,,,,0,,,64,70
104880,set_tempo,240,1,0,,,,,,555556,,,,,,,
104938,note_on,58,0,1,,,,,,,,,0,,,64,0
104940,note_on,2,0,1,,,,,,,,,0,,,67,62
104980,set_tempo,100,1,0,,,,,,558140,,,,,,,
104998,note_on,58,0,1,,,,,,,,,0,,,67,0
105000,note_on,2,0,1,,,,,,,,,0,,,64,67
105058,note_on,58,0,1,,,,,,,,,0,,,64,0
105060,note_on,2,0,1,,,,,,,,,0,,,62,61
105060,set_tempo,80,1,0,,,,,,560748,,,,,,,
105118,note_on,58,0,1,,,,,,,,,0,,,62,0
105120,note_on,242,0,2,,,,,,,,,0,,,52,70
105120,note_on,2,0,1,,,,,,,,,0,,,60,72
105160,set_tempo,100,1,0,,,,,,563380,,,,,,,
105178,note_on,58,0,2,,,,,,,,,0,,,52,0
105180,note_on,2,0,2,,,,,,,,,0,,,60,62
105238,note_on,58,0,2,,,,,,,,,0,,,60,0
105240,note_on,2,0,2,,,,,,,,,0,,,55,66
105240,set_tempo,80,1,0,,,,,,566038,,,,,,,
105298,note_on,58,0,2,,,,,,,,,0,,,55,0
105300,note_on,180,0,1,,,,,,,,,0,,,60,0
105300,note_on,2,0,2,,,,,,,,,0,,,52,63
105320,set_tempo,80,1,0,,,,,,568720,,,,,,,
105358,note_on,58,0,2,,,,,,,,,0,,,52,0
105360,note_on,60,0,1,,,,,,,,,0,,,60,70
105418,note_on,58,0,1,,,,,,,,,0,,,60,0
105420,note_on,2,0,1,,,,,,,,,0,,,64,62
105420,set_tempo,100,1,0,,,,,,571429,,,,,,,
105478,note_on,58,0,1,,,,,,,,,0,,,64,0
105480,note_on,2,0,1,,,,,,,,,0,,,60,67
105500,set_tempo,80,1,0,,,,,,574163,,,,,,,
105538,note_on,58,0,1,,,,,,,,,0,,,60,0
105540,note_on,2,0,1,,,,,,,,,0,,,58,62
105580,set_tempo,80,1,0,,,,,,576923,,,,,,,
105598,note_on,58,0,1,,,,,,,,,0,,,58,0
105600,note_on,2,0,1,,,,,,,,,0,,,59,73
105600,note_on,242,0,2,,,,,,,,,0,,,51,74
105660,note_on,60,0,2,,,,,,,,,0,,,55,68
105670,note_on,10,0,2,,,,,,,,,0,,,51,0
105720,note_on,0,0,2,,,,,,,,,0,,,54,68
105720,note_on,50,0,2,,,,,,,,,0,,,55,0
105780,note_on,60,0,2,,,,,,,,,0,,,51,66
105790,note_on,10,0,2,,,,,,,,,0,,,54,0
105840,note_on,0,0,2,,,,,,,,,0,,,47,58
105840,note_on,50,0,2,,,,,,,,,0,,,51,0
105840,set_tempo,260,1,0,,,,,,545455,,,,,,,
105860,set_tempo,20,1,0,,,,,,571429,,,,,,,
105900,note_on,60,0,2,,,,,,,,,0,,,54,59
105900,set_tempo,40,1,0,,,,,,568720,,,,,,,
105900,note_on,300,0,1,,,,,,,,,0,,,63,62
105910,note_on,10,0,2,,,,,,,,,0,,,47,0
105910,note_on,10,0,1,,,,,,,,,0,,,59,0
105920,set_tempo,20,1,0,,,,,,566038,,,,,,,
105960,note_on,50,0,2,,,,,,,,,0,,,58,60
105960,note_on,50,0,1,,,,,,,,,0,,,66,63
105960,set_tempo,40,1,0,,,,,,563380,,,,,,,
105970,note_on,10,0,2,,,,,,,,,0,,,54,0
105970,note_on,10,0,1,,,,,,,,,0,,,63,0
105980,set_tempo,20,1,0,,,,,,560748,,,,,,,
106020,set_tempo,40,1,0,,,,,,558140,,,,,,,
106020,note_on,50,0,2,,,,,,,,,0,,,58,0
106020,note_on,50,0,1,,,,,,,,,0,,,70,64
106020,note_on,0,0,2,,,,,,,,,0,,,59,61
106030,note_on,10,0,1,,,,,,,,,0,,,66,0
106040,set_tempo,20,1,0,,,,,,555556,,,,,,,
106060,set_tempo,20,1,0,,,,,,552995,,,,,,,
106080,note_on,60,0,2,,,,,,,,,0,,,59,0
106080,note_on,0,0,2,,,,,,,,,0,,,63,63
106080,note_on,0,0,1,,,,,,,,,0,,,71,66
106080,note_on,50,0,1,,,,,,,,,0,,,70,0
106100,set_tempo,40,1,0,,,,,,550459,,,,,,,
106120,set_tempo,20,1,0,,,,,,547945,,,,,,,
106140,note_on,60,0,2,,,,,,,,,0,,,66,64
106140,note_on,60,0,1,,,,,,,,,0,,,75,67
106150,note_on,10,0,2,,,,,,,,,0,,,63,0
106150,note_on,10,0,1,,,,,,,,,0,,,71,0
106160,set_tempo,40,1,0,,,,,,545455,,,,,,,
106180,set_tempo,20,1,0,,,,,,542986,,,,,,,
106200,set_tempo,20,1,0,,,,,,540541,,,,,,,
106200,note_on,50,0,2,,,,,,,,,0,,,70,66
106200,note_on,50,0,1,,,,,,,,,0,,,78,68
106210,note_on,10,0,1,,,,,,,,,0,,,75,0
106210,note_on,10,0,2,,,,,,,,,0,,,66,0
106240,set_tempo,40,1,0,,,,,,538117,,,,,,,
106260,note_on,50,0,1,,,,,,,,,0,,,82,69
106260,note_on,50,0,2,,,,,,,,,0,,,71,68
106260,set_tempo,20,1,0,,,,,,535714,,,,,,,
106270,note_on,10,0,2,,,,,,,,,0,,,70,0
106270,note_on,10,0,1,,,,,,,,,0,,,78,0
106300,set_tempo,40,1,0,,,,,,533333,,,,,,,
106320,note_on,50,0,2,,,,,,,,,0,,,71,0
106320,note_on,50,0,1,,,,,,,,,0,,,82,0
106320,note_on,0,0,2,,,,,,,,,0,,,75,70
106320,note_on,0,0,1,,,,,,,,,0,,,83,70
106320,set_tempo,20,1,0,,,,,,530973,,,,,,,
106360,set_tempo,40,1,0,,,,,,528634,,,,,,,
106380,note_on,60,0,1,,,,,,,,,0,,,87,71
106380,note_on,60,0,2,,,,,,,,,0,,,78,71
106380,set_tempo,20,1,0,,,,,,526316,,,,,,,
106390,note_on,10,0,1,,,,,,,,,0,,,83,0
106390,note_on,10,0,2,,,,,,,,,0,,,75,0
106400,set_tempo,20,1,0,,,,,,524017,,,,,,,
106440,note_on,50,0,2,,,,,,,,,0,,,82,73
106440,set_tempo,40,1,0,,,,,,521739,,,,,,,
106440,note_on,50,0,1,,,,,,,,,0,,,90,73
106450,note_on,10,0,2,,,,,,,,,0,,,78,0
106450,note_on,10,0,1,,,,,,,,,0,,,87,0
106460,set_tempo,20,1,0,,,,,,519481,,,,,,,
106500,set_tempo,40,1,0,,,,,,517241,,,,,,,
106500,note_on,50,0,1,,,,,,,,,0,,,94,75
106500,note_on,50,0,2,,,,,,,,,0,,,83,74
106510,note_on,10,0,1,,,,,,,,,0,,,90,0
106510,note_on,10,0,2,,,,,,,,,0,,,82,0
106520,set_tempo,20,1,0,,,,,,515021,,,,,,,
106540,set_tempo,20,1,0,,,,,,512821,,,,,,,
106560,note_on,50,0,2,,,,,,,,,0,,,83,0
106560,note_on,50,0,1,,,,,,,,,0,,,94,0
106560,set_tempo,20,1,0,,,,,,1008403,,,,,,,
106560,note_on,0,0,2,,,,,,,,,0,,,87,77
106560,note_on,0,0,1,,,,,,,,,0,,,95,77
106740,note_on,180,0,1,,,,,,,,,0,,,95,0
106740,note_on,180,0,2,,,,,,,,,0,,,87,0
107280,note_on,540,0,1,,,,,,,,,0,,,92,42
107280,set_tempo,720,1,0,,,,,,544959,,,,,,,
107280,note_on,0,0,1,,,,,,,,,0,,,95,48
107398,note_on,0,0,1,,,,,,,,,0,,,92,0
107398,note_on,118,0,1,,,,,,,,,0,,,95,0
107400,note_on,2,0,1,,,,,,,,,0,,,90,38
107400,note_on,0,0,1,,,,,,,,,0,,,93,42
107518,note_on,0,0,1,,,,,,,,,0,,,90,0
107518,note_on,118,0,1,,,,,,,,,0,,,93,0
107520,key_signature,240,1,0,,,,,E,,,,,,,,
107520,set_tempo,0,1,0,,,,,,512821,,,,,,,
107520,note_on,780,0,2,,,,,,,,,0,,,83,38
107520,note_on,0,0,2,,,,,,,,,0,,,76,38
107520,note_on,0,0,1,,,,,,,,,0,,,92,52
107520,note_on,2,0,1,,,,,,,,,0,,,88,47
107610,note_on,90,0,2,,,,,,,,,0,,,76,0
107610,note_on,0,0,2,,,,,,,,,0,,,83,0
107640,note_on,30,0,2,,,,,,,,,0,,,76,37
107640,note_on,0,0,2,,,,,,,,,0,,,83,37
107730,note_on,90,0,2,,,,,,,,,0,,,83,0
107730,note_on,0,0,2,,,,,,,,,0,,,76,0
107740,note_on,0,0,1,,,,,,,,,0,,,88,0
107740,note_on,220,0,1,,,,,,,,,0,,,92,0
107760,note_on,20,0,1,,,,,,,,,0,,,88,38
107760,note_on,0,0,1,,,,,,,,,0,,,92,42
107878,note_on,118,0,1,,,,,,,,,0,,,92,0
107878,note_on,0,0,1,,,,,,,,,0,,,88,0
107880,note_on,0,0,1,,,,,,,,,0,,,90,39
107880,set_tempo,360,1,0,,,,,,526316,,,,,,,
107880,note_on,2,0,1,,,,,,,,,0,,,83,35
107998,note_on,0,0,1,,,,,,,,,0,,,83,0
107998,note_on,118,0,1,,,,,,,,,0,,,90,0
108000,note_on,0,0,2,,,,,,,,,0,,,76,38
108000,note_on,270,0,2,,,,,,,,,0,,,71,38
108000,set_tempo,120,1,0,,,,,,512821,,,,,,,
108000,note_on,0,0,1,,,,,,,,,0,,,88,46
108000,note_on,2,0,1,,,,,,,,,0,,,80,40
108090,note_on,90,0,2,,,,,,,,,0,,,76,0
108090,note_on,0,0,2,,,,,,,,,0,,,71,0
108120,note_on,0,0,2,,,,,,,,,0,,,76,37
108120,note_on,30,0,2,,,,,,,,,0,,,71,37
108210,note_on,0,0,2,,,,,,,,,0,,,71,0
108210,note_on,90,0,2,,,,,,,,,0,,,76,0
108220,note_on,220,0,1,,,,,,,,,0,,,88,0
108220,note_on,0,0,1,,,,,,,,,0,,,80,0
108240,note_on,0,0,1,,,,,,,,,0,,,80,41
108240,note_on,20,0,1,,,,,,,,,0,,,83,47
108358,note_on,118,0,1,,,,,,,,,0,,,80,0
108358,note_on,0,0,1,,,,,,,,,0,,,83,0
108360,note_on,0,0,1,,,,,,,,,0,,,81,41
108360,set_tempo,360,1,0,,,,,,528634,,,,,,,
108360,note_on,2,0,1,,,,,,,,,0,,,78,37
108478,note_on,118,0,1,,,,,,,,,0,,,81,0
108478,note_on,0,0,1,,,,,,,,,0,,,78,0
108480,note_on,270,0,2,,,,,,,,,0,,,64,38
108480,note_on,2,0,1,,,,,,,,,0,,,76,45
108480,note_on,0,0,1,,,,,,,,,0,,,80,50
108480,set_tempo,120,1,0,,,,,,512821,,,,,,,
108480,note_on,0,0,2,,,,,,,,,0,,,71,38
108570,note_on,90,0,2,,,,,,,,,0,,,71,0
108570,note_on,0,0,2,,,,,,,,,0,,,64,0
108600,note_on,30,0,2,,,,,,,,,0,,,64,35
108600,note_on,0,0,2,,,,,,,,,0,,,71,35
108690,note_on,0,0,2,,,,,,,,,0,,,64,0
108690,note_on,90,0,2,,,,,,,,,0,,,71,0
108700,note_on,220,0,1,,,,,,,,,0,,,80,0
108700,note_on,0,0,1,,,,,,,,,0,,,76,0
108720,note_on,20,0,1,,,,,,,,,0,,,76,38
108720,note_on,0,0,1,,,,,,,,,0,,,80,42
108838,note_on,0,0,1,,,,,,,,,0,,,76,0
108838,note_on,118,0,1,,,,,,,,,0,,,80,0
108840,note_on,0,0,1,,,,,,,,,0,,,78,39
108840,set_tempo,360,1,0,,,,,,524017,,,,,,,
108840,note_on,2,0,1,,,,,,,,,0,,,71,35
108958,note_on,0,0,1,,,,,,,,,0,,,71,0
108958,note_on,118,0,1,,,,,,,,,0,,,78,0
108960,set_tempo,120,1,0,,,,,,515021,,,,,,,
108960,note_on,0,0,1,,,,,,,,,0,,,76,47
108960,note_on,270,0,2,,,,,,,,,0,,,64,38
108960,note_on,0,0,2,,,,,,,,,0,,,59,38
108960,note_on,2,0,1,,,,,,,,,0,,,68,41
109050,note_on,0,0,2,,,,,,,,,0,,,64,0
109050,note_on,90,0,2,,,,,,,,,0,,,59,0
109080,note_on,0,0,2,,,,,,,,,0,,,64,35
109080,note_on,30,0,2,,,,,,,,,0,,,59,35
109170,note_on,90,0,2,,,,,,,,,0,,,64,0
109170,note_on,0,0,2,,,,,,,,,0,,,59,0
109180,note_on,0,0,1,,,,,,,,,0,,,68,0
109180,note_on,220,0,1,,,,,,,,,0,,,76,0
109200,note_on,20,0,1,,,,,,,,,0,,,68,41
109200,note_on,0,0,1,,,,,,,,,0,,,76,47
109200,set_tempo,240,1,0,,,,,,506329,,,,,,,
109318,note_on,0,0,1,,,,,,,,,0,,,68,0
109318,note_on,118,0,1,,,,,,,,,0,,,76,0
109320,set_tempo,120,1,0,,,,,,517241,,,,,,,
109320,note_on,2,0,1,,,,,,,,,0,,,71,37
109320,note_on,0,0,1,,,,,,,,,0,,,78,41
109438,note_on,118,0,1,,,,,,,,,0,,,78,0
109438,note_on,0,0,1,,,,,,,,,0,,,71,0
109440,note_on,0,0,2,,,,,,,,,0,,,59,38
109440,note_on,2,0,1,,,,,,,,,0,,,76,45
109440,note_on,270,0,2,,,,,,,,,0,,,52,38
109440,set_tempo,120,1,0,,,,,,517241,,,,,,,
109440,note_on,0,0,1,,,,,,,,,0,,,80,50
109530,note_on,90,0,2,,,,,,,,,0,,,59,0
109530,note_on,0,0,2,,,,,,,,,0,,,52,0
109560,note_on,0,0,2,,,,,,,,,0,,,59,36
109560,note_on,30,0,2,,,,,,,,,0,,,52,36
109650,note_on,90,0,2,,,,,,,,,0,,,59,0
109650,note_on,0,0,2,,,,,,,,,0,,,52,0
109660,note_on,220,0,1,,,,,,,,,0,,,80,0
109660,note_on,0,0,1,,,,,,,,,0,,,76,0
109680,note_on,0,0,1,,,,,,,,,0,,,78,48
109680,set_tempo,240,1,0,,,,,,508475,,,,,,,
109680,note_on,20,0,1,,,,,,,,,0,,,71,42
109798,note_on,0,0,1,,,,,,,,,0,,,71,0
109798,note_on,118,0,1,,,,,,,,,0,,,78,0
109800,note_on,2,0,1,,,,,,,,,0,,,76,39
109800,note_on,0,0,1,,,,,,,,,0,,,80,44
109800,set_tempo,120,1,0,,,,,,524017,,,,,,,
109918,note_on,118,0,1,,,,,,,,,0,,,80,0
109918,note_on,0,0,1,,,,,,,,,0,,,76,0
109920,set_tempo,120,1,0,,,,,,524017,,,,,,,
109920,note_on,0,0,1,,,,,,,,,0,,,81,53
109920,note_on,0,0,2,,,,,,,,,0,,,63,40
109920,note_on,270,0,2,,,,,,,,,0,,,71,40
109920,note_on,2,0,1,,,,,,,,,0,,,78,48
110010,note_on,0,0,2,,,,,,,,,0,,,71,0
110010,note_on,90,0,2,,,,,,,,,0,,,63,0
110040,note_on,30,0,2,,,,,,,,,0,,,63,37
110040,note_on,0,0,2,,,,,,,,,0,,,71,37
110130,note_on,90,0,2,,,,,,,,,0,,,71,0
110130,note_on,0,0,2,,,,,,,,,0,,,63,0
110140,note_on,0,0,1,,,,,,,,,0,,,78,0
110140,note_on,220,0,1,,,,,,,,,0,,,81,0
110160,note_on,20,0,1,,,,,,,,,0,,,71,45
110160,note_on,0,0,1,,,,,,,,,0,,,78,50
110160,set_tempo,240,1,0,,,,,,512821,,,,,,,
110278,note_on,0,0,1,,,,,,,,,0,,,71,0
110278,note_on,118,0,1,,,,,,,,,0,,,78,0
110280,note_on,0,0,1,,,,,,,,,0,,,81,46
110280,note_on,2,0,1,,,,,,,,,0,,,78,40
110280,set_tempo,120,1,0,,,,,,533333,,,,,,,
110398,note_on,0,0,1,,,,,,,,,0,,,78,0
110398,note_on,118,0,1,,,,,,,,,0,,,81,0
110400,note_on,2,0,1,,,,,,,,,0,,,80,49
110400,set_tempo,120,1,0,,,,,,519481,,,,,,,
110400,note_on,0,0,1,,,,,,,,,0,,,83,56
110400,note_on,270,0,2,,,,,,,,,0,,,52,49
110400,note_on,0,0,2,,,,,,,,,0,,,59,49
110490,note_on,0,0,2,,,,,,,,,0,,,52,0
110490,note_on,90,0,2,,,,,,,,,0,,,59,0
110520,note_on,0,0,2,,,,,,,,,0,,,59,46
110520,note_on,30,0,2,,,,,,,,,0,,,52,46
110610,note_on,90,0,2,,,,,,,,,0,,,59,0
110610,note_on,0,0,2,,,,,,,,,0,,,52,0
110620,note_on,0,0,1,,,,,,,,,0,,,80,0
110620,note_on,220,0,1,,,,,,,,,0,,,83,0
110640,note_on,0,0,1,,,,,,,,,0,,,81,44
110640,set_tempo,240,1,0,,,,,,510638,,,,,,,
110640,note_on,20,0,1,,,,,,,,,0,,,78,39
110758,note_on,118,0,1,,,,,,,,,0,,,81,0
110758,note_on,0,0,1,,,,,,,,,0,,,78,0
110760,note_on,0,0,1,,,,,,,,,0,,,80,39
110760,set_tempo,120,1,0,,,,,,524017,,,,,,,
110760,note_on,2,0,1,,,,,,,,,0,,,76,35
110878,note_on,0,0,1,,,,,,,,,0,,,76,0
110878,note_on,118,0,1,,,,,,,,,0,,,80,0
110880,note_on,0,0,1,,,,,,,,,0,,,78,49
110880,note_on,270,0,2,,,,,,,,,0,,,59,56
110880,set_tempo,120,1,0,,,,,,519481,,,,,,,
110880,note_on,2,0,1,,,,,,,,,0,,,71,44
110880,note_on,0,0,2,,,,,,,,,0,,,71,56
110970,note_on,90,0,2,,,,,,,,,0,,,71,0
110970,note_on,0,0,2,,,,,,,,,0,,,59,0
111000,note_on,0,0,2,,,,,,,,,0,,,71,51
111000,note_on,30,0,2,,,,,,,,,0,,,59,51
111000,set_tempo,120,1,0,,,,,,493827,,,,,,,
111090,note_on,90,0,2,,,,,,,,,0,,,71,0
111090,note_on,0,0,2,,,,,,,,,0,,,59,0
111100,note_on,0,0,1,,,,,,,,,0,,,71,0
111100,note_on,220,0,1,,,,,,,,,0,,,78,0
111120,note_on,20,0,1,,,,,,,,,0,,,92,42
111120,set_tempo,120,1,0,,,,,,508475,,,,,,,
111120,note_on,0,0,1,,,,,,,,,0,,,95,48
111238,note_on,0,0,1,,,,,,,,,0,,,92,0
111238,note_on,118,0,1,,,,,,,,,0,,,95,0
111240,note_on,2,0,1,,,,,,,,,0,,,90,39
111240,note_on,0,0,1,,,,,,,,,0,,,93,44
111358,note_on,118,0,1,,,,,,,,,0,,,93,0
111358,note_on,0,0,1,,,,,,,,,0,,,90,0
111360,set_tempo,240,1,0,,,,,,502092,,,,,,,
111360,note_on,0,0,1,,,,,,,,,0,,,92,52
111360,note_on,270,0,2,,,,,,,,,0,,,83,38
111360,note_on,2,0,1,,,,,,,,,0,,,88,47
111360,note_on,0,0,2,,,,,,,,,0,,,76,38
111450,note_on,90,0,2,,,,,,,,,0,,,76,0
111450,note_on,0,0,2,,,,,,,,,0,,,83,0
111480,note_on,30,0,2,,,,,,,,,0,,,76,35
111480,note_on,0,0,2,,,,,,,,,0,,,83,35
111570,note_on,90,0,2,,,,,,,,,0,,,83,0
111570,note_on,0,0,2,,,,,,,,,0,,,76,0
111580,note_on,0,0,1,,,,,,,,,0,,,88,0
111580,note_on,220,0,1,,,,,,,,,0,,,92,0
111600,note_on,0,0,1,,,,,,,,,0,,,92,42
111600,note_on,20,0,1,,,,,,,,,0,,,88,38
111718,note_on,0,0,1,,,,,,,,,0,,,88,0
111718,note_on,118,0,1,,,,,,,,,0,,,92,0
111720,set_tempo,360,1,0,,,,,,512821,,,,,,,
111720,note_on,2,0,1,,,,,,,,,0,,,83,34
111720,note_on,0,0,1,,,,,,,,,0,,,90,38
111838,note_on,118,0,1,,,,,,,,,0,,,90,0
111838,note_on,0,0,1,,,,,,,,,0,,,83,0
111840,note_on,0,0,1,,,,,,,,,0,,,88,46
111840,note_on,0,0,2,,,,,,,,,0,,,76,38
111840,set_tempo,120,1,0,,,,,,502092,,,,,,,
111840,note_on,270,0,2,,,,,,,,,0,,,71,38
111840,note_on,2,0,1,,,,,,,,,0,,,80,40
111930,note_on,0,0,2,,,,,,,,,0,,,71,0
111930,note_on,90,0,2,,,,,,,,,0,,,76,0
111960,note_on,0,0,2,,,,,,,,,0,,,76,36
111960,note_on,30,0,2,,,,,,,,,0,,,71,36
112050,note_on,0,0,2,,,,,,,,,0,,,71,0
112050,note_on,90,0,2,,,,,,,,,0,,,76,0
112060,note_on,0,0,1,,,,,,,,,0,,,80,0
112060,note_on,220,0,1,,,,,,,,,0,,,88,0
112080,note_on,0,0,1,,,,,,,,,0,,,80,41
112080,note_on,20,0,1,,,,,,,,,0,,,83,47
112198,note_on,0,0,1,,,,,,,,,0,,,83,0
112198,note_on,118,0,1,,,,,,,,,0,,,80,0
112200,note_on,0,0,1,,,,,,,,,0,,,81,42
112200,note_on,2,0,1,,,,,,,,,0,,,78,38
112200,set_tempo,360,1,0,,,,,,510638,,,,,,,
112318,note_on,118,0,1,,,,,,,,,0,,,81,0
112318,note_on,0,0,1,,,,,,,,,0,,,78,0
112320,note_on,0,0,1,,,,,,,,,0,,,80,50
112320,set_tempo,120,1,0,,,,,,500000,,,,,,,
112320,note_on,270,0,2,,,,,,,,,0,,,64,38
112320,note_on,2,0,1,,,,,,,,,0,,,76,45
112320,note_on,0,0,2,,,,,,,,,0,,,71,38
112410,note_on,0,0,2,,,,,,,,,0,,,64,0
112410,note_on,90,0,2,,,,,,,,,0,,,71,0
112440,note_on,30,0,2,,,,,,,,,0,,,64,36
112440,note_on,0,0,2,,,,,,,,,0,,,71,36
112530,note_on,90,0,2,,,,,,,,,0,,,71,0
112530,note_on,0,0,2,,,,,,,,,0,,,64,0
112540,note_on,0,0,1,,,,,,,,,0,,,76,0
112540,note_on,220,0,1,,,,,,,,,0,,,80,0
112560,note_on,0,0,1,,,,,,,,,0,,,80,42
112560,note_on,20,0,1,,,,,,,,,0,,,76,38
112678,note_on,118,0,1,,,,,,,,,0,,,80,0
112678,note_on,0,0,1,,,,,,,,,0,,,76,0
112680,note_on,0,0,1,,,,,,,,,0,,,78,42
112680,note_on,2,0,1,,,,,,,,,0,,,71,38
112680,set_tempo,360,1,0,,,,,,519481,,,,,,,
112798,note_on,0,0,1,,,,,,,,,0,,,71,0
112798,note_on,118,0,1,,,,,,,,,0,,,78,0
112800,note_on,0,0,1,,,,,,,,,0,,,76,47
112800,set_tempo,120,1,0,,,,,,510638,,,,,,,
112800,note_on,2,0,1,,,,,,,,,0,,,68,41
112800,note_on,0,0,2,,,,,,,,,0,,,64,38
112800,note_on,270,0,2,,,,,,,,,0,,,59,38
112890,note_on,0,0,2,,,,,,,,,0,,,59,0
112890,note_on,90,0,2,,,,,,,,,0,,,64,0
112920,note_on,30,0,2,,,,,,,,,0,,,59,36
112920,note_on,0,0,2,,,,,,,,,0,,,64,36
113010,note_on,90,0,2,,,,,,,,,0,,,64,0
113010,note_on,0,0,2,,,,,,,,,0,,,59,0
113020,note_on,0,0,1,,,,,,,,,0,,,68,0
113020,note_on,220,0,1,,,,,,,,,0,,,76,0
113040,note_on,20,0,1,,,,,,,,,0,,,68,41
113040,note_on,0,0,1,,,,,,,,,0,,,76,47
113158,note_on,0,0,1,,,,,,,,,0,,,68,0
113158,note_on,118,0,1,,,,,,,,,0,,,76,0
113160,note_on,2,0,1,,,,,,,,,0,,,71,38
113160,note_on,0,0,1,,,,,,,,,0,,,78,42
113160,set_tempo,360,1,0,,,,,,521739,,,,,,,
113278,note_on,0,0,1,,,,,,,,,0,,,71,0
113278,note_on,118,0,1,,,,,,,,,0,,,78,0
113280,note_on,0,0,2,,,,,,,,,0,,,59,39
113280,note_on,0,0,1,,,,,,,,,0,,,80,50
113280,note_on,2,0,1,,,,,,,,,0,,,76,45
113280,set_tempo,120,1,0,,,,,,510638,,,,,,,
113280,note_on,270,0,2,,,,,,,,,0,,,52,39
113370,note_on,90,0,2,,,,,,,,,0,,,59,0
113370,note_on,0,0,2,,,,,,,,,0,,,52,0
113400,note_on,30,0,2,,,,,,,,,0,,,52,36
113400,note_on,0,0,2,,,,,,,,,0,,,59,36
113490,note_on,90,0,2,,,,,,,,,0,,,59,0
113490,note_on,0,0,2,,,,,,,,,0,,,52,0
113500,note_on,0,0,1,,,,,,,,,0,,,76,0
113500,note_on,220,0,1,,,,,,,,,0,,,80,0
113520,note_on,0,0,1,,,,,,,,,0,,,81,49
113520,note_on,20,0,1,,,,,,,,,0,,,78,44
113520,set_tempo,240,1,0,,,,,,521739,,,,,,,
113638,note_on,118,0,1,,,,,,,,,0,,,81,0
113638,note_on,0,0,1,,,,,,,,,0,,,78,0
113640,note_on,2,0,1,,,,,,,,,0,,,76,39
113640,set_tempo,120,1,0,,,,,,538117,,,,,,,
113640,note_on,0,0,1,,,,,,,,,0,,,80,45
113758,note_on,0,0,1,,,,,,,,,0,,,76,0
113758,note_on,118,0,1,,,,,,,,,0,,,80,0
113760,set_tempo,120,1,0,,,,,,519481,,,,,,,
113760,note_on,0,0,2,,,,,,,,,0,,,59,38
113760,note_on,0,0,1,,,,,,,,,0,,,78,46
113760,note_on,2,0,1,,,,,,,,,0,,,71,40
113760,note_on,270,0,2,,,,,,,,,0,,,63,38
113850,note_on,90,0,2,,,,,,,,,0,,,59,0
113850,note_on,0,0,2,,,,,,,,,0,,,63,0
113880,note_on,30,0,2,,,,,,,,,0,,,59,37
113880,note_on,0,0,2,,,,,,,,,0,,,63,37
113970,note_on,90,0,2,,,,,,,,,0,,,63,0
113970,note_on,0,0,2,,,,,,,,,0,,,59,0
113980,note_on,0,0,1,,,,,,,,,0,,,71,0
113980,note_on,220,0,1,,,,,,,,,0,,,78,0
114000,note_on,0,0,1,,,,,,,,,0,,,80,50
114000,set_tempo,240,1,0,,,,,,530973,,,,,,,
114000,note_on,20,0,1,,,,,,,,,0,,,76,45
114118,note_on,118,0,1,,,,,,,,,0,,,80,0
114118,note_on,0,0,1,,,,,,,,,0,,,76,0
114120,set_tempo,120,1,0,,,,,,545455,,,,,,,
114120,note_on,2,0,1,,,,,,,,,0,,,71,37
114120,note_on,0,0,1,,,,,,,,,0,,,78,41
114238,note_on,118,0,1,,,,,,,,,0,,,78,0
114238,note_on,0,0,1,,,,,,,,,0,,,71,0
114240,note_on,2,0,1,,,,,,,,,0,,,68,39
114240,note_on,0,0,2,,,,,,,,,0,,,52,50
114240,set_tempo,120,1,0,,,,,,538117,,,,,,,
114240,note_on,0,0,1,,,,,,,,,0,,,76,44
114240,note_on,270,0,2,,,,,,,,,0,,,59,50
114330,note_on,90,0,2,,,,,,,,,0,,,52,0
114330,note_on,0,0,2,,,,,,,,,0,,,59,0
114360,note_on,30,0,2,,,,,,,,,0,,,59,48
114360,set_tempo,120,1,0,,,,,,510638,,,,,,,
114360,note_on,0,0,2,,,,,,,,,0,,,52,48
114450,note_on,0,0,2,,,,,,,,,0,,,59,0
114450,note_on,90,0,2,,,,,,,,,0,,,52,0
114480,note_on,30,0,2,,,,,,,,,0,,,64,53
114480,set_tempo,120,1,0,,,,,,497925,,,,,,,
114570,note_on,90,0,2,,,,,,,,,0,,,64,0
114600,note_on,30,0,2,,,,,,,,,0,,,64,50
114600,set_tempo,120,1,0,,,,,,512821,,,,,,,
114690,note_on,90,0,2,,,,,,,,,0,,,64,0
114720,note_on,480,0,1,,,,,,,,,0,,,76,0
114720,set_tempo,120,1,0,,,,,,526316,,,,,,,
114720,note_on,0,0,1,,,,,,,,,0,,,68,0
114720,note_on,30,0,2,,,,,,,,,0,,,71,59
114960,note_on,0,0,1,,,,,,,,,0,,,64,67
114960,set_tempo,240,1,0,,,,,,498380,,,,,,,
114960,note_on,240,0,2,,,,,,,,,0,,,71,0
114960,note_on,240,0,1,,,,,,,,,0,,,56,59
115018,note_on,0,0,1,,,,,,,,,0,,,56,0
115018,note_on,58,0,1,,,,,,,,,0,,,64,0
115080,set_tempo,120,1,0,,,,,,531632,,,,,,,
115080,note_on,0,0,1,,,,,,,,,0,,,68,63
115080,note_on,62,0,1,,,,,,,,,0,,,64,57
115138,note_on,0,0,1,,,,,,,,,0,,,64,0
115138,note_on,58,0,1,,,,,,,,,0,,,68,0
115200,note_on,0,0,1,,,,,,,,,0,,,66,73
115200,set_tempo,120,1,0,,,,,,519031,,,,,,,
115200,note_on,62,0,1,,,,,,,,,0,,,59,66
115420,note_on,0,0,1,,,,,,,,,0,,,59,0
115420,note_on,220,0,1,,,,,,,,,0,,,66,0
115440,set_tempo,240,1,0,,,,,,489796,,,,,,,
115440,note_on,20,0,1,,,,,,,,,0,,,64,59
115440,note_on,0,0,1,,,,,,,,,0,,,68,67
115498,note_on,58,0,1,,,,,,,,,0,,,68,0
115498,note_on,0,0,1,,,,,,,,,0,,,64,0
115560,note_on,62,0,1,,,,,,,,,0,,,66,56
115560,set_tempo,120,1,0,,,,,,506329,,,,,,,
115560,note_on,0,0,1,,,,,,,,,0,,,69,62
115618,note_on,0,0,1,,,,,,,,,0,,,66,0
115618,note_on,58,0,1,,,,,,,,,0,,,69,0
115680,note_on,62,0,1,,,,,,,,,0,,,68,63
115680,set_tempo,120,1,0,,,,,,512996,,,,,,,
115680,note_on,0,0,1,,,,,,,,,0,,,71,71
115900,note_on,220,0,1,,,,,,,,,0,,,71,0
115900,note_on,0,0,1,,,,,,,,,0,,,68,0
115920,note_on,20,0,1,,,,,,,,,0,,,69,61
115920,note_on,0,0,1,,,,,,,,,0,,,73,69
115920,set_tempo,240,1,0,,,,,,487805,,,,,,,
115978,note_on,0,0,1,,,,,,,,,0,,,69,0
115978,note_on,58,0,1,,,,,,,,,0,,,73,0
116040,note_on,0,0,1,,,,,,,,,0,,,71,64
116040,set_tempo,120,1,0,,,,,,506329,,,,,,,
116040,note_on,62,0,1,,,,,,,,,0,,,68,58
116098,note_on,58,0,1,,,,,,,,,0,,,71,0
116098,note_on,0,0,1,,,,,,,,,0,,,68,0
116160,note_on,0,0,1,,,,,,,,,0,,,69,74
116160,set_tempo,120,1,0,,,,,,522148,,,,,,,
116160,note_on,62,0,1,,,,,,,,,0,,,66,67
116380,note_on,0,0,1,,,,,,,,,0,,,66,0
116380,note_on,220,0,1,,,,,,,,,0,,,69,0
116400,note_on,0,0,1,,,,,,,,,0,,,68,68
116400,note_on,20,0,1,,,,,,,,,0,,,64,60
116400,set_tempo,240,1,0,,,,,,487805,,,,,,,
116458,note_on,0,0,1,,,,,,,,,0,,,64,0
116458,note_on,58,0,1,,,,,,,,,0,,,68,0
116520,set_tempo,120,1,0,,,,,,510638,,,,,,,
116520,note_on,62,0,1,,,,,,,,,0,,,66,60
116520,note_on,0,0,1,,,,,,,,,0,,,69,68
116578,note_on,0,0,1,,,,,,,,,0,,,66,0
116578,note_on,58,0,1,,,,,,,,,0,,,69,0
116640,note_on,62,0,1,,,,,,,,,0,,,59,67
116640,set_tempo,120,1,0,,,,,,522148,,,,,,,
116640,note_on,0,0,1,,,,,,,,,0,,,66,74
116860,note_on,220,0,1,,,,,,,,,0,,,66,0
116860,note_on,0,0,1,,,,,,,,,0,,,59,0
116860,set_tempo,220,1,0,,,,,,489996,,,,,,,
116880,note_on,20,0,1,,,,,,,,,0,,,56,59
116880,set_tempo,20,1,0,,,,,,504202,,,,,,,
116880,note_on,0,0,1,,,,,,,,,0,,,64,67
116938,note_on,58,0,1,,,,,,,,,0,,,64,0
116938,note_on,0,0,1,,,,,,,,,0,,,56,0
117000,note_on,0,0,1,,,,,,,,,0,,,68,62
117000,note_on,62,0,1,,,,,,,,,0,,,64,56
117000,set_tempo,120,1,0,,,,,,519031,,,,,,,
117058,note_on,58,0,1,,,,,,,,,0,,,68,0
117058,note_on,0,0,1,,,,,,,,,0,,,64,0
117120,set_tempo,120,1,0,,,,,,528448,,,,,,,
117120,note_on,62,0,1,,,,,,,,,0,,,59,66
117120,note_on,0,0,1,,,,,,,,,0,,,66,73
117340,note_on,0,0,1,,,,,,,,,0,,,59,0
117340,note_on,220,0,1,,,,,,,,,0,,,66,0
117360,set_tempo,240,1,0,,,,,,500000,,,,,,,
117360,note_on,0,0,1,,,,,,,,,0,,,68,67
117360,note_on,20,0,1,,,,,,,,,0,,,64,59
117418,note_on,58,0,1,,,,,,,,,0,,,68,0
117418,note_on,0,0,1,,,,,,,,,0,,,64,0
117480,note_on,0,0,1,,,,,,,,,0,,,69,61
117480,note_on,62,0,1,,,,,,,,,0,,,66,55
117480,set_tempo,120,1,0,,,,,,528634,,,,,,,
117538,note_on,0,0,1,,,,,,,,,0,,,66,0
117538,note_on,58,0,1,,,,,,,,,0,,,69,0
117600,set_tempo,120,1,0,,,,,,515021,,,,,,,
117600,note_on,62,0,1,,,,,,,,,0,,,68,63
117600,note_on,0,0,1,,,,,,,,,0,,,71,71
117820,note_on,0,0,1,,,,,,,,,0,,,68,0
117820,note_on,220,0,1,,,,,,,,,0,,,71,0
117840,set_tempo,240,1,0,,,,,,502092,,,,,,,
117840,note_on,20,0,1,,,,,,,,,0,,,69,63
117840,note_on,0,0,1,,,,,,,,,0,,,73,71
117898,note_on,58,0,1,,,,,,,,,0,,,73,0
117898,note_on,0,0,1,,,,,,,,,0,,,69,0
117960,note_on,62,0,1,,,,,,,,,0,,,68,59
117960,note_on,0,0,1,,,,,,,,,0,,,71,67
117960,set_tempo,120,1,0,,,,,,525210,,,,,,,
118018,note_on,58,0,1,,,,,,,,,0,,,71,0
118018,note_on,0,0,1,,,,,,,,,0,,,68,0
118080,note_on,62,0,1,,,,,,,,,0,,,66,67
118080,set_tempo,120,1,0,,,,,,759494,,,,,,,
118080,note_on,0,0,1,,,,,,,,,0,,,69,74
118300,note_on,220,0,1,,,,,,,,,0,,,69,0
118300,note_on,0,0,1,,,,,,,,,0,,,66,0
118320,note_on,20,0,1,,,,,,,,,0,,,64,59
118320,set_tempo,240,1,0,,,,,,1034483,,,,,,,
118320,note_on,0,0,1,,,,,,,,,0,,,68,67
118378,note_on,0,0,1,,,,,,,,,0,,,64,0
118378,note_on,58,0,1,,,,,,,,,0,,,68,0
118440,note_on,0,0,1,,,,,,,,,0,,,69,62
118440,note_on,62,0,1,,,,,,,,,0,,,66,56
118440,set_tempo,120,1,0,,,,,,1212121,,,,,,,
118498,note_on,0,0,1,,,,,,,,,0,,,66,0
118498,note_on,58,0,1,,,,,,,,,0,,,69,0
118560,note_on,62,0,1,,,,,,,,,0,,,59,58
118560,note_on,0,0,1,,,,,,,,,0,,,66,64
118560,set_tempo,120,1,0,,,,,,1566989,,,,,,,
118740,note_on,180,0,1,,,,,,,,,0,,,66,0
118740,note_on,0,0,1,,,,,,,,,0,,,59,0
118800,note_on,0,0,1,,,,,,,,,0,,,95,48
118800,note_on,60,0,1,,,,,,,,,0,,,92,42
118800,set_tempo,240,1,0,,,,,,502092,,,,,,,
118918,note_on,0,0,1,,,,,,,,,0,,,92,0
118918,note_on,118,0,1,,,,,,,,,0,,,95,0
118920,note_on,2,0,1,,,,,,,,,0,,,90,39
118920,note_on,0,0,1,,,,,,,,,0,,,93,45
119038,note_on,118,0,1,,,,,,,,,0,,,93,0
119038,note_on,0,0,1,,,,,,,,,0,,,90,0
119040,set_tempo,240,1,0,,,,,,495868,,,,,,,
119040,note_on,0,0,2,,,,,,,,,0,,,76,38
119040,note_on,2,0,1,,,,,,,,,0,,,88,47
119040,note_on,4080,0,2,,,,,,,,,0,,,83,38
119040,note_on,0,0,1,,,,,,,,,0,,,92,52
119130,note_on,90,0,2,,,,,,,,,0,,,76,0
119130,note_on,0,0,2,,,,,,,,,0,,,83,0
119160,note_on,0,0,2,,,,,,,,,0,,,83,36
119160,note_on,30,0,2,,,,,,,,,0,,,76,36
119250,note_on,90,0,2,,,,,,,,,0,,,83,0
119250,note_on,0,0,2,,,,,,,,,0,,,76,0
119260,note_on,220,0,1,,,,,,,,,0,,,92,0
119260,note_on,0,0,1,,,,,,,,,0,,,88,0
119280,note_on,0,0,1,,,,,,,,,0,,,92,42
119280,note_on,20,0,1,,,,,,,,,0,,,88,38
119398,note_on,118,0,1,,,,,,,,,0,,,92,0
119398,note_on,0,0,1,,,,,,,,,0,,,88,0
119400,note_on,0,0,1,,,,,,,,,0,,,90,39
119400,note_on,2,0,1,,,,,,,,,0,,,83,35
119400,set_tempo,360,1,0,,,,,,508475,,,,,,,
119518,note_on,0,0,1,,,,,,,,,0,,,83,0
119518,note_on,118,0,1,,,,,,,,,0,,,90,0
119520,note_on,2,0,1,,,,,,,,,0,,,80,40
119520,note_on,0,0,2,,,,,,,,,0,,,76,38
119520,note_on,270,0,2,,,,,,,,,0,,,71,38
119520,set_tempo,120,1,0,,,,,,495868,,,,,,,
119520,note_on,0,0,1,,,,,,,,,0,,,88,46
119610,note_on,90,0,2,,,,,,,,,0,,,76,0
119610,note_on,0,0,2,,,,,,,,,0,,,71,0
119640,note_on,30,0,2,,,,,,,,,0,,,71,35
119640,note_on,0,0,2,,,,,,,,,0,,,76,35
119730,note_on,90,0,2,,,,,,,,,0,,,76,0
119730,note_on,0,0,2,,,,,,,,,0,,,71,0
119740,note_on,220,0,1,,,,,,,,,0,,,88,0
119740,note_on,0,0,1,,,,,,,,,0,,,80,0
119760,note_on,0,0,1,,,,,,,,,0,,,80,41
119760,note_on,20,0,1,,,,,,,,,0,,,83,47
119878,note_on,0,0,1,,,,,,,,,0,,,83,0
119878,note_on,118,0,1,,,,,,,,,0,,,80,0
119880,note_on,0,0,1,,,,,,,,,0,,,81,44
119880,set_tempo,360,1,0,,,,,,506329,,,,,,,
119880,note_on,2,0,1,,,,,,,,,0,,,78,39
119998,note_on,118,0,1,,,,,,,,,0,,,81,0
119998,note_on,0,0,1,,,,,,,,,0,,,78,0
120000,note_on,0,0,2,,,,,,,,,0,,,71,38
120000,set_tempo,120,1,0,,,,,,495868,,,,,,,
120000,note_on,2,0,1,,,,,,,,,0,,,76,45
120000,note_on,0,0,1,,,,,,,,,0,,,80,50
120000,note_on,270,0,2,,,,,,,,,0,,,64,38
120090,note_on,90,0,2,,,,,,,,,0,,,71,0
120090,note_on,0,0,2,,,,,,,,,0,,,64,0
120120,note_on,0,0,2,,,,,,,,,0,,,71,35
120120,note_on,30,0,2,,,,,,,,,0,,,64,35
120210,note_on,90,0,2,,,,,,,,,0,,,71,0
120210,note_on,0,0,2,,,,,,,,,0,,,64,0
120220,note_on,0,0,1,,,,,,,,,0,,,76,0
120220,note_on,220,0,1,,,,,,,,,0,,,80,0
120240,note_on,0,0,1,,,,,,,,,0,,,80,42
120240,note_on,20,0,1,,,,,,,,,0,,,76,38
120358,note_on,118,0,1,,,,,,,,,0,,,80,0
120358,note_on,0,0,1,,,,,,,,,0,,,76,0
120360,set_tempo,360,1,0,,,,,,519481,,,,,,,
120360,note_on,2,0,1,,,,,,,,,0,,,71,35
120360,note_on,0,0,1,,,,,,,,,0,,,78,39
120478,note_on,0,0,1,,,,,,,,,0,,,71,0
120478,note_on,118,0,1,,,,,,,,,0,,,78,0
120480,note_on,2,0,1,,,,,,,,,0,,,68,41
120480,note_on,0,0,1,,,,,,,,,0,,,76,47
120480,note_on,270,0,2,,,,,,,,,0,,,59,38
120480,set_tempo,120,1,0,,,,,,510638,,,,,,,
120480,note_on,0,0,2,,,,,,,,,0,,,64,38
120570,note_on,0,0,2,,,,,,,,,0,,,59,0
120570,note_on,90,0,2,,,,,,,,,0,,,64,0
120600,note_on,30,0,2,,,,,,,,,0,,,59,36
120600,note_on,0,0,2,,,,,,,,,0,,,64,36
120690,note_on,0,0,2,,,,,,,,,0,,,59,0
120690,note_on,90,0,2,,,,,,,,,0,,,64,0
120700,note_on,220,0,1,,,,,,,,,0,,,76,0
120700,note_on,0,0,1,,,,,,,,,0,,,68,0
120720,note_on,20,0,1,,,,,,,,,0,,,56,41
120720,note_on,0,0,1,,,,,,,,,0,,,64,47
120838,note_on,118,0,1,,,,,,,,,0,,,64,0
120838,note_on,0,0,1,,,,,,,,,0,,,56,0
120840,note_on,2,0,1,,,,,,,,,0,,,59,39
120840,set_tempo,360,1,0,,,,,,521739,,,,,,,
120840,note_on,0,0,1,,,,,,,,,0,,,66,44
120958,note_on,118,0,1,,,,,,,,,0,,,66,0
120958,note_on,0,0,1,,,,,,,,,0,,,59,0
120960,note_on,0,0,1,,,,,,,,,0,,,68,50
120960,note_on,2,0,1,,,,,,,,,0,,,64,45
120960,note_on,270,0,2,,,,,,,,,0,,,52,38
120960,note_on,0,0,2,,,,,,,,,0,,,59,38
120960,set_tempo,120,1,0,,,,,,528634,,,,,,,
121050,note_on,90,0,2,,,,,,,,,0,,,59,0
121050,note_on,0,0,2,,,,,,,,,0,,,52,0
121080,note_on,0,0,2,,,,,,,,,0,,,59,36
121080,note_on,30,0,2,,,,,,,,,0,,,52,36
121170,note_on,0,0,2,,,,,,,,,0,,,52,0
121170,note_on,90,0,2,,,,,,,,,0,,,59,0
121190,note_on,230,0,1,,,,,,,,,0,,,68,0
121190,note_on,0,0,1,,,,,,,,,0,,,64,0
121200,set_tempo,240,1,0,,,,,,521739,,,,,,,
121200,note_on,10,0,1,,,,,,,,,0,,,66,44
121200,note_on,0,0,1,,,,,,,,,0,,,69,49
121318,note_on,0,0,1,,,,,,,,,0,,,66,0
121318,note_on,118,0,1,,,,,,,,,0,,,69,0
121320,note_on,0,0,1,,,,,,,,,0,,,68,45
121320,set_tempo,120,1,0,,,,,,538117,,,,,,,
121320,note_on,2,0,1,,,,,,,,,0,,,64,39
121438,note_on,118,0,1,,,,,,,,,0,,,68,0
121438,note_on,0,0,1,,,,,,,,,0,,,64,0
121440,note_on,0,0,1,,,,,,,,,0,,,66,46
121440,note_on,270,0,2,,,,,,,,,0,,,51,38
121440,set_tempo,120,1,0,,,,,,526316,,,,,,,
121440,note_on,2,0,1,,,,,,,,,0,,,59,40
121440,note_on,0,0,2,,,,,,,,,0,,,47,38
121530,note_on,0,0,2,,,,,,,,,0,,,51,0
121530,note_on,90,0,2,,,,,,,,,0,,,47,0
121560,note_on,30,0,2,,,,,,,,,0,,,47,36
121560,note_on,0,0,2,,,,,,,,,0,,,51,36
121650,note_on,90,0,2,,,,,,,,,0,,,51,0
121650,note_on,0,0,2,,,,,,,,,0,,,47,0
121670,note_on,0,0,1,,,,,,,,,0,,,59,0
121670,note_on,230,0,1,,,,,,,,,0,,,66,0
121680,note_on,0,0,1,,,,,,,,,0,,,68,50
121680,note_on,10,0,1,,,,,,,,,0,,,64,45
121680,set_tempo,240,1,0,,,,,,530973,,,,,,,
121798,note_on,118,0,1,,,,,,,,,0,,,68,0
121798,note_on,0,0,1,,,,,,,,,0,,,64,0
121800,note_on,0,0,1,,,,,,,,,0,,,66,41
121800,set_tempo,120,1,0,,,,,,545455,,,,,,,
121800,note_on,2,0,1,,,,,,,,,0,,,59,37
121918,note_on,118,0,1,,,,,,,,,0,,,66,0
121918,note_on,0,0,1,,,,,,,,,0,,,59,0
121920,note_on,2,0,1,,,,,,,,,0,,,56,39
121920,note_on,0,0,2,,,,,,,,,0,,,40,41
121920,note_on,0,0,1,,,,,,,,,0,,,64,44
121920,note_on,270,0,2,,,,,,,,,0,,,47,41
121920,set_tempo,120,1,0,,,,,,552995,,,,,,,
122010,note_on,90,0,2,,,,,,,,,0,,,40,0
122010,note_on,0,0,2,,,,,,,,,0,,,47,0
122040,note_on,30,0,2,,,,,,,,,0,,,40,39
122040,note_on,0,0,2,,,,,,,,,0,,,47,39
122130,note_on,90,0,2,,,,,,,,,0,,,47,0
122130,note_on,0,0,2,,,,,,,,,0,,,40,0
122160,note_on,30,0,2,,,,,,,,,0,,,40,41
122160,note_on,0,0,2,,,,,,,,,0,,,47,41
122400,note_on,0,0,1,,,,,,,,,0,,,56,0
122400,note_on,0,0,1,,,,,,,,,0,,,59,38
122400,note_on,0,0,1,,,,,,,,,0,,,66,42
122400,set_tempo,480,1,0,,,,,,535714,,,,,,,
122400,note_on,240,0,2,,,,,,,,,0,,,47,0
122400,note_on,480,0,1,,,,,,,,,0,,,64,0
122400,note_on,0,0,2,,,,,,,,,0,,,40,0
122620,set_tempo,220,1,0,,,,,,560748,,,,,,,
122630,note_on,0,0,1,,,,,,,,,0,,,59,0
122630,note_on,230,0,1,,,,,,,,,0,,,66,0
122640,note_on,10,0,1,,,,,,,,,0,,,64,41
122640,note_on,0,0,1,,,,,,,,,0,,,68,47
122640,set_tempo,20,1,0,,,,,,558140,,,,,,,
122758,note_on,118,0,1,,,,,,,,,0,,,68,0
122758,note_on,0,0,1,,,,,,,,,0,,,64,0
122760,set_tempo,120,1,0,,,,,,571429,,,,,,,
122760,note_on,2,0,1,,,,,,,,,0,,,59,36
122760,note_on,0,0,1,,,,,,,,,0,,,66,40
122878,note_on,0,0,1,,,,,,,,,0,,,59,0
122878,note_on,118,0,1,,,,,,,,,0,,,66,0
122880,note_on,0,0,2,,,,,,,,,0,,,40,39
122880,note_on,480,0,2,,,,,,,,,0,,,47,39
122880,note_on,0,0,1,,,,,,,,,0,,,64,41
122880,note_on,2,0,1,,,,,,,,,0,,,56,37
122880,set_tempo,120,1,0,,,,,,634921,,,,,,,
122970,note_on,90,0,2,,,,,,,,,0,,,40,0
122970,note_on,0,0,2,,,,,,,,,0,,,47,0
123000,note_on,30,0,2,,,,,,,,,0,,,40,37
123000,note_on,0,0,2,,,,,,,,,0,,,47,37
123090,note_on,90,0,2,,,,,,,,,0,,,47,0
123090,note_on,0,0,2,,,,,,,,,0,,,40,0
123120,note_on,30,0,2,,,,,,,,,0,,,40,39
123120,note_on,0,0,2,,,,,,,,,0,,,47,39
123360,note_on,480,0,1,,,,,,,,,0,,,64,0
123360,note_on,240,0,2,,,,,,,,,0,,,47,0
123360,set_tempo,480,1,0,,,,,,784314,,,,,,,
123360,note_on,0,0,1,,,,,,,,,0,,,59,33
123360,note_on,0,0,1,,,,,,,,,0,,,56,0
123360,note_on,0,0,2,,,,,,,,,0,,,40,0
123360,note_on,0,0,1,,,,,,,,,0,,,66,37
123590,note_on,0,0,1,,,,,,,,,0,,,59,0
123590,note_on,230,0,1,,,,,,,,,0,,,66,0
123600,set_tempo,240,1,0,,,,,,983607,,,,,,,
123600,note_on,0,0,1,,,,,,,,,0,,,68,38
123600,note_on,10,0,1,,,,,,,,,0,,,64,34
123718,note_on,0,0,1,,,,,,,,,0,,,64,0
123718,note_on,118,0,1,,,,,,,,,0,,,68,0
123720,note_on,0,0,1,,,,,,,,,0,,,66,34
123720,set_tempo,120,1,0,,,,,,1165049,,,,,,,
123720,note_on,2,0,1,,,,,,,,,0,,,59,29
123838,note_on,118,0,1,,,,,,,,,0,,,66,0
123838,note_on,0,0,1,,,,,,,,,0,,,59,0
123840,set_tempo,120,1,0,,,,,,1445783,,,,,,,
123840,note_on,0,0,1,,,,,,,,,0,,,64,35
123840,note_on,2,0,1,,,,,,,,,0,,,56,30
124080,note_on,0,0,1,,,,,,,,,0,,,56,0
124080,note_on,240,0,1,,,,,,,,,0,,,64,0
124200,note_on,840,0,2,,,,,,,,,0,,,40,82
124200,note_on,0,0,1,,,,,,,,,0,,,76,88
124200,note_on,0,0,1,,,,,,,,,0,,,68,79
124200,note_on,0,0,2,,,,,,,,,0,,,47,82
124200,note_on,0,0,2,,,,,,,,,0,,,52,82
124200,note_on,120,0,1,,,,,,,,,0,,,64,79
124200,set_tempo,360,1,0,,,,,,493827,,,,,,,
124318,note_on,0,0,2,,,,,,,,,0,,,40,0
124318,note_on,118,0,1,,,,,,,,,0,,,76,0
124318,note_on,118,0,2,,,,,,,,,0,,,52,0
124318,note_on,0,0,1,,,,,,,,,0,,,68,0
124318,note_on,0,0,1,,,,,,,,,0,,,64,0
124318,note_on,0,0,2,,,,,,,,,0,,,47,0
124320,note_on,0,0,2,,,,,,,,,0,,,47,86
124320,end_of_track,0,1,0,,,,,,,,,,,,,
124320,set_tempo,120,1,0,,,,,,2448980,,,,,,,
124320,note_on,0,0,2,,,,,,,,,0,,,52,86
124320,note_on,2,0,1,,,,,,,,,0,,,64,83
124320,note_on,2,0,2,,,,,,,,,0,,,40,86
124320,note_on,0,0,1,,,,,,,,,0,,,76,93
124320,note_on,0,0,1,,,,,,,,,0,,,68,83
124560,end_of_track,0,1,1,,,,,,,,,,,,,
124560,end_of_track,0,1,2,,,,,,,,,,,,,
124560,note_on,240,0,2,,,,,,,,,0,,,52,0
124560,note_on,0,0,1,,,,,,,,,0,,,68,0
124560,note_on,240,0,1,,,,,,,,,0,,,76,0
124560,note_on,0,0,2,,,,,,,,,0,,,47,0
124560,note_on,0,0,1,,,,,,,,,0,,,64,0
124560,note_on,0,0,2,,,,,,,,,0,,,40,0
