tick,type,time,meta,track,numerator,denominator,clocks_per_click,notated_32nd_notes_per_beat,key,tempo,port,program,channel,control,value,note,velocity
0,control_change,0,0,1,,,,,,,,,0,7,100,,
0,track_name,0,1,6,,,,,,,,,,,,,
0,midi_port,0,1,7,,,,,,,0,,,,,,
0,midi_port,0,1,6,,,,,,,0,,,,,,
0,midi_port,0,1,5,,,,,,,0,,,,,,
0,midi_port,0,1,4,,,,,,,0,,,,,,
0,midi_port,0,1,3,,,,,,,0,,,,,,
0,program_change,0,0,1,,,,,,,,0,0,,,,
0,midi_port,0,1,2,,,,,,,0,,,,,,
0,marker,0,1,0,,,,,,,,,,,,,
0,key_signature,0,1,0,,,,,Eb,,,,,,,,
0,end_of_track,0,1,7,,,,,,,,,,,,,
0,end_of_track,0,1,6,,,,,,,,,,,,,
0,end_of_track,0,1,5,,,,,,,,,,,,,
0,end_of_track,0,1,4,,,,,,,,,,,,,
0,midi_port,0,1,1,,,,,,,0,,,,,,
0,program_change,0,0,2,,,,,,,,0,0,,,,
0,set_tempo,0,1,0,,,,,,600000,,,,,,,
0,text,0,1,0,,,,,,,,,,,,,
0,track_name,0,1,5,,,,,,,,,,,,,
0,track_name,0,1,4,,,,,,,,,,,,,
0,track_name,0,1,3,,,,,,,,,,,,,
0,track_name,0,1,2,,,,,,,,,,,,,
0,track_name,0,1,1,,,,,,,,,,,,,
0,track_name,0,1,0,,,,,,,,,,,,,
0,time_signature,0,1,0,4,4,24,8,,,,,,,,,
0,text,0,1,1,,,,,,,,,,,,,
0,text,0,1,0,,,,,,,,,,,,,
0,text,0,1,0,,,,,,,,,,,,,
0,text,0,1,0,,,,,,,,,,,,,
0,text,0,1,0,,,,,,,,,,,,,
0,text,0,1,0,,,,,,,,,,,,,
0,text,0,1,0,,,,,,,,,,,,,
0,text,0,1,0,,,,,,,,,,,,,
0,end_of_track,0,1,3,,,,,,,,,,,,,
0,copyright,0,1,0,,,,,,,,,,,,,
0,track_name,0,1,7,,,,,,,,,,,,,
0,control_change,0,0,1,,,,,,,,,0,91,127,,
0,control_change,0,0,2,,,,,,,,,0,7,100,,
0,control_change,0,0,2,,,,,,,,,0,64,0,,
1840,control_change,0,0,1,,,,,,,,,0,91,127,,
1840,control_change,0,0,2,,,,,,,,,0,91,127,,
1840,control_change,1840,0,2,,,,,,,,,0,64,0,,
1840,control_change,1840,0,1,,,,,,,,,0,64,0,,
1860,note_on,20,0,1,,,,,,,,,0,,,63,79
1860,set_tempo,1860,1,0,,,,,,794702,,,,,,,
1910,note_on,50,0,1,,,,,,,,,0,,,63,0
1920,note_on,10,0,1,,,,,,,,,0,,,63,83
1920,set_tempo,60,1,0,,,,,,794702,,,,,,,
3770,note_on,1850,0,1,,,,,,,,,0,,,63,0
3780,note_on,10,0,1,,,,,,,,,0,,,68,74
3780,note_on,1940,0,2,,,,,,,,,0,,,63,64
3780,note_on,0,0,1,,,,,,,,,0,,,60,63
3780,note_on,0,0,1,,,,,,,,,0,,,66,63
3830,note_on,50,0,1,,,,,,,,,0,,,60,0
3830,note_on,50,0,2,,,,,,,,,0,,,63,0
3830,note_on,0,0,1,,,,,,,,,0,,,68,0
3830,note_on,0,0,1,,,,,,,,,0,,,66,0
3840,note_on,10,0,1,,,,,,,,,0,,,60,66
3840,note_on,0,0,1,,,,,,,,,0,,,68,79
3840,note_on,0,0,1,,,,,,,,,0,,,66,66
3840,note_on,10,0,2,,,,,,,,,0,,,63,66
5690,note_on,0,0,1,,,,,,,,,0,,,60,0
5690,note_on,1850,0,2,,,,,,,,,0,,,63,0
5690,note_on,1850,0,1,,,,,,,,,0,,,68,0
5690,note_on,0,0,1,,,,,,,,,0,,,66,0
5700,note_on,0,0,1,,,,,,,,,0,,,59,63
5700,note_on,10,0,2,,,,,,,,,0,,,63,63
5700,note_on,10,0,1,,,,,,,,,0,,,69,74
5700,note_on,0,0,1,,,,,,,,,0,,,66,63
5750,note_on,50,0,1,,,,,,,,,0,,,59,0
5750,note_on,0,0,1,,,,,,,,,0,,,66,0
5750,note_on,0,0,1,,,,,,,,,0,,,69,0
5750,note_on,50,0,2,,,,,,,,,0,,,63,0
5760,note_on,0,0,1,,,,,,,,,0,,,66,65
5760,note_on,0,0,1,,,,,,,,,0,,,59,65
5760,note_on,10,0,1,,,,,,,,,0,,,69,78
5760,note_on,10,0,2,,,,,,,,,0,,,63,65
5760,set_tempo,3840,1,0,,,,,,851064,,,,,,,
6210,note_on,0,0,1,,,,,,,,,0,,,66,0
6210,note_on,450,0,1,,,,,,,,,0,,,59,0
6210,note_on,0,0,1,,,,,,,,,0,,,69,0
6210,note_on,450,0,2,,,,,,,,,0,,,63,0
6240,note_on,0,0,1,,,,,,,,,0,,,66,67
6240,note_on,30,0,1,,,,,,,,,0,,,59,67
6240,note_on,30,0,2,,,,,,,,,0,,,63,69
6240,set_tempo,480,1,0,,,,,,888889,,,,,,,
6240,note_on,0,0,1,,,,,,,,,0,,,69,80
6690,note_on,0,0,1,,,,,,,,,0,,,69,0
6690,note_on,450,0,1,,,,,,,,,0,,,66,0
6690,note_on,0,0,1,,,,,,,,,0,,,59,0
6690,note_on,450,0,2,,,,,,,,,0,,,63,0
6720,set_tempo,480,1,0,,,,,,916031,,,,,,,
6720,note_on,0,0,1,,,,,,,,,0,,,69,83
6720,note_on,30,0,1,,,,,,,,,0,,,65,71
6720,note_on,30,0,2,,,,,,,,,0,,,62,60
6720,note_on,0,0,2,,,,,,,,,0,,,53,60
7170,note_on,450,0,2,,,,,,,,,0,,,53,0
7170,note_on,0,0,1,,,,,,,,,0,,,65,0
7170,note_on,0,0,2,,,,,,,,,0,,,62,0
7170,note_on,450,0,1,,,,,,,,,0,,,69,0
7200,note_on,30,0,1,,,,,,,,,0,,,63,71
7200,note_on,0,0,1,,,,,,,,,0,,,69,83
7200,note_on,0,0,2,,,,,,,,,0,,,60,72
7200,note_on,30,0,2,,,,,,,,,0,,,53,60
7440,set_tempo,720,1,0,,,,,,1121495,,,,,,,
7460,set_tempo,20,1,0,,,,,,1142857,,,,,,,
7480,set_tempo,20,1,0,,,,,,1165049,,,,,,,
7500,set_tempo,20,1,0,,,,,,1188119,,,,,,,
7520,note_on,320,0,1,,,,,,,,,0,,,69,0
7520,note_on,0,0,2,,,,,,,,,0,,,53,0
7520,note_on,320,0,2,,,,,,,,,0,,,60,0
7520,set_tempo,20,1,0,,,,,,1212121,,,,,,,
7520,note_on,0,0,1,,,,,,,,,0,,,63,0
7529,control_change,9,0,2,,,,,,,,,0,64,127,,
7530,note_on,1,0,2,,,,,,,,,0,,,46,73
7540,set_tempo,20,1,0,,,,,,1237113,,,,,,,
7560,note_on,30,0,2,,,,,,,,,0,,,53,65
7560,set_tempo,20,1,0,,,,,,1263158,,,,,,,
7580,set_tempo,20,1,0,,,,,,1290323,,,,,,,
7590,note_on,30,0,2,,,,,,,,,0,,,58,65
7600,set_tempo,20,1,0,,,,,,1318681,,,,,,,
7620,note_on,100,0,1,,,,,,,,,0,,,62,70
7620,set_tempo,20,1,0,,,,,,1348315,,,,,,,
7627,control_change,7,0,1,,,,,,,,,0,64,127,,
7640,set_tempo,20,1,0,,,,,,1379310,,,,,,,
7650,note_on,23,0,1,,,,,,,,,0,,,65,70
7660,set_tempo,20,1,0,,,,,,1411765,,,,,,,
7680,set_tempo,20,1,0,,,,,,1263158,,,,,,,
7680,note_on,30,0,1,,,,,,,,,0,,,70,80
8640,note_on,960,0,1,,,,,,,,,0,,,70,0
8640,note_on,0,0,1,,,,,,,,,0,,,70,41
8640,note_on,0,0,1,,,,,,,,,0,,,74,46
8640,note_on,0,0,1,,,,,,,,,0,,,65,0
8640,set_tempo,960,1,0,,,,,,1818182,,,,,,,
8640,note_on,0,0,1,,,,,,,,,0,,,62,0
8640,note_on,0,0,2,,,,,,,,,0,,,46,0
8640,note_on,1050,0,2,,,,,,,,,0,,,58,0
8640,note_on,0,0,2,,,,,,,,,0,,,53,0
8672,note_on,32,0,1,,,,,,,,,0,,,74,0
8672,note_on,0,0,1,,,,,,,,,0,,,70,0
8674,note_on,0,0,1,,,,,,,,,0,,,65,41
8674,note_on,2,0,1,,,,,,,,,0,,,62,41
8700,set_tempo,60,1,0,,,,,,1791045,,,,,,,
8706,note_on,32,0,1,,,,,,,,,0,,,65,0
8706,note_on,0,0,1,,,,,,,,,0,,,62,0
8708,note_on,2,0,1,,,,,,,,,0,,,70,41
8708,note_on,0,0,1,,,,,,,,,0,,,74,41
8708,note_on,0,0,1,,,,,,,,,0,,,77,46
8740,note_on,32,0,1,,,,,,,,,0,,,77,0
8740,note_on,0,0,1,,,,,,,,,0,,,70,0
8740,note_on,0,0,1,,,,,,,,,0,,,74,0
8742,note_on,0,0,1,,,,,,,,,0,,,65,41
8742,note_on,2,0,1,,,,,,,,,0,,,70,41
8760,set_tempo,60,1,0,,,,,,1764706,,,,,,,
8774,note_on,0,0,1,,,,,,,,,0,,,70,0
8774,note_on,32,0,1,,,,,,,,,0,,,65,0
8776,note_on,0,0,1,,,,,,,,,0,,,77,41
8776,note_on,0,0,1,,,,,,,,,0,,,74,41
8776,note_on,2,0,1,,,,,,,,,0,,,82,46
8808,note_on,0,0,1,,,,,,,,,0,,,82,0
8808,note_on,0,0,1,,,,,,,,,0,,,74,0
8808,note_on,32,0,1,,,,,,,,,0,,,77,0
8810,note_on,0,0,1,,,,,,,,,0,,,74,41
8810,note_on,2,0,1,,,,,,,,,0,,,70,41
8820,set_tempo,60,1,0,,,,,,1739130,,,,,,,
8840,note_on,0,0,1,,,,,,,,,0,,,70,0
8840,set_tempo,20,1,0,,,,,,1500000,,,,,,,
8840,note_on,30,0,1,,,,,,,,,0,,,74,0
8844,note_on,0,0,1,,,,,,,,,0,,,86,46
8844,note_on,4,0,1,,,,,,,,,0,,,77,41
8844,note_on,0,0,1,,,,,,,,,0,,,82,41
8850,set_tempo,10,1,0,,,,,,1481481,,,,,,,
8860,set_tempo,10,1,0,,,,,,1463415,,,,,,,
8865,set_tempo,5,1,0,,,,,,1445783,,,,,,,
8874,note_on,0,0,1,,,,,,,,,0,,,82,0
8874,note_on,0,0,1,,,,,,,,,0,,,77,0
8874,note_on,30,0,1,,,,,,,,,0,,,86,0
8875,set_tempo,10,1,0,,,,,,1428571,,,,,,,
8878,note_on,4,0,1,,,,,,,,,0,,,74,41
8878,note_on,0,0,1,,,,,,,,,0,,,77,41
8885,set_tempo,10,1,0,,,,,,1411765,,,,,,,
8890,set_tempo,5,1,0,,,,,,1395349,,,,,,,
8900,set_tempo,10,1,0,,,,,,1379310,,,,,,,
8908,note_on,0,0,1,,,,,,,,,0,,,74,0
8908,note_on,30,0,1,,,,,,,,,0,,,77,0
8910,set_tempo,10,1,0,,,,,,1363636,,,,,,,
8912,note_on,0,0,1,,,,,,,,,0,,,86,41
8912,note_on,4,0,1,,,,,,,,,0,,,82,41
8912,note_on,0,0,1,,,,,,,,,0,,,89,46
8915,set_tempo,5,1,0,,,,,,1348315,,,,,,,
8925,set_tempo,10,1,0,,,,,,1333333,,,,,,,
8935,set_tempo,10,1,0,,,,,,1318681,,,,,,,
8940,set_tempo,5,1,0,,,,,,1304348,,,,,,,
8942,note_on,0,0,1,,,,,,,,,0,,,82,0
8942,note_on,30,0,1,,,,,,,,,0,,,89,0
8942,note_on,0,0,1,,,,,,,,,0,,,86,0
8946,note_on,0,0,1,,,,,,,,,0,,,82,41
8946,note_on,4,0,1,,,,,,,,,0,,,77,41
8950,set_tempo,10,1,0,,,,,,1290323,,,,,,,
8955,set_tempo,5,1,0,,,,,,1276596,,,,,,,
8960,set_tempo,5,1,0,,,,,,1153846,,,,,,,
8976,note_on,0,0,1,,,,,,,,,0,,,77,0
8976,note_on,30,0,1,,,,,,,,,0,,,82,0
8980,note_on,0,0,1,,,,,,,,,0,,,89,42
8980,note_on,0,0,1,,,,,,,,,0,,,86,42
8980,note_on,4,0,1,,,,,,,,,0,,,94,48
8980,set_tempo,20,1,0,,,,,,1111111,,,,,,,
9000,set_tempo,20,1,0,,,,,,1071429,,,,,,,
9010,note_on,30,0,1,,,,,,,,,0,,,89,0
9010,note_on,0,0,1,,,,,,,,,0,,,94,0
9010,note_on,0,0,1,,,,,,,,,0,,,86,0
9014,note_on,0,0,1,,,,,,,,,0,,,86,44
9014,note_on,4,0,1,,,,,,,,,0,,,82,44
9020,set_tempo,20,1,0,,,,,,1034483,,,,,,,
9040,set_tempo,20,1,0,,,,,,1000000,,,,,,,
9044,note_on,0,0,1,,,,,,,,,0,,,82,0
9044,note_on,30,0,1,,,,,,,,,0,,,86,0
9048,note_on,0,0,1,,,,,,,,,0,,,89,46
9048,note_on,0,0,1,,,,,,,,,0,,,94,46
9048,note_on,4,0,1,,,,,,,,,0,,,98,51
9060,set_tempo,20,1,0,,,,,,967742,,,,,,,
9078,note_on,0,0,1,,,,,,,,,0,,,94,0
9078,note_on,0,0,1,,,,,,,,,0,,,98,0
9078,note_on,30,0,1,,,,,,,,,0,,,89,0
9080,set_tempo,20,1,0,,,,,,937500,,,,,,,
9082,note_on,0,0,1,,,,,,,,,0,,,89,54
9082,note_on,4,0,1,,,,,,,,,0,,,86,48
9100,set_tempo,20,1,0,,,,,,902256,,,,,,,
9112,note_on,30,0,1,,,,,,,,,0,,,89,0
9112,note_on,0,0,1,,,,,,,,,0,,,86,0
9120,note_on,8,0,1,,,,,,,,,0,,,94,49
9120,note_on,0,0,1,,,,,,,,,0,,,98,55
9120,note_on,0,0,1,,,,,,,,,0,,,101,49
9120,set_tempo,20,1,0,,,,,,1764706,,,,,,,
9480,control_change,840,0,2,,,,,,,,,0,64,0,,
9600,note_on,0,0,1,,,,,,,,,0,,,88,41
9600,note_on,0,0,1,,,,,,,,,0,,,94,0
9600,note_on,480,0,1,,,,,,,,,0,,,101,0
9600,note_on,0,0,1,,,,,,,,,0,,,94,41
9600,note_on,0,0,1,,,,,,,,,0,,,97,46
9600,note_on,0,0,1,,,,,,,,,0,,,98,0
9600,set_tempo,480,1,0,,,,,,1935484,,,,,,,
9680,note_on,0,0,1,,,,,,,,,0,,,99,42
9680,set_tempo,80,1,0,,,,,,1643836,,,,,,,
9680,note_on,80,0,1,,,,,,,,,0,,,88,0
9680,note_on,0,0,1,,,,,,,,,0,,,97,0
9680,note_on,0,0,1,,,,,,,,,0,,,94,0
9680,note_on,0,0,1,,,,,,,,,0,,,91,37
9760,note_on,0,0,1,,,,,,,,,0,,,98,43
9760,note_on,0,0,1,,,,,,,,,0,,,89,39
9760,set_tempo,80,1,0,,,,,,1445783,,,,,,,
9760,note_on,80,0,1,,,,,,,,,0,,,99,0
9760,note_on,0,0,1,,,,,,,,,0,,,91,0
9830,note_on,70,0,1,,,,,,,,,0,,,98,0
9830,note_on,0,0,1,,,,,,,,,0,,,89,0
9840,note_on,10,0,1,,,,,,,,,0,,,93,46
9840,set_tempo,80,1,0,,,,,,1395349,,,,,,,
9840,note_on,0,0,1,,,,,,,,,0,,,89,41
9840,note_on,0,0,1,,,,,,,,,0,,,85,41
9920,note_on,80,0,1,,,,,,,,,0,,,85,0
9920,note_on,0,0,1,,,,,,,,,0,,,96,42
9920,note_on,0,0,1,,,,,,,,,0,,,93,0
9920,note_on,0,0,1,,,,,,,,,0,,,89,0
9920,note_on,0,0,1,,,,,,,,,0,,,87,37
9920,set_tempo,80,1,0,,,,,,1043478,,,,,,,
10000,note_on,0,0,1,,,,,,,,,0,,,86,37
10000,note_on,0,0,1,,,,,,,,,0,,,94,42
10000,note_on,80,0,1,,,,,,,,,0,,,96,0
10000,note_on,0,0,1,,,,,,,,,0,,,87,0
10000,set_tempo,80,1,0,,,,,,1000000,,,,,,,
10070,note_on,0,0,1,,,,,,,,,0,,,86,0
10070,note_on,70,0,1,,,,,,,,,0,,,94,0
10080,note_on,10,0,1,,,,,,,,,0,,,88,46
10080,set_tempo,80,1,0,,,,,,967742,,,,,,,
10080,note_on,0,0,1,,,,,,,,,0,,,82,41
10080,note_on,0,0,1,,,,,,,,,0,,,85,41
10160,note_on,80,0,1,,,,,,,,,0,,,82,0
10160,note_on,0,0,1,,,,,,,,,0,,,85,0
10160,note_on,0,0,1,,,,,,,,,0,,,86,39
10160,note_on,0,0,1,,,,,,,,,0,,,91,43
10160,set_tempo,80,1,0,,,,,,816327,,,,,,,
10160,note_on,0,0,1,,,,,,,,,0,,,88,0
10240,note_on,0,0,1,,,,,,,,,0,,,82,39
10240,note_on,80,0,1,,,,,,,,,0,,,91,0
10240,set_tempo,80,1,0,,,,,,774194,,,,,,,
10240,note_on,0,0,1,,,,,,,,,0,,,89,43
10240,note_on,0,0,1,,,,,,,,,0,,,86,0
10310,note_on,0,0,1,,,,,,,,,0,,,82,0
10310,note_on,70,0,1,,,,,,,,,0,,,89,0
10320,note_on,0,0,1,,,,,,,,,0,,,85,46
10320,note_on,0,0,1,,,,,,,,,0,,,82,41
10320,set_tempo,80,1,0,,,,,,794702,,,,,,,
10320,note_on,10,0,1,,,,,,,,,0,,,76,41
10400,note_on,80,0,1,,,,,,,,,0,,,85,0
10400,set_tempo,80,1,0,,,,,,750000,,,,,,,
10400,note_on,0,0,1,,,,,,,,,0,,,87,42
10400,note_on,0,0,1,,,,,,,,,0,,,79,37
10400,note_on,0,0,1,,,,,,,,,0,,,76,0
10400,note_on,0,0,1,,,,,,,,,0,,,82,0
10480,set_tempo,80,1,0,,,,,,705882,,,,,,,
10480,note_on,0,0,1,,,,,,,,,0,,,79,0
10480,note_on,0,0,1,,,,,,,,,0,,,86,43
10480,note_on,0,0,1,,,,,,,,,0,,,77,39
10480,note_on,80,0,1,,,,,,,,,0,,,87,0
10550,note_on,70,0,1,,,,,,,,,0,,,86,0
10550,note_on,0,0,1,,,,,,,,,0,,,77,0
10560,note_on,0,0,1,,,,,,,,,0,,,77,41
10560,set_tempo,80,1,0,,,,,,648649,,,,,,,
10560,note_on,10,0,1,,,,,,,,,0,,,81,46
10560,note_on,0,0,1,,,,,,,,,0,,,73,41
10640,note_on,80,0,1,,,,,,,,,0,,,73,0
10640,note_on,0,0,1,,,,,,,,,0,,,75,37
10640,note_on,0,0,1,,,,,,,,,0,,,77,0
10640,note_on,0,0,1,,,,,,,,,0,,,81,0
10640,note_on,0,0,1,,,,,,,,,0,,,84,42
10640,set_tempo,80,1,0,,,,,,609137,,,,,,,
10720,note_on,80,0,1,,,,,,,,,0,,,84,0
10720,note_on,0,0,1,,,,,,,,,0,,,74,39
10720,note_on,0,0,1,,,,,,,,,0,,,75,0
10720,note_on,0,0,1,,,,,,,,,0,,,82,43
10790,note_on,70,0,1,,,,,,,,,0,,,82,0
10790,note_on,0,0,1,,,,,,,,,0,,,74,0
10800,note_on,10,0,1,,,,,,,,,0,,,76,48
10800,set_tempo,160,1,0,,,,,,625000,,,,,,,
10800,note_on,0,0,1,,,,,,,,,0,,,70,42
10800,note_on,0,0,1,,,,,,,,,0,,,73,42
10880,note_on,0,0,1,,,,,,,,,0,,,74,41
10880,note_on,0,0,1,,,,,,,,,0,,,76,0
10880,note_on,0,0,1,,,,,,,,,0,,,79,46
10880,set_tempo,80,1,0,,,,,,574163,,,,,,,
10880,note_on,80,0,1,,,,,,,,,0,,,70,0
10880,note_on,0,0,1,,,,,,,,,0,,,73,0
10960,note_on,0,0,1,,,,,,,,,0,,,70,41
10960,note_on,0,0,1,,,,,,,,,0,,,74,0
10960,note_on,0,0,1,,,,,,,,,0,,,77,47
10960,note_on,80,0,1,,,,,,,,,0,,,79,0
11030,note_on,70,0,1,,,,,,,,,0,,,70,0
11030,note_on,0,0,1,,,,,,,,,0,,,77,0
11040,note_on,10,0,1,,,,,,,,,0,,,64,44
11040,note_on,0,0,1,,,,,,,,,0,,,70,44
11040,note_on,0,0,1,,,,,,,,,0,,,73,50
11040,set_tempo,160,1,0,,,,,,591133,,,,,,,
11120,note_on,0,0,1,,,,,,,,,0,,,75,47
11120,note_on,0,0,1,,,,,,,,,0,,,73,0
11120,note_on,0,0,1,,,,,,,,,0,,,67,41
11120,note_on,0,0,1,,,,,,,,,0,,,64,0
11120,note_on,80,0,1,,,,,,,,,0,,,70,0
11120,set_tempo,80,1,0,,,,,,563380,,,,,,,
11200,note_on,0,0,1,,,,,,,,,0,,,74,46
11200,note_on,0,0,1,,,,,,,,,0,,,65,41
11200,note_on,80,0,1,,,,,,,,,0,,,75,0
11200,note_on,0,0,1,,,,,,,,,0,,,67,0
11264,set_tempo,144,1,0,,,,,,579710,,,,,,,
11270,note_on,0,0,1,,,,,,,,,0,,,65,0
11270,note_on,70,0,1,,,,,,,,,0,,,74,0
11280,note_on,0,0,1,,,,,,,,,0,,,61,47
11280,note_on,0,0,1,,,,,,,,,0,,,65,47
11280,note_on,10,0,1,,,,,,,,,0,,,69,52
11360,note_on,0,0,1,,,,,,,,,0,,,63,43
11360,note_on,0,0,1,,,,,,,,,0,,,65,0
11360,note_on,0,0,1,,,,,,,,,0,,,69,0
11360,note_on,0,0,1,,,,,,,,,0,,,72,49
11360,note_on,80,0,1,,,,,,,,,0,,,61,0
11360,set_tempo,96,1,0,,,,,,550459,,,,,,,
11440,note_on,80,0,1,,,,,,,,,0,,,72,0
11440,note_on,0,0,1,,,,,,,,,0,,,62,44
11440,note_on,0,0,1,,,,,,,,,0,,,63,0
11440,note_on,0,0,1,,,,,,,,,0,,,70,50
11510,note_on,0,0,1,,,,,,,,,0,,,62,0
11510,note_on,70,0,1,,,,,,,,,0,,,70,0
11520,set_tempo,160,1,0,,,,,,558140,,,,,,,
11520,note_on,0,0,1,,,,,,,,,0,,,61,49
11520,note_on,0,0,1,,,,,,,,,0,,,58,49
11520,note_on,10,0,1,,,,,,,,,0,,,64,55
11600,note_on,0,0,1,,,,,,,,,0,,,67,51
11600,note_on,0,0,1,,,,,,,,,0,,,64,0
11600,note_on,0,0,1,,,,,,,,,0,,,58,0
11600,note_on,0,0,1,,,,,,,,,0,,,62,46
11600,note_on,80,0,1,,,,,,,,,0,,,61,0
11600,set_tempo,80,1,0,,,,,,528634,,,,,,,
11680,note_on,0,0,1,,,,,,,,,0,,,62,0
11680,note_on,0,0,1,,,,,,,,,0,,,65,51
11680,note_on,80,0,1,,,,,,,,,0,,,67,0
11680,note_on,0,0,1,,,,,,,,,0,,,58,46
11750,note_on,0,0,1,,,,,,,,,0,,,58,0
11750,note_on,70,0,1,,,,,,,,,0,,,65,0
11760,note_on,10,0,1,,,,,,,,,0,,,52,55
11760,note_on,0,0,1,,,,,,,,,0,,,58,55
11760,note_on,0,0,1,,,,,,,,,0,,,61,62
11760,set_tempo,160,1,0,,,,,,545455,,,,,,,
11840,set_tempo,80,1,0,,,,,,521739,,,,,,,
11840,note_on,80,0,1,,,,,,,,,0,,,58,0
11840,note_on,0,0,1,,,,,,,,,0,,,52,0
11840,note_on,0,0,1,,,,,,,,,0,,,55,51
11840,note_on,0,0,1,,,,,,,,,0,,,63,58
11840,note_on,0,0,1,,,,,,,,,0,,,61,0
11920,note_on,80,0,1,,,,,,,,,0,,,63,0
11920,note_on,0,0,1,,,,,,,,,0,,,62,58
11920,note_on,0,0,1,,,,,,,,,0,,,55,0
11920,note_on,0,0,1,,,,,,,,,0,,,53,51
11990,note_on,0,0,1,,,,,,,,,0,,,53,0
11990,note_on,70,0,1,,,,,,,,,0,,,62,0
11992,control_change,2512,0,2,,,,,,,,,0,64,127,,
12000,note_on,10,0,1,,,,,,,,,0,,,57,65
12000,set_tempo,160,1,0,,,,,,558140,,,,,,,
12000,note_on,0,0,1,,,,,,,,,0,,,49,58
12000,note_on,0,0,1,,,,,,,,,0,,,53,58
12080,note_on,80,0,1,,,,,,,,,0,,,49,0
12080,note_on,0,0,1,,,,,,,,,0,,,60,60
12080,note_on,0,0,1,,,,,,,,,0,,,57,0
12080,note_on,0,0,1,,,,,,,,,0,,,53,0
12080,set_tempo,80,1,0,,,,,,526316,,,,,,,
12080,note_on,0,0,1,,,,,,,,,0,,,51,54
12160,note_on,0,0,1,,,,,,,,,0,,,60,0
12160,note_on,80,0,1,,,,,,,,,0,,,51,0
12160,note_on,0,0,1,,,,,,,,,0,,,50,54
12160,note_on,0,0,1,,,,,,,,,0,,,58,60
12230,note_on,70,0,1,,,,,,,,,0,,,58,0
12230,control_change,238,0,2,,,,,,,,,0,64,0,,
12230,note_on,0,0,1,,,,,,,,,0,,,50,0
12240,note_on,10,0,1,,,,,,,,,0,,,52,70
12240,note_on,0,0,1,,,,,,,,,0,,,49,62
12240,set_tempo,160,1,0,,,,,,571429,,,,,,,
12240,note_on,0,0,1,,,,,,,,,0,,,46,62
12248,control_change,18,0,2,,,,,,,,,0,64,127,,
12320,note_on,0,0,1,,,,,,,,,0,,,55,66
12320,note_on,0,0,1,,,,,,,,,0,,,50,59
12320,note_on,0,0,1,,,,,,,,,0,,,49,0
12320,set_tempo,80,1,0,,,,,,533333,,,,,,,
12320,note_on,80,0,1,,,,,,,,,0,,,46,0
12320,note_on,0,0,1,,,,,,,,,0,,,52,0
12400,note_on,0,0,1,,,,,,,,,0,,,50,0
12400,note_on,0,0,1,,,,,,,,,0,,,53,66
12400,note_on,80,0,1,,,,,,,,,0,,,55,0
12400,note_on,0,0,1,,,,,,,,,0,,,46,59
12459,control_change,211,0,2,,,,,,,,,0,64,0,,
12470,note_on,0,0,1,,,,,,,,,0,,,46,0
12470,note_on,70,0,1,,,,,,,,,0,,,53,0
12472,control_change,13,0,2,,,,,,,,,0,64,127,,
12480,note_on,10,0,1,,,,,,,,,0,,,49,77
12480,note_on,0,0,1,,,,,,,,,0,,,46,69
12480,note_on,0,0,1,,,,,,,,,0,,,40,69
12480,set_tempo,160,1,0,,,,,,574163,,,,,,,
12560,note_on,0,0,1,,,,,,,,,0,,,46,0
12560,note_on,0,0,1,,,,,,,,,0,,,51,70
12560,note_on,0,0,1,,,,,,,,,0,,,43,62
12560,note_on,0,0,1,,,,,,,,,0,,,49,0
12560,note_on,80,0,1,,,,,,,,,0,,,40,0
12560,set_tempo,80,1,0,,,,,,588235,,,,,,,
12640,note_on,0,0,1,,,,,,,,,0,,,41,62
12640,note_on,0,0,1,,,,,,,,,0,,,50,70
12640,set_tempo,80,1,0,,,,,,615385,,,,,,,
12640,note_on,80,0,1,,,,,,,,,0,,,51,0
12640,note_on,0,0,1,,,,,,,,,0,,,43,0
12709,control_change,237,0,2,,,,,,,,,0,64,0,,
12710,note_on,0,0,1,,,,,,,,,0,,,41,0
12710,note_on,70,0,1,,,,,,,,,0,,,50,0
12720,set_tempo,80,1,0,,,,,,1237113,,,,,,,
12720,note_on,11,0,2,,,,,,,,,0,,,34,92
12960,note_on,240,0,2,,,,,,,,,0,,,34,0
12960,note_on,0,0,2,,,,,,,,,0,,,36,74
12960,set_tempo,240,1,0,,,,,,1081081,,,,,,,
12980,set_tempo,20,1,0,,,,,,1081081,,,,,,,
12996,note_on,0,0,2,,,,,,,,,0,,,34,67
12996,note_on,36,0,2,,,,,,,,,0,,,36,0
13000,set_tempo,20,1,0,,,,,,1071429,,,,,,,
13020,set_tempo,20,1,0,,,,,,1061947,,,,,,,
13032,note_on,0,0,2,,,,,,,,,0,,,36,74
13032,note_on,36,0,2,,,,,,,,,0,,,34,0
13040,set_tempo,20,1,0,,,,,,1052632,,,,,,,
13060,set_tempo,20,1,0,,,,,,1043478,,,,,,,
13068,note_on,36,0,2,,,,,,,,,0,,,36,0
13068,note_on,0,0,2,,,,,,,,,0,,,34,72
13080,set_tempo,20,1,0,,,,,,1034483,,,,,,,
13100,set_tempo,20,1,0,,,,,,1025641,,,,,,,
13104,note_on,0,0,2,,,,,,,,,0,,,36,80
13104,note_on,36,0,2,,,,,,,,,0,,,34,0
13120,set_tempo,20,1,0,,,,,,1016949,,,,,,,
13140,note_on,0,0,2,,,,,,,,,0,,,34,75
13140,note_on,36,0,2,,,,,,,,,0,,,36,0
13140,set_tempo,20,1,0,,,,,,1008403,,,,,,,
13160,set_tempo,20,1,0,,,,,,1000000,,,,,,,
13176,note_on,36,0,2,,,,,,,,,0,,,34,0
13176,note_on,0,0,2,,,,,,,,,0,,,36,85
13180,set_tempo,20,1,0,,,,,,991736,,,,,,,
13200,set_tempo,20,1,0,,,,,,983607,,,,,,,
13212,note_on,36,0,2,,,,,,,,,0,,,36,0
13212,note_on,0,0,2,,,,,,,,,0,,,34,79
13220,set_tempo,20,1,0,,,,,,975610,,,,,,,
13240,set_tempo,20,1,0,,,,,,967742,,,,,,,
13248,note_on,36,0,2,,,,,,,,,0,,,34,0
13248,note_on,0,0,2,,,,,,,,,0,,,36,89
13260,set_tempo,20,1,0,,,,,,960000,,,,,,,
13280,set_tempo,20,1,0,,,,,,952381,,,,,,,
13284,note_on,36,0,2,,,,,,,,,0,,,36,0
13284,note_on,0,0,2,,,,,,,,,0,,,34,85
13320,note_on,36,0,2,,,,,,,,,0,,,34,0
13320,note_on,0,0,2,,,,,,,,,0,,,36,93
13350,note_on,30,0,2,,,,,,,,,0,,,36,0
13350,note_on,0,0,2,,,,,,,,,0,,,34,89
13360,set_tempo,80,1,0,,,,,,1061947,,,,,,,
13380,set_tempo,20,1,0,,,,,,1090909,,,,,,,
13380,note_on,0,0,2,,,,,,,,,0,,,33,97
13380,note_on,30,0,2,,,,,,,,,0,,,34,0
13400,set_tempo,20,1,0,,,,,,1121495,,,,,,,
13410,note_on,0,0,2,,,,,,,,,0,,,34,85
13410,note_on,30,0,2,,,,,,,,,0,,,33,0
13420,set_tempo,20,1,0,,,,,,1153846,,,,,,,
13440,note_on,0,0,2,,,,,,,,,0,,,46,86
13440,time_signature,20,1,0,2,4,24,8,,,,,,,,,
13440,set_tempo,0,1,0,,,,,,1481481,,,,,,,
13440,note_on,30,0,2,,,,,,,,,0,,,34,0
13500,note_on,60,0,2,,,,,,,,,0,,,46,0
13613,control_change,113,0,2,,,,,,,,,0,64,127,,
13620,note_on,7,0,2,,,,,,,,,0,,,62,60
13620,set_tempo,180,1,0,,,,,,1538462,,,,,,,
13630,note_on,10,0,2,,,,,,,,,0,,,70,60
13640,note_on,10,0,2,,,,,,,,,0,,,77,60
13650,note_on,940,0,1,,,,,,,,,0,,,80,59
13660,note_on,10,0,1,,,,,,,,,0,,,86,64
13670,note_on,10,0,1,,,,,,,,,0,,,89,67
13680,set_tempo,60,1,0,,,,,,1463415,,,,,,,
13680,note_on,10,0,1,,,,,,,,,0,,,94,72
13736,control_change,96,0,2,,,,,,,,,0,64,0,,
13800,note_on,0,0,1,,,,,,,,,0,,,80,0
13800,note_on,0,0,1,,,,,,,,,0,,,86,0
13800,note_on,0,0,1,,,,,,,,,0,,,89,0
13800,note_on,120,0,1,,,,,,,,,0,,,94,0
13800,note_on,64,0,2,,,,,,,,,0,,,77,0
13800,note_on,0,0,2,,,,,,,,,0,,,62,0
13800,note_on,0,0,2,,,,,,,,,0,,,70,0
13920,set_tempo,240,1,0,,,,,,1411765,,,,,,,
13920,note_on,120,0,1,,,,,,,,,0,,,58,74
14400,set_tempo,0,1,0,,,,,,1846154,,,,,,,
14400,time_signature,480,1,0,4,4,24,8,,,,,,,,,
14880,marker,0,1,0,,,,,,,,,,,,,
14880,note_on,0,0,1,,,,,,,,,0,,,81,46
14880,note_on,960,0,1,,,,,,,,,0,,,58,0
14880,set_tempo,480,1,0,,,,,,816327,,,,,,,
14900,set_tempo,20,1,0,,,,,,833102,,,,,,,
14919,note_on,39,0,1,,,,,,,,,0,,,81,0
14924,note_on,5,0,1,,,,,,,,,0,,,82,41
14963,note_on,39,0,1,,,,,,,,,0,,,82,0
14968,note_on,5,0,1,,,,,,,,,0,,,87,43
15000,set_tempo,100,1,0,,,,,,800427,,,,,,,
15007,note_on,39,0,1,,,,,,,,,0,,,87,0
15012,note_on,5,0,1,,,,,,,,,0,,,84,41
15051,note_on,39,0,1,,,,,,,,,0,,,84,0
15056,note_on,5,0,1,,,,,,,,,0,,,82,41
15095,note_on,39,0,1,,,,,,,,,0,,,82,0
15100,note_on,5,0,1,,,,,,,,,0,,,80,40
15139,note_on,39,0,1,,,,,,,,,0,,,80,0
15144,note_on,5,0,1,,,,,,,,,0,,,79,37
15183,note_on,39,0,1,,,,,,,,,0,,,79,0
15188,note_on,1388,0,2,,,,,,,,,0,,,77,42
15227,note_on,39,0,2,,,,,,,,,0,,,77,0
15232,note_on,5,0,2,,,,,,,,,0,,,75,42
15271,note_on,39,0,2,,,,,,,,,0,,,75,0
15276,note_on,5,0,2,,,,,,,,,0,,,74,41
15315,note_on,39,0,2,,,,,,,,,0,,,74,0
15320,note_on,5,0,2,,,,,,,,,0,,,72,41
15355,note_on,35,0,2,,,,,,,,,0,,,72,0
15360,set_tempo,360,1,0,,,,,,1034483,,,,,,,
15360,note_on,5,0,2,,,,,,,,,0,,,70,46
15450,note_on,90,0,2,,,,,,,,,0,,,70,0
15600,note_on,0,0,2,,,,,,,,,0,,,39,31
15600,note_on,0,0,1,,,,,,,,,0,,,58,31
15600,note_on,150,0,2,,,,,,,,,0,,,46,31
15600,note_on,417,0,1,,,,,,,,,0,,,55,31
15600,note_on,0,0,1,,,,,,,,,0,,,63,34
15600,set_tempo,240,1,0,,,,,,1100917,,,,,,,
15690,note_on,0,0,2,,,,,,,,,0,,,46,0
15690,note_on,90,0,2,,,,,,,,,0,,,39,0
15690,note_on,90,0,1,,,,,,,,,0,,,63,0
15690,note_on,0,0,1,,,,,,,,,0,,,58,0
15690,note_on,0,0,1,,,,,,,,,0,,,55,0
15840,set_tempo,240,1,0,,,,,,1111111,,,,,,,
15840,note_on,0,0,1,,,,,,,,,0,,,58,32
15840,note_on,0,0,1,,,,,,,,,0,,,56,32
15840,note_on,150,0,1,,,,,,,,,0,,,65,36
15840,note_on,150,0,2,,,,,,,,,0,,,46,31
15840,note_on,0,0,2,,,,,,,,,0,,,39,31
15930,note_on,0,0,1,,,,,,,,,0,,,65,0
15930,note_on,90,0,2,,,,,,,,,0,,,39,0
15930,note_on,90,0,1,,,,,,,,,0,,,56,0
15930,note_on,0,0,1,,,,,,,,,0,,,58,0
15930,note_on,0,0,2,,,,,,,,,0,,,46,0
16080,note_on,0,0,2,,,,,,,,,0,,,39,31
16080,note_on,0,0,1,,,,,,,,,0,,,57,31
16080,note_on,0,0,1,,,,,,,,,0,,,58,31
16080,set_tempo,240,1,0,,,,,,1165049,,,,,,,
16080,note_on,150,0,2,,,,,,,,,0,,,46,31
16080,note_on,150,0,1,,,,,,,,,0,,,66,35
16170,note_on,90,0,1,,,,,,,,,0,,,58,0
16170,note_on,0,0,2,,,,,,,,,0,,,46,0
16170,note_on,0,0,1,,,,,,,,,0,,,57,0
16170,note_on,0,0,1,,,,,,,,,0,,,66,0
16170,note_on,90,0,2,,,,,,,,,0,,,39,0
16320,note_on,0,0,2,,,,,,,,,0,,,39,33
16320,note_on,150,0,2,,,,,,,,,0,,,46,33
16320,note_on,150,0,1,,,,,,,,,0,,,58,33
16320,set_tempo,240,1,0,,,,,,1331262,,,,,,,
16320,note_on,0,0,1,,,,,,,,,0,,,67,37
16321,set_tempo,1,1,0,,,,,,1304348,,,,,,,
16326,control_change,6,0,2,,,,,,,,,0,64,127,,
16560,note_on,0,0,1,,,,,,,,,0,,,63,34
16560,note_on,240,0,1,,,,,,,,,0,,,67,0
16560,note_on,0,0,1,,,,,,,,,0,,,55,31
16560,note_on,0,0,1,,,,,,,,,0,,,58,0
16576,control_change,250,0,2,,,,,,,,,0,64,0,,
16680,note_on,0,0,1,,,,,,,,,0,,,55,0
16680,note_on,120,0,1,,,,,,,,,0,,,63,0
16800,note_on,120,0,1,,,,,,,,,0,,,81,46
16800,note_on,0,0,2,,,,,,,,,0,,,46,0
16800,set_tempo,479,1,0,,,,,,851064,,,,,,,
16800,note_on,224,0,2,,,,,,,,,0,,,39,0
16829,note_on,29,0,1,,,,,,,,,0,,,81,0
16834,note_on,5,0,1,,,,,,,,,0,,,82,41
16863,note_on,29,0,1,,,,,,,,,0,,,82,0
16868,note_on,5,0,1,,,,,,,,,0,,,91,41
16897,note_on,29,0,1,,,,,,,,,0,,,91,0
16900,set_tempo,100,1,0,,,,,,821918,,,,,,,
16902,note_on,5,0,1,,,,,,,,,0,,,89,41
16931,note_on,29,0,1,,,,,,,,,0,,,89,0
16936,note_on,5,0,1,,,,,,,,,0,,,87,41
16965,note_on,29,0,1,,,,,,,,,0,,,87,0
16970,note_on,5,0,1,,,,,,,,,0,,,86,41
16999,note_on,29,0,1,,,,,,,,,0,,,86,0
17004,note_on,5,0,1,,,,,,,,,0,,,84,41
17033,note_on,29,0,1,,,,,,,,,0,,,84,0
17038,note_on,5,0,1,,,,,,,,,0,,,82,41
17067,note_on,29,0,1,,,,,,,,,0,,,82,0
17072,note_on,5,0,1,,,,,,,,,0,,,80,40
17101,note_on,29,0,1,,,,,,,,,0,,,80,0
17106,note_on,5,0,1,,,,,,,,,0,,,79,37
17135,note_on,29,0,1,,,,,,,,,0,,,79,0
17140,note_on,340,0,2,,,,,,,,,0,,,77,42
17169,note_on,29,0,2,,,,,,,,,0,,,77,0
17174,note_on,5,0,2,,,,,,,,,0,,,75,42
17203,note_on,29,0,2,,,,,,,,,0,,,75,0
17208,note_on,5,0,2,,,,,,,,,0,,,74,41
17237,note_on,29,0,2,,,,,,,,,0,,,74,0
17242,note_on,5,0,2,,,,,,,,,0,,,72,41
17275,note_on,33,0,2,,,,,,,,,0,,,72,0
17280,set_tempo,380,1,0,,,,,,1081081,,,,,,,
17280,note_on,5,0,2,,,,,,,,,0,,,70,46
17370,note_on,90,0,2,,,,,,,,,0,,,70,0
17520,note_on,0,0,2,,,,,,,,,0,,,39,31
17520,note_on,150,0,2,,,,,,,,,0,,,46,31
17520,set_tempo,240,1,0,,,,,,1132075,,,,,,,
17520,note_on,0,0,1,,,,,,,,,0,,,55,29
17520,note_on,385,0,1,,,,,,,,,0,,,63,29
17520,note_on,0,0,1,,,,,,,,,0,,,58,29
17610,note_on,0,0,1,,,,,,,,,0,,,55,0
17610,note_on,0,0,1,,,,,,,,,0,,,63,0
17610,note_on,0,0,2,,,,,,,,,0,,,46,0
17610,note_on,90,0,2,,,,,,,,,0,,,39,0
17610,note_on,90,0,1,,,,,,,,,0,,,58,0
17760,note_on,0,0,1,,,,,,,,,0,,,62,32
17760,note_on,0,0,2,,,,,,,,,0,,,46,33
17760,note_on,150,0,1,,,,,,,,,0,,,56,32
17760,set_tempo,240,1,0,,,,,,1250000,,,,,,,
17760,note_on,0,0,1,,,,,,,,,0,,,65,36
17760,note_on,150,0,2,,,,,,,,,0,,,39,33
17850,note_on,90,0,1,,,,,,,,,0,,,65,0
17850,note_on,0,0,1,,,,,,,,,0,,,56,0
17850,note_on,0,0,1,,,,,,,,,0,,,62,0
17850,note_on,0,0,2,,,,,,,,,0,,,39,0
17850,note_on,90,0,2,,,,,,,,,0,,,46,0
18000,note_on,0,0,1,,,,,,,,,0,,,67,34
18000,note_on,0,0,2,,,,,,,,,0,,,46,31
18000,set_tempo,240,1,0,,,,,,1411765,,,,,,,
18000,note_on,150,0,2,,,,,,,,,0,,,39,31
18000,note_on,150,0,1,,,,,,,,,0,,,58,31
18090,note_on,0,0,1,,,,,,,,,0,,,58,0
18090,note_on,90,0,2,,,,,,,,,0,,,46,0
18090,note_on,90,0,1,,,,,,,,,0,,,67,0
18090,note_on,0,0,2,,,,,,,,,0,,,39,0
18240,note_on,150,0,2,,,,,,,,,0,,,39,31
18240,note_on,150,0,1,,,,,,,,,0,,,55,31
18240,set_tempo,240,1,0,,,,,,1690141,,,,,,,
18240,note_on,0,0,1,,,,,,,,,0,,,63,34
18240,note_on,0,0,2,,,,,,,,,0,,,46,31
18700,note_on,460,0,1,,,,,,,,,0,,,63,0
18700,note_on,460,0,2,,,,,,,,,0,,,46,0
18700,note_on,0,0,2,,,,,,,,,0,,,39,0
18700,note_on,0,0,1,,,,,,,,,0,,,55,0
18720,note_on,20,0,1,,,,,,,,,0,,,93,46
18720,set_tempo,480,1,0,,,,,,937500,,,,,,,
18750,note_on,30,0,1,,,,,,,,,0,,,93,0
18752,note_on,2,0,1,,,,,,,,,0,,,94,41
18782,note_on,30,0,1,,,,,,,,,0,,,94,0
18784,note_on,2,0,1,,,,,,,,,0,,,99,43
18808,note_on,24,0,1,,,,,,,,,0,,,99,0
18810,note_on,2,0,1,,,,,,,,,0,,,96,41
18834,note_on,24,0,1,,,,,,,,,0,,,96,0
18836,note_on,2,0,1,,,,,,,,,0,,,94,41
18860,note_on,24,0,1,,,,,,,,,0,,,94,0
18862,note_on,2,0,1,,,,,,,,,0,,,92,40
18886,note_on,24,0,1,,,,,,,,,0,,,92,0
18888,note_on,2,0,1,,,,,,,,,0,,,91,37
18912,note_on,24,0,1,,,,,,,,,0,,,91,0
18914,note_on,214,0,2,,,,,,,,,0,,,89,42
18938,note_on,24,0,2,,,,,,,,,0,,,89,0
18940,note_on,2,0,2,,,,,,,,,0,,,87,42
18964,note_on,24,0,2,,,,,,,,,0,,,87,0
18966,note_on,2,0,2,,,,,,,,,0,,,86,41
18990,note_on,24,0,2,,,,,,,,,0,,,86,0
18992,note_on,2,0,2,,,,,,,,,0,,,84,41
19016,note_on,24,0,2,,,,,,,,,0,,,84,0
19018,note_on,2,0,2,,,,,,,,,0,,,82,41
19042,note_on,24,0,2,,,,,,,,,0,,,82,0
19044,note_on,2,0,2,,,,,,,,,0,,,80,41
19068,note_on,24,0,2,,,,,,,,,0,,,80,0
19070,note_on,2,0,2,,,,,,,,,0,,,79,41
19094,note_on,24,0,2,,,,,,,,,0,,,79,0
19096,note_on,2,0,2,,,,,,,,,0,,,77,41
19120,note_on,24,0,2,,,,,,,,,0,,,77,0
19122,note_on,2,0,2,,,,,,,,,0,,,75,41
19146,note_on,24,0,2,,,,,,,,,0,,,75,0
19148,note_on,2,0,2,,,,,,,,,0,,,74,41
19172,note_on,24,0,2,,,,,,,,,0,,,74,0
19176,note_on,4,0,2,,,,,,,,,0,,,72,41
19200,note_on,24,0,2,,,,,,,,,0,,,72,0
19200,set_tempo,480,1,0,,,,,,1061947,,,,,,,
19200,note_on,0,0,2,,,,,,,,,0,,,70,46
19290,note_on,90,0,2,,,,,,,,,0,,,70,0
19420,set_tempo,220,1,0,,,,,,1153846,,,,,,,
19440,note_on,528,0,1,,,,,,,,,0,,,63,37
19440,note_on,0,0,2,,,,,,,,,0,,,46,33
19440,set_tempo,20,1,0,,,,,,1111111,,,,,,,
19440,note_on,0,0,1,,,,,,,,,0,,,58,33
19440,note_on,0,0,1,,,,,,,,,0,,,55,33
19440,note_on,150,0,2,,,,,,,,,0,,,39,33
19530,note_on,0,0,2,,,,,,,,,0,,,39,0
19530,note_on,0,0,1,,,,,,,,,0,,,58,0
19530,note_on,90,0,2,,,,,,,,,0,,,46,0
19530,note_on,0,0,1,,,,,,,,,0,,,63,0
19530,note_on,90,0,1,,,,,,,,,0,,,55,0
19680,note_on,0,0,1,,,,,,,,,0,,,56,35
19680,note_on,0,0,1,,,,,,,,,0,,,58,35
19680,note_on,150,0,1,,,,,,,,,0,,,65,40
19680,note_on,0,0,2,,,,,,,,,0,,,46,36
19680,set_tempo,240,1,0,,,,,,1153846,,,,,,,
19680,note_on,150,0,2,,,,,,,,,0,,,39,36
19770,note_on,0,0,2,,,,,,,,,0,,,39,0
19770,note_on,90,0,1,,,,,,,,,0,,,56,0
19770,note_on,0,0,1,,,,,,,,,0,,,58,0
19770,note_on,0,0,1,,,,,,,,,0,,,65,0
19770,note_on,90,0,2,,,,,,,,,0,,,46,0
19920,note_on,0,0,2,,,,,,,,,0,,,46,34
19920,note_on,150,0,2,,,,,,,,,0,,,39,34
19920,note_on,0,0,1,,,,,,,,,0,,,57,34
19920,set_tempo,240,1,0,,,,,,1263158,,,,,,,
19920,note_on,0,0,1,,,,,,,,,0,,,58,34
19920,note_on,150,0,1,,,,,,,,,0,,,66,39
20010,note_on,0,0,2,,,,,,,,,0,,,39,0
20010,note_on,0,0,1,,,,,,,,,0,,,66,0
20010,note_on,90,0,1,,,,,,,,,0,,,57,0
20010,note_on,0,0,1,,,,,,,,,0,,,58,0
20010,note_on,90,0,2,,,,,,,,,0,,,46,0
20160,note_on,0,0,2,,,,,,,,,0,,,46,36
20160,note_on,150,0,2,,,,,,,,,0,,,39,36
20160,set_tempo,240,1,0,,,,,,1395349,,,,,,,
20160,note_on,0,0,1,,,,,,,,,0,,,67,41
20160,note_on,150,0,1,,,,,,,,,0,,,58,36
20175,control_change,15,0,2,,,,,,,,,0,64,127,,
20400,set_tempo,240,1,0,,,,,,1690141,,,,,,,
20400,note_on,240,0,1,,,,,,,,,0,,,67,0
20400,note_on,0,0,1,,,,,,,,,0,,,63,37
20400,note_on,0,0,1,,,,,,,,,0,,,58,0
20400,note_on,0,0,1,,,,,,,,,0,,,55,33
20413,control_change,238,0,2,,,,,,,,,0,64,0,,
20520,note_on,120,0,1,,,,,,,,,0,,,63,0
20520,note_on,0,0,1,,,,,,,,,0,,,55,0
20640,set_tempo,240,1,0,,,,,,1212121,,,,,,,
20640,note_on,120,0,1,,,,,,,,,0,,,93,46
20640,note_on,0,0,2,,,,,,,,,0,,,39,0
20640,note_on,227,0,2,,,,,,,,,0,,,46,0
20669,note_on,29,0,1,,,,,,,,,0,,,93,0
20671,note_on,2,0,1,,,,,,,,,0,,,94,41
20700,note_on,29,0,1,,,,,,,,,0,,,94,0
20702,note_on,2,0,1,,,,,,,,,0,,,103,41
20722,note_on,20,0,1,,,,,,,,,0,,,103,0
20724,note_on,2,0,1,,,,,,,,,0,,,101,41
20744,note_on,20,0,1,,,,,,,,,0,,,101,0
20746,note_on,2,0,1,,,,,,,,,0,,,99,41
20766,note_on,20,0,1,,,,,,,,,0,,,99,0
20768,note_on,2,0,1,,,,,,,,,0,,,98,41
20788,note_on,20,0,1,,,,,,,,,0,,,98,0
20790,note_on,2,0,1,,,,,,,,,0,,,96,41
20810,note_on,20,0,1,,,,,,,,,0,,,96,0
20812,note_on,2,0,1,,,,,,,,,0,,,94,41
20832,note_on,20,0,1,,,,,,,,,0,,,94,0
20834,note_on,2,0,1,,,,,,,,,0,,,92,40
20854,note_on,20,0,1,,,,,,,,,0,,,92,0
20856,note_on,2,0,1,,,,,,,,,0,,,91,37
20876,note_on,20,0,1,,,,,,,,,0,,,91,0
20878,note_on,238,0,2,,,,,,,,,0,,,89,42
20898,note_on,20,0,2,,,,,,,,,0,,,89,0
20900,note_on,2,0,2,,,,,,,,,0,,,87,42
20920,note_on,20,0,2,,,,,,,,,0,,,87,0
20922,note_on,2,0,2,,,,,,,,,0,,,86,41
20942,note_on,20,0,2,,,,,,,,,0,,,86,0
20944,note_on,2,0,2,,,,,,,,,0,,,84,41
20964,note_on,20,0,2,,,,,,,,,0,,,84,0
20966,note_on,2,0,2,,,,,,,,,0,,,82,41
20986,note_on,20,0,2,,,,,,,,,0,,,82,0
20988,note_on,2,0,2,,,,,,,,,0,,,80,41
21008,note_on,20,0,2,,,,,,,,,0,,,80,0
21010,note_on,2,0,2,,,,,,,,,0,,,79,41
21030,note_on,20,0,2,,,,,,,,,0,,,79,0
21032,note_on,2,0,2,,,,,,,,,0,,,77,41
21052,note_on,20,0,2,,,,,,,,,0,,,77,0
21054,note_on,2,0,2,,,,,,,,,0,,,75,41
21074,note_on,20,0,2,,,,,,,,,0,,,75,0
21076,note_on,2,0,2,,,,,,,,,0,,,74,41
21096,note_on,20,0,2,,,,,,,,,0,,,74,0
21098,note_on,2,0,2,,,,,,,,,0,,,72,41
21118,note_on,20,0,2,,,,,,,,,0,,,72,0
21120,note_on,2,0,2,,,,,,,,,0,,,70,46
21120,set_tempo,480,1,0,,,,,,1081081,,,,,,,
21210,note_on,90,0,2,,,,,,,,,0,,,70,0
21360,note_on,0,0,1,,,,,,,,,0,,,58,36
21360,note_on,0,0,1,,,,,,,,,0,,,55,36
21360,set_tempo,240,1,0,,,,,,1165049,,,,,,,
21360,note_on,484,0,1,,,,,,,,,0,,,63,41
21360,note_on,0,0,2,,,,,,,,,0,,,46,35
21360,note_on,150,0,2,,,,,,,,,0,,,39,35
21450,note_on,90,0,1,,,,,,,,,0,,,55,0
21450,note_on,0,0,1,,,,,,,,,0,,,63,0
21450,note_on,0,0,1,,,,,,,,,0,,,58,0
21450,note_on,90,0,2,,,,,,,,,0,,,46,0
21450,note_on,0,0,2,,,,,,,,,0,,,39,0
21600,set_tempo,240,1,0,,,,,,1237113,,,,,,,
21600,note_on,0,0,2,,,,,,,,,0,,,47,36
21600,note_on,0,0,1,,,,,,,,,0,,,62,37
21600,note_on,0,0,1,,,,,,,,,0,,,65,42
21600,note_on,150,0,1,,,,,,,,,0,,,56,37
21600,note_on,150,0,2,,,,,,,,,0,,,39,36
21690,note_on,0,0,2,,,,,,,,,0,,,39,0
21690,note_on,0,0,1,,,,,,,,,0,,,56,0
21690,note_on,90,0,1,,,,,,,,,0,,,65,0
21690,note_on,90,0,2,,,,,,,,,0,,,47,0
21690,note_on,0,0,1,,,,,,,,,0,,,62,0
21840,set_tempo,240,1,0,,,,,,1538462,,,,,,,
21840,note_on,0,0,1,,,,,,,,,0,,,56,36
21840,note_on,0,0,1,,,,,,,,,0,,,67,41
21840,note_on,150,0,2,,,,,,,,,0,,,46,35
21840,note_on,0,0,2,,,,,,,,,0,,,39,35
21840,note_on,150,0,1,,,,,,,,,0,,,62,36
21930,note_on,90,0,2,,,,,,,,,0,,,39,0
21930,note_on,0,0,1,,,,,,,,,0,,,62,0
21930,note_on,0,0,1,,,,,,,,,0,,,56,0
21930,note_on,0,0,2,,,,,,,,,0,,,46,0
21930,note_on,90,0,1,,,,,,,,,0,,,67,0
22080,note_on,0,0,1,,,,,,,,,0,,,63,39
22080,note_on,150,0,1,,,,,,,,,0,,,55,34
22080,set_tempo,240,1,0,,,,,,1666667,,,,,,,
22080,note_on,0,0,2,,,,,,,,,0,,,46,33
22080,note_on,0,0,2,,,,,,,,,0,,,51,33
22080,note_on,150,0,2,,,,,,,,,0,,,39,33
22540,note_on,460,0,1,,,,,,,,,0,,,63,0
22540,note_on,0,0,2,,,,,,,,,0,,,39,0
22540,note_on,0,0,2,,,,,,,,,0,,,51,0
22540,note_on,460,0,2,,,,,,,,,0,,,46,0
22540,note_on,0,0,1,,,,,,,,,0,,,55,0
22560,note_on,20,0,2,,,,,,,,,0,,,46,59
22560,set_tempo,480,1,0,,,,,,779221,,,,,,,
22565,control_change,5,0,2,,,,,,,,,0,64,127,,
22599,note_on,34,0,2,,,,,,,,,0,,,46,0
22600,note_on,1,0,2,,,,,,,,,0,,,45,59
22639,note_on,39,0,2,,,,,,,,,0,,,45,0
22640,note_on,1,0,2,,,,,,,,,0,,,44,59
22679,note_on,39,0,2,,,,,,,,,0,,,44,0
22680,note_on,1,0,2,,,,,,,,,0,,,43,59
22719,note_on,39,0,2,,,,,,,,,0,,,43,0
22720,note_on,1,0,2,,,,,,,,,0,,,42,59
22759,note_on,39,0,2,,,,,,,,,0,,,42,0
22760,note_on,1,0,2,,,,,,,,,0,,,41,59
22787,control_change,27,0,2,,,,,,,,,0,64,0,,
22799,note_on,12,0,2,,,,,,,,,0,,,41,0
22800,note_on,1,0,2,,,,,,,,,0,,,40,62
22802,control_change,2,0,2,,,,,,,,,0,64,127,,
22839,note_on,37,0,2,,,,,,,,,0,,,40,0
22840,note_on,1,0,2,,,,,,,,,0,,,39,64
22879,note_on,39,0,2,,,,,,,,,0,,,39,0
22880,note_on,1,0,2,,,,,,,,,0,,,38,66
22919,note_on,39,0,2,,,,,,,,,0,,,38,0
22920,note_on,1,0,2,,,,,,,,,0,,,37,69
22959,note_on,39,0,2,,,,,,,,,0,,,37,0
22960,note_on,1,0,2,,,,,,,,,0,,,36,71
22999,note_on,39,0,2,,,,,,,,,0,,,36,0
23000,note_on,1,0,2,,,,,,,,,0,,,35,73
23039,note_on,39,0,2,,,,,,,,,0,,,35,0
23040,note_on,1,0,2,,,,,,,,,0,,,34,89
23040,set_tempo,480,1,0,,,,,,1132075,,,,,,,
23042,control_change,2,0,2,,,,,,,,,0,64,0,,
23100,note_on,58,0,2,,,,,,,,,0,,,34,0
23280,set_tempo,240,1,0,,,,,,1090909,,,,,,,
23280,note_on,0,0,2,,,,,,,,,0,,,53,46
23280,note_on,740,0,1,,,,,,,,,0,,,62,56
23280,note_on,180,0,2,,,,,,,,,0,,,46,46
23280,note_on,0,0,1,,,,,,,,,0,,,58,50
23370,note_on,0,0,1,,,,,,,,,0,,,62,0
23370,note_on,90,0,1,,,,,,,,,0,,,58,0
23370,note_on,90,0,2,,,,,,,,,0,,,53,0
23370,note_on,0,0,2,,,,,,,,,0,,,46,0
23520,note_on,0,0,1,,,,,,,,,0,,,58,56
23520,note_on,150,0,2,,,,,,,,,0,,,54,51
23520,note_on,0,0,1,,,,,,,,,0,,,63,63
23520,set_tempo,240,1,0,,,,,,1132075,,,,,,,
23520,note_on,0,0,2,,,,,,,,,0,,,46,51
23520,note_on,150,0,1,,,,,,,,,0,,,60,56
23610,note_on,0,0,1,,,,,,,,,0,,,60,0
23610,note_on,0,0,1,,,,,,,,,0,,,58,0
23610,note_on,90,0,1,,,,,,,,,0,,,63,0
23610,note_on,90,0,2,,,,,,,,,0,,,46,0
23610,note_on,0,0,2,,,,,,,,,0,,,54,0
23760,note_on,150,0,2,,,,,,,,,0,,,46,48
23760,note_on,0,0,1,,,,,,,,,0,,,64,57
23760,note_on,0,0,1,,,,,,,,,0,,,61,51
23760,note_on,0,0,2,,,,,,,,,0,,,55,48
23760,note_on,150,0,1,,,,,,,,,0,,,58,51
23760,set_tempo,240,1,0,,,,,,1200000,,,,,,,
23850,note_on,0,0,1,,,,,,,,,0,,,61,0
23850,note_on,0,0,1,,,,,,,,,0,,,58,0
23850,note_on,90,0,2,,,,,,,,,0,,,55,0
23850,note_on,0,0,2,,,,,,,,,0,,,46,0
23850,note_on,90,0,1,,,,,,,,,0,,,64,0
24000,set_tempo,240,1,0,,,,,,1304348,,,,,,,
24000,note_on,0,0,2,,,,,,,,,0,,,58,50
24000,control_change,150,0,2,,,,,,,,,0,64,127,,
24000,note_on,0,0,1,,,,,,,,,0,,,65,58
24000,note_on,150,0,1,,,,,,,,,0,,,62,51
24000,note_on,0,0,2,,,,,,,,,0,,,46,50
24240,note_on,0,0,1,,,,,,,,,0,,,62,55
24240,note_on,0,0,1,,,,,,,,,0,,,62,0
24240,set_tempo,240,1,0,,,,,,1445783,,,,,,,
24240,note_on,0,0,1,,,,,,,,,0,,,58,49
24240,note_on,240,0,1,,,,,,,,,0,,,65,0
24240,note_on,240,0,2,,,,,,,,,0,,,58,0
24240,note_on,0,0,2,,,,,,,,,0,,,53,49
24253,control_change,13,0,2,,,,,,,,,0,64,0,,
24360,note_on,0,0,1,,,,,,,,,0,,,58,0
24360,note_on,107,0,2,,,,,,,,,0,,,53,0
24360,note_on,120,0,1,,,,,,,,,0,,,62,0
24475,control_change,115,0,2,,,,,,,,,0,64,127,,
24480,note_on,0,0,2,,,,,,,,,0,,,34,62
24480,set_tempo,240,1,0,,,,,,839161,,,,,,,
24480,note_on,5,0,2,,,,,,,,,0,,,46,0
24516,note_on,36,0,2,,,,,,,,,0,,,34,0
24517,note_on,1,0,2,,,,,,,,,0,,,36,63
24553,note_on,36,0,2,,,,,,,,,0,,,36,0
24554,note_on,1,0,2,,,,,,,,,0,,,38,64
24590,note_on,36,0,2,,,,,,,,,0,,,38,0
24591,note_on,1,0,2,,,,,,,,,0,,,39,66
24627,note_on,36,0,2,,,,,,,,,0,,,39,0
24628,note_on,1,0,2,,,,,,,,,0,,,41,67
24664,note_on,36,0,2,,,,,,,,,0,,,41,0
24665,note_on,1,0,2,,,,,,,,,0,,,43,69
24701,note_on,36,0,2,,,,,,,,,0,,,43,0
24702,note_on,1,0,2,,,,,,,,,0,,,45,70
24704,control_change,2,0,2,,,,,,,,,0,64,0,,
24718,control_change,14,0,2,,,,,,,,,0,64,127,,
24738,note_on,20,0,2,,,,,,,,,0,,,45,0
24739,note_on,1,0,2,,,,,,,,,0,,,46,71
24775,note_on,36,0,2,,,,,,,,,0,,,46,0
24776,note_on,1,0,2,,,,,,,,,0,,,48,72
24812,note_on,36,0,2,,,,,,,,,0,,,48,0
24813,note_on,1,0,2,,,,,,,,,0,,,50,73
24849,note_on,36,0,2,,,,,,,,,0,,,50,0
24850,note_on,1,0,2,,,,,,,,,0,,,51,75
24886,note_on,36,0,2,,,,,,,,,0,,,51,0
24887,note_on,1,0,2,,,,,,,,,0,,,52,77
24905,control_change,18,0,2,,,,,,,,,0,64,0,,
24923,note_on,18,0,2,,,,,,,,,0,,,52,0
24924,note_on,1,0,2,,,,,,,,,0,,,55,78
24959,note_on,35,0,2,,,,,,,,,0,,,55,0
24960,note_on,1,0,2,,,,,,,,,0,,,53,70
24960,set_tempo,480,1,0,,,,,,1165049,,,,,,,
25200,note_on,840,0,1,,,,,,,,,0,,,62,55
25200,note_on,240,0,2,,,,,,,,,0,,,41,46
25200,set_tempo,240,1,0,,,,,,1132075,,,,,,,
25200,note_on,0,0,2,,,,,,,,,0,,,46,46
25200,note_on,0,0,1,,,,,,,,,0,,,58,49
25290,note_on,0,0,1,,,,,,,,,0,,,62,0
25290,note_on,90,0,2,,,,,,,,,0,,,46,0
25290,note_on,0,0,2,,,,,,,,,0,,,41,0
25290,note_on,90,0,1,,,,,,,,,0,,,58,0
25440,note_on,0,0,1,,,,,,,,,0,,,63,59
25440,note_on,150,0,2,,,,,,,,,0,,,48,49
25440,set_tempo,240,1,0,,,,,,1188119,,,,,,,
25440,note_on,150,0,1,,,,,,,,,0,,,57,52
25440,note_on,0,0,2,,,,,,,,,0,,,41,49
25530,note_on,90,0,1,,,,,,,,,0,,,63,0
25530,note_on,0,0,1,,,,,,,,,0,,,57,0
25530,note_on,90,0,2,,,,,,,,,0,,,41,0
25530,note_on,0,0,2,,,,,,,,,0,,,48,0
25660,set_tempo,220,1,0,,,,,,1363636,,,,,,,
25680,note_on,150,0,1,,,,,,,,,0,,,57,50
25680,set_tempo,20,1,0,,,,,,1304348,,,,,,,
25680,note_on,0,0,1,,,,,,,,,0,,,65,56
25680,note_on,150,0,2,,,,,,,,,0,,,50,48
25680,note_on,0,0,2,,,,,,,,,0,,,41,48
25770,note_on,0,0,1,,,,,,,,,0,,,57,0
25770,note_on,0,0,2,,,,,,,,,0,,,50,0
25770,note_on,90,0,1,,,,,,,,,0,,,65,0
25770,note_on,90,0,2,,,,,,,,,0,,,41,0
25920,control_change,150,0,2,,,,,,,,,0,64,127,,
25920,note_on,0,0,2,,,,,,,,,0,,,46,49
25920,set_tempo,240,1,0,,,,,,1481481,,,,,,,
25920,note_on,0,0,1,,,,,,,,,0,,,62,57
25920,note_on,150,0,1,,,,,,,,,0,,,58,51
26160,note_on,240,0,2,,,,,,,,,0,,,53,0
26160,note_on,0,0,2,,,,,,,,,0,,,34,54
26171,control_change,11,0,2,,,,,,,,,0,64,0,,
26280,note_on,109,0,2,,,,,,,,,0,,,34,0
26380,note_on,460,0,1,,,,,,,,,0,,,62,0
26380,note_on,0,0,1,,,,,,,,,0,,,58,0
26400,set_tempo,480,1,0,,,,,,697674,,,,,,,
26400,note_on,20,0,1,,,,,,,,,0,,,70,65
26400,note_on,120,0,2,,,,,,,,,0,,,46,0
26439,note_on,39,0,1,,,,,,,,,0,,,70,0
26440,note_on,1,0,1,,,,,,,,,0,,,69,65
26479,note_on,39,0,1,,,,,,,,,0,,,69,0
26480,note_on,1,0,1,,,,,,,,,0,,,68,65
26519,note_on,39,0,1,,,,,,,,,0,,,68,0
26520,note_on,1,0,1,,,,,,,,,0,,,67,65
26559,note_on,39,0,1,,,,,,,,,0,,,67,0
26560,note_on,160,0,2,,,,,,,,,0,,,66,65
26599,note_on,39,0,2,,,,,,,,,0,,,66,0
26600,note_on,1,0,2,,,,,,,,,0,,,65,65
26639,note_on,39,0,2,,,,,,,,,0,,,65,0
26640,note_on,1,0,2,,,,,,,,,0,,,64,67
26679,note_on,39,0,2,,,,,,,,,0,,,64,0
26680,note_on,1,0,2,,,,,,,,,0,,,63,70
26719,note_on,39,0,2,,,,,,,,,0,,,63,0
26720,note_on,161,0,1,,,,,,,,,0,,,62,72
26759,note_on,39,0,1,,,,,,,,,0,,,62,0
26760,note_on,1,0,1,,,,,,,,,0,,,61,75
26799,note_on,39,0,1,,,,,,,,,0,,,61,0
26800,note_on,1,0,1,,,,,,,,,0,,,60,78
26839,note_on,39,0,1,,,,,,,,,0,,,60,0
26840,note_on,1,0,1,,,,,,,,,0,,,59,80
26879,note_on,39,0,1,,,,,,,,,0,,,59,0
26880,set_tempo,480,1,0,,,,,,1000000,,,,,,,
26880,note_on,1,0,1,,,,,,,,,0,,,58,97
26940,note_on,60,0,1,,,,,,,,,0,,,58,0
27120,note_on,180,0,1,,,,,,,,,0,,,74,59
27120,note_on,0,0,1,,,,,,,,,0,,,62,52
27120,note_on,401,0,2,,,,,,,,,0,,,53,49
27120,note_on,0,0,2,,,,,,,,,0,,,58,49
27120,note_on,0,0,2,,,,,,,,,0,,,46,49
27120,set_tempo,240,1,0,,,,,,1090909,,,,,,,
27120,note_on,0,0,1,,,,,,,,,0,,,70,52
27210,note_on,0,0,2,,,,,,,,,0,,,58,0
27210,note_on,90,0,1,,,,,,,,,0,,,70,0
27210,note_on,0,0,1,,,,,,,,,0,,,62,0
27210,note_on,0,0,2,,,,,,,,,0,,,53,0
27210,note_on,90,0,2,,,,,,,,,0,,,46,0
27210,note_on,0,0,1,,,,,,,,,0,,,74,0
27360,set_tempo,240,1,0,,,,,,1111111,,,,,,,
27360,note_on,0,0,1,,,,,,,,,0,,,70,57
27360,note_on,0,0,1,,,,,,,,,0,,,75,64
27360,note_on,150,0,1,,,,,,,,,0,,,63,57
27360,note_on,0,0,2,,,,,,,,,0,,,54,54
27360,note_on,0,0,2,,,,,,,,,0,,,46,54
27360,note_on,150,0,2,,,,,,,,,0,,,60,54
27450,note_on,0,0,2,,,,,,,,,0,,,54,0
27450,note_on,90,0,1,,,,,,,,,0,,,70,0
27450,note_on,0,0,2,,,,,,,,,0,,,60,0
27450,note_on,90,0,2,,,,,,,,,0,,,46,0
27450,note_on,0,0,1,,,,,,,,,0,,,75,0
27450,note_on,0,0,1,,,,,,,,,0,,,63,0
27600,note_on,0,0,2,,,,,,,,,0,,,61,54
27600,note_on,0,0,2,,,,,,,,,0,,,46,51
27600,set_tempo,240,1,0,,,,,,1200000,,,,,,,
27600,note_on,0,0,1,,,,,,,,,0,,,70,54
27600,note_on,0,0,1,,,,,,,,,0,,,64,54
27600,note_on,150,0,2,,,,,,,,,0,,,55,51
27600,note_on,150,0,1,,,,,,,,,0,,,76,60
27690,note_on,0,0,2,,,,,,,,,0,,,46,0
27690,note_on,0,0,2,,,,,,,,,0,,,55,0
27690,note_on,90,0,2,,,,,,,,,0,,,61,0
27690,note_on,0,0,1,,,,,,,,,0,,,76,0
27690,note_on,0,0,1,,,,,,,,,0,,,70,0
27690,note_on,90,0,1,,,,,,,,,0,,,64,0
27840,note_on,150,0,1,,,,,,,,,0,,,70,51
27840,control_change,0,0,2,,,,,,,,,0,64,127,,
27840,note_on,0,0,1,,,,,,,,,0,,,77,62
27840,note_on,0,0,1,,,,,,,,,0,,,65,51
27840,set_tempo,240,1,0,,,,,,1304348,,,,,,,
27840,note_on,0,0,2,,,,,,,,,0,,,46,52
27840,note_on,0,0,2,,,,,,,,,0,,,62,59
27840,note_on,150,0,2,,,,,,,,,0,,,53,52
28080,note_on,0,0,1,,,,,,,,,0,,,74,58
28080,set_tempo,240,1,0,,,,,,1428571,,,,,,,
28080,note_on,240,0,1,,,,,,,,,0,,,77,0
28080,note_on,240,0,2,,,,,,,,,0,,,62,0
28080,note_on,0,0,2,,,,,,,,,0,,,58,58
28103,control_change,23,0,2,,,,,,,,,0,64,0,,
28200,note_on,97,0,2,,,,,,,,,0,,,58,0
28200,note_on,120,0,1,,,,,,,,,0,,,74,0
28300,note_on,100,0,1,,,,,,,,,0,,,65,0
28300,note_on,0,0,1,,,,,,,,,0,,,70,0
28320,note_on,120,0,2,,,,,,,,,0,,,46,0
28320,set_tempo,240,1,0,,,,,,909091,,,,,,,
28320,note_on,0,0,2,,,,,,,,,0,,,46,55
28320,note_on,0,0,2,,,,,,,,,0,,,53,0
28356,note_on,36,0,2,,,,,,,,,0,,,46,0
28357,note_on,1,0,2,,,,,,,,,0,,,48,56
28393,note_on,36,0,2,,,,,,,,,0,,,48,0
28394,note_on,1,0,2,,,,,,,,,0,,,50,57
28430,note_on,36,0,2,,,,,,,,,0,,,50,0
28431,note_on,1,0,2,,,,,,,,,0,,,51,59
28467,note_on,36,0,2,,,,,,,,,0,,,51,0
28468,note_on,1,0,2,,,,,,,,,0,,,53,60
28504,note_on,36,0,2,,,,,,,,,0,,,53,0
28505,note_on,1,0,2,,,,,,,,,0,,,55,62
28541,note_on,36,0,2,,,,,,,,,0,,,55,0
28542,note_on,1,0,2,,,,,,,,,0,,,57,62
28578,note_on,36,0,2,,,,,,,,,0,,,57,0
28579,note_on,1,0,2,,,,,,,,,0,,,58,63
28615,note_on,36,0,2,,,,,,,,,0,,,58,0
28616,note_on,316,0,1,,,,,,,,,0,,,60,64
28652,note_on,36,0,1,,,,,,,,,0,,,60,0
28653,note_on,1,0,1,,,,,,,,,0,,,62,65
28689,note_on,36,0,1,,,,,,,,,0,,,62,0
28690,note_on,1,0,1,,,,,,,,,0,,,63,67
28726,note_on,36,0,1,,,,,,,,,0,,,63,0
28727,note_on,1,0,1,,,,,,,,,0,,,64,69
28763,note_on,36,0,1,,,,,,,,,0,,,64,0
28764,note_on,1,0,1,,,,,,,,,0,,,67,70
28799,note_on,35,0,1,,,,,,,,,0,,,67,0
28800,set_tempo,480,1,0,,,,,,1445783,,,,,,,
28800,note_on,1,0,1,,,,,,,,,0,,,65,62
29040,note_on,0,0,2,,,,,,,,,0,,,59,39
29040,note_on,0,0,1,,,,,,,,,0,,,68,41
29040,set_tempo,240,1,0,,,,,,1411765,,,,,,,
29040,note_on,240,0,1,,,,,,,,,0,,,74,47
29040,note_on,425,0,2,,,,,,,,,0,,,53,39
29280,note_on,0,0,1,,,,,,,,,0,,,74,0
29280,note_on,0,0,1,,,,,,,,,0,,,69,46
29280,note_on,240,0,2,,,,,,,,,0,,,59,0
29280,note_on,0,0,1,,,,,,,,,0,,,75,51
29280,note_on,240,0,1,,,,,,,,,0,,,68,0
29280,note_on,0,0,2,,,,,,,,,0,,,53,0
29280,note_on,0,0,2,,,,,,,,,0,,,53,41
29280,set_tempo,240,1,0,,,,,,1395349,,,,,,,
29280,note_on,0,0,2,,,,,,,,,0,,,60,41
29360,note_on,80,0,1,,,,,,,,,0,,,65,0
29360,note_on,0,0,1,,,,,,,,,0,,,65,48
29440,note_on,80,0,1,,,,,,,,,0,,,65,0
29440,note_on,0,0,1,,,,,,,,,0,,,67,42
29440,set_tempo,160,1,0,,,,,,1481481,,,,,,,
29520,note_on,0,0,1,,,,,,,,,0,,,63,48
29520,note_on,0,0,1,,,,,,,,,0,,,69,0
29520,note_on,0,0,1,,,,,,,,,0,,,72,41
29520,note_on,0,0,1,,,,,,,,,0,,,75,0
29520,note_on,0,0,1,,,,,,,,,0,,,77,46
29520,note_on,80,0,1,,,,,,,,,0,,,67,0
29520,note_on,0,0,2,,,,,,,,,0,,,65,41
29520,note_on,0,0,2,,,,,,,,,0,,,57,36
29520,note_on,240,0,2,,,,,,,,,0,,,60,0
29520,note_on,0,0,2,,,,,,,,,0,,,53,36
29520,set_tempo,80,1,0,,,,,,1600000,,,,,,,
29520,note_on,0,0,2,,,,,,,,,0,,,53,0
29600,note_on,0,0,1,,,,,,,,,0,,,60,44
29600,note_on,80,0,1,,,,,,,,,0,,,63,0
29600,set_tempo,80,1,0,,,,,,1643836,,,,,,,
29680,note_on,80,0,1,,,,,,,,,0,,,60,0
29680,set_tempo,80,1,0,,,,,,2608696,,,,,,,
29680,note_on,0,0,1,,,,,,,,,0,,,62,43
29700,note_on,20,0,1,,,,,,,,,0,,,62,0
29700,note_on,180,0,2,,,,,,,,,0,,,46,36
29710,note_on,10,0,2,,,,,,,,,0,,,53,36
29720,note_on,10,0,2,,,,,,,,,0,,,62,41
29730,note_on,30,0,1,,,,,,,,,0,,,58,41
29740,note_on,10,0,1,,,,,,,,,0,,,65,41
29750,note_on,10,0,1,,,,,,,,,0,,,70,41
29760,note_on,40,0,2,,,,,,,,,0,,,57,0
29760,note_on,0,0,2,,,,,,,,,0,,,65,0
29760,note_on,0,0,1,,,,,,,,,0,,,74,43
29760,note_on,0,0,1,,,,,,,,,0,,,72,0
29760,note_on,0,0,2,,,,,,,,,0,,,53,0
29760,note_on,10,0,1,,,,,,,,,0,,,77,0
29760,set_tempo,80,1,0,,,,,,1621622,,,,,,,
30220,note_on,0,0,1,,,,,,,,,0,,,70,0
30220,note_on,0,0,1,,,,,,,,,0,,,65,0
30220,note_on,0,0,1,,,,,,,,,0,,,58,0
30220,note_on,460,0,2,,,,,,,,,0,,,46,0
30220,note_on,0,0,2,,,,,,,,,0,,,53,0
30220,note_on,460,0,1,,,,,,,,,0,,,74,0
30220,note_on,0,0,2,,,,,,,,,0,,,62,0
30220,set_tempo,460,1,0,,,,,,1121495,,,,,,,
30240,set_tempo,20,1,0,,,,,,1061947,,,,,,,
30240,note_on,0,0,1,,,,,,,,,0,,,73,52
30240,note_on,0,0,1,,,,,,,,,0,,,77,52
30240,note_on,20,0,1,,,,,,,,,0,,,82,52
30245,control_change,25,0,2,,,,,,,,,0,64,127,,
30330,note_on,90,0,1,,,,,,,,,0,,,77,0
30330,note_on,0,0,1,,,,,,,,,0,,,73,0
30330,note_on,0,0,1,,,,,,,,,0,,,81,43
30330,note_on,0,0,1,,,,,,,,,0,,,82,0
30360,set_tempo,120,1,0,,,,,,952381,,,,,,,
30360,note_on,0,0,1,,,,,,,,,0,,,72,43
30360,note_on,30,0,1,,,,,,,,,0,,,81,0
30360,note_on,0,0,1,,,,,,,,,0,,,80,43
30405,note_on,0,0,1,,,,,,,,,0,,,80,0
30405,note_on,0,0,1,,,,,,,,,0,,,79,44
30405,note_on,0,0,1,,,,,,,,,0,,,74,44
30405,note_on,45,0,1,,,,,,,,,0,,,72,0
30405,note_on,0,0,1,,,,,,,,,0,,,71,44
30420,set_tempo,60,1,0,,,,,,944882,,,,,,,
30450,note_on,0,0,1,,,,,,,,,0,,,70,46
30450,note_on,0,0,1,,,,,,,,,0,,,79,0
30450,note_on,0,0,1,,,,,,,,,0,,,78,46
30450,note_on,0,0,1,,,,,,,,,0,,,74,0
30450,note_on,45,0,1,,,,,,,,,0,,,71,0
30460,set_tempo,40,1,0,,,,,,937500,,,,,,,
30461,control_change,216,0,2,,,,,,,,,0,64,0,,
30478,control_change,17,0,2,,,,,,,,,0,64,127,,
30495,note_on,0,0,1,,,,,,,,,0,,,70,0
30495,note_on,0,0,1,,,,,,,,,0,,,69,47
30495,note_on,45,0,1,,,,,,,,,0,,,78,0
30495,note_on,0,0,1,,,,,,,,,0,,,77,47
30495,note_on,0,0,1,,,,,,,,,0,,,72,47
30500,set_tempo,40,1,0,,,,,,930233,,,,,,,
30540,note_on,0,0,1,,,,,,,,,0,,,68,48
30540,note_on,0,0,1,,,,,,,,,0,,,77,0
30540,note_on,0,0,1,,,,,,,,,0,,,76,48
30540,note_on,45,0,1,,,,,,,,,0,,,69,0
30540,set_tempo,40,1,0,,,,,,923077,,,,,,,
30540,note_on,0,0,1,,,,,,,,,0,,,72,0
30580,set_tempo,40,1,0,,,,,,916031,,,,,,,
30585,note_on,45,0,1,,,,,,,,,0,,,68,0
30585,note_on,0,0,1,,,,,,,,,0,,,76,0
30585,note_on,0,0,1,,,,,,,,,0,,,75,49
30585,note_on,0,0,1,,,,,,,,,0,,,67,49
30585,note_on,0,0,1,,,,,,,,,0,,,70,49
30620,set_tempo,40,1,0,,,,,,909091,,,,,,,
30630,note_on,0,0,1,,,,,,,,,0,,,66,51
30630,note_on,0,0,1,,,,,,,,,0,,,70,0
30630,note_on,0,0,1,,,,,,,,,0,,,74,51
30630,note_on,0,0,1,,,,,,,,,0,,,75,0
30630,note_on,45,0,1,,,,,,,,,0,,,67,0
30660,set_tempo,40,1,0,,,,,,902256,,,,,,,
30675,note_on,0,0,1,,,,,,,,,0,,,74,0
30675,note_on,45,0,1,,,,,,,,,0,,,66,0
30675,note_on,0,0,1,,,,,,,,,0,,,68,52
30675,note_on,0,0,1,,,,,,,,,0,,,65,52
30675,note_on,0,0,1,,,,,,,,,0,,,73,52
30700,set_tempo,40,1,0,,,,,,895522,,,,,,,
30720,note_on,45,0,1,,,,,,,,,0,,,73,0
30720,note_on,0,0,1,,,,,,,,,0,,,64,54
30720,note_on,0,0,1,,,,,,,,,0,,,65,0
30720,note_on,0,0,1,,,,,,,,,0,,,67,54
30720,note_on,0,0,1,,,,,,,,,0,,,68,0
30720,note_on,0,0,1,,,,,,,,,0,,,72,54
30720,set_tempo,20,1,0,,,,,,983607,,,,,,,
30726,control_change,248,0,2,,,,,,,,,0,64,0,,
30780,note_on,0,0,1,,,,,,,,,0,,,64,0
30780,note_on,60,0,1,,,,,,,,,0,,,67,0
30780,note_on,0,0,1,,,,,,,,,0,,,72,0
30960,note_on,180,0,1,,,,,,,,,0,,,58,42
30960,note_on,0,0,1,,,,,,,,,0,,,55,42
30960,set_tempo,240,1,0,,,,,,930233,,,,,,,
30960,note_on,234,0,2,,,,,,,,,0,,,48,57
30960,note_on,0,0,1,,,,,,,,,0,,,64,48
31000,note_on,40,0,2,,,,,,,,,0,,,48,0
31000,note_on,0,0,2,,,,,,,,,0,,,49,59
31020,set_tempo,60,1,0,,,,,,923077,,,,,,,
31040,note_on,0,0,2,,,,,,,,,0,,,48,60
31040,note_on,40,0,2,,,,,,,,,0,,,49,0
31050,note_on,0,0,1,,,,,,,,,0,,,58,0
31050,note_on,0,0,1,,,,,,,,,0,,,64,0
31050,note_on,90,0,1,,,,,,,,,0,,,55,0
31080,set_tempo,60,1,0,,,,,,916031,,,,,,,
31080,note_on,40,0,2,,,,,,,,,0,,,48,0
31080,note_on,0,0,2,,,,,,,,,0,,,47,63
31120,note_on,40,0,2,,,,,,,,,0,,,47,0
31120,note_on,0,0,2,,,,,,,,,0,,,46,64
31140,set_tempo,60,1,0,,,,,,909091,,,,,,,
31160,note_on,40,0,2,,,,,,,,,0,,,46,0
31160,note_on,0,0,2,,,,,,,,,0,,,45,65
31180,set_tempo,40,1,0,,,,,,902256,,,,,,,
31200,note_on,0,0,1,,,,,,,,,0,,,65,51
31200,note_on,40,0,2,,,,,,,,,0,,,45,0
31200,note_on,0,0,2,,,,,,,,,0,,,44,67
31200,note_on,150,0,1,,,,,,,,,0,,,56,46
31200,set_tempo,20,1,0,,,,,,1043478,,,,,,,
31200,note_on,0,0,1,,,,,,,,,0,,,61,46
31290,note_on,0,0,1,,,,,,,,,0,,,65,0
31290,note_on,90,0,1,,,,,,,,,0,,,61,0
31290,note_on,90,0,2,,,,,,,,,0,,,44,0
31290,note_on,0,0,1,,,,,,,,,0,,,56,0
31440,set_tempo,240,1,0,,,,,,975610,,,,,,,
31440,note_on,0,0,1,,,,,,,,,0,,,62,42
31440,note_on,150,0,2,,,,,,,,,0,,,41,58
31440,note_on,0,0,1,,,,,,,,,0,,,68,48
31440,note_on,150,0,1,,,,,,,,,0,,,59,42
31460,set_tempo,20,1,0,,,,,,983607,,,,,,,
31474,note_on,0,0,2,,,,,,,,,0,,,42,57
31474,note_on,34,0,2,,,,,,,,,0,,,41,0
31480,set_tempo,20,1,0,,,,,,991736,,,,,,,
31500,set_tempo,20,1,0,,,,,,1000000,,,,,,,
31508,note_on,0,0,2,,,,,,,,,0,,,41,56
31508,note_on,34,0,2,,,,,,,,,0,,,42,0
31520,set_tempo,20,1,0,,,,,,1016949,,,,,,,
31530,note_on,0,0,1,,,,,,,,,0,,,59,0
31530,note_on,0,0,1,,,,,,,,,0,,,62,0
31530,note_on,90,0,1,,,,,,,,,0,,,68,0
31540,set_tempo,20,1,0,,,,,,1025641,,,,,,,
31542,note_on,0,0,2,,,,,,,,,0,,,40,56
31542,note_on,34,0,2,,,,,,,,,0,,,41,0
31560,set_tempo,20,1,0,,,,,,1034483,,,,,,,
31576,note_on,34,0,2,,,,,,,,,0,,,40,0
31576,note_on,0,0,2,,,,,,,,,0,,,39,55
31580,set_tempo,20,1,0,,,,,,1043478,,,,,,,
31600,set_tempo,20,1,0,,,,,,1061947,,,,,,,
31610,note_on,34,0,2,,,,,,,,,0,,,39,0
31610,note_on,0,0,2,,,,,,,,,0,,,38,54
31640,set_tempo,40,1,0,,,,,,1290323,,,,,,,
31645,note_on,0,0,2,,,,,,,,,0,,,37,52
31645,note_on,35,0,2,,,,,,,,,0,,,38,0
31680,note_on,0,0,1,,,,,,,,,0,,,64,42
31680,note_on,150,0,1,,,,,,,,,0,,,67,48
31680,note_on,35,0,2,,,,,,,,,0,,,37,0
31680,set_tempo,40,1,0,,,,,,1165049,,,,,,,
31680,note_on,0,0,2,,,,,,,,,0,,,36,46
31700,control_change,20,0,2,,,,,,,,,0,64,127,,
31920,note_on,0,0,1,,,,,,,,,0,,,60,41
31920,note_on,240,0,1,,,,,,,,,0,,,64,0
31920,set_tempo,240,1,0,,,,,,1237113,,,,,,,
31920,note_on,220,0,2,,,,,,,,,0,,,36,0
31920,note_on,0,0,1,,,,,,,,,0,,,55,36
31920,note_on,0,0,1,,,,,,,,,0,,,67,0
31920,note_on,0,0,2,,,,,,,,,0,,,52,40
31930,control_change,10,0,2,,,,,,,,,0,64,0,,
32010,note_on,80,0,2,,,,,,,,,0,,,52,0
32010,note_on,0,0,1,,,,,,,,,0,,,55,0
32010,note_on,90,0,1,,,,,,,,,0,,,60,0
32160,note_on,150,0,1,,,,,,,,,0,,,89,56
32160,note_on,0,0,1,,,,,,,,,0,,,94,56
32160,set_tempo,240,1,0,,,,,,1061947,,,,,,,
32160,note_on,0,0,1,,,,,,,,,0,,,85,56
32171,control_change,161,0,2,,,,,,,,,0,64,127,,
32250,note_on,0,0,1,,,,,,,,,0,,,89,0
32250,note_on,0,0,1,,,,,,,,,0,,,93,46
32250,note_on,0,0,1,,,,,,,,,0,,,85,0
32250,note_on,90,0,1,,,,,,,,,0,,,94,0
32280,note_on,0,0,1,,,,,,,,,0,,,84,47
32280,note_on,30,0,1,,,,,,,,,0,,,93,0
32280,set_tempo,120,1,0,,,,,,916031,,,,,,,
32280,note_on,0,0,1,,,,,,,,,0,,,92,47
32325,note_on,0,0,1,,,,,,,,,0,,,86,48
32325,note_on,0,0,1,,,,,,,,,0,,,83,48
32325,note_on,0,0,1,,,,,,,,,0,,,91,48
32325,note_on,45,0,1,,,,,,,,,0,,,92,0
32325,note_on,0,0,1,,,,,,,,,0,,,84,0
32360,set_tempo,80,1,0,,,,,,909091,,,,,,,
32370,note_on,0,0,1,,,,,,,,,0,,,90,49
32370,note_on,0,0,1,,,,,,,,,0,,,82,49
32370,note_on,45,0,1,,,,,,,,,0,,,83,0
32370,note_on,0,0,1,,,,,,,,,0,,,91,0
32370,note_on,0,0,1,,,,,,,,,0,,,86,0
32382,control_change,211,0,2,,,,,,,,,0,64,0,,
32402,control_change,20,0,2,,,,,,,,,0,64,127,,
32415,note_on,0,0,1,,,,,,,,,0,,,81,50
32415,note_on,45,0,1,,,,,,,,,0,,,82,0
32415,note_on,0,0,1,,,,,,,,,0,,,84,50
32415,note_on,0,0,1,,,,,,,,,0,,,90,0
32415,note_on,0,0,1,,,,,,,,,0,,,89,50
32420,set_tempo,60,1,0,,,,,,902256,,,,,,,
32460,note_on,0,0,1,,,,,,,,,0,,,88,51
32460,note_on,45,0,1,,,,,,,,,0,,,81,0
32460,note_on,0,0,1,,,,,,,,,0,,,80,51
32460,note_on,0,0,1,,,,,,,,,0,,,89,0
32460,note_on,0,0,1,,,,,,,,,0,,,84,0
32500,set_tempo,80,1,0,,,,,,895522,,,,,,,
32505,note_on,0,0,1,,,,,,,,,0,,,82,52
32505,note_on,0,0,1,,,,,,,,,0,,,87,52
32505,note_on,0,0,1,,,,,,,,,0,,,88,0
32505,note_on,45,0,1,,,,,,,,,0,,,80,0
32505,note_on,0,0,1,,,,,,,,,0,,,79,52
32550,note_on,0,0,1,,,,,,,,,0,,,78,55
32550,note_on,0,0,1,,,,,,,,,0,,,82,0
32550,note_on,0,0,1,,,,,,,,,0,,,86,55
32550,note_on,45,0,1,,,,,,,,,0,,,87,0
32550,note_on,0,0,1,,,,,,,,,0,,,79,0
32560,set_tempo,60,1,0,,,,,,888889,,,,,,,
32595,note_on,0,0,1,,,,,,,,,0,,,80,56
32595,note_on,0,0,1,,,,,,,,,0,,,85,56
32595,note_on,0,0,1,,,,,,,,,0,,,86,0
32595,note_on,45,0,1,,,,,,,,,0,,,78,0
32595,note_on,0,0,1,,,,,,,,,0,,,77,56
32620,set_tempo,60,1,0,,,,,,882353,,,,,,,
32640,control_change,238,0,2,,,,,,,,,0,64,0,,
32640,note_on,0,0,1,,,,,,,,,0,,,76,57
32640,note_on,0,0,1,,,,,,,,,0,,,79,57
32640,note_on,0,0,1,,,,,,,,,0,,,80,0
32640,note_on,45,0,1,,,,,,,,,0,,,77,0
32640,note_on,0,0,1,,,,,,,,,0,,,84,57
32640,note_on,0,0,1,,,,,,,,,0,,,85,0
32640,set_tempo,20,1,0,,,,,,983607,,,,,,,
32700,note_on,0,0,1,,,,,,,,,0,,,79,0
32700,note_on,0,0,1,,,,,,,,,0,,,76,0
32700,note_on,60,0,1,,,,,,,,,0,,,84,0
32880,note_on,0,0,2,,,,,,,,,0,,,60,57
32880,note_on,240,0,2,,,,,,,,,0,,,48,57
32880,set_tempo,240,1,0,,,,,,930233,,,,,,,
32880,note_on,0,0,1,,,,,,,,,0,,,76,48
32880,note_on,0,0,1,,,,,,,,,0,,,70,42
32880,note_on,180,0,1,,,,,,,,,0,,,64,42
32880,note_on,0,0,1,,,,,,,,,0,,,67,42
32920,note_on,0,0,2,,,,,,,,,0,,,61,59
32920,note_on,40,0,2,,,,,,,,,0,,,60,0
32940,set_tempo,60,1,0,,,,,,923077,,,,,,,
32960,note_on,40,0,2,,,,,,,,,0,,,61,0
32960,note_on,0,0,2,,,,,,,,,0,,,60,60
32970,note_on,0,0,1,,,,,,,,,0,,,67,0
32970,note_on,0,0,1,,,,,,,,,0,,,64,0
32970,note_on,0,0,1,,,,,,,,,0,,,76,0
32970,note_on,90,0,1,,,,,,,,,0,,,70,0
33000,note_on,0,0,2,,,,,,,,,0,,,59,63
33000,set_tempo,60,1,0,,,,,,916031,,,,,,,
33000,note_on,40,0,2,,,,,,,,,0,,,60,0
33040,note_on,0,0,2,,,,,,,,,0,,,58,64
33040,note_on,40,0,2,,,,,,,,,0,,,59,0
33060,set_tempo,60,1,0,,,,,,909091,,,,,,,
33080,note_on,40,0,2,,,,,,,,,0,,,58,0
33080,note_on,0,0,2,,,,,,,,,0,,,57,65
33100,set_tempo,40,1,0,,,,,,902256,,,,,,,
33120,note_on,0,0,1,,,,,,,,,0,,,77,52
33120,note_on,0,0,1,,,,,,,,,0,,,68,47
33120,note_on,0,0,1,,,,,,,,,0,,,73,47
33120,note_on,0,0,2,,,,,,,,,0,,,48,0
33120,note_on,0,0,2,,,,,,,,,0,,,56,67
33120,set_tempo,20,1,0,,,,,,1008403,,,,,,,
33120,note_on,0,0,2,,,,,,,,,0,,,44,67
33120,note_on,150,0,1,,,,,,,,,0,,,65,47
33120,note_on,40,0,2,,,,,,,,,0,,,57,0
33210,note_on,0,0,2,,,,,,,,,0,,,44,0
33210,note_on,0,0,1,,,,,,,,,0,,,77,0
33210,note_on,0,0,1,,,,,,,,,0,,,73,0
33210,note_on,0,0,1,,,,,,,,,0,,,65,0
33210,note_on,90,0,1,,,,,,,,,0,,,68,0
33210,note_on,90,0,2,,,,,,,,,0,,,56,0
33360,note_on,0,0,2,,,,,,,,,0,,,53,58
33360,set_tempo,240,1,0,,,,,,1043478,,,,,,,
33360,note_on,0,0,1,,,,,,,,,0,,,80,48
33360,note_on,0,0,1,,,,,,,,,0,,,74,42
33360,note_on,0,0,1,,,,,,,,,0,,,71,42
33360,note_on,150,0,1,,,,,,,,,0,,,69,42
33360,note_on,150,0,2,,,,,,,,,0,,,41,58
33394,note_on,0,0,2,,,,,,,,,0,,,54,57
33394,note_on,34,0,2,,,,,,,,,0,,,53,0
33400,set_tempo,40,1,0,,,,,,1052632,,,,,,,
33420,set_tempo,20,1,0,,,,,,1061947,,,,,,,
33428,note_on,0,0,2,,,,,,,,,0,,,53,56
33428,note_on,34,0,2,,,,,,,,,0,,,54,0
33450,note_on,90,0,1,,,,,,,,,0,,,74,0
33450,note_on,0,0,1,,,,,,,,,0,,,80,0
33450,note_on,0,0,1,,,,,,,,,0,,,71,0
33450,note_on,0,0,1,,,,,,,,,0,,,69,0
33460,set_tempo,40,1,0,,,,,,1071429,,,,,,,
33462,note_on,0,0,2,,,,,,,,,0,,,52,56
33462,note_on,34,0,2,,,,,,,,,0,,,53,0
33480,set_tempo,20,1,0,,,,,,1081081,,,,,,,
33496,note_on,0,0,2,,,,,,,,,0,,,51,55
33496,note_on,34,0,2,,,,,,,,,0,,,52,0
33520,set_tempo,40,1,0,,,,,,1090909,,,,,,,
33530,note_on,34,0,2,,,,,,,,,0,,,51,0
33530,note_on,0,0,2,,,,,,,,,0,,,50,54
33540,set_tempo,20,1,0,,,,,,1100917,,,,,,,
33560,set_tempo,20,1,0,,,,,,1237113,,,,,,,
33565,note_on,35,0,2,,,,,,,,,0,,,50,0
33565,note_on,0,0,2,,,,,,,,,0,,,49,52
33600,note_on,35,0,2,,,,,,,,,0,,,49,0
33600,note_on,0,0,2,,,,,,,,,0,,,41,0
33600,note_on,0,0,2,,,,,,,,,0,,,36,46
33600,note_on,150,0,1,,,,,,,,,0,,,76,42
33600,note_on,0,0,2,,,,,,,,,0,,,48,46
33600,set_tempo,40,1,0,,,,,,1165049,,,,,,,
33600,note_on,0,0,1,,,,,,,,,0,,,67,42
33600,note_on,0,0,1,,,,,,,,,0,,,79,48
33620,control_change,20,0,2,,,,,,,,,0,64,127,,
33840,set_tempo,240,1,0,,,,,,1276596,,,,,,,
33840,note_on,0,0,2,,,,,,,,,0,,,64,40
33840,note_on,0,0,1,,,,,,,,,0,,,72,41
33840,note_on,0,0,1,,,,,,,,,0,,,76,0
33840,note_on,0,0,2,,,,,,,,,0,,,55,40
33840,note_on,0,0,2,,,,,,,,,0,,,48,0
33840,note_on,0,0,1,,,,,,,,,0,,,79,0
33840,note_on,240,0,1,,,,,,,,,0,,,67,0
33840,note_on,220,0,2,,,,,,,,,0,,,36,0
33843,control_change,3,0,2,,,,,,,,,0,64,0,,
33930,note_on,0,0,2,,,,,,,,,0,,,64,0
33930,note_on,90,0,1,,,,,,,,,0,,,72,0
33930,note_on,87,0,2,,,,,,,,,0,,,55,0
34080,note_on,0,0,1,,,,,,,,,0,,,65,56
34080,set_tempo,240,1,0,,,,,,975610,,,,,,,
34080,note_on,150,0,1,,,,,,,,,0,,,68,56
34080,note_on,150,0,2,,,,,,,,,0,,,72,56
34080,note_on,0,0,2,,,,,,,,,0,,,80,56
34098,control_change,18,0,2,,,,,,,,,0,64,127,,
34128,note_on,30,0,2,,,,,,,,,0,,,80,0
34128,note_on,0,0,2,,,,,,,,,0,,,79,54
34128,note_on,48,0,1,,,,,,,,,0,,,65,0
34128,note_on,0,0,1,,,,,,,,,0,,,64,50
34176,note_on,48,0,2,,,,,,,,,0,,,79,0
34176,note_on,0,0,1,,,,,,,,,0,,,63,51
34176,note_on,48,0,1,,,,,,,,,0,,,64,0
34176,note_on,0,0,2,,,,,,,,,0,,,78,55
34180,set_tempo,100,1,0,,,,,,923077,,,,,,,
34220,set_tempo,40,1,0,,,,,,916031,,,,,,,
34224,note_on,48,0,2,,,,,,,,,0,,,78,0
34224,note_on,0,0,2,,,,,,,,,0,,,77,56
34224,note_on,48,0,1,,,,,,,,,0,,,63,0
34224,note_on,0,0,1,,,,,,,,,0,,,62,52
34260,set_tempo,40,1,0,,,,,,909091,,,,,,,
34272,note_on,0,0,2,,,,,,,,,0,,,76,58
34272,note_on,48,0,2,,,,,,,,,0,,,77,0
34272,note_on,0,0,1,,,,,,,,,0,,,61,55
34272,note_on,48,0,1,,,,,,,,,0,,,62,0
34300,set_tempo,40,1,0,,,,,,902256,,,,,,,
34305,control_change,33,0,2,,,,,,,,,0,64,0,,
34320,note_on,0,0,2,,,,,,,,,0,,,75,60
34320,note_on,15,0,2,,,,,,,,,0,,,76,0
34320,note_on,48,0,1,,,,,,,,,0,,,61,0
34320,note_on,0,0,1,,,,,,,,,0,,,60,56
34322,control_change,2,0,2,,,,,,,,,0,64,127,,
34340,set_tempo,40,1,0,,,,,,895522,,,,,,,
34368,note_on,0,0,2,,,,,,,,,0,,,74,62
34368,note_on,46,0,2,,,,,,,,,0,,,75,0
34368,note_on,48,0,1,,,,,,,,,0,,,60,0
34368,note_on,0,0,1,,,,,,,,,0,,,59,57
34380,set_tempo,40,1,0,,,,,,888889,,,,,,,
34416,note_on,0,0,1,,,,,,,,,0,,,58,59
34416,note_on,48,0,1,,,,,,,,,0,,,59,0
34416,note_on,0,0,2,,,,,,,,,0,,,73,63
34416,note_on,48,0,2,,,,,,,,,0,,,74,0
34420,set_tempo,40,1,0,,,,,,882353,,,,,,,
34460,set_tempo,40,1,0,,,,,,875912,,,,,,,
34464,note_on,48,0,2,,,,,,,,,0,,,73,0
34464,note_on,0,0,1,,,,,,,,,0,,,57,60
34464,note_on,0,0,2,,,,,,,,,0,,,72,65
34464,note_on,48,0,1,,,,,,,,,0,,,58,0
34500,set_tempo,40,1,0,,,,,,869565,,,,,,,
34512,note_on,48,0,1,,,,,,,,,0,,,57,0
34512,note_on,0,0,1,,,,,,,,,0,,,56,62
34512,note_on,48,0,2,,,,,,,,,0,,,72,0
34512,note_on,0,0,2,,,,,,,,,0,,,71,66
34540,set_tempo,40,1,0,,,,,,863309,,,,,,,
34560,note_on,0,0,2,,,,,,,,,0,,,72,0
34560,note_on,48,0,2,,,,,,,,,0,,,71,0
34560,note_on,48,0,1,,,,,,,,,0,,,56,0
34560,note_on,0,0,1,,,,,,,,,0,,,68,0
34560,note_on,0,0,1,,,,,,,,,0,,,65,64
34560,note_on,0,0,1,,,,,,,,,0,,,62,64
34560,note_on,0,0,2,,,,,,,,,0,,,68,69
34560,note_on,0,0,2,,,,,,,,,0,,,70,69
34560,set_tempo,20,1,0,,,,,,983607,,,,,,,
34570,control_change,10,0,2,,,,,,,,,0,64,0,,
34620,note_on,60,0,1,,,,,,,,,0,,,62,0
34620,note_on,0,0,1,,,,,,,,,0,,,65,0
34620,note_on,0,0,2,,,,,,,,,0,,,68,0
34620,note_on,50,0,2,,,,,,,,,0,,,70,0
34800,set_tempo,240,1,0,,,,,,930233,,,,,,,
34800,note_on,0,0,1,,,,,,,,,0,,,62,51
34800,note_on,180,0,1,,,,,,,,,0,,,56,46
34800,note_on,0,0,1,,,,,,,,,0,,,53,46
34800,note_on,180,0,2,,,,,,,,,0,,,46,57
34840,note_on,0,0,2,,,,,,,,,0,,,47,59
34840,note_on,40,0,2,,,,,,,,,0,,,46,0
34860,set_tempo,60,1,0,,,,,,923077,,,,,,,
34880,note_on,40,0,2,,,,,,,,,0,,,47,0
34880,note_on,0,0,2,,,,,,,,,0,,,46,60
34890,note_on,0,0,1,,,,,,,,,0,,,62,0
34890,note_on,0,0,1,,,,,,,,,0,,,56,0
34890,note_on,90,0,1,,,,,,,,,0,,,53,0
34920,note_on,0,0,2,,,,,,,,,0,,,45,63
34920,set_tempo,60,1,0,,,,,,916031,,,,,,,
34920,note_on,40,0,2,,,,,,,,,0,,,46,0
34960,note_on,40,0,2,,,,,,,,,0,,,45,0
34960,note_on,0,0,2,,,,,,,,,0,,,44,64
34980,set_tempo,60,1,0,,,,,,909091,,,,,,,
35000,note_on,40,0,2,,,,,,,,,0,,,44,0
35000,note_on,0,0,2,,,,,,,,,0,,,43,65
35020,set_tempo,40,1,0,,,,,,902256,,,,,,,
35040,note_on,0,0,2,,,,,,,,,0,,,42,67
35040,note_on,40,0,2,,,,,,,,,0,,,43,0
35040,set_tempo,20,1,0,,,,,,952381,,,,,,,
35040,note_on,0,0,1,,,,,,,,,0,,,59,51
35040,note_on,0,0,1,,,,,,,,,0,,,63,51
35040,note_on,150,0,1,,,,,,,,,0,,,54,51
35130,note_on,0,0,1,,,,,,,,,0,,,54,0
35130,note_on,0,0,1,,,,,,,,,0,,,63,0
35130,note_on,90,0,1,,,,,,,,,0,,,59,0
35130,note_on,90,0,2,,,,,,,,,0,,,42,0
35280,note_on,0,0,1,,,,,,,,,0,,,60,47
35280,set_tempo,240,1,0,,,,,,1008403,,,,,,,
35280,note_on,150,0,1,,,,,,,,,0,,,57,47
35280,note_on,0,0,1,,,,,,,,,0,,,66,52
35280,note_on,150,0,2,,,,,,,,,0,,,39,64
35314,note_on,0,0,2,,,,,,,,,0,,,40,64
35314,note_on,34,0,2,,,,,,,,,0,,,39,0
35320,set_tempo,40,1,0,,,,,,1016949,,,,,,,
35348,note_on,0,0,2,,,,,,,,,0,,,39,63
35348,note_on,34,0,2,,,,,,,,,0,,,40,0
35360,set_tempo,40,1,0,,,,,,1025641,,,,,,,
35370,note_on,0,0,1,,,,,,,,,0,,,57,0
35370,note_on,90,0,1,,,,,,,,,0,,,66,0
35370,note_on,0,0,1,,,,,,,,,0,,,60,0
35380,set_tempo,20,1,0,,,,,,1034483,,,,,,,
35382,note_on,0,0,2,,,,,,,,,0,,,38,62
35382,note_on,34,0,2,,,,,,,,,0,,,39,0
35416,note_on,34,0,2,,,,,,,,,0,,,38,0
35416,note_on,0,0,2,,,,,,,,,0,,,37,62
35420,set_tempo,40,1,0,,,,,,1043478,,,,,,,
35450,note_on,34,0,2,,,,,,,,,0,,,37,0
35450,note_on,0,0,2,,,,,,,,,0,,,36,60
35460,set_tempo,40,1,0,,,,,,1052632,,,,,,,
35480,set_tempo,20,1,0,,,,,,1276596,,,,,,,
35485,note_on,0,0,2,,,,,,,,,0,,,35,60
35485,note_on,35,0,2,,,,,,,,,0,,,36,0
35500,set_tempo,20,1,0,,,,,,1034483,,,,,,,
35520,note_on,0,0,1,,,,,,,,,0,,,62,51
35520,set_tempo,20,1,0,,,,,,1176471,,,,,,,
35520,note_on,150,0,1,,,,,,,,,0,,,65,57
35520,note_on,0,0,2,,,,,,,,,0,,,34,59
35520,note_on,35,0,2,,,,,,,,,0,,,35,0
35760,note_on,0,0,1,,,,,,,,,0,,,53,43
35760,note_on,0,0,1,,,,,,,,,0,,,58,49
35760,note_on,240,0,2,,,,,,,,,0,,,34,0
35760,note_on,0,0,1,,,,,,,,,0,,,65,0
35760,note_on,0,0,2,,,,,,,,,0,,,50,55
35760,note_on,240,0,1,,,,,,,,,0,,,62,0
35760,set_tempo,240,1,0,,,,,,1333333,,,,,,,
35850,note_on,0,0,1,,,,,,,,,0,,,53,0
35850,note_on,90,0,2,,,,,,,,,0,,,50,0
35850,note_on,90,0,1,,,,,,,,,0,,,58,0
36000,note_on,0,0,2,,,,,,,,,0,,,71,56
36000,set_tempo,240,1,0,,,,,,909091,,,,,,,
36000,note_on,150,0,1,,,,,,,,,0,,,68,56
36000,note_on,150,0,2,,,,,,,,,0,,,80,56
36000,note_on,0,0,1,,,,,,,,,0,,,64,56
36010,control_change,10,0,2,,,,,,,,,0,64,127,,
36048,note_on,0,0,1,,,,,,,,,0,,,63,50
36048,note_on,48,0,1,,,,,,,,,0,,,64,0
36048,note_on,0,0,2,,,,,,,,,0,,,79,54
36048,note_on,38,0,2,,,,,,,,,0,,,80,0
36096,note_on,0,0,1,,,,,,,,,0,,,62,51
36096,note_on,48,0,1,,,,,,,,,0,,,63,0
36096,note_on,48,0,2,,,,,,,,,0,,,79,0
36096,note_on,0,0,2,,,,,,,,,0,,,78,55
36100,set_tempo,100,1,0,,,,,,902256,,,,,,,
36144,note_on,0,0,2,,,,,,,,,0,,,77,56
36144,note_on,48,0,2,,,,,,,,,0,,,78,0
36144,note_on,48,0,1,,,,,,,,,0,,,62,0
36144,note_on,0,0,1,,,,,,,,,0,,,61,52
36192,note_on,0,0,2,,,,,,,,,0,,,76,58
36192,note_on,48,0,2,,,,,,,,,0,,,77,0
36192,note_on,0,0,1,,,,,,,,,0,,,60,55
36192,note_on,48,0,1,,,,,,,,,0,,,61,0
36200,set_tempo,100,1,0,,,,,,895522,,,,,,,
36225,control_change,33,0,2,,,,,,,,,0,64,0,,
36240,control_change,0,0,2,,,,,,,,,0,64,127,,
36240,note_on,0,0,1,,,,,,,,,0,,,59,56
36240,note_on,48,0,1,,,,,,,,,0,,,60,0
36240,note_on,15,0,2,,,,,,,,,0,,,76,0
36240,note_on,0,0,2,,,,,,,,,0,,,75,60
36280,set_tempo,80,1,0,,,,,,888889,,,,,,,
36288,note_on,0,0,2,,,,,,,,,0,,,74,62
36288,note_on,48,0,1,,,,,,,,,0,,,59,0
36288,note_on,48,0,2,,,,,,,,,0,,,75,0
36288,note_on,0,0,1,,,,,,,,,0,,,58,57
36336,note_on,0,0,1,,,,,,,,,0,,,57,59
36336,note_on,48,0,2,,,,,,,,,0,,,74,0
36336,note_on,0,0,2,,,,,,,,,0,,,73,63
36336,note_on,48,0,1,,,,,,,,,0,,,58,0
36380,set_tempo,100,1,0,,,,,,882353,,,,,,,
36384,note_on,0,0,2,,,,,,,,,0,,,72,65
36384,note_on,48,0,2,,,,,,,,,0,,,73,0
36384,note_on,48,0,1,,,,,,,,,0,,,57,0
36384,note_on,0,0,1,,,,,,,,,0,,,56,60
36432,note_on,48,0,2,,,,,,,,,0,,,72,0
36432,note_on,48,0,1,,,,,,,,,0,,,56,0
36432,note_on,0,0,1,,,,,,,,,0,,,59,62
36432,note_on,0,0,2,,,,,,,,,0,,,71,66
36460,set_tempo,80,1,0,,,,,,875912,,,,,,,
36480,set_tempo,20,1,0,,,,,,983607,,,,,,,
36480,note_on,0,0,2,,,,,,,,,0,,,70,69
36480,note_on,0,0,2,,,,,,,,,0,,,71,0
36480,note_on,0,0,1,,,,,,,,,0,,,68,0
36480,note_on,0,0,1,,,,,,,,,0,,,65,64
36480,note_on,48,0,1,,,,,,,,,0,,,59,0
36480,note_on,48,0,2,,,,,,,,,0,,,71,0
36480,note_on,0,0,1,,,,,,,,,0,,,62,64
36480,note_on,0,0,2,,,,,,,,,0,,,68,69
36483,control_change,3,0,2,,,,,,,,,0,64,0,,
36540,note_on,60,0,1,,,,,,,,,0,,,65,0
36540,note_on,0,0,1,,,,,,,,,0,,,62,0
36540,note_on,0,0,2,,,,,,,,,0,,,68,0
36540,note_on,57,0,2,,,,,,,,,0,,,70,0
36690,note_on,150,0,2,,,,,,,,,0,,,46,66
36720,note_on,0,0,1,,,,,,,,,0,,,62,51
36720,note_on,0,0,1,,,,,,,,,0,,,65,51
36720,note_on,0,0,1,,,,,,,,,0,,,68,51
36720,note_on,180,0,1,,,,,,,,,0,,,74,58
36720,set_tempo,240,1,0,,,,,,1025641,,,,,,,
36720,note_on,30,0,2,,,,,,,,,0,,,58,66
36760,note_on,0,0,2,,,,,,,,,0,,,59,67
36760,note_on,40,0,2,,,,,,,,,0,,,58,0
36800,note_on,0,0,2,,,,,,,,,0,,,58,69
36800,note_on,40,0,2,,,,,,,,,0,,,59,0
36810,note_on,90,0,1,,,,,,,,,0,,,65,0
36810,note_on,0,0,1,,,,,,,,,0,,,62,0
36810,note_on,0,0,1,,,,,,,,,0,,,68,0
36810,note_on,0,0,1,,,,,,,,,0,,,74,0
36840,note_on,0,0,2,,,,,,,,,0,,,57,69
36840,note_on,40,0,2,,,,,,,,,0,,,58,0
36880,note_on,40,0,2,,,,,,,,,0,,,57,0
36880,note_on,0,0,2,,,,,,,,,0,,,56,70
36920,note_on,0,0,2,,,,,,,,,0,,,55,71
36920,note_on,40,0,2,,,,,,,,,0,,,56,0
36960,note_on,0,0,1,,,,,,,,,0,,,66,67
36960,note_on,150,0,1,,,,,,,,,0,,,75,75
36960,note_on,0,0,2,,,,,,,,,0,,,42,71
36960,note_on,0,0,2,,,,,,,,,0,,,46,0
36960,note_on,0,0,2,,,,,,,,,0,,,54,71
36960,set_tempo,240,1,0,,,,,,991736,,,,,,,
36960,note_on,0,0,1,,,,,,,,,0,,,63,67
36960,note_on,0,0,1,,,,,,,,,0,,,71,67
36960,note_on,40,0,2,,,,,,,,,0,,,55,0
37050,note_on,90,0,2,,,,,,,,,0,,,54,0
37050,note_on,0,0,1,,,,,,,,,0,,,63,0
37050,note_on,90,0,1,,,,,,,,,0,,,71,0
37050,note_on,0,0,1,,,,,,,,,0,,,66,0
37050,note_on,0,0,1,,,,,,,,,0,,,75,0
37050,note_on,0,0,2,,,,,,,,,0,,,42,0
37170,note_on,120,0,2,,,,,,,,,0,,,39,72
37200,note_on,30,0,2,,,,,,,,,0,,,51,72
37200,note_on,150,0,1,,,,,,,,,0,,,72,67
37200,note_on,0,0,1,,,,,,,,,0,,,78,75
37200,set_tempo,240,1,0,,,,,,1034483,,,,,,,
37200,note_on,0,0,1,,,,,,,,,0,,,66,67
37200,note_on,0,0,1,,,,,,,,,0,,,69,67
37220,set_tempo,20,1,0,,,,,,1043478,,,,,,,
37234,note_on,34,0,2,,,,,,,,,0,,,51,0
37234,note_on,0,0,2,,,,,,,,,0,,,53,72
37240,set_tempo,20,1,0,,,,,,1052632,,,,,,,
37260,set_tempo,20,1,0,,,,,,1061947,,,,,,,
37268,note_on,0,0,2,,,,,,,,,0,,,51,72
37268,note_on,34,0,2,,,,,,,,,0,,,53,0
37280,set_tempo,20,1,0,,,,,,1071429,,,,,,,
37290,note_on,0,0,1,,,,,,,,,0,,,78,0
37290,note_on,90,0,1,,,,,,,,,0,,,66,0
37290,note_on,0,0,1,,,,,,,,,0,,,69,0
37290,note_on,0,0,1,,,,,,,,,0,,,72,0
37300,set_tempo,20,1,0,,,,,,1081081,,,,,,,
37302,note_on,34,0,2,,,,,,,,,0,,,51,0
37302,note_on,0,0,2,,,,,,,,,0,,,50,72
37320,set_tempo,20,1,0,,,,,,1090909,,,,,,,
37336,note_on,34,0,2,,,,,,,,,0,,,50,0
37336,note_on,0,0,2,,,,,,,,,0,,,49,72
37340,set_tempo,20,1,0,,,,,,1100917,,,,,,,
37360,set_tempo,20,1,0,,,,,,1111111,,,,,,,
37370,note_on,34,0,2,,,,,,,,,0,,,49,0
37370,note_on,0,0,2,,,,,,,,,0,,,48,72
37380,set_tempo,20,1,0,,,,,,1132075,,,,,,,
37400,set_tempo,20,1,0,,,,,,1304348,,,,,,,
37405,note_on,0,0,2,,,,,,,,,0,,,47,72
37405,note_on,35,0,2,,,,,,,,,0,,,48,0
37415,note_on,10,0,2,,,,,,,,,0,,,34,69
37420,note_on,5,0,2,,,,,,,,,0,,,46,86
37425,note_on,135,0,1,,,,,,,,,0,,,65,71
37430,note_on,5,0,1,,,,,,,,,0,,,70,71
37435,note_on,5,0,1,,,,,,,,,0,,,74,71
37440,note_on,5,0,1,,,,,,,,,0,,,82,88
37440,set_tempo,40,1,0,,,,,,1333333,,,,,,,
37440,note_on,20,0,2,,,,,,,,,0,,,47,0
37440,note_on,0,0,2,,,,,,,,,0,,,39,0
37454,control_change,14,0,2,,,,,,,,,0,64,127,,
37680,note_on,240,0,1,,,,,,,,,0,,,82,0
37680,note_on,0,0,1,,,,,,,,,0,,,65,0
37680,note_on,0,0,2,,,,,,,,,0,,,50,58
37680,note_on,0,0,2,,,,,,,,,0,,,53,58
37680,note_on,0,0,1,,,,,,,,,0,,,58,73
37680,note_on,0,0,1,,,,,,,,,0,,,70,0
37680,note_on,226,0,2,,,,,,,,,0,,,34,0
37680,note_on,0,0,1,,,,,,,,,0,,,74,0
37694,control_change,14,0,2,,,,,,,,,0,64,0,,
37770,note_on,76,0,2,,,,,,,,,0,,,53,0
37770,note_on,0,0,2,,,,,,,,,0,,,50,0
37770,note_on,90,0,1,,,,,,,,,0,,,58,0
37900,note_on,130,0,2,,,,,,,,,0,,,46,0
37920,marker,0,1,0,,,,,,,,,,,,,
37920,note_on,0,0,2,,,,,,,,,0,,,82,89
37920,set_tempo,480,1,0,,,,,,1395349,,,,,,,
37920,note_on,20,0,2,,,,,,,,,0,,,70,80
37949,control_change,29,0,2,,,,,,,,,0,64,127,,
37960,note_on,11,0,2,,,,,,,,,0,,,70,0
37980,note_on,20,0,2,,,,,,,,,0,,,82,0
37980,note_on,0,0,1,,,,,,,,,0,,,93,78
37980,note_on,210,0,1,,,,,,,,,0,,,81,70
38000,note_on,20,0,1,,,,,,,,,0,,,93,0
38000,note_on,0,0,2,,,,,,,,,0,,,68,69
38000,set_tempo,80,1,0,,,,,,930233,,,,,,,
38000,note_on,0,0,1,,,,,,,,,0,,,81,0
38000,note_on,20,0,2,,,,,,,,,0,,,80,77
38040,note_on,0,0,1,,,,,,,,,0,,,79,71
38040,set_tempo,40,1,0,,,,,,923077,,,,,,,
38040,note_on,40,0,1,,,,,,,,,0,,,91,79
38051,note_on,51,0,2,,,,,,,,,0,,,68,0
38051,note_on,0,0,2,,,,,,,,,0,,,80,0
38080,set_tempo,40,1,0,,,,,,916031,,,,,,,
38080,note_on,0,0,2,,,,,,,,,0,,,66,71
38080,note_on,29,0,2,,,,,,,,,0,,,78,79
38092,note_on,52,0,1,,,,,,,,,0,,,79,0
38092,note_on,0,0,1,,,,,,,,,0,,,91,0
38120,note_on,28,0,1,,,,,,,,,0,,,89,82
38120,note_on,0,0,1,,,,,,,,,0,,,77,73
38120,set_tempo,40,1,0,,,,,,909091,,,,,,,
38133,note_on,53,0,2,,,,,,,,,0,,,66,0
38133,note_on,0,0,2,,,,,,,,,0,,,78,0
38160,note_on,27,0,2,,,,,,,,,0,,,64,73
38160,set_tempo,40,1,0,,,,,,902256,,,,,,,
38160,note_on,0,0,2,,,,,,,,,0,,,76,82
38174,note_on,0,0,1,,,,,,,,,0,,,89,0
38174,note_on,54,0,1,,,,,,,,,0,,,77,0
38177,control_change,17,0,2,,,,,,,,,0,64,0,,
38200,note_on,0,0,1,,,,,,,,,0,,,75,75
38200,set_tempo,40,1,0,,,,,,895522,,,,,,,
38200,note_on,26,0,1,,,,,,,,,0,,,87,85
38206,control_change,29,0,2,,,,,,,,,0,64,127,,
38215,note_on,0,0,2,,,,,,,,,0,,,64,0
38215,note_on,9,0,2,,,,,,,,,0,,,76,0
38240,note_on,0,0,2,,,,,,,,,0,,,74,85
38240,note_on,25,0,2,,,,,,,,,0,,,62,75
38240,set_tempo,40,1,0,,,,,,888889,,,,,,,
38256,note_on,0,0,1,,,,,,,,,0,,,87,0
38256,note_on,56,0,1,,,,,,,,,0,,,75,0
38280,set_tempo,40,1,0,,,,,,882353,,,,,,,
38280,note_on,24,0,1,,,,,,,,,0,,,73,78
38280,note_on,0,0,1,,,,,,,,,0,,,85,87
38297,note_on,0,0,2,,,,,,,,,0,,,62,0
38297,note_on,57,0,2,,,,,,,,,0,,,74,0
38320,note_on,23,0,2,,,,,,,,,0,,,60,78
38320,set_tempo,40,1,0,,,,,,875912,,,,,,,
38320,note_on,0,0,2,,,,,,,,,0,,,72,87
38338,note_on,58,0,1,,,,,,,,,0,,,85,0
38338,note_on,0,0,1,,,,,,,,,0,,,73,0
38360,set_tempo,40,1,0,,,,,,869565,,,,,,,
38360,note_on,22,0,1,,,,,,,,,0,,,83,90
38360,note_on,0,0,1,,,,,,,,,0,,,71,81
38379,note_on,0,0,2,,,,,,,,,0,,,60,0
38379,note_on,59,0,2,,,,,,,,,0,,,72,0
38400,note_on,0,0,2,,,,,,,,,0,,,58,85
38400,set_tempo,40,1,0,,,,,,1081081,,,,,,,
38400,note_on,21,0,2,,,,,,,,,0,,,70,94
38414,control_change,14,0,2,,,,,,,,,0,64,0,,
38420,note_on,60,0,1,,,,,,,,,0,,,71,0
38420,note_on,0,0,1,,,,,,,,,0,,,83,0
38520,note_on,0,0,2,,,,,,,,,0,,,70,0
38520,note_on,106,0,2,,,,,,,,,0,,,58,0
38640,note_on,0,0,1,,,,,,,,,0,,,58,70
38640,note_on,120,0,2,,,,,,,,,0,,,34,71
38640,note_on,0,0,2,,,,,,,,,0,,,41,71
38640,note_on,0,0,2,,,,,,,,,0,,,46,71
38640,note_on,0,0,1,,,,,,,,,0,,,53,70
38640,note_on,0,0,1,,,,,,,,,0,,,62,78
38640,set_tempo,240,1,0,,,,,,1212121,,,,,,,
38640,note_on,220,0,1,,,,,,,,,0,,,50,70
38880,note_on,0,0,1,,,,,,,,,0,,,50,0
38880,note_on,0,0,2,,,,,,,,,0,,,74,80
38880,note_on,0,0,2,,,,,,,,,0,,,34,0
38880,note_on,240,0,1,,,,,,,,,0,,,53,0
38880,set_tempo,240,1,0,,,,,,1395349,,,,,,,
38880,note_on,0,0,1,,,,,,,,,0,,,58,0
38880,note_on,0,0,1,,,,,,,,,0,,,62,0
38880,note_on,0,0,2,,,,,,,,,0,,,86,89
38880,note_on,0,0,2,,,,,,,,,0,,,46,0
38880,note_on,240,0,2,,,,,,,,,0,,,41,0
38906,control_change,26,0,2,,,,,,,,,0,64,127,,
38920,note_on,14,0,2,,,,,,,,,0,,,74,0
38940,note_on,20,0,2,,,,,,,,,0,,,86,0
38940,note_on,0,0,1,,,,,,,,,0,,,97,78
38940,note_on,60,0,1,,,,,,,,,0,,,85,70
38960,set_tempo,80,1,0,,,,,,930233,,,,,,,
38960,note_on,20,0,1,,,,,,,,,0,,,97,0
38960,note_on,20,0,2,,,,,,,,,0,,,84,77
38960,note_on,0,0,2,,,,,,,,,0,,,72,69
38960,note_on,0,0,1,,,,,,,,,0,,,85,0
39000,note_on,0,0,1,,,,,,,,,0,,,83,71
39000,set_tempo,40,1,0,,,,,,923077,,,,,,,
39000,note_on,40,0,1,,,,,,,,,0,,,95,79
39011,note_on,51,0,2,,,,,,,,,0,,,72,0
39011,note_on,0,0,2,,,,,,,,,0,,,84,0
39040,note_on,0,0,2,,,,,,,,,0,,,70,71
39040,note_on,29,0,2,,,,,,,,,0,,,82,79
39040,set_tempo,40,1,0,,,,,,916031,,,,,,,
39052,note_on,0,0,1,,,,,,,,,0,,,95,0
39052,note_on,52,0,1,,,,,,,,,0,,,83,0
39080,note_on,0,0,1,,,,,,,,,0,,,81,73
39080,set_tempo,40,1,0,,,,,,909091,,,,,,,
39080,note_on,28,0,1,,,,,,,,,0,,,93,82
39091,control_change,51,0,2,,,,,,,,,0,64,0,,
39093,note_on,2,0,2,,,,,,,,,0,,,70,0
39093,note_on,0,0,2,,,,,,,,,0,,,82,0
39117,control_change,24,0,2,,,,,,,,,0,64,127,,
39120,note_on,3,0,2,,,,,,,,,0,,,80,82
39120,note_on,0,0,2,,,,,,,,,0,,,68,73
39120,set_tempo,40,1,0,,,,,,902256,,,,,,,
39134,note_on,0,0,1,,,,,,,,,0,,,93,0
39134,note_on,54,0,1,,,,,,,,,0,,,81,0
39160,note_on,0,0,1,,,,,,,,,0,,,79,75
39160,note_on,26,0,1,,,,,,,,,0,,,91,85
39160,set_tempo,40,1,0,,,,,,895522,,,,,,,
39175,note_on,0,0,2,,,,,,,,,0,,,80,0
39175,note_on,55,0,2,,,,,,,,,0,,,68,0
39200,note_on,25,0,2,,,,,,,,,0,,,78,85
39200,set_tempo,40,1,0,,,,,,888889,,,,,,,
39200,note_on,0,0,2,,,,,,,,,0,,,66,75
39216,note_on,56,0,1,,,,,,,,,0,,,79,0
39216,note_on,0,0,1,,,,,,,,,0,,,91,0
39240,note_on,24,0,1,,,,,,,,,0,,,89,87
39240,note_on,0,0,1,,,,,,,,,0,,,77,78
39240,set_tempo,40,1,0,,,,,,882353,,,,,,,
39257,note_on,0,0,2,,,,,,,,,0,,,78,0
39257,note_on,57,0,2,,,,,,,,,0,,,66,0
39280,note_on,23,0,2,,,,,,,,,0,,,64,78
39280,note_on,0,0,2,,,,,,,,,0,,,76,87
39280,set_tempo,40,1,0,,,,,,875912,,,,,,,
39298,note_on,0,0,1,,,,,,,,,0,,,89,0
39298,note_on,58,0,1,,,,,,,,,0,,,77,0
39320,note_on,22,0,1,,,,,,,,,0,,,75,81
39320,note_on,0,0,1,,,,,,,,,0,,,87,90
39320,set_tempo,40,1,0,,,,,,869565,,,,,,,
39339,note_on,59,0,2,,,,,,,,,0,,,76,0
39339,note_on,0,0,2,,,,,,,,,0,,,64,0
39360,note_on,0,0,2,,,,,,,,,0,,,74,94
39360,note_on,0,0,2,,,,,,,,,0,,,62,85
39360,control_change,21,0,2,,,,,,,,,0,64,0,,
39360,set_tempo,40,1,0,,,,,,1081081,,,,,,,
39380,note_on,60,0,1,,,,,,,,,0,,,87,0
39380,note_on,0,0,1,,,,,,,,,0,,,75,0
39480,note_on,120,0,2,,,,,,,,,0,,,62,0
39480,note_on,0,0,2,,,,,,,,,0,,,74,0
39600,note_on,0,0,2,,,,,,,,,0,,,50,71
39600,note_on,0,0,2,,,,,,,,,0,,,34,71
39600,note_on,220,0,1,,,,,,,,,0,,,65,78
39600,note_on,120,0,2,,,,,,,,,0,,,41,71
39600,note_on,0,0,1,,,,,,,,,0,,,53,70
39600,note_on,0,0,1,,,,,,,,,0,,,58,70
39600,note_on,0,0,1,,,,,,,,,0,,,62,70
39840,note_on,0,0,2,,,,,,,,,0,,,77,74
39840,note_on,240,0,2,,,,,,,,,0,,,50,0
39840,note_on,0,0,2,,,,,,,,,0,,,34,0
39840,note_on,0,0,1,,,,,,,,,0,,,65,0
39840,note_on,0,0,1,,,,,,,,,0,,,58,0
39840,note_on,0,0,1,,,,,,,,,0,,,53,0
39840,set_tempo,480,1,0,,,,,,1463415,,,,,,,
39840,note_on,0,0,2,,,,,,,,,0,,,41,0
39840,note_on,0,0,2,,,,,,,,,0,,,89,83
39840,note_on,240,0,1,,,,,,,,,0,,,62,0
39880,note_on,40,0,2,,,,,,,,,0,,,77,0
39880,note_on,40,0,1,,,,,,,,,0,,,88,66
39880,note_on,0,0,1,,,,,,,,,0,,,100,74
39880,note_on,0,0,2,,,,,,,,,0,,,89,0
39920,set_tempo,80,1,0,,,,,,916031,,,,,,,
39920,note_on,0,0,1,,,,,,,,,0,,,88,0
39920,note_on,0,0,2,,,,,,,,,0,,,75,74
39920,note_on,40,0,1,,,,,,,,,0,,,100,0
39920,note_on,40,0,2,,,,,,,,,0,,,87,83
39960,note_on,40,0,1,,,,,,,,,0,,,98,74
39960,note_on,0,0,1,,,,,,,,,0,,,86,66
39960,note_on,0,0,2,,,,,,,,,0,,,87,0
39960,note_on,40,0,2,,,,,,,,,0,,,75,0
39960,set_tempo,40,1,0,,,,,,909091,,,,,,,
39980,set_tempo,20,1,0,,,,,,902256,,,,,,,
40000,note_on,0,0,1,,,,,,,,,0,,,98,0
40000,note_on,40,0,2,,,,,,,,,0,,,85,85
40000,note_on,0,0,2,,,,,,,,,0,,,73,75
40000,set_tempo,20,1,0,,,,,,895522,,,,,,,
40000,note_on,40,0,1,,,,,,,,,0,,,86,0
40020,set_tempo,20,1,0,,,,,,888889,,,,,,,
40040,note_on,40,0,2,,,,,,,,,0,,,73,0
40040,note_on,0,0,1,,,,,,,,,0,,,84,67
40040,note_on,40,0,1,,,,,,,,,0,,,96,75
40040,note_on,0,0,2,,,,,,,,,0,,,85,0
40040,set_tempo,20,1,0,,,,,,882353,,,,,,,
40080,note_on,40,0,1,,,,,,,,,0,,,84,0
40080,note_on,0,0,2,,,,,,,,,0,,,71,77
40080,set_tempo,40,1,0,,,,,,875912,,,,,,,
40080,note_on,40,0,2,,,,,,,,,0,,,83,86
40080,note_on,0,0,1,,,,,,,,,0,,,96,0
40100,set_tempo,20,1,0,,,,,,869565,,,,,,,
40120,note_on,0,0,2,,,,,,,,,0,,,83,0
40120,note_on,40,0,2,,,,,,,,,0,,,71,0
40120,note_on,40,0,1,,,,,,,,,0,,,94,75
40120,note_on,0,0,1,,,,,,,,,0,,,82,67
40160,note_on,40,0,1,,,,,,,,,0,,,82,0
40160,note_on,0,0,1,,,,,,,,,0,,,94,0
40160,note_on,40,0,2,,,,,,,,,0,,,81,87
40160,note_on,0,0,2,,,,,,,,,0,,,69,78
40200,note_on,0,0,2,,,,,,,,,0,,,81,0
40200,note_on,40,0,1,,,,,,,,,0,,,92,77
40200,note_on,0,0,1,,,,,,,,,0,,,80,69
40200,note_on,40,0,2,,,,,,,,,0,,,69,0
40240,note_on,0,0,2,,,,,,,,,0,,,79,88
40240,note_on,0,0,1,,,,,,,,,0,,,92,0
40240,note_on,40,0,2,,,,,,,,,0,,,67,79
40240,note_on,40,0,1,,,,,,,,,0,,,80,0
40280,note_on,0,0,1,,,,,,,,,0,,,90,77
40280,note_on,40,0,2,,,,,,,,,0,,,79,0
40280,note_on,40,0,1,,,,,,,,,0,,,78,69
40280,note_on,0,0,2,,,,,,,,,0,,,67,0
40320,note_on,40,0,1,,,,,,,,,0,,,90,0
40320,note_on,0,0,2,,,,,,,,,0,,,77,88
40320,note_on,0,0,1,,,,,,,,,0,,,78,0
40320,note_on,40,0,2,,,,,,,,,0,,,65,79
40360,note_on,0,0,1,,,,,,,,,0,,,76,70
40360,note_on,40,0,2,,,,,,,,,0,,,77,0
40360,note_on,0,0,2,,,,,,,,,0,,,65,0
40360,note_on,40,0,1,,,,,,,,,0,,,88,78
40400,note_on,0,0,1,,,,,,,,,0,,,88,0
40400,note_on,0,0,2,,,,,,,,,0,,,75,89
40400,note_on,40,0,2,,,,,,,,,0,,,63,80
40400,note_on,40,0,1,,,,,,,,,0,,,76,0
40440,note_on,0,0,1,,,,,,,,,0,,,74,70
40440,note_on,40,0,2,,,,,,,,,0,,,75,0
40440,note_on,0,0,2,,,,,,,,,0,,,63,0
40440,note_on,40,0,1,,,,,,,,,0,,,86,78
40480,note_on,0,0,1,,,,,,,,,0,,,86,0
40480,note_on,40,0,2,,,,,,,,,0,,,61,81
40480,note_on,0,0,2,,,,,,,,,0,,,73,90
40480,note_on,40,0,1,,,,,,,,,0,,,74,0
40520,note_on,0,0,1,,,,,,,,,0,,,72,71
40520,note_on,40,0,1,,,,,,,,,0,,,84,79
40520,note_on,40,0,2,,,,,,,,,0,,,61,0
40525,note_on,5,0,2,,,,,,,,,0,,,73,0
40560,note_on,0,0,2,,,,,,,,,0,,,59,82
40560,note_on,35,0,2,,,,,,,,,0,,,71,92
40565,note_on,0,0,1,,,,,,,,,0,,,84,0
40565,note_on,45,0,1,,,,,,,,,0,,,72,0
40600,note_on,35,0,1,,,,,,,,,0,,,82,79
40600,note_on,0,0,1,,,,,,,,,0,,,70,71
40605,note_on,45,0,2,,,,,,,,,0,,,59,0
40610,note_on,5,0,2,,,,,,,,,0,,,71,0
40640,note_on,30,0,2,,,,,,,,,0,,,69,92
40640,note_on,0,0,2,,,,,,,,,0,,,57,82
40650,note_on,50,0,1,,,,,,,,,0,,,70,0
40650,note_on,0,0,1,,,,,,,,,0,,,82,0
40680,note_on,0,0,1,,,,,,,,,0,,,68,72
40680,note_on,30,0,1,,,,,,,,,0,,,80,80
40690,note_on,0,0,2,,,,,,,,,0,,,69,0
40690,note_on,50,0,2,,,,,,,,,0,,,57,0
40720,note_on,30,0,2,,,,,,,,,0,,,67,93
40720,note_on,0,0,2,,,,,,,,,0,,,55,82
40730,note_on,50,0,1,,,,,,,,,0,,,68,0
40730,note_on,0,0,1,,,,,,,,,0,,,80,0
40760,note_on,0,0,1,,,,,,,,,0,,,66,72
40760,note_on,30,0,1,,,,,,,,,0,,,78,80
40770,note_on,0,0,2,,,,,,,,,0,,,67,0
40770,note_on,50,0,2,,,,,,,,,0,,,55,0
40800,set_tempo,700,1,0,,,,,,869565,,,,,,,
40800,note_on,30,0,2,,,,,,,,,0,,,65,94
40800,note_on,0,0,2,,,,,,,,,0,,,53,83
40810,note_on,50,0,1,,,,,,,,,0,,,66,0
40810,note_on,0,0,1,,,,,,,,,0,,,78,0
40811,control_change,11,0,2,,,,,,,,,0,64,127,,
40840,note_on,30,0,1,,,,,,,,,0,,,64,72
40840,note_on,0,0,1,,,,,,,,,0,,,76,81
40850,note_on,0,0,2,,,,,,,,,0,,,65,0
40850,note_on,39,0,2,,,,,,,,,0,,,53,0
40880,note_on,0,0,2,,,,,,,,,0,,,51,85
40880,note_on,30,0,2,,,,,,,,,0,,,63,95
40880,set_tempo,80,1,0,,,,,,875912,,,,,,,
40890,note_on,0,0,1,,,,,,,,,0,,,64,0
40890,note_on,50,0,1,,,,,,,,,0,,,76,0
40920,note_on,0,0,1,,,,,,,,,0,,,62,72
40920,note_on,30,0,1,,,,,,,,,0,,,74,81
40931,note_on,51,0,2,,,,,,,,,0,,,51,0
40931,note_on,0,0,2,,,,,,,,,0,,,63,0
40960,note_on,29,0,2,,,,,,,,,0,,,61,96
40960,note_on,0,0,2,,,,,,,,,0,,,49,86
40960,set_tempo,80,1,0,,,,,,882353,,,,,,,
40972,note_on,52,0,1,,,,,,,,,0,,,62,0
40972,note_on,0,0,1,,,,,,,,,0,,,74,0
41000,note_on,28,0,1,,,,,,,,,0,,,60,73
41000,note_on,0,0,1,,,,,,,,,0,,,72,82
41013,note_on,53,0,2,,,,,,,,,0,,,49,0
41013,note_on,0,0,2,,,,,,,,,0,,,61,0
41017,control_change,4,0,2,,,,,,,,,0,64,0,,
41040,note_on,0,0,2,,,,,,,,,0,,,59,96
41040,set_tempo,80,1,0,,,,,,888889,,,,,,,
41040,note_on,23,0,2,,,,,,,,,0,,,47,86
41046,control_change,6,0,2,,,,,,,,,0,64,127,,
41054,note_on,0,0,1,,,,,,,,,0,,,60,0
41054,note_on,54,0,1,,,,,,,,,0,,,72,0
41080,note_on,0,0,1,,,,,,,,,0,,,58,73
41080,note_on,26,0,1,,,,,,,,,0,,,70,82
41095,note_on,49,0,2,,,,,,,,,0,,,59,0
41095,note_on,0,0,2,,,,,,,,,0,,,47,0
41120,set_tempo,80,1,0,,,,,,895522,,,,,,,
41120,note_on,25,0,2,,,,,,,,,0,,,57,97
41120,note_on,0,0,2,,,,,,,,,0,,,45,87
41136,note_on,56,0,1,,,,,,,,,0,,,58,0
41136,note_on,0,0,1,,,,,,,,,0,,,70,0
41160,note_on,0,0,1,,,,,,,,,0,,,56,73
41160,note_on,24,0,1,,,,,,,,,0,,,68,82
41177,note_on,57,0,2,,,,,,,,,0,,,45,0
41177,note_on,0,0,2,,,,,,,,,0,,,57,0
41200,set_tempo,80,1,0,,,,,,902256,,,,,,,
41200,note_on,0,0,2,,,,,,,,,0,,,53,98
41200,note_on,23,0,2,,,,,,,,,0,,,41,88
41218,note_on,58,0,1,,,,,,,,,0,,,56,0
41218,note_on,0,0,1,,,,,,,,,0,,,68,0
41231,control_change,31,0,2,,,,,,,,,0,64,0,,
41240,note_on,0,0,1,,,,,,,,,0,,,50,73
41240,note_on,22,0,1,,,,,,,,,0,,,62,82
41259,note_on,28,0,2,,,,,,,,,0,,,53,0
41259,note_on,0,0,2,,,,,,,,,0,,,41,0
41280,note_on,0,0,2,,,,,,,,,0,,,34,94
41280,set_tempo,80,1,0,,,,,,909091,,,,,,,
41280,note_on,21,0,2,,,,,,,,,0,,,46,105
41288,control_change,8,0,2,,,,,,,,,0,64,127,,
41300,note_on,0,0,1,,,,,,,,,0,,,62,0
41300,note_on,60,0,1,,,,,,,,,0,,,50,0
41484,control_change,196,0,2,,,,,,,,,0,64,0,,
41520,note_on,220,0,1,,,,,,,,,0,,,45,83
41520,note_on,36,0,2,,,,,,,,,0,,,34,0
41520,set_tempo,240,1,0,,,,,,909091,,,,,,,
41520,note_on,0,0,2,,,,,,,,,0,,,33,83
41520,note_on,0,0,2,,,,,,,,,0,,,46,0
41560,set_tempo,40,1,0,,,,,,902256,,,,,,,
41560,note_on,40,0,2,,,,,,,,,0,,,33,0
41560,note_on,40,0,1,,,,,,,,,0,,,45,0
41560,note_on,0,0,2,,,,,,,,,0,,,34,81
41560,note_on,0,0,1,,,,,,,,,0,,,46,81
41580,set_tempo,20,1,0,,,,,,895522,,,,,,,
41600,note_on,40,0,1,,,,,,,,,0,,,46,0
41600,note_on,0,0,1,,,,,,,,,0,,,50,81
41600,note_on,40,0,2,,,,,,,,,0,,,34,0
41600,note_on,0,0,2,,,,,,,,,0,,,38,81
41620,set_tempo,40,1,0,,,,,,888889,,,,,,,
41640,note_on,40,0,2,,,,,,,,,0,,,41,82
41640,set_tempo,20,1,0,,,,,,882353,,,,,,,
41640,note_on,40,0,1,,,,,,,,,0,,,53,82
41645,note_on,5,0,2,,,,,,,,,0,,,38,0
41645,note_on,5,0,1,,,,,,,,,0,,,50,0
41660,set_tempo,20,1,0,,,,,,875912,,,,,,,
41680,note_on,35,0,2,,,,,,,,,0,,,44,82
41680,note_on,35,0,1,,,,,,,,,0,,,56,82
41686,note_on,6,0,1,,,,,,,,,0,,,53,0
41686,note_on,6,0,2,,,,,,,,,0,,,41,0
41700,set_tempo,40,1,0,,,,,,869565,,,,,,,
41720,note_on,34,0,2,,,,,,,,,0,,,46,83
41720,set_tempo,20,1,0,,,,,,863309,,,,,,,
41720,note_on,34,0,1,,,,,,,,,0,,,58,83
41727,note_on,7,0,2,,,,,,,,,0,,,44,0
41727,note_on,7,0,1,,,,,,,,,0,,,56,0
41740,set_tempo,20,1,0,,,,,,857143,,,,,,,
41760,note_on,33,0,2,,,,,,,,,0,,,50,83
41760,note_on,33,0,1,,,,,,,,,0,,,62,83
41760,set_tempo,20,1,0,,,,,,857143,,,,,,,
41768,note_on,8,0,1,,,,,,,,,0,,,58,0
41768,note_on,8,0,2,,,,,,,,,0,,,46,0
41800,note_on,32,0,1,,,,,,,,,0,,,65,85
41800,note_on,32,0,2,,,,,,,,,0,,,53,85
41809,note_on,9,0,1,,,,,,,,,0,,,62,0
41809,note_on,9,0,2,,,,,,,,,0,,,50,0
41810,control_change,1,0,2,,,,,,,,,0,64,127,,
41840,note_on,30,0,2,,,,,,,,,0,,,56,85
41840,note_on,31,0,1,,,,,,,,,0,,,68,85
41850,note_on,10,0,1,,,,,,,,,0,,,65,0
41850,note_on,10,0,2,,,,,,,,,0,,,53,0
41880,note_on,0,0,2,,,,,,,,,0,,,58,86
41880,note_on,0,0,1,,,,,,,,,0,,,70,86
41880,note_on,30,0,1,,,,,,,,,0,,,68,0
41880,note_on,30,0,2,,,,,,,,,0,,,56,0
41920,note_on,0,0,1,,,,,,,,,0,,,74,86
41920,note_on,40,0,1,,,,,,,,,0,,,70,0
41920,note_on,0,0,2,,,,,,,,,0,,,62,86
41920,set_tempo,160,1,0,,,,,,863309,,,,,,,
41920,note_on,40,0,2,,,,,,,,,0,,,58,0
41960,note_on,40,0,1,,,,,,,,,0,,,74,0
41960,note_on,40,0,2,,,,,,,,,0,,,62,0
41960,note_on,0,0,2,,,,,,,,,0,,,65,86
41960,note_on,0,0,1,,,,,,,,,0,,,77,86
42000,note_on,40,0,2,,,,,,,,,0,,,65,0
42000,note_on,0,0,2,,,,,,,,,0,,,68,87
42000,note_on,40,0,1,,,,,,,,,0,,,77,0
42000,note_on,0,0,1,,,,,,,,,0,,,80,87
42048,note_on,0,0,1,,,,,,,,,0,,,82,87
42048,note_on,0,0,2,,,,,,,,,0,,,70,87
42048,note_on,48,0,2,,,,,,,,,0,,,68,0
42048,note_on,48,0,1,,,,,,,,,0,,,80,0
42080,set_tempo,160,1,0,,,,,,869565,,,,,,,
42096,note_on,48,0,1,,,,,,,,,0,,,82,0
42096,note_on,0,0,1,,,,,,,,,0,,,86,88
42096,note_on,48,0,2,,,,,,,,,0,,,70,0
42096,note_on,0,0,2,,,,,,,,,0,,,74,88
42144,note_on,48,0,1,,,,,,,,,0,,,86,0
42144,note_on,0,0,2,,,,,,,,,0,,,77,89
42144,note_on,0,0,1,,,,,,,,,0,,,89,89
42144,note_on,48,0,2,,,,,,,,,0,,,74,0
42192,note_on,0,0,1,,,,,,,,,0,,,92,89
42192,note_on,48,0,2,,,,,,,,,0,,,77,0
42192,note_on,48,0,1,,,,,,,,,0,,,89,0
42192,note_on,0,0,2,,,,,,,,,0,,,80,89
42199,control_change,7,0,2,,,,,,,,,0,64,0,,
42220,set_tempo,140,1,0,,,,,,875912,,,,,,,
42240,note_on,0,0,1,,,,,,,,,0,,,93,90
42240,note_on,41,0,2,,,,,,,,,0,,,80,0
42240,note_on,48,0,1,,,,,,,,,0,,,92,0
42240,set_tempo,20,1,0,,,,,,1000000,,,,,,,
42240,note_on,0,0,2,,,,,,,,,0,,,81,90
42265,note_on,25,0,1,,,,,,,,,0,,,93,0
42265,note_on,25,0,2,,,,,,,,,0,,,81,0
42274,note_on,9,0,1,,,,,,,,,0,,,96,87
42274,note_on,9,0,2,,,,,,,,,0,,,84,87
42300,set_tempo,60,1,0,,,,,,991736,,,,,,,
42304,note_on,30,0,2,,,,,,,,,0,,,84,0
42304,note_on,30,0,1,,,,,,,,,0,,,96,0
42308,note_on,4,0,1,,,,,,,,,0,,,94,86
42308,note_on,4,0,2,,,,,,,,,0,,,82,86
42338,note_on,30,0,2,,,,,,,,,0,,,82,0
42338,note_on,30,0,1,,,,,,,,,0,,,94,0
42342,note_on,4,0,2,,,,,,,,,0,,,80,86
42342,note_on,4,0,1,,,,,,,,,0,,,92,86
42360,set_tempo,60,1,0,,,,,,983607,,,,,,,
42372,note_on,30,0,2,,,,,,,,,0,,,80,0
42372,note_on,30,0,1,,,,,,,,,0,,,92,0
42376,note_on,4,0,2,,,,,,,,,0,,,77,86
42376,note_on,4,0,1,,,,,,,,,0,,,89,86
42406,note_on,30,0,1,,,,,,,,,0,,,89,0
42406,note_on,30,0,2,,,,,,,,,0,,,77,0
42410,note_on,4,0,1,,,,,,,,,0,,,86,86
42410,note_on,4,0,2,,,,,,,,,0,,,74,86
42420,set_tempo,60,1,0,,,,,,975610,,,,,,,
42440,note_on,30,0,1,,,,,,,,,0,,,86,0
42440,note_on,30,0,2,,,,,,,,,0,,,74,0
42444,note_on,4,0,1,,,,,,,,,0,,,82,86
42444,note_on,4,0,2,,,,,,,,,0,,,70,86
42474,note_on,30,0,1,,,,,,,,,0,,,82,0
42474,note_on,30,0,2,,,,,,,,,0,,,70,0
42480,set_tempo,60,1,0,,,,,,967742,,,,,,,
42480,note_on,6,0,2,,,,,,,,,0,,,69,90
42480,note_on,6,0,1,,,,,,,,,0,,,81,90
42510,note_on,30,0,2,,,,,,,,,0,,,69,0
42510,note_on,30,0,1,,,,,,,,,0,,,81,0
42514,note_on,4,0,2,,,,,,,,,0,,,72,87
42514,note_on,4,0,1,,,,,,,,,0,,,84,87
42548,note_on,34,0,2,,,,,,,,,0,,,72,0
42548,note_on,0,0,2,,,,,,,,,0,,,70,86
42548,note_on,34,0,1,,,,,,,,,0,,,84,0
42548,note_on,0,0,1,,,,,,,,,0,,,82,86
42582,note_on,0,0,2,,,,,,,,,0,,,68,86
42582,note_on,0,0,1,,,,,,,,,0,,,80,86
42582,note_on,34,0,2,,,,,,,,,0,,,70,0
42582,note_on,34,0,1,,,,,,,,,0,,,82,0
42616,note_on,0,0,1,,,,,,,,,0,,,77,86
42616,note_on,0,0,2,,,,,,,,,0,,,65,86
42616,note_on,34,0,1,,,,,,,,,0,,,80,0
42616,note_on,34,0,2,,,,,,,,,0,,,68,0
42650,note_on,34,0,2,,,,,,,,,0,,,65,0
42650,note_on,34,0,1,,,,,,,,,0,,,77,0
42650,note_on,0,0,1,,,,,,,,,0,,,74,86
42650,note_on,0,0,2,,,,,,,,,0,,,62,86
42684,note_on,34,0,2,,,,,,,,,0,,,62,0
42684,note_on,34,0,1,,,,,,,,,0,,,74,0
42684,note_on,0,0,1,,,,,,,,,0,,,70,86
42684,note_on,0,0,2,,,,,,,,,0,,,58,86
42718,note_on,34,0,2,,,,,,,,,0,,,58,0
42718,note_on,34,0,1,,,,,,,,,0,,,70,0
42720,note_on,2,0,1,,,,,,,,,0,,,69,90
42720,note_on,2,0,2,,,,,,,,,0,,,57,90
42750,note_on,30,0,2,,,,,,,,,0,,,57,0
42750,note_on,30,0,1,,,,,,,,,0,,,69,0
42754,note_on,4,0,2,,,,,,,,,0,,,60,87
42754,note_on,4,0,1,,,,,,,,,0,,,72,87
42788,note_on,0,0,1,,,,,,,,,0,,,70,86
42788,note_on,34,0,1,,,,,,,,,0,,,72,0
42788,note_on,34,0,2,,,,,,,,,0,,,60,0
42788,note_on,0,0,2,,,,,,,,,0,,,58,86
42822,note_on,0,0,1,,,,,,,,,0,,,68,86
42822,note_on,34,0,2,,,,,,,,,0,,,58,0
42822,note_on,0,0,2,,,,,,,,,0,,,56,86
42822,note_on,34,0,1,,,,,,,,,0,,,70,0
42856,note_on,34,0,2,,,,,,,,,0,,,56,0
42856,note_on,34,0,1,,,,,,,,,0,,,68,0
42856,note_on,0,0,2,,,,,,,,,0,,,53,86
42856,note_on,0,0,1,,,,,,,,,0,,,65,86
42890,note_on,34,0,1,,,,,,,,,0,,,65,0
42890,note_on,0,0,2,,,,,,,,,0,,,50,86
42890,note_on,0,0,1,,,,,,,,,0,,,62,86
42890,note_on,34,0,2,,,,,,,,,0,,,53,0
42924,note_on,0,0,2,,,,,,,,,0,,,46,85
42924,note_on,34,0,1,,,,,,,,,0,,,62,0
42924,note_on,34,0,2,,,,,,,,,0,,,50,0
42924,note_on,0,0,1,,,,,,,,,0,,,58,85
42958,note_on,34,0,1,,,,,,,,,0,,,58,0
42958,note_on,34,0,2,,,,,,,,,0,,,46,0
42960,note_on,2,0,2,,,,,,,,,0,,,45,87
42960,note_on,2,0,1,,,,,,,,,0,,,57,87
42960,set_tempo,480,1,0,,,,,,857143,,,,,,,
43000,set_tempo,40,1,0,,,,,,863309,,,,,,,
43008,note_on,48,0,2,,,,,,,,,0,,,46,89
43008,note_on,48,0,1,,,,,,,,,0,,,58,89
43010,note_on,2,0,2,,,,,,,,,0,,,45,0
43010,note_on,2,0,1,,,,,,,,,0,,,57,0
43040,set_tempo,40,1,0,,,,,,869565,,,,,,,
43056,note_on,46,0,2,,,,,,,,,0,,,50,93
43056,note_on,46,0,1,,,,,,,,,0,,,62,93
43058,note_on,2,0,2,,,,,,,,,0,,,46,0
43058,note_on,2,0,1,,,,,,,,,0,,,58,0
43060,set_tempo,20,1,0,,,,,,875912,,,,,,,
43100,set_tempo,40,1,0,,,,,,882353,,,,,,,
43104,note_on,46,0,2,,,,,,,,,0,,,53,95
43104,note_on,46,0,1,,,,,,,,,0,,,65,95
43106,note_on,2,0,1,,,,,,,,,0,,,62,0
43106,note_on,2,0,2,,,,,,,,,0,,,50,0
43120,set_tempo,20,1,0,,,,,,888889,,,,,,,
43152,note_on,46,0,1,,,,,,,,,0,,,68,98
43152,note_on,46,0,2,,,,,,,,,0,,,56,98
43159,note_on,7,0,1,,,,,,,,,0,,,65,0
43159,note_on,7,0,2,,,,,,,,,0,,,53,0
43160,set_tempo,40,1,0,,,,,,895522,,,,,,,
43180,set_tempo,20,1,0,,,,,,902256,,,,,,,
43200,set_tempo,0,1,0,,,,,,7058824,,,,,,,
43200,note_on,41,0,2,,,,,,,,,0,,,56,0
43200,time_signature,20,1,0,3,4,24,8,,,,,,,,,
43200,note_on,0,0,2,,,,,,,,,0,,,45,82
43200,note_on,0,0,2,,,,,,,,,0,,,57,103
43200,marker,0,1,0,,,,,,,,,,,,,
43200,note_on,41,0,1,,,,,,,,,0,,,68,0
43230,note_on,0,0,2,,,,,,,,,0,,,57,0
43230,note_on,30,0,2,,,,,,,,,0,,,45,0
43237,note_on,0,0,1,,,,,,,,,0,,,70,90
43237,note_on,37,0,1,,,,,,,,,0,,,58,72
43240,set_tempo,40,1,0,,,,,,1714286,,,,,,,
43250,note_on,13,0,1,,,,,,,,,0,,,70,0
43250,note_on,0,0,2,,,,,,,,,0,,,63,94
43250,note_on,0,0,1,,,,,,,,,0,,,58,0
43250,note_on,20,0,2,,,,,,,,,0,,,51,74
43260,set_tempo,20,1,0,,,,,,1690141,,,,,,,
43262,control_change,12,0,2,,,,,,,,,0,64,127,,
43275,note_on,0,0,1,,,,,,,,,0,,,62,65
43275,note_on,25,0,1,,,,,,,,,0,,,74,82
43280,set_tempo,20,1,0,,,,,,1643836,,,,,,,
43287,note_on,0,0,2,,,,,,,,,0,,,51,0
43287,note_on,25,0,2,,,,,,,,,0,,,63,0
43300,note_on,0,0,2,,,,,,,,,0,,,49,75
43300,set_tempo,20,1,0,,,,,,1600000,,,,,,,
43300,note_on,13,0,2,,,,,,,,,0,,,61,95
43312,note_on,37,0,1,,,,,,,,,0,,,62,0
43312,note_on,0,0,1,,,,,,,,,0,,,74,0
43320,set_tempo,20,1,0,,,,,,1558442,,,,,,,
43325,note_on,0,0,1,,,,,,,,,0,,,60,66
43325,note_on,13,0,1,,,,,,,,,0,,,72,83
43337,note_on,0,0,2,,,,,,,,,0,,,61,0
43337,note_on,37,0,2,,,,,,,,,0,,,49,0
43340,set_tempo,20,1,0,,,,,,1518987,,,,,,,
43350,note_on,13,0,2,,,,,,,,,0,,,59,97
43350,note_on,0,0,2,,,,,,,,,0,,,47,78
43360,set_tempo,20,1,0,,,,,,1500000,,,,,,,
43362,note_on,37,0,1,,,,,,,,,0,,,60,0
43362,note_on,0,0,1,,,,,,,,,0,,,72,0
43375,note_on,13,0,1,,,,,,,,,0,,,70,86
43375,note_on,0,0,1,,,,,,,,,0,,,58,69
43380,set_tempo,20,1,0,,,,,,1463415,,,,,,,
43387,note_on,37,0,2,,,,,,,,,0,,,47,0
43387,note_on,0,0,2,,,,,,,,,0,,,59,0
43400,set_tempo,20,1,0,,,,,,1428571,,,,,,,
43400,note_on,13,0,2,,,,,,,,,0,,,57,100
43400,note_on,0,0,2,,,,,,,,,0,,,45,80
43412,note_on,0,0,1,,,,,,,,,0,,,70,0
43412,note_on,37,0,1,,,,,,,,,0,,,58,0
43420,set_tempo,20,1,0,,,,,,1395349,,,,,,,
43421,control_change,21,0,2,,,,,,,,,0,64,0,,
43425,note_on,13,0,1,,,,,,,,,0,,,68,88
43425,note_on,0,0,1,,,,,,,,,0,,,56,71
43437,note_on,0,0,2,,,,,,,,,0,,,57,0
43437,note_on,16,0,2,,,,,,,,,0,,,45,0
43440,set_tempo,20,1,0,,,,,,1363636,,,,,,,
43443,control_change,6,0,2,,,,,,,,,0,64,127,,
43450,note_on,0,0,2,,,,,,,,,0,,,55,101
43450,note_on,7,0,2,,,,,,,,,0,,,43,81
43460,set_tempo,20,1,0,,,,,,1333333,,,,,,,
43462,note_on,0,0,1,,,,,,,,,0,,,68,0
43462,note_on,37,0,1,,,,,,,,,0,,,56,0
43475,note_on,0,0,1,,,,,,,,,0,,,54,72
43475,note_on,13,0,1,,,,,,,,,0,,,66,90
43480,set_tempo,20,1,0,,,,,,1318681,,,,,,,
43487,note_on,37,0,2,,,,,,,,,0,,,55,0
43487,note_on,0,0,2,,,,,,,,,0,,,43,0
43500,note_on,13,0,2,,,,,,,,,0,,,41,82
43500,set_tempo,20,1,0,,,,,,1290323,,,,,,,
43500,note_on,0,0,2,,,,,,,,,0,,,53,103
43512,note_on,37,0,1,,,,,,,,,0,,,54,0
43512,note_on,0,0,1,,,,,,,,,0,,,66,0
43520,set_tempo,20,1,0,,,,,,1263158,,,,,,,
43525,note_on,0,0,1,,,,,,,,,0,,,52,73
43525,note_on,13,0,1,,,,,,,,,0,,,64,92
43537,note_on,37,0,2,,,,,,,,,0,,,53,0
43537,note_on,0,0,2,,,,,,,,,0,,,41,0
43540,set_tempo,20,1,0,,,,,,1237113,,,,,,,
43550,note_on,0,0,2,,,,,,,,,0,,,51,104
43550,note_on,13,0,2,,,,,,,,,0,,,39,82
43560,set_tempo,20,1,0,,,,,,1212121,,,,,,,
43562,note_on,37,0,1,,,,,,,,,0,,,52,0
43562,note_on,0,0,1,,,,,,,,,0,,,64,0
43575,note_on,0,0,1,,,,,,,,,0,,,50,74
43575,note_on,13,0,1,,,,,,,,,0,,,62,94
43580,set_tempo,20,1,0,,,,,,1200000,,,,,,,
43587,note_on,37,0,2,,,,,,,,,0,,,51,0
43587,note_on,0,0,2,,,,,,,,,0,,,39,0
43600,note_on,0,0,2,,,,,,,,,0,,,49,106
43600,set_tempo,20,1,0,,,,,,1176471,,,,,,,
43600,note_on,13,0,2,,,,,,,,,0,,,37,106
43612,note_on,0,0,1,,,,,,,,,0,,,62,0
43612,note_on,37,0,1,,,,,,,,,0,,,50,0
43620,set_tempo,20,1,0,,,,,,1153846,,,,,,,
43625,note_on,13,0,1,,,,,,,,,0,,,48,77
43625,note_on,0,0,1,,,,,,,,,0,,,60,96
43637,note_on,37,0,2,,,,,,,,,0,,,49,0
43637,note_on,0,0,2,,,,,,,,,0,,,37,0
43640,set_tempo,20,1,0,,,,,,1132075,,,,,,,
43650,note_on,13,0,2,,,,,,,,,0,,,47,108
43650,note_on,0,0,2,,,,,,,,,0,,,35,108
43660,set_tempo,20,1,0,,,,,,1111111,,,,,,,
43662,note_on,0,0,1,,,,,,,,,0,,,48,0
43662,note_on,37,0,1,,,,,,,,,0,,,60,0
43680,set_tempo,20,1,0,,,,,,1000000,,,,,,,
43680,note_on,30,0,2,,,,,,,,,0,,,46,103
43680,note_on,0,0,2,,,,,,,,,0,,,34,83
43683,control_change,3,0,2,,,,,,,,,0,64,0,,
43695,note_on,12,0,2,,,,,,,,,0,,,35,0
43695,note_on,0,0,2,,,,,,,,,0,,,47,0
43770,note_on,0,0,2,,,,,,,,,0,,,34,0
43770,note_on,75,0,2,,,,,,,,,0,,,46,0
43920,note_on,0,0,1,,,,,,,,,0,,,75,90
43920,note_on,0,0,2,,,,,,,,,0,,,46,71
43920,note_on,0,0,2,,,,,,,,,0,,,39,71
43920,set_tempo,240,1,0,,,,,,1090909,,,,,,,
43920,note_on,258,0,1,,,,,,,,,0,,,63,72
43920,note_on,0,0,1,,,,,,,,,0,,,67,72
43920,note_on,150,0,2,,,,,,,,,0,,,51,71
44020,note_on,100,0,1,,,,,,,,,0,,,75,0
44020,note_on,0,0,1,,,,,,,,,0,,,67,0
44020,note_on,100,0,2,,,,,,,,,0,,,39,0
44020,note_on,0,0,1,,,,,,,,,0,,,63,0
44020,note_on,0,0,2,,,,,,,,,0,,,46,0
44020,note_on,0,0,2,,,,,,,,,0,,,51,0
44160,note_on,0,0,1,,,,,,,,,0,,,77,97
44160,note_on,0,0,1,,,,,,,,,0,,,68,78
44160,note_on,0,0,2,,,,,,,,,0,,,46,73
44160,note_on,140,0,2,,,,,,,,,0,,,53,73
44160,note_on,140,0,1,,,,,,,,,0,,,65,78
44160,note_on,0,0,2,,,,,,,,,0,,,39,73
44160,set_tempo,240,1,0,,,,,,1121495,,,,,,,
44260,note_on,100,0,1,,,,,,,,,0,,,77,0
44260,note_on,0,0,2,,,,,,,,,0,,,53,0
44260,note_on,0,0,1,,,,,,,,,0,,,65,0
44260,note_on,0,0,1,,,,,,,,,0,,,68,0
44260,note_on,100,0,2,,,,,,,,,0,,,39,0
44260,note_on,0,0,2,,,,,,,,,0,,,46,0
44400,note_on,0,0,2,,,,,,,,,0,,,46,71
44400,note_on,0,0,2,,,,,,,,,0,,,54,71
44400,set_tempo,240,1,0,,,,,,1188119,,,,,,,
44400,note_on,140,0,2,,,,,,,,,0,,,39,71
44400,note_on,0,0,1,,,,,,,,,0,,,69,72
44400,note_on,140,0,1,,,,,,,,,0,,,66,72
44400,note_on,0,0,1,,,,,,,,,0,,,78,90
44500,note_on,0,0,1,,,,,,,,,0,,,69,0
44500,note_on,100,0,1,,,,,,,,,0,,,78,0
44500,note_on,100,0,2,,,,,,,,,0,,,54,0
44500,note_on,0,0,1,,,,,,,,,0,,,66,0
44500,note_on,0,0,2,,,,,,,,,0,,,46,0
44500,note_on,0,0,2,,,,,,,,,0,,,39,0
44640,set_tempo,0,1,0,,,,,,1290323,,,,,,,
44640,note_on,0,0,1,,,,,,,,,0,,,67,78
44640,note_on,0,0,1,,,,,,,,,0,,,79,97
44640,note_on,140,0,1,,,,,,,,,0,,,70,78
44640,time_signature,240,1,0,4,4,24,8,,,,,,,,,
44640,note_on,140,0,2,,,,,,,,,0,,,55,92
44640,note_on,0,0,2,,,,,,,,,0,,,39,73
44640,note_on,0,0,2,,,,,,,,,0,,,46,73
44649,control_change,9,0,2,,,,,,,,,0,64,127,,
44880,note_on,240,0,1,,,,,,,,,0,,,79,0
44880,set_tempo,240,1,0,,,,,,1165049,,,,,,,
44880,note_on,0,0,1,,,,,,,,,0,,,63,72
44880,note_on,0,0,1,,,,,,,,,0,,,67,0
44880,note_on,0,0,1,,,,,,,,,0,,,70,0
44880,note_on,231,0,2,,,,,,,,,0,,,55,0
44880,note_on,0,0,1,,,,,,,,,0,,,75,89
44880,note_on,0,0,2,,,,,,,,,0,,,51,88
44891,control_change,11,0,2,,,,,,,,,0,64,0,,
45000,note_on,0,0,1,,,,,,,,,0,,,63,0
45000,note_on,120,0,1,,,,,,,,,0,,,75,0
45000,note_on,109,0,2,,,,,,,,,0,,,51,0
45120,note_on,0,0,2,,,,,,,,,0,,,46,0
45120,note_on,120,0,2,,,,,,,,,0,,,39,0
45120,note_on,0,0,2,,,,,,,,,0,,,45,95
45120,note_on,0,0,2,,,,,,,,,0,,,57,95
45120,set_tempo,240,1,0,,,,,,1714286,,,,,,,
45131,control_change,11,0,2,,,,,,,,,0,64,127,,
45165,note_on,34,0,2,,,,,,,,,0,,,45,0
45165,note_on,0,0,2,,,,,,,,,0,,,57,0
45171,note_on,0,0,1,,,,,,,,,0,,,70,86
45171,note_on,171,0,1,,,,,,,,,0,,,58,86
45180,set_tempo,60,1,0,,,,,,1263158,,,,,,,
45188,note_on,23,0,2,,,,,,,,,0,,,55,90
45188,note_on,0,0,1,,,,,,,,,0,,,58,0
45188,note_on,17,0,1,,,,,,,,,0,,,70,0
45188,note_on,0,0,2,,,,,,,,,0,,,67,90
45200,set_tempo,20,1,0,,,,,,1250000,,,,,,,
45220,set_tempo,20,1,0,,,,,,1224490,,,,,,,
45222,note_on,34,0,1,,,,,,,,,0,,,65,78
45222,note_on,0,0,1,,,,,,,,,0,,,77,78
45239,note_on,0,0,2,,,,,,,,,0,,,55,0
45239,note_on,51,0,2,,,,,,,,,0,,,67,0
45240,set_tempo,20,1,0,,,,,,1200000,,,,,,,
45256,note_on,17,0,2,,,,,,,,,0,,,63,93
45256,note_on,0,0,2,,,,,,,,,0,,,51,93
45260,set_tempo,20,1,0,,,,,,1176471,,,,,,,
45273,note_on,0,0,1,,,,,,,,,0,,,65,0
45273,note_on,51,0,1,,,,,,,,,0,,,77,0
45280,set_tempo,20,1,0,,,,,,1153846,,,,,,,
45290,note_on,0,0,1,,,,,,,,,0,,,74,80
45290,note_on,17,0,1,,,,,,,,,0,,,62,80
45300,set_tempo,20,1,0,,,,,,1142857,,,,,,,
45307,note_on,0,0,2,,,,,,,,,0,,,63,0
45307,note_on,51,0,2,,,,,,,,,0,,,51,0
45320,set_tempo,20,1,0,,,,,,1121495,,,,,,,
45324,note_on,0,0,2,,,,,,,,,0,,,48,95
45324,note_on,17,0,2,,,,,,,,,0,,,60,95
45340,set_tempo,20,1,0,,,,,,1100917,,,,,,,
45341,note_on,51,0,1,,,,,,,,,0,,,74,0
45341,note_on,0,0,1,,,,,,,,,0,,,62,0
45349,control_change,25,0,2,,,,,,,,,0,64,0,,
45358,note_on,17,0,1,,,,,,,,,0,,,58,83
45358,note_on,0,0,1,,,,,,,,,0,,,70,83
45360,set_tempo,20,1,0,,,,,,1081081,,,,,,,
45371,control_change,22,0,2,,,,,,,,,0,64,127,,
45375,note_on,4,0,2,,,,,,,,,0,,,48,0
45375,note_on,0,0,2,,,,,,,,,0,,,60,0
45380,set_tempo,20,1,0,,,,,,1061947,,,,,,,
45392,note_on,0,0,2,,,,,,,,,0,,,44,97
45392,note_on,17,0,2,,,,,,,,,0,,,56,97
45400,set_tempo,20,1,0,,,,,,1052632,,,,,,,
45409,note_on,0,0,1,,,,,,,,,0,,,58,0
45409,note_on,51,0,1,,,,,,,,,0,,,70,0
45420,set_tempo,20,1,0,,,,,,1034483,,,,,,,
45426,note_on,0,0,1,,,,,,,,,0,,,67,85
45426,note_on,17,0,1,,,,,,,,,0,,,55,85
45440,set_tempo,20,1,0,,,,,,1016949,,,,,,,
45443,note_on,0,0,2,,,,,,,,,0,,,56,0
45443,note_on,51,0,2,,,,,,,,,0,,,44,0
45460,note_on,0,0,2,,,,,,,,,0,,,41,101
45460,note_on,17,0,2,,,,,,,,,0,,,53,101
45460,set_tempo,20,1,0,,,,,,1000000,,,,,,,
45477,note_on,0,0,1,,,,,,,,,0,,,55,0
45477,note_on,51,0,1,,,,,,,,,0,,,67,0
45480,set_tempo,20,1,0,,,,,,983607,,,,,,,
45494,note_on,17,0,1,,,,,,,,,0,,,51,88
45494,note_on,0,0,1,,,,,,,,,0,,,63,88
45500,set_tempo,20,1,0,,,,,,975610,,,,,,,
45511,note_on,0,0,2,,,,,,,,,0,,,53,0
45511,note_on,51,0,2,,,,,,,,,0,,,41,0
45520,set_tempo,20,1,0,,,,,,960000,,,,,,,
45528,note_on,0,0,2,,,,,,,,,0,,,50,103
45528,note_on,17,0,2,,,,,,,,,0,,,38,103
45540,set_tempo,20,1,0,,,,,,944882,,,,,,,
45545,note_on,51,0,1,,,,,,,,,0,,,63,0
45545,note_on,0,0,1,,,,,,,,,0,,,51,0
45560,set_tempo,20,1,0,,,,,,930233,,,,,,,
45562,note_on,17,0,1,,,,,,,,,0,,,48,90
45562,note_on,0,0,1,,,,,,,,,0,,,60,90
45579,note_on,51,0,2,,,,,,,,,0,,,50,0
45579,note_on,0,0,2,,,,,,,,,0,,,38,0
45580,set_tempo,20,1,0,,,,,,916031,,,,,,,
45600,note_on,21,0,2,,,,,,,,,0,,,34,103
45600,set_tempo,20,1,0,,,,,,991736,,,,,,,
45600,note_on,0,0,2,,,,,,,,,0,,,46,103
45603,control_change,3,0,2,,,,,,,,,0,64,0,,
45619,note_on,57,0,1,,,,,,,,,0,,,60,0
45619,note_on,0,0,1,,,,,,,,,0,,,48,0
45690,note_on,87,0,2,,,,,,,,,0,,,46,0
45690,note_on,0,0,2,,,,,,,,,0,,,34,0
45840,set_tempo,240,1,0,,,,,,1153846,,,,,,,
45840,note_on,0,0,2,,,,,,,,,0,,,46,74
45840,note_on,0,0,2,,,,,,,,,0,,,51,74
45840,note_on,0,0,1,,,,,,,,,0,,,75,88
45840,note_on,0,0,1,,,,,,,,,0,,,67,79
45840,note_on,221,0,1,,,,,,,,,0,,,63,79
45840,note_on,150,0,2,,,,,,,,,0,,,39,74
45940,note_on,100,0,1,,,,,,,,,0,,,75,0
45940,note_on,0,0,1,,,,,,,,,0,,,67,0
45940,note_on,0,0,1,,,,,,,,,0,,,63,0
45940,note_on,0,0,2,,,,,,,,,0,,,51,0
45940,note_on,100,0,2,,,,,,,,,0,,,46,0
45940,note_on,0,0,2,,,,,,,,,0,,,39,0
46080,note_on,0,0,1,,,,,,,,,0,,,77,95
46080,note_on,0,0,2,,,,,,,,,0,,,51,79
46080,note_on,0,0,2,,,,,,,,,0,,,39,79
46080,note_on,0,0,1,,,,,,,,,0,,,68,85
46080,note_on,0,0,2,,,,,,,,,0,,,46,79
46080,note_on,140,0,2,,,,,,,,,0,,,53,79
46080,set_tempo,240,1,0,,,,,,1200000,,,,,,,
46080,note_on,140,0,1,,,,,,,,,0,,,65,85
46180,note_on,0,0,1,,,,,,,,,0,,,65,0
46180,note_on,100,0,2,,,,,,,,,0,,,51,0
46180,note_on,0,0,1,,,,,,,,,0,,,68,0
46180,note_on,100,0,1,,,,,,,,,0,,,77,0
46180,note_on,0,0,2,,,,,,,,,0,,,46,0
46180,note_on,0,0,2,,,,,,,,,0,,,53,0
46180,note_on,0,0,2,,,,,,,,,0,,,39,0
46320,note_on,0,0,1,,,,,,,,,0,,,70,79
46320,note_on,0,0,1,,,,,,,,,0,,,79,88
46320,set_tempo,240,1,0,,,,,,1379310,,,,,,,
46320,note_on,0,0,2,,,,,,,,,0,,,55,74
46320,note_on,140,0,2,,,,,,,,,0,,,39,74
46320,note_on,140,0,1,,,,,,,,,0,,,67,79
46320,note_on,0,0,2,,,,,,,,,0,,,46,74
46420,note_on,0,0,1,,,,,,,,,0,,,67,0
46420,note_on,100,0,2,,,,,,,,,0,,,55,0
46420,note_on,0,0,2,,,,,,,,,0,,,39,0
46420,note_on,0,0,2,,,,,,,,,0,,,46,0
46420,note_on,100,0,1,,,,,,,,,0,,,79,0
46420,note_on,0,0,1,,,,,,,,,0,,,70,0
46560,note_on,140,0,2,,,,,,,,,0,,,55,72
46560,note_on,0,0,1,,,,,,,,,0,,,75,83
46560,note_on,0,0,1,,,,,,,,,0,,,67,74
46560,note_on,0,0,2,,,,,,,,,0,,,39,72
46560,note_on,0,0,2,,,,,,,,,0,,,46,72
46560,set_tempo,240,1,0,,,,,,1224490,,,,,,,
46560,note_on,140,0,1,,,,,,,,,0,,,63,74
47020,note_on,0,0,2,,,,,,,,,0,,,46,0
47020,note_on,0,0,1,,,,,,,,,0,,,67,0
47020,note_on,460,0,2,,,,,,,,,0,,,39,0
47020,note_on,460,0,1,,,,,,,,,0,,,75,0
47020,note_on,0,0,1,,,,,,,,,0,,,63,0
47020,note_on,0,0,2,,,,,,,,,0,,,55,0
47040,note_on,20,0,1,,,,,,,,,0,,,93,46
47040,set_tempo,480,1,0,,,,,,1043478,,,,,,,
47070,note_on,30,0,1,,,,,,,,,0,,,93,0
47072,note_on,2,0,1,,,,,,,,,0,,,94,41
47100,set_tempo,60,1,0,,,,,,902256,,,,,,,
47102,note_on,30,0,1,,,,,,,,,0,,,94,0
47104,note_on,2,0,1,,,,,,,,,0,,,99,43
47128,note_on,24,0,1,,,,,,,,,0,,,99,0
47130,note_on,2,0,1,,,,,,,,,0,,,96,41
47154,note_on,24,0,1,,,,,,,,,0,,,96,0
47156,note_on,2,0,1,,,,,,,,,0,,,94,41
47180,note_on,24,0,1,,,,,,,,,0,,,94,0
47180,set_tempo,80,1,0,,,,,,895522,,,,,,,
47182,note_on,2,0,1,,,,,,,,,0,,,92,40
47206,note_on,24,0,1,,,,,,,,,0,,,92,0
47208,note_on,2,0,1,,,,,,,,,0,,,91,37
47232,note_on,24,0,1,,,,,,,,,0,,,91,0
47234,note_on,214,0,2,,,,,,,,,0,,,89,42
47240,set_tempo,60,1,0,,,,,,888889,,,,,,,
47258,note_on,24,0,2,,,,,,,,,0,,,89,0
47260,note_on,2,0,2,,,,,,,,,0,,,87,42
47284,note_on,24,0,2,,,,,,,,,0,,,87,0
47286,note_on,2,0,2,,,,,,,,,0,,,86,41
47300,set_tempo,60,1,0,,,,,,882353,,,,,,,
47310,note_on,24,0,2,,,,,,,,,0,,,86,0
47312,note_on,2,0,2,,,,,,,,,0,,,84,41
47336,note_on,24,0,2,,,,,,,,,0,,,84,0
47338,note_on,2,0,2,,,,,,,,,0,,,82,41
47362,note_on,24,0,2,,,,,,,,,0,,,82,0
47364,note_on,2,0,2,,,,,,,,,0,,,80,41
47380,set_tempo,80,1,0,,,,,,875912,,,,,,,
47388,note_on,24,0,2,,,,,,,,,0,,,80,0
47390,note_on,2,0,2,,,,,,,,,0,,,79,41
47414,note_on,24,0,2,,,,,,,,,0,,,79,0
47416,note_on,2,0,2,,,,,,,,,0,,,77,41
47440,set_tempo,60,1,0,,,,,,869565,,,,,,,
47440,note_on,24,0,2,,,,,,,,,0,,,77,0
47442,note_on,2,0,2,,,,,,,,,0,,,75,41
47466,note_on,24,0,2,,,,,,,,,0,,,75,0
47468,note_on,2,0,2,,,,,,,,,0,,,74,41
47492,note_on,24,0,2,,,,,,,,,0,,,74,0
47496,note_on,4,0,2,,,,,,,,,0,,,72,41
47500,set_tempo,60,1,0,,,,,,863309,,,,,,,
47520,set_tempo,20,1,0,,,,,,1100917,,,,,,,
47520,note_on,0,0,2,,,,,,,,,0,,,70,46
47520,note_on,24,0,2,,,,,,,,,0,,,72,0
47610,note_on,90,0,2,,,,,,,,,0,,,70,0
47740,set_tempo,220,1,0,,,,,,1153846,,,,,,,
47760,note_on,150,0,2,,,,,,,,,0,,,51,33
47760,note_on,528,0,1,,,,,,,,,0,,,55,33
47760,note_on,0,0,1,,,,,,,,,0,,,63,37
47760,note_on,0,0,1,,,,,,,,,0,,,58,33
47760,set_tempo,20,1,0,,,,,,1153846,,,,,,,
47850,note_on,90,0,2,,,,,,,,,0,,,51,0
47850,note_on,0,0,1,,,,,,,,,0,,,55,0
47850,note_on,0,0,1,,,,,,,,,0,,,58,0
47850,note_on,90,0,1,,,,,,,,,0,,,63,0
48000,set_tempo,240,1,0,,,,,,1224490,,,,,,,
48000,note_on,150,0,2,,,,,,,,,0,,,50,36
48000,note_on,0,0,1,,,,,,,,,0,,,59,35
48000,note_on,0,0,1,,,,,,,,,0,,,65,40
48000,note_on,150,0,1,,,,,,,,,0,,,56,35
48090,note_on,90,0,1,,,,,,,,,0,,,65,0
48090,note_on,0,0,1,,,,,,,,,0,,,59,0
48090,note_on,0,0,1,,,,,,,,,0,,,56,0
48090,note_on,90,0,2,,,,,,,,,0,,,50,0
48240,note_on,150,0,2,,,,,,,,,0,,,38,34
48240,note_on,0,0,1,,,,,,,,,0,,,66,39
48240,note_on,0,0,1,,,,,,,,,0,,,60,34
48240,note_on,150,0,1,,,,,,,,,0,,,57,34
48240,set_tempo,240,1,0,,,,,,1333333,,,,,,,
48330,note_on,90,0,2,,,,,,,,,0,,,38,0
48330,note_on,0,0,1,,,,,,,,,0,,,57,0
48330,note_on,90,0,1,,,,,,,,,0,,,66,0
48330,note_on,0,0,1,,,,,,,,,0,,,60,0
48480,note_on,150,0,1,,,,,,,,,0,,,59,34
48480,note_on,150,0,2,,,,,,,,,0,,,43,33
48480,note_on,0,0,1,,,,,,,,,0,,,67,39
48480,set_tempo,240,1,0,,,,,,1395349,,,,,,,
48480,note_on,0,0,2,,,,,,,,,0,,,50,33
48483,control_change,3,0,2,,,,,,,,,0,64,127,,
48720,note_on,0,0,1,,,,,,,,,0,,,55,32
48720,note_on,0,0,1,,,,,,,,,0,,,59,0
48720,note_on,0,0,1,,,,,,,,,0,,,62,36
48720,set_tempo,240,1,0,,,,,,1690141,,,,,,,
48720,note_on,240,0,1,,,,,,,,,0,,,67,0
48720,note_on,0,0,2,,,,,,,,,0,,,47,31
48720,note_on,237,0,2,,,,,,,,,0,,,50,0
48723,control_change,3,0,2,,,,,,,,,0,64,0,,
48840,note_on,120,0,1,,,,,,,,,0,,,62,0
48840,note_on,117,0,2,,,,,,,,,0,,,47,0
48840,note_on,0,0,1,,,,,,,,,0,,,55,0
48960,note_on,120,0,2,,,,,,,,,0,,,43,0
48960,note_on,120,0,1,,,,,,,,,0,,,94,31
48960,set_tempo,240,1,0,,,,,,1071429,,,,,,,
48960,note_on,0,0,2,,,,,,,,,0,,,90,31
48990,note_on,30,0,1,,,,,,,,,0,,,94,0
48990,note_on,0,0,2,,,,,,,,,0,,,91,31
48990,note_on,30,0,2,,,,,,,,,0,,,90,0
48990,note_on,0,0,1,,,,,,,,,0,,,95,31
49020,note_on,0,0,1,,,,,,,,,0,,,103,33
49020,note_on,0,0,2,,,,,,,,,0,,,95,33
49020,note_on,30,0,1,,,,,,,,,0,,,95,0
49020,note_on,30,0,2,,,,,,,,,0,,,91,0
49050,note_on,0,0,1,,,,,,,,,0,,,102,33
49050,note_on,0,0,2,,,,,,,,,0,,,93,33
49050,note_on,30,0,1,,,,,,,,,0,,,103,0
49050,note_on,30,0,2,,,,,,,,,0,,,95,0
49080,note_on,30,0,1,,,,,,,,,0,,,102,0
49080,set_tempo,120,1,0,,,,,,991736,,,,,,,
49080,note_on,0,0,2,,,,,,,,,0,,,91,33
49080,note_on,30,0,2,,,,,,,,,0,,,93,0
49080,note_on,0,0,1,,,,,,,,,0,,,100,33
49110,note_on,30,0,2,,,,,,,,,0,,,91,0
49110,note_on,30,0,1,,,,,,,,,0,,,100,0
49110,note_on,0,0,2,,,,,,,,,0,,,90,33
49110,note_on,0,0,1,,,,,,,,,0,,,98,33
49140,note_on,0,0,1,,,,,,,,,0,,,96,33
49140,note_on,30,0,1,,,,,,,,,0,,,98,0
49140,set_tempo,60,1,0,,,,,,983607,,,,,,,
49140,note_on,30,0,2,,,,,,,,,0,,,90,0
49140,note_on,0,0,2,,,,,,,,,0,,,88,33
49170,note_on,30,0,1,,,,,,,,,0,,,96,0
49170,note_on,30,0,2,,,,,,,,,0,,,88,0
49170,note_on,0,0,2,,,,,,,,,0,,,86,32
49170,note_on,0,0,1,,,,,,,,,0,,,95,32
49200,set_tempo,60,1,0,,,,,,975610,,,,,,,
49200,note_on,30,0,2,,,,,,,,,0,,,86,0
49200,note_on,0,0,2,,,,,,,,,0,,,84,32
49200,note_on,0,0,1,,,,,,,,,0,,,93,32
49200,note_on,30,0,1,,,,,,,,,0,,,95,0
49230,note_on,30,0,2,,,,,,,,,0,,,84,0
49230,note_on,0,0,2,,,,,,,,,0,,,83,32
49230,note_on,0,0,1,,,,,,,,,0,,,91,32
49230,note_on,30,0,1,,,,,,,,,0,,,93,0
49260,note_on,0,0,1,,,,,,,,,0,,,90,32
49260,note_on,30,0,2,,,,,,,,,0,,,83,0
49260,note_on,30,0,1,,,,,,,,,0,,,91,0
49260,set_tempo,60,1,0,,,,,,967742,,,,,,,
49260,note_on,0,0,2,,,,,,,,,0,,,81,32
49290,note_on,0,0,1,,,,,,,,,0,,,88,32
49290,note_on,30,0,1,,,,,,,,,0,,,90,0
49290,note_on,0,0,2,,,,,,,,,0,,,79,32
49290,note_on,30,0,2,,,,,,,,,0,,,81,0
49320,note_on,30,0,1,,,,,,,,,0,,,88,0
49320,note_on,0,0,1,,,,,,,,,0,,,86,31
49320,set_tempo,60,1,0,,,,,,960000,,,,,,,
49320,note_on,0,0,2,,,,,,,,,0,,,78,31
49320,note_on,30,0,2,,,,,,,,,0,,,79,0
49350,note_on,30,0,1,,,,,,,,,0,,,86,0
49350,note_on,0,0,1,,,,,,,,,0,,,84,31
49350,note_on,0,0,2,,,,,,,,,0,,,76,31
49350,note_on,30,0,2,,,,,,,,,0,,,78,0
49380,note_on,30,0,1,,,,,,,,,0,,,84,0
49380,note_on,0,0,1,,,,,,,,,0,,,83,31
49380,note_on,30,0,2,,,,,,,,,0,,,76,0
49380,set_tempo,60,1,0,,,,,,952381,,,,,,,
49380,note_on,0,0,2,,,,,,,,,0,,,74,31
49410,note_on,30,0,2,,,,,,,,,0,,,74,0
49410,note_on,0,0,2,,,,,,,,,0,,,72,31
49410,note_on,0,0,1,,,,,,,,,0,,,81,31
49410,note_on,30,0,1,,,,,,,,,0,,,83,0
49420,set_tempo,40,1,0,,,,,,944882,,,,,,,
49440,note_on,30,0,1,,,,,,,,,0,,,81,0
49440,note_on,0,0,2,,,,,,,,,0,,,71,31
49440,set_tempo,20,1,0,,,,,,1200000,,,,,,,
49440,note_on,0,0,1,,,,,,,,,0,,,79,31
49440,note_on,30,0,2,,,,,,,,,0,,,72,0
49530,note_on,90,0,2,,,,,,,,,0,,,71,0
49530,note_on,90,0,1,,,,,,,,,0,,,79,0
49680,note_on,150,0,2,,,,,,,,,0,,,48,32
49680,note_on,150,0,1,,,,,,,,,0,,,60,36
49680,note_on,0,0,1,,,,,,,,,0,,,64,36
49680,note_on,0,0,1,,,,,,,,,0,,,67,41
49680,set_tempo,240,1,0,,,,,,1290323,,,,,,,
49900,note_on,0,0,1,,,,,,,,,0,,,64,0
49900,note_on,220,0,1,,,,,,,,,0,,,67,0
49900,note_on,220,0,2,,,,,,,,,0,,,48,0
49900,note_on,0,0,1,,,,,,,,,0,,,60,0
49920,note_on,20,0,1,,,,,,,,,0,,,60,36
49920,note_on,20,0,2,,,,,,,,,0,,,41,35
49920,set_tempo,240,1,0,,,,,,1395349,,,,,,,
49920,note_on,0,0,1,,,,,,,,,0,,,65,36
49920,note_on,0,0,1,,,,,,,,,0,,,68,41
50120,note_on,0,0,1,,,,,,,,,0,,,60,0
50120,note_on,0,0,1,,,,,,,,,0,,,68,0
50120,note_on,200,0,1,,,,,,,,,0,,,65,0
50120,note_on,200,0,2,,,,,,,,,0,,,41,0
50160,note_on,0,0,2,,,,,,,,,0,,,34,34
50160,note_on,40,0,2,,,,,,,,,0,,,46,34
50160,set_tempo,240,1,0,,,,,,1764706,,,,,,,
50160,note_on,40,0,1,,,,,,,,,0,,,56,34
50160,note_on,0,0,1,,,,,,,,,0,,,62,34
50160,note_on,0,0,1,,,,,,,,,0,,,70,39
50380,note_on,0,0,2,,,,,,,,,0,,,46,0
50380,note_on,0,0,1,,,,,,,,,0,,,56,0
50380,note_on,220,0,1,,,,,,,,,0,,,70,0
50380,note_on,220,0,2,,,,,,,,,0,,,34,0
50380,note_on,0,0,1,,,,,,,,,0,,,62,0
50400,note_on,0,0,1,,,,,,,,,0,,,63,33
50400,note_on,0,0,2,,,,,,,,,0,,,39,34
50400,note_on,20,0,1,,,,,,,,,0,,,55,33
50400,note_on,20,0,2,,,,,,,,,0,,,46,34
50400,set_tempo,240,1,0,,,,,,1967213,,,,,,,
50400,note_on,0,0,1,,,,,,,,,0,,,70,37
50850,note_on,450,0,1,,,,,,,,,0,,,70,0
50850,note_on,0,0,1,,,,,,,,,0,,,63,0
50850,note_on,0,0,1,,,,,,,,,0,,,55,0
50850,note_on,0,0,2,,,,,,,,,0,,,46,0
50850,note_on,450,0,2,,,,,,,,,0,,,39,0
50880,note_on,30,0,2,,,,,,,,,0,,,43,82
50880,set_tempo,480,1,0,,,,,,779221,,,,,,,
50880,marker,0,1,0,,,,,,,,,,,,,
50880,note_on,0,0,2,,,,,,,,,0,,,55,92
51240,note_on,0,0,2,,,,,,,,,0,,,43,0
51240,note_on,0,0,2,,,,,,,,,0,,,39,79
51240,note_on,360,0,2,,,,,,,,,0,,,55,0
51240,note_on,0,0,2,,,,,,,,,0,,,51,88
51360,note_on,0,0,2,,,,,,,,,0,,,39,0
51360,note_on,0,0,2,,,,,,,,,0,,,36,82
51360,control_change,0,0,2,,,,,,,,,0,64,127,,
51360,set_tempo,480,1,0,,,,,,681818,,,,,,,
51360,note_on,0,0,2,,,,,,,,,0,,,48,92
51360,note_on,120,0,2,,,,,,,,,0,,,51,0
51480,set_tempo,120,1,0,,,,,,662983,,,,,,,
51480,note_on,0,0,2,,,,,,,,,0,,,35,78
51480,note_on,0,0,2,,,,,,,,,0,,,36,0
51480,note_on,0,0,2,,,,,,,,,0,,,47,87
51480,note_on,120,0,2,,,,,,,,,0,,,48,0
51514,control_change,34,0,2,,,,,,,,,0,64,0,,
51600,note_on,0,0,2,,,,,,,,,0,,,35,0
51600,note_on,86,0,2,,,,,,,,,0,,,47,0
51600,note_on,750,0,1,,,,,,,,,0,,,55,88
51600,note_on,0,0,2,,,,,,,,,0,,,48,87
51600,note_on,0,0,2,,,,,,,,,0,,,36,78
51690,note_on,0,0,2,,,,,,,,,0,,,36,0
51690,note_on,90,0,2,,,,,,,,,0,,,48,0
51720,note_on,0,0,2,,,,,,,,,0,,,50,87
51720,note_on,120,0,1,,,,,,,,,0,,,55,0
51720,note_on,30,0,2,,,,,,,,,0,,,38,78
51810,note_on,90,0,2,,,,,,,,,0,,,50,0
51810,note_on,0,0,2,,,,,,,,,0,,,38,0
51840,set_tempo,360,1,0,,,,,,666667,,,,,,,
51840,note_on,30,0,2,,,,,,,,,0,,,39,82
51840,note_on,0,0,2,,,,,,,,,0,,,51,92
51840,note_on,120,0,1,,,,,,,,,0,,,60,92
51851,control_change,11,0,2,,,,,,,,,0,64,127,,
51960,set_tempo,120,1,0,,,,,,641711,,,,,,,
51960,note_on,109,0,2,,,,,,,,,0,,,51,0
51960,note_on,0,0,2,,,,,,,,,0,,,50,87
51960,note_on,0,0,2,,,,,,,,,0,,,39,0
51960,note_on,0,0,2,,,,,,,,,0,,,38,78
52029,control_change,69,0,2,,,,,,,,,0,64,0,,
52080,note_on,0,0,2,,,,,,,,,0,,,39,78
52080,note_on,0,0,2,,,,,,,,,0,,,51,87
52080,note_on,240,0,1,,,,,,,,,0,,,67,87
52080,note_on,0,0,2,,,,,,,,,0,,,38,0
52080,note_on,51,0,2,,,,,,,,,0,,,50,0
52170,note_on,0,0,2,,,,,,,,,0,,,39,0
52170,note_on,90,0,2,,,,,,,,,0,,,51,0
52200,note_on,30,0,2,,,,,,,,,0,,,41,78
52200,note_on,0,0,2,,,,,,,,,0,,,53,87
52290,note_on,0,0,2,,,,,,,,,0,,,41,0
52290,note_on,90,0,2,,,,,,,,,0,,,53,0
52320,note_on,0,0,1,,,,,,,,,0,,,62,92
52320,set_tempo,360,1,0,,,,,,634921,,,,,,,
52320,note_on,240,0,1,,,,,,,,,0,,,67,0
52320,note_on,30,0,2,,,,,,,,,0,,,43,82
52320,note_on,0,0,2,,,,,,,,,0,,,55,92
52343,control_change,23,0,2,,,,,,,,,0,64,127,,
52440,note_on,97,0,2,,,,,,,,,0,,,55,0
52440,note_on,0,0,2,,,,,,,,,0,,,54,88
52440,note_on,0,0,2,,,,,,,,,0,,,43,0
52440,set_tempo,120,1,0,,,,,,618557,,,,,,,
52440,note_on,0,0,2,,,,,,,,,0,,,42,79
52543,control_change,103,0,2,,,,,,,,,0,64,0,,
52560,note_on,0,0,1,,,,,,,,,0,,,59,88
52560,note_on,17,0,2,,,,,,,,,0,,,54,0
52560,note_on,0,0,2,,,,,,,,,0,,,42,0
52560,note_on,0,0,2,,,,,,,,,0,,,43,79
52560,note_on,0,0,2,,,,,,,,,0,,,55,88
52560,note_on,240,0,1,,,,,,,,,0,,,60,0
52650,note_on,0,0,2,,,,,,,,,0,,,43,0
52650,note_on,90,0,2,,,,,,,,,0,,,55,0
52680,note_on,0,0,2,,,,,,,,,0,,,57,88
52680,note_on,30,0,2,,,,,,,,,0,,,45,79
52770,note_on,0,0,2,,,,,,,,,0,,,45,0
52770,note_on,90,0,2,,,,,,,,,0,,,57,0
52789,control_change,19,0,2,,,,,,,,,0,64,127,,
52800,note_on,0,0,1,,,,,,,,,0,,,74,92
52800,note_on,0,0,2,,,,,,,,,0,,,59,95
52800,note_on,11,0,2,,,,,,,,,0,,,47,85
52800,note_on,240,0,1,,,,,,,,,0,,,59,0
52800,set_tempo,360,1,0,,,,,,625000,,,,,,,
52920,note_on,0,0,2,,,,,,,,,0,,,45,79
52920,set_tempo,120,1,0,,,,,,606061,,,,,,,
52920,note_on,120,0,2,,,,,,,,,0,,,59,0
52920,note_on,0,0,2,,,,,,,,,0,,,57,88
52920,note_on,0,0,2,,,,,,,,,0,,,47,0
52989,control_change,69,0,2,,,,,,,,,0,64,0,,
53040,note_on,0,0,2,,,,,,,,,0,,,45,0
53040,note_on,0,0,1,,,,,,,,,0,,,65,88
53040,note_on,51,0,2,,,,,,,,,0,,,57,0
53040,note_on,0,0,2,,,,,,,,,0,,,59,88
53040,note_on,240,0,1,,,,,,,,,0,,,62,0
53040,note_on,0,0,2,,,,,,,,,0,,,47,79
53130,note_on,90,0,2,,,,,,,,,0,,,59,0
53130,note_on,0,0,2,,,,,,,,,0,,,47,0
53160,note_on,0,0,2,,,,,,,,,0,,,55,88
53160,note_on,120,0,1,,,,,,,,,0,,,65,0
53160,note_on,30,0,2,,,,,,,,,0,,,43,79
53250,note_on,0,0,2,,,,,,,,,0,,,43,0
53250,note_on,90,0,2,,,,,,,,,0,,,55,0
53280,note_on,120,0,1,,,,,,,,,0,,,63,90
53280,note_on,30,0,2,,,,,,,,,0,,,48,88
53280,note_on,0,0,2,,,,,,,,,0,,,60,98
53280,set_tempo,360,1,0,,,,,,606061,,,,,,,
53286,control_change,6,0,2,,,,,,,,,0,64,127,,
53400,set_tempo,120,1,0,,,,,,588235,,,,,,,
53400,note_on,0,0,2,,,,,,,,,0,,,47,80
53400,note_on,114,0,2,,,,,,,,,0,,,60,0
53400,note_on,0,0,2,,,,,,,,,0,,,59,89
53400,note_on,0,0,2,,,,,,,,,0,,,48,0
53417,control_change,17,0,2,,,,,,,,,0,64,0,,
53520,note_on,240,0,1,,,,,,,,,0,,,74,0
53520,note_on,0,0,2,,,,,,,,,0,,,48,80
53520,note_on,103,0,2,,,,,,,,,0,,,59,0
53520,note_on,0,0,2,,,,,,,,,0,,,47,0
53520,note_on,0,0,2,,,,,,,,,0,,,60,89
53520,note_on,0,0,1,,,,,,,,,0,,,67,93
53610,note_on,0,0,2,,,,,,,,,0,,,48,0
53610,note_on,90,0,2,,,,,,,,,0,,,60,0
53640,note_on,0,0,2,,,,,,,,,0,,,62,89
53640,note_on,30,0,2,,,,,,,,,0,,,50,80
53640,note_on,120,0,1,,,,,,,,,0,,,67,0
53730,note_on,0,0,2,,,,,,,,,0,,,50,0
53730,note_on,90,0,2,,,,,,,,,0,,,62,0
53740,set_tempo,340,1,0,,,,,,574163,,,,,,,
53760,set_tempo,20,1,0,,,,,,597015,,,,,,,
53760,note_on,120,0,1,,,,,,,,,0,,,79,96
53760,note_on,30,0,2,,,,,,,,,0,,,51,93
53760,note_on,0,0,2,,,,,,,,,0,,,63,103
53777,control_change,17,0,2,,,,,,,,,0,64,127,,
53880,set_tempo,120,1,0,,,,,,568720,,,,,,,
53880,note_on,103,0,2,,,,,,,,,0,,,63,0
53880,note_on,0,0,2,,,,,,,,,0,,,50,81
53880,note_on,0,0,2,,,,,,,,,0,,,51,0
53880,note_on,0,0,2,,,,,,,,,0,,,62,90
53891,control_change,11,0,2,,,,,,,,,0,64,0,,
54000,note_on,240,0,1,,,,,,,,,0,,,63,0
54000,note_on,0,0,2,,,,,,,,,0,,,51,81
54000,note_on,0,0,2,,,,,,,,,0,,,63,90
54000,note_on,0,0,1,,,,,,,,,0,,,72,86
54000,note_on,0,0,2,,,,,,,,,0,,,50,0
54000,note_on,109,0,2,,,,,,,,,0,,,62,0
54090,note_on,90,0,2,,,,,,,,,0,,,63,0
54090,note_on,0,0,2,,,,,,,,,0,,,51,0
54120,note_on,0,0,1,,,,,,,,,0,,,80,81
54120,note_on,0,0,1,,,,,,,,,0,,,79,0
54120,note_on,120,0,1,,,,,,,,,0,,,72,0
54120,note_on,30,0,2,,,,,,,,,0,,,53,81
54120,note_on,0,0,2,,,,,,,,,0,,,65,90
54210,note_on,0,0,2,,,,,,,,,0,,,53,0
54210,note_on,90,0,2,,,,,,,,,0,,,65,0
54240,note_on,120,0,1,,,,,,,,,0,,,80,0
54240,set_tempo,360,1,0,,,,,,674157,,,,,,,
54240,note_on,0,0,1,,,,,,,,,0,,,74,86
54240,note_on,0,0,2,,,,,,,,,0,,,67,103
54240,note_on,0,0,1,,,,,,,,,0,,,72,86
54240,note_on,30,0,2,,,,,,,,,0,,,55,93
54251,control_change,11,0,2,,,,,,,,,0,64,127,,
54360,note_on,109,0,2,,,,,,,,,0,,,67,0
54360,note_on,0,0,2,,,,,,,,,0,,,55,0
54480,note_on,240,0,1,,,,,,,,,0,,,72,0
54480,note_on,0,0,1,,,,,,,,,0,,,71,81
54480,note_on,0,0,1,,,,,,,,,0,,,62,72
54480,note_on,120,0,2,,,,,,,,,0,,,43,82
54480,set_tempo,240,1,0,,,,,,769231,,,,,,,
54480,note_on,0,0,2,,,,,,,,,0,,,59,92
54480,note_on,0,0,2,,,,,,,,,0,,,50,82
54660,note_on,0,0,2,,,,,,,,,0,,,50,0
54660,note_on,180,0,2,,,,,,,,,0,,,59,0
54660,note_on,0,0,2,,,,,,,,,0,,,43,0
54720,note_on,60,0,2,,,,,,,,,0,,,55,85
54720,note_on,0,0,1,,,,,,,,,0,,,62,0
54720,note_on,0,0,1,,,,,,,,,0,,,74,0
54720,note_on,0,0,1,,,,,,,,,0,,,79,85
54720,note_on,0,0,1,,,,,,,,,0,,,83,85
54720,note_on,0,0,1,,,,,,,,,0,,,86,85
54720,note_on,0,0,1,,,,,,,,,0,,,91,95
54720,note_on,240,0,1,,,,,,,,,0,,,71,0
54720,note_on,0,0,2,,,,,,,,,0,,,67,95
54720,note_on,0,0,2,,,,,,,,,0,,,62,85
54720,set_tempo,240,1,0,,,,,,710059,,,,,,,
54720,note_on,0,0,2,,,,,,,,,0,,,59,85
54812,control_change,92,0,2,,,,,,,,,0,64,0,,
54960,set_tempo,240,1,0,,,,,,697918,,,,,,,
55080,note_on,0,0,1,,,,,,,,,0,,,79,75
55080,note_on,360,0,1,,,,,,,,,0,,,79,0
55080,note_on,0,0,1,,,,,,,,,0,,,91,0
55080,note_on,0,0,1,,,,,,,,,0,,,91,85
55080,note_on,0,0,2,,,,,,,,,0,,,55,0
55080,note_on,0,0,2,,,,,,,,,0,,,59,0
55080,note_on,0,0,2,,,,,,,,,0,,,62,0
55080,note_on,268,0,2,,,,,,,,,0,,,67,0
55080,note_on,0,0,1,,,,,,,,,0,,,83,0
55080,note_on,0,0,1,,,,,,,,,0,,,86,0
55080,set_tempo,120,1,0,,,,,,641094,,,,,,,
55170,note_on,90,0,1,,,,,,,,,0,,,79,0
55170,note_on,0,0,1,,,,,,,,,0,,,91,0
55200,set_tempo,120,1,0,,,,,,624090,,,,,,,
55200,note_on,0,0,1,,,,,,,,,0,,,92,88
55200,note_on,30,0,1,,,,,,,,,0,,,80,79
55290,note_on,90,0,1,,,,,,,,,0,,,92,0
55290,note_on,0,0,1,,,,,,,,,0,,,80,0
55320,set_tempo,120,1,0,,,,,,595770,,,,,,,
55320,note_on,0,0,1,,,,,,,,,0,,,91,85
55320,note_on,30,0,1,,,,,,,,,0,,,79,75
55410,note_on,0,0,1,,,,,,,,,0,,,79,0
55410,note_on,90,0,1,,,,,,,,,0,,,91,0
55440,note_on,30,0,1,,,,,,,,,0,,,80,75
55440,note_on,360,0,2,,,,,,,,,0,,,53,62
55440,note_on,0,0,2,,,,,,,,,0,,,59,69
55440,note_on,0,0,2,,,,,,,,,0,,,62,69
55440,note_on,0,0,1,,,,,,,,,0,,,92,85
55530,note_on,0,0,1,,,,,,,,,0,,,80,0
55530,note_on,90,0,1,,,,,,,,,0,,,92,0
55560,note_on,30,0,1,,,,,,,,,0,,,74,75
55560,set_tempo,240,1,0,,,,,,608026,,,,,,,
55560,note_on,0,0,1,,,,,,,,,0,,,86,85
55650,note_on,0,0,1,,,,,,,,,0,,,74,0
55650,note_on,90,0,1,,,,,,,,,0,,,86,0
55680,set_tempo,120,1,0,,,,,,614376,,,,,,,
55680,note_on,0,0,2,,,,,,,,,0,,,67,75
55680,note_on,0,0,1,,,,,,,,,0,,,79,79
55680,note_on,0,0,2,,,,,,,,,0,,,51,67
55680,note_on,30,0,1,,,,,,,,,0,,,91,88
55680,note_on,240,0,2,,,,,,,,,0,,,53,0
55770,note_on,0,0,1,,,,,,,,,0,,,91,0
55770,note_on,90,0,1,,,,,,,,,0,,,79,0
55800,note_on,0,0,1,,,,,,,,,0,,,90,85
55800,note_on,30,0,1,,,,,,,,,0,,,78,75
55800,set_tempo,120,1,0,,,,,,581058,,,,,,,
55890,note_on,0,0,1,,,,,,,,,0,,,78,0
55890,note_on,90,0,1,,,,,,,,,0,,,90,0
55920,note_on,240,0,2,,,,,,,,,0,,,67,0
55920,note_on,0,0,2,,,,,,,,,0,,,60,77
55920,note_on,0,0,2,,,,,,,,,0,,,62,0
55920,note_on,0,0,1,,,,,,,,,0,,,91,85
55920,note_on,0,0,2,,,,,,,,,0,,,59,0
55920,note_on,30,0,1,,,,,,,,,0,,,79,75
56010,note_on,0,0,1,,,,,,,,,0,,,79,0
56010,note_on,90,0,1,,,,,,,,,0,,,91,0
56040,note_on,30,0,1,,,,,,,,,0,,,84,85
56040,set_tempo,240,1,0,,,,,,595770,,,,,,,
56040,note_on,0,0,1,,,,,,,,,0,,,72,75
56130,note_on,0,0,1,,,,,,,,,0,,,84,0
56130,note_on,90,0,1,,,,,,,,,0,,,72,0
56160,note_on,0,0,2,,,,,,,,,0,,,51,0
56160,note_on,240,0,2,,,,,,,,,0,,,60,0
56160,set_tempo,120,1,0,,,,,,608026,,,,,,,
56160,note_on,0,0,1,,,,,,,,,0,,,77,79
56160,note_on,30,0,1,,,,,,,,,0,,,89,88
56250,note_on,90,0,1,,,,,,,,,0,,,77,0
56250,note_on,0,0,1,,,,,,,,,0,,,89,0
56280,note_on,30,0,1,,,,,,,,,0,,,76,77
56280,note_on,0,0,1,,,,,,,,,0,,,88,86
56280,set_tempo,120,1,0,,,,,,578202,,,,,,,
56370,note_on,90,0,1,,,,,,,,,0,,,88,0
56370,note_on,0,0,1,,,,,,,,,0,,,76,0
56400,note_on,240,0,2,,,,,,,,,0,,,50,62
56400,note_on,0,0,1,,,,,,,,,0,,,89,86
56400,note_on,0,0,2,,,,,,,,,0,,,59,62
56400,note_on,0,0,2,,,,,,,,,0,,,56,69
56400,note_on,30,0,1,,,,,,,,,0,,,77,77
56490,note_on,90,0,1,,,,,,,,,0,,,89,0
56490,note_on,0,0,1,,,,,,,,,0,,,77,0
56520,note_on,0,0,1,,,,,,,,,0,,,83,86
56520,set_tempo,240,1,0,,,,,,595770,,,,,,,
56520,note_on,30,0,1,,,,,,,,,0,,,71,77
56610,note_on,90,0,1,,,,,,,,,0,,,83,0
56610,note_on,0,0,1,,,,,,,,,0,,,71,0
56640,note_on,240,0,2,,,,,,,,,0,,,59,0
56640,note_on,30,0,1,,,,,,,,,0,,,75,79
56640,note_on,0,0,1,,,,,,,,,0,,,87,88
56640,note_on,0,0,2,,,,,,,,,0,,,48,67
56640,note_on,0,0,2,,,,,,,,,0,,,50,0
56640,note_on,0,0,2,,,,,,,,,0,,,63,75
56730,note_on,0,0,1,,,,,,,,,0,,,75,0
56730,note_on,90,0,1,,,,,,,,,0,,,87,0
56760,set_tempo,240,1,0,,,,,,592710,,,,,,,
56760,note_on,30,0,1,,,,,,,,,0,,,74,75
56760,note_on,0,0,1,,,,,,,,,0,,,86,85
56761,set_tempo,1,1,0,,,,,,603015,,,,,,,
56850,note_on,0,0,1,,,,,,,,,0,,,74,0
56850,note_on,90,0,1,,,,,,,,,0,,,86,0
56880,note_on,30,0,1,,,,,,,,,0,,,75,75
56880,note_on,0,0,2,,,,,,,,,0,,,63,0
56880,note_on,0,0,2,,,,,,,,,0,,,60,71
56880,note_on,0,0,2,,,,,,,,,0,,,56,0
56880,note_on,0,0,2,,,,,,,,,0,,,55,63
56880,note_on,0,0,2,,,,,,,,,0,,,51,63
56880,note_on,0,0,1,,,,,,,,,0,,,87,85
56880,note_on,240,0,2,,,,,,,,,0,,,48,0
56970,note_on,90,0,1,,,,,,,,,0,,,87,0
56970,note_on,0,0,1,,,,,,,,,0,,,75,0
57000,set_tempo,239,1,0,,,,,,677966,,,,,,,
57000,note_on,0,0,1,,,,,,,,,0,,,84,85
57000,note_on,30,0,1,,,,,,,,,0,,,72,75
57000,note_on,120,0,2,,,,,,,,,0,,,44,63
57090,note_on,0,0,1,,,,,,,,,0,,,72,0
57090,note_on,90,0,1,,,,,,,,,0,,,84,0
57100,note_on,100,0,2,,,,,,,,,0,,,44,0
57120,note_on,0,0,2,,,,,,,,,0,,,67,75
57120,note_on,20,0,2,,,,,,,,,0,,,51,0
57120,note_on,30,0,1,,,,,,,,,0,,,72,75
57120,note_on,0,0,2,,,,,,,,,0,,,63,67
57120,note_on,0,0,2,,,,,,,,,0,,,60,0
57120,set_tempo,120,1,0,,,,,,597967,,,,,,,
57120,note_on,0,0,2,,,,,,,,,0,,,55,0
57120,note_on,0,0,1,,,,,,,,,0,,,84,85
57120,note_on,0,0,2,,,,,,,,,0,,,44,75
57240,note_on,120,0,1,,,,,,,,,0,,,84,0
57240,note_on,0,0,2,,,,,,,,,0,,,63,0
57240,note_on,0,0,1,,,,,,,,,0,,,82,81
57240,note_on,0,0,1,,,,,,,,,0,,,72,0
57240,set_tempo,120,1,0,,,,,,607226,,,,,,,
57240,note_on,120,0,2,,,,,,,,,0,,,67,0
57240,note_on,0,0,1,,,,,,,,,0,,,70,72
57240,note_on,0,0,2,,,,,,,,,0,,,62,64
57240,note_on,0,0,2,,,,,,,,,0,,,65,72
57340,note_on,0,0,1,,,,,,,,,0,,,70,0
57340,note_on,0,0,2,,,,,,,,,0,,,62,0
57340,note_on,100,0,2,,,,,,,,,0,,,65,0
57340,note_on,100,0,1,,,,,,,,,0,,,82,0
57360,note_on,0,0,2,,,,,,,,,0,,,65,72
57360,set_tempo,120,1,0,,,,,,585366,,,,,,,
57360,note_on,20,0,1,,,,,,,,,0,,,70,72
57360,note_on,20,0,2,,,,,,,,,0,,,62,64
57360,note_on,0,0,1,,,,,,,,,0,,,82,81
57480,note_on,0,0,2,,,,,,,,,0,,,62,0
57480,set_tempo,120,1,0,,,,,,607226,,,,,,,
57480,note_on,0,0,2,,,,,,,,,0,,,63,72
57480,note_on,120,0,2,,,,,,,,,0,,,65,0
57480,note_on,0,0,1,,,,,,,,,0,,,80,81
57480,note_on,0,0,1,,,,,,,,,0,,,70,0
57480,note_on,0,0,1,,,,,,,,,0,,,68,72
57480,note_on,0,0,2,,,,,,,,,0,,,60,64
57480,note_on,120,0,1,,,,,,,,,0,,,82,0
57580,note_on,100,0,2,,,,,,,,,0,,,63,0
57580,set_tempo,100,1,0,,,,,,597967,,,,,,,
57580,note_on,100,0,1,,,,,,,,,0,,,80,0
57580,note_on,0,0,1,,,,,,,,,0,,,68,0
57580,note_on,0,0,2,,,,,,,,,0,,,60,0
57600,note_on,20,0,2,,,,,,,,,0,,,60,69
57600,note_on,20,0,1,,,,,,,,,0,,,68,77
57600,note_on,0,0,2,,,,,,,,,0,,,63,77
57600,set_tempo,20,1,0,,,,,,588235,,,,,,,
57600,note_on,0,0,1,,,,,,,,,0,,,80,86
57720,set_tempo,120,1,0,,,,,,607226,,,,,,,
57720,note_on,120,0,2,,,,,,,,,0,,,63,0
57720,note_on,0,0,2,,,,,,,,,0,,,62,72
57720,note_on,0,0,1,,,,,,,,,0,,,79,81
57720,note_on,0,0,1,,,,,,,,,0,,,68,0
57720,note_on,0,0,1,,,,,,,,,0,,,67,72
57720,note_on,0,0,2,,,,,,,,,0,,,60,0
57720,note_on,0,0,2,,,,,,,,,0,,,58,64
57720,note_on,120,0,1,,,,,,,,,0,,,80,0
57820,note_on,100,0,2,,,,,,,,,0,,,62,0
57820,note_on,0,0,1,,,,,,,,,0,,,67,0
57820,note_on,100,0,1,,,,,,,,,0,,,79,0
57820,note_on,0,0,2,,,,,,,,,0,,,58,0
57840,note_on,0,0,1,,,,,,,,,0,,,79,81
57840,set_tempo,120,1,0,,,,,,594943,,,,,,,
57840,note_on,20,0,2,,,,,,,,,0,,,58,64
57840,note_on,0,0,2,,,,,,,,,0,,,62,72
57840,note_on,20,0,1,,,,,,,,,0,,,67,72
57960,set_tempo,120,1,0,,,,,,607226,,,,,,,
57960,note_on,0,0,1,,,,,,,,,0,,,78,81
57960,note_on,0,0,1,,,,,,,,,0,,,67,0
57960,note_on,0,0,1,,,,,,,,,0,,,66,72
57960,note_on,0,0,2,,,,,,,,,0,,,56,64
57960,note_on,0,0,2,,,,,,,,,0,,,58,0
57960,note_on,120,0,1,,,,,,,,,0,,,79,0
57960,note_on,0,0,2,,,,,,,,,0,,,60,72
57960,note_on,120,0,2,,,,,,,,,0,,,62,0
58060,note_on,0,0,2,,,,,,,,,0,,,56,0
58060,note_on,100,0,2,,,,,,,,,0,,,60,0
58060,note_on,100,0,1,,,,,,,,,0,,,78,0
58060,note_on,0,0,1,,,,,,,,,0,,,66,0
58080,note_on,0,0,2,,,,,,,,,0,,,60,75
58080,note_on,0,0,2,,,,,,,,,0,,,56,67
58080,note_on,20,0,1,,,,,,,,,0,,,66,75
58080,note_on,0,0,1,,,,,,,,,0,,,78,85
58080,note_on,20,0,2,,,,,,,,,0,,,44,0
58101,set_tempo,141,1,0,,,,,,618557,,,,,,,
58200,note_on,0,0,2,,,,,,,,,0,,,60,0
58200,note_on,0,0,2,,,,,,,,,0,,,59,74
58200,note_on,0,0,2,,,,,,,,,0,,,55,66
58200,note_on,0,0,1,,,,,,,,,0,,,66,0
58200,note_on,120,0,2,,,,,,,,,0,,,56,0
58200,set_tempo,99,1,0,,,,,,603015,,,,,,,
58200,note_on,0,0,1,,,,,,,,,0,,,67,74
58200,note_on,120,0,1,,,,,,,,,0,,,78,0
58200,note_on,0,0,1,,,,,,,,,0,,,79,83
58290,note_on,90,0,1,,,,,,,,,0,,,79,0
58290,note_on,90,0,2,,,,,,,,,0,,,59,0
58290,note_on,0,0,2,,,,,,,,,0,,,55,0
58290,note_on,0,0,1,,,,,,,,,0,,,67,0
58320,note_on,30,0,1,,,,,,,,,0,,,91,106
58320,note_on,0,0,2,,,,,,,,,0,,,55,87
58320,note_on,30,0,2,,,,,,,,,0,,,43,78
58320,set_tempo,120,1,0,,,,,,731707,,,,,,,
58320,note_on,0,0,1,,,,,,,,,0,,,79,95
58440,note_on,120,0,2,,,,,,,,,0,,,55,0
58440,note_on,120,0,1,,,,,,,,,0,,,79,0
58440,note_on,0,0,1,,,,,,,,,0,,,91,0
58440,note_on,0,0,2,,,,,,,,,0,,,43,0
58540,set_tempo,220,1,0,,,,,,667408,,,,,,,
58560,note_on,0,0,1,,,,,,,,,0,,,67,92
58560,set_tempo,20,1,0,,,,,,670391,,,,,,,
58560,note_on,120,0,1,,,,,,,,,0,,,55,82
58920,note_on,360,0,1,,,,,,,,,0,,,67,0
58920,note_on,0,0,1,,,,,,,,,0,,,55,0
58920,note_on,0,0,1,,,,,,,,,0,,,51,79
58920,note_on,0,0,1,,,,,,,,,0,,,63,88
59040,set_tempo,480,1,0,,,,,,641711,,,,,,,
59040,note_on,0,0,1,,,,,,,,,0,,,60,92
59040,note_on,0,0,1,,,,,,,,,0,,,51,0
59040,note_on,0,0,1,,,,,,,,,0,,,48,82
59040,note_on,120,0,1,,,,,,,,,0,,,63,0
59160,note_on,0,0,1,,,,,,,,,0,,,59,87
59160,note_on,0,0,1,,,,,,,,,0,,,48,0
59160,note_on,0,0,1,,,,,,,,,0,,,47,78
59160,note_on,120,0,1,,,,,,,,,0,,,60,0
59160,set_tempo,120,1,0,,,,,,618557,,,,,,,
59220,set_tempo,60,1,0,,,,,,615385,,,,,,,
59280,note_on,120,0,1,,,,,,,,,0,,,59,0
59280,set_tempo,60,1,0,,,,,,612245,,,,,,,
59280,note_on,0,0,1,,,,,,,,,0,,,48,78
59280,note_on,0,0,1,,,,,,,,,0,,,47,0
59280,note_on,840,0,2,,,,,,,,,0,,,31,79
59280,note_on,0,0,1,,,,,,,,,0,,,60,87
59340,set_tempo,60,1,0,,,,,,609137,,,,,,,
59370,note_on,0,0,1,,,,,,,,,0,,,48,0
59370,note_on,90,0,1,,,,,,,,,0,,,60,0
59400,note_on,30,0,1,,,,,,,,,0,,,50,78
59400,note_on,120,0,2,,,,,,,,,0,,,31,0
59400,note_on,0,0,1,,,,,,,,,0,,,62,87
59400,set_tempo,60,1,0,,,,,,606061,,,,,,,
59460,set_tempo,60,1,0,,,,,,603015,,,,,,,
59490,note_on,0,0,1,,,,,,,,,0,,,50,0
59490,note_on,90,0,1,,,,,,,,,0,,,62,0
59500,set_tempo,40,1,0,,,,,,600000,,,,,,,
59520,note_on,120,0,2,,,,,,,,,0,,,36,82
59520,note_on,30,0,1,,,,,,,,,0,,,51,82
59520,note_on,0,0,1,,,,,,,,,0,,,63,92
59520,set_tempo,20,1,0,,,,,,625000,,,,,,,
59640,set_tempo,120,1,0,,,,,,606061,,,,,,,
59640,note_on,0,0,1,,,,,,,,,0,,,62,87
59640,note_on,0,0,1,,,,,,,,,0,,,51,0
59640,note_on,0,0,1,,,,,,,,,0,,,50,78
59640,note_on,120,0,1,,,,,,,,,0,,,63,0
59760,note_on,0,0,1,,,,,,,,,0,,,63,87
59760,note_on,0,0,1,,,,,,,,,0,,,50,0
59760,note_on,240,0,2,,,,,,,,,0,,,43,78
59760,note_on,120,0,1,,,,,,,,,0,,,62,0
59760,note_on,0,0,1,,,,,,,,,0,,,51,78
59850,note_on,90,0,1,,,,,,,,,0,,,63,0
59850,note_on,0,0,1,,,,,,,,,0,,,51,0
59880,note_on,30,0,1,,,,,,,,,0,,,53,78
59880,note_on,0,0,1,,,,,,,,,0,,,65,87
59970,note_on,90,0,1,,,,,,,,,0,,,65,0
59970,note_on,0,0,1,,,,,,,,,0,,,53,0
60000,note_on,0,0,1,,,,,,,,,0,,,67,92
60000,note_on,0,0,2,,,,,,,,,0,,,38,82
60000,note_on,30,0,1,,,,,,,,,0,,,55,82
60000,set_tempo,360,1,0,,,,,,610936,,,,,,,
60000,note_on,240,0,2,,,,,,,,,0,,,43,0
60120,note_on,0,0,1,,,,,,,,,0,,,54,79
60120,note_on,120,0,1,,,,,,,,,0,,,67,0
60120,note_on,0,0,1,,,,,,,,,0,,,55,0
60120,note_on,0,0,1,,,,,,,,,0,,,66,88
60120,set_tempo,120,1,0,,,,,,595179,,,,,,,
60240,note_on,0,0,1,,,,,,,,,0,,,54,0
60240,note_on,120,0,1,,,,,,,,,0,,,66,0
60240,note_on,0,0,1,,,,,,,,,0,,,55,79
60240,note_on,0,0,1,,,,,,,,,0,,,67,88
60240,note_on,0,0,2,,,,,,,,,0,,,35,79
60240,note_on,240,0,2,,,,,,,,,0,,,36,0
60330,note_on,0,0,1,,,,,,,,,0,,,55,0
60330,note_on,90,0,1,,,,,,,,,0,,,67,0
60360,note_on,0,0,1,,,,,,,,,0,,,69,88
60360,note_on,30,0,1,,,,,,,,,0,,,57,79
60450,note_on,0,0,1,,,,,,,,,0,,,57,0
60450,note_on,90,0,1,,,,,,,,,0,,,69,0
60480,note_on,0,0,2,,,,,,,,,0,,,50,82
60480,note_on,30,0,1,,,,,,,,,0,,,59,85
60480,set_tempo,360,1,0,,,,,,601383,,,,,,,
60480,note_on,240,0,2,,,,,,,,,0,,,35,0
60480,note_on,0,0,1,,,,,,,,,0,,,71,95
60600,set_tempo,120,1,0,,,,,,583147,,,,,,,
60600,note_on,0,0,1,,,,,,,,,0,,,69,88
60600,note_on,0,0,1,,,,,,,,,0,,,59,0
60600,note_on,0,0,1,,,,,,,,,0,,,57,79
60600,note_on,120,0,1,,,,,,,,,0,,,71,0
60720,note_on,120,0,1,,,,,,,,,0,,,69,0
60720,note_on,0,0,2,,,,,,,,,0,,,41,79
60720,note_on,240,0,2,,,,,,,,,0,,,38,0
60720,note_on,0,0,1,,,,,,,,,0,,,71,88
60720,note_on,0,0,1,,,,,,,,,0,,,59,79
60720,note_on,0,0,1,,,,,,,,,0,,,57,0
60810,note_on,90,0,1,,,,,,,,,0,,,71,0
60810,note_on,0,0,1,,,,,,,,,0,,,59,0
60840,note_on,0,0,1,,,,,,,,,0,,,67,88
60840,note_on,120,0,2,,,,,,,,,0,,,41,0
60840,note_on,30,0,1,,,,,,,,,0,,,55,79
60930,note_on,90,0,1,,,,,,,,,0,,,67,0
60930,note_on,0,0,1,,,,,,,,,0,,,55,0
60960,note_on,0,0,1,,,,,,,,,0,,,72,98
60960,note_on,120,0,2,,,,,,,,,0,,,39,72
60960,set_tempo,360,1,0,,,,,,591133,,,,,,,
60960,note_on,30,0,1,,,,,,,,,0,,,60,88
61080,note_on,0,0,1,,,,,,,,,0,,,59,80
61080,note_on,0,0,1,,,,,,,,,0,,,71,89
61080,note_on,0,0,1,,,,,,,,,0,,,60,0
61080,set_tempo,120,1,0,,,,,,574163,,,,,,,
61080,note_on,120,0,1,,,,,,,,,0,,,72,0
61200,note_on,240,0,2,,,,,,,,,0,,,50,0
61200,note_on,0,0,1,,,,,,,,,0,,,72,89
61200,note_on,0,0,1,,,,,,,,,0,,,60,80
61200,note_on,120,0,1,,,,,,,,,0,,,71,0
61200,note_on,0,0,2,,,,,,,,,0,,,43,82
61200,note_on,0,0,1,,,,,,,,,0,,,59,0
61290,note_on,0,0,1,,,,,,,,,0,,,60,0
61290,note_on,90,0,1,,,,,,,,,0,,,72,0
61320,note_on,0,0,1,,,,,,,,,0,,,74,89
61320,note_on,120,0,2,,,,,,,,,0,,,43,0
61320,note_on,30,0,1,,,,,,,,,0,,,62,80
61410,note_on,0,0,1,,,,,,,,,0,,,62,0
61410,note_on,90,0,1,,,,,,,,,0,,,74,0
61420,set_tempo,340,1,0,,,,,,552435,,,,,,,
61440,set_tempo,20,1,0,,,,,,574438,,,,,,,
61440,note_on,120,0,2,,,,,,,,,0,,,55,86
61440,note_on,0,0,1,,,,,,,,,0,,,75,103
61440,note_on,30,0,1,,,,,,,,,0,,,63,93
61560,note_on,0,0,1,,,,,,,,,0,,,63,0
61560,set_tempo,120,1,0,,,,,,547196,,,,,,,
61560,note_on,0,0,1,,,,,,,,,0,,,74,90
61560,note_on,0,0,1,,,,,,,,,0,,,62,81
61560,note_on,120,0,1,,,,,,,,,0,,,75,0
61680,note_on,0,0,1,,,,,,,,,0,,,75,90
61680,note_on,240,0,2,,,,,,,,,0,,,39,0
61680,note_on,0,0,1,,,,,,,,,0,,,63,81
61680,note_on,0,0,2,,,,,,,,,0,,,48,77
61680,note_on,0,0,1,,,,,,,,,0,,,62,0
61680,note_on,120,0,1,,,,,,,,,0,,,74,0
61770,note_on,0,0,1,,,,,,,,,0,,,63,0
61770,note_on,90,0,1,,,,,,,,,0,,,75,0
61800,note_on,120,0,2,,,,,,,,,0,,,48,0
61800,note_on,0,0,2,,,,,,,,,0,,,55,0
61800,note_on,0,0,2,,,,,,,,,0,,,56,72
61800,note_on,0,0,1,,,,,,,,,0,,,77,90
61800,note_on,30,0,1,,,,,,,,,0,,,65,81
61890,note_on,90,0,1,,,,,,,,,0,,,77,0
61890,note_on,0,0,1,,,,,,,,,0,,,65,0
61920,note_on,0,0,1,,,,,,,,,0,,,79,103
61920,set_tempo,360,1,0,,,,,,645161,,,,,,,
61920,note_on,120,0,2,,,,,,,,,0,,,56,0
61920,note_on,0,0,2,,,,,,,,,0,,,48,77
61920,note_on,30,0,1,,,,,,,,,0,,,67,93
61920,note_on,0,0,2,,,,,,,,,0,,,50,86
62040,note_on,120,0,1,,,,,,,,,0,,,79,0
62040,note_on,0,0,1,,,,,,,,,0,,,67,0
62160,set_tempo,240,1,0,,,,,,736196,,,,,,,
62160,note_on,120,0,1,,,,,,,,,0,,,55,104
62160,note_on,0,0,2,,,,,,,,,0,,,47,81
62160,note_on,240,0,2,,,,,,,,,0,,,48,0
62340,note_on,180,0,1,,,,,,,,,0,,,55,0
62400,note_on,0,0,2,,,,,,,,,0,,,50,0
62400,note_on,0,0,2,,,,,,,,,0,,,55,75
62400,note_on,0,0,2,,,,,,,,,0,,,67,95
62400,note_on,0,0,2,,,,,,,,,0,,,59,75
62400,note_on,0,0,2,,,,,,,,,0,,,62,75
62400,note_on,240,0,2,,,,,,,,,0,,,47,0
62400,set_tempo,240,1,0,,,,,,710059,,,,,,,
62640,set_tempo,240,1,0,,,,,,677583,,,,,,,
62760,set_tempo,120,1,0,,,,,,641711,,,,,,,
62760,note_on,0,0,2,,,,,,,,,0,,,55,67
62760,note_on,0,0,2,,,,,,,,,0,,,59,0
62760,note_on,0,0,2,,,,,,,,,0,,,62,0
62760,note_on,0,0,2,,,,,,,,,0,,,67,0
62760,note_on,0,0,2,,,,,,,,,0,,,67,85
62760,note_on,360,0,2,,,,,,,,,0,,,55,0
62850,note_on,0,0,2,,,,,,,,,0,,,55,0
62850,note_on,90,0,2,,,,,,,,,0,,,67,0
62880,set_tempo,120,1,0,,,,,,632378,,,,,,,
62880,note_on,0,0,2,,,,,,,,,0,,,68,88
62880,note_on,30,0,2,,,,,,,,,0,,,56,71
62970,note_on,0,0,2,,,,,,,,,0,,,56,0
62970,note_on,90,0,2,,,,,,,,,0,,,68,0
63000,set_tempo,120,1,0,,,,,,598563,,,,,,,
63000,note_on,0,0,2,,,,,,,,,0,,,55,67
63000,note_on,30,0,2,,,,,,,,,0,,,67,85
63090,note_on,90,0,2,,,,,,,,,0,,,55,0
63090,note_on,0,0,2,,,,,,,,,0,,,67,0
63120,note_on,30,0,2,,,,,,,,,0,,,68,85
63120,note_on,780,0,1,,,,,,,,,0,,,77,64
63120,note_on,0,0,1,,,,,,,,,0,,,86,81
63120,note_on,0,0,1,,,,,,,,,0,,,83,81
63120,note_on,0,0,2,,,,,,,,,0,,,56,67
63134,control_change,14,0,2,,,,,,,,,0,64,127,,
63210,note_on,76,0,2,,,,,,,,,0,,,56,0
63210,note_on,0,0,2,,,,,,,,,0,,,68,0
63240,note_on,0,0,2,,,,,,,,,0,,,50,67
63240,set_tempo,240,1,0,,,,,,606551,,,,,,,
63240,note_on,30,0,2,,,,,,,,,0,,,62,85
63325,control_change,85,0,2,,,,,,,,,0,64,0,,
63330,note_on,0,0,2,,,,,,,,,0,,,62,0
63330,note_on,5,0,2,,,,,,,,,0,,,50,0
63360,note_on,0,0,1,,,,,,,,,0,,,91,90
63360,note_on,30,0,2,,,,,,,,,0,,,55,71
63360,note_on,0,0,1,,,,,,,,,0,,,77,0
63360,note_on,0,0,1,,,,,,,,,0,,,75,72
63360,note_on,0,0,1,,,,,,,,,0,,,83,72
63360,note_on,0,0,1,,,,,,,,,0,,,86,0
63360,note_on,240,0,1,,,,,,,,,0,,,83,0
63360,note_on,0,0,2,,,,,,,,,0,,,67,88
63360,set_tempo,120,1,0,,,,,,594059,,,,,,,
63374,control_change,14,0,2,,,,,,,,,0,64,127,,
63450,note_on,0,0,2,,,,,,,,,0,,,55,0
63450,note_on,76,0,2,,,,,,,,,0,,,67,0
63480,note_on,0,0,2,,,,,,,,,0,,,66,85
63480,note_on,30,0,2,,,,,,,,,0,,,54,67
63480,set_tempo,120,1,0,,,,,,587142,,,,,,,
63551,control_change,71,0,2,,,,,,,,,0,64,0,,
63570,note_on,19,0,2,,,,,,,,,0,,,66,0
63570,note_on,0,0,2,,,,,,,,,0,,,54,0
63582,control_change,12,0,2,,,,,,,,,0,64,127,,
63600,note_on,0,0,1,,,,,,,,,0,,,72,63
63600,note_on,18,0,2,,,,,,,,,0,,,55,67
63600,note_on,0,0,1,,,,,,,,,0,,,83,0
63600,note_on,0,0,1,,,,,,,,,0,,,84,79
63600,note_on,0,0,1,,,,,,,,,0,,,91,0
63600,note_on,0,0,2,,,,,,,,,0,,,67,85
63600,note_on,0,0,1,,,,,,,,,0,,,75,63
63600,note_on,240,0,1,,,,,,,,,0,,,75,0
63690,note_on,0,0,2,,,,,,,,,0,,,55,0
63690,note_on,90,0,2,,,,,,,,,0,,,67,0
63720,note_on,30,0,2,,,,,,,,,0,,,60,85
63720,set_tempo,240,1,0,,,,,,594295,,,,,,,
63720,note_on,0,0,2,,,,,,,,,0,,,48,67
63810,note_on,0,0,2,,,,,,,,,0,,,60,0
63810,note_on,90,0,2,,,,,,,,,0,,,48,0
63819,control_change,9,0,2,,,,,,,,,0,64,0,,
63840,note_on,0,0,2,,,,,,,,,0,,,53,71
63840,note_on,21,0,2,,,,,,,,,0,,,65,88
63840,set_tempo,120,1,0,,,,,,606551,,,,,,,
63840,note_on,240,0,1,,,,,,,,,0,,,84,0
63840,note_on,0,0,1,,,,,,,,,0,,,72,0
63840,note_on,0,0,1,,,,,,,,,0,,,75,0
63930,note_on,0,0,2,,,,,,,,,0,,,65,0
63930,note_on,90,0,2,,,,,,,,,0,,,53,0
63960,note_on,0,0,2,,,,,,,,,0,,,64,86
63960,set_tempo,120,1,0,,,,,,581621,,,,,,,
63960,note_on,30,0,2,,,,,,,,,0,,,52,69
64050,note_on,90,0,2,,,,,,,,,0,,,64,0
64050,note_on,0,0,2,,,,,,,,,0,,,52,0
64080,note_on,240,0,1,,,,,,,,,0,,,74,67
64080,note_on,30,0,2,,,,,,,,,0,,,65,86
64080,note_on,0,0,2,,,,,,,,,0,,,53,69
64080,note_on,0,0,1,,,,,,,,,0,,,80,67
64080,note_on,0,0,1,,,,,,,,,0,,,86,85
64098,control_change,18,0,2,,,,,,,,,0,64,127,,
64170,note_on,72,0,2,,,,,,,,,0,,,53,0
64170,note_on,0,0,2,,,,,,,,,0,,,65,0
64200,note_on,0,0,2,,,,,,,,,0,,,59,86
64200,set_tempo,240,1,0,,,,,,594295,,,,,,,
64200,note_on,30,0,2,,,,,,,,,0,,,47,69
64290,note_on,0,0,2,,,,,,,,,0,,,47,0
64290,note_on,90,0,2,,,,,,,,,0,,,59,0
64292,control_change,2,0,2,,,,,,,,,0,64,0,,
64320,note_on,28,0,2,,,,,,,,,0,,,63,88
64320,note_on,0,0,1,,,,,,,,,0,,,91,92
64320,note_on,0,0,1,,,,,,,,,0,,,86,73
64320,note_on,0,0,1,,,,,,,,,0,,,86,0
64320,note_on,0,0,1,,,,,,,,,0,,,79,73
64320,note_on,240,0,1,,,,,,,,,0,,,80,0
64320,note_on,0,0,1,,,,,,,,,0,,,74,0
64320,set_tempo,120,1,0,,,,,,585366,,,,,,,
64320,note_on,0,0,2,,,,,,,,,0,,,51,71
64327,control_change,7,0,2,,,,,,,,,0,64,127,,
64410,note_on,83,0,2,,,,,,,,,0,,,51,0
64410,note_on,0,0,2,,,,,,,,,0,,,63,0
64440,set_tempo,120,1,0,,,,,,573504,,,,,,,
64440,note_on,0,0,2,,,,,,,,,0,,,50,67
64440,note_on,30,0,2,,,,,,,,,0,,,62,85
64514,control_change,74,0,2,,,,,,,,,0,64,0,,
64530,note_on,16,0,2,,,,,,,,,0,,,50,0
64530,note_on,0,0,2,,,,,,,,,0,,,62,0
64546,control_change,16,0,2,,,,,,,,,0,64,127,,
64560,note_on,0,0,1,,,,,,,,,0,,,84,82
64560,note_on,240,0,1,,,,,,,,,0,,,79,0
64560,note_on,0,0,1,,,,,,,,,0,,,86,0
64560,note_on,0,0,1,,,,,,,,,0,,,72,65
64560,note_on,0,0,1,,,,,,,,,0,,,91,0
64560,note_on,0,0,2,,,,,,,,,0,,,51,67
64560,note_on,14,0,2,,,,,,,,,0,,,63,85
64560,note_on,0,0,1,,,,,,,,,0,,,79,65
64620,set_tempo,180,1,0,,,,,,570831,,,,,,,
64650,note_on,90,0,2,,,,,,,,,0,,,51,0
64650,note_on,0,0,2,,,,,,,,,0,,,63,0
64680,note_on,30,0,2,,,,,,,,,0,,,60,85
64680,note_on,0,0,2,,,,,,,,,0,,,48,67
64740,control_change,60,0,2,,,,,,,,,0,64,0,,
64770,note_on,0,0,2,,,,,,,,,0,,,60,0
64770,note_on,30,0,2,,,,,,,,,0,,,48,0
64780,set_tempo,160,1,0,,,,,,568236,,,,,,,
64800,note_on,0,0,2,,,,,,,,,0,,,58,85
64800,note_on,30,0,2,,,,,,,,,0,,,46,67
64800,note_on,0,0,1,,,,,,,,,0,,,79,0
64800,note_on,0,0,1,,,,,,,,,0,,,72,0
64800,note_on,240,0,1,,,,,,,,,0,,,84,0
64890,note_on,90,0,2,,,,,,,,,0,,,58,0
64890,note_on,0,0,2,,,,,,,,,0,,,46,0
64920,note_on,30,0,2,,,,,,,,,0,,,44,64
64920,note_on,0,0,2,,,,,,,,,0,,,56,81
64940,set_tempo,160,1,0,,,,,,565611,,,,,,,
65010,note_on,0,0,2,,,,,,,,,0,,,44,0
65010,note_on,90,0,2,,,,,,,,,0,,,56,0
65040,note_on,240,0,1,,,,,,,,,0,,,80,75
65040,note_on,0,0,2,,,,,,,,,0,,,55,81
65040,note_on,0,0,1,,,,,,,,,0,,,92,95
65040,note_on,0,0,1,,,,,,,,,0,,,84,75
65040,set_tempo,100,1,0,,,,,,578871,,,,,,,
65040,note_on,30,0,2,,,,,,,,,0,,,43,64
65130,note_on,0,0,2,,,,,,,,,0,,,43,0
65130,note_on,90,0,2,,,,,,,,,0,,,55,0
65160,note_on,0,0,2,,,,,,,,,0,,,53,81
65160,note_on,30,0,2,,,,,,,,,0,,,41,64
65250,note_on,0,0,2,,,,,,,,,0,,,41,0
65250,note_on,90,0,2,,,,,,,,,0,,,53,0
65280,note_on,0,0,1,,,,,,,,,0,,,91,103
65280,note_on,0,0,1,,,,,,,,,0,,,84,0
65280,note_on,0,0,1,,,,,,,,,0,,,79,82
65280,note_on,0,0,1,,,,,,,,,0,,,80,0
65280,note_on,0,0,1,,,,,,,,,0,,,84,82
65280,set_tempo,240,1,0,,,,,,587142,,,,,,,
65280,note_on,240,0,1,,,,,,,,,0,,,92,0
65280,note_on,0,0,2,,,,,,,,,0,,,51,86
65280,note_on,30,0,2,,,,,,,,,0,,,39,69
65370,note_on,0,0,2,,,,,,,,,0,,,39,0
65370,note_on,90,0,2,,,,,,,,,0,,,51,0
65400,note_on,30,0,2,,,,,,,,,0,,,55,81
65400,note_on,0,0,2,,,,,,,,,0,,,43,64
65490,note_on,90,0,2,,,,,,,,,0,,,43,0
65490,note_on,0,0,2,,,,,,,,,0,,,55,0
65520,note_on,30,0,2,,,,,,,,,0,,,41,64
65520,set_tempo,240,1,0,,,,,,595711,,,,,,,
65520,note_on,0,0,1,,,,,,,,,0,,,79,0
65520,note_on,0,0,1,,,,,,,,,0,,,83,77
65520,note_on,0,0,1,,,,,,,,,0,,,84,0
65520,note_on,0,0,1,,,,,,,,,0,,,91,77
65520,note_on,0,0,1,,,,,,,,,0,,,95,96
65520,note_on,240,0,1,,,,,,,,,0,,,91,0
65520,note_on,0,0,2,,,,,,,,,0,,,53,81
65560,set_tempo,40,1,0,,,,,,598563,,,,,,,
65580,set_tempo,20,1,0,,,,,,601504,,,,,,,
65610,note_on,90,0,2,,,,,,,,,0,,,53,0
65610,note_on,0,0,2,,,,,,,,,0,,,41,0
65620,set_tempo,40,1,0,,,,,,604412,,,,,,,
65640,note_on,30,0,2,,,,,,,,,0,,,50,81
65640,note_on,0,0,2,,,,,,,,,0,,,38,64
65640,set_tempo,20,1,0,,,,,,607410,,,,,,,
65660,set_tempo,20,1,0,,,,,,610438,,,,,,,
65700,note_on,0,0,1,,,,,,,,,0,,,91,0
65700,note_on,180,0,1,,,,,,,,,0,,,83,0
65700,note_on,0,0,1,,,,,,,,,0,,,95,0
65700,set_tempo,40,1,0,,,,,,613434,,,,,,,
65720,set_tempo,20,1,0,,,,,,616523,,,,,,,
65730,note_on,90,0,2,,,,,,,,,0,,,38,0
65740,note_on,10,0,2,,,,,,,,,0,,,50,0
65740,set_tempo,20,1,0,,,,,,619579,,,,,,,
65741,set_tempo,1,1,0,,,,,,603015,,,,,,,
65760,note_on,0,0,1,,,,,,,,,0,,,87,86
65760,note_on,0,0,1,,,,,,,,,0,,,96,108
65760,note_on,0,0,2,,,,,,,,,0,,,35,67
65760,note_on,60,0,1,,,,,,,,,0,,,84,86
65760,set_tempo,19,1,0,,,,,,614314,,,,,,,
65760,note_on,20,0,2,,,,,,,,,0,,,47,85
65880,note_on,0,0,2,,,,,,,,,0,,,36,66
65880,note_on,0,0,2,,,,,,,,,0,,,48,83
65880,note_on,120,0,2,,,,,,,,,0,,,35,0
65880,note_on,0,0,2,,,,,,,,,0,,,47,0
65940,note_on,180,0,1,,,,,,,,,0,,,96,0
65940,note_on,0,0,1,,,,,,,,,0,,,84,0
65940,note_on,0,0,1,,,,,,,,,0,,,87,0
65980,note_on,100,0,2,,,,,,,,,0,,,36,0
65980,note_on,0,0,2,,,,,,,,,0,,,48,0
66000,note_on,0,0,1,,,,,,,,,0,,,72,92
66000,note_on,20,0,2,,,,,,,,,0,,,55,73
66000,note_on,0,0,2,,,,,,,,,0,,,60,92
66000,note_on,60,0,1,,,,,,,,,0,,,63,73
66000,note_on,0,0,2,,,,,,,,,0,,,51,73
66000,set_tempo,240,1,0,,,,,,764331,,,,,,,
66000,note_on,0,0,1,,,,,,,,,0,,,67,73
66180,note_on,0,0,1,,,,,,,,,0,,,63,0
66180,note_on,0,0,1,,,,,,,,,0,,,67,0
66180,note_on,0,0,2,,,,,,,,,0,,,51,0
66180,note_on,0,0,2,,,,,,,,,0,,,55,0
66180,note_on,180,0,2,,,,,,,,,0,,,60,0
66180,note_on,180,0,1,,,,,,,,,0,,,72,0
66240,note_on,0,0,1,,,,,,,,,0,,,70,101
66240,note_on,0,0,2,,,,,,,,,0,,,46,97
66240,set_tempo,240,1,0,,,,,,648438,,,,,,,
66240,note_on,60,0,2,,,,,,,,,0,,,34,87
66240,note_on,60,0,1,,,,,,,,,0,,,58,90
66480,note_on,0,0,1,,,,,,,,,0,,,65,74
66480,note_on,0,0,2,,,,,,,,,0,,,44,74
66480,note_on,240,0,2,,,,,,,,,0,,,41,66
66480,note_on,240,0,1,,,,,,,,,0,,,62,74
66600,note_on,0,0,2,,,,,,,,,0,,,34,0
66600,note_on,0,0,2,,,,,,,,,0,,,34,78
66600,note_on,0,0,2,,,,,,,,,0,,,46,87
66600,note_on,0,0,1,,,,,,,,,0,,,58,0
66600,set_tempo,360,1,0,,,,,,604778,,,,,,,
66600,note_on,120,0,1,,,,,,,,,0,,,70,0
66600,note_on,0,0,1,,,,,,,,,0,,,58,78
66600,note_on,120,0,2,,,,,,,,,0,,,46,0
66600,note_on,0,0,1,,,,,,,,,0,,,70,87
66720,note_on,0,0,2,,,,,,,,,0,,,46,92
66720,note_on,0,0,1,,,,,,,,,0,,,70,92
66720,note_on,0,0,2,,,,,,,,,0,,,44,0
66720,note_on,0,0,2,,,,,,,,,0,,,41,0
66720,note_on,120,0,1,,,,,,,,,0,,,70,0
66720,note_on,0,0,2,,,,,,,,,0,,,34,82
66720,note_on,0,0,1,,,,,,,,,0,,,65,0
66720,note_on,0,0,2,,,,,,,,,0,,,34,0
66720,note_on,0,0,1,,,,,,,,,0,,,58,82
66720,note_on,0,0,1,,,,,,,,,0,,,58,0
66720,note_on,120,0,2,,,,,,,,,0,,,46,0
66720,note_on,0,0,1,,,,,,,,,0,,,62,0
66840,note_on,0,0,2,,,,,,,,,0,,,34,0
66840,note_on,120,0,1,,,,,,,,,0,,,70,0
66840,note_on,0,0,1,,,,,,,,,0,,,69,81
66840,note_on,0,0,1,,,,,,,,,0,,,58,0
66840,note_on,0,0,1,,,,,,,,,0,,,57,72
66840,note_on,120,0,2,,,,,,,,,0,,,46,0
66840,set_tempo,240,1,0,,,,,,583601,,,,,,,
66840,note_on,0,0,2,,,,,,,,,0,,,33,69
66840,note_on,0,0,2,,,,,,,,,0,,,45,77
66960,note_on,120,0,2,,,,,,,,,0,,,45,0
66960,note_on,0,0,2,,,,,,,,,0,,,34,72
66960,note_on,0,0,2,,,,,,,,,0,,,46,81
66960,note_on,120,0,1,,,,,,,,,0,,,69,0
66960,note_on,0,0,1,,,,,,,,,0,,,70,83
66960,note_on,0,0,1,,,,,,,,,0,,,58,74
66960,note_on,0,0,1,,,,,,,,,0,,,57,0
66960,note_on,0,0,2,,,,,,,,,0,,,33,0
67080,note_on,0,0,2,,,,,,,,,0,,,34,0
67080,note_on,0,0,2,,,,,,,,,0,,,38,75
67080,note_on,0,0,2,,,,,,,,,0,,,50,85
67080,note_on,0,0,1,,,,,,,,,0,,,74,86
67080,note_on,0,0,1,,,,,,,,,0,,,62,77
67080,note_on,120,0,1,,,,,,,,,0,,,70,0
67080,note_on,120,0,2,,,,,,,,,0,,,46,0
67080,note_on,0,0,1,,,,,,,,,0,,,58,0
67200,note_on,120,0,1,,,,,,,,,0,,,74,0
67200,note_on,0,0,2,,,,,,,,,0,,,38,0
67200,note_on,120,0,2,,,,,,,,,0,,,50,0
67200,note_on,0,0,1,,,,,,,,,0,,,62,0
67200,note_on,0,0,1,,,,,,,,,0,,,65,79
67200,note_on,0,0,1,,,,,,,,,0,,,77,88
67200,note_on,0,0,2,,,,,,,,,0,,,41,78
67200,set_tempo,360,1,0,,,,,,595533,,,,,,,
67200,note_on,0,0,2,,,,,,,,,0,,,53,87
67320,note_on,0,0,1,,,,,,,,,0,,,82,90
67320,note_on,0,0,1,,,,,,,,,0,,,70,81
67320,note_on,120,0,1,,,,,,,,,0,,,77,0
67320,note_on,0,0,2,,,,,,,,,0,,,46,81
67320,note_on,0,0,1,,,,,,,,,0,,,65,0
67320,note_on,120,0,2,,,,,,,,,0,,,53,0
67320,set_tempo,120,1,0,,,,,,569368,,,,,,,
67320,note_on,0,0,2,,,,,,,,,0,,,41,0
67320,note_on,0,0,2,,,,,,,,,0,,,58,90
67324,control_change,4,0,2,,,,,,,,,0,64,127,,
67440,note_on,116,0,2,,,,,,,,,0,,,58,0
67440,note_on,0,0,2,,,,,,,,,0,,,46,0
67440,note_on,0,0,2,,,,,,,,,0,,,50,83
67440,note_on,0,0,2,,,,,,,,,0,,,62,94
67440,note_on,0,0,1,,,,,,,,,0,,,86,93
67440,note_on,0,0,1,,,,,,,,,0,,,74,82
67440,note_on,0,0,1,,,,,,,,,0,,,70,0
67440,note_on,120,0,1,,,,,,,,,0,,,82,0
67560,note_on,120,0,1,,,,,,,,,0,,,86,0
67560,note_on,0,0,1,,,,,,,,,0,,,89,95
67560,note_on,0,0,1,,,,,,,,,0,,,77,85
67560,note_on,0,0,1,,,,,,,,,0,,,74,0
67560,set_tempo,240,1,0,,,,,,558451,,,,,,,
67560,note_on,0,0,2,,,,,,,,,0,,,65,96
67560,note_on,0,0,2,,,,,,,,,0,,,53,86
67560,note_on,0,0,2,,,,,,,,,0,,,50,0
67560,note_on,120,0,2,,,,,,,,,0,,,62,0
67641,control_change,81,0,2,,,,,,,,,0,64,0,,
67661,set_tempo,101,1,0,,,,,,574163,,,,,,,
67680,note_on,0,0,2,,,,,,,,,0,,,68,100
67680,note_on,0,0,1,,,,,,,,,0,,,92,97
67680,set_tempo,19,1,0,,,,,,588235,,,,,,,
67680,note_on,39,0,2,,,,,,,,,0,,,65,0
67680,note_on,0,0,1,,,,,,,,,0,,,77,0
67680,note_on,0,0,1,,,,,,,,,0,,,80,87
67680,control_change,0,0,2,,,,,,,,,0,64,127,,
67680,note_on,0,0,2,,,,,,,,,0,,,53,0
67680,note_on,0,0,2,,,,,,,,,0,,,56,89
67680,note_on,120,0,1,,,,,,,,,0,,,89,0
67800,note_on,0,0,1,,,,,,,,,0,,,80,0
67800,note_on,0,0,1,,,,,,,,,0,,,77,82
67800,note_on,120,0,1,,,,,,,,,0,,,92,0
67800,note_on,120,0,2,,,,,,,,,0,,,56,0
67800,note_on,0,0,1,,,,,,,,,0,,,89,92
67800,note_on,0,0,2,,,,,,,,,0,,,68,0
67800,note_on,0,0,2,,,,,,,,,0,,,53,82
67800,note_on,0,0,2,,,,,,,,,0,,,65,92
67920,note_on,0,0,1,,,,,,,,,0,,,74,70
67920,note_on,120,0,2,,,,,,,,,0,,,65,0
67920,set_tempo,240,1,0,,,,,,727273,,,,,,,
67920,note_on,0,0,1,,,,,,,,,0,,,77,0
67920,note_on,0,0,2,,,,,,,,,0,,,50,71
67920,note_on,0,0,2,,,,,,,,,0,,,53,0
67920,note_on,0,0,2,,,,,,,,,0,,,58,71
67920,note_on,0,0,2,,,,,,,,,0,,,56,71
67920,note_on,0,0,1,,,,,,,,,0,,,86,78
67920,note_on,0,0,1,,,,,,,,,0,,,77,70
67920,note_on,120,0,1,,,,,,,,,0,,,89,0
67920,note_on,0,0,2,,,,,,,,,0,,,62,79
68046,control_change,126,0,2,,,,,,,,,0,64,0,,
68100,note_on,0,0,2,,,,,,,,,0,,,50,0
68100,note_on,180,0,1,,,,,,,,,0,,,77,0
68100,note_on,0,0,2,,,,,,,,,0,,,56,0
68100,note_on,0,0,2,,,,,,,,,0,,,58,0
68100,note_on,0,0,1,,,,,,,,,0,,,86,0
68100,note_on,0,0,1,,,,,,,,,0,,,74,0
68100,note_on,54,0,2,,,,,,,,,0,,,62,0
68160,note_on,60,0,1,,,,,,,,,0,,,58,90
68160,set_tempo,240,1,0,,,,,,648438,,,,,,,
68160,note_on,60,0,2,,,,,,,,,0,,,34,87
68160,note_on,0,0,2,,,,,,,,,0,,,46,97
68160,note_on,0,0,1,,,,,,,,,0,,,70,101
68400,note_on,240,0,2,,,,,,,,,0,,,41,66
68400,note_on,0,0,1,,,,,,,,,0,,,65,74
68400,note_on,240,0,1,,,,,,,,,0,,,62,66
68400,note_on,0,0,2,,,,,,,,,0,,,44,74
68520,set_tempo,360,1,0,,,,,,591133,,,,,,,
68520,note_on,0,0,2,,,,,,,,,0,,,46,87
68520,note_on,0,0,1,,,,,,,,,0,,,58,0
68520,note_on,0,0,1,,,,,,,,,0,,,58,78
68520,note_on,0,0,1,,,,,,,,,0,,,70,87
68520,note_on,120,0,2,,,,,,,,,0,,,46,0
68520,note_on,0,0,2,,,,,,,,,0,,,34,78
68520,note_on,120,0,1,,,,,,,,,0,,,70,0
68520,note_on,0,0,2,,,,,,,,,0,,,34,0
68640,note_on,0,0,1,,,,,,,,,0,,,70,92
68640,note_on,0,0,1,,,,,,,,,0,,,65,0
68640,note_on,0,0,1,,,,,,,,,0,,,62,0
68640,note_on,0,0,1,,,,,,,,,0,,,58,82
68640,note_on,120,0,2,,,,,,,,,0,,,46,0
68640,note_on,0,0,2,,,,,,,,,0,,,34,82
68640,note_on,0,0,2,,,,,,,,,0,,,44,0
68640,note_on,0,0,2,,,,,,,,,0,,,46,92
68640,note_on,0,0,2,,,,,,,,,0,,,34,0
68640,note_on,0,0,2,,,,,,,,,0,,,41,0
68640,note_on,0,0,1,,,,,,,,,0,,,58,0
68640,note_on,120,0,1,,,,,,,,,0,,,70,0
68760,note_on,0,0,2,,,,,,,,,0,,,45,77
68760,set_tempo,240,1,0,,,,,,574163,,,,,,,
68760,note_on,0,0,1,,,,,,,,,0,,,69,81
68760,note_on,0,0,1,,,,,,,,,0,,,58,0
68760,note_on,0,0,1,,,,,,,,,0,,,57,72
68760,note_on,120,0,1,,,,,,,,,0,,,70,0
68760,note_on,0,0,2,,,,,,,,,0,,,33,69
68760,note_on,0,0,2,,,,,,,,,0,,,34,0
68760,note_on,120,0,2,,,,,,,,,0,,,46,0
68880,note_on,120,0,1,,,,,,,,,0,,,69,0
68880,note_on,0,0,2,,,,,,,,,0,,,46,81
68880,note_on,0,0,2,,,,,,,,,0,,,34,72
68880,note_on,120,0,2,,,,,,,,,0,,,45,0
68880,note_on,0,0,1,,,,,,,,,0,,,57,0
68880,note_on,0,0,1,,,,,,,,,0,,,58,74
68880,note_on,0,0,1,,,,,,,,,0,,,70,83
68880,note_on,0,0,2,,,,,,,,,0,,,33,0
69000,note_on,0,0,2,,,,,,,,,0,,,34,0
69000,note_on,0,0,2,,,,,,,,,0,,,38,75
69000,note_on,120,0,1,,,,,,,,,0,,,70,0
69000,note_on,0,0,1,,,,,,,,,0,,,74,86
69000,note_on,0,0,2,,,,,,,,,0,,,50,85
69000,note_on,120,0,2,,,,,,,,,0,,,46,0
69000,note_on,0,0,1,,,,,,,,,0,,,62,77
69000,note_on,0,0,1,,,,,,,,,0,,,58,0
69120,note_on,120,0,2,,,,,,,,,0,,,50,0
69120,note_on,0,0,2,,,,,,,,,0,,,53,87
69120,note_on,0,0,2,,,,,,,,,0,,,41,78
69120,note_on,0,0,2,,,,,,,,,0,,,38,0
69120,set_tempo,360,1,0,,,,,,588235,,,,,,,
69120,note_on,120,0,1,,,,,,,,,0,,,74,0
69120,note_on,0,0,1,,,,,,,,,0,,,62,0
69120,note_on,0,0,1,,,,,,,,,0,,,65,79
69120,note_on,0,0,1,,,,,,,,,0,,,77,88
69240,note_on,0,0,1,,,,,,,,,0,,,82,90
69240,note_on,120,0,2,,,,,,,,,0,,,53,0
69240,note_on,0,0,2,,,,,,,,,0,,,58,90
69240,note_on,0,0,2,,,,,,,,,0,,,46,81
69240,note_on,0,0,2,,,,,,,,,0,,,41,0
69240,note_on,0,0,1,,,,,,,,,0,,,65,0
69240,note_on,0,0,1,,,,,,,,,0,,,70,81
69240,note_on,120,0,1,,,,,,,,,0,,,77,0
69240,set_tempo,120,1,0,,,,,,594059,,,,,,,
69244,control_change,4,0,2,,,,,,,,,0,64,127,,
69360,note_on,120,0,1,,,,,,,,,0,,,82,0
69360,note_on,0,0,1,,,,,,,,,0,,,74,82
69360,note_on,0,0,1,,,,,,,,,0,,,86,93
69360,note_on,0,0,2,,,,,,,,,0,,,62,94
69360,note_on,0,0,2,,,,,,,,,0,,,50,83
69360,note_on,0,0,2,,,,,,,,,0,,,46,0
69360,set_tempo,120,1,0,,,,,,603015,,,,,,,
69360,note_on,116,0,2,,,,,,,,,0,,,58,0
69360,note_on,0,0,1,,,,,,,,,0,,,70,0
69420,set_tempo,60,1,0,,,,,,606061,,,,,,,
69480,note_on,0,0,2,,,,,,,,,0,,,65,96
69480,note_on,0,0,1,,,,,,,,,0,,,74,0
69480,note_on,120,0,1,,,,,,,,,0,,,86,0
69480,note_on,0,0,1,,,,,,,,,0,,,77,85
69480,set_tempo,60,1,0,,,,,,609137,,,,,,,
69480,note_on,0,0,1,,,,,,,,,0,,,89,95
69480,note_on,120,0,2,,,,,,,,,0,,,62,0
69480,note_on,0,0,2,,,,,,,,,0,,,50,0
69480,note_on,0,0,2,,,,,,,,,0,,,53,86
69540,set_tempo,60,1,0,,,,,,612245,,,,,,,
69561,control_change,81,0,2,,,,,,,,,0,64,0,,
69580,set_tempo,40,1,0,,,,,,615385,,,,,,,
69581,set_tempo,1,1,0,,,,,,574163,,,,,,,
69600,note_on,0,0,2,,,,,,,,,0,,,68,100
69600,note_on,120,0,1,,,,,,,,,0,,,89,0
69600,note_on,0,0,2,,,,,,,,,0,,,56,89
69600,note_on,0,0,2,,,,,,,,,0,,,53,0
69600,note_on,0,0,1,,,,,,,,,0,,,80,87
69600,note_on,39,0,2,,,,,,,,,0,,,65,0
69600,note_on,0,0,1,,,,,,,,,0,,,77,0
69600,control_change,0,0,2,,,,,,,,,0,64,127,,
69600,note_on,0,0,1,,,,,,,,,0,,,92,97
69600,set_tempo,19,1,0,,,,,,641711,,,,,,,
69720,set_tempo,120,1,0,,,,,,718563,,,,,,,
69720,note_on,0,0,2,,,,,,,,,0,,,53,82
69720,note_on,0,0,2,,,,,,,,,0,,,65,92
69720,note_on,120,0,2,,,,,,,,,0,,,56,0
69720,note_on,0,0,1,,,,,,,,,0,,,80,0
69720,note_on,0,0,1,,,,,,,,,0,,,77,82
69720,note_on,0,0,1,,,,,,,,,0,,,89,92
69720,note_on,120,0,1,,,,,,,,,0,,,92,0
69720,note_on,0,0,2,,,,,,,,,0,,,68,0
69810,note_on,0,0,1,,,,,,,,,0,,,77,0
69810,note_on,90,0,2,,,,,,,,,0,,,65,0
69810,note_on,90,0,1,,,,,,,,,0,,,89,0
69810,note_on,0,0,2,,,,,,,,,0,,,53,0
69840,note_on,0,0,1,,,,,,,,,0,,,74,70
69840,note_on,0,0,2,,,,,,,,,0,,,62,79
69840,note_on,0,0,2,,,,,,,,,0,,,59,71
69840,note_on,0,0,2,,,,,,,,,0,,,56,71
69840,note_on,30,0,1,,,,,,,,,0,,,83,78
69840,note_on,0,0,1,,,,,,,,,0,,,71,70
69840,note_on,30,0,2,,,,,,,,,0,,,47,71
69840,set_tempo,120,1,0,,,,,,779221,,,,,,,
69966,control_change,126,0,2,,,,,,,,,0,64,0,,
70020,note_on,180,0,1,,,,,,,,,0,,,71,0
70020,note_on,0,0,1,,,,,,,,,0,,,83,0
70020,note_on,0,0,1,,,,,,,,,0,,,74,0
70020,note_on,54,0,2,,,,,,,,,0,,,62,0
70020,note_on,0,0,2,,,,,,,,,0,,,47,0
70020,note_on,0,0,2,,,,,,,,,0,,,56,0
70020,note_on,0,0,2,,,,,,,,,0,,,59,0
70080,note_on,0,0,2,,,,,,,,,0,,,55,100
70080,set_tempo,240,1,0,,,,,,718563,,,,,,,
70080,note_on,60,0,1,,,,,,,,,0,,,67,92
70080,note_on,60,0,2,,,,,,,,,0,,,43,100
70080,note_on,0,0,1,,,,,,,,,0,,,79,102
70440,note_on,0,0,2,,,,,,,,,0,,,51,78
70440,note_on,0,0,2,,,,,,,,,0,,,43,0
70440,note_on,360,0,2,,,,,,,,,0,,,55,0
70440,set_tempo,360,1,0,,,,,,674157,,,,,,,
70440,note_on,0,0,2,,,,,,,,,0,,,39,78
70440,note_on,360,0,1,,,,,,,,,0,,,79,0
70440,note_on,0,0,1,,,,,,,,,0,,,63,78
70440,note_on,0,0,1,,,,,,,,,0,,,67,0
70440,note_on,0,0,1,,,,,,,,,0,,,75,87
70560,note_on,120,0,1,,,,,,,,,0,,,75,0
70560,note_on,0,0,2,,,,,,,,,0,,,36,82
70560,set_tempo,120,1,0,,,,,,655738,,,,,,,
70560,note_on,0,0,2,,,,,,,,,0,,,39,0
70560,note_on,0,0,2,,,,,,,,,0,,,48,82
70560,note_on,0,0,1,,,,,,,,,0,,,63,0
70560,note_on,0,0,1,,,,,,,,,0,,,60,82
70560,note_on,0,0,1,,,,,,,,,0,,,72,93
70560,note_on,120,0,2,,,,,,,,,0,,,51,0
70650,note_on,0,0,1,,,,,,,,,0,,,60,0
70650,note_on,0,0,2,,,,,,,,,0,,,36,0
70650,note_on,90,0,1,,,,,,,,,0,,,72,0
70650,note_on,90,0,2,,,,,,,,,0,,,48,0
70680,note_on,30,0,2,,,,,,,,,0,,,35,78
70680,note_on,30,0,1,,,,,,,,,0,,,59,78
70680,note_on,0,0,1,,,,,,,,,0,,,71,87
70680,note_on,0,0,2,,,,,,,,,0,,,47,78
70680,set_tempo,120,1,0,,,,,,645161,,,,,,,
70770,note_on,0,0,1,,,,,,,,,0,,,59,0
70770,note_on,90,0,2,,,,,,,,,0,,,47,0
70770,note_on,90,0,1,,,,,,,,,0,,,71,0
70770,note_on,0,0,2,,,,,,,,,0,,,35,0
70800,note_on,0,0,2,,,,,,,,,0,,,48,78
70800,note_on,0,0,1,,,,,,,,,0,,,72,87
70800,note_on,30,0,1,,,,,,,,,0,,,63,57
70800,note_on,0,0,1,,,,,,,,,0,,,60,78
70800,note_on,0,0,2,,,,,,,,,0,,,36,78
70800,note_on,30,0,2,,,,,,,,,0,,,39,57
70800,note_on,0,0,2,,,,,,,,,0,,,43,57
70800,note_on,0,0,1,,,,,,,,,0,,,67,57
70800,set_tempo,120,1,0,,,,,,625000,,,,,,,
70920,note_on,0,0,2,,,,,,,,,0,,,38,78
70920,note_on,120,0,2,,,,,,,,,0,,,48,0
70920,note_on,0,0,2,,,,,,,,,0,,,50,78
70920,note_on,0,0,1,,,,,,,,,0,,,74,87
70920,note_on,0,0,1,,,,,,,,,0,,,62,78
70920,note_on,0,0,2,,,,,,,,,0,,,36,0
70920,note_on,120,0,1,,,,,,,,,0,,,72,0
70920,note_on,0,0,1,,,,,,,,,0,,,60,0
70980,note_on,60,0,1,,,,,,,,,0,,,67,0
70980,note_on,0,0,2,,,,,,,,,0,,,39,0
70980,note_on,0,0,1,,,,,,,,,0,,,63,0
70980,note_on,60,0,2,,,,,,,,,0,,,43,0
71040,note_on,0,0,2,,,,,,,,,0,,,43,60
71040,note_on,0,0,2,,,,,,,,,0,,,48,60
71040,note_on,0,0,2,,,,,,,,,0,,,50,0
71040,note_on,0,0,2,,,,,,,,,0,,,51,81
71040,note_on,0,0,1,,,,,,,,,0,,,63,81
71040,note_on,0,0,1,,,,,,,,,0,,,67,60
71040,note_on,60,0,2,,,,,,,,,0,,,38,0
71040,note_on,0,0,2,,,,,,,,,0,,,39,81
71040,note_on,0,0,1,,,,,,,,,0,,,75,90
71040,note_on,60,0,1,,,,,,,,,0,,,62,0
71040,note_on,0,0,1,,,,,,,,,0,,,72,60
71040,set_tempo,240,1,0,,,,,,638298,,,,,,,
71040,note_on,0,0,1,,,,,,,,,0,,,74,0
71130,note_on,0,0,1,,,,,,,,,0,,,63,0
71130,note_on,0,0,2,,,,,,,,,0,,,39,0
71130,note_on,90,0,2,,,,,,,,,0,,,51,0
71130,note_on,90,0,1,,,,,,,,,0,,,75,0
71160,note_on,0,0,1,,,,,,,,,0,,,74,87
71160,note_on,30,0,2,,,,,,,,,0,,,38,78
71160,note_on,0,0,2,,,,,,,,,0,,,50,78
71160,set_tempo,120,1,0,,,,,,628272,,,,,,,
71160,note_on,30,0,1,,,,,,,,,0,,,62,78
71250,note_on,90,0,1,,,,,,,,,0,,,74,0
71250,note_on,90,0,2,,,,,,,,,0,,,50,0
71250,note_on,0,0,2,,,,,,,,,0,,,38,0
71250,note_on,0,0,1,,,,,,,,,0,,,62,0
71280,note_on,30,0,2,,,,,,,,,0,,,39,78
71280,set_tempo,120,1,0,,,,,,615385,,,,,,,
71280,note_on,0,0,2,,,,,,,,,0,,,51,78
71280,note_on,0,0,1,,,,,,,,,0,,,75,87
71280,note_on,30,0,1,,,,,,,,,0,,,63,78
71400,note_on,0,0,2,,,,,,,,,0,,,53,78
71400,note_on,120,0,2,,,,,,,,,0,,,51,0
71400,note_on,0,0,1,,,,,,,,,0,,,77,87
71400,note_on,0,0,2,,,,,,,,,0,,,41,78
71400,note_on,0,0,1,,,,,,,,,0,,,63,0
71400,note_on,0,0,2,,,,,,,,,0,,,39,0
71400,note_on,120,0,1,,,,,,,,,0,,,75,0
71400,note_on,0,0,1,,,,,,,,,0,,,65,78
71520,note_on,0,0,1,,,,,,,,,0,,,67,0
71520,note_on,0,0,1,,,,,,,,,0,,,65,0
71520,note_on,0,0,2,,,,,,,,,0,,,41,0
71520,note_on,0,0,1,,,,,,,,,0,,,72,60
71520,note_on,0,0,1,,,,,,,,,0,,,74,60
71520,note_on,120,0,1,,,,,,,,,0,,,77,0
71520,note_on,0,0,1,,,,,,,,,0,,,79,90
71520,note_on,0,0,2,,,,,,,,,0,,,48,0
71520,note_on,0,0,1,,,,,,,,,0,,,72,0
71520,note_on,0,0,2,,,,,,,,,0,,,48,60
71520,note_on,0,0,2,,,,,,,,,0,,,43,0
71520,note_on,0,0,2,,,,,,,,,0,,,50,60
71520,note_on,0,0,2,,,,,,,,,0,,,43,81
71520,note_on,0,0,1,,,,,,,,,0,,,67,81
71520,note_on,0,0,2,,,,,,,,,0,,,55,81
71520,note_on,120,0,2,,,,,,,,,0,,,53,0
71520,set_tempo,240,1,0,,,,,,634921,,,,,,,
71610,note_on,0,0,1,,,,,,,,,0,,,67,0
71610,note_on,0,0,2,,,,,,,,,0,,,43,0
71610,note_on,90,0,1,,,,,,,,,0,,,79,0
71610,note_on,90,0,2,,,,,,,,,0,,,55,0
71640,note_on,0,0,2,,,,,,,,,0,,,54,78
71640,set_tempo,120,1,0,,,,,,612245,,,,,,,
71640,note_on,30,0,1,,,,,,,,,0,,,66,78
71640,note_on,30,0,2,,,,,,,,,0,,,42,78
71640,note_on,0,0,1,,,,,,,,,0,,,78,87
71700,note_on,0,0,1,,,,,,,,,0,,,74,0
71700,note_on,60,0,1,,,,,,,,,0,,,72,0
71700,note_on,0,0,2,,,,,,,,,0,,,50,0
71700,note_on,60,0,2,,,,,,,,,0,,,48,0
71740,note_on,0,0,1,,,,,,,,,0,,,78,0
71740,note_on,40,0,1,,,,,,,,,0,,,66,0
71740,note_on,0,0,2,,,,,,,,,0,,,54,0
71740,note_on,40,0,2,,,,,,,,,0,,,42,0
71760,note_on,20,0,2,,,,,,,,,0,,,47,60
71760,set_tempo,120,1,0,,,,,,597015,,,,,,,
71760,note_on,0,0,2,,,,,,,,,0,,,43,78
71760,note_on,0,0,2,,,,,,,,,0,,,50,60
71760,note_on,0,0,2,,,,,,,,,0,,,55,78
71760,note_on,20,0,1,,,,,,,,,0,,,71,60
71760,note_on,0,0,1,,,,,,,,,0,,,79,87
71760,note_on,0,0,1,,,,,,,,,0,,,74,60
71760,note_on,0,0,1,,,,,,,,,0,,,67,78
71880,note_on,0,0,1,,,,,,,,,0,,,67,0
71880,note_on,0,0,1,,,,,,,,,0,,,81,87
71880,note_on,0,0,1,,,,,,,,,0,,,69,78
71880,note_on,120,0,2,,,,,,,,,0,,,55,0
71880,note_on,120,0,1,,,,,,,,,0,,,79,0
71880,note_on,0,0,2,,,,,,,,,0,,,57,78
71880,note_on,0,0,2,,,,,,,,,0,,,45,78
71880,note_on,0,0,2,,,,,,,,,0,,,43,0
71940,note_on,0,0,2,,,,,,,,,0,,,47,0
71940,note_on,60,0,1,,,,,,,,,0,,,74,0
71940,note_on,60,0,2,,,,,,,,,0,,,50,0
71940,note_on,0,0,1,,,,,,,,,0,,,71,0
72000,note_on,0,0,2,,,,,,,,,0,,,59,83
72000,note_on,0,0,2,,,,,,,,,0,,,45,0
72000,set_tempo,240,1,0,,,,,,615385,,,,,,,
72000,note_on,0,0,1,,,,,,,,,0,,,71,83
72000,note_on,60,0,1,,,,,,,,,0,,,81,0
72000,note_on,0,0,1,,,,,,,,,0,,,69,0
72000,note_on,0,0,2,,,,,,,,,0,,,47,83
72000,note_on,0,0,1,,,,,,,,,0,,,83,94
72000,note_on,60,0,2,,,,,,,,,0,,,57,0
72090,note_on,0,0,2,,,,,,,,,0,,,47,0
72090,note_on,90,0,2,,,,,,,,,0,,,59,0
72090,note_on,0,0,1,,,,,,,,,0,,,71,0
72090,note_on,90,0,1,,,,,,,,,0,,,83,0
72120,note_on,0,0,2,,,,,,,,,0,,,57,78
72120,note_on,0,0,1,,,,,,,,,0,,,81,87
72120,note_on,30,0,2,,,,,,,,,0,,,45,78
72120,set_tempo,120,1,0,,,,,,591133,,,,,,,
72120,note_on,30,0,1,,,,,,,,,0,,,69,78
72230,note_on,110,0,1,,,,,,,,,0,,,81,0
72230,note_on,0,0,2,,,,,,,,,0,,,45,0
72230,note_on,110,0,2,,,,,,,,,0,,,57,0
72230,note_on,0,0,1,,,,,,,,,0,,,69,0
72240,note_on,0,0,2,,,,,,,,,0,,,53,60
72240,note_on,10,0,2,,,,,,,,,0,,,50,60
72240,note_on,10,0,1,,,,,,,,,0,,,74,60
72240,note_on,0,0,2,,,,,,,,,0,,,47,78
72240,note_on,0,0,1,,,,,,,,,0,,,71,78
72240,note_on,0,0,1,,,,,,,,,0,,,77,60
72240,note_on,0,0,1,,,,,,,,,0,,,83,87
72240,note_on,0,0,2,,,,,,,,,0,,,59,78
72360,note_on,120,0,2,,,,,,,,,0,,,59,0
72360,note_on,120,0,1,,,,,,,,,0,,,83,0
72360,note_on,0,0,2,,,,,,,,,0,,,43,78
72360,note_on,0,0,1,,,,,,,,,0,,,67,78
72360,note_on,0,0,2,,,,,,,,,0,,,55,78
72360,note_on,0,0,1,,,,,,,,,0,,,79,87
72360,note_on,0,0,1,,,,,,,,,0,,,71,0
72360,note_on,0,0,2,,,,,,,,,0,,,47,0
72420,note_on,60,0,2,,,,,,,,,0,,,53,0
72420,note_on,0,0,1,,,,,,,,,0,,,74,0
72420,note_on,0,0,2,,,,,,,,,0,,,50,0
72420,note_on,60,0,1,,,,,,,,,0,,,77,0
72480,set_tempo,360,1,0,,,,,,600000,,,,,,,
72480,note_on,0,0,1,,,,,,,,,0,,,84,98
72480,note_on,60,0,2,,,,,,,,,0,,,43,0
72480,note_on,0,0,2,,,,,,,,,0,,,51,67
72480,note_on,0,0,2,,,,,,,,,0,,,55,0
72480,note_on,0,0,2,,,,,,,,,0,,,60,88
72480,note_on,0,0,1,,,,,,,,,0,,,72,88
72480,note_on,0,0,1,,,,,,,,,0,,,79,0
72480,note_on,0,0,1,,,,,,,,,0,,,75,67
72480,note_on,0,0,2,,,,,,,,,0,,,48,88
72480,note_on,60,0,1,,,,,,,,,0,,,67,0
72580,note_on,0,0,1,,,,,,,,,0,,,72,0
72580,note_on,100,0,2,,,,,,,,,0,,,60,0
72580,note_on,0,0,2,,,,,,,,,0,,,48,0
72580,note_on,100,0,1,,,,,,,,,0,,,84,0
72600,note_on,0,0,1,,,,,,,,,0,,,83,86
72600,note_on,20,0,2,,,,,,,,,0,,,47,77
72600,note_on,20,0,1,,,,,,,,,0,,,71,77
72600,note_on,0,0,2,,,,,,,,,0,,,59,77
72600,set_tempo,120,1,0,,,,,,582524,,,,,,,
72660,note_on,60,0,1,,,,,,,,,0,,,75,0
72660,note_on,60,0,2,,,,,,,,,0,,,51,0
72720,note_on,60,0,1,,,,,,,,,0,,,83,0
72720,note_on,0,0,1,,,,,,,,,0,,,79,67
72720,note_on,0,0,1,,,,,,,,,0,,,84,87
72720,note_on,0,0,2,,,,,,,,,0,,,51,67
72720,note_on,0,0,2,,,,,,,,,0,,,47,0
72720,note_on,0,0,2,,,,,,,,,0,,,48,78
72720,note_on,0,0,2,,,,,,,,,0,,,55,67
72720,note_on,0,0,2,,,,,,,,,0,,,60,78
72720,note_on,0,0,1,,,,,,,,,0,,,75,67
72720,note_on,0,0,1,,,,,,,,,0,,,72,78
72720,note_on,0,0,1,,,,,,,,,0,,,71,0
72720,note_on,60,0,2,,,,,,,,,0,,,59,0
72840,note_on,120,0,1,,,,,,,,,0,,,84,0
72840,note_on,0,0,1,,,,,,,,,0,,,74,80
72840,note_on,0,0,2,,,,,,,,,0,,,48,0
72840,note_on,0,0,2,,,,,,,,,0,,,50,80
72840,note_on,0,0,1,,,,,,,,,0,,,72,0
72840,note_on,0,0,1,,,,,,,,,0,,,86,89
72840,note_on,0,0,2,,,,,,,,,0,,,62,80
72840,note_on,120,0,2,,,,,,,,,0,,,60,0
72900,note_on,0,0,1,,,,,,,,,0,,,79,0
72900,note_on,60,0,2,,,,,,,,,0,,,51,0
72900,note_on,0,0,2,,,,,,,,,0,,,55,0
72900,note_on,60,0,1,,,,,,,,,0,,,75,0
72960,note_on,0,0,1,,,,,,,,,0,,,79,70
72960,note_on,0,0,1,,,,,,,,,0,,,86,0
72960,note_on,60,0,2,,,,,,,,,0,,,50,0
72960,note_on,0,0,1,,,,,,,,,0,,,75,90
72960,note_on,0,0,2,,,,,,,,,0,,,51,90
72960,note_on,0,0,2,,,,,,,,,0,,,55,70
72960,note_on,0,0,2,,,,,,,,,0,,,60,70
72960,note_on,0,0,2,,,,,,,,,0,,,62,0
72960,note_on,0,0,2,,,,,,,,,0,,,63,90
72960,note_on,60,0,1,,,,,,,,,0,,,74,0
72960,note_on,0,0,1,,,,,,,,,0,,,87,101
72960,set_tempo,360,1,0,,,,,,600000,,,,,,,
72960,note_on,0,0,1,,,,,,,,,0,,,84,70
73060,note_on,0,0,1,,,,,,,,,0,,,75,0
73060,note_on,0,0,2,,,,,,,,,0,,,51,0
73060,note_on,100,0,1,,,,,,,,,0,,,87,0
73060,note_on,100,0,2,,,,,,,,,0,,,63,0
73080,note_on,0,0,2,,,,,,,,,0,,,62,78
73080,set_tempo,120,1,0,,,,,,566038,,,,,,,
73080,note_on,20,0,2,,,,,,,,,0,,,50,78
73080,note_on,0,0,1,,,,,,,,,0,,,86,87
73080,note_on,20,0,1,,,,,,,,,0,,,74,78
73140,note_on,60,0,2,,,,,,,,,0,,,55,0
73140,note_on,0,0,2,,,,,,,,,0,,,60,0
73140,note_on,0,0,1,,,,,,,,,0,,,84,0
73140,note_on,60,0,1,,,,,,,,,0,,,79,0
73200,note_on,0,0,1,,,,,,,,,0,,,75,81
73200,note_on,0,0,1,,,,,,,,,0,,,80,70
73200,note_on,0,0,1,,,,,,,,,0,,,84,70
73200,note_on,60,0,2,,,,,,,,,0,,,50,0
73200,note_on,0,0,1,,,,,,,,,0,,,86,0
73200,note_on,0,0,2,,,,,,,,,0,,,60,70
73200,note_on,0,0,1,,,,,,,,,0,,,87,90
73200,note_on,60,0,1,,,,,,,,,0,,,74,0
73200,note_on,0,0,2,,,,,,,,,0,,,51,81
73200,note_on,0,0,2,,,,,,,,,0,,,56,70
73200,note_on,0,0,2,,,,,,,,,0,,,62,0
73200,note_on,0,0,2,,,,,,,,,0,,,63,81
73320,note_on,0,0,2,,,,,,,,,0,,,65,82
73320,note_on,120,0,2,,,,,,,,,0,,,63,0
73320,note_on,0,0,2,,,,,,,,,0,,,53,82
73320,note_on,0,0,1,,,,,,,,,0,,,89,93
73320,note_on,0,0,1,,,,,,,,,0,,,75,0
73320,note_on,120,0,1,,,,,,,,,0,,,87,0
73320,note_on,0,0,1,,,,,,,,,0,,,77,82
73320,note_on,0,0,2,,,,,,,,,0,,,51,0
73380,note_on,0,0,2,,,,,,,,,0,,,56,0
73380,note_on,0,0,1,,,,,,,,,0,,,80,0
73380,note_on,60,0,2,,,,,,,,,0,,,60,0
73380,note_on,60,0,1,,,,,,,,,0,,,84,0
73440,note_on,0,0,2,,,,,,,,,0,,,55,90
73440,note_on,0,0,2,,,,,,,,,0,,,59,90
73440,note_on,0,0,2,,,,,,,,,0,,,65,0
73440,note_on,0,0,2,,,,,,,,,0,,,67,90
73440,note_on,0,0,1,,,,,,,,,0,,,91,99
73440,note_on,0,0,1,,,,,,,,,0,,,89,0
73440,note_on,0,0,1,,,,,,,,,0,,,83,90
73440,note_on,0,0,1,,,,,,,,,0,,,79,90
73440,note_on,60,0,1,,,,,,,,,0,,,77,0
73440,note_on,60,0,2,,,,,,,,,0,,,53,0
73440,set_tempo,360,1,0,,,,,,677966,,,,,,,
73560,note_on,0,0,1,,,,,,,,,0,,,79,0
73560,note_on,0,0,1,,,,,,,,,0,,,83,0
73560,note_on,120,0,2,,,,,,,,,0,,,67,0
73560,note_on,120,0,1,,,,,,,,,0,,,91,0
73560,note_on,0,0,2,,,,,,,,,0,,,59,0
73560,note_on,0,0,2,,,,,,,,,0,,,55,0
73680,note_on,0,0,2,,,,,,,,,0,,,55,77
73680,note_on,120,0,2,,,,,,,,,0,,,43,77
73680,note_on,120,0,1,,,,,,,,,0,,,59,77
73680,note_on,0,0,2,,,,,,,,,0,,,50,77
73680,set_tempo,240,1,0,,,,,,736196,,,,,,,
73680,note_on,0,0,1,,,,,,,,,0,,,67,86
73680,note_on,0,0,1,,,,,,,,,0,,,62,77
73860,note_on,180,0,1,,,,,,,,,0,,,67,0
73860,note_on,0,0,2,,,,,,,,,0,,,50,0
73860,note_on,0,0,1,,,,,,,,,0,,,59,0
73860,note_on,0,0,1,,,,,,,,,0,,,62,0
73860,note_on,180,0,2,,,,,,,,,0,,,55,0
73860,note_on,0,0,2,,,,,,,,,0,,,43,0
73920,note_on,0,0,2,,,,,,,,,0,,,59,80
73920,note_on,0,0,1,,,,,,,,,0,,,79,85
73920,note_on,0,0,1,,,,,,,,,0,,,83,85
73920,note_on,0,0,1,,,,,,,,,0,,,86,85
73920,note_on,60,0,1,,,,,,,,,0,,,91,95
73920,note_on,0,0,2,,,,,,,,,0,,,55,80
73920,note_on,0,0,2,,,,,,,,,0,,,62,80
73920,note_on,60,0,2,,,,,,,,,0,,,67,89
73920,set_tempo,240,1,0,,,,,,714286,,,,,,,
74160,set_tempo,240,1,0,,,,,,701754,,,,,,,
74280,note_on,0,0,1,,,,,,,,,0,,,83,0
74280,note_on,0,0,2,,,,,,,,,0,,,55,80
74280,note_on,360,0,2,,,,,,,,,0,,,55,0
74280,note_on,0,0,1,,,,,,,,,0,,,91,93
74280,note_on,0,0,1,,,,,,,,,0,,,91,0
74280,note_on,0,0,1,,,,,,,,,0,,,86,0
74280,set_tempo,120,1,0,,,,,,710059,,,,,,,
74280,note_on,0,0,2,,,,,,,,,0,,,59,0
74280,note_on,0,0,1,,,,,,,,,0,,,79,82
74280,note_on,360,0,1,,,,,,,,,0,,,79,0
74280,note_on,0,0,2,,,,,,,,,0,,,67,0
74280,note_on,0,0,2,,,,,,,,,0,,,62,0
74280,note_on,0,0,2,,,,,,,,,0,,,43,72
74400,note_on,0,0,2,,,,,,,,,0,,,41,74
74400,set_tempo,120,1,0,,,,,,681818,,,,,,,
74400,note_on,120,0,1,,,,,,,,,0,,,91,0
74400,note_on,0,0,1,,,,,,,,,0,,,86,86
74400,note_on,120,0,2,,,,,,,,,0,,,55,0
74400,note_on,0,0,1,,,,,,,,,0,,,92,96
74400,note_on,0,0,2,,,,,,,,,0,,,53,83
74400,note_on,0,0,2,,,,,,,,,0,,,47,74
74400,note_on,0,0,2,,,,,,,,,0,,,43,0
74400,note_on,0,0,1,,,,,,,,,0,,,79,0
74400,note_on,0,0,1,,,,,,,,,0,,,80,86
74520,note_on,0,0,2,,,,,,,,,0,,,47,0
74520,note_on,0,0,2,,,,,,,,,0,,,40,72
74520,set_tempo,120,1,0,,,,,,666667,,,,,,,
74520,note_on,0,0,2,,,,,,,,,0,,,52,80
74520,note_on,0,0,2,,,,,,,,,0,,,41,0
74520,note_on,0,0,1,,,,,,,,,0,,,91,93
74520,note_on,0,0,1,,,,,,,,,0,,,80,0
74520,note_on,0,0,1,,,,,,,,,0,,,86,0
74520,note_on,0,0,1,,,,,,,,,0,,,79,82
74520,note_on,120,0,1,,,,,,,,,0,,,92,0
74520,note_on,120,0,2,,,,,,,,,0,,,53,0
74640,note_on,0,0,2,,,,,,,,,0,,,53,80
74640,note_on,0,0,2,,,,,,,,,0,,,47,72
74640,note_on,0,0,2,,,,,,,,,0,,,40,0
74640,set_tempo,120,1,0,,,,,,659341,,,,,,,
74640,note_on,120,0,2,,,,,,,,,0,,,52,0
74640,note_on,0,0,1,,,,,,,,,0,,,92,93
74640,note_on,0,0,2,,,,,,,,,0,,,41,72
74640,note_on,0,0,1,,,,,,,,,0,,,91,0
74640,note_on,120,0,1,,,,,,,,,0,,,79,0
74640,note_on,0,0,1,,,,,,,,,0,,,86,86
74640,note_on,0,0,1,,,,,,,,,0,,,80,82
74760,note_on,0,0,2,,,,,,,,,0,,,47,0
74760,set_tempo,120,1,0,,,,,,645161,,,,,,,
74760,note_on,0,0,1,,,,,,,,,0,,,92,0
74760,note_on,0,0,1,,,,,,,,,0,,,86,0
74760,note_on,0,0,1,,,,,,,,,0,,,74,82
74760,note_on,0,0,2,,,,,,,,,0,,,59,80
74760,note_on,0,0,2,,,,,,,,,0,,,47,72
74760,note_on,0,0,1,,,,,,,,,0,,,86,93
74760,note_on,0,0,2,,,,,,,,,0,,,41,0
74760,note_on,120,0,1,,,,,,,,,0,,,80,0
74760,note_on,120,0,2,,,,,,,,,0,,,53,0
74880,note_on,120,0,1,,,,,,,,,0,,,74,0
74880,note_on,0,0,2,,,,,,,,,0,,,39,74
74880,note_on,0,0,2,,,,,,,,,0,,,47,0
74880,note_on,0,0,1,,,,,,,,,0,,,79,86
74880,note_on,0,0,1,,,,,,,,,0,,,91,96
74880,note_on,0,0,2,,,,,,,,,0,,,51,83
74880,set_tempo,120,1,0,,,,,,634921,,,,,,,
74880,note_on,0,0,1,,,,,,,,,0,,,86,0
74880,note_on,120,0,2,,,,,,,,,0,,,59,0
75000,note_on,0,0,1,,,,,,,,,0,,,79,0
75000,set_tempo,120,1,0,,,,,,628272,,,,,,,
75000,note_on,0,0,1,,,,,,,,,0,,,90,93
75000,note_on,0,0,2,,,,,,,,,0,,,50,80
75000,note_on,120,0,1,,,,,,,,,0,,,91,0
75000,note_on,0,0,1,,,,,,,,,0,,,78,82
75000,note_on,120,0,2,,,,,,,,,0,,,51,0
75000,note_on,0,0,2,,,,,,,,,0,,,38,72
75000,note_on,0,0,2,,,,,,,,,0,,,39,0
75120,note_on,0,0,2,,,,,,,,,0,,,39,72
75120,note_on,0,0,1,,,,,,,,,0,,,78,0
75120,note_on,0,0,1,,,,,,,,,0,,,84,82
75120,note_on,0,0,1,,,,,,,,,0,,,91,93
75120,note_on,0,0,2,,,,,,,,,0,,,48,80
75120,note_on,0,0,1,,,,,,,,,0,,,79,82
75120,note_on,0,0,2,,,,,,,,,0,,,51,80
75120,note_on,120,0,2,,,,,,,,,0,,,50,0
75120,note_on,120,0,1,,,,,,,,,0,,,90,0
75120,note_on,0,0,2,,,,,,,,,0,,,38,0
75240,note_on,120,0,2,,,,,,,,,0,,,51,0
75240,note_on,0,0,2,,,,,,,,,0,,,39,0
75240,note_on,0,0,1,,,,,,,,,0,,,84,93
75240,note_on,0,0,1,,,,,,,,,0,,,84,0
75240,note_on,0,0,1,,,,,,,,,0,,,79,0
75240,note_on,0,0,1,,,,,,,,,0,,,72,82
75240,note_on,120,0,1,,,,,,,,,0,,,91,0
75240,note_on,0,0,2,,,,,,,,,0,,,44,72
75240,set_tempo,240,1,0,,,,,,641711,,,,,,,
75240,note_on,0,0,2,,,,,,,,,0,,,48,0
75240,note_on,0,0,2,,,,,,,,,0,,,56,80
75360,note_on,0,0,2,,,,,,,,,0,,,44,74
75360,note_on,0,0,1,,,,,,,,,0,,,89,96
75360,note_on,0,0,2,,,,,,,,,0,,,50,83
75360,note_on,0,0,1,,,,,,,,,0,,,84,86
75360,note_on,0,0,2,,,,,,,,,0,,,38,74
75360,note_on,0,0,2,,,,,,,,,0,,,44,0
75360,set_tempo,120,1,0,,,,,,618557,,,,,,,
75360,note_on,0,0,1,,,,,,,,,0,,,77,86
75360,note_on,0,0,1,,,,,,,,,0,,,84,0
75360,note_on,120,0,2,,,,,,,,,0,,,56,0
75360,note_on,120,0,1,,,,,,,,,0,,,72,0
75480,note_on,0,0,2,,,,,,,,,0,,,38,0
75480,note_on,0,0,2,,,,,,,,,0,,,49,81
75480,note_on,0,0,1,,,,,,,,,0,,,88,94
75480,note_on,0,0,1,,,,,,,,,0,,,89,0
75480,note_on,0,0,2,,,,,,,,,0,,,44,0
75480,set_tempo,120,1,0,,,,,,603015,,,,,,,
75480,note_on,0,0,2,,,,,,,,,0,,,37,72
75480,note_on,0,0,1,,,,,,,,,0,,,76,83
75480,note_on,120,0,2,,,,,,,,,0,,,50,0
75480,note_on,120,0,1,,,,,,,,,0,,,77,0
75480,note_on,0,0,1,,,,,,,,,0,,,84,0
75600,note_on,0,0,1,,,,,,,,,0,,,77,83
75600,note_on,120,0,1,,,,,,,,,0,,,88,0
75600,note_on,0,0,1,,,,,,,,,0,,,83,83
75600,note_on,0,0,1,,,,,,,,,0,,,76,0
75600,note_on,0,0,1,,,,,,,,,0,,,89,94
75600,note_on,0,0,2,,,,,,,,,0,,,37,0
75600,note_on,0,0,2,,,,,,,,,0,,,50,81
75600,note_on,120,0,2,,,,,,,,,0,,,49,0
75600,note_on,0,0,2,,,,,,,,,0,,,38,72
75600,note_on,0,0,2,,,,,,,,,0,,,43,72
75690,note_on,90,0,2,,,,,,,,,0,,,50,0
75690,note_on,0,0,1,,,,,,,,,0,,,89,0
75690,note_on,0,0,2,,,,,,,,,0,,,38,0
75690,note_on,0,0,2,,,,,,,,,0,,,43,0
75690,note_on,90,0,1,,,,,,,,,0,,,77,0
75690,note_on,0,0,1,,,,,,,,,0,,,83,0
75720,note_on,0,0,2,,,,,,,,,0,,,55,81
75720,note_on,30,0,1,,,,,,,,,0,,,71,83
75720,note_on,0,0,1,,,,,,,,,0,,,83,94
75720,note_on,30,0,2,,,,,,,,,0,,,43,72
75720,set_tempo,240,1,0,,,,,,618557,,,,,,,
75840,note_on,0,0,2,,,,,,,,,0,,,36,74
75840,note_on,120,0,2,,,,,,,,,0,,,55,0
75840,note_on,0,0,2,,,,,,,,,0,,,43,0
75840,set_tempo,120,1,0,,,,,,591133,,,,,,,
75840,note_on,0,0,2,,,,,,,,,0,,,48,83
75840,note_on,120,0,1,,,,,,,,,0,,,83,0
75840,note_on,0,0,1,,,,,,,,,0,,,71,0
75840,note_on,0,0,1,,,,,,,,,0,,,75,86
75840,note_on,0,0,1,,,,,,,,,0,,,87,96
75960,note_on,0,0,2,,,,,,,,,0,,,47,80
75960,note_on,120,0,2,,,,,,,,,0,,,48,0
75960,note_on,0,0,1,,,,,,,,,0,,,74,82
75960,note_on,0,0,1,,,,,,,,,0,,,86,93
75960,note_on,0,0,1,,,,,,,,,0,,,87,0
75960,set_tempo,120,1,0,,,,,,582524,,,,,,,
75960,note_on,120,0,1,,,,,,,,,0,,,75,0
75960,note_on,0,0,2,,,,,,,,,0,,,35,72
75960,note_on,0,0,2,,,,,,,,,0,,,36,0
76040,set_tempo,80,1,0,,,,,,579710,,,,,,,
76080,note_on,0,0,2,,,,,,,,,0,,,35,0
76080,note_on,0,0,2,,,,,,,,,0,,,43,72
76080,note_on,120,0,2,,,,,,,,,0,,,47,0
76080,note_on,0,0,2,,,,,,,,,0,,,36,72
76080,note_on,120,0,1,,,,,,,,,0,,,74,0
76080,note_on,0,0,2,,,,,,,,,0,,,48,80
76080,note_on,0,0,1,,,,,,,,,0,,,79,82
76080,note_on,0,0,1,,,,,,,,,0,,,87,93
76080,note_on,0,0,1,,,,,,,,,0,,,75,82
76080,note_on,0,0,1,,,,,,,,,0,,,86,0
76120,set_tempo,80,1,0,,,,,,576923,,,,,,,
76170,note_on,90,0,1,,,,,,,,,0,,,75,0
76170,note_on,90,0,2,,,,,,,,,0,,,48,0
76170,note_on,0,0,1,,,,,,,,,0,,,79,0
76170,note_on,0,0,2,,,,,,,,,0,,,36,0
76170,note_on,0,0,2,,,,,,,,,0,,,43,0
76170,note_on,0,0,1,,,,,,,,,0,,,87,0
76200,note_on,0,0,2,,,,,,,,,0,,,51,80
76200,note_on,0,0,1,,,,,,,,,0,,,72,82
76200,set_tempo,80,1,0,,,,,,574163,,,,,,,
76200,note_on,30,0,2,,,,,,,,,0,,,39,72
76200,note_on,30,0,1,,,,,,,,,0,,,84,93
76280,set_tempo,80,1,0,,,,,,571429,,,,,,,
76320,note_on,120,0,1,,,,,,,,,0,,,72,0
76320,note_on,0,0,1,,,,,,,,,0,,,70,86
76320,note_on,0,0,1,,,,,,,,,0,,,74,86
76320,note_on,0,0,2,,,,,,,,,0,,,39,0
76320,note_on,0,0,1,,,,,,,,,0,,,84,0
76320,note_on,0,0,2,,,,,,,,,0,,,41,74
76320,note_on,0,0,1,,,,,,,,,0,,,82,96
76320,note_on,120,0,2,,,,,,,,,0,,,51,0
76320,note_on,0,0,2,,,,,,,,,0,,,53,83
76360,set_tempo,80,1,0,,,,,,568720,,,,,,,
76410,note_on,90,0,1,,,,,,,,,0,,,82,0
76410,note_on,0,0,1,,,,,,,,,0,,,74,0
76410,note_on,0,0,1,,,,,,,,,0,,,70,0
76440,note_on,30,0,1,,,,,,,,,0,,,68,82
76440,note_on,0,0,1,,,,,,,,,0,,,80,93
76440,set_tempo,80,1,0,,,,,,566038,,,,,,,
76500,set_tempo,60,1,0,,,,,,563380,,,,,,,
76530,note_on,0,0,1,,,,,,,,,0,,,68,0
76530,note_on,90,0,1,,,,,,,,,0,,,80,0
76560,note_on,30,0,1,,,,,,,,,0,,,67,82
76560,note_on,0,0,2,,,,,,,,,0,,,63,80
76560,note_on,0,0,1,,,,,,,,,0,,,79,93
76560,note_on,0,0,2,,,,,,,,,0,,,51,72
76560,note_on,0,0,2,,,,,,,,,0,,,41,0
76560,note_on,240,0,2,,,,,,,,,0,,,53,0
76560,set_tempo,60,1,0,,,,,,578871,,,,,,,
76650,note_on,0,0,1,,,,,,,,,0,,,67,0
76650,note_on,90,0,2,,,,,,,,,0,,,63,0
76650,note_on,90,0,1,,,,,,,,,0,,,79,0
76650,note_on,0,0,2,,,,,,,,,0,,,51,0
76680,note_on,0,0,2,,,,,,,,,0,,,62,80
76680,note_on,30,0,1,,,,,,,,,0,,,65,82
76680,note_on,30,0,2,,,,,,,,,0,,,50,72
76680,note_on,0,0,1,,,,,,,,,0,,,77,93
76770,note_on,90,0,1,,,,,,,,,0,,,77,0
76770,note_on,0,0,2,,,,,,,,,0,,,50,0
76770,note_on,90,0,2,,,,,,,,,0,,,62,0
76770,note_on,0,0,1,,,,,,,,,0,,,65,0
76800,note_on,0,0,2,,,,,,,,,0,,,60,85
76800,note_on,30,0,1,,,,,,,,,0,,,63,87
76800,set_tempo,240,1,0,,,,,,587142,,,,,,,
76800,note_on,0,0,1,,,,,,,,,0,,,75,97
76800,note_on,30,0,2,,,,,,,,,0,,,48,75
76890,note_on,0,0,2,,,,,,,,,0,,,48,0
76890,note_on,90,0,2,,,,,,,,,0,,,60,0
76890,note_on,0,0,1,,,,,,,,,0,,,63,0
76890,note_on,90,0,1,,,,,,,,,0,,,75,0
76920,note_on,0,0,1,,,,,,,,,0,,,67,82
76920,note_on,30,0,2,,,,,,,,,0,,,43,72
76920,note_on,30,0,1,,,,,,,,,0,,,79,93
76920,note_on,0,0,2,,,,,,,,,0,,,55,80
77010,note_on,90,0,1,,,,,,,,,0,,,67,0
77010,note_on,0,0,1,,,,,,,,,0,,,79,0
77010,note_on,0,0,2,,,,,,,,,0,,,43,0
77010,note_on,90,0,2,,,,,,,,,0,,,55,0
77040,note_on,0,0,1,,,,,,,,,0,,,77,93
77040,note_on,30,0,2,,,,,,,,,0,,,44,72
77040,set_tempo,240,1,0,,,,,,595711,,,,,,,
77040,note_on,0,0,2,,,,,,,,,0,,,56,80
77040,note_on,30,0,1,,,,,,,,,0,,,71,93
77040,note_on,0,0,1,,,,,,,,,0,,,65,82
77080,set_tempo,40,1,0,,,,,,598563,,,,,,,
77100,set_tempo,20,1,0,,,,,,601504,,,,,,,
77130,note_on,90,0,2,,,,,,,,,0,,,56,0
77130,note_on,0,0,1,,,,,,,,,0,,,71,0
77130,note_on,0,0,2,,,,,,,,,0,,,44,0
77130,note_on,0,0,1,,,,,,,,,0,,,65,0
77130,note_on,90,0,1,,,,,,,,,0,,,77,0
77140,set_tempo,40,1,0,,,,,,604412,,,,,,,
77160,set_tempo,20,1,0,,,,,,607410,,,,,,,
77160,note_on,0,0,2,,,,,,,,,0,,,55,80
77160,note_on,0,0,1,,,,,,,,,0,,,62,82
77160,note_on,30,0,1,,,,,,,,,0,,,74,93
77160,note_on,30,0,2,,,,,,,,,0,,,43,72
77180,set_tempo,20,1,0,,,,,,610438,,,,,,,
77220,set_tempo,40,1,0,,,,,,613434,,,,,,,
77240,set_tempo,20,1,0,,,,,,616523,,,,,,,
77250,note_on,90,0,1,,,,,,,,,0,,,62,0
77260,note_on,10,0,1,,,,,,,,,0,,,74,0
77260,note_on,0,0,2,,,,,,,,,0,,,43,0
77260,note_on,100,0,2,,,,,,,,,0,,,55,0
77260,set_tempo,20,1,0,,,,,,619579,,,,,,,
77261,set_tempo,1,1,0,,,,,,603015,,,,,,,
77280,note_on,0,0,1,,,,,,,,,0,,,59,82
77280,note_on,20,0,1,,,,,,,,,0,,,71,93
77280,note_on,0,0,2,,,,,,,,,0,,,47,80
77280,set_tempo,19,1,0,,,,,,621762,,,,,,,
77280,note_on,20,0,2,,,,,,,,,0,,,35,72
77400,note_on,120,0,2,,,,,,,,,0,,,47,0
77400,note_on,0,0,2,,,,,,,,,0,,,35,0
77400,note_on,0,0,2,,,,,,,,,0,,,48,79
77400,note_on,0,0,1,,,,,,,,,0,,,72,92
77400,note_on,120,0,1,,,,,,,,,0,,,59,0
77400,note_on,0,0,1,,,,,,,,,0,,,60,82
77400,note_on,0,0,1,,,,,,,,,0,,,71,0
77400,set_tempo,120,1,0,,,,,,645161,,,,,,,
77400,note_on,0,0,2,,,,,,,,,0,,,36,71
77490,note_on,0,0,2,,,,,,,,,0,,,36,0
77490,note_on,90,0,1,,,,,,,,,0,,,60,0
77490,note_on,0,0,1,,,,,,,,,0,,,72,0
77490,note_on,90,0,2,,,,,,,,,0,,,48,0
77520,note_on,0,0,2,,,,,,,,,0,,,51,78
77520,set_tempo,120,1,0,,,,,,634384,,,,,,,
77520,note_on,0,0,2,,,,,,,,,0,,,60,87
77520,note_on,30,0,1,,,,,,,,,0,,,72,90
77520,note_on,0,0,2,,,,,,,,,0,,,55,78
77520,note_on,30,0,2,,,,,,,,,0,,,48,78
77520,note_on,0,0,1,,,,,,,,,0,,,75,90
77520,note_on,0,0,1,,,,,,,,,0,,,79,90
77520,note_on,0,0,1,,,,,,,,,0,,,84,101
77700,note_on,0,0,1,,,,,,,,,0,,,72,0
77700,note_on,0,0,1,,,,,,,,,0,,,75,0
77700,note_on,0,0,1,,,,,,,,,0,,,79,0
77700,note_on,180,0,1,,,,,,,,,0,,,84,0
77700,note_on,0,0,2,,,,,,,,,0,,,48,0
77700,note_on,0,0,2,,,,,,,,,0,,,51,0
77700,note_on,0,0,2,,,,,,,,,0,,,55,0
77700,note_on,180,0,2,,,,,,,,,0,,,60,0
77760,set_tempo,240,1,0,,,,,,600000,,,,,,,
78180,note_on,480,0,1,,,,,,,,,0,,,63,87
78240,note_on,0,0,1,,,,,,,,,0,,,63,92
78240,set_tempo,480,1,0,,,,,,550459,,,,,,,
78240,note_on,60,0,1,,,,,,,,,0,,,63,0
79200,note_on,0,0,1,,,,,,,,,0,,,59,78
79200,note_on,0,0,2,,,,,,,,,0,,,47,86
79200,set_tempo,960,1,0,,,,,,1081081,,,,,,,
79200,note_on,960,0,1,,,,,,,,,0,,,63,0
79200,note_on,0,0,1,,,,,,,,,0,,,71,87
79200,note_on,1500,0,2,,,,,,,,,0,,,35,77
79320,note_on,0,0,1,,,,,,,,,0,,,71,0
79320,note_on,0,0,1,,,,,,,,,0,,,72,80
79320,note_on,0,0,1,,,,,,,,,0,,,60,72
79320,note_on,120,0,1,,,,,,,,,0,,,59,0
79320,note_on,0,0,2,,,,,,,,,0,,,35,0
79320,note_on,0,0,2,,,,,,,,,0,,,36,71
79320,note_on,120,0,2,,,,,,,,,0,,,47,0
79320,note_on,0,0,2,,,,,,,,,0,,,48,79
79320,set_tempo,120,1,0,,,,,,1111111,,,,,,,
79410,note_on,90,0,1,,,,,,,,,0,,,60,0
79410,note_on,0,0,1,,,,,,,,,0,,,72,0
79410,note_on,90,0,2,,,,,,,,,0,,,48,0
79410,note_on,0,0,2,,,,,,,,,0,,,36,0
79440,note_on,0,0,1,,,,,,,,,0,,,75,62
79440,set_tempo,120,1,0,,,,,,634384,,,,,,,
79440,note_on,30,0,2,,,,,,,,,0,,,56,62
79440,note_on,0,0,1,,,,,,,,,0,,,78,62
79440,note_on,0,0,1,,,,,,,,,0,,,87,69
79440,note_on,0,0,2,,,,,,,,,0,,,48,62
79440,note_on,0,0,2,,,,,,,,,0,,,63,70
79440,note_on,0,0,2,,,,,,,,,0,,,54,62
79440,note_on,30,0,1,,,,,,,,,0,,,80,62
79620,note_on,0,0,2,,,,,,,,,0,,,54,0
79620,note_on,0,0,2,,,,,,,,,0,,,48,0
79620,note_on,0,0,1,,,,,,,,,0,,,75,0
79620,note_on,0,0,1,,,,,,,,,0,,,78,0
79620,note_on,0,0,1,,,,,,,,,0,,,80,0
79620,note_on,0,0,2,,,,,,,,,0,,,56,0
79620,note_on,180,0,2,,,,,,,,,0,,,63,0
79620,note_on,180,0,1,,,,,,,,,0,,,87,0
80100,note_on,0,0,1,,,,,,,,,0,,,60,60
80100,set_tempo,660,1,0,,,,,,600000,,,,,,,
80100,note_on,0,0,1,,,,,,,,,0,,,66,60
80100,note_on,480,0,1,,,,,,,,,0,,,68,67
80100,note_on,480,0,2,,,,,,,,,0,,,63,63
80160,note_on,0,0,2,,,,,,,,,0,,,63,69
80160,note_on,0,0,1,,,,,,,,,0,,,66,0
80160,note_on,0,0,1,,,,,,,,,0,,,60,67
80160,note_on,60,0,2,,,,,,,,,0,,,63,0
80160,note_on,0,0,1,,,,,,,,,0,,,68,75
80160,note_on,0,0,1,,,,,,,,,0,,,68,0
80160,note_on,0,0,1,,,,,,,,,0,,,66,67
80160,set_tempo,60,1,0,,,,,,530973,,,,,,,
80160,note_on,60,0,1,,,,,,,,,0,,,60,0
81120,set_tempo,960,1,0,,,,,,701754,,,,,,,
81120,note_on,0,0,1,,,,,,,,,0,,,69,56
81120,note_on,0,0,2,,,,,,,,,0,,,47,67
81120,note_on,0,0,1,,,,,,,,,0,,,60,0
81120,note_on,0,0,1,,,,,,,,,0,,,63,50
81120,note_on,960,0,1,,,,,,,,,0,,,66,0
81120,note_on,960,0,2,,,,,,,,,0,,,63,0
81120,note_on,0,0,1,,,,,,,,,0,,,68,0
81120,note_on,0,0,1,,,,,,,,,0,,,66,50
81120,note_on,0,0,2,,,,,,,,,0,,,35,60
81180,note_on,60,0,2,,,,,,,,,0,,,47,0
81180,note_on,0,0,2,,,,,,,,,0,,,35,0
81240,note_on,60,0,2,,,,,,,,,0,,,36,57
81240,note_on,0,0,2,,,,,,,,,0,,,48,64
81240,set_tempo,120,1,0,,,,,,727273,,,,,,,
81300,note_on,0,0,2,,,,,,,,,0,,,36,0
81300,note_on,60,0,2,,,,,,,,,0,,,48,0
81360,set_tempo,120,1,0,,,,,,666667,,,,,,,
81360,note_on,0,0,2,,,,,,,,,0,,,54,59
81360,note_on,60,0,2,,,,,,,,,0,,,42,52
81540,note_on,180,0,2,,,,,,,,,0,,,54,0
81540,note_on,0,0,2,,,,,,,,,0,,,42,0
81600,note_on,0,0,1,,,,,,,,,0,,,83,64
81600,note_on,0,0,2,,,,,,,,,0,,,63,51
81600,note_on,0,0,2,,,,,,,,,0,,,66,51
81600,note_on,0,0,1,,,,,,,,,0,,,71,57
81600,note_on,0,0,1,,,,,,,,,0,,,66,0
81600,note_on,480,0,1,,,,,,,,,0,,,69,0
81600,note_on,0,0,1,,,,,,,,,0,,,63,0
81600,note_on,60,0,2,,,,,,,,,0,,,69,57
81600,set_tempo,240,1,0,,,,,,754717,,,,,,,
81660,note_on,0,0,1,,,,,,,,,0,,,71,0
81660,note_on,60,0,1,,,,,,,,,0,,,83,0
81720,note_on,0,0,1,,,,,,,,,0,,,84,60
81720,note_on,60,0,1,,,,,,,,,0,,,72,54
81720,set_tempo,120,1,0,,,,,,784314,,,,,,,
81780,note_on,60,0,1,,,,,,,,,0,,,84,0
81780,note_on,0,0,1,,,,,,,,,0,,,72,0
81840,note_on,60,0,1,,,,,,,,,0,,,78,52
81840,set_tempo,120,1,0,,,,,,662983,,,,,,,
81840,note_on,0,0,1,,,,,,,,,0,,,90,59
82020,note_on,180,0,1,,,,,,,,,0,,,90,0
82020,note_on,0,0,1,,,,,,,,,0,,,78,0
82080,note_on,0,0,2,,,,,,,,,0,,,69,0
82080,set_tempo,240,1,0,,,,,,779221,,,,,,,
82080,note_on,480,0,2,,,,,,,,,0,,,63,0
82080,note_on,0,0,2,,,,,,,,,0,,,66,0
82080,note_on,0,0,2,,,,,,,,,0,,,65,49
82080,note_on,60,0,1,,,,,,,,,0,,,76,54
82080,note_on,0,0,2,,,,,,,,,0,,,62,49
82080,note_on,0,0,2,,,,,,,,,0,,,69,55
82080,note_on,0,0,1,,,,,,,,,0,,,88,60
82140,note_on,60,0,1,,,,,,,,,0,,,88,0
82140,note_on,0,0,1,,,,,,,,,0,,,76,0
82200,note_on,0,0,1,,,,,,,,,0,,,89,56
82200,set_tempo,120,1,0,,,,,,930233,,,,,,,
82200,note_on,60,0,1,,,,,,,,,0,,,77,50
82260,note_on,60,0,1,,,,,,,,,0,,,89,0
82260,note_on,0,0,1,,,,,,,,,0,,,77,0
82320,note_on,60,0,1,,,,,,,,,0,,,101,55
82320,note_on,0,0,1,,,,,,,,,0,,,89,49
82320,set_tempo,120,1,0,,,,,,714286,,,,,,,
82500,note_on,0,0,1,,,,,,,,,0,,,101,0
82500,note_on,180,0,1,,,,,,,,,0,,,89,0
82560,note_on,60,0,1,,,,,,,,,0,,,60,46
82560,note_on,0,0,2,,,,,,,,,0,,,40,51
82560,note_on,0,0,1,,,,,,,,,0,,,69,58
82560,note_on,0,0,1,,,,,,,,,0,,,63,46
82560,note_on,480,0,2,,,,,,,,,0,,,69,0
82560,set_tempo,240,1,0,,,,,,1016949,,,,,,,
82560,note_on,0,0,2,,,,,,,,,0,,,52,65
82560,note_on,0,0,2,,,,,,,,,0,,,65,0
82560,note_on,0,0,2,,,,,,,,,0,,,62,0
82620,note_on,60,0,2,,,,,,,,,0,,,52,0
82620,note_on,0,0,2,,,,,,,,,0,,,40,0
82680,note_on,60,0,2,,,,,,,,,0,,,41,51
82680,set_tempo,120,1,0,,,,,,1276596,,,,,,,
82680,note_on,0,0,2,,,,,,,,,0,,,53,64
82770,note_on,0,0,2,,,,,,,,,0,,,41,0
82770,note_on,90,0,2,,,,,,,,,0,,,53,0
82800,note_on,0,0,2,,,,,,,,,0,,,53,47
82800,set_tempo,120,1,0,,,,,,1518987,,,,,,,
82800,note_on,30,0,2,,,,,,,,,0,,,65,59
83040,note_on,240,0,2,,,,,,,,,0,,,53,0
83040,note_on,480,0,1,,,,,,,,,0,,,69,0
83040,note_on,0,0,1,,,,,,,,,0,,,70,59
83040,note_on,0,0,1,,,,,,,,,0,,,62,47
83040,note_on,0,0,1,,,,,,,,,0,,,60,0
83040,note_on,0,0,1,,,,,,,,,0,,,58,47
83040,set_tempo,240,1,0,,,,,,1200000,,,,,,,
83040,note_on,0,0,2,,,,,,,,,0,,,65,0
83040,note_on,0,0,1,,,,,,,,,0,,,63,0
83500,set_tempo,460,1,0,,,,,,1147447,,,,,,,
83520,note_on,0,0,2,,,,,,,,,0,,,46,60
83520,note_on,480,0,2,,,,,,,,,0,,,34,54
83520,set_tempo,20,1,0,,,,,,588408,,,,,,,
83760,note_on,0,0,2,,,,,,,,,0,,,44,52
83760,note_on,240,0,2,,,,,,,,,0,,,41,52
83880,note_on,120,0,2,,,,,,,,,0,,,46,0
83880,set_tempo,360,1,0,,,,,,565185,,,,,,,
83880,note_on,0,0,2,,,,,,,,,0,,,34,0
83880,note_on,0,0,2,,,,,,,,,0,,,34,54
83880,note_on,0,0,2,,,,,,,,,0,,,46,54
83970,note_on,90,0,2,,,,,,,,,0,,,46,0
83970,note_on,0,0,2,,,,,,,,,0,,,34,0
84000,note_on,0,0,2,,,,,,,,,0,,,34,50
84000,note_on,0,0,1,,,,,,,,,0,,,58,0
84000,note_on,960,0,1,,,,,,,,,0,,,70,0
84000,note_on,0,0,2,,,,,,,,,0,,,46,56
84000,note_on,30,0,2,,,,,,,,,0,,,41,0
84000,note_on,0,0,1,,,,,,,,,0,,,62,0
84000,note_on,0,0,2,,,,,,,,,0,,,44,0
84060,note_on,0,0,2,,,,,,,,,0,,,34,0
84060,note_on,60,0,2,,,,,,,,,0,,,46,0
84120,set_tempo,240,1,0,,,,,,548948,,,,,,,
84120,note_on,60,0,2,,,,,,,,,0,,,33,51
84120,note_on,0,0,2,,,,,,,,,0,,,45,58
84180,note_on,60,0,2,,,,,,,,,0,,,45,0
84180,note_on,0,0,2,,,,,,,,,0,,,33,0
84240,note_on,0,0,2,,,,,,,,,0,,,46,58
84240,note_on,60,0,2,,,,,,,,,0,,,34,51
84300,note_on,0,0,2,,,,,,,,,0,,,34,0
84300,note_on,60,0,2,,,,,,,,,0,,,46,0
84360,note_on,0,0,2,,,,,,,,,0,,,50,59
84360,note_on,60,0,2,,,,,,,,,0,,,38,52
84420,note_on,0,0,2,,,,,,,,,0,,,38,0
84420,note_on,60,0,2,,,,,,,,,0,,,50,0
84480,note_on,60,0,2,,,,,,,,,0,,,41,55
84480,note_on,0,0,2,,,,,,,,,0,,,53,62
84480,set_tempo,360,1,0,,,,,,562430,,,,,,,
84540,note_on,0,0,2,,,,,,,,,0,,,41,0
84540,note_on,60,0,2,,,,,,,,,0,,,53,0
84600,note_on,60,0,2,,,,,,,,,0,,,46,57
84600,note_on,0,0,2,,,,,,,,,0,,,58,64
84600,set_tempo,120,1,0,,,,,,568020,,,,,,,
84660,note_on,60,0,2,,,,,,,,,0,,,58,0
84660,note_on,0,0,2,,,,,,,,,0,,,46,0
84720,note_on,60,0,2,,,,,,,,,0,,,50,57
84720,note_on,0,0,2,,,,,,,,,0,,,62,64
84720,set_tempo,120,1,0,,,,,,576535,,,,,,,
84780,set_tempo,60,1,0,,,,,,579486,,,,,,,
84780,note_on,60,0,2,,,,,,,,,0,,,62,0
84780,note_on,0,0,2,,,,,,,,,0,,,50,0
84840,note_on,0,0,2,,,,,,,,,0,,,65,65
84840,set_tempo,60,1,0,,,,,,582411,,,,,,,
84840,note_on,60,0,2,,,,,,,,,0,,,53,58
84900,note_on,60,0,2,,,,,,,,,0,,,65,0
84900,note_on,0,0,2,,,,,,,,,0,,,53,0
84900,set_tempo,60,1,0,,,,,,585366,,,,,,,
84940,set_tempo,40,1,0,,,,,,588408,,,,,,,
84941,set_tempo,1,1,0,,,,,,548948,,,,,,,
84960,note_on,60,0,2,,,,,,,,,0,,,68,67
84960,set_tempo,19,1,0,,,,,,568720,,,,,,,
84960,note_on,0,0,2,,,,,,,,,0,,,56,60
85020,note_on,60,0,2,,,,,,,,,0,,,56,0
85020,note_on,0,0,2,,,,,,,,,0,,,68,0
85080,set_tempo,120,1,0,,,,,,591133,,,,,,,
85080,note_on,0,0,2,,,,,,,,,0,,,65,64
85080,note_on,60,0,2,,,,,,,,,0,,,53,57
85140,note_on,0,0,2,,,,,,,,,0,,,53,0
85140,note_on,60,0,2,,,,,,,,,0,,,65,0
85200,note_on,0,0,2,,,,,,,,,0,,,62,55
85200,set_tempo,120,1,0,,,,,,645161,,,,,,,
85200,note_on,60,0,2,,,,,,,,,0,,,50,49
85320,note_on,120,0,2,,,,,,,,,0,,,62,0
85320,note_on,0,0,2,,,,,,,,,0,,,50,0
85440,note_on,0,0,1,,,,,,,,,0,,,70,58
85440,note_on,1440,0,1,,,,,,,,,0,,,58,51
85440,set_tempo,240,1,0,,,,,,588408,,,,,,,
85680,note_on,240,0,1,,,,,,,,,0,,,65,51
85680,note_on,0,0,1,,,,,,,,,0,,,68,51
85800,note_on,0,0,1,,,,,,,,,0,,,58,46
85800,note_on,0,0,1,,,,,,,,,0,,,58,0
85800,note_on,0,0,1,,,,,,,,,0,,,70,51
85800,note_on,120,0,1,,,,,,,,,0,,,70,0
85800,set_tempo,360,1,0,,,,,,565185,,,,,,,
85890,note_on,0,0,1,,,,,,,,,0,,,58,0
85890,note_on,90,0,1,,,,,,,,,0,,,70,0
85920,note_on,30,0,1,,,,,,,,,0,,,65,0
85920,note_on,0,0,1,,,,,,,,,0,,,58,48
85920,note_on,0,0,1,,,,,,,,,0,,,68,0
85920,note_on,0,0,1,,,,,,,,,0,,,70,54
85980,note_on,60,0,1,,,,,,,,,0,,,70,0
85980,note_on,0,0,1,,,,,,,,,0,,,58,0
86040,set_tempo,240,1,0,,,,,,548948,,,,,,,
86040,note_on,0,0,1,,,,,,,,,0,,,69,56
86040,note_on,60,0,1,,,,,,,,,0,,,57,50
86100,note_on,0,0,1,,,,,,,,,0,,,57,0
86100,note_on,60,0,1,,,,,,,,,0,,,69,0
86160,note_on,60,0,1,,,,,,,,,0,,,58,51
86160,note_on,0,0,1,,,,,,,,,0,,,70,57
86220,note_on,60,0,1,,,,,,,,,0,,,70,0
86220,note_on,0,0,1,,,,,,,,,0,,,58,0
86280,note_on,60,0,1,,,,,,,,,0,,,62,51
86280,note_on,0,0,1,,,,,,,,,0,,,74,57
86340,note_on,60,0,1,,,,,,,,,0,,,74,0
86340,note_on,0,0,1,,,,,,,,,0,,,62,0
86400,note_on,0,0,1,,,,,,,,,0,,,77,59
86400,set_tempo,360,1,0,,,,,,562430,,,,,,,
86400,note_on,60,0,1,,,,,,,,,0,,,65,52
86460,note_on,0,0,1,,,,,,,,,0,,,65,0
86460,note_on,60,0,1,,,,,,,,,0,,,77,0
86520,note_on,0,0,1,,,,,,,,,0,,,82,62
86520,note_on,60,0,1,,,,,,,,,0,,,70,55
86520,set_tempo,120,1,0,,,,,,568020,,,,,,,
86580,note_on,60,0,1,,,,,,,,,0,,,82,0
86580,note_on,0,0,1,,,,,,,,,0,,,70,0
86640,note_on,0,0,1,,,,,,,,,0,,,86,62
86640,set_tempo,120,1,0,,,,,,576535,,,,,,,
86640,note_on,60,0,1,,,,,,,,,0,,,74,55
86700,note_on,60,0,1,,,,,,,,,0,,,86,0
86700,note_on,0,0,1,,,,,,,,,0,,,74,0
86700,set_tempo,60,1,0,,,,,,579486,,,,,,,
86760,note_on,60,0,1,,,,,,,,,0,,,77,56
86760,note_on,0,0,1,,,,,,,,,0,,,89,63
86760,set_tempo,60,1,0,,,,,,582411,,,,,,,
86820,note_on,0,0,1,,,,,,,,,0,,,77,0
86820,note_on,60,0,1,,,,,,,,,0,,,89,0
86820,set_tempo,60,1,0,,,,,,585366,,,,,,,
86860,set_tempo,40,1,0,,,,,,588408,,,,,,,
86861,set_tempo,1,1,0,,,,,,548948,,,,,,,
86880,set_tempo,19,1,0,,,,,,555556,,,,,,,
86880,note_on,60,0,1,,,,,,,,,0,,,92,65
86880,note_on,0,0,1,,,,,,,,,0,,,80,58
86940,note_on,60,0,1,,,,,,,,,0,,,80,0
86940,note_on,0,0,1,,,,,,,,,0,,,92,0
87000,note_on,60,0,1,,,,,,,,,0,,,77,55
87000,note_on,0,0,1,,,,,,,,,0,,,89,62
87000,set_tempo,120,1,0,,,,,,591133,,,,,,,
87060,note_on,0,0,1,,,,,,,,,0,,,77,0
87060,note_on,60,0,1,,,,,,,,,0,,,89,0
87120,note_on,0,0,1,,,,,,,,,0,,,86,52
87120,set_tempo,120,1,0,,,,,,634921,,,,,,,
87120,note_on,60,0,1,,,,,,,,,0,,,74,47
87180,note_on,1860,0,2,,,,,,,,,0,,,68,43
87240,note_on,0,0,2,,,,,,,,,0,,,62,44
87240,note_on,120,0,1,,,,,,,,,0,,,86,0
87240,note_on,60,0,2,,,,,,,,,0,,,68,0
87240,note_on,0,0,1,,,,,,,,,0,,,74,0
87300,note_on,60,0,2,,,,,,,,,0,,,62,0
87300,note_on,0,0,2,,,,,,,,,0,,,53,47
87360,note_on,60,0,2,,,,,,,,,0,,,53,0
87360,set_tempo,240,1,0,,,,,,588235,,,,,,,
87360,note_on,0,0,2,,,,,,,,,0,,,46,49
87600,note_on,240,0,2,,,,,,,,,0,,,46,0
87840,set_tempo,480,1,0,,,,,,555556,,,,,,,
87840,note_on,0,0,1,,,,,,,,,0,,,80,48
87840,note_on,600,0,1,,,,,,,,,0,,,92,54
87900,note_on,0,0,1,,,,,,,,,0,,,92,0
87900,note_on,60,0,1,,,,,,,,,0,,,80,0
87960,note_on,0,0,1,,,,,,,,,0,,,89,49
87960,note_on,60,0,1,,,,,,,,,0,,,77,43
87960,set_tempo,120,1,0,,,,,,591133,,,,,,,
88020,note_on,60,0,1,,,,,,,,,0,,,89,0
88020,note_on,0,0,1,,,,,,,,,0,,,77,0
88080,note_on,0,0,1,,,,,,,,,0,,,83,43
88080,note_on,60,0,1,,,,,,,,,0,,,71,39
88080,set_tempo,120,1,0,,,,,,634921,,,,,,,
88140,note_on,540,0,2,,,,,,,,,0,,,56,39
88200,note_on,120,0,1,,,,,,,,,0,,,83,0
88200,note_on,0,0,2,,,,,,,,,0,,,53,41
88200,note_on,0,0,1,,,,,,,,,0,,,71,0
88200,note_on,60,0,2,,,,,,,,,0,,,56,0
88260,note_on,0,0,2,,,,,,,,,0,,,47,43
88260,note_on,60,0,2,,,,,,,,,0,,,53,0
88320,note_on,60,0,2,,,,,,,,,0,,,47,0
88320,set_tempo,240,1,0,,,,,,588235,,,,,,,
88320,note_on,0,0,2,,,,,,,,,0,,,39,44
88560,note_on,240,0,2,,,,,,,,,0,,,39,0
88800,note_on,600,0,1,,,,,,,,,0,,,92,41
88800,set_tempo,480,1,0,,,,,,552995,,,,,,,
88860,note_on,0,0,1,,,,,,,,,0,,,89,41
88860,note_on,60,0,1,,,,,,,,,0,,,92,0
88920,note_on,0,0,1,,,,,,,,,0,,,83,41
88920,note_on,60,0,1,,,,,,,,,0,,,89,0
88980,note_on,60,0,1,,,,,,,,,0,,,83,0
88980,note_on,0,0,1,,,,,,,,,0,,,82,41
89040,note_on,60,0,1,,,,,,,,,0,,,82,0
89040,note_on,480,0,2,,,,,,,,,0,,,80,41
89100,note_on,0,0,2,,,,,,,,,0,,,77,41
89100,note_on,60,0,2,,,,,,,,,0,,,80,0
89160,note_on,0,0,2,,,,,,,,,0,,,71,41
89160,note_on,60,0,2,,,,,,,,,0,,,77,0
89220,note_on,60,0,2,,,,,,,,,0,,,71,0
89220,note_on,0,0,2,,,,,,,,,0,,,70,41
89280,note_on,60,0,2,,,,,,,,,0,,,70,0
89280,note_on,240,0,1,,,,,,,,,0,,,68,41
89340,note_on,60,0,1,,,,,,,,,0,,,68,0
89340,note_on,0,0,1,,,,,,,,,0,,,65,41
89400,note_on,60,0,1,,,,,,,,,0,,,65,0
89400,note_on,0,0,1,,,,,,,,,0,,,59,41
89460,note_on,60,0,1,,,,,,,,,0,,,59,0
89460,note_on,0,0,1,,,,,,,,,0,,,58,41
89520,note_on,240,0,2,,,,,,,,,0,,,56,41
89520,set_tempo,720,1,0,,,,,,552995,,,,,,,
89520,note_on,60,0,1,,,,,,,,,0,,,58,0
89580,set_tempo,60,1,0,,,,,,555556,,,,,,,
89580,note_on,0,0,2,,,,,,,,,0,,,53,41
89580,note_on,60,0,2,,,,,,,,,0,,,56,0
89620,set_tempo,40,1,0,,,,,,558140,,,,,,,
89640,note_on,0,0,2,,,,,,,,,0,,,47,41
89640,note_on,60,0,2,,,,,,,,,0,,,53,0
89680,set_tempo,60,1,0,,,,,,560748,,,,,,,
89700,note_on,60,0,2,,,,,,,,,0,,,47,0
89700,note_on,0,0,2,,,,,,,,,0,,,46,41
89720,set_tempo,40,1,0,,,,,,563380,,,,,,,
89760,note_on,240,0,1,,,,,,,,,0,,,38,41
89760,note_on,60,0,2,,,,,,,,,0,,,46,0
89760,set_tempo,40,1,0,,,,,,628272,,,,,,,
89880,note_on,120,0,1,,,,,,,,,0,,,38,0
90120,set_tempo,360,1,0,,,,,,1153846,,,,,,,
90163,control_change,403,0,2,,,,,,,,,0,64,127,,
90170,note_on,7,0,2,,,,,,,,,0,,,62,35
90180,note_on,10,0,2,,,,,,,,,0,,,69,36
90190,note_on,10,0,2,,,,,,,,,0,,,72,37
90200,note_on,10,0,2,,,,,,,,,0,,,78,39
90210,note_on,330,0,1,,,,,,,,,0,,,81,40
90220,note_on,10,0,1,,,,,,,,,0,,,84,41
90230,note_on,10,0,1,,,,,,,,,0,,,90,42
90240,note_on,10,0,1,,,,,,,,,0,,,93,43
90240,set_tempo,120,1,0,,,,,,689655,,,,,,,
90249,control_change,49,0,2,,,,,,,,,0,64,0,,
90480,note_on,240,0,1,,,,,,,,,0,,,93,0
90480,note_on,0,0,1,,,,,,,,,0,,,84,0
90480,note_on,0,0,1,,,,,,,,,0,,,81,0
90480,note_on,0,0,2,,,,,,,,,0,,,72,0
90480,note_on,0,0,2,,,,,,,,,0,,,69,0
90480,note_on,0,0,1,,,,,,,,,0,,,90,0
90480,note_on,231,0,2,,,,,,,,,0,,,78,0
90480,note_on,0,0,2,,,,,,,,,0,,,62,0
90600,set_tempo,360,1,0,,,,,,1518987,,,,,,,
90663,control_change,183,0,2,,,,,,,,,0,64,127,,
90670,note_on,7,0,2,,,,,,,,,0,,,58,36
90670,note_on,0,0,2,,,,,,,,,0,,,65,37
90680,note_on,10,0,2,,,,,,,,,0,,,68,39
90690,note_on,10,0,2,,,,,,,,,0,,,74,40
90700,note_on,220,0,1,,,,,,,,,0,,,80,41
90710,note_on,10,0,1,,,,,,,,,0,,,86,42
90720,note_on,10,0,1,,,,,,,,,0,,,94,43
90720,set_tempo,120,1,0,,,,,,670391,,,,,,,
90767,control_change,77,0,2,,,,,,,,,0,64,0,,
90960,note_on,0,0,1,,,,,,,,,0,,,80,0
90960,note_on,240,0,1,,,,,,,,,0,,,94,0
90960,note_on,0,0,2,,,,,,,,,0,,,68,0
90960,note_on,0,0,2,,,,,,,,,0,,,65,0
90960,note_on,0,0,1,,,,,,,,,0,,,86,0
90960,note_on,193,0,2,,,,,,,,,0,,,74,0
90970,note_on,10,0,2,,,,,,,,,0,,,58,0
91140,note_on,180,0,1,,,,,,,,,0,,,58,34
91163,control_change,193,0,2,,,,,,,,,0,64,127,,
91174,set_tempo,454,1,0,,,,,,785958,,,,,,,
91200,note_on,60,0,1,,,,,,,,,0,,,58,0
91200,note_on,0,0,1,,,,,,,,,0,,,60,36
91200,control_change,37,0,2,,,,,,,,,0,64,38,,
91200,set_tempo,26,1,0,,,,,,837404,,,,,,,
91224,set_tempo,24,1,0,,,,,,832524,,,,,,,
91224,control_change,24,0,2,,,,,,,,,0,64,39,,
91240,note_on,40,0,1,,,,,,,,,0,,,58,35
91252,set_tempo,28,1,0,,,,,,822820,,,,,,,
91260,note_on,20,0,1,,,,,,,,,0,,,60,0
91264,set_tempo,12,1,0,,,,,,813229,,,,,,,
91280,control_change,56,0,2,,,,,,,,,0,64,41,,
91280,set_tempo,16,1,0,,,,,,808516,,,,,,,
91280,note_on,20,0,1,,,,,,,,,0,,,60,37
91292,set_tempo,12,1,0,,,,,,799361,,,,,,,
91300,note_on,20,0,1,,,,,,,,,0,,,58,0
91304,control_change,24,0,2,,,,,,,,,0,64,42,,
91304,set_tempo,12,1,0,,,,,,790306,,,,,,,
91320,note_on,20,0,1,,,,,,,,,0,,,58,35
91320,set_tempo,16,1,0,,,,,,785958,,,,,,,
91332,control_change,28,0,2,,,,,,,,,0,64,43,,
91332,set_tempo,12,1,0,,,,,,863185,,,,,,,
91340,note_on,20,0,1,,,,,,,,,0,,,60,0
91360,note_on,20,0,1,,,,,,,,,0,,,60,37
91360,control_change,28,0,2,,,,,,,,,0,64,44,,
91372,set_tempo,40,1,0,,,,,,808516,,,,,,,
91380,note_on,20,0,1,,,,,,,,,0,,,58,0
91384,set_tempo,12,1,0,,,,,,799361,,,,,,,
91384,control_change,24,0,2,,,,,,,,,0,64,45,,
91400,note_on,20,0,1,,,,,,,,,0,,,58,36
91400,set_tempo,16,1,0,,,,,,785958,,,,,,,
91412,control_change,28,0,2,,,,,,,,,0,64,46,,
91420,note_on,20,0,1,,,,,,,,,0,,,60,0
91440,control_change,28,0,2,,,,,,,,,0,64,47,,
91440,note_on,20,0,1,,,,,,,,,0,,,60,39
91460,note_on,20,0,1,,,,,,,,,0,,,58,0
91464,control_change,24,0,2,,,,,,,,,0,64,48,,
91464,set_tempo,64,1,0,,,,,,803859,,,,,,,
91480,note_on,20,0,1,,,,,,,,,0,,,58,36
91480,set_tempo,16,1,0,,,,,,817996,,,,,,,
91492,control_change,28,0,2,,,,,,,,,0,64,49,,
91500,note_on,20,0,1,,,,,,,,,0,,,60,0
91520,note_on,20,0,1,,,,,,,,,0,,,60,39
91520,control_change,28,0,2,,,,,,,,,0,64,50,,
91540,note_on,20,0,1,,,,,,,,,0,,,58,0
91544,control_change,24,0,2,,,,,,,,,0,64,51,,
91560,note_on,20,0,1,,,,,,,,,0,,,58,36
91572,control_change,28,0,2,,,,,,,,,0,64,52,,
91580,note_on,20,0,1,,,,,,,,,0,,,60,0
91600,set_tempo,120,1,0,,,,,,813229,,,,,,,
91600,control_change,28,0,2,,,,,,,,,0,64,53,,
91600,note_on,20,0,1,,,,,,,,,0,,,60,40
91612,set_tempo,12,1,0,,,,,,794807,,,,,,,
91620,note_on,20,0,1,,,,,,,,,0,,,58,0
91624,set_tempo,12,1,0,,,,,,790306,,,,,,,
91624,control_change,24,0,2,,,,,,,,,0,64,54,,
91640,note_on,20,0,1,,,,,,,,,0,,,58,37
91652,set_tempo,28,1,0,,,,,,785958,,,,,,,
91652,control_change,28,0,2,,,,,,,,,0,64,55,,
91660,note_on,20,0,1,,,,,,,,,0,,,60,0
91664,set_tempo,12,1,0,,,,,,781555,,,,,,,
91680,control_change,28,0,2,,,,,,,,,0,64,56,,
91680,set_tempo,16,1,0,,,,,,777403,,,,,,,
91680,note_on,20,0,1,,,,,,,,,0,,,60,40
91692,set_tempo,12,1,0,,,,,,772997,,,,,,,
91700,note_on,20,0,1,,,,,,,,,0,,,58,0
91704,control_change,24,0,2,,,,,,,,,0,64,57,,
91704,set_tempo,12,1,0,,,,,,764623,,,,,,,
91720,note_on,20,0,1,,,,,,,,,0,,,58,37
91732,control_change,28,0,2,,,,,,,,,0,64,58,,
91732,set_tempo,28,1,0,,,,,,756430,,,,,,,
91740,note_on,20,0,1,,,,,,,,,0,,,60,0
91744,set_tempo,12,1,0,,,,,,752351,,,,,,,
91760,control_change,28,0,2,,,,,,,,,0,64,59,,
91760,note_on,20,0,1,,,,,,,,,0,,,60,40
91760,set_tempo,16,1,0,,,,,,740375,,,,,,,
91772,set_tempo,12,1,0,,,,,,736558,,,,,,,
91780,note_on,20,0,1,,,,,,,,,0,,,58,0
91784,control_change,24,0,2,,,,,,,,,0,64,60,,
91800,note_on,20,0,1,,,,,,,,,0,,,58,37
91812,control_change,28,0,2,,,,,,,,,0,64,61,,
91812,set_tempo,40,1,0,,,,,,740375,,,,,,,
91820,note_on,20,0,1,,,,,,,,,0,,,60,0
91824,set_tempo,12,1,0,,,,,,744417,,,,,,,
91840,set_tempo,16,1,0,,,,,,764623,,,,,,,
91840,control_change,28,0,2,,,,,,,,,0,64,62,,
91840,note_on,20,0,1,,,,,,,,,0,,,60,40
91860,note_on,20,0,1,,,,,,,,,0,,,58,0
91864,control_change,24,0,2,,,,,,,,,0,64,63,,
91880,note_on,20,0,1,,,,,,,,,0,,,58,36
91900,note_on,20,0,1,,,,,,,,,0,,,60,0
91920,note_on,20,0,1,,,,,,,,,0,,,60,40
91920,set_tempo,80,1,0,,,,,,756430,,,,,,,
91932,set_tempo,12,1,0,,,,,,744417,,,,,,,
91940,note_on,20,0,1,,,,,,,,,0,,,58,0
91944,set_tempo,12,1,0,,,,,,736558,,,,,,,
91950,note_on,10,0,1,,,,,,,,,0,,,58,36
91960,set_tempo,16,1,0,,,,,,732690,,,,,,,
91965,note_on,15,0,1,,,,,,,,,0,,,60,0
91972,set_tempo,12,1,0,,,,,,725163,,,,,,,
91980,note_on,15,0,1,,,,,,,,,0,,,60,39
91984,set_tempo,12,1,0,,,,,,721414,,,,,,,
91986,control_change,122,0,2,,,,,,,,,0,64,0,,
91995,note_on,15,0,1,,,,,,,,,0,,,58,0
92000,set_tempo,16,1,0,,,,,,717789,,,,,,,
92010,note_on,15,0,1,,,,,,,,,0,,,58,36
92012,set_tempo,12,1,0,,,,,,714116,,,,,,,
92024,set_tempo,12,1,0,,,,,,710564,,,,,,,
92025,note_on,15,0,1,,,,,,,,,0,,,60,0
92040,note_on,15,0,1,,,,,,,,,0,,,57,36
92040,set_tempo,16,1,0,,,,,,706964,,,,,,,
92052,set_tempo,12,1,0,,,,,,760456,,,,,,,
92055,note_on,15,0,1,,,,,,,,,0,,,58,0
92064,set_tempo,12,1,0,,,,,,777403,,,,,,,
92080,set_tempo,16,1,0,,,,,,790306,,,,,,,
92100,note_on,45,0,1,,,,,,,,,0,,,57,0
92100,note_on,0,0,1,,,,,,,,,0,,,58,36
92160,control_change,174,0,2,,,,,,,,,0,64,42,,
92160,note_on,60,0,1,,,,,,,,,0,,,58,0
92160,set_tempo,80,1,0,,,,,,774693,,,,,,,
92160,note_on,0,0,2,,,,,,,,,0,,,60,41
92168,set_tempo,8,1,0,,,,,,770812,,,,,,,
92172,control_change,12,0,2,,,,,,,,,0,64,43,,
92180,set_tempo,12,1,0,,,,,,767067,,,,,,,
92184,control_change,12,0,2,,,,,,,,,0,64,44,,
92188,set_tempo,8,1,0,,,,,,759590,,,,,,,
92200,control_change,16,0,2,,,,,,,,,0,64,45,,
92200,note_on,0,0,2,,,,,,,,,0,,,59,39
92208,set_tempo,20,1,0,,,,,,755953,,,,,,,
92210,control_change,10,0,2,,,,,,,,,0,64,0,,
92212,control_change,2,0,2,,,,,,,,,0,64,47,,
92220,set_tempo,12,1,0,,,,,,752351,,,,,,,
92220,note_on,8,0,2,,,,,,,,,0,,,60,0
92224,control_change,4,0,2,,,,,,,,,0,64,48,,
92228,set_tempo,8,1,0,,,,,,745156,,,,,,,
92240,note_on,0,0,2,,,,,,,,,0,,,60,41
92240,control_change,16,0,2,,,,,,,,,0,64,49,,
92252,control_change,12,0,2,,,,,,,,,0,64,50,,
92260,note_on,8,0,2,,,,,,,,,0,,,59,0
92264,control_change,4,0,2,,,,,,,,,0,64,52,,
92268,set_tempo,40,1,0,,,,,,763456,,,,,,,
92280,control_change,16,0,2,,,,,,,,,0,64,53,,
92280,set_tempo,12,1,0,,,,,,768836,,,,,,,
92280,note_on,0,0,2,,,,,,,,,0,,,59,39
92292,set_tempo,12,1,0,,,,,,764623,,,,,,,
92292,control_change,12,0,2,,,,,,,,,0,64,54,,
92300,note_on,8,0,2,,,,,,,,,0,,,60,0
92304,set_tempo,12,1,0,,,,,,756430,,,,,,,
92304,control_change,4,0,2,,,,,,,,,0,64,56,,
92320,set_tempo,16,1,0,,,,,,748410,,,,,,,
92320,note_on,0,0,2,,,,,,,,,0,,,60,41
92320,control_change,16,0,2,,,,,,,,,0,64,57,,
92332,control_change,12,0,2,,,,,,,,,0,64,58,,
92332,set_tempo,12,1,0,,,,,,740375,,,,,,,
92340,note_on,8,0,2,,,,,,,,,0,,,59,0
92344,control_change,4,0,2,,,,,,,,,0,64,59,,
92344,set_tempo,12,1,0,,,,,,728952,,,,,,,
92360,control_change,16,0,2,,,,,,,,,0,64,61,,
92360,note_on,0,0,2,,,,,,,,,0,,,59,39
92360,set_tempo,16,1,0,,,,,,721414,,,,,,,
92372,control_change,12,0,2,,,,,,,,,0,64,62,,
92372,set_tempo,12,1,0,,,,,,714116,,,,,,,
92380,note_on,8,0,2,,,,,,,,,0,,,60,0
92384,control_change,4,0,2,,,,,,,,,0,64,63,,
92384,set_tempo,12,1,0,,,,,,710564,,,,,,,
92400,control_change,16,0,2,,,,,,,,,0,64,65,,
92400,note_on,0,0,2,,,,,,,,,0,,,60,41
92420,note_on,20,0,2,,,,,,,,,0,,,59,0
92430,note_on,10,0,2,,,,,,,,,0,,,59,39
92445,note_on,15,0,2,,,,,,,,,0,,,60,0
92449,control_change,4,0,2,,,,,,,,,0,64,0,,
92460,note_on,11,0,2,,,,,,,,,0,,,60,42
92464,set_tempo,80,1,0,,,,,,728952,,,,,,,
92475,note_on,15,0,2,,,,,,,,,0,,,59,0
92480,set_tempo,16,1,0,,,,,,744417,,,,,,,
92490,note_on,15,0,2,,,,,,,,,0,,,59,40
92504,set_tempo,24,1,0,,,,,,748410,,,,,,,
92505,note_on,15,0,2,,,,,,,,,0,,,60,0
92520,note_on,15,0,2,,,,,,,,,0,,,58,40
92532,set_tempo,28,1,0,,,,,,764623,,,,,,,
92535,note_on,15,0,2,,,,,,,,,0,,,59,0
92544,set_tempo,12,1,0,,,,,,817996,,,,,,,
92580,note_on,45,0,2,,,,,,,,,0,,,58,0
92580,note_on,0,0,2,,,,,,,,,0,,,59,40
92612,set_tempo,68,1,0,,,,,,803859,,,,,,,
92640,time_signature,28,1,0,5,4,24,8,,,,,,,,,
92640,note_on,480,0,1,,,,,,,,,0,,,62,44
92640,control_change,0,0,2,,,,,,,,,0,64,49,,
92640,note_on,60,0,2,,,,,,,,,0,,,59,0
92640,set_tempo,0,1,0,,,,,,772997,,,,,,,
92652,set_tempo,12,1,0,,,,,,764623,,,,,,,
92664,control_change,24,0,2,,,,,,,,,0,64,50,,
92680,set_tempo,28,1,0,,,,,,756430,,,,,,,
92680,control_change,16,0,2,,,,,,,,,0,64,51,,
92680,note_on,40,0,1,,,,,,,,,0,,,60,41
92692,control_change,12,0,2,,,,,,,,,0,64,52,,
92692,set_tempo,12,1,0,,,,,,752351,,,,,,,
92700,note_on,20,0,1,,,,,,,,,0,,,62,0
92704,set_tempo,12,1,0,,,,,,725163,,,,,,,
92704,control_change,12,0,2,,,,,,,,,0,64,53,,
92720,note_on,20,0,1,,,,,,,,,0,,,62,44
92720,set_tempo,16,1,0,,,,,,721414,,,,,,,
92720,control_change,16,0,2,,,,,,,,,0,64,54,,
92732,set_tempo,12,1,0,,,,,,717789,,,,,,,
92740,note_on,20,0,1,,,,,,,,,0,,,60,0
92744,control_change,24,0,2,,,,,,,,,0,64,55,,
92744,set_tempo,12,1,0,,,,,,714116,,,,,,,
92760,note_on,20,0,1,,,,,,,,,0,,,60,41
92760,control_change,16,0,2,,,,,,,,,0,64,56,,
92760,set_tempo,16,1,0,,,,,,710564,,,,,,,
92772,control_change,12,0,2,,,,,,,,,0,64,57,,
92780,note_on,20,0,1,,,,,,,,,0,,,62,0
92784,control_change,12,0,2,,,,,,,,,0,64,58,,
92800,control_change,16,0,2,,,,,,,,,0,64,59,,
92800,note_on,20,0,1,,,,,,,,,0,,,62,44
92812,set_tempo,52,1,0,,,,,,717789,,,,,,,
92820,note_on,20,0,1,,,,,,,,,0,,,60,0
92824,set_tempo,12,1,0,,,,,,725163,,,,,,,
92824,control_change,24,0,2,,,,,,,,,0,64,60,,
92840,control_change,16,0,2,,,,,,,,,0,64,61,,
92840,note_on,20,0,1,,,,,,,,,0,,,60,41
92840,set_tempo,16,1,0,,,,,,744417,,,,,,,
92852,control_change,12,0,2,,,,,,,,,0,64,62,,
92860,note_on,20,0,1,,,,,,,,,0,,,62,0
92864,control_change,12,0,2,,,,,,,,,0,64,63,,
92880,note_on,20,0,1,,,,,,,,,0,,,62,44
92880,control_change,16,0,2,,,,,,,,,0,64,64,,
92900,note_on,20,0,1,,,,,,,,,0,,,60,0
92910,note_on,10,0,1,,,,,,,,,0,,,60,41
92920,set_tempo,80,1,0,,,,,,740375,,,,,,,
92925,note_on,15,0,1,,,,,,,,,0,,,62,0
92932,set_tempo,12,1,0,,,,,,732690,,,,,,,
92940,note_on,15,0,1,,,,,,,,,0,,,62,46
92944,set_tempo,12,1,0,,,,,,721414,,,,,,,
92955,control_change,75,0,2,,,,,,,,,0,64,0,,
92955,note_on,15,0,1,,,,,,,,,0,,,60,0
92960,set_tempo,16,1,0,,,,,,717789,,,,,,,
92970,note_on,15,0,1,,,,,,,,,0,,,60,42
92972,set_tempo,12,1,0,,,,,,703482,,,,,,,
92984,set_tempo,12,1,0,,,,,,699953,,,,,,,
92985,note_on,15,0,1,,,,,,,,,0,,,62,0
93000,set_tempo,16,1,0,,,,,,689655,,,,,,,
93000,note_on,15,0,1,,,,,,,,,0,,,59,42
93012,set_tempo,12,1,0,,,,,,686342,,,,,,,
93015,note_on,15,0,1,,,,,,,,,0,,,60,0
93024,set_tempo,12,1,0,,,,,,676361,,,,,,,
93052,set_tempo,28,1,0,,,,,,781555,,,,,,,
93060,note_on,45,0,1,,,,,,,,,0,,,59,0
93060,note_on,0,0,1,,,,,,,,,0,,,60,42
93092,set_tempo,40,1,0,,,,,,777403,,,,,,,
93104,set_tempo,12,1,0,,,,,,768836,,,,,,,
93120,set_tempo,16,1,0,,,,,,764623,,,,,,,
93120,note_on,60,0,1,,,,,,,,,0,,,60,0
93120,note_on,0,0,2,,,,,,,,,0,,,62,46
93120,control_change,165,0,2,,,,,,,,,0,64,40,,
93132,set_tempo,12,1,0,,,,,,764623,,,,,,,
93144,set_tempo,12,1,0,,,,,,756430,,,,,,,
93160,note_on,40,0,2,,,,,,,,,0,,,61,42
93160,set_tempo,16,1,0,,,,,,748410,,,,,,,
93172,set_tempo,12,1,0,,,,,,717789,,,,,,,
93180,note_on,20,0,2,,,,,,,,,0,,,62,0
93184,set_tempo,12,1,0,,,,,,710564,,,,,,,
93200,set_tempo,16,1,0,,,,,,706964,,,,,,,
93200,note_on,20,0,2,,,,,,,,,0,,,62,47
93212,set_tempo,12,1,0,,,,,,703482,,,,,,,
93220,note_on,20,0,2,,,,,,,,,0,,,61,0
93224,set_tempo,12,1,0,,,,,,706964,,,,,,,
93240,set_tempo,16,1,0,,,,,,748410,,,,,,,
93240,note_on,20,0,2,,,,,,,,,0,,,61,42
93252,set_tempo,12,1,0,,,,,,760456,,,,,,,
93260,note_on,20,0,2,,,,,,,,,0,,,62,0
93264,control_change,4,0,2,,,,,,,,,0,64,41,,
93280,note_on,16,0,2,,,,,,,,,0,,,62,48
93300,note_on,20,0,2,,,,,,,,,0,,,61,0
93304,control_change,4,0,2,,,,,,,,,0,64,42,,
93320,set_tempo,68,1,0,,,,,,756430,,,,,,,
93320,note_on,16,0,2,,,,,,,,,0,,,61,43
93332,set_tempo,12,1,0,,,,,,714116,,,,,,,
93340,note_on,20,0,2,,,,,,,,,0,,,62,0
93344,set_tempo,12,1,0,,,,,,710564,,,,,,,
93344,control_change,4,0,2,,,,,,,,,0,64,43,,
93360,set_tempo,16,1,0,,,,,,706964,,,,,,,
93360,note_on,16,0,2,,,,,,,,,0,,,62,49
93380,note_on,20,0,2,,,,,,,,,0,,,61,0
93384,control_change,4,0,2,,,,,,,,,0,64,44,,
93390,note_on,6,0,2,,,,,,,,,0,,,61,44
93400,set_tempo,40,1,0,,,,,,714116,,,,,,,
93400,control_change,10,0,2,,,,,,,,,0,64,45,,
93405,note_on,5,0,2,,,,,,,,,0,,,62,0
93412,set_tempo,12,1,0,,,,,,721414,,,,,,,
93420,note_on,15,0,2,,,,,,,,,0,,,62,49
93424,set_tempo,12,1,0,,,,,,750000,,,,,,,
93435,note_on,15,0,2,,,,,,,,,0,,,61,0
93450,note_on,15,0,2,,,,,,,,,0,,,61,44
93464,set_tempo,40,1,0,,,,,,754717,,,,,,,
93465,note_on,15,0,2,,,,,,,,,0,,,62,0
93480,note_on,15,0,2,,,,,,,,,0,,,62,49
93492,control_change,12,0,2,,,,,,,,,0,64,46,,
93495,note_on,3,0,2,,,,,,,,,0,,,61,0
93504,set_tempo,40,1,0,,,,,,759494,,,,,,,
93510,note_on,15,0,2,,,,,,,,,0,,,61,46
93525,note_on,15,0,2,,,,,,,,,0,,,62,0
93532,control_change,7,0,2,,,,,,,,,0,64,47,,
93540,note_on,8,0,2,,,,,,,,,0,,,62,50
93544,set_tempo,40,1,0,,,,,,764331,,,,,,,
93555,note_on,15,0,2,,,,,,,,,0,,,61,0
93570,note_on,15,0,2,,,,,,,,,0,,,61,46
93572,control_change,2,0,2,,,,,,,,,0,64,48,,
93572,set_tempo,28,1,0,,,,,,769231,,,,,,,
93580,set_tempo,8,1,0,,,,,,782473,,,,,,,
93585,note_on,13,0,2,,,,,,,,,0,,,62,0
93588,set_tempo,8,1,0,,,,,,752351,,,,,,,
93590,set_tempo,2,1,0,,,,,,789474,,,,,,,
93600,set_tempo,10,1,0,,,,,,750000,,,,,,,
93600,note_on,15,0,2,,,,,,,,,0,,,62,50
93615,note_on,15,0,2,,,,,,,,,0,,,61,0
93624,set_tempo,24,1,0,,,,,,745342,,,,,,,
93640,note_on,25,0,2,,,,,,,,,0,,,61,46
93640,set_tempo,16,1,0,,,,,,736196,,,,,,,
93652,control_change,12,0,2,,,,,,,,,0,64,49,,
93652,set_tempo,12,1,0,,,,,,731707,,,,,,,
93660,note_on,8,0,2,,,,,,,,,0,,,62,0
93664,set_tempo,12,1,0,,,,,,722892,,,,,,,
93680,set_tempo,16,1,0,,,,,,714286,,,,,,,
93680,note_on,20,0,2,,,,,,,,,0,,,62,51
93692,control_change,12,0,2,,,,,,,,,0,64,50,,
93700,note_on,8,0,2,,,,,,,,,0,,,61,0
93704,set_tempo,24,1,0,,,,,,714286,,,,,,,
93720,note_on,20,0,2,,,,,,,,,0,,,61,44
93720,set_tempo,16,1,0,,,,,,718563,,,,,,,
93732,set_tempo,12,1,0,,,,,,727273,,,,,,,
93732,control_change,12,0,2,,,,,,,,,0,64,51,,
93740,note_on,8,0,2,,,,,,,,,0,,,62,0
93744,set_tempo,12,1,0,,,,,,736196,,,,,,,
93760,control_change,20,0,2,,,,,,,,,0,64,52,,
93760,set_tempo,16,1,0,,,,,,745342,,,,,,,
93760,note_on,0,0,2,,,,,,,,,0,,,62,51
93772,set_tempo,12,1,0,,,,,,750000,,,,,,,
93780,note_on,20,0,2,,,,,,,,,0,,,61,0
93784,set_tempo,12,1,0,,,,,,745342,,,,,,,
93800,set_tempo,16,1,0,,,,,,740741,,,,,,,
93800,note_on,20,0,2,,,,,,,,,0,,,61,44
93812,control_change,12,0,2,,,,,,,,,0,64,53,,
93812,set_tempo,12,1,0,,,,,,736196,,,,,,,
93820,note_on,8,0,2,,,,,,,,,0,,,62,0
93824,control_change,4,0,2,,,,,,,,,0,64,54,,
93824,set_tempo,12,1,0,,,,,,731707,,,,,,,
93840,note_on,16,0,2,,,,,,,,,0,,,62,49
93840,set_tempo,16,1,0,,,,,,727273,,,,,,,
93852,set_tempo,12,1,0,,,,,,722892,,,,,,,
93860,note_on,20,0,2,,,,,,,,,0,,,61,0
93864,set_tempo,12,1,0,,,,,,718563,,,,,,,
93870,note_on,10,0,2,,,,,,,,,0,,,61,43
93880,set_tempo,16,1,0,,,,,,718563,,,,,,,
93885,note_on,15,0,2,,,,,,,,,0,,,62,0
93892,set_tempo,12,1,0,,,,,,714286,,,,,,,
93892,control_change,7,0,2,,,,,,,,,0,64,55,,
93900,note_on,8,0,2,,,,,,,,,0,,,62,48
93904,set_tempo,12,1,0,,,,,,710059,,,,,,,
93915,note_on,15,0,2,,,,,,,,,0,,,61,0
93930,note_on,15,0,2,,,,,,,,,0,,,61,42
93932,control_change,2,0,2,,,,,,,,,0,64,56,,
93945,note_on,13,0,2,,,,,,,,,0,,,62,0
93960,note_on,15,0,2,,,,,,,,,0,,,62,46
93972,control_change,12,0,2,,,,,,,,,0,64,57,,
93975,note_on,3,0,2,,,,,,,,,0,,,61,0
93990,note_on,15,0,2,,,,,,,,,0,,,61,42
94005,note_on,15,0,2,,,,,,,,,0,,,62,0
94012,control_change,7,0,2,,,,,,,,,0,64,58,,
94020,note_on,8,0,2,,,,,,,,,0,,,62,46
94024,set_tempo,120,1,0,,,,,,740741,,,,,,,
94035,note_on,15,0,2,,,,,,,,,0,,,61,0
94040,set_tempo,16,1,0,,,,,,750000,,,,,,,
94050,note_on,15,0,2,,,,,,,,,0,,,61,41
94052,control_change,2,0,2,,,,,,,,,0,64,59,,
94052,set_tempo,12,1,0,,,,,,754717,,,,,,,
94064,set_tempo,12,1,0,,,,,,764331,,,,,,,
94064,control_change,12,0,2,,,,,,,,,0,64,55,,
94065,note_on,1,0,2,,,,,,,,,0,,,62,0
94080,set_tempo,16,1,0,,,,,,769231,,,,,,,
94080,note_on,15,0,2,,,,,,,,,0,,,62,46
94092,set_tempo,12,1,0,,,,,,789474,,,,,,,
94095,note_on,15,0,2,,,,,,,,,0,,,61,0
94104,set_tempo,12,1,0,,,,,,794702,,,,,,,
94104,control_change,9,0,2,,,,,,,,,0,64,54,,
94120,note_on,16,0,2,,,,,,,,,0,,,61,40
94132,control_change,12,0,2,,,,,,,,,0,64,53,,
94140,note_on,8,0,2,,,,,,,,,0,,,62,0
94160,note_on,20,0,2,,,,,,,,,0,,,62,43
94180,note_on,20,0,2,,,,,,,,,0,,,61,0
94184,control_change,4,0,2,,,,,,,,,0,64,51,,
94200,note_on,16,0,2,,,,,,,,,0,,,61,39
94212,control_change,12,0,2,,,,,,,,,0,64,49,,
94220,note_on,8,0,2,,,,,,,,,0,,,62,0
94224,control_change,4,0,2,,,,,,,,,0,64,47,,
94240,note_on,0,0,2,,,,,,,,,0,,,62,41
94240,set_tempo,136,1,0,,,,,,789474,,,,,,,
94240,control_change,16,0,2,,,,,,,,,0,64,46,,
94260,note_on,20,0,2,,,,,,,,,0,,,61,0
94264,set_tempo,24,1,0,,,,,,784314,,,,,,,
94264,control_change,4,0,2,,,,,,,,,0,64,45,,
94280,note_on,0,0,2,,,,,,,,,0,,,61,37
94280,set_tempo,16,1,0,,,,,,779221,,,,,,,
94280,control_change,16,0,2,,,,,,,,,0,64,44,,
94292,set_tempo,12,1,0,,,,,,774194,,,,,,,
94300,note_on,20,0,2,,,,,,,,,0,,,62,0
94320,control_change,20,0,2,,,,,,,,,0,64,43,,
94320,note_on,0,0,2,,,,,,,,,0,,,62,40
94320,set_tempo,28,1,0,,,,,,1061947,,,,,,,
94340,note_on,20,0,2,,,,,,,,,0,,,61,0
94344,control_change,4,0,2,,,,,,,,,0,64,41,,
94350,note_on,6,0,2,,,,,,,,,0,,,61,36
94365,note_on,15,0,2,,,,,,,,,0,,,62,0
94372,control_change,7,0,2,,,,,,,,,0,64,40,,
94380,note_on,8,0,2,,,,,,,,,0,,,62,37
94384,control_change,4,0,2,,,,,,,,,0,64,38,,
94395,note_on,11,0,2,,,,,,,,,0,,,61,0
94400,control_change,5,0,2,,,,,,,,,0,64,37,,
94410,note_on,10,0,2,,,,,,,,,0,,,61,34
94424,set_tempo,104,1,0,,,,,,967742,,,,,,,
94424,control_change,14,0,2,,,,,,,,,0,64,35,,
94425,note_on,1,0,2,,,,,,,,,0,,,62,0
94440,set_tempo,16,1,0,,,,,,1967213,,,,,,,
94440,note_on,15,0,2,,,,,,,,,0,,,60,33
94452,control_change,12,0,2,,,,,,,,,0,64,34,,
94455,note_on,3,0,2,,,,,,,,,0,,,61,0
94480,set_tempo,40,1,0,,,,,,2500000,,,,,,,
94480,control_change,25,0,2,,,,,,,,,0,64,0,,
94500,note_on,20,0,2,,,,,,,,,0,,,60,0
94500,note_on,0,0,2,,,,,,,,,0,,,61,29
94560,note_on,1440,0,1,,,,,,,,,0,,,62,27
94560,note_on,60,0,2,,,,,,,,,0,,,61,0
94680,note_on,120,0,1,,,,,,,,,0,,,62,0
94800,set_tempo,320,1,0,,,,,,857143,,,,,,,
95040,time_signature,240,1,0,4,4,24,8,,,,,,,,,
95520,set_tempo,480,1,0,,,,,,750000,,,,,,,
95520,note_on,840,0,1,,,,,,,,,0,,,81,46
95520,marker,0,1,0,,,,,,,,,,,,,
95559,note_on,39,0,1,,,,,,,,,0,,,81,0
95564,note_on,5,0,1,,,,,,,,,0,,,82,41
95603,note_on,39,0,1,,,,,,,,,0,,,82,0
95608,note_on,5,0,1,,,,,,,,,0,,,87,43
95640,set_tempo,120,1,0,,,,,,710059,,,,,,,
95647,note_on,39,0,1,,,,,,,,,0,,,87,0
95652,note_on,5,0,1,,,,,,,,,0,,,84,41
95691,note_on,39,0,1,,,,,,,,,0,,,84,0
95696,note_on,5,0,1,,,,,,,,,0,,,82,41
95735,note_on,39,0,1,,,,,,,,,0,,,82,0
95740,note_on,5,0,1,,,,,,,,,0,,,80,40
95779,note_on,39,0,1,,,,,,,,,0,,,80,0
95784,note_on,5,0,1,,,,,,,,,0,,,79,37
95823,note_on,39,0,1,,,,,,,,,0,,,79,0
95828,note_on,1268,0,2,,,,,,,,,0,,,77,42
95867,note_on,39,0,2,,,,,,,,,0,,,77,0
95872,note_on,5,0,2,,,,,,,,,0,,,75,42
95911,note_on,39,0,2,,,,,,,,,0,,,75,0
95916,note_on,5,0,2,,,,,,,,,0,,,74,41
95955,note_on,39,0,2,,,,,,,,,0,,,74,0
95960,note_on,5,0,2,,,,,,,,,0,,,72,41
95995,note_on,35,0,2,,,,,,,,,0,,,72,0
96000,note_on,5,0,2,,,,,,,,,0,,,70,46
96000,set_tempo,360,1,0,,,,,,1052632,,,,,,,
96090,note_on,90,0,2,,,,,,,,,0,,,70,0
96240,set_tempo,240,1,0,,,,,,1111111,,,,,,,
96240,note_on,150,0,2,,,,,,,,,0,,,39,31
96240,note_on,0,0,2,,,,,,,,,0,,,46,31
96240,note_on,0,0,1,,,,,,,,,0,,,58,31
96240,note_on,417,0,1,,,,,,,,,0,,,55,31
96240,note_on,0,0,1,,,,,,,,,0,,,63,34
96330,note_on,90,0,2,,,,,,,,,0,,,46,0
96330,note_on,0,0,1,,,,,,,,,0,,,55,0
96330,note_on,0,0,1,,,,,,,,,0,,,58,0
96330,note_on,0,0,2,,,,,,,,,0,,,39,0
96330,note_on,90,0,1,,,,,,,,,0,,,63,0
96480,note_on,0,0,1,,,,,,,,,0,,,58,32
96480,note_on,150,0,1,,,,,,,,,0,,,56,32
96480,note_on,150,0,2,,,,,,,,,0,,,39,31
96480,set_tempo,240,1,0,,,,,,1142857,,,,,,,
96480,note_on,0,0,2,,,,,,,,,0,,,46,31
96480,note_on,0,0,1,,,,,,,,,0,,,65,36
96570,note_on,0,0,2,,,,,,,,,0,,,39,0
96570,note_on,0,0,1,,,,,,,,,0,,,56,0
96570,note_on,90,0,1,,,,,,,,,0,,,65,0
96570,note_on,0,0,1,,,,,,,,,0,,,58,0
96570,note_on,90,0,2,,,,,,,,,0,,,46,0
96720,note_on,0,0,2,,,,,,,,,0,,,46,31
96720,note_on,0,0,1,,,,,,,,,0,,,66,35
96720,note_on,0,0,1,,,,,,,,,0,,,58,31
96720,note_on,150,0,2,,,,,,,,,0,,,39,31
96720,note_on,150,0,1,,,,,,,,,0,,,57,31
96720,set_tempo,240,1,0,,,,,,1200000,,,,,,,
96810,note_on,0,0,2,,,,,,,,,0,,,39,0
96810,note_on,90,0,1,,,,,,,,,0,,,66,0
96810,note_on,0,0,1,,,,,,,,,0,,,58,0
96810,note_on,0,0,1,,,,,,,,,0,,,57,0
96810,note_on,90,0,2,,,,,,,,,0,,,46,0
96960,note_on,0,0,2,,,,,,,,,0,,,46,33
96960,note_on,150,0,2,,,,,,,,,0,,,39,33
96960,set_tempo,240,1,0,,,,,,1331262,,,,,,,
96960,note_on,0,0,1,,,,,,,,,0,,,67,37
96960,note_on,150,0,1,,,,,,,,,0,,,58,33
96961,set_tempo,1,1,0,,,,,,1304348,,,,,,,
96975,control_change,15,0,2,,,,,,,,,0,64,127,,
97200,note_on,0,0,1,,,,,,,,,0,,,55,31
97200,note_on,0,0,1,,,,,,,,,0,,,58,0
97200,note_on,240,0,1,,,,,,,,,0,,,67,0
97200,note_on,0,0,1,,,,,,,,,0,,,63,34
97202,control_change,227,0,2,,,,,,,,,0,64,0,,
97320,note_on,120,0,1,,,,,,,,,0,,,63,0
97320,note_on,0,0,1,,,,,,,,,0,,,55,0
97440,note_on,120,0,1,,,,,,,,,0,,,81,46
97440,note_on,238,0,2,,,,,,,,,0,,,46,0
97440,note_on,0,0,2,,,,,,,,,0,,,39,0
97440,set_tempo,479,1,0,,,,,,851064,,,,,,,
97469,note_on,29,0,1,,,,,,,,,0,,,81,0
97474,note_on,5,0,1,,,,,,,,,0,,,82,41
97503,note_on,29,0,1,,,,,,,,,0,,,82,0
97508,note_on,5,0,1,,,,,,,,,0,,,91,41
97537,note_on,29,0,1,,,,,,,,,0,,,91,0
97540,set_tempo,100,1,0,,,,,,821918,,,,,,,
97542,note_on,5,0,1,,,,,,,,,0,,,89,41
97571,note_on,29,0,1,,,,,,,,,0,,,89,0
97576,note_on,5,0,1,,,,,,,,,0,,,87,41
97605,note_on,29,0,1,,,,,,,,,0,,,87,0
97610,note_on,5,0,1,,,,,,,,,0,,,86,41
97639,note_on,29,0,1,,,,,,,,,0,,,86,0
97644,note_on,5,0,1,,,,,,,,,0,,,84,41
97673,note_on,29,0,1,,,,,,,,,0,,,84,0
97678,note_on,5,0,1,,,,,,,,,0,,,82,41
97707,note_on,29,0,1,,,,,,,,,0,,,82,0
97712,note_on,5,0,1,,,,,,,,,0,,,80,40
97741,note_on,29,0,1,,,,,,,,,0,,,80,0
97746,note_on,5,0,1,,,,,,,,,0,,,79,37
97775,note_on,29,0,1,,,,,,,,,0,,,79,0
97780,note_on,340,0,2,,,,,,,,,0,,,77,42
97809,note_on,29,0,2,,,,,,,,,0,,,77,0
97814,note_on,5,0,2,,,,,,,,,0,,,75,42
97843,note_on,29,0,2,,,,,,,,,0,,,75,0
97848,note_on,5,0,2,,,,,,,,,0,,,74,41
97877,note_on,29,0,2,,,,,,,,,0,,,74,0
97882,note_on,5,0,2,,,,,,,,,0,,,72,41
97915,note_on,33,0,2,,,,,,,,,0,,,72,0
97920,set_tempo,380,1,0,,,,,,1081081,,,,,,,
97920,note_on,5,0,2,,,,,,,,,0,,,70,46
98010,note_on,90,0,2,,,,,,,,,0,,,70,0
98160,note_on,385,0,1,,,,,,,,,0,,,55,29
98160,note_on,0,0,1,,,,,,,,,0,,,63,33
98160,note_on,150,0,2,,,,,,,,,0,,,39,31
98160,set_tempo,240,1,0,,,,,,1132075,,,,,,,
98160,note_on,0,0,2,,,,,,,,,0,,,46,31
98160,note_on,0,0,1,,,,,,,,,0,,,58,29
98250,note_on,90,0,2,,,,,,,,,0,,,46,0
98250,note_on,0,0,1,,,,,,,,,0,,,55,0
98250,note_on,0,0,1,,,,,,,,,0,,,58,0
98250,note_on,0,0,2,,,,,,,,,0,,,39,0
98250,note_on,90,0,1,,,,,,,,,0,,,63,0
98400,note_on,0,0,2,,,,,,,,,0,,,46,33
98400,note_on,150,0,2,,,,,,,,,0,,,39,33
98400,note_on,150,0,1,,,,,,,,,0,,,56,32
98400,set_tempo,240,1,0,,,,,,1250000,,,,,,,
98400,note_on,0,0,1,,,,,,,,,0,,,65,36
98400,note_on,0,0,1,,,,,,,,,0,,,62,32
98490,note_on,0,0,2,,,,,,,,,0,,,39,0
98490,note_on,0,0,1,,,,,,,,,0,,,62,0
98490,note_on,90,0,1,,,,,,,,,0,,,65,0
98490,note_on,90,0,2,,,,,,,,,0,,,46,0
98490,note_on,0,0,1,,,,,,,,,0,,,56,0
98640,note_on,150,0,1,,,,,,,,,0,,,58,31
98640,note_on,0,0,2,,,,,,,,,0,,,46,31
98640,note_on,0,0,1,,,,,,,,,0,,,67,34
98640,note_on,150,0,2,,,,,,,,,0,,,39,31
98640,set_tempo,240,1,0,,,,,,1411765,,,,,,,
98730,note_on,90,0,1,,,,,,,,,0,,,67,0
98730,note_on,90,0,2,,,,,,,,,0,,,46,0
98730,note_on,0,0,2,,,,,,,,,0,,,39,0
98730,note_on,0,0,1,,,,,,,,,0,,,58,0
98880,note_on,150,0,1,,,,,,,,,0,,,55,31
98880,note_on,150,0,2,,,,,,,,,0,,,39,31
98880,note_on,0,0,1,,,,,,,,,0,,,63,34
98880,set_tempo,240,1,0,,,,,,1690141,,,,,,,
98880,note_on,0,0,2,,,,,,,,,0,,,46,31
99340,note_on,460,0,1,,,,,,,,,0,,,63,0
99340,note_on,460,0,2,,,,,,,,,0,,,46,0
99340,note_on,0,0,1,,,,,,,,,0,,,55,0
99340,note_on,0,0,2,,,,,,,,,0,,,39,0
99360,note_on,20,0,1,,,,,,,,,0,,,93,46
99360,set_tempo,480,1,0,,,,,,960000,,,,,,,
99390,note_on,30,0,1,,,,,,,,,0,,,93,0
99392,note_on,2,0,1,,,,,,,,,0,,,94,41
99422,note_on,30,0,1,,,,,,,,,0,,,94,0
99424,note_on,2,0,1,,,,,,,,,0,,,99,43
99448,note_on,24,0,1,,,,,,,,,0,,,99,0
99450,note_on,2,0,1,,,,,,,,,0,,,96,41
99474,note_on,24,0,1,,,,,,,,,0,,,96,0
99476,note_on,2,0,1,,,,,,,,,0,,,94,41
99500,note_on,24,0,1,,,,,,,,,0,,,94,0
99502,note_on,2,0,1,,,,,,,,,0,,,92,40
99526,note_on,24,0,1,,,,,,,,,0,,,92,0
99528,note_on,2,0,1,,,,,,,,,0,,,91,37
99552,note_on,24,0,1,,,,,,,,,0,,,91,0
99554,note_on,214,0,2,,,,,,,,,0,,,89,42
99578,note_on,24,0,2,,,,,,,,,0,,,89,0
99580,note_on,2,0,2,,,,,,,,,0,,,87,42
99604,note_on,24,0,2,,,,,,,,,0,,,87,0
99606,note_on,2,0,2,,,,,,,,,0,,,86,41
99630,note_on,24,0,2,,,,,,,,,0,,,86,0
99632,note_on,2,0,2,,,,,,,,,0,,,84,41
99656,note_on,24,0,2,,,,,,,,,0,,,84,0
99658,note_on,2,0,2,,,,,,,,,0,,,82,41
99682,note_on,24,0,2,,,,,,,,,0,,,82,0
99684,note_on,2,0,2,,,,,,,,,0,,,80,41
99708,note_on,24,0,2,,,,,,,,,0,,,80,0
99710,note_on,2,0,2,,,,,,,,,0,,,79,41
99734,note_on,24,0,2,,,,,,,,,0,,,79,0
99736,note_on,2,0,2,,,,,,,,,0,,,77,41
99760,note_on,24,0,2,,,,,,,,,0,,,77,0
99762,note_on,2,0,2,,,,,,,,,0,,,75,41
99786,note_on,24,0,2,,,,,,,,,0,,,75,0
99788,note_on,2,0,2,,,,,,,,,0,,,74,41
99812,note_on,24,0,2,,,,,,,,,0,,,74,0
99816,note_on,4,0,2,,,,,,,,,0,,,72,41
99840,note_on,0,0,2,,,,,,,,,0,,,70,46
99840,set_tempo,480,1,0,,,,,,1061947,,,,,,,
99840,note_on,24,0,2,,,,,,,,,0,,,72,0
99930,note_on,90,0,2,,,,,,,,,0,,,70,0
100060,set_tempo,220,1,0,,,,,,1153846,,,,,,,
100080,note_on,0,0,1,,,,,,,,,0,,,58,33
100080,note_on,0,0,2,,,,,,,,,0,,,46,33
100080,set_tempo,20,1,0,,,,,,1111111,,,,,,,
100080,note_on,150,0,2,,,,,,,,,0,,,39,33
100080,note_on,528,0,1,,,,,,,,,0,,,55,33
100080,note_on,0,0,1,,,,,,,,,0,,,63,37
100170,note_on,0,0,1,,,,,,,,,0,,,58,0
100170,note_on,0,0,2,,,,,,,,,0,,,39,0
100170,note_on,90,0,1,,,,,,,,,0,,,63,0
100170,note_on,0,0,1,,,,,,,,,0,,,55,0
100170,note_on,90,0,2,,,,,,,,,0,,,46,0
100320,note_on,0,0,1,,,,,,,,,0,,,58,35
100320,note_on,0,0,2,,,,,,,,,0,,,46,36
100320,set_tempo,240,1,0,,,,,,1153846,,,,,,,
100320,note_on,0,0,1,,,,,,,,,0,,,65,40
100320,note_on,150,0,1,,,,,,,,,0,,,56,35
100320,note_on,150,0,2,,,,,,,,,0,,,39,36
100410,note_on,90,0,2,,,,,,,,,0,,,46,0
100410,note_on,0,0,2,,,,,,,,,0,,,39,0
100410,note_on,0,0,1,,,,,,,,,0,,,56,0
100410,note_on,90,0,1,,,,,,,,,0,,,65,0
100410,note_on,0,0,1,,,,,,,,,0,,,58,0
100560,note_on,150,0,2,,,,,,,,,0,,,39,34
100560,note_on,0,0,1,,,,,,,,,0,,,66,39
100560,note_on,0,0,2,,,,,,,,,0,,,46,34
100560,note_on,150,0,1,,,,,,,,,0,,,57,34
100560,note_on,0,0,1,,,,,,,,,0,,,58,34
100560,set_tempo,240,1,0,,,,,,1263158,,,,,,,
100650,note_on,90,0,1,,,,,,,,,0,,,66,0
100650,note_on,0,0,1,,,,,,,,,0,,,58,0
100650,note_on,0,0,1,,,,,,,,,0,,,57,0
100650,note_on,0,0,2,,,,,,,,,0,,,39,0
100650,note_on,90,0,2,,,,,,,,,0,,,46,0
100800,note_on,0,0,2,,,,,,,,,0,,,46,36
100800,note_on,0,0,1,,,,,,,,,0,,,67,41
100800,set_tempo,240,1,0,,,,,,1395349,,,,,,,
100800,note_on,150,0,1,,,,,,,,,0,,,58,36
100800,note_on,150,0,2,,,,,,,,,0,,,39,36
100810,control_change,10,0,2,,,,,,,,,0,64,127,,
101032,control_change,222,0,2,,,,,,,,,0,64,0,,
101040,note_on,240,0,1,,,,,,,,,0,,,67,0
101040,note_on,0,0,1,,,,,,,,,0,,,58,0
101040,note_on,0,0,1,,,,,,,,,0,,,63,37
101040,note_on,0,0,1,,,,,,,,,0,,,55,33
101040,set_tempo,240,1,0,,,,,,1690141,,,,,,,
101160,note_on,120,0,1,,,,,,,,,0,,,63,0
101160,note_on,0,0,1,,,,,,,,,0,,,55,0
101280,note_on,120,0,1,,,,,,,,,0,,,93,46
101280,note_on,248,0,2,,,,,,,,,0,,,46,0
101280,set_tempo,240,1,0,,,,,,1165049,,,,,,,
101280,note_on,0,0,2,,,,,,,,,0,,,39,0
101309,note_on,29,0,1,,,,,,,,,0,,,93,0
101311,note_on,2,0,1,,,,,,,,,0,,,94,41
101340,note_on,29,0,1,,,,,,,,,0,,,94,0
101342,note_on,2,0,1,,,,,,,,,0,,,103,41
101360,set_tempo,80,1,0,,,,,,1153846,,,,,,,
101362,note_on,20,0,1,,,,,,,,,0,,,103,0
101364,note_on,2,0,1,,,,,,,,,0,,,101,41
101384,note_on,20,0,1,,,,,,,,,0,,,101,0
101386,note_on,2,0,1,,,,,,,,,0,,,99,41
101406,note_on,20,0,1,,,,,,,,,0,,,99,0
101408,note_on,2,0,1,,,,,,,,,0,,,98,41
101428,note_on,20,0,1,,,,,,,,,0,,,98,0
101430,note_on,2,0,1,,,,,,,,,0,,,96,41
101440,set_tempo,80,1,0,,,,,,1142857,,,,,,,
101450,note_on,20,0,1,,,,,,,,,0,,,96,0
101452,note_on,2,0,1,,,,,,,,,0,,,94,41
101472,note_on,20,0,1,,,,,,,,,0,,,94,0
101474,note_on,2,0,1,,,,,,,,,0,,,92,40
101494,note_on,20,0,1,,,,,,,,,0,,,92,0
101496,note_on,2,0,1,,,,,,,,,0,,,91,37
101516,note_on,20,0,1,,,,,,,,,0,,,91,0
101518,note_on,238,0,2,,,,,,,,,0,,,89,42
101520,set_tempo,80,1,0,,,,,,1132075,,,,,,,
101538,note_on,20,0,2,,,,,,,,,0,,,89,0
101540,note_on,2,0,2,,,,,,,,,0,,,87,42
101560,note_on,20,0,2,,,,,,,,,0,,,87,0
101560,set_tempo,40,1,0,,,,,,1121495,,,,,,,
101562,note_on,2,0,2,,,,,,,,,0,,,86,41
101582,note_on,20,0,2,,,,,,,,,0,,,86,0
101584,note_on,2,0,2,,,,,,,,,0,,,84,41
101604,note_on,20,0,2,,,,,,,,,0,,,84,0
101606,note_on,2,0,2,,,,,,,,,0,,,82,41
101620,set_tempo,60,1,0,,,,,,1132075,,,,,,,
101626,note_on,20,0,2,,,,,,,,,0,,,82,0
101628,note_on,2,0,2,,,,,,,,,0,,,80,41
101648,note_on,20,0,2,,,,,,,,,0,,,80,0
101650,note_on,2,0,2,,,,,,,,,0,,,79,41
101660,set_tempo,40,1,0,,,,,,1142857,,,,,,,
101670,note_on,20,0,2,,,,,,,,,0,,,79,0
101672,note_on,2,0,2,,,,,,,,,0,,,77,41
101692,note_on,20,0,2,,,,,,,,,0,,,77,0
101694,note_on,2,0,2,,,,,,,,,0,,,75,41
101700,set_tempo,40,1,0,,,,,,1153846,,,,,,,
101714,note_on,20,0,2,,,,,,,,,0,,,75,0
101716,note_on,2,0,2,,,,,,,,,0,,,74,41
101736,note_on,20,0,2,,,,,,,,,0,,,74,0
101738,note_on,2,0,2,,,,,,,,,0,,,72,41
101740,set_tempo,40,1,0,,,,,,1165049,,,,,,,
101758,note_on,20,0,2,,,,,,,,,0,,,72,0
101760,set_tempo,20,1,0,,,,,,1081081,,,,,,,
101760,note_on,2,0,2,,,,,,,,,0,,,70,46
101850,note_on,90,0,2,,,,,,,,,0,,,70,0
102000,note_on,0,0,1,,,,,,,,,0,,,63,41
102000,note_on,0,0,1,,,,,,,,,0,,,58,36
102000,note_on,0,0,2,,,,,,,,,0,,,46,35
102000,note_on,150,0,2,,,,,,,,,0,,,39,35
102000,note_on,484,0,1,,,,,,,,,0,,,55,36
102000,set_tempo,240,1,0,,,,,,1138088,,,,,,,
102090,note_on,90,0,2,,,,,,,,,0,,,46,0
102090,note_on,0,0,1,,,,,,,,,0,,,58,0
102090,note_on,0,0,1,,,,,,,,,0,,,55,0
102090,note_on,0,0,2,,,,,,,,,0,,,39,0
102090,note_on,90,0,1,,,,,,,,,0,,,63,0
102240,note_on,0,0,1,,,,,,,,,0,,,65,42
102240,set_tempo,240,1,0,,,,,,1304348,,,,,,,
102240,note_on,0,0,2,,,,,,,,,0,,,47,36
102240,note_on,150,0,2,,,,,,,,,0,,,39,36
102240,note_on,150,0,1,,,,,,,,,0,,,56,37
102240,note_on,0,0,1,,,,,,,,,0,,,62,37
102330,note_on,90,0,1,,,,,,,,,0,,,65,0
102330,note_on,0,0,1,,,,,,,,,0,,,62,0
102330,note_on,0,0,2,,,,,,,,,0,,,39,0
102330,note_on,90,0,2,,,,,,,,,0,,,47,0
102330,note_on,0,0,1,,,,,,,,,0,,,56,0
102480,note_on,0,0,1,,,,,,,,,0,,,56,36
102480,note_on,0,0,2,,,,,,,,,0,,,46,35
102480,note_on,0,0,1,,,,,,,,,0,,,67,41
102480,set_tempo,240,1,0,,,,,,1538462,,,,,,,
102480,note_on,150,0,1,,,,,,,,,0,,,62,36
102480,note_on,150,0,2,,,,,,,,,0,,,39,35
102570,note_on,90,0,2,,,,,,,,,0,,,46,0
102570,note_on,0,0,1,,,,,,,,,0,,,56,0
102570,note_on,90,0,1,,,,,,,,,0,,,67,0
102570,note_on,0,0,2,,,,,,,,,0,,,39,0
102570,note_on,0,0,1,,,,,,,,,0,,,62,0
102720,note_on,150,0,1,,,,,,,,,0,,,55,34
102720,note_on,0,0,2,,,,,,,,,0,,,39,33
102720,note_on,0,0,1,,,,,,,,,0,,,63,39
102720,set_tempo,240,1,0,,,,,,1666667,,,,,,,
102720,note_on,150,0,2,,,,,,,,,0,,,51,33
102720,note_on,0,0,2,,,,,,,,,0,,,46,33
103180,note_on,0,0,2,,,,,,,,,0,,,39,0
103180,note_on,0,0,1,,,,,,,,,0,,,55,0
103180,note_on,0,0,2,,,,,,,,,0,,,51,0
103180,note_on,460,0,1,,,,,,,,,0,,,63,0
103180,note_on,460,0,2,,,,,,,,,0,,,46,0
103200,set_tempo,480,1,0,,,,,,774194,,,,,,,
103200,note_on,20,0,2,,,,,,,,,0,,,46,59
103210,control_change,10,0,2,,,,,,,,,0,64,127,,
103239,note_on,29,0,2,,,,,,,,,0,,,46,0
103240,note_on,1,0,2,,,,,,,,,0,,,45,59
103279,note_on,39,0,2,,,,,,,,,0,,,45,0
103280,set_tempo,80,1,0,,,,,,769231,,,,,,,
103280,note_on,1,0,2,,,,,,,,,0,,,44,59
103319,note_on,39,0,2,,,,,,,,,0,,,44,0
103320,note_on,1,0,2,,,,,,,,,0,,,43,59
103359,note_on,39,0,2,,,,,,,,,0,,,43,0
103360,set_tempo,80,1,0,,,,,,764331,,,,,,,
103360,note_on,1,0,2,,,,,,,,,0,,,42,59
103399,note_on,39,0,2,,,,,,,,,0,,,42,0
103400,note_on,1,0,2,,,,,,,,,0,,,41,59
103435,control_change,35,0,2,,,,,,,,,0,64,0,,
103439,note_on,4,0,2,,,,,,,,,0,,,41,0
103440,set_tempo,80,1,0,,,,,,759494,,,,,,,
103440,note_on,1,0,2,,,,,,,,,0,,,40,63
103448,control_change,8,0,2,,,,,,,,,0,64,127,,
103479,note_on,31,0,2,,,,,,,,,0,,,40,0
103480,note_on,1,0,2,,,,,,,,,0,,,39,65
103519,note_on,39,0,2,,,,,,,,,0,,,39,0
103520,set_tempo,80,1,0,,,,,,754717,,,,,,,
103520,note_on,1,0,2,,,,,,,,,0,,,38,67
103559,note_on,39,0,2,,,,,,,,,0,,,38,0
103560,note_on,1,0,2,,,,,,,,,0,,,37,70
103599,note_on,39,0,2,,,,,,,,,0,,,37,0
103600,set_tempo,80,1,0,,,,,,750000,,,,,,,
103600,note_on,1,0,2,,,,,,,,,0,,,36,72
103639,note_on,39,0,2,,,,,,,,,0,,,36,0
103640,note_on,1,0,2,,,,,,,,,0,,,35,74
103660,set_tempo,60,1,0,,,,,,745342,,,,,,,
103679,note_on,39,0,2,,,,,,,,,0,,,35,0
103680,set_tempo,20,1,0,,,,,,1132075,,,,,,,
103680,note_on,1,0,2,,,,,,,,,0,,,34,93
103682,control_change,2,0,2,,,,,,,,,0,64,0,,
103740,note_on,58,0,2,,,,,,,,,0,,,34,0
103920,note_on,0,0,1,,,,,,,,,0,,,58,50
103920,note_on,0,0,2,,,,,,,,,0,,,46,46
103920,note_on,740,0,1,,,,,,,,,0,,,62,56
103920,note_on,180,0,2,,,,,,,,,0,,,53,46
103920,set_tempo,240,1,0,,,,,,1090909,,,,,,,
104010,note_on,90,0,1,,,,,,,,,0,,,58,0
104010,note_on,0,0,1,,,,,,,,,0,,,62,0
104010,note_on,0,0,2,,,,,,,,,0,,,53,0
104010,note_on,90,0,2,,,,,,,,,0,,,46,0
104160,note_on,150,0,2,,,,,,,,,0,,,46,51
104160,note_on,0,0,1,,,,,,,,,0,,,63,63
104160,note_on,0,0,1,,,,,,,,,0,,,60,56
104160,set_tempo,240,1,0,,,,,,1132075,,,,,,,
104160,note_on,150,0,1,,,,,,,,,0,,,58,56
104160,note_on,0,0,2,,,,,,,,,0,,,54,51
104250,note_on,0,0,1,,,,,,,,,0,,,60,0
104250,note_on,0,0,1,,,,,,,,,0,,,58,0
104250,note_on,90,0,2,,,,,,,,,0,,,54,0
104250,note_on,0,0,2,,,,,,,,,0,,,46,0
104250,note_on,90,0,1,,,,,,,,,0,,,63,0
104400,note_on,0,0,1,,,,,,,,,0,,,64,57
104400,note_on,0,0,1,,,,,,,,,0,,,61,51
104400,note_on,150,0,1,,,,,,,,,0,,,58,51
104400,note_on,150,0,2,,,,,,,,,0,,,55,48
104400,note_on,0,0,2,,,,,,,,,0,,,46,48
104400,set_tempo,240,1,0,,,,,,1200000,,,,,,,
104490,note_on,0,0,1,,,,,,,,,0,,,58,0
104490,note_on,90,0,2,,,,,,,,,0,,,46,0
104490,note_on,0,0,1,,,,,,,,,0,,,61,0
104490,note_on,0,0,2,,,,,,,,,0,,,55,0
104490,note_on,90,0,1,,,,,,,,,0,,,64,0
104640,note_on,150,0,1,,,,,,,,,0,,,62,51
104640,note_on,150,0,2,,,,,,,,,0,,,58,50
104640,set_tempo,240,1,0,,,,,,1304348,,,,,,,
104640,note_on,0,0,1,,,,,,,,,0,,,65,58
104640,note_on,0,0,2,,,,,,,,,0,,,46,50
104642,control_change,2,0,2,,,,,,,,,0,64,127,,
104880,note_on,238,0,2,,,,,,,,,0,,,58,0
104880,note_on,0,0,1,,,,,,,,,0,,,62,0
104880,set_tempo,240,1,0,,,,,,1445783,,,,,,,
104880,note_on,0,0,1,,,,,,,,,0,,,62,55
104880,note_on,0,0,2,,,,,,,,,0,,,53,49
104880,note_on,0,0,1,,,,,,,,,0,,,58,49
104880,note_on,240,0,1,,,,,,,,,0,,,65,0
104886,control_change,6,0,2,,,,,,,,,0,64,0,,
105000,note_on,114,0,2,,,,,,,,,0,,,53,0
105000,note_on,120,0,1,,,,,,,,,0,,,62,0
105000,note_on,0,0,1,,,,,,,,,0,,,58,0
105120,note_on,0,0,2,,,,,,,,,0,,,34,62
105120,note_on,120,0,2,,,,,,,,,0,,,46,0
105120,set_tempo,240,1,0,,,,,,839161,,,,,,,
105125,control_change,5,0,2,,,,,,,,,0,64,127,,
105156,note_on,31,0,2,,,,,,,,,0,,,34,0
105157,note_on,1,0,2,,,,,,,,,0,,,36,63
105193,note_on,36,0,2,,,,,,,,,0,,,36,0
105194,note_on,1,0,2,,,,,,,,,0,,,38,64
105230,note_on,36,0,2,,,,,,,,,0,,,38,0
105231,note_on,1,0,2,,,,,,,,,0,,,39,66
105267,note_on,36,0,2,,,,,,,,,0,,,39,0
105268,note_on,1,0,2,,,,,,,,,0,,,41,67
105304,note_on,36,0,2,,,,,,,,,0,,,41,0
105305,note_on,1,0,2,,,,,,,,,0,,,43,69
105341,note_on,36,0,2,,,,,,,,,0,,,43,0
105342,note_on,1,0,2,,,,,,,,,0,,,45,70
105349,control_change,7,0,2,,,,,,,,,0,64,0,,
105366,control_change,17,0,2,,,,,,,,,0,64,127,,
105378,note_on,12,0,2,,,,,,,,,0,,,45,0
105379,note_on,1,0,2,,,,,,,,,0,,,46,71
105415,note_on,36,0,2,,,,,,,,,0,,,46,0
105416,note_on,1,0,2,,,,,,,,,0,,,48,72
105452,note_on,36,0,2,,,,,,,,,0,,,48,0
105453,note_on,1,0,2,,,,,,,,,0,,,50,73
105489,note_on,36,0,2,,,,,,,,,0,,,50,0
105490,note_on,1,0,2,,,,,,,,,0,,,51,75
105526,note_on,36,0,2,,,,,,,,,0,,,51,0
105527,note_on,1,0,2,,,,,,,,,0,,,52,77
105563,note_on,36,0,2,,,,,,,,,0,,,52,0
105564,note_on,1,0,2,,,,,,,,,0,,,55,78
105599,note_on,35,0,2,,,,,,,,,0,,,55,0
105600,set_tempo,480,1,0,,,,,,1165049,,,,,,,
105600,note_on,1,0,2,,,,,,,,,0,,,53,70
105613,control_change,13,0,2,,,,,,,,,0,64,0,,
105840,note_on,0,0,2,,,,,,,,,0,,,41,46
105840,note_on,0,0,1,,,,,,,,,0,,,58,49
105840,note_on,227,0,2,,,,,,,,,0,,,46,46
105840,set_tempo,240,1,0,,,,,,1132075,,,,,,,
105840,note_on,840,0,1,,,,,,,,,0,,,62,55
105930,note_on,90,0,1,,,,,,,,,0,,,58,0
105930,note_on,90,0,2,,,,,,,,,0,,,41,0
105930,note_on,0,0,1,,,,,,,,,0,,,62,0
105930,note_on,0,0,2,,,,,,,,,0,,,46,0
106080,set_tempo,240,1,0,,,,,,1188119,,,,,,,
106080,note_on,150,0,1,,,,,,,,,0,,,57,52
106080,note_on,0,0,2,,,,,,,,,0,,,48,49
106080,note_on,0,0,1,,,,,,,,,0,,,63,59
106080,note_on,150,0,2,,,,,,,,,0,,,41,49
106170,note_on,90,0,1,,,,,,,,,0,,,63,0
106170,note_on,0,0,2,,,,,,,,,0,,,41,0
106170,note_on,90,0,2,,,,,,,,,0,,,48,0
106170,note_on,0,0,1,,,,,,,,,0,,,57,0
106300,set_tempo,220,1,0,,,,,,1363636,,,,,,,
106320,note_on,0,0,2,,,,,,,,,0,,,41,48
106320,set_tempo,20,1,0,,,,,,1304348,,,,,,,
106320,note_on,0,0,1,,,,,,,,,0,,,65,56
106320,note_on,150,0,2,,,,,,,,,0,,,50,48
106320,note_on,150,0,1,,,,,,,,,0,,,57,50
106410,note_on,0,0,2,,,,,,,,,0,,,50,0
106410,note_on,90,0,2,,,,,,,,,0,,,41,0
106410,note_on,0,0,1,,,,,,,,,0,,,57,0
106410,note_on,90,0,1,,,,,,,,,0,,,65,0
106560,note_on,150,0,2,,,,,,,,,0,,,46,49
106560,note_on,150,0,1,,,,,,,,,0,,,62,57
106560,note_on,0,0,1,,,,,,,,,0,,,58,51
106560,set_tempo,240,1,0,,,,,,1481481,,,,,,,
106563,control_change,3,0,2,,,,,,,,,0,64,127,,
106795,control_change,232,0,2,,,,,,,,,0,64,0,,
106800,note_on,0,0,2,,,,,,,,,0,,,34,54
106800,note_on,5,0,2,,,,,,,,,0,,,53,0
106920,note_on,120,0,2,,,,,,,,,0,,,34,0
107020,note_on,0,0,1,,,,,,,,,0,,,62,0
107020,note_on,460,0,1,,,,,,,,,0,,,58,0
107040,set_tempo,480,1,0,,,,,,693642,,,,,,,
107040,note_on,120,0,2,,,,,,,,,0,,,46,0
107040,note_on,20,0,1,,,,,,,,,0,,,70,65
107056,control_change,16,0,2,,,,,,,,,0,64,127,,
107079,note_on,39,0,1,,,,,,,,,0,,,70,0
107080,note_on,1,0,1,,,,,,,,,0,,,69,65
107119,note_on,39,0,1,,,,,,,,,0,,,69,0
107120,note_on,1,0,1,,,,,,,,,0,,,68,65
107120,set_tempo,80,1,0,,,,,,689655,,,,,,,
107159,note_on,39,0,1,,,,,,,,,0,,,68,0
107160,note_on,1,0,1,,,,,,,,,0,,,67,65
107199,note_on,39,0,1,,,,,,,,,0,,,67,0
107200,note_on,144,0,2,,,,,,,,,0,,,66,65
107200,set_tempo,80,1,0,,,,,,685714,,,,,,,
107239,note_on,39,0,2,,,,,,,,,0,,,66,0
107240,note_on,1,0,2,,,,,,,,,0,,,65,65
107279,note_on,39,0,2,,,,,,,,,0,,,65,0
107280,set_tempo,80,1,0,,,,,,681818,,,,,,,
107280,note_on,1,0,2,,,,,,,,,0,,,64,67
107308,control_change,28,0,2,,,,,,,,,0,64,0,,
107319,note_on,11,0,2,,,,,,,,,0,,,64,0
107320,note_on,1,0,2,,,,,,,,,0,,,63,70
107327,control_change,7,0,2,,,,,,,,,0,64,127,,
107359,note_on,32,0,2,,,,,,,,,0,,,63,0
107360,set_tempo,80,1,0,,,,,,677966,,,,,,,
107360,note_on,161,0,1,,,,,,,,,0,,,62,73
107399,note_on,39,0,1,,,,,,,,,0,,,62,0
107400,note_on,1,0,1,,,,,,,,,0,,,61,77
107439,note_on,39,0,1,,,,,,,,,0,,,61,0
107440,note_on,1,0,1,,,,,,,,,0,,,60,80
107440,set_tempo,80,1,0,,,,,,674157,,,,,,,
107479,note_on,39,0,1,,,,,,,,,0,,,60,0
107480,note_on,1,0,1,,,,,,,,,0,,,59,82
107500,set_tempo,60,1,0,,,,,,670391,,,,,,,
107519,note_on,39,0,1,,,,,,,,,0,,,59,0
107520,note_on,1,0,1,,,,,,,,,0,,,58,97
107520,set_tempo,20,1,0,,,,,,1000000,,,,,,,
107538,control_change,179,0,2,,,,,,,,,0,64,0,,
107580,note_on,60,0,1,,,,,,,,,0,,,58,0
107760,note_on,222,0,2,,,,,,,,,0,,,58,43
107760,note_on,0,0,1,,,,,,,,,0,,,62,47
107760,note_on,0,0,1,,,,,,,,,0,,,70,47
107760,set_tempo,240,1,0,,,,,,1090909,,,,,,,
107760,note_on,0,0,2,,,,,,,,,0,,,46,43
107760,note_on,180,0,1,,,,,,,,,0,,,74,59
107760,note_on,0,0,2,,,,,,,,,0,,,53,43
107850,note_on,0,0,2,,,,,,,,,0,,,58,0
107850,note_on,90,0,1,,,,,,,,,0,,,70,0
107850,note_on,90,0,2,,,,,,,,,0,,,46,0
107850,note_on,0,0,2,,,,,,,,,0,,,53,0
107850,note_on,0,0,1,,,,,,,,,0,,,74,0
107850,note_on,0,0,1,,,,,,,,,0,,,62,0
108000,note_on,150,0,1,,,,,,,,,0,,,70,51
108000,note_on,150,0,2,,,,,,,,,0,,,60,48
108000,note_on,0,0,1,,,,,,,,,0,,,63,51
108000,set_tempo,240,1,0,,,,,,1111111,,,,,,,
108000,note_on,0,0,2,,,,,,,,,0,,,54,48
108000,note_on,0,0,2,,,,,,,,,0,,,46,48
108000,note_on,0,0,1,,,,,,,,,0,,,75,64
108090,note_on,0,0,1,,,,,,,,,0,,,75,0
108090,note_on,0,0,2,,,,,,,,,0,,,60,0
108090,note_on,0,0,2,,,,,,,,,0,,,46,0
108090,note_on,90,0,2,,,,,,,,,0,,,54,0
108090,note_on,0,0,1,,,,,,,,,0,,,70,0
108090,note_on,90,0,1,,,,,,,,,0,,,63,0
108240,note_on,0,0,2,,,,,,,,,0,,,46,46
108240,note_on,150,0,2,,,,,,,,,0,,,61,48
108240,note_on,0,0,2,,,,,,,,,0,,,55,46
108240,note_on,150,0,1,,,,,,,,,0,,,64,48
108240,note_on,0,0,1,,,,,,,,,0,,,76,60
108240,note_on,0,0,1,,,,,,,,,0,,,70,48
108240,set_tempo,240,1,0,,,,,,1188119,,,,,,,
108330,note_on,0,0,2,,,,,,,,,0,,,55,0
108330,note_on,90,0,1,,,,,,,,,0,,,76,0
108330,note_on,0,0,2,,,,,,,,,0,,,61,0
108330,note_on,90,0,2,,,,,,,,,0,,,46,0
108330,note_on,0,0,1,,,,,,,,,0,,,70,0
108330,note_on,0,0,1,,,,,,,,,0,,,64,0
108480,note_on,0,0,1,,,,,,,,,0,,,70,46
108480,note_on,0,0,2,,,,,,,,,0,,,62,47
108480,note_on,0,0,2,,,,,,,,,0,,,46,47
108480,note_on,150,0,2,,,,,,,,,0,,,53,47
108480,note_on,0,0,1,,,,,,,,,0,,,77,62
108480,note_on,150,0,1,,,,,,,,,0,,,65,46
108480,set_tempo,240,1,0,,,,,,1304348,,,,,,,
108720,set_tempo,240,1,0,,,,,,1428571,,,,,,,
108720,note_on,240,0,1,,,,,,,,,0,,,77,0
108720,note_on,0,0,2,,,,,,,,,0,,,58,46
108720,note_on,240,0,2,,,,,,,,,0,,,62,0
108720,note_on,0,0,1,,,,,,,,,0,,,74,58
108840,note_on,120,0,2,,,,,,,,,0,,,58,0
108840,note_on,120,0,1,,,,,,,,,0,,,74,0
108940,note_on,100,0,1,,,,,,,,,0,,,70,0
108940,note_on,0,0,1,,,,,,,,,0,,,65,0
108960,set_tempo,240,1,0,,,,,,909091,,,,,,,
108960,note_on,0,0,2,,,,,,,,,0,,,53,0
108960,note_on,120,0,2,,,,,,,,,0,,,46,0
108960,note_on,0,0,2,,,,,,,,,0,,,46,55
108996,note_on,36,0,2,,,,,,,,,0,,,46,0
108997,note_on,1,0,2,,,,,,,,,0,,,48,56
109033,note_on,36,0,2,,,,,,,,,0,,,48,0
109034,note_on,1,0,2,,,,,,,,,0,,,50,57
109070,note_on,36,0,2,,,,,,,,,0,,,50,0
109071,note_on,1,0,2,,,,,,,,,0,,,51,59
109107,note_on,36,0,2,,,,,,,,,0,,,51,0
109108,note_on,1,0,2,,,,,,,,,0,,,53,60
109144,note_on,36,0,2,,,,,,,,,0,,,53,0
109145,note_on,1,0,2,,,,,,,,,0,,,55,62
109181,note_on,36,0,2,,,,,,,,,0,,,55,0
109182,note_on,1,0,2,,,,,,,,,0,,,57,62
109218,note_on,36,0,2,,,,,,,,,0,,,57,0
109219,note_on,1,0,2,,,,,,,,,0,,,58,63
109255,note_on,36,0,2,,,,,,,,,0,,,58,0
109256,note_on,316,0,1,,,,,,,,,0,,,60,64
109292,note_on,36,0,1,,,,,,,,,0,,,60,0
109293,note_on,1,0,1,,,,,,,,,0,,,62,65
109329,note_on,36,0,1,,,,,,,,,0,,,62,0
109330,note_on,1,0,1,,,,,,,,,0,,,63,67
109366,note_on,36,0,1,,,,,,,,,0,,,63,0
109367,note_on,1,0,1,,,,,,,,,0,,,64,69
109403,note_on,36,0,1,,,,,,,,,0,,,64,0
109404,note_on,1,0,1,,,,,,,,,0,,,67,70
109439,note_on,35,0,1,,,,,,,,,0,,,67,0
109440,note_on,1,0,1,,,,,,,,,0,,,65,62
109440,set_tempo,480,1,0,,,,,,1445783,,,,,,,
109680,note_on,240,0,1,,,,,,,,,0,,,74,47
109680,note_on,425,0,2,,,,,,,,,0,,,53,39
109680,set_tempo,240,1,0,,,,,,1411765,,,,,,,
109680,note_on,0,0,1,,,,,,,,,0,,,68,41
109680,note_on,0,0,2,,,,,,,,,0,,,59,39
109920,note_on,0,0,1,,,,,,,,,0,,,74,0
109920,note_on,0,0,1,,,,,,,,,0,,,75,51
109920,note_on,0,0,2,,,,,,,,,0,,,53,41
109920,note_on,0,0,2,,,,,,,,,0,,,60,41
109920,note_on,240,0,2,,,,,,,,,0,,,59,0
109920,note_on,0,0,1,,,,,,,,,0,,,69,46
109920,note_on,240,0,1,,,,,,,,,0,,,68,0
109920,set_tempo,240,1,0,,,,,,1395349,,,,,,,
109920,note_on,0,0,2,,,,,,,,,0,,,53,0
110000,note_on,0,0,1,,,,,,,,,0,,,65,48
110000,note_on,80,0,1,,,,,,,,,0,,,65,0
110080,note_on,0,0,1,,,,,,,,,0,,,67,37
110080,note_on,80,0,1,,,,,,,,,0,,,65,0
110080,set_tempo,160,1,0,,,,,,1481481,,,,,,,
110160,note_on,0,0,2,,,,,,,,,0,,,57,36
110160,note_on,0,0,1,,,,,,,,,0,,,72,46
110160,note_on,0,0,1,,,,,,,,,0,,,69,0
110160,note_on,0,0,2,,,,,,,,,0,,,60,0
110160,note_on,0,0,2,,,,,,,,,0,,,65,41
110160,note_on,0,0,2,,,,,,,,,0,,,53,36
110160,note_on,0,0,1,,,,,,,,,0,,,75,0
110160,set_tempo,80,1,0,,,,,,1600000,,,,,,,
110160,note_on,0,0,1,,,,,,,,,0,,,63,48
110160,note_on,240,0,2,,,,,,,,,0,,,53,0
110160,note_on,80,0,1,,,,,,,,,0,,,67,0
110160,note_on,0,0,1,,,,,,,,,0,,,77,46
110240,set_tempo,80,1,0,,,,,,1643836,,,,,,,
110240,note_on,80,0,1,,,,,,,,,0,,,63,0
110240,note_on,0,0,1,,,,,,,,,0,,,60,44
110320,note_on,80,0,1,,,,,,,,,0,,,60,0
110320,note_on,0,0,1,,,,,,,,,0,,,62,43
110320,set_tempo,80,1,0,,,,,,2608696,,,,,,,
110340,note_on,180,0,2,,,,,,,,,0,,,46,36
110340,note_on,20,0,1,,,,,,,,,0,,,62,0
110350,note_on,10,0,2,,,,,,,,,0,,,53,36
110360,note_on,10,0,2,,,,,,,,,0,,,62,41
110370,note_on,30,0,1,,,,,,,,,0,,,58,36
110380,note_on,10,0,1,,,,,,,,,0,,,65,36
110390,note_on,10,0,1,,,,,,,,,0,,,70,36
110400,note_on,40,0,2,,,,,,,,,0,,,57,0
110400,note_on,0,0,2,,,,,,,,,0,,,53,0
110400,set_tempo,80,1,0,,,,,,1621622,,,,,,,
110400,note_on,0,0,2,,,,,,,,,0,,,65,0
110400,note_on,0,0,1,,,,,,,,,0,,,77,0
110400,note_on,0,0,1,,,,,,,,,0,,,74,43
110400,note_on,10,0,1,,,,,,,,,0,,,72,0
110860,set_tempo,460,1,0,,,,,,1121495,,,,,,,
110860,note_on,0,0,2,,,,,,,,,0,,,53,0
110860,note_on,0,0,1,,,,,,,,,0,,,58,0
110860,note_on,0,0,1,,,,,,,,,0,,,65,0
110860,note_on,460,0,2,,,,,,,,,0,,,46,0
110860,note_on,0,0,1,,,,,,,,,0,,,70,0
110860,note_on,0,0,2,,,,,,,,,0,,,62,0
110860,note_on,460,0,1,,,,,,,,,0,,,74,0
110880,set_tempo,20,1,0,,,,,,1061947,,,,,,,
110880,note_on,0,0,1,,,,,,,,,0,,,73,52
110880,note_on,0,0,1,,,,,,,,,0,,,82,52
110880,note_on,20,0,1,,,,,,,,,0,,,77,52
110888,control_change,28,0,2,,,,,,,,,0,64,127,,
110970,note_on,90,0,1,,,,,,,,,0,,,82,0
110970,note_on,0,0,1,,,,,,,,,0,,,73,0
110970,note_on,0,0,1,,,,,,,,,0,,,77,0
110970,note_on,0,0,1,,,,,,,,,0,,,81,43
111000,note_on,30,0,1,,,,,,,,,0,,,81,0
111000,note_on,0,0,1,,,,,,,,,0,,,72,43
111000,note_on,0,0,1,,,,,,,,,0,,,80,43
111000,set_tempo,120,1,0,,,,,,930233,,,,,,,
111040,set_tempo,40,1,0,,,,,,923077,,,,,,,
111045,note_on,45,0,1,,,,,,,,,0,,,72,0
111045,note_on,0,0,1,,,,,,,,,0,,,71,44
111045,note_on,0,0,1,,,,,,,,,0,,,74,44
111045,note_on,0,0,1,,,,,,,,,0,,,79,44
111045,note_on,0,0,1,,,,,,,,,0,,,80,0
111080,set_tempo,40,1,0,,,,,,916031,,,,,,,
111090,note_on,45,0,1,,,,,,,,,0,,,71,0
111090,note_on,0,0,1,,,,,,,,,0,,,70,46
111090,note_on,0,0,1,,,,,,,,,0,,,74,0
111090,note_on,0,0,1,,,,,,,,,0,,,79,0
111090,note_on,0,0,1,,,,,,,,,0,,,78,46
111099,control_change,211,0,2,,,,,,,,,0,64,0,,
111118,control_change,19,0,2,,,,,,,,,0,64,127,,
111120,set_tempo,40,1,0,,,,,,909091,,,,,,,
111135,note_on,0,0,1,,,,,,,,,0,,,72,47
111135,note_on,0,0,1,,,,,,,,,0,,,69,47
111135,note_on,0,0,1,,,,,,,,,0,,,78,0
111135,note_on,45,0,1,,,,,,,,,0,,,70,0
111135,note_on,0,0,1,,,,,,,,,0,,,77,47
111160,set_tempo,40,1,0,,,,,,902256,,,,,,,
111180,note_on,0,0,1,,,,,,,,,0,,,77,0
111180,note_on,0,0,1,,,,,,,,,0,,,76,48
111180,note_on,0,0,1,,,,,,,,,0,,,72,0
111180,note_on,0,0,1,,,,,,,,,0,,,68,48
111180,note_on,45,0,1,,,,,,,,,0,,,69,0
111200,set_tempo,40,1,0,,,,,,895522,,,,,,,
111225,note_on,0,0,1,,,,,,,,,0,,,67,49
111225,note_on,0,0,1,,,,,,,,,0,,,76,0
111225,note_on,0,0,1,,,,,,,,,0,,,75,49
111225,note_on,45,0,1,,,,,,,,,0,,,68,0
111225,note_on,0,0,1,,,,,,,,,0,,,70,49
111240,set_tempo,40,1,0,,,,,,888889,,,,,,,
111270,note_on,0,0,1,,,,,,,,,0,,,70,0
111270,note_on,0,0,1,,,,,,,,,0,,,74,51
111270,note_on,0,0,1,,,,,,,,,0,,,66,51
111270,note_on,0,0,1,,,,,,,,,0,,,75,0
111270,note_on,45,0,1,,,,,,,,,0,,,67,0
111280,set_tempo,40,1,0,,,,,,882353,,,,,,,
111315,note_on,0,0,1,,,,,,,,,0,,,68,52
111315,note_on,45,0,1,,,,,,,,,0,,,66,0
111315,note_on,0,0,1,,,,,,,,,0,,,65,52
111315,note_on,0,0,1,,,,,,,,,0,,,74,0
111315,note_on,0,0,1,,,,,,,,,0,,,73,52
111320,set_tempo,40,1,0,,,,,,875912,,,,,,,
111340,set_tempo,20,1,0,,,,,,869565,,,,,,,
111360,note_on,0,0,1,,,,,,,,,0,,,73,0
111360,note_on,0,0,1,,,,,,,,,0,,,72,54
111360,note_on,0,0,1,,,,,,,,,0,,,68,0
111360,set_tempo,20,1,0,,,,,,983607,,,,,,,
111360,note_on,45,0,1,,,,,,,,,0,,,65,0
111360,note_on,0,0,1,,,,,,,,,0,,,67,54
111360,note_on,0,0,1,,,,,,,,,0,,,64,54
111362,control_change,244,0,2,,,,,,,,,0,64,0,,
111420,note_on,0,0,1,,,,,,,,,0,,,67,0
111420,note_on,0,0,1,,,,,,,,,0,,,64,0
111420,note_on,60,0,1,,,,,,,,,0,,,72,0
111600,note_on,0,0,1,,,,,,,,,0,,,64,48
111600,note_on,0,0,1,,,,,,,,,0,,,58,42
111600,set_tempo,240,1,0,,,,,,930233,,,,,,,
111600,note_on,180,0,1,,,,,,,,,0,,,55,42
111600,note_on,238,0,2,,,,,,,,,0,,,48,57
111640,note_on,40,0,2,,,,,,,,,0,,,48,0
111640,note_on,0,0,2,,,,,,,,,0,,,49,59
111660,set_tempo,60,1,0,,,,,,923077,,,,,,,
111680,note_on,0,0,2,,,,,,,,,0,,,48,60
111680,note_on,40,0,2,,,,,,,,,0,,,49,0
111690,note_on,90,0,1,,,,,,,,,0,,,58,0
111690,note_on,0,0,1,,,,,,,,,0,,,64,0
111690,note_on,0,0,1,,,,,,,,,0,,,55,0
111720,note_on,40,0,2,,,,,,,,,0,,,48,0
111720,set_tempo,60,1,0,,,,,,916031,,,,,,,
111720,note_on,0,0,2,,,,,,,,,0,,,47,63
111760,note_on,40,0,2,,,,,,,,,0,,,47,0
111760,note_on,0,0,2,,,,,,,,,0,,,46,64
111780,set_tempo,60,1,0,,,,,,909091,,,,,,,
111800,note_on,40,0,2,,,,,,,,,0,,,46,0
111800,note_on,0,0,2,,,,,,,,,0,,,45,65
111820,set_tempo,40,1,0,,,,,,902256,,,,,,,
111840,note_on,0,0,1,,,,,,,,,0,,,56,46
111840,note_on,0,0,1,,,,,,,,,0,,,65,51
111840,note_on,150,0,1,,,,,,,,,0,,,61,46
111840,note_on,40,0,2,,,,,,,,,0,,,45,0
111840,set_tempo,20,1,0,,,,,,1043478,,,,,,,
111840,note_on,0,0,2,,,,,,,,,0,,,44,67
111930,note_on,0,0,1,,,,,,,,,0,,,61,0
111930,note_on,0,0,1,,,,,,,,,0,,,65,0
111930,note_on,90,0,2,,,,,,,,,0,,,44,0
111930,note_on,90,0,1,,,,,,,,,0,,,56,0
112080,note_on,0,0,1,,,,,,,,,0,,,68,48
112080,note_on,150,0,1,,,,,,,,,0,,,59,42
112080,note_on,150,0,2,,,,,,,,,0,,,41,58
112080,note_on,0,0,1,,,,,,,,,0,,,62,42
112080,set_tempo,240,1,0,,,,,,975610,,,,,,,
112100,set_tempo,20,1,0,,,,,,983607,,,,,,,
112114,note_on,34,0,2,,,,,,,,,0,,,41,0
112114,note_on,0,0,2,,,,,,,,,0,,,42,57
112120,set_tempo,20,1,0,,,,,,991736,,,,,,,
112140,set_tempo,20,1,0,,,,,,1000000,,,,,,,
112148,note_on,34,0,2,,,,,,,,,0,,,42,0
112148,note_on,0,0,2,,,,,,,,,0,,,41,56
112160,set_tempo,20,1,0,,,,,,1016949,,,,,,,
112170,note_on,90,0,1,,,,,,,,,0,,,68,0
112170,note_on,0,0,1,,,,,,,,,0,,,62,0
112170,note_on,0,0,1,,,,,,,,,0,,,59,0
112180,set_tempo,20,1,0,,,,,,1025641,,,,,,,
112182,note_on,34,0,2,,,,,,,,,0,,,41,0
112182,note_on,0,0,2,,,,,,,,,0,,,40,56
112200,set_tempo,20,1,0,,,,,,1034483,,,,,,,
112216,note_on,34,0,2,,,,,,,,,0,,,40,0
112216,note_on,0,0,2,,,,,,,,,0,,,39,55
112220,set_tempo,20,1,0,,,,,,1043478,,,,,,,
112240,set_tempo,20,1,0,,,,,,1061947,,,,,,,
112250,note_on,34,0,2,,,,,,,,,0,,,39,0
112250,note_on,0,0,2,,,,,,,,,0,,,38,54
112280,set_tempo,40,1,0,,,,,,1290323,,,,,,,
112285,note_on,35,0,2,,,,,,,,,0,,,38,0
112285,note_on,0,0,2,,,,,,,,,0,,,37,52
112320,note_on,0,0,1,,,,,,,,,0,,,64,42
112320,set_tempo,40,1,0,,,,,,1165049,,,,,,,
112320,note_on,0,0,2,,,,,,,,,0,,,36,51
112320,note_on,35,0,2,,,,,,,,,0,,,37,0
112320,note_on,150,0,1,,,,,,,,,0,,,67,48
112560,note_on,240,0,2,,,,,,,,,0,,,36,0
112560,note_on,240,0,1,,,,,,,,,0,,,64,0
112560,note_on,0,0,1,,,,,,,,,0,,,67,0
112560,set_tempo,240,1,0,,,,,,1237113,,,,,,,
112560,note_on,0,0,1,,,,,,,,,0,,,55,36
112560,note_on,0,0,2,,,,,,,,,0,,,52,44
112560,note_on,0,0,1,,,,,,,,,0,,,60,41
112650,note_on,0,0,1,,,,,,,,,0,,,55,0
112650,note_on,90,0,2,,,,,,,,,0,,,52,0
112650,note_on,90,0,1,,,,,,,,,0,,,60,0
112800,note_on,150,0,1,,,,,,,,,0,,,89,56
112800,note_on,0,0,1,,,,,,,,,0,,,94,56
112800,set_tempo,240,1,0,,,,,,1061947,,,,,,,
112800,note_on,0,0,1,,,,,,,,,0,,,85,56
112806,control_change,156,0,2,,,,,,,,,0,64,127,,
112890,note_on,0,0,1,,,,,,,,,0,,,93,46
112890,note_on,0,0,1,,,,,,,,,0,,,85,0
112890,note_on,90,0,1,,,,,,,,,0,,,94,0
112890,note_on,0,0,1,,,,,,,,,0,,,89,0
112920,note_on,0,0,1,,,,,,,,,0,,,92,47
112920,set_tempo,120,1,0,,,,,,895522,,,,,,,
112920,note_on,0,0,1,,,,,,,,,0,,,84,47
112920,note_on,30,0,1,,,,,,,,,0,,,93,0
112965,note_on,0,0,1,,,,,,,,,0,,,92,0
112965,note_on,0,0,1,,,,,,,,,0,,,91,48
112965,note_on,0,0,1,,,,,,,,,0,,,86,48
112965,note_on,0,0,1,,,,,,,,,0,,,83,48
112965,note_on,45,0,1,,,,,,,,,0,,,84,0
112980,set_tempo,60,1,0,,,,,,888889,,,,,,,
113010,note_on,0,0,1,,,,,,,,,0,,,90,49
113010,note_on,0,0,1,,,,,,,,,0,,,86,0
113010,note_on,45,0,1,,,,,,,,,0,,,83,0
113010,note_on,0,0,1,,,,,,,,,0,,,82,49
113010,note_on,0,0,1,,,,,,,,,0,,,91,0
113024,control_change,218,0,2,,,,,,,,,0,64,0,,
113035,control_change,11,0,2,,,,,,,,,0,64,127,,
113040,set_tempo,60,1,0,,,,,,882353,,,,,,,
113055,note_on,45,0,1,,,,,,,,,0,,,82,0
113055,note_on,0,0,1,,,,,,,,,0,,,81,50
113055,note_on,0,0,1,,,,,,,,,0,,,90,0
113055,note_on,0,0,1,,,,,,,,,0,,,89,50
113055,note_on,0,0,1,,,,,,,,,0,,,84,50
113100,note_on,45,0,1,,,,,,,,,0,,,81,0
113100,note_on,0,0,1,,,,,,,,,0,,,89,0
113100,note_on,0,0,1,,,,,,,,,0,,,84,0
113100,note_on,0,0,1,,,,,,,,,0,,,80,51
113100,note_on,0,0,1,,,,,,,,,0,,,88,51
113100,set_tempo,60,1,0,,,,,,875912,,,,,,,
113145,note_on,0,0,1,,,,,,,,,0,,,82,52
113145,note_on,0,0,1,,,,,,,,,0,,,88,0
113145,note_on,0,0,1,,,,,,,,,0,,,79,52
113145,note_on,0,0,1,,,,,,,,,0,,,87,52
113145,note_on,45,0,1,,,,,,,,,0,,,80,0
113160,set_tempo,60,1,0,,,,,,869565,,,,,,,
113190,note_on,0,0,1,,,,,,,,,0,,,82,0
113190,note_on,0,0,1,,,,,,,,,0,,,78,55
113190,note_on,45,0,1,,,,,,,,,0,,,79,0
113190,note_on,0,0,1,,,,,,,,,0,,,87,0
113190,note_on,0,0,1,,,,,,,,,0,,,86,55
113220,set_tempo,60,1,0,,,,,,863309,,,,,,,
113235,note_on,0,0,1,,,,,,,,,0,,,86,0
113235,note_on,0,0,1,,,,,,,,,0,,,80,56
113235,note_on,0,0,1,,,,,,,,,0,,,77,56
113235,note_on,0,0,1,,,,,,,,,0,,,85,56
113235,note_on,45,0,1,,,,,,,,,0,,,78,0
113260,set_tempo,40,1,0,,,,,,857143,,,,,,,
113280,note_on,0,0,1,,,,,,,,,0,,,85,0
113280,note_on,45,0,1,,,,,,,,,0,,,77,0
113280,note_on,0,0,1,,,,,,,,,0,,,76,57
113280,note_on,0,0,1,,,,,,,,,0,,,79,57
113280,note_on,0,0,1,,,,,,,,,0,,,80,0
113280,note_on,0,0,1,,,,,,,,,0,,,84,57
113280,set_tempo,20,1,0,,,,,,975610,,,,,,,
113286,control_change,251,0,2,,,,,,,,,0,64,0,,
113340,note_on,0,0,1,,,,,,,,,0,,,79,0
113340,note_on,0,0,1,,,,,,,,,0,,,76,0
113340,note_on,60,0,1,,,,,,,,,0,,,84,0
113520,note_on,0,0,2,,,,,,,,,0,,,60,57
113520,set_tempo,240,1,0,,,,,,930233,,,,,,,
113520,note_on,234,0,2,,,,,,,,,0,,,48,57
113520,note_on,180,0,1,,,,,,,,,0,,,64,42
113520,note_on,0,0,1,,,,,,,,,0,,,70,42
113520,note_on,0,0,1,,,,,,,,,0,,,76,48
113520,note_on,0,0,1,,,,,,,,,0,,,67,42
113560,note_on,0,0,2,,,,,,,,,0,,,61,59
113560,note_on,40,0,2,,,,,,,,,0,,,60,0
113580,set_tempo,60,1,0,,,,,,923077,,,,,,,
113600,note_on,0,0,2,,,,,,,,,0,,,60,60
113600,note_on,40,0,2,,,,,,,,,0,,,61,0
113610,note_on,0,0,1,,,,,,,,,0,,,67,0
113610,note_on,90,0,1,,,,,,,,,0,,,70,0
113610,note_on,0,0,1,,,,,,,,,0,,,76,0
113610,note_on,0,0,1,,,,,,,,,0,,,64,0
113640,set_tempo,60,1,0,,,,,,916031,,,,,,,
113640,note_on,40,0,2,,,,,,,,,0,,,60,0
113640,note_on,0,0,2,,,,,,,,,0,,,59,63
113680,note_on,40,0,2,,,,,,,,,0,,,59,0
113680,note_on,0,0,2,,,,,,,,,0,,,58,64
113700,set_tempo,60,1,0,,,,,,909091,,,,,,,
113720,note_on,0,0,2,,,,,,,,,0,,,57,65
113720,note_on,40,0,2,,,,,,,,,0,,,58,0
113740,set_tempo,40,1,0,,,,,,902256,,,,,,,
113760,note_on,0,0,1,,,,,,,,,0,,,77,52
113760,note_on,150,0,1,,,,,,,,,0,,,65,47
113760,note_on,0,0,2,,,,,,,,,0,,,44,60
113760,note_on,0,0,2,,,,,,,,,0,,,48,0
113760,note_on,0,0,2,,,,,,,,,0,,,56,67
113760,note_on,40,0,2,,,,,,,,,0,,,57,0
113760,set_tempo,20,1,0,,,,,,1008403,,,,,,,
113760,note_on,0,0,1,,,,,,,,,0,,,73,47
113760,note_on,0,0,1,,,,,,,,,0,,,68,47
113850,note_on,0,0,1,,,,,,,,,0,,,73,0
113850,note_on,0,0,1,,,,,,,,,0,,,77,0
113850,note_on,0,0,1,,,,,,,,,0,,,65,0
113850,note_on,0,0,2,,,,,,,,,0,,,44,0
113850,note_on,90,0,1,,,,,,,,,0,,,68,0
113850,note_on,90,0,2,,,,,,,,,0,,,56,0
114000,note_on,0,0,1,,,,,,,,,0,,,71,42
114000,note_on,0,0,1,,,,,,,,,0,,,80,48
114000,note_on,0,0,1,,,,,,,,,0,,,74,42
114000,note_on,150,0,1,,,,,,,,,0,,,68,42
114000,note_on,150,0,2,,,,,,,,,0,,,41,58
114000,note_on,0,0,2,,,,,,,,,0,,,53,58
114000,set_tempo,240,1,0,,,,,,1043478,,,,,,,
114034,note_on,0,0,2,,,,,,,,,0,,,54,57
114034,note_on,34,0,2,,,,,,,,,0,,,53,0
114040,set_tempo,40,1,0,,,,,,1052632,,,,,,,
114060,set_tempo,20,1,0,,,,,,1061947,,,,,,,
114068,note_on,0,0,2,,,,,,,,,0,,,53,56
114068,note_on,34,0,2,,,,,,,,,0,,,54,0
114090,note_on,0,0,1,,,,,,,,,0,,,68,0
114090,note_on,0,0,1,,,,,,,,,0,,,71,0
114090,note_on,0,0,1,,,,,,,,,0,,,74,0
114090,note_on,90,0,1,,,,,,,,,0,,,80,0
114100,set_tempo,40,1,0,,,,,,1071429,,,,,,,
114102,note_on,34,0,2,,,,,,,,,0,,,53,0
114102,note_on,0,0,2,,,,,,,,,0,,,52,56
114120,set_tempo,20,1,0,,,,,,1081081,,,,,,,
114136,note_on,0,0,2,,,,,,,,,0,,,51,55
114136,note_on,34,0,2,,,,,,,,,0,,,52,0
114160,set_tempo,40,1,0,,,,,,1090909,,,,,,,
114170,note_on,0,0,2,,,,,,,,,0,,,50,54
114170,note_on,34,0,2,,,,,,,,,0,,,51,0
114180,set_tempo,20,1,0,,,,,,1100917,,,,,,,
114200,set_tempo,20,1,0,,,,,,1237113,,,,,,,
114205,note_on,0,0,2,,,,,,,,,0,,,49,52
114205,note_on,35,0,2,,,,,,,,,0,,,50,0
114240,note_on,0,0,2,,,,,,,,,0,,,41,0
114240,note_on,150,0,1,,,,,,,,,0,,,67,42
114240,note_on,0,0,2,,,,,,,,,0,,,36,46
114240,note_on,35,0,2,,,,,,,,,0,,,49,0
114240,note_on,0,0,1,,,,,,,,,0,,,79,48
114240,set_tempo,40,1,0,,,,,,1165049,,,,,,,
114240,note_on,0,0,1,,,,,,,,,0,,,76,42
114240,note_on,0,0,2,,,,,,,,,0,,,48,51
114480,note_on,0,0,2,,,,,,,,,0,,,55,40
114480,note_on,0,0,2,,,,,,,,,0,,,64,44
114480,note_on,0,0,2,,,,,,,,,0,,,36,0
114480,note_on,0,0,1,,,,,,,,,0,,,67,0
114480,note_on,0,0,1,,,,,,,,,0,,,72,41
114480,note_on,0,0,1,,,,,,,,,0,,,79,0
114480,note_on,240,0,1,,,,,,,,,0,,,76,0
114480,set_tempo,240,1,0,,,,,,1276596,,,,,,,
114480,note_on,240,0,2,,,,,,,,,0,,,48,0
114570,note_on,90,0,2,,,,,,,,,0,,,64,0
114570,note_on,0,0,2,,,,,,,,,0,,,55,0
114570,note_on,90,0,1,,,,,,,,,0,,,72,0
114720,note_on,150,0,1,,,,,,,,,0,,,68,56
114720,note_on,150,0,2,,,,,,,,,0,,,72,56
114720,note_on,0,0,2,,,,,,,,,0,,,80,56
114720,note_on,0,0,1,,,,,,,,,0,,,65,56
114720,set_tempo,240,1,0,,,,,,944882,,,,,,,
114731,control_change,11,0,2,,,,,,,,,0,64,127,,
114768,note_on,37,0,2,,,,,,,,,0,,,80,0
114768,note_on,0,0,1,,,,,,,,,0,,,64,50
114768,note_on,0,0,2,,,,,,,,,0,,,79,54
114768,note_on,48,0,1,,,,,,,,,0,,,65,0
114816,note_on,0,0,2,,,,,,,,,0,,,78,55
114816,note_on,48,0,2,,,,,,,,,0,,,79,0
114816,note_on,48,0,1,,,,,,,,,0,,,64,0
114816,note_on,0,0,1,,,,,,,,,0,,,63,51
114820,set_tempo,100,1,0,,,,,,923077,,,,,,,
114840,set_tempo,20,1,0,,,,,,895522,,,,,,,
114864,note_on,0,0,2,,,,,,,,,0,,,77,56
114864,note_on,0,0,1,,,,,,,,,0,,,62,52
114864,note_on,48,0,1,,,,,,,,,0,,,63,0
114864,note_on,48,0,2,,,,,,,,,0,,,78,0
114880,set_tempo,40,1,0,,,,,,888889,,,,,,,
114912,note_on,0,0,2,,,,,,,,,0,,,76,58
114912,note_on,48,0,1,,,,,,,,,0,,,62,0
114912,note_on,0,0,1,,,,,,,,,0,,,61,55
114912,note_on,48,0,2,,,,,,,,,0,,,77,0
114920,set_tempo,40,1,0,,,,,,882353,,,,,,,
114958,control_change,46,0,2,,,,,,,,,0,64,0,,
114960,note_on,2,0,2,,,,,,,,,0,,,76,0
114960,note_on,0,0,1,,,,,,,,,0,,,60,56
114960,note_on,48,0,1,,,,,,,,,0,,,61,0
114960,set_tempo,40,1,0,,,,,,875912,,,,,,,
114960,note_on,0,0,2,,,,,,,,,0,,,75,60
114971,control_change,11,0,2,,,,,,,,,0,64,127,,
114980,set_tempo,20,1,0,,,,,,869565,,,,,,,
115008,note_on,0,0,2,,,,,,,,,0,,,74,62
115008,note_on,0,0,1,,,,,,,,,0,,,59,57
115008,note_on,37,0,2,,,,,,,,,0,,,75,0
115008,note_on,48,0,1,,,,,,,,,0,,,60,0
115020,set_tempo,40,1,0,,,,,,863309,,,,,,,
115056,note_on,0,0,2,,,,,,,,,0,,,73,63
115056,note_on,48,0,1,,,,,,,,,0,,,59,0
115056,note_on,0,0,1,,,,,,,,,0,,,58,59
115056,note_on,48,0,2,,,,,,,,,0,,,74,0
115060,set_tempo,40,1,0,,,,,,857143,,,,,,,
115080,set_tempo,20,1,0,,,,,,851064,,,,,,,
115104,note_on,0,0,2,,,,,,,,,0,,,72,65
115104,note_on,48,0,1,,,,,,,,,0,,,58,0
115104,note_on,48,0,2,,,,,,,,,0,,,73,0
115104,note_on,0,0,1,,,,,,,,,0,,,57,60
115120,set_tempo,40,1,0,,,,,,845070,,,,,,,
115152,note_on,0,0,2,,,,,,,,,0,,,71,66
115152,note_on,48,0,1,,,,,,,,,0,,,57,0
115152,note_on,0,0,1,,,,,,,,,0,,,56,62
115152,note_on,48,0,2,,,,,,,,,0,,,72,0
115160,set_tempo,40,1,0,,,,,,839161,,,,,,,
115180,set_tempo,20,1,0,,,,,,833333,,,,,,,
115200,note_on,0,0,1,,,,,,,,,0,,,62,64
115200,note_on,0,0,2,,,,,,,,,0,,,70,69
115200,note_on,0,0,2,,,,,,,,,0,,,72,0
115200,note_on,48,0,2,,,,,,,,,0,,,71,0
115200,note_on,48,0,1,,,,,,,,,0,,,56,0
115200,note_on,0,0,2,,,,,,,,,0,,,68,69
115200,note_on,0,0,1,,,,,,,,,0,,,65,64
115200,note_on,0,0,1,,,,,,,,,0,,,68,0
115200,set_tempo,20,1,0,,,,,,983607,,,,,,,
115210,control_change,10,0,2,,,,,,,,,0,64,0,,
115260,note_on,0,0,2,,,,,,,,,0,,,70,0
115260,note_on,60,0,1,,,,,,,,,0,,,65,0
115260,note_on,50,0,2,,,,,,,,,0,,,68,0
115260,note_on,0,0,1,,,,,,,,,0,,,62,0
115440,note_on,0,0,1,,,,,,,,,0,,,56,46
115440,set_tempo,240,1,0,,,,,,930233,,,,,,,
115440,note_on,180,0,1,,,,,,,,,0,,,53,46
115440,note_on,180,0,2,,,,,,,,,0,,,46,57
115440,note_on,0,0,1,,,,,,,,,0,,,62,51
115480,note_on,0,0,2,,,,,,,,,0,,,47,59
115480,note_on,40,0,2,,,,,,,,,0,,,46,0
115500,set_tempo,60,1,0,,,,,,923077,,,,,,,
115520,note_on,40,0,2,,,,,,,,,0,,,47,0
115520,note_on,0,0,2,,,,,,,,,0,,,46,60
115530,note_on,0,0,1,,,,,,,,,0,,,53,0
115530,note_on,0,0,1,,,,,,,,,0,,,62,0
115530,note_on,90,0,1,,,,,,,,,0,,,56,0
115560,note_on,40,0,2,,,,,,,,,0,,,46,0
115560,note_on,0,0,2,,,,,,,,,0,,,45,63
115560,set_tempo,60,1,0,,,,,,916031,,,,,,,
115600,note_on,40,0,2,,,,,,,,,0,,,45,0
115600,note_on,0,0,2,,,,,,,,,0,,,44,64
115620,set_tempo,60,1,0,,,,,,909091,,,,,,,
115640,note_on,0,0,2,,,,,,,,,0,,,43,65
115640,note_on,40,0,2,,,,,,,,,0,,,44,0
115660,set_tempo,40,1,0,,,,,,902256,,,,,,,
115680,note_on,40,0,2,,,,,,,,,0,,,43,0
115680,note_on,150,0,1,,,,,,,,,0,,,59,51
115680,note_on,0,0,2,,,,,,,,,0,,,42,67
115680,note_on,0,0,1,,,,,,,,,0,,,54,51
115680,note_on,0,0,1,,,,,,,,,0,,,63,57
115680,set_tempo,20,1,0,,,,,,952381,,,,,,,
115770,note_on,90,0,2,,,,,,,,,0,,,42,0
115770,note_on,90,0,1,,,,,,,,,0,,,54,0
115770,note_on,0,0,1,,,,,,,,,0,,,59,0
115770,note_on,0,0,1,,,,,,,,,0,,,63,0
115920,note_on,150,0,2,,,,,,,,,0,,,39,64
115920,set_tempo,240,1,0,,,,,,1008403,,,,,,,
115920,note_on,150,0,1,,,,,,,,,0,,,57,47
115920,note_on,0,0,1,,,,,,,,,0,,,60,47
115920,note_on,0,0,1,,,,,,,,,0,,,66,52
115954,note_on,34,0,2,,,,,,,,,0,,,39,0
115954,note_on,0,0,2,,,,,,,,,0,,,40,64
115960,set_tempo,40,1,0,,,,,,1016949,,,,,,,
115988,note_on,0,0,2,,,,,,,,,0,,,39,63
115988,note_on,34,0,2,,,,,,,,,0,,,40,0
116000,set_tempo,40,1,0,,,,,,1025641,,,,,,,
116010,note_on,0,0,1,,,,,,,,,0,,,60,0
116010,note_on,90,0,1,,,,,,,,,0,,,66,0
116010,note_on,0,0,1,,,,,,,,,0,,,57,0
116020,set_tempo,20,1,0,,,,,,1034483,,,,,,,
116022,note_on,0,0,2,,,,,,,,,0,,,38,62
116022,note_on,34,0,2,,,,,,,,,0,,,39,0
116056,note_on,34,0,2,,,,,,,,,0,,,38,0
116056,note_on,0,0,2,,,,,,,,,0,,,37,62
116060,set_tempo,40,1,0,,,,,,1043478,,,,,,,
116090,note_on,0,0,2,,,,,,,,,0,,,36,60
116090,note_on,34,0,2,,,,,,,,,0,,,37,0
116100,set_tempo,40,1,0,,,,,,1052632,,,,,,,
116120,set_tempo,20,1,0,,,,,,1276596,,,,,,,
116125,note_on,0,0,2,,,,,,,,,0,,,35,60
116125,note_on,35,0,2,,,,,,,,,0,,,36,0
116140,set_tempo,20,1,0,,,,,,1034483,,,,,,,
116160,set_tempo,20,1,0,,,,,,1176471,,,,,,,
116160,note_on,0,0,1,,,,,,,,,0,,,62,51
116160,note_on,35,0,2,,,,,,,,,0,,,35,0
116160,note_on,150,0,1,,,,,,,,,0,,,65,57
116160,note_on,0,0,2,,,,,,,,,0,,,34,59
116400,note_on,0,0,1,,,,,,,,,0,,,65,0
116400,note_on,0,0,1,,,,,,,,,0,,,53,43
116400,set_tempo,240,1,0,,,,,,1333333,,,,,,,
116400,note_on,0,0,1,,,,,,,,,0,,,58,49
116400,note_on,0,0,2,,,,,,,,,0,,,50,55
116400,note_on,240,0,2,,,,,,,,,0,,,34,0
116400,note_on,240,0,1,,,,,,,,,0,,,62,0
116490,note_on,0,0,1,,,,,,,,,0,,,53,0
116490,note_on,90,0,2,,,,,,,,,0,,,50,0
116490,note_on,90,0,1,,,,,,,,,0,,,58,0
116640,note_on,150,0,2,,,,,,,,,0,,,71,56
116640,note_on,0,0,1,,,,,,,,,0,,,64,56
116640,note_on,0,0,2,,,,,,,,,0,,,80,56
116640,note_on,150,0,1,,,,,,,,,0,,,68,56
116640,set_tempo,240,1,0,,,,,,909091,,,,,,,
116645,control_change,5,0,2,,,,,,,,,0,64,127,,
116688,note_on,43,0,2,,,,,,,,,0,,,80,0
116688,note_on,48,0,1,,,,,,,,,0,,,64,0
116688,note_on,0,0,1,,,,,,,,,0,,,63,50
116688,note_on,0,0,2,,,,,,,,,0,,,79,54
116736,note_on,0,0,1,,,,,,,,,0,,,62,51
116736,note_on,48,0,2,,,,,,,,,0,,,79,0
116736,note_on,48,0,1,,,,,,,,,0,,,63,0
116736,note_on,0,0,2,,,,,,,,,0,,,78,55
116740,set_tempo,100,1,0,,,,,,902256,,,,,,,
116784,note_on,0,0,2,,,,,,,,,0,,,77,56
116784,note_on,48,0,2,,,,,,,,,0,,,78,0
116784,note_on,0,0,1,,,,,,,,,0,,,61,52
116784,note_on,48,0,1,,,,,,,,,0,,,62,0
116832,note_on,48,0,1,,,,,,,,,0,,,61,0
116832,note_on,0,0,2,,,,,,,,,0,,,76,58
116832,note_on,0,0,1,,,,,,,,,0,,,60,55
116832,note_on,48,0,2,,,,,,,,,0,,,77,0
116840,set_tempo,100,1,0,,,,,,895522,,,,,,,
116874,control_change,42,0,2,,,,,,,,,0,64,0,,
116880,note_on,0,0,1,,,,,,,,,0,,,59,56
116880,note_on,48,0,1,,,,,,,,,0,,,60,0
116880,note_on,0,0,2,,,,,,,,,0,,,75,60
116880,note_on,6,0,2,,,,,,,,,0,,,76,0
116883,control_change,3,0,2,,,,,,,,,0,64,127,,
116920,set_tempo,80,1,0,,,,,,888889,,,,,,,
116928,note_on,45,0,2,,,,,,,,,0,,,75,0
116928,note_on,48,0,1,,,,,,,,,0,,,59,0
116928,note_on,0,0,2,,,,,,,,,0,,,74,62
116928,note_on,0,0,1,,,,,,,,,0,,,58,57
116976,note_on,48,0,1,,,,,,,,,0,,,58,0
116976,note_on,48,0,2,,,,,,,,,0,,,74,0
116976,note_on,0,0,1,,,,,,,,,0,,,57,59
116976,note_on,0,0,2,,,,,,,,,0,,,73,63
117020,set_tempo,100,1,0,,,,,,882353,,,,,,,
117024,note_on,0,0,2,,,,,,,,,0,,,72,65
117024,note_on,0,0,1,,,,,,,,,0,,,56,60
117024,note_on,48,0,2,,,,,,,,,0,,,73,0
117024,note_on,48,0,1,,,,,,,,,0,,,57,0
117072,note_on,48,0,1,,,,,,,,,0,,,56,0
117072,note_on,0,0,2,,,,,,,,,0,,,71,66
117072,note_on,0,0,1,,,,,,,,,0,,,59,62
117072,note_on,48,0,2,,,,,,,,,0,,,72,0
117100,set_tempo,80,1,0,,,,,,875912,,,,,,,
117115,control_change,43,0,2,,,,,,,,,0,64,0,,
117120,note_on,5,0,2,,,,,,,,,0,,,71,0
117120,note_on,0,0,1,,,,,,,,,0,,,62,64
117120,note_on,0,0,1,,,,,,,,,0,,,68,0
117120,note_on,0,0,2,,,,,,,,,0,,,71,0
117120,note_on,0,0,1,,,,,,,,,0,,,65,64
117120,set_tempo,20,1,0,,,,,,983607,,,,,,,
117120,note_on,0,0,2,,,,,,,,,0,,,70,69
117120,note_on,0,0,2,,,,,,,,,0,,,68,69
117120,note_on,48,0,1,,,,,,,,,0,,,59,0
117180,note_on,0,0,2,,,,,,,,,0,,,70,0
117180,note_on,60,0,2,,,,,,,,,0,,,68,0
117180,note_on,0,0,1,,,,,,,,,0,,,62,0
117180,note_on,60,0,1,,,,,,,,,0,,,65,0
117330,note_on,150,0,2,,,,,,,,,0,,,46,59
117360,note_on,0,0,1,,,,,,,,,0,,,65,51
117360,set_tempo,240,1,0,,,,,,1025641,,,,,,,
117360,note_on,180,0,1,,,,,,,,,0,,,62,51
117360,note_on,0,0,1,,,,,,,,,0,,,74,58
117360,note_on,30,0,2,,,,,,,,,0,,,58,66
117360,note_on,0,0,1,,,,,,,,,0,,,68,51
117400,note_on,0,0,2,,,,,,,,,0,,,59,67
117400,note_on,40,0,2,,,,,,,,,0,,,58,0
117440,note_on,0,0,2,,,,,,,,,0,,,58,69
117440,note_on,40,0,2,,,,,,,,,0,,,59,0
117450,note_on,0,0,1,,,,,,,,,0,,,62,0
117450,note_on,0,0,1,,,,,,,,,0,,,74,0
117450,note_on,90,0,1,,,,,,,,,0,,,68,0
117450,note_on,0,0,1,,,,,,,,,0,,,65,0
117480,note_on,0,0,2,,,,,,,,,0,,,57,69
117480,note_on,40,0,2,,,,,,,,,0,,,58,0
117520,note_on,0,0,2,,,,,,,,,0,,,56,70
117520,note_on,40,0,2,,,,,,,,,0,,,57,0
117560,note_on,0,0,2,,,,,,,,,0,,,55,71
117560,note_on,40,0,2,,,,,,,,,0,,,56,0
117600,note_on,40,0,2,,,,,,,,,0,,,55,0
117600,set_tempo,240,1,0,,,,,,991736,,,,,,,
117600,note_on,0,0,1,,,,,,,,,0,,,66,67
117600,note_on,0,0,1,,,,,,,,,0,,,71,67
117600,note_on,0,0,2,,,,,,,,,0,,,54,71
117600,note_on,0,0,2,,,,,,,,,0,,,46,0
117600,note_on,0,0,2,,,,,,,,,0,,,42,63
117600,note_on,0,0,1,,,,,,,,,0,,,75,75
117600,note_on,150,0,1,,,,,,,,,0,,,63,67
117690,note_on,0,0,2,,,,,,,,,0,,,42,0
117690,note_on,0,0,1,,,,,,,,,0,,,63,0
117690,note_on,0,0,1,,,,,,,,,0,,,71,0
117690,note_on,0,0,1,,,,,,,,,0,,,75,0
117690,note_on,90,0,1,,,,,,,,,0,,,66,0
117690,note_on,90,0,2,,,,,,,,,0,,,54,0
117810,note_on,120,0,2,,,,,,,,,0,,,39,64
117840,note_on,0,0,1,,,,,,,,,0,,,69,67
117840,note_on,0,0,1,,,,,,,,,0,,,72,67
117840,note_on,30,0,2,,,,,,,,,0,,,51,72
117840,note_on,0,0,1,,,,,,,,,0,,,78,75
117840,set_tempo,240,1,0,,,,,,1034483,,,,,,,
117840,note_on,150,0,1,,,,,,,,,0,,,66,67
117860,set_tempo,20,1,0,,,,,,1043478,,,,,,,
117874,note_on,0,0,2,,,,,,,,,0,,,53,72
117874,note_on,34,0,2,,,,,,,,,0,,,51,0
117880,set_tempo,20,1,0,,,,,,1052632,,,,,,,
117900,set_tempo,20,1,0,,,,,,1061947,,,,,,,
117908,note_on,34,0,2,,,,,,,,,0,,,53,0
117908,note_on,0,0,2,,,,,,,,,0,,,51,72
117920,set_tempo,20,1,0,,,,,,1071429,,,,,,,
117930,note_on,90,0,1,,,,,,,,,0,,,78,0
117930,note_on,0,0,1,,,,,,,,,0,,,72,0
117930,note_on,0,0,1,,,,,,,,,0,,,69,0
117930,note_on,0,0,1,,,,,,,,,0,,,66,0
117940,set_tempo,20,1,0,,,,,,1081081,,,,,,,
117942,note_on,0,0,2,,,,,,,,,0,,,50,72
117942,note_on,34,0,2,,,,,,,,,0,,,51,0
117960,set_tempo,20,1,0,,,,,,1090909,,,,,,,
117976,note_on,34,0,2,,,,,,,,,0,,,50,0
117976,note_on,0,0,2,,,,,,,,,0,,,49,72
117980,set_tempo,20,1,0,,,,,,1100917,,,,,,,
118000,set_tempo,20,1,0,,,,,,1111111,,,,,,,
118010,note_on,34,0,2,,,,,,,,,0,,,49,0
118010,note_on,0,0,2,,,,,,,,,0,,,48,72
118020,set_tempo,20,1,0,,,,,,1132075,,,,,,,
118040,set_tempo,20,1,0,,,,,,1304348,,,,,,,
118045,note_on,35,0,2,,,,,,,,,0,,,48,0
118045,note_on,0,0,2,,,,,,,,,0,,,47,72
118055,note_on,10,0,2,,,,,,,,,0,,,34,77
118060,note_on,5,0,2,,,,,,,,,0,,,46,86
118065,note_on,135,0,1,,,,,,,,,0,,,65,71
118070,note_on,5,0,1,,,,,,,,,0,,,70,71
118075,note_on,5,0,1,,,,,,,,,0,,,74,71
118080,note_on,0,0,2,,,,,,,,,0,,,39,0
118080,note_on,20,0,2,,,,,,,,,0,,,47,0
118080,note_on,5,0,1,,,,,,,,,0,,,82,88
118080,set_tempo,40,1,0,,,,,,1333333,,,,,,,
118320,note_on,0,0,1,,,,,,,,,0,,,74,0
118320,note_on,0,0,1,,,,,,,,,0,,,65,0
118320,note_on,0,0,2,,,,,,,,,0,,,50,65
118320,note_on,0,0,1,,,,,,,,,0,,,58,73
118320,note_on,0,0,2,,,,,,,,,0,,,53,73
118320,note_on,240,0,1,,,,,,,,,0,,,82,0
118320,note_on,0,0,1,,,,,,,,,0,,,70,0
118320,note_on,240,0,2,,,,,,,,,0,,,34,0
118410,note_on,90,0,1,,,,,,,,,0,,,58,0
118410,note_on,90,0,2,,,,,,,,,0,,,50,0
118410,note_on,0,0,2,,,,,,,,,0,,,53,0
118540,note_on,130,0,2,,,,,,,,,0,,,46,0
118560,note_on,20,0,2,,,,,,,,,0,,,70,80
118560,set_tempo,480,1,0,,,,,,1395349,,,,,,,
118560,marker,0,1,0,,,,,,,,,,,,,
118560,note_on,0,0,2,,,,,,,,,0,,,82,89
118571,control_change,11,0,2,,,,,,,,,0,64,127,,
118600,note_on,29,0,2,,,,,,,,,0,,,70,0
118620,note_on,20,0,2,,,,,,,,,0,,,82,0
118620,note_on,210,0,1,,,,,,,,,0,,,81,70
118620,note_on,0,0,1,,,,,,,,,0,,,93,78
118640,note_on,0,0,1,,,,,,,,,0,,,81,0
118640,note_on,0,0,2,,,,,,,,,0,,,80,77
118640,set_tempo,80,1,0,,,,,,930233,,,,,,,
118640,note_on,20,0,2,,,,,,,,,0,,,68,77
118640,note_on,20,0,1,,,,,,,,,0,,,93,0
118680,set_tempo,40,1,0,,,,,,923077,,,,,,,
118680,note_on,40,0,1,,,,,,,,,0,,,91,79
118680,note_on,0,0,1,,,,,,,,,0,,,79,71
118691,note_on,51,0,2,,,,,,,,,0,,,80,0
118691,note_on,0,0,2,,,,,,,,,0,,,68,0
118720,set_tempo,40,1,0,,,,,,916031,,,,,,,
118720,note_on,0,0,2,,,,,,,,,0,,,78,79
118720,note_on,29,0,2,,,,,,,,,0,,,66,71
118732,note_on,0,0,1,,,,,,,,,0,,,91,0
118732,note_on,52,0,1,,,,,,,,,0,,,79,0
118760,note_on,0,0,1,,,,,,,,,0,,,77,73
118760,note_on,28,0,1,,,,,,,,,0,,,89,82
118760,set_tempo,40,1,0,,,,,,909091,,,,,,,
118766,control_change,46,0,2,,,,,,,,,0,64,0,,
118773,note_on,7,0,2,,,,,,,,,0,,,78,0
118773,note_on,0,0,2,,,,,,,,,0,,,66,0
118791,control_change,18,0,2,,,,,,,,,0,64,127,,
118800,note_on,9,0,2,,,,,,,,,0,,,64,73
118800,set_tempo,40,1,0,,,,,,902256,,,,,,,
118800,note_on,0,0,2,,,,,,,,,0,,,76,82
118814,note_on,0,0,1,,,,,,,,,0,,,89,0
118814,note_on,54,0,1,,,,,,,,,0,,,77,0
118840,set_tempo,40,1,0,,,,,,895522,,,,,,,
118840,note_on,26,0,1,,,,,,,,,0,,,87,85
118840,note_on,0,0,1,,,,,,,,,0,,,75,75
118855,note_on,55,0,2,,,,,,,,,0,,,76,0
118855,note_on,0,0,2,,,,,,,,,0,,,64,0
118880,set_tempo,40,1,0,,,,,,888889,,,,,,,
118880,note_on,25,0,2,,,,,,,,,0,,,62,75
118880,note_on,0,0,2,,,,,,,,,0,,,74,85
118896,note_on,56,0,1,,,,,,,,,0,,,75,0
118896,note_on,0,0,1,,,,,,,,,0,,,87,0
118920,note_on,24,0,1,,,,,,,,,0,,,85,88
118920,set_tempo,40,1,0,,,,,,882353,,,,,,,
118920,note_on,0,0,1,,,,,,,,,0,,,73,79
118937,note_on,57,0,2,,,,,,,,,0,,,74,0
118937,note_on,0,0,2,,,,,,,,,0,,,62,0
118960,note_on,0,0,2,,,,,,,,,0,,,72,88
118960,note_on,23,0,2,,,,,,,,,0,,,60,79
118960,set_tempo,40,1,0,,,,,,875912,,,,,,,
118978,note_on,58,0,1,,,,,,,,,0,,,73,0
118978,note_on,0,0,1,,,,,,,,,0,,,85,0
119000,note_on,22,0,1,,,,,,,,,0,,,83,92
119000,note_on,0,0,1,,,,,,,,,0,,,71,82
119000,set_tempo,40,1,0,,,,,,869565,,,,,,,
119019,note_on,0,0,2,,,,,,,,,0,,,60,0
119019,note_on,59,0,2,,,,,,,,,0,,,72,0
119034,control_change,15,0,2,,,,,,,,,0,64,0,,
119040,note_on,0,0,2,,,,,,,,,0,,,70,100
119040,note_on,6,0,2,,,,,,,,,0,,,58,90
119040,set_tempo,40,1,0,,,,,,1081081,,,,,,,
119060,note_on,60,0,1,,,,,,,,,0,,,71,0
119060,note_on,0,0,1,,,,,,,,,0,,,83,0
119160,note_on,120,0,2,,,,,,,,,0,,,70,0
119160,note_on,0,0,2,,,,,,,,,0,,,58,0
119280,set_tempo,240,1,0,,,,,,1212121,,,,,,,
119280,note_on,120,0,2,,,,,,,,,0,,,34,72
119280,note_on,0,0,1,,,,,,,,,0,,,53,72
119280,note_on,220,0,1,,,,,,,,,0,,,50,72
119280,note_on,0,0,1,,,,,,,,,0,,,62,80
119280,note_on,0,0,2,,,,,,,,,0,,,41,72
119280,note_on,0,0,2,,,,,,,,,0,,,46,72
119280,note_on,0,0,1,,,,,,,,,0,,,58,72
119520,note_on,0,0,2,,,,,,,,,0,,,86,89
119520,note_on,0,0,2,,,,,,,,,0,,,74,80
119520,note_on,0,0,2,,,,,,,,,0,,,41,0
119520,note_on,0,0,2,,,,,,,,,0,,,34,0
119520,note_on,0,0,1,,,,,,,,,0,,,50,0
119520,note_on,0,0,1,,,,,,,,,0,,,53,0
119520,note_on,240,0,1,,,,,,,,,0,,,62,0
119520,note_on,0,0,1,,,,,,,,,0,,,58,0
119520,set_tempo,240,1,0,,,,,,1395349,,,,,,,
119520,note_on,240,0,2,,,,,,,,,0,,,46,0
119529,control_change,9,0,2,,,,,,,,,0,64,127,,
119580,note_on,60,0,1,,,,,,,,,0,,,85,70
119580,note_on,0,0,1,,,,,,,,,0,,,97,78
119580,note_on,0,0,2,,,,,,,,,0,,,74,0
119580,note_on,51,0,2,,,,,,,,,0,,,86,0
119600,note_on,20,0,1,,,,,,,,,0,,,97,0
119600,set_tempo,80,1,0,,,,,,930233,,,,,,,
119600,note_on,0,0,2,,,,,,,,,0,,,84,77
119600,note_on,20,0,2,,,,,,,,,0,,,72,69
119600,note_on,0,0,1,,,,,,,,,0,,,85,0
119640,note_on,40,0,1,,,,,,,,,0,,,95,79
119640,note_on,0,0,1,,,,,,,,,0,,,83,71
119640,set_tempo,40,1,0,,,,,,923077,,,,,,,
119651,note_on,0,0,2,,,,,,,,,0,,,72,0
119651,note_on,51,0,2,,,,,,,,,0,,,84,0
119680,note_on,0,0,2,,,,,,,,,0,,,82,79
119680,note_on,29,0,2,,,,,,,,,0,,,70,71
119680,set_tempo,40,1,0,,,,,,916031,,,,,,,
119692,note_on,0,0,1,,,,,,,,,0,,,95,0
119692,note_on,52,0,1,,,,,,,,,0,,,83,0
119717,control_change,37,0,2,,,,,,,,,0,64,0,,
119720,note_on,28,0,1,,,,,,,,,0,,,93,82
119720,set_tempo,40,1,0,,,,,,909091,,,,,,,
119720,note_on,0,0,1,,,,,,,,,0,,,81,73
119733,note_on,0,0,2,,,,,,,,,0,,,70,0
119733,note_on,16,0,2,,,,,,,,,0,,,82,0
119740,control_change,7,0,2,,,,,,,,,0,64,127,,
119760,note_on,20,0,2,,,,,,,,,0,,,68,73
119760,note_on,0,0,2,,,,,,,,,0,,,80,82
119760,set_tempo,40,1,0,,,,,,902256,,,,,,,
119774,note_on,0,0,1,,,,,,,,,0,,,93,0
119774,note_on,54,0,1,,,,,,,,,0,,,81,0
119800,note_on,0,0,1,,,,,,,,,0,,,79,75
119800,set_tempo,40,1,0,,,,,,895522,,,,,,,
119800,note_on,26,0,1,,,,,,,,,0,,,91,85
119815,note_on,0,0,2,,,,,,,,,0,,,68,0
119815,note_on,55,0,2,,,,,,,,,0,,,80,0
119840,set_tempo,40,1,0,,,,,,888889,,,,,,,
119840,note_on,0,0,2,,,,,,,,,0,,,78,85
119840,note_on,25,0,2,,,,,,,,,0,,,66,75
119856,note_on,56,0,1,,,,,,,,,0,,,79,0
119856,note_on,0,0,1,,,,,,,,,0,,,91,0
119880,note_on,0,0,1,,,,,,,,,0,,,77,79
119880,set_tempo,40,1,0,,,,,,882353,,,,,,,
119880,note_on,24,0,1,,,,,,,,,0,,,89,88
119897,note_on,57,0,2,,,,,,,,,0,,,78,0
119897,note_on,0,0,2,,,,,,,,,0,,,66,0
119920,note_on,0,0,2,,,,,,,,,0,,,76,88
119920,note_on,23,0,2,,,,,,,,,0,,,64,79
119920,set_tempo,40,1,0,,,,,,875912,,,,,,,
119938,note_on,0,0,1,,,,,,,,,0,,,89,0
119938,note_on,58,0,1,,,,,,,,,0,,,77,0
119960,set_tempo,40,1,0,,,,,,869565,,,,,,,
119960,note_on,22,0,1,,,,,,,,,0,,,87,92
119960,note_on,0,0,1,,,,,,,,,0,,,75,82
119979,note_on,59,0,2,,,,,,,,,0,,,76,0
119979,note_on,0,0,2,,,,,,,,,0,,,64,0
120000,note_on,0,0,2,,,,,,,,,0,,,62,90
120000,note_on,0,0,2,,,,,,,,,0,,,74,100
120000,control_change,21,0,2,,,,,,,,,0,64,0,,
120000,set_tempo,40,1,0,,,,,,1081081,,,,,,,
120020,note_on,0,0,1,,,,,,,,,0,,,87,0
120020,note_on,60,0,1,,,,,,,,,0,,,75,0
120120,note_on,0,0,2,,,,,,,,,0,,,62,0
120120,note_on,120,0,2,,,,,,,,,0,,,74,0
120240,note_on,0,0,1,,,,,,,,,0,,,53,72
120240,note_on,120,0,2,,,,,,,,,0,,,34,72
120240,note_on,0,0,1,,,,,,,,,0,,,62,72
120240,note_on,0,0,2,,,,,,,,,0,,,50,72
120240,note_on,0,0,2,,,,,,,,,0,,,41,72
120240,note_on,0,0,1,,,,,,,,,0,,,58,72
120240,note_on,220,0,1,,,,,,,,,0,,,65,80
120480,note_on,0,0,1,,,,,,,,,0,,,53,0
120480,note_on,0,0,1,,,,,,,,,0,,,58,0
120480,note_on,0,0,1,,,,,,,,,0,,,65,0
120480,note_on,0,0,2,,,,,,,,,0,,,77,74
120480,note_on,0,0,2,,,,,,,,,0,,,89,83
120480,set_tempo,480,1,0,,,,,,1463415,,,,,,,
120480,note_on,0,0,2,,,,,,,,,0,,,34,0
120480,note_on,0,0,2,,,,,,,,,0,,,41,0
120480,note_on,240,0,1,,,,,,,,,0,,,62,0
120480,note_on,240,0,2,,,,,,,,,0,,,50,0
120520,note_on,0,0,1,,,,,,,,,0,,,100,74
120520,note_on,0,0,2,,,,,,,,,0,,,77,0
120520,note_on,40,0,1,,,,,,,,,0,,,88,66
120520,note_on,40,0,2,,,,,,,,,0,,,89,0
120560,note_on,0,0,2,,,,,,,,,0,,,87,83
120560,note_on,0,0,1,,,,,,,,,0,,,88,0
120560,set_tempo,80,1,0,,,,,,916031,,,,,,,
120560,note_on,40,0,1,,,,,,,,,0,,,100,0
120560,note_on,40,0,2,,,,,,,,,0,,,75,74
120600,note_on,0,0,2,,,,,,,,,0,,,75,0
120600,note_on,0,0,1,,,,,,,,,0,,,86,66
120600,set_tempo,40,1,0,,,,,,909091,,,,,,,
120600,note_on,40,0,1,,,,,,,,,0,,,98,74
120600,note_on,40,0,2,,,,,,,,,0,,,87,0
120620,set_tempo,20,1,0,,,,,,902256,,,,,,,
120640,note_on,40,0,1,,,,,,,,,0,,,86,0
120640,set_tempo,20,1,0,,,,,,895522,,,,,,,
120640,note_on,0,0,1,,,,,,,,,0,,,98,0
120640,note_on,0,0,2,,,,,,,,,0,,,85,85
120640,note_on,40,0,2,,,,,,,,,0,,,73,75
120660,set_tempo,20,1,0,,,,,,888889,,,,,,,
120680,set_tempo,20,1,0,,,,,,882353,,,,,,,
120680,note_on,40,0,2,,,,,,,,,0,,,85,0
120680,note_on,40,0,1,,,,,,,,,0,,,96,75
120680,note_on,0,0,1,,,,,,,,,0,,,84,67
120680,note_on,0,0,2,,,,,,,,,0,,,73,0
120720,note_on,0,0,1,,,,,,,,,0,,,96,0
120720,note_on,40,0,1,,,,,,,,,0,,,84,0
120720,set_tempo,40,1,0,,,,,,875912,,,,,,,
120720,note_on,40,0,2,,,,,,,,,0,,,71,77
120720,note_on,0,0,2,,,,,,,,,0,,,83,86
120740,set_tempo,20,1,0,,,,,,869565,,,,,,,
120760,note_on,0,0,1,,,,,,,,,0,,,82,67
120760,note_on,40,0,1,,,,,,,,,0,,,94,75
120760,note_on,40,0,2,,,,,,,,,0,,,83,0
120760,note_on,0,0,2,,,,,,,,,0,,,71,0
120800,note_on,40,0,1,,,,,,,,,0,,,82,0
120800,note_on,0,0,2,,,,,,,,,0,,,81,87
120800,note_on,40,0,2,,,,,,,,,0,,,69,78
120800,note_on,0,0,1,,,,,,,,,0,,,94,0
120840,note_on,0,0,1,,,,,,,,,0,,,80,69
120840,note_on,40,0,1,,,,,,,,,0,,,92,77
120840,note_on,40,0,2,,,,,,,,,0,,,81,0
120840,note_on,0,0,2,,,,,,,,,0,,,69,0
120880,note_on,0,0,1,,,,,,,,,0,,,92,0
120880,note_on,0,0,2,,,,,,,,,0,,,79,88
120880,note_on,40,0,1,,,,,,,,,0,,,80,0
120880,note_on,40,0,2,,,,,,,,,0,,,67,79
120920,note_on,40,0,2,,,,,,,,,0,,,79,0
120920,note_on,0,0,1,,,,,,,,,0,,,78,69
120920,note_on,40,0,1,,,,,,,,,0,,,90,77
120920,note_on,0,0,2,,,,,,,,,0,,,67,0
120960,note_on,0,0,1,,,,,,,,,0,,,90,0
120960,note_on,40,0,1,,,,,,,,,0,,,78,0
120960,note_on,40,0,2,,,,,,,,,0,,,65,79
120960,note_on,0,0,2,,,,,,,,,0,,,77,88
121000,note_on,0,0,2,,,,,,,,,0,,,65,0
121000,note_on,0,0,1,,,,,,,,,0,,,88,78
121000,note_on,40,0,2,,,,,,,,,0,,,77,0
121000,note_on,40,0,1,,,,,,,,,0,,,76,70
121040,note_on,0,0,2,,,,,,,,,0,,,75,89
121040,note_on,0,0,1,,,,,,,,,0,,,76,0
121040,note_on,40,0,1,,,,,,,,,0,,,88,0
121040,note_on,40,0,2,,,,,,,,,0,,,63,80
121080,note_on,40,0,1,,,,,,,,,0,,,86,78
121080,note_on,0,0,1,,,,,,,,,0,,,74,70
121080,note_on,40,0,2,,,,,,,,,0,,,75,0
121080,note_on,0,0,2,,,,,,,,,0,,,63,0
121120,note_on,40,0,2,,,,,,,,,0,,,61,81
121120,note_on,0,0,1,,,,,,,,,0,,,86,0
121120,note_on,0,0,2,,,,,,,,,0,,,73,90
121120,note_on,40,0,1,,,,,,,,,0,,,74,0
121160,note_on,40,0,1,,,,,,,,,0,,,84,79
121160,note_on,40,0,2,,,,,,,,,0,,,61,0
121160,note_on,0,0,1,,,,,,,,,0,,,72,71
121165,note_on,5,0,2,,,,,,,,,0,,,73,0
121200,note_on,0,0,2,,,,,,,,,0,,,71,92
121200,note_on,35,0,2,,,,,,,,,0,,,59,82
121205,note_on,0,0,1,,,,,,,,,0,,,84,0
121205,note_on,45,0,1,,,,,,,,,0,,,72,0
121240,note_on,0,0,1,,,,,,,,,0,,,70,71
121240,note_on,35,0,1,,,,,,,,,0,,,82,79
121245,note_on,45,0,2,,,,,,,,,0,,,59,0
121250,note_on,5,0,2,,,,,,,,,0,,,71,0
121280,note_on,0,0,2,,,,,,,,,0,,,69,92
121280,note_on,30,0,2,,,,,,,,,0,,,57,82
121290,note_on,50,0,1,,,,,,,,,0,,,70,0
121290,note_on,0,0,1,,,,,,,,,0,,,82,0
121320,note_on,30,0,1,,,,,,,,,0,,,80,80
121320,note_on,0,0,1,,,,,,,,,0,,,68,72
121330,note_on,50,0,2,,,,,,,,,0,,,69,0
121330,note_on,0,0,2,,,,,,,,,0,,,57,0
121360,note_on,0,0,2,,,,,,,,,0,,,67,93
121360,note_on,30,0,2,,,,,,,,,0,,,55,82
121370,note_on,0,0,1,,,,,,,,,0,,,80,0
121370,note_on,50,0,1,,,,,,,,,0,,,68,0
121400,note_on,0,0,1,,,,,,,,,0,,,66,72
121400,note_on,30,0,1,,,,,,,,,0,,,78,80
121410,note_on,0,0,2,,,,,,,,,0,,,55,0
121410,note_on,50,0,2,,,,,,,,,0,,,67,0
121440,note_on,0,0,2,,,,,,,,,0,,,65,94
121440,set_tempo,700,1,0,,,,,,869565,,,,,,,
121440,note_on,30,0,2,,,,,,,,,0,,,53,83
121450,note_on,0,0,1,,,,,,,,,0,,,78,0
121450,note_on,50,0,1,,,,,,,,,0,,,66,0
121454,control_change,14,0,2,,,,,,,,,0,64,127,,
121480,note_on,0,0,1,,,,,,,,,0,,,76,81
121480,note_on,30,0,1,,,,,,,,,0,,,64,72
121490,note_on,0,0,2,,,,,,,,,0,,,53,0
121490,note_on,36,0,2,,,,,,,,,0,,,65,0
121520,note_on,30,0,2,,,,,,,,,0,,,51,85
121520,note_on,0,0,2,,,,,,,,,0,,,63,95
121520,set_tempo,80,1,0,,,,,,875912,,,,,,,
121530,note_on,50,0,1,,,,,,,,,0,,,76,0
121530,note_on,0,0,1,,,,,,,,,0,,,64,0
121560,note_on,0,0,1,,,,,,,,,0,,,62,72
121560,note_on,30,0,1,,,,,,,,,0,,,74,81
121571,note_on,0,0,2,,,,,,,,,0,,,51,0
121571,note_on,51,0,2,,,,,,,,,0,,,63,0
121600,set_tempo,80,1,0,,,,,,882353,,,,,,,
121600,note_on,29,0,2,,,,,,,,,0,,,49,86
121600,note_on,0,0,2,,,,,,,,,0,,,61,96
121612,note_on,52,0,1,,,,,,,,,0,,,62,0
121612,note_on,0,0,1,,,,,,,,,0,,,74,0
121626,control_change,26,0,2,,,,,,,,,0,64,0,,
121640,note_on,28,0,1,,,,,,,,,0,,,72,82
121640,note_on,0,0,1,,,,,,,,,0,,,60,73
121653,note_on,27,0,2,,,,,,,,,0,,,61,0
121653,note_on,0,0,2,,,,,,,,,0,,,49,0
121660,control_change,7,0,2,,,,,,,,,0,64,127,,
121680,note_on,20,0,2,,,,,,,,,0,,,47,86
121680,set_tempo,80,1,0,,,,,,888889,,,,,,,
121680,note_on,0,0,2,,,,,,,,,0,,,59,96
121694,note_on,0,0,1,,,,,,,,,0,,,72,0
121694,note_on,54,0,1,,,,,,,,,0,,,60,0
121720,note_on,0,0,1,,,,,,,,,0,,,58,73
121720,note_on,26,0,1,,,,,,,,,0,,,70,82
121735,note_on,0,0,2,,,,,,,,,0,,,47,0
121735,note_on,55,0,2,,,,,,,,,0,,,59,0
121760,note_on,25,0,2,,,,,,,,,0,,,45,87
121760,set_tempo,80,1,0,,,,,,895522,,,,,,,
121760,note_on,0,0,2,,,,,,,,,0,,,57,97
121776,note_on,0,0,1,,,,,,,,,0,,,70,0
121776,note_on,56,0,1,,,,,,,,,0,,,58,0
121800,note_on,0,0,1,,,,,,,,,0,,,56,73
121800,note_on,24,0,1,,,,,,,,,0,,,68,82
121817,note_on,57,0,2,,,,,,,,,0,,,57,0
121817,note_on,0,0,2,,,,,,,,,0,,,45,0
121840,note_on,23,0,2,,,,,,,,,0,,,41,88
121840,set_tempo,80,1,0,,,,,,902256,,,,,,,
121840,note_on,0,0,2,,,,,,,,,0,,,53,98
121858,note_on,0,0,1,,,,,,,,,0,,,68,0
121858,note_on,58,0,1,,,,,,,,,0,,,56,0
121880,note_on,0,0,1,,,,,,,,,0,,,50,73
121880,note_on,22,0,1,,,,,,,,,0,,,62,82
121899,note_on,59,0,2,,,,,,,,,0,,,53,0
121899,note_on,0,0,2,,,,,,,,,0,,,41,0
121920,note_on,21,0,2,,,,,,,,,0,,,34,94
121920,set_tempo,80,1,0,,,,,,909091,,,,,,,
121920,note_on,0,0,2,,,,,,,,,0,,,46,105
121928,control_change,8,0,2,,,,,,,,,0,64,0,,
121940,note_on,60,0,1,,,,,,,,,0,,,50,0
121940,note_on,0,0,1,,,,,,,,,0,,,62,0
122140,set_tempo,220,1,0,,,,,,895522,,,,,,,
122160,note_on,220,0,1,,,,,,,,,0,,,45,83
122160,note_on,232,0,2,,,,,,,,,0,,,46,0
122160,note_on,0,0,2,,,,,,,,,0,,,33,83
122160,note_on,0,0,2,,,,,,,,,0,,,34,0
122180,set_tempo,40,1,0,,,,,,882353,,,,,,,
122200,note_on,0,0,1,,,,,,,,,0,,,46,81
122200,note_on,0,0,2,,,,,,,,,0,,,34,81
122200,note_on,40,0,1,,,,,,,,,0,,,45,0
122200,note_on,40,0,2,,,,,,,,,0,,,33,0
122220,set_tempo,40,1,0,,,,,,875912,,,,,,,
122240,note_on,0,0,2,,,,,,,,,0,,,38,81
122240,note_on,0,0,1,,,,,,,,,0,,,50,81
122240,note_on,40,0,1,,,,,,,,,0,,,46,0
122240,set_tempo,20,1,0,,,,,,869565,,,,,,,
122240,note_on,40,0,2,,,,,,,,,0,,,34,0
122280,note_on,40,0,2,,,,,,,,,0,,,41,82
122280,set_tempo,40,1,0,,,,,,863309,,,,,,,
122280,note_on,40,0,1,,,,,,,,,0,,,53,82
122285,note_on,5,0,2,,,,,,,,,0,,,38,0
122285,note_on,5,0,1,,,,,,,,,0,,,50,0
122320,note_on,35,0,2,,,,,,,,,0,,,44,82
122320,note_on,35,0,1,,,,,,,,,0,,,56,82
122320,set_tempo,40,1,0,,,,,,857143,,,,,,,
122326,note_on,6,0,1,,,,,,,,,0,,,53,0
122326,note_on,6,0,2,,,,,,,,,0,,,41,0
122340,set_tempo,20,1,0,,,,,,845070,,,,,,,
122360,note_on,34,0,2,,,,,,,,,0,,,46,83
122360,note_on,34,0,1,,,,,,,,,0,,,58,83
122367,note_on,7,0,2,,,,,,,,,0,,,44,0
122367,note_on,7,0,1,,,,,,,,,0,,,56,0
122400,set_tempo,60,1,0,,,,,,833333,,,,,,,
122400,note_on,33,0,2,,,,,,,,,0,,,50,83
122400,note_on,33,0,1,,,,,,,,,0,,,62,83
122408,note_on,8,0,2,,,,,,,,,0,,,46,0
122408,note_on,8,0,1,,,,,,,,,0,,,58,0
122440,note_on,32,0,2,,,,,,,,,0,,,53,85
122440,note_on,32,0,1,,,,,,,,,0,,,65,85
122449,note_on,9,0,2,,,,,,,,,0,,,50,0
122449,note_on,9,0,1,,,,,,,,,0,,,62,0
122450,control_change,1,0,2,,,,,,,,,0,64,127,,
122480,note_on,30,0,2,,,,,,,,,0,,,56,85
122480,note_on,31,0,1,,,,,,,,,0,,,68,85
122490,note_on,10,0,2,,,,,,,,,0,,,53,0
122490,note_on,10,0,1,,,,,,,,,0,,,65,0
122520,note_on,30,0,2,,,,,,,,,0,,,56,0
122520,note_on,0,0,2,,,,,,,,,0,,,58,86
122520,note_on,0,0,1,,,,,,,,,0,,,70,86
122520,note_on,30,0,1,,,,,,,,,0,,,68,0
122560,note_on,40,0,1,,,,,,,,,0,,,70,0
122560,note_on,40,0,2,,,,,,,,,0,,,58,0
122560,note_on,0,0,2,,,,,,,,,0,,,62,86
122560,note_on,0,0,1,,,,,,,,,0,,,74,86
122600,note_on,40,0,2,,,,,,,,,0,,,62,0
122600,note_on,40,0,1,,,,,,,,,0,,,74,0
122600,note_on,0,0,2,,,,,,,,,0,,,65,86
122600,note_on,0,0,1,,,,,,,,,0,,,77,86
122640,note_on,40,0,2,,,,,,,,,0,,,65,0
122640,note_on,40,0,1,,,,,,,,,0,,,77,0
122640,note_on,0,0,2,,,,,,,,,0,,,68,87
122640,note_on,0,0,1,,,,,,,,,0,,,80,87
122680,set_tempo,280,1,0,,,,,,839161,,,,,,,
122688,note_on,48,0,1,,,,,,,,,0,,,80,0
122688,note_on,48,0,2,,,,,,,,,0,,,68,0
122688,note_on,0,0,1,,,,,,,,,0,,,82,87
122688,note_on,0,0,2,,,,,,,,,0,,,70,87
122736,note_on,0,0,1,,,,,,,,,0,,,86,88
122736,note_on,48,0,1,,,,,,,,,0,,,82,0
122736,note_on,0,0,2,,,,,,,,,0,,,74,88
122736,note_on,48,0,2,,,,,,,,,0,,,70,0
122740,set_tempo,60,1,0,,,,,,845070,,,,,,,
122784,note_on,0,0,1,,,,,,,,,0,,,89,89
122784,note_on,48,0,2,,,,,,,,,0,,,74,0
122784,note_on,0,0,2,,,,,,,,,0,,,77,89
122784,note_on,48,0,1,,,,,,,,,0,,,86,0
122832,note_on,48,0,1,,,,,,,,,0,,,89,0
122832,note_on,48,0,2,,,,,,,,,0,,,77,0
122832,note_on,0,0,2,,,,,,,,,0,,,80,89
122832,note_on,0,0,1,,,,,,,,,0,,,92,89
122839,control_change,7,0,2,,,,,,,,,0,64,0,,
122880,note_on,48,0,1,,,,,,,,,0,,,92,0
122880,note_on,0,0,2,,,,,,,,,0,,,81,90
122880,set_tempo,140,1,0,,,,,,1000000,,,,,,,
122880,note_on,41,0,2,,,,,,,,,0,,,80,0
122880,note_on,0,0,1,,,,,,,,,0,,,93,90
122905,note_on,25,0,1,,,,,,,,,0,,,93,0
122905,note_on,25,0,2,,,,,,,,,0,,,81,0
122914,note_on,9,0,1,,,,,,,,,0,,,96,87
122914,note_on,9,0,2,,,,,,,,,0,,,84,87
122940,set_tempo,60,1,0,,,,,,991736,,,,,,,
122944,note_on,30,0,1,,,,,,,,,0,,,96,0
122944,note_on,30,0,2,,,,,,,,,0,,,84,0
122948,note_on,4,0,1,,,,,,,,,0,,,94,86
122948,note_on,4,0,2,,,,,,,,,0,,,82,86
122978,note_on,30,0,1,,,,,,,,,0,,,94,0
122978,note_on,30,0,2,,,,,,,,,0,,,82,0
122982,note_on,4,0,2,,,,,,,,,0,,,80,86
122982,note_on,4,0,1,,,,,,,,,0,,,92,86
123000,set_tempo,60,1,0,,,,,,983607,,,,,,,
123012,note_on,30,0,1,,,,,,,,,0,,,92,0
123012,note_on,30,0,2,,,,,,,,,0,,,80,0
123016,note_on,4,0,1,,,,,,,,,0,,,89,86
123016,note_on,4,0,2,,,,,,,,,0,,,77,86
123020,set_tempo,20,1,0,,,,,,975610,,,,,,,
123040,set_tempo,20,1,0,,,,,,967742,,,,,,,
123046,note_on,30,0,1,,,,,,,,,0,,,89,0
123046,note_on,30,0,2,,,,,,,,,0,,,77,0
123050,note_on,4,0,1,,,,,,,,,0,,,86,86
123050,note_on,4,0,2,,,,,,,,,0,,,74,86
123060,set_tempo,20,1,0,,,,,,960000,,,,,,,
123080,note_on,30,0,1,,,,,,,,,0,,,86,0
123080,note_on,30,0,2,,,,,,,,,0,,,74,0
123084,note_on,4,0,2,,,,,,,,,0,,,70,86
123084,note_on,4,0,1,,,,,,,,,0,,,82,86
123114,note_on,30,0,1,,,,,,,,,0,,,82,0
123114,note_on,30,0,2,,,,,,,,,0,,,70,0
123120,note_on,6,0,1,,,,,,,,,0,,,81,90
123120,set_tempo,60,1,0,,,,,,952381,,,,,,,
123120,note_on,6,0,2,,,,,,,,,0,,,69,90
123150,note_on,30,0,2,,,,,,,,,0,,,69,0
123150,note_on,30,0,1,,,,,,,,,0,,,81,0
123154,note_on,4,0,1,,,,,,,,,0,,,84,87
123154,note_on,4,0,2,,,,,,,,,0,,,72,87
123160,set_tempo,40,1,0,,,,,,944882,,,,,,,
123188,note_on,0,0,1,,,,,,,,,0,,,82,86
123188,note_on,34,0,2,,,,,,,,,0,,,72,0
123188,note_on,0,0,2,,,,,,,,,0,,,70,86
123188,note_on,34,0,1,,,,,,,,,0,,,84,0
123222,note_on,0,0,2,,,,,,,,,0,,,68,86
123222,note_on,34,0,1,,,,,,,,,0,,,82,0
123222,note_on,0,0,1,,,,,,,,,0,,,80,86
123222,note_on,34,0,2,,,,,,,,,0,,,70,0
123256,note_on,34,0,2,,,,,,,,,0,,,68,0
123256,note_on,0,0,2,,,,,,,,,0,,,65,86
123256,note_on,0,0,1,,,,,,,,,0,,,77,86
123256,note_on,34,0,1,,,,,,,,,0,,,80,0
123290,note_on,34,0,2,,,,,,,,,0,,,65,0
123290,note_on,0,0,2,,,,,,,,,0,,,62,86
123290,note_on,0,0,1,,,,,,,,,0,,,74,86
123290,note_on,34,0,1,,,,,,,,,0,,,77,0
123324,note_on,0,0,1,,,,,,,,,0,,,70,86
123324,note_on,34,0,1,,,,,,,,,0,,,74,0
123324,note_on,34,0,2,,,,,,,,,0,,,62,0
123324,note_on,0,0,2,,,,,,,,,0,,,58,86
123358,note_on,34,0,1,,,,,,,,,0,,,70,0
123358,note_on,34,0,2,,,,,,,,,0,,,58,0
123360,note_on,2,0,2,,,,,,,,,0,,,57,90
123360,note_on,2,0,1,,,,,,,,,0,,,69,90
123390,note_on,30,0,1,,,,,,,,,0,,,69,0
123390,note_on,30,0,2,,,,,,,,,0,,,57,0
123394,note_on,4,0,1,,,,,,,,,0,,,72,87
123394,note_on,4,0,2,,,,,,,,,0,,,60,87
123428,note_on,0,0,2,,,,,,,,,0,,,58,86
123428,note_on,34,0,1,,,,,,,,,0,,,72,0
123428,note_on,0,0,1,,,,,,,,,0,,,70,86
123428,note_on,34,0,2,,,,,,,,,0,,,60,0
123462,note_on,0,0,2,,,,,,,,,0,,,56,86
123462,note_on,34,0,2,,,,,,,,,0,,,58,0
123462,note_on,0,0,1,,,,,,,,,0,,,68,86
123462,note_on,34,0,1,,,,,,,,,0,,,70,0
123496,note_on,34,0,2,,,,,,,,,0,,,56,0
123496,note_on,0,0,2,,,,,,,,,0,,,53,86
123496,note_on,0,0,1,,,,,,,,,0,,,65,86
123496,note_on,34,0,1,,,,,,,,,0,,,68,0
123530,note_on,34,0,2,,,,,,,,,0,,,53,0
123530,note_on,0,0,2,,,,,,,,,0,,,50,86
123530,note_on,34,0,1,,,,,,,,,0,,,65,0
123530,note_on,0,0,1,,,,,,,,,0,,,62,86
123564,note_on,34,0,1,,,,,,,,,0,,,62,0
123564,note_on,34,0,2,,,,,,,,,0,,,50,0
123564,note_on,0,0,1,,,,,,,,,0,,,58,85
123564,note_on,0,0,2,,,,,,,,,0,,,46,85
123598,note_on,34,0,1,,,,,,,,,0,,,58,0
123598,note_on,34,0,2,,,,,,,,,0,,,46,0
123600,note_on,2,0,2,,,,,,,,,0,,,45,87
123600,note_on,2,0,1,,,,,,,,,0,,,57,87
123600,set_tempo,440,1,0,,,,,,857143,,,,,,,
123640,set_tempo,40,1,0,,,,,,863309,,,,,,,
123648,note_on,48,0,2,,,,,,,,,0,,,46,89
123648,note_on,48,0,1,,,,,,,,,0,,,58,89
123650,note_on,2,0,1,,,,,,,,,0,,,57,0
123650,note_on,2,0,2,,,,,,,,,0,,,45,0
123680,set_tempo,40,1,0,,,,,,869565,,,,,,,
123696,note_on,46,0,2,,,,,,,,,0,,,50,93
123696,note_on,46,0,1,,,,,,,,,0,,,62,93
123698,note_on,2,0,1,,,,,,,,,0,,,58,0
123698,note_on,2,0,2,,,,,,,,,0,,,46,0
123700,set_tempo,20,1,0,,,,,,875912,,,,,,,
123740,set_tempo,40,1,0,,,,,,882353,,,,,,,
123744,note_on,46,0,2,,,,,,,,,0,,,53,95
123744,note_on,46,0,1,,,,,,,,,0,,,65,95
123746,note_on,2,0,1,,,,,,,,,0,,,62,0
123746,note_on,2,0,2,,,,,,,,,0,,,50,0
123760,set_tempo,20,1,0,,,,,,888889,,,,,,,
123792,note_on,46,0,1,,,,,,,,,0,,,68,98
123792,note_on,46,0,2,,,,,,,,,0,,,56,98
123799,note_on,7,0,1,,,,,,,,,0,,,65,0
123799,note_on,7,0,2,,,,,,,,,0,,,53,0
123800,set_tempo,40,1,0,,,,,,895522,,,,,,,
123820,set_tempo,20,1,0,,,,,,902256,,,,,,,
123840,note_on,0,0,2,,,,,,,,,0,,,57,103
123840,marker,0,1,0,,,,,,,,,,,,,
123840,note_on,0,0,2,,,,,,,,,0,,,45,82
123840,set_tempo,0,1,0,,,,,,7058824,,,,,,,
123840,note_on,41,0,1,,,,,,,,,0,,,68,0
123840,note_on,41,0,2,,,,,,,,,0,,,56,0
123840,time_signature,20,1,0,3,4,24,8,,,,,,,,,
123846,control_change,6,0,2,,,,,,,,,0,64,127,,
123870,note_on,24,0,2,,,,,,,,,0,,,57,0
123870,note_on,0,0,2,,,,,,,,,0,,,45,0
123877,note_on,0,0,1,,,,,,,,,0,,,70,102
123877,note_on,37,0,1,,,,,,,,,0,,,58,86
123880,set_tempo,40,1,0,,,,,,1714286,,,,,,,
123890,note_on,0,0,1,,,,,,,,,0,,,58,0
123890,note_on,20,0,2,,,,,,,,,0,,,51,66
123890,note_on,13,0,1,,,,,,,,,0,,,70,0
123890,note_on,0,0,2,,,,,,,,,0,,,63,84
123900,set_tempo,20,1,0,,,,,,1690141,,,,,,,
123915,note_on,0,0,1,,,,,,,,,0,,,62,83
123915,note_on,25,0,1,,,,,,,,,0,,,74,83
123920,set_tempo,20,1,0,,,,,,1643836,,,,,,,
123927,note_on,0,0,2,,,,,,,,,0,,,51,0
123927,note_on,37,0,2,,,,,,,,,0,,,63,0
123940,set_tempo,20,1,0,,,,,,1600000,,,,,,,
123940,note_on,13,0,2,,,,,,,,,0,,,49,67
123940,note_on,0,0,2,,,,,,,,,0,,,61,85
123952,note_on,0,0,1,,,,,,,,,0,,,74,0
123952,note_on,37,0,1,,,,,,,,,0,,,62,0
123960,set_tempo,20,1,0,,,,,,1558442,,,,,,,
123965,note_on,13,0,1,,,,,,,,,0,,,72,86
123965,note_on,0,0,1,,,,,,,,,0,,,60,72
123977,note_on,37,0,2,,,,,,,,,0,,,61,0
123977,note_on,0,0,2,,,,,,,,,0,,,49,0
123980,set_tempo,20,1,0,,,,,,1518987,,,,,,,
123990,note_on,0,0,2,,,,,,,,,0,,,59,87
123990,note_on,13,0,2,,,,,,,,,0,,,47,70
124000,set_tempo,20,1,0,,,,,,1500000,,,,,,,
124002,note_on,37,0,1,,,,,,,,,0,,,60,0
124002,note_on,0,0,1,,,,,,,,,0,,,72,0
124015,note_on,0,0,1,,,,,,,,,0,,,58,73
124015,note_on,13,0,1,,,,,,,,,0,,,70,87
124020,set_tempo,20,1,0,,,,,,1463415,,,,,,,
124027,note_on,0,0,2,,,,,,,,,0,,,47,0
124027,note_on,37,0,2,,,,,,,,,0,,,59,0
124031,control_change,4,0,2,,,,,,,,,0,64,0,,
124040,note_on,9,0,2,,,,,,,,,0,,,45,72
124040,set_tempo,20,1,0,,,,,,1428571,,,,,,,
124040,note_on,0,0,2,,,,,,,,,0,,,57,90
124043,control_change,3,0,2,,,,,,,,,0,64,127,,
124052,note_on,37,0,1,,,,,,,,,0,,,58,0
124052,note_on,0,0,1,,,,,,,,,0,,,70,0
124060,set_tempo,20,1,0,,,,,,1395349,,,,,,,
124065,note_on,0,0,1,,,,,,,,,0,,,56,76
124065,note_on,13,0,1,,,,,,,,,0,,,68,90
124077,note_on,34,0,2,,,,,,,,,0,,,57,0
124077,note_on,0,0,2,,,,,,,,,0,,,45,0
124080,set_tempo,20,1,0,,,,,,1363636,,,,,,,
124090,note_on,13,0,2,,,,,,,,,0,,,43,73
124090,note_on,0,0,2,,,,,,,,,0,,,55,91
124100,set_tempo,20,1,0,,,,,,1333333,,,,,,,
124102,note_on,0,0,1,,,,,,,,,0,,,68,0
124102,note_on,37,0,1,,,,,,,,,0,,,56,0
124115,note_on,13,0,1,,,,,,,,,0,,,66,91
124115,note_on,0,0,1,,,,,,,,,0,,,54,77
124120,set_tempo,20,1,0,,,,,,1318681,,,,,,,
124127,note_on,0,0,2,,,,,,,,,0,,,43,0
124127,note_on,37,0,2,,,,,,,,,0,,,55,0
124140,note_on,13,0,2,,,,,,,,,0,,,41,74
124140,note_on,0,0,2,,,,,,,,,0,,,53,94
124140,set_tempo,20,1,0,,,,,,1290323,,,,,,,
124152,note_on,37,0,1,,,,,,,,,0,,,54,0
124152,note_on,0,0,1,,,,,,,,,0,,,66,0
124160,set_tempo,20,1,0,,,,,,1263158,,,,,,,
124165,note_on,13,0,1,,,,,,,,,0,,,64,94
124165,note_on,0,0,1,,,,,,,,,0,,,52,80
124177,note_on,0,0,2,,,,,,,,,0,,,41,0
124177,note_on,37,0,2,,,,,,,,,0,,,53,0
124180,set_tempo,20,1,0,,,,,,1237113,,,,,,,
124190,note_on,0,0,2,,,,,,,,,0,,,51,97
124190,note_on,13,0,2,,,,,,,,,0,,,39,77
124200,set_tempo,20,1,0,,,,,,1212121,,,,,,,
124202,note_on,0,0,1,,,,,,,,,0,,,64,0
124202,note_on,37,0,1,,,,,,,,,0,,,52,0
124215,note_on,13,0,1,,,,,,,,,0,,,62,96
124215,note_on,0,0,1,,,,,,,,,0,,,50,81
124220,set_tempo,20,1,0,,,,,,1200000,,,,,,,
124227,note_on,37,0,2,,,,,,,,,0,,,51,0
124227,note_on,0,0,2,,,,,,,,,0,,,39,0
124240,set_tempo,20,1,0,,,,,,1176471,,,,,,,
124240,note_on,0,0,2,,,,,,,,,0,,,37,99
124240,note_on,13,0,2,,,,,,,,,0,,,49,99
124252,note_on,37,0,1,,,,,,,,,0,,,50,0
124252,note_on,0,0,1,,,,,,,,,0,,,62,0
124260,set_tempo,20,1,0,,,,,,1153846,,,,,,,
124265,note_on,13,0,1,,,,,,,,,0,,,48,82
124265,note_on,0,0,1,,,,,,,,,0,,,60,98
124277,note_on,37,0,2,,,,,,,,,0,,,37,0
124277,note_on,0,0,2,,,,,,,,,0,,,49,0
124280,set_tempo,20,1,0,,,,,,1132075,,,,,,,
124290,note_on,13,0,2,,,,,,,,,0,,,35,81
124290,note_on,0,0,2,,,,,,,,,0,,,47,100
124300,set_tempo,20,1,0,,,,,,1111111,,,,,,,
124302,note_on,37,0,1,,,,,,,,,0,,,60,0
124302,note_on,0,0,1,,,,,,,,,0,,,48,0
124320,set_tempo,20,1,0,,,,,,1000000,,,,,,,
124320,note_on,0,0,2,,,,,,,,,0,,,46,97
124320,note_on,0,0,2,,,,,,,,,0,,,34,77
124320,control_change,30,0,2,,,,,,,,,0,64,0,,
124335,note_on,0,0,2,,,,,,,,,0,,,35,0
124335,note_on,15,0,2,,,,,,,,,0,,,47,0
124410,note_on,0,0,2,,,,,,,,,0,,,46,0
124410,note_on,75,0,2,,,,,,,,,0,,,34,0
124560,note_on,150,0,2,,,,,,,,,0,,,51,79
124560,note_on,0,0,2,,,,,,,,,0,,,46,79
124560,note_on,258,0,1,,,,,,,,,0,,,63,81
124560,note_on,0,0,1,,,,,,,,,0,,,67,81
124560,note_on,0,0,2,,,,,,,,,0,,,39,79
124560,set_tempo,240,1,0,,,,,,1090909,,,,,,,
124560,note_on,0,0,1,,,,,,,,,0,,,75,90
124660,note_on,0,0,1,,,,,,,,,0,,,63,0
124660,note_on,0,0,1,,,,,,,,,0,,,67,0
124660,note_on,100,0,2,,,,,,,,,0,,,46,0
124660,note_on,0,0,2,,,,,,,,,0,,,39,0
124660,note_on,0,0,2,,,,,,,,,0,,,51,0
124660,note_on,100,0,1,,,,,,,,,0,,,75,0
124800,note_on,0,0,2,,,,,,,,,0,,,39,82
124800,note_on,0,0,1,,,,,,,,,0,,,77,97
124800,note_on,0,0,1,,,,,,,,,0,,,68,87
124800,set_tempo,240,1,0,,,,,,1121495,,,,,,,
124800,note_on,140,0,1,,,,,,,,,0,,,65,87
124800,note_on,0,0,2,,,,,,,,,0,,,46,82
124800,note_on,140,0,2,,,,,,,,,0,,,53,82
124900,note_on,0,0,2,,,,,,,,,0,,,39,0
124900,note_on,100,0,1,,,,,,,,,0,,,77,0
124900,note_on,100,0,2,,,,,,,,,0,,,46,0
124900,note_on,0,0,1,,,,,,,,,0,,,65,0
124900,note_on,0,0,2,,,,,,,,,0,,,53,0
124900,note_on,0,0,1,,,,,,,,,0,,,68,0
125040,set_tempo,240,1,0,,,,,,1188119,,,,,,,
125040,note_on,140,0,1,,,,,,,,,0,,,66,81
125040,note_on,0,0,1,,,,,,,,,0,,,69,81
125040,note_on,0,0,1,,,,,,,,,0,,,78,90
125040,note_on,140,0,2,,,,,,,,,0,,,54,79
125040,note_on,0,0,2,,,,,,,,,0,,,46,79
125040,note_on,0,0,2,,,,,,,,,0,,,39,79
125140,note_on,0,0,1,,,,,,,,,0,,,66,0
125140,note_on,0,0,1,,,,,,,,,0,,,69,0
125140,note_on,0,0,2,,,,,,,,,0,,,54,0
125140,note_on,0,0,2,,,,,,,,,0,,,39,0
125140,note_on,100,0,1,,,,,,,,,0,,,78,0
125140,note_on,100,0,2,,,,,,,,,0,,,46,0
125280,note_on,0,0,2,,,,,,,,,0,,,46,82
125280,set_tempo,0,1,0,,,,,,1290323,,,,,,,
125280,note_on,140,0,1,,,,,,,,,0,,,70,87
125280,time_signature,240,1,0,4,4,24,8,,,,,,,,,
125280,note_on,140,0,2,,,,,,,,,0,,,55,82
125280,note_on,0,0,1,,,,,,,,,0,,,79,97
125280,note_on,0,0,1,,,,,,,,,0,,,67,87
125280,note_on,0,0,2,,,,,,,,,0,,,39,82
125520,set_tempo,240,1,0,,,,,,1165049,,,,,,,
125520,note_on,0,0,1,,,,,,,,,0,,,75,89
125520,note_on,0,0,1,,,,,,,,,0,,,70,0
125520,note_on,0,0,1,,,,,,,,,0,,,67,0
125520,note_on,0,0,1,,,,,,,,,0,,,63,80
125520,note_on,240,0,2,,,,,,,,,0,,,55,0
125520,note_on,0,0,2,,,,,,,,,0,,,51,79
125520,note_on,240,0,1,,,,,,,,,0,,,79,0
125640,note_on,0,0,1,,,,,,,,,0,,,63,0
125640,note_on,120,0,1,,,,,,,,,0,,,75,0
125640,note_on,120,0,2,,,,,,,,,0,,,51,0
125760,note_on,120,0,2,,,,,,,,,0,,,46,0
125760,note_on,0,0,2,,,,,,,,,0,,,39,0
125760,note_on,0,0,2,,,,,,,,,0,,,45,79
125760,note_on,0,0,2,,,,,,,,,0,,,57,89
125760,set_tempo,240,1,0,,,,,,1714286,,,,,,,
125766,control_change,6,0,2,,,,,,,,,0,64,127,,
125805,note_on,0,0,2,,,,,,,,,0,,,45,0
125805,note_on,39,0,2,,,,,,,,,0,,,57,0
125811,note_on,171,0,1,,,,,,,,,0,,,58,80
125811,note_on,0,0,1,,,,,,,,,0,,,70,90
125820,set_tempo,60,1,0,,,,,,1263158,,,,,,,
125828,note_on,17,0,1,,,,,,,,,0,,,70,0
125828,note_on,23,0,2,,,,,,,,,0,,,55,75
125828,note_on,0,0,1,,,,,,,,,0,,,58,0
125828,note_on,0,0,2,,,,,,,,,0,,,67,85
125840,set_tempo,20,1,0,,,,,,1250000,,,,,,,
125860,set_tempo,20,1,0,,,,,,1224490,,,,,,,
125862,note_on,34,0,1,,,,,,,,,0,,,65,73
125862,note_on,0,0,1,,,,,,,,,0,,,77,81
125879,note_on,0,0,2,,,,,,,,,0,,,55,0
125879,note_on,51,0,2,,,,,,,,,0,,,67,0
125880,set_tempo,20,1,0,,,,,,1200000,,,,,,,
125896,note_on,0,0,2,,,,,,,,,0,,,63,87
125896,note_on,17,0,2,,,,,,,,,0,,,51,76
125900,set_tempo,20,1,0,,,,,,1176471,,,,,,,
125913,note_on,51,0,1,,,,,,,,,0,,,77,0
125913,note_on,0,0,1,,,,,,,,,0,,,65,0
125920,set_tempo,20,1,0,,,,,,1153846,,,,,,,
125930,note_on,17,0,1,,,,,,,,,0,,,62,75
125930,note_on,0,0,1,,,,,,,,,0,,,74,84
125940,set_tempo,20,1,0,,,,,,1142857,,,,,,,
125947,note_on,51,0,2,,,,,,,,,0,,,63,0
125947,note_on,0,0,2,,,,,,,,,0,,,51,0
125960,set_tempo,20,1,0,,,,,,1121495,,,,,,,
125964,note_on,17,0,2,,,,,,,,,0,,,48,80
125964,note_on,0,0,2,,,,,,,,,0,,,60,90
125974,control_change,10,0,2,,,,,,,,,0,64,0,,
125980,set_tempo,20,1,0,,,,,,1100917,,,,,,,
125981,note_on,0,0,1,,,,,,,,,0,,,62,0
125981,note_on,51,0,1,,,,,,,,,0,,,74,0
125998,note_on,17,0,1,,,,,,,,,0,,,58,78
125998,note_on,0,0,1,,,,,,,,,0,,,70,89
126000,set_tempo,20,1,0,,,,,,1081081,,,,,,,
126000,control_change,26,0,2,,,,,,,,,0,64,127,,
126015,note_on,0,0,2,,,,,,,,,0,,,48,0
126015,note_on,15,0,2,,,,,,,,,0,,,60,0
126020,set_tempo,20,1,0,,,,,,1061947,,,,,,,
126032,note_on,0,0,2,,,,,,,,,0,,,56,94
126032,note_on,17,0,2,,,,,,,,,0,,,44,84
126040,set_tempo,20,1,0,,,,,,1052632,,,,,,,
126049,note_on,51,0,1,,,,,,,,,0,,,70,0
126049,note_on,0,0,1,,,,,,,,,0,,,58,0
126060,set_tempo,20,1,0,,,,,,1034483,,,,,,,
126066,note_on,0,0,1,,,,,,,,,0,,,67,91
126066,note_on,17,0,1,,,,,,,,,0,,,55,81
126080,set_tempo,20,1,0,,,,,,1016949,,,,,,,
126083,note_on,51,0,2,,,,,,,,,0,,,56,0
126083,note_on,0,0,2,,,,,,,,,0,,,44,0
126100,note_on,0,0,2,,,,,,,,,0,,,53,96
126100,set_tempo,20,1,0,,,,,,1000000,,,,,,,
126100,note_on,17,0,2,,,,,,,,,0,,,41,87
126117,note_on,51,0,1,,,,,,,,,0,,,67,0
126117,note_on,0,0,1,,,,,,,,,0,,,55,0
126120,set_tempo,20,1,0,,,,,,983607,,,,,,,
126134,note_on,17,0,1,,,,,,,,,0,,,51,86
126134,note_on,0,0,1,,,,,,,,,0,,,63,96
126140,set_tempo,20,1,0,,,,,,975610,,,,,,,
126151,note_on,51,0,2,,,,,,,,,0,,,53,0
126151,note_on,0,0,2,,,,,,,,,0,,,41,0
126160,set_tempo,20,1,0,,,,,,960000,,,,,,,
126168,note_on,17,0,2,,,,,,,,,0,,,38,89
126168,note_on,0,0,2,,,,,,,,,0,,,50,99
126180,set_tempo,20,1,0,,,,,,944882,,,,,,,
126185,note_on,0,0,1,,,,,,,,,0,,,51,0
126185,note_on,51,0,1,,,,,,,,,0,,,63,0
126200,set_tempo,20,1,0,,,,,,930233,,,,,,,
126202,note_on,17,0,1,,,,,,,,,0,,,48,87
126202,note_on,0,0,1,,,,,,,,,0,,,60,98
126219,note_on,0,0,2,,,,,,,,,0,,,38,0
126219,note_on,51,0,2,,,,,,,,,0,,,50,0
126220,set_tempo,20,1,0,,,,,,916031,,,,,,,
126240,set_tempo,20,1,0,,,,,,991736,,,,,,,
126240,control_change,21,0,2,,,,,,,,,0,64,0,,
126240,note_on,0,0,2,,,,,,,,,0,,,34,91
126240,note_on,0,0,2,,,,,,,,,0,,,46,101
126259,note_on,0,0,1,,,,,,,,,0,,,48,0
126259,note_on,57,0,1,,,,,,,,,0,,,60,0
126330,note_on,90,0,2,,,,,,,,,0,,,46,0
126330,note_on,0,0,2,,,,,,,,,0,,,34,0
126480,note_on,0,0,2,,,,,,,,,0,,,46,74
126480,note_on,221,0,1,,,,,,,,,0,,,63,79
126480,note_on,150,0,2,,,,,,,,,0,,,51,83
126480,set_tempo,240,1,0,,,,,,1153846,,,,,,,
126480,note_on,0,0,1,,,,,,,,,0,,,67,79
126480,note_on,0,0,2,,,,,,,,,0,,,39,74
126480,note_on,0,0,1,,,,,,,,,0,,,75,88
126580,note_on,0,0,1,,,,,,,,,0,,,67,0
126580,note_on,100,0,2,,,,,,,,,0,,,46,0
126580,note_on,0,0,2,,,,,,,,,0,,,51,0
126580,note_on,0,0,2,,,,,,,,,0,,,39,0
126580,note_on,100,0,1,,,,,,,,,0,,,75,0
126580,note_on,0,0,1,,,,,,,,,0,,,63,0
126720,note_on,0,0,1,,,,,,,,,0,,,68,85
126720,note_on,140,0,1,,,,,,,,,0,,,65,85
126720,note_on,0,0,2,,,,,,,,,0,,,53,88
126720,set_tempo,240,1,0,,,,,,1200000,,,,,,,
126720,note_on,0,0,1,,,,,,,,,0,,,77,95
126720,note_on,140,0,2,,,,,,,,,0,,,51,88
126720,note_on,0,0,2,,,,,,,,,0,,,46,79
126720,note_on,0,0,2,,,,,,,,,0,,,39,79
126820,note_on,100,0,1,,,,,,,,,0,,,77,0
126820,note_on,0,0,2,,,,,,,,,0,,,51,0
126820,note_on,0,0,2,,,,,,,,,0,,,53,0
126820,note_on,0,0,2,,,,,,,,,0,,,39,0
126820,note_on,0,0,1,,,,,,,,,0,,,65,0
126820,note_on,0,0,1,,,,,,,,,0,,,68,0
126820,note_on,100,0,2,,,,,,,,,0,,,46,0
126960,set_tempo,240,1,0,,,,,,1379310,,,,,,,
126960,note_on,0,0,1,,,,,,,,,0,,,79,88
126960,note_on,140,0,2,,,,,,,,,0,,,55,83
126960,note_on,140,0,1,,,,,,,,,0,,,67,79
126960,note_on,0,0,1,,,,,,,,,0,,,70,79
126960,note_on,0,0,2,,,,,,,,,0,,,39,74
126960,note_on,0,0,2,,,,,,,,,0,,,46,74
127060,note_on,0,0,1,,,,,,,,,0,,,70,0
127060,note_on,100,0,2,,,,,,,,,0,,,46,0
127060,note_on,100,0,1,,,,,,,,,0,,,79,0
127060,note_on,0,0,1,,,,,,,,,0,,,67,0
127060,note_on,0,0,2,,,,,,,,,0,,,55,0
127060,note_on,0,0,2,,,,,,,,,0,,,39,0
127200,note_on,0,0,2,,,,,,,,,0,,,39,72
127200,note_on,140,0,1,,,,,,,,,0,,,70,74
127200,note_on,0,0,1,,,,,,,,,0,,,67,74
127200,note_on,0,0,1,,,,,,,,,0,,,75,83
127200,set_tempo,240,1,0,,,,,,1224490,,,,,,,
127200,note_on,0,0,2,,,,,,,,,0,,,46,72
127200,note_on,140,0,2,,,,,,,,,0,,,55,80
127660,note_on,0,0,2,,,,,,,,,0,,,55,0
127660,note_on,0,0,2,,,,,,,,,0,,,39,0
127660,note_on,0,0,1,,,,,,,,,0,,,67,0
127660,note_on,0,0,1,,,,,,,,,0,,,70,0
127660,note_on,460,0,1,,,,,,,,,0,,,75,0
127660,note_on,460,0,2,,,,,,,,,0,,,46,0
127680,set_tempo,480,1,0,,,,,,1043478,,,,,,,
127680,note_on,20,0,1,,,,,,,,,0,,,93,46
127710,note_on,30,0,1,,,,,,,,,0,,,93,0
127712,note_on,2,0,1,,,,,,,,,0,,,94,41
127740,set_tempo,60,1,0,,,,,,902256,,,,,,,
127742,note_on,30,0,1,,,,,,,,,0,,,94,0
127744,note_on,2,0,1,,,,,,,,,0,,,99,43
127768,note_on,24,0,1,,,,,,,,,0,,,99,0
127770,note_on,2,0,1,,,,,,,,,0,,,96,41
127794,note_on,24,0,1,,,,,,,,,0,,,96,0
127796,note_on,2,0,1,,,,,,,,,0,,,94,41
127820,note_on,24,0,1,,,,,,,,,0,,,94,0
127820,set_tempo,80,1,0,,,,,,895522,,,,,,,
127822,note_on,2,0,1,,,,,,,,,0,,,92,40
127846,note_on,24,0,1,,,,,,,,,0,,,92,0
127848,note_on,2,0,1,,,,,,,,,0,,,91,37
127872,note_on,24,0,1,,,,,,,,,0,,,91,0
127874,note_on,214,0,2,,,,,,,,,0,,,89,42
127880,set_tempo,60,1,0,,,,,,888889,,,,,,,
127898,note_on,24,0,2,,,,,,,,,0,,,89,0
127900,note_on,2,0,2,,,,,,,,,0,,,87,42
127924,note_on,24,0,2,,,,,,,,,0,,,87,0
127926,note_on,2,0,2,,,,,,,,,0,,,86,41
127940,set_tempo,60,1,0,,,,,,882353,,,,,,,
127950,note_on,24,0,2,,,,,,,,,0,,,86,0
127952,note_on,2,0,2,,,,,,,,,0,,,84,41
127976,note_on,24,0,2,,,,,,,,,0,,,84,0
127978,note_on,2,0,2,,,,,,,,,0,,,82,41
128002,note_on,24,0,2,,,,,,,,,0,,,82,0
128004,note_on,2,0,2,,,,,,,,,0,,,80,41
128020,set_tempo,80,1,0,,,,,,875912,,,,,,,
128028,note_on,24,0,2,,,,,,,,,0,,,80,0
128030,note_on,2,0,2,,,,,,,,,0,,,79,41
128054,note_on,24,0,2,,,,,,,,,0,,,79,0
128056,note_on,2,0,2,,,,,,,,,0,,,77,41
128080,note_on,24,0,2,,,,,,,,,0,,,77,0
128080,set_tempo,60,1,0,,,,,,869565,,,,,,,
128082,note_on,2,0,2,,,,,,,,,0,,,75,41
128106,note_on,24,0,2,,,,,,,,,0,,,75,0
128108,note_on,2,0,2,,,,,,,,,0,,,74,41
128132,note_on,24,0,2,,,,,,,,,0,,,74,0
128136,note_on,4,0,2,,,,,,,,,0,,,72,41
128140,set_tempo,60,1,0,,,,,,863309,,,,,,,
128160,note_on,24,0,2,,,,,,,,,0,,,72,0
128160,note_on,0,0,2,,,,,,,,,0,,,70,46
128160,set_tempo,20,1,0,,,,,,1100917,,,,,,,
128250,note_on,90,0,2,,,,,,,,,0,,,70,0
128380,set_tempo,220,1,0,,,,,,1153846,,,,,,,
128400,note_on,0,0,1,,,,,,,,,0,,,63,37
128400,set_tempo,20,1,0,,,,,,1153846,,,,,,,
128400,note_on,0,0,1,,,,,,,,,0,,,58,33
128400,note_on,150,0,2,,,,,,,,,0,,,51,33
128400,note_on,528,0,1,,,,,,,,,0,,,55,33
128490,note_on,90,0,2,,,,,,,,,0,,,51,0
128490,note_on,90,0,1,,,,,,,,,0,,,63,0
128490,note_on,0,0,1,,,,,,,,,0,,,55,0
128490,note_on,0,0,1,,,,,,,,,0,,,58,0
128640,note_on,150,0,1,,,,,,,,,0,,,56,35
128640,set_tempo,240,1,0,,,,,,1224490,,,,,,,
128640,note_on,150,0,2,,,,,,,,,0,,,50,36
128640,note_on,0,0,1,,,,,,,,,0,,,65,40
128640,note_on,0,0,1,,,,,,,,,0,,,59,35
128730,note_on,90,0,2,,,,,,,,,0,,,50,0
128730,note_on,90,0,1,,,,,,,,,0,,,65,0
128730,note_on,0,0,1,,,,,,,,,0,,,59,0
128730,note_on,0,0,1,,,,,,,,,0,,,56,0
128880,set_tempo,240,1,0,,,,,,1333333,,,,,,,
128880,note_on,150,0,1,,,,,,,,,0,,,57,34
128880,note_on,150,0,2,,,,,,,,,0,,,38,34
128880,note_on,0,0,1,,,,,,,,,0,,,60,34
128880,note_on,0,0,1,,,,,,,,,0,,,66,39
128970,note_on,0,0,1,,,,,,,,,0,,,57,0
128970,note_on,90,0,2,,,,,,,,,0,,,38,0
128970,note_on,0,0,1,,,,,,,,,0,,,60,0
128970,note_on,90,0,1,,,,,,,,,0,,,66,0
129120,note_on,150,0,1,,,,,,,,,0,,,59,34
129120,control_change,150,0,2,,,,,,,,,0,64,127,,
129120,note_on,0,0,2,,,,,,,,,0,,,43,33
129120,set_tempo,240,1,0,,,,,,1395349,,,,,,,
129120,note_on,0,0,2,,,,,,,,,0,,,50,33
129120,note_on,0,0,1,,,,,,,,,0,,,67,39
129358,control_change,238,0,2,,,,,,,,,0,64,0,,
129360,note_on,0,0,1,,,,,,,,,0,,,55,32
129360,note_on,0,0,1,,,,,,,,,0,,,59,0
129360,set_tempo,240,1,0,,,,,,1690141,,,,,,,
129360,note_on,0,0,1,,,,,,,,,0,,,62,36
129360,note_on,240,0,1,,,,,,,,,0,,,67,0
129360,note_on,2,0,2,,,,,,,,,0,,,50,0
129360,note_on,0,0,2,,,,,,,,,0,,,47,31
129480,note_on,120,0,1,,,,,,,,,0,,,62,0
129480,note_on,120,0,2,,,,,,,,,0,,,47,0
129480,note_on,0,0,1,,,,,,,,,0,,,55,0
129600,note_on,120,0,1,,,,,,,,,0,,,94,31
129600,note_on,120,0,2,,,,,,,,,0,,,43,0
129600,set_tempo,240,1,0,,,,,,1071429,,,,,,,
129600,note_on,0,0,2,,,,,,,,,0,,,90,31
129630,note_on,30,0,1,,,,,,,,,0,,,94,0
129630,note_on,30,0,2,,,,,,,,,0,,,90,0
129630,note_on,0,0,2,,,,,,,,,0,,,91,31
129630,note_on,0,0,1,,,,,,,,,0,,,95,31
129660,note_on,30,0,2,,,,,,,,,0,,,91,0
129660,note_on,0,0,2,,,,,,,,,0,,,95,33
129660,note_on,0,0,1,,,,,,,,,0,,,103,33
129660,note_on,30,0,1,,,,,,,,,0,,,95,0
129690,note_on,0,0,1,,,,,,,,,0,,,102,33
129690,note_on,30,0,1,,,,,,,,,0,,,103,0
129690,note_on,30,0,2,,,,,,,,,0,,,95,0
129690,note_on,0,0,2,,,,,,,,,0,,,93,33
129720,note_on,0,0,2,,,,,,,,,0,,,91,33
129720,note_on,30,0,2,,,,,,,,,0,,,93,0
129720,set_tempo,120,1,0,,,,,,991736,,,,,,,
129720,note_on,0,0,1,,,,,,,,,0,,,100,33
129720,note_on,30,0,1,,,,,,,,,0,,,102,0
129750,note_on,0,0,2,,,,,,,,,0,,,90,33
129750,note_on,30,0,1,,,,,,,,,0,,,100,0
129750,note_on,30,0,2,,,,,,,,,0,,,91,0
129750,note_on,0,0,1,,,,,,,,,0,,,98,33
129780,note_on,0,0,2,,,,,,,,,0,,,88,33
129780,set_tempo,60,1,0,,,,,,983607,,,,,,,
129780,note_on,0,0,1,,,,,,,,,0,,,96,33
129780,note_on,30,0,2,,,,,,,,,0,,,90,0
129780,note_on,30,0,1,,,,,,,,,0,,,98,0
129810,note_on,0,0,1,,,,,,,,,0,,,95,32
129810,note_on,0,0,2,,,,,,,,,0,,,86,32
129810,note_on,30,0,1,,,,,,,,,0,,,96,0
129810,note_on,30,0,2,,,,,,,,,0,,,88,0
129840,note_on,0,0,1,,,,,,,,,0,,,93,32
129840,note_on,30,0,1,,,,,,,,,0,,,95,0
129840,set_tempo,60,1,0,,,,,,975610,,,,,,,
129840,note_on,30,0,2,,,,,,,,,0,,,86,0
129840,note_on,0,0,2,,,,,,,,,0,,,84,32
129870,note_on,0,0,2,,,,,,,,,0,,,83,32
129870,note_on,30,0,1,,,,,,,,,0,,,93,0
129870,note_on,0,0,1,,,,,,,,,0,,,91,32
129870,note_on,30,0,2,,,,,,,,,0,,,84,0
129900,note_on,30,0,2,,,,,,,,,0,,,83,0
129900,set_tempo,60,1,0,,,,,,967742,,,,,,,
129900,note_on,0,0,1,,,,,,,,,0,,,90,32
129900,note_on,0,0,2,,,,,,,,,0,,,81,32
129900,note_on,30,0,1,,,,,,,,,0,,,91,0
129930,note_on,30,0,2,,,,,,,,,0,,,81,0
129930,note_on,0,0,2,,,,,,,,,0,,,79,32
129930,note_on,0,0,1,,,,,,,,,0,,,88,32
129930,note_on,30,0,1,,,,,,,,,0,,,90,0
129960,note_on,30,0,1,,,,,,,,,0,,,88,0
129960,note_on,0,0,2,,,,,,,,,0,,,78,31
129960,note_on,30,0,2,,,,,,,,,0,,,79,0
129960,note_on,0,0,1,,,,,,,,,0,,,86,31
129960,set_tempo,60,1,0,,,,,,960000,,,,,,,
129990,note_on,30,0,1,,,,,,,,,0,,,86,0
129990,note_on,0,0,2,,,,,,,,,0,,,76,31
129990,note_on,30,0,2,,,,,,,,,0,,,78,0
129990,note_on,0,0,1,,,,,,,,,0,,,84,31
130020,note_on,30,0,2,,,,,,,,,0,,,76,0
130020,note_on,0,0,2,,,,,,,,,0,,,74,31
130020,set_tempo,60,1,0,,,,,,952381,,,,,,,
130020,note_on,30,0,1,,,,,,,,,0,,,84,0
130020,note_on,0,0,1,,,,,,,,,0,,,83,31
130050,note_on,0,0,1,,,,,,,,,0,,,81,31
130050,note_on,30,0,2,,,,,,,,,0,,,74,0
130050,note_on,0,0,2,,,,,,,,,0,,,72,31
130050,note_on,30,0,1,,,,,,,,,0,,,83,0
130060,set_tempo,40,1,0,,,,,,944882,,,,,,,
130080,note_on,0,0,1,,,,,,,,,0,,,79,31
130080,note_on,0,0,2,,,,,,,,,0,,,71,31
130080,note_on,30,0,2,,,,,,,,,0,,,72,0
130080,note_on,30,0,1,,,,,,,,,0,,,81,0
130080,set_tempo,20,1,0,,,,,,1200000,,,,,,,
130170,note_on,90,0,1,,,,,,,,,0,,,79,0
130170,note_on,90,0,2,,,,,,,,,0,,,71,0
130320,note_on,0,0,1,,,,,,,,,0,,,67,41
130320,note_on,0,0,1,,,,,,,,,0,,,64,36
130320,set_tempo,240,1,0,,,,,,1363636,,,,,,,
130320,note_on,150,0,2,,,,,,,,,0,,,48,36
130320,note_on,150,0,1,,,,,,,,,0,,,60,36
130540,note_on,0,0,1,,,,,,,,,0,,,64,0
130540,note_on,220,0,1,,,,,,,,,0,,,67,0
130540,note_on,0,0,1,,,,,,,,,0,,,60,0
130540,note_on,220,0,2,,,,,,,,,0,,,48,0
130560,note_on,0,0,1,,,,,,,,,0,,,65,36
130560,note_on,0,0,1,,,,,,,,,0,,,68,41
130560,note_on,20,0,1,,,,,,,,,0,,,60,36
130560,note_on,20,0,2,,,,,,,,,0,,,41,40
130560,set_tempo,240,1,0,,,,,,1481481,,,,,,,
130760,note_on,200,0,2,,,,,,,,,0,,,41,0
130760,note_on,200,0,1,,,,,,,,,0,,,65,0
130760,note_on,0,0,1,,,,,,,,,0,,,60,0
130760,note_on,0,0,1,,,,,,,,,0,,,68,0
130800,note_on,0,0,2,,,,,,,,,0,,,46,39
130800,note_on,0,0,1,,,,,,,,,0,,,62,34
130800,note_on,40,0,2,,,,,,,,,0,,,34,39
130800,note_on,0,0,1,,,,,,,,,0,,,70,39
130800,set_tempo,240,1,0,,,,,,1935484,,,,,,,
130800,note_on,40,0,1,,,,,,,,,0,,,56,34
131020,note_on,0,0,1,,,,,,,,,0,,,62,0
131020,note_on,0,0,1,,,,,,,,,0,,,56,0
131020,note_on,220,0,1,,,,,,,,,0,,,70,0
131020,note_on,0,0,2,,,,,,,,,0,,,34,0
131020,note_on,220,0,2,,,,,,,,,0,,,46,0
131040,note_on,0,0,1,,,,,,,,,0,,,63,33
131040,set_tempo,240,1,0,,,,,,1967213,,,,,,,
131040,note_on,0,0,1,,,,,,,,,0,,,70,37
131040,note_on,20,0,2,,,,,,,,,0,,,39,39
131040,note_on,20,0,1,,,,,,,,,0,,,55,33
131040,note_on,0,0,2,,,,,,,,,0,,,46,39
131490,note_on,0,0,1,,,,,,,,,0,,,55,0
131490,note_on,0,0,1,,,,,,,,,0,,,63,0
131490,note_on,450,0,2,,,,,,,,,0,,,46,0
131490,note_on,450,0,1,,,,,,,,,0,,,70,0
131490,note_on,0,0,2,,,,,,,,,0,,,39,0
131520,set_tempo,480,1,0,,,,,,1000000,,,,,,,
131520,note_on,30,0,2,,,,,,,,,0,,,57,44
131520,marker,0,1,0,,,,,,,,,,,,,
131559,note_on,39,0,2,,,,,,,,,0,,,57,0
131560,note_on,1,0,2,,,,,,,,,0,,,58,48
131599,note_on,39,0,2,,,,,,,,,0,,,58,0
131600,note_on,1,0,2,,,,,,,,,0,,,63,49
131600,set_tempo,80,1,0,,,,,,967742,,,,,,,
131639,note_on,39,0,2,,,,,,,,,0,,,63,0
131640,note_on,1,0,2,,,,,,,,,0,,,62,48
131640,set_tempo,40,1,0,,,,,,975610,,,,,,,
131679,note_on,39,0,2,,,,,,,,,0,,,62,0
131680,note_on,1,0,2,,,,,,,,,0,,,60,48
131680,set_tempo,40,1,0,,,,,,983607,,,,,,,
131700,set_tempo,20,1,0,,,,,,991736,,,,,,,
131719,note_on,39,0,2,,,,,,,,,0,,,60,0
131720,note_on,1,0,2,,,,,,,,,0,,,58,47
131740,set_tempo,40,1,0,,,,,,1000000,,,,,,,
131759,note_on,39,0,2,,,,,,,,,0,,,58,0
131760,note_on,1,0,2,,,,,,,,,0,,,56,46
131760,set_tempo,20,1,0,,,,,,1008403,,,,,,,
131799,note_on,39,0,2,,,,,,,,,0,,,56,0
131800,set_tempo,40,1,0,,,,,,1016949,,,,,,,
131800,note_on,1,0,2,,,,,,,,,0,,,55,46
131839,note_on,39,0,2,,,,,,,,,0,,,55,0
131840,set_tempo,40,1,0,,,,,,1025641,,,,,,,
131840,note_on,1,0,2,,,,,,,,,0,,,53,44
131860,set_tempo,20,1,0,,,,,,1034483,,,,,,,
131879,note_on,39,0,2,,,,,,,,,0,,,53,0
131880,note_on,1,0,2,,,,,,,,,0,,,51,44
131900,set_tempo,40,1,0,,,,,,1043478,,,,,,,
131919,note_on,39,0,2,,,,,,,,,0,,,51,0
131920,set_tempo,20,1,0,,,,,,1052632,,,,,,,
131920,note_on,1,0,2,,,,,,,,,0,,,50,44
131959,note_on,39,0,2,,,,,,,,,0,,,50,0
131960,note_on,1,0,2,,,,,,,,,0,,,48,44
131960,set_tempo,40,1,0,,,,,,1061947,,,,,,,
131980,set_tempo,20,1,0,,,,,,1071429,,,,,,,
131999,note_on,39,0,2,,,,,,,,,0,,,48,0
132000,set_tempo,20,1,0,,,,,,1666667,,,,,,,
132000,note_on,1,0,2,,,,,,,,,0,,,47,47
132240,set_tempo,240,1,0,,,,,,1237113,,,,,,,
132240,note_on,0,0,2,,,,,,,,,0,,,54,32
132240,note_on,240,0,2,,,,,,,,,0,,,39,28
132240,note_on,750,0,1,,,,,,,,,0,,,87,43
132240,note_on,0,0,2,,,,,,,,,0,,,45,28
132240,note_on,0,0,1,,,,,,,,,0,,,75,39
132240,note_on,0,0,1,,,,,,,,,0,,,83,39
132440,note_on,0,0,1,,,,,,,,,0,,,87,0
132440,note_on,200,0,2,,,,,,,,,0,,,54,0
132440,note_on,0,0,2,,,,,,,,,0,,,45,0
132440,note_on,0,0,2,,,,,,,,,0,,,39,0
132440,note_on,200,0,1,,,,,,,,,0,,,75,0
132440,note_on,0,0,1,,,,,,,,,0,,,83,0
132480,note_on,40,0,1,,,,,,,,,0,,,89,46
132480,note_on,0,0,1,,,,,,,,,0,,,75,41
132480,note_on,0,0,1,,,,,,,,,0,,,83,41
132480,note_on,40,0,2,,,,,,,,,0,,,39,31
132480,note_on,0,0,2,,,,,,,,,0,,,45,31
132480,note_on,0,0,2,,,,,,,,,0,,,54,35
132480,set_tempo,240,1,0,,,,,,1263158,,,,,,,
132680,note_on,200,0,2,,,,,,,,,0,,,54,0
132680,note_on,200,0,1,,,,,,,,,0,,,75,0
132680,note_on,0,0,2,,,,,,,,,0,,,39,0
132680,note_on,0,0,1,,,,,,,,,0,,,89,0
132680,note_on,0,0,2,,,,,,,,,0,,,45,0
132680,note_on,0,0,1,,,,,,,,,0,,,83,0
132720,note_on,0,0,1,,,,,,,,,0,,,83,42
132720,set_tempo,240,1,0,,,,,,1304348,,,,,,,
132720,note_on,40,0,2,,,,,,,,,0,,,39,31
132720,note_on,0,0,1,,,,,,,,,0,,,75,42
132720,note_on,0,0,2,,,,,,,,,0,,,45,31
132720,note_on,0,0,2,,,,,,,,,0,,,54,35
132720,note_on,40,0,1,,,,,,,,,0,,,90,48
132900,note_on,0,0,1,,,,,,,,,0,,,83,0
132900,note_on,0,0,1,,,,,,,,,0,,,90,0
132900,note_on,0,0,2,,,,,,,,,0,,,45,0
132900,set_tempo,180,1,0,,,,,,2000000,,,,,,,
132900,note_on,180,0,1,,,,,,,,,0,,,75,0
132900,note_on,180,0,2,,,,,,,,,0,,,54,0
132900,note_on,0,0,2,,,,,,,,,0,,,39,0
132910,note_on,10,0,2,,,,,,,,,0,,,39,33
132920,note_on,10,0,2,,,,,,,,,0,,,46,37
132930,note_on,10,0,2,,,,,,,,,0,,,55,37
132949,note_on,49,0,1,,,,,,,,,0,,,75,39
132950,note_on,1,0,1,,,,,,,,,0,,,82,39
132960,note_on,30,0,2,,,,,,,,,0,,,47,0
132960,note_on,10,0,1,,,,,,,,,0,,,91,43
132960,set_tempo,60,1,0,,,,,,1363636,,,,,,,
133200,note_on,0,0,2,,,,,,,,,0,,,46,0
133200,note_on,0,0,1,,,,,,,,,0,,,87,40
133200,note_on,0,0,2,,,,,,,,,0,,,55,0
133200,note_on,240,0,2,,,,,,,,,0,,,39,0
133200,note_on,240,0,1,,,,,,,,,0,,,91,0
133200,set_tempo,240,1,0,,,,,,1558442,,,,,,,
133320,note_on,120,0,1,,,,,,,,,0,,,87,0
133440,set_tempo,240,1,0,,,,,,1090909,,,,,,,
133440,note_on,240,0,2,,,,,,,,,0,,,57,42
133440,note_on,120,0,1,,,,,,,,,0,,,82,0
133449,note_on,9,0,1,,,,,,,,,0,,,75,0
133469,note_on,29,0,2,,,,,,,,,0,,,57,0
133474,note_on,5,0,2,,,,,,,,,0,,,58,46
133500,set_tempo,60,1,0,,,,,,1016949,,,,,,,
133503,note_on,29,0,2,,,,,,,,,0,,,58,0
133508,note_on,5,0,2,,,,,,,,,0,,,67,47
133537,note_on,29,0,2,,,,,,,,,0,,,67,0
133542,note_on,5,0,2,,,,,,,,,0,,,65,47
133560,set_tempo,60,1,0,,,,,,1025641,,,,,,,
133571,note_on,29,0,2,,,,,,,,,0,,,65,0
133576,note_on,5,0,2,,,,,,,,,0,,,63,47
133600,set_tempo,40,1,0,,,,,,1034483,,,,,,,
133605,note_on,29,0,2,,,,,,,,,0,,,63,0
133610,note_on,5,0,2,,,,,,,,,0,,,62,47
133639,note_on,29,0,2,,,,,,,,,0,,,62,0
133640,set_tempo,40,1,0,,,,,,1043478,,,,,,,
133644,note_on,5,0,2,,,,,,,,,0,,,60,46
133673,note_on,29,0,2,,,,,,,,,0,,,60,0
133678,note_on,5,0,2,,,,,,,,,0,,,58,46
133680,set_tempo,40,1,0,,,,,,1052632,,,,,,,
133707,note_on,29,0,2,,,,,,,,,0,,,58,0
133712,note_on,5,0,2,,,,,,,,,0,,,56,46
133720,set_tempo,40,1,0,,,,,,1061947,,,,,,,
133741,note_on,29,0,2,,,,,,,,,0,,,56,0
133746,note_on,5,0,2,,,,,,,,,0,,,55,46
133760,set_tempo,40,1,0,,,,,,1071429,,,,,,,
133775,note_on,29,0,2,,,,,,,,,0,,,55,0
133780,note_on,5,0,2,,,,,,,,,0,,,53,44
133800,set_tempo,40,1,0,,,,,,1081081,,,,,,,
133809,note_on,29,0,2,,,,,,,,,0,,,53,0
133814,note_on,5,0,2,,,,,,,,,0,,,51,44
133840,set_tempo,40,1,0,,,,,,1090909,,,,,,,
133843,note_on,29,0,2,,,,,,,,,0,,,51,0
133848,note_on,5,0,2,,,,,,,,,0,,,50,44
133877,note_on,29,0,2,,,,,,,,,0,,,50,0
133880,set_tempo,40,1,0,,,,,,1100917,,,,,,,
133882,note_on,5,0,2,,,,,,,,,0,,,48,42
133915,note_on,33,0,2,,,,,,,,,0,,,48,0
133920,set_tempo,40,1,0,,,,,,1690141,,,,,,,
133920,note_on,5,0,2,,,,,,,,,0,,,46,46
134160,note_on,0,0,1,,,,,,,,,0,,,61,37
134160,note_on,240,0,2,,,,,,,,,0,,,40,39
134160,note_on,711,0,1,,,,,,,,,0,,,58,37
134160,set_tempo,240,1,0,,,,,,1481481,,,,,,,
134160,note_on,0,0,1,,,,,,,,,0,,,67,42
134400,note_on,0,0,2,,,,,,,,,0,,,41,42
134400,note_on,0,0,1,,,,,,,,,0,,,60,40
134400,note_on,0,0,1,,,,,,,,,0,,,58,0
134400,note_on,0,0,1,,,,,,,,,0,,,58,40
134400,note_on,0,0,1,,,,,,,,,0,,,61,0
134400,note_on,0,0,1,,,,,,,,,0,,,68,44
134400,note_on,240,0,1,,,,,,,,,0,,,67,0
134400,set_tempo,240,1,0,,,,,,1600000,,,,,,,
134400,note_on,240,0,2,,,,,,,,,0,,,40,0
134620,note_on,0,0,1,,,,,,,,,0,,,58,0
134620,note_on,220,0,1,,,,,,,,,0,,,68,0
134620,note_on,220,0,2,,,,,,,,,0,,,41,0
134620,note_on,0,0,1,,,,,,,,,0,,,60,0
134640,set_tempo,240,1,0,,,,,,1818182,,,,,,,
134640,note_on,20,0,2,,,,,,,,,0,,,34,37
134640,note_on,0,0,1,,,,,,,,,0,,,62,33
134640,note_on,20,0,1,,,,,,,,,0,,,68,39
134640,note_on,0,0,1,,,,,,,,,0,,,72,44
134640,note_on,0,0,1,,,,,,,,,0,,,58,33
134820,note_on,180,0,1,,,,,,,,,0,,,72,0
134820,note_on,0,0,1,,,,,,,,,0,,,67,34
134820,note_on,0,0,1,,,,,,,,,0,,,68,0
134820,note_on,0,0,1,,,,,,,,,0,,,70,39
134820,set_tempo,180,1,0,,,,,,2222222,,,,,,,
134880,note_on,240,0,2,,,,,,,,,0,,,34,0
134880,note_on,0,0,1,,,,,,,,,0,,,67,0
134880,note_on,0,0,2,,,,,,,,,0,,,39,36
134880,note_on,0,0,1,,,,,,,,,0,,,58,0
134880,note_on,0,0,1,,,,,,,,,0,,,62,0
134880,set_tempo,60,1,0,,,,,,1518987,,,,,,,
134880,note_on,0,0,1,,,,,,,,,0,,,67,37
134880,note_on,60,0,1,,,,,,,,,0,,,70,0
134880,note_on,0,0,1,,,,,,,,,0,,,63,33
135360,note_on,480,0,1,,,,,,,,,0,,,67,0
135360,note_on,480,0,2,,,,,,,,,0,,,39,0
135360,set_tempo,480,1,0,,,,,,1000000,,,,,,,
135360,note_on,0,0,1,,,,,,,,,0,,,93,41
135360,note_on,0,0,2,,,,,,,,,0,,,46,0
135360,note_on,0,0,1,,,,,,,,,0,,,63,0
135390,note_on,30,0,1,,,,,,,,,0,,,93,0
135392,note_on,2,0,1,,,,,,,,,0,,,94,36
135422,note_on,30,0,1,,,,,,,,,0,,,94,0
135424,note_on,2,0,1,,,,,,,,,0,,,99,39
135440,set_tempo,80,1,0,,,,,,967742,,,,,,,
135448,note_on,24,0,1,,,,,,,,,0,,,99,0
135450,note_on,2,0,1,,,,,,,,,0,,,96,36
135474,note_on,24,0,1,,,,,,,,,0,,,96,0
135476,note_on,2,0,1,,,,,,,,,0,,,94,36
135480,set_tempo,40,1,0,,,,,,975610,,,,,,,
135500,note_on,24,0,1,,,,,,,,,0,,,94,0
135502,note_on,2,0,1,,,,,,,,,0,,,92,35
135520,set_tempo,40,1,0,,,,,,983607,,,,,,,
135526,note_on,24,0,1,,,,,,,,,0,,,92,0
135528,note_on,2,0,1,,,,,,,,,0,,,91,33
135540,set_tempo,20,1,0,,,,,,991736,,,,,,,
135552,note_on,24,0,1,,,,,,,,,0,,,91,0
135554,note_on,194,0,2,,,,,,,,,0,,,89,37
135578,note_on,24,0,2,,,,,,,,,0,,,89,0
135580,note_on,2,0,2,,,,,,,,,0,,,87,37
135580,set_tempo,40,1,0,,,,,,1000000,,,,,,,
135600,set_tempo,20,1,0,,,,,,1008403,,,,,,,
135604,note_on,24,0,2,,,,,,,,,0,,,87,0
135606,note_on,2,0,2,,,,,,,,,0,,,86,36
135630,note_on,24,0,2,,,,,,,,,0,,,86,0
135632,note_on,2,0,2,,,,,,,,,0,,,84,36
135640,set_tempo,40,1,0,,,,,,1016949,,,,,,,
135656,note_on,24,0,2,,,,,,,,,0,,,84,0
135658,note_on,2,0,2,,,,,,,,,0,,,82,36
135680,set_tempo,40,1,0,,,,,,1025641,,,,,,,
135682,note_on,24,0,2,,,,,,,,,0,,,82,0
135684,note_on,2,0,2,,,,,,,,,0,,,80,36
135700,set_tempo,20,1,0,,,,,,1034483,,,,,,,
135708,note_on,24,0,2,,,,,,,,,0,,,80,0
135710,note_on,2,0,2,,,,,,,,,0,,,79,36
135734,note_on,24,0,2,,,,,,,,,0,,,79,0
135736,note_on,2,0,2,,,,,,,,,0,,,77,36
135740,set_tempo,40,1,0,,,,,,1043478,,,,,,,
135760,note_on,24,0,2,,,,,,,,,0,,,77,0
135760,set_tempo,20,1,0,,,,,,1052632,,,,,,,
135762,note_on,2,0,2,,,,,,,,,0,,,75,36
135786,note_on,24,0,2,,,,,,,,,0,,,75,0
135788,note_on,2,0,2,,,,,,,,,0,,,74,36
135800,set_tempo,40,1,0,,,,,,1061947,,,,,,,
135812,note_on,24,0,2,,,,,,,,,0,,,74,0
135816,note_on,4,0,2,,,,,,,,,0,,,72,36
135820,set_tempo,20,1,0,,,,,,1071429,,,,,,,
135840,note_on,24,0,2,,,,,,,,,0,,,72,0
135840,set_tempo,20,1,0,,,,,,1463415,,,,,,,
135840,note_on,0,0,2,,,,,,,,,0,,,71,41
136080,set_tempo,240,1,0,,,,,,1250000,,,,,,,
136080,note_on,0,0,2,,,,,,,,,0,,,66,40
136080,note_on,528,0,1,,,,,,,,,0,,,69,39
136080,note_on,0,0,1,,,,,,,,,0,,,75,39
136080,note_on,240,0,2,,,,,,,,,0,,,59,35
136080,note_on,0,0,1,,,,,,,,,0,,,83,43
136280,note_on,200,0,2,,,,,,,,,0,,,66,0
136280,note_on,0,0,2,,,,,,,,,0,,,59,0
136280,note_on,0,0,1,,,,,,,,,0,,,69,0
136280,note_on,200,0,1,,,,,,,,,0,,,83,0
136280,note_on,0,0,1,,,,,,,,,0,,,75,0
136320,note_on,0,0,1,,,,,,,,,0,,,83,46
136320,note_on,0,0,1,,,,,,,,,0,,,76,41
136320,note_on,40,0,2,,,,,,,,,0,,,59,35
136320,set_tempo,240,1,0,,,,,,1212121,,,,,,,
136320,note_on,40,0,1,,,,,,,,,0,,,69,39
136320,note_on,0,0,2,,,,,,,,,0,,,64,40
136520,note_on,0,0,1,,,,,,,,,0,,,83,0
136520,note_on,0,0,1,,,,,,,,,0,,,69,0
136520,note_on,200,0,2,,,,,,,,,0,,,64,0
136520,note_on,200,0,1,,,,,,,,,0,,,76,0
136520,note_on,0,0,2,,,,,,,,,0,,,59,0
136560,note_on,0,0,1,,,,,,,,,0,,,78,42
136560,set_tempo,240,1,0,,,,,,1250000,,,,,,,
136560,note_on,40,0,1,,,,,,,,,0,,,69,42
136560,note_on,40,0,2,,,,,,,,,0,,,59,35
136560,note_on,0,0,2,,,,,,,,,0,,,63,40
136560,note_on,0,0,1,,,,,,,,,0,,,83,48
136740,note_on,0,0,1,,,,,,,,,0,,,78,0
136740,note_on,180,0,1,,,,,,,,,0,,,83,0
136740,note_on,0,0,1,,,,,,,,,0,,,69,0
136740,note_on,180,0,2,,,,,,,,,0,,,63,0
136760,note_on,20,0,2,,,,,,,,,0,,,59,0
136800,note_on,0,0,1,,,,,,,,,0,,,83,50
136800,set_tempo,240,1,0,,,,,,1318681,,,,,,,
136800,note_on,0,0,2,,,,,,,,,0,,,64,40
136800,note_on,0,0,2,,,,,,,,,0,,,68,44
136800,note_on,60,0,1,,,,,,,,,0,,,80,44
136800,note_on,40,0,2,,,,,,,,,0,,,71,0
137040,set_tempo,240,1,0,,,,,,1558442,,,,,,,
137040,note_on,0,0,1,,,,,,,,,0,,,88,43
137040,note_on,240,0,2,,,,,,,,,0,,,68,0
137040,note_on,240,0,1,,,,,,,,,0,,,83,0
137040,note_on,0,0,2,,,,,,,,,0,,,71,33
137040,note_on,0,0,2,,,,,,,,,0,,,64,0
137040,note_on,0,0,1,,,,,,,,,0,,,80,0
137040,note_on,0,0,1,,,,,,,,,0,,,92,49
137040,note_on,0,0,2,,,,,,,,,0,,,76,37
137160,note_on,120,0,2,,,,,,,,,0,,,76,0
137160,note_on,120,0,1,,,,,,,,,0,,,88,0
137160,note_on,0,0,2,,,,,,,,,0,,,71,0
137160,note_on,0,0,1,,,,,,,,,0,,,92,0
137280,set_tempo,240,1,0,,,,,,1000000,,,,,,,
137280,note_on,120,0,1,,,,,,,,,0,,,70,41
137312,note_on,0,0,1,,,,,,,,,0,,,71,36
137312,note_on,32,0,1,,,,,,,,,0,,,70,0
137344,note_on,0,0,1,,,,,,,,,0,,,80,40
137344,note_on,32,0,1,,,,,,,,,0,,,71,0
137360,set_tempo,80,1,0,,,,,,967742,,,,,,,
137376,note_on,32,0,1,,,,,,,,,0,,,80,0
137376,note_on,0,0,1,,,,,,,,,0,,,78,39
137400,set_tempo,40,1,0,,,,,,975610,,,,,,,
137408,note_on,32,0,1,,,,,,,,,0,,,78,0
137408,note_on,0,0,1,,,,,,,,,0,,,76,37
137440,note_on,0,0,1,,,,,,,,,0,,,75,37
137440,note_on,32,0,1,,,,,,,,,0,,,76,0
137440,set_tempo,40,1,0,,,,,,983607,,,,,,,
137460,set_tempo,20,1,0,,,,,,991736,,,,,,,
137472,note_on,0,0,1,,,,,,,,,0,,,73,36
137472,note_on,32,0,1,,,,,,,,,0,,,75,0
137500,set_tempo,40,1,0,,,,,,1000000,,,,,,,
137504,note_on,344,0,2,,,,,,,,,0,,,71,36
137504,note_on,32,0,1,,,,,,,,,0,,,73,0
137520,set_tempo,20,1,0,,,,,,1008403,,,,,,,
137536,note_on,0,0,2,,,,,,,,,0,,,69,36
137536,note_on,32,0,2,,,,,,,,,0,,,71,0
137560,set_tempo,40,1,0,,,,,,1016949,,,,,,,
137568,note_on,32,0,2,,,,,,,,,0,,,69,0
137568,note_on,0,0,2,,,,,,,,,0,,,68,36
137600,set_tempo,40,1,0,,,,,,1025641,,,,,,,
137600,note_on,32,0,2,,,,,,,,,0,,,68,0
137600,note_on,0,0,2,,,,,,,,,0,,,66,36
137620,set_tempo,20,1,0,,,,,,1034483,,,,,,,
137632,note_on,32,0,2,,,,,,,,,0,,,66,0
137632,note_on,0,0,2,,,,,,,,,0,,,64,36
137660,set_tempo,40,1,0,,,,,,1043478,,,,,,,
137664,note_on,32,0,2,,,,,,,,,0,,,64,0
137664,note_on,0,0,2,,,,,,,,,0,,,63,36
137680,set_tempo,20,1,0,,,,,,1052632,,,,,,,
137696,note_on,0,0,2,,,,,,,,,0,,,61,36
137696,note_on,32,0,2,,,,,,,,,0,,,63,0
137720,set_tempo,40,1,0,,,,,,1061947,,,,,,,
137728,note_on,0,0,2,,,,,,,,,0,,,59,36
137728,note_on,32,0,2,,,,,,,,,0,,,61,0
137740,set_tempo,20,1,0,,,,,,1071429,,,,,,,
137760,note_on,32,0,2,,,,,,,,,0,,,59,0
137760,set_tempo,20,1,0,,,,,,1690141,,,,,,,
137760,note_on,0,0,2,,,,,,,,,0,,,58,39
138000,note_on,0,0,1,,,,,,,,,0,,,67,35
138000,set_tempo,240,1,0,,,,,,1578947,,,,,,,
138000,note_on,496,0,1,,,,,,,,,0,,,61,35
138000,note_on,240,0,2,,,,,,,,,0,,,52,36
138000,note_on,0,0,1,,,,,,,,,0,,,70,40
138240,note_on,240,0,1,,,,,,,,,0,,,70,0
138240,note_on,0,0,1,,,,,,,,,0,,,61,0
138240,note_on,0,0,1,,,,,,,,,0,,,62,37
138240,note_on,0,0,1,,,,,,,,,0,,,68,37
138240,note_on,0,0,1,,,,,,,,,0,,,70,42
138240,note_on,240,0,2,,,,,,,,,0,,,52,0
138240,note_on,0,0,2,,,,,,,,,0,,,53,40
138240,note_on,0,0,1,,,,,,,,,0,,,67,0
138240,set_tempo,240,1,0,,,,,,1714286,,,,,,,
138360,set_tempo,120,1,0,,,,,,1578947,,,,,,,
138390,note_on,150,0,1,,,,,,,,,0,,,62,34
138400,set_tempo,40,1,0,,,,,,1558442,,,,,,,
138420,note_on,30,0,1,,,,,,,,,0,,,68,31
138440,set_tempo,40,1,0,,,,,,1538462,,,,,,,
138450,note_on,30,0,1,,,,,,,,,0,,,74,35
138460,note_on,0,0,1,,,,,,,,,0,,,62,0
138460,note_on,10,0,1,,,,,,,,,0,,,70,0
138460,note_on,0,0,1,,,,,,,,,0,,,68,0
138460,note_on,220,0,2,,,,,,,,,0,,,53,0
138468,set_tempo,28,1,0,,,,,,1518987,,,,,,,
138480,set_tempo,12,1,0,,,,,,2068966,,,,,,,
138480,note_on,20,0,2,,,,,,,,,0,,,46,35
138480,note_on,20,0,1,,,,,,,,,0,,,74,0
138480,note_on,0,0,1,,,,,,,,,0,,,72,40
138660,set_tempo,180,1,0,,,,,,2727273,,,,,,,
138660,note_on,180,0,1,,,,,,,,,0,,,72,0
138660,note_on,0,0,1,,,,,,,,,0,,,70,36
138720,note_on,0,0,1,,,,,,,,,0,,,67,31
138720,note_on,240,0,2,,,,,,,,,0,,,46,0
138720,note_on,0,0,2,,,,,,,,,0,,,51,31
138720,note_on,0,0,1,,,,,,,,,0,,,62,0
138720,note_on,0,0,2,,,,,,,,,0,,,58,0
138720,note_on,0,0,1,,,,,,,,,0,,,63,31
138720,note_on,60,0,1,,,,,,,,,0,,,70,0
138720,note_on,0,0,1,,,,,,,,,0,,,68,0
138720,note_on,0,0,1,,,,,,,,,0,,,70,35
138720,set_tempo,60,1,0,,,,,,1518987,,,,,,,
139180,note_on,0,0,1,,,,,,,,,0,,,70,0
139180,note_on,0,0,1,,,,,,,,,0,,,63,0
139180,note_on,460,0,1,,,,,,,,,0,,,67,0
139180,note_on,460,0,2,,,,,,,,,0,,,51,0
139200,note_on,20,0,2,,,,,,,,,0,,,57,40
139200,set_tempo,480,1,0,,,,,,1090909,,,,,,,
139229,note_on,29,0,2,,,,,,,,,0,,,57,0
139234,note_on,5,0,2,,,,,,,,,0,,,58,43
139260,set_tempo,60,1,0,,,,,,1016949,,,,,,,
139263,note_on,29,0,2,,,,,,,,,0,,,58,0
139268,note_on,5,0,2,,,,,,,,,0,,,67,43
139297,note_on,29,0,2,,,,,,,,,0,,,67,0
139302,note_on,5,0,2,,,,,,,,,0,,,65,43
139320,set_tempo,60,1,0,,,,,,1025641,,,,,,,
139331,note_on,29,0,2,,,,,,,,,0,,,65,0
139336,note_on,5,0,2,,,,,,,,,0,,,63,43
139360,set_tempo,40,1,0,,,,,,1034483,,,,,,,
139365,note_on,29,0,2,,,,,,,,,0,,,63,0
139370,note_on,5,0,2,,,,,,,,,0,,,62,43
139399,note_on,29,0,2,,,,,,,,,0,,,62,0
139400,set_tempo,40,1,0,,,,,,1043478,,,,,,,
139404,note_on,5,0,2,,,,,,,,,0,,,60,43
139433,note_on,29,0,2,,,,,,,,,0,,,60,0
139438,note_on,5,0,2,,,,,,,,,0,,,58,43
139440,set_tempo,40,1,0,,,,,,1052632,,,,,,,
139467,note_on,29,0,2,,,,,,,,,0,,,58,0
139472,note_on,5,0,2,,,,,,,,,0,,,56,43
139480,set_tempo,40,1,0,,,,,,1061947,,,,,,,
139501,note_on,29,0,2,,,,,,,,,0,,,56,0
139506,note_on,5,0,2,,,,,,,,,0,,,55,43
139520,set_tempo,40,1,0,,,,,,1071429,,,,,,,
139535,note_on,29,0,2,,,,,,,,,0,,,55,0
139540,note_on,5,0,2,,,,,,,,,0,,,53,42
139560,set_tempo,40,1,0,,,,,,1081081,,,,,,,
139569,note_on,29,0,2,,,,,,,,,0,,,53,0
139574,note_on,5,0,2,,,,,,,,,0,,,51,42
139600,set_tempo,40,1,0,,,,,,1090909,,,,,,,
139603,note_on,29,0,2,,,,,,,,,0,,,51,0
139608,note_on,5,0,2,,,,,,,,,0,,,50,42
139637,note_on,29,0,2,,,,,,,,,0,,,50,0
139640,set_tempo,40,1,0,,,,,,1100917,,,,,,,
139642,note_on,5,0,2,,,,,,,,,0,,,48,40
139675,note_on,33,0,2,,,,,,,,,0,,,48,0
139680,note_on,5,0,2,,,,,,,,,0,,,46,43
139680,set_tempo,40,1,0,,,,,,1690141,,,,,,,
139920,note_on,0,0,1,,,,,,,,,0,,,58,36
139920,note_on,740,0,1,,,,,,,,,0,,,55,36
139920,set_tempo,240,1,0,,,,,,1578947,,,,,,,
139920,note_on,0,0,1,,,,,,,,,0,,,61,41
139920,note_on,240,0,2,,,,,,,,,0,,,40,37
140160,set_tempo,240,1,0,,,,,,1739130,,,,,,,
140160,note_on,0,0,1,,,,,,,,,0,,,62,42
140160,note_on,0,0,1,,,,,,,,,0,,,58,37
140160,note_on,0,0,1,,,,,,,,,0,,,58,0
140160,note_on,0,0,1,,,,,,,,,0,,,56,37
140160,note_on,0,0,1,,,,,,,,,0,,,55,0
140160,note_on,240,0,2,,,,,,,,,0,,,40,0
140160,note_on,240,0,1,,,,,,,,,0,,,61,0
140160,note_on,0,0,2,,,,,,,,,0,,,41,40
140380,note_on,0,0,1,,,,,,,,,0,,,56,0
140380,note_on,0,0,1,,,,,,,,,0,,,58,0
140380,note_on,220,0,2,,,,,,,,,0,,,41,0
140380,note_on,220,0,1,,,,,,,,,0,,,62,0
140400,note_on,0,0,1,,,,,,,,,0,,,60,41
140400,note_on,0,0,1,,,,,,,,,0,,,62,35
140400,note_on,20,0,1,,,,,,,,,0,,,56,35
140400,note_on,20,0,2,,,,,,,,,0,,,34,35
140400,set_tempo,240,1,0,,,,,,2264151,,,,,,,
140580,note_on,0,0,1,,,,,,,,,0,,,58,35
140580,note_on,0,0,1,,,,,,,,,0,,,55,31
140580,note_on,180,0,1,,,,,,,,,0,,,60,0
140580,set_tempo,180,1,0,,,,,,3333333,,,,,,,
140580,note_on,0,0,1,,,,,,,,,0,,,56,0
140640,note_on,60,0,1,,,,,,,,,0,,,58,0
140640,note_on,0,0,1,,,,,,,,,0,,,63,34
140640,note_on,240,0,2,,,,,,,,,0,,,34,0
140640,note_on,0,0,1,,,,,,,,,0,,,62,0
140640,set_tempo,60,1,0,,,,,,1518987,,,,,,,
140640,note_on,0,0,1,,,,,,,,,0,,,55,0
140640,note_on,0,0,2,,,,,,,,,0,,,39,29
140640,note_on,0,0,1,,,,,,,,,0,,,55,31
140640,note_on,0,0,1,,,,,,,,,0,,,51,31
141084,set_tempo,444,1,0,,,,,,1465559,,,,,,,
141120,set_tempo,36,1,0,,,,,,1188119,,,,,,,
141120,note_on,0,0,1,,,,,,,,,0,,,51,0
141120,note_on,0,0,2,,,,,,,,,0,,,46,0
141120,note_on,0,0,1,,,,,,,,,0,,,93,40
141120,note_on,0,0,1,,,,,,,,,0,,,55,0
141120,note_on,480,0,2,,,,,,,,,0,,,39,0
141120,note_on,480,0,1,,,,,,,,,0,,,63,0
141159,note_on,39,0,1,,,,,,,,,0,,,93,0
141164,note_on,5,0,1,,,,,,,,,0,,,94,35
141180,set_tempo,60,1,0,,,,,,1072194,,,,,,,
141203,note_on,39,0,1,,,,,,,,,0,,,94,0
141208,note_on,5,0,1,,,,,,,,,0,,,99,41
141240,set_tempo,60,1,0,,,,,,1062323,,,,,,,
141247,note_on,39,0,1,,,,,,,,,0,,,99,0
141252,note_on,5,0,1,,,,,,,,,0,,,96,40
141291,note_on,39,0,1,,,,,,,,,0,,,96,0
141296,note_on,5,0,1,,,,,,,,,0,,,94,39
141300,set_tempo,60,1,0,,,,,,1052632,,,,,,,
141335,note_on,39,0,1,,,,,,,,,0,,,94,0
141340,note_on,5,0,1,,,,,,,,,0,,,92,37
141360,set_tempo,60,1,0,,,,,,1043115,,,,,,,
141379,note_on,39,0,1,,,,,,,,,0,,,92,0
141384,note_on,5,0,1,,,,,,,,,0,,,91,36
141420,set_tempo,60,1,0,,,,,,1033770,,,,,,,
141423,note_on,39,0,1,,,,,,,,,0,,,91,0
141428,note_on,308,0,2,,,,,,,,,0,,,89,37
141467,note_on,39,0,2,,,,,,,,,0,,,89,0
141472,note_on,5,0,2,,,,,,,,,0,,,87,37
141480,set_tempo,60,1,0,,,,,,1024590,,,,,,,
141511,note_on,39,0,2,,,,,,,,,0,,,87,0
141516,note_on,5,0,2,,,,,,,,,0,,,86,36
141540,set_tempo,60,1,0,,,,,,1015744,,,,,,,
141555,note_on,39,0,2,,,,,,,,,0,,,86,0
141560,note_on,5,0,2,,,,,,,,,0,,,84,36
141580,set_tempo,40,1,0,,,,,,1006880,,,,,,,
141592,control_change,32,0,2,,,,,,,,,0,64,0,,
141595,note_on,3,0,2,,,,,,,,,0,,,84,0
141600,set_tempo,20,1,0,,,,,,949067,,,,,,,
141600,note_on,177,0,1,,,,,,,,,0,,,81,37
141620,control_change,25,0,2,,,,,,,,,0,64,1,,
141625,set_tempo,25,1,0,,,,,,983607,,,,,,,
141632,control_change,12,0,2,,,,,,,,,0,64,2,,
141632,note_on,32,0,1,,,,,,,,,0,,,81,0
141637,note_on,5,0,1,,,,,,,,,0,,,82,39
141644,control_change,12,0,2,,,,,,,,,0,64,3,,
141660,control_change,16,0,2,,,,,,,,,0,64,4,,
141669,note_on,32,0,1,,,,,,,,,0,,,82,0
141672,control_change,12,0,2,,,,,,,,,0,64,5,,
141674,note_on,5,0,1,,,,,,,,,0,,,91,40
141680,set_tempo,55,1,0,,,,,,975610,,,,,,,
141684,control_change,12,0,2,,,,,,,,,0,64,6,,
141700,control_change,16,0,2,,,,,,,,,0,64,7,,
141706,note_on,32,0,1,,,,,,,,,0,,,91,0
141711,note_on,5,0,1,,,,,,,,,0,,,87,41
141712,control_change,12,0,2,,,,,,,,,0,64,8,,
141724,control_change,12,0,2,,,,,,,,,0,64,9,,
141740,set_tempo,60,1,0,,,,,,967742,,,,,,,
141743,note_on,32,0,1,,,,,,,,,0,,,87,0
141748,note_on,5,0,1,,,,,,,,,0,,,86,42
141752,control_change,28,0,2,,,,,,,,,0,64,10,,
141764,control_change,12,0,2,,,,,,,,,0,64,11,,
141780,note_on,32,0,1,,,,,,,,,0,,,86,0
141780,control_change,16,0,2,,,,,,,,,0,64,12,,
141785,note_on,5,0,1,,,,,,,,,0,,,84,43
141792,control_change,12,0,2,,,,,,,,,0,64,13,,
141800,set_tempo,60,1,0,,,,,,960000,,,,,,,
141804,control_change,12,0,2,,,,,,,,,0,64,14,,
141817,note_on,32,0,1,,,,,,,,,0,,,84,0
141820,control_change,16,0,2,,,,,,,,,0,64,15,,
141822,note_on,5,0,1,,,,,,,,,0,,,82,44
141832,control_change,12,0,2,,,,,,,,,0,64,16,,
141844,control_change,12,0,2,,,,,,,,,0,64,17,,
141854,note_on,32,0,1,,,,,,,,,0,,,82,0
141859,note_on,15,0,2,,,,,,,,,0,,,80,43
141860,control_change,1,0,2,,,,,,,,,0,64,18,,
141860,set_tempo,60,1,0,,,,,,952381,,,,,,,
141872,control_change,12,0,2,,,,,,,,,0,64,19,,
141891,note_on,19,0,2,,,,,,,,,0,,,80,0
141896,note_on,5,0,2,,,,,,,,,0,,,79,44
141900,control_change,4,0,2,,,,,,,,,0,64,20,,
141912,control_change,12,0,2,,,,,,,,,0,64,21,,
141924,control_change,12,0,2,,,,,,,,,0,64,22,,
141928,note_on,4,0,2,,,,,,,,,0,,,79,0
141933,note_on,5,0,2,,,,,,,,,0,,,77,46
141940,set_tempo,80,1,0,,,,,,944882,,,,,,,
141940,control_change,7,0,2,,,,,,,,,0,64,23,,
141952,control_change,12,0,2,,,,,,,,,0,64,24,,
141964,control_change,12,0,2,,,,,,,,,0,64,25,,
141965,note_on,1,0,2,,,,,,,,,0,,,77,0
141970,note_on,5,0,2,,,,,,,,,0,,,75,47
141980,control_change,10,0,2,,,,,,,,,0,64,26,,
141992,control_change,12,0,2,,,,,,,,,0,64,27,,
142000,set_tempo,60,1,0,,,,,,937500,,,,,,,
142002,note_on,10,0,2,,,,,,,,,0,,,75,0
142004,control_change,2,0,2,,,,,,,,,0,64,28,,
142007,note_on,3,0,2,,,,,,,,,0,,,74,48
142032,control_change,25,0,2,,,,,,,,,0,64,29,,
142039,note_on,7,0,2,,,,,,,,,0,,,74,0
142044,note_on,0,0,2,,,,,,,,,0,,,72,50
142044,control_change,5,0,2,,,,,,,,,0,64,30,,
142060,control_change,16,0,2,,,,,,,,,0,64,31,,
142060,set_tempo,60,1,0,,,,,,930233,,,,,,,
142076,note_on,16,0,2,,,,,,,,,0,,,72,0
142080,set_tempo,20,1,0,,,,,,863309,,,,,,,
142080,note_on,226,0,1,,,,,,,,,0,,,69,49
142119,note_on,39,0,1,,,,,,,,,0,,,69,0
142124,note_on,5,0,1,,,,,,,,,0,,,70,50
142163,note_on,39,0,1,,,,,,,,,0,,,70,0
142168,note_on,5,0,1,,,,,,,,,0,,,75,52
142200,set_tempo,120,1,0,,,,,,857143,,,,,,,
142207,note_on,39,0,1,,,,,,,,,0,,,75,0
142212,note_on,5,0,1,,,,,,,,,0,,,72,55
142220,set_tempo,20,1,0,,,,,,851064,,,,,,,
142251,note_on,39,0,1,,,,,,,,,0,,,72,0
142256,note_on,5,0,1,,,,,,,,,0,,,70,57
142280,set_tempo,60,1,0,,,,,,845070,,,,,,,
142295,note_on,39,0,1,,,,,,,,,0,,,70,0
142300,note_on,5,0,1,,,,,,,,,0,,,68,59
142339,note_on,39,0,1,,,,,,,,,0,,,68,0
142340,set_tempo,60,1,0,,,,,,839161,,,,,,,
142344,note_on,5,0,1,,,,,,,,,0,,,67,62
142383,note_on,39,0,1,,,,,,,,,0,,,67,0
142388,note_on,312,0,2,,,,,,,,,0,,,65,62
142420,set_tempo,80,1,0,,,,,,833333,,,,,,,
142427,note_on,39,0,2,,,,,,,,,0,,,65,0
142432,note_on,5,0,2,,,,,,,,,0,,,63,64
142471,note_on,39,0,2,,,,,,,,,0,,,63,0
142476,note_on,5,0,2,,,,,,,,,0,,,62,66
142480,set_tempo,60,1,0,,,,,,827586,,,,,,,
142515,note_on,39,0,2,,,,,,,,,0,,,62,0
142520,note_on,5,0,2,,,,,,,,,0,,,60,69
142520,set_tempo,40,1,0,,,,,,833333,,,,,,,
142555,note_on,35,0,2,,,,,,,,,0,,,60,0
142560,note_on,177,0,1,,,,,,,,,0,,,57,59
142575,control_change,20,0,2,,,,,,,,,0,64,127,,
142592,note_on,32,0,1,,,,,,,,,0,,,57,0
142597,note_on,5,0,1,,,,,,,,,0,,,58,60
142629,note_on,32,0,1,,,,,,,,,0,,,58,0
142634,note_on,5,0,1,,,,,,,,,0,,,67,63
142660,set_tempo,140,1,0,,,,,,827586,,,,,,,
142666,note_on,32,0,1,,,,,,,,,0,,,67,0
142671,note_on,5,0,1,,,,,,,,,0,,,63,64
142703,note_on,32,0,1,,,,,,,,,0,,,63,0
142708,note_on,5,0,1,,,,,,,,,0,,,62,66
142740,note_on,32,0,1,,,,,,,,,0,,,62,0
142745,note_on,5,0,1,,,,,,,,,0,,,60,67
142777,note_on,32,0,1,,,,,,,,,0,,,60,0
142780,set_tempo,120,1,0,,,,,,821918,,,,,,,
142782,note_on,5,0,1,,,,,,,,,0,,,58,70
142787,control_change,212,0,2,,,,,,,,,0,64,0,,
142806,control_change,19,0,2,,,,,,,,,0,64,127,,
142814,note_on,32,0,1,,,,,,,,,0,,,58,0
142819,note_on,13,0,2,,,,,,,,,0,,,56,69
142851,note_on,32,0,2,,,,,,,,,0,,,56,0
142856,note_on,5,0,2,,,,,,,,,0,,,55,71
142888,note_on,32,0,2,,,,,,,,,0,,,55,0
142893,note_on,5,0,2,,,,,,,,,0,,,53,73
142920,set_tempo,140,1,0,,,,,,816327,,,,,,,
142925,note_on,32,0,2,,,,,,,,,0,,,53,0
142930,note_on,5,0,2,,,,,,,,,0,,,51,75
142962,note_on,32,0,2,,,,,,,,,0,,,51,0
142967,note_on,5,0,2,,,,,,,,,0,,,50,77
142999,note_on,32,0,2,,,,,,,,,0,,,50,0
143004,note_on,5,0,2,,,,,,,,,0,,,48,79
143036,note_on,32,0,2,,,,,,,,,0,,,48,0
143040,set_tempo,120,1,0,,,,,,1333333,,,,,,,
143040,note_on,4,0,2,,,,,,,,,0,,,46,96
143059,control_change,19,0,2,,,,,,,,,0,64,0,,
143280,note_on,0,0,2,,,,,,,,,0,,,39,69
143280,note_on,0,0,1,,,,,,,,,0,,,55,69
143280,note_on,466,0,1,,,,,,,,,0,,,63,77
143280,note_on,221,0,2,,,,,,,,,0,,,37,69
143280,note_on,0,0,1,,,,,,,,,0,,,51,69
143280,note_on,0,0,1,,,,,,,,,0,,,58,69
143520,note_on,0,0,2,,,,,,,,,0,,,37,0
143520,note_on,0,0,2,,,,,,,,,0,,,46,0
143520,note_on,0,0,2,,,,,,,,,0,,,47,91
143520,note_on,0,0,1,,,,,,,,,0,,,63,0
143520,note_on,0,0,1,,,,,,,,,0,,,58,0
143520,note_on,240,0,2,,,,,,,,,0,,,39,0
143520,note_on,0,0,1,,,,,,,,,0,,,55,0
143520,note_on,240,0,1,,,,,,,,,0,,,51,0
143760,note_on,240,0,1,,,,,,,,,0,,,63,75
143760,note_on,240,0,2,,,,,,,,,0,,,35,67
143760,set_tempo,720,1,0,,,,,,1428571,,,,,,,
143760,note_on,0,0,1,,,,,,,,,0,,,54,67
143760,note_on,0,0,1,,,,,,,,,0,,,59,67
143760,note_on,0,0,1,,,,,,,,,0,,,51,67
143760,note_on,0,0,2,,,,,,,,,0,,,39,67
144000,note_on,0,0,2,,,,,,,,,0,,,32,68
144000,note_on,0,0,1,,,,,,,,,0,,,63,75
144000,note_on,0,0,1,,,,,,,,,0,,,63,0
144000,note_on,0,0,1,,,,,,,,,0,,,59,68
144000,note_on,0,0,2,,,,,,,,,0,,,47,80
144000,note_on,0,0,2,,,,,,,,,0,,,47,0
144000,set_tempo,240,1,0,,,,,,1578947,,,,,,,
144000,note_on,0,0,2,,,,,,,,,0,,,39,68
144000,note_on,0,0,1,,,,,,,,,0,,,59,0
144000,note_on,240,0,2,,,,,,,,,0,,,39,0
144000,note_on,0,0,1,,,,,,,,,0,,,56,68
144000,note_on,0,0,1,,,,,,,,,0,,,54,0
144000,note_on,240,0,1,,,,,,,,,0,,,51,0
144000,note_on,0,0,2,,,,,,,,,0,,,35,0
144000,note_on,0,0,1,,,,,,,,,0,,,51,68
144240,note_on,240,0,1,,,,,,,,,0,,,51,0
144240,note_on,0,0,1,,,,,,,,,0,,,53,68
144240,set_tempo,240,1,0,,,,,,1846154,,,,,,,
144240,note_on,240,0,2,,,,,,,,,0,,,47,0
144240,note_on,0,0,2,,,,,,,,,0,,,44,80
144240,note_on,0,0,2,,,,,,,,,0,,,39,68
144240,note_on,0,0,2,,,,,,,,,0,,,39,0
144240,note_on,0,0,2,,,,,,,,,0,,,32,68
144240,note_on,0,0,1,,,,,,,,,0,,,56,0
144240,note_on,0,0,2,,,,,,,,,0,,,32,0
144240,note_on,0,0,1,,,,,,,,,0,,,59,0
144240,note_on,0,0,1,,,,,,,,,0,,,59,68
144240,note_on,0,0,1,,,,,,,,,0,,,63,0
144240,note_on,0,0,1,,,,,,,,,0,,,65,75
144240,note_on,0,0,1,,,,,,,,,0,,,56,68
144480,note_on,240,0,1,,,,,,,,,0,,,53,0
144480,set_tempo,240,1,0,,,,,,1600000,,,,,,,
144480,note_on,240,0,2,,,,,,,,,0,,,44,0
144480,note_on,0,0,2,,,,,,,,,0,,,39,77
144480,note_on,0,0,2,,,,,,,,,0,,,39,0
144480,note_on,0,0,2,,,,,,,,,0,,,34,68
144480,note_on,0,0,2,,,,,,,,,0,,,32,0
144480,note_on,0,0,1,,,,,,,,,0,,,65,0
144480,note_on,0,0,2,,,,,,,,,0,,,27,68
144480,note_on,0,0,1,,,,,,,,,0,,,59,0
144480,note_on,0,0,1,,,,,,,,,0,,,58,75
144480,note_on,0,0,1,,,,,,,,,0,,,56,0
144480,note_on,0,0,1,,,,,,,,,0,,,55,75
144480,note_on,0,0,1,,,,,,,,,0,,,63,75
144480,note_on,0,0,1,,,,,,,,,0,,,67,84
144490,control_change,10,0,2,,,,,,,,,0,64,127,,
145440,note_on,0,0,1,,,,,,,,,0,,,55,0
145440,set_tempo,960,1,0,,,,,,2000000,,,,,,,
145440,note_on,0,0,2,,,,,,,,,0,,,39,77
145440,note_on,0,0,2,,,,,,,,,0,,,34,68
145440,note_on,0,0,2,,,,,,,,,0,,,34,0
145440,note_on,960,0,1,,,,,,,,,0,,,67,0
145440,note_on,0,0,2,,,,,,,,,0,,,27,68
145440,note_on,950,0,2,,,,,,,,,0,,,39,0
145440,note_on,0,0,1,,,,,,,,,0,,,67,82
145440,note_on,0,0,2,,,,,,,,,0,,,27,0
145440,note_on,0,0,1,,,,,,,,,0,,,63,0
145440,note_on,0,0,1,,,,,,,,,0,,,58,73
145440,note_on,0,0,1,,,,,,,,,0,,,58,0
145440,note_on,0,0,1,,,,,,,,,0,,,55,73
145440,note_on,0,0,1,,,,,,,,,0,,,63,73
145920,note_on,0,0,1,,,,,,,,,0,,,67,82
145920,note_on,0,0,1,,,,,,,,,0,,,58,0
145920,note_on,0,0,1,,,,,,,,,0,,,58,73
145920,note_on,0,0,2,,,,,,,,,0,,,27,0
145920,note_on,0,0,1,,,,,,,,,0,,,63,0
145920,note_on,0,0,2,,,,,,,,,0,,,27,68
145920,note_on,0,0,2,,,,,,,,,0,,,34,0
145920,note_on,0,0,2,,,,,,,,,0,,,34,68
145920,note_on,0,0,2,,,,,,,,,0,,,39,77
145920,note_on,0,0,1,,,,,,,,,0,,,63,73
145920,note_on,0,0,1,,,,,,,,,0,,,55,0
145920,set_tempo,480,1,0,,,,,,2352941,,,,,,,
145920,note_on,480,0,2,,,,,,,,,0,,,39,0
145920,note_on,480,0,1,,,,,,,,,0,,,67,0
145920,note_on,0,0,1,,,,,,,,,0,,,55,73
146400,note_on,0,0,1,,,,,,,,,0,,,67,82
146400,note_on,0,0,1,,,,,,,,,0,,,63,73
146400,note_on,0,0,1,,,,,,,,,0,,,55,0
146400,note_on,0,0,1,,,,,,,,,0,,,55,73
146400,note_on,0,0,1,,,,,,,,,0,,,58,0
146400,note_on,0,0,1,,,,,,,,,0,,,63,0
146400,note_on,0,0,2,,,,,,,,,0,,,34,68
146400,note_on,480,0,1,,,,,,,,,0,,,67,0
146400,note_on,480,0,2,,,,,,,,,0,,,39,0
146400,note_on,0,0,2,,,,,,,,,0,,,34,0
146400,note_on,0,0,2,,,,,,,,,0,,,27,68
146400,note_on,0,0,2,,,,,,,,,0,,,27,0
146400,note_on,0,0,1,,,,,,,,,0,,,58,73
146400,note_on,0,0,2,,,,,,,,,0,,,39,77
148027,control_change,1627,0,2,,,,,,,,,0,64,0,,
148320,end_of_track,0,1,0,,,,,,,,,,,,,
148320,note_on,0,0,2,,,,,,,,,0,,,34,0
148320,note_on,293,0,2,,,,,,,,,0,,,39,0
148320,note_on,0,0,1,,,,,,,,,0,,,55,0
148320,note_on,0,0,1,,,,,,,,,0,,,58,0
148320,note_on,0,0,1,,,,,,,,,0,,,63,0
148320,marker,2400,1,0,,,,,,,,,,,,,
148320,end_of_track,0,1,2,,,,,,,,,,,,,
148320,end_of_track,0,1,1,,,,,,,,,,,,,
148320,note_on,0,0,2,,,,,,,,,0,,,27,0
148320,note_on,1920,0,1,,,,,,,,,0,,,67,0
