tick,type,time,meta,track,numerator,denominator,clocks_per_click,notated_32nd_notes_per_beat,key,tempo,program,channel,control,value,note,velocity
0,control_change,0,0,1,,,,,,,,0,7,127,,
0,track_name,0,1,3,,,,,,,,,,,,
0,program_change,0,0,1,,,,,,,0,0,,,,
0,program_change,0,0,2,,,,,,,0,1,,,,
0,program_change,0,0,3,,,,,,,0,2,,,,
0,program_change,0,0,4,,,,,,,0,3,,,,
0,set_tempo,0,1,0,,,,,,428571,,,,,,
0,note_on,0,0,1,,,,,,,,0,,,60,76
0,text,0,1,0,,,,,,,,,,,,
0,text,0,1,0,,,,,,,,,,,,
0,text,0,1,0,,,,,,,,,,,,
0,time_signature,0,1,0,9,8,12,8,,,,,,,,
0,track_name,0,1,0,,,,,,,,,,,,
0,track_name,0,1,1,,,,,,,,,,,,
0,track_name,0,1,2,,,,,,,,,,,,
0,text,0,1,0,,,,,,,,,,,,
0,key_signature,0,1,0,,,,,C,,,,,,,
0,track_name,0,1,4,,,,,,,,,,,,
0,control_change,0,0,1,,,,,,,,0,10,110,,
0,control_change,0,0,2,,,,,,,,1,7,127,,
0,control_change,0,0,2,,,,,,,,1,10,90,,
0,control_change,0,0,3,,,,,,,,2,7,127,,
0,control_change,0,0,3,,,,,,,,2,10,50,,
0,control_change,0,0,4,,,,,,,,3,7,127,,
0,control_change,0,0,4,,,,,,,,3,10,20,,
120,note_on,120,0,1,,,,,,,,0,,,60,0
240,note_on,120,0,1,,,,,,,,0,,,62,76
360,note_on,120,0,1,,,,,,,,0,,,62,0
480,note_on,120,0,1,,,,,,,,0,,,64,76
540,note_on,60,0,1,,,,,,,,0,,,64,0
720,note_on,180,0,1,,,,,,,,0,,,64,76
840,note_on,120,0,1,,,,,,,,0,,,64,0
960,note_on,120,0,1,,,,,,,,0,,,65,76
1080,note_on,120,0,1,,,,,,,,0,,,65,0
1200,note_on,120,0,1,,,,,,,,0,,,67,76
1260,note_on,60,0,1,,,,,,,,0,,,67,0
1440,note_on,180,0,1,,,,,,,,0,,,67,76
1560,note_on,120,0,1,,,,,,,,0,,,67,0
1680,note_on,120,0,1,,,,,,,,0,,,69,76
1800,note_on,120,0,1,,,,,,,,0,,,69,0
1920,note_on,120,0,1,,,,,,,,0,,,71,76
2028,note_on,108,0,1,,,,,,,,0,,,71,0
2160,note_on,2160,0,3,,,,,,,,2,,,48,74
2160,control_change,132,0,1,,,,,,,,0,64,127,,
2160,note_on,0,0,1,,,,,,,,0,,,72,76
2280,note_on,120,0,3,,,,,,,,2,,,48,0
2400,note_on,120,0,3,,,,,,,,2,,,50,76
2520,note_on,120,0,3,,,,,,,,2,,,50,0
2639,note_on,479,0,1,,,,,,,,0,,,72,0
2640,note_on,120,0,3,,,,,,,,2,,,52,78
2640,note_on,1,0,1,,,,,,,,0,,,67,76
2700,note_on,60,0,3,,,,,,,,2,,,52,0
2879,note_on,239,0,1,,,,,,,,0,,,67,0
2880,note_on,1,0,1,,,,,,,,0,,,72,79
2880,note_on,180,0,3,,,,,,,,2,,,52,80
2910,note_on,30,0,1,,,,,,,,0,,,72,0
2940,note_on,30,0,1,,,,,,,,0,,,74,82
2970,note_on,30,0,1,,,,,,,,0,,,74,0
3000,note_on,120,0,3,,,,,,,,2,,,52,0
3000,note_on,30,0,1,,,,,,,,0,,,72,86
3030,note_on,30,0,1,,,,,,,,0,,,72,0
3060,note_on,30,0,1,,,,,,,,0,,,71,85
3119,note_on,59,0,1,,,,,,,,0,,,71,0
3120,note_on,120,0,3,,,,,,,,2,,,53,81
3120,note_on,0,0,1,,,,,,,,0,,,72,81
3120,control_change,1,0,1,,,,,,,,0,64,0,,
3240,note_on,120,0,3,,,,,,,,2,,,53,0
3359,note_on,239,0,1,,,,,,,,0,,,72,0
3360,note_on,120,0,3,,,,,,,,2,,,55,84
3360,note_on,1,0,1,,,,,,,,0,,,67,76
3420,note_on,60,0,3,,,,,,,,2,,,55,0
3510,control_change,150,0,1,,,,,,,,0,64,127,,
3599,note_on,89,0,1,,,,,,,,0,,,67,0
3600,note_on,1,0,1,,,,,,,,0,,,74,82
3600,note_on,180,0,3,,,,,,,,2,,,55,86
3630,note_on,30,0,1,,,,,,,,0,,,74,0
3660,note_on,30,0,1,,,,,,,,0,,,76,87
3690,note_on,30,0,1,,,,,,,,0,,,76,0
3720,note_on,120,0,3,,,,,,,,2,,,55,0
3720,note_on,30,0,1,,,,,,,,0,,,74,92
3750,note_on,30,0,1,,,,,,,,0,,,74,0
3780,note_on,30,0,1,,,,,,,,0,,,72,90
3839,note_on,59,0,1,,,,,,,,0,,,72,0
3840,note_on,1,0,1,,,,,,,,0,,,74,85
3840,note_on,120,0,3,,,,,,,,2,,,57,87
3960,note_on,120,0,3,,,,,,,,2,,,57,0
4020,control_change,180,0,1,,,,,,,,0,64,0,,
4079,note_on,59,0,1,,,,,,,,0,,,74,0
4080,note_on,120,0,3,,,,,,,,2,,,59,90
4080,note_on,1,0,1,,,,,,,,0,,,67,76
4188,note_on,108,0,3,,,,,,,,2,,,59,0
4296,note_on,216,0,1,,,,,,,,0,,,67,0
4320,note_on,24,0,1,,,,,,,,0,,,76,76
4320,note_on,132,0,3,,,,,,,,2,,,60,91
4559,note_on,239,0,1,,,,,,,,0,,,76,0
4560,note_on,1,0,1,,,,,,,,0,,,72,72
4679,note_on,119,0,1,,,,,,,,0,,,72,0
4680,note_on,1,0,1,,,,,,,,0,,,74,75
4799,note_on,479,0,3,,,,,,,,2,,,60,0
4799,note_on,119,0,1,,,,,,,,0,,,74,0
4800,note_on,1,0,3,,,,,,,,2,,,55,76
4800,note_on,1,0,1,,,,,,,,0,,,76,79
4919,note_on,119,0,1,,,,,,,,0,,,76,0
4920,note_on,1,0,1,,,,,,,,0,,,77,82
4995,control_change,195,0,3,,,,,,,,2,64,127,,
5039,note_on,44,0,3,,,,,,,,2,,,55,0
5039,note_on,119,0,1,,,,,,,,0,,,77,0
5040,note_on,1,0,3,,,,,,,,2,,,60,76
5040,note_on,1,0,1,,,,,,,,0,,,79,86
5070,note_on,30,0,3,,,,,,,,2,,,60,0
5100,note_on,30,0,3,,,,,,,,2,,,62,76
5130,note_on,30,0,3,,,,,,,,2,,,62,0
5160,note_on,30,0,3,,,,,,,,2,,,60,84
5190,note_on,30,0,3,,,,,,,,2,,,60,0
5220,note_on,30,0,3,,,,,,,,2,,,59,82
5279,note_on,239,0,1,,,,,,,,0,,,79,0
5279,note_on,59,0,3,,,,,,,,2,,,59,0
5280,note_on,1,0,3,,,,,,,,2,,,60,79
5280,note_on,1,0,1,,,,,,,,0,,,81,91
5370,control_change,90,0,3,,,,,,,,2,64,0,,
5399,note_on,119,0,1,,,,,,,,0,,,81,0
5400,note_on,1,0,1,,,,,,,,0,,,79,87
5519,note_on,119,0,1,,,,,,,,0,,,79,0
5519,note_on,149,0,3,,,,,,,,2,,,60,0
5520,note_on,1,0,3,,,,,,,,2,,,55,76
5520,note_on,1,0,1,,,,,,,,0,,,77,84
5639,note_on,119,0,1,,,,,,,,0,,,77,0
5640,note_on,1,0,1,,,,,,,,0,,,76,80
5759,note_on,119,0,1,,,,,,,,0,,,76,0
5759,note_on,239,0,3,,,,,,,,2,,,55,0
5760,note_on,1,0,3,,,,,,,,2,,,62,74
5760,note_on,1,0,1,,,,,,,,0,,,77,76
5775,control_change,15,0,3,,,,,,,,2,64,127,,
5790,note_on,15,0,3,,,,,,,,2,,,62,0
5820,note_on,30,0,3,,,,,,,,2,,,64,79
5850,note_on,30,0,3,,,,,,,,2,,,64,0
5880,note_on,30,0,3,,,,,,,,2,,,62,84
5910,note_on,30,0,3,,,,,,,,2,,,62,0
5940,note_on,30,0,3,,,,,,,,2,,,60,81
5999,note_on,239,0,1,,,,,,,,0,,,77,0
5999,note_on,59,0,3,,,,,,,,2,,,60,0
6000,note_on,1,0,1,,,,,,,,0,,,79,88
6000,note_on,1,0,3,,,,,,,,2,,,62,76
6090,control_change,90,0,3,,,,,,,,2,64,0,,
6119,note_on,119,0,1,,,,,,,,0,,,79,0
6120,note_on,1,0,1,,,,,,,,0,,,77,86
6239,note_on,119,0,1,,,,,,,,0,,,77,0
6239,note_on,149,0,3,,,,,,,,2,,,62,0
6240,note_on,1,0,1,,,,,,,,0,,,76,82
6240,note_on,1,0,3,,,,,,,,2,,,55,76
6359,note_on,119,0,1,,,,,,,,0,,,76,0
6360,note_on,1,0,1,,,,,,,,0,,,74,79
6456,note_on,216,0,3,,,,,,,,2,,,55,0
6468,note_on,108,0,1,,,,,,,,0,,,74,0
6480,note_on,24,0,3,,,,,,,,2,,,64,72
6480,note_on,12,0,1,,,,,,,,0,,,72,60
6600,note_on,120,0,1,,,,,,,,0,,,72,0
6719,note_on,239,0,3,,,,,,,,2,,,64,0
6720,note_on,120,0,1,,,,,,,,0,,,67,58
6720,note_on,1,0,3,,,,,,,,2,,,60,60
6839,note_on,119,0,3,,,,,,,,2,,,60,0
6840,note_on,1,0,3,,,,,,,,2,,,62,64
6840,note_on,120,0,1,,,,,,,,0,,,67,0
6959,note_on,119,0,3,,,,,,,,2,,,62,0
6960,note_on,120,0,1,,,,,,,,0,,,72,59
6960,note_on,1,0,3,,,,,,,,2,,,64,67
7079,note_on,119,0,3,,,,,,,,2,,,64,0
7080,note_on,1,0,3,,,,,,,,2,,,65,69
7080,note_on,120,0,1,,,,,,,,0,,,72,0
7199,note_on,119,0,3,,,,,,,,2,,,65,0
7200,note_on,1,0,3,,,,,,,,2,,,67,72
7200,note_on,120,0,1,,,,,,,,0,,,76,60
7320,note_on,120,0,1,,,,,,,,0,,,76,0
7439,note_on,239,0,3,,,,,,,,2,,,67,0
7440,note_on,120,0,1,,,,,,,,0,,,72,60
7440,note_on,1,0,3,,,,,,,,2,,,69,73
7559,note_on,119,0,3,,,,,,,,2,,,69,0
7560,note_on,120,0,1,,,,,,,,0,,,72,0
7560,note_on,1,0,3,,,,,,,,2,,,67,70
7679,note_on,119,0,3,,,,,,,,2,,,67,0
7680,note_on,120,0,1,,,,,,,,0,,,76,62
7680,note_on,1,0,3,,,,,,,,2,,,65,68
7799,note_on,119,0,3,,,,,,,,2,,,65,0
7800,note_on,1,0,3,,,,,,,,2,,,64,65
7800,note_on,120,0,1,,,,,,,,0,,,76,0
7919,note_on,119,0,3,,,,,,,,2,,,64,0
7920,note_on,120,0,1,,,,,,,,0,,,79,63
7920,note_on,1,0,3,,,,,,,,2,,,65,63
8040,note_on,120,0,1,,,,,,,,0,,,79,0
8159,note_on,239,0,3,,,,,,,,2,,,65,0
8160,note_on,1,0,3,,,,,,,,2,,,67,72
8160,note_on,120,0,1,,,,,,,,0,,,76,64
8279,note_on,119,0,3,,,,,,,,2,,,67,0
8280,note_on,1,0,3,,,,,,,,2,,,65,68
8280,note_on,120,0,1,,,,,,,,0,,,76,0
8399,note_on,119,0,3,,,,,,,,2,,,65,0
8400,note_on,120,0,1,,,,,,,,0,,,79,64
8400,note_on,1,0,3,,,,,,,,2,,,64,64
8508,note_on,108,0,1,,,,,,,,0,,,79,0
8519,note_on,119,0,3,,,,,,,,2,,,64,0
8520,note_on,1,0,3,,,,,,,,2,,,62,60
8628,note_on,108,0,3,,,,,,,,2,,,62,0
8640,note_on,8640,0,4,,,,,,,,3,,,64,76
8640,note_on,132,0,1,,,,,,,,0,,,84,82
8879,note_on,239,0,1,,,,,,,,0,,,84,0
8880,note_on,0,0,1,,,,,,,,0,,,62,100
8880,note_on,1,0,1,,,,,,,,0,,,74,100
8880,note_on,0,0,1,,,,,,,,0,,,71,100
9119,note_on,479,0,4,,,,,,,,3,,,64,0
9119,note_on,0,0,1,,,,,,,,0,,,71,0
9119,note_on,0,0,1,,,,,,,,0,,,74,0
9119,note_on,239,0,1,,,,,,,,0,,,62,0
9120,note_on,0,0,4,,,,,,,,3,,,48,86
9120,note_on,1,0,4,,,,,,,,3,,,60,86
9120,note_on,0,0,1,,,,,,,,0,,,64,102
9120,note_on,0,0,1,,,,,,,,0,,,72,102
9120,note_on,1,0,1,,,,,,,,0,,,76,102
9359,note_on,239,0,4,,,,,,,,3,,,48,0
9359,note_on,0,0,4,,,,,,,,3,,,60,0
9360,note_on,1,0,4,,,,,,,,3,,,55,100
9360,note_on,0,0,4,,,,,,,,3,,,43,100
9599,note_on,0,0,1,,,,,,,,0,,,72,0
9599,note_on,0,0,1,,,,,,,,0,,,76,0
9599,note_on,479,0,1,,,,,,,,0,,,64,0
9600,note_on,0,0,1,,,,,,,,0,,,67,102
9600,note_on,0,0,1,,,,,,,,0,,,76,102
9600,note_on,1,0,1,,,,,,,,0,,,79,102
9719,note_on,0,0,1,,,,,,,,0,,,76,0
9719,note_on,0,0,1,,,,,,,,0,,,79,0
9719,note_on,119,0,1,,,,,,,,0,,,67,0
9720,note_on,1,0,1,,,,,,,,0,,,77,111
9720,note_on,0,0,1,,,,,,,,0,,,65,111
9720,note_on,0,0,1,,,,,,,,0,,,74,111
9839,note_on,479,0,4,,,,,,,,3,,,43,0
9839,note_on,119,0,1,,,,,,,,0,,,65,0
9839,note_on,0,0,1,,,,,,,,0,,,77,0
9839,note_on,0,0,4,,,,,,,,3,,,55,0
9839,note_on,0,0,1,,,,,,,,0,,,74,0
9840,note_on,0,0,1,,,,,,,,0,,,72,108
9840,note_on,0,0,1,,,,,,,,0,,,64,108
9840,note_on,1,0,1,,,,,,,,0,,,76,108
9840,note_on,1,0,4,,,,,,,,3,,,60,88
9840,note_on,0,0,4,,,,,,,,3,,,48,88
9959,note_on,0,0,1,,,,,,,,0,,,72,0
9959,note_on,0,0,1,,,,,,,,0,,,76,0
9959,note_on,119,0,1,,,,,,,,0,,,64,0
9960,note_on,1,0,1,,,,,,,,0,,,74,102
9960,note_on,0,0,1,,,,,,,,0,,,62,102
9960,note_on,0,0,1,,,,,,,,0,,,71,102
10079,note_on,0,0,1,,,,,,,,0,,,71,0
10079,note_on,0,0,4,,,,,,,,3,,,60,0
10079,note_on,119,0,1,,,,,,,,0,,,62,0
10079,note_on,239,0,4,,,,,,,,3,,,48,0
10079,note_on,0,0,1,,,,,,,,0,,,74,0
10080,note_on,1,0,1,,,,,,,,0,,,76,96
10080,note_on,0,0,4,,,,,,,,3,,,43,100
10080,note_on,1,0,4,,,,,,,,3,,,55,100
10080,note_on,0,0,1,,,,,,,,0,,,64,96
10080,note_on,0,0,1,,,,,,,,0,,,72,96
10319,note_on,0,0,1,,,,,,,,0,,,76,0
10319,note_on,239,0,1,,,,,,,,0,,,64,0
10319,note_on,0,0,1,,,,,,,,0,,,72,0
10320,note_on,0,0,1,,,,,,,,0,,,67,91
10320,note_on,1,0,1,,,,,,,,0,,,79,91
10320,note_on,0,0,1,,,,,,,,0,,,76,91
10439,note_on,0,0,1,,,,,,,,0,,,76,0
10439,note_on,0,0,1,,,,,,,,0,,,79,0
10439,note_on,119,0,1,,,,,,,,0,,,67,0
10440,note_on,0,0,1,,,,,,,,0,,,65,105
10440,note_on,0,0,1,,,,,,,,0,,,74,105
10440,note_on,1,0,1,,,,,,,,0,,,77,105
10559,note_on,0,0,1,,,,,,,,0,,,77,0
10559,note_on,0,0,1,,,,,,,,0,,,74,0
10559,note_on,479,0,4,,,,,,,,3,,,43,0
10559,note_on,0,0,4,,,,,,,,3,,,55,0
10559,note_on,119,0,1,,,,,,,,0,,,65,0
10560,note_on,1,0,4,,,,,,,,3,,,55,86
10560,note_on,1,0,1,,,,,,,,0,,,64,102
10560,note_on,0,0,1,,,,,,,,0,,,76,102
10560,note_on,0,0,1,,,,,,,,0,,,72,102
10560,note_on,0,0,4,,,,,,,,3,,,43,86
10679,note_on,119,0,1,,,,,,,,0,,,76,0
10679,note_on,0,0,1,,,,,,,,0,,,72,0
10679,note_on,0,0,1,,,,,,,,0,,,64,0
10680,note_on,0,0,1,,,,,,,,0,,,71,98
10680,note_on,1,0,1,,,,,,,,0,,,62,98
10680,note_on,0,0,1,,,,,,,,0,,,74,98
10776,note_on,0,0,4,,,,,,,,3,,,55,0
10776,note_on,216,0,4,,,,,,,,3,,,43,0
10788,note_on,0,0,1,,,,,,,,0,,,71,0
10788,note_on,0,0,1,,,,,,,,0,,,62,0
10788,note_on,108,0,1,,,,,,,,0,,,74,0
10800,note_on,24,0,4,,,,,,,,3,,,36,91
10800,note_on,12,0,1,,,,,,,,0,,,76,79
10800,note_on,10800,0,2,,,,,,,,1,,,72,76
10800,note_on,0,0,4,,,,,,,,3,,,48,91
10800,note_on,0,0,2,,,,,,,,1,,,64,76
10919,note_on,119,0,1,,,,,,,,0,,,76,0
10920,note_on,1,0,1,,,,,,,,0,,,77,85
11000,set_tempo,11000,1,0,,,,,,453686,,,,,,
11016,note_on,216,0,2,,,,,,,,1,,,64,0
11016,note_on,0,0,2,,,,,,,,1,,,72,0
11039,note_on,119,0,1,,,,,,,,0,,,77,0
11040,note_on,1,0,1,,,,,,,,0,,,76,84
11040,note_on,2412,0,3,,,,,,,,2,,,55,76
11100,note_on,60,0,3,,,,,,,,2,,,55,0
11159,note_on,119,0,1,,,,,,,,0,,,76,0
11160,note_on,1,0,1,,,,,,,,0,,,74,82
11232,note_on,0,0,4,,,,,,,,3,,,36,0
11232,note_on,432,0,4,,,,,,,,3,,,48,0
11279,note_on,119,0,1,,,,,,,,0,,,74,0
11280,note_on,1,0,1,,,,,,,,0,,,72,80
11280,note_on,180,0,3,,,,,,,,2,,,60,82
11340,note_on,60,0,3,,,,,,,,2,,,60,0
11399,note_on,119,0,1,,,,,,,,0,,,72,0
11400,note_on,1,0,1,,,,,,,,0,,,71,79
11519,note_on,119,0,1,,,,,,,,0,,,71,0
11520,note_on,1,0,1,,,,,,,,0,,,72,78
11520,note_on,180,0,3,,,,,,,,2,,,64,88
11580,note_on,60,0,3,,,,,,,,2,,,64,0
11639,note_on,119,0,1,,,,,,,,0,,,72,0
11640,note_on,1,0,1,,,,,,,,0,,,81,76
11759,note_on,119,0,1,,,,,,,,0,,,81,0
11760,note_on,1,0,1,,,,,,,,0,,,79,78
11760,note_on,180,0,3,,,,,,,,2,,,60,81
11820,note_on,60,0,3,,,,,,,,2,,,60,0
11879,note_on,119,0,1,,,,,,,,0,,,79,0
11880,note_on,1,0,1,,,,,,,,0,,,77,80
11960,set_tempo,960,1,0,,,,,,456274,,,,,,
11999,note_on,119,0,1,,,,,,,,0,,,77,0
12000,note_on,1,0,1,,,,,,,,0,,,76,82
12000,note_on,180,0,3,,,,,,,,2,,,64,86
12060,note_on,60,0,3,,,,,,,,2,,,64,0
12119,note_on,119,0,1,,,,,,,,0,,,76,0
12120,note_on,1,0,1,,,,,,,,0,,,74,84
12239,note_on,119,0,1,,,,,,,,0,,,74,0
12240,note_on,180,0,3,,,,,,,,2,,,67,91
12240,note_on,1,0,1,,,,,,,,0,,,76,86
12300,note_on,60,0,3,,,,,,,,2,,,67,0
12309,control_change,69,0,1,,,,,,,,0,64,127,,
12359,note_on,50,0,1,,,,,,,,0,,,76,0
12360,note_on,1,0,1,,,,,,,,0,,,84,88
12479,note_on,119,0,1,,,,,,,,0,,,84,0
12480,note_on,180,0,3,,,,,,,,2,,,64,96
12480,note_on,1,0,1,,,,,,,,0,,,83,91
12540,note_on,60,0,3,,,,,,,,2,,,64,0
12599,note_on,119,0,1,,,,,,,,0,,,83,0
12600,note_on,1,0,1,,,,,,,,0,,,81,82
12719,note_on,119,0,1,,,,,,,,0,,,81,0
12720,note_on,1,0,1,,,,,,,,0,,,79,74
12720,note_on,180,0,3,,,,,,,,2,,,67,99
12774,note_on,54,0,3,,,,,,,,2,,,67,0
12839,note_on,119,0,1,,,,,,,,0,,,79,0
12840,note_on,1,0,1,,,,,,,,0,,,77,65
12920,set_tempo,960,1,0,,,,,,458891,,,,,,
12948,note_on,108,0,1,,,,,,,,0,,,77,0
12960,note_on,1944,0,2,,,,,,,,1,,,72,76
12960,note_on,12,0,1,,,,,,,,0,,,76,56
12994,control_change,34,0,1,,,,,,,,0,64,0,,
13199,note_on,239,0,2,,,,,,,,1,,,72,0
13199,note_on,205,0,1,,,,,,,,0,,,76,0
13200,note_on,1,0,2,,,,,,,,1,,,62,91
13200,note_on,1,0,1,,,,,,,,0,,,71,91
13439,note_on,239,0,2,,,,,,,,1,,,62,0
13439,note_on,239,0,1,,,,,,,,0,,,71,0
13440,note_on,1,0,2,,,,,,,,1,,,64,91
13440,note_on,2208,0,4,,,,,,,,3,,,60,80
13440,note_on,0,0,4,,,,,,,,3,,,48,80
13440,note_on,1,0,1,,,,,,,,0,,,72,91
13679,note_on,239,0,4,,,,,,,,3,,,48,0
13679,note_on,0,0,4,,,,,,,,3,,,60,0
13680,note_on,0,0,4,,,,,,,,3,,,43,91
13680,note_on,1,0,4,,,,,,,,3,,,55,91
13880,set_tempo,960,1,0,,,,,,461538,,,,,,
13919,note_on,479,0,2,,,,,,,,1,,,64,0
13919,note_on,479,0,1,,,,,,,,0,,,72,0
13920,note_on,1,0,2,,,,,,,,1,,,67,91
13920,note_on,1,0,1,,,,,,,,0,,,76,108
14039,note_on,119,0,1,,,,,,,,0,,,76,0
14039,note_on,119,0,2,,,,,,,,1,,,67,0
14040,note_on,1,0,1,,,,,,,,0,,,74,103
14040,note_on,1,0,2,,,,,,,,1,,,65,110
14159,note_on,479,0,4,,,,,,,,3,,,43,0
14159,note_on,0,0,4,,,,,,,,3,,,55,0
14159,note_on,119,0,1,,,,,,,,0,,,74,0
14159,note_on,119,0,2,,,,,,,,1,,,65,0
14160,note_on,1,0,1,,,,,,,,0,,,72,97
14160,note_on,0,0,4,,,,,,,,3,,,48,80
14160,note_on,1,0,2,,,,,,,,1,,,64,104
14160,note_on,1,0,4,,,,,,,,3,,,60,80
14279,note_on,119,0,1,,,,,,,,0,,,72,0
14279,note_on,119,0,2,,,,,,,,1,,,64,0
14280,note_on,1,0,1,,,,,,,,0,,,71,91
14280,note_on,1,0,2,,,,,,,,1,,,62,98
14399,note_on,0,0,4,,,,,,,,3,,,60,0
14399,note_on,119,0,1,,,,,,,,0,,,71,0
14399,note_on,119,0,2,,,,,,,,1,,,62,0
14399,note_on,239,0,4,,,,,,,,3,,,48,0
14400,note_on,1,0,1,,,,,,,,0,,,72,91
14400,note_on,1,0,4,,,,,,,,3,,,52,91
14400,note_on,0,0,4,,,,,,,,3,,,40,91
14400,note_on,1,0,2,,,,,,,,1,,,64,93
14639,note_on,239,0,1,,,,,,,,0,,,72,0
14639,note_on,239,0,2,,,,,,,,1,,,64,0
14640,note_on,1,0,2,,,,,,,,1,,,67,91
14640,note_on,1,0,1,,,,,,,,0,,,76,100
14759,note_on,119,0,2,,,,,,,,1,,,67,0
14759,note_on,119,0,1,,,,,,,,0,,,76,0
14760,note_on,1,0,1,,,,,,,,0,,,74,96
14760,note_on,1,0,2,,,,,,,,1,,,65,108
14840,set_tempo,960,1,0,,,,,,464217,,,,,,
14879,note_on,0,0,4,,,,,,,,3,,,52,0
14879,note_on,119,0,1,,,,,,,,0,,,74,0
14879,note_on,119,0,2,,,,,,,,1,,,65,0
14879,note_on,479,0,4,,,,,,,,3,,,40,0
14880,note_on,0,0,4,,,,,,,,3,,,43,80
14880,note_on,1,0,4,,,,,,,,3,,,55,80
14880,note_on,1,0,2,,,,,,,,1,,,64,103
14880,note_on,1,0,1,,,,,,,,0,,,72,90
14999,note_on,119,0,1,,,,,,,,0,,,72,0
14999,note_on,119,0,2,,,,,,,,1,,,64,0
15000,note_on,1,0,2,,,,,,,,1,,,62,98
15000,note_on,1,0,1,,,,,,,,0,,,71,86
15096,note_on,0,0,4,,,,,,,,3,,,55,0
15096,note_on,216,0,4,,,,,,,,3,,,43,0
15108,note_on,108,0,1,,,,,,,,0,,,71,0
15108,note_on,108,0,2,,,,,,,,1,,,62,0
15120,note_on,12,0,2,,,,,,,,1,,,64,94
15120,note_on,0,0,4,,,,,,,,3,,,48,91
15120,note_on,24,0,4,,,,,,,,3,,,36,91
15120,note_on,12,0,1,,,,,,,,0,,,72,91
15160,set_tempo,320,1,0,,,,,,508475,,,,,,
15240,set_tempo,80,1,0,,,,,,508475,,,,,,
15359,note_on,239,0,1,,,,,,,,0,,,72,0
15360,note_on,1,0,1,,,,,,,,0,,,74,74
15552,note_on,432,0,2,,,,,,,,1,,,64,0
15599,note_on,239,0,1,,,,,,,,0,,,74,0
15600,note_on,1,0,1,,,,,,,,0,,,76,74
15720,note_on,120,0,1,,,,,,,,0,,,76,0
15760,control_change,640,0,4,,,,,,,,3,64,127,,
15760,set_tempo,520,1,0,,,,,,505263,,,,,,
15839,note_on,0,0,4,,,,,,,,3,,,36,0
15839,note_on,79,0,4,,,,,,,,3,,,48,0
15840,note_on,1,0,4,,,,,,,,3,,,60,98
15840,note_on,120,0,1,,,,,,,,0,,,76,75
16079,note_on,239,0,1,,,,,,,,0,,,76,0
16080,note_on,1,0,1,,,,,,,,0,,,77,76
16280,set_tempo,520,1,0,,,,,,502092,,,,,,
16319,note_on,239,0,1,,,,,,,,0,,,77,0
16320,note_on,1,0,1,,,,,,,,0,,,79,77
16440,note_on,120,0,1,,,,,,,,0,,,79,0
16559,note_on,719,0,4,,,,,,,,3,,,60,0
16560,note_on,1,0,4,,,,,,,,3,,,59,87
16560,note_on,120,0,1,,,,,,,,0,,,79,77
16720,control_change,160,0,4,,,,,,,,3,64,0,,
16760,set_tempo,480,1,0,,,,,,498960,,,,,,
16799,note_on,239,0,1,,,,,,,,0,,,79,0
16800,note_on,1,0,1,,,,,,,,0,,,81,78
16992,note_on,272,0,4,,,,,,,,3,,,59,0
17039,note_on,239,0,1,,,,,,,,0,,,81,0
17040,note_on,1,0,1,,,,,,,,0,,,83,78
17256,note_on,216,0,1,,,,,,,,0,,,83,0
17280,note_on,24,0,1,,,,,,,,0,,,84,63
17280,note_on,1728,0,2,,,,,,,,1,,,69,59
17280,note_on,288,0,4,,,,,,,,3,,,57,79
17280,set_tempo,520,1,0,,,,,,495868,,,,,,
17304,control_change,24,0,4,,,,,,,,3,64,127,,
17519,note_on,239,0,2,,,,,,,,1,,,69,0
17520,note_on,1,0,2,,,,,,,,1,,,71,59
17664,control_change,384,0,1,,,,,,,,0,64,127,,
17759,note_on,239,0,2,,,,,,,,1,,,71,0
17759,note_on,95,0,1,,,,,,,,0,,,84,0
17760,note_on,1,0,1,,,,,,,,0,,,76,79
17760,note_on,1,0,2,,,,,,,,1,,,72,76
17800,set_tempo,520,1,0,,,,,,492813,,,,,,
17880,note_on,120,0,2,,,,,,,,1,,,72,0
17999,note_on,239,0,1,,,,,,,,0,,,76,0
17999,note_on,695,0,4,,,,,,,,3,,,57,0
18000,note_on,120,0,2,,,,,,,,1,,,72,79
18000,note_on,1,0,4,,,,,,,,3,,,57,72
18000,note_on,1,0,1,,,,,,,,0,,,81,82
18239,note_on,239,0,2,,,,,,,,1,,,72,0
18239,note_on,239,0,1,,,,,,,,0,,,81,0
18240,note_on,1,0,1,,,,,,,,0,,,83,86
18240,note_on,1,0,2,,,,,,,,1,,,74,81
18264,control_change,264,0,4,,,,,,,,3,64,0,,
18280,set_tempo,480,1,0,,,,,,489796,,,,,,
18479,note_on,239,0,2,,,,,,,,1,,,74,0
18479,note_on,239,0,1,,,,,,,,0,,,83,0
18480,note_on,1,0,1,,,,,,,,0,,,84,90
18480,note_on,1,0,2,,,,,,,,1,,,76,84
18600,note_on,120,0,2,,,,,,,,1,,,76,0
18624,control_change,144,0,1,,,,,,,,0,64,0,,
18719,note_on,455,0,4,,,,,,,,3,,,57,0
18719,note_on,95,0,1,,,,,,,,0,,,84,0
18720,note_on,1,0,1,,,,,,,,0,,,84,93
18720,note_on,1,0,4,,,,,,,,3,,,55,64
18720,note_on,120,0,2,,,,,,,,1,,,76,86
18800,set_tempo,520,1,0,,,,,,486815,,,,,,
18959,note_on,239,0,2,,,,,,,,1,,,76,0
18960,note_on,1,0,2,,,,,,,,1,,,78,88
19152,note_on,432,0,4,,,,,,,,3,,,55,0
19199,note_on,239,0,2,,,,,,,,1,,,78,0
19200,note_on,1,0,2,,,,,,,,1,,,79,90
19320,set_tempo,520,1,0,,,,,,483871,,,,,,
19416,note_on,216,0,2,,,,,,,,1,,,79,0
19440,note_on,6666,0,3,,,,,,,,2,,,62,70
19440,note_on,288,0,4,,,,,,,,3,,,54,57
19440,note_on,24,0,2,,,,,,,,1,,,81,92
19464,control_change,24,0,4,,,,,,,,3,64,127,,
19679,note_on,239,0,3,,,,,,,,2,,,62,0
19680,note_on,1,0,3,,,,,,,,2,,,64,73
19800,set_tempo,480,1,0,,,,,,480962,,,,,,
19919,note_on,479,0,2,,,,,,,,1,,,81,0
19919,note_on,239,0,3,,,,,,,,2,,,64,0
19920,note_on,1,0,3,,,,,,,,2,,,66,76
19920,note_on,1,0,2,,,,,,,,1,,,74,76
20040,note_on,120,0,3,,,,,,,,2,,,66,0
20064,control_change,1344,0,1,,,,,,,,0,64,127,,
20159,note_on,95,0,1,,,,,,,,0,,,84,0
20159,note_on,239,0,2,,,,,,,,1,,,74,0
20159,note_on,695,0,4,,,,,,,,3,,,54,0
20160,note_on,1,0,1,,,,,,,,0,,,84,76
20160,note_on,1,0,4,,,,,,,,3,,,62,100
20160,note_on,120,0,3,,,,,,,,2,,,66,79
20160,note_on,1,0,2,,,,,,,,1,,,81,76
20320,set_tempo,520,1,0,,,,,,478088,,,,,,
20399,note_on,239,0,3,,,,,,,,2,,,66,0
20400,note_on,1,0,3,,,,,,,,2,,,67,81
20424,control_change,264,0,4,,,,,,,,3,64,0,,
20592,note_on,432,0,2,,,,,,,,1,,,81,0
20639,note_on,239,0,3,,,,,,,,2,,,67,0
20639,note_on,479,0,1,,,,,,,,0,,,84,0
20640,note_on,1,0,1,,,,,,,,0,,,84,76
20640,note_on,1,0,3,,,,,,,,2,,,69,84
20760,note_on,120,0,3,,,,,,,,2,,,69,0
20840,set_tempo,520,1,0,,,,,,475248,,,,,,
20879,note_on,239,0,1,,,,,,,,0,,,84,0
20879,note_on,455,0,4,,,,,,,,3,,,62,0
20880,note_on,120,0,3,,,,,,,,2,,,69,86
20880,note_on,1,0,1,,,,,,,,0,,,78,76
20880,note_on,1,0,4,,,,,,,,3,,,60,96
21024,control_change,144,0,1,,,,,,,,0,64,0,,
21119,note_on,239,0,3,,,,,,,,2,,,69,0
21120,note_on,1,0,3,,,,,,,,2,,,71,88
21312,note_on,432,0,4,,,,,,,,3,,,60,0
21320,set_tempo,480,1,0,,,,,,472441,,,,,,
21359,note_on,239,0,3,,,,,,,,2,,,71,0
21359,note_on,335,0,1,,,,,,,,0,,,78,0
21360,note_on,1,0,1,,,,,,,,0,,,81,72
21360,note_on,1,0,3,,,,,,,,2,,,72,76
21576,note_on,216,0,1,,,,,,,,0,,,81,0
21576,note_on,216,0,3,,,,,,,,2,,,72,0
21600,note_on,0,0,1,,,,,,,,0,,,74,76
21600,note_on,288,0,4,,,,,,,,3,,,59,90
21600,note_on,1008,0,2,,,,,,,,1,,,74,88
21600,control_change,24,0,1,,,,,,,,0,64,127,,
21624,control_change,24,0,4,,,,,,,,3,64,127,,
21839,note_on,239,0,2,,,,,,,,1,,,74,0
21839,note_on,239,0,1,,,,,,,,0,,,74,0
21840,note_on,1,0,2,,,,,,,,1,,,72,87
21840,set_tempo,520,1,0,,,,,,469667,,,,,,
21840,note_on,1,0,1,,,,,,,,0,,,76,81
22079,note_on,239,0,1,,,,,,,,0,,,76,0
22079,note_on,239,0,2,,,,,,,,1,,,72,0
22080,note_on,1,0,2,,,,,,,,1,,,71,85
22080,note_on,1,0,1,,,,,,,,0,,,78,86
22200,note_on,120,0,2,,,,,,,,1,,,71,0
22319,note_on,239,0,1,,,,,,,,0,,,78,0
22319,note_on,695,0,4,,,,,,,,3,,,59,0
22320,note_on,120,0,2,,,,,,,,1,,,71,84
22320,note_on,1,0,1,,,,,,,,0,,,79,91
22320,note_on,1,0,4,,,,,,,,3,,,64,84
22360,set_tempo,520,1,0,,,,,,466926,,,,,,
22559,note_on,239,0,2,,,,,,,,1,,,71,0
22560,note_on,1,0,2,,,,,,,,1,,,69,81
22560,control_change,240,0,1,,,,,,,,0,64,0,,
22584,control_change,264,0,4,,,,,,,,3,64,0,,
22799,note_on,239,0,2,,,,,,,,1,,,69,0
22800,note_on,1224,0,3,,,,,,,,2,,,71,74
22800,note_on,1,0,2,,,,,,,,1,,,67,79
22840,set_tempo,480,1,0,,,,,,464217,,,,,,
22920,note_on,120,0,2,,,,,,,,1,,,67,0
23039,note_on,239,0,3,,,,,,,,2,,,71,0
23039,note_on,455,0,4,,,,,,,,3,,,64,0
23040,note_on,120,0,2,,,,,,,,1,,,67,78
23040,note_on,1,0,3,,,,,,,,2,,,76,76
23040,note_on,1,0,4,,,,,,,,3,,,52,79
23279,note_on,239,0,2,,,,,,,,1,,,67,0
23279,note_on,239,0,3,,,,,,,,2,,,76,0
23280,note_on,1,0,3,,,,,,,,2,,,74,80
23280,note_on,1,0,2,,,,,,,,1,,,66,75
23360,set_tempo,520,1,0,,,,,,461538,,,,,,
23472,note_on,432,0,4,,,,,,,,3,,,52,0
23519,note_on,239,0,2,,,,,,,,1,,,66,0
23519,note_on,239,0,3,,,,,,,,2,,,74,0
23520,note_on,1,0,2,,,,,,,,1,,,64,74
23520,note_on,1,0,3,,,,,,,,2,,,72,82
23628,note_on,108,0,3,,,,,,,,2,,,72,0
23736,note_on,216,0,2,,,,,,,,1,,,64,0
23760,note_on,132,0,3,,,,,,,,2,,,72,85
23760,note_on,1200,0,1,,,,,,,,0,,,72,91
23760,note_on,24,0,2,,,,,,,,1,,,64,72
23760,note_on,288,0,4,,,,,,,,3,,,57,76
23880,set_tempo,520,1,0,,,,,,458891,,,,,,
23999,note_on,239,0,2,,,,,,,,1,,,64,0
23999,note_on,239,0,3,,,,,,,,2,,,72,0
23999,note_on,239,0,1,,,,,,,,0,,,72,0
24000,note_on,1,0,2,,,,,,,,1,,,62,70
24000,note_on,1,0,1,,,,,,,,0,,,71,86
24000,note_on,1,0,3,,,,,,,,2,,,71,87
24239,note_on,239,0,1,,,,,,,,0,,,71,0
24239,note_on,239,0,2,,,,,,,,1,,,62,0
24239,note_on,239,0,3,,,,,,,,2,,,71,0
24240,note_on,1,0,2,,,,,,,,1,,,60,76
24240,note_on,1,0,1,,,,,,,,0,,,69,81
24240,note_on,1,0,3,,,,,,,,2,,,69,90
24360,note_on,120,0,2,,,,,,,,1,,,60,0
24360,set_tempo,480,1,0,,,,,,456274,,,,,,
24479,note_on,719,0,4,,,,,,,,3,,,57,0
24479,note_on,239,0,1,,,,,,,,0,,,69,0
24479,note_on,239,0,3,,,,,,,,2,,,69,0
24480,note_on,1,0,1,,,,,,,,0,,,69,76
24480,note_on,1,0,4,,,,,,,,3,,,50,76
24480,note_on,1,0,3,,,,,,,,2,,,69,85
24480,note_on,120,0,2,,,,,,,,1,,,60,76
24719,note_on,239,0,1,,,,,,,,0,,,79,0
24719,note_on,239,0,2,,,,,,,,1,,,60,0
24720,note_on,1,0,2,,,,,,,,1,,,59,76
24720,note_on,1,0,1,,,,,,,,0,,,81,85
24839,note_on,119,0,1,,,,,,,,0,,,81,0
24840,note_on,1,0,1,,,,,,,,0,,,79,83
24880,set_tempo,520,1,0,,,,,,453686,,,,,,
24959,note_on,119,0,1,,,,,,,,0,,,79,0
24959,note_on,239,0,2,,,,,,,,1,,,59,0
24960,note_on,1,0,2,,,,,,,,1,,,57,72
24960,note_on,1,0,1,,,,,,,,0,,,78,80
25079,note_on,119,0,1,,,,,,,,0,,,78,0
25080,note_on,1,0,1,,,,,,,,0,,,76,78
25080,note_on,120,0,2,,,,,,,,1,,,57,0
25199,note_on,0,0,1,,,,,,,,0,,,69,0
25199,note_on,119,0,1,,,,,,,,0,,,76,0
25199,note_on,719,0,4,,,,,,,,3,,,50,0
25199,note_on,719,0,3,,,,,,,,2,,,69,0
25200,note_on,0,0,1,,,,,,,,0,,,66,75
25200,note_on,120,0,2,,,,,,,,1,,,57,69
25200,note_on,1,0,3,,,,,,,,2,,,66,69
25200,note_on,1,0,4,,,,,,,,3,,,38,69
25200,note_on,1,0,1,,,,,,,,0,,,74,75
25319,note_on,119,0,1,,,,,,,,0,,,74,0
25320,note_on,1,0,1,,,,,,,,0,,,76,73
25400,set_tempo,520,1,0,,,,,,451128,,,,,,
25439,note_on,119,0,1,,,,,,,,0,,,76,0
25439,note_on,239,0,2,,,,,,,,1,,,57,0
25440,note_on,1,0,2,,,,,,,,1,,,55,66
25440,note_on,1,0,1,,,,,,,,0,,,78,70
25559,note_on,119,0,1,,,,,,,,0,,,78,0
25560,note_on,1,0,1,,,,,,,,0,,,79,68
25632,note_on,432,0,4,,,,,,,,3,,,38,0
25632,note_on,72,0,1,,,,,,,,0,,,66,0
25632,note_on,432,0,3,,,,,,,,2,,,66,0
25679,note_on,239,0,2,,,,,,,,1,,,55,0
25679,note_on,47,0,1,,,,,,,,0,,,79,0
25680,note_on,1,0,1,,,,,,,,0,,,81,65
25680,note_on,1,0,2,,,,,,,,1,,,54,67
25799,note_on,119,0,1,,,,,,,,0,,,81,0
25800,note_on,1,0,1,,,,,,,,0,,,72,63
25880,set_tempo,480,1,0,,,,,,448598,,,,,,
25896,note_on,216,0,2,,,,,,,,1,,,54,0
25908,note_on,108,0,1,,,,,,,,0,,,72,0
25920,note_on,288,0,4,,,,,,,,3,,,43,61
25920,note_on,288,0,3,,,,,,,,2,,,62,61
25920,note_on,24,0,2,,,,,,,,1,,,55,62
25920,control_change,12,0,1,,,,,,,,0,64,127,,
25920,note_on,0,0,1,,,,,,,,0,,,71,60
25920,note_on,0,0,1,,,,,,,,0,,,62,60
26159,note_on,239,0,2,,,,,,,,1,,,55,0
26160,note_on,1,0,2,,,,,,,,1,,,57,65
26352,note_on,432,0,4,,,,,,,,3,,,43,0
26352,note_on,432,0,1,,,,,,,,0,,,62,0
26352,note_on,432,0,3,,,,,,,,2,,,62,0
26352,note_on,0,0,1,,,,,,,,0,,,71,0
26399,note_on,239,0,2,,,,,,,,1,,,57,0
26400,note_on,1,0,2,,,,,,,,1,,,59,69
26520,note_on,120,0,2,,,,,,,,1,,,59,0
26640,note_on,120,0,2,,,,,,,,1,,,59,73
26879,note_on,239,0,2,,,,,,,,1,,,59,0
26880,note_on,1,0,2,,,,,,,,1,,,60,76
26880,control_change,528,0,1,,,,,,,,0,64,0,,
27119,note_on,239,0,2,,,,,,,,1,,,60,0
27120,note_on,1,0,2,,,,,,,,1,,,62,80
27240,note_on,120,0,2,,,,,,,,1,,,62,0
27360,note_on,120,0,2,,,,,,,,1,,,62,83
27599,note_on,239,0,2,,,,,,,,1,,,62,0
27600,note_on,1,0,2,,,,,,,,1,,,64,87
27839,note_on,239,0,2,,,,,,,,1,,,64,0
27840,note_on,1,0,2,,,,,,,,1,,,66,91
28056,note_on,216,0,2,,,,,,,,1,,,66,0
28080,note_on,24,0,2,,,,,,,,1,,,67,81
28080,note_on,1200,0,1,,,,,,,,0,,,67,76
28319,note_on,239,0,1,,,,,,,,0,,,67,0
28320,note_on,1,0,1,,,,,,,,0,,,69,79
28559,note_on,479,0,2,,,,,,,,1,,,67,0
28559,note_on,239,0,1,,,,,,,,0,,,69,0
28560,note_on,1,0,2,,,,,,,,1,,,62,72
28560,note_on,1,0,1,,,,,,,,0,,,71,81
28680,note_on,120,0,1,,,,,,,,0,,,71,0
28799,note_on,239,0,2,,,,,,,,1,,,62,0
28800,note_on,1,0,2,,,,,,,,1,,,67,79
28800,note_on,120,0,1,,,,,,,,0,,,71,84
29039,note_on,239,0,1,,,,,,,,0,,,71,0
29040,note_on,1,0,1,,,,,,,,0,,,72,86
29279,note_on,239,0,1,,,,,,,,0,,,72,0
29279,note_on,479,0,2,,,,,,,,1,,,67,0
29280,note_on,1,0,2,,,,,,,,1,,,62,76
29280,note_on,1,0,1,,,,,,,,0,,,74,88
29400,note_on,120,0,1,,,,,,,,0,,,74,0
29519,note_on,239,0,2,,,,,,,,1,,,62,0
29520,note_on,1,0,2,,,,,,,,1,,,69,86
29520,note_on,120,0,1,,,,,,,,0,,,74,92
29520,note_on,3168,0,3,,,,,,,,2,,,60,76
29759,note_on,239,0,1,,,,,,,,0,,,74,0
29760,note_on,1,0,1,,,,,,,,0,,,76,94
29952,note_on,432,0,2,,,,,,,,1,,,69,0
29999,note_on,239,0,1,,,,,,,,0,,,76,0
29999,note_on,479,0,3,,,,,,,,2,,,60,0
30000,note_on,1,0,1,,,,,,,,0,,,78,97
30000,note_on,1,0,3,,,,,,,,2,,,62,76
30216,note_on,216,0,3,,,,,,,,2,,,62,0
30216,note_on,216,0,1,,,,,,,,0,,,78,0
30240,note_on,24,0,3,,,,,,,,2,,,59,76
30240,control_change,288,0,2,,,,,,,,1,64,127,,
30240,note_on,0,0,2,,,,,,,,1,,,74,76
30240,set_tempo,4360,1,0,,,,,,433996,,,,,,
30240,note_on,24,0,1,,,,,,,,0,,,79,99
30479,note_on,239,0,3,,,,,,,,2,,,59,0
30480,note_on,1,0,3,,,,,,,,2,,,55,76
30540,note_on,60,0,3,,,,,,,,2,,,55,0
30600,note_on,60,0,3,,,,,,,,2,,,57,78
30660,note_on,60,0,3,,,,,,,,2,,,57,0
30719,note_on,479,0,1,,,,,,,,0,,,79,0
30720,note_on,60,0,3,,,,,,,,2,,,59,80
30720,note_on,1,0,1,,,,,,,,0,,,74,74
30780,note_on,60,0,3,,,,,,,,2,,,59,0
30840,note_on,60,0,3,,,,,,,,2,,,60,84
30900,note_on,60,0,3,,,,,,,,2,,,60,0
30959,note_on,719,0,2,,,,,,,,1,,,74,0
30959,note_on,239,0,1,,,,,,,,0,,,74,0
30960,note_on,60,0,3,,,,,,,,2,,,62,87
30960,note_on,1,0,1,,,,,,,,0,,,83,90
30960,note_on,1,0,2,,,,,,,,1,,,79,76
31199,note_on,239,0,3,,,,,,,,2,,,62,0
31200,control_change,240,0,2,,,,,,,,1,64,0,,
31200,note_on,1,0,3,,,,,,,,2,,,64,76
31260,note_on,60,0,3,,,,,,,,2,,,64,0
31320,note_on,60,0,3,,,,,,,,2,,,62,88
31380,note_on,60,0,3,,,,,,,,2,,,62,0
31439,note_on,479,0,1,,,,,,,,0,,,83,0
31440,note_on,1,0,1,,,,,,,,0,,,74,78
31440,note_on,60,0,3,,,,,,,,2,,,60,84
31500,note_on,60,0,3,,,,,,,,2,,,60,0
31560,note_on,60,0,3,,,,,,,,2,,,59,80
31620,note_on,60,0,3,,,,,,,,2,,,59,0
31679,note_on,479,0,2,,,,,,,,1,,,79,0
31679,note_on,239,0,1,,,,,,,,0,,,74,0
31680,note_on,1,0,1,,,,,,,,0,,,81,92
31680,note_on,1,0,2,,,,,,,,1,,,78,76
31680,note_on,60,0,3,,,,,,,,2,,,60,75
31919,note_on,239,0,3,,,,,,,,2,,,60,0
31920,note_on,1,0,3,,,,,,,,2,,,62,76
31980,note_on,60,0,3,,,,,,,,2,,,62,0
32040,note_on,60,0,3,,,,,,,,2,,,60,87
32100,note_on,60,0,3,,,,,,,,2,,,60,0
32112,note_on,432,0,2,,,,,,,,1,,,78,0
32159,note_on,479,0,1,,,,,,,,0,,,81,0
32160,note_on,60,0,3,,,,,,,,2,,,59,82
32160,note_on,1,0,1,,,,,,,,0,,,74,79
32220,note_on,60,0,3,,,,,,,,2,,,59,0
32280,note_on,60,0,3,,,,,,,,2,,,57,79
32334,note_on,54,0,3,,,,,,,,2,,,57,0
32376,note_on,216,0,1,,,,,,,,0,,,74,0
32400,control_change,24,0,1,,,,,,,,0,64,127,,
32400,note_on,288,0,2,,,,,,,,1,,,74,76
32400,note_on,66,0,3,,,,,,,,2,,,59,74
32400,note_on,0,0,1,,,,,,,,0,,,81,95
32639,note_on,239,0,3,,,,,,,,2,,,59,0
32639,note_on,239,0,2,,,,,,,,1,,,74,0
32640,note_on,1,0,2,,,,,,,,1,,,67,76
32640,note_on,1,0,3,,,,,,,,2,,,50,73
32700,note_on,60,0,2,,,,,,,,1,,,67,0
32760,note_on,60,0,2,,,,,,,,1,,,69,76
32820,note_on,60,0,2,,,,,,,,1,,,69,0
32879,note_on,239,0,3,,,,,,,,2,,,50,0
32880,note_on,60,0,2,,,,,,,,1,,,71,81
32880,note_on,1,0,3,,,,,,,,2,,,55,75
32940,note_on,60,0,2,,,,,,,,1,,,71,0
33000,note_on,60,0,2,,,,,,,,1,,,72,86
33060,note_on,60,0,2,,,,,,,,1,,,72,0
33119,note_on,239,0,3,,,,,,,,2,,,55,0
33119,note_on,719,0,1,,,,,,,,0,,,81,0
33120,note_on,60,0,2,,,,,,,,1,,,74,91
33120,note_on,1,0,3,,,,,,,,2,,,59,78
33120,note_on,1,0,1,,,,,,,,0,,,79,89
33359,note_on,239,0,3,,,,,,,,2,,,59,0
33359,note_on,239,0,2,,,,,,,,1,,,74,0
33360,note_on,1,0,2,,,,,,,,1,,,76,76
33360,control_change,240,0,1,,,,,,,,0,64,0,,
33360,note_on,1,0,3,,,,,,,,2,,,55,80
33420,note_on,60,0,2,,,,,,,,1,,,76,0
33480,note_on,60,0,2,,,,,,,,1,,,74,91
33540,note_on,60,0,2,,,,,,,,1,,,74,0
33599,note_on,239,0,3,,,,,,,,2,,,55,0
33600,note_on,60,0,2,,,,,,,,1,,,72,87
33600,note_on,1,0,3,,,,,,,,2,,,59,81
33660,note_on,60,0,2,,,,,,,,1,,,72,0
33720,note_on,60,0,2,,,,,,,,1,,,71,84
33780,note_on,60,0,2,,,,,,,,1,,,71,0
33839,note_on,479,0,1,,,,,,,,0,,,79,0
33839,note_on,239,0,3,,,,,,,,2,,,59,0
33840,note_on,1,0,1,,,,,,,,0,,,78,84
33840,note_on,60,0,2,,,,,,,,1,,,72,80
33840,note_on,1,0,3,,,,,,,,2,,,62,84
34056,note_on,216,0,1,,,,,,,,0,,,78,0
34079,note_on,239,0,2,,,,,,,,1,,,72,0
34079,note_on,239,0,3,,,,,,,,2,,,62,0
34080,note_on,1,0,2,,,,,,,,1,,,74,76
34080,note_on,1,0,3,,,,,,,,2,,,59,86
34140,note_on,60,0,2,,,,,,,,1,,,74,0
34200,note_on,60,0,2,,,,,,,,1,,,72,87
34260,note_on,60,0,2,,,,,,,,1,,,72,0
34319,note_on,239,0,3,,,,,,,,2,,,59,0
34320,note_on,1,0,3,,,,,,,,2,,,62,88
34320,note_on,60,0,2,,,,,,,,1,,,71,84
34380,note_on,60,0,2,,,,,,,,1,,,71,0
34440,note_on,60,0,2,,,,,,,,1,,,69,80
34494,note_on,54,0,2,,,,,,,,1,,,69,0
34536,note_on,216,0,3,,,,,,,,2,,,62,0
34560,note_on,66,0,2,,,,,,,,1,,,71,76
34560,note_on,24,0,3,,,,,,,,2,,,67,91
34560,note_on,504,0,1,,,,,,,,0,,,79,78
34611,control_change,51,0,1,,,,,,,,0,64,127,,
34776,note_on,216,0,3,,,,,,,,2,,,67,0
34799,note_on,239,0,2,,,,,,,,1,,,71,0
34800,note_on,1,0,2,,,,,,,,1,,,57,91
34800,note_on,0,0,2,,,,,,,,1,,,66,91
35039,note_on,239,0,2,,,,,,,,1,,,66,0
35039,note_on,0,0,2,,,,,,,,1,,,57,0
35040,note_on,8688,0,4,,,,,,,,3,,,55,82
35040,note_on,0,0,2,,,,,,,,1,,,67,91
35040,note_on,0,0,4,,,,,,,,3,,,43,82
35040,note_on,1,0,2,,,,,,,,1,,,59,91
35279,note_on,239,0,4,,,,,,,,3,,,43,0
35279,note_on,0,0,4,,,,,,,,3,,,55,0
35280,note_on,0,0,4,,,,,,,,3,,,50,91
35280,note_on,1,0,4,,,,,,,,3,,,38,91
35519,note_on,479,0,2,,,,,,,,1,,,67,0
35519,note_on,0,0,2,,,,,,,,1,,,59,0
35520,note_on,1,0,2,,,,,,,,1,,,62,91
35520,note_on,0,0,2,,,,,,,,1,,,71,91
35571,control_change,960,0,1,,,,,,,,0,64,0,,
35639,note_on,119,0,2,,,,,,,,1,,,71,0
35639,note_on,0,0,2,,,,,,,,1,,,62,0
35640,note_on,0,0,2,,,,,,,,1,,,69,109
35640,note_on,1,0,2,,,,,,,,1,,,60,109
35759,note_on,479,0,4,,,,,,,,3,,,50,0
35759,note_on,0,0,2,,,,,,,,1,,,60,0
35759,note_on,119,0,2,,,,,,,,1,,,69,0
35759,note_on,0,0,4,,,,,,,,3,,,38,0
35760,note_on,0,0,2,,,,,,,,1,,,67,103
35760,note_on,1,0,4,,,,,,,,3,,,55,81
35760,note_on,1,0,2,,,,,,,,1,,,59,103
35760,note_on,0,0,4,,,,,,,,3,,,43,81
35879,note_on,119,0,2,,,,,,,,1,,,67,0
35879,note_on,0,0,2,,,,,,,,1,,,59,0
35880,note_on,0,0,2,,,,,,,,1,,,66,97
35880,note_on,1,0,2,,,,,,,,1,,,57,97
35999,note_on,0,0,4,,,,,,,,3,,,55,0
35999,note_on,119,0,2,,,,,,,,1,,,66,0
35999,note_on,239,0,4,,,,,,,,3,,,43,0
35999,note_on,0,0,2,,,,,,,,1,,,57,0
35999,note_on,428,0,1,,,,,,,,0,,,79,0
36000,note_on,0,0,2,,,,,,,,1,,,67,90
36000,note_on,1,0,1,,,,,,,,0,,,74,91
36000,note_on,0,0,4,,,,,,,,3,,,47,91
36000,note_on,1,0,2,,,,,,,,1,,,59,90
36000,note_on,1,0,4,,,,,,,,3,,,35,91
36239,note_on,239,0,2,,,,,,,,1,,,67,0
36239,note_on,0,0,2,,,,,,,,1,,,59,0
36240,note_on,1,0,2,,,,,,,,1,,,62,91
36240,note_on,0,0,2,,,,,,,,1,,,71,91
36359,note_on,0,0,2,,,,,,,,1,,,62,0
36359,note_on,119,0,2,,,,,,,,1,,,71,0
36360,note_on,1,0,2,,,,,,,,1,,,60,104
36360,note_on,0,0,2,,,,,,,,1,,,69,104
36479,note_on,479,0,4,,,,,,,,3,,,47,0
36479,note_on,119,0,2,,,,,,,,1,,,69,0
36479,note_on,0,0,4,,,,,,,,3,,,35,0
36479,note_on,0,0,2,,,,,,,,1,,,60,0
36480,note_on,1,0,2,,,,,,,,1,,,59,99
36480,note_on,1,0,4,,,,,,,,3,,,38,80
36480,note_on,0,0,4,,,,,,,,3,,,50,80
36480,note_on,0,0,2,,,,,,,,1,,,67,99
36599,note_on,0,0,2,,,,,,,,1,,,59,0
36599,note_on,119,0,2,,,,,,,,1,,,67,0
36600,note_on,1,0,2,,,,,,,,1,,,57,93
36600,note_on,0,0,2,,,,,,,,1,,,66,93
36696,note_on,0,0,4,,,,,,,,3,,,38,0
36696,note_on,216,0,4,,,,,,,,3,,,50,0
36708,note_on,0,0,2,,,,,,,,1,,,57,0
36708,note_on,108,0,2,,,,,,,,1,,,66,0
36720,note_on,0,0,4,,,,,,,,3,,,43,91
36720,note_on,720,0,1,,,,,,,,0,,,67,74
36720,note_on,24,0,4,,,,,,,,3,,,31,91
36720,note_on,12,0,2,,,,,,,,1,,,59,87
36732,control_change,12,0,4,,,,,,,,3,64,127,,
36839,note_on,119,0,2,,,,,,,,1,,,59,0
36840,note_on,1,0,2,,,,,,,,1,,,60,82
36959,note_on,119,0,2,,,,,,,,1,,,60,0
36959,note_on,0,0,1,,,,,,,,0,,,74,0
36959,note_on,239,0,1,,,,,,,,0,,,67,0
36960,note_on,1,0,1,,,,,,,,0,,,62,67
36960,note_on,1,0,2,,,,,,,,1,,,59,76
37079,note_on,119,0,2,,,,,,,,1,,,59,0
37080,note_on,120,0,1,,,,,,,,0,,,62,0
37080,note_on,1,0,2,,,,,,,,1,,,57,68
37152,note_on,0,0,4,,,,,,,,3,,,31,0
37152,note_on,420,0,4,,,,,,,,3,,,43,0
37199,note_on,119,0,2,,,,,,,,1,,,57,0
37200,note_on,120,0,1,,,,,,,,0,,,67,68
37200,note_on,1,0,2,,,,,,,,1,,,55,65
37319,note_on,119,0,2,,,,,,,,1,,,55,0
37320,note_on,1,0,2,,,,,,,,1,,,54,63
37320,note_on,120,0,1,,,,,,,,0,,,67,0
37439,note_on,119,0,2,,,,,,,,1,,,54,0
37440,note_on,120,0,1,,,,,,,,0,,,71,70
37440,note_on,1,0,2,,,,,,,,1,,,55,78
37559,note_on,119,0,2,,,,,,,,1,,,55,0
37560,note_on,1,0,2,,,,,,,,1,,,64,75
37560,note_on,120,0,1,,,,,,,,0,,,71,0
37679,note_on,119,0,2,,,,,,,,1,,,64,0
37680,note_on,1,0,2,,,,,,,,1,,,62,72
37680,note_on,120,0,1,,,,,,,,0,,,67,73
37692,control_change,540,0,4,,,,,,,,3,64,0,,
37799,note_on,119,0,2,,,,,,,,1,,,62,0
37800,note_on,1,0,2,,,,,,,,1,,,60,68
37800,note_on,120,0,1,,,,,,,,0,,,67,0
37919,note_on,119,0,2,,,,,,,,1,,,60,0
37920,note_on,1,0,2,,,,,,,,1,,,59,65
37920,note_on,120,0,1,,,,,,,,0,,,71,75
38039,note_on,119,0,2,,,,,,,,1,,,59,0
38040,note_on,120,0,1,,,,,,,,0,,,71,0
38040,note_on,1,0,2,,,,,,,,1,,,57,63
38159,note_on,119,0,2,,,,,,,,1,,,57,0
38160,note_on,1,0,2,,,,,,,,1,,,59,75
38160,note_on,120,0,1,,,,,,,,0,,,74,77
38279,note_on,119,0,2,,,,,,,,1,,,59,0
38280,note_on,1,0,2,,,,,,,,1,,,67,72
38280,note_on,120,0,1,,,,,,,,0,,,74,0
38399,note_on,119,0,2,,,,,,,,1,,,67,0
38400,note_on,120,0,1,,,,,,,,0,,,71,79
38400,note_on,1,0,2,,,,,,,,1,,,66,70
38519,note_on,119,0,2,,,,,,,,1,,,66,0
38520,note_on,1,0,2,,,,,,,,1,,,64,68
38520,note_on,120,0,1,,,,,,,,0,,,71,0
38639,note_on,119,0,2,,,,,,,,1,,,64,0
38640,note_on,1,0,2,,,,,,,,1,,,62,64
38640,note_on,120,0,1,,,,,,,,0,,,74,81
38748,note_on,108,0,1,,,,,,,,0,,,74,0
38759,note_on,119,0,2,,,,,,,,1,,,62,0
38760,note_on,1,0,2,,,,,,,,1,,,60,63
38868,note_on,108,0,2,,,,,,,,1,,,60,0
38880,note_on,132,0,1,,,,,,,,0,,,79,105
38880,note_on,12,0,2,,,,,,,,1,,,59,75
39119,note_on,239,0,1,,,,,,,,0,,,79,0
39119,note_on,239,0,2,,,,,,,,1,,,59,0
39120,note_on,1,0,2,,,,,,,,1,,,60,91
39120,note_on,0,0,1,,,,,,,,0,,,69,117
39120,note_on,1,0,1,,,,,,,,0,,,66,117
39359,note_on,0,0,1,,,,,,,,0,,,66,0
39359,note_on,239,0,2,,,,,,,,1,,,60,0
39359,note_on,239,0,1,,,,,,,,0,,,69,0
39360,note_on,0,0,4,,,,,,,,3,,,43,80
39360,note_on,1668,0,4,,,,,,,,3,,,55,80
39360,note_on,0,0,1,,,,,,,,0,,,71,120
39360,note_on,1,0,2,,,,,,,,1,,,62,91
39360,note_on,1,0,1,,,,,,,,0,,,67,120
39599,note_on,0,0,4,,,,,,,,3,,,55,0
39599,note_on,239,0,4,,,,,,,,3,,,43,0
39600,note_on,1,0,4,,,,,,,,3,,,38,91
39600,note_on,0,0,4,,,,,,,,3,,,50,91
39839,note_on,0,0,1,,,,,,,,0,,,67,0
39839,note_on,479,0,1,,,,,,,,0,,,71,0
39840,note_on,1,0,1,,,,,,,,0,,,74,109
39840,note_on,0,0,1,,,,,,,,0,,,71,109
39959,note_on,0,0,1,,,,,,,,0,,,74,0
39959,note_on,119,0,1,,,,,,,,0,,,71,0
39960,note_on,0,0,1,,,,,,,,0,,,69,105
39960,note_on,1,0,1,,,,,,,,0,,,72,105
40079,note_on,0,0,4,,,,,,,,3,,,38,0
40079,note_on,0,0,1,,,,,,,,0,,,72,0
40079,note_on,479,0,4,,,,,,,,3,,,50,0
40079,note_on,119,0,1,,,,,,,,0,,,69,0
40080,note_on,1,0,1,,,,,,,,0,,,67,101
40080,note_on,0,0,4,,,,,,,,3,,,43,73
40080,note_on,1,0,4,,,,,,,,3,,,55,73
40080,note_on,0,0,1,,,,,,,,0,,,71,101
40199,note_on,119,0,1,,,,,,,,0,,,71,0
40199,note_on,0,0,1,,,,,,,,0,,,67,0
40200,note_on,1,0,1,,,,,,,,0,,,66,97
40200,note_on,0,0,1,,,,,,,,0,,,69,97
40319,note_on,239,0,4,,,,,,,,3,,,43,0
40319,note_on,119,0,1,,,,,,,,0,,,69,0
40319,note_on,0,0,1,,,,,,,,0,,,66,0
40319,note_on,0,0,4,,,,,,,,3,,,55,0
40320,note_on,0,0,1,,,,,,,,0,,,71,93
40320,note_on,1,0,4,,,,,,,,3,,,35,91
40320,note_on,1,0,1,,,,,,,,0,,,67,93
40320,note_on,0,0,4,,,,,,,,3,,,47,91
40559,note_on,0,0,1,,,,,,,,0,,,67,0
40559,note_on,239,0,1,,,,,,,,0,,,71,0
40560,note_on,0,0,1,,,,,,,,0,,,74,85
40560,note_on,1,0,1,,,,,,,,0,,,71,85
40679,note_on,119,0,1,,,,,,,,0,,,74,0
40679,note_on,0,0,1,,,,,,,,0,,,71,0
40680,note_on,1,0,1,,,,,,,,0,,,69,81
40680,note_on,0,0,1,,,,,,,,0,,,72,81
40799,note_on,0,0,1,,,,,,,,0,,,69,0
40799,note_on,0,0,4,,,,,,,,3,,,35,0
40799,note_on,479,0,4,,,,,,,,3,,,47,0
40799,note_on,119,0,1,,,,,,,,0,,,72,0
40800,note_on,1,0,4,,,,,,,,3,,,38,91
40800,note_on,0,0,1,,,,,,,,0,,,71,77
40800,note_on,1,0,1,,,,,,,,0,,,67,77
40800,note_on,0,0,4,,,,,,,,3,,,50,91
40919,note_on,0,0,1,,,,,,,,0,,,67,0
40919,note_on,119,0,1,,,,,,,,0,,,71,0
40920,note_on,0,0,1,,,,,,,,0,,,69,73
40920,note_on,1,0,1,,,,,,,,0,,,66,73
41016,note_on,216,0,4,,,,,,,,3,,,50,0
41016,note_on,0,0,4,,,,,,,,3,,,38,0
41028,note_on,108,0,1,,,,,,,,0,,,69,0
41028,note_on,0,0,1,,,,,,,,0,,,66,0
41040,note_on,24,0,4,,,,,,,,3,,,31,91
41040,note_on,12,0,1,,,,,,,,0,,,71,69
41040,set_tempo,10800,1,0,,,,,,446097,,,,,,
41040,note_on,0,0,1,,,,,,,,0,,,67,69
41040,note_on,0,0,4,,,,,,,,3,,,43,91
41279,note_on,239,0,1,,,,,,,,0,,,67,0
41279,note_on,0,0,1,,,,,,,,0,,,71,0
41280,note_on,1,0,1,,,,,,,,0,,,72,74
41280,note_on,0,0,1,,,,,,,,0,,,69,74
41519,note_on,239,0,1,,,,,,,,0,,,69,0
41519,note_on,0,0,1,,,,,,,,0,,,72,0
41520,note_on,0,0,1,,,,,,,,0,,,71,81
41520,note_on,1,0,1,,,,,,,,0,,,74,81
41759,note_on,0,0,4,,,,,,,,3,,,31,0
41759,note_on,0,0,1,,,,,,,,0,,,74,0
41759,note_on,719,0,4,,,,,,,,3,,,43,0
41759,note_on,239,0,1,,,,,,,,0,,,71,0
41760,note_on,0,0,4,,,,,,,,3,,,43,89
41760,note_on,1,0,4,,,,,,,,3,,,55,89
41760,note_on,1,0,1,,,,,,,,0,,,74,89
41760,note_on,6984,0,3,,,,,,,,2,,,59,72
41815,control_change,55,0,4,,,,,,,,3,64,127,,
41999,note_on,239,0,3,,,,,,,,2,,,59,0
42000,note_on,1,0,3,,,,,,,,2,,,60,80
42239,note_on,2879,0,2,,,,,,,,1,,,62,0
42239,note_on,239,0,3,,,,,,,,2,,,60,0
42240,note_on,1,0,2,,,,,,,,1,,,72,91
42240,note_on,1,0,3,,,,,,,,2,,,62,82
42479,note_on,0,0,4,,,,,,,,3,,,55,0
42479,note_on,664,0,4,,,,,,,,3,,,43,0
42479,note_on,239,0,3,,,,,,,,2,,,62,0
42479,note_on,239,0,2,,,,,,,,1,,,72,0
42480,note_on,0,0,4,,,,,,,,3,,,41,83
42480,note_on,1,0,2,,,,,,,,1,,,72,86
42480,note_on,1,0,3,,,,,,,,2,,,62,82
42480,note_on,1,0,4,,,,,,,,3,,,53,83
42719,note_on,239,0,3,,,,,,,,2,,,62,0
42719,note_on,239,0,2,,,,,,,,1,,,72,0
42720,note_on,1,0,3,,,,,,,,2,,,64,83
42720,note_on,1,0,2,,,,,,,,1,,,71,79
42775,control_change,295,0,4,,,,,,,,3,64,0,,
42912,note_on,137,0,4,,,,,,,,3,,,41,0
42912,note_on,0,0,4,,,,,,,,3,,,53,0
42959,note_on,239,0,3,,,,,,,,2,,,64,0
42959,note_on,239,0,2,,,,,,,,1,,,71,0
42960,note_on,1,0,3,,,,,,,,2,,,65,85
42960,note_on,1,0,2,,,,,,,,1,,,69,74
43176,note_on,216,0,2,,,,,,,,1,,,69,0
43176,note_on,216,0,3,,,,,,,,2,,,65,0
43200,note_on,24,0,3,,,,,,,,2,,,64,74
43200,note_on,288,0,4,,,,,,,,3,,,52,74
43200,note_on,0,0,4,,,,,,,,3,,,40,74
43335,control_change,135,0,4,,,,,,,,3,64,127,,
43439,note_on,239,0,3,,,,,,,,2,,,64,0
43439,note_on,1679,0,1,,,,,,,,0,,,74,0
43440,note_on,264,0,2,,,,,,,,1,,,72,87
43440,note_on,1,0,3,,,,,,,,2,,,65,79
43440,note_on,1,0,1,,,,,,,,0,,,72,73
43679,note_on,239,0,1,,,,,,,,0,,,72,0
43679,note_on,239,0,2,,,,,,,,1,,,72,0
43679,note_on,239,0,3,,,,,,,,2,,,65,0
43680,note_on,1,0,2,,,,,,,,1,,,71,80
43680,note_on,1,0,3,,,,,,,,2,,,67,83
43680,note_on,1,0,1,,,,,,,,0,,,71,80
43919,note_on,239,0,2,,,,,,,,1,,,71,0
43919,note_on,239,0,1,,,,,,,,0,,,71,0
43919,note_on,239,0,3,,,,,,,,2,,,67,0
43919,note_on,584,0,4,,,,,,,,3,,,40,0
43919,note_on,0,0,4,,,,,,,,3,,,52,0
43920,note_on,1,0,3,,,,,,,,2,,,67,90
43920,note_on,0,0,4,,,,,,,,3,,,52,64
43920,note_on,1,0,1,,,,,,,,0,,,72,73
43920,note_on,1,0,4,,,,,,,,3,,,64,64
43920,note_on,1,0,2,,,,,,,,1,,,72,72
44159,note_on,239,0,3,,,,,,,,2,,,67,0
44160,note_on,1,0,3,,,,,,,,2,,,69,90
44295,control_change,375,0,4,,,,,,,,3,64,0,,
44352,note_on,432,0,2,,,,,,,,1,,,72,0
44399,note_on,479,0,1,,,,,,,,0,,,72,0
44399,note_on,239,0,3,,,,,,,,2,,,69,0
44400,note_on,1,0,1,,,,,,,,0,,,79,66
44400,note_on,1,0,3,,,,,,,,2,,,71,90
44639,note_on,344,0,4,,,,,,,,3,,,52,0
44639,note_on,239,0,1,,,,,,,,0,,,79,0
44639,note_on,0,0,4,,,,,,,,3,,,64,0
44639,note_on,239,0,3,,,,,,,,2,,,71,0
44640,note_on,1,0,4,,,,,,,,3,,,65,54
44640,note_on,1,0,3,,,,,,,,2,,,71,91
44640,note_on,1,0,1,,,,,,,,0,,,77,81
44640,note_on,0,0,4,,,,,,,,3,,,50,54
44879,note_on,239,0,3,,,,,,,,2,,,71,0
44880,note_on,1,0,3,,,,,,,,2,,,72,93
45072,note_on,0,0,4,,,,,,,,3,,,65,0
45072,note_on,432,0,4,,,,,,,,3,,,50,0
45119,note_on,479,0,1,,,,,,,,0,,,77,0
45119,note_on,239,0,3,,,,,,,,2,,,72,0
45120,note_on,1,0,1,,,,,,,,0,,,71,65
45120,note_on,1,0,3,,,,,,,,2,,,74,93
45336,note_on,216,0,1,,,,,,,,0,,,71,0
45336,note_on,216,0,3,,,,,,,,2,,,74,0
45360,note_on,24,0,3,,,,,,,,2,,,76,94
45360,note_on,0,0,2,,,,,,,,1,,,67,60
45360,note_on,288,0,4,,,,,,,,3,,,48,66
45360,note_on,1008,0,2,,,,,,,,1,,,72,60
45360,note_on,0,0,1,,,,,,,,0,,,76,76
45360,control_change,24,0,1,,,,,,,,0,64,127,,
45599,note_on,239,0,2,,,,,,,,1,,,67,0
45599,note_on,0,0,2,,,,,,,,1,,,72,0
45600,note_on,1,0,2,,,,,,,,1,,,74,62
45600,note_on,0,0,2,,,,,,,,1,,,65,62
45792,note_on,432,0,1,,,,,,,,0,,,76,0
45839,note_on,239,0,2,,,,,,,,1,,,65,0
45839,note_on,0,0,2,,,,,,,,1,,,74,0
45840,note_on,1,0,2,,,,,,,,1,,,76,64
45840,note_on,0,0,2,,,,,,,,1,,,67,64
46079,note_on,0,0,2,,,,,,,,1,,,76,0
46079,note_on,719,0,4,,,,,,,,3,,,48,0
46079,note_on,239,0,2,,,,,,,,1,,,67,0
46080,control_change,1,0,4,,,,,,,,3,64,127,,
46080,note_on,0,0,4,,,,,,,,3,,,67,64
46080,note_on,1,0,2,,,,,,,,1,,,76,67
46080,note_on,0,0,4,,,,,,,,3,,,60,64
46319,note_on,239,0,2,,,,,,,,1,,,76,0
46320,control_change,528,0,1,,,,,,,,0,64,0,,
46320,note_on,1,0,2,,,,,,,,1,,,77,68
46559,note_on,1199,0,3,,,,,,,,2,,,76,0
46559,note_on,239,0,2,,,,,,,,1,,,77,0
46560,note_on,1,0,3,,,,,,,,2,,,76,89
46560,note_on,1,0,2,,,,,,,,1,,,79,70
46799,note_on,239,0,2,,,,,,,,1,,,79,0
46799,note_on,719,0,4,,,,,,,,3,,,60,0
46799,note_on,239,0,3,,,,,,,,2,,,76,0
46800,note_on,1,0,2,,,,,,,,1,,,79,73
46800,note_on,1,0,3,,,,,,,,2,,,76,82
46800,note_on,1,0,4,,,,,,,,3,,,58,63
47039,note_on,239,0,3,,,,,,,,2,,,76,0
47039,note_on,239,0,2,,,,,,,,1,,,79,0
47040,note_on,1,0,3,,,,,,,,2,,,77,75
47040,control_change,240,0,4,,,,,,,,3,64,0,,
47040,note_on,1,0,2,,,,,,,,1,,,81,75
47232,note_on,192,0,4,,,,,,,,3,,,58,0
47279,note_on,239,0,3,,,,,,,,2,,,77,0
47279,note_on,239,0,2,,,,,,,,1,,,81,0
47280,note_on,1,0,2,,,,,,,,1,,,82,76
47280,note_on,1,0,3,,,,,,,,2,,,74,66
47480,set_tempo,6440,1,0,,,,,,443623,,,,,,
47496,note_on,216,0,3,,,,,,,,2,,,74,0
47496,note_on,216,0,2,,,,,,,,1,,,82,0
47520,set_tempo,40,1,0,,,,,,446097,,,,,,
47520,note_on,0,0,1,,,,,,,,0,,,84,76
47520,control_change,288,0,4,,,,,,,,3,64,127,,
47520,note_on,0,0,4,,,,,,,,3,,,57,93
47520,control_change,1200,0,1,,,,,,,,0,64,127,,
47520,note_on,24,0,2,,,,,,,,1,,,72,84
47520,marker,0,1,0,,,,,,,,,,,,
47544,control_change,24,0,2,,,,,,,,1,64,127,,
47560,set_tempo,40,1,0,,,,,,448598,,,,,,
47600,set_tempo,40,1,0,,,,,,451128,,,,,,
47640,set_tempo,40,1,0,,,,,,453686,,,,,,
47680,set_tempo,40,1,0,,,,,,456274,,,,,,
47720,set_tempo,40,1,0,,,,,,458891,,,,,,
47759,note_on,239,0,4,,,,,,,,3,,,67,0
47760,set_tempo,40,1,0,,,,,,461538,,,,,,
47760,note_on,1,0,4,,,,,,,,3,,,65,81
47800,set_tempo,40,1,0,,,,,,464217,,,,,,
47840,set_tempo,40,1,0,,,,,,466926,,,,,,
47880,set_tempo,40,1,0,,,,,,469667,,,,,,
47920,set_tempo,40,1,0,,,,,,472441,,,,,,
47960,set_tempo,40,1,0,,,,,,475248,,,,,,
47999,note_on,239,0,4,,,,,,,,3,,,65,0
48000,note_on,1,0,4,,,,,,,,3,,,64,75
48000,set_tempo,40,1,0,,,,,,478088,,,,,,
48040,set_tempo,40,1,0,,,,,,480962,,,,,,
48080,set_tempo,40,1,0,,,,,,483871,,,,,,
48120,set_tempo,40,1,0,,,,,,489796,,,,,,
48239,note_on,695,0,2,,,,,,,,1,,,72,0
48239,note_on,239,0,4,,,,,,,,3,,,64,0
48239,note_on,0,0,4,,,,,,,,3,,,57,0
48240,note_on,1,0,2,,,,,,,,1,,,69,61
48240,note_on,1,0,4,,,,,,,,3,,,62,62
48240,note_on,0,0,4,,,,,,,,3,,,65,62
48479,note_on,959,0,1,,,,,,,,0,,,84,0
48480,note_on,0,0,1,,,,,,,,0,,,82,73
48480,control_change,1,0,1,,,,,,,,0,64,0,,
48480,control_change,240,0,4,,,,,,,,3,64,0,,
48504,control_change,264,0,2,,,,,,,,1,64,0,,
48719,note_on,239,0,1,,,,,,,,0,,,82,0
48720,note_on,1,0,1,,,,,,,,0,,,81,69
48959,note_on,455,0,2,,,,,,,,1,,,69,0
48959,note_on,239,0,1,,,,,,,,0,,,81,0
48959,note_on,479,0,4,,,,,,,,3,,,62,0
48960,note_on,1,0,2,,,,,,,,1,,,74,61
48960,note_on,1,0,4,,,,,,,,3,,,50,61
48960,note_on,1,0,1,,,,,,,,0,,,81,66
49199,note_on,239,0,1,,,,,,,,0,,,81,0
49200,note_on,1,0,1,,,,,,,,0,,,79,62
49392,note_on,432,0,4,,,,,,,,3,,,50,0
49439,note_on,239,0,1,,,,,,,,0,,,79,0
49440,note_on,1,0,1,,,,,,,,0,,,77,61
49536,note_on,144,0,4,,,,,,,,3,,,65,0
49608,note_on,648,0,2,,,,,,,,1,,,74,0
49656,note_on,216,0,1,,,,,,,,0,,,77,0
49680,control_change,24,0,1,,,,,,,,0,64,127,,
49680,note_on,0,0,1,,,,,,,,0,,,82,61
49680,control_change,2184,0,3,,,,,,,,2,64,127,,
49680,note_on,144,0,4,,,,,,,,3,,,55,61
49680,note_on,0,0,3,,,,,,,,2,,,65,75
49680,note_on,72,0,2,,,,,,,,1,,,74,61
49689,control_change,9,0,2,,,,,,,,1,64,127,,
49919,note_on,230,0,2,,,,,,,,1,,,74,0
49919,note_on,239,0,3,,,,,,,,2,,,65,0
49920,note_on,1,0,2,,,,,,,,1,,,72,61
49920,note_on,1,0,3,,,,,,,,2,,,64,72
50159,note_on,239,0,2,,,,,,,,1,,,72,0
50159,note_on,239,0,3,,,,,,,,2,,,64,0
50160,note_on,1,0,3,,,,,,,,2,,,62,67
50160,note_on,1,0,2,,,,,,,,1,,,70,61
50399,note_on,239,0,2,,,,,,,,1,,,70,0
50399,note_on,719,0,4,,,,,,,,3,,,55,0
50399,note_on,239,0,3,,,,,,,,2,,,62,0
50400,note_on,1,0,3,,,,,,,,2,,,64,62
50400,note_on,1,0,2,,,,,,,,1,,,72,61
50400,note_on,1,0,4,,,,,,,,3,,,60,61
50639,note_on,959,0,1,,,,,,,,0,,,82,0
50640,control_change,240,0,3,,,,,,,,2,64,0,,
50640,control_change,1,0,1,,,,,,,,0,64,0,,
50640,note_on,0,0,1,,,,,,,,0,,,81,74
50649,control_change,249,0,2,,,,,,,,1,64,0,,
50879,note_on,239,0,1,,,,,,,,0,,,81,0
50879,note_on,239,0,3,,,,,,,,2,,,64,0
50880,note_on,1,0,1,,,,,,,,0,,,79,72
50880,note_on,1,0,3,,,,,,,,2,,,70,61
51096,note_on,216,0,3,,,,,,,,2,,,70,0
51119,note_on,719,0,4,,,,,,,,3,,,60,0
51119,note_on,239,0,1,,,,,,,,0,,,79,0
51119,note_on,470,0,2,,,,,,,,1,,,72,0
51120,note_on,0,0,2,,,,,,,,1,,,69,73
51120,note_on,1,0,2,,,,,,,,1,,,72,73
51120,note_on,1,0,4,,,,,,,,3,,,45,61
51120,note_on,1,0,1,,,,,,,,0,,,79,68
51179,note_on,59,0,2,,,,,,,,1,,,69,0
51180,note_on,1,0,2,,,,,,,,1,,,70,72
51239,note_on,59,0,2,,,,,,,,1,,,70,0
51240,note_on,1,0,2,,,,,,,,1,,,69,69
51299,note_on,59,0,2,,,,,,,,1,,,69,0
51300,note_on,1,0,2,,,,,,,,1,,,70,68
51359,note_on,59,0,2,,,,,,,,1,,,70,0
51359,note_on,239,0,1,,,,,,,,0,,,79,0
51360,note_on,1,0,2,,,,,,,,1,,,69,67
51360,note_on,1,0,1,,,,,,,,0,,,77,66
51414,note_on,54,0,2,,,,,,,,1,,,69,0
51552,note_on,432,0,4,,,,,,,,3,,,45,0
51599,note_on,239,0,1,,,,,,,,0,,,77,0
51600,note_on,1,0,1,,,,,,,,0,,,76,62
51768,note_on,354,0,2,,,,,,,,1,,,72,0
51816,note_on,216,0,1,,,,,,,,0,,,76,0
51840,note_on,72,0,2,,,,,,,,1,,,72,57
51840,note_on,288,0,4,,,,,,,,3,,,53,61
51840,control_change,24,0,1,,,,,,,,0,64,127,,
51840,note_on,744,0,3,,,,,,,,2,,,65,61
51840,note_on,0,0,1,,,,,,,,0,,,81,60
51959,note_on,119,0,2,,,,,,,,1,,,72,0
51960,note_on,1,0,2,,,,,,,,1,,,74,73
52079,note_on,119,0,2,,,,,,,,1,,,74,0
52080,note_on,1,0,2,,,,,,,,1,,,76,82
52199,note_on,119,0,2,,,,,,,,1,,,76,0
52200,note_on,1,0,2,,,,,,,,1,,,77,79
52319,note_on,119,0,2,,,,,,,,1,,,77,0
52319,note_on,479,0,4,,,,,,,,3,,,53,0
52320,note_on,1,0,4,,,,,,,,3,,,60,55
52320,note_on,1,0,2,,,,,,,,1,,,76,76
52439,note_on,119,0,2,,,,,,,,1,,,76,0
52440,note_on,1,0,2,,,,,,,,1,,,74,72
52559,note_on,239,0,4,,,,,,,,3,,,60,0
52559,note_on,119,0,2,,,,,,,,1,,,74,0
52560,note_on,1,0,2,,,,,,,,1,,,72,68
52560,note_on,1,0,4,,,,,,,,3,,,53,67
52679,note_on,839,0,3,,,,,,,,2,,,65,0
52680,note_on,1,0,3,,,,,,,,2,,,70,73
52799,note_on,119,0,3,,,,,,,,2,,,70,0
52800,note_on,1,0,3,,,,,,,,2,,,69,82
52800,control_change,960,0,1,,,,,,,,0,64,0,,
52919,note_on,119,0,3,,,,,,,,2,,,69,0
52920,set_tempo,4800,1,0,,,,,,461538,,,,,,
52920,note_on,1,0,3,,,,,,,,2,,,67,74
53039,note_on,479,0,4,,,,,,,,3,,,53,0
53039,note_on,119,0,3,,,,,,,,2,,,67,0
53040,note_on,1,0,3,,,,,,,,2,,,65,67
53040,note_on,1,0,4,,,,,,,,3,,,57,60
53159,note_on,119,0,3,,,,,,,,2,,,65,0
53160,note_on,1,0,3,,,,,,,,2,,,64,60
53279,note_on,239,0,4,,,,,,,,3,,,57,0
53279,note_on,119,0,3,,,,,,,,2,,,64,0
53280,note_on,1,0,4,,,,,,,,3,,,50,68
53280,note_on,1,0,3,,,,,,,,2,,,65,53
53519,note_on,959,0,2,,,,,,,,1,,,72,0
53520,note_on,1,0,2,,,,,,,,1,,,77,78
53580,note_on,60,0,2,,,,,,,,1,,,77,0
53640,note_on,60,0,2,,,,,,,,1,,,76,73
53700,note_on,60,0,2,,,,,,,,1,,,76,0
53759,note_on,479,0,4,,,,,,,,3,,,50,0
53760,note_on,1,0,4,,,,,,,,3,,,53,60
53760,note_on,60,0,2,,,,,,,,1,,,74,69
53879,note_on,119,0,2,,,,,,,,1,,,74,0
53880,note_on,1,0,2,,,,,,,,1,,,73,64
53976,note_on,216,0,4,,,,,,,,3,,,53,0
53988,note_on,108,0,2,,,,,,,,1,,,73,0
54000,note_on,1200,0,1,,,,,,,,0,,,74,63
54000,note_on,24,0,4,,,,,,,,3,,,46,69
54012,control_change,12,0,1,,,,,,,,0,64,127,,
54216,note_on,204,0,1,,,,,,,,0,,,81,0
54240,note_on,252,0,2,,,,,,,,1,,,82,79
54300,note_on,60,0,2,,,,,,,,1,,,82,0
54360,note_on,60,0,2,,,,,,,,1,,,81,75
54420,note_on,60,0,2,,,,,,,,1,,,81,0
54479,note_on,479,0,4,,,,,,,,3,,,46,0
54480,note_on,1,0,4,,,,,,,,3,,,58,61
54480,note_on,60,0,2,,,,,,,,1,,,79,74
54599,note_on,119,0,2,,,,,,,,1,,,79,0
54600,note_on,1,0,2,,,,,,,,1,,,77,69
54719,note_on,119,0,2,,,,,,,,1,,,77,0
54719,note_on,239,0,4,,,,,,,,3,,,58,0
54720,note_on,1,0,4,,,,,,,,3,,,52,70
54720,note_on,1,0,2,,,,,,,,1,,,79,66
54959,note_on,1679,0,3,,,,,,,,2,,,65,0
54960,note_on,1,0,3,,,,,,,,2,,,67,86
54972,control_change,756,0,1,,,,,,,,0,64,0,,
55020,note_on,60,0,3,,,,,,,,2,,,67,0
55080,note_on,60,0,3,,,,,,,,2,,,65,75
55140,note_on,60,0,3,,,,,,,,2,,,65,0
55199,note_on,479,0,4,,,,,,,,3,,,52,0
55200,note_on,1,0,4,,,,,,,,3,,,55,51
55200,note_on,60,0,3,,,,,,,,2,,,64,68
55319,note_on,119,0,3,,,,,,,,2,,,64,0
55320,note_on,1,0,3,,,,,,,,2,,,62,61
55439,note_on,119,0,3,,,,,,,,2,,,62,0
55439,note_on,239,0,4,,,,,,,,3,,,55,0
55440,note_on,1,0,3,,,,,,,,2,,,64,54
55440,note_on,1,0,4,,,,,,,,3,,,49,71
55679,note_on,707,0,1,,,,,,,,0,,,74,0
55680,note_on,1,0,1,,,,,,,,0,,,76,70
55740,note_on,60,0,1,,,,,,,,0,,,76,0
55800,note_on,60,0,1,,,,,,,,0,,,74,65
55860,note_on,60,0,1,,,,,,,,0,,,74,0
55919,note_on,479,0,4,,,,,,,,3,,,49,0
55920,note_on,1,0,4,,,,,,,,3,,,52,62
55920,note_on,60,0,1,,,,,,,,0,,,73,60
56016,note_on,1296,0,2,,,,,,,,1,,,79,0
56039,note_on,119,0,1,,,,,,,,0,,,73,0
56040,note_on,1,0,1,,,,,,,,0,,,71,55
56136,note_on,216,0,4,,,,,,,,3,,,52,0
56148,note_on,108,0,1,,,,,,,,0,,,71,0
56160,note_on,24,0,4,,,,,,,,3,,,45,73
56160,note_on,12,0,1,,,,,,,,0,,,79,50
56160,note_on,0,0,2,,,,,,,,1,,,73,67
56160,control_change,144,0,2,,,,,,,,1,64,127,,
56399,note_on,239,0,1,,,,,,,,0,,,79,0
56400,note_on,1,0,1,,,,,,,,0,,,81,79
56460,note_on,60,0,1,,,,,,,,0,,,81,0
56520,note_on,60,0,1,,,,,,,,0,,,79,69
56580,note_on,60,0,1,,,,,,,,0,,,79,0
56639,note_on,479,0,4,,,,,,,,3,,,45,0
56640,note_on,60,0,1,,,,,,,,0,,,77,63
56640,note_on,1,0,4,,,,,,,,3,,,57,63
56759,note_on,119,0,1,,,,,,,,0,,,77,0
56760,note_on,1,0,1,,,,,,,,0,,,76,57
56879,note_on,239,0,4,,,,,,,,3,,,57,0
56879,note_on,719,0,2,,,,,,,,1,,,73,0
56879,note_on,119,0,1,,,,,,,,0,,,76,0
56880,note_on,1,0,1,,,,,,,,0,,,77,51
56880,note_on,1,0,4,,,,,,,,3,,,50,74
56880,note_on,1,0,2,,,,,,,,1,,,69,68
57119,note_on,1679,0,3,,,,,,,,2,,,64,0
57120,note_on,1,0,3,,,,,,,,2,,,65,69
57120,control_change,240,0,2,,,,,,,,1,64,0,,
57180,note_on,60,0,3,,,,,,,,2,,,65,0
57240,note_on,60,0,3,,,,,,,,2,,,64,76
57300,note_on,60,0,3,,,,,,,,2,,,64,0
57359,note_on,479,0,4,,,,,,,,3,,,50,0
57360,note_on,60,0,3,,,,,,,,2,,,62,70
57360,note_on,1,0,4,,,,,,,,3,,,53,60
57479,note_on,119,0,3,,,,,,,,2,,,62,0
57480,note_on,1,0,3,,,,,,,,2,,,61,64
57599,note_on,239,0,4,,,,,,,,3,,,53,0
57599,note_on,119,0,3,,,,,,,,2,,,61,0
57600,note_on,1,0,4,,,,,,,,3,,,47,75
57600,note_on,1,0,3,,,,,,,,2,,,62,58
57720,set_tempo,4800,1,0,,,,,,458891,,,,,,
57839,note_on,719,0,2,,,,,,,,1,,,69,0
57840,note_on,1,0,2,,,,,,,,1,,,74,87
57900,note_on,60,0,2,,,,,,,,1,,,74,0
57960,note_on,60,0,2,,,,,,,,1,,,72,77
58020,note_on,60,0,2,,,,,,,,1,,,72,0
58079,note_on,479,0,4,,,,,,,,3,,,47,0
58080,note_on,1,0,4,,,,,,,,3,,,50,60
58080,note_on,60,0,2,,,,,,,,1,,,71,70
58199,note_on,119,0,2,,,,,,,,1,,,71,0
58200,note_on,1,0,2,,,,,,,,1,,,69,63
58296,note_on,216,0,4,,,,,,,,3,,,50,0
58308,note_on,108,0,2,,,,,,,,1,,,69,0
58320,note_on,24,0,4,,,,,,,,3,,,44,76
58320,note_on,12,0,2,,,,,,,,1,,,71,56
58559,note_on,1679,0,1,,,,,,,,0,,,77,0
58560,note_on,1,0,1,,,,,,,,0,,,76,78
58620,note_on,60,0,1,,,,,,,,0,,,76,0
58680,note_on,60,0,1,,,,,,,,0,,,74,73
58740,note_on,60,0,1,,,,,,,,0,,,74,0
58799,note_on,479,0,4,,,,,,,,3,,,44,0
58800,note_on,1,0,4,,,,,,,,3,,,52,59
58800,note_on,60,0,1,,,,,,,,0,,,72,67
58919,note_on,119,0,1,,,,,,,,0,,,72,0
58920,note_on,1,0,1,,,,,,,,0,,,71,62
59039,note_on,119,0,1,,,,,,,,0,,,71,0
59039,note_on,239,0,4,,,,,,,,3,,,52,0
59040,note_on,1,0,4,,,,,,,,3,,,48,79
59040,note_on,1,0,1,,,,,,,,0,,,76,57
59279,note_on,1679,0,3,,,,,,,,2,,,62,0
59280,note_on,1,0,3,,,,,,,,2,,,64,73
59340,note_on,60,0,3,,,,,,,,2,,,64,0
59400,note_on,60,0,3,,,,,,,,2,,,62,82
59460,note_on,60,0,3,,,,,,,,2,,,62,0
59519,note_on,479,0,4,,,,,,,,3,,,48,0
59520,note_on,60,0,3,,,,,,,,2,,,60,73
59520,note_on,1,0,4,,,,,,,,3,,,52,59
59639,note_on,119,0,3,,,,,,,,2,,,60,0
59640,note_on,1,0,3,,,,,,,,2,,,59,65
59759,note_on,239,0,4,,,,,,,,3,,,52,0
59759,note_on,119,0,3,,,,,,,,2,,,59,0
59760,note_on,1,0,3,,,,,,,,2,,,60,56
59760,note_on,1,0,4,,,,,,,,3,,,45,80
59999,note_on,1679,0,2,,,,,,,,1,,,71,0
60000,note_on,1,0,2,,,,,,,,1,,,72,87
60060,note_on,60,0,2,,,,,,,,1,,,72,0
60120,note_on,60,0,2,,,,,,,,1,,,71,84
60180,note_on,60,0,2,,,,,,,,1,,,71,0
60239,note_on,479,0,4,,,,,,,,3,,,45,0
60240,note_on,1,0,4,,,,,,,,3,,,48,58
60240,note_on,60,0,2,,,,,,,,1,,,69,80
60359,note_on,119,0,2,,,,,,,,1,,,69,0
60360,note_on,1,0,2,,,,,,,,1,,,68,75
60456,note_on,216,0,4,,,,,,,,3,,,48,0
60468,note_on,108,0,2,,,,,,,,1,,,68,0
60480,note_on,12,0,2,,,,,,,,1,,,69,72
60480,note_on,0,0,4,,,,,,,,3,,,41,74
60480,control_change,24,0,4,,,,,,,,3,64,127,,
60719,note_on,1679,0,1,,,,,,,,0,,,76,0
60720,note_on,1,0,1,,,,,,,,0,,,81,89
60780,note_on,60,0,1,,,,,,,,0,,,81,0
60840,note_on,60,0,1,,,,,,,,0,,,79,82
60900,note_on,60,0,1,,,,,,,,0,,,79,0
60959,note_on,479,0,2,,,,,,,,1,,,69,0
60959,note_on,1199,0,3,,,,,,,,2,,,60,0
60960,note_on,1,0,2,,,,,,,,1,,,67,75
60960,note_on,1,0,3,,,,,,,,2,,,59,75
60960,note_on,60,0,1,,,,,,,,0,,,77,74
61020,note_on,60,0,1,,,,,,,,0,,,77,0
61080,note_on,60,0,1,,,,,,,,0,,,76,67
61140,note_on,60,0,1,,,,,,,,0,,,76,0
61199,note_on,239,0,2,,,,,,,,1,,,67,0
61199,note_on,239,0,3,,,,,,,,2,,,59,0
61200,note_on,1,0,3,,,,,,,,2,,,57,75
61200,note_on,60,0,1,,,,,,,,0,,,74,60
61200,note_on,1,0,2,,,,,,,,1,,,65,92
61439,note_on,239,0,1,,,,,,,,0,,,74,0
61440,note_on,1,0,1,,,,,,,,0,,,77,76
61440,control_change,960,0,4,,,,,,,,3,64,0,,
61500,note_on,60,0,1,,,,,,,,0,,,77,0
61560,note_on,60,0,1,,,,,,,,0,,,76,84
61620,note_on,60,0,1,,,,,,,,0,,,76,0
61679,note_on,479,0,2,,,,,,,,1,,,65,0
61680,note_on,60,0,1,,,,,,,,0,,,74,80
61680,note_on,1,0,2,,,,,,,,1,,,64,76
61740,note_on,60,0,1,,,,,,,,0,,,74,0
61800,note_on,60,0,1,,,,,,,,0,,,72,75
61860,note_on,60,0,1,,,,,,,,0,,,72,0
61919,note_on,479,0,4,,,,,,,,3,,,41,0
61919,note_on,239,0,2,,,,,,,,1,,,64,0
61920,note_on,60,0,1,,,,,,,,0,,,71,70
61920,note_on,1,0,2,,,,,,,,1,,,62,90
61920,note_on,1,0,4,,,,,,,,3,,,41,76
62159,note_on,959,0,3,,,,,,,,2,,,57,0
62159,note_on,239,0,1,,,,,,,,0,,,71,0
62160,note_on,1,0,1,,,,,,,,0,,,74,88
62160,note_on,1,0,3,,,,,,,,2,,,56,72
62220,note_on,60,0,1,,,,,,,,0,,,74,0
62280,note_on,60,0,1,,,,,,,,0,,,72,84
62340,note_on,60,0,1,,,,,,,,0,,,72,0
62399,note_on,239,0,3,,,,,,,,2,,,56,0
62400,note_on,1,0,3,,,,,,,,2,,,57,73
62400,note_on,60,0,1,,,,,,,,0,,,71,80
62460,note_on,60,0,1,,,,,,,,0,,,71,0
62520,set_tempo,4800,1,0,,,,,,456274,,,,,,
62520,note_on,60,0,1,,,,,,,,0,,,69,76
62568,note_on,648,0,4,,,,,,,,3,,,41,0
62568,note_on,648,0,2,,,,,,,,1,,,62,0
62574,note_on,54,0,1,,,,,,,,0,,,69,0
62616,note_on,216,0,3,,,,,,,,2,,,57,0
62640,note_on,66,0,1,,,,,,,,0,,,68,70
62640,set_tempo,120,1,0,,,,,,483871,,,,,,
62640,note_on,0,0,2,,,,,,,,1,,,64,76
62640,note_on,72,0,4,,,,,,,,3,,,40,76
62640,note_on,24,0,3,,,,,,,,2,,,59,81
62640,control_change,72,0,2,,,,,,,,1,64,127,,
62652,marker,12,1,0,,,,,,,,,,,,
62720,set_tempo,68,1,0,,,,,,483871,,,,,,
62724,control_change,84,0,4,,,,,,,,3,64,127,,
62879,note_on,239,0,3,,,,,,,,2,,,59,0
62879,note_on,239,0,1,,,,,,,,0,,,68,0
62880,note_on,1,0,3,,,,,,,,2,,,56,82
62880,note_on,1,0,1,,,,,,,,0,,,64,67
62999,note_on,119,0,1,,,,,,,,0,,,64,0
63000,note_on,1,0,1,,,,,,,,0,,,66,70
63072,note_on,432,0,2,,,,,,,,1,,,64,0
63119,note_on,239,0,3,,,,,,,,2,,,56,0
63119,note_on,119,0,1,,,,,,,,0,,,66,0
63120,note_on,1,0,3,,,,,,,,2,,,52,84
63120,note_on,1,0,1,,,,,,,,0,,,68,74
63180,note_on,60,0,1,,,,,,,,0,,,68,0
63240,note_on,60,0,1,,,,,,,,0,,,69,79
63300,note_on,60,0,1,,,,,,,,0,,,69,0
63359,note_on,635,0,4,,,,,,,,3,,,40,0
63359,note_on,239,0,3,,,,,,,,2,,,52,0
63360,note_on,1,0,4,,,,,,,,3,,,52,76
63360,note_on,60,0,1,,,,,,,,0,,,71,82
63360,note_on,1,0,3,,,,,,,,2,,,56,86
63599,note_on,239,0,3,,,,,,,,2,,,56,0
63599,note_on,239,0,1,,,,,,,,0,,,71,0
63600,note_on,1,0,1,,,,,,,,0,,,68,73
63600,note_on,1,0,3,,,,,,,,2,,,59,87
63600,control_change,528,0,2,,,,,,,,1,64,0,,
63684,control_change,324,0,4,,,,,,,,3,64,0,,
63719,note_on,119,0,1,,,,,,,,0,,,68,0
63720,note_on,1,0,1,,,,,,,,0,,,69,78
63839,note_on,119,0,1,,,,,,,,0,,,69,0
63839,note_on,239,0,3,,,,,,,,2,,,59,0
63840,note_on,1,0,1,,,,,,,,0,,,71,82
63840,note_on,1,0,3,,,,,,,,2,,,62,88
63900,note_on,60,0,1,,,,,,,,0,,,71,0
63920,set_tempo,1200,1,0,,,,,,480962,,,,,,
63960,note_on,60,0,1,,,,,,,,0,,,72,87
64020,note_on,60,0,1,,,,,,,,0,,,72,0
64079,note_on,239,0,3,,,,,,,,2,,,62,0
64079,note_on,395,0,4,,,,,,,,3,,,52,0
64080,note_on,60,0,1,,,,,,,,0,,,74,92
64080,note_on,1,0,4,,,,,,,,3,,,40,76
64080,note_on,1,0,3,,,,,,,,2,,,59,90
64319,note_on,239,0,3,,,,,,,,2,,,59,0
64319,note_on,239,0,1,,,,,,,,0,,,74,0
64320,note_on,1,0,1,,,,,,,,0,,,76,82
64320,note_on,1,0,3,,,,,,,,2,,,56,93
64380,note_on,60,0,1,,,,,,,,0,,,76,0
64440,note_on,60,0,1,,,,,,,,0,,,74,88
64500,note_on,60,0,1,,,,,,,,0,,,74,0
64512,note_on,432,0,4,,,,,,,,3,,,40,0
64559,note_on,239,0,3,,,,,,,,2,,,56,0
64560,note_on,60,0,1,,,,,,,,0,,,72,93
64560,note_on,1,0,3,,,,,,,,2,,,52,94
64679,note_on,119,0,1,,,,,,,,0,,,72,0
64680,note_on,1,0,1,,,,,,,,0,,,71,98
64776,note_on,216,0,3,,,,,,,,2,,,52,0
64788,note_on,108,0,1,,,,,,,,0,,,71,0
64800,note_on,1200,0,2,,,,,,,,1,,,64,76
64800,note_on,12,0,1,,,,,,,,0,,,72,86
64800,note_on,24,0,3,,,,,,,,2,,,57,74
64800,note_on,288,0,4,,,,,,,,3,,,45,76
64812,control_change,12,0,2,,,,,,,,1,64,127,,
64920,note_on,120,0,3,,,,,,,,2,,,57,0
65040,note_on,120,0,3,,,,,,,,2,,,59,76
65080,set_tempo,1160,1,0,,,,,,478088,,,,,,
65160,note_on,120,0,3,,,,,,,,2,,,59,0
65232,note_on,420,0,2,,,,,,,,1,,,64,0
65279,note_on,479,0,4,,,,,,,,3,,,45,0
65280,note_on,1,0,4,,,,,,,,3,,,57,68
65280,note_on,120,0,3,,,,,,,,2,,,60,79
65400,note_on,120,0,3,,,,,,,,2,,,60,0
65519,note_on,239,0,4,,,,,,,,3,,,57,0
65520,note_on,120,0,3,,,,,,,,2,,,60,82
65520,note_on,1,0,4,,,,,,,,3,,,52,76
65639,note_on,839,0,1,,,,,,,,0,,,72,0
65640,note_on,120,0,3,,,,,,,,2,,,60,0
65640,note_on,1,0,1,,,,,,,,0,,,69,91
65759,note_on,119,0,1,,,,,,,,0,,,69,0
65760,note_on,1,0,1,,,,,,,,0,,,68,89
65760,note_on,120,0,3,,,,,,,,2,,,62,84
65772,control_change,540,0,2,,,,,,,,1,64,0,,
65879,note_on,119,0,1,,,,,,,,0,,,68,0
65880,note_on,120,0,3,,,,,,,,2,,,62,0
65880,note_on,1,0,1,,,,,,,,0,,,69,87
65999,note_on,119,0,1,,,,,,,,0,,,69,0
65999,note_on,479,0,4,,,,,,,,3,,,52,0
66000,note_on,1,0,4,,,,,,,,3,,,57,66
66000,note_on,1,0,1,,,,,,,,0,,,72,86
66000,note_on,120,0,3,,,,,,,,2,,,64,87
66119,note_on,119,0,1,,,,,,,,0,,,72,0
66120,note_on,1,0,1,,,,,,,,0,,,69,84
66120,note_on,120,0,3,,,,,,,,2,,,64,0
66239,note_on,119,0,1,,,,,,,,0,,,69,0
66239,note_on,239,0,4,,,,,,,,3,,,57,0
66240,note_on,1,0,4,,,,,,,,3,,,48,76
66240,note_on,120,0,3,,,,,,,,2,,,64,89
66240,note_on,1,0,1,,,,,,,,0,,,76,83
66280,set_tempo,1200,1,0,,,,,,475248,,,,,,
66359,note_on,119,0,1,,,,,,,,0,,,76,0
66360,note_on,1,0,1,,,,,,,,0,,,77,81
66360,note_on,120,0,3,,,,,,,,2,,,64,0
66479,note_on,119,0,1,,,,,,,,0,,,77,0
66480,note_on,120,0,3,,,,,,,,2,,,66,92
66480,note_on,1,0,1,,,,,,,,0,,,76,79
66599,note_on,119,0,1,,,,,,,,0,,,76,0
66600,note_on,1,0,1,,,,,,,,0,,,74,78
66600,note_on,120,0,3,,,,,,,,2,,,66,0
66719,note_on,119,0,1,,,,,,,,0,,,74,0
66719,note_on,479,0,4,,,,,,,,3,,,48,0
66720,note_on,1,0,4,,,,,,,,3,,,52,67
66720,note_on,1,0,1,,,,,,,,0,,,72,76
66720,note_on,120,0,3,,,,,,,,2,,,67,95
66828,note_on,108,0,3,,,,,,,,2,,,67,0
66839,note_on,119,0,1,,,,,,,,0,,,72,0
66840,note_on,1,0,1,,,,,,,,0,,,71,74
66936,note_on,216,0,4,,,,,,,,3,,,52,0
66948,note_on,108,0,1,,,,,,,,0,,,71,0
66960,note_on,12,0,1,,,,,,,,0,,,72,73
66960,note_on,132,0,3,,,,,,,,2,,,45,81
66960,note_on,1188,0,2,,,,,,,,1,,,69,76
66960,note_on,24,0,4,,,,,,,,3,,,45,76
67008,control_change,48,0,4,,,,,,,,3,64,127,,
67079,note_on,119,0,1,,,,,,,,0,,,72,0
67080,note_on,120,0,3,,,,,,,,2,,,45,0
67080,note_on,1,0,1,,,,,,,,0,,,74,71
67199,note_on,119,0,1,,,,,,,,0,,,74,0
67200,note_on,120,0,3,,,,,,,,2,,,47,83
67200,note_on,1,0,1,,,,,,,,0,,,72,70
67319,note_on,119,0,1,,,,,,,,0,,,72,0
67320,note_on,1,0,1,,,,,,,,0,,,71,68
67320,note_on,120,0,3,,,,,,,,2,,,47,0
67392,note_on,384,0,4,,,,,,,,3,,,45,0
67439,note_on,119,0,1,,,,,,,,0,,,71,0
67440,note_on,120,0,3,,,,,,,,2,,,48,85
67440,note_on,1,0,1,,,,,,,,0,,,69,66
67440,set_tempo,1160,1,0,,,,,,472441,,,,,,
67559,note_on,119,0,1,,,,,,,,0,,,69,0
67560,note_on,1,0,1,,,,,,,,0,,,68,65
67560,note_on,120,0,3,,,,,,,,2,,,48,0
67679,note_on,119,0,1,,,,,,,,0,,,68,0
67680,note_on,1,0,1,,,,,,,,0,,,69,63
67680,note_on,120,0,3,,,,,,,,2,,,48,87
67799,note_on,839,0,2,,,,,,,,1,,,69,0
67800,note_on,120,0,3,,,,,,,,2,,,48,0
67800,note_on,1,0,2,,,,,,,,1,,,72,66
67896,note_on,216,0,1,,,,,,,,0,,,69,0
67919,note_on,119,0,2,,,,,,,,1,,,72,0
67920,note_on,1,0,2,,,,,,,,1,,,71,66
67920,note_on,120,0,3,,,,,,,,2,,,50,89
67968,control_change,576,0,4,,,,,,,,3,64,0,,
68039,note_on,119,0,2,,,,,,,,1,,,71,0
68040,note_on,1,0,2,,,,,,,,1,,,69,65
68040,note_on,120,0,3,,,,,,,,2,,,50,0
68159,note_on,119,0,2,,,,,,,,1,,,69,0
68160,note_on,1,0,2,,,,,,,,1,,,68,64
68160,note_on,120,0,3,,,,,,,,2,,,52,91
68279,note_on,119,0,2,,,,,,,,1,,,68,0
68280,note_on,120,0,3,,,,,,,,2,,,52,0
68280,note_on,1,0,2,,,,,,,,1,,,66,63
68399,note_on,119,0,2,,,,,,,,1,,,66,0
68400,note_on,1,0,2,,,,,,,,1,,,68,62
68400,note_on,120,0,3,,,,,,,,2,,,52,93
68519,note_on,119,0,2,,,,,,,,1,,,68,0
68520,note_on,120,0,3,,,,,,,,2,,,52,0
68520,note_on,1,0,2,,,,,,,,1,,,69,62
68639,note_on,119,0,2,,,,,,,,1,,,69,0
68640,set_tempo,1200,1,0,,,,,,469667,,,,,,
68640,note_on,1,0,2,,,,,,,,1,,,68,61
68640,note_on,120,0,3,,,,,,,,2,,,54,95
68759,note_on,119,0,2,,,,,,,,1,,,68,0
68760,note_on,120,0,3,,,,,,,,2,,,54,0
68760,note_on,1,0,2,,,,,,,,1,,,66,60
68879,note_on,119,0,2,,,,,,,,1,,,66,0
68880,note_on,1,0,2,,,,,,,,1,,,64,59
68880,note_on,120,0,3,,,,,,,,2,,,56,97
68988,note_on,108,0,3,,,,,,,,2,,,56,0
68999,note_on,119,0,2,,,,,,,,1,,,64,0
69000,note_on,1,0,2,,,,,,,,1,,,62,58
69108,note_on,108,0,2,,,,,,,,1,,,62,0
69120,note_on,132,0,3,,,,,,,,2,,,57,93
69120,note_on,1224,0,1,,,,,,,,0,,,69,86
69120,note_on,12,0,2,,,,,,,,1,,,60,68
69180,note_on,60,0,3,,,,,,,,2,,,57,0
69240,note_on,60,0,3,,,,,,,,2,,,59,76
69240,note_on,120,0,1,,,,,,,,0,,,69,0
69300,note_on,60,0,3,,,,,,,,2,,,59,0
69360,note_on,120,0,1,,,,,,,,0,,,71,87
69360,note_on,60,0,3,,,,,,,,2,,,60,78
69420,note_on,60,0,3,,,,,,,,2,,,60,0
69480,note_on,60,0,3,,,,,,,,2,,,62,80
69480,note_on,120,0,1,,,,,,,,0,,,71,0
69540,note_on,60,0,3,,,,,,,,2,,,62,0
69600,note_on,60,0,3,,,,,,,,2,,,64,82
69600,note_on,1632,0,4,,,,,,,,3,,,57,80
69600,note_on,120,0,1,,,,,,,,0,,,72,90
69660,note_on,60,0,3,,,,,,,,2,,,64,0
69720,note_on,120,0,1,,,,,,,,0,,,72,0
69720,note_on,60,0,3,,,,,,,,2,,,65,86
69780,note_on,60,0,3,,,,,,,,2,,,65,0
69800,set_tempo,1160,1,0,,,,,,466926,,,,,,
69839,note_on,239,0,4,,,,,,,,3,,,57,0
69839,note_on,719,0,2,,,,,,,,1,,,60,0
69840,note_on,1,0,4,,,,,,,,3,,,52,90
69840,note_on,1,0,2,,,,,,,,1,,,70,90
69840,note_on,60,0,3,,,,,,,,2,,,67,88
69840,note_on,120,0,1,,,,,,,,0,,,73,93
69960,note_on,120,0,1,,,,,,,,0,,,73,0
70079,note_on,239,0,2,,,,,,,,1,,,70,0
70079,note_on,239,0,3,,,,,,,,2,,,67,0
70080,note_on,120,0,1,,,,,,,,0,,,74,94
70080,note_on,1,0,2,,,,,,,,1,,,69,86
70080,note_on,1,0,3,,,,,,,,2,,,65,94
70200,note_on,120,0,1,,,,,,,,0,,,74,0
70319,note_on,479,0,4,,,,,,,,3,,,52,0
70319,note_on,239,0,3,,,,,,,,2,,,65,0
70319,note_on,239,0,2,,,,,,,,1,,,69,0
70320,note_on,1,0,4,,,,,,,,3,,,55,66
70320,note_on,1,0,3,,,,,,,,2,,,64,96
70320,note_on,1,0,2,,,,,,,,1,,,67,82
70320,note_on,120,0,1,,,,,,,,0,,,76,97
70440,note_on,120,0,1,,,,,,,,0,,,76,0
70559,note_on,239,0,3,,,,,,,,2,,,64,0
70559,note_on,239,0,2,,,,,,,,1,,,67,0
70559,note_on,239,0,4,,,,,,,,3,,,55,0
70560,note_on,1,0,2,,,,,,,,1,,,67,80
70560,note_on,1,0,4,,,,,,,,3,,,49,85
70560,note_on,1,0,3,,,,,,,,2,,,64,91
70560,note_on,120,0,1,,,,,,,,0,,,76,98
70680,note_on,120,0,1,,,,,,,,0,,,76,0
70799,note_on,239,0,2,,,,,,,,1,,,67,0
70799,note_on,239,0,3,,,,,,,,2,,,64,0
70800,note_on,120,0,1,,,,,,,,0,,,77,100
70800,note_on,1,0,3,,,,,,,,2,,,62,86
70800,note_on,1,0,2,,,,,,,,1,,,65,76
70920,note_on,120,0,1,,,,,,,,0,,,77,0
71000,set_tempo,1200,1,0,,,,,,464217,,,,,,
71039,note_on,239,0,3,,,,,,,,2,,,62,0
71039,note_on,239,0,2,,,,,,,,1,,,65,0
71039,note_on,479,0,4,,,,,,,,3,,,49,0
71040,note_on,1,0,4,,,,,,,,3,,,52,76
71040,note_on,120,0,1,,,,,,,,0,,,79,103
71040,note_on,1,0,2,,,,,,,,1,,,64,73
71040,note_on,1,0,3,,,,,,,,2,,,61,81
71148,note_on,108,0,1,,,,,,,,0,,,79,0
71256,note_on,216,0,4,,,,,,,,3,,,52,0
71256,note_on,216,0,2,,,,,,,,1,,,64,0
71256,note_on,216,0,3,,,,,,,,2,,,61,0
71280,note_on,24,0,4,,,,,,,,3,,,45,84
71280,note_on,24,0,3,,,,,,,,2,,,61,76
71280,note_on,24,0,2,,,,,,,,1,,,64,70
71280,note_on,132,0,1,,,,,,,,0,,,79,105
71328,control_change,48,0,4,,,,,,,,3,64,127,,
71496,note_on,216,0,3,,,,,,,,2,,,61,0
71519,note_on,239,0,2,,,,,,,,1,,,64,0
71519,note_on,239,0,1,,,,,,,,0,,,79,0
71520,note_on,1,0,2,,,,,,,,1,,,57,73
71520,note_on,1,0,1,,,,,,,,0,,,73,88
71639,note_on,119,0,2,,,,,,,,1,,,57,0
71640,note_on,1,0,2,,,,,,,,1,,,59,77
71759,note_on,239,0,1,,,,,,,,0,,,73,0
71759,note_on,119,0,2,,,,,,,,1,,,59,0
71760,note_on,1,0,2,,,,,,,,1,,,61,80
71760,note_on,1,0,1,,,,,,,,0,,,69,83
71820,note_on,60,0,2,,,,,,,,1,,,61,0
71880,note_on,60,0,2,,,,,,,,1,,,62,82
71940,note_on,60,0,2,,,,,,,,1,,,62,0
71999,note_on,239,0,1,,,,,,,,0,,,69,0
71999,note_on,671,0,4,,,,,,,,3,,,45,0
72000,note_on,1,0,1,,,,,,,,0,,,73,79
72000,note_on,1,0,4,,,,,,,,3,,,57,71
72000,note_on,60,0,2,,,,,,,,1,,,64,87
72160,set_tempo,1160,1,0,,,,,,461538,,,,,,
72239,note_on,239,0,2,,,,,,,,1,,,64,0
72239,note_on,239,0,1,,,,,,,,0,,,73,0
72240,note_on,1,0,2,,,,,,,,1,,,61,72
72240,note_on,1,0,1,,,,,,,,0,,,76,77
72288,control_change,288,0,4,,,,,,,,3,64,0,,
72359,note_on,119,0,2,,,,,,,,1,,,61,0
72360,note_on,1,0,2,,,,,,,,1,,,62,75
72479,note_on,239,0,1,,,,,,,,0,,,76,0
72479,note_on,119,0,2,,,,,,,,1,,,62,0
72480,note_on,1,0,2,,,,,,,,1,,,64,80
72480,note_on,1,0,1,,,,,,,,0,,,79,72
72540,note_on,60,0,2,,,,,,,,1,,,64,0
72600,note_on,60,0,2,,,,,,,,1,,,65,85
72660,note_on,60,0,2,,,,,,,,1,,,65,0
72719,note_on,239,0,1,,,,,,,,0,,,79,0
72719,note_on,431,0,4,,,,,,,,3,,,57,0
72720,note_on,60,0,2,,,,,,,,1,,,67,82
72720,note_on,1,0,4,,,,,,,,3,,,45,66
72720,note_on,1,0,1,,,,,,,,0,,,76,87
72959,note_on,239,0,1,,,,,,,,0,,,76,0
72959,note_on,239,0,2,,,,,,,,1,,,67,0
72960,note_on,1,0,1,,,,,,,,0,,,73,76
72960,note_on,1,0,2,,,,,,,,1,,,69,73
73020,note_on,60,0,2,,,,,,,,1,,,69,0
73080,note_on,60,0,2,,,,,,,,1,,,67,68
73140,note_on,60,0,2,,,,,,,,1,,,67,0
73152,note_on,432,0,4,,,,,,,,3,,,45,0
73199,note_on,239,0,1,,,,,,,,0,,,73,0
73200,note_on,60,0,2,,,,,,,,1,,,65,64
73200,note_on,1,0,1,,,,,,,,0,,,69,65
73260,note_on,60,0,2,,,,,,,,1,,,65,0
73320,note_on,60,0,2,,,,,,,,1,,,64,60
73360,set_tempo,1200,1,0,,,,,,458891,,,,,,
73374,note_on,54,0,2,,,,,,,,1,,,64,0
73416,note_on,216,0,1,,,,,,,,0,,,69,0
73440,note_on,0,0,1,,,,,,,,0,,,77,68
73440,note_on,288,0,4,,,,,,,,3,,,38,76
73440,note_on,66,0,2,,,,,,,,1,,,62,70
73440,note_on,1944,0,3,,,,,,,,2,,,50,84
73440,control_change,24,0,1,,,,,,,,0,64,127,,
73560,note_on,120,0,3,,,,,,,,2,,,50,0
73680,note_on,120,0,3,,,,,,,,2,,,52,86
73800,note_on,120,0,3,,,,,,,,2,,,52,0
73872,note_on,432,0,1,,,,,,,,0,,,77,0
73919,note_on,479,0,4,,,,,,,,3,,,38,0
73920,note_on,120,0,3,,,,,,,,2,,,53,88
73920,note_on,1,0,4,,,,,,,,3,,,50,81
74040,note_on,120,0,3,,,,,,,,2,,,53,0
74159,note_on,239,0,4,,,,,,,,3,,,50,0
74160,note_on,1,0,4,,,,,,,,3,,,45,93
74160,note_on,120,0,3,,,,,,,,2,,,53,90
74279,note_on,839,0,2,,,,,,,,1,,,62,0
74280,note_on,120,0,3,,,,,,,,2,,,53,0
74280,note_on,1,0,2,,,,,,,,1,,,62,92
74399,note_on,119,0,2,,,,,,,,1,,,62,0
74400,control_change,528,0,1,,,,,,,,0,64,0,,
74400,note_on,120,0,3,,,,,,,,2,,,55,93
74400,note_on,1,0,2,,,,,,,,1,,,61,90
74519,note_on,119,0,2,,,,,,,,1,,,61,0
74520,note_on,1,0,2,,,,,,,,1,,,62,87
74520,note_on,120,0,3,,,,,,,,2,,,55,0
74520,set_tempo,1160,1,0,,,,,,456274,,,,,,
74639,note_on,119,0,2,,,,,,,,1,,,62,0
74639,note_on,479,0,4,,,,,,,,3,,,45,0
74640,note_on,1,0,2,,,,,,,,1,,,65,85
74640,note_on,120,0,3,,,,,,,,2,,,57,96
74640,note_on,1,0,4,,,,,,,,3,,,50,79
74759,note_on,119,0,2,,,,,,,,1,,,65,0
74760,note_on,1,0,2,,,,,,,,1,,,62,82
74760,note_on,120,0,3,,,,,,,,2,,,57,0
74879,note_on,239,0,4,,,,,,,,3,,,50,0
74879,note_on,119,0,2,,,,,,,,1,,,62,0
74880,note_on,1,0,2,,,,,,,,1,,,69,80
74880,note_on,120,0,3,,,,,,,,2,,,57,97
74880,note_on,1,0,4,,,,,,,,3,,,41,90
74999,note_on,119,0,2,,,,,,,,1,,,69,0
75000,note_on,120,0,3,,,,,,,,2,,,57,0
75000,note_on,1,0,2,,,,,,,,1,,,70,77
75119,note_on,119,0,2,,,,,,,,1,,,70,0
75120,note_on,1,0,2,,,,,,,,1,,,69,74
75120,note_on,120,0,3,,,,,,,,2,,,59,99
75239,note_on,119,0,2,,,,,,,,1,,,69,0
75240,note_on,1,0,2,,,,,,,,1,,,67,72
75240,note_on,120,0,3,,,,,,,,2,,,59,0
75359,note_on,479,0,4,,,,,,,,3,,,41,0
75359,note_on,119,0,2,,,,,,,,1,,,67,0
75360,note_on,120,0,3,,,,,,,,2,,,61,102
75360,note_on,1,0,4,,,,,,,,3,,,45,81
75360,note_on,1,0,2,,,,,,,,1,,,65,69
75468,note_on,108,0,3,,,,,,,,2,,,61,0
75479,note_on,119,0,2,,,,,,,,1,,,65,0
75480,note_on,1,0,2,,,,,,,,1,,,64,67
75576,note_on,216,0,4,,,,,,,,3,,,45,0
75588,note_on,108,0,2,,,,,,,,1,,,64,0
75600,control_change,24,0,4,,,,,,,,3,64,127,,
75600,note_on,1200,0,1,,,,,,,,0,,,62,80
75600,note_on,0,0,4,,,,,,,,3,,,38,90
75600,note_on,132,0,3,,,,,,,,2,,,62,97
75600,note_on,0,0,2,,,,,,,,1,,,65,64
75600,control_change,12,0,2,,,,,,,,1,64,127,,
75680,set_tempo,1160,1,0,,,,,,453686,,,,,,
75719,note_on,119,0,3,,,,,,,,2,,,62,0
75720,note_on,120,0,1,,,,,,,,0,,,62,0
75720,note_on,1,0,3,,,,,,,,2,,,58,95
75839,note_on,119,0,3,,,,,,,,2,,,58,0
75840,note_on,1,0,3,,,,,,,,2,,,57,92
75840,note_on,120,0,1,,,,,,,,0,,,64,82
75959,note_on,119,0,3,,,,,,,,2,,,57,0
75960,note_on,120,0,1,,,,,,,,0,,,64,0
75960,note_on,1,0,3,,,,,,,,2,,,55,90
76032,note_on,432,0,4,,,,,,,,3,,,38,0
76079,note_on,119,0,3,,,,,,,,2,,,55,0
76080,note_on,120,0,1,,,,,,,,0,,,65,85
76080,note_on,1,0,3,,,,,,,,2,,,53,87
76199,note_on,119,0,3,,,,,,,,2,,,53,0
76200,note_on,1,0,3,,,,,,,,2,,,52,85
76200,note_on,120,0,1,,,,,,,,0,,,65,0
76319,note_on,119,0,3,,,,,,,,2,,,52,0
76320,note_on,120,0,1,,,,,,,,0,,,65,87
76320,note_on,1,0,3,,,,,,,,2,,,50,83
76439,note_on,119,0,3,,,,,,,,2,,,50,0
76440,note_on,1,0,3,,,,,,,,2,,,53,80
76440,note_on,120,0,1,,,,,,,,0,,,65,0
76559,note_on,119,0,3,,,,,,,,2,,,53,0
76560,note_on,1,0,3,,,,,,,,2,,,52,78
76560,control_change,528,0,4,,,,,,,,3,64,0,,
76560,note_on,120,0,1,,,,,,,,0,,,67,90
76560,control_change,960,0,2,,,,,,,,1,64,0,,
76679,note_on,119,0,3,,,,,,,,2,,,52,0
76680,note_on,1,0,3,,,,,,,,2,,,50,75
76680,note_on,120,0,1,,,,,,,,0,,,67,0
76799,note_on,239,0,2,,,,,,,,1,,,65,0
76799,note_on,119,0,3,,,,,,,,2,,,50,0
76800,note_on,120,0,1,,,,,,,,0,,,69,93
76800,note_on,1,0,3,,,,,,,,2,,,49,73
76800,note_on,1,0,2,,,,,,,,1,,,65,76
76919,note_on,119,0,3,,,,,,,,2,,,49,0
76920,note_on,1,0,3,,,,,,,,2,,,47,70
76920,note_on,120,0,1,,,,,,,,0,,,69,0
77039,note_on,119,0,3,,,,,,,,2,,,47,0
77039,note_on,239,0,2,,,,,,,,1,,,65,0
77040,note_on,120,0,1,,,,,,,,0,,,69,97
77040,note_on,1,0,2,,,,,,,,1,,,64,87
77040,note_on,1,0,3,,,,,,,,2,,,49,68
77159,note_on,119,0,3,,,,,,,,2,,,49,0
77160,note_on,120,0,1,,,,,,,,0,,,69,0
77160,note_on,1,0,3,,,,,,,,2,,,62,65
77279,note_on,119,0,3,,,,,,,,2,,,62,0
77280,note_on,120,0,1,,,,,,,,0,,,71,99
77280,note_on,1,0,3,,,,,,,,2,,,61,63
77399,note_on,119,0,3,,,,,,,,2,,,61,0
77400,note_on,1,0,3,,,,,,,,2,,,59,60
77400,note_on,120,0,1,,,,,,,,0,,,71,0
77519,note_on,119,0,3,,,,,,,,2,,,59,0
77519,note_on,479,0,2,,,,,,,,1,,,64,0
77520,note_on,1,0,3,,,,,,,,2,,,57,58
77520,note_on,1,0,2,,,,,,,,1,,,69,76
77520,note_on,120,0,1,,,,,,,,0,,,73,102
77628,note_on,108,0,1,,,,,,,,0,,,73,0
77639,note_on,119,0,3,,,,,,,,2,,,57,0
77640,note_on,1,0,3,,,,,,,,2,,,55,74
77736,note_on,216,0,2,,,,,,,,1,,,69,0
77748,note_on,108,0,3,,,,,,,,2,,,55,0
77760,note_on,12,0,3,,,,,,,,2,,,62,73
77760,note_on,132,0,1,,,,,,,,0,,,74,73
77760,note_on,1200,0,4,,,,,,,,3,,,53,76
77820,note_on,60,0,1,,,,,,,,0,,,74,0
77880,note_on,60,0,1,,,,,,,,0,,,76,76
77940,note_on,60,0,1,,,,,,,,0,,,76,0
77999,note_on,239,0,3,,,,,,,,2,,,62,0
78000,note_on,60,0,1,,,,,,,,0,,,77,80
78000,note_on,1,0,3,,,,,,,,2,,,64,73
78060,note_on,60,0,1,,,,,,,,0,,,77,0
78120,note_on,60,0,1,,,,,,,,0,,,79,84
78180,note_on,60,0,1,,,,,,,,0,,,79,0
78239,note_on,239,0,3,,,,,,,,2,,,64,0
78239,note_on,479,0,4,,,,,,,,3,,,53,0
78240,note_on,1,0,4,,,,,,,,3,,,62,81
78240,note_on,1,0,3,,,,,,,,2,,,65,75
78240,note_on,60,0,1,,,,,,,,0,,,81,86
78300,note_on,60,0,1,,,,,,,,0,,,81,0
78360,note_on,60,0,1,,,,,,,,0,,,82,90
78420,note_on,60,0,1,,,,,,,,0,,,82,0
78479,note_on,239,0,4,,,,,,,,3,,,62,0
78479,note_on,239,0,3,,,,,,,,2,,,65,0
78480,note_on,60,0,1,,,,,,,,0,,,84,93
78480,note_on,1,0,3,,,,,,,,2,,,63,79
78480,note_on,1,0,4,,,,,,,,3,,,57,97
78480,note_on,744,0,2,,,,,,,,1,,,66,74
78719,note_on,239,0,3,,,,,,,,2,,,63,0
78719,note_on,239,0,2,,,,,,,,1,,,66,0
78719,note_on,239,0,1,,,,,,,,0,,,84,0
78720,note_on,1,0,1,,,,,,,,0,,,82,96
78720,note_on,1,0,2,,,,,,,,1,,,67,78
78720,note_on,1,0,3,,,,,,,,2,,,62,82
78959,note_on,239,0,3,,,,,,,,2,,,62,0
78959,note_on,479,0,4,,,,,,,,3,,,57,0
78959,note_on,239,0,1,,,,,,,,0,,,82,0
78959,note_on,239,0,2,,,,,,,,1,,,67,0
78960,note_on,1,0,1,,,,,,,,0,,,81,92
78960,note_on,1,0,4,,,,,,,,3,,,60,79
78960,note_on,1,0,3,,,,,,,,2,,,60,85
78960,note_on,1,0,2,,,,,,,,1,,,69,81
79199,note_on,239,0,3,,,,,,,,2,,,60,0
79199,note_on,239,0,1,,,,,,,,0,,,81,0
79199,note_on,239,0,2,,,,,,,,1,,,69,0
79199,note_on,239,0,4,,,,,,,,3,,,60,0
79200,note_on,1,0,3,,,,,,,,2,,,60,88
79200,note_on,1,0,2,,,,,,,,1,,,69,85
79200,note_on,1,0,4,,,,,,,,3,,,54,96
79200,note_on,1,0,1,,,,,,,,0,,,81,87
79439,note_on,239,0,2,,,,,,,,1,,,69,0
79439,note_on,239,0,1,,,,,,,,0,,,81,0
79439,note_on,239,0,3,,,,,,,,2,,,60,0
79440,note_on,1,0,2,,,,,,,,1,,,70,90
79440,note_on,1,0,1,,,,,,,,0,,,79,84
79440,note_on,1,0,3,,,,,,,,2,,,58,91
79679,note_on,239,0,2,,,,,,,,1,,,70,0
79679,note_on,479,0,4,,,,,,,,3,,,54,0
79679,note_on,239,0,1,,,,,,,,0,,,79,0
79679,note_on,239,0,3,,,,,,,,2,,,58,0
79680,note_on,1,0,2,,,,,,,,1,,,72,93
79680,note_on,1,0,3,,,,,,,,2,,,57,76
79680,note_on,1,0,4,,,,,,,,3,,,57,79
79680,note_on,1,0,1,,,,,,,,0,,,78,80
79896,note_on,216,0,1,,,,,,,,0,,,78,0
79896,note_on,216,0,3,,,,,,,,2,,,57,0
79896,note_on,216,0,4,,,,,,,,3,,,57,0
79920,note_on,0,0,1,,,,,,,,0,,,78,82
79920,note_on,24,0,3,,,,,,,,2,,,57,76
79920,note_on,24,0,4,,,,,,,,3,,,50,94
79920,control_change,24,0,1,,,,,,,,0,64,127,,
79944,control_change,24,0,4,,,,,,,,3,64,127,,
80039,note_on,359,0,2,,,,,,,,1,,,72,0
80040,note_on,1,0,2,,,,,,,,1,,,74,88
80100,note_on,60,0,2,,,,,,,,1,,,74,0
80159,note_on,239,0,3,,,,,,,,2,,,57,0
80160,note_on,1,0,3,,,,,,,,2,,,50,74
80160,note_on,60,0,2,,,,,,,,1,,,72,81
80220,note_on,60,0,3,,,,,,,,2,,,50,0
80220,note_on,60,0,2,,,,,,,,1,,,72,0
80280,note_on,60,0,2,,,,,,,,1,,,70,75
80280,note_on,60,0,3,,,,,,,,2,,,52,76
80340,note_on,60,0,3,,,,,,,,2,,,52,0
80340,note_on,60,0,2,,,,,,,,1,,,70,0
80400,note_on,60,0,3,,,,,,,,2,,,54,80
80400,note_on,60,0,2,,,,,,,,1,,,69,69
80460,note_on,60,0,2,,,,,,,,1,,,69,0
80460,note_on,60,0,3,,,,,,,,2,,,54,0
80520,note_on,60,0,2,,,,,,,,1,,,67,63
80520,note_on,60,0,3,,,,,,,,2,,,55,82
80580,note_on,60,0,3,,,,,,,,2,,,55,0
80580,note_on,60,0,2,,,,,,,,1,,,67,0
80639,note_on,695,0,4,,,,,,,,3,,,50,0
80640,note_on,60,0,2,,,,,,,,1,,,66,58
80640,note_on,1,0,4,,,,,,,,3,,,50,71
80640,note_on,60,0,3,,,,,,,,2,,,57,85
80879,note_on,239,0,3,,,,,,,,2,,,57,0
80879,note_on,239,0,2,,,,,,,,1,,,66,0
80880,note_on,1,0,2,,,,,,,,1,,,69,69
80880,note_on,1,0,3,,,,,,,,2,,,54,69
80880,control_change,960,0,1,,,,,,,,0,64,0,,
80904,control_change,264,0,4,,,,,,,,3,64,0,,
80940,note_on,60,0,3,,,,,,,,2,,,54,0
81000,note_on,60,0,3,,,,,,,,2,,,55,76
81060,note_on,60,0,3,,,,,,,,2,,,55,0
81119,note_on,239,0,2,,,,,,,,1,,,69,0
81120,note_on,60,0,3,,,,,,,,2,,,57,78
81120,note_on,1,0,2,,,,,,,,1,,,66,67
81180,note_on,60,0,3,,,,,,,,2,,,57,0
81240,note_on,60,0,3,,,,,,,,2,,,58,82
81300,note_on,60,0,3,,,,,,,,2,,,58,0
81359,note_on,455,0,4,,,,,,,,3,,,50,0
81359,note_on,239,0,2,,,,,,,,1,,,66,0
81359,note_on,479,0,1,,,,,,,,0,,,78,0
81360,note_on,1,0,4,,,,,,,,3,,,50,66
81360,note_on,1,0,1,,,,,,,,0,,,79,73
81360,note_on,1,0,2,,,,,,,,1,,,62,66
81360,note_on,60,0,3,,,,,,,,2,,,60,66
81599,note_on,239,0,3,,,,,,,,2,,,60,0
81599,note_on,239,0,2,,,,,,,,1,,,62,0
81600,note_on,1,0,3,,,,,,,,2,,,62,67
81600,note_on,1,0,2,,,,,,,,1,,,69,64
81719,note_on,119,0,3,,,,,,,,2,,,62,0
81720,note_on,1,0,3,,,,,,,,2,,,60,68
81792,note_on,432,0,4,,,,,,,,3,,,50,0
81839,note_on,239,0,2,,,,,,,,1,,,69,0
81839,note_on,119,0,3,,,,,,,,2,,,60,0
81840,note_on,1,0,3,,,,,,,,2,,,58,71
81840,note_on,1,0,2,,,,,,,,1,,,72,63
81959,note_on,119,0,3,,,,,,,,2,,,58,0
81960,note_on,1,0,3,,,,,,,,2,,,57,74
82008,note_on,648,0,1,,,,,,,,0,,,79,0
82056,note_on,216,0,2,,,,,,,,1,,,72,0
82068,note_on,108,0,3,,,,,,,,2,,,57,0
82080,note_on,0,0,1,,,,,,,,0,,,79,84
82080,control_change,72,0,1,,,,,,,,0,64,127,,
82080,note_on,288,0,4,,,,,,,,3,,,43,84
82080,note_on,24,0,2,,,,,,,,1,,,70,73
82080,note_on,12,0,3,,,,,,,,2,,,55,94
82120,set_tempo,6440,1,0,,,,,,443623,,,,,,
82199,note_on,119,0,2,,,,,,,,1,,,70,0
82199,note_on,119,0,3,,,,,,,,2,,,55,0
82200,note_on,1,0,3,,,,,,,,2,,,54,88
82200,note_on,1,0,2,,,,,,,,1,,,69,76
82319,note_on,119,0,3,,,,,,,,2,,,54,0
82319,note_on,119,0,2,,,,,,,,1,,,69,0
82320,note_on,1,0,3,,,,,,,,2,,,55,86
82320,note_on,1,0,2,,,,,,,,1,,,70,80
82439,note_on,119,0,3,,,,,,,,2,,,55,0
82439,note_on,119,0,2,,,,,,,,1,,,70,0
82440,note_on,1,0,3,,,,,,,,2,,,58,84
82440,note_on,1,0,2,,,,,,,,1,,,74,82
82559,note_on,119,0,2,,,,,,,,1,,,74,0
82559,note_on,479,0,4,,,,,,,,3,,,43,0
82559,note_on,119,0,3,,,,,,,,2,,,58,0
82560,note_on,1,0,3,,,,,,,,2,,,57,81
82560,note_on,1,0,2,,,,,,,,1,,,72,86
82560,note_on,1,0,4,,,,,,,,3,,,50,67
82679,note_on,119,0,3,,,,,,,,2,,,57,0
82679,note_on,119,0,2,,,,,,,,1,,,72,0
82680,note_on,1,0,3,,,,,,,,2,,,60,78
82680,note_on,1,0,2,,,,,,,,1,,,75,89
82799,note_on,719,0,1,,,,,,,,0,,,79,0
82799,note_on,119,0,2,,,,,,,,1,,,75,0
82799,note_on,119,0,3,,,,,,,,2,,,60,0
82799,note_on,239,0,4,,,,,,,,3,,,50,0
82800,note_on,1,0,4,,,,,,,,3,,,43,83
82800,note_on,1,0,3,,,,,,,,2,,,58,75
82800,note_on,1,0,1,,,,,,,,0,,,74,75
82800,note_on,1,0,2,,,,,,,,1,,,74,91
82919,note_on,119,0,2,,,,,,,,1,,,74,0
82920,note_on,1,0,2,,,,,,,,1,,,72,86
83039,note_on,119,0,2,,,,,,,,1,,,72,0
83040,control_change,240,0,1,,,,,,,,0,64,0,,
83040,note_on,1,0,2,,,,,,,,1,,,70,81
83159,note_on,119,0,2,,,,,,,,1,,,70,0
83160,note_on,1,0,2,,,,,,,,1,,,69,75
83279,note_on,479,0,4,,,,,,,,3,,,43,0
83279,note_on,119,0,2,,,,,,,,1,,,69,0
83280,note_on,1,0,4,,,,,,,,3,,,46,68
83280,note_on,1,0,2,,,,,,,,1,,,67,70
83399,note_on,119,0,2,,,,,,,,1,,,67,0
83400,note_on,1,0,2,,,,,,,,1,,,66,65
83519,note_on,239,0,4,,,,,,,,3,,,46,0
83519,note_on,119,0,2,,,,,,,,1,,,66,0
83520,note_on,1,0,4,,,,,,,,3,,,40,82
83520,note_on,1,0,2,,,,,,,,1,,,67,60
83759,note_on,719,0,1,,,,,,,,0,,,74,0
83760,note_on,1,0,1,,,,,,,,0,,,79,79
83820,note_on,60,0,1,,,,,,,,0,,,79,0
83880,note_on,60,0,1,,,,,,,,0,,,77,85
83940,note_on,60,0,1,,,,,,,,0,,,77,0
83999,note_on,479,0,4,,,,,,,,3,,,40,0
84000,note_on,60,0,1,,,,,,,,0,,,76,79
84000,note_on,1,0,4,,,,,,,,3,,,43,66
84119,note_on,119,0,1,,,,,,,,0,,,76,0
84120,note_on,1,0,1,,,,,,,,0,,,74,73
84216,note_on,216,0,4,,,,,,,,3,,,43,0
84228,note_on,108,0,1,,,,,,,,0,,,74,0
84240,control_change,12,0,1,,,,,,,,0,64,127,,
84240,note_on,24,0,4,,,,,,,,3,,,36,80
84240,note_on,0,0,1,,,,,,,,0,,,76,72
84479,note_on,1679,0,3,,,,,,,,2,,,58,0
84480,note_on,1,0,3,,,,,,,,2,,,60,89
84540,note_on,60,0,3,,,,,,,,2,,,60,0
84600,note_on,60,0,3,,,,,,,,2,,,58,96
84660,note_on,60,0,3,,,,,,,,2,,,58,0
84719,note_on,479,0,4,,,,,,,,3,,,36,0
84720,note_on,1,0,4,,,,,,,,3,,,48,69
84720,note_on,60,0,3,,,,,,,,2,,,57,93
84839,note_on,119,0,3,,,,,,,,2,,,57,0
84840,note_on,1,0,3,,,,,,,,2,,,55,87
84959,note_on,119,0,3,,,,,,,,2,,,55,0
84959,note_on,239,0,4,,,,,,,,3,,,48,0
84959,note_on,719,0,1,,,,,,,,0,,,76,0
84960,note_on,1,0,1,,,,,,,,0,,,72,72
84960,note_on,1,0,4,,,,,,,,3,,,41,79
84960,note_on,1,0,3,,,,,,,,2,,,57,82
85199,note_on,1679,0,2,,,,,,,,1,,,67,0
85200,control_change,240,0,1,,,,,,,,0,64,0,,
85200,note_on,1,0,2,,,,,,,,1,,,69,72
85260,note_on,60,0,2,,,,,,,,1,,,69,0
85320,note_on,60,0,2,,,,,,,,1,,,67,85
85380,note_on,60,0,2,,,,,,,,1,,,67,0
85439,note_on,479,0,4,,,,,,,,3,,,41,0
85440,note_on,60,0,2,,,,,,,,1,,,65,80
85440,note_on,1,0,4,,,,,,,,3,,,45,62
85559,note_on,119,0,2,,,,,,,,1,,,65,0
85560,note_on,1,0,2,,,,,,,,1,,,64,77
85679,note_on,119,0,2,,,,,,,,1,,,64,0
85679,note_on,239,0,4,,,,,,,,3,,,45,0
85680,note_on,1,0,4,,,,,,,,3,,,38,78
85680,note_on,1,0,2,,,,,,,,1,,,65,74
85919,note_on,719,0,1,,,,,,,,0,,,72,0
85920,note_on,1,0,1,,,,,,,,0,,,77,81
85980,note_on,60,0,1,,,,,,,,0,,,77,0
86040,note_on,60,0,1,,,,,,,,0,,,76,84
86100,note_on,60,0,1,,,,,,,,0,,,76,0
86159,note_on,479,0,4,,,,,,,,3,,,38,0
86160,note_on,1,0,4,,,,,,,,3,,,41,66
86160,note_on,60,0,1,,,,,,,,0,,,74,79
86279,note_on,119,0,1,,,,,,,,0,,,74,0
86280,note_on,1,0,1,,,,,,,,0,,,73,74
86376,note_on,216,0,4,,,,,,,,3,,,41,0
86388,note_on,108,0,1,,,,,,,,0,,,73,0
86400,note_on,12,0,1,,,,,,,,0,,,74,69
86400,note_on,24,0,4,,,,,,,,3,,,34,69
86639,note_on,1679,0,3,,,,,,,,2,,,57,0
86640,note_on,1,0,3,,,,,,,,2,,,58,86
86700,note_on,60,0,3,,,,,,,,2,,,58,0
86760,note_on,60,0,3,,,,,,,,2,,,57,93
86820,note_on,60,0,3,,,,,,,,2,,,57,0
86879,note_on,479,0,4,,,,,,,,3,,,34,0
86880,note_on,60,0,3,,,,,,,,2,,,55,90
86880,note_on,1,0,4,,,,,,,,3,,,46,58
86999,note_on,119,0,3,,,,,,,,2,,,55,0
87000,note_on,1,0,3,,,,,,,,2,,,53,84
87119,note_on,119,0,3,,,,,,,,2,,,53,0
87119,note_on,239,0,4,,,,,,,,3,,,46,0
87120,note_on,1,0,3,,,,,,,,2,,,55,71
87120,note_on,1,0,4,,,,,,,,3,,,40,69
87359,note_on,1679,0,2,,,,,,,,1,,,65,0
87360,note_on,1,0,2,,,,,,,,1,,,67,69
87420,note_on,60,0,2,,,,,,,,1,,,67,0
87480,note_on,60,0,2,,,,,,,,1,,,65,81
87540,note_on,60,0,2,,,,,,,,1,,,65,0
87599,note_on,479,0,4,,,,,,,,3,,,40,0
87600,note_on,1,0,4,,,,,,,,3,,,43,56
87600,note_on,60,0,2,,,,,,,,1,,,64,72
87719,note_on,119,0,2,,,,,,,,1,,,64,0
87720,note_on,1,0,2,,,,,,,,1,,,62,63
87839,note_on,239,0,4,,,,,,,,3,,,43,0
87839,note_on,119,0,2,,,,,,,,1,,,62,0
87840,note_on,1,0,4,,,,,,,,3,,,37,68
87840,note_on,1,0,2,,,,,,,,1,,,64,72
88079,note_on,1679,0,1,,,,,,,,0,,,74,0
88080,note_on,1,0,1,,,,,,,,0,,,76,67
88140,note_on,60,0,1,,,,,,,,0,,,76,0
88200,note_on,60,0,1,,,,,,,,0,,,74,81
88260,note_on,60,0,1,,,,,,,,0,,,74,0
88319,note_on,479,0,4,,,,,,,,3,,,37,0
88320,note_on,1,0,4,,,,,,,,3,,,40,56
88320,note_on,60,0,1,,,,,,,,0,,,73,78
88439,note_on,119,0,1,,,,,,,,0,,,73,0
88440,note_on,1,0,1,,,,,,,,0,,,71,75
88536,note_on,216,0,4,,,,,,,,3,,,40,0
88548,note_on,108,0,1,,,,,,,,0,,,71,0
88560,note_on,12,0,1,,,,,,,,0,,,73,70
88560,set_tempo,6440,1,0,,,,,,448598,,,,,,
88560,note_on,24,0,4,,,,,,,,3,,,33,66
88799,note_on,1679,0,3,,,,,,,,2,,,55,0
88800,note_on,1,0,3,,,,,,,,2,,,57,66
88860,note_on,60,0,3,,,,,,,,2,,,57,0
88880,set_tempo,320,1,0,,,,,,451128,,,,,,
88920,note_on,60,0,3,,,,,,,,2,,,55,84
88980,note_on,60,0,3,,,,,,,,2,,,55,0
89039,note_on,479,0,4,,,,,,,,3,,,33,0
89040,note_on,1,0,4,,,,,,,,3,,,45,52
89040,note_on,60,0,3,,,,,,,,2,,,53,80
89159,note_on,119,0,3,,,,,,,,2,,,53,0
89160,note_on,1,0,3,,,,,,,,2,,,52,76
89200,set_tempo,320,1,0,,,,,,453686,,,,,,
89279,note_on,239,0,4,,,,,,,,3,,,45,0
89279,note_on,119,0,3,,,,,,,,2,,,52,0
89279,note_on,719,0,1,,,,,,,,0,,,73,0
89280,note_on,1,0,4,,,,,,,,3,,,38,66
89280,note_on,1,0,3,,,,,,,,2,,,53,73
89280,note_on,1,0,1,,,,,,,,0,,,69,66
89519,note_on,1679,0,2,,,,,,,,1,,,64,0
89520,note_on,1,0,2,,,,,,,,1,,,65,66
89520,set_tempo,320,1,0,,,,,,456274,,,,,,
89580,note_on,60,0,2,,,,,,,,1,,,65,0
89640,note_on,60,0,2,,,,,,,,1,,,64,80
89700,note_on,60,0,2,,,,,,,,1,,,64,0
89759,note_on,479,0,4,,,,,,,,3,,,38,0
89760,note_on,60,0,2,,,,,,,,1,,,62,77
89760,note_on,1,0,4,,,,,,,,3,,,41,56
89800,set_tempo,280,1,0,,,,,,458891,,,,,,
89879,note_on,119,0,2,,,,,,,,1,,,62,0
89880,note_on,1,0,2,,,,,,,,1,,,61,72
89999,note_on,119,0,2,,,,,,,,1,,,61,0
89999,note_on,239,0,4,,,,,,,,3,,,41,0
90000,note_on,1,0,2,,,,,,,,1,,,62,67
90000,note_on,1,0,4,,,,,,,,3,,,46,65
90120,set_tempo,320,1,0,,,,,,461538,,,,,,
90239,note_on,959,0,1,,,,,,,,0,,,69,0
90240,note_on,1,0,1,,,,,,,,0,,,74,64
90300,note_on,60,0,1,,,,,,,,0,,,74,0
90360,note_on,60,0,1,,,,,,,,0,,,72,73
90420,note_on,60,0,1,,,,,,,,0,,,72,0
90440,set_tempo,320,1,0,,,,,,464217,,,,,,
90479,note_on,479,0,4,,,,,,,,3,,,46,0
90480,note_on,60,0,1,,,,,,,,0,,,70,71
90480,note_on,1,0,4,,,,,,,,3,,,50,54
90599,note_on,119,0,1,,,,,,,,0,,,70,0
90600,note_on,1,0,1,,,,,,,,0,,,69,68
90648,note_on,648,0,2,,,,,,,,1,,,62,0
90696,note_on,216,0,4,,,,,,,,3,,,50,0
90708,note_on,108,0,1,,,,,,,,0,,,69,0
90720,note_on,72,0,2,,,,,,,,1,,,62,63
90720,note_on,12,0,1,,,,,,,,0,,,70,65
90720,set_tempo,280,1,0,,,,,,466926,,,,,,
90720,note_on,24,0,4,,,,,,,,3,,,43,63
90959,note_on,1679,0,3,,,,,,,,2,,,53,0
90960,note_on,1,0,3,,,,,,,,2,,,62,78
90960,set_tempo,240,1,0,,,,,,464217,,,,,,
91020,note_on,60,0,3,,,,,,,,2,,,62,0
91080,note_on,60,0,3,,,,,,,,2,,,60,73
91140,note_on,60,0,3,,,,,,,,2,,,60,0
91199,note_on,479,0,2,,,,,,,,1,,,62,0
91199,note_on,479,0,1,,,,,,,,0,,,70,0
91200,note_on,60,0,3,,,,,,,,2,,,58,70
91200,note_on,1,0,1,,,,,,,,0,,,74,61
91200,note_on,1,0,2,,,,,,,,1,,,65,61
91319,note_on,119,0,3,,,,,,,,2,,,58,0
91320,note_on,1,0,3,,,,,,,,2,,,57,64
91439,note_on,239,0,1,,,,,,,,0,,,74,0
91439,note_on,239,0,2,,,,,,,,1,,,65,0
91439,note_on,119,0,3,,,,,,,,2,,,57,0
91440,note_on,1,0,2,,,,,,,,1,,,67,73
91440,note_on,1,0,3,,,,,,,,2,,,55,61
91440,note_on,1,0,1,,,,,,,,0,,,76,74
91679,note_on,239,0,3,,,,,,,,2,,,55,0
91680,note_on,1,0,3,,,,,,,,2,,,58,57
91740,note_on,60,0,3,,,,,,,,2,,,58,0
91800,note_on,60,0,3,,,,,,,,2,,,57,63
91860,note_on,60,0,3,,,,,,,,2,,,57,0
91919,note_on,479,0,1,,,,,,,,0,,,76,0
91919,note_on,479,0,2,,,,,,,,1,,,67,0
91920,note_on,1,0,1,,,,,,,,0,,,77,55
91920,note_on,60,0,3,,,,,,,,2,,,55,59
91920,note_on,1,0,2,,,,,,,,1,,,69,55
92039,note_on,119,0,3,,,,,,,,2,,,55,0
92040,note_on,1,0,3,,,,,,,,2,,,53,54
92159,note_on,1439,0,4,,,,,,,,3,,,43,0
92159,note_on,239,0,1,,,,,,,,0,,,77,0
92159,note_on,239,0,2,,,,,,,,1,,,69,0
92159,note_on,119,0,3,,,,,,,,2,,,53,0
92160,note_on,1,0,4,,,,,,,,3,,,43,51
92160,note_on,1,0,3,,,,,,,,2,,,52,49
92160,note_on,1,0,1,,,,,,,,0,,,79,74
92160,note_on,1,0,2,,,,,,,,1,,,71,74
92399,note_on,239,0,3,,,,,,,,2,,,52,0
92400,note_on,1,0,3,,,,,,,,2,,,55,59
92460,note_on,60,0,3,,,,,,,,2,,,55,0
92520,note_on,60,0,3,,,,,,,,2,,,53,55
92580,note_on,60,0,3,,,,,,,,2,,,53,0
92640,set_tempo,1680,1,0,,,,,,461538,,,,,,
92640,note_on,60,0,3,,,,,,,,2,,,52,53
92759,note_on,119,0,3,,,,,,,,2,,,52,0
92760,note_on,1,0,3,,,,,,,,2,,,50,49
92808,note_on,648,0,4,,,,,,,,3,,,43,0
92868,note_on,108,0,3,,,,,,,,2,,,50,0
92880,control_change,72,0,4,,,,,,,,3,64,127,,
92880,note_on,0,0,4,,,,,,,,3,,,45,64
92880,note_on,12,0,3,,,,,,,,2,,,49,57
93119,note_on,959,0,1,,,,,,,,0,,,79,0
93119,note_on,959,0,2,,,,,,,,1,,,71,0
93120,note_on,1,0,1,,,,,,,,0,,,69,76
93120,note_on,1,0,2,,,,,,,,1,,,69,76
93180,note_on,60,0,1,,,,,,,,0,,,69,0
93240,note_on,60,0,1,,,,,,,,0,,,71,80
93300,note_on,60,0,1,,,,,,,,0,,,71,0
93312,note_on,432,0,3,,,,,,,,2,,,49,0
93336,note_on,216,0,2,,,,,,,,1,,,69,0
93360,note_on,60,0,1,,,,,,,,0,,,73,84
93479,note_on,119,0,1,,,,,,,,0,,,73,0
93480,note_on,1,0,1,,,,,,,,0,,,74,87
93599,note_on,719,0,4,,,,,,,,3,,,45,0
93599,note_on,119,0,1,,,,,,,,0,,,74,0
93600,note_on,1,0,4,,,,,,,,3,,,49,86
93600,note_on,1,0,1,,,,,,,,0,,,76,91
93839,note_on,239,0,1,,,,,,,,0,,,76,0
93840,note_on,1,0,1,,,,,,,,0,,,73,75
93840,control_change,240,0,4,,,,,,,,3,64,0,,
93900,note_on,60,0,1,,,,,,,,0,,,73,0
93960,note_on,60,0,1,,,,,,,,0,,,74,78
94020,note_on,60,0,1,,,,,,,,0,,,74,0
94080,note_on,60,0,1,,,,,,,,0,,,76,82
94199,note_on,119,0,1,,,,,,,,0,,,76,0
94200,note_on,1,0,1,,,,,,,,0,,,77,85
94319,note_on,119,0,1,,,,,,,,0,,,77,0
94319,note_on,479,0,4,,,,,,,,3,,,49,0
94320,set_tempo,1680,1,0,,,,,,458891,,,,,,
94320,note_on,1,0,1,,,,,,,,0,,,79,76
94320,note_on,1,0,4,,,,,,,,3,,,45,92
94559,note_on,239,0,1,,,,,,,,0,,,79,0
94560,note_on,1,0,1,,,,,,,,0,,,81,76
94679,note_on,119,0,1,,,,,,,,0,,,81,0
94680,note_on,1,0,1,,,,,,,,0,,,79,87
94752,note_on,432,0,4,,,,,,,,3,,,45,0
94799,note_on,119,0,1,,,,,,,,0,,,79,0
94800,note_on,1,0,1,,,,,,,,0,,,77,82
94860,note_on,60,0,1,,,,,,,,0,,,77,0
94920,note_on,60,0,1,,,,,,,,0,,,76,76
94974,note_on,54,0,1,,,,,,,,0,,,76,0
95040,note_on,66,0,1,,,,,,,,0,,,77,76
95040,note_on,288,0,4,,,,,,,,3,,,50,87
95064,control_change,24,0,4,,,,,,,,3,64,127,,
95076,control_change,36,0,1,,,,,,,,0,64,127,,
95280,note_on,1944,0,2,,,,,,,,1,,,62,76
95399,note_on,119,0,2,,,,,,,,1,,,62,0
95400,note_on,1,0,2,,,,,,,,1,,,64,78
95519,note_on,119,0,2,,,,,,,,1,,,64,0
95520,note_on,1,0,2,,,,,,,,1,,,65,81
95580,note_on,60,0,2,,,,,,,,1,,,65,0
95640,note_on,60,0,2,,,,,,,,1,,,67,84
95700,note_on,60,0,2,,,,,,,,1,,,67,0
95759,note_on,695,0,4,,,,,,,,3,,,50,0
95760,note_on,1,0,4,,,,,,,,3,,,62,82
95760,note_on,60,0,2,,,,,,,,1,,,69,87
95999,note_on,239,0,2,,,,,,,,1,,,69,0
96000,set_tempo,1680,1,0,,,,,,456274,,,,,,
96000,note_on,1,0,2,,,,,,,,1,,,65,76
96024,control_change,264,0,4,,,,,,,,3,64,0,,
96036,control_change,960,0,1,,,,,,,,0,64,0,,
96119,note_on,119,0,2,,,,,,,,1,,,65,0
96120,note_on,1,0,2,,,,,,,,1,,,67,75
96239,note_on,119,0,2,,,,,,,,1,,,67,0
96240,note_on,1,0,2,,,,,,,,1,,,69,81
96300,note_on,60,0,2,,,,,,,,1,,,69,0
96360,note_on,60,0,2,,,,,,,,1,,,70,87
96420,note_on,60,0,2,,,,,,,,1,,,70,0
96479,note_on,455,0,4,,,,,,,,3,,,62,0
96479,note_on,443,0,1,,,,,,,,0,,,77,0
96480,note_on,1,0,4,,,,,,,,3,,,50,76
96480,note_on,1,0,1,,,,,,,,0,,,77,84
96480,note_on,60,0,2,,,,,,,,1,,,72,93
96719,note_on,239,0,2,,,,,,,,1,,,72,0
96720,note_on,1,0,2,,,,,,,,1,,,74,96
96780,note_on,60,0,2,,,,,,,,1,,,74,0
96840,note_on,60,0,2,,,,,,,,1,,,72,91
96900,note_on,60,0,2,,,,,,,,1,,,72,0
96912,note_on,432,0,4,,,,,,,,3,,,50,0
96960,note_on,60,0,2,,,,,,,,1,,,70,86
97079,note_on,119,0,2,,,,,,,,1,,,70,0
97080,note_on,1,0,2,,,,,,,,1,,,69,81
97188,note_on,108,0,2,,,,,,,,1,,,69,0
97200,note_on,12,0,2,,,,,,,,1,,,70,76
97200,note_on,288,0,4,,,,,,,,3,,,43,76
97251,control_change,51,0,4,,,,,,,,3,64,127,,
97440,note_on,4128,0,3,,,,,,,,2,,,55,79
97559,note_on,119,0,3,,,,,,,,2,,,55,0
97560,note_on,1,0,3,,,,,,,,2,,,57,82
97679,note_on,119,0,3,,,,,,,,2,,,57,0
97679,note_on,1199,0,1,,,,,,,,0,,,77,0
97680,note_on,1,0,3,,,,,,,,2,,,58,86
97680,note_on,1,0,1,,,,,,,,0,,,74,84
97680,set_tempo,1680,1,0,,,,,,453686,,,,,,
97740,note_on,60,0,3,,,,,,,,2,,,58,0
97800,note_on,60,0,3,,,,,,,,2,,,60,90
97860,note_on,60,0,3,,,,,,,,2,,,60,0
97919,note_on,668,0,4,,,,,,,,3,,,43,0
97919,note_on,239,0,1,,,,,,,,0,,,74,0
97920,note_on,1,0,1,,,,,,,,0,,,79,97
97920,note_on,1,0,4,,,,,,,,3,,,46,76
97920,note_on,60,0,3,,,,,,,,2,,,62,93
98159,note_on,239,0,3,,,,,,,,2,,,62,0
98160,note_on,1,0,3,,,,,,,,2,,,58,76
98211,control_change,291,0,4,,,,,,,,3,64,0,,
98279,note_on,119,0,3,,,,,,,,2,,,58,0
98280,note_on,1,0,3,,,,,,,,2,,,60,81
98399,note_on,119,0,3,,,,,,,,2,,,60,0
98399,note_on,479,0,1,,,,,,,,0,,,79,0
98400,note_on,1,0,3,,,,,,,,2,,,62,87
98400,note_on,1,0,1,,,,,,,,0,,,74,84
98460,note_on,60,0,3,,,,,,,,2,,,62,0
98520,note_on,60,0,3,,,,,,,,2,,,64,92
98580,note_on,60,0,3,,,,,,,,2,,,64,0
98623,control_change,1423,0,2,,,,,,,,1,64,127,,
98639,note_on,16,0,2,,,,,,,,1,,,70,0
98639,note_on,428,0,4,,,,,,,,3,,,46,0
98639,note_on,239,0,1,,,,,,,,0,,,74,0
98640,note_on,1,0,4,,,,,,,,3,,,55,76
98640,note_on,60,0,3,,,,,,,,2,,,65,97
98640,note_on,1,0,2,,,,,,,,1,,,70,76
98640,note_on,1,0,1,,,,,,,,0,,,82,102
98879,note_on,239,0,3,,,,,,,,2,,,65,0
98880,note_on,1,0,3,,,,,,,,2,,,67,96
98940,note_on,60,0,3,,,,,,,,2,,,67,0
99000,note_on,60,0,3,,,,,,,,2,,,65,91
99060,note_on,60,0,3,,,,,,,,2,,,65,0
99072,note_on,432,0,4,,,,,,,,3,,,55,0
99119,note_on,479,0,1,,,,,,,,0,,,82,0
99120,note_on,60,0,3,,,,,,,,2,,,64,87
99120,note_on,1,0,1,,,,,,,,0,,,74,84
99239,note_on,119,0,3,,,,,,,,2,,,64,0
99240,note_on,1,0,3,,,,,,,,2,,,62,84
99348,note_on,108,0,3,,,,,,,,2,,,62,0
99360,note_on,288,0,4,,,,,,,,3,,,48,76
99360,set_tempo,1680,1,0,,,,,,451128,,,,,,
99360,note_on,12,0,3,,,,,,,,2,,,60,80
99394,control_change,34,0,4,,,,,,,,3,64,127,,
99583,control_change,943,0,2,,,,,,,,1,64,0,,
99599,note_on,479,0,1,,,,,,,,0,,,74,0
99600,note_on,1,0,1,,,,,,,,0,,,72,76
99719,note_on,119,0,1,,,,,,,,0,,,72,0
99720,note_on,1,0,1,,,,,,,,0,,,74,90
99792,note_on,209,0,2,,,,,,,,1,,,70,0
99839,note_on,479,0,3,,,,,,,,2,,,60,0
99839,note_on,119,0,1,,,,,,,,0,,,74,0
99840,note_on,1,0,3,,,,,,,,2,,,65,75
99840,note_on,1,0,1,,,,,,,,0,,,76,85
99900,note_on,60,0,1,,,,,,,,0,,,76,0
99960,note_on,60,0,1,,,,,,,,0,,,77,80
100020,note_on,60,0,1,,,,,,,,0,,,77,0
100079,note_on,685,0,4,,,,,,,,3,,,48,0
100079,note_on,239,0,3,,,,,,,,2,,,65,0
100080,note_on,0,0,3,,,,,,,,2,,,64,91
100080,note_on,1,0,4,,,,,,,,3,,,40,76
100080,note_on,60,0,1,,,,,,,,0,,,79,75
100080,note_on,1,0,3,,,,,,,,2,,,72,91
100319,note_on,239,0,1,,,,,,,,0,,,79,0
100320,note_on,1,0,1,,,,,,,,0,,,76,76
100354,control_change,274,0,4,,,,,,,,3,64,0,,
100439,note_on,119,0,1,,,,,,,,0,,,76,0
100440,note_on,1,0,1,,,,,,,,0,,,77,91
100559,note_on,479,0,3,,,,,,,,2,,,64,0
100559,note_on,119,0,1,,,,,,,,0,,,77,0
100559,note_on,0,0,3,,,,,,,,2,,,72,0
100560,note_on,1,0,3,,,,,,,,2,,,67,93
100560,note_on,1,0,1,,,,,,,,0,,,79,86
100620,note_on,60,0,1,,,,,,,,0,,,79,0
100680,note_on,120,0,3,,,,,,,,2,,,67,0
100680,note_on,60,0,1,,,,,,,,0,,,81,82
100799,note_on,119,0,1,,,,,,,,0,,,81,0
100799,note_on,445,0,4,,,,,,,,3,,,40,0
100800,note_on,1,0,4,,,,,,,,3,,,40,76
100800,note_on,120,0,3,,,,,,,,2,,,65,87
100800,note_on,1,0,1,,,,,,,,0,,,82,79
100920,note_on,120,0,3,,,,,,,,2,,,65,0
101039,note_on,239,0,1,,,,,,,,0,,,82,0
101040,note_on,120,0,3,,,,,,,,2,,,64,84
101040,set_tempo,1680,1,0,,,,,,448598,,,,,,
101040,note_on,1,0,1,,,,,,,,0,,,84,76
101100,note_on,60,0,1,,,,,,,,0,,,84,0
101160,note_on,120,0,3,,,,,,,,2,,,64,0
101160,note_on,60,0,1,,,,,,,,0,,,82,84
101220,note_on,60,0,1,,,,,,,,0,,,82,0
101232,note_on,432,0,4,,,,,,,,3,,,40,0
101280,note_on,60,0,1,,,,,,,,0,,,81,80
101280,note_on,120,0,3,,,,,,,,2,,,72,79
101388,note_on,108,0,3,,,,,,,,2,,,72,0
101399,note_on,119,0,1,,,,,,,,0,,,81,0
101400,note_on,1,0,1,,,,,,,,0,,,79,76
101508,note_on,108,0,1,,,,,,,,0,,,79,0
101520,note_on,288,0,4,,,,,,,,3,,,53,79
101520,control_change,12,0,1,,,,,,,,0,64,127,,
101520,note_on,0,0,1,,,,,,,,0,,,81,72
101520,note_on,132,0,3,,,,,,,,2,,,53,91
101520,note_on,1728,0,2,,,,,,,,1,,,72,76
101580,control_change,60,0,3,,,,,,,,2,64,127,,
101640,note_on,120,0,4,,,,,,,,3,,,53,0
101760,note_on,120,0,4,,,,,,,,3,,,55,81
101880,note_on,120,0,4,,,,,,,,3,,,55,0
101952,note_on,372,0,3,,,,,,,,2,,,53,0
101952,note_on,432,0,1,,,,,,,,0,,,81,0
102000,note_on,120,0,4,,,,,,,,3,,,57,84
102120,note_on,120,0,4,,,,,,,,3,,,57,0
102240,note_on,120,0,4,,,,,,,,3,,,57,87
102359,note_on,839,0,2,,,,,,,,1,,,72,0
102360,note_on,1,0,2,,,,,,,,1,,,77,93
102360,note_on,120,0,4,,,,,,,,3,,,57,0
102479,note_on,119,0,2,,,,,,,,1,,,77,0
102480,control_change,528,0,1,,,,,,,,0,64,0,,
102480,note_on,1,0,2,,,,,,,,1,,,76,90
102480,note_on,120,0,4,,,,,,,,3,,,58,90
102540,control_change,588,0,3,,,,,,,,2,64,0,,
102560,set_tempo,1520,1,0,,,,,,451128,,,,,,
102599,note_on,119,0,2,,,,,,,,1,,,76,0
102600,note_on,1,0,2,,,,,,,,1,,,74,87
102600,note_on,120,0,4,,,,,,,,3,,,58,0
102719,note_on,119,0,2,,,,,,,,1,,,74,0
102720,note_on,1,0,2,,,,,,,,1,,,72,84
102720,note_on,120,0,4,,,,,,,,3,,,60,92
102839,note_on,119,0,2,,,,,,,,1,,,72,0
102840,note_on,120,0,4,,,,,,,,3,,,60,0
102840,note_on,1,0,2,,,,,,,,1,,,70,80
102959,note_on,119,0,2,,,,,,,,1,,,70,0
102960,note_on,1,0,2,,,,,,,,1,,,69,91
102960,note_on,120,0,4,,,,,,,,3,,,60,94
103079,note_on,119,0,2,,,,,,,,1,,,69,0
103080,note_on,1,0,2,,,,,,,,1,,,74,86
103080,note_on,120,0,4,,,,,,,,3,,,60,0
103199,note_on,119,0,2,,,,,,,,1,,,74,0
103200,note_on,1,0,2,,,,,,,,1,,,72,81
103200,note_on,120,0,4,,,,,,,,3,,,62,98
103319,note_on,119,0,2,,,,,,,,1,,,72,0
103320,note_on,1,0,2,,,,,,,,1,,,70,76
103320,note_on,120,0,4,,,,,,,,3,,,62,0
103439,note_on,119,0,2,,,,,,,,1,,,70,0
103440,note_on,120,0,4,,,,,,,,3,,,64,100
103440,note_on,1,0,2,,,,,,,,1,,,69,70
103548,note_on,108,0,4,,,,,,,,3,,,64,0
103559,note_on,119,0,2,,,,,,,,1,,,69,0
103560,note_on,1,0,2,,,,,,,,1,,,67,65
103668,note_on,108,0,2,,,,,,,,1,,,67,0
103680,note_on,12,0,2,,,,,,,,1,,,65,75
103680,note_on,1200,0,1,,,,,,,,0,,,69,76
103800,note_on,120,0,2,,,,,,,,1,,,65,0
103800,note_on,120,0,1,,,,,,,,0,,,69,0
103920,note_on,120,0,2,,,,,,,,1,,,67,74
103920,note_on,120,0,1,,,,,,,,0,,,76,74
104040,note_on,120,0,2,,,,,,,,1,,,67,0
104040,note_on,120,0,1,,,,,,,,0,,,76,0
104160,note_on,612,0,4,,,,,,,,3,,,53,84
104160,note_on,120,0,2,,,,,,,,1,,,69,73
104160,note_on,120,0,1,,,,,,,,0,,,77,73
104399,note_on,239,0,4,,,,,,,,3,,,53,0
104400,note_on,1,0,4,,,,,,,,3,,,48,96
104639,note_on,479,0,1,,,,,,,,0,,,77,0
104639,note_on,479,0,2,,,,,,,,1,,,69,0
104640,note_on,1,0,2,,,,,,,,1,,,57,69
104640,note_on,1,0,1,,,,,,,,0,,,72,69
104759,note_on,119,0,2,,,,,,,,1,,,57,0
104759,note_on,119,0,1,,,,,,,,0,,,72,0
104760,note_on,1,0,2,,,,,,,,1,,,55,82
104760,note_on,1,0,1,,,,,,,,0,,,70,73
104879,note_on,479,0,4,,,,,,,,3,,,48,0
104879,note_on,119,0,1,,,,,,,,0,,,70,0
104879,note_on,119,0,2,,,,,,,,1,,,55,0
104880,note_on,1,0,1,,,,,,,,0,,,69,68
104880,note_on,1,0,4,,,,,,,,3,,,53,86
104880,note_on,1,0,2,,,,,,,,1,,,53,75
104920,set_tempo,2360,1,0,,,,,,453686,,,,,,
104999,note_on,119,0,1,,,,,,,,0,,,69,0
104999,note_on,119,0,2,,,,,,,,1,,,53,0
105000,note_on,1,0,2,,,,,,,,1,,,52,69
105000,note_on,1,0,1,,,,,,,,0,,,67,61
105119,note_on,119,0,2,,,,,,,,1,,,52,0
105119,note_on,119,0,1,,,,,,,,0,,,67,0
105119,note_on,239,0,4,,,,,,,,3,,,53,0
105120,note_on,1,0,1,,,,,,,,0,,,69,55
105120,note_on,1,0,2,,,,,,,,1,,,53,63
105120,note_on,1,0,4,,,,,,,,3,,,45,94
105359,note_on,239,0,2,,,,,,,,1,,,53,0
105359,note_on,239,0,1,,,,,,,,0,,,69,0
105360,note_on,1,0,1,,,,,,,,0,,,72,64
105360,note_on,1,0,2,,,,,,,,1,,,57,64
105479,note_on,119,0,2,,,,,,,,1,,,57,0
105479,note_on,119,0,1,,,,,,,,0,,,72,0
105480,note_on,1,0,2,,,,,,,,1,,,55,73
105480,note_on,1,0,1,,,,,,,,0,,,70,68
105599,note_on,479,0,4,,,,,,,,3,,,45,0
105599,note_on,119,0,1,,,,,,,,0,,,70,0
105599,note_on,119,0,2,,,,,,,,1,,,55,0
105600,note_on,1,0,4,,,,,,,,3,,,48,90
105600,note_on,1,0,2,,,,,,,,1,,,53,68
105600,note_on,1,0,1,,,,,,,,0,,,69,63
105719,note_on,119,0,2,,,,,,,,1,,,53,0
105719,note_on,119,0,1,,,,,,,,0,,,69,0
105720,note_on,1,0,2,,,,,,,,1,,,52,62
105720,note_on,1,0,1,,,,,,,,0,,,67,58
105800,set_tempo,880,1,0,,,,,,492813,,,,,,
105816,note_on,216,0,4,,,,,,,,3,,,48,0
105828,note_on,108,0,1,,,,,,,,0,,,67,0
105828,note_on,108,0,2,,,,,,,,1,,,52,0
105840,note_on,24,0,4,,,,,,,,3,,,41,100
105840,note_on,12,0,2,,,,,,,,1,,,65,57
105840,note_on,12,0,1,,,,,,,,0,,,69,54
105840,note_on,3300,0,3,,,,,,,,2,,,53,61
105920,set_tempo,120,1,0,,,,,,486815,,,,,,
106079,note_on,239,0,1,,,,,,,,0,,,69,0
106079,note_on,239,0,2,,,,,,,,1,,,65,0
106080,note_on,1,0,2,,,,,,,,1,,,67,72
106080,note_on,1,0,1,,,,,,,,0,,,70,71
106272,note_on,432,0,4,,,,,,,,3,,,41,0
106319,note_on,239,0,1,,,,,,,,0,,,70,0
106319,note_on,239,0,2,,,,,,,,1,,,67,0
106320,note_on,1,0,1,,,,,,,,0,,,72,72
106320,note_on,1,0,2,,,,,,,,1,,,69,72
106559,note_on,239,0,2,,,,,,,,1,,,69,0
106559,note_on,239,0,1,,,,,,,,0,,,72,0
106560,set_tempo,640,1,0,,,,,,483871,,,,,,
106560,note_on,1,0,2,,,,,,,,1,,,69,71
106560,note_on,1,0,1,,,,,,,,0,,,72,73
106679,note_on,839,0,3,,,,,,,,2,,,53,0
106680,note_on,1,0,3,,,,,,,,2,,,53,81
106799,note_on,239,0,2,,,,,,,,1,,,69,0
106799,note_on,119,0,3,,,,,,,,2,,,53,0
106799,note_on,239,0,1,,,,,,,,0,,,72,0
106800,note_on,1,0,2,,,,,,,,1,,,70,71
106800,note_on,1,0,3,,,,,,,,2,,,52,79
106800,note_on,1,0,1,,,,,,,,0,,,74,72
106919,note_on,119,0,3,,,,,,,,2,,,52,0
106920,note_on,1,0,3,,,,,,,,2,,,50,76
107039,note_on,119,0,3,,,,,,,,2,,,50,0
107039,note_on,239,0,2,,,,,,,,1,,,70,0
107039,note_on,239,0,1,,,,,,,,0,,,74,0
107040,note_on,1,0,3,,,,,,,,2,,,48,73
107040,note_on,1,0,1,,,,,,,,0,,,76,72
107040,note_on,1,0,2,,,,,,,,1,,,72,71
107159,note_on,119,0,3,,,,,,,,2,,,48,0
107160,note_on,1,0,3,,,,,,,,2,,,46,71
107200,set_tempo,640,1,0,,,,,,480962,,,,,,
107279,note_on,239,0,2,,,,,,,,1,,,72,0
107279,note_on,239,0,1,,,,,,,,0,,,76,0
107279,note_on,119,0,3,,,,,,,,2,,,46,0
107280,note_on,1,0,3,,,,,,,,2,,,45,68
107280,note_on,1,0,1,,,,,,,,0,,,76,73
107280,note_on,1,0,2,,,,,,,,1,,,72,71
107399,note_on,119,0,3,,,,,,,,2,,,45,0
107400,note_on,1,0,3,,,,,,,,2,,,50,66
107519,note_on,239,0,2,,,,,,,,1,,,72,0
107519,note_on,119,0,3,,,,,,,,2,,,50,0
107519,note_on,239,0,1,,,,,,,,0,,,76,0
107520,note_on,1,0,3,,,,,,,,2,,,48,63
107520,note_on,1,0,2,,,,,,,,1,,,74,70
107520,note_on,1,0,1,,,,,,,,0,,,77,73
107639,note_on,119,0,3,,,,,,,,2,,,48,0
107640,note_on,1,0,3,,,,,,,,2,,,46,61
107759,note_on,239,0,2,,,,,,,,1,,,74,0
107759,note_on,119,0,3,,,,,,,,2,,,46,0
107759,note_on,239,0,1,,,,,,,,0,,,77,0
107760,note_on,1,0,3,,,,,,,,2,,,45,58
107760,note_on,1,0,2,,,,,,,,1,,,76,70
107760,note_on,1,0,1,,,,,,,,0,,,79,73
107840,set_tempo,640,1,0,,,,,,478088,,,,,,
107879,note_on,119,0,3,,,,,,,,2,,,45,0
107880,note_on,1,0,3,,,,,,,,2,,,43,56
107976,note_on,216,0,1,,,,,,,,0,,,79,0
107976,note_on,216,0,2,,,,,,,,1,,,76,0
107988,note_on,108,0,3,,,,,,,,2,,,43,0
108000,note_on,24,0,1,,,,,,,,0,,,81,72
108000,note_on,12,0,3,,,,,,,,2,,,41,53
108000,note_on,24,0,2,,,,,,,,1,,,77,68
108119,note_on,119,0,3,,,,,,,,2,,,41,0
108120,note_on,1,0,3,,,,,,,,2,,,48,64
108239,note_on,239,0,1,,,,,,,,0,,,81,0
108239,note_on,119,0,3,,,,,,,,2,,,48,0
108240,note_on,1,0,1,,,,,,,,0,,,77,76
108240,note_on,1,0,3,,,,,,,,2,,,50,66
108359,note_on,119,0,1,,,,,,,,0,,,77,0
108359,note_on,119,0,3,,,,,,,,2,,,50,0
108360,note_on,1,0,1,,,,,,,,0,,,79,78
108360,note_on,1,0,3,,,,,,,,2,,,52,67
108479,note_on,119,0,3,,,,,,,,2,,,52,0
108479,note_on,119,0,1,,,,,,,,0,,,79,0
108480,note_on,1,0,1,,,,,,,,0,,,81,72
108480,note_on,2208,0,4,,,,,,,,3,,,53,78
108480,set_tempo,640,1,0,,,,,,475248,,,,,,
108480,note_on,1,0,3,,,,,,,,2,,,53,68
108599,note_on,119,0,1,,,,,,,,0,,,81,0
108599,note_on,119,0,3,,,,,,,,2,,,53,0
108600,note_on,1,0,1,,,,,,,,0,,,82,66
108600,note_on,1,0,3,,,,,,,,2,,,55,69
108719,note_on,119,0,3,,,,,,,,2,,,55,0
108719,note_on,239,0,4,,,,,,,,3,,,53,0
108719,note_on,119,0,1,,,,,,,,0,,,82,0
108720,note_on,1,0,1,,,,,,,,0,,,84,76
108720,note_on,1,0,3,,,,,,,,2,,,57,72
108720,note_on,1,0,4,,,,,,,,3,,,48,92
108839,note_on,119,0,3,,,,,,,,2,,,57,0
108840,note_on,1,0,3,,,,,,,,2,,,52,73
108959,note_on,119,0,3,,,,,,,,2,,,52,0
108959,note_on,959,0,2,,,,,,,,1,,,77,0
108960,note_on,1,0,3,,,,,,,,2,,,53,74
108960,note_on,1,0,2,,,,,,,,1,,,81,76
109079,note_on,119,0,3,,,,,,,,2,,,53,0
109079,note_on,119,0,2,,,,,,,,1,,,81,0
109080,note_on,1,0,3,,,,,,,,2,,,55,75
109080,note_on,1,0,2,,,,,,,,1,,,79,76
109120,set_tempo,640,1,0,,,,,,472441,,,,,,
109199,note_on,119,0,3,,,,,,,,2,,,55,0
109199,note_on,119,0,2,,,,,,,,1,,,79,0
109199,note_on,479,0,4,,,,,,,,3,,,48,0
109200,note_on,1,0,3,,,,,,,,2,,,57,76
109200,note_on,1,0,4,,,,,,,,3,,,53,78
109200,note_on,1,0,2,,,,,,,,1,,,77,82
109319,note_on,119,0,2,,,,,,,,1,,,77,0
109319,note_on,119,0,3,,,,,,,,2,,,57,0
109320,note_on,1,0,2,,,,,,,,1,,,76,78
109320,note_on,1,0,3,,,,,,,,2,,,58,78
109439,note_on,119,0,2,,,,,,,,1,,,76,0
109439,note_on,119,0,3,,,,,,,,2,,,58,0
109439,note_on,719,0,1,,,,,,,,0,,,84,0
109439,note_on,239,0,4,,,,,,,,3,,,53,0
109440,note_on,1,0,3,,,,,,,,2,,,60,79
109440,note_on,1,0,1,,,,,,,,0,,,84,76
109440,note_on,1,0,2,,,,,,,,1,,,77,73
109440,note_on,1,0,4,,,,,,,,3,,,45,87
109559,note_on,119,0,3,,,,,,,,2,,,60,0
109560,note_on,1,0,3,,,,,,,,2,,,57,80
109656,note_on,216,0,2,,,,,,,,1,,,77,0
109679,note_on,119,0,3,,,,,,,,2,,,57,0
109679,note_on,239,0,1,,,,,,,,0,,,84,0
109680,note_on,1,0,1,,,,,,,,0,,,72,75
109680,note_on,1,0,3,,,,,,,,2,,,58,81
109760,set_tempo,640,1,0,,,,,,469667,,,,,,
109799,note_on,119,0,1,,,,,,,,0,,,72,0
109799,note_on,119,0,3,,,,,,,,2,,,58,0
109800,note_on,1,0,1,,,,,,,,0,,,70,76
109800,note_on,1,0,3,,,,,,,,2,,,60,84
109919,note_on,119,0,1,,,,,,,,0,,,70,0
109919,note_on,119,0,3,,,,,,,,2,,,60,0
109919,note_on,479,0,4,,,,,,,,3,,,45,0
109920,note_on,1,0,1,,,,,,,,0,,,69,70
109920,note_on,1,0,4,,,,,,,,3,,,48,79
109920,note_on,1,0,3,,,,,,,,2,,,62,85
110039,note_on,119,0,1,,,,,,,,0,,,69,0
110039,note_on,119,0,3,,,,,,,,2,,,62,0
110040,note_on,1,0,3,,,,,,,,2,,,64,79
110040,note_on,1,0,1,,,,,,,,0,,,67,76
110136,note_on,216,0,4,,,,,,,,3,,,48,0
110148,note_on,108,0,1,,,,,,,,0,,,67,0
110148,note_on,108,0,3,,,,,,,,2,,,64,0
110160,control_change,12,0,1,,,,,,,,0,64,127,,
110160,note_on,24,0,4,,,,,,,,3,,,41,92
110160,note_on,504,0,2,,,,,,,,1,,,65,76
110160,note_on,0,0,1,,,,,,,,0,,,69,76
110229,control_change,69,0,2,,,,,,,,1,64,127,,
110280,note_on,132,0,3,,,,,,,,2,,,60,91
110280,control_change,120,0,4,,,,,,,,3,64,127,,
110399,note_on,119,0,3,,,,,,,,2,,,60,0
110400,set_tempo,640,1,0,,,,,,466926,,,,,,
110400,note_on,1,0,3,,,,,,,,2,,,62,93
110519,note_on,119,0,3,,,,,,,,2,,,62,0
110520,note_on,1,0,3,,,,,,,,2,,,64,94
110592,note_on,363,0,2,,,,,,,,1,,,65,0
110639,note_on,119,0,3,,,,,,,,2,,,64,0
110640,note_on,1,0,3,,,,,,,,2,,,65,97
110759,note_on,119,0,3,,,,,,,,2,,,65,0
110760,note_on,1,0,3,,,,,,,,2,,,67,98
110879,note_on,599,0,4,,,,,,,,3,,,41,0
110879,note_on,119,0,3,,,,,,,,2,,,67,0
110880,note_on,1,0,4,,,,,,,,3,,,53,76
110880,note_on,1,0,3,,,,,,,,2,,,69,100
110880,note_on,0,0,4,,,,,,,,3,,,41,76
110999,note_on,119,0,3,,,,,,,,2,,,69,0
111000,note_on,1,0,3,,,,,,,,2,,,64,103
111040,set_tempo,640,1,0,,,,,,464217,,,,,,
111119,note_on,119,0,3,,,,,,,,2,,,64,0
111120,note_on,1,0,3,,,,,,,,2,,,65,101
111120,control_change,960,0,1,,,,,,,,0,64,0,,
111189,control_change,597,0,2,,,,,,,,1,64,0,,
111239,note_on,119,0,3,,,,,,,,2,,,65,0
111240,note_on,1,0,3,,,,,,,,2,,,67,104
111240,control_change,360,0,4,,,,,,,,3,64,0,,
111359,note_on,119,0,3,,,,,,,,2,,,67,0
111360,note_on,1,0,3,,,,,,,,2,,,69,106
111479,note_on,119,0,3,,,,,,,,2,,,69,0
111480,note_on,1,0,3,,,,,,,,2,,,71,109
111599,note_on,0,0,4,,,,,,,,3,,,53,0
111599,note_on,359,0,4,,,,,,,,3,,,41,0
111599,note_on,479,0,1,,,,,,,,0,,,69,0
111600,note_on,1,0,1,,,,,,,,0,,,72,76
111600,note_on,1,0,4,,,,,,,,3,,,52,76
111600,note_on,0,0,4,,,,,,,,3,,,40,76
111680,set_tempo,640,1,0,,,,,,461538,,,,,,
111719,note_on,239,0,3,,,,,,,,2,,,71,0
111720,note_on,1,0,3,,,,,,,,2,,,71,101
111750,note_on,30,0,3,,,,,,,,2,,,71,0
111840,note_on,90,0,3,,,,,,,,2,,,69,96
111870,note_on,30,0,3,,,,,,,,2,,,69,0
111960,note_on,90,0,3,,,,,,,,2,,,67,90
111990,note_on,30,0,3,,,,,,,,2,,,67,0
112032,note_on,432,0,4,,,,,,,,3,,,40,0
112032,note_on,0,0,4,,,,,,,,3,,,52,0
112080,note_on,90,0,3,,,,,,,,2,,,65,84
112110,note_on,30,0,3,,,,,,,,2,,,65,0
112200,note_on,90,0,3,,,,,,,,2,,,64,78
112227,note_on,27,0,3,,,,,,,,2,,,64,0
112280,set_tempo,600,1,0,,,,,,458891,,,,,,
112320,note_on,0,0,4,,,,,,,,3,,,50,76
112320,note_on,288,0,4,,,,,,,,3,,,38,76
112320,note_on,93,0,3,,,,,,,,2,,,65,73
112423,control_change,103,0,4,,,,,,,,3,64,127,,
112559,note_on,959,0,1,,,,,,,,0,,,72,0
112560,note_on,1,0,1,,,,,,,,0,,,77,74
112620,note_on,60,0,1,,,,,,,,0,,,77,0
112680,note_on,60,0,1,,,,,,,,0,,,76,88
112740,note_on,60,0,1,,,,,,,,0,,,76,0
112800,note_on,60,0,1,,,,,,,,0,,,74,79
112860,note_on,60,0,1,,,,,,,,0,,,74,0
112920,note_on,60,0,1,,,,,,,,0,,,72,71
112980,note_on,60,0,1,,,,,,,,0,,,72,0
113039,note_on,0,0,4,,,,,,,,3,,,38,0
113039,note_on,616,0,4,,,,,,,,3,,,50,0
113040,note_on,60,0,1,,,,,,,,0,,,71,62
113040,note_on,0,0,4,,,,,,,,3,,,43,71
113040,note_on,1,0,4,,,,,,,,3,,,55,71
113159,note_on,839,0,3,,,,,,,,2,,,65,0
113160,note_on,1,0,3,,,,,,,,2,,,67,70
113160,note_on,120,0,1,,,,,,,,0,,,71,0
113279,note_on,119,0,3,,,,,,,,2,,,67,0
113280,note_on,120,0,1,,,,,,,,0,,,74,83
113280,note_on,1,0,3,,,,,,,,2,,,65,85
113383,control_change,343,0,4,,,,,,,,3,64,0,,
113399,note_on,119,0,1,,,,,,,,0,,,74,0
113399,note_on,119,0,3,,,,,,,,2,,,65,0
113400,note_on,1,0,3,,,,,,,,2,,,64,81
113400,note_on,1,0,1,,,,,,,,0,,,72,77
113519,note_on,119,0,1,,,,,,,,0,,,72,0
113519,note_on,119,0,3,,,,,,,,2,,,64,0
113520,note_on,1,0,1,,,,,,,,0,,,71,70
113520,note_on,1,0,3,,,,,,,,2,,,62,78
113639,note_on,119,0,3,,,,,,,,2,,,62,0
113639,note_on,119,0,1,,,,,,,,0,,,71,0
113640,note_on,1,0,3,,,,,,,,2,,,60,75
113640,note_on,1,0,1,,,,,,,,0,,,69,63
113759,note_on,376,0,4,,,,,,,,3,,,43,0
113759,note_on,119,0,3,,,,,,,,2,,,60,0
113759,note_on,119,0,1,,,,,,,,0,,,69,0
113759,note_on,0,0,4,,,,,,,,3,,,55,0
113760,note_on,2571,0,2,,,,,,,,1,,,67,66
113760,note_on,1,0,4,,,,,,,,3,,,55,66
113760,note_on,1,0,3,,,,,,,,2,,,59,72
113760,note_on,1,0,1,,,,,,,,0,,,74,57
113879,note_on,119,0,3,,,,,,,,2,,,59,0
113880,note_on,1,0,3,,,,,,,,2,,,64,69
113999,note_on,119,0,3,,,,,,,,2,,,64,0
113999,note_on,239,0,2,,,,,,,,1,,,67,0
114000,note_on,1,0,2,,,,,,,,1,,,71,64
114000,note_on,1,0,3,,,,,,,,2,,,62,66
114060,note_on,60,0,3,,,,,,,,2,,,62,0
114060,note_on,60,0,2,,,,,,,,1,,,71,0
114120,note_on,60,0,2,,,,,,,,1,,,69,73
114120,note_on,60,0,3,,,,,,,,2,,,60,63
114180,note_on,60,0,2,,,,,,,,1,,,69,0
114180,note_on,60,0,3,,,,,,,,2,,,60,0
114192,note_on,432,0,4,,,,,,,,3,,,55,0
114192,note_on,432,0,1,,,,,,,,0,,,74,0
114200,set_tempo,1920,1,0,,,,,,464217,,,,,,
114240,note_on,60,0,3,,,,,,,,2,,,59,59
114240,note_on,60,0,2,,,,,,,,1,,,67,69
114300,note_on,60,0,2,,,,,,,,1,,,67,0
114300,note_on,60,0,3,,,,,,,,2,,,59,0
114360,note_on,60,0,2,,,,,,,,1,,,65,63
114360,note_on,60,0,3,,,,,,,,2,,,57,56
114414,note_on,54,0,2,,,,,,,,1,,,65,0
114414,note_on,54,0,3,,,,,,,,2,,,57,0
114480,note_on,288,0,4,,,,,,,,3,,,48,61
114480,note_on,288,0,1,,,,,,,,0,,,72,59
114480,note_on,66,0,3,,,,,,,,2,,,55,54
114480,note_on,66,0,2,,,,,,,,1,,,64,59
114497,control_change,17,0,4,,,,,,,,3,64,127,,
114600,note_on,120,0,1,,,,,,,,0,,,72,0
114600,note_on,120,0,2,,,,,,,,1,,,64,0
114720,note_on,120,0,1,,,,,,,,0,,,74,76
114720,note_on,120,0,2,,,,,,,,1,,,65,73
114840,note_on,120,0,2,,,,,,,,1,,,65,0
114840,note_on,120,0,1,,,,,,,,0,,,74,0
114912,note_on,415,0,4,,,,,,,,3,,,48,0
114960,note_on,120,0,1,,,,,,,,0,,,76,79
114960,note_on,120,0,2,,,,,,,,1,,,67,75
115080,note_on,120,0,1,,,,,,,,0,,,76,0
115080,note_on,120,0,2,,,,,,,,1,,,67,0
115200,note_on,120,0,2,,,,,,,,1,,,67,78
115200,note_on,120,0,1,,,,,,,,0,,,76,82
115319,note_on,839,0,3,,,,,,,,2,,,55,0
115320,note_on,120,0,1,,,,,,,,0,,,76,0
115320,note_on,1,0,3,,,,,,,,2,,,60,76
115320,note_on,120,0,2,,,,,,,,1,,,67,0
115439,note_on,119,0,3,,,,,,,,2,,,60,0
115440,note_on,1,0,3,,,,,,,,2,,,59,93
115440,note_on,120,0,2,,,,,,,,1,,,69,81
115440,note_on,120,0,1,,,,,,,,0,,,77,86
115457,control_change,545,0,4,,,,,,,,3,64,0,,
115559,note_on,119,0,3,,,,,,,,2,,,59,0
115560,note_on,1,0,3,,,,,,,,2,,,57,90
115560,note_on,120,0,1,,,,,,,,0,,,77,0
115560,note_on,120,0,2,,,,,,,,1,,,69,0
115679,note_on,119,0,3,,,,,,,,2,,,57,0
115680,note_on,1,0,3,,,,,,,,2,,,55,86
115680,note_on,120,0,1,,,,,,,,0,,,79,90
115680,note_on,120,0,2,,,,,,,,1,,,71,84
115799,note_on,119,0,3,,,,,,,,2,,,55,0
115800,note_on,120,0,1,,,,,,,,0,,,79,0
115800,note_on,120,0,2,,,,,,,,1,,,71,0
115800,note_on,1,0,3,,,,,,,,2,,,53,83
115919,note_on,119,0,3,,,,,,,,2,,,53,0
115920,note_on,1,0,3,,,,,,,,2,,,52,79
115920,note_on,120,0,1,,,,,,,,0,,,79,92
115920,note_on,120,0,2,,,,,,,,1,,,71,86
116039,note_on,119,0,3,,,,,,,,2,,,52,0
116040,note_on,120,0,2,,,,,,,,1,,,71,0
116040,note_on,1,0,3,,,,,,,,2,,,57,76
116040,note_on,120,0,1,,,,,,,,0,,,79,0
116100,note_on,60,0,3,,,,,,,,2,,,57,0
116160,note_on,120,0,1,,,,,,,,0,,,81,96
116160,note_on,120,0,2,,,,,,,,1,,,72,88
116160,note_on,60,0,3,,,,,,,,2,,,55,72
116220,note_on,60,0,3,,,,,,,,2,,,55,0
116280,note_on,120,0,1,,,,,,,,0,,,81,0
116280,note_on,60,0,3,,,,,,,,2,,,53,69
116280,note_on,120,0,2,,,,,,,,1,,,72,0
116340,note_on,60,0,3,,,,,,,,2,,,53,0
116400,note_on,60,0,3,,,,,,,,2,,,52,65
116400,note_on,120,0,1,,,,,,,,0,,,83,99
116400,note_on,120,0,2,,,,,,,,1,,,74,76
116460,note_on,60,0,3,,,,,,,,2,,,52,0
116508,note_on,108,0,2,,,,,,,,1,,,74,0
116508,note_on,108,0,1,,,,,,,,0,,,83,0
116520,note_on,60,0,3,,,,,,,,2,,,50,62
116574,note_on,54,0,3,,,,,,,,2,,,50,0
116640,control_change,132,0,1,,,,,,,,0,64,127,,
116640,note_on,132,0,2,,,,,,,,1,,,76,80
116640,note_on,66,0,3,,,,,,,,2,,,48,69
116640,note_on,0,0,1,,,,,,,,0,,,84,102
116832,note_on,192,0,3,,,,,,,,2,,,48,0
116856,note_on,216,0,1,,,,,,,,0,,,84,0
116879,note_on,239,0,2,,,,,,,,1,,,76,0
116880,note_on,1,0,2,,,,,,,,1,,,62,98
116880,set_tempo,2680,1,0,,,,,,466926,,,,,,
116880,note_on,0,0,2,,,,,,,,1,,,71,98
117119,note_on,0,0,2,,,,,,,,1,,,62,0
117119,note_on,239,0,2,,,,,,,,1,,,71,0
117120,note_on,1,0,2,,,,,,,,1,,,64,102
117120,note_on,0,0,4,,,,,,,,3,,,48,93
117120,note_on,1663,0,4,,,,,,,,3,,,60,93
117120,note_on,0,0,2,,,,,,,,1,,,72,102
117359,note_on,0,0,4,,,,,,,,3,,,60,0
117359,note_on,239,0,4,,,,,,,,3,,,48,0
117360,note_on,0,0,4,,,,,,,,3,,,43,108
117360,note_on,1,0,4,,,,,,,,3,,,55,108
117599,note_on,0,0,2,,,,,,,,1,,,64,0
117599,note_on,479,0,2,,,,,,,,1,,,72,0
117600,control_change,744,0,1,,,,,,,,0,64,0,,
117600,note_on,0,0,2,,,,,,,,1,,,67,91
117600,note_on,1,0,2,,,,,,,,1,,,76,91
117719,note_on,119,0,2,,,,,,,,1,,,67,0
117719,note_on,0,0,2,,,,,,,,1,,,76,0
117720,note_on,0,0,2,,,,,,,,1,,,65,102
117720,note_on,1,0,2,,,,,,,,1,,,74,102
117839,note_on,479,0,4,,,,,,,,3,,,43,0
117839,note_on,0,0,4,,,,,,,,3,,,55,0
117839,note_on,119,0,2,,,,,,,,1,,,65,0
117839,note_on,0,0,2,,,,,,,,1,,,74,0
117840,note_on,1,0,4,,,,,,,,3,,,60,90
117840,note_on,0,0,2,,,,,,,,1,,,72,98
117840,note_on,0,0,4,,,,,,,,3,,,48,90
117840,note_on,1,0,2,,,,,,,,1,,,64,98
117959,note_on,0,0,2,,,,,,,,1,,,64,0
117959,note_on,119,0,2,,,,,,,,1,,,72,0
117960,note_on,1,0,2,,,,,,,,1,,,62,94
117960,note_on,0,0,2,,,,,,,,1,,,71,94
118079,note_on,0,0,4,,,,,,,,3,,,60,0
118079,note_on,119,0,2,,,,,,,,1,,,71,0
118079,note_on,0,0,2,,,,,,,,1,,,62,0
118079,note_on,239,0,4,,,,,,,,3,,,48,0
118080,note_on,0,0,4,,,,,,,,3,,,40,104
118080,note_on,0,0,2,,,,,,,,1,,,72,90
118080,note_on,1,0,2,,,,,,,,1,,,64,90
118080,note_on,1,0,4,,,,,,,,3,,,52,104
118319,note_on,239,0,2,,,,,,,,1,,,72,0
118319,note_on,0,0,2,,,,,,,,1,,,64,0
118320,note_on,0,0,2,,,,,,,,1,,,76,82
118320,note_on,1,0,2,,,,,,,,1,,,67,82
118439,note_on,0,0,2,,,,,,,,1,,,67,0
118439,note_on,119,0,2,,,,,,,,1,,,76,0
118440,note_on,1,0,2,,,,,,,,1,,,65,78
118440,note_on,0,0,2,,,,,,,,1,,,74,78
118559,note_on,119,0,2,,,,,,,,1,,,74,0
118559,note_on,0,0,4,,,,,,,,3,,,52,0
118559,note_on,0,0,2,,,,,,,,1,,,65,0
118559,note_on,479,0,4,,,,,,,,3,,,40,0
118560,note_on,0,0,4,,,,,,,,3,,,43,96
118560,note_on,0,0,2,,,,,,,,1,,,72,74
118560,note_on,1,0,4,,,,,,,,3,,,55,96
118560,note_on,1,0,2,,,,,,,,1,,,64,74
118679,note_on,119,0,2,,,,,,,,1,,,72,0
118679,note_on,0,0,2,,,,,,,,1,,,64,0
118680,note_on,1,0,2,,,,,,,,1,,,62,69
118680,note_on,0,0,2,,,,,,,,1,,,71,69
118776,note_on,216,0,4,,,,,,,,3,,,43,0
118776,note_on,0,0,4,,,,,,,,3,,,55,0
118788,note_on,0,0,2,,,,,,,,1,,,62,0
118788,note_on,108,0,2,,,,,,,,1,,,71,0
118800,note_on,24,0,4,,,,,,,,3,,,36,92
118800,note_on,0,0,2,,,,,,,,1,,,64,65
118800,note_on,0,0,4,,,,,,,,3,,,48,92
118800,note_on,12,0,2,,,,,,,,1,,,72,65
118903,control_change,103,0,4,,,,,,,,3,64,127,,
119016,note_on,0,0,2,,,,,,,,1,,,72,0
119016,note_on,216,0,2,,,,,,,,1,,,64,0
119040,note_on,2208,0,3,,,,,,,,2,,,52,88
119040,note_on,0,0,3,,,,,,,,2,,,48,88
119160,note_on,120,0,3,,,,,,,,2,,,48,0
119160,note_on,0,0,3,,,,,,,,2,,,52,0
119232,note_on,0,0,4,,,,,,,,3,,,36,0
119232,note_on,329,0,4,,,,,,,,3,,,48,0
119280,note_on,0,0,3,,,,,,,,2,,,50,90
119280,note_on,120,0,3,,,,,,,,2,,,53,90
119400,note_on,0,0,3,,,,,,,,2,,,53,0
119400,note_on,120,0,3,,,,,,,,2,,,50,0
119400,set_tempo,2520,1,0,,,,,,464217,,,,,,
119520,note_on,120,0,3,,,,,,,,2,,,55,92
119520,note_on,0,0,3,,,,,,,,2,,,52,92
119640,note_on,0,0,3,,,,,,,,2,,,55,0
119640,note_on,120,0,3,,,,,,,,2,,,52,0
119640,note_on,2040,0,1,,,,,,,,0,,,76,96
119759,note_on,119,0,1,,,,,,,,0,,,76,0
119760,note_on,1,0,1,,,,,,,,0,,,74,93
119760,note_on,120,0,3,,,,,,,,2,,,57,93
119760,note_on,0,0,3,,,,,,,,2,,,53,93
119863,control_change,631,0,4,,,,,,,,3,64,0,,
119879,note_on,119,0,1,,,,,,,,0,,,74,0
119880,note_on,120,0,3,,,,,,,,2,,,53,0
119880,note_on,1,0,1,,,,,,,,0,,,72,91
119880,note_on,0,0,3,,,,,,,,2,,,57,0
119999,note_on,119,0,1,,,,,,,,0,,,72,0
120000,note_on,120,0,3,,,,,,,,2,,,59,96
120000,note_on,1,0,1,,,,,,,,0,,,71,88
120000,note_on,0,0,3,,,,,,,,2,,,55,96
120119,note_on,119,0,1,,,,,,,,0,,,71,0
120120,note_on,1,0,1,,,,,,,,0,,,69,86
120120,note_on,120,0,3,,,,,,,,2,,,55,0
120120,note_on,0,0,3,,,,,,,,2,,,59,0
120239,note_on,119,0,1,,,,,,,,0,,,69,0
120240,note_on,120,0,3,,,,,,,,2,,,59,97
120240,note_on,1,0,1,,,,,,,,0,,,67,82
120240,note_on,0,0,3,,,,,,,,2,,,55,97
120359,note_on,119,0,1,,,,,,,,0,,,67,0
120360,note_on,120,0,3,,,,,,,,2,,,55,0
120360,note_on,1,0,1,,,,,,,,0,,,72,76
120360,note_on,0,0,3,,,,,,,,2,,,59,0
120479,note_on,119,0,1,,,,,,,,0,,,72,0
120480,note_on,1,0,1,,,,,,,,0,,,71,96
120480,note_on,120,0,3,,,,,,,,2,,,60,98
120480,note_on,0,0,3,,,,,,,,2,,,57,98
120599,note_on,119,0,1,,,,,,,,0,,,71,0
120600,note_on,1,0,1,,,,,,,,0,,,69,92
120600,note_on,120,0,3,,,,,,,,2,,,57,0
120600,note_on,0,0,3,,,,,,,,2,,,60,0
120719,note_on,119,0,1,,,,,,,,0,,,69,0
120720,note_on,0,0,3,,,,,,,,2,,,59,100
120720,note_on,1,0,1,,,,,,,,0,,,67,87
120720,note_on,120,0,3,,,,,,,,2,,,62,100
120828,note_on,108,0,3,,,,,,,,2,,,59,0
120828,note_on,0,0,3,,,,,,,,2,,,62,0
120839,note_on,119,0,1,,,,,,,,0,,,67,0
120840,note_on,1,0,1,,,,,,,,0,,,65,82
120909,control_change,81,0,3,,,,,,,,2,64,127,,
120948,note_on,108,0,1,,,,,,,,0,,,65,0
120960,note_on,12,0,1,,,,,,,,0,,,64,76
120960,note_on,51,0,3,,,,,,,,2,,,64,90
120960,note_on,0,0,3,,,,,,,,2,,,60,90
121079,note_on,119,0,1,,,,,,,,0,,,64,0
121080,note_on,1,0,1,,,,,,,,0,,,67,80
121199,note_on,119,0,1,,,,,,,,0,,,67,0
121200,note_on,1,0,1,,,,,,,,0,,,69,82
121319,note_on,119,0,1,,,,,,,,0,,,69,0
121320,note_on,1,0,1,,,,,,,,0,,,71,86
121392,note_on,0,0,3,,,,,,,,2,,,64,0
121392,note_on,432,0,3,,,,,,,,2,,,60,0
121439,note_on,119,0,1,,,,,,,,0,,,71,0
121440,note_on,1,0,1,,,,,,,,0,,,72,90
121440,note_on,1577,0,4,,,,,,,,3,,,48,82
121559,note_on,119,0,1,,,,,,,,0,,,72,0
121560,note_on,1,0,1,,,,,,,,0,,,74,93
121679,note_on,239,0,4,,,,,,,,3,,,48,0
121679,note_on,119,0,1,,,,,,,,0,,,74,0
121680,note_on,1,0,1,,,,,,,,0,,,76,99
121680,note_on,1,0,4,,,,,,,,3,,,43,94
121799,note_on,119,0,1,,,,,,,,0,,,76,0
121800,note_on,1,0,1,,,,,,,,0,,,71,94
121800,note_on,2784,0,2,,,,,,,,1,,,62,76
121869,control_change,477,0,3,,,,,,,,2,64,0,,
121880,set_tempo,2480,1,0,,,,,,461538,,,,,,
121919,note_on,119,0,1,,,,,,,,0,,,71,0
121919,note_on,119,0,2,,,,,,,,1,,,62,0
121920,note_on,1,0,2,,,,,,,,1,,,64,81
121920,note_on,1,0,1,,,,,,,,0,,,72,75
122039,note_on,119,0,2,,,,,,,,1,,,64,0
122039,note_on,119,0,1,,,,,,,,0,,,72,0
122040,note_on,1,0,2,,,,,,,,1,,,65,85
122040,note_on,1,0,1,,,,,,,,0,,,74,80
122159,note_on,479,0,4,,,,,,,,3,,,43,0
122159,note_on,119,0,1,,,,,,,,0,,,74,0
122159,note_on,119,0,2,,,,,,,,1,,,65,0
122160,note_on,1,0,4,,,,,,,,3,,,48,82
122160,note_on,1,0,1,,,,,,,,0,,,76,84
122160,note_on,1,0,2,,,,,,,,1,,,67,88
122279,note_on,119,0,2,,,,,,,,1,,,67,0
122279,note_on,119,0,1,,,,,,,,0,,,76,0
122280,note_on,1,0,2,,,,,,,,1,,,69,92
122280,note_on,1,0,1,,,,,,,,0,,,77,88
122399,note_on,119,0,1,,,,,,,,0,,,77,0
122399,note_on,119,0,2,,,,,,,,1,,,69,0
122399,note_on,239,0,4,,,,,,,,3,,,48,0
122400,note_on,1,0,1,,,,,,,,0,,,79,74
122400,note_on,1,0,4,,,,,,,,3,,,40,94
122400,note_on,1,0,2,,,,,,,,1,,,67,76
122519,note_on,119,0,1,,,,,,,,0,,,79,0
122520,note_on,1,0,1,,,,,,,,0,,,76,79
122639,note_on,239,0,2,,,,,,,,1,,,67,0
122639,note_on,119,0,1,,,,,,,,0,,,76,0
122640,note_on,1,0,2,,,,,,,,1,,,69,76
122640,note_on,1,0,1,,,,,,,,0,,,77,82
122759,note_on,119,0,1,,,,,,,,0,,,77,0
122759,note_on,119,0,2,,,,,,,,1,,,69,0
122760,note_on,1,0,1,,,,,,,,0,,,79,86
122760,note_on,1,0,2,,,,,,,,1,,,71,78
122879,note_on,119,0,1,,,,,,,,0,,,79,0
122879,note_on,119,0,2,,,,,,,,1,,,71,0
122879,note_on,479,0,4,,,,,,,,3,,,40,0
122880,note_on,1,0,4,,,,,,,,3,,,43,98
122880,note_on,1,0,1,,,,,,,,0,,,81,90
122880,note_on,1,0,2,,,,,,,,1,,,72,82
122999,note_on,119,0,2,,,,,,,,1,,,72,0
122999,note_on,119,0,1,,,,,,,,0,,,81,0
123000,note_on,1,0,2,,,,,,,,1,,,74,86
123000,note_on,1,0,1,,,,,,,,0,,,83,93
123096,note_on,216,0,4,,,,,,,,3,,,43,0
123108,note_on,108,0,2,,,,,,,,1,,,74,0
123108,note_on,108,0,1,,,,,,,,0,,,83,0
123120,note_on,12,0,2,,,,,,,,1,,,76,90
123120,note_on,12,0,1,,,,,,,,0,,,84,76
123120,note_on,1251,0,3,,,,,,,,2,,,48,86
123120,note_on,24,0,4,,,,,,,,3,,,36,76
123154,control_change,34,0,4,,,,,,,,3,64,127,,
123359,note_on,239,0,1,,,,,,,,0,,,84,0
123359,note_on,239,0,3,,,,,,,,2,,,48,0
123360,note_on,1,0,1,,,,,,,,0,,,83,95
123360,note_on,1,0,3,,,,,,,,2,,,50,88
123420,note_on,60,0,1,,,,,,,,0,,,83,0
123480,note_on,60,0,1,,,,,,,,0,,,81,92
123540,note_on,60,0,1,,,,,,,,0,,,81,0
123599,note_on,239,0,3,,,,,,,,2,,,50,0
123600,note_on,60,0,1,,,,,,,,0,,,79,90
123600,note_on,1,0,3,,,,,,,,2,,,52,92
123660,note_on,60,0,1,,,,,,,,0,,,79,0
123720,note_on,60,0,1,,,,,,,,0,,,77,87
123780,note_on,60,0,1,,,,,,,,0,,,77,0
123839,note_on,685,0,4,,,,,,,,3,,,36,0
123839,note_on,239,0,3,,,,,,,,2,,,52,0
123840,note_on,1,0,4,,,,,,,,3,,,48,76
123840,note_on,1,0,3,,,,,,,,2,,,52,93
123840,note_on,60,0,1,,,,,,,,0,,,79,85
124079,note_on,239,0,1,,,,,,,,0,,,79,0
124079,note_on,239,0,3,,,,,,,,2,,,52,0
124080,note_on,1,0,3,,,,,,,,2,,,53,96
124080,note_on,1,0,1,,,,,,,,0,,,77,79
124114,control_change,274,0,4,,,,,,,,3,64,0,,
124140,note_on,60,0,1,,,,,,,,0,,,77,0
124200,note_on,60,0,1,,,,,,,,0,,,76,77
124260,note_on,60,0,1,,,,,,,,0,,,76,0
124319,note_on,239,0,3,,,,,,,,2,,,53,0
124320,note_on,60,0,1,,,,,,,,0,,,74,74
124320,note_on,1,0,3,,,,,,,,2,,,55,98
124380,note_on,60,0,1,,,,,,,,0,,,74,0
124400,set_tempo,2520,1,0,,,,,,458891,,,,,,
124440,note_on,60,0,1,,,,,,,,0,,,72,72
124500,note_on,60,0,1,,,,,,,,0,,,72,0
124559,note_on,239,0,3,,,,,,,,2,,,55,0
124559,note_on,445,0,4,,,,,,,,3,,,48,0
124560,note_on,60,0,1,,,,,,,,0,,,74,69
124560,note_on,1,0,4,,,,,,,,3,,,47,76
124560,note_on,1,0,3,,,,,,,,2,,,55,99
124799,note_on,1679,0,2,,,,,,,,1,,,76,0
124799,note_on,239,0,3,,,,,,,,2,,,55,0
124800,note_on,1,0,3,,,,,,,,2,,,57,102
124800,note_on,1,0,2,,,,,,,,1,,,72,76
124860,note_on,60,0,2,,,,,,,,1,,,72,0
124920,note_on,60,0,2,,,,,,,,1,,,71,90
124980,note_on,60,0,2,,,,,,,,1,,,71,0
124992,note_on,432,0,4,,,,,,,,3,,,47,0
125039,note_on,239,0,3,,,,,,,,2,,,57,0
125040,note_on,1,0,3,,,,,,,,2,,,59,105
125040,note_on,60,0,2,,,,,,,,1,,,69,87
125100,note_on,60,0,2,,,,,,,,1,,,69,0
125160,note_on,60,0,2,,,,,,,,1,,,67,84
125208,note_on,648,0,1,,,,,,,,0,,,74,0
125214,note_on,54,0,2,,,,,,,,1,,,67,0
125256,note_on,216,0,3,,,,,,,,2,,,59,0
125280,note_on,24,0,3,,,,,,,,2,,,60,97
125280,note_on,288,0,4,,,,,,,,3,,,45,76
125280,note_on,66,0,2,,,,,,,,1,,,67,81
125280,note_on,72,0,1,,,,,,,,0,,,76,97
125415,control_change,135,0,4,,,,,,,,3,64,127,,
125519,note_on,239,0,1,,,,,,,,0,,,76,0
125519,note_on,239,0,3,,,,,,,,2,,,60,0
125520,note_on,1,0,3,,,,,,,,2,,,62,98
125520,note_on,1,0,1,,,,,,,,0,,,74,92
125759,note_on,239,0,3,,,,,,,,2,,,62,0
125759,note_on,239,0,1,,,,,,,,0,,,74,0
125760,note_on,1,0,3,,,,,,,,2,,,64,78
125760,note_on,1,0,1,,,,,,,,0,,,72,86
125999,note_on,239,0,1,,,,,,,,0,,,72,0
125999,note_on,584,0,4,,,,,,,,3,,,45,0
125999,note_on,239,0,3,,,,,,,,2,,,64,0
126000,note_on,1,0,4,,,,,,,,3,,,50,71
126000,note_on,720,0,2,,,,,,,,1,,,62,71
126000,note_on,1,0,1,,,,,,,,0,,,72,80
126000,note_on,1,0,3,,,,,,,,2,,,57,79
126239,note_on,239,0,3,,,,,,,,2,,,57,0
126239,note_on,239,0,1,,,,,,,,0,,,72,0
126240,note_on,1,0,3,,,,,,,,2,,,59,80
126240,note_on,1,0,1,,,,,,,,0,,,71,75
126375,control_change,375,0,4,,,,,,,,3,64,0,,
126479,note_on,239,0,3,,,,,,,,2,,,59,0
126479,note_on,239,0,1,,,,,,,,0,,,71,0
126480,note_on,1,0,1,,,,,,,,0,,,69,71
126480,note_on,1,0,3,,,,,,,,2,,,60,79
126719,note_on,0,0,2,,,,,,,,1,,,67,0
126719,note_on,344,0,4,,,,,,,,3,,,50,0
126719,note_on,239,0,1,,,,,,,,0,,,69,0
126719,note_on,719,0,2,,,,,,,,1,,,62,0
126719,note_on,239,0,3,,,,,,,,2,,,60,0
126720,note_on,1,0,3,,,,,,,,2,,,60,80
126720,note_on,0,0,2,,,,,,,,1,,,66,66
126720,note_on,1,0,4,,,,,,,,3,,,50,66
126720,note_on,1,0,2,,,,,,,,1,,,62,66
126720,note_on,0,0,2,,,,,,,,1,,,69,66
126720,note_on,1,0,1,,,,,,,,0,,,69,66
126880,set_tempo,2480,1,0,,,,,,456274,,,,,,
126959,note_on,239,0,1,,,,,,,,0,,,69,0
126959,note_on,239,0,3,,,,,,,,2,,,60,0
126960,note_on,1,0,1,,,,,,,,0,,,71,61
126960,note_on,1,0,3,,,,,,,,2,,,59,79
127000,set_tempo,120,1,0,,,,,,453686,,,,,,
127152,note_on,432,0,4,,,,,,,,3,,,50,0
127199,note_on,239,0,1,,,,,,,,0,,,71,0
127199,note_on,239,0,3,,,,,,,,2,,,59,0
127200,note_on,1,0,3,,,,,,,,2,,,57,78
127200,note_on,1,0,1,,,,,,,,0,,,72,56
127368,note_on,648,0,2,,,,,,,,1,,,69,0
127368,note_on,0,0,2,,,,,,,,1,,,66,0
127416,note_on,216,0,3,,,,,,,,2,,,57,0
127416,note_on,216,0,1,,,,,,,,0,,,72,0
127440,note_on,72,0,2,,,,,,,,1,,,67,61
127440,note_on,24,0,1,,,,,,,,0,,,71,51
127440,note_on,24,0,3,,,,,,,,2,,,55,85
127560,note_on,120,0,3,,,,,,,,2,,,55,0
127680,note_on,120,0,3,,,,,,,,2,,,57,109
127800,note_on,120,0,3,,,,,,,,2,,,57,0
127872,note_on,432,0,2,,,,,,,,1,,,67,0
127872,note_on,0,0,2,,,,,,,,1,,,62,0
127920,note_on,120,0,3,,,,,,,,2,,,59,97
127920,note_on,768,0,4,,,,,,,,3,,,55,81
128040,note_on,120,0,3,,,,,,,,2,,,59,0
128159,note_on,239,0,4,,,,,,,,3,,,55,0
128160,note_on,120,0,3,,,,,,,,2,,,59,99
128160,note_on,1,0,4,,,,,,,,3,,,50,97
128279,note_on,839,0,1,,,,,,,,0,,,71,0
128280,note_on,1,0,1,,,,,,,,0,,,67,73
128280,note_on,120,0,3,,,,,,,,2,,,59,0
128399,note_on,119,0,1,,,,,,,,0,,,67,0
128400,note_on,1,0,1,,,,,,,,0,,,66,75
128400,note_on,120,0,3,,,,,,,,2,,,60,102
128519,note_on,119,0,1,,,,,,,,0,,,66,0
128520,note_on,120,0,3,,,,,,,,2,,,60,0
128520,note_on,1,0,1,,,,,,,,0,,,67,79
128639,note_on,479,0,4,,,,,,,,3,,,50,0
128639,note_on,119,0,1,,,,,,,,0,,,67,0
128640,note_on,1,0,4,,,,,,,,3,,,55,80
128640,note_on,120,0,3,,,,,,,,2,,,62,103
128640,note_on,1,0,1,,,,,,,,0,,,71,82
128759,note_on,119,0,1,,,,,,,,0,,,71,0
128760,note_on,120,0,3,,,,,,,,2,,,62,0
128760,note_on,1,0,1,,,,,,,,0,,,67,85
128879,note_on,239,0,4,,,,,,,,3,,,55,0
128879,note_on,119,0,1,,,,,,,,0,,,67,0
128880,note_on,120,0,3,,,,,,,,2,,,62,106
128880,note_on,1,0,4,,,,,,,,3,,,47,96
128880,note_on,1,0,1,,,,,,,,0,,,74,88
128999,note_on,119,0,1,,,,,,,,0,,,74,0
129000,note_on,120,0,3,,,,,,,,2,,,62,0
129000,note_on,1,0,1,,,,,,,,0,,,76,91
129119,note_on,119,0,1,,,,,,,,0,,,76,0
129120,note_on,120,0,3,,,,,,,,2,,,64,109
129120,note_on,1,0,1,,,,,,,,0,,,74,94
129239,note_on,119,0,1,,,,,,,,0,,,74,0
129240,note_on,1,0,1,,,,,,,,0,,,72,87
129240,note_on,120,0,3,,,,,,,,2,,,64,0
129280,set_tempo,2280,1,0,,,,,,451128,,,,,,
129359,note_on,479,0,4,,,,,,,,3,,,47,0
129359,note_on,119,0,1,,,,,,,,0,,,72,0
129360,note_on,120,0,3,,,,,,,,2,,,65,111
129360,note_on,1,0,4,,,,,,,,3,,,50,81
129360,note_on,1,0,1,,,,,,,,0,,,71,79
129468,note_on,108,0,3,,,,,,,,2,,,65,0
129479,note_on,119,0,1,,,,,,,,0,,,71,0
129480,note_on,1,0,1,,,,,,,,0,,,69,72
129576,note_on,216,0,4,,,,,,,,3,,,50,0
129588,note_on,108,0,1,,,,,,,,0,,,69,0
129600,note_on,1728,0,2,,,,,,,,1,,,67,81
129600,note_on,12,0,1,,,,,,,,0,,,71,64
129600,note_on,132,0,3,,,,,,,,2,,,67,103
129600,note_on,24,0,4,,,,,,,,3,,,43,98
129612,control_change,12,0,4,,,,,,,,3,64,127,,
129720,note_on,120,0,2,,,,,,,,1,,,67,0
129839,note_on,239,0,1,,,,,,,,0,,,71,0
129839,note_on,239,0,3,,,,,,,,2,,,67,0
129840,note_on,1,0,3,,,,,,,,2,,,66,105
129840,note_on,1,0,1,,,,,,,,0,,,72,73
129840,note_on,120,0,2,,,,,,,,1,,,69,82
129959,note_on,119,0,3,,,,,,,,2,,,66,0
129960,note_on,120,0,2,,,,,,,,1,,,69,0
129960,note_on,1,0,3,,,,,,,,2,,,64,100
130032,note_on,420,0,4,,,,,,,,3,,,43,0
130079,note_on,119,0,3,,,,,,,,2,,,64,0
130079,note_on,239,0,1,,,,,,,,0,,,72,0
130080,note_on,1,0,1,,,,,,,,0,,,74,80
130080,note_on,120,0,2,,,,,,,,1,,,71,84
130080,note_on,1,0,3,,,,,,,,2,,,62,97
130199,note_on,119,0,3,,,,,,,,2,,,62,0
130200,note_on,1,0,3,,,,,,,,2,,,60,95
130200,note_on,120,0,2,,,,,,,,1,,,71,0
130319,note_on,239,0,1,,,,,,,,0,,,74,0
130319,note_on,119,0,3,,,,,,,,2,,,60,0
130320,note_on,1,0,3,,,,,,,,2,,,59,92
130320,note_on,1,0,1,,,,,,,,0,,,74,87
130320,note_on,120,0,2,,,,,,,,1,,,71,85
130439,note_on,119,0,3,,,,,,,,2,,,59,0
130440,note_on,1,0,3,,,,,,,,2,,,55,89
130440,note_on,120,0,2,,,,,,,,1,,,71,0
130559,note_on,119,0,3,,,,,,,,2,,,55,0
130560,note_on,120,0,2,,,,,,,,1,,,72,85
130560,note_on,1,0,3,,,,,,,,2,,,54,87
130572,control_change,540,0,4,,,,,,,,3,64,0,,
130679,note_on,119,0,3,,,,,,,,2,,,54,0
130680,note_on,1,0,3,,,,,,,,2,,,55,84
130680,note_on,120,0,2,,,,,,,,1,,,72,0
130799,note_on,479,0,1,,,,,,,,0,,,74,0
130799,note_on,119,0,3,,,,,,,,2,,,55,0
130800,note_on,1,0,1,,,,,,,,0,,,79,76
130800,note_on,1,0,3,,,,,,,,2,,,59,81
130800,note_on,120,0,2,,,,,,,,1,,,74,86
130919,note_on,119,0,3,,,,,,,,2,,,59,0
130920,note_on,1,0,3,,,,,,,,2,,,55,79
130920,note_on,120,0,2,,,,,,,,1,,,74,0
131039,note_on,239,0,1,,,,,,,,0,,,79,0
131039,note_on,119,0,3,,,,,,,,2,,,55,0
131040,note_on,1,0,1,,,,,,,,0,,,78,81
131040,note_on,1,0,3,,,,,,,,2,,,62,76
131040,note_on,120,0,2,,,,,,,,1,,,74,87
131159,note_on,119,0,3,,,,,,,,2,,,62,0
131160,note_on,1,0,3,,,,,,,,2,,,64,73
131160,note_on,120,0,2,,,,,,,,1,,,74,0
131279,note_on,119,0,3,,,,,,,,2,,,64,0
131279,note_on,239,0,1,,,,,,,,0,,,78,0
131280,note_on,120,0,2,,,,,,,,1,,,76,88
131280,note_on,1,0,1,,,,,,,,0,,,79,86
131280,note_on,1,0,3,,,,,,,,2,,,62,71
131399,note_on,119,0,3,,,,,,,,2,,,62,0
131400,note_on,120,0,2,,,,,,,,1,,,76,0
131400,note_on,1,0,3,,,,,,,,2,,,60,68
131519,note_on,119,0,3,,,,,,,,2,,,60,0
131519,note_on,239,0,1,,,,,,,,0,,,79,0
131520,set_tempo,2240,1,0,,,,,,448598,,,,,,
131520,note_on,1,0,1,,,,,,,,0,,,81,91
131520,note_on,1,0,3,,,,,,,,2,,,59,65
131520,note_on,120,0,2,,,,,,,,1,,,77,90
131628,note_on,108,0,2,,,,,,,,1,,,77,0
131639,note_on,119,0,3,,,,,,,,2,,,59,0
131640,note_on,1,0,3,,,,,,,,2,,,57,63
131736,note_on,216,0,1,,,,,,,,0,,,81,0
131748,note_on,108,0,3,,,,,,,,2,,,57,0
131760,control_change,24,0,1,,,,,,,,0,64,127,,
131760,note_on,12,0,3,,,,,,,,2,,,55,60
131760,note_on,0,0,2,,,,,,,,1,,,79,90
131760,note_on,0,0,1,,,,,,,,0,,,83,96
131760,control_change,132,0,2,,,,,,,,1,64,127,,
131879,note_on,119,0,2,,,,,,,,1,,,79,0
131880,note_on,1,0,2,,,,,,,,1,,,74,83
131999,note_on,119,0,2,,,,,,,,1,,,74,0
131999,note_on,239,0,3,,,,,,,,2,,,55,0
132000,note_on,1,0,2,,,,,,,,1,,,72,77
132000,note_on,1,0,3,,,,,,,,2,,,57,77
132119,note_on,119,0,2,,,,,,,,1,,,72,0
132120,note_on,1,0,2,,,,,,,,1,,,74,71
132239,note_on,239,0,3,,,,,,,,2,,,57,0
132239,note_on,119,0,2,,,,,,,,1,,,74,0
132240,note_on,1668,0,4,,,,,,,,3,,,55,76
132240,note_on,1,0,2,,,,,,,,1,,,79,66
132240,note_on,1,0,3,,,,,,,,2,,,59,77
132359,note_on,119,0,2,,,,,,,,1,,,79,0
132360,note_on,1,0,2,,,,,,,,1,,,75,68
132479,note_on,119,0,2,,,,,,,,1,,,75,0
132479,note_on,239,0,4,,,,,,,,3,,,55,0
132479,note_on,719,0,1,,,,,,,,0,,,83,0
132479,note_on,239,0,3,,,,,,,,2,,,59,0
132480,note_on,1,0,1,,,,,,,,0,,,80,84
132480,note_on,1,0,2,,,,,,,,1,,,77,76
132480,note_on,1,0,4,,,,,,,,3,,,50,88
132480,note_on,1,0,3,,,,,,,,2,,,59,76
132719,note_on,239,0,2,,,,,,,,1,,,77,0
132719,note_on,239,0,3,,,,,,,,2,,,59,0
132719,note_on,239,0,1,,,,,,,,0,,,80,0
132720,note_on,0,0,1,,,,,,,,0,,,79,77
132720,control_change,1,0,2,,,,,,,,1,64,0,,
132720,note_on,1,0,3,,,,,,,,2,,,60,75
132720,control_change,1,0,1,,,,,,,,0,64,0,,
132720,note_on,0,0,2,,,,,,,,1,,,75,82
132959,note_on,239,0,3,,,,,,,,2,,,60,0
132959,note_on,239,0,2,,,,,,,,1,,,75,0
132959,note_on,239,0,1,,,,,,,,0,,,79,0
132959,note_on,479,0,4,,,,,,,,3,,,50,0
132960,note_on,1,0,4,,,,,,,,3,,,53,66
132960,note_on,1,0,1,,,,,,,,0,,,77,70
132960,note_on,1,0,2,,,,,,,,1,,,74,76
132960,note_on,1,0,3,,,,,,,,2,,,62,75
133199,note_on,239,0,3,,,,,,,,2,,,62,0
133199,note_on,239,0,1,,,,,,,,0,,,77,0
133199,note_on,239,0,4,,,,,,,,3,,,53,0
133199,note_on,239,0,2,,,,,,,,1,,,74,0
133200,note_on,1,0,1,,,,,,,,0,,,77,64
133200,note_on,1,0,4,,,,,,,,3,,,47,74
133200,note_on,1,0,3,,,,,,,,2,,,62,73
133200,note_on,1,0,2,,,,,,,,1,,,74,70
133439,note_on,239,0,3,,,,,,,,2,,,62,0
133439,note_on,239,0,1,,,,,,,,0,,,77,0
133439,note_on,239,0,2,,,,,,,,1,,,74,0
133440,note_on,1,0,3,,,,,,,,2,,,63,73
133440,note_on,1,0,1,,,,,,,,0,,,75,57
133440,note_on,1,0,2,,,,,,,,1,,,72,67
133679,note_on,239,0,3,,,,,,,,2,,,63,0
133679,note_on,239,0,1,,,,,,,,0,,,75,0
133679,note_on,479,0,4,,,,,,,,3,,,47,0
133679,note_on,239,0,2,,,,,,,,1,,,72,0
133680,note_on,1,0,4,,,,,,,,3,,,50,62
133680,note_on,1,0,1,,,,,,,,0,,,74,51
133680,note_on,1,0,3,,,,,,,,2,,,65,71
133680,note_on,1,0,2,,,,,,,,1,,,71,62
133760,set_tempo,2240,1,0,,,,,,446097,,,,,,
133896,note_on,216,0,3,,,,,,,,2,,,65,0
133896,note_on,216,0,1,,,,,,,,0,,,74,0
133896,note_on,216,0,4,,,,,,,,3,,,50,0
133896,note_on,216,0,2,,,,,,,,1,,,71,0
133920,note_on,24,0,1,,,,,,,,0,,,74,45
133920,note_on,24,0,4,,,,,,,,3,,,43,66
133920,note_on,24,0,2,,,,,,,,1,,,65,71
133920,note_on,0,0,2,,,,,,,,1,,,71,71
133971,control_change,51,0,4,,,,,,,,3,64,127,,
134159,note_on,239,0,1,,,,,,,,0,,,74,0
134159,note_on,239,0,2,,,,,,,,1,,,71,0
134159,note_on,0,0,2,,,,,,,,1,,,65,0
134160,note_on,1,0,1,,,,,,,,0,,,67,74
134160,note_on,1,0,2,,,,,,,,1,,,59,85
134279,note_on,119,0,1,,,,,,,,0,,,67,0
134280,note_on,1,0,1,,,,,,,,0,,,69,78
134399,note_on,239,0,2,,,,,,,,1,,,59,0
134399,note_on,119,0,1,,,,,,,,0,,,69,0
134400,note_on,1,0,1,,,,,,,,0,,,71,81
134400,note_on,1,0,2,,,,,,,,1,,,55,82
134519,note_on,119,0,1,,,,,,,,0,,,71,0
134520,note_on,1,0,1,,,,,,,,0,,,72,84
134639,note_on,668,0,4,,,,,,,,3,,,43,0
134639,note_on,239,0,2,,,,,,,,1,,,55,0
134639,note_on,119,0,1,,,,,,,,0,,,72,0
134640,note_on,1,0,2,,,,,,,,1,,,59,81
134640,note_on,1,0,4,,,,,,,,3,,,55,76
134640,note_on,1,0,1,,,,,,,,0,,,74,87
134879,note_on,239,0,2,,,,,,,,1,,,59,0
134879,note_on,239,0,1,,,,,,,,0,,,74,0
134880,note_on,1,0,2,,,,,,,,1,,,62,79
134880,note_on,1,0,1,,,,,,,,0,,,71,80
134931,control_change,291,0,4,,,,,,,,3,64,0,,
134999,note_on,119,0,1,,,,,,,,0,,,71,0
135000,note_on,1,0,1,,,,,,,,0,,,72,82
135119,note_on,239,0,2,,,,,,,,1,,,62,0
135119,note_on,119,0,1,,,,,,,,0,,,72,0
135120,note_on,1,0,1,,,,,,,,0,,,74,86
135120,note_on,1,0,2,,,,,,,,1,,,65,76
135239,note_on,119,0,1,,,,,,,,0,,,74,0
135240,note_on,1,0,1,,,,,,,,0,,,76,88
135359,note_on,428,0,4,,,,,,,,3,,,55,0
135359,note_on,119,0,1,,,,,,,,0,,,76,0
135359,note_on,239,0,2,,,,,,,,1,,,65,0
135360,note_on,1,0,1,,,,,,,,0,,,77,92
135360,note_on,1,0,2,,,,,,,,1,,,62,76
135360,note_on,1,0,4,,,,,,,,3,,,55,76
135599,note_on,239,0,2,,,,,,,,1,,,62,0
135599,note_on,239,0,1,,,,,,,,0,,,77,0
135600,note_on,1,0,2,,,,,,,,1,,,59,76
135600,note_on,1,0,1,,,,,,,,0,,,79,86
135719,note_on,119,0,1,,,,,,,,0,,,79,0
135720,note_on,1,0,1,,,,,,,,0,,,77,98
135792,note_on,432,0,4,,,,,,,,3,,,55,0
135839,note_on,239,0,2,,,,,,,,1,,,59,0
135839,note_on,119,0,1,,,,,,,,0,,,77,0
135840,note_on,1,0,2,,,,,,,,1,,,55,76
135840,note_on,1,0,1,,,,,,,,0,,,76,93
135959,note_on,119,0,1,,,,,,,,0,,,76,0
135960,note_on,1,0,1,,,,,,,,0,,,74,88
136040,set_tempo,2280,1,0,,,,,,443623,,,,,,
136056,note_on,216,0,2,,,,,,,,1,,,55,0
136068,note_on,108,0,1,,,,,,,,0,,,74,0
136080,note_on,2184,0,3,,,,,,,,2,,,48,84
136080,note_on,12,0,1,,,,,,,,0,,,76,84
136080,note_on,24,0,2,,,,,,,,1,,,67,76
136200,note_on,120,0,3,,,,,,,,2,,,48,0
136320,note_on,120,0,3,,,,,,,,2,,,50,86
136440,note_on,120,0,3,,,,,,,,2,,,50,0
136512,note_on,432,0,2,,,,,,,,1,,,67,0
136560,note_on,768,0,4,,,,,,,,3,,,60,74
136560,note_on,120,0,3,,,,,,,,2,,,52,88
136680,note_on,120,0,3,,,,,,,,2,,,52,0
136799,note_on,239,0,4,,,,,,,,3,,,60,0
136800,note_on,120,0,3,,,,,,,,2,,,52,92
136800,note_on,1,0,4,,,,,,,,3,,,55,92
136919,note_on,839,0,1,,,,,,,,0,,,76,0
136920,note_on,120,0,3,,,,,,,,2,,,52,0
136920,note_on,1,0,1,,,,,,,,0,,,72,76
137039,note_on,119,0,1,,,,,,,,0,,,72,0
137040,note_on,120,0,3,,,,,,,,2,,,53,94
137040,note_on,1,0,1,,,,,,,,0,,,71,79
137159,note_on,119,0,1,,,,,,,,0,,,71,0
137160,note_on,1,0,1,,,,,,,,0,,,72,82
137160,note_on,120,0,3,,,,,,,,2,,,53,0
137279,note_on,479,0,4,,,,,,,,3,,,55,0
137279,note_on,119,0,1,,,,,,,,0,,,72,0
137280,note_on,1,0,1,,,,,,,,0,,,76,85
137280,note_on,120,0,3,,,,,,,,2,,,55,97
137280,note_on,1,0,4,,,,,,,,3,,,60,79
137399,note_on,119,0,1,,,,,,,,0,,,76,0
137400,note_on,120,0,3,,,,,,,,2,,,55,0
137400,note_on,1,0,1,,,,,,,,0,,,72,87
137519,note_on,239,0,4,,,,,,,,3,,,60,0
137519,note_on,119,0,1,,,,,,,,0,,,72,0
137520,note_on,1,0,4,,,,,,,,3,,,52,92
137520,note_on,1,0,1,,,,,,,,0,,,79,91
137520,note_on,120,0,3,,,,,,,,2,,,55,99
137639,note_on,119,0,1,,,,,,,,0,,,79,0
137640,note_on,120,0,3,,,,,,,,2,,,55,0
137640,note_on,1,0,1,,,,,,,,0,,,81,93
137759,note_on,119,0,1,,,,,,,,0,,,81,0
137760,note_on,1,0,1,,,,,,,,0,,,79,97
137760,note_on,120,0,3,,,,,,,,2,,,57,102
137879,note_on,119,0,1,,,,,,,,0,,,79,0
137880,note_on,1,0,1,,,,,,,,0,,,77,92
137880,note_on,120,0,3,,,,,,,,2,,,57,0
137999,note_on,119,0,1,,,,,,,,0,,,77,0
137999,note_on,479,0,4,,,,,,,,3,,,52,0
138000,note_on,1,0,4,,,,,,,,3,,,55,76
138000,note_on,120,0,3,,,,,,,,2,,,59,103
138000,note_on,1,0,1,,,,,,,,0,,,76,89
138108,note_on,108,0,3,,,,,,,,2,,,59,0
138119,note_on,119,0,1,,,,,,,,0,,,76,0
138120,note_on,1,0,1,,,,,,,,0,,,74,85
138216,note_on,216,0,4,,,,,,,,3,,,55,0
138228,note_on,108,0,1,,,,,,,,0,,,74,0
138240,note_on,1728,0,2,,,,,,,,1,,,60,80
138240,note_on,24,0,4,,,,,,,,3,,,48,84
138240,note_on,12,0,1,,,,,,,,0,,,76,82
138240,note_on,132,0,3,,,,,,,,2,,,60,97
138280,set_tempo,2240,1,0,,,,,,441176,,,,,,
138359,note_on,119,0,1,,,,,,,,0,,,76,0
138360,note_on,1,0,1,,,,,,,,0,,,77,78
138360,note_on,120,0,2,,,,,,,,1,,,60,0
138456,note_on,216,0,3,,,,,,,,2,,,60,0
138479,note_on,119,0,1,,,,,,,,0,,,77,0
138480,note_on,120,0,2,,,,,,,,1,,,62,80
138480,note_on,1,0,1,,,,,,,,0,,,76,73
138599,note_on,119,0,1,,,,,,,,0,,,76,0
138600,note_on,1,0,1,,,,,,,,0,,,74,69
138600,note_on,120,0,2,,,,,,,,1,,,62,0
138719,note_on,119,0,1,,,,,,,,0,,,74,0
138720,note_on,120,0,2,,,,,,,,1,,,64,81
138720,note_on,1,0,1,,,,,,,,0,,,72,65
138839,note_on,119,0,1,,,,,,,,0,,,72,0
138840,note_on,120,0,2,,,,,,,,1,,,64,0
138840,note_on,1,0,1,,,,,,,,0,,,71,61
138959,note_on,119,0,1,,,,,,,,0,,,71,0
138960,note_on,1,0,1,,,,,,,,0,,,72,57
138960,note_on,120,0,2,,,,,,,,1,,,64,81
139011,control_change,771,0,4,,,,,,,,3,64,127,,
139079,note_on,68,0,4,,,,,,,,3,,,48,0
139080,note_on,120,0,2,,,,,,,,1,,,64,0
139080,note_on,1,0,4,,,,,,,,3,,,60,66
139199,note_on,239,0,1,,,,,,,,0,,,72,0
139199,note_on,119,0,4,,,,,,,,3,,,60,0
139200,note_on,1,0,4,,,,,,,,3,,,59,72
139200,note_on,1,0,1,,,,,,,,0,,,74,68
139200,note_on,120,0,2,,,,,,,,1,,,65,82
139319,note_on,119,0,4,,,,,,,,3,,,59,0
139320,note_on,1,0,4,,,,,,,,3,,,57,77
139320,note_on,120,0,2,,,,,,,,1,,,65,0
139439,note_on,239,0,1,,,,,,,,0,,,74,0
139439,note_on,119,0,4,,,,,,,,3,,,57,0
139440,note_on,1,0,1,,,,,,,,0,,,76,72
139440,note_on,120,0,2,,,,,,,,1,,,67,82
139440,note_on,1,0,4,,,,,,,,3,,,55,80
139559,note_on,119,0,4,,,,,,,,3,,,55,0
139560,note_on,120,0,2,,,,,,,,1,,,67,0
139560,note_on,1,0,4,,,,,,,,3,,,53,78
139679,note_on,239,0,1,,,,,,,,0,,,76,0
139679,note_on,119,0,4,,,,,,,,3,,,53,0
139680,note_on,1,0,1,,,,,,,,0,,,77,80
139680,note_on,120,0,2,,,,,,,,1,,,67,83
139680,note_on,1,0,4,,,,,,,,3,,,52,73
139799,note_on,119,0,4,,,,,,,,3,,,52,0
139800,note_on,120,0,2,,,,,,,,1,,,67,0
139800,note_on,1,0,4,,,,,,,,3,,,57,68
139919,note_on,119,0,4,,,,,,,,3,,,57,0
139920,note_on,1,0,4,,,,,,,,3,,,55,64
139920,note_on,120,0,2,,,,,,,,1,,,69,82
139971,control_change,51,0,4,,,,,,,,3,64,0,,
140039,note_on,68,0,4,,,,,,,,3,,,55,0
140040,note_on,120,0,2,,,,,,,,1,,,69,0
140040,note_on,1,0,4,,,,,,,,3,,,53,60
140159,note_on,119,0,4,,,,,,,,3,,,53,0
140160,note_on,1,0,4,,,,,,,,3,,,52,56
140160,note_on,120,0,2,,,,,,,,1,,,71,82
140268,note_on,108,0,2,,,,,,,,1,,,71,0
140279,note_on,119,0,4,,,,,,,,3,,,52,0
140280,note_on,1,0,4,,,,,,,,3,,,50,51
140388,note_on,108,0,4,,,,,,,,3,,,50,0
140400,note_on,12,0,4,,,,,,,,3,,,48,59
140400,note_on,132,0,2,,,,,,,,1,,,72,76
140519,note_on,119,0,2,,,,,,,,1,,,72,0
140520,note_on,1,0,2,,,,,,,,1,,,62,80
140520,set_tempo,2240,1,0,,,,,,438757,,,,,,
140639,note_on,959,0,1,,,,,,,,0,,,77,0
140639,note_on,119,0,2,,,,,,,,1,,,62,0
140640,set_tempo,120,1,0,,,,,,436364,,,,,,
140640,note_on,1,0,1,,,,,,,,0,,,74,73
140640,note_on,1,0,2,,,,,,,,1,,,64,82
140759,note_on,119,0,2,,,,,,,,1,,,64,0
140760,note_on,1,0,2,,,,,,,,1,,,65,86
140760,note_on,120,0,1,,,,,,,,0,,,74,0
140879,note_on,119,0,2,,,,,,,,1,,,65,0
140879,note_on,479,0,4,,,,,,,,3,,,48,0
140880,note_on,1,0,2,,,,,,,,1,,,67,88
140880,note_on,1,0,4,,,,,,,,3,,,60,70
140880,note_on,120,0,1,,,,,,,,0,,,76,78
140999,note_on,119,0,2,,,,,,,,1,,,67,0
141000,note_on,120,0,1,,,,,,,,0,,,76,0
141000,note_on,1,0,2,,,,,,,,1,,,68,91
141119,note_on,239,0,4,,,,,,,,3,,,60,0
141119,note_on,119,0,2,,,,,,,,1,,,68,0
141120,note_on,120,0,1,,,,,,,,0,,,76,82
141120,note_on,1,0,2,,,,,,,,1,,,73,94
141120,note_on,2664,0,3,,,,,,,,2,,,70,100
141120,note_on,1,0,4,,,,,,,,3,,,55,84
141240,note_on,120,0,1,,,,,,,,0,,,76,0
141359,note_on,239,0,2,,,,,,,,1,,,73,0
141359,note_on,239,0,3,,,,,,,,2,,,70,0
141360,note_on,1,0,3,,,,,,,,2,,,68,96
141360,note_on,120,0,1,,,,,,,,0,,,77,86
141360,note_on,1,0,2,,,,,,,,1,,,72,99
141480,note_on,120,0,1,,,,,,,,0,,,77,0
141599,note_on,479,0,4,,,,,,,,3,,,55,0
141599,note_on,239,0,3,,,,,,,,2,,,68,0
141599,note_on,239,0,2,,,,,,,,1,,,72,0
141600,note_on,1,0,4,,,,,,,,3,,,60,73
141600,note_on,120,0,1,,,,,,,,0,,,79,91
141600,note_on,1,0,2,,,,,,,,1,,,70,94
141600,note_on,1,0,3,,,,,,,,2,,,67,91
141720,note_on,120,0,1,,,,,,,,0,,,79,0
141839,note_on,239,0,2,,,,,,,,1,,,70,0
141839,note_on,239,0,4,,,,,,,,3,,,60,0
141839,note_on,239,0,3,,,,,,,,2,,,67,0
141840,note_on,120,0,1,,,,,,,,0,,,79,94
141840,note_on,1,0,3,,,,,,,,2,,,67,86
141840,note_on,1,0,4,,,,,,,,3,,,52,84
141840,note_on,1,0,2,,,,,,,,1,,,70,90
141960,note_on,120,0,1,,,,,,,,0,,,79,0
142079,note_on,239,0,2,,,,,,,,1,,,70,0
142079,note_on,239,0,3,,,,,,,,2,,,67,0
142080,note_on,120,0,1,,,,,,,,0,,,80,99
142080,note_on,1,0,2,,,,,,,,1,,,68,85
142080,note_on,1,0,3,,,,,,,,2,,,65,81
142200,note_on,120,0,1,,,,,,,,0,,,80,0
142319,note_on,239,0,2,,,,,,,,1,,,68,0
142319,note_on,239,0,3,,,,,,,,2,,,65,0
142319,note_on,479,0,4,,,,,,,,3,,,52,0
142320,note_on,1,0,3,,,,,,,,2,,,64,76
142320,note_on,120,0,1,,,,,,,,0,,,82,104
142320,note_on,1,0,2,,,,,,,,1,,,67,81
142320,note_on,1,0,4,,,,,,,,3,,,55,74
142536,note_on,216,0,2,,,,,,,,1,,,67,0
142536,note_on,216,0,3,,,,,,,,2,,,64,0
142536,note_on,216,0,4,,,,,,,,3,,,55,0
142560,note_on,24,0,4,,,,,,,,3,,,48,76
142560,note_on,24,0,3,,,,,,,,2,,,64,72
142560,note_on,24,0,2,,,,,,,,1,,,67,76
142572,control_change,12,0,4,,,,,,,,3,64,127,,
142679,note_on,359,0,1,,,,,,,,0,,,82,0
142680,note_on,1,0,1,,,,,,,,0,,,84,101
142799,note_on,119,0,1,,,,,,,,0,,,84,0
142799,note_on,239,0,3,,,,,,,,2,,,64,0
142800,note_on,1,0,3,,,,,,,,2,,,60,67
142800,note_on,1,0,1,,,,,,,,0,,,82,86
142919,note_on,119,0,3,,,,,,,,2,,,60,0
142919,note_on,119,0,1,,,,,,,,0,,,82,0
142920,note_on,1,0,1,,,,,,,,0,,,80,79
142920,note_on,1,0,3,,,,,,,,2,,,62,69
142992,note_on,432,0,2,,,,,,,,1,,,67,0
143039,note_on,119,0,3,,,,,,,,2,,,62,0
143039,note_on,119,0,1,,,,,,,,0,,,80,0
143040,note_on,1,0,3,,,,,,,,2,,,64,71
143040,note_on,1,0,1,,,,,,,,0,,,79,72
143159,note_on,119,0,1,,,,,,,,0,,,79,0
143159,note_on,119,0,3,,,,,,,,2,,,64,0
143160,note_on,1,0,1,,,,,,,,0,,,77,64
143160,note_on,1,0,3,,,,,,,,2,,,65,71
143279,note_on,119,0,1,,,,,,,,0,,,77,0
143279,note_on,119,0,3,,,,,,,,2,,,65,0
143279,note_on,707,0,4,,,,,,,,3,,,48,0
143280,note_on,1,0,1,,,,,,,,0,,,76,58
143280,note_on,1,0,3,,,,,,,,2,,,67,73
143280,note_on,1,0,4,,,,,,,,3,,,60,67
143519,note_on,239,0,1,,,,,,,,0,,,76,0
143519,note_on,239,0,3,,,,,,,,2,,,67,0
143520,note_on,1,0,3,,,,,,,,2,,,64,62
143520,note_on,1,0,1,,,,,,,,0,,,79,63
143532,control_change,252,0,4,,,,,,,,3,64,0,,
143639,note_on,119,0,3,,,,,,,,2,,,64,0
143640,note_on,1,0,3,,,,,,,,2,,,65,65
143759,note_on,119,0,3,,,,,,,,2,,,65,0
143759,note_on,239,0,1,,,,,,,,0,,,79,0
143760,note_on,1,0,3,,,,,,,,2,,,67,67
143760,note_on,1,0,1,,,,,,,,0,,,82,60
143879,note_on,119,0,3,,,,,,,,2,,,67,0
143880,note_on,1,0,3,,,,,,,,2,,,68,70
143999,note_on,239,0,1,,,,,,,,0,,,82,0
143999,note_on,467,0,4,,,,,,,,3,,,60,0
143999,note_on,119,0,3,,,,,,,,2,,,68,0
144000,note_on,1,0,4,,,,,,,,3,,,48,58
144000,note_on,1,0,1,,,,,,,,0,,,72,56
144000,note_on,1,0,3,,,,,,,,2,,,70,71
144119,note_on,119,0,1,,,,,,,,0,,,72,0
144120,note_on,1,0,1,,,,,,,,0,,,76,59
144239,note_on,119,0,1,,,,,,,,0,,,76,0
144239,note_on,239,0,3,,,,,,,,2,,,70,0
144240,note_on,1,0,3,,,,,,,,2,,,72,68
144240,note_on,1,0,1,,,,,,,,0,,,80,61
144359,note_on,119,0,3,,,,,,,,2,,,72,0
144359,note_on,119,0,1,,,,,,,,0,,,80,0
144360,note_on,1,0,3,,,,,,,,2,,,70,63
144360,note_on,1,0,1,,,,,,,,0,,,79,61
144432,note_on,432,0,4,,,,,,,,3,,,48,0
144479,note_on,119,0,1,,,,,,,,0,,,79,0
144479,note_on,119,0,3,,,,,,,,2,,,70,0
144480,note_on,1,0,3,,,,,,,,2,,,68,57
144480,note_on,1,0,1,,,,,,,,0,,,77,56
144599,note_on,119,0,1,,,,,,,,0,,,77,0
144599,note_on,119,0,3,,,,,,,,2,,,68,0
144600,note_on,1,0,3,,,,,,,,2,,,67,52
144600,note_on,1,0,1,,,,,,,,0,,,76,51
144708,note_on,108,0,1,,,,,,,,0,,,76,0
144708,note_on,108,0,3,,,,,,,,2,,,67,0
144720,note_on,1728,0,2,,,,,,,,1,,,68,59
144720,note_on,12,0,1,,,,,,,,0,,,77,59
144720,note_on,288,0,4,,,,,,,,3,,,53,74
144744,control_change,24,0,1,,,,,,,,0,64,127,,
144839,note_on,119,0,2,,,,,,,,1,,,68,0
144840,note_on,1,0,2,,,,,,,,1,,,60,76
144959,note_on,119,0,2,,,,,,,,1,,,60,0
144960,note_on,1,0,2,,,,,,,,1,,,62,80
145079,note_on,119,0,2,,,,,,,,1,,,62,0
145080,note_on,1,0,2,,,,,,,,1,,,64,84
145199,note_on,119,0,2,,,,,,,,1,,,64,0
145199,note_on,479,0,4,,,,,,,,3,,,53,0
145200,note_on,1,0,4,,,,,,,,3,,,60,79
145200,note_on,1,0,2,,,,,,,,1,,,65,87
145319,note_on,119,0,2,,,,,,,,1,,,65,0
145320,note_on,1,0,2,,,,,,,,1,,,67,92
145439,note_on,239,0,4,,,,,,,,3,,,60,0
145439,note_on,695,0,1,,,,,,,,0,,,77,0
145440,note_on,0,0,1,,,,,,,,0,,,68,76
145440,note_on,1,0,4,,,,,,,,3,,,53,92
145440,note_on,1,0,1,,,,,,,,0,,,72,76
145559,note_on,239,0,2,,,,,,,,1,,,67,0
145560,note_on,1,0,2,,,,,,,,1,,,70,91
145679,note_on,119,0,2,,,,,,,,1,,,70,0
145680,note_on,1,0,2,,,,,,,,1,,,68,86
145704,control_change,264,0,1,,,,,,,,0,64,0,,
145799,note_on,119,0,2,,,,,,,,1,,,68,0
145800,note_on,1,0,2,,,,,,,,1,,,67,81
145919,note_on,479,0,4,,,,,,,,3,,,53,0
145919,note_on,119,0,2,,,,,,,,1,,,67,0
145920,note_on,1,0,4,,,,,,,,3,,,56,81
145920,note_on,1,0,2,,,,,,,,1,,,65,76
146039,note_on,119,0,2,,,,,,,,1,,,65,0
146040,note_on,1,0,2,,,,,,,,1,,,64,71
146159,note_on,119,0,2,,,,,,,,1,,,64,0
146159,note_on,239,0,4,,,,,,,,3,,,56,0
146160,note_on,0,0,2,,,,,,,,1,,,68,66
146160,note_on,1,0,2,,,,,,,,1,,,65,66
146160,note_on,1,0,4,,,,,,,,3,,,50,92
146399,note_on,695,0,1,,,,,,,,0,,,68,0
146399,note_on,0,0,1,,,,,,,,0,,,72,0
146400,note_on,1,0,1,,,,,,,,0,,,77,73
146480,set_tempo,5840,1,0,,,,,,433996,,,,,,
146500,set_tempo,20,1,0,,,,,,433996,,,,,,
146519,note_on,119,0,1,,,,,,,,0,,,77,0
146520,note_on,1,0,1,,,,,,,,0,,,75,80
146639,note_on,119,0,1,,,,,,,,0,,,75,0
146639,note_on,479,0,4,,,,,,,,3,,,50,0
146640,note_on,1,0,1,,,,,,,,0,,,74,87
146640,note_on,1,0,4,,,,,,,,3,,,53,80
146759,note_on,119,0,1,,,,,,,,0,,,74,0
146760,note_on,1,0,1,,,,,,,,0,,,72,92
146856,note_on,216,0,4,,,,,,,,3,,,53,0
146868,note_on,108,0,1,,,,,,,,0,,,72,0
146880,note_on,24,0,4,,,,,,,,3,,,46,92
146880,note_on,12,0,1,,,,,,,,0,,,74,80
147119,note_on,959,0,2,,,,,,,,1,,,68,0
147119,note_on,0,0,2,,,,,,,,1,,,65,0
147120,note_on,1,0,2,,,,,,,,1,,,70,91
147239,note_on,119,0,2,,,,,,,,1,,,70,0
147240,note_on,1,0,2,,,,,,,,1,,,68,85
147359,note_on,119,0,2,,,,,,,,1,,,68,0
147359,note_on,479,0,4,,,,,,,,3,,,46,0
147360,note_on,1,0,4,,,,,,,,3,,,58,78
147360,note_on,1,0,2,,,,,,,,1,,,67,80
147479,note_on,119,0,2,,,,,,,,1,,,67,0
147480,note_on,1,0,2,,,,,,,,1,,,65,75
147599,note_on,239,0,4,,,,,,,,3,,,58,0
147599,note_on,119,0,2,,,,,,,,1,,,65,0
147600,note_on,1,0,4,,,,,,,,3,,,51,90
147600,note_on,1,0,2,,,,,,,,1,,,67,74
147840,note_on,3132,0,3,,,,,,,,2,,,63,100
147959,note_on,119,0,3,,,,,,,,2,,,63,0
147960,note_on,1,0,3,,,,,,,,2,,,62,92
148020,set_tempo,1520,1,0,,,,,,436364,,,,,,
148079,note_on,119,0,3,,,,,,,,2,,,62,0
148079,note_on,479,0,4,,,,,,,,3,,,51,0
148080,note_on,1,0,3,,,,,,,,2,,,60,86
148080,note_on,1,0,4,,,,,,,,3,,,55,76
148199,note_on,119,0,3,,,,,,,,2,,,60,0
148200,note_on,1,0,3,,,,,,,,2,,,59,80
148319,note_on,239,0,4,,,,,,,,3,,,55,0
148319,note_on,119,0,3,,,,,,,,2,,,59,0
148320,note_on,1,0,4,,,,,,,,3,,,48,87
148320,note_on,1,0,3,,,,,,,,2,,,63,74
148320,note_on,720,0,2,,,,,,,,1,,,63,73
148559,note_on,1679,0,1,,,,,,,,0,,,74,0
148560,note_on,1,0,1,,,,,,,,0,,,75,72
148679,note_on,119,0,1,,,,,,,,0,,,75,0
148680,note_on,1,0,1,,,,,,,,0,,,74,70
148799,note_on,479,0,4,,,,,,,,3,,,48,0
148799,note_on,119,0,1,,,,,,,,0,,,74,0
148800,note_on,1,0,1,,,,,,,,0,,,72,82
148800,note_on,1,0,4,,,,,,,,3,,,51,75
148919,note_on,119,0,1,,,,,,,,0,,,72,0
148920,note_on,1,0,1,,,,,,,,0,,,71,81
149016,note_on,216,0,4,,,,,,,,3,,,51,0
149028,note_on,108,0,1,,,,,,,,0,,,71,0
149040,note_on,24,0,4,,,,,,,,3,,,44,72
149040,note_on,12,0,1,,,,,,,,0,,,72,76
149279,note_on,959,0,2,,,,,,,,1,,,67,0
149280,note_on,1,0,2,,,,,,,,1,,,68,70
149399,note_on,119,0,2,,,,,,,,1,,,68,0
149400,note_on,1,0,2,,,,,,,,1,,,67,79
149519,note_on,119,0,2,,,,,,,,1,,,67,0
149519,note_on,479,0,4,,,,,,,,3,,,44,0
149520,note_on,1,0,4,,,,,,,,3,,,56,62
149520,note_on,1,0,2,,,,,,,,1,,,65,72
149540,set_tempo,1520,1,0,,,,,,438757,,,,,,
149639,note_on,119,0,2,,,,,,,,1,,,65,0
149640,note_on,1,0,2,,,,,,,,1,,,63,66
149759,note_on,239,0,4,,,,,,,,3,,,56,0
149759,note_on,119,0,2,,,,,,,,1,,,63,0
149760,note_on,1,0,4,,,,,,,,3,,,50,69
149760,note_on,1,0,2,,,,,,,,1,,,65,69
149999,note_on,1679,0,3,,,,,,,,2,,,63,0
150000,note_on,1,0,3,,,,,,,,2,,,62,79
150119,note_on,119,0,3,,,,,,,,2,,,62,0
150120,note_on,1,0,3,,,,,,,,2,,,60,73
150239,note_on,479,0,4,,,,,,,,3,,,50,0
150239,note_on,119,0,3,,,,,,,,2,,,60,0
150240,note_on,1,0,4,,,,,,,,3,,,53,58
150240,note_on,1,0,3,,,,,,,,2,,,59,67
150359,note_on,119,0,3,,,,,,,,2,,,59,0
150360,note_on,1,0,3,,,,,,,,2,,,57,68
150468,note_on,108,0,3,,,,,,,,2,,,57,0
150479,note_on,719,0,2,,,,,,,,1,,,63,0
150479,note_on,239,0,4,,,,,,,,3,,,53,0
150480,note_on,1,0,4,,,,,,,,3,,,47,67
150480,note_on,1,0,2,,,,,,,,1,,,62,67
150719,note_on,1679,0,1,,,,,,,,0,,,72,0
150720,note_on,1,0,1,,,,,,,,0,,,74,67
150839,note_on,119,0,1,,,,,,,,0,,,74,0
150840,note_on,1,0,1,,,,,,,,0,,,72,69
150959,note_on,479,0,4,,,,,,,,3,,,47,0
150959,note_on,119,0,1,,,,,,,,0,,,72,0
150960,note_on,1,0,1,,,,,,,,0,,,71,74
150960,note_on,1,0,4,,,,,,,,3,,,50,60
151060,set_tempo,1520,1,0,,,,,,441176,,,,,,
151079,note_on,119,0,1,,,,,,,,0,,,71,0
151080,note_on,1,0,1,,,,,,,,0,,,69,78
151176,note_on,216,0,4,,,,,,,,3,,,50,0
151188,note_on,108,0,1,,,,,,,,0,,,69,0
151200,note_on,12,0,1,,,,,,,,0,,,71,70
151200,note_on,24,0,4,,,,,,,,3,,,43,66
151416,note_on,936,0,2,,,,,,,,1,,,62,0
151439,note_on,23,0,2,,,,,,,,1,,,65,0
151440,note_on,1,0,2,,,,,,,,1,,,67,66
151559,note_on,119,0,2,,,,,,,,1,,,67,0
151560,note_on,1,0,2,,,,,,,,1,,,65,66
151679,note_on,479,0,4,,,,,,,,3,,,43,0
151679,note_on,119,0,2,,,,,,,,1,,,65,0
151680,note_on,1,0,2,,,,,,,,1,,,63,76
151680,note_on,1,0,4,,,,,,,,3,,,55,55
151799,note_on,119,0,2,,,,,,,,1,,,63,0
151800,note_on,1,0,2,,,,,,,,1,,,62,69
151919,note_on,239,0,4,,,,,,,,3,,,55,0
151919,note_on,119,0,2,,,,,,,,1,,,62,0
151919,note_on,719,0,1,,,,,,,,0,,,71,0
151920,note_on,1,0,1,,,,,,,,0,,,67,64
151920,note_on,1,0,4,,,,,,,,3,,,48,64
151920,note_on,1,0,2,,,,,,,,1,,,63,64
152160,note_on,1692,0,3,,,,,,,,2,,,60,75
152279,note_on,119,0,3,,,,,,,,2,,,60,0
152280,note_on,1,0,3,,,,,,,,2,,,58,70
152399,note_on,479,0,4,,,,,,,,3,,,48,0
152399,note_on,119,0,3,,,,,,,,2,,,58,0
152400,note_on,1,0,4,,,,,,,,3,,,51,51
152400,note_on,1,0,3,,,,,,,,2,,,56,66
152519,note_on,119,0,3,,,,,,,,2,,,56,0
152520,note_on,1,0,3,,,,,,,,2,,,55,61
152580,set_tempo,1520,1,0,,,,,,443623,,,,,,
152639,note_on,239,0,4,,,,,,,,3,,,51,0
152639,note_on,119,0,3,,,,,,,,2,,,55,0
152640,note_on,1,0,3,,,,,,,,2,,,60,63
152640,note_on,1,0,4,,,,,,,,3,,,44,63
152879,note_on,959,0,1,,,,,,,,0,,,67,0
152880,note_on,1,0,1,,,,,,,,0,,,72,72
152999,note_on,119,0,1,,,,,,,,0,,,72,0
153000,note_on,1,0,1,,,,,,,,0,,,70,70
153119,note_on,479,0,4,,,,,,,,3,,,44,0
153119,note_on,119,0,1,,,,,,,,0,,,70,0
153120,note_on,1,0,1,,,,,,,,0,,,68,66
153120,note_on,1,0,4,,,,,,,,3,,,48,48
153239,note_on,119,0,1,,,,,,,,0,,,68,0
153240,note_on,1,0,1,,,,,,,,0,,,67,64
153336,note_on,216,0,4,,,,,,,,3,,,48,0
153348,note_on,108,0,1,,,,,,,,0,,,67,0
153360,control_change,24,0,4,,,,,,,,3,64,127,,
153360,note_on,0,0,4,,,,,,,,3,,,41,76
153360,note_on,12,0,1,,,,,,,,0,,,68,78
153479,note_on,119,0,1,,,,,,,,0,,,68,0
153480,note_on,1,0,1,,,,,,,,0,,,72,79
153599,note_on,119,0,1,,,,,,,,0,,,72,0
153600,note_on,1,0,1,,,,,,,,0,,,74,80
153719,note_on,119,0,1,,,,,,,,0,,,74,0
153720,note_on,1,0,1,,,,,,,,0,,,76,81
153839,note_on,1919,0,2,,,,,,,,1,,,63,0
153839,note_on,1199,0,3,,,,,,,,2,,,60,0
153839,note_on,119,0,1,,,,,,,,0,,,76,0
153840,note_on,1,0,2,,,,,,,,1,,,61,91
153840,note_on,1,0,3,,,,,,,,2,,,58,76
153840,note_on,1,0,1,,,,,,,,0,,,77,84
153959,note_on,119,0,1,,,,,,,,0,,,77,0
153960,note_on,120,0,2,,,,,,,,1,,,61,0
153960,note_on,1,0,1,,,,,,,,0,,,79,85
154079,note_on,239,0,3,,,,,,,,2,,,58,0
154079,note_on,119,0,1,,,,,,,,0,,,79,0
154080,note_on,1,0,1,,,,,,,,0,,,80,86
154080,note_on,0,0,3,,,,,,,,2,,,53,76
154080,note_on,1,0,3,,,,,,,,2,,,56,76
154080,note_on,120,0,2,,,,,,,,1,,,60,92
154100,set_tempo,1520,1,0,,,,,,446097,,,,,,
154199,note_on,119,0,1,,,,,,,,0,,,80,0
154200,note_on,1,0,1,,,,,,,,0,,,82,88
154200,note_on,120,0,2,,,,,,,,1,,,60,0
154319,note_on,119,0,1,,,,,,,,0,,,82,0
154320,note_on,120,0,2,,,,,,,,1,,,58,84
154320,control_change,960,0,4,,,,,,,,3,64,0,,
154320,note_on,1,0,1,,,,,,,,0,,,80,90
154439,note_on,119,0,1,,,,,,,,0,,,80,0
154440,note_on,1,0,1,,,,,,,,0,,,79,91
154440,note_on,120,0,2,,,,,,,,1,,,58,0
154559,note_on,119,0,1,,,,,,,,0,,,79,0
154560,note_on,120,0,2,,,,,,,,1,,,60,76
154560,note_on,1,0,1,,,,,,,,0,,,77,92
154679,note_on,119,0,1,,,,,,,,0,,,77,0
154680,note_on,120,0,2,,,,,,,,1,,,60,0
154680,note_on,1,0,1,,,,,,,,0,,,76,88
154799,note_on,119,0,1,,,,,,,,0,,,76,0
154799,note_on,479,0,4,,,,,,,,3,,,41,0
154800,note_on,1,0,4,,,,,,,,3,,,41,76
154800,note_on,1,0,1,,,,,,,,0,,,77,84
154800,note_on,120,0,2,,,,,,,,1,,,61,85
154919,note_on,119,0,1,,,,,,,,0,,,77,0
154920,note_on,1,0,1,,,,,,,,0,,,79,80
154920,note_on,120,0,2,,,,,,,,1,,,61,0
155039,note_on,119,0,1,,,,,,,,0,,,79,0
155040,note_on,120,0,2,,,,,,,,1,,,63,93
155040,note_on,1,0,1,,,,,,,,0,,,77,76
155159,note_on,119,0,1,,,,,,,,0,,,77,0
155160,note_on,1,0,1,,,,,,,,0,,,75,72
155160,note_on,120,0,2,,,,,,,,1,,,63,0
155279,note_on,119,0,1,,,,,,,,0,,,75,0
155280,note_on,1,0,1,,,,,,,,0,,,73,68
155280,note_on,120,0,2,,,,,,,,1,,,65,100
155376,note_on,1296,0,3,,,,,,,,2,,,53,0
155388,note_on,108,0,2,,,,,,,,1,,,65,0
155399,note_on,119,0,1,,,,,,,,0,,,73,0
155400,note_on,1,0,1,,,,,,,,0,,,72,64
155448,note_on,648,0,4,,,,,,,,3,,,41,0
155508,note_on,108,0,1,,,,,,,,0,,,72,0
155520,note_on,0,0,4,,,,,,,,3,,,43,76
155520,note_on,72,0,4,,,,,,,,3,,,31,76
155520,note_on,12,0,1,,,,,,,,0,,,62,97
155520,note_on,0,0,1,,,,,,,,0,,,71,97
155520,note_on,0,0,1,,,,,,,,0,,,65,97
155568,control_change,48,0,1,,,,,,,,0,64,127,,
155580,set_tempo,1480,1,0,,,,,,448598,,,,,,
155580,control_change,60,0,4,,,,,,,,3,64,127,,
155600,set_tempo,20,1,0,,,,,,448598,,,,,,
155759,note_on,383,0,3,,,,,,,,2,,,56,0
155760,note_on,1,0,3,,,,,,,,2,,,43,75
155879,note_on,119,0,3,,,,,,,,2,,,43,0
155880,note_on,1,0,3,,,,,,,,2,,,45,79
155999,note_on,119,0,3,,,,,,,,2,,,45,0
156000,note_on,1,0,3,,,,,,,,2,,,47,81
156119,note_on,119,0,3,,,,,,,,2,,,47,0
156120,note_on,1,0,3,,,,,,,,2,,,48,85
156239,note_on,0,0,1,,,,,,,,0,,,65,0
156239,note_on,671,0,1,,,,,,,,0,,,71,0
156239,note_on,119,0,3,,,,,,,,2,,,48,0
156239,note_on,0,0,1,,,,,,,,0,,,62,0
156240,note_on,1,0,1,,,,,,,,0,,,59,97
156240,note_on,1,0,3,,,,,,,,2,,,50,88
156240,note_on,0,0,1,,,,,,,,0,,,67,97
156240,note_on,0,0,1,,,,,,,,0,,,62,97
156479,note_on,239,0,3,,,,,,,,2,,,50,0
156480,note_on,1,0,3,,,,,,,,2,,,47,81
156528,control_change,288,0,1,,,,,,,,0,64,0,,
156599,note_on,119,0,3,,,,,,,,2,,,47,0
156600,note_on,1,0,3,,,,,,,,2,,,48,85
156719,note_on,119,0,3,,,,,,,,2,,,48,0
156720,note_on,1,0,3,,,,,,,,2,,,50,90
156839,note_on,119,0,3,,,,,,,,2,,,50,0
156840,note_on,1,0,3,,,,,,,,2,,,51,93
156959,note_on,431,0,1,,,,,,,,0,,,67,0
156959,note_on,1379,0,4,,,,,,,,3,,,43,0
156959,note_on,0,0,1,,,,,,,,0,,,62,0
156959,note_on,0,0,1,,,,,,,,0,,,59,0
156959,note_on,0,0,4,,,,,,,,3,,,31,0
156959,note_on,119,0,3,,,,,,,,2,,,51,0
156960,note_on,1,0,3,,,,,,,,2,,,53,97
156960,note_on,1,0,1,,,,,,,,0,,,62,97
156960,note_on,1,0,4,,,,,,,,3,,,43,76
156960,note_on,0,0,1,,,,,,,,0,,,71,97
156960,note_on,0,0,1,,,,,,,,0,,,67,97
156972,control_change,12,0,1,,,,,,,,0,64,127,,
157199,note_on,239,0,3,,,,,,,,2,,,53,0
157200,note_on,1,0,3,,,,,,,,2,,,55,97
157319,note_on,119,0,3,,,,,,,,2,,,55,0
157320,note_on,1,0,3,,,,,,,,2,,,53,92
157392,note_on,0,0,1,,,,,,,,0,,,67,0
157392,note_on,0,0,1,,,,,,,,0,,,62,0
157392,note_on,420,0,1,,,,,,,,0,,,71,0
157439,note_on,119,0,3,,,,,,,,2,,,53,0
157440,note_on,1,0,3,,,,,,,,2,,,51,86
157559,note_on,119,0,3,,,,,,,,2,,,51,0
157560,note_on,1,0,3,,,,,,,,2,,,50,81
157608,note_on,648,0,4,,,,,,,,3,,,43,0
157668,note_on,108,0,3,,,,,,,,2,,,50,0
157680,note_on,12,0,3,,,,,,,,2,,,51,76
157680,note_on,288,0,1,,,,,,,,0,,,60,96
157680,note_on,0,0,1,,,,,,,,0,,,67,96
157680,note_on,72,0,4,,,,,,,,3,,,43,76
157680,note_on,0,0,1,,,,,,,,0,,,72,96
157919,note_on,239,0,3,,,,,,,,2,,,51,0
157920,note_on,1,0,3,,,,,,,,2,,,48,79
157932,control_change,252,0,1,,,,,,,,0,64,0,,
158039,note_on,119,0,3,,,,,,,,2,,,48,0
158040,note_on,1,0,3,,,,,,,,2,,,50,82
158159,note_on,119,0,3,,,,,,,,2,,,50,0
158160,note_on,1,0,3,,,,,,,,2,,,51,86
158279,note_on,119,0,3,,,,,,,,2,,,51,0
158280,note_on,1,0,3,,,,,,,,2,,,53,90
158366,control_change,2978,0,2,,,,,,,,1,64,127,,
158399,note_on,0,0,1,,,,,,,,0,,,60,0
158399,note_on,0,0,1,,,,,,,,0,,,67,0
158399,note_on,119,0,3,,,,,,,,2,,,53,0
158399,note_on,467,0,1,,,,,,,,0,,,72,0
158400,note_on,0,0,2,,,,,,,,1,,,67,97
158400,note_on,34,0,2,,,,,,,,1,,,63,97
158400,control_change,1,0,1,,,,,,,,0,64,127,,
158400,note_on,0,0,1,,,,,,,,0,,,72,96
158400,note_on,1,0,3,,,,,,,,2,,,55,93
158639,note_on,239,0,3,,,,,,,,2,,,55,0
158640,note_on,1,0,3,,,,,,,,2,,,51,73
158759,note_on,119,0,3,,,,,,,,2,,,51,0
158760,note_on,1,0,3,,,,,,,,2,,,53,79
158879,note_on,119,0,3,,,,,,,,2,,,53,0
158880,note_on,1,0,3,,,,,,,,2,,,55,84
158999,note_on,119,0,3,,,,,,,,2,,,55,0
159000,note_on,1,0,3,,,,,,,,2,,,57,88
159119,note_on,0,0,2,,,,,,,,1,,,63,0
159119,note_on,119,0,3,,,,,,,,2,,,57,0
159119,note_on,719,0,2,,,,,,,,1,,,67,0
159120,note_on,1,0,2,,,,,,,,1,,,63,98
159120,note_on,1,0,3,,,,,,,,2,,,58,93
159120,note_on,0,0,2,,,,,,,,1,,,67,98
159326,control_change,206,0,2,,,,,,,,1,64,0,,
159359,note_on,239,0,3,,,,,,,,2,,,58,0
159360,control_change,960,0,1,,,,,,,,0,64,0,,
159360,note_on,1,0,3,,,,,,,,2,,,60,93
159479,note_on,119,0,3,,,,,,,,2,,,60,0
159480,note_on,1,0,3,,,,,,,,2,,,58,91
159552,note_on,0,0,2,,,,,,,,1,,,63,0
159552,note_on,226,0,2,,,,,,,,1,,,67,0
159599,note_on,119,0,3,,,,,,,,2,,,58,0
159600,note_on,1,0,3,,,,,,,,2,,,57,87
159719,note_on,119,0,3,,,,,,,,2,,,57,0
159720,note_on,1,0,3,,,,,,,,2,,,55,84
159768,note_on,2088,0,4,,,,,,,,3,,,43,0
159828,note_on,108,0,3,,,,,,,,2,,,55,0
159840,note_on,72,0,4,,,,,,,,3,,,43,76
159840,control_change,288,0,2,,,,,,,,1,64,127,,
159840,note_on,12,0,3,,,,,,,,2,,,54,80
159840,note_on,0,0,2,,,,,,,,1,,,69,98
159840,note_on,0,0,2,,,,,,,,1,,,63,98
159852,control_change,12,0,3,,,,,,,,2,64,127,,
159880,set_tempo,4280,1,0,,,,,,461538,,,,,,
159900,set_tempo,20,1,0,,,,,,461538,,,,,,
160079,note_on,719,0,1,,,,,,,,0,,,72,0
160079,note_on,239,0,2,,,,,,,,1,,,69,0
160079,note_on,0,0,2,,,,,,,,1,,,63,0
160080,note_on,1,0,2,,,,,,,,1,,,62,96
160080,note_on,1,0,1,,,,,,,,0,,,62,75
160199,note_on,119,0,1,,,,,,,,0,,,62,0
160200,note_on,1,0,1,,,,,,,,0,,,64,81
160272,note_on,192,0,2,,,,,,,,1,,,62,0
160319,note_on,119,0,1,,,,,,,,0,,,64,0
160320,note_on,1,0,1,,,,,,,,0,,,66,88
160340,set_tempo,440,1,0,,,,,,464217,,,,,,
160439,note_on,119,0,1,,,,,,,,0,,,66,0
160440,note_on,1,0,1,,,,,,,,0,,,67,94
160559,note_on,119,0,1,,,,,,,,0,,,67,0
160559,note_on,707,0,3,,,,,,,,2,,,54,0
160560,note_on,1,0,1,,,,,,,,0,,,69,100
160560,note_on,1,0,3,,,,,,,,2,,,63,84
160560,note_on,0,0,3,,,,,,,,2,,,60,84
160780,set_tempo,440,1,0,,,,,,466926,,,,,,
160799,note_on,239,0,1,,,,,,,,0,,,69,0
160800,control_change,528,0,2,,,,,,,,1,64,0,,
160800,note_on,1,0,1,,,,,,,,0,,,66,79
160919,note_on,119,0,1,,,,,,,,0,,,66,0
160920,note_on,1,0,1,,,,,,,,0,,,67,84
161039,note_on,119,0,1,,,,,,,,0,,,67,0
161040,note_on,1,0,1,,,,,,,,0,,,69,87
161159,note_on,119,0,1,,,,,,,,0,,,69,0
161160,note_on,1,0,1,,,,,,,,0,,,71,91
161220,set_tempo,440,1,0,,,,,,469667,,,,,,
161279,note_on,719,0,3,,,,,,,,2,,,60,0
161279,note_on,119,0,1,,,,,,,,0,,,71,0
161279,note_on,0,0,3,,,,,,,,2,,,63,0
161280,note_on,1,0,3,,,,,,,,2,,,63,84
161280,note_on,0,0,3,,,,,,,,2,,,57,84
161280,note_on,1,0,1,,,,,,,,0,,,72,96
161280,note_on,0,0,3,,,,,,,,2,,,54,84
161519,note_on,239,0,1,,,,,,,,0,,,72,0
161520,note_on,1,0,1,,,,,,,,0,,,74,98
161620,set_tempo,400,1,0,,,,,,472441,,,,,,
161639,note_on,119,0,1,,,,,,,,0,,,74,0
161640,note_on,1,0,1,,,,,,,,0,,,72,96
161712,note_on,0,0,3,,,,,,,,2,,,63,0
161712,note_on,432,0,3,,,,,,,,2,,,54,0
161712,note_on,0,0,3,,,,,,,,2,,,57,0
161759,note_on,119,0,1,,,,,,,,0,,,72,0
161760,note_on,1,0,1,,,,,,,,0,,,71,92
161868,control_change,156,0,3,,,,,,,,2,64,0,,
161879,note_on,119,0,1,,,,,,,,0,,,71,0
161880,note_on,1,0,1,,,,,,,,0,,,69,90
161928,note_on,2088,0,4,,,,,,,,3,,,43,0
161988,note_on,108,0,1,,,,,,,,0,,,69,0
162000,note_on,0,0,3,,,,,,,,2,,,62,84
162000,note_on,0,0,3,,,,,,,,2,,,55,84
162000,note_on,72,0,4,,,,,,,,3,,,43,76
162000,note_on,12,0,1,,,,,,,,0,,,71,86
162000,control_change,132,0,3,,,,,,,,2,64,127,,
162060,set_tempo,440,1,0,,,,,,475248,,,,,,
162239,note_on,239,0,1,,,,,,,,0,,,71,0
162240,note_on,1,0,1,,,,,,,,0,,,67,88
162359,note_on,119,0,1,,,,,,,,0,,,67,0
162360,note_on,1,0,1,,,,,,,,0,,,69,92
162479,note_on,119,0,1,,,,,,,,0,,,69,0
162480,note_on,1,0,1,,,,,,,,0,,,71,94
162500,set_tempo,440,1,0,,,,,,478088,,,,,,
162599,note_on,119,0,1,,,,,,,,0,,,71,0
162600,note_on,1,0,1,,,,,,,,0,,,72,97
162719,note_on,119,0,1,,,,,,,,0,,,72,0
162719,note_on,719,0,3,,,,,,,,2,,,55,0
162719,note_on,0,0,3,,,,,,,,2,,,62,0
162720,note_on,1,0,1,,,,,,,,0,,,74,99
162720,note_on,0,0,3,,,,,,,,2,,,59,84
162720,note_on,0,0,3,,,,,,,,2,,,62,84
162720,note_on,1,0,3,,,,,,,,2,,,67,84
162900,set_tempo,400,1,0,,,,,,480962,,,,,,
162959,note_on,239,0,1,,,,,,,,0,,,74,0
162960,note_on,1,0,1,,,,,,,,0,,,71,78
163079,note_on,119,0,1,,,,,,,,0,,,71,0
163080,note_on,1,0,1,,,,,,,,0,,,72,81
163199,note_on,119,0,1,,,,,,,,0,,,72,0
163200,note_on,1,0,1,,,,,,,,0,,,74,86
163319,note_on,119,0,1,,,,,,,,0,,,74,0
163320,note_on,1,0,1,,,,,,,,0,,,75,90
163340,set_tempo,440,1,0,,,,,,483871,,,,,,
163356,control_change,1356,0,4,,,,,,,,3,64,0,,
163439,note_on,0,0,3,,,,,,,,2,,,62,0
163439,note_on,119,0,1,,,,,,,,0,,,75,0
163439,note_on,719,0,3,,,,,,,,2,,,59,0
163439,note_on,0,0,3,,,,,,,,2,,,67,0
163440,note_on,0,0,3,,,,,,,,2,,,55,84
163440,note_on,1,0,1,,,,,,,,0,,,77,94
163440,note_on,0,0,3,,,,,,,,2,,,62,84
163440,note_on,0,0,3,,,,,,,,2,,,67,84
163440,note_on,1,0,3,,,,,,,,2,,,71,84
163679,note_on,239,0,1,,,,,,,,0,,,77,0
163680,note_on,1,0,1,,,,,,,,0,,,79,76
163780,set_tempo,440,1,0,,,,,,486815,,,,,,
163799,note_on,119,0,1,,,,,,,,0,,,79,0
163800,note_on,1,0,1,,,,,,,,0,,,77,102
163824,note_on,468,0,4,,,,,,,,3,,,43,0
163872,note_on,0,0,3,,,,,,,,2,,,67,0
163872,note_on,0,0,3,,,,,,,,2,,,71,0
163872,note_on,432,0,3,,,,,,,,2,,,55,0
163872,note_on,0,0,3,,,,,,,,2,,,62,0
163919,note_on,119,0,1,,,,,,,,0,,,77,0
163920,note_on,1,0,1,,,,,,,,0,,,76,97
164039,note_on,119,0,1,,,,,,,,0,,,76,0
164040,note_on,1,0,1,,,,,,,,0,,,74,91
164040,control_change,168,0,3,,,,,,,,2,64,0,,
164148,note_on,108,0,1,,,,,,,,0,,,74,0
164160,note_on,0,0,3,,,,,,,,2,,,60,100
164160,note_on,0,0,1,,,,,,,,0,,,64,112
164160,note_on,0,0,4,,,,,,,,3,,,46,100
164160,note_on,0,0,3,,,,,,,,2,,,52,100
164160,note_on,0,0,1,,,,,,,,0,,,67,112
164160,control_change,120,0,3,,,,,,,,2,64,127,,
164160,note_on,0,0,1,,,,,,,,0,,,72,112
164160,control_change,336,0,4,,,,,,,,3,64,127,,
164160,note_on,12,0,1,,,,,,,,0,,,76,112
164160,note_on,0,0,3,,,,,,,,2,,,55,100
164180,set_tempo,400,1,0,,,,,,489796,,,,,,
164240,set_tempo,60,1,0,,,,,,495868,,,,,,
164261,control_change,101,0,1,,,,,,,,0,64,127,,
164879,note_on,719,0,3,,,,,,,,2,,,52,0
164879,note_on,0,0,1,,,,,,,,0,,,72,0
164879,note_on,0,0,1,,,,,,,,0,,,67,0
164879,note_on,0,0,3,,,,,,,,2,,,60,0
164879,note_on,0,0,1,,,,,,,,0,,,76,0
164879,note_on,719,0,4,,,,,,,,3,,,46,0
164879,note_on,618,0,1,,,,,,,,0,,,64,0
164879,note_on,0,0,3,,,,,,,,2,,,55,0
164880,note_on,0,0,1,,,,,,,,0,,,72,100
164880,note_on,0,0,3,,,,,,,,2,,,53,100
164880,note_on,1,0,1,,,,,,,,0,,,77,100
164880,note_on,0,0,1,,,,,,,,0,,,65,100
164880,note_on,1,0,3,,,,,,,,2,,,60,100
164880,note_on,1,0,4,,,,,,,,3,,,45,100
165120,control_change,240,0,3,,,,,,,,2,64,0,,
165120,control_change,240,0,4,,,,,,,,3,64,0,,
165221,control_change,341,0,1,,,,,,,,0,64,0,,
165312,note_on,0,0,3,,,,,,,,2,,,60,0
165312,note_on,0,0,1,,,,,,,,0,,,72,0
165312,note_on,0,0,1,,,,,,,,0,,,77,0
165312,note_on,192,0,4,,,,,,,,3,,,45,0
165312,note_on,192,0,3,,,,,,,,2,,,53,0
165312,note_on,91,0,1,,,,,,,,0,,,65,0
166320,control_change,1008,0,3,,,,,,,,2,64,127,,
166320,note_on,0,0,3,,,,,,,,2,,,53,100
166320,note_on,0,0,3,,,,,,,,2,,,50,100
166320,control_change,1008,0,1,,,,,,,,0,64,127,,
166320,note_on,0,0,3,,,,,,,,2,,,58,100
166320,note_on,0,0,1,,,,,,,,0,,,74,100
166320,note_on,0,0,1,,,,,,,,0,,,65,100
166320,note_on,1008,0,4,,,,,,,,3,,,44,100
166320,note_on,0,0,1,,,,,,,,0,,,70,100
166320,note_on,0,0,1,,,,,,,,0,,,62,100
166354,control_change,34,0,4,,,,,,,,3,64,127,,
167039,note_on,0,0,1,,,,,,,,0,,,70,0
167039,note_on,685,0,4,,,,,,,,3,,,44,0
167039,note_on,0,0,1,,,,,,,,0,,,65,0
167039,note_on,0,0,1,,,,,,,,0,,,62,0
167039,note_on,0,0,3,,,,,,,,2,,,58,0
167039,note_on,0,0,3,,,,,,,,2,,,53,0
167039,note_on,719,0,3,,,,,,,,2,,,50,0
167039,note_on,719,0,1,,,,,,,,0,,,74,0
167040,note_on,0,0,1,,,,,,,,0,,,70,100
167040,note_on,0,0,1,,,,,,,,0,,,67,100
167040,note_on,0,0,1,,,,,,,,0,,,75,100
167040,note_on,1,0,3,,,,,,,,2,,,58,100
167040,note_on,1,0,4,,,,,,,,3,,,43,100
167040,note_on,1,0,1,,,,,,,,0,,,63,100
167040,note_on,0,0,3,,,,,,,,2,,,51,100
167280,control_change,240,0,3,,,,,,,,2,64,0,,
167280,control_change,240,0,1,,,,,,,,0,64,0,,
167314,control_change,274,0,4,,,,,,,,3,64,0,,
167472,note_on,0,0,1,,,,,,,,0,,,70,0
167472,note_on,192,0,1,,,,,,,,0,,,75,0
167472,note_on,192,0,3,,,,,,,,2,,,51,0
167472,note_on,158,0,4,,,,,,,,3,,,43,0
167472,note_on,0,0,1,,,,,,,,0,,,63,0
167472,note_on,0,0,1,,,,,,,,0,,,67,0
167472,note_on,0,0,3,,,,,,,,2,,,58,0
168460,set_tempo,4220,1,0,,,,,,535714,,,,,,
168480,control_change,1008,0,4,,,,,,,,3,64,127,,
168480,note_on,0,0,1,,,,,,,,0,,,72,102
168480,note_on,0,0,1,,,,,,,,0,,,63,102
168480,note_on,0,0,1,,,,,,,,0,,,60,102
168480,note_on,0,0,4,,,,,,,,3,,,44,100
168480,note_on,0,0,1,,,,,,,,0,,,68,102
168480,control_change,1008,0,1,,,,,,,,0,64,127,,
168480,note_on,1008,0,3,,,,,,,,2,,,56,100
168480,note_on,0,0,3,,,,,,,,2,,,51,100
168547,control_change,67,0,3,,,,,,,,2,64,127,,
168900,set_tempo,440,1,0,,,,,,539326,,,,,,
169199,note_on,0,0,3,,,,,,,,2,,,56,0
169199,note_on,0,0,1,,,,,,,,0,,,68,0
169199,note_on,0,0,1,,,,,,,,0,,,63,0
169199,note_on,0,0,1,,,,,,,,0,,,60,0
169199,note_on,652,0,3,,,,,,,,2,,,51,0
169199,note_on,719,0,1,,,,,,,,0,,,72,0
169199,note_on,719,0,4,,,,,,,,3,,,44,0
169200,note_on,1,0,1,,,,,,,,0,,,62,91
169200,note_on,0,0,3,,,,,,,,2,,,50,100
169200,note_on,1,0,4,,,,,,,,3,,,41,100
169200,note_on,0,0,1,,,,,,,,0,,,74,91
169200,note_on,0,0,1,,,,,,,,0,,,65,91
169200,note_on,0,0,1,,,,,,,,0,,,68,91
169200,note_on,1,0,3,,,,,,,,2,,,56,100
169340,set_tempo,440,1,0,,,,,,542986,,,,,,
169780,set_tempo,440,1,0,,,,,,546697,,,,,,
169919,note_on,719,0,1,,,,,,,,0,,,74,0
169919,note_on,0,0,1,,,,,,,,0,,,65,0
169919,note_on,0,0,3,,,,,,,,2,,,56,0
169919,note_on,0,0,1,,,,,,,,0,,,62,0
169919,note_on,719,0,3,,,,,,,,2,,,50,0
169919,note_on,0,0,1,,,,,,,,0,,,68,0
169919,note_on,719,0,4,,,,,,,,3,,,41,0
169920,note_on,0,0,1,,,,,,,,0,,,67,81
169920,note_on,1,0,3,,,,,,,,2,,,55,100
169920,note_on,0,0,1,,,,,,,,0,,,65,81
169920,note_on,1,0,4,,,,,,,,3,,,43,100
169920,note_on,1,0,1,,,,,,,,0,,,59,81
169920,note_on,0,0,1,,,,,,,,0,,,62,81
169920,note_on,0,0,1,,,,,,,,0,,,71,81
169920,note_on,0,0,3,,,,,,,,2,,,50,100
169996,control_change,76,0,4,,,,,,,,3,64,0,,
169996,control_change,76,0,3,,,,,,,,2,64,0,,
170063,control_change,143,0,1,,,,,,,,0,64,0,,
170220,set_tempo,440,1,0,,,,,,550459,,,,,,
170352,note_on,0,0,1,,,,,,,,0,,,67,0
170352,note_on,0,0,3,,,,,,,,2,,,55,0
170352,note_on,356,0,4,,,,,,,,3,,,43,0
170352,note_on,356,0,3,,,,,,,,2,,,50,0
170352,note_on,0,0,1,,,,,,,,0,,,62,0
170352,note_on,289,0,1,,,,,,,,0,,,71,0
170352,note_on,0,0,1,,,,,,,,0,,,65,0
170352,note_on,0,0,1,,,,,,,,0,,,59,0
170620,set_tempo,400,1,0,,,,,,554273,,,,,,
170640,note_on,0,0,2,,,,,,,,1,,,70,110
170640,note_on,288,0,4,,,,,,,,3,,,36,76
170640,control_change,9840,0,2,,,,,,,,1,64,127,,
170640,note_on,0,0,2,,,,,,,,1,,,67,110
170640,note_on,288,0,3,,,,,,,,2,,,48,87
170640,note_on,0,0,2,,,,,,,,1,,,60,110
170640,note_on,0,0,2,,,,,,,,1,,,64,110
170640,note_on,0,0,2,,,,,,,,1,,,72,110
170680,set_tempo,60,1,0,,,,,,539326,,,,,,
170720,set_tempo,40,1,0,,,,,,554273,,,,,,
170736,control_change,96,0,4,,,,,,,,3,64,127,,
170760,note_on,120,0,3,,,,,,,,2,,,48,0
170880,note_on,120,0,3,,,,,,,,2,,,50,90
170920,set_tempo,200,1,0,,,,,,546697,,,,,,
171000,note_on,120,0,3,,,,,,,,2,,,50,0
171072,note_on,432,0,2,,,,,,,,1,,,72,0
171072,note_on,0,0,2,,,,,,,,1,,,70,0
171072,note_on,0,0,2,,,,,,,,1,,,64,0
171072,note_on,0,0,2,,,,,,,,1,,,67,0
171072,note_on,0,0,2,,,,,,,,1,,,60,0
171080,set_tempo,160,1,0,,,,,,542986,,,,,,
171120,note_on,120,0,3,,,,,,,,2,,,52,74
171120,note_on,768,0,1,,,,,,,,0,,,84,66
171200,set_tempo,120,1,0,,,,,,539326,,,,,,
171240,note_on,120,0,3,,,,,,,,2,,,52,0
171320,set_tempo,120,1,0,,,,,,535714,,,,,,
171359,note_on,239,0,1,,,,,,,,0,,,84,0
171360,note_on,120,0,3,,,,,,,,2,,,52,76
171360,note_on,1,0,1,,,,,,,,0,,,79,74
171440,set_tempo,120,1,0,,,,,,532151,,,,,,
171480,note_on,120,0,3,,,,,,,,2,,,52,0
171560,set_tempo,120,1,0,,,,,,528634,,,,,,
171600,control_change,528,0,2,,,,,,,,1,64,0,,
171600,note_on,120,0,3,,,,,,,,2,,,53,78
171680,set_tempo,120,1,0,,,,,,525164,,,,,,
171696,control_change,960,0,4,,,,,,,,3,64,0,,
171720,note_on,120,0,3,,,,,,,,2,,,53,0
171800,set_tempo,120,1,0,,,,,,521739,,,,,,
171839,note_on,479,0,1,,,,,,,,0,,,79,0
171840,note_on,120,0,3,,,,,,,,2,,,55,80
171840,note_on,1,0,1,,,,,,,,0,,,84,62
171920,set_tempo,120,1,0,,,,,,518359,,,,,,
171960,note_on,120,0,3,,,,,,,,2,,,55,0
172040,set_tempo,120,1,0,,,,,,515021,,,,,,
172079,note_on,239,0,1,,,,,,,,0,,,84,0
172079,note_on,383,0,4,,,,,,,,3,,,36,0
172080,note_on,120,0,3,,,,,,,,2,,,55,81
172080,note_on,1,0,4,,,,,,,,3,,,48,61
172080,note_on,1,0,1,,,,,,,,0,,,76,67
172160,set_tempo,120,1,0,,,,,,511727,,,,,,
172176,control_change,96,0,4,,,,,,,,3,64,127,,
172200,note_on,120,0,3,,,,,,,,2,,,55,0
172280,set_tempo,120,1,0,,,,,,508475,,,,,,
172320,note_on,120,0,3,,,,,,,,2,,,57,85
172400,set_tempo,120,1,0,,,,,,505263,,,,,,
172440,note_on,120,0,3,,,,,,,,2,,,57,0
172520,set_tempo,120,1,0,,,,,,502092,,,,,,
172559,note_on,479,0,1,,,,,,,,0,,,76,0
172560,note_on,1,0,1,,,,,,,,0,,,79,55
172560,note_on,120,0,3,,,,,,,,2,,,58,86
172640,set_tempo,120,1,0,,,,,,498960,,,,,,
172668,note_on,108,0,3,,,,,,,,2,,,58,0
172728,note_on,552,0,4,,,,,,,,3,,,48,0
172760,set_tempo,120,1,0,,,,,,495868,,,,,,
172776,note_on,216,0,1,,,,,,,,0,,,79,0
172800,note_on,132,0,3,,,,,,,,2,,,57,81
172800,control_change,24,0,1,,,,,,,,0,64,127,,
172800,note_on,0,0,1,,,,,,,,0,,,72,82
172800,note_on,72,0,4,,,,,,,,3,,,48,76
172800,note_on,1200,0,2,,,,,,,,1,,,72,79
172880,set_tempo,120,1,0,,,,,,492813,,,,,,
172920,note_on,120,0,2,,,,,,,,1,,,72,0
172920,set_tempo,40,1,0,,,,,,498960,,,,,,
173040,note_on,120,0,2,,,,,,,,1,,,70,100
173160,note_on,120,0,2,,,,,,,,1,,,70,0
173160,set_tempo,240,1,0,,,,,,495868,,,,,,
173279,note_on,479,0,3,,,,,,,,2,,,57,0
173280,note_on,120,0,2,,,,,,,,1,,,69,96
173280,note_on,1,0,3,,,,,,,,2,,,60,88
173360,set_tempo,200,1,0,,,,,,492813,,,,,,
173400,note_on,120,0,2,,,,,,,,1,,,69,0
173519,note_on,239,0,3,,,,,,,,2,,,60,0
173520,note_on,1,0,3,,,,,,,,2,,,53,87
173520,note_on,120,0,2,,,,,,,,1,,,69,91
173600,set_tempo,240,1,0,,,,,,489796,,,,,,
173640,note_on,120,0,2,,,,,,,,1,,,69,0
173760,control_change,960,0,1,,,,,,,,0,64,0,,
173760,note_on,120,0,2,,,,,,,,1,,,67,86
173800,set_tempo,200,1,0,,,,,,486815,,,,,,
173880,note_on,120,0,2,,,,,,,,1,,,67,0
173999,note_on,479,0,3,,,,,,,,2,,,53,0
174000,note_on,1,0,3,,,,,,,,2,,,57,84
174000,note_on,120,0,2,,,,,,,,1,,,65,81
174040,set_tempo,240,1,0,,,,,,483871,,,,,,
174096,note_on,336,0,1,,,,,,,,0,,,72,0
174120,note_on,120,0,2,,,,,,,,1,,,65,0
174239,note_on,239,0,3,,,,,,,,2,,,57,0
174239,note_on,1439,0,4,,,,,,,,3,,,48,0
174240,set_tempo,200,1,0,,,,,,480962,,,,,,
174240,note_on,120,0,2,,,,,,,,1,,,65,76
174240,note_on,1,0,3,,,,,,,,2,,,50,81
174240,note_on,1,0,4,,,,,,,,3,,,48,67
174360,note_on,120,0,2,,,,,,,,1,,,65,0
174440,set_tempo,200,1,0,,,,,,478088,,,,,,
174480,note_on,120,0,2,,,,,,,,1,,,64,72
174600,note_on,120,0,2,,,,,,,,1,,,64,0
174680,set_tempo,240,1,0,,,,,,475248,,,,,,
174696,control_change,456,0,4,,,,,,,,3,64,0,,
174719,note_on,479,0,3,,,,,,,,2,,,50,0
174720,note_on,120,0,2,,,,,,,,1,,,62,68
174720,note_on,1,0,3,,,,,,,,2,,,53,78
174828,note_on,108,0,2,,,,,,,,1,,,62,0
174880,set_tempo,200,1,0,,,,,,472441,,,,,,
174888,note_on,192,0,4,,,,,,,,3,,,48,0
174960,note_on,864,0,1,,,,,,,,0,,,67,66
174960,note_on,132,0,2,,,,,,,,1,,,59,70
174960,note_on,0,0,4,,,,,,,,3,,,36,63
174960,control_change,72,0,4,,,,,,,,3,64,127,,
174960,note_on,0,0,2,,,,,,,,1,,,62,70
175080,note_on,120,0,1,,,,,,,,0,,,67,0
175120,set_tempo,240,1,0,,,,,,469667,,,,,,
175200,note_on,120,0,1,,,,,,,,0,,,69,66
175320,note_on,120,0,1,,,,,,,,0,,,69,0
175320,set_tempo,200,1,0,,,,,,466926,,,,,,
175439,note_on,0,0,2,,,,,,,,1,,,59,0
175439,note_on,479,0,2,,,,,,,,1,,,62,0
175440,note_on,120,0,1,,,,,,,,0,,,71,85
175440,note_on,1,0,2,,,,,,,,1,,,67,80
175560,set_tempo,240,1,0,,,,,,464217,,,,,,
175560,note_on,120,0,1,,,,,,,,0,,,71,0
175679,note_on,239,0,2,,,,,,,,1,,,67,0
175680,note_on,1,0,2,,,,,,,,1,,,62,98
175680,note_on,120,0,1,,,,,,,,0,,,71,88
175760,set_tempo,200,1,0,,,,,,461538,,,,,,
175800,note_on,120,0,1,,,,,,,,0,,,71,0
175920,control_change,960,0,4,,,,,,,,3,64,0,,
175920,note_on,120,0,1,,,,,,,,0,,,72,92
175960,set_tempo,200,1,0,,,,,,458891,,,,,,
176040,note_on,120,0,1,,,,,,,,0,,,72,0
176159,note_on,479,0,2,,,,,,,,1,,,62,0
176160,note_on,120,0,1,,,,,,,,0,,,74,94
176160,note_on,1,0,2,,,,,,,,1,,,65,84
176200,set_tempo,240,1,0,,,,,,456274,,,,,,
176280,note_on,120,0,1,,,,,,,,0,,,74,0
176399,note_on,1679,0,3,,,,,,,,2,,,53,0
176399,note_on,239,0,2,,,,,,,,1,,,65,0
176399,note_on,479,0,4,,,,,,,,3,,,36,0
176400,note_on,120,0,1,,,,,,,,0,,,74,98
176400,note_on,1,0,3,,,,,,,,2,,,59,84
176400,note_on,1,0,4,,,,,,,,3,,,53,76
176400,set_tempo,200,1,0,,,,,,453686,,,,,,
176400,note_on,0,0,4,,,,,,,,3,,,48,76
176400,note_on,1,0,2,,,,,,,,1,,,59,100
176520,note_on,120,0,1,,,,,,,,0,,,74,0
176640,note_on,120,0,1,,,,,,,,0,,,76,94
176640,set_tempo,240,1,0,,,,,,451128,,,,,,
176760,note_on,120,0,1,,,,,,,,0,,,76,0
176840,set_tempo,200,1,0,,,,,,448598,,,,,,
176879,note_on,479,0,3,,,,,,,,2,,,59,0
176879,note_on,479,0,2,,,,,,,,1,,,59,0
176880,note_on,120,0,1,,,,,,,,0,,,77,88
176880,note_on,1,0,3,,,,,,,,2,,,62,84
176880,note_on,1,0,2,,,,,,,,1,,,62,82
176988,note_on,108,0,1,,,,,,,,0,,,77,0
177040,set_tempo,200,1,0,,,,,,441176,,,,,,
177048,note_on,0,0,4,,,,,,,,3,,,53,0
177048,note_on,648,0,4,,,,,,,,3,,,48,0
177096,note_on,216,0,2,,,,,,,,1,,,62,0
177096,note_on,216,0,3,,,,,,,,2,,,62,0
177120,note_on,72,0,4,,,,,,,,3,,,55,91
177120,note_on,0,0,4,,,,,,,,3,,,48,91
177120,note_on,24,0,2,,,,,,,,1,,,60,120
177120,note_on,132,0,1,,,,,,,,0,,,76,100
177359,note_on,239,0,1,,,,,,,,0,,,76,0
177359,note_on,239,0,2,,,,,,,,1,,,60,0
177360,note_on,1,0,1,,,,,,,,0,,,71,96
177360,note_on,1,0,2,,,,,,,,1,,,62,100
177599,note_on,239,0,2,,,,,,,,1,,,62,0
177599,note_on,0,0,4,,,,,,,,3,,,55,0
177599,note_on,239,0,1,,,,,,,,0,,,71,0
177599,note_on,479,0,4,,,,,,,,3,,,48,0
177600,note_on,1,0,1,,,,,,,,0,,,72,81
177600,note_on,1,0,4,,,,,,,,3,,,60,87
177600,note_on,0,0,4,,,,,,,,3,,,48,87
177600,note_on,1,0,2,,,,,,,,1,,,64,108
177839,note_on,239,0,4,,,,,,,,3,,,48,0
177839,note_on,0,0,4,,,,,,,,3,,,60,0
177840,note_on,1,0,4,,,,,,,,3,,,55,110
177840,note_on,0,0,4,,,,,,,,3,,,43,110
178079,note_on,479,0,2,,,,,,,,1,,,64,0
178079,note_on,479,0,1,,,,,,,,0,,,72,0
178080,note_on,1,0,2,,,,,,,,1,,,67,91
178080,note_on,1,0,1,,,,,,,,0,,,76,91
178199,note_on,119,0,1,,,,,,,,0,,,76,0
178199,note_on,119,0,2,,,,,,,,1,,,67,0
178200,note_on,1,0,1,,,,,,,,0,,,74,116
178200,note_on,1,0,2,,,,,,,,1,,,65,109
178319,note_on,0,0,4,,,,,,,,3,,,55,0
178319,note_on,479,0,4,,,,,,,,3,,,43,0
178319,note_on,119,0,2,,,,,,,,1,,,65,0
178319,note_on,119,0,1,,,,,,,,0,,,74,0
178320,note_on,1,0,1,,,,,,,,0,,,72,105
178320,note_on,1,0,2,,,,,,,,1,,,64,104
178320,note_on,1,0,4,,,,,,,,3,,,60,86
178320,note_on,0,0,4,,,,,,,,3,,,48,86
178439,note_on,119,0,1,,,,,,,,0,,,72,0
178439,note_on,119,0,2,,,,,,,,1,,,64,0
178440,note_on,1,0,1,,,,,,,,0,,,71,97
178440,note_on,1,0,2,,,,,,,,1,,,62,100
178559,note_on,119,0,2,,,,,,,,1,,,62,0
178559,note_on,0,0,4,,,,,,,,3,,,60,0
178559,note_on,119,0,1,,,,,,,,0,,,71,0
178559,note_on,239,0,4,,,,,,,,3,,,48,0
178560,note_on,1,0,4,,,,,,,,3,,,52,110
178560,note_on,1,0,2,,,,,,,,1,,,64,94
178560,note_on,1,0,1,,,,,,,,0,,,72,88
178560,note_on,0,0,4,,,,,,,,3,,,40,110
178799,note_on,239,0,2,,,,,,,,1,,,64,0
178799,note_on,239,0,1,,,,,,,,0,,,72,0
178800,note_on,1,0,2,,,,,,,,1,,,67,91
178800,note_on,1,0,1,,,,,,,,0,,,76,91
178919,note_on,119,0,2,,,,,,,,1,,,67,0
178919,note_on,119,0,1,,,,,,,,0,,,76,0
178920,note_on,1,0,2,,,,,,,,1,,,65,109
178920,note_on,1,0,1,,,,,,,,0,,,74,105
179039,note_on,119,0,2,,,,,,,,1,,,65,0
179039,note_on,479,0,4,,,,,,,,3,,,40,0
179039,note_on,0,0,4,,,,,,,,3,,,52,0
179039,note_on,119,0,1,,,,,,,,0,,,74,0
179040,note_on,1,0,1,,,,,,,,0,,,72,98
179040,note_on,1,0,2,,,,,,,,1,,,64,102
179040,note_on,1,0,4,,,,,,,,3,,,55,86
179040,note_on,0,0,4,,,,,,,,3,,,43,86
179159,note_on,119,0,1,,,,,,,,0,,,72,0
179159,note_on,119,0,2,,,,,,,,1,,,64,0
179160,note_on,1,0,2,,,,,,,,1,,,62,97
179160,note_on,1,0,1,,,,,,,,0,,,71,93
179256,note_on,0,0,4,,,,,,,,3,,,55,0
179256,note_on,216,0,4,,,,,,,,3,,,43,0
179268,note_on,108,0,2,,,,,,,,1,,,62,0
179268,note_on,108,0,1,,,,,,,,0,,,71,0
179280,note_on,24,0,4,,,,,,,,3,,,36,110
179280,note_on,12,0,2,,,,,,,,1,,,64,93
179280,note_on,12,0,1,,,,,,,,0,,,72,94
179280,note_on,0,0,4,,,,,,,,3,,,48,110
179297,control_change,17,0,4,,,,,,,,3,64,127,,
179519,note_on,239,0,2,,,,,,,,1,,,64,0
179519,note_on,239,0,1,,,,,,,,0,,,72,0
179520,note_on,1,0,1,,,,,,,,0,,,67,82
179520,note_on,1,0,2,,,,,,,,1,,,60,74
179639,note_on,119,0,2,,,,,,,,1,,,60,0
179640,note_on,120,0,1,,,,,,,,0,,,67,0
179640,note_on,1,0,2,,,,,,,,1,,,62,78
179712,note_on,0,0,4,,,,,,,,3,,,36,0
179712,note_on,415,0,4,,,,,,,,3,,,48,0
179759,note_on,119,0,2,,,,,,,,1,,,62,0
179760,note_on,120,0,1,,,,,,,,0,,,72,77
179760,note_on,1,0,2,,,,,,,,1,,,64,81
179879,note_on,119,0,2,,,,,,,,1,,,64,0
179880,note_on,120,0,1,,,,,,,,0,,,72,0
179880,note_on,1,0,2,,,,,,,,1,,,65,83
179999,note_on,119,0,2,,,,,,,,1,,,65,0
180000,note_on,120,0,1,,,,,,,,0,,,76,79
180000,note_on,1,0,2,,,,,,,,1,,,67,86
180120,note_on,120,0,1,,,,,,,,0,,,76,0
180239,note_on,239,0,2,,,,,,,,1,,,67,0
180240,note_on,120,0,1,,,,,,,,0,,,72,80
180240,note_on,1,0,2,,,,,,,,1,,,69,69
180257,control_change,545,0,4,,,,,,,,3,64,0,,
180359,note_on,119,0,2,,,,,,,,1,,,69,0
180360,note_on,1,0,2,,,,,,,,1,,,67,81
180360,note_on,120,0,1,,,,,,,,0,,,72,0
180479,note_on,119,0,2,,,,,,,,1,,,67,0
180480,note_on,120,0,1,,,,,,,,0,,,76,83
180480,note_on,1,0,2,,,,,,,,1,,,65,76
180599,note_on,119,0,2,,,,,,,,1,,,65,0
180600,note_on,120,0,1,,,,,,,,0,,,76,0
180600,note_on,1,0,2,,,,,,,,1,,,64,72
180719,note_on,119,0,2,,,,,,,,1,,,64,0
180720,note_on,1,0,2,,,,,,,,1,,,65,66
180720,note_on,120,0,1,,,,,,,,0,,,79,76
180840,note_on,120,0,1,,,,,,,,0,,,79,0
180959,note_on,239,0,2,,,,,,,,1,,,65,0
180960,note_on,120,0,1,,,,,,,,0,,,76,68
180960,note_on,1,0,2,,,,,,,,1,,,67,64
181079,note_on,119,0,2,,,,,,,,1,,,67,0
181080,note_on,120,0,1,,,,,,,,0,,,76,0
181080,note_on,1,0,2,,,,,,,,1,,,65,78
181199,note_on,119,0,2,,,,,,,,1,,,65,0
181200,note_on,1,0,2,,,,,,,,1,,,64,74
181200,note_on,120,0,1,,,,,,,,0,,,79,62
181308,note_on,108,0,1,,,,,,,,0,,,79,0
181319,note_on,119,0,2,,,,,,,,1,,,64,0
181320,note_on,1,0,2,,,,,,,,1,,,62,68
181428,note_on,108,0,2,,,,,,,,1,,,62,0
181440,note_on,132,0,1,,,,,,,,0,,,84,66
181440,note_on,12,0,2,,,,,,,,1,,,64,76
181679,note_on,239,0,2,,,,,,,,1,,,64,0
181679,note_on,239,0,1,,,,,,,,0,,,84,0
181680,note_on,1,0,1,,,,,,,,0,,,74,75
181680,note_on,1,0,2,,,,,,,,1,,,62,91
181680,note_on,0,0,2,,,,,,,,1,,,71,91
181919,note_on,239,0,2,,,,,,,,1,,,71,0
181919,note_on,0,0,2,,,,,,,,1,,,62,0
181919,note_on,239,0,1,,,,,,,,0,,,74,0
181920,note_on,1,0,2,,,,,,,,1,,,64,91
181920,note_on,0,0,2,,,,,,,,1,,,72,91
181920,note_on,1,0,1,,,,,,,,0,,,76,68
181920,note_on,1663,0,4,,,,,,,,3,,,60,90
181920,note_on,0,0,4,,,,,,,,3,,,48,90
182159,note_on,239,0,4,,,,,,,,3,,,48,0
182159,note_on,0,0,4,,,,,,,,3,,,60,0
182160,note_on,1,0,4,,,,,,,,3,,,55,110
182160,note_on,0,0,4,,,,,,,,3,,,43,110
182399,note_on,479,0,2,,,,,,,,1,,,72,0
182399,note_on,479,0,1,,,,,,,,0,,,76,0
182399,note_on,0,0,2,,,,,,,,1,,,64,0
182400,note_on,1,0,1,,,,,,,,0,,,79,91
182400,note_on,0,0,2,,,,,,,,1,,,67,91
182400,note_on,1,0,2,,,,,,,,1,,,76,91
182519,note_on,0,0,2,,,,,,,,1,,,76,0
182519,note_on,119,0,1,,,,,,,,0,,,79,0
182519,note_on,119,0,2,,,,,,,,1,,,67,0
182520,note_on,1,0,2,,,,,,,,1,,,74,91
182520,note_on,0,0,2,,,,,,,,1,,,65,91
182520,note_on,1,0,1,,,,,,,,0,,,77,109
182639,note_on,119,0,1,,,,,,,,0,,,77,0
182639,note_on,0,0,4,,,,,,,,3,,,55,0
182639,note_on,479,0,4,,,,,,,,3,,,43,0
182639,note_on,119,0,2,,,,,,,,1,,,65,0
182639,note_on,0,0,2,,,,,,,,1,,,74,0
182640,note_on,0,0,4,,,,,,,,3,,,48,88
182640,note_on,1,0,2,,,,,,,,1,,,64,100
182640,note_on,1,0,1,,,,,,,,0,,,76,102
182640,note_on,1,0,4,,,,,,,,3,,,60,88
182640,note_on,0,0,2,,,,,,,,1,,,72,100
182759,note_on,0,0,2,,,,,,,,1,,,64,0
182759,note_on,119,0,2,,,,,,,,1,,,72,0
182759,note_on,119,0,1,,,,,,,,0,,,76,0
182760,note_on,1,0,1,,,,,,,,0,,,74,94
182760,note_on,0,0,2,,,,,,,,1,,,71,94
182760,note_on,1,0,2,,,,,,,,1,,,62,94
182879,note_on,239,0,4,,,,,,,,3,,,48,0
182879,note_on,119,0,2,,,,,,,,1,,,71,0
182879,note_on,0,0,2,,,,,,,,1,,,62,0
182879,note_on,119,0,1,,,,,,,,0,,,74,0
182879,note_on,0,0,4,,,,,,,,3,,,60,0
182880,note_on,1,0,2,,,,,,,,1,,,64,90
182880,note_on,0,0,4,,,,,,,,3,,,40,110
182880,note_on,1,0,4,,,,,,,,3,,,52,110
182880,note_on,1,0,1,,,,,,,,0,,,76,87
182880,note_on,0,0,2,,,,,,,,1,,,72,90
183119,note_on,0,0,2,,,,,,,,1,,,64,0
183119,note_on,239,0,2,,,,,,,,1,,,72,0
183119,note_on,239,0,1,,,,,,,,0,,,76,0
183120,note_on,0,0,2,,,,,,,,1,,,76,91
183120,note_on,1,0,2,,,,,,,,1,,,67,91
183120,note_on,1,0,1,,,,,,,,0,,,79,91
183239,note_on,119,0,1,,,,,,,,0,,,79,0
183239,note_on,0,0,2,,,,,,,,1,,,67,0
183239,note_on,119,0,2,,,,,,,,1,,,76,0
183240,note_on,1,0,2,,,,,,,,1,,,65,104
183240,note_on,0,0,2,,,,,,,,1,,,74,104
183240,note_on,1,0,1,,,,,,,,0,,,77,91
183359,note_on,479,0,4,,,,,,,,3,,,40,0
183359,note_on,0,0,2,,,,,,,,1,,,65,0
183359,note_on,119,0,2,,,,,,,,1,,,74,0
183359,note_on,119,0,1,,,,,,,,0,,,77,0
183359,note_on,0,0,4,,,,,,,,3,,,52,0
183360,note_on,0,0,2,,,,,,,,1,,,72,98
183360,note_on,0,0,4,,,,,,,,3,,,43,96
183360,note_on,1,0,1,,,,,,,,0,,,76,103
183360,note_on,1,0,2,,,,,,,,1,,,64,98
183360,note_on,1,0,4,,,,,,,,3,,,55,96
183479,note_on,119,0,1,,,,,,,,0,,,76,0
183479,note_on,119,0,2,,,,,,,,1,,,72,0
183479,note_on,0,0,2,,,,,,,,1,,,64,0
183480,note_on,0,0,2,,,,,,,,1,,,71,91
183480,note_on,1,0,1,,,,,,,,0,,,74,98
183480,note_on,1,0,2,,,,,,,,1,,,62,91
183576,note_on,0,0,4,,,,,,,,3,,,55,0
183576,note_on,216,0,4,,,,,,,,3,,,43,0
183588,note_on,0,0,2,,,,,,,,1,,,62,0
183588,note_on,108,0,1,,,,,,,,0,,,74,0
183588,note_on,108,0,2,,,,,,,,1,,,71,0
183600,note_on,0,0,2,,,,,,,,1,,,64,91
183600,note_on,0,0,4,,,,,,,,3,,,48,110
183600,note_on,12,0,2,,,,,,,,1,,,72,91
183600,note_on,12,0,1,,,,,,,,0,,,76,96
183600,note_on,24,0,4,,,,,,,,3,,,36,110
183686,control_change,86,0,4,,,,,,,,3,64,127,,
183720,note_on,6624,0,3,,,,,,,,2,,,55,94
183720,note_on,120,0,1,,,,,,,,0,,,76,0
183816,note_on,216,0,2,,,,,,,,1,,,64,0
183816,note_on,0,0,2,,,,,,,,1,,,72,0
183839,note_on,119,0,3,,,,,,,,2,,,55,0
183840,note_on,1,0,3,,,,,,,,2,,,57,80
183840,note_on,120,0,1,,,,,,,,0,,,79,96
183959,note_on,119,0,3,,,,,,,,2,,,57,0
183960,note_on,1,0,3,,,,,,,,2,,,59,81
183960,note_on,120,0,1,,,,,,,,0,,,79,0
184032,note_on,346,0,4,,,,,,,,3,,,48,0
184032,note_on,0,0,4,,,,,,,,3,,,36,0
184079,note_on,119,0,3,,,,,,,,2,,,59,0
184080,note_on,120,0,1,,,,,,,,0,,,76,94
184080,note_on,1,0,3,,,,,,,,2,,,60,82
184199,note_on,119,0,3,,,,,,,,2,,,60,0
184200,note_on,120,0,1,,,,,,,,0,,,76,0
184200,note_on,1,0,3,,,,,,,,2,,,62,85
184319,note_on,119,0,3,,,,,,,,2,,,62,0
184320,note_on,120,0,1,,,,,,,,0,,,72,89
184320,note_on,1,0,3,,,,,,,,2,,,64,86
184439,note_on,119,0,3,,,,,,,,2,,,64,0
184440,note_on,1,0,3,,,,,,,,2,,,67,87
184440,note_on,120,0,1,,,,,,,,0,,,72,0
184559,note_on,119,0,3,,,,,,,,2,,,67,0
184560,note_on,1,0,3,,,,,,,,2,,,72,88
184560,note_on,120,0,1,,,,,,,,0,,,76,85
184646,control_change,614,0,4,,,,,,,,3,64,0,,
184679,note_on,119,0,3,,,,,,,,2,,,72,0
184680,note_on,1,0,3,,,,,,,,2,,,67,90
184680,note_on,120,0,1,,,,,,,,0,,,76,0
184799,note_on,119,0,3,,,,,,,,2,,,67,0
184800,note_on,1,0,3,,,,,,,,2,,,64,92
184800,note_on,120,0,1,,,,,,,,0,,,72,81
184919,note_on,119,0,3,,,,,,,,2,,,64,0
184920,note_on,120,0,1,,,,,,,,0,,,72,0
184920,note_on,1,0,3,,,,,,,,2,,,67,90
185039,note_on,119,0,3,,,,,,,,2,,,67,0
185040,note_on,1,0,3,,,,,,,,2,,,60,86
185040,note_on,120,0,1,,,,,,,,0,,,67,76
185159,note_on,119,0,3,,,,,,,,2,,,60,0
185160,note_on,1,0,3,,,,,,,,2,,,64,82
185160,note_on,120,0,1,,,,,,,,0,,,67,0
185279,note_on,119,0,3,,,,,,,,2,,,64,0
185280,note_on,120,0,1,,,,,,,,0,,,72,72
185280,note_on,1,0,3,,,,,,,,2,,,67,79
185399,note_on,119,0,3,,,,,,,,2,,,67,0
185400,note_on,1,0,3,,,,,,,,2,,,64,75
185400,note_on,120,0,1,,,,,,,,0,,,72,0
185519,note_on,119,0,3,,,,,,,,2,,,64,0
185520,note_on,1,0,3,,,,,,,,2,,,60,71
185520,set_tempo,8480,1,0,,,,,,446097,,,,,,
185520,note_on,120,0,1,,,,,,,,0,,,67,68
185600,set_tempo,80,1,0,,,,,,448598,,,,,,
185628,note_on,108,0,1,,,,,,,,0,,,67,0
185639,note_on,119,0,3,,,,,,,,2,,,60,0
185640,note_on,1,0,3,,,,,,,,2,,,64,68
185640,set_tempo,40,1,0,,,,,,451128,,,,,,
185680,set_tempo,40,1,0,,,,,,453686,,,,,,
185720,set_tempo,40,1,0,,,,,,456274,,,,,,
185748,note_on,108,0,3,,,,,,,,2,,,64,0
185760,set_tempo,40,1,0,,,,,,458891,,,,,,
185760,note_on,1114,0,4,,,,,,,,3,,,55,72
185760,note_on,132,0,1,,,,,,,,0,,,64,63
185800,set_tempo,40,1,0,,,,,,461538,,,,,,
185840,set_tempo,40,1,0,,,,,,464217,,,,,,
185880,set_tempo,40,1,0,,,,,,466926,,,,,,
185920,set_tempo,40,1,0,,,,,,469667,,,,,,
185960,set_tempo,40,1,0,,,,,,472441,,,,,,
186000,set_tempo,40,1,0,,,,,,475248,,,,,,
186040,set_tempo,40,1,0,,,,,,478088,,,,,,
186063,control_change,303,0,4,,,,,,,,3,64,127,,
186080,set_tempo,40,1,0,,,,,,480962,,,,,,
186120,set_tempo,40,1,0,,,,,,483871,,,,,,
186160,set_tempo,40,1,0,,,,,,486815,,,,,,
186200,set_tempo,40,1,0,,,,,,489796,,,,,,
186239,note_on,176,0,4,,,,,,,,3,,,55,0
186239,note_on,479,0,1,,,,,,,,0,,,64,0
186240,note_on,1,0,1,,,,,,,,0,,,72,84
186240,set_tempo,40,1,0,,,,,,492813,,,,,,
186240,note_on,0,0,4,,,,,,,,3,,,48,80
186240,note_on,1,0,4,,,,,,,,3,,,60,80
186280,set_tempo,40,1,0,,,,,,495868,,,,,,
186360,set_tempo,80,1,0,,,,,,498960,,,,,,
186400,set_tempo,40,1,0,,,,,,502092,,,,,,
186440,set_tempo,40,1,0,,,,,,505263,,,,,,
186479,note_on,239,0,4,,,,,,,,3,,,48,0
186479,note_on,239,0,1,,,,,,,,0,,,72,0
186479,note_on,0,0,4,,,,,,,,3,,,60,0
186480,note_on,1,0,4,,,,,,,,3,,,55,92
186480,set_tempo,40,1,0,,,,,,508475,,,,,,
186480,note_on,1,0,1,,,,,,,,0,,,67,92
186480,note_on,0,0,4,,,,,,,,3,,,43,92
186520,set_tempo,40,1,0,,,,,,511727,,,,,,
186560,set_tempo,40,1,0,,,,,,515021,,,,,,
186600,set_tempo,40,1,0,,,,,,518359,,,,,,
186602,control_change,122,0,4,,,,,,,,3,64,0,,
186640,set_tempo,40,1,0,,,,,,521739,,,,,,
186680,set_tempo,40,1,0,,,,,,525164,,,,,,
186720,set_tempo,40,1,0,,,,,,528634,,,,,,
186760,set_tempo,40,1,0,,,,,,532151,,,,,,
186800,set_tempo,40,1,0,,,,,,535714,,,,,,
186840,set_tempo,40,1,0,,,,,,539326,,,,,,
186880,set_tempo,40,1,0,,,,,,542986,,,,,,
186920,set_tempo,40,1,0,,,,,,546697,,,,,,
186959,note_on,357,0,4,,,,,,,,3,,,43,0
186959,note_on,0,0,4,,,,,,,,3,,,55,0
186959,note_on,479,0,1,,,,,,,,0,,,67,0
186960,note_on,1,0,1,,,,,,,,0,,,72,82
186960,note_on,1,0,4,,,,,,,,3,,,60,82
186960,set_tempo,40,1,0,,,,,,550459,,,,,,
186960,note_on,0,0,4,,,,,,,,3,,,48,82
186973,control_change,13,0,4,,,,,,,,3,64,127,,
187000,set_tempo,40,1,0,,,,,,554273,,,,,,
187040,set_tempo,40,1,0,,,,,,558140,,,,,,
187120,set_tempo,80,1,0,,,,,,562061,,,,,,
187160,set_tempo,40,1,0,,,,,,566038,,,,,,
187199,note_on,226,0,4,,,,,,,,3,,,48,0
187199,note_on,0,0,4,,,,,,,,3,,,60,0
187199,note_on,239,0,1,,,,,,,,0,,,72,0
187200,note_on,1,0,1,,,,,,,,0,,,64,92
187200,note_on,0,0,4,,,,,,,,3,,,40,92
187200,set_tempo,40,1,0,,,,,,570071,,,,,,
187200,note_on,1,0,4,,,,,,,,3,,,52,92
187240,set_tempo,40,1,0,,,,,,574163,,,,,,
187280,set_tempo,40,1,0,,,,,,578313,,,,,,
187320,set_tempo,40,1,0,,,,,,582524,,,,,,
187360,set_tempo,40,1,0,,,,,,586797,,,,,,
187400,set_tempo,40,1,0,,,,,,591133,,,,,,
187411,control_change,211,0,4,,,,,,,,3,64,0,,
187440,set_tempo,40,1,0,,,,,,595533,,,,,,
187480,set_tempo,40,1,0,,,,,,600000,,,,,,
187520,set_tempo,40,1,0,,,,,,604534,,,,,,
187560,set_tempo,40,1,0,,,,,,609137,,,,,,
187600,set_tempo,40,1,0,,,,,,613811,,,,,,
187640,set_tempo,40,1,0,,,,,,618557,,,,,,
187679,note_on,479,0,1,,,,,,,,0,,,64,0
187679,note_on,268,0,4,,,,,,,,3,,,40,0
187679,note_on,0,0,4,,,,,,,,3,,,52,0
187680,note_on,1,0,1,,,,,,,,0,,,67,81
187680,note_on,0,0,4,,,,,,,,3,,,43,84
187680,note_on,1,0,4,,,,,,,,3,,,55,84
187680,set_tempo,40,1,0,,,,,,623377,,,,,,
187720,set_tempo,40,1,0,,,,,,628272,,,,,,
187747,control_change,67,0,4,,,,,,,,3,64,127,,
187760,set_tempo,40,1,0,,,,,,633245,,,,,,
187800,set_tempo,40,1,0,,,,,,638298,,,,,,
187840,set_tempo,40,1,0,,,,,,643432,,,,,,
187896,note_on,0,0,4,,,,,,,,3,,,55,0
187896,note_on,149,0,4,,,,,,,,3,,,43,0
187896,note_on,216,0,1,,,,,,,,0,,,67,0
187920,note_on,0,0,4,,,,,,,,3,,,48,116
187920,control_change,24,0,1,,,,,,,,0,64,127,,
187920,note_on,0,0,1,,,,,,,,0,,,60,114
187920,note_on,24,0,4,,,,,,,,3,,,36,116
187960,set_tempo,120,1,0,,,,,,659341,,,,,,
188352,note_on,0,0,4,,,,,,,,3,,,36,0
188352,note_on,432,0,1,,,,,,,,0,,,60,0
188352,note_on,432,0,4,,,,,,,,3,,,48,0
188560,control_change,208,0,1,,,,,,,,0,64,0,,
188880,control_change,528,0,4,,,,,,,,3,64,0,,
190080,marker,0,1,0,,,,,,,,,,,,
190080,set_tempo,0,1,0,,,,,,545455,,,,,,
190080,note_on,0,0,1,,,,,,,,0,,,60,76
190080,control_change,1520,0,1,,,,,,,,0,64,127,,
190080,time_signature,2120,1,0,4,4,24,8,,,,,,,,
190559,note_on,479,0,1,,,,,,,,0,,,60,0
190560,control_change,1,0,1,,,,,,,,0,64,0,,
190560,note_on,0,0,1,,,,,,,,0,,,60,76
190620,note_on,60,0,1,,,,,,,,0,,,60,0
190680,note_on,60,0,1,,,,,,,,0,,,59,91
190740,note_on,60,0,1,,,,,,,,0,,,59,0
190800,note_on,60,0,1,,,,,,,,0,,,60,85
190860,note_on,60,0,1,,,,,,,,0,,,60,0
190920,note_on,60,0,1,,,,,,,,0,,,62,79
190980,note_on,60,0,1,,,,,,,,0,,,62,0
191040,note_on,60,0,1,,,,,,,,0,,,64,73
191279,note_on,239,0,1,,,,,,,,0,,,64,0
191280,note_on,1,0,1,,,,,,,,0,,,60,76
191519,note_on,239,0,1,,,,,,,,0,,,60,0
191520,note_on,1,0,1,,,,,,,,0,,,55,75
191759,note_on,239,0,1,,,,,,,,0,,,55,0
191760,note_on,1,0,1,,,,,,,,0,,,66,78
191976,note_on,216,0,1,,,,,,,,0,,,66,0
192000,note_on,24,0,1,,,,,,,,0,,,67,70
192000,note_on,6252,0,3,,,,,,,,2,,,55,76
192239,note_on,239,0,1,,,,,,,,0,,,67,0
192240,note_on,1,0,1,,,,,,,,0,,,62,73
192479,note_on,239,0,1,,,,,,,,0,,,62,0
192480,note_on,1,0,1,,,,,,,,0,,,64,75
192599,note_on,599,0,3,,,,,,,,2,,,55,0
192600,note_on,1,0,3,,,,,,,,2,,,52,74
192660,note_on,60,0,3,,,,,,,,2,,,52,0
192719,note_on,239,0,1,,,,,,,,0,,,64,0
192720,note_on,1,0,1,,,,,,,,0,,,59,75
192720,note_on,60,0,3,,,,,,,,2,,,53,80
192780,note_on,60,0,3,,,,,,,,2,,,53,0
192840,note_on,60,0,3,,,,,,,,2,,,55,87
192900,note_on,60,0,3,,,,,,,,2,,,55,0
192959,note_on,239,0,1,,,,,,,,0,,,59,0
192960,note_on,60,0,3,,,,,,,,2,,,57,93
192960,note_on,1,0,1,,,,,,,,0,,,60,78
193080,note_on,120,0,3,,,,,,,,2,,,57,0
193199,note_on,239,0,1,,,,,,,,0,,,60,0
193200,note_on,120,0,3,,,,,,,,2,,,53,76
193200,note_on,1,0,1,,,,,,,,0,,,62,72
193319,note_on,119,0,1,,,,,,,,0,,,62,0
193320,note_on,1,0,1,,,,,,,,0,,,64,76
193439,note_on,239,0,3,,,,,,,,2,,,53,0
193439,note_on,119,0,1,,,,,,,,0,,,64,0
193440,note_on,1,0,3,,,,,,,,2,,,50,81
193440,note_on,1,0,1,,,,,,,,0,,,65,81
193679,note_on,239,0,3,,,,,,,,2,,,50,0
193680,note_on,1,0,3,,,,,,,,2,,,59,75
193896,note_on,216,0,3,,,,,,,,2,,,59,0
193920,note_on,24,0,3,,,,,,,,2,,,60,62
193920,note_on,5040,0,4,,,,,,,,3,,,48,76
194039,note_on,599,0,1,,,,,,,,0,,,65,0
194040,note_on,1,0,1,,,,,,,,0,,,64,66
194100,note_on,60,0,1,,,,,,,,0,,,64,0
194159,note_on,239,0,3,,,,,,,,2,,,60,0
194160,note_on,1,0,3,,,,,,,,2,,,55,63
194160,note_on,60,0,1,,,,,,,,0,,,65,71
194220,note_on,60,0,1,,,,,,,,0,,,65,0
194280,note_on,60,0,1,,,,,,,,0,,,67,75
194340,note_on,10524,0,2,,,,,,,,1,,,65,66
194340,note_on,60,0,1,,,,,,,,0,,,67,0
194399,note_on,239,0,3,,,,,,,,2,,,55,0
194400,note_on,60,0,1,,,,,,,,0,,,64,66
194400,note_on,1,0,3,,,,,,,,2,,,57,66
194519,note_on,599,0,4,,,,,,,,3,,,48,0
194520,note_on,1,0,4,,,,,,,,3,,,47,73
194579,note_on,239,0,2,,,,,,,,1,,,65,0
194580,note_on,1,0,2,,,,,,,,1,,,62,75
194580,note_on,60,0,4,,,,,,,,3,,,47,0
194634,note_on,54,0,2,,,,,,,,1,,,62,0
194639,note_on,239,0,3,,,,,,,,2,,,57,0
194639,note_on,239,0,1,,,,,,,,0,,,64,0
194640,note_on,1,0,3,,,,,,,,2,,,52,69
194640,note_on,60,0,4,,,,,,,,3,,,48,73
194640,note_on,1,0,1,,,,,,,,0,,,60,65
194700,note_on,60,0,4,,,,,,,,3,,,48,0
194760,note_on,60,0,4,,,,,,,,3,,,50,72
194820,note_on,60,0,4,,,,,,,,3,,,50,0
194879,note_on,239,0,3,,,,,,,,2,,,52,0
194879,note_on,239,0,1,,,,,,,,0,,,60,0
194880,note_on,60,0,4,,,,,,,,3,,,52,72
194880,note_on,1,0,3,,,,,,,,2,,,55,72
194880,note_on,1,0,1,,,,,,,,0,,,59,65
195119,note_on,239,0,4,,,,,,,,3,,,52,0
195119,note_on,239,0,1,,,,,,,,0,,,59,0
195119,note_on,239,0,3,,,,,,,,2,,,55,0
195120,note_on,1,0,1,,,,,,,,0,,,60,62
195120,note_on,1,0,4,,,,,,,,3,,,48,71
195120,note_on,1,0,3,,,,,,,,2,,,60,69
195239,note_on,119,0,1,,,,,,,,0,,,60,0
195239,note_on,119,0,3,,,,,,,,2,,,60,0
195240,note_on,1,0,3,,,,,,,,2,,,62,65
195240,note_on,1,0,1,,,,,,,,0,,,62,65
195359,note_on,119,0,1,,,,,,,,0,,,62,0
195359,note_on,239,0,4,,,,,,,,3,,,48,0
195359,note_on,119,0,3,,,,,,,,2,,,62,0
195360,note_on,1,0,4,,,,,,,,3,,,45,70
195360,note_on,1,0,1,,,,,,,,0,,,64,68
195360,note_on,1,0,3,,,,,,,,2,,,60,63
195599,note_on,239,0,4,,,,,,,,3,,,45,0
195599,note_on,239,0,1,,,,,,,,0,,,64,0
195600,note_on,1,0,1,,,,,,,,0,,,69,62
195600,note_on,1,0,4,,,,,,,,3,,,54,69
195792,note_on,432,0,3,,,,,,,,2,,,60,0
195816,note_on,216,0,4,,,,,,,,3,,,54,0
195840,note_on,24,0,4,,,,,,,,3,,,55,69
195840,note_on,1206,0,2,,,,,,,,1,,,59,69
196079,note_on,239,0,4,,,,,,,,3,,,55,0
196079,note_on,479,0,1,,,,,,,,0,,,69,0
196080,note_on,1,0,1,,,,,,,,0,,,67,78
196080,note_on,1,0,4,,,,,,,,3,,,50,67
196199,note_on,119,0,1,,,,,,,,0,,,67,0
196200,note_on,1,0,1,,,,,,,,0,,,66,72
196319,note_on,119,0,1,,,,,,,,0,,,66,0
196319,note_on,239,0,4,,,,,,,,3,,,50,0
196320,note_on,1,0,1,,,,,,,,0,,,67,66
196320,note_on,1,0,4,,,,,,,,3,,,52,66
196439,note_on,599,0,2,,,,,,,,1,,,59,0
196440,note_on,1,0,2,,,,,,,,1,,,60,71
196559,note_on,119,0,2,,,,,,,,1,,,60,0
196559,note_on,239,0,4,,,,,,,,3,,,52,0
196560,note_on,1,0,2,,,,,,,,1,,,62,74
196560,note_on,1,0,4,,,,,,,,3,,,47,66
196679,note_on,119,0,2,,,,,,,,1,,,62,0
196680,note_on,1,0,2,,,,,,,,1,,,64,77
196788,note_on,108,0,2,,,,,,,,1,,,64,0
196799,note_on,239,0,4,,,,,,,,3,,,47,0
196800,note_on,1008,0,3,,,,,,,,2,,,57,65
196800,note_on,1,0,4,,,,,,,,3,,,48,65
196919,note_on,599,0,1,,,,,,,,0,,,67,0
196920,note_on,1,0,1,,,,,,,,0,,,67,76
197039,note_on,119,0,1,,,,,,,,0,,,67,0
197039,note_on,239,0,4,,,,,,,,3,,,48,0
197040,note_on,1,0,4,,,,,,,,3,,,50,63
197040,note_on,1,0,1,,,,,,,,0,,,65,72
197100,note_on,60,0,4,,,,,,,,3,,,50,0
197159,note_on,119,0,1,,,,,,,,0,,,65,0
197160,note_on,60,0,4,,,,,,,,3,,,52,63
197160,note_on,1,0,1,,,,,,,,0,,,64,68
197220,note_on,60,0,4,,,,,,,,3,,,52,0
197279,note_on,119,0,1,,,,,,,,0,,,64,0
197280,note_on,60,0,4,,,,,,,,3,,,53,63
197280,note_on,1,0,1,,,,,,,,0,,,62,65
197399,note_on,119,0,1,,,,,,,,0,,,62,0
197400,note_on,1,0,1,,,,,,,,0,,,60,61
197519,note_on,119,0,1,,,,,,,,0,,,60,0
197519,note_on,719,0,3,,,,,,,,2,,,57,0
197520,note_on,1,0,3,,,,,,,,2,,,55,57
197520,note_on,1,0,1,,,,,,,,0,,,59,59
197639,note_on,119,0,1,,,,,,,,0,,,59,0
197639,note_on,119,0,3,,,,,,,,2,,,55,0
197640,note_on,1,0,1,,,,,,,,0,,,60,55
197640,note_on,1,0,3,,,,,,,,2,,,57,61
197748,note_on,108,0,3,,,,,,,,2,,,57,0
197748,note_on,108,0,1,,,,,,,,0,,,60,0
197760,note_on,12,0,3,,,,,,,,2,,,59,59
197760,note_on,972,0,2,,,,,,,,1,,,62,61
197760,note_on,12,0,1,,,,,,,,0,,,67,70
197999,note_on,719,0,4,,,,,,,,3,,,53,0
198000,note_on,1,0,4,,,,,,,,3,,,52,68
198060,note_on,60,0,4,,,,,,,,3,,,52,0
198120,note_on,60,0,4,,,,,,,,3,,,50,68
198180,note_on,60,0,4,,,,,,,,3,,,50,0
198192,note_on,432,0,2,,,,,,,,1,,,62,0
198239,note_on,479,0,3,,,,,,,,2,,,59,0
198240,note_on,60,0,4,,,,,,,,3,,,52,68
198240,note_on,1,0,3,,,,,,,,2,,,60,68
198359,note_on,599,0,1,,,,,,,,0,,,67,0
198360,note_on,1,0,1,,,,,,,,0,,,64,74
198420,note_on,60,0,1,,,,,,,,0,,,64,0
198479,note_on,239,0,4,,,,,,,,3,,,52,0
198480,note_on,1,0,4,,,,,,,,3,,,48,68
198480,note_on,60,0,1,,,,,,,,0,,,65,79
198540,note_on,60,0,1,,,,,,,,0,,,65,0
198600,note_on,60,0,1,,,,,,,,0,,,67,82
198660,note_on,60,0,1,,,,,,,,0,,,67,0
198719,note_on,239,0,4,,,,,,,,3,,,48,0
198720,note_on,1,0,4,,,,,,,,3,,,53,68
198720,note_on,60,0,1,,,,,,,,0,,,69,86
198839,note_on,119,0,4,,,,,,,,3,,,53,0
198840,note_on,1,0,4,,,,,,,,3,,,50,68
198900,note_on,60,0,4,,,,,,,,3,,,50,0
198959,note_on,239,0,1,,,,,,,,0,,,69,0
198960,note_on,60,0,4,,,,,,,,3,,,52,68
198960,note_on,1,0,1,,,,,,,,0,,,65,85
199020,note_on,60,0,4,,,,,,,,3,,,52,0
199080,note_on,60,0,4,,,,,,,,3,,,53,68
199140,note_on,60,0,4,,,,,,,,3,,,53,0
199199,note_on,959,0,3,,,,,,,,2,,,60,0
199199,note_on,239,0,1,,,,,,,,0,,,65,0
199200,note_on,60,0,4,,,,,,,,3,,,55,68
199200,note_on,1,0,1,,,,,,,,0,,,62,80
199200,note_on,1,0,3,,,,,,,,2,,,59,75
199439,note_on,239,0,1,,,,,,,,0,,,62,0
199440,note_on,1,0,1,,,,,,,,0,,,71,76
199632,note_on,432,0,3,,,,,,,,2,,,59,0
199656,note_on,216,0,1,,,,,,,,0,,,71,0
199680,note_on,48,0,3,,,,,,,,2,,,57,76
199680,note_on,24,0,1,,,,,,,,0,,,72,76
199799,note_on,599,0,4,,,,,,,,3,,,55,0
199800,note_on,1,0,4,,,,,,,,3,,,55,76
199860,note_on,60,0,4,,,,,,,,3,,,55,0
199920,note_on,60,0,4,,,,,,,,3,,,54,76
199980,note_on,60,0,4,,,,,,,,3,,,54,0
200040,note_on,60,0,4,,,,,,,,3,,,52,76
200100,note_on,60,0,4,,,,,,,,3,,,52,0
200160,note_on,60,0,4,,,,,,,,3,,,54,76
200279,note_on,599,0,1,,,,,,,,0,,,72,0
200280,note_on,1,0,1,,,,,,,,0,,,72,91
200399,note_on,719,0,3,,,,,,,,2,,,57,0
200399,note_on,119,0,1,,,,,,,,0,,,72,0
200400,note_on,1,0,1,,,,,,,,0,,,71,87
200400,note_on,1,0,3,,,,,,,,2,,,62,76
200519,note_on,119,0,1,,,,,,,,0,,,71,0
200520,note_on,1,0,1,,,,,,,,0,,,69,84
200639,note_on,119,0,1,,,,,,,,0,,,69,0
200639,note_on,479,0,4,,,,,,,,3,,,54,0
200640,note_on,1,0,1,,,,,,,,0,,,71,79
200640,note_on,1,0,4,,,,,,,,3,,,55,76
200759,note_on,119,0,1,,,,,,,,0,,,71,0
200760,note_on,1,0,1,,,,,,,,0,,,74,76
200879,note_on,119,0,1,,,,,,,,0,,,74,0
200879,note_on,479,0,3,,,,,,,,2,,,62,0
200880,note_on,1,0,3,,,,,,,,2,,,59,82
200880,note_on,1,0,1,,,,,,,,0,,,76,80
200999,note_on,119,0,1,,,,,,,,0,,,76,0
201000,note_on,1,0,1,,,,,,,,0,,,77,85
201119,note_on,119,0,1,,,,,,,,0,,,77,0
201119,note_on,239,0,3,,,,,,,,2,,,59,0
201120,note_on,1,0,3,,,,,,,,2,,,64,78
201120,note_on,1,0,1,,,,,,,,0,,,79,88
201359,note_on,239,0,1,,,,,,,,0,,,79,0
201359,note_on,719,0,4,,,,,,,,3,,,55,0
201360,note_on,1,0,4,,,,,,,,3,,,60,76
201360,note_on,1,0,1,,,,,,,,0,,,70,76
201576,note_on,216,0,1,,,,,,,,0,,,70,0
201576,note_on,216,0,4,,,,,,,,3,,,60,0
201600,note_on,24,0,1,,,,,,,,0,,,69,76
201600,note_on,24,0,4,,,,,,,,3,,,53,76
201719,note_on,599,0,3,,,,,,,,2,,,64,0
201720,note_on,1,0,3,,,,,,,,2,,,64,81
201780,note_on,60,0,3,,,,,,,,2,,,64,0
201840,note_on,60,0,3,,,,,,,,2,,,62,78
201900,note_on,60,0,3,,,,,,,,2,,,62,0
201960,note_on,60,0,3,,,,,,,,2,,,60,77
202020,note_on,60,0,3,,,,,,,,2,,,60,0
202080,note_on,60,0,3,,,,,,,,2,,,62,73
202199,note_on,599,0,1,,,,,,,,0,,,69,0
202200,note_on,1,0,1,,,,,,,,0,,,69,90
202260,note_on,60,0,1,,,,,,,,0,,,69,0
202319,note_on,719,0,4,,,,,,,,3,,,53,0
202320,note_on,1,0,4,,,,,,,,3,,,50,73
202320,note_on,60,0,1,,,,,,,,0,,,67,83
202380,note_on,60,0,1,,,,,,,,0,,,67,0
202440,note_on,60,0,1,,,,,,,,0,,,65,78
202500,note_on,60,0,1,,,,,,,,0,,,65,0
202559,note_on,239,0,4,,,,,,,,3,,,50,0
202560,note_on,60,0,1,,,,,,,,0,,,67,72
202560,note_on,1,0,4,,,,,,,,3,,,52,72
202679,note_on,119,0,1,,,,,,,,0,,,67,0
202680,note_on,1,0,1,,,,,,,,0,,,71,72
202799,note_on,119,0,1,,,,,,,,0,,,71,0
202799,note_on,719,0,3,,,,,,,,2,,,62,0
202800,note_on,1,0,3,,,,,,,,2,,,55,72
202800,note_on,1,0,1,,,,,,,,0,,,72,75
202919,note_on,119,0,1,,,,,,,,0,,,72,0
202920,note_on,1,0,1,,,,,,,,0,,,74,77
203039,note_on,239,0,3,,,,,,,,2,,,55,0
203039,note_on,119,0,1,,,,,,,,0,,,74,0
203040,note_on,1,0,3,,,,,,,,2,,,60,85
203040,note_on,1,0,1,,,,,,,,0,,,76,80
203279,note_on,719,0,4,,,,,,,,3,,,52,0
203279,note_on,239,0,1,,,,,,,,0,,,76,0
203280,note_on,1,0,4,,,,,,,,3,,,57,70
203280,note_on,1,0,1,,,,,,,,0,,,67,70
203496,note_on,216,0,1,,,,,,,,0,,,67,0
203496,note_on,216,0,4,,,,,,,,3,,,57,0
203520,control_change,24,0,4,,,,,,,,3,64,127,,
203520,note_on,24,0,1,,,,,,,,0,,,65,61
203520,note_on,0,0,4,,,,,,,,3,,,50,69
203639,note_on,599,0,3,,,,,,,,2,,,60,0
203640,note_on,1,0,3,,,,,,,,2,,,60,69
203759,note_on,119,0,3,,,,,,,,2,,,60,0
203760,note_on,1,0,3,,,,,,,,2,,,59,74
203820,note_on,60,0,3,,,,,,,,2,,,59,0
203880,note_on,60,0,3,,,,,,,,2,,,57,71
203940,note_on,60,0,3,,,,,,,,2,,,57,0
203999,note_on,479,0,4,,,,,,,,3,,,50,0
204000,note_on,60,0,3,,,,,,,,2,,,59,67
204000,note_on,1,0,4,,,,,,,,3,,,55,68
204119,note_on,599,0,1,,,,,,,,0,,,65,0
204120,note_on,1,0,1,,,,,,,,0,,,65,68
204180,note_on,60,0,1,,,,,,,,0,,,65,0
204240,note_on,60,0,1,,,,,,,,0,,,64,72
204300,note_on,60,0,1,,,,,,,,0,,,64,0
204360,note_on,60,0,1,,,,,,,,0,,,62,65
204420,note_on,60,0,1,,,,,,,,0,,,62,0
204479,note_on,479,0,3,,,,,,,,2,,,59,0
204479,note_on,479,0,4,,,,,,,,3,,,55,0
204480,note_on,0,0,4,,,,,,,,3,,,48,66
204480,note_on,1,0,3,,,,,,,,2,,,60,66
204480,note_on,60,0,1,,,,,,,,0,,,64,66
204480,control_change,1,0,4,,,,,,,,3,64,0,,
204719,note_on,239,0,1,,,,,,,,0,,,64,0
204720,note_on,1,0,1,,,,,,,,0,,,65,60
204820,set_tempo,14740,1,0,,,,,,549199,,,,,,
204839,note_on,119,0,1,,,,,,,,0,,,65,0
204840,note_on,1,0,1,,,,,,,,0,,,67,66
204900,set_tempo,80,1,0,,,,,,552995,,,,,,
204912,note_on,432,0,4,,,,,,,,3,,,48,0
204940,set_tempo,40,1,0,,,,,,556845,,,,,,
204959,note_on,119,0,1,,,,,,,,0,,,67,0
204960,note_on,1,0,1,,,,,,,,0,,,69,70
204980,set_tempo,40,1,0,,,,,,560748,,,,,,
205060,set_tempo,80,1,0,,,,,,564706,,,,,,
205079,note_on,599,0,3,,,,,,,,2,,,60,0
205080,note_on,1,0,3,,,,,,,,2,,,59,70
205100,set_tempo,40,1,0,,,,,,568720,,,,,,
205140,set_tempo,40,1,0,,,,,,572792,,,,,,
205140,note_on,60,0,3,,,,,,,,2,,,59,0
205180,set_tempo,40,1,0,,,,,,576923,,,,,,
205200,note_on,60,0,3,,,,,,,,2,,,60,68
205260,set_tempo,80,1,0,,,,,,581114,,,,,,
205260,note_on,60,0,3,,,,,,,,2,,,60,0
205300,set_tempo,40,1,0,,,,,,585366,,,,,,
205320,note_on,60,0,3,,,,,,,,2,,,62,66
205340,set_tempo,40,1,0,,,,,,589681,,,,,,
205374,note_on,54,0,3,,,,,,,,2,,,62,0
205380,set_tempo,40,1,0,,,,,,594059,,,,,,
205440,note_on,66,0,3,,,,,,,,2,,,64,65
205559,note_on,599,0,1,,,,,,,,0,,,69,0
205560,note_on,1,0,1,,,,,,,,0,,,67,54
205620,note_on,60,0,1,,,,,,,,0,,,67,0
205679,note_on,239,0,3,,,,,,,,2,,,64,0
205680,note_on,60,0,1,,,,,,,,0,,,69,58
205680,note_on,1,0,3,,,,,,,,2,,,60,67
205740,set_tempo,360,1,0,,,,,,603015,,,,,,
205740,note_on,60,0,1,,,,,,,,0,,,69,0
205800,note_on,60,0,1,,,,,,,,0,,,71,61
205860,note_on,60,0,1,,,,,,,,0,,,71,0
205919,note_on,239,0,3,,,,,,,,2,,,60,0
205920,note_on,1,0,3,,,,,,,,2,,,57,64
205920,note_on,60,0,1,,,,,,,,0,,,72,64
206159,note_on,239,0,3,,,,,,,,2,,,57,0
206160,note_on,1,0,3,,,,,,,,2,,,66,60
206399,note_on,239,0,3,,,,,,,,2,,,66,0
206400,note_on,1,0,3,,,,,,,,2,,,67,92
206400,note_on,1488,0,4,,,,,,,,3,,,55,76
206420,marker,680,1,0,,,,,,,,,,,,
206519,note_on,599,0,1,,,,,,,,0,,,72,0
206520,note_on,1,0,1,,,,,,,,0,,,71,66
206580,note_on,60,0,1,,,,,,,,0,,,71,0
206580,set_tempo,160,1,0,,,,,,598504,,,,,,
206640,note_on,60,0,1,,,,,,,,0,,,72,72
206700,note_on,60,0,1,,,,,,,,0,,,72,0
206760,note_on,60,0,1,,,,,,,,0,,,74,75
206820,note_on,60,0,1,,,,,,,,0,,,74,0
206880,note_on,60,0,1,,,,,,,,0,,,76,81
206999,note_on,599,0,4,,,,,,,,3,,,55,0
207000,note_on,1,0,4,,,,,,,,3,,,52,76
207060,note_on,60,0,4,,,,,,,,3,,,52,0
207120,note_on,60,0,4,,,,,,,,3,,,53,76
207180,note_on,60,0,4,,,,,,,,3,,,53,0
207240,note_on,60,0,4,,,,,,,,3,,,55,76
207264,note_on,864,0,3,,,,,,,,2,,,67,0
207294,note_on,54,0,4,,,,,,,,3,,,55,0
207360,note_on,66,0,4,,,,,,,,3,,,57,76
207360,note_on,9168,0,2,,,,,,,,1,,,65,73
207420,set_tempo,840,1,0,,,,,,594059,,,,,,
207479,note_on,599,0,1,,,,,,,,0,,,76,0
207480,note_on,1,0,1,,,,,,,,0,,,72,64
207540,note_on,60,0,1,,,,,,,,0,,,72,0
207599,note_on,239,0,4,,,,,,,,3,,,57,0
207600,note_on,60,0,1,,,,,,,,0,,,74,69
207600,note_on,1,0,4,,,,,,,,3,,,53,76
207660,note_on,60,0,1,,,,,,,,0,,,74,0
207720,note_on,60,0,1,,,,,,,,0,,,76,71
207780,note_on,60,0,1,,,,,,,,0,,,76,0
207839,note_on,239,0,4,,,,,,,,3,,,53,0
207840,note_on,60,0,1,,,,,,,,0,,,77,76
207840,note_on,1,0,4,,,,,,,,3,,,50,76
208079,note_on,719,0,2,,,,,,,,1,,,65,0
208079,note_on,239,0,4,,,,,,,,3,,,50,0
208080,note_on,1,0,2,,,,,,,,1,,,74,70
208080,note_on,1,0,4,,,,,,,,3,,,59,76
208260,set_tempo,840,1,0,,,,,,589681,,,,,,
208319,note_on,239,0,2,,,,,,,,1,,,74,0
208319,note_on,239,0,4,,,,,,,,3,,,59,0
208320,note_on,1,0,4,,,,,,,,3,,,60,76
208320,note_on,1,0,2,,,,,,,,1,,,67,69
208439,note_on,599,0,1,,,,,,,,0,,,77,0
208440,note_on,1,0,1,,,,,,,,0,,,76,68
208500,note_on,60,0,1,,,,,,,,0,,,76,0
208560,note_on,60,0,1,,,,,,,,0,,,78,71
208620,note_on,60,0,1,,,,,,,,0,,,78,0
208680,note_on,60,0,1,,,,,,,,0,,,79,76
208740,note_on,60,0,1,,,,,,,,0,,,79,0
208799,note_on,479,0,4,,,,,,,,3,,,60,0
208800,note_on,60,0,1,,,,,,,,0,,,81,79
208800,note_on,1,0,4,,,,,,,,3,,,61,76
208919,note_on,599,0,2,,,,,,,,1,,,67,0
208920,note_on,1,0,2,,,,,,,,1,,,66,70
208980,note_on,60,0,2,,,,,,,,1,,,66,0
209040,note_on,60,0,2,,,,,,,,1,,,67,74
209060,set_tempo,800,1,0,,,,,,585366,,,,,,
209100,note_on,60,0,2,,,,,,,,1,,,67,0
209160,note_on,60,0,2,,,,,,,,1,,,69,80
209214,note_on,54,0,2,,,,,,,,1,,,69,0
209232,note_on,432,0,4,,,,,,,,3,,,61,0
209280,note_on,48,0,4,,,,,,,,3,,,62,68
209280,note_on,66,0,2,,,,,,,,1,,,70,75
209399,note_on,599,0,1,,,,,,,,0,,,81,0
209400,note_on,1,0,1,,,,,,,,0,,,74,58
209460,note_on,60,0,1,,,,,,,,0,,,74,0
209519,note_on,239,0,2,,,,,,,,1,,,70,0
209520,note_on,60,0,1,,,,,,,,0,,,76,62
209520,note_on,1,0,2,,,,,,,,1,,,67,59
209580,note_on,60,0,1,,,,,,,,0,,,76,0
209640,note_on,60,0,1,,,,,,,,0,,,77,65
209700,note_on,60,0,1,,,,,,,,0,,,77,0
209759,note_on,239,0,2,,,,,,,,1,,,67,0
209760,note_on,60,0,1,,,,,,,,0,,,79,69
209760,note_on,1,0,2,,,,,,,,1,,,64,64
209900,set_tempo,840,1,0,,,,,,581114,,,,,,
209999,note_on,239,0,2,,,,,,,,1,,,64,0
210000,note_on,1,0,2,,,,,,,,1,,,73,68
210239,note_on,239,0,2,,,,,,,,1,,,73,0
210240,note_on,1,0,2,,,,,,,,1,,,74,72
210359,note_on,599,0,1,,,,,,,,0,,,79,0
210360,note_on,1,0,1,,,,,,,,0,,,79,54
210420,note_on,60,0,1,,,,,,,,0,,,79,0
210480,note_on,60,0,1,,,,,,,,0,,,77,62
210540,note_on,60,0,1,,,,,,,,0,,,77,0
210600,note_on,60,0,1,,,,,,,,0,,,76,55
210660,note_on,60,0,1,,,,,,,,0,,,76,0
210720,note_on,60,0,1,,,,,,,,0,,,77,51
210740,set_tempo,840,1,0,,,,,,576923,,,,,,
210839,note_on,1559,0,4,,,,,,,,3,,,62,0
210840,note_on,1,0,4,,,,,,,,3,,,59,68
210900,note_on,60,0,4,,,,,,,,3,,,59,0
210959,note_on,239,0,1,,,,,,,,0,,,77,0
210960,note_on,60,0,4,,,,,,,,3,,,60,68
210960,note_on,1,0,1,,,,,,,,0,,,74,54
211020,note_on,60,0,4,,,,,,,,3,,,60,0
211080,note_on,60,0,4,,,,,,,,3,,,62,68
211134,note_on,54,0,4,,,,,,,,3,,,62,0
211176,note_on,216,0,1,,,,,,,,0,,,74,0
211200,note_on,66,0,4,,,,,,,,3,,,56,76
211200,note_on,24,0,1,,,,,,,,0,,,76,86
211319,note_on,1079,0,2,,,,,,,,1,,,74,0
211320,note_on,1,0,2,,,,,,,,1,,,74,97
211439,note_on,239,0,4,,,,,,,,3,,,56,0
211439,note_on,119,0,2,,,,,,,,1,,,74,0
211440,note_on,1,0,4,,,,,,,,3,,,64,75
211440,note_on,1,0,2,,,,,,,,1,,,72,99
211559,note_on,119,0,2,,,,,,,,1,,,72,0
211560,note_on,1,0,2,,,,,,,,1,,,71,91
211580,set_tempo,840,1,0,,,,,,572792,,,,,,
211679,note_on,239,0,4,,,,,,,,3,,,64,0
211679,note_on,119,0,2,,,,,,,,1,,,71,0
211680,note_on,1,0,2,,,,,,,,1,,,72,85
211680,note_on,1,0,4,,,,,,,,3,,,69,74
211799,note_on,119,0,4,,,,,,,,3,,,69,0
211800,note_on,1,0,4,,,,,,,,3,,,57,73
211860,note_on,60,0,4,,,,,,,,3,,,57,0
211919,note_on,719,0,1,,,,,,,,0,,,76,0
211920,note_on,1,0,1,,,,,,,,0,,,81,72
211920,note_on,60,0,4,,,,,,,,3,,,59,72
211980,note_on,60,0,4,,,,,,,,3,,,59,0
212040,note_on,60,0,4,,,,,,,,3,,,60,72
212100,note_on,60,0,4,,,,,,,,3,,,60,0
212159,note_on,239,0,1,,,,,,,,0,,,81,0
212160,note_on,1,0,1,,,,,,,,0,,,74,87
212160,note_on,60,0,4,,,,,,,,3,,,54,72
212279,note_on,599,0,2,,,,,,,,1,,,72,0
212280,note_on,1,0,2,,,,,,,,1,,,72,79
212380,set_tempo,800,1,0,,,,,,568720,,,,,,
212399,note_on,239,0,4,,,,,,,,3,,,54,0
212399,note_on,119,0,2,,,,,,,,1,,,72,0
212400,note_on,1,0,2,,,,,,,,1,,,71,75
212400,set_tempo,20,1,0,,,,,,564706,,,,,,
212400,note_on,1,0,4,,,,,,,,3,,,62,70
212519,note_on,119,0,2,,,,,,,,1,,,71,0
212520,note_on,1,0,2,,,,,,,,1,,,69,72
212639,note_on,119,0,2,,,,,,,,1,,,69,0
212639,note_on,239,0,4,,,,,,,,3,,,62,0
212640,note_on,1,0,4,,,,,,,,3,,,67,69
212640,note_on,1,0,2,,,,,,,,1,,,71,68
212759,note_on,119,0,4,,,,,,,,3,,,67,0
212760,note_on,1,0,4,,,,,,,,3,,,55,69
212820,note_on,60,0,4,,,,,,,,3,,,55,0
212879,note_on,719,0,1,,,,,,,,0,,,74,0
212880,note_on,1,0,1,,,,,,,,0,,,79,68
212880,note_on,60,0,4,,,,,,,,3,,,57,68
212940,note_on,60,0,4,,,,,,,,3,,,57,0
213000,note_on,60,0,4,,,,,,,,3,,,59,68
213054,note_on,54,0,4,,,,,,,,3,,,59,0
213096,note_on,216,0,1,,,,,,,,0,,,79,0
213120,note_on,24,0,1,,,,,,,,0,,,72,80
213120,note_on,0,0,3,,,,,,,,2,,,52,64
213120,control_change,5856,0,3,,,,,,,,2,64,127,,
213239,note_on,599,0,2,,,,,,,,1,,,71,0
213240,note_on,1,0,2,,,,,,,,1,,,71,74
213359,note_on,239,0,3,,,,,,,,2,,,52,0
213359,note_on,119,0,2,,,,,,,,1,,,71,0
213360,note_on,1,0,2,,,,,,,,1,,,69,70
213360,note_on,1,0,3,,,,,,,,2,,,57,70
213479,note_on,119,0,2,,,,,,,,1,,,69,0
213480,note_on,1,0,2,,,,,,,,1,,,67,65
213599,note_on,239,0,3,,,,,,,,2,,,57,0
213599,note_on,119,0,2,,,,,,,,1,,,67,0
213600,note_on,1,0,2,,,,,,,,1,,,69,60
213600,note_on,1,0,3,,,,,,,,2,,,54,77
213719,note_on,599,0,1,,,,,,,,0,,,72,0
213720,note_on,1,0,1,,,,,,,,0,,,72,64
213839,note_on,239,0,3,,,,,,,,2,,,54,0
213839,note_on,119,0,1,,,,,,,,0,,,72,0
213840,note_on,1,0,1,,,,,,,,0,,,71,69
213840,note_on,1,0,3,,,,,,,,2,,,50,72
213959,note_on,119,0,1,,,,,,,,0,,,71,0
213960,note_on,1,0,1,,,,,,,,0,,,69,65
214079,note_on,239,0,3,,,,,,,,2,,,50,0
214079,note_on,119,0,1,,,,,,,,0,,,69,0
214080,note_on,0,0,3,,,,,,,,2,,,55,66
214080,note_on,1026,0,4,,,,,,,,3,,,43,76
214080,note_on,1,0,1,,,,,,,,0,,,71,53
214080,control_change,1,0,3,,,,,,,,2,64,0,,
214199,note_on,599,0,2,,,,,,,,1,,,69,0
214200,note_on,1,0,2,,,,,,,,1,,,69,58
214280,set_tempo,1880,1,0,,,,,,568720,,,,,,
214319,note_on,119,0,2,,,,,,,,1,,,69,0
214319,note_on,239,0,3,,,,,,,,2,,,55,0
214320,note_on,1,0,2,,,,,,,,1,,,67,54
214320,note_on,1,0,3,,,,,,,,2,,,50,61
214439,note_on,119,0,2,,,,,,,,1,,,67,0
214440,note_on,1,0,2,,,,,,,,1,,,66,51
214559,note_on,239,0,3,,,,,,,,2,,,50,0
214559,note_on,119,0,2,,,,,,,,1,,,66,0
214560,note_on,1,0,3,,,,,,,,2,,,52,57
214560,note_on,1,0,2,,,,,,,,1,,,67,54
214679,note_on,599,0,4,,,,,,,,3,,,43,0
214680,note_on,1,0,4,,,,,,,,3,,,40,76
214740,note_on,60,0,4,,,,,,,,3,,,40,0
214799,note_on,719,0,1,,,,,,,,0,,,71,0
214800,note_on,60,0,4,,,,,,,,3,,,41,76
214800,note_on,1,0,1,,,,,,,,0,,,76,68
214860,note_on,60,0,4,,,,,,,,3,,,41,0
214920,note_on,60,0,4,,,,,,,,3,,,43,76
214974,note_on,54,0,4,,,,,,,,3,,,43,0
214992,note_on,432,0,3,,,,,,,,2,,,52,0
214992,note_on,432,0,2,,,,,,,,1,,,67,0
215040,note_on,48,0,2,,,,,,,,1,,,65,68
215040,note_on,66,0,4,,,,,,,,3,,,45,76
215040,note_on,48,0,3,,,,,,,,2,,,48,74
215159,note_on,359,0,1,,,,,,,,0,,,76,0
215160,note_on,1,0,1,,,,,,,,0,,,76,76
215279,note_on,119,0,1,,,,,,,,0,,,76,0
215279,note_on,239,0,4,,,,,,,,3,,,45,0
215280,note_on,1,0,1,,,,,,,,0,,,74,74
215280,note_on,1,0,4,,,,,,,,3,,,41,76
215399,note_on,119,0,1,,,,,,,,0,,,74,0
215400,note_on,1,0,1,,,,,,,,0,,,72,69
215519,note_on,119,0,1,,,,,,,,0,,,72,0
215519,note_on,239,0,4,,,,,,,,3,,,41,0
215519,note_on,479,0,3,,,,,,,,2,,,48,0
215520,note_on,1,0,1,,,,,,,,0,,,71,66
215520,note_on,1,0,4,,,,,,,,3,,,38,76
215520,note_on,1,0,3,,,,,,,,2,,,50,81
215639,note_on,119,0,1,,,,,,,,0,,,71,0
215640,note_on,1,0,1,,,,,,,,0,,,69,63
215759,note_on,239,0,4,,,,,,,,3,,,38,0
215759,note_on,119,0,1,,,,,,,,0,,,69,0
215760,note_on,1,0,4,,,,,,,,3,,,47,76
215760,note_on,1,0,1,,,,,,,,0,,,67,58
215879,note_on,839,0,2,,,,,,,,1,,,65,0
215880,note_on,1,0,2,,,,,,,,1,,,65,68
215920,set_tempo,1640,1,0,,,,,,564706,,,,,,
215999,note_on,239,0,4,,,,,,,,3,,,47,0
215999,note_on,479,0,3,,,,,,,,2,,,50,0
215999,note_on,119,0,2,,,,,,,,1,,,65,0
216000,note_on,1,0,2,,,,,,,,1,,,64,75
216000,note_on,1,0,4,,,,,,,,3,,,48,76
216000,note_on,1,0,3,,,,,,,,2,,,52,88
216119,note_on,359,0,1,,,,,,,,0,,,67,0
216120,note_on,1,0,1,,,,,,,,0,,,67,67
216180,note_on,60,0,1,,,,,,,,0,,,67,0
216239,note_on,239,0,4,,,,,,,,3,,,48,0
216240,note_on,1,0,4,,,,,,,,3,,,47,76
216240,note_on,60,0,1,,,,,,,,0,,,69,70
216300,note_on,60,0,1,,,,,,,,0,,,69,0
216360,note_on,60,0,1,,,,,,,,0,,,71,74
216420,note_on,60,0,1,,,,,,,,0,,,71,0
216479,note_on,239,0,4,,,,,,,,3,,,47,0
216480,note_on,1,0,4,,,,,,,,3,,,45,76
216480,note_on,60,0,1,,,,,,,,0,,,72,78
216599,note_on,599,0,2,,,,,,,,1,,,64,0
216600,note_on,1,0,2,,,,,,,,1,,,64,67
216660,note_on,60,0,2,,,,,,,,1,,,64,0
216719,note_on,239,0,4,,,,,,,,3,,,45,0
216720,note_on,1,0,4,,,,,,,,3,,,43,76
216720,note_on,60,0,2,,,,,,,,1,,,65,72
216780,note_on,60,0,2,,,,,,,,1,,,65,0
216840,note_on,60,0,2,,,,,,,,1,,,67,75
216864,note_on,864,0,3,,,,,,,,2,,,52,0
216894,note_on,54,0,2,,,,,,,,1,,,67,0
216912,note_on,432,0,1,,,,,,,,0,,,72,0
216936,note_on,216,0,4,,,,,,,,3,,,43,0
216960,note_on,24,0,4,,,,,,,,3,,,41,76
216960,note_on,66,0,2,,,,,,,,1,,,69,90
216960,note_on,48,0,1,,,,,,,,0,,,72,76
216960,note_on,96,0,3,,,,,,,,2,,,50,72
217011,control_change,51,0,4,,,,,,,,3,64,127,,
217080,control_change,120,0,3,,,,,,,,2,64,127,,
217199,note_on,239,0,2,,,,,,,,1,,,69,0
217200,note_on,1,0,2,,,,,,,,1,,,65,86
217439,note_on,428,0,4,,,,,,,,3,,,41,0
217439,note_on,239,0,2,,,,,,,,1,,,65,0
217439,note_on,359,0,3,,,,,,,,2,,,50,0
217440,note_on,1,0,2,,,,,,,,1,,,62,82
217440,note_on,1,0,3,,,,,,,,2,,,55,80
217440,note_on,1,0,4,,,,,,,,3,,,43,76
217560,set_tempo,1640,1,0,,,,,,560748,,,,,,
217679,note_on,719,0,1,,,,,,,,0,,,72,0
217679,note_on,239,0,2,,,,,,,,1,,,62,0
217680,note_on,1,0,2,,,,,,,,1,,,67,80
217680,note_on,1,0,1,,,,,,,,0,,,71,76
217919,note_on,479,0,4,,,,,,,,3,,,43,0
217919,note_on,239,0,2,,,,,,,,1,,,67,0
217919,note_on,479,0,3,,,,,,,,2,,,55,0
217919,note_on,239,0,1,,,,,,,,0,,,71,0
217920,note_on,1,0,1,,,,,,,,0,,,72,61
217920,note_on,1,0,4,,,,,,,,3,,,48,76
217920,note_on,1,0,3,,,,,,,,2,,,55,90
217920,note_on,1,0,2,,,,,,,,1,,,64,61
217971,control_change,51,0,4,,,,,,,,3,64,0,,
218040,control_change,120,0,3,,,,,,,,2,64,0,,
218159,note_on,239,0,2,,,,,,,,1,,,64,0
218160,note_on,1,0,2,,,,,,,,1,,,60,59
218352,note_on,312,0,3,,,,,,,,2,,,55,0
218352,note_on,381,0,4,,,,,,,,3,,,48,0
218399,note_on,239,0,2,,,,,,,,1,,,60,0
218400,note_on,1,0,2,,,,,,,,1,,,67,56
218519,note_on,599,0,1,,,,,,,,0,,,72,0
218520,note_on,1,0,1,,,,,,,,0,,,71,55
218580,note_on,60,0,1,,,,,,,,0,,,71,0
218640,note_on,60,0,1,,,,,,,,0,,,72,60
218700,note_on,60,0,1,,,,,,,,0,,,72,0
218760,note_on,60,0,1,,,,,,,,0,,,74,64
218814,note_on,54,0,1,,,,,,,,0,,,74,0
218820,set_tempo,1260,1,0,,,,,,538117,,,,,,
218880,note_on,66,0,1,,,,,,,,0,,,76,70
218999,note_on,599,0,2,,,,,,,,1,,,67,0
219000,note_on,1,0,2,,,,,,,,1,,,71,72
219119,note_on,239,0,1,,,,,,,,0,,,76,0
219119,note_on,119,0,2,,,,,,,,1,,,71,0
219120,note_on,1,0,2,,,,,,,,1,,,69,68
219120,note_on,1,0,1,,,,,,,,0,,,72,56
219239,note_on,119,0,2,,,,,,,,1,,,69,0
219240,note_on,1,0,2,,,,,,,,1,,,67,64
219359,note_on,119,0,2,,,,,,,,1,,,67,0
219359,note_on,239,0,1,,,,,,,,0,,,72,0
219360,note_on,1,0,2,,,,,,,,1,,,66,72
219360,note_on,1,0,1,,,,,,,,0,,,69,60
219479,note_on,119,0,2,,,,,,,,1,,,66,0
219480,note_on,1,0,2,,,,,,,,1,,,69,69
219599,note_on,119,0,2,,,,,,,,1,,,69,0
219599,note_on,239,0,1,,,,,,,,0,,,69,0
219600,note_on,1,0,2,,,,,,,,1,,,67,64
219600,note_on,1,0,1,,,,,,,,0,,,78,63
219719,note_on,119,0,2,,,,,,,,1,,,67,0
219720,note_on,1,0,2,,,,,,,,1,,,66,63
219839,note_on,239,0,1,,,,,,,,0,,,78,0
219839,note_on,119,0,2,,,,,,,,1,,,66,0
219840,note_on,1,0,1,,,,,,,,0,,,79,67
219840,note_on,1,0,2,,,,,,,,1,,,64,70
219959,note_on,119,0,2,,,,,,,,1,,,64,0
219960,note_on,1,0,2,,,,,,,,1,,,67,67
219980,set_tempo,1160,1,0,,,,,,534521,,,,,,
220079,note_on,119,0,2,,,,,,,,1,,,67,0
220079,note_on,239,0,1,,,,,,,,0,,,79,0
220080,note_on,1,0,1,,,,,,,,0,,,74,71
220080,note_on,1,0,2,,,,,,,,1,,,66,64
220199,note_on,119,0,2,,,,,,,,1,,,66,0
220200,note_on,1,0,2,,,,,,,,1,,,69,61
220319,note_on,239,0,1,,,,,,,,0,,,74,0
220319,note_on,119,0,2,,,,,,,,1,,,69,0
220320,note_on,1,0,2,,,,,,,,1,,,67,58
220320,note_on,1,0,1,,,,,,,,0,,,76,74
220559,note_on,239,0,1,,,,,,,,0,,,76,0
220560,note_on,1,0,1,,,,,,,,0,,,71,78
220776,note_on,216,0,1,,,,,,,,0,,,71,0
220800,note_on,24,0,1,,,,,,,,0,,,72,81
220820,set_tempo,840,1,0,,,,,,530973,,,,,,
220919,note_on,599,0,2,,,,,,,,1,,,67,0
220920,note_on,1,0,2,,,,,,,,1,,,64,58
221039,note_on,119,0,2,,,,,,,,1,,,64,0
221039,note_on,239,0,1,,,,,,,,0,,,72,0
221040,note_on,1,0,2,,,,,,,,1,,,65,60
221040,note_on,1,0,1,,,,,,,,0,,,74,58
221100,note_on,60,0,1,,,,,,,,0,,,74,0
221159,note_on,119,0,2,,,,,,,,1,,,65,0
221160,note_on,1,0,2,,,,,,,,1,,,67,63
221160,note_on,60,0,1,,,,,,,,0,,,76,64
221220,note_on,60,0,1,,,,,,,,0,,,76,0
221279,note_on,119,0,2,,,,,,,,1,,,67,0
221280,note_on,60,0,1,,,,,,,,0,,,77,70
221280,note_on,1,0,2,,,,,,,,1,,,69,66
221399,note_on,119,0,2,,,,,,,,1,,,69,0
221400,note_on,1,0,2,,,,,,,,1,,,65,68
221460,note_on,60,0,2,,,,,,,,1,,,65,0
221520,note_on,60,0,2,,,,,,,,1,,,67,66
221580,note_on,60,0,2,,,,,,,,1,,,67,0
221640,note_on,60,0,2,,,,,,,,1,,,69,61
221700,note_on,60,0,2,,,,,,,,1,,,69,0
221760,note_on,60,0,2,,,,,,,,1,,,62,57
221780,set_tempo,960,1,0,,,,,,534521,,,,,,
221879,note_on,599,0,1,,,,,,,,0,,,77,0
221880,note_on,1,0,1,,,,,,,,0,,,81,68
221999,note_on,119,0,1,,,,,,,,0,,,81,0
221999,note_on,239,0,2,,,,,,,,1,,,62,0
222000,note_on,1,0,1,,,,,,,,0,,,79,65
222000,note_on,1,0,2,,,,,,,,1,,,71,57
222119,note_on,119,0,1,,,,,,,,0,,,79,0
222120,note_on,1,0,1,,,,,,,,0,,,77,63
222239,note_on,119,0,1,,,,,,,,0,,,77,0
222239,note_on,239,0,2,,,,,,,,1,,,71,0
222240,note_on,1,0,1,,,,,,,,0,,,76,59
222240,note_on,1,0,2,,,,,,,,1,,,72,62
222359,note_on,119,0,1,,,,,,,,0,,,76,0
222360,note_on,1,0,1,,,,,,,,0,,,79,57
222479,note_on,119,0,1,,,,,,,,0,,,79,0
222480,note_on,1,0,1,,,,,,,,0,,,77,54
222599,note_on,119,0,1,,,,,,,,0,,,77,0
222600,note_on,1,0,1,,,,,,,,0,,,76,51
222708,note_on,108,0,1,,,,,,,,0,,,76,0
222720,note_on,4368,0,3,,,,,,,,2,,,55,76
222720,control_change,12,0,1,,,,,,,,0,64,127,,
222720,note_on,0,0,1,,,,,,,,0,,,74,55
222740,set_tempo,960,1,0,,,,,,538117,,,,,,
222839,note_on,599,0,2,,,,,,,,1,,,72,0
222840,note_on,1,0,2,,,,,,,,1,,,72,68
222959,note_on,119,0,2,,,,,,,,1,,,72,0
222960,note_on,1,0,2,,,,,,,,1,,,70,64
223079,note_on,119,0,2,,,,,,,,1,,,70,0
223080,note_on,1,0,2,,,,,,,,1,,,69,58
223199,note_on,119,0,2,,,,,,,,1,,,69,0
223199,note_on,479,0,1,,,,,,,,0,,,74,0
223200,note_on,1,0,1,,,,,,,,0,,,79,58
223200,note_on,1,0,2,,,,,,,,1,,,70,59
223319,note_on,599,0,3,,,,,,,,2,,,55,0
223320,note_on,1,0,3,,,,,,,,2,,,52,74
223380,note_on,60,0,3,,,,,,,,2,,,52,0
223440,note_on,60,0,3,,,,,,,,2,,,53,79
223500,note_on,60,0,3,,,,,,,,2,,,53,0
223560,note_on,60,0,3,,,,,,,,2,,,55,84
223620,note_on,60,0,3,,,,,,,,2,,,55,0
223679,note_on,479,0,1,,,,,,,,0,,,79,0
223680,note_on,0,0,1,,,,,,,,0,,,72,62
223680,note_on,60,0,3,,,,,,,,2,,,57,88
223680,control_change,1,0,1,,,,,,,,0,64,0,,
223700,set_tempo,960,1,0,,,,,,541761,,,,,,
223799,note_on,599,0,2,,,,,,,,1,,,70,0
223800,note_on,1,0,2,,,,,,,,1,,,70,63
223919,note_on,239,0,3,,,,,,,,2,,,57,0
223919,note_on,119,0,2,,,,,,,,1,,,70,0
223920,note_on,1,0,2,,,,,,,,1,,,69,63
223920,note_on,1,0,3,,,,,,,,2,,,53,84
224039,note_on,119,0,2,,,,,,,,1,,,69,0
224040,note_on,1,0,2,,,,,,,,1,,,67,60
224159,note_on,239,0,3,,,,,,,,2,,,53,0
224159,note_on,119,0,2,,,,,,,,1,,,67,0
224159,note_on,479,0,1,,,,,,,,0,,,72,0
224160,note_on,1,0,1,,,,,,,,0,,,74,67
224160,note_on,1,0,2,,,,,,,,1,,,65,57
224160,note_on,1,0,3,,,,,,,,2,,,50,80
224279,note_on,119,0,2,,,,,,,,1,,,65,0
224280,note_on,1,0,2,,,,,,,,1,,,69,56
224399,note_on,239,0,3,,,,,,,,2,,,50,0
224399,note_on,119,0,2,,,,,,,,1,,,69,0
224400,note_on,1,0,3,,,,,,,,2,,,59,78
224400,note_on,1,0,2,,,,,,,,1,,,67,54
224519,note_on,119,0,2,,,,,,,,1,,,67,0
224520,note_on,1,0,2,,,,,,,,1,,,65,51
224616,note_on,216,0,3,,,,,,,,2,,,59,0
224620,set_tempo,920,1,0,,,,,,545455,,,,,,
224628,note_on,108,0,2,,,,,,,,1,,,65,0
224640,note_on,12,0,2,,,,,,,,1,,,64,70
224640,note_on,6288,0,4,,,,,,,,3,,,48,76
224640,note_on,24,0,3,,,,,,,,2,,,60,74
224759,note_on,599,0,1,,,,,,,,0,,,74,0
224760,note_on,1,0,1,,,,,,,,0,,,74,86
224879,note_on,239,0,3,,,,,,,,2,,,60,0
224879,note_on,119,0,1,,,,,,,,0,,,74,0
224880,note_on,1,0,1,,,,,,,,0,,,72,85
224880,note_on,1,0,3,,,,,,,,2,,,55,70
224999,note_on,119,0,1,,,,,,,,0,,,72,0
225000,note_on,1,0,1,,,,,,,,0,,,71,81
225096,note_on,216,0,3,,,,,,,,2,,,55,0
225119,note_on,479,0,2,,,,,,,,1,,,64,0
225119,note_on,119,0,1,,,,,,,,0,,,71,0
225120,note_on,1,0,2,,,,,,,,1,,,62,66
225120,note_on,1,0,1,,,,,,,,0,,,69,78
225239,note_on,599,0,4,,,,,,,,3,,,48,0
225240,note_on,1,0,4,,,,,,,,3,,,47,76
225300,note_on,60,0,4,,,,,,,,3,,,47,0
225359,note_on,239,0,1,,,,,,,,0,,,69,0
225360,note_on,1,0,1,,,,,,,,0,,,74,72
225360,note_on,60,0,4,,,,,,,,3,,,48,76
225420,note_on,60,0,4,,,,,,,,3,,,48,0
225480,note_on,60,0,4,,,,,,,,3,,,50,76
225540,note_on,60,0,4,,,,,,,,3,,,50,0
225599,note_on,239,0,1,,,,,,,,0,,,74,0
225600,note_on,1,0,1,,,,,,,,0,,,67,68
225600,note_on,60,0,4,,,,,,,,3,,,52,76
225719,note_on,599,0,2,,,,,,,,1,,,62,0
225720,note_on,1,0,2,,,,,,,,1,,,65,67
225780,note_on,60,0,2,,,,,,,,1,,,65,0
225839,note_on,239,0,4,,,,,,,,3,,,52,0
225840,note_on,1,0,4,,,,,,,,3,,,48,76
225840,note_on,60,0,2,,,,,,,,1,,,64,63
225900,note_on,60,0,2,,,,,,,,1,,,64,0
225960,note_on,60,0,2,,,,,,,,1,,,62,60
226020,note_on,60,0,2,,,,,,,,1,,,62,0
226032,note_on,432,0,1,,,,,,,,0,,,67,0
226040,set_tempo,1420,1,0,,,,,,568720,,,,,,
226079,note_on,239,0,4,,,,,,,,3,,,48,0
226080,note_on,60,0,2,,,,,,,,1,,,60,56
226080,note_on,1,0,4,,,,,,,,3,,,45,76
226199,note_on,119,0,2,,,,,,,,1,,,60,0
226200,note_on,1,0,2,,,,,,,,1,,,64,57
226319,note_on,119,0,2,,,,,,,,1,,,64,0
226319,note_on,239,0,4,,,,,,,,3,,,45,0
226320,note_on,1,0,4,,,,,,,,3,,,54,76
226320,note_on,1,0,2,,,,,,,,1,,,62,59
226439,note_on,119,0,2,,,,,,,,1,,,62,0
226440,note_on,1,0,2,,,,,,,,1,,,60,61
226500,set_tempo,460,1,0,,,,,,603015,,,,,,
226536,note_on,216,0,4,,,,,,,,3,,,54,0
226548,note_on,108,0,2,,,,,,,,1,,,60,0
226560,note_on,12,0,2,,,,,,,,1,,,59,70
226560,note_on,24,0,4,,,,,,,,3,,,55,76
226679,note_on,119,0,2,,,,,,,,1,,,59,0
226680,note_on,1,0,2,,,,,,,,1,,,62,72
226799,note_on,239,0,4,,,,,,,,3,,,55,0
226799,note_on,119,0,2,,,,,,,,1,,,62,0
226800,note_on,1,0,4,,,,,,,,3,,,50,76
226800,note_on,1,0,2,,,,,,,,1,,,64,73
226919,note_on,119,0,2,,,,,,,,1,,,64,0
226920,note_on,1,0,2,,,,,,,,1,,,66,73
226940,set_tempo,440,1,0,,,,,,598504,,,,,,
227039,note_on,239,0,4,,,,,,,,3,,,50,0
227039,note_on,119,0,2,,,,,,,,1,,,66,0
227040,note_on,1,0,2,,,,,,,,1,,,67,74
227040,note_on,1,0,4,,,,,,,,3,,,52,76
227159,note_on,119,0,2,,,,,,,,1,,,67,0
227160,note_on,1,0,2,,,,,,,,1,,,66,71
227279,note_on,239,0,4,,,,,,,,3,,,52,0
227279,note_on,119,0,2,,,,,,,,1,,,66,0
227280,note_on,1,0,4,,,,,,,,3,,,49,76
227280,note_on,1,0,2,,,,,,,,1,,,67,69
227380,set_tempo,440,1,0,,,,,,594059,,,,,,
227399,note_on,119,0,2,,,,,,,,1,,,67,0
227400,note_on,1,0,2,,,,,,,,1,,,69,67
227519,note_on,239,0,4,,,,,,,,3,,,49,0
227520,note_on,1488,0,1,,,,,,,,0,,,71,76
227520,note_on,1,0,4,,,,,,,,3,,,51,76
227639,note_on,239,0,2,,,,,,,,1,,,69,0
227639,note_on,119,0,4,,,,,,,,3,,,51,0
227640,note_on,1,0,4,,,,,,,,3,,,47,76
227640,note_on,1,0,2,,,,,,,,1,,,69,80
227700,note_on,60,0,4,,,,,,,,3,,,47,0
227759,note_on,119,0,2,,,,,,,,1,,,69,0
227760,note_on,60,0,4,,,,,,,,3,,,52,76
227760,note_on,1,0,2,,,,,,,,1,,,67,78
227820,note_on,60,0,4,,,,,,,,3,,,52,0
227820,set_tempo,440,1,0,,,,,,589681,,,,,,
227879,note_on,119,0,2,,,,,,,,1,,,67,0
227880,note_on,60,0,4,,,,,,,,3,,,54,76
227880,note_on,1,0,2,,,,,,,,1,,,66,75
227940,note_on,60,0,4,,,,,,,,3,,,54,0
227999,note_on,119,0,2,,,,,,,,1,,,66,0
228000,note_on,60,0,4,,,,,,,,3,,,55,76
228000,note_on,1,0,2,,,,,,,,1,,,64,74
228119,note_on,599,0,1,,,,,,,,0,,,71,0
228120,note_on,1,0,1,,,,,,,,0,,,67,72
228180,note_on,60,0,1,,,,,,,,0,,,67,0
228239,note_on,239,0,4,,,,,,,,3,,,55,0
228240,note_on,1,0,4,,,,,,,,3,,,52,76
228240,note_on,60,0,1,,,,,,,,0,,,69,76
228260,set_tempo,440,1,0,,,,,,585366,,,,,,
228300,note_on,60,0,1,,,,,,,,0,,,69,0
228360,note_on,60,0,1,,,,,,,,0,,,71,81
228414,note_on,54,0,1,,,,,,,,0,,,71,0
228456,note_on,216,0,4,,,,,,,,3,,,52,0
228480,note_on,66,0,1,,,,,,,,0,,,72,85
228480,note_on,24,0,4,,,,,,,,3,,,57,76
228599,note_on,599,0,2,,,,,,,,1,,,64,0
228600,note_on,1,0,2,,,,,,,,1,,,62,88
228700,set_tempo,440,1,0,,,,,,581114,,,,,,
228719,note_on,119,0,2,,,,,,,,1,,,62,0
228719,note_on,239,0,1,,,,,,,,0,,,72,0
228720,note_on,1,0,1,,,,,,,,0,,,69,92
228720,note_on,1,0,2,,,,,,,,1,,,60,84
228839,note_on,119,0,2,,,,,,,,1,,,60,0
228840,note_on,1,0,2,,,,,,,,1,,,59,79
228959,note_on,239,0,1,,,,,,,,0,,,69,0
228959,note_on,119,0,2,,,,,,,,1,,,59,0
228960,note_on,1,0,2,,,,,,,,1,,,57,74
228960,note_on,1,0,1,,,,,,,,0,,,66,88
229079,note_on,599,0,4,,,,,,,,3,,,57,0
229080,note_on,1,0,4,,,,,,,,3,,,60,76
229140,set_tempo,440,1,0,,,,,,576923,,,,,,
229199,note_on,119,0,4,,,,,,,,3,,,60,0
229199,note_on,239,0,1,,,,,,,,0,,,66,0
229199,note_on,239,0,2,,,,,,,,1,,,57,0
229200,note_on,1,0,4,,,,,,,,3,,,59,76
229200,note_on,1,0,1,,,,,,,,0,,,74,86
229200,note_on,1,0,2,,,,,,,,1,,,65,76
229319,note_on,119,0,4,,,,,,,,3,,,59,0
229320,note_on,1,0,4,,,,,,,,3,,,57,76
229439,note_on,119,0,4,,,,,,,,3,,,57,0
229439,note_on,239,0,2,,,,,,,,1,,,65,0
229439,note_on,239,0,1,,,,,,,,0,,,74,0
229440,note_on,1,0,2,,,,,,,,1,,,74,88
229440,note_on,4344,0,3,,,,,,,,2,,,59,76
229440,note_on,1,0,4,,,,,,,,3,,,56,76
229440,note_on,1,0,1,,,,,,,,0,,,76,82
229559,note_on,119,0,4,,,,,,,,3,,,56,0
229559,note_on,119,0,2,,,,,,,,1,,,74,0
229560,note_on,1,0,2,,,,,,,,1,,,74,86
229560,note_on,1,0,4,,,,,,,,3,,,52,76
229580,set_tempo,440,1,0,,,,,,572792,,,,,,
229620,note_on,60,0,4,,,,,,,,3,,,52,0
229656,note_on,216,0,3,,,,,,,,2,,,59,0
229679,note_on,119,0,2,,,,,,,,1,,,74,0
229680,note_on,1,0,2,,,,,,,,1,,,72,82
229680,note_on,60,0,4,,,,,,,,3,,,57,76
229740,note_on,60,0,4,,,,,,,,3,,,57,0
229799,note_on,119,0,2,,,,,,,,1,,,72,0
229800,note_on,60,0,4,,,,,,,,3,,,59,76
229800,note_on,1,0,2,,,,,,,,1,,,71,79
229860,note_on,60,0,4,,,,,,,,3,,,59,0
229919,note_on,119,0,2,,,,,,,,1,,,71,0
229920,note_on,60,0,4,,,,,,,,3,,,60,76
229920,note_on,1,0,2,,,,,,,,1,,,69,75
230020,set_tempo,440,1,0,,,,,,568720,,,,,,
230039,note_on,599,0,1,,,,,,,,0,,,76,0
230040,note_on,1,0,1,,,,,,,,0,,,72,75
230100,note_on,60,0,1,,,,,,,,0,,,72,0
230159,note_on,239,0,4,,,,,,,,3,,,60,0
230160,note_on,1,0,4,,,,,,,,3,,,57,76
230160,note_on,60,0,1,,,,,,,,0,,,74,79
230220,note_on,60,0,1,,,,,,,,0,,,74,0
230280,note_on,60,0,1,,,,,,,,0,,,76,84
230334,note_on,54,0,1,,,,,,,,0,,,76,0
230376,note_on,216,0,4,,,,,,,,3,,,57,0
230400,note_on,744,0,3,,,,,,,,2,,,62,78
230400,note_on,66,0,1,,,,,,,,0,,,77,88
230460,set_tempo,440,1,0,,,,,,564706,,,,,,
230519,note_on,119,0,3,,,,,,,,2,,,62,0
230520,note_on,1,0,3,,,,,,,,2,,,67,80
230639,note_on,119,0,3,,,,,,,,2,,,67,0
230639,note_on,239,0,1,,,,,,,,0,,,77,0
230640,note_on,1,0,3,,,,,,,,2,,,65,84
230640,note_on,1,0,1,,,,,,,,0,,,74,87
230759,note_on,119,0,3,,,,,,,,2,,,65,0
230760,note_on,1,0,3,,,,,,,,2,,,64,87
230879,note_on,119,0,3,,,,,,,,2,,,64,0
230879,note_on,239,0,1,,,,,,,,0,,,74,0
230879,note_on,959,0,2,,,,,,,,1,,,69,0
230880,note_on,1,0,1,,,,,,,,0,,,71,85
230880,note_on,1,0,2,,,,,,,,1,,,71,76
230880,note_on,1,0,3,,,,,,,,2,,,62,91
230999,note_on,119,0,3,,,,,,,,2,,,62,0
231000,note_on,1,0,3,,,,,,,,2,,,65,91
231119,note_on,239,0,1,,,,,,,,0,,,71,0
231119,note_on,119,0,3,,,,,,,,2,,,65,0
231120,note_on,1,0,1,,,,,,,,0,,,80,84
231120,note_on,1,0,3,,,,,,,,2,,,64,90
231239,note_on,119,0,3,,,,,,,,2,,,64,0
231240,note_on,1,0,3,,,,,,,,2,,,62,87
231312,note_on,432,0,2,,,,,,,,1,,,71,0
231359,note_on,119,0,3,,,,,,,,2,,,62,0
231359,note_on,239,0,1,,,,,,,,0,,,80,0
231360,note_on,1,0,1,,,,,,,,0,,,81,75
231360,note_on,1,0,3,,,,,,,,2,,,64,85
231360,note_on,984,0,4,,,,,,,,3,,,60,76
231479,note_on,119,0,3,,,,,,,,2,,,64,0
231480,note_on,1,0,3,,,,,,,,2,,,68,82
231599,note_on,119,0,3,,,,,,,,2,,,68,0
231599,note_on,239,0,1,,,,,,,,0,,,81,0
231600,note_on,1,0,3,,,,,,,,2,,,69,80
231600,note_on,1,0,1,,,,,,,,0,,,76,84
231719,note_on,119,0,3,,,,,,,,2,,,69,0
231720,set_tempo,1260,1,0,,,,,,552995,,,,,,
231720,note_on,1,0,3,,,,,,,,2,,,71,79
231839,note_on,239,0,1,,,,,,,,0,,,76,0
231839,note_on,119,0,3,,,,,,,,2,,,71,0
231840,note_on,1,0,1,,,,,,,,0,,,81,91
231840,set_tempo,120,1,0,,,,,,549199,,,,,,
231840,note_on,1,0,3,,,,,,,,2,,,72,76
231959,note_on,119,0,3,,,,,,,,2,,,72,0
231959,note_on,599,0,4,,,,,,,,3,,,60,0
231960,note_on,1,0,3,,,,,,,,2,,,76,74
231960,note_on,1,0,4,,,,,,,,3,,,60,76
232079,note_on,119,0,3,,,,,,,,2,,,76,0
232079,note_on,119,0,4,,,,,,,,3,,,60,0
232080,note_on,1,0,3,,,,,,,,2,,,74,72
232080,note_on,1,0,4,,,,,,,,3,,,59,76
232199,note_on,119,0,3,,,,,,,,2,,,74,0
232199,note_on,119,0,4,,,,,,,,3,,,59,0
232200,note_on,1,0,4,,,,,,,,3,,,57,76
232200,note_on,1,0,3,,,,,,,,2,,,72,70
232308,note_on,108,0,3,,,,,,,,2,,,72,0
232308,note_on,108,0,4,,,,,,,,3,,,57,0
232320,note_on,1008,0,2,,,,,,,,1,,,74,75
232320,note_on,12,0,4,,,,,,,,3,,,59,76
232439,note_on,119,0,2,,,,,,,,1,,,74,0
232439,note_on,119,0,4,,,,,,,,3,,,59,0
232440,note_on,1,0,2,,,,,,,,1,,,71,77
232440,note_on,1,0,4,,,,,,,,3,,,62,75
232500,note_on,60,0,2,,,,,,,,1,,,71,0
232559,note_on,119,0,4,,,,,,,,3,,,62,0
232560,note_on,1,0,4,,,,,,,,3,,,64,73
232560,note_on,60,0,2,,,,,,,,1,,,72,78
232620,note_on,60,0,2,,,,,,,,1,,,72,0
232640,set_tempo,800,1,0,,,,,,545455,,,,,,
232679,note_on,119,0,4,,,,,,,,3,,,64,0
232680,note_on,1,0,4,,,,,,,,3,,,65,72
232680,note_on,60,0,2,,,,,,,,1,,,74,80
232740,note_on,60,0,2,,,,,,,,1,,,74,0
232799,note_on,119,0,4,,,,,,,,3,,,65,0
232800,note_on,1,0,4,,,,,,,,3,,,67,71
232800,note_on,60,0,2,,,,,,,,1,,,76,80
232919,note_on,1079,0,1,,,,,,,,0,,,81,0
232920,note_on,1,0,1,,,,,,,,0,,,77,69
233039,note_on,239,0,4,,,,,,,,3,,,67,0
233039,note_on,119,0,1,,,,,,,,0,,,77,0
233040,note_on,1,0,4,,,,,,,,3,,,58,69
233040,note_on,1,0,1,,,,,,,,0,,,79,77
233159,note_on,359,0,2,,,,,,,,1,,,76,0
233160,note_on,1,0,2,,,,,,,,1,,,74,66
233279,note_on,239,0,4,,,,,,,,3,,,58,0
233279,note_on,119,0,2,,,,,,,,1,,,74,0
233280,note_on,1,0,4,,,,,,,,3,,,57,65
233280,note_on,1,0,2,,,,,,,,1,,,72,73
233399,note_on,119,0,2,,,,,,,,1,,,72,0
233400,note_on,1,0,2,,,,,,,,1,,,64,69
233400,set_tempo,760,1,0,,,,,,541761,,,,,,
233460,note_on,60,0,2,,,,,,,,1,,,64,0
233519,note_on,479,0,1,,,,,,,,0,,,79,0
233520,note_on,60,0,2,,,,,,,,1,,,65,65
233520,note_on,1,0,1,,,,,,,,0,,,72,63
233580,note_on,60,0,2,,,,,,,,1,,,65,0
233640,note_on,60,0,2,,,,,,,,1,,,67,60
233700,note_on,60,0,2,,,,,,,,1,,,67,0
233759,note_on,239,0,1,,,,,,,,0,,,72,0
233760,note_on,60,0,2,,,,,,,,1,,,69,62
233760,note_on,1,0,1,,,,,,,,0,,,77,71
233820,note_on,60,0,2,,,,,,,,1,,,69,0
233879,note_on,599,0,4,,,,,,,,3,,,57,0
233880,note_on,60,0,2,,,,,,,,1,,,72,82
233880,note_on,1,0,4,,,,,,,,3,,,57,74
233999,note_on,119,0,2,,,,,,,,1,,,72,0
233999,note_on,119,0,4,,,,,,,,3,,,57,0
234000,note_on,1,0,2,,,,,,,,1,,,71,85
234000,note_on,1,0,4,,,,,,,,3,,,55,74
234119,note_on,119,0,4,,,,,,,,3,,,55,0
234119,note_on,119,0,2,,,,,,,,1,,,71,0
234120,note_on,1,0,4,,,,,,,,3,,,53,74
234120,note_on,1,0,2,,,,,,,,1,,,69,89
234160,set_tempo,760,1,0,,,,,,538117,,,,,,
234228,note_on,108,0,4,,,,,,,,3,,,53,0
234228,note_on,108,0,2,,,,,,,,1,,,69,0
234240,note_on,1932,0,3,,,,,,,,2,,,55,68
234240,note_on,12,0,2,,,,,,,,1,,,71,86
234359,note_on,119,0,2,,,,,,,,1,,,71,0
234359,note_on,119,0,3,,,,,,,,2,,,55,0
234360,note_on,1,0,2,,,,,,,,1,,,67,82
234360,note_on,1,0,3,,,,,,,,2,,,59,72
234420,note_on,60,0,2,,,,,,,,1,,,67,0
234479,note_on,119,0,3,,,,,,,,2,,,59,0
234480,note_on,60,0,2,,,,,,,,1,,,69,77
234480,note_on,1,0,3,,,,,,,,2,,,60,75
234540,note_on,60,0,2,,,,,,,,1,,,69,0
234599,note_on,119,0,3,,,,,,,,2,,,60,0
234600,note_on,1,0,3,,,,,,,,2,,,62,77
234600,note_on,60,0,2,,,,,,,,1,,,71,73
234660,note_on,60,0,2,,,,,,,,1,,,71,0
234719,note_on,119,0,3,,,,,,,,2,,,62,0
234720,note_on,60,0,2,,,,,,,,1,,,72,69
234720,note_on,1,0,3,,,,,,,,2,,,64,81
234839,note_on,1079,0,1,,,,,,,,0,,,77,0
234840,note_on,1,0,1,,,,,,,,0,,,74,73
234920,set_tempo,760,1,0,,,,,,534521,,,,,,
234959,note_on,239,0,3,,,,,,,,2,,,64,0
234959,note_on,119,0,1,,,,,,,,0,,,74,0
234960,note_on,1,0,1,,,,,,,,0,,,76,85
234960,note_on,1,0,3,,,,,,,,2,,,55,73
235079,note_on,359,0,2,,,,,,,,1,,,72,0
235080,note_on,1,0,2,,,,,,,,1,,,70,72
235199,note_on,119,0,2,,,,,,,,1,,,70,0
235199,note_on,239,0,3,,,,,,,,2,,,55,0
235200,note_on,1,0,2,,,,,,,,1,,,69,71
235200,note_on,1,0,3,,,,,,,,2,,,53,72
235319,note_on,119,0,2,,,,,,,,1,,,69,0
235320,note_on,1,0,2,,,,,,,,1,,,60,75
235380,note_on,60,0,2,,,,,,,,1,,,60,0
235439,note_on,479,0,1,,,,,,,,0,,,76,0
235440,note_on,60,0,2,,,,,,,,1,,,62,78
235440,note_on,1,0,1,,,,,,,,0,,,69,72
235500,note_on,60,0,2,,,,,,,,1,,,62,0
235560,note_on,60,0,2,,,,,,,,1,,,64,82
235620,note_on,60,0,2,,,,,,,,1,,,64,0
235679,note_on,239,0,1,,,,,,,,0,,,69,0
235680,note_on,1,0,1,,,,,,,,0,,,74,78
235680,note_on,60,0,2,,,,,,,,1,,,65,87
235720,set_tempo,800,1,0,,,,,,530973,,,,,,
235799,note_on,599,0,3,,,,,,,,2,,,53,0
235799,note_on,119,0,2,,,,,,,,1,,,65,0
235800,note_on,1,0,3,,,,,,,,2,,,53,85
235800,note_on,1,0,2,,,,,,,,1,,,69,82
235919,note_on,119,0,3,,,,,,,,2,,,53,0
235919,note_on,119,0,2,,,,,,,,1,,,69,0
235920,note_on,1,0,2,,,,,,,,1,,,67,80
235920,note_on,1,0,3,,,,,,,,2,,,52,80
236039,note_on,119,0,3,,,,,,,,2,,,52,0
236039,note_on,119,0,2,,,,,,,,1,,,67,0
236040,note_on,1,0,3,,,,,,,,2,,,50,76
236040,note_on,1,0,2,,,,,,,,1,,,65,76
236148,note_on,108,0,2,,,,,,,,1,,,65,0
236148,note_on,108,0,3,,,,,,,,2,,,50,0
236160,note_on,12,0,2,,,,,,,,1,,,67,74
236160,note_on,1932,0,4,,,,,,,,3,,,52,72
236172,control_change,12,0,4,,,,,,,,3,64,127,,
236180,set_tempo,460,1,0,,,,,,530973,,,,,,
236279,note_on,107,0,4,,,,,,,,3,,,52,0
236279,note_on,119,0,2,,,,,,,,1,,,67,0
236280,note_on,1,0,4,,,,,,,,3,,,55,72
236280,note_on,1,0,2,,,,,,,,1,,,64,71
236340,note_on,60,0,2,,,,,,,,1,,,64,0
236399,note_on,119,0,4,,,,,,,,3,,,55,0
236400,note_on,1,0,4,,,,,,,,3,,,57,71
236400,note_on,60,0,2,,,,,,,,1,,,65,67
236460,note_on,60,0,2,,,,,,,,1,,,65,0
236519,note_on,119,0,4,,,,,,,,3,,,57,0
236520,note_on,1,0,4,,,,,,,,3,,,59,71
236520,note_on,60,0,2,,,,,,,,1,,,67,63
236580,note_on,60,0,2,,,,,,,,1,,,67,0
236639,note_on,119,0,4,,,,,,,,3,,,59,0
236640,control_change,1,0,4,,,,,,,,3,64,0,,
236640,note_on,60,0,2,,,,,,,,1,,,69,60
236640,note_on,0,0,4,,,,,,,,3,,,60,71
236660,set_tempo,480,1,0,,,,,,534521,,,,,,
236759,note_on,1079,0,1,,,,,,,,0,,,74,0
236760,note_on,1,0,1,,,,,,,,0,,,71,71
236879,note_on,239,0,4,,,,,,,,3,,,60,0
236879,note_on,119,0,1,,,,,,,,0,,,71,0
236880,note_on,1,0,4,,,,,,,,3,,,52,71
236880,note_on,1,0,1,,,,,,,,0,,,72,82
236999,note_on,359,0,2,,,,,,,,1,,,69,0
237000,note_on,1,0,2,,,,,,,,1,,,67,71
237100,set_tempo,440,1,0,,,,,,538117,,,,,,
237119,note_on,119,0,2,,,,,,,,1,,,67,0
237119,note_on,239,0,4,,,,,,,,3,,,52,0
237120,note_on,1,0,2,,,,,,,,1,,,65,79
237120,note_on,1,0,4,,,,,,,,3,,,50,70
237239,note_on,359,0,1,,,,,,,,0,,,72,0
237240,note_on,1,0,1,,,,,,,,0,,,72,80
237359,note_on,119,0,1,,,,,,,,0,,,72,0
237360,note_on,1,0,1,,,,,,,,0,,,70,78
237360,note_on,1212,0,3,,,,,,,,2,,,53,70
237479,note_on,119,0,1,,,,,,,,0,,,70,0
237480,note_on,1,0,1,,,,,,,,0,,,69,64
237540,set_tempo,440,1,0,,,,,,541761,,,,,,
237599,note_on,119,0,1,,,,,,,,0,,,69,0
237600,note_on,1,0,1,,,,,,,,0,,,70,73
237719,note_on,599,0,2,,,,,,,,1,,,65,0
237719,note_on,359,0,3,,,,,,,,2,,,53,0
237720,note_on,1,0,3,,,,,,,,2,,,52,67
237720,note_on,1,0,2,,,,,,,,1,,,67,66
237780,note_on,60,0,3,,,,,,,,2,,,52,0
237839,note_on,119,0,2,,,,,,,,1,,,67,0
237840,note_on,60,0,3,,,,,,,,2,,,53,71
237840,note_on,1,0,2,,,,,,,,1,,,65,64
237900,note_on,60,0,3,,,,,,,,2,,,53,0
237940,set_tempo,400,1,0,,,,,,541761,,,,,,
237959,note_on,119,0,2,,,,,,,,1,,,65,0
237960,note_on,1,0,2,,,,,,,,1,,,64,60
237960,note_on,60,0,3,,,,,,,,2,,,55,75
237984,note_on,864,0,4,,,,,,,,3,,,50,0
238014,note_on,54,0,3,,,,,,,,2,,,55,0
238032,note_on,432,0,1,,,,,,,,0,,,70,0
238068,note_on,108,0,2,,,,,,,,1,,,64,0
238080,note_on,48,0,1,,,,,,,,0,,,69,70
238080,note_on,96,0,4,,,,,,,,3,,,48,69
238080,note_on,12,0,2,,,,,,,,1,,,65,57
238080,note_on,66,0,3,,,,,,,,2,,,57,79
238100,set_tempo,160,1,0,,,,,,585366,,,,,,
238104,control_change,24,0,4,,,,,,,,3,64,127,,
238199,note_on,119,0,1,,,,,,,,0,,,69,0
238200,note_on,1,0,1,,,,,,,,0,,,72,66
238319,note_on,119,0,1,,,,,,,,0,,,72,0
238319,note_on,239,0,3,,,,,,,,2,,,57,0
238320,note_on,1,0,1,,,,,,,,0,,,74,61
238320,note_on,1,0,3,,,,,,,,2,,,53,77
238420,set_tempo,320,1,0,,,,,,581114,,,,,,
238439,note_on,119,0,1,,,,,,,,0,,,74,0
238440,note_on,1,0,1,,,,,,,,0,,,76,55
238559,note_on,239,0,3,,,,,,,,2,,,53,0
238559,note_on,119,0,1,,,,,,,,0,,,76,0
238560,note_on,1,0,3,,,,,,,,2,,,50,73
238560,note_on,1,0,1,,,,,,,,0,,,77,71
238679,note_on,599,0,2,,,,,,,,1,,,65,0
238680,note_on,1,0,2,,,,,,,,1,,,74,54
238700,set_tempo,280,1,0,,,,,,576923,,,,,,
238799,note_on,119,0,2,,,,,,,,1,,,74,0
238799,note_on,239,0,3,,,,,,,,2,,,50,0
238800,note_on,1,0,3,,,,,,,,2,,,59,70
238800,note_on,1,0,2,,,,,,,,1,,,67,60
238919,note_on,359,0,1,,,,,,,,0,,,77,0
238920,note_on,1,0,1,,,,,,,,0,,,77,60
238980,set_tempo,280,1,0,,,,,,572792,,,,,,
239039,note_on,239,0,3,,,,,,,,2,,,59,0
239039,note_on,119,0,1,,,,,,,,0,,,77,0
239040,note_on,1,0,3,,,,,,,,2,,,60,60
239040,note_on,1,0,1,,,,,,,,0,,,76,59
239064,control_change,960,0,4,,,,,,,,3,64,0,,
239159,note_on,359,0,2,,,,,,,,1,,,67,0
239160,note_on,1,0,2,,,,,,,,1,,,67,49
239260,set_tempo,280,1,0,,,,,,568720,,,,,,
239279,note_on,239,0,3,,,,,,,,2,,,60,0
239279,note_on,215,0,4,,,,,,,,3,,,48,0
239279,note_on,119,0,2,,,,,,,,1,,,67,0
239280,note_on,1,0,2,,,,,,,,1,,,69,51
239280,note_on,1,0,3,,,,,,,,2,,,55,65
239280,note_on,1,0,4,,,,,,,,3,,,47,68
239399,note_on,119,0,2,,,,,,,,1,,,69,0
239400,note_on,1,0,2,,,,,,,,1,,,71,54
239519,note_on,239,0,3,,,,,,,,2,,,55,0
239519,note_on,239,0,4,,,,,,,,3,,,47,0
239519,note_on,119,0,2,,,,,,,,1,,,71,0
239520,note_on,1,0,3,,,,,,,,2,,,57,63
239520,note_on,1,0,2,,,,,,,,1,,,72,56
239520,note_on,1,0,4,,,,,,,,3,,,45,68
239540,set_tempo,280,1,0,,,,,,564706,,,,,,
239639,note_on,599,0,1,,,,,,,,0,,,76,0
239640,note_on,1,0,1,,,,,,,,0,,,74,59
239759,note_on,119,0,1,,,,,,,,0,,,74,0
239760,note_on,1,0,1,,,,,,,,0,,,76,61
239820,set_tempo,280,1,0,,,,,,560748,,,,,,
239879,note_on,119,0,1,,,,,,,,0,,,76,0
239880,note_on,1,0,1,,,,,,,,0,,,78,64
239952,note_on,432,0,3,,,,,,,,2,,,57,0
239952,note_on,432,0,4,,,,,,,,3,,,45,0
239988,note_on,108,0,1,,,,,,,,0,,,78,0
240000,note_on,48,0,3,,,,,,,,2,,,50,67
240000,note_on,12,0,1,,,,,,,,0,,,79,82
240000,note_on,0,0,4,,,,,,,,3,,,43,67
240000,control_change,48,0,4,,,,,,,,3,64,127,,
240100,set_tempo,280,1,0,,,,,,556845,,,,,,
240119,note_on,599,0,2,,,,,,,,1,,,72,0
240120,note_on,1,0,2,,,,,,,,1,,,72,80
240239,note_on,119,0,2,,,,,,,,1,,,72,0
240240,note_on,1,0,2,,,,,,,,1,,,71,75
240359,note_on,119,0,2,,,,,,,,1,,,71,0
240360,note_on,1,0,2,,,,,,,,1,,,69,72
240380,set_tempo,280,1,0,,,,,,552995,,,,,,
240432,note_on,432,0,4,,,,,,,,3,,,43,0
240479,note_on,119,0,2,,,,,,,,1,,,69,0
240480,note_on,1,0,2,,,,,,,,1,,,71,68
240599,note_on,599,0,1,,,,,,,,0,,,79,0
240600,note_on,1,0,1,,,,,,,,0,,,81,82
240660,set_tempo,280,1,0,,,,,,549199,,,,,,
240696,note_on,216,0,2,,,,,,,,1,,,71,0
240719,note_on,119,0,1,,,,,,,,0,,,81,0
240720,note_on,1,0,1,,,,,,,,0,,,79,79
240839,note_on,119,0,1,,,,,,,,0,,,79,0
240840,note_on,1,0,1,,,,,,,,0,,,77,74
240940,set_tempo,280,1,0,,,,,,545455,,,,,,
240959,note_on,119,0,1,,,,,,,,0,,,77,0
240960,note_on,1,0,1,,,,,,,,0,,,76,70
240960,control_change,528,0,4,,,,,,,,3,64,0,,
241079,note_on,1079,0,3,,,,,,,,2,,,50,0
241080,note_on,1,0,3,,,,,,,,2,,,60,70
241199,note_on,239,0,1,,,,,,,,0,,,76,0
241199,note_on,119,0,3,,,,,,,,2,,,60,0
241200,note_on,1,0,1,,,,,,,,0,,,80,68
241200,note_on,1,0,3,,,,,,,,2,,,59,68
241319,note_on,119,0,3,,,,,,,,2,,,59,0
241320,note_on,1,0,3,,,,,,,,2,,,57,67
241439,note_on,119,0,3,,,,,,,,2,,,57,0
241439,note_on,239,0,1,,,,,,,,0,,,80,0
241440,note_on,1,0,3,,,,,,,,2,,,56,65
241440,set_tempo,500,1,0,,,,,,541761,,,,,,
241440,note_on,1,0,1,,,,,,,,0,,,83,79
241559,note_on,119,0,3,,,,,,,,2,,,56,0
241560,note_on,1,0,3,,,,,,,,2,,,59,63
241679,note_on,239,0,1,,,,,,,,0,,,83,0
241679,note_on,119,0,3,,,,,,,,2,,,59,0
241680,note_on,1,0,3,,,,,,,,2,,,57,62
241680,note_on,1,0,1,,,,,,,,0,,,74,66
241760,set_tempo,320,1,0,,,,,,556845,,,,,,
241799,note_on,119,0,3,,,,,,,,2,,,57,0
241800,note_on,1,0,3,,,,,,,,2,,,56,59
241896,note_on,216,0,1,,,,,,,,0,,,74,0
241908,note_on,108,0,3,,,,,,,,2,,,56,0
241920,note_on,12,0,3,,,,,,,,2,,,57,72
241920,note_on,1224,0,2,,,,,,,,1,,,72,65
241920,note_on,24,0,1,,,,,,,,0,,,72,65
241980,note_on,60,0,1,,,,,,,,0,,,72,0
242039,note_on,119,0,3,,,,,,,,2,,,57,0
242040,note_on,60,0,1,,,,,,,,0,,,74,68
242040,note_on,1,0,3,,,,,,,,2,,,69,69
242100,note_on,60,0,1,,,,,,,,0,,,74,0
242159,note_on,119,0,3,,,,,,,,2,,,69,0
242160,note_on,1,0,3,,,,,,,,2,,,67,67
242160,note_on,60,0,1,,,,,,,,0,,,76,70
242220,note_on,60,0,1,,,,,,,,0,,,76,0
242279,note_on,119,0,3,,,,,,,,2,,,67,0
242280,note_on,1,0,3,,,,,,,,2,,,65,63
242280,note_on,60,0,1,,,,,,,,0,,,77,73
242399,note_on,119,0,3,,,,,,,,2,,,65,0
242399,note_on,119,0,1,,,,,,,,0,,,77,0
242400,note_on,1,0,1,,,,,,,,0,,,79,66
242400,note_on,1,0,3,,,,,,,,2,,,64,62
242519,note_on,599,0,2,,,,,,,,1,,,72,0
242520,note_on,1,0,2,,,,,,,,1,,,74,76
242639,note_on,119,0,2,,,,,,,,1,,,74,0
242640,note_on,1,0,2,,,,,,,,1,,,72,73
242759,note_on,119,0,2,,,,,,,,1,,,72,0
242760,note_on,1,0,2,,,,,,,,1,,,70,69
242760,set_tempo,1000,1,0,,,,,,552995,,,,,,
242879,note_on,479,0,1,,,,,,,,0,,,79,0
242879,note_on,119,0,2,,,,,,,,1,,,70,0
242880,note_on,1,0,1,,,,,,,,0,,,77,67
242880,note_on,1,0,2,,,,,,,,1,,,69,65
242999,note_on,599,0,3,,,,,,,,2,,,64,0
243000,note_on,1,0,3,,,,,,,,2,,,65,75
243119,note_on,119,0,3,,,,,,,,2,,,65,0
243119,note_on,239,0,2,,,,,,,,1,,,69,0
243119,note_on,239,0,1,,,,,,,,0,,,77,0
243120,note_on,1,0,1,,,,,,,,0,,,82,76
243120,note_on,1,0,3,,,,,,,,2,,,64,74
243120,note_on,1,0,2,,,,,,,,1,,,73,66
243239,note_on,119,0,3,,,,,,,,2,,,64,0
243240,note_on,1,0,3,,,,,,,,2,,,62,72
243359,note_on,239,0,2,,,,,,,,1,,,73,0
243359,note_on,119,0,3,,,,,,,,2,,,62,0
243360,note_on,1,0,2,,,,,,,,1,,,76,67
243360,note_on,1,0,3,,,,,,,,2,,,61,71
243479,note_on,119,0,3,,,,,,,,2,,,61,0
243480,note_on,1,0,3,,,,,,,,2,,,64,70
243599,note_on,119,0,3,,,,,,,,2,,,64,0
243599,note_on,479,0,1,,,,,,,,0,,,82,0
243599,note_on,239,0,2,,,,,,,,1,,,76,0
243600,note_on,1,0,3,,,,,,,,2,,,62,68
243600,note_on,1,0,1,,,,,,,,0,,,70,68
243600,note_on,1,0,2,,,,,,,,1,,,67,68
243719,note_on,119,0,3,,,,,,,,2,,,62,0
243720,set_tempo,960,1,0,,,,,,549199,,,,,,
243720,note_on,1,0,3,,,,,,,,2,,,61,67
243816,note_on,216,0,2,,,,,,,,1,,,67,0
243828,note_on,108,0,3,,,,,,,,2,,,61,0
243840,note_on,24,0,2,,,,,,,,1,,,65,69
243840,note_on,12,0,3,,,,,,,,2,,,62,66
243959,note_on,359,0,1,,,,,,,,0,,,70,0
243960,note_on,1,0,1,,,,,,,,0,,,69,71
244020,note_on,60,0,1,,,,,,,,0,,,69,0
244080,note_on,60,0,1,,,,,,,,0,,,71,76
244140,note_on,60,0,1,,,,,,,,0,,,71,0
244200,note_on,60,0,1,,,,,,,,0,,,73,81
244260,note_on,60,0,1,,,,,,,,0,,,73,0
244320,note_on,60,0,1,,,,,,,,0,,,74,86
244439,note_on,599,0,3,,,,,,,,2,,,62,0
244440,note_on,1,0,3,,,,,,,,2,,,64,74
244559,note_on,719,0,2,,,,,,,,1,,,65,0
244559,note_on,119,0,3,,,,,,,,2,,,64,0
244560,note_on,1,0,2,,,,,,,,1,,,66,70
244560,note_on,1,0,3,,,,,,,,2,,,62,81
244679,note_on,119,0,3,,,,,,,,2,,,62,0
244680,note_on,1,0,3,,,,,,,,2,,,60,88
244720,set_tempo,1000,1,0,,,,,,545455,,,,,,
244799,note_on,479,0,1,,,,,,,,0,,,74,0
244799,note_on,119,0,3,,,,,,,,2,,,60,0
244799,note_on,239,0,2,,,,,,,,1,,,66,0
244800,note_on,1,0,2,,,,,,,,1,,,67,78
244800,note_on,1,0,3,,,,,,,,2,,,59,97
244800,note_on,1,0,1,,,,,,,,0,,,74,69
244919,note_on,119,0,1,,,,,,,,0,,,74,0
244920,note_on,1,0,1,,,,,,,,0,,,79,78
245039,note_on,119,0,1,,,,,,,,0,,,79,0
245039,note_on,239,0,2,,,,,,,,1,,,67,0
245039,note_on,239,0,3,,,,,,,,2,,,59,0
245040,note_on,1,0,2,,,,,,,,1,,,69,87
245040,note_on,1,0,3,,,,,,,,2,,,62,84
245040,note_on,1,0,1,,,,,,,,0,,,78,84
245159,note_on,119,0,1,,,,,,,,0,,,78,0
245160,note_on,1,0,1,,,,,,,,0,,,76,82
245279,note_on,119,0,1,,,,,,,,0,,,76,0
245279,note_on,239,0,3,,,,,,,,2,,,62,0
245280,note_on,1,0,1,,,,,,,,0,,,74,80
245280,note_on,1,0,3,,,,,,,,2,,,66,77
245399,note_on,119,0,1,,,,,,,,0,,,74,0
245400,note_on,1,0,1,,,,,,,,0,,,76,80
245519,note_on,479,0,2,,,,,,,,1,,,69,0
245519,note_on,239,0,3,,,,,,,,2,,,66,0
245519,note_on,119,0,1,,,,,,,,0,,,76,0
245520,note_on,1,0,1,,,,,,,,0,,,74,77
245520,note_on,1,0,2,,,,,,,,1,,,66,71
245520,note_on,1,0,3,,,,,,,,2,,,57,70
245639,note_on,119,0,1,,,,,,,,0,,,74,0
245640,note_on,1,0,1,,,,,,,,0,,,72,76
245680,set_tempo,960,1,0,,,,,,541761,,,,,,
245736,note_on,216,0,2,,,,,,,,1,,,66,0
245736,note_on,216,0,3,,,,,,,,2,,,57,0
245748,note_on,108,0,1,,,,,,,,0,,,72,0
245760,note_on,12,0,1,,,,,,,,0,,,71,69
245760,note_on,4800,0,4,,,,,,,,3,,,55,76
245760,note_on,24,0,3,,,,,,,,2,,,55,66
245760,note_on,24,0,2,,,,,,,,1,,,67,69
245820,note_on,60,0,3,,,,,,,,2,,,55,0
245879,note_on,119,0,2,,,,,,,,1,,,67,0
245880,note_on,1,0,2,,,,,,,,1,,,66,72
245880,note_on,60,0,3,,,,,,,,2,,,57,68
245940,note_on,60,0,2,,,,,,,,1,,,66,0
245940,note_on,60,0,3,,,,,,,,2,,,57,0
246000,note_on,60,0,2,,,,,,,,1,,,67,75
246000,note_on,60,0,3,,,,,,,,2,,,59,70
246060,note_on,60,0,2,,,,,,,,1,,,67,0
246060,note_on,60,0,3,,,,,,,,2,,,59,0
246120,note_on,60,0,3,,,,,,,,2,,,60,72
246120,note_on,60,0,2,,,,,,,,1,,,69,75
246180,note_on,60,0,2,,,,,,,,1,,,69,0
246239,note_on,119,0,3,,,,,,,,2,,,60,0
246240,note_on,60,0,2,,,,,,,,1,,,71,79
246240,note_on,1,0,3,,,,,,,,2,,,62,74
246359,note_on,599,0,1,,,,,,,,0,,,71,0
246359,note_on,599,0,4,,,,,,,,3,,,55,0
246360,note_on,1,0,1,,,,,,,,0,,,74,62
246360,note_on,1,0,4,,,,,,,,3,,,57,76
246420,note_on,60,0,1,,,,,,,,0,,,74,0
246479,note_on,119,0,4,,,,,,,,3,,,57,0
246480,note_on,1,0,4,,,,,,,,3,,,55,75
246480,note_on,60,0,1,,,,,,,,0,,,76,66
246540,note_on,60,0,1,,,,,,,,0,,,76,0
246599,note_on,119,0,4,,,,,,,,3,,,55,0
246600,note_on,60,0,1,,,,,,,,0,,,77,71
246600,note_on,1,0,4,,,,,,,,3,,,53,75
246660,note_on,60,0,1,,,,,,,,0,,,77,0
246680,set_tempo,1000,1,0,,,,,,538117,,,,,,
246719,note_on,119,0,4,,,,,,,,3,,,53,0
246720,note_on,60,0,1,,,,,,,,0,,,79,75
246720,note_on,1,0,4,,,,,,,,3,,,52,75
246839,note_on,599,0,2,,,,,,,,1,,,71,0
246840,note_on,1,0,2,,,,,,,,1,,,69,59
246959,note_on,719,0,3,,,,,,,,2,,,62,0
246959,note_on,119,0,2,,,,,,,,1,,,69,0
246959,note_on,239,0,4,,,,,,,,3,,,52,0
246960,note_on,1,0,3,,,,,,,,2,,,60,63
246960,note_on,1,0,2,,,,,,,,1,,,71,62
246960,note_on,1,0,4,,,,,,,,3,,,55,74
247079,note_on,119,0,2,,,,,,,,1,,,71,0
247080,note_on,1,0,2,,,,,,,,1,,,72,68
247199,note_on,239,0,4,,,,,,,,3,,,55,0
247199,note_on,479,0,1,,,,,,,,0,,,79,0
247199,note_on,119,0,2,,,,,,,,1,,,72,0
247200,note_on,1,0,2,,,,,,,,1,,,74,70
247200,note_on,1,0,4,,,,,,,,3,,,59,74
247200,note_on,1,0,1,,,,,,,,0,,,77,62
247319,note_on,119,0,2,,,,,,,,1,,,74,0
247320,note_on,1,0,2,,,,,,,,1,,,71,69
247439,note_on,119,0,2,,,,,,,,1,,,71,0
247439,note_on,239,0,4,,,,,,,,3,,,59,0
247439,note_on,479,0,3,,,,,,,,2,,,60,0
247440,note_on,1,0,4,,,,,,,,3,,,50,74
247440,note_on,1,0,3,,,,,,,,2,,,59,62
247440,note_on,1,0,2,,,,,,,,1,,,72,63
247559,note_on,119,0,2,,,,,,,,1,,,72,0
247560,note_on,1,0,2,,,,,,,,1,,,74,58
247640,set_tempo,960,1,0,,,,,,534521,,,,,,
247656,note_on,216,0,4,,,,,,,,3,,,50,0
247656,note_on,216,0,3,,,,,,,,2,,,59,0
247668,note_on,108,0,2,,,,,,,,1,,,74,0
247680,note_on,12,0,2,,,,,,,,1,,,67,60
247680,note_on,24,0,4,,,,,,,,3,,,48,73
247680,note_on,24,0,3,,,,,,,,2,,,60,75
247728,control_change,48,0,3,,,,,,,,2,64,127,,
247799,note_on,599,0,1,,,,,,,,0,,,77,0
247800,note_on,1,0,1,,,,,,,,0,,,77,83
247919,note_on,239,0,4,,,,,,,,3,,,48,0
247919,note_on,119,0,1,,,,,,,,0,,,77,0
247920,note_on,1,0,4,,,,,,,,3,,,50,73
247920,note_on,1,0,1,,,,,,,,0,,,76,78
248039,note_on,119,0,1,,,,,,,,0,,,76,0
248040,note_on,1,0,1,,,,,,,,0,,,74,72
248159,note_on,119,0,1,,,,,,,,0,,,74,0
248159,note_on,239,0,4,,,,,,,,3,,,50,0
248160,note_on,1,0,4,,,,,,,,3,,,52,72
248160,note_on,1,0,1,,,,,,,,0,,,72,67
248279,note_on,599,0,2,,,,,,,,1,,,67,0
248280,note_on,1,0,2,,,,,,,,1,,,70,65
248399,note_on,239,0,4,,,,,,,,3,,,52,0
248399,note_on,119,0,2,,,,,,,,1,,,70,0
248400,note_on,1,0,2,,,,,,,,1,,,69,70
248400,note_on,1,0,4,,,,,,,,3,,,48,72
248519,note_on,119,0,2,,,,,,,,1,,,69,0
248520,note_on,1,0,2,,,,,,,,1,,,67,74
248600,set_tempo,960,1,0,,,,,,530973,,,,,,
248628,control_change,108,0,2,,,,,,,,1,64,127,,
248639,note_on,239,0,4,,,,,,,,3,,,48,0
248639,note_on,11,0,2,,,,,,,,1,,,67,0
248640,note_on,1,0,2,,,,,,,,1,,,69,80
248640,note_on,1,0,4,,,,,,,,3,,,53,72
248688,control_change,960,0,3,,,,,,,,2,64,0,,
248759,note_on,71,0,3,,,,,,,,2,,,60,0
248760,note_on,1,0,3,,,,,,,,2,,,60,61
248820,note_on,60,0,3,,,,,,,,2,,,60,0
248880,note_on,60,0,3,,,,,,,,2,,,62,65
248940,note_on,60,0,3,,,,,,,,2,,,62,0
249000,note_on,60,0,3,,,,,,,,2,,,64,69
249060,note_on,60,0,3,,,,,,,,2,,,64,0
249120,note_on,60,0,3,,,,,,,,2,,,65,74
249239,note_on,599,0,4,,,,,,,,3,,,53,0
249240,note_on,1,0,4,,,,,,,,3,,,55,71
249359,note_on,119,0,4,,,,,,,,3,,,55,0
249360,note_on,1,0,4,,,,,,,,3,,,53,71
249479,note_on,119,0,4,,,,,,,,3,,,53,0
249480,note_on,1,0,4,,,,,,,,3,,,52,71
249588,note_on,108,0,4,,,,,,,,3,,,52,0
249588,control_change,948,0,2,,,,,,,,1,64,0,,
249600,note_on,12,0,4,,,,,,,,3,,,50,71
249600,set_tempo,1000,1,0,,,,,,527473,,,,,,
249719,note_on,599,0,3,,,,,,,,2,,,65,0
249720,note_on,1,0,3,,,,,,,,2,,,67,69
249839,note_on,119,0,3,,,,,,,,2,,,67,0
249839,note_on,239,0,4,,,,,,,,3,,,50,0
249840,note_on,1,0,4,,,,,,,,3,,,52,70
249840,note_on,1,0,3,,,,,,,,2,,,66,66
249959,note_on,119,0,3,,,,,,,,2,,,66,0
249960,note_on,1,0,3,,,,,,,,2,,,64,62
250079,note_on,119,0,3,,,,,,,,2,,,64,0
250079,note_on,239,0,4,,,,,,,,3,,,52,0
250080,note_on,1,0,3,,,,,,,,2,,,62,57
250080,note_on,1,0,4,,,,,,,,3,,,54,70
250092,control_change,12,0,3,,,,,,,,2,64,127,,
250199,note_on,2039,0,1,,,,,,,,0,,,72,0
250200,note_on,1,0,1,,,,,,,,0,,,72,58
250319,note_on,239,0,4,,,,,,,,3,,,54,0
250319,note_on,119,0,1,,,,,,,,0,,,72,0
250320,note_on,1,0,1,,,,,,,,0,,,71,65
250320,note_on,1,0,4,,,,,,,,3,,,50,70
250439,note_on,119,0,1,,,,,,,,0,,,71,0
250440,note_on,1,0,1,,,,,,,,0,,,69,61
250559,note_on,239,0,4,,,,,,,,3,,,50,0
250559,note_on,119,0,1,,,,,,,,0,,,69,0
250560,note_on,1,0,4,,,,,,,,3,,,55,69
250560,note_on,1,0,1,,,,,,,,0,,,71,58
250560,set_tempo,960,1,0,,,,,,524017,,,,,,
250679,note_on,1091,0,2,,,,,,,,1,,,69,0
250680,note_on,1,0,2,,,,,,,,1,,,69,68
250799,note_on,119,0,2,,,,,,,,1,,,69,0
250800,note_on,1,0,2,,,,,,,,1,,,67,64
250919,note_on,119,0,2,,,,,,,,1,,,67,0
250920,note_on,1,0,2,,,,,,,,1,,,65,60
251039,note_on,119,0,2,,,,,,,,1,,,65,0
251040,note_on,1,0,2,,,,,,,,1,,,67,57
251052,control_change,960,0,3,,,,,,,,2,64,0,,
251159,note_on,599,0,4,,,,,,,,3,,,55,0
251160,note_on,1,0,4,,,,,,,,3,,,57,69
251279,note_on,119,0,4,,,,,,,,3,,,57,0
251280,note_on,1,0,4,,,,,,,,3,,,55,69
251399,note_on,119,0,4,,,,,,,,3,,,55,0
251400,note_on,1,0,4,,,,,,,,3,,,54,69
251472,note_on,432,0,2,,,,,,,,1,,,67,0
251508,note_on,108,0,4,,,,,,,,3,,,54,0
251520,note_on,12,0,4,,,,,,,,3,,,52,68
251520,note_on,48,0,2,,,,,,,,1,,,67,81
251560,set_tempo,1000,1,0,,,,,,520607,,,,,,
251639,note_on,119,0,2,,,,,,,,1,,,67,0
251640,note_on,1,0,2,,,,,,,,1,,,69,78
251759,note_on,239,0,4,,,,,,,,3,,,52,0
251759,note_on,119,0,2,,,,,,,,1,,,69,0
251760,note_on,1,0,2,,,,,,,,1,,,68,76
251760,note_on,1,0,4,,,,,,,,3,,,54,68
251879,note_on,119,0,2,,,,,,,,1,,,68,0
251880,note_on,1,0,2,,,,,,,,1,,,66,73
251999,note_on,239,0,4,,,,,,,,3,,,54,0
251999,note_on,119,0,2,,,,,,,,1,,,66,0
252000,note_on,1,0,4,,,,,,,,3,,,56,68
252000,note_on,1,0,2,,,,,,,,1,,,64,71
252119,note_on,1067,0,3,,,,,,,,2,,,62,0
252120,note_on,1,0,3,,,,,,,,2,,,62,80
252239,note_on,239,0,4,,,,,,,,3,,,56,0
252239,note_on,119,0,3,,,,,,,,2,,,62,0
252240,note_on,1,0,3,,,,,,,,2,,,60,76
252240,note_on,1,0,4,,,,,,,,3,,,52,67
252359,note_on,119,0,3,,,,,,,,2,,,60,0
252360,note_on,1,0,3,,,,,,,,2,,,59,72
252440,set_tempo,880,1,0,,,,,,524017,,,,,,
252479,note_on,239,0,4,,,,,,,,3,,,52,0
252479,note_on,119,0,3,,,,,,,,2,,,59,0
252480,note_on,1,0,3,,,,,,,,2,,,60,67
252480,note_on,1,0,4,,,,,,,,3,,,57,67
252599,note_on,2039,0,1,,,,,,,,0,,,71,0
252600,note_on,1,0,1,,,,,,,,0,,,71,80
252719,note_on,119,0,1,,,,,,,,0,,,71,0
252720,note_on,1,0,1,,,,,,,,0,,,69,76
252839,note_on,119,0,1,,,,,,,,0,,,69,0
252840,note_on,1,0,1,,,,,,,,0,,,67,74
252959,note_on,119,0,1,,,,,,,,0,,,67,0
252960,note_on,1,0,1,,,,,,,,0,,,69,71
253079,note_on,599,0,4,,,,,,,,3,,,57,0
253080,note_on,1,0,4,,,,,,,,3,,,58,66
253199,note_on,119,0,4,,,,,,,,3,,,58,0
253200,note_on,1,0,4,,,,,,,,3,,,57,66
253319,note_on,119,0,4,,,,,,,,3,,,57,0
253320,note_on,1,0,4,,,,,,,,3,,,55,66
253428,note_on,108,0,4,,,,,,,,3,,,55,0
253440,control_change,12,0,4,,,,,,,,3,64,127,,
253440,note_on,0,0,4,,,,,,,,3,,,53,66
253440,control_change,480,0,1,,,,,,,,0,64,127,,
253559,note_on,1559,0,2,,,,,,,,1,,,64,0
253560,note_on,1,0,2,,,,,,,,1,,,67,81
253679,note_on,119,0,2,,,,,,,,1,,,67,0
253680,note_on,1,0,2,,,,,,,,1,,,65,78
253799,note_on,119,0,2,,,,,,,,1,,,65,0
253800,note_on,1,0,2,,,,,,,,1,,,64,72
253919,note_on,119,0,2,,,,,,,,1,,,64,0
253920,note_on,1,0,2,,,,,,,,1,,,62,67
254039,note_on,1559,0,3,,,,,,,,2,,,60,0
254040,note_on,1,0,3,,,,,,,,2,,,60,68
254159,note_on,119,0,3,,,,,,,,2,,,60,0
254160,note_on,1,0,3,,,,,,,,2,,,59,65
254279,note_on,119,0,3,,,,,,,,2,,,59,0
254280,note_on,1,0,3,,,,,,,,2,,,57,62
254399,note_on,959,0,4,,,,,,,,3,,,53,0
254399,note_on,479,0,2,,,,,,,,1,,,62,0
254399,note_on,119,0,3,,,,,,,,2,,,57,0
254400,note_on,0,0,4,,,,,,,,3,,,52,64
254400,note_on,1,0,3,,,,,,,,2,,,59,57
254400,note_on,1,0,2,,,,,,,,1,,,64,64
254400,control_change,960,0,1,,,,,,,,0,64,0,,
254400,control_change,1,0,4,,,,,,,,3,64,0,,
254519,note_on,119,0,1,,,,,,,,0,,,69,0
254520,note_on,1,0,1,,,,,,,,0,,,69,74
254639,note_on,119,0,1,,,,,,,,0,,,69,0
254640,note_on,1,0,1,,,,,,,,0,,,68,72
254759,note_on,119,0,1,,,,,,,,0,,,68,0
254760,note_on,1,0,1,,,,,,,,0,,,66,68
254832,note_on,432,0,3,,,,,,,,2,,,59,0
254832,note_on,432,0,4,,,,,,,,3,,,52,0
254879,note_on,119,0,1,,,,,,,,0,,,66,0
254880,note_on,1,0,1,,,,,,,,0,,,68,66
254999,note_on,599,0,2,,,,,,,,1,,,64,0
255000,note_on,1,0,2,,,,,,,,1,,,65,68
255096,note_on,216,0,1,,,,,,,,0,,,68,0
255119,note_on,119,0,2,,,,,,,,1,,,65,0
255120,note_on,1,0,2,,,,,,,,1,,,64,63
255239,note_on,119,0,2,,,,,,,,1,,,64,0
255240,note_on,1,0,2,,,,,,,,1,,,62,60
255260,set_tempo,2820,1,0,,,,,,524017,,,,,,
255348,note_on,108,0,2,,,,,,,,1,,,62,0
255360,note_on,264,0,1,,,,,,,,0,,,76,63
255360,note_on,528,0,3,,,,,,,,2,,,60,62
255599,note_on,239,0,3,,,,,,,,2,,,60,0
255600,note_on,1,0,3,,,,,,,,2,,,64,59
255839,note_on,239,0,3,,,,,,,,2,,,64,0
255840,note_on,1,0,3,,,,,,,,2,,,68,58
255860,set_tempo,600,1,0,,,,,,527473,,,,,,
255959,note_on,599,0,1,,,,,,,,0,,,76,0
255960,note_on,1,0,1,,,,,,,,0,,,72,62
256020,note_on,60,0,1,,,,,,,,0,,,72,0
256079,note_on,239,0,3,,,,,,,,2,,,68,0
256080,note_on,60,0,1,,,,,,,,0,,,74,64
256080,note_on,1,0,3,,,,,,,,2,,,59,55
256140,note_on,60,0,1,,,,,,,,0,,,74,0
256200,note_on,60,0,1,,,,,,,,0,,,76,67
256260,note_on,60,0,1,,,,,,,,0,,,76,0
256319,note_on,239,0,3,,,,,,,,2,,,59,0
256320,note_on,1,0,3,,,,,,,,2,,,57,54
256320,note_on,60,0,1,,,,,,,,0,,,77,70
256460,set_tempo,600,1,0,,,,,,530973,,,,,,
256559,note_on,239,0,1,,,,,,,,0,,,77,0
256559,note_on,239,0,3,,,,,,,,2,,,57,0
256560,note_on,1,0,3,,,,,,,,2,,,59,54
256560,note_on,1,0,1,,,,,,,,0,,,74,74
256679,note_on,119,0,3,,,,,,,,2,,,59,0
256680,note_on,1,0,3,,,,,,,,2,,,60,55
256799,note_on,239,0,1,,,,,,,,0,,,74,0
256799,note_on,119,0,3,,,,,,,,2,,,60,0
256800,note_on,1,0,3,,,,,,,,2,,,62,56
256800,note_on,1,0,1,,,,,,,,0,,,71,68
256919,note_on,119,0,3,,,,,,,,2,,,62,0
256920,note_on,1,0,3,,,,,,,,2,,,65,58
257039,note_on,119,0,3,,,,,,,,2,,,65,0
257039,note_on,239,0,1,,,,,,,,0,,,71,0
257040,note_on,1,0,1,,,,,,,,0,,,80,63
257040,note_on,1,0,3,,,,,,,,2,,,64,59
257060,set_tempo,600,1,0,,,,,,534521,,,,,,
257159,note_on,119,0,3,,,,,,,,2,,,64,0
257160,note_on,1,0,3,,,,,,,,2,,,62,60
257256,note_on,216,0,1,,,,,,,,0,,,80,0
257268,note_on,108,0,3,,,,,,,,2,,,62,0
257280,note_on,2448,0,4,,,,,,,,3,,,57,76
257280,note_on,12,0,3,,,,,,,,2,,,61,68
257280,note_on,24,0,1,,,,,,,,0,,,81,68
257399,note_on,119,0,3,,,,,,,,2,,,61,0
257400,note_on,1,0,3,,,,,,,,2,,,64,69
257519,note_on,239,0,1,,,,,,,,0,,,81,0
257519,note_on,119,0,3,,,,,,,,2,,,64,0
257520,note_on,1,0,3,,,,,,,,2,,,65,72
257520,note_on,1,0,1,,,,,,,,0,,,79,68
257620,set_tempo,560,1,0,,,,,,538117,,,,,,
257639,note_on,119,0,3,,,,,,,,2,,,65,0
257639,note_on,119,0,1,,,,,,,,0,,,79,0
257640,note_on,1,0,1,,,,,,,,0,,,77,72
257640,note_on,1,0,3,,,,,,,,2,,,67,73
257759,note_on,119,0,3,,,,,,,,2,,,67,0
257759,note_on,119,0,1,,,,,,,,0,,,77,0
257760,note_on,1,0,1,,,,,,,,0,,,76,75
257760,note_on,1,0,3,,,,,,,,2,,,69,74
257879,note_on,599,0,4,,,,,,,,3,,,57,0
257879,note_on,119,0,1,,,,,,,,0,,,76,0
257880,note_on,1,0,1,,,,,,,,0,,,73,78
257880,note_on,1,0,4,,,,,,,,3,,,58,76
257976,note_on,216,0,3,,,,,,,,2,,,69,0
257999,note_on,119,0,4,,,,,,,,3,,,58,0
257999,note_on,119,0,1,,,,,,,,0,,,73,0
258000,note_on,1,0,4,,,,,,,,3,,,57,76
258000,note_on,1,0,1,,,,,,,,0,,,74,75
258119,note_on,119,0,4,,,,,,,,3,,,57,0
258119,note_on,119,0,1,,,,,,,,0,,,74,0
258120,note_on,1,0,4,,,,,,,,3,,,55,76
258120,note_on,1,0,1,,,,,,,,0,,,76,74
258220,set_tempo,600,1,0,,,,,,541761,,,,,,
258239,note_on,119,0,1,,,,,,,,0,,,76,0
258239,note_on,119,0,4,,,,,,,,3,,,55,0
258240,note_on,2892,0,2,,,,,,,,1,,,69,68
258240,note_on,1,0,1,,,,,,,,0,,,69,72
258240,note_on,1,0,4,,,,,,,,3,,,53,76
258359,note_on,119,0,1,,,,,,,,0,,,69,0
258360,note_on,1,0,1,,,,,,,,0,,,77,69
258479,note_on,119,0,1,,,,,,,,0,,,77,0
258479,note_on,239,0,4,,,,,,,,3,,,53,0
258480,note_on,1,0,1,,,,,,,,0,,,76,67
258480,note_on,1,0,4,,,,,,,,3,,,57,76
258599,note_on,119,0,1,,,,,,,,0,,,76,0
258600,note_on,1,0,1,,,,,,,,0,,,74,64
258719,note_on,119,0,1,,,,,,,,0,,,74,0
258719,note_on,239,0,4,,,,,,,,3,,,57,0
258720,note_on,1,0,1,,,,,,,,0,,,76,63
258720,note_on,1,0,4,,,,,,,,3,,,60,76
258820,set_tempo,600,1,0,,,,,,545455,,,,,,
258839,note_on,599,0,2,,,,,,,,1,,,69,0
258840,note_on,1,0,2,,,,,,,,1,,,65,62
258900,note_on,60,0,2,,,,,,,,1,,,65,0
258959,note_on,239,0,4,,,,,,,,3,,,60,0
258959,note_on,239,0,1,,,,,,,,0,,,76,0
258960,note_on,1,0,4,,,,,,,,3,,,52,76
258960,note_on,1,0,1,,,,,,,,0,,,72,68
258960,note_on,60,0,2,,,,,,,,1,,,67,68
259020,note_on,60,0,2,,,,,,,,1,,,67,0
259080,note_on,60,0,2,,,,,,,,1,,,69,75
259134,note_on,54,0,2,,,,,,,,1,,,69,0
259176,note_on,216,0,4,,,,,,,,3,,,52,0
259176,note_on,216,0,1,,,,,,,,0,,,72,0
259200,note_on,66,0,2,,,,,,,,1,,,70,91
259200,note_on,1224,0,3,,,,,,,,2,,,50,76
259200,note_on,24,0,1,,,,,,,,0,,,74,82
259420,set_tempo,600,1,0,,,,,,549199,,,,,,
259439,note_on,239,0,3,,,,,,,,2,,,50,0
259439,note_on,239,0,2,,,,,,,,1,,,70,0
259440,note_on,1,0,3,,,,,,,,2,,,52,79
259440,note_on,1,0,2,,,,,,,,1,,,67,76
259559,note_on,119,0,3,,,,,,,,2,,,52,0
259560,note_on,1,0,3,,,,,,,,2,,,53,82
259679,note_on,239,0,2,,,,,,,,1,,,67,0
259679,note_on,119,0,3,,,,,,,,2,,,53,0
259680,note_on,1,0,2,,,,,,,,1,,,64,80
259680,note_on,1,0,3,,,,,,,,2,,,55,86
259799,note_on,119,0,3,,,,,,,,2,,,55,0
259799,note_on,599,0,1,,,,,,,,0,,,74,0
259800,note_on,1,0,1,,,,,,,,0,,,73,85
259800,note_on,1,0,3,,,,,,,,2,,,58,85
259860,note_on,60,0,1,,,,,,,,0,,,73,0
259919,note_on,239,0,2,,,,,,,,1,,,64,0
259919,note_on,119,0,3,,,,,,,,2,,,58,0
259920,note_on,1,0,2,,,,,,,,1,,,73,82
259920,note_on,1,0,3,,,,,,,,2,,,57,84
259920,note_on,60,0,1,,,,,,,,0,,,74,81
259980,note_on,60,0,1,,,,,,,,0,,,74,0
259980,set_tempo,560,1,0,,,,,,552995,,,,,,
260039,note_on,119,0,3,,,,,,,,2,,,57,0
260040,note_on,1,0,3,,,,,,,,2,,,55,82
260040,note_on,60,0,1,,,,,,,,0,,,76,78
260100,note_on,60,0,1,,,,,,,,0,,,76,0
260159,note_on,119,0,3,,,,,,,,2,,,55,0
260159,note_on,239,0,2,,,,,,,,1,,,73,0
260160,note_on,984,0,4,,,,,,,,3,,,50,76
260160,note_on,1,0,2,,,,,,,,1,,,74,76
260160,note_on,60,0,1,,,,,,,,0,,,69,66
260160,note_on,1,0,3,,,,,,,,2,,,53,73
260399,note_on,239,0,3,,,,,,,,2,,,53,0
260399,note_on,239,0,2,,,,,,,,1,,,74,0
260400,note_on,1,0,3,,,,,,,,2,,,52,70
260400,note_on,1,0,2,,,,,,,,1,,,72,68
260519,note_on,119,0,2,,,,,,,,1,,,72,0
260520,note_on,1,0,2,,,,,,,,1,,,70,78
260580,set_tempo,600,1,0,,,,,,556845,,,,,,
260592,note_on,432,0,1,,,,,,,,0,,,69,0
260639,note_on,119,0,2,,,,,,,,1,,,70,0
260639,note_on,239,0,3,,,,,,,,2,,,52,0
260640,note_on,1,0,3,,,,,,,,2,,,53,68
260640,note_on,1,0,2,,,,,,,,1,,,69,75
260759,note_on,119,0,2,,,,,,,,1,,,69,0
260759,note_on,599,0,4,,,,,,,,3,,,50,0
260760,note_on,1,0,2,,,,,,,,1,,,70,72
260760,note_on,1,0,4,,,,,,,,3,,,49,76
260820,note_on,60,0,4,,,,,,,,3,,,49,0
260879,note_on,119,0,2,,,,,,,,1,,,70,0
260880,note_on,1,0,2,,,,,,,,1,,,69,67
260880,note_on,60,0,4,,,,,,,,3,,,50,76
260940,note_on,60,0,4,,,,,,,,3,,,50,0
260999,note_on,119,0,2,,,,,,,,1,,,69,0
260999,note_on,359,0,3,,,,,,,,2,,,53,0
261000,note_on,60,0,4,,,,,,,,3,,,52,76
261000,note_on,1,0,2,,,,,,,,1,,,67,69
261000,note_on,1,0,3,,,,,,,,2,,,55,68
261054,note_on,54,0,4,,,,,,,,3,,,52,0
261108,note_on,108,0,3,,,,,,,,2,,,55,0
261108,note_on,108,0,2,,,,,,,,1,,,67,0
261120,note_on,528,0,1,,,,,,,,0,,,74,68
261120,note_on,12,0,3,,,,,,,,2,,,57,80
261120,note_on,66,0,4,,,,,,,,3,,,53,76
261120,note_on,12,0,2,,,,,,,,1,,,65,70
261180,set_tempo,600,1,0,,,,,,560748,,,,,,
261239,note_on,119,0,2,,,,,,,,1,,,65,0
261240,note_on,1,0,2,,,,,,,,1,,,67,73
261359,note_on,119,0,2,,,,,,,,1,,,67,0
261359,note_on,239,0,4,,,,,,,,3,,,53,0
261360,note_on,1,0,4,,,,,,,,3,,,50,76
261360,note_on,1,0,2,,,,,,,,1,,,65,74
261479,note_on,119,0,2,,,,,,,,1,,,65,0
261480,note_on,1,0,2,,,,,,,,1,,,64,75
261599,note_on,239,0,4,,,,,,,,3,,,50,0
261599,note_on,119,0,2,,,,,,,,1,,,64,0
261600,note_on,1,0,2,,,,,,,,1,,,62,76
261600,note_on,1,0,4,,,,,,,,3,,,47,76
261719,note_on,599,0,1,,,,,,,,0,,,74,0
261720,note_on,1,0,1,,,,,,,,0,,,77,75
261780,set_tempo,600,1,0,,,,,,564706,,,,,,
261839,note_on,119,0,1,,,,,,,,0,,,77,0
261839,note_on,239,0,2,,,,,,,,1,,,62,0
261839,note_on,239,0,4,,,,,,,,3,,,47,0
261840,note_on,1,0,1,,,,,,,,0,,,76,73
261840,note_on,1,0,2,,,,,,,,1,,,59,68
261840,note_on,1,0,4,,,,,,,,3,,,56,76
261959,note_on,119,0,1,,,,,,,,0,,,76,0
261960,note_on,1,0,1,,,,,,,,0,,,74,68
261977,control_change,137,0,4,,,,,,,,3,64,127,,
262079,note_on,102,0,4,,,,,,,,3,,,56,0
262079,note_on,239,0,2,,,,,,,,1,,,59,0
262079,note_on,119,0,1,,,,,,,,0,,,74,0
262080,note_on,1,0,4,,,,,,,,3,,,57,76
262080,note_on,1,0,2,,,,,,,,1,,,64,68
262080,note_on,1,0,1,,,,,,,,0,,,72,64
262199,note_on,1079,0,3,,,,,,,,2,,,57,0
262200,note_on,1,0,3,,,,,,,,2,,,57,64
262260,note_on,60,0,3,,,,,,,,2,,,57,0
262296,note_on,216,0,2,,,,,,,,1,,,64,0
262319,note_on,239,0,1,,,,,,,,0,,,72,0
262320,note_on,1,0,1,,,,,,,,0,,,76,63
262320,note_on,60,0,3,,,,,,,,2,,,59,70
262340,set_tempo,560,1,0,,,,,,568720,,,,,,
262380,note_on,60,0,3,,,,,,,,2,,,59,0
262440,note_on,60,0,3,,,,,,,,2,,,60,75
262500,note_on,60,0,3,,,,,,,,2,,,60,0
262559,note_on,239,0,1,,,,,,,,0,,,76,0
262559,note_on,479,0,4,,,,,,,,3,,,57,0
262560,note_on,60,0,3,,,,,,,,2,,,62,81
262560,note_on,1,0,1,,,,,,,,0,,,80,67
262560,note_on,1,0,4,,,,,,,,3,,,59,76
262679,note_on,119,0,3,,,,,,,,2,,,62,0
262680,note_on,1,0,3,,,,,,,,2,,,65,80
262799,note_on,239,0,1,,,,,,,,0,,,80,0
262799,note_on,119,0,3,,,,,,,,2,,,65,0
262800,note_on,1,0,1,,,,,,,,0,,,71,72
262800,note_on,1,0,3,,,,,,,,2,,,64,79
262919,note_on,119,0,3,,,,,,,,2,,,64,0
262920,note_on,1,0,3,,,,,,,,2,,,62,78
262937,control_change,377,0,4,,,,,,,,3,64,0,,
262940,set_tempo,600,1,0,,,,,,572792,,,,,,
262992,note_on,55,0,4,,,,,,,,3,,,59,0
263016,note_on,216,0,1,,,,,,,,0,,,71,0
263028,note_on,108,0,3,,,,,,,,2,,,62,0
263040,note_on,12,0,3,,,,,,,,2,,,64,86
263040,note_on,24,0,1,,,,,,,,0,,,69,85
263040,note_on,48,0,4,,,,,,,,3,,,60,76
263159,note_on,119,0,3,,,,,,,,2,,,64,0
263160,note_on,1,0,3,,,,,,,,2,,,62,85
263279,note_on,119,0,3,,,,,,,,2,,,62,0
263279,note_on,239,0,1,,,,,,,,0,,,69,0
263280,note_on,1,0,3,,,,,,,,2,,,64,84
263280,note_on,1,0,1,,,,,,,,0,,,81,76
263399,note_on,119,0,3,,,,,,,,2,,,64,0
263400,note_on,1,0,3,,,,,,,,2,,,65,82
263519,note_on,119,0,3,,,,,,,,2,,,65,0
263519,note_on,479,0,4,,,,,,,,3,,,60,0
263520,note_on,1,0,4,,,,,,,,3,,,61,76
263520,note_on,1,0,3,,,,,,,,2,,,64,81
263540,set_tempo,600,1,0,,,,,,576923,,,,,,
263639,note_on,119,0,3,,,,,,,,2,,,64,0
263639,note_on,359,0,1,,,,,,,,0,,,81,0
263640,note_on,1,0,1,,,,,,,,0,,,82,76
263640,note_on,1,0,3,,,,,,,,2,,,67,80
263759,note_on,119,0,3,,,,,,,,2,,,67,0
263759,note_on,119,0,1,,,,,,,,0,,,82,0
263760,note_on,1,0,3,,,,,,,,2,,,65,79
263760,note_on,1,0,1,,,,,,,,0,,,81,76
263879,note_on,119,0,3,,,,,,,,2,,,65,0
263879,note_on,119,0,1,,,,,,,,0,,,81,0
263880,note_on,1,0,3,,,,,,,,2,,,64,78
263880,note_on,1,0,1,,,,,,,,0,,,79,76
263999,note_on,119,0,1,,,,,,,,0,,,79,0
263999,note_on,119,0,3,,,,,,,,2,,,64,0
264000,note_on,1,0,1,,,,,,,,0,,,78,86
264000,note_on,1,0,3,,,,,,,,2,,,62,76
264119,note_on,599,0,4,,,,,,,,3,,,61,0
264120,note_on,1,0,4,,,,,,,,3,,,62,73
264140,set_tempo,600,1,0,,,,,,581114,,,,,,
264216,note_on,216,0,3,,,,,,,,2,,,62,0
264239,note_on,119,0,4,,,,,,,,3,,,62,0
264239,note_on,239,0,1,,,,,,,,0,,,78,0
264240,note_on,1,0,1,,,,,,,,0,,,81,86
264240,note_on,1,0,4,,,,,,,,3,,,60,72
264359,note_on,119,0,4,,,,,,,,3,,,60,0
264360,note_on,1,0,4,,,,,,,,3,,,58,72
264479,note_on,119,0,4,,,,,,,,3,,,58,0
264479,note_on,239,0,1,,,,,,,,0,,,81,0
264480,note_on,1,0,4,,,,,,,,3,,,57,71
264480,note_on,1,0,1,,,,,,,,0,,,84,81
264599,note_on,119,0,4,,,,,,,,3,,,57,0
264600,note_on,1,0,4,,,,,,,,3,,,58,71
264700,set_tempo,560,1,0,,,,,,585366,,,,,,
264719,note_on,239,0,1,,,,,,,,0,,,84,0
264719,note_on,119,0,4,,,,,,,,3,,,58,0
264720,note_on,1,0,4,,,,,,,,3,,,57,70
264720,note_on,1,0,1,,,,,,,,0,,,75,76
264839,note_on,119,0,4,,,,,,,,3,,,57,0
264840,note_on,1,0,4,,,,,,,,3,,,55,69
264936,note_on,216,0,1,,,,,,,,0,,,75,0
264948,note_on,108,0,4,,,,,,,,3,,,55,0
264960,note_on,24,0,1,,,,,,,,0,,,74,72
264960,note_on,12,0,4,,,,,,,,3,,,54,69
265079,note_on,119,0,4,,,,,,,,3,,,54,0
265080,note_on,1,0,4,,,,,,,,3,,,50,68
265199,note_on,119,0,4,,,,,,,,3,,,50,0
265199,note_on,239,0,1,,,,,,,,0,,,74,0
265200,note_on,1,0,4,,,,,,,,3,,,55,68
265200,note_on,1,0,1,,,,,,,,0,,,76,74
265300,set_tempo,600,1,0,,,,,,589681,,,,,,
265319,note_on,119,0,4,,,,,,,,3,,,55,0
265319,note_on,119,0,1,,,,,,,,0,,,76,0
265320,note_on,1,0,1,,,,,,,,0,,,78,81
265320,note_on,1,0,4,,,,,,,,3,,,57,67
265439,note_on,119,0,1,,,,,,,,0,,,78,0
265439,note_on,119,0,4,,,,,,,,3,,,57,0
265440,note_on,1,0,1,,,,,,,,0,,,79,88
265440,note_on,1,0,4,,,,,,,,3,,,58,66
265559,note_on,119,0,4,,,,,,,,3,,,58,0
265560,note_on,1,0,4,,,,,,,,3,,,55,79
265679,note_on,119,0,4,,,,,,,,3,,,55,0
265680,note_on,1,0,4,,,,,,,,3,,,57,76
265799,note_on,119,0,4,,,,,,,,3,,,57,0
265800,note_on,1,0,4,,,,,,,,3,,,58,73
265900,set_tempo,600,1,0,,,,,,594059,,,,,,
265919,note_on,119,0,4,,,,,,,,3,,,58,0
265920,note_on,1,0,4,,,,,,,,3,,,60,70
266039,note_on,119,0,4,,,,,,,,3,,,60,0
266040,note_on,1,0,4,,,,,,,,3,,,57,67
266159,note_on,119,0,4,,,,,,,,3,,,57,0
266160,note_on,3864,0,2,,,,,,,,1,,,74,76
266160,note_on,1,0,4,,,,,,,,3,,,58,64
266279,note_on,119,0,4,,,,,,,,3,,,58,0
266280,note_on,1,0,4,,,,,,,,3,,,60,61
266399,note_on,959,0,1,,,,,,,,0,,,79,0
266399,note_on,119,0,4,,,,,,,,3,,,60,0
266400,note_on,1,0,1,,,,,,,,0,,,77,76
266400,note_on,1,0,4,,,,,,,,3,,,62,62
266436,control_change,36,0,1,,,,,,,,0,64,127,,
266500,set_tempo,600,1,0,,,,,,598504,,,,,,
266519,note_on,359,0,2,,,,,,,,1,,,74,0
266520,note_on,1,0,2,,,,,,,,1,,,75,85
266639,note_on,239,0,4,,,,,,,,3,,,62,0
266639,note_on,119,0,2,,,,,,,,1,,,75,0
266640,note_on,1,0,4,,,,,,,,3,,,50,60
266640,note_on,1,0,2,,,,,,,,1,,,74,80
266759,note_on,119,0,2,,,,,,,,1,,,74,0
266760,note_on,1,0,2,,,,,,,,1,,,72,75
266832,note_on,396,0,1,,,,,,,,0,,,77,0
266856,note_on,216,0,4,,,,,,,,3,,,50,0
266868,note_on,108,0,2,,,,,,,,1,,,72,0
266880,note_on,48,0,1,,,,,,,,0,,,79,86
266880,note_on,24,0,4,,,,,,,,3,,,55,67
266880,note_on,12,0,2,,,,,,,,1,,,71,70
266999,note_on,119,0,4,,,,,,,,3,,,55,0
267000,note_on,1,0,4,,,,,,,,3,,,45,68
267060,set_tempo,560,1,0,,,,,,603015,,,,,,
267119,note_on,239,0,2,,,,,,,,1,,,71,0
267119,note_on,119,0,4,,,,,,,,3,,,45,0
267120,note_on,1,0,4,,,,,,,,3,,,47,69
267120,note_on,1,0,2,,,,,,,,1,,,74,76
267239,note_on,119,0,4,,,,,,,,3,,,47,0
267240,note_on,1,0,4,,,,,,,,3,,,48,70
267359,note_on,479,0,1,,,,,,,,0,,,79,0
267359,note_on,239,0,2,,,,,,,,1,,,74,0
267359,note_on,119,0,4,,,,,,,,3,,,48,0
267360,note_on,1,0,4,,,,,,,,3,,,50,71
267360,note_on,1,0,1,,,,,,,,0,,,77,76
267360,note_on,1,0,2,,,,,,,,1,,,77,76
267396,control_change,36,0,1,,,,,,,,0,64,0,,
267479,note_on,119,0,4,,,,,,,,3,,,50,0
267480,note_on,1,0,4,,,,,,,,3,,,47,73
267599,note_on,239,0,2,,,,,,,,1,,,77,0
267599,note_on,119,0,4,,,,,,,,3,,,47,0
267600,note_on,1,0,2,,,,,,,,1,,,68,76
267600,note_on,1,0,4,,,,,,,,3,,,48,74
267660,set_tempo,600,1,0,,,,,,607595,,,,,,
267719,note_on,119,0,4,,,,,,,,3,,,48,0
267720,note_on,1,0,4,,,,,,,,3,,,50,75
267839,note_on,119,0,4,,,,,,,,3,,,50,0
267839,note_on,239,0,2,,,,,,,,1,,,68,0
267840,note_on,1,0,4,,,,,,,,3,,,51,76
267840,note_on,1,0,2,,,,,,,,1,,,67,76
267959,note_on,119,0,4,,,,,,,,3,,,51,0
267960,note_on,1,0,4,,,,,,,,3,,,53,77
268079,note_on,119,0,4,,,,,,,,3,,,53,0
268079,note_on,239,0,2,,,,,,,,1,,,67,0
268080,note_on,1,0,4,,,,,,,,3,,,51,78
268080,note_on,1,0,2,,,,,,,,1,,,69,74
268188,control_change,792,0,1,,,,,,,,0,64,127,,
268199,note_on,119,0,2,,,,,,,,1,,,69,0
268199,note_on,119,0,4,,,,,,,,3,,,51,0
268200,note_on,1,0,2,,,,,,,,1,,,71,79
268200,note_on,1,0,4,,,,,,,,3,,,50,80
268260,set_tempo,600,1,0,,,,,,612245,,,,,,
268319,note_on,119,0,2,,,,,,,,1,,,71,0
268319,note_on,131,0,1,,,,,,,,0,,,77,0
268319,note_on,119,0,4,,,,,,,,3,,,50,0
268320,note_on,1,0,2,,,,,,,,1,,,72,84
268320,note_on,1,0,1,,,,,,,,0,,,75,76
268320,note_on,1,0,4,,,,,,,,3,,,48,81
268439,note_on,119,0,4,,,,,,,,3,,,48,0
268440,note_on,1,0,4,,,,,,,,3,,,50,82
268559,note_on,119,0,4,,,,,,,,3,,,50,0
268560,note_on,1,0,4,,,,,,,,3,,,51,83
268679,note_on,119,0,4,,,,,,,,3,,,51,0
268680,note_on,1,0,4,,,,,,,,3,,,53,84
268752,note_on,432,0,1,,,,,,,,0,,,75,0
268788,note_on,108,0,4,,,,,,,,3,,,53,0
268800,note_on,48,0,1,,,,,,,,0,,,74,88
268800,note_on,12,0,4,,,,,,,,3,,,55,85
268820,set_tempo,560,1,0,,,,,,616967,,,,,,
268919,note_on,119,0,4,,,,,,,,3,,,55,0
268920,note_on,1,0,4,,,,,,,,3,,,53,87
269039,note_on,119,0,4,,,,,,,,3,,,53,0
269040,note_on,4824,0,3,,,,,,,,2,,,67,76
269040,note_on,1,0,4,,,,,,,,3,,,55,88
269148,control_change,348,0,1,,,,,,,,0,64,0,,
269159,note_on,119,0,4,,,,,,,,3,,,55,0
269160,note_on,1,0,4,,,,,,,,3,,,56,89
269279,note_on,131,0,1,,,,,,,,0,,,74,0
269279,note_on,119,0,4,,,,,,,,3,,,56,0
269279,note_on,959,0,2,,,,,,,,1,,,72,0
269280,note_on,1,0,1,,,,,,,,0,,,73,81
269280,note_on,1,0,2,,,,,,,,1,,,70,84
269280,note_on,1,0,4,,,,,,,,3,,,58,90
269399,note_on,119,0,2,,,,,,,,1,,,70,0
269399,note_on,359,0,3,,,,,,,,2,,,67,0
269400,note_on,1,0,2,,,,,,,,1,,,72,80
269400,note_on,1,0,3,,,,,,,,2,,,68,81
269472,control_change,192,0,1,,,,,,,,0,64,127,,
269519,note_on,119,0,2,,,,,,,,1,,,72,0
269519,note_on,119,0,3,,,,,,,,2,,,68,0
269520,note_on,1,0,3,,,,,,,,2,,,67,85
269520,note_on,1,0,2,,,,,,,,1,,,67,75
269639,note_on,119,0,2,,,,,,,,1,,,67,0
269639,note_on,119,0,3,,,,,,,,2,,,67,0
269640,note_on,1,0,2,,,,,,,,1,,,65,72
269640,note_on,1,0,3,,,,,,,,2,,,65,88
269759,note_on,287,0,1,,,,,,,,0,,,73,0
269759,note_on,119,0,3,,,,,,,,2,,,65,0
269759,note_on,119,0,2,,,,,,,,1,,,65,0
269760,note_on,1,0,1,,,,,,,,0,,,72,74
269760,note_on,1,0,2,,,,,,,,1,,,72,67
269760,note_on,1,0,3,,,,,,,,2,,,64,91
269760,note_on,0,0,1,,,,,,,,0,,,67,74
269760,note_on,0,0,2,,,,,,,,1,,,67,67
269879,note_on,599,0,4,,,,,,,,3,,,58,0
269880,note_on,1,0,4,,,,,,,,3,,,60,88
269976,note_on,216,0,1,,,,,,,,0,,,67,0
269976,note_on,0,0,1,,,,,,,,0,,,72,0
269976,note_on,216,0,2,,,,,,,,1,,,67,0
269976,note_on,0,0,2,,,,,,,,1,,,72,0
269999,note_on,119,0,4,,,,,,,,3,,,60,0
269999,note_on,239,0,3,,,,,,,,2,,,64,0
270000,note_on,1,0,3,,,,,,,,2,,,67,88
270000,note_on,1,0,4,,,,,,,,3,,,58,85
270119,note_on,119,0,4,,,,,,,,3,,,58,0
270120,note_on,1,0,4,,,,,,,,3,,,56,81
270239,note_on,119,0,4,,,,,,,,3,,,56,0
270239,note_on,239,0,3,,,,,,,,2,,,67,0
270240,note_on,1,0,3,,,,,,,,2,,,70,85
270240,note_on,1,0,4,,,,,,,,3,,,55,78
270359,note_on,119,0,4,,,,,,,,3,,,55,0
270360,note_on,1,0,4,,,,,,,,3,,,56,75
270432,control_change,456,0,1,,,,,,,,0,64,0,,
270479,note_on,119,0,4,,,,,,,,3,,,56,0
270479,note_on,239,0,3,,,,,,,,2,,,70,0
270480,note_on,1,0,4,,,,,,,,3,,,55,71
270480,note_on,1,0,3,,,,,,,,2,,,61,80
270599,note_on,119,0,4,,,,,,,,3,,,55,0
270600,note_on,1,0,4,,,,,,,,3,,,53,68
270696,note_on,216,0,3,,,,,,,,2,,,61,0
270708,note_on,108,0,4,,,,,,,,3,,,53,0
270720,note_on,12,0,4,,,,,,,,3,,,52,65
270720,note_on,24,0,3,,,,,,,,2,,,60,68
270839,note_on,119,0,4,,,,,,,,3,,,52,0
270840,note_on,1,0,4,,,,,,,,3,,,48,61
270959,note_on,239,0,3,,,,,,,,2,,,60,0
270959,note_on,119,0,4,,,,,,,,3,,,48,0
270960,note_on,1,0,4,,,,,,,,3,,,53,62
270960,note_on,1,0,3,,,,,,,,2,,,62,64
270960,note_on,528,0,1,,,,,,,,0,,,72,76
271079,note_on,119,0,4,,,,,,,,3,,,53,0
271079,note_on,119,0,3,,,,,,,,2,,,62,0
271080,note_on,1,0,3,,,,,,,,2,,,64,70
271080,note_on,1,0,4,,,,,,,,3,,,55,61
271199,note_on,119,0,4,,,,,,,,3,,,55,0
271199,note_on,119,0,3,,,,,,,,2,,,64,0
271200,note_on,1,0,3,,,,,,,,2,,,65,75
271200,note_on,1,0,4,,,,,,,,3,,,56,61
271319,note_on,359,0,1,,,,,,,,0,,,72,0
271319,note_on,119,0,4,,,,,,,,3,,,56,0
271320,note_on,1,0,4,,,,,,,,3,,,53,61
271320,note_on,1,0,1,,,,,,,,0,,,68,76
271380,note_on,60,0,1,,,,,,,,0,,,68,0
271439,note_on,119,0,4,,,,,,,,3,,,53,0
271440,note_on,1,0,4,,,,,,,,3,,,55,60
271440,note_on,60,0,1,,,,,,,,0,,,70,81
271500,note_on,60,0,1,,,,,,,,0,,,70,0
271559,note_on,119,0,4,,,,,,,,3,,,55,0
271560,note_on,1,0,4,,,,,,,,3,,,56,59
271560,note_on,60,0,1,,,,,,,,0,,,72,86
271620,note_on,60,0,1,,,,,,,,0,,,72,0
271679,note_on,119,0,4,,,,,,,,3,,,56,0
271680,note_on,60,0,1,,,,,,,,0,,,73,91
271680,note_on,1,0,4,,,,,,,,3,,,58,59
271799,note_on,119,0,4,,,,,,,,3,,,58,0
271800,note_on,120,0,1,,,,,,,,0,,,73,0
271800,note_on,1,0,4,,,,,,,,3,,,55,58
271919,note_on,119,0,4,,,,,,,,3,,,55,0
271920,note_on,120,0,1,,,,,,,,0,,,70,74
271920,note_on,1,0,4,,,,,,,,3,,,56,57
272039,note_on,119,0,4,,,,,,,,3,,,56,0
272040,note_on,1,0,4,,,,,,,,3,,,58,57
272159,note_on,959,0,3,,,,,,,,2,,,65,0
272159,note_on,239,0,1,,,,,,,,0,,,70,0
272159,note_on,119,0,4,,,,,,,,3,,,58,0
272160,note_on,1,0,1,,,,,,,,0,,,67,78
272160,note_on,1,0,3,,,,,,,,2,,,64,68
272160,note_on,1,0,4,,,,,,,,3,,,60,56
272279,note_on,119,0,4,,,,,,,,3,,,60,0
272280,note_on,1,0,4,,,,,,,,3,,,61,55
272399,note_on,239,0,1,,,,,,,,0,,,67,0
272399,note_on,119,0,4,,,,,,,,3,,,61,0
272399,note_on,239,0,3,,,,,,,,2,,,64,0
272400,note_on,1,0,1,,,,,,,,0,,,76,81
272400,note_on,1,0,3,,,,,,,,2,,,67,75
272400,note_on,1,0,4,,,,,,,,3,,,60,55
272519,note_on,119,0,4,,,,,,,,3,,,60,0
272520,note_on,1,0,4,,,,,,,,3,,,58,54
272616,note_on,216,0,3,,,,,,,,2,,,67,0
272616,note_on,216,0,1,,,,,,,,0,,,76,0
272628,note_on,108,0,4,,,,,,,,3,,,58,0
272640,note_on,24,0,3,,,,,,,,2,,,60,76
272640,note_on,12,0,4,,,,,,,,3,,,56,76
272640,note_on,0,0,1,,,,,,,,0,,,77,85
272640,control_change,24,0,1,,,,,,,,0,64,127,,
272759,note_on,119,0,3,,,,,,,,2,,,60,0
272760,note_on,1,0,3,,,,,,,,2,,,62,88
272820,note_on,60,0,3,,,,,,,,2,,,62,0
272879,note_on,239,0,1,,,,,,,,0,,,77,0
272879,note_on,239,0,4,,,,,,,,3,,,56,0
272880,note_on,2904,0,2,,,,,,,,1,,,67,80
272880,note_on,60,0,3,,,,,,,,2,,,63,85
272880,note_on,1,0,4,,,,,,,,3,,,52,68
272880,note_on,1,0,1,,,,,,,,0,,,71,88
272940,note_on,60,0,3,,,,,,,,2,,,63,0
273000,note_on,60,0,3,,,,,,,,2,,,62,82
273060,note_on,60,0,3,,,,,,,,2,,,62,0
273119,note_on,239,0,1,,,,,,,,0,,,71,0
273119,note_on,239,0,4,,,,,,,,3,,,52,0
273120,note_on,60,0,3,,,,,,,,2,,,60,79
273120,note_on,1,0,1,,,,,,,,0,,,72,84
273120,note_on,1,0,4,,,,,,,,3,,,57,68
273239,note_on,359,0,2,,,,,,,,1,,,67,0
273240,note_on,1,0,2,,,,,,,,1,,,63,72
273300,note_on,60,0,2,,,,,,,,1,,,63,0
273359,note_on,239,0,4,,,,,,,,3,,,57,0
273360,note_on,1,0,4,,,,,,,,3,,,51,68
273360,note_on,60,0,2,,,,,,,,1,,,65,78
273420,note_on,60,0,2,,,,,,,,1,,,65,0
273480,note_on,60,0,2,,,,,,,,1,,,67,82
273540,note_on,60,0,2,,,,,,,,1,,,67,0
273599,note_on,239,0,4,,,,,,,,3,,,51,0
273599,note_on,479,0,1,,,,,,,,0,,,72,0
273600,note_on,60,0,2,,,,,,,,1,,,68,88
273600,note_on,0,0,1,,,,,,,,0,,,74,76
273600,note_on,1,0,4,,,,,,,,3,,,53,68
273600,control_change,1,0,1,,,,,,,,0,64,0,,
273719,note_on,119,0,4,,,,,,,,3,,,53,0
273720,note_on,1,0,4,,,,,,,,3,,,50,68
273839,note_on,239,0,2,,,,,,,,1,,,68,0
273839,note_on,119,0,4,,,,,,,,3,,,50,0
273840,note_on,1,0,4,,,,,,,,3,,,51,68
273840,note_on,1,0,2,,,,,,,,1,,,65,76
273959,note_on,119,0,4,,,,,,,,3,,,51,0
273960,note_on,1,0,4,,,,,,,,3,,,53,68
274079,note_on,959,0,3,,,,,,,,2,,,60,0
274079,note_on,119,0,4,,,,,,,,3,,,53,0
274079,note_on,239,0,2,,,,,,,,1,,,65,0
274080,note_on,1,0,4,,,,,,,,3,,,55,68
274080,note_on,1,0,2,,,,,,,,1,,,62,73
274080,note_on,1,0,3,,,,,,,,2,,,59,76
274199,note_on,119,0,4,,,,,,,,3,,,55,0
274200,note_on,1,0,4,,,,,,,,3,,,53,68
274296,note_on,216,0,3,,,,,,,,2,,,59,0
274319,note_on,239,0,2,,,,,,,,1,,,62,0
274319,note_on,119,0,4,,,,,,,,3,,,53,0
274320,note_on,1,0,4,,,,,,,,3,,,51,68
274320,note_on,1,0,2,,,,,,,,1,,,70,76
274439,note_on,119,0,4,,,,,,,,3,,,51,0
274440,note_on,1,0,4,,,,,,,,3,,,50,68
274464,note_on,864,0,1,,,,,,,,0,,,74,0
274536,note_on,216,0,2,,,,,,,,1,,,70,0
274548,note_on,108,0,4,,,,,,,,3,,,50,0
274560,note_on,96,0,1,,,,,,,,0,,,75,76
274560,note_on,24,0,2,,,,,,,,1,,,72,79
274560,note_on,12,0,4,,,,,,,,3,,,48,76
274679,note_on,119,0,4,,,,,,,,3,,,48,0
274680,note_on,1,0,4,,,,,,,,3,,,50,76
274680,set_tempo,5860,1,0,,,,,,564706,,,,,,
274740,note_on,60,0,4,,,,,,,,3,,,50,0
274799,note_on,239,0,2,,,,,,,,1,,,72,0
274800,note_on,60,0,4,,,,,,,,3,,,51,76
274800,note_on,1,0,2,,,,,,,,1,,,67,76
274800,note_on,504,0,3,,,,,,,,2,,,60,76
274860,note_on,60,0,4,,,,,,,,3,,,51,0
274920,note_on,60,0,4,,,,,,,,3,,,53,76
274980,note_on,60,0,4,,,,,,,,3,,,53,0
275039,note_on,479,0,1,,,,,,,,0,,,75,0
275040,note_on,60,0,4,,,,,,,,3,,,55,76
275040,note_on,1,0,1,,,,,,,,0,,,74,88
275159,note_on,359,0,3,,,,,,,,2,,,60,0
275159,note_on,119,0,1,,,,,,,,0,,,74,0
275160,note_on,1,0,3,,,,,,,,2,,,59,73
275160,note_on,1,0,1,,,,,,,,0,,,77,86
275279,note_on,119,0,3,,,,,,,,2,,,59,0
275279,note_on,119,0,1,,,,,,,,0,,,77,0
275280,note_on,1,0,3,,,,,,,,2,,,60,78
275280,note_on,1,0,1,,,,,,,,0,,,75,82
275399,note_on,119,0,1,,,,,,,,0,,,75,0
275399,note_on,119,0,3,,,,,,,,2,,,60,0
275400,note_on,1,0,1,,,,,,,,0,,,74,80
275400,note_on,1,0,3,,,,,,,,2,,,62,82
275519,note_on,119,0,1,,,,,,,,0,,,74,0
275519,note_on,719,0,2,,,,,,,,1,,,67,0
275519,note_on,119,0,3,,,,,,,,2,,,62,0
275520,note_on,1,0,1,,,,,,,,0,,,72,74
275520,note_on,1,0,2,,,,,,,,1,,,68,76
275520,note_on,1,0,3,,,,,,,,2,,,63,87
275600,set_tempo,920,1,0,,,,,,568720,,,,,,
275639,note_on,119,0,1,,,,,,,,0,,,72,0
275640,note_on,1,0,1,,,,,,,,0,,,74,78
275759,note_on,119,0,1,,,,,,,,0,,,74,0
275759,note_on,239,0,3,,,,,,,,2,,,63,0
275760,note_on,1,0,1,,,,,,,,0,,,71,81
275760,note_on,1,0,3,,,,,,,,2,,,60,88
275879,note_on,119,0,1,,,,,,,,0,,,71,0
275880,note_on,1,0,1,,,,,,,,0,,,72,85
275999,note_on,119,0,1,,,,,,,,0,,,72,0
275999,note_on,959,0,4,,,,,,,,3,,,55,0
275999,note_on,239,0,3,,,,,,,,2,,,60,0
276000,note_on,1,0,1,,,,,,,,0,,,74,88
276000,note_on,1,0,4,,,,,,,,3,,,53,76
276000,note_on,1,0,3,,,,,,,,2,,,56,82
276119,note_on,599,0,2,,,,,,,,1,,,68,0
276120,note_on,1,0,2,,,,,,,,1,,,72,87
276239,note_on,119,0,2,,,,,,,,1,,,72,0
276239,note_on,239,0,3,,,,,,,,2,,,56,0
276240,note_on,1,0,3,,,,,,,,2,,,65,78
276240,note_on,1,0,2,,,,,,,,1,,,71,85
276359,note_on,119,0,2,,,,,,,,1,,,71,0
276360,note_on,1,0,2,,,,,,,,1,,,72,82
276456,note_on,216,0,3,,,,,,,,2,,,65,0
276468,note_on,108,0,2,,,,,,,,1,,,72,0
276480,note_on,0,0,2,,,,,,,,1,,,71,80
276480,note_on,12,0,2,,,,,,,,1,,,67,80
276520,set_tempo,920,1,0,,,,,,572792,,,,,,
276599,note_on,599,0,4,,,,,,,,3,,,53,0
276600,note_on,1,0,4,,,,,,,,3,,,56,76
276719,note_on,119,0,4,,,,,,,,3,,,56,0
276720,note_on,1,0,4,,,,,,,,3,,,55,76
276839,note_on,119,0,4,,,,,,,,3,,,55,0
276840,note_on,1,0,4,,,,,,,,3,,,53,76
276840,control_change,384,0,3,,,,,,,,2,64,127,,
276959,note_on,0,0,2,,,,,,,,1,,,67,0
276959,note_on,119,0,4,,,,,,,,3,,,53,0
276959,note_on,479,0,2,,,,,,,,1,,,71,0
276959,note_on,959,0,1,,,,,,,,0,,,74,0
276960,note_on,1,0,1,,,,,,,,0,,,75,76
276960,note_on,1,0,4,,,,,,,,3,,,51,76
276960,note_on,120,0,3,,,,,,,,2,,,55,76
276960,note_on,1,0,2,,,,,,,,1,,,72,76
277079,note_on,119,0,4,,,,,,,,3,,,51,0
277080,note_on,1,0,4,,,,,,,,3,,,50,76
277199,note_on,119,0,4,,,,,,,,3,,,50,0
277200,note_on,1,0,4,,,,,,,,3,,,48,76
277319,note_on,119,0,4,,,,,,,,3,,,48,0
277320,note_on,1,0,4,,,,,,,,3,,,46,76
277439,note_on,119,0,4,,,,,,,,3,,,46,0
277440,set_tempo,920,1,0,,,,,,576923,,,,,,
277440,note_on,1,0,4,,,,,,,,3,,,44,76
277559,note_on,599,0,2,,,,,,,,1,,,72,0
277560,note_on,1,0,2,,,,,,,,1,,,71,76
277679,note_on,119,0,2,,,,,,,,1,,,71,0
277679,note_on,239,0,4,,,,,,,,3,,,44,0
277680,note_on,1,0,4,,,,,,,,3,,,43,76
277680,note_on,1,0,2,,,,,,,,1,,,72,76
277799,note_on,839,0,1,,,,,,,,0,,,75,0
277800,note_on,1,0,1,,,,,,,,0,,,75,85
277800,control_change,840,0,3,,,,,,,,2,64,0,,
277919,note_on,119,0,3,,,,,,,,2,,,55,0
277919,note_on,119,0,1,,,,,,,,0,,,75,0
277919,note_on,239,0,4,,,,,,,,3,,,43,0
277920,note_on,1,0,4,,,,,,,,3,,,44,76
277920,note_on,1,0,1,,,,,,,,0,,,74,81
277920,note_on,1,0,3,,,,,,,,2,,,53,76
278039,note_on,119,0,1,,,,,,,,0,,,74,0
278040,note_on,1,0,1,,,,,,,,0,,,75,78
278159,note_on,119,0,1,,,,,,,,0,,,75,0
278160,note_on,1,0,1,,,,,,,,0,,,77,75
278279,note_on,119,0,1,,,,,,,,0,,,77,0
278280,note_on,1,0,1,,,,,,,,0,,,74,76
278352,note_on,432,0,4,,,,,,,,3,,,44,0
278352,note_on,432,0,3,,,,,,,,2,,,53,0
278360,set_tempo,920,1,0,,,,,,581114,,,,,,
278388,note_on,108,0,1,,,,,,,,0,,,74,0
278400,note_on,12,0,1,,,,,,,,0,,,75,79
278400,note_on,48,0,3,,,,,,,,2,,,55,76
278400,note_on,48,0,4,,,,,,,,3,,,43,76
278519,note_on,839,0,2,,,,,,,,1,,,72,0
278520,note_on,1,0,2,,,,,,,,1,,,72,76
278639,note_on,239,0,1,,,,,,,,0,,,75,0
278640,note_on,1,0,1,,,,,,,,0,,,74,82
278759,note_on,239,0,2,,,,,,,,1,,,72,0
278760,note_on,1,0,2,,,,,,,,1,,,69,76
278879,note_on,119,0,2,,,,,,,,1,,,69,0
278880,note_on,1,0,2,,,,,,,,1,,,71,86
278999,note_on,599,0,3,,,,,,,,2,,,55,0
279000,note_on,1,0,3,,,,,,,,2,,,65,73
279060,note_on,60,0,3,,,,,,,,2,,,65,0
279120,note_on,60,0,3,,,,,,,,2,,,67,78
279180,note_on,60,0,3,,,,,,,,2,,,67,0
279240,note_on,60,0,3,,,,,,,,2,,,62,83
279280,set_tempo,920,1,0,,,,,,585366,,,,,,
279300,note_on,60,0,3,,,,,,,,2,,,62,0
279359,note_on,959,0,4,,,,,,,,3,,,43,0
279360,note_on,1,0,4,,,,,,,,3,,,55,75
279360,note_on,60,0,3,,,,,,,,2,,,63,75
279479,note_on,839,0,1,,,,,,,,0,,,74,0
279480,note_on,1,0,1,,,,,,,,0,,,78,74
279599,note_on,119,0,1,,,,,,,,0,,,78,0
279600,note_on,1,0,1,,,,,,,,0,,,79,83
279719,note_on,839,0,2,,,,,,,,1,,,71,0
279720,note_on,1,0,2,,,,,,,,1,,,74,70
279780,note_on,60,0,2,,,,,,,,1,,,74,0
279792,note_on,432,0,4,,,,,,,,3,,,55,0
279840,note_on,60,0,2,,,,,,,,1,,,75,74
279900,note_on,60,0,2,,,,,,,,1,,,75,0
279960,note_on,60,0,2,,,,,,,,1,,,71,78
280020,note_on,60,0,2,,,,,,,,1,,,71,0
280080,note_on,60,0,2,,,,,,,,1,,,72,73
280199,note_on,839,0,3,,,,,,,,2,,,63,0
280200,set_tempo,920,1,0,,,,,,589681,,,,,,
280200,note_on,1,0,3,,,,,,,,2,,,67,73
280296,note_on,216,0,2,,,,,,,,1,,,72,0
280308,note_on,108,0,3,,,,,,,,2,,,67,0
280320,note_on,12,0,3,,,,,,,,2,,,69,84
280320,note_on,24,0,2,,,,,,,,1,,,72,73
280440,note_on,648,0,4,,,,,,,,3,,,62,72
280559,note_on,119,0,4,,,,,,,,3,,,62,0
280560,note_on,1,0,4,,,,,,,,3,,,63,72
280679,note_on,359,0,3,,,,,,,,2,,,69,0
280680,note_on,1,0,3,,,,,,,,2,,,67,72
280799,note_on,119,0,3,,,,,,,,2,,,67,0
280800,note_on,1,0,3,,,,,,,,2,,,69,88
280919,note_on,599,0,2,,,,,,,,1,,,72,0
280920,note_on,1,0,2,,,,,,,,1,,,71,72
281039,note_on,119,0,2,,,,,,,,1,,,71,0
281040,note_on,1,0,2,,,,,,,,1,,,72,80
281120,set_tempo,920,1,0,,,,,,594059,,,,,,
281159,note_on,1559,0,1,,,,,,,,0,,,79,0
281160,note_on,1,0,1,,,,,,,,0,,,78,72
281260,set_tempo,140,1,0,,,,,,520607,,,,,,
281279,note_on,119,0,1,,,,,,,,0,,,78,0
281279,note_on,239,0,2,,,,,,,,1,,,72,0
281279,note_on,479,0,3,,,,,,,,2,,,69,0
281279,note_on,719,0,4,,,,,,,,3,,,63,0
281280,note_on,1,0,4,,,,,,,,3,,,55,72
281280,note_on,1,0,3,,,,,,,,2,,,62,64
281280,note_on,1,0,2,,,,,,,,1,,,67,64
281280,note_on,1,0,1,,,,,,,,0,,,79,74
281280,note_on,0,0,2,,,,,,,,1,,,71,64
281399,note_on,119,0,3,,,,,,,,2,,,62,0
281400,note_on,1,0,3,,,,,,,,2,,,59,70
281420,set_tempo,160,1,0,,,,,,524017,,,,,,
281519,note_on,119,0,3,,,,,,,,2,,,59,0
281520,note_on,1,0,3,,,,,,,,2,,,60,65
281540,set_tempo,120,1,0,,,,,,527473,,,,,,
281639,note_on,119,0,3,,,,,,,,2,,,60,0
281640,note_on,1,0,3,,,,,,,,2,,,62,62
281700,set_tempo,160,1,0,,,,,,530973,,,,,,
281712,note_on,432,0,1,,,,,,,,0,,,79,0
281748,note_on,108,0,3,,,,,,,,2,,,62,0
281759,note_on,0,0,2,,,,,,,,1,,,67,0
281759,note_on,479,0,2,,,,,,,,1,,,71,0
281760,note_on,1,0,2,,,,,,,,1,,,64,63
281820,set_tempo,120,1,0,,,,,,534521,,,,,,
281879,note_on,599,0,4,,,,,,,,3,,,55,0
281880,note_on,1,0,4,,,,,,,,3,,,52,70
281940,note_on,60,0,4,,,,,,,,3,,,52,0
281980,set_tempo,160,1,0,,,,,,538117,,,,,,
282000,note_on,60,0,4,,,,,,,,3,,,53,70
282060,note_on,60,0,4,,,,,,,,3,,,53,0
282100,set_tempo,120,1,0,,,,,,541761,,,,,,
282120,note_on,60,0,4,,,,,,,,3,,,55,70
282174,note_on,54,0,4,,,,,,,,3,,,55,0
282220,set_tempo,120,1,0,,,,,,545455,,,,,,
282240,note_on,66,0,4,,,,,,,,3,,,48,70
282240,note_on,492,0,3,,,,,,,,2,,,57,61
282260,set_tempo,40,1,0,,,,,,552995,,,,,,
282272,set_tempo,12,1,0,,,,,,552995,,,,,,
282359,note_on,599,0,2,,,,,,,,1,,,64,0
282360,note_on,1,0,2,,,,,,,,1,,,60,58
282420,note_on,60,0,2,,,,,,,,1,,,60,0
282479,note_on,239,0,3,,,,,,,,2,,,57,0
282480,note_on,60,0,2,,,,,,,,1,,,62,64
282480,note_on,1,0,3,,,,,,,,2,,,53,62
282540,note_on,60,0,2,,,,,,,,1,,,62,0
282600,note_on,60,0,2,,,,,,,,1,,,64,69
282660,note_on,60,0,2,,,,,,,,1,,,64,0
282719,note_on,239,0,3,,,,,,,,2,,,53,0
282720,note_on,1,0,3,,,,,,,,2,,,50,64
282720,note_on,60,0,2,,,,,,,,1,,,65,75
282792,set_tempo,520,1,0,,,,,,556845,,,,,,
282959,note_on,239,0,3,,,,,,,,2,,,50,0
282960,note_on,1,0,3,,,,,,,,2,,,59,67
283114,control_change,1402,0,1,,,,,,,,0,64,127,,
283199,note_on,239,0,3,,,,,,,,2,,,59,0
283200,note_on,1,0,3,,,,,,,,2,,,60,65
283200,note_on,86,0,1,,,,,,,,0,,,69,61
283272,set_tempo,480,1,0,,,,,,560748,,,,,,
283319,note_on,119,0,3,,,,,,,,2,,,60,0
283320,note_on,1,0,3,,,,,,,,2,,,59,66
283439,note_on,1199,0,4,,,,,,,,3,,,48,0
283439,note_on,719,0,2,,,,,,,,1,,,65,0
283439,note_on,119,0,3,,,,,,,,2,,,59,0
283440,note_on,1,0,2,,,,,,,,1,,,64,70
283440,note_on,1,0,4,,,,,,,,3,,,47,68
283440,note_on,1,0,3,,,,,,,,2,,,60,68
283559,note_on,119,0,2,,,,,,,,1,,,64,0
283559,note_on,119,0,3,,,,,,,,2,,,60,0
283560,note_on,1,0,3,,,,,,,,2,,,62,71
283560,note_on,1,0,2,,,,,,,,1,,,62,66
283679,note_on,119,0,3,,,,,,,,2,,,62,0
283679,note_on,239,0,4,,,,,,,,3,,,47,0
283679,note_on,119,0,2,,,,,,,,1,,,62,0
283679,note_on,479,0,1,,,,,,,,0,,,69,0
283680,note_on,1,0,4,,,,,,,,3,,,48,68
283680,note_on,1,0,2,,,,,,,,1,,,69,61
283680,note_on,1,0,1,,,,,,,,0,,,60,61
283680,note_on,1,0,3,,,,,,,,2,,,64,73
283792,set_tempo,520,1,0,,,,,,564706,,,,,,
283799,note_on,119,0,2,,,,,,,,1,,,69,0
283800,note_on,1,0,2,,,,,,,,1,,,72,62
283896,note_on,216,0,1,,,,,,,,0,,,60,0
283919,note_on,239,0,4,,,,,,,,3,,,48,0
283919,note_on,239,0,3,,,,,,,,2,,,64,0
283919,note_on,119,0,2,,,,,,,,1,,,72,0
283920,note_on,1,0,2,,,,,,,,1,,,71,64
283920,note_on,1,0,4,,,,,,,,3,,,50,67
283920,note_on,1,0,3,,,,,,,,2,,,62,71
284039,note_on,119,0,3,,,,,,,,2,,,62,0
284039,note_on,119,0,2,,,,,,,,1,,,71,0
284040,note_on,1,0,2,,,,,,,,1,,,69,65
284040,note_on,1,0,3,,,,,,,,2,,,60,69
284074,control_change,178,0,1,,,,,,,,0,64,0,,
284136,note_on,216,0,4,,,,,,,,3,,,50,0
284148,note_on,108,0,2,,,,,,,,1,,,69,0
284148,note_on,108,0,3,,,,,,,,2,,,60,0
284160,note_on,12,0,3,,,,,,,,2,,,59,75
284160,note_on,86,0,1,,,,,,,,0,,,67,67
284160,note_on,24,0,4,,,,,,,,3,,,52,67
284160,note_on,12,0,2,,,,,,,,1,,,64,75
284272,set_tempo,480,1,0,,,,,,568720,,,,,,
284279,note_on,119,0,3,,,,,,,,2,,,59,0
284280,note_on,1,0,3,,,,,,,,2,,,57,71
284399,note_on,119,0,3,,,,,,,,2,,,57,0
284399,note_on,239,0,1,,,,,,,,0,,,67,0
284400,note_on,1,0,1,,,,,,,,0,,,71,74
284400,note_on,1,0,3,,,,,,,,2,,,55,69
284519,note_on,119,0,3,,,,,,,,2,,,55,0
284520,note_on,1,0,3,,,,,,,,2,,,53,66
284639,note_on,479,0,4,,,,,,,,3,,,52,0
284639,note_on,119,0,3,,,,,,,,2,,,53,0
284639,note_on,239,0,1,,,,,,,,0,,,71,0
284640,note_on,1,0,4,,,,,,,,3,,,48,66
284640,note_on,1,0,3,,,,,,,,2,,,52,65
284640,note_on,1,0,1,,,,,,,,0,,,76,80
284759,note_on,599,0,2,,,,,,,,1,,,64,0
284760,note_on,1,0,2,,,,,,,,1,,,65,73
284879,note_on,119,0,2,,,,,,,,1,,,65,0
284879,note_on,239,0,1,,,,,,,,0,,,76,0
284880,note_on,1,0,2,,,,,,,,1,,,64,70
284880,note_on,1,0,1,,,,,,,,0,,,67,78
284999,note_on,119,0,2,,,,,,,,1,,,64,0
285000,note_on,1,0,2,,,,,,,,1,,,62,68
285119,note_on,239,0,1,,,,,,,,0,,,67,0
285119,note_on,119,0,2,,,,,,,,1,,,62,0
285119,note_on,479,0,4,,,,,,,,3,,,48,0
285120,note_on,1,0,4,,,,,,,,3,,,45,66
285120,note_on,1,0,1,,,,,,,,0,,,66,73
285120,note_on,1,0,2,,,,,,,,1,,,60,65
285239,note_on,599,0,3,,,,,,,,2,,,52,0
285240,note_on,1,0,3,,,,,,,,2,,,62,73
285359,note_on,119,0,3,,,,,,,,2,,,62,0
285359,note_on,239,0,2,,,,,,,,1,,,60,0
285359,note_on,239,0,1,,,,,,,,0,,,66,0
285360,note_on,1,0,2,,,,,,,,1,,,64,61
285360,note_on,1,0,3,,,,,,,,2,,,60,69
285360,note_on,1,0,1,,,,,,,,0,,,69,68
285479,note_on,119,0,3,,,,,,,,2,,,60,0
285480,note_on,1,0,3,,,,,,,,2,,,59,67
285599,note_on,479,0,4,,,,,,,,3,,,45,0
285599,note_on,119,0,3,,,,,,,,2,,,59,0
285599,note_on,239,0,2,,,,,,,,1,,,64,0
285599,note_on,239,0,1,,,,,,,,0,,,69,0
285600,note_on,1,0,2,,,,,,,,1,,,69,67
285600,note_on,1,0,3,,,,,,,,2,,,57,61
285600,note_on,1,0,4,,,,,,,,3,,,54,65
285600,note_on,1,0,1,,,,,,,,0,,,74,64
285719,note_on,119,0,3,,,,,,,,2,,,57,0
285720,note_on,1,0,3,,,,,,,,2,,,60,62
285839,note_on,119,0,3,,,,,,,,2,,,60,0
285839,note_on,239,0,2,,,,,,,,1,,,69,0
285840,note_on,1,0,3,,,,,,,,2,,,59,63
285840,note_on,1,0,2,,,,,,,,1,,,60,68
285959,note_on,119,0,3,,,,,,,,2,,,59,0
285960,note_on,1,0,3,,,,,,,,2,,,57,66
286032,note_on,432,0,4,,,,,,,,3,,,54,0
286056,note_on,216,0,2,,,,,,,,1,,,60,0
286068,note_on,108,0,3,,,,,,,,2,,,57,0
286080,control_change,48,0,4,,,,,,,,3,64,127,,
286080,note_on,12,0,3,,,,,,,,2,,,59,67
286080,note_on,24,0,2,,,,,,,,1,,,59,66
286080,note_on,0,0,4,,,,,,,,3,,,55,64
286199,note_on,119,0,3,,,,,,,,2,,,59,0
286199,note_on,599,0,1,,,,,,,,0,,,74,0
286200,note_on,1,0,3,,,,,,,,2,,,57,68
286200,note_on,1,0,1,,,,,,,,0,,,76,73
286319,note_on,239,0,2,,,,,,,,1,,,59,0
286319,note_on,119,0,3,,,,,,,,2,,,57,0
286319,note_on,119,0,1,,,,,,,,0,,,76,0
286320,note_on,1,0,3,,,,,,,,2,,,59,68
286320,note_on,1,0,1,,,,,,,,0,,,74,71
286320,note_on,1,0,2,,,,,,,,1,,,62,62
286439,note_on,119,0,1,,,,,,,,0,,,74,0
286439,note_on,119,0,3,,,,,,,,2,,,59,0
286440,note_on,1,0,1,,,,,,,,0,,,72,68
286440,note_on,1,0,3,,,,,,,,2,,,60,70
286559,note_on,119,0,1,,,,,,,,0,,,72,0
286559,note_on,239,0,2,,,,,,,,1,,,62,0
286559,note_on,119,0,3,,,,,,,,2,,,60,0
286560,note_on,1,0,3,,,,,,,,2,,,62,72
286560,note_on,1,0,1,,,,,,,,0,,,71,66
286560,note_on,1,0,2,,,,,,,,1,,,67,58
286679,note_on,119,0,3,,,,,,,,2,,,62,0
286680,note_on,1,0,3,,,,,,,,2,,,59,72
286799,note_on,119,0,3,,,,,,,,2,,,59,0
286799,note_on,239,0,1,,,,,,,,0,,,71,0
286800,note_on,1,0,3,,,,,,,,2,,,60,74
286800,note_on,1,0,1,,,,,,,,0,,,74,63
286860,note_on,60,0,3,,,,,,,,2,,,60,0
286920,note_on,60,0,3,,,,,,,,2,,,62,75
286980,note_on,60,0,3,,,,,,,,2,,,62,0
287039,note_on,239,0,1,,,,,,,,0,,,74,0
287040,control_change,960,0,4,,,,,,,,3,64,0,,
287040,note_on,60,0,3,,,,,,,,2,,,64,76
287040,note_on,1,0,1,,,,,,,,0,,,79,73
287100,note_on,60,0,3,,,,,,,,2,,,64,0
287160,note_on,60,0,3,,,,,,,,2,,,65,73
287279,note_on,239,0,1,,,,,,,,0,,,79,0
287279,note_on,119,0,3,,,,,,,,2,,,65,0
287279,note_on,719,0,2,,,,,,,,1,,,67,0
287279,note_on,239,0,4,,,,,,,,3,,,55,0
287280,note_on,1,0,2,,,,,,,,1,,,67,62
287280,note_on,1,0,4,,,,,,,,3,,,52,62
287280,note_on,1,0,3,,,,,,,,2,,,64,72
287280,note_on,1,0,1,,,,,,,,0,,,70,69
287399,note_on,119,0,3,,,,,,,,2,,,64,0
287400,note_on,1,0,3,,,,,,,,2,,,62,71
287519,note_on,239,0,4,,,,,,,,3,,,52,0
287519,note_on,239,0,1,,,,,,,,0,,,70,0
287519,note_on,119,0,3,,,,,,,,2,,,62,0
287520,note_on,1,0,3,,,,,,,,2,,,60,70
287520,note_on,1,0,4,,,,,,,,3,,,53,62
287520,note_on,1,0,1,,,,,,,,0,,,69,65
287639,note_on,359,0,2,,,,,,,,1,,,67,0
287639,note_on,119,0,3,,,,,,,,2,,,60,0
287640,note_on,1,0,3,,,,,,,,2,,,62,68
287640,note_on,1,0,2,,,,,,,,1,,,65,72
287759,note_on,119,0,3,,,,,,,,2,,,62,0
287759,note_on,239,0,4,,,,,,,,3,,,53,0
287759,note_on,119,0,2,,,,,,,,1,,,65,0
287759,note_on,239,0,1,,,,,,,,0,,,69,0
287760,note_on,1,0,1,,,,,,,,0,,,70,61
287760,note_on,1,0,3,,,,,,,,2,,,60,66
287760,note_on,1,0,4,,,,,,,,3,,,55,61
287760,note_on,1,0,2,,,,,,,,1,,,64,66
287879,note_on,119,0,2,,,,,,,,1,,,64,0
287879,note_on,119,0,3,,,,,,,,2,,,60,0
287880,note_on,1,0,3,,,,,,,,2,,,58,65
287880,set_tempo,3608,1,0,,,,,,549199,,,,,,
287880,note_on,1,0,2,,,,,,,,1,,,62,61
287976,note_on,216,0,4,,,,,,,,3,,,55,0
287976,note_on,216,0,1,,,,,,,,0,,,70,0
287988,note_on,108,0,3,,,,,,,,2,,,58,0
287988,note_on,108,0,2,,,,,,,,1,,,62,0
288000,note_on,12,0,3,,,,,,,,2,,,57,79
288000,note_on,24,0,1,,,,,,,,0,,,72,73
288000,note_on,24,0,4,,,,,,,,3,,,57,76
288000,note_on,12,0,2,,,,,,,,1,,,60,70
288119,note_on,119,0,3,,,,,,,,2,,,57,0
288119,note_on,119,0,2,,,,,,,,1,,,60,0
288120,note_on,1,0,2,,,,,,,,1,,,64,72
288120,note_on,1,0,3,,,,,,,,2,,,60,78
288180,note_on,60,0,3,,,,,,,,2,,,60,0
288239,note_on,119,0,2,,,,,,,,1,,,64,0
288240,note_on,1,0,2,,,,,,,,1,,,65,76
288240,note_on,60,0,3,,,,,,,,2,,,62,76
288300,note_on,60,0,3,,,,,,,,2,,,62,0
288359,note_on,119,0,2,,,,,,,,1,,,65,0
288360,note_on,60,0,3,,,,,,,,2,,,64,74
288360,note_on,1,0,2,,,,,,,,1,,,67,80
288420,note_on,60,0,3,,,,,,,,2,,,64,0
288479,note_on,479,0,4,,,,,,,,3,,,57,0
288479,note_on,119,0,2,,,,,,,,1,,,67,0
288480,note_on,60,0,3,,,,,,,,2,,,65,73
288480,note_on,1,0,2,,,,,,,,1,,,69,84
288480,note_on,1,0,4,,,,,,,,3,,,53,76
288599,note_on,599,0,1,,,,,,,,0,,,72,0
288600,note_on,1,0,1,,,,,,,,0,,,72,75
288660,note_on,60,0,1,,,,,,,,0,,,72,0
288719,note_on,239,0,2,,,,,,,,1,,,69,0
288719,note_on,239,0,3,,,,,,,,2,,,65,0
288720,note_on,1,0,2,,,,,,,,1,,,71,72
288720,note_on,1,0,3,,,,,,,,2,,,62,76
288720,note_on,60,0,1,,,,,,,,0,,,74,82
288780,note_on,60,0,1,,,,,,,,0,,,74,0
288839,note_on,119,0,2,,,,,,,,1,,,71,0
288840,note_on,1,0,2,,,,,,,,1,,,72,79
288840,note_on,60,0,1,,,,,,,,0,,,76,90
288900,note_on,60,0,1,,,,,,,,0,,,76,0
288959,note_on,479,0,4,,,,,,,,3,,,53,0
288959,note_on,119,0,2,,,,,,,,1,,,72,0
288960,note_on,1,0,2,,,,,,,,1,,,59,85
288960,note_on,1,0,4,,,,,,,,3,,,50,76
288960,note_on,0,0,1,,,,,,,,0,,,74,97
288960,note_on,60,0,1,,,,,,,,0,,,77,97
289079,note_on,359,0,3,,,,,,,,2,,,62,0
289080,note_on,1,0,3,,,,,,,,2,,,55,93
289199,note_on,119,0,3,,,,,,,,2,,,55,0
289199,note_on,239,0,2,,,,,,,,1,,,59,0
289200,note_on,1,0,3,,,,,,,,2,,,53,88
289200,note_on,1,0,2,,,,,,,,1,,,67,76
289319,note_on,119,0,3,,,,,,,,2,,,53,0
289320,note_on,1,0,3,,,,,,,,2,,,51,82
289439,note_on,119,0,3,,,,,,,,2,,,51,0
289439,note_on,479,0,4,,,,,,,,3,,,50,0
289439,note_on,239,0,2,,,,,,,,1,,,67,0
289440,note_on,1,0,4,,,,,,,,3,,,47,76
289440,note_on,1,0,2,,,,,,,,1,,,69,76
289440,note_on,1,0,3,,,,,,,,2,,,50,87
289559,note_on,119,0,3,,,,,,,,2,,,50,0
289560,note_on,1,0,3,,,,,,,,2,,,53,85
289679,note_on,119,0,3,,,,,,,,2,,,53,0
289680,note_on,1,0,3,,,,,,,,2,,,52,81
289799,note_on,119,0,3,,,,,,,,2,,,52,0
289800,note_on,1,0,3,,,,,,,,2,,,50,79
289872,note_on,432,0,4,,,,,,,,3,,,47,0
289908,note_on,108,0,3,,,,,,,,2,,,50,0
289920,note_on,0,0,4,,,,,,,,3,,,48,76
289920,note_on,12,0,3,,,,,,,,2,,,48,73
289920,note_on,48,0,4,,,,,,,,3,,,36,76
289968,control_change,48,0,4,,,,,,,,3,64,127,,
290039,note_on,119,0,3,,,,,,,,2,,,48,0
290040,note_on,1,0,3,,,,,,,,2,,,52,75
290100,note_on,60,0,3,,,,,,,,2,,,52,0
290159,note_on,1199,0,1,,,,,,,,0,,,74,0
290160,note_on,60,0,3,,,,,,,,2,,,53,78
290160,note_on,1,0,1,,,,,,,,0,,,72,76
290220,note_on,60,0,3,,,,,,,,2,,,53,0
290279,note_on,839,0,2,,,,,,,,1,,,69,0
290280,note_on,60,0,3,,,,,,,,2,,,55,79
290280,note_on,1,0,2,,,,,,,,1,,,67,76
290399,note_on,239,0,1,,,,,,,,0,,,77,0
290399,note_on,119,0,3,,,,,,,,2,,,55,0
290399,note_on,119,0,2,,,,,,,,1,,,67,0
290400,note_on,1,0,3,,,,,,,,2,,,56,81
290400,note_on,1,0,2,,,,,,,,1,,,65,88
290400,note_on,1,0,1,,,,,,,,0,,,77,76
290519,note_on,119,0,3,,,,,,,,2,,,56,0
290519,note_on,0,0,1,,,,,,,,0,,,72,0
290519,note_on,119,0,1,,,,,,,,0,,,77,0
290520,note_on,0,0,1,,,,,,,,0,,,71,85
290520,note_on,1,0,3,,,,,,,,2,,,55,82
290520,note_on,1,0,1,,,,,,,,0,,,77,85
290639,note_on,119,0,3,,,,,,,,2,,,55,0
290639,note_on,0,0,1,,,,,,,,0,,,77,0
290639,note_on,119,0,1,,,,,,,,0,,,71,0
290640,note_on,0,0,1,,,,,,,,0,,,72,81
290640,note_on,1,0,1,,,,,,,,0,,,76,81
290640,note_on,1,0,3,,,,,,,,2,,,57,85
290759,note_on,119,0,3,,,,,,,,2,,,57,0
290759,note_on,0,0,1,,,,,,,,0,,,76,0
290759,note_on,119,0,1,,,,,,,,0,,,72,0
290760,note_on,1,0,1,,,,,,,,0,,,74,78
290760,note_on,0,0,1,,,,,,,,0,,,74,78
290760,note_on,1,0,3,,,,,,,,2,,,59,87
290879,note_on,479,0,2,,,,,,,,1,,,65,0
290879,note_on,911,0,4,,,,,,,,3,,,36,0
290879,note_on,119,0,1,,,,,,,,0,,,74,0
290879,note_on,119,0,3,,,,,,,,2,,,59,0
290880,note_on,1,0,3,,,,,,,,2,,,60,88
290880,note_on,1,0,1,,,,,,,,0,,,76,74
290880,note_on,1,0,2,,,,,,,,1,,,64,76
290880,note_on,0,0,2,,,,,,,,1,,,67,76
290928,control_change,49,0,4,,,,,,,,3,64,0,,
290999,note_on,119,0,1,,,,,,,,0,,,76,0
291000,note_on,1,0,1,,,,,,,,0,,,79,73
291060,note_on,60,0,1,,,,,,,,0,,,79,0
291096,note_on,216,0,3,,,,,,,,2,,,60,0
291119,note_on,191,0,4,,,,,,,,3,,,48,0
291120,note_on,0,0,4,,,,,,,,3,,,59,76
291120,note_on,1,0,4,,,,,,,,3,,,47,76
291120,note_on,60,0,1,,,,,,,,0,,,81,75
291180,note_on,60,0,1,,,,,,,,0,,,81,0
291240,note_on,60,0,1,,,,,,,,0,,,83,78
291300,note_on,60,0,1,,,,,,,,0,,,83,0
291359,note_on,0,0,4,,,,,,,,3,,,47,0
291359,note_on,239,0,4,,,,,,,,3,,,59,0
291360,note_on,1,0,4,,,,,,,,3,,,45,76
291360,note_on,60,0,1,,,,,,,,0,,,84,81
291360,note_on,0,0,4,,,,,,,,3,,,57,76
291479,note_on,119,0,1,,,,,,,,0,,,74,0
291480,note_on,1,0,1,,,,,,,,0,,,64,84
291540,note_on,60,0,1,,,,,,,,0,,,64,0
291599,note_on,59,0,1,,,,,,,,0,,,84,0
291599,note_on,719,0,2,,,,,,,,1,,,67,0
291599,note_on,0,0,2,,,,,,,,1,,,64,0
291599,note_on,239,0,4,,,,,,,,3,,,57,0
291599,note_on,0,0,4,,,,,,,,3,,,45,0
291600,note_on,1,0,2,,,,,,,,1,,,72,76
291600,note_on,0,0,4,,,,,,,,3,,,55,76
291600,note_on,1,0,4,,,,,,,,3,,,43,76
291600,note_on,1,0,1,,,,,,,,0,,,76,86
291600,note_on,0,0,1,,,,,,,,0,,,65,86
291660,note_on,60,0,1,,,,,,,,0,,,65,0
291720,note_on,60,0,1,,,,,,,,0,,,67,90
291774,note_on,54,0,1,,,,,,,,0,,,67,0
291816,note_on,0,0,4,,,,,,,,3,,,43,0
291816,note_on,216,0,4,,,,,,,,3,,,55,0
291816,note_on,42,0,1,,,,,,,,0,,,76,0
291840,note_on,0,0,4,,,,,,,,3,,,54,76
291840,note_on,0,0,1,,,,,,,,0,,,74,92
291840,note_on,24,0,4,,,,,,,,3,,,42,76
291840,control_change,24,0,1,,,,,,,,0,64,127,,
291959,note_on,359,0,2,,,,,,,,1,,,72,0
291960,note_on,1,0,2,,,,,,,,1,,,72,85
291960,note_on,864,0,3,,,,,,,,2,,,64,87
292079,note_on,119,0,3,,,,,,,,2,,,64,0
292079,note_on,0,0,4,,,,,,,,3,,,42,0
292079,note_on,119,0,2,,,,,,,,1,,,72,0
292079,note_on,239,0,4,,,,,,,,3,,,54,0
292080,note_on,1,0,2,,,,,,,,1,,,71,82
292080,note_on,1,0,3,,,,,,,,2,,,62,84
292080,note_on,0,0,4,,,,,,,,3,,,59,85
292080,note_on,1,0,4,,,,,,,,3,,,47,85
292199,note_on,119,0,3,,,,,,,,2,,,62,0
292199,note_on,119,0,2,,,,,,,,1,,,71,0
292200,note_on,1,0,3,,,,,,,,2,,,60,80
292200,note_on,1,0,2,,,,,,,,1,,,69,80
292319,note_on,239,0,4,,,,,,,,3,,,59,0
292319,note_on,119,0,2,,,,,,,,1,,,69,0
292319,note_on,119,0,3,,,,,,,,2,,,60,0
292319,note_on,0,0,4,,,,,,,,3,,,47,0
292319,note_on,479,0,1,,,,,,,,0,,,74,0
292320,note_on,0,0,4,,,,,,,,3,,,56,85
292320,note_on,1,0,4,,,,,,,,3,,,44,85
292320,note_on,1,0,3,,,,,,,,2,,,59,75
292320,note_on,1,0,2,,,,,,,,1,,,74,78
292320,note_on,1,0,1,,,,,,,,0,,,71,76
292439,note_on,119,0,2,,,,,,,,1,,,74,0
292440,note_on,1,0,2,,,,,,,,1,,,74,91
292559,note_on,0,0,4,,,,,,,,3,,,44,0
292559,note_on,239,0,3,,,,,,,,2,,,59,0
292559,note_on,119,0,2,,,,,,,,1,,,74,0
292559,note_on,239,0,4,,,,,,,,3,,,56,0
292560,note_on,1,0,4,,,,,,,,3,,,40,85
292560,note_on,0,0,4,,,,,,,,3,,,52,85
292560,note_on,1,0,3,,,,,,,,2,,,68,79
292560,note_on,0,0,3,,,,,,,,2,,,64,79
292560,note_on,1,0,2,,,,,,,,1,,,72,90
292679,note_on,119,0,2,,,,,,,,1,,,72,0
292680,set_tempo,4800,1,0,,,,,,538117,,,,,,
292680,note_on,1,0,2,,,,,,,,1,,,71,87
292752,note_on,432,0,1,,,,,,,,0,,,71,0
292799,note_on,239,0,4,,,,,,,,3,,,52,0
292799,note_on,119,0,2,,,,,,,,1,,,71,0
292799,note_on,0,0,4,,,,,,,,3,,,40,0
292799,note_on,239,0,3,,,,,,,,2,,,64,0
292799,note_on,0,0,3,,,,,,,,2,,,68,0
292800,control_change,48,0,1,,,,,,,,0,64,0,,
292800,note_on,1,0,2,,,,,,,,1,,,72,86
292800,note_on,1,0,3,,,,,,,,2,,,69,93
292800,note_on,0,0,3,,,,,,,,2,,,64,93
292800,note_on,0,0,4,,,,,,,,3,,,57,85
292800,note_on,1,0,4,,,,,,,,3,,,45,85
292919,note_on,119,0,2,,,,,,,,1,,,72,0
292920,note_on,1,0,2,,,,,,,,1,,,76,84
293039,note_on,0,0,4,,,,,,,,3,,,45,0
293039,note_on,239,0,4,,,,,,,,3,,,57,0
293039,note_on,119,0,2,,,,,,,,1,,,76,0
293040,note_on,1,0,4,,,,,,,,3,,,43,84
293040,note_on,1,0,2,,,,,,,,1,,,77,82
293040,note_on,0,0,4,,,,,,,,3,,,55,84
293159,note_on,119,0,2,,,,,,,,1,,,77,0
293160,note_on,1,0,2,,,,,,,,1,,,79,80
293279,note_on,0,0,4,,,,,,,,3,,,43,0
293279,note_on,119,0,2,,,,,,,,1,,,79,0
293279,note_on,239,0,4,,,,,,,,3,,,55,0
293280,note_on,1,0,4,,,,,,,,3,,,41,84
293280,note_on,1,0,2,,,,,,,,1,,,81,79
293280,note_on,0,0,4,,,,,,,,3,,,53,84
293399,note_on,0,0,3,,,,,,,,2,,,69,0
293399,note_on,599,0,3,,,,,,,,2,,,64,0
293400,note_on,1,0,3,,,,,,,,2,,,60,91
293519,note_on,239,0,4,,,,,,,,3,,,53,0
293519,note_on,0,0,4,,,,,,,,3,,,41,0
293519,note_on,239,0,2,,,,,,,,1,,,81,0
293519,note_on,119,0,3,,,,,,,,2,,,60,0
293520,note_on,0,0,4,,,,,,,,3,,,52,84
293520,note_on,1,0,3,,,,,,,,2,,,62,87
293520,note_on,1,0,4,,,,,,,,3,,,40,84
293520,note_on,1,0,2,,,,,,,,1,,,72,76
293639,note_on,119,0,3,,,,,,,,2,,,62,0
293640,note_on,1,0,3,,,,,,,,2,,,64,84
293700,set_tempo,1020,1,0,,,,,,552995,,,,,,
293736,note_on,216,0,2,,,,,,,,1,,,72,0
293736,note_on,0,0,4,,,,,,,,3,,,40,0
293736,note_on,216,0,4,,,,,,,,3,,,52,0
293748,note_on,108,0,3,,,,,,,,2,,,64,0
293760,note_on,0,0,4,,,,,,,,3,,,50,84
293760,note_on,0,0,1,,,,,,,,0,,,70,76
293760,control_change,960,0,1,,,,,,,,0,64,127,,
293760,note_on,24,0,4,,,,,,,,3,,,38,84
293760,note_on,12,0,3,,,,,,,,2,,,65,80
293880,note_on,144,0,2,,,,,,,,1,,,69,76
293999,note_on,119,0,2,,,,,,,,1,,,69,0
293999,note_on,239,0,4,,,,,,,,3,,,50,0
293999,note_on,239,0,3,,,,,,,,2,,,65,0
293999,note_on,0,0,4,,,,,,,,3,,,38,0
294000,note_on,1,0,4,,,,,,,,3,,,43,83
294000,note_on,0,0,4,,,,,,,,3,,,55,83
294000,note_on,1,0,3,,,,,,,,2,,,60,75
294000,note_on,1,0,2,,,,,,,,1,,,67,93
294020,set_tempo,320,1,0,,,,,,556845,,,,,,
294119,note_on,119,0,2,,,,,,,,1,,,67,0
294119,note_on,119,0,3,,,,,,,,2,,,60,0
294120,note_on,1,0,2,,,,,,,,1,,,65,91
294120,note_on,1,0,3,,,,,,,,2,,,58,79
294239,note_on,119,0,3,,,,,,,,2,,,58,0
294239,note_on,0,0,4,,,,,,,,3,,,43,0
294239,note_on,479,0,1,,,,,,,,0,,,70,0
294239,note_on,119,0,2,,,,,,,,1,,,65,0
294239,note_on,239,0,4,,,,,,,,3,,,55,0
294240,note_on,1,0,3,,,,,,,,2,,,57,81
294240,note_on,1,0,2,,,,,,,,1,,,71,88
294240,note_on,0,0,4,,,,,,,,3,,,52,83
294240,note_on,1,0,4,,,,,,,,3,,,40,83
294240,note_on,1,0,1,,,,,,,,0,,,67,76
294340,set_tempo,320,1,0,,,,,,560748,,,,,,
294359,note_on,119,0,2,,,,,,,,1,,,71,0
294359,note_on,119,0,3,,,,,,,,2,,,57,0
294360,note_on,1,0,2,,,,,,,,1,,,71,86
294360,note_on,1,0,3,,,,,,,,2,,,55,85
294479,note_on,119,0,2,,,,,,,,1,,,71,0
294479,note_on,239,0,4,,,,,,,,3,,,52,0
294479,note_on,0,0,4,,,,,,,,3,,,40,0
294480,note_on,0,0,4,,,,,,,,3,,,48,83
294480,note_on,1,0,4,,,,,,,,3,,,36,83
294480,note_on,1,0,2,,,,,,,,1,,,69,76
294599,note_on,119,0,2,,,,,,,,1,,,69,0
294599,note_on,239,0,3,,,,,,,,2,,,55,0
294600,note_on,1,0,2,,,,,,,,1,,,67,84
294600,note_on,0,0,3,,,,,,,,2,,,60,76
294600,note_on,1,0,3,,,,,,,,2,,,64,76
294660,set_tempo,320,1,0,,,,,,564706,,,,,,
294672,note_on,432,0,1,,,,,,,,0,,,67,0
294719,note_on,239,0,4,,,,,,,,3,,,48,0
294719,note_on,0,0,4,,,,,,,,3,,,36,0
294719,note_on,119,0,2,,,,,,,,1,,,67,0
294720,control_change,48,0,1,,,,,,,,0,64,0,,
294720,note_on,0,0,4,,,,,,,,3,,,53,82
294720,note_on,1,0,4,,,,,,,,3,,,41,82
294720,note_on,1,0,2,,,,,,,,1,,,69,81
294839,note_on,239,0,3,,,,,,,,2,,,60,0
294839,note_on,119,0,2,,,,,,,,1,,,69,0
294839,note_on,0,0,3,,,,,,,,2,,,64,0
294840,note_on,0,0,3,,,,,,,,2,,,60,88
294840,note_on,1,0,3,,,,,,,,2,,,69,88
294840,note_on,1,0,2,,,,,,,,1,,,72,78
294959,note_on,239,0,4,,,,,,,,3,,,53,0
294959,note_on,0,0,4,,,,,,,,3,,,41,0
294959,note_on,119,0,2,,,,,,,,1,,,72,0
294960,note_on,1,0,4,,,,,,,,3,,,40,82
294960,note_on,0,0,4,,,,,,,,3,,,52,82
294960,note_on,1,0,2,,,,,,,,1,,,74,74
294980,set_tempo,320,1,0,,,,,,568720,,,,,,
295079,note_on,119,0,2,,,,,,,,1,,,74,0
295080,note_on,1,0,2,,,,,,,,1,,,76,72
295199,note_on,119,0,2,,,,,,,,1,,,76,0
295199,note_on,0,0,4,,,,,,,,3,,,40,0
295199,note_on,239,0,4,,,,,,,,3,,,52,0
295200,note_on,1,0,2,,,,,,,,1,,,77,68
295200,note_on,1,0,4,,,,,,,,3,,,38,82
295200,note_on,0,0,4,,,,,,,,3,,,50,82
295260,set_tempo,280,1,0,,,,,,572792,,,,,,
295319,note_on,479,0,3,,,,,,,,2,,,60,0
295319,note_on,0,0,3,,,,,,,,2,,,69,0
295320,note_on,1,0,3,,,,,,,,2,,,57,85
295439,note_on,119,0,3,,,,,,,,2,,,57,0
295439,note_on,239,0,2,,,,,,,,1,,,77,0
295439,note_on,0,0,4,,,,,,,,3,,,38,0
295439,note_on,239,0,4,,,,,,,,3,,,50,0
295440,note_on,1,0,2,,,,,,,,1,,,69,76
295440,note_on,1,0,3,,,,,,,,2,,,59,84
295440,note_on,0,0,2,,,,,,,,1,,,65,76
295440,note_on,1,0,4,,,,,,,,3,,,36,82
295440,note_on,0,0,4,,,,,,,,3,,,48,82
295559,note_on,119,0,3,,,,,,,,2,,,59,0
295560,note_on,1,0,3,,,,,,,,2,,,60,81
295580,set_tempo,320,1,0,,,,,,576923,,,,,,
295656,note_on,216,0,4,,,,,,,,3,,,48,0
295656,note_on,216,0,2,,,,,,,,1,,,65,0
295656,note_on,0,0,2,,,,,,,,1,,,69,0
295656,note_on,0,0,4,,,,,,,,3,,,36,0
295668,note_on,108,0,3,,,,,,,,2,,,60,0
295680,note_on,24,0,2,,,,,,,,1,,,65,91
295680,control_change,960,0,1,,,,,,,,0,64,127,,
295680,note_on,0,0,1,,,,,,,,0,,,67,93
295680,note_on,12,0,3,,,,,,,,2,,,62,79
295680,note_on,24,0,4,,,,,,,,3,,,35,81
295680,note_on,0,0,4,,,,,,,,3,,,47,81
295799,note_on,119,0,2,,,,,,,,1,,,65,0
295800,note_on,1,0,2,,,,,,,,1,,,65,90
295800,note_on,120,0,3,,,,,,,,2,,,57,78
295860,note_on,60,0,3,,,,,,,,2,,,57,0
295900,set_tempo,320,1,0,,,,,,581114,,,,,,
295919,note_on,59,0,3,,,,,,,,2,,,62,0
295919,note_on,0,0,4,,,,,,,,3,,,35,0
295919,note_on,239,0,4,,,,,,,,3,,,47,0
295919,note_on,119,0,2,,,,,,,,1,,,65,0
295920,note_on,0,0,4,,,,,,,,3,,,52,81
295920,note_on,1,0,4,,,,,,,,3,,,40,81
295920,note_on,1,0,2,,,,,,,,1,,,64,90
295920,note_on,1,0,3,,,,,,,,2,,,55,75
295980,note_on,60,0,3,,,,,,,,2,,,55,0
296039,note_on,119,0,2,,,,,,,,1,,,64,0
296040,note_on,60,0,3,,,,,,,,2,,,53,73
296040,note_on,1,0,2,,,,,,,,1,,,62,88
296100,note_on,60,0,3,,,,,,,,2,,,53,0
296159,note_on,0,0,4,,,,,,,,3,,,40,0
296159,note_on,479,0,1,,,,,,,,0,,,67,0
296159,note_on,119,0,2,,,,,,,,1,,,62,0
296159,note_on,239,0,4,,,,,,,,3,,,52,0
296160,note_on,1,0,4,,,,,,,,3,,,37,81
296160,note_on,1,0,1,,,,,,,,0,,,64,91
296160,note_on,0,0,4,,,,,,,,3,,,49,81
296160,note_on,60,0,3,,,,,,,,2,,,52,70
296160,note_on,1,0,2,,,,,,,,1,,,67,87
296220,set_tempo,320,1,0,,,,,,585366,,,,,,
296279,note_on,119,0,2,,,,,,,,1,,,67,0
296280,note_on,1,0,2,,,,,,,,1,,,67,87
296399,note_on,0,0,4,,,,,,,,3,,,37,0
296399,note_on,119,0,2,,,,,,,,1,,,67,0
296399,note_on,239,0,4,,,,,,,,3,,,49,0
296399,note_on,239,0,3,,,,,,,,2,,,52,0
296400,note_on,0,0,4,,,,,,,,3,,,45,81
296400,note_on,0,0,3,,,,,,,,2,,,57,76
296400,note_on,1,0,3,,,,,,,,2,,,61,76
296400,note_on,1,0,4,,,,,,,,3,,,33,81
296400,note_on,1,0,2,,,,,,,,1,,,65,86
296500,set_tempo,280,1,0,,,,,,589681,,,,,,
296519,note_on,119,0,2,,,,,,,,1,,,65,0
296520,note_on,1,0,2,,,,,,,,1,,,64,85
296639,note_on,479,0,1,,,,,,,,0,,,64,0
296639,note_on,239,0,3,,,,,,,,2,,,57,0
296639,note_on,0,0,3,,,,,,,,2,,,61,0
296639,note_on,239,0,4,,,,,,,,3,,,45,0
296639,note_on,0,0,4,,,,,,,,3,,,33,0
296640,control_change,1,0,1,,,,,,,,0,64,0,,
296640,note_on,1,0,3,,,,,,,,2,,,57,92
296640,note_on,0,0,1,,,,,,,,0,,,65,88
296640,note_on,1,0,4,,,,,,,,3,,,38,76
296640,note_on,0,0,4,,,,,,,,3,,,50,76
296759,note_on,239,0,2,,,,,,,,1,,,64,0
296760,note_on,1,0,2,,,,,,,,1,,,64,84
296820,set_tempo,320,1,0,,,,,,594059,,,,,,
296879,note_on,119,0,2,,,,,,,,1,,,64,0
296880,note_on,1,0,2,,,,,,,,1,,,62,82
296999,note_on,119,0,2,,,,,,,,1,,,62,0
297000,note_on,1,0,2,,,,,,,,1,,,60,81
297119,note_on,479,0,1,,,,,,,,0,,,65,0
297119,note_on,119,0,2,,,,,,,,1,,,60,0
297120,note_on,1,0,1,,,,,,,,0,,,62,86
297120,note_on,1,0,2,,,,,,,,1,,,65,81
297140,set_tempo,320,1,0,,,,,,598504,,,,,,
297239,note_on,119,0,2,,,,,,,,1,,,65,0
297239,note_on,599,0,3,,,,,,,,2,,,57,0
297240,note_on,1,0,2,,,,,,,,1,,,67,80
297240,note_on,1,0,3,,,,,,,,2,,,58,75
297300,note_on,60,0,3,,,,,,,,2,,,58,0
297359,note_on,719,0,4,,,,,,,,3,,,50,0
297359,note_on,0,0,4,,,,,,,,3,,,38,0
297359,note_on,119,0,2,,,,,,,,1,,,67,0
297360,note_on,60,0,3,,,,,,,,2,,,57,79
297360,note_on,1,0,2,,,,,,,,1,,,65,79
297360,note_on,1,0,4,,,,,,,,3,,,38,76
297360,note_on,0,0,4,,,,,,,,3,,,50,76
297420,note_on,60,0,3,,,,,,,,2,,,57,0
297460,set_tempo,320,1,0,,,,,,603015,,,,,,
297479,note_on,119,0,2,,,,,,,,1,,,65,0
297480,note_on,60,0,3,,,,,,,,2,,,55,82
297480,note_on,1,0,2,,,,,,,,1,,,64,79
297492,control_change,372,0,1,,,,,,,,0,64,127,,
297534,note_on,54,0,3,,,,,,,,2,,,55,0
297552,note_on,60,0,1,,,,,,,,0,,,62,0
297576,note_on,216,0,4,,,,,,,,3,,,50,0
297576,note_on,0,0,4,,,,,,,,3,,,38,0
297588,note_on,108,0,2,,,,,,,,1,,,64,0
297600,note_on,66,0,3,,,,,,,,2,,,60,87
297600,note_on,12,0,2,,,,,,,,1,,,62,78
297600,note_on,0,0,4,,,,,,,,3,,,48,76
297600,note_on,24,0,4,,,,,,,,3,,,36,76
297600,note_on,48,0,1,,,,,,,,0,,,66,84
297719,note_on,119,0,2,,,,,,,,1,,,62,0
297720,note_on,1,0,2,,,,,,,,1,,,64,75
297740,set_tempo,280,1,0,,,,,,607595,,,,,,
297839,note_on,239,0,3,,,,,,,,2,,,60,0
297839,note_on,119,0,2,,,,,,,,1,,,64,0
297840,note_on,1,0,2,,,,,,,,1,,,62,74
297840,note_on,1,0,3,,,,,,,,2,,,54,80
297959,note_on,119,0,2,,,,,,,,1,,,62,0
297960,note_on,1,0,2,,,,,,,,1,,,61,72
298056,control_change,216,0,3,,,,,,,,2,64,127,,
298079,note_on,23,0,3,,,,,,,,2,,,54,0
298079,note_on,479,0,1,,,,,,,,0,,,66,0
298079,note_on,119,0,2,,,,,,,,1,,,61,0
298080,note_on,1,0,2,,,,,,,,1,,,65,71
298080,note_on,1,0,1,,,,,,,,0,,,62,77
298080,note_on,1,0,3,,,,,,,,2,,,50,74
298140,note_on,60,0,2,,,,,,,,1,,,65,0
298200,note_on,60,0,2,,,,,,,,1,,,69,68
298260,note_on,60,0,2,,,,,,,,1,,,69,0
298319,note_on,0,0,4,,,,,,,,3,,,36,0
298319,note_on,239,0,3,,,,,,,,2,,,50,0
298319,note_on,719,0,4,,,,,,,,3,,,48,0
298320,note_on,1,0,3,,,,,,,,2,,,63,67
298320,note_on,0,0,4,,,,,,,,3,,,48,70
298320,note_on,0,0,3,,,,,,,,2,,,58,67
298320,note_on,1,0,4,,,,,,,,3,,,36,70
298320,note_on,60,0,2,,,,,,,,1,,,67,67
298380,note_on,60,0,2,,,,,,,,1,,,67,0
298440,note_on,60,0,2,,,,,,,,1,,,65,66
298452,control_change,372,0,1,,,,,,,,0,64,0,,
298500,note_on,60,0,2,,,,,,,,1,,,65,0
298559,note_on,0,0,4,,,,,,,,3,,,36,0
298559,note_on,239,0,3,,,,,,,,2,,,58,0
298559,note_on,0,0,3,,,,,,,,2,,,63,0
298559,note_on,107,0,1,,,,,,,,0,,,62,0
298559,note_on,239,0,4,,,,,,,,3,,,48,0
298560,note_on,1,0,1,,,,,,,,0,,,59,71
298560,note_on,1,0,4,,,,,,,,3,,,35,69
298560,note_on,60,0,2,,,,,,,,1,,,63,63
298560,note_on,0,0,4,,,,,,,,3,,,47,69
298560,note_on,0,0,1,,,,,,,,0,,,67,71
298560,note_on,1,0,3,,,,,,,,2,,,59,61
298620,note_on,60,0,2,,,,,,,,1,,,63,0
298680,note_on,120,0,4,,,,,,,,3,,,57,67
298680,note_on,60,0,2,,,,,,,,1,,,65,62
298740,note_on,60,0,2,,,,,,,,1,,,65,0
298740,note_on,60,0,4,,,,,,,,3,,,57,0
298800,note_on,60,0,2,,,,,,,,1,,,64,60
298800,note_on,60,0,4,,,,,,,,3,,,55,66
298860,note_on,60,0,4,,,,,,,,3,,,55,0
298860,note_on,60,0,2,,,,,,,,1,,,64,0
298920,note_on,60,0,4,,,,,,,,3,,,54,66
298920,note_on,60,0,2,,,,,,,,1,,,63,66
298980,note_on,60,0,4,,,,,,,,3,,,54,0
298980,note_on,60,0,2,,,,,,,,1,,,63,0
299016,control_change,456,0,3,,,,,,,,2,64,0,,
299040,note_on,60,0,2,,,,,,,,1,,,64,65
299040,note_on,60,0,4,,,,,,,,3,,,52,65
299088,control_change,528,0,1,,,,,,,,0,64,127,,
299159,note_on,71,0,1,,,,,,,,0,,,59,0
299159,note_on,143,0,3,,,,,,,,2,,,59,0
299160,note_on,1,0,1,,,,,,,,0,,,57,60
299160,note_on,1,0,3,,,,,,,,2,,,57,62
299220,note_on,60,0,1,,,,,,,,0,,,57,0
299279,note_on,119,0,3,,,,,,,,2,,,57,0
299279,note_on,0,0,4,,,,,,,,3,,,35,0
299279,note_on,239,0,4,,,,,,,,3,,,47,0
299280,note_on,1,0,3,,,,,,,,2,,,59,64
299280,note_on,1,0,4,,,,,,,,3,,,35,63
299280,note_on,60,0,1,,,,,,,,0,,,59,63
299280,note_on,0,0,4,,,,,,,,3,,,47,63
299340,note_on,60,0,1,,,,,,,,0,,,59,0
299399,note_on,119,0,3,,,,,,,,2,,,59,0
299400,note_on,1,0,3,,,,,,,,2,,,60,66
299400,note_on,60,0,1,,,,,,,,0,,,60,67
299454,note_on,54,0,1,,,,,,,,0,,,60,0
299472,note_on,432,0,2,,,,,,,,1,,,64,0
299472,note_on,192,0,4,,,,,,,,3,,,52,0
299496,note_on,24,0,4,,,,,,,,3,,,47,0
299496,note_on,0,0,4,,,,,,,,3,,,35,0
299508,note_on,108,0,3,,,,,,,,2,,,60,0
299520,note_on,24,0,4,,,,,,,,3,,,34,76
299520,note_on,0,0,4,,,,,,,,3,,,46,76
299520,set_tempo,1780,1,0,,,,,,560748,,,,,,
299520,note_on,48,0,2,,,,,,,,1,,,61,76
299532,control_change,78,0,1,,,,,,,,0,64,0,,
299639,note_on,107,0,1,,,,,,,,0,,,67,0
299640,note_on,1,0,1,,,,,,,,0,,,65,78
299759,note_on,119,0,1,,,,,,,,0,,,65,0
299759,note_on,239,0,2,,,,,,,,1,,,61,0
299760,note_on,1,0,2,,,,,,,,1,,,55,76
299760,note_on,1,0,1,,,,,,,,0,,,64,81
299760,note_on,0,0,2,,,,,,,,1,,,58,76
299879,note_on,119,0,1,,,,,,,,0,,,64,0
299880,note_on,1,0,1,,,,,,,,0,,,65,85
299999,note_on,0,0,2,,,,,,,,1,,,55,0
299999,note_on,119,0,1,,,,,,,,0,,,65,0
299999,note_on,239,0,2,,,,,,,,1,,,58,0
300000,note_on,1,0,2,,,,,,,,1,,,52,76
300000,note_on,1,0,1,,,,,,,,0,,,67,87
300000,note_on,0,0,1,,,,,,,,0,,,72,87
300000,note_on,0,0,2,,,,,,,,1,,,55,76
300119,note_on,119,0,1,,,,,,,,0,,,67,0
300120,note_on,1,0,1,,,,,,,,0,,,68,76
300239,note_on,119,0,1,,,,,,,,0,,,68,0
300239,note_on,719,0,4,,,,,,,,3,,,46,0
300239,note_on,0,0,4,,,,,,,,3,,,34,0
300239,note_on,239,0,2,,,,,,,,1,,,55,0
300239,note_on,0,0,2,,,,,,,,1,,,52,0
300240,note_on,0,0,2,,,,,,,,1,,,64,76
300240,note_on,1,0,2,,,,,,,,1,,,60,76
300240,note_on,1,0,1,,,,,,,,0,,,65,80
300240,note_on,1,0,4,,,,,,,,3,,,34,76
300240,note_on,0,0,4,,,,,,,,3,,,46,76
300359,note_on,119,0,1,,,,,,,,0,,,65,0
300360,note_on,1,0,1,,,,,,,,0,,,67,84
300479,note_on,119,0,1,,,,,,,,0,,,67,0
300479,note_on,239,0,2,,,,,,,,1,,,64,0
300479,note_on,0,0,1,,,,,,,,0,,,72,0
300479,note_on,0,0,4,,,,,,,,3,,,34,0
300479,note_on,239,0,4,,,,,,,,3,,,46,0
300479,note_on,0,0,2,,,,,,,,1,,,60,0
300480,note_on,0,0,1,,,,,,,,0,,,69,88
300480,note_on,0,0,4,,,,,,,,3,,,44,76
300480,note_on,1,0,2,,,,,,,,1,,,65,74
300480,note_on,1,0,4,,,,,,,,3,,,32,76
300480,note_on,1,0,1,,,,,,,,0,,,72,88
300599,note_on,119,0,2,,,,,,,,1,,,65,0
300599,note_on,119,0,1,,,,,,,,0,,,72,0
300600,note_on,1,0,2,,,,,,,,1,,,64,76
300600,note_on,1,0,1,,,,,,,,0,,,72,79
300719,note_on,119,0,2,,,,,,,,1,,,64,0
300719,note_on,119,0,1,,,,,,,,0,,,72,0
300720,note_on,1,0,2,,,,,,,,1,,,65,79
300720,note_on,1,0,1,,,,,,,,0,,,74,82
300839,note_on,119,0,2,,,,,,,,1,,,65,0
300839,note_on,119,0,1,,,,,,,,0,,,74,0
300840,note_on,1,0,1,,,,,,,,0,,,76,86
300840,note_on,1,0,2,,,,,,,,1,,,67,81
300959,note_on,119,0,2,,,,,,,,1,,,67,0
300959,note_on,119,0,1,,,,,,,,0,,,69,0
300960,note_on,1,0,1,,,,,,,,0,,,77,79
300960,note_on,1,0,2,,,,,,,,1,,,69,84
301079,note_on,119,0,2,,,,,,,,1,,,69,0
301079,note_on,119,0,1,,,,,,,,0,,,76,0
301080,note_on,1,0,1,,,,,,,,0,,,75,84
301080,note_on,1,0,2,,,,,,,,1,,,65,86
301199,note_on,119,0,1,,,,,,,,0,,,75,0
301199,note_on,119,0,2,,,,,,,,1,,,65,0
301199,note_on,0,0,4,,,,,,,,3,,,32,0
301199,note_on,719,0,4,,,,,,,,3,,,44,0
301200,note_on,1,0,4,,,,,,,,3,,,32,76
301200,note_on,0,0,4,,,,,,,,3,,,44,76
301200,note_on,1,0,2,,,,,,,,1,,,67,88
301200,note_on,1,0,1,,,,,,,,0,,,74,88
301319,note_on,119,0,2,,,,,,,,1,,,67,0
301319,note_on,119,0,1,,,,,,,,0,,,74,0
301320,note_on,1,0,1,,,,,,,,0,,,72,93
301320,note_on,1,0,2,,,,,,,,1,,,69,91
301392,note_on,72,0,1,,,,,,,,0,,,77,0
301416,note_on,216,0,4,,,,,,,,3,,,44,0
301416,note_on,0,0,4,,,,,,,,3,,,32,0
301428,note_on,36,0,1,,,,,,,,0,,,72,0
301428,note_on,108,0,2,,,,,,,,1,,,69,0
301440,note_on,0,0,4,,,,,,,,3,,,43,83
301440,note_on,12,0,2,,,,,,,,1,,,62,102
301440,note_on,24,0,4,,,,,,,,3,,,31,83
301440,note_on,0,0,2,,,,,,,,1,,,71,102
301440,note_on,12,0,1,,,,,,,,0,,,77,99
301559,note_on,119,0,1,,,,,,,,0,,,77,0
301560,note_on,1,0,1,,,,,,,,0,,,80,94
301679,note_on,119,0,1,,,,,,,,0,,,80,0
301680,note_on,1,0,1,,,,,,,,0,,,79,90
301680,note_on,2172,0,3,,,,,,,,2,,,55,77
301799,note_on,119,0,1,,,,,,,,0,,,79,0
301800,note_on,1,0,1,,,,,,,,0,,,77,87
301919,note_on,239,0,3,,,,,,,,2,,,55,0
301919,note_on,479,0,2,,,,,,,,1,,,71,0
301919,note_on,119,0,1,,,,,,,,0,,,77,0
301919,note_on,0,0,2,,,,,,,,1,,,62,0
301920,note_on,1,0,3,,,,,,,,2,,,63,78
301920,note_on,1,0,1,,,,,,,,0,,,75,82
301920,note_on,1,0,2,,,,,,,,1,,,72,76
302039,note_on,119,0,1,,,,,,,,0,,,75,0
302040,note_on,1,0,1,,,,,,,,0,,,79,88
302159,note_on,119,0,1,,,,,,,,0,,,79,0
302159,note_on,239,0,3,,,,,,,,2,,,63,0
302160,note_on,1,0,3,,,,,,,,2,,,57,78
302160,note_on,1,0,1,,,,,,,,0,,,77,86
302279,note_on,119,0,1,,,,,,,,0,,,77,0
302280,note_on,1,0,1,,,,,,,,0,,,75,80
302399,note_on,959,0,4,,,,,,,,3,,,43,0
302399,note_on,0,0,4,,,,,,,,3,,,31,0
302399,note_on,239,0,3,,,,,,,,2,,,57,0
302399,note_on,119,0,1,,,,,,,,0,,,75,0
302399,note_on,479,0,2,,,,,,,,1,,,72,0
302400,note_on,1,0,2,,,,,,,,1,,,65,66
302400,note_on,1,0,1,,,,,,,,0,,,74,76
302400,note_on,1,0,3,,,,,,,,2,,,59,77
302400,note_on,1,0,4,,,,,,,,3,,,55,68
302519,note_on,119,0,1,,,,,,,,0,,,74,0
302520,note_on,1,0,1,,,,,,,,0,,,77,75
302639,note_on,119,0,1,,,,,,,,0,,,77,0
302639,note_on,239,0,2,,,,,,,,1,,,65,0
302640,note_on,1,0,2,,,,,,,,1,,,67,67
302640,note_on,1,0,1,,,,,,,,0,,,75,70
302759,note_on,119,0,1,,,,,,,,0,,,75,0
302760,note_on,1,0,1,,,,,,,,0,,,74,68
302879,note_on,119,0,1,,,,,,,,0,,,74,0
302879,note_on,239,0,2,,,,,,,,1,,,67,0
302879,note_on,479,0,3,,,,,,,,2,,,59,0
302880,note_on,1,0,1,,,,,,,,0,,,72,65
302880,note_on,1,0,2,,,,,,,,1,,,63,65
302880,note_on,1,0,3,,,,,,,,2,,,60,61
302999,note_on,119,0,1,,,,,,,,0,,,72,0
303000,note_on,1,0,1,,,,,,,,0,,,75,61
303119,note_on,119,0,1,,,,,,,,0,,,75,0
303119,note_on,239,0,2,,,,,,,,1,,,63,0
303120,note_on,1,0,1,,,,,,,,0,,,74,57
303120,note_on,1,0,2,,,,,,,,1,,,66,64
303239,note_on,119,0,1,,,,,,,,0,,,74,0
303240,note_on,1,0,1,,,,,,,,0,,,72,54
303312,note_on,432,0,3,,,,,,,,2,,,60,0
303336,note_on,216,0,2,,,,,,,,1,,,66,0
303348,note_on,108,0,1,,,,,,,,0,,,72,0
303360,set_tempo,3840,1,0,,,,,,552995,,,,,,
303360,note_on,12,0,1,,,,,,,,0,,,67,83
303360,note_on,24,0,2,,,,,,,,1,,,71,78
303360,note_on,48,0,3,,,,,,,,2,,,62,68
303479,note_on,119,0,1,,,,,,,,0,,,67,0
303480,note_on,1,0,1,,,,,,,,0,,,69,82
303599,note_on,1199,0,4,,,,,,,,3,,,55,0
303599,note_on,119,0,1,,,,,,,,0,,,69,0
303599,note_on,239,0,3,,,,,,,,2,,,62,0
303600,note_on,1,0,3,,,,,,,,2,,,62,72
303600,note_on,1,0,1,,,,,,,,0,,,67,80
303600,note_on,1,0,4,,,,,,,,3,,,57,67
303600,note_on,240,0,2,,,,,,,,1,,,62,67
303719,note_on,119,0,1,,,,,,,,0,,,67,0
303720,note_on,1,0,1,,,,,,,,0,,,66,77
303839,note_on,239,0,2,,,,,,,,1,,,71,0
303839,note_on,239,0,4,,,,,,,,3,,,57,0
303839,note_on,119,0,1,,,,,,,,0,,,66,0
303840,note_on,1,0,4,,,,,,,,3,,,55,66
303840,note_on,1,0,1,,,,,,,,0,,,71,68
303840,note_on,1,0,2,,,,,,,,1,,,67,66
303900,note_on,60,0,1,,,,,,,,0,,,71,0
303959,note_on,119,0,2,,,,,,,,1,,,62,0
303959,note_on,359,0,3,,,,,,,,2,,,62,0
303960,note_on,1,0,3,,,,,,,,2,,,59,63
303960,note_on,60,0,1,,,,,,,,0,,,74,70
303960,note_on,1,0,2,,,,,,,,1,,,59,74
304020,note_on,60,0,1,,,,,,,,0,,,74,0
304079,note_on,119,0,3,,,,,,,,2,,,59,0
304079,note_on,239,0,4,,,,,,,,3,,,55,0
304080,note_on,1,0,3,,,,,,,,2,,,60,65
304080,note_on,1,0,4,,,,,,,,3,,,53,66
304080,note_on,60,0,1,,,,,,,,0,,,76,73
304140,note_on,60,0,1,,,,,,,,0,,,76,0
304199,note_on,119,0,3,,,,,,,,2,,,60,0
304200,note_on,1,0,3,,,,,,,,2,,,62,67
304200,note_on,60,0,1,,,,,,,,0,,,77,77
304319,note_on,119,0,3,,,,,,,,2,,,62,0
304319,note_on,119,0,1,,,,,,,,0,,,77,0
304319,note_on,239,0,4,,,,,,,,3,,,53,0
304320,note_on,1,0,1,,,,,,,,0,,,79,79
304320,note_on,0,0,3,,,,,,,,2,,,60,68
304320,note_on,1,0,4,,,,,,,,3,,,52,64
304320,note_on,1,0,3,,,,,,,,2,,,64,68
304439,note_on,119,0,1,,,,,,,,0,,,79,0
304440,note_on,1,0,1,,,,,,,,0,,,72,79
304536,note_on,216,0,3,,,,,,,,2,,,60,0
304536,note_on,0,0,3,,,,,,,,2,,,64,0
304559,note_on,119,0,1,,,,,,,,0,,,72,0
304559,note_on,0,0,2,,,,,,,,1,,,67,0
304559,note_on,599,0,2,,,,,,,,1,,,59,0
304560,note_on,1,0,2,,,,,,,,1,,,67,63
304560,note_on,1,0,1,,,,,,,,0,,,71,77
304679,note_on,119,0,1,,,,,,,,0,,,71,0
304680,note_on,1,0,1,,,,,,,,0,,,69,75
304799,note_on,119,0,1,,,,,,,,0,,,69,0
304799,note_on,479,0,4,,,,,,,,3,,,52,0
304800,note_on,1,0,1,,,,,,,,0,,,71,72
304800,note_on,1,0,4,,,,,,,,3,,,55,63
304919,note_on,119,0,1,,,,,,,,0,,,71,0
304919,note_on,359,0,2,,,,,,,,1,,,67,0
304920,note_on,1,0,1,,,,,,,,0,,,72,69
304920,note_on,1,0,2,,,,,,,,1,,,64,61
304980,note_on,60,0,2,,,,,,,,1,,,64,0
305039,note_on,119,0,1,,,,,,,,0,,,72,0
305040,note_on,60,0,2,,,,,,,,1,,,65,65
305040,note_on,1,0,1,,,,,,,,0,,,74,67
305100,note_on,60,0,2,,,,,,,,1,,,65,0
305159,note_on,119,0,1,,,,,,,,0,,,74,0
305160,note_on,60,0,2,,,,,,,,1,,,67,68
305160,note_on,1,0,1,,,,,,,,0,,,76,64
305214,note_on,54,0,2,,,,,,,,1,,,67,0
305232,note_on,432,0,4,,,,,,,,3,,,55,0
305268,note_on,108,0,1,,,,,,,,0,,,76,0
305280,note_on,48,0,4,,,,,,,,3,,,59,76
305280,note_on,744,0,3,,,,,,,,2,,,62,76
305280,note_on,66,0,2,,,,,,,,1,,,68,88
305280,note_on,12,0,1,,,,,,,,0,,,77,78
305399,note_on,119,0,1,,,,,,,,0,,,77,0
305400,note_on,1,0,1,,,,,,,,0,,,72,75
305519,note_on,239,0,2,,,,,,,,1,,,68,0
305519,note_on,119,0,1,,,,,,,,0,,,72,0
305520,note_on,1,0,1,,,,,,,,0,,,71,77
305520,note_on,0,0,2,,,,,,,,1,,,67,75
305520,note_on,1,0,2,,,,,,,,1,,,62,75
305639,note_on,119,0,1,,,,,,,,0,,,71,0
305640,note_on,1,0,1,,,,,,,,0,,,69,79
305759,note_on,479,0,4,,,,,,,,3,,,59,0
305759,note_on,239,0,2,,,,,,,,1,,,67,0
305759,note_on,119,0,1,,,,,,,,0,,,69,0
305760,note_on,1,0,4,,,,,,,,3,,,50,74
305760,note_on,1,0,1,,,,,,,,0,,,71,80
305760,note_on,1,0,2,,,,,,,,1,,,65,74
305879,note_on,119,0,1,,,,,,,,0,,,71,0
305879,note_on,119,0,2,,,,,,,,1,,,62,0
305879,note_on,599,0,3,,,,,,,,2,,,62,0
305880,note_on,1,0,2,,,,,,,,1,,,59,73
305880,note_on,1,0,1,,,,,,,,0,,,74,82
305880,note_on,1,0,3,,,,,,,,2,,,59,79
305940,note_on,60,0,2,,,,,,,,1,,,59,0
305999,note_on,119,0,1,,,,,,,,0,,,74,0
305999,note_on,119,0,3,,,,,,,,2,,,59,0
306000,note_on,1,0,1,,,,,,,,0,,,76,85
306000,note_on,60,0,2,,,,,,,,1,,,60,79
306000,note_on,1,0,3,,,,,,,,2,,,60,76
306060,note_on,60,0,2,,,,,,,,1,,,60,0
306119,note_on,119,0,3,,,,,,,,2,,,60,0
306119,note_on,119,0,1,,,,,,,,0,,,76,0
306120,note_on,60,0,2,,,,,,,,1,,,62,90
306120,note_on,1,0,3,,,,,,,,2,,,62,78
306120,note_on,1,0,1,,,,,,,,0,,,77,94
306239,note_on,119,0,1,,,,,,,,0,,,77,0
306239,note_on,479,0,4,,,,,,,,3,,,50,0
306239,note_on,119,0,3,,,,,,,,2,,,62,0
306240,note_on,1,0,4,,,,,,,,3,,,48,77
306240,note_on,1,0,1,,,,,,,,0,,,76,93
306240,note_on,1,0,3,,,,,,,,2,,,55,75
306300,note_on,180,0,2,,,,,,,,1,,,62,0
306360,note_on,120,0,1,,,,,,,,0,,,73,87
306479,note_on,239,0,3,,,,,,,,2,,,55,0
306479,note_on,119,0,1,,,,,,,,0,,,73,0
306479,note_on,179,0,2,,,,,,,,1,,,65,0
306480,note_on,1,0,3,,,,,,,,2,,,60,75
306480,note_on,1,0,2,,,,,,,,1,,,67,85
306480,note_on,1,0,1,,,,,,,,0,,,72,83
306599,note_on,119,0,1,,,,,,,,0,,,72,0
306600,note_on,1,0,1,,,,,,,,0,,,70,79
306672,note_on,432,0,4,,,,,,,,3,,,48,0
306719,note_on,119,0,1,,,,,,,,0,,,70,0
306719,note_on,0,0,1,,,,,,,,0,,,76,0
306720,note_on,0,0,1,,,,,,,,0,,,68,75
306720,note_on,1,0,1,,,,,,,,0,,,77,75
306839,note_on,119,0,1,,,,,,,,0,,,68,0
306840,note_on,1,0,1,,,,,,,,0,,,72,77
306959,note_on,479,0,2,,,,,,,,1,,,67,0
306959,note_on,119,0,1,,,,,,,,0,,,72,0
306959,note_on,479,0,3,,,,,,,,2,,,60,0
306960,note_on,1,0,1,,,,,,,,0,,,70,80
306960,note_on,1,0,2,,,,,,,,1,,,65,75
306960,note_on,1,0,3,,,,,,,,2,,,62,71
307079,note_on,119,0,1,,,,,,,,0,,,70,0
307080,note_on,1,0,1,,,,,,,,0,,,68,82
307152,note_on,72,0,1,,,,,,,,0,,,77,0
307188,note_on,36,0,1,,,,,,,,0,,,68,0
307200,note_on,12,0,1,,,,,,,,0,,,79,84
307200,note_on,0,0,1,,,,,,,,0,,,67,84
307200,note_on,528,0,4,,,,,,,,3,,,48,68
307260,control_change,60,0,4,,,,,,,,3,64,127,,
307319,note_on,119,0,1,,,,,,,,0,,,67,0
307320,set_tempo,3960,1,0,,,,,,545455,,,,,,
307320,note_on,1,0,1,,,,,,,,0,,,70,80
307439,note_on,119,0,1,,,,,,,,0,,,70,0
307439,note_on,0,0,1,,,,,,,,0,,,79,0
307439,note_on,479,0,2,,,,,,,,1,,,65,0
307439,note_on,479,0,3,,,,,,,,2,,,62,0
307440,note_on,1,0,3,,,,,,,,2,,,60,59
307440,note_on,1,0,1,,,,,,,,0,,,72,77
307440,note_on,0,0,1,,,,,,,,0,,,68,77
307440,note_on,1,0,2,,,,,,,,1,,,63,66
307559,note_on,119,0,1,,,,,,,,0,,,68,0
307560,note_on,1,0,1,,,,,,,,0,,,67,76
307679,note_on,119,0,1,,,,,,,,0,,,67,0
307679,note_on,239,0,2,,,,,,,,1,,,63,0
307680,note_on,1,0,2,,,,,,,,1,,,62,62
307680,note_on,1,0,1,,,,,,,,0,,,65,71
307799,note_on,119,0,1,,,,,,,,0,,,65,0
307800,note_on,1,0,1,,,,,,,,0,,,68,68
307919,note_on,0,0,1,,,,,,,,0,,,72,0
307919,note_on,119,0,1,,,,,,,,0,,,68,0
307920,note_on,1,0,1,,,,,,,,0,,,71,67
307920,note_on,0,0,1,,,,,,,,0,,,67,67
308039,note_on,119,0,1,,,,,,,,0,,,67,0
308040,note_on,1,0,1,,,,,,,,0,,,65,63
308159,note_on,119,0,1,,,,,,,,0,,,71,0
308159,note_on,719,0,3,,,,,,,,2,,,60,0
308160,note_on,1,0,3,,,,,,,,2,,,55,58
308160,note_on,1,0,1,,,,,,,,0,,,72,62
308160,note_on,0,0,3,,,,,,,,2,,,64,58
308220,control_change,960,0,4,,,,,,,,3,64,0,,
308279,note_on,119,0,1,,,,,,,,0,,,65,0
308279,note_on,599,0,2,,,,,,,,1,,,62,0
308280,note_on,1,0,1,,,,,,,,0,,,62,59
308280,note_on,1,0,2,,,,,,,,1,,,62,64
308399,note_on,179,0,4,,,,,,,,3,,,48,0
308399,note_on,119,0,2,,,,,,,,1,,,62,0
308399,note_on,119,0,1,,,,,,,,0,,,62,0
308400,note_on,1,0,2,,,,,,,,1,,,60,59
308400,note_on,1,0,4,,,,,,,,3,,,50,54
308400,note_on,1,0,1,,,,,,,,0,,,60,56
308519,note_on,119,0,1,,,,,,,,0,,,60,0
308519,note_on,119,0,2,,,,,,,,1,,,60,0
308520,note_on,1,0,1,,,,,,,,0,,,59,54
308520,note_on,1,0,2,,,,,,,,1,,,59,56
308592,note_on,72,0,1,,,,,,,,0,,,72,0
308639,note_on,119,0,2,,,,,,,,1,,,59,0
308639,note_on,239,0,4,,,,,,,,3,,,50,0
308639,note_on,47,0,1,,,,,,,,0,,,59,0
308640,note_on,1,0,2,,,,,,,,1,,,60,51
308640,note_on,1,0,4,,,,,,,,3,,,48,53
308640,note_on,1,0,1,,,,,,,,0,,,60,51
308759,note_on,599,0,3,,,,,,,,2,,,64,0
308760,note_on,1,0,3,,,,,,,,2,,,67,56
308820,note_on,60,0,3,,,,,,,,2,,,67,0
308879,note_on,239,0,4,,,,,,,,3,,,48,0
308879,note_on,59,0,3,,,,,,,,2,,,55,0
308880,note_on,1,0,4,,,,,,,,3,,,46,51
308880,note_on,1,0,3,,,,,,,,2,,,55,53
308880,note_on,0,0,3,,,,,,,,2,,,69,53
308940,note_on,60,0,3,,,,,,,,2,,,69,0
309000,note_on,60,0,3,,,,,,,,2,,,70,51
309054,note_on,54,0,3,,,,,,,,2,,,70,0
309072,note_on,432,0,1,,,,,,,,0,,,60,0
309072,note_on,432,0,2,,,,,,,,1,,,60,0
309096,note_on,42,0,3,,,,,,,,2,,,55,0
309096,note_on,216,0,4,,,,,,,,3,,,46,0
309120,note_on,0,0,4,,,,,,,,3,,,45,76
309120,control_change,48,0,1,,,,,,,,0,64,127,,
309120,control_change,24,0,4,,,,,,,,3,64,127,,
309120,note_on,24,0,3,,,,,,,,2,,,60,78
309120,note_on,0,0,1,,,,,,,,0,,,75,76
309120,note_on,48,0,2,,,,,,,,1,,,72,86
309239,note_on,119,0,2,,,,,,,,1,,,72,0
309239,note_on,119,0,3,,,,,,,,2,,,60,0
309240,note_on,1,0,3,,,,,,,,2,,,58,74
309240,note_on,1,0,2,,,,,,,,1,,,67,83
309359,note_on,119,0,3,,,,,,,,2,,,58,0
309359,note_on,119,0,2,,,,,,,,1,,,67,0
309360,note_on,1,0,3,,,,,,,,2,,,57,72
309360,note_on,1,0,2,,,,,,,,1,,,66,80
309479,note_on,119,0,3,,,,,,,,2,,,57,0
309479,note_on,119,0,2,,,,,,,,1,,,66,0
309480,note_on,1,0,2,,,,,,,,1,,,64,77
309480,note_on,1,0,3,,,,,,,,2,,,55,69
309599,note_on,479,0,4,,,,,,,,3,,,45,0
309599,note_on,119,0,3,,,,,,,,2,,,55,0
309599,note_on,119,0,2,,,,,,,,1,,,64,0
309600,note_on,1,0,2,,,,,,,,1,,,66,74
309600,note_on,1,0,3,,,,,,,,2,,,57,66
309600,note_on,1,0,4,,,,,,,,3,,,48,72
309719,note_on,119,0,2,,,,,,,,1,,,66,0
309720,note_on,1,0,2,,,,,,,,1,,,67,71
309839,note_on,119,0,2,,,,,,,,1,,,67,0
309840,note_on,240,0,4,,,,,,,,3,,,53,70
309840,note_on,1,0,2,,,,,,,,1,,,69,68
309959,note_on,119,0,2,,,,,,,,1,,,69,0
309960,note_on,1,0,2,,,,,,,,1,,,71,67
310079,note_on,119,0,2,,,,,,,,1,,,71,0
310079,note_on,0,0,4,,,,,,,,3,,,48,0
310079,note_on,479,0,3,,,,,,,,2,,,57,0
310079,note_on,239,0,4,,,,,,,,3,,,53,0
310080,control_change,960,0,1,,,,,,,,0,64,0,,
310080,control_change,1,0,4,,,,,,,,3,64,0,,
310080,note_on,0,0,4,,,,,,,,3,,,51,68
310080,note_on,1,0,3,,,,,,,,2,,,55,68
310080,note_on,1,0,2,,,,,,,,1,,,72,63
310199,note_on,119,0,2,,,,,,,,1,,,72,0
310200,note_on,120,0,1,,,,,,,,0,,,62,76
310200,note_on,1,0,2,,,,,,,,1,,,65,60
310319,note_on,119,0,1,,,,,,,,0,,,62,0
310319,note_on,119,0,2,,,,,,,,1,,,65,0
310320,note_on,1,0,1,,,,,,,,0,,,60,72
310320,note_on,1,0,2,,,,,,,,1,,,63,61
310439,note_on,119,0,2,,,,,,,,1,,,63,0
310439,note_on,119,0,1,,,,,,,,0,,,60,0
310440,note_on,1,0,1,,,,,,,,0,,,59,69
310440,note_on,1,0,2,,,,,,,,1,,,62,63
310512,note_on,432,0,3,,,,,,,,2,,,55,0
310559,note_on,119,0,2,,,,,,,,1,,,62,0
310559,note_on,479,0,4,,,,,,,,3,,,51,0
310560,note_on,1,0,4,,,,,,,,3,,,43,64
310560,note_on,48,0,3,,,,,,,,2,,,60,64
310560,note_on,1,0,2,,,,,,,,1,,,63,64
310679,note_on,119,0,2,,,,,,,,1,,,63,0
310679,note_on,239,0,1,,,,,,,,0,,,59,0
310680,note_on,1,0,1,,,,,,,,0,,,64,63
310680,note_on,1,0,2,,,,,,,,1,,,67,66
310799,note_on,119,0,1,,,,,,,,0,,,64,0
310799,note_on,119,0,2,,,,,,,,1,,,67,0
310800,note_on,1,0,1,,,,,,,,0,,,65,65
310800,note_on,1,0,2,,,,,,,,1,,,69,67
310848,note_on,48,0,1,,,,,,,,0,,,75,0
310919,note_on,119,0,2,,,,,,,,1,,,69,0
310919,note_on,71,0,1,,,,,,,,0,,,65,0
310920,note_on,1,0,1,,,,,,,,0,,,67,67
310920,note_on,1,0,2,,,,,,,,1,,,71,68
310992,note_on,432,0,3,,,,,,,,2,,,60,0
310992,note_on,432,0,4,,,,,,,,3,,,43,0
311028,note_on,108,0,1,,,,,,,,0,,,67,0
311028,note_on,108,0,2,,,,,,,,1,,,71,0
311040,note_on,0,0,1,,,,,,,,0,,,69,87
311040,note_on,0,0,4,,,,,,,,3,,,57,76
311040,note_on,0,0,1,,,,,,,,0,,,72,87
311040,control_change,48,0,4,,,,,,,,3,64,127,,
311040,control_change,12,0,1,,,,,,,,0,64,127,,
311040,note_on,0,0,1,,,,,,,,0,,,75,87
311040,note_on,0,0,4,,,,,,,,3,,,48,76
311040,note_on,0,0,1,,,,,,,,0,,,63,87
311040,note_on,0,0,4,,,,,,,,3,,,42,76
311040,note_on,0,0,4,,,,,,,,3,,,51,76
311560,set_tempo,4240,1,0,,,,,,568720,,,,,,
311960,set_tempo,400,1,0,,,,,,662983,,,,,,
311999,note_on,0,0,1,,,,,,,,0,,,69,0
311999,note_on,959,0,4,,,,,,,,3,,,42,0
311999,note_on,0,0,1,,,,,,,,0,,,72,0
311999,note_on,0,0,4,,,,,,,,3,,,51,0
311999,note_on,0,0,4,,,,,,,,3,,,57,0
311999,note_on,0,0,1,,,,,,,,0,,,75,0
311999,note_on,0,0,4,,,,,,,,3,,,48,0
311999,note_on,959,0,1,,,,,,,,0,,,63,0
312000,control_change,1,0,4,,,,,,,,3,64,0,,
312000,set_tempo,40,1,0,,,,,,679887,,,,,,
312000,note_on,0,0,1,,,,,,,,0,,,71,98
312000,note_on,0,0,4,,,,,,,,3,,,53,76
312000,note_on,0,0,1,,,,,,,,0,,,65,98
312000,control_change,1,0,1,,,,,,,,0,64,0,,
312000,note_on,0,0,1,,,,,,,,0,,,74,98
312000,note_on,0,0,1,,,,,,,,0,,,62,98
312000,note_on,0,0,4,,,,,,,,3,,,44,76
312000,note_on,0,0,4,,,,,,,,3,,,50,76
312000,note_on,0,0,4,,,,,,,,3,,,59,76
312432,note_on,0,0,4,,,,,,,,3,,,50,0
312432,note_on,0,0,4,,,,,,,,3,,,59,0
312432,note_on,432,0,1,,,,,,,,0,,,74,0
312432,note_on,432,0,4,,,,,,,,3,,,44,0
312432,note_on,0,0,1,,,,,,,,0,,,71,0
312432,note_on,0,0,1,,,,,,,,0,,,65,0
312432,note_on,0,0,1,,,,,,,,0,,,62,0
312432,note_on,0,0,4,,,,,,,,3,,,53,0
312960,note_on,0,0,1,,,,,,,,0,,,63,98
312960,note_on,0,0,1,,,,,,,,0,,,60,98
312960,note_on,0,0,1,,,,,,,,0,,,66,98
312960,note_on,0,0,1,,,,,,,,0,,,69,98
312960,note_on,0,0,1,,,,,,,,0,,,72,98
312960,control_change,528,0,1,,,,,,,,0,64,127,,
312960,control_change,528,0,4,,,,,,,,3,64,127,,
312960,note_on,0,0,4,,,,,,,,3,,,45,76
312960,note_on,0,0,4,,,,,,,,3,,,51,76
312960,note_on,0,0,4,,,,,,,,3,,,54,76
313919,note_on,0,0,1,,,,,,,,0,,,63,0
313919,note_on,0,0,1,,,,,,,,0,,,66,0
313919,note_on,0,0,1,,,,,,,,0,,,69,0
313919,note_on,959,0,1,,,,,,,,0,,,72,0
313919,note_on,0,0,4,,,,,,,,3,,,51,0
313919,note_on,0,0,4,,,,,,,,3,,,54,0
313919,note_on,0,0,1,,,,,,,,0,,,60,0
313919,note_on,959,0,4,,,,,,,,3,,,45,0
313920,note_on,0,0,1,,,,,,,,0,,,59,98
313920,note_on,0,0,1,,,,,,,,0,,,65,98
313920,note_on,0,0,1,,,,,,,,0,,,68,98
313920,note_on,0,0,1,,,,,,,,0,,,71,98
313920,control_change,1,0,1,,,,,,,,0,64,0,,
313920,note_on,0,0,4,,,,,,,,3,,,53,76
313920,note_on,0,0,4,,,,,,,,3,,,38,76
313920,control_change,1,0,4,,,,,,,,3,64,0,,
314500,set_tempo,2500,1,0,,,,,,504202,,,,,,
314639,note_on,719,0,4,,,,,,,,3,,,38,0
314639,note_on,0,0,4,,,,,,,,3,,,53,0
314639,note_on,0,0,1,,,,,,,,0,,,59,0
314639,note_on,0,0,1,,,,,,,,0,,,68,0
314639,note_on,0,0,1,,,,,,,,0,,,65,0
314639,note_on,719,0,1,,,,,,,,0,,,71,0
314640,note_on,1,0,4,,,,,,,,3,,,65,76
314640,note_on,0,0,4,,,,,,,,3,,,50,76
314640,note_on,1,0,1,,,,,,,,0,,,71,76
314640,note_on,3612,0,2,,,,,,,,1,,,77,76
314759,note_on,119,0,2,,,,,,,,1,,,77,0
314760,note_on,1,0,2,,,,,,,,1,,,79,85
314819,note_on,59,0,2,,,,,,,,1,,,79,0
314820,note_on,1,0,2,,,,,,,,1,,,81,96
314856,note_on,216,0,1,,,,,,,,0,,,71,0
314856,note_on,0,0,4,,,,,,,,3,,,65,0
314856,note_on,216,0,4,,,,,,,,3,,,50,0
314874,note_on,54,0,2,,,,,,,,1,,,81,0
314880,note_on,6,0,2,,,,,,,,1,,,67,94
314880,note_on,0,0,2,,,,,,,,1,,,72,94
314880,note_on,0,0,3,,,,,,,,2,,,52,76
314880,note_on,0,0,3,,,,,,,,2,,,55,76
314880,note_on,24,0,1,,,,,,,,0,,,79,94
314880,note_on,3888,0,3,,,,,,,,2,,,64,76
314900,set_tempo,400,1,0,,,,,,507400,,,,,,
315119,note_on,0,0,3,,,,,,,,2,,,55,0
315119,note_on,239,0,1,,,,,,,,0,,,79,0
315119,note_on,239,0,2,,,,,,,,1,,,72,0
315119,note_on,239,0,3,,,,,,,,2,,,52,0
315119,note_on,0,0,3,,,,,,,,2,,,64,0
315119,note_on,0,0,2,,,,,,,,1,,,67,0
315120,note_on,0,0,3,,,,,,,,2,,,53,80
315120,note_on,0,0,2,,,,,,,,1,,,69,85
315120,note_on,1,0,2,,,,,,,,1,,,64,85
315120,note_on,1,0,1,,,,,,,,0,,,72,76
315120,note_on,1,0,3,,,,,,,,2,,,57,80
315260,set_tempo,360,1,0,,,,,,510638,,,,,,
315280,set_tempo,20,1,0,,,,,,507400,,,,,,
315359,note_on,239,0,3,,,,,,,,2,,,53,0
315359,note_on,0,0,3,,,,,,,,2,,,57,0
315359,note_on,239,0,2,,,,,,,,1,,,69,0
315359,note_on,239,0,1,,,,,,,,0,,,72,0
315359,note_on,0,0,2,,,,,,,,1,,,64,0
315360,note_on,0,0,2,,,,,,,,1,,,72,82
315360,note_on,1,0,1,,,,,,,,0,,,76,97
315360,note_on,0,0,3,,,,,,,,2,,,43,86
315360,note_on,0,0,2,,,,,,,,1,,,67,82
315360,note_on,1,0,2,,,,,,,,1,,,64,82
315360,note_on,1,0,3,,,,,,,,2,,,52,86
315360,set_tempo,80,1,0,,,,,,510638,,,,,,
315400,set_tempo,40,1,0,,,,,,513919,,,,,,
315420,note_on,60,0,1,,,,,,,,0,,,76,0
315480,note_on,120,0,3,,,,,,,,2,,,43,0
315480,note_on,120,0,2,,,,,,,,1,,,72,0
315480,note_on,0,0,3,,,,,,,,2,,,52,0
315480,note_on,0,0,2,,,,,,,,1,,,64,0
315480,note_on,0,0,2,,,,,,,,1,,,67,0
315480,note_on,60,0,1,,,,,,,,0,,,74,92
315480,set_tempo,80,1,0,,,,,,517241,,,,,,
315540,note_on,60,0,1,,,,,,,,0,,,74,0
315560,set_tempo,80,1,0,,,,,,520607,,,,,,
315600,note_on,60,0,1,,,,,,,,0,,,72,87
315600,note_on,120,0,3,,,,,,,,2,,,55,78
315600,note_on,0,0,2,,,,,,,,1,,,67,80
315600,note_on,0,0,3,,,,,,,,2,,,43,78
315600,note_on,120,0,2,,,,,,,,1,,,62,80
315600,set_tempo,40,1,0,,,,,,524017,,,,,,
315660,note_on,60,0,1,,,,,,,,0,,,72,0
315680,set_tempo,80,1,0,,,,,,527473,,,,,,
315720,note_on,0,0,2,,,,,,,,1,,,62,0
315720,note_on,60,0,1,,,,,,,,0,,,71,82
315720,note_on,120,0,2,,,,,,,,1,,,67,0
315720,note_on,120,0,3,,,,,,,,2,,,43,0
315732,control_change,876,0,4,,,,,,,,3,64,127,,
315760,set_tempo,80,1,0,,,,,,530973,,,,,,
315780,note_on,60,0,1,,,,,,,,0,,,71,0
315800,set_tempo,40,1,0,,,,,,534521,,,,,,
315840,note_on,120,0,3,,,,,,,,2,,,55,0
315840,note_on,0,0,2,,,,,,,,1,,,67,78
315840,note_on,60,0,1,,,,,,,,0,,,72,79
315840,note_on,120,0,2,,,,,,,,1,,,64,78
315840,note_on,0,0,4,,,,,,,,3,,,48,76
315840,note_on,108,0,4,,,,,,,,3,,,36,76
315880,set_tempo,80,1,0,,,,,,538117,,,,,,
315920,set_tempo,40,1,0,,,,,,541761,,,,,,
316080,note_on,240,0,3,,,,,,,,2,,,60,60
316240,set_tempo,320,1,0,,,,,,530973,,,,,,
316319,note_on,479,0,2,,,,,,,,1,,,67,0
316319,note_on,479,0,1,,,,,,,,0,,,72,0
316319,note_on,0,0,2,,,,,,,,1,,,64,0
316320,note_on,0,0,2,,,,,,,,1,,,67,60
316320,note_on,1,0,1,,,,,,,,0,,,76,60
316320,note_on,1,0,2,,,,,,,,1,,,72,60
316439,note_on,359,0,3,,,,,,,,2,,,60,0
316440,note_on,1,0,3,,,,,,,,2,,,62,72
316536,note_on,216,0,2,,,,,,,,1,,,67,0
316536,note_on,216,0,1,,,,,,,,0,,,76,0
316536,note_on,0,0,2,,,,,,,,1,,,72,0
316559,note_on,119,0,3,,,,,,,,2,,,62,0
316560,note_on,1,0,3,,,,,,,,2,,,60,69
316679,note_on,119,0,3,,,,,,,,2,,,60,0
316680,note_on,1,0,3,,,,,,,,2,,,58,67
316788,note_on,108,0,3,,,,,,,,2,,,58,0
316800,note_on,264,0,2,,,,,,,,1,,,69,60
316800,note_on,0,0,2,,,,,,,,1,,,72,60
316800,note_on,12,0,3,,,,,,,,2,,,57,64
316800,note_on,264,0,1,,,,,,,,0,,,77,59
316919,note_on,119,0,1,,,,,,,,0,,,77,0
316920,note_on,1,0,1,,,,,,,,0,,,74,62
316980,note_on,60,0,1,,,,,,,,0,,,74,0
317039,note_on,239,0,3,,,,,,,,2,,,57,0
317039,note_on,0,0,2,,,,,,,,1,,,69,0
317039,note_on,239,0,2,,,,,,,,1,,,72,0
317040,note_on,1,0,3,,,,,,,,2,,,60,60
317040,note_on,1,0,2,,,,,,,,1,,,67,60
317040,note_on,60,0,1,,,,,,,,0,,,76,65
317040,note_on,0,0,2,,,,,,,,1,,,72,60
317100,note_on,60,0,1,,,,,,,,0,,,76,0
317160,note_on,60,0,1,,,,,,,,0,,,77,68
317220,note_on,60,0,1,,,,,,,,0,,,77,0
317279,note_on,239,0,3,,,,,,,,2,,,60,0
317279,note_on,239,0,2,,,,,,,,1,,,67,0
317280,note_on,1,0,3,,,,,,,,2,,,64,62
317280,note_on,60,0,1,,,,,,,,0,,,79,71
317399,note_on,120,0,2,,,,,,,,1,,,72,0
317400,note_on,1,0,2,,,,,,,,1,,,74,67
317460,note_on,60,0,2,,,,,,,,1,,,74,0
317519,note_on,239,0,3,,,,,,,,2,,,64,0
317520,note_on,1,0,3,,,,,,,,2,,,64,67
317520,note_on,0,0,3,,,,,,,,2,,,55,67
317520,note_on,60,0,2,,,,,,,,1,,,72,66
317580,note_on,60,0,2,,,,,,,,1,,,72,0
317640,note_on,60,0,2,,,,,,,,1,,,70,62
317700,note_on,60,0,2,,,,,,,,1,,,70,0
317759,note_on,239,0,3,,,,,,,,2,,,55,0
317759,note_on,0,0,3,,,,,,,,2,,,64,0
317760,note_on,1,0,3,,,,,,,,2,,,65,66
317760,note_on,60,0,2,,,,,,,,1,,,69,60
317879,note_on,119,0,3,,,,,,,,2,,,65,0
317880,note_on,1,0,3,,,,,,,,2,,,64,63
317999,note_on,719,0,1,,,,,,,,0,,,79,0
317999,note_on,239,0,2,,,,,,,,1,,,69,0
317999,note_on,119,0,3,,,,,,,,2,,,64,0
318000,note_on,1,0,2,,,,,,,,1,,,72,58
318000,note_on,1,0,1,,,,,,,,0,,,79,58
318000,note_on,1,0,3,,,,,,,,2,,,58,61
318060,note_on,60,0,3,,,,,,,,2,,,58,0
318120,note_on,60,0,3,,,,,,,,2,,,57,58
318156,control_change,2316,0,4,,,,,,,,3,64,0,,
318180,note_on,60,0,3,,,,,,,,2,,,57,0
318239,note_on,239,0,2,,,,,,,,1,,,72,0
318240,note_on,60,0,3,,,,,,,,2,,,58,57
318240,note_on,1,0,2,,,,,,,,1,,,76,60
318240,note_on,84,0,4,,,,,,,,3,,,48,58
318359,note_on,359,0,1,,,,,,,,0,,,79,0
318360,note_on,1,0,1,,,,,,,,0,,,76,56
318420,note_on,60,0,1,,,,,,,,0,,,76,0
318456,note_on,216,0,3,,,,,,,,2,,,58,0
318479,note_on,239,0,2,,,,,,,,1,,,76,0
318480,note_on,240,0,4,,,,,,,,3,,,52,57
318480,note_on,60,0,1,,,,,,,,0,,,77,61
318480,note_on,1,0,2,,,,,,,,1,,,67,61
318540,note_on,60,0,1,,,,,,,,0,,,77,0
318600,note_on,60,0,1,,,,,,,,0,,,79,65
318654,note_on,54,0,1,,,,,,,,0,,,79,0
318696,note_on,0,0,4,,,,,,,,3,,,48,0
318696,note_on,216,0,4,,,,,,,,3,,,52,0
318696,note_on,216,0,2,,,,,,,,1,,,67,0
318720,note_on,24,0,4,,,,,,,,3,,,53,57
318720,note_on,66,0,1,,,,,,,,0,,,81,68
318720,note_on,24,0,2,,,,,,,,1,,,65,64
318839,note_on,119,0,4,,,,,,,,3,,,53,0
318840,note_on,1,0,4,,,,,,,,3,,,52,57
318900,note_on,60,0,4,,,,,,,,3,,,52,0
318959,note_on,239,0,1,,,,,,,,0,,,81,0
318960,note_on,60,0,4,,,,,,,,3,,,53,57
318960,note_on,1,0,1,,,,,,,,0,,,77,57
318960,note_on,504,0,3,,,,,,,,2,,,60,57
319020,note_on,60,0,4,,,,,,,,3,,,53,0
319080,note_on,60,0,4,,,,,,,,3,,,55,57
319140,note_on,60,0,4,,,,,,,,3,,,55,0
319199,note_on,239,0,1,,,,,,,,0,,,77,0
319200,note_on,1,0,1,,,,,,,,0,,,74,64
319200,note_on,60,0,4,,,,,,,,3,,,56,56
319319,note_on,359,0,3,,,,,,,,2,,,60,0
319320,note_on,1,0,3,,,,,,,,2,,,59,51
319439,note_on,719,0,2,,,,,,,,1,,,65,0
319439,note_on,239,0,1,,,,,,,,0,,,74,0
319439,note_on,119,0,3,,,,,,,,2,,,59,0
319440,note_on,1,0,1,,,,,,,,0,,,83,56
319440,note_on,1,0,3,,,,,,,,2,,,60,53
319440,note_on,1,0,2,,,,,,,,1,,,77,56
319500,note_on,60,0,3,,,,,,,,2,,,60,0
319560,note_on,60,0,3,,,,,,,,2,,,62,55
319620,note_on,60,0,3,,,,,,,,2,,,62,0
319679,note_on,479,0,4,,,,,,,,3,,,56,0
319679,note_on,239,0,2,,,,,,,,1,,,77,0
319679,note_on,239,0,1,,,,,,,,0,,,83,0
319680,note_on,1,0,4,,,,,,,,3,,,55,55
319680,note_on,1,0,1,,,,,,,,0,,,84,53
319680,note_on,1,0,2,,,,,,,,1,,,79,59
319680,note_on,60,0,3,,,,,,,,2,,,64,57
319799,note_on,119,0,1,,,,,,,,0,,,84,0
319800,note_on,1,0,1,,,,,,,,0,,,82,55
319800,note_on,120,0,3,,,,,,,,2,,,64,0
319860,note_on,60,0,1,,,,,,,,0,,,82,0
319920,note_on,120,0,3,,,,,,,,2,,,60,61
319920,note_on,60,0,1,,,,,,,,0,,,81,58
319980,note_on,60,0,1,,,,,,,,0,,,81,0
320040,note_on,60,0,1,,,,,,,,0,,,79,62
320100,note_on,60,0,1,,,,,,,,0,,,79,0
320159,note_on,479,0,4,,,,,,,,3,,,55,0
320159,note_on,239,0,3,,,,,,,,2,,,60,0
320160,note_on,60,0,1,,,,,,,,0,,,77,64
320160,note_on,1,0,3,,,,,,,,2,,,57,55
320160,note_on,1,0,4,,,,,,,,3,,,48,55
320279,note_on,599,0,2,,,,,,,,1,,,79,0
320280,note_on,1,0,2,,,,,,,,1,,,76,63
320340,note_on,60,0,2,,,,,,,,1,,,76,0
320399,note_on,239,0,3,,,,,,,,2,,,57,0
320400,note_on,60,0,2,,,,,,,,1,,,74,61
320400,note_on,1,0,3,,,,,,,,2,,,65,54
320460,note_on,60,0,2,,,,,,,,1,,,74,0
320520,note_on,60,0,2,,,,,,,,1,,,72,58
320560,set_tempo,4320,1,0,,,,,,520607,,,,,,
320574,note_on,54,0,2,,,,,,,,1,,,72,0
320592,note_on,432,0,4,,,,,,,,3,,,48,0
320600,set_tempo,40,1,0,,,,,,527473,,,,,,
320616,note_on,216,0,3,,,,,,,,2,,,65,0
320640,note_on,48,0,4,,,,,,,,3,,,67,68
320640,note_on,66,0,2,,,,,,,,1,,,70,68
320759,note_on,599,0,1,,,,,,,,0,,,77,0
320760,set_tempo,160,1,0,,,,,,545455,,,,,,
320760,note_on,1,0,1,,,,,,,,0,,,81,79
320760,note_on,144,0,3,,,,,,,,2,,,65,76
320820,note_on,60,0,1,,,,,,,,0,,,81,0
320820,note_on,60,0,3,,,,,,,,2,,,65,0
320880,note_on,60,0,3,,,,,,,,2,,,64,72
320880,note_on,60,0,1,,,,,,,,0,,,79,75
320940,note_on,60,0,1,,,,,,,,0,,,79,0
320940,note_on,60,0,3,,,,,,,,2,,,64,0
321000,note_on,60,0,1,,,,,,,,0,,,77,72
321000,note_on,60,0,3,,,,,,,,2,,,62,71
321040,set_tempo,280,1,0,,,,,,549199,,,,,,
321060,note_on,60,0,1,,,,,,,,0,,,77,0
321060,note_on,60,0,3,,,,,,,,2,,,62,0
321120,note_on,60,0,3,,,,,,,,2,,,60,67
321120,note_on,60,0,1,,,,,,,,0,,,76,68
321120,note_on,0,0,3,,,,,,,,2,,,48,67
321239,note_on,599,0,2,,,,,,,,1,,,70,0
321240,note_on,1,0,2,,,,,,,,1,,,74,75
321280,set_tempo,240,1,0,,,,,,552995,,,,,,
321300,note_on,60,0,2,,,,,,,,1,,,74,0
321360,note_on,60,0,2,,,,,,,,1,,,72,73
321420,note_on,60,0,2,,,,,,,,1,,,72,0
321480,note_on,60,0,2,,,,,,,,1,,,70,70
321520,set_tempo,240,1,0,,,,,,556845,,,,,,
321540,note_on,60,0,2,,,,,,,,1,,,70,0
321599,note_on,959,0,4,,,,,,,,3,,,67,0
321600,note_on,60,0,2,,,,,,,,1,,,67,66
321600,note_on,1,0,4,,,,,,,,3,,,69,63
321719,note_on,119,0,2,,,,,,,,1,,,67,0
321720,note_on,1,0,2,,,,,,,,1,,,67,66
321760,set_tempo,240,1,0,,,,,,560748,,,,,,
321780,note_on,60,0,2,,,,,,,,1,,,67,0
321840,note_on,60,0,2,,,,,,,,1,,,65,60
321900,note_on,60,0,2,,,,,,,,1,,,65,0
321960,note_on,60,0,2,,,,,,,,1,,,64,59
322020,note_on,60,0,2,,,,,,,,1,,,64,0
322040,set_tempo,280,1,0,,,,,,564706,,,,,,
322079,note_on,959,0,3,,,,,,,,2,,,48,0
322079,note_on,0,0,3,,,,,,,,2,,,60,0
322080,note_on,1,0,3,,,,,,,,2,,,57,70
322080,note_on,60,0,2,,,,,,,,1,,,62,56
322199,note_on,1079,0,1,,,,,,,,0,,,76,0
322199,note_on,119,0,3,,,,,,,,2,,,57,0
322200,note_on,1,0,1,,,,,,,,0,,,79,67
322200,note_on,1,0,3,,,,,,,,2,,,60,67
322280,set_tempo,240,1,0,,,,,,568720,,,,,,
322319,note_on,119,0,3,,,,,,,,2,,,60,0
322319,note_on,119,0,1,,,,,,,,0,,,79,0
322320,note_on,1,0,3,,,,,,,,2,,,59,64
322320,note_on,1,0,1,,,,,,,,0,,,77,66
322380,note_on,60,0,1,,,,,,,,0,,,77,0
322439,note_on,119,0,3,,,,,,,,2,,,59,0
322440,note_on,1,0,3,,,,,,,,2,,,57,61
322440,note_on,60,0,1,,,,,,,,0,,,76,62
322464,note_on,864,0,4,,,,,,,,3,,,69,0
322494,note_on,54,0,1,,,,,,,,0,,,76,0
322520,set_tempo,240,1,0,,,,,,572792,,,,,,
322548,note_on,108,0,3,,,,,,,,2,,,57,0
322560,note_on,12,0,3,,,,,,,,2,,,59,57
322560,note_on,66,0,1,,,,,,,,0,,,74,60
322560,note_on,480,0,2,,,,,,,,1,,,69,63
322560,note_on,96,0,4,,,,,,,,3,,,65,57
322629,control_change,69,0,1,,,,,,,,0,64,127,,
322679,note_on,119,0,2,,,,,,,,1,,,69,0
322680,note_on,1,0,2,,,,,,,,1,,,72,61
322740,note_on,60,0,2,,,,,,,,1,,,72,0
322760,set_tempo,240,1,0,,,,,,576923,,,,,,
322800,note_on,60,0,2,,,,,,,,1,,,71,58
322860,note_on,60,0,2,,,,,,,,1,,,71,0
322920,note_on,60,0,2,,,,,,,,1,,,69,56
322980,note_on,60,0,2,,,,,,,,1,,,69,0
323000,set_tempo,240,1,0,,,,,,581114,,,,,,
323039,note_on,479,0,3,,,,,,,,2,,,59,0
323040,note_on,60,0,2,,,,,,,,1,,,67,53
323040,note_on,1,0,3,,,,,,,,2,,,58,55
323148,note_on,108,0,2,,,,,,,,1,,,62,0
323159,note_on,599,0,4,,,,,,,,3,,,65,0
323160,note_on,1,0,4,,,,,,,,3,,,65,55
323220,note_on,60,0,4,,,,,,,,3,,,65,0
323280,note_on,60,0,4,,,,,,,,3,,,64,55
323280,set_tempo,280,1,0,,,,,,585366,,,,,,
323340,note_on,60,0,4,,,,,,,,3,,,64,0
323400,note_on,60,0,4,,,,,,,,3,,,62,53
323460,note_on,60,0,4,,,,,,,,3,,,62,0
323519,note_on,890,0,1,,,,,,,,0,,,74,0
323519,note_on,479,0,3,,,,,,,,2,,,58,0
323520,note_on,1,0,3,,,,,,,,2,,,55,52
323520,note_on,60,0,4,,,,,,,,3,,,64,53
323520,set_tempo,240,1,0,,,,,,589681,,,,,,
323520,note_on,1,0,1,,,,,,,,0,,,72,53
323589,control_change,69,0,1,,,,,,,,0,64,0,,
323639,note_on,119,0,3,,,,,,,,2,,,55,0
323640,note_on,1,0,3,,,,,,,,2,,,62,56
323759,note_on,119,0,3,,,,,,,,2,,,62,0
323760,note_on,1,0,3,,,,,,,,2,,,60,59
323760,set_tempo,240,1,0,,,,,,594059,,,,,,
323879,note_on,119,0,3,,,,,,,,2,,,60,0
323880,note_on,1,0,3,,,,,,,,2,,,58,62
323999,note_on,119,0,3,,,,,,,,2,,,58,0
323999,note_on,851,0,2,,,,,,,,1,,,67,0
323999,note_on,479,0,4,,,,,,,,3,,,64,0
324000,note_on,1,0,3,,,,,,,,2,,,57,61
324000,set_tempo,240,1,0,,,,,,598504,,,,,,
324000,note_on,1,0,4,,,,,,,,3,,,48,51
324000,note_on,1,0,2,,,,,,,,1,,,65,56
324000,note_on,0,0,2,,,,,,,,1,,,69,56
324119,note_on,119,0,3,,,,,,,,2,,,57,0
324120,note_on,1,0,3,,,,,,,,2,,,55,59
324239,note_on,119,0,3,,,,,,,,2,,,55,0
324239,note_on,0,0,2,,,,,,,,1,,,65,0
324239,note_on,239,0,2,,,,,,,,1,,,69,0
324240,set_tempo,240,1,0,,,,,,603015,,,,,,
324240,note_on,0,0,2,,,,,,,,1,,,67,51
324240,note_on,1,0,3,,,,,,,,2,,,53,57
324240,note_on,1,0,2,,,,,,,,1,,,60,51
324320,set_tempo,80,1,0,,,,,,568720,,,,,,
324359,note_on,119,0,3,,,,,,,,2,,,53,0
324360,note_on,1,0,3,,,,,,,,2,,,52,55
324400,set_tempo,80,1,0,,,,,,564706,,,,,,
324432,note_on,432,0,4,,,,,,,,3,,,48,0
324440,set_tempo,40,1,0,,,,,,560748,,,,,,
324456,note_on,216,0,2,,,,,,,,1,,,67,0
324456,note_on,0,0,2,,,,,,,,1,,,60,0
324468,note_on,108,0,3,,,,,,,,2,,,52,0
324480,note_on,12,0,3,,,,,,,,2,,,53,84
324480,note_on,0,0,2,,,,,,,,1,,,65,74
324480,control_change,24,0,2,,,,,,,,1,64,127,,
324480,set_tempo,40,1,0,,,,,,572792,,,,,,
324480,note_on,0,0,2,,,,,,,,1,,,62,74
324480,control_change,891,0,1,,,,,,,,0,64,127,,
324497,control_change,65,0,4,,,,,,,,3,64,127,,
324599,note_on,119,0,3,,,,,,,,2,,,53,0
324600,note_on,1,0,3,,,,,,,,2,,,50,82
324640,set_tempo,160,1,0,,,,,,576923,,,,,,
324660,note_on,60,0,3,,,,,,,,2,,,50,0
324719,note_on,239,0,1,,,,,,,,0,,,72,0
324720,note_on,1,0,1,,,,,,,,0,,,71,76
324720,note_on,60,0,3,,,,,,,,2,,,52,80
324760,set_tempo,120,1,0,,,,,,581114,,,,,,
324780,note_on,60,0,3,,,,,,,,2,,,52,0
324840,note_on,60,0,3,,,,,,,,2,,,53,79
324880,set_tempo,120,1,0,,,,,,585366,,,,,,
324900,note_on,60,0,3,,,,,,,,2,,,53,0
324912,note_on,0,0,4,,,,,,,,3,,,36,0
324912,note_on,415,0,4,,,,,,,,3,,,48,0
324959,note_on,0,0,2,,,,,,,,1,,,62,0
324959,note_on,479,0,2,,,,,,,,1,,,65,0
324960,note_on,1,0,2,,,,,,,,1,,,60,76
324960,note_on,0,0,2,,,,,,,,1,,,64,76
324960,note_on,48,0,4,,,,,,,,3,,,48,76
324960,note_on,60,0,3,,,,,,,,2,,,55,78
325000,set_tempo,120,1,0,,,,,,589681,,,,,,
325079,note_on,119,0,3,,,,,,,,2,,,55,0
325080,note_on,1,0,3,,,,,,,,2,,,52,75
325120,set_tempo,120,1,0,,,,,,594059,,,,,,
325140,note_on,60,0,3,,,,,,,,2,,,52,0
325160,set_tempo,40,1,0,,,,,,598504,,,,,,
325199,note_on,479,0,1,,,,,,,,0,,,71,0
325200,note_on,1,0,1,,,,,,,,0,,,70,76
325200,set_tempo,40,1,0,,,,,,603015,,,,,,
325200,note_on,60,0,3,,,,,,,,2,,,53,74
325240,set_tempo,40,1,0,,,,,,607595,,,,,,
325260,note_on,60,0,3,,,,,,,,2,,,53,0
325280,set_tempo,40,1,0,,,,,,612245,,,,,,
325320,set_tempo,40,1,0,,,,,,616967,,,,,,
325320,note_on,60,0,3,,,,,,,,2,,,55,72
325360,set_tempo,40,1,0,,,,,,621762,,,,,,
325380,note_on,60,0,3,,,,,,,,2,,,55,0
325400,set_tempo,40,1,0,,,,,,626632,,,,,,
325439,note_on,0,0,2,,,,,,,,1,,,60,0
325439,note_on,479,0,4,,,,,,,,3,,,48,0
325439,note_on,239,0,1,,,,,,,,0,,,70,0
325439,note_on,479,0,2,,,,,,,,1,,,64,0
325440,set_tempo,40,1,0,,,,,,631579,,,,,,
325440,control_change,1,0,2,,,,,,,,1,64,0,,
325440,note_on,0,0,2,,,,,,,,1,,,60,76
325440,note_on,0,0,2,,,,,,,,1,,,65,76
325440,note_on,0,0,1,,,,,,,,0,,,69,75
325440,control_change,1,0,1,,,,,,,,0,64,0,,
325440,note_on,1,0,4,,,,,,,,3,,,48,76
325440,note_on,60,0,3,,,,,,,,2,,,57,70
325457,control_change,17,0,4,,,,,,,,3,64,0,,
325480,set_tempo,40,1,0,,,,,,636605,,,,,,
325500,note_on,60,0,1,,,,,,,,0,,,69,0
325520,set_tempo,40,1,0,,,,,,641711,,,,,,
325560,set_tempo,40,1,0,,,,,,646900,,,,,,
325560,note_on,60,0,1,,,,,,,,0,,,72,80
325600,set_tempo,40,1,0,,,,,,652174,,,,,,
325620,note_on,60,0,1,,,,,,,,0,,,72,0
325640,set_tempo,40,1,0,,,,,,657534,,,,,,
325679,note_on,239,0,3,,,,,,,,2,,,57,0
325680,note_on,60,0,1,,,,,,,,0,,,74,85
325680,set_tempo,40,1,0,,,,,,662983,,,,,,
325680,note_on,1,0,3,,,,,,,,2,,,53,70
325720,set_tempo,40,1,0,,,,,,668524,,,,,,
325740,note_on,60,0,1,,,,,,,,0,,,74,0
325760,set_tempo,40,1,0,,,,,,674157,,,,,,
325800,note_on,60,0,1,,,,,,,,0,,,76,90
325800,set_tempo,40,1,0,,,,,,679887,,,,,,
325840,set_tempo,40,1,0,,,,,,685714,,,,,,
325880,set_tempo,40,1,0,,,,,,691643,,,,,,
325919,note_on,119,0,1,,,,,,,,0,,,76,0
325919,note_on,239,0,3,,,,,,,,2,,,53,0
325920,set_tempo,40,1,0,,,,,,697674,,,,,,
325920,note_on,1,0,3,,,,,,,,2,,,50,74
325920,note_on,1,0,1,,,,,,,,0,,,77,90
325960,set_tempo,40,1,0,,,,,,703812,,,,,,
326000,set_tempo,40,1,0,,,,,,710059,,,,,,
326039,note_on,119,0,1,,,,,,,,0,,,77,0
326040,note_on,1,0,1,,,,,,,,0,,,74,81
326040,set_tempo,40,1,0,,,,,,716418,,,,,,
326080,set_tempo,40,1,0,,,,,,722892,,,,,,
326100,note_on,60,0,1,,,,,,,,0,,,74,0
326120,set_tempo,40,1,0,,,,,,729483,,,,,,
326159,note_on,239,0,3,,,,,,,,2,,,50,0
326159,note_on,719,0,2,,,,,,,,1,,,65,0
326159,note_on,0,0,2,,,,,,,,1,,,60,0
326160,note_on,0,0,3,,,,,,,,2,,,59,66
326160,note_on,1,0,2,,,,,,,,1,,,67,66
326160,note_on,1,0,3,,,,,,,,2,,,62,66
326160,set_tempo,40,1,0,,,,,,736196,,,,,,
326160,note_on,60,0,1,,,,,,,,0,,,76,73
326200,set_tempo,40,1,0,,,,,,743034,,,,,,
326220,note_on,60,0,1,,,,,,,,0,,,76,0
326240,set_tempo,40,1,0,,,,,,1016949,,,,,,
326280,note_on,60,0,1,,,,,,,,0,,,77,64
326304,note_on,847,0,4,,,,,,,,3,,,48,0
326334,note_on,54,0,1,,,,,,,,0,,,77,0
326360,set_tempo,120,1,0,,,,,,1004184,,,,,,
326360,end_of_track,0,1,0,,,,,,,,,,,,
326376,note_on,216,0,3,,,,,,,,2,,,59,0
326376,note_on,0,0,3,,,,,,,,2,,,62,0
326376,note_on,216,0,2,,,,,,,,1,,,67,0
326400,note_on,0,0,3,,,,,,,,2,,,48,80
326400,note_on,0,0,3,,,,,,,,2,,,60,80
326400,control_change,24,0,2,,,,,,,,1,64,127,,
326400,note_on,66,0,1,,,,,,,,0,,,76,78
326400,control_change,24,0,3,,,,,,,,2,64,127,,
326400,note_on,0,0,2,,,,,,,,1,,,64,84
326400,note_on,0,0,2,,,,,,,,1,,,67,84
326400,note_on,0,0,2,,,,,,,,1,,,72,84
326400,note_on,0,0,4,,,,,,,,3,,,48,76
326400,note_on,0,0,4,,,,,,,,3,,,52,76
326400,note_on,0,0,4,,,,,,,,3,,,55,76
326400,note_on,0,0,4,,,,,,,,3,,,60,76
326400,note_on,0,0,3,,,,,,,,2,,,55,80
326400,control_change,96,0,4,,,,,,,,3,64,127,,
326400,note_on,0,0,3,,,,,,,,2,,,52,80
326400,note_on,0,0,1,,,,,,,,0,,,72,78
326400,note_on,0,0,1,,,,,,,,0,,,67,78
326400,note_on,0,0,1,,,,,,,,0,,,64,78
326400,note_on,0,0,2,,,,,,,,1,,,76,84
326460,control_change,60,0,1,,,,,,,,0,64,127,,
326616,note_on,156,0,1,,,,,,,,0,,,64,0
326616,note_on,0,0,1,,,,,,,,0,,,76,0
326616,note_on,0,0,1,,,,,,,,0,,,67,0
326616,note_on,0,0,1,,,,,,,,0,,,72,0
326616,note_on,216,0,4,,,,,,,,3,,,48,0
326616,note_on,0,0,3,,,,,,,,2,,,52,0
326616,note_on,0,0,3,,,,,,,,2,,,55,0
326616,note_on,216,0,3,,,,,,,,2,,,48,0
326616,note_on,0,0,3,,,,,,,,2,,,60,0
326616,note_on,0,0,4,,,,,,,,3,,,52,0
326616,note_on,0,0,4,,,,,,,,3,,,55,0
326616,note_on,0,0,4,,,,,,,,3,,,60,0
326616,note_on,0,0,2,,,,,,,,1,,,76,0
326616,note_on,0,0,2,,,,,,,,1,,,72,0
326616,note_on,0,0,2,,,,,,,,1,,,67,0
326616,note_on,216,0,2,,,,,,,,1,,,64,0
327360,control_change,744,0,2,,,,,,,,1,64,0,,
327360,end_of_track,0,1,4,,,,,,,,,,,,
327360,end_of_track,0,1,3,,,,,,,,,,,,
327360,end_of_track,0,1,2,,,,,,,,,,,,
327360,control_change,744,0,3,,,,,,,,2,64,0,,
327360,control_change,744,0,4,,,,,,,,3,64,0,,
327420,control_change,804,0,1,,,,,,,,0,64,0,,
327900,control_change,480,0,1,,,,,,,,0,64,127,,
328860,end_of_track,0,1,1,,,,,,,,,,,,
328860,control_change,960,0,1,,,,,,,,0,64,0,,
