tick,type,time,meta,track,numerator,denominator,clocks_per_click,notated_32nd_notes_per_beat,key,tempo,port,program,channel,control,value,note,velocity
0,control_change,0,0,1,,,,,,,,,0,7,100,,
0,program_change,0,0,1,,,,,,,,0,0,,,,
0,track_name,0,1,6,,,,,,,,,,,,,
0,midi_port,0,1,7,,,,,,,0,,,,,,
0,midi_port,0,1,6,,,,,,,0,,,,,,
0,midi_port,0,1,5,,,,,,,0,,,,,,
0,midi_port,0,1,4,,,,,,,0,,,,,,
0,midi_port,0,1,3,,,,,,,0,,,,,,
0,midi_port,0,1,2,,,,,,,0,,,,,,
0,midi_port,0,1,1,,,,,,,0,,,,,,
0,marker,0,1,0,,,,,,,,,,,,,
0,key_signature,0,1,0,,,,,B,,,,,,,,
0,end_of_track,0,1,7,,,,,,,,,,,,,
0,end_of_track,0,1,6,,,,,,,,,,,,,
0,end_of_track,0,1,5,,,,,,,,,,,,,
0,end_of_track,0,1,4,,,,,,,,,,,,,
0,program_change,0,0,2,,,,,,,,0,0,,,,
0,set_tempo,0,1,0,,,,,,750000,,,,,,,
0,text,0,1,0,,,,,,,,,,,,,
0,text,0,1,0,,,,,,,,,,,,,
0,track_name,0,1,5,,,,,,,,,,,,,
0,track_name,0,1,4,,,,,,,,,,,,,
0,track_name,0,1,3,,,,,,,,,,,,,
0,track_name,0,1,2,,,,,,,,,,,,,
0,track_name,0,1,1,,,,,,,,,,,,,
0,track_name,0,1,0,,,,,,,,,,,,,
0,track_name,0,1,0,,,,,,,,,,,,,
0,end_of_track,0,1,3,,,,,,,,,,,,,
0,time_signature,0,1,0,6,8,12,8,,,,,,,,,
0,text,0,1,0,,,,,,,,,,,,,
0,text,0,1,0,,,,,,,,,,,,,
0,text,0,1,0,,,,,,,,,,,,,
0,text,0,1,0,,,,,,,,,,,,,
0,text,0,1,0,,,,,,,,,,,,,
0,text,0,1,0,,,,,,,,,,,,,
0,text,0,1,0,,,,,,,,,,,,,
0,text,0,1,1,,,,,,,,,,,,,
0,copyright,0,1,0,,,,,,,,,,,,,
0,track_name,0,1,7,,,,,,,,,,,,,
0,control_change,0,0,1,,,,,,,,,0,91,127,,
0,control_change,0,0,2,,,,,,,,,0,7,100,,
107,control_change,107,0,2,,,,,,,,,0,64,127,,
239,control_change,132,0,2,,,,,,,,,0,91,127,,
239,control_change,239,0,1,,,,,,,,,0,91,127,,
240,note_on,0,0,2,,,,,,,,,0,,,75,51
240,note_on,1,0,2,,,,,,,,,0,,,63,51
480,note_on,240,0,2,,,,,,,,,0,,,75,0
480,note_on,0,0,2,,,,,,,,,0,,,63,51
480,note_on,0,0,2,,,,,,,,,0,,,63,0
480,note_on,0,0,2,,,,,,,,,0,,,75,51
720,note_on,240,0,2,,,,,,,,,0,,,75,0
720,note_on,0,0,2,,,,,,,,,0,,,63,0
720,note_on,0,0,2,,,,,,,,,0,,,63,51
720,note_on,0,0,2,,,,,,,,,0,,,75,51
827,control_change,107,0,2,,,,,,,,,0,64,0,,
960,note_on,133,0,2,,,,,,,,,0,,,63,0
960,note_on,721,0,1,,,,,,,,,0,,,87,51
960,set_tempo,960,1,0,,,,,,774194,,,,,,,
960,note_on,0,0,1,,,,,,,,,0,,,99,51
960,note_on,0,0,2,,,,,,,,,0,,,75,0
987,control_change,27,0,2,,,,,,,,,0,64,127,,
1200,note_on,0,0,1,,,,,,,,,0,,,87,51
1200,note_on,0,0,1,,,,,,,,,0,,,99,51
1200,note_on,240,0,1,,,,,,,,,0,,,99,0
1200,note_on,0,0,1,,,,,,,,,0,,,87,0
1440,note_on,0,0,1,,,,,,,,,0,,,87,0
1440,note_on,0,0,1,,,,,,,,,0,,,87,51
1440,note_on,0,0,1,,,,,,,,,0,,,99,51
1440,note_on,240,0,1,,,,,,,,,0,,,99,0
1533,control_change,546,0,2,,,,,,,,,0,64,0,,
1653,control_change,120,0,2,,,,,,,,,0,64,127,,
1680,note_on,0,0,1,,,,,,,,,0,,,99,0
1680,note_on,27,0,2,,,,,,,,,0,,,63,52
1680,note_on,240,0,1,,,,,,,,,0,,,87,0
1680,set_tempo,720,1,0,,,,,,731707,,,,,,,
1680,note_on,0,0,2,,,,,,,,,0,,,75,52
1920,note_on,0,0,2,,,,,,,,,0,,,63,0
1920,note_on,240,0,2,,,,,,,,,0,,,75,0
1920,note_on,0,0,2,,,,,,,,,0,,,63,52
1920,note_on,0,0,2,,,,,,,,,0,,,75,52
2160,note_on,0,0,2,,,,,,,,,0,,,75,52
2160,note_on,0,0,2,,,,,,,,,0,,,63,0
2160,note_on,0,0,2,,,,,,,,,0,,,63,52
2160,note_on,240,0,2,,,,,,,,,0,,,75,0
2200,control_change,40,0,2,,,,,,,,,0,64,0,,
2360,control_change,160,0,2,,,,,,,,,0,64,127,,
2400,note_on,40,0,2,,,,,,,,,0,,,63,0
2400,note_on,0,0,1,,,,,,,,,0,,,99,51
2400,note_on,720,0,1,,,,,,,,,0,,,87,51
2400,note_on,0,0,2,,,,,,,,,0,,,75,0
2640,note_on,240,0,1,,,,,,,,,0,,,99,0
2640,note_on,0,0,1,,,,,,,,,0,,,87,0
2640,note_on,0,0,1,,,,,,,,,0,,,87,51
2640,note_on,0,0,1,,,,,,,,,0,,,99,51
2880,note_on,240,0,1,,,,,,,,,0,,,87,0
2880,note_on,0,0,1,,,,,,,,,0,,,99,51
2880,note_on,0,0,1,,,,,,,,,0,,,99,0
2880,note_on,0,0,1,,,,,,,,,0,,,87,51
3040,control_change,640,0,2,,,,,,,,,0,64,0,,
3120,note_on,0,0,2,,,,,,,,,0,,,63,49
3120,note_on,80,0,2,,,,,,,,,0,,,75,49
3120,note_on,240,0,1,,,,,,,,,0,,,99,0
3120,note_on,0,0,1,,,,,,,,,0,,,87,0
3160,control_change,40,0,2,,,,,,,,,0,64,127,,
3360,note_on,0,0,2,,,,,,,,,0,,,75,0
3360,note_on,0,0,1,,,,,,,,,0,,,87,50
3360,note_on,240,0,1,,,,,,,,,0,,,99,50
3360,set_tempo,1680,1,0,,,,,,745342,,,,,,,
3360,note_on,200,0,2,,,,,,,,,0,,,63,0
3600,note_on,0,0,1,,,,,,,,,0,,,87,50
3600,note_on,240,0,1,,,,,,,,,0,,,87,0
3600,set_tempo,240,1,0,,,,,,774194,,,,,,,
3600,note_on,0,0,1,,,,,,,,,0,,,99,0
3600,note_on,0,0,1,,,,,,,,,0,,,99,50
3760,control_change,400,0,2,,,,,,,,,0,64,0,,
3813,control_change,53,0,2,,,,,,,,,0,64,127,,
3840,note_on,0,0,1,,,,,,,,,0,,,99,0
3840,set_tempo,240,1,0,,,,,,916031,,,,,,,
3840,note_on,27,0,2,,,,,,,,,0,,,75,45
3840,note_on,0,0,2,,,,,,,,,0,,,63,45
3840,note_on,240,0,1,,,,,,,,,0,,,87,0
4080,set_tempo,240,1,0,,,,,,1153846,,,,,,,
4080,note_on,240,0,1,,,,,,,,,0,,,99,41
4080,note_on,240,0,2,,,,,,,,,0,,,63,0
4080,note_on,0,0,2,,,,,,,,,0,,,75,0
4080,note_on,0,0,1,,,,,,,,,0,,,87,41
4310,set_tempo,230,1,0,,,,,,2264151,,,,,,,
4320,note_on,0,0,1,,,,,,,,,0,,,87,38
4320,note_on,240,0,1,,,,,,,,,0,,,87,0
4320,note_on,0,0,1,,,,,,,,,0,,,99,0
4320,note_on,0,0,1,,,,,,,,,0,,,99,38
4444,control_change,364,0,2,,,,,,,,,0,64,0,,
4560,note_on,240,0,1,,,,,,,,,0,,,87,0
4560,note_on,0,0,1,,,,,,,,,0,,,99,0
4800,set_tempo,490,1,0,,,,,,618557,,,,,,,
4800,note_on,240,0,1,,,,,,,,,0,,,75,48
4920,note_on,120,0,1,,,,,,,,,0,,,87,45
4980,note_on,60,0,1,,,,,,,,,0,,,87,0
4980,note_on,0,0,1,,,,,,,,,0,,,75,0
5040,note_on,60,0,1,,,,,,,,,0,,,87,56
5040,set_tempo,240,1,0,,,,,,603015,,,,,,,
5160,note_on,120,0,1,,,,,,,,,0,,,99,45
5220,note_on,0,0,1,,,,,,,,,0,,,87,0
5220,note_on,60,0,1,,,,,,,,,0,,,99,0
5280,note_on,60,0,1,,,,,,,,,0,,,87,52
5400,note_on,120,0,1,,,,,,,,,0,,,99,44
5460,note_on,60,0,1,,,,,,,,,0,,,99,0
5460,note_on,0,0,1,,,,,,,,,0,,,87,0
5520,note_on,60,0,1,,,,,,,,,0,,,85,52
5576,control_change,1132,0,2,,,,,,,,,0,64,127,,
5640,note_on,120,0,1,,,,,,,,,0,,,99,44
5640,note_on,64,0,2,,,,,,,,,0,,,56,42
5700,note_on,60,0,2,,,,,,,,,0,,,63,44
5700,note_on,60,0,1,,,,,,,,,0,,,99,0
5700,note_on,0,0,1,,,,,,,,,0,,,85,0
5760,note_on,60,0,2,,,,,,,,,0,,,71,45
5760,note_on,60,0,1,,,,,,,,,0,,,83,52
5824,control_change,64,0,2,,,,,,,,,0,64,0,,
5880,note_on,120,0,1,,,,,,,,,0,,,99,45
5940,note_on,0,0,2,,,,,,,,,0,,,63,0
5940,note_on,0,0,2,,,,,,,,,0,,,56,0
5940,note_on,60,0,1,,,,,,,,,0,,,99,0
5940,note_on,0,0,1,,,,,,,,,0,,,83,0
5940,note_on,116,0,2,,,,,,,,,0,,,71,0
6000,note_on,60,0,1,,,,,,,,,0,,,83,51
6120,note_on,120,0,1,,,,,,,,,0,,,99,45
6180,note_on,0,0,1,,,,,,,,,0,,,83,0
6180,note_on,60,0,1,,,,,,,,,0,,,99,0
6240,note_on,60,0,1,,,,,,,,,0,,,82,48
6240,set_tempo,1200,1,0,,,,,,615385,,,,,,,
6325,control_change,385,0,2,,,,,,,,,0,64,127,,
6360,note_on,35,0,2,,,,,,,,,0,,,59,39
6360,note_on,120,0,1,,,,,,,,,0,,,99,45
6420,note_on,60,0,1,,,,,,,,,0,,,99,0
6420,note_on,60,0,2,,,,,,,,,0,,,68,41
6420,note_on,0,0,1,,,,,,,,,0,,,82,0
6480,note_on,60,0,2,,,,,,,,,0,,,75,42
6480,set_tempo,240,1,0,,,,,,603015,,,,,,,
6480,note_on,60,0,1,,,,,,,,,0,,,80,52
6586,control_change,106,0,2,,,,,,,,,0,64,0,,
6600,note_on,120,0,1,,,,,,,,,0,,,99,45
6660,note_on,60,0,1,,,,,,,,,0,,,99,0
6660,note_on,0,0,1,,,,,,,,,0,,,80,0
6660,note_on,74,0,2,,,,,,,,,0,,,75,0
6660,note_on,0,0,2,,,,,,,,,0,,,59,0
6660,note_on,0,0,2,,,,,,,,,0,,,68,0
6720,note_on,60,0,1,,,,,,,,,0,,,79,50
6840,note_on,120,0,1,,,,,,,,,0,,,99,42
6900,note_on,60,0,1,,,,,,,,,0,,,99,0
6900,note_on,0,0,1,,,,,,,,,0,,,79,0
6960,note_on,60,0,1,,,,,,,,,0,,,80,50
7059,control_change,399,0,2,,,,,,,,,0,64,127,,
7080,note_on,21,0,2,,,,,,,,,0,,,63,40
7080,note_on,120,0,1,,,,,,,,,0,,,99,45
7140,note_on,60,0,1,,,,,,,,,0,,,99,0
7140,note_on,0,0,1,,,,,,,,,0,,,80,0
7140,note_on,60,0,2,,,,,,,,,0,,,70,44
7200,note_on,60,0,2,,,,,,,,,0,,,79,46
7200,note_on,60,0,1,,,,,,,,,0,,,82,52
7320,note_on,120,0,1,,,,,,,,,0,,,99,45
7331,control_change,131,0,2,,,,,,,,,0,64,0,,
7380,note_on,0,0,2,,,,,,,,,0,,,63,0
7380,note_on,0,0,2,,,,,,,,,0,,,70,0
7380,note_on,0,0,1,,,,,,,,,0,,,82,0
7380,note_on,49,0,2,,,,,,,,,0,,,79,0
7380,note_on,60,0,1,,,,,,,,,0,,,99,0
7440,note_on,60,0,1,,,,,,,,,0,,,75,48
7560,note_on,120,0,1,,,,,,,,,0,,,99,42
7620,note_on,0,0,1,,,,,,,,,0,,,75,0
7620,note_on,60,0,1,,,,,,,,,0,,,99,0
7680,set_tempo,1200,1,0,,,,,,618557,,,,,,,
7680,note_on,60,0,1,,,,,,,,,0,,,75,48
7800,note_on,120,0,1,,,,,,,,,0,,,87,42
7846,control_change,466,0,2,,,,,,,,,0,64,127,,
7860,note_on,14,0,2,,,,,,,,,0,,,67,41
7860,note_on,0,0,1,,,,,,,,,0,,,75,0
7860,note_on,60,0,1,,,,,,,,,0,,,87,0
7920,note_on,60,0,1,,,,,,,,,0,,,76,56
7920,set_tempo,240,1,0,,,,,,603015,,,,,,,
7920,note_on,60,0,2,,,,,,,,,0,,,70,44
8040,note_on,120,0,1,,,,,,,,,0,,,87,48
8083,control_change,163,0,2,,,,,,,,,0,64,0,,
8100,note_on,17,0,2,,,,,,,,,0,,,70,0
8100,note_on,60,0,1,,,,,,,,,0,,,87,0
8100,note_on,0,0,1,,,,,,,,,0,,,76,0
8100,note_on,0,0,2,,,,,,,,,0,,,67,0
8160,note_on,60,0,1,,,,,,,,,0,,,75,52
8280,note_on,120,0,1,,,,,,,,,0,,,87,45
8340,note_on,0,0,1,,,,,,,,,0,,,75,0
8340,note_on,60,0,1,,,,,,,,,0,,,87,0
8400,note_on,60,0,1,,,,,,,,,0,,,73,52
8520,note_on,120,0,1,,,,,,,,,0,,,87,44
8580,note_on,60,0,1,,,,,,,,,0,,,87,0
8580,note_on,0,0,1,,,,,,,,,0,,,73,0
8640,note_on,60,0,1,,,,,,,,,0,,,71,52
8640,note_on,540,0,2,,,,,,,,,0,,,68,48
8760,note_on,120,0,1,,,,,,,,,0,,,87,45
8820,note_on,60,0,1,,,,,,,,,0,,,87,0
8820,note_on,180,0,2,,,,,,,,,0,,,68,0
8820,note_on,0,0,1,,,,,,,,,0,,,71,0
8880,note_on,60,0,1,,,,,,,,,0,,,71,51
9000,note_on,120,0,1,,,,,,,,,0,,,87,45
9060,note_on,60,0,1,,,,,,,,,0,,,87,0
9060,note_on,0,0,1,,,,,,,,,0,,,71,0
9120,note_on,60,0,1,,,,,,,,,0,,,70,48
9120,set_tempo,1200,1,0,,,,,,615385,,,,,,,
9223,control_change,403,0,2,,,,,,,,,0,64,127,,
9240,note_on,17,0,2,,,,,,,,,0,,,59,40
9240,note_on,120,0,1,,,,,,,,,0,,,87,42
9300,note_on,60,0,2,,,,,,,,,0,,,62,41
9300,note_on,60,0,1,,,,,,,,,0,,,87,0
9300,note_on,0,0,1,,,,,,,,,0,,,70,0
9360,note_on,60,0,1,,,,,,,,,0,,,68,52
9360,note_on,60,0,2,,,,,,,,,0,,,65,44
9360,set_tempo,240,1,0,,,,,,603015,,,,,,,
9370,set_tempo,10,1,0,,,,,,606061,,,,,,,
9440,control_change,80,0,2,,,,,,,,,0,64,0,,
9480,note_on,120,0,1,,,,,,,,,0,,,87,45
9520,set_tempo,150,1,0,,,,,,609137,,,,,,,
9540,note_on,60,0,1,,,,,,,,,0,,,87,0
9540,note_on,0,0,2,,,,,,,,,0,,,59,0
9540,note_on,0,0,2,,,,,,,,,0,,,62,0
9540,note_on,0,0,1,,,,,,,,,0,,,68,0
9540,note_on,100,0,2,,,,,,,,,0,,,65,0
9600,note_on,60,0,1,,,,,,,,,0,,,67,50
9660,set_tempo,140,1,0,,,,,,612245,,,,,,,
9720,note_on,120,0,1,,,,,,,,,0,,,87,42
9780,note_on,0,0,1,,,,,,,,,0,,,67,0
9780,note_on,60,0,1,,,,,,,,,0,,,87,0
9800,set_tempo,140,1,0,,,,,,615385,,,,,,,
9840,note_on,60,0,1,,,,,,,,,0,,,68,50
9940,set_tempo,140,1,0,,,,,,618557,,,,,,,
9960,note_on,120,0,1,,,,,,,,,0,,,87,42
10003,control_change,463,0,2,,,,,,,,,0,64,127,,
10020,note_on,60,0,1,,,,,,,,,0,,,87,0
10020,note_on,0,0,1,,,,,,,,,0,,,68,0
10020,note_on,17,0,2,,,,,,,,,0,,,63,37
10080,note_on,60,0,1,,,,,,,,,0,,,70,52
10080,set_tempo,140,1,0,,,,,,631579,,,,,,,
10080,note_on,60,0,2,,,,,,,,,0,,,67,39
10172,control_change,92,0,2,,,,,,,,,0,64,0,,
10200,note_on,120,0,1,,,,,,,,,0,,,87,45
10260,note_on,0,0,1,,,,,,,,,0,,,70,0
10260,note_on,0,0,2,,,,,,,,,0,,,63,0
10260,note_on,60,0,1,,,,,,,,,0,,,87,0
10260,note_on,88,0,2,,,,,,,,,0,,,67,0
10320,note_on,60,0,1,,,,,,,,,0,,,63,48
10320,set_tempo,240,1,0,,,,,,648649,,,,,,,
10440,note_on,120,0,1,,,,,,,,,0,,,75,42
10500,note_on,0,0,1,,,,,,,,,0,,,63,0
10500,note_on,60,0,1,,,,,,,,,0,,,75,0
10560,note_on,60,0,1,,,,,,,,,0,,,75,48
10560,set_tempo,240,1,0,,,,,,618557,,,,,,,
10680,note_on,120,0,1,,,,,,,,,0,,,87,42
10740,note_on,60,0,1,,,,,,,,,0,,,87,0
10740,note_on,0,0,1,,,,,,,,,0,,,75,0
10800,note_on,60,0,1,,,,,,,,,0,,,87,56
10800,set_tempo,240,1,0,,,,,,615385,,,,,,,
10920,set_tempo,120,1,0,,,,,,612245,,,,,,,
10920,note_on,120,0,1,,,,,,,,,0,,,99,48
10980,note_on,0,0,1,,,,,,,,,0,,,87,0
10980,note_on,60,0,1,,,,,,,,,0,,,99,0
11040,note_on,60,0,1,,,,,,,,,0,,,87,52
11040,set_tempo,120,1,0,,,,,,609137,,,,,,,
11160,set_tempo,120,1,0,,,,,,606061,,,,,,,
11160,note_on,120,0,1,,,,,,,,,0,,,99,46
11220,note_on,60,0,1,,,,,,,,,0,,,99,0
11220,note_on,0,0,1,,,,,,,,,0,,,87,0
11280,set_tempo,120,1,0,,,,,,603015,,,,,,,
11280,note_on,60,0,1,,,,,,,,,0,,,85,52
11375,control_change,1115,0,2,,,,,,,,,0,64,127,,
11400,note_on,25,0,2,,,,,,,,,0,,,56,41
11400,note_on,120,0,1,,,,,,,,,0,,,99,45
11460,note_on,0,0,1,,,,,,,,,0,,,85,0
11460,note_on,60,0,1,,,,,,,,,0,,,99,0
11460,note_on,60,0,2,,,,,,,,,0,,,63,42
11520,note_on,60,0,1,,,,,,,,,0,,,83,52
11520,note_on,60,0,2,,,,,,,,,0,,,71,45
11640,note_on,120,0,1,,,,,,,,,0,,,99,46
11693,control_change,173,0,2,,,,,,,,,0,64,0,,
11700,note_on,0,0,1,,,,,,,,,0,,,83,0
11700,note_on,7,0,2,,,,,,,,,0,,,71,0
11700,note_on,60,0,1,,,,,,,,,0,,,99,0
11700,note_on,0,0,2,,,,,,,,,0,,,63,0
11700,note_on,0,0,2,,,,,,,,,0,,,56,0
11760,note_on,60,0,1,,,,,,,,,0,,,83,51
11880,note_on,120,0,1,,,,,,,,,0,,,99,44
11940,note_on,0,0,1,,,,,,,,,0,,,83,0
11940,note_on,60,0,1,,,,,,,,,0,,,99,0
12000,note_on,60,0,1,,,,,,,,,0,,,82,48
12000,set_tempo,720,1,0,,,,,,615385,,,,,,,
12095,control_change,395,0,2,,,,,,,,,0,64,127,,
12120,note_on,120,0,1,,,,,,,,,0,,,99,44
12120,note_on,25,0,2,,,,,,,,,0,,,59,41
12180,note_on,60,0,1,,,,,,,,,0,,,99,0
12180,note_on,60,0,2,,,,,,,,,0,,,68,42
12180,note_on,0,0,1,,,,,,,,,0,,,82,0
12240,set_tempo,240,1,0,,,,,,606061,,,,,,,
12240,note_on,60,0,2,,,,,,,,,0,,,75,46
12240,note_on,60,0,1,,,,,,,,,0,,,80,52
12360,note_on,120,0,1,,,,,,,,,0,,,99,45
12420,note_on,0,0,2,,,,,,,,,0,,,59,0
12420,note_on,60,0,1,,,,,,,,,0,,,99,0
12420,note_on,0,0,2,,,,,,,,,0,,,68,0
12420,note_on,180,0,2,,,,,,,,,0,,,75,0
12420,note_on,0,0,1,,,,,,,,,0,,,80,0
12424,control_change,4,0,2,,,,,,,,,0,64,0,,
12480,note_on,60,0,1,,,,,,,,,0,,,79,50
12600,note_on,120,0,1,,,,,,,,,0,,,99,44
12660,note_on,0,0,1,,,,,,,,,0,,,79,0
12660,note_on,60,0,1,,,,,,,,,0,,,99,0
12720,note_on,60,0,1,,,,,,,,,0,,,80,50
12826,control_change,402,0,2,,,,,,,,,0,64,127,,
12840,note_on,14,0,2,,,,,,,,,0,,,63,40
12840,note_on,120,0,1,,,,,,,,,0,,,99,45
12900,note_on,60,0,1,,,,,,,,,0,,,99,0
12900,note_on,60,0,2,,,,,,,,,0,,,70,44
12900,note_on,0,0,1,,,,,,,,,0,,,80,0
12960,note_on,60,0,2,,,,,,,,,0,,,79,46
12960,note_on,60,0,1,,,,,,,,,0,,,82,52
13080,note_on,120,0,1,,,,,,,,,0,,,99,45
13134,control_change,174,0,2,,,,,,,,,0,64,0,,
13140,note_on,0,0,2,,,,,,,,,0,,,70,0
13140,note_on,0,0,1,,,,,,,,,0,,,82,0
13140,note_on,6,0,2,,,,,,,,,0,,,79,0
13140,note_on,0,0,2,,,,,,,,,0,,,63,0
13140,note_on,60,0,1,,,,,,,,,0,,,99,0
13200,note_on,60,0,1,,,,,,,,,0,,,75,48
13320,note_on,120,0,1,,,,,,,,,0,,,99,44
13380,note_on,60,0,1,,,,,,,,,0,,,99,0
13380,note_on,0,0,1,,,,,,,,,0,,,75,0
13440,note_on,60,0,1,,,,,,,,,0,,,75,48
13440,set_tempo,1200,1,0,,,,,,628272,,,,,,,
13560,note_on,120,0,1,,,,,,,,,0,,,87,45
13611,control_change,471,0,2,,,,,,,,,0,64,127,,
13620,note_on,60,0,1,,,,,,,,,0,,,87,0
13620,note_on,9,0,2,,,,,,,,,0,,,67,42
13620,note_on,0,0,1,,,,,,,,,0,,,75,0
13680,set_tempo,240,1,0,,,,,,609137,,,,,,,
13680,note_on,60,0,1,,,,,,,,,0,,,76,56
13680,note_on,60,0,2,,,,,,,,,0,,,70,44
13800,note_on,120,0,1,,,,,,,,,0,,,87,50
13851,control_change,171,0,2,,,,,,,,,0,64,0,,
13860,note_on,0,0,2,,,,,,,,,0,,,67,0
13860,note_on,60,0,1,,,,,,,,,0,,,87,0
13860,note_on,0,0,1,,,,,,,,,0,,,76,0
13860,note_on,9,0,2,,,,,,,,,0,,,70,0
13920,note_on,60,0,1,,,,,,,,,0,,,75,52
14040,note_on,120,0,1,,,,,,,,,0,,,87,48
14100,note_on,60,0,1,,,,,,,,,0,,,87,0
14100,note_on,0,0,1,,,,,,,,,0,,,75,0
14160,note_on,0,0,1,,,,,,,,,0,,,75,44
14160,note_on,60,0,1,,,,,,,,,0,,,73,52
14280,set_tempo,600,1,0,,,,,,628272,,,,,,,
14280,note_on,120,0,1,,,,,,,,,0,,,87,45
14340,note_on,0,0,1,,,,,,,,,0,,,73,0
14340,note_on,0,0,1,,,,,,,,,0,,,75,0
14340,note_on,60,0,1,,,,,,,,,0,,,87,0
14400,note_on,60,0,1,,,,,,,,,0,,,75,52
14400,note_on,540,0,2,,,,,,,,,0,,,68,39
14400,set_tempo,120,1,0,,,,,,603015,,,,,,,
14400,note_on,0,0,2,,,,,,,,,0,,,71,44
14490,note_on,90,0,1,,,,,,,,,0,,,75,0
14520,note_on,30,0,1,,,,,,,,,0,,,87,44
14580,note_on,0,0,2,,,,,,,,,0,,,68,0
14580,note_on,60,0,1,,,,,,,,,0,,,87,0
14580,note_on,180,0,2,,,,,,,,,0,,,71,0
14640,note_on,60,0,1,,,,,,,,,0,,,80,44
14700,note_on,60,0,1,,,,,,,,,0,,,80,0
14760,note_on,60,0,1,,,,,,,,,0,,,83,44
14820,note_on,60,0,1,,,,,,,,,0,,,83,0
14880,note_on,60,0,1,,,,,,,,,0,,,87,52
14970,note_on,90,0,1,,,,,,,,,0,,,87,0
15000,note_on,30,0,1,,,,,,,,,0,,,99,46
15000,set_tempo,600,1,0,,,,,,621762,,,,,,,
15060,note_on,60,0,1,,,,,,,,,0,,,99,0
15120,note_on,0,0,2,,,,,,,,,0,,,73,38
15120,note_on,60,0,1,,,,,,,,,0,,,75,52
15120,note_on,540,0,2,,,,,,,,,0,,,63,34
15120,set_tempo,120,1,0,,,,,,609137,,,,,,,
15120,note_on,0,0,2,,,,,,,,,0,,,67,34
15210,note_on,90,0,1,,,,,,,,,0,,,75,0
15240,note_on,30,0,1,,,,,,,,,0,,,87,44
15300,note_on,0,0,2,,,,,,,,,0,,,73,0
15300,note_on,60,0,1,,,,,,,,,0,,,87,0
15300,note_on,180,0,2,,,,,,,,,0,,,67,0
15300,note_on,0,0,2,,,,,,,,,0,,,63,0
15360,set_tempo,240,1,0,,,,,,609137,,,,,,,
15360,note_on,60,0,1,,,,,,,,,0,,,79,44
15420,note_on,60,0,1,,,,,,,,,0,,,79,0
15480,note_on,60,0,1,,,,,,,,,0,,,82,44
15540,note_on,60,0,1,,,,,,,,,0,,,82,0
15600,note_on,60,0,1,,,,,,,,,0,,,87,52
15690,note_on,90,0,1,,,,,,,,,0,,,87,0
15720,note_on,30,0,1,,,,,,,,,0,,,99,51
15780,note_on,60,0,1,,,,,,,,,0,,,99,0
15840,set_tempo,480,1,0,,,,,,609137,,,,,,,
15840,control_change,540,0,2,,,,,,,,,0,64,127,,
15840,note_on,0,0,2,,,,,,,,,0,,,56,45
15930,note_on,90,0,2,,,,,,,,,0,,,56,0
15960,note_on,30,0,2,,,,,,,,,0,,,63,39
16000,set_tempo,160,1,0,,,,,,612245,,,,,,,
16050,note_on,90,0,2,,,,,,,,,0,,,63,0
16080,note_on,30,0,2,,,,,,,,,0,,,71,39
16160,set_tempo,160,1,0,,,,,,615385,,,,,,,
16170,note_on,90,0,2,,,,,,,,,0,,,71,0
16200,note_on,30,0,2,,,,,,,,,0,,,80,39
16290,note_on,90,0,2,,,,,,,,,0,,,80,0
16310,set_tempo,150,1,0,,,,,,618557,,,,,,,
16313,control_change,23,0,2,,,,,,,,,0,64,0,,
16320,note_on,540,0,1,,,,,,,,,0,,,75,46
16320,set_tempo,10,1,0,,,,,,618557,,,,,,,
16440,note_on,120,0,1,,,,,,,,,0,,,87,42
16500,note_on,60,0,1,,,,,,,,,0,,,87,0
16500,note_on,0,0,1,,,,,,,,,0,,,75,0
16560,note_on,60,0,1,,,,,,,,,0,,,99,56
16560,set_tempo,240,1,0,,,,,,615385,,,,,,,
16680,note_on,120,0,1,,,,,,,,,0,,,87,45
16680,set_tempo,120,1,0,,,,,,612245,,,,,,,
16740,note_on,60,0,1,,,,,,,,,0,,,87,0
16740,note_on,0,0,1,,,,,,,,,0,,,99,0
16800,set_tempo,120,1,0,,,,,,609137,,,,,,,
16800,note_on,60,0,1,,,,,,,,,0,,,99,52
16920,note_on,120,0,1,,,,,,,,,0,,,87,44
16920,set_tempo,120,1,0,,,,,,606061,,,,,,,
16980,note_on,0,0,1,,,,,,,,,0,,,99,0
16980,note_on,60,0,1,,,,,,,,,0,,,87,0
17040,set_tempo,120,1,0,,,,,,603015,,,,,,,
17040,note_on,60,0,1,,,,,,,,,0,,,99,52
17160,note_on,120,0,1,,,,,,,,,0,,,85,44
17210,note_on,50,0,1,,,,,,,,,0,,,85,0
17220,note_on,10,0,1,,,,,,,,,0,,,99,0
17220,note_on,0,0,1,,,,,,,,,0,,,85,44
17280,note_on,60,0,1,,,,,,,,,0,,,85,0
17280,note_on,0,0,1,,,,,,,,,0,,,83,60
17280,note_on,967,0,2,,,,,,,,,0,,,44,44
17287,control_change,7,0,2,,,,,,,,,0,64,127,,
17400,note_on,120,0,1,,,,,,,,,0,,,99,48
17460,note_on,60,0,1,,,,,,,,,0,,,99,0
17460,note_on,173,0,2,,,,,,,,,0,,,44,0
17460,note_on,0,0,1,,,,,,,,,0,,,83,0
17520,note_on,60,0,1,,,,,,,,,0,,,83,51
17520,note_on,0,0,2,,,,,,,,,0,,,51,38
17520,note_on,60,0,2,,,,,,,,,0,,,59,42
17640,note_on,120,0,1,,,,,,,,,0,,,99,45
17700,note_on,60,0,1,,,,,,,,,0,,,99,0
17700,note_on,0,0,1,,,,,,,,,0,,,83,0
17700,note_on,0,0,2,,,,,,,,,0,,,59,0
17700,note_on,180,0,2,,,,,,,,,0,,,51,0
17711,control_change,11,0,2,,,,,,,,,0,64,0,,
17760,set_tempo,720,1,0,,,,,,615385,,,,,,,
17760,note_on,60,0,1,,,,,,,,,0,,,82,48
17880,note_on,120,0,1,,,,,,,,,0,,,99,45
17940,note_on,60,0,1,,,,,,,,,0,,,99,0
17940,note_on,0,0,1,,,,,,,,,0,,,82,0
17940,note_on,0,0,1,,,,,,,,,0,,,82,55
18000,note_on,60,0,1,,,,,,,,,0,,,82,0
18000,control_change,0,0,2,,,,,,,,,0,64,127,,
18000,note_on,0,0,1,,,,,,,,,0,,,80,55
18000,set_tempo,240,1,0,,,,,,603015,,,,,,,
18000,note_on,289,0,2,,,,,,,,,0,,,47,44
18120,note_on,120,0,1,,,,,,,,,0,,,99,46
18180,note_on,180,0,2,,,,,,,,,0,,,47,0
18180,note_on,60,0,1,,,,,,,,,0,,,99,0
18180,note_on,0,0,1,,,,,,,,,0,,,80,0
18240,note_on,0,0,2,,,,,,,,,0,,,63,42
18240,note_on,60,0,2,,,,,,,,,0,,,56,38
18240,note_on,60,0,1,,,,,,,,,0,,,79,50
18360,note_on,120,0,1,,,,,,,,,0,,,99,45
18406,control_change,166,0,2,,,,,,,,,0,64,0,,
18420,note_on,0,0,2,,,,,,,,,0,,,56,0
18420,note_on,60,0,1,,,,,,,,,0,,,99,0
18420,note_on,0,0,1,,,,,,,,,0,,,79,0
18420,note_on,14,0,2,,,,,,,,,0,,,63,0
18480,note_on,60,0,1,,,,,,,,,0,,,80,50
18600,note_on,120,0,1,,,,,,,,,0,,,99,45
18660,note_on,0,0,1,,,,,,,,,0,,,80,0
18660,note_on,60,0,1,,,,,,,,,0,,,99,0
18660,note_on,0,0,1,,,,,,,,,0,,,79,53
18690,note_on,0,0,1,,,,,,,,,0,,,80,55
18690,note_on,30,0,1,,,,,,,,,0,,,79,0
18720,note_on,30,0,1,,,,,,,,,0,,,80,0
18720,note_on,0,0,1,,,,,,,,,0,,,82,56
18720,note_on,300,0,2,,,,,,,,,0,,,51,44
18720,control_change,0,0,2,,,,,,,,,0,64,127,,
18840,note_on,120,0,1,,,,,,,,,0,,,99,44
18900,note_on,180,0,2,,,,,,,,,0,,,51,0
18900,note_on,0,0,1,,,,,,,,,0,,,82,0
18900,note_on,60,0,1,,,,,,,,,0,,,99,0
18960,note_on,60,0,1,,,,,,,,,0,,,75,48
18960,note_on,60,0,2,,,,,,,,,0,,,58,38
18960,note_on,0,0,2,,,,,,,,,0,,,67,42
19080,note_on,120,0,1,,,,,,,,,0,,,99,44
19136,control_change,176,0,2,,,,,,,,,0,64,0,,
19140,note_on,60,0,1,,,,,,,,,0,,,99,0
19140,note_on,4,0,2,,,,,,,,,0,,,67,0
19140,note_on,0,0,1,,,,,,,,,0,,,75,0
19140,note_on,0,0,2,,,,,,,,,0,,,58,0
19200,set_tempo,1200,1,0,,,,,,618557,,,,,,,
19200,note_on,60,0,1,,,,,,,,,0,,,75,48
19320,note_on,120,0,1,,,,,,,,,0,,,87,45
19380,note_on,0,0,1,,,,,,,,,0,,,75,0
19380,note_on,0,0,1,,,,,,,,,0,,,78,52
19380,note_on,60,0,1,,,,,,,,,0,,,87,0
19440,note_on,60,0,1,,,,,,,,,0,,,78,0
19440,note_on,300,0,2,,,,,,,,,0,,,67,37
19440,set_tempo,240,1,0,,,,,,603015,,,,,,,
19440,control_change,0,0,2,,,,,,,,,0,64,127,,
19440,note_on,0,0,2,,,,,,,,,0,,,70,41
19440,note_on,0,0,1,,,,,,,,,0,,,76,53
19560,note_on,120,0,1,,,,,,,,,0,,,87,46
19620,note_on,180,0,2,,,,,,,,,0,,,70,0
19620,note_on,0,0,2,,,,,,,,,0,,,67,0
19620,note_on,60,0,1,,,,,,,,,0,,,87,0
19620,note_on,0,0,1,,,,,,,,,0,,,76,0
19680,note_on,60,0,2,,,,,,,,,0,,,70,41
19680,note_on,0,0,2,,,,,,,,,0,,,67,37
19680,note_on,60,0,1,,,,,,,,,0,,,75,52
19800,note_on,120,0,1,,,,,,,,,0,,,87,45
19860,note_on,0,0,2,,,,,,,,,0,,,70,0
19860,note_on,60,0,1,,,,,,,,,0,,,87,0
19860,note_on,0,0,1,,,,,,,,,0,,,75,0
19860,note_on,180,0,2,,,,,,,,,0,,,67,0
19899,control_change,39,0,2,,,,,,,,,0,64,0,,
19920,note_on,60,0,1,,,,,,,,,0,,,73,52
20040,note_on,120,0,1,,,,,,,,,0,,,87,44
20100,note_on,0,0,1,,,,,,,,,0,,,73,56
20100,note_on,0,0,1,,,,,,,,,0,,,73,0
20100,note_on,60,0,1,,,,,,,,,0,,,87,0
20160,note_on,0,0,1,,,,,,,,,0,,,71,56
20160,note_on,0,0,2,,,,,,,,,0,,,68,45
20160,control_change,261,0,2,,,,,,,,,0,64,127,,
20160,note_on,60,0,1,,,,,,,,,0,,,73,0
20280,note_on,120,0,1,,,,,,,,,0,,,87,45
20340,note_on,180,0,2,,,,,,,,,0,,,68,0
20340,note_on,0,0,1,,,,,,,,,0,,,71,0
20340,note_on,60,0,1,,,,,,,,,0,,,87,0
20400,note_on,60,0,2,,,,,,,,,0,,,68,45
20400,note_on,60,0,1,,,,,,,,,0,,,71,51
20520,note_on,120,0,1,,,,,,,,,0,,,87,45
20580,note_on,180,0,2,,,,,,,,,0,,,68,0
20580,control_change,0,0,2,,,,,,,,,0,64,0,,
20580,note_on,0,0,1,,,,,,,,,0,,,71,0
20580,note_on,60,0,1,,,,,,,,,0,,,87,0
20640,set_tempo,1200,1,0,,,,,,615385,,,,,,,
20640,note_on,60,0,1,,,,,,,,,0,,,70,48
20760,note_on,120,0,1,,,,,,,,,0,,,87,45
20820,note_on,0,0,1,,,,,,,,,0,,,70,0
20820,note_on,0,0,1,,,,,,,,,0,,,70,56
20820,note_on,60,0,1,,,,,,,,,0,,,87,0
20880,note_on,0,0,2,,,,,,,,,0,,,62,36
20880,note_on,0,0,2,,,,,,,,,0,,,65,40
20880,control_change,0,0,2,,,,,,,,,0,64,127,,
20880,set_tempo,240,1,0,,,,,,603015,,,,,,,
20880,note_on,60,0,1,,,,,,,,,0,,,70,0
20880,note_on,0,0,1,,,,,,,,,0,,,68,56
20880,note_on,300,0,2,,,,,,,,,0,,,59,36
20890,set_tempo,10,1,0,,,,,,606061,,,,,,,
21000,note_on,120,0,1,,,,,,,,,0,,,87,45
21040,set_tempo,150,1,0,,,,,,609137,,,,,,,
21060,note_on,60,0,1,,,,,,,,,0,,,87,0
21060,note_on,0,0,2,,,,,,,,,0,,,65,0
21060,note_on,0,0,2,,,,,,,,,0,,,59,0
21060,note_on,180,0,2,,,,,,,,,0,,,62,0
21060,note_on,0,0,1,,,,,,,,,0,,,68,0
21120,note_on,60,0,2,,,,,,,,,0,,,59,36
21120,note_on,60,0,1,,,,,,,,,0,,,67,50
21120,note_on,0,0,2,,,,,,,,,0,,,65,40
21120,note_on,0,0,2,,,,,,,,,0,,,62,36
21120,set_tempo,80,1,0,,,,,,618557,,,,,,,
21180,set_tempo,60,1,0,,,,,,612245,,,,,,,
21240,note_on,120,0,1,,,,,,,,,0,,,87,45
21282,control_change,162,0,2,,,,,,,,,0,64,0,,
21300,note_on,0,0,2,,,,,,,,,0,,,65,0
21300,note_on,18,0,2,,,,,,,,,0,,,62,0
21300,note_on,0,0,2,,,,,,,,,0,,,59,0
21300,note_on,60,0,1,,,,,,,,,0,,,87,0
21300,note_on,0,0,1,,,,,,,,,0,,,67,0
21320,set_tempo,140,1,0,,,,,,615385,,,,,,,
21360,note_on,60,0,1,,,,,,,,,0,,,68,50
21460,set_tempo,140,1,0,,,,,,618557,,,,,,,
21480,note_on,120,0,1,,,,,,,,,0,,,87,45
21540,note_on,0,0,1,,,,,,,,,0,,,68,0
21540,note_on,60,0,1,,,,,,,,,0,,,87,0
21600,note_on,60,0,1,,,,,,,,,0,,,70,52
21600,set_tempo,140,1,0,,,,,,631579,,,,,,,
21600,note_on,0,0,2,,,,,,,,,0,,,51,35
21600,note_on,300,0,2,,,,,,,,,0,,,67,39
21720,note_on,120,0,1,,,,,,,,,0,,,87,44
21780,note_on,0,0,1,,,,,,,,,0,,,70,0
21780,note_on,0,0,2,,,,,,,,,0,,,67,0
21780,note_on,180,0,2,,,,,,,,,0,,,51,0
21780,note_on,60,0,1,,,,,,,,,0,,,87,0
21840,set_tempo,240,1,0,,,,,,648649,,,,,,,
21840,note_on,60,0,1,,,,,,,,,0,,,63,48
21960,note_on,120,0,1,,,,,,,,,0,,,75,44
22020,note_on,0,0,1,,,,,,,,,0,,,63,0
22020,note_on,60,0,1,,,,,,,,,0,,,75,0
22080,note_on,60,0,1,,,,,,,,,0,,,75,48
22080,set_tempo,240,1,0,,,,,,618557,,,,,,,
22200,note_on,120,0,1,,,,,,,,,0,,,87,45
22260,note_on,0,0,1,,,,,,,,,0,,,75,0
22260,note_on,60,0,1,,,,,,,,,0,,,87,0
22310,set_tempo,230,1,0,,,,,,612245,,,,,,,
22320,note_on,60,0,1,,,,,,,,,0,,,87,56
22440,note_on,120,0,1,,,,,,,,,0,,,99,50
22480,set_tempo,170,1,0,,,,,,609137,,,,,,,
22500,note_on,60,0,1,,,,,,,,,0,,,99,0
22500,note_on,0,0,1,,,,,,,,,0,,,87,0
22560,note_on,60,0,1,,,,,,,,,0,,,87,52
22640,set_tempo,160,1,0,,,,,,606061,,,,,,,
22680,note_on,120,0,1,,,,,,,,,0,,,99,48
22740,note_on,60,0,1,,,,,,,,,0,,,99,0
22740,note_on,0,0,1,,,,,,,,,0,,,87,0
22800,set_tempo,160,1,0,,,,,,603015,,,,,,,
22800,note_on,60,0,1,,,,,,,,,0,,,85,52
22920,note_on,120,0,1,,,,,,,,,0,,,99,44
22980,note_on,0,0,1,,,,,,,,,0,,,85,0
22980,note_on,60,0,1,,,,,,,,,0,,,99,0
22980,note_on,0,0,1,,,,,,,,,0,,,85,60
23040,note_on,1260,0,2,,,,,,,,,0,,,44,44
23040,note_on,0,0,1,,,,,,,,,0,,,83,60
23040,control_change,0,0,2,,,,,,,,,0,64,127,,
23040,note_on,60,0,1,,,,,,,,,0,,,85,0
23160,note_on,120,0,1,,,,,,,,,0,,,99,50
23220,note_on,60,0,1,,,,,,,,,0,,,99,0
23220,note_on,180,0,2,,,,,,,,,0,,,44,0
23220,note_on,0,0,1,,,,,,,,,0,,,83,0
23280,note_on,60,0,1,,,,,,,,,0,,,83,51
23280,note_on,0,0,2,,,,,,,,,0,,,51,37
23280,note_on,60,0,2,,,,,,,,,0,,,59,41
23400,note_on,120,0,1,,,,,,,,,0,,,99,45
23460,note_on,180,0,2,,,,,,,,,0,,,51,0
23460,note_on,0,0,2,,,,,,,,,0,,,59,0
23460,note_on,0,0,1,,,,,,,,,0,,,83,0
23460,note_on,60,0,1,,,,,,,,,0,,,99,0
23513,control_change,53,0,2,,,,,,,,,0,64,0,,
23520,note_on,60,0,1,,,,,,,,,0,,,82,50
23520,set_tempo,720,1,0,,,,,,615385,,,,,,,
23640,note_on,120,0,1,,,,,,,,,0,,,99,45
23700,note_on,60,0,1,,,,,,,,,0,,,99,0
23700,note_on,0,0,1,,,,,,,,,0,,,82,0
23700,note_on,0,0,1,,,,,,,,,0,,,82,52
23760,note_on,247,0,2,,,,,,,,,0,,,47,44
23760,set_tempo,240,1,0,,,,,,606061,,,,,,,
23760,note_on,0,0,1,,,,,,,,,0,,,80,57
23760,note_on,60,0,1,,,,,,,,,0,,,82,0
23760,control_change,0,0,2,,,,,,,,,0,64,127,,
23880,note_on,120,0,1,,,,,,,,,0,,,99,45
23940,note_on,180,0,2,,,,,,,,,0,,,47,0
23940,note_on,60,0,1,,,,,,,,,0,,,99,0
23940,note_on,0,0,1,,,,,,,,,0,,,80,0
24000,note_on,0,0,2,,,,,,,,,0,,,63,41
24000,note_on,60,0,1,,,,,,,,,0,,,79,50
24000,note_on,60,0,2,,,,,,,,,0,,,56,37
24120,note_on,120,0,1,,,,,,,,,0,,,99,45
24180,note_on,180,0,2,,,,,,,,,0,,,63,0
24180,note_on,0,0,2,,,,,,,,,0,,,56,0
24180,note_on,60,0,1,,,,,,,,,0,,,99,0
24180,note_on,0,0,1,,,,,,,,,0,,,79,0
24201,control_change,21,0,2,,,,,,,,,0,64,0,,
24240,note_on,60,0,1,,,,,,,,,0,,,80,50
24360,note_on,120,0,1,,,,,,,,,0,,,99,45
24420,note_on,60,0,1,,,,,,,,,0,,,99,0
24420,note_on,0,0,1,,,,,,,,,0,,,79,58
24420,note_on,0,0,1,,,,,,,,,0,,,80,0
24450,note_on,30,0,1,,,,,,,,,0,,,79,0
24450,note_on,0,0,1,,,,,,,,,0,,,80,60
24480,note_on,0,0,1,,,,,,,,,0,,,82,62
24480,note_on,30,0,1,,,,,,,,,0,,,80,0
24480,note_on,279,0,2,,,,,,,,,0,,,51,44
24480,control_change,0,0,2,,,,,,,,,0,64,127,,
24600,note_on,120,0,1,,,,,,,,,0,,,99,44
24660,note_on,0,0,1,,,,,,,,,0,,,82,0
24660,note_on,60,0,1,,,,,,,,,0,,,99,0
24660,note_on,180,0,2,,,,,,,,,0,,,51,0
24720,note_on,60,0,1,,,,,,,,,0,,,75,48
24720,note_on,0,0,2,,,,,,,,,0,,,67,41
24720,note_on,60,0,2,,,,,,,,,0,,,58,37
24840,note_on,120,0,1,,,,,,,,,0,,,99,44
24900,note_on,60,0,1,,,,,,,,,0,,,99,0
24900,note_on,0,0,2,,,,,,,,,0,,,58,0
24900,note_on,180,0,2,,,,,,,,,0,,,67,0
24900,note_on,0,0,1,,,,,,,,,0,,,75,0
24956,control_change,56,0,2,,,,,,,,,0,64,0,,
24960,note_on,60,0,1,,,,,,,,,0,,,75,48
24960,set_tempo,1200,1,0,,,,,,628272,,,,,,,
25080,note_on,120,0,1,,,,,,,,,0,,,87,45
25140,note_on,0,0,1,,,,,,,,,0,,,75,0
25140,note_on,0,0,1,,,,,,,,,0,,,78,52
25140,note_on,60,0,1,,,,,,,,,0,,,87,0
25200,note_on,0,0,1,,,,,,,,,0,,,76,56
25200,note_on,60,0,1,,,,,,,,,0,,,78,0
25200,note_on,244,0,2,,,,,,,,,0,,,68,35
25200,note_on,0,0,2,,,,,,,,,0,,,61,35
25200,note_on,0,0,2,,,,,,,,,0,,,70,39
25200,set_tempo,240,1,0,,,,,,609137,,,,,,,
25320,note_on,120,0,1,,,,,,,,,0,,,92,49
25380,note_on,0,0,2,,,,,,,,,0,,,68,0
25380,note_on,60,0,1,,,,,,,,,0,,,92,0
25380,note_on,0,0,2,,,,,,,,,0,,,70,0
25380,note_on,180,0,2,,,,,,,,,0,,,61,0
25380,note_on,0,0,1,,,,,,,,,0,,,76,0
25440,note_on,60,0,1,,,,,,,,,0,,,75,52
25440,note_on,0,0,2,,,,,,,,,0,,,70,39
25440,note_on,0,0,2,,,,,,,,,0,,,63,35
25440,note_on,60,0,2,,,,,,,,,0,,,68,35
25560,note_on,120,0,1,,,,,,,,,0,,,92,49
25620,note_on,0,0,2,,,,,,,,,0,,,68,0
25620,note_on,60,0,1,,,,,,,,,0,,,92,0
25620,note_on,180,0,2,,,,,,,,,0,,,63,0
25620,note_on,0,0,1,,,,,,,,,0,,,75,0
25620,note_on,0,0,2,,,,,,,,,0,,,70,0
25680,note_on,0,0,2,,,,,,,,,0,,,64,35
25680,note_on,0,0,2,,,,,,,,,0,,,68,35
25680,note_on,60,0,2,,,,,,,,,0,,,70,39
25680,note_on,60,0,1,,,,,,,,,0,,,73,52
25680,note_on,0,0,1,,,,,,,,,0,,,75,44
25800,set_tempo,600,1,0,,,,,,628272,,,,,,,
25800,note_on,120,0,1,,,,,,,,,0,,,92,49
25860,note_on,60,0,1,,,,,,,,,0,,,92,0
25860,note_on,0,0,1,,,,,,,,,0,,,75,0
25860,note_on,0,0,2,,,,,,,,,0,,,70,0
25860,note_on,0,0,2,,,,,,,,,0,,,64,0
25860,note_on,180,0,2,,,,,,,,,0,,,68,0
25860,note_on,0,0,1,,,,,,,,,0,,,73,0
25920,note_on,0,0,2,,,,,,,,,0,,,71,44
25920,note_on,0,0,2,,,,,,,,,0,,,68,39
25920,set_tempo,120,1,0,,,,,,606061,,,,,,,
25920,note_on,60,0,1,,,,,,,,,0,,,75,52
25920,note_on,60,0,2,,,,,,,,,0,,,63,39
26010,note_on,90,0,1,,,,,,,,,0,,,75,0
26040,note_on,30,0,1,,,,,,,,,0,,,87,44
26100,note_on,0,0,2,,,,,,,,,0,,,71,0
26100,note_on,0,0,2,,,,,,,,,0,,,63,0
26100,note_on,180,0,2,,,,,,,,,0,,,68,0
26100,note_on,60,0,1,,,,,,,,,0,,,87,0
26160,note_on,60,0,1,,,,,,,,,0,,,80,44
26220,note_on,60,0,1,,,,,,,,,0,,,80,0
26280,note_on,60,0,1,,,,,,,,,0,,,83,44
26340,note_on,60,0,1,,,,,,,,,0,,,83,0
26400,note_on,60,0,1,,,,,,,,,0,,,87,52
26490,note_on,90,0,1,,,,,,,,,0,,,87,0
26520,note_on,30,0,1,,,,,,,,,0,,,99,46
26520,set_tempo,600,1,0,,,,,,621762,,,,,,,
26580,note_on,60,0,1,,,,,,,,,0,,,99,0
26640,note_on,540,0,2,,,,,,,,,0,,,61,34
26640,set_tempo,120,1,0,,,,,,609137,,,,,,,
26640,note_on,60,0,1,,,,,,,,,0,,,75,52
26640,note_on,0,0,2,,,,,,,,,0,,,51,34
26640,note_on,0,0,2,,,,,,,,,0,,,67,38
26730,note_on,90,0,1,,,,,,,,,0,,,75,0
26760,note_on,30,0,1,,,,,,,,,0,,,87,44
26820,note_on,0,0,2,,,,,,,,,0,,,61,0
26820,note_on,60,0,1,,,,,,,,,0,,,87,0
26820,note_on,0,0,2,,,,,,,,,0,,,67,0
26820,note_on,180,0,2,,,,,,,,,0,,,51,0
26880,set_tempo,240,1,0,,,,,,609137,,,,,,,
26880,note_on,60,0,1,,,,,,,,,0,,,79,44
26940,note_on,60,0,1,,,,,,,,,0,,,79,0
27000,note_on,60,0,1,,,,,,,,,0,,,82,44
27060,note_on,60,0,1,,,,,,,,,0,,,82,0
27120,note_on,60,0,1,,,,,,,,,0,,,87,52
27210,note_on,90,0,1,,,,,,,,,0,,,87,0
27240,set_tempo,360,1,0,,,,,,625000,,,,,,,
27240,note_on,30,0,1,,,,,,,,,0,,,99,50
27300,note_on,60,0,1,,,,,,,,,0,,,99,0
27360,set_tempo,120,1,0,,,,,,609137,,,,,,,
27360,note_on,540,0,2,,,,,,,,,0,,,44,50
27360,control_change,0,0,2,,,,,,,,,0,64,127,,
27450,note_on,90,0,2,,,,,,,,,0,,,44,0
27480,note_on,30,0,2,,,,,,,,,0,,,59,45
27570,note_on,90,0,2,,,,,,,,,0,,,59,0
27600,control_change,0,0,1,,,,,,,,,0,64,127,,
27600,note_on,300,0,1,,,,,,,,,0,,,63,45
27690,note_on,90,0,1,,,,,,,,,0,,,63,0
27720,note_on,30,0,1,,,,,,,,,0,,,68,42
27810,note_on,90,0,1,,,,,,,,,0,,,68,0
27840,note_on,30,0,1,,,,,,,,,0,,,75,42
27930,note_on,90,0,1,,,,,,,,,0,,,75,0
27960,note_on,30,0,1,,,,,,,,,0,,,80,41
28050,note_on,90,0,1,,,,,,,,,0,,,80,0
28080,note_on,510,0,2,,,,,,,,,0,,,83,39
28080,set_tempo,720,1,0,,,,,,615385,,,,,,,
28140,set_tempo,60,1,0,,,,,,618557,,,,,,,
28170,note_on,90,0,2,,,,,,,,,0,,,83,0
28200,set_tempo,60,1,0,,,,,,621762,,,,,,,
28200,note_on,30,0,2,,,,,,,,,0,,,87,39
28260,set_tempo,60,1,0,,,,,,625000,,,,,,,
28290,note_on,90,0,2,,,,,,,,,0,,,87,0
28310,set_tempo,50,1,0,,,,,,628272,,,,,,,
28320,control_change,270,0,1,,,,,,,,,0,64,0,,
28320,note_on,30,0,2,,,,,,,,,0,,,92,38
28320,control_change,0,0,2,,,,,,,,,0,64,0,,
28410,note_on,90,0,2,,,,,,,,,0,,,92,0
29280,set_tempo,970,1,0,,,,,,598922,,,,,,,
29280,note_on,870,0,2,,,,,,,,,0,,,71,50
29400,note_on,0,0,1,,,,,,,,,0,,,70,46
29400,note_on,1080,0,1,,,,,,,,,0,,,67,40
29460,note_on,180,0,2,,,,,,,,,0,,,71,0
29490,note_on,90,0,1,,,,,,,,,0,,,70,0
29490,note_on,0,0,1,,,,,,,,,0,,,67,0
29520,note_on,60,0,2,,,,,,,,,0,,,71,53
29640,note_on,0,0,1,,,,,,,,,0,,,69,49
29640,note_on,150,0,1,,,,,,,,,0,,,66,44
29700,note_on,180,0,2,,,,,,,,,0,,,71,0
29730,note_on,0,0,1,,,,,,,,,0,,,66,0
29730,note_on,90,0,1,,,,,,,,,0,,,69,0
29760,set_tempo,480,1,0,,,,,,598922,,,,,,,
29760,note_on,60,0,2,,,,,,,,,0,,,71,56
29820,set_tempo,60,1,0,,,,,,595829,,,,,,,
29880,note_on,150,0,1,,,,,,,,,0,,,65,46
29880,note_on,0,0,1,,,,,,,,,0,,,68,51
29880,set_tempo,60,1,0,,,,,,592710,,,,,,,
29940,set_tempo,60,1,0,,,,,,589681,,,,,,,
29940,note_on,180,0,2,,,,,,,,,0,,,71,0
29970,note_on,90,0,1,,,,,,,,,0,,,68,0
29970,note_on,0,0,1,,,,,,,,,0,,,65,0
29990,set_tempo,50,1,0,,,,,,586625,,,,,,,
30000,note_on,60,0,2,,,,,,,,,0,,,71,60
30000,set_tempo,10,1,0,,,,,,595474,,,,,,,
30120,set_tempo,120,1,0,,,,,,558295,,,,,,,
30120,note_on,0,0,1,,,,,,,,,0,,,67,53
30120,note_on,150,0,1,,,,,,,,,0,,,64,48
30180,note_on,180,0,2,,,,,,,,,0,,,71,0
30210,note_on,90,0,1,,,,,,,,,0,,,67,0
30210,note_on,0,0,1,,,,,,,,,0,,,64,0
30240,set_tempo,120,1,0,,,,,,552944,,,,,,,
30240,note_on,30,0,1,,,,,,,,,0,,,73,60
30300,note_on,0,0,1,,,,,,,,,0,,,71,60
30300,note_on,60,0,1,,,,,,,,,0,,,73,0
30360,note_on,60,0,1,,,,,,,,,0,,,71,0
30360,note_on,0,0,1,,,,,,,,,0,,,70,60
30420,note_on,0,0,1,,,,,,,,,0,,,71,60
30420,note_on,60,0,1,,,,,,,,,0,,,70,0
30480,note_on,0,0,1,,,,,,,,,0,,,66,68
30480,note_on,60,0,1,,,,,,,,,0,,,71,0
30480,set_tempo,240,1,0,,,,,,569206,,,,,,,
30480,note_on,300,0,2,,,,,,,,,0,,,63,39
30480,note_on,0,0,2,,,,,,,,,0,,,59,35
30570,note_on,90,0,1,,,,,,,,,0,,,66,0
30600,note_on,30,0,1,,,,,,,,,0,,,90,60
30600,set_tempo,120,1,0,,,,,,563645,,,,,,,
30660,note_on,180,0,2,,,,,,,,,0,,,59,0
30660,note_on,0,0,2,,,,,,,,,0,,,63,0
30690,note_on,90,0,1,,,,,,,,,0,,,90,0
30720,note_on,0,0,2,,,,,,,,,0,,,54,35
30720,note_on,60,0,2,,,,,,,,,0,,,63,39
30720,note_on,30,0,1,,,,,,,,,0,,,71,69
30720,note_on,0,0,2,,,,,,,,,0,,,59,35
30810,note_on,90,0,1,,,,,,,,,0,,,71,0
30840,note_on,30,0,1,,,,,,,,,0,,,90,61
30840,set_tempo,240,1,0,,,,,,574548,,,,,,,
30900,note_on,180,0,2,,,,,,,,,0,,,54,0
30900,note_on,0,0,2,,,,,,,,,0,,,59,0
30900,note_on,0,0,2,,,,,,,,,0,,,63,0
30930,note_on,90,0,1,,,,,,,,,0,,,90,0
30960,note_on,30,0,1,,,,,,,,,0,,,75,63
30960,set_tempo,120,1,0,,,,,,552944,,,,,,,
31020,note_on,60,0,1,,,,,,,,,0,,,75,0
31020,note_on,0,0,1,,,,,,,,,0,,,73,63
31080,note_on,0,0,1,,,,,,,,,0,,,72,63
31080,note_on,60,0,1,,,,,,,,,0,,,73,0
31140,note_on,0,0,1,,,,,,,,,0,,,73,63
31140,note_on,60,0,1,,,,,,,,,0,,,72,0
31200,note_on,0,0,1,,,,,,,,,0,,,66,70
31200,note_on,60,0,1,,,,,,,,,0,,,73,0
31200,note_on,0,0,2,,,,,,,,,0,,,58,36
31200,note_on,300,0,2,,,,,,,,,0,,,64,40
31200,set_tempo,240,1,0,,,,,,569206,,,,,,,
31290,note_on,90,0,1,,,,,,,,,0,,,66,0
31320,note_on,30,0,1,,,,,,,,,0,,,90,68
31320,set_tempo,120,1,0,,,,,,563645,,,,,,,
31380,note_on,0,0,2,,,,,,,,,0,,,64,0
31380,note_on,180,0,2,,,,,,,,,0,,,58,0
31410,note_on,90,0,1,,,,,,,,,0,,,90,0
31440,note_on,30,0,1,,,,,,,,,0,,,73,70
31440,note_on,60,0,2,,,,,,,,,0,,,66,40
31440,note_on,0,0,2,,,,,,,,,0,,,64,36
31440,note_on,0,0,2,,,,,,,,,0,,,54,36
31530,note_on,90,0,1,,,,,,,,,0,,,73,0
31560,note_on,30,0,1,,,,,,,,,0,,,90,68
31560,set_tempo,240,1,0,,,,,,571864,,,,,,,
31620,note_on,180,0,2,,,,,,,,,0,,,54,0
31620,note_on,0,0,2,,,,,,,,,0,,,66,0
31620,note_on,0,0,2,,,,,,,,,0,,,64,0
31650,note_on,90,0,1,,,,,,,,,0,,,90,0
31680,set_tempo,120,1,0,,,,,,552944,,,,,,,
31680,note_on,30,0,1,,,,,,,,,0,,,76,61
31740,note_on,0,0,1,,,,,,,,,0,,,75,61
31740,note_on,60,0,1,,,,,,,,,0,,,76,0
31800,note_on,60,0,1,,,,,,,,,0,,,75,0
31800,note_on,0,0,1,,,,,,,,,0,,,74,61
31860,note_on,60,0,1,,,,,,,,,0,,,74,0
31860,note_on,0,0,1,,,,,,,,,0,,,75,61
31920,set_tempo,240,1,0,,,,,,563645,,,,,,,
31920,note_on,0,0,1,,,,,,,,,0,,,71,68
31920,note_on,60,0,1,,,,,,,,,0,,,75,0
31920,note_on,0,0,2,,,,,,,,,0,,,59,39
31920,note_on,300,0,2,,,,,,,,,0,,,63,39
32010,note_on,90,0,1,,,,,,,,,0,,,71,0
32040,note_on,30,0,1,,,,,,,,,0,,,90,66
32130,note_on,90,0,1,,,,,,,,,0,,,90,0
32160,note_on,0,0,2,,,,,,,,,0,,,63,0
32160,set_tempo,240,1,0,,,,,,571429,,,,,,,
32160,note_on,240,0,2,,,,,,,,,0,,,59,0
32160,note_on,0,0,2,,,,,,,,,0,,,75,50
32280,note_on,0,0,1,,,,,,,,,0,,,74,46
32280,note_on,150,0,1,,,,,,,,,0,,,71,40
32340,note_on,180,0,2,,,,,,,,,0,,,75,0
32370,note_on,0,0,1,,,,,,,,,0,,,71,0
32370,note_on,90,0,1,,,,,,,,,0,,,74,0
32400,note_on,60,0,2,,,,,,,,,0,,,75,53
32520,note_on,150,0,1,,,,,,,,,0,,,70,44
32520,note_on,0,0,1,,,,,,,,,0,,,73,49
32580,note_on,180,0,2,,,,,,,,,0,,,75,0
32610,note_on,90,0,1,,,,,,,,,0,,,73,0
32610,note_on,0,0,1,,,,,,,,,0,,,70,0
32640,note_on,60,0,2,,,,,,,,,0,,,75,56
32760,note_on,150,0,1,,,,,,,,,0,,,69,46
32760,note_on,0,0,1,,,,,,,,,0,,,72,51
32820,note_on,180,0,2,,,,,,,,,0,,,75,0
32850,note_on,0,0,1,,,,,,,,,0,,,69,0
32850,note_on,90,0,1,,,,,,,,,0,,,72,0
32880,note_on,60,0,2,,,,,,,,,0,,,75,60
33000,note_on,150,0,1,,,,,,,,,0,,,68,48
33000,note_on,0,0,1,,,,,,,,,0,,,71,53
33000,set_tempo,840,1,0,,,,,,558295,,,,,,,
33060,note_on,180,0,2,,,,,,,,,0,,,75,0
33090,note_on,0,0,1,,,,,,,,,0,,,68,0
33090,note_on,90,0,1,,,,,,,,,0,,,71,0
33120,set_tempo,120,1,0,,,,,,547745,,,,,,,
33120,note_on,30,0,1,,,,,,,,,0,,,77,60
33180,note_on,0,0,1,,,,,,,,,0,,,75,60
33180,note_on,60,0,1,,,,,,,,,0,,,77,0
33240,note_on,0,0,1,,,,,,,,,0,,,74,60
33240,note_on,60,0,1,,,,,,,,,0,,,75,0
33300,note_on,60,0,1,,,,,,,,,0,,,74,0
33300,note_on,0,0,1,,,,,,,,,0,,,75,60
33360,note_on,300,0,2,,,,,,,,,0,,,63,35
33360,note_on,0,0,1,,,,,,,,,0,,,70,68
33360,set_tempo,240,1,0,,,,,,563645,,,,,,,
33360,note_on,0,0,2,,,,,,,,,0,,,66,39
33360,note_on,60,0,1,,,,,,,,,0,,,75,0
33450,note_on,90,0,1,,,,,,,,,0,,,70,0
33480,note_on,30,0,1,,,,,,,,,0,,,94,66
33480,set_tempo,120,1,0,,,,,,555556,,,,,,,
33540,note_on,180,0,2,,,,,,,,,0,,,66,0
33540,note_on,0,0,2,,,,,,,,,0,,,63,0
33570,note_on,90,0,1,,,,,,,,,0,,,94,0
33600,note_on,30,0,1,,,,,,,,,0,,,75,69
33600,note_on,0,0,2,,,,,,,,,0,,,58,35
33600,note_on,0,0,2,,,,,,,,,0,,,66,35
33600,note_on,60,0,2,,,,,,,,,0,,,70,39
33690,note_on,90,0,1,,,,,,,,,0,,,75,0
33720,set_tempo,240,1,0,,,,,,569206,,,,,,,
33720,note_on,30,0,1,,,,,,,,,0,,,94,66
33780,note_on,0,0,2,,,,,,,,,0,,,66,0
33780,note_on,0,0,2,,,,,,,,,0,,,70,0
33780,note_on,180,0,2,,,,,,,,,0,,,58,0
33810,note_on,90,0,1,,,,,,,,,0,,,94,0
33840,set_tempo,120,1,0,,,,,,547745,,,,,,,
33840,note_on,30,0,1,,,,,,,,,0,,,78,63
33900,note_on,0,0,1,,,,,,,,,0,,,77,63
33900,note_on,60,0,1,,,,,,,,,0,,,78,0
33960,note_on,0,0,1,,,,,,,,,0,,,76,63
33960,note_on,60,0,1,,,,,,,,,0,,,77,0
34020,note_on,0,0,1,,,,,,,,,0,,,77,63
34020,note_on,60,0,1,,,,,,,,,0,,,76,0
34080,note_on,60,0,1,,,,,,,,,0,,,77,0
34080,note_on,0,0,2,,,,,,,,,0,,,62,36
34080,note_on,300,0,2,,,,,,,,,0,,,68,40
34080,note_on,0,0,1,,,,,,,,,0,,,70,70
34080,set_tempo,240,1,0,,,,,,563645,,,,,,,
34170,note_on,90,0,1,,,,,,,,,0,,,70,0
34200,set_tempo,120,1,0,,,,,,555556,,,,,,,
34200,note_on,30,0,1,,,,,,,,,0,,,94,67
34260,note_on,0,0,2,,,,,,,,,0,,,68,0
34260,note_on,180,0,2,,,,,,,,,0,,,62,0
34290,note_on,90,0,1,,,,,,,,,0,,,94,0
34320,note_on,0,0,2,,,,,,,,,0,,,58,36
34320,note_on,0,0,2,,,,,,,,,0,,,68,36
34320,note_on,30,0,1,,,,,,,,,0,,,77,69
34320,note_on,60,0,2,,,,,,,,,0,,,70,40
34410,note_on,90,0,1,,,,,,,,,0,,,77,0
34440,note_on,30,0,1,,,,,,,,,0,,,94,67
34440,set_tempo,240,1,0,,,,,,563910,,,,,,,
34500,note_on,0,0,2,,,,,,,,,0,,,70,0
34500,note_on,180,0,2,,,,,,,,,0,,,58,0
34500,note_on,0,0,2,,,,,,,,,0,,,68,0
34530,note_on,90,0,1,,,,,,,,,0,,,94,0
34560,set_tempo,120,1,0,,,,,,547745,,,,,,,
34560,note_on,30,0,1,,,,,,,,,0,,,80,61
34620,note_on,0,0,1,,,,,,,,,0,,,78,61
34620,note_on,60,0,1,,,,,,,,,0,,,80,0
34680,note_on,0,0,1,,,,,,,,,0,,,77,61
34680,note_on,60,0,1,,,,,,,,,0,,,78,0
34740,note_on,60,0,1,,,,,,,,,0,,,77,0
34740,note_on,0,0,1,,,,,,,,,0,,,78,61
34800,note_on,60,0,1,,,,,,,,,0,,,78,0
34800,set_tempo,240,1,0,,,,,,563645,,,,,,,
34800,note_on,300,0,2,,,,,,,,,0,,,63,35
34800,note_on,0,0,2,,,,,,,,,0,,,66,39
34800,note_on,0,0,1,,,,,,,,,0,,,75,68
34890,note_on,90,0,1,,,,,,,,,0,,,75,0
34920,note_on,30,0,1,,,,,,,,,0,,,94,66
35010,note_on,90,0,1,,,,,,,,,0,,,94,0
35040,set_tempo,240,1,0,,,,,,568720,,,,,,,
35040,note_on,0,0,2,,,,,,,,,0,,,78,50
35040,note_on,240,0,2,,,,,,,,,0,,,66,0
35040,note_on,0,0,2,,,,,,,,,0,,,63,0
35160,note_on,150,0,1,,,,,,,,,0,,,74,40
35160,note_on,0,0,1,,,,,,,,,0,,,77,46
35220,note_on,180,0,2,,,,,,,,,0,,,78,0
35250,note_on,90,0,1,,,,,,,,,0,,,77,0
35250,note_on,0,0,1,,,,,,,,,0,,,74,0
35280,note_on,60,0,2,,,,,,,,,0,,,78,53
35400,note_on,150,0,1,,,,,,,,,0,,,73,44
35400,note_on,0,0,1,,,,,,,,,0,,,76,49
35460,note_on,180,0,2,,,,,,,,,0,,,78,0
35490,note_on,0,0,1,,,,,,,,,0,,,73,0
35490,note_on,90,0,1,,,,,,,,,0,,,76,0
35520,note_on,60,0,2,,,,,,,,,0,,,78,56
35640,note_on,150,0,1,,,,,,,,,0,,,75,51
35640,note_on,0,0,1,,,,,,,,,0,,,72,46
35700,note_on,180,0,2,,,,,,,,,0,,,78,0
35730,note_on,90,0,1,,,,,,,,,0,,,72,0
35730,note_on,0,0,1,,,,,,,,,0,,,75,0
35760,note_on,60,0,2,,,,,,,,,0,,,78,60
35880,note_on,150,0,1,,,,,,,,,0,,,74,53
35880,set_tempo,840,1,0,,,,,,558295,,,,,,,
35880,note_on,0,0,1,,,,,,,,,0,,,71,48
35940,note_on,180,0,2,,,,,,,,,0,,,78,0
35970,note_on,0,0,1,,,,,,,,,0,,,74,0
35970,note_on,90,0,1,,,,,,,,,0,,,71,0
36000,set_tempo,120,1,0,,,,,,547745,,,,,,,
36000,note_on,30,0,1,,,,,,,,,0,,,80,60
36060,note_on,0,0,1,,,,,,,,,0,,,78,60
36060,note_on,60,0,1,,,,,,,,,0,,,80,0
36120,note_on,60,0,1,,,,,,,,,0,,,78,0
36120,note_on,0,0,1,,,,,,,,,0,,,77,60
36180,note_on,60,0,1,,,,,,,,,0,,,77,0
36180,note_on,0,0,1,,,,,,,,,0,,,78,60
36240,note_on,60,0,1,,,,,,,,,0,,,78,0
36240,note_on,300,0,2,,,,,,,,,0,,,70,39
36240,set_tempo,240,1,0,,,,,,563645,,,,,,,
36240,note_on,0,0,1,,,,,,,,,0,,,73,68
36240,note_on,0,0,2,,,,,,,,,0,,,66,35
36330,note_on,90,0,1,,,,,,,,,0,,,73,0
36360,set_tempo,120,1,0,,,,,,555556,,,,,,,
36360,note_on,30,0,1,,,,,,,,,0,,,97,72
36420,note_on,180,0,2,,,,,,,,,0,,,66,0
36420,note_on,0,0,2,,,,,,,,,0,,,70,0
36450,note_on,90,0,1,,,,,,,,,0,,,97,0
36480,note_on,0,0,2,,,,,,,,,0,,,73,39
36480,note_on,30,0,1,,,,,,,,,0,,,78,69
36480,note_on,60,0,2,,,,,,,,,0,,,70,35
36480,note_on,0,0,2,,,,,,,,,0,,,61,39
36570,note_on,90,0,1,,,,,,,,,0,,,78,0
36600,set_tempo,240,1,0,,,,,,563910,,,,,,,
36600,note_on,30,0,1,,,,,,,,,0,,,97,72
36660,note_on,0,0,2,,,,,,,,,0,,,73,0
36660,note_on,180,0,2,,,,,,,,,0,,,61,0
36660,note_on,0,0,2,,,,,,,,,0,,,70,0
36690,note_on,90,0,1,,,,,,,,,0,,,97,0
36720,set_tempo,120,1,0,,,,,,547745,,,,,,,
36720,note_on,30,0,1,,,,,,,,,0,,,82,63
36780,note_on,0,0,1,,,,,,,,,0,,,80,63
36780,note_on,60,0,1,,,,,,,,,0,,,82,0
36840,note_on,60,0,1,,,,,,,,,0,,,80,0
36840,note_on,0,0,1,,,,,,,,,0,,,79,63
36900,note_on,60,0,1,,,,,,,,,0,,,79,0
36900,note_on,0,0,1,,,,,,,,,0,,,80,63
36960,note_on,0,0,2,,,,,,,,,0,,,65,36
36960,note_on,60,0,1,,,,,,,,,0,,,80,0
36960,note_on,300,0,2,,,,,,,,,0,,,71,40
36960,note_on,0,0,1,,,,,,,,,0,,,73,70
36960,set_tempo,240,1,0,,,,,,563645,,,,,,,
37050,note_on,90,0,1,,,,,,,,,0,,,73,0
37080,set_tempo,120,1,0,,,,,,555556,,,,,,,
37080,note_on,30,0,1,,,,,,,,,0,,,97,72
37140,note_on,180,0,2,,,,,,,,,0,,,65,0
37140,note_on,0,0,2,,,,,,,,,0,,,71,0
37170,note_on,90,0,1,,,,,,,,,0,,,97,0
37200,note_on,0,0,2,,,,,,,,,0,,,61,36
37200,note_on,30,0,1,,,,,,,,,0,,,80,69
37200,note_on,0,0,2,,,,,,,,,0,,,71,36
37200,note_on,60,0,2,,,,,,,,,0,,,73,40
37290,note_on,90,0,1,,,,,,,,,0,,,80,0
37320,set_tempo,240,1,0,,,,,,594177,,,,,,,
37320,note_on,30,0,1,,,,,,,,,0,,,97,72
37380,note_on,0,0,2,,,,,,,,,0,,,71,0
37380,note_on,180,0,2,,,,,,,,,0,,,61,0
37380,note_on,0,0,2,,,,,,,,,0,,,73,0
37401,set_tempo,81,1,0,,,,,,585366,,,,,,,
37410,note_on,90,0,1,,,,,,,,,0,,,97,0
37440,set_tempo,39,1,0,,,,,,576923,,,,,,,
37440,note_on,60,0,2,,,,,,,,,0,,,78,52
37440,note_on,30,0,1,,,,,,,,,0,,,82,53
37530,note_on,90,0,1,,,,,,,,,0,,,82,0
37530,note_on,90,0,2,,,,,,,,,0,,,78,0
37560,set_tempo,120,1,0,,,,,,600000,,,,,,,
37560,note_on,30,0,2,,,,,,,,,0,,,80,52
37560,note_on,30,0,1,,,,,,,,,0,,,83,53
37620,note_on,60,0,2,,,,,,,,,0,,,66,53
37650,note_on,30,0,2,,,,,,,,,0,,,80,0
37650,note_on,90,0,1,,,,,,,,,0,,,83,0
37680,set_tempo,120,1,0,,,,,,576923,,,,,,,
37680,note_on,30,0,2,,,,,,,,,0,,,82,53
37680,note_on,30,0,1,,,,,,,,,0,,,85,56
37800,note_on,0,0,1,,,,,,,,,0,,,94,62
37800,note_on,120,0,1,,,,,,,,,0,,,97,62
37920,note_on,120,0,1,,,,,,,,,0,,,94,0
37920,note_on,0,0,1,,,,,,,,,0,,,97,0
37920,note_on,0,0,2,,,,,,,,,0,,,80,52
37920,note_on,0,0,1,,,,,,,,,0,,,83,53
37920,note_on,0,0,1,,,,,,,,,0,,,85,0
37920,note_on,240,0,2,,,,,,,,,0,,,82,0
37920,note_on,0,0,2,,,,,,,,,0,,,66,0
38010,note_on,90,0,2,,,,,,,,,0,,,80,0
38010,note_on,90,0,1,,,,,,,,,0,,,83,0
38040,note_on,30,0,2,,,,,,,,,0,,,78,52
38040,note_on,30,0,1,,,,,,,,,0,,,82,53
38130,note_on,90,0,1,,,,,,,,,0,,,82,0
38130,note_on,90,0,2,,,,,,,,,0,,,78,0
38160,note_on,30,0,1,,,,,,,,,0,,,80,53
38160,note_on,30,0,2,,,,,,,,,0,,,71,52
38250,note_on,90,0,1,,,,,,,,,0,,,80,0
38250,note_on,90,0,2,,,,,,,,,0,,,71,0
38280,set_tempo,600,1,0,,,,,,588235,,,,,,,
38280,note_on,30,0,1,,,,,,,,,0,,,82,53
38280,note_on,30,0,2,,,,,,,,,0,,,73,52
38340,note_on,60,0,2,,,,,,,,,0,,,59,55
38370,note_on,90,0,1,,,,,,,,,0,,,82,0
38370,note_on,30,0,2,,,,,,,,,0,,,73,0
38400,set_tempo,120,1,0,,,,,,576923,,,,,,,
38400,note_on,30,0,2,,,,,,,,,0,,,75,55
38400,note_on,30,0,1,,,,,,,,,0,,,83,56
38520,note_on,120,0,1,,,,,,,,,0,,,95,62
38520,note_on,0,0,1,,,,,,,,,0,,,87,56
38640,note_on,120,0,1,,,,,,,,,0,,,87,0
38640,note_on,0,0,1,,,,,,,,,0,,,95,0
38640,note_on,0,0,2,,,,,,,,,0,,,59,0
38640,note_on,0,0,1,,,,,,,,,0,,,82,53
38640,note_on,240,0,2,,,,,,,,,0,,,75,0
38640,note_on,0,0,2,,,,,,,,,0,,,73,52
38640,note_on,0,0,1,,,,,,,,,0,,,83,0
38730,note_on,90,0,1,,,,,,,,,0,,,82,0
38730,note_on,90,0,2,,,,,,,,,0,,,73,0
38760,note_on,30,0,1,,,,,,,,,0,,,80,53
38760,note_on,30,0,2,,,,,,,,,0,,,71,52
38850,note_on,90,0,2,,,,,,,,,0,,,71,0
38850,note_on,90,0,1,,,,,,,,,0,,,80,0
38880,note_on,30,0,1,,,,,,,,,0,,,78,53
38880,note_on,30,0,2,,,,,,,,,0,,,70,52
38970,note_on,90,0,1,,,,,,,,,0,,,78,0
38970,note_on,90,0,2,,,,,,,,,0,,,70,0
39000,note_on,30,0,1,,,,,,,,,0,,,80,53
39000,note_on,30,0,2,,,,,,,,,0,,,71,52
39000,set_tempo,600,1,0,,,,,,591133,,,,,,,
39060,note_on,60,0,2,,,,,,,,,0,,,61,55
39090,note_on,90,0,1,,,,,,,,,0,,,80,0
39090,note_on,30,0,2,,,,,,,,,0,,,71,0
39120,set_tempo,120,1,0,,,,,,576923,,,,,,,
39120,note_on,30,0,1,,,,,,,,,0,,,82,56
39120,note_on,30,0,2,,,,,,,,,0,,,73,55
39240,note_on,0,0,1,,,,,,,,,0,,,94,60
39240,note_on,120,0,1,,,,,,,,,0,,,85,53
39360,note_on,0,0,1,,,,,,,,,0,,,85,0
39360,note_on,0,0,1,,,,,,,,,0,,,82,0
39360,note_on,0,0,1,,,,,,,,,0,,,80,53
39360,note_on,120,0,1,,,,,,,,,0,,,94,0
39360,note_on,0,0,2,,,,,,,,,0,,,71,52
39360,note_on,0,0,2,,,,,,,,,0,,,61,0
39360,note_on,240,0,2,,,,,,,,,0,,,73,0
39450,note_on,90,0,2,,,,,,,,,0,,,71,0
39450,note_on,90,0,1,,,,,,,,,0,,,80,0
39480,note_on,30,0,1,,,,,,,,,0,,,78,53
39480,note_on,30,0,2,,,,,,,,,0,,,70,52
39570,note_on,90,0,2,,,,,,,,,0,,,70,0
39570,note_on,90,0,1,,,,,,,,,0,,,78,0
39600,note_on,30,0,2,,,,,,,,,0,,,68,52
39600,note_on,30,0,1,,,,,,,,,0,,,77,53
39690,note_on,90,0,2,,,,,,,,,0,,,68,0
39690,note_on,90,0,1,,,,,,,,,0,,,77,0
39720,note_on,30,0,1,,,,,,,,,0,,,78,53
39720,note_on,30,0,2,,,,,,,,,0,,,70,52
39720,set_tempo,600,1,0,,,,,,594059,,,,,,,
39780,note_on,60,0,2,,,,,,,,,0,,,61,53
39810,note_on,90,0,1,,,,,,,,,0,,,78,0
39810,note_on,30,0,2,,,,,,,,,0,,,70,0
39840,note_on,30,0,2,,,,,,,,,0,,,71,53
39840,note_on,30,0,1,,,,,,,,,0,,,80,56
39840,set_tempo,120,1,0,,,,,,576923,,,,,,,
39960,note_on,120,0,1,,,,,,,,,0,,,92,57
39960,note_on,0,0,1,,,,,,,,,0,,,83,50
40080,note_on,0,0,2,,,,,,,,,0,,,61,0
40080,note_on,0,0,1,,,,,,,,,0,,,92,0
40080,note_on,0,0,1,,,,,,,,,0,,,80,0
40080,note_on,0,0,2,,,,,,,,,0,,,66,53
40080,note_on,240,0,2,,,,,,,,,0,,,71,0
40080,note_on,120,0,1,,,,,,,,,0,,,83,0
40080,note_on,0,0,1,,,,,,,,,0,,,75,53
40170,note_on,90,0,1,,,,,,,,,0,,,75,0
40170,note_on,90,0,2,,,,,,,,,0,,,66,0
40200,set_tempo,360,1,0,,,,,,594059,,,,,,,
40200,note_on,30,0,1,,,,,,,,,0,,,77,53
40200,note_on,30,0,2,,,,,,,,,0,,,68,53
40290,note_on,90,0,1,,,,,,,,,0,,,77,0
40290,note_on,90,0,2,,,,,,,,,0,,,68,0
40320,note_on,0,0,2,,,,,,,,,0,,,70,55
40320,note_on,30,0,1,,,,,,,,,0,,,78,56
40320,note_on,30,0,2,,,,,,,,,0,,,58,49
40320,set_tempo,120,1,0,,,,,,576923,,,,,,,
40440,note_on,120,0,1,,,,,,,,,0,,,90,50
40440,note_on,0,0,1,,,,,,,,,0,,,82,45
40500,note_on,180,0,2,,,,,,,,,0,,,70,0
40500,note_on,0,0,2,,,,,,,,,0,,,58,0
40500,note_on,60,0,1,,,,,,,,,0,,,78,0
40560,note_on,0,0,1,,,,,,,,,0,,,90,0
40560,set_tempo,240,1,0,,,,,,582524,,,,,,,
40560,note_on,60,0,1,,,,,,,,,0,,,82,0
40560,note_on,60,0,2,,,,,,,,,0,,,66,57
40650,note_on,90,0,2,,,,,,,,,0,,,66,0
40680,note_on,30,0,2,,,,,,,,,0,,,78,57
40770,note_on,90,0,2,,,,,,,,,0,,,78,0
40800,note_on,30,0,2,,,,,,,,,0,,,67,64
40890,note_on,90,0,2,,,,,,,,,0,,,67,0
40920,note_on,30,0,2,,,,,,,,,0,,,79,64
41010,note_on,90,0,2,,,,,,,,,0,,,79,0
41040,set_tempo,480,1,0,,,,,,576923,,,,,,,
41040,note_on,480,0,1,,,,,,,,,0,,,68,68
41130,note_on,90,0,1,,,,,,,,,0,,,68,0
41160,note_on,30,0,1,,,,,,,,,0,,,80,68
41250,note_on,90,0,1,,,,,,,,,0,,,80,0
41280,note_on,30,0,1,,,,,,,,,0,,,92,73
41280,note_on,0,0,2,,,,,,,,,0,,,68,53
41280,note_on,270,0,2,,,,,,,,,0,,,64,48
41400,note_on,120,0,1,,,,,,,,,0,,,80,63
41460,note_on,0,0,2,,,,,,,,,0,,,64,0
41460,note_on,60,0,1,,,,,,,,,0,,,92,0
41460,note_on,180,0,2,,,,,,,,,0,,,68,0
41520,note_on,60,0,1,,,,,,,,,0,,,80,0
41520,note_on,0,0,2,,,,,,,,,0,,,68,53
41520,note_on,60,0,2,,,,,,,,,0,,,63,48
41520,note_on,0,0,1,,,,,,,,,0,,,92,73
41640,note_on,120,0,1,,,,,,,,,0,,,78,62
41700,note_on,0,0,2,,,,,,,,,0,,,63,0
41700,note_on,60,0,1,,,,,,,,,0,,,92,0
41700,note_on,180,0,2,,,,,,,,,0,,,68,0
41760,note_on,0,0,2,,,,,,,,,0,,,68,58
41760,note_on,60,0,2,,,,,,,,,0,,,61,51
41760,note_on,60,0,1,,,,,,,,,0,,,78,0
41760,note_on,0,0,1,,,,,,,,,0,,,92,75
41880,note_on,120,0,1,,,,,,,,,0,,,76,61
41880,set_tempo,840,1,0,,,,,,591133,,,,,,,
41940,note_on,0,0,2,,,,,,,,,0,,,61,0
41940,note_on,180,0,2,,,,,,,,,0,,,68,0
41940,note_on,60,0,1,,,,,,,,,0,,,92,0
42000,note_on,60,0,1,,,,,,,,,0,,,76,0
42000,note_on,60,0,2,,,,,,,,,0,,,75,53
42000,note_on,0,0,1,,,,,,,,,0,,,102,78
42000,set_tempo,120,1,0,,,,,,576923,,,,,,,
42120,note_on,120,0,1,,,,,,,,,0,,,80,62
42180,note_on,60,0,1,,,,,,,,,0,,,102,0
42180,note_on,180,0,2,,,,,,,,,0,,,75,0
42240,note_on,0,0,1,,,,,,,,,0,,,100,78
42240,note_on,60,0,2,,,,,,,,,0,,,73,53
42240,note_on,60,0,1,,,,,,,,,0,,,80,0
42360,note_on,120,0,1,,,,,,,,,0,,,80,62
42420,note_on,180,0,2,,,,,,,,,0,,,73,0
42420,note_on,60,0,1,,,,,,,,,0,,,100,0
42480,note_on,0,0,1,,,,,,,,,0,,,99,78
42480,note_on,60,0,2,,,,,,,,,0,,,56,50
42480,note_on,60,0,1,,,,,,,,,0,,,80,0
42480,note_on,0,0,2,,,,,,,,,0,,,72,57
42600,note_on,120,0,1,,,,,,,,,0,,,80,62
42660,note_on,60,0,1,,,,,,,,,0,,,99,0
42660,note_on,180,0,2,,,,,,,,,0,,,72,0
42720,note_on,60,0,2,,,,,,,,,0,,,56,0
42720,note_on,60,0,1,,,,,,,,,0,,,80,0
42720,note_on,0,0,2,,,,,,,,,0,,,70,53
42720,note_on,0,0,1,,,,,,,,,0,,,97,78
42840,note_on,120,0,1,,,,,,,,,0,,,80,62
42900,note_on,60,0,1,,,,,,,,,0,,,97,0
42900,note_on,180,0,2,,,,,,,,,0,,,70,0
42960,note_on,60,0,2,,,,,,,,,0,,,72,53
42960,note_on,60,0,1,,,,,,,,,0,,,80,0
42960,note_on,0,0,1,,,,,,,,,0,,,99,78
43080,note_on,120,0,1,,,,,,,,,0,,,80,61
43080,set_tempo,1080,1,0,,,,,,597015,,,,,,,
43140,note_on,180,0,2,,,,,,,,,0,,,72,0
43140,note_on,60,0,1,,,,,,,,,0,,,99,0
43200,note_on,60,0,2,,,,,,,,,0,,,61,50
43200,note_on,0,0,2,,,,,,,,,0,,,73,57
43200,note_on,0,0,1,,,,,,,,,0,,,100,82
43200,note_on,60,0,1,,,,,,,,,0,,,80,0
43200,set_tempo,120,1,0,,,,,,576923,,,,,,,
43320,note_on,120,0,1,,,,,,,,,0,,,80,61
43380,note_on,60,0,1,,,,,,,,,0,,,100,0
43380,note_on,180,0,2,,,,,,,,,0,,,73,0
43440,note_on,0,0,2,,,,,,,,,0,,,76,53
43440,note_on,60,0,2,,,,,,,,,0,,,61,0
43440,note_on,0,0,1,,,,,,,,,0,,,97,77
43440,note_on,60,0,1,,,,,,,,,0,,,80,0
43560,note_on,120,0,1,,,,,,,,,0,,,80,62
43620,note_on,180,0,2,,,,,,,,,0,,,76,0
43620,note_on,60,0,1,,,,,,,,,0,,,97,0
43680,set_tempo,480,1,0,,,,,,594059,,,,,,,
43680,note_on,60,0,2,,,,,,,,,0,,,67,64
43680,note_on,60,0,1,,,,,,,,,0,,,80,0
43770,note_on,90,0,2,,,,,,,,,0,,,67,0
43800,note_on,30,0,2,,,,,,,,,0,,,79,64
43890,note_on,90,0,2,,,,,,,,,0,,,79,0
43920,note_on,240,0,1,,,,,,,,,0,,,66,68
43920,set_tempo,240,1,0,,,,,,568720,,,,,,,
44010,note_on,90,0,1,,,,,,,,,0,,,66,0
44040,note_on,30,0,1,,,,,,,,,0,,,78,68
44130,note_on,90,0,1,,,,,,,,,0,,,78,0
44160,note_on,30,0,1,,,,,,,,,0,,,90,73
44160,note_on,270,0,2,,,,,,,,,0,,,63,48
44160,note_on,0,0,2,,,,,,,,,0,,,66,53
44280,note_on,120,0,1,,,,,,,,,0,,,78,63
44340,note_on,180,0,2,,,,,,,,,0,,,66,0
44340,note_on,0,0,2,,,,,,,,,0,,,63,0
44340,note_on,60,0,1,,,,,,,,,0,,,90,0
44400,note_on,0,0,1,,,,,,,,,0,,,90,73
44400,note_on,0,0,2,,,,,,,,,0,,,66,53
44400,note_on,60,0,1,,,,,,,,,0,,,78,0
44400,note_on,60,0,2,,,,,,,,,0,,,61,48
44520,note_on,120,0,1,,,,,,,,,0,,,76,62
44580,note_on,180,0,2,,,,,,,,,0,,,66,0
44580,note_on,0,0,2,,,,,,,,,0,,,61,0
44580,note_on,60,0,1,,,,,,,,,0,,,90,0
44640,note_on,0,0,1,,,,,,,,,0,,,90,75
44640,note_on,0,0,2,,,,,,,,,0,,,66,58
44640,note_on,60,0,1,,,,,,,,,0,,,76,0
44640,note_on,60,0,2,,,,,,,,,0,,,59,51
44760,note_on,120,0,1,,,,,,,,,0,,,75,61
44760,set_tempo,840,1,0,,,,,,591133,,,,,,,
44820,note_on,0,0,2,,,,,,,,,0,,,59,0
44820,note_on,180,0,2,,,,,,,,,0,,,66,0
44820,note_on,60,0,1,,,,,,,,,0,,,90,0
44880,note_on,60,0,2,,,,,,,,,0,,,73,53
44880,note_on,0,0,1,,,,,,,,,0,,,100,78
44880,note_on,60,0,1,,,,,,,,,0,,,75,0
44880,set_tempo,120,1,0,,,,,,560748,,,,,,,
45000,note_on,120,0,1,,,,,,,,,0,,,78,62
45060,note_on,180,0,2,,,,,,,,,0,,,73,0
45060,note_on,60,0,1,,,,,,,,,0,,,100,0
45120,note_on,0,0,1,,,,,,,,,0,,,99,78
45120,note_on,60,0,2,,,,,,,,,0,,,71,53
45120,note_on,60,0,1,,,,,,,,,0,,,78,0
45240,note_on,120,0,1,,,,,,,,,0,,,78,62
45300,note_on,180,0,2,,,,,,,,,0,,,71,0
45300,note_on,60,0,1,,,,,,,,,0,,,99,0
45360,note_on,0,0,2,,,,,,,,,0,,,70,57
45360,note_on,0,0,1,,,,,,,,,0,,,97,78
45360,note_on,60,0,1,,,,,,,,,0,,,78,0
45360,set_tempo,480,1,0,,,,,,568720,,,,,,,
45360,note_on,60,0,2,,,,,,,,,0,,,54,50
45480,note_on,120,0,1,,,,,,,,,0,,,78,62
45540,note_on,180,0,2,,,,,,,,,0,,,70,0
45540,note_on,60,0,1,,,,,,,,,0,,,97,0
45600,note_on,0,0,1,,,,,,,,,0,,,95,78
45600,note_on,60,0,2,,,,,,,,,0,,,54,0
45600,note_on,60,0,1,,,,,,,,,0,,,78,0
45600,note_on,0,0,2,,,,,,,,,0,,,68,53
45720,note_on,120,0,1,,,,,,,,,0,,,78,62
45780,note_on,180,0,2,,,,,,,,,0,,,68,0
45780,note_on,60,0,1,,,,,,,,,0,,,95,0
45840,note_on,60,0,2,,,,,,,,,0,,,70,53
45840,note_on,60,0,1,,,,,,,,,0,,,78,0
45840,note_on,0,0,1,,,,,,,,,0,,,97,78
45960,set_tempo,600,1,0,,,,,,597015,,,,,,,
45960,note_on,120,0,1,,,,,,,,,0,,,78,61
46020,note_on,60,0,1,,,,,,,,,0,,,97,0
46020,note_on,180,0,2,,,,,,,,,0,,,70,0
46080,note_on,0,0,2,,,,,,,,,0,,,71,57
46080,set_tempo,120,1,0,,,,,,576923,,,,,,,
46080,note_on,60,0,2,,,,,,,,,0,,,59,50
46080,note_on,60,0,1,,,,,,,,,0,,,78,0
46080,note_on,0,0,1,,,,,,,,,0,,,99,82
46200,note_on,120,0,1,,,,,,,,,0,,,78,61
46260,note_on,180,0,2,,,,,,,,,0,,,71,0
46260,note_on,60,0,1,,,,,,,,,0,,,99,0
46320,note_on,0,0,2,,,,,,,,,0,,,75,53
46320,note_on,0,0,1,,,,,,,,,0,,,95,77
46320,note_on,60,0,2,,,,,,,,,0,,,59,0
46320,note_on,60,0,1,,,,,,,,,0,,,78,0
46440,note_on,120,0,1,,,,,,,,,0,,,78,62
46500,note_on,180,0,2,,,,,,,,,0,,,75,0
46500,note_on,60,0,1,,,,,,,,,0,,,95,0
46560,set_tempo,480,1,0,,,,,,568720,,,,,,,
46560,note_on,60,0,1,,,,,,,,,0,,,78,0
46560,note_on,60,0,2,,,,,,,,,0,,,62,64
46650,note_on,90,0,2,,,,,,,,,0,,,62,0
46680,note_on,30,0,2,,,,,,,,,0,,,74,58
46770,note_on,90,0,2,,,,,,,,,0,,,74,0
46800,set_tempo,240,1,0,,,,,,563380,,,,,,,
46800,note_on,240,0,1,,,,,,,,,0,,,63,74
46890,note_on,90,0,1,,,,,,,,,0,,,63,0
46920,note_on,30,0,1,,,,,,,,,0,,,75,68
47010,note_on,90,0,1,,,,,,,,,0,,,75,0
47040,note_on,30,0,1,,,,,,,,,0,,,87,68
47040,note_on,0,0,2,,,,,,,,,0,,,55,51
47040,note_on,270,0,2,,,,,,,,,0,,,63,58
47040,set_tempo,240,1,0,,,,,,571429,,,,,,,
47130,note_on,90,0,1,,,,,,,,,0,,,87,0
47160,note_on,30,0,1,,,,,,,,,0,,,75,58
47220,note_on,180,0,2,,,,,,,,,0,,,55,0
47220,note_on,0,0,2,,,,,,,,,0,,,63,0
47250,note_on,90,0,1,,,,,,,,,0,,,75,0
47280,note_on,0,0,2,,,,,,,,,0,,,65,58
47280,set_tempo,240,1,0,,,,,,568720,,,,,,,
47280,note_on,60,0,2,,,,,,,,,0,,,56,51
47280,note_on,30,0,1,,,,,,,,,0,,,87,67
47370,note_on,90,0,1,,,,,,,,,0,,,87,0
47400,note_on,30,0,1,,,,,,,,,0,,,74,61
47460,note_on,0,0,2,,,,,,,,,0,,,56,0
47460,note_on,180,0,2,,,,,,,,,0,,,65,0
47490,note_on,90,0,1,,,,,,,,,0,,,74,0
47520,note_on,30,0,1,,,,,,,,,0,,,87,68
47520,note_on,0,0,2,,,,,,,,,0,,,67,64
47520,note_on,60,0,2,,,,,,,,,0,,,58,58
47520,set_tempo,240,1,0,,,,,,566038,,,,,,,
47610,note_on,90,0,1,,,,,,,,,0,,,87,0
47640,note_on,30,0,1,,,,,,,,,0,,,73,62
47700,note_on,0,0,2,,,,,,,,,0,,,58,0
47700,note_on,180,0,2,,,,,,,,,0,,,67,0
47730,note_on,90,0,1,,,,,,,,,0,,,73,0
47760,note_on,30,0,1,,,,,,,,,0,,,87,67
47760,note_on,60,0,2,,,,,,,,,0,,,58,59
47760,note_on,0,0,2,,,,,,,,,0,,,67,66
47760,set_tempo,240,1,0,,,,,,563380,,,,,,,
47850,note_on,90,0,1,,,,,,,,,0,,,87,0
47880,note_on,30,0,1,,,,,,,,,0,,,73,64
47940,note_on,180,0,2,,,,,,,,,0,,,67,0
47940,note_on,0,0,2,,,,,,,,,0,,,58,0
48000,note_on,60,0,2,,,,,,,,,0,,,59,59
48000,set_tempo,240,1,0,,,,,,568720,,,,,,,
48000,note_on,0,0,2,,,,,,,,,0,,,68,66
48000,note_on,120,0,1,,,,,,,,,0,,,73,0
48000,note_on,0,0,1,,,,,,,,,0,,,87,68
48090,note_on,90,0,1,,,,,,,,,0,,,87,0
48120,note_on,30,0,1,,,,,,,,,0,,,71,72
48180,note_on,0,0,2,,,,,,,,,0,,,59,0
48180,note_on,180,0,2,,,,,,,,,0,,,68,0
48210,note_on,90,0,1,,,,,,,,,0,,,71,0
48240,set_tempo,240,1,0,,,,,,555556,,,,,,,
48240,note_on,0,0,2,,,,,,,,,0,,,70,64
48240,note_on,30,0,1,,,,,,,,,0,,,76,61
48240,note_on,60,0,2,,,,,,,,,0,,,61,58
48240,note_on,0,0,1,,,,,,,,,0,,,88,82
48330,note_on,90,0,1,,,,,,,,,0,,,88,0
48330,note_on,0,0,1,,,,,,,,,0,,,76,0
48360,note_on,30,0,1,,,,,,,,,0,,,82,60
48360,note_on,0,0,1,,,,,,,,,0,,,87,80
48420,note_on,180,0,2,,,,,,,,,0,,,70,0
48420,note_on,0,0,2,,,,,,,,,0,,,61,0
48450,note_on,90,0,1,,,,,,,,,0,,,87,0
48450,note_on,0,0,1,,,,,,,,,0,,,82,0
48480,note_on,0,0,1,,,,,,,,,0,,,85,79
48480,note_on,30,0,1,,,,,,,,,0,,,73,58
48570,note_on,90,0,1,,,,,,,,,0,,,85,0
48570,note_on,0,0,1,,,,,,,,,0,,,73,0
48600,note_on,0,0,1,,,,,,,,,0,,,83,78
48600,note_on,30,0,1,,,,,,,,,0,,,76,57
48690,note_on,0,0,1,,,,,,,,,0,,,76,0
48690,note_on,90,0,1,,,,,,,,,0,,,83,0
48720,note_on,0,0,1,,,,,,,,,0,,,82,78
48720,note_on,0,0,2,,,,,,,,,0,,,65,58
48720,note_on,300,0,2,,,,,,,,,0,,,62,51
48720,note_on,30,0,1,,,,,,,,,0,,,71,57
48810,note_on,90,0,1,,,,,,,,,0,,,82,0
48810,note_on,0,0,1,,,,,,,,,0,,,71,0
48840,note_on,30,0,1,,,,,,,,,0,,,77,57
48840,set_tempo,600,1,0,,,,,,552995,,,,,,,
48840,note_on,0,0,1,,,,,,,,,0,,,80,77
48900,note_on,180,0,2,,,,,,,,,0,,,65,0
48900,note_on,0,0,2,,,,,,,,,0,,,62,0
48930,note_on,90,0,1,,,,,,,,,0,,,80,0
48930,note_on,0,0,1,,,,,,,,,0,,,77,0
48940,set_tempo,100,1,0,,,,,,538117,,,,,,,
48960,note_on,0,0,1,,,,,,,,,0,,,79,77
48960,note_on,60,0,2,,,,,,,,,0,,,63,56
48960,set_tempo,20,1,0,,,,,,558140,,,,,,,
48960,note_on,0,0,2,,,,,,,,,0,,,67,62
48960,note_on,30,0,1,,,,,,,,,0,,,70,57
49050,note_on,90,0,1,,,,,,,,,0,,,79,0
49050,note_on,0,0,1,,,,,,,,,0,,,70,0
49080,note_on,30,0,1,,,,,,,,,0,,,75,53
49080,note_on,0,0,1,,,,,,,,,0,,,82,73
49140,note_on,180,0,2,,,,,,,,,0,,,67,0
49140,note_on,0,0,2,,,,,,,,,0,,,63,0
49170,note_on,0,0,1,,,,,,,,,0,,,75,0
49170,note_on,90,0,1,,,,,,,,,0,,,82,0
49200,note_on,30,0,1,,,,,,,,,0,,,79,51
49200,note_on,0,0,1,,,,,,,,,0,,,83,69
49220,set_tempo,260,1,0,,,,,,545455,,,,,,,
49290,note_on,90,0,1,,,,,,,,,0,,,83,0
49290,note_on,0,0,1,,,,,,,,,0,,,79,0
49300,set_tempo,80,1,0,,,,,,547945,,,,,,,
49320,note_on,30,0,1,,,,,,,,,0,,,75,48
49320,set_tempo,20,1,0,,,,,,568720,,,,,,,
49320,note_on,0,0,1,,,,,,,,,0,,,82,64
49410,note_on,90,0,1,,,,,,,,,0,,,82,0
49410,note_on,0,0,1,,,,,,,,,0,,,75,0
49440,note_on,300,0,2,,,,,,,,,0,,,74,64
49440,set_tempo,120,1,0,,,,,,563380,,,,,,,
49530,note_on,90,0,2,,,,,,,,,0,,,74,0
49560,note_on,30,0,2,,,,,,,,,0,,,86,58
49650,note_on,90,0,2,,,,,,,,,0,,,86,0
49680,note_on,270,0,1,,,,,,,,,0,,,75,74
49770,note_on,90,0,1,,,,,,,,,0,,,75,0
49800,note_on,30,0,1,,,,,,,,,0,,,87,68
49890,note_on,90,0,1,,,,,,,,,0,,,87,0
49920,note_on,0,0,2,,,,,,,,,0,,,67,46
49920,note_on,30,0,1,,,,,,,,,0,,,99,67
49920,note_on,270,0,2,,,,,,,,,0,,,75,51
49920,set_tempo,480,1,0,,,,,,571429,,,,,,,
50010,note_on,90,0,1,,,,,,,,,0,,,99,0
50040,note_on,30,0,1,,,,,,,,,0,,,87,56
50100,note_on,180,0,2,,,,,,,,,0,,,67,0
50100,note_on,0,0,2,,,,,,,,,0,,,75,0
50120,set_tempo,200,1,0,,,,,,568720,,,,,,,
50130,note_on,90,0,1,,,,,,,,,0,,,87,0
50160,note_on,30,0,1,,,,,,,,,0,,,99,63
50160,note_on,60,0,2,,,,,,,,,0,,,68,46
50160,note_on,0,0,2,,,,,,,,,0,,,77,51
50250,note_on,90,0,1,,,,,,,,,0,,,99,0
50280,note_on,30,0,1,,,,,,,,,0,,,86,58
50300,set_tempo,180,1,0,,,,,,566038,,,,,,,
50340,note_on,180,0,2,,,,,,,,,0,,,77,0
50340,note_on,0,0,2,,,,,,,,,0,,,68,0
50370,note_on,90,0,1,,,,,,,,,0,,,86,0
50400,note_on,30,0,1,,,,,,,,,0,,,99,64
50400,note_on,60,0,2,,,,,,,,,0,,,70,50
50400,note_on,0,0,2,,,,,,,,,0,,,79,57
50480,set_tempo,180,1,0,,,,,,563380,,,,,,,
50490,note_on,90,0,1,,,,,,,,,0,,,99,0
50520,note_on,30,0,1,,,,,,,,,0,,,85,61
50580,note_on,0,0,2,,,,,,,,,0,,,70,0
50580,note_on,180,0,2,,,,,,,,,0,,,79,0
50610,note_on,90,0,1,,,,,,,,,0,,,85,0
50640,note_on,60,0,2,,,,,,,,,0,,,70,51
50640,note_on,30,0,1,,,,,,,,,0,,,99,68
50640,note_on,0,0,2,,,,,,,,,0,,,79,58
50660,set_tempo,180,1,0,,,,,,560748,,,,,,,
50730,note_on,90,0,1,,,,,,,,,0,,,99,0
50760,note_on,30,0,1,,,,,,,,,0,,,85,62
50820,note_on,180,0,2,,,,,,,,,0,,,79,0
50820,note_on,0,0,2,,,,,,,,,0,,,70,0
50880,note_on,0,0,2,,,,,,,,,0,,,80,58
50880,set_tempo,220,1,0,,,,,,571429,,,,,,,
50880,note_on,120,0,1,,,,,,,,,0,,,85,0
50880,note_on,0,0,1,,,,,,,,,0,,,99,68
50880,note_on,60,0,2,,,,,,,,,0,,,71,51
50970,note_on,90,0,1,,,,,,,,,0,,,99,0
51000,note_on,30,0,1,,,,,,,,,0,,,83,70
51060,note_on,180,0,2,,,,,,,,,0,,,80,0
51060,note_on,0,0,2,,,,,,,,,0,,,71,0
51090,note_on,90,0,1,,,,,,,,,0,,,83,0
51120,note_on,0,0,1,,,,,,,,,0,,,100,74
51120,set_tempo,240,1,0,,,,,,555556,,,,,,,
51120,note_on,0,0,2,,,,,,,,,0,,,81,57
51120,note_on,60,0,2,,,,,,,,,0,,,73,50
51120,note_on,30,0,1,,,,,,,,,0,,,88,53
51210,note_on,90,0,1,,,,,,,,,0,,,100,0
51210,note_on,0,0,1,,,,,,,,,0,,,88,0
51240,note_on,0,0,1,,,,,,,,,0,,,99,72
51240,note_on,30,0,1,,,,,,,,,0,,,93,53
51300,note_on,0,0,2,,,,,,,,,0,,,73,0
51300,note_on,180,0,2,,,,,,,,,0,,,81,0
51330,note_on,0,0,1,,,,,,,,,0,,,93,0
51330,note_on,90,0,1,,,,,,,,,0,,,99,0
51360,note_on,0,0,1,,,,,,,,,0,,,97,70
51360,note_on,30,0,1,,,,,,,,,0,,,85,52
51450,note_on,90,0,1,,,,,,,,,0,,,97,0
51450,note_on,0,0,1,,,,,,,,,0,,,85,0
51480,note_on,0,0,1,,,,,,,,,0,,,95,69
51480,note_on,30,0,1,,,,,,,,,0,,,88,51
51570,note_on,0,0,1,,,,,,,,,0,,,88,0
51570,note_on,90,0,1,,,,,,,,,0,,,95,0
51600,note_on,30,0,1,,,,,,,,,0,,,83,51
51600,note_on,0,0,2,,,,,,,,,0,,,77,52
51600,note_on,0,0,1,,,,,,,,,0,,,93,69
51600,note_on,300,0,2,,,,,,,,,0,,,74,47
51690,note_on,0,0,1,,,,,,,,,0,,,83,0
51690,note_on,90,0,1,,,,,,,,,0,,,93,0
51720,note_on,30,0,1,,,,,,,,,0,,,89,51
51720,note_on,0,0,1,,,,,,,,,0,,,92,68
51780,note_on,0,0,2,,,,,,,,,0,,,74,0
51780,note_on,180,0,2,,,,,,,,,0,,,77,0
51810,note_on,90,0,1,,,,,,,,,0,,,92,0
51810,note_on,0,0,1,,,,,,,,,0,,,89,0
51840,note_on,0,0,2,,,,,,,,,0,,,79,52
51840,note_on,0,0,1,,,,,,,,,0,,,82,51
51840,note_on,30,0,1,,,,,,,,,0,,,91,70
51840,set_tempo,720,1,0,,,,,,563380,,,,,,,
51840,note_on,60,0,2,,,,,,,,,0,,,75,47
51930,note_on,90,0,1,,,,,,,,,0,,,82,0
51930,note_on,0,0,1,,,,,,,,,0,,,91,0
51960,note_on,30,0,1,,,,,,,,,0,,,87,50
51960,note_on,0,0,1,,,,,,,,,0,,,94,64
52020,note_on,0,0,2,,,,,,,,,0,,,75,0
52020,note_on,180,0,2,,,,,,,,,0,,,79,0
52050,note_on,90,0,1,,,,,,,,,0,,,94,0
52050,note_on,0,0,1,,,,,,,,,0,,,87,0
52080,set_tempo,240,1,0,,,,,,555556,,,,,,,
52080,note_on,60,0,2,,,,,,,,,0,,,74,64
52170,note_on,90,0,2,,,,,,,,,0,,,74,0
52200,note_on,30,0,2,,,,,,,,,0,,,86,58
52290,note_on,90,0,2,,,,,,,,,0,,,86,0
52320,note_on,30,0,2,,,,,,,,,0,,,75,58
52410,note_on,90,0,2,,,,,,,,,0,,,75,0
52440,note_on,30,0,2,,,,,,,,,0,,,87,58
52530,note_on,90,0,2,,,,,,,,,0,,,87,0
52560,note_on,510,0,1,,,,,,,,,0,,,99,67
52650,note_on,90,0,1,,,,,,,,,0,,,99,0
52680,note_on,30,0,1,,,,,,,,,0,,,87,62
52770,note_on,90,0,1,,,,,,,,,0,,,87,0
52800,note_on,270,0,2,,,,,,,,,0,,,75,63
52890,note_on,90,0,2,,,,,,,,,0,,,75,0
52920,note_on,30,0,2,,,,,,,,,0,,,87,57
53010,note_on,90,0,2,,,,,,,,,0,,,87,0
53040,note_on,30,0,2,,,,,,,,,0,,,76,64
53130,note_on,90,0,2,,,,,,,,,0,,,76,0
53160,note_on,30,0,2,,,,,,,,,0,,,88,60
53250,note_on,90,0,2,,,,,,,,,0,,,88,0
53280,note_on,510,0,1,,,,,,,,,0,,,99,68
53370,note_on,90,0,1,,,,,,,,,0,,,99,0
53400,note_on,30,0,1,,,,,,,,,0,,,87,63
53490,note_on,90,0,1,,,,,,,,,0,,,87,0
53520,note_on,270,0,2,,,,,,,,,0,,,76,66
53540,set_tempo,1460,1,0,,,,,,555556,,,,,,,
53610,note_on,90,0,2,,,,,,,,,0,,,76,0
53640,note_on,30,0,2,,,,,,,,,0,,,88,61
53730,note_on,90,0,2,,,,,,,,,0,,,88,0
53760,note_on,30,0,2,,,,,,,,,0,,,77,69
53780,set_tempo,240,1,0,,,,,,552995,,,,,,,
53850,note_on,90,0,2,,,,,,,,,0,,,77,0
53880,note_on,30,0,2,,,,,,,,,0,,,89,64
53970,note_on,90,0,2,,,,,,,,,0,,,89,0
54000,note_on,510,0,1,,,,,,,,,0,,,99,72
54020,set_tempo,240,1,0,,,,,,550459,,,,,,,
54090,note_on,90,0,1,,,,,,,,,0,,,99,0
54120,note_on,30,0,1,,,,,,,,,0,,,87,64
54210,note_on,90,0,1,,,,,,,,,0,,,87,0
54240,note_on,270,0,2,,,,,,,,,0,,,78,68
54260,set_tempo,240,1,0,,,,,,547945,,,,,,,
54330,note_on,90,0,2,,,,,,,,,0,,,78,0
54360,note_on,30,0,2,,,,,,,,,0,,,90,63
54450,note_on,90,0,2,,,,,,,,,0,,,90,0
54480,note_on,270,0,1,,,,,,,,,0,,,99,75
54500,set_tempo,240,1,0,,,,,,545455,,,,,,,
54570,note_on,90,0,1,,,,,,,,,0,,,99,0
54600,note_on,30,0,1,,,,,,,,,0,,,87,69
54690,note_on,90,0,1,,,,,,,,,0,,,87,0
54720,note_on,270,0,2,,,,,,,,,0,,,79,72
54740,set_tempo,240,1,0,,,,,,542986,,,,,,,
54810,note_on,90,0,2,,,,,,,,,0,,,79,0
54840,note_on,30,0,2,,,,,,,,,0,,,91,67
54930,note_on,90,0,2,,,,,,,,,0,,,91,0
54960,note_on,270,0,1,,,,,,,,,0,,,99,78
54980,set_tempo,240,1,0,,,,,,540541,,,,,,,
55050,note_on,90,0,1,,,,,,,,,0,,,99,0
55080,note_on,30,0,1,,,,,,,,,0,,,87,69
55170,note_on,90,0,1,,,,,,,,,0,,,87,0
55200,note_on,270,0,2,,,,,,,,,0,,,80,78
55220,set_tempo,240,1,0,,,,,,538117,,,,,,,
55290,note_on,90,0,2,,,,,,,,,0,,,80,0
55320,note_on,30,0,2,,,,,,,,,0,,,92,73
55410,note_on,90,0,2,,,,,,,,,0,,,92,0
55440,note_on,270,0,1,,,,,,,,,0,,,99,79
55460,set_tempo,240,1,0,,,,,,535714,,,,,,,
55530,note_on,90,0,1,,,,,,,,,0,,,99,0
55560,note_on,30,0,1,,,,,,,,,0,,,81,79
55650,note_on,90,0,1,,,,,,,,,0,,,81,0
55680,note_on,30,0,1,,,,,,,,,0,,,99,80
55700,set_tempo,240,1,0,,,,,,533333,,,,,,,
55770,note_on,90,0,1,,,,,,,,,0,,,99,0
55800,note_on,30,0,1,,,,,,,,,0,,,82,81
55890,note_on,90,0,1,,,,,,,,,0,,,82,0
55920,note_on,30,0,1,,,,,,,,,0,,,99,81
55940,set_tempo,240,1,0,,,,,,530973,,,,,,,
56010,note_on,90,0,1,,,,,,,,,0,,,99,0
56040,note_on,30,0,1,,,,,,,,,0,,,83,82
56130,note_on,90,0,1,,,,,,,,,0,,,83,0
56160,set_tempo,220,1,0,,,,,,528634,,,,,,,
56160,note_on,30,0,1,,,,,,,,,0,,,99,84
56250,note_on,90,0,1,,,,,,,,,0,,,99,0
56280,note_on,30,0,1,,,,,,,,,0,,,84,84
56370,note_on,90,0,1,,,,,,,,,0,,,84,0
56400,note_on,30,0,1,,,,,,,,,0,,,99,85
56490,note_on,90,0,1,,,,,,,,,0,,,99,0
56520,note_on,30,0,1,,,,,,,,,0,,,85,86
56610,note_on,90,0,1,,,,,,,,,0,,,85,0
56640,note_on,30,0,1,,,,,,,,,0,,,99,88
56730,note_on,90,0,1,,,,,,,,,0,,,99,0
56760,note_on,30,0,1,,,,,,,,,0,,,86,88
56850,note_on,90,0,1,,,,,,,,,0,,,86,0
56880,note_on,30,0,1,,,,,,,,,0,,,99,89
56970,note_on,90,0,1,,,,,,,,,0,,,99,0
57000,note_on,30,0,1,,,,,,,,,0,,,87,90
57090,note_on,90,0,1,,,,,,,,,0,,,87,0
57120,note_on,30,0,1,,,,,,,,,0,,,99,90
57210,note_on,90,0,1,,,,,,,,,0,,,99,0
57240,note_on,30,0,1,,,,,,,,,0,,,87,91
57330,note_on,90,0,1,,,,,,,,,0,,,87,0
57360,note_on,30,0,1,,,,,,,,,0,,,99,92
57450,note_on,90,0,1,,,,,,,,,0,,,99,0
57480,note_on,30,0,1,,,,,,,,,0,,,87,90
57570,note_on,90,0,1,,,,,,,,,0,,,87,0
57600,note_on,30,0,1,,,,,,,,,0,,,99,91
57690,note_on,90,0,1,,,,,,,,,0,,,99,0
57720,note_on,30,0,1,,,,,,,,,0,,,87,88
57810,note_on,90,0,1,,,,,,,,,0,,,87,0
57840,note_on,30,0,1,,,,,,,,,0,,,99,91
57930,note_on,90,0,1,,,,,,,,,0,,,99,0
57960,note_on,30,0,1,,,,,,,,,0,,,87,85
58050,note_on,90,0,1,,,,,,,,,0,,,87,0
58080,note_on,30,0,1,,,,,,,,,0,,,99,80
58170,note_on,90,0,1,,,,,,,,,0,,,99,0
58200,note_on,30,0,1,,,,,,,,,0,,,87,68
58290,note_on,90,0,1,,,,,,,,,0,,,87,0
58320,note_on,30,0,1,,,,,,,,,0,,,99,69
58410,note_on,90,0,1,,,,,,,,,0,,,99,0
58440,note_on,30,0,1,,,,,,,,,0,,,87,68
58440,set_tempo,2280,1,0,,,,,,552995,,,,,,,
58530,note_on,90,0,1,,,,,,,,,0,,,87,0
58560,set_tempo,120,1,0,,,,,,535714,,,,,,,
58560,note_on,0,0,1,,,,,,,,,0,,,75,66
58560,control_change,30,0,1,,,,,,,,,0,64,127,,
58680,note_on,120,0,1,,,,,,,,,0,,,87,68
58770,note_on,90,0,1,,,,,,,,,0,,,87,0
58800,note_on,30,0,1,,,,,,,,,0,,,75,0
58800,note_on,0,0,1,,,,,,,,,0,,,99,68
58890,note_on,90,0,1,,,,,,,,,0,,,99,0
58920,set_tempo,360,1,0,,,,,,555556,,,,,,,
58920,note_on,30,0,1,,,,,,,,,0,,,87,68
59010,note_on,90,0,1,,,,,,,,,0,,,87,0
59040,set_tempo,120,1,0,,,,,,535714,,,,,,,
59040,note_on,30,0,1,,,,,,,,,0,,,75,66
59160,note_on,120,0,1,,,,,,,,,0,,,87,62
59250,note_on,90,0,1,,,,,,,,,0,,,87,0
59280,note_on,30,0,1,,,,,,,,,0,,,75,0
59280,note_on,0,0,1,,,,,,,,,0,,,99,62
59370,note_on,90,0,1,,,,,,,,,0,,,99,0
59400,set_tempo,360,1,0,,,,,,552995,,,,,,,
59400,note_on,30,0,1,,,,,,,,,0,,,87,62
59464,control_change,64,0,1,,,,,,,,,0,64,0,,
59490,note_on,26,0,1,,,,,,,,,0,,,87,0
59520,note_on,4110,0,2,,,,,,,,,0,,,63,55
59520,control_change,30,0,1,,,,,,,,,0,64,127,,
59520,set_tempo,120,1,0,,,,,,528634,,,,,,,
59520,note_on,0,0,1,,,,,,,,,0,,,75,68
59540,set_tempo,20,1,0,,,,,,533333,,,,,,,
59610,note_on,90,0,1,,,,,,,,,0,,,75,0
59640,note_on,30,0,1,,,,,,,,,0,,,87,62
59700,note_on,180,0,2,,,,,,,,,0,,,63,0
59730,note_on,90,0,1,,,,,,,,,0,,,87,0
59760,note_on,60,0,2,,,,,,,,,0,,,75,61
59760,note_on,30,0,1,,,,,,,,,0,,,99,53
59850,note_on,90,0,1,,,,,,,,,0,,,99,0
59880,note_on,30,0,1,,,,,,,,,0,,,87,53
59940,note_on,180,0,2,,,,,,,,,0,,,75,0
59970,note_on,90,0,1,,,,,,,,,0,,,87,0
60000,note_on,30,0,1,,,,,,,,,0,,,75,62
60020,set_tempo,480,1,0,,,,,,530973,,,,,,,
60120,note_on,120,0,1,,,,,,,,,0,,,87,53
60210,note_on,90,0,1,,,,,,,,,0,,,87,0
60240,note_on,30,0,1,,,,,,,,,0,,,75,0
60240,note_on,300,0,2,,,,,,,,,0,,,73,57
60240,note_on,0,0,1,,,,,,,,,0,,,99,53
60330,note_on,90,0,1,,,,,,,,,0,,,99,0
60360,note_on,30,0,1,,,,,,,,,0,,,87,53
60420,control_change,60,0,1,,,,,,,,,0,64,0,,
60450,note_on,30,0,1,,,,,,,,,0,,,87,0
60480,note_on,240,0,2,,,,,,,,,0,,,73,0
60480,note_on,0,0,2,,,,,,,,,0,,,56,47
60480,control_change,30,0,1,,,,,,,,,0,64,127,,
60480,note_on,0,0,2,,,,,,,,,0,,,71,60
60480,note_on,0,0,1,,,,,,,,,0,,,75,53
60480,set_tempo,460,1,0,,,,,,528634,,,,,,,
60570,note_on,90,0,1,,,,,,,,,0,,,75,0
60600,note_on,30,0,1,,,,,,,,,0,,,87,53
60690,note_on,90,0,1,,,,,,,,,0,,,87,0
60720,note_on,240,0,2,,,,,,,,,0,,,71,0
60720,note_on,0,0,2,,,,,,,,,0,,,56,0
60720,note_on,0,0,2,,,,,,,,,0,,,71,56
60720,note_on,30,0,1,,,,,,,,,0,,,99,53
60810,note_on,90,0,1,,,,,,,,,0,,,99,0
60840,note_on,30,0,1,,,,,,,,,0,,,87,55
60930,note_on,90,0,1,,,,,,,,,0,,,87,0
60960,note_on,30,0,1,,,,,,,,,0,,,75,57
60960,note_on,240,0,2,,,,,,,,,0,,,71,0
60960,set_tempo,480,1,0,,,,,,538117,,,,,,,
60960,note_on,0,0,2,,,,,,,,,0,,,70,57
61050,note_on,90,0,1,,,,,,,,,0,,,75,0
61080,note_on,30,0,1,,,,,,,,,0,,,87,57
61170,note_on,90,0,1,,,,,,,,,0,,,87,0
61200,note_on,0,0,2,,,,,,,,,0,,,68,60
61200,note_on,0,0,2,,,,,,,,,0,,,59,42
61200,note_on,240,0,2,,,,,,,,,0,,,70,0
61200,set_tempo,240,1,0,,,,,,528634,,,,,,,
61200,note_on,30,0,1,,,,,,,,,0,,,99,60
61290,note_on,90,0,1,,,,,,,,,0,,,99,0
61320,note_on,30,0,1,,,,,,,,,0,,,87,60
61410,note_on,90,0,1,,,,,,,,,0,,,87,0
61440,note_on,0,0,2,,,,,,,,,0,,,59,0
61440,note_on,0,0,2,,,,,,,,,0,,,67,60
61440,note_on,240,0,2,,,,,,,,,0,,,68,0
61440,note_on,30,0,1,,,,,,,,,0,,,75,61
61530,note_on,90,0,1,,,,,,,,,0,,,75,0
61560,note_on,30,0,1,,,,,,,,,0,,,87,62
61650,note_on,90,0,1,,,,,,,,,0,,,87,0
61680,note_on,0,0,2,,,,,,,,,0,,,68,64
61680,note_on,30,0,1,,,,,,,,,0,,,99,64
61680,note_on,240,0,2,,,,,,,,,0,,,67,0
61770,note_on,90,0,1,,,,,,,,,0,,,99,0
61800,note_on,30,0,1,,,,,,,,,0,,,87,64
61821,control_change,21,0,1,,,,,,,,,0,64,0,,
61860,note_on,180,0,2,,,,,,,,,0,,,67,50
61890,note_on,69,0,1,,,,,,,,,0,,,87,0
61920,control_change,30,0,1,,,,,,,,,0,64,127,,
61920,note_on,60,0,2,,,,,,,,,0,,,68,0
61920,set_tempo,720,1,0,,,,,,533333,,,,,,,
61920,note_on,0,0,1,,,,,,,,,0,,,75,67
61920,note_on,0,0,2,,,,,,,,,0,,,70,69
62010,note_on,90,0,1,,,,,,,,,0,,,75,0
62040,note_on,30,0,1,,,,,,,,,0,,,87,67
62130,note_on,90,0,1,,,,,,,,,0,,,87,0
62160,note_on,240,0,2,,,,,,,,,0,,,70,0
62160,note_on,0,0,2,,,,,,,,,0,,,63,60
62160,note_on,0,0,2,,,,,,,,,0,,,67,0
62160,note_on,30,0,1,,,,,,,,,0,,,99,67
62250,note_on,90,0,1,,,,,,,,,0,,,99,0
62280,note_on,30,0,1,,,,,,,,,0,,,87,66
62340,note_on,180,0,2,,,,,,,,,0,,,63,0
62370,note_on,90,0,1,,,,,,,,,0,,,87,0
62400,note_on,60,0,2,,,,,,,,,0,,,63,60
62400,note_on,30,0,1,,,,,,,,,0,,,75,66
62400,set_tempo,480,1,0,,,,,,538117,,,,,,,
62490,note_on,90,0,1,,,,,,,,,0,,,75,0
62520,note_on,30,0,1,,,,,,,,,0,,,87,64
62610,note_on,90,0,1,,,,,,,,,0,,,87,0
62640,set_tempo,240,1,0,,,,,,528634,,,,,,,
62640,note_on,0,0,2,,,,,,,,,0,,,64,63
62640,note_on,0,0,2,,,,,,,,,0,,,55,49
62640,note_on,240,0,2,,,,,,,,,0,,,63,0
62640,note_on,30,0,1,,,,,,,,,0,,,99,64
62730,note_on,90,0,1,,,,,,,,,0,,,99,0
62760,note_on,30,0,1,,,,,,,,,0,,,87,64
62850,note_on,90,0,1,,,,,,,,,0,,,87,0
62880,note_on,0,0,2,,,,,,,,,0,,,55,0
62880,note_on,0,0,2,,,,,,,,,0,,,63,58
62880,note_on,30,0,1,,,,,,,,,0,,,75,63
62880,note_on,240,0,2,,,,,,,,,0,,,64,0
62970,note_on,90,0,1,,,,,,,,,0,,,75,0
63000,note_on,30,0,1,,,,,,,,,0,,,87,63
63090,note_on,90,0,1,,,,,,,,,0,,,87,0
63120,note_on,240,0,2,,,,,,,,,0,,,63,0
63120,note_on,30,0,1,,,,,,,,,0,,,99,61
63120,note_on,0,0,2,,,,,,,,,0,,,61,58
63210,note_on,90,0,1,,,,,,,,,0,,,99,0
63240,note_on,30,0,1,,,,,,,,,0,,,87,61
63268,control_change,28,0,1,,,,,,,,,0,64,0,,
63330,note_on,62,0,1,,,,,,,,,0,,,87,0
63360,note_on,0,0,1,,,,,,,,,0,,,75,61
63360,control_change,30,0,1,,,,,,,,,0,64,127,,
63360,note_on,0,0,2,,,,,,,,,0,,,59,61
63360,note_on,0,0,2,,,,,,,,,0,,,56,49
63360,note_on,240,0,2,,,,,,,,,0,,,61,0
63450,note_on,90,0,1,,,,,,,,,0,,,75,0
63480,note_on,30,0,1,,,,,,,,,0,,,87,61
63570,note_on,210,0,2,,,,,,,,,0,,,59,0
63570,note_on,90,0,1,,,,,,,,,0,,,87,0
63600,note_on,0,0,2,,,,,,,,,0,,,59,56
63600,note_on,30,0,2,,,,,,,,,0,,,56,0
63600,note_on,30,0,1,,,,,,,,,0,,,99,61
63690,note_on,90,0,1,,,,,,,,,0,,,99,0
63720,note_on,30,0,1,,,,,,,,,0,,,87,58
63810,note_on,90,0,1,,,,,,,,,0,,,87,0
63840,note_on,30,0,1,,,,,,,,,0,,,75,58
63840,note_on,0,0,2,,,,,,,,,0,,,58,55
63840,note_on,240,0,2,,,,,,,,,0,,,59,0
63930,note_on,90,0,1,,,,,,,,,0,,,75,0
63960,note_on,30,0,1,,,,,,,,,0,,,87,57
64020,note_on,180,0,2,,,,,,,,,0,,,52,51
64050,note_on,90,0,1,,,,,,,,,0,,,87,0
64080,set_tempo,1440,1,0,,,,,,519481,,,,,,,
64080,note_on,0,0,2,,,,,,,,,0,,,56,61
64080,note_on,30,0,1,,,,,,,,,0,,,99,53
64080,note_on,60,0,2,,,,,,,,,0,,,58,0
64170,note_on,90,0,1,,,,,,,,,0,,,99,0
64200,note_on,30,0,1,,,,,,,,,0,,,87,53
64290,note_on,90,0,1,,,,,,,,,0,,,87,0
64320,note_on,30,0,1,,,,,,,,,0,,,75,52
64320,note_on,0,0,2,,,,,,,,,0,,,55,56
64320,note_on,0,0,2,,,,,,,,,0,,,52,0
64320,note_on,240,0,2,,,,,,,,,0,,,56,0
64410,note_on,90,0,1,,,,,,,,,0,,,75,0
64440,note_on,30,0,1,,,,,,,,,0,,,87,51
64440,set_tempo,360,1,0,,,,,,512821,,,,,,,
64530,note_on,90,0,1,,,,,,,,,0,,,87,0
64560,note_on,0,0,2,,,,,,,,,0,,,56,53
64560,set_tempo,120,1,0,,,,,,533333,,,,,,,
64560,note_on,30,0,1,,,,,,,,,0,,,99,50
64560,note_on,240,0,2,,,,,,,,,0,,,55,0
64650,note_on,90,0,1,,,,,,,,,0,,,99,0
64680,note_on,30,0,1,,,,,,,,,0,,,87,49
64701,control_change,21,0,1,,,,,,,,,0,64,0,,
64770,note_on,69,0,1,,,,,,,,,0,,,87,0
64800,note_on,240,0,2,,,,,,,,,0,,,56,0
64800,control_change,30,0,1,,,,,,,,,0,64,127,,
64800,note_on,0,0,2,,,,,,,,,0,,,58,56
64800,note_on,0,0,2,,,,,,,,,0,,,55,45
64800,note_on,0,0,1,,,,,,,,,0,,,75,53
64800,set_tempo,240,1,0,,,,,,528634,,,,,,,
64890,note_on,90,0,1,,,,,,,,,0,,,75,0
64920,note_on,30,0,1,,,,,,,,,0,,,87,53
65010,note_on,90,0,1,,,,,,,,,0,,,87,0
65040,note_on,0,0,2,,,,,,,,,0,,,51,50
65040,note_on,240,0,2,,,,,,,,,0,,,58,0
65040,note_on,0,0,2,,,,,,,,,0,,,55,0
65040,note_on,30,0,1,,,,,,,,,0,,,99,53
65130,note_on,90,0,1,,,,,,,,,0,,,99,0
65160,note_on,30,0,1,,,,,,,,,0,,,87,53
65160,note_on,120,0,2,,,,,,,,,0,,,51,0
65250,note_on,90,0,1,,,,,,,,,0,,,87,0
65280,note_on,30,0,1,,,,,,,,,0,,,75,53
65370,note_on,90,0,1,,,,,,,,,0,,,75,0
65400,set_tempo,600,1,0,,,,,,560748,,,,,,,
65400,note_on,30,0,1,,,,,,,,,0,,,87,53
65460,note_on,300,0,2,,,,,,,,,0,,,63,64
65490,note_on,90,0,1,,,,,,,,,0,,,87,0
65520,set_tempo,120,1,0,,,,,,526316,,,,,,,
65520,note_on,60,0,2,,,,,,,,,0,,,63,0
65531,note_on,11,0,2,,,,,,,,,0,,,75,63
65531,note_on,41,0,1,,,,,,,,,0,,,99,53
65621,note_on,90,0,1,,,,,,,,,0,,,99,0
65651,note_on,30,0,1,,,,,,,,,0,,,87,53
65711,note_on,180,0,2,,,,,,,,,0,,,75,0
65741,note_on,90,0,1,,,,,,,,,0,,,87,0
65760,set_tempo,240,1,0,,,,,,524017,,,,,,,
65771,note_on,30,0,1,,,,,,,,,0,,,75,62
65891,note_on,120,0,1,,,,,,,,,0,,,87,53
65981,note_on,90,0,1,,,,,,,,,0,,,87,0
66011,note_on,300,0,2,,,,,,,,,0,,,73,57
66011,note_on,30,0,1,,,,,,,,,0,,,75,0
66011,note_on,0,0,1,,,,,,,,,0,,,99,53
66101,note_on,90,0,1,,,,,,,,,0,,,99,0
66131,note_on,30,0,1,,,,,,,,,0,,,87,53
66191,control_change,60,0,1,,,,,,,,,0,64,0,,
66221,note_on,30,0,1,,,,,,,,,0,,,87,0
66240,note_on,19,0,1,,,,,,,,,0,,,75,53
66240,note_on,0,0,2,,,,,,,,,0,,,71,60
66240,note_on,229,0,2,,,,,,,,,0,,,56,47
66251,note_on,11,0,2,,,,,,,,,0,,,73,0
66251,set_tempo,491,1,0,,,,,,528634,,,,,,,
66251,control_change,11,0,1,,,,,,,,,0,64,127,,
66330,note_on,79,0,1,,,,,,,,,0,,,75,0
66360,note_on,30,0,1,,,,,,,,,0,,,87,53
66450,note_on,90,0,1,,,,,,,,,0,,,87,0
66480,note_on,0,0,2,,,,,,,,,0,,,56,0
66480,note_on,30,0,1,,,,,,,,,0,,,99,53
66480,note_on,229,0,2,,,,,,,,,0,,,71,0
66480,note_on,0,0,2,,,,,,,,,0,,,71,56
66570,note_on,90,0,1,,,,,,,,,0,,,99,0
66600,note_on,30,0,1,,,,,,,,,0,,,87,55
66690,note_on,90,0,1,,,,,,,,,0,,,87,0
66720,note_on,30,0,1,,,,,,,,,0,,,75,57
66720,note_on,240,0,2,,,,,,,,,0,,,71,0
66720,note_on,0,0,2,,,,,,,,,0,,,70,57
66731,set_tempo,480,1,0,,,,,,538117,,,,,,,
66810,note_on,90,0,1,,,,,,,,,0,,,75,0
66851,note_on,41,0,1,,,,,,,,,0,,,87,57
66941,note_on,90,0,1,,,,,,,,,0,,,87,0
66960,note_on,0,0,2,,,,,,,,,0,,,59,42
66960,note_on,0,0,2,,,,,,,,,0,,,68,60
66960,note_on,240,0,2,,,,,,,,,0,,,70,0
66960,note_on,19,0,1,,,,,,,,,0,,,99,60
66971,set_tempo,240,1,0,,,,,,528634,,,,,,,
67050,note_on,90,0,1,,,,,,,,,0,,,99,0
67080,note_on,30,0,1,,,,,,,,,0,,,87,60
67170,note_on,90,0,1,,,,,,,,,0,,,87,0
67200,note_on,240,0,2,,,,,,,,,0,,,68,0
67200,note_on,30,0,1,,,,,,,,,0,,,75,61
67200,note_on,0,0,2,,,,,,,,,0,,,67,60
67200,note_on,0,0,2,,,,,,,,,0,,,59,0
67290,note_on,90,0,1,,,,,,,,,0,,,75,0
67320,note_on,30,0,1,,,,,,,,,0,,,87,62
67410,note_on,90,0,1,,,,,,,,,0,,,87,0
67440,note_on,240,0,2,,,,,,,,,0,,,67,0
67440,note_on,30,0,1,,,,,,,,,0,,,99,64
67440,note_on,0,0,2,,,,,,,,,0,,,68,64
67530,note_on,90,0,1,,,,,,,,,0,,,99,0
67560,note_on,30,0,1,,,,,,,,,0,,,87,64
67592,control_change,32,0,1,,,,,,,,,0,64,0,,
67650,note_on,58,0,1,,,,,,,,,0,,,87,0
67680,note_on,240,0,2,,,,,,,,,0,,,68,0
67680,note_on,30,0,1,,,,,,,,,0,,,75,67
67680,note_on,0,0,2,,,,,,,,,0,,,70,69
67680,note_on,0,0,2,,,,,,,,,0,,,67,45
67691,set_tempo,720,1,0,,,,,,533333,,,,,,,
67691,control_change,11,0,1,,,,,,,,,0,64,127,,
67770,note_on,79,0,1,,,,,,,,,0,,,75,0
67800,note_on,30,0,1,,,,,,,,,0,,,87,67
67890,note_on,90,0,1,,,,,,,,,0,,,87,0
67920,note_on,240,0,2,,,,,,,,,0,,,67,0
67920,note_on,0,0,2,,,,,,,,,0,,,70,0
67920,note_on,0,0,2,,,,,,,,,0,,,63,60
67920,note_on,30,0,1,,,,,,,,,0,,,99,67
68010,note_on,90,0,1,,,,,,,,,0,,,99,0
68040,note_on,30,0,1,,,,,,,,,0,,,87,66
68100,note_on,180,0,2,,,,,,,,,0,,,63,0
68130,note_on,90,0,1,,,,,,,,,0,,,87,0
68160,note_on,30,0,1,,,,,,,,,0,,,75,66
68171,set_tempo,480,1,0,,,,,,538117,,,,,,,
68250,note_on,90,0,1,,,,,,,,,0,,,75,0
68280,note_on,30,0,1,,,,,,,,,0,,,87,64
68347,control_change,67,0,1,,,,,,,,,0,64,0,,
68370,note_on,23,0,1,,,,,,,,,0,,,87,0
68400,note_on,300,0,2,,,,,,,,,0,,,61,51
68400,note_on,30,0,1,,,,,,,,,0,,,76,60
68400,note_on,0,0,2,,,,,,,,,0,,,70,50
68400,note_on,0,0,2,,,,,,,,,0,,,68,45
68411,set_tempo,240,1,0,,,,,,528634,,,,,,,
68520,note_on,120,0,1,,,,,,,,,0,,,87,60
68640,note_on,0,0,2,,,,,,,,,0,,,61,0
68640,note_on,0,0,2,,,,,,,,,0,,,63,49
68640,note_on,120,0,1,,,,,,,,,0,,,87,0
68640,note_on,0,0,2,,,,,,,,,0,,,70,0
68640,note_on,0,0,2,,,,,,,,,0,,,70,48
68640,note_on,0,0,2,,,,,,,,,0,,,68,42
68640,note_on,240,0,2,,,,,,,,,0,,,68,0
68640,note_on,0,0,1,,,,,,,,,0,,,75,56
68640,note_on,0,0,1,,,,,,,,,0,,,76,0
68760,note_on,120,0,1,,,,,,,,,0,,,87,56
68880,note_on,0,0,2,,,,,,,,,0,,,70,0
68880,note_on,120,0,1,,,,,,,,,0,,,87,0
68880,note_on,0,0,2,,,,,,,,,0,,,70,48
68880,note_on,0,0,1,,,,,,,,,0,,,73,56
68880,note_on,0,0,1,,,,,,,,,0,,,75,0
68880,note_on,240,0,2,,,,,,,,,0,,,68,0
68880,note_on,0,0,2,,,,,,,,,0,,,68,42
68880,note_on,0,0,2,,,,,,,,,0,,,64,49
68880,note_on,0,0,2,,,,,,,,,0,,,63,0
69000,note_on,120,0,1,,,,,,,,,0,,,87,56
69000,set_tempo,589,1,0,,,,,,542986,,,,,,,
69120,note_on,0,0,1,,,,,,,,,0,,,75,66
69120,note_on,120,0,1,,,,,,,,,0,,,87,0
69120,note_on,0,0,1,,,,,,,,,0,,,73,0
69120,set_tempo,120,1,0,,,,,,533333,,,,,,,
69120,note_on,240,0,2,,,,,,,,,0,,,68,0
69120,note_on,0,0,2,,,,,,,,,0,,,71,56
69120,note_on,0,0,2,,,,,,,,,0,,,70,0
69120,note_on,0,0,2,,,,,,,,,0,,,63,49
69120,note_on,0,0,2,,,,,,,,,0,,,64,0
69120,note_on,0,0,2,,,,,,,,,0,,,68,49
69240,note_on,120,0,1,,,,,,,,,0,,,87,60
69360,note_on,0,0,2,,,,,,,,,0,,,63,0
69360,note_on,240,0,2,,,,,,,,,0,,,71,0
69360,note_on,120,0,1,,,,,,,,,0,,,87,0
69360,note_on,0,0,1,,,,,,,,,0,,,75,0
69360,note_on,0,0,1,,,,,,,,,0,,,80,60
69360,note_on,0,0,2,,,,,,,,,0,,,68,0
69450,note_on,90,0,1,,,,,,,,,0,,,80,0
69480,set_tempo,360,1,0,,,,,,526316,,,,,,,
69480,note_on,30,0,1,,,,,,,,,0,,,83,60
69570,note_on,90,0,1,,,,,,,,,0,,,83,0
69600,note_on,30,0,1,,,,,,,,,0,,,87,67
69600,set_tempo,120,1,0,,,,,,508475,,,,,,,
69720,note_on,120,0,1,,,,,,,,,0,,,99,60
69720,set_tempo,120,1,0,,,,,,545455,,,,,,,
69840,note_on,480,0,2,,,,,,,,,0,,,63,47
69840,set_tempo,120,1,0,,,,,,538117,,,,,,,
69840,note_on,120,0,1,,,,,,,,,0,,,99,0
69840,note_on,0,0,2,,,,,,,,,0,,,67,47
69840,note_on,0,0,1,,,,,,,,,0,,,87,0
69840,note_on,0,0,1,,,,,,,,,0,,,75,66
69840,note_on,0,0,2,,,,,,,,,0,,,73,52
69960,note_on,120,0,1,,,,,,,,,0,,,87,60
70080,note_on,0,0,1,,,,,,,,,0,,,79,60
70080,note_on,0,0,1,,,,,,,,,0,,,75,0
70080,note_on,120,0,1,,,,,,,,,0,,,87,0
70080,note_on,240,0,2,,,,,,,,,0,,,73,0
70080,note_on,0,0,2,,,,,,,,,0,,,63,0
70080,note_on,0,0,2,,,,,,,,,0,,,67,0
70170,note_on,90,0,1,,,,,,,,,0,,,79,0
70200,note_on,30,0,1,,,,,,,,,0,,,82,60
70290,note_on,90,0,1,,,,,,,,,0,,,82,0
70320,set_tempo,480,1,0,,,,,,521739,,,,,,,
70320,note_on,30,0,1,,,,,,,,,0,,,87,67
70440,note_on,120,0,1,,,,,,,,,0,,,99,60
70440,set_tempo,120,1,0,,,,,,574163,,,,,,,
70560,note_on,120,0,1,,,,,,,,,0,,,99,0
70560,note_on,0,0,2,,,,,,,,,0,,,56,58
70560,set_tempo,120,1,0,,,,,,576923,,,,,,,
70560,control_change,480,0,2,,,,,,,,,0,64,127,,
70560,note_on,0,0,1,,,,,,,,,0,,,87,0
70580,set_tempo,20,1,0,,,,,,576923,,,,,,,
70640,set_tempo,60,1,0,,,,,,574163,,,,,,,
70650,note_on,90,0,2,,,,,,,,,0,,,56,0
70680,set_tempo,40,1,0,,,,,,571429,,,,,,,
70680,note_on,30,0,2,,,,,,,,,0,,,63,53
70720,set_tempo,40,1,0,,,,,,568720,,,,,,,
70760,set_tempo,40,1,0,,,,,,566038,,,,,,,
70770,note_on,90,0,2,,,,,,,,,0,,,63,0
70800,set_tempo,40,1,0,,,,,,563380,,,,,,,
70800,note_on,30,0,2,,,,,,,,,0,,,71,53
70840,set_tempo,40,1,0,,,,,,560748,,,,,,,
70880,set_tempo,40,1,0,,,,,,558140,,,,,,,
70890,note_on,90,0,2,,,,,,,,,0,,,71,0
70920,note_on,30,0,2,,,,,,,,,0,,,80,53
70920,set_tempo,40,1,0,,,,,,555556,,,,,,,
70960,set_tempo,40,1,0,,,,,,552995,,,,,,,
71000,set_tempo,40,1,0,,,,,,550459,,,,,,,
71010,note_on,90,0,2,,,,,,,,,0,,,80,0
71040,note_on,480,0,1,,,,,,,,,0,,,75,55
71040,set_tempo,40,1,0,,,,,,547945,,,,,,,
71080,set_tempo,40,1,0,,,,,,545455,,,,,,,
71120,note_on,0,0,1,,,,,,,,,0,,,87,55
71120,note_on,80,0,1,,,,,,,,,0,,,75,0
71120,set_tempo,40,1,0,,,,,,542986,,,,,,,
71140,set_tempo,20,1,0,,,,,,540541,,,,,,,
71160,set_tempo,20,1,0,,,,,,538117,,,,,,,
71180,set_tempo,20,1,0,,,,,,535714,,,,,,,
71200,set_tempo,20,1,0,,,,,,533333,,,,,,,
71200,note_on,0,0,1,,,,,,,,,0,,,87,55
71200,note_on,80,0,1,,,,,,,,,0,,,87,0
71220,set_tempo,20,1,0,,,,,,530973,,,,,,,
71241,control_change,231,0,2,,,,,,,,,0,64,0,,
71260,set_tempo,40,1,0,,,,,,540541,,,,,,,
71280,note_on,0,0,1,,,,,,,,,0,,,87,58
71280,note_on,80,0,1,,,,,,,,,0,,,87,0
71360,note_on,0,0,1,,,,,,,,,0,,,87,58
71360,note_on,80,0,1,,,,,,,,,0,,,87,0
71440,note_on,0,0,1,,,,,,,,,0,,,99,58
71440,note_on,80,0,1,,,,,,,,,0,,,87,0
71460,set_tempo,200,1,0,,,,,,538117,,,,,,,
71520,note_on,80,0,1,,,,,,,,,0,,,99,0
71520,note_on,0,0,1,,,,,,,,,0,,,87,58
71600,note_on,0,0,1,,,,,,,,,0,,,87,58
71600,note_on,80,0,1,,,,,,,,,0,,,87,0
71640,set_tempo,180,1,0,,,,,,535714,,,,,,,
71680,note_on,80,0,1,,,,,,,,,0,,,87,0
71680,note_on,0,0,1,,,,,,,,,0,,,99,58
71760,note_on,80,0,1,,,,,,,,,0,,,99,0
71760,note_on,0,0,1,,,,,,,,,0,,,85,58
71820,set_tempo,180,1,0,,,,,,533333,,,,,,,
71840,note_on,0,0,1,,,,,,,,,0,,,85,58
71840,note_on,80,0,1,,,,,,,,,0,,,85,0
71920,note_on,80,0,1,,,,,,,,,0,,,85,0
71920,note_on,0,0,1,,,,,,,,,0,,,97,58
72000,note_on,80,0,1,,,,,,,,,0,,,97,0
72000,control_change,759,0,2,,,,,,,,,0,64,127,,
72000,set_tempo,180,1,0,,,,,,530973,,,,,,,
72000,note_on,0,0,2,,,,,,,,,0,,,44,61
72000,note_on,0,0,1,,,,,,,,,0,,,83,61
72080,note_on,0,0,1,,,,,,,,,0,,,83,61
72080,note_on,80,0,1,,,,,,,,,0,,,83,0
72160,note_on,80,0,1,,,,,,,,,0,,,83,0
72160,note_on,0,0,1,,,,,,,,,0,,,95,61
72240,note_on,0,0,2,,,,,,,,,0,,,51,49
72240,note_on,80,0,1,,,,,,,,,0,,,95,0
72240,note_on,0,0,1,,,,,,,,,0,,,83,60
72240,note_on,0,0,2,,,,,,,,,0,,,59,56
72240,note_on,240,0,2,,,,,,,,,0,,,44,0
72320,note_on,80,0,1,,,,,,,,,0,,,83,0
72320,note_on,0,0,1,,,,,,,,,0,,,83,60
72400,note_on,0,0,1,,,,,,,,,0,,,95,60
72400,note_on,80,0,1,,,,,,,,,0,,,83,0
72480,note_on,0,0,2,,,,,,,,,0,,,59,56
72480,note_on,80,0,1,,,,,,,,,0,,,95,0
72480,note_on,0,0,2,,,,,,,,,0,,,51,49
72480,note_on,0,0,2,,,,,,,,,0,,,59,0
72480,note_on,0,0,1,,,,,,,,,0,,,82,58
72480,set_tempo,480,1,0,,,,,,524017,,,,,,,
72480,note_on,240,0,2,,,,,,,,,0,,,51,0
72560,note_on,80,0,1,,,,,,,,,0,,,82,0
72560,note_on,0,0,1,,,,,,,,,0,,,82,58
72640,note_on,0,0,1,,,,,,,,,0,,,94,58
72640,note_on,80,0,1,,,,,,,,,0,,,82,0
72651,control_change,171,0,2,,,,,,,,,0,64,0,,
72720,control_change,0,0,2,,,,,,,,,0,64,127,,
72720,note_on,69,0,2,,,,,,,,,0,,,59,0
72720,note_on,0,0,1,,,,,,,,,0,,,80,60
72720,set_tempo,240,1,0,,,,,,530973,,,,,,,
72720,note_on,80,0,1,,,,,,,,,0,,,94,0
72720,note_on,0,0,2,,,,,,,,,0,,,51,0
72720,note_on,0,0,2,,,,,,,,,0,,,47,61
72800,note_on,80,0,1,,,,,,,,,0,,,80,0
72800,note_on,0,0,1,,,,,,,,,0,,,80,60
72880,note_on,80,0,1,,,,,,,,,0,,,80,0
72880,note_on,0,0,1,,,,,,,,,0,,,92,60
72960,note_on,240,0,2,,,,,,,,,0,,,47,0
72960,set_tempo,240,1,0,,,,,,526316,,,,,,,
72960,note_on,0,0,2,,,,,,,,,0,,,63,56
72960,note_on,0,0,2,,,,,,,,,0,,,56,49
72960,note_on,0,0,1,,,,,,,,,0,,,79,58
72960,note_on,80,0,1,,,,,,,,,0,,,92,0
73040,note_on,80,0,1,,,,,,,,,0,,,79,0
73040,note_on,0,0,1,,,,,,,,,0,,,79,58
73120,note_on,80,0,1,,,,,,,,,0,,,79,0
73120,note_on,0,0,1,,,,,,,,,0,,,91,58
73200,note_on,0,0,2,,,,,,,,,0,,,56,49
73200,note_on,240,0,2,,,,,,,,,0,,,56,0
73200,note_on,80,0,1,,,,,,,,,0,,,91,0
73200,set_tempo,240,1,0,,,,,,526316,,,,,,,
73200,note_on,0,0,1,,,,,,,,,0,,,80,58
73200,note_on,0,0,2,,,,,,,,,0,,,63,56
73200,note_on,0,0,2,,,,,,,,,0,,,63,0
73280,note_on,0,0,1,,,,,,,,,0,,,80,58
73280,note_on,80,0,1,,,,,,,,,0,,,80,0
73360,note_on,80,0,1,,,,,,,,,0,,,80,0
73360,note_on,0,0,1,,,,,,,,,0,,,92,58
73391,control_change,191,0,2,,,,,,,,,0,64,0,,
73440,note_on,0,0,2,,,,,,,,,0,,,51,61
73440,note_on,0,0,2,,,,,,,,,0,,,56,0
73440,set_tempo,240,1,0,,,,,,538117,,,,,,,
73440,note_on,0,0,1,,,,,,,,,0,,,82,60
73440,control_change,0,0,2,,,,,,,,,0,64,127,,
73440,note_on,80,0,1,,,,,,,,,0,,,92,0
73440,note_on,49,0,2,,,,,,,,,0,,,63,0
73520,note_on,0,0,1,,,,,,,,,0,,,82,60
73520,note_on,80,0,1,,,,,,,,,0,,,82,0
73600,note_on,0,0,1,,,,,,,,,0,,,94,60
73600,note_on,80,0,1,,,,,,,,,0,,,82,0
73680,note_on,0,0,2,,,,,,,,,0,,,67,53
73680,note_on,0,0,2,,,,,,,,,0,,,58,48
73680,note_on,0,0,1,,,,,,,,,0,,,75,56
73680,note_on,80,0,1,,,,,,,,,0,,,94,0
73680,note_on,240,0,2,,,,,,,,,0,,,51,0
73760,note_on,0,0,1,,,,,,,,,0,,,75,56
73760,note_on,80,0,1,,,,,,,,,0,,,75,0
73840,note_on,80,0,1,,,,,,,,,0,,,75,0
73840,note_on,0,0,1,,,,,,,,,0,,,87,53
73920,note_on,80,0,1,,,,,,,,,0,,,87,0
73920,set_tempo,480,1,0,,,,,,533333,,,,,,,
73920,note_on,0,0,1,,,,,,,,,0,,,75,53
73920,note_on,240,0,2,,,,,,,,,0,,,58,0
73920,note_on,0,0,2,,,,,,,,,0,,,67,53
73920,note_on,0,0,2,,,,,,,,,0,,,58,48
73920,note_on,0,0,2,,,,,,,,,0,,,67,0
74000,note_on,0,0,1,,,,,,,,,0,,,75,53
74000,note_on,80,0,1,,,,,,,,,0,,,75,0
74029,control_change,109,0,2,,,,,,,,,0,64,0,,
74080,note_on,0,0,1,,,,,,,,,0,,,87,53
74080,note_on,80,0,1,,,,,,,,,0,,,75,0
74160,note_on,80,0,1,,,,,,,,,0,,,87,0
74160,note_on,0,0,1,,,,,,,,,0,,,76,56
74160,note_on,0,0,2,,,,,,,,,0,,,55,56
74160,set_tempo,240,1,0,,,,,,530973,,,,,,,
74160,control_change,0,0,2,,,,,,,,,0,64,127,,
74160,note_on,0,0,2,,,,,,,,,0,,,67,0
74160,note_on,131,0,2,,,,,,,,,0,,,58,0
74240,note_on,80,0,1,,,,,,,,,0,,,76,0
74240,note_on,0,0,1,,,,,,,,,0,,,76,56
74320,note_on,80,0,1,,,,,,,,,0,,,76,0
74320,note_on,0,0,1,,,,,,,,,0,,,88,56
74400,note_on,80,0,1,,,,,,,,,0,,,88,0
74400,note_on,240,0,2,,,,,,,,,0,,,55,0
74400,note_on,0,0,1,,,,,,,,,0,,,75,53
74400,note_on,0,0,2,,,,,,,,,0,,,63,45
74400,note_on,0,0,2,,,,,,,,,0,,,70,50
74480,note_on,0,0,1,,,,,,,,,0,,,75,53
74480,note_on,80,0,1,,,,,,,,,0,,,75,0
74560,note_on,80,0,1,,,,,,,,,0,,,75,0
74560,note_on,0,0,1,,,,,,,,,0,,,87,53
74640,note_on,0,0,2,,,,,,,,,0,,,70,50
74640,note_on,240,0,2,,,,,,,,,0,,,63,0
74640,note_on,80,0,1,,,,,,,,,0,,,87,0
74640,note_on,0,0,1,,,,,,,,,0,,,73,53
74640,note_on,0,0,2,,,,,,,,,0,,,70,0
74640,note_on,0,0,2,,,,,,,,,0,,,63,45
74720,note_on,0,0,1,,,,,,,,,0,,,73,53
74720,note_on,80,0,1,,,,,,,,,0,,,73,0
74800,note_on,0,0,1,,,,,,,,,0,,,85,53
74800,note_on,80,0,1,,,,,,,,,0,,,73,0
74806,control_change,166,0,2,,,,,,,,,0,64,0,,
74880,note_on,0,0,2,,,,,,,,,0,,,63,0
74880,note_on,0,0,2,,,,,,,,,0,,,56,53
74880,note_on,74,0,2,,,,,,,,,0,,,70,0
74880,note_on,0,0,1,,,,,,,,,0,,,71,56
74880,control_change,0,0,2,,,,,,,,,0,64,127,,
74880,note_on,80,0,1,,,,,,,,,0,,,85,0
74960,note_on,0,0,1,,,,,,,,,0,,,71,56
74960,note_on,80,0,1,,,,,,,,,0,,,71,0
75040,note_on,80,0,1,,,,,,,,,0,,,71,0
75040,note_on,0,0,1,,,,,,,,,0,,,83,56
75120,note_on,240,0,2,,,,,,,,,0,,,56,0
75120,note_on,0,0,1,,,,,,,,,0,,,71,53
75120,note_on,0,0,2,,,,,,,,,0,,,68,49
75120,note_on,0,0,2,,,,,,,,,0,,,63,44
75120,note_on,80,0,1,,,,,,,,,0,,,83,0
75200,note_on,80,0,1,,,,,,,,,0,,,71,0
75200,note_on,0,0,1,,,,,,,,,0,,,71,53
75280,note_on,80,0,1,,,,,,,,,0,,,71,0
75280,note_on,0,0,1,,,,,,,,,0,,,83,53
75360,note_on,80,0,1,,,,,,,,,0,,,83,0
75360,note_on,0,0,2,,,,,,,,,0,,,63,44
75360,note_on,0,0,1,,,,,,,,,0,,,70,53
75360,note_on,0,0,2,,,,,,,,,0,,,68,49
75360,note_on,0,0,2,,,,,,,,,0,,,68,0
75360,note_on,240,0,2,,,,,,,,,0,,,63,0
75440,note_on,0,0,1,,,,,,,,,0,,,70,53
75440,note_on,80,0,1,,,,,,,,,0,,,70,0
75480,set_tempo,1320,1,0,,,,,,540541,,,,,,,
75503,control_change,143,0,2,,,,,,,,,0,64,0,,
75520,note_on,80,0,1,,,,,,,,,0,,,70,0
75520,note_on,0,0,1,,,,,,,,,0,,,82,53
75600,note_on,80,0,1,,,,,,,,,0,,,82,0
75600,set_tempo,120,1,0,,,,,,530973,,,,,,,
75600,note_on,97,0,2,,,,,,,,,0,,,68,0
75600,note_on,0,0,2,,,,,,,,,0,,,63,0
75600,note_on,0,0,2,,,,,,,,,0,,,59,55
75600,note_on,0,0,1,,,,,,,,,0,,,68,55
75600,control_change,0,0,2,,,,,,,,,0,64,127,,
75680,note_on,80,0,1,,,,,,,,,0,,,68,0
75680,note_on,0,0,1,,,,,,,,,0,,,68,55
75760,note_on,0,0,1,,,,,,,,,0,,,80,55
75760,note_on,80,0,1,,,,,,,,,0,,,68,0
75840,set_tempo,240,1,0,,,,,,526316,,,,,,,
75840,note_on,0,0,2,,,,,,,,,0,,,62,40
75840,note_on,80,0,1,,,,,,,,,0,,,80,0
75840,note_on,0,0,2,,,,,,,,,0,,,65,46
75840,note_on,240,0,2,,,,,,,,,0,,,59,0
75840,note_on,0,0,1,,,,,,,,,0,,,67,53
75920,note_on,0,0,1,,,,,,,,,0,,,67,53
75920,note_on,80,0,1,,,,,,,,,0,,,67,0
76000,note_on,0,0,1,,,,,,,,,0,,,79,53
76000,note_on,80,0,1,,,,,,,,,0,,,67,0
76080,note_on,0,0,2,,,,,,,,,0,,,65,46
76080,note_on,80,0,1,,,,,,,,,0,,,79,0
76080,note_on,0,0,2,,,,,,,,,0,,,62,40
76080,note_on,0,0,2,,,,,,,,,0,,,62,0
76080,set_tempo,240,1,0,,,,,,526316,,,,,,,
76080,note_on,0,0,1,,,,,,,,,0,,,68,53
76080,note_on,240,0,2,,,,,,,,,0,,,65,0
76160,note_on,80,0,1,,,,,,,,,0,,,68,0
76160,note_on,0,0,1,,,,,,,,,0,,,68,53
76240,note_on,80,0,1,,,,,,,,,0,,,68,0
76240,note_on,0,0,1,,,,,,,,,0,,,80,53
76266,control_change,186,0,2,,,,,,,,,0,64,0,,
76320,note_on,54,0,2,,,,,,,,,0,,,65,0
76320,set_tempo,240,1,0,,,,,,542986,,,,,,,
76320,note_on,0,0,1,,,,,,,,,0,,,70,56
76320,control_change,0,0,2,,,,,,,,,0,64,127,,
76320,note_on,0,0,2,,,,,,,,,0,,,62,0
76320,note_on,0,0,2,,,,,,,,,0,,,51,52
76320,note_on,80,0,1,,,,,,,,,0,,,80,0
76400,note_on,80,0,1,,,,,,,,,0,,,70,0
76400,note_on,0,0,1,,,,,,,,,0,,,70,56
76480,note_on,80,0,1,,,,,,,,,0,,,70,0
76480,note_on,0,0,1,,,,,,,,,0,,,82,56
76540,set_tempo,220,1,0,,,,,,540541,,,,,,,
76560,note_on,80,0,1,,,,,,,,,0,,,82,0
76560,note_on,240,0,2,,,,,,,,,0,,,51,0
76560,note_on,0,0,2,,,,,,,,,0,,,67,42
76560,note_on,0,0,2,,,,,,,,,0,,,58,38
76560,note_on,0,0,1,,,,,,,,,0,,,63,53
76620,set_tempo,80,1,0,,,,,,542986,,,,,,,
76640,note_on,0,0,1,,,,,,,,,0,,,63,53
76640,note_on,80,0,1,,,,,,,,,0,,,63,0
76700,set_tempo,80,1,0,,,,,,545455,,,,,,,
76720,note_on,0,0,1,,,,,,,,,0,,,75,48
76720,note_on,80,0,1,,,,,,,,,0,,,63,0
76758,control_change,198,0,2,,,,,,,,,0,64,0,,
76780,set_tempo,80,1,0,,,,,,547945,,,,,,,
76800,note_on,42,0,2,,,,,,,,,0,,,58,0
76800,note_on,80,0,1,,,,,,,,,0,,,75,0
76800,note_on,0,0,2,,,,,,,,,0,,,67,0
76800,note_on,0,0,1,,,,,,,,,0,,,75,50
76860,set_tempo,80,1,0,,,,,,550459,,,,,,,
76880,note_on,0,0,1,,,,,,,,,0,,,75,50
76880,note_on,80,0,1,,,,,,,,,0,,,75,0
76940,set_tempo,80,1,0,,,,,,552995,,,,,,,
76960,note_on,80,0,1,,,,,,,,,0,,,75,0
76960,note_on,0,0,1,,,,,,,,,0,,,75,50
77000,set_tempo,60,1,0,,,,,,555556,,,,,,,
77020,set_tempo,20,1,0,,,,,,563380,,,,,,,
77036,set_tempo,16,1,0,,,,,,600000,,,,,,,
77040,note_on,0,0,1,,,,,,,,,0,,,87,58
77040,note_on,80,0,1,,,,,,,,,0,,,75,0
77120,note_on,80,0,1,,,,,,,,,0,,,87,0
77120,note_on,0,0,1,,,,,,,,,0,,,87,58
77200,note_on,0,0,1,,,,,,,,,0,,,99,58
77200,note_on,80,0,1,,,,,,,,,0,,,87,0
77280,note_on,0,0,1,,,,,,,,,0,,,87,58
77280,note_on,80,0,1,,,,,,,,,0,,,99,0
77280,set_tempo,244,1,0,,,,,,545455,,,,,,,
77360,note_on,80,0,1,,,,,,,,,0,,,87,0
77360,note_on,0,0,1,,,,,,,,,0,,,87,58
77360,set_tempo,80,1,0,,,,,,542986,,,,,,,
77440,note_on,80,0,1,,,,,,,,,0,,,87,0
77440,note_on,0,0,1,,,,,,,,,0,,,99,58
77440,set_tempo,80,1,0,,,,,,540541,,,,,,,
77520,note_on,0,0,1,,,,,,,,,0,,,85,58
77520,note_on,80,0,1,,,,,,,,,0,,,99,0
77520,set_tempo,80,1,0,,,,,,538117,,,,,,,
77600,note_on,80,0,1,,,,,,,,,0,,,85,0
77600,set_tempo,80,1,0,,,,,,535714,,,,,,,
77600,note_on,0,0,1,,,,,,,,,0,,,85,58
77680,set_tempo,80,1,0,,,,,,533333,,,,,,,
77680,note_on,0,0,1,,,,,,,,,0,,,97,58
77680,note_on,80,0,1,,,,,,,,,0,,,85,0
77740,set_tempo,60,1,0,,,,,,530973,,,,,,,
77760,note_on,0,0,1,,,,,,,,,0,,,83,61
77760,control_change,960,0,2,,,,,,,,,0,64,127,,
77760,set_tempo,20,1,0,,,,,,530973,,,,,,,
77760,note_on,80,0,1,,,,,,,,,0,,,97,0
77760,note_on,0,0,2,,,,,,,,,0,,,44,61
77840,note_on,0,0,1,,,,,,,,,0,,,83,61
77840,note_on,80,0,1,,,,,,,,,0,,,83,0
77920,note_on,0,0,1,,,,,,,,,0,,,95,61
77920,note_on,80,0,1,,,,,,,,,0,,,83,0
78000,note_on,240,0,2,,,,,,,,,0,,,44,0
78000,note_on,80,0,1,,,,,,,,,0,,,95,0
78000,note_on,0,0,2,,,,,,,,,0,,,51,49
78000,note_on,0,0,2,,,,,,,,,0,,,59,56
78000,note_on,0,0,1,,,,,,,,,0,,,83,60
78080,note_on,0,0,1,,,,,,,,,0,,,83,60
78080,note_on,80,0,1,,,,,,,,,0,,,83,0
78160,note_on,0,0,1,,,,,,,,,0,,,95,60
78160,note_on,80,0,1,,,,,,,,,0,,,83,0
78240,note_on,80,0,1,,,,,,,,,0,,,95,0
78240,set_tempo,480,1,0,,,,,,524017,,,,,,,
78240,note_on,0,0,2,,,,,,,,,0,,,51,49
78240,note_on,240,0,2,,,,,,,,,0,,,51,0
78240,note_on,0,0,1,,,,,,,,,0,,,82,58
78240,note_on,0,0,2,,,,,,,,,0,,,59,0
78240,note_on,0,0,2,,,,,,,,,0,,,59,56
78320,note_on,80,0,1,,,,,,,,,0,,,82,0
78320,note_on,0,0,1,,,,,,,,,0,,,82,58
78400,note_on,0,0,1,,,,,,,,,0,,,94,58
78400,note_on,80,0,1,,,,,,,,,0,,,82,0
78411,control_change,171,0,2,,,,,,,,,0,64,0,,
78480,note_on,0,0,2,,,,,,,,,0,,,51,0
78480,note_on,0,0,1,,,,,,,,,0,,,80,60
78480,control_change,0,0,2,,,,,,,,,0,64,127,,
78480,note_on,80,0,1,,,,,,,,,0,,,94,0
78480,note_on,69,0,2,,,,,,,,,0,,,59,0
78480,note_on,0,0,2,,,,,,,,,0,,,47,61
78480,set_tempo,240,1,0,,,,,,530973,,,,,,,
78560,note_on,80,0,1,,,,,,,,,0,,,80,0
78560,note_on,0,0,1,,,,,,,,,0,,,80,60
78640,note_on,0,0,1,,,,,,,,,0,,,92,60
78640,note_on,80,0,1,,,,,,,,,0,,,80,0
78720,note_on,240,0,2,,,,,,,,,0,,,47,0
78720,note_on,0,0,2,,,,,,,,,0,,,56,49
78720,note_on,0,0,2,,,,,,,,,0,,,63,56
78720,note_on,80,0,1,,,,,,,,,0,,,92,0
78720,note_on,0,0,1,,,,,,,,,0,,,79,58
78720,set_tempo,240,1,0,,,,,,526316,,,,,,,
78800,note_on,0,0,1,,,,,,,,,0,,,79,58
78800,note_on,80,0,1,,,,,,,,,0,,,79,0
78880,note_on,0,0,1,,,,,,,,,0,,,91,58
78880,note_on,80,0,1,,,,,,,,,0,,,79,0
78960,set_tempo,240,1,0,,,,,,526316,,,,,,,
78960,note_on,80,0,1,,,,,,,,,0,,,91,0
78960,note_on,0,0,2,,,,,,,,,0,,,63,0
78960,note_on,0,0,2,,,,,,,,,0,,,63,56
78960,note_on,0,0,1,,,,,,,,,0,,,80,58
78960,note_on,240,0,2,,,,,,,,,0,,,56,0
78960,note_on,0,0,2,,,,,,,,,0,,,56,49
79040,note_on,0,0,1,,,,,,,,,0,,,80,58
79040,note_on,80,0,1,,,,,,,,,0,,,80,0
79120,note_on,80,0,1,,,,,,,,,0,,,80,0
79120,note_on,0,0,1,,,,,,,,,0,,,92,58
79151,control_change,191,0,2,,,,,,,,,0,64,0,,
79200,note_on,0,0,2,,,,,,,,,0,,,51,61
79200,note_on,80,0,1,,,,,,,,,0,,,92,0
79200,set_tempo,240,1,0,,,,,,538117,,,,,,,
79200,note_on,0,0,2,,,,,,,,,0,,,56,0
79200,note_on,49,0,2,,,,,,,,,0,,,63,0
79200,control_change,0,0,2,,,,,,,,,0,64,127,,
79200,note_on,0,0,1,,,,,,,,,0,,,82,60
79280,note_on,80,0,1,,,,,,,,,0,,,82,0
79280,note_on,0,0,1,,,,,,,,,0,,,82,60
79360,note_on,80,0,1,,,,,,,,,0,,,82,0
79360,note_on,0,0,1,,,,,,,,,0,,,94,60
79440,note_on,0,0,1,,,,,,,,,0,,,75,56
79440,note_on,0,0,2,,,,,,,,,0,,,58,39
79440,note_on,0,0,2,,,,,,,,,0,,,67,44
79440,note_on,80,0,1,,,,,,,,,0,,,94,0
79440,note_on,240,0,2,,,,,,,,,0,,,51,0
79520,note_on,80,0,1,,,,,,,,,0,,,75,0
79520,note_on,0,0,1,,,,,,,,,0,,,75,56
79600,note_on,0,0,1,,,,,,,,,0,,,87,53
79600,note_on,80,0,1,,,,,,,,,0,,,75,0
79620,note_on,180,0,2,,,,,,,,,0,,,58,0
79620,note_on,0,0,2,,,,,,,,,0,,,67,0
79680,note_on,60,0,2,,,,,,,,,0,,,67,40
79680,note_on,80,0,1,,,,,,,,,0,,,87,0
79680,set_tempo,480,1,0,,,,,,530973,,,,,,,
79680,note_on,0,0,1,,,,,,,,,0,,,75,55
79680,note_on,0,0,2,,,,,,,,,0,,,70,46
79760,note_on,0,0,1,,,,,,,,,0,,,75,55
79760,note_on,80,0,1,,,,,,,,,0,,,75,0
79789,control_change,109,0,2,,,,,,,,,0,64,0,,
79840,note_on,0,0,1,,,,,,,,,0,,,87,55
79840,note_on,80,0,1,,,,,,,,,0,,,75,0
79860,note_on,0,0,2,,,,,,,,,0,,,67,0
79860,note_on,71,0,2,,,,,,,,,0,,,70,0
79920,note_on,60,0,2,,,,,,,,,0,,,68,42
79920,note_on,80,0,1,,,,,,,,,0,,,87,0
79920,set_tempo,240,1,0,,,,,,540541,,,,,,,
79920,note_on,0,0,1,,,,,,,,,0,,,76,58
79920,note_on,0,0,2,,,,,,,,,0,,,71,48
80000,note_on,80,0,1,,,,,,,,,0,,,76,0
80000,note_on,0,0,1,,,,,,,,,0,,,76,58
80080,note_on,0,0,1,,,,,,,,,0,,,88,58
80080,note_on,80,0,1,,,,,,,,,0,,,76,0
80100,note_on,0,0,2,,,,,,,,,0,,,68,0
80100,note_on,180,0,2,,,,,,,,,0,,,71,0
80160,note_on,80,0,1,,,,,,,,,0,,,88,0
80160,note_on,60,0,2,,,,,,,,,0,,,66,39
80160,note_on,0,0,1,,,,,,,,,0,,,75,56
80160,note_on,0,0,2,,,,,,,,,0,,,70,45
80240,note_on,0,0,1,,,,,,,,,0,,,75,56
80240,note_on,80,0,1,,,,,,,,,0,,,75,0
80320,note_on,0,0,1,,,,,,,,,0,,,87,56
80320,note_on,80,0,1,,,,,,,,,0,,,75,0
80340,note_on,0,0,2,,,,,,,,,0,,,66,0
80340,note_on,180,0,2,,,,,,,,,0,,,70,0
80400,note_on,0,0,1,,,,,,,,,0,,,73,53
80400,set_tempo,480,1,0,,,,,,533333,,,,,,,
80400,note_on,80,0,1,,,,,,,,,0,,,87,0
80400,note_on,0,0,2,,,,,,,,,0,,,68,44
80400,note_on,60,0,2,,,,,,,,,0,,,64,39
80480,note_on,0,0,1,,,,,,,,,0,,,73,53
80480,note_on,80,0,1,,,,,,,,,0,,,73,0
80560,note_on,0,0,1,,,,,,,,,0,,,85,53
80560,note_on,80,0,1,,,,,,,,,0,,,73,0
80580,note_on,180,0,2,,,,,,,,,0,,,68,0
80580,note_on,0,0,2,,,,,,,,,0,,,64,0
80620,set_tempo,220,1,0,,,,,,530973,,,,,,,
80640,note_on,60,0,2,,,,,,,,,0,,,68,46
80640,note_on,80,0,1,,,,,,,,,0,,,85,0
80640,note_on,0,0,1,,,,,,,,,0,,,75,52
80640,set_tempo,20,1,0,,,,,,524017,,,,,,,
80640,note_on,0,0,2,,,,,,,,,0,,,71,51
80640,note_on,0,0,2,,,,,,,,,0,,,63,46
80720,note_on,0,0,1,,,,,,,,,0,,,75,52
80720,note_on,80,0,1,,,,,,,,,0,,,75,0
80800,note_on,0,0,1,,,,,,,,,0,,,87,53
80800,note_on,80,0,1,,,,,,,,,0,,,75,0
80880,note_on,0,0,1,,,,,,,,,0,,,76,53
80880,note_on,0,0,2,,,,,,,,,0,,,63,0
80880,note_on,0,0,2,,,,,,,,,0,,,68,0
80880,note_on,80,0,1,,,,,,,,,0,,,87,0
80880,note_on,240,0,2,,,,,,,,,0,,,71,0
80960,note_on,80,0,1,,,,,,,,,0,,,76,0
80960,note_on,0,0,1,,,,,,,,,0,,,76,55
81000,set_tempo,360,1,0,,,,,,521739,,,,,,,
81040,note_on,0,0,1,,,,,,,,,0,,,87,55
81040,note_on,80,0,1,,,,,,,,,0,,,76,0
81120,note_on,80,0,1,,,,,,,,,0,,,87,0
81120,note_on,0,0,1,,,,,,,,,0,,,77,56
81200,note_on,80,0,1,,,,,,,,,0,,,77,0
81200,note_on,0,0,1,,,,,,,,,0,,,77,56
81280,note_on,0,0,1,,,,,,,,,0,,,87,57
81280,note_on,80,0,1,,,,,,,,,0,,,77,0
81360,set_tempo,360,1,0,,,,,,519481,,,,,,,
81360,note_on,80,0,1,,,,,,,,,0,,,87,0
81360,note_on,0,0,1,,,,,,,,,0,,,78,57
81440,note_on,0,0,1,,,,,,,,,0,,,78,58
81440,note_on,80,0,1,,,,,,,,,0,,,78,0
81520,note_on,0,0,1,,,,,,,,,0,,,87,58
81520,note_on,80,0,1,,,,,,,,,0,,,78,0
81600,note_on,80,0,1,,,,,,,,,0,,,87,0
81600,note_on,0,0,1,,,,,,,,,0,,,79,60
81680,note_on,0,0,1,,,,,,,,,0,,,79,60
81680,note_on,80,0,1,,,,,,,,,0,,,79,0
81720,set_tempo,360,1,0,,,,,,517241,,,,,,,
81760,note_on,80,0,1,,,,,,,,,0,,,79,0
81760,note_on,0,0,1,,,,,,,,,0,,,87,61
81840,note_on,80,0,1,,,,,,,,,0,,,87,0
81840,note_on,0,0,1,,,,,,,,,0,,,80,62
81920,note_on,80,0,1,,,,,,,,,0,,,80,0
81920,note_on,0,0,1,,,,,,,,,0,,,80,62
82000,note_on,80,0,1,,,,,,,,,0,,,80,0
82000,note_on,0,0,1,,,,,,,,,0,,,87,63
82080,note_on,80,0,1,,,,,,,,,0,,,87,0
82080,note_on,0,0,1,,,,,,,,,0,,,81,63
82080,set_tempo,360,1,0,,,,,,515021,,,,,,,
82080,note_on,0,0,2,,,,,,,,,0,,,51,49
82080,note_on,0,0,2,,,,,,,,,0,,,61,49
82080,note_on,1200,0,2,,,,,,,,,0,,,67,56
82160,note_on,80,0,1,,,,,,,,,0,,,81,0
82160,note_on,0,0,1,,,,,,,,,0,,,81,62
82240,note_on,0,0,1,,,,,,,,,0,,,87,62
82240,note_on,80,0,1,,,,,,,,,0,,,81,0
82320,note_on,0,0,2,,,,,,,,,0,,,67,0
82320,note_on,240,0,2,,,,,,,,,0,,,51,0
82320,note_on,0,0,1,,,,,,,,,0,,,82,62
82320,note_on,80,0,1,,,,,,,,,0,,,87,0
82320,note_on,0,0,2,,,,,,,,,0,,,61,0
82400,note_on,0,0,1,,,,,,,,,0,,,82,62
82400,note_on,80,0,1,,,,,,,,,0,,,82,0
82480,note_on,0,0,1,,,,,,,,,0,,,87,62
82480,note_on,80,0,1,,,,,,,,,0,,,82,0
82560,note_on,80,0,1,,,,,,,,,0,,,87,0
82560,note_on,0,0,1,,,,,,,,,0,,,83,62
82640,note_on,0,0,1,,,,,,,,,0,,,83,62
82640,note_on,80,0,1,,,,,,,,,0,,,83,0
82720,note_on,0,0,1,,,,,,,,,0,,,87,62
82720,note_on,80,0,1,,,,,,,,,0,,,83,0
82800,note_on,80,0,1,,,,,,,,,0,,,87,0
82800,note_on,0,0,1,,,,,,,,,0,,,84,61
82880,note_on,80,0,1,,,,,,,,,0,,,84,0
82880,note_on,0,0,1,,,,,,,,,0,,,84,61
82960,note_on,80,0,1,,,,,,,,,0,,,84,0
82960,note_on,0,0,1,,,,,,,,,0,,,87,60
83040,note_on,80,0,1,,,,,,,,,0,,,87,0
83040,note_on,0,0,1,,,,,,,,,0,,,85,58
83120,note_on,80,0,1,,,,,,,,,0,,,85,0
83120,note_on,0,0,1,,,,,,,,,0,,,85,58
83200,note_on,80,0,1,,,,,,,,,0,,,85,0
83200,note_on,0,0,1,,,,,,,,,0,,,87,57
83280,note_on,0,0,1,,,,,,,,,0,,,86,56
83280,note_on,80,0,1,,,,,,,,,0,,,87,0
83360,note_on,0,0,1,,,,,,,,,0,,,86,56
83360,note_on,80,0,1,,,,,,,,,0,,,86,0
83440,note_on,0,0,1,,,,,,,,,0,,,87,55
83440,note_on,80,0,1,,,,,,,,,0,,,86,0
83500,set_tempo,1420,1,0,,,,,,519481,,,,,,,
83520,note_on,0,0,1,,,,,,,,,0,,,87,53
83520,note_on,0,0,2,,,,,,,,,0,,,44,38
83520,note_on,1200,0,2,,,,,,,,,0,,,68,42
83520,set_tempo,20,1,0,,,,,,504202,,,,,,,
83520,note_on,0,0,2,,,,,,,,,0,,,59,38
83520,note_on,0,0,2,,,,,,,,,0,,,51,38
83520,note_on,80,0,1,,,,,,,,,0,,,87,0
83540,set_tempo,20,1,0,,,,,,517241,,,,,,,
83600,note_on,80,0,1,,,,,,,,,0,,,87,0
83600,note_on,0,0,1,,,,,,,,,0,,,87,53
83660,set_tempo,120,1,0,,,,,,519481,,,,,,,
83680,note_on,0,0,1,,,,,,,,,0,,,99,52
83680,note_on,80,0,1,,,,,,,,,0,,,87,0
83760,note_on,240,0,2,,,,,,,,,0,,,44,0
83760,note_on,0,0,2,,,,,,,,,0,,,68,0
83760,note_on,0,0,2,,,,,,,,,0,,,59,0
83760,note_on,0,0,2,,,,,,,,,0,,,51,0
83760,note_on,80,0,1,,,,,,,,,0,,,99,0
83760,set_tempo,100,1,0,,,,,,521739,,,,,,,
83760,note_on,0,0,1,,,,,,,,,0,,,88,51
83840,note_on,0,0,1,,,,,,,,,0,,,88,51
83840,note_on,80,0,1,,,,,,,,,0,,,88,0
83880,set_tempo,120,1,0,,,,,,524017,,,,,,,
83920,note_on,0,0,1,,,,,,,,,0,,,99,50
83920,note_on,80,0,1,,,,,,,,,0,,,88,0
83980,set_tempo,100,1,0,,,,,,526316,,,,,,,
84000,note_on,0,0,1,,,,,,,,,0,,,89,49
84000,note_on,80,0,1,,,,,,,,,0,,,99,0
84080,note_on,0,0,1,,,,,,,,,0,,,89,49
84080,note_on,80,0,1,,,,,,,,,0,,,89,0
84080,set_tempo,100,1,0,,,,,,528634,,,,,,,
84160,note_on,0,0,1,,,,,,,,,0,,,99,48
84160,note_on,80,0,1,,,,,,,,,0,,,89,0
84200,set_tempo,120,1,0,,,,,,530973,,,,,,,
84240,note_on,0,0,1,,,,,,,,,0,,,90,46
84240,note_on,80,0,1,,,,,,,,,0,,,99,0
84300,set_tempo,100,1,0,,,,,,533333,,,,,,,
84320,note_on,0,0,1,,,,,,,,,0,,,90,46
84320,note_on,80,0,1,,,,,,,,,0,,,90,0
84400,note_on,80,0,1,,,,,,,,,0,,,90,0
84400,note_on,0,0,1,,,,,,,,,0,,,99,45
84420,set_tempo,120,1,0,,,,,,535714,,,,,,,
84480,note_on,0,0,1,,,,,,,,,0,,,91,44
84480,note_on,80,0,1,,,,,,,,,0,,,99,0
84520,set_tempo,100,1,0,,,,,,538117,,,,,,,
84560,note_on,80,0,1,,,,,,,,,0,,,91,0
84560,note_on,0,0,1,,,,,,,,,0,,,91,44
84620,set_tempo,100,1,0,,,,,,540541,,,,,,,
84640,note_on,0,0,1,,,,,,,,,0,,,99,42
84640,note_on,80,0,1,,,,,,,,,0,,,91,0
84720,note_on,0,0,1,,,,,,,,,0,,,92,41
84720,note_on,80,0,1,,,,,,,,,0,,,99,0
84740,set_tempo,120,1,0,,,,,,542986,,,,,,,
84800,note_on,0,0,1,,,,,,,,,0,,,92,41
84800,note_on,80,0,1,,,,,,,,,0,,,92,0
84840,set_tempo,100,1,0,,,,,,545455,,,,,,,
84880,note_on,80,0,1,,,,,,,,,0,,,92,0
84880,note_on,0,0,1,,,,,,,,,0,,,99,40
84940,set_tempo,100,1,0,,,,,,547945,,,,,,,
84960,note_on,80,0,1,,,,,,,,,0,,,99,0
84960,set_tempo,20,1,0,,,,,,869565,,,,,,,
85440,note_on,1680,0,2,,,,,,,,,0,,,68,46
85440,set_tempo,480,1,0,,,,,,585366,,,,,,,
85440,note_on,480,0,1,,,,,,,,,0,,,71,46
85560,note_on,0,0,2,,,,,,,,,0,,,67,48
85560,note_on,120,0,2,,,,,,,,,0,,,68,0
85560,note_on,120,0,1,,,,,,,,,0,,,70,48
85600,set_tempo,160,1,0,,,,,,582524,,,,,,,
85680,note_on,0,0,2,,,,,,,,,0,,,66,49
85680,note_on,0,0,1,,,,,,,,,0,,,69,49
85680,note_on,0,0,1,,,,,,,,,0,,,71,0
85680,note_on,0,0,1,,,,,,,,,0,,,71,42
85680,note_on,120,0,1,,,,,,,,,0,,,70,0
85680,note_on,120,0,2,,,,,,,,,0,,,67,0
85760,set_tempo,160,1,0,,,,,,579710,,,,,,,
85770,note_on,90,0,1,,,,,,,,,0,,,69,0
85770,note_on,0,0,1,,,,,,,,,0,,,71,0
85770,note_on,90,0,2,,,,,,,,,0,,,66,0
85800,note_on,30,0,2,,,,,,,,,0,,,65,50
85800,note_on,0,0,1,,,,,,,,,0,,,68,50
85800,note_on,30,0,1,,,,,,,,,0,,,71,44
85890,note_on,90,0,2,,,,,,,,,0,,,65,0
85890,note_on,90,0,1,,,,,,,,,0,,,68,0
85890,note_on,0,0,1,,,,,,,,,0,,,71,0
85900,set_tempo,140,1,0,,,,,,576923,,,,,,,
85920,note_on,30,0,1,,,,,,,,,0,,,71,45
85920,note_on,30,0,2,,,,,,,,,0,,,64,51
85920,note_on,0,0,1,,,,,,,,,0,,,67,51
86010,note_on,0,0,1,,,,,,,,,0,,,71,0
86010,note_on,90,0,2,,,,,,,,,0,,,64,0
86010,note_on,90,0,1,,,,,,,,,0,,,67,0
86040,note_on,30,0,2,,,,,,,,,0,,,63,52
86040,note_on,0,0,1,,,,,,,,,0,,,66,52
86040,note_on,30,0,1,,,,,,,,,0,,,71,46
86060,set_tempo,160,1,0,,,,,,574163,,,,,,,
86130,note_on,90,0,2,,,,,,,,,0,,,63,0
86130,note_on,0,0,1,,,,,,,,,0,,,71,0
86130,note_on,90,0,1,,,,,,,,,0,,,66,0
86160,note_on,30,0,1,,,,,,,,,0,,,71,48
86160,note_on,30,0,2,,,,,,,,,0,,,62,53
86160,note_on,0,0,1,,,,,,,,,0,,,65,53
86220,set_tempo,160,1,0,,,,,,571429,,,,,,,
86250,note_on,0,0,1,,,,,,,,,0,,,71,0
86250,note_on,90,0,1,,,,,,,,,0,,,65,0
86250,note_on,90,0,2,,,,,,,,,0,,,62,0
86280,note_on,30,0,1,,,,,,,,,0,,,71,49
86280,note_on,30,0,2,,,,,,,,,0,,,61,55
86280,set_tempo,60,1,0,,,,,,600000,,,,,,,
86280,note_on,0,0,1,,,,,,,,,0,,,64,55
86360,set_tempo,80,1,0,,,,,,568720,,,,,,,
86370,note_on,90,0,2,,,,,,,,,0,,,61,0
86370,note_on,0,0,1,,,,,,,,,0,,,71,0
86370,note_on,90,0,1,,,,,,,,,0,,,64,0
86380,set_tempo,20,1,0,,,,,,621762,,,,,,,
86400,note_on,30,0,1,,,,,,,,,0,,,73,64
86400,set_tempo,20,1,0,,,,,,621762,,,,,,,
86460,note_on,60,0,1,,,,,,,,,0,,,73,0
86460,note_on,0,0,1,,,,,,,,,0,,,71,56
86520,note_on,60,0,1,,,,,,,,,0,,,71,0
86520,note_on,0,0,1,,,,,,,,,0,,,70,56
86580,note_on,60,0,1,,,,,,,,,0,,,70,0
86580,note_on,0,0,1,,,,,,,,,0,,,71,56
86640,note_on,270,0,2,,,,,,,,,0,,,63,55
86640,note_on,0,0,2,,,,,,,,,0,,,59,49
86640,note_on,60,0,1,,,,,,,,,0,,,71,0
86640,note_on,0,0,1,,,,,,,,,0,,,66,60
86700,note_on,60,0,1,,,,,,,,,0,,,78,56
86760,note_on,0,0,1,,,,,,,,,0,,,78,56
86760,note_on,60,0,1,,,,,,,,,0,,,78,0
86820,note_on,0,0,2,,,,,,,,,0,,,63,0
86820,note_on,180,0,2,,,,,,,,,0,,,59,0
86820,note_on,60,0,1,,,,,,,,,0,,,78,0
86820,note_on,0,0,1,,,,,,,,,0,,,78,56
86880,note_on,0,0,1,,,,,,,,,0,,,71,60
86880,note_on,0,0,1,,,,,,,,,0,,,66,0
86880,note_on,60,0,2,,,,,,,,,0,,,66,55
86880,note_on,0,0,2,,,,,,,,,0,,,54,49
86880,note_on,0,0,2,,,,,,,,,0,,,63,49
86880,note_on,60,0,1,,,,,,,,,0,,,78,0
86940,note_on,60,0,1,,,,,,,,,0,,,83,56
87000,note_on,0,0,1,,,,,,,,,0,,,83,56
87000,note_on,60,0,1,,,,,,,,,0,,,83,0
87060,note_on,180,0,2,,,,,,,,,0,,,54,0
87060,note_on,0,0,2,,,,,,,,,0,,,66,0
87060,note_on,0,0,2,,,,,,,,,0,,,63,0
87060,note_on,0,0,1,,,,,,,,,0,,,83,56
87060,note_on,60,0,1,,,,,,,,,0,,,83,0
87120,set_tempo,720,1,0,,,,,,621762,,,,,,,
87120,note_on,0,0,1,,,,,,,,,0,,,71,0
87120,note_on,60,0,1,,,,,,,,,0,,,83,0
87120,note_on,0,0,1,,,,,,,,,0,,,73,60
87180,note_on,60,0,1,,,,,,,,,0,,,85,57
87240,note_on,0,0,1,,,,,,,,,0,,,85,57
87240,note_on,60,0,1,,,,,,,,,0,,,85,0
87300,note_on,0,0,1,,,,,,,,,0,,,85,57
87300,note_on,60,0,1,,,,,,,,,0,,,85,0
87360,note_on,300,0,2,,,,,,,,,0,,,64,52
87360,note_on,0,0,1,,,,,,,,,0,,,73,0
87360,note_on,0,0,1,,,,,,,,,0,,,78,60
87360,note_on,60,0,1,,,,,,,,,0,,,85,0
87360,note_on,0,0,2,,,,,,,,,0,,,58,47
87420,note_on,60,0,1,,,,,,,,,0,,,90,57
87480,note_on,0,0,1,,,,,,,,,0,,,90,57
87480,note_on,60,0,1,,,,,,,,,0,,,90,0
87540,note_on,0,0,2,,,,,,,,,0,,,64,0
87540,note_on,180,0,2,,,,,,,,,0,,,58,0
87540,note_on,60,0,1,,,,,,,,,0,,,90,0
87540,note_on,0,0,1,,,,,,,,,0,,,90,57
87600,note_on,0,0,2,,,,,,,,,0,,,58,47
87600,note_on,0,0,1,,,,,,,,,0,,,85,61
87600,set_tempo,480,1,0,,,,,,579710,,,,,,,
87600,note_on,60,0,1,,,,,,,,,0,,,90,0
87600,note_on,0,0,2,,,,,,,,,0,,,54,47
87600,note_on,0,0,1,,,,,,,,,0,,,78,0
87600,note_on,60,0,2,,,,,,,,,0,,,66,52
87680,note_on,0,0,1,,,,,,,,,0,,,90,58
87680,note_on,80,0,1,,,,,,,,,0,,,97,58
87760,note_on,0,0,1,,,,,,,,,0,,,97,60
87760,note_on,0,0,1,,,,,,,,,0,,,97,0
87760,note_on,0,0,1,,,,,,,,,0,,,90,60
87760,note_on,80,0,1,,,,,,,,,0,,,90,0
87780,note_on,0,0,2,,,,,,,,,0,,,66,0
87780,note_on,0,0,2,,,,,,,,,0,,,54,0
87780,note_on,180,0,2,,,,,,,,,0,,,58,0
87840,note_on,60,0,2,,,,,,,,,0,,,47,56
87840,note_on,80,0,1,,,,,,,,,0,,,90,0
87840,note_on,0,0,1,,,,,,,,,0,,,97,0
87840,set_tempo,240,1,0,,,,,,597015,,,,,,,
87840,note_on,0,0,1,,,,,,,,,0,,,85,0
87840,note_on,0,0,1,,,,,,,,,0,,,87,63
87920,note_on,80,0,1,,,,,,,,,0,,,99,61
87920,note_on,0,0,1,,,,,,,,,0,,,90,61
88000,note_on,80,0,1,,,,,,,,,0,,,90,0
88000,note_on,0,0,1,,,,,,,,,0,,,99,61
88000,note_on,0,0,1,,,,,,,,,0,,,99,0
88000,note_on,0,0,1,,,,,,,,,0,,,90,61
88020,note_on,180,0,2,,,,,,,,,0,,,47,0
88080,note_on,80,0,1,,,,,,,,,0,,,90,0
88080,note_on,0,0,1,,,,,,,,,0,,,87,0
88080,note_on,0,0,1,,,,,,,,,0,,,83,60
88080,note_on,0,0,1,,,,,,,,,0,,,99,0
88080,note_on,0,0,2,,,,,,,,,0,,,54,46
88080,set_tempo,240,1,0,,,,,,618557,,,,,,,
88080,note_on,60,0,2,,,,,,,,,0,,,63,51
88200,note_on,0,0,2,,,,,,,,,0,,,63,0
88200,note_on,120,0,1,,,,,,,,,0,,,83,0
88200,set_tempo,120,1,0,,,,,,722892,,,,,,,
88200,note_on,120,0,2,,,,,,,,,0,,,54,0
88320,note_on,120,0,2,,,,,,,,,0,,,71,46
88320,note_on,120,0,1,,,,,,,,,0,,,75,46
88320,set_tempo,120,1,0,,,,,,566038,,,,,,,
88440,note_on,120,0,1,,,,,,,,,0,,,74,48
88480,set_tempo,160,1,0,,,,,,563380,,,,,,,
88560,note_on,0,0,1,,,,,,,,,0,,,73,49
88560,note_on,0,0,2,,,,,,,,,0,,,70,49
88560,note_on,240,0,2,,,,,,,,,0,,,71,0
88560,note_on,0,0,1,,,,,,,,,0,,,75,42
88560,note_on,120,0,1,,,,,,,,,0,,,74,0
88560,note_on,0,0,1,,,,,,,,,0,,,75,0
88640,set_tempo,160,1,0,,,,,,560748,,,,,,,
88650,note_on,90,0,2,,,,,,,,,0,,,70,0
88650,note_on,90,0,1,,,,,,,,,0,,,73,0
88650,note_on,0,0,1,,,,,,,,,0,,,75,0
88680,note_on,0,0,1,,,,,,,,,0,,,72,50
88680,note_on,30,0,1,,,,,,,,,0,,,75,44
88680,note_on,30,0,2,,,,,,,,,0,,,69,50
88770,note_on,90,0,1,,,,,,,,,0,,,72,0
88770,note_on,90,0,2,,,,,,,,,0,,,69,0
88770,note_on,0,0,1,,,,,,,,,0,,,75,0
88800,note_on,0,0,1,,,,,,,,,0,,,71,51
88800,note_on,30,0,2,,,,,,,,,0,,,68,51
88800,note_on,30,0,1,,,,,,,,,0,,,75,45
88800,set_tempo,160,1,0,,,,,,558140,,,,,,,
88890,note_on,0,0,1,,,,,,,,,0,,,75,0
88890,note_on,90,0,1,,,,,,,,,0,,,71,0
88890,note_on,90,0,2,,,,,,,,,0,,,68,0
88920,note_on,0,0,1,,,,,,,,,0,,,70,52
88920,note_on,30,0,2,,,,,,,,,0,,,67,52
88920,note_on,30,0,1,,,,,,,,,0,,,75,46
88960,set_tempo,160,1,0,,,,,,555556,,,,,,,
89010,note_on,90,0,2,,,,,,,,,0,,,67,0
89010,note_on,0,0,1,,,,,,,,,0,,,75,0
89010,note_on,90,0,1,,,,,,,,,0,,,70,0
89040,note_on,0,0,1,,,,,,,,,0,,,69,53
89040,note_on,30,0,2,,,,,,,,,0,,,66,53
89040,note_on,30,0,1,,,,,,,,,0,,,75,48
89120,set_tempo,160,1,0,,,,,,552995,,,,,,,
89130,note_on,0,0,1,,,,,,,,,0,,,75,0
89130,note_on,90,0,1,,,,,,,,,0,,,69,0
89130,note_on,90,0,2,,,,,,,,,0,,,66,0
89160,set_tempo,40,1,0,,,,,,582524,,,,,,,
89160,note_on,0,0,1,,,,,,,,,0,,,68,55
89160,note_on,30,0,1,,,,,,,,,0,,,75,49
89160,note_on,30,0,2,,,,,,,,,0,,,65,55
89250,note_on,90,0,2,,,,,,,,,0,,,65,0
89250,note_on,0,0,1,,,,,,,,,0,,,75,0
89250,note_on,90,0,1,,,,,,,,,0,,,68,0
89260,set_tempo,100,1,0,,,,,,550459,,,,,,,
89280,set_tempo,20,1,0,,,,,,621762,,,,,,,
89280,note_on,30,0,1,,,,,,,,,0,,,77,63
89340,note_on,60,0,1,,,,,,,,,0,,,77,0
89340,note_on,0,0,1,,,,,,,,,0,,,75,56
89400,note_on,0,0,1,,,,,,,,,0,,,74,56
89400,note_on,60,0,1,,,,,,,,,0,,,75,0
89460,note_on,60,0,1,,,,,,,,,0,,,74,0
89460,note_on,0,0,1,,,,,,,,,0,,,75,56
89520,note_on,0,0,2,,,,,,,,,0,,,63,49
89520,note_on,270,0,2,,,,,,,,,0,,,66,55
89520,note_on,60,0,1,,,,,,,,,0,,,75,0
89520,note_on,0,0,1,,,,,,,,,0,,,70,60
89580,note_on,60,0,1,,,,,,,,,0,,,82,56
89640,note_on,60,0,1,,,,,,,,,0,,,82,0
89640,note_on,0,0,1,,,,,,,,,0,,,82,56
89700,note_on,60,0,1,,,,,,,,,0,,,82,0
89700,note_on,0,0,2,,,,,,,,,0,,,66,0
89700,note_on,0,0,1,,,,,,,,,0,,,82,56
89700,note_on,180,0,2,,,,,,,,,0,,,63,0
89760,note_on,0,0,1,,,,,,,,,0,,,70,0
89760,note_on,0,0,1,,,,,,,,,0,,,75,60
89760,note_on,60,0,1,,,,,,,,,0,,,82,0
89760,note_on,0,0,2,,,,,,,,,0,,,58,49
89760,note_on,0,0,2,,,,,,,,,0,,,66,49
89760,note_on,60,0,2,,,,,,,,,0,,,70,55
89820,note_on,60,0,1,,,,,,,,,0,,,87,56
89880,note_on,0,0,1,,,,,,,,,0,,,87,56
89880,note_on,60,0,1,,,,,,,,,0,,,87,0
89940,note_on,0,0,1,,,,,,,,,0,,,87,56
89940,note_on,180,0,2,,,,,,,,,0,,,58,0
89940,note_on,60,0,1,,,,,,,,,0,,,87,0
89940,note_on,0,0,2,,,,,,,,,0,,,70,0
89940,note_on,0,0,2,,,,,,,,,0,,,66,0
90000,note_on,0,0,1,,,,,,,,,0,,,75,0
90000,note_on,0,0,1,,,,,,,,,0,,,77,60
90000,note_on,60,0,1,,,,,,,,,0,,,87,0
90060,note_on,60,0,1,,,,,,,,,0,,,89,57
90120,note_on,60,0,1,,,,,,,,,0,,,89,0
90120,note_on,0,0,1,,,,,,,,,0,,,89,57
90180,note_on,0,0,1,,,,,,,,,0,,,89,57
90180,note_on,60,0,1,,,,,,,,,0,,,89,0
90240,note_on,60,0,1,,,,,,,,,0,,,89,0
90240,note_on,300,0,2,,,,,,,,,0,,,68,52
90240,note_on,0,0,1,,,,,,,,,0,,,77,0
90240,note_on,0,0,1,,,,,,,,,0,,,82,60
90240,note_on,0,0,2,,,,,,,,,0,,,62,47
90300,note_on,60,0,1,,,,,,,,,0,,,94,57
90360,note_on,60,0,1,,,,,,,,,0,,,94,0
90360,note_on,0,0,1,,,,,,,,,0,,,94,57
90420,note_on,180,0,2,,,,,,,,,0,,,62,0
90420,note_on,60,0,1,,,,,,,,,0,,,94,0
90420,note_on,0,0,1,,,,,,,,,0,,,94,57
90420,note_on,0,0,2,,,,,,,,,0,,,68,0
90480,note_on,60,0,2,,,,,,,,,0,,,70,52
90480,note_on,0,0,1,,,,,,,,,0,,,89,61
90480,note_on,0,0,1,,,,,,,,,0,,,82,0
90480,note_on,0,0,2,,,,,,,,,0,,,58,47
90480,note_on,0,0,2,,,,,,,,,0,,,62,47
90480,set_tempo,1200,1,0,,,,,,579710,,,,,,,
90480,note_on,60,0,1,,,,,,,,,0,,,94,0
90560,note_on,0,0,1,,,,,,,,,0,,,94,58
90560,note_on,80,0,1,,,,,,,,,0,,,101,58
90640,note_on,0,0,1,,,,,,,,,0,,,101,0
90640,note_on,0,0,1,,,,,,,,,0,,,94,60
90640,note_on,80,0,1,,,,,,,,,0,,,94,0
90640,note_on,0,0,1,,,,,,,,,0,,,101,60
90660,note_on,0,0,2,,,,,,,,,0,,,58,0
90660,note_on,180,0,2,,,,,,,,,0,,,62,0
90660,note_on,0,0,2,,,,,,,,,0,,,70,0
90720,note_on,0,0,1,,,,,,,,,0,,,101,0
90720,set_tempo,240,1,0,,,,,,594059,,,,,,,
90720,note_on,60,0,2,,,,,,,,,0,,,51,56
90720,note_on,0,0,1,,,,,,,,,0,,,90,63
90720,note_on,80,0,1,,,,,,,,,0,,,94,0
90720,note_on,0,0,1,,,,,,,,,0,,,89,0
90800,note_on,0,0,1,,,,,,,,,0,,,94,61
90800,note_on,80,0,1,,,,,,,,,0,,,102,61
90880,note_on,0,0,1,,,,,,,,,0,,,94,61
90880,note_on,0,0,1,,,,,,,,,0,,,102,0
90880,note_on,80,0,1,,,,,,,,,0,,,94,0
90880,note_on,0,0,1,,,,,,,,,0,,,102,61
90900,note_on,180,0,2,,,,,,,,,0,,,51,0
90960,note_on,0,0,1,,,,,,,,,0,,,87,60
90960,set_tempo,240,1,0,,,,,,618557,,,,,,,
90960,note_on,0,0,2,,,,,,,,,0,,,58,46
90960,note_on,0,0,1,,,,,,,,,0,,,90,0
90960,note_on,80,0,1,,,,,,,,,0,,,94,0
90960,note_on,60,0,2,,,,,,,,,0,,,66,51
90960,note_on,0,0,1,,,,,,,,,0,,,102,0
91080,note_on,0,0,2,,,,,,,,,0,,,66,0
91080,set_tempo,120,1,0,,,,,,714286,,,,,,,
91080,note_on,120,0,1,,,,,,,,,0,,,87,0
91080,note_on,120,0,2,,,,,,,,,0,,,58,0
91200,note_on,120,0,1,,,,,,,,,0,,,78,46
91200,note_on,120,0,2,,,,,,,,,0,,,75,46
91200,set_tempo,120,1,0,,,,,,566038,,,,,,,
91320,note_on,120,0,1,,,,,,,,,0,,,77,48
91320,note_on,0,0,2,,,,,,,,,0,,,74,46
91320,note_on,120,0,2,,,,,,,,,0,,,75,0
91360,set_tempo,160,1,0,,,,,,563380,,,,,,,
91440,note_on,0,0,2,,,,,,,,,0,,,73,49
91440,note_on,120,0,1,,,,,,,,,0,,,77,0
91440,note_on,0,0,1,,,,,,,,,0,,,76,49
91440,note_on,120,0,2,,,,,,,,,0,,,74,0
91440,note_on,0,0,1,,,,,,,,,0,,,78,42
91440,note_on,0,0,1,,,,,,,,,0,,,78,0
91520,set_tempo,160,1,0,,,,,,560748,,,,,,,
91530,note_on,90,0,2,,,,,,,,,0,,,73,0
91530,note_on,0,0,1,,,,,,,,,0,,,78,0
91530,note_on,90,0,1,,,,,,,,,0,,,76,0
91560,note_on,30,0,1,,,,,,,,,0,,,78,44
91560,note_on,0,0,1,,,,,,,,,0,,,75,50
91560,note_on,30,0,2,,,,,,,,,0,,,72,50
91650,note_on,90,0,2,,,,,,,,,0,,,72,0
91650,note_on,0,0,1,,,,,,,,,0,,,78,0
91650,note_on,90,0,1,,,,,,,,,0,,,75,0
91680,note_on,30,0,1,,,,,,,,,0,,,78,45
91680,note_on,0,0,1,,,,,,,,,0,,,74,51
91680,set_tempo,160,1,0,,,,,,558140,,,,,,,
91680,note_on,30,0,2,,,,,,,,,0,,,71,51
91770,note_on,0,0,1,,,,,,,,,0,,,78,0
91770,note_on,90,0,1,,,,,,,,,0,,,74,0
91770,note_on,90,0,2,,,,,,,,,0,,,71,0
91800,note_on,30,0,1,,,,,,,,,0,,,78,46
91800,note_on,0,0,1,,,,,,,,,0,,,73,52
91800,note_on,30,0,2,,,,,,,,,0,,,70,52
91840,set_tempo,160,1,0,,,,,,555556,,,,,,,
91890,note_on,0,0,1,,,,,,,,,0,,,78,0
91890,note_on,90,0,2,,,,,,,,,0,,,70,0
91890,note_on,90,0,1,,,,,,,,,0,,,73,0
91920,note_on,0,0,1,,,,,,,,,0,,,72,53
91920,note_on,30,0,1,,,,,,,,,0,,,78,48
91920,note_on,30,0,2,,,,,,,,,0,,,69,53
92000,set_tempo,160,1,0,,,,,,552995,,,,,,,
92010,note_on,0,0,1,,,,,,,,,0,,,78,0
92010,note_on,90,0,1,,,,,,,,,0,,,72,0
92010,note_on,90,0,2,,,,,,,,,0,,,69,0
92040,note_on,30,0,1,,,,,,,,,0,,,78,49
92040,set_tempo,40,1,0,,,,,,582524,,,,,,,
92040,note_on,0,0,1,,,,,,,,,0,,,71,55
92040,note_on,30,0,2,,,,,,,,,0,,,68,55
92130,note_on,90,0,2,,,,,,,,,0,,,68,0
92130,note_on,90,0,1,,,,,,,,,0,,,71,0
92130,note_on,0,0,1,,,,,,,,,0,,,78,0
92140,set_tempo,100,1,0,,,,,,550459,,,,,,,
92160,note_on,30,0,1,,,,,,,,,0,,,80,63
92160,set_tempo,20,1,0,,,,,,621762,,,,,,,
92220,note_on,60,0,1,,,,,,,,,0,,,80,0
92220,note_on,0,0,1,,,,,,,,,0,,,78,56
92280,note_on,60,0,1,,,,,,,,,0,,,78,0
92280,note_on,0,0,1,,,,,,,,,0,,,77,56
92340,note_on,60,0,1,,,,,,,,,0,,,77,0
92340,note_on,0,0,1,,,,,,,,,0,,,78,56
92400,note_on,270,0,2,,,,,,,,,0,,,70,55
92400,note_on,0,0,2,,,,,,,,,0,,,66,49
92400,note_on,60,0,1,,,,,,,,,0,,,78,0
92400,note_on,0,0,1,,,,,,,,,0,,,73,60
92460,note_on,60,0,1,,,,,,,,,0,,,85,56
92520,note_on,60,0,1,,,,,,,,,0,,,85,0
92520,note_on,0,0,1,,,,,,,,,0,,,85,56
92580,note_on,180,0,2,,,,,,,,,0,,,66,0
92580,note_on,60,0,1,,,,,,,,,0,,,85,0
92580,note_on,0,0,2,,,,,,,,,0,,,70,0
92580,note_on,0,0,1,,,,,,,,,0,,,85,56
92640,note_on,60,0,1,,,,,,,,,0,,,85,0
92640,note_on,0,0,2,,,,,,,,,0,,,61,49
92640,note_on,60,0,2,,,,,,,,,0,,,73,55
92640,note_on,0,0,1,,,,,,,,,0,,,73,0
92640,note_on,0,0,1,,,,,,,,,0,,,78,60
92640,note_on,0,0,2,,,,,,,,,0,,,70,49
92700,note_on,60,0,1,,,,,,,,,0,,,90,56
92760,note_on,0,0,1,,,,,,,,,0,,,90,56
92760,note_on,60,0,1,,,,,,,,,0,,,90,0
92820,note_on,0,0,2,,,,,,,,,0,,,73,0
92820,note_on,180,0,2,,,,,,,,,0,,,61,0
92820,note_on,0,0,1,,,,,,,,,0,,,90,56
92820,note_on,0,0,2,,,,,,,,,0,,,70,0
92820,note_on,60,0,1,,,,,,,,,0,,,90,0
92880,note_on,60,0,1,,,,,,,,,0,,,90,0
92880,note_on,0,0,1,,,,,,,,,0,,,78,0
92880,note_on,0,0,1,,,,,,,,,0,,,80,60
92940,note_on,60,0,1,,,,,,,,,0,,,92,57
93000,note_on,60,0,1,,,,,,,,,0,,,92,0
93000,note_on,0,0,1,,,,,,,,,0,,,92,57
93060,note_on,60,0,1,,,,,,,,,0,,,92,0
93060,note_on,0,0,1,,,,,,,,,0,,,92,57
93100,set_tempo,940,1,0,,,,,,659341,,,,,,,
93120,note_on,300,0,2,,,,,,,,,0,,,71,52
93120,note_on,0,0,1,,,,,,,,,0,,,85,60
93120,note_on,60,0,1,,,,,,,,,0,,,92,0
93120,note_on,0,0,2,,,,,,,,,0,,,65,47
93120,note_on,0,0,1,,,,,,,,,0,,,80,0
93120,set_tempo,20,1,0,,,,,,628272,,,,,,,
93160,set_tempo,40,1,0,,,,,,631579,,,,,,,
93200,note_on,0,0,1,,,,,,,,,0,,,92,60
93200,note_on,80,0,1,,,,,,,,,0,,,97,60
93200,set_tempo,40,1,0,,,,,,634921,,,,,,,
93240,set_tempo,40,1,0,,,,,,638298,,,,,,,
93280,note_on,0,0,1,,,,,,,,,0,,,97,60
93280,set_tempo,40,1,0,,,,,,641711,,,,,,,
93280,note_on,0,0,1,,,,,,,,,0,,,97,0
93280,note_on,0,0,1,,,,,,,,,0,,,92,60
93280,note_on,80,0,1,,,,,,,,,0,,,92,0
93300,note_on,0,0,2,,,,,,,,,0,,,71,0
93300,note_on,180,0,2,,,,,,,,,0,,,65,0
93300,set_tempo,20,1,0,,,,,,645161,,,,,,,
93340,set_tempo,40,1,0,,,,,,648649,,,,,,,
93360,note_on,0,0,2,,,,,,,,,0,,,61,47
93360,note_on,60,0,2,,,,,,,,,0,,,73,52
93360,note_on,0,0,1,,,,,,,,,0,,,92,61
93360,note_on,80,0,1,,,,,,,,,0,,,92,0
93360,note_on,0,0,1,,,,,,,,,0,,,85,0
93360,note_on,0,0,2,,,,,,,,,0,,,65,47
93360,note_on,0,0,1,,,,,,,,,0,,,97,0
93360,note_on,0,0,1,,,,,,,,,0,,,97,61
93380,set_tempo,40,1,0,,,,,,652174,,,,,,,
93420,set_tempo,40,1,0,,,,,,655738,,,,,,,
93440,note_on,0,0,1,,,,,,,,,0,,,97,58
93440,note_on,0,0,1,,,,,,,,,0,,,97,0
93440,note_on,80,0,1,,,,,,,,,0,,,92,0
93440,note_on,0,0,1,,,,,,,,,0,,,92,58
93460,set_tempo,40,1,0,,,,,,659341,,,,,,,
93480,set_tempo,20,1,0,,,,,,662983,,,,,,,
93500,set_tempo,20,1,0,,,,,,816327,,,,,,,
93520,note_on,0,0,1,,,,,,,,,0,,,97,60
93520,note_on,0,0,1,,,,,,,,,0,,,92,0
93520,note_on,80,0,1,,,,,,,,,0,,,97,0
93520,set_tempo,20,1,0,,,,,,827586,,,,,,,
93520,note_on,0,0,1,,,,,,,,,0,,,92,60
93540,note_on,0,0,2,,,,,,,,,0,,,73,0
93540,note_on,0,0,2,,,,,,,,,0,,,61,0
93540,note_on,180,0,2,,,,,,,,,0,,,65,0
93540,set_tempo,20,1,0,,,,,,839161,,,,,,,
93560,set_tempo,20,1,0,,,,,,851064,,,,,,,
93600,set_tempo,40,1,0,,,,,,582524,,,,,,,
93600,note_on,80,0,1,,,,,,,,,0,,,97,0
93600,note_on,60,0,2,,,,,,,,,0,,,66,62
93600,note_on,0,0,1,,,,,,,,,0,,,92,0
93600,note_on,0,0,1,,,,,,,,,0,,,94,45
93600,note_on,0,0,1,,,,,,,,,0,,,97,45
93660,note_on,0,0,1,,,,,,,,,0,,,99,45
93660,note_on,60,0,1,,,,,,,,,0,,,97,0
93720,note_on,60,0,1,,,,,,,,,0,,,99,0
93720,note_on,0,0,1,,,,,,,,,0,,,93,44
93720,note_on,0,0,1,,,,,,,,,0,,,94,0
93720,note_on,0,0,1,,,,,,,,,0,,,97,44
93780,note_on,60,0,1,,,,,,,,,0,,,97,0
93780,note_on,0,0,1,,,,,,,,,0,,,99,42
93840,note_on,0,0,1,,,,,,,,,0,,,97,42
93840,note_on,60,0,1,,,,,,,,,0,,,99,0
93840,note_on,0,0,2,,,,,,,,,0,,,82,55
93840,set_tempo,240,1,0,,,,,,560748,,,,,,,
93840,note_on,0,0,1,,,,,,,,,0,,,92,42
93840,note_on,0,0,2,,,,,,,,,0,,,78,49
93840,note_on,240,0,2,,,,,,,,,0,,,66,0
93840,note_on,0,0,1,,,,,,,,,0,,,93,0
93900,note_on,0,0,1,,,,,,,,,0,,,99,41
93900,note_on,60,0,1,,,,,,,,,0,,,97,0
93930,note_on,0,0,2,,,,,,,,,0,,,78,0
93930,note_on,90,0,2,,,,,,,,,0,,,82,0
93960,note_on,30,0,2,,,,,,,,,0,,,80,49
93960,note_on,0,0,2,,,,,,,,,0,,,83,55
93960,note_on,0,0,1,,,,,,,,,0,,,91,41
93960,note_on,0,0,1,,,,,,,,,0,,,92,0
93960,note_on,0,0,1,,,,,,,,,0,,,97,41
93960,note_on,60,0,1,,,,,,,,,0,,,99,0
94020,note_on,60,0,1,,,,,,,,,0,,,97,0
94020,note_on,0,0,1,,,,,,,,,0,,,99,40
94050,note_on,90,0,2,,,,,,,,,0,,,83,0
94050,note_on,0,0,2,,,,,,,,,0,,,80,0
94060,set_tempo,220,1,0,,,,,,545455,,,,,,,
94080,note_on,0,0,1,,,,,,,,,0,,,91,0
94080,note_on,60,0,1,,,,,,,,,0,,,99,0
94080,note_on,0,0,1,,,,,,,,,0,,,97,39
94080,note_on,30,0,2,,,,,,,,,0,,,82,51
94080,note_on,0,0,2,,,,,,,,,0,,,85,58
94080,set_tempo,20,1,0,,,,,,540541,,,,,,,
94080,note_on,0,0,1,,,,,,,,,0,,,90,39
94140,note_on,60,0,1,,,,,,,,,0,,,97,0
94140,note_on,0,0,1,,,,,,,,,0,,,99,39
94200,note_on,0,0,1,,,,,,,,,0,,,97,38
94200,set_tempo,120,1,0,,,,,,568720,,,,,,,
94200,note_on,60,0,1,,,,,,,,,0,,,99,0
94260,note_on,0,0,2,,,,,,,,,0,,,82,0
94260,note_on,180,0,2,,,,,,,,,0,,,85,0
94260,note_on,0,0,1,,,,,,,,,0,,,99,38
94260,note_on,60,0,1,,,,,,,,,0,,,97,0
94320,note_on,60,0,1,,,,,,,,,0,,,99,0
94320,note_on,0,0,1,,,,,,,,,0,,,90,0
94320,note_on,60,0,2,,,,,,,,,0,,,59,62
94320,set_tempo,120,1,0,,,,,,582524,,,,,,,
94320,note_on,0,0,1,,,,,,,,,0,,,92,42
94320,note_on,0,0,1,,,,,,,,,0,,,95,42
94380,note_on,0,0,1,,,,,,,,,0,,,97,42
94380,note_on,60,0,1,,,,,,,,,0,,,95,0
94440,note_on,0,0,1,,,,,,,,,0,,,95,41
94440,note_on,0,0,1,,,,,,,,,0,,,91,41
94440,note_on,0,0,1,,,,,,,,,0,,,92,0
94440,note_on,60,0,1,,,,,,,,,0,,,97,0
94500,note_on,0,0,1,,,,,,,,,0,,,97,41
94500,note_on,60,0,1,,,,,,,,,0,,,95,0
94540,set_tempo,220,1,0,,,,,,563380,,,,,,,
94560,note_on,0,0,2,,,,,,,,,0,,,71,49
94560,note_on,0,0,2,,,,,,,,,0,,,80,55
94560,note_on,240,0,2,,,,,,,,,0,,,59,0
94560,note_on,0,0,1,,,,,,,,,0,,,90,40
94560,note_on,0,0,1,,,,,,,,,0,,,91,0
94560,note_on,0,0,1,,,,,,,,,0,,,95,40
94560,note_on,60,0,1,,,,,,,,,0,,,97,0
94620,note_on,60,0,1,,,,,,,,,0,,,95,0
94620,note_on,0,0,1,,,,,,,,,0,,,97,40
94650,note_on,0,0,2,,,,,,,,,0,,,80,0
94650,note_on,90,0,2,,,,,,,,,0,,,71,0
94680,note_on,0,0,2,,,,,,,,,0,,,73,49
94680,note_on,0,0,1,,,,,,,,,0,,,89,39
94680,note_on,0,0,1,,,,,,,,,0,,,95,39
94680,note_on,60,0,1,,,,,,,,,0,,,97,0
94680,note_on,0,0,1,,,,,,,,,0,,,90,0
94680,note_on,30,0,2,,,,,,,,,0,,,82,55
94740,note_on,60,0,1,,,,,,,,,0,,,95,0
94740,note_on,0,0,1,,,,,,,,,0,,,97,39
94770,note_on,0,0,2,,,,,,,,,0,,,82,0
94770,note_on,90,0,2,,,,,,,,,0,,,73,0
94800,note_on,0,0,1,,,,,,,,,0,,,95,38
94800,note_on,0,0,2,,,,,,,,,0,,,83,57
94800,set_tempo,260,1,0,,,,,,542986,,,,,,,
94800,note_on,30,0,2,,,,,,,,,0,,,75,50
94800,note_on,60,0,1,,,,,,,,,0,,,97,0
94800,note_on,0,0,1,,,,,,,,,0,,,89,0
94800,note_on,0,0,1,,,,,,,,,0,,,87,38
94860,note_on,0,0,1,,,,,,,,,0,,,97,38
94860,note_on,60,0,1,,,,,,,,,0,,,95,0
94920,note_on,0,0,1,,,,,,,,,0,,,95,37
94920,note_on,60,0,1,,,,,,,,,0,,,97,0
94920,set_tempo,120,1,0,,,,,,568720,,,,,,,
94980,note_on,0,0,2,,,,,,,,,0,,,75,0
94980,note_on,60,0,1,,,,,,,,,0,,,95,0
94980,note_on,0,0,1,,,,,,,,,0,,,97,37
94980,note_on,180,0,2,,,,,,,,,0,,,83,0
95040,note_on,0,0,1,,,,,,,,,0,,,90,42
95040,note_on,60,0,1,,,,,,,,,0,,,97,0
95040,note_on,0,0,1,,,,,,,,,0,,,87,0
95040,set_tempo,120,1,0,,,,,,576923,,,,,,,
95040,note_on,60,0,2,,,,,,,,,0,,,61,62
95040,note_on,0,0,1,,,,,,,,,0,,,94,42
95100,note_on,60,0,1,,,,,,,,,0,,,94,0
95100,note_on,0,0,1,,,,,,,,,0,,,95,42
95160,note_on,60,0,1,,,,,,,,,0,,,95,0
95160,note_on,0,0,1,,,,,,,,,0,,,94,41
95160,note_on,0,0,1,,,,,,,,,0,,,90,0
95160,note_on,0,0,1,,,,,,,,,0,,,89,41
95220,note_on,60,0,1,,,,,,,,,0,,,94,0
95220,note_on,0,0,1,,,,,,,,,0,,,95,41
95280,note_on,0,0,1,,,,,,,,,0,,,89,0
95280,note_on,0,0,1,,,,,,,,,0,,,87,41
95280,set_tempo,240,1,0,,,,,,555556,,,,,,,
95280,note_on,0,0,1,,,,,,,,,0,,,94,41
95280,note_on,240,0,2,,,,,,,,,0,,,61,0
95280,note_on,60,0,1,,,,,,,,,0,,,95,0
95280,note_on,0,0,2,,,,,,,,,0,,,70,49
95280,note_on,0,0,2,,,,,,,,,0,,,78,55
95340,note_on,60,0,1,,,,,,,,,0,,,94,0
95340,note_on,0,0,1,,,,,,,,,0,,,95,40
95370,note_on,90,0,2,,,,,,,,,0,,,78,0
95370,note_on,0,0,2,,,,,,,,,0,,,70,0
95400,note_on,60,0,1,,,,,,,,,0,,,95,0
95400,note_on,0,0,1,,,,,,,,,0,,,87,0
95400,note_on,30,0,2,,,,,,,,,0,,,71,49
95400,note_on,0,0,2,,,,,,,,,0,,,80,55
95400,note_on,0,0,1,,,,,,,,,0,,,94,40
95400,note_on,0,0,1,,,,,,,,,0,,,86,40
95460,note_on,0,0,1,,,,,,,,,0,,,95,39
95460,note_on,60,0,1,,,,,,,,,0,,,94,0
95490,note_on,0,0,2,,,,,,,,,0,,,71,0
95490,note_on,90,0,2,,,,,,,,,0,,,80,0
95520,note_on,0,0,1,,,,,,,,,0,,,86,0
95520,set_tempo,240,1,0,,,,,,533333,,,,,,,
95520,note_on,0,0,2,,,,,,,,,0,,,82,58
95520,note_on,0,0,1,,,,,,,,,0,,,94,39
95520,note_on,30,0,2,,,,,,,,,0,,,73,51
95520,note_on,0,0,1,,,,,,,,,0,,,85,39
95520,note_on,60,0,1,,,,,,,,,0,,,95,0
95580,note_on,0,0,1,,,,,,,,,0,,,95,38
95580,note_on,60,0,1,,,,,,,,,0,,,94,0
95640,note_on,60,0,1,,,,,,,,,0,,,95,0
95640,set_tempo,120,1,0,,,,,,579710,,,,,,,
95640,note_on,0,0,1,,,,,,,,,0,,,94,38
95700,note_on,180,0,2,,,,,,,,,0,,,82,0
95700,note_on,0,0,1,,,,,,,,,0,,,95,36
95700,note_on,0,0,2,,,,,,,,,0,,,73,0
95700,note_on,60,0,1,,,,,,,,,0,,,94,0
95760,set_tempo,120,1,0,,,,,,568720,,,,,,,
95760,note_on,0,0,1,,,,,,,,,0,,,85,0
95760,note_on,0,0,1,,,,,,,,,0,,,89,42
95760,note_on,60,0,1,,,,,,,,,0,,,95,0
95760,note_on,0,0,1,,,,,,,,,0,,,92,42
95760,note_on,60,0,2,,,,,,,,,0,,,61,62
95820,note_on,0,0,1,,,,,,,,,0,,,94,42
95820,note_on,60,0,1,,,,,,,,,0,,,92,0
95880,note_on,60,0,1,,,,,,,,,0,,,94,0
95880,note_on,0,0,1,,,,,,,,,0,,,92,41
95880,note_on,0,0,1,,,,,,,,,0,,,87,41
95880,note_on,0,0,1,,,,,,,,,0,,,89,0
95940,note_on,0,0,1,,,,,,,,,0,,,94,40
95940,note_on,60,0,1,,,,,,,,,0,,,92,0
95980,set_tempo,220,1,0,,,,,,540541,,,,,,,
96000,note_on,240,0,2,,,,,,,,,0,,,61,0
96000,note_on,0,0,1,,,,,,,,,0,,,92,39
96000,note_on,0,0,1,,,,,,,,,0,,,87,0
96000,note_on,0,0,2,,,,,,,,,0,,,77,55
96000,note_on,0,0,1,,,,,,,,,0,,,86,39
96000,note_on,0,0,2,,,,,,,,,0,,,68,49
96000,note_on,60,0,1,,,,,,,,,0,,,94,0
96060,note_on,60,0,1,,,,,,,,,0,,,92,0
96060,note_on,0,0,1,,,,,,,,,0,,,94,38
96090,note_on,0,0,2,,,,,,,,,0,,,77,0
96090,note_on,90,0,2,,,,,,,,,0,,,68,0
96120,note_on,60,0,1,,,,,,,,,0,,,94,0
96120,note_on,30,0,2,,,,,,,,,0,,,70,49
96120,note_on,0,0,2,,,,,,,,,0,,,78,55
96120,note_on,0,0,1,,,,,,,,,0,,,92,37
96120,note_on,0,0,1,,,,,,,,,0,,,86,0
96120,note_on,0,0,1,,,,,,,,,0,,,85,37
96180,note_on,0,0,1,,,,,,,,,0,,,94,36
96180,note_on,60,0,1,,,,,,,,,0,,,92,0
96210,note_on,0,0,2,,,,,,,,,0,,,70,0
96210,note_on,90,0,2,,,,,,,,,0,,,78,0
96220,set_tempo,240,1,0,,,,,,524017,,,,,,,
96240,note_on,30,0,2,,,,,,,,,0,,,71,50
96240,note_on,0,0,2,,,,,,,,,0,,,80,57
96240,set_tempo,20,1,0,,,,,,521739,,,,,,,
96240,note_on,60,0,1,,,,,,,,,0,,,94,0
96240,note_on,0,0,1,,,,,,,,,0,,,83,36
96240,note_on,0,0,1,,,,,,,,,0,,,85,0
96240,note_on,0,0,1,,,,,,,,,0,,,92,36
96300,note_on,0,0,1,,,,,,,,,0,,,87,41
96300,note_on,60,0,1,,,,,,,,,0,,,92,0
96360,set_tempo,120,1,0,,,,,,566038,,,,,,,
96360,note_on,60,0,1,,,,,,,,,0,,,87,0
96360,note_on,0,0,1,,,,,,,,,0,,,88,44
96420,note_on,0,0,2,,,,,,,,,0,,,71,0
96420,note_on,180,0,2,,,,,,,,,0,,,80,0
96420,note_on,60,0,1,,,,,,,,,0,,,88,0
96420,note_on,0,0,1,,,,,,,,,0,,,89,46
96480,note_on,60,0,2,,,,,,,,,0,,,82,66
96480,note_on,0,0,1,,,,,,,,,0,,,90,48
96480,note_on,0,0,1,,,,,,,,,0,,,83,0
96480,set_tempo,120,1,0,,,,,,558140,,,,,,,
96480,note_on,0,0,2,,,,,,,,,0,,,66,59
96480,note_on,60,0,1,,,,,,,,,0,,,89,0
96480,note_on,0,0,2,,,,,,,,,0,,,73,59
96540,note_on,0,0,1,,,,,,,,,0,,,92,48
96540,note_on,60,0,1,,,,,,,,,0,,,90,0
96600,note_on,0,0,1,,,,,,,,,0,,,90,48
96600,note_on,60,0,1,,,,,,,,,0,,,92,0
96660,note_on,0,0,1,,,,,,,,,0,,,92,48
96660,note_on,60,0,1,,,,,,,,,0,,,90,0
96720,note_on,0,0,2,,,,,,,,,0,,,82,0
96720,note_on,240,0,2,,,,,,,,,0,,,66,0
96720,set_tempo,240,1,0,,,,,,566038,,,,,,,
96720,note_on,0,0,2,,,,,,,,,0,,,73,0
96720,note_on,60,0,1,,,,,,,,,0,,,92,0
96720,note_on,0,0,1,,,,,,,,,0,,,78,66
96780,note_on,60,0,1,,,,,,,,,0,,,90,50
96840,note_on,60,0,1,,,,,,,,,0,,,90,0
96840,note_on,0,0,1,,,,,,,,,0,,,92,50
96900,note_on,60,0,1,,,,,,,,,0,,,92,0
96900,note_on,0,0,1,,,,,,,,,0,,,90,50
96960,note_on,0,0,1,,,,,,,,,0,,,79,67
96960,note_on,60,0,1,,,,,,,,,0,,,90,0
96960,note_on,0,0,1,,,,,,,,,0,,,78,0
97020,note_on,60,0,1,,,,,,,,,0,,,91,53
97080,note_on,60,0,1,,,,,,,,,0,,,91,0
97080,note_on,0,0,1,,,,,,,,,0,,,92,53
97140,note_on,0,0,1,,,,,,,,,0,,,91,53
97140,note_on,60,0,1,,,,,,,,,0,,,92,0
97200,set_tempo,480,1,0,,,,,,571429,,,,,,,
97200,note_on,60,0,1,,,,,,,,,0,,,91,0
97200,note_on,0,0,1,,,,,,,,,0,,,79,0
97200,note_on,0,0,1,,,,,,,,,0,,,80,70
97260,note_on,60,0,1,,,,,,,,,0,,,92,57
97320,note_on,60,0,1,,,,,,,,,0,,,92,0
97320,note_on,0,0,1,,,,,,,,,0,,,93,57
97380,note_on,0,0,1,,,,,,,,,0,,,92,56
97380,note_on,60,0,1,,,,,,,,,0,,,93,0
97440,set_tempo,240,1,0,,,,,,579710,,,,,,,
97440,note_on,60,0,1,,,,,,,,,0,,,92,0
97440,note_on,0,0,1,,,,,,,,,0,,,93,56
97440,note_on,0,0,1,,,,,,,,,0,,,80,0
97440,note_on,720,0,2,,,,,,,,,0,,,64,46
97440,note_on,0,0,2,,,,,,,,,0,,,80,64
97500,note_on,0,0,1,,,,,,,,,0,,,92,55
97500,note_on,60,0,1,,,,,,,,,0,,,93,0
97520,set_tempo,80,1,0,,,,,,582524,,,,,,,
97560,note_on,0,0,1,,,,,,,,,0,,,93,55
97560,note_on,60,0,1,,,,,,,,,0,,,92,0
97600,set_tempo,80,1,0,,,,,,585366,,,,,,,
97620,note_on,60,0,1,,,,,,,,,0,,,93,0
97620,note_on,0,0,1,,,,,,,,,0,,,92,53
97660,set_tempo,60,1,0,,,,,,588235,,,,,,,
97680,note_on,240,0,2,,,,,,,,,0,,,80,0
97680,note_on,0,0,2,,,,,,,,,0,,,63,51
97680,note_on,0,0,2,,,,,,,,,0,,,64,0
97680,note_on,60,0,1,,,,,,,,,0,,,92,0
97680,note_on,0,0,2,,,,,,,,,0,,,78,63
97680,note_on,0,0,1,,,,,,,,,0,,,93,53
97728,note_on,48,0,1,,,,,,,,,0,,,93,0
97728,note_on,0,0,1,,,,,,,,,0,,,92,52
97740,set_tempo,80,1,0,,,,,,591133,,,,,,,
97776,note_on,48,0,1,,,,,,,,,0,,,92,0
97776,note_on,0,0,1,,,,,,,,,0,,,93,52
97820,set_tempo,80,1,0,,,,,,594059,,,,,,,
97824,note_on,48,0,1,,,,,,,,,0,,,93,0
97824,note_on,0,0,1,,,,,,,,,0,,,92,51
97872,note_on,48,0,1,,,,,,,,,0,,,92,0
97872,note_on,0,0,1,,,,,,,,,0,,,93,51
97920,note_on,0,0,1,,,,,,,,,0,,,92,51
97920,set_tempo,100,1,0,,,,,,594059,,,,,,,
97920,note_on,0,0,2,,,,,,,,,0,,,76,61
97920,note_on,240,0,2,,,,,,,,,0,,,78,0
97920,note_on,48,0,1,,,,,,,,,0,,,93,0
97920,note_on,0,0,2,,,,,,,,,0,,,63,0
97920,note_on,0,0,2,,,,,,,,,0,,,61,49
97980,note_on,0,0,1,,,,,,,,,0,,,93,51
97980,note_on,60,0,1,,,,,,,,,0,,,92,0
98040,note_on,0,0,1,,,,,,,,,0,,,92,51
98040,note_on,60,0,1,,,,,,,,,0,,,93,0
98100,note_on,60,0,1,,,,,,,,,0,,,92,0
98100,note_on,0,0,1,,,,,,,,,0,,,93,51
98160,note_on,240,0,2,,,,,,,,,0,,,76,0
98160,note_on,0,0,1,,,,,,,,,0,,,102,68
98160,note_on,0,0,1,,,,,,,,,0,,,92,57
98160,note_on,0,0,2,,,,,,,,,0,,,87,62
98160,note_on,60,0,1,,,,,,,,,0,,,93,0
98160,note_on,0,0,2,,,,,,,,,0,,,61,0
98160,set_tempo,240,1,0,,,,,,582524,,,,,,,
98220,note_on,60,0,1,,,,,,,,,0,,,92,0
98220,note_on,0,0,1,,,,,,,,,0,,,93,57
98280,note_on,60,0,1,,,,,,,,,0,,,93,0
98280,note_on,0,0,1,,,,,,,,,0,,,92,57
98340,note_on,0,0,1,,,,,,,,,0,,,93,57
98340,note_on,0,0,1,,,,,,,,,0,,,102,0
98340,note_on,180,0,2,,,,,,,,,0,,,87,0
98340,note_on,60,0,1,,,,,,,,,0,,,92,0
98400,note_on,60,0,1,,,,,,,,,0,,,93,0
98400,note_on,60,0,2,,,,,,,,,0,,,85,62
98400,note_on,0,0,1,,,,,,,,,0,,,92,53
98400,note_on,0,0,1,,,,,,,,,0,,,100,67
98460,note_on,60,0,1,,,,,,,,,0,,,92,0
98460,note_on,0,0,1,,,,,,,,,0,,,93,53
98520,note_on,0,0,1,,,,,,,,,0,,,92,53
98520,note_on,60,0,1,,,,,,,,,0,,,93,0
98580,note_on,60,0,1,,,,,,,,,0,,,92,0
98580,note_on,0,0,1,,,,,,,,,0,,,93,53
98580,note_on,0,0,1,,,,,,,,,0,,,100,0
98580,note_on,180,0,2,,,,,,,,,0,,,85,0
98600,set_tempo,440,1,0,,,,,,566038,,,,,,,
98640,note_on,60,0,1,,,,,,,,,0,,,93,0
98640,note_on,0,0,1,,,,,,,,,0,,,99,68
98640,note_on,0,0,2,,,,,,,,,0,,,84,66
98640,set_tempo,40,1,0,,,,,,571429,,,,,,,
98640,note_on,60,0,2,,,,,,,,,0,,,68,42
98640,note_on,0,0,1,,,,,,,,,0,,,92,57
98700,note_on,0,0,1,,,,,,,,,0,,,93,57
98700,note_on,60,0,1,,,,,,,,,0,,,92,0
98760,note_on,0,0,1,,,,,,,,,0,,,92,57
98760,note_on,60,0,1,,,,,,,,,0,,,93,0
98820,note_on,180,0,2,,,,,,,,,0,,,84,0
98820,note_on,0,0,1,,,,,,,,,0,,,99,0
98820,note_on,0,0,1,,,,,,,,,0,,,93,57
98820,note_on,60,0,1,,,,,,,,,0,,,92,0
98880,note_on,60,0,2,,,,,,,,,0,,,68,0
98880,note_on,0,0,1,,,,,,,,,0,,,97,64
98880,note_on,0,0,1,,,,,,,,,0,,,92,53
98880,note_on,60,0,1,,,,,,,,,0,,,93,0
98880,note_on,0,0,2,,,,,,,,,0,,,82,62
98880,set_tempo,240,1,0,,,,,,571429,,,,,,,
98940,note_on,60,0,1,,,,,,,,,0,,,92,0
98940,note_on,0,0,1,,,,,,,,,0,,,93,53
98960,set_tempo,80,1,0,,,,,,574163,,,,,,,
99000,note_on,0,0,1,,,,,,,,,0,,,92,53
99000,note_on,60,0,1,,,,,,,,,0,,,93,0
99040,set_tempo,80,1,0,,,,,,576923,,,,,,,
99060,note_on,0,0,1,,,,,,,,,0,,,97,0
99060,note_on,60,0,1,,,,,,,,,0,,,92,0
99060,note_on,180,0,2,,,,,,,,,0,,,82,0
99060,note_on,0,0,1,,,,,,,,,0,,,93,52
99100,set_tempo,60,1,0,,,,,,579710,,,,,,,
99120,note_on,60,0,1,,,,,,,,,0,,,93,0
99120,note_on,60,0,2,,,,,,,,,0,,,84,60
99120,note_on,0,0,1,,,,,,,,,0,,,92,52
99120,note_on,0,0,1,,,,,,,,,0,,,99,62
99180,set_tempo,80,1,0,,,,,,582524,,,,,,,
99180,note_on,60,0,1,,,,,,,,,0,,,92,0
99180,note_on,0,0,1,,,,,,,,,0,,,93,52
99240,note_on,60,0,1,,,,,,,,,0,,,93,0
99240,note_on,0,0,1,,,,,,,,,0,,,92,51
99240,set_tempo,60,1,0,,,,,,612245,,,,,,,
99300,note_on,0,0,1,,,,,,,,,0,,,93,51
99300,note_on,180,0,2,,,,,,,,,0,,,84,0
99300,note_on,0,0,1,,,,,,,,,0,,,99,0
99300,note_on,60,0,1,,,,,,,,,0,,,92,0
99360,note_on,0,0,1,,,,,,,,,0,,,92,52
99360,note_on,0,0,1,,,,,,,,,0,,,100,63
99360,set_tempo,120,1,0,,,,,,585366,,,,,,,
99360,note_on,60,0,2,,,,,,,,,0,,,73,44
99360,note_on,0,0,2,,,,,,,,,0,,,85,57
99360,note_on,60,0,1,,,,,,,,,0,,,93,0
99420,note_on,60,0,1,,,,,,,,,0,,,92,0
99420,note_on,0,0,1,,,,,,,,,0,,,93,52
99480,note_on,0,0,1,,,,,,,,,0,,,92,51
99480,note_on,60,0,1,,,,,,,,,0,,,93,0
99540,note_on,180,0,2,,,,,,,,,0,,,85,0
99540,note_on,60,0,1,,,,,,,,,0,,,92,0
99540,note_on,0,0,1,,,,,,,,,0,,,93,51
99540,note_on,0,0,1,,,,,,,,,0,,,100,0
99600,note_on,0,0,1,,,,,,,,,0,,,97,57
99600,note_on,60,0,1,,,,,,,,,0,,,93,0
99600,note_on,60,0,2,,,,,,,,,0,,,73,0
99600,note_on,0,0,1,,,,,,,,,0,,,92,57
99600,note_on,0,0,2,,,,,,,,,0,,,88,53
99600,set_tempo,240,1,0,,,,,,634921,,,,,,,
99720,note_on,120,0,2,,,,,,,,,0,,,88,0
99720,note_on,120,0,1,,,,,,,,,0,,,97,0
99720,note_on,0,0,1,,,,,,,,,0,,,92,0
99840,note_on,120,0,1,,,,,,,,,0,,,79,67
99840,set_tempo,240,1,0,,,,,,600000,,,,,,,
99900,note_on,60,0,1,,,,,,,,,0,,,91,53
99960,note_on,0,0,1,,,,,,,,,0,,,93,53
99960,note_on,60,0,1,,,,,,,,,0,,,91,0
100020,note_on,60,0,1,,,,,,,,,0,,,93,0
100020,note_on,0,0,1,,,,,,,,,0,,,91,53
100080,note_on,60,0,1,,,,,,,,,0,,,91,0
100080,set_tempo,240,1,0,,,,,,571429,,,,,,,
100080,note_on,0,0,1,,,,,,,,,0,,,78,70
100080,note_on,0,0,1,,,,,,,,,0,,,79,0
100140,note_on,60,0,1,,,,,,,,,0,,,90,57
100200,note_on,0,0,1,,,,,,,,,0,,,92,57
100200,note_on,60,0,1,,,,,,,,,0,,,90,0
100260,note_on,0,0,1,,,,,,,,,0,,,90,56
100260,note_on,60,0,1,,,,,,,,,0,,,92,0
100320,note_on,0,0,1,,,,,,,,,0,,,78,0
100320,set_tempo,240,1,0,,,,,,579710,,,,,,,
100320,note_on,60,0,1,,,,,,,,,0,,,90,0
100320,note_on,600,0,2,,,,,,,,,0,,,63,46
100320,note_on,0,0,2,,,,,,,,,0,,,78,64
100320,note_on,0,0,1,,,,,,,,,0,,,92,56
100380,note_on,60,0,1,,,,,,,,,0,,,92,0
100380,note_on,0,0,1,,,,,,,,,0,,,90,55
100400,set_tempo,80,1,0,,,,,,582524,,,,,,,
100440,note_on,60,0,1,,,,,,,,,0,,,90,0
100440,note_on,0,0,1,,,,,,,,,0,,,92,55
100480,set_tempo,80,1,0,,,,,,585366,,,,,,,
100500,note_on,0,0,1,,,,,,,,,0,,,90,53
100500,note_on,60,0,1,,,,,,,,,0,,,92,0
100540,set_tempo,60,1,0,,,,,,588235,,,,,,,
100560,note_on,240,0,2,,,,,,,,,0,,,78,0
100560,note_on,0,0,2,,,,,,,,,0,,,61,46
100560,note_on,0,0,2,,,,,,,,,0,,,63,0
100560,note_on,0,0,2,,,,,,,,,0,,,76,63
100560,note_on,0,0,1,,,,,,,,,0,,,92,53
100560,note_on,60,0,1,,,,,,,,,0,,,90,0
100608,note_on,48,0,1,,,,,,,,,0,,,92,0
100608,note_on,0,0,1,,,,,,,,,0,,,90,52
100620,set_tempo,80,1,0,,,,,,591133,,,,,,,
100656,note_on,0,0,1,,,,,,,,,0,,,92,52
100656,note_on,48,0,1,,,,,,,,,0,,,90,0
100700,set_tempo,80,1,0,,,,,,594059,,,,,,,
100704,note_on,0,0,1,,,,,,,,,0,,,90,51
100704,note_on,48,0,1,,,,,,,,,0,,,92,0
100752,note_on,48,0,1,,,,,,,,,0,,,90,0
100752,note_on,0,0,1,,,,,,,,,0,,,92,51
100800,note_on,240,0,2,,,,,,,,,0,,,76,0
100800,note_on,48,0,1,,,,,,,,,0,,,92,0
100800,set_tempo,100,1,0,,,,,,594059,,,,,,,
100800,note_on,0,0,2,,,,,,,,,0,,,75,61
100800,note_on,0,0,2,,,,,,,,,0,,,59,49
100800,note_on,0,0,1,,,,,,,,,0,,,90,51
100800,note_on,0,0,2,,,,,,,,,0,,,61,0
100860,note_on,60,0,1,,,,,,,,,0,,,90,0
100860,note_on,0,0,1,,,,,,,,,0,,,92,51
100920,note_on,60,0,1,,,,,,,,,0,,,92,0
100920,note_on,0,0,1,,,,,,,,,0,,,90,51
100980,note_on,0,0,1,,,,,,,,,0,,,92,51
100980,note_on,60,0,1,,,,,,,,,0,,,90,0
101040,note_on,60,0,1,,,,,,,,,0,,,92,0
101040,note_on,0,0,2,,,,,,,,,0,,,59,0
101040,note_on,0,0,1,,,,,,,,,0,,,90,57
101040,note_on,0,0,1,,,,,,,,,0,,,100,68
101040,set_tempo,240,1,0,,,,,,582524,,,,,,,
101040,note_on,240,0,2,,,,,,,,,0,,,75,0
101040,note_on,0,0,2,,,,,,,,,0,,,85,62
101100,note_on,0,0,1,,,,,,,,,0,,,92,57
101100,note_on,60,0,1,,,,,,,,,0,,,90,0
101160,note_on,0,0,1,,,,,,,,,0,,,90,57
101160,note_on,60,0,1,,,,,,,,,0,,,92,0
101220,note_on,180,0,2,,,,,,,,,0,,,85,0
101220,note_on,60,0,1,,,,,,,,,0,,,90,0
101220,note_on,0,0,1,,,,,,,,,0,,,100,0
101220,note_on,0,0,1,,,,,,,,,0,,,92,57
101280,note_on,60,0,2,,,,,,,,,0,,,83,62
101280,note_on,0,0,1,,,,,,,,,0,,,99,67
101280,note_on,0,0,1,,,,,,,,,0,,,90,53
101280,note_on,60,0,1,,,,,,,,,0,,,92,0
101340,note_on,0,0,1,,,,,,,,,0,,,92,53
101340,note_on,60,0,1,,,,,,,,,0,,,90,0
101400,note_on,0,0,1,,,,,,,,,0,,,90,53
101400,note_on,60,0,1,,,,,,,,,0,,,92,0
101460,note_on,60,0,1,,,,,,,,,0,,,90,0
101460,note_on,0,0,1,,,,,,,,,0,,,99,0
101460,note_on,0,0,1,,,,,,,,,0,,,92,53
101460,note_on,180,0,2,,,,,,,,,0,,,83,0
101480,set_tempo,440,1,0,,,,,,566038,,,,,,,
101520,set_tempo,40,1,0,,,,,,571429,,,,,,,
101520,note_on,60,0,1,,,,,,,,,0,,,92,0
101520,note_on,0,0,1,,,,,,,,,0,,,97,68
101520,note_on,0,0,2,,,,,,,,,0,,,82,66
101520,note_on,0,0,1,,,,,,,,,0,,,90,57
101520,note_on,60,0,2,,,,,,,,,0,,,66,42
101580,note_on,0,0,1,,,,,,,,,0,,,92,57
101580,note_on,60,0,1,,,,,,,,,0,,,90,0
101640,note_on,0,0,1,,,,,,,,,0,,,90,57
101640,note_on,60,0,1,,,,,,,,,0,,,92,0
101700,note_on,180,0,2,,,,,,,,,0,,,82,0
101700,note_on,60,0,1,,,,,,,,,0,,,90,0
101700,note_on,0,0,1,,,,,,,,,0,,,92,57
101700,note_on,0,0,1,,,,,,,,,0,,,97,0
101760,note_on,0,0,1,,,,,,,,,0,,,90,53
101760,note_on,0,0,2,,,,,,,,,0,,,80,62
101760,note_on,60,0,2,,,,,,,,,0,,,66,0
101760,note_on,0,0,1,,,,,,,,,0,,,95,64
101760,note_on,60,0,1,,,,,,,,,0,,,92,0
101760,set_tempo,240,1,0,,,,,,571429,,,,,,,
101820,note_on,60,0,1,,,,,,,,,0,,,90,0
101820,note_on,0,0,1,,,,,,,,,0,,,92,53
101840,set_tempo,80,1,0,,,,,,574163,,,,,,,
101880,note_on,60,0,1,,,,,,,,,0,,,92,0
101880,note_on,0,0,1,,,,,,,,,0,,,90,53
101920,set_tempo,80,1,0,,,,,,576923,,,,,,,
101940,note_on,0,0,1,,,,,,,,,0,,,95,0
101940,note_on,0,0,1,,,,,,,,,0,,,92,52
101940,note_on,180,0,2,,,,,,,,,0,,,80,0
101940,note_on,60,0,1,,,,,,,,,0,,,90,0
101980,set_tempo,60,1,0,,,,,,579710,,,,,,,
102000,note_on,0,0,1,,,,,,,,,0,,,97,62
102000,note_on,60,0,1,,,,,,,,,0,,,92,0
102000,note_on,60,0,2,,,,,,,,,0,,,82,60
102000,note_on,0,0,1,,,,,,,,,0,,,90,52
102060,note_on,0,0,1,,,,,,,,,0,,,92,52
102060,note_on,60,0,1,,,,,,,,,0,,,90,0
102060,set_tempo,80,1,0,,,,,,582524,,,,,,,
102120,note_on,60,0,1,,,,,,,,,0,,,92,0
102120,note_on,0,0,1,,,,,,,,,0,,,90,51
102120,set_tempo,60,1,0,,,,,,612245,,,,,,,
102180,note_on,0,0,1,,,,,,,,,0,,,92,51
102180,note_on,180,0,2,,,,,,,,,0,,,82,0
102180,note_on,60,0,1,,,,,,,,,0,,,90,0
102180,note_on,0,0,1,,,,,,,,,0,,,97,0
102240,note_on,0,0,1,,,,,,,,,0,,,90,52
102240,note_on,60,0,2,,,,,,,,,0,,,71,44
102240,set_tempo,120,1,0,,,,,,585366,,,,,,,
102240,note_on,60,0,1,,,,,,,,,0,,,92,0
102240,note_on,0,0,1,,,,,,,,,0,,,99,63
102240,note_on,0,0,2,,,,,,,,,0,,,83,57
102300,note_on,60,0,1,,,,,,,,,0,,,90,0
102300,note_on,0,0,1,,,,,,,,,0,,,92,52
102360,note_on,60,0,1,,,,,,,,,0,,,92,0
102360,note_on,0,0,1,,,,,,,,,0,,,90,52
102420,note_on,60,0,1,,,,,,,,,0,,,90,0
102420,note_on,0,0,1,,,,,,,,,0,,,99,0
102420,note_on,0,0,1,,,,,,,,,0,,,92,52
102420,note_on,180,0,2,,,,,,,,,0,,,83,0
102480,note_on,0,0,1,,,,,,,,,0,,,95,57
102480,note_on,60,0,2,,,,,,,,,0,,,71,0
102480,note_on,0,0,1,,,,,,,,,0,,,90,57
102480,note_on,0,0,2,,,,,,,,,0,,,87,53
102480,set_tempo,240,1,0,,,,,,625000,,,,,,,
102480,note_on,60,0,1,,,,,,,,,0,,,92,0
102600,note_on,0,0,1,,,,,,,,,0,,,90,0
102600,note_on,120,0,1,,,,,,,,,0,,,95,0
102600,note_on,120,0,2,,,,,,,,,0,,,87,0
102700,set_tempo,220,1,0,,,,,,612245,,,,,,,
102720,note_on,120,0,1,,,,,,,,,0,,,74,64
102780,note_on,60,0,1,,,,,,,,,0,,,86,53
102840,note_on,60,0,1,,,,,,,,,0,,,86,0
102840,note_on,0,0,1,,,,,,,,,0,,,87,53
102900,note_on,60,0,1,,,,,,,,,0,,,87,0
102900,note_on,0,0,1,,,,,,,,,0,,,86,53
102960,note_on,60,0,1,,,,,,,,,0,,,86,0
102960,note_on,0,0,1,,,,,,,,,0,,,74,0
102960,note_on,0,0,1,,,,,,,,,0,,,75,64
103020,note_on,60,0,1,,,,,,,,,0,,,87,57
103080,note_on,0,0,1,,,,,,,,,0,,,88,56
103080,note_on,60,0,1,,,,,,,,,0,,,87,0
103140,note_on,60,0,1,,,,,,,,,0,,,88,0
103140,note_on,0,0,1,,,,,,,,,0,,,87,56
103200,note_on,0,0,1,,,,,,,,,0,,,75,0
103200,note_on,0,0,2,,,,,,,,,0,,,75,50
103200,note_on,0,0,2,,,,,,,,,0,,,67,45
103200,set_tempo,500,1,0,,,,,,628272,,,,,,,
103200,note_on,60,0,1,,,,,,,,,0,,,87,0
103200,note_on,0,0,1,,,,,,,,,0,,,88,55
103200,note_on,600,0,2,,,,,,,,,0,,,63,45
103240,set_tempo,40,1,0,,,,,,631579,,,,,,,
103260,note_on,0,0,1,,,,,,,,,0,,,87,55
103260,set_tempo,20,1,0,,,,,,634921,,,,,,,
103260,note_on,60,0,1,,,,,,,,,0,,,88,0
103300,set_tempo,40,1,0,,,,,,638298,,,,,,,
103320,note_on,60,0,1,,,,,,,,,0,,,87,0
103320,note_on,0,0,1,,,,,,,,,0,,,88,53
103320,set_tempo,20,1,0,,,,,,641711,,,,,,,
103340,set_tempo,20,1,0,,,,,,645161,,,,,,,
103380,note_on,60,0,1,,,,,,,,,0,,,88,0
103380,set_tempo,40,1,0,,,,,,648649,,,,,,,
103380,note_on,0,0,1,,,,,,,,,0,,,87,53
103400,set_tempo,20,1,0,,,,,,652174,,,,,,,
103440,note_on,0,0,2,,,,,,,,,0,,,67,0
103440,note_on,0,0,2,,,,,,,,,0,,,65,42
103440,note_on,0,0,2,,,,,,,,,0,,,63,0
103440,note_on,0,0,2,,,,,,,,,0,,,74,48
103440,note_on,60,0,1,,,,,,,,,0,,,87,0
103440,set_tempo,40,1,0,,,,,,655738,,,,,,,
103440,note_on,0,0,2,,,,,,,,,0,,,68,42
103440,note_on,240,0,2,,,,,,,,,0,,,75,0
103440,note_on,0,0,1,,,,,,,,,0,,,88,52
103460,set_tempo,20,1,0,,,,,,659341,,,,,,,
103480,set_tempo,20,1,0,,,,,,662983,,,,,,,
103500,note_on,0,0,1,,,,,,,,,0,,,87,52
103500,note_on,60,0,1,,,,,,,,,0,,,88,0
103520,set_tempo,40,1,0,,,,,,666667,,,,,,,
103540,set_tempo,20,1,0,,,,,,670391,,,,,,,
103560,set_tempo,20,1,0,,,,,,718563,,,,,,,
103560,note_on,60,0,1,,,,,,,,,0,,,87,0
103560,note_on,0,0,1,,,,,,,,,0,,,88,51
103620,note_on,0,0,1,,,,,,,,,0,,,87,51
103620,note_on,60,0,1,,,,,,,,,0,,,88,0
103680,note_on,60,0,1,,,,,,,,,0,,,87,0
103680,note_on,240,0,2,,,,,,,,,0,,,74,0
103680,set_tempo,120,1,0,,,,,,597015,,,,,,,
103680,note_on,0,0,2,,,,,,,,,0,,,73,44
103680,note_on,0,0,2,,,,,,,,,0,,,70,39
103680,note_on,0,0,2,,,,,,,,,0,,,68,0
103680,note_on,0,0,2,,,,,,,,,0,,,65,0
103680,note_on,0,0,2,,,,,,,,,0,,,67,39
103682,note_on,2,0,1,,,,,,,,,0,,,88,48
103724,note_on,42,0,1,,,,,,,,,0,,,87,49
103727,note_on,3,0,1,,,,,,,,,0,,,88,0
103768,note_on,41,0,1,,,,,,,,,0,,,86,50
103769,note_on,1,0,1,,,,,,,,,0,,,87,0
103800,set_tempo,120,1,0,,,,,,594059,,,,,,,
103810,note_on,41,0,1,,,,,,,,,0,,,87,51
103813,note_on,3,0,1,,,,,,,,,0,,,86,0
103855,note_on,42,0,1,,,,,,,,,0,,,87,0
103861,note_on,6,0,1,,,,,,,,,0,,,88,52
103906,note_on,45,0,1,,,,,,,,,0,,,88,0
103908,note_on,2,0,1,,,,,,,,,0,,,89,53
103920,set_tempo,120,1,0,,,,,,591133,,,,,,,
103920,note_on,0,0,2,,,,,,,,,0,,,67,0
103920,note_on,240,0,2,,,,,,,,,0,,,73,0
103920,note_on,0,0,2,,,,,,,,,0,,,70,0
103953,note_on,45,0,1,,,,,,,,,0,,,89,0
103953,note_on,0,0,1,,,,,,,,,0,,,90,55
103995,note_on,42,0,1,,,,,,,,,0,,,91,56
103998,note_on,3,0,1,,,,,,,,,0,,,90,0
104038,note_on,40,0,1,,,,,,,,,0,,,92,57
104040,set_tempo,120,1,0,,,,,,588235,,,,,,,
104040,note_on,2,0,1,,,,,,,,,0,,,91,0
104083,note_on,43,0,1,,,,,,,,,0,,,92,0
104089,note_on,6,0,1,,,,,,,,,0,,,94,58
104132,note_on,43,0,1,,,,,,,,,0,,,95,61
104134,note_on,2,0,1,,,,,,,,,0,,,94,0
104160,set_tempo,120,1,0,,,,,,585366,,,,,,,
104177,note_on,43,0,1,,,,,,,,,0,,,95,0
104180,note_on,3,0,1,,,,,,,,,0,,,95,62
104225,note_on,0,0,1,,,,,,,,,0,,,96,63
104225,note_on,45,0,1,,,,,,,,,0,,,95,0
104265,note_on,40,0,1,,,,,,,,,0,,,97,64
104270,note_on,5,0,1,,,,,,,,,0,,,96,0
104280,set_tempo,120,1,0,,,,,,582524,,,,,,,
104306,note_on,36,0,1,,,,,,,,,0,,,98,66
104310,note_on,4,0,1,,,,,,,,,0,,,97,0
104351,note_on,41,0,1,,,,,,,,,0,,,98,0
104355,note_on,4,0,1,,,,,,,,,0,,,99,67
104380,set_tempo,100,1,0,,,,,,576923,,,,,,,
104397,note_on,42,0,1,,,,,,,,,0,,,100,68
104400,note_on,0,0,2,,,,,,,,,0,,,71,48
104400,note_on,0,0,2,,,,,,,,,0,,,76,53
104400,note_on,480,0,2,,,,,,,,,0,,,68,48
104400,note_on,3,0,1,,,,,,,,,0,,,99,0
104445,note_on,45,0,1,,,,,,,,,0,,,100,0
104452,note_on,7,0,1,,,,,,,,,0,,,102,67
104493,note_on,41,0,1,,,,,,,,,0,,,100,67
104500,note_on,7,0,1,,,,,,,,,0,,,102,0
104520,set_tempo,140,1,0,,,,,,579710,,,,,,,
104541,note_on,41,0,1,,,,,,,,,0,,,100,0
104547,note_on,6,0,1,,,,,,,,,0,,,99,66
104595,note_on,48,0,1,,,,,,,,,0,,,99,0
104596,note_on,1,0,1,,,,,,,,,0,,,98,64
104640,set_tempo,120,1,0,,,,,,582524,,,,,,,
104640,note_on,0,0,2,,,,,,,,,0,,,68,0
104640,note_on,240,0,2,,,,,,,,,0,,,76,0
104640,note_on,0,0,2,,,,,,,,,0,,,71,0
104644,note_on,48,0,1,,,,,,,,,0,,,98,0
104645,note_on,1,0,1,,,,,,,,,0,,,97,63
104693,note_on,0,0,1,,,,,,,,,0,,,96,62
104693,note_on,48,0,1,,,,,,,,,0,,,97,0
104737,note_on,44,0,1,,,,,,,,,0,,,95,61
104741,note_on,4,0,1,,,,,,,,,0,,,96,0
104760,set_tempo,120,1,0,,,,,,585366,,,,,,,
104783,note_on,42,0,1,,,,,,,,,0,,,94,60
104785,note_on,2,0,1,,,,,,,,,0,,,95,0
104829,note_on,44,0,1,,,,,,,,,0,,,93,58
104831,note_on,2,0,1,,,,,,,,,0,,,94,0
104877,note_on,46,0,1,,,,,,,,,0,,,93,0
104878,note_on,1,0,1,,,,,,,,,0,,,92,57
104900,set_tempo,140,1,0,,,,,,588235,,,,,,,
104926,note_on,48,0,1,,,,,,,,,0,,,92,0
104932,note_on,6,0,1,,,,,,,,,0,,,91,56
104971,note_on,39,0,1,,,,,,,,,0,,,90,55
104980,note_on,9,0,1,,,,,,,,,0,,,91,0
105019,note_on,39,0,1,,,,,,,,,0,,,90,0
105020,set_tempo,120,1,0,,,,,,591133,,,,,,,
105023,note_on,4,0,1,,,,,,,,,0,,,89,53
105060,note_on,420,0,2,,,,,,,,,0,,,63,44
105068,note_on,45,0,1,,,,,,,,,0,,,88,52
105071,note_on,3,0,1,,,,,,,,,0,,,89,0
105116,note_on,45,0,1,,,,,,,,,0,,,88,0
105120,note_on,60,0,2,,,,,,,,,0,,,79,55
105120,note_on,4,0,1,,,,,,,,,0,,,87,52
105140,set_tempo,120,1,0,,,,,,594059,,,,,,,
105360,note_on,240,0,1,,,,,,,,,0,,,87,0
105360,note_on,240,0,2,,,,,,,,,0,,,79,0
105360,note_on,0,0,1,,,,,,,,,0,,,70,64
105360,note_on,0,0,2,,,,,,,,,0,,,63,0
105360,set_tempo,220,1,0,,,,,,597015,,,,,,,
105420,note_on,60,0,1,,,,,,,,,0,,,82,53
105480,note_on,60,0,1,,,,,,,,,0,,,82,0
105480,note_on,0,0,1,,,,,,,,,0,,,83,53
105540,note_on,0,0,1,,,,,,,,,0,,,82,53
105540,note_on,60,0,1,,,,,,,,,0,,,83,0
105600,note_on,60,0,1,,,,,,,,,0,,,82,0
105600,note_on,0,0,1,,,,,,,,,0,,,74,64
105600,set_tempo,240,1,0,,,,,,600000,,,,,,,
105600,note_on,0,0,1,,,,,,,,,0,,,70,0
105660,note_on,60,0,1,,,,,,,,,0,,,86,53
105720,note_on,0,0,1,,,,,,,,,0,,,87,53
105720,note_on,60,0,1,,,,,,,,,0,,,86,0
105780,note_on,0,0,1,,,,,,,,,0,,,86,53
105780,note_on,60,0,1,,,,,,,,,0,,,87,0
105840,note_on,0,0,1,,,,,,,,,0,,,74,0
105840,note_on,0,0,1,,,,,,,,,0,,,75,64
105840,note_on,60,0,1,,,,,,,,,0,,,86,0
105900,note_on,60,0,1,,,,,,,,,0,,,87,57
105960,note_on,60,0,1,,,,,,,,,0,,,87,0
105960,note_on,0,0,1,,,,,,,,,0,,,88,56
106020,note_on,60,0,1,,,,,,,,,0,,,88,0
106020,note_on,0,0,1,,,,,,,,,0,,,87,56
106080,note_on,0,0,2,,,,,,,,,0,,,67,45
106080,set_tempo,480,1,0,,,,,,628272,,,,,,,
106080,note_on,0,0,1,,,,,,,,,0,,,75,0
106080,note_on,60,0,1,,,,,,,,,0,,,87,0
106080,note_on,720,0,2,,,,,,,,,0,,,63,45
106080,note_on,0,0,1,,,,,,,,,0,,,88,55
106080,note_on,0,0,2,,,,,,,,,0,,,75,50
106120,set_tempo,40,1,0,,,,,,631579,,,,,,,
106140,note_on,60,0,1,,,,,,,,,0,,,88,0
106140,note_on,0,0,1,,,,,,,,,0,,,87,55
106140,set_tempo,20,1,0,,,,,,634921,,,,,,,
106180,set_tempo,40,1,0,,,,,,638298,,,,,,,
106200,set_tempo,20,1,0,,,,,,641711,,,,,,,
106200,note_on,60,0,1,,,,,,,,,0,,,87,0
106200,note_on,0,0,1,,,,,,,,,0,,,88,53
106220,set_tempo,20,1,0,,,,,,645161,,,,,,,
106260,note_on,0,0,1,,,,,,,,,0,,,87,53
106260,note_on,60,0,1,,,,,,,,,0,,,88,0
106260,set_tempo,40,1,0,,,,,,648649,,,,,,,
106280,set_tempo,20,1,0,,,,,,652174,,,,,,,
106320,note_on,0,0,1,,,,,,,,,0,,,88,52
106320,set_tempo,40,1,0,,,,,,655738,,,,,,,
106320,note_on,60,0,1,,,,,,,,,0,,,87,0
106320,note_on,0,0,2,,,,,,,,,0,,,74,48
106320,note_on,240,0,2,,,,,,,,,0,,,75,0
106320,note_on,0,0,2,,,,,,,,,0,,,68,42
106320,note_on,0,0,2,,,,,,,,,0,,,67,0
106320,note_on,0,0,2,,,,,,,,,0,,,65,42
106320,note_on,0,0,2,,,,,,,,,0,,,63,0
106340,set_tempo,20,1,0,,,,,,659341,,,,,,,
106360,set_tempo,20,1,0,,,,,,662983,,,,,,,
106380,note_on,0,0,1,,,,,,,,,0,,,87,52
106380,note_on,60,0,1,,,,,,,,,0,,,88,0
106400,set_tempo,40,1,0,,,,,,666667,,,,,,,
106420,set_tempo,20,1,0,,,,,,670391,,,,,,,
106440,note_on,60,0,1,,,,,,,,,0,,,87,0
106440,set_tempo,20,1,0,,,,,,718563,,,,,,,
106440,note_on,0,0,1,,,,,,,,,0,,,88,51
106500,note_on,0,0,1,,,,,,,,,0,,,87,51
106500,note_on,60,0,1,,,,,,,,,0,,,88,0
106560,note_on,0,0,2,,,,,,,,,0,,,73,44
106560,note_on,240,0,2,,,,,,,,,0,,,74,0
106560,note_on,60,0,1,,,,,,,,,0,,,87,0
106560,note_on,0,0,2,,,,,,,,,0,,,65,0
106560,note_on,0,0,2,,,,,,,,,0,,,68,0
106560,set_tempo,120,1,0,,,,,,600000,,,,,,,
106560,note_on,0,0,2,,,,,,,,,0,,,70,39
106560,note_on,0,0,2,,,,,,,,,0,,,67,39
106562,note_on,2,0,1,,,,,,,,,0,,,88,48
106600,note_on,38,0,1,,,,,,,,,0,,,87,49
106607,note_on,7,0,1,,,,,,,,,0,,,88,0
106645,note_on,0,0,1,,,,,,,,,0,,,86,50
106645,note_on,38,0,1,,,,,,,,,0,,,87,0
106680,set_tempo,120,1,0,,,,,,597015,,,,,,,
106690,note_on,45,0,1,,,,,,,,,0,,,86,0
106700,note_on,10,0,1,,,,,,,,,0,,,87,51
106738,note_on,38,0,1,,,,,,,,,0,,,88,52
106745,note_on,7,0,1,,,,,,,,,0,,,87,0
106780,set_tempo,100,1,0,,,,,,594059,,,,,,,
106783,note_on,38,0,1,,,,,,,,,0,,,88,0
106783,note_on,0,0,1,,,,,,,,,0,,,89,53
106800,note_on,240,0,2,,,,,,,,,0,,,73,0
106800,note_on,0,0,2,,,,,,,,,0,,,70,0
106800,note_on,0,0,2,,,,,,,,,0,,,67,0
106828,note_on,45,0,1,,,,,,,,,0,,,89,0
106831,note_on,3,0,1,,,,,,,,,0,,,90,55
106876,note_on,45,0,1,,,,,,,,,0,,,90,0
106877,note_on,1,0,1,,,,,,,,,0,,,91,56
106880,set_tempo,100,1,0,,,,,,591133,,,,,,,
106922,note_on,45,0,1,,,,,,,,,0,,,91,0
106924,note_on,2,0,1,,,,,,,,,0,,,92,57
106967,note_on,43,0,1,,,,,,,,,0,,,93,58
106969,note_on,2,0,1,,,,,,,,,0,,,92,0
106980,set_tempo,100,1,0,,,,,,588235,,,,,,,
107010,note_on,41,0,1,,,,,,,,,0,,,94,61
107012,note_on,2,0,1,,,,,,,,,0,,,93,0
107052,note_on,40,0,1,,,,,,,,,0,,,95,62
107055,note_on,3,0,1,,,,,,,,,0,,,94,0
107080,set_tempo,100,1,0,,,,,,585366,,,,,,,
107097,note_on,42,0,1,,,,,,,,,0,,,95,0
107103,note_on,6,0,1,,,,,,,,,0,,,96,63
107145,note_on,42,0,1,,,,,,,,,0,,,97,64
107148,note_on,3,0,1,,,,,,,,,0,,,96,0
107180,set_tempo,100,1,0,,,,,,582524,,,,,,,
107190,note_on,0,0,1,,,,,,,,,0,,,98,66
107190,note_on,42,0,1,,,,,,,,,0,,,97,0
107235,note_on,45,0,1,,,,,,,,,0,,,98,0
107240,note_on,5,0,1,,,,,,,,,0,,,99,67
107280,set_tempo,100,1,0,,,,,,579710,,,,,,,
107280,note_on,480,0,2,,,,,,,,,0,,,68,48
107280,note_on,0,0,2,,,,,,,,,0,,,76,53
107280,note_on,0,0,2,,,,,,,,,0,,,71,48
107283,note_on,43,0,1,,,,,,,,,0,,,100,68
107285,note_on,2,0,1,,,,,,,,,0,,,99,0
107324,note_on,39,0,1,,,,,,,,,0,,,102,67
107331,note_on,7,0,1,,,,,,,,,0,,,100,0
107372,note_on,41,0,1,,,,,,,,,0,,,102,0
107377,note_on,5,0,1,,,,,,,,,0,,,100,67
107423,note_on,46,0,1,,,,,,,,,0,,,99,66
107425,note_on,2,0,1,,,,,,,,,0,,,100,0
107440,set_tempo,160,1,0,,,,,,582524,,,,,,,
107471,note_on,46,0,1,,,,,,,,,0,,,99,0
107475,note_on,4,0,1,,,,,,,,,0,,,98,64
107520,note_on,0,0,2,,,,,,,,,0,,,68,0
107520,note_on,0,0,2,,,,,,,,,0,,,71,0
107520,note_on,240,0,2,,,,,,,,,0,,,76,0
107521,note_on,46,0,1,,,,,,,,,0,,,97,63
107523,note_on,2,0,1,,,,,,,,,0,,,98,0
107569,note_on,46,0,1,,,,,,,,,0,,,97,0
107569,note_on,0,0,1,,,,,,,,,0,,,96,62
107580,set_tempo,140,1,0,,,,,,585366,,,,,,,
107614,note_on,45,0,1,,,,,,,,,0,,,95,61
107617,note_on,3,0,1,,,,,,,,,0,,,96,0
107660,note_on,43,0,1,,,,,,,,,0,,,94,60
107662,note_on,2,0,1,,,,,,,,,0,,,95,0
107708,note_on,46,0,1,,,,,,,,,0,,,94,0
107709,note_on,1,0,1,,,,,,,,,0,,,93,58
107720,set_tempo,140,1,0,,,,,,588235,,,,,,,
107757,note_on,48,0,1,,,,,,,,,0,,,93,0
107759,note_on,2,0,1,,,,,,,,,0,,,92,57
107807,note_on,48,0,1,,,,,,,,,0,,,92,0
107811,note_on,4,0,1,,,,,,,,,0,,,91,56
107856,note_on,45,0,1,,,,,,,,,0,,,90,55
107859,note_on,3,0,1,,,,,,,,,0,,,91,0
107860,set_tempo,140,1,0,,,,,,591133,,,,,,,
107904,note_on,45,0,1,,,,,,,,,0,,,90,0
107909,note_on,5,0,1,,,,,,,,,0,,,89,53
107955,note_on,46,0,1,,,,,,,,,0,,,88,52
107957,note_on,2,0,1,,,,,,,,,0,,,89,0
107998,note_on,41,0,1,,,,,,,,,0,,,87,48
108000,note_on,0,0,2,,,,,,,,,0,,,70,39
108000,note_on,480,0,2,,,,,,,,,0,,,79,44
108000,set_tempo,140,1,0,,,,,,600000,,,,,,,
108000,note_on,0,0,2,,,,,,,,,0,,,73,39
108003,note_on,5,0,1,,,,,,,,,0,,,88,0
108044,note_on,41,0,1,,,,,,,,,0,,,88,48
108046,note_on,2,0,1,,,,,,,,,0,,,87,0
108086,note_on,40,0,1,,,,,,,,,0,,,88,0
108092,note_on,6,0,1,,,,,,,,,0,,,87,49
108120,set_tempo,120,1,0,,,,,,597015,,,,,,,
108132,note_on,40,0,1,,,,,,,,,0,,,86,50
108134,note_on,2,0,1,,,,,,,,,0,,,87,0
108169,note_on,35,0,1,,,,,,,,,0,,,87,51
108174,note_on,5,0,1,,,,,,,,,0,,,86,0
108211,note_on,37,0,1,,,,,,,,,0,,,87,0
108218,note_on,7,0,1,,,,,,,,,0,,,88,52
108220,set_tempo,100,1,0,,,,,,594059,,,,,,,
108240,note_on,0,0,2,,,,,,,,,0,,,79,0
108240,note_on,240,0,2,,,,,,,,,0,,,73,0
108240,note_on,0,0,2,,,,,,,,,0,,,70,0
108258,note_on,40,0,1,,,,,,,,,0,,,89,53
108260,note_on,2,0,1,,,,,,,,,0,,,88,0
108296,note_on,36,0,1,,,,,,,,,0,,,90,55
108300,note_on,4,0,1,,,,,,,,,0,,,89,0
108320,set_tempo,100,1,0,,,,,,591133,,,,,,,
108338,note_on,38,0,1,,,,,,,,,0,,,90,0
108347,note_on,9,0,1,,,,,,,,,0,,,91,56
108380,note_on,33,0,1,,,,,,,,,0,,,92,57
108389,note_on,9,0,1,,,,,,,,,0,,,91,0
108420,set_tempo,100,1,0,,,,,,588235,,,,,,,
108422,note_on,33,0,1,,,,,,,,,0,,,92,0
108430,note_on,8,0,1,,,,,,,,,0,,,93,58
108470,note_on,40,0,1,,,,,,,,,0,,,94,61
108472,note_on,2,0,1,,,,,,,,,0,,,93,0
108508,note_on,36,0,1,,,,,,,,,0,,,95,62
108512,note_on,4,0,1,,,,,,,,,0,,,94,0
108520,set_tempo,100,1,0,,,,,,585366,,,,,,,
108550,note_on,38,0,1,,,,,,,,,0,,,95,0
108551,note_on,1,0,1,,,,,,,,,0,,,96,63
108589,note_on,38,0,1,,,,,,,,,0,,,97,64
108593,note_on,4,0,1,,,,,,,,,0,,,96,0
108620,set_tempo,100,1,0,,,,,,582524,,,,,,,
108631,note_on,38,0,1,,,,,,,,,0,,,97,0
108641,note_on,10,0,1,,,,,,,,,0,,,98,66
108680,note_on,39,0,1,,,,,,,,,0,,,99,67
108683,note_on,3,0,1,,,,,,,,,0,,,98,0
108716,note_on,33,0,1,,,,,,,,,0,,,100,68
108720,set_tempo,100,1,0,,,,,,579710,,,,,,,
108720,note_on,0,0,2,,,,,,,,,0,,,71,53
108720,note_on,480,0,2,,,,,,,,,0,,,56,48
108722,note_on,6,0,1,,,,,,,,,0,,,99,0
108764,note_on,42,0,1,,,,,,,,,0,,,100,0
108772,note_on,8,0,1,,,,,,,,,0,,,102,67
108820,note_on,0,0,1,,,,,,,,,0,,,100,67
108820,note_on,48,0,1,,,,,,,,,0,,,102,0
108865,note_on,45,0,1,,,,,,,,,0,,,99,66
108868,note_on,3,0,1,,,,,,,,,0,,,100,0
108880,set_tempo,160,1,0,,,,,,582524,,,,,,,
108909,note_on,41,0,1,,,,,,,,,0,,,98,64
108913,note_on,4,0,1,,,,,,,,,0,,,99,0
108956,note_on,43,0,1,,,,,,,,,0,,,97,63
108957,note_on,1,0,1,,,,,,,,,0,,,98,0
108960,note_on,240,0,2,,,,,,,,,0,,,71,0
108960,note_on,0,0,2,,,,,,,,,0,,,56,0
109004,note_on,47,0,1,,,,,,,,,0,,,97,0
109011,note_on,7,0,1,,,,,,,,,0,,,96,62
109020,set_tempo,140,1,0,,,,,,585366,,,,,,,
109056,note_on,45,0,1,,,,,,,,,0,,,95,61
109059,note_on,3,0,1,,,,,,,,,0,,,96,0
109100,note_on,41,0,1,,,,,,,,,0,,,94,60
109104,note_on,4,0,1,,,,,,,,,0,,,95,0
109148,note_on,44,0,1,,,,,,,,,0,,,94,0
109152,note_on,4,0,1,,,,,,,,,0,,,93,58
109160,set_tempo,140,1,0,,,,,,588235,,,,,,,
109200,note_on,48,0,1,,,,,,,,,0,,,93,0
109203,note_on,3,0,1,,,,,,,,,0,,,92,57
109247,note_on,44,0,1,,,,,,,,,0,,,91,56
109251,note_on,4,0,1,,,,,,,,,0,,,92,0
109294,note_on,43,0,1,,,,,,,,,0,,,90,55
109295,note_on,1,0,1,,,,,,,,,0,,,91,0
109300,set_tempo,140,1,0,,,,,,591133,,,,,,,
109342,note_on,47,0,1,,,,,,,,,0,,,90,0
109345,note_on,3,0,1,,,,,,,,,0,,,89,53
109393,note_on,48,0,1,,,,,,,,,0,,,89,0
109394,note_on,1,0,1,,,,,,,,,0,,,88,52
109440,set_tempo,0,1,0,,,,,,600000,,,,,,,
109440,time_signature,140,1,0,3,8,12,8,,,,,,,,,
109440,note_on,0,0,2,,,,,,,,,0,,,67,44
109440,note_on,480,0,2,,,,,,,,,0,,,51,44
109442,note_on,48,0,1,,,,,,,,,0,,,88,0
109443,note_on,1,0,1,,,,,,,,,0,,,87,48
109490,note_on,47,0,1,,,,,,,,,0,,,88,48
109491,note_on,1,0,1,,,,,,,,,0,,,87,0
109530,note_on,39,0,1,,,,,,,,,0,,,87,49
109532,note_on,2,0,1,,,,,,,,,0,,,88,0
109560,set_tempo,120,1,0,,,,,,597015,,,,,,,
109568,note_on,36,0,1,,,,,,,,,0,,,86,50
109572,note_on,4,0,1,,,,,,,,,0,,,87,0
109610,note_on,38,0,1,,,,,,,,,0,,,86,0
109613,note_on,3,0,1,,,,,,,,,0,,,87,51
109655,note_on,42,0,1,,,,,,,,,0,,,87,0
109660,note_on,5,0,1,,,,,,,,,0,,,88,52
109660,set_tempo,100,1,0,,,,,,594059,,,,,,,
109680,note_on,240,0,2,,,,,,,,,0,,,67,0
109680,note_on,0,0,2,,,,,,,,,0,,,51,0
109693,note_on,33,0,1,,,,,,,,,0,,,89,53
109702,note_on,9,0,1,,,,,,,,,0,,,88,0
109735,note_on,33,0,1,,,,,,,,,0,,,89,0
109740,note_on,5,0,1,,,,,,,,,0,,,90,55
109760,set_tempo,100,1,0,,,,,,591133,,,,,,,
109782,note_on,42,0,1,,,,,,,,,0,,,90,0
109784,note_on,2,0,1,,,,,,,,,0,,,91,56
109823,note_on,39,0,1,,,,,,,,,0,,,92,57
109826,note_on,3,0,1,,,,,,,,,0,,,91,0
109860,set_tempo,100,1,0,,,,,,588235,,,,,,,
109862,note_on,36,0,1,,,,,,,,,0,,,93,58
109865,note_on,3,0,1,,,,,,,,,0,,,92,0
109904,note_on,39,0,1,,,,,,,,,0,,,93,0
109913,note_on,9,0,1,,,,,,,,,0,,,94,61
109955,note_on,42,0,1,,,,,,,,,0,,,94,0
109955,note_on,0,0,1,,,,,,,,,0,,,95,62
109960,set_tempo,100,1,0,,,,,,585366,,,,,,,
109993,note_on,38,0,1,,,,,,,,,0,,,96,63
109997,note_on,4,0,1,,,,,,,,,0,,,95,0
110032,note_on,35,0,1,,,,,,,,,0,,,97,64
110035,note_on,3,0,1,,,,,,,,,0,,,96,0
110060,set_tempo,100,1,0,,,,,,582524,,,,,,,
110074,note_on,39,0,1,,,,,,,,,0,,,97,0
110076,note_on,2,0,1,,,,,,,,,0,,,98,66
110117,note_on,41,0,1,,,,,,,,,0,,,99,67
110118,note_on,1,0,1,,,,,,,,,0,,,98,0
110159,note_on,41,0,1,,,,,,,,,0,,,99,0
110160,time_signature,100,1,0,6,8,12,8,,,,,,,,,
110160,note_on,480,0,2,,,,,,,,,0,,,44,70
110160,marker,0,1,0,,,,,,,,,,,,,
110160,note_on,0,0,2,,,,,,,,,0,,,59,70
110160,set_tempo,0,1,0,,,,,,552995,,,,,,,
110164,note_on,5,0,1,,,,,,,,,0,,,100,75
110218,note_on,54,0,1,,,,,,,,,0,,,102,70
110224,note_on,6,0,1,,,,,,,,,0,,,100,0
110278,note_on,54,0,1,,,,,,,,,0,,,102,0
110280,note_on,2,0,1,,,,,,,,,0,,,100,70
110337,note_on,57,0,1,,,,,,,,,0,,,99,70
110340,note_on,3,0,1,,,,,,,,,0,,,100,0
110397,note_on,57,0,1,,,,,,,,,0,,,99,0
110400,note_on,240,0,2,,,,,,,,,0,,,59,0
110400,note_on,0,0,2,,,,,,,,,0,,,44,0
110405,note_on,8,0,1,,,,,,,,,0,,,98,75
110458,note_on,53,0,1,,,,,,,,,0,,,99,70
110465,note_on,7,0,1,,,,,,,,,0,,,98,0
110518,note_on,53,0,1,,,,,,,,,0,,,99,0
110523,note_on,5,0,1,,,,,,,,,0,,,98,70
110581,note_on,58,0,1,,,,,,,,,0,,,97,70
110583,note_on,2,0,1,,,,,,,,,0,,,98,0
110637,note_on,54,0,1,,,,,,,,,0,,,96,75
110641,note_on,4,0,1,,,,,,,,,0,,,97,0
110697,note_on,56,0,1,,,,,,,,,0,,,96,0
110703,note_on,6,0,1,,,,,,,,,0,,,97,70
110763,note_on,60,0,1,,,,,,,,,0,,,97,0
110764,note_on,1,0,1,,,,,,,,,0,,,96,70
110819,note_on,55,0,1,,,,,,,,,0,,,95,70
110824,note_on,5,0,1,,,,,,,,,0,,,96,0
110879,note_on,55,0,1,,,,,,,,,0,,,95,0
110880,note_on,1,0,1,,,,,,,,,0,,,94,75
110940,note_on,60,0,1,,,,,,,,,0,,,94,0
110944,note_on,4,0,1,,,,,,,,,0,,,95,70
110995,note_on,51,0,1,,,,,,,,,0,,,94,70
111004,note_on,9,0,1,,,,,,,,,0,,,95,0
111055,note_on,51,0,1,,,,,,,,,0,,,94,0
111065,note_on,10,0,1,,,,,,,,,0,,,93,70
111121,note_on,56,0,1,,,,,,,,,0,,,92,75
111125,note_on,4,0,1,,,,,,,,,0,,,93,0
111175,note_on,50,0,1,,,,,,,,,0,,,93,70
111181,note_on,6,0,1,,,,,,,,,0,,,92,0
111235,note_on,54,0,1,,,,,,,,,0,,,93,0
111240,note_on,5,0,1,,,,,,,,,0,,,92,70
111297,note_on,57,0,1,,,,,,,,,0,,,91,70
111300,note_on,3,0,1,,,,,,,,,0,,,92,0
111357,note_on,57,0,1,,,,,,,,,0,,,91,0
111364,note_on,7,0,1,,,,,,,,,0,,,90,69
111421,note_on,57,0,1,,,,,,,,,0,,,91,68
111424,note_on,3,0,1,,,,,,,,,0,,,90,0
111481,note_on,57,0,1,,,,,,,,,0,,,91,0
111482,note_on,1,0,1,,,,,,,,,0,,,90,68
111537,note_on,55,0,1,,,,,,,,,0,,,89,68
111542,note_on,5,0,1,,,,,,,,,0,,,90,0
111597,note_on,55,0,1,,,,,,,,,0,,,89,0
111604,note_on,7,0,1,,,,,,,,,0,,,88,68
111656,note_on,52,0,1,,,,,,,,,0,,,90,66
111664,note_on,8,0,1,,,,,,,,,0,,,88,0
111716,note_on,52,0,1,,,,,,,,,0,,,90,0
111716,note_on,0,0,1,,,,,,,,,0,,,88,66
111776,note_on,60,0,1,,,,,,,,,0,,,88,0
111783,note_on,7,0,1,,,,,,,,,0,,,87,66
111838,note_on,55,0,1,,,,,,,,,0,,,86,67
111843,note_on,5,0,1,,,,,,,,,0,,,87,0
111898,note_on,55,0,1,,,,,,,,,0,,,86,0
111905,note_on,7,0,1,,,,,,,,,0,,,87,63
111958,note_on,53,0,1,,,,,,,,,0,,,86,63
111965,note_on,7,0,1,,,,,,,,,0,,,87,0
112018,note_on,53,0,1,,,,,,,,,0,,,86,0
112018,note_on,0,0,1,,,,,,,,,0,,,85,63
112076,note_on,58,0,1,,,,,,,,,0,,,84,66
112078,note_on,2,0,1,,,,,,,,,0,,,85,0
112136,note_on,58,0,1,,,,,,,,,0,,,84,0
112143,note_on,7,0,1,,,,,,,,,0,,,85,63
112203,note_on,60,0,1,,,,,,,,,0,,,85,0
112204,note_on,1,0,1,,,,,,,,,0,,,84,63
112262,note_on,58,0,1,,,,,,,,,0,,,83,63
112264,note_on,2,0,1,,,,,,,,,0,,,84,0
112321,note_on,57,0,1,,,,,,,,,0,,,82,64
112322,note_on,1,0,1,,,,,,,,,0,,,83,0
112381,note_on,59,0,1,,,,,,,,,0,,,82,0
112383,note_on,2,0,1,,,,,,,,,0,,,83,61
112437,note_on,54,0,1,,,,,,,,,0,,,82,61
112443,note_on,6,0,1,,,,,,,,,0,,,83,0
112496,note_on,53,0,1,,,,,,,,,0,,,81,61
112497,note_on,1,0,1,,,,,,,,,0,,,82,0
112555,note_on,58,0,1,,,,,,,,,0,,,80,63
112556,note_on,1,0,1,,,,,,,,,0,,,81,0
112615,note_on,0,0,1,,,,,,,,,0,,,81,60
112615,note_on,59,0,1,,,,,,,,,0,,,80,0
112675,note_on,60,0,1,,,,,,,,,0,,,81,0
112683,note_on,8,0,1,,,,,,,,,0,,,80,60
112743,note_on,60,0,1,,,,,,,,,0,,,80,0
112744,note_on,1,0,1,,,,,,,,,0,,,79,60
112797,note_on,53,0,1,,,,,,,,,0,,,78,62
112804,note_on,7,0,1,,,,,,,,,0,,,79,0
112856,note_on,52,0,1,,,,,,,,,0,,,79,58
112857,note_on,1,0,1,,,,,,,,,0,,,78,0
112916,note_on,59,0,1,,,,,,,,,0,,,79,0
112921,note_on,5,0,1,,,,,,,,,0,,,78,58
112975,note_on,54,0,1,,,,,,,,,0,,,77,58
112981,note_on,6,0,1,,,,,,,,,0,,,78,0
113035,note_on,54,0,1,,,,,,,,,0,,,77,0
113036,note_on,1,0,1,,,,,,,,,0,,,76,62
113096,note_on,60,0,1,,,,,,,,,0,,,76,0
113099,note_on,3,0,1,,,,,,,,,0,,,78,58
113159,note_on,60,0,1,,,,,,,,,0,,,78,0
113163,note_on,4,0,1,,,,,,,,,0,,,76,58
113222,note_on,59,0,1,,,,,,,,,0,,,75,58
113223,note_on,1,0,1,,,,,,,,,0,,,76,0
113280,note_on,57,0,1,,,,,,,,,0,,,74,61
113282,note_on,2,0,1,,,,,,,,,0,,,75,0
113335,note_on,53,0,1,,,,,,,,,0,,,75,57
113340,note_on,5,0,1,,,,,,,,,0,,,74,0
113395,note_on,55,0,1,,,,,,,,,0,,,75,0
113399,note_on,4,0,1,,,,,,,,,0,,,74,57
113457,note_on,58,0,1,,,,,,,,,0,,,73,57
113459,note_on,2,0,1,,,,,,,,,0,,,74,0
113517,note_on,58,0,1,,,,,,,,,0,,,73,0
113522,note_on,5,0,1,,,,,,,,,0,,,72,60
113578,note_on,56,0,1,,,,,,,,,0,,,73,56
113582,note_on,4,0,1,,,,,,,,,0,,,72,0
113638,note_on,56,0,1,,,,,,,,,0,,,73,0
113639,note_on,1,0,1,,,,,,,,,0,,,72,56
113697,note_on,58,0,1,,,,,,,,,0,,,71,56
113699,note_on,2,0,1,,,,,,,,,0,,,72,0
113740,set_tempo,3580,1,0,,,,,,550459,,,,,,,
113757,note_on,58,0,1,,,,,,,,,0,,,71,0
113761,note_on,4,0,1,,,,,,,,,0,,,70,58
113820,set_tempo,80,1,0,,,,,,552995,,,,,,,
113820,note_on,59,0,1,,,,,,,,,0,,,71,55
113821,note_on,1,0,1,,,,,,,,,0,,,70,0
113880,note_on,59,0,1,,,,,,,,,0,,,71,0
113881,note_on,1,0,1,,,,,,,,,0,,,70,55
113900,set_tempo,80,1,0,,,,,,555556,,,,,,,
113936,note_on,55,0,1,,,,,,,,,0,,,69,55
113941,note_on,5,0,1,,,,,,,,,0,,,70,0
113980,set_tempo,80,1,0,,,,,,558140,,,,,,,
113996,note_on,55,0,1,,,,,,,,,0,,,69,0
114000,note_on,4,0,1,,,,,,,,,0,,,68,57
114040,set_tempo,60,1,0,,,,,,560748,,,,,,,
114060,note_on,60,0,1,,,,,,,,,0,,,68,0
114065,note_on,5,0,1,,,,,,,,,0,,,69,53
114120,set_tempo,80,1,0,,,,,,563380,,,,,,,
114122,note_on,57,0,1,,,,,,,,,0,,,68,53
114125,note_on,3,0,1,,,,,,,,,0,,,69,0
114182,note_on,57,0,1,,,,,,,,,0,,,68,0
114185,note_on,3,0,1,,,,,,,,,0,,,67,53
114200,set_tempo,80,1,0,,,,,,566038,,,,,,,
114237,note_on,52,0,1,,,,,,,,,0,,,66,56
114245,note_on,8,0,1,,,,,,,,,0,,,67,0
114260,set_tempo,60,1,0,,,,,,568720,,,,,,,
114297,note_on,52,0,1,,,,,,,,,0,,,66,0
114298,note_on,1,0,1,,,,,,,,,0,,,67,52
114340,set_tempo,80,1,0,,,,,,571429,,,,,,,
114356,note_on,58,0,1,,,,,,,,,0,,,66,52
114358,note_on,2,0,1,,,,,,,,,0,,,67,0
114360,note_on,3960,0,2,,,,,,,,,0,,,43,46
114416,note_on,58,0,1,,,,,,,,,0,,,66,0
114420,note_on,60,0,2,,,,,,,,,0,,,58,46
114420,set_tempo,80,1,0,,,,,,574163,,,,,,,
114425,note_on,9,0,1,,,,,,,,,0,,,65,52
114460,set_tempo,40,1,0,,,,,,576923,,,,,,,
114480,note_on,55,0,1,,,,,,,,,0,,,64,52
114480,note_on,60,0,2,,,,,,,,,0,,,61,57
114485,note_on,5,0,1,,,,,,,,,0,,,65,0
114540,note_on,55,0,1,,,,,,,,,0,,,64,0
114540,set_tempo,80,1,0,,,,,,574163,,,,,,,
114545,note_on,5,0,1,,,,,,,,,0,,,62,52
114596,note_on,51,0,1,,,,,,,,,0,,,64,52
114600,set_tempo,60,1,0,,,,,,571429,,,,,,,
114605,note_on,9,0,1,,,,,,,,,0,,,62,0
114656,note_on,51,0,1,,,,,,,,,0,,,64,0
114661,note_on,5,0,1,,,,,,,,,0,,,63,52
114680,set_tempo,80,1,0,,,,,,568720,,,,,,,
114716,note_on,55,0,1,,,,,,,,,0,,,65,52
114720,note_on,0,0,2,,,,,,,,,0,,,43,0
114720,note_on,240,0,2,,,,,,,,,0,,,61,0
114720,note_on,0,0,2,,,,,,,,,0,,,58,0
114721,note_on,5,0,1,,,,,,,,,0,,,63,0
114740,set_tempo,60,1,0,,,,,,566038,,,,,,,
114776,note_on,55,0,1,,,,,,,,,0,,,65,0
114779,note_on,3,0,1,,,,,,,,,0,,,64,52
114800,set_tempo,60,1,0,,,,,,563380,,,,,,,
114839,note_on,60,0,1,,,,,,,,,0,,,64,0
114845,note_on,6,0,1,,,,,,,,,0,,,66,52
114880,set_tempo,80,1,0,,,,,,560748,,,,,,,
114895,note_on,50,0,1,,,,,,,,,0,,,65,52
114905,note_on,10,0,1,,,,,,,,,0,,,66,0
114940,set_tempo,60,1,0,,,,,,558140,,,,,,,
114955,note_on,50,0,1,,,,,,,,,0,,,65,0
114964,note_on,9,0,1,,,,,,,,,0,,,67,52
115000,set_tempo,60,1,0,,,,,,555556,,,,,,,
115018,note_on,54,0,1,,,,,,,,,0,,,66,52
115024,note_on,6,0,1,,,,,,,,,0,,,67,0
115077,note_on,53,0,1,,,,,,,,,0,,,68,52
115078,note_on,1,0,1,,,,,,,,,0,,,66,0
115080,set_tempo,80,1,0,,,,,,552995,,,,,,,
115137,note_on,59,0,1,,,,,,,,,0,,,68,0
115140,set_tempo,60,1,0,,,,,,550459,,,,,,,
115143,note_on,6,0,1,,,,,,,,,0,,,67,52
115199,note_on,56,0,1,,,,,,,,,0,,,69,52
115200,set_tempo,60,1,0,,,,,,547945,,,,,,,
115203,note_on,4,0,1,,,,,,,,,0,,,67,0
115257,note_on,54,0,1,,,,,,,,,0,,,68,52
115259,note_on,2,0,1,,,,,,,,,0,,,69,0
115317,note_on,58,0,1,,,,,,,,,0,,,68,0
115321,note_on,4,0,1,,,,,,,,,0,,,70,52
115381,note_on,60,0,1,,,,,,,,,0,,,70,0
115381,note_on,0,0,1,,,,,,,,,0,,,69,52
115439,note_on,58,0,1,,,,,,,,,0,,,71,52
115441,note_on,2,0,1,,,,,,,,,0,,,69,0
115499,note_on,58,0,1,,,,,,,,,0,,,71,0
115500,note_on,1,0,1,,,,,,,,,0,,,70,52
115560,note_on,60,0,1,,,,,,,,,0,,,70,0
115561,note_on,1,0,1,,,,,,,,,0,,,72,52
115621,note_on,0,0,1,,,,,,,,,0,,,71,52
115621,note_on,60,0,1,,,,,,,,,0,,,72,0
115681,note_on,60,0,1,,,,,,,,,0,,,71,0
115684,note_on,3,0,1,,,,,,,,,0,,,73,52
115744,note_on,60,0,1,,,,,,,,,0,,,73,0
115744,note_on,0,0,1,,,,,,,,,0,,,72,52
115801,note_on,57,0,1,,,,,,,,,0,,,74,52
115804,note_on,3,0,1,,,,,,,,,0,,,72,0
115861,note_on,57,0,1,,,,,,,,,0,,,74,0
115862,note_on,1,0,1,,,,,,,,,0,,,73,52
115921,note_on,59,0,1,,,,,,,,,0,,,75,52
115922,note_on,1,0,1,,,,,,,,,0,,,73,0
115979,note_on,57,0,1,,,,,,,,,0,,,74,52
115981,note_on,2,0,1,,,,,,,,,0,,,75,0
116037,note_on,56,0,1,,,,,,,,,0,,,76,52
116039,note_on,2,0,1,,,,,,,,,0,,,74,0
116097,note_on,58,0,1,,,,,,,,,0,,,76,0
116103,note_on,6,0,1,,,,,,,,,0,,,75,52
116161,note_on,58,0,1,,,,,,,,,0,,,77,50
116163,note_on,2,0,1,,,,,,,,,0,,,75,0
116221,note_on,58,0,1,,,,,,,,,0,,,77,0
116224,note_on,3,0,1,,,,,,,,,0,,,76,50
116277,note_on,53,0,1,,,,,,,,,0,,,78,51
116284,note_on,7,0,1,,,,,,,,,0,,,76,0
116337,note_on,53,0,1,,,,,,,,,0,,,78,0
116337,note_on,0,0,1,,,,,,,,,0,,,77,52
116397,note_on,60,0,1,,,,,,,,,0,,,77,0
116401,note_on,4,0,1,,,,,,,,,0,,,79,53
116461,note_on,60,0,1,,,,,,,,,0,,,79,0
116462,note_on,1,0,1,,,,,,,,,0,,,78,55
116521,note_on,59,0,1,,,,,,,,,0,,,80,55
116522,note_on,1,0,1,,,,,,,,,0,,,78,0
116578,note_on,56,0,1,,,,,,,,,0,,,79,56
116581,note_on,3,0,1,,,,,,,,,0,,,80,0
116638,note_on,57,0,1,,,,,,,,,0,,,79,0
116640,note_on,2,0,1,,,,,,,,,0,,,81,57
116695,note_on,55,0,1,,,,,,,,,0,,,80,58
116700,note_on,5,0,1,,,,,,,,,0,,,81,0
116755,note_on,55,0,1,,,,,,,,,0,,,80,0
116763,note_on,8,0,1,,,,,,,,,0,,,82,60
116821,note_on,58,0,1,,,,,,,,,0,,,81,60
116823,note_on,2,0,1,,,,,,,,,0,,,82,0
116881,note_on,58,0,1,,,,,,,,,0,,,81,0
116881,note_on,0,0,1,,,,,,,,,0,,,83,61
116941,note_on,60,0,1,,,,,,,,,0,,,83,0
116942,note_on,1,0,1,,,,,,,,,0,,,82,62
117002,note_on,60,0,1,,,,,,,,,0,,,82,0
117003,note_on,1,0,1,,,,,,,,,0,,,84,63
117056,note_on,53,0,1,,,,,,,,,0,,,83,64
117063,note_on,7,0,1,,,,,,,,,0,,,84,0
117116,note_on,53,0,1,,,,,,,,,0,,,83,0
117121,note_on,5,0,1,,,,,,,,,0,,,85,64
117181,note_on,60,0,1,,,,,,,,,0,,,85,0
117184,note_on,3,0,1,,,,,,,,,0,,,84,66
117244,note_on,60,0,1,,,,,,,,,0,,,84,0
117245,note_on,1,0,1,,,,,,,,,0,,,86,67
117301,note_on,56,0,1,,,,,,,,,0,,,85,68
117305,note_on,4,0,1,,,,,,,,,0,,,86,0
117360,set_tempo,2160,1,0,,,,,,545455,,,,,,,
117361,note_on,56,0,1,,,,,,,,,0,,,85,0
117363,note_on,2,0,1,,,,,,,,,0,,,87,69
117415,note_on,52,0,1,,,,,,,,,0,,,86,70
117423,note_on,8,0,1,,,,,,,,,0,,,87,0
117475,note_on,52,0,1,,,,,,,,,0,,,86,0
117482,note_on,7,0,1,,,,,,,,,0,,,88,70
117542,note_on,60,0,1,,,,,,,,,0,,,88,0
117545,note_on,3,0,1,,,,,,,,,0,,,87,72
117580,set_tempo,220,1,0,,,,,,547945,,,,,,,
117598,note_on,53,0,1,,,,,,,,,0,,,89,73
117605,note_on,7,0,1,,,,,,,,,0,,,87,0
117658,note_on,53,0,1,,,,,,,,,0,,,89,0
117661,note_on,3,0,1,,,,,,,,,0,,,88,74
117718,note_on,57,0,1,,,,,,,,,0,,,90,75
117721,note_on,3,0,1,,,,,,,,,0,,,88,0
117776,note_on,55,0,1,,,,,,,,,0,,,89,75
117778,note_on,2,0,1,,,,,,,,,0,,,90,0
117780,set_tempo,200,1,0,,,,,,550459,,,,,,,
117836,note_on,0,0,1,,,,,,,,,0,,,91,77
117836,note_on,58,0,1,,,,,,,,,0,,,89,0
117896,note_on,60,0,1,,,,,,,,,0,,,91,0
117904,note_on,8,0,1,,,,,,,,,0,,,90,78
117964,note_on,0,0,1,,,,,,,,,0,,,92,79
117964,note_on,60,0,1,,,,,,,,,0,,,90,0
117980,set_tempo,200,1,0,,,,,,552995,,,,,,,
118023,note_on,59,0,1,,,,,,,,,0,,,91,80
118024,note_on,1,0,1,,,,,,,,,0,,,92,0
118076,note_on,52,0,1,,,,,,,,,0,,,93,80
118083,note_on,7,0,1,,,,,,,,,0,,,91,0
118136,note_on,53,0,1,,,,,,,,,0,,,93,0
118138,note_on,2,0,1,,,,,,,,,0,,,92,81
118195,note_on,57,0,1,,,,,,,,,0,,,94,82
118198,note_on,3,0,1,,,,,,,,,0,,,92,0
118200,set_tempo,220,1,0,,,,,,555556,,,,,,,
118255,note_on,57,0,1,,,,,,,,,0,,,94,0
118255,note_on,0,0,1,,,,,,,,,0,,,93,84
118315,note_on,60,0,1,,,,,,,,,0,,,93,0
118322,note_on,7,0,1,,,,,,,,,0,,,95,85
118382,note_on,60,0,1,,,,,,,,,0,,,95,0
118384,note_on,2,0,1,,,,,,,,,0,,,94,86
118400,set_tempo,200,1,0,,,,,,558140,,,,,,,
118440,note_on,56,0,1,,,,,,,,,0,,,96,86
118444,note_on,4,0,1,,,,,,,,,0,,,94,0
118499,note_on,55,0,1,,,,,,,,,0,,,95,88
118500,note_on,1,0,1,,,,,,,,,0,,,96,0
118559,note_on,59,0,1,,,,,,,,,0,,,95,0
118559,note_on,0,0,1,,,,,,,,,0,,,97,89
118580,set_tempo,180,1,0,,,,,,558140,,,,,,,
118600,set_tempo,20,1,0,,,,,,560748,,,,,,,
118618,note_on,59,0,1,,,,,,,,,0,,,96,90
118619,note_on,1,0,1,,,,,,,,,0,,,97,0
118620,set_tempo,20,1,0,,,,,,566038,,,,,,,
118640,set_tempo,20,1,0,,,,,,571429,,,,,,,
118660,set_tempo,20,1,0,,,,,,576923,,,,,,,
118678,note_on,59,0,1,,,,,,,,,0,,,96,0
118680,note_on,2,0,1,,,,,,,,,0,,,98,91
118680,set_tempo,20,1,0,,,,,,582524,,,,,,,
118700,set_tempo,20,1,0,,,,,,585366,,,,,,,
118720,set_tempo,20,1,0,,,,,,591133,,,,,,,
118740,note_on,0,0,1,,,,,,,,,0,,,97,91
118740,set_tempo,20,1,0,,,,,,597015,,,,,,,
118740,note_on,60,0,1,,,,,,,,,0,,,98,0
118760,set_tempo,20,1,0,,,,,,603015,,,,,,,
118780,set_tempo,20,1,0,,,,,,609137,,,,,,,
118796,note_on,56,0,1,,,,,,,,,0,,,99,93
118800,set_tempo,20,1,0,,,,,,560748,,,,,,,
118800,note_on,4,0,1,,,,,,,,,0,,,97,0
118856,note_on,56,0,1,,,,,,,,,0,,,99,0
118858,note_on,2,0,1,,,,,,,,,0,,,98,86
118860,set_tempo,60,1,0,,,,,,558140,,,,,,,
118900,set_tempo,40,1,0,,,,,,555556,,,,,,,
118918,note_on,60,0,1,,,,,,,,,0,,,98,0
118923,note_on,5,0,1,,,,,,,,,0,,,100,93
118960,set_tempo,60,1,0,,,,,,552995,,,,,,,
118978,note_on,55,0,1,,,,,,,,,0,,,98,86
118983,note_on,5,0,1,,,,,,,,,0,,,100,0
119000,set_tempo,40,1,0,,,,,,550459,,,,,,,
119038,note_on,55,0,1,,,,,,,,,0,,,98,0
119040,set_tempo,40,1,0,,,,,,568720,,,,,,,
119044,note_on,6,0,1,,,,,,,,,0,,,99,93
119104,note_on,60,0,1,,,,,,,,,0,,,99,0
119105,note_on,1,0,1,,,,,,,,,0,,,98,88
119164,note_on,59,0,1,,,,,,,,,0,,,100,93
119165,note_on,1,0,1,,,,,,,,,0,,,98,0
119222,note_on,57,0,1,,,,,,,,,0,,,98,88
119224,note_on,2,0,1,,,,,,,,,0,,,100,0
119278,note_on,54,0,1,,,,,,,,,0,,,99,93
119282,note_on,4,0,1,,,,,,,,,0,,,98,0
119338,note_on,56,0,1,,,,,,,,,0,,,99,0
119345,note_on,7,0,1,,,,,,,,,0,,,98,88
119396,note_on,51,0,1,,,,,,,,,0,,,100,93
119405,note_on,9,0,1,,,,,,,,,0,,,98,0
119455,note_on,50,0,1,,,,,,,,,0,,,98,88
119456,note_on,1,0,1,,,,,,,,,0,,,100,0
119515,note_on,59,0,1,,,,,,,,,0,,,98,0
119520,set_tempo,480,1,0,,,,,,566038,,,,,,,
119523,note_on,8,0,1,,,,,,,,,0,,,99,90
119540,set_tempo,20,1,0,,,,,,568720,,,,,,,
119560,set_tempo,20,1,0,,,,,,571429,,,,,,,
119580,set_tempo,20,1,0,,,,,,574163,,,,,,,
119580,note_on,57,0,1,,,,,,,,,0,,,98,84
119583,note_on,3,0,1,,,,,,,,,0,,,99,0
119600,set_tempo,20,1,0,,,,,,576923,,,,,,,
119620,set_tempo,20,1,0,,,,,,579710,,,,,,,
119640,set_tempo,20,1,0,,,,,,585366,,,,,,,
119640,note_on,57,0,1,,,,,,,,,0,,,98,0
119641,note_on,1,0,1,,,,,,,,,0,,,100,85
119660,set_tempo,20,1,0,,,,,,588235,,,,,,,
119680,set_tempo,20,1,0,,,,,,591133,,,,,,,
119700,set_tempo,20,1,0,,,,,,594059,,,,,,,
119701,note_on,60,0,1,,,,,,,,,0,,,100,0
119705,note_on,4,0,1,,,,,,,,,0,,,98,80
119720,set_tempo,20,1,0,,,,,,597015,,,,,,,
119740,set_tempo,20,1,0,,,,,,600000,,,,,,,
119755,note_on,50,0,1,,,,,,,,,0,,,99,81
119760,set_tempo,20,1,0,,,,,,603015,,,,,,,
119765,note_on,10,0,1,,,,,,,,,0,,,98,0
119815,note_on,50,0,1,,,,,,,,,0,,,99,0
119820,set_tempo,60,1,0,,,,,,606061,,,,,,,
119824,note_on,9,0,1,,,,,,,,,0,,,98,82
119860,set_tempo,40,1,0,,,,,,609137,,,,,,,
119882,note_on,58,0,1,,,,,,,,,0,,,100,82
119884,note_on,2,0,1,,,,,,,,,0,,,98,0
119920,set_tempo,60,1,0,,,,,,612245,,,,,,,
119938,note_on,54,0,1,,,,,,,,,0,,,98,82
119942,note_on,4,0,1,,,,,,,,,0,,,100,0
119960,set_tempo,40,1,0,,,,,,615385,,,,,,,
119996,note_on,54,0,1,,,,,,,,,0,,,99,79
119998,note_on,2,0,1,,,,,,,,,0,,,98,0
120020,set_tempo,60,1,0,,,,,,618557,,,,,,,
120056,note_on,58,0,1,,,,,,,,,0,,,99,0
120060,note_on,4,0,1,,,,,,,,,0,,,98,78
120060,set_tempo,40,1,0,,,,,,621762,,,,,,,
120117,note_on,57,0,1,,,,,,,,,0,,,100,75
120120,note_on,3,0,1,,,,,,,,,0,,,98,0
120120,set_tempo,60,1,0,,,,,,625000,,,,,,,
120160,set_tempo,40,1,0,,,,,,628272,,,,,,,
120177,note_on,57,0,1,,,,,,,,,0,,,100,0
120178,note_on,1,0,1,,,,,,,,,0,,,98,73
120200,set_tempo,40,1,0,,,,,,631579,,,,,,,
120238,note_on,60,0,1,,,,,,,,,0,,,98,0
120240,set_tempo,40,1,0,,,,,,628272,,,,,,,
120245,note_on,7,0,1,,,,,,,,,0,,,100,68
120260,set_tempo,20,1,0,,,,,,625000,,,,,,,
120280,set_tempo,20,1,0,,,,,,621762,,,,,,,
120300,set_tempo,20,1,0,,,,,,618557,,,,,,,
120301,note_on,56,0,1,,,,,,,,,0,,,99,68
120305,note_on,4,0,1,,,,,,,,,0,,,100,0
120320,set_tempo,20,1,0,,,,,,615385,,,,,,,
120340,set_tempo,20,1,0,,,,,,612245,,,,,,,
120360,set_tempo,20,1,0,,,,,,609137,,,,,,,
120361,note_on,56,0,1,,,,,,,,,0,,,99,0
120362,note_on,1,0,1,,,,,,,,,0,,,100,68
120380,set_tempo,20,1,0,,,,,,606061,,,,,,,
120400,set_tempo,20,1,0,,,,,,603015,,,,,,,
120416,note_on,54,0,1,,,,,,,,,0,,,99,68
120420,set_tempo,20,1,0,,,,,,600000,,,,,,,
120422,note_on,6,0,1,,,,,,,,,0,,,100,0
120440,set_tempo,20,1,0,,,,,,597015,,,,,,,
120460,set_tempo,20,1,0,,,,,,594059,,,,,,,
120476,note_on,54,0,1,,,,,,,,,0,,,99,0
120480,set_tempo,20,1,0,,,,,,588235,,,,,,,
120480,note_on,4,0,1,,,,,,,,,0,,,100,68
120500,set_tempo,20,1,0,,,,,,585366,,,,,,,
120520,set_tempo,20,1,0,,,,,,582524,,,,,,,
120539,note_on,59,0,1,,,,,,,,,0,,,99,69
120540,note_on,1,0,1,,,,,,,,,0,,,100,0
120540,set_tempo,20,1,0,,,,,,579710,,,,,,,
120560,set_tempo,20,1,0,,,,,,576923,,,,,,,
120580,set_tempo,20,1,0,,,,,,574163,,,,,,,
120599,note_on,59,0,1,,,,,,,,,0,,,99,0
120600,note_on,1,0,1,,,,,,,,,0,,,100,73
120600,set_tempo,20,1,0,,,,,,571429,,,,,,,
120620,set_tempo,20,1,0,,,,,,568720,,,,,,,
120640,set_tempo,20,1,0,,,,,,566038,,,,,,,
120660,note_on,60,0,1,,,,,,,,,0,,,100,0
120660,set_tempo,20,1,0,,,,,,563380,,,,,,,
120663,note_on,3,0,1,,,,,,,,,0,,,99,75
120680,set_tempo,20,1,0,,,,,,560748,,,,,,,
120700,set_tempo,20,1,0,,,,,,558140,,,,,,,
120720,set_tempo,20,1,0,,,,,,552995,,,,,,,
120720,note_on,57,0,1,,,,,,,,,0,,,100,79
120723,note_on,3,0,1,,,,,,,,,0,,,99,0
120779,note_on,56,0,1,,,,,,,,,0,,,99,81
120780,note_on,1,0,1,,,,,,,,,0,,,100,0
120800,set_tempo,80,1,0,,,,,,550459,,,,,,,
120839,note_on,59,0,1,,,,,,,,,0,,,99,0
120842,note_on,3,0,1,,,,,,,,,0,,,100,84
120880,set_tempo,80,1,0,,,,,,547945,,,,,,,
120900,note_on,58,0,1,,,,,,,,,0,,,99,88
120902,note_on,2,0,1,,,,,,,,,0,,,100,0
120940,set_tempo,60,1,0,,,,,,545455,,,,,,,
120960,set_tempo,20,1,0,,,,,,545455,,,,,,,
120960,note_on,58,0,1,,,,,,,,,0,,,99,0
120961,note_on,1,0,1,,,,,,,,,0,,,100,90
121019,note_on,58,0,1,,,,,,,,,0,,,99,92
121020,set_tempo,60,1,0,,,,,,542986,,,,,,,
121021,note_on,2,0,1,,,,,,,,,0,,,100,0
121060,set_tempo,40,1,0,,,,,,540541,,,,,,,
121075,note_on,54,0,1,,,,,,,,,0,,,100,94
121079,note_on,4,0,1,,,,,,,,,0,,,99,0
121120,set_tempo,60,1,0,,,,,,538117,,,,,,,
121135,note_on,56,0,1,,,,,,,,,0,,,100,0
121142,note_on,7,0,1,,,,,,,,,0,,,99,99
121160,set_tempo,40,1,0,,,,,,535714,,,,,,,
121196,note_on,54,0,1,,,,,,,,,0,,,100,101
121200,set_tempo,40,1,0,,,,,,533333,,,,,,,
121202,note_on,6,0,1,,,,,,,,,0,,,99,0
121256,note_on,54,0,1,,,,,,,,,0,,,100,0
121260,set_tempo,60,1,0,,,,,,530973,,,,,,,
121261,note_on,5,0,1,,,,,,,,,0,,,99,100
121300,set_tempo,40,1,0,,,,,,528634,,,,,,,
121321,note_on,60,0,1,,,,,,,,,0,,,99,0
121324,note_on,3,0,1,,,,,,,,,0,,,100,104
121360,set_tempo,60,1,0,,,,,,526316,,,,,,,
121380,note_on,56,0,1,,,,,,,,,0,,,99,103
121384,note_on,4,0,1,,,,,,,,,0,,,100,0
121400,set_tempo,40,1,0,,,,,,524017,,,,,,,
121440,note_on,56,0,1,,,,,,,,,0,,,99,0
121440,set_tempo,40,1,0,,,,,,521739,,,,,,,
121443,note_on,3,0,1,,,,,,,,,0,,,100,107
121500,set_tempo,60,1,0,,,,,,519481,,,,,,,
121500,note_on,57,0,1,,,,,,,,,0,,,99,104
121503,note_on,3,0,1,,,,,,,,,0,,,100,0
121540,set_tempo,40,1,0,,,,,,517241,,,,,,,
121559,note_on,56,0,1,,,,,,,,,0,,,100,110
121560,note_on,1,0,1,,,,,,,,,0,,,99,0
121600,set_tempo,60,1,0,,,,,,515021,,,,,,,
121619,note_on,59,0,1,,,,,,,,,0,,,100,0
121623,note_on,4,0,1,,,,,,,,,0,,,99,105
121640,set_tempo,40,1,0,,,,,,512821,,,,,,,
121681,note_on,58,0,1,,,,,,,,,0,,,100,111
121683,note_on,2,0,1,,,,,,,,,0,,,99,0
121738,note_on,55,0,1,,,,,,,,,0,,,99,103
121741,note_on,3,0,1,,,,,,,,,0,,,100,0
121798,note_on,57,0,1,,,,,,,,,0,,,99,0
121805,note_on,7,0,1,,,,,,,,,0,,,100,111
121861,note_on,56,0,1,,,,,,,,,0,,,99,103
121865,note_on,4,0,1,,,,,,,,,0,,,100,0
121916,note_on,51,0,1,,,,,,,,,0,,,100,111
121921,note_on,5,0,1,,,,,,,,,0,,,99,0
121976,note_on,55,0,1,,,,,,,,,0,,,100,0
121979,note_on,3,0,1,,,,,,,,,0,,,99,111
122036,note_on,57,0,1,,,,,,,,,0,,,100,111
122039,note_on,3,0,1,,,,,,,,,0,,,99,0
122096,note_on,57,0,1,,,,,,,,,0,,,100,0
122103,note_on,7,0,1,,,,,,,,,0,,,99,105
122140,set_tempo,500,1,0,,,,,,512821,,,,,,,
122163,note_on,60,0,1,,,,,,,,,0,,,99,0
122165,note_on,2,0,1,,,,,,,,,0,,,100,111
122200,set_tempo,60,1,0,,,,,,515021,,,,,,,
122221,note_on,56,0,1,,,,,,,,,0,,,99,104
122225,note_on,4,0,1,,,,,,,,,0,,,100,0
122240,set_tempo,40,1,0,,,,,,517241,,,,,,,
122275,note_on,50,0,1,,,,,,,,,0,,,100,111
122280,set_tempo,40,1,0,,,,,,519481,,,,,,,
122281,note_on,6,0,1,,,,,,,,,0,,,99,0
122320,set_tempo,40,1,0,,,,,,521739,,,,,,,
122335,note_on,54,0,1,,,,,,,,,0,,,100,0
122338,note_on,3,0,1,,,,,,,,,0,,,99,104
122360,set_tempo,40,1,0,,,,,,524017,,,,,,,
122395,note_on,57,0,1,,,,,,,,,0,,,100,111
122398,note_on,3,0,1,,,,,,,,,0,,,99,0
122400,set_tempo,40,1,0,,,,,,526316,,,,,,,
122420,set_tempo,20,1,0,,,,,,528634,,,,,,,
122440,set_tempo,20,1,0,,,,,,533333,,,,,,,
122455,note_on,57,0,1,,,,,,,,,0,,,100,0
122460,set_tempo,20,1,0,,,,,,538117,,,,,,,
122462,note_on,7,0,1,,,,,,,,,0,,,99,103
122480,set_tempo,20,1,0,,,,,,540541,,,,,,,
122500,set_tempo,20,1,0,,,,,,545455,,,,,,,
122516,note_on,54,0,1,,,,,,,,,0,,,100,106
122520,set_tempo,20,1,0,,,,,,550459,,,,,,,
122522,note_on,6,0,1,,,,,,,,,0,,,99,0
122540,set_tempo,20,1,0,,,,,,552995,,,,,,,
122560,set_tempo,20,1,0,,,,,,558140,,,,,,,
122576,note_on,54,0,1,,,,,,,,,0,,,100,0
122580,set_tempo,20,1,0,,,,,,563380,,,,,,,
122584,note_on,8,0,1,,,,,,,,,0,,,99,103
122600,set_tempo,20,1,0,,,,,,566038,,,,,,,
122620,set_tempo,20,1,0,,,,,,571429,,,,,,,
122640,set_tempo,20,1,0,,,,,,576923,,,,,,,
122644,note_on,60,0,1,,,,,,,,,0,,,99,0
122644,note_on,0,0,1,,,,,,,,,0,,,100,100
122660,set_tempo,20,1,0,,,,,,594059,,,,,,,
122700,set_tempo,40,1,0,,,,,,591133,,,,,,,
122701,note_on,57,0,1,,,,,,,,,0,,,99,96
122704,note_on,3,0,1,,,,,,,,,0,,,100,0
122720,set_tempo,20,1,0,,,,,,588235,,,,,,,
122740,set_tempo,20,1,0,,,,,,585366,,,,,,,
122760,set_tempo,20,1,0,,,,,,582524,,,,,,,
122761,note_on,57,0,1,,,,,,,,,0,,,99,0
122762,note_on,1,0,1,,,,,,,,,0,,,100,92
122780,set_tempo,20,1,0,,,,,,579710,,,,,,,
122800,set_tempo,20,1,0,,,,,,576923,,,,,,,
122820,set_tempo,20,1,0,,,,,,574163,,,,,,,
122822,note_on,60,0,1,,,,,,,,,0,,,100,0
122824,note_on,2,0,1,,,,,,,,,0,,,99,88
122840,set_tempo,20,1,0,,,,,,571429,,,,,,,
122860,set_tempo,20,1,0,,,,,,568720,,,,,,,
122875,note_on,51,0,1,,,,,,,,,0,,,100,84
122880,set_tempo,20,1,0,,,,,,566038,,,,,,,
122884,note_on,9,0,1,,,,,,,,,0,,,99,0
122900,set_tempo,20,1,0,,,,,,563380,,,,,,,
122920,set_tempo,20,1,0,,,,,,560748,,,,,,,
122935,note_on,51,0,1,,,,,,,,,0,,,100,0
122936,note_on,1,0,1,,,,,,,,,0,,,99,80
122940,set_tempo,20,1,0,,,,,,558140,,,,,,,
122960,set_tempo,20,1,0,,,,,,555556,,,,,,,
122980,set_tempo,20,1,0,,,,,,552995,,,,,,,
122996,note_on,60,0,1,,,,,,,,,0,,,99,0
123000,set_tempo,20,1,0,,,,,,550459,,,,,,,
123002,note_on,6,0,1,,,,,,,,,0,,,100,77
123061,note_on,59,0,1,,,,,,,,,0,,,99,73
123062,note_on,1,0,1,,,,,,,,,0,,,100,0
123117,note_on,55,0,1,,,,,,,,,0,,,100,66
123121,note_on,4,0,1,,,,,,,,,0,,,99,0
123175,note_on,54,0,1,,,,,,,,,0,,,99,60
123177,note_on,2,0,1,,,,,,,,,0,,,100,0
123235,note_on,58,0,1,,,,,,,,,0,,,99,0
123236,note_on,1,0,1,,,,,,,,,0,,,100,64
123296,note_on,60,0,1,,,,,,,,,0,,,100,0
123300,set_tempo,300,1,0,,,,,,550459,,,,,,,
123301,note_on,5,0,1,,,,,,,,,0,,,99,63
123320,set_tempo,20,1,0,,,,,,547945,,,,,,,
123340,set_tempo,20,1,0,,,,,,545455,,,,,,,
123358,note_on,57,0,1,,,,,,,,,0,,,100,63
123360,set_tempo,20,1,0,,,,,,542986,,,,,,,
123361,note_on,3,0,1,,,,,,,,,0,,,99,0
123418,note_on,57,0,1,,,,,,,,,0,,,100,0
123418,note_on,0,0,1,,,,,,,,,0,,,99,59
123478,note_on,60,0,1,,,,,,,,,0,,,99,0
123479,note_on,1,0,1,,,,,,,,,0,,,100,62
123539,note_on,60,0,1,,,,,,,,,0,,,100,0
123542,note_on,3,0,1,,,,,,,,,0,,,99,58
123571,set_tempo,211,1,0,,,,,,533760,,,,,,,
123580,set_tempo,9,1,0,,,,,,548998,,,,,,,
123600,set_tempo,20,1,0,,,,,,563380,,,,,,,
123600,note_on,8880,0,2,,,,,,,,,0,,,75,60
123602,note_on,60,0,1,,,,,,,,,0,,,99,0
123603,note_on,1,0,1,,,,,,,,,0,,,100,53
123663,note_on,60,0,1,,,,,,,,,0,,,100,0
123663,note_on,0,0,1,,,,,,,,,0,,,99,49
123720,note_on,57,0,1,,,,,,,,,0,,,100,52
123723,note_on,3,0,1,,,,,,,,,0,,,99,0
123780,note_on,57,0,1,,,,,,,,,0,,,100,0
123780,note_on,180,0,2,,,,,,,,,0,,,75,0
123781,note_on,1,0,1,,,,,,,,,0,,,99,49
123800,set_tempo,200,1,0,,,,,,592359,,,,,,,
123840,note_on,60,0,2,,,,,,,,,0,,,87,64
123840,set_tempo,40,1,0,,,,,,571429,,,,,,,
123841,note_on,60,0,1,,,,,,,,,0,,,99,0
123843,note_on,2,0,1,,,,,,,,,0,,,99,52
123903,note_on,60,0,1,,,,,,,,,0,,,99,0
123904,note_on,1,0,1,,,,,,,,,0,,,100,50
123956,note_on,52,0,1,,,,,,,,,0,,,99,52
123964,note_on,8,0,1,,,,,,,,,0,,,100,0
124016,note_on,52,0,1,,,,,,,,,0,,,99,0
124021,note_on,5,0,1,,,,,,,,,0,,,100,48
124077,note_on,56,0,1,,,,,,,,,0,,,99,52
124080,note_on,240,0,2,,,,,,,,,0,,,87,0
124080,note_on,3,0,1,,,,,,,,,0,,,87,64
124081,note_on,1,0,1,,,,,,,,,0,,,100,0
124136,note_on,55,0,1,,,,,,,,,0,,,100,49
124137,note_on,1,0,1,,,,,,,,,0,,,99,0
124196,note_on,59,0,1,,,,,,,,,0,,,100,0
124204,note_on,8,0,1,,,,,,,,,0,,,99,52
124255,note_on,51,0,1,,,,,,,,,0,,,100,50
124264,note_on,9,0,1,,,,,,,,,0,,,99,0
124315,note_on,51,0,1,,,,,,,,,0,,,100,0
124319,note_on,4,0,1,,,,,,,,,0,,,87,52
124320,set_tempo,480,1,0,,,,,,555556,,,,,,,
124320,note_on,1,0,1,,,,,,,,,0,,,87,0
124320,note_on,240,0,2,,,,,,,,,0,,,85,60
124321,note_on,1,0,1,,,,,,,,,0,,,99,52
124378,note_on,57,0,1,,,,,,,,,0,,,100,52
124381,note_on,3,0,1,,,,,,,,,0,,,99,0
124438,note_on,57,0,1,,,,,,,,,0,,,100,0
124439,note_on,1,0,1,,,,,,,,,0,,,87,0
124441,note_on,2,0,1,,,,,,,,,0,,,99,52
124497,note_on,56,0,1,,,,,,,,,0,,,100,49
124501,note_on,4,0,1,,,,,,,,,0,,,99,0
124556,note_on,55,0,1,,,,,,,,,0,,,99,52
124557,note_on,1,0,1,,,,,,,,,0,,,100,0
124558,note_on,1,0,1,,,,,,,,,0,,,87,33
124560,set_tempo,240,1,0,,,,,,569530,,,,,,,
124560,note_on,0,0,2,,,,,,,,,0,,,68,38
124560,note_on,240,0,2,,,,,,,,,0,,,85,0
124560,note_on,0,0,2,,,,,,,,,0,,,83,63
124616,note_on,58,0,1,,,,,,,,,0,,,99,0
124623,note_on,7,0,1,,,,,,,,,0,,,100,49
124676,note_on,53,0,1,,,,,,,,,0,,,99,52
124678,note_on,2,0,1,,,,,,,,,0,,,87,0
124683,note_on,5,0,1,,,,,,,,,0,,,100,0
124736,note_on,53,0,1,,,,,,,,,0,,,99,0
124738,note_on,2,0,1,,,,,,,,,0,,,100,49
124798,note_on,60,0,1,,,,,,,,,0,,,100,0
124800,note_on,240,0,2,,,,,,,,,0,,,83,0
124800,note_on,0,0,2,,,,,,,,,0,,,83,56
124800,set_tempo,240,1,0,,,,,,553659,,,,,,,
124800,note_on,0,0,2,,,,,,,,,0,,,68,0
124803,note_on,5,0,1,,,,,,,,,0,,,87,33
124804,note_on,1,0,1,,,,,,,,,0,,,99,52
124863,note_on,59,0,1,,,,,,,,,0,,,100,49
124864,note_on,1,0,1,,,,,,,,,0,,,99,0
124923,note_on,0,0,1,,,,,,,,,0,,,99,52
124923,note_on,0,0,1,,,,,,,,,0,,,87,0
124923,note_on,59,0,1,,,,,,,,,0,,,100,0
124981,note_on,58,0,1,,,,,,,,,0,,,100,52
124983,note_on,2,0,1,,,,,,,,,0,,,99,0
125038,note_on,55,0,1,,,,,,,,,0,,,87,33
125040,note_on,0,0,2,,,,,,,,,0,,,82,57
125040,note_on,240,0,2,,,,,,,,,0,,,83,0
125040,set_tempo,240,1,0,,,,,,553659,,,,,,,
125041,note_on,3,0,1,,,,,,,,,0,,,100,0
125044,note_on,3,0,1,,,,,,,,,0,,,99,52
125097,note_on,53,0,1,,,,,,,,,0,,,100,49
125104,note_on,7,0,1,,,,,,,,,0,,,99,0
125157,note_on,53,0,1,,,,,,,,,0,,,100,0
125158,note_on,1,0,1,,,,,,,,,0,,,87,0
125164,note_on,6,0,1,,,,,,,,,0,,,99,52
125217,note_on,53,0,1,,,,,,,,,0,,,100,50
125224,note_on,7,0,1,,,,,,,,,0,,,99,0
125277,note_on,0,0,1,,,,,,,,,0,,,87,33
125277,note_on,53,0,1,,,,,,,,,0,,,100,0
125280,set_tempo,240,1,0,,,,,,566251,,,,,,,
125280,note_on,3,0,1,,,,,,,,,0,,,99,52
125280,note_on,240,0,2,,,,,,,,,0,,,82,0
125280,note_on,0,0,2,,,,,,,,,0,,,71,37
125280,note_on,0,0,2,,,,,,,,,0,,,80,56
125340,note_on,60,0,1,,,,,,,,,0,,,99,0
125345,note_on,5,0,1,,,,,,,,,0,,,100,49
125395,note_on,50,0,1,,,,,,,,,0,,,99,52
125397,note_on,2,0,1,,,,,,,,,0,,,87,0
125405,note_on,8,0,1,,,,,,,,,0,,,100,0
125455,note_on,0,0,1,,,,,,,,,0,,,100,50
125455,note_on,50,0,1,,,,,,,,,0,,,99,0
125515,note_on,60,0,1,,,,,,,,,0,,,100,0
125519,note_on,4,0,1,,,,,,,,,0,,,99,52
125520,note_on,0,0,2,,,,,,,,,0,,,71,0
125520,note_on,1,0,1,,,,,,,,,0,,,87,33
125520,set_tempo,240,1,0,,,,,,553659,,,,,,,
125520,note_on,240,0,2,,,,,,,,,0,,,80,0
125520,note_on,0,0,2,,,,,,,,,0,,,79,60
125576,note_on,56,0,1,,,,,,,,,0,,,100,49
125579,note_on,3,0,1,,,,,,,,,0,,,99,0
125636,note_on,57,0,1,,,,,,,,,0,,,100,0
125637,note_on,1,0,1,,,,,,,,,0,,,99,52
125640,note_on,3,0,1,,,,,,,,,0,,,87,0
125697,note_on,57,0,1,,,,,,,,,0,,,99,0
125704,note_on,7,0,1,,,,,,,,,0,,,100,49
125756,note_on,52,0,1,,,,,,,,,0,,,99,52
125757,note_on,1,0,1,,,,,,,,,0,,,87,33
125760,set_tempo,240,1,0,,,,,,551116,,,,,,,
125760,note_on,240,0,2,,,,,,,,,0,,,79,0
125760,note_on,0,0,2,,,,,,,,,0,,,80,60
125764,note_on,7,0,1,,,,,,,,,0,,,100,0
125816,note_on,0,0,1,,,,,,,,,0,,,100,49
125816,note_on,52,0,1,,,,,,,,,0,,,99,0
125876,note_on,60,0,1,,,,,,,,,0,,,100,0
125877,note_on,1,0,1,,,,,,,,,0,,,87,0
125885,note_on,8,0,1,,,,,,,,,0,,,99,53
125935,note_on,50,0,1,,,,,,,,,0,,,100,49
125945,note_on,10,0,1,,,,,,,,,0,,,99,0
125995,note_on,0,0,1,,,,,,,,,0,,,99,53
125995,note_on,50,0,1,,,,,,,,,0,,,100,0
125995,note_on,0,0,1,,,,,,,,,0,,,87,34
126000,note_on,240,0,2,,,,,,,,,0,,,80,0
126000,set_tempo,240,1,0,,,,,,574768,,,,,,,
126000,control_change,0,0,2,,,,,,,,,0,64,127,,
126000,note_on,0,0,2,,,,,,,,,0,,,79,50
126000,note_on,0,0,2,,,,,,,,,0,,,82,63
126055,note_on,60,0,1,,,,,,,,,0,,,99,0
126058,note_on,3,0,1,,,,,,,,,0,,,100,48
126115,note_on,57,0,1,,,,,,,,,0,,,87,0
126118,note_on,3,0,1,,,,,,,,,0,,,100,0
126125,note_on,7,0,1,,,,,,,,,0,,,99,53
126179,note_on,54,0,1,,,,,,,,,0,,,100,49
126185,note_on,6,0,1,,,,,,,,,0,,,99,0
126239,note_on,0,0,1,,,,,,,,,0,,,87,34
126239,note_on,54,0,1,,,,,,,,,0,,,100,0
126240,set_tempo,240,1,0,,,,,,546199,,,,,,,
126240,note_on,0,0,2,,,,,,,,,0,,,79,0
126240,note_on,0,0,2,,,,,,,,,0,,,75,56
126240,note_on,240,0,2,,,,,,,,,0,,,82,0
126245,note_on,6,0,1,,,,,,,,,0,,,99,53
126304,note_on,59,0,1,,,,,,,,,0,,,100,50
126305,note_on,1,0,1,,,,,,,,,0,,,99,0
126359,note_on,54,0,1,,,,,,,,,0,,,87,0
126360,note_on,1,0,1,,,,,,,,,0,,,99,53
126364,note_on,4,0,1,,,,,,,,,0,,,100,0
126413,control_change,173,0,2,,,,,,,,,0,64,0,,
126420,note_on,7,0,2,,,,,,,,,0,,,75,0
126420,note_on,56,0,1,,,,,,,,,0,,,99,0
126424,note_on,4,0,1,,,,,,,,,0,,,100,48
126479,note_on,55,0,1,,,,,,,,,0,,,99,53
126480,note_on,60,0,2,,,,,,,,,0,,,75,53
126480,set_tempo,240,1,0,,,,,,548647,,,,,,,
126482,note_on,3,0,1,,,,,,,,,0,,,87,33
126484,note_on,2,0,1,,,,,,,,,0,,,100,0
126537,note_on,53,0,1,,,,,,,,,0,,,100,50
126539,note_on,2,0,1,,,,,,,,,0,,,99,0
126595,note_on,56,0,1,,,,,,,,,0,,,99,53
126597,note_on,2,0,1,,,,,,,,,0,,,100,0
126602,note_on,5,0,1,,,,,,,,,0,,,87,0
126655,note_on,53,0,1,,,,,,,,,0,,,99,0
126660,note_on,5,0,1,,,,,,,,,0,,,100,50
126719,note_on,59,0,1,,,,,,,,,0,,,99,53
126720,note_on,0,0,2,,,,,,,,,0,,,67,35
126720,note_on,0,0,2,,,,,,,,,0,,,70,35
126720,note_on,0,0,2,,,,,,,,,0,,,76,57
126720,note_on,1,0,1,,,,,,,,,0,,,100,0
126720,set_tempo,240,1,0,,,,,,564387,,,,,,,
126720,note_on,240,0,2,,,,,,,,,0,,,75,0
126725,note_on,5,0,1,,,,,,,,,0,,,87,33
126777,note_on,52,0,1,,,,,,,,,0,,,100,53
126779,note_on,2,0,1,,,,,,,,,0,,,99,0
126837,note_on,58,0,1,,,,,,,,,0,,,100,0
126841,note_on,4,0,1,,,,,,,,,0,,,99,53
126845,note_on,4,0,1,,,,,,,,,0,,,87,0
126897,note_on,52,0,1,,,,,,,,,0,,,100,50
126901,note_on,4,0,1,,,,,,,,,0,,,99,0
126957,note_on,56,0,1,,,,,,,,,0,,,100,0
126960,note_on,240,0,2,,,,,,,,,0,,,76,0
126960,set_tempo,240,1,0,,,,,,548647,,,,,,,
126960,note_on,0,0,2,,,,,,,,,0,,,75,49
126960,note_on,0,0,2,,,,,,,,,0,,,67,0
126960,note_on,0,0,2,,,,,,,,,0,,,70,0
126962,note_on,5,0,1,,,,,,,,,0,,,87,33
126965,note_on,3,0,1,,,,,,,,,0,,,99,52
127019,note_on,54,0,1,,,,,,,,,0,,,100,49
127025,note_on,6,0,1,,,,,,,,,0,,,99,0
127079,note_on,54,0,1,,,,,,,,,0,,,100,0
127082,note_on,3,0,1,,,,,,,,,0,,,87,0
127084,note_on,2,0,1,,,,,,,,,0,,,99,52
127135,note_on,51,0,1,,,,,,,,,0,,,100,49
127144,note_on,9,0,1,,,,,,,,,0,,,99,0
127195,note_on,51,0,1,,,,,,,,,0,,,100,0
127200,note_on,0,0,2,,,,,,,,,0,,,73,48
127200,set_tempo,240,1,0,,,,,,539374,,,,,,,
127200,note_on,240,0,2,,,,,,,,,0,,,75,0
127201,note_on,6,0,1,,,,,,,,,0,,,99,52
127205,note_on,4,0,1,,,,,,,,,0,,,87,33
127261,note_on,56,0,1,,,,,,,,,0,,,99,0
127263,note_on,2,0,1,,,,,,,,,0,,,100,48
127321,note_on,58,0,1,,,,,,,,,0,,,99,52
127323,note_on,2,0,1,,,,,,,,,0,,,100,0
127325,note_on,2,0,1,,,,,,,,,0,,,87,0
127376,note_on,51,0,1,,,,,,,,,0,,,100,50
127380,note_on,180,0,2,,,,,,,,,0,,,73,0
127381,note_on,5,0,1,,,,,,,,,0,,,99,0
127436,note_on,55,0,1,,,,,,,,,0,,,100,0
127437,note_on,1,0,1,,,,,,,,,0,,,87,33
127439,note_on,2,0,1,,,,,,,,,0,,,99,52
127440,note_on,0,0,2,,,,,,,,,0,,,68,37
127440,set_tempo,240,1,0,,,,,,561798,,,,,,,
127440,control_change,60,0,2,,,,,,,,,0,64,127,,
127440,note_on,0,0,2,,,,,,,,,0,,,71,55
127495,note_on,56,0,1,,,,,,,,,0,,,100,49
127499,note_on,4,0,1,,,,,,,,,0,,,99,0
127555,note_on,56,0,1,,,,,,,,,0,,,100,0
127557,note_on,2,0,1,,,,,,,,,0,,,87,0
127559,note_on,2,0,1,,,,,,,,,0,,,99,52
127615,note_on,56,0,1,,,,,,,,,0,,,100,48
127619,note_on,4,0,1,,,,,,,,,0,,,99,0
127675,note_on,56,0,1,,,,,,,,,0,,,100,0
127680,note_on,240,0,2,,,,,,,,,0,,,71,0
127680,set_tempo,240,1,0,,,,,,541761,,,,,,,
127680,note_on,0,0,2,,,,,,,,,0,,,68,34
127680,note_on,0,0,2,,,,,,,,,0,,,71,52
127680,note_on,0,0,2,,,,,,,,,0,,,68,0
127682,note_on,7,0,1,,,,,,,,,0,,,87,33
127684,note_on,2,0,1,,,,,,,,,0,,,99,51
127735,note_on,51,0,1,,,,,,,,,0,,,100,48
127744,note_on,9,0,1,,,,,,,,,0,,,99,0
127795,note_on,51,0,1,,,,,,,,,0,,,100,0
127802,note_on,7,0,1,,,,,,,,,0,,,87,0
127803,note_on,1,0,1,,,,,,,,,0,,,99,51
127862,note_on,59,0,1,,,,,,,,,0,,,100,48
127863,note_on,1,0,1,,,,,,,,,0,,,99,0
127871,control_change,191,0,2,,,,,,,,,0,64,0,,
127920,set_tempo,240,1,0,,,,,,544218,,,,,,,
127920,note_on,49,0,2,,,,,,,,,0,,,71,0
127920,note_on,0,0,2,,,,,,,,,0,,,66,34
127920,note_on,0,0,2,,,,,,,,,0,,,68,0
127920,note_on,0,0,2,,,,,,,,,0,,,70,52
127922,note_on,0,0,1,,,,,,,,,0,,,87,31
127922,note_on,59,0,1,,,,,,,,,0,,,100,0
127923,note_on,1,0,1,,,,,,,,,0,,,99,50
127980,note_on,57,0,1,,,,,,,,,0,,,100,47
127983,note_on,3,0,1,,,,,,,,,0,,,99,0
128040,note_on,57,0,1,,,,,,,,,0,,,100,0
128042,note_on,0,0,1,,,,,,,,,0,,,99,50
128042,note_on,2,0,1,,,,,,,,,0,,,87,0
128096,note_on,54,0,1,,,,,,,,,0,,,100,46
128102,note_on,6,0,1,,,,,,,,,0,,,99,0
128156,note_on,54,0,1,,,,,,,,,0,,,100,0
128160,note_on,0,0,2,,,,,,,,,0,,,68,51
128160,note_on,240,0,2,,,,,,,,,0,,,70,0
128160,note_on,0,0,2,,,,,,,,,0,,,66,0
128160,set_tempo,240,1,0,,,,,,551572,,,,,,,
128160,note_on,0,0,2,,,,,,,,,0,,,64,38
128162,note_on,6,0,1,,,,,,,,,0,,,87,31
128163,note_on,1,0,1,,,,,,,,,0,,,99,49
128223,note_on,0,0,1,,,,,,,,,0,,,100,45
128223,note_on,60,0,1,,,,,,,,,0,,,99,0
128275,note_on,52,0,1,,,,,,,,,0,,,99,49
128282,note_on,7,0,1,,,,,,,,,0,,,87,0
128283,note_on,1,0,1,,,,,,,,,0,,,100,0
128335,note_on,52,0,1,,,,,,,,,0,,,99,0
128344,note_on,9,0,1,,,,,,,,,0,,,100,46
128400,set_tempo,240,1,0,,,,,,541761,,,,,,,
128400,note_on,0,0,2,,,,,,,,,0,,,64,0
128400,note_on,0,0,2,,,,,,,,,0,,,67,46
128400,note_on,240,0,2,,,,,,,,,0,,,68,0
128402,note_on,58,0,1,,,,,,,,,0,,,87,30
128402,note_on,0,0,1,,,,,,,,,0,,,99,49
128404,note_on,2,0,1,,,,,,,,,0,,,100,0
128455,note_on,51,0,1,,,,,,,,,0,,,100,45
128462,note_on,7,0,1,,,,,,,,,0,,,99,0
128515,note_on,53,0,1,,,,,,,,,0,,,100,0
128521,note_on,6,0,1,,,,,,,,,0,,,99,48
128522,note_on,1,0,1,,,,,,,,,0,,,87,0
128581,note_on,59,0,1,,,,,,,,,0,,,99,0
128585,note_on,4,0,1,,,,,,,,,0,,,100,44
128635,note_on,50,0,1,,,,,,,,,0,,,87,30
128638,note_on,3,0,1,,,,,,,,,0,,,99,48
128640,note_on,0,0,2,,,,,,,,,0,,,68,46
128640,note_on,240,0,2,,,,,,,,,0,,,67,0
128640,set_tempo,240,1,0,,,,,,532245,,,,,,,
128645,note_on,7,0,1,,,,,,,,,0,,,100,0
128696,note_on,51,0,1,,,,,,,,,0,,,100,44
128698,note_on,2,0,1,,,,,,,,,0,,,99,0
128755,note_on,57,0,1,,,,,,,,,0,,,87,0
128756,note_on,1,0,1,,,,,,,,,0,,,100,0
128765,note_on,9,0,1,,,,,,,,,0,,,99,46
128821,note_on,56,0,1,,,,,,,,,0,,,100,41
128825,note_on,4,0,1,,,,,,,,,0,,,99,0
128878,note_on,53,0,1,,,,,,,,,0,,,87,28
128880,note_on,0,0,2,,,,,,,,,0,,,70,48
128880,note_on,0,0,2,,,,,,,,,0,,,67,33
128880,note_on,240,0,2,,,,,,,,,0,,,68,0
128880,set_tempo,240,1,0,,,,,,572191,,,,,,,
128880,control_change,0,0,2,,,,,,,,,0,64,127,,
128881,note_on,3,0,1,,,,,,,,,0,,,100,0
128885,note_on,4,0,1,,,,,,,,,0,,,99,49
128939,note_on,54,0,1,,,,,,,,,0,,,100,45
128945,note_on,6,0,1,,,,,,,,,0,,,99,0
128998,note_on,53,0,1,,,,,,,,,0,,,87,0
128999,note_on,1,0,1,,,,,,,,,0,,,100,0
129002,note_on,3,0,1,,,,,,,,,0,,,99,50
129057,note_on,55,0,1,,,,,,,,,0,,,100,45
129062,note_on,5,0,1,,,,,,,,,0,,,99,0
129116,note_on,54,0,1,,,,,,,,,0,,,87,28
129117,note_on,1,0,1,,,,,,,,,0,,,100,0
129117,note_on,0,0,1,,,,,,,,,0,,,99,50
129120,note_on,0,0,2,,,,,,,,,0,,,63,45
129120,note_on,0,0,2,,,,,,,,,0,,,67,0
129120,note_on,240,0,2,,,,,,,,,0,,,70,0
129177,note_on,60,0,1,,,,,,,,,0,,,99,0
129180,note_on,3,0,1,,,,,,,,,0,,,100,47
129236,note_on,56,0,1,,,,,,,,,0,,,87,0
129240,control_change,120,0,2,,,,,,,,,0,64,0,,
129240,note_on,4,0,1,,,,,,,,,0,,,100,0
129244,note_on,4,0,1,,,,,,,,,0,,,99,50
129296,note_on,52,0,1,,,,,,,,,0,,,100,46
129304,note_on,8,0,1,,,,,,,,,0,,,99,0
129356,note_on,52,0,1,,,,,,,,,0,,,100,0
129359,note_on,3,0,1,,,,,,,,,0,,,99,52
129360,note_on,120,0,2,,,,,,,,,0,,,63,0
129364,note_on,5,0,1,,,,,,,,,0,,,87,28
129415,note_on,51,0,1,,,,,,,,,0,,,100,48
129419,note_on,4,0,1,,,,,,,,,0,,,99,0
129475,note_on,56,0,1,,,,,,,,,0,,,100,0
129480,set_tempo,600,1,0,,,,,,588235,,,,,,,
129483,note_on,8,0,1,,,,,,,,,0,,,99,52
129484,note_on,1,0,1,,,,,,,,,0,,,87,0
129536,note_on,52,0,1,,,,,,,,,0,,,100,49
129540,note_on,180,0,2,,,,,,,,,0,,,63,63
129543,note_on,7,0,1,,,,,,,,,0,,,99,0
129596,note_on,53,0,1,,,,,,,,,0,,,100,0
129600,note_on,0,0,2,,,,,,,,,0,,,75,63
129600,note_on,60,0,2,,,,,,,,,0,,,63,0
129603,note_on,7,0,1,,,,,,,,,0,,,99,52
129605,note_on,2,0,1,,,,,,,,,0,,,87,33
129611,set_tempo,131,1,0,,,,,,538068,,,,,,,
129663,note_on,58,0,1,,,,,,,,,0,,,99,0
129664,note_on,1,0,1,,,,,,,,,0,,,100,48
129717,note_on,53,0,1,,,,,,,,,0,,,99,52
129724,note_on,7,0,1,,,,,,,,,0,,,100,0
129725,note_on,1,0,1,,,,,,,,,0,,,87,0
129777,note_on,52,0,1,,,,,,,,,0,,,99,0
129780,note_on,180,0,2,,,,,,,,,0,,,75,0
129780,note_on,3,0,1,,,,,,,,,0,,,100,48
129835,note_on,55,0,1,,,,,,,,,0,,,87,33
129840,note_on,5,0,1,,,,,,,,,0,,,100,0
129840,note_on,60,0,2,,,,,,,,,0,,,75,58
129843,note_on,3,0,1,,,,,,,,,0,,,99,52
129851,set_tempo,240,1,0,,,,,,535762,,,,,,,
129896,note_on,53,0,1,,,,,,,,,0,,,100,48
129903,note_on,7,0,1,,,,,,,,,0,,,99,0
129955,note_on,52,0,1,,,,,,,,,0,,,87,0
129956,note_on,1,0,1,,,,,,,,,0,,,100,0
129959,note_on,3,0,1,,,,,,,,,0,,,99,52
130018,note_on,59,0,1,,,,,,,,,0,,,100,48
130019,note_on,1,0,1,,,,,,,,,0,,,99,0
130020,note_on,180,0,2,,,,,,,,,0,,,75,0
130075,note_on,56,0,1,,,,,,,,,0,,,99,52
130078,note_on,3,0,1,,,,,,,,,0,,,100,0
130080,note_on,60,0,2,,,,,,,,,0,,,73,57
130085,note_on,7,0,1,,,,,,,,,0,,,87,33
130135,note_on,50,0,1,,,,,,,,,0,,,99,0
130137,note_on,2,0,1,,,,,,,,,0,,,100,48
130197,note_on,60,0,1,,,,,,,,,0,,,100,0
130197,note_on,0,0,1,,,,,,,,,0,,,99,52
130205,note_on,8,0,1,,,,,,,,,0,,,87,0
130257,note_on,0,0,1,,,,,,,,,0,,,100,48
130257,note_on,52,0,1,,,,,,,,,0,,,99,0
130317,note_on,60,0,1,,,,,,,,,0,,,100,0
130320,note_on,0,0,2,,,,,,,,,0,,,71,60
130320,note_on,0,0,2,,,,,,,,,0,,,56,47
130320,note_on,3,0,1,,,,,,,,,0,,,99,49
130320,note_on,240,0,2,,,,,,,,,0,,,73,0
130342,set_tempo,491,1,0,,,,,,540443,,,,,,,
130380,note_on,60,0,1,,,,,,,,,0,,,99,0
130380,note_on,0,0,1,,,,,,,,,0,,,100,55
130440,note_on,0,0,1,,,,,,,,,0,,,99,55
130440,note_on,60,0,1,,,,,,,,,0,,,100,0
130500,note_on,60,0,1,,,,,,,,,0,,,99,0
130500,note_on,0,0,1,,,,,,,,,0,,,87,55
130560,note_on,60,0,1,,,,,,,,,0,,,87,0
130560,note_on,0,0,2,,,,,,,,,0,,,71,56
130560,note_on,240,0,2,,,,,,,,,0,,,71,0
130560,note_on,0,0,1,,,,,,,,,0,,,87,45
130560,note_on,0,0,2,,,,,,,,,0,,,56,0
130620,note_on,60,0,1,,,,,,,,,0,,,87,0
130620,note_on,0,0,1,,,,,,,,,0,,,88,45
130680,note_on,60,0,1,,,,,,,,,0,,,88,0
130680,note_on,0,0,1,,,,,,,,,0,,,87,45
130740,note_on,60,0,1,,,,,,,,,0,,,87,0
130740,note_on,0,0,1,,,,,,,,,0,,,75,45
130800,note_on,0,0,2,,,,,,,,,0,,,70,57
130800,note_on,0,0,1,,,,,,,,,0,,,87,45
130800,note_on,240,0,2,,,,,,,,,0,,,71,0
130800,note_on,60,0,1,,,,,,,,,0,,,75,0
130822,set_tempo,480,1,0,,,,,,550156,,,,,,,
130880,note_on,80,0,1,,,,,,,,,0,,,87,0
130880,note_on,0,0,1,,,,,,,,,0,,,88,45
130960,note_on,0,0,1,,,,,,,,,0,,,87,45
130960,note_on,80,0,1,,,,,,,,,0,,,88,0
131040,note_on,0,0,2,,,,,,,,,0,,,68,60
131040,note_on,240,0,2,,,,,,,,,0,,,70,0
131040,note_on,0,0,2,,,,,,,,,0,,,59,42
131040,note_on,80,0,1,,,,,,,,,0,,,87,0
131040,note_on,0,0,1,,,,,,,,,0,,,99,53
131062,set_tempo,240,1,0,,,,,,540443,,,,,,,
131100,note_on,60,0,1,,,,,,,,,0,,,99,0
131100,note_on,0,0,1,,,,,,,,,0,,,100,53
131160,note_on,60,0,1,,,,,,,,,0,,,100,0
131160,note_on,0,0,1,,,,,,,,,0,,,99,53
131220,note_on,60,0,1,,,,,,,,,0,,,99,0
131220,note_on,0,0,1,,,,,,,,,0,,,87,53
131280,note_on,0,0,2,,,,,,,,,0,,,67,56
131280,note_on,240,0,2,,,,,,,,,0,,,68,0
131280,note_on,0,0,2,,,,,,,,,0,,,59,0
131280,note_on,0,0,1,,,,,,,,,0,,,87,46
131280,note_on,60,0,1,,,,,,,,,0,,,87,0
131340,note_on,0,0,1,,,,,,,,,0,,,88,45
131340,note_on,60,0,1,,,,,,,,,0,,,87,0
131400,note_on,0,0,1,,,,,,,,,0,,,87,45
131400,note_on,60,0,1,,,,,,,,,0,,,88,0
131460,note_on,60,0,1,,,,,,,,,0,,,87,0
131460,note_on,0,0,1,,,,,,,,,0,,,75,45
131520,note_on,0,0,1,,,,,,,,,0,,,87,45
131520,note_on,0,0,2,,,,,,,,,0,,,68,57
131520,note_on,60,0,1,,,,,,,,,0,,,75,0
131520,note_on,240,0,2,,,,,,,,,0,,,67,0
131600,note_on,80,0,1,,,,,,,,,0,,,87,0
131600,note_on,0,0,1,,,,,,,,,0,,,88,45
131680,note_on,0,0,1,,,,,,,,,0,,,87,45
131680,note_on,80,0,1,,,,,,,,,0,,,88,0
131760,note_on,240,0,2,,,,,,,,,0,,,68,0
131760,note_on,80,0,1,,,,,,,,,0,,,87,0
131760,note_on,0,0,2,,,,,,,,,0,,,70,66
131760,note_on,0,0,2,,,,,,,,,0,,,67,49
131760,note_on,0,0,1,,,,,,,,,0,,,99,55
131782,set_tempo,720,1,0,,,,,,545256,,,,,,,
131820,note_on,60,0,1,,,,,,,,,0,,,99,0
131820,note_on,0,0,1,,,,,,,,,0,,,100,55
131880,note_on,60,0,1,,,,,,,,,0,,,100,0
131880,note_on,0,0,1,,,,,,,,,0,,,99,55
131940,note_on,60,0,1,,,,,,,,,0,,,99,0
131940,note_on,0,0,1,,,,,,,,,0,,,87,55
132000,note_on,60,0,1,,,,,,,,,0,,,87,0
132000,note_on,0,0,2,,,,,,,,,0,,,63,60
132000,note_on,0,0,1,,,,,,,,,0,,,87,45
132000,note_on,0,0,2,,,,,,,,,0,,,67,0
132000,note_on,240,0,2,,,,,,,,,0,,,70,0
132060,note_on,60,0,1,,,,,,,,,0,,,87,0
132060,note_on,0,0,1,,,,,,,,,0,,,88,45
132120,note_on,0,0,1,,,,,,,,,0,,,87,45
132120,note_on,60,0,1,,,,,,,,,0,,,88,0
132180,note_on,60,0,1,,,,,,,,,0,,,87,0
132180,note_on,180,0,2,,,,,,,,,0,,,63,0
132180,note_on,0,0,1,,,,,,,,,0,,,75,45
132240,note_on,0,0,1,,,,,,,,,0,,,87,45
132240,note_on,60,0,1,,,,,,,,,0,,,75,0
132240,note_on,60,0,2,,,,,,,,,0,,,63,60
132262,set_tempo,480,1,0,,,,,,550156,,,,,,,
132320,note_on,0,0,1,,,,,,,,,0,,,88,45
132320,note_on,80,0,1,,,,,,,,,0,,,87,0
132400,note_on,0,0,1,,,,,,,,,0,,,87,45
132400,note_on,80,0,1,,,,,,,,,0,,,88,0
132420,note_on,180,0,2,,,,,,,,,0,,,63,0
132480,note_on,80,0,1,,,,,,,,,0,,,87,0
132480,note_on,0,0,1,,,,,,,,,0,,,99,53
132480,note_on,0,0,2,,,,,,,,,0,,,59,51
132480,note_on,60,0,2,,,,,,,,,0,,,68,50
132502,set_tempo,240,1,0,,,,,,540443,,,,,,,
132540,note_on,0,0,1,,,,,,,,,0,,,100,53
132540,note_on,60,0,1,,,,,,,,,0,,,99,0
132600,note_on,60,0,1,,,,,,,,,0,,,100,0
132600,note_on,0,0,1,,,,,,,,,0,,,99,53
132660,note_on,60,0,1,,,,,,,,,0,,,99,0
132660,note_on,0,0,1,,,,,,,,,0,,,87,53
132720,note_on,0,0,2,,,,,,,,,0,,,66,48
132720,note_on,0,0,1,,,,,,,,,0,,,87,46
132720,note_on,0,0,2,,,,,,,,,0,,,68,0
132720,note_on,0,0,2,,,,,,,,,0,,,60,49
132720,note_on,240,0,2,,,,,,,,,0,,,59,0
132720,note_on,60,0,1,,,,,,,,,0,,,87,0
132780,note_on,0,0,1,,,,,,,,,0,,,88,46
132780,note_on,60,0,1,,,,,,,,,0,,,87,0
132840,note_on,0,0,1,,,,,,,,,0,,,87,46
132840,note_on,60,0,1,,,,,,,,,0,,,88,0
132900,note_on,0,0,1,,,,,,,,,0,,,75,46
132900,note_on,60,0,1,,,,,,,,,0,,,87,0
132960,note_on,60,0,1,,,,,,,,,0,,,75,0
132960,note_on,0,0,1,,,,,,,,,0,,,87,46
132960,note_on,240,0,2,,,,,,,,,0,,,60,0
132960,note_on,0,0,2,,,,,,,,,0,,,64,55
132960,note_on,0,0,2,,,,,,,,,0,,,61,42
132960,note_on,0,0,2,,,,,,,,,0,,,66,0
133040,note_on,80,0,1,,,,,,,,,0,,,87,0
133040,note_on,0,0,1,,,,,,,,,0,,,88,46
133091,set_tempo,589,1,0,,,,,,555144,,,,,,,
133120,note_on,80,0,1,,,,,,,,,0,,,88,0
133120,note_on,0,0,1,,,,,,,,,0,,,87,46
133200,set_tempo,109,1,0,,,,,,573285,,,,,,,
133200,note_on,80,0,1,,,,,,,,,0,,,87,0
133200,note_on,0,0,2,,,,,,,,,0,,,64,0
133200,note_on,0,0,2,,,,,,,,,0,,,63,66
133200,note_on,240,0,2,,,,,,,,,0,,,61,0
133200,note_on,0,0,1,,,,,,,,,0,,,99,50
133260,note_on,60,0,1,,,,,,,,,0,,,99,0
133260,note_on,0,0,1,,,,,,,,,0,,,100,50
133320,note_on,60,0,1,,,,,,,,,0,,,100,0
133320,note_on,0,0,1,,,,,,,,,0,,,99,50
133380,note_on,0,0,1,,,,,,,,,0,,,87,50
133380,note_on,60,0,1,,,,,,,,,0,,,99,0
133440,note_on,0,0,1,,,,,,,,,0,,,71,50
133440,note_on,240,0,2,,,,,,,,,0,,,63,0
133440,note_on,0,0,1,,,,,,,,,0,,,80,50
133440,note_on,60,0,1,,,,,,,,,0,,,87,0
133440,set_tempo,240,1,0,,,,,,555144,,,,,,,
133560,note_on,0,0,1,,,,,,,,,0,,,75,46
133560,note_on,120,0,1,,,,,,,,,0,,,71,0
133560,note_on,0,0,1,,,,,,,,,0,,,80,0
133560,note_on,0,0,1,,,,,,,,,0,,,83,46
133680,note_on,120,0,1,,,,,,,,,0,,,83,0
133680,note_on,0,0,1,,,,,,,,,0,,,75,0
133680,note_on,0,0,1,,,,,,,,,0,,,87,52
133680,note_on,0,0,1,,,,,,,,,0,,,80,52
133860,note_on,180,0,1,,,,,,,,,0,,,80,0
133860,note_on,0,0,1,,,,,,,,,0,,,87,0
133920,note_on,60,0,1,,,,,,,,,0,,,99,50
133920,note_on,480,0,2,,,,,,,,,0,,,63,58
133920,set_tempo,480,1,0,,,,,,586969,,,,,,,
133980,note_on,0,0,1,,,,,,,,,0,,,100,49
133980,note_on,60,0,1,,,,,,,,,0,,,99,0
134040,note_on,60,0,1,,,,,,,,,0,,,100,0
134040,note_on,0,0,1,,,,,,,,,0,,,99,49
134100,note_on,60,0,1,,,,,,,,,0,,,99,0
134100,note_on,0,0,1,,,,,,,,,0,,,87,49
134160,set_tempo,240,1,0,,,,,,619643,,,,,,,
134160,note_on,0,0,1,,,,,,,,,0,,,70,45
134160,note_on,0,0,1,,,,,,,,,0,,,79,45
134160,note_on,240,0,2,,,,,,,,,0,,,63,0
134160,note_on,60,0,1,,,,,,,,,0,,,87,0
134280,note_on,0,0,1,,,,,,,,,0,,,73,40
134280,note_on,0,0,1,,,,,,,,,0,,,79,0
134280,note_on,0,0,1,,,,,,,,,0,,,82,40
134280,note_on,120,0,1,,,,,,,,,0,,,70,0
134400,note_on,120,0,1,,,,,,,,,0,,,73,0
134400,set_tempo,240,1,0,,,,,,721674,,,,,,,
134400,note_on,0,0,1,,,,,,,,,0,,,79,45
134400,note_on,0,0,1,,,,,,,,,0,,,82,0
134400,note_on,0,0,1,,,,,,,,,0,,,87,45
134580,note_on,180,0,1,,,,,,,,,0,,,79,0
134580,note_on,0,0,1,,,,,,,,,0,,,87,0
134640,set_tempo,240,1,0,,,,,,845070,,,,,,,
134640,note_on,480,0,2,,,,,,,,,0,,,56,58
134760,note_on,120,0,2,,,,,,,,,0,,,63,45
134820,note_on,0,0,2,,,,,,,,,0,,,71,45
134820,note_on,60,0,2,,,,,,,,,0,,,63,0
134880,set_tempo,240,1,0,,,,,,909091,,,,,,,
134880,note_on,60,0,2,,,,,,,,,0,,,71,0
134880,note_on,0,0,2,,,,,,,,,0,,,56,0
134880,note_on,0,0,2,,,,,,,,,0,,,80,52
135000,note_on,120,0,2,,,,,,,,,0,,,80,0
135100,set_tempo,220,1,0,,,,,,568720,,,,,,,
135120,set_tempo,20,1,0,,,,,,585366,,,,,,,
135120,note_on,540,0,1,,,,,,,,,0,,,75,60
135180,set_tempo,60,1,0,,,,,,582524,,,,,,,
135180,note_on,60,0,1,,,,,,,,,0,,,87,48
135220,set_tempo,40,1,0,,,,,,579710,,,,,,,
135240,note_on,0,0,1,,,,,,,,,0,,,88,48
135240,note_on,60,0,1,,,,,,,,,0,,,87,0
135260,set_tempo,40,1,0,,,,,,576923,,,,,,,
135300,note_on,60,0,1,,,,,,,,,0,,,88,0
135300,note_on,0,0,1,,,,,,,,,0,,,87,48
135300,set_tempo,40,1,0,,,,,,574163,,,,,,,
135340,set_tempo,40,1,0,,,,,,571429,,,,,,,
135360,note_on,0,0,1,,,,,,,,,0,,,75,0
135360,note_on,0,0,1,,,,,,,,,0,,,87,67
135360,note_on,60,0,1,,,,,,,,,0,,,87,0
135380,set_tempo,40,1,0,,,,,,568720,,,,,,,
135420,note_on,60,0,1,,,,,,,,,0,,,99,52
135420,set_tempo,40,1,0,,,,,,566038,,,,,,,
135460,set_tempo,40,1,0,,,,,,563380,,,,,,,
135480,set_tempo,20,1,0,,,,,,597015,,,,,,,
135480,note_on,60,0,1,,,,,,,,,0,,,99,0
135480,note_on,0,0,1,,,,,,,,,0,,,100,52
135540,note_on,0,0,1,,,,,,,,,0,,,99,52
135540,note_on,60,0,1,,,,,,,,,0,,,100,0
135560,set_tempo,80,1,0,,,,,,545455,,,,,,,
135600,set_tempo,40,1,0,,,,,,545455,,,,,,,
135600,note_on,0,0,1,,,,,,,,,0,,,87,0
135600,note_on,0,0,1,,,,,,,,,0,,,87,67
135600,note_on,60,0,1,,,,,,,,,0,,,99,0
135660,note_on,60,0,1,,,,,,,,,0,,,99,49
135720,note_on,0,0,1,,,,,,,,,0,,,100,49
135720,note_on,60,0,1,,,,,,,,,0,,,99,0
135780,note_on,0,0,1,,,,,,,,,0,,,99,49
135780,note_on,60,0,1,,,,,,,,,0,,,100,0
135840,note_on,60,0,1,,,,,,,,,0,,,99,0
135840,note_on,0,0,1,,,,,,,,,0,,,85,62
135840,note_on,0,0,1,,,,,,,,,0,,,87,0
135900,note_on,60,0,1,,,,,,,,,0,,,97,49
135960,note_on,60,0,1,,,,,,,,,0,,,97,0
135960,set_tempo,360,1,0,,,,,,533333,,,,,,,
135960,note_on,0,0,1,,,,,,,,,0,,,99,49
136020,note_on,0,0,1,,,,,,,,,0,,,97,50
136020,note_on,60,0,1,,,,,,,,,0,,,99,0
136080,note_on,60,0,1,,,,,,,,,0,,,97,0
136080,note_on,0,0,1,,,,,,,,,0,,,85,0
136080,note_on,0,0,2,,,,,,,,,0,,,44,56
136080,set_tempo,120,1,0,,,,,,538117,,,,,,,
136080,note_on,1080,0,2,,,,,,,,,0,,,32,49
136080,note_on,0,0,1,,,,,,,,,0,,,83,66
136083,control_change,3,0,2,,,,,,,,,0,64,127,,
136140,note_on,60,0,1,,,,,,,,,0,,,95,50
136200,note_on,0,0,1,,,,,,,,,0,,,97,50
136200,note_on,60,0,1,,,,,,,,,0,,,95,0
136260,note_on,0,0,1,,,,,,,,,0,,,95,52
136260,note_on,60,0,1,,,,,,,,,0,,,97,0
136320,note_on,0,0,2,,,,,,,,,0,,,63,49
136320,note_on,0,0,2,,,,,,,,,0,,,51,44
136320,note_on,0,0,2,,,,,,,,,0,,,32,0
136320,note_on,0,0,1,,,,,,,,,0,,,83,61
136320,note_on,60,0,1,,,,,,,,,0,,,95,0
136320,note_on,0,0,1,,,,,,,,,0,,,83,0
136320,note_on,237,0,2,,,,,,,,,0,,,44,0
136320,note_on,0,0,2,,,,,,,,,0,,,59,44
136380,note_on,60,0,1,,,,,,,,,0,,,95,45
136440,note_on,0,0,1,,,,,,,,,0,,,97,46
136440,note_on,60,0,1,,,,,,,,,0,,,95,0
136500,note_on,60,0,1,,,,,,,,,0,,,97,0
136500,note_on,0,0,1,,,,,,,,,0,,,95,46
136560,note_on,0,0,1,,,,,,,,,0,,,83,0
136560,note_on,0,0,1,,,,,,,,,0,,,82,62
136560,note_on,0,0,2,,,,,,,,,0,,,56,44
136560,note_on,0,0,2,,,,,,,,,0,,,59,44
136560,note_on,0,0,2,,,,,,,,,0,,,51,0
136560,note_on,0,0,2,,,,,,,,,0,,,63,0
136560,set_tempo,480,1,0,,,,,,526316,,,,,,,
136560,note_on,240,0,2,,,,,,,,,0,,,59,0
136560,note_on,60,0,1,,,,,,,,,0,,,95,0
136560,note_on,0,0,2,,,,,,,,,0,,,63,49
136620,note_on,60,0,1,,,,,,,,,0,,,94,45
136680,note_on,0,0,1,,,,,,,,,0,,,95,45
136680,note_on,60,0,1,,,,,,,,,0,,,94,0
136740,note_on,0,0,1,,,,,,,,,0,,,94,46
136740,note_on,60,0,1,,,,,,,,,0,,,95,0
136743,control_change,183,0,2,,,,,,,,,0,64,0,,
136800,note_on,0,0,2,,,,,,,,,0,,,47,53
136800,control_change,0,0,2,,,,,,,,,0,64,127,,
136800,note_on,60,0,1,,,,,,,,,0,,,94,0
136800,set_tempo,240,1,0,,,,,,533333,,,,,,,
136800,note_on,0,0,1,,,,,,,,,0,,,80,66
136800,note_on,0,0,2,,,,,,,,,0,,,35,48
136800,note_on,0,0,1,,,,,,,,,0,,,82,0
136800,note_on,0,0,2,,,,,,,,,0,,,59,0
136800,note_on,0,0,2,,,,,,,,,0,,,63,0
136800,note_on,57,0,2,,,,,,,,,0,,,56,0
136860,note_on,60,0,1,,,,,,,,,0,,,92,46
136920,note_on,60,0,1,,,,,,,,,0,,,92,0
136920,note_on,0,0,1,,,,,,,,,0,,,94,46
136980,note_on,60,0,1,,,,,,,,,0,,,94,0
136980,note_on,0,0,1,,,,,,,,,0,,,92,46
137040,note_on,240,0,2,,,,,,,,,0,,,47,0
137040,note_on,0,0,2,,,,,,,,,0,,,35,0
137040,note_on,60,0,1,,,,,,,,,0,,,92,0
137040,note_on,0,0,2,,,,,,,,,0,,,51,44
137040,note_on,0,0,2,,,,,,,,,0,,,59,44
137040,note_on,0,0,2,,,,,,,,,0,,,63,49
137040,note_on,0,0,1,,,,,,,,,0,,,79,66
137040,note_on,0,0,1,,,,,,,,,0,,,80,0
137100,note_on,60,0,1,,,,,,,,,0,,,91,46
137160,note_on,0,0,1,,,,,,,,,0,,,92,46
137160,note_on,60,0,1,,,,,,,,,0,,,91,0
137220,note_on,0,0,1,,,,,,,,,0,,,91,46
137220,note_on,60,0,1,,,,,,,,,0,,,92,0
137280,note_on,0,0,2,,,,,,,,,0,,,63,49
137280,note_on,240,0,2,,,,,,,,,0,,,51,0
137280,note_on,0,0,1,,,,,,,,,0,,,80,70
137280,note_on,0,0,1,,,,,,,,,0,,,79,0
137280,note_on,0,0,2,,,,,,,,,0,,,59,0
137280,set_tempo,480,1,0,,,,,,524017,,,,,,,
137280,note_on,0,0,2,,,,,,,,,0,,,63,0
137280,note_on,0,0,2,,,,,,,,,0,,,59,44
137280,note_on,0,0,2,,,,,,,,,0,,,56,44
137280,note_on,60,0,1,,,,,,,,,0,,,91,0
137340,note_on,60,0,1,,,,,,,,,0,,,92,48
137400,note_on,60,0,1,,,,,,,,,0,,,92,0
137400,note_on,0,0,1,,,,,,,,,0,,,94,48
137460,note_on,0,0,1,,,,,,,,,0,,,92,49
137460,note_on,60,0,1,,,,,,,,,0,,,94,0
137489,control_change,209,0,2,,,,,,,,,0,64,0,,
137520,note_on,0,0,1,,,,,,,,,0,,,80,0
137520,note_on,0,0,1,,,,,,,,,0,,,82,75
137520,note_on,0,0,2,,,,,,,,,0,,,39,49
137520,note_on,0,0,2,,,,,,,,,0,,,51,55
137520,note_on,0,0,2,,,,,,,,,0,,,59,0
137520,note_on,0,0,2,,,,,,,,,0,,,63,0
137520,set_tempo,240,1,0,,,,,,535714,,,,,,,
137520,note_on,31,0,2,,,,,,,,,0,,,56,0
137520,note_on,60,0,1,,,,,,,,,0,,,92,0
137520,control_change,0,0,2,,,,,,,,,0,64,127,,
137580,note_on,60,0,1,,,,,,,,,0,,,94,57
137640,note_on,60,0,1,,,,,,,,,0,,,94,0
137640,note_on,0,0,1,,,,,,,,,0,,,95,57
137700,note_on,0,0,1,,,,,,,,,0,,,94,57
137700,note_on,60,0,1,,,,,,,,,0,,,95,0
137760,note_on,60,0,1,,,,,,,,,0,,,94,0
137760,note_on,0,0,2,,,,,,,,,0,,,67,49
137760,note_on,0,0,2,,,,,,,,,0,,,39,0
137760,note_on,240,0,2,,,,,,,,,0,,,51,0
137760,note_on,0,0,1,,,,,,,,,0,,,82,0
137760,note_on,0,0,2,,,,,,,,,0,,,63,44
137760,note_on,0,0,2,,,,,,,,,0,,,55,44
137760,note_on,0,0,1,,,,,,,,,0,,,75,66
137820,note_on,60,0,1,,,,,,,,,0,,,87,49
137880,note_on,0,0,1,,,,,,,,,0,,,88,49
137880,note_on,60,0,1,,,,,,,,,0,,,87,0
137940,note_on,60,0,1,,,,,,,,,0,,,88,0
137940,note_on,0,0,1,,,,,,,,,0,,,87,49
137940,note_on,0,0,1,,,,,,,,,0,,,75,0
138000,note_on,0,0,2,,,,,,,,,0,,,58,44
138000,note_on,240,0,2,,,,,,,,,0,,,55,0
138000,note_on,60,0,1,,,,,,,,,0,,,87,0
138000,note_on,0,0,2,,,,,,,,,0,,,63,44
138000,note_on,0,0,2,,,,,,,,,0,,,63,0
138000,note_on,0,0,2,,,,,,,,,0,,,67,0
138000,set_tempo,480,1,0,,,,,,526316,,,,,,,
138000,note_on,0,0,2,,,,,,,,,0,,,67,49
138000,note_on,0,0,1,,,,,,,,,0,,,75,66
138060,note_on,60,0,1,,,,,,,,,0,,,87,49
138120,note_on,0,0,1,,,,,,,,,0,,,88,49
138120,note_on,60,0,1,,,,,,,,,0,,,87,0
138176,control_change,176,0,2,,,,,,,,,0,64,0,,
138180,note_on,0,0,1,,,,,,,,,0,,,87,50
138180,note_on,60,0,1,,,,,,,,,0,,,88,0
138240,note_on,0,0,1,,,,,,,,,0,,,76,69
138240,note_on,0,0,1,,,,,,,,,0,,,75,0
138240,note_on,0,0,2,,,,,,,,,0,,,67,0
138240,note_on,0,0,2,,,,,,,,,0,,,63,0
138240,note_on,60,0,1,,,,,,,,,0,,,87,0
138240,note_on,0,0,2,,,,,,,,,0,,,43,57
138240,note_on,64,0,2,,,,,,,,,0,,,58,0
138240,set_tempo,240,1,0,,,,,,530973,,,,,,,
138258,control_change,18,0,2,,,,,,,,,0,64,127,,
138300,note_on,60,0,1,,,,,,,,,0,,,88,50
138360,note_on,60,0,1,,,,,,,,,0,,,88,0
138360,note_on,0,0,1,,,,,,,,,0,,,90,50
138420,note_on,0,0,1,,,,,,,,,0,,,88,50
138420,note_on,60,0,1,,,,,,,,,0,,,90,0
138480,note_on,0,0,2,,,,,,,,,0,,,61,42
138480,note_on,0,0,2,,,,,,,,,0,,,63,42
138480,note_on,0,0,2,,,,,,,,,0,,,70,48
138480,note_on,0,0,1,,,,,,,,,0,,,75,63
138480,note_on,0,0,1,,,,,,,,,0,,,76,0
138480,note_on,60,0,1,,,,,,,,,0,,,88,0
138480,note_on,222,0,2,,,,,,,,,0,,,43,0
138540,note_on,60,0,1,,,,,,,,,0,,,87,48
138600,note_on,60,0,1,,,,,,,,,0,,,87,0
138600,note_on,0,0,1,,,,,,,,,0,,,88,48
138660,note_on,0,0,1,,,,,,,,,0,,,87,48
138660,note_on,60,0,1,,,,,,,,,0,,,88,0
138720,note_on,240,0,2,,,,,,,,,0,,,70,0
138720,note_on,0,0,1,,,,,,,,,0,,,73,63
138720,note_on,0,0,1,,,,,,,,,0,,,75,0
138720,note_on,0,0,2,,,,,,,,,0,,,63,0
138720,note_on,0,0,2,,,,,,,,,0,,,63,42
138720,note_on,0,0,2,,,,,,,,,0,,,70,48
138720,note_on,0,0,2,,,,,,,,,0,,,61,0
138720,note_on,0,0,2,,,,,,,,,0,,,58,42
138720,set_tempo,480,1,0,,,,,,528634,,,,,,,
138720,note_on,60,0,1,,,,,,,,,0,,,87,0
138780,note_on,60,0,1,,,,,,,,,0,,,85,48
138840,note_on,60,0,1,,,,,,,,,0,,,85,0
138840,note_on,0,0,1,,,,,,,,,0,,,87,48
138900,note_on,60,0,1,,,,,,,,,0,,,87,0
138900,note_on,0,0,1,,,,,,,,,0,,,85,48
138907,control_change,187,0,2,,,,,,,,,0,64,0,,
138960,note_on,0,0,2,,,,,,,,,0,,,63,0
138960,note_on,0,0,1,,,,,,,,,0,,,73,0
138960,note_on,0,0,1,,,,,,,,,0,,,71,67
138960,note_on,0,0,2,,,,,,,,,0,,,44,53
138960,note_on,0,0,2,,,,,,,,,0,,,58,0
138960,note_on,53,0,2,,,,,,,,,0,,,70,0
138960,set_tempo,240,1,0,,,,,,535714,,,,,,,
138960,note_on,60,0,1,,,,,,,,,0,,,85,0
138971,control_change,11,0,2,,,,,,,,,0,64,127,,
139020,note_on,60,0,1,,,,,,,,,0,,,83,48
139080,note_on,60,0,1,,,,,,,,,0,,,83,0
139080,note_on,0,0,1,,,,,,,,,0,,,85,48
139140,note_on,0,0,1,,,,,,,,,0,,,83,48
139140,note_on,60,0,1,,,,,,,,,0,,,85,0
139170,note_on,30,0,1,,,,,,,,,0,,,71,0
139200,note_on,0,0,1,,,,,,,,,0,,,71,61
139200,note_on,0,0,2,,,,,,,,,0,,,68,45
139200,note_on,30,0,1,,,,,,,,,0,,,83,0
139200,note_on,229,0,2,,,,,,,,,0,,,44,0
139200,note_on,0,0,2,,,,,,,,,0,,,63,39
139260,note_on,60,0,1,,,,,,,,,0,,,83,44
139320,note_on,0,0,1,,,,,,,,,0,,,85,44
139320,note_on,60,0,1,,,,,,,,,0,,,83,0
139380,note_on,0,0,1,,,,,,,,,0,,,83,44
139380,note_on,60,0,1,,,,,,,,,0,,,85,0
139440,note_on,0,0,2,,,,,,,,,0,,,63,45
139440,note_on,60,0,1,,,,,,,,,0,,,83,0
139440,note_on,240,0,2,,,,,,,,,0,,,63,0
139440,note_on,0,0,1,,,,,,,,,0,,,71,0
139440,note_on,0,0,2,,,,,,,,,0,,,59,39
139440,note_on,0,0,1,,,,,,,,,0,,,70,60
139440,note_on,0,0,2,,,,,,,,,0,,,68,0
139500,note_on,60,0,1,,,,,,,,,0,,,82,46
139560,note_on,0,0,1,,,,,,,,,0,,,83,46
139560,note_on,60,0,1,,,,,,,,,0,,,82,0
139620,note_on,0,0,1,,,,,,,,,0,,,82,48
139620,note_on,60,0,1,,,,,,,,,0,,,83,0
139637,control_change,197,0,2,,,,,,,,,0,64,0,,
139680,set_tempo,720,1,0,,,,,,530973,,,,,,,
139680,note_on,0,0,2,,,,,,,,,0,,,40,52
139680,note_on,43,0,2,,,,,,,,,0,,,59,0
139680,note_on,60,0,1,,,,,,,,,0,,,82,0
139680,note_on,0,0,2,,,,,,,,,0,,,63,0
139680,note_on,0,0,1,,,,,,,,,0,,,70,0
139680,note_on,0,0,1,,,,,,,,,0,,,68,67
139689,control_change,9,0,2,,,,,,,,,0,64,127,,
139740,note_on,60,0,1,,,,,,,,,0,,,80,50
139800,note_on,0,0,1,,,,,,,,,0,,,82,52
139800,note_on,60,0,1,,,,,,,,,0,,,80,0
139860,note_on,0,0,1,,,,,,,,,0,,,80,52
139860,note_on,60,0,1,,,,,,,,,0,,,82,0
139920,note_on,231,0,2,,,,,,,,,0,,,40,0
139920,note_on,0,0,2,,,,,,,,,0,,,59,38
139920,note_on,0,0,1,,,,,,,,,0,,,68,0
139920,note_on,0,0,2,,,,,,,,,0,,,62,42
139920,note_on,0,0,1,,,,,,,,,0,,,67,61
139920,note_on,60,0,1,,,,,,,,,0,,,80,0
139980,note_on,60,0,1,,,,,,,,,0,,,79,48
140040,note_on,60,0,1,,,,,,,,,0,,,79,0
140040,note_on,0,0,1,,,,,,,,,0,,,80,48
140100,note_on,0,0,1,,,,,,,,,0,,,79,48
140100,note_on,60,0,1,,,,,,,,,0,,,80,0
140160,note_on,60,0,1,,,,,,,,,0,,,79,0
140160,note_on,0,0,2,,,,,,,,,0,,,62,42
140160,note_on,240,0,2,,,,,,,,,0,,,59,0
140160,set_tempo,480,1,0,,,,,,563380,,,,,,,
140160,note_on,0,0,2,,,,,,,,,0,,,58,38
140160,note_on,0,0,2,,,,,,,,,0,,,62,0
140160,note_on,0,0,1,,,,,,,,,0,,,67,0
140160,note_on,0,0,1,,,,,,,,,0,,,68,58
140220,note_on,60,0,1,,,,,,,,,0,,,80,46
140280,note_on,60,0,1,,,,,,,,,0,,,80,0
140280,note_on,0,0,1,,,,,,,,,0,,,82,46
140340,note_on,60,0,1,,,,,,,,,0,,,82,0
140340,note_on,0,0,1,,,,,,,,,0,,,80,46
140360,control_change,200,0,2,,,,,,,,,0,64,0,,
140400,note_on,0,0,1,,,,,,,,,0,,,70,61
140400,note_on,60,0,1,,,,,,,,,0,,,80,0
140400,control_change,0,0,2,,,,,,,,,0,64,127,,
140400,note_on,40,0,2,,,,,,,,,0,,,58,0
140400,set_tempo,240,1,0,,,,,,576923,,,,,,,
140400,note_on,0,0,2,,,,,,,,,0,,,62,0
140400,note_on,0,0,2,,,,,,,,,0,,,39,48
140400,note_on,0,0,1,,,,,,,,,0,,,68,0
140460,note_on,60,0,1,,,,,,,,,0,,,82,48
140520,note_on,0,0,1,,,,,,,,,0,,,83,48
140520,note_on,60,0,1,,,,,,,,,0,,,82,0
140580,note_on,60,0,1,,,,,,,,,0,,,83,0
140580,note_on,0,0,1,,,,,,,,,0,,,82,48
140640,note_on,0,0,2,,,,,,,,,0,,,58,42
140640,note_on,60,0,1,,,,,,,,,0,,,82,0
140640,note_on,240,0,2,,,,,,,,,0,,,39,0
140640,set_tempo,240,1,0,,,,,,634921,,,,,,,
140640,note_on,0,0,1,,,,,,,,,0,,,70,0
140640,note_on,0,0,1,,,,,,,,,0,,,63,55
140640,note_on,0,0,2,,,,,,,,,0,,,55,38
140700,note_on,60,0,1,,,,,,,,,0,,,75,42
140760,note_on,0,0,1,,,,,,,,,0,,,76,42
140760,note_on,60,0,1,,,,,,,,,0,,,75,0
140760,note_on,0,0,1,,,,,,,,,0,,,63,0
140820,note_on,60,0,1,,,,,,,,,0,,,76,0
140820,note_on,0,0,1,,,,,,,,,0,,,75,42
140880,note_on,240,0,2,,,,,,,,,0,,,58,0
140880,note_on,0,0,2,,,,,,,,,0,,,67,37
140880,note_on,0,0,2,,,,,,,,,0,,,55,0
140880,note_on,0,0,1,,,,,,,,,0,,,75,66
140880,note_on,60,0,1,,,,,,,,,0,,,75,0
140880,set_tempo,240,1,0,,,,,,558140,,,,,,,
140880,note_on,0,0,2,,,,,,,,,0,,,70,41
140940,note_on,60,0,1,,,,,,,,,0,,,87,48
141000,note_on,0,0,1,,,,,,,,,0,,,88,48
141000,note_on,60,0,1,,,,,,,,,0,,,87,0
141060,note_on,0,0,1,,,,,,,,,0,,,87,48
141060,note_on,60,0,1,,,,,,,,,0,,,88,0
141120,note_on,0,0,2,,,,,,,,,0,,,79,42
141120,note_on,0,0,2,,,,,,,,,0,,,82,48
141120,note_on,0,0,1,,,,,,,,,0,,,75,0
141120,note_on,0,0,1,,,,,,,,,0,,,87,72
141120,note_on,240,0,2,,,,,,,,,0,,,67,0
141120,note_on,60,0,1,,,,,,,,,0,,,87,0
141120,note_on,0,0,2,,,,,,,,,0,,,70,0
141180,set_tempo,300,1,0,,,,,,566038,,,,,,,
141180,note_on,60,0,1,,,,,,,,,0,,,99,58
141220,set_tempo,40,1,0,,,,,,563380,,,,,,,
141240,set_tempo,20,1,0,,,,,,597015,,,,,,,
141240,note_on,60,0,1,,,,,,,,,0,,,99,0
141240,note_on,0,0,1,,,,,,,,,0,,,100,58
141300,note_on,0,0,1,,,,,,,,,0,,,99,58
141300,note_on,60,0,1,,,,,,,,,0,,,100,0
141320,set_tempo,80,1,0,,,,,,545455,,,,,,,
141360,set_tempo,40,1,0,,,,,,552995,,,,,,,
141360,note_on,0,0,2,,,,,,,,,0,,,82,0
141360,control_change,0,0,2,,,,,,,,,0,64,0,,
141360,note_on,240,0,2,,,,,,,,,0,,,79,0
141360,note_on,60,0,1,,,,,,,,,0,,,99,0
141360,note_on,0,0,1,,,,,,,,,0,,,87,0
141360,note_on,0,0,1,,,,,,,,,0,,,87,70
141420,note_on,60,0,1,,,,,,,,,0,,,99,55
141480,note_on,0,0,1,,,,,,,,,0,,,100,55
141480,note_on,60,0,1,,,,,,,,,0,,,99,0
141540,note_on,60,0,1,,,,,,,,,0,,,100,0
141540,note_on,0,0,1,,,,,,,,,0,,,99,55
141600,set_tempo,240,1,0,,,,,,560748,,,,,,,
141600,note_on,0,0,1,,,,,,,,,0,,,87,0
141600,note_on,60,0,1,,,,,,,,,0,,,99,0
141600,note_on,0,0,1,,,,,,,,,0,,,85,70
141660,note_on,60,0,1,,,,,,,,,0,,,97,55
141720,note_on,60,0,1,,,,,,,,,0,,,97,0
141720,note_on,0,0,1,,,,,,,,,0,,,99,55
141780,note_on,0,0,1,,,,,,,,,0,,,97,55
141780,note_on,60,0,1,,,,,,,,,0,,,99,0
141840,note_on,60,0,1,,,,,,,,,0,,,97,0
141840,set_tempo,240,1,0,,,,,,540541,,,,,,,
141840,note_on,480,0,2,,,,,,,,,0,,,44,48
141840,note_on,0,0,1,,,,,,,,,0,,,84,69
141840,note_on,0,0,1,,,,,,,,,0,,,85,0
141851,control_change,11,0,2,,,,,,,,,0,64,127,,
141900,note_on,60,0,1,,,,,,,,,0,,,96,56
141960,note_on,60,0,1,,,,,,,,,0,,,96,0
141960,note_on,0,0,1,,,,,,,,,0,,,97,56
142020,note_on,0,0,1,,,,,,,,,0,,,96,56
142020,note_on,60,0,1,,,,,,,,,0,,,97,0
142080,note_on,0,0,2,,,,,,,,,0,,,63,39
142080,note_on,229,0,2,,,,,,,,,0,,,44,0
142080,note_on,0,0,1,,,,,,,,,0,,,84,67
142080,note_on,0,0,2,,,,,,,,,0,,,66,45
142080,note_on,0,0,2,,,,,,,,,0,,,57,39
142080,note_on,0,0,1,,,,,,,,,0,,,84,0
142080,note_on,60,0,1,,,,,,,,,0,,,96,0
142140,note_on,60,0,1,,,,,,,,,0,,,96,53
142200,note_on,60,0,1,,,,,,,,,0,,,96,0
142200,note_on,0,0,1,,,,,,,,,0,,,97,53
142260,note_on,60,0,1,,,,,,,,,0,,,97,0
142260,note_on,0,0,1,,,,,,,,,0,,,96,53
142320,note_on,0,0,2,,,,,,,,,0,,,66,0
142320,note_on,240,0,2,,,,,,,,,0,,,57,0
142320,note_on,0,0,2,,,,,,,,,0,,,63,0
142320,note_on,0,0,2,,,,,,,,,0,,,63,39
142320,note_on,0,0,2,,,,,,,,,0,,,66,45
142320,note_on,0,0,2,,,,,,,,,0,,,60,39
142320,set_tempo,480,1,0,,,,,,533333,,,,,,,
142320,note_on,0,0,1,,,,,,,,,0,,,81,66
142320,note_on,60,0,1,,,,,,,,,0,,,96,0
142320,note_on,0,0,1,,,,,,,,,0,,,84,0
142380,note_on,60,0,1,,,,,,,,,0,,,93,52
142440,note_on,0,0,1,,,,,,,,,0,,,95,52
142440,note_on,60,0,1,,,,,,,,,0,,,93,0
142491,control_change,171,0,2,,,,,,,,,0,64,0,,
142500,note_on,60,0,1,,,,,,,,,0,,,95,0
142500,note_on,0,0,1,,,,,,,,,0,,,93,52
142557,control_change,66,0,2,,,,,,,,,0,64,127,,
142560,set_tempo,240,1,0,,,,,,540541,,,,,,,
142560,note_on,3,0,2,,,,,,,,,0,,,66,0
142560,note_on,0,0,1,,,,,,,,,0,,,80,69
142560,note_on,0,0,1,,,,,,,,,0,,,81,0
142560,note_on,0,0,2,,,,,,,,,0,,,48,48
142560,note_on,0,0,2,,,,,,,,,0,,,60,0
142560,note_on,60,0,1,,,,,,,,,0,,,93,0
142560,note_on,0,0,2,,,,,,,,,0,,,63,0
142620,note_on,60,0,1,,,,,,,,,0,,,92,52
142680,note_on,0,0,1,,,,,,,,,0,,,93,52
142680,note_on,60,0,1,,,,,,,,,0,,,92,0
142740,note_on,0,0,1,,,,,,,,,0,,,92,52
142740,note_on,60,0,1,,,,,,,,,0,,,93,0
142800,note_on,60,0,1,,,,,,,,,0,,,92,0
142800,note_on,0,0,2,,,,,,,,,0,,,63,39
142800,note_on,0,0,2,,,,,,,,,0,,,57,39
142800,note_on,0,0,1,,,,,,,,,0,,,80,0
142800,note_on,0,0,1,,,,,,,,,0,,,80,66
142800,note_on,0,0,2,,,,,,,,,0,,,66,45
142800,note_on,240,0,2,,,,,,,,,0,,,48,0
142860,note_on,60,0,1,,,,,,,,,0,,,92,51
142920,note_on,60,0,1,,,,,,,,,0,,,92,0
142920,note_on,0,0,1,,,,,,,,,0,,,93,51
142980,note_on,0,0,1,,,,,,,,,0,,,92,51
142980,note_on,60,0,1,,,,,,,,,0,,,93,0
143040,note_on,240,0,2,,,,,,,,,0,,,57,0
143040,note_on,0,0,1,,,,,,,,,0,,,78,64
143040,note_on,0,0,2,,,,,,,,,0,,,60,39
143040,set_tempo,480,1,0,,,,,,550459,,,,,,,
143040,note_on,60,0,1,,,,,,,,,0,,,92,0
143040,note_on,0,0,1,,,,,,,,,0,,,80,0
143040,note_on,0,0,2,,,,,,,,,0,,,63,0
143040,note_on,0,0,2,,,,,,,,,0,,,63,39
143040,note_on,0,0,2,,,,,,,,,0,,,66,0
143040,note_on,0,0,2,,,,,,,,,0,,,66,45
143100,note_on,60,0,1,,,,,,,,,0,,,90,46
143160,note_on,60,0,1,,,,,,,,,0,,,90,0
143160,note_on,0,0,1,,,,,,,,,0,,,92,46
143220,note_on,60,0,1,,,,,,,,,0,,,92,0
143220,note_on,0,0,1,,,,,,,,,0,,,90,46
143240,control_change,200,0,2,,,,,,,,,0,64,0,,
143280,note_on,40,0,2,,,,,,,,,0,,,66,0
143280,set_tempo,240,1,0,,,,,,533333,,,,,,,
143280,note_on,0,0,2,,,,,,,,,0,,,60,0
143280,note_on,0,0,2,,,,,,,,,0,,,63,0
143280,note_on,0,0,1,,,,,,,,,0,,,78,0
143280,note_on,0,0,1,,,,,,,,,0,,,76,62
143280,note_on,60,0,1,,,,,,,,,0,,,90,0
143280,note_on,0,0,2,,,,,,,,,0,,,52,48
143305,control_change,25,0,2,,,,,,,,,0,64,127,,
143340,note_on,60,0,1,,,,,,,,,0,,,88,49
143400,note_on,0,0,1,,,,,,,,,0,,,90,49
143400,note_on,60,0,1,,,,,,,,,0,,,88,0
143460,note_on,0,0,1,,,,,,,,,0,,,88,49
143460,note_on,60,0,1,,,,,,,,,0,,,90,0
143520,note_on,0,0,1,,,,,,,,,0,,,73,57
143520,note_on,215,0,2,,,,,,,,,0,,,52,0
143520,note_on,0,0,2,,,,,,,,,0,,,69,40
143520,note_on,0,0,2,,,,,,,,,0,,,64,36
143520,note_on,0,0,1,,,,,,,,,0,,,76,0
143520,note_on,60,0,1,,,,,,,,,0,,,88,0
143580,note_on,60,0,1,,,,,,,,,0,,,85,45
143640,note_on,60,0,1,,,,,,,,,0,,,85,0
143640,note_on,0,0,1,,,,,,,,,0,,,87,45
143700,note_on,60,0,1,,,,,,,,,0,,,87,0
143700,note_on,0,0,1,,,,,,,,,0,,,85,45
143760,note_on,240,0,2,,,,,,,,,0,,,69,0
143760,note_on,0,0,1,,,,,,,,,0,,,73,0
143760,set_tempo,480,1,0,,,,,,526316,,,,,,,
143760,note_on,0,0,1,,,,,,,,,0,,,75,60
143760,note_on,0,0,2,,,,,,,,,0,,,69,45
143760,note_on,0,0,2,,,,,,,,,0,,,64,0
143760,note_on,0,0,2,,,,,,,,,0,,,60,39
143760,note_on,60,0,1,,,,,,,,,0,,,85,0
143820,note_on,60,0,1,,,,,,,,,0,,,87,46
143880,note_on,0,0,1,,,,,,,,,0,,,88,46
143880,note_on,60,0,1,,,,,,,,,0,,,87,0
143940,note_on,60,0,1,,,,,,,,,0,,,88,0
143940,note_on,0,0,1,,,,,,,,,0,,,87,46
143961,control_change,201,0,2,,,,,,,,,0,64,0,,
144000,note_on,60,0,1,,,,,,,,,0,,,87,0
144000,note_on,0,0,2,,,,,,,,,0,,,69,49
144000,note_on,0,0,1,,,,,,,,,0,,,75,0
144000,set_tempo,240,1,0,,,,,,533333,,,,,,,
144000,note_on,0,0,2,,,,,,,,,0,,,61,44
144000,note_on,0,0,2,,,,,,,,,0,,,60,0
144000,note_on,39,0,2,,,,,,,,,0,,,69,0
144000,note_on,0,0,1,,,,,,,,,0,,,76,62
144014,control_change,14,0,2,,,,,,,,,0,64,127,,
144060,note_on,60,0,1,,,,,,,,,0,,,88,50
144120,note_on,0,0,1,,,,,,,,,0,,,90,50
144120,note_on,60,0,1,,,,,,,,,0,,,88,0
144180,note_on,0,0,1,,,,,,,,,0,,,88,50
144180,note_on,60,0,1,,,,,,,,,0,,,90,0
144240,note_on,0,0,2,,,,,,,,,0,,,61,0
144240,note_on,226,0,2,,,,,,,,,0,,,69,0
144240,note_on,0,0,2,,,,,,,,,0,,,66,38
144240,note_on,0,0,1,,,,,,,,,0,,,75,58
144240,note_on,0,0,2,,,,,,,,,0,,,69,42
144240,note_on,60,0,1,,,,,,,,,0,,,88,0
144240,note_on,0,0,1,,,,,,,,,0,,,76,0
144300,note_on,60,0,1,,,,,,,,,0,,,87,45
144360,note_on,60,0,1,,,,,,,,,0,,,87,0
144360,note_on,0,0,1,,,,,,,,,0,,,88,45
144420,note_on,0,0,1,,,,,,,,,0,,,87,45
144420,note_on,60,0,1,,,,,,,,,0,,,88,0
144480,note_on,240,0,2,,,,,,,,,0,,,69,0
144480,note_on,60,0,1,,,,,,,,,0,,,87,0
144480,note_on,0,0,2,,,,,,,,,0,,,64,36
144480,note_on,0,0,1,,,,,,,,,0,,,75,0
144480,note_on,0,0,1,,,,,,,,,0,,,73,55
144480,note_on,0,0,2,,,,,,,,,0,,,69,40
144480,note_on,0,0,2,,,,,,,,,0,,,66,0
144540,note_on,60,0,1,,,,,,,,,0,,,85,42
144600,note_on,0,0,1,,,,,,,,,0,,,87,42
144600,note_on,60,0,1,,,,,,,,,0,,,85,0
144660,note_on,0,0,1,,,,,,,,,0,,,85,42
144660,note_on,60,0,1,,,,,,,,,0,,,87,0
144681,control_change,201,0,2,,,,,,,,,0,64,0,,
144700,set_tempo,700,1,0,,,,,,519481,,,,,,,
144716,note_on,56,0,1,,,,,,,,,0,,,75,48
144720,note_on,0,0,2,,,,,,,,,0,,,71,49
144720,note_on,39,0,2,,,,,,,,,0,,,69,0
144720,note_on,4,0,1,,,,,,,,,0,,,85,0
144720,note_on,0,0,2,,,,,,,,,0,,,68,44
144720,note_on,0,0,2,,,,,,,,,0,,,63,44
144720,note_on,0,0,1,,,,,,,,,0,,,73,0
144720,note_on,0,0,2,,,,,,,,,0,,,64,0
144776,note_on,56,0,1,,,,,,,,,0,,,75,0
144781,note_on,5,0,1,,,,,,,,,0,,,87,48
144840,set_tempo,140,1,0,,,,,,517241,,,,,,,
144841,note_on,60,0,1,,,,,,,,,0,,,87,0
144844,note_on,3,0,1,,,,,,,,,0,,,76,49
144904,note_on,60,0,1,,,,,,,,,0,,,76,0
144905,note_on,1,0,1,,,,,,,,,0,,,77,49
144957,note_on,52,0,1,,,,,,,,,0,,,78,50
144960,note_on,240,0,2,,,,,,,,,0,,,63,0
144960,note_on,0,0,2,,,,,,,,,0,,,71,0
144960,note_on,0,0,2,,,,,,,,,0,,,68,0
144965,note_on,8,0,1,,,,,,,,,0,,,77,0
144980,set_tempo,140,1,0,,,,,,515021,,,,,,,
145017,note_on,52,0,1,,,,,,,,,0,,,78,0
145023,note_on,6,0,1,,,,,,,,,0,,,79,50
145082,note_on,59,0,1,,,,,,,,,0,,,80,51
145083,note_on,1,0,1,,,,,,,,,0,,,79,0
145100,set_tempo,120,1,0,,,,,,512821,,,,,,,
145142,note_on,0,0,1,,,,,,,,,0,,,81,51
145142,note_on,59,0,1,,,,,,,,,0,,,80,0
145202,note_on,60,0,1,,,,,,,,,0,,,81,0
145205,note_on,3,0,1,,,,,,,,,0,,,82,52
145240,set_tempo,140,1,0,,,,,,510638,,,,,,,
145260,note_on,55,0,1,,,,,,,,,0,,,83,53
145265,note_on,5,0,1,,,,,,,,,0,,,82,0
145320,note_on,55,0,1,,,,,,,,,0,,,83,0
145325,note_on,5,0,1,,,,,,,,,0,,,84,53
145360,set_tempo,120,1,0,,,,,,508475,,,,,,,
145382,note_on,57,0,1,,,,,,,,,0,,,85,55
145385,note_on,3,0,1,,,,,,,,,0,,,84,0
145436,note_on,51,0,1,,,,,,,,,0,,,86,55
145442,note_on,6,0,1,,,,,,,,,0,,,85,0
145496,note_on,54,0,1,,,,,,,,,0,,,86,0
145500,set_tempo,140,1,0,,,,,,506329,,,,,,,
145501,note_on,5,0,1,,,,,,,,,0,,,87,56
145561,note_on,0,0,1,,,,,,,,,0,,,88,56
145561,note_on,60,0,1,,,,,,,,,0,,,87,0
145619,note_on,58,0,1,,,,,,,,,0,,,89,57
145620,set_tempo,120,1,0,,,,,,504202,,,,,,,
145621,note_on,2,0,1,,,,,,,,,0,,,88,0
145679,note_on,58,0,1,,,,,,,,,0,,,89,0
145685,note_on,6,0,1,,,,,,,,,0,,,90,58
145740,note_on,55,0,1,,,,,,,,,0,,,91,58
145745,note_on,5,0,1,,,,,,,,,0,,,90,0
145760,set_tempo,140,1,0,,,,,,502092,,,,,,,
145800,note_on,55,0,1,,,,,,,,,0,,,91,0
145801,note_on,1,0,1,,,,,,,,,0,,,92,60
145860,note_on,59,0,1,,,,,,,,,0,,,93,60
145861,note_on,1,0,1,,,,,,,,,0,,,92,0
145880,set_tempo,120,1,0,,,,,,500000,,,,,,,
145917,note_on,56,0,1,,,,,,,,,0,,,94,61
145920,note_on,3,0,1,,,,,,,,,0,,,93,0
145977,note_on,57,0,1,,,,,,,,,0,,,94,0
145979,note_on,2,0,1,,,,,,,,,0,,,95,61
146020,set_tempo,140,1,0,,,,,,497925,,,,,,,
146038,note_on,59,0,1,,,,,,,,,0,,,96,62
146039,note_on,1,0,1,,,,,,,,,0,,,95,0
146095,note_on,56,0,1,,,,,,,,,0,,,97,63
146098,note_on,3,0,1,,,,,,,,,0,,,96,0
146140,set_tempo,120,1,0,,,,,,495868,,,,,,,
146155,note_on,57,0,1,,,,,,,,,0,,,97,0
146160,note_on,0,0,2,,,,,,,,,0,,,51,47
146160,note_on,0,0,2,,,,,,,,,0,,,61,47
146160,note_on,1200,0,2,,,,,,,,,0,,,67,52
146160,set_tempo,20,1,0,,,,,,478088,,,,,,,
146163,note_on,8,0,1,,,,,,,,,0,,,97,64
146227,note_on,64,0,1,,,,,,,,,0,,,99,66
146233,note_on,6,0,1,,,,,,,,,0,,,97,0
146295,note_on,62,0,1,,,,,,,,,0,,,102,70
146297,note_on,2,0,1,,,,,,,,,0,,,99,0
146360,note_on,63,0,1,,,,,,,,,0,,,102,0
146364,note_on,4,0,1,,,,,,,,,0,,,100,69
146400,note_on,240,0,2,,,,,,,,,0,,,51,0
146400,note_on,0,0,2,,,,,,,,,0,,,61,0
146400,note_on,0,0,2,,,,,,,,,0,,,67,0
146429,note_on,65,0,1,,,,,,,,,0,,,100,0
146431,note_on,2,0,1,,,,,,,,,0,,,97,68
146490,note_on,59,0,1,,,,,,,,,0,,,94,67
146496,note_on,6,0,1,,,,,,,,,0,,,97,0
146555,note_on,59,0,1,,,,,,,,,0,,,94,0
146557,note_on,2,0,1,,,,,,,,,0,,,91,64
146621,note_on,64,0,1,,,,,,,,,0,,,86,63
146622,note_on,1,0,1,,,,,,,,,0,,,91,0
146686,note_on,64,0,1,,,,,,,,,0,,,86,0
146692,note_on,6,0,1,,,,,,,,,0,,,87,62
146754,note_on,62,0,1,,,,,,,,,0,,,90,68
146757,note_on,3,0,1,,,,,,,,,0,,,87,0
146819,note_on,62,0,1,,,,,,,,,0,,,90,0
146821,note_on,2,0,1,,,,,,,,,0,,,88,67
146886,note_on,65,0,1,,,,,,,,,0,,,88,0
146887,note_on,1,0,1,,,,,,,,,0,,,85,66
146949,note_on,62,0,1,,,,,,,,,0,,,82,64
146952,note_on,3,0,1,,,,,,,,,0,,,85,0
147014,note_on,62,0,1,,,,,,,,,0,,,82,0
147017,note_on,3,0,1,,,,,,,,,0,,,79,67
147079,note_on,62,0,1,,,,,,,,,0,,,76,62
147082,note_on,3,0,1,,,,,,,,,0,,,79,0
147144,note_on,62,0,1,,,,,,,,,0,,,76,0
147149,note_on,5,0,1,,,,,,,,,0,,,73,60
147211,note_on,62,0,1,,,,,,,,,0,,,70,57
147214,note_on,3,0,1,,,,,,,,,0,,,73,0
147272,note_on,58,0,1,,,,,,,,,0,,,67,55
147276,note_on,4,0,1,,,,,,,,,0,,,70,0
147337,note_on,61,0,1,,,,,,,,,0,,,67,0
147345,note_on,8,0,1,,,,,,,,,0,,,64,53
147360,set_tempo,1200,1,0,,,,,,478088,,,,,,,
147380,set_tempo,20,1,0,,,,,,489796,,,,,,,
147400,set_tempo,20,1,0,,,,,,502092,,,,,,,
147409,note_on,64,0,1,,,,,,,,,0,,,61,51
147410,note_on,1,0,1,,,,,,,,,0,,,64,0
147420,set_tempo,20,1,0,,,,,,517241,,,,,,,
147440,set_tempo,20,1,0,,,,,,530973,,,,,,,
147460,set_tempo,20,1,0,,,,,,547945,,,,,,,
147469,note_on,59,0,1,,,,,,,,,0,,,58,49
147474,note_on,5,0,1,,,,,,,,,0,,,61,0
147480,set_tempo,20,1,0,,,,,,563380,,,,,,,
147500,set_tempo,20,1,0,,,,,,582524,,,,,,,
147520,set_tempo,20,1,0,,,,,,600000,,,,,,,
147534,note_on,60,0,1,,,,,,,,,0,,,58,0
147540,note_on,6,0,1,,,,,,,,,0,,,55,46
147540,set_tempo,20,1,0,,,,,,621762,,,,,,,
147560,set_tempo,20,1,0,,,,,,641711,,,,,,,
147580,set_tempo,20,1,0,,,,,,666667,,,,,,,
147600,note_on,1200,0,2,,,,,,,,,0,,,44,46
147600,time_signature,20,1,0,8,8,12,8,,,,,,,,,
147600,set_tempo,0,1,0,,,,,,857143,,,,,,,
147605,note_on,65,0,1,,,,,,,,,0,,,55,0
147680,note_on,0,0,2,,,,,,,,,0,,,47,46
147680,set_tempo,80,1,0,,,,,,512821,,,,,,,
147680,note_on,80,0,2,,,,,,,,,0,,,44,0
147760,note_on,80,0,2,,,,,,,,,0,,,47,0
147760,note_on,0,0,2,,,,,,,,,0,,,56,46
147840,note_on,235,0,1,,,,,,,,,0,,,59,46
147840,note_on,80,0,2,,,,,,,,,0,,,56,0
147920,note_on,80,0,1,,,,,,,,,0,,,59,0
147920,note_on,0,0,1,,,,,,,,,0,,,63,46
148000,note_on,80,0,1,,,,,,,,,0,,,63,0
148000,note_on,0,0,1,,,,,,,,,0,,,68,46
148080,note_on,80,0,1,,,,,,,,,0,,,68,0
148080,note_on,240,0,2,,,,,,,,,0,,,71,46
148160,note_on,0,0,2,,,,,,,,,0,,,75,46
148160,note_on,80,0,2,,,,,,,,,0,,,71,0
148240,note_on,0,0,2,,,,,,,,,0,,,80,46
148240,note_on,80,0,2,,,,,,,,,0,,,75,0
148320,set_tempo,640,1,0,,,,,,506329,,,,,,,
148320,note_on,240,0,1,,,,,,,,,0,,,83,46
148320,note_on,80,0,2,,,,,,,,,0,,,80,0
148340,set_tempo,20,1,0,,,,,,508475,,,,,,,
148360,set_tempo,20,1,0,,,,,,512821,,,,,,,
148380,set_tempo,20,1,0,,,,,,515021,,,,,,,
148400,note_on,80,0,1,,,,,,,,,0,,,83,0
148400,set_tempo,20,1,0,,,,,,519481,,,,,,,
148400,note_on,0,0,1,,,,,,,,,0,,,87,46
148420,set_tempo,20,1,0,,,,,,521739,,,,,,,
148440,set_tempo,20,1,0,,,,,,526316,,,,,,,
148460,set_tempo,20,1,0,,,,,,530973,,,,,,,
148480,set_tempo,20,1,0,,,,,,582524,,,,,,,
148480,note_on,80,0,1,,,,,,,,,0,,,87,0
148480,note_on,0,0,1,,,,,,,,,0,,,95,50
148560,note_on,0,0,1,,,,,,,,,0,,,92,45
148560,note_on,80,0,1,,,,,,,,,0,,,95,0
148800,marker,320,1,0,,,,,,,,,,,,,
148800,note_on,240,0,1,,,,,,,,,0,,,92,0
148920,note_on,0,0,1,,,,,,,,,0,,,71,42
148920,set_tempo,120,1,0,,,,,,521739,,,,,,,
148920,control_change,0,0,2,,,,,,,,,0,91,127,,
148920,control_change,120,0,1,,,,,,,,,0,91,127,,
148920,note_on,0,0,1,,,,,,,,,0,,,83,42
148920,note_on,600,0,2,,,,,,,,,0,,,68,37
149010,note_on,90,0,2,,,,,,,,,0,,,68,0
149010,note_on,0,0,1,,,,,,,,,0,,,83,0
149010,note_on,90,0,1,,,,,,,,,0,,,71,0
149040,note_on,30,0,1,,,,,,,,,0,,,83,46
149040,note_on,0,0,1,,,,,,,,,0,,,71,46
149040,note_on,0,0,2,,,,,,,,,0,,,70,40
149040,note_on,30,0,2,,,,,,,,,0,,,67,40
149130,note_on,90,0,1,,,,,,,,,0,,,71,0
149130,note_on,0,0,1,,,,,,,,,0,,,83,0
149130,note_on,0,0,2,,,,,,,,,0,,,67,0
149130,note_on,90,0,2,,,,,,,,,0,,,70,0
149160,note_on,30,0,2,,,,,,,,,0,,,66,42
149160,note_on,30,0,1,,,,,,,,,0,,,83,50
149160,note_on,0,0,1,,,,,,,,,0,,,71,50
149160,note_on,0,0,2,,,,,,,,,0,,,69,42
149250,note_on,90,0,1,,,,,,,,,0,,,71,0
149250,note_on,0,0,1,,,,,,,,,0,,,83,0
149250,note_on,0,0,2,,,,,,,,,0,,,66,0
149250,note_on,90,0,2,,,,,,,,,0,,,69,0
149280,note_on,30,0,1,,,,,,,,,0,,,83,53
149280,note_on,0,0,2,,,,,,,,,0,,,68,46
149280,note_on,30,0,2,,,,,,,,,0,,,65,46
149280,note_on,0,0,1,,,,,,,,,0,,,71,53
149370,note_on,0,0,2,,,,,,,,,0,,,65,0
149370,note_on,90,0,1,,,,,,,,,0,,,71,0
149370,note_on,0,0,1,,,,,,,,,0,,,83,0
149370,note_on,90,0,2,,,,,,,,,0,,,68,0
149400,note_on,30,0,1,,,,,,,,,0,,,83,57
149400,note_on,0,0,2,,,,,,,,,0,,,67,50
149400,note_on,30,0,2,,,,,,,,,0,,,64,50
149400,set_tempo,480,1,0,,,,,,545455,,,,,,,
149400,note_on,0,0,1,,,,,,,,,0,,,71,57
149490,note_on,90,0,2,,,,,,,,,0,,,67,0
149490,note_on,0,0,1,,,,,,,,,0,,,83,0
149490,note_on,0,0,2,,,,,,,,,0,,,64,0
149490,note_on,90,0,1,,,,,,,,,0,,,71,0
149520,note_on,30,0,1,,,,,,,,,0,,,83,74
149520,note_on,30,0,2,,,,,,,,,0,,,47,53
149520,time_signature,120,1,0,6,8,12,8,,,,,,,,,
149520,set_tempo,0,1,0,,,,,,540541,,,,,,,
149610,note_on,90,0,2,,,,,,,,,0,,,47,0
149610,note_on,90,0,1,,,,,,,,,0,,,83,0
149640,note_on,30,0,2,,,,,,,,,0,,,63,38
149640,set_tempo,120,1,0,,,,,,524017,,,,,,,
149640,note_on,30,0,1,,,,,,,,,0,,,66,55
149730,note_on,90,0,2,,,,,,,,,0,,,63,0
149730,note_on,90,0,1,,,,,,,,,0,,,66,0
149760,note_on,30,0,2,,,,,,,,,0,,,54,36
149760,note_on,0,0,1,,,,,,,,,0,,,78,67
149760,note_on,30,0,1,,,,,,,,,0,,,71,56
149760,set_tempo,120,1,0,,,,,,506329,,,,,,,
149760,note_on,0,0,2,,,,,,,,,0,,,59,49
149850,note_on,0,0,2,,,,,,,,,0,,,54,0
149850,note_on,90,0,2,,,,,,,,,0,,,59,0
149850,note_on,0,0,1,,,,,,,,,0,,,71,0
149850,note_on,90,0,1,,,,,,,,,0,,,78,0
149880,set_tempo,120,1,0,,,,,,530973,,,,,,,
149880,note_on,30,0,1,,,,,,,,,0,,,66,55
149880,note_on,30,0,2,,,,,,,,,0,,,63,38
149970,note_on,90,0,1,,,,,,,,,0,,,66,0
149970,note_on,90,0,2,,,,,,,,,0,,,63,0
150000,set_tempo,120,1,0,,,,,,517241,,,,,,,
150000,note_on,30,0,1,,,,,,,,,0,,,83,72
150000,note_on,30,0,2,,,,,,,,,0,,,47,49
150090,note_on,90,0,2,,,,,,,,,0,,,47,0
150090,note_on,90,0,1,,,,,,,,,0,,,83,0
150120,note_on,30,0,1,,,,,,,,,0,,,66,55
150120,note_on,30,0,2,,,,,,,,,0,,,63,38
150210,note_on,90,0,2,,,,,,,,,0,,,63,0
150210,note_on,90,0,1,,,,,,,,,0,,,66,0
150240,note_on,30,0,1,,,,,,,,,0,,,85,79
150240,note_on,30,0,2,,,,,,,,,0,,,42,51
150330,note_on,90,0,2,,,,,,,,,0,,,42,0
150330,note_on,90,0,1,,,,,,,,,0,,,85,0
150360,note_on,30,0,1,,,,,,,,,0,,,66,55
150360,note_on,30,0,2,,,,,,,,,0,,,64,37
150450,note_on,90,0,2,,,,,,,,,0,,,64,0
150450,note_on,90,0,1,,,,,,,,,0,,,66,0
150480,note_on,0,0,1,,,,,,,,,0,,,78,72
150480,note_on,30,0,1,,,,,,,,,0,,,73,61
150480,note_on,0,0,2,,,,,,,,,0,,,58,51
150480,note_on,30,0,2,,,,,,,,,0,,,54,38
150570,note_on,90,0,1,,,,,,,,,0,,,78,0
150570,note_on,0,0,1,,,,,,,,,0,,,73,0
150570,note_on,0,0,2,,,,,,,,,0,,,54,0
150570,note_on,90,0,2,,,,,,,,,0,,,58,0
150600,note_on,30,0,2,,,,,,,,,0,,,64,40
150600,set_tempo,600,1,0,,,,,,530973,,,,,,,
150600,note_on,30,0,1,,,,,,,,,0,,,66,55
150690,note_on,90,0,1,,,,,,,,,0,,,66,0
150690,note_on,90,0,2,,,,,,,,,0,,,64,0
150700,set_tempo,100,1,0,,,,,,508475,,,,,,,
150720,note_on,30,0,1,,,,,,,,,0,,,85,78
150720,set_tempo,20,1,0,,,,,,502092,,,,,,,
150720,note_on,30,0,2,,,,,,,,,0,,,42,52
150810,note_on,90,0,2,,,,,,,,,0,,,42,0
150810,note_on,90,0,1,,,,,,,,,0,,,85,0
150840,note_on,30,0,1,,,,,,,,,0,,,66,56
150840,note_on,30,0,2,,,,,,,,,0,,,64,40
150930,note_on,90,0,1,,,,,,,,,0,,,66,0
150930,note_on,90,0,2,,,,,,,,,0,,,64,0
150960,note_on,30,0,1,,,,,,,,,0,,,87,82
150960,set_tempo,240,1,0,,,,,,533333,,,,,,,
150960,note_on,30,0,2,,,,,,,,,0,,,47,53
151080,set_tempo,120,1,0,,,,,,506329,,,,,,,
151080,note_on,0,0,2,,,,,,,,,0,,,63,44
151080,note_on,120,0,2,,,,,,,,,0,,,47,0
151080,note_on,120,0,1,,,,,,,,,0,,,87,0
151080,note_on,0,0,1,,,,,,,,,0,,,66,67
151100,set_tempo,20,1,0,,,,,,515021,,,,,,,
151140,set_tempo,40,1,0,,,,,,512821,,,,,,,
151160,set_tempo,20,1,0,,,,,,510638,,,,,,,
151170,note_on,90,0,1,,,,,,,,,0,,,66,0
151170,note_on,90,0,2,,,,,,,,,0,,,63,0
151180,set_tempo,20,1,0,,,,,,508475,,,,,,,
151200,note_on,30,0,2,,,,,,,,,0,,,54,44
151200,note_on,30,0,1,,,,,,,,,0,,,75,67
151220,set_tempo,40,1,0,,,,,,506329,,,,,,,
151240,set_tempo,20,1,0,,,,,,504202,,,,,,,
151260,set_tempo,20,1,0,,,,,,502092,,,,,,,
151290,note_on,90,0,2,,,,,,,,,0,,,54,0
151290,note_on,90,0,1,,,,,,,,,0,,,75,0
151300,set_tempo,40,1,0,,,,,,500000,,,,,,,
151320,note_on,30,0,2,,,,,,,,,0,,,47,42
151320,set_tempo,20,1,0,,,,,,497925,,,,,,,
151320,note_on,30,0,1,,,,,,,,,0,,,83,66
151340,set_tempo,20,1,0,,,,,,495868,,,,,,,
151380,set_tempo,40,1,0,,,,,,493827,,,,,,,
151400,set_tempo,20,1,0,,,,,,491803,,,,,,,
151410,note_on,90,0,2,,,,,,,,,0,,,47,0
151410,note_on,90,0,1,,,,,,,,,0,,,83,0
151420,set_tempo,20,1,0,,,,,,489796,,,,,,,
151440,set_tempo,20,1,0,,,,,,487805,,,,,,,
151440,note_on,30,0,2,,,,,,,,,0,,,42,41
151440,note_on,30,0,1,,,,,,,,,0,,,87,64
151530,note_on,90,0,2,,,,,,,,,0,,,42,0
151530,note_on,90,0,1,,,,,,,,,0,,,87,0
151560,note_on,30,0,1,,,,,,,,,0,,,95,69
151560,note_on,30,0,2,,,,,,,,,0,,,35,41
151650,note_on,90,0,2,,,,,,,,,0,,,35,0
151650,note_on,90,0,1,,,,,,,,,0,,,95,0
151680,set_tempo,240,1,0,,,,,,625000,,,,,,,
151800,note_on,150,0,2,,,,,,,,,0,,,71,37
151800,set_tempo,120,1,0,,,,,,510638,,,,,,,
151800,note_on,0,0,1,,,,,,,,,0,,,75,42
151800,note_on,150,0,1,,,,,,,,,0,,,87,42
151890,note_on,0,0,1,,,,,,,,,0,,,87,0
151890,note_on,90,0,2,,,,,,,,,0,,,71,0
151890,note_on,90,0,1,,,,,,,,,0,,,75,0
151920,note_on,0,0,1,,,,,,,,,0,,,75,46
151920,note_on,30,0,2,,,,,,,,,0,,,71,40
151920,note_on,0,0,2,,,,,,,,,0,,,74,40
151920,note_on,30,0,1,,,,,,,,,0,,,87,46
152010,note_on,0,0,2,,,,,,,,,0,,,71,0
152010,note_on,90,0,2,,,,,,,,,0,,,74,0
152010,note_on,0,0,1,,,,,,,,,0,,,87,0
152010,note_on,90,0,1,,,,,,,,,0,,,75,0
152040,note_on,0,0,1,,,,,,,,,0,,,75,50
152040,note_on,30,0,1,,,,,,,,,0,,,87,50
152040,note_on,30,0,2,,,,,,,,,0,,,70,42
152040,note_on,0,0,2,,,,,,,,,0,,,73,42
152130,note_on,0,0,1,,,,,,,,,0,,,87,0
152130,note_on,0,0,2,,,,,,,,,0,,,70,0
152130,note_on,90,0,2,,,,,,,,,0,,,73,0
152130,note_on,90,0,1,,,,,,,,,0,,,75,0
152160,note_on,0,0,2,,,,,,,,,0,,,72,46
152160,note_on,0,0,1,,,,,,,,,0,,,75,53
152160,note_on,30,0,1,,,,,,,,,0,,,87,53
152160,note_on,30,0,2,,,,,,,,,0,,,69,46
152250,note_on,90,0,2,,,,,,,,,0,,,72,0
152250,note_on,90,0,1,,,,,,,,,0,,,75,0
152250,note_on,0,0,1,,,,,,,,,0,,,87,0
152250,note_on,0,0,2,,,,,,,,,0,,,69,0
152260,set_tempo,460,1,0,,,,,,512821,,,,,,,
152280,note_on,0,0,2,,,,,,,,,0,,,71,50
152280,note_on,0,0,1,,,,,,,,,0,,,75,57
152280,note_on,30,0,2,,,,,,,,,0,,,68,50
152280,set_tempo,20,1,0,,,,,,528634,,,,,,,
152280,note_on,30,0,1,,,,,,,,,0,,,87,57
152370,note_on,0,0,2,,,,,,,,,0,,,68,0
152370,note_on,90,0,2,,,,,,,,,0,,,71,0
152370,note_on,0,0,1,,,,,,,,,0,,,87,0
152370,note_on,90,0,1,,,,,,,,,0,,,75,0
152400,note_on,30,0,1,,,,,,,,,0,,,87,78
152400,note_on,30,0,2,,,,,,,,,0,,,51,53
152490,note_on,90,0,2,,,,,,,,,0,,,51,0
152490,note_on,90,0,1,,,,,,,,,0,,,87,0
152520,note_on,30,0,1,,,,,,,,,0,,,70,55
152520,set_tempo,240,1,0,,,,,,524017,,,,,,,
152520,note_on,30,0,2,,,,,,,,,0,,,66,38
152610,note_on,90,0,2,,,,,,,,,0,,,66,0
152610,note_on,90,0,1,,,,,,,,,0,,,70,0
152640,note_on,30,0,1,,,,,,,,,0,,,75,56
152640,note_on,30,0,2,,,,,,,,,0,,,58,36
152640,note_on,0,0,1,,,,,,,,,0,,,82,67
152640,note_on,0,0,2,,,,,,,,,0,,,63,49
152640,set_tempo,120,1,0,,,,,,506329,,,,,,,
152730,note_on,0,0,2,,,,,,,,,0,,,58,0
152730,note_on,90,0,1,,,,,,,,,0,,,82,0
152730,note_on,90,0,2,,,,,,,,,0,,,63,0
152730,note_on,0,0,1,,,,,,,,,0,,,75,0
152760,note_on,30,0,2,,,,,,,,,0,,,66,38
152760,set_tempo,120,1,0,,,,,,530973,,,,,,,
152760,note_on,30,0,1,,,,,,,,,0,,,70,55
152850,note_on,90,0,2,,,,,,,,,0,,,66,0
152850,note_on,90,0,1,,,,,,,,,0,,,70,0
152880,note_on,30,0,2,,,,,,,,,0,,,51,49
152880,note_on,30,0,1,,,,,,,,,0,,,87,78
152880,set_tempo,120,1,0,,,,,,517241,,,,,,,
152970,note_on,90,0,1,,,,,,,,,0,,,87,0
152970,note_on,90,0,2,,,,,,,,,0,,,51,0
153000,note_on,30,0,1,,,,,,,,,0,,,70,55
153000,note_on,30,0,2,,,,,,,,,0,,,66,38
153090,note_on,90,0,2,,,,,,,,,0,,,66,0
153090,note_on,90,0,1,,,,,,,,,0,,,70,0
153120,note_on,30,0,1,,,,,,,,,0,,,89,85
153120,note_on,30,0,2,,,,,,,,,0,,,46,51
153210,note_on,90,0,1,,,,,,,,,0,,,89,0
153210,note_on,90,0,2,,,,,,,,,0,,,46,0
153240,note_on,30,0,1,,,,,,,,,0,,,70,55
153240,note_on,30,0,2,,,,,,,,,0,,,68,37
153330,note_on,90,0,2,,,,,,,,,0,,,68,0
153330,note_on,90,0,1,,,,,,,,,0,,,70,0
153360,note_on,0,0,2,,,,,,,,,0,,,62,51
153360,note_on,30,0,2,,,,,,,,,0,,,58,38
153360,note_on,30,0,1,,,,,,,,,0,,,77,61
153360,note_on,0,0,1,,,,,,,,,0,,,82,72
153450,note_on,0,0,1,,,,,,,,,0,,,77,0
153450,note_on,0,0,2,,,,,,,,,0,,,58,0
153450,note_on,90,0,1,,,,,,,,,0,,,82,0
153450,note_on,90,0,2,,,,,,,,,0,,,62,0
153480,set_tempo,600,1,0,,,,,,530973,,,,,,,
153480,note_on,30,0,2,,,,,,,,,0,,,68,40
153480,note_on,30,0,1,,,,,,,,,0,,,70,55
153570,note_on,90,0,1,,,,,,,,,0,,,70,0
153570,note_on,90,0,2,,,,,,,,,0,,,68,0
153580,set_tempo,100,1,0,,,,,,508475,,,,,,,
153600,note_on,30,0,2,,,,,,,,,0,,,46,52
153600,note_on,30,0,1,,,,,,,,,0,,,89,80
153600,set_tempo,20,1,0,,,,,,502092,,,,,,,
153690,note_on,90,0,2,,,,,,,,,0,,,46,0
153690,note_on,90,0,1,,,,,,,,,0,,,89,0
153720,note_on,30,0,2,,,,,,,,,0,,,68,40
153720,note_on,30,0,1,,,,,,,,,0,,,70,56
153810,note_on,90,0,1,,,,,,,,,0,,,70,0
153810,note_on,90,0,2,,,,,,,,,0,,,68,0
153840,note_on,30,0,2,,,,,,,,,0,,,51,53
153840,note_on,30,0,1,,,,,,,,,0,,,90,88
153840,set_tempo,240,1,0,,,,,,533333,,,,,,,
153960,note_on,0,0,1,,,,,,,,,0,,,70,67
153960,note_on,0,0,2,,,,,,,,,0,,,66,44
153960,note_on,120,0,1,,,,,,,,,0,,,90,0
153960,note_on,120,0,2,,,,,,,,,0,,,51,0
153960,set_tempo,120,1,0,,,,,,506329,,,,,,,
153980,set_tempo,20,1,0,,,,,,515021,,,,,,,
154020,set_tempo,40,1,0,,,,,,512821,,,,,,,
154040,set_tempo,20,1,0,,,,,,510638,,,,,,,
154050,note_on,90,0,2,,,,,,,,,0,,,66,0
154050,note_on,90,0,1,,,,,,,,,0,,,70,0
154060,set_tempo,20,1,0,,,,,,508475,,,,,,,
154080,note_on,30,0,1,,,,,,,,,0,,,78,67
154080,note_on,30,0,2,,,,,,,,,0,,,58,44
154100,set_tempo,40,1,0,,,,,,506329,,,,,,,
154120,set_tempo,20,1,0,,,,,,504202,,,,,,,
154140,set_tempo,20,1,0,,,,,,502092,,,,,,,
154170,note_on,90,0,2,,,,,,,,,0,,,58,0
154170,note_on,90,0,1,,,,,,,,,0,,,78,0
154180,set_tempo,40,1,0,,,,,,500000,,,,,,,
154200,note_on,30,0,1,,,,,,,,,0,,,87,66
154200,note_on,30,0,2,,,,,,,,,0,,,51,42
154200,set_tempo,20,1,0,,,,,,497925,,,,,,,
154220,set_tempo,20,1,0,,,,,,495868,,,,,,,
154260,set_tempo,40,1,0,,,,,,493827,,,,,,,
154280,set_tempo,20,1,0,,,,,,491803,,,,,,,
154290,note_on,90,0,2,,,,,,,,,0,,,51,0
154290,note_on,90,0,1,,,,,,,,,0,,,87,0
154300,set_tempo,20,1,0,,,,,,489796,,,,,,,
154320,note_on,30,0,1,,,,,,,,,0,,,90,66
154320,set_tempo,20,1,0,,,,,,487805,,,,,,,
154320,note_on,30,0,2,,,,,,,,,0,,,46,42
154410,note_on,90,0,1,,,,,,,,,0,,,90,0
154410,note_on,90,0,2,,,,,,,,,0,,,46,0
154440,note_on,30,0,1,,,,,,,,,0,,,99,69
154440,note_on,30,0,2,,,,,,,,,0,,,39,41
154530,note_on,90,0,2,,,,,,,,,0,,,39,0
154530,note_on,90,0,1,,,,,,,,,0,,,99,0
154560,set_tempo,240,1,0,,,,,,625000,,,,,,,
154680,note_on,0,0,1,,,,,,,,,0,,,78,42
154680,set_tempo,120,1,0,,,,,,510638,,,,,,,
154680,note_on,150,0,1,,,,,,,,,0,,,90,42
154680,note_on,150,0,2,,,,,,,,,0,,,75,37
154770,note_on,0,0,1,,,,,,,,,0,,,90,0
154770,note_on,90,0,2,,,,,,,,,0,,,75,0
154770,note_on,90,0,1,,,,,,,,,0,,,78,0
154800,note_on,30,0,2,,,,,,,,,0,,,74,40
154800,note_on,30,0,1,,,,,,,,,0,,,90,46
154800,note_on,0,0,2,,,,,,,,,0,,,77,40
154800,note_on,0,0,1,,,,,,,,,0,,,78,46
154890,note_on,90,0,1,,,,,,,,,0,,,78,0
154890,note_on,90,0,2,,,,,,,,,0,,,77,0
154890,note_on,0,0,2,,,,,,,,,0,,,74,0
154890,note_on,0,0,1,,,,,,,,,0,,,90,0
154920,note_on,30,0,1,,,,,,,,,0,,,90,50
154920,note_on,0,0,2,,,,,,,,,0,,,76,42
154920,note_on,0,0,1,,,,,,,,,0,,,78,50
154920,note_on,30,0,2,,,,,,,,,0,,,73,42
155010,note_on,90,0,1,,,,,,,,,0,,,78,0
155010,note_on,90,0,2,,,,,,,,,0,,,76,0
155010,note_on,0,0,1,,,,,,,,,0,,,90,0
155010,note_on,0,0,2,,,,,,,,,0,,,73,0
155040,note_on,30,0,1,,,,,,,,,0,,,90,53
155040,note_on,30,0,2,,,,,,,,,0,,,72,46
155040,note_on,0,0,1,,,,,,,,,0,,,78,53
155040,note_on,0,0,2,,,,,,,,,0,,,75,46
155130,note_on,90,0,1,,,,,,,,,0,,,78,0
155130,note_on,0,0,1,,,,,,,,,0,,,90,0
155130,note_on,0,0,2,,,,,,,,,0,,,72,0
155130,note_on,90,0,2,,,,,,,,,0,,,75,0
155140,set_tempo,460,1,0,,,,,,512821,,,,,,,
155160,note_on,0,0,2,,,,,,,,,0,,,74,50
155160,note_on,30,0,2,,,,,,,,,0,,,71,50
155160,note_on,0,0,1,,,,,,,,,0,,,78,57
155160,set_tempo,20,1,0,,,,,,528634,,,,,,,
155160,note_on,30,0,1,,,,,,,,,0,,,90,57
155250,note_on,90,0,1,,,,,,,,,0,,,78,0
155250,note_on,0,0,2,,,,,,,,,0,,,71,0
155250,note_on,90,0,2,,,,,,,,,0,,,74,0
155250,note_on,0,0,1,,,,,,,,,0,,,90,0
155280,note_on,30,0,1,,,,,,,,,0,,,90,78
155280,note_on,30,0,2,,,,,,,,,0,,,54,53
155370,note_on,90,0,1,,,,,,,,,0,,,90,0
155370,note_on,90,0,2,,,,,,,,,0,,,54,0
155400,note_on,30,0,2,,,,,,,,,0,,,70,38
155400,set_tempo,240,1,0,,,,,,524017,,,,,,,
155400,note_on,30,0,1,,,,,,,,,0,,,73,55
155490,note_on,90,0,2,,,,,,,,,0,,,70,0
155490,note_on,90,0,1,,,,,,,,,0,,,73,0
155520,note_on,0,0,1,,,,,,,,,0,,,85,67
155520,set_tempo,120,1,0,,,,,,506329,,,,,,,
155520,note_on,30,0,2,,,,,,,,,0,,,61,36
155520,note_on,0,0,2,,,,,,,,,0,,,66,49
155520,note_on,30,0,1,,,,,,,,,0,,,78,56
155610,note_on,0,0,2,,,,,,,,,0,,,61,0
155610,note_on,90,0,2,,,,,,,,,0,,,66,0
155610,note_on,90,0,1,,,,,,,,,0,,,85,0
155610,note_on,0,0,1,,,,,,,,,0,,,78,0
155640,set_tempo,120,1,0,,,,,,530973,,,,,,,
155640,note_on,30,0,2,,,,,,,,,0,,,70,38
155640,note_on,30,0,1,,,,,,,,,0,,,73,55
155730,note_on,90,0,1,,,,,,,,,0,,,73,0
155730,note_on,90,0,2,,,,,,,,,0,,,70,0
155760,note_on,30,0,2,,,,,,,,,0,,,54,49
155760,note_on,30,0,1,,,,,,,,,0,,,90,78
155760,set_tempo,120,1,0,,,,,,517241,,,,,,,
155850,note_on,90,0,2,,,,,,,,,0,,,54,0
155850,note_on,90,0,1,,,,,,,,,0,,,90,0
155880,note_on,30,0,1,,,,,,,,,0,,,73,55
155880,note_on,30,0,2,,,,,,,,,0,,,70,38
155970,note_on,90,0,1,,,,,,,,,0,,,73,0
155970,note_on,90,0,2,,,,,,,,,0,,,70,0
156000,note_on,30,0,2,,,,,,,,,0,,,49,51
156000,note_on,30,0,1,,,,,,,,,0,,,92,85
156090,note_on,90,0,2,,,,,,,,,0,,,49,0
156090,note_on,90,0,1,,,,,,,,,0,,,92,0
156120,note_on,30,0,2,,,,,,,,,0,,,71,37
156120,note_on,30,0,1,,,,,,,,,0,,,73,55
156210,note_on,90,0,2,,,,,,,,,0,,,71,0
156210,note_on,90,0,1,,,,,,,,,0,,,73,0
156240,note_on,30,0,1,,,,,,,,,0,,,80,61
156240,note_on,30,0,2,,,,,,,,,0,,,61,38
156240,note_on,0,0,2,,,,,,,,,0,,,65,51
156240,note_on,0,0,1,,,,,,,,,0,,,85,72
156330,note_on,0,0,2,,,,,,,,,0,,,61,0
156330,note_on,90,0,2,,,,,,,,,0,,,65,0
156330,note_on,0,0,1,,,,,,,,,0,,,80,0
156330,note_on,90,0,1,,,,,,,,,0,,,85,0
156360,set_tempo,600,1,0,,,,,,530973,,,,,,,
156360,note_on,30,0,2,,,,,,,,,0,,,71,40
156360,note_on,30,0,1,,,,,,,,,0,,,73,55
156450,note_on,90,0,1,,,,,,,,,0,,,73,0
156450,note_on,90,0,2,,,,,,,,,0,,,71,0
156460,set_tempo,100,1,0,,,,,,508475,,,,,,,
156480,note_on,30,0,1,,,,,,,,,0,,,92,80
156480,set_tempo,20,1,0,,,,,,502092,,,,,,,
156480,note_on,30,0,2,,,,,,,,,0,,,49,52
156570,note_on,90,0,2,,,,,,,,,0,,,49,0
156570,note_on,90,0,1,,,,,,,,,0,,,92,0
156600,note_on,30,0,1,,,,,,,,,0,,,73,56
156600,note_on,30,0,2,,,,,,,,,0,,,71,40
156680,set_tempo,200,1,0,,,,,,502092,,,,,,,
156690,note_on,90,0,2,,,,,,,,,0,,,71,0
156690,note_on,90,0,1,,,,,,,,,0,,,73,0
156700,set_tempo,20,1,0,,,,,,508475,,,,,,,
156720,note_on,0,0,1,,,,,,,,,0,,,85,49
156720,note_on,30,0,1,,,,,,,,,0,,,94,49
156720,note_on,0,0,1,,,,,,,,,0,,,90,49
156720,note_on,30,0,2,,,,,,,,,0,,,54,52
156760,set_tempo,60,1,0,,,,,,510638,,,,,,,
156820,set_tempo,60,1,0,,,,,,512821,,,,,,,
156840,note_on,0,0,1,,,,,,,,,0,,,95,53
156840,note_on,0,0,1,,,,,,,,,0,,,94,0
156840,note_on,0,0,1,,,,,,,,,0,,,92,53
156840,note_on,0,0,1,,,,,,,,,0,,,90,0
156840,note_on,0,0,1,,,,,,,,,0,,,85,53
156840,note_on,120,0,1,,,,,,,,,0,,,85,0
156880,set_tempo,60,1,0,,,,,,515021,,,,,,,
156920,set_tempo,40,1,0,,,,,,517241,,,,,,,
156940,set_tempo,20,1,0,,,,,,520743,,,,,,,
156960,note_on,240,0,2,,,,,,,,,0,,,54,0
156960,note_on,0,0,2,,,,,,,,,0,,,61,51
156960,note_on,0,0,1,,,,,,,,,0,,,85,58
156960,note_on,0,0,1,,,,,,,,,0,,,92,0
156960,note_on,0,0,1,,,,,,,,,0,,,97,58
156960,note_on,0,0,1,,,,,,,,,0,,,94,58
156960,note_on,120,0,1,,,,,,,,,0,,,85,0
156960,note_on,0,0,1,,,,,,,,,0,,,95,0
157050,note_on,90,0,2,,,,,,,,,0,,,61,0
157080,note_on,120,0,1,,,,,,,,,0,,,85,0
157080,note_on,0,0,1,,,,,,,,,0,,,94,58
157080,note_on,0,0,1,,,,,,,,,0,,,94,0
157080,note_on,0,0,1,,,,,,,,,0,,,85,58
157080,note_on,30,0,2,,,,,,,,,0,,,70,50
157080,note_on,0,0,1,,,,,,,,,0,,,97,0
157080,note_on,0,0,1,,,,,,,,,0,,,97,58
157170,note_on,90,0,2,,,,,,,,,0,,,70,0
157200,note_on,0,0,1,,,,,,,,,0,,,94,0
157200,note_on,0,0,1,,,,,,,,,0,,,95,56
157200,note_on,0,0,1,,,,,,,,,0,,,97,0
157200,note_on,0,0,1,,,,,,,,,0,,,92,56
157200,set_tempo,260,1,0,,,,,,503398,,,,,,,
157200,note_on,30,0,2,,,,,,,,,0,,,78,48
157200,note_on,0,0,1,,,,,,,,,0,,,85,56
157200,note_on,120,0,1,,,,,,,,,0,,,85,0
157290,note_on,90,0,2,,,,,,,,,0,,,78,0
157320,note_on,0,0,1,,,,,,,,,0,,,85,53
157320,note_on,120,0,1,,,,,,,,,0,,,85,0
157320,note_on,0,0,1,,,,,,,,,0,,,90,53
157320,note_on,0,0,1,,,,,,,,,0,,,92,0
157320,note_on,0,0,1,,,,,,,,,0,,,94,53
157320,note_on,0,0,1,,,,,,,,,0,,,95,0
157320,note_on,30,0,2,,,,,,,,,0,,,82,46
157410,note_on,90,0,2,,,,,,,,,0,,,82,0
157440,note_on,0,0,1,,,,,,,,,0,,,94,0
157440,note_on,30,0,2,,,,,,,,,0,,,47,45
157440,note_on,0,0,1,,,,,,,,,0,,,83,52
157440,note_on,0,0,1,,,,,,,,,0,,,87,52
157440,note_on,0,0,1,,,,,,,,,0,,,90,0
157440,note_on,120,0,1,,,,,,,,,0,,,85,0
157440,note_on,0,0,1,,,,,,,,,0,,,92,52
157440,set_tempo,240,1,0,,,,,,506329,,,,,,,
157520,set_tempo,80,1,0,,,,,,508475,,,,,,,
157560,note_on,0,0,1,,,,,,,,,0,,,85,56
157560,note_on,0,0,1,,,,,,,,,0,,,92,0
157560,note_on,0,0,1,,,,,,,,,0,,,94,56
157560,note_on,120,0,1,,,,,,,,,0,,,83,0
157560,note_on,0,0,1,,,,,,,,,0,,,87,0
157560,note_on,0,0,1,,,,,,,,,0,,,87,56
157600,set_tempo,80,1,0,,,,,,510638,,,,,,,
157680,note_on,0,0,1,,,,,,,,,0,,,94,0
157680,note_on,240,0,2,,,,,,,,,0,,,47,0
157680,set_tempo,80,1,0,,,,,,512821,,,,,,,
157680,note_on,0,0,2,,,,,,,,,0,,,59,48
157680,note_on,0,0,1,,,,,,,,,0,,,87,0
157680,note_on,0,0,1,,,,,,,,,0,,,87,61
157680,note_on,120,0,1,,,,,,,,,0,,,85,0
157680,note_on,0,0,1,,,,,,,,,0,,,95,61
157770,note_on,90,0,2,,,,,,,,,0,,,59,0
157800,note_on,0,0,1,,,,,,,,,0,,,95,61
157800,note_on,0,0,1,,,,,,,,,0,,,87,61
157800,note_on,120,0,1,,,,,,,,,0,,,95,0
157800,note_on,0,0,1,,,,,,,,,0,,,87,0
157800,note_on,30,0,2,,,,,,,,,0,,,68,46
157890,note_on,90,0,2,,,,,,,,,0,,,68,0
157920,note_on,0,0,1,,,,,,,,,0,,,85,53
157920,note_on,0,0,1,,,,,,,,,0,,,87,53
157920,note_on,0,0,1,,,,,,,,,0,,,94,53
157920,note_on,0,0,1,,,,,,,,,0,,,95,0
157920,note_on,30,0,2,,,,,,,,,0,,,75,46
157920,set_tempo,240,1,0,,,,,,497925,,,,,,,
157920,note_on,120,0,1,,,,,,,,,0,,,87,0
158010,note_on,90,0,2,,,,,,,,,0,,,75,0
158040,note_on,0,0,1,,,,,,,,,0,,,83,51
158040,note_on,30,0,2,,,,,,,,,0,,,80,45
158040,note_on,120,0,1,,,,,,,,,0,,,85,0
158040,note_on,0,0,1,,,,,,,,,0,,,87,0
158040,note_on,0,0,1,,,,,,,,,0,,,87,51
158040,note_on,0,0,1,,,,,,,,,0,,,92,51
158040,note_on,0,0,1,,,,,,,,,0,,,94,0
158130,note_on,90,0,2,,,,,,,,,0,,,80,0
158160,note_on,120,0,1,,,,,,,,,0,,,83,0
158160,note_on,0,0,1,,,,,,,,,0,,,82,50
158160,note_on,0,0,1,,,,,,,,,0,,,85,50
158160,note_on,0,0,1,,,,,,,,,0,,,92,0
158160,set_tempo,240,1,0,,,,,,500000,,,,,,,
158160,note_on,0,0,1,,,,,,,,,0,,,87,0
158160,note_on,30,0,2,,,,,,,,,0,,,49,51
158160,note_on,0,0,1,,,,,,,,,0,,,90,50
158220,set_tempo,60,1,0,,,,,,502092,,,,,,,
158260,set_tempo,40,1,0,,,,,,504202,,,,,,,
158280,note_on,0,0,1,,,,,,,,,0,,,85,0
158280,note_on,120,0,1,,,,,,,,,0,,,82,0
158280,note_on,0,0,1,,,,,,,,,0,,,90,0
158280,note_on,0,0,1,,,,,,,,,0,,,92,53
158280,note_on,0,0,1,,,,,,,,,0,,,83,53
158280,note_on,0,0,1,,,,,,,,,0,,,85,53
158320,set_tempo,60,1,0,,,,,,506329,,,,,,,
158360,set_tempo,40,1,0,,,,,,508475,,,,,,,
158400,note_on,240,0,2,,,,,,,,,0,,,49,0
158400,note_on,0,0,2,,,,,,,,,0,,,58,48
158400,set_tempo,40,1,0,,,,,,510638,,,,,,,
158400,note_on,120,0,1,,,,,,,,,0,,,92,0
158400,note_on,0,0,1,,,,,,,,,0,,,85,58
158400,note_on,0,0,1,,,,,,,,,0,,,94,58
158400,note_on,0,0,1,,,,,,,,,0,,,85,0
158400,note_on,0,0,1,,,,,,,,,0,,,83,0
158490,note_on,90,0,2,,,,,,,,,0,,,58,0
158520,note_on,30,0,2,,,,,,,,,0,,,66,46
158520,note_on,0,0,1,,,,,,,,,0,,,94,58
158520,note_on,0,0,1,,,,,,,,,0,,,94,0
158520,note_on,0,0,1,,,,,,,,,0,,,85,58
158520,note_on,120,0,1,,,,,,,,,0,,,85,0
158610,note_on,90,0,2,,,,,,,,,0,,,66,0
158640,note_on,0,0,1,,,,,,,,,0,,,85,0
158640,note_on,0,0,1,,,,,,,,,0,,,92,55
158640,set_tempo,240,1,0,,,,,,497925,,,,,,,
158640,note_on,30,0,2,,,,,,,,,0,,,73,45
158640,note_on,0,0,1,,,,,,,,,0,,,83,55
158640,note_on,0,0,1,,,,,,,,,0,,,85,55
158640,note_on,120,0,1,,,,,,,,,0,,,94,0
158730,note_on,90,0,2,,,,,,,,,0,,,73,0
158760,note_on,30,0,2,,,,,,,,,0,,,78,42
158760,note_on,120,0,1,,,,,,,,,0,,,92,0
158760,note_on,0,0,1,,,,,,,,,0,,,90,52
158760,note_on,0,0,1,,,,,,,,,0,,,85,52
158760,note_on,0,0,1,,,,,,,,,0,,,85,0
158760,note_on,0,0,1,,,,,,,,,0,,,83,0
158760,note_on,0,0,1,,,,,,,,,0,,,82,52
158850,note_on,90,0,2,,,,,,,,,0,,,78,0
158880,note_on,0,0,1,,,,,,,,,0,,,90,0
158880,note_on,120,0,1,,,,,,,,,0,,,82,0
158880,set_tempo,240,1,0,,,,,,493827,,,,,,,
158880,note_on,0,0,1,,,,,,,,,0,,,85,0
158880,note_on,0,0,1,,,,,,,,,0,,,80,51
158880,note_on,0,0,1,,,,,,,,,0,,,89,51
158880,note_on,0,0,1,,,,,,,,,0,,,85,51
158880,note_on,30,0,2,,,,,,,,,0,,,61,53
158920,set_tempo,40,1,0,,,,,,495868,,,,,,,
158960,set_tempo,40,1,0,,,,,,497925,,,,,,,
159000,set_tempo,40,1,0,,,,,,500000,,,,,,,
159000,note_on,0,0,1,,,,,,,,,0,,,85,52
159000,note_on,0,0,1,,,,,,,,,0,,,90,52
159000,note_on,120,0,1,,,,,,,,,0,,,89,0
159000,note_on,0,0,1,,,,,,,,,0,,,80,0
159000,note_on,0,0,1,,,,,,,,,0,,,82,52
159000,note_on,0,0,1,,,,,,,,,0,,,85,0
159020,set_tempo,20,1,0,,,,,,502092,,,,,,,
159060,set_tempo,40,1,0,,,,,,504202,,,,,,,
159100,set_tempo,40,1,0,,,,,,506329,,,,,,,
159120,note_on,0,0,1,,,,,,,,,0,,,92,56
159120,note_on,0,0,1,,,,,,,,,0,,,90,0
159120,note_on,0,0,1,,,,,,,,,0,,,85,56
159120,note_on,0,0,1,,,,,,,,,0,,,85,0
159120,note_on,0,0,1,,,,,,,,,0,,,83,56
159120,set_tempo,20,1,0,,,,,,508475,,,,,,,
159120,note_on,0,0,2,,,,,,,,,0,,,77,48
159120,note_on,120,0,1,,,,,,,,,0,,,82,0
159120,note_on,240,0,2,,,,,,,,,0,,,61,0
159210,note_on,90,0,2,,,,,,,,,0,,,77,0
159240,note_on,0,0,1,,,,,,,,,0,,,83,56
159240,note_on,0,0,1,,,,,,,,,0,,,92,56
159240,note_on,0,0,1,,,,,,,,,0,,,85,56
159240,note_on,30,0,2,,,,,,,,,0,,,68,46
159240,note_on,120,0,1,,,,,,,,,0,,,92,0
159240,note_on,0,0,1,,,,,,,,,0,,,85,0
159240,note_on,0,0,1,,,,,,,,,0,,,83,0
159330,note_on,90,0,2,,,,,,,,,0,,,68,0
159360,note_on,0,0,1,,,,,,,,,0,,,85,53
159360,note_on,0,0,1,,,,,,,,,0,,,87,53
159360,set_tempo,240,1,0,,,,,,505561,,,,,,,
159360,note_on,120,0,1,,,,,,,,,0,,,92,0
159360,note_on,0,0,1,,,,,,,,,0,,,78,53
159360,note_on,0,0,1,,,,,,,,,0,,,83,0
159360,note_on,30,0,2,,,,,,,,,0,,,61,45
159360,note_on,0,0,1,,,,,,,,,0,,,85,0
159450,note_on,90,0,2,,,,,,,,,0,,,61,0
159480,note_on,0,0,1,,,,,,,,,0,,,78,0
159480,note_on,0,0,1,,,,,,,,,0,,,85,51
159480,note_on,120,0,1,,,,,,,,,0,,,85,0
159480,note_on,0,0,1,,,,,,,,,0,,,87,0
159480,note_on,0,0,1,,,,,,,,,0,,,89,51
159480,note_on,30,0,2,,,,,,,,,0,,,71,44
159480,note_on,0,0,1,,,,,,,,,0,,,80,51
159570,note_on,90,0,2,,,,,,,,,0,,,71,0
159600,note_on,0,0,1,,,,,,,,,0,,,85,56
159600,note_on,0,0,1,,,,,,,,,0,,,89,0
159600,note_on,0,0,1,,,,,,,,,0,,,90,56
159600,note_on,0,0,2,,,,,,,,,0,,,70,52
159600,note_on,120,0,1,,,,,,,,,0,,,80,0
159600,note_on,30,0,2,,,,,,,,,0,,,66,52
159600,note_on,0,0,1,,,,,,,,,0,,,85,0
159600,note_on,0,0,1,,,,,,,,,0,,,78,56
159601,set_tempo,241,1,0,,,,,,497347,,,,,,,
159681,set_tempo,80,1,0,,,,,,500000,,,,,,,
159840,note_on,0,0,1,,,,,,,,,0,,,85,0
159840,note_on,240,0,1,,,,,,,,,0,,,78,0
159840,note_on,0,0,2,,,,,,,,,0,,,42,68
159840,note_on,0,0,2,,,,,,,,,0,,,54,68
159840,note_on,0,0,1,,,,,,,,,0,,,90,0
159840,note_on,240,0,2,,,,,,,,,0,,,70,0
159840,note_on,0,0,2,,,,,,,,,0,,,66,0
159960,note_on,120,0,2,,,,,,,,,0,,,54,0
159960,note_on,0,0,2,,,,,,,,,0,,,42,72
159960,note_on,0,0,2,,,,,,,,,0,,,54,72
159960,note_on,0,0,2,,,,,,,,,0,,,42,0
160080,note_on,120,0,2,,,,,,,,,0,,,54,0
160080,note_on,0,0,2,,,,,,,,,0,,,42,0
160080,note_on,0,0,2,,,,,,,,,0,,,43,74
160080,note_on,0,0,2,,,,,,,,,0,,,55,74
160200,note_on,120,0,2,,,,,,,,,0,,,55,0
160200,note_on,0,0,2,,,,,,,,,0,,,55,78
160200,note_on,0,0,2,,,,,,,,,0,,,43,78
160200,note_on,0,0,2,,,,,,,,,0,,,43,0
160320,control_change,0,0,2,,,,,,,,,0,64,127,,
160320,note_on,120,0,2,,,,,,,,,0,,,55,0
160320,note_on,0,0,2,,,,,,,,,0,,,56,79
160320,note_on,0,0,2,,,,,,,,,0,,,44,79
160320,note_on,0,0,2,,,,,,,,,0,,,43,0
160440,note_on,0,0,2,,,,,,,,,0,,,44,79
160440,note_on,0,0,2,,,,,,,,,0,,,56,79
160440,note_on,120,0,2,,,,,,,,,0,,,56,0
160440,note_on,0,0,2,,,,,,,,,0,,,44,0
160560,note_on,0,0,1,,,,,,,,,0,,,68,72
160560,note_on,720,0,1,,,,,,,,,0,,,56,72
160560,set_tempo,879,1,0,,,,,,463320,,,,,,,
160560,note_on,0,0,2,,,,,,,,,0,,,44,0
160560,note_on,120,0,2,,,,,,,,,0,,,56,0
160680,note_on,0,0,1,,,,,,,,,0,,,68,72
160680,note_on,0,0,1,,,,,,,,,0,,,56,72
160680,note_on,0,0,1,,,,,,,,,0,,,56,0
160680,note_on,120,0,1,,,,,,,,,0,,,68,0
160800,note_on,0,0,2,,,,,,,,,0,,,80,72
160800,note_on,0,0,1,,,,,,,,,0,,,56,0
160800,note_on,240,0,2,,,,,,,,,0,,,68,72
160800,note_on,120,0,1,,,,,,,,,0,,,68,0
160920,note_on,0,0,2,,,,,,,,,0,,,80,72
160920,note_on,120,0,2,,,,,,,,,0,,,80,0
160920,note_on,0,0,2,,,,,,,,,0,,,68,0
160920,note_on,0,0,2,,,,,,,,,0,,,68,72
161040,note_on,0,0,2,,,,,,,,,0,,,68,0
161040,note_on,120,0,2,,,,,,,,,0,,,80,0
161040,note_on,240,0,1,,,,,,,,,0,,,80,79
161040,set_tempo,480,1,0,,,,,,558140,,,,,,,
161040,note_on,0,0,1,,,,,,,,,0,,,92,79
161160,control_change,120,0,2,,,,,,,,,0,64,0,,
161280,note_on,240,0,1,,,,,,,,,0,,,92,0
161280,note_on,0,0,1,,,,,,,,,0,,,102,51
161280,note_on,0,0,2,,,,,,,,,0,,,80,60
161280,note_on,0,0,1,,,,,,,,,0,,,90,51
161280,set_tempo,240,1,0,,,,,,493827,,,,,,,
161280,note_on,0,0,1,,,,,,,,,0,,,80,0
161280,note_on,120,0,2,,,,,,,,,0,,,75,60
161300,set_tempo,20,1,0,,,,,,475022,,,,,,,
161400,note_on,120,0,2,,,,,,,,,0,,,80,0
161400,note_on,0,0,1,,,,,,,,,0,,,90,51
161400,note_on,0,0,1,,,,,,,,,0,,,102,51
161400,note_on,0,0,2,,,,,,,,,0,,,80,48
161400,note_on,0,0,1,,,,,,,,,0,,,90,0
161400,note_on,120,0,1,,,,,,,,,0,,,102,0
161520,note_on,120,0,1,,,,,,,,,0,,,90,0
161520,note_on,120,0,2,,,,,,,,,0,,,80,0
161520,note_on,0,0,2,,,,,,,,,0,,,80,48
161520,note_on,0,0,2,,,,,,,,,0,,,73,48
161520,note_on,0,0,1,,,,,,,,,0,,,88,51
161520,note_on,0,0,1,,,,,,,,,0,,,100,51
161520,note_on,0,0,1,,,,,,,,,0,,,102,0
161520,note_on,0,0,2,,,,,,,,,0,,,75,0
161640,note_on,0,0,1,,,,,,,,,0,,,88,0
161640,note_on,0,0,1,,,,,,,,,0,,,88,51
161640,note_on,0,0,1,,,,,,,,,0,,,100,51
161640,note_on,120,0,1,,,,,,,,,0,,,100,0
161640,note_on,120,0,2,,,,,,,,,0,,,80,0
161640,note_on,0,0,2,,,,,,,,,0,,,80,48
161760,note_on,0,0,2,,,,,,,,,0,,,72,48
161760,note_on,120,0,1,,,,,,,,,0,,,88,0
161760,set_tempo,460,1,0,,,,,,480962,,,,,,,
161760,note_on,120,0,2,,,,,,,,,0,,,80,0
161760,note_on,0,0,2,,,,,,,,,0,,,80,48
161760,note_on,0,0,1,,,,,,,,,0,,,100,0
161760,note_on,0,0,1,,,,,,,,,0,,,99,51
161760,note_on,0,0,1,,,,,,,,,0,,,87,51
161760,note_on,0,0,2,,,,,,,,,0,,,73,0
161880,note_on,0,0,2,,,,,,,,,0,,,80,48
161880,note_on,0,0,1,,,,,,,,,0,,,99,0
161880,note_on,0,0,1,,,,,,,,,0,,,99,51
161880,note_on,120,0,2,,,,,,,,,0,,,80,0
161880,note_on,120,0,1,,,,,,,,,0,,,87,0
161880,note_on,0,0,1,,,,,,,,,0,,,87,51
162000,note_on,0,0,2,,,,,,,,,0,,,70,48
162000,note_on,0,0,2,,,,,,,,,0,,,72,0
162000,set_tempo,240,1,0,,,,,,466926,,,,,,,
162000,note_on,120,0,1,,,,,,,,,0,,,99,0
162000,note_on,0,0,2,,,,,,,,,0,,,80,48
162000,note_on,120,0,2,,,,,,,,,0,,,80,0
162000,note_on,0,0,1,,,,,,,,,0,,,85,50
162000,note_on,0,0,1,,,,,,,,,0,,,87,0
162000,note_on,0,0,1,,,,,,,,,0,,,97,50
162120,note_on,120,0,2,,,,,,,,,0,,,80,0
162120,note_on,0,0,1,,,,,,,,,0,,,85,0
162120,note_on,0,0,2,,,,,,,,,0,,,80,48
162120,note_on,0,0,1,,,,,,,,,0,,,85,50
162120,note_on,0,0,1,,,,,,,,,0,,,97,50
162120,note_on,120,0,1,,,,,,,,,0,,,97,0
162240,note_on,120,0,1,,,,,,,,,0,,,85,0
162240,note_on,120,0,2,,,,,,,,,0,,,80,0
162240,note_on,0,0,2,,,,,,,,,0,,,72,48
162240,set_tempo,240,1,0,,,,,,458015,,,,,,,
162240,note_on,0,0,2,,,,,,,,,0,,,80,48
162240,note_on,0,0,1,,,,,,,,,0,,,99,50
162240,note_on,0,0,2,,,,,,,,,0,,,70,0
162240,note_on,0,0,1,,,,,,,,,0,,,87,50
162240,note_on,0,0,1,,,,,,,,,0,,,97,0
162360,note_on,0,0,1,,,,,,,,,0,,,87,50
162360,note_on,0,0,2,,,,,,,,,0,,,80,48
162360,note_on,0,0,1,,,,,,,,,0,,,99,0
162360,note_on,120,0,1,,,,,,,,,0,,,87,0
162360,note_on,0,0,1,,,,,,,,,0,,,99,50
162360,note_on,120,0,2,,,,,,,,,0,,,80,0
162480,note_on,0,0,1,,,,,,,,,0,,,88,53
162480,note_on,0,0,1,,,,,,,,,0,,,99,0
162480,note_on,0,0,1,,,,,,,,,0,,,100,53
162480,note_on,0,0,2,,,,,,,,,0,,,73,52
162480,note_on,120,0,1,,,,,,,,,0,,,87,0
162480,note_on,120,0,2,,,,,,,,,0,,,80,0
162480,set_tempo,240,1,0,,,,,,504075,,,,,,,
162480,note_on,0,0,2,,,,,,,,,0,,,72,0
162480,note_on,0,0,2,,,,,,,,,0,,,80,52
162481,set_tempo,1,1,0,,,,,,524017,,,,,,,
162720,note_on,240,0,1,,,,,,,,,0,,,88,0
162720,note_on,0,0,2,,,,,,,,,0,,,44,68
162720,note_on,240,0,2,,,,,,,,,0,,,80,0
162720,set_tempo,239,1,0,,,,,,500000,,,,,,,
162720,note_on,0,0,1,,,,,,,,,0,,,100,0
162720,note_on,0,0,2,,,,,,,,,0,,,73,0
162720,note_on,0,0,2,,,,,,,,,0,,,56,68
162840,note_on,0,0,2,,,,,,,,,0,,,56,72
162840,note_on,0,0,2,,,,,,,,,0,,,44,0
162840,note_on,0,0,2,,,,,,,,,0,,,44,72
162840,note_on,120,0,2,,,,,,,,,0,,,56,0
162960,note_on,120,0,2,,,,,,,,,0,,,56,0
162960,note_on,0,0,2,,,,,,,,,0,,,43,74
162960,note_on,0,0,2,,,,,,,,,0,,,44,0
162960,note_on,0,0,2,,,,,,,,,0,,,55,74
163080,note_on,120,0,2,,,,,,,,,0,,,55,0
163080,note_on,0,0,2,,,,,,,,,0,,,43,0
163080,note_on,0,0,2,,,,,,,,,0,,,43,78
163080,note_on,0,0,2,,,,,,,,,0,,,55,78
163200,note_on,0,0,2,,,,,,,,,0,,,42,79
163200,note_on,120,0,2,,,,,,,,,0,,,55,0
163200,control_change,0,0,2,,,,,,,,,0,64,127,,
163200,note_on,0,0,2,,,,,,,,,0,,,54,79
163200,note_on,0,0,2,,,,,,,,,0,,,43,0
163320,note_on,0,0,2,,,,,,,,,0,,,42,79
163320,note_on,0,0,2,,,,,,,,,0,,,42,0
163320,note_on,120,0,2,,,,,,,,,0,,,54,0
163320,note_on,0,0,2,,,,,,,,,0,,,54,79
163440,note_on,0,0,2,,,,,,,,,0,,,42,0
163440,note_on,120,0,2,,,,,,,,,0,,,54,0
163440,note_on,720,0,1,,,,,,,,,0,,,54,72
163440,note_on,0,0,1,,,,,,,,,0,,,66,72
163440,set_tempo,720,1,0,,,,,,463320,,,,,,,
163560,note_on,120,0,1,,,,,,,,,0,,,66,0
163560,note_on,0,0,1,,,,,,,,,0,,,54,0
163560,note_on,0,0,1,,,,,,,,,0,,,54,72
163560,note_on,0,0,1,,,,,,,,,0,,,66,72
163680,note_on,0,0,1,,,,,,,,,0,,,54,0
163680,note_on,240,0,2,,,,,,,,,0,,,66,72
163680,note_on,0,0,2,,,,,,,,,0,,,78,72
163680,note_on,120,0,1,,,,,,,,,0,,,66,0
163800,note_on,0,0,2,,,,,,,,,0,,,78,72
163800,note_on,0,0,2,,,,,,,,,0,,,66,72
163800,note_on,0,0,2,,,,,,,,,0,,,66,0
163800,note_on,120,0,2,,,,,,,,,0,,,78,0
163920,note_on,0,0,1,,,,,,,,,0,,,90,79
163920,note_on,120,0,2,,,,,,,,,0,,,78,0
163920,set_tempo,480,1,0,,,,,,552995,,,,,,,
163920,note_on,0,0,2,,,,,,,,,0,,,66,0
163920,note_on,240,0,1,,,,,,,,,0,,,78,79
164040,control_change,120,0,2,,,,,,,,,0,64,0,,
164160,set_tempo,240,1,0,,,,,,474308,,,,,,,
164160,note_on,120,0,2,,,,,,,,,0,,,73,60
164160,note_on,0,0,1,,,,,,,,,0,,,100,51
164160,note_on,240,0,1,,,,,,,,,0,,,90,0
164160,note_on,0,0,1,,,,,,,,,0,,,78,0
164160,note_on,0,0,1,,,,,,,,,0,,,88,51
164160,note_on,0,0,2,,,,,,,,,0,,,78,60
164280,note_on,120,0,2,,,,,,,,,0,,,78,0
164280,note_on,120,0,1,,,,,,,,,0,,,100,0
164280,note_on,0,0,1,,,,,,,,,0,,,100,51
164280,note_on,0,0,1,,,,,,,,,0,,,88,51
164280,note_on,0,0,1,,,,,,,,,0,,,88,0
164280,note_on,0,0,2,,,,,,,,,0,,,78,48
164400,note_on,120,0,2,,,,,,,,,0,,,78,0
164400,note_on,0,0,1,,,,,,,,,0,,,87,51
164400,note_on,0,0,2,,,,,,,,,0,,,73,0
164400,note_on,0,0,1,,,,,,,,,0,,,99,51
164400,note_on,0,0,2,,,,,,,,,0,,,78,48
164400,note_on,120,0,1,,,,,,,,,0,,,88,0
164400,note_on,0,0,2,,,,,,,,,0,,,71,48
164400,note_on,0,0,1,,,,,,,,,0,,,100,0
164520,note_on,0,0,1,,,,,,,,,0,,,99,51
164520,note_on,0,0,1,,,,,,,,,0,,,87,51
164520,note_on,120,0,1,,,,,,,,,0,,,99,0
164520,note_on,0,0,2,,,,,,,,,0,,,78,48
164520,note_on,120,0,2,,,,,,,,,0,,,78,0
164520,note_on,0,0,1,,,,,,,,,0,,,87,0
164640,note_on,0,0,1,,,,,,,,,0,,,85,51
164640,note_on,0,0,1,,,,,,,,,0,,,97,51
164640,set_tempo,480,1,0,,,,,,483871,,,,,,,
164640,note_on,0,0,2,,,,,,,,,0,,,70,48
164640,note_on,0,0,2,,,,,,,,,0,,,71,0
164640,note_on,0,0,2,,,,,,,,,0,,,78,48
164640,note_on,120,0,1,,,,,,,,,0,,,87,0
164640,note_on,0,0,1,,,,,,,,,0,,,99,0
164640,note_on,120,0,2,,,,,,,,,0,,,78,0
164760,note_on,0,0,1,,,,,,,,,0,,,97,0
164760,note_on,0,0,1,,,,,,,,,0,,,85,51
164760,note_on,120,0,2,,,,,,,,,0,,,78,0
164760,note_on,0,0,2,,,,,,,,,0,,,78,48
164760,note_on,120,0,1,,,,,,,,,0,,,85,0
164760,note_on,0,0,1,,,,,,,,,0,,,97,51
164880,note_on,0,0,2,,,,,,,,,0,,,78,48
164880,note_on,0,0,2,,,,,,,,,0,,,70,0
164880,note_on,0,0,2,,,,,,,,,0,,,68,48
164880,set_tempo,240,1,0,,,,,,468750,,,,,,,
164880,note_on,120,0,1,,,,,,,,,0,,,97,0
164880,note_on,0,0,1,,,,,,,,,0,,,83,50
164880,note_on,0,0,1,,,,,,,,,0,,,95,50
164880,note_on,120,0,2,,,,,,,,,0,,,78,0
164880,note_on,0,0,1,,,,,,,,,0,,,85,0
165000,note_on,0,0,1,,,,,,,,,0,,,83,50
165000,note_on,0,0,2,,,,,,,,,0,,,78,48
165000,note_on,0,0,1,,,,,,,,,0,,,83,0
165000,note_on,120,0,2,,,,,,,,,0,,,78,0
165000,note_on,120,0,1,,,,,,,,,0,,,95,0
165000,note_on,0,0,1,,,,,,,,,0,,,95,50
165120,note_on,120,0,2,,,,,,,,,0,,,78,0
165120,note_on,0,0,2,,,,,,,,,0,,,68,0
165120,note_on,0,0,2,,,,,,,,,0,,,70,48
165120,note_on,120,0,1,,,,,,,,,0,,,83,0
165120,note_on,0,0,1,,,,,,,,,0,,,97,50
165120,note_on,0,0,1,,,,,,,,,0,,,95,0
165120,note_on,0,0,2,,,,,,,,,0,,,78,48
165120,set_tempo,240,1,0,,,,,,458015,,,,,,,
165120,note_on,0,0,1,,,,,,,,,0,,,85,50
165240,note_on,0,0,1,,,,,,,,,0,,,85,50
165240,note_on,120,0,2,,,,,,,,,0,,,78,0
165240,note_on,0,0,2,,,,,,,,,0,,,78,48
165240,note_on,0,0,1,,,,,,,,,0,,,97,50
165240,note_on,0,0,1,,,,,,,,,0,,,97,0
165240,note_on,120,0,1,,,,,,,,,0,,,85,0
165360,note_on,120,0,2,,,,,,,,,0,,,78,0
165360,note_on,0,0,2,,,,,,,,,0,,,78,52
165360,note_on,0,0,2,,,,,,,,,0,,,71,52
165360,note_on,0,0,2,,,,,,,,,0,,,70,0
165360,note_on,0,0,1,,,,,,,,,0,,,99,53
165360,note_on,0,0,1,,,,,,,,,0,,,97,0
165360,note_on,0,0,1,,,,,,,,,0,,,87,53
165360,set_tempo,240,1,0,,,,,,489796,,,,,,,
165360,note_on,120,0,1,,,,,,,,,0,,,85,0
165600,note_on,0,0,1,,,,,,,,,0,,,99,0
165600,set_tempo,240,1,0,,,,,,510638,,,,,,,
165600,note_on,240,0,1,,,,,,,,,0,,,87,0
165600,note_on,240,0,2,,,,,,,,,0,,,78,0
165600,note_on,0,0,2,,,,,,,,,0,,,53,70
165600,note_on,0,0,2,,,,,,,,,0,,,41,70
165600,note_on,0,0,2,,,,,,,,,0,,,71,0
165720,note_on,0,0,2,,,,,,,,,0,,,41,0
165720,note_on,120,0,2,,,,,,,,,0,,,53,0
165720,note_on,0,0,2,,,,,,,,,0,,,41,73
165720,note_on,0,0,2,,,,,,,,,0,,,53,73
165720,set_tempo,120,1,0,,,,,,497925,,,,,,,
165840,note_on,0,0,2,,,,,,,,,0,,,40,75
165840,note_on,0,0,2,,,,,,,,,0,,,41,0
165840,note_on,0,0,2,,,,,,,,,0,,,52,75
165840,set_tempo,120,1,0,,,,,,547945,,,,,,,
165840,note_on,120,0,2,,,,,,,,,0,,,53,0
165960,note_on,0,0,2,,,,,,,,,0,,,52,78
165960,note_on,0,0,2,,,,,,,,,0,,,40,0
165960,note_on,120,0,2,,,,,,,,,0,,,52,0
165960,note_on,0,0,2,,,,,,,,,0,,,40,78
165960,set_tempo,120,1,0,,,,,,506329,,,,,,,
166080,note_on,0,0,2,,,,,,,,,0,,,39,79
166080,note_on,120,0,2,,,,,,,,,0,,,52,0
166080,set_tempo,120,1,0,,,,,,524017,,,,,,,
166080,note_on,0,0,2,,,,,,,,,0,,,51,79
166080,control_change,0,0,2,,,,,,,,,0,64,127,,
166080,note_on,0,0,2,,,,,,,,,0,,,40,0
166200,note_on,0,0,2,,,,,,,,,0,,,39,0
166200,note_on,0,0,2,,,,,,,,,0,,,39,79
166200,note_on,0,0,2,,,,,,,,,0,,,51,79
166200,set_tempo,120,1,0,,,,,,497925,,,,,,,
166200,note_on,120,0,2,,,,,,,,,0,,,51,0
166320,note_on,0,0,1,,,,,,,,,0,,,63,72
166320,note_on,0,0,2,,,,,,,,,0,,,39,0
166320,note_on,120,0,2,,,,,,,,,0,,,51,0
166320,note_on,720,0,1,,,,,,,,,0,,,51,72
166320,set_tempo,120,1,0,,,,,,463320,,,,,,,
166440,note_on,0,0,1,,,,,,,,,0,,,63,72
166440,note_on,0,0,1,,,,,,,,,0,,,51,72
166440,note_on,0,0,1,,,,,,,,,0,,,51,0
166440,note_on,120,0,1,,,,,,,,,0,,,63,0
166560,note_on,0,0,2,,,,,,,,,0,,,75,72
166560,note_on,0,0,1,,,,,,,,,0,,,51,0
166560,note_on,240,0,2,,,,,,,,,0,,,63,72
166560,note_on,120,0,1,,,,,,,,,0,,,63,0
166680,note_on,120,0,2,,,,,,,,,0,,,75,0
166680,note_on,0,0,2,,,,,,,,,0,,,75,72
166680,note_on,0,0,2,,,,,,,,,0,,,63,72
166680,note_on,0,0,2,,,,,,,,,0,,,63,0
166800,set_tempo,480,1,0,,,,,,512821,,,,,,,
166800,note_on,240,0,1,,,,,,,,,0,,,75,79
166800,note_on,0,0,1,,,,,,,,,0,,,87,79
166800,note_on,120,0,2,,,,,,,,,0,,,75,0
166800,note_on,0,0,2,,,,,,,,,0,,,63,0
166920,control_change,120,0,2,,,,,,,,,0,64,0,,
167040,note_on,0,0,1,,,,,,,,,0,,,75,0
167040,set_tempo,240,1,0,,,,,,603015,,,,,,,
167040,note_on,0,0,2,,,,,,,,,0,,,67,55
167040,note_on,0,0,1,,,,,,,,,0,,,87,66
167040,note_on,0,0,1,,,,,,,,,0,,,75,66
167040,note_on,240,0,1,,,,,,,,,0,,,87,0
167040,note_on,120,0,2,,,,,,,,,0,,,63,55
167160,note_on,120,0,2,,,,,,,,,0,,,67,0
167160,note_on,0,0,1,,,,,,,,,0,,,87,0
167160,note_on,120,0,1,,,,,,,,,0,,,75,0
167160,note_on,0,0,1,,,,,,,,,0,,,87,67
167160,set_tempo,120,1,0,,,,,,566038,,,,,,,
167160,note_on,0,0,2,,,,,,,,,0,,,63,56
167160,note_on,0,0,2,,,,,,,,,0,,,67,56
167160,note_on,0,0,1,,,,,,,,,0,,,75,67
167160,note_on,0,0,2,,,,,,,,,0,,,63,0
167280,note_on,0,0,1,,,,,,,,,0,,,87,69
167280,set_tempo,120,1,0,,,,,,574163,,,,,,,
167280,note_on,120,0,2,,,,,,,,,0,,,67,0
167280,note_on,0,0,1,,,,,,,,,0,,,75,69
167280,note_on,0,0,2,,,,,,,,,0,,,63,0
167280,note_on,120,0,1,,,,,,,,,0,,,75,0
167280,note_on,0,0,2,,,,,,,,,0,,,65,58
167280,note_on,0,0,2,,,,,,,,,0,,,68,58
167280,note_on,0,0,1,,,,,,,,,0,,,87,0
167400,note_on,0,0,2,,,,,,,,,0,,,65,60
167400,note_on,120,0,1,,,,,,,,,0,,,75,0
167400,note_on,0,0,2,,,,,,,,,0,,,68,60
167400,set_tempo,120,1,0,,,,,,491803,,,,,,,
167400,note_on,120,0,2,,,,,,,,,0,,,68,0
167400,note_on,0,0,1,,,,,,,,,0,,,87,72
167400,note_on,0,0,2,,,,,,,,,0,,,65,0
167400,note_on,0,0,1,,,,,,,,,0,,,75,72
167400,note_on,0,0,1,,,,,,,,,0,,,87,0
167500,set_tempo,100,1,0,,,,,,502092,,,,,,,
167520,note_on,0,0,2,,,,,,,,,0,,,66,62
167520,note_on,0,0,1,,,,,,,,,0,,,76,72
167520,note_on,120,0,2,,,,,,,,,0,,,68,0
167520,set_tempo,20,1,0,,,,,,504202,,,,,,,
167520,note_on,0,0,1,,,,,,,,,0,,,87,0
167520,note_on,0,0,1,,,,,,,,,0,,,88,72
167520,note_on,120,0,1,,,,,,,,,0,,,75,0
167520,note_on,0,0,2,,,,,,,,,0,,,65,0
167520,note_on,0,0,2,,,,,,,,,0,,,69,62
167560,set_tempo,40,1,0,,,,,,502092,,,,,,,
167600,set_tempo,40,1,0,,,,,,500000,,,,,,,
167640,note_on,0,0,2,,,,,,,,,0,,,66,0
167640,note_on,120,0,1,,,,,,,,,0,,,88,0
167640,note_on,0,0,1,,,,,,,,,0,,,76,0
167640,note_on,0,0,1,,,,,,,,,0,,,75,72
167640,note_on,120,0,2,,,,,,,,,0,,,69,0
167640,note_on,0,0,2,,,,,,,,,0,,,66,62
167640,note_on,0,0,2,,,,,,,,,0,,,69,62
167640,note_on,0,0,1,,,,,,,,,0,,,87,72
167640,set_tempo,40,1,0,,,,,,497925,,,,,,,
167680,set_tempo,40,1,0,,,,,,495868,,,,,,,
167720,set_tempo,40,1,0,,,,,,493827,,,,,,,
167760,note_on,0,0,2,,,,,,,,,0,,,66,0
167760,note_on,120,0,1,,,,,,,,,0,,,87,0
167760,set_tempo,40,1,0,,,,,,491803,,,,,,,
167760,note_on,0,0,2,,,,,,,,,0,,,64,61
167760,note_on,0,0,2,,,,,,,,,0,,,67,61
167760,note_on,0,0,1,,,,,,,,,0,,,73,70
167760,note_on,0,0,1,,,,,,,,,0,,,85,70
167760,note_on,0,0,1,,,,,,,,,0,,,75,0
167760,note_on,120,0,2,,,,,,,,,0,,,69,0
167800,set_tempo,40,1,0,,,,,,489796,,,,,,,
167840,set_tempo,40,1,0,,,,,,487805,,,,,,,
167880,note_on,0,0,1,,,,,,,,,0,,,71,69
167880,note_on,120,0,1,,,,,,,,,0,,,85,0
167880,note_on,0,0,2,,,,,,,,,0,,,67,60
167880,set_tempo,40,1,0,,,,,,485830,,,,,,,
167880,note_on,0,0,2,,,,,,,,,0,,,64,60
167880,note_on,120,0,2,,,,,,,,,0,,,67,0
167880,note_on,0,0,1,,,,,,,,,0,,,83,69
167880,note_on,0,0,2,,,,,,,,,0,,,64,0
167880,note_on,0,0,1,,,,,,,,,0,,,73,0
167900,set_tempo,20,1,0,,,,,,483871,,,,,,,
167940,set_tempo,40,1,0,,,,,,481928,,,,,,,
167980,set_tempo,40,1,0,,,,,,480000,,,,,,,
168000,note_on,120,0,2,,,,,,,,,0,,,67,0
168000,note_on,0,0,2,,,,,,,,,0,,,65,58
168000,note_on,0,0,2,,,,,,,,,0,,,62,58
168000,note_on,120,0,1,,,,,,,,,0,,,83,0
168000,note_on,0,0,2,,,,,,,,,0,,,64,0
168000,note_on,0,0,1,,,,,,,,,0,,,82,68
168000,note_on,0,0,1,,,,,,,,,0,,,70,68
168000,note_on,0,0,1,,,,,,,,,0,,,71,0
168020,set_tempo,40,1,0,,,,,,478088,,,,,,,
168060,set_tempo,40,1,0,,,,,,476190,,,,,,,
168100,set_tempo,40,1,0,,,,,,474308,,,,,,,
168120,note_on,0,0,2,,,,,,,,,0,,,62,0
168120,note_on,0,0,2,,,,,,,,,0,,,65,58
168120,note_on,120,0,1,,,,,,,,,0,,,82,0
168120,note_on,0,0,2,,,,,,,,,0,,,62,58
168120,note_on,120,0,2,,,,,,,,,0,,,65,0
168120,note_on,0,0,1,,,,,,,,,0,,,68,68
168120,note_on,0,0,1,,,,,,,,,0,,,80,68
168120,note_on,0,0,1,,,,,,,,,0,,,70,0
168140,set_tempo,40,1,0,,,,,,472441,,,,,,,
168180,set_tempo,40,1,0,,,,,,470588,,,,,,,
168220,set_tempo,40,1,0,,,,,,468750,,,,,,,
168240,note_on,0,0,2,,,,,,,,,0,,,62,0
168240,note_on,0,0,1,,,,,,,,,0,,,68,0
168240,note_on,0,0,1,,,,,,,,,0,,,79,67
168240,note_on,120,0,1,,,,,,,,,0,,,80,0
168240,set_tempo,20,1,0,,,,,,466926,,,,,,,
168240,note_on,0,0,1,,,,,,,,,0,,,67,67
168240,note_on,0,0,2,,,,,,,,,0,,,63,57
168240,note_on,120,0,2,,,,,,,,,0,,,65,0
168480,note_on,0,0,2,,,,,,,,,0,,,34,78
168480,note_on,0,0,2,,,,,,,,,0,,,46,78
168480,note_on,0,0,1,,,,,,,,,0,,,67,0
168480,set_tempo,240,1,0,,,,,,638298,,,,,,,
168480,note_on,240,0,2,,,,,,,,,0,,,63,0
168480,note_on,240,0,1,,,,,,,,,0,,,79,0
168600,set_tempo,120,1,0,,,,,,588235,,,,,,,
168600,note_on,120,0,2,,,,,,,,,0,,,46,0
168600,note_on,0,0,2,,,,,,,,,0,,,34,0
168600,note_on,0,0,2,,,,,,,,,0,,,34,78
168600,note_on,0,0,2,,,,,,,,,0,,,46,78
168720,note_on,120,0,2,,,,,,,,,0,,,46,0
168720,set_tempo,120,1,0,,,,,,547945,,,,,,,
168720,note_on,0,0,2,,,,,,,,,0,,,50,79
168720,note_on,0,0,2,,,,,,,,,0,,,38,79
168720,note_on,0,0,2,,,,,,,,,0,,,34,0
168840,note_on,0,0,2,,,,,,,,,0,,,50,82
168840,set_tempo,120,1,0,,,,,,524017,,,,,,,
168840,note_on,120,0,2,,,,,,,,,0,,,50,0
168840,note_on,0,0,2,,,,,,,,,0,,,38,82
168840,note_on,0,0,2,,,,,,,,,0,,,38,0
168960,note_on,0,0,2,,,,,,,,,0,,,51,86
168960,control_change,0,0,2,,,,,,,,,0,64,127,,
168960,note_on,120,0,2,,,,,,,,,0,,,50,0
168960,note_on,0,0,2,,,,,,,,,0,,,39,86
168960,note_on,0,0,2,,,,,,,,,0,,,38,0
168960,set_tempo,120,1,0,,,,,,530973,,,,,,,
169080,note_on,0,0,2,,,,,,,,,0,,,39,0
169080,note_on,120,0,2,,,,,,,,,0,,,51,0
169080,note_on,0,0,2,,,,,,,,,0,,,39,86
169080,set_tempo,120,1,0,,,,,,510638,,,,,,,
169080,note_on,0,0,2,,,,,,,,,0,,,51,86
169200,note_on,720,0,1,,,,,,,,,0,,,51,77
169200,note_on,0,0,1,,,,,,,,,0,,,63,77
169200,note_on,120,0,2,,,,,,,,,0,,,51,0
169200,set_tempo,120,1,0,,,,,,463320,,,,,,,
169200,note_on,0,0,2,,,,,,,,,0,,,39,0
169320,note_on,0,0,1,,,,,,,,,0,,,51,77
169320,note_on,120,0,1,,,,,,,,,0,,,63,0
169320,note_on,0,0,1,,,,,,,,,0,,,63,77
169320,note_on,0,0,1,,,,,,,,,0,,,51,0
169440,note_on,0,0,2,,,,,,,,,0,,,75,79
169440,note_on,240,0,2,,,,,,,,,0,,,63,79
169440,note_on,120,0,1,,,,,,,,,0,,,63,0
169440,note_on,0,0,1,,,,,,,,,0,,,51,0
169560,note_on,120,0,2,,,,,,,,,0,,,75,0
169560,note_on,0,0,2,,,,,,,,,0,,,75,79
169560,note_on,0,0,2,,,,,,,,,0,,,63,0
169560,note_on,0,0,2,,,,,,,,,0,,,63,79
169680,set_tempo,480,1,0,,,,,,512821,,,,,,,
169680,note_on,0,0,1,,,,,,,,,0,,,87,85
169680,note_on,240,0,1,,,,,,,,,0,,,75,85
169680,note_on,0,0,2,,,,,,,,,0,,,63,0
169680,note_on,120,0,2,,,,,,,,,0,,,75,0
169800,control_change,120,0,2,,,,,,,,,0,64,0,,
169920,note_on,0,0,2,,,,,,,,,0,,,75,64
169920,set_tempo,240,1,0,,,,,,648649,,,,,,,
169920,note_on,0,0,1,,,,,,,,,0,,,75,0
169920,note_on,240,0,1,,,,,,,,,0,,,87,0
169920,note_on,0,0,1,,,,,,,,,0,,,87,77
169920,note_on,120,0,2,,,,,,,,,0,,,67,64
169920,note_on,0,0,1,,,,,,,,,0,,,99,77
170040,note_on,120,0,2,,,,,,,,,0,,,75,0
170040,note_on,0,0,2,,,,,,,,,0,,,75,66
170040,note_on,120,0,1,,,,,,,,,0,,,87,0
170040,note_on,0,0,2,,,,,,,,,0,,,67,66
170040,note_on,0,0,1,,,,,,,,,0,,,99,79
170040,note_on,0,0,2,,,,,,,,,0,,,67,0
170040,set_tempo,120,1,0,,,,,,618557,,,,,,,
170040,note_on,0,0,1,,,,,,,,,0,,,99,0
170040,note_on,0,0,1,,,,,,,,,0,,,87,79
170160,note_on,0,0,2,,,,,,,,,0,,,77,68
170160,note_on,0,0,2,,,,,,,,,0,,,68,68
170160,note_on,0,0,2,,,,,,,,,0,,,67,0
170160,note_on,120,0,1,,,,,,,,,0,,,87,0
170160,note_on,120,0,2,,,,,,,,,0,,,75,0
170160,note_on,0,0,1,,,,,,,,,0,,,99,81
170160,note_on,0,0,1,,,,,,,,,0,,,99,0
170160,note_on,0,0,1,,,,,,,,,0,,,87,81
170160,set_tempo,120,1,0,,,,,,666667,,,,,,,
170260,set_tempo,100,1,0,,,,,,558140,,,,,,,
170280,note_on,120,0,2,,,,,,,,,0,,,77,0
170280,note_on,120,0,1,,,,,,,,,0,,,87,0
170280,note_on,0,0,2,,,,,,,,,0,,,68,0
170280,note_on,0,0,2,,,,,,,,,0,,,77,69
170280,note_on,0,0,2,,,,,,,,,0,,,68,69
170280,note_on,0,0,1,,,,,,,,,0,,,87,82
170280,note_on,0,0,1,,,,,,,,,0,,,99,0
170280,note_on,0,0,1,,,,,,,,,0,,,99,82
170400,set_tempo,140,1,0,,,,,,524017,,,,,,,
170400,note_on,120,0,1,,,,,,,,,0,,,99,0
170400,note_on,0,0,1,,,,,,,,,0,,,87,0
170400,note_on,0,0,1,,,,,,,,,0,,,100,82
170400,note_on,0,0,1,,,,,,,,,0,,,88,82
170400,note_on,120,0,2,,,,,,,,,0,,,77,0
170400,note_on,0,0,2,,,,,,,,,0,,,69,70
170400,note_on,0,0,2,,,,,,,,,0,,,68,0
170400,note_on,0,0,2,,,,,,,,,0,,,78,70
170520,note_on,120,0,1,,,,,,,,,0,,,100,0
170520,note_on,120,0,2,,,,,,,,,0,,,78,0
170520,set_tempo,120,1,0,,,,,,504202,,,,,,,
170520,note_on,0,0,1,,,,,,,,,0,,,88,0
170520,note_on,0,0,1,,,,,,,,,0,,,87,82
170520,note_on,0,0,2,,,,,,,,,0,,,69,72
170520,note_on,0,0,1,,,,,,,,,0,,,99,82
170520,note_on,0,0,2,,,,,,,,,0,,,78,72
170520,note_on,0,0,2,,,,,,,,,0,,,69,0
170600,set_tempo,80,1,0,,,,,,504202,,,,,,,
170620,set_tempo,20,1,0,,,,,,508475,,,,,,,
170640,note_on,0,0,2,,,,,,,,,0,,,79,72
170640,note_on,0,0,1,,,,,,,,,0,,,97,82
170640,note_on,0,0,2,,,,,,,,,0,,,70,72
170640,note_on,0,0,1,,,,,,,,,0,,,85,82
170640,note_on,120,0,2,,,,,,,,,0,,,78,0
170640,note_on,0,0,1,,,,,,,,,0,,,87,0
170640,note_on,120,0,1,,,,,,,,,0,,,99,0
170640,note_on,0,0,2,,,,,,,,,0,,,69,0
170680,set_tempo,60,1,0,,,,,,506329,,,,,,,
170720,set_tempo,40,1,0,,,,,,504202,,,,,,,
170760,note_on,120,0,1,,,,,,,,,0,,,97,0
170760,note_on,0,0,1,,,,,,,,,0,,,95,81
170760,note_on,0,0,1,,,,,,,,,0,,,85,0
170760,note_on,120,0,2,,,,,,,,,0,,,79,0
170760,note_on,0,0,2,,,,,,,,,0,,,79,70
170760,note_on,0,0,2,,,,,,,,,0,,,70,70
170760,note_on,0,0,2,,,,,,,,,0,,,70,0
170760,note_on,0,0,1,,,,,,,,,0,,,83,81
170780,set_tempo,60,1,0,,,,,,502092,,,,,,,
170820,set_tempo,40,1,0,,,,,,500000,,,,,,,
170880,note_on,0,0,1,,,,,,,,,0,,,82,81
170880,note_on,0,0,1,,,,,,,,,0,,,94,81
170880,set_tempo,60,1,0,,,,,,497925,,,,,,,
170880,note_on,0,0,1,,,,,,,,,0,,,95,0
170880,note_on,120,0,1,,,,,,,,,0,,,83,0
170880,note_on,120,0,2,,,,,,,,,0,,,79,0
170880,note_on,0,0,2,,,,,,,,,0,,,70,0
170880,note_on,0,0,2,,,,,,,,,0,,,74,70
170880,note_on,0,0,2,,,,,,,,,0,,,77,70
170920,set_tempo,40,1,0,,,,,,495868,,,,,,,
170980,set_tempo,60,1,0,,,,,,493827,,,,,,,
171000,note_on,120,0,1,,,,,,,,,0,,,94,0
171000,note_on,0,0,1,,,,,,,,,0,,,82,0
171000,note_on,0,0,1,,,,,,,,,0,,,80,81
171000,note_on,0,0,2,,,,,,,,,0,,,77,69
171000,note_on,120,0,2,,,,,,,,,0,,,77,0
171000,note_on,0,0,1,,,,,,,,,0,,,92,81
171000,note_on,0,0,2,,,,,,,,,0,,,74,69
171000,note_on,0,0,2,,,,,,,,,0,,,74,0
171020,set_tempo,40,1,0,,,,,,491803,,,,,,,
171080,set_tempo,60,1,0,,,,,,489796,,,,,,,
171120,set_tempo,40,1,0,,,,,,487805,,,,,,,
171120,note_on,120,0,2,,,,,,,,,0,,,77,0
171120,note_on,0,0,1,,,,,,,,,0,,,79,80
171120,note_on,0,0,1,,,,,,,,,0,,,91,80
171120,note_on,120,0,1,,,,,,,,,0,,,80,0
171120,note_on,0,0,1,,,,,,,,,0,,,92,0
171120,note_on,0,0,2,,,,,,,,,0,,,70,69
171120,note_on,0,0,2,,,,,,,,,0,,,74,0
171120,note_on,0,0,2,,,,,,,,,0,,,75,69
171140,set_tempo,20,1,0,,,,,,481928,,,,,,,
171240,note_on,120,0,1,,,,,,,,,0,,,79,0
171240,note_on,0,0,1,,,,,,,,,0,,,90,80
171240,note_on,0,0,1,,,,,,,,,0,,,78,80
171240,note_on,0,0,1,,,,,,,,,0,,,91,0
171240,note_on,0,0,2,,,,,,,,,0,,,75,69
171240,note_on,0,0,2,,,,,,,,,0,,,70,69
171240,note_on,0,0,2,,,,,,,,,0,,,70,0
171240,set_tempo,100,1,0,,,,,,480000,,,,,,,
171240,note_on,120,0,2,,,,,,,,,0,,,75,0
171320,set_tempo,80,1,0,,,,,,478088,,,,,,,
171360,note_on,120,0,1,,,,,,,,,0,,,90,0
171360,note_on,0,0,1,,,,,,,,,0,,,89,80
171360,note_on,0,0,2,,,,,,,,,0,,,70,0
171360,set_tempo,40,1,0,,,,,,468750,,,,,,,
171360,note_on,0,0,2,,,,,,,,,0,,,68,68
171360,note_on,0,0,1,,,,,,,,,0,,,77,80
171360,note_on,0,0,1,,,,,,,,,0,,,78,0
171360,note_on,0,0,2,,,,,,,,,0,,,71,68
171360,note_on,120,0,2,,,,,,,,,0,,,75,0
171480,note_on,0,0,1,,,,,,,,,0,,,89,0
171480,note_on,0,0,1,,,,,,,,,0,,,76,79
171480,note_on,0,0,1,,,,,,,,,0,,,88,79
171480,set_tempo,120,1,0,,,,,,459770,,,,,,,
171480,note_on,120,0,1,,,,,,,,,0,,,77,0
171480,note_on,0,0,2,,,,,,,,,0,,,68,0
171480,note_on,0,0,2,,,,,,,,,0,,,68,68
171480,note_on,0,0,2,,,,,,,,,0,,,71,68
171480,note_on,120,0,2,,,,,,,,,0,,,71,0
171600,note_on,0,0,1,,,,,,,,,0,,,74,79
171600,note_on,0,0,1,,,,,,,,,0,,,86,79
171600,note_on,0,0,2,,,,,,,,,0,,,66,68
171600,note_on,0,0,2,,,,,,,,,0,,,68,0
171600,note_on,0,0,2,,,,,,,,,0,,,69,68
171600,note_on,0,0,1,,,,,,,,,0,,,76,0
171600,note_on,120,0,1,,,,,,,,,0,,,88,0
171600,note_on,120,0,2,,,,,,,,,0,,,71,0
171600,set_tempo,120,1,0,,,,,,480000,,,,,,,
171720,note_on,0,0,2,,,,,,,,,0,,,69,69
171720,note_on,0,0,2,,,,,,,,,0,,,66,0
171720,set_tempo,120,1,0,,,,,,465116,,,,,,,
171720,note_on,0,0,1,,,,,,,,,0,,,75,81
171720,note_on,0,0,1,,,,,,,,,0,,,86,0
171720,note_on,0,0,1,,,,,,,,,0,,,87,81
171720,note_on,120,0,2,,,,,,,,,0,,,69,0
171720,note_on,0,0,2,,,,,,,,,0,,,66,69
171720,note_on,120,0,1,,,,,,,,,0,,,74,0
171820,set_tempo,100,1,0,,,,,,474308,,,,,,,
171840,note_on,0,0,2,,,,,,,,,0,,,66,0
171840,note_on,0,0,2,,,,,,,,,0,,,67,69
171840,note_on,0,0,2,,,,,,,,,0,,,70,69
171840,note_on,0,0,1,,,,,,,,,0,,,75,0
171840,note_on,0,0,1,,,,,,,,,0,,,88,84
171840,note_on,0,0,1,,,,,,,,,0,,,76,84
171840,note_on,120,0,2,,,,,,,,,0,,,69,0
171840,note_on,120,0,1,,,,,,,,,0,,,87,0
171960,note_on,0,0,1,,,,,,,,,0,,,75,84
171960,note_on,0,0,2,,,,,,,,,0,,,70,69
171960,note_on,0,0,2,,,,,,,,,0,,,67,69
171960,note_on,0,0,1,,,,,,,,,0,,,87,84
171960,note_on,0,0,1,,,,,,,,,0,,,88,0
171960,note_on,120,0,2,,,,,,,,,0,,,70,0
171960,note_on,0,0,2,,,,,,,,,0,,,67,0
171960,note_on,120,0,1,,,,,,,,,0,,,76,0
172060,set_tempo,240,1,0,,,,,,472441,,,,,,,
172080,note_on,120,0,2,,,,,,,,,0,,,70,0
172080,note_on,0,0,2,,,,,,,,,0,,,67,69
172080,note_on,0,0,2,,,,,,,,,0,,,67,0
172080,note_on,0,0,2,,,,,,,,,0,,,64,69
172080,note_on,0,0,1,,,,,,,,,0,,,75,0
172080,note_on,0,0,1,,,,,,,,,0,,,73,82
172080,note_on,120,0,1,,,,,,,,,0,,,87,0
172080,note_on,0,0,1,,,,,,,,,0,,,85,82
172200,note_on,120,0,2,,,,,,,,,0,,,67,0
172200,note_on,0,0,1,,,,,,,,,0,,,71,81
172200,note_on,120,0,1,,,,,,,,,0,,,73,0
172200,note_on,0,0,2,,,,,,,,,0,,,64,0
172200,note_on,0,0,2,,,,,,,,,0,,,67,68
172200,note_on,0,0,1,,,,,,,,,0,,,83,81
172200,note_on,0,0,1,,,,,,,,,0,,,85,0
172200,note_on,0,0,2,,,,,,,,,0,,,64,68
172300,set_tempo,240,1,0,,,,,,470588,,,,,,,
172320,note_on,0,0,1,,,,,,,,,0,,,70,81
172320,note_on,120,0,2,,,,,,,,,0,,,67,0
172320,note_on,0,0,1,,,,,,,,,0,,,71,0
172320,note_on,120,0,1,,,,,,,,,0,,,83,0
172320,note_on,0,0,1,,,,,,,,,0,,,82,81
172320,note_on,0,0,2,,,,,,,,,0,,,64,0
172320,note_on,0,0,2,,,,,,,,,0,,,62,68
172320,note_on,0,0,2,,,,,,,,,0,,,65,68
172440,note_on,0,0,2,,,,,,,,,0,,,62,0
172440,note_on,0,0,2,,,,,,,,,0,,,62,67
172440,note_on,0,0,2,,,,,,,,,0,,,65,67
172440,note_on,0,0,1,,,,,,,,,0,,,82,0
172440,note_on,120,0,1,,,,,,,,,0,,,70,0
172440,note_on,0,0,1,,,,,,,,,0,,,80,80
172440,note_on,0,0,1,,,,,,,,,0,,,68,80
172440,note_on,120,0,2,,,,,,,,,0,,,65,0
172540,set_tempo,240,1,0,,,,,,468750,,,,,,,
172560,note_on,120,0,2,,,,,,,,,0,,,65,0
172560,note_on,0,0,1,,,,,,,,,0,,,67,80
172560,note_on,0,0,2,,,,,,,,,0,,,63,67
172560,note_on,0,0,1,,,,,,,,,0,,,68,0
172560,note_on,0,0,1,,,,,,,,,0,,,79,80
172560,note_on,0,0,2,,,,,,,,,0,,,62,0
172560,note_on,0,0,2,,,,,,,,,0,,,58,67
172560,note_on,120,0,1,,,,,,,,,0,,,80,0
172600,set_tempo,60,1,0,,,,,,466926,,,,,,,
172640,set_tempo,40,1,0,,,,,,465116,,,,,,,
172680,note_on,120,0,1,,,,,,,,,0,,,79,0
172680,note_on,0,0,1,,,,,,,,,0,,,66,79
172680,note_on,0,0,1,,,,,,,,,0,,,67,0
172680,note_on,120,0,2,,,,,,,,,0,,,63,0
172680,note_on,0,0,1,,,,,,,,,0,,,78,79
172680,set_tempo,40,1,0,,,,,,463320,,,,,,,
172680,note_on,0,0,2,,,,,,,,,0,,,58,0
172680,note_on,0,0,2,,,,,,,,,0,,,58,66
172680,note_on,0,0,2,,,,,,,,,0,,,63,66
172720,set_tempo,40,1,0,,,,,,461538,,,,,,,
172760,set_tempo,40,1,0,,,,,,459770,,,,,,,
172800,note_on,0,0,1,,,,,,,,,0,,,77,78
172800,note_on,0,0,1,,,,,,,,,0,,,78,0
172800,note_on,120,0,2,,,,,,,,,0,,,63,0
172800,note_on,0,0,1,,,,,,,,,0,,,65,78
172800,set_tempo,40,1,0,,,,,,456274,,,,,,,
172800,note_on,0,0,2,,,,,,,,,0,,,59,66
172800,note_on,0,0,2,,,,,,,,,0,,,58,0
172800,note_on,0,0,2,,,,,,,,,0,,,56,66
172800,note_on,120,0,1,,,,,,,,,0,,,66,0
172920,note_on,0,0,2,,,,,,,,,0,,,56,0
172920,note_on,0,0,2,,,,,,,,,0,,,56,66
172920,note_on,0,0,1,,,,,,,,,0,,,76,78
172920,note_on,0,0,2,,,,,,,,,0,,,59,66
172920,note_on,120,0,2,,,,,,,,,0,,,59,0
172920,note_on,0,0,1,,,,,,,,,0,,,65,0
172920,note_on,0,0,1,,,,,,,,,0,,,64,78
172920,set_tempo,120,1,0,,,,,,451128,,,,,,,
172920,note_on,120,0,1,,,,,,,,,0,,,77,0
172980,set_tempo,60,1,0,,,,,,451128,,,,,,,
173020,set_tempo,40,1,0,,,,,,449438,,,,,,,
173040,note_on,0,0,1,,,,,,,,,0,,,62,80
173040,note_on,120,0,1,,,,,,,,,0,,,64,0
173040,note_on,0,0,1,,,,,,,,,0,,,74,80
173040,note_on,0,0,1,,,,,,,,,0,,,76,0
173040,note_on,0,0,2,,,,,,,,,0,,,57,64
173040,set_tempo,20,1,0,,,,,,466926,,,,,,,
173040,note_on,0,0,2,,,,,,,,,0,,,56,0
173040,note_on,0,0,2,,,,,,,,,0,,,54,64
173040,note_on,120,0,2,,,,,,,,,0,,,59,0
173160,note_on,0,0,2,,,,,,,,,0,,,54,70
173160,set_tempo,120,1,0,,,,,,451128,,,,,,,
173160,note_on,0,0,2,,,,,,,,,0,,,54,0
173160,note_on,0,0,1,,,,,,,,,0,,,63,82
173160,note_on,0,0,2,,,,,,,,,0,,,57,70
173160,note_on,0,0,1,,,,,,,,,0,,,75,82
173160,note_on,0,0,1,,,,,,,,,0,,,62,0
173160,note_on,120,0,1,,,,,,,,,0,,,74,0
173160,note_on,120,0,2,,,,,,,,,0,,,57,0
173260,set_tempo,100,1,0,,,,,,461538,,,,,,,
173280,note_on,0,0,1,,,,,,,,,0,,,76,82
173280,note_on,0,0,1,,,,,,,,,0,,,64,82
173280,note_on,0,0,1,,,,,,,,,0,,,63,0
173280,note_on,120,0,1,,,,,,,,,0,,,75,0
173280,note_on,120,0,2,,,,,,,,,0,,,57,0
173280,note_on,0,0,2,,,,,,,,,0,,,54,0
173280,note_on,0,0,2,,,,,,,,,0,,,58,74
173280,note_on,0,0,2,,,,,,,,,0,,,55,74
173400,note_on,0,0,2,,,,,,,,,0,,,55,0
173400,note_on,0,0,2,,,,,,,,,0,,,58,74
173400,note_on,120,0,2,,,,,,,,,0,,,58,0
173400,note_on,0,0,1,,,,,,,,,0,,,63,82
173400,note_on,0,0,1,,,,,,,,,0,,,64,0
173400,note_on,0,0,1,,,,,,,,,0,,,75,82
173400,note_on,0,0,2,,,,,,,,,0,,,55,74
173400,note_on,120,0,1,,,,,,,,,0,,,76,0
173520,note_on,0,0,2,,,,,,,,,0,,,52,73
173520,note_on,0,0,2,,,,,,,,,0,,,55,0
173520,note_on,0,0,2,,,,,,,,,0,,,55,73
173520,note_on,120,0,1,,,,,,,,,0,,,75,0
173520,note_on,0,0,1,,,,,,,,,0,,,61,82
173520,note_on,0,0,1,,,,,,,,,0,,,63,0
173520,note_on,0,0,1,,,,,,,,,0,,,73,82
173520,note_on,120,0,2,,,,,,,,,0,,,58,0
173580,set_tempo,320,1,0,,,,,,459770,,,,,,,
173640,note_on,0,0,2,,,,,,,,,0,,,52,0
173640,note_on,0,0,2,,,,,,,,,0,,,55,72
173640,note_on,0,0,1,,,,,,,,,0,,,73,0
173640,note_on,120,0,1,,,,,,,,,0,,,61,0
173640,note_on,0,0,1,,,,,,,,,0,,,71,81
173640,note_on,0,0,1,,,,,,,,,0,,,59,81
173640,note_on,120,0,2,,,,,,,,,0,,,55,0
173640,note_on,0,0,2,,,,,,,,,0,,,52,72
173760,note_on,0,0,1,,,,,,,,,0,,,70,81
173760,note_on,0,0,1,,,,,,,,,0,,,58,81
173760,note_on,120,0,2,,,,,,,,,0,,,55,0
173760,note_on,0,0,2,,,,,,,,,0,,,53,72
173760,note_on,120,0,1,,,,,,,,,0,,,71,0
173760,note_on,0,0,2,,,,,,,,,0,,,52,0
173760,note_on,0,0,2,,,,,,,,,0,,,50,72
173760,note_on,0,0,1,,,,,,,,,0,,,59,0
173880,note_on,0,0,2,,,,,,,,,0,,,50,70
173880,note_on,0,0,2,,,,,,,,,0,,,53,70
173880,note_on,0,0,2,,,,,,,,,0,,,50,0
173880,note_on,0,0,1,,,,,,,,,0,,,70,0
173880,note_on,0,0,1,,,,,,,,,0,,,56,81
173880,note_on,0,0,1,,,,,,,,,0,,,68,81
173880,note_on,120,0,2,,,,,,,,,0,,,53,0
173880,note_on,120,0,1,,,,,,,,,0,,,58,0
173900,set_tempo,320,1,0,,,,,,458015,,,,,,,
174000,note_on,0,0,2,,,,,,,,,0,,,51,70
174000,note_on,0,0,2,,,,,,,,,0,,,50,0
174000,note_on,0,0,2,,,,,,,,,0,,,46,70
174000,note_on,0,0,1,,,,,,,,,0,,,55,80
174000,note_on,0,0,1,,,,,,,,,0,,,56,0
174000,note_on,0,0,1,,,,,,,,,0,,,67,80
174000,note_on,120,0,2,,,,,,,,,0,,,53,0
174000,note_on,120,0,1,,,,,,,,,0,,,68,0
174120,note_on,0,0,2,,,,,,,,,0,,,51,69
174120,note_on,0,0,1,,,,,,,,,0,,,67,0
174120,note_on,0,0,1,,,,,,,,,0,,,66,80
174120,note_on,0,0,2,,,,,,,,,0,,,46,0
174120,note_on,120,0,1,,,,,,,,,0,,,55,0
174120,note_on,0,0,2,,,,,,,,,0,,,46,69
174120,note_on,0,0,1,,,,,,,,,0,,,54,80
174120,note_on,120,0,2,,,,,,,,,0,,,51,0
174220,set_tempo,320,1,0,,,,,,456274,,,,,,,
174240,note_on,0,0,2,,,,,,,,,0,,,46,0
174240,note_on,0,0,2,,,,,,,,,0,,,47,68
174240,note_on,0,0,1,,,,,,,,,0,,,54,0
174240,note_on,120,0,2,,,,,,,,,0,,,51,0
174240,set_tempo,20,1,0,,,,,,446097,,,,,,,
174240,note_on,120,0,1,,,,,,,,,0,,,66,0
174240,note_on,0,0,1,,,,,,,,,0,,,53,81
174240,note_on,0,0,1,,,,,,,,,0,,,65,81
174240,note_on,0,0,2,,,,,,,,,0,,,44,68
174360,note_on,120,0,2,,,,,,,,,0,,,47,0
174360,note_on,0,0,2,,,,,,,,,0,,,44,0
174360,note_on,0,0,1,,,,,,,,,0,,,65,0
174360,note_on,0,0,1,,,,,,,,,0,,,52,81
174360,note_on,0,0,2,,,,,,,,,0,,,44,68
174360,note_on,120,0,1,,,,,,,,,0,,,53,0
174360,note_on,0,0,2,,,,,,,,,0,,,47,68
174360,note_on,0,0,1,,,,,,,,,0,,,64,81
174460,set_tempo,220,1,0,,,,,,480000,,,,,,,
174480,set_tempo,20,1,0,,,,,,478088,,,,,,,
174480,note_on,0,0,2,,,,,,,,,0,,,42,64
174480,note_on,0,0,2,,,,,,,,,0,,,45,64
174480,note_on,0,0,1,,,,,,,,,0,,,62,80
174480,note_on,0,0,1,,,,,,,,,0,,,52,0
174480,note_on,0,0,1,,,,,,,,,0,,,50,80
174480,note_on,0,0,2,,,,,,,,,0,,,44,0
174480,note_on,120,0,1,,,,,,,,,0,,,64,0
174480,note_on,120,0,2,,,,,,,,,0,,,47,0
174600,note_on,0,0,1,,,,,,,,,0,,,51,81
174600,note_on,0,0,2,,,,,,,,,0,,,45,66
174600,note_on,0,0,2,,,,,,,,,0,,,42,66
174600,note_on,0,0,1,,,,,,,,,0,,,63,81
174600,note_on,0,0,1,,,,,,,,,0,,,50,0
174600,note_on,0,0,2,,,,,,,,,0,,,42,0
174600,note_on,120,0,1,,,,,,,,,0,,,62,0
174600,set_tempo,120,1,0,,,,,,519481,,,,,,,
174600,note_on,120,0,2,,,,,,,,,0,,,45,0
174720,note_on,120,0,2,,,,,,,,,0,,,45,0
174720,note_on,0,0,1,,,,,,,,,0,,,64,82
174720,set_tempo,120,1,0,,,,,,504202,,,,,,,
174720,note_on,0,0,1,,,,,,,,,0,,,52,82
174720,note_on,120,0,1,,,,,,,,,0,,,63,0
174720,note_on,0,0,1,,,,,,,,,0,,,51,0
174720,note_on,0,0,2,,,,,,,,,0,,,46,68
174720,note_on,0,0,2,,,,,,,,,0,,,43,68
174720,note_on,0,0,2,,,,,,,,,0,,,42,0
174840,note_on,120,0,1,,,,,,,,,0,,,64,0
174840,note_on,0,0,2,,,,,,,,,0,,,43,69
174840,note_on,120,0,2,,,,,,,,,0,,,46,0
174840,note_on,0,0,1,,,,,,,,,0,,,52,84
174840,note_on,0,0,2,,,,,,,,,0,,,43,0
174840,note_on,0,0,1,,,,,,,,,0,,,63,84
174840,set_tempo,120,1,0,,,,,,474308,,,,,,,
174840,note_on,0,0,1,,,,,,,,,0,,,52,0
174840,note_on,0,0,2,,,,,,,,,0,,,46,69
174960,set_tempo,120,1,0,,,,,,474308,,,,,,,
174960,note_on,120,0,1,,,,,,,,,0,,,52,0
174960,note_on,0,0,1,,,,,,,,,0,,,52,85
174960,note_on,120,0,2,,,,,,,,,0,,,46,0
174960,note_on,0,0,2,,,,,,,,,0,,,46,72
174960,note_on,0,0,1,,,,,,,,,0,,,61,85
174960,note_on,0,0,1,,,,,,,,,0,,,63,0
174960,note_on,0,0,2,,,,,,,,,0,,,43,0
174960,note_on,0,0,2,,,,,,,,,0,,,43,72
175020,set_tempo,60,1,0,,,,,,472441,,,,,,,
175060,set_tempo,40,1,0,,,,,,470588,,,,,,,
175080,note_on,120,0,1,,,,,,,,,0,,,52,0
175080,note_on,120,0,2,,,,,,,,,0,,,46,0
175080,note_on,0,0,1,,,,,,,,,0,,,59,86
175080,note_on,0,0,2,,,,,,,,,0,,,43,0
175080,note_on,0,0,2,,,,,,,,,0,,,43,73
175080,note_on,0,0,1,,,,,,,,,0,,,52,86
175080,note_on,0,0,2,,,,,,,,,0,,,46,73
175080,note_on,0,0,1,,,,,,,,,0,,,61,0
175100,set_tempo,40,1,0,,,,,,468750,,,,,,,
175140,set_tempo,40,1,0,,,,,,466926,,,,,,,
175180,set_tempo,40,1,0,,,,,,465116,,,,,,,
175200,note_on,0,0,1,,,,,,,,,0,,,53,89
175200,note_on,120,0,1,,,,,,,,,0,,,52,0
175200,note_on,0,0,1,,,,,,,,,0,,,59,0
175200,note_on,0,0,2,,,,,,,,,0,,,47,75
175200,note_on,0,0,1,,,,,,,,,0,,,58,89
175200,note_on,120,0,2,,,,,,,,,0,,,46,0
175200,note_on,0,0,2,,,,,,,,,0,,,38,75
175200,note_on,0,0,2,,,,,,,,,0,,,43,0
175240,set_tempo,60,1,0,,,,,,463320,,,,,,,
175280,set_tempo,40,1,0,,,,,,461538,,,,,,,
175320,note_on,0,0,2,,,,,,,,,0,,,47,77
175320,note_on,120,0,2,,,,,,,,,0,,,47,0
175320,set_tempo,40,1,0,,,,,,459770,,,,,,,
175320,note_on,0,0,1,,,,,,,,,0,,,53,0
175320,note_on,0,0,1,,,,,,,,,0,,,53,90
175320,note_on,0,0,1,,,,,,,,,0,,,56,90
175320,note_on,0,0,2,,,,,,,,,0,,,38,77
175320,note_on,0,0,2,,,,,,,,,0,,,38,0
175320,note_on,120,0,1,,,,,,,,,0,,,58,0
175360,set_tempo,40,1,0,,,,,,458015,,,,,,,
175400,set_tempo,40,1,0,,,,,,456274,,,,,,,
175440,note_on,120,0,2,,,,,,,,,0,,,47,0
175440,set_tempo,40,1,0,,,,,,454545,,,,,,,
175440,note_on,120,0,1,,,,,,,,,0,,,56,0
175440,note_on,0,0,1,,,,,,,,,0,,,55,91
175440,note_on,0,0,1,,,,,,,,,0,,,53,0
175440,note_on,0,0,2,,,,,,,,,0,,,46,79
175440,note_on,0,0,2,,,,,,,,,0,,,39,79
175440,note_on,0,0,2,,,,,,,,,0,,,38,0
175680,note_on,0,0,1,,,,,,,,,0,,,50,91
175680,note_on,240,0,2,,,,,,,,,0,,,46,0
175680,note_on,0,0,2,,,,,,,,,0,,,39,0
175680,note_on,240,0,1,,,,,,,,,0,,,55,0
175680,note_on,0,0,1,,,,,,,,,0,,,62,91
175800,note_on,0,0,1,,,,,,,,,0,,,62,0
175800,note_on,120,0,1,,,,,,,,,0,,,50,0
175800,note_on,120,0,2,,,,,,,,,0,,,50,91
175900,set_tempo,460,1,0,,,,,,451128,,,,,,,
175920,note_on,120,0,1,,,,,,,,,0,,,63,91
175920,note_on,0,0,1,,,,,,,,,0,,,51,91
175920,note_on,120,0,2,,,,,,,,,0,,,50,0
176020,set_tempo,120,1,0,,,,,,449438,,,,,,,
176040,note_on,120,0,2,,,,,,,,,0,,,51,91
176040,note_on,120,0,1,,,,,,,,,0,,,51,0
176040,note_on,0,0,1,,,,,,,,,0,,,63,0
176120,set_tempo,100,1,0,,,,,,447761,,,,,,,
176160,note_on,120,0,1,,,,,,,,,0,,,57,91
176160,note_on,0,0,1,,,,,,,,,0,,,69,91
176160,note_on,120,0,2,,,,,,,,,0,,,51,0
176240,set_tempo,120,1,0,,,,,,446097,,,,,,,
176280,note_on,0,0,1,,,,,,,,,0,,,57,0
176280,note_on,120,0,1,,,,,,,,,0,,,69,0
176280,note_on,120,0,2,,,,,,,,,0,,,57,91
176340,set_tempo,100,1,0,,,,,,444444,,,,,,,
176400,note_on,120,0,1,,,,,,,,,0,,,58,91
176400,note_on,0,0,1,,,,,,,,,0,,,70,91
176400,note_on,120,0,2,,,,,,,,,0,,,57,0
176460,set_tempo,120,1,0,,,,,,442804,,,,,,,
176520,note_on,120,0,2,,,,,,,,,0,,,58,91
176520,note_on,120,0,1,,,,,,,,,0,,,70,0
176520,note_on,0,0,1,,,,,,,,,0,,,58,0
176560,set_tempo,100,1,0,,,,,,441176,,,,,,,
176640,note_on,0,0,1,,,,,,,,,0,,,74,91
176640,note_on,120,0,2,,,,,,,,,0,,,58,0
176640,note_on,120,0,1,,,,,,,,,0,,,62,91
176680,set_tempo,120,1,0,,,,,,439560,,,,,,,
176760,note_on,120,0,1,,,,,,,,,0,,,74,0
176760,note_on,0,0,1,,,,,,,,,0,,,62,0
176760,note_on,120,0,2,,,,,,,,,0,,,50,64
176760,note_on,0,0,2,,,,,,,,,0,,,62,77
176780,set_tempo,100,1,0,,,,,,437956,,,,,,,
176840,set_tempo,60,1,0,,,,,,436364,,,,,,,
176860,set_tempo,20,1,0,,,,,,436364,,,,,,,
176880,note_on,120,0,1,,,,,,,,,0,,,63,90
176880,note_on,120,0,2,,,,,,,,,0,,,62,0
176880,note_on,0,0,2,,,,,,,,,0,,,50,0
176880,note_on,0,0,1,,,,,,,,,0,,,75,90
176920,set_tempo,60,1,0,,,,,,434783,,,,,,,
176980,set_tempo,60,1,0,,,,,,433213,,,,,,,
177000,note_on,120,0,2,,,,,,,,,0,,,51,63
177000,note_on,120,0,1,,,,,,,,,0,,,75,0
177000,note_on,0,0,2,,,,,,,,,0,,,63,75
177000,note_on,0,0,1,,,,,,,,,0,,,63,0
177040,set_tempo,60,1,0,,,,,,431655,,,,,,,
177100,set_tempo,60,1,0,,,,,,430108,,,,,,,
177120,note_on,120,0,2,,,,,,,,,0,,,63,0
177120,note_on,0,0,1,,,,,,,,,0,,,81,90
177120,note_on,120,0,1,,,,,,,,,0,,,69,90
177120,note_on,0,0,2,,,,,,,,,0,,,51,0
177160,set_tempo,60,1,0,,,,,,428571,,,,,,,
177220,set_tempo,60,1,0,,,,,,427046,,,,,,,
177240,note_on,0,0,2,,,,,,,,,0,,,69,77
177240,note_on,0,0,1,,,,,,,,,0,,,69,0
177240,note_on,120,0,1,,,,,,,,,0,,,81,0
177240,note_on,120,0,2,,,,,,,,,0,,,57,77
177280,set_tempo,60,1,0,,,,,,425532,,,,,,,
177340,set_tempo,60,1,0,,,,,,424028,,,,,,,
177360,note_on,0,0,2,,,,,,,,,0,,,57,0
177360,note_on,120,0,1,,,,,,,,,0,,,82,91
177360,note_on,0,0,1,,,,,,,,,0,,,70,91
177360,note_on,120,0,2,,,,,,,,,0,,,69,0
177400,set_tempo,60,1,0,,,,,,422535,,,,,,,
177460,set_tempo,60,1,0,,,,,,421053,,,,,,,
177480,note_on,120,0,2,,,,,,,,,0,,,58,78
177480,note_on,120,0,1,,,,,,,,,0,,,70,0
177480,note_on,0,0,1,,,,,,,,,0,,,82,0
177480,note_on,0,0,2,,,,,,,,,0,,,70,78
177520,set_tempo,60,1,0,,,,,,419580,,,,,,,
177580,set_tempo,60,1,0,,,,,,418118,,,,,,,
177600,note_on,120,0,2,,,,,,,,,0,,,70,0
177600,note_on,0,0,1,,,,,,,,,0,,,74,92
177600,note_on,120,0,1,,,,,,,,,0,,,86,92
177600,note_on,0,0,2,,,,,,,,,0,,,58,0
177640,set_tempo,60,1,0,,,,,,416667,,,,,,,
177700,set_tempo,60,1,0,,,,,,415225,,,,,,,
177720,note_on,0,0,2,,,,,,,,,0,,,74,79
177720,note_on,0,0,1,,,,,,,,,0,,,86,0
177720,note_on,120,0,1,,,,,,,,,0,,,74,0
177720,note_on,120,0,2,,,,,,,,,0,,,62,79
177760,set_tempo,60,1,0,,,,,,413793,,,,,,,
177820,set_tempo,60,1,0,,,,,,412371,,,,,,,
177840,note_on,120,0,2,,,,,,,,,0,,,74,0
177840,note_on,0,0,2,,,,,,,,,0,,,62,0
177840,note_on,0,0,1,,,,,,,,,0,,,75,93
177840,note_on,120,0,1,,,,,,,,,0,,,87,93
177880,set_tempo,60,1,0,,,,,,410959,,,,,,,
177940,set_tempo,60,1,0,,,,,,409556,,,,,,,
177960,note_on,0,0,1,,,,,,,,,0,,,87,0
177960,note_on,120,0,2,,,,,,,,,0,,,63,80
177960,note_on,120,0,1,,,,,,,,,0,,,75,0
177960,note_on,0,0,2,,,,,,,,,0,,,75,80
178000,set_tempo,60,1,0,,,,,,408163,,,,,,,
178060,set_tempo,60,1,0,,,,,,406780,,,,,,,
178080,note_on,120,0,2,,,,,,,,,0,,,75,0
178080,note_on,0,0,2,,,,,,,,,0,,,63,0
178080,note_on,0,0,1,,,,,,,,,0,,,81,94
178080,note_on,120,0,1,,,,,,,,,0,,,93,94
178120,set_tempo,60,1,0,,,,,,405405,,,,,,,
178180,set_tempo,60,1,0,,,,,,404040,,,,,,,
178200,note_on,0,0,1,,,,,,,,,0,,,93,0
178200,note_on,0,0,2,,,,,,,,,0,,,81,81
178200,note_on,120,0,2,,,,,,,,,0,,,69,81
178200,note_on,120,0,1,,,,,,,,,0,,,81,0
178240,set_tempo,60,1,0,,,,,,402685,,,,,,,
178280,set_tempo,40,1,0,,,,,,401338,,,,,,,
178300,set_tempo,20,1,0,,,,,,360360,,,,,,,
178320,note_on,120,0,2,,,,,,,,,0,,,81,0
178320,note_on,0,0,2,,,,,,,,,0,,,69,0
178320,set_tempo,20,1,0,,,,,,459770,,,,,,,
178320,note_on,0,0,1,,,,,,,,,0,,,82,94
178320,note_on,120,0,1,,,,,,,,,0,,,94,94
178440,note_on,120,0,1,,,,,,,,,0,,,82,0
178440,note_on,120,0,2,,,,,,,,,0,,,70,81
178440,note_on,0,0,1,,,,,,,,,0,,,94,0
178440,note_on,0,0,2,,,,,,,,,0,,,82,81
178560,note_on,0,0,1,,,,,,,,,0,,,98,103
178560,note_on,120,0,1,,,,,,,,,0,,,86,103
178560,set_tempo,240,1,0,,,,,,433213,,,,,,,
178560,note_on,0,0,2,,,,,,,,,0,,,70,0
178560,note_on,120,0,2,,,,,,,,,0,,,82,0
178680,note_on,0,0,1,,,,,,,,,0,,,86,0
178680,note_on,120,0,1,,,,,,,,,0,,,98,0
178680,note_on,0,0,2,,,,,,,,,0,,,86,85
178680,note_on,120,0,2,,,,,,,,,0,,,74,85
178800,note_on,120,0,1,,,,,,,,,0,,,99,99
178800,note_on,0,0,2,,,,,,,,,0,,,74,0
178800,note_on,120,0,2,,,,,,,,,0,,,86,0
178800,note_on,0,0,1,,,,,,,,,0,,,87,99
178920,note_on,120,0,2,,,,,,,,,0,,,75,81
178920,note_on,120,0,1,,,,,,,,,0,,,87,0
178920,note_on,0,0,1,,,,,,,,,0,,,99,0
178920,note_on,0,0,2,,,,,,,,,0,,,87,81
179040,note_on,120,0,1,,,,,,,,,0,,,98,104
179040,set_tempo,480,1,0,,,,,,422535,,,,,,,
179040,note_on,0,0,2,,,,,,,,,0,,,75,0
179040,note_on,120,0,2,,,,,,,,,0,,,87,0
179040,note_on,0,0,1,,,,,,,,,0,,,86,104
179160,set_tempo,120,1,0,,,,,,451128,,,,,,,
179160,note_on,0,0,2,,,,,,,,,0,,,86,85
179160,note_on,0,0,1,,,,,,,,,0,,,98,0
179160,note_on,120,0,1,,,,,,,,,0,,,86,0
179160,note_on,120,0,2,,,,,,,,,0,,,74,85
179280,note_on,120,0,2,,,,,,,,,0,,,86,0
179280,note_on,120,0,1,,,,,,,,,0,,,99,96
179280,note_on,0,0,1,,,,,,,,,0,,,87,96
179280,note_on,0,0,2,,,,,,,,,0,,,74,0
179400,note_on,0,0,1,,,,,,,,,0,,,99,0
179400,note_on,0,0,2,,,,,,,,,0,,,87,81
179400,note_on,120,0,2,,,,,,,,,0,,,75,81
179400,note_on,120,0,1,,,,,,,,,0,,,87,0
179520,note_on,120,0,2,,,,,,,,,0,,,87,0
179520,note_on,0,0,2,,,,,,,,,0,,,75,0
179520,note_on,0,0,1,,,,,,,,,0,,,86,97
179520,note_on,120,0,1,,,,,,,,,0,,,98,97
179520,set_tempo,360,1,0,,,,,,444444,,,,,,,
179640,note_on,120,0,1,,,,,,,,,0,,,86,0
179640,note_on,120,0,2,,,,,,,,,0,,,74,81
179640,note_on,0,0,1,,,,,,,,,0,,,98,0
179640,note_on,0,0,2,,,,,,,,,0,,,86,81
179760,note_on,0,0,1,,,,,,,,,0,,,99,94
179760,note_on,0,0,2,,,,,,,,,0,,,74,0
179760,control_change,120,0,1,,,,,,,,,0,64,127,,
179760,note_on,120,0,2,,,,,,,,,0,,,86,0
179760,control_change,0,0,2,,,,,,,,,0,64,127,,
179760,note_on,0,0,1,,,,,,,,,0,,,87,94
179880,note_on,0,0,1,,,,,,,,,0,,,99,0
179880,note_on,120,0,2,,,,,,,,,0,,,73,81
179880,note_on,0,0,2,,,,,,,,,0,,,85,81
179880,note_on,120,0,1,,,,,,,,,0,,,87,0
180000,set_tempo,480,1,0,,,,,,441176,,,,,,,
180000,note_on,120,0,1,,,,,,,,,0,,,99,94
180000,note_on,120,0,2,,,,,,,,,0,,,85,0
180000,note_on,0,0,2,,,,,,,,,0,,,73,0
180000,note_on,0,0,1,,,,,,,,,0,,,87,94
180120,note_on,120,0,1,,,,,,,,,0,,,87,0
180120,note_on,0,0,1,,,,,,,,,0,,,99,0
180120,note_on,120,0,2,,,,,,,,,0,,,70,81
180120,note_on,0,0,2,,,,,,,,,0,,,82,81
180240,note_on,120,0,2,,,,,,,,,0,,,82,0
180240,note_on,120,0,1,,,,,,,,,0,,,99,96
180240,note_on,0,0,1,,,,,,,,,0,,,87,96
180240,note_on,0,0,2,,,,,,,,,0,,,70,0
180360,note_on,120,0,1,,,,,,,,,0,,,87,0
180360,note_on,120,0,2,,,,,,,,,0,,,67,82
180360,note_on,0,0,1,,,,,,,,,0,,,99,0
180360,note_on,0,0,2,,,,,,,,,0,,,79,82
180480,note_on,120,0,1,,,,,,,,,0,,,99,97
180480,note_on,120,0,2,,,,,,,,,0,,,79,0
180480,note_on,0,0,1,,,,,,,,,0,,,87,97
180480,note_on,0,0,2,,,,,,,,,0,,,67,0
180600,note_on,120,0,2,,,,,,,,,0,,,63,82
180600,note_on,120,0,1,,,,,,,,,0,,,87,0
180600,note_on,0,0,1,,,,,,,,,0,,,99,0
180600,note_on,0,0,2,,,,,,,,,0,,,75,82
180720,note_on,120,0,1,,,,,,,,,0,,,99,99
180720,note_on,120,0,2,,,,,,,,,0,,,75,0
180720,note_on,0,0,1,,,,,,,,,0,,,87,99
180720,note_on,0,0,2,,,,,,,,,0,,,63,0
180840,note_on,120,0,1,,,,,,,,,0,,,87,0
180840,note_on,0,0,2,,,,,,,,,0,,,73,84
180840,note_on,0,0,1,,,,,,,,,0,,,99,0
180840,note_on,120,0,2,,,,,,,,,0,,,61,84
180960,note_on,120,0,2,,,,,,,,,0,,,73,0
180960,note_on,120,0,1,,,,,,,,,0,,,99,99
180960,note_on,0,0,2,,,,,,,,,0,,,61,0
180960,note_on,0,0,1,,,,,,,,,0,,,87,99
181080,note_on,0,0,2,,,,,,,,,0,,,70,85
181080,note_on,120,0,1,,,,,,,,,0,,,87,0
181080,note_on,0,0,1,,,,,,,,,0,,,99,0
181080,note_on,120,0,2,,,,,,,,,0,,,58,85
181200,note_on,0,0,1,,,,,,,,,0,,,87,100
181200,note_on,0,0,2,,,,,,,,,0,,,58,0
181200,set_tempo,1200,1,0,,,,,,439560,,,,,,,
181200,note_on,120,0,2,,,,,,,,,0,,,70,0
181200,note_on,120,0,1,,,,,,,,,0,,,99,100
181280,set_tempo,80,1,0,,,,,,441176,,,,,,,
181320,note_on,120,0,2,,,,,,,,,0,,,67,86
181320,note_on,0,0,2,,,,,,,,,0,,,55,86
181320,note_on,0,0,1,,,,,,,,,0,,,99,0
181320,note_on,120,0,1,,,,,,,,,0,,,87,0
181360,set_tempo,80,1,0,,,,,,442804,,,,,,,
181420,set_tempo,60,1,0,,,,,,444444,,,,,,,
181440,note_on,0,0,1,,,,,,,,,0,,,87,101
181440,note_on,0,0,2,,,,,,,,,0,,,67,0
181440,note_on,120,0,2,,,,,,,,,0,,,55,0
181440,note_on,120,0,1,,,,,,,,,0,,,99,101
181500,set_tempo,80,1,0,,,,,,446097,,,,,,,
181560,note_on,120,0,1,,,,,,,,,0,,,87,0
181560,note_on,0,0,1,,,,,,,,,0,,,99,0
181560,note_on,0,0,2,,,,,,,,,0,,,51,88
181560,note_on,120,0,2,,,,,,,,,0,,,63,88
181580,set_tempo,80,1,0,,,,,,447761,,,,,,,
181640,set_tempo,60,1,0,,,,,,449438,,,,,,,
181680,note_on,0,0,2,,,,,,,,,0,,,63,0
181680,note_on,120,0,2,,,,,,,,,0,,,51,0
181680,note_on,120,0,1,,,,,,,,,0,,,99,102
181680,note_on,0,0,1,,,,,,,,,0,,,87,102
181720,set_tempo,80,1,0,,,,,,451128,,,,,,,
181780,set_tempo,60,1,0,,,,,,452830,,,,,,,
181800,note_on,0,0,1,,,,,,,,,0,,,99,0
181800,note_on,0,0,2,,,,,,,,,0,,,49,88
181800,note_on,120,0,1,,,,,,,,,0,,,87,0
181800,note_on,120,0,2,,,,,,,,,0,,,61,88
181860,set_tempo,80,1,0,,,,,,454545,,,,,,,
181920,note_on,0,0,1,,,,,,,,,0,,,87,103
181920,note_on,0,0,2,,,,,,,,,0,,,61,0
181920,note_on,120,0,1,,,,,,,,,0,,,99,103
181920,note_on,120,0,2,,,,,,,,,0,,,49,0
181940,set_tempo,80,1,0,,,,,,456274,,,,,,,
182000,set_tempo,60,1,0,,,,,,458015,,,,,,,
182040,note_on,120,0,1,,,,,,,,,0,,,87,0
182040,note_on,0,0,1,,,,,,,,,0,,,99,0
182040,note_on,0,0,2,,,,,,,,,0,,,46,89
182040,note_on,120,0,2,,,,,,,,,0,,,58,89
182080,set_tempo,80,1,0,,,,,,459770,,,,,,,
182140,set_tempo,60,1,0,,,,,,461538,,,,,,,
182160,note_on,0,0,1,,,,,,,,,0,,,87,103
182160,note_on,0,0,2,,,,,,,,,0,,,58,0
182160,note_on,120,0,2,,,,,,,,,0,,,46,0
182160,note_on,120,0,1,,,,,,,,,0,,,99,103
182220,set_tempo,80,1,0,,,,,,463320,,,,,,,
182280,note_on,0,0,2,,,,,,,,,0,,,43,90
182280,note_on,0,0,1,,,,,,,,,0,,,99,0
182280,note_on,120,0,1,,,,,,,,,0,,,87,0
182280,note_on,120,0,2,,,,,,,,,0,,,55,90
182300,set_tempo,80,1,0,,,,,,465116,,,,,,,
182360,set_tempo,60,1,0,,,,,,466926,,,,,,,
182400,note_on,120,0,2,,,,,,,,,0,,,43,0
182400,note_on,120,0,1,,,,,,,,,0,,,99,104
182400,note_on,0,0,2,,,,,,,,,0,,,55,0
182400,note_on,0,0,1,,,,,,,,,0,,,87,104
182440,set_tempo,80,1,0,,,,,,468750,,,,,,,
182500,set_tempo,60,1,0,,,,,,470588,,,,,,,
182520,set_tempo,20,1,0,,,,,,538117,,,,,,,
182520,note_on,120,0,2,,,,,,,,,0,,,39,91
182520,note_on,120,0,1,,,,,,,,,0,,,87,0
182520,note_on,0,0,1,,,,,,,,,0,,,99,0
182520,note_on,0,0,2,,,,,,,,,0,,,51,91
182640,note_on,0,0,2,,,,,,,,,0,,,39,0
182640,note_on,120,0,1,,,,,,,,,0,,,87,91
182640,set_tempo,120,1,0,,,,,,500000,,,,,,,
182640,note_on,120,0,2,,,,,,,,,0,,,51,0
182640,note_on,0,0,1,,,,,,,,,0,,,99,91
182760,note_on,0,0,1,,,,,,,,,0,,,87,86
182760,note_on,0,0,1,,,,,,,,,0,,,99,86
182760,note_on,120,0,1,,,,,,,,,0,,,99,0
182760,note_on,0,0,1,,,,,,,,,0,,,87,0
182840,set_tempo,200,1,0,,,,,,491803,,,,,,,
182860,set_tempo,20,1,0,,,,,,495868,,,,,,,
182880,note_on,0,0,1,,,,,,,,,0,,,87,0
182880,set_tempo,20,1,0,,,,,,500000,,,,,,,
182880,note_on,0,0,1,,,,,,,,,0,,,87,90
182880,note_on,0,0,1,,,,,,,,,0,,,99,90
182880,note_on,120,0,1,,,,,,,,,0,,,99,0
182900,set_tempo,20,1,0,,,,,,502092,,,,,,,
182920,set_tempo,20,1,0,,,,,,497925,,,,,,,
182980,set_tempo,60,1,0,,,,,,495868,,,,,,,
183000,note_on,0,0,1,,,,,,,,,0,,,99,85
183000,note_on,0,0,1,,,,,,,,,0,,,87,85
183000,note_on,0,0,1,,,,,,,,,0,,,87,0
183000,note_on,120,0,1,,,,,,,,,0,,,99,0
183040,set_tempo,60,1,0,,,,,,493827,,,,,,,
183080,set_tempo,40,1,0,,,,,,491803,,,,,,,
183120,note_on,0,0,1,,,,,,,,,0,,,99,88
183120,note_on,120,0,1,,,,,,,,,0,,,99,0
183120,note_on,0,0,1,,,,,,,,,0,,,87,88
183120,note_on,0,0,1,,,,,,,,,0,,,87,0
183140,set_tempo,60,1,0,,,,,,489796,,,,,,,
183200,set_tempo,60,1,0,,,,,,487805,,,,,,,
183240,note_on,120,0,1,,,,,,,,,0,,,99,0
183240,note_on,0,0,1,,,,,,,,,0,,,87,0
183240,note_on,0,0,1,,,,,,,,,0,,,99,85
183240,note_on,0,0,1,,,,,,,,,0,,,87,85
183240,set_tempo,40,1,0,,,,,,485830,,,,,,,
183300,set_tempo,60,1,0,,,,,,483871,,,,,,,
183360,note_on,0,0,1,,,,,,,,,0,,,87,0
183360,note_on,0,0,1,,,,,,,,,0,,,87,86
183360,note_on,0,0,1,,,,,,,,,0,,,99,86
183360,set_tempo,60,1,0,,,,,,481928,,,,,,,
183360,note_on,120,0,1,,,,,,,,,0,,,99,0
183400,set_tempo,40,1,0,,,,,,480000,,,,,,,
183460,set_tempo,60,1,0,,,,,,478088,,,,,,,
183480,note_on,0,0,1,,,,,,,,,0,,,87,0
183480,note_on,0,0,1,,,,,,,,,0,,,87,85
183480,note_on,0,0,1,,,,,,,,,0,,,99,85
183480,note_on,120,0,1,,,,,,,,,0,,,99,0
183520,set_tempo,60,1,0,,,,,,476190,,,,,,,
183560,set_tempo,40,1,0,,,,,,474308,,,,,,,
183600,note_on,120,0,1,,,,,,,,,0,,,99,0
183600,set_tempo,40,1,0,,,,,,433213,,,,,,,
183600,note_on,0,0,1,,,,,,,,,0,,,87,84
183600,note_on,0,0,1,,,,,,,,,0,,,99,84
183600,note_on,0,0,1,,,,,,,,,0,,,87,0
183720,note_on,120,0,1,,,,,,,,,0,,,99,0
183720,set_tempo,120,1,0,,,,,,434783,,,,,,,
183720,note_on,0,0,1,,,,,,,,,0,,,87,0
183720,note_on,0,0,1,,,,,,,,,0,,,99,82
183720,note_on,0,0,1,,,,,,,,,0,,,87,82
183840,note_on,120,0,1,,,,,,,,,0,,,99,0
183840,set_tempo,120,1,0,,,,,,436364,,,,,,,
183840,note_on,0,0,1,,,,,,,,,0,,,99,82
183840,note_on,0,0,1,,,,,,,,,0,,,87,82
183840,note_on,0,0,1,,,,,,,,,0,,,87,0
183960,note_on,120,0,1,,,,,,,,,0,,,99,0
183960,note_on,0,0,1,,,,,,,,,0,,,87,81
183960,note_on,0,0,1,,,,,,,,,0,,,99,81
183960,set_tempo,120,1,0,,,,,,437956,,,,,,,
183960,note_on,0,0,1,,,,,,,,,0,,,87,0
184060,set_tempo,100,1,0,,,,,,437956,,,,,,,
184080,note_on,0,0,1,,,,,,,,,0,,,87,0
184080,note_on,0,0,1,,,,,,,,,0,,,87,80
184080,note_on,0,0,1,,,,,,,,,0,,,99,80
184080,note_on,120,0,1,,,,,,,,,0,,,99,0
184200,note_on,0,0,1,,,,,,,,,0,,,87,0
184200,note_on,0,0,1,,,,,,,,,0,,,87,78
184200,note_on,120,0,1,,,,,,,,,0,,,99,0
184200,note_on,0,0,1,,,,,,,,,0,,,99,78
184220,set_tempo,160,1,0,,,,,,436364,,,,,,,
184320,note_on,120,0,1,,,,,,,,,0,,,99,0
184320,note_on,0,0,1,,,,,,,,,0,,,99,79
184320,note_on,0,0,1,,,,,,,,,0,,,87,79
184320,note_on,0,0,1,,,,,,,,,0,,,87,0
184376,control_change,56,0,1,,,,,,,,,0,64,0,,
184380,set_tempo,160,1,0,,,,,,434783,,,,,,,
184405,control_change,1765,0,2,,,,,,,,,0,64,0,,
184440,note_on,64,0,1,,,,,,,,,0,,,99,0
184440,note_on,0,0,1,,,,,,,,,0,,,99,77
184440,note_on,0,0,1,,,,,,,,,0,,,87,77
184440,note_on,0,0,1,,,,,,,,,0,,,87,0
184540,set_tempo,160,1,0,,,,,,433213,,,,,,,
184560,note_on,0,0,1,,,,,,,,,0,,,87,85
184560,note_on,120,0,1,,,,,,,,,0,,,99,0
184560,note_on,0,0,1,,,,,,,,,0,,,87,0
184560,note_on,0,0,2,,,,,,,,,0,,,63,81
184560,note_on,0,0,1,,,,,,,,,0,,,99,85
184560,control_change,155,0,2,,,,,,,,,0,64,127,,
184560,set_tempo,20,1,0,,,,,,517241,,,,,,,
184680,note_on,0,0,1,,,,,,,,,0,,,99,78
184680,note_on,0,0,1,,,,,,,,,0,,,87,78
184680,note_on,120,0,1,,,,,,,,,0,,,99,0
184680,note_on,0,0,1,,,,,,,,,0,,,87,0
184780,set_tempo,220,1,0,,,,,,480000,,,,,,,
184800,note_on,240,0,2,,,,,,,,,0,,,63,0
184800,note_on,0,0,1,,,,,,,,,0,,,87,0
184800,note_on,0,0,1,,,,,,,,,0,,,87,78
184800,note_on,0,0,2,,,,,,,,,0,,,75,89
184800,note_on,0,0,1,,,,,,,,,0,,,99,78
184800,note_on,120,0,1,,,,,,,,,0,,,99,0
184800,set_tempo,20,1,0,,,,,,473410,,,,,,,
184920,note_on,120,0,1,,,,,,,,,0,,,99,0
184920,note_on,0,0,1,,,,,,,,,0,,,87,0
184920,note_on,0,0,1,,,,,,,,,0,,,87,78
184920,note_on,0,0,1,,,,,,,,,0,,,99,78
185040,note_on,0,0,1,,,,,,,,,0,,,99,74
185040,note_on,240,0,2,,,,,,,,,0,,,75,0
185040,note_on,120,0,1,,,,,,,,,0,,,99,0
185040,note_on,0,0,1,,,,,,,,,0,,,87,74
185040,note_on,0,0,1,,,,,,,,,0,,,87,0
185111,control_change,71,0,2,,,,,,,,,0,64,0,,
185160,note_on,0,0,1,,,,,,,,,0,,,87,0
185160,note_on,0,0,1,,,,,,,,,0,,,99,74
185160,note_on,0,0,1,,,,,,,,,0,,,87,74
185160,note_on,120,0,1,,,,,,,,,0,,,99,0
185260,set_tempo,460,1,0,,,,,,467800,,,,,,,
185280,set_tempo,20,1,0,,,,,,455201,,,,,,,
185280,note_on,120,0,1,,,,,,,,,0,,,99,0
185280,note_on,0,0,1,,,,,,,,,0,,,85,70
185280,note_on,0,0,1,,,,,,,,,0,,,97,70
185280,note_on,0,0,1,,,,,,,,,0,,,87,0
185400,note_on,0,0,1,,,,,,,,,0,,,85,0
185400,note_on,0,0,1,,,,,,,,,0,,,85,69
185400,note_on,0,0,1,,,,,,,,,0,,,97,69
185400,note_on,120,0,1,,,,,,,,,0,,,97,0
185480,set_tempo,200,1,0,,,,,,448330,,,,,,,
185520,note_on,0,0,2,,,,,,,,,0,,,44,72
185520,note_on,0,0,1,,,,,,,,,0,,,95,74
185520,note_on,0,0,1,,,,,,,,,0,,,85,0
185520,note_on,0,0,1,,,,,,,,,0,,,83,74
185520,note_on,120,0,1,,,,,,,,,0,,,97,0
185520,note_on,409,0,2,,,,,,,,,0,,,32,64
185520,set_tempo,40,1,0,,,,,,448330,,,,,,,
185640,note_on,0,0,1,,,,,,,,,0,,,95,0
185640,note_on,0,0,1,,,,,,,,,0,,,83,74
185640,note_on,120,0,1,,,,,,,,,0,,,83,0
185640,note_on,0,0,1,,,,,,,,,0,,,95,74
185760,note_on,0,0,1,,,,,,,,,0,,,95,74
185760,note_on,0,0,1,,,,,,,,,0,,,95,0
185760,note_on,0,0,1,,,,,,,,,0,,,83,74
185760,note_on,0,0,2,,,,,,,,,0,,,63,66
185760,note_on,0,0,2,,,,,,,,,0,,,32,0
185760,note_on,0,0,2,,,,,,,,,0,,,51,59
185760,note_on,240,0,2,,,,,,,,,0,,,44,0
185760,note_on,0,0,2,,,,,,,,,0,,,59,59
185760,note_on,120,0,1,,,,,,,,,0,,,83,0
185880,note_on,0,0,1,,,,,,,,,0,,,95,74
185880,note_on,0,0,1,,,,,,,,,0,,,95,0
185880,note_on,120,0,1,,,,,,,,,0,,,83,0
185880,note_on,120,0,2,,,,,,,,,0,,,59,0
185880,note_on,0,0,2,,,,,,,,,0,,,51,0
185880,note_on,0,0,2,,,,,,,,,0,,,51,59
185880,note_on,0,0,2,,,,,,,,,0,,,59,59
185880,note_on,0,0,2,,,,,,,,,0,,,63,0
185880,note_on,0,0,2,,,,,,,,,0,,,63,66
185880,note_on,0,0,1,,,,,,,,,0,,,83,74
186000,note_on,0,0,2,,,,,,,,,0,,,51,0
186000,note_on,120,0,2,,,,,,,,,0,,,63,0
186000,note_on,0,0,2,,,,,,,,,0,,,63,66
186000,note_on,0,0,2,,,,,,,,,0,,,59,59
186000,note_on,0,0,2,,,,,,,,,0,,,59,0
186000,set_tempo,480,1,0,,,,,,450011,,,,,,,
186000,note_on,0,0,1,,,,,,,,,0,,,95,0
186000,note_on,0,0,1,,,,,,,,,0,,,94,69
186000,note_on,0,0,1,,,,,,,,,0,,,82,69
186000,note_on,120,0,1,,,,,,,,,0,,,83,0
186000,note_on,0,0,2,,,,,,,,,0,,,56,59
186120,note_on,0,0,1,,,,,,,,,0,,,82,69
186120,note_on,120,0,1,,,,,,,,,0,,,82,0
186120,note_on,0,0,1,,,,,,,,,0,,,94,0
186120,note_on,0,0,1,,,,,,,,,0,,,94,69
186240,note_on,0,0,1,,,,,,,,,0,,,80,70
186240,note_on,0,0,1,,,,,,,,,0,,,92,70
186240,note_on,240,0,2,,,,,,,,,0,,,63,0
186240,note_on,0,0,2,,,,,,,,,0,,,56,0
186240,set_tempo,240,1,0,,,,,,439979,,,,,,,
186240,note_on,0,0,2,,,,,,,,,0,,,59,0
186240,note_on,0,0,2,,,,,,,,,0,,,47,72
186240,note_on,0,0,2,,,,,,,,,0,,,35,72
186240,note_on,120,0,1,,,,,,,,,0,,,82,0
186240,note_on,0,0,1,,,,,,,,,0,,,94,0
186360,note_on,120,0,1,,,,,,,,,0,,,80,0
186360,note_on,0,0,1,,,,,,,,,0,,,80,70
186360,note_on,0,0,1,,,,,,,,,0,,,92,70
186360,note_on,0,0,1,,,,,,,,,0,,,92,0
186480,note_on,240,0,2,,,,,,,,,0,,,47,0
186480,note_on,120,0,1,,,,,,,,,0,,,80,0
186480,note_on,0,0,2,,,,,,,,,0,,,51,59
186480,note_on,0,0,2,,,,,,,,,0,,,35,0
186480,note_on,0,0,2,,,,,,,,,0,,,59,59
186480,note_on,0,0,2,,,,,,,,,0,,,63,66
186480,note_on,0,0,1,,,,,,,,,0,,,92,0
186480,note_on,0,0,1,,,,,,,,,0,,,91,69
186480,note_on,0,0,1,,,,,,,,,0,,,79,69
186600,note_on,0,0,2,,,,,,,,,0,,,51,59
186600,note_on,0,0,2,,,,,,,,,0,,,63,66
186600,note_on,0,0,2,,,,,,,,,0,,,51,0
186600,note_on,0,0,2,,,,,,,,,0,,,59,59
186600,note_on,0,0,1,,,,,,,,,0,,,91,0
186600,note_on,0,0,1,,,,,,,,,0,,,91,69
186600,note_on,120,0,2,,,,,,,,,0,,,63,0
186600,note_on,0,0,2,,,,,,,,,0,,,59,0
186600,note_on,120,0,1,,,,,,,,,0,,,79,0
186600,note_on,0,0,1,,,,,,,,,0,,,79,69
186720,note_on,0,0,2,,,,,,,,,0,,,63,66
186720,note_on,0,0,2,,,,,,,,,0,,,59,0
186720,note_on,0,0,1,,,,,,,,,0,,,92,69
186720,note_on,0,0,2,,,,,,,,,0,,,56,59
186720,set_tempo,480,1,0,,,,,,433526,,,,,,,
186720,note_on,120,0,1,,,,,,,,,0,,,79,0
186720,note_on,0,0,1,,,,,,,,,0,,,91,0
186720,note_on,120,0,2,,,,,,,,,0,,,51,0
186720,note_on,0,0,1,,,,,,,,,0,,,80,69
186720,note_on,0,0,2,,,,,,,,,0,,,63,0
186720,note_on,0,0,2,,,,,,,,,0,,,59,59
186840,note_on,0,0,1,,,,,,,,,0,,,92,69
186840,note_on,0,0,1,,,,,,,,,0,,,92,0
186840,note_on,120,0,1,,,,,,,,,0,,,80,0
186840,note_on,0,0,1,,,,,,,,,0,,,80,69
186960,note_on,240,0,2,,,,,,,,,0,,,63,0
186960,note_on,120,0,1,,,,,,,,,0,,,80,0
186960,note_on,0,0,2,,,,,,,,,0,,,51,70
186960,note_on,0,0,2,,,,,,,,,0,,,56,0
186960,note_on,0,0,2,,,,,,,,,0,,,59,0
186960,note_on,0,0,2,,,,,,,,,0,,,39,62
186960,note_on,0,0,1,,,,,,,,,0,,,82,74
186960,note_on,0,0,1,,,,,,,,,0,,,94,74
186960,set_tempo,240,1,0,,,,,,441631,,,,,,,
186960,note_on,0,0,1,,,,,,,,,0,,,92,0
187080,note_on,0,0,1,,,,,,,,,0,,,94,74
187080,note_on,0,0,1,,,,,,,,,0,,,94,0
187080,note_on,120,0,1,,,,,,,,,0,,,82,0
187080,note_on,0,0,1,,,,,,,,,0,,,82,74
187200,note_on,0,0,1,,,,,,,,,0,,,75,69
187200,note_on,0,0,2,,,,,,,,,0,,,63,59
187200,note_on,240,0,2,,,,,,,,,0,,,51,0
187200,note_on,120,0,1,,,,,,,,,0,,,82,0
187200,note_on,0,0,2,,,,,,,,,0,,,55,59
187200,note_on,0,0,2,,,,,,,,,0,,,39,0
187200,note_on,0,0,2,,,,,,,,,0,,,67,66
187200,note_on,0,0,1,,,,,,,,,0,,,87,69
187200,note_on,0,0,1,,,,,,,,,0,,,94,0
187320,note_on,120,0,1,,,,,,,,,0,,,75,0
187320,note_on,0,0,2,,,,,,,,,0,,,55,59
187320,note_on,0,0,1,,,,,,,,,0,,,87,0
187320,note_on,0,0,2,,,,,,,,,0,,,55,0
187320,note_on,0,0,1,,,,,,,,,0,,,87,69
187320,note_on,0,0,2,,,,,,,,,0,,,63,0
187320,note_on,120,0,2,,,,,,,,,0,,,67,0
187320,note_on,0,0,2,,,,,,,,,0,,,67,66
187320,note_on,0,0,2,,,,,,,,,0,,,63,59
187320,note_on,0,0,1,,,,,,,,,0,,,75,69
187440,note_on,120,0,2,,,,,,,,,0,,,67,0
187440,note_on,0,0,1,,,,,,,,,0,,,75,69
187440,note_on,0,0,1,,,,,,,,,0,,,87,0
187440,note_on,0,0,1,,,,,,,,,0,,,87,69
187440,set_tempo,480,1,0,,,,,,430385,,,,,,,
187440,note_on,0,0,2,,,,,,,,,0,,,67,66
187440,note_on,0,0,2,,,,,,,,,0,,,63,59
187440,note_on,0,0,2,,,,,,,,,0,,,63,0
187440,note_on,0,0,2,,,,,,,,,0,,,58,59
187440,note_on,0,0,2,,,,,,,,,0,,,55,0
187440,note_on,120,0,1,,,,,,,,,0,,,75,0
187560,note_on,120,0,1,,,,,,,,,0,,,75,0
187560,note_on,0,0,1,,,,,,,,,0,,,87,69
187560,note_on,0,0,1,,,,,,,,,0,,,87,0
187560,note_on,0,0,1,,,,,,,,,0,,,75,69
187680,set_tempo,240,1,0,,,,,,431965,,,,,,,
187680,note_on,240,0,2,,,,,,,,,0,,,67,0
187680,note_on,0,0,2,,,,,,,,,0,,,58,0
187680,note_on,0,0,2,,,,,,,,,0,,,63,0
187680,note_on,0,0,1,,,,,,,,,0,,,88,72
187680,note_on,0,0,1,,,,,,,,,0,,,87,0
187680,note_on,0,0,1,,,,,,,,,0,,,76,72
187680,note_on,0,0,2,,,,,,,,,0,,,55,67
187680,note_on,120,0,1,,,,,,,,,0,,,75,0
187680,note_on,0,0,2,,,,,,,,,0,,,43,67
187800,note_on,120,0,1,,,,,,,,,0,,,76,0
187800,note_on,0,0,1,,,,,,,,,0,,,76,72
187800,note_on,0,0,1,,,,,,,,,0,,,88,72
187800,note_on,0,0,1,,,,,,,,,0,,,88,0
187920,note_on,0,0,2,,,,,,,,,0,,,61,53
187920,note_on,0,0,1,,,,,,,,,0,,,88,0
187920,note_on,0,0,1,,,,,,,,,0,,,87,72
187920,note_on,0,0,1,,,,,,,,,0,,,75,72
187920,note_on,120,0,1,,,,,,,,,0,,,76,0
187920,note_on,0,0,2,,,,,,,,,0,,,43,0
187920,note_on,0,0,2,,,,,,,,,0,,,63,53
187920,note_on,0,0,2,,,,,,,,,0,,,70,60
187920,note_on,240,0,2,,,,,,,,,0,,,55,0
188040,note_on,120,0,2,,,,,,,,,0,,,70,0
188040,note_on,0,0,2,,,,,,,,,0,,,63,53
188040,note_on,0,0,2,,,,,,,,,0,,,63,0
188040,note_on,0,0,2,,,,,,,,,0,,,61,53
188040,note_on,0,0,1,,,,,,,,,0,,,87,0
188040,note_on,0,0,1,,,,,,,,,0,,,87,69
188040,note_on,120,0,1,,,,,,,,,0,,,75,0
188040,note_on,0,0,1,,,,,,,,,0,,,75,69
188040,note_on,0,0,2,,,,,,,,,0,,,61,0
188040,note_on,0,0,2,,,,,,,,,0,,,70,60
188160,note_on,120,0,2,,,,,,,,,0,,,70,0
188160,note_on,120,0,1,,,,,,,,,0,,,75,0
188160,note_on,0,0,2,,,,,,,,,0,,,61,0
188160,note_on,0,0,2,,,,,,,,,0,,,61,53
188160,note_on,0,0,2,,,,,,,,,0,,,63,0
188160,note_on,0,0,2,,,,,,,,,0,,,63,53
188160,note_on,0,0,2,,,,,,,,,0,,,70,60
188160,note_on,0,0,1,,,,,,,,,0,,,87,0
188160,note_on,0,0,1,,,,,,,,,0,,,85,69
188160,note_on,0,0,1,,,,,,,,,0,,,73,69
188160,set_tempo,480,1,0,,,,,,428816,,,,,,,
188280,note_on,0,0,1,,,,,,,,,0,,,85,0
188280,note_on,0,0,1,,,,,,,,,0,,,73,69
188280,note_on,120,0,1,,,,,,,,,0,,,73,0
188280,note_on,0,0,1,,,,,,,,,0,,,85,69
188400,note_on,0,0,2,,,,,,,,,0,,,56,69
188400,note_on,0,0,1,,,,,,,,,0,,,85,0
188400,note_on,0,0,1,,,,,,,,,0,,,83,70
188400,note_on,0,0,1,,,,,,,,,0,,,71,70
188400,set_tempo,240,1,0,,,,,,433526,,,,,,,
188400,note_on,0,0,2,,,,,,,,,0,,,63,0
188400,note_on,0,0,2,,,,,,,,,0,,,61,0
188400,note_on,120,0,1,,,,,,,,,0,,,73,0
188400,note_on,0,0,2,,,,,,,,,0,,,44,61
188400,note_on,240,0,2,,,,,,,,,0,,,70,0
188520,note_on,0,0,1,,,,,,,,,0,,,71,70
188520,note_on,120,0,1,,,,,,,,,0,,,71,0
188520,note_on,0,0,1,,,,,,,,,0,,,83,0
188520,note_on,0,0,1,,,,,,,,,0,,,83,70
188640,note_on,0,0,1,,,,,,,,,0,,,83,70
188640,note_on,120,0,1,,,,,,,,,0,,,71,0
188640,note_on,0,0,1,,,,,,,,,0,,,83,0
188640,note_on,240,0,2,,,,,,,,,0,,,44,0
188640,note_on,0,0,2,,,,,,,,,0,,,59,55
188640,note_on,0,0,2,,,,,,,,,0,,,56,0
188640,note_on,0,0,1,,,,,,,,,0,,,71,70
188640,note_on,0,0,2,,,,,,,,,0,,,68,61
188640,note_on,0,0,2,,,,,,,,,0,,,63,55
188760,note_on,0,0,1,,,,,,,,,0,,,83,69
188760,note_on,0,0,1,,,,,,,,,0,,,83,0
188760,note_on,120,0,1,,,,,,,,,0,,,71,0
188760,note_on,0,0,2,,,,,,,,,0,,,68,61
188760,note_on,0,0,2,,,,,,,,,0,,,59,55
188760,note_on,0,0,2,,,,,,,,,0,,,63,0
188760,note_on,0,0,1,,,,,,,,,0,,,71,69
188760,note_on,0,0,2,,,,,,,,,0,,,63,55
188760,note_on,0,0,2,,,,,,,,,0,,,59,0
188760,note_on,120,0,2,,,,,,,,,0,,,68,0
188880,note_on,0,0,1,,,,,,,,,0,,,70,70
188880,note_on,0,0,1,,,,,,,,,0,,,82,70
188880,note_on,0,0,1,,,,,,,,,0,,,83,0
188880,note_on,0,0,2,,,,,,,,,0,,,63,61
188880,note_on,120,0,2,,,,,,,,,0,,,68,0
188880,note_on,0,0,2,,,,,,,,,0,,,59,0
188880,note_on,0,0,2,,,,,,,,,0,,,59,55
188880,note_on,0,0,2,,,,,,,,,0,,,63,0
188880,note_on,120,0,1,,,,,,,,,0,,,71,0
188880,set_tempo,480,1,0,,,,,,425743,,,,,,,
189000,note_on,120,0,1,,,,,,,,,0,,,70,0
189000,note_on,0,0,1,,,,,,,,,0,,,82,70
189000,note_on,0,0,1,,,,,,,,,0,,,82,0
189000,note_on,0,0,1,,,,,,,,,0,,,70,70
189120,note_on,0,0,1,,,,,,,,,0,,,68,73
189120,note_on,120,0,1,,,,,,,,,0,,,70,0
189120,note_on,240,0,2,,,,,,,,,0,,,63,0
189120,note_on,0,0,1,,,,,,,,,0,,,80,73
189120,note_on,0,0,2,,,,,,,,,0,,,59,0
189120,note_on,0,0,2,,,,,,,,,0,,,40,66
189120,set_tempo,240,1,0,,,,,,430385,,,,,,,
189120,note_on,0,0,1,,,,,,,,,0,,,82,0
189240,note_on,0,0,1,,,,,,,,,0,,,80,73
189240,note_on,0,0,1,,,,,,,,,0,,,80,0
189240,note_on,0,0,1,,,,,,,,,0,,,68,73
189240,note_on,120,0,1,,,,,,,,,0,,,68,0
189360,note_on,0,0,1,,,,,,,,,0,,,67,69
189360,note_on,0,0,1,,,,,,,,,0,,,79,69
189360,note_on,240,0,2,,,,,,,,,0,,,40,0
189360,note_on,120,0,1,,,,,,,,,0,,,68,0
189360,set_tempo,240,1,0,,,,,,425743,,,,,,,
189360,note_on,0,0,2,,,,,,,,,0,,,62,63
189360,note_on,0,0,2,,,,,,,,,0,,,58,57
189360,note_on,0,0,1,,,,,,,,,0,,,80,0
189480,note_on,120,0,1,,,,,,,,,0,,,67,0
189480,note_on,0,0,2,,,,,,,,,0,,,58,57
189480,note_on,0,0,2,,,,,,,,,0,,,62,0
189480,note_on,0,0,2,,,,,,,,,0,,,62,63
189480,note_on,120,0,2,,,,,,,,,0,,,58,0
189480,note_on,0,0,1,,,,,,,,,0,,,79,69
189480,note_on,0,0,1,,,,,,,,,0,,,79,0
189480,note_on,0,0,1,,,,,,,,,0,,,67,69
189600,note_on,0,0,2,,,,,,,,,0,,,58,57
189600,note_on,0,0,2,,,,,,,,,0,,,62,0
189600,note_on,0,0,2,,,,,,,,,0,,,62,63
189600,note_on,120,0,2,,,,,,,,,0,,,58,0
189600,set_tempo,240,1,0,,,,,,421200,,,,,,,
189600,note_on,0,0,1,,,,,,,,,0,,,80,71
189600,note_on,0,0,1,,,,,,,,,0,,,68,71
189600,note_on,0,0,1,,,,,,,,,0,,,79,0
189600,note_on,120,0,1,,,,,,,,,0,,,67,0
189720,note_on,120,0,1,,,,,,,,,0,,,68,0
189720,note_on,0,0,1,,,,,,,,,0,,,80,70
189720,note_on,0,0,1,,,,,,,,,0,,,80,0
189720,note_on,0,0,1,,,,,,,,,0,,,68,70
189840,note_on,240,0,2,,,,,,,,,0,,,62,0
189840,note_on,0,0,2,,,,,,,,,0,,,39,67
189840,note_on,0,0,2,,,,,,,,,0,,,58,0
189840,note_on,0,0,1,,,,,,,,,0,,,82,73
189840,note_on,0,0,1,,,,,,,,,0,,,80,0
189840,note_on,0,0,1,,,,,,,,,0,,,70,73
189840,note_on,120,0,1,,,,,,,,,0,,,68,0
189840,set_tempo,240,1,0,,,,,,433526,,,,,,,
189960,note_on,120,0,1,,,,,,,,,0,,,70,0
189960,note_on,0,0,1,,,,,,,,,0,,,82,72
189960,note_on,0,0,1,,,,,,,,,0,,,70,72
189960,note_on,0,0,1,,,,,,,,,0,,,82,0
190060,set_tempo,220,1,0,,,,,,454442,,,,,,,
190080,note_on,120,0,1,,,,,,,,,0,,,70,0
190080,note_on,0,0,2,,,,,,,,,0,,,58,62
190080,note_on,0,0,2,,,,,,,,,0,,,55,56
190080,note_on,240,0,2,,,,,,,,,0,,,39,0
190080,note_on,0,0,1,,,,,,,,,0,,,75,66
190080,note_on,0,0,1,,,,,,,,,0,,,82,0
190080,note_on,0,0,1,,,,,,,,,0,,,63,66
190140,set_tempo,80,1,0,,,,,,456482,,,,,,,
190200,note_on,120,0,1,,,,,,,,,0,,,75,0
190200,note_on,120,0,2,,,,,,,,,0,,,58,0
190200,note_on,0,0,1,,,,,,,,,0,,,63,0
190200,note_on,0,0,1,,,,,,,,,0,,,75,66
190200,note_on,0,0,1,,,,,,,,,0,,,63,66
190200,note_on,0,0,2,,,,,,,,,0,,,55,0
190200,note_on,0,0,2,,,,,,,,,0,,,55,56
190200,note_on,0,0,2,,,,,,,,,0,,,58,62
190220,set_tempo,80,1,0,,,,,,458540,,,,,,,
190261,set_tempo,41,1,0,,,,,,464900,,,,,,,
190300,set_tempo,39,1,0,,,,,,467035,,,,,,,
190320,note_on,0,0,2,,,,,,,,,0,,,58,58
190320,note_on,0,0,2,,,,,,,,,0,,,55,58
190320,note_on,0,0,1,,,,,,,,,0,,,75,70
190320,note_on,0,0,2,,,,,,,,,0,,,63,64
190320,note_on,0,0,1,,,,,,,,,0,,,75,0
190320,note_on,120,0,2,,,,,,,,,0,,,58,0
190320,note_on,120,0,1,,,,,,,,,0,,,63,0
190320,set_tempo,20,1,0,,,,,,555556,,,,,,,
190320,note_on,0,0,2,,,,,,,,,0,,,55,0
190320,note_on,0,0,1,,,,,,,,,0,,,87,70
190381,set_tempo,61,1,0,,,,,,547945,,,,,,,
190440,note_on,0,0,1,,,,,,,,,0,,,87,0
190440,note_on,0,0,1,,,,,,,,,0,,,87,70
190440,note_on,120,0,1,,,,,,,,,0,,,75,0
190440,note_on,0,0,1,,,,,,,,,0,,,75,70
190560,note_on,0,0,2,,,,,,,,,0,,,63,0
190560,note_on,0,0,2,,,,,,,,,0,,,70,58
190560,note_on,0,0,1,,,,,,,,,0,,,87,0
190560,note_on,0,0,1,,,,,,,,,0,,,87,86
190560,note_on,0,0,1,,,,,,,,,0,,,99,86
190560,note_on,0,0,2,,,,,,,,,0,,,75,64
190560,note_on,240,0,2,,,,,,,,,0,,,55,0
190560,note_on,120,0,1,,,,,,,,,0,,,75,0
190560,note_on,0,0,2,,,,,,,,,0,,,58,0
190560,note_on,0,0,2,,,,,,,,,0,,,67,58
190560,set_tempo,179,1,0,,,,,,510638,,,,,,,
190680,note_on,0,0,1,,,,,,,,,0,,,99,86
190680,note_on,0,0,1,,,,,,,,,0,,,87,86
190680,note_on,0,0,1,,,,,,,,,0,,,99,0
190680,note_on,120,0,1,,,,,,,,,0,,,87,0
190800,note_on,0,0,2,,,,,,,,,0,,,67,0
190800,note_on,0,0,2,,,,,,,,,0,,,70,0
190800,note_on,120,0,1,,,,,,,,,0,,,99,0
190800,note_on,0,0,1,,,,,,,,,0,,,87,0
190800,note_on,240,0,2,,,,,,,,,0,,,75,0
190800,note_on,0,0,1,,,,,,,,,0,,,99,86
190800,note_on,0,0,1,,,,,,,,,0,,,87,86
190920,note_on,0,0,1,,,,,,,,,0,,,99,0
190920,note_on,0,0,1,,,,,,,,,0,,,87,86
190920,note_on,120,0,1,,,,,,,,,0,,,87,0
190920,note_on,0,0,1,,,,,,,,,0,,,99,86
191040,note_on,120,0,1,,,,,,,,,0,,,87,0
191040,note_on,0,0,1,,,,,,,,,0,,,97,84
191040,note_on,0,0,1,,,,,,,,,0,,,99,0
191040,set_tempo,480,1,0,,,,,,502092,,,,,,,
191040,note_on,0,0,1,,,,,,,,,0,,,85,84
191160,note_on,120,0,1,,,,,,,,,0,,,85,0
191160,note_on,0,0,1,,,,,,,,,0,,,85,84
191160,note_on,0,0,1,,,,,,,,,0,,,97,84
191160,note_on,0,0,1,,,,,,,,,0,,,97,0
191280,note_on,0,0,1,,,,,,,,,0,,,84,84
191280,note_on,0,0,2,,,,,,,,,0,,,44,85
191280,note_on,120,0,1,,,,,,,,,0,,,97,0
191280,set_tempo,240,1,0,,,,,,489796,,,,,,,
191280,note_on,0,0,1,,,,,,,,,0,,,96,84
191280,note_on,0,0,1,,,,,,,,,0,,,85,0
191280,note_on,480,0,2,,,,,,,,,0,,,32,77
191400,note_on,0,0,1,,,,,,,,,0,,,96,0
191400,note_on,0,0,1,,,,,,,,,0,,,84,84
191400,note_on,120,0,1,,,,,,,,,0,,,84,0
191400,note_on,0,0,1,,,,,,,,,0,,,96,84
191520,note_on,0,0,1,,,,,,,,,0,,,84,0
191520,note_on,0,0,1,,,,,,,,,0,,,84,81
191520,note_on,240,0,2,,,,,,,,,0,,,44,0
191520,note_on,0,0,1,,,,,,,,,0,,,96,81
191520,note_on,0,0,2,,,,,,,,,0,,,63,62
191520,note_on,0,0,2,,,,,,,,,0,,,57,56
191520,note_on,0,0,2,,,,,,,,,0,,,54,56
191520,note_on,0,0,2,,,,,,,,,0,,,32,0
191520,note_on,120,0,1,,,,,,,,,0,,,96,0
191640,note_on,120,0,2,,,,,,,,,0,,,54,0
191640,note_on,0,0,1,,,,,,,,,0,,,96,81
191640,note_on,0,0,2,,,,,,,,,0,,,57,0
191640,note_on,0,0,1,,,,,,,,,0,,,84,81
191640,note_on,0,0,2,,,,,,,,,0,,,57,56
191640,note_on,0,0,2,,,,,,,,,0,,,63,0
191640,note_on,0,0,1,,,,,,,,,0,,,84,0
191640,note_on,120,0,1,,,,,,,,,0,,,96,0
191640,note_on,0,0,2,,,,,,,,,0,,,54,56
191640,note_on,0,0,2,,,,,,,,,0,,,63,62
191760,note_on,0,0,2,,,,,,,,,0,,,57,56
191760,note_on,0,0,2,,,,,,,,,0,,,54,56
191760,note_on,0,0,2,,,,,,,,,0,,,57,0
191760,note_on,0,0,2,,,,,,,,,0,,,63,62
191760,note_on,120,0,1,,,,,,,,,0,,,96,0
191760,note_on,120,0,2,,,,,,,,,0,,,63,0
191760,note_on,0,0,2,,,,,,,,,0,,,54,0
191760,set_tempo,480,1,0,,,,,,495868,,,,,,,
191760,note_on,0,0,1,,,,,,,,,0,,,84,0
191760,note_on,0,0,1,,,,,,,,,0,,,93,79
191760,note_on,0,0,1,,,,,,,,,0,,,81,79
191880,note_on,120,0,1,,,,,,,,,0,,,81,0
191880,note_on,0,0,1,,,,,,,,,0,,,93,79
191880,note_on,0,0,1,,,,,,,,,0,,,93,0
191880,note_on,0,0,1,,,,,,,,,0,,,81,79
192000,note_on,0,0,2,,,,,,,,,0,,,57,0
192000,note_on,120,0,1,,,,,,,,,0,,,93,0
192000,note_on,0,0,2,,,,,,,,,0,,,36,79
192000,note_on,0,0,2,,,,,,,,,0,,,48,89
192000,note_on,0,0,1,,,,,,,,,0,,,92,82
192000,note_on,240,0,2,,,,,,,,,0,,,63,0
192000,note_on,0,0,1,,,,,,,,,0,,,81,0
192000,note_on,0,0,1,,,,,,,,,0,,,80,82
192000,note_on,0,0,2,,,,,,,,,0,,,54,0
192000,set_tempo,240,1,0,,,,,,476190,,,,,,,
192120,note_on,0,0,1,,,,,,,,,0,,,80,82
192120,note_on,0,0,1,,,,,,,,,0,,,92,82
192120,note_on,0,0,1,,,,,,,,,0,,,92,0
192120,note_on,120,0,1,,,,,,,,,0,,,80,0
192240,note_on,0,0,2,,,,,,,,,0,,,57,59
192240,note_on,240,0,2,,,,,,,,,0,,,48,0
192240,note_on,0,0,2,,,,,,,,,0,,,36,0
192240,note_on,0,0,1,,,,,,,,,0,,,80,0
192240,note_on,0,0,1,,,,,,,,,0,,,80,82
192240,note_on,0,0,1,,,,,,,,,0,,,92,82
192240,note_on,0,0,2,,,,,,,,,0,,,69,67
192240,note_on,0,0,2,,,,,,,,,0,,,63,59
192240,note_on,120,0,1,,,,,,,,,0,,,92,0
192360,note_on,0,0,1,,,,,,,,,0,,,92,0
192360,note_on,0,0,1,,,,,,,,,0,,,92,82
192360,note_on,120,0,1,,,,,,,,,0,,,80,0
192360,note_on,0,0,2,,,,,,,,,0,,,57,59
192360,note_on,0,0,2,,,,,,,,,0,,,63,0
192360,note_on,0,0,2,,,,,,,,,0,,,63,59
192360,note_on,0,0,2,,,,,,,,,0,,,69,67
192360,note_on,120,0,2,,,,,,,,,0,,,69,0
192360,note_on,0,0,1,,,,,,,,,0,,,80,82
192360,note_on,0,0,2,,,,,,,,,0,,,57,0
192480,note_on,0,0,2,,,,,,,,,0,,,57,0
192480,note_on,0,0,2,,,,,,,,,0,,,57,59
192480,note_on,0,0,2,,,,,,,,,0,,,63,0
192480,note_on,0,0,2,,,,,,,,,0,,,69,67
192480,note_on,120,0,1,,,,,,,,,0,,,92,0
192480,note_on,120,0,2,,,,,,,,,0,,,69,0
192480,note_on,0,0,2,,,,,,,,,0,,,63,59
192480,note_on,0,0,1,,,,,,,,,0,,,78,85
192480,note_on,0,0,1,,,,,,,,,0,,,80,0
192480,note_on,0,0,1,,,,,,,,,0,,,90,85
192480,set_tempo,480,1,0,,,,,,487805,,,,,,,
192600,note_on,0,0,1,,,,,,,,,0,,,90,85
192600,note_on,0,0,1,,,,,,,,,0,,,78,85
192600,note_on,120,0,1,,,,,,,,,0,,,78,0
192600,note_on,0,0,1,,,,,,,,,0,,,90,0
192720,note_on,240,0,2,,,,,,,,,0,,,69,0
192720,note_on,0,0,2,,,,,,,,,0,,,49,92
192720,note_on,120,0,1,,,,,,,,,0,,,90,0
192720,note_on,0,0,2,,,,,,,,,0,,,37,92
192720,note_on,0,0,2,,,,,,,,,0,,,63,0
192720,set_tempo,240,1,0,,,,,,508475,,,,,,,
192720,note_on,0,0,1,,,,,,,,,0,,,76,91
192720,note_on,0,0,2,,,,,,,,,0,,,57,0
192720,note_on,0,0,1,,,,,,,,,0,,,88,91
192720,note_on,0,0,1,,,,,,,,,0,,,78,0
192960,note_on,0,0,1,,,,,,,,,0,,,64,55
192960,note_on,240,0,2,,,,,,,,,0,,,49,0
192960,note_on,0,0,1,,,,,,,,,0,,,73,61
192960,note_on,0,0,1,,,,,,,,,0,,,69,55
192960,set_tempo,240,1,0,,,,,,500000,,,,,,,
192960,note_on,240,0,1,,,,,,,,,0,,,76,0
192960,note_on,0,0,1,,,,,,,,,0,,,88,0
192960,note_on,0,0,2,,,,,,,,,0,,,37,0
192960,note_on,0,0,2,,,,,,,,,0,,,52,49
192960,note_on,0,0,2,,,,,,,,,0,,,61,56
192960,note_on,0,0,2,,,,,,,,,0,,,57,49
193080,note_on,0,0,2,,,,,,,,,0,,,57,0
193080,note_on,120,0,2,,,,,,,,,0,,,61,0
193080,note_on,0,0,1,,,,,,,,,0,,,73,61
193080,note_on,0,0,1,,,,,,,,,0,,,69,55
193080,note_on,0,0,1,,,,,,,,,0,,,69,0
193080,note_on,0,0,1,,,,,,,,,0,,,64,55
193080,note_on,0,0,1,,,,,,,,,0,,,64,0
193080,note_on,120,0,1,,,,,,,,,0,,,73,0
193080,note_on,0,0,2,,,,,,,,,0,,,52,0
193080,note_on,0,0,2,,,,,,,,,0,,,61,56
193080,note_on,0,0,2,,,,,,,,,0,,,57,49
193080,note_on,0,0,2,,,,,,,,,0,,,52,49
193200,note_on,120,0,1,,,,,,,,,0,,,73,0
193200,note_on,0,0,1,,,,,,,,,0,,,69,57
193200,note_on,0,0,1,,,,,,,,,0,,,75,63
193200,note_on,0,0,1,,,,,,,,,0,,,64,0
193200,set_tempo,240,1,0,,,,,,493827,,,,,,,
193200,note_on,0,0,1,,,,,,,,,0,,,69,0
193200,note_on,120,0,2,,,,,,,,,0,,,61,0
193200,note_on,0,0,2,,,,,,,,,0,,,51,53
193200,note_on,0,0,2,,,,,,,,,0,,,52,0
193200,note_on,0,0,2,,,,,,,,,0,,,61,60
193200,note_on,0,0,2,,,,,,,,,0,,,57,53
193200,note_on,0,0,1,,,,,,,,,0,,,64,57
193200,note_on,0,0,2,,,,,,,,,0,,,57,0
193320,note_on,0,0,1,,,,,,,,,0,,,69,0
193320,note_on,0,0,1,,,,,,,,,0,,,64,57
193320,note_on,0,0,1,,,,,,,,,0,,,64,0
193320,note_on,120,0,2,,,,,,,,,0,,,61,0
193320,note_on,120,0,1,,,,,,,,,0,,,75,0
193320,note_on,0,0,2,,,,,,,,,0,,,51,53
193320,note_on,0,0,2,,,,,,,,,0,,,57,0
193320,note_on,0,0,2,,,,,,,,,0,,,57,53
193320,note_on,0,0,2,,,,,,,,,0,,,61,60
193320,note_on,0,0,1,,,,,,,,,0,,,69,57
193320,note_on,0,0,1,,,,,,,,,0,,,75,63
193320,note_on,0,0,2,,,,,,,,,0,,,51,0
193440,note_on,0,0,1,,,,,,,,,0,,,69,61
193440,note_on,0,0,2,,,,,,,,,0,,,61,62
193440,note_on,120,0,1,,,,,,,,,0,,,75,0
193440,note_on,0,0,1,,,,,,,,,0,,,76,69
193440,note_on,0,0,2,,,,,,,,,0,,,57,56
193440,note_on,0,0,2,,,,,,,,,0,,,57,0
193440,note_on,0,0,1,,,,,,,,,0,,,64,0
193440,note_on,120,0,2,,,,,,,,,0,,,61,0
193440,note_on,0,0,2,,,,,,,,,0,,,51,0
193440,note_on,0,0,2,,,,,,,,,0,,,49,56
193440,note_on,0,0,1,,,,,,,,,0,,,64,61
193440,note_on,0,0,1,,,,,,,,,0,,,69,0
193440,set_tempo,240,1,0,,,,,,485830,,,,,,,
193560,note_on,120,0,1,,,,,,,,,0,,,76,0
193560,note_on,120,0,2,,,,,,,,,0,,,61,0
193560,note_on,0,0,1,,,,,,,,,0,,,64,0
193560,note_on,0,0,2,,,,,,,,,0,,,49,0
193560,note_on,0,0,1,,,,,,,,,0,,,69,61
193560,note_on,0,0,1,,,,,,,,,0,,,69,0
193560,note_on,0,0,1,,,,,,,,,0,,,64,61
193560,note_on,0,0,2,,,,,,,,,0,,,49,56
193560,note_on,0,0,1,,,,,,,,,0,,,76,69
193560,note_on,0,0,2,,,,,,,,,0,,,57,0
193560,note_on,0,0,2,,,,,,,,,0,,,57,56
193560,note_on,0,0,2,,,,,,,,,0,,,61,62
193680,note_on,120,0,2,,,,,,,,,0,,,61,0
193680,note_on,0,0,2,,,,,,,,,0,,,61,60
193680,set_tempo,240,1,0,,,,,,481928,,,,,,,
193680,note_on,0,0,1,,,,,,,,,0,,,75,67
193680,note_on,0,0,2,,,,,,,,,0,,,49,0
193680,note_on,0,0,2,,,,,,,,,0,,,57,53
193680,note_on,0,0,2,,,,,,,,,0,,,57,0
193680,note_on,120,0,1,,,,,,,,,0,,,76,0
193680,note_on,0,0,1,,,,,,,,,0,,,64,0
193680,note_on,0,0,1,,,,,,,,,0,,,64,59
193680,note_on,0,0,1,,,,,,,,,0,,,69,0
193680,note_on,0,0,1,,,,,,,,,0,,,69,59
193680,note_on,0,0,2,,,,,,,,,0,,,51,53
193800,note_on,0,0,2,,,,,,,,,0,,,51,53
193800,note_on,0,0,1,,,,,,,,,0,,,75,67
193800,note_on,0,0,1,,,,,,,,,0,,,69,59
193800,note_on,0,0,2,,,,,,,,,0,,,51,0
193800,note_on,0,0,1,,,,,,,,,0,,,69,0
193800,note_on,0,0,2,,,,,,,,,0,,,57,53
193800,note_on,0,0,2,,,,,,,,,0,,,57,0
193800,note_on,120,0,2,,,,,,,,,0,,,61,0
193800,note_on,0,0,1,,,,,,,,,0,,,64,59
193800,note_on,0,0,1,,,,,,,,,0,,,64,0
193800,note_on,120,0,1,,,,,,,,,0,,,75,0
193800,note_on,0,0,2,,,,,,,,,0,,,61,60
193920,note_on,0,0,2,,,,,,,,,0,,,51,0
193920,note_on,0,0,2,,,,,,,,,0,,,57,50
193920,note_on,0,0,1,,,,,,,,,0,,,69,0
193920,note_on,0,0,2,,,,,,,,,0,,,61,57
193920,note_on,0,0,1,,,,,,,,,0,,,69,56
193920,note_on,0,0,1,,,,,,,,,0,,,73,62
193920,note_on,0,0,2,,,,,,,,,0,,,57,0
193920,note_on,120,0,1,,,,,,,,,0,,,75,0
193920,note_on,0,0,1,,,,,,,,,0,,,64,56
193920,note_on,0,0,1,,,,,,,,,0,,,64,0
193920,note_on,0,0,2,,,,,,,,,0,,,52,50
193920,note_on,120,0,2,,,,,,,,,0,,,61,0
194040,note_on,0,0,2,,,,,,,,,0,,,61,57
194040,note_on,0,0,2,,,,,,,,,0,,,57,50
194040,note_on,0,0,2,,,,,,,,,0,,,57,0
194040,note_on,120,0,1,,,,,,,,,0,,,73,0
194040,note_on,0,0,1,,,,,,,,,0,,,69,56
194040,note_on,0,0,1,,,,,,,,,0,,,64,0
194040,note_on,0,0,1,,,,,,,,,0,,,64,56
194040,note_on,0,0,2,,,,,,,,,0,,,52,0
194040,note_on,0,0,1,,,,,,,,,0,,,69,0
194040,note_on,0,0,2,,,,,,,,,0,,,52,50
194040,note_on,0,0,1,,,,,,,,,0,,,73,62
194040,note_on,120,0,2,,,,,,,,,0,,,61,0
194160,note_on,120,0,1,,,,,,,,,0,,,73,0
194160,note_on,0,0,1,,,,,,,,,0,,,71,51
194160,note_on,0,0,1,,,,,,,,,0,,,75,58
194160,note_on,0,0,2,,,,,,,,,0,,,51,46
194160,note_on,0,0,2,,,,,,,,,0,,,52,0
194160,note_on,0,0,2,,,,,,,,,0,,,59,51
194160,note_on,0,0,2,,,,,,,,,0,,,56,46
194160,set_tempo,480,1,0,,,,,,533333,,,,,,,
194160,note_on,0,0,1,,,,,,,,,0,,,63,51
194160,note_on,120,0,2,,,,,,,,,0,,,61,0
194160,note_on,0,0,1,,,,,,,,,0,,,64,0
194160,note_on,0,0,2,,,,,,,,,0,,,57,0
194160,note_on,0,0,1,,,,,,,,,0,,,68,51
194160,note_on,0,0,1,,,,,,,,,0,,,69,0
194280,set_tempo,120,1,0,,,,,,480000,,,,,,,
194280,note_on,0,0,1,,,,,,,,,0,,,76,60
194280,note_on,0,0,2,,,,,,,,,0,,,56,0
194280,note_on,0,0,1,,,,,,,,,0,,,71,0
194280,note_on,0,0,1,,,,,,,,,0,,,68,0
194280,note_on,0,0,1,,,,,,,,,0,,,64,60
194280,note_on,0,0,1,,,,,,,,,0,,,63,0
194280,note_on,0,0,2,,,,,,,,,0,,,51,0
194280,note_on,0,0,2,,,,,,,,,0,,,50,52
194280,note_on,120,0,1,,,,,,,,,0,,,75,0
194280,note_on,120,0,2,,,,,,,,,0,,,59,0
194280,note_on,0,0,2,,,,,,,,,0,,,62,52
194400,note_on,0,0,2,,,,,,,,,0,,,49,53
194400,note_on,120,0,2,,,,,,,,,0,,,62,0
194400,note_on,120,0,1,,,,,,,,,0,,,76,0
194400,note_on,0,0,2,,,,,,,,,0,,,50,0
194400,note_on,0,0,1,,,,,,,,,0,,,64,0
194400,note_on,0,0,1,,,,,,,,,0,,,65,61
194400,note_on,0,0,1,,,,,,,,,0,,,77,61
194400,note_on,0,0,2,,,,,,,,,0,,,61,53
194520,note_on,120,0,2,,,,,,,,,0,,,61,0
194520,note_on,0,0,2,,,,,,,,,0,,,60,55
194520,note_on,0,0,1,,,,,,,,,0,,,65,0
194520,note_on,0,0,1,,,,,,,,,0,,,66,62
194520,note_on,0,0,1,,,,,,,,,0,,,78,62
194520,note_on,0,0,2,,,,,,,,,0,,,49,0
194520,note_on,0,0,2,,,,,,,,,0,,,48,55
194520,note_on,120,0,1,,,,,,,,,0,,,77,0
194640,note_on,120,0,2,,,,,,,,,0,,,60,0
194640,note_on,0,0,1,,,,,,,,,0,,,79,64
194640,note_on,0,0,1,,,,,,,,,0,,,67,64
194640,note_on,0,0,1,,,,,,,,,0,,,66,0
194640,note_on,120,0,1,,,,,,,,,0,,,78,0
194640,note_on,0,0,2,,,,,,,,,0,,,48,0
194640,note_on,0,0,2,,,,,,,,,0,,,47,56
194640,note_on,0,0,2,,,,,,,,,0,,,59,56
194760,note_on,120,0,1,,,,,,,,,0,,,79,0
194760,note_on,120,0,2,,,,,,,,,0,,,59,0
194760,note_on,0,0,1,,,,,,,,,0,,,67,0
194760,note_on,0,0,1,,,,,,,,,0,,,68,66
194760,note_on,0,0,1,,,,,,,,,0,,,80,66
194760,note_on,0,0,2,,,,,,,,,0,,,47,0
194760,note_on,0,0,2,,,,,,,,,0,,,58,57
194760,note_on,0,0,2,,,,,,,,,0,,,46,57
194880,note_on,0,0,1,,,,,,,,,0,,,81,67
194880,note_on,0,0,1,,,,,,,,,0,,,68,0
194880,note_on,0,0,2,,,,,,,,,0,,,57,60
194880,note_on,0,0,2,,,,,,,,,0,,,46,0
194880,note_on,0,0,2,,,,,,,,,0,,,45,60
194880,note_on,120,0,2,,,,,,,,,0,,,58,0
194880,note_on,0,0,1,,,,,,,,,0,,,69,67
194880,note_on,120,0,1,,,,,,,,,0,,,80,0
195000,note_on,120,0,2,,,,,,,,,0,,,57,0
195000,note_on,0,0,2,,,,,,,,,0,,,44,61
195000,note_on,0,0,2,,,,,,,,,0,,,45,0
195000,note_on,0,0,1,,,,,,,,,0,,,82,69
195000,note_on,0,0,1,,,,,,,,,0,,,70,69
195000,note_on,0,0,2,,,,,,,,,0,,,56,61
195000,note_on,0,0,1,,,,,,,,,0,,,69,0
195000,note_on,120,0,1,,,,,,,,,0,,,81,0
195120,note_on,0,0,2,,,,,,,,,0,,,44,0
195120,note_on,120,0,2,,,,,,,,,0,,,56,0
195120,note_on,0,0,2,,,,,,,,,0,,,43,62
195120,note_on,120,0,1,,,,,,,,,0,,,82,0
195120,note_on,0,0,1,,,,,,,,,0,,,83,70
195120,note_on,0,0,1,,,,,,,,,0,,,71,70
195120,note_on,0,0,1,,,,,,,,,0,,,70,0
195120,note_on,0,0,2,,,,,,,,,0,,,55,62
195120,set_tempo,840,1,0,,,,,,474308,,,,,,,
195240,note_on,0,0,2,,,,,,,,,0,,,43,0
195240,note_on,0,0,2,,,,,,,,,0,,,42,63
195240,note_on,120,0,2,,,,,,,,,0,,,55,0
195240,note_on,0,0,1,,,,,,,,,0,,,84,72
195240,note_on,0,0,1,,,,,,,,,0,,,72,72
195240,note_on,0,0,1,,,,,,,,,0,,,71,0
195240,note_on,0,0,2,,,,,,,,,0,,,54,63
195240,note_on,120,0,1,,,,,,,,,0,,,83,0
195360,note_on,120,0,1,,,,,,,,,0,,,84,0
195360,note_on,0,0,2,,,,,,,,,0,,,41,64
195360,note_on,0,0,2,,,,,,,,,0,,,53,64
195360,note_on,120,0,2,,,,,,,,,0,,,54,0
195360,note_on,0,0,1,,,,,,,,,0,,,72,0
195360,note_on,0,0,1,,,,,,,,,0,,,73,74
195360,note_on,0,0,1,,,,,,,,,0,,,85,74
195360,note_on,0,0,2,,,,,,,,,0,,,42,0
195440,set_tempo,320,1,0,,,,,,472441,,,,,,,
195480,note_on,120,0,1,,,,,,,,,0,,,85,0
195480,note_on,0,0,2,,,,,,,,,0,,,40,66
195480,note_on,120,0,2,,,,,,,,,0,,,53,0
195480,note_on,0,0,1,,,,,,,,,0,,,86,75
195480,note_on,0,0,2,,,,,,,,,0,,,41,0
195480,note_on,0,0,1,,,,,,,,,0,,,73,0
195480,note_on,0,0,1,,,,,,,,,0,,,74,75
195480,note_on,0,0,2,,,,,,,,,0,,,52,66
195520,set_tempo,80,1,0,,,,,,470588,,,,,,,
195600,note_on,0,0,1,,,,,,,,,0,,,75,69
195600,note_on,0,0,1,,,,,,,,,0,,,74,0
195600,note_on,0,0,1,,,,,,,,,0,,,82,69
195600,note_on,0,0,1,,,,,,,,,0,,,79,69
195600,note_on,0,0,2,,,,,,,,,0,,,43,63
195600,note_on,0,0,1,,,,,,,,,0,,,87,69
195600,set_tempo,80,1,0,,,,,,468750,,,,,,,
195600,note_on,0,0,2,,,,,,,,,0,,,39,63
195600,note_on,0,0,2,,,,,,,,,0,,,46,63
195600,note_on,0,0,2,,,,,,,,,0,,,51,63
195600,note_on,120,0,1,,,,,,,,,0,,,86,0
195600,note_on,120,0,2,,,,,,,,,0,,,52,0
195600,note_on,0,0,2,,,,,,,,,0,,,40,0
195660,set_tempo,60,1,0,,,,,,466926,,,,,,,
195720,note_on,120,0,1,,,,,,,,,0,,,87,0
195720,note_on,0,0,2,,,,,,,,,0,,,43,0
195720,note_on,0,0,1,,,,,,,,,0,,,76,79
195720,note_on,0,0,1,,,,,,,,,0,,,79,0
195720,note_on,0,0,2,,,,,,,,,0,,,50,69
195720,note_on,0,0,1,,,,,,,,,0,,,88,79
195720,note_on,0,0,2,,,,,,,,,0,,,39,0
195720,note_on,0,0,2,,,,,,,,,0,,,51,0
195720,note_on,0,0,1,,,,,,,,,0,,,82,0
195720,note_on,0,0,2,,,,,,,,,0,,,38,69
195720,note_on,120,0,2,,,,,,,,,0,,,46,0
195720,note_on,0,0,1,,,,,,,,,0,,,75,0
195740,set_tempo,80,1,0,,,,,,465116,,,,,,,
195800,set_tempo,60,1,0,,,,,,463320,,,,,,,
195840,note_on,0,0,1,,,,,,,,,0,,,77,80
195840,note_on,0,0,1,,,,,,,,,0,,,89,80
195840,note_on,120,0,1,,,,,,,,,0,,,88,0
195840,note_on,0,0,2,,,,,,,,,0,,,49,70
195840,note_on,0,0,2,,,,,,,,,0,,,38,0
195840,note_on,0,0,2,,,,,,,,,0,,,37,70
195840,note_on,0,0,1,,,,,,,,,0,,,76,0
195840,note_on,120,0,2,,,,,,,,,0,,,50,0
195880,set_tempo,80,1,0,,,,,,461538,,,,,,,
195960,note_on,0,0,2,,,,,,,,,0,,,48,72
195960,note_on,0,0,1,,,,,,,,,0,,,77,0
195960,note_on,0,0,1,,,,,,,,,0,,,78,81
195960,note_on,0,0,1,,,,,,,,,0,,,90,81
195960,note_on,0,0,2,,,,,,,,,0,,,36,72
195960,set_tempo,80,1,0,,,,,,459770,,,,,,,
195960,note_on,0,0,2,,,,,,,,,0,,,37,0
195960,note_on,120,0,2,,,,,,,,,0,,,49,0
195960,note_on,120,0,1,,,,,,,,,0,,,89,0
196020,set_tempo,60,1,0,,,,,,458015,,,,,,,
196080,note_on,0,0,1,,,,,,,,,0,,,79,84
196080,note_on,0,0,1,,,,,,,,,0,,,91,84
196080,note_on,0,0,2,,,,,,,,,0,,,47,73
196080,note_on,0,0,2,,,,,,,,,0,,,36,0
196080,note_on,0,0,1,,,,,,,,,0,,,78,0
196080,note_on,120,0,1,,,,,,,,,0,,,90,0
196080,note_on,120,0,2,,,,,,,,,0,,,48,0
196080,note_on,0,0,2,,,,,,,,,0,,,35,73
196100,set_tempo,80,1,0,,,,,,456274,,,,,,,
196160,set_tempo,60,1,0,,,,,,454545,,,,,,,
196200,note_on,0,0,2,,,,,,,,,0,,,34,74
196200,note_on,120,0,2,,,,,,,,,0,,,47,0
196200,note_on,0,0,2,,,,,,,,,0,,,46,74
196200,note_on,0,0,1,,,,,,,,,0,,,80,85
196200,note_on,120,0,1,,,,,,,,,0,,,91,0
196200,note_on,0,0,1,,,,,,,,,0,,,92,85
196200,note_on,0,0,1,,,,,,,,,0,,,79,0
196200,note_on,0,0,2,,,,,,,,,0,,,35,0
196240,set_tempo,80,1,0,,,,,,452830,,,,,,,
196260,set_tempo,20,1,0,,,,,,461538,,,,,,,
196280,set_tempo,20,1,0,,,,,,461538,,,,,,,
196300,set_tempo,20,1,0,,,,,,463320,,,,,,,
196320,set_tempo,20,1,0,,,,,,465116,,,,,,,
196320,note_on,0,0,1,,,,,,,,,0,,,80,0
196320,note_on,0,0,1,,,,,,,,,0,,,93,86
196320,note_on,0,0,2,,,,,,,,,0,,,45,77
196320,note_on,0,0,2,,,,,,,,,0,,,34,0
196320,note_on,0,0,2,,,,,,,,,0,,,33,77
196320,note_on,120,0,1,,,,,,,,,0,,,92,0
196320,note_on,0,0,1,,,,,,,,,0,,,81,86
196320,note_on,120,0,2,,,,,,,,,0,,,46,0
196340,set_tempo,20,1,0,,,,,,466926,,,,,,,
196360,set_tempo,20,1,0,,,,,,468750,,,,,,,
196380,set_tempo,20,1,0,,,,,,470588,,,,,,,
196400,set_tempo,20,1,0,,,,,,472441,,,,,,,
196420,set_tempo,20,1,0,,,,,,474308,,,,,,,
196440,note_on,120,0,2,,,,,,,,,0,,,45,0
196440,note_on,0,0,1,,,,,,,,,0,,,94,88
196440,note_on,0,0,1,,,,,,,,,0,,,82,88
196440,note_on,0,0,2,,,,,,,,,0,,,44,78
196440,note_on,0,0,2,,,,,,,,,0,,,33,0
196440,set_tempo,20,1,0,,,,,,476190,,,,,,,
196440,note_on,120,0,1,,,,,,,,,0,,,93,0
196440,note_on,0,0,1,,,,,,,,,0,,,81,0
196440,note_on,0,0,2,,,,,,,,,0,,,32,78
196460,set_tempo,20,1,0,,,,,,480000,,,,,,,
196480,set_tempo,20,1,0,,,,,,481928,,,,,,,
196500,set_tempo,20,1,0,,,,,,483871,,,,,,,
196520,set_tempo,20,1,0,,,,,,485830,,,,,,,
196540,set_tempo,20,1,0,,,,,,487805,,,,,,,
196560,note_on,0,0,1,,,,,,,,,0,,,95,90
196560,note_on,120,0,2,,,,,,,,,0,,,44,0
196560,note_on,0,0,1,,,,,,,,,0,,,83,90
196560,set_tempo,20,1,0,,,,,,489796,,,,,,,
196560,note_on,120,0,1,,,,,,,,,0,,,94,0
196560,note_on,0,0,2,,,,,,,,,0,,,31,75
196560,note_on,0,0,2,,,,,,,,,0,,,32,0
196560,note_on,0,0,2,,,,,,,,,0,,,43,75
196560,note_on,0,0,1,,,,,,,,,0,,,82,0
196580,set_tempo,20,1,0,,,,,,491803,,,,,,,
196600,set_tempo,20,1,0,,,,,,493827,,,,,,,
196620,set_tempo,20,1,0,,,,,,497925,,,,,,,
196640,set_tempo,20,1,0,,,,,,500000,,,,,,,
196660,set_tempo,20,1,0,,,,,,502092,,,,,,,
196680,note_on,0,0,2,,,,,,,,,0,,,42,75
196680,note_on,0,0,1,,,,,,,,,0,,,97,93
196680,note_on,0,0,2,,,,,,,,,0,,,30,75
196680,note_on,0,0,2,,,,,,,,,0,,,31,0
196680,note_on,120,0,2,,,,,,,,,0,,,43,0
196680,note_on,0,0,1,,,,,,,,,0,,,83,0
196680,note_on,120,0,1,,,,,,,,,0,,,95,0
196680,set_tempo,20,1,0,,,,,,504202,,,,,,,
196680,note_on,0,0,1,,,,,,,,,0,,,85,93
196700,set_tempo,20,1,0,,,,,,506329,,,,,,,
196720,set_tempo,20,1,0,,,,,,508475,,,,,,,
196740,set_tempo,20,1,0,,,,,,510638,,,,,,,
196760,set_tempo,20,1,0,,,,,,512821,,,,,,,
196800,note_on,0,0,1,,,,,,,,,0,,,86,96
196800,note_on,120,0,1,,,,,,,,,0,,,97,0
196800,set_tempo,40,1,0,,,,,,528634,,,,,,,
196800,note_on,0,0,1,,,,,,,,,0,,,85,0
196800,note_on,0,0,1,,,,,,,,,0,,,98,96
196800,note_on,120,0,2,,,,,,,,,0,,,42,0
196800,note_on,0,0,2,,,,,,,,,0,,,40,77
196800,note_on,0,0,2,,,,,,,,,0,,,30,0
196800,note_on,0,0,2,,,,,,,,,0,,,28,77
196920,note_on,0,0,2,,,,,,,,,0,,,39,79
196920,set_tempo,120,1,0,,,,,,579710,,,,,,,
196920,note_on,0,0,1,,,,,,,,,0,,,99,100
196920,note_on,0,0,2,,,,,,,,,0,,,28,0
196920,note_on,0,0,2,,,,,,,,,0,,,27,79
196920,note_on,120,0,1,,,,,,,,,0,,,98,0
196920,note_on,120,0,2,,,,,,,,,0,,,40,0
196920,note_on,0,0,1,,,,,,,,,0,,,87,100
196920,note_on,0,0,1,,,,,,,,,0,,,86,0
197030,note_on,110,0,1,,,,,,,,,0,,,99,0
197030,note_on,0,0,2,,,,,,,,,0,,,27,0
197030,note_on,0,0,1,,,,,,,,,0,,,87,0
197030,note_on,110,0,2,,,,,,,,,0,,,39,0
197040,note_on,0,0,1,,,,,,,,,0,,,68,110
197040,note_on,10,0,2,,,,,,,,,0,,,32,81
197040,note_on,10,0,1,,,,,,,,,0,,,59,99
197040,set_tempo,120,1,0,,,,,,510117,,,,,,,
197040,note_on,0,0,2,,,,,,,,,0,,,44,90
197040,note_on,0,0,1,,,,,,,,,0,,,63,99
197040,marker,0,1,0,,,,,,,,,,,,,
197060,set_tempo,20,1,0,,,,,,519751,,,,,,,
197280,note_on,0,0,1,,,,,,,,,0,,,59,0
197280,note_on,240,0,2,,,,,,,,,0,,,44,0
197280,note_on,0,0,1,,,,,,,,,0,,,63,0
197280,note_on,240,0,1,,,,,,,,,0,,,68,0
197280,note_on,0,0,2,,,,,,,,,0,,,32,0
197280,set_tempo,220,1,0,,,,,,502092,,,,,,,
197280,note_on,0,0,2,,,,,,,,,0,,,39,81
197280,note_on,0,0,2,,,,,,,,,0,,,51,81
197400,note_on,0,0,2,,,,,,,,,0,,,56,81
197400,note_on,0,0,2,,,,,,,,,0,,,39,0
197400,note_on,0,0,2,,,,,,,,,0,,,44,81
197400,note_on,120,0,2,,,,,,,,,0,,,51,0
197520,note_on,240,0,1,,,,,,,,,0,,,83,90
197520,note_on,0,0,1,,,,,,,,,0,,,75,90
197520,note_on,0,0,2,,,,,,,,,0,,,63,77
197520,note_on,0,0,2,,,,,,,,,0,,,51,77
197520,set_tempo,240,1,0,,,,,,480577,,,,,,,
197520,note_on,120,0,2,,,,,,,,,0,,,56,0
197520,note_on,0,0,2,,,,,,,,,0,,,44,0
197520,note_on,0,0,1,,,,,,,,,0,,,71,90
197700,note_on,180,0,1,,,,,,,,,0,,,71,0
197700,note_on,0,0,1,,,,,,,,,0,,,83,0
197700,note_on,180,0,2,,,,,,,,,0,,,51,0
197700,note_on,0,0,2,,,,,,,,,0,,,63,0
197700,note_on,0,0,1,,,,,,,,,0,,,75,0
197760,note_on,0,0,1,,,,,,,,,0,,,70,82
197760,note_on,0,0,2,,,,,,,,,0,,,44,90
197760,set_tempo,240,1,0,,,,,,474308,,,,,,,
197760,note_on,60,0,2,,,,,,,,,0,,,32,90
197760,note_on,60,0,1,,,,,,,,,0,,,82,82
197760,note_on,0,0,1,,,,,,,,,0,,,75,82
197880,note_on,0,0,1,,,,,,,,,0,,,83,82
197880,set_tempo,120,1,0,,,,,,468750,,,,,,,
197880,note_on,0,0,1,,,,,,,,,0,,,71,82
197880,note_on,0,0,1,,,,,,,,,0,,,82,0
197880,note_on,120,0,1,,,,,,,,,0,,,70,0
197880,note_on,0,0,1,,,,,,,,,0,,,75,0
198000,note_on,0,0,2,,,,,,,,,0,,,39,82
198000,note_on,0,0,2,,,,,,,,,0,,,51,82
198000,set_tempo,120,1,0,,,,,,476796,,,,,,,
198000,note_on,0,0,1,,,,,,,,,0,,,71,0
198000,note_on,0,0,2,,,,,,,,,0,,,32,0
198000,note_on,0,0,1,,,,,,,,,0,,,73,92
198000,note_on,0,0,1,,,,,,,,,0,,,85,92
198000,note_on,240,0,2,,,,,,,,,0,,,44,0
198000,note_on,120,0,1,,,,,,,,,0,,,83,0
198120,note_on,0,0,2,,,,,,,,,0,,,56,82
198120,note_on,0,0,2,,,,,,,,,0,,,44,82
198120,note_on,0,0,2,,,,,,,,,0,,,39,0
198120,note_on,120,0,2,,,,,,,,,0,,,51,0
198180,note_on,0,0,1,,,,,,,,,0,,,85,0
198180,note_on,180,0,1,,,,,,,,,0,,,73,0
198240,note_on,0,0,2,,,,,,,,,0,,,63,78
198240,note_on,0,0,2,,,,,,,,,0,,,51,78
198240,note_on,0,0,2,,,,,,,,,0,,,44,0
198240,note_on,120,0,2,,,,,,,,,0,,,56,0
198240,note_on,60,0,1,,,,,,,,,0,,,75,82
198240,note_on,0,0,1,,,,,,,,,0,,,71,82
198240,set_tempo,240,1,0,,,,,,463929,,,,,,,
198240,note_on,0,0,1,,,,,,,,,0,,,83,82
198360,note_on,0,0,1,,,,,,,,,0,,,83,0
198360,note_on,120,0,1,,,,,,,,,0,,,71,0
198360,note_on,0,0,1,,,,,,,,,0,,,82,82
198360,note_on,0,0,1,,,,,,,,,0,,,70,82
198360,note_on,0,0,1,,,,,,,,,0,,,75,0
198420,note_on,0,0,2,,,,,,,,,0,,,63,0
198420,note_on,180,0,2,,,,,,,,,0,,,51,0
198480,note_on,60,0,2,,,,,,,,,0,,,32,90
198480,note_on,0,0,1,,,,,,,,,0,,,82,0
198480,set_tempo,240,1,0,,,,,,456274,,,,,,,
198480,note_on,0,0,1,,,,,,,,,0,,,83,83
198480,note_on,120,0,1,,,,,,,,,0,,,70,0
198480,note_on,0,0,2,,,,,,,,,0,,,44,90
198480,note_on,0,0,1,,,,,,,,,0,,,75,83
198480,note_on,0,0,1,,,,,,,,,0,,,71,83
198600,set_tempo,120,1,0,,,,,,479348,,,,,,,
198600,note_on,0,0,1,,,,,,,,,0,,,73,86
198600,note_on,0,0,1,,,,,,,,,0,,,83,0
198600,note_on,120,0,1,,,,,,,,,0,,,71,0
198600,note_on,0,0,1,,,,,,,,,0,,,75,0
198600,note_on,0,0,1,,,,,,,,,0,,,85,86
198720,note_on,0,0,1,,,,,,,,,0,,,75,93
198720,note_on,0,0,1,,,,,,,,,0,,,85,0
198720,note_on,0,0,1,,,,,,,,,0,,,87,93
198720,set_tempo,120,1,0,,,,,,469851,,,,,,,
198720,note_on,0,0,2,,,,,,,,,0,,,39,81
198720,note_on,0,0,2,,,,,,,,,0,,,51,81
198720,note_on,120,0,1,,,,,,,,,0,,,73,0
198720,note_on,240,0,2,,,,,,,,,0,,,44,0
198720,note_on,0,0,2,,,,,,,,,0,,,32,0
198840,note_on,120,0,2,,,,,,,,,0,,,51,0
198840,note_on,0,0,2,,,,,,,,,0,,,39,0
198840,note_on,0,0,2,,,,,,,,,0,,,56,81
198840,note_on,0,0,2,,,,,,,,,0,,,44,81
198900,note_on,180,0,1,,,,,,,,,0,,,87,0
198900,note_on,0,0,1,,,,,,,,,0,,,75,0
198960,note_on,0,0,2,,,,,,,,,0,,,51,75
198960,note_on,0,0,1,,,,,,,,,0,,,73,85
198960,set_tempo,240,1,0,,,,,,463929,,,,,,,
198960,note_on,0,0,2,,,,,,,,,0,,,44,0
198960,note_on,120,0,2,,,,,,,,,0,,,56,0
198960,note_on,0,0,2,,,,,,,,,0,,,63,75
198960,note_on,60,0,1,,,,,,,,,0,,,85,85
199080,note_on,120,0,1,,,,,,,,,0,,,73,0
199080,note_on,0,0,1,,,,,,,,,0,,,85,0
199080,note_on,0,0,1,,,,,,,,,0,,,71,84
199080,note_on,0,0,1,,,,,,,,,0,,,83,84
199140,note_on,180,0,2,,,,,,,,,0,,,51,0
199140,note_on,0,0,2,,,,,,,,,0,,,63,0
199200,note_on,0,0,1,,,,,,,,,0,,,82,83
199200,note_on,120,0,1,,,,,,,,,0,,,83,0
199200,note_on,0,0,1,,,,,,,,,0,,,75,83
199200,note_on,60,0,2,,,,,,,,,0,,,32,90
199200,set_tempo,240,1,0,,,,,,459770,,,,,,,
199200,note_on,0,0,1,,,,,,,,,0,,,70,83
199200,note_on,0,0,1,,,,,,,,,0,,,71,0
199200,note_on,0,0,2,,,,,,,,,0,,,44,90
199320,set_tempo,120,1,0,,,,,,484418,,,,,,,
199320,note_on,0,0,1,,,,,,,,,0,,,71,83
199320,note_on,0,0,1,,,,,,,,,0,,,75,0
199320,note_on,0,0,1,,,,,,,,,0,,,82,0
199320,note_on,0,0,1,,,,,,,,,0,,,83,83
199320,note_on,120,0,1,,,,,,,,,0,,,70,0
199440,note_on,240,0,2,,,,,,,,,0,,,44,0
199440,set_tempo,120,1,0,,,,,,474909,,,,,,,
199440,note_on,0,0,2,,,,,,,,,0,,,39,82
199440,note_on,120,0,1,,,,,,,,,0,,,71,0
199440,note_on,0,0,1,,,,,,,,,0,,,73,90
199440,note_on,0,0,1,,,,,,,,,0,,,83,0
199440,note_on,0,0,2,,,,,,,,,0,,,32,0
199440,note_on,0,0,1,,,,,,,,,0,,,85,90
199440,note_on,0,0,2,,,,,,,,,0,,,51,82
199560,note_on,0,0,2,,,,,,,,,0,,,39,0
199560,note_on,0,0,2,,,,,,,,,0,,,44,82
199560,note_on,0,0,2,,,,,,,,,0,,,56,82
199560,note_on,120,0,2,,,,,,,,,0,,,51,0
199620,note_on,180,0,1,,,,,,,,,0,,,85,0
199620,note_on,0,0,1,,,,,,,,,0,,,73,0
199680,note_on,0,0,2,,,,,,,,,0,,,44,0
199680,note_on,0,0,2,,,,,,,,,0,,,51,79
199680,note_on,0,0,2,,,,,,,,,0,,,63,79
199680,note_on,120,0,2,,,,,,,,,0,,,56,0
199680,set_tempo,240,1,0,,,,,,463929,,,,,,,
199680,note_on,0,0,1,,,,,,,,,0,,,71,83
199680,note_on,0,0,1,,,,,,,,,0,,,83,83
199680,note_on,60,0,1,,,,,,,,,0,,,75,83
199800,set_tempo,120,1,0,,,,,,486342,,,,,,,
199800,note_on,120,0,1,,,,,,,,,0,,,71,0
199800,note_on,0,0,1,,,,,,,,,0,,,70,83
199800,note_on,0,0,1,,,,,,,,,0,,,75,0
199800,note_on,0,0,1,,,,,,,,,0,,,83,0
199800,note_on,0,0,1,,,,,,,,,0,,,82,83
199860,note_on,180,0,2,,,,,,,,,0,,,51,0
199860,note_on,0,0,2,,,,,,,,,0,,,63,0
199920,note_on,120,0,1,,,,,,,,,0,,,82,0
199920,note_on,60,0,2,,,,,,,,,0,,,32,90
199920,note_on,0,0,2,,,,,,,,,0,,,44,90
199920,set_tempo,120,1,0,,,,,,464324,,,,,,,
199920,note_on,0,0,1,,,,,,,,,0,,,75,90
199920,note_on,0,0,1,,,,,,,,,0,,,71,90
199920,note_on,0,0,1,,,,,,,,,0,,,83,90
199920,note_on,0,0,1,,,,,,,,,0,,,70,0
200040,note_on,120,0,1,,,,,,,,,0,,,83,0
200040,note_on,0,0,1,,,,,,,,,0,,,82,85
200040,note_on,0,0,1,,,,,,,,,0,,,75,0
200040,note_on,0,0,1,,,,,,,,,0,,,71,0
200040,set_tempo,120,1,0,,,,,,471772,,,,,,,
200040,note_on,0,0,1,,,,,,,,,0,,,70,85
200160,note_on,0,0,2,,,,,,,,,0,,,39,81
200160,note_on,0,0,1,,,,,,,,,0,,,68,85
200160,note_on,0,0,2,,,,,,,,,0,,,32,0
200160,note_on,120,0,1,,,,,,,,,0,,,70,0
200160,note_on,0,0,2,,,,,,,,,0,,,51,81
200160,set_tempo,120,1,0,,,,,,481928,,,,,,,
200160,note_on,240,0,2,,,,,,,,,0,,,44,0
200160,note_on,0,0,1,,,,,,,,,0,,,80,85
200160,note_on,0,0,1,,,,,,,,,0,,,82,0
200280,note_on,120,0,2,,,,,,,,,0,,,51,0
200280,note_on,0,0,2,,,,,,,,,0,,,39,0
200280,note_on,0,0,2,,,,,,,,,0,,,44,81
200280,note_on,0,0,2,,,,,,,,,0,,,56,81
200400,note_on,0,0,2,,,,,,,,,0,,,44,0
200400,note_on,0,0,2,,,,,,,,,0,,,51,78
200400,note_on,0,0,2,,,,,,,,,0,,,63,78
200400,note_on,240,0,1,,,,,,,,,0,,,68,0
200400,note_on,0,0,1,,,,,,,,,0,,,83,90
200400,note_on,0,0,1,,,,,,,,,0,,,87,90
200400,note_on,0,0,1,,,,,,,,,0,,,95,90
200400,note_on,120,0,2,,,,,,,,,0,,,56,0
200400,note_on,0,0,1,,,,,,,,,0,,,80,0
200400,set_tempo,240,1,0,,,,,,474909,,,,,,,
200580,note_on,0,0,1,,,,,,,,,0,,,87,0
200580,note_on,0,0,1,,,,,,,,,0,,,95,0
200580,note_on,180,0,1,,,,,,,,,0,,,83,0
200580,note_on,180,0,2,,,,,,,,,0,,,51,0
200580,note_on,0,0,2,,,,,,,,,0,,,63,0
200640,note_on,0,0,1,,,,,,,,,0,,,82,83
200640,note_on,0,0,1,,,,,,,,,0,,,87,83
200640,note_on,60,0,1,,,,,,,,,0,,,94,83
200640,set_tempo,240,1,0,,,,,,458015,,,,,,,
200640,note_on,60,0,2,,,,,,,,,0,,,32,90
200640,note_on,0,0,2,,,,,,,,,0,,,44,90
200760,note_on,0,0,1,,,,,,,,,0,,,94,0
200760,set_tempo,120,1,0,,,,,,481271,,,,,,,
200760,note_on,120,0,1,,,,,,,,,0,,,82,0
200760,note_on,0,0,1,,,,,,,,,0,,,83,83
200760,note_on,0,0,1,,,,,,,,,0,,,87,0
200760,note_on,0,0,1,,,,,,,,,0,,,95,83
200880,set_tempo,120,1,0,,,,,,468019,,,,,,,
200880,note_on,240,0,2,,,,,,,,,0,,,44,0
200880,note_on,0,0,2,,,,,,,,,0,,,32,0
200880,note_on,0,0,1,,,,,,,,,0,,,85,93
200880,note_on,120,0,1,,,,,,,,,0,,,95,0
200880,note_on,0,0,1,,,,,,,,,0,,,97,93
200880,note_on,0,0,2,,,,,,,,,0,,,51,82
200880,note_on,0,0,2,,,,,,,,,0,,,39,82
200880,note_on,0,0,1,,,,,,,,,0,,,83,0
201000,note_on,120,0,2,,,,,,,,,0,,,51,0
201000,note_on,0,0,2,,,,,,,,,0,,,44,82
201000,note_on,0,0,2,,,,,,,,,0,,,56,82
201000,note_on,0,0,2,,,,,,,,,0,,,39,0
201060,note_on,0,0,1,,,,,,,,,0,,,97,0
201060,note_on,180,0,1,,,,,,,,,0,,,85,0
201120,note_on,60,0,1,,,,,,,,,0,,,87,81
201120,set_tempo,240,1,0,,,,,,463929,,,,,,,
201120,note_on,0,0,2,,,,,,,,,0,,,44,0
201120,note_on,0,0,2,,,,,,,,,0,,,51,78
201120,note_on,0,0,1,,,,,,,,,0,,,95,81
201120,note_on,0,0,1,,,,,,,,,0,,,83,81
201120,note_on,120,0,2,,,,,,,,,0,,,56,0
201120,note_on,0,0,2,,,,,,,,,0,,,63,78
201240,note_on,0,0,1,,,,,,,,,0,,,82,81
201240,note_on,0,0,1,,,,,,,,,0,,,87,0
201240,note_on,0,0,1,,,,,,,,,0,,,94,81
201240,note_on,0,0,1,,,,,,,,,0,,,95,0
201240,note_on,120,0,1,,,,,,,,,0,,,83,0
201300,note_on,0,0,2,,,,,,,,,0,,,63,0
201300,note_on,180,0,2,,,,,,,,,0,,,51,0
201360,note_on,0,0,2,,,,,,,,,0,,,44,90
201360,note_on,60,0,2,,,,,,,,,0,,,32,90
201360,note_on,0,0,1,,,,,,,,,0,,,95,83
201360,note_on,0,0,1,,,,,,,,,0,,,94,0
201360,note_on,0,0,1,,,,,,,,,0,,,87,83
201360,note_on,0,0,1,,,,,,,,,0,,,83,83
201360,set_tempo,240,1,0,,,,,,468750,,,,,,,
201360,note_on,120,0,1,,,,,,,,,0,,,82,0
201460,set_tempo,100,1,0,,,,,,458015,,,,,,,
201480,note_on,120,0,1,,,,,,,,,0,,,83,0
201480,note_on,0,0,1,,,,,,,,,0,,,95,0
201480,note_on,0,0,1,,,,,,,,,0,,,97,86
201480,note_on,0,0,1,,,,,,,,,0,,,87,0
201480,note_on,0,0,1,,,,,,,,,0,,,85,86
201600,note_on,0,0,2,,,,,,,,,0,,,51,81
201600,note_on,240,0,2,,,,,,,,,0,,,44,0
201600,note_on,0,0,1,,,,,,,,,0,,,97,0
201600,set_tempo,140,1,0,,,,,,468019,,,,,,,
201600,note_on,120,0,1,,,,,,,,,0,,,85,0
201600,note_on,0,0,1,,,,,,,,,0,,,99,93
201600,note_on,0,0,2,,,,,,,,,0,,,39,81
201600,note_on,0,0,1,,,,,,,,,0,,,87,93
201600,note_on,0,0,2,,,,,,,,,0,,,32,0
201720,note_on,0,0,2,,,,,,,,,0,,,44,81
201720,note_on,0,0,2,,,,,,,,,0,,,39,0
201720,note_on,120,0,2,,,,,,,,,0,,,51,0
201720,note_on,0,0,2,,,,,,,,,0,,,56,81
201780,note_on,0,0,1,,,,,,,,,0,,,87,0
201780,note_on,180,0,1,,,,,,,,,0,,,99,0
201840,note_on,60,0,1,,,,,,,,,0,,,97,82
201840,note_on,0,0,1,,,,,,,,,0,,,85,82
201840,note_on,0,0,2,,,,,,,,,0,,,44,0
201840,note_on,0,0,2,,,,,,,,,0,,,51,79
201840,note_on,0,0,2,,,,,,,,,0,,,63,79
201840,note_on,120,0,2,,,,,,,,,0,,,56,0
201840,set_tempo,240,1,0,,,,,,463929,,,,,,,
201960,note_on,0,0,1,,,,,,,,,0,,,83,82
201960,note_on,0,0,1,,,,,,,,,0,,,95,82
201960,note_on,120,0,1,,,,,,,,,0,,,85,0
201960,note_on,0,0,1,,,,,,,,,0,,,97,0
202020,note_on,180,0,2,,,,,,,,,0,,,51,0
202020,note_on,0,0,2,,,,,,,,,0,,,63,0
202080,note_on,0,0,1,,,,,,,,,0,,,82,82
202080,set_tempo,240,1,0,,,,,,468019,,,,,,,
202080,note_on,0,0,2,,,,,,,,,0,,,44,90
202080,note_on,0,0,1,,,,,,,,,0,,,94,82
202080,note_on,120,0,1,,,,,,,,,0,,,95,0
202080,note_on,0,0,1,,,,,,,,,0,,,87,82
202080,note_on,0,0,1,,,,,,,,,0,,,83,0
202080,note_on,60,0,2,,,,,,,,,0,,,32,90
202200,note_on,0,0,1,,,,,,,,,0,,,94,0
202200,note_on,0,0,1,,,,,,,,,0,,,87,0
202200,note_on,0,0,1,,,,,,,,,0,,,83,82
202200,note_on,120,0,1,,,,,,,,,0,,,82,0
202200,set_tempo,120,1,0,,,,,,456274,,,,,,,
202200,note_on,0,0,1,,,,,,,,,0,,,95,82
202320,note_on,0,0,2,,,,,,,,,0,,,32,0
202320,note_on,0,0,1,,,,,,,,,0,,,95,0
202320,note_on,0,0,1,,,,,,,,,0,,,97,93
202320,note_on,240,0,2,,,,,,,,,0,,,44,0
202320,note_on,0,0,2,,,,,,,,,0,,,39,83
202320,note_on,0,0,2,,,,,,,,,0,,,51,83
202320,note_on,0,0,1,,,,,,,,,0,,,85,93
202320,set_tempo,120,1,0,,,,,,468019,,,,,,,
202320,note_on,120,0,1,,,,,,,,,0,,,83,0
202440,note_on,120,0,2,,,,,,,,,0,,,51,0
202440,note_on,0,0,2,,,,,,,,,0,,,56,83
202440,note_on,0,0,2,,,,,,,,,0,,,39,0
202440,note_on,0,0,2,,,,,,,,,0,,,44,83
202500,note_on,0,0,1,,,,,,,,,0,,,85,0
202500,note_on,180,0,1,,,,,,,,,0,,,97,0
202560,set_tempo,240,1,0,,,,,,458891,,,,,,,
202560,note_on,120,0,2,,,,,,,,,0,,,56,0
202560,note_on,60,0,1,,,,,,,,,0,,,87,84
202560,note_on,0,0,2,,,,,,,,,0,,,51,79
202560,note_on,0,0,1,,,,,,,,,0,,,83,84
202560,note_on,0,0,1,,,,,,,,,0,,,95,84
202560,note_on,0,0,2,,,,,,,,,0,,,44,0
202560,note_on,0,0,2,,,,,,,,,0,,,63,79
202680,note_on,120,0,1,,,,,,,,,0,,,83,0
202680,note_on,0,0,1,,,,,,,,,0,,,95,0
202680,set_tempo,120,1,0,,,,,,475549,,,,,,,
202680,note_on,0,0,1,,,,,,,,,0,,,94,85
202680,note_on,0,0,1,,,,,,,,,0,,,87,0
202680,note_on,0,0,1,,,,,,,,,0,,,82,85
202740,note_on,180,0,2,,,,,,,,,0,,,51,0
202740,note_on,0,0,2,,,,,,,,,0,,,63,0
202800,note_on,0,0,1,,,,,,,,,0,,,82,0
202800,note_on,0,0,1,,,,,,,,,0,,,87,93
202800,note_on,0,0,1,,,,,,,,,0,,,95,93
202800,note_on,60,0,2,,,,,,,,,0,,,32,90
202800,set_tempo,120,1,0,,,,,,461538,,,,,,,
202800,note_on,0,0,1,,,,,,,,,0,,,83,93
202800,note_on,0,0,2,,,,,,,,,0,,,44,90
202800,note_on,120,0,1,,,,,,,,,0,,,94,0
202920,set_tempo,120,1,0,,,,,,474308,,,,,,,
202920,note_on,0,0,1,,,,,,,,,0,,,82,85
202920,note_on,0,0,1,,,,,,,,,0,,,87,0
202920,note_on,0,0,1,,,,,,,,,0,,,83,0
202920,note_on,120,0,1,,,,,,,,,0,,,95,0
202920,note_on,0,0,1,,,,,,,,,0,,,94,85
203040,note_on,0,0,1,,,,,,,,,0,,,80,85
203040,note_on,0,0,1,,,,,,,,,0,,,92,85
203040,note_on,0,0,1,,,,,,,,,0,,,94,0
203040,note_on,0,0,2,,,,,,,,,0,,,32,0
203040,set_tempo,120,1,0,,,,,,485241,,,,,,,
203040,note_on,0,0,2,,,,,,,,,0,,,39,83
203040,note_on,120,0,1,,,,,,,,,0,,,82,0
203040,note_on,0,0,2,,,,,,,,,0,,,51,83
203040,note_on,240,0,2,,,,,,,,,0,,,44,0
203160,note_on,120,0,2,,,,,,,,,0,,,51,0
203160,note_on,0,0,2,,,,,,,,,0,,,44,83
203160,note_on,0,0,2,,,,,,,,,0,,,56,83
203160,note_on,0,0,2,,,,,,,,,0,,,39,0
203280,set_tempo,240,1,0,,,,,,480577,,,,,,,
203280,note_on,120,0,2,,,,,,,,,0,,,56,0
203280,note_on,240,0,1,,,,,,,,,0,,,80,0
203280,note_on,0,0,2,,,,,,,,,0,,,51,89
203280,note_on,0,0,1,,,,,,,,,0,,,92,0
203280,note_on,0,0,1,,,,,,,,,0,,,71,83
203280,note_on,0,0,1,,,,,,,,,0,,,75,83
203280,note_on,0,0,1,,,,,,,,,0,,,63,83
203280,note_on,0,0,2,,,,,,,,,0,,,47,89
203280,note_on,0,0,2,,,,,,,,,0,,,44,0
203280,note_on,0,0,2,,,,,,,,,0,,,59,89
203520,note_on,240,0,1,,,,,,,,,0,,,75,0
203520,note_on,240,0,2,,,,,,,,,0,,,51,0
203520,set_tempo,240,1,0,,,,,,463929,,,,,,,
203520,note_on,0,0,2,,,,,,,,,0,,,59,0
203520,note_on,0,0,2,,,,,,,,,0,,,46,84
203520,note_on,0,0,1,,,,,,,,,0,,,63,73
203520,note_on,0,0,2,,,,,,,,,0,,,47,0
203520,note_on,0,0,1,,,,,,,,,0,,,63,0
203520,note_on,0,0,2,,,,,,,,,0,,,58,84
203520,note_on,0,0,1,,,,,,,,,0,,,75,73
203520,note_on,0,0,1,,,,,,,,,0,,,71,0
203520,note_on,0,0,1,,,,,,,,,0,,,70,73
203520,note_on,0,0,2,,,,,,,,,0,,,51,84
203640,note_on,0,0,2,,,,,,,,,0,,,51,84
203640,note_on,0,0,2,,,,,,,,,0,,,59,84
203640,note_on,0,0,2,,,,,,,,,0,,,47,84
203640,note_on,0,0,2,,,,,,,,,0,,,46,0
203640,note_on,0,0,1,,,,,,,,,0,,,75,73
203640,note_on,0,0,1,,,,,,,,,0,,,71,73
203640,note_on,120,0,1,,,,,,,,,0,,,75,0
203640,note_on,0,0,1,,,,,,,,,0,,,70,0
203640,note_on,0,0,1,,,,,,,,,0,,,63,73
203640,note_on,0,0,1,,,,,,,,,0,,,63,0
203640,set_tempo,120,1,0,,,,,,492368,,,,,,,
203640,note_on,0,0,2,,,,,,,,,0,,,51,0
203640,note_on,120,0,2,,,,,,,,,0,,,58,0
203760,note_on,0,0,1,,,,,,,,,0,,,75,79
203760,note_on,0,0,2,,,,,,,,,0,,,61,89
203760,note_on,0,0,2,,,,,,,,,0,,,51,89
203760,note_on,0,0,2,,,,,,,,,0,,,51,0
203760,note_on,0,0,2,,,,,,,,,0,,,49,89
203760,note_on,0,0,1,,,,,,,,,0,,,63,0
203760,note_on,120,0,2,,,,,,,,,0,,,59,0
203760,note_on,0,0,1,,,,,,,,,0,,,63,79
203760,note_on,120,0,1,,,,,,,,,0,,,75,0
203760,note_on,0,0,2,,,,,,,,,0,,,47,0
203760,note_on,0,0,1,,,,,,,,,0,,,73,79
203760,note_on,0,0,1,,,,,,,,,0,,,71,0
203760,set_tempo,120,1,0,,,,,,480577,,,,,,,
204000,note_on,0,0,1,,,,,,,,,0,,,75,75
204000,note_on,0,0,2,,,,,,,,,0,,,59,83
204000,note_on,0,0,2,,,,,,,,,0,,,51,83
204000,note_on,0,0,2,,,,,,,,,0,,,51,0
204000,note_on,0,0,2,,,,,,,,,0,,,49,0
204000,note_on,0,0,2,,,,,,,,,0,,,47,83
204000,note_on,0,0,1,,,,,,,,,0,,,63,75
204000,note_on,0,0,1,,,,,,,,,0,,,63,0
204000,note_on,240,0,2,,,,,,,,,0,,,61,0
204000,set_tempo,240,1,0,,,,,,463929,,,,,,,
204000,note_on,0,0,1,,,,,,,,,0,,,73,0
204000,note_on,240,0,1,,,,,,,,,0,,,75,0
204000,note_on,0,0,1,,,,,,,,,0,,,71,75
204120,note_on,0,0,1,,,,,,,,,0,,,70,75
204120,note_on,0,0,2,,,,,,,,,0,,,47,0
204120,note_on,0,0,2,,,,,,,,,0,,,46,83
204120,note_on,120,0,2,,,,,,,,,0,,,59,0
204120,set_tempo,120,1,0,,,,,,496401,,,,,,,
204120,note_on,0,0,1,,,,,,,,,0,,,71,0
204120,note_on,0,0,1,,,,,,,,,0,,,63,0
204120,note_on,0,0,2,,,,,,,,,0,,,58,83
204120,note_on,0,0,2,,,,,,,,,0,,,51,83
204120,note_on,120,0,1,,,,,,,,,0,,,75,0
204120,note_on,0,0,1,,,,,,,,,0,,,75,75
204120,note_on,0,0,1,,,,,,,,,0,,,63,75
204120,note_on,0,0,2,,,,,,,,,0,,,51,0
204240,note_on,0,0,2,,,,,,,,,0,,,47,89
204240,note_on,0,0,2,,,,,,,,,0,,,46,0
204240,note_on,0,0,2,,,,,,,,,0,,,58,0
204240,note_on,0,0,2,,,,,,,,,0,,,59,89
204240,note_on,0,0,2,,,,,,,,,0,,,51,89
204240,note_on,0,0,1,,,,,,,,,0,,,75,80
204240,note_on,120,0,1,,,,,,,,,0,,,75,0
204240,note_on,0,0,1,,,,,,,,,0,,,71,80
204240,note_on,0,0,1,,,,,,,,,0,,,63,80
204240,note_on,0,0,1,,,,,,,,,0,,,63,0
204240,note_on,120,0,2,,,,,,,,,0,,,51,0
204240,note_on,0,0,1,,,,,,,,,0,,,70,0
204240,set_tempo,120,1,0,,,,,,482470,,,,,,,
204360,note_on,0,0,1,,,,,,,,,0,,,70,75
204360,note_on,120,0,2,,,,,,,,,0,,,59,0
204360,note_on,0,0,2,,,,,,,,,0,,,58,85
204360,note_on,0,0,2,,,,,,,,,0,,,51,85
204360,set_tempo,120,1,0,,,,,,502639,,,,,,,
204360,note_on,120,0,1,,,,,,,,,0,,,75,0
204360,note_on,0,0,1,,,,,,,,,0,,,75,75
204360,note_on,0,0,1,,,,,,,,,0,,,71,0
204360,note_on,0,0,2,,,,,,,,,0,,,51,0
204360,note_on,0,0,1,,,,,,,,,0,,,63,75
204360,note_on,0,0,1,,,,,,,,,0,,,63,0
204360,note_on,0,0,2,,,,,,,,,0,,,46,85
204360,note_on,0,0,2,,,,,,,,,0,,,47,0
204480,note_on,120,0,2,,,,,,,,,0,,,58,0
204480,note_on,0,0,2,,,,,,,,,0,,,56,85
204480,note_on,0,0,2,,,,,,,,,0,,,51,85
204480,note_on,120,0,1,,,,,,,,,0,,,75,0
204480,note_on,0,0,2,,,,,,,,,0,,,51,0
204480,note_on,0,0,1,,,,,,,,,0,,,63,0
204480,note_on,0,0,2,,,,,,,,,0,,,44,85
204480,note_on,0,0,2,,,,,,,,,0,,,46,0
204480,note_on,0,0,1,,,,,,,,,0,,,75,75
204480,note_on,0,0,1,,,,,,,,,0,,,70,0
204480,note_on,0,0,1,,,,,,,,,0,,,68,75
204480,note_on,0,0,1,,,,,,,,,0,,,63,75
204480,set_tempo,120,1,0,,,,,,483871,,,,,,,
204720,set_tempo,240,1,0,,,,,,511073,,,,,,,
204720,note_on,240,0,2,,,,,,,,,0,,,56,0
204720,note_on,0,0,2,,,,,,,,,0,,,32,106
204720,note_on,0,0,2,,,,,,,,,0,,,39,106
204720,note_on,0,0,2,,,,,,,,,0,,,44,0
204720,note_on,240,0,1,,,,,,,,,0,,,75,0
204720,note_on,0,0,2,,,,,,,,,0,,,51,0
204720,note_on,0,0,2,,,,,,,,,0,,,44,106
204720,note_on,0,0,1,,,,,,,,,0,,,75,111
204720,note_on,0,0,1,,,,,,,,,0,,,80,111
204720,note_on,0,0,1,,,,,,,,,0,,,68,0
204720,note_on,0,0,1,,,,,,,,,0,,,63,0
204720,note_on,0,0,1,,,,,,,,,0,,,87,111
204960,note_on,240,0,1,,,,,,,,,0,,,75,0
204960,note_on,0,0,2,,,,,,,,,0,,,46,84
204960,note_on,240,0,2,,,,,,,,,0,,,44,0
204960,note_on,0,0,2,,,,,,,,,0,,,39,0
204960,note_on,0,0,2,,,,,,,,,0,,,32,0
204960,note_on,0,0,2,,,,,,,,,0,,,58,84
204960,note_on,0,0,2,,,,,,,,,0,,,51,84
204960,note_on,0,0,1,,,,,,,,,0,,,80,0
204960,set_tempo,240,1,0,,,,,,500542,,,,,,,
204960,note_on,0,0,1,,,,,,,,,0,,,63,73
204960,note_on,0,0,1,,,,,,,,,0,,,70,73
204960,note_on,0,0,1,,,,,,,,,0,,,87,0
204960,note_on,0,0,1,,,,,,,,,0,,,75,73
205080,note_on,0,0,2,,,,,,,,,0,,,59,84
205080,note_on,0,0,2,,,,,,,,,0,,,51,84
205080,note_on,0,0,2,,,,,,,,,0,,,51,0
205080,note_on,0,0,1,,,,,,,,,0,,,70,0
205080,note_on,0,0,2,,,,,,,,,0,,,47,84
205080,note_on,0,0,1,,,,,,,,,0,,,71,73
205080,note_on,0,0,2,,,,,,,,,0,,,46,0
205080,note_on,0,0,1,,,,,,,,,0,,,75,73
205080,set_tempo,120,1,0,,,,,,543331,,,,,,,
205080,note_on,120,0,2,,,,,,,,,0,,,58,0
205080,note_on,120,0,1,,,,,,,,,0,,,75,0
205080,note_on,0,0,1,,,,,,,,,0,,,63,73
205080,note_on,0,0,1,,,,,,,,,0,,,63,0
205180,set_tempo,100,1,0,,,,,,487884,,,,,,,
205200,note_on,0,0,2,,,,,,,,,0,,,47,0
205200,note_on,0,0,1,,,,,,,,,0,,,63,0
205200,set_tempo,20,1,0,,,,,,500542,,,,,,,
205200,note_on,0,0,2,,,,,,,,,0,,,49,89
205200,note_on,0,0,2,,,,,,,,,0,,,51,0
205200,note_on,0,0,1,,,,,,,,,0,,,75,79
205200,note_on,0,0,2,,,,,,,,,0,,,61,89
205200,note_on,120,0,2,,,,,,,,,0,,,59,0
205200,note_on,0,0,1,,,,,,,,,0,,,63,79
205200,note_on,120,0,1,,,,,,,,,0,,,75,0
205200,note_on,0,0,1,,,,,,,,,0,,,71,0
205200,note_on,0,0,1,,,,,,,,,0,,,73,79
205200,note_on,0,0,2,,,,,,,,,0,,,51,89
205440,set_tempo,240,1,0,,,,,,488440,,,,,,,
205440,note_on,0,0,1,,,,,,,,,0,,,63,0
205440,note_on,240,0,1,,,,,,,,,0,,,75,0
205440,note_on,0,0,1,,,,,,,,,0,,,71,75
205440,note_on,0,0,1,,,,,,,,,0,,,75,75
205440,note_on,240,0,2,,,,,,,,,0,,,61,0
205440,note_on,0,0,2,,,,,,,,,0,,,59,83
205440,note_on,0,0,2,,,,,,,,,0,,,51,83
205440,note_on,0,0,2,,,,,,,,,0,,,51,0
205440,note_on,0,0,2,,,,,,,,,0,,,49,0
205440,note_on,0,0,1,,,,,,,,,0,,,73,0
205440,note_on,0,0,2,,,,,,,,,0,,,47,83
205440,note_on,0,0,1,,,,,,,,,0,,,63,75
205560,note_on,120,0,2,,,,,,,,,0,,,59,0
205560,note_on,0,0,2,,,,,,,,,0,,,47,0
205560,note_on,0,0,2,,,,,,,,,0,,,51,0
205560,note_on,0,0,2,,,,,,,,,0,,,51,83
205560,note_on,0,0,2,,,,,,,,,0,,,58,83
205560,note_on,0,0,2,,,,,,,,,0,,,46,83
205560,note_on,0,0,1,,,,,,,,,0,,,75,75
205560,set_tempo,120,1,0,,,,,,529054,,,,,,,
205560,note_on,0,0,1,,,,,,,,,0,,,70,75
205560,note_on,0,0,1,,,,,,,,,0,,,63,75
205560,note_on,0,0,1,,,,,,,,,0,,,63,0
205560,note_on,120,0,1,,,,,,,,,0,,,75,0
205560,note_on,0,0,1,,,,,,,,,0,,,71,0
205680,note_on,120,0,2,,,,,,,,,0,,,51,0
205680,note_on,0,0,2,,,,,,,,,0,,,51,89
205680,note_on,0,0,2,,,,,,,,,0,,,47,89
205680,note_on,0,0,2,,,,,,,,,0,,,46,0
205680,note_on,120,0,1,,,,,,,,,0,,,75,0
205680,note_on,0,0,1,,,,,,,,,0,,,71,80
205680,set_tempo,120,1,0,,,,,,513303,,,,,,,
205680,note_on,0,0,1,,,,,,,,,0,,,63,0
205680,note_on,0,0,1,,,,,,,,,0,,,63,80
205680,note_on,0,0,1,,,,,,,,,0,,,70,0
205680,note_on,0,0,1,,,,,,,,,0,,,75,80
205680,note_on,0,0,2,,,,,,,,,0,,,58,0
205680,note_on,0,0,2,,,,,,,,,0,,,59,89
205800,note_on,0,0,2,,,,,,,,,0,,,47,0
205800,note_on,120,0,1,,,,,,,,,0,,,75,0
205800,note_on,120,0,2,,,,,,,,,0,,,59,0
205800,note_on,0,0,2,,,,,,,,,0,,,46,85
205800,note_on,0,0,2,,,,,,,,,0,,,51,0
205800,note_on,0,0,2,,,,,,,,,0,,,51,85
205800,note_on,0,0,1,,,,,,,,,0,,,75,75
205800,note_on,0,0,1,,,,,,,,,0,,,63,75
205800,note_on,0,0,1,,,,,,,,,0,,,70,75
205800,note_on,0,0,2,,,,,,,,,0,,,58,85
205800,note_on,0,0,1,,,,,,,,,0,,,63,0
205800,note_on,0,0,1,,,,,,,,,0,,,71,0
205920,note_on,0,0,1,,,,,,,,,0,,,63,0
205920,set_tempo,240,1,0,,,,,,474909,,,,,,,
205920,note_on,0,0,2,,,,,,,,,0,,,51,0
205920,note_on,120,0,1,,,,,,,,,0,,,75,0
205920,note_on,120,0,2,,,,,,,,,0,,,58,0
205920,note_on,0,0,2,,,,,,,,,0,,,51,85
205920,note_on,0,0,2,,,,,,,,,0,,,56,85
205920,note_on,0,0,1,,,,,,,,,0,,,75,75
205920,note_on,0,0,2,,,,,,,,,0,,,46,0
205920,note_on,0,0,2,,,,,,,,,0,,,44,85
205920,note_on,0,0,1,,,,,,,,,0,,,70,0
205920,note_on,0,0,1,,,,,,,,,0,,,68,75
205920,note_on,0,0,1,,,,,,,,,0,,,63,75
206160,note_on,0,0,2,,,,,,,,,0,,,44,0
206160,note_on,0,0,1,,,,,,,,,0,,,75,111
206160,note_on,0,0,1,,,,,,,,,0,,,80,111
206160,note_on,0,0,2,,,,,,,,,0,,,32,106
206160,note_on,0,0,2,,,,,,,,,0,,,44,106
206160,note_on,0,0,2,,,,,,,,,0,,,51,0
206160,note_on,0,0,1,,,,,,,,,0,,,87,111
206160,set_tempo,240,1,0,,,,,,472255,,,,,,,
206160,note_on,0,0,2,,,,,,,,,0,,,39,106
206160,note_on,0,0,1,,,,,,,,,0,,,63,0
206160,note_on,0,0,1,,,,,,,,,0,,,68,0
206160,note_on,240,0,2,,,,,,,,,0,,,56,0
206160,note_on,240,0,1,,,,,,,,,0,,,75,0
206181,set_tempo,21,1,0,,,,,,471846,,,,,,,
206400,note_on,240,0,2,,,,,,,,,0,,,44,0
206400,note_on,0,0,2,,,,,,,,,0,,,47,89
206400,note_on,0,0,2,,,,,,,,,0,,,51,89
206400,note_on,0,0,2,,,,,,,,,0,,,59,89
206400,set_tempo,219,1,0,,,,,,446694,,,,,,,
206400,note_on,0,0,2,,,,,,,,,0,,,39,0
206400,note_on,240,0,1,,,,,,,,,0,,,75,0
206400,note_on,0,0,2,,,,,,,,,0,,,32,0
206400,note_on,0,0,1,,,,,,,,,0,,,63,80
206400,note_on,0,0,1,,,,,,,,,0,,,87,0
206400,note_on,0,0,1,,,,,,,,,0,,,71,80
206400,note_on,0,0,1,,,,,,,,,0,,,80,0
206400,note_on,0,0,1,,,,,,,,,0,,,75,80
206520,note_on,0,0,2,,,,,,,,,0,,,51,85
206520,set_tempo,120,1,0,,,,,,475473,,,,,,,
206520,note_on,0,0,1,,,,,,,,,0,,,63,0
206520,note_on,0,0,2,,,,,,,,,0,,,46,85
206520,note_on,0,0,2,,,,,,,,,0,,,47,0
206520,note_on,120,0,1,,,,,,,,,0,,,75,0
206520,note_on,0,0,2,,,,,,,,,0,,,51,0
206520,note_on,0,0,1,,,,,,,,,0,,,75,75
206520,note_on,0,0,2,,,,,,,,,0,,,58,85
206520,note_on,120,0,2,,,,,,,,,0,,,59,0
206520,note_on,0,0,1,,,,,,,,,0,,,71,0
206520,note_on,0,0,1,,,,,,,,,0,,,70,75
206520,note_on,0,0,1,,,,,,,,,0,,,63,75
206640,note_on,0,0,2,,,,,,,,,0,,,44,85
206640,note_on,0,0,2,,,,,,,,,0,,,46,0
206640,note_on,0,0,2,,,,,,,,,0,,,56,85
206640,note_on,0,0,2,,,,,,,,,0,,,51,85
206640,note_on,0,0,2,,,,,,,,,0,,,51,0
206640,set_tempo,120,1,0,,,,,,458856,,,,,,,
206640,note_on,0,0,1,,,,,,,,,0,,,68,75
206640,note_on,120,0,1,,,,,,,,,0,,,75,0
206640,note_on,0,0,1,,,,,,,,,0,,,75,75
206640,note_on,0,0,1,,,,,,,,,0,,,70,0
206640,note_on,120,0,2,,,,,,,,,0,,,58,0
206640,note_on,0,0,1,,,,,,,,,0,,,63,0
206640,note_on,0,0,1,,,,,,,,,0,,,63,75
206880,note_on,0,0,2,,,,,,,,,0,,,44,0
206880,note_on,0,0,2,,,,,,,,,0,,,39,106
206880,note_on,0,0,2,,,,,,,,,0,,,32,106
206880,set_tempo,240,1,0,,,,,,469814,,,,,,,
206880,note_on,240,0,1,,,,,,,,,0,,,75,0
206880,note_on,0,0,1,,,,,,,,,0,,,68,0
206880,note_on,0,0,2,,,,,,,,,0,,,51,0
206880,note_on,240,0,2,,,,,,,,,0,,,56,0
206880,note_on,0,0,2,,,,,,,,,0,,,44,106
206880,note_on,0,0,1,,,,,,,,,0,,,63,0
206880,note_on,0,0,1,,,,,,,,,0,,,80,115
206880,note_on,0,0,1,,,,,,,,,0,,,87,115
206880,note_on,0,0,1,,,,,,,,,0,,,92,115
207120,note_on,0,0,1,,,,,,,,,0,,,80,0
207120,note_on,240,0,1,,,,,,,,,0,,,92,0
207120,note_on,0,0,1,,,,,,,,,0,,,63,80
207120,note_on,0,0,1,,,,,,,,,0,,,71,80
207120,set_tempo,240,1,0,,,,,,446927,,,,,,,
207120,note_on,0,0,1,,,,,,,,,0,,,87,0
207120,note_on,0,0,1,,,,,,,,,0,,,75,80
207120,note_on,0,0,2,,,,,,,,,0,,,39,0
207120,note_on,0,0,2,,,,,,,,,0,,,47,89
207120,note_on,240,0,2,,,,,,,,,0,,,44,0
207120,note_on,0,0,2,,,,,,,,,0,,,32,0
207120,note_on,0,0,2,,,,,,,,,0,,,51,89
207120,note_on,0,0,2,,,,,,,,,0,,,59,89
207240,note_on,0,0,2,,,,,,,,,0,,,46,85
207240,note_on,0,0,2,,,,,,,,,0,,,47,0
207240,note_on,0,0,2,,,,,,,,,0,,,51,0
207240,note_on,0,0,2,,,,,,,,,0,,,51,85
207240,note_on,0,0,2,,,,,,,,,0,,,58,85
207240,set_tempo,120,1,0,,,,,,469998,,,,,,,
207240,note_on,0,0,1,,,,,,,,,0,,,63,0
207240,note_on,0,0,1,,,,,,,,,0,,,63,75
207240,note_on,0,0,1,,,,,,,,,0,,,70,75
207240,note_on,0,0,1,,,,,,,,,0,,,75,75
207240,note_on,0,0,1,,,,,,,,,0,,,71,0
207240,note_on,120,0,2,,,,,,,,,0,,,59,0
207240,note_on,120,0,1,,,,,,,,,0,,,75,0
207360,note_on,0,0,1,,,,,,,,,0,,,63,0
207360,note_on,0,0,1,,,,,,,,,0,,,75,75
207360,note_on,0,0,1,,,,,,,,,0,,,68,75
207360,note_on,120,0,2,,,,,,,,,0,,,58,0
207360,set_tempo,120,1,0,,,,,,457282,,,,,,,
207360,note_on,120,0,1,,,,,,,,,0,,,75,0
207360,note_on,0,0,1,,,,,,,,,0,,,63,75
207360,note_on,0,0,1,,,,,,,,,0,,,70,0
207360,note_on,0,0,2,,,,,,,,,0,,,51,85
207360,note_on,0,0,2,,,,,,,,,0,,,44,85
207360,note_on,0,0,2,,,,,,,,,0,,,46,0
207360,note_on,0,0,2,,,,,,,,,0,,,56,85
207360,note_on,0,0,2,,,,,,,,,0,,,51,0
207600,note_on,0,0,2,,,,,,,,,0,,,39,108
207600,note_on,0,0,2,,,,,,,,,0,,,32,108
207600,note_on,240,0,1,,,,,,,,,0,,,75,0
207600,note_on,0,0,2,,,,,,,,,0,,,44,0
207600,note_on,0,0,2,,,,,,,,,0,,,44,108
207600,note_on,0,0,2,,,,,,,,,0,,,51,0
207600,note_on,0,0,1,,,,,,,,,0,,,95,117
207600,note_on,240,0,2,,,,,,,,,0,,,56,0
207600,note_on,0,0,1,,,,,,,,,0,,,87,117
207600,note_on,0,0,1,,,,,,,,,0,,,83,117
207600,note_on,0,0,1,,,,,,,,,0,,,68,0
207600,note_on,0,0,1,,,,,,,,,0,,,63,0
207600,set_tempo,240,1,0,,,,,,464432,,,,,,,
207840,note_on,0,0,2,,,,,,,,,0,,,59,89
207840,note_on,240,0,1,,,,,,,,,0,,,95,0
207840,note_on,0,0,2,,,,,,,,,0,,,51,89
207840,note_on,0,0,1,,,,,,,,,0,,,75,80
207840,note_on,0,0,2,,,,,,,,,0,,,39,0
207840,note_on,0,0,1,,,,,,,,,0,,,71,80
207840,set_tempo,240,1,0,,,,,,441924,,,,,,,
207840,note_on,240,0,2,,,,,,,,,0,,,44,0
207840,note_on,0,0,2,,,,,,,,,0,,,32,0
207840,note_on,0,0,1,,,,,,,,,0,,,63,80
207840,note_on,0,0,1,,,,,,,,,0,,,83,0
207840,note_on,0,0,2,,,,,,,,,0,,,47,89
207840,note_on,0,0,1,,,,,,,,,0,,,87,0
207960,note_on,0,0,2,,,,,,,,,0,,,51,85
207960,set_tempo,120,1,0,,,,,,481502,,,,,,,
207960,note_on,0,0,1,,,,,,,,,0,,,63,0
207960,note_on,120,0,1,,,,,,,,,0,,,75,0
207960,note_on,0,0,2,,,,,,,,,0,,,46,85
207960,note_on,120,0,2,,,,,,,,,0,,,59,0
207960,note_on,0,0,2,,,,,,,,,0,,,47,0
207960,note_on,0,0,1,,,,,,,,,0,,,63,75
207960,note_on,0,0,2,,,,,,,,,0,,,58,85
207960,note_on,0,0,2,,,,,,,,,0,,,51,0
207960,note_on,0,0,1,,,,,,,,,0,,,75,75
207960,note_on,0,0,1,,,,,,,,,0,,,71,0
207960,note_on,0,0,1,,,,,,,,,0,,,70,75
208080,note_on,120,0,1,,,,,,,,,0,,,75,0
208080,note_on,0,0,1,,,,,,,,,0,,,63,0
208080,note_on,0,0,1,,,,,,,,,0,,,75,75
208080,note_on,0,0,1,,,,,,,,,0,,,63,75
208080,note_on,0,0,2,,,,,,,,,0,,,44,85
208080,note_on,0,0,2,,,,,,,,,0,,,51,0
208080,note_on,0,0,1,,,,,,,,,0,,,70,0
208080,note_on,0,0,2,,,,,,,,,0,,,51,85
208080,note_on,0,0,2,,,,,,,,,0,,,56,85
208080,note_on,120,0,2,,,,,,,,,0,,,58,0
208080,set_tempo,120,1,0,,,,,,497636,,,,,,,
208080,note_on,0,0,2,,,,,,,,,0,,,46,0
208080,note_on,0,0,1,,,,,,,,,0,,,68,75
208300,set_tempo,220,1,0,,,,,,604290,,,,,,,
208320,note_on,0,0,2,,,,,,,,,0,,,32,108
208320,note_on,0,0,2,,,,,,,,,0,,,39,108
208320,note_on,0,0,2,,,,,,,,,0,,,44,0
208320,note_on,0,0,2,,,,,,,,,0,,,44,108
208320,note_on,240,0,1,,,,,,,,,0,,,75,0
208320,note_on,0,0,2,,,,,,,,,0,,,51,0
208320,note_on,240,0,2,,,,,,,,,0,,,56,0
208320,note_on,0,0,1,,,,,,,,,0,,,68,0
208320,note_on,0,0,1,,,,,,,,,0,,,99,119
208320,note_on,0,0,1,,,,,,,,,0,,,63,0
208320,note_on,0,0,1,,,,,,,,,0,,,87,119
208320,note_on,0,0,1,,,,,,,,,0,,,92,119
208321,set_tempo,21,1,0,,,,,,614943,,,,,,,
208560,set_tempo,239,1,0,,,,,,409892,,,,,,,
208561,set_tempo,1,1,0,,,,,,408136,,,,,,,
208800,note_on,480,0,1,,,,,,,,,0,,,87,0
208800,note_on,0,0,2,,,,,,,,,0,,,56,75
208800,note_on,0,0,2,,,,,,,,,0,,,51,75
208800,note_on,0,0,2,,,,,,,,,0,,,44,75
208800,note_on,0,0,2,,,,,,,,,0,,,39,0
208800,set_tempo,239,1,0,,,,,,333333,,,,,,,
208800,note_on,480,0,2,,,,,,,,,0,,,44,0
208800,note_on,0,0,2,,,,,,,,,0,,,32,0
208800,note_on,0,0,1,,,,,,,,,0,,,87,102
208800,note_on,0,0,1,,,,,,,,,0,,,92,0
208800,note_on,0,0,1,,,,,,,,,0,,,92,102
208800,note_on,0,0,1,,,,,,,,,0,,,99,0
208800,note_on,0,0,1,,,,,,,,,0,,,99,102
208920,set_tempo,120,1,0,,,,,,334262,,,,,,,
209040,note_on,0,0,1,,,,,,,,,0,,,99,104
209040,set_tempo,120,1,0,,,,,,335196,,,,,,,
209040,note_on,240,0,2,,,,,,,,,0,,,56,0
209040,note_on,0,0,2,,,,,,,,,0,,,68,78
209040,note_on,0,0,2,,,,,,,,,0,,,63,78
209040,note_on,0,0,2,,,,,,,,,0,,,56,78
209040,note_on,0,0,1,,,,,,,,,0,,,92,104
209040,note_on,0,0,2,,,,,,,,,0,,,44,0
209040,note_on,0,0,2,,,,,,,,,0,,,51,0
209040,note_on,0,0,1,,,,,,,,,0,,,87,0
209040,note_on,0,0,1,,,,,,,,,0,,,87,104
209040,note_on,0,0,1,,,,,,,,,0,,,92,0
209040,note_on,240,0,1,,,,,,,,,0,,,99,0
209160,set_tempo,120,1,0,,,,,,336134,,,,,,,
209280,note_on,0,0,2,,,,,,,,,0,,,80,82
209280,note_on,0,0,2,,,,,,,,,0,,,75,82
209280,note_on,0,0,2,,,,,,,,,0,,,68,82
209280,note_on,0,0,2,,,,,,,,,0,,,68,0
209280,note_on,0,0,2,,,,,,,,,0,,,63,0
209280,note_on,0,0,1,,,,,,,,,0,,,92,102
209280,note_on,0,0,1,,,,,,,,,0,,,99,102
209280,note_on,240,0,1,,,,,,,,,0,,,99,0
209280,note_on,0,0,1,,,,,,,,,0,,,87,102
209280,note_on,0,0,1,,,,,,,,,0,,,87,0
209280,set_tempo,120,1,0,,,,,,337079,,,,,,,
209280,note_on,240,0,2,,,,,,,,,0,,,56,0
209280,note_on,0,0,1,,,,,,,,,0,,,92,0
209300,set_tempo,20,1,0,,,,,,336134,,,,,,,
209420,set_tempo,120,1,0,,,,,,335196,,,,,,,
209520,note_on,0,0,1,,,,,,,,,0,,,92,104
209520,note_on,240,0,2,,,,,,,,,0,,,68,0
209520,note_on,0,0,1,,,,,,,,,0,,,87,0
209520,note_on,0,0,2,,,,,,,,,0,,,63,85
209520,note_on,0,0,2,,,,,,,,,0,,,56,85
209520,note_on,0,0,1,,,,,,,,,0,,,99,104
209520,note_on,240,0,1,,,,,,,,,0,,,99,0
209520,note_on,0,0,2,,,,,,,,,0,,,80,0
209520,note_on,0,0,2,,,,,,,,,0,,,75,0
209520,note_on,0,0,2,,,,,,,,,0,,,68,85
209520,note_on,0,0,1,,,,,,,,,0,,,87,104
209520,note_on,0,0,1,,,,,,,,,0,,,92,0
209540,set_tempo,120,1,0,,,,,,334262,,,,,,,
209640,set_tempo,100,1,0,,,,,,333333,,,,,,,
209760,note_on,0,0,2,,,,,,,,,0,,,63,0
209760,note_on,0,0,1,,,,,,,,,0,,,92,0
209760,note_on,0,0,1,,,,,,,,,0,,,92,112
209760,set_tempo,120,1,0,,,,,,332410,,,,,,,
209760,note_on,240,0,2,,,,,,,,,0,,,56,0
209760,note_on,240,0,1,,,,,,,,,0,,,99,0
209760,note_on,0,0,2,,,,,,,,,0,,,44,84
209760,note_on,0,0,2,,,,,,,,,0,,,51,84
209760,note_on,0,0,2,,,,,,,,,0,,,56,84
209760,note_on,0,0,1,,,,,,,,,0,,,87,112
209760,note_on,0,0,2,,,,,,,,,0,,,68,0
209760,note_on,0,0,1,,,,,,,,,0,,,87,0
209760,note_on,0,0,1,,,,,,,,,0,,,99,112
209880,set_tempo,120,1,0,,,,,,331492,,,,,,,
209980,set_tempo,100,1,0,,,,,,330579,,,,,,,
209981,set_tempo,1,1,0,,,,,,370393,,,,,,,
210000,set_tempo,19,1,0,,,,,,398857,,,,,,,
210000,note_on,0,0,2,,,,,,,,,0,,,39,88
210000,note_on,0,0,2,,,,,,,,,0,,,44,0
210000,note_on,0,0,2,,,,,,,,,0,,,44,88
210000,note_on,0,0,1,,,,,,,,,0,,,87,0
210000,note_on,0,0,2,,,,,,,,,0,,,51,0
210000,control_change,0,0,2,,,,,,,,,0,64,127,,
210000,note_on,0,0,2,,,,,,,,,0,,,32,88
210000,note_on,0,0,1,,,,,,,,,0,,,87,117
210000,note_on,240,0,1,,,,,,,,,0,,,99,0
210000,note_on,0,0,1,,,,,,,,,0,,,99,117
210000,note_on,0,0,1,,,,,,,,,0,,,92,0
210000,note_on,0,0,1,,,,,,,,,0,,,92,117
210000,note_on,240,0,2,,,,,,,,,0,,,56,0
210001,set_tempo,1,1,0,,,,,,472441,,,,,,,
210240,note_on,240,0,1,,,,,,,,,0,,,99,0
210240,note_on,240,0,2,,,,,,,,,0,,,44,0
210240,note_on,0,0,2,,,,,,,,,0,,,39,0
210240,note_on,0,0,2,,,,,,,,,0,,,32,0
210240,note_on,0,0,1,,,,,,,,,0,,,87,0
210240,note_on,0,0,1,,,,,,,,,0,,,92,0
210720,note_on,0,0,1,,,,,,,,,0,,,63,104
210720,note_on,480,0,2,,,,,,,,,0,,,44,96
210720,note_on,0,0,2,,,,,,,,,0,,,56,96
210720,note_on,0,0,2,,,,,,,,,0,,,51,96
210720,set_tempo,719,1,0,,,,,,485830,,,,,,,
210720,note_on,480,0,1,,,,,,,,,0,,,59,104
210720,note_on,0,0,1,,,,,,,,,0,,,68,104
210960,note_on,0,0,2,,,,,,,,,0,,,51,0
210960,note_on,0,0,2,,,,,,,,,0,,,44,0
210960,note_on,0,0,1,,,,,,,,,0,,,59,0
210960,note_on,240,0,2,,,,,,,,,0,,,56,0
210960,note_on,240,0,1,,,,,,,,,0,,,68,0
210960,note_on,0,0,1,,,,,,,,,0,,,63,0
211440,note_on,0,0,2,,,,,,,,,0,,,71,101
211440,note_on,0,0,2,,,,,,,,,0,,,68,101
211440,note_on,0,0,2,,,,,,,,,0,,,63,101
211440,note_on,480,0,2,,,,,,,,,0,,,59,101
211440,note_on,0,0,1,,,,,,,,,0,,,87,101
211440,note_on,480,0,1,,,,,,,,,0,,,92,106
211440,note_on,0,0,1,,,,,,,,,0,,,83,101
211440,note_on,0,0,1,,,,,,,,,0,,,80,101
212773,control_change,1333,0,2,,,,,,,,,0,64,0,,
212880,note_on,0,0,1,,,,,,,,,0,,,83,0
212880,note_on,0,0,1,,,,,,,,,0,,,92,0
212880,end_of_track,0,1,2,,,,,,,,,,,,,
212880,note_on,0,0,2,,,,,,,,,0,,,68,0
212880,note_on,0,0,2,,,,,,,,,0,,,63,0
212880,note_on,0,0,2,,,,,,,,,0,,,59,0
212880,end_of_track,0,1,1,,,,,,,,,,,,,
212880,note_on,0,0,1,,,,,,,,,0,,,87,0
212880,note_on,107,0,2,,,,,,,,,0,,,71,0
212880,note_on,1440,0,1,,,,,,,,,0,,,80,0
212880,marker,2160,1,0,,,,,,,,,,,,,
214560,set_tempo,1680,1,0,,,,,,600000,,,,,,,
217440,set_tempo,2880,1,0,,,,,,600000,,,,,,,
217440,end_of_track,0,1,0,,,,,,,,,,,,,
