tick,type,time,meta,track,numerator,denominator,clocks_per_click,notated_32nd_notes_per_beat,key,tempo,program,channel,control,value,note,velocity
0,control_change,0,0,1,,,,,,,,0,7,127,,
0,note_on,0,0,3,,,,,,,,2,,,40,90
0,note_on,0,0,4,,,,,,,,3,,,43,90
0,track_name,0,1,3,,,,,,,,,,,,
0,program_change,0,0,1,,,,,,,0,0,,,,
0,program_change,0,0,2,,,,,,,0,1,,,,
0,program_change,0,0,3,,,,,,,0,2,,,,
0,program_change,0,0,4,,,,,,,0,3,,,,
0,key_signature,0,1,0,,,,,C,,,,,,,
0,set_tempo,0,1,0,,,,,,300000,,,,,,
0,text,0,1,0,,,,,,,,,,,,
0,text,0,1,0,,,,,,,,,,,,
0,text,0,1,0,,,,,,,,,,,,
0,time_signature,0,1,0,3,8,12,8,,,,,,,,
0,track_name,0,1,0,,,,,,,,,,,,
0,track_name,0,1,1,,,,,,,,,,,,
0,track_name,0,1,2,,,,,,,,,,,,
0,text,0,1,0,,,,,,,,,,,,
0,end_of_track,0,1,5,,,,,,,,,,,,
0,track_name,0,1,4,,,,,,,,,,,,
0,control_change,0,0,1,,,,,,,,0,10,110,,
0,control_change,0,0,2,,,,,,,,1,7,127,,
0,control_change,0,0,2,,,,,,,,1,10,80,,
0,control_change,0,0,3,,,,,,,,2,7,127,,
0,control_change,0,0,3,,,,,,,,2,10,32,,
0,control_change,0,0,4,,,,,,,,3,7,127,,
0,control_change,0,0,4,,,,,,,,3,10,20,,
40,note_on,40,0,4,,,,,,,,3,,,45,73
80,note_on,40,0,4,,,,,,,,3,,,49,84
108,note_on,108,0,3,,,,,,,,2,,,40,0
114,note_on,34,0,4,,,,,,,,3,,,43,0
120,note_on,6,0,4,,,,,,,,3,,,52,93
134,note_on,14,0,4,,,,,,,,3,,,45,0
154,note_on,20,0,4,,,,,,,,3,,,49,0
174,note_on,20,0,4,,,,,,,,3,,,52,0
240,note_on,132,0,3,,,,,,,,2,,,42,90
240,note_on,66,0,4,,,,,,,,3,,,54,90
348,note_on,108,0,4,,,,,,,,3,,,54,0
348,note_on,108,0,3,,,,,,,,2,,,42,0
480,note_on,132,0,3,,,,,,,,2,,,43,90
480,note_on,132,0,4,,,,,,,,3,,,55,90
588,note_on,108,0,4,,,,,,,,3,,,55,0
588,note_on,108,0,3,,,,,,,,2,,,43,0
720,note_on,132,0,4,,,,,,,,3,,,45,73
720,time_signature,720,1,0,6,8,12,8,,,,,,,,
720,note_on,132,0,3,,,,,,,,2,,,43,90
760,note_on,40,0,4,,,,,,,,3,,,48,85
800,note_on,40,0,4,,,,,,,,3,,,55,94
828,note_on,108,0,3,,,,,,,,2,,,43,0
834,note_on,34,0,4,,,,,,,,3,,,45,0
854,note_on,20,0,4,,,,,,,,3,,,48,0
874,note_on,20,0,4,,,,,,,,3,,,55,0
960,note_on,86,0,4,,,,,,,,3,,,54,90
960,note_on,132,0,3,,,,,,,,2,,,42,90
1068,note_on,108,0,3,,,,,,,,2,,,42,0
1068,note_on,108,0,4,,,,,,,,3,,,54,0
1200,note_on,132,0,3,,,,,,,,2,,,40,90
1200,note_on,132,0,4,,,,,,,,3,,,52,90
1308,note_on,108,0,4,,,,,,,,3,,,52,0
1308,note_on,108,0,3,,,,,,,,2,,,40,0
1440,note_on,132,0,4,,,,,,,,3,,,43,82
1440,note_on,132,0,3,,,,,,,,2,,,40,90
1480,note_on,40,0,4,,,,,,,,3,,,46,87
1520,note_on,40,0,4,,,,,,,,3,,,49,94
1538,note_on,18,0,4,,,,,,,,3,,,49,0
1548,note_on,108,0,3,,,,,,,,2,,,40,0
1554,note_on,16,0,4,,,,,,,,3,,,43,0
1560,note_on,6,0,4,,,,,,,,3,,,49,99
1560,note_on,0,0,4,,,,,,,,3,,,52,99
1574,note_on,14,0,4,,,,,,,,3,,,46,0
1614,note_on,40,0,4,,,,,,,,3,,,52,0
1614,note_on,0,0,4,,,,,,,,3,,,49,0
1680,note_on,132,0,3,,,,,,,,2,,,42,90
1680,note_on,66,0,4,,,,,,,,3,,,54,90
1788,note_on,108,0,3,,,,,,,,2,,,42,0
1788,note_on,108,0,4,,,,,,,,3,,,54,0
1920,note_on,132,0,4,,,,,,,,3,,,55,90
1920,note_on,132,0,3,,,,,,,,2,,,43,90
2028,note_on,108,0,3,,,,,,,,2,,,43,0
2028,note_on,108,0,4,,,,,,,,3,,,55,0
2160,note_on,132,0,3,,,,,,,,2,,,43,90
2160,note_on,132,0,4,,,,,,,,3,,,45,87
2200,note_on,40,0,4,,,,,,,,3,,,48,94
2240,note_on,40,0,4,,,,,,,,3,,,55,100
2268,note_on,108,0,3,,,,,,,,2,,,43,0
2274,note_on,34,0,4,,,,,,,,3,,,45,0
2294,note_on,20,0,4,,,,,,,,3,,,48,0
2314,note_on,20,0,4,,,,,,,,3,,,55,0
2400,note_on,86,0,4,,,,,,,,3,,,54,90
2400,note_on,132,0,3,,,,,,,,2,,,42,90
2508,note_on,108,0,4,,,,,,,,3,,,54,0
2508,note_on,108,0,3,,,,,,,,2,,,42,0
2640,note_on,132,0,4,,,,,,,,3,,,52,90
2640,note_on,132,0,3,,,,,,,,2,,,40,90
2748,note_on,108,0,3,,,,,,,,2,,,40,0
2748,note_on,108,0,4,,,,,,,,3,,,52,0
2880,note_on,132,0,3,,,,,,,,2,,,40,90
2880,note_on,132,0,4,,,,,,,,3,,,43,75
2920,note_on,40,0,4,,,,,,,,3,,,46,81
2960,note_on,40,0,4,,,,,,,,3,,,49,89
2978,note_on,18,0,4,,,,,,,,3,,,49,0
2988,note_on,108,0,3,,,,,,,,2,,,40,0
2994,note_on,16,0,4,,,,,,,,3,,,43,0
3000,note_on,6,0,4,,,,,,,,3,,,49,96
3000,note_on,0,0,4,,,,,,,,3,,,52,96
3014,note_on,14,0,4,,,,,,,,3,,,46,0
3054,note_on,40,0,4,,,,,,,,3,,,52,0
3054,note_on,0,0,4,,,,,,,,3,,,49,0
3120,note_on,132,0,3,,,,,,,,2,,,42,90
3120,note_on,66,0,4,,,,,,,,3,,,54,90
3228,note_on,108,0,3,,,,,,,,2,,,42,0
3228,note_on,108,0,4,,,,,,,,3,,,54,0
3360,note_on,132,0,3,,,,,,,,2,,,43,90
3360,note_on,132,0,4,,,,,,,,3,,,55,90
3468,note_on,108,0,3,,,,,,,,2,,,43,0
3468,note_on,108,0,4,,,,,,,,3,,,55,0
3600,note_on,132,0,3,,,,,,,,2,,,43,90
3600,note_on,132,0,4,,,,,,,,3,,,47,73
3640,note_on,40,0,4,,,,,,,,3,,,50,79
3680,note_on,40,0,4,,,,,,,,3,,,53,85
3708,note_on,108,0,3,,,,,,,,2,,,43,0
3714,note_on,34,0,4,,,,,,,,3,,,47,0
3720,note_on,6,0,4,,,,,,,,3,,,55,92
3734,note_on,14,0,4,,,,,,,,3,,,50,0
3754,note_on,20,0,4,,,,,,,,3,,,53,0
3774,note_on,20,0,4,,,,,,,,3,,,55,0
3840,note_on,132,0,3,,,,,,,,2,,,45,90
3840,note_on,66,0,4,,,,,,,,3,,,57,99
3948,note_on,108,0,4,,,,,,,,3,,,57,0
3948,note_on,108,0,3,,,,,,,,2,,,45,0
4080,note_on,132,0,3,,,,,,,,2,,,47,90
4080,set_tempo,3360,1,0,,,,,,298924,,,,,,
4080,note_on,132,0,4,,,,,,,,3,,,59,90
4128,set_tempo,48,1,0,,,,,,299880,,,,,,
4176,set_tempo,48,1,0,,,,,,300842,,,,,,
4188,note_on,108,0,4,,,,,,,,3,,,59,0
4188,note_on,108,0,3,,,,,,,,2,,,47,0
4224,set_tempo,48,1,0,,,,,,301811,,,,,,
4272,set_tempo,48,1,0,,,,,,302786,,,,,,
4320,set_tempo,48,1,0,,,,,,303767,,,,,,
4320,note_on,132,0,4,,,,,,,,3,,,51,89
4320,note_on,132,0,3,,,,,,,,2,,,48,90
4360,note_on,40,0,4,,,,,,,,3,,,55,93
4368,set_tempo,48,1,0,,,,,,304754,,,,,,
4400,note_on,40,0,4,,,,,,,,3,,,60,98
4416,set_tempo,48,1,0,,,,,,306748,,,,,,
4428,note_on,108,0,3,,,,,,,,2,,,48,0
4434,note_on,34,0,4,,,,,,,,3,,,51,0
4454,note_on,20,0,4,,,,,,,,3,,,55,0
4464,set_tempo,48,1,0,,,,,,307755,,,,,,
4474,note_on,20,0,4,,,,,,,,3,,,60,0
4512,set_tempo,48,1,0,,,,,,308769,,,,,,
4560,set_tempo,48,1,0,,,,,,309789,,,,,,
4560,note_on,86,0,4,,,,,,,,3,,,62,90
4560,note_on,132,0,3,,,,,,,,2,,,50,90
4608,set_tempo,48,1,0,,,,,,310816,,,,,,
4656,set_tempo,48,1,0,,,,,,311850,,,,,,
4668,note_on,108,0,3,,,,,,,,2,,,50,0
4668,note_on,108,0,4,,,,,,,,3,,,62,0
4704,set_tempo,48,1,0,,,,,,312891,,,,,,
4752,set_tempo,48,1,0,,,,,,314994,,,,,,
4800,note_on,132,0,4,,,,,,,,3,,,63,90
4800,note_on,132,0,3,,,,,,,,2,,,51,90
4800,set_tempo,48,1,0,,,,,,316056,,,,,,
4848,set_tempo,48,1,0,,,,,,317125,,,,,,
4896,set_tempo,48,1,0,,,,,,318201,,,,,,
4908,note_on,108,0,3,,,,,,,,2,,,51,0
4908,note_on,108,0,4,,,,,,,,3,,,63,0
4944,set_tempo,48,1,0,,,,,,319285,,,,,,
4992,set_tempo,48,1,0,,,,,,320376,,,,,,
5040,note_on,132,0,4,,,,,,,,3,,,63,90
5040,note_on,132,0,3,,,,,,,,2,,,51,90
5040,set_tempo,48,1,0,,,,,,321474,,,,,,
5088,set_tempo,48,1,0,,,,,,323694,,,,,,
5136,set_tempo,48,1,0,,,,,,324816,,,,,,
5184,set_tempo,48,1,0,,,,,,325945,,,,,,
5232,set_tempo,48,1,0,,,,,,327082,,,,,,
5256,note_on,216,0,4,,,,,,,,3,,,63,0
5256,note_on,216,0,3,,,,,,,,2,,,51,0
5280,note_on,24,0,4,,,,,,,,3,,,62,90
5280,set_tempo,48,1,0,,,,,,328228,,,,,,
5280,note_on,24,0,3,,,,,,,,2,,,50,90
5328,set_tempo,48,1,0,,,,,,329381,,,,,,
5376,set_tempo,48,1,0,,,,,,330542,,,,,,
5424,set_tempo,48,1,0,,,,,,332889,,,,,,
5472,set_tempo,48,1,0,,,,,,334076,,,,,,
5496,note_on,216,0,4,,,,,,,,3,,,62,0
5496,note_on,216,0,3,,,,,,,,2,,,50,0
5520,set_tempo,48,1,0,,,,,,335270,,,,,,
5520,note_on,24,0,3,,,,,,,,2,,,48,90
5520,note_on,24,0,4,,,,,,,,3,,,60,90
5568,set_tempo,48,1,0,,,,,,336474,,,,,,
5616,set_tempo,48,1,0,,,,,,337686,,,,,,
5664,set_tempo,48,1,0,,,,,,338906,,,,,,
5712,set_tempo,48,1,0,,,,,,341375,,,,,,
5736,note_on,216,0,4,,,,,,,,3,,,60,0
5736,note_on,216,0,3,,,,,,,,2,,,48,0
5760,note_on,24,0,4,,,,,,,,3,,,55,90
5760,note_on,24,0,3,,,,,,,,2,,,43,90
5760,set_tempo,48,1,0,,,,,,342622,,,,,,
5808,set_tempo,48,1,0,,,,,,343879,,,,,,
5856,set_tempo,48,1,0,,,,,,345145,,,,,,
5904,set_tempo,48,1,0,,,,,,346420,,,,,,
5952,set_tempo,48,1,0,,,,,,346420,,,,,,
5976,note_on,216,0,3,,,,,,,,2,,,43,0
5976,note_on,216,0,4,,,,,,,,3,,,55,0
6000,note_on,24,0,3,,,,,,,,2,,,39,90
6000,note_on,24,0,4,,,,,,,,3,,,51,90
6000,set_tempo,48,1,0,,,,,,349000,,,,,,
6048,set_tempo,48,1,0,,,,,,351617,,,,,,
6096,set_tempo,48,1,0,,,,,,354275,,,,,,
6144,set_tempo,48,1,0,,,,,,358337,,,,,,
6192,set_tempo,48,1,0,,,,,,361098,,,,,,
6216,note_on,216,0,4,,,,,,,,3,,,51,0
6216,note_on,216,0,3,,,,,,,,2,,,39,0
6240,note_on,24,0,4,,,,,,,,3,,,48,90
6240,set_tempo,48,1,0,,,,,,363901,,,,,,
6240,note_on,24,0,3,,,,,,,,2,,,36,90
6288,set_tempo,48,1,0,,,,,,368189,,,,,,
6336,set_tempo,48,1,0,,,,,,371103,,,,,,
6384,set_tempo,48,1,0,,,,,,374065,,,,,,
6432,set_tempo,48,1,0,,,,,,377074,,,,,,
6456,note_on,216,0,4,,,,,,,,3,,,48,0
6456,note_on,216,0,3,,,,,,,,2,,,36,0
6480,note_on,0,0,4,,,,,,,,3,,,47,90
6480,note_on,0,0,4,,,,,,,,3,,,45,90
6480,set_tempo,48,1,0,,,,,,445104,,,,,,
6480,control_change,24,0,3,,,,,,,,2,64,127,,
6480,note_on,24,0,4,,,,,,,,3,,,42,90
6480,note_on,0,0,3,,,,,,,,2,,,35,90
6512,control_change,32,0,4,,,,,,,,3,64,127,,
6696,note_on,0,0,4,,,,,,,,3,,,42,0
6696,note_on,0,0,4,,,,,,,,3,,,45,0
6696,note_on,184,0,4,,,,,,,,3,,,47,0
6696,note_on,216,0,3,,,,,,,,2,,,35,0
6720,note_on,24,0,3,,,,,,,,2,,,35,90
6720,note_on,24,0,4,,,,,,,,3,,,40,90
6720,note_on,0,0,4,,,,,,,,3,,,43,90
6720,note_on,0,0,4,,,,,,,,3,,,47,90
6936,note_on,216,0,4,,,,,,,,3,,,47,0
6936,note_on,216,0,3,,,,,,,,2,,,35,0
6936,note_on,0,0,4,,,,,,,,3,,,43,0
6936,note_on,0,0,4,,,,,,,,3,,,40,0
6960,note_on,0,0,4,,,,,,,,3,,,47,90
6960,note_on,24,0,4,,,,,,,,3,,,37,90
6960,note_on,24,0,3,,,,,,,,2,,,35,90
6960,note_on,0,0,4,,,,,,,,3,,,40,90
7176,note_on,216,0,4,,,,,,,,3,,,47,0
7176,note_on,0,0,4,,,,,,,,3,,,37,0
7176,note_on,0,0,4,,,,,,,,3,,,40,0
7176,note_on,216,0,3,,,,,,,,2,,,35,0
7200,note_on,0,0,4,,,,,,,,3,,,42,90
7200,note_on,0,0,4,,,,,,,,3,,,47,90
7200,note_on,24,0,3,,,,,,,,2,,,35,90
7200,note_on,24,0,4,,,,,,,,3,,,39,90
7296,set_tempo,816,1,0,,,,,,336474,,,,,,
7440,control_change,240,0,3,,,,,,,,2,64,0,,
7472,control_change,272,0,4,,,,,,,,3,64,0,,
7848,note_on,408,0,3,,,,,,,,2,,,35,0
8352,note_on,0,0,4,,,,,,,,3,,,42,0
8352,note_on,880,0,4,,,,,,,,3,,,47,0
8352,note_on,0,0,4,,,,,,,,3,,,39,0
9360,note_on,9360,0,2,,,,,,,,1,,,55,86
9360,note_on,1008,0,4,,,,,,,,3,,,40,87
9400,note_on,40,0,2,,,,,,,,1,,,58,92
9400,note_on,40,0,4,,,,,,,,3,,,46,94
9440,note_on,40,0,2,,,,,,,,1,,,61,96
9440,note_on,40,0,4,,,,,,,,3,,,49,99
9480,note_on,40,0,4,,,,,,,,3,,,52,106
9480,note_on,40,0,2,,,,,,,,1,,,64,101
9494,note_on,14,0,4,,,,,,,,3,,,46,0
9494,note_on,14,0,2,,,,,,,,1,,,58,0
9514,note_on,20,0,2,,,,,,,,1,,,61,0
9514,note_on,20,0,4,,,,,,,,3,,,49,0
9534,note_on,20,0,4,,,,,,,,3,,,52,0
9534,note_on,20,0,2,,,,,,,,1,,,64,0
9588,note_on,54,0,2,,,,,,,,1,,,55,0
9588,note_on,54,0,4,,,,,,,,3,,,40,0
9600,note_on,12,0,4,,,,,,,,3,,,54,90
9600,note_on,12,0,2,,,,,,,,1,,,66,90
9708,note_on,108,0,2,,,,,,,,1,,,66,0
9708,note_on,108,0,4,,,,,,,,3,,,54,0
9840,note_on,132,0,2,,,,,,,,1,,,67,90
9840,note_on,132,0,4,,,,,,,,3,,,55,90
9948,note_on,108,0,4,,,,,,,,3,,,55,0
9948,note_on,108,0,2,,,,,,,,1,,,67,0
10080,note_on,132,0,2,,,,,,,,1,,,57,82
10080,note_on,132,0,4,,,,,,,,3,,,40,80
10120,note_on,40,0,4,,,,,,,,3,,,45,83
10120,note_on,40,0,2,,,,,,,,1,,,60,85
10160,note_on,40,0,4,,,,,,,,3,,,48,87
10160,note_on,40,0,2,,,,,,,,1,,,67,89
10194,note_on,34,0,2,,,,,,,,1,,,57,0
10194,note_on,34,0,4,,,,,,,,3,,,40,0
10200,note_on,6,0,4,,,,,,,,3,,,55,90
10214,note_on,14,0,4,,,,,,,,3,,,45,0
10214,note_on,20,0,2,,,,,,,,1,,,60,0
10234,note_on,20,0,2,,,,,,,,1,,,67,0
10234,note_on,20,0,4,,,,,,,,3,,,48,0
10254,note_on,20,0,4,,,,,,,,3,,,55,0
10320,note_on,66,0,4,,,,,,,,3,,,54,90
10320,note_on,86,0,2,,,,,,,,1,,,66,90
10428,note_on,108,0,4,,,,,,,,3,,,54,0
10428,note_on,108,0,2,,,,,,,,1,,,66,0
10560,note_on,132,0,4,,,,,,,,3,,,52,90
10560,note_on,132,0,2,,,,,,,,1,,,64,90
10668,note_on,108,0,4,,,,,,,,3,,,52,0
10668,note_on,108,0,2,,,,,,,,1,,,64,0
10800,note_on,132,0,2,,,,,,,,1,,,55,87
10800,note_on,132,0,4,,,,,,,,3,,,40,82
10840,note_on,40,0,2,,,,,,,,1,,,58,91
10840,note_on,40,0,4,,,,,,,,3,,,46,86
10880,note_on,40,0,2,,,,,,,,1,,,61,93
10880,note_on,40,0,4,,,,,,,,3,,,49,89
10914,note_on,34,0,4,,,,,,,,3,,,40,0
10914,note_on,34,0,2,,,,,,,,1,,,55,0
10920,note_on,6,0,4,,,,,,,,3,,,52,92
10920,note_on,6,0,2,,,,,,,,1,,,64,97
10934,note_on,14,0,4,,,,,,,,3,,,46,0
10934,note_on,14,0,2,,,,,,,,1,,,58,0
10954,note_on,20,0,2,,,,,,,,1,,,61,0
10954,note_on,20,0,4,,,,,,,,3,,,49,0
10974,note_on,20,0,4,,,,,,,,3,,,52,0
10974,note_on,20,0,2,,,,,,,,1,,,64,0
11040,note_on,66,0,4,,,,,,,,3,,,54,95
11040,note_on,66,0,2,,,,,,,,1,,,66,90
11148,note_on,108,0,4,,,,,,,,3,,,54,0
11148,note_on,108,0,2,,,,,,,,1,,,66,0
11280,note_on,132,0,4,,,,,,,,3,,,55,90
11280,note_on,132,0,2,,,,,,,,1,,,67,90
11388,note_on,108,0,4,,,,,,,,3,,,55,0
11388,note_on,108,0,2,,,,,,,,1,,,67,0
11520,note_on,132,0,2,,,,,,,,1,,,57,87
11520,note_on,132,0,4,,,,,,,,3,,,40,82
11560,note_on,40,0,4,,,,,,,,3,,,45,85
11560,note_on,40,0,2,,,,,,,,1,,,60,91
11600,note_on,40,0,4,,,,,,,,3,,,48,89
11600,note_on,40,0,2,,,,,,,,1,,,67,97
11634,note_on,34,0,2,,,,,,,,1,,,57,0
11634,note_on,34,0,4,,,,,,,,3,,,40,0
11640,note_on,6,0,4,,,,,,,,3,,,55,92
11654,note_on,14,0,4,,,,,,,,3,,,45,0
11654,note_on,20,0,2,,,,,,,,1,,,60,0
11674,note_on,20,0,4,,,,,,,,3,,,48,0
11674,note_on,20,0,2,,,,,,,,1,,,67,0
11694,note_on,20,0,4,,,,,,,,3,,,55,0
11760,note_on,66,0,4,,,,,,,,3,,,54,91
11760,note_on,86,0,2,,,,,,,,1,,,66,90
11868,note_on,108,0,4,,,,,,,,3,,,54,0
11868,note_on,108,0,2,,,,,,,,1,,,66,0
12000,note_on,132,0,4,,,,,,,,3,,,52,90
12000,note_on,132,0,2,,,,,,,,1,,,64,90
12108,note_on,108,0,4,,,,,,,,3,,,52,0
12108,note_on,108,0,2,,,,,,,,1,,,64,0
12240,note_on,132,0,4,,,,,,,,3,,,40,86
12240,note_on,132,0,2,,,,,,,,1,,,55,88
12280,note_on,40,0,2,,,,,,,,1,,,58,92
12280,note_on,40,0,4,,,,,,,,3,,,46,92
12320,note_on,40,0,4,,,,,,,,3,,,49,97
12320,note_on,40,0,2,,,,,,,,1,,,61,96
12354,note_on,34,0,4,,,,,,,,3,,,40,0
12354,note_on,34,0,2,,,,,,,,1,,,55,0
12360,note_on,6,0,4,,,,,,,,3,,,52,103
12360,note_on,6,0,2,,,,,,,,1,,,64,100
12374,note_on,14,0,2,,,,,,,,1,,,58,0
12374,note_on,14,0,4,,,,,,,,3,,,46,0
12394,note_on,20,0,2,,,,,,,,1,,,61,0
12394,note_on,20,0,4,,,,,,,,3,,,49,0
12414,note_on,20,0,4,,,,,,,,3,,,52,0
12414,note_on,20,0,2,,,,,,,,1,,,64,0
12480,note_on,66,0,2,,,,,,,,1,,,66,90
12480,note_on,66,0,4,,,,,,,,3,,,54,90
12588,note_on,108,0,4,,,,,,,,3,,,54,0
12588,note_on,108,0,2,,,,,,,,1,,,66,0
12720,note_on,132,0,4,,,,,,,,3,,,55,90
12720,note_on,132,0,2,,,,,,,,1,,,67,90
12828,note_on,108,0,2,,,,,,,,1,,,67,0
12828,note_on,108,0,4,,,,,,,,3,,,55,0
12960,note_on,132,0,4,,,,,,,,3,,,43,83
12960,note_on,132,0,2,,,,,,,,1,,,59,84
13000,note_on,40,0,2,,,,,,,,1,,,62,88
13000,note_on,40,0,4,,,,,,,,3,,,47,88
13040,note_on,40,0,4,,,,,,,,3,,,50,94
13040,note_on,40,0,2,,,,,,,,1,,,65,94
13074,note_on,34,0,4,,,,,,,,3,,,43,0
13074,note_on,34,0,2,,,,,,,,1,,,59,0
13080,note_on,6,0,2,,,,,,,,1,,,67,99
13080,note_on,6,0,4,,,,,,,,3,,,55,99
13094,note_on,14,0,4,,,,,,,,3,,,47,0
13094,note_on,14,0,2,,,,,,,,1,,,62,0
13114,note_on,20,0,2,,,,,,,,1,,,65,0
13114,note_on,20,0,4,,,,,,,,3,,,50,0
13134,note_on,20,0,2,,,,,,,,1,,,67,0
13134,note_on,20,0,4,,,,,,,,3,,,55,0
13200,note_on,66,0,4,,,,,,,,3,,,57,90
13200,note_on,66,0,2,,,,,,,,1,,,69,90
13308,note_on,108,0,2,,,,,,,,1,,,69,0
13308,note_on,108,0,4,,,,,,,,3,,,57,0
13440,note_on,132,0,4,,,,,,,,3,,,59,90
13440,note_on,132,0,2,,,,,,,,1,,,71,90
13548,note_on,108,0,2,,,,,,,,1,,,71,0
13548,note_on,108,0,4,,,,,,,,3,,,59,0
13680,note_on,132,0,4,,,,,,,,3,,,48,90
13680,note_on,132,0,2,,,,,,,,1,,,63,84
13720,note_on,40,0,4,,,,,,,,3,,,55,101
13720,note_on,40,0,2,,,,,,,,1,,,67,93
13760,note_on,40,0,2,,,,,,,,1,,,72,101
13760,note_on,40,0,4,,,,,,,,3,,,60,90
13794,note_on,34,0,2,,,,,,,,1,,,63,0
13794,note_on,34,0,4,,,,,,,,3,,,48,0
13814,note_on,20,0,4,,,,,,,,3,,,55,0
13814,note_on,20,0,2,,,,,,,,1,,,67,0
13834,note_on,20,0,4,,,,,,,,3,,,60,0
13834,note_on,20,0,2,,,,,,,,1,,,72,0
13920,note_on,86,0,2,,,,,,,,1,,,74,90
13920,note_on,0,0,4,,,,,,,,3,,,50,90
13920,note_on,86,0,4,,,,,,,,3,,,62,90
14028,note_on,108,0,2,,,,,,,,1,,,74,0
14028,note_on,108,0,4,,,,,,,,3,,,50,0
14028,note_on,0,0,4,,,,,,,,3,,,62,0
14160,note_on,132,0,4,,,,,,,,3,,,63,90
14160,note_on,0,0,4,,,,,,,,3,,,51,90
14160,note_on,132,0,2,,,,,,,,1,,,75,90
14268,note_on,0,0,4,,,,,,,,3,,,63,0
14268,note_on,108,0,4,,,,,,,,3,,,51,0
14268,note_on,108,0,2,,,,,,,,1,,,75,0
14400,note_on,132,0,2,,,,,,,,1,,,75,90
14400,note_on,132,0,4,,,,,,,,3,,,63,90
14400,note_on,0,0,4,,,,,,,,3,,,51,90
14508,note_on,0,0,4,,,,,,,,3,,,63,0
14508,note_on,108,0,2,,,,,,,,1,,,75,0
14508,note_on,108,0,4,,,,,,,,3,,,51,0
14640,note_on,132,0,2,,,,,,,,1,,,74,90
14640,note_on,132,0,4,,,,,,,,3,,,62,90
14640,note_on,0,0,4,,,,,,,,3,,,50,90
14748,note_on,108,0,2,,,,,,,,1,,,74,0
14748,note_on,108,0,4,,,,,,,,3,,,50,0
14748,note_on,0,0,4,,,,,,,,3,,,62,0
14880,note_on,132,0,4,,,,,,,,3,,,60,90
14880,note_on,0,0,4,,,,,,,,3,,,48,90
14880,note_on,132,0,2,,,,,,,,1,,,72,90
14988,note_on,0,0,4,,,,,,,,3,,,60,0
14988,note_on,108,0,2,,,,,,,,1,,,72,0
14988,note_on,108,0,4,,,,,,,,3,,,48,0
15120,note_on,0,0,4,,,,,,,,3,,,55,90
15120,note_on,132,0,4,,,,,,,,3,,,43,90
15120,note_on,132,0,2,,,,,,,,1,,,67,90
15228,note_on,0,0,4,,,,,,,,3,,,43,0
15228,note_on,108,0,2,,,,,,,,1,,,67,0
15228,note_on,108,0,4,,,,,,,,3,,,55,0
15360,note_on,0,0,4,,,,,,,,3,,,51,90
15360,note_on,132,0,2,,,,,,,,1,,,63,90
15360,note_on,132,0,4,,,,,,,,3,,,39,90
15468,note_on,0,0,4,,,,,,,,3,,,39,0
15468,note_on,108,0,2,,,,,,,,1,,,63,0
15468,note_on,108,0,4,,,,,,,,3,,,51,0
15600,note_on,132,0,4,,,,,,,,3,,,36,90
15600,note_on,0,0,4,,,,,,,,3,,,48,90
15600,note_on,132,0,2,,,,,,,,1,,,60,90
15708,note_on,0,0,4,,,,,,,,3,,,36,0
15708,note_on,108,0,4,,,,,,,,3,,,48,0
15708,note_on,108,0,2,,,,,,,,1,,,60,0
15840,note_on,0,0,4,,,,,,,,3,,,50,90
15840,note_on,0,0,2,,,,,,,,1,,,59,90
15840,note_on,132,0,2,,,,,,,,1,,,55,90
15840,note_on,132,0,4,,,,,,,,3,,,38,90
15948,note_on,0,0,2,,,,,,,,1,,,55,0
15948,note_on,108,0,4,,,,,,,,3,,,50,0
15948,note_on,108,0,2,,,,,,,,1,,,59,0
15948,note_on,0,0,4,,,,,,,,3,,,38,0
16080,note_on,132,0,2,,,,,,,,1,,,57,90
16080,note_on,0,0,2,,,,,,,,1,,,60,90
16080,note_on,132,0,4,,,,,,,,3,,,40,90
16080,note_on,0,0,4,,,,,,,,3,,,43,90
16188,note_on,108,0,4,,,,,,,,3,,,43,0
16188,note_on,0,0,2,,,,,,,,1,,,57,0
16188,note_on,0,0,4,,,,,,,,3,,,40,0
16188,note_on,108,0,2,,,,,,,,1,,,60,0
16320,note_on,0,0,2,,,,,,,,1,,,62,95
16320,note_on,132,0,4,,,,,,,,3,,,38,94
16320,note_on,0,0,4,,,,,,,,3,,,50,94
16320,note_on,132,0,2,,,,,,,,1,,,59,95
16428,note_on,108,0,2,,,,,,,,1,,,62,0
16428,note_on,0,0,2,,,,,,,,1,,,59,0
16428,note_on,108,0,4,,,,,,,,3,,,50,0
16428,note_on,0,0,4,,,,,,,,3,,,38,0
16560,note_on,0,0,4,,,,,,,,3,,,50,91
16560,note_on,132,0,4,,,,,,,,3,,,38,91
16560,note_on,132,0,2,,,,,,,,1,,,59,92
16560,note_on,0,0,2,,,,,,,,1,,,62,92
16668,note_on,0,0,4,,,,,,,,3,,,38,0
16668,note_on,108,0,4,,,,,,,,3,,,50,0
16668,note_on,108,0,2,,,,,,,,1,,,62,0
16668,note_on,0,0,2,,,,,,,,1,,,59,0
16800,note_on,132,0,4,,,,,,,,3,,,39,88
16800,note_on,132,0,2,,,,,,,,1,,,57,89
16800,note_on,0,0,4,,,,,,,,3,,,43,88
16800,note_on,0,0,2,,,,,,,,1,,,60,89
16908,note_on,108,0,2,,,,,,,,1,,,60,0
16908,note_on,0,0,2,,,,,,,,1,,,57,0
16908,note_on,0,0,4,,,,,,,,3,,,39,0
16908,note_on,108,0,4,,,,,,,,3,,,43,0
17040,note_on,0,0,4,,,,,,,,3,,,50,85
17040,note_on,0,0,2,,,,,,,,1,,,59,87
17040,note_on,132,0,4,,,,,,,,3,,,38,85
17040,note_on,132,0,2,,,,,,,,1,,,55,87
17148,note_on,0,0,2,,,,,,,,1,,,55,0
17148,note_on,0,0,4,,,,,,,,3,,,38,0
17148,note_on,108,0,4,,,,,,,,3,,,50,0
17148,note_on,108,0,2,,,,,,,,1,,,59,0
17280,note_on,132,0,4,,,,,,,,3,,,38,82
17280,note_on,0,0,2,,,,,,,,1,,,55,84
17280,note_on,0,0,4,,,,,,,,3,,,50,82
17280,note_on,132,0,2,,,,,,,,1,,,52,84
17388,note_on,108,0,2,,,,,,,,1,,,55,0
17388,note_on,108,0,4,,,,,,,,3,,,50,0
17388,note_on,0,0,2,,,,,,,,1,,,52,0
17388,note_on,0,0,4,,,,,,,,3,,,38,0
17520,note_on,0,0,2,,,,,,,,1,,,57,81
17520,note_on,132,0,4,,,,,,,,3,,,40,79
17520,note_on,0,0,4,,,,,,,,3,,,43,79
17520,note_on,132,0,2,,,,,,,,1,,,54,81
17628,note_on,0,0,4,,,,,,,,3,,,40,0
17628,note_on,108,0,4,,,,,,,,3,,,43,0
17628,note_on,108,0,2,,,,,,,,1,,,57,0
17628,note_on,0,0,2,,,,,,,,1,,,54,0
17760,note_on,132,0,4,,,,,,,,3,,,38,76
17760,note_on,132,0,2,,,,,,,,1,,,55,78
17760,note_on,0,0,4,,,,,,,,3,,,50,76
17760,note_on,0,0,2,,,,,,,,1,,,59,78
17868,note_on,108,0,2,,,,,,,,1,,,59,0
17868,note_on,0,0,4,,,,,,,,3,,,38,0
17868,note_on,0,0,2,,,,,,,,1,,,55,0
17868,note_on,108,0,4,,,,,,,,3,,,50,0
18000,note_on,132,0,4,,,,,,,,3,,,38,74
18000,note_on,132,0,2,,,,,,,,1,,,59,75
18000,note_on,0,0,2,,,,,,,,1,,,62,75
18000,note_on,0,0,4,,,,,,,,3,,,50,74
18030,control_change,30,0,4,,,,,,,,3,64,127,,
18030,control_change,30,0,2,,,,,,,,1,64,127,,
18216,note_on,186,0,4,,,,,,,,3,,,50,0
18216,note_on,0,0,4,,,,,,,,3,,,38,0
18432,note_on,0,0,2,,,,,,,,1,,,59,0
18432,note_on,402,0,2,,,,,,,,1,,,62,0
18480,note_on,0,0,2,,,,,,,,1,,,59,69
18480,note_on,48,0,2,,,,,,,,1,,,55,69
18696,note_on,216,0,2,,,,,,,,1,,,59,0
18696,note_on,0,0,2,,,,,,,,1,,,55,0
18720,note_on,504,0,4,,,,,,,,3,,,59,54
18720,note_on,0,0,4,,,,,,,,3,,,55,54
18720,note_on,0,0,4,,,,,,,,3,,,50,54
18720,note_on,0,0,1,,,,,,,,0,,,79,59
18720,note_on,0,0,1,,,,,,,,0,,,71,59
18720,note_on,18720,0,1,,,,,,,,0,,,83,59
18936,note_on,0,0,1,,,,,,,,0,,,79,0
18936,note_on,0,0,4,,,,,,,,3,,,55,0
18936,note_on,0,0,4,,,,,,,,3,,,59,0
18936,note_on,216,0,1,,,,,,,,0,,,71,0
18936,note_on,216,0,4,,,,,,,,3,,,50,0
18936,note_on,0,0,1,,,,,,,,0,,,83,0
18960,note_on,24,0,4,,,,,,,,3,,,60,58
18960,note_on,0,0,1,,,,,,,,0,,,81,62
18960,note_on,0,0,4,,,,,,,,3,,,57,58
18960,note_on,24,0,1,,,,,,,,0,,,84,62
18960,note_on,0,0,1,,,,,,,,0,,,72,62
18990,control_change,294,0,2,,,,,,,,1,64,0,,
18990,control_change,30,0,4,,,,,,,,3,64,0,,
19176,note_on,0,0,1,,,,,,,,0,,,84,0
19176,note_on,0,0,4,,,,,,,,3,,,60,0
19176,note_on,186,0,4,,,,,,,,3,,,57,0
19176,note_on,216,0,1,,,,,,,,0,,,72,0
19176,note_on,0,0,1,,,,,,,,0,,,81,0
19200,note_on,24,0,4,,,,,,,,3,,,62,62
19200,note_on,0,0,4,,,,,,,,3,,,59,62
19200,note_on,0,0,1,,,,,,,,0,,,74,65
19200,note_on,0,0,1,,,,,,,,0,,,83,65
19200,note_on,24,0,1,,,,,,,,0,,,86,65
19416,note_on,0,0,1,,,,,,,,0,,,86,0
19416,note_on,0,0,1,,,,,,,,0,,,83,0
19416,note_on,216,0,4,,,,,,,,3,,,59,0
19416,note_on,216,0,1,,,,,,,,0,,,74,0
19416,note_on,0,0,4,,,,,,,,3,,,62,0
19440,note_on,0,0,1,,,,,,,,0,,,74,68
19440,note_on,0,0,1,,,,,,,,0,,,83,68
19440,note_on,24,0,1,,,,,,,,0,,,86,68
19440,note_on,0,0,3,,,,,,,,2,,,59,73
19440,note_on,11592,0,3,,,,,,,,2,,,62,73
19656,note_on,0,0,1,,,,,,,,0,,,86,0
19656,note_on,216,0,3,,,,,,,,2,,,59,0
19656,note_on,0,0,3,,,,,,,,2,,,62,0
19656,note_on,216,0,1,,,,,,,,0,,,74,0
19656,note_on,0,0,1,,,,,,,,0,,,83,0
19680,note_on,24,0,1,,,,,,,,0,,,84,71
19680,note_on,0,0,3,,,,,,,,2,,,57,76
19680,note_on,24,0,3,,,,,,,,2,,,60,76
19680,note_on,0,0,1,,,,,,,,0,,,81,71
19680,note_on,0,0,1,,,,,,,,0,,,72,71
19896,note_on,0,0,1,,,,,,,,0,,,81,0
19896,note_on,0,0,1,,,,,,,,0,,,84,0
19896,note_on,0,0,3,,,,,,,,2,,,60,0
19896,note_on,216,0,3,,,,,,,,2,,,57,0
19896,note_on,216,0,1,,,,,,,,0,,,72,0
19920,note_on,24,0,1,,,,,,,,0,,,83,74
19920,note_on,24,0,3,,,,,,,,2,,,59,79
19920,note_on,0,0,3,,,,,,,,2,,,55,79
19920,note_on,0,0,1,,,,,,,,0,,,71,74
19920,note_on,0,0,1,,,,,,,,0,,,79,74
20136,note_on,0,0,3,,,,,,,,2,,,59,0
20136,note_on,216,0,3,,,,,,,,2,,,55,0
20136,note_on,0,0,1,,,,,,,,0,,,79,0
20136,note_on,216,0,1,,,,,,,,0,,,71,0
20136,note_on,0,0,1,,,,,,,,0,,,83,0
20160,note_on,0,0,1,,,,,,,,0,,,67,77
20160,note_on,0,0,1,,,,,,,,0,,,76,77
20160,note_on,0,0,3,,,,,,,,2,,,52,82
20160,note_on,24,0,1,,,,,,,,0,,,79,77
20160,note_on,24,0,3,,,,,,,,2,,,55,82
20376,note_on,0,0,1,,,,,,,,0,,,76,0
20376,note_on,216,0,3,,,,,,,,2,,,52,0
20376,note_on,0,0,1,,,,,,,,0,,,79,0
20376,note_on,0,0,3,,,,,,,,2,,,55,0
20376,note_on,216,0,1,,,,,,,,0,,,67,0
20400,note_on,0,0,1,,,,,,,,0,,,69,81
20400,note_on,0,0,3,,,,,,,,2,,,54,85
20400,note_on,0,0,1,,,,,,,,0,,,78,81
20400,note_on,24,0,1,,,,,,,,0,,,81,81
20400,note_on,24,0,3,,,,,,,,2,,,57,85
20616,note_on,216,0,3,,,,,,,,2,,,54,0
20616,note_on,0,0,1,,,,,,,,0,,,81,0
20616,note_on,216,0,1,,,,,,,,0,,,69,0
20616,note_on,0,0,1,,,,,,,,0,,,78,0
20616,note_on,0,0,3,,,,,,,,2,,,57,0
20640,note_on,0,0,1,,,,,,,,0,,,79,84
20640,note_on,0,0,1,,,,,,,,0,,,71,84
20640,note_on,24,0,1,,,,,,,,0,,,83,84
20640,note_on,0,0,3,,,,,,,,2,,,55,89
20640,note_on,24,0,3,,,,,,,,2,,,59,89
20856,note_on,216,0,3,,,,,,,,2,,,55,0
20856,note_on,0,0,1,,,,,,,,0,,,79,0
20856,note_on,216,0,1,,,,,,,,0,,,71,0
20856,note_on,0,0,1,,,,,,,,0,,,83,0
20856,note_on,0,0,3,,,,,,,,2,,,59,0
20880,note_on,0,0,1,,,,,,,,0,,,83,87
20880,note_on,0,0,1,,,,,,,,0,,,74,87
20880,control_change,24,0,1,,,,,,,,0,64,127,,
20880,note_on,0,0,1,,,,,,,,0,,,86,87
20880,note_on,1464,0,4,,,,,,,,3,,,50,89
20880,note_on,0,0,3,,,,,,,,2,,,59,92
20880,note_on,0,0,3,,,,,,,,2,,,62,92
20880,control_change,24,0,3,,,,,,,,2,64,127,,
21312,note_on,0,0,1,,,,,,,,0,,,86,0
21312,note_on,0,0,3,,,,,,,,2,,,62,0
21312,note_on,0,0,1,,,,,,,,0,,,83,0
21312,note_on,432,0,4,,,,,,,,3,,,50,0
21312,note_on,432,0,1,,,,,,,,0,,,74,0
21312,note_on,432,0,3,,,,,,,,2,,,59,0
21360,note_on,0,0,1,,,,,,,,0,,,71,93
21360,note_on,0,0,1,,,,,,,,0,,,79,93
21360,note_on,48,0,3,,,,,,,,2,,,59,98
21360,note_on,0,0,3,,,,,,,,2,,,55,98
21360,note_on,48,0,1,,,,,,,,0,,,83,93
21576,note_on,0,0,1,,,,,,,,0,,,79,0
21576,note_on,0,0,3,,,,,,,,2,,,59,0
21576,note_on,0,0,1,,,,,,,,0,,,83,0
21576,note_on,216,0,3,,,,,,,,2,,,55,0
21576,note_on,216,0,1,,,,,,,,0,,,71,0
21600,note_on,0,0,2,,,,,,,,1,,,62,97
21600,note_on,2610,0,2,,,,,,,,1,,,59,97
21600,note_on,288,0,4,,,,,,,,3,,,42,38
21600,note_on,24,0,3,,,,,,,,2,,,54,98
21816,note_on,216,0,4,,,,,,,,3,,,42,0
21816,note_on,0,0,2,,,,,,,,1,,,59,0
21816,note_on,216,0,2,,,,,,,,1,,,62,0
21816,note_on,216,0,3,,,,,,,,2,,,54,0
21840,control_change,264,0,1,,,,,,,,0,64,0,,
21840,note_on,24,0,4,,,,,,,,3,,,43,38
21840,note_on,0,0,3,,,,,,,,2,,,47,91
21840,note_on,0,0,2,,,,,,,,1,,,64,92
21840,control_change,24,0,3,,,,,,,,2,64,0,,
21840,note_on,24,0,2,,,,,,,,1,,,61,92
22056,note_on,216,0,3,,,,,,,,2,,,47,0
22056,note_on,216,0,2,,,,,,,,1,,,64,0
22056,note_on,216,0,4,,,,,,,,3,,,43,0
22056,note_on,0,0,2,,,,,,,,1,,,61,0
22080,note_on,24,0,2,,,,,,,,1,,,62,84
22080,note_on,0,0,2,,,,,,,,1,,,66,84
22080,note_on,24,0,4,,,,,,,,3,,,42,38
22080,note_on,24,0,3,,,,,,,,2,,,54,83
22296,note_on,216,0,3,,,,,,,,2,,,54,0
22296,note_on,216,0,4,,,,,,,,3,,,42,0
22296,note_on,0,0,2,,,,,,,,1,,,62,0
22296,note_on,216,0,2,,,,,,,,1,,,66,0
22320,note_on,0,0,2,,,,,,,,1,,,66,77
22320,note_on,24,0,3,,,,,,,,2,,,54,76
22320,note_on,24,0,2,,,,,,,,1,,,62,77
22320,note_on,24,0,4,,,,,,,,3,,,42,38
22536,note_on,216,0,4,,,,,,,,3,,,42,0
22536,note_on,216,0,3,,,,,,,,2,,,54,0
22536,note_on,0,0,2,,,,,,,,1,,,62,0
22536,note_on,216,0,2,,,,,,,,1,,,66,0
22560,note_on,24,0,4,,,,,,,,3,,,43,38
22560,note_on,0,0,2,,,,,,,,1,,,64,70
22560,note_on,24,0,3,,,,,,,,2,,,47,69
22560,note_on,24,0,2,,,,,,,,1,,,61,70
22776,note_on,216,0,2,,,,,,,,1,,,64,0
22776,note_on,216,0,4,,,,,,,,3,,,43,0
22776,note_on,216,0,3,,,,,,,,2,,,47,0
22776,note_on,0,0,2,,,,,,,,1,,,61,0
22800,note_on,24,0,3,,,,,,,,2,,,54,62
22800,note_on,24,0,2,,,,,,,,1,,,59,63
22800,note_on,0,0,2,,,,,,,,1,,,62,63
22800,note_on,24,0,4,,,,,,,,3,,,42,38
23016,note_on,216,0,4,,,,,,,,3,,,42,0
23016,note_on,216,0,2,,,,,,,,1,,,62,0
23016,note_on,216,0,3,,,,,,,,2,,,54,0
23016,note_on,0,0,2,,,,,,,,1,,,59,0
23040,note_on,0,0,2,,,,,,,,1,,,59,56
23040,note_on,24,0,2,,,,,,,,1,,,56,56
23040,note_on,24,0,4,,,,,,,,3,,,42,38
23040,note_on,24,0,3,,,,,,,,2,,,54,55
23256,note_on,0,0,2,,,,,,,,1,,,56,0
23256,note_on,216,0,4,,,,,,,,3,,,42,0
23256,note_on,216,0,2,,,,,,,,1,,,59,0
23256,note_on,216,0,3,,,,,,,,2,,,54,0
23280,note_on,0,0,2,,,,,,,,1,,,61,49
23280,note_on,24,0,2,,,,,,,,1,,,58,49
23280,note_on,24,0,3,,,,,,,,2,,,47,52
23280,note_on,24,0,4,,,,,,,,3,,,43,38
23496,note_on,216,0,3,,,,,,,,2,,,47,0
23496,note_on,216,0,4,,,,,,,,3,,,43,0
23496,note_on,0,0,2,,,,,,,,1,,,58,0
23496,note_on,216,0,2,,,,,,,,1,,,61,0
23520,note_on,24,0,4,,,,,,,,3,,,42,38
23520,note_on,24,0,3,,,,,,,,2,,,54,50
23520,note_on,24,0,2,,,,,,,,1,,,59,42
23520,note_on,0,0,2,,,,,,,,1,,,62,42
23736,note_on,216,0,2,,,,,,,,1,,,62,0
23736,note_on,216,0,4,,,,,,,,3,,,42,0
23736,note_on,0,0,2,,,,,,,,1,,,59,0
23736,note_on,216,0,3,,,,,,,,2,,,54,0
23760,note_on,24,0,3,,,,,,,,2,,,54,64
23760,note_on,0,0,2,,,,,,,,1,,,62,64
23760,note_on,0,0,4,,,,,,,,3,,,42,64
23760,note_on,0,0,2,,,,,,,,1,,,66,64
23760,control_change,24,0,2,,,,,,,,1,64,127,,
23760,control_change,24,0,4,,,,,,,,3,64,127,,
23976,note_on,216,0,4,,,,,,,,3,,,42,0
23976,note_on,216,0,3,,,,,,,,2,,,54,0
24192,note_on,0,0,2,,,,,,,,1,,,62,0
24192,note_on,432,0,2,,,,,,,,1,,,66,0
24240,note_on,0,0,2,,,,,,,,1,,,62,61
24240,note_on,48,0,2,,,,,,,,1,,,59,61
24456,note_on,0,0,2,,,,,,,,1,,,59,0
24456,note_on,216,0,2,,,,,,,,1,,,62,0
24480,note_on,504,0,4,,,,,,,,3,,,54,38
24480,note_on,0,0,3,,,,,,,,2,,,59,43
24480,note_on,2640,0,1,,,,,,,,0,,,86,38
24480,note_on,0,0,1,,,,,,,,0,,,74,38
24480,note_on,0,0,1,,,,,,,,0,,,83,38
24480,note_on,504,0,3,,,,,,,,2,,,62,43
24696,note_on,0,0,1,,,,,,,,0,,,86,0
24696,note_on,216,0,1,,,,,,,,0,,,74,0
24696,note_on,216,0,4,,,,,,,,3,,,54,0
24696,note_on,0,0,3,,,,,,,,2,,,62,0
24696,note_on,216,0,3,,,,,,,,2,,,59,0
24696,note_on,0,0,1,,,,,,,,0,,,83,0
24720,control_change,24,0,4,,,,,,,,3,64,0,,
24720,note_on,0,0,1,,,,,,,,0,,,76,44
24720,note_on,0,0,1,,,,,,,,0,,,85,44
24720,note_on,24,0,3,,,,,,,,2,,,64,48
24720,control_change,264,0,2,,,,,,,,1,64,0,,
24720,note_on,0,0,3,,,,,,,,2,,,61,48
24720,note_on,24,0,1,,,,,,,,0,,,88,44
24936,note_on,0,0,3,,,,,,,,2,,,64,0
24936,note_on,0,0,1,,,,,,,,0,,,85,0
24936,note_on,0,0,1,,,,,,,,0,,,88,0
24936,note_on,216,0,3,,,,,,,,2,,,61,0
24936,note_on,216,0,1,,,,,,,,0,,,76,0
24960,note_on,24,0,1,,,,,,,,0,,,90,50
24960,note_on,0,0,1,,,,,,,,0,,,78,50
24960,note_on,0,0,1,,,,,,,,0,,,86,50
24960,note_on,0,0,3,,,,,,,,2,,,62,53
24960,note_on,24,0,3,,,,,,,,2,,,66,53
25176,note_on,0,0,1,,,,,,,,0,,,90,0
25176,note_on,216,0,1,,,,,,,,0,,,78,0
25176,note_on,216,0,3,,,,,,,,2,,,62,0
25176,note_on,0,0,3,,,,,,,,2,,,66,0
25176,note_on,0,0,1,,,,,,,,0,,,86,0
25200,note_on,24,0,3,,,,,,,,2,,,66,58
25200,note_on,24,0,1,,,,,,,,0,,,90,56
25200,note_on,0,0,3,,,,,,,,2,,,62,58
25200,note_on,0,0,1,,,,,,,,0,,,86,56
25200,note_on,0,0,1,,,,,,,,0,,,78,56
25416,note_on,216,0,3,,,,,,,,2,,,62,0
25416,note_on,0,0,3,,,,,,,,2,,,66,0
25416,note_on,0,0,1,,,,,,,,0,,,86,0
25416,note_on,216,0,1,,,,,,,,0,,,78,0
25416,note_on,0,0,1,,,,,,,,0,,,90,0
25440,note_on,24,0,3,,,,,,,,2,,,64,63
25440,note_on,0,0,3,,,,,,,,2,,,61,63
25440,note_on,0,0,1,,,,,,,,0,,,76,62
25440,note_on,24,0,1,,,,,,,,0,,,88,62
25440,note_on,0,0,1,,,,,,,,0,,,85,62
25656,note_on,0,0,3,,,,,,,,2,,,64,0
25656,note_on,0,0,1,,,,,,,,0,,,88,0
25656,note_on,0,0,1,,,,,,,,0,,,85,0
25656,note_on,216,0,3,,,,,,,,2,,,61,0
25656,note_on,216,0,1,,,,,,,,0,,,76,0
25680,note_on,24,0,1,,,,,,,,0,,,86,68
25680,note_on,0,0,1,,,,,,,,0,,,83,68
25680,note_on,0,0,3,,,,,,,,2,,,59,68
25680,note_on,0,0,1,,,,,,,,0,,,74,68
25680,note_on,24,0,3,,,,,,,,2,,,62,68
25896,note_on,0,0,3,,,,,,,,2,,,62,0
25896,note_on,216,0,3,,,,,,,,2,,,59,0
25896,note_on,0,0,1,,,,,,,,0,,,83,0
25896,note_on,0,0,1,,,,,,,,0,,,86,0
25896,note_on,216,0,1,,,,,,,,0,,,74,0
25920,note_on,24,0,1,,,,,,,,0,,,83,74
25920,note_on,24,0,3,,,,,,,,2,,,59,74
25920,note_on,0,0,3,,,,,,,,2,,,56,74
25920,note_on,0,0,1,,,,,,,,0,,,80,74
25920,note_on,0,0,1,,,,,,,,0,,,71,74
26136,note_on,216,0,1,,,,,,,,0,,,71,0
26136,note_on,0,0,3,,,,,,,,2,,,59,0
26136,note_on,216,0,3,,,,,,,,2,,,56,0
26136,note_on,0,0,1,,,,,,,,0,,,80,0
26136,note_on,0,0,1,,,,,,,,0,,,83,0
26160,note_on,24,0,3,,,,,,,,2,,,61,79
26160,note_on,0,0,1,,,,,,,,0,,,82,80
26160,note_on,0,0,1,,,,,,,,0,,,73,80
26160,note_on,24,0,1,,,,,,,,0,,,85,80
26160,note_on,0,0,3,,,,,,,,2,,,58,79
26376,note_on,0,0,1,,,,,,,,0,,,85,0
26376,note_on,0,0,1,,,,,,,,0,,,82,0
26376,note_on,0,0,3,,,,,,,,2,,,61,0
26376,note_on,216,0,3,,,,,,,,2,,,58,0
26376,note_on,216,0,1,,,,,,,,0,,,73,0
26400,note_on,0,0,3,,,,,,,,2,,,59,84
26400,note_on,0,0,1,,,,,,,,0,,,83,86
26400,note_on,0,0,1,,,,,,,,0,,,74,86
26400,note_on,24,0,1,,,,,,,,0,,,86,86
26400,note_on,24,0,3,,,,,,,,2,,,62,84
26616,note_on,0,0,1,,,,,,,,0,,,83,0
26616,note_on,0,0,1,,,,,,,,0,,,86,0
26616,note_on,0,0,3,,,,,,,,2,,,62,0
26616,note_on,216,0,3,,,,,,,,2,,,59,0
26616,note_on,216,0,1,,,,,,,,0,,,74,0
26640,note_on,0,0,3,,,,,,,,2,,,62,89
26640,note_on,0,0,1,,,,,,,,0,,,86,92
26640,note_on,0,0,1,,,,,,,,0,,,78,92
26640,note_on,24,0,1,,,,,,,,0,,,90,92
26640,set_tempo,19344,1,0,,,,,,333333,,,,,,
26640,note_on,24,0,3,,,,,,,,2,,,66,89
27288,note_on,648,0,1,,,,,,,,0,,,78,0
27288,note_on,0,0,3,,,,,,,,2,,,66,0
27288,note_on,0,0,1,,,,,,,,0,,,90,0
27288,note_on,0,0,1,,,,,,,,0,,,86,0
27288,note_on,648,0,3,,,,,,,,2,,,62,0
27300,note_on,2580,0,4,,,,,,,,3,,,49,91
27354,note_on,54,0,4,,,,,,,,3,,,49,0
27360,note_on,72,0,1,,,,,,,,0,,,90,110
27360,note_on,0,0,3,,,,,,,,2,,,61,110
27360,note_on,0,0,1,,,,,,,,0,,,86,110
27360,note_on,72,0,3,,,,,,,,2,,,66,110
27360,note_on,0,0,1,,,,,,,,0,,,78,110
27360,note_on,0,0,3,,,,,,,,2,,,62,110
28008,note_on,648,0,3,,,,,,,,2,,,61,0
28008,note_on,0,0,3,,,,,,,,2,,,66,0
28008,note_on,0,0,1,,,,,,,,0,,,90,0
28008,note_on,648,0,1,,,,,,,,0,,,78,0
28008,note_on,0,0,3,,,,,,,,2,,,62,0
28008,note_on,0,0,1,,,,,,,,0,,,86,0
28020,note_on,666,0,4,,,,,,,,3,,,48,88
28074,note_on,54,0,4,,,,,,,,3,,,48,0
28080,note_on,0,0,3,,,,,,,,2,,,62,110
28080,note_on,0,0,3,,,,,,,,2,,,60,110
28080,note_on,0,0,1,,,,,,,,0,,,78,110
28080,note_on,0,0,1,,,,,,,,0,,,86,110
28080,note_on,72,0,1,,,,,,,,0,,,90,110
28080,note_on,72,0,3,,,,,,,,2,,,66,110
28728,note_on,0,0,3,,,,,,,,2,,,62,0
28728,note_on,0,0,1,,,,,,,,0,,,86,0
28728,note_on,0,0,3,,,,,,,,2,,,66,0
28728,note_on,0,0,1,,,,,,,,0,,,90,0
28728,note_on,648,0,1,,,,,,,,0,,,78,0
28728,note_on,648,0,3,,,,,,,,2,,,60,0
28740,note_on,666,0,4,,,,,,,,3,,,47,89
28794,note_on,54,0,4,,,,,,,,3,,,47,0
28800,note_on,0,0,1,,,,,,,,0,,,78,110
28800,note_on,72,0,1,,,,,,,,0,,,90,110
28800,note_on,0,0,3,,,,,,,,2,,,62,110
28800,note_on,0,0,1,,,,,,,,0,,,86,110
28800,note_on,72,0,3,,,,,,,,2,,,66,110
28800,note_on,0,0,3,,,,,,,,2,,,59,110
29448,note_on,0,0,3,,,,,,,,2,,,66,0
29448,note_on,648,0,1,,,,,,,,0,,,78,0
29448,note_on,648,0,3,,,,,,,,2,,,59,0
29448,note_on,0,0,1,,,,,,,,0,,,86,0
29448,note_on,0,0,3,,,,,,,,2,,,62,0
29448,note_on,0,0,1,,,,,,,,0,,,90,0
29460,note_on,666,0,4,,,,,,,,3,,,47,90
29514,note_on,54,0,4,,,,,,,,3,,,47,0
29520,note_on,72,0,3,,,,,,,,2,,,66,110
29520,note_on,0,0,1,,,,,,,,0,,,78,110
29520,note_on,0,0,1,,,,,,,,0,,,87,110
29520,note_on,72,0,1,,,,,,,,0,,,90,110
29520,note_on,0,0,3,,,,,,,,2,,,63,110
29520,note_on,0,0,3,,,,,,,,2,,,58,110
30168,note_on,648,0,3,,,,,,,,2,,,58,0
30168,note_on,648,0,1,,,,,,,,0,,,78,0
30168,note_on,0,0,3,,,,,,,,2,,,63,0
30168,note_on,0,0,3,,,,,,,,2,,,66,0
30168,note_on,0,0,1,,,,,,,,0,,,87,0
30168,note_on,0,0,1,,,,,,,,0,,,90,0
30240,control_change,726,0,4,,,,,,,,3,64,127,,
30240,note_on,0,0,2,,,,,,,,1,,,58,65
30240,note_on,0,0,2,,,,,,,,1,,,61,65
30240,note_on,0,0,4,,,,,,,,3,,,34,63
30240,note_on,5520,0,2,,,,,,,,1,,,54,65
30305,note_on,65,0,4,,,,,,,,3,,,34,0
30360,note_on,55,0,4,,,,,,,,3,,,46,64
30369,note_on,129,0,2,,,,,,,,1,,,61,0
30369,note_on,0,0,2,,,,,,,,1,,,54,0
30369,note_on,0,0,2,,,,,,,,1,,,58,0
30425,note_on,65,0,4,,,,,,,,3,,,46,0
30480,note_on,55,0,4,,,,,,,,3,,,34,66
30480,note_on,0,0,2,,,,,,,,1,,,65,69
30480,note_on,0,0,2,,,,,,,,1,,,58,69
30480,note_on,111,0,2,,,,,,,,1,,,54,69
30545,note_on,65,0,4,,,,,,,,3,,,34,0
30600,note_on,55,0,4,,,,,,,,3,,,46,68
30609,note_on,0,0,2,,,,,,,,1,,,54,0
30609,note_on,129,0,2,,,,,,,,1,,,65,0
30609,note_on,0,0,2,,,,,,,,1,,,58,0
30665,note_on,65,0,4,,,,,,,,3,,,46,0
30720,note_on,0,0,2,,,,,,,,1,,,66,72
30720,note_on,0,0,2,,,,,,,,1,,,58,72
30720,note_on,55,0,4,,,,,,,,3,,,34,70
30720,note_on,111,0,2,,,,,,,,1,,,54,72
30785,note_on,65,0,4,,,,,,,,3,,,34,0
30840,note_on,55,0,4,,,,,,,,3,,,46,71
30849,note_on,0,0,2,,,,,,,,1,,,54,0
30849,note_on,0,0,2,,,,,,,,1,,,58,0
30849,note_on,129,0,2,,,,,,,,1,,,66,0
30905,note_on,65,0,4,,,,,,,,3,,,46,0
30960,note_on,111,0,2,,,,,,,,1,,,56,76
30960,note_on,0,0,2,,,,,,,,1,,,66,76
30960,note_on,0,0,2,,,,,,,,1,,,59,76
30960,note_on,55,0,4,,,,,,,,3,,,35,73
31025,note_on,65,0,4,,,,,,,,3,,,35,0
31080,note_on,55,0,4,,,,,,,,3,,,47,75
31089,note_on,0,0,2,,,,,,,,1,,,56,0
31089,note_on,129,0,2,,,,,,,,1,,,66,0
31089,note_on,0,0,2,,,,,,,,1,,,59,0
31145,note_on,65,0,4,,,,,,,,3,,,47,0
31200,note_on,55,0,4,,,,,,,,3,,,35,76
31200,note_on,0,0,2,,,,,,,,1,,,59,80
31200,note_on,0,0,2,,,,,,,,1,,,65,80
31200,note_on,111,0,2,,,,,,,,1,,,56,80
31265,note_on,65,0,4,,,,,,,,3,,,35,0
31320,note_on,55,0,4,,,,,,,,3,,,47,78
31329,note_on,0,0,2,,,,,,,,1,,,59,0
31329,note_on,0,0,2,,,,,,,,1,,,56,0
31329,note_on,129,0,2,,,,,,,,1,,,65,0
31385,note_on,65,0,4,,,,,,,,3,,,47,0
31440,note_on,0,0,2,,,,,,,,1,,,63,84
31440,note_on,0,0,2,,,,,,,,1,,,59,84
31440,note_on,111,0,2,,,,,,,,1,,,56,84
31440,note_on,55,0,4,,,,,,,,3,,,35,80
31505,note_on,65,0,4,,,,,,,,3,,,35,0
31560,note_on,55,0,4,,,,,,,,3,,,47,81
31569,note_on,129,0,2,,,,,,,,1,,,63,0
31569,note_on,0,0,2,,,,,,,,1,,,59,0
31569,note_on,0,0,2,,,,,,,,1,,,56,0
31625,note_on,65,0,4,,,,,,,,3,,,47,0
31680,note_on,1512,0,3,,,,,,,,2,,,59,104
31680,note_on,1512,0,1,,,,,,,,0,,,83,103
31680,note_on,0,0,1,,,,,,,,0,,,74,103
31680,note_on,0,0,1,,,,,,,,0,,,71,103
31680,note_on,0,0,3,,,,,,,,2,,,53,104
31680,note_on,0,0,3,,,,,,,,2,,,56,104
31731,control_change,106,0,4,,,,,,,,3,64,0,,
31939,note_on,0,0,1,,,,,,,,0,,,83,0
31939,note_on,0,0,3,,,,,,,,2,,,56,0
31939,note_on,0,0,1,,,,,,,,0,,,74,0
31939,note_on,259,0,1,,,,,,,,0,,,71,0
31939,note_on,259,0,3,,,,,,,,2,,,53,0
31939,note_on,0,0,3,,,,,,,,2,,,59,0
32160,note_on,221,0,3,,,,,,,,2,,,58,91
32160,note_on,0,0,1,,,,,,,,0,,,70,90
32160,note_on,221,0,1,,,,,,,,0,,,82,90
32289,note_on,129,0,3,,,,,,,,2,,,58,0
32289,note_on,0,0,1,,,,,,,,0,,,82,0
32289,note_on,129,0,1,,,,,,,,0,,,70,0
32400,note_on,0,0,1,,,,,,,,0,,,79,90
32400,note_on,0,0,3,,,,,,,,2,,,58,92
32400,note_on,111,0,1,,,,,,,,0,,,91,90
32400,note_on,0,0,3,,,,,,,,2,,,63,92
32400,note_on,111,0,3,,,,,,,,2,,,67,92
32400,note_on,0,0,1,,,,,,,,0,,,87,90
32616,note_on,0,0,1,,,,,,,,0,,,87,0
32616,note_on,216,0,1,,,,,,,,0,,,79,0
32616,note_on,0,0,1,,,,,,,,0,,,91,0
32616,note_on,0,0,3,,,,,,,,2,,,67,0
32616,note_on,0,0,3,,,,,,,,2,,,63,0
32616,note_on,216,0,3,,,,,,,,2,,,58,0
33093,control_change,1362,0,4,,,,,,,,3,64,127,,
33120,note_on,0,0,2,,,,,,,,1,,,58,90
33120,note_on,27,0,4,,,,,,,,3,,,34,90
33120,note_on,0,0,2,,,,,,,,1,,,63,90
33120,note_on,1551,0,2,,,,,,,,1,,,55,90
33174,note_on,54,0,4,,,,,,,,3,,,34,0
33228,note_on,108,0,2,,,,,,,,1,,,63,0
33228,note_on,0,0,2,,,,,,,,1,,,55,0
33228,note_on,0,0,2,,,,,,,,1,,,58,0
33240,note_on,66,0,4,,,,,,,,3,,,46,90
33294,note_on,54,0,4,,,,,,,,3,,,46,0
33360,note_on,0,0,2,,,,,,,,1,,,65,90
33360,note_on,0,0,2,,,,,,,,1,,,58,90
33360,note_on,66,0,4,,,,,,,,3,,,34,90
33360,note_on,132,0,2,,,,,,,,1,,,55,90
33414,note_on,54,0,4,,,,,,,,3,,,34,0
33468,note_on,0,0,2,,,,,,,,1,,,58,0
33468,note_on,0,0,2,,,,,,,,1,,,55,0
33468,note_on,108,0,2,,,,,,,,1,,,65,0
33480,note_on,66,0,4,,,,,,,,3,,,46,90
33534,note_on,54,0,4,,,,,,,,3,,,46,0
33600,note_on,66,0,4,,,,,,,,3,,,34,90
33600,note_on,132,0,2,,,,,,,,1,,,55,90
33600,note_on,0,0,2,,,,,,,,1,,,67,90
33600,note_on,0,0,2,,,,,,,,1,,,58,90
33654,note_on,54,0,4,,,,,,,,3,,,34,0
33708,note_on,108,0,2,,,,,,,,1,,,67,0
33708,note_on,0,0,2,,,,,,,,1,,,58,0
33708,note_on,0,0,2,,,,,,,,1,,,55,0
33720,note_on,66,0,4,,,,,,,,3,,,46,90
33774,note_on,54,0,4,,,,,,,,3,,,46,0
33840,note_on,0,0,2,,,,,,,,1,,,67,90
33840,note_on,0,0,2,,,,,,,,1,,,59,90
33840,note_on,132,0,2,,,,,,,,1,,,56,90
33840,note_on,66,0,4,,,,,,,,3,,,35,90
33894,note_on,54,0,4,,,,,,,,3,,,35,0
33948,note_on,108,0,2,,,,,,,,1,,,67,0
33948,note_on,0,0,2,,,,,,,,1,,,59,0
33948,note_on,0,0,2,,,,,,,,1,,,56,0
33960,note_on,66,0,4,,,,,,,,3,,,47,90
34014,note_on,54,0,4,,,,,,,,3,,,47,0
34080,note_on,0,0,2,,,,,,,,1,,,65,90
34080,note_on,132,0,2,,,,,,,,1,,,56,90
34080,note_on,66,0,4,,,,,,,,3,,,35,90
34080,note_on,0,0,2,,,,,,,,1,,,59,90
34134,note_on,54,0,4,,,,,,,,3,,,35,0
34188,note_on,0,0,2,,,,,,,,1,,,56,0
34188,note_on,108,0,2,,,,,,,,1,,,65,0
34188,note_on,0,0,2,,,,,,,,1,,,59,0
34200,note_on,66,0,4,,,,,,,,3,,,47,90
34254,note_on,54,0,4,,,,,,,,3,,,47,0
34320,note_on,66,0,4,,,,,,,,3,,,35,90
34320,note_on,0,0,2,,,,,,,,1,,,59,90
34320,note_on,0,0,2,,,,,,,,1,,,63,90
34320,note_on,132,0,2,,,,,,,,1,,,56,90
34374,note_on,54,0,4,,,,,,,,3,,,35,0
34428,note_on,108,0,2,,,,,,,,1,,,63,0
34428,note_on,0,0,2,,,,,,,,1,,,59,0
34428,note_on,0,0,2,,,,,,,,1,,,56,0
34440,note_on,66,0,4,,,,,,,,3,,,47,90
34494,note_on,54,0,4,,,,,,,,3,,,47,0
34508,control_change,14,0,4,,,,,,,,3,64,0,,
34560,note_on,0,0,3,,,,,,,,2,,,56,108
34560,note_on,0,0,1,,,,,,,,0,,,71,108
34560,note_on,0,0,1,,,,,,,,0,,,74,108
34560,note_on,0,0,3,,,,,,,,2,,,53,108
34560,note_on,1944,0,3,,,,,,,,2,,,59,108
34560,note_on,1944,0,1,,,,,,,,0,,,83,108
34776,note_on,0,0,1,,,,,,,,0,,,74,0
34776,note_on,0,0,1,,,,,,,,0,,,83,0
34776,note_on,216,0,3,,,,,,,,2,,,53,0
34776,note_on,216,0,1,,,,,,,,0,,,71,0
34776,note_on,0,0,3,,,,,,,,2,,,59,0
34776,note_on,0,0,3,,,,,,,,2,,,56,0
35040,note_on,0,0,1,,,,,,,,0,,,70,90
35040,note_on,264,0,1,,,,,,,,0,,,82,90
35040,note_on,264,0,3,,,,,,,,2,,,58,90
35148,note_on,108,0,1,,,,,,,,0,,,70,0
35148,note_on,0,0,1,,,,,,,,0,,,82,0
35148,note_on,108,0,3,,,,,,,,2,,,58,0
35280,note_on,0,0,1,,,,,,,,0,,,79,90
35280,note_on,0,0,1,,,,,,,,0,,,85,90
35280,note_on,0,0,1,,,,,,,,0,,,88,90
35280,note_on,132,0,3,,,,,,,,2,,,67,90
35280,note_on,0,0,3,,,,,,,,2,,,64,90
35280,note_on,132,0,1,,,,,,,,0,,,91,90
35280,note_on,0,0,3,,,,,,,,2,,,58,90
35280,note_on,0,0,3,,,,,,,,2,,,61,90
35496,note_on,0,0,1,,,,,,,,0,,,85,0
35496,note_on,0,0,3,,,,,,,,2,,,64,0
35496,note_on,216,0,1,,,,,,,,0,,,79,0
35496,note_on,216,0,3,,,,,,,,2,,,58,0
35496,note_on,0,0,3,,,,,,,,2,,,61,0
35496,note_on,0,0,3,,,,,,,,2,,,67,0
35496,note_on,0,0,1,,,,,,,,0,,,91,0
35496,note_on,0,0,1,,,,,,,,0,,,88,0
36000,note_on,1572,0,2,,,,,,,,1,,,55,90
36000,note_on,0,0,2,,,,,,,,1,,,61,90
36000,note_on,0,0,2,,,,,,,,1,,,64,90
36000,note_on,1492,0,4,,,,,,,,3,,,34,90
36000,note_on,0,0,4,,,,,,,,3,,,46,90
36108,note_on,108,0,4,,,,,,,,3,,,46,0
36108,note_on,0,0,4,,,,,,,,3,,,34,0
36216,note_on,216,0,2,,,,,,,,1,,,64,0
36216,note_on,0,0,2,,,,,,,,1,,,55,0
36216,note_on,0,0,2,,,,,,,,1,,,61,0
36240,note_on,0,0,4,,,,,,,,3,,,47,90
36240,note_on,132,0,4,,,,,,,,3,,,35,90
36348,note_on,0,0,4,,,,,,,,3,,,35,0
36348,note_on,108,0,4,,,,,,,,3,,,47,0
36480,note_on,132,0,4,,,,,,,,3,,,37,90
36480,note_on,0,0,4,,,,,,,,3,,,49,90
36588,note_on,0,0,4,,,,,,,,3,,,37,0
36588,note_on,108,0,4,,,,,,,,3,,,49,0
36720,note_on,0,0,1,,,,,,,,0,,,88,90
36720,note_on,0,0,1,,,,,,,,0,,,79,90
36720,note_on,1224,0,1,,,,,,,,0,,,91,90
36720,note_on,0,0,1,,,,,,,,0,,,83,90
36720,note_on,0,0,2,,,,,,,,1,,,64,90
36720,note_on,0,0,2,,,,,,,,1,,,67,90
36720,note_on,504,0,2,,,,,,,,1,,,59,90
36936,note_on,216,0,1,,,,,,,,0,,,79,0
36936,note_on,0,0,2,,,,,,,,1,,,59,0
36936,note_on,0,0,2,,,,,,,,1,,,64,0
36936,note_on,0,0,1,,,,,,,,0,,,83,0
36936,note_on,0,0,1,,,,,,,,0,,,91,0
36936,note_on,216,0,2,,,,,,,,1,,,67,0
36936,note_on,0,0,1,,,,,,,,0,,,88,0
37440,note_on,504,0,2,,,,,,,,1,,,55,64
37440,note_on,852,0,4,,,,,,,,3,,,35,64
37440,note_on,0,0,4,,,,,,,,3,,,47,64
37440,note_on,0,0,2,,,,,,,,1,,,64,64
37440,note_on,0,0,2,,,,,,,,1,,,59,64
37548,note_on,108,0,4,,,,,,,,3,,,47,0
37548,note_on,0,0,4,,,,,,,,3,,,35,0
37656,note_on,0,0,2,,,,,,,,1,,,59,0
37656,note_on,216,0,2,,,,,,,,1,,,64,0
37656,note_on,0,0,2,,,,,,,,1,,,55,0
37680,note_on,0,0,4,,,,,,,,3,,,51,66
37680,note_on,132,0,4,,,,,,,,3,,,39,66
37788,note_on,108,0,4,,,,,,,,3,,,51,0
37788,note_on,0,0,4,,,,,,,,3,,,39,0
37920,note_on,0,0,4,,,,,,,,3,,,52,67
37920,note_on,132,0,4,,,,,,,,3,,,40,67
38028,note_on,108,0,4,,,,,,,,3,,,52,0
38028,note_on,0,0,4,,,,,,,,3,,,40,0
38160,note_on,132,0,4,,,,,,,,3,,,38,69
38160,note_on,0,0,2,,,,,,,,1,,,52,69
38160,note_on,0,0,4,,,,,,,,3,,,50,69
38160,note_on,504,0,2,,,,,,,,1,,,46,69
38160,note_on,0,0,2,,,,,,,,1,,,55,69
38268,note_on,0,0,4,,,,,,,,3,,,38,0
38268,note_on,108,0,4,,,,,,,,3,,,50,0
38376,note_on,216,0,2,,,,,,,,1,,,55,0
38376,note_on,0,0,2,,,,,,,,1,,,52,0
38376,note_on,0,0,2,,,,,,,,1,,,46,0
38400,note_on,132,0,4,,,,,,,,3,,,42,71
38400,note_on,0,0,4,,,,,,,,3,,,54,71
38508,note_on,108,0,4,,,,,,,,3,,,54,0
38508,note_on,0,0,4,,,,,,,,3,,,42,0
38640,note_on,132,0,4,,,,,,,,3,,,43,72
38640,note_on,0,0,4,,,,,,,,3,,,55,72
38748,note_on,108,0,4,,,,,,,,3,,,55,0
38748,note_on,0,0,4,,,,,,,,3,,,43,0
38880,note_on,1944,0,1,,,,,,,,0,,,52,74
38880,note_on,0,0,1,,,,,,,,0,,,64,74
38880,note_on,132,0,4,,,,,,,,3,,,37,74
38880,note_on,0,0,1,,,,,,,,0,,,55,74
38880,note_on,0,0,4,,,,,,,,3,,,49,74
38880,note_on,0,0,1,,,,,,,,0,,,58,74
38988,note_on,0,0,4,,,,,,,,3,,,37,0
38988,note_on,108,0,4,,,,,,,,3,,,49,0
39096,note_on,0,0,1,,,,,,,,0,,,52,0
39096,note_on,0,0,1,,,,,,,,0,,,58,0
39096,note_on,216,0,1,,,,,,,,0,,,64,0
39096,note_on,0,0,1,,,,,,,,0,,,55,0
39120,note_on,0,0,4,,,,,,,,3,,,54,76
39120,note_on,132,0,4,,,,,,,,3,,,42,76
39228,note_on,0,0,4,,,,,,,,3,,,42,0
39228,note_on,108,0,4,,,,,,,,3,,,54,0
39360,note_on,0,0,4,,,,,,,,3,,,55,77
39360,note_on,132,0,4,,,,,,,,3,,,43,77
39468,note_on,0,0,4,,,,,,,,3,,,43,0
39468,note_on,108,0,4,,,,,,,,3,,,55,0
39600,note_on,504,0,1,,,,,,,,0,,,55,79
39600,note_on,132,0,4,,,,,,,,3,,,38,79
39600,note_on,0,0,1,,,,,,,,0,,,67,79
39600,note_on,0,0,1,,,,,,,,0,,,62,79
39600,note_on,0,0,1,,,,,,,,0,,,58,79
39600,note_on,0,0,4,,,,,,,,3,,,50,79
39708,note_on,0,0,4,,,,,,,,3,,,38,0
39708,note_on,108,0,4,,,,,,,,3,,,50,0
39816,note_on,216,0,1,,,,,,,,0,,,67,0
39816,note_on,0,0,1,,,,,,,,0,,,58,0
39816,note_on,0,0,1,,,,,,,,0,,,55,0
39816,note_on,0,0,1,,,,,,,,0,,,62,0
39840,note_on,132,0,4,,,,,,,,3,,,45,81
39840,note_on,0,0,4,,,,,,,,3,,,57,81
39948,note_on,108,0,4,,,,,,,,3,,,57,0
39948,note_on,0,0,4,,,,,,,,3,,,45,0
40080,note_on,132,0,4,,,,,,,,3,,,46,82
40080,note_on,0,0,4,,,,,,,,3,,,58,82
40188,note_on,0,0,4,,,,,,,,3,,,46,0
40188,note_on,108,0,4,,,,,,,,3,,,58,0
40320,note_on,0,0,1,,,,,,,,0,,,70,84
40320,note_on,0,0,1,,,,,,,,0,,,67,84
40320,note_on,0,0,1,,,,,,,,0,,,61,84
40320,note_on,132,0,4,,,,,,,,3,,,39,84
40320,note_on,504,0,1,,,,,,,,0,,,58,84
40320,note_on,0,0,4,,,,,,,,3,,,51,84
40428,note_on,0,0,4,,,,,,,,3,,,39,0
40428,note_on,108,0,4,,,,,,,,3,,,51,0
40536,note_on,0,0,1,,,,,,,,0,,,61,0
40536,note_on,0,0,1,,,,,,,,0,,,67,0
40536,note_on,216,0,1,,,,,,,,0,,,70,0
40536,note_on,0,0,1,,,,,,,,0,,,58,0
40560,note_on,0,0,4,,,,,,,,3,,,48,86
40560,note_on,132,0,4,,,,,,,,3,,,60,86
40668,note_on,108,0,4,,,,,,,,3,,,48,0
40668,note_on,0,0,4,,,,,,,,3,,,60,0
40800,note_on,0,0,4,,,,,,,,3,,,49,87
40800,note_on,132,0,4,,,,,,,,3,,,61,87
40908,note_on,0,0,4,,,,,,,,3,,,61,0
40908,note_on,108,0,4,,,,,,,,3,,,49,0
41040,control_change,132,0,4,,,,,,,,3,64,127,,
41040,note_on,0,0,4,,,,,,,,3,,,40,106
41040,note_on,0,0,4,,,,,,,,3,,,52,106
41256,note_on,0,0,4,,,,,,,,3,,,52,0
41256,note_on,216,0,4,,,,,,,,3,,,40,0
41400,control_change,144,0,4,,,,,,,,3,64,0,,
41490,control_change,954,0,1,,,,,,,,0,64,127,,
41760,note_on,0,0,1,,,,,,,,0,,,85,112
41760,note_on,270,0,1,,,,,,,,0,,,91,112
41760,note_on,0,0,1,,,,,,,,0,,,82,112
41760,note_on,6264,0,3,,,,,,,,2,,,67,112
41760,note_on,0,0,1,,,,,,,,0,,,79,112
41760,note_on,0,0,3,,,,,,,,2,,,61,112
41760,note_on,0,0,3,,,,,,,,2,,,58,112
42305,set_tempo,15665,1,0,,,,,,464972,,,,,,
42401,set_tempo,96,1,0,,,,,,683995,,,,,,
42696,note_on,0,0,1,,,,,,,,0,,,85,0
42696,note_on,936,0,3,,,,,,,,2,,,58,0
42696,note_on,0,0,1,,,,,,,,0,,,82,0
42696,note_on,936,0,1,,,,,,,,0,,,79,0
42696,note_on,0,0,1,,,,,,,,0,,,91,0
42696,note_on,0,0,3,,,,,,,,2,,,61,0
42696,note_on,0,0,3,,,,,,,,2,,,67,0
42952,control_change,256,0,1,,,,,,,,0,64,0,,
43121,set_tempo,720,1,0,,,,,,311850,,,,,,
43200,note_on,1800,0,4,,,,,,,,3,,,43,67
43216,control_change,520,0,3,,,,,,,,2,64,127,,
43240,note_on,40,0,4,,,,,,,,3,,,46,72
43280,note_on,40,0,4,,,,,,,,3,,,49,79
43314,note_on,34,0,4,,,,,,,,3,,,43,0
43320,note_on,104,0,3,,,,,,,,2,,,51,80
43320,note_on,6,0,4,,,,,,,,3,,,52,85
43334,note_on,14,0,4,,,,,,,,3,,,46,0
43354,note_on,20,0,4,,,,,,,,3,,,49,0
43374,note_on,20,0,4,,,,,,,,3,,,52,0
43409,set_tempo,288,1,0,,,,,,310816,,,,,,
43428,note_on,108,0,3,,,,,,,,2,,,51,0
43440,note_on,66,0,4,,,,,,,,3,,,54,80
43440,note_on,12,0,3,,,,,,,,2,,,52,80
43548,note_on,108,0,3,,,,,,,,2,,,52,0
43548,note_on,108,0,4,,,,,,,,3,,,54,0
43560,note_on,12,0,3,,,,,,,,2,,,53,80
43668,note_on,108,0,3,,,,,,,,2,,,53,0
43680,note_on,12,0,3,,,,,,,,2,,,54,80
43680,note_on,132,0,4,,,,,,,,3,,,55,80
43776,control_change,96,0,3,,,,,,,,2,64,0,,
43788,note_on,108,0,4,,,,,,,,3,,,55,0
43788,note_on,12,0,3,,,,,,,,2,,,54,0
43800,note_on,12,0,3,,,,,,,,2,,,55,80
43908,note_on,108,0,3,,,,,,,,2,,,55,0
43920,note_on,132,0,4,,,,,,,,3,,,45,63
43960,note_on,40,0,4,,,,,,,,3,,,48,71
44000,note_on,40,0,4,,,,,,,,3,,,55,78
44000,control_change,92,0,3,,,,,,,,2,64,127,,
44034,note_on,34,0,4,,,,,,,,3,,,45,0
44040,note_on,40,0,3,,,,,,,,2,,,55,80
44054,note_on,20,0,4,,,,,,,,3,,,48,0
44074,note_on,20,0,4,,,,,,,,3,,,55,0
44148,note_on,108,0,3,,,,,,,,2,,,55,0
44160,note_on,12,0,3,,,,,,,,2,,,54,80
44160,note_on,86,0,4,,,,,,,,3,,,54,80
44268,note_on,108,0,4,,,,,,,,3,,,54,0
44268,note_on,108,0,3,,,,,,,,2,,,54,0
44280,note_on,12,0,3,,,,,,,,2,,,53,80
44384,control_change,104,0,3,,,,,,,,2,64,0,,
44388,note_on,4,0,3,,,,,,,,2,,,53,0
44400,note_on,132,0,4,,,,,,,,3,,,52,80
44400,note_on,12,0,3,,,,,,,,2,,,52,80
44508,note_on,108,0,3,,,,,,,,2,,,52,0
44508,note_on,108,0,4,,,,,,,,3,,,52,0
44640,note_on,132,0,4,,,,,,,,3,,,43,64
44680,control_change,172,0,3,,,,,,,,2,64,127,,
44680,note_on,40,0,4,,,,,,,,3,,,46,69
44720,note_on,40,0,4,,,,,,,,3,,,49,75
44754,note_on,34,0,4,,,,,,,,3,,,43,0
44760,note_on,80,0,3,,,,,,,,2,,,51,80
44760,note_on,6,0,4,,,,,,,,3,,,52,80
44774,note_on,14,0,4,,,,,,,,3,,,46,0
44794,note_on,20,0,4,,,,,,,,3,,,49,0
44814,note_on,20,0,4,,,,,,,,3,,,52,0
44868,note_on,108,0,3,,,,,,,,2,,,51,0
44880,note_on,12,0,3,,,,,,,,2,,,52,80
44880,note_on,66,0,4,,,,,,,,3,,,54,80
44988,note_on,108,0,3,,,,,,,,2,,,52,0
44988,note_on,108,0,4,,,,,,,,3,,,54,0
45000,note_on,12,0,3,,,,,,,,2,,,53,80
45108,note_on,108,0,3,,,,,,,,2,,,53,0
45120,note_on,132,0,4,,,,,,,,3,,,55,80
45120,note_on,12,0,3,,,,,,,,2,,,54,80
45192,control_change,72,0,3,,,,,,,,2,64,0,,
45228,note_on,108,0,4,,,,,,,,3,,,55,0
45228,note_on,36,0,3,,,,,,,,2,,,54,0
45240,note_on,12,0,3,,,,,,,,2,,,55,80
45348,note_on,108,0,3,,,,,,,,2,,,55,0
45360,note_on,132,0,4,,,,,,,,3,,,45,59
45400,note_on,40,0,4,,,,,,,,3,,,48,67
45440,note_on,40,0,4,,,,,,,,3,,,55,74
45472,control_change,124,0,3,,,,,,,,2,64,127,,
45474,note_on,34,0,4,,,,,,,,3,,,45,0
45480,note_on,8,0,3,,,,,,,,2,,,55,80
45494,note_on,20,0,4,,,,,,,,3,,,48,0
45514,note_on,20,0,4,,,,,,,,3,,,55,0
45588,note_on,108,0,3,,,,,,,,2,,,55,0
45600,note_on,86,0,4,,,,,,,,3,,,54,80
45600,note_on,12,0,3,,,,,,,,2,,,54,80
45708,note_on,108,0,4,,,,,,,,3,,,54,0
45708,note_on,108,0,3,,,,,,,,2,,,54,0
45720,note_on,12,0,3,,,,,,,,2,,,53,80
45828,note_on,108,0,3,,,,,,,,2,,,53,0
45832,control_change,4,0,3,,,,,,,,2,64,0,,
45840,note_on,8,0,3,,,,,,,,2,,,52,80
45840,note_on,132,0,4,,,,,,,,3,,,52,80
45948,note_on,108,0,4,,,,,,,,3,,,52,0
45948,note_on,108,0,3,,,,,,,,2,,,52,0
46080,note_on,132,0,4,,,,,,,,3,,,43,65
46120,note_on,40,0,4,,,,,,,,3,,,46,71
46160,note_on,40,0,4,,,,,,,,3,,,49,78
46184,control_change,236,0,3,,,,,,,,2,64,127,,
46194,note_on,34,0,4,,,,,,,,3,,,43,0
46200,note_on,6,0,4,,,,,,,,3,,,52,83
46200,note_on,16,0,3,,,,,,,,2,,,51,80
46214,note_on,14,0,4,,,,,,,,3,,,46,0
46234,note_on,20,0,4,,,,,,,,3,,,49,0
46254,note_on,20,0,4,,,,,,,,3,,,52,0
46308,note_on,108,0,3,,,,,,,,2,,,51,0
46320,note_on,66,0,4,,,,,,,,3,,,54,80
46320,note_on,12,0,3,,,,,,,,2,,,52,80
46428,note_on,108,0,3,,,,,,,,2,,,52,0
46428,note_on,108,0,4,,,,,,,,3,,,54,0
46440,note_on,12,0,3,,,,,,,,2,,,53,80
46548,note_on,108,0,3,,,,,,,,2,,,53,0
46560,note_on,132,0,4,,,,,,,,3,,,55,80
46560,note_on,12,0,3,,,,,,,,2,,,54,80
46668,note_on,108,0,3,,,,,,,,2,,,54,0
46668,note_on,108,0,4,,,,,,,,3,,,55,0
46680,note_on,12,0,3,,,,,,,,2,,,55,80
46688,control_change,8,0,3,,,,,,,,2,64,0,,
46788,note_on,100,0,3,,,,,,,,2,,,55,0
46800,note_on,132,0,4,,,,,,,,3,,,47,69
46818,note_on,18,0,4,,,,,,,,3,,,47,0
46840,note_on,22,0,4,,,,,,,,3,,,50,75
46858,note_on,18,0,4,,,,,,,,3,,,50,0
46880,note_on,22,0,4,,,,,,,,3,,,53,79
46898,note_on,18,0,4,,,,,,,,3,,,53,0
46920,note_on,22,0,4,,,,,,,,3,,,55,84
46920,note_on,0,0,4,,,,,,,,3,,,53,84
46920,note_on,0,0,4,,,,,,,,3,,,47,84
46920,note_on,132,0,3,,,,,,,,2,,,43,80
46920,note_on,0,0,4,,,,,,,,3,,,50,84
46946,control_change,26,0,3,,,,,,,,2,64,127,,
46974,note_on,0,0,4,,,,,,,,3,,,55,0
46974,note_on,54,0,4,,,,,,,,3,,,53,0
46974,note_on,0,0,4,,,,,,,,3,,,50,0
46974,note_on,0,0,4,,,,,,,,3,,,47,0
47028,note_on,82,0,3,,,,,,,,2,,,43,0
47040,note_on,66,0,4,,,,,,,,3,,,57,80
47040,note_on,12,0,3,,,,,,,,2,,,44,80
47148,note_on,108,0,3,,,,,,,,2,,,44,0
47148,note_on,108,0,4,,,,,,,,3,,,57,0
47160,note_on,12,0,3,,,,,,,,2,,,45,80
47268,note_on,108,0,3,,,,,,,,2,,,45,0
47280,note_on,132,0,4,,,,,,,,3,,,59,80
47280,note_on,12,0,3,,,,,,,,2,,,46,80
47388,note_on,108,0,4,,,,,,,,3,,,59,0
47388,note_on,108,0,3,,,,,,,,2,,,46,0
47400,note_on,12,0,3,,,,,,,,2,,,47,80
47426,control_change,26,0,3,,,,,,,,2,64,0,,
47508,note_on,82,0,3,,,,,,,,2,,,47,0
47520,note_on,132,0,4,,,,,,,,3,,,51,65
47538,note_on,18,0,4,,,,,,,,3,,,51,0
47560,note_on,22,0,4,,,,,,,,3,,,55,69
47578,note_on,18,0,4,,,,,,,,3,,,55,0
47600,note_on,22,0,4,,,,,,,,3,,,60,75
47618,note_on,18,0,4,,,,,,,,3,,,60,0
47626,control_change,118,0,3,,,,,,,,2,64,127,,
47640,note_on,22,0,4,,,,,,,,3,,,60,79
47640,note_on,0,0,4,,,,,,,,3,,,51,79
47640,note_on,14,0,3,,,,,,,,2,,,48,80
47640,note_on,0,0,4,,,,,,,,3,,,55,79
47694,note_on,0,0,4,,,,,,,,3,,,55,0
47694,note_on,0,0,4,,,,,,,,3,,,60,0
47694,note_on,54,0,4,,,,,,,,3,,,51,0
47748,note_on,108,0,3,,,,,,,,2,,,48,0
47760,note_on,66,0,4,,,,,,,,3,,,62,80
47760,note_on,12,0,3,,,,,,,,2,,,49,80
47868,note_on,108,0,4,,,,,,,,3,,,62,0
47868,note_on,108,0,3,,,,,,,,2,,,49,0
47880,note_on,12,0,3,,,,,,,,2,,,50,80
47988,note_on,108,0,3,,,,,,,,2,,,50,0
48000,note_on,12,0,3,,,,,,,,2,,,51,80
48000,note_on,132,0,4,,,,,,,,3,,,63,80
48026,control_change,26,0,3,,,,,,,,2,64,0,,
48108,note_on,108,0,4,,,,,,,,3,,,63,0
48216,note_on,190,0,3,,,,,,,,2,,,51,0
48240,note_on,132,0,4,,,,,,,,3,,,63,80
48333,control_change,117,0,3,,,,,,,,2,64,127,,
48348,note_on,108,0,4,,,,,,,,3,,,63,0
48360,note_on,27,0,3,,,,,,,,2,,,51,79
48468,note_on,108,0,3,,,,,,,,2,,,51,0
48480,note_on,12,0,3,,,,,,,,2,,,50,78
48480,note_on,132,0,4,,,,,,,,3,,,62,78
48588,note_on,108,0,4,,,,,,,,3,,,62,0
48588,note_on,108,0,3,,,,,,,,2,,,50,0
48600,note_on,12,0,3,,,,,,,,2,,,49,78
48708,note_on,108,0,3,,,,,,,,2,,,49,0
48720,note_on,0,0,3,,,,,,,,2,,,48,77
48720,control_change,12,0,3,,,,,,,,2,64,0,,
48720,note_on,132,0,4,,,,,,,,3,,,60,77
48828,note_on,108,0,3,,,,,,,,2,,,48,0
48828,note_on,108,0,4,,,,,,,,3,,,60,0
48960,note_on,132,0,4,,,,,,,,3,,,59,75
49068,note_on,108,0,4,,,,,,,,3,,,59,0
49080,note_on,252,0,3,,,,,,,,2,,,47,74
49093,control_change,13,0,3,,,,,,,,2,64,127,,
49188,note_on,95,0,3,,,,,,,,2,,,47,0
49200,note_on,132,0,4,,,,,,,,3,,,58,74
49200,note_on,12,0,3,,,,,,,,2,,,46,74
49308,note_on,108,0,3,,,,,,,,2,,,46,0
49308,note_on,108,0,4,,,,,,,,3,,,58,0
49320,note_on,12,0,3,,,,,,,,2,,,45,73
49428,note_on,108,0,3,,,,,,,,2,,,45,0
49440,note_on,12,0,3,,,,,,,,2,,,44,72
49440,note_on,132,0,4,,,,,,,,3,,,56,72
49493,control_change,53,0,3,,,,,,,,2,64,0,,
49548,note_on,108,0,4,,,,,,,,3,,,56,0
49548,note_on,55,0,3,,,,,,,,2,,,44,0
49680,note_on,132,0,4,,,,,,,,3,,,55,70
49788,note_on,108,0,4,,,,,,,,3,,,55,0
49800,note_on,252,0,3,,,,,,,,2,,,43,70
49826,control_change,26,0,3,,,,,,,,2,64,127,,
49908,note_on,82,0,3,,,,,,,,2,,,43,0
49920,note_on,12,0,3,,,,,,,,2,,,42,69
49920,note_on,132,0,4,,,,,,,,3,,,53,69
50028,note_on,108,0,3,,,,,,,,2,,,42,0
50028,note_on,108,0,4,,,,,,,,3,,,53,0
50040,note_on,12,0,3,,,,,,,,2,,,41,68
50148,note_on,108,0,3,,,,,,,,2,,,41,0
50160,note_on,132,0,4,,,,,,,,3,,,52,67
50160,note_on,12,0,3,,,,,,,,2,,,40,67
50186,control_change,26,0,3,,,,,,,,2,64,0,,
50268,note_on,108,0,4,,,,,,,,3,,,52,0
50268,note_on,82,0,3,,,,,,,,2,,,40,0
50400,note_on,132,0,4,,,,,,,,3,,,51,66
50453,control_change,185,0,3,,,,,,,,2,64,127,,
50508,note_on,108,0,4,,,,,,,,3,,,51,0
50520,note_on,67,0,3,,,,,,,,2,,,39,65
50628,note_on,108,0,3,,,,,,,,2,,,39,0
50640,note_on,12,0,3,,,,,,,,2,,,38,64
50640,note_on,132,0,4,,,,,,,,3,,,50,64
50748,note_on,108,0,3,,,,,,,,2,,,38,0
50748,note_on,108,0,4,,,,,,,,3,,,50,0
50760,note_on,12,0,3,,,,,,,,2,,,37,63
50853,control_change,93,0,3,,,,,,,,2,64,0,,
50868,note_on,15,0,3,,,,,,,,2,,,37,0
50880,note_on,132,0,4,,,,,,,,3,,,48,63
50880,note_on,12,0,3,,,,,,,,2,,,36,63
50988,note_on,108,0,3,,,,,,,,2,,,36,0
50988,note_on,108,0,4,,,,,,,,3,,,48,0
51120,note_on,132,0,4,,,,,,,,3,,,45,73
51120,note_on,0,0,4,,,,,,,,3,,,42,73
51120,note_on,0,0,4,,,,,,,,3,,,47,73
51120,control_change,132,0,3,,,,,,,,2,64,127,,
51120,note_on,0,0,3,,,,,,,,2,,,35,63
51228,note_on,108,0,3,,,,,,,,2,,,35,0
51240,note_on,12,0,3,,,,,,,,2,,,34,63
51336,note_on,216,0,4,,,,,,,,3,,,42,0
51336,note_on,0,0,4,,,,,,,,3,,,45,0
51336,note_on,0,0,4,,,,,,,,3,,,47,0
51348,note_on,108,0,3,,,,,,,,2,,,34,0
51360,note_on,12,0,3,,,,,,,,2,,,35,62
51468,note_on,108,0,3,,,,,,,,2,,,35,0
51480,note_on,12,0,3,,,,,,,,2,,,34,61
51588,note_on,108,0,3,,,,,,,,2,,,34,0
51600,note_on,12,0,3,,,,,,,,2,,,35,60
51708,note_on,108,0,3,,,,,,,,2,,,35,0
51720,note_on,12,0,3,,,,,,,,2,,,34,59
51828,note_on,108,0,3,,,,,,,,2,,,34,0
51840,note_on,504,0,4,,,,,,,,3,,,43,76
51840,note_on,0,0,4,,,,,,,,3,,,47,76
51840,note_on,0,0,4,,,,,,,,3,,,40,76
51840,note_on,12,0,3,,,,,,,,2,,,35,59
51948,note_on,108,0,3,,,,,,,,2,,,35,0
51960,note_on,12,0,3,,,,,,,,2,,,34,58
52056,note_on,0,0,4,,,,,,,,3,,,43,0
52056,note_on,0,0,4,,,,,,,,3,,,47,0
52056,note_on,216,0,4,,,,,,,,3,,,40,0
52068,note_on,108,0,3,,,,,,,,2,,,34,0
52080,note_on,12,0,3,,,,,,,,2,,,35,57
52188,note_on,108,0,3,,,,,,,,2,,,35,0
52200,note_on,12,0,3,,,,,,,,2,,,34,56
52308,note_on,108,0,3,,,,,,,,2,,,34,0
52320,note_on,264,0,4,,,,,,,,3,,,40,76
52320,note_on,12,0,3,,,,,,,,2,,,35,55
52320,note_on,0,0,4,,,,,,,,3,,,37,76
52320,note_on,0,0,4,,,,,,,,3,,,47,76
52428,note_on,108,0,4,,,,,,,,3,,,37,0
52428,note_on,108,0,3,,,,,,,,2,,,35,0
52428,note_on,0,0,4,,,,,,,,3,,,40,0
52428,note_on,0,0,4,,,,,,,,3,,,47,0
52440,note_on,12,0,3,,,,,,,,2,,,34,55
52548,note_on,108,0,3,,,,,,,,2,,,34,0
52560,note_on,0,0,4,,,,,,,,3,,,47,76
52560,note_on,132,0,4,,,,,,,,3,,,39,76
52560,note_on,12,0,3,,,,,,,,2,,,35,54
52560,note_on,0,0,4,,,,,,,,3,,,42,76
52668,note_on,108,0,3,,,,,,,,2,,,35,0
52680,note_on,12,0,3,,,,,,,,2,,,34,52
52776,note_on,216,0,4,,,,,,,,3,,,42,0
52776,note_on,0,0,4,,,,,,,,3,,,39,0
52776,note_on,0,0,4,,,,,,,,3,,,47,0
52788,note_on,108,0,3,,,,,,,,2,,,34,0
52800,note_on,12,0,3,,,,,,,,2,,,35,53
52908,note_on,108,0,3,,,,,,,,2,,,35,0
52920,note_on,12,0,3,,,,,,,,2,,,34,54
53028,note_on,108,0,3,,,,,,,,2,,,34,0
53040,note_on,12,0,3,,,,,,,,2,,,35,55
53148,note_on,108,0,3,,,,,,,,2,,,35,0
53160,note_on,12,0,3,,,,,,,,2,,,34,57
53268,note_on,108,0,3,,,,,,,,2,,,34,0
53280,note_on,12,0,3,,,,,,,,2,,,35,58
53388,note_on,108,0,3,,,,,,,,2,,,35,0
53400,note_on,12,0,3,,,,,,,,2,,,36,59
53508,note_on,108,0,3,,,,,,,,2,,,36,0
53520,note_on,12,0,3,,,,,,,,2,,,39,60
53628,note_on,108,0,3,,,,,,,,2,,,39,0
53640,note_on,12,0,3,,,,,,,,2,,,42,61
53748,note_on,108,0,3,,,,,,,,2,,,42,0
53760,note_on,12,0,3,,,,,,,,2,,,43,62
53868,note_on,108,0,3,,,,,,,,2,,,43,0
53880,note_on,12,0,3,,,,,,,,2,,,47,63
53988,note_on,108,0,3,,,,,,,,2,,,47,0
54000,set_tempo,10591,1,0,,,,,,300000,,,,,,
54000,note_on,12,0,3,,,,,,,,2,,,49,64
54108,note_on,108,0,3,,,,,,,,2,,,49,0
54113,set_tempo,113,1,0,,,,,,297030,,,,,,
54120,note_on,12,0,3,,,,,,,,2,,,51,65
54228,note_on,108,0,3,,,,,,,,2,,,51,0
54240,note_on,12,0,3,,,,,,,,2,,,54,66
54257,set_tempo,144,1,0,,,,,,296092,,,,,,
54348,note_on,108,0,3,,,,,,,,2,,,54,0
54360,note_on,12,0,3,,,,,,,,2,,,55,67
54400,control_change,40,0,3,,,,,,,,2,64,0,,
54401,set_tempo,144,1,0,,,,,,295159,,,,,,
54468,note_on,68,0,3,,,,,,,,2,,,55,0
54480,note_on,12,0,3,,,,,,,,2,,,59,68
54497,set_tempo,96,1,0,,,,,,294233,,,,,,
54588,note_on,108,0,3,,,,,,,,2,,,59,0
54600,note_on,12,0,3,,,,,,,,2,,,60,69
54641,set_tempo,144,1,0,,,,,,293312,,,,,,
54708,note_on,108,0,3,,,,,,,,2,,,60,0
54720,note_on,12,0,3,,,,,,,,2,,,63,70
54737,set_tempo,96,1,0,,,,,,292398,,,,,,
54746,control_change,16370,0,2,,,,,,,,1,64,127,,
54828,note_on,108,0,3,,,,,,,,2,,,63,0
54840,note_on,94,0,2,,,,,,,,1,,,66,67
54881,set_tempo,144,1,0,,,,,,291489,,,,,,
54948,note_on,108,0,2,,,,,,,,1,,,66,0
54960,note_on,12,0,2,,,,,,,,1,,,67,67
54977,set_tempo,96,1,0,,,,,,290585,,,,,,
55068,note_on,108,0,2,,,,,,,,1,,,67,0
55080,note_on,12,0,2,,,,,,,,1,,,71,68
55121,set_tempo,144,1,0,,,,,,289687,,,,,,
55188,note_on,108,0,2,,,,,,,,1,,,71,0
55200,note_on,12,0,2,,,,,,,,1,,,73,69
55217,set_tempo,96,1,0,,,,,,288795,,,,,,
55308,note_on,108,0,2,,,,,,,,1,,,73,0
55320,note_on,12,0,2,,,,,,,,1,,,75,70
55361,set_tempo,144,1,0,,,,,,287908,,,,,,
55428,note_on,108,0,2,,,,,,,,1,,,75,0
55440,control_change,12488,0,1,,,,,,,,0,64,127,,
55440,note_on,0,0,1,,,,,,,,0,,,78,70
55505,set_tempo,144,1,0,,,,,,287026,,,,,,
55548,note_on,108,0,1,,,,,,,,0,,,78,0
55560,note_on,12,0,1,,,,,,,,0,,,79,71
55601,set_tempo,96,1,0,,,,,,286150,,,,,,
55668,note_on,108,0,1,,,,,,,,0,,,79,0
55680,note_on,12,0,1,,,,,,,,0,,,83,72
55706,control_change,278,0,2,,,,,,,,1,64,0,,
55745,set_tempo,144,1,0,,,,,,285280,,,,,,
55788,note_on,108,0,1,,,,,,,,0,,,83,0
55800,note_on,12,0,1,,,,,,,,0,,,84,72
55841,set_tempo,96,1,0,,,,,,284414,,,,,,
55908,note_on,108,0,1,,,,,,,,0,,,84,0
55920,note_on,12,0,1,,,,,,,,0,,,87,73
55985,set_tempo,144,1,0,,,,,,283554,,,,,,
56028,note_on,108,0,1,,,,,,,,0,,,87,0
56040,note_on,12,0,1,,,,,,,,0,,,90,74
56081,set_tempo,96,1,0,,,,,,282699,,,,,,
56148,note_on,108,0,1,,,,,,,,0,,,90,0
56160,note_on,12,0,1,,,,,,,,0,,,91,75
56225,set_tempo,144,1,0,,,,,,281849,,,,,,
56268,note_on,108,0,1,,,,,,,,0,,,91,0
56280,note_on,12,0,1,,,,,,,,0,,,95,76
56321,set_tempo,96,1,0,,,,,,281004,,,,,,
56388,note_on,108,0,1,,,,,,,,0,,,95,0
56400,note_on,12,0,1,,,,,,,,0,,,97,76
56465,set_tempo,144,1,0,,,,,,280164,,,,,,
56508,note_on,108,0,1,,,,,,,,0,,,97,0
56520,note_on,12,0,1,,,,,,,,0,,,99,77
56609,set_tempo,144,1,0,,,,,,279330,,,,,,
56628,note_on,108,0,1,,,,,,,,0,,,99,0
56640,note_on,12,0,1,,,,,,,,0,,,102,78
56705,set_tempo,96,1,0,,,,,,278500,,,,,,
56748,note_on,108,0,1,,,,,,,,0,,,102,0
56760,note_on,12,0,1,,,,,,,,0,,,99,79
56849,set_tempo,144,1,0,,,,,,277675,,,,,,
56868,note_on,108,0,1,,,,,,,,0,,,99,0
56880,note_on,12,0,1,,,,,,,,0,,,97,80
56945,set_tempo,96,1,0,,,,,,276855,,,,,,
56988,note_on,108,0,1,,,,,,,,0,,,97,0
57000,note_on,12,0,1,,,,,,,,0,,,95,81
57089,set_tempo,144,1,0,,,,,,276040,,,,,,
57108,note_on,108,0,1,,,,,,,,0,,,95,0
57120,note_on,12,0,1,,,,,,,,0,,,91,81
57185,set_tempo,96,1,0,,,,,,275229,,,,,,
57228,note_on,108,0,1,,,,,,,,0,,,91,0
57240,note_on,12,0,1,,,,,,,,0,,,90,82
57329,set_tempo,144,1,0,,,,,,274424,,,,,,
57348,note_on,108,0,1,,,,,,,,0,,,90,0
57360,note_on,12,0,1,,,,,,,,0,,,87,83
57425,set_tempo,96,1,0,,,,,,273623,,,,,,
57468,note_on,108,0,1,,,,,,,,0,,,87,0
57480,note_on,12,0,1,,,,,,,,0,,,84,84
57588,note_on,108,0,1,,,,,,,,0,,,84,0
57600,note_on,12,0,1,,,,,,,,0,,,83,85
57708,note_on,108,0,1,,,,,,,,0,,,83,0
57720,note_on,12,0,1,,,,,,,,0,,,79,86
57828,note_on,108,0,1,,,,,,,,0,,,79,0
57840,note_on,12,0,1,,,,,,,,0,,,78,86
57948,note_on,108,0,1,,,,,,,,0,,,78,0
57960,note_on,12,0,1,,,,,,,,0,,,75,87
58068,note_on,108,0,1,,,,,,,,0,,,75,0
58080,note_on,12,0,1,,,,,,,,0,,,72,88
58188,note_on,108,0,1,,,,,,,,0,,,72,0
58200,note_on,12,0,1,,,,,,,,0,,,71,89
58308,note_on,108,0,1,,,,,,,,0,,,71,0
58320,note_on,12,0,1,,,,,,,,0,,,67,90
58337,set_tempo,912,1,0,,,,,,312891,,,,,,
58428,note_on,108,0,1,,,,,,,,0,,,67,0
58440,note_on,12,0,1,,,,,,,,0,,,66,90
58548,note_on,108,0,1,,,,,,,,0,,,66,0
58560,note_on,12,0,1,,,,,,,,0,,,63,91
58668,note_on,108,0,1,,,,,,,,0,,,63,0
58680,note_on,12,0,1,,,,,,,,0,,,60,92
58788,note_on,108,0,1,,,,,,,,0,,,60,0
58800,note_on,12,0,1,,,,,,,,0,,,59,93
58872,note_on,72,0,1,,,,,,,,0,,,59,0
58880,note_on,8,0,1,,,,,,,,0,,,55,93
58952,note_on,72,0,1,,,,,,,,0,,,55,0
58960,note_on,8,0,1,,,,,,,,0,,,54,94
59008,control_change,48,0,1,,,,,,,,0,64,0,,
59032,note_on,24,0,1,,,,,,,,0,,,54,0
59040,note_on,6264,0,4,,,,,,,,3,,,40,63
59080,note_on,40,0,4,,,,,,,,3,,,46,68
59120,note_on,40,0,4,,,,,,,,3,,,49,74
59154,note_on,34,0,4,,,,,,,,3,,,40,0
59160,note_on,0,0,1,,,,,,,,0,,,61,95
59160,note_on,0,0,1,,,,,,,,0,,,58,95
59160,note_on,0,0,1,,,,,,,,0,,,64,95
59160,note_on,128,0,1,,,,,,,,0,,,55,95
59160,note_on,6,0,4,,,,,,,,3,,,52,80
59174,note_on,14,0,4,,,,,,,,3,,,46,0
59194,note_on,20,0,4,,,,,,,,3,,,49,0
59214,note_on,20,0,4,,,,,,,,3,,,52,0
59268,note_on,0,0,1,,,,,,,,0,,,61,0
59268,note_on,0,0,1,,,,,,,,0,,,55,0
59268,note_on,108,0,1,,,,,,,,0,,,64,0
59268,note_on,0,0,1,,,,,,,,0,,,58,0
59280,note_on,66,0,4,,,,,,,,3,,,54,64
59297,set_tempo,960,1,0,,,,,,354275,,,,,,
59388,note_on,108,0,4,,,,,,,,3,,,54,0
59400,note_on,132,0,1,,,,,,,,0,,,66,97
59508,note_on,108,0,1,,,,,,,,0,,,66,0
59520,note_on,132,0,4,,,,,,,,3,,,55,64
59628,note_on,108,0,4,,,,,,,,3,,,55,0
59640,note_on,132,0,1,,,,,,,,0,,,67,99
59748,note_on,108,0,1,,,,,,,,0,,,67,0
59760,note_on,132,0,4,,,,,,,,3,,,40,57
59800,note_on,40,0,4,,,,,,,,3,,,45,60
59840,note_on,40,0,4,,,,,,,,3,,,48,65
59874,note_on,34,0,4,,,,,,,,3,,,40,0
59880,note_on,6,0,4,,,,,,,,3,,,55,70
59880,note_on,0,0,1,,,,,,,,0,,,61,100
59880,note_on,132,0,1,,,,,,,,0,,,57,100
59880,note_on,0,0,1,,,,,,,,0,,,67,100
59894,note_on,14,0,4,,,,,,,,3,,,45,0
59914,note_on,20,0,4,,,,,,,,3,,,48,0
59934,note_on,20,0,4,,,,,,,,3,,,55,0
59988,note_on,0,0,1,,,,,,,,0,,,57,0
59988,note_on,0,0,1,,,,,,,,0,,,61,0
59988,note_on,108,0,1,,,,,,,,0,,,67,0
60000,note_on,66,0,4,,,,,,,,3,,,54,83
60108,note_on,108,0,4,,,,,,,,3,,,54,0
60120,note_on,132,0,1,,,,,,,,0,,,66,64
60228,note_on,108,0,1,,,,,,,,0,,,66,0
60240,note_on,132,0,4,,,,,,,,3,,,52,76
60348,note_on,108,0,4,,,,,,,,3,,,52,0
60360,note_on,132,0,1,,,,,,,,0,,,64,65
60468,note_on,108,0,1,,,,,,,,0,,,64,0
60480,note_on,132,0,4,,,,,,,,3,,,40,71
60520,note_on,40,0,4,,,,,,,,3,,,46,75
60560,note_on,40,0,4,,,,,,,,3,,,49,81
60594,note_on,34,0,4,,,,,,,,3,,,40,0
60600,note_on,0,0,1,,,,,,,,0,,,64,65
60600,note_on,0,0,1,,,,,,,,0,,,61,65
60600,note_on,0,0,1,,,,,,,,0,,,58,65
60600,note_on,132,0,1,,,,,,,,0,,,55,65
60600,note_on,6,0,4,,,,,,,,3,,,52,87
60614,note_on,14,0,4,,,,,,,,3,,,46,0
60634,note_on,20,0,4,,,,,,,,3,,,49,0
60654,note_on,20,0,4,,,,,,,,3,,,52,0
60708,note_on,0,0,1,,,,,,,,0,,,61,0
60708,note_on,0,0,1,,,,,,,,0,,,55,0
60708,note_on,0,0,1,,,,,,,,0,,,58,0
60708,note_on,108,0,1,,,,,,,,0,,,64,0
60720,note_on,66,0,4,,,,,,,,3,,,54,88
60828,note_on,108,0,4,,,,,,,,3,,,54,0
60840,note_on,132,0,1,,,,,,,,0,,,66,73
60948,note_on,108,0,1,,,,,,,,0,,,66,0
60960,note_on,132,0,4,,,,,,,,3,,,55,94
61068,note_on,108,0,4,,,,,,,,3,,,55,0
61080,note_on,132,0,1,,,,,,,,0,,,67,81
61188,note_on,108,0,1,,,,,,,,0,,,67,0
61200,note_on,132,0,4,,,,,,,,3,,,40,65
61240,note_on,40,0,4,,,,,,,,3,,,45,71
61280,note_on,40,0,4,,,,,,,,3,,,48,77
61314,note_on,34,0,4,,,,,,,,3,,,40,0
61320,note_on,0,0,1,,,,,,,,0,,,67,87
61320,note_on,132,0,1,,,,,,,,0,,,57,87
61320,note_on,6,0,4,,,,,,,,3,,,55,84
61320,note_on,0,0,1,,,,,,,,0,,,60,87
61334,note_on,14,0,4,,,,,,,,3,,,45,0
61354,note_on,20,0,4,,,,,,,,3,,,48,0
61374,note_on,20,0,4,,,,,,,,3,,,55,0
61428,note_on,108,0,1,,,,,,,,0,,,67,0
61428,note_on,0,0,1,,,,,,,,0,,,57,0
61428,note_on,0,0,1,,,,,,,,0,,,60,0
61440,note_on,66,0,4,,,,,,,,3,,,54,72
61548,note_on,108,0,4,,,,,,,,3,,,54,0
61560,note_on,132,0,1,,,,,,,,0,,,66,95
61668,note_on,108,0,1,,,,,,,,0,,,66,0
61680,note_on,132,0,4,,,,,,,,3,,,52,78
61788,note_on,108,0,4,,,,,,,,3,,,52,0
61800,note_on,132,0,1,,,,,,,,0,,,64,70
61908,note_on,108,0,1,,,,,,,,0,,,64,0
61920,note_on,132,0,4,,,,,,,,3,,,40,74
61960,note_on,40,0,4,,,,,,,,3,,,46,79
62000,note_on,40,0,4,,,,,,,,3,,,49,84
62034,note_on,34,0,4,,,,,,,,3,,,40,0
62040,note_on,132,0,1,,,,,,,,0,,,55,81
62040,note_on,0,0,1,,,,,,,,0,,,64,81
62040,note_on,6,0,4,,,,,,,,3,,,52,90
62040,note_on,0,0,1,,,,,,,,0,,,61,81
62040,note_on,0,0,1,,,,,,,,0,,,58,81
62054,note_on,14,0,4,,,,,,,,3,,,46,0
62074,note_on,20,0,4,,,,,,,,3,,,49,0
62094,note_on,20,0,4,,,,,,,,3,,,52,0
62148,note_on,108,0,1,,,,,,,,0,,,64,0
62148,note_on,0,0,1,,,,,,,,0,,,55,0
62148,note_on,0,0,1,,,,,,,,0,,,58,0
62148,note_on,0,0,1,,,,,,,,0,,,61,0
62160,note_on,66,0,4,,,,,,,,3,,,54,93
62268,note_on,108,0,4,,,,,,,,3,,,54,0
62280,note_on,132,0,1,,,,,,,,0,,,66,92
62388,note_on,108,0,1,,,,,,,,0,,,66,0
62400,note_on,132,0,4,,,,,,,,3,,,55,100
62508,note_on,108,0,4,,,,,,,,3,,,55,0
62520,note_on,132,0,1,,,,,,,,0,,,67,104
62628,note_on,108,0,1,,,,,,,,0,,,67,0
62640,note_on,132,0,4,,,,,,,,3,,,43,72
62680,note_on,40,0,4,,,,,,,,3,,,47,81
62720,note_on,40,0,4,,,,,,,,3,,,50,92
62754,note_on,34,0,4,,,,,,,,3,,,43,0
62760,note_on,6,0,4,,,,,,,,3,,,55,105
62760,note_on,0,0,1,,,,,,,,0,,,62,72
62760,note_on,132,0,1,,,,,,,,0,,,59,72
62760,note_on,0,0,1,,,,,,,,0,,,67,72
62760,note_on,0,0,1,,,,,,,,0,,,65,72
62774,note_on,14,0,4,,,,,,,,3,,,47,0
62794,note_on,20,0,4,,,,,,,,3,,,50,0
62814,note_on,20,0,4,,,,,,,,3,,,55,0
62868,note_on,0,0,1,,,,,,,,0,,,62,0
62868,note_on,108,0,1,,,,,,,,0,,,67,0
62868,note_on,0,0,1,,,,,,,,0,,,59,0
62868,note_on,0,0,1,,,,,,,,0,,,65,0
62880,note_on,66,0,4,,,,,,,,3,,,57,78
62988,note_on,108,0,4,,,,,,,,3,,,57,0
63000,note_on,132,0,1,,,,,,,,0,,,69,82
63108,note_on,108,0,1,,,,,,,,0,,,69,0
63120,note_on,132,0,4,,,,,,,,3,,,59,85
63228,note_on,108,0,4,,,,,,,,3,,,59,0
63240,note_on,132,0,1,,,,,,,,0,,,71,92
63348,note_on,108,0,1,,,,,,,,0,,,71,0
63360,note_on,132,0,4,,,,,,,,3,,,48,68
63400,note_on,40,0,4,,,,,,,,3,,,51,78
63440,note_on,40,0,4,,,,,,,,3,,,55,92
63474,note_on,34,0,4,,,,,,,,3,,,48,0
63480,note_on,132,0,1,,,,,,,,0,,,63,102
63480,note_on,0,0,1,,,,,,,,0,,,67,102
63480,note_on,6,0,4,,,,,,,,3,,,60,107
63480,note_on,0,0,1,,,,,,,,0,,,72,102
63494,note_on,14,0,4,,,,,,,,3,,,51,0
63514,note_on,20,0,4,,,,,,,,3,,,55,0
63534,note_on,20,0,4,,,,,,,,3,,,60,0
63588,note_on,0,0,1,,,,,,,,0,,,67,0
63588,note_on,0,0,1,,,,,,,,0,,,63,0
63588,note_on,108,0,1,,,,,,,,0,,,72,0
63600,note_on,66,0,4,,,,,,,,3,,,62,98
63708,note_on,108,0,4,,,,,,,,3,,,62,0
63720,note_on,0,0,1,,,,,,,,0,,,67,112
63720,note_on,132,0,1,,,,,,,,0,,,74,112
63828,note_on,0,0,1,,,,,,,,0,,,74,0
63828,note_on,108,0,1,,,,,,,,0,,,67,0
63840,note_on,132,0,4,,,,,,,,3,,,63,105
63960,note_on,0,0,1,,,,,,,,0,,,72,76
63960,note_on,132,0,1,,,,,,,,0,,,75,76
64056,note_on,216,0,4,,,,,,,,3,,,63,0
64068,note_on,108,0,1,,,,,,,,0,,,72,0
64068,note_on,0,0,1,,,,,,,,0,,,75,0
64080,note_on,24,0,4,,,,,,,,3,,,63,111
64200,note_on,132,0,1,,,,,,,,0,,,78,84
64200,note_on,0,0,1,,,,,,,,0,,,72,84
64296,note_on,216,0,4,,,,,,,,3,,,63,0
64308,note_on,108,0,1,,,,,,,,0,,,72,0
64308,note_on,0,0,1,,,,,,,,0,,,78,0
64320,note_on,24,0,4,,,,,,,,3,,,62,82
64428,note_on,108,0,4,,,,,,,,3,,,62,0
64440,note_on,132,0,1,,,,,,,,0,,,79,88
64440,note_on,0,0,1,,,,,,,,0,,,75,88
64548,note_on,0,0,1,,,,,,,,0,,,79,0
64548,note_on,108,0,1,,,,,,,,0,,,75,0
64560,note_on,132,0,4,,,,,,,,3,,,60,87
64668,note_on,108,0,4,,,,,,,,3,,,60,0
64680,note_on,0,0,1,,,,,,,,0,,,75,92
64680,note_on,132,0,1,,,,,,,,0,,,83,92
64788,note_on,108,0,1,,,,,,,,0,,,75,0
64788,note_on,0,0,1,,,,,,,,0,,,83,0
64800,note_on,132,0,4,,,,,,,,3,,,59,94
64908,note_on,108,0,4,,,,,,,,3,,,59,0
64920,note_on,0,0,1,,,,,,,,0,,,79,98
64920,note_on,132,0,1,,,,,,,,0,,,84,98
65028,note_on,108,0,1,,,,,,,,0,,,79,0
65028,note_on,0,0,1,,,,,,,,0,,,84,0
65040,note_on,132,0,4,,,,,,,,3,,,58,101
65148,note_on,108,0,4,,,,,,,,3,,,58,0
65160,note_on,0,0,1,,,,,,,,0,,,79,102
65160,note_on,132,0,1,,,,,,,,0,,,86,102
65268,note_on,108,0,1,,,,,,,,0,,,79,0
65268,note_on,0,0,1,,,,,,,,0,,,86,0
65280,note_on,132,0,4,,,,,,,,3,,,56,108
65388,note_on,108,0,4,,,,,,,,3,,,56,0
65400,note_on,132,0,1,,,,,,,,0,,,87,108
65400,note_on,0,0,1,,,,,,,,0,,,84,108
65508,note_on,0,0,1,,,,,,,,0,,,87,0
65508,note_on,108,0,1,,,,,,,,0,,,84,0
65520,note_on,132,0,4,,,,,,,,3,,,55,109
65628,note_on,108,0,4,,,,,,,,3,,,55,0
65640,note_on,0,0,1,,,,,,,,0,,,84,107
65640,note_on,132,0,1,,,,,,,,0,,,90,107
65748,note_on,0,0,1,,,,,,,,0,,,90,0
65748,note_on,108,0,1,,,,,,,,0,,,84,0
65760,note_on,132,0,4,,,,,,,,3,,,53,104
65868,note_on,108,0,4,,,,,,,,3,,,53,0
65880,note_on,132,0,1,,,,,,,,0,,,91,102
65880,note_on,0,0,1,,,,,,,,0,,,87,102
65988,note_on,0,0,1,,,,,,,,0,,,91,0
65988,note_on,108,0,1,,,,,,,,0,,,87,0
66000,note_on,132,0,4,,,,,,,,3,,,51,99
66108,note_on,108,0,4,,,,,,,,3,,,51,0
66120,note_on,0,0,1,,,,,,,,0,,,87,97
66120,note_on,132,0,1,,,,,,,,0,,,93,97
66120,note_on,0,0,1,,,,,,,,0,,,84,97
66186,control_change,78,0,4,,,,,,,,3,64,127,,
66228,note_on,108,0,1,,,,,,,,0,,,84,0
66228,note_on,0,0,1,,,,,,,,0,,,93,0
66228,note_on,0,0,1,,,,,,,,0,,,87,0
66240,note_on,0,0,1,,,,,,,,0,,,91,95
66240,note_on,12,0,1,,,,,,,,0,,,95,95
66240,note_on,54,0,4,,,,,,,,3,,,38,95
66240,note_on,0,0,1,,,,,,,,0,,,83,95
66348,note_on,108,0,1,,,,,,,,0,,,83,0
66348,note_on,0,0,1,,,,,,,,0,,,95,0
66348,note_on,0,0,1,,,,,,,,0,,,91,0
66348,note_on,108,0,4,,,,,,,,3,,,38,0
66360,note_on,12,0,4,,,,,,,,3,,,50,92
66468,note_on,108,0,4,,,,,,,,3,,,50,0
66480,note_on,132,0,1,,,,,,,,0,,,96,90
66480,note_on,12,0,4,,,,,,,,3,,,39,90
66480,note_on,0,0,1,,,,,,,,0,,,84,90
66480,note_on,0,0,1,,,,,,,,0,,,93,90
66588,note_on,108,0,4,,,,,,,,3,,,39,0
66588,note_on,0,0,1,,,,,,,,0,,,93,0
66588,note_on,0,0,1,,,,,,,,0,,,96,0
66588,note_on,108,0,1,,,,,,,,0,,,84,0
66600,note_on,12,0,4,,,,,,,,3,,,43,87
66708,note_on,108,0,4,,,,,,,,3,,,43,0
66720,note_on,0,0,1,,,,,,,,0,,,86,76
66720,note_on,132,0,1,,,,,,,,0,,,98,76
66720,note_on,0,0,1,,,,,,,,0,,,95,76
66720,note_on,12,0,4,,,,,,,,3,,,38,85
66828,note_on,0,0,1,,,,,,,,0,,,98,0
66828,note_on,108,0,4,,,,,,,,3,,,38,0
66828,note_on,108,0,1,,,,,,,,0,,,86,0
66828,note_on,0,0,1,,,,,,,,0,,,95,0
66840,note_on,12,0,4,,,,,,,,3,,,50,70
66948,note_on,108,0,4,,,,,,,,3,,,50,0
66960,note_on,132,0,1,,,,,,,,0,,,98,79
66960,note_on,0,0,1,,,,,,,,0,,,95,79
66960,note_on,12,0,4,,,,,,,,3,,,38,72
66960,note_on,0,0,1,,,,,,,,0,,,86,79
67068,note_on,0,0,1,,,,,,,,0,,,98,0
67068,note_on,0,0,1,,,,,,,,0,,,95,0
67068,note_on,108,0,1,,,,,,,,0,,,86,0
67068,note_on,108,0,4,,,,,,,,3,,,38,0
67080,note_on,12,0,4,,,,,,,,3,,,50,73
67188,note_on,108,0,4,,,,,,,,3,,,50,0
67200,note_on,0,0,1,,,,,,,,0,,,93,81
67200,note_on,0,0,1,,,,,,,,0,,,84,81
67200,note_on,132,0,1,,,,,,,,0,,,96,81
67200,note_on,12,0,4,,,,,,,,3,,,39,75
67308,note_on,108,0,4,,,,,,,,3,,,39,0
67308,note_on,108,0,1,,,,,,,,0,,,84,0
67308,note_on,0,0,1,,,,,,,,0,,,93,0
67308,note_on,0,0,1,,,,,,,,0,,,96,0
67320,note_on,12,0,4,,,,,,,,3,,,43,77
67428,note_on,108,0,4,,,,,,,,3,,,43,0
67440,note_on,12,0,4,,,,,,,,3,,,38,79
67440,note_on,0,0,1,,,,,,,,0,,,91,84
67440,note_on,132,0,1,,,,,,,,0,,,95,84
67440,note_on,0,0,1,,,,,,,,0,,,83,84
67548,note_on,108,0,1,,,,,,,,0,,,83,0
67548,note_on,0,0,1,,,,,,,,0,,,91,0
67548,note_on,0,0,1,,,,,,,,0,,,95,0
67548,note_on,108,0,4,,,,,,,,3,,,38,0
67560,note_on,12,0,4,,,,,,,,3,,,50,80
67668,note_on,108,0,4,,,,,,,,3,,,50,0
67680,note_on,0,0,1,,,,,,,,0,,,88,87
67680,note_on,12,0,4,,,,,,,,3,,,38,82
67680,note_on,0,0,1,,,,,,,,0,,,79,87
67680,note_on,132,0,1,,,,,,,,0,,,91,87
67788,note_on,0,0,1,,,,,,,,0,,,88,0
67788,note_on,108,0,4,,,,,,,,3,,,38,0
67788,note_on,108,0,1,,,,,,,,0,,,79,0
67788,note_on,0,0,1,,,,,,,,0,,,91,0
67800,note_on,12,0,4,,,,,,,,3,,,50,84
67908,note_on,108,0,4,,,,,,,,3,,,50,0
67920,note_on,0,0,1,,,,,,,,0,,,81,90
67920,note_on,0,0,1,,,,,,,,0,,,90,90
67920,note_on,132,0,1,,,,,,,,0,,,93,90
67920,note_on,12,0,4,,,,,,,,3,,,40,85
68028,note_on,0,0,1,,,,,,,,0,,,90,0
68028,note_on,0,0,1,,,,,,,,0,,,93,0
68028,note_on,108,0,1,,,,,,,,0,,,81,0
68028,note_on,108,0,4,,,,,,,,3,,,40,0
68040,note_on,12,0,4,,,,,,,,3,,,43,87
68148,note_on,108,0,4,,,,,,,,3,,,43,0
68160,note_on,132,0,1,,,,,,,,0,,,95,93
68160,note_on,0,0,1,,,,,,,,0,,,83,93
68160,note_on,0,0,1,,,,,,,,0,,,91,93
68160,note_on,12,0,4,,,,,,,,3,,,38,89
68268,note_on,108,0,4,,,,,,,,3,,,38,0
68268,note_on,108,0,1,,,,,,,,0,,,83,0
68268,note_on,0,0,1,,,,,,,,0,,,91,0
68268,note_on,0,0,1,,,,,,,,0,,,95,0
68280,note_on,12,0,4,,,,,,,,3,,,50,91
68321,set_tempo,9024,1,0,,,,,,335270,,,,,,
68388,note_on,108,0,4,,,,,,,,3,,,50,0
68400,note_on,132,0,1,,,,,,,,0,,,98,95
68400,note_on,12694,0,2,,,,,,,,1,,,95,76
68400,control_change,12,0,4,,,,,,,,3,64,0,,
68413,control_change,13,0,2,,,,,,,,1,64,127,,
68508,note_on,95,0,2,,,,,,,,1,,,95,0
68520,note_on,12,0,2,,,,,,,,1,,,94,95
68616,note_on,216,0,1,,,,,,,,0,,,98,0
68628,note_on,108,0,2,,,,,,,,1,,,94,0
68640,note_on,12,0,2,,,,,,,,1,,,93,94
68748,note_on,108,0,2,,,,,,,,1,,,93,0
68760,note_on,12,0,2,,,,,,,,1,,,91,93
68868,note_on,108,0,2,,,,,,,,1,,,91,0
68880,note_on,264,0,1,,,,,,,,0,,,95,95
68880,note_on,12,0,2,,,,,,,,1,,,91,92
68988,note_on,108,0,2,,,,,,,,1,,,91,0
68988,note_on,108,0,1,,,,,,,,0,,,95,0
69000,note_on,12,0,2,,,,,,,,1,,,90,91
69108,note_on,108,0,2,,,,,,,,1,,,90,0
69120,note_on,14292,0,3,,,,,,,,2,,,71,64
69120,note_on,12,0,2,,,,,,,,1,,,89,90
69120,note_on,0,0,3,,,,,,,,2,,,67,64
69120,note_on,0,0,3,,,,,,,,2,,,62,64
69228,note_on,0,0,3,,,,,,,,2,,,67,0
69228,note_on,0,0,3,,,,,,,,2,,,71,0
69228,note_on,108,0,3,,,,,,,,2,,,62,0
69228,note_on,108,0,2,,,,,,,,1,,,89,0
69240,note_on,12,0,2,,,,,,,,1,,,88,89
69348,note_on,108,0,2,,,,,,,,1,,,88,0
69360,note_on,12,0,2,,,,,,,,1,,,87,88
69360,note_on,372,0,1,,,,,,,,0,,,91,90
69360,note_on,132,0,3,,,,,,,,2,,,72,64
69360,note_on,0,0,3,,,,,,,,2,,,69,64
69468,note_on,108,0,1,,,,,,,,0,,,91,0
69468,note_on,108,0,2,,,,,,,,1,,,87,0
69468,note_on,108,0,3,,,,,,,,2,,,69,0
69468,note_on,0,0,3,,,,,,,,2,,,72,0
69480,note_on,12,0,2,,,,,,,,1,,,86,87
69588,note_on,108,0,2,,,,,,,,1,,,86,0
69600,note_on,0,0,3,,,,,,,,2,,,71,64
69600,note_on,12,0,2,,,,,,,,1,,,85,86
69600,note_on,132,0,3,,,,,,,,2,,,74,64
69708,note_on,108,0,3,,,,,,,,2,,,71,0
69708,note_on,108,0,2,,,,,,,,1,,,85,0
69708,note_on,0,0,3,,,,,,,,2,,,74,0
69720,note_on,12,0,2,,,,,,,,1,,,84,85
69828,note_on,108,0,2,,,,,,,,1,,,84,0
69840,note_on,372,0,1,,,,,,,,0,,,86,85
69840,note_on,0,0,3,,,,,,,,2,,,71,64
69840,note_on,12,0,2,,,,,,,,1,,,83,84
69840,note_on,132,0,3,,,,,,,,2,,,74,64
69948,note_on,108,0,3,,,,,,,,2,,,71,0
69948,note_on,0,0,3,,,,,,,,2,,,74,0
69948,note_on,108,0,1,,,,,,,,0,,,86,0
69948,note_on,108,0,2,,,,,,,,1,,,83,0
69960,note_on,12,0,2,,,,,,,,1,,,82,83
70068,note_on,108,0,2,,,,,,,,1,,,82,0
70080,note_on,0,0,3,,,,,,,,2,,,69,64
70080,note_on,132,0,3,,,,,,,,2,,,72,64
70080,note_on,12,0,2,,,,,,,,1,,,81,81
70188,note_on,0,0,3,,,,,,,,2,,,72,0
70188,note_on,108,0,3,,,,,,,,2,,,69,0
70188,note_on,108,0,2,,,,,,,,1,,,81,0
70200,note_on,12,0,2,,,,,,,,1,,,79,80
70308,note_on,108,0,2,,,,,,,,1,,,79,0
70320,note_on,12,0,2,,,,,,,,1,,,79,79
70320,note_on,372,0,1,,,,,,,,0,,,83,80
70320,note_on,0,0,3,,,,,,,,2,,,67,64
70320,note_on,132,0,3,,,,,,,,2,,,71,64
70428,note_on,108,0,2,,,,,,,,1,,,79,0
70428,note_on,108,0,3,,,,,,,,2,,,67,0
70428,note_on,108,0,1,,,,,,,,0,,,83,0
70428,note_on,0,0,3,,,,,,,,2,,,71,0
70440,note_on,12,0,2,,,,,,,,1,,,78,78
70548,note_on,108,0,2,,,,,,,,1,,,78,0
70560,note_on,0,0,3,,,,,,,,2,,,64,64
70560,note_on,12,0,2,,,,,,,,1,,,77,77
70560,note_on,132,0,3,,,,,,,,2,,,67,64
70668,note_on,108,0,3,,,,,,,,2,,,64,0
70668,note_on,0,0,3,,,,,,,,2,,,67,0
70668,note_on,108,0,2,,,,,,,,1,,,77,0
70680,note_on,12,0,2,,,,,,,,1,,,76,76
70788,note_on,108,0,2,,,,,,,,1,,,76,0
70800,note_on,12,0,2,,,,,,,,1,,,76,75
70800,note_on,132,0,3,,,,,,,,2,,,69,64
70800,note_on,0,0,3,,,,,,,,2,,,66,64
70800,note_on,372,0,1,,,,,,,,0,,,79,74
70908,note_on,108,0,2,,,,,,,,1,,,76,0
70908,note_on,108,0,1,,,,,,,,0,,,79,0
70908,note_on,108,0,3,,,,,,,,2,,,66,0
70908,note_on,0,0,3,,,,,,,,2,,,69,0
70920,note_on,12,0,2,,,,,,,,1,,,75,74
71028,note_on,108,0,2,,,,,,,,1,,,75,0
71040,note_on,0,0,3,,,,,,,,2,,,67,64
71040,note_on,132,0,3,,,,,,,,2,,,71,64
71040,note_on,12,0,2,,,,,,,,1,,,74,73
71148,note_on,0,0,3,,,,,,,,2,,,71,0
71148,note_on,108,0,3,,,,,,,,2,,,67,0
71148,note_on,108,0,2,,,,,,,,1,,,74,0
71160,note_on,12,0,2,,,,,,,,1,,,73,72
71268,note_on,108,0,2,,,,,,,,1,,,73,0
71280,control_change,12,0,2,,,,,,,,1,64,0,,
71280,note_on,132,0,3,,,,,,,,2,,,62,79
71320,note_on,40,0,3,,,,,,,,2,,,67,87
71360,note_on,40,0,3,,,,,,,,2,,,71,94
71400,note_on,40,0,3,,,,,,,,2,,,74,102
71880,control_change,3480,0,4,,,,,,,,3,64,127,,
71976,note_on,0,0,3,,,,,,,,2,,,71,0
71976,note_on,0,0,3,,,,,,,,2,,,67,0
71976,note_on,0,0,3,,,,,,,,2,,,62,0
71976,note_on,576,0,3,,,,,,,,2,,,74,0
72000,note_on,0,0,1,,,,,,,,0,,,79,94
72000,note_on,120,0,4,,,,,,,,3,,,35,95
72000,note_on,1092,0,1,,,,,,,,0,,,91,94
72000,note_on,0,0,1,,,,,,,,0,,,88,94
72108,note_on,0,0,1,,,,,,,,0,,,91,0
72108,note_on,108,0,1,,,,,,,,0,,,79,0
72108,note_on,108,0,4,,,,,,,,3,,,35,0
72108,note_on,0,0,1,,,,,,,,0,,,88,0
72120,note_on,12,0,4,,,,,,,,3,,,47,93
72228,note_on,108,0,4,,,,,,,,3,,,47,0
72240,note_on,132,0,1,,,,,,,,0,,,93,91
72240,note_on,12,0,4,,,,,,,,3,,,36,92
72240,note_on,0,0,1,,,,,,,,0,,,81,91
72240,note_on,0,0,1,,,,,,,,0,,,90,91
72348,note_on,108,0,4,,,,,,,,3,,,36,0
72348,note_on,108,0,1,,,,,,,,0,,,81,0
72348,note_on,0,0,1,,,,,,,,0,,,90,0
72348,note_on,0,0,1,,,,,,,,0,,,93,0
72360,note_on,12,0,4,,,,,,,,3,,,40,91
72468,note_on,108,0,4,,,,,,,,3,,,40,0
72480,note_on,12,0,4,,,,,,,,3,,,35,90
72480,note_on,132,0,1,,,,,,,,0,,,95,88
72480,note_on,0,0,1,,,,,,,,0,,,83,88
72480,note_on,0,0,1,,,,,,,,0,,,91,88
72588,note_on,108,0,1,,,,,,,,0,,,83,0
72588,note_on,108,0,4,,,,,,,,3,,,35,0
72588,note_on,0,0,1,,,,,,,,0,,,95,0
72588,note_on,0,0,1,,,,,,,,0,,,91,0
72600,note_on,12,0,4,,,,,,,,3,,,47,89
72708,note_on,108,0,4,,,,,,,,3,,,47,0
72720,note_on,12,0,4,,,,,,,,3,,,35,88
72720,note_on,132,0,1,,,,,,,,0,,,95,85
72720,note_on,0,0,1,,,,,,,,0,,,83,85
72720,note_on,0,0,1,,,,,,,,0,,,91,85
72828,note_on,0,0,1,,,,,,,,0,,,91,0
72828,note_on,108,0,1,,,,,,,,0,,,83,0
72828,note_on,108,0,4,,,,,,,,3,,,35,0
72828,note_on,0,0,1,,,,,,,,0,,,95,0
72840,note_on,12,0,4,,,,,,,,3,,,47,87
72948,note_on,108,0,4,,,,,,,,3,,,47,0
72960,note_on,0,0,1,,,,,,,,0,,,81,81
72960,note_on,132,0,1,,,,,,,,0,,,93,81
72960,note_on,12,0,4,,,,,,,,3,,,36,85
72960,note_on,0,0,1,,,,,,,,0,,,90,81
73068,note_on,0,0,1,,,,,,,,0,,,93,0
73068,note_on,0,0,1,,,,,,,,0,,,90,0
73068,note_on,108,0,4,,,,,,,,3,,,36,0
73068,note_on,108,0,1,,,,,,,,0,,,81,0
73080,note_on,12,0,4,,,,,,,,3,,,40,84
73188,note_on,108,0,4,,,,,,,,3,,,40,0
73200,note_on,12,0,4,,,,,,,,3,,,35,83
73200,note_on,132,0,1,,,,,,,,0,,,91,78
73200,note_on,0,0,1,,,,,,,,0,,,79,78
73200,note_on,0,0,1,,,,,,,,0,,,88,78
73308,note_on,108,0,4,,,,,,,,3,,,35,0
73308,note_on,108,0,1,,,,,,,,0,,,79,0
73308,note_on,0,0,1,,,,,,,,0,,,88,0
73308,note_on,0,0,1,,,,,,,,0,,,91,0
73320,note_on,12,0,4,,,,,,,,3,,,47,82
73428,note_on,108,0,4,,,,,,,,3,,,47,0
73440,note_on,0,0,1,,,,,,,,0,,,85,75
73440,note_on,132,0,1,,,,,,,,0,,,88,75
73440,note_on,12,0,4,,,,,,,,3,,,35,81
73440,note_on,0,0,1,,,,,,,,0,,,76,75
73548,note_on,0,0,1,,,,,,,,0,,,85,0
73548,note_on,0,0,1,,,,,,,,0,,,88,0
73548,note_on,108,0,4,,,,,,,,3,,,35,0
73548,note_on,108,0,1,,,,,,,,0,,,76,0
73560,note_on,12,0,4,,,,,,,,3,,,47,80
73668,note_on,108,0,4,,,,,,,,3,,,47,0
73680,note_on,12,0,4,,,,,,,,3,,,36,78
73680,note_on,0,0,1,,,,,,,,0,,,78,72
73680,note_on,0,0,1,,,,,,,,0,,,87,72
73680,note_on,132,0,1,,,,,,,,0,,,90,72
73788,note_on,0,0,1,,,,,,,,0,,,87,0
73788,note_on,108,0,1,,,,,,,,0,,,78,0
73788,note_on,0,0,1,,,,,,,,0,,,90,0
73788,note_on,108,0,4,,,,,,,,3,,,36,0
73800,note_on,12,0,4,,,,,,,,3,,,40,77
73908,note_on,108,0,4,,,,,,,,3,,,40,0
73920,note_on,132,0,1,,,,,,,,0,,,91,69
73920,note_on,12,0,4,,,,,,,,3,,,35,76
73920,note_on,0,0,1,,,,,,,,0,,,79,69
73920,note_on,0,0,1,,,,,,,,0,,,88,69
74028,note_on,108,0,1,,,,,,,,0,,,79,0
74028,note_on,108,0,4,,,,,,,,3,,,35,0
74028,note_on,0,0,1,,,,,,,,0,,,88,0
74028,note_on,0,0,1,,,,,,,,0,,,91,0
74040,note_on,12,0,4,,,,,,,,3,,,47,94
74081,set_tempo,5760,1,0,,,,,,312891,,,,,,
74096,control_change,56,0,4,,,,,,,,3,64,0,,
74148,note_on,52,0,4,,,,,,,,3,,,47,0
74160,note_on,132,0,1,,,,,,,,0,,,95,95
74160,control_change,2880,0,2,,,,,,,,1,64,127,,
74160,note_on,0,0,2,,,,,,,,1,,,91,64
74214,note_on,54,0,2,,,,,,,,1,,,91,0
74268,note_on,108,0,1,,,,,,,,0,,,95,0
74280,note_on,66,0,2,,,,,,,,1,,,90,99
74388,note_on,108,0,2,,,,,,,,1,,,90,0
74400,note_on,12,0,2,,,,,,,,1,,,89,97
74508,note_on,108,0,2,,,,,,,,1,,,89,0
74520,note_on,12,0,2,,,,,,,,1,,,88,96
74628,note_on,108,0,2,,,,,,,,1,,,88,0
74640,note_on,372,0,1,,,,,,,,0,,,91,91
74640,note_on,12,0,2,,,,,,,,1,,,88,95
74748,note_on,108,0,1,,,,,,,,0,,,91,0
74748,note_on,108,0,2,,,,,,,,1,,,88,0
74760,note_on,12,0,2,,,,,,,,1,,,87,93
74868,note_on,108,0,2,,,,,,,,1,,,87,0
74880,note_on,12,0,2,,,,,,,,1,,,86,92
74880,note_on,0,0,3,,,,,,,,2,,,59,64
74880,note_on,0,0,3,,,,,,,,2,,,64,64
74880,note_on,2904,0,3,,,,,,,,2,,,67,64
74988,note_on,108,0,3,,,,,,,,2,,,59,0
74988,note_on,108,0,2,,,,,,,,1,,,86,0
74988,note_on,0,0,3,,,,,,,,2,,,67,0
74988,note_on,0,0,3,,,,,,,,2,,,64,0
75000,note_on,12,0,2,,,,,,,,1,,,84,91
75108,note_on,108,0,2,,,,,,,,1,,,84,0
75120,note_on,372,0,1,,,,,,,,0,,,88,87
75120,note_on,12,0,2,,,,,,,,1,,,84,89
75120,note_on,0,0,3,,,,,,,,2,,,66,64
75120,note_on,132,0,3,,,,,,,,2,,,69,64
75228,note_on,108,0,1,,,,,,,,0,,,88,0
75228,note_on,108,0,2,,,,,,,,1,,,84,0
75228,note_on,0,0,3,,,,,,,,2,,,69,0
75228,note_on,108,0,3,,,,,,,,2,,,66,0
75240,note_on,12,0,2,,,,,,,,1,,,83,88
75348,note_on,108,0,2,,,,,,,,1,,,83,0
75360,note_on,0,0,3,,,,,,,,2,,,67,64
75360,note_on,12,0,2,,,,,,,,1,,,82,87
75360,note_on,132,0,3,,,,,,,,2,,,71,64
75468,note_on,108,0,2,,,,,,,,1,,,82,0
75468,note_on,108,0,3,,,,,,,,2,,,67,0
75468,note_on,0,0,3,,,,,,,,2,,,71,0
75480,note_on,12,0,2,,,,,,,,1,,,81,86
75585,set_tempo,1504,1,0,,,,,,311850,,,,,,
75588,note_on,108,0,2,,,,,,,,1,,,81,0
75600,note_on,0,0,3,,,,,,,,2,,,67,64
75600,note_on,372,0,1,,,,,,,,0,,,86,83
75600,note_on,132,0,3,,,,,,,,2,,,71,64
75600,note_on,12,0,2,,,,,,,,1,,,79,84
75708,note_on,0,0,3,,,,,,,,2,,,71,0
75708,note_on,108,0,2,,,,,,,,1,,,79,0
75708,note_on,108,0,3,,,,,,,,2,,,67,0
75708,note_on,108,0,1,,,,,,,,0,,,86,0
75720,note_on,12,0,2,,,,,,,,1,,,78,83
75729,set_tempo,144,1,0,,,,,,310816,,,,,,
75828,note_on,108,0,2,,,,,,,,1,,,78,0
75840,note_on,132,0,3,,,,,,,,2,,,69,64
75840,note_on,0,0,3,,,,,,,,2,,,66,64
75840,note_on,12,0,2,,,,,,,,1,,,77,82
75873,set_tempo,144,1,0,,,,,,309789,,,,,,
75948,note_on,0,0,3,,,,,,,,2,,,69,0
75948,note_on,108,0,3,,,,,,,,2,,,66,0
75948,note_on,108,0,2,,,,,,,,1,,,77,0
75960,note_on,12,0,2,,,,,,,,1,,,76,80
76017,set_tempo,144,1,0,,,,,,308769,,,,,,
76068,note_on,108,0,2,,,,,,,,1,,,76,0
76080,note_on,0,0,3,,,,,,,,2,,,64,64
76080,note_on,12,0,2,,,,,,,,1,,,76,79
76080,note_on,372,0,1,,,,,,,,0,,,79,79
76080,note_on,132,0,3,,,,,,,,2,,,67,64
76161,set_tempo,144,1,0,,,,,,307755,,,,,,
76188,note_on,108,0,1,,,,,,,,0,,,79,0
76188,note_on,0,0,3,,,,,,,,2,,,67,0
76188,note_on,108,0,2,,,,,,,,1,,,76,0
76188,note_on,108,0,3,,,,,,,,2,,,64,0
76200,note_on,12,0,2,,,,,,,,1,,,75,78
76305,set_tempo,144,1,0,,,,,,306748,,,,,,
76308,note_on,108,0,2,,,,,,,,1,,,75,0
76320,note_on,0,0,3,,,,,,,,2,,,61,64
76320,note_on,132,0,3,,,,,,,,2,,,64,64
76320,note_on,12,0,2,,,,,,,,1,,,74,76
76428,note_on,0,0,3,,,,,,,,2,,,64,0
76428,note_on,108,0,2,,,,,,,,1,,,74,0
76428,note_on,108,0,3,,,,,,,,2,,,61,0
76440,note_on,12,0,2,,,,,,,,1,,,73,75
76449,set_tempo,144,1,0,,,,,,305748,,,,,,
76548,note_on,108,0,2,,,,,,,,1,,,73,0
76560,note_on,0,0,3,,,,,,,,2,,,63,64
76560,note_on,12,0,2,,,,,,,,1,,,73,74
76560,note_on,372,0,1,,,,,,,,0,,,76,75
76560,note_on,132,0,3,,,,,,,,2,,,66,64
76593,set_tempo,144,1,0,,,,,,304754,,,,,,
76668,note_on,0,0,3,,,,,,,,2,,,66,0
76668,note_on,108,0,3,,,,,,,,2,,,63,0
76668,note_on,108,0,1,,,,,,,,0,,,76,0
76668,note_on,108,0,2,,,,,,,,1,,,73,0
76680,note_on,12,0,2,,,,,,,,1,,,72,72
76737,set_tempo,144,1,0,,,,,,303767,,,,,,
76788,note_on,108,0,2,,,,,,,,1,,,72,0
76800,note_on,0,0,3,,,,,,,,2,,,64,64
76800,note_on,12,0,2,,,,,,,,1,,,71,71
76800,note_on,132,0,3,,,,,,,,2,,,67,64
76881,set_tempo,144,1,0,,,,,,302786,,,,,,
76908,note_on,0,0,3,,,,,,,,2,,,67,0
76908,note_on,108,0,2,,,,,,,,1,,,71,0
76908,note_on,108,0,3,,,,,,,,2,,,64,0
76920,note_on,12,0,2,,,,,,,,1,,,70,70
76929,set_tempo,48,1,0,,,,,,300842,,,,,,
77028,note_on,108,0,2,,,,,,,,1,,,70,0
77040,control_change,12,0,2,,,,,,,,1,64,0,,
77040,note_on,0,0,2,,,,,,,,1,,,71,69
77040,note_on,0,0,2,,,,,,,,1,,,67,69
77073,set_tempo,144,1,0,,,,,,299880,,,,,,
77169,set_tempo,96,1,0,,,,,,298924,,,,,,
77226,control_change,558,0,1,,,,,,,,0,64,127,,
77265,set_tempo,96,1,0,,,,,,297974,,,,,,
77280,note_on,54,0,1,,,,,,,,0,,,82,64
77361,set_tempo,96,1,0,,,,,,297030,,,,,,
77388,note_on,108,0,1,,,,,,,,0,,,82,0
77400,note_on,12,0,1,,,,,,,,0,,,70,65
77457,set_tempo,96,1,0,,,,,,296092,,,,,,
77508,note_on,108,0,1,,,,,,,,0,,,70,0
77520,note_on,12,0,1,,,,,,,,0,,,82,67
77553,set_tempo,96,1,0,,,,,,295159,,,,,,
77628,note_on,108,0,1,,,,,,,,0,,,82,0
77640,note_on,12,0,1,,,,,,,,0,,,83,68
77649,set_tempo,96,1,0,,,,,,294233,,,,,,
77688,note_on,0,0,2,,,,,,,,1,,,67,0
77688,note_on,648,0,2,,,,,,,,1,,,71,0
77700,note_on,792,0,3,,,,,,,,2,,,42,62
77733,control_change,33,0,3,,,,,,,,2,64,127,,
77733,control_change,45,0,2,,,,,,,,1,64,127,,
77748,note_on,108,0,1,,,,,,,,0,,,83,0
77754,note_on,21,0,3,,,,,,,,2,,,42,0
77760,note_on,0,0,2,,,,,,,,1,,,71,73
77760,note_on,0,0,2,,,,,,,,1,,,67,73
77760,note_on,27,0,2,,,,,,,,1,,,66,73
77760,note_on,12,0,1,,,,,,,,0,,,95,70
77793,set_tempo,144,1,0,,,,,,293312,,,,,,
77868,note_on,108,0,1,,,,,,,,0,,,95,0
77880,note_on,12,0,1,,,,,,,,0,,,83,71
77889,set_tempo,96,1,0,,,,,,292398,,,,,,
77985,set_tempo,96,1,0,,,,,,291489,,,,,,
77988,note_on,108,0,1,,,,,,,,0,,,83,0
78000,note_on,12,0,1,,,,,,,,0,,,82,73
78081,set_tempo,96,1,0,,,,,,290585,,,,,,
78108,note_on,108,0,1,,,,,,,,0,,,82,0
78120,note_on,12,0,1,,,,,,,,0,,,70,75
78177,set_tempo,96,1,0,,,,,,289687,,,,,,
78228,note_on,108,0,1,,,,,,,,0,,,70,0
78240,note_on,12,0,1,,,,,,,,0,,,82,76
78273,set_tempo,96,1,0,,,,,,288795,,,,,,
78348,note_on,108,0,1,,,,,,,,0,,,82,0
78360,note_on,12,0,1,,,,,,,,0,,,83,78
78369,set_tempo,96,1,0,,,,,,287908,,,,,,
78408,note_on,0,0,2,,,,,,,,1,,,67,0
78408,note_on,648,0,2,,,,,,,,1,,,71,0
78408,note_on,0,0,2,,,,,,,,1,,,66,0
78420,note_on,666,0,3,,,,,,,,2,,,33,74
78468,note_on,108,0,1,,,,,,,,0,,,83,0
78474,note_on,54,0,3,,,,,,,,2,,,33,0
78480,note_on,0,0,2,,,,,,,,1,,,71,84
78480,note_on,0,0,2,,,,,,,,1,,,67,84
78480,note_on,12,0,1,,,,,,,,0,,,95,79
78480,note_on,72,0,2,,,,,,,,1,,,65,84
78513,set_tempo,144,1,0,,,,,,287026,,,,,,
78588,note_on,108,0,1,,,,,,,,0,,,95,0
78600,note_on,12,0,1,,,,,,,,0,,,83,81
78609,set_tempo,96,1,0,,,,,,286150,,,,,,
78705,set_tempo,96,1,0,,,,,,285280,,,,,,
78708,note_on,108,0,1,,,,,,,,0,,,83,0
78720,note_on,12,0,1,,,,,,,,0,,,82,82
78801,set_tempo,96,1,0,,,,,,284414,,,,,,
78828,note_on,108,0,1,,,,,,,,0,,,82,0
78840,note_on,12,0,1,,,,,,,,0,,,70,84
78897,set_tempo,96,1,0,,,,,,283554,,,,,,
78948,note_on,108,0,1,,,,,,,,0,,,70,0
78960,note_on,12,0,1,,,,,,,,0,,,82,86
78993,set_tempo,96,1,0,,,,,,282699,,,,,,
79068,note_on,108,0,1,,,,,,,,0,,,82,0
79080,note_on,12,0,1,,,,,,,,0,,,83,87
79089,set_tempo,96,1,0,,,,,,281849,,,,,,
79128,note_on,0,0,2,,,,,,,,1,,,67,0
79128,note_on,648,0,2,,,,,,,,1,,,71,0
79128,note_on,0,0,2,,,,,,,,1,,,65,0
79140,note_on,666,0,3,,,,,,,,2,,,31,86
79188,note_on,108,0,1,,,,,,,,0,,,83,0
79194,note_on,54,0,3,,,,,,,,2,,,31,0
79200,note_on,0,0,2,,,,,,,,1,,,67,94
79200,note_on,0,0,2,,,,,,,,1,,,71,94
79200,note_on,12,0,1,,,,,,,,0,,,95,89
79200,note_on,72,0,2,,,,,,,,1,,,64,94
79233,set_tempo,144,1,0,,,,,,281004,,,,,,
79308,note_on,108,0,1,,,,,,,,0,,,95,0
79320,note_on,12,0,1,,,,,,,,0,,,83,90
79329,set_tempo,96,1,0,,,,,,280164,,,,,,
79425,set_tempo,96,1,0,,,,,,279330,,,,,,
79428,note_on,108,0,1,,,,,,,,0,,,83,0
79440,note_on,12,0,1,,,,,,,,0,,,82,92
79521,set_tempo,96,1,0,,,,,,278500,,,,,,
79548,note_on,108,0,1,,,,,,,,0,,,82,0
79560,note_on,12,0,1,,,,,,,,0,,,70,93
79617,set_tempo,96,1,0,,,,,,277675,,,,,,
79668,note_on,108,0,1,,,,,,,,0,,,70,0
79680,note_on,12,0,1,,,,,,,,0,,,82,95
79713,set_tempo,96,1,0,,,,,,276855,,,,,,
79788,note_on,108,0,1,,,,,,,,0,,,82,0
79800,note_on,12,0,1,,,,,,,,0,,,83,97
79809,set_tempo,96,1,0,,,,,,276040,,,,,,
79848,note_on,0,0,2,,,,,,,,1,,,64,0
79848,note_on,0,0,2,,,,,,,,1,,,67,0
79848,note_on,648,0,2,,,,,,,,1,,,71,0
79860,note_on,666,0,3,,,,,,,,2,,,30,98
79908,note_on,108,0,1,,,,,,,,0,,,83,0
79914,note_on,54,0,3,,,,,,,,2,,,30,0
79920,note_on,12,0,1,,,,,,,,0,,,95,98
79920,note_on,72,0,2,,,,,,,,1,,,63,105
79920,note_on,0,0,2,,,,,,,,1,,,66,105
79920,note_on,0,0,2,,,,,,,,1,,,71,105
79933,control_change,13,0,1,,,,,,,,0,64,0,,
80013,control_change,93,0,2,,,,,,,,1,64,0,,
80136,note_on,203,0,1,,,,,,,,0,,,95,0
80136,note_on,0,0,2,,,,,,,,1,,,63,0
80136,note_on,123,0,2,,,,,,,,1,,,71,0
80136,note_on,0,0,2,,,,,,,,1,,,66,0
80480,control_change,566,0,3,,,,,,,,2,64,0,,
80613,control_change,6465,0,4,,,,,,,,3,64,127,,
80640,note_on,0,0,1,,,,,,,,0,,,63,64
80640,note_on,0,0,1,,,,,,,,0,,,68,64
80640,note_on,504,0,1,,,,,,,,0,,,59,64
80640,note_on,27,0,4,,,,,,,,3,,,39,64
80748,note_on,108,0,4,,,,,,,,3,,,39,0
80748,note_on,108,0,1,,,,,,,,0,,,68,0
80748,note_on,0,0,1,,,,,,,,0,,,59,0
80748,note_on,0,0,1,,,,,,,,0,,,63,0
80760,note_on,12,0,4,,,,,,,,3,,,51,65
80868,note_on,108,0,4,,,,,,,,3,,,51,0
80880,note_on,0,0,1,,,,,,,,0,,,70,68
80880,note_on,0,0,1,,,,,,,,0,,,63,68
80880,note_on,12,0,4,,,,,,,,3,,,39,68
80880,note_on,132,0,1,,,,,,,,0,,,59,68
80988,note_on,0,0,1,,,,,,,,0,,,59,0
80988,note_on,108,0,1,,,,,,,,0,,,70,0
80988,note_on,108,0,4,,,,,,,,3,,,39,0
80988,note_on,0,0,1,,,,,,,,0,,,63,0
81000,note_on,12,0,4,,,,,,,,3,,,51,71
81108,note_on,108,0,4,,,,,,,,3,,,51,0
81120,note_on,12,0,4,,,,,,,,3,,,39,73
81120,note_on,0,0,1,,,,,,,,0,,,71,73
81120,note_on,0,0,1,,,,,,,,0,,,63,73
81120,note_on,132,0,1,,,,,,,,0,,,59,73
81228,note_on,108,0,1,,,,,,,,0,,,71,0
81228,note_on,0,0,1,,,,,,,,0,,,63,0
81228,note_on,0,0,1,,,,,,,,0,,,59,0
81228,note_on,108,0,4,,,,,,,,3,,,39,0
81240,note_on,12,0,4,,,,,,,,3,,,51,76
81348,note_on,108,0,4,,,,,,,,3,,,51,0
81360,note_on,0,0,2,,,,,,,,1,,,71,78
81360,note_on,12,0,4,,,,,,,,3,,,39,78
81360,note_on,1224,0,2,,,,,,,,1,,,61,78
81360,note_on,0,0,2,,,,,,,,1,,,64,78
81468,note_on,0,0,2,,,,,,,,1,,,61,0
81468,note_on,108,0,2,,,,,,,,1,,,71,0
81468,note_on,0,0,2,,,,,,,,1,,,64,0
81468,note_on,108,0,4,,,,,,,,3,,,39,0
81480,note_on,12,0,4,,,,,,,,3,,,52,80
81588,note_on,108,0,4,,,,,,,,3,,,52,0
81600,note_on,0,0,2,,,,,,,,1,,,70,83
81600,note_on,132,0,2,,,,,,,,1,,,61,83
81600,note_on,12,0,4,,,,,,,,3,,,39,83
81600,note_on,0,0,2,,,,,,,,1,,,64,83
81708,note_on,0,0,2,,,,,,,,1,,,61,0
81708,note_on,0,0,2,,,,,,,,1,,,64,0
81708,note_on,108,0,2,,,,,,,,1,,,70,0
81708,note_on,108,0,4,,,,,,,,3,,,39,0
81720,note_on,12,0,4,,,,,,,,3,,,52,85
81828,note_on,108,0,4,,,,,,,,3,,,52,0
81840,note_on,12,0,4,,,,,,,,3,,,39,88
81840,note_on,0,0,2,,,,,,,,1,,,64,88
81840,note_on,0,0,2,,,,,,,,1,,,68,88
81840,note_on,132,0,2,,,,,,,,1,,,61,88
81948,note_on,0,0,2,,,,,,,,1,,,64,0
81948,note_on,108,0,2,,,,,,,,1,,,68,0
81948,note_on,0,0,2,,,,,,,,1,,,61,0
81948,note_on,108,0,4,,,,,,,,3,,,39,0
81960,note_on,12,0,4,,,,,,,,3,,,52,90
82068,note_on,108,0,4,,,,,,,,3,,,52,0
82080,control_change,852,0,1,,,,,,,,0,64,127,,
82080,note_on,0,0,1,,,,,,,,0,,,79,93
82080,note_on,1600,0,3,,,,,,,,2,,,43,93
82080,control_change,12,0,4,,,,,,,,3,64,0,,
82080,note_on,0,0,1,,,,,,,,0,,,76,93
82080,note_on,0,0,3,,,,,,,,2,,,46,93
82080,note_on,0,0,3,,,,,,,,2,,,49,93
82080,note_on,0,0,1,,,,,,,,0,,,88,93
82080,note_on,0,0,3,,,,,,,,2,,,52,93
82464,note_on,0,0,3,,,,,,,,2,,,46,0
82464,note_on,0,0,3,,,,,,,,2,,,52,0
82464,note_on,384,0,3,,,,,,,,2,,,49,0
82464,note_on,0,0,3,,,,,,,,2,,,43,0
82512,note_on,0,0,1,,,,,,,,0,,,79,0
82512,note_on,0,0,1,,,,,,,,0,,,88,0
82512,note_on,432,0,1,,,,,,,,0,,,76,0
82560,note_on,48,0,1,,,,,,,,0,,,87,92
82560,note_on,0,0,1,,,,,,,,0,,,75,92
82560,note_on,96,0,3,,,,,,,,2,,,51,82
82776,note_on,216,0,1,,,,,,,,0,,,75,0
82776,note_on,216,0,3,,,,,,,,2,,,51,0
82776,note_on,0,0,1,,,,,,,,0,,,87,0
82800,note_on,0,0,2,,,,,,,,1,,,66,83
82800,note_on,0,0,2,,,,,,,,1,,,71,83
82800,note_on,24,0,1,,,,,,,,0,,,95,99
82800,note_on,0,0,1,,,,,,,,0,,,90,99
82800,note_on,0,0,1,,,,,,,,0,,,83,99
82800,note_on,852,0,2,,,,,,,,1,,,59,83
82800,note_on,0,0,2,,,,,,,,1,,,63,83
82800,note_on,0,0,1,,,,,,,,0,,,87,99
83016,note_on,216,0,2,,,,,,,,1,,,71,0
83016,note_on,216,0,1,,,,,,,,0,,,83,0
83016,note_on,0,0,1,,,,,,,,0,,,95,0
83016,note_on,0,0,2,,,,,,,,1,,,59,0
83016,note_on,0,0,2,,,,,,,,1,,,63,0
83016,note_on,0,0,2,,,,,,,,1,,,66,0
83016,note_on,0,0,1,,,,,,,,0,,,90,0
83016,note_on,0,0,1,,,,,,,,0,,,87,0
83040,control_change,24,0,1,,,,,,,,0,64,0,,
83453,control_change,1373,0,4,,,,,,,,3,64,127,,
83520,note_on,0,0,1,,,,,,,,0,,,68,65
83520,note_on,0,0,1,,,,,,,,0,,,63,65
83520,note_on,480,0,1,,,,,,,,0,,,59,65
83520,note_on,67,0,4,,,,,,,,3,,,39,65
83628,note_on,0,0,1,,,,,,,,0,,,63,0
83628,note_on,0,0,1,,,,,,,,0,,,59,0
83628,note_on,108,0,4,,,,,,,,3,,,39,0
83628,note_on,108,0,1,,,,,,,,0,,,68,0
83640,note_on,12,0,4,,,,,,,,3,,,51,67
83748,note_on,108,0,4,,,,,,,,3,,,51,0
83760,note_on,0,0,1,,,,,,,,0,,,70,70
83760,note_on,0,0,1,,,,,,,,0,,,63,70
83760,note_on,12,0,4,,,,,,,,3,,,39,70
83760,note_on,132,0,1,,,,,,,,0,,,59,70
83868,note_on,0,0,1,,,,,,,,0,,,59,0
83868,note_on,0,0,1,,,,,,,,0,,,63,0
83868,note_on,108,0,4,,,,,,,,3,,,39,0
83868,note_on,108,0,1,,,,,,,,0,,,70,0
83880,note_on,12,0,4,,,,,,,,3,,,51,72
83988,note_on,108,0,4,,,,,,,,3,,,51,0
84000,note_on,132,0,1,,,,,,,,0,,,59,75
84000,note_on,12,0,4,,,,,,,,3,,,39,75
84000,note_on,0,0,1,,,,,,,,0,,,71,75
84000,note_on,0,0,1,,,,,,,,0,,,63,75
84108,note_on,108,0,4,,,,,,,,3,,,39,0
84108,note_on,108,0,1,,,,,,,,0,,,71,0
84108,note_on,0,0,1,,,,,,,,0,,,59,0
84108,note_on,0,0,1,,,,,,,,0,,,63,0
84120,note_on,12,0,4,,,,,,,,3,,,51,78
84228,note_on,108,0,4,,,,,,,,3,,,51,0
84240,note_on,0,0,2,,,,,,,,1,,,64,80
84240,note_on,0,0,2,,,,,,,,1,,,71,80
84240,note_on,12,0,4,,,,,,,,3,,,39,80
84240,note_on,1224,0,2,,,,,,,,1,,,61,80
84348,note_on,0,0,2,,,,,,,,1,,,64,0
84348,note_on,0,0,2,,,,,,,,1,,,61,0
84348,note_on,108,0,4,,,,,,,,3,,,39,0
84348,note_on,108,0,2,,,,,,,,1,,,71,0
84360,note_on,12,0,4,,,,,,,,3,,,52,83
84468,note_on,108,0,4,,,,,,,,3,,,52,0
84480,note_on,132,0,2,,,,,,,,1,,,61,85
84480,note_on,0,0,2,,,,,,,,1,,,64,85
84480,note_on,0,0,2,,,,,,,,1,,,70,85
84480,note_on,12,0,4,,,,,,,,3,,,39,85
84588,note_on,108,0,2,,,,,,,,1,,,70,0
84588,note_on,0,0,2,,,,,,,,1,,,61,0
84588,note_on,108,0,4,,,,,,,,3,,,39,0
84588,note_on,0,0,2,,,,,,,,1,,,64,0
84600,note_on,12,0,4,,,,,,,,3,,,52,88
84708,note_on,108,0,4,,,,,,,,3,,,52,0
84720,note_on,0,0,2,,,,,,,,1,,,64,90
84720,note_on,0,0,2,,,,,,,,1,,,68,90
84720,note_on,132,0,2,,,,,,,,1,,,61,90
84720,note_on,12,0,4,,,,,,,,3,,,39,90
84828,note_on,0,0,2,,,,,,,,1,,,61,0
84828,note_on,0,0,2,,,,,,,,1,,,64,0
84828,note_on,108,0,2,,,,,,,,1,,,68,0
84828,note_on,108,0,4,,,,,,,,3,,,39,0
84840,note_on,12,0,4,,,,,,,,3,,,52,93
84906,control_change,798,0,1,,,,,,,,0,64,127,,
84948,note_on,108,0,4,,,,,,,,3,,,52,0
84960,note_on,0,0,2,,,,,,,,1,,,58,96
84960,note_on,132,0,2,,,,,,,,1,,,55,96
84960,note_on,0,0,2,,,,,,,,1,,,64,96
84960,note_on,54,0,1,,,,,,,,0,,,88,96
84960,note_on,0,0,2,,,,,,,,1,,,61,96
84960,note_on,0,0,1,,,,,,,,0,,,76,96
84960,note_on,0,0,1,,,,,,,,0,,,79,96
85013,control_change,65,0,4,,,,,,,,3,64,0,,
85392,note_on,0,0,1,,,,,,,,0,,,88,0
85392,note_on,0,0,2,,,,,,,,1,,,58,0
85392,note_on,0,0,1,,,,,,,,0,,,79,0
85392,note_on,0,0,2,,,,,,,,1,,,55,0
85392,note_on,432,0,1,,,,,,,,0,,,76,0
85392,note_on,432,0,2,,,,,,,,1,,,64,0
85392,note_on,0,0,2,,,,,,,,1,,,61,0
85440,note_on,48,0,2,,,,,,,,1,,,63,94
85440,note_on,0,0,1,,,,,,,,0,,,75,88
85440,note_on,48,0,1,,,,,,,,0,,,87,88
85506,control_change,66,0,2,,,,,,,,1,64,127,,
85656,note_on,0,0,1,,,,,,,,0,,,87,0
85656,note_on,216,0,1,,,,,,,,0,,,75,0
85656,note_on,150,0,2,,,,,,,,1,,,63,0
85680,note_on,24,0,2,,,,,,,,1,,,59,109
85680,note_on,0,0,1,,,,,,,,0,,,88,94
85680,note_on,0,0,2,,,,,,,,1,,,68,109
85680,note_on,0,0,2,,,,,,,,1,,,71,109
85680,note_on,0,0,1,,,,,,,,0,,,83,94
85680,note_on,0,0,1,,,,,,,,0,,,92,94
85680,note_on,0,0,2,,,,,,,,1,,,64,109
85680,note_on,24,0,1,,,,,,,,0,,,95,94
85866,control_change,186,0,1,,,,,,,,0,64,0,,
85896,note_on,0,0,1,,,,,,,,0,,,88,0
85896,note_on,0,0,1,,,,,,,,0,,,92,0
85896,note_on,216,0,2,,,,,,,,1,,,71,0
85896,note_on,0,0,1,,,,,,,,0,,,95,0
85896,note_on,30,0,1,,,,,,,,0,,,83,0
85896,note_on,0,0,2,,,,,,,,1,,,59,0
85896,note_on,0,0,2,,,,,,,,1,,,64,0
85896,note_on,0,0,2,,,,,,,,1,,,68,0
85903,control_change,7,0,2,,,,,,,,1,64,0,,
86400,note_on,1387,0,4,,,,,,,,3,,,35,64
86400,note_on,504,0,1,,,,,,,,0,,,56,64
86400,note_on,0,0,1,,,,,,,,0,,,64,64
86400,control_change,0,0,4,,,,,,,,3,64,127,,
86508,note_on,108,0,1,,,,,,,,0,,,64,0
86508,note_on,0,0,1,,,,,,,,0,,,56,0
86508,note_on,108,0,4,,,,,,,,3,,,35,0
86520,note_on,12,0,4,,,,,,,,3,,,47,65
86628,note_on,108,0,4,,,,,,,,3,,,47,0
86640,note_on,12,0,4,,,,,,,,3,,,35,67
86640,note_on,0,0,1,,,,,,,,0,,,66,67
86640,note_on,0,0,1,,,,,,,,0,,,64,67
86640,note_on,132,0,1,,,,,,,,0,,,56,67
86748,note_on,0,0,1,,,,,,,,0,,,64,0
86748,note_on,0,0,1,,,,,,,,0,,,56,0
86748,note_on,108,0,4,,,,,,,,3,,,35,0
86748,note_on,108,0,1,,,,,,,,0,,,66,0
86760,note_on,12,0,4,,,,,,,,3,,,47,69
86868,note_on,108,0,4,,,,,,,,3,,,47,0
86880,note_on,12,0,4,,,,,,,,3,,,35,71
86880,note_on,132,0,1,,,,,,,,0,,,56,71
86880,note_on,0,0,1,,,,,,,,0,,,68,71
86880,note_on,0,0,1,,,,,,,,0,,,64,71
86988,note_on,108,0,1,,,,,,,,0,,,68,0
86988,note_on,0,0,1,,,,,,,,0,,,64,0
86988,note_on,0,0,1,,,,,,,,0,,,56,0
86988,note_on,108,0,4,,,,,,,,3,,,35,0
87000,note_on,12,0,4,,,,,,,,3,,,47,73
87108,note_on,108,0,4,,,,,,,,3,,,47,0
87120,note_on,12,0,4,,,,,,,,3,,,35,76
87120,note_on,132,0,1,,,,,,,,0,,,57,76
87120,note_on,0,0,1,,,,,,,,0,,,68,76
87120,note_on,0,0,1,,,,,,,,0,,,64,76
87228,note_on,108,0,4,,,,,,,,3,,,35,0
87228,note_on,108,0,1,,,,,,,,0,,,68,0
87228,note_on,0,0,1,,,,,,,,0,,,57,0
87228,note_on,0,0,1,,,,,,,,0,,,64,0
87240,note_on,12,0,4,,,,,,,,3,,,48,78
87348,note_on,108,0,4,,,,,,,,3,,,48,0
87360,note_on,0,0,1,,,,,,,,0,,,64,80
87360,note_on,0,0,1,,,,,,,,0,,,66,80
87360,note_on,12,0,4,,,,,,,,3,,,35,80
87360,note_on,132,0,1,,,,,,,,0,,,57,80
87468,note_on,0,0,1,,,,,,,,0,,,64,0
87468,note_on,0,0,1,,,,,,,,0,,,57,0
87468,note_on,108,0,1,,,,,,,,0,,,66,0
87468,note_on,108,0,4,,,,,,,,3,,,35,0
87480,note_on,12,0,4,,,,,,,,3,,,48,81
87588,note_on,108,0,4,,,,,,,,3,,,48,0
87600,note_on,132,0,1,,,,,,,,0,,,57,83
87600,note_on,12,0,4,,,,,,,,3,,,35,83
87600,note_on,0,0,1,,,,,,,,0,,,64,83
87708,note_on,108,0,4,,,,,,,,3,,,35,0
87708,note_on,108,0,1,,,,,,,,0,,,64,0
87708,note_on,0,0,1,,,,,,,,0,,,57,0
87720,note_on,12,0,4,,,,,,,,3,,,48,85
87828,note_on,108,0,4,,,,,,,,3,,,48,0
87840,note_on,0,0,4,,,,,,,,3,,,60,87
87840,note_on,0,0,1,,,,,,,,0,,,72,87
87840,note_on,0,0,1,,,,,,,,0,,,75,87
87840,note_on,0,0,1,,,,,,,,0,,,84,87
87840,note_on,0,0,4,,,,,,,,3,,,54,87
87840,control_change,132,0,1,,,,,,,,0,64,127,,
87840,note_on,12,0,4,,,,,,,,3,,,57,87
87960,control_change,120,0,4,,,,,,,,3,64,0,,
88272,note_on,0,0,1,,,,,,,,0,,,75,0
88272,note_on,0,0,4,,,,,,,,3,,,57,0
88272,note_on,0,0,4,,,,,,,,3,,,54,0
88272,note_on,432,0,1,,,,,,,,0,,,72,0
88272,note_on,312,0,4,,,,,,,,3,,,60,0
88272,note_on,0,0,1,,,,,,,,0,,,84,0
88320,note_on,0,0,1,,,,,,,,0,,,71,96
88320,note_on,48,0,4,,,,,,,,3,,,59,96
88320,note_on,48,0,1,,,,,,,,0,,,83,96
88536,note_on,216,0,1,,,,,,,,0,,,71,0
88536,note_on,0,0,1,,,,,,,,0,,,83,0
88536,note_on,216,0,4,,,,,,,,3,,,59,0
88560,control_change,2657,0,2,,,,,,,,1,64,127,,
88560,note_on,0,0,2,,,,,,,,1,,,59,99
88560,note_on,0,0,1,,,,,,,,0,,,88,99
88560,note_on,0,0,1,,,,,,,,0,,,92,99
88560,note_on,0,0,2,,,,,,,,1,,,64,99
88560,note_on,0,0,2,,,,,,,,1,,,68,99
88560,note_on,0,0,2,,,,,,,,1,,,71,99
88560,note_on,0,0,1,,,,,,,,0,,,83,99
88560,note_on,24,0,1,,,,,,,,0,,,95,99
88776,note_on,216,0,1,,,,,,,,0,,,83,0
88776,note_on,0,0,1,,,,,,,,0,,,92,0
88776,note_on,0,0,1,,,,,,,,0,,,88,0
88776,note_on,0,0,1,,,,,,,,0,,,95,0
88776,note_on,216,0,2,,,,,,,,1,,,71,0
88776,note_on,0,0,2,,,,,,,,1,,,68,0
88776,note_on,0,0,2,,,,,,,,1,,,64,0
88776,note_on,0,0,2,,,,,,,,1,,,59,0
88800,control_change,24,0,1,,,,,,,,0,64,0,,
88817,control_change,41,0,2,,,,,,,,1,64,0,,
89280,note_on,0,0,4,,,,,,,,3,,,35,65
89280,control_change,744,0,4,,,,,,,,3,64,127,,
89280,note_on,480,0,1,,,,,,,,0,,,56,65
89280,note_on,0,0,1,,,,,,,,0,,,64,65
89388,note_on,108,0,4,,,,,,,,3,,,35,0
89388,note_on,0,0,1,,,,,,,,0,,,56,0
89388,note_on,108,0,1,,,,,,,,0,,,64,0
89400,note_on,12,0,4,,,,,,,,3,,,47,67
89508,note_on,108,0,4,,,,,,,,3,,,47,0
89520,note_on,132,0,1,,,,,,,,0,,,56,69
89520,note_on,12,0,4,,,,,,,,3,,,35,69
89520,note_on,0,0,1,,,,,,,,0,,,64,69
89520,note_on,0,0,1,,,,,,,,0,,,66,69
89628,note_on,108,0,4,,,,,,,,3,,,35,0
89628,note_on,0,0,1,,,,,,,,0,,,56,0
89628,note_on,0,0,1,,,,,,,,0,,,64,0
89628,note_on,108,0,1,,,,,,,,0,,,66,0
89640,note_on,12,0,4,,,,,,,,3,,,47,71
89748,note_on,108,0,4,,,,,,,,3,,,47,0
89760,note_on,0,0,1,,,,,,,,0,,,64,74
89760,note_on,132,0,1,,,,,,,,0,,,56,74
89760,note_on,0,0,1,,,,,,,,0,,,68,74
89760,note_on,12,0,4,,,,,,,,3,,,35,74
89868,note_on,108,0,4,,,,,,,,3,,,35,0
89868,note_on,0,0,1,,,,,,,,0,,,56,0
89868,note_on,0,0,1,,,,,,,,0,,,64,0
89868,note_on,108,0,1,,,,,,,,0,,,68,0
89880,note_on,12,0,4,,,,,,,,3,,,47,76
89988,note_on,108,0,4,,,,,,,,3,,,47,0
90000,note_on,132,0,1,,,,,,,,0,,,57,78
90000,note_on,12,0,4,,,,,,,,3,,,35,78
90000,note_on,0,0,1,,,,,,,,0,,,68,78
90000,note_on,0,0,1,,,,,,,,0,,,64,78
90108,note_on,0,0,1,,,,,,,,0,,,64,0
90108,note_on,0,0,1,,,,,,,,0,,,57,0
90108,note_on,108,0,4,,,,,,,,3,,,35,0
90108,note_on,108,0,1,,,,,,,,0,,,68,0
90120,note_on,12,0,4,,,,,,,,3,,,48,80
90228,note_on,108,0,4,,,,,,,,3,,,48,0
90240,note_on,0,0,1,,,,,,,,0,,,64,83
90240,control_change,0,0,4,,,,,,,,3,64,0,,
90240,note_on,0,0,1,,,,,,,,0,,,66,83
90240,note_on,12,0,4,,,,,,,,3,,,35,83
90240,note_on,132,0,1,,,,,,,,0,,,57,83
90348,note_on,0,0,1,,,,,,,,0,,,64,0
90348,note_on,0,0,1,,,,,,,,0,,,57,0
90348,note_on,108,0,1,,,,,,,,0,,,66,0
90348,note_on,108,0,4,,,,,,,,3,,,35,0
90360,note_on,12,0,4,,,,,,,,3,,,48,85
90468,note_on,108,0,4,,,,,,,,3,,,48,0
90480,note_on,12,0,4,,,,,,,,3,,,35,87
90480,note_on,0,0,1,,,,,,,,0,,,64,87
90480,note_on,132,0,1,,,,,,,,0,,,57,87
90588,note_on,108,0,4,,,,,,,,3,,,35,0
90588,note_on,108,0,1,,,,,,,,0,,,64,0
90588,note_on,0,0,1,,,,,,,,0,,,57,0
90600,note_on,12,0,4,,,,,,,,3,,,48,93
90703,control_change,115,0,1,,,,,,,,0,64,127,,
90708,note_on,108,0,4,,,,,,,,3,,,48,0
90720,note_on,0,0,1,,,,,,,,0,,,72,111
90720,note_on,0,0,4,,,,,,,,3,,,57,93
90720,note_on,0,0,4,,,,,,,,3,,,60,93
90720,note_on,17,0,1,,,,,,,,0,,,84,111
90720,note_on,0,0,1,,,,,,,,0,,,75,111
90720,note_on,12,0,4,,,,,,,,3,,,54,93
90936,note_on,216,0,4,,,,,,,,3,,,57,0
90936,note_on,0,0,4,,,,,,,,3,,,60,0
90936,note_on,0,0,4,,,,,,,,3,,,54,0
90960,note_on,24,0,4,,,,,,,,3,,,47,94
91152,note_on,432,0,1,,,,,,,,0,,,72,0
91152,note_on,0,0,1,,,,,,,,0,,,84,0
91152,note_on,0,0,1,,,,,,,,0,,,75,0
91176,note_on,216,0,4,,,,,,,,3,,,47,0
91200,note_on,48,0,1,,,,,,,,0,,,83,92
91200,note_on,0,0,1,,,,,,,,0,,,71,92
91308,note_on,108,0,1,,,,,,,,0,,,71,0
91308,note_on,0,0,1,,,,,,,,0,,,83,0
91440,note_on,0,0,4,,,,,,,,3,,,56,95
91440,note_on,0,0,4,,,,,,,,3,,,53,95
91440,note_on,264,0,4,,,,,,,,3,,,62,95
91440,note_on,132,0,1,,,,,,,,0,,,86,111
91440,note_on,0,0,1,,,,,,,,0,,,74,111
91440,control_change,0,0,4,,,,,,,,3,64,127,,
91440,note_on,0,0,1,,,,,,,,0,,,77,111
91656,note_on,216,0,4,,,,,,,,3,,,53,0
91656,note_on,0,0,4,,,,,,,,3,,,62,0
91656,note_on,0,0,4,,,,,,,,3,,,56,0
91680,note_on,24,0,4,,,,,,,,3,,,47,76
91872,note_on,0,0,1,,,,,,,,0,,,86,0
91872,note_on,0,0,1,,,,,,,,0,,,77,0
91872,note_on,432,0,1,,,,,,,,0,,,74,0
91896,note_on,216,0,4,,,,,,,,3,,,47,0
91920,note_on,48,0,1,,,,,,,,0,,,85,94
91920,note_on,0,0,1,,,,,,,,0,,,73,94
92028,note_on,108,0,1,,,,,,,,0,,,73,0
92028,note_on,0,0,1,,,,,,,,0,,,85,0
92160,note_on,0,0,4,,,,,,,,3,,,61,97
92160,note_on,0,0,1,,,,,,,,0,,,76,111
92160,note_on,0,0,4,,,,,,,,3,,,55,97
92160,note_on,0,0,1,,,,,,,,0,,,79,111
92160,note_on,0,0,4,,,,,,,,3,,,58,97
92160,note_on,132,0,1,,,,,,,,0,,,88,111
92160,note_on,264,0,4,,,,,,,,3,,,64,97
92376,note_on,0,0,4,,,,,,,,3,,,64,0
92376,note_on,0,0,4,,,,,,,,3,,,58,0
92376,note_on,0,0,4,,,,,,,,3,,,55,0
92376,note_on,216,0,4,,,,,,,,3,,,61,0
92400,note_on,0,0,4,,,,,,,,3,,,47,80
92400,control_change,24,0,4,,,,,,,,3,64,0,,
92592,note_on,432,0,1,,,,,,,,0,,,76,0
92592,note_on,0,0,1,,,,,,,,0,,,79,0
92592,note_on,0,0,1,,,,,,,,0,,,88,0
92616,note_on,216,0,4,,,,,,,,3,,,47,0
92640,note_on,48,0,1,,,,,,,,0,,,87,95
92640,note_on,0,0,1,,,,,,,,0,,,75,95
92748,note_on,108,0,1,,,,,,,,0,,,75,0
92748,note_on,0,0,1,,,,,,,,0,,,87,0
92880,note_on,0,0,4,,,,,,,,3,,,56,99
92880,note_on,0,0,4,,,,,,,,3,,,65,99
92880,control_change,264,0,4,,,,,,,,3,64,127,,
92880,note_on,132,0,1,,,,,,,,0,,,89,112
92880,note_on,0,0,4,,,,,,,,3,,,59,99
92880,note_on,0,0,1,,,,,,,,0,,,80,112
92880,note_on,0,0,4,,,,,,,,3,,,62,99
92880,note_on,0,0,1,,,,,,,,0,,,77,112
93096,note_on,0,0,4,,,,,,,,3,,,56,0
93096,note_on,0,0,4,,,,,,,,3,,,59,0
93096,note_on,216,0,4,,,,,,,,3,,,62,0
93096,note_on,0,0,4,,,,,,,,3,,,65,0
93120,note_on,24,0,4,,,,,,,,3,,,47,80
93312,note_on,432,0,1,,,,,,,,0,,,77,0
93312,note_on,0,0,1,,,,,,,,0,,,80,0
93312,note_on,0,0,1,,,,,,,,0,,,89,0
93336,note_on,216,0,4,,,,,,,,3,,,47,0
93360,note_on,0,0,1,,,,,,,,0,,,76,100
93360,note_on,48,0,1,,,,,,,,0,,,88,100
93468,note_on,0,0,1,,,,,,,,0,,,88,0
93468,note_on,108,0,1,,,,,,,,0,,,76,0
93600,note_on,264,0,4,,,,,,,,3,,,67,94
93600,note_on,0,0,4,,,,,,,,3,,,64,94
93600,note_on,132,0,1,,,,,,,,0,,,91,113
93600,note_on,0,0,4,,,,,,,,3,,,58,94
93600,note_on,0,0,1,,,,,,,,0,,,79,113
93600,note_on,0,0,1,,,,,,,,0,,,82,113
93600,note_on,0,0,4,,,,,,,,3,,,61,94
93816,note_on,0,0,4,,,,,,,,3,,,58,0
93816,note_on,0,0,4,,,,,,,,3,,,64,0
93816,note_on,216,0,4,,,,,,,,3,,,61,0
93816,note_on,0,0,4,,,,,,,,3,,,67,0
93840,control_change,0,0,4,,,,,,,,3,64,0,,
93840,note_on,24,0,4,,,,,,,,3,,,47,77
94032,note_on,0,0,1,,,,,,,,0,,,82,0
94032,note_on,0,0,1,,,,,,,,0,,,91,0
94032,note_on,432,0,1,,,,,,,,0,,,79,0
94056,note_on,216,0,4,,,,,,,,3,,,47,0
94080,note_on,0,0,1,,,,,,,,0,,,78,100
94080,note_on,48,0,1,,,,,,,,0,,,90,100
94188,note_on,0,0,1,,,,,,,,0,,,90,0
94188,note_on,108,0,1,,,,,,,,0,,,78,0
94320,note_on,0,0,2,,,,,,,,1,,,63,96
94320,note_on,0,0,2,,,,,,,,1,,,60,96
94320,note_on,132,0,1,,,,,,,,0,,,96,114
94320,control_change,5503,0,2,,,,,,,,1,64,127,,
94320,note_on,0,0,2,,,,,,,,1,,,66,96
94320,note_on,0,0,1,,,,,,,,0,,,90,114
94320,note_on,0,0,1,,,,,,,,0,,,87,114
94320,note_on,0,0,1,,,,,,,,0,,,84,114
94320,note_on,0,0,2,,,,,,,,1,,,72,96
94428,note_on,0,0,1,,,,,,,,0,,,90,0
94428,note_on,0,0,1,,,,,,,,0,,,87,0
94428,note_on,108,0,2,,,,,,,,1,,,72,0
94428,note_on,0,0,1,,,,,,,,0,,,96,0
94428,note_on,0,0,2,,,,,,,,1,,,63,0
94428,note_on,108,0,1,,,,,,,,0,,,84,0
94428,note_on,0,0,2,,,,,,,,1,,,66,0
94428,note_on,0,0,2,,,,,,,,1,,,60,0
94560,note_on,0,0,1,,,,,,,,0,,,83,100
94560,note_on,132,0,2,,,,,,,,1,,,59,95
94560,note_on,132,0,1,,,,,,,,0,,,95,100
94560,note_on,0,0,2,,,,,,,,1,,,71,95
94668,note_on,0,0,2,,,,,,,,1,,,59,0
94668,note_on,108,0,1,,,,,,,,0,,,83,0
94668,note_on,108,0,2,,,,,,,,1,,,71,0
94668,note_on,0,0,1,,,,,,,,0,,,95,0
94800,note_on,132,0,2,,,,,,,,1,,,57,94
94800,note_on,0,0,1,,,,,,,,0,,,81,101
94800,note_on,0,0,2,,,,,,,,1,,,69,94
94800,note_on,132,0,1,,,,,,,,0,,,93,101
94908,note_on,108,0,1,,,,,,,,0,,,81,0
94908,note_on,108,0,2,,,,,,,,1,,,69,0
94908,note_on,0,0,2,,,,,,,,1,,,57,0
94908,note_on,0,0,1,,,,,,,,0,,,93,0
95040,note_on,132,0,1,,,,,,,,0,,,103,113
95040,note_on,0,0,2,,,,,,,,1,,,79,93
95040,note_on,132,0,2,,,,,,,,1,,,67,93
95040,note_on,0,0,1,,,,,,,,0,,,91,113
95148,note_on,108,0,2,,,,,,,,1,,,79,0
95148,note_on,0,0,2,,,,,,,,1,,,67,0
95148,note_on,108,0,1,,,,,,,,0,,,91,0
95148,note_on,0,0,1,,,,,,,,0,,,103,0
95280,note_on,0,0,1,,,,,,,,0,,,90,101
95280,note_on,132,0,2,,,,,,,,1,,,78,92
95280,note_on,0,0,2,,,,,,,,1,,,66,92
95280,note_on,132,0,1,,,,,,,,0,,,102,101
95388,note_on,0,0,1,,,,,,,,0,,,102,0
95388,note_on,108,0,1,,,,,,,,0,,,90,0
95388,note_on,0,0,2,,,,,,,,1,,,78,0
95388,note_on,108,0,2,,,,,,,,1,,,66,0
95520,note_on,132,0,1,,,,,,,,0,,,100,101
95520,note_on,132,0,2,,,,,,,,1,,,76,92
95520,note_on,0,0,2,,,,,,,,1,,,64,92
95520,note_on,0,0,1,,,,,,,,0,,,88,101
95628,note_on,0,0,2,,,,,,,,1,,,76,0
95628,note_on,108,0,1,,,,,,,,0,,,88,0
95628,note_on,0,0,1,,,,,,,,0,,,100,0
95628,note_on,108,0,2,,,,,,,,1,,,64,0
95760,note_on,132,0,1,,,,,,,,0,,,96,117
95760,note_on,0,0,1,,,,,,,,0,,,84,117
95760,note_on,0,0,1,,,,,,,,0,,,87,117
95760,note_on,0,0,1,,,,,,,,0,,,90,117
95760,note_on,0,0,2,,,,,,,,1,,,72,91
95760,note_on,0,0,2,,,,,,,,1,,,66,91
95760,note_on,0,0,2,,,,,,,,1,,,63,91
95760,note_on,132,0,2,,,,,,,,1,,,60,91
95868,note_on,0,0,1,,,,,,,,0,,,90,0
95868,note_on,0,0,2,,,,,,,,1,,,63,0
95868,note_on,0,0,1,,,,,,,,0,,,96,0
95868,note_on,0,0,1,,,,,,,,0,,,87,0
95868,note_on,0,0,2,,,,,,,,1,,,66,0
95868,note_on,108,0,1,,,,,,,,0,,,84,0
95868,note_on,0,0,2,,,,,,,,1,,,60,0
95868,note_on,108,0,2,,,,,,,,1,,,72,0
96000,note_on,0,0,1,,,,,,,,0,,,83,101
96000,note_on,132,0,2,,,,,,,,1,,,59,90
96000,note_on,0,0,2,,,,,,,,1,,,71,90
96000,note_on,132,0,1,,,,,,,,0,,,95,101
96108,note_on,0,0,2,,,,,,,,1,,,59,0
96108,note_on,108,0,2,,,,,,,,1,,,71,0
96108,note_on,0,0,1,,,,,,,,0,,,95,0
96108,note_on,108,0,1,,,,,,,,0,,,83,0
96240,note_on,132,0,1,,,,,,,,0,,,93,101
96240,note_on,0,0,1,,,,,,,,0,,,81,101
96240,note_on,0,0,2,,,,,,,,1,,,69,89
96240,note_on,132,0,2,,,,,,,,1,,,57,89
96348,note_on,108,0,1,,,,,,,,0,,,81,0
96348,note_on,0,0,1,,,,,,,,0,,,93,0
96348,note_on,108,0,2,,,,,,,,1,,,69,0
96348,note_on,0,0,2,,,,,,,,1,,,57,0
96480,note_on,132,0,2,,,,,,,,1,,,67,88
96480,note_on,0,0,1,,,,,,,,0,,,91,102
96480,note_on,132,0,1,,,,,,,,0,,,103,102
96480,note_on,0,0,2,,,,,,,,1,,,79,88
96588,note_on,0,0,1,,,,,,,,0,,,103,0
96588,note_on,108,0,2,,,,,,,,1,,,79,0
96588,note_on,0,0,2,,,,,,,,1,,,67,0
96588,note_on,108,0,1,,,,,,,,0,,,91,0
96720,note_on,0,0,2,,,,,,,,1,,,66,87
96720,note_on,0,0,1,,,,,,,,0,,,90,111
96720,note_on,132,0,2,,,,,,,,1,,,78,87
96720,note_on,132,0,1,,,,,,,,0,,,102,111
96828,note_on,0,0,1,,,,,,,,0,,,102,0
96828,note_on,108,0,1,,,,,,,,0,,,90,0
96828,note_on,108,0,2,,,,,,,,1,,,66,0
96828,note_on,0,0,2,,,,,,,,1,,,78,0
96960,note_on,0,0,2,,,,,,,,1,,,64,86
96960,note_on,132,0,2,,,,,,,,1,,,76,86
96960,note_on,132,0,1,,,,,,,,0,,,100,102
96960,note_on,0,0,1,,,,,,,,0,,,88,102
97068,note_on,0,0,2,,,,,,,,1,,,76,0
97068,note_on,108,0,2,,,,,,,,1,,,64,0
97068,note_on,0,0,1,,,,,,,,0,,,100,0
97068,note_on,108,0,1,,,,,,,,0,,,88,0
97200,note_on,0,0,2,,,,,,,,1,,,63,85
97200,note_on,0,0,1,,,,,,,,0,,,84,122
97200,note_on,0,0,1,,,,,,,,0,,,87,122
97200,note_on,0,0,1,,,,,,,,0,,,90,122
97200,note_on,132,0,1,,,,,,,,0,,,96,122
97200,note_on,0,0,2,,,,,,,,1,,,66,85
97200,note_on,0,0,2,,,,,,,,1,,,72,85
97200,note_on,132,0,2,,,,,,,,1,,,60,85
97308,note_on,0,0,2,,,,,,,,1,,,63,0
97308,note_on,108,0,2,,,,,,,,1,,,72,0
97308,note_on,108,0,1,,,,,,,,0,,,84,0
97308,note_on,0,0,2,,,,,,,,1,,,66,0
97308,note_on,0,0,1,,,,,,,,0,,,90,0
97308,note_on,0,0,1,,,,,,,,0,,,96,0
97308,note_on,0,0,1,,,,,,,,0,,,87,0
97308,note_on,0,0,2,,,,,,,,1,,,60,0
97440,note_on,132,0,2,,,,,,,,1,,,59,84
97440,note_on,0,0,2,,,,,,,,1,,,71,84
97440,note_on,132,0,1,,,,,,,,0,,,95,89
97440,note_on,0,0,1,,,,,,,,0,,,83,89
97548,note_on,0,0,1,,,,,,,,0,,,95,0
97548,note_on,108,0,1,,,,,,,,0,,,83,0
97548,note_on,108,0,2,,,,,,,,1,,,71,0
97548,note_on,0,0,2,,,,,,,,1,,,59,0
97680,note_on,132,0,1,,,,,,,,0,,,93,90
97680,note_on,0,0,2,,,,,,,,1,,,69,92
97680,note_on,132,0,2,,,,,,,,1,,,57,92
97680,note_on,0,0,1,,,,,,,,0,,,81,90
97788,note_on,108,0,2,,,,,,,,1,,,69,0
97788,note_on,108,0,1,,,,,,,,0,,,81,0
97788,note_on,0,0,1,,,,,,,,0,,,93,0
97788,note_on,0,0,2,,,,,,,,1,,,57,0
97920,note_on,132,0,2,,,,,,,,1,,,55,94
97920,note_on,0,0,2,,,,,,,,1,,,67,94
97920,note_on,132,0,1,,,,,,,,0,,,91,91
97920,note_on,0,0,2,,,,,,,,1,,,61,94
97920,note_on,0,0,2,,,,,,,,1,,,58,94
97920,note_on,0,0,1,,,,,,,,0,,,79,91
97920,note_on,0,0,1,,,,,,,,0,,,82,91
97920,note_on,0,0,1,,,,,,,,0,,,85,91
98028,note_on,108,0,1,,,,,,,,0,,,79,0
98028,note_on,0,0,2,,,,,,,,1,,,58,0
98028,note_on,0,0,2,,,,,,,,1,,,55,0
98028,note_on,0,0,1,,,,,,,,0,,,85,0
98028,note_on,0,0,1,,,,,,,,0,,,82,0
98028,note_on,0,0,2,,,,,,,,1,,,61,0
98028,note_on,0,0,1,,,,,,,,0,,,91,0
98028,note_on,108,0,2,,,,,,,,1,,,67,0
98160,note_on,132,0,2,,,,,,,,1,,,54,95
98160,note_on,0,0,1,,,,,,,,0,,,78,93
98160,note_on,0,0,2,,,,,,,,1,,,66,95
98160,note_on,132,0,1,,,,,,,,0,,,90,93
98268,note_on,108,0,1,,,,,,,,0,,,78,0
98268,note_on,0,0,1,,,,,,,,0,,,90,0
98268,note_on,0,0,2,,,,,,,,1,,,54,0
98268,note_on,108,0,2,,,,,,,,1,,,66,0
98400,note_on,0,0,1,,,,,,,,0,,,76,94
98400,note_on,132,0,2,,,,,,,,1,,,52,97
98400,note_on,0,0,2,,,,,,,,1,,,64,97
98400,note_on,132,0,1,,,,,,,,0,,,88,94
98508,note_on,108,0,2,,,,,,,,1,,,64,0
98508,note_on,0,0,1,,,,,,,,0,,,88,0
98508,note_on,108,0,1,,,,,,,,0,,,76,0
98508,note_on,0,0,2,,,,,,,,1,,,52,0
98640,control_change,132,0,2,,,,,,,,1,64,0,,
98640,note_on,132,0,1,,,,,,,,0,,,86,95
98640,note_on,0,0,3,,,,,,,,2,,,53,99
98640,note_on,0,0,1,,,,,,,,0,,,78,95
98640,note_on,0,0,3,,,,,,,,2,,,50,99
98640,control_change,15864,0,3,,,,,,,,2,64,127,,
98640,note_on,0,0,3,,,,,,,,2,,,62,99
98640,note_on,0,0,3,,,,,,,,2,,,56,99
98640,note_on,0,0,1,,,,,,,,0,,,80,95
98640,note_on,0,0,1,,,,,,,,0,,,74,95
98748,note_on,0,0,3,,,,,,,,2,,,62,0
98748,note_on,0,0,3,,,,,,,,2,,,56,0
98748,note_on,0,0,3,,,,,,,,2,,,53,0
98748,note_on,108,0,3,,,,,,,,2,,,50,0
98748,note_on,108,0,1,,,,,,,,0,,,74,0
98748,note_on,0,0,1,,,,,,,,0,,,78,0
98748,note_on,0,0,1,,,,,,,,0,,,80,0
98748,note_on,0,0,1,,,,,,,,0,,,86,0
98880,note_on,0,0,3,,,,,,,,2,,,49,100
98880,note_on,132,0,1,,,,,,,,0,,,85,96
98880,note_on,0,0,1,,,,,,,,0,,,73,96
98880,note_on,132,0,3,,,,,,,,2,,,61,100
98988,note_on,0,0,1,,,,,,,,0,,,85,0
98988,note_on,0,0,3,,,,,,,,2,,,61,0
98988,note_on,108,0,3,,,,,,,,2,,,49,0
98988,note_on,108,0,1,,,,,,,,0,,,73,0
99120,note_on,0,0,1,,,,,,,,0,,,71,98
99120,note_on,132,0,3,,,,,,,,2,,,59,101
99120,note_on,132,0,1,,,,,,,,0,,,83,98
99120,note_on,0,0,3,,,,,,,,2,,,47,101
99228,note_on,0,0,3,,,,,,,,2,,,59,0
99228,note_on,108,0,1,,,,,,,,0,,,71,0
99228,note_on,108,0,3,,,,,,,,2,,,47,0
99228,note_on,0,0,1,,,,,,,,0,,,83,0
99360,note_on,132,0,1,,,,,,,,0,,,81,99
99360,note_on,0,0,3,,,,,,,,2,,,45,102
99360,note_on,0,0,3,,,,,,,,2,,,48,102
99360,note_on,0,0,3,,,,,,,,2,,,51,102
99360,note_on,0,0,1,,,,,,,,0,,,69,99
99360,note_on,0,0,1,,,,,,,,0,,,72,99
99360,note_on,0,0,1,,,,,,,,0,,,75,99
99360,note_on,132,0,3,,,,,,,,2,,,57,102
99468,note_on,108,0,1,,,,,,,,0,,,69,0
99468,note_on,0,0,3,,,,,,,,2,,,57,0
99468,note_on,0,0,1,,,,,,,,0,,,72,0
99468,note_on,0,0,1,,,,,,,,0,,,81,0
99468,note_on,0,0,3,,,,,,,,2,,,51,0
99468,note_on,108,0,3,,,,,,,,2,,,45,0
99468,note_on,0,0,3,,,,,,,,2,,,48,0
99468,note_on,0,0,1,,,,,,,,0,,,75,0
99600,note_on,0,0,1,,,,,,,,0,,,68,100
99600,note_on,0,0,3,,,,,,,,2,,,44,103
99600,note_on,132,0,1,,,,,,,,0,,,80,100
99600,note_on,132,0,3,,,,,,,,2,,,56,103
99708,note_on,0,0,1,,,,,,,,0,,,80,0
99708,note_on,108,0,3,,,,,,,,2,,,44,0
99708,note_on,0,0,3,,,,,,,,2,,,56,0
99708,note_on,108,0,1,,,,,,,,0,,,68,0
99840,note_on,0,0,3,,,,,,,,2,,,42,104
99840,note_on,132,0,3,,,,,,,,2,,,54,104
99840,note_on,0,0,1,,,,,,,,0,,,66,101
99840,note_on,132,0,1,,,,,,,,0,,,78,101
99948,note_on,108,0,1,,,,,,,,0,,,66,0
99948,note_on,108,0,3,,,,,,,,2,,,42,0
99948,note_on,0,0,1,,,,,,,,0,,,78,0
99948,note_on,0,0,3,,,,,,,,2,,,54,0
100080,note_on,0,0,4,,,,,,,,3,,,43,105
100080,note_on,0,0,4,,,,,,,,3,,,46,105
100080,control_change,132,0,3,,,,,,,,2,64,0,,
100080,note_on,0,0,1,,,,,,,,0,,,67,103
100080,note_on,0,0,1,,,,,,,,0,,,70,103
100080,note_on,6024,0,4,,,,,,,,3,,,40,105
100080,note_on,0,0,4,,,,,,,,3,,,52,105
100080,note_on,132,0,1,,,,,,,,0,,,64,103
100080,note_on,0,0,1,,,,,,,,0,,,76,103
100096,control_change,16,0,4,,,,,,,,3,64,127,,
100188,note_on,0,0,1,,,,,,,,0,,,64,0
100188,note_on,0,0,4,,,,,,,,3,,,46,0
100188,note_on,0,0,4,,,,,,,,3,,,52,0
100188,note_on,0,0,1,,,,,,,,0,,,70,0
100188,note_on,0,0,1,,,,,,,,0,,,67,0
100188,note_on,108,0,1,,,,,,,,0,,,76,0
100188,note_on,92,0,4,,,,,,,,3,,,43,0
100188,note_on,0,0,4,,,,,,,,3,,,40,0
100320,note_on,132,0,1,,,,,,,,0,,,62,104
100320,note_on,0,0,1,,,,,,,,0,,,74,104
100320,note_on,132,0,4,,,,,,,,3,,,38,106
100320,note_on,0,0,4,,,,,,,,3,,,50,106
100428,note_on,108,0,4,,,,,,,,3,,,50,0
100428,note_on,108,0,1,,,,,,,,0,,,74,0
100428,note_on,0,0,4,,,,,,,,3,,,38,0
100428,note_on,0,0,1,,,,,,,,0,,,62,0
100560,note_on,0,0,1,,,,,,,,0,,,73,105
100560,note_on,132,0,1,,,,,,,,0,,,61,105
100560,note_on,132,0,4,,,,,,,,3,,,49,107
100560,note_on,0,0,4,,,,,,,,3,,,37,107
100668,note_on,0,0,1,,,,,,,,0,,,61,0
100668,note_on,0,0,4,,,,,,,,3,,,49,0
100668,note_on,108,0,4,,,,,,,,3,,,37,0
100668,note_on,108,0,1,,,,,,,,0,,,73,0
100800,note_on,0,0,4,,,,,,,,3,,,39,109
100800,note_on,0,0,4,,,,,,,,3,,,48,109
100800,note_on,132,0,1,,,,,,,,0,,,60,107
100800,note_on,0,0,1,,,,,,,,0,,,63,107
100800,note_on,0,0,1,,,,,,,,0,,,66,107
100800,note_on,0,0,1,,,,,,,,0,,,72,107
100800,note_on,132,0,4,,,,,,,,3,,,36,109
100800,note_on,0,0,4,,,,,,,,3,,,42,109
100908,note_on,0,0,4,,,,,,,,3,,,48,0
100908,note_on,0,0,4,,,,,,,,3,,,36,0
100908,note_on,0,0,1,,,,,,,,0,,,66,0
100908,note_on,0,0,4,,,,,,,,3,,,42,0
100908,note_on,0,0,1,,,,,,,,0,,,63,0
100908,note_on,108,0,4,,,,,,,,3,,,39,0
100908,note_on,0,0,1,,,,,,,,0,,,60,0
100908,note_on,108,0,1,,,,,,,,0,,,72,0
101040,note_on,132,0,4,,,,,,,,3,,,35,110
101040,note_on,0,0,1,,,,,,,,0,,,71,108
101040,note_on,132,0,1,,,,,,,,0,,,59,108
101040,note_on,0,0,4,,,,,,,,3,,,47,110
101056,control_change,16,0,4,,,,,,,,3,64,0,,
101148,note_on,0,0,1,,,,,,,,0,,,59,0
101148,note_on,92,0,4,,,,,,,,3,,,47,0
101148,note_on,0,0,4,,,,,,,,3,,,35,0
101148,note_on,108,0,1,,,,,,,,0,,,71,0
101280,note_on,0,0,1,,,,,,,,0,,,70,109
101280,note_on,0,0,4,,,,,,,,3,,,45,112
101280,note_on,132,0,1,,,,,,,,0,,,58,109
101280,note_on,132,0,4,,,,,,,,3,,,33,112
101388,note_on,108,0,4,,,,,,,,3,,,45,0
101388,note_on,0,0,4,,,,,,,,3,,,33,0
101388,note_on,108,0,1,,,,,,,,0,,,70,0
101388,note_on,0,0,1,,,,,,,,0,,,58,0
101520,control_change,132,0,1,,,,,,,,0,64,0,,
101520,note_on,2880,0,2,,,,,,,,1,,,57,100
101520,note_on,132,0,4,,,,,,,,3,,,33,108
101520,note_on,0,0,2,,,,,,,,1,,,69,100
101520,note_on,0,0,4,,,,,,,,3,,,45,108
101541,set_tempo,21732,1,0,,,,,,316056,,,,,,
101585,note_on,0,0,2,,,,,,,,1,,,57,0
101585,note_on,65,0,2,,,,,,,,1,,,69,0
101628,note_on,0,0,4,,,,,,,,3,,,33,0
101628,note_on,108,0,4,,,,,,,,3,,,45,0
101760,note_on,175,0,2,,,,,,,,1,,,68,96
101760,note_on,0,0,4,,,,,,,,3,,,44,102
101760,note_on,132,0,4,,,,,,,,3,,,56,102
101825,note_on,65,0,2,,,,,,,,1,,,68,0
101868,note_on,108,0,4,,,,,,,,3,,,44,0
101868,note_on,0,0,4,,,,,,,,3,,,56,0
102000,note_on,0,0,4,,,,,,,,3,,,55,97
102000,note_on,132,0,4,,,,,,,,3,,,43,97
102000,note_on,175,0,2,,,,,,,,1,,,67,93
102065,note_on,65,0,2,,,,,,,,1,,,67,0
102108,note_on,108,0,4,,,,,,,,3,,,55,0
102108,note_on,0,0,4,,,,,,,,3,,,43,0
102240,note_on,132,0,4,,,,,,,,3,,,54,91
102240,note_on,0,0,4,,,,,,,,3,,,42,91
102240,note_on,175,0,2,,,,,,,,1,,,66,89
102305,note_on,65,0,2,,,,,,,,1,,,66,0
102348,note_on,108,0,4,,,,,,,,3,,,42,0
102348,note_on,0,0,4,,,,,,,,3,,,54,0
102480,note_on,175,0,2,,,,,,,,1,,,65,85
102480,note_on,0,0,4,,,,,,,,3,,,41,86
102480,note_on,132,0,4,,,,,,,,3,,,53,86
102545,note_on,65,0,2,,,,,,,,1,,,65,0
102588,note_on,0,0,4,,,,,,,,3,,,53,0
102588,note_on,108,0,4,,,,,,,,3,,,41,0
102720,note_on,0,0,4,,,,,,,,3,,,52,80
102720,note_on,175,0,2,,,,,,,,1,,,64,82
102720,note_on,132,0,4,,,,,,,,3,,,40,80
102785,note_on,65,0,2,,,,,,,,1,,,64,0
102828,note_on,0,0,4,,,,,,,,3,,,40,0
102828,note_on,108,0,4,,,,,,,,3,,,52,0
102960,note_on,0,0,4,,,,,,,,3,,,51,75
102960,note_on,132,0,4,,,,,,,,3,,,39,75
102960,note_on,2880,0,3,,,,,,,,2,,,63,96
103025,note_on,65,0,3,,,,,,,,2,,,63,0
103068,note_on,108,0,4,,,,,,,,3,,,51,0
103068,note_on,0,0,4,,,,,,,,3,,,39,0
103200,note_on,132,0,4,,,,,,,,3,,,50,69
103200,note_on,0,0,4,,,,,,,,3,,,38,69
103200,note_on,175,0,3,,,,,,,,2,,,62,91
103265,note_on,65,0,3,,,,,,,,2,,,62,0
103308,note_on,108,0,4,,,,,,,,3,,,38,0
103308,note_on,0,0,4,,,,,,,,3,,,50,0
103440,note_on,0,0,4,,,,,,,,3,,,49,64
103440,note_on,132,0,4,,,,,,,,3,,,37,64
103440,note_on,175,0,3,,,,,,,,2,,,61,87
103505,note_on,65,0,3,,,,,,,,2,,,61,0
103548,note_on,0,0,4,,,,,,,,3,,,37,0
103548,note_on,108,0,4,,,,,,,,3,,,49,0
103680,note_on,175,0,3,,,,,,,,2,,,60,83
103680,note_on,0,0,4,,,,,,,,3,,,48,64
103680,note_on,132,0,4,,,,,,,,3,,,36,64
103745,note_on,65,0,3,,,,,,,,2,,,60,0
103788,note_on,0,0,4,,,,,,,,3,,,36,0
103788,note_on,108,0,4,,,,,,,,3,,,48,0
103920,note_on,175,0,3,,,,,,,,2,,,59,78
103920,note_on,0,0,4,,,,,,,,3,,,35,64
103920,note_on,132,0,4,,,,,,,,3,,,47,64
103985,note_on,65,0,3,,,,,,,,2,,,59,0
104028,note_on,0,0,4,,,,,,,,3,,,47,0
104028,note_on,108,0,4,,,,,,,,3,,,35,0
104160,note_on,175,0,3,,,,,,,,2,,,58,74
104160,note_on,132,0,4,,,,,,,,3,,,34,64
104160,note_on,0,0,4,,,,,,,,3,,,46,64
104225,note_on,65,0,3,,,,,,,,2,,,58,0
104268,note_on,0,0,4,,,,,,,,3,,,34,0
104268,note_on,108,0,4,,,,,,,,3,,,46,0
104383,set_tempo,2842,1,0,,,,,,768836,,,,,,
105094,set_tempo,711,1,0,,,,,,513699,,,,,,
105120,note_on,852,0,4,,,,,,,,3,,,45,89
105120,note_on,895,0,3,,,,,,,,2,,,57,93
105120,note_on,0,0,4,,,,,,,,3,,,33,89
105120,set_tempo,26,1,0,,,,,,310945,,,,,,
105185,note_on,65,0,3,,,,,,,,2,,,57,0
105228,note_on,108,0,4,,,,,,,,3,,,33,0
105228,note_on,0,0,4,,,,,,,,3,,,45,0
105360,note_on,0,0,4,,,,,,,,3,,,44,86
105360,note_on,132,0,4,,,,,,,,3,,,32,86
105360,note_on,175,0,3,,,,,,,,2,,,56,88
105365,set_tempo,245,1,0,,,,,,313022,,,,,,
105425,note_on,65,0,3,,,,,,,,2,,,56,0
105468,note_on,0,0,4,,,,,,,,3,,,32,0
105468,note_on,108,0,4,,,,,,,,3,,,44,0
105600,note_on,132,0,4,,,,,,,,3,,,31,83
105600,note_on,0,0,4,,,,,,,,3,,,43,83
105600,note_on,175,0,3,,,,,,,,2,,,55,84
105665,note_on,65,0,3,,,,,,,,2,,,55,0
105708,note_on,0,0,4,,,,,,,,3,,,31,0
105708,note_on,108,0,4,,,,,,,,3,,,43,0
105840,note_on,175,0,3,,,,,,,,2,,,54,79
105840,note_on,132,0,4,,,,,,,,3,,,42,79
105840,note_on,0,0,4,,,,,,,,3,,,30,79
105948,note_on,108,0,4,,,,,,,,3,,,30,0
105948,note_on,108,0,3,,,,,,,,2,,,54,0
105948,note_on,0,0,4,,,,,,,,3,,,42,0
106080,note_on,132,0,3,,,,,,,,2,,,53,74
106080,note_on,132,0,4,,,,,,,,3,,,41,76
106188,note_on,108,0,3,,,,,,,,2,,,53,0
106188,note_on,108,0,4,,,,,,,,3,,,41,0
106320,note_on,132,0,3,,,,,,,,2,,,52,69
106320,note_on,132,0,4,,,,,,,,3,,,40,73
106428,note_on,108,0,4,,,,,,,,3,,,40,0
106428,note_on,108,0,3,,,,,,,,2,,,52,0
106962,set_tempo,1597,1,0,,,,,,314994,,,,,,
108000,note_on,1572,0,4,,,,,,,,3,,,39,64
108000,note_on,1572,0,3,,,,,,,,2,,,51,64
108032,note_on,32,0,3,,,,,,,,2,,,51,0
108108,note_on,108,0,4,,,,,,,,3,,,39,0
108240,note_on,132,0,4,,,,,,,,3,,,38,64
108240,note_on,208,0,3,,,,,,,,2,,,50,64
108272,note_on,32,0,3,,,,,,,,2,,,50,0
108348,note_on,108,0,4,,,,,,,,3,,,38,0
108480,note_on,208,0,3,,,,,,,,2,,,49,64
108480,note_on,132,0,4,,,,,,,,3,,,37,64
108512,note_on,32,0,3,,,,,,,,2,,,49,0
108588,note_on,108,0,4,,,,,,,,3,,,37,0
108720,note_on,0,0,2,,,,,,,,1,,,60,76
108720,note_on,0,0,2,,,,,,,,1,,,56,76
108720,note_on,208,0,3,,,,,,,,2,,,48,64
108720,control_change,5935,0,2,,,,,,,,1,64,127,,
108720,note_on,132,0,4,,,,,,,,3,,,32,64
108720,note_on,0,0,4,,,,,,,,3,,,36,64
108785,note_on,65,0,3,,,,,,,,2,,,48,0
108960,note_on,175,0,3,,,,,,,,2,,,50,64
109025,note_on,65,0,3,,,,,,,,2,,,50,0
109200,note_on,175,0,3,,,,,,,,2,,,51,64
109265,note_on,65,0,3,,,,,,,,2,,,51,0
109440,note_on,175,0,3,,,,,,,,2,,,51,64
109505,note_on,65,0,3,,,,,,,,2,,,51,0
109680,note_on,175,0,3,,,,,,,,2,,,50,64
109745,note_on,65,0,3,,,,,,,,2,,,50,0
109920,note_on,175,0,3,,,,,,,,2,,,48,64
109985,note_on,65,0,3,,,,,,,,2,,,48,0
110160,note_on,175,0,3,,,,,,,,2,,,48,64
110225,note_on,65,0,3,,,,,,,,2,,,48,0
110400,note_on,175,0,3,,,,,,,,2,,,50,64
110465,note_on,65,0,3,,,,,,,,2,,,50,0
110640,note_on,175,0,3,,,,,,,,2,,,51,64
110705,note_on,65,0,3,,,,,,,,2,,,51,0
110880,note_on,175,0,3,,,,,,,,2,,,51,64
110945,note_on,65,0,3,,,,,,,,2,,,51,0
111120,note_on,175,0,3,,,,,,,,2,,,50,64
111185,note_on,65,0,3,,,,,,,,2,,,50,0
111360,note_on,175,0,3,,,,,,,,2,,,48,64
111425,note_on,65,0,3,,,,,,,,2,,,48,0
111483,note_on,2763,0,2,,,,,,,,1,,,60,0
111483,note_on,2763,0,4,,,,,,,,3,,,36,0
111483,note_on,0,0,4,,,,,,,,3,,,32,0
111483,note_on,0,0,2,,,,,,,,1,,,56,0
111600,note_on,0,0,4,,,,,,,,3,,,39,64
111600,note_on,117,0,2,,,,,,,,1,,,57,74
111600,note_on,117,0,4,,,,,,,,3,,,29,64
111600,note_on,0,0,2,,,,,,,,1,,,60,74
111600,note_on,175,0,3,,,,,,,,2,,,48,64
111600,note_on,0,0,4,,,,,,,,3,,,42,64
111729,note_on,129,0,3,,,,,,,,2,,,48,0
111840,note_on,111,0,3,,,,,,,,2,,,50,63
111969,note_on,129,0,3,,,,,,,,2,,,50,0
112080,note_on,111,0,3,,,,,,,,2,,,51,60
112209,note_on,129,0,3,,,,,,,,2,,,51,0
112320,note_on,111,0,3,,,,,,,,2,,,51,57
112449,note_on,129,0,3,,,,,,,,2,,,51,0
112560,note_on,111,0,3,,,,,,,,2,,,50,54
112689,note_on,129,0,3,,,,,,,,2,,,50,0
112800,note_on,111,0,3,,,,,,,,2,,,48,52
112929,note_on,129,0,3,,,,,,,,2,,,48,0
112962,set_tempo,6000,1,0,,,,,,313939,,,,,,
113040,note_on,111,0,3,,,,,,,,2,,,48,49
113169,note_on,129,0,3,,,,,,,,2,,,48,0
113280,note_on,111,0,3,,,,,,,,2,,,50,46
113409,note_on,129,0,3,,,,,,,,2,,,50,0
113520,note_on,111,0,3,,,,,,,,2,,,51,43
113649,note_on,129,0,3,,,,,,,,2,,,51,0
113760,note_on,111,0,3,,,,,,,,2,,,51,40
113889,note_on,129,0,3,,,,,,,,2,,,51,0
114000,note_on,111,0,3,,,,,,,,2,,,50,37
114129,note_on,129,0,3,,,,,,,,2,,,50,0
114240,note_on,111,0,3,,,,,,,,2,,,48,34
114363,note_on,2763,0,2,,,,,,,,1,,,60,0
114363,note_on,0,0,4,,,,,,,,3,,,39,0
114363,note_on,0,0,4,,,,,,,,3,,,29,0
114363,note_on,0,0,2,,,,,,,,1,,,57,0
114363,note_on,2763,0,4,,,,,,,,3,,,42,0
114369,note_on,129,0,3,,,,,,,,2,,,48,0
114480,note_on,111,0,3,,,,,,,,2,,,48,34
114480,note_on,117,0,4,,,,,,,,3,,,32,52
114480,note_on,117,0,2,,,,,,,,1,,,56,49
114480,note_on,0,0,4,,,,,,,,3,,,36,52
114480,note_on,0,0,2,,,,,,,,1,,,60,49
114609,note_on,129,0,3,,,,,,,,2,,,48,0
114720,note_on,111,0,3,,,,,,,,2,,,50,34
114849,note_on,129,0,3,,,,,,,,2,,,50,0
114960,note_on,111,0,3,,,,,,,,2,,,51,34
115089,note_on,129,0,3,,,,,,,,2,,,51,0
115200,note_on,111,0,3,,,,,,,,2,,,51,34
115329,note_on,129,0,3,,,,,,,,2,,,51,0
115440,note_on,111,0,3,,,,,,,,2,,,50,34
115569,note_on,129,0,3,,,,,,,,2,,,50,0
115680,note_on,111,0,3,,,,,,,,2,,,48,34
115809,note_on,129,0,3,,,,,,,,2,,,48,0
115920,note_on,111,0,3,,,,,,,,2,,,48,34
116049,note_on,129,0,3,,,,,,,,2,,,48,0
116160,note_on,111,0,3,,,,,,,,2,,,50,34
116289,note_on,129,0,3,,,,,,,,2,,,50,0
116400,note_on,111,0,3,,,,,,,,2,,,51,34
116529,note_on,129,0,3,,,,,,,,2,,,51,0
116640,note_on,111,0,3,,,,,,,,2,,,51,34
116769,note_on,129,0,3,,,,,,,,2,,,51,0
116880,note_on,111,0,3,,,,,,,,2,,,50,34
117009,note_on,129,0,3,,,,,,,,2,,,50,0
117120,note_on,111,0,3,,,,,,,,2,,,48,34
117243,note_on,2763,0,4,,,,,,,,3,,,36,0
117243,note_on,0,0,2,,,,,,,,1,,,56,0
117243,note_on,0,0,4,,,,,,,,3,,,32,0
117243,note_on,2763,0,2,,,,,,,,1,,,60,0
117249,note_on,129,0,3,,,,,,,,2,,,48,0
117360,note_on,0,0,2,,,,,,,,1,,,60,48
117360,note_on,117,0,2,,,,,,,,1,,,57,48
117360,note_on,0,0,4,,,,,,,,3,,,42,47
117360,note_on,117,0,4,,,,,,,,3,,,39,47
117360,note_on,111,0,3,,,,,,,,2,,,48,34
117360,note_on,0,0,4,,,,,,,,3,,,29,47
117489,note_on,129,0,3,,,,,,,,2,,,48,0
117600,note_on,111,0,3,,,,,,,,2,,,50,34
117729,note_on,129,0,3,,,,,,,,2,,,50,0
117840,note_on,111,0,3,,,,,,,,2,,,51,34
117969,note_on,129,0,3,,,,,,,,2,,,51,0
118080,note_on,111,0,3,,,,,,,,2,,,51,34
118209,note_on,129,0,3,,,,,,,,2,,,51,0
118320,note_on,111,0,3,,,,,,,,2,,,50,34
118449,note_on,129,0,3,,,,,,,,2,,,50,0
118560,note_on,111,0,3,,,,,,,,2,,,48,34
118689,note_on,129,0,3,,,,,,,,2,,,48,0
118800,note_on,111,0,3,,,,,,,,2,,,48,34
118914,set_tempo,5952,1,0,,,,,,312891,,,,,,
118929,note_on,129,0,3,,,,,,,,2,,,48,0
119040,note_on,111,0,3,,,,,,,,2,,,50,34
119169,note_on,129,0,3,,,,,,,,2,,,50,0
119280,note_on,111,0,3,,,,,,,,2,,,51,34
119409,note_on,129,0,3,,,,,,,,2,,,51,0
119520,note_on,111,0,3,,,,,,,,2,,,51,34
119649,note_on,129,0,3,,,,,,,,2,,,51,0
119760,note_on,111,0,3,,,,,,,,2,,,50,34
119813,control_change,2453,0,2,,,,,,,,1,64,0,,
119889,note_on,129,0,3,,,,,,,,2,,,50,0
119922,set_tempo,1008,1,0,,,,,,314994,,,,,,
120000,note_on,111,0,3,,,,,,,,2,,,48,34
120018,set_tempo,96,1,0,,,,,,316056,,,,,,
120114,set_tempo,96,1,0,,,,,,317125,,,,,,
120123,note_on,310,0,2,,,,,,,,1,,,60,0
120123,note_on,0,0,2,,,,,,,,1,,,57,0
120123,note_on,0,0,4,,,,,,,,3,,,42,0
120123,note_on,2763,0,4,,,,,,,,3,,,29,0
120123,note_on,0,0,4,,,,,,,,3,,,39,0
120129,note_on,129,0,3,,,,,,,,2,,,48,0
120162,set_tempo,48,1,0,,,,,,318201,,,,,,
120240,note_on,117,0,2,,,,,,,,1,,,57,47
120240,note_on,0,0,2,,,,,,,,1,,,60,47
120240,note_on,0,0,4,,,,,,,,3,,,28,46
120240,note_on,111,0,3,,,,,,,,2,,,48,36
120240,note_on,117,0,4,,,,,,,,3,,,42,46
120258,set_tempo,96,1,0,,,,,,319285,,,,,,
120354,set_tempo,96,1,0,,,,,,320376,,,,,,
120369,note_on,129,0,3,,,,,,,,2,,,48,0
120402,set_tempo,48,1,0,,,,,,321474,,,,,,
120480,note_on,111,0,3,,,,,,,,2,,,50,38
120498,set_tempo,96,1,0,,,,,,322581,,,,,,
120546,set_tempo,48,1,0,,,,,,323694,,,,,,
120609,note_on,129,0,3,,,,,,,,2,,,50,0
120642,set_tempo,96,1,0,,,,,,324816,,,,,,
120720,note_on,111,0,3,,,,,,,,2,,,52,40
120738,set_tempo,96,1,0,,,,,,325945,,,,,,
120786,set_tempo,48,1,0,,,,,,327082,,,,,,
120849,note_on,129,0,3,,,,,,,,2,,,52,0
120882,set_tempo,96,1,0,,,,,,328228,,,,,,
120930,set_tempo,48,1,0,,,,,,329381,,,,,,
120960,note_on,111,0,3,,,,,,,,2,,,52,43
121026,set_tempo,96,1,0,,,,,,330542,,,,,,
121089,note_on,129,0,3,,,,,,,,2,,,52,0
121122,set_tempo,96,1,0,,,,,,331712,,,,,,
121170,set_tempo,48,1,0,,,,,,332889,,,,,,
121200,note_on,111,0,3,,,,,,,,2,,,50,45
121266,set_tempo,96,1,0,,,,,,334076,,,,,,
121329,note_on,129,0,3,,,,,,,,2,,,50,0
121362,set_tempo,96,1,0,,,,,,335270,,,,,,
121410,set_tempo,48,1,0,,,,,,336474,,,,,,
121440,note_on,111,0,3,,,,,,,,2,,,48,47
121506,set_tempo,96,1,0,,,,,,337686,,,,,,
121549,note_on,0,0,2,,,,,,,,1,,,57,0
121549,note_on,1309,0,2,,,,,,,,1,,,60,0
121549,note_on,1309,0,4,,,,,,,,3,,,28,0
121549,note_on,0,0,4,,,,,,,,3,,,42,0
121554,set_tempo,48,1,0,,,,,,338906,,,,,,
121569,note_on,129,0,3,,,,,,,,2,,,48,0
121650,set_tempo,96,1,0,,,,,,340136,,,,,,
121680,note_on,0,0,2,,,,,,,,1,,,60,66
121680,note_on,0,0,4,,,,,,,,3,,,42,64
121680,note_on,131,0,4,,,,,,,,3,,,28,64
121680,note_on,131,0,2,,,,,,,,1,,,57,66
121680,note_on,111,0,3,,,,,,,,2,,,48,49
121746,set_tempo,96,1,0,,,,,,341375,,,,,,
121794,set_tempo,48,1,0,,,,,,342622,,,,,,
121809,note_on,129,0,3,,,,,,,,2,,,48,0
121890,set_tempo,96,1,0,,,,,,343879,,,,,,
121920,note_on,111,0,3,,,,,,,,2,,,50,52
121938,set_tempo,48,1,0,,,,,,345145,,,,,,
122034,set_tempo,96,1,0,,,,,,346420,,,,,,
122049,note_on,129,0,3,,,,,,,,2,,,50,0
122130,set_tempo,96,1,0,,,,,,347705,,,,,,
122160,note_on,111,0,3,,,,,,,,2,,,52,54
122178,set_tempo,48,1,0,,,,,,349000,,,,,,
122274,set_tempo,96,1,0,,,,,,350304,,,,,,
122289,note_on,129,0,3,,,,,,,,2,,,52,0
122370,set_tempo,96,1,0,,,,,,351617,,,,,,
122400,note_on,111,0,3,,,,,,,,2,,,52,56
122418,set_tempo,48,1,0,,,,,,352941,,,,,,
122514,set_tempo,96,1,0,,,,,,354275,,,,,,
122529,note_on,129,0,3,,,,,,,,2,,,52,0
122562,set_tempo,48,1,0,,,,,,355619,,,,,,
122640,note_on,111,0,3,,,,,,,,2,,,50,58
122658,set_tempo,96,1,0,,,,,,356973,,,,,,
122754,set_tempo,96,1,0,,,,,,358337,,,,,,
122769,note_on,129,0,3,,,,,,,,2,,,50,0
122802,set_tempo,48,1,0,,,,,,359712,,,,,,
122880,note_on,111,0,3,,,,,,,,2,,,48,61
122898,set_tempo,96,1,0,,,,,,361098,,,,,,
122946,set_tempo,48,1,0,,,,,,362494,,,,,,
122989,note_on,1309,0,4,,,,,,,,3,,,42,0
122989,note_on,1309,0,2,,,,,,,,1,,,60,0
122989,note_on,0,0,4,,,,,,,,3,,,28,0
122989,note_on,0,0,2,,,,,,,,1,,,57,0
123009,note_on,129,0,3,,,,,,,,2,,,48,0
123042,set_tempo,96,1,0,,,,,,363901,,,,,,
123120,note_on,0,0,4,,,,,,,,3,,,27,64
123120,note_on,111,0,3,,,,,,,,2,,,47,64
123120,note_on,0,0,2,,,,,,,,1,,,59,65
123120,note_on,131,0,4,,,,,,,,3,,,42,64
123120,note_on,131,0,2,,,,,,,,1,,,57,65
123138,set_tempo,96,1,0,,,,,,365319,,,,,,
123186,set_tempo,48,1,0,,,,,,366748,,,,,,
123249,note_on,129,0,3,,,,,,,,2,,,47,0
123282,set_tempo,96,1,0,,,,,,368189,,,,,,
123330,set_tempo,48,1,0,,,,,,369640,,,,,,
123360,note_on,111,0,3,,,,,,,,2,,,48,64
123426,set_tempo,96,1,0,,,,,,371103,,,,,,
123489,note_on,129,0,3,,,,,,,,2,,,48,0
123522,set_tempo,96,1,0,,,,,,372578,,,,,,
123570,set_tempo,48,1,0,,,,,,374065,,,,,,
123600,note_on,111,0,3,,,,,,,,2,,,50,64
123666,set_tempo,96,1,0,,,,,,375563,,,,,,
123729,note_on,129,0,3,,,,,,,,2,,,50,0
123762,set_tempo,96,1,0,,,,,,377074,,,,,,
123810,set_tempo,48,1,0,,,,,,378597,,,,,,
123840,note_on,111,0,3,,,,,,,,2,,,50,64
123906,set_tempo,96,1,0,,,,,,380132,,,,,,
123954,set_tempo,48,1,0,,,,,,381679,,,,,,
123969,note_on,129,0,3,,,,,,,,2,,,50,0
124050,set_tempo,96,1,0,,,,,,383240,,,,,,
124080,note_on,111,0,3,,,,,,,,2,,,48,64
124146,set_tempo,96,1,0,,,,,,384813,,,,,,
124194,set_tempo,48,1,0,,,,,,386399,,,,,,
124209,note_on,129,0,3,,,,,,,,2,,,48,0
124290,set_tempo,96,1,0,,,,,,387998,,,,,,
124320,note_on,111,0,3,,,,,,,,2,,,47,64
124338,set_tempo,48,1,0,,,,,,389610,,,,,,
124416,note_on,0,0,2,,,,,,,,1,,,57,0
124416,note_on,1296,0,4,,,,,,,,3,,,27,0
124416,note_on,0,0,4,,,,,,,,3,,,42,0
124416,note_on,1296,0,2,,,,,,,,1,,,59,0
124434,set_tempo,96,1,0,,,,,,391236,,,,,,
124449,note_on,129,0,3,,,,,,,,2,,,47,0
124530,set_tempo,96,1,0,,,,,,392876,,,,,,
124560,note_on,144,0,4,,,,,,,,3,,,45,76
124578,set_tempo,48,1,0,,,,,,394529,,,,,,
124614,note_on,54,0,4,,,,,,,,3,,,45,0
124674,set_tempo,96,1,0,,,,,,396197,,,,,,
124770,set_tempo,96,1,0,,,,,,397878,,,,,,
124800,note_on,186,0,4,,,,,,,,3,,,47,72
124818,set_tempo,48,1,0,,,,,,399574,,,,,,
124854,note_on,54,0,4,,,,,,,,3,,,47,0
124914,set_tempo,96,1,0,,,,,,401284,,,,,,
124962,set_tempo,48,1,0,,,,,,403009,,,,,,
125040,note_on,186,0,4,,,,,,,,3,,,48,69
125058,set_tempo,96,1,0,,,,,,404749,,,,,,
125094,note_on,54,0,4,,,,,,,,3,,,48,0
125154,set_tempo,96,1,0,,,,,,406504,,,,,,
125202,set_tempo,48,1,0,,,,,,408274,,,,,,
125280,note_on,186,0,4,,,,,,,,3,,,48,67
125298,set_tempo,96,1,0,,,,,,410060,,,,,,
125334,note_on,54,0,4,,,,,,,,3,,,48,0
125346,set_tempo,48,1,0,,,,,,411862,,,,,,
125442,set_tempo,96,1,0,,,,,,413679,,,,,,
125520,note_on,186,0,4,,,,,,,,3,,,47,65
125538,set_tempo,96,1,0,,,,,,415512,,,,,,
125574,note_on,54,0,4,,,,,,,,3,,,47,0
125586,set_tempo,48,1,0,,,,,,417362,,,,,,
125682,set_tempo,96,1,0,,,,,,419229,,,,,,
125730,set_tempo,48,1,0,,,,,,421112,,,,,,
125760,note_on,186,0,4,,,,,,,,3,,,45,62
125814,note_on,54,0,4,,,,,,,,3,,,45,0
126720,note_on,906,0,4,,,,,,,,3,,,42,53
126774,note_on,54,0,4,,,,,,,,3,,,42,0
126960,note_on,186,0,4,,,,,,,,3,,,43,50
127014,note_on,54,0,4,,,,,,,,3,,,43,0
127200,note_on,186,0,4,,,,,,,,3,,,45,48
127254,note_on,54,0,4,,,,,,,,3,,,45,0
127440,note_on,186,0,4,,,,,,,,3,,,45,45
127494,note_on,54,0,4,,,,,,,,3,,,45,0
127680,note_on,186,0,4,,,,,,,,3,,,43,43
127734,note_on,54,0,4,,,,,,,,3,,,43,0
127920,note_on,186,0,4,,,,,,,,3,,,42,41
127974,note_on,54,0,4,,,,,,,,3,,,42,0
128889,set_tempo,3159,1,0,,,,,,788229,,,,,,
129123,set_tempo,234,1,0,,,,,,781657,,,,,,
129356,set_tempo,233,1,0,,,,,,775194,,,,,,
129589,set_tempo,233,1,0,,,,,,768836,,,,,,
129822,set_tempo,233,1,0,,,,,,762583,,,,,,
130055,set_tempo,233,1,0,,,,,,756430,,,,,,
130288,set_tempo,233,1,0,,,,,,750375,,,,,,
130320,set_tempo,0,1,0,,,,,,750000,,,,,,
130320,note_on,0,0,4,,,,,,,,3,,,40,42
130320,time_signature,32,1,0,2,4,24,8,,,,,,,,
130320,control_change,2346,0,4,,,,,,,,3,64,127,,
130329,marker,9,1,0,,,,,,,,,,,,
130374,note_on,54,0,4,,,,,,,,3,,,40,0
130380,note_on,6,0,4,,,,,,,,3,,,47,36
130435,note_on,55,0,4,,,,,,,,3,,,47,0
130440,note_on,5,0,4,,,,,,,,3,,,52,40
130495,note_on,55,0,4,,,,,,,,3,,,52,0
130500,note_on,5,0,4,,,,,,,,3,,,54,43
130555,note_on,55,0,4,,,,,,,,3,,,54,0
130560,note_on,5,0,4,,,,,,,,3,,,56,46
130615,note_on,55,0,4,,,,,,,,3,,,56,0
130620,note_on,5,0,4,,,,,,,,3,,,59,49
130675,note_on,55,0,4,,,,,,,,3,,,59,0
130680,note_on,5,0,4,,,,,,,,3,,,64,53
130735,note_on,55,0,4,,,,,,,,3,,,64,0
130740,note_on,5,0,4,,,,,,,,3,,,66,56
130795,note_on,55,0,4,,,,,,,,3,,,66,0
130800,note_on,5,0,4,,,,,,,,3,,,68,60
130855,note_on,55,0,4,,,,,,,,3,,,68,0
130860,note_on,5,0,4,,,,,,,,3,,,66,60
130915,note_on,55,0,4,,,,,,,,3,,,66,0
130920,note_on,5,0,4,,,,,,,,3,,,64,57
130975,note_on,55,0,4,,,,,,,,3,,,64,0
130980,note_on,5,0,4,,,,,,,,3,,,59,54
131035,note_on,55,0,4,,,,,,,,3,,,59,0
131040,note_on,5,0,4,,,,,,,,3,,,56,51
131095,note_on,55,0,4,,,,,,,,3,,,56,0
131100,note_on,5,0,4,,,,,,,,3,,,54,48
131155,note_on,55,0,4,,,,,,,,3,,,54,0
131160,note_on,5,0,4,,,,,,,,3,,,52,44
131215,note_on,55,0,4,,,,,,,,3,,,52,0
131220,note_on,5,0,4,,,,,,,,3,,,47,41
131275,note_on,55,0,4,,,,,,,,3,,,47,0
131280,note_on,5,0,4,,,,,,,,3,,,40,36
131335,note_on,55,0,4,,,,,,,,3,,,40,0
131340,note_on,5,0,4,,,,,,,,3,,,47,38
131395,note_on,55,0,4,,,,,,,,3,,,47,0
131400,note_on,5,0,4,,,,,,,,3,,,52,40
131455,note_on,55,0,4,,,,,,,,3,,,52,0
131460,note_on,5,0,4,,,,,,,,3,,,54,42
131515,note_on,55,0,4,,,,,,,,3,,,54,0
131520,note_on,5,0,4,,,,,,,,3,,,56,44
131575,note_on,55,0,4,,,,,,,,3,,,56,0
131580,note_on,5,0,4,,,,,,,,3,,,59,46
131635,note_on,55,0,4,,,,,,,,3,,,59,0
131640,note_on,5,0,4,,,,,,,,3,,,64,48
131690,control_change,7274,0,2,,,,,,,,1,64,127,,
131695,note_on,55,0,4,,,,,,,,3,,,64,0
131700,note_on,5,0,4,,,,,,,,3,,,66,51
131755,note_on,55,0,4,,,,,,,,3,,,66,0
131760,note_on,5,0,4,,,,,,,,3,,,68,52
131760,note_on,0,0,2,,,,,,,,1,,,76,75
131760,note_on,0,0,2,,,,,,,,1,,,71,75
131760,note_on,70,0,2,,,,,,,,1,,,80,75
131815,note_on,55,0,4,,,,,,,,3,,,68,0
131820,note_on,5,0,4,,,,,,,,3,,,66,54
131875,note_on,55,0,4,,,,,,,,3,,,66,0
131880,note_on,5,0,4,,,,,,,,3,,,64,52
131935,note_on,55,0,4,,,,,,,,3,,,64,0
131940,note_on,5,0,4,,,,,,,,3,,,59,51
131995,note_on,55,0,4,,,,,,,,3,,,59,0
132000,note_on,5,0,4,,,,,,,,3,,,56,49
132055,note_on,55,0,4,,,,,,,,3,,,56,0
132060,note_on,5,0,4,,,,,,,,3,,,54,48
132083,set_tempo,1754,1,0,,,,,,1176471,,,,,,
132115,note_on,55,0,4,,,,,,,,3,,,54,0
132120,note_on,5,0,4,,,,,,,,3,,,52,45
132175,note_on,55,0,4,,,,,,,,3,,,52,0
132180,note_on,5,0,4,,,,,,,,3,,,47,35
132201,note_on,441,0,2,,,,,,,,1,,,71,0
132201,note_on,0,0,2,,,,,,,,1,,,80,0
132201,note_on,0,0,2,,,,,,,,1,,,76,0
132235,note_on,55,0,4,,,,,,,,3,,,47,0
132240,note_on,0,0,1,,,,,,,,0,,,80,75
132240,note_on,39,0,2,,,,,,,,1,,,73,77
132240,control_change,30720,0,1,,,,,,,,0,64,127,,
132240,note_on,5,0,4,,,,,,,,3,,,40,33
132240,note_on,0,0,2,,,,,,,,1,,,70,77
132295,note_on,55,0,4,,,,,,,,3,,,40,0
132300,note_on,5,0,4,,,,,,,,3,,,49,35
132323,set_tempo,240,1,0,,,,,,776800,,,,,,
132355,note_on,55,0,4,,,,,,,,3,,,49,0
132360,note_on,5,0,4,,,,,,,,3,,,52,35
132415,note_on,55,0,4,,,,,,,,3,,,52,0
132420,note_on,5,0,4,,,,,,,,3,,,56,36
132475,note_on,55,0,4,,,,,,,,3,,,56,0
132480,note_on,5,0,4,,,,,,,,3,,,58,38
132535,note_on,55,0,4,,,,,,,,3,,,58,0
132540,note_on,5,0,4,,,,,,,,3,,,61,39
132595,note_on,55,0,4,,,,,,,,3,,,61,0
132600,note_on,5,0,4,,,,,,,,3,,,64,40
132655,note_on,55,0,4,,,,,,,,3,,,64,0
132660,note_on,5,0,4,,,,,,,,3,,,66,41
132715,note_on,55,0,4,,,,,,,,3,,,66,0
132720,note_on,5,0,4,,,,,,,,3,,,68,43
132775,note_on,55,0,4,,,,,,,,3,,,68,0
132780,note_on,5,0,4,,,,,,,,3,,,66,44
132835,note_on,55,0,4,,,,,,,,3,,,66,0
132840,note_on,5,0,4,,,,,,,,3,,,64,42
132895,note_on,55,0,4,,,,,,,,3,,,64,0
132900,note_on,5,0,4,,,,,,,,3,,,61,40
132955,note_on,55,0,4,,,,,,,,3,,,61,0
132960,note_on,5,0,4,,,,,,,,3,,,58,39
133015,note_on,55,0,4,,,,,,,,3,,,58,0
133020,note_on,5,0,4,,,,,,,,3,,,56,38
133075,note_on,55,0,4,,,,,,,,3,,,56,0
133080,note_on,5,0,4,,,,,,,,3,,,52,36
133121,note_on,0,0,2,,,,,,,,1,,,73,0
133121,note_on,881,0,1,,,,,,,,0,,,80,0
133121,note_on,881,0,2,,,,,,,,1,,,70,0
133135,note_on,55,0,4,,,,,,,,3,,,52,0
133139,set_tempo,816,1,0,,,,,,1472031,,,,,,
133140,note_on,5,0,4,,,,,,,,3,,,49,35
133187,set_tempo,48,1,0,,,,,,1326260,,,,,,
133195,note_on,55,0,4,,,,,,,,3,,,49,0
133200,note_on,79,0,1,,,,,,,,0,,,69,71
133200,note_on,5,0,4,,,,,,,,3,,,40,32
133235,set_tempo,48,1,0,,,,,,1206758,,,,,,
133240,note_on,40,0,1,,,,,,,,0,,,72,73
133255,note_on,55,0,4,,,,,,,,3,,,40,0
133260,note_on,5,0,4,,,,,,,,3,,,48,32
133280,note_on,40,0,1,,,,,,,,0,,,80,76
133283,set_tempo,48,1,0,,,,,,1107011,,,,,,
133315,note_on,55,0,4,,,,,,,,3,,,48,0
133320,note_on,5,0,4,,,,,,,,3,,,52,33
133331,set_tempo,48,1,0,,,,,,1022495,,,,,,
133375,note_on,55,0,4,,,,,,,,3,,,52,0
133379,set_tempo,48,1,0,,,,,,949968,,,,,,
133380,note_on,5,0,4,,,,,,,,3,,,54,35
133427,set_tempo,48,1,0,,,,,,887049,,,,,,
133435,note_on,55,0,4,,,,,,,,3,,,54,0
133440,note_on,5,0,4,,,,,,,,3,,,57,37
133475,set_tempo,48,1,0,,,,,,831947,,,,,,
133495,note_on,55,0,4,,,,,,,,3,,,57,0
133500,note_on,5,0,4,,,,,,,,3,,,60,39
133523,set_tempo,48,1,0,,,,,,783290,,,,,,
133555,note_on,55,0,4,,,,,,,,3,,,60,0
133560,note_on,5,0,4,,,,,,,,3,,,64,41
133615,note_on,55,0,4,,,,,,,,3,,,64,0
133620,note_on,5,0,4,,,,,,,,3,,,66,43
133664,note_on,384,0,1,,,,,,,,0,,,80,0
133664,note_on,0,0,1,,,,,,,,0,,,72,0
133665,note_on,1,0,1,,,,,,,,0,,,69,0
133675,note_on,55,0,4,,,,,,,,3,,,66,0
133680,note_on,15,0,1,,,,,,,,0,,,78,73
133680,note_on,5,0,4,,,,,,,,3,,,68,44
133735,note_on,55,0,4,,,,,,,,3,,,68,0
133740,note_on,5,0,4,,,,,,,,3,,,66,44
133795,note_on,55,0,4,,,,,,,,3,,,66,0
133800,note_on,5,0,4,,,,,,,,3,,,64,42
133855,note_on,55,0,4,,,,,,,,3,,,64,0
133860,note_on,5,0,4,,,,,,,,3,,,60,41
133915,note_on,55,0,4,,,,,,,,3,,,60,0
133920,note_on,5,0,4,,,,,,,,3,,,57,40
133975,note_on,55,0,4,,,,,,,,3,,,57,0
133980,note_on,5,0,4,,,,,,,,3,,,54,38
134010,note_on,330,0,1,,,,,,,,0,,,78,0
134030,set_tempo,507,1,0,,,,,,757959,,,,,,
134035,note_on,55,0,4,,,,,,,,3,,,54,0
134037,set_tempo,7,1,0,,,,,,764137,,,,,,
134040,note_on,5,0,4,,,,,,,,3,,,52,36
134040,note_on,30,0,1,,,,,,,,0,,,76,63
134065,set_tempo,28,1,0,,,,,,770416,,,,,,
134093,set_tempo,28,1,0,,,,,,776800,,,,,,
134095,note_on,55,0,4,,,,,,,,3,,,52,0
134100,note_on,5,0,4,,,,,,,,3,,,48,28
134134,set_tempo,41,1,0,,,,,,1714286,,,,,,
134150,note_on,110,0,1,,,,,,,,0,,,76,0
134151,set_tempo,17,1,0,,,,,,1625135,,,,,,
134155,note_on,55,0,4,,,,,,,,3,,,48,0
134155,set_tempo,4,1,0,,,,,,2362205,,,,,,
134160,note_on,10,0,1,,,,,,,,0,,,68,71
134160,note_on,5,0,4,,,,,,,,3,,,40,34
134162,set_tempo,7,1,0,,,,,,2304147,,,,,,
134169,set_tempo,7,1,0,,,,,,2196193,,,,,,
134176,set_tempo,7,1,0,,,,,,2097902,,,,,,
134183,set_tempo,7,1,0,,,,,,2051984,,,,,,
134190,set_tempo,7,1,0,,,,,,1965924,,,,,,
134197,set_tempo,7,1,0,,,,,,1886792,,,,,,
134200,note_on,40,0,1,,,,,,,,0,,,76,72
134204,set_tempo,7,1,0,,,,,,1849568,,,,,,
134211,set_tempo,7,1,0,,,,,,1779359,,,,,,
134215,note_on,55,0,4,,,,,,,,3,,,40,0
134218,set_tempo,7,1,0,,,,,,1714286,,,,,,
134220,note_on,5,0,4,,,,,,,,3,,,47,35
134225,set_tempo,7,1,0,,,,,,1653804,,,,,,
134232,set_tempo,7,1,0,,,,,,1625135,,,,,,
134239,set_tempo,7,1,0,,,,,,1570681,,,,,,
134240,note_on,40,0,1,,,,,,,,0,,,83,74
134246,set_tempo,7,1,0,,,,,,1519757,,,,,,
134253,set_tempo,7,1,0,,,,,,1495513,,,,,,
134260,set_tempo,7,1,0,,,,,,1449275,,,,,,
134267,set_tempo,7,1,0,,,,,,1405811,,,,,,
134274,set_tempo,7,1,0,,,,,,1385042,,,,,,
134275,note_on,55,0,4,,,,,,,,3,,,47,0
134280,note_on,5,0,4,,,,,,,,3,,,52,36
134281,set_tempo,7,1,0,,,,,,1345291,,,,,,
134288,set_tempo,7,1,0,,,,,,1307759,,,,,,
134294,set_tempo,6,1,0,,,,,,1272265,,,,,,
134301,set_tempo,7,1,0,,,,,,1255230,,,,,,
134308,set_tempo,7,1,0,,,,,,1222494,,,,,,
134315,set_tempo,7,1,0,,,,,,1191422,,,,,,
134322,set_tempo,7,1,0,,,,,,1176471,,,,,,
134329,set_tempo,7,1,0,,,,,,1147666,,,,,,
134335,note_on,55,0,4,,,,,,,,3,,,52,0
134336,set_tempo,7,1,0,,,,,,1120239,,,,,,
134340,note_on,5,0,4,,,,,,,,3,,,54,38
134343,set_tempo,7,1,0,,,,,,1094092,,,,,,
134350,set_tempo,7,1,0,,,,,,1081471,,,,,,
134357,set_tempo,7,1,0,,,,,,1057082,,,,,,
134364,set_tempo,7,1,0,,,,,,1033770,,,,,,
134371,set_tempo,7,1,0,,,,,,1022495,,,,,,
134378,set_tempo,7,1,0,,,,,,1000667,,,,,,
134385,set_tempo,7,1,0,,,,,,979752,,,,,,
134392,set_tempo,7,1,0,,,,,,969619,,,,,,
134395,note_on,55,0,4,,,,,,,,3,,,54,0
134399,set_tempo,7,1,0,,,,,,949968,,,,,,
134400,note_on,5,0,4,,,,,,,,3,,,56,40
134406,set_tempo,7,1,0,,,,,,931099,,,,,,
134413,set_tempo,7,1,0,,,,,,912964,,,,,,
134420,set_tempo,7,1,0,,,,,,904159,,,,,,
134427,set_tempo,7,1,0,,,,,,887049,,,,,,
134434,set_tempo,7,1,0,,,,,,870575,,,,,,
134441,set_tempo,7,1,0,,,,,,862565,,,,,,
134448,set_tempo,7,1,0,,,,,,846979,,,,,,
134454,set_tempo,6,1,0,,,,,,831947,,,,,,
134455,note_on,55,0,4,,,,,,,,3,,,56,0
134460,note_on,5,0,4,,,,,,,,3,,,59,40
134461,set_tempo,7,1,0,,,,,,817439,,,,,,
134477,set_tempo,16,1,0,,,,,,803428,,,,,,
134515,note_on,55,0,4,,,,,,,,3,,,59,0
134520,note_on,5,0,4,,,,,,,,3,,,64,43
134575,note_on,55,0,4,,,,,,,,3,,,64,0
134580,note_on,5,0,4,,,,,,,,3,,,66,44
134635,note_on,55,0,4,,,,,,,,3,,,66,0
134640,note_on,5,0,4,,,,,,,,3,,,68,46
134695,note_on,55,0,4,,,,,,,,3,,,68,0
134700,note_on,5,0,4,,,,,,,,3,,,66,44
134755,note_on,55,0,4,,,,,,,,3,,,66,0
134760,note_on,5,0,4,,,,,,,,3,,,64,42
134815,note_on,55,0,4,,,,,,,,3,,,64,0
134820,note_on,5,0,4,,,,,,,,3,,,59,40
134875,note_on,55,0,4,,,,,,,,3,,,59,0
134880,note_on,5,0,4,,,,,,,,3,,,56,38
134935,note_on,55,0,4,,,,,,,,3,,,56,0
134940,note_on,5,0,4,,,,,,,,3,,,54,36
134995,note_on,55,0,4,,,,,,,,3,,,54,0
135000,note_on,5,0,4,,,,,,,,3,,,52,33
135055,note_on,55,0,4,,,,,,,,3,,,52,0
135060,note_on,5,0,4,,,,,,,,3,,,47,33
135115,note_on,55,0,4,,,,,,,,3,,,47,0
135120,note_on,5,0,4,,,,,,,,3,,,40,35
135175,note_on,55,0,4,,,,,,,,3,,,40,0
135180,note_on,5,0,4,,,,,,,,3,,,47,36
135235,note_on,55,0,4,,,,,,,,3,,,47,0
135240,note_on,5,0,4,,,,,,,,3,,,52,37
135295,note_on,55,0,4,,,,,,,,3,,,52,0
135300,note_on,5,0,4,,,,,,,,3,,,54,39
135355,note_on,55,0,4,,,,,,,,3,,,54,0
135360,note_on,5,0,4,,,,,,,,3,,,56,40
135415,note_on,55,0,4,,,,,,,,3,,,56,0
135420,note_on,5,0,4,,,,,,,,3,,,59,43
135475,note_on,55,0,4,,,,,,,,3,,,59,0
135480,note_on,5,0,4,,,,,,,,3,,,64,44
135529,note_on,1289,0,1,,,,,,,,0,,,83,0
135530,note_on,1,0,1,,,,,,,,0,,,76,0
135531,note_on,1,0,1,,,,,,,,0,,,68,0
135535,note_on,55,0,4,,,,,,,,3,,,64,0
135540,note_on,5,0,4,,,,,,,,3,,,66,46
135595,note_on,55,0,4,,,,,,,,3,,,66,0
135600,note_on,69,0,1,,,,,,,,0,,,80,74
135600,note_on,0,0,1,,,,,,,,0,,,71,74
135600,note_on,0,0,1,,,,,,,,0,,,76,74
135600,note_on,5,0,4,,,,,,,,3,,,68,48
135655,note_on,55,0,4,,,,,,,,3,,,68,0
135660,note_on,5,0,4,,,,,,,,3,,,66,48
135715,note_on,55,0,4,,,,,,,,3,,,66,0
135720,note_on,5,0,4,,,,,,,,3,,,64,46
135775,note_on,55,0,4,,,,,,,,3,,,64,0
135780,note_on,5,0,4,,,,,,,,3,,,59,44
135835,note_on,55,0,4,,,,,,,,3,,,59,0
135840,note_on,5,0,4,,,,,,,,3,,,56,42
135895,note_on,55,0,4,,,,,,,,3,,,56,0
135900,note_on,5,0,4,,,,,,,,3,,,54,41
135955,note_on,55,0,4,,,,,,,,3,,,54,0
135960,note_on,5,0,4,,,,,,,,3,,,52,39
135968,set_tempo,1491,1,0,,,,,,1544799,,,,,,
136015,note_on,55,0,4,,,,,,,,3,,,52,0
136020,note_on,5,0,4,,,,,,,,3,,,47,38
136041,note_on,0,0,1,,,,,,,,0,,,80,0
136041,note_on,0,0,1,,,,,,,,0,,,76,0
136041,note_on,441,0,1,,,,,,,,0,,,71,0
136075,note_on,55,0,4,,,,,,,,3,,,47,0
136080,control_change,2959,0,2,,,,,,,,1,64,127,,
136080,note_on,0,0,2,,,,,,,,1,,,64,77
136080,note_on,39,0,1,,,,,,,,0,,,76,79
136080,note_on,5,0,4,,,,,,,,3,,,37,36
136080,note_on,0,0,2,,,,,,,,1,,,68,77
136123,set_tempo,155,1,0,,,,,,810373,,,,,,
136135,note_on,55,0,4,,,,,,,,3,,,37,0
136140,note_on,5,0,4,,,,,,,,3,,,44,37
136157,set_tempo,34,1,0,,,,,,817439,,,,,,
136191,set_tempo,34,1,0,,,,,,824629,,,,,,
136195,note_on,55,0,4,,,,,,,,3,,,44,0
136200,note_on,5,0,4,,,,,,,,3,,,49,39
136225,set_tempo,34,1,0,,,,,,831947,,,,,,
136255,note_on,55,0,4,,,,,,,,3,,,49,0
136260,note_on,5,0,4,,,,,,,,3,,,51,40
136260,set_tempo,35,1,0,,,,,,839396,,,,,,
136294,set_tempo,34,1,0,,,,,,846979,,,,,,
136315,note_on,55,0,4,,,,,,,,3,,,51,0
136320,note_on,5,0,4,,,,,,,,3,,,52,41
136328,set_tempo,34,1,0,,,,,,854701,,,,,,
136363,set_tempo,35,1,0,,,,,,862565,,,,,,
136375,note_on,55,0,4,,,,,,,,3,,,52,0
136380,note_on,5,0,4,,,,,,,,3,,,56,43
136397,set_tempo,34,1,0,,,,,,870575,,,,,,
136414,set_tempo,17,1,0,,,,,,878735,,,,,,
136435,note_on,55,0,4,,,,,,,,3,,,56,0
136440,note_on,5,0,4,,,,,,,,3,,,61,44
136448,set_tempo,34,1,0,,,,,,887049,,,,,,
136483,set_tempo,35,1,0,,,,,,895522,,,,,,
136495,note_on,55,0,4,,,,,,,,3,,,61,0
136500,note_on,5,0,4,,,,,,,,3,,,63,45
136517,set_tempo,34,1,0,,,,,,904159,,,,,,
136521,note_on,441,0,1,,,,,,,,0,,,76,0
136551,set_tempo,34,1,0,,,,,,912964,,,,,,
136555,note_on,55,0,4,,,,,,,,3,,,63,0
136560,note_on,5,0,4,,,,,,,,3,,,64,47
136560,note_on,39,0,1,,,,,,,,0,,,75,81
136569,set_tempo,18,1,0,,,,,,912964,,,,,,
136590,set_tempo,21,1,0,,,,,,921942,,,,,,
136611,set_tempo,21,1,0,,,,,,931099,,,,,,
136615,note_on,55,0,4,,,,,,,,3,,,64,0
136620,note_on,5,0,4,,,,,,,,3,,,63,49
136632,set_tempo,21,1,0,,,,,,940439,,,,,,
136653,set_tempo,21,1,0,,,,,,949968,,,,,,
136674,set_tempo,21,1,0,,,,,,959693,,,,,,
136675,note_on,55,0,4,,,,,,,,3,,,63,0
136680,note_on,5,0,4,,,,,,,,3,,,61,48
136688,set_tempo,14,1,0,,,,,,969619,,,,,,
136708,set_tempo,20,1,0,,,,,,979752,,,,,,
136729,set_tempo,21,1,0,,,,,,990099,,,,,,
136735,note_on,55,0,4,,,,,,,,3,,,61,0
136740,note_on,5,0,4,,,,,,,,3,,,56,47
136750,set_tempo,21,1,0,,,,,,1000667,,,,,,
136771,set_tempo,21,1,0,,,,,,1011463,,,,,,
136780,note_on,220,0,1,,,,,,,,0,,,75,0
136792,set_tempo,21,1,0,,,,,,1022495,,,,,,
136795,note_on,55,0,4,,,,,,,,3,,,56,0
136800,note_on,20,0,1,,,,,,,,0,,,73,72
136800,note_on,5,0,4,,,,,,,,3,,,52,44
136806,set_tempo,14,1,0,,,,,,1033770,,,,,,
136827,set_tempo,21,1,0,,,,,,1045296,,,,,,
136848,set_tempo,21,1,0,,,,,,1057082,,,,,,
136855,note_on,55,0,4,,,,,,,,3,,,52,0
136860,note_on,5,0,4,,,,,,,,3,,,51,44
136868,set_tempo,20,1,0,,,,,,1069138,,,,,,
136889,set_tempo,21,1,0,,,,,,1081471,,,,,,
136910,set_tempo,21,1,0,,,,,,1094092,,,,,,
136915,note_on,55,0,4,,,,,,,,3,,,51,0
136920,note_on,5,0,4,,,,,,,,3,,,49,42
136924,set_tempo,14,1,0,,,,,,1107011,,,,,,
136945,set_tempo,21,1,0,,,,,,1120239,,,,,,
136961,note_on,0,0,2,,,,,,,,1,,,64,0
136961,note_on,881,0,2,,,,,,,,1,,,68,0
136966,set_tempo,21,1,0,,,,,,1133787,,,,,,
136975,note_on,55,0,4,,,,,,,,3,,,49,0
136980,note_on,5,0,4,,,,,,,,3,,,44,40
136987,set_tempo,21,1,0,,,,,,1147666,,,,,,
137008,set_tempo,21,1,0,,,,,,1161890,,,,,,
137020,note_on,220,0,1,,,,,,,,0,,,73,0
137021,set_tempo,13,1,0,,,,,,1176471,,,,,,
137035,note_on,55,0,4,,,,,,,,3,,,44,0
137040,note_on,20,0,1,,,,,,,,0,,,72,66
137040,note_on,0,0,2,,,,,,,,1,,,64,66
137040,note_on,79,0,2,,,,,,,,1,,,60,66
137040,note_on,5,0,4,,,,,,,,3,,,33,39
137065,set_tempo,44,1,0,,,,,,1033770,,,,,,
137095,note_on,55,0,4,,,,,,,,3,,,33,0
137100,note_on,5,0,4,,,,,,,,3,,,40,38
137100,set_tempo,35,1,0,,,,,,1022495,,,,,,
137134,set_tempo,34,1,0,,,,,,1011463,,,,,,
137155,note_on,55,0,4,,,,,,,,3,,,40,0
137160,note_on,5,0,4,,,,,,,,3,,,45,40
137168,set_tempo,34,1,0,,,,,,1000667,,,,,,
137203,set_tempo,35,1,0,,,,,,990099,,,,,,
137215,note_on,55,0,4,,,,,,,,3,,,45,0
137220,note_on,5,0,4,,,,,,,,3,,,47,42
137237,set_tempo,34,1,0,,,,,,979752,,,,,,
137260,note_on,220,0,1,,,,,,,,0,,,72,0
137275,note_on,55,0,4,,,,,,,,3,,,47,0
137280,note_on,5,0,4,,,,,,,,3,,,48,44
137280,note_on,20,0,1,,,,,,,,0,,,66,60
137288,set_tempo,51,1,0,,,,,,969619,,,,,,
137323,set_tempo,35,1,0,,,,,,959693,,,,,,
137335,note_on,55,0,4,,,,,,,,3,,,48,0
137340,note_on,5,0,4,,,,,,,,3,,,52,46
137357,set_tempo,34,1,0,,,,,,949968,,,,,,
137391,set_tempo,34,1,0,,,,,,940439,,,,,,
137395,note_on,55,0,4,,,,,,,,3,,,52,0
137400,note_on,5,0,4,,,,,,,,3,,,57,48
137425,set_tempo,34,1,0,,,,,,931099,,,,,,
137455,note_on,55,0,4,,,,,,,,3,,,57,0
137460,set_tempo,35,1,0,,,,,,921942,,,,,,
137460,note_on,5,0,4,,,,,,,,3,,,59,51
137494,set_tempo,34,1,0,,,,,,912964,,,,,,
137515,note_on,55,0,4,,,,,,,,3,,,59,0
137520,note_on,5,0,4,,,,,,,,3,,,60,53
137545,set_tempo,51,1,0,,,,,,904159,,,,,,
137575,note_on,55,0,4,,,,,,,,3,,,60,0
137580,note_on,5,0,4,,,,,,,,3,,,59,52
137580,set_tempo,35,1,0,,,,,,895522,,,,,,
137614,set_tempo,34,1,0,,,,,,887049,,,,,,
137635,note_on,55,0,4,,,,,,,,3,,,59,0
137640,note_on,5,0,4,,,,,,,,3,,,57,50
137648,set_tempo,34,1,0,,,,,,878735,,,,,,
137683,set_tempo,35,1,0,,,,,,870575,,,,,,
137695,note_on,55,0,4,,,,,,,,3,,,57,0
137700,note_on,5,0,4,,,,,,,,3,,,52,49
137717,set_tempo,34,1,0,,,,,,862565,,,,,,
137721,note_on,441,0,1,,,,,,,,0,,,66,0
137751,set_tempo,34,1,0,,,,,,854701,,,,,,
137755,note_on,55,0,4,,,,,,,,3,,,52,0
137760,note_on,39,0,1,,,,,,,,0,,,67,72
137760,note_on,5,0,4,,,,,,,,3,,,48,46
137803,set_tempo,52,1,0,,,,,,846979,,,,,,
137815,note_on,55,0,4,,,,,,,,3,,,48,0
137820,note_on,5,0,4,,,,,,,,3,,,47,46
137837,set_tempo,34,1,0,,,,,,839396,,,,,,
137871,set_tempo,34,1,0,,,,,,831947,,,,,,
137875,note_on,55,0,4,,,,,,,,3,,,47,0
137880,note_on,5,0,4,,,,,,,,3,,,45,44
137905,set_tempo,34,1,0,,,,,,824629,,,,,,
137921,note_on,881,0,2,,,,,,,,1,,,64,0
137921,note_on,0,0,2,,,,,,,,1,,,60,0
137935,note_on,55,0,4,,,,,,,,3,,,45,0
137940,set_tempo,35,1,0,,,,,,817439,,,,,,
137940,note_on,5,0,4,,,,,,,,3,,,40,42
137974,set_tempo,34,1,0,,,,,,810373,,,,,,
137980,note_on,220,0,1,,,,,,,,0,,,67,0
137995,note_on,55,0,4,,,,,,,,3,,,40,0
138000,note_on,0,0,1,,,,,,,,0,,,68,63
138000,note_on,0,0,1,,,,,,,,0,,,64,63
138000,note_on,13551,0,3,,,,,,,,2,,,28,40
138000,note_on,20,0,1,,,,,,,,0,,,59,63
138008,set_tempo,34,1,0,,,,,,803428,,,,,,
138008,control_change,8,0,3,,,,,,,,2,64,127,,
138040,control_change,45,0,4,,,,,,,,3,64,0,,
138055,note_on,47,0,3,,,,,,,,2,,,28,0
138060,note_on,5,0,3,,,,,,,,2,,,40,41
138115,note_on,55,0,3,,,,,,,,2,,,40,0
138120,note_on,5,0,3,,,,,,,,2,,,42,41
138175,note_on,55,0,3,,,,,,,,2,,,42,0
138180,note_on,5,0,3,,,,,,,,2,,,44,42
138235,note_on,55,0,3,,,,,,,,2,,,44,0
138240,note_on,5,0,3,,,,,,,,2,,,47,44
138295,note_on,55,0,3,,,,,,,,2,,,47,0
138300,note_on,5,0,3,,,,,,,,2,,,52,44
138330,note_on,0,0,1,,,,,,,,0,,,64,0
138330,note_on,0,0,1,,,,,,,,0,,,59,0
138330,note_on,330,0,1,,,,,,,,0,,,68,0
138352,control_change,431,0,2,,,,,,,,1,64,0,,
138355,note_on,55,0,3,,,,,,,,2,,,52,0
138360,note_on,5,0,3,,,,,,,,2,,,54,44
138415,note_on,55,0,3,,,,,,,,2,,,54,0
138420,note_on,5,0,3,,,,,,,,2,,,56,45
138456,control_change,104,0,2,,,,,,,,1,64,127,,
138475,note_on,55,0,3,,,,,,,,2,,,56,0
138480,note_on,24,0,2,,,,,,,,1,,,59,60
138535,note_on,55,0,2,,,,,,,,1,,,59,0
138540,note_on,5,0,2,,,,,,,,1,,,64,60
138595,note_on,55,0,2,,,,,,,,1,,,64,0
138600,note_on,5,0,2,,,,,,,,1,,,66,61
138655,note_on,55,0,2,,,,,,,,1,,,66,0
138660,note_on,5,0,2,,,,,,,,1,,,68,62
138715,note_on,55,0,2,,,,,,,,1,,,68,0
138720,note_on,5,0,2,,,,,,,,1,,,71,63
138775,note_on,55,0,2,,,,,,,,1,,,71,0
138780,note_on,5,0,2,,,,,,,,1,,,76,64
138835,note_on,55,0,2,,,,,,,,1,,,76,0
138840,note_on,5,0,2,,,,,,,,1,,,78,64
138895,note_on,55,0,2,,,,,,,,1,,,78,0
138900,note_on,5,0,2,,,,,,,,1,,,80,65
138955,note_on,55,0,2,,,,,,,,1,,,80,0
138960,control_change,630,0,1,,,,,,,,0,64,127,,
138960,note_on,0,0,1,,,,,,,,0,,,83,41
138968,control_change,493,0,3,,,,,,,,2,64,0,,
139015,note_on,55,0,1,,,,,,,,0,,,83,0
139020,note_on,5,0,1,,,,,,,,0,,,88,48
139075,note_on,55,0,1,,,,,,,,0,,,88,0
139080,note_on,5,0,1,,,,,,,,0,,,90,51
139135,note_on,55,0,1,,,,,,,,0,,,90,0
139140,note_on,5,0,1,,,,,,,,0,,,91,55
139195,note_on,55,0,1,,,,,,,,0,,,91,0
139200,note_on,5,0,1,,,,,,,,0,,,93,57
139255,note_on,55,0,1,,,,,,,,0,,,93,0
139260,note_on,5,0,1,,,,,,,,0,,,90,60
139315,note_on,55,0,1,,,,,,,,0,,,90,0
139320,note_on,5,0,1,,,,,,,,0,,,87,62
139375,note_on,55,0,1,,,,,,,,0,,,87,0
139380,note_on,5,0,1,,,,,,,,0,,,83,66
139388,set_tempo,1380,1,0,,,,,,796601,,,,,,
139416,control_change,461,0,2,,,,,,,,1,64,0,,
139432,control_change,1392,0,4,,,,,,,,3,64,127,,
139435,note_on,55,0,1,,,,,,,,0,,,83,0
139440,note_on,5,0,1,,,,,,,,0,,,80,61
139440,note_on,8,0,4,,,,,,,,3,,,40,66
139442,set_tempo,54,1,0,,,,,,2362205,,,,,,
139449,set_tempo,7,1,0,,,,,,2248876,,,,,,
139456,set_tempo,7,1,0,,,,,,2145923,,,,,,
139463,set_tempo,7,1,0,,,,,,2051984,,,,,,
139470,set_tempo,7,1,0,,,,,,1965924,,,,,,
139477,set_tempo,7,1,0,,,,,,1849568,,,,,,
139480,note_on,40,0,4,,,,,,,,3,,,47,74
139484,set_tempo,7,1,0,,,,,,1779359,,,,,,
139491,set_tempo,7,1,0,,,,,,1714286,,,,,,
139495,note_on,55,0,1,,,,,,,,0,,,80,0
139498,set_tempo,7,1,0,,,,,,1653804,,,,,,
139500,note_on,5,0,1,,,,,,,,0,,,78,64
139505,set_tempo,7,1,0,,,,,,1597444,,,,,,
139511,set_tempo,6,1,0,,,,,,1519757,,,,,,
139518,set_tempo,7,1,0,,,,,,1472031,,,,,,
139520,note_on,40,0,4,,,,,,,,3,,,56,80
139525,set_tempo,7,1,0,,,,,,1427212,,,,,,
139532,set_tempo,7,1,0,,,,,,1385042,,,,,,
139539,set_tempo,7,1,0,,,,,,1345291,,,,,,
139546,set_tempo,7,1,0,,,,,,1289768,,,,,,
139553,set_tempo,7,1,0,,,,,,1255230,,,,,,
139555,note_on,55,0,1,,,,,,,,0,,,78,0
139560,note_on,5,0,1,,,,,,,,0,,,76,62
139560,set_tempo,7,1,0,,,,,,1222494,,,,,,
139567,set_tempo,7,1,0,,,,,,1191422,,,,,,
139574,set_tempo,7,1,0,,,,,,1161890,,,,,,
139581,set_tempo,7,1,0,,,,,,1120239,,,,,,
139588,set_tempo,7,1,0,,,,,,1094092,,,,,,
139595,set_tempo,7,1,0,,,,,,1069138,,,,,,
139602,set_tempo,7,1,0,,,,,,1045296,,,,,,
139609,set_tempo,7,1,0,,,,,,1022495,,,,,,
139615,note_on,55,0,1,,,,,,,,0,,,76,0
139616,set_tempo,7,1,0,,,,,,990099,,,,,,
139620,note_on,5,0,1,,,,,,,,0,,,71,60
139623,set_tempo,7,1,0,,,,,,969619,,,,,,
139630,set_tempo,7,1,0,,,,,,949968,,,,,,
139637,set_tempo,7,1,0,,,,,,931099,,,,,,
139644,set_tempo,7,1,0,,,,,,912964,,,,,,
139651,set_tempo,7,1,0,,,,,,887049,,,,,,
139654,set_tempo,3,1,0,,,,,,887049,,,,,,
139671,set_tempo,17,1,0,,,,,,854701,,,,,,
139675,note_on,55,0,1,,,,,,,,0,,,71,0
139680,note_on,5,0,1,,,,,,,,0,,,68,57
139688,set_tempo,17,1,0,,,,,,824629,,,,,,
139735,note_on,55,0,1,,,,,,,,0,,,68,0
139740,note_on,5,0,1,,,,,,,,0,,,66,56
139795,note_on,55,0,1,,,,,,,,0,,,66,0
139800,note_on,5,0,1,,,,,,,,0,,,64,52
139855,note_on,55,0,1,,,,,,,,0,,,64,0
139860,note_on,5,0,1,,,,,,,,0,,,59,51
139904,note_on,0,0,4,,,,,,,,3,,,47,0
139904,note_on,384,0,4,,,,,,,,3,,,56,0
139905,note_on,1,0,4,,,,,,,,3,,,40,0
139908,set_tempo,220,1,0,,,,,,1813785,,,,,,
139915,note_on,55,0,1,,,,,,,,0,,,59,0
139915,set_tempo,7,1,0,,,,,,1779359,,,,,,
139920,note_on,15,0,4,,,,,,,,3,,,40,67
139920,control_change,504,0,2,,,,,,,,1,64,127,,
139920,control_change,5,0,1,,,,,,,,0,64,0,,
139922,set_tempo,7,1,0,,,,,,1746217,,,,,,
139929,set_tempo,7,1,0,,,,,,1714286,,,,,,
139936,set_tempo,7,1,0,,,,,,1683502,,,,,,
139943,set_tempo,7,1,0,,,,,,1653804,,,,,,
139950,set_tempo,7,1,0,,,,,,1625135,,,,,,
139957,set_tempo,7,1,0,,,,,,1597444,,,,,,
139960,note_on,40,0,4,,,,,,,,3,,,46,75
139964,set_tempo,7,1,0,,,,,,1570681,,,,,,
139971,set_tempo,7,1,0,,,,,,1544799,,,,,,
139978,set_tempo,7,1,0,,,,,,1519757,,,,,,
139980,note_on,60,0,2,,,,,,,,1,,,58,39
139985,set_tempo,7,1,0,,,,,,1495513,,,,,,
139991,set_tempo,6,1,0,,,,,,1472031,,,,,,
139998,set_tempo,7,1,0,,,,,,1449275,,,,,,
140000,note_on,40,0,4,,,,,,,,3,,,49,82
140005,set_tempo,7,1,0,,,,,,1427212,,,,,,
140012,set_tempo,7,1,0,,,,,,1405811,,,,,,
140019,set_tempo,7,1,0,,,,,,1385042,,,,,,
140026,set_tempo,7,1,0,,,,,,1364877,,,,,,
140033,set_tempo,7,1,0,,,,,,1345291,,,,,,
140035,note_on,55,0,2,,,,,,,,1,,,58,0
140040,set_tempo,7,1,0,,,,,,1326260,,,,,,
140040,note_on,5,0,2,,,,,,,,1,,,61,41
140040,note_on,40,0,4,,,,,,,,3,,,56,91
140047,set_tempo,7,1,0,,,,,,1307759,,,,,,
140054,set_tempo,7,1,0,,,,,,1289768,,,,,,
140061,set_tempo,7,1,0,,,,,,1255230,,,,,,
140068,set_tempo,7,1,0,,,,,,1222494,,,,,,
140075,set_tempo,7,1,0,,,,,,1176471,,,,,,
140082,set_tempo,7,1,0,,,,,,1147666,,,,,,
140089,set_tempo,7,1,0,,,,,,1120239,,,,,,
140095,note_on,55,0,2,,,,,,,,1,,,61,0
140096,set_tempo,7,1,0,,,,,,1094092,,,,,,
140100,note_on,5,0,2,,,,,,,,1,,,64,44
140103,set_tempo,7,1,0,,,,,,1057082,,,,,,
140110,set_tempo,7,1,0,,,,,,1033770,,,,,,
140117,set_tempo,7,1,0,,,,,,1011463,,,,,,
140124,set_tempo,7,1,0,,,,,,990099,,,,,,
140131,set_tempo,7,1,0,,,,,,959693,,,,,,
140138,set_tempo,7,1,0,,,,,,940439,,,,,,
140145,set_tempo,7,1,0,,,,,,921942,,,,,,
140151,set_tempo,6,1,0,,,,,,904159,,,,,,
140151,note_on,111,0,4,,,,,,,,3,,,49,0
140152,note_on,1,0,4,,,,,,,,3,,,46,0
140153,note_on,1,0,4,,,,,,,,3,,,40,0
140155,note_on,55,0,2,,,,,,,,1,,,64,0
140158,set_tempo,7,1,0,,,,,,878735,,,,,,
140160,note_on,5,0,2,,,,,,,,1,,,66,45
140165,set_tempo,7,1,0,,,,,,862565,,,,,,
140172,set_tempo,7,1,0,,,,,,846979,,,,,,
140179,set_tempo,7,1,0,,,,,,824629,,,,,,
140185,set_tempo,6,1,0,,,,,,824629,,,,,,
140215,note_on,55,0,2,,,,,,,,1,,,66,0
140220,note_on,5,0,2,,,,,,,,1,,,68,47
140275,note_on,55,0,2,,,,,,,,1,,,68,0
140280,note_on,5,0,2,,,,,,,,1,,,70,48
140335,note_on,55,0,2,,,,,,,,1,,,70,0
140340,note_on,5,0,2,,,,,,,,1,,,73,50
140395,note_on,55,0,2,,,,,,,,1,,,73,0
140400,note_on,5,0,2,,,,,,,,1,,,76,52
140455,note_on,55,0,2,,,,,,,,1,,,76,0
140460,set_tempo,275,1,0,,,,,,846979,,,,,,
140460,note_on,5,0,2,,,,,,,,1,,,78,53
140477,set_tempo,17,1,0,,,,,,854701,,,,,,
140494,set_tempo,17,1,0,,,,,,862565,,,,,,
140511,set_tempo,17,1,0,,,,,,870575,,,,,,
140515,note_on,55,0,2,,,,,,,,1,,,78,0
140520,note_on,5,0,2,,,,,,,,1,,,80,56
140528,set_tempo,17,1,0,,,,,,878735,,,,,,
140545,set_tempo,17,1,0,,,,,,895522,,,,,,
140563,set_tempo,18,1,0,,,,,,904159,,,,,,
140575,note_on,55,0,2,,,,,,,,1,,,80,0
140580,note_on,5,0,2,,,,,,,,1,,,82,57
140580,set_tempo,17,1,0,,,,,,912964,,,,,,
140597,set_tempo,17,1,0,,,,,,921942,,,,,,
140614,set_tempo,17,1,0,,,,,,931099,,,,,,
140631,set_tempo,17,1,0,,,,,,949968,,,,,,
140635,note_on,55,0,2,,,,,,,,1,,,82,0
140640,note_on,5,0,2,,,,,,,,1,,,85,59
140648,set_tempo,17,1,0,,,,,,959693,,,,,,
140665,set_tempo,17,1,0,,,,,,969619,,,,,,
140683,set_tempo,18,1,0,,,,,,979752,,,,,,
140695,note_on,55,0,2,,,,,,,,1,,,85,0
140700,set_tempo,17,1,0,,,,,,990099,,,,,,
140700,note_on,5,0,2,,,,,,,,1,,,88,61
140717,set_tempo,17,1,0,,,,,,1011463,,,,,,
140734,set_tempo,17,1,0,,,,,,1022495,,,,,,
140751,set_tempo,17,1,0,,,,,,1033770,,,,,,
140755,note_on,55,0,2,,,,,,,,1,,,88,0
140760,note_on,5,0,2,,,,,,,,1,,,90,62
140768,set_tempo,17,1,0,,,,,,1045296,,,,,,
140785,set_tempo,17,1,0,,,,,,1069138,,,,,,
140812,set_tempo,27,1,0,,,,,,1081471,,,,,,
140815,note_on,55,0,2,,,,,,,,1,,,90,0
140820,note_on,5,0,2,,,,,,,,1,,,91,81
140824,control_change,671,0,4,,,,,,,,3,64,0,,
140826,set_tempo,14,1,0,,,,,,1069138,,,,,,
140833,set_tempo,7,1,0,,,,,,1069138,,,,,,
140840,set_tempo,7,1,0,,,,,,1057082,,,,,,
140847,set_tempo,7,1,0,,,,,,1045296,,,,,,
140848,note_on,24,0,4,,,,,,,,3,,,56,0
140871,set_tempo,24,1,0,,,,,,1925546,,,,,,
140875,note_on,55,0,2,,,,,,,,1,,,91,0
140880,note_on,0,0,4,,,,,,,,3,,,40,71
140880,control_change,32,0,4,,,,,,,,3,64,127,,
140880,note_on,5,0,2,,,,,,,,1,,,92,83
140888,set_tempo,17,1,0,,,,,,1813785,,,,,,
140905,set_tempo,17,1,0,,,,,,1683502,,,,,,
140920,note_on,40,0,4,,,,,,,,3,,,45,78
140923,set_tempo,18,1,0,,,,,,1570681,,,,,,
140935,note_on,55,0,2,,,,,,,,1,,,92,0
140940,set_tempo,17,1,0,,,,,,1495513,,,,,,
140940,note_on,5,0,2,,,,,,,,1,,,90,89
140957,set_tempo,17,1,0,,,,,,1405811,,,,,,
140960,note_on,40,0,4,,,,,,,,3,,,48,82
140974,set_tempo,17,1,0,,,,,,1326260,,,,,,
140991,set_tempo,17,1,0,,,,,,1272265,,,,,,
140995,note_on,55,0,2,,,,,,,,1,,,90,0
141000,note_on,40,0,4,,,,,,,,3,,,56,88
141000,note_on,5,0,2,,,,,,,,1,,,88,88
141008,set_tempo,17,1,0,,,,,,1206758,,,,,,
141025,set_tempo,17,1,0,,,,,,1147666,,,,,,
141043,set_tempo,18,1,0,,,,,,1094092,,,,,,
141055,note_on,55,0,2,,,,,,,,1,,,88,0
141060,note_on,5,0,2,,,,,,,,1,,,84,85
141115,note_on,55,0,2,,,,,,,,1,,,84,0
141120,note_on,5,0,2,,,,,,,,1,,,81,83
141175,note_on,55,0,2,,,,,,,,1,,,81,0
141180,note_on,5,0,2,,,,,,,,1,,,80,81
141235,note_on,55,0,2,,,,,,,,1,,,80,0
141240,note_on,5,0,2,,,,,,,,1,,,78,79
141295,note_on,55,0,2,,,,,,,,1,,,78,0
141300,note_on,5,0,2,,,,,,,,1,,,76,78
141343,note_on,343,0,4,,,,,,,,3,,,56,0
141344,note_on,0,0,4,,,,,,,,3,,,45,0
141344,note_on,1,0,4,,,,,,,,3,,,48,0
141345,note_on,1,0,4,,,,,,,,3,,,40,0
141351,set_tempo,308,1,0,,,,,,940439,,,,,,
141355,note_on,55,0,2,,,,,,,,1,,,76,0
141360,note_on,15,0,4,,,,,,,,3,,,54,83
141360,note_on,5,0,2,,,,,,,,1,,,72,74
141415,note_on,55,0,2,,,,,,,,1,,,72,0
141420,note_on,5,0,2,,,,,,,,1,,,69,73
141475,note_on,55,0,2,,,,,,,,1,,,69,0
141480,note_on,5,0,2,,,,,,,,1,,,68,71
141535,note_on,55,0,2,,,,,,,,1,,,68,0
141540,note_on,5,0,2,,,,,,,,1,,,66,70
141595,note_on,55,0,2,,,,,,,,1,,,66,0
141600,note_on,5,0,2,,,,,,,,1,,,64,68
141655,note_on,55,0,2,,,,,,,,1,,,64,0
141660,note_on,5,0,2,,,,,,,,1,,,60,66
141712,control_change,352,0,4,,,,,,,,3,64,0,,
141715,note_on,55,0,2,,,,,,,,1,,,60,0
141720,note_on,5,0,2,,,,,,,,1,,,57,63
141775,note_on,55,0,2,,,,,,,,1,,,57,0
141780,note_on,68,0,4,,,,,,,,3,,,52,66
141780,note_on,5,0,2,,,,,,,,1,,,52,61
141788,note_on,8,0,4,,,,,,,,3,,,54,0
141791,set_tempo,440,1,0,,,,,,931099,,,,,,
141834,set_tempo,43,1,0,,,,,,1813785,,,,,,
141835,note_on,55,0,2,,,,,,,,1,,,52,0
141835,note_on,47,0,4,,,,,,,,3,,,52,0
141840,control_change,5,0,4,,,,,,,,3,64,127,,
141840,note_on,0,0,4,,,,,,,,3,,,44,74
141851,set_tempo,17,1,0,,,,,,1714286,,,,,,
141868,set_tempo,17,1,0,,,,,,1597444,,,,,,
141880,note_on,40,0,4,,,,,,,,3,,,52,82
141886,set_tempo,18,1,0,,,,,,1495513,,,,,,
141903,set_tempo,17,1,0,,,,,,1427212,,,,,,
141920,note_on,40,0,4,,,,,,,,3,,,59,88
141920,set_tempo,17,1,0,,,,,,1345291,,,,,,
141937,set_tempo,17,1,0,,,,,,1289768,,,,,,
141954,set_tempo,17,1,0,,,,,,1222494,,,,,,
141971,set_tempo,17,1,0,,,,,,1161890,,,,,,
141988,set_tempo,17,1,0,,,,,,1120239,,,,,,
142006,set_tempo,18,1,0,,,,,,1069138,,,,,,
142023,set_tempo,17,1,0,,,,,,1033770,,,,,,
142040,set_tempo,17,1,0,,,,,,990099,,,,,,
142056,control_change,2136,0,1,,,,,,,,0,64,127,,
142057,set_tempo,17,1,0,,,,,,949968,,,,,,
142080,note_on,24,0,1,,,,,,,,0,,,95,56
142135,note_on,55,0,1,,,,,,,,0,,,95,0
142140,note_on,5,0,1,,,,,,,,0,,,91,56
142195,note_on,55,0,1,,,,,,,,0,,,91,0
142200,note_on,5,0,1,,,,,,,,0,,,90,64
142255,note_on,55,0,1,,,,,,,,0,,,90,0
142260,note_on,5,0,1,,,,,,,,0,,,88,72
142304,note_on,384,0,4,,,,,,,,3,,,52,0
142305,note_on,1,0,4,,,,,,,,3,,,44,0
142315,note_on,55,0,1,,,,,,,,0,,,88,0
142320,note_on,5,0,1,,,,,,,,0,,,83,81
142368,control_change,533,0,2,,,,,,,,1,64,0,,
142375,note_on,55,0,1,,,,,,,,0,,,83,0
142380,note_on,5,0,1,,,,,,,,0,,,80,82
142435,note_on,55,0,1,,,,,,,,0,,,80,0
142440,note_on,5,0,1,,,,,,,,0,,,78,79
142495,note_on,55,0,1,,,,,,,,0,,,78,0
142500,note_on,5,0,1,,,,,,,,0,,,76,74
142555,note_on,55,0,1,,,,,,,,0,,,76,0
142560,note_on,5,0,1,,,,,,,,0,,,71,71
142615,note_on,55,0,1,,,,,,,,0,,,71,0
142620,note_on,5,0,1,,,,,,,,0,,,68,69
142675,note_on,55,0,1,,,,,,,,0,,,68,0
142680,note_on,5,0,1,,,,,,,,0,,,66,66
142735,note_on,55,0,1,,,,,,,,0,,,66,0
142740,note_on,5,0,1,,,,,,,,0,,,64,61
142769,note_on,464,0,4,,,,,,,,3,,,59,0
142795,note_on,55,0,1,,,,,,,,0,,,64,0
142800,control_change,31,0,4,,,,,,,,3,64,0,,
142800,note_on,5,0,1,,,,,,,,0,,,59,58
142855,note_on,55,0,1,,,,,,,,0,,,59,0
142860,note_on,5,0,1,,,,,,,,0,,,64,56
142915,note_on,55,0,1,,,,,,,,0,,,64,0
142920,note_on,5,0,1,,,,,,,,0,,,66,58
142975,note_on,55,0,1,,,,,,,,0,,,66,0
142980,note_on,5,0,1,,,,,,,,0,,,68,61
142992,control_change,4024,0,3,,,,,,,,2,64,127,,
143035,note_on,55,0,1,,,,,,,,0,,,68,0
143040,note_on,48,0,3,,,,,,,,2,,,56,88
143040,note_on,5,0,1,,,,,,,,0,,,71,63
143068,set_tempo,1011,1,0,,,,,,949968,,,,,,
143095,note_on,55,0,1,,,,,,,,0,,,71,0
143100,note_on,5,0,1,,,,,,,,0,,,76,66
143103,set_tempo,35,1,0,,,,,,959693,,,,,,
143120,set_tempo,17,1,0,,,,,,969619,,,,,,
143137,set_tempo,17,1,0,,,,,,979752,,,,,,
143154,set_tempo,17,1,0,,,,,,990099,,,,,,
143155,note_on,55,0,1,,,,,,,,0,,,76,0
143160,note_on,5,0,1,,,,,,,,0,,,78,68
143171,set_tempo,17,1,0,,,,,,1000667,,,,,,
143188,set_tempo,17,1,0,,,,,,1011463,,,,,,
143206,set_tempo,18,1,0,,,,,,1022495,,,,,,
143215,note_on,55,0,1,,,,,,,,0,,,78,0
143220,note_on,5,0,1,,,,,,,,0,,,80,70
143223,set_tempo,17,1,0,,,,,,1033770,,,,,,
143240,set_tempo,17,1,0,,,,,,1045296,,,,,,
143257,set_tempo,17,1,0,,,,,,1057082,,,,,,
143260,note_on,220,0,3,,,,,,,,2,,,56,0
143274,set_tempo,17,1,0,,,,,,1069138,,,,,,
143275,note_on,55,0,1,,,,,,,,0,,,80,0
143280,note_on,5,0,1,,,,,,,,0,,,83,73
143280,note_on,20,0,3,,,,,,,,2,,,54,81
143291,set_tempo,17,1,0,,,,,,1081471,,,,,,
143308,set_tempo,17,1,0,,,,,,1094092,,,,,,
143326,set_tempo,18,1,0,,,,,,1107011,,,,,,
143335,note_on,55,0,1,,,,,,,,0,,,83,0
143340,note_on,5,0,1,,,,,,,,0,,,88,75
143343,set_tempo,17,1,0,,,,,,1120239,,,,,,
143360,set_tempo,17,1,0,,,,,,1133787,,,,,,
143377,set_tempo,17,1,0,,,,,,1147666,,,,,,
143394,set_tempo,17,1,0,,,,,,1161890,,,,,,
143395,note_on,55,0,1,,,,,,,,0,,,88,0
143400,note_on,5,0,1,,,,,,,,0,,,90,79
143411,set_tempo,17,1,0,,,,,,1176471,,,,,,
143428,set_tempo,17,1,0,,,,,,1191422,,,,,,
143446,set_tempo,18,1,0,,,,,,1206758,,,,,,
143455,note_on,55,0,1,,,,,,,,0,,,90,0
143460,note_on,5,0,1,,,,,,,,0,,,92,81
143463,set_tempo,17,1,0,,,,,,1222494,,,,,,
143480,set_tempo,17,1,0,,,,,,1238646,,,,,,
143500,note_on,220,0,3,,,,,,,,2,,,54,0
143515,note_on,55,0,1,,,,,,,,0,,,92,0
143520,note_on,20,0,3,,,,,,,,2,,,52,74
143520,note_on,5,0,1,,,,,,,,0,,,80,67
143560,note_on,40,0,1,,,,,,,,0,,,88,75
143600,note_on,40,0,1,,,,,,,,0,,,95,85
143686,set_tempo,206,1,0,,,,,,1779359,,,,,,
143703,set_tempo,17,1,0,,,,,,1683502,,,,,,
143712,control_change,112,0,1,,,,,,,,0,64,0,,
143720,set_tempo,17,1,0,,,,,,1570681,,,,,,
143737,set_tempo,17,1,0,,,,,,1472031,,,,,,
143740,note_on,220,0,3,,,,,,,,2,,,52,0
143751,note_on,39,0,1,,,,,,,,0,,,95,0
143752,note_on,1,0,1,,,,,,,,0,,,88,0
143753,note_on,1,0,1,,,,,,,,0,,,80,0
143754,set_tempo,17,1,0,,,,,,1385042,,,,,,
143760,note_on,20,0,3,,,,,,,,2,,,37,52
143771,set_tempo,17,1,0,,,,,,1307759,,,,,,
143788,set_tempo,17,1,0,,,,,,1238646,,,,,,
143792,control_change,39,0,1,,,,,,,,0,64,127,,
143800,note_on,40,0,3,,,,,,,,2,,,44,66
143806,set_tempo,18,1,0,,,,,,1191422,,,,,,
143820,note_on,28,0,1,,,,,,,,0,,,56,60
143823,set_tempo,17,1,0,,,,,,1133787,,,,,,
143840,set_tempo,17,1,0,,,,,,1081471,,,,,,
143840,note_on,40,0,3,,,,,,,,2,,,52,74
143857,set_tempo,17,1,0,,,,,,1033770,,,,,,
143874,set_tempo,17,1,0,,,,,,990099,,,,,,
143875,note_on,55,0,1,,,,,,,,0,,,56,0
143880,note_on,5,0,1,,,,,,,,0,,,61,62
143891,set_tempo,17,1,0,,,,,,949968,,,,,,
143935,note_on,55,0,1,,,,,,,,0,,,61,0
143940,note_on,5,0,1,,,,,,,,0,,,63,64
143992,note_on,152,0,3,,,,,,,,2,,,44,0
143993,note_on,1,0,3,,,,,,,,2,,,37,0
143995,note_on,55,0,1,,,,,,,,0,,,63,0
144000,note_on,5,0,1,,,,,,,,0,,,64,67
144055,note_on,55,0,1,,,,,,,,0,,,64,0
144060,note_on,5,0,1,,,,,,,,0,,,68,69
144115,note_on,55,0,1,,,,,,,,0,,,68,0
144120,note_on,5,0,1,,,,,,,,0,,,73,71
144175,note_on,55,0,1,,,,,,,,0,,,73,0
144180,note_on,5,0,1,,,,,,,,0,,,75,73
144224,note_on,231,0,3,,,,,,,,2,,,52,0
144235,note_on,55,0,1,,,,,,,,0,,,75,0
144240,note_on,16,0,3,,,,,,,,2,,,51,83
144240,note_on,5,0,1,,,,,,,,0,,,76,75
144295,note_on,55,0,1,,,,,,,,0,,,76,0
144300,note_on,5,0,1,,,,,,,,0,,,80,78
144355,note_on,55,0,1,,,,,,,,0,,,80,0
144360,note_on,5,0,1,,,,,,,,0,,,85,80
144415,note_on,55,0,1,,,,,,,,0,,,85,0
144420,note_on,5,0,1,,,,,,,,0,,,87,83
144460,note_on,220,0,3,,,,,,,,2,,,51,0
144475,note_on,55,0,1,,,,,,,,0,,,87,0
144480,note_on,5,0,1,,,,,,,,0,,,88,84
144480,note_on,20,0,3,,,,,,,,2,,,49,74
144535,note_on,55,0,1,,,,,,,,0,,,88,0
144540,note_on,5,0,1,,,,,,,,0,,,92,86
144595,note_on,55,0,1,,,,,,,,0,,,92,0
144600,note_on,5,0,1,,,,,,,,0,,,97,89
144629,set_tempo,738,1,0,,,,,,940439,,,,,,
144650,set_tempo,21,1,0,,,,,,940439,,,,,,
144655,note_on,55,0,1,,,,,,,,0,,,97,0
144660,note_on,5,0,1,,,,,,,,0,,,100,92
144700,note_on,220,0,3,,,,,,,,2,,,49,0
144714,set_tempo,64,1,0,,,,,,1746217,,,,,,
144715,note_on,55,0,1,,,,,,,,0,,,100,0
144720,control_change,1920,0,4,,,,,,,,3,64,127,,
144720,note_on,0,0,4,,,,,,,,3,,,33,73
144720,set_tempo,6,1,0,,,,,,2487562,,,,,,
144726,set_tempo,6,1,0,,,,,,2362205,,,,,,
144733,set_tempo,7,1,0,,,,,,2248876,,,,,,
144740,set_tempo,7,1,0,,,,,,2145923,,,,,,
144741,marker,1,1,0,,,,,,,,,,,,
144747,set_tempo,6,1,0,,,,,,2051984,,,,,,
144752,control_change,37,0,1,,,,,,,,0,64,0,,
144754,set_tempo,7,1,0,,,,,,1965924,,,,,,
144760,note_on,40,0,4,,,,,,,,3,,,40,97
144761,set_tempo,7,1,0,,,,,,1886792,,,,,,
144768,set_tempo,7,1,0,,,,,,1813785,,,,,,
144775,set_tempo,7,1,0,,,,,,1746217,,,,,,
144780,note_on,28,0,1,,,,,,,,0,,,56,58
144782,set_tempo,7,1,0,,,,,,1683502,,,,,,
144786,control_change,6,0,1,,,,,,,,0,64,127,,
144789,set_tempo,7,1,0,,,,,,1625135,,,,,,
144796,set_tempo,7,1,0,,,,,,1570681,,,,,,
144800,note_on,40,0,4,,,,,,,,3,,,48,86
144803,set_tempo,7,1,0,,,,,,1519757,,,,,,
144810,set_tempo,7,1,0,,,,,,1472031,,,,,,
144817,set_tempo,7,1,0,,,,,,1427212,,,,,,
144824,set_tempo,7,1,0,,,,,,1385042,,,,,,
144831,set_tempo,7,1,0,,,,,,1345291,,,,,,
144835,note_on,49,0,1,,,,,,,,0,,,56,0
144838,set_tempo,7,1,0,,,,,,1307759,,,,,,
144840,note_on,5,0,1,,,,,,,,0,,,57,61
144845,set_tempo,7,1,0,,,,,,1272265,,,,,,
144852,set_tempo,7,1,0,,,,,,1238646,,,,,,
144859,set_tempo,7,1,0,,,,,,1206758,,,,,,
144866,set_tempo,7,1,0,,,,,,1176471,,,,,,
144873,set_tempo,7,1,0,,,,,,1147666,,,,,,
144880,set_tempo,7,1,0,,,,,,1120239,,,,,,
144886,set_tempo,6,1,0,,,,,,1094092,,,,,,
144893,set_tempo,7,1,0,,,,,,1069138,,,,,,
144895,note_on,55,0,1,,,,,,,,0,,,57,0
144900,note_on,5,0,1,,,,,,,,0,,,59,63
144900,set_tempo,7,1,0,,,,,,1045296,,,,,,
144907,set_tempo,7,1,0,,,,,,1022495,,,,,,
144914,set_tempo,7,1,0,,,,,,990099,,,,,,
144920,set_tempo,6,1,0,,,,,,1022495,,,,,,
144937,set_tempo,17,1,0,,,,,,979752,,,,,,
144951,note_on,151,0,4,,,,,,,,3,,,48,0
144953,note_on,2,0,4,,,,,,,,3,,,33,0
144955,note_on,55,0,1,,,,,,,,0,,,59,0
144960,note_on,5,0,1,,,,,,,,0,,,60,66
144960,note_on,7,0,4,,,,,,,,3,,,41,96
144980,note_on,20,0,4,,,,,,,,3,,,40,0
145015,note_on,55,0,1,,,,,,,,0,,,60,0
145020,note_on,5,0,1,,,,,,,,0,,,64,67
145075,note_on,55,0,1,,,,,,,,0,,,64,0
145080,note_on,5,0,1,,,,,,,,0,,,69,70
145096,control_change,396,0,3,,,,,,,,2,64,0,,
145135,note_on,55,0,1,,,,,,,,0,,,69,0
145140,note_on,5,0,1,,,,,,,,0,,,71,72
145180,note_on,200,0,4,,,,,,,,3,,,41,0
145195,note_on,55,0,1,,,,,,,,0,,,71,0
145200,note_on,5,0,1,,,,,,,,0,,,72,74
145200,note_on,20,0,4,,,,,,,,3,,,42,96
145255,note_on,55,0,1,,,,,,,,0,,,72,0
145260,note_on,5,0,1,,,,,,,,0,,,76,77
145315,note_on,55,0,1,,,,,,,,0,,,76,0
145320,note_on,5,0,1,,,,,,,,0,,,81,79
145375,note_on,55,0,1,,,,,,,,0,,,81,0
145380,note_on,5,0,1,,,,,,,,0,,,83,81
145420,note_on,220,0,4,,,,,,,,3,,,42,0
145435,note_on,55,0,1,,,,,,,,0,,,83,0
145440,note_on,20,0,4,,,,,,,,3,,,43,96
145440,note_on,5,0,1,,,,,,,,0,,,84,83
145495,note_on,55,0,1,,,,,,,,0,,,84,0
145500,note_on,5,0,1,,,,,,,,0,,,88,85
145555,note_on,55,0,1,,,,,,,,0,,,88,0
145560,note_on,5,0,1,,,,,,,,0,,,93,88
145586,control_change,146,0,4,,,,,,,,3,64,0,,
145615,note_on,55,0,1,,,,,,,,0,,,93,0
145620,note_on,5,0,1,,,,,,,,0,,,96,90
145660,note_on,74,0,4,,,,,,,,3,,,43,0
145675,note_on,55,0,1,,,,,,,,0,,,96,0
145680,control_change,584,0,3,,,,,,,,2,64,127,,
145680,set_tempo,0,1,0,,,,,,375000,,,,,,
145680,note_on,20,0,4,,,,,,,,3,,,28,91
145680,time_signature,743,1,0,6,8,12,8,,,,,,,,
145680,control_change,3312,0,2,,,,,,,,1,64,127,,
145680,note_on,0,0,2,,,,,,,,1,,,44,92
145680,note_on,0,0,3,,,,,,,,2,,,44,92
145680,note_on,0,0,4,,,,,,,,3,,,40,91
145746,control_change,71,0,1,,,,,,,,0,64,0,,
145790,note_on,110,0,3,,,,,,,,2,,,44,0
145790,note_on,110,0,4,,,,,,,,3,,,40,0
145790,note_on,0,0,4,,,,,,,,3,,,28,0
145800,note_on,10,0,3,,,,,,,,2,,,49,69
145820,marker,140,1,0,,,,,,,,,,,,
145908,note_on,108,0,3,,,,,,,,2,,,49,0
145920,note_on,130,0,4,,,,,,,,3,,,30,67
145920,note_on,0,0,4,,,,,,,,3,,,42,67
145920,note_on,12,0,3,,,,,,,,2,,,44,80
146028,note_on,108,0,3,,,,,,,,2,,,44,0
146028,note_on,108,0,4,,,,,,,,3,,,42,0
146028,note_on,0,0,4,,,,,,,,3,,,30,0
146040,note_on,12,0,3,,,,,,,,2,,,56,91
146148,note_on,108,0,3,,,,,,,,2,,,56,0
146160,note_on,0,0,3,,,,,,,,2,,,52,102
146160,note_on,0,0,4,,,,,,,,3,,,43,69
146160,note_on,132,0,4,,,,,,,,3,,,31,69
146160,note_on,12,0,3,,,,,,,,2,,,47,102
146268,note_on,108,0,4,,,,,,,,3,,,43,0
146268,note_on,0,0,4,,,,,,,,3,,,31,0
146341,note_on,661,0,2,,,,,,,,1,,,44,0
146376,note_on,0,0,3,,,,,,,,2,,,47,0
146376,note_on,216,0,3,,,,,,,,2,,,52,0
146400,note_on,24,0,3,,,,,,,,2,,,47,64
146400,note_on,0,0,4,,,,,,,,3,,,43,71
146400,note_on,59,0,2,,,,,,,,1,,,47,112
146400,note_on,132,0,4,,,,,,,,3,,,31,71
146508,note_on,108,0,4,,,,,,,,3,,,43,0
146508,note_on,108,0,3,,,,,,,,2,,,47,0
146508,note_on,0,0,4,,,,,,,,3,,,31,0
146520,note_on,12,0,3,,,,,,,,2,,,52,64
146628,note_on,108,0,3,,,,,,,,2,,,52,0
146640,note_on,12,0,3,,,,,,,,2,,,51,73
146640,note_on,132,0,4,,,,,,,,3,,,34,73
146640,note_on,0,0,4,,,,,,,,3,,,46,73
146748,note_on,108,0,3,,,,,,,,2,,,51,0
146748,note_on,108,0,4,,,,,,,,3,,,46,0
146748,note_on,0,0,4,,,,,,,,3,,,34,0
146760,note_on,12,0,3,,,,,,,,2,,,59,82
146868,note_on,108,0,3,,,,,,,,2,,,59,0
146880,note_on,132,0,4,,,,,,,,3,,,35,75
146880,note_on,0,0,4,,,,,,,,3,,,47,75
146880,note_on,0,0,3,,,,,,,,2,,,51,91
146880,note_on,12,0,3,,,,,,,,2,,,56,91
146988,note_on,0,0,4,,,,,,,,3,,,35,0
146988,note_on,108,0,4,,,,,,,,3,,,47,0
147048,note_on,648,0,2,,,,,,,,1,,,47,0
147096,note_on,216,0,3,,,,,,,,2,,,51,0
147096,note_on,0,0,3,,,,,,,,2,,,56,0
147120,note_on,24,0,3,,,,,,,,2,,,50,64
147120,note_on,72,0,2,,,,,,,,1,,,50,112
147120,note_on,132,0,4,,,,,,,,3,,,35,77
147120,note_on,0,0,4,,,,,,,,3,,,47,77
147228,note_on,0,0,4,,,,,,,,3,,,35,0
147228,note_on,108,0,3,,,,,,,,2,,,50,0
147228,note_on,108,0,4,,,,,,,,3,,,47,0
147240,note_on,12,0,3,,,,,,,,2,,,56,62
147348,note_on,108,0,3,,,,,,,,2,,,56,0
147360,note_on,132,0,4,,,,,,,,3,,,36,79
147360,note_on,12,0,3,,,,,,,,2,,,54,74
147360,note_on,0,0,4,,,,,,,,3,,,48,79
147468,note_on,108,0,4,,,,,,,,3,,,48,0
147468,note_on,108,0,3,,,,,,,,2,,,54,0
147468,note_on,0,0,4,,,,,,,,3,,,36,0
147480,note_on,12,0,3,,,,,,,,2,,,62,85
147588,note_on,108,0,3,,,,,,,,2,,,62,0
147600,note_on,12,0,3,,,,,,,,2,,,59,97
147600,note_on,0,0,4,,,,,,,,3,,,50,81
147600,note_on,0,0,3,,,,,,,,2,,,54,97
147600,note_on,132,0,4,,,,,,,,3,,,38,81
147708,note_on,0,0,4,,,,,,,,3,,,38,0
147708,note_on,108,0,4,,,,,,,,3,,,50,0
147768,note_on,648,0,2,,,,,,,,1,,,50,0
147816,note_on,0,0,3,,,,,,,,2,,,59,0
147816,note_on,216,0,3,,,,,,,,2,,,54,0
147840,note_on,132,0,4,,,,,,,,3,,,38,83
147840,note_on,0,0,4,,,,,,,,3,,,50,83
147840,note_on,24,0,3,,,,,,,,2,,,54,64
147840,note_on,72,0,2,,,,,,,,1,,,54,112
147948,note_on,0,0,4,,,,,,,,3,,,38,0
147948,note_on,108,0,3,,,,,,,,2,,,54,0
147948,note_on,108,0,4,,,,,,,,3,,,50,0
147960,note_on,12,0,3,,,,,,,,2,,,59,59
148068,note_on,108,0,3,,,,,,,,2,,,59,0
148080,note_on,12,0,3,,,,,,,,2,,,57,72
148080,note_on,0,0,4,,,,,,,,3,,,52,85
148080,note_on,132,0,4,,,,,,,,3,,,40,85
148188,note_on,108,0,3,,,,,,,,2,,,57,0
148188,note_on,108,0,4,,,,,,,,3,,,52,0
148188,note_on,0,0,4,,,,,,,,3,,,40,0
148200,note_on,12,0,3,,,,,,,,2,,,66,84
148308,note_on,108,0,3,,,,,,,,2,,,66,0
148320,note_on,0,0,3,,,,,,,,2,,,57,96
148320,note_on,132,0,4,,,,,,,,3,,,42,87
148320,note_on,12,0,3,,,,,,,,2,,,62,96
148320,note_on,0,0,4,,,,,,,,3,,,54,87
148428,note_on,108,0,4,,,,,,,,3,,,54,0
148428,note_on,0,0,4,,,,,,,,3,,,42,0
148488,note_on,648,0,2,,,,,,,,1,,,54,0
148536,note_on,0,0,3,,,,,,,,2,,,62,0
148536,note_on,216,0,3,,,,,,,,2,,,57,0
148560,note_on,0,0,4,,,,,,,,3,,,54,89
148560,note_on,132,0,4,,,,,,,,3,,,42,89
148560,note_on,72,0,2,,,,,,,,1,,,57,112
148560,note_on,24,0,3,,,,,,,,2,,,57,64
148668,note_on,108,0,4,,,,,,,,3,,,54,0
148668,note_on,108,0,3,,,,,,,,2,,,57,0
148668,note_on,0,0,4,,,,,,,,3,,,42,0
148680,note_on,12,0,3,,,,,,,,2,,,62,65
148788,note_on,108,0,3,,,,,,,,2,,,62,0
148800,note_on,12,0,3,,,,,,,,2,,,61,73
148800,note_on,0,0,4,,,,,,,,3,,,55,91
148800,note_on,132,0,4,,,,,,,,3,,,43,91
148908,note_on,0,0,4,,,,,,,,3,,,43,0
148908,note_on,108,0,4,,,,,,,,3,,,55,0
148908,note_on,108,0,3,,,,,,,,2,,,61,0
148920,note_on,12,0,3,,,,,,,,2,,,69,80
149028,note_on,108,0,3,,,,,,,,2,,,69,0
149040,note_on,12,0,3,,,,,,,,2,,,66,88
149040,note_on,132,0,4,,,,,,,,3,,,45,93
149040,note_on,0,0,4,,,,,,,,3,,,57,93
149040,note_on,0,0,3,,,,,,,,2,,,61,88
149148,note_on,108,0,4,,,,,,,,3,,,57,0
149148,note_on,0,0,4,,,,,,,,3,,,45,0
149208,note_on,648,0,2,,,,,,,,1,,,57,0
149256,note_on,216,0,3,,,,,,,,2,,,61,0
149256,note_on,0,0,3,,,,,,,,2,,,66,0
149280,note_on,24,0,3,,,,,,,,2,,,60,64
149280,note_on,72,0,2,,,,,,,,1,,,60,112
149280,note_on,132,0,4,,,,,,,,3,,,45,95
149280,note_on,0,0,4,,,,,,,,3,,,57,95
149388,note_on,0,0,4,,,,,,,,3,,,45,0
149388,note_on,108,0,3,,,,,,,,2,,,60,0
149388,note_on,108,0,4,,,,,,,,3,,,57,0
149400,note_on,12,0,3,,,,,,,,2,,,66,58
149508,note_on,108,0,3,,,,,,,,2,,,66,0
149520,note_on,0,0,4,,,,,,,,3,,,47,96
149520,note_on,12,0,3,,,,,,,,2,,,64,71
149520,note_on,132,0,4,,,,,,,,3,,,59,96
149628,note_on,108,0,3,,,,,,,,2,,,64,0
149628,note_on,0,0,4,,,,,,,,3,,,59,0
149628,note_on,108,0,4,,,,,,,,3,,,47,0
149640,note_on,12,0,3,,,,,,,,2,,,72,83
149748,note_on,108,0,3,,,,,,,,2,,,72,0
149760,note_on,132,0,4,,,,,,,,3,,,60,98
149760,note_on,0,0,4,,,,,,,,3,,,48,98
149760,note_on,12,0,3,,,,,,,,2,,,69,96
149760,note_on,0,0,3,,,,,,,,2,,,64,96
149868,note_on,0,0,4,,,,,,,,3,,,60,0
149868,note_on,108,0,4,,,,,,,,3,,,48,0
149928,note_on,648,0,2,,,,,,,,1,,,60,0
149976,note_on,0,0,3,,,,,,,,2,,,69,0
149976,note_on,216,0,3,,,,,,,,2,,,64,0
150000,note_on,4254,0,1,,,,,,,,0,,,76,98
150000,note_on,0,0,4,,,,,,,,3,,,48,100
150000,note_on,0,0,4,,,,,,,,3,,,55,100
150000,note_on,0,0,4,,,,,,,,3,,,52,100
150000,note_on,132,0,4,,,,,,,,3,,,60,100
150000,control_change,24,0,3,,,,,,,,2,64,0,,
150000,control_change,72,0,2,,,,,,,,1,64,0,,
150000,note_on,0,0,1,,,,,,,,0,,,72,98
150000,note_on,0,0,1,,,,,,,,0,,,64,98
150108,note_on,0,0,4,,,,,,,,3,,,60,0
150108,note_on,0,0,4,,,,,,,,3,,,55,0
150108,note_on,0,0,4,,,,,,,,3,,,52,0
150108,note_on,108,0,4,,,,,,,,3,,,48,0
150216,note_on,0,0,1,,,,,,,,0,,,76,0
150216,note_on,216,0,1,,,,,,,,0,,,64,0
150216,note_on,0,0,1,,,,,,,,0,,,72,0
150480,note_on,264,0,1,,,,,,,,0,,,78,98
150480,note_on,372,0,4,,,,,,,,3,,,59,96
150480,note_on,0,0,4,,,,,,,,3,,,47,96
150480,note_on,0,0,4,,,,,,,,3,,,52,96
150480,note_on,0,0,4,,,,,,,,3,,,54,96
150480,note_on,0,0,1,,,,,,,,0,,,70,98
150480,note_on,0,0,1,,,,,,,,0,,,76,98
150480,note_on,0,0,1,,,,,,,,0,,,66,98
150534,note_on,0,0,4,,,,,,,,3,,,59,0
150534,note_on,0,0,4,,,,,,,,3,,,54,0
150534,note_on,0,0,4,,,,,,,,3,,,47,0
150534,note_on,54,0,4,,,,,,,,3,,,52,0
150588,note_on,0,0,1,,,,,,,,0,,,70,0
150588,note_on,0,0,1,,,,,,,,0,,,76,0
150588,note_on,0,0,1,,,,,,,,0,,,78,0
150588,note_on,108,0,1,,,,,,,,0,,,66,0
150720,note_on,132,0,1,,,,,,,,0,,,80,98
150720,note_on,0,0,4,,,,,,,,3,,,59,96
150720,note_on,186,0,4,,,,,,,,3,,,52,96
150720,note_on,0,0,1,,,,,,,,0,,,68,98
150720,note_on,0,0,4,,,,,,,,3,,,47,96
150720,note_on,0,0,4,,,,,,,,3,,,56,96
150720,note_on,0,0,1,,,,,,,,0,,,76,98
150720,note_on,0,0,1,,,,,,,,0,,,71,98
150828,note_on,108,0,4,,,,,,,,3,,,56,0
150828,note_on,0,0,4,,,,,,,,3,,,59,0
150828,note_on,0,0,4,,,,,,,,3,,,47,0
150828,note_on,0,0,4,,,,,,,,3,,,52,0
150936,note_on,0,0,1,,,,,,,,0,,,76,0
150936,note_on,0,0,1,,,,,,,,0,,,80,0
150936,note_on,216,0,1,,,,,,,,0,,,68,0
150936,note_on,0,0,1,,,,,,,,0,,,71,0
151200,note_on,0,0,1,,,,,,,,0,,,75,98
151200,note_on,372,0,4,,,,,,,,3,,,35,96
151200,note_on,0,0,4,,,,,,,,3,,,47,96
151200,note_on,264,0,1,,,,,,,,0,,,83,98
151200,note_on,0,0,1,,,,,,,,0,,,78,98
151200,note_on,0,0,1,,,,,,,,0,,,71,98
151254,note_on,54,0,4,,,,,,,,3,,,47,0
151254,note_on,0,0,4,,,,,,,,3,,,35,0
151308,note_on,108,0,1,,,,,,,,0,,,71,0
151308,note_on,0,0,1,,,,,,,,0,,,83,0
151308,note_on,0,0,1,,,,,,,,0,,,78,0
151308,note_on,0,0,1,,,,,,,,0,,,75,0
151440,control_change,1440,0,2,,,,,,,,1,64,127,,
151440,note_on,186,0,4,,,,,,,,3,,,40,66
151440,note_on,0,0,4,,,,,,,,3,,,52,66
151440,note_on,0,0,2,,,,,,,,1,,,56,105
151440,note_on,1440,0,3,,,,,,,,2,,,56,57
151548,note_on,108,0,3,,,,,,,,2,,,56,0
151548,note_on,108,0,4,,,,,,,,3,,,52,0
151548,note_on,0,0,4,,,,,,,,3,,,40,0
151560,note_on,12,0,3,,,,,,,,2,,,61,58
151668,note_on,108,0,3,,,,,,,,2,,,61,0
151680,note_on,0,0,4,,,,,,,,3,,,54,68
151680,note_on,132,0,4,,,,,,,,3,,,42,68
151680,note_on,12,0,3,,,,,,,,2,,,59,59
151788,note_on,0,0,4,,,,,,,,3,,,42,0
151788,note_on,108,0,4,,,,,,,,3,,,54,0
151788,note_on,108,0,3,,,,,,,,2,,,59,0
151800,note_on,12,0,3,,,,,,,,2,,,68,60
151908,note_on,108,0,3,,,,,,,,2,,,68,0
151920,note_on,132,0,4,,,,,,,,3,,,44,70
151920,note_on,0,0,4,,,,,,,,3,,,56,70
151920,note_on,12,0,3,,,,,,,,2,,,64,61
151920,note_on,0,0,3,,,,,,,,2,,,59,61
152028,note_on,108,0,4,,,,,,,,3,,,56,0
152028,note_on,0,0,4,,,,,,,,3,,,44,0
152088,note_on,648,0,2,,,,,,,,1,,,56,0
152136,note_on,0,0,3,,,,,,,,2,,,64,0
152136,note_on,216,0,3,,,,,,,,2,,,59,0
152160,note_on,24,0,3,,,,,,,,2,,,59,64
152160,note_on,132,0,4,,,,,,,,3,,,44,71
152160,note_on,0,0,4,,,,,,,,3,,,56,71
152160,note_on,72,0,2,,,,,,,,1,,,59,105
152268,note_on,108,0,4,,,,,,,,3,,,56,0
152268,note_on,108,0,3,,,,,,,,2,,,59,0
152268,note_on,0,0,4,,,,,,,,3,,,44,0
152280,note_on,12,0,3,,,,,,,,2,,,64,65
152388,note_on,108,0,3,,,,,,,,2,,,64,0
152400,note_on,132,0,4,,,,,,,,3,,,58,73
152400,note_on,12,0,3,,,,,,,,2,,,63,66
152400,note_on,0,0,4,,,,,,,,3,,,46,73
152508,note_on,0,0,4,,,,,,,,3,,,58,0
152508,note_on,108,0,4,,,,,,,,3,,,46,0
152508,note_on,108,0,3,,,,,,,,2,,,63,0
152520,note_on,12,0,3,,,,,,,,2,,,71,67
152628,note_on,108,0,3,,,,,,,,2,,,71,0
152640,note_on,132,0,4,,,,,,,,3,,,59,75
152640,note_on,12,0,3,,,,,,,,2,,,68,68
152640,note_on,0,0,3,,,,,,,,2,,,63,68
152640,note_on,0,0,4,,,,,,,,3,,,47,75
152748,note_on,0,0,4,,,,,,,,3,,,59,0
152748,note_on,108,0,4,,,,,,,,3,,,47,0
152808,note_on,648,0,2,,,,,,,,1,,,59,0
152856,note_on,216,0,3,,,,,,,,2,,,63,0
152856,note_on,0,0,3,,,,,,,,2,,,68,0
152880,note_on,72,0,2,,,,,,,,1,,,62,105
152880,note_on,24,0,3,,,,,,,,2,,,62,70
152880,note_on,132,0,4,,,,,,,,3,,,59,77
152880,note_on,0,0,4,,,,,,,,3,,,47,77
152988,note_on,0,0,4,,,,,,,,3,,,59,0
152988,note_on,108,0,3,,,,,,,,2,,,62,0
152988,note_on,108,0,4,,,,,,,,3,,,47,0
153000,note_on,12,0,3,,,,,,,,2,,,68,71
153108,note_on,108,0,3,,,,,,,,2,,,68,0
153120,note_on,132,0,4,,,,,,,,3,,,61,78
153120,note_on,12,0,3,,,,,,,,2,,,66,72
153120,note_on,0,0,4,,,,,,,,3,,,49,78
153228,note_on,0,0,4,,,,,,,,3,,,61,0
153228,note_on,108,0,3,,,,,,,,2,,,66,0
153228,note_on,108,0,4,,,,,,,,3,,,49,0
153240,note_on,12,0,3,,,,,,,,2,,,74,73
153348,note_on,108,0,3,,,,,,,,2,,,74,0
153360,note_on,12,0,3,,,,,,,,2,,,71,74
153360,note_on,0,0,3,,,,,,,,2,,,66,74
153360,note_on,132,0,4,,,,,,,,3,,,62,80
153360,note_on,0,0,4,,,,,,,,3,,,50,80
153468,note_on,0,0,4,,,,,,,,3,,,62,0
153468,note_on,108,0,4,,,,,,,,3,,,50,0
153528,note_on,648,0,2,,,,,,,,1,,,62,0
153576,note_on,0,0,3,,,,,,,,2,,,71,0
153576,note_on,216,0,3,,,,,,,,2,,,66,0
153600,note_on,132,0,4,,,,,,,,3,,,62,82
153600,note_on,0,0,4,,,,,,,,3,,,50,82
153600,note_on,72,0,2,,,,,,,,1,,,66,105
153600,note_on,24,0,3,,,,,,,,2,,,66,76
153708,note_on,0,0,4,,,,,,,,3,,,62,0
153708,note_on,108,0,4,,,,,,,,3,,,50,0
153708,note_on,108,0,3,,,,,,,,2,,,66,0
153720,note_on,12,0,3,,,,,,,,2,,,71,77
153828,note_on,108,0,3,,,,,,,,2,,,71,0
153840,note_on,0,0,4,,,,,,,,3,,,52,83
153840,note_on,132,0,4,,,,,,,,3,,,64,83
153840,note_on,12,0,3,,,,,,,,2,,,69,78
153948,note_on,108,0,4,,,,,,,,3,,,52,0
153948,note_on,0,0,4,,,,,,,,3,,,64,0
153948,note_on,108,0,3,,,,,,,,2,,,69,0
153960,note_on,12,0,3,,,,,,,,2,,,78,79
154068,note_on,108,0,3,,,,,,,,2,,,78,0
154080,note_on,0,0,4,,,,,,,,3,,,54,85
154080,note_on,132,0,4,,,,,,,,3,,,66,85
154080,note_on,12,0,3,,,,,,,,2,,,75,80
154080,note_on,0,0,3,,,,,,,,2,,,69,80
154188,note_on,108,0,4,,,,,,,,3,,,54,0
154188,note_on,0,0,4,,,,,,,,3,,,66,0
154248,note_on,648,0,2,,,,,,,,1,,,66,0
154296,note_on,216,0,3,,,,,,,,2,,,69,0
154296,note_on,0,0,3,,,,,,,,2,,,75,0
154320,note_on,0,0,4,,,,,,,,3,,,54,87
154320,note_on,24,0,3,,,,,,,,2,,,69,82
154320,note_on,132,0,4,,,,,,,,3,,,66,87
154320,note_on,72,0,2,,,,,,,,1,,,69,105
154428,note_on,108,0,4,,,,,,,,3,,,54,0
154428,note_on,0,0,4,,,,,,,,3,,,66,0
154428,note_on,108,0,3,,,,,,,,2,,,69,0
154440,note_on,12,0,3,,,,,,,,2,,,74,83
154548,note_on,108,0,3,,,,,,,,2,,,74,0
154560,note_on,132,0,4,,,,,,,,3,,,67,89
154560,note_on,12,0,3,,,,,,,,2,,,73,84
154560,note_on,0,0,4,,,,,,,,3,,,55,89
154668,note_on,108,0,3,,,,,,,,2,,,73,0
154668,note_on,0,0,4,,,,,,,,3,,,67,0
154668,note_on,108,0,4,,,,,,,,3,,,55,0
154680,note_on,12,0,3,,,,,,,,2,,,81,85
154788,note_on,108,0,3,,,,,,,,2,,,81,0
154800,note_on,12,0,3,,,,,,,,2,,,78,86
154800,note_on,0,0,3,,,,,,,,2,,,73,86
154800,note_on,132,0,4,,,,,,,,3,,,69,90
154800,note_on,0,0,4,,,,,,,,3,,,57,90
154908,note_on,108,0,4,,,,,,,,3,,,57,0
154908,note_on,0,0,4,,,,,,,,3,,,69,0
154968,note_on,648,0,2,,,,,,,,1,,,69,0
155016,note_on,0,0,3,,,,,,,,2,,,78,0
155016,note_on,216,0,3,,,,,,,,2,,,73,0
155040,note_on,132,0,4,,,,,,,,3,,,69,92
155040,note_on,24,0,3,,,,,,,,2,,,72,89
155040,note_on,72,0,2,,,,,,,,1,,,72,108
155040,note_on,0,0,4,,,,,,,,3,,,57,92
155148,note_on,108,0,3,,,,,,,,2,,,72,0
155148,note_on,108,0,4,,,,,,,,3,,,57,0
155148,note_on,0,0,4,,,,,,,,3,,,69,0
155160,note_on,12,0,3,,,,,,,,2,,,78,90
155268,note_on,108,0,3,,,,,,,,2,,,78,0
155280,note_on,132,0,4,,,,,,,,3,,,71,94
155280,note_on,12,0,3,,,,,,,,2,,,76,91
155280,note_on,0,0,4,,,,,,,,3,,,59,94
155388,note_on,108,0,3,,,,,,,,2,,,76,0
155388,note_on,0,0,4,,,,,,,,3,,,71,0
155388,note_on,108,0,4,,,,,,,,3,,,59,0
155400,note_on,12,0,3,,,,,,,,2,,,84,92
155508,note_on,108,0,3,,,,,,,,2,,,84,0
155520,note_on,12,0,3,,,,,,,,2,,,81,93
155520,note_on,0,0,3,,,,,,,,2,,,76,93
155520,note_on,132,0,4,,,,,,,,3,,,72,95
155520,note_on,0,0,4,,,,,,,,3,,,60,95
155560,control_change,520,0,2,,,,,,,,1,64,0,,
155628,note_on,0,0,4,,,,,,,,3,,,72,0
155628,note_on,108,0,4,,,,,,,,3,,,60,0
155688,note_on,128,0,2,,,,,,,,1,,,72,0
155736,note_on,216,0,3,,,,,,,,2,,,76,0
155736,note_on,0,0,3,,,,,,,,2,,,81,0
155760,note_on,4452,0,1,,,,,,,,0,,,88,100
155760,note_on,132,0,4,,,,,,,,3,,,64,97
155760,note_on,0,0,1,,,,,,,,0,,,84,100
155760,note_on,0,0,1,,,,,,,,0,,,76,100
155760,note_on,0,0,4,,,,,,,,3,,,72,97
155760,note_on,0,0,4,,,,,,,,3,,,67,97
155760,note_on,0,0,4,,,,,,,,3,,,60,97
155952,note_on,0,0,1,,,,,,,,0,,,88,0
155952,note_on,192,0,1,,,,,,,,0,,,76,0
155952,note_on,0,0,1,,,,,,,,0,,,84,0
155976,note_on,0,0,4,,,,,,,,3,,,60,0
155976,note_on,0,0,4,,,,,,,,3,,,72,0
155976,note_on,216,0,4,,,,,,,,3,,,67,0
155976,note_on,0,0,4,,,,,,,,3,,,64,0
156240,note_on,0,0,4,,,,,,,,3,,,60,97
156240,note_on,0,0,4,,,,,,,,3,,,64,97
156240,note_on,0,0,1,,,,,,,,0,,,78,96
156240,note_on,0,0,1,,,,,,,,0,,,82,96
156240,note_on,264,0,4,,,,,,,,3,,,72,97
156240,note_on,0,0,4,,,,,,,,3,,,66,97
156240,note_on,0,0,1,,,,,,,,0,,,88,96
156240,note_on,288,0,1,,,,,,,,0,,,90,96
156348,note_on,108,0,1,,,,,,,,0,,,78,0
156348,note_on,0,0,4,,,,,,,,3,,,60,0
156348,note_on,0,0,4,,,,,,,,3,,,66,0
156348,note_on,0,0,1,,,,,,,,0,,,88,0
156348,note_on,108,0,4,,,,,,,,3,,,64,0
156348,note_on,0,0,1,,,,,,,,0,,,82,0
156348,note_on,0,0,1,,,,,,,,0,,,90,0
156348,note_on,0,0,4,,,,,,,,3,,,72,0
156480,note_on,0,0,1,,,,,,,,0,,,88,96
156480,note_on,132,0,1,,,,,,,,0,,,92,96
156480,note_on,0,0,1,,,,,,,,0,,,80,96
156480,note_on,0,0,4,,,,,,,,3,,,60,97
156480,note_on,0,0,4,,,,,,,,3,,,68,97
156480,note_on,0,0,4,,,,,,,,3,,,72,97
156480,note_on,0,0,1,,,,,,,,0,,,83,96
156480,note_on,132,0,4,,,,,,,,3,,,64,97
156696,note_on,0,0,1,,,,,,,,0,,,83,0
156696,note_on,0,0,4,,,,,,,,3,,,60,0
156696,note_on,216,0,4,,,,,,,,3,,,68,0
156696,note_on,216,0,1,,,,,,,,0,,,80,0
156696,note_on,0,0,1,,,,,,,,0,,,88,0
156696,note_on,0,0,1,,,,,,,,0,,,92,0
156696,note_on,0,0,4,,,,,,,,3,,,72,0
156696,note_on,0,0,4,,,,,,,,3,,,64,0
156960,note_on,0,0,4,,,,,,,,3,,,51,97
156960,note_on,264,0,1,,,,,,,,0,,,95,96
156960,note_on,0,0,4,,,,,,,,3,,,47,97
156960,note_on,0,0,1,,,,,,,,0,,,83,96
156960,note_on,0,0,1,,,,,,,,0,,,87,96
156960,note_on,0,0,1,,,,,,,,0,,,90,96
156960,note_on,0,0,4,,,,,,,,3,,,54,97
156960,note_on,264,0,4,,,,,,,,3,,,59,97
157068,note_on,0,0,4,,,,,,,,3,,,54,0
157068,note_on,0,0,1,,,,,,,,0,,,87,0
157068,note_on,0,0,1,,,,,,,,0,,,90,0
157068,note_on,0,0,1,,,,,,,,0,,,95,0
157068,note_on,0,0,4,,,,,,,,3,,,59,0
157068,note_on,108,0,1,,,,,,,,0,,,83,0
157068,note_on,108,0,4,,,,,,,,3,,,47,0
157068,note_on,0,0,4,,,,,,,,3,,,51,0
157200,control_change,132,0,1,,,,,,,,0,64,127,,
157200,note_on,0,0,4,,,,,,,,3,,,52,98
157200,note_on,0,0,1,,,,,,,,0,,,100,96
157200,note_on,0,0,1,,,,,,,,0,,,96,96
157200,note_on,0,0,1,,,,,,,,0,,,88,96
157200,note_on,132,0,4,,,,,,,,3,,,40,98
157200,note_on,0,0,4,,,,,,,,3,,,44,98
157308,note_on,108,0,1,,,,,,,,0,,,88,0
157308,note_on,0,0,1,,,,,,,,0,,,96,0
157308,note_on,0,0,1,,,,,,,,0,,,100,0
157320,note_on,12,0,1,,,,,,,,0,,,95,94
157416,note_on,0,0,4,,,,,,,,3,,,40,0
157416,note_on,0,0,4,,,,,,,,3,,,44,0
157416,note_on,216,0,4,,,,,,,,3,,,52,0
157428,note_on,108,0,1,,,,,,,,0,,,95,0
157440,note_on,12,0,1,,,,,,,,0,,,92,92
157548,note_on,108,0,1,,,,,,,,0,,,92,0
157560,note_on,12,0,1,,,,,,,,0,,,88,89
157668,note_on,108,0,1,,,,,,,,0,,,88,0
157680,note_on,12,0,1,,,,,,,,0,,,88,87
157680,note_on,0,0,1,,,,,,,,0,,,84,87
157788,note_on,108,0,1,,,,,,,,0,,,84,0
157788,note_on,0,0,1,,,,,,,,0,,,88,0
157800,note_on,12,0,1,,,,,,,,0,,,83,85
157908,note_on,108,0,1,,,,,,,,0,,,83,0
157920,note_on,0,0,4,,,,,,,,3,,,56,87
157920,note_on,0,0,4,,,,,,,,3,,,52,87
157920,note_on,12,0,1,,,,,,,,0,,,80,82
157920,note_on,504,0,4,,,,,,,,3,,,64,87
158028,note_on,108,0,1,,,,,,,,0,,,80,0
158040,note_on,12,0,1,,,,,,,,0,,,76,80
158136,note_on,0,0,4,,,,,,,,3,,,64,0
158136,note_on,216,0,4,,,,,,,,3,,,52,0
158136,note_on,0,0,4,,,,,,,,3,,,56,0
158148,note_on,108,0,1,,,,,,,,0,,,76,0
158160,note_on,0,0,1,,,,,,,,0,,,72,78
158160,note_on,12,0,1,,,,,,,,0,,,76,78
158268,note_on,0,0,1,,,,,,,,0,,,76,0
158268,note_on,108,0,1,,,,,,,,0,,,72,0
158280,note_on,12,0,1,,,,,,,,0,,,71,75
158388,note_on,108,0,1,,,,,,,,0,,,71,0
158400,note_on,12,0,1,,,,,,,,0,,,68,73
158508,note_on,108,0,1,,,,,,,,0,,,68,0
158520,note_on,12,0,1,,,,,,,,0,,,64,71
158560,control_change,40,0,1,,,,,,,,0,64,0,,
158628,note_on,68,0,1,,,,,,,,0,,,64,0
158640,note_on,0,0,1,,,,,,,,0,,,87,68
158640,note_on,0,0,1,,,,,,,,0,,,83,68
158640,note_on,0,0,1,,,,,,,,0,,,92,68
158640,note_on,12,0,1,,,,,,,,0,,,95,68
158640,note_on,0,0,1,,,,,,,,0,,,81,68
158640,note_on,2952,0,2,,,,,,,,1,,,80,112
158653,control_change,13,0,2,,,,,,,,1,64,127,,
158748,note_on,95,0,2,,,,,,,,1,,,80,0
158760,note_on,12,0,2,,,,,,,,1,,,78,94
158856,note_on,0,0,1,,,,,,,,0,,,87,0
158856,note_on,0,0,1,,,,,,,,0,,,83,0
158856,note_on,0,0,1,,,,,,,,0,,,95,0
158856,note_on,216,0,1,,,,,,,,0,,,81,0
158856,note_on,0,0,1,,,,,,,,0,,,92,0
158868,note_on,108,0,2,,,,,,,,1,,,78,0
158880,note_on,12,0,2,,,,,,,,1,,,75,92
158988,note_on,108,0,2,,,,,,,,1,,,75,0
159000,note_on,0,0,1,,,,,,,,0,,,83,78
159000,note_on,0,0,1,,,,,,,,0,,,87,78
159000,note_on,0,0,1,,,,,,,,0,,,92,78
159000,note_on,0,0,1,,,,,,,,0,,,81,78
159000,note_on,144,0,1,,,,,,,,0,,,95,78
159000,note_on,12,0,2,,,,,,,,1,,,71,89
159108,note_on,108,0,1,,,,,,,,0,,,81,0
159108,note_on,108,0,2,,,,,,,,1,,,71,0
159108,note_on,0,0,1,,,,,,,,0,,,83,0
159108,note_on,0,0,1,,,,,,,,0,,,87,0
159108,note_on,0,0,1,,,,,,,,0,,,92,0
159108,note_on,0,0,1,,,,,,,,0,,,95,0
159120,note_on,12,0,2,,,,,,,,1,,,68,86
159120,note_on,0,0,1,,,,,,,,0,,,87,98
159120,note_on,0,0,1,,,,,,,,0,,,83,98
159120,note_on,0,0,1,,,,,,,,0,,,92,98
159120,note_on,12,0,1,,,,,,,,0,,,95,98
159120,note_on,0,0,1,,,,,,,,0,,,81,98
159228,note_on,108,0,2,,,,,,,,1,,,68,0
159240,note_on,12,0,2,,,,,,,,1,,,66,83
159336,note_on,216,0,1,,,,,,,,0,,,81,0
159336,note_on,0,0,1,,,,,,,,0,,,83,0
159336,note_on,0,0,1,,,,,,,,0,,,87,0
159336,note_on,0,0,1,,,,,,,,0,,,92,0
159336,note_on,0,0,1,,,,,,,,0,,,95,0
159348,note_on,108,0,2,,,,,,,,1,,,66,0
159360,note_on,12,0,2,,,,,,,,1,,,63,80
159360,note_on,0,0,1,,,,,,,,0,,,81,98
159360,note_on,0,0,1,,,,,,,,0,,,87,98
159360,note_on,0,0,1,,,,,,,,0,,,92,98
159360,note_on,24,0,1,,,,,,,,0,,,95,98
159360,note_on,0,0,1,,,,,,,,0,,,83,98
159468,note_on,108,0,2,,,,,,,,1,,,63,0
159480,note_on,12,0,2,,,,,,,,1,,,59,78
159576,note_on,0,0,1,,,,,,,,0,,,92,0
159576,note_on,216,0,1,,,,,,,,0,,,81,0
159576,note_on,0,0,1,,,,,,,,0,,,87,0
159576,note_on,0,0,1,,,,,,,,0,,,83,0
159576,note_on,0,0,1,,,,,,,,0,,,95,0
159588,note_on,108,0,2,,,,,,,,1,,,59,0
159600,note_on,0,0,1,,,,,,,,0,,,81,99
159600,note_on,0,0,1,,,,,,,,0,,,83,99
159600,note_on,0,0,1,,,,,,,,0,,,87,99
159600,note_on,0,0,1,,,,,,,,0,,,90,99
159600,note_on,24,0,1,,,,,,,,0,,,95,99
159600,note_on,12,0,2,,,,,,,,1,,,56,75
159708,note_on,108,0,2,,,,,,,,1,,,56,0
159720,note_on,12,0,2,,,,,,,,1,,,54,72
159816,note_on,0,0,1,,,,,,,,0,,,90,0
159816,note_on,0,0,1,,,,,,,,0,,,83,0
159816,note_on,216,0,1,,,,,,,,0,,,81,0
159816,note_on,0,0,1,,,,,,,,0,,,87,0
159816,note_on,0,0,1,,,,,,,,0,,,95,0
159828,note_on,108,0,2,,,,,,,,1,,,54,0
159840,note_on,0,0,1,,,,,,,,0,,,90,100
159840,note_on,0,0,1,,,,,,,,0,,,83,100
159840,note_on,0,0,1,,,,,,,,0,,,81,100
159840,note_on,12,0,2,,,,,,,,1,,,51,69
159840,note_on,24,0,1,,,,,,,,0,,,95,100
159840,note_on,0,0,1,,,,,,,,0,,,87,100
159948,note_on,108,0,2,,,,,,,,1,,,51,0
159960,note_on,12,0,2,,,,,,,,1,,,47,67
160026,control_change,66,0,2,,,,,,,,1,64,0,,
160056,note_on,0,0,1,,,,,,,,0,,,83,0
160056,note_on,0,0,1,,,,,,,,0,,,87,0
160056,note_on,0,0,1,,,,,,,,0,,,90,0
160056,note_on,0,0,1,,,,,,,,0,,,95,0
160056,note_on,216,0,1,,,,,,,,0,,,81,0
160068,note_on,42,0,2,,,,,,,,1,,,47,0
160080,note_on,0,0,1,,,,,,,,0,,,88,114
160080,note_on,0,0,4,,,,,,,,3,,,52,94
160080,note_on,0,0,1,,,,,,,,0,,,100,114
160080,control_change,24,0,1,,,,,,,,0,64,127,,
160080,note_on,0,0,1,,,,,,,,0,,,96,114
160080,note_on,0,0,4,,,,,,,,3,,,44,94
160080,note_on,1944,0,4,,,,,,,,3,,,40,94
160133,control_change,53,0,4,,,,,,,,3,64,127,,
160188,note_on,0,0,1,,,,,,,,0,,,100,0
160188,note_on,0,0,1,,,,,,,,0,,,96,0
160188,note_on,108,0,1,,,,,,,,0,,,88,0
160200,note_on,12,0,1,,,,,,,,0,,,95,97
160296,note_on,0,0,4,,,,,,,,3,,,40,0
160296,note_on,0,0,4,,,,,,,,3,,,44,0
160296,note_on,163,0,4,,,,,,,,3,,,52,0
160308,note_on,108,0,1,,,,,,,,0,,,95,0
160320,note_on,12,0,1,,,,,,,,0,,,92,94
160428,note_on,108,0,1,,,,,,,,0,,,92,0
160440,note_on,12,0,1,,,,,,,,0,,,88,91
160548,note_on,108,0,1,,,,,,,,0,,,88,0
160560,note_on,0,0,1,,,,,,,,0,,,84,88
160560,note_on,12,0,1,,,,,,,,0,,,88,88
160668,note_on,108,0,1,,,,,,,,0,,,84,0
160668,note_on,0,0,1,,,,,,,,0,,,88,0
160680,note_on,12,0,1,,,,,,,,0,,,83,86
160788,note_on,108,0,1,,,,,,,,0,,,83,0
160800,note_on,504,0,4,,,,,,,,3,,,64,94
160800,note_on,12,0,1,,,,,,,,0,,,80,83
160800,note_on,0,0,4,,,,,,,,3,,,56,94
160800,note_on,0,0,4,,,,,,,,3,,,52,94
160908,note_on,108,0,1,,,,,,,,0,,,80,0
160920,note_on,12,0,1,,,,,,,,0,,,76,80
161016,note_on,216,0,4,,,,,,,,3,,,52,0
161016,note_on,0,0,4,,,,,,,,3,,,64,0
161016,note_on,0,0,4,,,,,,,,3,,,56,0
161028,note_on,108,0,1,,,,,,,,0,,,76,0
161040,note_on,12,0,1,,,,,,,,0,,,76,78
161040,note_on,0,0,1,,,,,,,,0,,,72,78
161093,control_change,77,0,4,,,,,,,,3,64,0,,
161148,note_on,108,0,1,,,,,,,,0,,,72,0
161148,note_on,0,0,1,,,,,,,,0,,,76,0
161160,note_on,12,0,1,,,,,,,,0,,,71,75
161268,note_on,108,0,1,,,,,,,,0,,,71,0
161280,note_on,12,0,1,,,,,,,,0,,,68,72
161388,note_on,108,0,1,,,,,,,,0,,,68,0
161400,note_on,12,0,1,,,,,,,,0,,,64,70
161453,control_change,53,0,1,,,,,,,,0,64,0,,
161508,note_on,55,0,1,,,,,,,,0,,,64,0
161520,note_on,0,0,1,,,,,,,,0,,,87,99
161520,note_on,0,0,1,,,,,,,,0,,,92,99
161520,note_on,0,0,1,,,,,,,,0,,,81,99
161520,note_on,0,0,1,,,,,,,,0,,,83,99
161520,note_on,1452,0,2,,,,,,,,1,,,80,111
161520,note_on,12,0,1,,,,,,,,0,,,95,99
161533,control_change,13,0,2,,,,,,,,1,64,127,,
161628,note_on,95,0,2,,,,,,,,1,,,80,0
161640,note_on,12,0,2,,,,,,,,1,,,78,95
161736,note_on,0,0,1,,,,,,,,0,,,95,0
161736,note_on,216,0,1,,,,,,,,0,,,81,0
161736,note_on,0,0,1,,,,,,,,0,,,92,0
161736,note_on,0,0,1,,,,,,,,0,,,83,0
161736,note_on,0,0,1,,,,,,,,0,,,87,0
161748,note_on,108,0,2,,,,,,,,1,,,78,0
161760,note_on,12,0,2,,,,,,,,1,,,75,92
161868,note_on,108,0,2,,,,,,,,1,,,75,0
161880,note_on,0,0,1,,,,,,,,0,,,83,80
161880,note_on,12,0,2,,,,,,,,1,,,71,90
161880,note_on,0,0,1,,,,,,,,0,,,92,80
161880,note_on,144,0,1,,,,,,,,0,,,95,80
161880,note_on,0,0,1,,,,,,,,0,,,81,80
161880,note_on,0,0,1,,,,,,,,0,,,87,80
161988,note_on,108,0,1,,,,,,,,0,,,81,0
161988,note_on,108,0,2,,,,,,,,1,,,71,0
161988,note_on,0,0,1,,,,,,,,0,,,95,0
161988,note_on,0,0,1,,,,,,,,0,,,83,0
161988,note_on,0,0,1,,,,,,,,0,,,87,0
161988,note_on,0,0,1,,,,,,,,0,,,92,0
162000,note_on,0,0,1,,,,,,,,0,,,81,98
162000,note_on,0,0,1,,,,,,,,0,,,83,98
162000,note_on,0,0,1,,,,,,,,0,,,87,98
162000,note_on,12,0,1,,,,,,,,0,,,95,98
162000,note_on,0,0,1,,,,,,,,0,,,92,98
162000,note_on,12,0,2,,,,,,,,1,,,68,88
162108,note_on,108,0,2,,,,,,,,1,,,68,0
162120,note_on,12,0,2,,,,,,,,1,,,66,85
162216,note_on,0,0,1,,,,,,,,0,,,95,0
162216,note_on,0,0,1,,,,,,,,0,,,83,0
162216,note_on,0,0,1,,,,,,,,0,,,87,0
162216,note_on,0,0,1,,,,,,,,0,,,92,0
162216,note_on,216,0,1,,,,,,,,0,,,81,0
162228,note_on,108,0,2,,,,,,,,1,,,66,0
162240,note_on,0,0,1,,,,,,,,0,,,92,98
162240,note_on,0,0,1,,,,,,,,0,,,87,98
162240,note_on,0,0,1,,,,,,,,0,,,81,98
162240,note_on,0,0,1,,,,,,,,0,,,83,98
162240,note_on,12,0,2,,,,,,,,1,,,63,83
162240,note_on,24,0,1,,,,,,,,0,,,95,98
162348,note_on,108,0,2,,,,,,,,1,,,63,0
162360,note_on,12,0,2,,,,,,,,1,,,59,81
162456,note_on,0,0,1,,,,,,,,0,,,87,0
162456,note_on,0,0,1,,,,,,,,0,,,92,0
162456,note_on,0,0,1,,,,,,,,0,,,95,0
162456,note_on,216,0,1,,,,,,,,0,,,81,0
162456,note_on,0,0,1,,,,,,,,0,,,83,0
162468,note_on,108,0,2,,,,,,,,1,,,59,0
162480,note_on,24,0,1,,,,,,,,0,,,95,99
162480,note_on,0,0,1,,,,,,,,0,,,81,99
162480,note_on,0,0,1,,,,,,,,0,,,83,99
162480,note_on,0,0,1,,,,,,,,0,,,87,99
162480,note_on,0,0,1,,,,,,,,0,,,90,99
162480,note_on,12,0,2,,,,,,,,1,,,56,78
162588,note_on,108,0,2,,,,,,,,1,,,56,0
162600,note_on,12,0,2,,,,,,,,1,,,54,76
162696,note_on,0,0,1,,,,,,,,0,,,83,0
162696,note_on,0,0,1,,,,,,,,0,,,87,0
162696,note_on,0,0,1,,,,,,,,0,,,90,0
162696,note_on,216,0,1,,,,,,,,0,,,81,0
162696,note_on,0,0,1,,,,,,,,0,,,95,0
162708,note_on,108,0,2,,,,,,,,1,,,54,0
162720,note_on,12,0,2,,,,,,,,1,,,51,74
162720,note_on,0,0,1,,,,,,,,0,,,90,99
162720,note_on,0,0,1,,,,,,,,0,,,87,99
162720,note_on,0,0,1,,,,,,,,0,,,83,99
162720,note_on,24,0,1,,,,,,,,0,,,95,99
162720,note_on,0,0,1,,,,,,,,0,,,81,99
162828,note_on,108,0,2,,,,,,,,1,,,51,0
162840,note_on,12,0,2,,,,,,,,1,,,47,71
162936,note_on,0,0,1,,,,,,,,0,,,95,0
162936,note_on,216,0,1,,,,,,,,0,,,81,0
162936,note_on,0,0,1,,,,,,,,0,,,83,0
162936,note_on,0,0,1,,,,,,,,0,,,90,0
162936,note_on,0,0,1,,,,,,,,0,,,87,0
162948,note_on,108,0,2,,,,,,,,1,,,47,0
162960,note_on,0,0,1,,,,,,,,0,,,96,97
162960,note_on,0,0,4,,,,,,,,3,,,52,94
162960,note_on,0,0,1,,,,,,,,0,,,100,97
162960,note_on,0,0,4,,,,,,,,3,,,40,94
162960,control_change,24,0,1,,,,,,,,0,64,127,,
162960,control_change,0,0,4,,,,,,,,3,64,127,,
162960,note_on,0,0,1,,,,,,,,0,,,88,97
162960,note_on,1867,0,4,,,,,,,,3,,,44,94
162973,control_change,25,0,2,,,,,,,,1,64,0,,
163068,note_on,0,0,1,,,,,,,,0,,,96,0
163068,note_on,0,0,1,,,,,,,,0,,,100,0
163068,note_on,108,0,1,,,,,,,,0,,,88,0
163080,note_on,12,0,1,,,,,,,,0,,,95,100
163176,note_on,216,0,4,,,,,,,,3,,,40,0
163176,note_on,0,0,4,,,,,,,,3,,,44,0
163176,note_on,0,0,4,,,,,,,,3,,,52,0
163188,note_on,108,0,1,,,,,,,,0,,,95,0
163200,note_on,12,0,1,,,,,,,,0,,,92,90
163308,note_on,108,0,1,,,,,,,,0,,,92,0
163320,note_on,12,0,1,,,,,,,,0,,,88,88
163428,note_on,108,0,1,,,,,,,,0,,,88,0
163440,note_on,12,0,1,,,,,,,,0,,,88,85
163440,note_on,0,0,1,,,,,,,,0,,,84,85
163548,note_on,108,0,1,,,,,,,,0,,,84,0
163548,note_on,0,0,1,,,,,,,,0,,,88,0
163560,note_on,12,0,1,,,,,,,,0,,,83,83
163668,note_on,108,0,1,,,,,,,,0,,,83,0
163680,note_on,0,0,4,,,,,,,,3,,,52,94
163680,note_on,12,0,1,,,,,,,,0,,,80,81
163680,note_on,504,0,4,,,,,,,,3,,,64,94
163680,note_on,0,0,4,,,,,,,,3,,,56,94
163788,note_on,108,0,1,,,,,,,,0,,,80,0
163800,note_on,12,0,1,,,,,,,,0,,,76,78
163896,note_on,0,0,4,,,,,,,,3,,,56,0
163896,note_on,0,0,4,,,,,,,,3,,,64,0
163896,note_on,216,0,4,,,,,,,,3,,,52,0
163908,note_on,108,0,1,,,,,,,,0,,,76,0
163920,note_on,0,0,1,,,,,,,,0,,,72,76
163920,control_change,24,0,4,,,,,,,,3,64,0,,
163920,note_on,12,0,1,,,,,,,,0,,,76,76
164028,note_on,108,0,1,,,,,,,,0,,,72,0
164028,note_on,0,0,1,,,,,,,,0,,,76,0
164040,note_on,12,0,1,,,,,,,,0,,,71,74
164148,note_on,108,0,1,,,,,,,,0,,,71,0
164160,note_on,12,0,1,,,,,,,,0,,,68,79
164268,note_on,108,0,1,,,,,,,,0,,,68,0
164280,note_on,12,0,1,,,,,,,,0,,,64,87
164388,note_on,108,0,1,,,,,,,,0,,,64,0
164400,note_on,12,0,1,,,,,,,,0,,,76,96
164400,note_on,8664,0,3,,,,,,,,2,,,60,98
164400,note_on,0,0,1,,,,,,,,0,,,72,96
164440,control_change,40,0,3,,,,,,,,2,64,127,,
164508,note_on,68,0,3,,,,,,,,2,,,60,0
164508,note_on,108,0,1,,,,,,,,0,,,72,0
164508,note_on,0,0,1,,,,,,,,0,,,76,0
164520,note_on,12,0,1,,,,,,,,0,,,71,98
164520,note_on,12,0,3,,,,,,,,2,,,59,96
164628,note_on,108,0,3,,,,,,,,2,,,59,0
164628,note_on,108,0,1,,,,,,,,0,,,71,0
164640,note_on,12,0,3,,,,,,,,2,,,56,95
164640,note_on,12,0,1,,,,,,,,0,,,68,97
164748,note_on,108,0,3,,,,,,,,2,,,56,0
164748,note_on,108,0,1,,,,,,,,0,,,68,0
164760,note_on,12,0,3,,,,,,,,2,,,52,94
164760,note_on,12,0,1,,,,,,,,0,,,64,95
164868,note_on,108,0,1,,,,,,,,0,,,64,0
164868,note_on,108,0,3,,,,,,,,2,,,52,0
164880,note_on,12,0,3,,,,,,,,2,,,48,92
164880,note_on,0,0,1,,,,,,,,0,,,64,94
164880,note_on,12,0,1,,,,,,,,0,,,60,94
164988,note_on,108,0,3,,,,,,,,2,,,48,0
164988,note_on,0,0,1,,,,,,,,0,,,60,0
164988,note_on,108,0,1,,,,,,,,0,,,64,0
165000,note_on,12,0,3,,,,,,,,2,,,47,91
165000,note_on,12,0,1,,,,,,,,0,,,59,93
165108,note_on,108,0,1,,,,,,,,0,,,59,0
165108,note_on,108,0,3,,,,,,,,2,,,47,0
165120,note_on,12,0,1,,,,,,,,0,,,56,91
165120,note_on,12,0,3,,,,,,,,2,,,44,89
165228,note_on,108,0,3,,,,,,,,2,,,44,0
165228,note_on,108,0,1,,,,,,,,0,,,56,0
165240,note_on,12,0,1,,,,,,,,0,,,52,90
165240,note_on,12,0,3,,,,,,,,2,,,40,88
165348,note_on,108,0,1,,,,,,,,0,,,52,0
165348,note_on,108,0,3,,,,,,,,2,,,40,0
165360,note_on,12,0,3,,,,,,,,2,,,44,87
165360,note_on,12,0,1,,,,,,,,0,,,56,88
165468,note_on,108,0,1,,,,,,,,0,,,56,0
165468,note_on,108,0,3,,,,,,,,2,,,44,0
165480,note_on,12,0,1,,,,,,,,0,,,59,87
165480,note_on,12,0,3,,,,,,,,2,,,47,85
165588,note_on,108,0,1,,,,,,,,0,,,59,0
165588,note_on,108,0,3,,,,,,,,2,,,47,0
165600,note_on,12,0,3,,,,,,,,2,,,48,84
165600,note_on,12,0,1,,,,,,,,0,,,61,86
165708,note_on,108,0,1,,,,,,,,0,,,61,0
165708,note_on,108,0,3,,,,,,,,2,,,48,0
165720,note_on,12,0,3,,,,,,,,2,,,52,83
165720,note_on,12,0,1,,,,,,,,0,,,64,84
165828,note_on,108,0,3,,,,,,,,2,,,52,0
165828,note_on,108,0,1,,,,,,,,0,,,64,0
165840,note_on,12,0,3,,,,,,,,2,,,55,84
165840,note_on,12,0,1,,,,,,,,0,,,68,83
165948,note_on,108,0,1,,,,,,,,0,,,68,0
165948,note_on,108,0,3,,,,,,,,2,,,55,0
165960,note_on,12,0,3,,,,,,,,2,,,59,86
165960,note_on,12,0,1,,,,,,,,0,,,71,88
166068,note_on,108,0,3,,,,,,,,2,,,59,0
166068,note_on,108,0,1,,,,,,,,0,,,71,0
166080,note_on,12,0,3,,,,,,,,2,,,60,88
166080,note_on,12,0,1,,,,,,,,0,,,72,90
166188,note_on,108,0,1,,,,,,,,0,,,72,0
166188,note_on,108,0,3,,,,,,,,2,,,60,0
166200,note_on,12,0,1,,,,,,,,0,,,76,92
166200,note_on,12,0,3,,,,,,,,2,,,64,90
166308,note_on,108,0,1,,,,,,,,0,,,76,0
166308,note_on,108,0,3,,,,,,,,2,,,64,0
166320,note_on,12,0,3,,,,,,,,2,,,60,92
166320,note_on,12,0,1,,,,,,,,0,,,80,94
166428,note_on,108,0,1,,,,,,,,0,,,80,0
166428,note_on,108,0,3,,,,,,,,2,,,60,0
166440,note_on,12,0,3,,,,,,,,2,,,59,94
166440,note_on,12,0,1,,,,,,,,0,,,83,96
166548,note_on,108,0,3,,,,,,,,2,,,59,0
166548,note_on,108,0,1,,,,,,,,0,,,83,0
166560,note_on,12,0,3,,,,,,,,2,,,55,96
166560,note_on,12,0,1,,,,,,,,0,,,84,98
166668,note_on,108,0,3,,,,,,,,2,,,55,0
166668,note_on,108,0,1,,,,,,,,0,,,84,0
166680,note_on,12,0,1,,,,,,,,0,,,88,100
166680,note_on,12,0,3,,,,,,,,2,,,52,97
166788,note_on,108,0,3,,,,,,,,2,,,52,0
166788,note_on,108,0,1,,,,,,,,0,,,88,0
166800,note_on,12,0,3,,,,,,,,2,,,48,99
166800,note_on,12,0,1,,,,,,,,0,,,92,102
166908,note_on,108,0,1,,,,,,,,0,,,92,0
166908,note_on,108,0,3,,,,,,,,2,,,48,0
166920,note_on,12,0,1,,,,,,,,0,,,95,104
166920,note_on,12,0,3,,,,,,,,2,,,47,101
167028,note_on,108,0,1,,,,,,,,0,,,95,0
167028,note_on,108,0,3,,,,,,,,2,,,47,0
167040,note_on,12,0,3,,,,,,,,2,,,43,103
167040,note_on,12,0,1,,,,,,,,0,,,96,106
167148,note_on,108,0,1,,,,,,,,0,,,96,0
167148,note_on,108,0,3,,,,,,,,2,,,43,0
167160,note_on,12,0,3,,,,,,,,2,,,40,105
167160,note_on,12,0,1,,,,,,,,0,,,100,108
167268,note_on,108,0,1,,,,,,,,0,,,100,0
167268,note_on,108,0,3,,,,,,,,2,,,40,0
167280,note_on,0,0,1,,,,,,,,0,,,88,110
167280,note_on,0,0,3,,,,,,,,2,,,52,106
167280,note_on,12,0,1,,,,,,,,0,,,100,110
167280,note_on,0,0,3,,,,,,,,2,,,40,106
167280,control_change,12,0,3,,,,,,,,2,64,0,,
167340,control_change,60,0,1,,,,,,,,0,64,0,,
167496,note_on,0,0,3,,,,,,,,2,,,52,0
167496,note_on,156,0,1,,,,,,,,0,,,88,0
167496,end_of_track,0,1,1,,,,,,,,,,,,
167496,note_on,216,0,3,,,,,,,,2,,,40,0
167496,note_on,0,0,1,,,,,,,,0,,,100,0
168000,note_on,0,0,3,,,,,,,,2,,,52,109
168000,note_on,0,0,3,,,,,,,,2,,,64,109
168000,note_on,0,0,3,,,,,,,,2,,,61,109
168000,note_on,0,0,4,,,,,,,,3,,,40,106
168000,note_on,0,0,4,,,,,,,,3,,,44,106
168000,note_on,0,0,4,,,,,,,,3,,,49,106
168000,note_on,4080,0,4,,,,,,,,3,,,37,106
168000,note_on,504,0,3,,,,,,,,2,,,56,109
168648,note_on,0,0,3,,,,,,,,2,,,56,0
168648,note_on,0,0,3,,,,,,,,2,,,64,0
168648,note_on,648,0,3,,,,,,,,2,,,52,0
168648,note_on,648,0,4,,,,,,,,3,,,44,0
168648,note_on,0,0,4,,,,,,,,3,,,37,0
168648,note_on,0,0,4,,,,,,,,3,,,40,0
168648,note_on,0,0,3,,,,,,,,2,,,61,0
168648,note_on,0,0,4,,,,,,,,3,,,49,0
168720,note_on,0,0,4,,,,,,,,3,,,37,106
168720,note_on,72,0,3,,,,,,,,2,,,57,109
168720,note_on,72,0,4,,,,,,,,3,,,40,106
168720,note_on,0,0,4,,,,,,,,3,,,33,106
168720,note_on,0,0,4,,,,,,,,3,,,45,106
168720,note_on,0,0,3,,,,,,,,2,,,52,109
168720,note_on,0,0,3,,,,,,,,2,,,61,109
168720,note_on,0,0,3,,,,,,,,2,,,64,109
169368,note_on,648,0,4,,,,,,,,3,,,37,0
169368,note_on,648,0,3,,,,,,,,2,,,61,0
169368,note_on,0,0,4,,,,,,,,3,,,33,0
169368,note_on,0,0,3,,,,,,,,2,,,64,0
169368,note_on,0,0,4,,,,,,,,3,,,40,0
169368,note_on,0,0,3,,,,,,,,2,,,52,0
169368,note_on,0,0,4,,,,,,,,3,,,45,0
169368,note_on,0,0,3,,,,,,,,2,,,57,0
169440,note_on,72,0,4,,,,,,,,3,,,45,107
169440,note_on,0,0,3,,,,,,,,2,,,53,109
169440,note_on,0,0,3,,,,,,,,2,,,57,109
169440,note_on,0,0,3,,,,,,,,2,,,62,109
169440,note_on,72,0,3,,,,,,,,2,,,65,109
169440,note_on,0,0,4,,,,,,,,3,,,38,107
169440,note_on,0,0,4,,,,,,,,3,,,50,107
169440,note_on,0,0,4,,,,,,,,3,,,41,107
170088,note_on,0,0,4,,,,,,,,3,,,45,0
170088,note_on,648,0,4,,,,,,,,3,,,50,0
170088,note_on,648,0,3,,,,,,,,2,,,57,0
170088,note_on,0,0,3,,,,,,,,2,,,65,0
170088,note_on,0,0,4,,,,,,,,3,,,38,0
170088,note_on,0,0,3,,,,,,,,2,,,53,0
170088,note_on,0,0,4,,,,,,,,3,,,41,0
170088,note_on,0,0,3,,,,,,,,2,,,62,0
170160,note_on,0,0,4,,,,,,,,3,,,46,108
170160,note_on,0,0,3,,,,,,,,2,,,58,109
170160,note_on,0,0,3,,,,,,,,2,,,50,109
170160,note_on,0,0,4,,,,,,,,3,,,41,108
170160,note_on,0,0,4,,,,,,,,3,,,38,108
170160,note_on,72,0,3,,,,,,,,2,,,53,109
170160,note_on,72,0,4,,,,,,,,3,,,34,108
170160,note_on,0,0,3,,,,,,,,2,,,62,109
170808,note_on,0,0,4,,,,,,,,3,,,38,0
170808,note_on,0,0,3,,,,,,,,2,,,53,0
170808,note_on,0,0,4,,,,,,,,3,,,41,0
170808,note_on,0,0,3,,,,,,,,2,,,50,0
170808,note_on,0,0,4,,,,,,,,3,,,34,0
170808,note_on,648,0,4,,,,,,,,3,,,46,0
170808,note_on,0,0,3,,,,,,,,2,,,62,0
170808,note_on,648,0,3,,,,,,,,2,,,58,0
170880,note_on,72,0,3,,,,,,,,2,,,55,109
170880,note_on,0,0,3,,,,,,,,2,,,50,109
170880,note_on,0,0,3,,,,,,,,2,,,62,109
170880,note_on,0,0,3,,,,,,,,2,,,59,109
170880,note_on,72,0,4,,,,,,,,3,,,31,91
170920,note_on,40,0,4,,,,,,,,3,,,38,97
170960,note_on,40,0,4,,,,,,,,3,,,43,103
171000,note_on,40,0,4,,,,,,,,3,,,47,112
171528,note_on,0,0,3,,,,,,,,2,,,62,0
171528,note_on,0,0,3,,,,,,,,2,,,59,0
171528,note_on,0,0,3,,,,,,,,2,,,55,0
171528,note_on,648,0,3,,,,,,,,2,,,50,0
171552,note_on,0,0,4,,,,,,,,3,,,38,0
171552,note_on,552,0,4,,,,,,,,3,,,47,0
171552,note_on,0,0,4,,,,,,,,3,,,31,0
171552,note_on,0,0,4,,,,,,,,3,,,43,0
171600,note_on,48,0,4,,,,,,,,3,,,36,104
171600,note_on,0,0,4,,,,,,,,3,,,43,104
171600,note_on,0,0,4,,,,,,,,3,,,48,104
171600,note_on,0,0,4,,,,,,,,3,,,40,104
171600,note_on,72,0,3,,,,,,,,2,,,55,109
171600,note_on,0,0,3,,,,,,,,2,,,52,109
171600,note_on,0,0,3,,,,,,,,2,,,60,109
171600,note_on,0,0,3,,,,,,,,2,,,64,109
172248,note_on,0,0,4,,,,,,,,3,,,40,0
172248,note_on,0,0,4,,,,,,,,3,,,36,0
172248,note_on,0,0,4,,,,,,,,3,,,43,0
172248,note_on,0,0,3,,,,,,,,2,,,52,0
172248,note_on,648,0,4,,,,,,,,3,,,48,0
172248,note_on,648,0,3,,,,,,,,2,,,60,0
172248,note_on,0,0,3,,,,,,,,2,,,55,0
172248,note_on,0,0,3,,,,,,,,2,,,64,0
172320,note_on,0,0,3,,,,,,,,2,,,57,109
172320,note_on,0,0,4,,,,,,,,3,,,45,106
172320,note_on,0,0,4,,,,,,,,3,,,40,106
172320,note_on,0,0,4,,,,,,,,3,,,36,106
172320,note_on,0,0,3,,,,,,,,2,,,60,109
172320,note_on,72,0,3,,,,,,,,2,,,52,109
172320,note_on,0,0,3,,,,,,,,2,,,48,109
172320,note_on,72,0,4,,,,,,,,3,,,33,106
172968,note_on,648,0,3,,,,,,,,2,,,48,0
172968,note_on,648,0,4,,,,,,,,3,,,40,0
172968,note_on,0,0,4,,,,,,,,3,,,33,0
172968,note_on,0,0,4,,,,,,,,3,,,45,0
172968,note_on,0,0,3,,,,,,,,2,,,52,0
172968,note_on,0,0,3,,,,,,,,2,,,57,0
172968,note_on,0,0,3,,,,,,,,2,,,60,0
172968,note_on,0,0,4,,,,,,,,3,,,36,0
173040,note_on,72,0,3,,,,,,,,2,,,45,114
173040,note_on,0,0,3,,,,,,,,2,,,42,114
173040,note_on,0,0,3,,,,,,,,2,,,40,114
173040,note_on,0,0,2,,,,,,,,1,,,54,116
173040,note_on,72,0,4,,,,,,,,3,,,35,103
173040,note_on,10067,0,2,,,,,,,,1,,,59,116
173040,note_on,0,0,2,,,,,,,,1,,,47,116
173040,note_on,0,0,2,,,,,,,,1,,,52,116
173085,set_tempo,27265,1,0,,,,,,464972,,,,,,
173085,end_of_track,0,1,0,,,,,,,,,,,,
173148,note_on,108,0,4,,,,,,,,3,,,35,0
173256,note_on,216,0,3,,,,,,,,2,,,42,0
173256,note_on,0,0,3,,,,,,,,2,,,40,0
173256,note_on,0,0,3,,,,,,,,2,,,45,0
173280,note_on,132,0,4,,,,,,,,3,,,36,118
173388,note_on,108,0,4,,,,,,,,3,,,36,0
173520,note_on,132,0,4,,,,,,,,3,,,38,118
173628,note_on,108,0,4,,,,,,,,3,,,38,0
173760,note_on,132,0,4,,,,,,,,3,,,38,118
173868,note_on,108,0,4,,,,,,,,3,,,38,0
174000,note_on,132,0,4,,,,,,,,3,,,36,118
174108,note_on,108,0,4,,,,,,,,3,,,36,0
174240,note_on,132,0,4,,,,,,,,3,,,35,118
174336,note_on,1296,0,2,,,,,,,,1,,,47,0
174336,note_on,0,0,2,,,,,,,,1,,,59,0
174336,note_on,0,0,2,,,,,,,,1,,,54,0
174336,note_on,0,0,2,,,,,,,,1,,,52,0
174348,note_on,108,0,4,,,,,,,,3,,,35,0
174480,note_on,0,0,3,,,,,,,,2,,,39,117
174480,note_on,0,0,3,,,,,,,,2,,,42,117
174480,note_on,0,0,2,,,,,,,,1,,,54,116
174480,note_on,1224,0,3,,,,,,,,2,,,45,117
174480,note_on,0,0,2,,,,,,,,1,,,51,116
174480,note_on,0,0,2,,,,,,,,1,,,47,116
174480,note_on,132,0,4,,,,,,,,3,,,35,118
174480,note_on,144,0,2,,,,,,,,1,,,59,116
174588,note_on,108,0,4,,,,,,,,3,,,35,0
174696,end_of_track,0,1,3,,,,,,,,,,,,
174696,note_on,0,0,3,,,,,,,,2,,,39,0
174696,note_on,216,0,3,,,,,,,,2,,,42,0
174696,note_on,0,0,3,,,,,,,,2,,,45,0
174720,note_on,132,0,4,,,,,,,,3,,,33,118
174828,note_on,108,0,4,,,,,,,,3,,,33,0
174960,note_on,132,0,4,,,,,,,,3,,,31,118
175068,note_on,108,0,4,,,,,,,,3,,,31,0
175200,note_on,132,0,4,,,,,,,,3,,,31,118
175308,note_on,108,0,4,,,,,,,,3,,,31,0
175440,note_on,132,0,4,,,,,,,,3,,,30,118
175548,note_on,108,0,4,,,,,,,,3,,,30,0
175680,note_on,132,0,4,,,,,,,,3,,,28,118
175776,note_on,0,0,2,,,,,,,,1,,,54,0
175776,note_on,0,0,2,,,,,,,,1,,,51,0
175776,note_on,0,0,2,,,,,,,,1,,,59,0
175776,note_on,1296,0,2,,,,,,,,1,,,47,0
175788,note_on,108,0,4,,,,,,,,3,,,28,0
175920,note_on,132,0,4,,,,,,,,3,,,28,118
175920,note_on,0,0,4,,,,,,,,3,,,35,118
175920,note_on,0,0,4,,,,,,,,3,,,32,118
175920,note_on,0,0,2,,,,,,,,1,,,56,116
175920,note_on,0,0,2,,,,,,,,1,,,59,116
175920,note_on,0,0,4,,,,,,,,3,,,40,118
175920,note_on,0,0,2,,,,,,,,1,,,47,116
175920,control_change,144,0,2,,,,,,,,1,64,127,,
175920,note_on,0,0,2,,,,,,,,1,,,52,116
176010,control_change,90,0,4,,,,,,,,3,64,127,,
176880,control_change,960,0,2,,,,,,,,1,64,0,,
177216,note_on,0,0,4,,,,,,,,3,,,40,0
177216,note_on,0,0,4,,,,,,,,3,,,32,0
177216,note_on,0,0,2,,,,,,,,1,,,52,0
177216,note_on,0,0,2,,,,,,,,1,,,56,0
177216,note_on,0,0,2,,,,,,,,1,,,59,0
177216,note_on,336,0,2,,,,,,,,1,,,47,0
177216,note_on,1206,0,4,,,,,,,,3,,,35,0
177216,note_on,0,0,4,,,,,,,,3,,,28,0
178530,control_change,1314,0,2,,,,,,,,1,64,127,,
178590,control_change,1374,0,4,,,,,,,,3,64,0,,
178590,end_of_track,0,1,4,,,,,,,,,,,,
179490,control_change,960,0,2,,,,,,,,1,64,0,,
179490,end_of_track,0,1,2,,,,,,,,,,,,
