tick,type,numerator,denominator,clocks_per_click,notated_32nd_notes_per_beat,time,meta,track,data,tempo,control,value,channel,program,key,note,velocity
0,control_change,,,,,0,0,1,,,0,0,0,,,,
0,key_signature,,,,,0,1,5,,,,,,,C,,
0,key_signature,,,,,0,1,6,,,,,,,C,,
0,key_signature,,,,,0,1,7,,,,,,,C,,
0,key_signature,,,,,0,1,8,,,,,,,C,,
0,key_signature,,,,,0,1,9,,,,,,,C,,
0,key_signature,,,,,0,1,10,,,,,,,C,,
0,track_name,,,,,0,1,2,,,,,,,,,
0,note_on,,,,,0,0,2,,,,,1,,,41,127
0,program_change,,,,,0,0,1,,,,,0,0,,,
0,program_change,,,,,0,0,2,,,,,1,0,,,
0,program_change,,,,,0,0,3,,,,,2,0,,,
0,sequencer_specific,,,,,0,1,0,"(0, 0, 65)",,,,,,,,
0,set_tempo,,,,,0,1,0,,500000,,,,,,,
0,time_signature,3,8,96,8,0,1,0,,,,,,,,,
0,track_name,,,,,0,1,1,,,,,,,,,
0,key_signature,,,,,0,1,4,,,,,,,C,,
0,key_signature,,,,,0,1,3,,,,,,,C,,
0,track_name,,,,,0,1,3,,,,,,,,,
0,key_signature,,,,,0,1,1,,,,,,,Bb,,
0,key_signature,,,,,0,1,2,,,,,,,Bb,,
0,control_change,,,,,0,0,3,,,91,57,2,,,,
0,control_change,,,,,0,0,3,,,0,0,2,,,,
0,control_change,,,,,0,0,2,,,91,59,1,,,,
0,control_change,,,,,0,0,1,,,91,54,0,,,,
0,end_of_track,,,,,0,1,4,,,,,,,,,
0,control_change,,,,,0,0,2,,,0,0,1,,,,
0,end_of_track,,,,,0,1,6,,,,,,,,,
0,end_of_track,,,,,0,1,7,,,,,,,,,
0,end_of_track,,,,,0,1,8,,,,,,,,,
0,end_of_track,,,,,0,1,9,,,,,,,,,
0,end_of_track,,,,,0,1,10,,,,,,,,,
0,end_of_track,,,,,0,1,5,,,,,,,,,
64,note_off,,,,,64,0,2,,,,,1,,,41,81
96,note_on,,,,,32,0,2,,,,,1,,,46,127
160,note_off,,,,,64,0,2,,,,,1,,,46,81
192,note_on,,,,,192,0,1,,,,,0,,,53,125
192,note_on,,,,,32,0,2,,,,,1,,,41,127
256,note_off,,,,,64,0,2,,,,,1,,,41,81
288,note_on,,,,,32,0,2,,,,,1,,,46,127
320,note_off,,,,,128,0,1,,,,,0,,,53,80
352,note_off,,,,,64,0,2,,,,,1,,,46,81
384,note_on,,,,,64,0,1,,,,,0,,,58,125
384,note_on,,,,,32,0,2,,,,,1,,,41,127
448,note_off,,,,,64,0,2,,,,,1,,,41,81
480,note_on,,,,,32,0,2,,,,,1,,,46,127
512,note_off,,,,,128,0,1,,,,,0,,,58,80
544,note_off,,,,,64,0,2,,,,,1,,,46,81
576,note_on,,,,,32,0,2,,,,,1,,,41,127
576,note_on,,,,,64,0,1,,,,,0,,,65,125
640,note_off,,,,,64,0,2,,,,,1,,,41,81
672,note_on,,,,,32,0,2,,,,,1,,,46,127
736,note_off,,,,,64,0,2,,,,,1,,,46,81
768,note_on,,,,,32,0,2,,,,,1,,,41,127
832,note_off,,,,,256,0,1,,,,,0,,,65,80
832,note_off,,,,,64,0,2,,,,,1,,,41,81
864,note_on,,,,,32,0,2,,,,,1,,,46,127
928,note_off,,,,,64,0,2,,,,,1,,,46,81
960,note_on,,,,,32,0,2,,,,,1,,,41,127
960,note_on,,,,,128,0,1,,,,,0,,,62,125
1024,note_off,,,,,64,0,2,,,,,1,,,41,81
1056,note_on,,,,,32,0,2,,,,,1,,,46,127
1088,note_off,,,,,128,0,1,,,,,0,,,62,80
1120,note_off,,,,,64,0,2,,,,,1,,,46,81
1152,note_on,,,,,64,0,1,,,,,0,,,60,125
1152,note_on,,,,,32,0,2,,,,,1,,,41,127
1216,note_off,,,,,64,0,2,,,,,1,,,41,81
1216,note_off,,,,,64,0,1,,,,,0,,,60,80
1248,note_on,,,,,32,0,1,,,,,0,,,62,125
1248,note_on,,,,,32,0,2,,,,,1,,,46,127
1312,note_off,,,,,64,0,2,,,,,1,,,46,81
1312,note_off,,,,,64,0,1,,,,,0,,,62,80
1344,note_on,,,,,32,0,1,,,,,0,,,60,125
1344,note_on,,,,,32,0,2,,,,,1,,,41,127
1408,note_off,,,,,64,0,2,,,,,1,,,41,81
1440,note_on,,,,,32,0,2,,,,,1,,,46,127
1472,note_off,,,,,128,0,1,,,,,0,,,60,80
1504,note_off,,,,,64,0,2,,,,,1,,,46,81
1536,note_on,,,,,32,0,2,,,,,1,,,41,127
1536,note_on,,,,,64,0,1,,,,,0,,,58,125
1600,note_off,,,,,64,0,2,,,,,1,,,41,81
1632,note_on,,,,,32,0,2,,,,,1,,,46,127
1664,note_off,,,,,128,0,1,,,,,0,,,58,80
1696,note_off,,,,,64,0,2,,,,,1,,,46,81
1728,note_on,,,,,64,0,1,,,,,0,,,57,125
1728,note_on,,,,,32,0,2,,,,,1,,,41,127
1792,note_off,,,,,64,0,2,,,,,1,,,41,81
1792,note_off,,,,,64,0,1,,,,,0,,,57,80
1824,note_on,,,,,32,0,1,,,,,0,,,58,125
1824,note_on,,,,,32,0,2,,,,,1,,,46,127
1888,note_off,,,,,64,0,2,,,,,1,,,46,81
1888,note_off,,,,,64,0,1,,,,,0,,,58,80
1920,note_on,,,,,32,0,1,,,,,0,,,57,125
1920,note_on,,,,,32,0,2,,,,,1,,,41,127
1984,note_off,,,,,64,0,2,,,,,1,,,41,81
2016,note_on,,,,,32,0,2,,,,,1,,,46,127
2048,note_off,,,,,128,0,1,,,,,0,,,57,80
2080,note_off,,,,,64,0,2,,,,,1,,,46,81
2112,note_on,,,,,32,0,2,,,,,1,,,41,127
2112,note_on,,,,,64,0,1,,,,,0,,,55,125
2176,note_off,,,,,64,0,2,,,,,1,,,41,81
2208,note_on,,,,,32,0,2,,,,,1,,,46,127
2240,note_off,,,,,128,0,1,,,,,0,,,55,80
2272,note_off,,,,,64,0,2,,,,,1,,,46,81
2304,note_on,,,,,64,0,1,,,,,0,,,54,125
2304,note_on,,,,,32,0,2,,,,,1,,,41,127
2368,note_off,,,,,64,0,2,,,,,1,,,41,81
2400,note_on,,,,,32,0,2,,,,,1,,,46,127
2432,note_off,,,,,128,0,1,,,,,0,,,54,80
2464,note_off,,,,,64,0,2,,,,,1,,,46,81
2496,note_on,,,,,32,0,2,,,,,1,,,41,127
2496,note_on,,,,,64,0,1,,,,,0,,,57,125
2560,note_off,,,,,64,0,2,,,,,1,,,41,81
2592,note_on,,,,,32,0,2,,,,,1,,,46,127
2624,note_off,,,,,128,0,1,,,,,0,,,57,80
2656,note_off,,,,,64,0,2,,,,,1,,,46,81
2688,note_on,,,,,32,0,2,,,,,1,,,41,127
2688,note_on,,,,,64,0,1,,,,,0,,,55,125
2752,note_off,,,,,64,0,2,,,,,1,,,41,81
2784,note_on,,,,,32,0,2,,,,,1,,,46,127
2816,note_off,,,,,128,0,1,,,,,0,,,55,80
2848,note_off,,,,,64,0,2,,,,,1,,,46,81
2880,note_on,,,,,32,0,2,,,,,1,,,41,127
2880,note_on,,,,,64,0,1,,,,,0,,,52,125
2944,note_off,,,,,64,0,2,,,,,1,,,41,81
2976,note_on,,,,,32,0,2,,,,,1,,,46,127
3008,note_off,,,,,128,0,1,,,,,0,,,52,80
3040,note_off,,,,,64,0,2,,,,,1,,,46,81
3072,note_on,,,,,32,0,2,,,,,1,,,41,127
3072,note_on,,,,,64,0,1,,,,,0,,,55,125
3136,note_off,,,,,64,0,2,,,,,1,,,41,81
3168,note_on,,,,,32,0,2,,,,,1,,,46,127
3200,note_off,,,,,128,0,1,,,,,0,,,55,80
3232,note_off,,,,,64,0,2,,,,,1,,,46,81
3264,note_on,,,,,32,0,2,,,,,1,,,41,127
3264,note_on,,,,,64,0,1,,,,,0,,,53,125
3328,note_off,,,,,64,0,2,,,,,1,,,41,81
3360,note_on,,,,,32,0,2,,,,,1,,,46,127
3392,note_off,,,,,128,0,1,,,,,0,,,53,80
3424,note_off,,,,,64,0,2,,,,,1,,,46,81
3456,note_on,,,,,32,0,2,,,,,1,,,41,127
3520,note_off,,,,,64,0,2,,,,,1,,,41,81
3552,note_on,,,,,32,0,2,,,,,1,,,46,127
3616,note_off,,,,,64,0,2,,,,,1,,,46,81
3648,note_on,,,,,256,0,1,,,,,0,,,50,125
3648,note_on,,,,,32,0,2,,,,,1,,,41,127
3712,note_off,,,,,64,0,2,,,,,1,,,41,81
3744,note_on,,,,,32,0,2,,,,,1,,,46,127
3776,note_off,,,,,128,0,1,,,,,0,,,50,80
3808,note_off,,,,,64,0,2,,,,,1,,,46,81
3840,note_on,,,,,64,0,1,,,,,0,,,51,125
3840,note_on,,,,,32,0,2,,,,,1,,,41,127
3904,note_off,,,,,64,0,2,,,,,1,,,41,81
3936,note_on,,,,,32,0,2,,,,,1,,,46,127
3968,note_off,,,,,128,0,1,,,,,0,,,51,80
4000,note_off,,,,,64,0,2,,,,,1,,,46,81
4032,note_on,,,,,64,0,1,,,,,0,,,52,125
4032,note_on,,,,,32,0,2,,,,,1,,,41,127
4096,note_off,,,,,64,0,2,,,,,1,,,41,81
4128,note_on,,,,,32,0,2,,,,,1,,,46,127
4160,note_off,,,,,128,0,1,,,,,0,,,52,80
4192,note_off,,,,,64,0,2,,,,,1,,,46,81
4224,note_on,,,,,32,0,2,,,,,1,,,41,127
4224,note_on,,,,,64,0,1,,,,,0,,,55,125
4288,note_off,,,,,64,0,2,,,,,1,,,41,81
4320,note_on,,,,,32,0,2,,,,,1,,,46,127
4352,note_off,,,,,128,0,1,,,,,0,,,55,80
4384,note_off,,,,,64,0,2,,,,,1,,,46,81
4416,note_on,,,,,64,0,1,,,,,0,,,53,125
4416,note_on,,,,,32,0,2,,,,,1,,,41,127
4480,note_off,,,,,64,0,2,,,,,1,,,41,81
4512,note_on,,,,,32,0,2,,,,,1,,,46,127
4544,note_off,,,,,128,0,1,,,,,0,,,53,80
4576,note_off,,,,,64,0,2,,,,,1,,,46,81
4608,note_on,,,,,32,0,2,,,,,1,,,41,127
4672,note_off,,,,,64,0,2,,,,,1,,,41,81
4704,note_on,,,,,32,0,2,,,,,1,,,46,127
4768,note_off,,,,,64,0,2,,,,,1,,,46,81
4800,note_on,,,,,32,0,2,,,,,1,,,41,127
4800,note_on,,,,,256,0,1,,,,,0,,,65,125
4864,note_off,,,,,64,0,2,,,,,1,,,41,81
4896,note_on,,,,,32,0,2,,,,,1,,,46,127
4928,note_off,,,,,128,0,1,,,,,0,,,65,80
4960,note_off,,,,,64,0,2,,,,,1,,,46,81
4992,note_on,,,,,32,0,2,,,,,1,,,41,127
4992,note_on,,,,,64,0,1,,,,,0,,,70,125
5056,note_off,,,,,64,0,2,,,,,1,,,41,81
5088,note_on,,,,,32,0,2,,,,,1,,,46,127
5120,note_off,,,,,128,0,1,,,,,0,,,70,80
5152,note_off,,,,,64,0,2,,,,,1,,,46,81
5184,note_on,,,,,0,0,1,,,,,0,,,70,125
5184,note_on,,,,,32,0,2,,,,,1,,,41,127
5184,note_on,,,,,64,0,1,,,,,0,,,65,125
5184,note_on,,,,,0,0,1,,,,,0,,,77,125
5248,note_off,,,,,64,0,2,,,,,1,,,41,81
5280,note_on,,,,,32,0,2,,,,,1,,,46,127
5344,note_off,,,,,64,0,2,,,,,1,,,46,81
5376,note_on,,,,,32,0,2,,,,,1,,,41,127
5440,note_off,,,,,64,0,2,,,,,1,,,41,81
5440,note_off,,,,,256,0,1,,,,,0,,,77,80
5472,note_on,,,,,32,0,2,,,,,1,,,46,127
5536,note_off,,,,,64,0,2,,,,,1,,,46,81
5568,note_off,,,,,128,0,1,,,,,0,,,65,80
5568,note_off,,,,,0,0,1,,,,,0,,,70,80
5568,note_on,,,,,0,0,1,,,,,0,,,74,125
5568,note_on,,,,,32,0,2,,,,,1,,,41,127
5632,note_off,,,,,64,0,2,,,,,1,,,41,81
5664,note_on,,,,,32,0,2,,,,,1,,,46,127
5696,note_off,,,,,128,0,1,,,,,0,,,74,80
5728,note_off,,,,,64,0,2,,,,,1,,,46,81
5760,note_on,,,,,64,0,1,,,,,0,,,72,125
5760,note_on,,,,,32,0,2,,,,,1,,,41,127
5824,note_off,,,,,64,0,1,,,,,0,,,72,80
5824,note_off,,,,,64,0,2,,,,,1,,,41,81
5856,note_on,,,,,32,0,1,,,,,0,,,74,125
5856,note_on,,,,,32,0,2,,,,,1,,,46,127
5920,note_off,,,,,64,0,2,,,,,1,,,46,81
5920,note_off,,,,,64,0,1,,,,,0,,,74,80
5952,note_on,,,,,32,0,2,,,,,1,,,41,127
5952,note_on,,,,,32,0,1,,,,,0,,,72,125
6016,note_off,,,,,64,0,2,,,,,1,,,41,81
6048,note_on,,,,,32,0,2,,,,,1,,,46,127
6080,note_off,,,,,128,0,1,,,,,0,,,72,80
6112,note_off,,,,,64,0,2,,,,,1,,,46,81
6144,note_on,,,,,32,0,2,,,,,1,,,41,127
6144,note_on,,,,,64,0,1,,,,,0,,,70,125
6208,note_off,,,,,64,0,2,,,,,1,,,41,81
6240,note_on,,,,,32,0,2,,,,,1,,,46,127
6272,note_off,,,,,128,0,1,,,,,0,,,70,80
6304,note_off,,,,,64,0,2,,,,,1,,,46,81
6336,note_on,,,,,32,0,2,,,,,1,,,41,127
6336,note_on,,,,,64,0,1,,,,,0,,,69,125
6400,note_off,,,,,64,0,1,,,,,0,,,69,80
6400,note_off,,,,,64,0,2,,,,,1,,,41,81
6432,note_on,,,,,32,0,2,,,,,1,,,46,127
6432,note_on,,,,,32,0,1,,,,,0,,,70,125
6496,note_off,,,,,64,0,2,,,,,1,,,46,81
6496,note_off,,,,,64,0,1,,,,,0,,,70,80
6528,note_on,,,,,32,0,2,,,,,1,,,41,127
6528,note_on,,,,,32,0,1,,,,,0,,,69,125
6592,note_off,,,,,64,0,2,,,,,1,,,41,81
6624,note_on,,,,,32,0,2,,,,,1,,,46,127
6656,note_off,,,,,128,0,1,,,,,0,,,69,80
6688,note_off,,,,,64,0,2,,,,,1,,,46,81
6720,note_on,,,,,32,0,2,,,,,1,,,41,127
6720,note_on,,,,,64,0,1,,,,,0,,,67,125
6784,note_off,,,,,64,0,2,,,,,1,,,41,81
6816,note_on,,,,,32,0,2,,,,,1,,,46,127
6848,note_off,,,,,128,0,1,,,,,0,,,67,80
6880,note_off,,,,,64,0,2,,,,,1,,,46,81
6912,note_on,,,,,32,0,2,,,,,1,,,41,127
6912,note_on,,,,,64,0,1,,,,,0,,,66,125
6976,note_off,,,,,64,0,2,,,,,1,,,41,81
7008,note_on,,,,,32,0,2,,,,,1,,,46,127
7040,note_off,,,,,128,0,1,,,,,0,,,66,80
7072,note_off,,,,,64,0,2,,,,,1,,,46,81
7104,note_on,,,,,32,0,2,,,,,1,,,41,127
7104,note_on,,,,,64,0,1,,,,,0,,,69,125
7168,note_off,,,,,64,0,2,,,,,1,,,41,81
7200,note_on,,,,,32,0,2,,,,,1,,,46,127
7232,note_off,,,,,128,0,1,,,,,0,,,69,80
7264,note_off,,,,,64,0,2,,,,,1,,,46,81
7296,note_on,,,,,64,0,1,,,,,0,,,67,125
7296,note_on,,,,,32,0,2,,,,,1,,,41,127
7360,note_off,,,,,64,0,2,,,,,1,,,41,81
7392,note_on,,,,,32,0,2,,,,,1,,,46,127
7424,note_off,,,,,128,0,1,,,,,0,,,67,80
7456,note_off,,,,,64,0,2,,,,,1,,,46,81
7488,note_on,,,,,64,0,1,,,,,0,,,64,125
7488,note_on,,,,,32,0,2,,,,,1,,,41,127
7552,note_off,,,,,64,0,2,,,,,1,,,41,81
7584,note_on,,,,,32,0,2,,,,,1,,,46,127
7616,note_off,,,,,128,0,1,,,,,0,,,64,80
7648,note_off,,,,,64,0,2,,,,,1,,,46,81
7680,note_on,,,,,32,0,2,,,,,1,,,41,127
7680,note_on,,,,,64,0,1,,,,,0,,,67,125
7744,note_off,,,,,64,0,2,,,,,1,,,41,81
7776,note_on,,,,,32,0,2,,,,,1,,,46,127
7808,note_off,,,,,128,0,1,,,,,0,,,67,80
7840,note_off,,,,,64,0,2,,,,,1,,,46,81
7872,note_on,,,,,32,0,2,,,,,1,,,41,127
7872,note_on,,,,,64,0,1,,,,,0,,,65,125
7936,note_off,,,,,64,0,2,,,,,1,,,41,81
7968,note_on,,,,,32,0,2,,,,,1,,,46,127
8000,note_off,,,,,128,0,1,,,,,0,,,65,80
8032,note_off,,,,,64,0,2,,,,,1,,,46,81
8064,note_on,,,,,32,0,2,,,,,1,,,41,127
8128,note_off,,,,,64,0,2,,,,,1,,,41,81
8160,note_on,,,,,32,0,2,,,,,1,,,46,127
8224,note_off,,,,,64,0,2,,,,,1,,,46,81
8256,note_on,,,,,256,0,1,,,,,0,,,50,125
8256,note_on,,,,,32,0,2,,,,,1,,,41,127
8320,note_off,,,,,64,0,2,,,,,1,,,41,81
8352,note_on,,,,,32,0,2,,,,,1,,,46,127
8384,note_off,,,,,128,0,1,,,,,0,,,50,80
8416,note_off,,,,,64,0,2,,,,,1,,,46,81
8448,note_on,,,,,64,0,1,,,,,0,,,51,125
8448,note_on,,,,,32,0,2,,,,,1,,,41,127
8512,note_off,,,,,64,0,2,,,,,1,,,41,81
8544,note_on,,,,,32,0,2,,,,,1,,,46,127
8576,note_off,,,,,128,0,1,,,,,0,,,51,80
8608,note_off,,,,,64,0,2,,,,,1,,,46,81
8640,note_on,,,,,32,0,2,,,,,1,,,41,127
8640,note_on,,,,,64,0,1,,,,,0,,,52,125
8704,note_off,,,,,64,0,2,,,,,1,,,41,81
8736,note_on,,,,,32,0,2,,,,,1,,,46,127
8768,note_off,,,,,128,0,1,,,,,0,,,52,80
8800,note_off,,,,,64,0,2,,,,,1,,,46,81
8832,note_on,,,,,32,0,2,,,,,1,,,41,127
8832,note_on,,,,,64,0,1,,,,,0,,,55,125
8896,note_off,,,,,64,0,2,,,,,1,,,41,81
8928,note_on,,,,,32,0,2,,,,,1,,,46,127
8960,note_off,,,,,128,0,1,,,,,0,,,55,80
8992,note_off,,,,,64,0,2,,,,,1,,,46,81
9024,note_on,,,,,64,0,1,,,,,0,,,53,125
9024,note_on,,,,,32,0,2,,,,,1,,,41,127
9088,note_off,,,,,64,0,2,,,,,1,,,41,81
9120,note_on,,,,,32,0,2,,,,,1,,,46,127
9152,note_off,,,,,128,0,1,,,,,0,,,53,80
9184,note_off,,,,,64,0,2,,,,,1,,,46,81
9216,note_on,,,,,32,0,2,,,,,1,,,41,127
9344,note_off,,,,,128,0,2,,,,,1,,,41,81
9504,note_on,,,,,352,0,1,,,,,0,,,65,125
9600,note_on,,,,,96,0,1,,,,,0,,,58,125
9632,note_off,,,,,32,0,1,,,,,0,,,65,80
9664,note_off,,,,,32,0,1,,,,,0,,,58,80
9696,note_on,,,,,32,0,1,,,,,0,,,62,125
9760,note_off,,,,,64,0,1,,,,,0,,,62,80
9792,note_on,,,,,448,0,2,,,,,1,,,50,127
9792,note_on,,,,,32,0,1,,,,,0,,,65,125
9792,note_on,,,,,0,0,2,,,,,1,,,58,127
9856,note_off,,,,,64,0,1,,,,,0,,,65,80
9888,note_on,,,,,32,0,1,,,,,0,,,62,125
9920,note_off,,,,,0,0,2,,,,,1,,,58,81
9920,note_off,,,,,128,0,2,,,,,1,,,50,81
9952,note_off,,,,,64,0,1,,,,,0,,,62,80
9984,note_on,,,,,32,0,1,,,,,0,,,58,125
10048,note_off,,,,,64,0,1,,,,,0,,,58,80
10080,note_on,,,,,32,0,1,,,,,0,,,53,125
10144,note_off,,,,,64,0,1,,,,,0,,,53,80
10176,note_on,,,,,32,0,1,,,,,0,,,58,125
10240,note_off,,,,,64,0,1,,,,,0,,,58,80
10272,note_on,,,,,32,0,1,,,,,0,,,62,125
10336,note_off,,,,,64,0,1,,,,,0,,,62,80
10368,note_on,,,,,32,0,1,,,,,0,,,65,125
10368,note_on,,,,,448,0,2,,,,,1,,,49,127
10368,note_on,,,,,0,0,2,,,,,1,,,58,127
10432,note_off,,,,,64,0,1,,,,,0,,,65,80
10464,note_on,,,,,32,0,1,,,,,0,,,64,125
10496,note_off,,,,,0,0,2,,,,,1,,,58,81
10496,note_off,,,,,128,0,2,,,,,1,,,49,81
10528,note_off,,,,,64,0,1,,,,,0,,,64,80
10560,note_on,,,,,32,0,1,,,,,0,,,58,125
10624,note_off,,,,,64,0,1,,,,,0,,,58,80
10656,note_on,,,,,32,0,1,,,,,0,,,55,125
10720,note_off,,,,,64,0,1,,,,,0,,,55,80
10752,note_on,,,,,32,0,1,,,,,0,,,58,125
10816,note_off,,,,,64,0,1,,,,,0,,,58,80
10848,note_on,,,,,32,0,1,,,,,0,,,63,125
10912,note_off,,,,,64,0,1,,,,,0,,,63,80
10944,note_on,,,,,32,0,1,,,,,0,,,65,125
10944,note_on,,,,,0,0,2,,,,,1,,,62,127
10944,note_on,,,,,448,0,2,,,,,1,,,70,127
11008,note_off,,,,,64,0,1,,,,,0,,,65,80
11040,note_on,,,,,32,0,1,,,,,0,,,77,125
11072,note_off,,,,,128,0,2,,,,,1,,,70,81
11072,note_off,,,,,0,0,2,,,,,1,,,62,81
11104,note_off,,,,,64,0,1,,,,,0,,,77,80
11136,note_on,,,,,32,0,1,,,,,0,,,74,125
11200,note_off,,,,,64,0,1,,,,,0,,,74,80
11232,note_on,,,,,32,0,1,,,,,0,,,70,125
11296,note_off,,,,,64,0,1,,,,,0,,,70,80
11328,note_on,,,,,32,0,1,,,,,0,,,65,125
11392,note_off,,,,,64,0,1,,,,,0,,,65,80
11424,note_on,,,,,32,0,1,,,,,0,,,70,125
11488,note_off,,,,,64,0,1,,,,,0,,,70,80
11520,note_on,,,,,32,0,1,,,,,0,,,77,125
11520,note_on,,,,,0,0,2,,,,,1,,,70,127
11520,note_on,,,,,448,0,2,,,,,1,,,60,127
11584,note_off,,,,,64,0,1,,,,,0,,,77,80
11616,note_on,,,,,32,0,1,,,,,0,,,76,125
11648,note_off,,,,,0,0,2,,,,,1,,,70,81
11648,note_off,,,,,128,0,2,,,,,1,,,60,81
11680,note_off,,,,,64,0,1,,,,,0,,,76,80
11712,note_on,,,,,32,0,1,,,,,0,,,70,125
11776,note_off,,,,,64,0,1,,,,,0,,,70,80
11808,note_on,,,,,32,0,1,,,,,0,,,67,125
11872,note_off,,,,,64,0,1,,,,,0,,,67,80
11904,note_on,,,,,32,0,1,,,,,0,,,70,125
11968,note_off,,,,,64,0,1,,,,,0,,,70,80
12000,note_on,,,,,32,0,1,,,,,0,,,76,125
12064,note_off,,,,,64,0,1,,,,,0,,,76,80
12096,note_on,,,,,0,0,2,,,,,1,,,82,127
12096,note_on,,,,,448,0,2,,,,,1,,,74,127
12096,note_on,,,,,32,0,1,,,,,0,,,77,125
12160,note_off,,,,,64,0,1,,,,,0,,,77,80
12192,note_on,,,,,32,0,1,,,,,0,,,89,125
12224,note_off,,,,,0,0,2,,,,,1,,,82,81
12224,note_off,,,,,128,0,2,,,,,1,,,74,81
12256,note_off,,,,,64,0,1,,,,,0,,,89,80
12288,note_on,,,,,32,0,1,,,,,0,,,86,125
12352,note_off,,,,,64,0,1,,,,,0,,,86,80
12384,note_on,,,,,32,0,1,,,,,0,,,82,125
12448,note_off,,,,,64,0,1,,,,,0,,,82,80
12480,note_on,,,,,32,0,1,,,,,0,,,77,125
12544,note_off,,,,,64,0,1,,,,,0,,,77,80
12576,note_on,,,,,32,0,1,,,,,0,,,82,125
12640,note_off,,,,,64,0,1,,,,,0,,,82,80
12672,note_on,,,,,32,0,1,,,,,0,,,89,125
12672,note_on,,,,,448,0,2,,,,,1,,,73,127
12672,note_on,,,,,0,0,2,,,,,1,,,82,127
12736,note_off,,,,,64,0,1,,,,,0,,,89,80
12768,note_on,,,,,32,0,1,,,,,0,,,88,125
12800,note_off,,,,,128,0,2,,,,,1,,,73,81
12800,note_off,,,,,0,0,2,,,,,1,,,82,81
12832,note_off,,,,,64,0,1,,,,,0,,,88,80
12864,note_on,,,,,32,0,1,,,,,0,,,82,125
12928,note_off,,,,,64,0,1,,,,,0,,,82,80
12960,note_on,,,,,32,0,1,,,,,0,,,79,125
13024,note_off,,,,,64,0,1,,,,,0,,,79,80
13056,note_on,,,,,32,0,1,,,,,0,,,82,125
13120,note_off,,,,,64,0,1,,,,,0,,,82,80
13152,note_on,,,,,32,0,1,,,,,0,,,88,125
13216,note_off,,,,,64,0,1,,,,,0,,,88,80
13248,note_on,,,,,448,0,2,,,,,1,,,73,127
13248,note_on,,,,,0,0,2,,,,,1,,,82,127
13248,note_on,,,,,32,0,1,,,,,0,,,89,125
13312,note_off,,,,,64,0,1,,,,,0,,,89,80
13344,note_on,,,,,32,0,1,,,,,0,,,88,125
13376,note_off,,,,,0,0,2,,,,,1,,,82,81
13376,note_off,,,,,128,0,2,,,,,1,,,73,81
13408,note_off,,,,,64,0,1,,,,,0,,,88,80
13440,note_on,,,,,32,0,1,,,,,0,,,82,125
13504,note_off,,,,,64,0,1,,,,,0,,,82,80
13536,note_on,,,,,32,0,1,,,,,0,,,79,125
13600,note_off,,,,,64,0,1,,,,,0,,,79,80
13632,note_on,,,,,32,0,1,,,,,0,,,82,125
13696,note_off,,,,,64,0,1,,,,,0,,,82,80
13728,note_on,,,,,32,0,1,,,,,0,,,88,125
13792,note_off,,,,,64,0,1,,,,,0,,,88,80
13824,note_on,,,,,448,0,2,,,,,1,,,73,127
13824,note_on,,,,,32,0,1,,,,,0,,,89,125
13824,note_on,,,,,0,0,2,,,,,1,,,82,127
13888,note_off,,,,,64,0,1,,,,,0,,,89,80
13920,note_on,,,,,32,0,1,,,,,0,,,88,125
13952,note_off,,,,,128,0,2,,,,,1,,,73,81
13952,note_off,,,,,0,0,2,,,,,1,,,82,81
13984,note_off,,,,,64,0,1,,,,,0,,,88,80
14016,note_on,,,,,32,0,1,,,,,0,,,82,125
14080,note_off,,,,,64,0,1,,,,,0,,,82,80
14112,note_on,,,,,32,0,1,,,,,0,,,79,125
14176,note_off,,,,,64,0,1,,,,,0,,,79,80
14208,note_on,,,,,32,0,1,,,,,0,,,82,125
14272,note_off,,,,,64,0,1,,,,,0,,,82,80
14304,note_on,,,,,32,0,1,,,,,0,,,85,125
14368,note_off,,,,,64,0,1,,,,,0,,,85,80
14400,note_on,,,,,32,0,1,,,,,0,,,88,125
14464,note_off,,,,,64,0,1,,,,,0,,,88,80
14496,note_on,,,,,32,0,1,,,,,0,,,89,125
14560,note_off,,,,,64,0,1,,,,,0,,,89,80
14592,note_on,,,,,32,0,1,,,,,0,,,91,125
14656,note_off,,,,,64,0,1,,,,,0,,,91,80
14688,note_on,,,,,32,0,1,,,,,0,,,94,125
14752,note_off,,,,,64,0,1,,,,,0,,,94,80
14784,note_on,,,,,32,0,1,,,,,0,,,97,125
14848,note_off,,,,,64,0,1,,,,,0,,,97,80
14880,note_on,,,,,32,0,1,,,,,0,,,98,125
14944,note_off,,,,,64,0,1,,,,,0,,,98,80
14976,note_on,,,,,32,0,1,,,,,0,,,101,125
15040,note_off,,,,,64,0,1,,,,,0,,,101,80
15072,note_on,,,,,32,0,1,,,,,0,,,100,125
15136,note_off,,,,,64,0,1,,,,,0,,,100,80
15168,note_on,,,,,32,0,1,,,,,0,,,97,125
15232,note_off,,,,,64,0,1,,,,,0,,,97,80
15264,note_on,,,,,32,0,1,,,,,0,,,94,125
15328,note_off,,,,,64,0,1,,,,,0,,,94,80
15360,note_on,,,,,32,0,1,,,,,0,,,91,125
15424,note_off,,,,,64,0,1,,,,,0,,,91,80
15456,note_on,,,,,32,0,1,,,,,0,,,89,125
15520,note_off,,,,,64,0,1,,,,,0,,,89,80
15552,note_on,,,,,32,0,1,,,,,0,,,88,125
15616,note_off,,,,,64,0,1,,,,,0,,,88,80
15648,note_on,,,,,32,0,1,,,,,0,,,85,125
15712,note_off,,,,,64,0,1,,,,,0,,,85,80
15744,note_on,,,,,32,0,1,,,,,0,,,82,125
15808,note_off,,,,,64,0,1,,,,,0,,,82,80
15840,note_on,,,,,32,0,1,,,,,0,,,79,125
15904,note_off,,,,,64,0,1,,,,,0,,,79,80
15936,note_on,,,,,32,0,1,,,,,0,,,77,125
16000,note_off,,,,,64,0,1,,,,,0,,,77,80
16032,note_on,,,,,32,0,1,,,,,0,,,76,125
16096,note_off,,,,,64,0,1,,,,,0,,,76,80
16128,note_on,,,,,32,0,1,,,,,0,,,73,125
16192,note_off,,,,,64,0,1,,,,,0,,,73,80
16224,note_on,,,,,32,0,1,,,,,0,,,70,125
16288,note_off,,,,,64,0,1,,,,,0,,,70,80
16320,note_on,,,,,32,0,1,,,,,0,,,67,125
16384,note_off,,,,,64,0,1,,,,,0,,,67,80
16416,note_on,,,,,32,0,1,,,,,0,,,65,125
16480,note_off,,,,,64,0,1,,,,,0,,,65,80
16512,note_on,,,,,32,0,1,,,,,0,,,64,125
16576,note_off,,,,,64,0,1,,,,,0,,,64,80
16608,note_on,,,,,32,0,1,,,,,0,,,61,125
16672,note_off,,,,,64,0,1,,,,,0,,,61,80
16704,note_on,,,,,2752,0,2,,,,,1,,,58,127
16768,note_off,,,,,64,0,2,,,,,1,,,58,81
16800,note_on,,,,,32,0,2,,,,,1,,,55,127
16864,note_off,,,,,64,0,2,,,,,1,,,55,81
16896,note_on,,,,,32,0,2,,,,,1,,,53,127
16960,note_off,,,,,64,0,2,,,,,1,,,53,81
16992,note_on,,,,,32,0,2,,,,,1,,,52,127
17056,note_off,,,,,64,0,2,,,,,1,,,52,81
17088,note_on,,,,,32,0,2,,,,,1,,,49,127
17152,note_off,,,,,64,0,2,,,,,1,,,49,81
17184,note_on,,,,,32,0,2,,,,,1,,,46,127
17248,note_off,,,,,64,0,2,,,,,1,,,46,81
17280,note_on,,,,,32,0,2,,,,,1,,,43,127
17344,note_off,,,,,64,0,2,,,,,1,,,43,81
17376,note_on,,,,,32,0,2,,,,,1,,,42,127
17440,note_off,,,,,64,0,2,,,,,1,,,42,81
17472,note_on,,,,,32,0,2,,,,,1,,,41,127
17536,note_off,,,,,64,0,2,,,,,1,,,41,81
17568,note_on,,,,,32,0,2,,,,,1,,,40,127
17632,note_off,,,,,64,0,2,,,,,1,,,40,81
17664,note_on,,,,,32,0,2,,,,,1,,,39,127
17728,note_off,,,,,64,0,2,,,,,1,,,39,81
17760,note_on,,,,,32,0,2,,,,,1,,,38,127
17824,note_off,,,,,64,0,2,,,,,1,,,38,81
17856,note_on,,,,,0,0,2,,,,,1,,,37,127
17856,note_on,,,,,32,0,2,,,,,1,,,49,127
17952,note_on,,,,,1280,0,1,,,,,0,,,52,125
18016,note_off,,,,,64,0,1,,,,,0,,,52,80
18048,note_on,,,,,32,0,1,,,,,0,,,55,125
18112,note_off,,,,,64,0,1,,,,,0,,,55,80
18144,note_on,,,,,0,0,1,,,,,0,,,64,125
18144,note_on,,,,,32,0,1,,,,,0,,,58,125
18208,note_off,,,,,64,0,1,,,,,0,,,58,80
18208,note_off,,,,,0,0,1,,,,,0,,,64,80
18240,note_on,,,,,32,0,1,,,,,0,,,55,125
18240,note_off,,,,,0,0,2,,,,,1,,,37,81
18240,note_off,,,,,384,0,2,,,,,1,,,49,81
18304,note_off,,,,,64,0,1,,,,,0,,,55,80
18336,note_on,,,,,32,0,1,,,,,0,,,52,125
18400,note_off,,,,,64,0,1,,,,,0,,,52,80
18432,set_tempo,,,,,0,1,0,,500000,,,,,,,
18432,key_signature,,,,,32,1,1,,,,,,,A,,
18432,key_signature,,,,,192,1,2,,,,,,,A,,
18432,note_on,,,,,0,0,2,,,,,1,,,34,127
18432,note_on,,,,,0,0,2,,,,,1,,,46,127
18432,time_signature,2,4,96,8,18432,1,0,,,,,,,,,
18528,note_on,,,,,96,0,1,,,,,0,,,52,125
18592,note_off,,,,,64,0,1,,,,,0,,,52,80
18624,note_on,,,,,32,0,1,,,,,0,,,56,125
18688,note_off,,,,,256,0,2,,,,,1,,,34,81
18688,note_off,,,,,64,0,1,,,,,0,,,56,80
18688,note_off,,,,,0,0,2,,,,,1,,,46,81
18720,note_on,,,,,0,0,1,,,,,0,,,64,125
18720,note_on,,,,,32,0,1,,,,,0,,,62,125
18784,note_off,,,,,64,0,1,,,,,0,,,62,80
18784,note_off,,,,,0,0,1,,,,,0,,,64,80
18816,note_on,,,,,32,0,1,,,,,0,,,56,125
18880,note_off,,,,,64,0,1,,,,,0,,,56,80
18912,note_on,,,,,32,0,1,,,,,0,,,52,125
18976,note_off,,,,,64,0,1,,,,,0,,,52,80
19008,note_on,,,,,320,0,2,,,,,1,,,47,127
19008,note_on,,,,,0,0,2,,,,,1,,,35,127
19200,note_on,,,,,224,0,1,,,,,0,,,64,125
19264,note_off,,,,,0,0,2,,,,,1,,,47,81
19264,note_off,,,,,256,0,2,,,,,1,,,35,81
19296,note_on,,,,,96,0,1,,,,,0,,,68,125
19360,note_off,,,,,64,0,1,,,,,0,,,68,80
19392,note_on,,,,,32,0,1,,,,,0,,,76,125
19456,note_off,,,,,0,0,1,,,,,0,,,76,80
19456,note_off,,,,,64,0,1,,,,,0,,,64,80
19488,note_on,,,,,32,0,1,,,,,0,,,74,125
19616,note_off,,,,,128,0,1,,,,,0,,,74,80
19680,note_on,,,,,64,0,1,,,,,0,,,68,125
19744,note_off,,,,,64,0,1,,,,,0,,,68,80
19776,note_on,,,,,32,0,1,,,,,0,,,64,125
19840,note_off,,,,,64,0,1,,,,,0,,,64,80
19968,note_on,,,,,704,0,2,,,,,1,,,54,127
19968,note_on,,,,,0,0,2,,,,,1,,,42,127
20064,note_on,,,,,224,0,1,,,,,0,,,64,125
20128,note_off,,,,,64,0,1,,,,,0,,,64,80
20160,note_on,,,,,32,0,1,,,,,0,,,68,125
20224,note_off,,,,,64,0,1,,,,,0,,,68,80
20256,note_on,,,,,32,0,1,,,,,0,,,76,125
20320,note_off,,,,,64,0,1,,,,,0,,,76,80
20352,note_on,,,,,32,0,1,,,,,0,,,74,125
20480,note_off,,,,,0,0,2,,,,,1,,,42,81
20480,note_off,,,,,128,0,1,,,,,0,,,74,80
20480,note_off,,,,,512,0,2,,,,,1,,,54,81
20544,note_on,,,,,64,0,1,,,,,0,,,68,125
20608,note_off,,,,,64,0,1,,,,,0,,,68,80
20640,note_on,,,,,32,0,1,,,,,0,,,64,125
20704,note_off,,,,,64,0,1,,,,,0,,,64,80
20736,note_on,,,,,0,0,2,,,,,1,,,35,127
20736,note_on,,,,,256,0,2,,,,,1,,,47,127
20832,note_on,,,,,128,0,1,,,,,0,,,76,125
20896,note_off,,,,,64,0,1,,,,,0,,,76,80
20928,note_on,,,,,32,0,1,,,,,0,,,78,125
20992,note_off,,,,,64,0,1,,,,,0,,,78,80
21024,note_on,,,,,32,0,1,,,,,0,,,88,125
21152,note_off,,,,,128,0,1,,,,,0,,,88,80
21216,note_on,,,,,64,0,1,,,,,0,,,86,125
21248,note_off,,,,,0,0,2,,,,,1,,,35,81
21248,note_off,,,,,512,0,2,,,,,1,,,47,81
21280,note_off,,,,,64,0,1,,,,,0,,,86,80
21312,note_on,,,,,0,0,2,,,,,1,,,36,127
21312,note_on,,,,,32,0,1,,,,,0,,,80,125
21312,note_on,,,,,64,0,2,,,,,1,,,48,127
21376,note_off,,,,,64,0,1,,,,,0,,,80,80
21408,note_on,,,,,32,0,1,,,,,0,,,76,125
21440,note_off,,,,,128,0,2,,,,,1,,,48,81
21440,note_off,,,,,0,0,2,,,,,1,,,36,81
21472,note_off,,,,,64,0,1,,,,,0,,,76,80
21504,note_on,,,,,64,0,2,,,,,1,,,48,127
21504,note_on,,,,,0,0,2,,,,,1,,,36,127
21600,note_on,,,,,96,0,2,,,,,1,,,52,127
21632,note_off,,,,,0,0,2,,,,,1,,,36,81
21632,note_off,,,,,32,0,2,,,,,1,,,48,81
21664,note_off,,,,,32,0,2,,,,,1,,,52,81
21696,note_on,,,,,32,0,2,,,,,1,,,57,127
21760,note_off,,,,,64,0,2,,,,,1,,,57,81
21792,note_on,,,,,0,0,1,,,,,0,,,61,125
21792,note_on,,,,,320,0,1,,,,,0,,,64,125
21792,note_on,,,,,0,0,2,,,,,1,,,37,127
21792,note_on,,,,,32,0,2,,,,,1,,,49,127
21856,note_off,,,,,64,0,1,,,,,0,,,64,80
21856,note_off,,,,,0,0,1,,,,,0,,,61,80
21888,note_on,,,,,32,0,1,,,,,0,,,64,125
21952,note_off,,,,,64,0,1,,,,,0,,,64,80
21984,note_on,,,,,32,0,1,,,,,0,,,69,125
22048,note_off,,,,,256,0,2,,,,,1,,,49,81
22048,note_off,,,,,64,0,1,,,,,0,,,69,80
22048,note_off,,,,,0,0,2,,,,,1,,,37,81
22080,note_on,,,,,0,0,1,,,,,0,,,76,125
22080,note_on,,,,,32,0,1,,,,,0,,,73,125
22144,note_off,,,,,64,0,1,,,,,0,,,73,80
22144,note_off,,,,,0,0,1,,,,,0,,,76,80
22176,note_on,,,,,32,0,1,,,,,0,,,76,125
22176,note_on,,,,,128,0,2,,,,,1,,,41,127
22240,note_off,,,,,64,0,1,,,,,0,,,76,80
22272,note_on,,,,,32,0,1,,,,,0,,,49,125
22336,note_off,,,,,64,0,1,,,,,0,,,49,80
22368,note_on,,,,,32,0,1,,,,,0,,,52,125
22368,note_on,,,,,0,0,1,,,,,0,,,56,125
22432,note_off,,,,,0,0,1,,,,,0,,,56,80
22432,note_off,,,,,256,0,2,,,,,1,,,41,81
22432,note_off,,,,,64,0,1,,,,,0,,,52,80
22464,note_on,,,,,32,0,1,,,,,0,,,56,125
22528,note_off,,,,,64,0,1,,,,,0,,,56,80
22560,note_on,,,,,32,0,1,,,,,0,,,61,125
22560,note_on,,,,,128,0,2,,,,,1,,,29,127
22560,note_on,,,,,0,0,2,,,,,1,,,41,127
22624,note_off,,,,,64,0,1,,,,,0,,,61,80
22624,note_off,,,,,64,0,2,,,,,1,,,41,81
22656,note_on,,,,,32,0,2,,,,,1,,,29,127
22656,note_on,,,,,32,0,1,,,,,0,,,64,125
22656,note_on,,,,,0,0,2,,,,,1,,,41,127
22656,note_on,,,,,0,0,1,,,,,0,,,68,125
22688,note_off,,,,,32,0,2,,,,,1,,,29,81
22720,note_off,,,,,0,0,1,,,,,0,,,68,80
22720,note_off,,,,,64,0,1,,,,,0,,,64,80
22752,note_on,,,,,32,0,1,,,,,0,,,64,125
22784,note_off,,,,,96,0,2,,,,,1,,,29,81
22816,note_off,,,,,64,0,1,,,,,0,,,64,80
22848,note_on,,,,,32,0,1,,,,,0,,,56,125
22912,note_off,,,,,64,0,1,,,,,0,,,56,80
22944,note_on,,,,,0,0,1,,,,,0,,,52,125
22944,note_on,,,,,32,0,1,,,,,0,,,56,125
22944,note_on,,,,,160,0,2,,,,,1,,,28,127
22944,note_on,,,,,0,0,2,,,,,1,,,40,127
23008,note_off,,,,,0,0,1,,,,,0,,,52,80
23008,note_off,,,,,64,0,1,,,,,0,,,56,80
23040,note_on,,,,,32,0,1,,,,,0,,,49,125
23072,note_off,,,,,0,0,2,,,,,1,,,40,81
23072,note_off,,,,,128,0,2,,,,,1,,,28,81
23104,note_off,,,,,64,0,1,,,,,0,,,49,80
23136,note_on,,,,,32,0,1,,,,,0,,,44,125
23168,note_off,,,,,96,0,2,,,,,1,,,41,81
23200,note_off,,,,,64,0,1,,,,,0,,,44,80
23232,note_on,,,,,32,0,1,,,,,0,,,56,125
23232,note_on,,,,,0,0,2,,,,,1,,,37,127
23232,note_on,,,,,64,0,2,,,,,1,,,49,127
23232,note_on,,,,,0,0,1,,,,,0,,,52,125
23296,note_off,,,,,64,0,1,,,,,0,,,56,80
23296,note_off,,,,,0,0,1,,,,,0,,,52,80
23328,note_on,,,,,32,0,1,,,,,0,,,49,125
23392,note_off,,,,,64,0,1,,,,,0,,,49,80
23424,note_on,,,,,32,0,1,,,,,0,,,44,125
23488,note_off,,,,,64,0,1,,,,,0,,,44,80
23488,note_off,,,,,0,0,2,,,,,1,,,37,81
23488,note_off,,,,,256,0,2,,,,,1,,,49,81
23520,note_on,,,,,0,0,1,,,,,0,,,40,125
23520,note_on,,,,,32,0,1,,,,,0,,,44,125
23584,note_off,,,,,0,0,1,,,,,0,,,40,80
23584,note_off,,,,,64,0,1,,,,,0,,,44,80
23616,note_on,,,,,128,0,2,,,,,1,,,57,127
23680,note_off,,,,,64,0,2,,,,,1,,,57,81
23712,note_on,,,,,32,0,2,,,,,1,,,52,127
23776,note_off,,,,,64,0,2,,,,,1,,,52,81
23808,note_on,,,,,32,0,2,,,,,1,,,34,127
23808,note_on,,,,,0,0,2,,,,,1,,,46,127
23904,note_on,,,,,320,0,1,,,,,0,,,52,125
23968,note_off,,,,,64,0,1,,,,,0,,,52,80
24000,note_on,,,,,32,0,1,,,,,0,,,56,125
24064,note_off,,,,,256,0,2,,,,,1,,,34,81
24064,note_off,,,,,64,0,1,,,,,0,,,56,80
24096,note_on,,,,,32,0,1,,,,,0,,,64,125
24224,note_off,,,,,128,0,1,,,,,0,,,64,80
24288,note_on,,,,,64,0,1,,,,,0,,,62,125
24352,note_off,,,,,64,0,1,,,,,0,,,62,80
24384,note_on,,,,,32,0,1,,,,,0,,,56,125
24448,note_off,,,,,64,0,1,,,,,0,,,56,80
24480,note_on,,,,,32,0,1,,,,,0,,,52,125
24544,note_off,,,,,64,0,1,,,,,0,,,52,80
24576,note_on,,,,,0,0,2,,,,,1,,,35,127
24576,note_on,,,,,512,0,2,,,,,1,,,47,127
24672,note_on,,,,,128,0,1,,,,,0,,,64,125
24736,note_off,,,,,64,0,1,,,,,0,,,64,80
24768,note_on,,,,,32,0,1,,,,,0,,,68,125
24832,note_off,,,,,64,0,1,,,,,0,,,68,80
24836,note_off,,,,,260,0,2,,,,,1,,,46,81
24864,note_on,,,,,32,0,1,,,,,0,,,76,125
24928,note_off,,,,,64,0,1,,,,,0,,,76,80
24960,note_on,,,,,32,0,1,,,,,0,,,74,125
25088,note_off,,,,,128,0,1,,,,,0,,,74,80
25152,note_on,,,,,64,0,1,,,,,0,,,68,125
25216,note_off,,,,,64,0,1,,,,,0,,,68,80
25248,note_on,,,,,32,0,1,,,,,0,,,64,125
25312,note_off,,,,,64,0,1,,,,,0,,,64,80
25344,note_off,,,,,0,0,2,,,,,1,,,35,81
25344,note_on,,,,,0,0,2,,,,,1,,,42,127
25344,note_on,,,,,0,0,2,,,,,1,,,54,127
25344,note_off,,,,,508,0,2,,,,,1,,,47,81
25440,note_on,,,,,128,0,1,,,,,0,,,76,125
25536,note_on,,,,,96,0,1,,,,,0,,,80,125
25600,note_off,,,,,64,0,1,,,,,0,,,80,80
25632,note_on,,,,,32,0,1,,,,,0,,,88,125
25696,note_off,,,,,0,0,1,,,,,0,,,88,80
25696,note_off,,,,,64,0,1,,,,,0,,,76,80
25728,note_on,,,,,32,0,1,,,,,0,,,86,125
25856,note_off,,,,,128,0,1,,,,,0,,,86,80
25920,note_on,,,,,64,0,1,,,,,0,,,80,125
25984,note_off,,,,,64,0,1,,,,,0,,,80,80
26016,note_on,,,,,32,0,1,,,,,0,,,76,125
26080,note_off,,,,,64,0,1,,,,,0,,,76,80
26112,note_on,,,,,0,0,2,,,,,1,,,35,127
26112,note_off,,,,,0,0,2,,,,,1,,,42,81
26112,note_off,,,,,768,0,2,,,,,1,,,54,81
26112,note_on,,,,,0,0,2,,,,,1,,,47,127
26208,note_on,,,,,128,0,1,,,,,0,,,88,125
26272,note_off,,,,,64,0,1,,,,,0,,,88,80
26304,note_on,,,,,32,0,1,,,,,0,,,92,125
26368,note_off,,,,,64,0,1,,,,,0,,,92,80
26400,note_on,,,,,32,0,1,,,,,0,,,100,125
26528,note_off,,,,,128,0,1,,,,,0,,,100,80
26592,note_on,,,,,64,0,1,,,,,0,,,98,125
26656,note_off,,,,,64,0,1,,,,,0,,,98,80
26688,note_on,,,,,32,0,1,,,,,0,,,92,125
26752,note_off,,,,,64,0,1,,,,,0,,,92,80
26784,note_on,,,,,32,0,1,,,,,0,,,88,125
26784,note_on,,,,,0,0,2,,,,,1,,,36,127
26784,note_on,,,,,672,0,2,,,,,1,,,48,127
26848,note_off,,,,,0,0,2,,,,,1,,,36,81
26848,note_off,,,,,64,0,1,,,,,0,,,88,80
26848,note_off,,,,,64,0,2,,,,,1,,,48,81
26880,note_on,,,,,0,0,2,,,,,1,,,48,127
26880,note_off,,,,,32,0,2,,,,,1,,,47,81
26880,note_on,,,,,0,0,2,,,,,1,,,36,127
26880,note_off,,,,,0,0,2,,,,,1,,,35,81
27008,note_off,,,,,0,0,2,,,,,1,,,48,81
27008,note_off,,,,,128,0,2,,,,,1,,,36,81
27072,note_on,,,,,64,0,2,,,,,1,,,52,127
27136,note_off,,,,,64,0,2,,,,,1,,,52,81
27168,note_on,,,,,32,0,2,,,,,1,,,57,127
27232,note_off,,,,,64,0,2,,,,,1,,,57,81
27264,note_on,,,,,0,0,1,,,,,0,,,61,125
27264,note_on,,,,,32,0,2,,,,,1,,,49,127
27264,note_on,,,,,0,0,2,,,,,1,,,37,127
27264,note_on,,,,,416,0,1,,,,,0,,,64,125
27328,note_off,,,,,64,0,1,,,,,0,,,64,80
27328,note_off,,,,,0,0,1,,,,,0,,,61,80
27360,note_on,,,,,32,0,1,,,,,0,,,64,125
27424,note_off,,,,,64,0,1,,,,,0,,,64,80
27456,note_on,,,,,32,0,1,,,,,0,,,69,125
27520,note_off,,,,,64,0,1,,,,,0,,,69,80
27552,note_on,,,,,0,0,2,,,,,1,,,41,127
27552,note_on,,,,,288,0,2,,,,,1,,,29,127
27552,note_on,,,,,0,0,1,,,,,0,,,73,125
27552,note_on,,,,,32,0,1,,,,,0,,,76,125
27616,note_off,,,,,64,0,1,,,,,0,,,76,80
27616,note_off,,,,,0,0,1,,,,,0,,,73,80
27648,note_off,,,,,96,0,2,,,,,1,,,49,81
27648,note_on,,,,,32,0,1,,,,,0,,,76,125
27648,note_off,,,,,0,0,2,,,,,1,,,37,81
27680,note_off,,,,,0,0,2,,,,,1,,,29,81
27680,note_off,,,,,32,0,2,,,,,1,,,17,81
27712,note_off,,,,,64,0,1,,,,,0,,,76,80
27744,note_on,,,,,32,0,1,,,,,0,,,81,125
27808,note_off,,,,,64,0,1,,,,,0,,,81,80
27840,note_on,,,,,0,0,1,,,,,0,,,88,125
27840,note_on,,,,,32,0,1,,,,,0,,,85,125
27904,note_off,,,,,0,0,1,,,,,0,,,88,80
27904,note_off,,,,,64,0,1,,,,,0,,,85,80
27936,note_off,,,,,256,0,2,,,,,1,,,41,81
27936,note_on,,,,,32,0,1,,,,,0,,,76,125
28000,note_off,,,,,64,0,1,,,,,0,,,76,80
28032,note_on,,,,,0,0,2,,,,,1,,,41,127
28032,note_on,,,,,32,0,1,,,,,0,,,81,125
28032,note_on,,,,,96,0,2,,,,,1,,,29,127
28096,note_off,,,,,64,0,2,,,,,1,,,29,81
28096,note_off,,,,,0,0,2,,,,,1,,,41,81
28096,note_off,,,,,64,0,1,,,,,0,,,81,80
28128,note_on,,,,,0,0,1,,,,,0,,,88,125
28128,note_on,,,,,32,0,1,,,,,0,,,85,125
28128,note_on,,,,,0,0,2,,,,,1,,,41,127
28128,note_on,,,,,32,0,2,,,,,1,,,29,127
28192,note_off,,,,,0,0,1,,,,,0,,,88,80
28192,note_off,,,,,64,0,1,,,,,0,,,85,80
28224,note_on,,,,,32,0,1,,,,,0,,,81,125
28256,note_off,,,,,128,0,2,,,,,1,,,29,81
28288,note_off,,,,,64,0,1,,,,,0,,,81,80
28320,note_on,,,,,32,0,1,,,,,0,,,76,125
28384,note_off,,,,,64,0,1,,,,,0,,,76,80
28416,note_on,,,,,0,0,2,,,,,1,,,40,127
28416,note_on,,,,,0,0,1,,,,,0,,,73,125
28416,note_on,,,,,32,0,1,,,,,0,,,76,125
28416,note_on,,,,,160,0,2,,,,,1,,,28,127
28480,note_off,,,,,64,0,1,,,,,0,,,76,80
28480,note_off,,,,,0,0,1,,,,,0,,,73,80
28512,note_on,,,,,32,0,1,,,,,0,,,69,125
28544,note_off,,,,,128,0,2,,,,,1,,,28,81
28576,note_off,,,,,64,0,1,,,,,0,,,69,80
28608,note_on,,,,,32,0,1,,,,,0,,,64,125
28672,note_off,,,,,64,0,1,,,,,0,,,64,80
28704,note_on,,,,,32,0,1,,,,,0,,,76,125
28704,note_on,,,,,0,0,1,,,,,0,,,73,125
28704,note_on,,,,,160,0,2,,,,,1,,,49,127
28704,note_on,,,,,0,0,2,,,,,1,,,37,127
28768,note_off,,,,,0,0,1,,,,,0,,,73,80
28768,note_off,,,,,64,0,1,,,,,0,,,76,80
28800,note_on,,,,,32,0,1,,,,,0,,,69,125
28864,note_off,,,,,64,0,1,,,,,0,,,69,80
28896,note_on,,,,,32,0,1,,,,,0,,,64,125
28896,note_off,,,,,192,0,2,,,,,1,,,41,81
28960,note_off,,,,,64,0,1,,,,,0,,,64,80
28992,note_on,,,,,32,0,1,,,,,0,,,64,125
28992,note_on,,,,,0,0,1,,,,,0,,,61,125
29056,note_off,,,,,64,0,1,,,,,0,,,64,80
29056,note_off,,,,,0,0,1,,,,,0,,,61,80
29088,note_off,,,,,0,0,2,,,,,1,,,37,81
29088,note_off,,,,,192,0,2,,,,,1,,,49,81
29088,note_on,,,,,0,0,2,,,,,1,,,52,127
29152,note_off,,,,,64,0,2,,,,,1,,,52,81
29184,note_off,,,,,32,0,2,,,,,1,,,40,81
29184,note_on,,,,,0,0,2,,,,,1,,,48,127
29184,note_on,,,,,0,0,2,,,,,1,,,36,127
29280,note_on,,,,,224,0,1,,,,,0,,,55,125
29344,note_off,,,,,64,0,1,,,,,0,,,55,80
29376,note_on,,,,,32,0,1,,,,,0,,,58,125
29440,note_off,,,,,64,0,1,,,,,0,,,58,80
29472,note_on,,,,,0,0,1,,,,,0,,,64,125
29472,note_on,,,,,32,0,1,,,,,0,,,67,125
29536,note_off,,,,,64,0,1,,,,,0,,,67,80
29568,note_on,,,,,32,0,1,,,,,0,,,58,125
29600,note_off,,,,,32,0,1,,,,,0,,,64,80
29632,note_off,,,,,32,0,1,,,,,0,,,58,80
29664,note_on,,,,,32,0,1,,,,,0,,,55,125
29728,note_off,,,,,64,0,1,,,,,0,,,55,80
29952,note_on,,,,,0,0,2,,,,,1,,,49,127
29952,note_off,,,,,0,0,2,,,,,1,,,36,81
29952,note_off,,,,,768,0,2,,,,,1,,,48,81
29952,note_on,,,,,0,0,2,,,,,1,,,37,127
30048,note_on,,,,,320,0,1,,,,,0,,,68,125
30112,note_off,,,,,64,0,1,,,,,0,,,68,80
30144,note_on,,,,,32,0,1,,,,,0,,,70,125
30208,note_off,,,,,64,0,1,,,,,0,,,70,80
30240,note_on,,,,,0,0,1,,,,,0,,,76,125
30240,note_on,,,,,32,0,1,,,,,0,,,79,125
30304,note_off,,,,,64,0,1,,,,,0,,,79,80
30336,note_on,,,,,32,0,1,,,,,0,,,70,125
30368,note_off,,,,,32,0,1,,,,,0,,,76,80
30400,note_off,,,,,32,0,1,,,,,0,,,70,80
30432,note_on,,,,,32,0,1,,,,,0,,,68,125
30496,note_off,,,,,64,0,1,,,,,0,,,68,80
30720,note_on,,,,,0,0,2,,,,,1,,,55,127
30720,note_off,,,,,0,0,2,,,,,1,,,37,81
30720,note_on,,,,,0,0,2,,,,,1,,,43,127
30720,note_off,,,,,768,0,2,,,,,1,,,49,81
30816,note_on,,,,,320,0,1,,,,,0,,,79,125
30880,note_off,,,,,64,0,1,,,,,0,,,79,80
30912,note_on,,,,,32,0,1,,,,,0,,,82,125
30976,note_off,,,,,64,0,1,,,,,0,,,82,80
31008,note_on,,,,,32,0,1,,,,,0,,,88,125
31008,note_on,,,,,0,0,1,,,,,0,,,91,125
31072,note_off,,,,,64,0,1,,,,,0,,,88,80
31104,note_on,,,,,32,0,1,,,,,0,,,82,125
31136,note_off,,,,,32,0,1,,,,,0,,,91,80
31168,note_off,,,,,32,0,1,,,,,0,,,82,80
31200,note_on,,,,,32,0,1,,,,,0,,,79,125
31264,note_off,,,,,64,0,1,,,,,0,,,79,80
31488,note_off,,,,,0,0,2,,,,,1,,,43,81
31488,note_on,,,,,0,0,2,,,,,1,,,48,127
31488,note_off,,,,,768,0,2,,,,,1,,,55,81
31488,note_on,,,,,0,0,2,,,,,1,,,36,127
31584,note_on,,,,,320,0,1,,,,,0,,,92,125
31648,note_off,,,,,64,0,1,,,,,0,,,92,80
31680,note_on,,,,,32,0,1,,,,,0,,,94,125
31744,note_off,,,,,256,0,2,,,,,1,,,48,81
31744,note_off,,,,,0,0,2,,,,,1,,,36,81
31744,note_off,,,,,64,0,1,,,,,0,,,94,80
31776,note_on,,,,,32,0,1,,,,,0,,,100,125
31776,note_on,,,,,0,0,1,,,,,0,,,103,125
31840,note_off,,,,,64,0,1,,,,,0,,,100,80
31872,note_on,,,,,32,0,1,,,,,0,,,94,125
31872,note_on,,,,,0,0,2,,,,,1,,,37,127
31872,note_on,,,,,128,0,2,,,,,1,,,49,127
31904,note_off,,,,,32,0,1,,,,,0,,,103,80
31936,note_off,,,,,32,0,1,,,,,0,,,94,80
31968,note_on,,,,,32,0,1,,,,,0,,,92,125
32032,note_off,,,,,64,0,1,,,,,0,,,92,80
32256,note_on,,,,,384,0,2,,,,,1,,,49,127
32256,note_on,,,,,0,0,2,,,,,1,,,37,127
32384,note_off,,,,,0,0,2,,,,,1,,,37,81
32384,note_off,,,,,128,0,2,,,,,1,,,49,81
32384,note_off,,,,,0,0,2,,,,,1,,,49,81
32384,note_off,,,,,0,0,2,,,,,1,,,37,81
32448,note_on,,,,,64,0,2,,,,,1,,,53,127
32512,note_off,,,,,64,0,2,,,,,1,,,53,81
32544,note_on,,,,,32,0,2,,,,,1,,,58,127
32608,note_off,,,,,64,0,2,,,,,1,,,58,81
32640,note_on,,,,,32,0,2,,,,,1,,,50,127
32640,note_on,,,,,0,0,1,,,,,0,,,65,125
32640,note_on,,,,,0,0,2,,,,,1,,,38,127
32640,note_on,,,,,608,0,1,,,,,0,,,62,125
32704,note_off,,,,,64,0,1,,,,,0,,,62,80
32704,note_off,,,,,0,0,1,,,,,0,,,65,80
32736,note_on,,,,,32,0,1,,,,,0,,,65,125
32768,note_off,,,,,128,0,2,,,,,1,,,50,81
32768,note_off,,,,,0,0,2,,,,,1,,,38,81
32800,note_off,,,,,64,0,1,,,,,0,,,65,80
32832,note_on,,,,,32,0,1,,,,,0,,,70,125
32832,note_on,,,,,64,0,2,,,,,1,,,42,127
32896,note_off,,,,,64,0,1,,,,,0,,,70,80
32928,note_on,,,,,0,0,1,,,,,0,,,77,125
32928,note_on,,,,,32,0,1,,,,,0,,,74,125
32960,note_off,,,,,128,0,2,,,,,1,,,42,81
32992,note_off,,,,,64,0,1,,,,,0,,,74,80
32992,note_off,,,,,0,0,1,,,,,0,,,77,80
33024,note_on,,,,,32,0,1,,,,,0,,,78,125
33088,note_off,,,,,64,0,1,,,,,0,,,78,80
33120,note_on,,,,,32,0,1,,,,,0,,,82,125
33184,note_off,,,,,64,0,1,,,,,0,,,82,80
33216,note_on,,,,,32,0,1,,,,,0,,,86,125
33216,note_on,,,,,0,0,1,,,,,0,,,89,125
33280,note_off,,,,,64,0,1,,,,,0,,,86,80
33280,note_off,,,,,0,0,1,,,,,0,,,89,80
33312,note_on,,,,,32,0,1,,,,,0,,,89,125
33376,note_off,,,,,64,0,1,,,,,0,,,89,80
33408,note_on,,,,,32,0,1,,,,,0,,,94,125
33472,note_off,,,,,64,0,1,,,,,0,,,94,80
33504,note_on,,,,,32,0,1,,,,,0,,,98,125
33504,note_on,,,,,0,0,1,,,,,0,,,101,125
33568,note_off,,,,,64,0,1,,,,,0,,,98,80
33568,note_off,,,,,0,0,1,,,,,0,,,101,80
33600,note_on,,,,,640,0,2,,,,,1,,,30,127
33600,note_on,,,,,32,0,1,,,,,0,,,94,125
33600,note_on,,,,,0,0,2,,,,,1,,,42,127
33664,note_off,,,,,64,0,1,,,,,0,,,94,80
33696,note_on,,,,,32,0,1,,,,,0,,,89,125
33728,note_off,,,,,128,0,2,,,,,1,,,42,81
33760,note_off,,,,,64,0,1,,,,,0,,,89,80
33792,note_on,,,,,0,0,1,,,,,0,,,74,125
33792,note_on,,,,,64,0,2,,,,,1,,,41,127
33792,note_on,,,,,32,0,1,,,,,0,,,77,125
33796,note_off,,,,,4,0,2,,,,,1,,,30,81
33856,note_off,,,,,64,0,1,,,,,0,,,77,80
33856,note_off,,,,,0,0,1,,,,,0,,,74,80
33856,note_off,,,,,60,0,2,,,,,1,,,44,81
33888,note_on,,,,,32,0,1,,,,,0,,,70,125
33952,note_off,,,,,64,0,1,,,,,0,,,70,80
33984,note_on,,,,,32,0,1,,,,,0,,,65,125
34048,note_off,,,,,64,0,1,,,,,0,,,65,80
34080,note_on,,,,,0,0,1,,,,,0,,,77,125
34080,note_on,,,,,0,0,2,,,,,1,,,38,127
34080,note_on,,,,,224,0,2,,,,,1,,,50,127
34080,note_on,,,,,32,0,1,,,,,0,,,74,125
34144,note_off,,,,,0,0,1,,,,,0,,,77,80
34144,note_off,,,,,64,0,1,,,,,0,,,74,80
34176,note_on,,,,,32,0,1,,,,,0,,,70,125
34240,note_off,,,,,64,0,1,,,,,0,,,70,80
34272,note_on,,,,,32,0,1,,,,,0,,,65,125
34336,note_off,,,,,0,0,2,,,,,1,,,38,81
34336,note_off,,,,,256,0,2,,,,,1,,,50,81
34336,note_off,,,,,64,0,1,,,,,0,,,65,80
34368,note_on,,,,,32,0,2,,,,,1,,,58,127
34432,note_off,,,,,64,0,2,,,,,1,,,58,81
34464,note_on,,,,,32,0,2,,,,,1,,,53,127
34528,note_off,,,,,64,0,2,,,,,1,,,53,81
34560,note_on,,,,,0,0,2,,,,,1,,,36,127
34560,note_on,,,,,32,0,2,,,,,1,,,48,127
34656,note_on,,,,,320,0,1,,,,,0,,,55,125
34720,note_off,,,,,64,0,1,,,,,0,,,55,80
34752,note_on,,,,,32,0,1,,,,,0,,,58,125
34816,note_off,,,,,64,0,1,,,,,0,,,58,80
34820,note_off,,,,,260,0,2,,,,,1,,,41,81
34848,note_on,,,,,0,0,1,,,,,0,,,67,125
34848,note_on,,,,,32,0,1,,,,,0,,,64,125
34912,note_off,,,,,64,0,1,,,,,0,,,67,80
34944,note_on,,,,,32,0,1,,,,,0,,,58,125
34976,note_off,,,,,32,0,1,,,,,0,,,64,80
35008,note_off,,,,,32,0,1,,,,,0,,,58,80
35040,note_on,,,,,32,0,1,,,,,0,,,55,125
35104,note_off,,,,,64,0,1,,,,,0,,,55,80
35328,note_on,,,,,0,0,2,,,,,1,,,37,127
35328,note_on,,,,,508,0,2,,,,,1,,,49,127
35424,note_on,,,,,320,0,1,,,,,0,,,68,125
35488,note_off,,,,,64,0,1,,,,,0,,,68,80
35520,note_on,,,,,32,0,1,,,,,0,,,70,125
35584,note_off,,,,,64,0,1,,,,,0,,,70,80
35588,note_off,,,,,0,0,2,,,,,1,,,48,81
35588,note_off,,,,,260,0,2,,,,,1,,,36,81
35616,note_on,,,,,32,0,1,,,,,0,,,79,125
35616,note_on,,,,,0,0,1,,,,,0,,,76,125
35680,note_off,,,,,64,0,1,,,,,0,,,79,80
35712,note_on,,,,,32,0,1,,,,,0,,,70,125
35744,note_off,,,,,32,0,1,,,,,0,,,76,80
35776,note_off,,,,,32,0,1,,,,,0,,,70,80
35808,note_on,,,,,32,0,1,,,,,0,,,68,125
35872,note_off,,,,,64,0,1,,,,,0,,,68,80
36096,note_on,,,,,508,0,2,,,,,1,,,55,127
36096,note_on,,,,,0,0,2,,,,,1,,,43,127
36192,note_on,,,,,320,0,1,,,,,0,,,79,125
36256,note_off,,,,,64,0,1,,,,,0,,,79,80
36288,note_on,,,,,32,0,1,,,,,0,,,82,125
36352,note_off,,,,,64,0,1,,,,,0,,,82,80
36356,note_off,,,,,260,0,2,,,,,1,,,37,81
36356,note_off,,,,,0,0,2,,,,,1,,,49,81
36384,note_on,,,,,0,0,1,,,,,0,,,91,125
36384,note_on,,,,,32,0,1,,,,,0,,,88,125
36448,note_off,,,,,64,0,1,,,,,0,,,88,80
36480,note_on,,,,,32,0,1,,,,,0,,,82,125
36512,note_off,,,,,32,0,1,,,,,0,,,91,80
36544,note_off,,,,,32,0,1,,,,,0,,,82,80
36576,note_on,,,,,32,0,1,,,,,0,,,79,125
36640,note_off,,,,,64,0,1,,,,,0,,,79,80
36864,note_on,,,,,508,0,2,,,,,1,,,48,127
36864,note_on,,,,,0,0,2,,,,,1,,,36,127
36960,note_on,,,,,320,0,1,,,,,0,,,92,125
37024,note_off,,,,,64,0,1,,,,,0,,,92,80
37056,note_on,,,,,32,0,1,,,,,0,,,94,125
37120,note_off,,,,,64,0,1,,,,,0,,,94,80
37124,note_off,,,,,0,0,2,,,,,1,,,43,81
37124,note_off,,,,,260,0,2,,,,,1,,,55,81
37152,note_on,,,,,32,0,1,,,,,0,,,100,125
37152,note_on,,,,,0,0,1,,,,,0,,,103,125
37216,note_off,,,,,64,0,1,,,,,0,,,100,80
37248,note_on,,,,,32,0,1,,,,,0,,,94,125
37248,note_on,,,,,0,0,2,,,,,1,,,37,127
37248,note_on,,,,,124,0,2,,,,,1,,,49,127
37280,note_off,,,,,32,0,1,,,,,0,,,103,80
37312,note_off,,,,,32,0,1,,,,,0,,,94,80
37344,note_on,,,,,32,0,1,,,,,0,,,92,125
37408,note_off,,,,,64,0,1,,,,,0,,,92,80
37632,note_off,,,,,0,0,2,,,,,1,,,36,81
37632,note_off,,,,,384,0,2,,,,,1,,,48,81
37632,note_on,,,,,0,0,2,,,,,1,,,37,127
37632,note_on,,,,,0,0,2,,,,,1,,,49,127
37728,note_on,,,,,96,0,2,,,,,1,,,53,127
37760,note_off,,,,,0,0,2,,,,,1,,,37,81
37760,note_off,,,,,32,0,2,,,,,1,,,49,81
37792,note_off,,,,,32,0,2,,,,,1,,,53,81
37824,note_on,,,,,32,0,2,,,,,1,,,58,127
37888,note_off,,,,,64,0,2,,,,,1,,,58,81
37920,note_on,,,,,0,0,2,,,,,1,,,38,127
37920,note_on,,,,,512,0,1,,,,,0,,,65,125
37920,note_on,,,,,32,0,2,,,,,1,,,50,127
37920,note_on,,,,,0,0,1,,,,,0,,,62,125
37984,note_off,,,,,0,0,1,,,,,0,,,62,80
37984,note_off,,,,,64,0,1,,,,,0,,,65,80
38016,note_on,,,,,32,0,1,,,,,0,,,65,125
38016,note_off,,,,,0,0,2,,,,,1,,,37,81
38016,note_off,,,,,96,0,2,,,,,1,,,49,81
38080,note_off,,,,,64,0,1,,,,,0,,,65,80
38112,note_on,,,,,32,0,1,,,,,0,,,70,125
38176,note_off,,,,,64,0,1,,,,,0,,,70,80
38400,note_on,,,,,224,0,1,,,,,0,,,89,125
38400,note_on,,,,,0,0,1,,,,,0,,,86,125
38400,note_on,,,,,384,0,2,,,,,1,,,30,127
38400,note_on,,,,,0,0,2,,,,,1,,,42,127
38432,note_off,,,,,32,0,2,,,,,1,,,50,81
38432,note_off,,,,,0,0,2,,,,,1,,,38,81
38464,note_off,,,,,64,0,1,,,,,0,,,89,80
38464,note_off,,,,,0,0,1,,,,,0,,,86,80
38496,note_on,,,,,32,0,1,,,,,0,,,78,125
38528,note_off,,,,,96,0,2,,,,,1,,,30,81
38560,note_off,,,,,64,0,1,,,,,0,,,78,80
38592,note_on,,,,,32,0,1,,,,,0,,,82,125
38656,note_off,,,,,64,0,1,,,,,0,,,82,80
38688,note_on,,,,,0,0,1,,,,,0,,,89,125
38688,note_on,,,,,32,0,1,,,,,0,,,86,125
38752,note_off,,,,,64,0,1,,,,,0,,,86,80
38752,note_off,,,,,0,0,1,,,,,0,,,89,80
38784,note_on,,,,,0,0,2,,,,,1,,,42,127
38784,note_on,,,,,256,0,2,,,,,1,,,30,127
38784,note_on,,,,,32,0,1,,,,,0,,,89,125
38848,note_off,,,,,64,0,1,,,,,0,,,89,80
38848,note_off,,,,,64,0,2,,,,,1,,,30,81
38880,note_on,,,,,32,0,1,,,,,0,,,94,125
38944,note_off,,,,,64,0,1,,,,,0,,,94,80
39168,note_on,,,,,224,0,1,,,,,0,,,101,125
39168,note_on,,,,,0,0,2,,,,,1,,,30,127
39168,note_on,,,,,0,0,1,,,,,0,,,98,125
39168,note_on,,,,,0,0,2,,,,,1,,,43,127
39168,note_off,,,,,320,0,2,,,,,1,,,42,81
39232,note_off,,,,,64,0,1,,,,,0,,,101,80
39232,note_off,,,,,0,0,1,,,,,0,,,98,80
39264,note_on,,,,,32,0,1,,,,,0,,,94,125
39296,note_off,,,,,128,0,2,,,,,1,,,30,81
39296,note_off,,,,,0,0,2,,,,,1,,,43,81
39328,note_off,,,,,64,0,1,,,,,0,,,94,80
39360,note_on,,,,,32,0,1,,,,,0,,,89,125
39424,note_off,,,,,64,0,1,,,,,0,,,89,80
39456,note_on,,,,,0,0,2,,,,,1,,,41,127
39456,note_on,,,,,160,0,2,,,,,1,,,29,127
39456,note_on,,,,,0,0,1,,,,,0,,,86,125
39456,note_on,,,,,32,0,1,,,,,0,,,89,125
39520,note_off,,,,,64,0,1,,,,,0,,,89,80
39520,note_off,,,,,0,0,1,,,,,0,,,86,80
39552,note_on,,,,,32,0,1,,,,,0,,,82,125
39552,note_off,,,,,96,0,2,,,,,1,,,42,81
39584,note_off,,,,,32,0,2,,,,,1,,,29,81
39616,note_off,,,,,64,0,1,,,,,0,,,82,80
39648,note_on,,,,,32,0,1,,,,,0,,,77,125
39712,note_off,,,,,64,0,1,,,,,0,,,77,80
39936,note_on,,,,,224,0,1,,,,,0,,,78,125
39936,note_on,,,,,0,0,1,,,,,0,,,74,125
39936,note_on,,,,,352,0,2,,,,,1,,,50,127
39936,note_on,,,,,0,0,2,,,,,1,,,38,127
40000,note_off,,,,,64,0,1,,,,,0,,,78,80
40000,note_off,,,,,0,0,1,,,,,0,,,74,80
40032,note_on,,,,,32,0,1,,,,,0,,,70,125
40096,note_off,,,,,64,0,1,,,,,0,,,70,80
40128,note_on,,,,,32,0,1,,,,,0,,,65,125
40192,note_off,,,,,64,0,1,,,,,0,,,65,80
40224,note_on,,,,,32,0,1,,,,,0,,,65,125
40224,note_on,,,,,0,0,1,,,,,0,,,62,125
40288,note_off,,,,,64,0,1,,,,,0,,,65,80
40288,note_off,,,,,0,0,1,,,,,0,,,62,80
40320,note_on,,,,,384,0,2,,,,,1,,,58,127
40384,note_off,,,,,64,0,2,,,,,1,,,58,81
40416,note_on,,,,,32,0,2,,,,,1,,,53,127
40484,note_off,,,,,68,0,2,,,,,1,,,41,81
40672,note_off,,,,,188,0,2,,,,,1,,,53,81
40704,set_tempo,,,,,0,1,0,,500000,,,,,,,
40704,note_off,,,,,0,0,2,,,,,1,,,38,81
40704,time_signature,3,8,96,8,22272,1,0,,,,,,,,,
40704,note_on,,,,,0,0,2,,,,,1,,,49,127
40704,note_off,,,,,32,0,2,,,,,1,,,50,81
40704,note_on,,,,,0,0,2,,,,,1,,,37,127
40896,note_on,,,,,0,0,1,,,,,0,,,83,125
40896,note_on,,,,,608,0,1,,,,,0,,,71,125
40960,note_off,,,,,0,0,2,,,,,1,,,37,81
40960,note_off,,,,,256,0,2,,,,,1,,,49,81
41024,note_off,,,,,0,0,1,,,,,0,,,83,80
41024,note_off,,,,,128,0,1,,,,,0,,,71,80
41088,note_on,,,,,0,0,1,,,,,0,,,69,125
41088,note_on,,,,,0,0,1,,,,,0,,,86,125
41088,note_on,,,,,64,0,1,,,,,0,,,74,125
41088,note_on,,,,,0,0,1,,,,,0,,,62,125
41088,note_on,,,,,0,0,1,,,,,0,,,65,125
41088,note_on,,,,,0,0,1,,,,,0,,,59,125
41216,note_off,,,,,0,0,1,,,,,0,,,86,80
41216,note_off,,,,,128,0,1,,,,,0,,,74,80
41216,note_off,,,,,0,0,1,,,,,0,,,59,80
41216,note_off,,,,,0,0,1,,,,,0,,,62,80
41216,note_off,,,,,0,0,1,,,,,0,,,69,80
41216,note_off,,,,,0,0,1,,,,,0,,,65,80
41280,note_on,,,,,0,0,2,,,,,1,,,65,127
41280,note_on,,,,,64,0,1,,,,,0,,,93,125
41280,note_on,,,,,0,0,2,,,,,1,,,62,127
41280,note_on,,,,,0,0,2,,,,,1,,,59,127
41280,note_on,,,,,0,0,1,,,,,0,,,81,125
41280,note_on,,,,,320,0,2,,,,,1,,,69,127
41408,note_off,,,,,0,0,2,,,,,1,,,59,81
41408,note_off,,,,,0,0,2,,,,,1,,,62,81
41408,note_off,,,,,0,0,2,,,,,1,,,65,81
41408,note_off,,,,,128,0,2,,,,,1,,,69,81
41472,note_on,,,,,0,0,2,,,,,1,,,59,127
41472,note_on,,,,,0,0,2,,,,,1,,,62,127
41472,note_on,,,,,0,0,2,,,,,1,,,65,127
41472,note_on,,,,,64,0,2,,,,,1,,,69,127
41536,note_off,,,,,256,0,1,,,,,0,,,93,80
41536,note_off,,,,,0,0,1,,,,,0,,,81,80
41600,note_off,,,,,0,0,2,,,,,1,,,65,81
41600,note_off,,,,,0,0,2,,,,,1,,,62,81
41600,note_off,,,,,0,0,2,,,,,1,,,59,81
41600,note_off,,,,,128,0,2,,,,,1,,,69,81
41664,note_on,,,,,64,0,2,,,,,1,,,69,127
41664,note_on,,,,,0,0,1,,,,,0,,,80,125
41664,note_on,,,,,0,0,2,,,,,1,,,59,127
41664,note_on,,,,,0,0,2,,,,,1,,,62,127
41664,note_on,,,,,0,0,2,,,,,1,,,65,127
41664,note_on,,,,,128,0,1,,,,,0,,,92,125
41792,note_off,,,,,0,0,2,,,,,1,,,59,81
41792,note_off,,,,,0,0,1,,,,,0,,,80,80
41792,note_off,,,,,128,0,2,,,,,1,,,69,81
41792,note_off,,,,,0,0,2,,,,,1,,,65,81
41792,note_off,,,,,128,0,1,,,,,0,,,92,80
41792,note_off,,,,,0,0,2,,,,,1,,,62,81
41856,note_on,,,,,64,0,2,,,,,1,,,66,127
41856,note_on,,,,,0,0,2,,,,,1,,,59,127
41856,note_on,,,,,0,0,2,,,,,1,,,56,127
41856,note_on,,,,,64,0,1,,,,,0,,,78,125
41856,note_on,,,,,0,0,2,,,,,1,,,62,127
41920,note_off,,,,,64,0,1,,,,,0,,,78,80
41952,note_on,,,,,32,0,1,,,,,0,,,92,125
41984,note_off,,,,,0,0,2,,,,,1,,,62,81
41984,note_off,,,,,128,0,2,,,,,1,,,66,81
41984,note_off,,,,,0,0,2,,,,,1,,,56,81
41984,note_off,,,,,0,0,2,,,,,1,,,59,81
42016,note_off,,,,,64,0,1,,,,,0,,,92,80
42048,note_on,,,,,64,0,2,,,,,1,,,66,127
42048,note_on,,,,,0,0,2,,,,,1,,,62,127
42048,note_on,,,,,0,0,2,,,,,1,,,59,127
42048,note_on,,,,,0,0,2,,,,,1,,,56,127
42048,note_on,,,,,32,0,1,,,,,0,,,90,125
42048,note_on,,,,,0,0,1,,,,,0,,,78,125
42176,note_off,,,,,128,0,2,,,,,1,,,66,81
42176,note_off,,,,,128,0,1,,,,,0,,,90,80
42176,note_off,,,,,0,0,2,,,,,1,,,62,81
42176,note_off,,,,,0,0,1,,,,,0,,,78,80
42176,note_off,,,,,0,0,2,,,,,1,,,59,81
42176,note_off,,,,,0,0,2,,,,,1,,,56,81
42240,note_on,,,,,64,0,2,,,,,1,,,65,127
42240,note_on,,,,,0,0,2,,,,,1,,,59,127
42240,note_on,,,,,0,0,2,,,,,1,,,62,127
42240,note_on,,,,,64,0,1,,,,,0,,,77,125
42240,note_on,,,,,0,0,2,,,,,1,,,56,127
42240,note_on,,,,,0,0,1,,,,,0,,,89,125
42368,note_off,,,,,0,0,2,,,,,1,,,62,81
42368,note_off,,,,,0,0,2,,,,,1,,,56,81
42368,note_off,,,,,128,0,1,,,,,0,,,77,80
42368,note_off,,,,,0,0,1,,,,,0,,,89,80
42368,note_off,,,,,0,0,2,,,,,1,,,59,81
42368,note_off,,,,,128,0,2,,,,,1,,,65,81
42432,note_on,,,,,64,0,1,,,,,0,,,74,125
42432,note_on,,,,,64,0,2,,,,,1,,,53,127
42432,note_on,,,,,0,0,2,,,,,1,,,59,127
42432,note_on,,,,,0,0,2,,,,,1,,,62,127
42432,note_on,,,,,0,0,2,,,,,1,,,56,127
42496,note_off,,,,,64,0,1,,,,,0,,,74,80
42528,note_on,,,,,32,0,1,,,,,0,,,88,125
42560,note_off,,,,,0,0,2,,,,,1,,,59,81
42560,note_off,,,,,0,0,2,,,,,1,,,62,81
42560,note_off,,,,,0,0,2,,,,,1,,,56,81
42560,note_off,,,,,128,0,2,,,,,1,,,53,81
42592,note_off,,,,,64,0,1,,,,,0,,,88,80
42624,note_on,,,,,64,0,2,,,,,1,,,53,127
42624,note_on,,,,,0,0,2,,,,,1,,,56,127
42624,note_on,,,,,32,0,1,,,,,0,,,86,125
42624,note_on,,,,,0,0,1,,,,,0,,,74,125
42624,note_on,,,,,0,0,2,,,,,1,,,62,127
42624,note_on,,,,,0,0,2,,,,,1,,,59,127
42752,note_off,,,,,0,0,2,,,,,1,,,62,81
42752,note_off,,,,,128,0,1,,,,,0,,,86,80
42752,note_off,,,,,0,0,2,,,,,1,,,56,81
42752,note_off,,,,,0,0,1,,,,,0,,,74,80
42752,note_off,,,,,128,0,2,,,,,1,,,53,81
42752,note_off,,,,,0,0,2,,,,,1,,,59,81
42816,note_on,,,,,64,0,1,,,,,0,,,73,125
42816,note_on,,,,,0,0,2,,,,,1,,,61,127
42816,note_on,,,,,0,0,1,,,,,0,,,85,125
42816,note_on,,,,,0,0,2,,,,,1,,,59,127
42816,note_on,,,,,0,0,2,,,,,1,,,56,127
42816,note_on,,,,,64,0,2,,,,,1,,,53,127
42912,note_on,,,,,0,0,2,,,,,1,,,42,127
42912,note_on,,,,,96,0,2,,,,,1,,,54,127
42944,note_off,,,,,128,0,1,,,,,0,,,73,80
42944,note_off,,,,,32,0,2,,,,,1,,,53,81
42944,note_off,,,,,0,0,2,,,,,1,,,56,81
42944,note_off,,,,,0,0,2,,,,,1,,,61,81
42944,note_off,,,,,0,0,2,,,,,1,,,59,81
42944,note_off,,,,,0,0,1,,,,,0,,,85,80
43040,note_off,,,,,0,0,2,,,,,1,,,42,81
43040,note_off,,,,,96,0,2,,,,,1,,,54,81
43200,note_on,,,,,256,0,1,,,,,0,,,71,125
43200,note_on,,,,,0,0,1,,,,,0,,,83,125
43328,note_off,,,,,128,0,1,,,,,0,,,71,80
43328,note_off,,,,,0,0,1,,,,,0,,,83,80
43392,note_on,,,,,0,0,2,,,,,1,,,64,127
43392,note_on,,,,,352,0,2,,,,,1,,,68,127
43392,note_on,,,,,64,0,1,,,,,0,,,73,125
43392,note_on,,,,,0,0,1,,,,,0,,,85,125
43392,note_on,,,,,0,0,2,,,,,1,,,61,127
43392,note_on,,,,,0,0,2,,,,,1,,,59,127
43520,note_off,,,,,128,0,1,,,,,0,,,73,80
43520,note_off,,,,,0,0,2,,,,,1,,,61,81
43520,note_off,,,,,0,0,2,,,,,1,,,64,81
43520,note_off,,,,,0,0,1,,,,,0,,,85,80
43520,note_off,,,,,0,0,2,,,,,1,,,59,81
43520,note_off,,,,,128,0,2,,,,,1,,,68,81
43584,note_on,,,,,64,0,2,,,,,1,,,61,127
43584,note_on,,,,,0,0,2,,,,,1,,,59,127
43584,note_on,,,,,0,0,2,,,,,1,,,64,127
43584,note_on,,,,,64,0,1,,,,,0,,,92,125
43584,note_on,,,,,0,0,2,,,,,1,,,68,127
43584,note_on,,,,,0,0,1,,,,,0,,,80,125
43712,note_off,,,,,0,0,2,,,,,1,,,68,81
43712,note_off,,,,,0,0,2,,,,,1,,,64,81
43712,note_off,,,,,0,0,2,,,,,1,,,59,81
43712,note_off,,,,,128,0,2,,,,,1,,,61,81
43776,note_on,,,,,64,0,2,,,,,1,,,61,127
43776,note_on,,,,,0,0,2,,,,,1,,,59,127
43776,note_on,,,,,0,0,2,,,,,1,,,64,127
43776,note_on,,,,,0,0,2,,,,,1,,,68,127
43840,note_off,,,,,0,0,1,,,,,0,,,80,80
43840,note_off,,,,,256,0,1,,,,,0,,,92,80
43904,note_off,,,,,128,0,2,,,,,1,,,61,81
43904,note_off,,,,,0,0,2,,,,,1,,,68,81
43904,note_off,,,,,0,0,2,,,,,1,,,64,81
43904,note_off,,,,,0,0,2,,,,,1,,,59,81
43968,note_on,,,,,0,0,2,,,,,1,,,67,127
43968,note_on,,,,,128,0,1,,,,,0,,,91,125
43968,note_on,,,,,0,0,2,,,,,1,,,64,127
43968,note_on,,,,,64,0,2,,,,,1,,,61,127
43968,note_on,,,,,0,0,2,,,,,1,,,59,127
43968,note_on,,,,,0,0,1,,,,,0,,,79,125
44096,note_off,,,,,128,0,1,,,,,0,,,91,80
44096,note_off,,,,,0,0,2,,,,,1,,,67,81
44096,note_off,,,,,0,0,1,,,,,0,,,79,80
44096,note_off,,,,,0,0,2,,,,,1,,,59,81
44096,note_off,,,,,0,0,2,,,,,1,,,64,81
44096,note_off,,,,,128,0,2,,,,,1,,,61,81
44160,note_on,,,,,64,0,2,,,,,1,,,54,127
44160,note_on,,,,,0,0,2,,,,,1,,,42,127
44352,note_on,,,,,0,0,1,,,,,0,,,82,125
44352,note_on,,,,,256,0,1,,,,,0,,,70,125
44480,note_off,,,,,128,0,1,,,,,0,,,70,80
44480,note_off,,,,,0,0,1,,,,,0,,,82,80
44544,note_off,,,,,384,0,2,,,,,1,,,54,81
44544,note_on,,,,,0,0,1,,,,,0,,,61,125
44544,note_off,,,,,0,0,2,,,,,1,,,42,81
44544,note_on,,,,,0,0,1,,,,,0,,,67,125
44544,note_on,,,,,0,0,1,,,,,0,,,64,125
44544,note_on,,,,,0,0,1,,,,,0,,,58,125
44544,note_on,,,,,0,0,1,,,,,0,,,85,125
44544,note_on,,,,,64,0,1,,,,,0,,,73,125
44672,note_off,,,,,128,0,1,,,,,0,,,73,80
44672,note_off,,,,,0,0,1,,,,,0,,,58,80
44672,note_off,,,,,0,0,1,,,,,0,,,61,80
44672,note_off,,,,,0,0,1,,,,,0,,,64,80
44672,note_off,,,,,0,0,1,,,,,0,,,67,80
44672,note_off,,,,,0,0,1,,,,,0,,,85,80
44736,note_on,,,,,0,0,1,,,,,0,,,58,125
44736,note_on,,,,,0,0,1,,,,,0,,,64,125
44736,note_on,,,,,0,0,1,,,,,0,,,61,125
44736,note_on,,,,,0,0,1,,,,,0,,,67,125
44736,note_on,,,,,0,0,1,,,,,0,,,79,125
44736,note_on,,,,,64,0,1,,,,,0,,,91,125
44864,note_off,,,,,0,0,1,,,,,0,,,64,80
44864,note_off,,,,,0,0,1,,,,,0,,,58,80
44864,note_off,,,,,0,0,1,,,,,0,,,61,80
44864,note_off,,,,,128,0,1,,,,,0,,,67,80
44928,note_on,,,,,0,0,1,,,,,0,,,58,125
44928,note_on,,,,,0,0,1,,,,,0,,,61,125
44928,note_on,,,,,0,0,1,,,,,0,,,64,125
44928,note_on,,,,,64,0,1,,,,,0,,,67,125
44992,note_off,,,,,0,0,1,,,,,0,,,79,80
44992,note_off,,,,,64,0,1,,,,,0,,,91,80
45056,note_off,,,,,0,0,1,,,,,0,,,64,80
45056,note_off,,,,,64,0,1,,,,,0,,,67,80
45056,note_off,,,,,0,0,1,,,,,0,,,61,80
45056,note_off,,,,,0,0,1,,,,,0,,,58,80
45120,note_on,,,,,64,0,1,,,,,0,,,90,125
45120,note_on,,,,,0,0,1,,,,,0,,,78,125
45120,note_on,,,,,0,0,1,,,,,0,,,66,125
45120,note_on,,,,,0,0,1,,,,,0,,,58,125
45120,note_on,,,,,0,0,1,,,,,0,,,61,125
45120,note_on,,,,,0,0,1,,,,,0,,,64,125
45248,note_off,,,,,0,0,1,,,,,0,,,66,80
45248,note_off,,,,,0,0,1,,,,,0,,,58,80
45248,note_off,,,,,0,0,1,,,,,0,,,61,80
45248,note_off,,,,,128,0,1,,,,,0,,,90,80
45248,note_off,,,,,0,0,1,,,,,0,,,78,80
45248,note_off,,,,,0,0,1,,,,,0,,,64,80
45312,note_on,,,,,768,0,2,,,,,1,,,47,127
45312,note_on,,,,,0,0,2,,,,,1,,,35,127
45504,note_on,,,,,256,0,1,,,,,0,,,69,125
45504,note_on,,,,,0,0,1,,,,,0,,,81,125
45632,note_off,,,,,128,0,1,,,,,0,,,69,80
45632,note_off,,,,,0,0,1,,,,,0,,,81,80
45696,note_on,,,,,64,0,1,,,,,0,,,72,125
45696,note_off,,,,,384,0,2,,,,,1,,,47,81
45696,note_on,,,,,0,0,1,,,,,0,,,68,125
45696,note_on,,,,,0,0,1,,,,,0,,,63,125
45696,note_on,,,,,0,0,1,,,,,0,,,60,125
45696,note_on,,,,,0,0,1,,,,,0,,,57,125
45696,note_on,,,,,0,0,1,,,,,0,,,84,125
45696,note_off,,,,,0,0,2,,,,,1,,,35,81
45824,note_off,,,,,0,0,1,,,,,0,,,60,80
45824,note_off,,,,,0,0,1,,,,,0,,,84,80
45824,note_off,,,,,0,0,1,,,,,0,,,68,80
45824,note_off,,,,,0,0,1,,,,,0,,,63,80
45824,note_off,,,,,128,0,1,,,,,0,,,72,80
45824,note_off,,,,,0,0,1,,,,,0,,,57,80
45888,note_on,,,,,64,0,1,,,,,0,,,80,125
45888,note_on,,,,,192,0,2,,,,,1,,,68,127
45888,note_on,,,,,0,0,1,,,,,0,,,92,125
45888,note_on,,,,,0,0,2,,,,,1,,,57,127
45888,note_on,,,,,0,0,2,,,,,1,,,60,127
45888,note_on,,,,,0,0,2,,,,,1,,,63,127
46016,note_off,,,,,0,0,2,,,,,1,,,63,81
46016,note_off,,,,,0,0,2,,,,,1,,,60,81
46016,note_off,,,,,0,0,2,,,,,1,,,57,81
46016,note_off,,,,,128,0,2,,,,,1,,,68,81
46080,note_on,,,,,0,0,2,,,,,1,,,63,127
46080,note_on,,,,,64,0,2,,,,,1,,,68,127
46080,note_on,,,,,0,0,2,,,,,1,,,60,127
46080,note_on,,,,,0,0,2,,,,,1,,,57,127
46144,note_off,,,,,0,0,1,,,,,0,,,92,80
46144,note_off,,,,,256,0,1,,,,,0,,,80,80
46208,note_off,,,,,0,0,2,,,,,1,,,57,81
46208,note_off,,,,,128,0,2,,,,,1,,,68,81
46208,note_off,,,,,0,0,2,,,,,1,,,63,81
46208,note_off,,,,,0,0,2,,,,,1,,,60,81
46272,note_on,,,,,0,0,2,,,,,1,,,57,127
46272,note_on,,,,,0,0,2,,,,,1,,,60,127
46272,note_on,,,,,0,0,2,,,,,1,,,63,127
46272,note_on,,,,,0,0,1,,,,,0,,,90,125
46272,note_on,,,,,64,0,2,,,,,1,,,66,127
46272,note_on,,,,,128,0,1,,,,,0,,,78,125
46400,note_off,,,,,128,0,2,,,,,1,,,66,81
46400,note_off,,,,,0,0,2,,,,,1,,,57,81
46400,note_off,,,,,0,0,2,,,,,1,,,63,81
46400,note_off,,,,,128,0,1,,,,,0,,,78,80
46400,note_off,,,,,0,0,1,,,,,0,,,90,80
46400,note_off,,,,,0,0,2,,,,,1,,,60,81
46464,note_on,,,,,0,0,2,,,,,1,,,57,127
46464,note_on,,,,,0,0,2,,,,,1,,,60,127
46464,note_on,,,,,0,0,2,,,,,1,,,64,127
46464,note_on,,,,,64,0,2,,,,,1,,,54,127
46464,note_on,,,,,64,0,1,,,,,0,,,76,125
46528,note_off,,,,,64,0,1,,,,,0,,,76,80
46560,note_on,,,,,32,0,1,,,,,0,,,90,125
46592,note_off,,,,,0,0,2,,,,,1,,,57,81
46592,note_off,,,,,0,0,2,,,,,1,,,60,81
46592,note_off,,,,,0,0,2,,,,,1,,,64,81
46592,note_off,,,,,128,0,2,,,,,1,,,54,81
46624,note_off,,,,,64,0,1,,,,,0,,,90,80
46656,note_on,,,,,32,0,1,,,,,0,,,88,125
46656,note_on,,,,,64,0,2,,,,,1,,,57,127
46656,note_on,,,,,0,0,2,,,,,1,,,64,127
46656,note_on,,,,,0,0,1,,,,,0,,,76,125
46656,note_on,,,,,0,0,2,,,,,1,,,60,127
46656,note_on,,,,,0,0,2,,,,,1,,,54,127
46784,note_off,,,,,0,0,1,,,,,0,,,76,80
46784,note_off,,,,,0,0,2,,,,,1,,,54,81
46784,note_off,,,,,128,0,1,,,,,0,,,88,80
46784,note_off,,,,,128,0,2,,,,,1,,,57,81
46784,note_off,,,,,0,0,2,,,,,1,,,60,81
46784,note_off,,,,,0,0,2,,,,,1,,,64,81
46848,note_on,,,,,0,0,2,,,,,1,,,57,127
46848,note_on,,,,,0,0,2,,,,,1,,,60,127
46848,note_on,,,,,64,0,2,,,,,1,,,54,127
46848,note_on,,,,,0,0,1,,,,,0,,,87,125
46848,note_on,,,,,64,0,1,,,,,0,,,75,125
46848,note_on,,,,,0,0,2,,,,,1,,,63,127
46976,note_off,,,,,0,0,2,,,,,1,,,60,81
46976,note_off,,,,,0,0,2,,,,,1,,,57,81
46976,note_off,,,,,0,0,2,,,,,1,,,63,81
46976,note_off,,,,,128,0,2,,,,,1,,,54,81
46976,note_off,,,,,0,0,1,,,,,0,,,87,80
46976,note_off,,,,,128,0,1,,,,,0,,,75,80
47040,note_on,,,,,64,0,2,,,,,1,,,51,127
47040,note_on,,,,,64,0,1,,,,,0,,,72,125
47040,note_on,,,,,0,0,2,,,,,1,,,54,127
47040,note_on,,,,,0,0,2,,,,,1,,,60,127
47040,note_on,,,,,0,0,2,,,,,1,,,57,127
47104,note_off,,,,,64,0,1,,,,,0,,,72,80
47136,note_on,,,,,32,0,1,,,,,0,,,86,125
47168,note_off,,,,,0,0,2,,,,,1,,,60,81
47168,note_off,,,,,0,0,2,,,,,1,,,57,81
47168,note_off,,,,,128,0,2,,,,,1,,,51,81
47168,note_off,,,,,0,0,2,,,,,1,,,54,81
47200,note_off,,,,,64,0,1,,,,,0,,,86,80
47232,note_on,,,,,64,0,2,,,,,1,,,51,127
47232,note_on,,,,,32,0,1,,,,,0,,,84,125
47232,note_on,,,,,0,0,2,,,,,1,,,54,127
47232,note_on,,,,,0,0,2,,,,,1,,,57,127
47232,note_on,,,,,0,0,2,,,,,1,,,60,127
47232,note_on,,,,,0,0,1,,,,,0,,,72,125
47360,note_off,,,,,128,0,1,,,,,0,,,84,80
47360,note_off,,,,,128,0,2,,,,,1,,,51,81
47360,note_off,,,,,0,0,2,,,,,1,,,54,81
47360,note_off,,,,,0,0,1,,,,,0,,,72,80
47360,note_off,,,,,0,0,2,,,,,1,,,60,81
47360,note_off,,,,,0,0,2,,,,,1,,,57,81
47424,note_on,,,,,0,0,2,,,,,1,,,59,127
47424,note_on,,,,,0,0,2,,,,,1,,,57,127
47424,note_on,,,,,0,0,2,,,,,1,,,54,127
47424,note_on,,,,,64,0,1,,,,,0,,,71,125
47424,note_on,,,,,64,0,2,,,,,1,,,51,127
47424,note_on,,,,,0,0,1,,,,,0,,,83,125
47552,note_off,,,,,128,0,1,,,,,0,,,71,80
47552,note_off,,,,,0,0,1,,,,,0,,,83,80
47552,note_off,,,,,0,0,2,,,,,1,,,54,81
47552,note_off,,,,,128,0,2,,,,,1,,,51,81
47552,note_off,,,,,0,0,2,,,,,1,,,57,81
47552,note_off,,,,,0,0,2,,,,,1,,,59,81
47616,note_on,,,,,64,0,2,,,,,1,,,52,127
47616,note_on,,,,,0,0,2,,,,,1,,,40,127
47808,note_on,,,,,256,0,1,,,,,0,,,69,125
47808,note_on,,,,,0,0,1,,,,,0,,,81,125
47936,note_off,,,,,128,0,1,,,,,0,,,69,80
47936,note_off,,,,,0,0,1,,,,,0,,,81,80
48000,note_off,,,,,384,0,2,,,,,1,,,52,81
48000,note_on,,,,,0,0,2,,,,,1,,,57,127
48000,note_on,,,,,0,0,2,,,,,1,,,59,127
48000,note_on,,,,,0,0,2,,,,,1,,,62,127
48000,note_on,,,,,64,0,1,,,,,0,,,71,125
48000,note_on,,,,,0,0,2,,,,,1,,,66,127
48000,note_on,,,,,0,0,1,,,,,0,,,83,125
48000,note_off,,,,,0,0,2,,,,,1,,,40,81
48128,note_off,,,,,128,0,2,,,,,1,,,57,81
48128,note_off,,,,,0,0,1,,,,,0,,,83,80
48128,note_off,,,,,0,0,2,,,,,1,,,66,81
48128,note_off,,,,,0,0,2,,,,,1,,,62,81
48128,note_off,,,,,0,0,2,,,,,1,,,59,81
48128,note_off,,,,,128,0,1,,,,,0,,,71,80
48192,note_on,,,,,0,0,2,,,,,1,,,59,127
48192,note_on,,,,,0,0,2,,,,,1,,,66,127
48192,note_on,,,,,0,0,2,,,,,1,,,62,127
48192,note_on,,,,,64,0,1,,,,,0,,,78,125
48192,note_on,,,,,0,0,1,,,,,0,,,90,125
48192,note_on,,,,,64,0,2,,,,,1,,,57,127
48320,note_off,,,,,128,0,2,,,,,1,,,57,81
48320,note_off,,,,,0,0,2,,,,,1,,,66,81
48320,note_off,,,,,0,0,2,,,,,1,,,62,81
48320,note_off,,,,,0,0,2,,,,,1,,,59,81
48384,note_on,,,,,0,0,2,,,,,1,,,66,127
48384,note_on,,,,,0,0,2,,,,,1,,,62,127
48384,note_on,,,,,0,0,2,,,,,1,,,59,127
48384,note_on,,,,,64,0,2,,,,,1,,,57,127
48448,note_off,,,,,0,0,1,,,,,0,,,90,80
48448,note_off,,,,,256,0,1,,,,,0,,,78,80
48512,note_off,,,,,128,0,2,,,,,1,,,57,81
48512,note_off,,,,,0,0,2,,,,,1,,,62,81
48512,note_off,,,,,0,0,2,,,,,1,,,59,81
48512,note_off,,,,,0,0,2,,,,,1,,,66,81
48576,note_on,,,,,0,0,2,,,,,1,,,62,127
48576,note_on,,,,,0,0,2,,,,,1,,,65,127
48576,note_on,,,,,0,0,2,,,,,1,,,59,127
48576,note_on,,,,,0,0,1,,,,,0,,,89,125
48576,note_on,,,,,64,0,2,,,,,1,,,57,127
48576,note_on,,,,,128,0,1,,,,,0,,,77,125
48704,note_off,,,,,0,0,2,,,,,1,,,59,81
48704,note_off,,,,,128,0,2,,,,,1,,,57,81
48704,note_off,,,,,0,0,2,,,,,1,,,62,81
48704,note_off,,,,,0,0,2,,,,,1,,,65,81
48704,note_off,,,,,128,0,1,,,,,0,,,77,80
48704,note_off,,,,,0,0,1,,,,,0,,,89,80
48768,note_on,,,,,0,0,2,,,,,1,,,40,127
48768,note_on,,,,,64,0,2,,,,,1,,,52,127
48960,note_on,,,,,0,0,1,,,,,0,,,80,125
48960,note_on,,,,,256,0,1,,,,,0,,,68,125
49088,note_off,,,,,0,0,1,,,,,0,,,80,80
49088,note_off,,,,,128,0,1,,,,,0,,,68,80
49152,note_off,,,,,0,0,2,,,,,1,,,40,81
49152,note_off,,,,,384,0,2,,,,,1,,,52,81
49152,note_on,,,,,64,0,1,,,,,0,,,71,125
49152,note_on,,,,,0,0,2,,,,,1,,,56,127
49152,note_on,,,,,0,0,2,,,,,1,,,59,127
49152,note_on,,,,,0,0,2,,,,,1,,,62,127
49152,note_on,,,,,0,0,2,,,,,1,,,65,127
49152,note_on,,,,,0,0,1,,,,,0,,,83,125
49280,note_off,,,,,0,0,1,,,,,0,,,83,80
49280,note_off,,,,,128,0,2,,,,,1,,,56,81
49280,note_off,,,,,128,0,1,,,,,0,,,71,80
49280,note_off,,,,,0,0,2,,,,,1,,,59,81
49280,note_off,,,,,0,0,2,,,,,1,,,62,81
49280,note_off,,,,,0,0,2,,,,,1,,,65,81
49344,note_on,,,,,64,0,1,,,,,0,,,77,125
49344,note_on,,,,,0,0,2,,,,,1,,,65,127
49344,note_on,,,,,64,0,2,,,,,1,,,56,127
49344,note_on,,,,,0,0,1,,,,,0,,,89,125
49344,note_on,,,,,0,0,2,,,,,1,,,62,127
49344,note_on,,,,,0,0,2,,,,,1,,,59,127
49472,note_off,,,,,0,0,2,,,,,1,,,59,81
49472,note_off,,,,,0,0,2,,,,,1,,,62,81
49472,note_off,,,,,0,0,2,,,,,1,,,65,81
49472,note_off,,,,,128,0,2,,,,,1,,,56,81
49536,note_on,,,,,0,0,2,,,,,1,,,59,127
49536,note_on,,,,,0,0,2,,,,,1,,,62,127
49536,note_on,,,,,0,0,2,,,,,1,,,65,127
49536,note_on,,,,,64,0,2,,,,,1,,,56,127
49600,note_off,,,,,256,0,1,,,,,0,,,77,80
49600,note_off,,,,,0,0,1,,,,,0,,,89,80
49664,note_off,,,,,0,0,2,,,,,1,,,65,81
49664,note_off,,,,,128,0,2,,,,,1,,,56,81
49664,note_off,,,,,0,0,2,,,,,1,,,62,81
49664,note_off,,,,,0,0,2,,,,,1,,,59,81
49728,note_on,,,,,64,0,2,,,,,1,,,56,127
49728,note_on,,,,,0,0,2,,,,,1,,,62,127
49728,note_on,,,,,0,0,2,,,,,1,,,64,127
49728,note_on,,,,,128,0,1,,,,,0,,,76,125
49728,note_on,,,,,0,0,2,,,,,1,,,59,127
49728,note_on,,,,,0,0,1,,,,,0,,,88,125
49856,note_off,,,,,0,0,2,,,,,1,,,62,81
49856,note_off,,,,,0,0,2,,,,,1,,,59,81
49856,note_off,,,,,128,0,1,,,,,0,,,76,80
49856,note_off,,,,,0,0,2,,,,,1,,,64,81
49856,note_off,,,,,0,0,1,,,,,0,,,88,80
49856,note_off,,,,,128,0,2,,,,,1,,,56,81
49920,note_on,,,,,64,0,2,,,,,1,,,46,127
49920,note_on,,,,,0,0,2,,,,,1,,,34,127
50112,note_on,,,,,256,0,1,,,,,0,,,67,125
50112,note_on,,,,,0,0,1,,,,,0,,,79,125
50240,note_off,,,,,0,0,1,,,,,0,,,79,80
50240,note_off,,,,,128,0,1,,,,,0,,,67,80
50304,note_on,,,,,0,0,2,,,,,1,,,55,127
50304,note_on,,,,,0,0,2,,,,,1,,,58,127
50304,note_on,,,,,0,0,2,,,,,1,,,65,127
50304,note_on,,,,,0,0,2,,,,,1,,,61,127
50304,note_on,,,,,0,0,1,,,,,0,,,82,125
50304,note_on,,,,,64,0,1,,,,,0,,,70,125
50304,note_off,,,,,0,0,2,,,,,1,,,34,81
50304,note_off,,,,,384,0,2,,,,,1,,,46,81
50432,note_off,,,,,0,0,2,,,,,1,,,61,81
50432,note_off,,,,,0,0,2,,,,,1,,,65,81
50432,note_off,,,,,0,0,2,,,,,1,,,58,81
50432,note_off,,,,,0,0,1,,,,,0,,,82,80
50432,note_off,,,,,128,0,1,,,,,0,,,70,80
50432,note_off,,,,,128,0,2,,,,,1,,,55,81
50496,note_on,,,,,0,0,2,,,,,1,,,58,127
50496,note_on,,,,,0,0,2,,,,,1,,,65,127
50496,note_on,,,,,0,0,1,,,,,0,,,77,125
50496,note_on,,,,,64,0,2,,,,,1,,,55,127
50496,note_on,,,,,64,0,1,,,,,0,,,89,125
50496,note_on,,,,,0,0,2,,,,,1,,,61,127
50624,note_off,,,,,0,0,2,,,,,1,,,65,81
50624,note_off,,,,,0,0,2,,,,,1,,,61,81
50624,note_off,,,,,0,0,2,,,,,1,,,58,81
50624,note_off,,,,,128,0,2,,,,,1,,,55,81
50688,note_on,,,,,0,0,2,,,,,1,,,58,127
50688,note_on,,,,,0,0,2,,,,,1,,,65,127
50688,note_on,,,,,64,0,2,,,,,1,,,55,127
50688,note_on,,,,,0,0,2,,,,,1,,,61,127
50752,note_off,,,,,0,0,1,,,,,0,,,77,80
50752,note_off,,,,,256,0,1,,,,,0,,,89,80
50816,note_off,,,,,0,0,2,,,,,1,,,58,81
50816,note_off,,,,,0,0,2,,,,,1,,,61,81
50816,note_off,,,,,0,0,2,,,,,1,,,65,81
50816,note_off,,,,,128,0,2,,,,,1,,,55,81
50880,note_on,,,,,0,0,1,,,,,0,,,76,125
50880,note_on,,,,,0,0,2,,,,,1,,,64,127
50880,note_on,,,,,64,0,2,,,,,1,,,55,127
50880,note_on,,,,,0,0,2,,,,,1,,,61,127
50880,note_on,,,,,0,0,2,,,,,1,,,58,127
50880,note_on,,,,,128,0,1,,,,,0,,,88,125
51008,note_off,,,,,0,0,2,,,,,1,,,64,81
51008,note_off,,,,,0,0,2,,,,,1,,,58,81
51008,note_off,,,,,128,0,2,,,,,1,,,55,81
51008,note_off,,,,,0,0,2,,,,,1,,,61,81
51008,note_off,,,,,128,0,1,,,,,0,,,88,80
51008,note_off,,,,,0,0,1,,,,,0,,,76,80
51072,note_on,,,,,0,0,1,,,,,0,,,87,125
51072,note_on,,,,,0,0,2,,,,,1,,,63,127
51072,note_on,,,,,64,0,2,,,,,1,,,55,127
51072,note_on,,,,,64,0,1,,,,,0,,,75,125
51072,note_on,,,,,0,0,2,,,,,1,,,58,127
51200,note_off,,,,,0,0,1,,,,,0,,,87,80
51200,note_off,,,,,128,0,2,,,,,1,,,55,81
51200,note_off,,,,,0,0,2,,,,,1,,,63,81
51200,note_off,,,,,0,0,2,,,,,1,,,58,81
51200,note_off,,,,,128,0,1,,,,,0,,,75,80
51264,note_on,,,,,0,0,2,,,,,1,,,62,127
51264,note_on,,,,,0,0,1,,,,,0,,,86,125
51264,note_on,,,,,64,0,1,,,,,0,,,74,125
51264,note_on,,,,,0,0,2,,,,,1,,,58,127
51264,note_on,,,,,64,0,2,,,,,1,,,55,127
51392,note_off,,,,,0,0,2,,,,,1,,,58,81
51392,note_off,,,,,0,0,1,,,,,0,,,86,80
51392,note_off,,,,,0,0,2,,,,,1,,,62,81
51392,note_off,,,,,128,0,1,,,,,0,,,74,80
51392,note_off,,,,,128,0,2,,,,,1,,,55,81
51456,note_on,,,,,64,0,2,,,,,1,,,55,127
51456,note_on,,,,,0,0,2,,,,,1,,,58,127
51456,note_on,,,,,0,0,1,,,,,0,,,85,125
51456,note_on,,,,,0,0,2,,,,,1,,,61,127
51456,note_on,,,,,64,0,1,,,,,0,,,73,125
51584,note_off,,,,,128,0,1,,,,,0,,,73,80
51584,note_off,,,,,0,0,2,,,,,1,,,58,81
51584,note_off,,,,,0,0,2,,,,,1,,,61,81
51584,note_off,,,,,128,0,2,,,,,1,,,55,81
51584,note_off,,,,,0,0,1,,,,,0,,,85,80
51648,note_on,,,,,64,0,1,,,,,0,,,77,125
51648,note_on,,,,,0,0,2,,,,,1,,,58,127
51648,note_on,,,,,0,0,2,,,,,1,,,61,127
51648,note_on,,,,,0,0,2,,,,,1,,,65,127
51648,note_on,,,,,64,0,2,,,,,1,,,55,127
51648,note_on,,,,,0,0,1,,,,,0,,,89,125
51648,note_on,,,,,0,0,1,,,,,0,,,85,125
51648,note_on,,,,,0,0,1,,,,,0,,,82,125
51904,note_off,,,,,0,0,1,,,,,0,,,89,80
51904,note_off,,,,,256,0,2,,,,,1,,,55,81
51904,note_off,,,,,0,0,2,,,,,1,,,61,81
51904,note_off,,,,,0,0,1,,,,,0,,,85,80
51904,note_off,,,,,0,0,2,,,,,1,,,65,81
51904,note_off,,,,,0,0,2,,,,,1,,,58,81
51904,note_off,,,,,256,0,1,,,,,0,,,77,80
51904,note_off,,,,,0,0,1,,,,,0,,,82,80
52032,note_on,,,,,128,0,2,,,,,1,,,64,127
52032,note_on,,,,,128,0,1,,,,,0,,,76,125
52032,note_on,,,,,0,0,1,,,,,0,,,88,125
52160,note_off,,,,,128,0,1,,,,,0,,,76,80
52160,note_off,,,,,0,0,1,,,,,0,,,88,80
52160,note_off,,,,,128,0,2,,,,,1,,,64,81
52224,note_on,,,,,0,0,2,,,,,1,,,34,127
52224,note_on,,,,,64,0,2,,,,,1,,,46,127
52416,note_on,,,,,0,0,1,,,,,0,,,79,125
52416,note_on,,,,,256,0,1,,,,,0,,,67,125
52544,note_off,,,,,0,0,1,,,,,0,,,79,80
52544,note_off,,,,,128,0,1,,,,,0,,,67,80
52608,note_on,,,,,64,0,1,,,,,0,,,70,125
52608,note_off,,,,,0,0,2,,,,,1,,,34,81
52608,note_on,,,,,0,0,1,,,,,0,,,82,125
52608,note_on,,,,,0,0,2,,,,,1,,,61,127
52608,note_on,,,,,0,0,2,,,,,1,,,58,127
52608,note_on,,,,,0,0,2,,,,,1,,,55,127
52608,note_on,,,,,0,0,2,,,,,1,,,65,127
52608,note_off,,,,,384,0,2,,,,,1,,,46,81
52736,note_off,,,,,128,0,2,,,,,1,,,55,81
52736,note_off,,,,,0,0,2,,,,,1,,,65,81
52736,note_off,,,,,0,0,2,,,,,1,,,61,81
52736,note_off,,,,,0,0,2,,,,,1,,,58,81
52736,note_off,,,,,0,0,1,,,,,0,,,82,80
52736,note_off,,,,,128,0,1,,,,,0,,,70,80
52800,note_on,,,,,0,0,2,,,,,1,,,61,127
52800,note_on,,,,,0,0,2,,,,,1,,,58,127
52800,note_on,,,,,0,0,1,,,,,0,,,77,125
52800,note_on,,,,,64,0,2,,,,,1,,,55,127
52800,note_on,,,,,64,0,1,,,,,0,,,89,125
52800,note_on,,,,,0,0,2,,,,,1,,,65,127
52928,note_off,,,,,0,0,2,,,,,1,,,58,81
52928,note_off,,,,,128,0,2,,,,,1,,,55,81
52928,note_off,,,,,0,0,2,,,,,1,,,61,81
52928,note_off,,,,,0,0,2,,,,,1,,,65,81
52992,note_on,,,,,64,0,2,,,,,1,,,55,127
52992,note_on,,,,,0,0,2,,,,,1,,,61,127
52992,note_on,,,,,0,0,2,,,,,1,,,58,127
52992,note_on,,,,,0,0,2,,,,,1,,,65,127
53056,note_off,,,,,0,0,1,,,,,0,,,77,80
53056,note_off,,,,,256,0,1,,,,,0,,,89,80
53120,note_off,,,,,0,0,2,,,,,1,,,65,81
53120,note_off,,,,,0,0,2,,,,,1,,,61,81
53120,note_off,,,,,0,0,2,,,,,1,,,58,81
53120,note_off,,,,,128,0,2,,,,,1,,,55,81
53184,note_on,,,,,0,0,2,,,,,1,,,58,127
53184,note_on,,,,,0,0,2,,,,,1,,,64,127
53184,note_on,,,,,128,0,1,,,,,0,,,88,125
53184,note_on,,,,,0,0,1,,,,,0,,,76,125
53184,note_on,,,,,0,0,2,,,,,1,,,61,127
53184,note_on,,,,,64,0,2,,,,,1,,,55,127
53312,note_off,,,,,128,0,1,,,,,0,,,88,80
53312,note_off,,,,,0,0,1,,,,,0,,,76,80
53312,note_off,,,,,128,0,2,,,,,1,,,55,81
53312,note_off,,,,,0,0,2,,,,,1,,,64,81
53312,note_off,,,,,0,0,2,,,,,1,,,61,81
53312,note_off,,,,,0,0,2,,,,,1,,,58,81
53376,note_on,,,,,0,0,1,,,,,0,,,75,125
53376,note_on,,,,,64,0,2,,,,,1,,,55,127
53376,note_on,,,,,64,0,1,,,,,0,,,87,125
53376,note_on,,,,,0,0,2,,,,,1,,,58,127
53376,note_on,,,,,0,0,2,,,,,1,,,63,127
53504,note_off,,,,,128,0,1,,,,,0,,,87,80
53504,note_off,,,,,0,0,2,,,,,1,,,58,81
53504,note_off,,,,,0,0,1,,,,,0,,,75,80
53504,note_off,,,,,0,0,2,,,,,1,,,63,81
53504,note_off,,,,,128,0,2,,,,,1,,,55,81
53568,note_on,,,,,64,0,2,,,,,1,,,55,127
53568,note_on,,,,,0,0,2,,,,,1,,,58,127
53568,note_on,,,,,0,0,2,,,,,1,,,62,127
53568,note_on,,,,,64,0,1,,,,,0,,,86,125
53568,note_on,,,,,0,0,1,,,,,0,,,74,125
53696,note_off,,,,,0,0,2,,,,,1,,,58,81
53696,note_off,,,,,128,0,2,,,,,1,,,55,81
53696,note_off,,,,,0,0,1,,,,,0,,,74,80
53696,note_off,,,,,0,0,2,,,,,1,,,62,81
53696,note_off,,,,,128,0,1,,,,,0,,,86,80
53760,note_on,,,,,0,0,1,,,,,0,,,73,125
53760,note_on,,,,,64,0,2,,,,,1,,,55,127
53760,note_on,,,,,64,0,1,,,,,0,,,85,125
53760,note_on,,,,,0,0,2,,,,,1,,,58,127
53760,note_on,,,,,0,0,2,,,,,1,,,61,127
53888,note_off,,,,,0,0,1,,,,,0,,,73,80
53888,note_off,,,,,128,0,2,,,,,1,,,55,81
53888,note_off,,,,,0,0,2,,,,,1,,,61,81
53888,note_off,,,,,0,0,2,,,,,1,,,58,81
53888,note_off,,,,,128,0,1,,,,,0,,,85,80
53952,note_on,,,,,64,0,2,,,,,1,,,55,127
53952,note_on,,,,,64,0,1,,,,,0,,,89,125
53952,note_on,,,,,0,0,2,,,,,1,,,65,127
53952,note_on,,,,,0,0,2,,,,,1,,,58,127
53952,note_on,,,,,0,0,1,,,,,0,,,85,125
53952,note_on,,,,,0,0,1,,,,,0,,,82,125
53952,note_on,,,,,0,0,1,,,,,0,,,77,125
53952,note_on,,,,,0,0,2,,,,,1,,,61,127
54208,note_off,,,,,0,0,1,,,,,0,,,85,80
54208,note_off,,,,,0,0,1,,,,,0,,,82,80
54208,note_off,,,,,0,0,2,,,,,1,,,65,81
54208,note_off,,,,,0,0,2,,,,,1,,,61,81
54208,note_off,,,,,0,0,1,,,,,0,,,77,80
54208,note_off,,,,,0,0,2,,,,,1,,,58,81
54208,note_off,,,,,256,0,2,,,,,1,,,55,81
54208,note_off,,,,,256,0,1,,,,,0,,,89,80
54336,note_on,,,,,128,0,2,,,,,1,,,64,127
54336,note_on,,,,,128,0,1,,,,,0,,,76,125
54336,note_on,,,,,0,0,1,,,,,0,,,88,125
54464,note_off,,,,,128,0,2,,,,,1,,,64,81
54464,note_off,,,,,0,0,1,,,,,0,,,88,80
54464,note_off,,,,,128,0,1,,,,,0,,,76,80
54528,note_on,,,,,64,0,1,,,,,0,,,89,125
54528,note_on,,,,,0,0,1,,,,,0,,,77,125
54528,note_on,,,,,64,0,2,,,,,1,,,49,127
54656,note_off,,,,,0,0,1,,,,,0,,,77,80
54656,note_off,,,,,128,0,1,,,,,0,,,89,80
54656,note_off,,,,,128,0,2,,,,,1,,,49,81
54720,note_on,,,,,64,0,1,,,,,0,,,73,125
54720,note_on,,,,,64,0,2,,,,,1,,,58,127
54720,note_on,,,,,0,0,2,,,,,1,,,65,127
54720,note_on,,,,,0,0,1,,,,,0,,,85,125
54720,note_on,,,,,0,0,1,,,,,0,,,82,125
54848,note_off,,,,,0,0,1,,,,,0,,,82,80
54848,note_off,,,,,128,0,1,,,,,0,,,73,80
54848,note_off,,,,,0,0,1,,,,,0,,,85,80
54848,note_off,,,,,128,0,2,,,,,1,,,58,81
54848,note_off,,,,,0,0,2,,,,,1,,,65,81
54912,note_on,,,,,0,0,1,,,,,0,,,82,125
54912,note_on,,,,,0,0,1,,,,,0,,,85,125
54912,note_on,,,,,0,0,2,,,,,1,,,65,127
54912,note_on,,,,,64,0,1,,,,,0,,,73,125
54912,note_on,,,,,64,0,2,,,,,1,,,61,127
55040,note_off,,,,,128,0,1,,,,,0,,,73,80
55040,note_off,,,,,0,0,2,,,,,1,,,65,81
55040,note_off,,,,,0,0,1,,,,,0,,,82,80
55040,note_off,,,,,0,0,1,,,,,0,,,85,80
55040,note_off,,,,,128,0,2,,,,,1,,,61,81
55104,note_on,,,,,0,0,1,,,,,0,,,89,125
55104,note_on,,,,,64,0,2,,,,,1,,,49,127
55104,note_on,,,,,64,0,1,,,,,0,,,77,125
55232,note_off,,,,,128,0,2,,,,,1,,,49,81
55232,note_off,,,,,128,0,1,,,,,0,,,77,80
55232,note_off,,,,,0,0,1,,,,,0,,,89,80
55296,note_on,,,,,0,0,1,,,,,0,,,82,125
55296,note_on,,,,,0,0,1,,,,,0,,,88,125
55296,note_on,,,,,0,0,2,,,,,1,,,64,127
55296,note_on,,,,,64,0,2,,,,,1,,,55,127
55296,note_on,,,,,64,0,1,,,,,0,,,76,125
55424,note_off,,,,,0,0,2,,,,,1,,,64,81
55424,note_off,,,,,128,0,1,,,,,0,,,76,80
55424,note_off,,,,,0,0,1,,,,,0,,,88,80
55424,note_off,,,,,0,0,1,,,,,0,,,82,80
55424,note_off,,,,,128,0,2,,,,,1,,,55,81
55488,note_on,,,,,0,0,1,,,,,0,,,82,125
55488,note_on,,,,,0,0,1,,,,,0,,,88,125
55488,note_on,,,,,64,0,1,,,,,0,,,76,125
55488,note_on,,,,,64,0,2,,,,,1,,,58,127
55488,note_on,,,,,0,0,2,,,,,1,,,64,127
55616,note_off,,,,,128,0,1,,,,,0,,,76,80
55616,note_off,,,,,0,0,2,,,,,1,,,64,81
55616,note_off,,,,,0,0,1,,,,,0,,,88,80
55616,note_off,,,,,0,0,1,,,,,0,,,82,80
55616,note_off,,,,,128,0,2,,,,,1,,,58,81
55680,note_on,,,,,0,0,1,,,,,0,,,89,125
55680,note_on,,,,,64,0,1,,,,,0,,,77,125
55680,note_on,,,,,64,0,2,,,,,1,,,49,127
55808,note_off,,,,,128,0,1,,,,,0,,,77,80
55808,note_off,,,,,0,0,1,,,,,0,,,89,80
55808,note_off,,,,,128,0,2,,,,,1,,,49,81
55872,note_on,,,,,64,0,2,,,,,1,,,58,127
55872,note_on,,,,,0,0,2,,,,,1,,,65,127
55872,note_on,,,,,0,0,1,,,,,0,,,82,125
55872,note_on,,,,,0,0,1,,,,,0,,,85,125
55872,note_on,,,,,64,0,1,,,,,0,,,73,125
56000,note_off,,,,,0,0,1,,,,,0,,,82,80
56000,note_off,,,,,0,0,2,,,,,1,,,65,81
56000,note_off,,,,,128,0,1,,,,,0,,,73,80
56000,note_off,,,,,128,0,2,,,,,1,,,58,81
56000,note_off,,,,,0,0,1,,,,,0,,,85,80
56064,note_on,,,,,0,0,1,,,,,0,,,82,125
56064,note_on,,,,,0,0,1,,,,,0,,,85,125
56064,note_on,,,,,64,0,1,,,,,0,,,73,125
56064,note_on,,,,,64,0,2,,,,,1,,,61,127
56064,note_on,,,,,0,0,2,,,,,1,,,65,127
56192,note_off,,,,,128,0,1,,,,,0,,,73,80
56192,note_off,,,,,0,0,1,,,,,0,,,82,80
56192,note_off,,,,,0,0,2,,,,,1,,,65,81
56192,note_off,,,,,0,0,1,,,,,0,,,85,80
56192,note_off,,,,,128,0,2,,,,,1,,,61,81
56256,note_on,,,,,0,0,1,,,,,0,,,89,125
56256,note_on,,,,,64,0,1,,,,,0,,,77,125
56256,note_on,,,,,64,0,2,,,,,1,,,49,127
56384,note_off,,,,,0,0,1,,,,,0,,,89,80
56384,note_off,,,,,128,0,2,,,,,1,,,49,81
56384,note_off,,,,,128,0,1,,,,,0,,,77,80
56448,note_on,,,,,64,0,2,,,,,1,,,55,127
56448,note_on,,,,,0,0,1,,,,,0,,,82,125
56448,note_on,,,,,0,0,1,,,,,0,,,88,125
56448,note_on,,,,,0,0,2,,,,,1,,,64,127
56448,note_on,,,,,64,0,1,,,,,0,,,76,125
56576,note_off,,,,,128,0,2,,,,,1,,,55,81
56576,note_off,,,,,128,0,1,,,,,0,,,76,80
56576,note_off,,,,,0,0,2,,,,,1,,,64,81
56576,note_off,,,,,0,0,1,,,,,0,,,82,80
56576,note_off,,,,,0,0,1,,,,,0,,,88,80
56640,note_on,,,,,0,0,1,,,,,0,,,82,125
56640,note_on,,,,,0,0,1,,,,,0,,,88,125
56640,note_on,,,,,64,0,1,,,,,0,,,76,125
56640,note_on,,,,,64,0,2,,,,,1,,,58,127
56640,note_on,,,,,0,0,2,,,,,1,,,64,127
56768,note_off,,,,,0,0,1,,,,,0,,,88,80
56768,note_off,,,,,0,0,2,,,,,1,,,64,81
56768,note_off,,,,,128,0,2,,,,,1,,,58,81
56768,note_off,,,,,128,0,1,,,,,0,,,76,80
56768,note_off,,,,,0,0,1,,,,,0,,,82,80
56832,note_on,,,,,64,0,2,,,,,1,,,52,127
56832,note_on,,,,,64,0,1,,,,,0,,,80,125
56832,note_on,,,,,0,0,1,,,,,0,,,92,125
56960,note_off,,,,,128,0,2,,,,,1,,,52,81
56960,note_off,,,,,128,0,1,,,,,0,,,80,80
56960,note_off,,,,,0,0,1,,,,,0,,,92,80
57024,note_on,,,,,0,0,2,,,,,1,,,68,127
57024,note_on,,,,,0,0,1,,,,,0,,,88,125
57024,note_on,,,,,0,0,1,,,,,0,,,85,125
57024,note_on,,,,,64,0,1,,,,,0,,,76,125
57024,note_on,,,,,64,0,2,,,,,1,,,61,127
57152,note_off,,,,,128,0,1,,,,,0,,,76,80
57152,note_off,,,,,0,0,1,,,,,0,,,85,80
57152,note_off,,,,,0,0,1,,,,,0,,,88,80
57152,note_off,,,,,0,0,2,,,,,1,,,68,81
57152,note_off,,,,,128,0,2,,,,,1,,,61,81
57216,note_on,,,,,0,0,1,,,,,0,,,85,125
57216,note_on,,,,,64,0,1,,,,,0,,,76,125
57216,note_on,,,,,64,0,2,,,,,1,,,68,127
57216,note_on,,,,,0,0,2,,,,,1,,,64,127
57216,note_on,,,,,0,0,1,,,,,0,,,88,125
57344,note_off,,,,,128,0,1,,,,,0,,,76,80
57344,note_off,,,,,0,0,2,,,,,1,,,64,81
57344,note_off,,,,,0,0,1,,,,,0,,,85,80
57344,note_off,,,,,0,0,1,,,,,0,,,88,80
57344,note_off,,,,,128,0,2,,,,,1,,,68,81
57408,note_on,,,,,0,0,1,,,,,0,,,92,125
57408,note_on,,,,,64,0,1,,,,,0,,,80,125
57408,note_on,,,,,64,0,2,,,,,1,,,52,127
57536,note_off,,,,,128,0,2,,,,,1,,,52,81
57536,note_off,,,,,0,0,1,,,,,0,,,92,80
57536,note_off,,,,,128,0,1,,,,,0,,,80,80
57600,note_on,,,,,0,0,2,,,,,1,,,67,127
57600,note_on,,,,,64,0,1,,,,,0,,,79,125
57600,note_on,,,,,0,0,1,,,,,0,,,85,125
57600,note_on,,,,,0,0,1,,,,,0,,,91,125
57600,note_on,,,,,64,0,2,,,,,1,,,58,127
57728,note_off,,,,,0,0,1,,,,,0,,,85,80
57728,note_off,,,,,128,0,2,,,,,1,,,58,81
57728,note_off,,,,,0,0,2,,,,,1,,,67,81
57728,note_off,,,,,128,0,1,,,,,0,,,79,80
57728,note_off,,,,,0,0,1,,,,,0,,,91,80
57792,note_on,,,,,0,0,1,,,,,0,,,85,125
57792,note_on,,,,,0,0,2,,,,,1,,,67,127
57792,note_on,,,,,64,0,1,,,,,0,,,79,125
57792,note_on,,,,,64,0,2,,,,,1,,,64,127
57792,note_on,,,,,0,0,1,,,,,0,,,91,125
57920,note_off,,,,,0,0,1,,,,,0,,,85,80
57920,note_off,,,,,128,0,1,,,,,0,,,79,80
57920,note_off,,,,,0,0,1,,,,,0,,,91,80
57920,note_off,,,,,0,0,2,,,,,1,,,67,81
57920,note_off,,,,,128,0,2,,,,,1,,,64,81
57984,note_on,,,,,0,0,1,,,,,0,,,92,125
57984,note_on,,,,,64,0,1,,,,,0,,,80,125
57984,note_on,,,,,64,0,2,,,,,1,,,52,127
58112,note_off,,,,,128,0,2,,,,,1,,,52,81
58112,note_off,,,,,128,0,1,,,,,0,,,80,80
58112,note_off,,,,,0,0,1,,,,,0,,,92,80
58176,note_on,,,,,0,0,1,,,,,0,,,88,125
58176,note_on,,,,,0,0,1,,,,,0,,,85,125
58176,note_on,,,,,64,0,1,,,,,0,,,76,125
58176,note_on,,,,,64,0,2,,,,,1,,,61,127
58176,note_on,,,,,0,0,2,,,,,1,,,68,127
58304,note_off,,,,,128,0,2,,,,,1,,,61,81
58304,note_off,,,,,0,0,2,,,,,1,,,68,81
58304,note_off,,,,,0,0,1,,,,,0,,,85,80
58304,note_off,,,,,128,0,1,,,,,0,,,76,80
58304,note_off,,,,,0,0,1,,,,,0,,,88,80
58368,note_on,,,,,0,0,2,,,,,1,,,68,127
58368,note_on,,,,,64,0,1,,,,,0,,,76,125
58368,note_on,,,,,64,0,2,,,,,1,,,64,127
58368,note_on,,,,,0,0,1,,,,,0,,,88,125
58368,note_on,,,,,0,0,1,,,,,0,,,85,125
58496,note_off,,,,,0,0,1,,,,,0,,,85,80
58496,note_off,,,,,0,0,1,,,,,0,,,88,80
58496,note_off,,,,,0,0,2,,,,,1,,,68,81
58496,note_off,,,,,128,0,2,,,,,1,,,64,81
58496,note_off,,,,,128,0,1,,,,,0,,,76,80
58560,note_on,,,,,64,0,1,,,,,0,,,80,125
58560,note_on,,,,,64,0,2,,,,,1,,,52,127
58560,note_on,,,,,0,0,1,,,,,0,,,92,125
58688,note_off,,,,,128,0,2,,,,,1,,,52,81
58688,note_off,,,,,128,0,1,,,,,0,,,80,80
58688,note_off,,,,,0,0,1,,,,,0,,,92,80
58752,note_on,,,,,64,0,2,,,,,1,,,58,127
58752,note_on,,,,,0,0,1,,,,,0,,,91,125
58752,note_on,,,,,0,0,1,,,,,0,,,85,125
58752,note_on,,,,,0,0,2,,,,,1,,,67,127
58752,note_on,,,,,64,0,1,,,,,0,,,79,125
58880,note_off,,,,,128,0,2,,,,,1,,,58,81
58880,note_off,,,,,0,0,1,,,,,0,,,91,80
58880,note_off,,,,,0,0,1,,,,,0,,,85,80
58880,note_off,,,,,128,0,1,,,,,0,,,79,80
58880,note_off,,,,,0,0,2,,,,,1,,,67,81
58944,note_on,,,,,0,0,2,,,,,1,,,64,127
58944,note_on,,,,,64,0,1,,,,,0,,,79,125
58944,note_on,,,,,0,0,1,,,,,0,,,91,125
58944,note_on,,,,,0,0,1,,,,,0,,,85,125
58944,note_on,,,,,64,0,2,,,,,1,,,67,127
59072,note_off,,,,,0,0,1,,,,,0,,,85,80
59072,note_off,,,,,0,0,1,,,,,0,,,91,80
59072,note_off,,,,,128,0,2,,,,,1,,,67,81
59072,note_off,,,,,0,0,2,,,,,1,,,64,81
59072,note_off,,,,,128,0,1,,,,,0,,,79,80
59136,note_on,,,,,64,0,1,,,,,0,,,83,125
59136,note_on,,,,,64,0,2,,,,,1,,,55,127
59136,note_on,,,,,0,0,1,,,,,0,,,95,125
59264,note_off,,,,,128,0,2,,,,,1,,,55,81
59264,note_off,,,,,0,0,1,,,,,0,,,95,80
59264,note_off,,,,,128,0,1,,,,,0,,,83,80
59328,note_on,,,,,0,0,1,,,,,0,,,88,125
59328,note_on,,,,,0,0,2,,,,,1,,,71,127
59328,note_on,,,,,64,0,2,,,,,1,,,64,127
59328,note_on,,,,,64,0,1,,,,,0,,,79,125
59328,note_on,,,,,0,0,1,,,,,0,,,91,125
59456,note_off,,,,,0,0,1,,,,,0,,,88,80
59456,note_off,,,,,128,0,2,,,,,1,,,64,81
59456,note_off,,,,,128,0,1,,,,,0,,,79,80
59456,note_off,,,,,0,0,2,,,,,1,,,71,81
59456,note_off,,,,,0,0,1,,,,,0,,,91,80
59520,note_on,,,,,64,0,2,,,,,1,,,67,127
59520,note_on,,,,,0,0,1,,,,,0,,,91,125
59520,note_on,,,,,0,0,1,,,,,0,,,88,125
59520,note_on,,,,,0,0,2,,,,,1,,,71,127
59520,note_on,,,,,64,0,1,,,,,0,,,79,125
59648,note_off,,,,,128,0,1,,,,,0,,,79,80
59648,note_off,,,,,128,0,2,,,,,1,,,67,81
59648,note_off,,,,,0,0,1,,,,,0,,,88,80
59648,note_off,,,,,0,0,1,,,,,0,,,91,80
59648,note_off,,,,,0,0,2,,,,,1,,,71,81
59712,note_on,,,,,64,0,2,,,,,1,,,55,127
59712,note_on,,,,,0,0,1,,,,,0,,,95,125
59712,note_on,,,,,64,0,1,,,,,0,,,83,125
59840,note_off,,,,,128,0,2,,,,,1,,,55,81
59840,note_off,,,,,128,0,1,,,,,0,,,83,80
59840,note_off,,,,,0,0,1,,,,,0,,,95,80
59904,note_on,,,,,0,0,2,,,,,1,,,70,127
59904,note_on,,,,,64,0,1,,,,,0,,,82,125
59904,note_on,,,,,0,0,1,,,,,0,,,88,125
59904,note_on,,,,,0,0,1,,,,,0,,,94,125
59904,note_on,,,,,64,0,2,,,,,1,,,61,127
60032,note_off,,,,,0,0,1,,,,,0,,,88,80
60032,note_off,,,,,128,0,1,,,,,0,,,82,80
60032,note_off,,,,,0,0,2,,,,,1,,,70,81
60032,note_off,,,,,128,0,2,,,,,1,,,61,81
60032,note_off,,,,,0,0,1,,,,,0,,,94,80
60096,note_on,,,,,0,0,1,,,,,0,,,94,125
60096,note_on,,,,,0,0,1,,,,,0,,,88,125
60096,note_on,,,,,0,0,2,,,,,1,,,70,127
60096,note_on,,,,,64,0,1,,,,,0,,,82,125
60096,note_on,,,,,64,0,2,,,,,1,,,64,127
60224,note_off,,,,,128,0,2,,,,,1,,,64,81
60224,note_off,,,,,0,0,2,,,,,1,,,70,81
60224,note_off,,,,,128,0,1,,,,,0,,,82,80
60224,note_off,,,,,0,0,1,,,,,0,,,94,80
60224,note_off,,,,,0,0,1,,,,,0,,,88,80
60288,note_on,,,,,0,0,1,,,,,0,,,98,125
60288,note_on,,,,,64,0,2,,,,,1,,,58,127
60288,note_on,,,,,64,0,1,,,,,0,,,86,125
60416,note_off,,,,,128,0,2,,,,,1,,,58,81
60416,note_off,,,,,128,0,1,,,,,0,,,86,80
60416,note_off,,,,,0,0,1,,,,,0,,,98,80
60480,note_on,,,,,0,0,1,,,,,0,,,91,125
60480,note_on,,,,,64,0,2,,,,,1,,,67,127
60480,note_on,,,,,64,0,1,,,,,0,,,82,125
60480,note_on,,,,,0,0,1,,,,,0,,,94,125
60480,note_on,,,,,0,0,2,,,,,1,,,74,127
60608,note_off,,,,,0,0,1,,,,,0,,,94,80
60608,note_off,,,,,128,0,1,,,,,0,,,82,80
60608,note_off,,,,,0,0,2,,,,,1,,,74,81
60608,note_off,,,,,0,0,1,,,,,0,,,91,80
60608,note_off,,,,,128,0,2,,,,,1,,,67,81
60672,note_on,,,,,64,0,1,,,,,0,,,82,125
60672,note_on,,,,,0,0,2,,,,,1,,,74,127
60672,note_on,,,,,64,0,2,,,,,1,,,70,127
60672,note_on,,,,,0,0,1,,,,,0,,,91,125
60672,note_on,,,,,0,0,1,,,,,0,,,94,125
60800,note_off,,,,,128,0,1,,,,,0,,,82,80
60800,note_off,,,,,0,0,1,,,,,0,,,91,80
60800,note_off,,,,,0,0,1,,,,,0,,,94,80
60800,note_off,,,,,0,0,2,,,,,1,,,74,81
60800,note_off,,,,,128,0,2,,,,,1,,,70,81
60864,note_on,,,,,64,0,1,,,,,0,,,86,125
60864,note_on,,,,,0,0,1,,,,,0,,,98,125
60864,note_on,,,,,64,0,2,,,,,1,,,58,127
60992,note_off,,,,,0,0,1,,,,,0,,,98,80
60992,note_off,,,,,128,0,2,,,,,1,,,58,81
60992,note_off,,,,,128,0,1,,,,,0,,,86,80
61056,note_on,,,,,0,0,1,,,,,0,,,97,125
61056,note_on,,,,,0,0,1,,,,,0,,,91,125
61056,note_on,,,,,64,0,1,,,,,0,,,85,125
61056,note_on,,,,,0,0,2,,,,,1,,,73,127
61056,note_on,,,,,64,0,2,,,,,1,,,64,127
61184,note_off,,,,,0,0,2,,,,,1,,,73,81
61184,note_off,,,,,128,0,2,,,,,1,,,64,81
61184,note_off,,,,,128,0,1,,,,,0,,,85,80
61184,note_off,,,,,0,0,1,,,,,0,,,91,80
61184,note_off,,,,,0,0,1,,,,,0,,,97,80
61248,note_on,,,,,64,0,2,,,,,1,,,73,127
61248,note_on,,,,,64,0,1,,,,,0,,,85,125
61248,note_on,,,,,0,0,1,,,,,0,,,91,125
61248,note_on,,,,,0,0,1,,,,,0,,,97,125
61248,note_on,,,,,0,0,2,,,,,1,,,67,127
61376,note_off,,,,,128,0,2,,,,,1,,,73,81
61376,note_off,,,,,0,0,1,,,,,0,,,97,80
61376,note_off,,,,,0,0,1,,,,,0,,,91,80
61376,note_off,,,,,0,0,2,,,,,1,,,67,81
61376,note_off,,,,,128,0,1,,,,,0,,,85,80
61440,note_on,,,,,64,0,2,,,,,1,,,61,127
61440,note_on,,,,,64,0,1,,,,,0,,,89,125
61440,note_on,,,,,0,0,1,,,,,0,,,101,125
61568,note_off,,,,,128,0,2,,,,,1,,,61,81
61568,note_off,,,,,128,0,1,,,,,0,,,89,80
61568,note_off,,,,,0,0,1,,,,,0,,,101,80
61632,note_on,,,,,0,0,2,,,,,1,,,77,127
61632,note_on,,,,,64,0,2,,,,,1,,,70,127
61632,note_on,,,,,0,0,1,,,,,0,,,94,125
61632,note_on,,,,,64,0,1,,,,,0,,,85,125
61632,note_on,,,,,0,0,1,,,,,0,,,97,125
61760,note_off,,,,,128,0,1,,,,,0,,,85,80
61760,note_off,,,,,128,0,2,,,,,1,,,70,81
61760,note_off,,,,,0,0,2,,,,,1,,,77,81
61760,note_off,,,,,0,0,1,,,,,0,,,97,80
61760,note_off,,,,,0,0,1,,,,,0,,,94,80
61824,note_on,,,,,0,0,1,,,,,0,,,97,125
61824,note_on,,,,,0,0,2,,,,,1,,,73,127
61824,note_on,,,,,64,0,1,,,,,0,,,85,125
61824,note_on,,,,,64,0,2,,,,,1,,,77,127
61824,note_on,,,,,0,0,1,,,,,0,,,94,125
61952,note_off,,,,,0,0,2,,,,,1,,,73,81
61952,note_off,,,,,128,0,2,,,,,1,,,77,81
61952,note_off,,,,,128,0,1,,,,,0,,,85,80
61952,note_off,,,,,0,0,1,,,,,0,,,97,80
61952,note_off,,,,,0,0,1,,,,,0,,,94,80
62016,note_on,,,,,0,0,1,,,,,0,,,101,125
62016,note_on,,,,,64,0,1,,,,,0,,,89,125
62016,note_on,,,,,64,0,2,,,,,1,,,61,127
62144,note_off,,,,,128,0,1,,,,,0,,,89,80
62144,note_off,,,,,0,0,1,,,,,0,,,101,80
62144,note_off,,,,,128,0,2,,,,,1,,,61,81
62208,note_on,,,,,0,0,1,,,,,0,,,94,125
62208,note_on,,,,,0,0,1,,,,,0,,,100,125
62208,note_on,,,,,0,0,2,,,,,1,,,76,127
62208,note_on,,,,,64,0,1,,,,,0,,,88,125
62208,note_on,,,,,64,0,2,,,,,1,,,67,127
62336,note_off,,,,,0,0,2,,,,,1,,,76,81
62336,note_off,,,,,128,0,2,,,,,1,,,67,81
62336,note_off,,,,,0,0,1,,,,,0,,,100,80
62336,note_off,,,,,0,0,1,,,,,0,,,94,80
62336,note_off,,,,,128,0,1,,,,,0,,,88,80
62400,note_on,,,,,0,0,2,,,,,1,,,70,127
62400,note_on,,,,,0,0,1,,,,,0,,,100,125
62400,note_on,,,,,0,0,1,,,,,0,,,94,125
62400,note_on,,,,,64,0,1,,,,,0,,,88,125
62400,note_on,,,,,64,0,2,,,,,1,,,76,127
62528,note_off,,,,,0,0,1,,,,,0,,,100,80
62528,note_off,,,,,0,0,2,,,,,1,,,70,81
62528,note_off,,,,,128,0,2,,,,,1,,,76,81
62528,note_off,,,,,0,0,1,,,,,0,,,94,80
62528,note_off,,,,,128,0,1,,,,,0,,,88,80
62592,note_on,,,,,64,0,1,,,,,0,,,89,125
62592,note_on,,,,,0,0,1,,,,,0,,,101,125
62592,note_on,,,,,64,0,2,,,,,1,,,61,127
62720,note_off,,,,,128,0,1,,,,,0,,,89,80
62720,note_off,,,,,0,0,1,,,,,0,,,101,80
62720,note_off,,,,,128,0,2,,,,,1,,,61,81
62784,note_on,,,,,64,0,1,,,,,0,,,94,125
62784,note_on,,,,,0,0,2,,,,,1,,,77,127
62784,note_on,,,,,0,0,1,,,,,0,,,97,125
62784,note_on,,,,,64,0,2,,,,,1,,,70,127
62912,note_off,,,,,128,0,1,,,,,0,,,94,80
62912,note_off,,,,,128,0,2,,,,,1,,,70,81
62912,note_off,,,,,0,0,2,,,,,1,,,77,81
62912,note_off,,,,,0,0,1,,,,,0,,,97,80
62976,note_on,,,,,0,0,1,,,,,0,,,97,125
62976,note_on,,,,,64,0,1,,,,,0,,,94,125
62976,note_on,,,,,0,0,2,,,,,1,,,77,127
62976,note_on,,,,,64,0,2,,,,,1,,,73,127
63104,note_off,,,,,0,0,1,,,,,0,,,97,80
63104,note_off,,,,,128,0,1,,,,,0,,,94,80
63104,note_off,,,,,0,0,2,,,,,1,,,77,81
63104,note_off,,,,,128,0,2,,,,,1,,,73,81
63168,note_on,,,,,0,0,1,,,,,0,,,101,125
63168,note_on,,,,,64,0,2,,,,,1,,,61,127
63168,note_on,,,,,64,0,1,,,,,0,,,89,125
63296,note_off,,,,,0,0,1,,,,,0,,,101,80
63296,note_off,,,,,128,0,2,,,,,1,,,61,81
63296,note_off,,,,,128,0,1,,,,,0,,,89,80
63360,note_on,,,,,64,0,1,,,,,0,,,88,125
63360,note_on,,,,,0,0,1,,,,,0,,,100,125
63360,note_on,,,,,0,0,1,,,,,0,,,94,125
63360,note_on,,,,,0,0,2,,,,,1,,,76,127
63360,note_on,,,,,64,0,2,,,,,1,,,67,127
63488,note_off,,,,,0,0,1,,,,,0,,,100,80
63488,note_off,,,,,128,0,1,,,,,0,,,88,80
63488,note_off,,,,,0,0,1,,,,,0,,,94,80
63488,note_off,,,,,0,0,2,,,,,1,,,76,81
63488,note_off,,,,,128,0,2,,,,,1,,,67,81
63552,note_on,,,,,0,0,2,,,,,1,,,70,127
63552,note_on,,,,,64,0,1,,,,,0,,,88,125
63552,note_on,,,,,64,0,2,,,,,1,,,76,127
63552,note_on,,,,,0,0,1,,,,,0,,,100,125
63552,note_on,,,,,0,0,1,,,,,0,,,94,125
63680,note_off,,,,,0,0,1,,,,,0,,,94,80
63680,note_off,,,,,128,0,1,,,,,0,,,88,80
63680,note_off,,,,,128,0,2,,,,,1,,,76,81
63680,note_off,,,,,0,0,1,,,,,0,,,100,80
63680,note_off,,,,,0,0,2,,,,,1,,,70,81
63744,note_on,,,,,0,0,1,,,,,0,,,101,125
63744,note_on,,,,,64,0,2,,,,,1,,,61,127
63744,note_on,,,,,64,0,1,,,,,0,,,89,125
63872,note_off,,,,,128,0,1,,,,,0,,,89,80
63872,note_off,,,,,128,0,2,,,,,1,,,61,81
63872,note_off,,,,,0,0,1,,,,,0,,,101,80
63936,note_on,,,,,0,0,1,,,,,0,,,94,125
63936,note_on,,,,,64,0,2,,,,,1,,,67,127
63936,note_on,,,,,0,0,2,,,,,1,,,70,127
63936,note_on,,,,,0,0,1,,,,,0,,,100,125
63936,note_on,,,,,64,0,1,,,,,0,,,88,125
63936,note_on,,,,,0,0,2,,,,,1,,,76,127
64064,note_off,,,,,0,0,2,,,,,1,,,70,81
64064,note_off,,,,,0,0,2,,,,,1,,,76,81
64064,note_off,,,,,128,0,1,,,,,0,,,88,80
64064,note_off,,,,,0,0,1,,,,,0,,,100,80
64064,note_off,,,,,0,0,1,,,,,0,,,94,80
64064,note_off,,,,,128,0,2,,,,,1,,,67,81
64128,note_on,,,,,64,0,2,,,,,1,,,67,127
64128,note_on,,,,,64,0,1,,,,,0,,,88,125
64128,note_on,,,,,0,0,2,,,,,1,,,70,127
64128,note_on,,,,,0,0,1,,,,,0,,,100,125
64128,note_on,,,,,0,0,1,,,,,0,,,94,125
64128,note_on,,,,,0,0,2,,,,,1,,,76,127
64256,note_off,,,,,128,0,2,,,,,1,,,67,81
64256,note_off,,,,,0,0,2,,,,,1,,,76,81
64256,note_off,,,,,0,0,2,,,,,1,,,70,81
64256,note_off,,,,,128,0,1,,,,,0,,,88,80
64256,note_off,,,,,0,0,1,,,,,0,,,100,80
64256,note_off,,,,,0,0,1,,,,,0,,,94,80
64320,note_on,,,,,64,0,1,,,,,0,,,89,125
64320,note_on,,,,,0,0,1,,,,,0,,,101,125
64320,note_on,,,,,64,0,2,,,,,1,,,61,127
64448,note_off,,,,,128,0,1,,,,,0,,,89,80
64448,note_off,,,,,0,0,1,,,,,0,,,101,80
64448,note_off,,,,,128,0,2,,,,,1,,,61,81
64512,note_on,,,,,0,0,2,,,,,1,,,70,127
64512,note_on,,,,,0,0,2,,,,,1,,,76,127
64512,note_on,,,,,0,0,1,,,,,0,,,94,125
64512,note_on,,,,,0,0,1,,,,,0,,,100,125
64512,note_on,,,,,64,0,2,,,,,1,,,67,127
64512,note_on,,,,,64,0,1,,,,,0,,,88,125
64640,note_off,,,,,128,0,2,,,,,1,,,67,81
64640,note_off,,,,,0,0,1,,,,,0,,,94,80
64640,note_off,,,,,0,0,2,,,,,1,,,76,81
64640,note_off,,,,,0,0,2,,,,,1,,,70,81
64640,note_off,,,,,0,0,1,,,,,0,,,100,80
64640,note_off,,,,,128,0,1,,,,,0,,,88,80
64704,note_on,,,,,0,0,1,,,,,0,,,94,125
64704,note_on,,,,,64,0,1,,,,,0,,,88,125
64704,note_on,,,,,0,0,2,,,,,1,,,70,127
64704,note_on,,,,,0,0,2,,,,,1,,,76,127
64704,note_on,,,,,64,0,2,,,,,1,,,67,127
64704,note_on,,,,,0,0,1,,,,,0,,,100,125
64832,note_off,,,,,0,0,2,,,,,1,,,70,81
64832,note_off,,,,,0,0,1,,,,,0,,,100,80
64832,note_off,,,,,128,0,2,,,,,1,,,67,81
64832,note_off,,,,,128,0,1,,,,,0,,,88,80
64832,note_off,,,,,0,0,1,,,,,0,,,94,80
64832,note_off,,,,,0,0,2,,,,,1,,,76,81
64896,note_on,,,,,64,0,1,,,,,0,,,89,125
64896,note_on,,,,,64,0,2,,,,,1,,,61,127
64896,note_on,,,,,0,0,1,,,,,0,,,101,125
65024,note_off,,,,,128,0,2,,,,,1,,,61,81
65024,note_off,,,,,0,0,1,,,,,0,,,101,80
65024,note_off,,,,,128,0,1,,,,,0,,,89,80
65088,note_on,,,,,0,0,2,,,,,1,,,76,127
65088,note_on,,,,,0,0,2,,,,,1,,,70,127
65088,note_on,,,,,64,0,2,,,,,1,,,67,127
65088,note_on,,,,,0,0,1,,,,,0,,,100,125
65088,note_on,,,,,0,0,1,,,,,0,,,94,125
65088,note_on,,,,,64,0,1,,,,,0,,,88,125
65216,note_off,,,,,0,0,2,,,,,1,,,70,81
65216,note_off,,,,,128,0,2,,,,,1,,,67,81
65216,note_off,,,,,0,0,2,,,,,1,,,76,81
65216,note_off,,,,,128,0,1,,,,,0,,,88,80
65216,note_off,,,,,0,0,1,,,,,0,,,100,80
65216,note_off,,,,,0,0,1,,,,,0,,,94,80
65280,note_on,,,,,0,0,2,,,,,1,,,76,127
65280,note_on,,,,,0,0,1,,,,,0,,,94,125
65280,note_on,,,,,0,0,1,,,,,0,,,100,125
65280,note_on,,,,,0,0,2,,,,,1,,,70,127
65280,note_on,,,,,64,0,1,,,,,0,,,88,125
65280,note_on,,,,,64,0,2,,,,,1,,,67,127
65408,note_off,,,,,128,0,1,,,,,0,,,88,80
65408,note_off,,,,,0,0,1,,,,,0,,,100,80
65408,note_off,,,,,0,0,2,,,,,1,,,70,81
65408,note_off,,,,,0,0,2,,,,,1,,,76,81
65408,note_off,,,,,0,0,1,,,,,0,,,94,80
65408,note_off,,,,,128,0,2,,,,,1,,,67,81
65472,note_on,,,,,64,0,1,,,,,0,,,89,125
65472,note_on,,,,,0,0,1,,,,,0,,,101,125
65472,note_on,,,,,64,0,2,,,,,1,,,61,127
65600,note_off,,,,,128,0,1,,,,,0,,,89,80
65600,note_off,,,,,0,0,1,,,,,0,,,101,80
65600,note_off,,,,,128,0,2,,,,,1,,,61,81
65664,note_on,,,,,0,0,2,,,,,1,,,76,127
65664,note_on,,,,,0,0,2,,,,,1,,,70,127
65664,note_on,,,,,0,0,1,,,,,0,,,94,125
65664,note_on,,,,,64,0,2,,,,,1,,,67,127
65664,note_on,,,,,64,0,1,,,,,0,,,88,125
65664,note_on,,,,,0,0,1,,,,,0,,,100,125
65792,note_off,,,,,0,0,1,,,,,0,,,94,80
65792,note_off,,,,,0,0,1,,,,,0,,,100,80
65792,note_off,,,,,0,0,2,,,,,1,,,70,81
65792,note_off,,,,,0,0,2,,,,,1,,,76,81
65792,note_off,,,,,128,0,2,,,,,1,,,67,81
65792,note_off,,,,,128,0,1,,,,,0,,,88,80
65856,note_on,,,,,0,0,1,,,,,0,,,94,125
65856,note_on,,,,,0,0,2,,,,,1,,,70,127
65856,note_on,,,,,0,0,2,,,,,1,,,76,127
65856,note_on,,,,,64,0,1,,,,,0,,,88,125
65856,note_on,,,,,64,0,2,,,,,1,,,67,127
65856,note_on,,,,,0,0,1,,,,,0,,,100,125
65984,note_off,,,,,0,0,1,,,,,0,,,94,80
65984,note_off,,,,,128,0,1,,,,,0,,,88,80
65984,note_off,,,,,0,0,2,,,,,1,,,76,81
65984,note_off,,,,,0,0,2,,,,,1,,,70,81
65984,note_off,,,,,0,0,1,,,,,0,,,100,80
65984,note_off,,,,,128,0,2,,,,,1,,,67,81
66240,note_on,,,,,0,0,1,,,,,0,,,65,125
66240,note_on,,,,,256,0,1,,,,,0,,,77,125
66368,note_off,,,,,128,0,1,,,,,0,,,77,80
66368,note_off,,,,,0,0,1,,,,,0,,,65,80
66432,note_on,,,,,0,0,1,,,,,0,,,64,125
66432,note_on,,,,,64,0,1,,,,,0,,,76,125
66560,note_off,,,,,0,0,1,,,,,0,,,64,80
66560,note_off,,,,,128,0,1,,,,,0,,,76,80
66624,note_on,,,,,0,0,2,,,,,1,,,38,127
66624,note_on,,,,,640,0,2,,,,,1,,,26,127
66720,note_on,,,,,160,0,1,,,,,0,,,76,125
66720,note_on,,,,,0,0,1,,,,,0,,,64,125
66816,note_on,,,,,0,0,1,,,,,0,,,62,125
66816,note_on,,,,,96,0,1,,,,,0,,,74,125
66848,note_off,,,,,32,0,1,,,,,0,,,76,80
66848,note_off,,,,,0,0,1,,,,,0,,,64,80
66880,note_off,,,,,0,0,2,,,,,1,,,38,81
66880,note_off,,,,,256,0,2,,,,,1,,,26,81
66912,note_on,,,,,32,0,2,,,,,1,,,53,127
66912,note_on,,,,,0,0,2,,,,,1,,,58,127
66912,note_on,,,,,0,0,2,,,,,1,,,62,127
66944,note_off,,,,,0,0,1,,,,,0,,,62,80
66944,note_off,,,,,96,0,1,,,,,0,,,74,80
67008,note_on,,,,,64,0,1,,,,,0,,,62,125
67008,note_on,,,,,0,0,1,,,,,0,,,74,125
67040,note_off,,,,,128,0,2,,,,,1,,,53,81
67040,note_off,,,,,0,0,2,,,,,1,,,62,81
67040,note_off,,,,,0,0,2,,,,,1,,,58,81
67104,note_on,,,,,96,0,1,,,,,0,,,60,125
67104,note_on,,,,,0,0,1,,,,,0,,,72,125
67136,note_off,,,,,32,0,1,,,,,0,,,62,80
67136,note_off,,,,,0,0,1,,,,,0,,,74,80
67200,note_on,,,,,160,0,2,,,,,1,,,38,127
67200,note_on,,,,,0,0,2,,,,,1,,,50,127
67232,note_off,,,,,96,0,1,,,,,0,,,72,80
67232,note_off,,,,,0,0,1,,,,,0,,,60,80
67296,note_on,,,,,0,0,1,,,,,0,,,72,125
67296,note_on,,,,,64,0,1,,,,,0,,,60,125
67328,note_off,,,,,0,0,2,,,,,1,,,50,81
67328,note_off,,,,,128,0,2,,,,,1,,,38,81
67392,note_on,,,,,0,0,1,,,,,0,,,70,125
67392,note_on,,,,,96,0,1,,,,,0,,,58,125
67424,note_off,,,,,32,0,1,,,,,0,,,60,80
67424,note_off,,,,,0,0,1,,,,,0,,,72,80
67488,note_on,,,,,160,0,2,,,,,1,,,58,127
67488,note_on,,,,,0,0,2,,,,,1,,,50,127
67488,note_on,,,,,0,0,2,,,,,1,,,53,127
67520,note_off,,,,,0,0,1,,,,,0,,,70,80
67520,note_off,,,,,96,0,1,,,,,0,,,58,80
67584,note_on,,,,,0,0,1,,,,,0,,,70,125
67584,note_on,,,,,64,0,1,,,,,0,,,58,125
67616,note_off,,,,,128,0,2,,,,,1,,,58,81
67616,note_off,,,,,0,0,2,,,,,1,,,50,81
67616,note_off,,,,,0,0,2,,,,,1,,,53,81
67680,note_on,,,,,0,0,1,,,,,0,,,57,125
67680,note_on,,,,,96,0,1,,,,,0,,,69,125
67712,note_off,,,,,0,0,1,,,,,0,,,70,80
67712,note_off,,,,,32,0,1,,,,,0,,,58,80
67776,note_on,,,,,0,0,2,,,,,1,,,37,127
67776,note_on,,,,,160,0,2,,,,,1,,,49,127
67808,note_off,,,,,96,0,1,,,,,0,,,69,80
67808,note_off,,,,,0,0,1,,,,,0,,,57,80
67872,note_on,,,,,0,0,1,,,,,0,,,69,125
67872,note_on,,,,,64,0,1,,,,,0,,,57,125
67904,note_off,,,,,0,0,2,,,,,1,,,37,81
67904,note_off,,,,,128,0,2,,,,,1,,,49,81
67968,note_on,,,,,96,0,1,,,,,0,,,56,125
67968,note_on,,,,,0,0,1,,,,,0,,,68,125
68000,note_off,,,,,32,0,1,,,,,0,,,57,80
68000,note_off,,,,,0,0,1,,,,,0,,,69,80
68064,note_on,,,,,160,0,2,,,,,1,,,59,127
68064,note_on,,,,,0,0,2,,,,,1,,,53,127
68064,note_on,,,,,0,0,2,,,,,1,,,49,127
68096,note_off,,,,,96,0,1,,,,,0,,,56,80
68096,note_off,,,,,0,0,1,,,,,0,,,68,80
68160,note_on,,,,,64,0,1,,,,,0,,,62,125
68160,note_on,,,,,0,0,1,,,,,0,,,74,125
68192,note_off,,,,,0,0,2,,,,,1,,,53,81
68192,note_off,,,,,128,0,2,,,,,1,,,59,81
68192,note_off,,,,,0,0,2,,,,,1,,,49,81
68256,note_on,,,,,0,0,1,,,,,0,,,73,125
68256,note_on,,,,,96,0,1,,,,,0,,,61,125
68288,note_off,,,,,0,0,1,,,,,0,,,74,80
68288,note_off,,,,,32,0,1,,,,,0,,,62,80
68352,note_on,,,,,160,0,2,,,,,1,,,37,127
68352,note_on,,,,,0,0,2,,,,,1,,,49,127
68384,note_off,,,,,0,0,1,,,,,0,,,73,80
68384,note_off,,,,,96,0,1,,,,,0,,,61,80
68448,note_on,,,,,0,0,1,,,,,0,,,81,125
68448,note_on,,,,,64,0,1,,,,,0,,,69,125
68480,note_off,,,,,128,0,2,,,,,1,,,37,81
68480,note_off,,,,,0,0,2,,,,,1,,,49,81
68544,note_on,,,,,96,0,1,,,,,0,,,68,125
68544,note_on,,,,,0,0,1,,,,,0,,,80,125
68576,note_off,,,,,0,0,1,,,,,0,,,81,80
68576,note_off,,,,,32,0,1,,,,,0,,,69,80
68640,note_on,,,,,0,0,2,,,,,1,,,53,127
68640,note_on,,,,,160,0,2,,,,,1,,,65,127
68640,note_on,,,,,0,0,2,,,,,1,,,59,127
68672,note_off,,,,,0,0,1,,,,,0,,,80,80
68672,note_off,,,,,96,0,1,,,,,0,,,68,80
68736,note_on,,,,,0,0,1,,,,,0,,,89,125
68736,note_on,,,,,64,0,1,,,,,0,,,77,125
68768,note_off,,,,,128,0,2,,,,,1,,,65,81
68768,note_off,,,,,0,0,2,,,,,1,,,59,81
68768,note_off,,,,,0,0,2,,,,,1,,,53,81
68832,note_on,,,,,96,0,1,,,,,0,,,88,125
68832,note_on,,,,,0,0,1,,,,,0,,,76,125
68864,note_off,,,,,32,0,1,,,,,0,,,77,80
68864,note_off,,,,,0,0,1,,,,,0,,,89,80
68928,note_on,,,,,160,0,2,,,,,1,,,38,127
68928,note_on,,,,,0,0,2,,,,,1,,,50,127
68960,note_off,,,,,0,0,1,,,,,0,,,76,80
68960,note_off,,,,,96,0,1,,,,,0,,,88,80
69024,note_on,,,,,64,0,1,,,,,0,,,76,125
69024,note_on,,,,,0,0,1,,,,,0,,,88,125
69056,note_off,,,,,0,0,2,,,,,1,,,50,81
69056,note_off,,,,,128,0,2,,,,,1,,,38,81
69120,note_on,,,,,96,0,1,,,,,0,,,74,125
69120,note_on,,,,,0,0,1,,,,,0,,,86,125
69152,note_off,,,,,0,0,1,,,,,0,,,88,80
69152,note_off,,,,,32,0,1,,,,,0,,,76,80
69216,note_on,,,,,0,0,2,,,,,1,,,65,127
69216,note_on,,,,,160,0,2,,,,,1,,,53,127
69216,note_on,,,,,0,0,2,,,,,1,,,58,127
69248,note_off,,,,,0,0,1,,,,,0,,,86,80
69248,note_off,,,,,96,0,1,,,,,0,,,74,80
69312,note_on,,,,,0,0,1,,,,,0,,,86,125
69312,note_on,,,,,64,0,1,,,,,0,,,74,125
69344,note_off,,,,,128,0,2,,,,,1,,,53,81
69344,note_off,,,,,0,0,2,,,,,1,,,65,81
69344,note_off,,,,,0,0,2,,,,,1,,,58,81
69408,note_on,,,,,96,0,1,,,,,0,,,72,125
69408,note_on,,,,,0,0,1,,,,,0,,,84,125
69440,note_off,,,,,32,0,1,,,,,0,,,74,80
69440,note_off,,,,,0,0,1,,,,,0,,,86,80
69504,note_on,,,,,160,0,2,,,,,1,,,38,127
69504,note_on,,,,,0,0,2,,,,,1,,,50,127
69536,note_off,,,,,96,0,1,,,,,0,,,84,80
69536,note_off,,,,,0,0,1,,,,,0,,,72,80
69600,note_on,,,,,0,0,1,,,,,0,,,84,125
69600,note_on,,,,,64,0,1,,,,,0,,,72,125
69632,note_off,,,,,128,0,2,,,,,1,,,38,81
69632,note_off,,,,,0,0,2,,,,,1,,,50,81
69696,note_on,,,,,96,0,1,,,,,0,,,70,125
69696,note_on,,,,,0,0,1,,,,,0,,,82,125
69728,note_off,,,,,0,0,1,,,,,0,,,84,80
69728,note_off,,,,,32,0,1,,,,,0,,,72,80
69792,note_on,,,,,0,0,2,,,,,1,,,58,127
69792,note_on,,,,,0,0,2,,,,,1,,,65,127
69792,note_on,,,,,160,0,2,,,,,1,,,53,127
69824,note_off,,,,,0,0,1,,,,,0,,,82,80
69824,note_off,,,,,96,0,1,,,,,0,,,70,80
69888,note_on,,,,,0,0,1,,,,,0,,,82,125
69888,note_on,,,,,64,0,1,,,,,0,,,70,125
69920,note_off,,,,,128,0,2,,,,,1,,,53,81
69920,note_off,,,,,0,0,2,,,,,1,,,58,81
69920,note_off,,,,,0,0,2,,,,,1,,,65,81
69984,note_on,,,,,0,0,1,,,,,0,,,81,125
69984,note_on,,,,,96,0,1,,,,,0,,,69,125
70016,note_off,,,,,32,0,1,,,,,0,,,70,80
70016,note_off,,,,,0,0,1,,,,,0,,,82,80
70080,note_on,,,,,160,0,2,,,,,1,,,37,127
70080,note_on,,,,,0,0,2,,,,,1,,,49,127
70112,note_off,,,,,96,0,1,,,,,0,,,69,80
70112,note_off,,,,,0,0,1,,,,,0,,,81,80
70176,note_on,,,,,64,0,1,,,,,0,,,69,125
70176,note_on,,,,,0,0,1,,,,,0,,,81,125
70208,note_off,,,,,0,0,2,,,,,1,,,49,81
70208,note_off,,,,,128,0,2,,,,,1,,,37,81
70272,note_on,,,,,96,0,1,,,,,0,,,68,125
70272,note_on,,,,,0,0,1,,,,,0,,,80,125
70304,note_off,,,,,32,0,1,,,,,0,,,69,80
70304,note_off,,,,,0,0,1,,,,,0,,,81,80
70368,note_on,,,,,0,0,2,,,,,1,,,59,127
70368,note_on,,,,,160,0,2,,,,,1,,,53,127
70368,note_on,,,,,0,0,2,,,,,1,,,65,127
70400,note_off,,,,,0,0,1,,,,,0,,,80,80
70400,note_off,,,,,96,0,1,,,,,0,,,68,80
70464,note_on,,,,,0,0,1,,,,,0,,,86,125
70464,note_on,,,,,64,0,1,,,,,0,,,74,125
70496,note_off,,,,,0,0,2,,,,,1,,,59,81
70496,note_off,,,,,0,0,2,,,,,1,,,65,81
70496,note_off,,,,,128,0,2,,,,,1,,,53,81
70560,note_on,,,,,0,0,1,,,,,0,,,85,125
70560,note_on,,,,,96,0,1,,,,,0,,,73,125
70592,note_off,,,,,0,0,1,,,,,0,,,86,80
70592,note_off,,,,,32,0,1,,,,,0,,,74,80
70656,note_on,,,,,160,0,2,,,,,1,,,37,127
70656,note_on,,,,,0,0,2,,,,,1,,,49,127
70688,note_off,,,,,0,0,1,,,,,0,,,85,80
70688,note_off,,,,,96,0,1,,,,,0,,,73,80
70752,note_on,,,,,64,0,1,,,,,0,,,81,125
70752,note_on,,,,,0,0,1,,,,,0,,,93,125
70784,note_off,,,,,0,0,2,,,,,1,,,49,81
70784,note_off,,,,,128,0,2,,,,,1,,,37,81
70848,note_on,,,,,96,0,1,,,,,0,,,92,125
70848,note_on,,,,,0,0,1,,,,,0,,,80,125
70880,note_off,,,,,32,0,1,,,,,0,,,81,80
70880,note_off,,,,,0,0,1,,,,,0,,,93,80
70944,note_on,,,,,0,0,2,,,,,1,,,59,127
70944,note_on,,,,,160,0,2,,,,,1,,,53,127
70944,note_on,,,,,0,0,2,,,,,1,,,65,127
70976,note_off,,,,,96,0,1,,,,,0,,,92,80
70976,note_off,,,,,0,0,1,,,,,0,,,80,80
71040,note_on,,,,,64,0,1,,,,,0,,,89,125
71040,note_on,,,,,0,0,1,,,,,0,,,101,125
71072,note_off,,,,,128,0,2,,,,,1,,,53,81
71072,note_off,,,,,0,0,2,,,,,1,,,59,81
71072,note_off,,,,,0,0,2,,,,,1,,,65,81
71136,note_on,,,,,0,0,1,,,,,0,,,100,125
71136,note_on,,,,,96,0,1,,,,,0,,,88,125
71168,note_off,,,,,32,0,1,,,,,0,,,89,80
71168,note_off,,,,,0,0,1,,,,,0,,,101,80
71232,note_on,,,,,160,0,2,,,,,1,,,38,127
71232,note_on,,,,,0,0,2,,,,,1,,,50,127
71264,note_off,,,,,96,0,1,,,,,0,,,88,80
71264,note_off,,,,,0,0,1,,,,,0,,,100,80
71328,note_on,,,,,64,0,1,,,,,0,,,88,125
71328,note_on,,,,,0,0,1,,,,,0,,,100,125
71360,note_off,,,,,128,0,2,,,,,1,,,38,81
71360,note_off,,,,,0,0,2,,,,,1,,,50,81
71424,note_on,,,,,0,0,1,,,,,0,,,98,125
71424,note_on,,,,,96,0,1,,,,,0,,,86,125
71456,note_off,,,,,32,0,1,,,,,0,,,88,80
71456,note_off,,,,,0,0,1,,,,,0,,,100,80
71520,note_on,,,,,0,0,2,,,,,1,,,62,127
71520,note_on,,,,,160,0,2,,,,,1,,,53,127
71520,note_on,,,,,0,0,2,,,,,1,,,65,127
71520,note_on,,,,,0,0,2,,,,,1,,,58,127
71552,note_off,,,,,96,0,1,,,,,0,,,86,80
71552,note_off,,,,,0,0,1,,,,,0,,,98,80
71616,note_on,,,,,64,0,1,,,,,0,,,86,125
71616,note_on,,,,,0,0,1,,,,,0,,,98,125
71648,note_off,,,,,0,0,2,,,,,1,,,58,81
71648,note_off,,,,,0,0,2,,,,,1,,,65,81
71648,note_off,,,,,0,0,2,,,,,1,,,62,81
71648,note_off,,,,,128,0,2,,,,,1,,,53,81
71712,note_on,,,,,0,0,1,,,,,0,,,96,125
71712,note_on,,,,,96,0,1,,,,,0,,,84,125
71744,note_off,,,,,0,0,1,,,,,0,,,98,80
71744,note_off,,,,,32,0,1,,,,,0,,,86,80
71808,note_on,,,,,160,0,2,,,,,1,,,38,127
71808,note_on,,,,,0,0,2,,,,,1,,,50,127
71840,note_off,,,,,0,0,1,,,,,0,,,96,80
71840,note_off,,,,,96,0,1,,,,,0,,,84,80
71904,note_on,,,,,0,0,1,,,,,0,,,96,125
71904,note_on,,,,,64,0,1,,,,,0,,,84,125
71936,note_off,,,,,0,0,2,,,,,1,,,50,81
71936,note_off,,,,,128,0,2,,,,,1,,,38,81
72000,note_on,,,,,0,0,1,,,,,0,,,82,125
72000,note_on,,,,,96,0,1,,,,,0,,,94,125
72032,note_off,,,,,32,0,1,,,,,0,,,84,80
72032,note_off,,,,,0,0,1,,,,,0,,,96,80
72096,note_on,,,,,0,0,1,,,,,0,,,70,125
72096,note_on,,,,,0,0,1,,,,,0,,,74,125
72096,note_on,,,,,0,0,1,,,,,0,,,77,125
72096,note_on,,,,,64,0,1,,,,,0,,,85,125
72128,note_off,,,,,32,0,1,,,,,0,,,94,80
72128,note_off,,,,,0,0,1,,,,,0,,,82,80
72192,note_on,,,,,0,0,1,,,,,0,,,93,125
72192,note_on,,,,,64,0,1,,,,,0,,,81,125
72224,note_off,,,,,32,0,1,,,,,0,,,85,80
72224,note_off,,,,,0,0,1,,,,,0,,,70,80
72224,note_off,,,,,0,0,1,,,,,0,,,74,80
72224,note_off,,,,,0,0,1,,,,,0,,,77,80
72288,note_on,,,,,0,0,1,,,,,0,,,94,125
72288,note_on,,,,,64,0,1,,,,,0,,,82,125
72320,note_off,,,,,32,0,1,,,,,0,,,81,80
72320,note_off,,,,,0,0,1,,,,,0,,,93,80
72384,note_on,,,,,448,0,2,,,,,1,,,54,127
72384,note_on,,,,,0,0,2,,,,,1,,,42,127
72416,note_off,,,,,0,0,1,,,,,0,,,82,80
72416,note_off,,,,,96,0,1,,,,,0,,,94,80
72480,note_on,,,,,64,0,1,,,,,0,,,70,125
72480,note_on,,,,,0,0,1,,,,,0,,,82,125
72512,note_off,,,,,128,0,2,,,,,1,,,54,81
72512,note_off,,,,,0,0,2,,,,,1,,,42,81
72576,note_on,,,,,96,0,1,,,,,0,,,71,125
72576,note_on,,,,,0,0,1,,,,,0,,,83,125
72608,note_off,,,,,32,0,1,,,,,0,,,70,80
72608,note_off,,,,,0,0,1,,,,,0,,,82,80
72672,note_on,,,,,64,0,1,,,,,0,,,72,125
72672,note_on,,,,,0,0,2,,,,,1,,,64,127
72672,note_on,,,,,0,0,2,,,,,1,,,54,127
72672,note_on,,,,,160,0,2,,,,,1,,,58,127
72672,note_on,,,,,0,0,1,,,,,0,,,84,125
72704,note_off,,,,,32,0,1,,,,,0,,,71,80
72704,note_off,,,,,0,0,1,,,,,0,,,83,80
72768,note_on,,,,,0,0,2,,,,,1,,,64,127
72768,note_on,,,,,96,0,2,,,,,1,,,58,127
72768,note_on,,,,,0,0,2,,,,,1,,,54,127
72768,note_on,,,,,0,0,1,,,,,0,,,73,125
72768,note_on,,,,,64,0,1,,,,,0,,,85,125
72800,note_off,,,,,0,0,2,,,,,1,,,54,81
72800,note_off,,,,,32,0,2,,,,,1,,,58,81
72800,note_off,,,,,0,0,1,,,,,0,,,84,80
72800,note_off,,,,,0,0,2,,,,,1,,,64,81
72800,note_off,,,,,32,0,1,,,,,0,,,72,80
72864,note_on,,,,,64,0,2,,,,,1,,,58,127
72864,note_on,,,,,0,0,2,,,,,1,,,64,127
72864,note_on,,,,,64,0,1,,,,,0,,,74,125
72864,note_on,,,,,0,0,2,,,,,1,,,54,127
72864,note_on,,,,,0,0,1,,,,,0,,,86,125
72896,note_off,,,,,0,0,1,,,,,0,,,73,80
72896,note_off,,,,,0,0,2,,,,,1,,,54,81
72896,note_off,,,,,0,0,2,,,,,1,,,64,81
72896,note_off,,,,,32,0,1,,,,,0,,,85,80
72896,note_off,,,,,32,0,2,,,,,1,,,58,81
72960,note_on,,,,,0,0,2,,,,,1,,,58,127
72960,note_on,,,,,0,0,2,,,,,1,,,64,127
72960,note_on,,,,,64,0,1,,,,,0,,,74,125
72960,note_on,,,,,64,0,2,,,,,1,,,54,127
72960,note_on,,,,,0,0,1,,,,,0,,,86,125
72992,note_off,,,,,0,0,2,,,,,1,,,58,81
72992,note_off,,,,,0,0,2,,,,,1,,,64,81
72992,note_off,,,,,32,0,2,,,,,1,,,54,81
72992,note_off,,,,,32,0,1,,,,,0,,,74,80
72992,note_off,,,,,0,0,1,,,,,0,,,86,80
73056,note_on,,,,,64,0,1,,,,,0,,,85,125
73056,note_on,,,,,0,0,1,,,,,0,,,73,125
73088,note_off,,,,,0,0,2,,,,,1,,,64,81
73088,note_off,,,,,0,0,2,,,,,1,,,58,81
73088,note_off,,,,,96,0,2,,,,,1,,,54,81
73088,note_off,,,,,0,0,1,,,,,0,,,86,80
73088,note_off,,,,,32,0,1,,,,,0,,,74,80
73120,note_off,,,,,32,0,1,,,,,0,,,85,80
73120,note_off,,,,,0,0,1,,,,,0,,,73,80
73248,note_on,,,,,128,0,1,,,,,0,,,67,125
73248,note_on,,,,,160,0,2,,,,,1,,,55,127
73248,note_on,,,,,0,0,2,,,,,1,,,43,127
73344,note_on,,,,,96,0,2,,,,,1,,,54,127
73344,note_on,,,,,96,0,1,,,,,0,,,66,125
73344,note_on,,,,,0,0,2,,,,,1,,,42,127
73376,note_off,,,,,0,0,2,,,,,1,,,43,81
73376,note_off,,,,,32,0,1,,,,,0,,,67,80
73376,note_off,,,,,32,0,2,,,,,1,,,55,81
73408,note_off,,,,,0,0,2,,,,,1,,,42,81
73408,note_off,,,,,32,0,1,,,,,0,,,66,80
73408,note_off,,,,,32,0,2,,,,,1,,,54,81
73536,note_on,,,,,0,0,2,,,,,1,,,40,127
73536,note_on,,,,,128,0,2,,,,,1,,,52,127
73632,note_on,,,,,0,0,1,,,,,0,,,102,125
73632,note_on,,,,,224,0,1,,,,,0,,,90,125
73664,note_off,,,,,128,0,2,,,,,1,,,52,81
73664,note_off,,,,,0,0,2,,,,,1,,,40,81
73728,note_on,,,,,0,0,1,,,,,0,,,100,125
73728,note_on,,,,,96,0,1,,,,,0,,,88,125
73760,note_off,,,,,0,0,1,,,,,0,,,102,80
73760,note_off,,,,,32,0,1,,,,,0,,,90,80
73824,note_on,,,,,0,0,2,,,,,1,,,64,127
73824,note_on,,,,,0,0,2,,,,,1,,,60,127
73824,note_on,,,,,0,0,2,,,,,1,,,67,127
73824,note_on,,,,,160,0,2,,,,,1,,,55,127
73856,note_off,,,,,0,0,1,,,,,0,,,100,80
73856,note_off,,,,,96,0,1,,,,,0,,,88,80
73920,note_on,,,,,64,0,1,,,,,0,,,88,125
73920,note_on,,,,,0,0,1,,,,,0,,,100,125
73952,note_off,,,,,0,0,2,,,,,1,,,67,81
73952,note_off,,,,,0,0,2,,,,,1,,,64,81
73952,note_off,,,,,0,0,2,,,,,1,,,60,81
73952,note_off,,,,,128,0,2,,,,,1,,,55,81
74016,note_on,,,,,96,0,1,,,,,0,,,86,125
74016,note_on,,,,,0,0,1,,,,,0,,,98,125
74048,note_off,,,,,32,0,1,,,,,0,,,88,80
74048,note_off,,,,,0,0,1,,,,,0,,,100,80
74112,note_on,,,,,0,0,2,,,,,1,,,52,127
74112,note_on,,,,,160,0,2,,,,,1,,,40,127
74112,key_signature,,,,,74112,1,3,,,,,,,A,,
74144,note_off,,,,,0,0,1,,,,,0,,,98,80
74144,note_off,,,,,96,0,1,,,,,0,,,86,80
74208,note_on,,,,,64,0,1,,,,,0,,,86,125
74208,note_on,,,,,0,0,1,,,,,0,,,98,125
74240,note_off,,,,,0,0,2,,,,,1,,,52,81
74240,note_off,,,,,128,0,2,,,,,1,,,40,81
74304,note_on,,,,,96,0,1,,,,,0,,,84,125
74304,note_on,,,,,0,0,1,,,,,0,,,96,125
74336,note_off,,,,,32,0,1,,,,,0,,,86,80
74336,note_off,,,,,0,0,1,,,,,0,,,98,80
74400,note_on,,,,,0,0,3,,,,,2,,,67,125
74400,note_on,,,,,0,0,3,,,,,2,,,64,125
74400,note_on,,,,,288,0,3,,,,,2,,,72,125
74400,note_on,,,,,0,0,3,,,,,2,,,60,125
74432,note_off,,,,,0,0,1,,,,,0,,,96,80
74432,note_off,,,,,96,0,1,,,,,0,,,84,80
74496,note_on,,,,,0,0,1,,,,,0,,,83,125
74496,note_on,,,,,64,0,1,,,,,0,,,95,125
74528,note_off,,,,,128,0,3,,,,,2,,,72,80
74528,note_off,,,,,0,0,3,,,,,2,,,60,80
74528,note_off,,,,,0,0,3,,,,,2,,,64,80
74528,note_off,,,,,0,0,3,,,,,2,,,67,80
74592,note_on,,,,,96,0,1,,,,,0,,,96,125
74592,note_on,,,,,0,0,1,,,,,0,,,84,125
74624,note_off,,,,,32,0,1,,,,,0,,,95,80
74624,note_off,,,,,0,0,1,,,,,0,,,83,80
74688,note_on,,,,,448,0,2,,,,,1,,,44,127
74688,note_on,,,,,0,0,2,,,,,1,,,56,127
74720,note_off,,,,,0,0,1,,,,,0,,,84,80
74720,note_off,,,,,96,0,1,,,,,0,,,96,80
74784,note_on,,,,,64,0,1,,,,,0,,,72,125
74784,note_on,,,,,0,0,1,,,,,0,,,84,125
74816,note_off,,,,,128,0,2,,,,,1,,,44,81
74816,note_off,,,,,0,0,2,,,,,1,,,56,81
74880,note_on,,,,,0,0,1,,,,,0,,,85,125
74880,note_on,,,,,96,0,1,,,,,0,,,73,125
74912,note_off,,,,,32,0,1,,,,,0,,,72,80
74912,note_off,,,,,0,0,1,,,,,0,,,84,80
74976,note_on,,,,,0,0,2,,,,,1,,,60,127
74976,note_on,,,,,0,0,2,,,,,1,,,66,127
74976,note_on,,,,,64,0,1,,,,,0,,,74,125
74976,note_on,,,,,0,0,1,,,,,0,,,86,125
74976,note_on,,,,,160,0,2,,,,,1,,,56,127
75008,note_off,,,,,0,0,1,,,,,0,,,85,80
75008,note_off,,,,,32,0,1,,,,,0,,,73,80
75072,note_on,,,,,0,0,1,,,,,0,,,87,125
75072,note_on,,,,,0,0,2,,,,,1,,,60,127
75072,note_on,,,,,64,0,1,,,,,0,,,75,125
75072,note_on,,,,,96,0,2,,,,,1,,,56,127
75072,note_on,,,,,0,0,2,,,,,1,,,66,127
75104,note_off,,,,,0,0,2,,,,,1,,,66,81
75104,note_off,,,,,0,0,2,,,,,1,,,60,81
75104,note_off,,,,,32,0,1,,,,,0,,,74,80
75104,note_off,,,,,0,0,1,,,,,0,,,86,80
75104,note_off,,,,,32,0,2,,,,,1,,,56,81
75168,note_on,,,,,0,0,1,,,,,0,,,88,125
75168,note_on,,,,,0,0,2,,,,,1,,,60,127
75168,note_on,,,,,0,0,2,,,,,1,,,66,127
75168,note_on,,,,,64,0,1,,,,,0,,,76,125
75168,note_on,,,,,64,0,2,,,,,1,,,56,127
75200,note_off,,,,,32,0,1,,,,,0,,,75,80
75200,note_off,,,,,32,0,2,,,,,1,,,56,81
75200,note_off,,,,,0,0,1,,,,,0,,,87,80
75200,note_off,,,,,0,0,2,,,,,1,,,60,81
75200,note_off,,,,,0,0,2,,,,,1,,,66,81
75264,note_on,,,,,0,0,1,,,,,0,,,76,125
75264,note_on,,,,,0,0,2,,,,,1,,,66,127
75264,note_on,,,,,0,0,2,,,,,1,,,60,127
75264,note_on,,,,,64,0,1,,,,,0,,,88,125
75264,note_on,,,,,64,0,2,,,,,1,,,56,127
75296,note_off,,,,,32,0,1,,,,,0,,,76,80
75296,note_off,,,,,0,0,2,,,,,1,,,60,81
75296,note_off,,,,,0,0,1,,,,,0,,,88,80
75296,note_off,,,,,0,0,2,,,,,1,,,66,81
75296,note_off,,,,,32,0,2,,,,,1,,,56,81
75360,note_on,,,,,64,0,1,,,,,0,,,75,125
75360,note_on,,,,,0,0,1,,,,,0,,,87,125
75392,note_off,,,,,32,0,1,,,,,0,,,88,80
75392,note_off,,,,,96,0,2,,,,,1,,,56,81
75392,note_off,,,,,0,0,1,,,,,0,,,76,80
75392,note_off,,,,,0,0,2,,,,,1,,,66,81
75392,note_off,,,,,0,0,2,,,,,1,,,60,81
75488,note_off,,,,,0,0,1,,,,,0,,,87,80
75488,note_off,,,,,96,0,1,,,,,0,,,75,80
75552,note_on,,,,,64,0,1,,,,,0,,,69,125
75552,note_on,,,,,0,0,2,,,,,1,,,57,127
75552,note_on,,,,,160,0,2,,,,,1,,,45,127
75648,note_on,,,,,96,0,1,,,,,0,,,68,125
75648,note_on,,,,,96,0,2,,,,,1,,,44,127
75648,note_on,,,,,0,0,2,,,,,1,,,56,127
75680,note_off,,,,,0,0,2,,,,,1,,,57,81
75680,note_off,,,,,32,0,2,,,,,1,,,45,81
75680,note_off,,,,,32,0,1,,,,,0,,,69,80
75712,note_off,,,,,32,0,2,,,,,1,,,44,81
75712,note_off,,,,,0,0,2,,,,,1,,,56,81
75712,note_off,,,,,32,0,1,,,,,0,,,68,80
75840,note_on,,,,,128,0,2,,,,,1,,,42,127
75840,note_on,,,,,0,0,2,,,,,1,,,54,127
75936,note_on,,,,,224,0,1,,,,,0,,,92,125
75936,note_on,,,,,0,0,1,,,,,0,,,104,125
75968,note_off,,,,,0,0,2,,,,,1,,,54,81
75968,note_off,,,,,128,0,2,,,,,1,,,42,81
76032,note_on,,,,,96,0,1,,,,,0,,,90,125
76032,note_on,,,,,0,0,1,,,,,0,,,102,125
76064,note_off,,,,,32,0,1,,,,,0,,,92,80
76064,note_off,,,,,0,0,1,,,,,0,,,104,80
76128,note_on,,,,,1600,0,3,,,,,2,,,69,125
76128,note_on,,,,,0,0,3,,,,,2,,,62,125
76128,note_on,,,,,0,0,3,,,,,2,,,66,125
76128,note_on,,,,,0,0,3,,,,,2,,,57,125
76160,note_off,,,,,96,0,1,,,,,0,,,90,80
76160,note_off,,,,,0,0,1,,,,,0,,,102,80
76224,note_on,,,,,0,0,1,,,,,0,,,102,125
76224,note_on,,,,,64,0,1,,,,,0,,,90,125
76256,note_off,,,,,0,0,3,,,,,2,,,62,80
76256,note_off,,,,,0,0,3,,,,,2,,,57,80
76256,note_off,,,,,128,0,3,,,,,2,,,69,80
76256,note_off,,,,,0,0,3,,,,,2,,,66,80
76320,note_on,,,,,96,0,1,,,,,0,,,88,125
76320,note_on,,,,,0,0,1,,,,,0,,,100,125
76352,note_off,,,,,32,0,1,,,,,0,,,90,80
76352,note_off,,,,,0,0,1,,,,,0,,,102,80
76416,note_on,,,,,448,0,2,,,,,1,,,42,127
76416,note_on,,,,,0,0,2,,,,,1,,,54,127
76448,note_off,,,,,96,0,1,,,,,0,,,88,80
76448,note_off,,,,,0,0,1,,,,,0,,,100,80
76512,note_on,,,,,64,0,1,,,,,0,,,88,125
76512,note_on,,,,,0,0,1,,,,,0,,,100,125
76544,note_off,,,,,0,0,2,,,,,1,,,54,81
76544,note_off,,,,,128,0,2,,,,,1,,,42,81
76608,note_on,,,,,0,0,1,,,,,0,,,98,125
76608,note_on,,,,,96,0,1,,,,,0,,,86,125
76640,note_off,,,,,32,0,1,,,,,0,,,88,80
76640,note_off,,,,,0,0,1,,,,,0,,,100,80
76704,note_on,,,,,448,0,3,,,,,2,,,74,125
76704,note_on,,,,,0,0,3,,,,,2,,,69,125
76704,note_on,,,,,0,0,3,,,,,2,,,66,125
76704,note_on,,,,,0,0,3,,,,,2,,,62,125
76736,note_off,,,,,0,0,1,,,,,0,,,98,80
76736,note_off,,,,,96,0,1,,,,,0,,,86,80
76800,note_on,,,,,0,0,1,,,,,0,,,97,125
76800,note_on,,,,,64,0,1,,,,,0,,,85,125
76832,note_off,,,,,0,0,3,,,,,2,,,69,80
76832,note_off,,,,,0,0,3,,,,,2,,,66,80
76832,note_off,,,,,0,0,3,,,,,2,,,62,80
76832,note_off,,,,,128,0,3,,,,,2,,,74,80
76896,note_on,,,,,96,0,1,,,,,0,,,86,125
76896,note_on,,,,,0,0,1,,,,,0,,,98,125
76928,note_off,,,,,32,0,1,,,,,0,,,85,80
76928,note_off,,,,,0,0,1,,,,,0,,,97,80
76992,note_on,,,,,0,0,2,,,,,1,,,58,127
76992,note_on,,,,,448,0,2,,,,,1,,,46,127
77024,note_off,,,,,96,0,1,,,,,0,,,86,80
77024,note_off,,,,,0,0,1,,,,,0,,,98,80
77088,note_on,,,,,0,0,1,,,,,0,,,86,125
77088,note_on,,,,,64,0,1,,,,,0,,,74,125
77120,note_off,,,,,0,0,2,,,,,1,,,58,81
77120,note_off,,,,,128,0,2,,,,,1,,,46,81
77184,note_on,,,,,0,0,1,,,,,0,,,87,125
77184,note_on,,,,,96,0,1,,,,,0,,,75,125
77216,note_off,,,,,32,0,1,,,,,0,,,74,80
77216,note_off,,,,,0,0,1,,,,,0,,,86,80
77280,note_on,,,,,0,0,3,,,,,2,,,62,125
77280,note_on,,,,,0,0,3,,,,,2,,,58,125
77280,note_on,,,,,448,0,3,,,,,2,,,68,125
77280,note_on,,,,,64,0,1,,,,,0,,,76,125
77280,note_on,,,,,0,0,1,,,,,0,,,88,125
77312,note_off,,,,,0,0,1,,,,,0,,,87,80
77312,note_off,,,,,32,0,1,,,,,0,,,75,80
77376,note_on,,,,,0,0,3,,,,,2,,,58,125
77376,note_on,,,,,0,0,3,,,,,2,,,62,125
77376,note_on,,,,,64,0,1,,,,,0,,,77,125
77376,note_on,,,,,96,0,3,,,,,2,,,68,125
77376,note_on,,,,,0,0,1,,,,,0,,,89,125
77408,note_off,,,,,32,0,1,,,,,0,,,76,80
77408,note_off,,,,,0,0,1,,,,,0,,,88,80
77408,note_off,,,,,32,0,3,,,,,2,,,68,80
77408,note_off,,,,,0,0,3,,,,,2,,,62,80
77408,note_off,,,,,0,0,3,,,,,2,,,58,80
77472,note_on,,,,,0,0,3,,,,,2,,,62,125
77472,note_on,,,,,0,0,1,,,,,0,,,90,125
77472,note_on,,,,,0,0,3,,,,,2,,,58,125
77472,note_on,,,,,64,0,1,,,,,0,,,78,125
77472,note_on,,,,,64,0,3,,,,,2,,,68,125
77504,note_off,,,,,32,0,1,,,,,0,,,77,80
77504,note_off,,,,,32,0,3,,,,,2,,,68,80
77504,note_off,,,,,0,0,3,,,,,2,,,62,80
77504,note_off,,,,,0,0,3,,,,,2,,,58,80
77504,note_off,,,,,0,0,1,,,,,0,,,89,80
77568,note_on,,,,,0,0,3,,,,,2,,,62,125
77568,note_on,,,,,0,0,1,,,,,0,,,78,125
77568,note_on,,,,,0,0,3,,,,,2,,,58,125
77568,note_on,,,,,64,0,3,,,,,2,,,68,125
77568,note_on,,,,,64,0,1,,,,,0,,,90,125
77600,note_off,,,,,32,0,1,,,,,0,,,90,80
77600,note_off,,,,,0,0,3,,,,,2,,,68,80
77600,note_off,,,,,0,0,3,,,,,2,,,58,80
77600,note_off,,,,,32,0,3,,,,,2,,,62,80
77600,note_off,,,,,0,0,1,,,,,0,,,78,80
77664,note_on,,,,,64,0,1,,,,,0,,,89,125
77664,note_on,,,,,0,0,1,,,,,0,,,77,125
77696,note_off,,,,,0,0,3,,,,,2,,,62,80
77696,note_off,,,,,0,0,3,,,,,2,,,58,80
77696,note_off,,,,,96,0,3,,,,,2,,,68,80
77696,note_off,,,,,0,0,1,,,,,0,,,78,80
77696,note_off,,,,,32,0,1,,,,,0,,,90,80
77728,note_off,,,,,32,0,1,,,,,0,,,89,80
77728,note_off,,,,,0,0,1,,,,,0,,,77,80
77952,note_on,,,,,832,0,2,,,,,1,,,46,127
77952,note_on,,,,,0,0,2,,,,,1,,,34,127
77952,note_on,,,,,256,0,3,,,,,2,,,58,125
78048,note_on,,,,,96,0,3,,,,,2,,,58,125
78048,note_on,,,,,0,0,2,,,,,1,,,35,127
78048,note_on,,,,,96,0,2,,,,,1,,,47,127
78080,note_off,,,,,0,0,2,,,,,1,,,34,81
78080,note_off,,,,,32,0,2,,,,,1,,,46,81
78080,note_off,,,,,32,0,3,,,,,2,,,58,80
78112,note_off,,,,,0,0,2,,,,,1,,,35,81
78112,note_off,,,,,32,0,2,,,,,1,,,47,81
78112,note_off,,,,,32,0,3,,,,,2,,,58,80
78144,note_on,,,,,0,0,2,,,,,1,,,47,127
78144,note_on,,,,,32,0,2,,,,,1,,,59,127
78240,note_on,,,,,0,0,1,,,,,0,,,86,125
78240,note_on,,,,,512,0,1,,,,,0,,,74,125
78272,note_off,,,,,0,0,2,,,,,1,,,47,81
78272,note_off,,,,,128,0,2,,,,,1,,,59,81
78336,note_on,,,,,96,0,1,,,,,0,,,75,125
78336,note_on,,,,,0,0,1,,,,,0,,,87,125
78368,note_off,,,,,32,0,1,,,,,0,,,74,80
78368,note_off,,,,,0,0,1,,,,,0,,,86,80
78432,note_on,,,,,0,0,3,,,,,2,,,59,125
78432,note_on,,,,,0,0,1,,,,,0,,,88,125
78432,note_on,,,,,0,0,3,,,,,2,,,62,125
78432,note_on,,,,,320,0,3,,,,,2,,,68,125
78432,note_on,,,,,64,0,1,,,,,0,,,76,125
78464,note_off,,,,,0,0,1,,,,,0,,,87,80
78464,note_off,,,,,32,0,1,,,,,0,,,75,80
78528,note_on,,,,,64,0,1,,,,,0,,,77,125
78528,note_on,,,,,0,0,3,,,,,2,,,62,125
78528,note_on,,,,,0,0,3,,,,,2,,,59,125
78528,note_on,,,,,96,0,3,,,,,2,,,68,125
78528,note_on,,,,,0,0,1,,,,,0,,,89,125
78560,note_off,,,,,32,0,3,,,,,2,,,68,80
78560,note_off,,,,,0,0,3,,,,,2,,,62,80
78560,note_off,,,,,0,0,1,,,,,0,,,88,80
78560,note_off,,,,,0,0,3,,,,,2,,,59,80
78560,note_off,,,,,32,0,1,,,,,0,,,76,80
78624,note_on,,,,,64,0,3,,,,,2,,,68,125
78624,note_on,,,,,0,0,3,,,,,2,,,62,125
78624,note_on,,,,,0,0,3,,,,,2,,,59,125
78624,note_on,,,,,64,0,1,,,,,0,,,78,125
78624,note_on,,,,,0,0,1,,,,,0,,,90,125
78656,note_off,,,,,0,0,1,,,,,0,,,89,80
78656,note_off,,,,,0,0,3,,,,,2,,,62,80
78656,note_off,,,,,32,0,3,,,,,2,,,68,80
78656,note_off,,,,,32,0,1,,,,,0,,,77,80
78656,note_off,,,,,0,0,3,,,,,2,,,59,80
78720,note_on,,,,,64,0,3,,,,,2,,,68,125
78720,note_on,,,,,0,0,1,,,,,0,,,78,125
78720,note_on,,,,,64,0,1,,,,,0,,,90,125
78720,note_on,,,,,0,0,3,,,,,2,,,59,125
78720,note_on,,,,,0,0,3,,,,,2,,,62,125
78752,note_off,,,,,32,0,3,,,,,2,,,68,80
78752,note_off,,,,,0,0,3,,,,,2,,,62,80
78752,note_off,,,,,32,0,1,,,,,0,,,90,80
78752,note_off,,,,,0,0,1,,,,,0,,,78,80
78752,note_off,,,,,0,0,3,,,,,2,,,59,80
78816,note_on,,,,,64,0,1,,,,,0,,,89,125
78816,note_on,,,,,0,0,1,,,,,0,,,77,125
78848,note_off,,,,,0,0,1,,,,,0,,,78,80
78848,note_off,,,,,96,0,3,,,,,2,,,68,80
78848,note_off,,,,,0,0,3,,,,,2,,,62,80
78848,note_off,,,,,0,0,3,,,,,2,,,59,80
78848,note_off,,,,,32,0,1,,,,,0,,,90,80
78880,note_off,,,,,0,0,1,,,,,0,,,77,80
78880,note_off,,,,,32,0,1,,,,,0,,,89,80
79008,note_on,,,,,736,0,2,,,,,1,,,47,127
79008,note_on,,,,,0,0,2,,,,,1,,,35,127
79104,note_on,,,,,96,0,2,,,,,1,,,48,127
79104,note_on,,,,,256,0,3,,,,,2,,,59,125
79104,note_on,,,,,0,0,2,,,,,1,,,36,127
79136,note_off,,,,,0,0,2,,,,,1,,,35,81
79136,note_off,,,,,32,0,2,,,,,1,,,47,81
79168,note_off,,,,,32,0,2,,,,,1,,,48,81
79168,note_off,,,,,0,0,2,,,,,1,,,36,81
79200,note_on,,,,,96,0,3,,,,,2,,,60,125
79232,note_off,,,,,32,0,3,,,,,2,,,59,80
79264,note_off,,,,,32,0,3,,,,,2,,,60,80
79296,note_on,,,,,0,0,2,,,,,1,,,48,127
79296,note_on,,,,,128,0,2,,,,,1,,,60,127
79392,note_on,,,,,512,0,1,,,,,0,,,86,125
79392,note_on,,,,,0,0,1,,,,,0,,,74,125
79424,note_off,,,,,0,0,2,,,,,1,,,48,81
79424,note_off,,,,,128,0,2,,,,,1,,,60,81
79488,note_on,,,,,96,0,1,,,,,0,,,87,125
79488,note_on,,,,,0,0,1,,,,,0,,,75,125
79520,note_off,,,,,0,0,1,,,,,0,,,74,80
79520,note_off,,,,,32,0,1,,,,,0,,,86,80
79584,note_on,,,,,0,0,1,,,,,0,,,76,125
79584,note_on,,,,,320,0,3,,,,,2,,,69,125
79584,note_on,,,,,64,0,1,,,,,0,,,88,125
79584,note_on,,,,,0,0,3,,,,,2,,,66,125
79584,note_on,,,,,0,0,3,,,,,2,,,60,125
79584,note_on,,,,,0,0,3,,,,,2,,,62,125
79616,note_off,,,,,0,0,1,,,,,0,,,75,80
79616,note_off,,,,,32,0,1,,,,,0,,,87,80
79680,note_on,,,,,0,0,1,,,,,0,,,77,125
79680,note_on,,,,,96,0,3,,,,,2,,,69,125
79680,note_on,,,,,64,0,1,,,,,0,,,89,125
79680,note_on,,,,,0,0,3,,,,,2,,,62,125
79680,note_on,,,,,0,0,3,,,,,2,,,66,125
79680,note_on,,,,,0,0,3,,,,,2,,,60,125
79712,note_off,,,,,0,0,3,,,,,2,,,60,80
79712,note_off,,,,,32,0,1,,,,,0,,,88,80
79712,note_off,,,,,32,0,3,,,,,2,,,69,80
79712,note_off,,,,,0,0,3,,,,,2,,,62,80
79712,note_off,,,,,0,0,3,,,,,2,,,66,80
79712,note_off,,,,,0,0,1,,,,,0,,,76,80
79776,note_on,,,,,0,0,3,,,,,2,,,60,125
79776,note_on,,,,,0,0,1,,,,,0,,,78,125
79776,note_on,,,,,64,0,1,,,,,0,,,90,125
79776,note_on,,,,,0,0,3,,,,,2,,,62,125
79776,note_on,,,,,0,0,3,,,,,2,,,66,125
79776,note_on,,,,,64,0,3,,,,,2,,,69,125
79808,note_off,,,,,32,0,3,,,,,2,,,69,80
79808,note_off,,,,,32,0,1,,,,,0,,,89,80
79808,note_off,,,,,0,0,3,,,,,2,,,60,80
79808,note_off,,,,,0,0,3,,,,,2,,,62,80
79808,note_off,,,,,0,0,3,,,,,2,,,66,80
79808,note_off,,,,,0,0,1,,,,,0,,,77,80
79872,note_on,,,,,0,0,1,,,,,0,,,92,125
79872,note_on,,,,,64,0,1,,,,,0,,,80,125
79872,note_on,,,,,0,0,3,,,,,2,,,60,125
79872,note_on,,,,,0,0,3,,,,,2,,,62,125
79872,note_on,,,,,0,0,3,,,,,2,,,66,125
79872,note_on,,,,,64,0,3,,,,,2,,,69,125
79904,note_off,,,,,32,0,1,,,,,0,,,90,80
79904,note_off,,,,,0,0,3,,,,,2,,,66,80
79904,note_off,,,,,0,0,3,,,,,2,,,62,80
79904,note_off,,,,,0,0,3,,,,,2,,,60,80
79904,note_off,,,,,0,0,1,,,,,0,,,78,80
79904,note_off,,,,,32,0,3,,,,,2,,,69,80
79968,note_on,,,,,64,0,1,,,,,0,,,81,125
79968,note_on,,,,,0,0,1,,,,,0,,,93,125
80000,note_off,,,,,0,0,1,,,,,0,,,92,80
80000,note_off,,,,,0,0,3,,,,,2,,,66,80
80000,note_off,,,,,0,0,3,,,,,2,,,60,80
80000,note_off,,,,,0,0,3,,,,,2,,,62,80
80000,note_off,,,,,32,0,1,,,,,0,,,80,80
80000,note_off,,,,,96,0,3,,,,,2,,,69,80
80032,note_off,,,,,32,0,1,,,,,0,,,81,80
80032,note_off,,,,,0,0,1,,,,,0,,,93,80
80256,note_on,,,,,0,0,1,,,,,0,,,86,125
80256,note_on,,,,,0,0,2,,,,,1,,,65,127
80256,note_on,,,,,224,0,1,,,,,0,,,80,125
80256,note_on,,,,,0,0,1,,,,,0,,,92,125
80256,note_on,,,,,832,0,2,,,,,1,,,53,127
80352,note_on,,,,,96,0,2,,,,,1,,,54,127
80352,note_on,,,,,0,0,1,,,,,0,,,86,125
80352,note_on,,,,,0,0,1,,,,,0,,,93,125
80352,note_on,,,,,96,0,1,,,,,0,,,81,125
80352,note_on,,,,,0,0,2,,,,,1,,,66,127
80384,note_off,,,,,32,0,2,,,,,1,,,53,81
80384,note_off,,,,,0,0,1,,,,,0,,,92,80
80384,note_off,,,,,0,0,1,,,,,0,,,86,80
80384,note_off,,,,,0,0,2,,,,,1,,,65,81
80384,note_off,,,,,32,0,1,,,,,0,,,80,80
80448,note_on,,,,,64,0,1,,,,,0,,,80,125
80448,note_on,,,,,0,0,1,,,,,0,,,92,125
80448,note_on,,,,,0,0,1,,,,,0,,,86,125
80448,note_on,,,,,0,0,2,,,,,1,,,59,127
80448,note_on,,,,,64,0,2,,,,,1,,,47,127
80480,note_off,,,,,0,0,1,,,,,0,,,93,80
80480,note_off,,,,,0,0,2,,,,,1,,,66,81
80480,note_off,,,,,32,0,1,,,,,0,,,81,80
80480,note_off,,,,,32,0,2,,,,,1,,,54,81
80480,note_off,,,,,0,0,1,,,,,0,,,86,80
80544,note_on,,,,,0,0,2,,,,,1,,,60,127
80544,note_on,,,,,64,0,1,,,,,0,,,81,125
80544,note_on,,,,,0,0,1,,,,,0,,,93,125
80544,note_on,,,,,0,0,1,,,,,0,,,86,125
80544,note_on,,,,,64,0,2,,,,,1,,,48,127
80576,note_off,,,,,32,0,1,,,,,0,,,80,80
80576,note_off,,,,,0,0,1,,,,,0,,,92,80
80576,note_off,,,,,0,0,2,,,,,1,,,59,81
80576,note_off,,,,,0,0,1,,,,,0,,,86,80
80576,note_off,,,,,32,0,2,,,,,1,,,47,81
80672,note_off,,,,,0,0,2,,,,,1,,,60,81
80672,note_off,,,,,96,0,2,,,,,1,,,48,81
80672,note_off,,,,,0,0,1,,,,,0,,,86,80
80672,note_off,,,,,0,0,1,,,,,0,,,93,80
80672,note_off,,,,,96,0,1,,,,,0,,,81,80
80736,note_on,,,,,0,0,1,,,,,0,,,92,125
80736,note_on,,,,,0,0,1,,,,,0,,,86,125
80736,note_on,,,,,64,0,2,,,,,1,,,41,127
80736,note_on,,,,,0,0,2,,,,,1,,,53,127
80736,note_on,,,,,64,0,1,,,,,0,,,80,125
80864,note_off,,,,,0,0,1,,,,,0,,,86,80
80864,note_off,,,,,0,0,1,,,,,0,,,92,80
80864,note_off,,,,,128,0,1,,,,,0,,,80,80
80864,note_off,,,,,128,0,2,,,,,1,,,41,81
80864,note_off,,,,,0,0,2,,,,,1,,,53,81
80928,note_on,,,,,0,0,2,,,,,1,,,54,127
80928,note_on,,,,,0,0,1,,,,,0,,,86,125
80928,note_on,,,,,0,0,1,,,,,0,,,93,125
80928,note_on,,,,,64,0,1,,,,,0,,,81,125
80928,note_on,,,,,64,0,2,,,,,1,,,42,127
81024,note_on,,,,,0,0,1,,,,,0,,,86,125
81024,note_on,,,,,0,0,1,,,,,0,,,92,125
81024,note_on,,,,,0,0,2,,,,,1,,,35,127
81024,note_on,,,,,96,0,2,,,,,1,,,47,127
81024,note_on,,,,,96,0,1,,,,,0,,,80,125
81056,note_off,,,,,32,0,2,,,,,1,,,42,81
81056,note_off,,,,,0,0,1,,,,,0,,,86,80
81056,note_off,,,,,0,0,2,,,,,1,,,54,81
81056,note_off,,,,,32,0,1,,,,,0,,,81,80
81056,note_off,,,,,0,0,1,,,,,0,,,93,80
81152,note_off,,,,,96,0,2,,,,,1,,,47,81
81152,note_off,,,,,0,0,2,,,,,1,,,35,81
81152,note_off,,,,,96,0,1,,,,,0,,,80,80
81152,note_off,,,,,0,0,1,,,,,0,,,92,80
81152,note_off,,,,,0,0,1,,,,,0,,,86,80
81216,note_on,,,,,64,0,2,,,,,1,,,48,127
81216,note_on,,,,,0,0,2,,,,,1,,,36,127
81216,note_on,,,,,0,0,1,,,,,0,,,86,125
81216,note_on,,,,,64,0,1,,,,,0,,,81,125
81216,note_on,,,,,0,0,1,,,,,0,,,93,125
81344,note_off,,,,,0,0,1,,,,,0,,,93,80
81344,note_off,,,,,128,0,2,,,,,1,,,48,81
81344,note_off,,,,,128,0,1,,,,,0,,,81,80
81344,note_off,,,,,0,0,1,,,,,0,,,86,80
81344,note_off,,,,,0,0,2,,,,,1,,,36,81
81408,note_on,,,,,0,0,3,,,,,2,,,81,125
81408,note_on,,,,,0,0,3,,,,,2,,,74,125
81408,note_on,,,,,64,0,2,,,,,1,,,54,127
81408,note_on,,,,,1408,0,3,,,,,2,,,69,125
81408,note_on,,,,,0,0,2,,,,,1,,,66,127
81408,note_on,,,,,0,0,2,,,,,1,,,60,127
81536,note_off,,,,,0,0,2,,,,,1,,,60,81
81536,note_off,,,,,0,0,2,,,,,1,,,66,81
81536,note_off,,,,,128,0,2,,,,,1,,,54,81
81536,note_off,,,,,128,0,3,,,,,2,,,69,80
81536,note_off,,,,,0,0,3,,,,,2,,,74,80
81536,note_off,,,,,0,0,3,,,,,2,,,81,80
81600,note_on,,,,,0,0,2,,,,,1,,,49,127
81600,note_on,,,,,64,0,2,,,,,1,,,37,127
81600,set_tempo,,,,,40896,1,0,,600000,,,,,,,
81696,note_on,,,,,352,0,1,,,,,0,,,69,125
81728,note_off,,,,,0,0,2,,,,,1,,,49,81
81728,note_off,,,,,128,0,2,,,,,1,,,37,81
81792,note_on,,,,,0,0,2,,,,,1,,,61,127
81792,note_on,,,,,0,0,2,,,,,1,,,65,127
81792,note_on,,,,,64,0,2,,,,,1,,,59,127
81824,note_off,,,,,128,0,1,,,,,0,,,69,80
81888,note_on,,,,,64,0,1,,,,,0,,,81,125
81920,note_off,,,,,0,0,2,,,,,1,,,65,81
81920,note_off,,,,,0,0,2,,,,,1,,,61,81
81920,note_off,,,,,128,0,2,,,,,1,,,59,81
81984,note_on,,,,,96,0,1,,,,,0,,,70,125
82016,note_off,,,,,32,0,1,,,,,0,,,81,80
82080,note_on,,,,,0,0,2,,,,,1,,,61,127
82080,note_on,,,,,64,0,1,,,,,0,,,82,125
82080,note_on,,,,,0,0,2,,,,,1,,,65,127
82080,note_on,,,,,160,0,2,,,,,1,,,59,127
82112,note_off,,,,,32,0,1,,,,,0,,,70,80
82176,note_on,,,,,96,0,2,,,,,1,,,49,127
82176,note_on,,,,,64,0,1,,,,,0,,,75,125
82208,note_off,,,,,0,0,2,,,,,1,,,61,81
82208,note_off,,,,,32,0,1,,,,,0,,,94,80
82208,note_off,,,,,0,0,2,,,,,1,,,65,81
82208,note_off,,,,,32,0,2,,,,,1,,,59,81
82304,note_off,,,,,96,0,2,,,,,1,,,49,81
82304,note_off,,,,,96,0,1,,,,,0,,,75,80
82368,note_on,,,,,0,0,2,,,,,1,,,65,127
82368,note_on,,,,,64,0,1,,,,,0,,,99,125
82368,note_on,,,,,0,0,2,,,,,1,,,61,127
82368,note_on,,,,,64,0,2,,,,,1,,,59,127
82368,note_on,,,,,0,0,1,,,,,0,,,87,125
82464,note_on,,,,,96,0,2,,,,,1,,,53,127
82496,note_off,,,,,0,0,2,,,,,1,,,61,81
82496,note_off,,,,,0,0,2,,,,,1,,,65,81
82496,note_off,,,,,128,0,1,,,,,0,,,99,80
82496,note_off,,,,,0,0,1,,,,,0,,,87,80
82496,note_off,,,,,32,0,2,,,,,1,,,59,81
82560,note_on,,,,,64,0,1,,,,,0,,,69,125
82592,note_off,,,,,96,0,2,,,,,1,,,53,81
82656,note_on,,,,,96,0,1,,,,,0,,,93,125
82656,note_on,,,,,0,0,2,,,,,1,,,65,127
82656,note_on,,,,,0,0,2,,,,,1,,,61,127
82656,note_on,,,,,64,0,2,,,,,1,,,59,127
82656,note_on,,,,,0,0,1,,,,,0,,,81,125
82688,note_off,,,,,32,0,1,,,,,0,,,69,80
82752,note_on,,,,,96,0,2,,,,,1,,,49,127
82752,note_on,,,,,0,0,2,,,,,1,,,37,127
82752,note_on,,,,,64,0,1,,,,,0,,,69,125
82784,note_off,,,,,32,0,1,,,,,0,,,93,80
82784,note_off,,,,,0,0,2,,,,,1,,,61,81
82784,note_off,,,,,0,0,2,,,,,1,,,65,81
82784,note_off,,,,,0,0,1,,,,,0,,,105,80
82784,note_off,,,,,32,0,2,,,,,1,,,59,81
82880,note_off,,,,,0,0,2,,,,,1,,,37,81
82880,note_off,,,,,96,0,2,,,,,1,,,49,81
82880,note_off,,,,,96,0,1,,,,,0,,,69,80
82944,note_on,,,,,0,0,2,,,,,1,,,66,127
82944,note_on,,,,,0,0,2,,,,,1,,,61,127
82944,note_on,,,,,64,0,1,,,,,0,,,93,125
82944,note_on,,,,,64,0,2,,,,,1,,,58,127
82944,note_on,,,,,0,0,1,,,,,0,,,81,125
83040,note_on,,,,,96,0,2,,,,,1,,,54,127
83072,note_off,,,,,128,0,1,,,,,0,,,93,80
83072,note_off,,,,,0,0,2,,,,,1,,,66,81
83072,note_off,,,,,32,0,2,,,,,1,,,58,81
83072,note_off,,,,,0,0,2,,,,,1,,,61,81
83072,note_off,,,,,0,0,1,,,,,0,,,81,80
83136,note_on,,,,,64,0,1,,,,,0,,,70,125
83168,note_off,,,,,96,0,2,,,,,1,,,54,81
83232,note_on,,,,,0,0,1,,,,,0,,,82,125
83232,note_on,,,,,64,0,2,,,,,1,,,58,127
83232,note_on,,,,,0,0,2,,,,,1,,,66,127
83232,note_on,,,,,0,0,2,,,,,1,,,61,127
83232,note_on,,,,,96,0,1,,,,,0,,,94,125
83264,note_off,,,,,32,0,1,,,,,0,,,70,80
83328,note_on,,,,,96,0,2,,,,,1,,,50,127
83328,note_on,,,,,0,0,2,,,,,1,,,62,127
83360,note_off,,,,,0,0,1,,,,,0,,,82,80
83360,note_off,,,,,32,0,2,,,,,1,,,61,81
83360,note_off,,,,,96,0,1,,,,,0,,,94,80
83360,note_off,,,,,0,0,2,,,,,1,,,66,81
83360,note_off,,,,,0,0,2,,,,,1,,,58,81
83424,note_on,,,,,0,0,1,,,,,0,,,78,125
83424,note_on,,,,,0,0,1,,,,,0,,,82,125
83424,note_on,,,,,64,0,1,,,,,0,,,74,125
83424,note_on,,,,,0,0,1,,,,,0,,,86,125
83456,note_off,,,,,96,0,2,,,,,1,,,50,81
83456,note_off,,,,,0,0,2,,,,,1,,,62,81
83520,note_on,,,,,0,0,1,,,,,0,,,82,125
83520,note_on,,,,,0,0,1,,,,,0,,,78,125
83520,note_on,,,,,0,0,1,,,,,0,,,86,125
83520,note_on,,,,,96,0,1,,,,,0,,,74,125
83552,note_off,,,,,0,0,1,,,,,0,,,82,80
83552,note_off,,,,,0,0,1,,,,,0,,,78,80
83552,note_off,,,,,32,0,1,,,,,0,,,74,80
83552,note_off,,,,,0,0,1,,,,,0,,,86,80
83616,note_on,,,,,160,0,2,,,,,1,,,54,127
83616,note_on,,,,,64,0,1,,,,,0,,,74,125
83616,note_on,,,,,0,0,1,,,,,0,,,78,125
83616,note_on,,,,,0,0,1,,,,,0,,,86,125
83616,note_on,,,,,0,0,2,,,,,1,,,62,127
83616,note_on,,,,,0,0,1,,,,,0,,,82,125
83616,note_on,,,,,0,0,2,,,,,1,,,58,127
83648,note_off,,,,,0,0,1,,,,,0,,,86,80
83648,note_off,,,,,32,0,1,,,,,0,,,74,80
83648,note_off,,,,,0,0,1,,,,,0,,,82,80
83648,note_off,,,,,0,0,1,,,,,0,,,78,80
83712,note_on,,,,,0,0,2,,,,,1,,,62,127
83712,note_on,,,,,0,0,1,,,,,0,,,82,125
83712,note_on,,,,,0,0,1,,,,,0,,,85,125
83712,note_on,,,,,64,0,1,,,,,0,,,78,125
83712,note_on,,,,,0,0,1,,,,,0,,,73,125
83712,note_on,,,,,96,0,2,,,,,1,,,49,127
83744,note_off,,,,,0,0,2,,,,,1,,,62,81
83744,note_off,,,,,0,0,1,,,,,0,,,82,80
83744,note_off,,,,,32,0,1,,,,,0,,,74,80
83744,note_off,,,,,0,0,1,,,,,0,,,86,80
83744,note_off,,,,,32,0,2,,,,,1,,,54,81
83744,note_off,,,,,0,0,2,,,,,1,,,58,81
83744,note_off,,,,,0,0,1,,,,,0,,,78,80
83808,note_on,,,,,64,0,1,,,,,0,,,73,125
83808,note_on,,,,,64,0,2,,,,,1,,,54,127
83808,note_on,,,,,0,0,1,,,,,0,,,85,125
83808,note_on,,,,,0,0,1,,,,,0,,,82,125
83808,note_on,,,,,0,0,1,,,,,0,,,78,125
83808,note_on,,,,,0,0,2,,,,,1,,,58,127
83808,note_on,,,,,0,0,2,,,,,1,,,61,127
83840,note_off,,,,,32,0,2,,,,,1,,,49,81
83840,note_off,,,,,0,0,1,,,,,0,,,82,80
83840,note_off,,,,,0,0,1,,,,,0,,,85,80
83840,note_off,,,,,32,0,1,,,,,0,,,78,80
83840,note_off,,,,,0,0,1,,,,,0,,,73,80
83840,note_off,,,,,0,0,2,,,,,1,,,62,81
83904,note_on,,,,,0,0,2,,,,,1,,,37,127
83904,note_on,,,,,64,0,2,,,,,1,,,49,127
83936,note_off,,,,,96,0,1,,,,,0,,,85,80
83936,note_off,,,,,32,0,2,,,,,1,,,54,81
83936,note_off,,,,,0,0,1,,,,,0,,,97,80
83936,note_off,,,,,0,0,1,,,,,0,,,94,80
83936,note_off,,,,,0,0,2,,,,,1,,,58,81
83936,note_off,,,,,0,0,1,,,,,0,,,90,80
83936,note_off,,,,,0,0,2,,,,,1,,,61,81
84000,note_on,,,,,64,0,1,,,,,0,,,69,125
84032,note_off,,,,,0,0,2,,,,,1,,,37,81
84032,note_off,,,,,96,0,2,,,,,1,,,49,81
84096,note_on,,,,,64,0,2,,,,,1,,,59,127
84096,note_on,,,,,96,0,1,,,,,0,,,93,125
84096,note_on,,,,,0,0,2,,,,,1,,,65,127
84096,note_on,,,,,0,0,1,,,,,0,,,81,125
84096,note_on,,,,,0,0,2,,,,,1,,,61,127
84128,note_off,,,,,32,0,1,,,,,0,,,69,80
84192,note_on,,,,,96,0,2,,,,,1,,,53,127
84224,note_off,,,,,0,0,2,,,,,1,,,61,81
84224,note_off,,,,,0,0,2,,,,,1,,,65,81
84224,note_off,,,,,32,0,2,,,,,1,,,59,81
84224,note_off,,,,,96,0,1,,,,,0,,,93,80
84224,note_off,,,,,0,0,1,,,,,0,,,81,80
84288,note_on,,,,,64,0,1,,,,,0,,,70,125
84320,note_off,,,,,96,0,2,,,,,1,,,53,81
84384,note_on,,,,,64,0,2,,,,,1,,,59,127
84384,note_on,,,,,0,0,2,,,,,1,,,61,127
84384,note_on,,,,,0,0,2,,,,,1,,,65,127
84384,note_on,,,,,96,0,1,,,,,0,,,94,125
84384,note_on,,,,,0,0,1,,,,,0,,,82,125
84416,note_off,,,,,32,0,1,,,,,0,,,70,80
84480,note_on,,,,,96,0,2,,,,,1,,,49,127
84512,note_off,,,,,0,0,1,,,,,0,,,94,80
84512,note_off,,,,,32,0,2,,,,,1,,,59,81
84512,note_off,,,,,96,0,1,,,,,0,,,106,80
84512,note_off,,,,,0,0,2,,,,,1,,,65,81
84512,note_off,,,,,0,0,2,,,,,1,,,61,81
84576,note_on,,,,,64,0,1,,,,,0,,,75,125
84608,note_off,,,,,96,0,2,,,,,1,,,49,81
84672,note_on,,,,,0,0,2,,,,,1,,,65,127
84672,note_on,,,,,0,0,2,,,,,1,,,61,127
84672,note_on,,,,,96,0,1,,,,,0,,,99,125
84672,note_on,,,,,64,0,2,,,,,1,,,59,127
84672,note_on,,,,,0,0,1,,,,,0,,,87,125
84704,note_off,,,,,32,0,1,,,,,0,,,75,80
84768,note_on,,,,,96,0,2,,,,,1,,,53,127
84800,note_off,,,,,0,0,2,,,,,1,,,65,81
84800,note_off,,,,,32,0,2,,,,,1,,,59,81
84800,note_off,,,,,96,0,1,,,,,0,,,99,80
84800,note_off,,,,,0,0,1,,,,,0,,,87,80
84800,note_off,,,,,0,0,2,,,,,1,,,61,81
84864,note_on,,,,,64,0,1,,,,,0,,,69,125
84896,note_off,,,,,96,0,2,,,,,1,,,53,81
84960,note_on,,,,,64,0,2,,,,,1,,,59,127
84960,note_on,,,,,96,0,1,,,,,0,,,93,125
84960,note_on,,,,,0,0,2,,,,,1,,,61,127
84960,note_on,,,,,0,0,2,,,,,1,,,65,127
84960,note_on,,,,,0,0,1,,,,,0,,,81,125
84992,note_off,,,,,32,0,1,,,,,0,,,69,80
85056,note_on,,,,,96,0,2,,,,,1,,,49,127
85056,note_on,,,,,0,0,2,,,,,1,,,37,127
85088,note_off,,,,,32,0,2,,,,,1,,,59,81
85088,note_off,,,,,0,0,2,,,,,1,,,61,81
85088,note_off,,,,,0,0,2,,,,,1,,,65,81
85088,note_off,,,,,96,0,1,,,,,0,,,105,80
85088,note_off,,,,,0,0,1,,,,,0,,,93,80
85152,note_on,,,,,64,0,1,,,,,0,,,69,125
85184,note_off,,,,,96,0,2,,,,,1,,,49,81
85184,note_off,,,,,0,0,2,,,,,1,,,37,81
85248,note_on,,,,,96,0,1,,,,,0,,,93,125
85248,note_on,,,,,0,0,2,,,,,1,,,66,127
85248,note_on,,,,,0,0,1,,,,,0,,,81,125
85248,note_on,,,,,64,0,2,,,,,1,,,58,127
85248,note_on,,,,,0,0,2,,,,,1,,,61,127
85280,note_off,,,,,32,0,1,,,,,0,,,69,80
85344,note_on,,,,,96,0,2,,,,,1,,,54,127
85376,note_off,,,,,0,0,1,,,,,0,,,81,80
85376,note_off,,,,,0,0,2,,,,,1,,,61,81
85376,note_off,,,,,0,0,2,,,,,1,,,66,81
85376,note_off,,,,,32,0,2,,,,,1,,,58,81
85376,note_off,,,,,96,0,1,,,,,0,,,93,80
85440,note_on,,,,,64,0,1,,,,,0,,,70,125
85472,note_off,,,,,96,0,2,,,,,1,,,54,81
85536,note_on,,,,,96,0,1,,,,,0,,,94,125
85536,note_on,,,,,0,0,2,,,,,1,,,66,127
85536,note_on,,,,,0,0,1,,,,,0,,,82,125
85536,note_on,,,,,64,0,2,,,,,1,,,58,127
85536,note_on,,,,,0,0,2,,,,,1,,,61,127
85568,note_off,,,,,32,0,1,,,,,0,,,70,80
85632,note_on,,,,,96,0,2,,,,,1,,,62,127
85632,note_on,,,,,0,0,2,,,,,1,,,50,127
85664,note_off,,,,,0,0,2,,,,,1,,,58,81
85664,note_off,,,,,0,0,2,,,,,1,,,66,81
85664,note_off,,,,,96,0,1,,,,,0,,,94,80
85664,note_off,,,,,0,0,1,,,,,0,,,82,80
85664,note_off,,,,,32,0,2,,,,,1,,,61,81
85728,note_on,,,,,0,0,1,,,,,0,,,86,125
85728,note_on,,,,,64,0,1,,,,,0,,,74,125
85728,note_on,,,,,0,0,1,,,,,0,,,78,125
85728,note_on,,,,,0,0,1,,,,,0,,,82,125
85760,note_off,,,,,0,0,2,,,,,1,,,50,81
85760,note_off,,,,,96,0,2,,,,,1,,,62,81
85824,note_on,,,,,64,0,2,,,,,1,,,54,127
85824,note_on,,,,,0,0,2,,,,,1,,,62,127
85824,note_on,,,,,0,0,1,,,,,0,,,82,125
85824,note_on,,,,,0,0,2,,,,,1,,,58,127
85824,note_on,,,,,0,0,1,,,,,0,,,78,125
85824,note_on,,,,,0,0,1,,,,,0,,,86,125
85824,note_on,,,,,96,0,1,,,,,0,,,74,125
85856,note_off,,,,,32,0,1,,,,,0,,,74,80
85856,note_off,,,,,0,0,1,,,,,0,,,86,80
85856,note_off,,,,,0,0,1,,,,,0,,,82,80
85856,note_off,,,,,0,0,1,,,,,0,,,78,80
85920,note_on,,,,,0,0,1,,,,,0,,,86,125
85920,note_on,,,,,0,0,1,,,,,0,,,78,125
85920,note_on,,,,,96,0,2,,,,,1,,,62,127
85920,note_on,,,,,0,0,1,,,,,0,,,82,125
85920,note_on,,,,,64,0,1,,,,,0,,,74,125
85920,note_on,,,,,0,0,2,,,,,1,,,49,127
85952,note_off,,,,,0,0,1,,,,,0,,,78,80
85952,note_off,,,,,32,0,2,,,,,1,,,54,81
85952,note_off,,,,,32,0,1,,,,,0,,,74,80
85952,note_off,,,,,0,0,2,,,,,1,,,58,81
85952,note_off,,,,,0,0,2,,,,,1,,,62,81
85952,note_off,,,,,0,0,1,,,,,0,,,86,80
85952,note_off,,,,,0,0,1,,,,,0,,,82,80
86016,note_on,,,,,0,0,1,,,,,0,,,82,125
86016,note_on,,,,,0,0,1,,,,,0,,,78,125
86016,note_on,,,,,64,0,1,,,,,0,,,73,125
86016,note_on,,,,,0,0,1,,,,,0,,,85,125
86048,note_off,,,,,32,0,1,,,,,0,,,74,80
86048,note_off,,,,,0,0,1,,,,,0,,,86,80
86048,note_off,,,,,0,0,2,,,,,1,,,49,81
86048,note_off,,,,,0,0,1,,,,,0,,,82,80
86048,note_off,,,,,0,0,1,,,,,0,,,78,80
86048,note_off,,,,,96,0,2,,,,,1,,,62,81
86112,note_on,,,,,0,0,1,,,,,0,,,85,125
86112,note_on,,,,,64,0,1,,,,,0,,,73,125
86112,note_on,,,,,0,0,2,,,,,1,,,58,127
86112,note_on,,,,,0,0,1,,,,,0,,,82,125
86112,note_on,,,,,64,0,2,,,,,1,,,54,127
86112,note_on,,,,,0,0,1,,,,,0,,,78,125
86112,note_on,,,,,0,0,2,,,,,1,,,61,127
86144,note_off,,,,,0,0,1,,,,,0,,,85,80
86144,note_off,,,,,0,0,1,,,,,0,,,82,80
86144,note_off,,,,,32,0,1,,,,,0,,,73,80
86144,note_off,,,,,0,0,1,,,,,0,,,78,80
86208,note_on,,,,,96,0,2,,,,,1,,,51,127
86208,note_on,,,,,0,0,2,,,,,1,,,39,127
86240,note_off,,,,,0,0,2,,,,,1,,,61,81
86240,note_off,,,,,0,0,2,,,,,1,,,58,81
86240,note_off,,,,,0,0,1,,,,,0,,,90,80
86240,note_off,,,,,0,0,1,,,,,0,,,94,80
86240,note_off,,,,,0,0,1,,,,,0,,,97,80
86240,note_off,,,,,32,0,2,,,,,1,,,54,81
86240,note_off,,,,,96,0,1,,,,,0,,,85,80
86304,note_on,,,,,64,0,1,,,,,0,,,69,125
86336,note_off,,,,,96,0,2,,,,,1,,,51,81
86336,note_off,,,,,0,0,2,,,,,1,,,39,81
86400,note_on,,,,,0,0,2,,,,,1,,,66,127
86400,note_on,,,,,64,0,2,,,,,1,,,61,127
86400,note_on,,,,,96,0,1,,,,,0,,,93,125
86400,note_on,,,,,0,0,1,,,,,0,,,81,125
86400,note_on,,,,,0,0,2,,,,,1,,,63,127
86432,note_off,,,,,32,0,1,,,,,0,,,69,80
86496,note_on,,,,,96,0,2,,,,,1,,,55,127
86528,note_off,,,,,0,0,2,,,,,1,,,63,81
86528,note_off,,,,,0,0,2,,,,,1,,,66,81
86528,note_off,,,,,0,0,1,,,,,0,,,81,80
86528,note_off,,,,,96,0,1,,,,,0,,,93,80
86528,note_off,,,,,32,0,2,,,,,1,,,61,81
86592,note_on,,,,,64,0,1,,,,,0,,,70,125
86624,note_off,,,,,96,0,2,,,,,1,,,55,81
86688,note_on,,,,,0,0,2,,,,,1,,,63,127
86688,note_on,,,,,0,0,1,,,,,0,,,82,125
86688,note_on,,,,,0,0,2,,,,,1,,,66,127
86688,note_on,,,,,96,0,1,,,,,0,,,94,125
86688,note_on,,,,,64,0,2,,,,,1,,,61,127
86720,note_off,,,,,32,0,1,,,,,0,,,70,80
86784,note_on,,,,,96,0,2,,,,,1,,,51,127
86816,note_off,,,,,0,0,2,,,,,1,,,63,81
86816,note_off,,,,,0,0,2,,,,,1,,,66,81
86816,note_off,,,,,32,0,2,,,,,1,,,61,81
86816,note_off,,,,,96,0,1,,,,,0,,,82,80
86816,note_off,,,,,0,0,1,,,,,0,,,94,80
86880,note_on,,,,,64,0,1,,,,,0,,,76,125
86912,note_off,,,,,96,0,2,,,,,1,,,51,81
86976,note_on,,,,,96,0,1,,,,,0,,,100,125
86976,note_on,,,,,0,0,2,,,,,1,,,63,127
86976,note_on,,,,,64,0,2,,,,,1,,,61,127
86976,note_on,,,,,0,0,2,,,,,1,,,66,127
86976,note_on,,,,,0,0,1,,,,,0,,,88,125
87008,note_off,,,,,32,0,1,,,,,0,,,76,80
87072,note_on,,,,,96,0,2,,,,,1,,,55,127
87104,note_off,,,,,0,0,1,,,,,0,,,88,80
87104,note_off,,,,,96,0,1,,,,,0,,,100,80
87104,note_off,,,,,0,0,2,,,,,1,,,66,81
87104,note_off,,,,,32,0,2,,,,,1,,,61,81
87104,note_off,,,,,0,0,2,,,,,1,,,63,81
87168,note_on,,,,,64,0,1,,,,,0,,,70,125
87200,note_off,,,,,96,0,2,,,,,1,,,55,81
87264,note_on,,,,,0,0,1,,,,,0,,,82,125
87264,note_on,,,,,0,0,2,,,,,1,,,63,127
87264,note_on,,,,,64,0,2,,,,,1,,,61,127
87264,note_on,,,,,96,0,1,,,,,0,,,94,125
87264,note_on,,,,,0,0,2,,,,,1,,,66,127
87296,note_off,,,,,32,0,1,,,,,0,,,70,80
87360,note_on,,,,,96,0,2,,,,,1,,,51,127
87360,note_on,,,,,0,0,2,,,,,1,,,39,127
87392,note_off,,,,,32,0,2,,,,,1,,,61,81
87392,note_off,,,,,0,0,2,,,,,1,,,66,81
87392,note_off,,,,,96,0,1,,,,,0,,,82,80
87392,note_off,,,,,0,0,2,,,,,1,,,63,81
87392,note_off,,,,,0,0,1,,,,,0,,,94,80
87456,note_on,,,,,64,0,1,,,,,0,,,70,125
87488,note_off,,,,,0,0,2,,,,,1,,,39,81
87488,note_off,,,,,96,0,2,,,,,1,,,51,81
87552,note_on,,,,,64,0,2,,,,,1,,,59,127
87552,note_on,,,,,0,0,2,,,,,1,,,63,127
87552,note_on,,,,,96,0,1,,,,,0,,,94,125
87552,note_on,,,,,0,0,1,,,,,0,,,82,125
87552,note_on,,,,,0,0,2,,,,,1,,,68,127
87584,note_off,,,,,32,0,1,,,,,0,,,70,80
87648,note_on,,,,,96,0,2,,,,,1,,,56,127
87680,note_off,,,,,32,0,2,,,,,1,,,59,81
87680,note_off,,,,,96,0,1,,,,,0,,,94,80
87680,note_off,,,,,0,0,2,,,,,1,,,68,81
87680,note_off,,,,,0,0,1,,,,,0,,,82,80
87680,note_off,,,,,0,0,2,,,,,1,,,63,81
87744,note_on,,,,,64,0,1,,,,,0,,,71,125
87776,note_off,,,,,96,0,2,,,,,1,,,56,81
87840,note_on,,,,,0,0,1,,,,,0,,,83,125
87840,note_on,,,,,64,0,2,,,,,1,,,59,127
87840,note_on,,,,,96,0,1,,,,,0,,,95,125
87840,note_on,,,,,0,0,2,,,,,1,,,63,127
87840,note_on,,,,,0,0,2,,,,,1,,,68,127
87872,note_off,,,,,32,0,1,,,,,0,,,71,80
87936,note_on,,,,,96,0,2,,,,,1,,,52,127
87936,note_on,,,,,0,0,2,,,,,1,,,64,127
87968,note_off,,,,,0,0,1,,,,,0,,,83,80
87968,note_off,,,,,32,0,2,,,,,1,,,59,81
87968,note_off,,,,,0,0,2,,,,,1,,,63,81
87968,note_off,,,,,0,0,2,,,,,1,,,68,81
87968,note_off,,,,,96,0,1,,,,,0,,,95,80
88032,note_on,,,,,64,0,1,,,,,0,,,76,125
88032,note_on,,,,,0,0,1,,,,,0,,,88,125
88032,note_on,,,,,0,0,1,,,,,0,,,83,125
88032,note_on,,,,,0,0,1,,,,,0,,,80,125
88064,note_off,,,,,0,0,2,,,,,1,,,64,81
88064,note_off,,,,,96,0,2,,,,,1,,,52,81
88128,note_on,,,,,64,0,2,,,,,1,,,56,127
88128,note_on,,,,,0,0,2,,,,,1,,,59,127
88128,note_on,,,,,0,0,2,,,,,1,,,64,127
88128,note_on,,,,,0,0,1,,,,,0,,,80,125
88128,note_on,,,,,0,0,1,,,,,0,,,83,125
88128,note_on,,,,,0,0,1,,,,,0,,,88,125
88128,note_on,,,,,96,0,1,,,,,0,,,76,125
88160,note_off,,,,,32,0,1,,,,,0,,,76,80
88160,note_off,,,,,0,0,1,,,,,0,,,80,80
88160,note_off,,,,,0,0,1,,,,,0,,,88,80
88160,note_off,,,,,0,0,1,,,,,0,,,83,80
88224,note_on,,,,,0,0,1,,,,,0,,,80,125
88224,note_on,,,,,0,0,1,,,,,0,,,83,125
88224,note_on,,,,,0,0,1,,,,,0,,,88,125
88224,note_on,,,,,0,0,2,,,,,1,,,64,127
88224,note_on,,,,,96,0,2,,,,,1,,,51,127
88224,note_on,,,,,64,0,1,,,,,0,,,76,125
88256,note_off,,,,,0,0,1,,,,,0,,,83,80
88256,note_off,,,,,0,0,2,,,,,1,,,64,81
88256,note_off,,,,,32,0,2,,,,,1,,,56,81
88256,note_off,,,,,32,0,1,,,,,0,,,76,80
88256,note_off,,,,,0,0,2,,,,,1,,,59,81
88256,note_off,,,,,0,0,1,,,,,0,,,80,80
88256,note_off,,,,,0,0,1,,,,,0,,,88,80
88320,note_on,,,,,0,0,1,,,,,0,,,80,125
88320,note_on,,,,,0,0,1,,,,,0,,,83,125
88320,note_on,,,,,64,0,1,,,,,0,,,75,125
88320,note_on,,,,,0,0,1,,,,,0,,,87,125
88352,note_off,,,,,96,0,2,,,,,1,,,51,81
88352,note_off,,,,,0,0,1,,,,,0,,,80,80
88352,note_off,,,,,0,0,2,,,,,1,,,64,81
88352,note_off,,,,,32,0,1,,,,,0,,,76,80
88352,note_off,,,,,0,0,1,,,,,0,,,83,80
88352,note_off,,,,,0,0,1,,,,,0,,,88,80
88416,note_on,,,,,64,0,2,,,,,1,,,56,127
88416,note_on,,,,,0,0,1,,,,,0,,,80,125
88416,note_on,,,,,0,0,1,,,,,0,,,87,125
88416,note_on,,,,,0,0,2,,,,,1,,,63,127
88416,note_on,,,,,0,0,2,,,,,1,,,59,127
88416,note_on,,,,,0,0,1,,,,,0,,,83,125
88416,note_on,,,,,64,0,1,,,,,0,,,75,125
88448,note_off,,,,,0,0,1,,,,,0,,,80,80
88448,note_off,,,,,0,0,1,,,,,0,,,83,80
88448,note_off,,,,,32,0,1,,,,,0,,,75,80
88448,note_off,,,,,0,0,1,,,,,0,,,87,80
88512,note_on,,,,,0,0,2,,,,,1,,,39,127
88512,note_on,,,,,96,0,2,,,,,1,,,51,127
88544,note_off,,,,,0,0,1,,,,,0,,,107,80
88544,note_off,,,,,0,0,2,,,,,1,,,59,81
88544,note_off,,,,,32,0,2,,,,,1,,,56,81
88544,note_off,,,,,0,0,2,,,,,1,,,63,81
88544,note_off,,,,,96,0,1,,,,,0,,,104,80
88544,note_off,,,,,0,0,1,,,,,0,,,99,80
88544,note_off,,,,,0,0,1,,,,,0,,,111,80
88608,note_on,,,,,64,0,1,,,,,0,,,69,125
88640,note_off,,,,,96,0,2,,,,,1,,,51,81
88640,note_off,,,,,0,0,2,,,,,1,,,39,81
88704,note_on,,,,,64,0,2,,,,,1,,,61,127
88704,note_on,,,,,0,0,2,,,,,1,,,67,127
88704,note_on,,,,,0,0,2,,,,,1,,,62,127
88704,note_on,,,,,0,0,1,,,,,0,,,81,125
88704,note_on,,,,,96,0,1,,,,,0,,,93,125
88736,note_off,,,,,32,0,1,,,,,0,,,69,80
88800,note_on,,,,,96,0,2,,,,,1,,,55,127
88832,note_off,,,,,0,0,2,,,,,1,,,62,81
88832,note_off,,,,,0,0,2,,,,,1,,,67,81
88832,note_off,,,,,96,0,1,,,,,0,,,93,80
88832,note_off,,,,,0,0,1,,,,,0,,,81,80
88832,note_off,,,,,32,0,2,,,,,1,,,61,81
88896,note_on,,,,,64,0,1,,,,,0,,,70,125
88928,note_off,,,,,96,0,2,,,,,1,,,55,81
88992,note_on,,,,,64,0,2,,,,,1,,,61,127
88992,note_on,,,,,0,0,1,,,,,0,,,82,125
88992,note_on,,,,,0,0,2,,,,,1,,,62,127
88992,note_on,,,,,0,0,2,,,,,1,,,66,127
88992,note_on,,,,,96,0,1,,,,,0,,,94,125
89024,note_off,,,,,32,0,1,,,,,0,,,70,80
89088,note_on,,,,,96,0,2,,,,,1,,,51,127
89120,note_off,,,,,0,0,2,,,,,1,,,62,81
89120,note_off,,,,,32,0,2,,,,,1,,,61,81
89120,note_off,,,,,96,0,1,,,,,0,,,82,80
89120,note_off,,,,,0,0,2,,,,,1,,,66,81
89120,note_off,,,,,0,0,1,,,,,0,,,94,80
89184,note_on,,,,,64,0,1,,,,,0,,,76,125
89216,note_off,,,,,96,0,2,,,,,1,,,51,81
89280,note_on,,,,,0,0,2,,,,,1,,,67,127
89280,note_on,,,,,0,0,2,,,,,1,,,62,127
89280,note_on,,,,,0,0,1,,,,,0,,,88,125
89280,note_on,,,,,64,0,2,,,,,1,,,61,127
89280,note_on,,,,,96,0,1,,,,,0,,,100,125
89312,note_off,,,,,32,0,1,,,,,0,,,76,80
89376,note_on,,,,,96,0,2,,,,,1,,,55,127
89408,note_off,,,,,96,0,1,,,,,0,,,100,80
89408,note_off,,,,,0,0,2,,,,,1,,,62,81
89408,note_off,,,,,0,0,1,,,,,0,,,88,80
89408,note_off,,,,,0,0,2,,,,,1,,,67,81
89408,note_off,,,,,32,0,2,,,,,1,,,61,81
89472,note_on,,,,,0,0,1,,,,,0,,,70,125
89472,note_on,,,,,64,0,1,,,,,0,,,82,125
89504,note_off,,,,,96,0,2,,,,,1,,,55,81
89568,note_on,,,,,96,0,1,,,,,0,,,94,125
89568,note_on,,,,,0,0,1,,,,,0,,,82,125
89568,note_on,,,,,64,0,2,,,,,1,,,61,127
89568,note_on,,,,,0,0,2,,,,,1,,,62,127
89568,note_on,,,,,0,0,2,,,,,1,,,66,127
89600,note_off,,,,,0,0,1,,,,,0,,,70,80
89600,note_off,,,,,32,0,1,,,,,0,,,82,80
89664,note_on,,,,,0,0,2,,,,,1,,,51,127
89664,note_on,,,,,96,0,2,,,,,1,,,39,127
89696,note_off,,,,,0,0,1,,,,,0,,,94,80
89696,note_off,,,,,0,0,2,,,,,1,,,66,81
89696,note_off,,,,,0,0,2,,,,,1,,,62,81
89696,note_off,,,,,96,0,1,,,,,0,,,82,80
89696,note_off,,,,,32,0,2,,,,,1,,,61,81
89760,note_on,,,,,64,0,1,,,,,0,,,70,125
89792,note_off,,,,,96,0,2,,,,,1,,,39,81
89792,note_off,,,,,0,0,2,,,,,1,,,51,81
89856,note_on,,,,,0,0,1,,,,,0,,,82,125
89856,note_on,,,,,0,0,2,,,,,1,,,63,127
89856,note_on,,,,,0,0,2,,,,,1,,,68,127
89856,note_on,,,,,96,0,1,,,,,0,,,94,125
89856,note_on,,,,,64,0,2,,,,,1,,,59,127
89888,note_off,,,,,32,0,1,,,,,0,,,70,80
89952,note_on,,,,,96,0,2,,,,,1,,,56,127
89984,note_off,,,,,0,0,1,,,,,0,,,82,80
89984,note_off,,,,,96,0,1,,,,,0,,,94,80
89984,note_off,,,,,32,0,2,,,,,1,,,59,81
89984,note_off,,,,,0,0,2,,,,,1,,,63,81
89984,note_off,,,,,0,0,2,,,,,1,,,68,81
90048,note_on,,,,,64,0,1,,,,,0,,,71,125
90080,note_off,,,,,96,0,2,,,,,1,,,56,81
90144,note_on,,,,,0,0,1,,,,,0,,,83,125
90144,note_on,,,,,0,0,2,,,,,1,,,63,127
90144,note_on,,,,,0,0,2,,,,,1,,,68,127
90144,note_on,,,,,96,0,1,,,,,0,,,95,125
90144,note_on,,,,,64,0,2,,,,,1,,,59,127
90176,note_off,,,,,32,0,1,,,,,0,,,71,80
90240,note_on,,,,,0,0,2,,,,,1,,,64,127
90240,note_on,,,,,96,0,2,,,,,1,,,52,127
90272,note_off,,,,,0,0,2,,,,,1,,,63,81
90272,note_off,,,,,0,0,1,,,,,0,,,83,80
90272,note_off,,,,,32,0,2,,,,,1,,,59,81
90272,note_off,,,,,96,0,1,,,,,0,,,95,80
90272,note_off,,,,,0,0,2,,,,,1,,,68,81
90336,note_on,,,,,0,0,1,,,,,0,,,88,125
90336,note_on,,,,,0,0,1,,,,,0,,,83,125
90336,note_on,,,,,0,0,1,,,,,0,,,80,125
90336,note_on,,,,,64,0,1,,,,,0,,,76,125
90368,note_off,,,,,96,0,2,,,,,1,,,52,81
90368,note_off,,,,,0,0,2,,,,,1,,,64,81
90432,note_on,,,,,0,0,2,,,,,1,,,64,127
90432,note_on,,,,,64,0,2,,,,,1,,,56,127
90432,note_on,,,,,96,0,1,,,,,0,,,76,125
90432,note_on,,,,,0,0,1,,,,,0,,,80,125
90432,note_on,,,,,0,0,2,,,,,1,,,59,127
90432,note_on,,,,,0,0,1,,,,,0,,,88,125
90432,note_on,,,,,0,0,1,,,,,0,,,83,125
90464,note_off,,,,,0,0,1,,,,,0,,,80,80
90464,note_off,,,,,0,0,1,,,,,0,,,88,80
90464,note_off,,,,,32,0,1,,,,,0,,,76,80
90464,note_off,,,,,0,0,1,,,,,0,,,83,80
90528,note_on,,,,,0,0,1,,,,,0,,,83,125
90528,note_on,,,,,0,0,1,,,,,0,,,88,125
90528,note_on,,,,,0,0,1,,,,,0,,,80,125
90528,note_on,,,,,0,0,2,,,,,1,,,64,127
90528,note_on,,,,,96,0,2,,,,,1,,,51,127
90528,note_on,,,,,64,0,1,,,,,0,,,76,125
90560,note_off,,,,,0,0,1,,,,,0,,,88,80
90560,note_off,,,,,0,0,1,,,,,0,,,83,80
90560,note_off,,,,,0,0,1,,,,,0,,,80,80
90560,note_off,,,,,0,0,2,,,,,1,,,59,81
90560,note_off,,,,,32,0,2,,,,,1,,,56,81
90560,note_off,,,,,32,0,1,,,,,0,,,76,80
90560,note_off,,,,,0,0,2,,,,,1,,,64,81
90624,note_on,,,,,0,0,1,,,,,0,,,87,125
90624,note_on,,,,,64,0,1,,,,,0,,,75,125
90624,note_on,,,,,0,0,1,,,,,0,,,83,125
90624,note_on,,,,,0,0,1,,,,,0,,,80,125
90656,note_off,,,,,0,0,1,,,,,0,,,80,80
90656,note_off,,,,,0,0,1,,,,,0,,,83,80
90656,note_off,,,,,0,0,1,,,,,0,,,88,80
90656,note_off,,,,,96,0,2,,,,,1,,,51,81
90656,note_off,,,,,32,0,1,,,,,0,,,76,80
90656,note_off,,,,,0,0,2,,,,,1,,,64,81
90720,note_on,,,,,64,0,2,,,,,1,,,56,127
90720,note_on,,,,,0,0,1,,,,,0,,,80,125
90720,note_on,,,,,0,0,2,,,,,1,,,63,127
90720,note_on,,,,,0,0,2,,,,,1,,,59,127
90720,note_on,,,,,64,0,1,,,,,0,,,75,125
90720,note_on,,,,,0,0,1,,,,,0,,,87,125
90720,note_on,,,,,0,0,1,,,,,0,,,83,125
90752,note_off,,,,,0,0,1,,,,,0,,,87,80
90752,note_off,,,,,32,0,1,,,,,0,,,75,80
90752,note_off,,,,,0,0,1,,,,,0,,,83,80
90752,note_off,,,,,0,0,1,,,,,0,,,80,80
90816,note_on,,,,,96,0,2,,,,,1,,,42,127
90816,note_on,,,,,0,0,2,,,,,1,,,54,127
90848,note_off,,,,,32,0,2,,,,,1,,,56,81
90848,note_off,,,,,0,0,2,,,,,1,,,59,81
90848,note_off,,,,,0,0,2,,,,,1,,,63,81
90848,note_off,,,,,0,0,1,,,,,0,,,99,80
90848,note_off,,,,,0,0,1,,,,,0,,,95,80
90848,note_off,,,,,0,0,1,,,,,0,,,87,80
90848,note_off,,,,,96,0,1,,,,,0,,,92,80
90912,note_on,,,,,64,0,1,,,,,0,,,71,125
90944,note_off,,,,,0,0,2,,,,,1,,,54,81
90944,note_off,,,,,96,0,2,,,,,1,,,42,81
91008,note_on,,,,,0,0,1,,,,,0,,,83,125
91008,note_on,,,,,0,0,1,,,,,0,,,60,125
91008,note_on,,,,,96,0,1,,,,,0,,,95,125
91008,note_on,,,,,0,0,1,,,,,0,,,63,125
91008,note_on,,,,,0,0,1,,,,,0,,,69,125
91040,note_off,,,,,32,0,1,,,,,0,,,71,80
91104,note_on,,,,,64,0,1,,,,,0,,,57,125
91136,note_off,,,,,32,0,1,,,,,0,,,95,80
91136,note_off,,,,,0,0,1,,,,,0,,,63,80
91136,note_off,,,,,0,0,1,,,,,0,,,60,80
91136,note_off,,,,,0,0,1,,,,,0,,,83,80
91136,note_off,,,,,0,0,1,,,,,0,,,69,80
91200,note_on,,,,,64,0,1,,,,,0,,,72,125
91232,note_off,,,,,32,0,1,,,,,0,,,57,80
91296,note_on,,,,,0,0,1,,,,,0,,,60,125
91296,note_on,,,,,0,0,1,,,,,0,,,63,125
91296,note_on,,,,,64,0,1,,,,,0,,,96,125
91296,note_on,,,,,0,0,1,,,,,0,,,68,125
91296,note_on,,,,,0,0,1,,,,,0,,,84,125
91328,note_off,,,,,32,0,1,,,,,0,,,72,80
91392,note_on,,,,,0,0,2,,,,,1,,,41,127
91392,note_on,,,,,448,0,2,,,,,1,,,53,127
91424,note_off,,,,,0,0,1,,,,,0,,,63,80
91424,note_off,,,,,96,0,1,,,,,0,,,84,80
91424,note_off,,,,,0,0,1,,,,,0,,,60,80
91424,note_off,,,,,0,0,1,,,,,0,,,68,80
91424,note_off,,,,,0,0,1,,,,,0,,,96,80
91488,note_on,,,,,64,0,1,,,,,0,,,78,125
91520,note_off,,,,,128,0,2,,,,,1,,,53,81
91520,note_off,,,,,0,0,2,,,,,1,,,41,81
91584,note_on,,,,,0,0,1,,,,,0,,,63,125
91584,note_on,,,,,0,0,1,,,,,0,,,69,125
91584,note_on,,,,,96,0,1,,,,,0,,,102,125
91584,note_on,,,,,0,0,1,,,,,0,,,90,125
91584,note_on,,,,,0,0,1,,,,,0,,,60,125
91616,note_off,,,,,32,0,1,,,,,0,,,78,80
91680,note_on,,,,,64,0,1,,,,,0,,,57,125
91712,note_off,,,,,32,0,1,,,,,0,,,102,80
91712,note_off,,,,,0,0,1,,,,,0,,,69,80
91712,note_off,,,,,0,0,1,,,,,0,,,90,80
91712,note_off,,,,,0,0,1,,,,,0,,,63,80
91712,note_off,,,,,0,0,1,,,,,0,,,60,80
91776,note_on,,,,,64,0,1,,,,,0,,,72,125
91808,note_off,,,,,32,0,1,,,,,0,,,57,80
91872,note_on,,,,,0,0,1,,,,,0,,,60,125
91872,note_on,,,,,64,0,1,,,,,0,,,96,125
91872,note_on,,,,,0,0,1,,,,,0,,,68,125
91872,note_on,,,,,0,0,1,,,,,0,,,63,125
91872,note_on,,,,,0,0,1,,,,,0,,,84,125
91904,note_off,,,,,32,0,1,,,,,0,,,72,80
91968,note_on,,,,,0,0,2,,,,,1,,,42,127
91968,note_on,,,,,448,0,2,,,,,1,,,54,127
92000,note_off,,,,,0,0,1,,,,,0,,,84,80
92000,note_off,,,,,0,0,1,,,,,0,,,63,80
92000,note_off,,,,,0,0,1,,,,,0,,,60,80
92000,note_off,,,,,96,0,1,,,,,0,,,68,80
92000,note_off,,,,,0,0,1,,,,,0,,,96,80
92064,note_on,,,,,64,0,1,,,,,0,,,71,125
92096,note_off,,,,,0,0,2,,,,,1,,,42,81
92096,note_off,,,,,128,0,2,,,,,1,,,54,81
92160,note_on,,,,,0,0,1,,,,,0,,,63,125
92160,note_on,,,,,0,0,1,,,,,0,,,60,125
92160,note_on,,,,,0,0,1,,,,,0,,,83,125
92160,note_on,,,,,96,0,1,,,,,0,,,95,125
92160,note_on,,,,,0,0,1,,,,,0,,,69,125
92192,note_off,,,,,32,0,1,,,,,0,,,71,80
92256,note_on,,,,,64,0,1,,,,,0,,,57,125
92288,note_off,,,,,0,0,1,,,,,0,,,63,80
92288,note_off,,,,,0,0,1,,,,,0,,,60,80
92288,note_off,,,,,0,0,1,,,,,0,,,83,80
92288,note_off,,,,,32,0,1,,,,,0,,,95,80
92288,note_off,,,,,0,0,1,,,,,0,,,69,80
92352,note_on,,,,,64,0,1,,,,,0,,,72,125
92384,note_off,,,,,32,0,1,,,,,0,,,57,80
92448,note_on,,,,,0,0,1,,,,,0,,,60,125
92448,note_on,,,,,0,0,1,,,,,0,,,63,125
92448,note_on,,,,,0,0,1,,,,,0,,,69,125
92448,note_on,,,,,64,0,1,,,,,0,,,96,125
92448,note_on,,,,,0,0,1,,,,,0,,,84,125
92480,note_off,,,,,32,0,1,,,,,0,,,72,80
92544,note_on,,,,,0,0,2,,,,,1,,,41,127
92544,note_on,,,,,448,0,2,,,,,1,,,53,127
92576,note_off,,,,,0,0,1,,,,,0,,,63,80
92576,note_off,,,,,96,0,1,,,,,0,,,69,80
92576,note_off,,,,,0,0,1,,,,,0,,,96,80
92576,note_off,,,,,0,0,1,,,,,0,,,84,80
92576,note_off,,,,,0,0,1,,,,,0,,,60,80
92640,note_on,,,,,64,0,1,,,,,0,,,78,125
92672,note_off,,,,,128,0,2,,,,,1,,,53,81
92672,note_off,,,,,0,0,2,,,,,1,,,41,81
92736,note_on,,,,,0,0,1,,,,,0,,,63,125
92736,note_on,,,,,0,0,1,,,,,0,,,60,125
92736,note_on,,,,,96,0,1,,,,,0,,,102,125
92736,note_on,,,,,0,0,1,,,,,0,,,90,125
92736,note_on,,,,,0,0,1,,,,,0,,,69,125
92768,note_off,,,,,32,0,1,,,,,0,,,78,80
92864,note_off,,,,,0,0,1,,,,,0,,,63,80
92864,note_off,,,,,0,0,1,,,,,0,,,69,80
92864,note_off,,,,,96,0,1,,,,,0,,,102,80
92864,note_off,,,,,0,0,1,,,,,0,,,90,80
92864,note_off,,,,,0,0,1,,,,,0,,,60,80
92928,note_on,,,,,64,0,1,,,,,0,,,78,125
93024,note_on,,,,,0,0,1,,,,,0,,,69,125
93024,note_on,,,,,0,0,1,,,,,0,,,90,125
93024,note_on,,,,,0,0,1,,,,,0,,,63,125
93024,note_on,,,,,0,0,1,,,,,0,,,60,125
93024,note_on,,,,,96,0,1,,,,,0,,,102,125
93056,note_off,,,,,32,0,1,,,,,0,,,78,80
93120,note_on,,,,,0,0,2,,,,,1,,,40,127
93120,note_on,,,,,448,0,2,,,,,1,,,52,127
93152,note_off,,,,,0,0,1,,,,,0,,,60,80
93152,note_off,,,,,96,0,1,,,,,0,,,102,80
93152,note_off,,,,,0,0,1,,,,,0,,,69,80
93152,note_off,,,,,0,0,1,,,,,0,,,90,80
93152,note_off,,,,,0,0,1,,,,,0,,,63,80
93216,note_on,,,,,64,0,1,,,,,0,,,84,125
93216,note_on,,,,,0,0,3,,,,,2,,,68,125
93216,note_on,,,,,0,0,3,,,,,2,,,72,125
93216,note_on,,,,,0,0,3,,,,,2,,,66,125
93216,note_on,,,,,0,0,1,,,,,0,,,92,125
93216,note_on,,,,,0,0,1,,,,,0,,,90,125
93216,note_on,,,,,11680,0,3,,,,,2,,,62,125
93216,note_on,,,,,0,0,1,,,,,0,,,96,125
93248,note_off,,,,,128,0,2,,,,,1,,,52,81
93248,note_off,,,,,0,0,2,,,,,1,,,40,81
93280,note_off,,,,,0,0,1,,,,,0,,,96,80
93280,note_off,,,,,64,0,1,,,,,0,,,84,80
93280,note_off,,,,,0,0,1,,,,,0,,,90,80
93280,note_off,,,,,64,0,3,,,,,2,,,62,80
93280,note_off,,,,,0,0,1,,,,,0,,,92,80
93280,note_off,,,,,0,0,3,,,,,2,,,72,80
93280,note_off,,,,,0,0,3,,,,,2,,,68,80
93280,note_off,,,,,0,0,3,,,,,2,,,66,80
93312,note_on,,,,,32,0,3,,,,,2,,,72,125
93312,note_on,,,,,0,0,1,,,,,0,,,96,125
93312,note_on,,,,,32,0,1,,,,,0,,,84,125
93312,note_on,,,,,0,0,1,,,,,0,,,92,125
93312,note_on,,,,,0,0,1,,,,,0,,,90,125
93312,note_on,,,,,0,0,3,,,,,2,,,62,125
93312,note_on,,,,,0,0,3,,,,,2,,,66,125
93312,note_on,,,,,0,0,3,,,,,2,,,68,125
93376,note_off,,,,,0,0,3,,,,,2,,,62,80
93376,note_off,,,,,0,0,3,,,,,2,,,68,80
93376,note_off,,,,,64,0,1,,,,,0,,,84,80
93376,note_off,,,,,0,0,1,,,,,0,,,96,80
93376,note_off,,,,,0,0,3,,,,,2,,,66,80
93376,note_off,,,,,0,0,1,,,,,0,,,90,80
93376,note_off,,,,,0,0,1,,,,,0,,,92,80
93376,note_off,,,,,64,0,3,,,,,2,,,72,80
93408,note_on,,,,,0,0,1,,,,,0,,,90,125
93408,note_on,,,,,0,0,3,,,,,2,,,66,125
93408,note_on,,,,,0,0,3,,,,,2,,,68,125
93408,note_on,,,,,0,0,3,,,,,2,,,72,125
93408,note_on,,,,,0,0,1,,,,,0,,,92,125
93408,note_on,,,,,32,0,3,,,,,2,,,62,125
93408,note_on,,,,,32,0,1,,,,,0,,,84,125
93408,note_on,,,,,0,0,1,,,,,0,,,96,125
93536,note_off,,,,,0,0,3,,,,,2,,,66,80
93536,note_off,,,,,128,0,3,,,,,2,,,62,80
93536,note_off,,,,,0,0,3,,,,,2,,,72,80
93536,note_off,,,,,0,0,3,,,,,2,,,68,80
93536,note_off,,,,,0,0,1,,,,,0,,,90,80
93536,note_off,,,,,0,0,1,,,,,0,,,96,80
93536,note_off,,,,,128,0,1,,,,,0,,,84,80
93536,note_off,,,,,0,0,1,,,,,0,,,92,80
93600,note_on,,,,,64,0,3,,,,,2,,,78,125
93600,note_on,,,,,64,0,1,,,,,0,,,90,125
93600,note_on,,,,,0,0,1,,,,,0,,,102,125
93696,note_on,,,,,0,0,2,,,,,1,,,40,127
93696,note_on,,,,,448,0,2,,,,,1,,,52,127
93728,note_off,,,,,128,0,1,,,,,0,,,90,80
93728,note_off,,,,,0,0,1,,,,,0,,,102,80
93728,note_off,,,,,128,0,3,,,,,2,,,78,80
93792,note_on,,,,,0,0,3,,,,,2,,,69,125
93792,note_on,,,,,0,0,3,,,,,2,,,61,125
93792,note_on,,,,,0,0,1,,,,,0,,,93,125
93792,note_on,,,,,0,0,1,,,,,0,,,97,125
93792,note_on,,,,,64,0,1,,,,,0,,,90,125
93792,note_on,,,,,64,0,3,,,,,2,,,73,125
93792,note_on,,,,,0,0,1,,,,,0,,,102,125
93824,note_off,,,,,128,0,2,,,,,1,,,52,81
93824,note_off,,,,,0,0,2,,,,,1,,,40,81
93856,note_off,,,,,0,0,3,,,,,2,,,69,80
93856,note_off,,,,,0,0,1,,,,,0,,,93,80
93856,note_off,,,,,0,0,1,,,,,0,,,97,80
93856,note_off,,,,,0,0,1,,,,,0,,,102,80
93856,note_off,,,,,0,0,3,,,,,2,,,61,80
93856,note_off,,,,,64,0,3,,,,,2,,,73,80
93856,note_off,,,,,64,0,1,,,,,0,,,90,80
93888,note_on,,,,,32,0,1,,,,,0,,,89,125
93888,note_on,,,,,0,0,3,,,,,2,,,69,125
93888,note_on,,,,,0,0,1,,,,,0,,,101,125
93888,note_on,,,,,0,0,1,,,,,0,,,97,125
93888,note_on,,,,,0,0,1,,,,,0,,,93,125
93888,note_on,,,,,32,0,3,,,,,2,,,73,125
93888,note_on,,,,,0,0,3,,,,,2,,,61,125
93952,note_off,,,,,64,0,3,,,,,2,,,73,80
93952,note_off,,,,,0,0,3,,,,,2,,,61,80
93952,note_off,,,,,0,0,3,,,,,2,,,69,80
93952,note_off,,,,,64,0,1,,,,,0,,,89,80
93952,note_off,,,,,0,0,1,,,,,0,,,101,80
93952,note_off,,,,,0,0,1,,,,,0,,,97,80
93952,note_off,,,,,0,0,1,,,,,0,,,93,80
93984,note_on,,,,,0,0,1,,,,,0,,,97,125
93984,note_on,,,,,0,0,1,,,,,0,,,93,125
93984,note_on,,,,,32,0,3,,,,,2,,,73,125
93984,note_on,,,,,32,0,1,,,,,0,,,89,125
93984,note_on,,,,,0,0,3,,,,,2,,,69,125
93984,note_on,,,,,0,0,1,,,,,0,,,101,125
93984,note_on,,,,,0,0,3,,,,,2,,,61,125
94112,note_off,,,,,0,0,1,,,,,0,,,93,80
94112,note_off,,,,,0,0,1,,,,,0,,,97,80
94112,note_off,,,,,0,0,1,,,,,0,,,101,80
94112,note_off,,,,,0,0,3,,,,,2,,,61,80
94112,note_off,,,,,0,0,3,,,,,2,,,69,80
94112,note_off,,,,,128,0,1,,,,,0,,,89,80
94112,note_off,,,,,128,0,3,,,,,2,,,73,80
94176,note_on,,,,,0,0,2,,,,,1,,,64,127
94176,note_on,,,,,0,0,1,,,,,0,,,97,125
94176,note_on,,,,,352,0,2,,,,,1,,,52,127
94176,note_on,,,,,64,0,1,,,,,0,,,88,125
94176,note_on,,,,,0,0,1,,,,,0,,,100,125
94176,note_on,,,,,0,0,1,,,,,0,,,93,125
94272,note_on,,,,,96,0,2,,,,,1,,,52,127
94272,note_on,,,,,0,0,2,,,,,1,,,40,127
94304,note_off,,,,,32,0,2,,,,,1,,,52,81
94304,note_off,,,,,0,0,1,,,,,0,,,97,80
94304,note_off,,,,,128,0,1,,,,,0,,,88,80
94304,note_off,,,,,0,0,1,,,,,0,,,93,80
94304,note_off,,,,,0,0,1,,,,,0,,,100,80
94304,note_off,,,,,0,0,2,,,,,1,,,64,81
94368,note_on,,,,,64,0,1,,,,,0,,,84,125
94368,note_on,,,,,0,0,1,,,,,0,,,92,125
94368,note_on,,,,,0,0,1,,,,,0,,,96,125
94368,note_on,,,,,0,0,3,,,,,2,,,66,125
94368,note_on,,,,,256,0,3,,,,,2,,,62,125
94368,note_on,,,,,0,0,3,,,,,2,,,72,125
94368,note_on,,,,,0,0,3,,,,,2,,,68,125
94368,note_on,,,,,0,0,1,,,,,0,,,90,125
94400,note_off,,,,,96,0,2,,,,,1,,,52,81
94400,note_off,,,,,0,0,2,,,,,1,,,40,81
94432,note_off,,,,,64,0,3,,,,,2,,,62,80
94432,note_off,,,,,0,0,1,,,,,0,,,96,80
94432,note_off,,,,,0,0,1,,,,,0,,,92,80
94432,note_off,,,,,64,0,1,,,,,0,,,84,80
94432,note_off,,,,,0,0,3,,,,,2,,,66,80
94432,note_off,,,,,0,0,1,,,,,0,,,90,80
94432,note_off,,,,,0,0,3,,,,,2,,,72,80
94432,note_off,,,,,0,0,3,,,,,2,,,68,80
94464,note_on,,,,,0,0,1,,,,,0,,,90,125
94464,note_on,,,,,0,0,3,,,,,2,,,72,125
94464,note_on,,,,,0,0,3,,,,,2,,,68,125
94464,note_on,,,,,32,0,1,,,,,0,,,84,125
94464,note_on,,,,,0,0,1,,,,,0,,,96,125
94464,note_on,,,,,32,0,3,,,,,2,,,62,125
94464,note_on,,,,,0,0,3,,,,,2,,,66,125
94464,note_on,,,,,0,0,1,,,,,0,,,92,125
94528,note_off,,,,,64,0,3,,,,,2,,,62,80
94528,note_off,,,,,0,0,1,,,,,0,,,92,80
94528,note_off,,,,,0,0,3,,,,,2,,,66,80
94528,note_off,,,,,0,0,3,,,,,2,,,68,80
94528,note_off,,,,,0,0,1,,,,,0,,,96,80
94528,note_off,,,,,0,0,1,,,,,0,,,90,80
94528,note_off,,,,,0,0,3,,,,,2,,,72,80
94528,note_off,,,,,64,0,1,,,,,0,,,84,80
94560,note_on,,,,,32,0,3,,,,,2,,,62,125
94560,note_on,,,,,0,0,1,,,,,0,,,90,125
94560,note_on,,,,,0,0,1,,,,,0,,,96,125
94560,note_on,,,,,0,0,3,,,,,2,,,72,125
94560,note_on,,,,,0,0,3,,,,,2,,,68,125
94560,note_on,,,,,0,0,3,,,,,2,,,66,125
94560,note_on,,,,,0,0,1,,,,,0,,,92,125
94560,note_on,,,,,32,0,1,,,,,0,,,84,125
94688,note_off,,,,,0,0,3,,,,,2,,,72,80
94688,note_off,,,,,0,0,1,,,,,0,,,92,80
94688,note_off,,,,,0,0,1,,,,,0,,,96,80
94688,note_off,,,,,0,0,1,,,,,0,,,90,80
94688,note_off,,,,,128,0,1,,,,,0,,,84,80
94688,note_off,,,,,0,0,3,,,,,2,,,66,80
94688,note_off,,,,,0,0,3,,,,,2,,,68,80
94688,note_off,,,,,128,0,3,,,,,2,,,62,80
94752,note_on,,,,,64,0,1,,,,,0,,,90,125
94752,note_on,,,,,64,0,3,,,,,2,,,78,125
94752,note_on,,,,,0,0,1,,,,,0,,,102,125
94848,note_on,,,,,448,0,2,,,,,1,,,52,127
94848,note_on,,,,,0,0,2,,,,,1,,,40,127
94880,note_off,,,,,0,0,1,,,,,0,,,102,80
94880,note_off,,,,,128,0,3,,,,,2,,,78,80
94880,note_off,,,,,128,0,1,,,,,0,,,90,80
94944,note_on,,,,,0,0,3,,,,,2,,,73,125
94944,note_on,,,,,0,0,1,,,,,0,,,97,125
94944,note_on,,,,,0,0,1,,,,,0,,,93,125
94944,note_on,,,,,64,0,1,,,,,0,,,90,125
94944,note_on,,,,,64,0,3,,,,,2,,,61,125
94944,note_on,,,,,0,0,3,,,,,2,,,69,125
94944,note_on,,,,,0,0,1,,,,,0,,,102,125
94976,note_off,,,,,128,0,2,,,,,1,,,52,81
94976,note_off,,,,,0,0,2,,,,,1,,,40,81
95008,note_off,,,,,0,0,1,,,,,0,,,93,80
95008,note_off,,,,,64,0,1,,,,,0,,,90,80
95008,note_off,,,,,0,0,3,,,,,2,,,73,80
95008,note_off,,,,,0,0,3,,,,,2,,,69,80
95008,note_off,,,,,64,0,3,,,,,2,,,61,80
95008,note_off,,,,,0,0,1,,,,,0,,,97,80
95008,note_off,,,,,0,0,1,,,,,0,,,102,80
95040,note_on,,,,,32,0,3,,,,,2,,,61,125
95040,note_on,,,,,0,0,3,,,,,2,,,73,125
95040,note_on,,,,,0,0,3,,,,,2,,,69,125
95040,note_on,,,,,0,0,1,,,,,0,,,101,125
95040,note_on,,,,,0,0,1,,,,,0,,,97,125
95040,note_on,,,,,0,0,1,,,,,0,,,93,125
95040,note_on,,,,,32,0,1,,,,,0,,,89,125
95104,note_off,,,,,64,0,3,,,,,2,,,61,80
95104,note_off,,,,,0,0,1,,,,,0,,,93,80
95104,note_off,,,,,0,0,1,,,,,0,,,97,80
95104,note_off,,,,,0,0,3,,,,,2,,,69,80
95104,note_off,,,,,0,0,3,,,,,2,,,73,80
95104,note_off,,,,,0,0,1,,,,,0,,,101,80
95104,note_off,,,,,64,0,1,,,,,0,,,89,80
95136,note_on,,,,,0,0,1,,,,,0,,,93,125
95136,note_on,,,,,0,0,1,,,,,0,,,97,125
95136,note_on,,,,,32,0,1,,,,,0,,,89,125
95136,note_on,,,,,0,0,1,,,,,0,,,101,125
95136,note_on,,,,,0,0,3,,,,,2,,,69,125
95136,note_on,,,,,32,0,3,,,,,2,,,61,125
95136,note_on,,,,,0,0,3,,,,,2,,,73,125
95264,note_off,,,,,128,0,3,,,,,2,,,61,80
95264,note_off,,,,,0,0,1,,,,,0,,,93,80
95264,note_off,,,,,0,0,1,,,,,0,,,101,80
95264,note_off,,,,,0,0,1,,,,,0,,,97,80
95264,note_off,,,,,0,0,3,,,,,2,,,73,80
95264,note_off,,,,,128,0,1,,,,,0,,,89,80
95264,note_off,,,,,0,0,3,,,,,2,,,69,80
95328,note_on,,,,,0,0,1,,,,,0,,,93,125
95328,note_on,,,,,64,0,1,,,,,0,,,88,125
95328,note_on,,,,,0,0,2,,,,,1,,,64,127
95328,note_on,,,,,352,0,2,,,,,1,,,52,127
95328,note_on,,,,,0,0,1,,,,,0,,,97,125
95328,note_on,,,,,0,0,1,,,,,0,,,100,125
95424,note_on,,,,,0,0,2,,,,,1,,,40,127
95424,note_on,,,,,96,0,2,,,,,1,,,52,127
95456,note_off,,,,,128,0,1,,,,,0,,,88,80
95456,note_off,,,,,32,0,2,,,,,1,,,52,81
95456,note_off,,,,,0,0,1,,,,,0,,,100,80
95456,note_off,,,,,0,0,1,,,,,0,,,97,80
95456,note_off,,,,,0,0,1,,,,,0,,,93,80
95456,note_off,,,,,0,0,2,,,,,1,,,64,81
95520,note_on,,,,,64,0,1,,,,,0,,,85,125
95520,note_on,,,,,0,0,1,,,,,0,,,97,125
95520,note_on,,,,,0,0,3,,,,,2,,,70,125
95520,note_on,,,,,0,0,1,,,,,0,,,91,125
95520,note_on,,,,,0,0,3,,,,,2,,,67,125
95520,note_on,,,,,0,0,3,,,,,2,,,73,125
95520,note_on,,,,,0,0,1,,,,,0,,,94,125
95520,note_on,,,,,256,0,3,,,,,2,,,64,125
95552,note_off,,,,,96,0,2,,,,,1,,,52,81
95552,note_off,,,,,0,0,2,,,,,1,,,40,81
95584,note_off,,,,,0,0,1,,,,,0,,,97,80
95584,note_off,,,,,0,0,1,,,,,0,,,91,80
95584,note_off,,,,,0,0,1,,,,,0,,,94,80
95584,note_off,,,,,0,0,3,,,,,2,,,67,80
95584,note_off,,,,,0,0,3,,,,,2,,,70,80
95584,note_off,,,,,0,0,3,,,,,2,,,73,80
95584,note_off,,,,,64,0,1,,,,,0,,,85,80
95584,note_off,,,,,64,0,3,,,,,2,,,64,80
95616,note_on,,,,,32,0,3,,,,,2,,,64,125
95616,note_on,,,,,32,0,1,,,,,0,,,85,125
95616,note_on,,,,,0,0,1,,,,,0,,,91,125
95616,note_on,,,,,0,0,3,,,,,2,,,70,125
95616,note_on,,,,,0,0,3,,,,,2,,,67,125
95616,note_on,,,,,0,0,1,,,,,0,,,94,125
95616,note_on,,,,,0,0,3,,,,,2,,,73,125
95616,note_on,,,,,0,0,1,,,,,0,,,97,125
95680,note_off,,,,,64,0,1,,,,,0,,,85,80
95680,note_off,,,,,0,0,3,,,,,2,,,67,80
95680,note_off,,,,,0,0,3,,,,,2,,,70,80
95680,note_off,,,,,0,0,3,,,,,2,,,73,80
95680,note_off,,,,,0,0,1,,,,,0,,,91,80
95680,note_off,,,,,0,0,1,,,,,0,,,94,80
95680,note_off,,,,,0,0,1,,,,,0,,,97,80
95680,note_off,,,,,64,0,3,,,,,2,,,64,80
95712,note_on,,,,,0,0,1,,,,,0,,,94,125
95712,note_on,,,,,0,0,3,,,,,2,,,67,125
95712,note_on,,,,,0,0,3,,,,,2,,,70,125
95712,note_on,,,,,0,0,3,,,,,2,,,73,125
95712,note_on,,,,,32,0,1,,,,,0,,,85,125
95712,note_on,,,,,0,0,1,,,,,0,,,91,125
95712,note_on,,,,,32,0,3,,,,,2,,,64,125
95712,note_on,,,,,0,0,1,,,,,0,,,97,125
95776,note_off,,,,,64,0,1,,,,,0,,,97,80
95840,note_off,,,,,0,0,3,,,,,2,,,70,80
95840,note_off,,,,,64,0,1,,,,,0,,,85,80
95840,note_off,,,,,0,0,3,,,,,2,,,73,80
95840,note_off,,,,,0,0,1,,,,,0,,,94,80
95840,note_off,,,,,0,0,3,,,,,2,,,67,80
95840,note_off,,,,,128,0,3,,,,,2,,,64,80
95840,note_off,,,,,0,0,1,,,,,0,,,91,80
95904,note_on,,,,,0,0,1,,,,,0,,,103,125
95904,note_on,,,,,64,0,3,,,,,2,,,79,125
95904,note_on,,,,,64,0,1,,,,,0,,,91,125
96000,note_on,,,,,0,0,2,,,,,1,,,41,127
96000,note_on,,,,,448,0,2,,,,,1,,,53,127
96032,note_off,,,,,128,0,3,,,,,2,,,79,80
96032,note_off,,,,,0,0,1,,,,,0,,,91,80
96032,note_off,,,,,128,0,1,,,,,0,,,103,80
96096,note_on,,,,,64,0,3,,,,,2,,,62,125
96096,note_on,,,,,0,0,1,,,,,0,,,98,125
96096,note_on,,,,,0,0,3,,,,,2,,,74,125
96096,note_on,,,,,0,0,1,,,,,0,,,103,125
96096,note_on,,,,,0,0,3,,,,,2,,,70,125
96096,note_on,,,,,0,0,1,,,,,0,,,94,125
96096,note_on,,,,,64,0,1,,,,,0,,,91,125
96128,note_off,,,,,128,0,2,,,,,1,,,53,81
96128,note_off,,,,,0,0,2,,,,,1,,,41,81
96160,note_off,,,,,64,0,3,,,,,2,,,62,80
96160,note_off,,,,,64,0,1,,,,,0,,,91,80
96160,note_off,,,,,0,0,1,,,,,0,,,94,80
96160,note_off,,,,,0,0,3,,,,,2,,,74,80
96160,note_off,,,,,0,0,3,,,,,2,,,70,80
96160,note_off,,,,,0,0,1,,,,,0,,,103,80
96160,note_off,,,,,0,0,1,,,,,0,,,98,80
96192,note_on,,,,,0,0,3,,,,,2,,,74,125
96192,note_on,,,,,0,0,1,,,,,0,,,98,125
96192,note_on,,,,,0,0,1,,,,,0,,,94,125
96192,note_on,,,,,32,0,3,,,,,2,,,62,125
96192,note_on,,,,,0,0,3,,,,,2,,,70,125
96192,note_on,,,,,0,0,1,,,,,0,,,102,125
96192,note_on,,,,,32,0,1,,,,,0,,,90,125
96256,note_off,,,,,0,0,1,,,,,0,,,94,80
96256,note_off,,,,,0,0,1,,,,,0,,,98,80
96256,note_off,,,,,64,0,1,,,,,0,,,90,80
96256,note_off,,,,,64,0,3,,,,,2,,,62,80
96256,note_off,,,,,0,0,1,,,,,0,,,102,80
96256,note_off,,,,,0,0,3,,,,,2,,,74,80
96256,note_off,,,,,0,0,3,,,,,2,,,70,80
96288,note_on,,,,,0,0,3,,,,,2,,,74,125
96288,note_on,,,,,0,0,3,,,,,2,,,70,125
96288,note_on,,,,,0,0,1,,,,,0,,,94,125
96288,note_on,,,,,32,0,1,,,,,0,,,90,125
96288,note_on,,,,,0,0,1,,,,,0,,,98,125
96288,note_on,,,,,0,0,1,,,,,0,,,102,125
96288,note_on,,,,,32,0,3,,,,,2,,,62,125
96416,note_off,,,,,0,0,3,,,,,2,,,74,80
96416,note_off,,,,,128,0,3,,,,,2,,,62,80
96416,note_off,,,,,0,0,1,,,,,0,,,98,80
96416,note_off,,,,,0,0,1,,,,,0,,,102,80
96416,note_off,,,,,0,0,3,,,,,2,,,70,80
96416,note_off,,,,,128,0,1,,,,,0,,,90,80
96416,note_off,,,,,0,0,1,,,,,0,,,94,80
96480,note_on,,,,,64,0,1,,,,,0,,,89,125
96480,note_on,,,,,352,0,2,,,,,1,,,53,127
96480,note_on,,,,,0,0,2,,,,,1,,,65,127
96480,note_on,,,,,0,0,1,,,,,0,,,101,125
96480,note_on,,,,,0,0,1,,,,,0,,,98,125
96480,note_on,,,,,0,0,1,,,,,0,,,94,125
96576,note_on,,,,,0,0,2,,,,,1,,,40,127
96576,note_on,,,,,96,0,2,,,,,1,,,52,127
96608,note_off,,,,,0,0,2,,,,,1,,,53,81
96608,note_off,,,,,0,0,1,,,,,0,,,94,80
96608,note_off,,,,,32,0,2,,,,,1,,,65,81
96608,note_off,,,,,0,0,1,,,,,0,,,101,80
96608,note_off,,,,,128,0,1,,,,,0,,,98,80
96608,note_off,,,,,0,0,1,,,,,0,,,89,80
96672,note_on,,,,,0,0,3,,,,,2,,,70,125
96672,note_on,,,,,0,0,3,,,,,2,,,73,125
96672,note_on,,,,,0,0,1,,,,,0,,,97,125
96672,note_on,,,,,0,0,1,,,,,0,,,94,125
96672,note_on,,,,,0,0,1,,,,,0,,,91,125
96672,note_on,,,,,256,0,3,,,,,2,,,64,125
96672,note_on,,,,,64,0,1,,,,,0,,,85,125
96672,note_on,,,,,0,0,3,,,,,2,,,67,125
96704,note_off,,,,,96,0,2,,,,,1,,,52,81
96704,note_off,,,,,0,0,2,,,,,1,,,40,81
96736,note_off,,,,,64,0,1,,,,,0,,,85,80
96736,note_off,,,,,0,0,1,,,,,0,,,91,80
96736,note_off,,,,,0,0,3,,,,,2,,,73,80
96736,note_off,,,,,0,0,3,,,,,2,,,70,80
96736,note_off,,,,,0,0,3,,,,,2,,,67,80
96736,note_off,,,,,0,0,1,,,,,0,,,94,80
96736,note_off,,,,,0,0,1,,,,,0,,,97,80
96736,note_off,,,,,64,0,3,,,,,2,,,64,80
96768,note_on,,,,,0,0,3,,,,,2,,,70,125
96768,note_on,,,,,32,0,3,,,,,2,,,64,125
96768,note_on,,,,,0,0,1,,,,,0,,,91,125
96768,note_on,,,,,0,0,1,,,,,0,,,94,125
96768,note_on,,,,,32,0,1,,,,,0,,,85,125
96768,note_on,,,,,0,0,1,,,,,0,,,97,125
96768,note_on,,,,,0,0,3,,,,,2,,,73,125
96768,note_on,,,,,0,0,3,,,,,2,,,67,125
96832,note_off,,,,,0,0,1,,,,,0,,,91,80
96832,note_off,,,,,0,0,3,,,,,2,,,73,80
96832,note_off,,,,,0,0,3,,,,,2,,,70,80
96832,note_off,,,,,0,0,3,,,,,2,,,67,80
96832,note_off,,,,,0,0,1,,,,,0,,,97,80
96832,note_off,,,,,0,0,1,,,,,0,,,94,80
96832,note_off,,,,,64,0,3,,,,,2,,,64,80
96832,note_off,,,,,64,0,1,,,,,0,,,85,80
96864,note_on,,,,,0,0,1,,,,,0,,,94,125
96864,note_on,,,,,0,0,1,,,,,0,,,97,125
96864,note_on,,,,,0,0,1,,,,,0,,,91,125
96864,note_on,,,,,32,0,3,,,,,2,,,64,125
96864,note_on,,,,,32,0,1,,,,,0,,,85,125
96864,note_on,,,,,0,0,3,,,,,2,,,73,125
96864,note_on,,,,,0,0,3,,,,,2,,,70,125
96864,note_on,,,,,0,0,3,,,,,2,,,67,125
96992,note_off,,,,,0,0,1,,,,,0,,,97,80
96992,note_off,,,,,0,0,1,,,,,0,,,91,80
96992,note_off,,,,,0,0,1,,,,,0,,,94,80
96992,note_off,,,,,0,0,3,,,,,2,,,70,80
96992,note_off,,,,,0,0,3,,,,,2,,,73,80
96992,note_off,,,,,0,0,3,,,,,2,,,67,80
96992,note_off,,,,,128,0,1,,,,,0,,,85,80
96992,note_off,,,,,128,0,3,,,,,2,,,64,80
97056,note_on,,,,,0,0,1,,,,,0,,,103,125
97056,note_on,,,,,64,0,1,,,,,0,,,91,125
97056,note_on,,,,,64,0,3,,,,,2,,,79,125
97152,note_on,,,,,448,0,2,,,,,1,,,53,127
97152,note_on,,,,,0,0,2,,,,,1,,,41,127
97184,note_off,,,,,128,0,1,,,,,0,,,91,80
97184,note_off,,,,,0,0,1,,,,,0,,,103,80
97184,note_off,,,,,128,0,3,,,,,2,,,79,80
97248,note_on,,,,,64,0,1,,,,,0,,,91,125
97248,note_on,,,,,0,0,3,,,,,2,,,70,125
97248,note_on,,,,,0,0,3,,,,,2,,,74,125
97248,note_on,,,,,64,0,3,,,,,2,,,62,125
97248,note_on,,,,,0,0,1,,,,,0,,,103,125
97248,note_on,,,,,0,0,1,,,,,0,,,98,125
97248,note_on,,,,,0,0,1,,,,,0,,,94,125
97280,note_off,,,,,128,0,2,,,,,1,,,53,81
97280,note_off,,,,,0,0,2,,,,,1,,,41,81
97312,note_off,,,,,0,0,3,,,,,2,,,74,80
97312,note_off,,,,,0,0,3,,,,,2,,,70,80
97312,note_off,,,,,64,0,3,,,,,2,,,62,80
97312,note_off,,,,,0,0,1,,,,,0,,,98,80
97312,note_off,,,,,0,0,1,,,,,0,,,94,80
97312,note_off,,,,,64,0,1,,,,,0,,,91,80
97312,note_off,,,,,0,0,1,,,,,0,,,103,80
97344,note_on,,,,,0,0,1,,,,,0,,,94,125
97344,note_on,,,,,0,0,1,,,,,0,,,98,125
97344,note_on,,,,,0,0,1,,,,,0,,,102,125
97344,note_on,,,,,0,0,3,,,,,2,,,74,125
97344,note_on,,,,,0,0,3,,,,,2,,,70,125
97344,note_on,,,,,32,0,3,,,,,2,,,62,125
97344,note_on,,,,,32,0,1,,,,,0,,,90,125
97408,note_off,,,,,0,0,1,,,,,0,,,102,80
97408,note_off,,,,,0,0,1,,,,,0,,,98,80
97408,note_off,,,,,64,0,3,,,,,2,,,62,80
97408,note_off,,,,,0,0,1,,,,,0,,,94,80
97408,note_off,,,,,64,0,1,,,,,0,,,90,80
97408,note_off,,,,,0,0,3,,,,,2,,,74,80
97408,note_off,,,,,0,0,3,,,,,2,,,70,80
97440,note_on,,,,,32,0,3,,,,,2,,,62,125
97440,note_on,,,,,32,0,1,,,,,0,,,90,125
97440,note_on,,,,,0,0,3,,,,,2,,,70,125
97440,note_on,,,,,0,0,1,,,,,0,,,102,125
97440,note_on,,,,,0,0,3,,,,,2,,,74,125
97440,note_on,,,,,0,0,1,,,,,0,,,94,125
97440,note_on,,,,,0,0,1,,,,,0,,,98,125
97568,note_off,,,,,0,0,1,,,,,0,,,94,80
97568,note_off,,,,,128,0,3,,,,,2,,,62,80
97568,note_off,,,,,0,0,1,,,,,0,,,102,80
97568,note_off,,,,,0,0,3,,,,,2,,,74,80
97568,note_off,,,,,0,0,1,,,,,0,,,98,80
97568,note_off,,,,,128,0,1,,,,,0,,,90,80
97568,note_off,,,,,0,0,3,,,,,2,,,70,80
97632,note_on,,,,,352,0,2,,,,,1,,,53,127
97632,note_on,,,,,0,0,1,,,,,0,,,101,125
97632,note_on,,,,,0,0,1,,,,,0,,,98,125
97632,note_on,,,,,0,0,1,,,,,0,,,94,125
97632,note_on,,,,,64,0,1,,,,,0,,,89,125
97632,note_on,,,,,0,0,2,,,,,1,,,65,127
97728,note_off,,,,,0,0,1,,,,,0,,,94,80
97728,note_on,,,,,0,0,2,,,,,1,,,46,127
97728,note_on,,,,,0,0,2,,,,,1,,,41,127
97728,note_off,,,,,96,0,2,,,,,1,,,53,81
97728,note_off,,,,,0,0,2,,,,,1,,,65,81
97728,note_off,,,,,0,0,1,,,,,0,,,101,80
97728,note_on,,,,,0,0,2,,,,,1,,,33,127
97728,note_off,,,,,96,0,1,,,,,0,,,89,80
97728,note_off,,,,,0,0,1,,,,,0,,,98,80
97792,note_off,,,,,64,0,2,,,,,1,,,46,81
97792,note_off,,,,,0,0,2,,,,,1,,,33,81
97792,note_off,,,,,0,0,2,,,,,1,,,41,81
97824,note_on,,,,,32,0,2,,,,,1,,,49,127
97888,note_off,,,,,64,0,2,,,,,1,,,49,81
97920,note_on,,,,,32,0,2,,,,,1,,,52,127
97984,note_off,,,,,64,0,2,,,,,1,,,52,81
98016,note_on,,,,,32,0,2,,,,,1,,,50,127
98080,note_off,,,,,64,0,2,,,,,1,,,50,81
98112,note_on,,,,,32,0,2,,,,,1,,,52,127
98176,note_off,,,,,64,0,2,,,,,1,,,52,81
98208,note_on,,,,,32,0,2,,,,,1,,,55,127
98272,note_off,,,,,64,0,2,,,,,1,,,55,81
98304,note_on,,,,,32,0,2,,,,,1,,,53,127
98368,note_off,,,,,64,0,2,,,,,1,,,53,81
98400,note_on,,,,,0,0,2,,,,,1,,,50,127
98400,note_on,,,,,32,0,2,,,,,1,,,53,127
98464,note_off,,,,,64,0,2,,,,,1,,,53,81
98464,note_off,,,,,0,0,2,,,,,1,,,50,81
98496,note_on,,,,,32,0,2,,,,,1,,,56,127
98560,note_off,,,,,64,0,2,,,,,1,,,56,81
98592,note_on,,,,,0,0,2,,,,,1,,,60,127
98592,note_on,,,,,32,0,2,,,,,1,,,57,127
98656,note_off,,,,,0,0,2,,,,,1,,,60,81
98656,note_off,,,,,64,0,2,,,,,1,,,57,81
98688,note_on,,,,,32,0,2,,,,,1,,,58,127
98752,note_off,,,,,64,0,2,,,,,1,,,58,81
98784,note_on,,,,,0,0,2,,,,,1,,,56,127
98784,note_on,,,,,32,0,2,,,,,1,,,53,127
98848,note_off,,,,,64,0,2,,,,,1,,,53,81
98848,note_off,,,,,0,0,2,,,,,1,,,56,81
98880,note_on,,,,,32,0,2,,,,,1,,,58,127
98944,note_off,,,,,64,0,2,,,,,1,,,58,81
98976,note_on,,,,,1248,0,1,,,,,0,,,64,125
98976,note_on,,,,,0,0,1,,,,,0,,,60,125
99040,note_off,,,,,64,0,1,,,,,0,,,64,80
99040,note_off,,,,,0,0,1,,,,,0,,,60,80
99072,note_on,,,,,32,0,1,,,,,0,,,62,125
99136,note_off,,,,,64,0,1,,,,,0,,,62,80
99168,note_on,,,,,224,0,2,,,,,1,,,58,127
99168,note_on,,,,,0,0,2,,,,,1,,,56,127
99232,note_off,,,,,64,0,2,,,,,1,,,58,81
99232,note_off,,,,,0,0,2,,,,,1,,,56,81
99264,note_on,,,,,32,0,2,,,,,1,,,62,127
99328,note_off,,,,,64,0,2,,,,,1,,,62,81
99360,note_on,,,,,0,0,1,,,,,0,,,67,125
99360,note_on,,,,,224,0,1,,,,,0,,,64,125
99424,note_off,,,,,0,0,1,,,,,0,,,67,80
99424,note_off,,,,,64,0,1,,,,,0,,,64,80
99456,note_on,,,,,32,0,1,,,,,0,,,65,125
99520,note_off,,,,,64,0,1,,,,,0,,,65,80
99552,note_on,,,,,0,0,1,,,,,0,,,62,125
99552,note_on,,,,,32,0,1,,,,,0,,,65,125
99616,note_off,,,,,64,0,1,,,,,0,,,65,80
99616,note_off,,,,,0,0,1,,,,,0,,,62,80
99648,note_on,,,,,32,0,1,,,,,0,,,68,125
99712,note_off,,,,,64,0,1,,,,,0,,,68,80
99744,note_on,,,,,32,0,1,,,,,0,,,69,125
99744,note_on,,,,,0,0,1,,,,,0,,,72,125
99808,note_off,,,,,0,0,1,,,,,0,,,72,80
99808,note_off,,,,,64,0,1,,,,,0,,,69,80
99840,note_on,,,,,32,0,1,,,,,0,,,70,125
99904,note_off,,,,,64,0,1,,,,,0,,,70,80
99936,note_on,,,,,0,0,1,,,,,0,,,68,125
99936,note_on,,,,,32,0,1,,,,,0,,,65,125
100000,note_off,,,,,64,0,1,,,,,0,,,65,80
100000,note_off,,,,,0,0,1,,,,,0,,,68,80
100032,note_on,,,,,32,0,1,,,,,0,,,71,125
100096,note_off,,,,,64,0,1,,,,,0,,,71,80
100128,note_on,,,,,0,0,1,,,,,0,,,76,125
100128,note_on,,,,,32,0,1,,,,,0,,,73,125
100192,note_off,,,,,64,0,1,,,,,0,,,73,80
100192,note_off,,,,,0,0,1,,,,,0,,,76,80
100224,note_on,,,,,32,0,1,,,,,0,,,74,125
100288,note_off,,,,,64,0,1,,,,,0,,,74,80
100320,note_on,,,,,0,0,1,,,,,0,,,68,125
100320,note_on,,,,,32,0,1,,,,,0,,,71,125
100384,note_off,,,,,64,0,1,,,,,0,,,71,80
100384,note_off,,,,,0,0,1,,,,,0,,,68,80
100416,note_on,,,,,32,0,1,,,,,0,,,74,125
100480,note_off,,,,,64,0,1,,,,,0,,,74,80
100512,note_on,,,,,0,0,1,,,,,0,,,80,125
100512,note_on,,,,,32,0,1,,,,,0,,,76,125
100576,note_off,,,,,0,0,1,,,,,0,,,80,80
100576,note_off,,,,,64,0,1,,,,,0,,,76,80
100608,note_on,,,,,32,0,1,,,,,0,,,77,125
100672,note_off,,,,,64,0,1,,,,,0,,,77,80
100704,note_on,,,,,32,0,1,,,,,0,,,77,125
100704,note_on,,,,,0,0,1,,,,,0,,,74,125
100768,note_off,,,,,0,0,1,,,,,0,,,74,80
100768,note_off,,,,,64,0,1,,,,,0,,,77,80
100800,note_on,,,,,32,0,1,,,,,0,,,80,125
100864,note_off,,,,,64,0,1,,,,,0,,,80,80
100896,note_on,,,,,32,0,1,,,,,0,,,81,125
100896,note_on,,,,,0,0,1,,,,,0,,,84,125
100960,note_off,,,,,0,0,1,,,,,0,,,84,80
100960,note_off,,,,,64,0,1,,,,,0,,,81,80
100992,note_on,,,,,32,0,1,,,,,0,,,82,125
101056,note_off,,,,,64,0,1,,,,,0,,,82,80
101088,note_on,,,,,32,0,1,,,,,0,,,77,125
101088,note_on,,,,,0,0,1,,,,,0,,,80,125
101152,note_off,,,,,0,0,1,,,,,0,,,80,80
101152,note_off,,,,,64,0,1,,,,,0,,,77,80
101184,note_on,,,,,3616,0,3,,,,,2,,,82,125
101248,note_off,,,,,64,0,3,,,,,2,,,82,80
101280,note_on,,,,,32,0,3,,,,,2,,,85,125
101280,note_on,,,,,0,0,3,,,,,2,,,88,125
101344,note_off,,,,,64,0,3,,,,,2,,,85,80
101344,note_off,,,,,0,0,3,,,,,2,,,88,80
101376,note_on,,,,,32,0,3,,,,,2,,,86,125
101440,note_off,,,,,64,0,3,,,,,2,,,86,80
101472,note_on,,,,,320,0,1,,,,,0,,,82,125
101472,note_on,,,,,0,0,1,,,,,0,,,80,125
101536,note_off,,,,,64,0,1,,,,,0,,,82,80
101536,note_off,,,,,0,0,1,,,,,0,,,80,80
101568,note_on,,,,,32,0,1,,,,,0,,,86,125
101632,note_off,,,,,64,0,1,,,,,0,,,86,80
101664,note_on,,,,,32,0,1,,,,,0,,,88,125
101664,note_on,,,,,0,0,1,,,,,0,,,91,125
101728,note_off,,,,,64,0,1,,,,,0,,,88,80
101728,note_off,,,,,0,0,1,,,,,0,,,91,80
101760,note_on,,,,,32,0,1,,,,,0,,,89,125
101824,note_off,,,,,64,0,1,,,,,0,,,89,80
101856,note_on,,,,,32,0,1,,,,,0,,,89,125
101856,note_on,,,,,0,0,1,,,,,0,,,86,125
101920,note_off,,,,,0,0,1,,,,,0,,,86,80
101920,note_off,,,,,64,0,1,,,,,0,,,89,80
101952,note_on,,,,,32,0,1,,,,,0,,,92,125
102016,note_off,,,,,64,0,1,,,,,0,,,92,80
102048,note_on,,,,,32,0,1,,,,,0,,,93,125
102048,note_on,,,,,0,0,1,,,,,0,,,96,125
102112,note_off,,,,,0,0,1,,,,,0,,,96,80
102112,note_off,,,,,64,0,1,,,,,0,,,93,80
102144,note_on,,,,,32,0,1,,,,,0,,,94,125
102208,note_off,,,,,64,0,1,,,,,0,,,94,80
102240,note_on,,,,,0,0,1,,,,,0,,,92,125
102240,note_on,,,,,32,0,1,,,,,0,,,89,125
102304,note_off,,,,,64,0,1,,,,,0,,,89,80
102304,note_off,,,,,0,0,1,,,,,0,,,92,80
102336,note_on,,,,,32,0,1,,,,,0,,,95,125
102400,note_off,,,,,64,0,1,,,,,0,,,95,80
102432,note_on,,,,,0,0,1,,,,,0,,,100,125
102432,note_on,,,,,32,0,1,,,,,0,,,97,125
102496,note_off,,,,,64,0,1,,,,,0,,,97,80
102496,note_off,,,,,0,0,1,,,,,0,,,100,80
102528,note_on,,,,,32,0,1,,,,,0,,,98,125
102592,note_off,,,,,64,0,1,,,,,0,,,98,80
102624,note_on,,,,,32,0,1,,,,,0,,,92,125
102624,note_on,,,,,0,0,1,,,,,0,,,94,125
102688,note_off,,,,,0,0,1,,,,,0,,,94,80
102688,note_off,,,,,64,0,1,,,,,0,,,92,80
102720,note_on,,,,,32,0,1,,,,,0,,,98,125
102784,note_off,,,,,64,0,1,,,,,0,,,98,80
102816,note_on,,,,,32,0,1,,,,,0,,,100,125
102816,note_on,,,,,0,0,1,,,,,0,,,103,125
102880,note_off,,,,,0,0,1,,,,,0,,,103,80
102880,note_off,,,,,64,0,1,,,,,0,,,100,80
102912,note_on,,,,,32,0,1,,,,,0,,,101,125
102976,note_off,,,,,64,0,1,,,,,0,,,101,80
103008,note_on,,,,,32,0,1,,,,,0,,,89,125
103008,note_on,,,,,0,0,1,,,,,0,,,92,125
103072,note_off,,,,,64,0,1,,,,,0,,,89,80
103072,note_off,,,,,0,0,1,,,,,0,,,92,80
103104,note_on,,,,,32,0,1,,,,,0,,,94,125
103168,note_off,,,,,64,0,1,,,,,0,,,94,80
103200,note_on,,,,,32,0,1,,,,,0,,,97,125
103200,note_on,,,,,0,0,1,,,,,0,,,100,125
103264,note_off,,,,,64,0,1,,,,,0,,,97,80
103264,note_off,,,,,0,0,1,,,,,0,,,100,80
103296,note_on,,,,,32,0,1,,,,,0,,,98,125
103360,note_off,,,,,64,0,1,,,,,0,,,98,80
103392,note_on,,,,,32,0,1,,,,,0,,,89,125
103392,note_on,,,,,0,0,1,,,,,0,,,86,125
103456,note_off,,,,,0,0,1,,,,,0,,,86,80
103456,note_off,,,,,64,0,1,,,,,0,,,89,80
103488,note_on,,,,,32,0,1,,,,,0,,,95,125
103552,note_off,,,,,64,0,1,,,,,0,,,95,80
103584,note_on,,,,,32,0,1,,,,,0,,,103,125
103648,note_off,,,,,64,0,1,,,,,0,,,103,80
103680,note_on,,,,,32,0,1,,,,,0,,,100,125
103744,note_off,,,,,64,0,1,,,,,0,,,100,80
103776,note_on,,,,,32,0,1,,,,,0,,,101,125
103840,note_off,,,,,64,0,1,,,,,0,,,101,80
103872,note_on,,,,,32,0,1,,,,,0,,,98,125
103936,note_off,,,,,64,0,1,,,,,0,,,98,80
103968,note_on,,,,,32,0,1,,,,,0,,,100,125
104032,note_off,,,,,64,0,1,,,,,0,,,100,80
104064,note_on,,,,,32,0,1,,,,,0,,,98,125
104128,note_off,,,,,64,0,1,,,,,0,,,98,80
104160,note_on,,,,,32,0,1,,,,,0,,,94,125
104224,note_off,,,,,64,0,1,,,,,0,,,94,80
104256,note_on,,,,,32,0,1,,,,,0,,,97,125
104320,note_off,,,,,64,0,1,,,,,0,,,97,80
104352,note_on,,,,,32,0,1,,,,,0,,,93,125
104416,note_off,,,,,64,0,1,,,,,0,,,93,80
104448,note_on,,,,,32,0,1,,,,,0,,,95,125
104512,note_off,,,,,64,0,1,,,,,0,,,95,80
104544,note_on,,,,,32,0,1,,,,,0,,,92,125
104608,note_off,,,,,64,0,1,,,,,0,,,92,80
104640,note_on,,,,,32,0,1,,,,,0,,,93,125
104704,note_off,,,,,64,0,1,,,,,0,,,93,80
104736,note_on,,,,,32,0,1,,,,,0,,,89,125
104800,note_off,,,,,64,0,1,,,,,0,,,89,80
104832,note_on,,,,,32,0,1,,,,,0,,,92,125
104896,note_off,,,,,64,0,1,,,,,0,,,92,80
104928,note_on,,,,,32,0,1,,,,,0,,,88,125
104992,note_off,,,,,64,0,1,,,,,0,,,88,80
105024,note_on,,,,,32,0,1,,,,,0,,,89,125
105088,note_off,,,,,64,0,1,,,,,0,,,89,80
105120,note_on,,,,,32,0,1,,,,,0,,,86,125
105184,note_off,,,,,64,0,1,,,,,0,,,86,80
105216,note_on,,,,,32,0,1,,,,,0,,,88,125
105280,note_off,,,,,64,0,1,,,,,0,,,88,80
105312,note_on,,,,,32,0,1,,,,,0,,,85,125
105376,note_off,,,,,64,0,1,,,,,0,,,85,80
105408,note_on,,,,,32,0,1,,,,,0,,,86,125
105472,note_off,,,,,64,0,1,,,,,0,,,86,80
105504,note_on,,,,,32,0,1,,,,,0,,,82,125
105568,note_off,,,,,64,0,1,,,,,0,,,82,80
105600,note_on,,,,,32,0,1,,,,,0,,,85,125
105664,note_off,,,,,64,0,1,,,,,0,,,85,80
105696,note_on,,,,,32,0,1,,,,,0,,,81,125
105760,note_off,,,,,64,0,1,,,,,0,,,81,80
105792,note_on,,,,,32,0,1,,,,,0,,,83,125
105856,note_off,,,,,64,0,1,,,,,0,,,83,80
105888,note_on,,,,,32,0,1,,,,,0,,,80,125
105952,note_off,,,,,64,0,1,,,,,0,,,80,80
105984,note_on,,,,,4544,0,3,,,,,2,,,81,125
106048,note_off,,,,,64,0,3,,,,,2,,,81,80
106080,note_on,,,,,32,0,3,,,,,2,,,77,125
106144,note_off,,,,,64,0,3,,,,,2,,,77,80
106176,note_on,,,,,32,0,3,,,,,2,,,80,125
106240,note_off,,,,,64,0,3,,,,,2,,,80,80
106272,note_on,,,,,32,0,3,,,,,2,,,76,125
106336,note_off,,,,,64,0,3,,,,,2,,,76,80
106368,note_on,,,,,32,0,3,,,,,2,,,78,125
106432,note_off,,,,,64,0,3,,,,,2,,,78,80
106464,note_on,,,,,32,0,3,,,,,2,,,74,125
106528,note_off,,,,,64,0,3,,,,,2,,,74,80
106560,note_on,,,,,32,0,3,,,,,2,,,76,125
106624,note_off,,,,,64,0,3,,,,,2,,,76,80
106656,note_on,,,,,32,0,3,,,,,2,,,73,125
106720,note_off,,,,,64,0,3,,,,,2,,,73,80
106752,note_on,,,,,32,0,3,,,,,2,,,74,125
106816,note_off,,,,,64,0,3,,,,,2,,,74,80
106848,note_on,,,,,32,0,3,,,,,2,,,70,125
106912,note_off,,,,,64,0,3,,,,,2,,,70,80
106944,note_on,,,,,32,0,3,,,,,2,,,73,125
107008,note_off,,,,,64,0,3,,,,,2,,,73,80
107040,note_on,,,,,32,0,3,,,,,2,,,69,125
107104,note_off,,,,,64,0,3,,,,,2,,,69,80
107136,note_on,,,,,32,0,3,,,,,2,,,70,125
107200,note_off,,,,,64,0,3,,,,,2,,,70,80
107232,note_on,,,,,32,0,3,,,,,2,,,68,125
107296,note_off,,,,,64,0,3,,,,,2,,,68,80
107328,note_on,,,,,32,0,3,,,,,2,,,69,125
107392,note_off,,,,,64,0,3,,,,,2,,,69,80
107424,note_on,,,,,32,0,3,,,,,2,,,65,125
107488,note_off,,,,,64,0,3,,,,,2,,,65,80
107520,note_on,,,,,32,0,3,,,,,2,,,68,125
107584,note_off,,,,,64,0,3,,,,,2,,,68,80
107616,note_on,,,,,32,0,3,,,,,2,,,64,125
107680,note_off,,,,,64,0,3,,,,,2,,,64,80
107712,note_on,,,,,32,0,3,,,,,2,,,65,125
107776,note_off,,,,,64,0,3,,,,,2,,,65,80
107808,note_on,,,,,32,0,3,,,,,2,,,62,125
107872,note_off,,,,,64,0,3,,,,,2,,,62,80
107904,note_on,,,,,32,0,3,,,,,2,,,64,125
107968,note_off,,,,,64,0,3,,,,,2,,,64,80
108000,note_on,,,,,32,0,3,,,,,2,,,61,125
108064,note_off,,,,,64,0,3,,,,,2,,,61,80
108096,note_on,,,,,32,0,3,,,,,2,,,62,125
108160,note_off,,,,,64,0,3,,,,,2,,,62,80
108192,note_on,,,,,32,0,3,,,,,2,,,57,125
108672,note_on,,,,,9344,0,2,,,,,1,,,58,127
108704,note_off,,,,,512,0,3,,,,,2,,,57,80
108736,note_off,,,,,64,0,2,,,,,1,,,58,81
108768,note_on,,,,,32,0,2,,,,,1,,,56,127
108832,note_off,,,,,64,0,2,,,,,1,,,56,81
108864,note_on,,,,,32,0,2,,,,,1,,,58,127
108928,note_off,,,,,64,0,2,,,,,1,,,58,81
108960,note_on,,,,,32,0,2,,,,,1,,,56,127
109024,note_off,,,,,64,0,2,,,,,1,,,56,81
109056,note_on,,,,,32,0,2,,,,,1,,,58,127
109120,note_off,,,,,64,0,2,,,,,1,,,58,81
109152,note_on,,,,,32,0,2,,,,,1,,,56,127
109216,note_off,,,,,64,0,2,,,,,1,,,56,81
109248,note_on,,,,,32,0,2,,,,,1,,,58,127
109312,note_off,,,,,64,0,2,,,,,1,,,58,81
109344,note_on,,,,,32,0,2,,,,,1,,,56,127
109408,note_off,,,,,64,0,2,,,,,1,,,56,81
109440,note_on,,,,,32,0,2,,,,,1,,,58,127
109504,note_off,,,,,64,0,2,,,,,1,,,58,81
109536,note_on,,,,,32,0,2,,,,,1,,,56,127
109600,note_off,,,,,64,0,2,,,,,1,,,56,81
109632,note_on,,,,,32,0,2,,,,,1,,,58,127
109696,note_off,,,,,64,0,2,,,,,1,,,58,81
109728,note_on,,,,,32,0,2,,,,,1,,,56,127
109792,note_off,,,,,64,0,2,,,,,1,,,56,81
109824,note_on,,,,,32,0,2,,,,,1,,,58,127
109888,note_off,,,,,64,0,2,,,,,1,,,58,81
109920,note_on,,,,,32,0,2,,,,,1,,,56,127
109984,note_off,,,,,64,0,2,,,,,1,,,56,81
110016,note_on,,,,,32,0,2,,,,,1,,,58,127
110080,note_off,,,,,64,0,2,,,,,1,,,58,81
110112,note_on,,,,,32,0,2,,,,,1,,,56,127
110176,note_off,,,,,64,0,2,,,,,1,,,56,81
110208,note_on,,,,,32,0,2,,,,,1,,,58,127
110272,note_off,,,,,64,0,2,,,,,1,,,58,81
110304,note_on,,,,,32,0,2,,,,,1,,,56,127
110368,note_off,,,,,64,0,2,,,,,1,,,56,81
110400,note_on,,,,,32,0,2,,,,,1,,,58,127
110464,note_off,,,,,64,0,2,,,,,1,,,58,81
110496,note_on,,,,,32,0,2,,,,,1,,,56,127
110560,note_off,,,,,64,0,2,,,,,1,,,56,81
110592,note_on,,,,,32,0,2,,,,,1,,,58,127
110656,note_off,,,,,64,0,2,,,,,1,,,58,81
110688,note_on,,,,,32,0,2,,,,,1,,,56,127
110752,note_off,,,,,64,0,2,,,,,1,,,56,81
110784,note_on,,,,,32,0,2,,,,,1,,,58,127
110848,note_off,,,,,64,0,2,,,,,1,,,58,81
110880,note_on,,,,,32,0,2,,,,,1,,,56,127
110944,note_off,,,,,64,0,2,,,,,1,,,56,81
110976,note_on,,,,,5024,0,1,,,,,0,,,86,125
110976,note_on,,,,,32,0,2,,,,,1,,,58,127
110976,note_on,,,,,0,0,1,,,,,0,,,89,125
111040,note_off,,,,,64,0,2,,,,,1,,,58,81
111040,note_off,,,,,64,0,1,,,,,0,,,86,80
111040,note_off,,,,,0,0,1,,,,,0,,,89,80
111072,note_on,,,,,32,0,1,,,,,0,,,91,125
111072,note_on,,,,,32,0,2,,,,,1,,,56,127
111136,note_off,,,,,64,0,1,,,,,0,,,91,80
111136,note_off,,,,,64,0,2,,,,,1,,,56,81
111168,note_on,,,,,32,0,1,,,,,0,,,89,125
111168,note_on,,,,,32,0,2,,,,,1,,,58,127
111168,note_on,,,,,0,0,1,,,,,0,,,86,125
111232,note_off,,,,,64,0,2,,,,,1,,,58,81
111232,note_off,,,,,0,0,1,,,,,0,,,86,80
111232,note_off,,,,,64,0,1,,,,,0,,,89,80
111264,note_on,,,,,32,0,2,,,,,1,,,56,127
111264,note_on,,,,,32,0,1,,,,,0,,,91,125
111328,note_off,,,,,64,0,2,,,,,1,,,56,81
111328,note_off,,,,,64,0,1,,,,,0,,,91,80
111360,note_on,,,,,32,0,2,,,,,1,,,58,127
111360,note_on,,,,,0,0,1,,,,,0,,,86,125
111360,note_on,,,,,32,0,1,,,,,0,,,89,125
111424,note_off,,,,,0,0,1,,,,,0,,,86,80
111424,note_off,,,,,64,0,1,,,,,0,,,89,80
111424,note_off,,,,,64,0,2,,,,,1,,,58,81
111456,note_on,,,,,32,0,2,,,,,1,,,56,127
111456,note_on,,,,,32,0,1,,,,,0,,,91,125
111520,note_off,,,,,64,0,1,,,,,0,,,91,80
111520,note_off,,,,,64,0,2,,,,,1,,,56,81
111552,note_on,,,,,32,0,1,,,,,0,,,86,125
111552,note_on,,,,,32,0,2,,,,,1,,,58,127
111552,note_on,,,,,0,0,1,,,,,0,,,89,125
111616,note_off,,,,,64,0,2,,,,,1,,,58,81
111648,note_on,,,,,32,0,2,,,,,1,,,57,127
111680,note_off,,,,,128,0,1,,,,,0,,,86,80
111680,note_off,,,,,0,0,1,,,,,0,,,89,80
111712,note_off,,,,,64,0,2,,,,,1,,,57,81
111744,note_on,,,,,0,0,1,,,,,0,,,85,125
111744,note_on,,,,,32,0,2,,,,,1,,,58,127
111744,note_on,,,,,64,0,1,,,,,0,,,88,125
111808,note_off,,,,,64,0,2,,,,,1,,,58,81
111840,note_on,,,,,32,0,2,,,,,1,,,57,127
111872,note_off,,,,,128,0,1,,,,,0,,,88,80
111872,note_off,,,,,0,0,1,,,,,0,,,85,80
111904,note_off,,,,,64,0,2,,,,,1,,,57,81
111936,note_on,,,,,0,0,1,,,,,0,,,89,125
111936,note_on,,,,,64,0,1,,,,,0,,,86,125
111936,note_on,,,,,32,0,2,,,,,1,,,58,127
112000,note_off,,,,,64,0,2,,,,,1,,,58,81
112032,note_on,,,,,32,0,2,,,,,1,,,57,127
112064,note_off,,,,,0,0,1,,,,,0,,,89,80
112064,note_off,,,,,128,0,1,,,,,0,,,86,80
112096,note_off,,,,,64,0,2,,,,,1,,,57,81
112128,note_on,,,,,32,0,2,,,,,1,,,58,127
112128,note_on,,,,,64,0,1,,,,,0,,,80,125
112128,note_on,,,,,0,0,1,,,,,0,,,86,125
112192,note_off,,,,,64,0,2,,,,,1,,,58,81
112224,note_on,,,,,32,0,2,,,,,1,,,59,127
112256,note_off,,,,,0,0,1,,,,,0,,,86,80
112256,note_off,,,,,128,0,1,,,,,0,,,80,80
112288,note_off,,,,,64,0,2,,,,,1,,,59,81
112320,note_on,,,,,32,0,2,,,,,1,,,58,127
112320,note_on,,,,,64,0,1,,,,,0,,,77,125
112320,note_on,,,,,0,0,1,,,,,0,,,80,125
112384,note_off,,,,,64,0,2,,,,,1,,,58,81
112416,note_on,,,,,32,0,2,,,,,1,,,59,127
112448,note_off,,,,,0,0,1,,,,,0,,,80,80
112448,note_off,,,,,128,0,1,,,,,0,,,77,80
112480,note_off,,,,,64,0,2,,,,,1,,,59,81
112512,note_on,,,,,0,0,1,,,,,0,,,86,125
112512,note_on,,,,,32,0,2,,,,,1,,,58,127
112512,note_on,,,,,64,0,1,,,,,0,,,80,125
112576,note_off,,,,,64,0,2,,,,,1,,,58,81
112608,note_on,,,,,32,0,2,,,,,1,,,59,127
112640,note_off,,,,,128,0,1,,,,,0,,,80,80
112640,note_off,,,,,0,0,1,,,,,0,,,86,80
112672,note_off,,,,,64,0,2,,,,,1,,,59,81
112704,note_on,,,,,64,0,1,,,,,0,,,86,125
112704,note_on,,,,,32,0,2,,,,,1,,,58,127
112704,note_on,,,,,0,0,1,,,,,0,,,89,125
112768,note_off,,,,,64,0,2,,,,,1,,,58,81
112800,note_on,,,,,32,0,2,,,,,1,,,57,127
112832,note_off,,,,,128,0,1,,,,,0,,,86,80
112832,note_off,,,,,0,0,1,,,,,0,,,89,80
112864,note_off,,,,,64,0,2,,,,,1,,,57,81
112896,note_on,,,,,32,0,2,,,,,1,,,58,127
112896,note_on,,,,,64,0,1,,,,,0,,,81,125
112896,note_on,,,,,0,0,1,,,,,0,,,86,125
112960,note_off,,,,,64,0,2,,,,,1,,,58,81
112992,note_on,,,,,32,0,2,,,,,1,,,57,127
113024,note_off,,,,,128,0,1,,,,,0,,,81,80
113024,note_off,,,,,0,0,1,,,,,0,,,86,80
113056,note_off,,,,,64,0,2,,,,,1,,,57,81
113088,note_on,,,,,32,0,2,,,,,1,,,58,127
113088,note_on,,,,,64,0,1,,,,,0,,,77,125
113088,note_on,,,,,0,0,1,,,,,0,,,81,125
113152,note_off,,,,,64,0,2,,,,,1,,,58,81
113184,note_on,,,,,32,0,2,,,,,1,,,57,127
113216,note_off,,,,,128,0,1,,,,,0,,,77,80
113216,note_off,,,,,0,0,1,,,,,0,,,81,80
113248,note_off,,,,,64,0,2,,,,,1,,,57,81
113280,note_on,,,,,0,0,1,,,,,0,,,82,125
113280,note_on,,,,,32,0,2,,,,,1,,,56,127
113280,note_on,,,,,64,0,1,,,,,0,,,77,125
113344,note_off,,,,,64,0,2,,,,,1,,,56,81
113344,note_off,,,,,64,0,1,,,,,0,,,77,80
113344,note_off,,,,,0,0,1,,,,,0,,,82,80
113376,note_on,,,,,32,0,2,,,,,1,,,57,127
113376,note_on,,,,,32,0,1,,,,,0,,,86,125
113440,note_off,,,,,64,0,2,,,,,1,,,57,81
113440,note_off,,,,,64,0,1,,,,,0,,,86,80
113472,note_on,,,,,32,0,1,,,,,0,,,77,125
113472,note_on,,,,,32,0,2,,,,,1,,,56,127
113472,note_on,,,,,0,0,1,,,,,0,,,82,125
113536,note_off,,,,,64,0,2,,,,,1,,,56,81
113536,note_off,,,,,0,0,1,,,,,0,,,82,80
113536,note_off,,,,,64,0,1,,,,,0,,,77,80
113568,note_on,,,,,32,0,1,,,,,0,,,86,125
113568,note_on,,,,,32,0,2,,,,,1,,,57,127
113632,note_off,,,,,64,0,1,,,,,0,,,86,80
113632,note_off,,,,,64,0,2,,,,,1,,,57,81
113664,note_on,,,,,0,0,1,,,,,0,,,82,125
113664,note_on,,,,,32,0,2,,,,,1,,,56,127
113664,note_on,,,,,32,0,1,,,,,0,,,77,125
113728,note_off,,,,,0,0,1,,,,,0,,,82,80
113728,note_off,,,,,64,0,1,,,,,0,,,77,80
113728,note_off,,,,,64,0,2,,,,,1,,,56,81
113760,note_on,,,,,32,0,1,,,,,0,,,86,125
113760,note_on,,,,,32,0,2,,,,,1,,,57,127
113824,note_off,,,,,64,0,1,,,,,0,,,86,80
113824,note_off,,,,,64,0,2,,,,,1,,,57,81
113856,note_on,,,,,32,0,1,,,,,0,,,77,125
113856,note_on,,,,,32,0,2,,,,,1,,,58,127
113856,note_on,,,,,0,0,1,,,,,0,,,81,125
113920,note_off,,,,,64,0,2,,,,,1,,,58,81
113952,note_on,,,,,32,0,2,,,,,1,,,57,127
113984,note_off,,,,,128,0,1,,,,,0,,,77,80
113984,note_off,,,,,0,0,1,,,,,0,,,81,80
114016,note_off,,,,,64,0,2,,,,,1,,,57,81
114048,note_on,,,,,0,0,1,,,,,0,,,80,125
114048,note_on,,,,,32,0,2,,,,,1,,,58,127
114048,note_on,,,,,64,0,1,,,,,0,,,76,125
114112,note_off,,,,,64,0,2,,,,,1,,,58,81
114144,note_on,,,,,32,0,2,,,,,1,,,57,127
114176,note_off,,,,,0,0,1,,,,,0,,,80,80
114176,note_off,,,,,128,0,1,,,,,0,,,76,80
114208,note_off,,,,,64,0,2,,,,,1,,,57,81
114240,note_on,,,,,32,0,2,,,,,1,,,58,127
114240,note_on,,,,,0,0,1,,,,,0,,,81,125
114240,note_on,,,,,64,0,1,,,,,0,,,76,125
114304,note_off,,,,,64,0,2,,,,,1,,,58,81
114336,note_on,,,,,32,0,2,,,,,1,,,57,127
114368,note_off,,,,,0,0,1,,,,,0,,,81,80
114368,note_off,,,,,128,0,1,,,,,0,,,76,80
114400,note_off,,,,,64,0,2,,,,,1,,,57,81
114432,note_on,,,,,64,0,1,,,,,0,,,77,125
114432,note_on,,,,,0,0,1,,,,,0,,,74,125
114432,note_on,,,,,32,0,2,,,,,1,,,58,127
114496,note_off,,,,,64,0,2,,,,,1,,,58,81
114528,note_on,,,,,32,0,2,,,,,1,,,59,127
114560,note_off,,,,,0,0,1,,,,,0,,,74,80
114560,note_off,,,,,128,0,1,,,,,0,,,77,80
114592,note_off,,,,,64,0,2,,,,,1,,,59,81
114624,note_on,,,,,64,0,1,,,,,0,,,77,125
114624,note_on,,,,,0,0,1,,,,,0,,,80,125
114624,note_on,,,,,32,0,2,,,,,1,,,58,127
114688,note_off,,,,,64,0,2,,,,,1,,,58,81
114720,note_on,,,,,32,0,2,,,,,1,,,59,127
114752,note_off,,,,,0,0,1,,,,,0,,,80,80
114752,note_off,,,,,128,0,1,,,,,0,,,77,80
114784,note_off,,,,,64,0,2,,,,,1,,,59,81
114816,note_on,,,,,32,0,2,,,,,1,,,58,127
114816,note_on,,,,,0,0,1,,,,,0,,,85,125
114816,note_on,,,,,64,0,1,,,,,0,,,76,125
114880,note_off,,,,,64,0,2,,,,,1,,,58,81
114912,note_on,,,,,32,0,2,,,,,1,,,59,127
114944,note_off,,,,,128,0,1,,,,,0,,,76,80
114944,note_off,,,,,0,0,1,,,,,0,,,85,80
114976,note_off,,,,,64,0,2,,,,,1,,,59,81
115008,note_on,,,,,64,0,1,,,,,0,,,77,125
115008,note_on,,,,,32,0,2,,,,,1,,,58,127
115008,note_on,,,,,0,0,1,,,,,0,,,86,125
115072,note_off,,,,,64,0,2,,,,,1,,,58,81
115104,note_on,,,,,32,0,2,,,,,1,,,57,127
115136,note_off,,,,,0,0,1,,,,,0,,,86,80
115136,note_off,,,,,128,0,1,,,,,0,,,77,80
115168,note_off,,,,,64,0,2,,,,,1,,,57,81
115200,note_on,,,,,0,0,1,,,,,0,,,81,125
115200,note_on,,,,,32,0,2,,,,,1,,,58,127
115200,note_on,,,,,64,0,1,,,,,0,,,77,125
115264,note_off,,,,,64,0,2,,,,,1,,,58,81
115296,note_on,,,,,32,0,2,,,,,1,,,57,127
115328,note_off,,,,,0,0,1,,,,,0,,,81,80
115328,note_off,,,,,128,0,1,,,,,0,,,77,80
115360,note_off,,,,,64,0,2,,,,,1,,,57,81
115392,note_on,,,,,32,0,2,,,,,1,,,58,127
115392,note_on,,,,,64,0,1,,,,,0,,,74,125
115392,note_on,,,,,0,0,1,,,,,0,,,77,125
115456,note_off,,,,,64,0,2,,,,,1,,,58,81
115488,note_on,,,,,32,0,2,,,,,1,,,57,127
115520,note_off,,,,,0,0,1,,,,,0,,,77,80
115520,note_off,,,,,128,0,1,,,,,0,,,74,80
115552,note_off,,,,,64,0,2,,,,,1,,,57,81
115584,note_on,,,,,32,0,2,,,,,1,,,56,127
115584,note_on,,,,,0,0,1,,,,,0,,,74,125
115584,note_on,,,,,64,0,1,,,,,0,,,77,125
115648,note_off,,,,,64,0,1,,,,,0,,,77,80
115648,note_off,,,,,0,0,1,,,,,0,,,74,80
115648,note_off,,,,,64,0,2,,,,,1,,,56,81
115680,note_on,,,,,32,0,1,,,,,0,,,79,125
115680,note_on,,,,,32,0,2,,,,,1,,,57,127
115744,note_off,,,,,64,0,1,,,,,0,,,79,80
115744,note_off,,,,,64,0,2,,,,,1,,,57,81
115776,note_on,,,,,32,0,1,,,,,0,,,77,125
115776,note_on,,,,,32,0,2,,,,,1,,,56,127
115776,note_on,,,,,0,0,1,,,,,0,,,74,125
115840,note_off,,,,,64,0,1,,,,,0,,,77,80
115840,note_off,,,,,64,0,2,,,,,1,,,56,81
115840,note_off,,,,,0,0,1,,,,,0,,,74,80
115872,note_on,,,,,32,0,1,,,,,0,,,79,125
115872,note_on,,,,,32,0,2,,,,,1,,,57,127
115936,note_off,,,,,64,0,1,,,,,0,,,79,80
115936,note_off,,,,,64,0,2,,,,,1,,,57,81
115968,note_on,,,,,0,0,1,,,,,0,,,74,125
115968,note_on,,,,,32,0,2,,,,,1,,,56,127
115968,note_on,,,,,32,0,1,,,,,0,,,77,125
116032,note_off,,,,,64,0,1,,,,,0,,,77,80
116032,note_off,,,,,0,0,1,,,,,0,,,74,80
116032,note_off,,,,,64,0,2,,,,,1,,,56,81
116064,note_on,,,,,32,0,1,,,,,0,,,79,125
116064,note_on,,,,,32,0,2,,,,,1,,,57,127
116128,note_off,,,,,64,0,2,,,,,1,,,57,81
116128,note_off,,,,,64,0,1,,,,,0,,,79,80
116160,note_on,,,,,0,0,1,,,,,0,,,74,125
116160,note_on,,,,,32,0,1,,,,,0,,,77,125
116160,note_on,,,,,32,0,2,,,,,1,,,58,127
116224,note_off,,,,,64,0,2,,,,,1,,,58,81
116256,note_on,,,,,32,0,2,,,,,1,,,57,127
116288,note_off,,,,,128,0,1,,,,,0,,,77,80
116288,note_off,,,,,0,0,1,,,,,0,,,74,80
116320,note_off,,,,,64,0,2,,,,,1,,,57,81
116352,note_on,,,,,64,0,1,,,,,0,,,76,125
116352,note_on,,,,,32,0,2,,,,,1,,,58,127
116352,note_on,,,,,0,0,1,,,,,0,,,73,125
116416,note_off,,,,,64,0,2,,,,,1,,,58,81
116448,note_on,,,,,32,0,2,,,,,1,,,57,127
116480,note_off,,,,,128,0,1,,,,,0,,,76,80
116480,note_off,,,,,0,0,1,,,,,0,,,73,80
116512,note_off,,,,,64,0,2,,,,,1,,,57,81
116544,note_on,,,,,0,0,1,,,,,0,,,74,125
116544,note_on,,,,,32,0,2,,,,,1,,,58,127
116544,note_on,,,,,64,0,1,,,,,0,,,77,125
116608,note_off,,,,,64,0,2,,,,,1,,,58,81
116640,note_on,,,,,32,0,2,,,,,1,,,57,127
116672,note_off,,,,,128,0,1,,,,,0,,,77,80
116672,note_off,,,,,0,0,1,,,,,0,,,74,80
116704,note_off,,,,,64,0,2,,,,,1,,,57,81
116736,note_on,,,,,0,0,1,,,,,0,,,74,125
116736,note_on,,,,,64,0,1,,,,,0,,,68,125
116736,note_on,,,,,32,0,2,,,,,1,,,58,127
116800,note_off,,,,,64,0,2,,,,,1,,,58,81
116832,note_on,,,,,32,0,2,,,,,1,,,59,127
116864,note_off,,,,,128,0,1,,,,,0,,,68,80
116864,note_off,,,,,0,0,1,,,,,0,,,74,80
116896,note_off,,,,,64,0,2,,,,,1,,,59,81
116928,note_on,,,,,32,0,2,,,,,1,,,58,127
116928,note_on,,,,,64,0,1,,,,,0,,,65,125
116928,note_on,,,,,0,0,1,,,,,0,,,68,125
116992,note_off,,,,,64,0,2,,,,,1,,,58,81
117024,note_on,,,,,32,0,2,,,,,1,,,59,127
117056,note_off,,,,,0,0,1,,,,,0,,,68,80
117056,note_off,,,,,128,0,1,,,,,0,,,65,80
117088,note_off,,,,,64,0,2,,,,,1,,,59,81
117120,note_on,,,,,64,0,1,,,,,0,,,68,125
117120,note_on,,,,,32,0,2,,,,,1,,,58,127
117120,note_on,,,,,0,0,1,,,,,0,,,74,125
117184,note_off,,,,,64,0,2,,,,,1,,,58,81
117216,note_on,,,,,32,0,2,,,,,1,,,59,127
117248,note_off,,,,,128,0,1,,,,,0,,,68,80
117248,note_off,,,,,0,0,1,,,,,0,,,74,80
117280,note_off,,,,,64,0,2,,,,,1,,,59,81
117312,note_on,,,,,32,0,2,,,,,1,,,58,127
117312,note_on,,,,,0,0,1,,,,,0,,,77,125
117312,note_on,,,,,64,0,1,,,,,0,,,74,125
117376,note_off,,,,,64,0,2,,,,,1,,,58,81
117408,note_on,,,,,32,0,2,,,,,1,,,57,127
117440,note_off,,,,,0,0,1,,,,,0,,,77,80
117440,note_off,,,,,128,0,1,,,,,0,,,74,80
117472,note_off,,,,,64,0,2,,,,,1,,,57,81
117504,note_on,,,,,32,0,2,,,,,1,,,58,127
117504,note_on,,,,,64,0,1,,,,,0,,,69,125
117504,note_on,,,,,0,0,1,,,,,0,,,74,125
117568,note_off,,,,,64,0,2,,,,,1,,,58,81
117600,note_on,,,,,32,0,2,,,,,1,,,57,127
117632,note_off,,,,,0,0,1,,,,,0,,,74,80
117632,note_off,,,,,128,0,1,,,,,0,,,69,80
117664,note_off,,,,,64,0,2,,,,,1,,,57,81
117696,note_on,,,,,32,0,2,,,,,1,,,58,127
117696,note_on,,,,,64,0,1,,,,,0,,,65,125
117696,note_on,,,,,0,0,1,,,,,0,,,69,125
117760,note_off,,,,,64,0,2,,,,,1,,,58,81
117792,note_on,,,,,32,0,2,,,,,1,,,57,127
117824,note_off,,,,,128,0,1,,,,,0,,,65,80
117824,note_off,,,,,0,0,1,,,,,0,,,69,80
117856,note_off,,,,,64,0,2,,,,,1,,,57,81
117888,note_on,,,,,64,0,1,,,,,0,,,65,125
117888,note_on,,,,,32,0,2,,,,,1,,,56,127
117888,note_on,,,,,0,0,1,,,,,0,,,70,125
117952,note_off,,,,,64,0,1,,,,,0,,,65,80
117952,note_off,,,,,0,0,1,,,,,0,,,70,80
117952,note_off,,,,,64,0,2,,,,,1,,,56,81
117984,note_on,,,,,32,0,2,,,,,1,,,57,127
117984,note_on,,,,,32,0,1,,,,,0,,,74,125
118048,note_off,,,,,64,0,1,,,,,0,,,74,80
118048,note_off,,,,,64,0,2,,,,,1,,,57,81
118080,note_on,,,,,32,0,2,,,,,1,,,56,127
118080,note_on,,,,,32,0,1,,,,,0,,,70,125
118080,note_on,,,,,0,0,1,,,,,0,,,65,125
118144,note_off,,,,,64,0,2,,,,,1,,,56,81
118144,note_off,,,,,64,0,1,,,,,0,,,70,80
118144,note_off,,,,,0,0,1,,,,,0,,,65,80
118176,note_on,,,,,32,0,1,,,,,0,,,74,125
118176,note_on,,,,,32,0,2,,,,,1,,,57,127
118240,note_off,,,,,64,0,2,,,,,1,,,57,81
118240,note_off,,,,,64,0,1,,,,,0,,,74,80
118272,note_on,,,,,32,0,1,,,,,0,,,70,125
118272,note_on,,,,,32,0,2,,,,,1,,,56,127
118272,note_on,,,,,0,0,1,,,,,0,,,65,125
118336,note_off,,,,,64,0,1,,,,,0,,,70,80
118336,note_off,,,,,0,0,1,,,,,0,,,65,80
118336,note_off,,,,,64,0,2,,,,,1,,,56,81
118368,note_on,,,,,32,0,1,,,,,0,,,74,125
118368,note_on,,,,,32,0,2,,,,,1,,,57,127
118432,note_off,,,,,64,0,1,,,,,0,,,74,80
118432,note_off,,,,,64,0,2,,,,,1,,,57,81
118464,note_on,,,,,0,0,1,,,,,0,,,65,125
118464,note_on,,,,,32,0,2,,,,,1,,,58,127
118464,note_on,,,,,32,0,1,,,,,0,,,69,125
118528,note_off,,,,,64,0,2,,,,,1,,,58,81
118560,note_on,,,,,32,0,2,,,,,1,,,57,127
118592,note_off,,,,,128,0,1,,,,,0,,,69,80
118592,note_off,,,,,0,0,1,,,,,0,,,65,80
118624,note_off,,,,,64,0,2,,,,,1,,,57,81
118656,note_on,,,,,0,0,1,,,,,0,,,68,125
118656,note_on,,,,,32,0,2,,,,,1,,,58,127
118656,note_on,,,,,64,0,1,,,,,0,,,64,125
118720,note_off,,,,,64,0,2,,,,,1,,,58,81
118752,note_on,,,,,32,0,2,,,,,1,,,57,127
118784,note_off,,,,,128,0,1,,,,,0,,,64,80
118784,note_off,,,,,0,0,1,,,,,0,,,68,80
118816,note_off,,,,,64,0,2,,,,,1,,,57,81
118848,note_on,,,,,64,0,1,,,,,0,,,65,125
118848,note_on,,,,,32,0,2,,,,,1,,,58,127
118848,note_on,,,,,0,0,1,,,,,0,,,69,125
118912,note_off,,,,,64,0,2,,,,,1,,,58,81
118944,note_on,,,,,32,0,2,,,,,1,,,57,127
118976,note_off,,,,,128,0,1,,,,,0,,,65,80
118976,note_off,,,,,0,0,1,,,,,0,,,69,80
119008,note_off,,,,,64,0,2,,,,,1,,,57,81
119040,note_on,,,,,32,0,2,,,,,1,,,58,127
119040,note_on,,,,,0,0,1,,,,,0,,,66,125
119040,note_on,,,,,64,0,1,,,,,0,,,69,125
119104,note_off,,,,,64,0,2,,,,,1,,,58,81
119136,note_on,,,,,32,0,2,,,,,1,,,59,127
119168,note_off,,,,,128,0,1,,,,,0,,,69,80
119168,note_off,,,,,0,0,1,,,,,0,,,66,80
119200,note_off,,,,,64,0,2,,,,,1,,,59,81
119232,note_on,,,,,0,0,1,,,,,0,,,68,125
119232,note_on,,,,,32,0,2,,,,,1,,,58,127
119232,note_on,,,,,64,0,1,,,,,0,,,66,125
119296,note_off,,,,,64,0,2,,,,,1,,,58,81
119328,note_on,,,,,32,0,2,,,,,1,,,59,127
119360,note_off,,,,,0,0,1,,,,,0,,,68,80
119360,note_off,,,,,128,0,1,,,,,0,,,66,80
119392,note_off,,,,,64,0,2,,,,,1,,,59,81
119424,note_on,,,,,64,0,1,,,,,0,,,64,125
119424,note_on,,,,,0,0,1,,,,,0,,,73,125
119424,note_on,,,,,32,0,2,,,,,1,,,58,127
119488,note_off,,,,,64,0,2,,,,,1,,,58,81
119520,note_on,,,,,32,0,2,,,,,1,,,59,127
119552,note_off,,,,,0,0,1,,,,,0,,,73,80
119552,note_off,,,,,128,0,1,,,,,0,,,64,80
119584,note_off,,,,,64,0,2,,,,,1,,,59,81
119616,note_on,,,,,64,0,1,,,,,0,,,74,125
119616,note_on,,,,,0,0,1,,,,,0,,,65,125
119616,note_on,,,,,32,0,2,,,,,1,,,58,127
119680,note_off,,,,,64,0,2,,,,,1,,,58,81
119712,note_on,,,,,32,0,2,,,,,1,,,57,127
119744,note_off,,,,,128,0,1,,,,,0,,,74,80
119744,note_off,,,,,0,0,1,,,,,0,,,65,80
119776,note_off,,,,,64,0,2,,,,,1,,,57,81
119808,note_on,,,,,32,0,2,,,,,1,,,58,127
119808,note_on,,,,,64,0,1,,,,,0,,,65,125
119808,note_on,,,,,0,0,1,,,,,0,,,69,125
119872,note_off,,,,,64,0,2,,,,,1,,,58,81
119904,note_on,,,,,32,0,2,,,,,1,,,57,127
119936,note_off,,,,,128,0,1,,,,,0,,,65,80
119936,note_off,,,,,0,0,1,,,,,0,,,69,80
119968,note_off,,,,,64,0,2,,,,,1,,,57,81
120000,note_on,,,,,0,0,1,,,,,0,,,62,125
120000,note_on,,,,,32,0,2,,,,,1,,,58,127
120000,note_on,,,,,64,0,1,,,,,0,,,65,125
120064,note_off,,,,,64,0,2,,,,,1,,,58,81
120096,note_on,,,,,32,0,2,,,,,1,,,57,127
120128,note_off,,,,,128,0,1,,,,,0,,,65,80
120128,note_off,,,,,0,0,1,,,,,0,,,62,80
120160,note_off,,,,,64,0,2,,,,,1,,,57,81
120192,note_on,,,,,64,0,1,,,,,0,,,65,125
120192,note_on,,,,,0,0,1,,,,,0,,,62,125
120192,note_on,,,,,32,0,2,,,,,1,,,56,127
120256,note_off,,,,,64,0,1,,,,,0,,,65,80
120256,note_off,,,,,0,0,1,,,,,0,,,62,80
120256,note_off,,,,,64,0,2,,,,,1,,,56,81
120288,note_on,,,,,32,0,1,,,,,0,,,67,125
120288,note_on,,,,,32,0,2,,,,,1,,,57,127
120352,note_off,,,,,64,0,1,,,,,0,,,67,80
120352,note_off,,,,,64,0,2,,,,,1,,,57,81
120384,note_on,,,,,0,0,1,,,,,0,,,65,125
120384,note_on,,,,,32,0,2,,,,,1,,,58,127
120384,note_on,,,,,32,0,1,,,,,0,,,62,125
120448,note_off,,,,,64,0,2,,,,,1,,,58,81
120448,note_off,,,,,64,0,1,,,,,0,,,62,80
120448,note_off,,,,,0,0,1,,,,,0,,,65,80
120480,note_on,,,,,32,0,1,,,,,0,,,67,125
120480,note_on,,,,,32,0,2,,,,,1,,,59,127
120544,note_off,,,,,64,0,2,,,,,1,,,59,81
120544,note_off,,,,,64,0,1,,,,,0,,,67,80
120576,note_on,,,,,32,0,1,,,,,0,,,62,125
120576,note_on,,,,,0,0,1,,,,,0,,,65,125
120640,note_off,,,,,0,0,1,,,,,0,,,65,80
120640,note_off,,,,,64,0,1,,,,,0,,,62,80
120672,note_on,,,,,32,0,1,,,,,0,,,67,125
120736,note_off,,,,,64,0,1,,,,,0,,,67,80
120768,note_on,,,,,0,0,1,,,,,0,,,62,125
120768,note_on,,,,,32,0,1,,,,,0,,,65,125
120768,note_on,,,,,224,0,2,,,,,1,,,60,127
120832,note_off,,,,,64,0,1,,,,,0,,,65,80
120832,note_off,,,,,0,0,1,,,,,0,,,62,80
120832,note_off,,,,,64,0,2,,,,,1,,,60,81
120864,note_on,,,,,32,0,1,,,,,0,,,67,125
120864,note_on,,,,,32,0,2,,,,,1,,,59,127
120928,note_off,,,,,64,0,1,,,,,0,,,67,80
120928,note_off,,,,,64,0,2,,,,,1,,,59,81
120960,note_on,,,,,32,0,1,,,,,0,,,65,125
120960,note_on,,,,,0,0,1,,,,,0,,,62,125
120960,note_on,,,,,32,0,2,,,,,1,,,58,127
121024,note_off,,,,,64,0,1,,,,,0,,,65,80
121024,note_off,,,,,64,0,2,,,,,1,,,58,81
121024,note_off,,,,,0,0,1,,,,,0,,,62,80
121056,note_on,,,,,32,0,1,,,,,0,,,67,125
121056,note_on,,,,,32,0,2,,,,,1,,,57,127
121120,note_off,,,,,64,0,2,,,,,1,,,57,81
121120,note_off,,,,,64,0,1,,,,,0,,,67,80
121152,note_on,,,,,32,0,1,,,,,0,,,65,125
121152,note_on,,,,,0,0,1,,,,,0,,,62,125
121216,note_off,,,,,64,0,1,,,,,0,,,65,80
121216,note_off,,,,,0,0,1,,,,,0,,,62,80
121248,note_on,,,,,32,0,1,,,,,0,,,67,125
121312,note_off,,,,,64,0,1,,,,,0,,,67,80
121344,note_on,,,,,0,0,1,,,,,0,,,62,125
121344,note_on,,,,,32,0,1,,,,,0,,,65,125
121344,note_on,,,,,224,0,2,,,,,1,,,56,127
121408,note_off,,,,,64,0,2,,,,,1,,,56,81
121408,note_off,,,,,64,0,1,,,,,0,,,65,80
121408,note_off,,,,,0,0,1,,,,,0,,,62,80
121440,note_on,,,,,32,0,1,,,,,0,,,67,125
121440,note_on,,,,,32,0,2,,,,,1,,,57,127
121504,note_off,,,,,64,0,1,,,,,0,,,67,80
121504,note_off,,,,,64,0,2,,,,,1,,,57,81
121536,note_on,,,,,32,0,2,,,,,1,,,58,127
121536,note_on,,,,,32,0,1,,,,,0,,,65,125
121536,note_on,,,,,0,0,1,,,,,0,,,62,125
121600,note_off,,,,,64,0,1,,,,,0,,,65,80
121600,note_off,,,,,0,0,1,,,,,0,,,62,80
121600,note_off,,,,,64,0,2,,,,,1,,,58,81
121632,note_on,,,,,32,0,1,,,,,0,,,67,125
121632,note_on,,,,,32,0,2,,,,,1,,,59,127
121696,note_off,,,,,64,0,2,,,,,1,,,59,81
121696,note_off,,,,,64,0,1,,,,,0,,,67,80
121728,note_on,,,,,0,0,1,,,,,0,,,62,125
121728,note_on,,,,,32,0,1,,,,,0,,,65,125
121792,note_off,,,,,64,0,1,,,,,0,,,65,80
121792,note_off,,,,,0,0,1,,,,,0,,,62,80
121824,note_on,,,,,32,0,1,,,,,0,,,67,125
121888,note_off,,,,,64,0,1,,,,,0,,,67,80
121920,note_on,,,,,32,0,1,,,,,0,,,65,125
121920,note_on,,,,,224,0,2,,,,,1,,,60,127
121920,note_on,,,,,0,0,1,,,,,0,,,62,125
121984,note_off,,,,,0,0,1,,,,,0,,,62,80
121984,note_off,,,,,64,0,1,,,,,0,,,65,80
121984,note_off,,,,,64,0,2,,,,,1,,,60,81
122016,note_on,,,,,32,0,2,,,,,1,,,59,127
122016,note_on,,,,,32,0,1,,,,,0,,,67,125
122080,note_off,,,,,64,0,1,,,,,0,,,67,80
122080,note_off,,,,,64,0,2,,,,,1,,,59,81
122112,note_on,,,,,32,0,1,,,,,0,,,65,125
122112,note_on,,,,,0,0,1,,,,,0,,,62,125
122112,note_on,,,,,32,0,2,,,,,1,,,58,127
122176,note_off,,,,,64,0,2,,,,,1,,,58,81
122176,note_off,,,,,0,0,1,,,,,0,,,62,80
122176,note_off,,,,,64,0,1,,,,,0,,,65,80
122208,note_on,,,,,32,0,1,,,,,0,,,67,125
122208,note_on,,,,,32,0,2,,,,,1,,,57,127
122272,note_off,,,,,64,0,2,,,,,1,,,57,81
122272,note_off,,,,,64,0,1,,,,,0,,,67,80
122304,note_on,,,,,0,0,1,,,,,0,,,62,125
122304,note_on,,,,,32,0,1,,,,,0,,,65,125
122368,note_off,,,,,0,0,1,,,,,0,,,62,80
122368,note_off,,,,,64,0,1,,,,,0,,,65,80
122400,note_on,,,,,32,0,1,,,,,0,,,67,125
122464,note_off,,,,,64,0,1,,,,,0,,,67,80
122496,note_on,,,,,32,0,1,,,,,0,,,65,125
122496,note_on,,,,,0,0,1,,,,,0,,,62,125
122496,note_on,,,,,224,0,2,,,,,1,,,56,127
122560,note_off,,,,,0,0,1,,,,,0,,,62,80
122560,note_off,,,,,64,0,1,,,,,0,,,65,80
122560,note_off,,,,,64,0,2,,,,,1,,,56,81
122592,note_on,,,,,32,0,2,,,,,1,,,59,127
122592,note_on,,,,,32,0,1,,,,,0,,,67,125
122656,note_off,,,,,64,0,1,,,,,0,,,67,80
122656,note_off,,,,,64,0,2,,,,,1,,,59,81
122688,note_on,,,,,0,0,1,,,,,0,,,62,125
122688,note_on,,,,,32,0,2,,,,,1,,,56,127
122688,note_on,,,,,32,0,1,,,,,0,,,65,125
122752,note_off,,,,,0,0,1,,,,,0,,,62,80
122752,note_off,,,,,64,0,1,,,,,0,,,65,80
122752,note_off,,,,,64,0,2,,,,,1,,,56,81
122784,note_on,,,,,32,0,2,,,,,1,,,59,127
122784,note_on,,,,,32,0,1,,,,,0,,,67,125
122848,note_off,,,,,64,0,1,,,,,0,,,67,80
122848,note_off,,,,,64,0,2,,,,,1,,,59,81
122880,note_on,,,,,32,0,1,,,,,0,,,65,125
122880,note_on,,,,,0,0,1,,,,,0,,,62,125
122880,note_on,,,,,32,0,2,,,,,1,,,56,127
123008,note_off,,,,,0,0,1,,,,,0,,,62,80
123008,note_off,,,,,128,0,2,,,,,1,,,56,81
123008,note_off,,,,,128,0,1,,,,,0,,,65,80
123072,note_on,,,,,64,0,1,,,,,0,,,77,125
123072,note_on,,,,,0,0,1,,,,,0,,,74,125
123072,note_on,,,,,0,0,1,,,,,0,,,68,125
123136,note_off,,,,,0,0,1,,,,,0,,,74,80
123136,note_off,,,,,0,0,1,,,,,0,,,68,80
123136,note_off,,,,,64,0,1,,,,,0,,,77,80
123168,note_on,,,,,32,0,1,,,,,0,,,79,125
123168,note_on,,,,,0,0,1,,,,,0,,,71,125
123232,note_off,,,,,0,0,1,,,,,0,,,71,80
123232,note_off,,,,,64,0,1,,,,,0,,,79,80
123264,note_on,,,,,0,0,1,,,,,0,,,74,125
123264,note_on,,,,,0,0,1,,,,,0,,,68,125
123264,note_on,,,,,32,0,1,,,,,0,,,77,125
123328,note_off,,,,,0,0,1,,,,,0,,,68,80
123328,note_off,,,,,0,0,1,,,,,0,,,74,80
123328,note_off,,,,,64,0,1,,,,,0,,,77,80
123360,note_on,,,,,0,0,1,,,,,0,,,79,125
123360,note_on,,,,,32,0,1,,,,,0,,,71,125
123424,note_off,,,,,64,0,1,,,,,0,,,71,80
123424,note_off,,,,,0,0,1,,,,,0,,,79,80
123456,note_on,,,,,32,0,1,,,,,0,,,77,125
123456,note_on,,,,,0,0,1,,,,,0,,,74,125
123456,note_on,,,,,0,0,1,,,,,0,,,68,125
123584,note_off,,,,,128,0,1,,,,,0,,,77,80
123584,note_off,,,,,0,0,1,,,,,0,,,74,80
123584,note_off,,,,,0,0,1,,,,,0,,,68,80
123648,note_on,,,,,64,0,1,,,,,0,,,80,125
123648,note_on,,,,,0,0,1,,,,,0,,,89,125
123648,note_on,,,,,0,0,1,,,,,0,,,86,125
123712,note_off,,,,,0,0,1,,,,,0,,,89,80
123712,note_off,,,,,0,0,1,,,,,0,,,86,80
123712,note_off,,,,,64,0,1,,,,,0,,,80,80
123744,note_on,,,,,0,0,1,,,,,0,,,91,125
123744,note_on,,,,,32,0,1,,,,,0,,,83,125
123808,note_off,,,,,0,0,1,,,,,0,,,91,80
123808,note_off,,,,,64,0,1,,,,,0,,,83,80
123840,note_on,,,,,0,0,1,,,,,0,,,86,125
123840,note_on,,,,,32,0,1,,,,,0,,,80,125
123840,note_on,,,,,0,0,1,,,,,0,,,89,125
123904,note_off,,,,,64,0,1,,,,,0,,,80,80
123904,note_off,,,,,0,0,1,,,,,0,,,86,80
123904,note_off,,,,,0,0,1,,,,,0,,,89,80
123936,note_on,,,,,0,0,1,,,,,0,,,91,125
123936,note_on,,,,,32,0,1,,,,,0,,,83,125
124000,note_off,,,,,64,0,1,,,,,0,,,83,80
124000,note_off,,,,,0,0,1,,,,,0,,,91,80
124032,note_on,,,,,32,0,1,,,,,0,,,80,125
124032,note_on,,,,,0,0,1,,,,,0,,,86,125
124032,note_on,,,,,0,0,1,,,,,0,,,89,125
124160,note_off,,,,,0,0,1,,,,,0,,,86,80
124160,note_off,,,,,0,0,1,,,,,0,,,89,80
124160,note_off,,,,,128,0,1,,,,,0,,,80,80
124224,note_on,,,,,0,0,1,,,,,0,,,74,125
124224,note_on,,,,,0,0,1,,,,,0,,,77,125
124224,note_on,,,,,64,0,1,,,,,0,,,68,125
124288,note_off,,,,,64,0,1,,,,,0,,,68,80
124288,note_off,,,,,0,0,1,,,,,0,,,74,80
124288,note_off,,,,,0,0,1,,,,,0,,,77,80
124320,note_on,,,,,0,0,1,,,,,0,,,79,125
124320,note_on,,,,,32,0,1,,,,,0,,,71,125
124384,note_off,,,,,64,0,1,,,,,0,,,71,80
124384,note_off,,,,,0,0,1,,,,,0,,,79,80
124416,note_on,,,,,32,0,1,,,,,0,,,68,125
124416,note_on,,,,,0,0,1,,,,,0,,,77,125
124416,note_on,,,,,0,0,1,,,,,0,,,74,125
124480,note_off,,,,,0,0,1,,,,,0,,,77,80
124480,note_off,,,,,0,0,1,,,,,0,,,74,80
124480,note_off,,,,,64,0,1,,,,,0,,,68,80
124512,note_on,,,,,32,0,1,,,,,0,,,71,125
124512,note_on,,,,,0,0,1,,,,,0,,,79,125
124576,note_off,,,,,64,0,1,,,,,0,,,71,80
124576,note_off,,,,,0,0,1,,,,,0,,,79,80
124608,note_on,,,,,0,0,1,,,,,0,,,74,125
124608,note_on,,,,,0,0,1,,,,,0,,,77,125
124608,note_on,,,,,32,0,1,,,,,0,,,68,125
124736,note_off,,,,,128,0,1,,,,,0,,,68,80
124736,note_off,,,,,0,0,1,,,,,0,,,77,80
124736,note_off,,,,,0,0,1,,,,,0,,,74,80
124800,note_on,,,,,0,0,1,,,,,0,,,62,125
124800,note_on,,,,,1792,0,2,,,,,1,,,56,127
124800,note_on,,,,,64,0,1,,,,,0,,,65,125
124928,note_off,,,,,128,0,1,,,,,0,,,65,80
124928,note_off,,,,,0,0,1,,,,,0,,,62,80
125376,note_on,,,,,576,0,2,,,,,1,,,57,127
125568,note_off,,,,,192,0,2,,,,,1,,,56,81
125952,note_on,,,,,384,0,2,,,,,1,,,58,127
126144,note_off,,,,,192,0,2,,,,,1,,,57,81
126528,note_on,,,,,384,0,2,,,,,1,,,59,127
126720,note_off,,,,,192,0,2,,,,,1,,,58,81
127040,note_off,,,,,320,0,2,,,,,1,,,59,81
127104,note_on,,,,,2176,0,1,,,,,0,,,60,125
127360,note_off,,,,,256,0,1,,,,,0,,,60,80
127488,note_on,,,,,128,0,1,,,,,0,,,61,125
127584,note_on,,,,,96,0,1,,,,,0,,,61,125
127648,note_off,,,,,64,0,1,,,,,0,,,61,80
127680,note_on,,,,,32,0,1,,,,,0,,,66,125
127744,note_off,,,,,64,0,1,,,,,0,,,61,80
127776,note_on,,,,,0,0,2,,,,,1,,,61,127
127776,note_on,,,,,0,0,2,,,,,1,,,57,127
127776,note_on,,,,,0,0,2,,,,,1,,,52,127
127776,note_on,,,,,736,0,2,,,,,1,,,45,127
127872,note_on,,,,,128,0,1,,,,,0,,,60,125
127904,note_off,,,,,0,0,2,,,,,1,,,57,81
127904,note_off,,,,,0,0,2,,,,,1,,,52,81
127904,note_off,,,,,0,0,2,,,,,1,,,61,81
127904,note_off,,,,,128,0,2,,,,,1,,,45,81
127968,note_on,,,,,96,0,1,,,,,0,,,59,125
128000,note_off,,,,,32,0,1,,,,,0,,,60,80
128064,note_off,,,,,64,0,1,,,,,0,,,66,80
128064,note_on,,,,,0,0,2,,,,,1,,,52,127
128064,note_on,,,,,0,0,2,,,,,1,,,57,127
128064,note_on,,,,,0,0,2,,,,,1,,,61,127
128064,note_on,,,,,160,0,2,,,,,1,,,45,127
128160,note_on,,,,,96,0,2,,,,,1,,,65,127
128192,note_off,,,,,0,0,2,,,,,1,,,61,81
128192,note_off,,,,,0,0,2,,,,,1,,,57,81
128192,note_off,,,,,0,0,2,,,,,1,,,52,81
128192,note_off,,,,,32,0,2,,,,,1,,,45,81
128288,note_off,,,,,96,0,2,,,,,1,,,65,81
128352,note_on,,,,,64,0,2,,,,,1,,,65,127
128352,note_off,,,,,288,0,1,,,,,0,,,59,80
128448,note_on,,,,,96,0,2,,,,,1,,,65,127
128480,note_off,,,,,32,0,2,,,,,1,,,65,81
128640,note_on,,,,,160,0,2,,,,,1,,,64,127
128704,note_off,,,,,64,0,2,,,,,1,,,65,81
128768,note_off,,,,,64,0,2,,,,,1,,,64,81
128832,note_on,,,,,64,0,2,,,,,1,,,63,127
128928,note_on,,,,,96,0,2,,,,,1,,,64,127
128960,note_off,,,,,32,0,2,,,,,1,,,63,81
129024,note_on,,,,,64,0,2,,,,,1,,,68,127
129056,note_off,,,,,32,0,2,,,,,1,,,64,81
129120,note_on,,,,,768,0,1,,,,,0,,,56,125
129152,note_off,,,,,96,0,2,,,,,1,,,68,81
129216,note_on,,,,,96,0,1,,,,,0,,,72,125
129248,note_off,,,,,32,0,1,,,,,0,,,56,80
129312,note_on,,,,,64,0,1,,,,,0,,,73,125
129376,note_off,,,,,64,0,1,,,,,0,,,73,80
129408,note_on,,,,,32,0,1,,,,,0,,,73,125
129472,note_off,,,,,64,0,1,,,,,0,,,72,80
129472,note_off,,,,,0,0,1,,,,,0,,,73,80
129504,note_on,,,,,32,0,1,,,,,0,,,78,125
129568,note_off,,,,,64,0,1,,,,,0,,,78,80
129600,note_on,,,,,0,0,1,,,,,0,,,57,125
129600,note_on,,,,,0,0,1,,,,,0,,,68,125
129600,note_on,,,,,0,0,1,,,,,0,,,64,125
129600,note_on,,,,,32,0,1,,,,,0,,,74,125
129696,note_on,,,,,96,0,1,,,,,0,,,72,125
129728,note_off,,,,,32,0,1,,,,,0,,,74,80
129728,note_off,,,,,0,0,1,,,,,0,,,57,80
129728,note_off,,,,,0,0,1,,,,,0,,,64,80
129728,note_off,,,,,0,0,1,,,,,0,,,68,80
129824,note_off,,,,,96,0,1,,,,,0,,,72,80
129888,note_on,,,,,64,0,1,,,,,0,,,72,125
129984,note_on,,,,,96,0,1,,,,,0,,,73,125
129984,note_on,,,,,0,0,1,,,,,0,,,57,125
129984,note_on,,,,,0,0,1,,,,,0,,,64,125
129984,note_on,,,,,0,0,1,,,,,0,,,69,125
130016,note_off,,,,,32,0,1,,,,,0,,,72,80
130080,note_on,,,,,64,0,1,,,,,0,,,77,125
130112,note_off,,,,,32,0,1,,,,,0,,,73,80
130112,note_off,,,,,0,0,1,,,,,0,,,57,80
130112,note_off,,,,,0,0,1,,,,,0,,,64,80
130112,note_off,,,,,0,0,1,,,,,0,,,69,80
130176,note_on,,,,,64,0,1,,,,,0,,,77,125
130208,note_off,,,,,32,0,1,,,,,0,,,77,80
130272,note_on,,,,,64,0,1,,,,,0,,,77,125
130304,note_off,,,,,32,0,1,,,,,0,,,77,80
130464,note_on,,,,,160,0,1,,,,,0,,,76,125
130528,note_off,,,,,64,0,1,,,,,0,,,77,80
130560,note_off,,,,,32,0,1,,,,,0,,,76,80
130560,note_on,,,,,0,0,1,,,,,0,,,75,125
130688,note_off,,,,,128,0,1,,,,,0,,,75,80
130752,note_on,,,,,64,0,1,,,,,0,,,76,125
130880,note_off,,,,,128,0,1,,,,,0,,,76,80
130944,note_on,,,,,64,0,1,,,,,0,,,80,125
131040,note_on,,,,,96,0,1,,,,,0,,,81,125
131072,note_off,,,,,32,0,1,,,,,0,,,80,80
131136,note_on,,,,,64,0,1,,,,,0,,,84,125
131168,note_off,,,,,32,0,1,,,,,0,,,81,80
131392,note_off,,,,,224,0,1,,,,,0,,,84,80
131520,note_on,,,,,128,0,1,,,,,0,,,85,125
131616,note_on,,,,,96,0,1,,,,,0,,,85,125
131648,note_off,,,,,32,0,1,,,,,0,,,85,80
131712,note_on,,,,,64,0,1,,,,,0,,,90,125
131744,note_off,,,,,32,0,1,,,,,0,,,85,80
131904,note_on,,,,,0,0,1,,,,,0,,,78,125
131904,note_on,,,,,0,0,1,,,,,0,,,75,125
131904,note_on,,,,,160,0,1,,,,,0,,,68,125
131904,note_on,,,,,0,0,1,,,,,0,,,72,125
132096,note_on,,,,,0,0,1,,,,,0,,,78,125
132096,note_on,,,,,0,0,1,,,,,0,,,75,125
132096,note_on,,,,,0,0,1,,,,,0,,,72,125
132096,note_on,,,,,192,0,1,,,,,0,,,68,125
132160,note_off,,,,,64,0,1,,,,,0,,,68,80
132160,note_off,,,,,0,0,1,,,,,0,,,72,80
132160,note_off,,,,,0,0,1,,,,,0,,,75,80
132160,note_off,,,,,0,0,1,,,,,0,,,78,80
132224,note_off,,,,,64,0,1,,,,,0,,,90,80
132224,note_off,,,,,0,0,1,,,,,0,,,68,80
132224,note_off,,,,,0,0,1,,,,,0,,,72,80
132224,note_off,,,,,0,0,1,,,,,0,,,75,80
132224,note_off,,,,,0,0,1,,,,,0,,,78,80
132288,note_on,,,,,64,0,1,,,,,0,,,84,125
132384,note_on,,,,,96,0,1,,,,,0,,,84,125
132416,note_off,,,,,32,0,1,,,,,0,,,84,80
132480,note_on,,,,,64,0,1,,,,,0,,,84,125
132512,note_off,,,,,32,0,1,,,,,0,,,84,80
132576,note_on,,,,,64,0,1,,,,,0,,,84,125
132608,note_off,,,,,32,0,1,,,,,0,,,84,80
132672,note_on,,,,,64,0,1,,,,,0,,,84,125
132704,note_off,,,,,32,0,1,,,,,0,,,84,80
132768,note_on,,,,,64,0,1,,,,,0,,,84,125
132800,note_off,,,,,32,0,1,,,,,0,,,84,80
132864,note_on,,,,,64,0,1,,,,,0,,,84,125
132896,note_off,,,,,32,0,1,,,,,0,,,84,80
132960,note_on,,,,,64,0,1,,,,,0,,,84,125
132992,note_off,,,,,32,0,1,,,,,0,,,84,80
133056,note_on,,,,,64,0,1,,,,,0,,,84,125
133088,note_off,,,,,32,0,1,,,,,0,,,84,80
133152,note_on,,,,,64,0,1,,,,,0,,,80,125
133184,note_off,,,,,32,0,1,,,,,0,,,84,80
133248,note_on,,,,,64,0,1,,,,,0,,,81,125
133280,note_off,,,,,32,0,1,,,,,0,,,80,80
133344,note_on,,,,,64,0,1,,,,,0,,,83,125
133376,note_off,,,,,32,0,1,,,,,0,,,81,80
133440,note_on,,,,,64,0,1,,,,,0,,,85,125
133472,note_off,,,,,32,0,1,,,,,0,,,83,80
133536,note_on,,,,,64,0,1,,,,,0,,,83,125
133632,note_on,,,,,96,0,1,,,,,0,,,85,125
133664,note_off,,,,,32,0,1,,,,,0,,,83,80
133728,note_on,,,,,64,0,1,,,,,0,,,87,125
133760,note_off,,,,,32,0,1,,,,,0,,,85,80
133824,note_on,,,,,64,0,1,,,,,0,,,83,125
133856,note_off,,,,,32,0,1,,,,,0,,,87,80
133920,note_on,,,,,64,0,1,,,,,0,,,85,125
133952,note_off,,,,,32,0,1,,,,,0,,,85,80
133952,note_off,,,,,0,0,1,,,,,0,,,83,80
134016,note_on,,,,,64,0,1,,,,,0,,,90,125
134048,note_off,,,,,32,0,1,,,,,0,,,85,80
134272,note_off,,,,,224,0,1,,,,,0,,,90,80
134304,note_on,,,,,0,0,1,,,,,0,,,67,125
134304,note_on,,,,,0,0,1,,,,,0,,,72,125
134304,note_on,,,,,0,0,1,,,,,0,,,75,125
134304,note_on,,,,,0,0,1,,,,,0,,,79,125
134304,note_on,,,,,32,0,1,,,,,0,,,91,125
134560,note_off,,,,,256,0,1,,,,,0,,,91,80
134560,note_off,,,,,0,0,1,,,,,0,,,79,80
134560,note_off,,,,,0,0,1,,,,,0,,,75,80
134560,note_off,,,,,0,0,1,,,,,0,,,72,80
134560,note_off,,,,,0,0,1,,,,,0,,,67,80
134592,note_on,,,,,32,0,1,,,,,0,,,67,125
134592,note_on,,,,,0,0,1,,,,,0,,,79,125
134592,note_on,,,,,0,0,1,,,,,0,,,75,125
134592,note_on,,,,,0,0,1,,,,,0,,,72,125
134688,note_on,,,,,96,0,1,,,,,0,,,84,125
134720,note_off,,,,,32,0,1,,,,,0,,,67,80
134720,note_off,,,,,0,0,1,,,,,0,,,79,80
134720,note_off,,,,,0,0,1,,,,,0,,,75,80
134720,note_off,,,,,0,0,1,,,,,0,,,72,80
134784,note_on,,,,,64,0,1,,,,,0,,,84,125
134816,note_off,,,,,32,0,1,,,,,0,,,84,80
134880,note_on,,,,,64,0,1,,,,,0,,,84,125
134912,note_off,,,,,32,0,1,,,,,0,,,84,80
134976,note_on,,,,,64,0,1,,,,,0,,,84,125
135008,note_off,,,,,32,0,1,,,,,0,,,84,80
135072,note_on,,,,,64,0,1,,,,,0,,,84,125
135104,note_off,,,,,32,0,1,,,,,0,,,84,80
135168,note_on,,,,,64,0,1,,,,,0,,,84,125
135200,note_off,,,,,32,0,1,,,,,0,,,84,80
135264,note_on,,,,,64,0,1,,,,,0,,,84,125
135296,note_off,,,,,32,0,1,,,,,0,,,84,80
135360,note_on,,,,,64,0,1,,,,,0,,,84,125
135392,note_off,,,,,32,0,1,,,,,0,,,84,80
135456,note_on,,,,,64,0,1,,,,,0,,,83,125
135488,note_off,,,,,32,0,1,,,,,0,,,84,80
135520,note_off,,,,,32,0,1,,,,,0,,,83,80
135552,note_on,,,,,32,0,1,,,,,0,,,84,125
135616,note_off,,,,,64,0,1,,,,,0,,,84,80
135648,note_on,,,,,32,0,1,,,,,0,,,86,125
135712,note_off,,,,,64,0,1,,,,,0,,,86,80
135744,note_on,,,,,32,0,1,,,,,0,,,84,125
136256,note_off,,,,,512,0,1,,,,,0,,,84,80
136320,note_on,,,,,64,0,1,,,,,0,,,83,125
136448,note_off,,,,,128,0,1,,,,,0,,,83,80
136512,note_on,,,,,64,0,1,,,,,0,,,85,125
136640,note_off,,,,,128,0,1,,,,,0,,,85,80
136704,note_on,,,,,64,0,1,,,,,0,,,87,125
136832,note_off,,,,,128,0,1,,,,,0,,,87,80
136896,note_on,,,,,64,0,1,,,,,0,,,83,125
137024,note_off,,,,,128,0,1,,,,,0,,,83,80
137088,note_on,,,,,64,0,1,,,,,0,,,85,125
137216,note_off,,,,,128,0,1,,,,,0,,,85,80
137280,note_on,,,,,64,0,1,,,,,0,,,90,125
137344,note_off,,,,,64,0,1,,,,,0,,,90,80
137376,note_on,,,,,32,0,1,,,,,0,,,91,125
137440,note_off,,,,,64,0,1,,,,,0,,,91,80
137472,note_on,,,,,32,0,1,,,,,0,,,90,125
137536,note_off,,,,,64,0,1,,,,,0,,,90,80
137568,note_on,,,,,32,0,1,,,,,0,,,91,125
137632,note_off,,,,,64,0,1,,,,,0,,,91,80
137664,note_on,,,,,32,0,1,,,,,0,,,90,125
137728,note_off,,,,,64,0,1,,,,,0,,,90,80
137760,note_on,,,,,32,0,1,,,,,0,,,91,125
137824,note_off,,,,,64,0,1,,,,,0,,,91,80
137856,note_on,,,,,32,0,1,,,,,0,,,90,125
137920,note_off,,,,,64,0,1,,,,,0,,,90,80
137952,note_on,,,,,32,0,1,,,,,0,,,91,125
138016,note_off,,,,,64,0,1,,,,,0,,,91,80
138048,note_on,,,,,32,0,1,,,,,0,,,91,125
138240,note_on,,,,,0,0,1,,,,,0,,,88,125
138240,note_on,,,,,0,0,1,,,,,0,,,72,125
138240,note_on,,,,,192,0,1,,,,,0,,,65,125
138240,note_on,,,,,0,0,1,,,,,0,,,80,125
138240,note_on,,,,,0,0,1,,,,,0,,,75,125
138240,note_on,,,,,0,0,1,,,,,0,,,68,125
138240,note_on,,,,,0,0,1,,,,,0,,,84,125
138304,note_off,,,,,64,0,1,,,,,0,,,91,80
138496,note_off,,,,,192,0,1,,,,,0,,,65,80
138496,note_off,,,,,0,0,1,,,,,0,,,72,80
138496,note_off,,,,,0,0,1,,,,,0,,,68,80
138496,note_off,,,,,0,0,1,,,,,0,,,75,80
138496,note_off,,,,,0,0,1,,,,,0,,,80,80
138496,note_off,,,,,0,0,1,,,,,0,,,88,80
138496,note_off,,,,,0,0,1,,,,,0,,,84,80
138624,note_on,,,,,0,0,1,,,,,0,,,76,125
138624,note_on,,,,,0,0,1,,,,,0,,,71,125
138624,note_on,,,,,0,0,1,,,,,0,,,69,125
138624,note_on,,,,,0,0,1,,,,,0,,,90,125
138624,note_on,,,,,128,0,1,,,,,0,,,66,125
138624,note_on,,,,,0,0,1,,,,,0,,,81,125
138624,note_on,,,,,0,0,1,,,,,0,,,83,125
138816,note_on,,,,,192,0,1,,,,,0,,,66,125
138816,note_on,,,,,0,0,1,,,,,0,,,69,125
138816,note_on,,,,,0,0,1,,,,,0,,,71,125
138816,note_on,,,,,0,0,1,,,,,0,,,74,125
138816,note_on,,,,,0,0,1,,,,,0,,,81,125
138816,note_on,,,,,0,0,1,,,,,0,,,90,125
138816,note_on,,,,,0,0,1,,,,,0,,,83,125
139008,note_off,,,,,0,0,1,,,,,0,,,90,80
139008,note_off,,,,,0,0,1,,,,,0,,,69,80
139008,note_off,,,,,0,0,1,,,,,0,,,71,80
139008,note_off,,,,,192,0,1,,,,,0,,,66,80
139008,note_off,,,,,0,0,1,,,,,0,,,76,80
139008,note_off,,,,,0,0,1,,,,,0,,,81,80
139008,note_off,,,,,0,0,1,,,,,0,,,83,80
139200,note_off,,,,,0,0,1,,,,,0,,,90,80
139200,note_off,,,,,0,0,1,,,,,0,,,81,80
139200,note_off,,,,,0,0,1,,,,,0,,,74,80
139200,note_off,,,,,0,0,1,,,,,0,,,71,80
139200,note_off,,,,,0,0,1,,,,,0,,,83,80
139200,note_off,,,,,0,0,1,,,,,0,,,69,80
139200,note_off,,,,,192,0,1,,,,,0,,,66,80
139200,note_on,,,,,10048,0,2,,,,,1,,,29,127
139200,note_on,,,,,0,0,2,,,,,1,,,41,127
139392,note_on,,,,,192,0,2,,,,,1,,,47,127
139392,note_on,,,,,0,0,2,,,,,1,,,56,127
139392,note_on,,,,,0,0,2,,,,,1,,,50,127
139456,note_off,,,,,0,0,2,,,,,1,,,41,81
139456,note_off,,,,,64,0,2,,,,,1,,,29,81
139520,note_off,,,,,0,0,2,,,,,1,,,56,81
139520,note_off,,,,,64,0,2,,,,,1,,,47,81
139520,note_off,,,,,0,0,2,,,,,1,,,50,81
139584,note_on,,,,,0,0,2,,,,,1,,,41,127
139584,note_on,,,,,64,0,2,,,,,1,,,29,127
139584,note_on,,,,,0,0,2,,,,,1,,,47,127
139584,note_on,,,,,0,0,2,,,,,1,,,50,127
139584,note_on,,,,,0,0,2,,,,,1,,,56,127
139712,note_off,,,,,0,0,2,,,,,1,,,41,81
139712,note_off,,,,,0,0,2,,,,,1,,,47,81
139712,note_off,,,,,0,0,2,,,,,1,,,56,81
139712,note_off,,,,,0,0,2,,,,,1,,,50,81
139712,note_off,,,,,128,0,2,,,,,1,,,29,81
139776,note_on,,,,,64,0,2,,,,,1,,,29,127
139776,note_on,,,,,0,0,2,,,,,1,,,41,127
139968,note_on,,,,,192,0,2,,,,,1,,,51,127
139968,note_on,,,,,0,0,2,,,,,1,,,48,127
139968,note_on,,,,,0,0,2,,,,,1,,,57,127
140096,note_off,,,,,0,0,2,,,,,1,,,57,81
140096,note_off,,,,,128,0,2,,,,,1,,,51,81
140096,note_off,,,,,0,0,2,,,,,1,,,48,81
140160,note_on,,,,,0,0,2,,,,,1,,,48,127
140160,note_off,,,,,0,0,2,,,,,1,,,41,81
140160,note_off,,,,,64,0,2,,,,,1,,,29,81
140160,note_on,,,,,0,0,2,,,,,1,,,51,127
140160,note_on,,,,,0,0,2,,,,,1,,,57,127
140288,note_off,,,,,128,0,2,,,,,1,,,51,81
140288,note_off,,,,,0,0,2,,,,,1,,,48,81
140288,note_off,,,,,0,0,2,,,,,1,,,57,81
140352,note_on,,,,,0,0,2,,,,,1,,,41,127
140352,note_on,,,,,64,0,2,,,,,1,,,29,127
140544,note_on,,,,,0,0,2,,,,,1,,,56,127
140544,note_on,,,,,192,0,2,,,,,1,,,47,127
140544,note_on,,,,,0,0,2,,,,,1,,,59,127
140608,note_off,,,,,0,0,2,,,,,1,,,41,81
140608,note_off,,,,,64,0,2,,,,,1,,,29,81
140672,note_off,,,,,0,0,2,,,,,1,,,56,81
140672,note_off,,,,,64,0,2,,,,,1,,,47,81
140672,note_off,,,,,0,0,2,,,,,1,,,59,81
140736,note_on,,,,,0,0,2,,,,,1,,,59,127
140736,note_on,,,,,0,0,2,,,,,1,,,56,127
140736,note_on,,,,,0,0,2,,,,,1,,,47,127
140736,note_on,,,,,0,0,2,,,,,1,,,40,127
140736,note_on,,,,,64,0,2,,,,,1,,,28,127
140864,note_off,,,,,0,0,2,,,,,1,,,56,81
140864,note_off,,,,,0,0,2,,,,,1,,,47,81
140864,note_off,,,,,0,0,2,,,,,1,,,59,81
140864,note_off,,,,,0,0,2,,,,,1,,,40,81
140864,note_off,,,,,128,0,2,,,,,1,,,28,81
140928,note_on,,,,,64,0,2,,,,,1,,,33,127
141120,note_on,,,,,0,0,2,,,,,1,,,61,127
141120,note_on,,,,,0,0,2,,,,,1,,,57,127
141120,note_on,,,,,192,0,2,,,,,1,,,52,127
141248,note_off,,,,,0,0,2,,,,,1,,,61,81
141248,note_off,,,,,0,0,2,,,,,1,,,57,81
141248,note_off,,,,,128,0,2,,,,,1,,,52,81
141312,note_on,,,,,0,0,2,,,,,1,,,61,127
141312,note_on,,,,,0,0,2,,,,,1,,,52,127
141312,note_off,,,,,64,0,2,,,,,1,,,33,81
141312,note_on,,,,,0,0,2,,,,,1,,,57,127
141440,note_off,,,,,0,0,2,,,,,1,,,57,81
141440,note_off,,,,,0,0,2,,,,,1,,,61,81
141440,note_off,,,,,128,0,2,,,,,1,,,52,81
141504,note_on,,,,,64,0,2,,,,,1,,,29,127
141504,note_on,,,,,0,0,2,,,,,1,,,41,127
141696,note_on,,,,,0,0,1,,,,,0,,,62,125
141696,note_on,,,,,192,0,2,,,,,1,,,56,127
141696,note_on,,,,,0,0,1,,,,,0,,,59,125
141696,note_on,,,,,2496,0,1,,,,,0,,,68,125
141760,note_off,,,,,64,0,2,,,,,1,,,29,81
141760,note_off,,,,,0,0,2,,,,,1,,,41,81
141824,note_off,,,,,0,0,1,,,,,0,,,59,80
141824,note_off,,,,,64,0,2,,,,,1,,,56,81
141824,note_off,,,,,0,0,1,,,,,0,,,62,80
141824,note_off,,,,,128,0,1,,,,,0,,,68,80
141888,note_on,,,,,0,0,2,,,,,1,,,56,127
141888,note_on,,,,,0,0,2,,,,,1,,,41,127
141888,note_on,,,,,64,0,1,,,,,0,,,68,125
141888,note_on,,,,,0,0,1,,,,,0,,,62,125
141888,note_on,,,,,64,0,2,,,,,1,,,29,127
141888,note_on,,,,,0,0,1,,,,,0,,,59,125
142016,note_off,,,,,0,0,1,,,,,0,,,59,80
142016,note_off,,,,,0,0,1,,,,,0,,,62,80
142016,note_off,,,,,128,0,1,,,,,0,,,68,80
142016,note_off,,,,,128,0,2,,,,,1,,,29,81
142016,note_off,,,,,0,0,2,,,,,1,,,56,81
142016,note_off,,,,,0,0,2,,,,,1,,,41,81
142080,note_on,,,,,0,0,2,,,,,1,,,41,127
142080,note_on,,,,,64,0,2,,,,,1,,,29,127
142272,note_on,,,,,0,0,1,,,,,0,,,63,125
142272,note_on,,,,,0,0,1,,,,,0,,,69,125
142272,note_on,,,,,0,0,1,,,,,0,,,60,125
142272,note_on,,,,,256,0,1,,,,,0,,,57,125
142400,note_off,,,,,0,0,1,,,,,0,,,63,80
142400,note_off,,,,,0,0,1,,,,,0,,,69,80
142400,note_off,,,,,128,0,1,,,,,0,,,57,80
142400,note_off,,,,,0,0,1,,,,,0,,,60,80
142464,note_on,,,,,64,0,1,,,,,0,,,69,125
142464,note_off,,,,,0,0,2,,,,,1,,,41,81
142464,note_off,,,,,384,0,2,,,,,1,,,29,81
142464,note_on,,,,,0,0,1,,,,,0,,,57,125
142464,note_on,,,,,0,0,1,,,,,0,,,63,125
142464,note_on,,,,,0,0,1,,,,,0,,,60,125
142592,note_off,,,,,128,0,1,,,,,0,,,69,80
142592,note_off,,,,,0,0,1,,,,,0,,,60,80
142592,note_off,,,,,0,0,1,,,,,0,,,63,80
142592,note_off,,,,,0,0,1,,,,,0,,,57,80
142656,note_on,,,,,0,0,2,,,,,1,,,41,127
142656,note_on,,,,,192,0,2,,,,,1,,,29,127
142848,note_on,,,,,0,0,1,,,,,0,,,59,125
142848,note_on,,,,,256,0,1,,,,,0,,,62,125
142848,note_on,,,,,0,0,1,,,,,0,,,68,125
142848,note_on,,,,,0,0,1,,,,,0,,,71,125
142912,note_off,,,,,256,0,2,,,,,1,,,29,81
142912,note_off,,,,,0,0,2,,,,,1,,,41,81
142976,note_off,,,,,0,0,1,,,,,0,,,71,80
142976,note_off,,,,,0,0,1,,,,,0,,,68,80
142976,note_off,,,,,128,0,1,,,,,0,,,62,80
142976,note_off,,,,,0,0,1,,,,,0,,,59,80
143040,note_on,,,,,0,0,1,,,,,0,,,68,125
143040,note_on,,,,,0,0,1,,,,,0,,,71,125
143040,note_on,,,,,0,0,2,,,,,1,,,40,127
143040,note_on,,,,,64,0,1,,,,,0,,,62,125
143040,note_on,,,,,128,0,2,,,,,1,,,28,127
143040,note_on,,,,,0,0,1,,,,,0,,,59,125
143168,note_off,,,,,0,0,2,,,,,1,,,40,81
143168,note_off,,,,,128,0,2,,,,,1,,,28,81
143168,note_off,,,,,0,0,1,,,,,0,,,71,80
143168,note_off,,,,,0,0,1,,,,,0,,,68,80
143168,note_off,,,,,0,0,1,,,,,0,,,59,80
143168,note_off,,,,,128,0,1,,,,,0,,,62,80
143232,note_on,,,,,0,0,2,,,,,1,,,45,127
143232,note_on,,,,,64,0,2,,,,,1,,,33,127
143424,note_on,,,,,0,0,1,,,,,0,,,64,125
143424,note_on,,,,,0,0,1,,,,,0,,,69,125
143424,note_on,,,,,0,0,1,,,,,0,,,73,125
143424,note_on,,,,,256,0,1,,,,,0,,,61,125
143488,note_off,,,,,256,0,2,,,,,1,,,33,81
143488,note_off,,,,,0,0,2,,,,,1,,,45,81
143552,note_off,,,,,128,0,1,,,,,0,,,61,80
143552,note_off,,,,,0,0,1,,,,,0,,,73,80
143552,note_off,,,,,0,0,1,,,,,0,,,69,80
143552,note_off,,,,,0,0,1,,,,,0,,,64,80
143616,note_on,,,,,64,0,1,,,,,0,,,61,125
143616,note_on,,,,,0,0,1,,,,,0,,,73,125
143616,note_on,,,,,0,0,1,,,,,0,,,64,125
143616,note_on,,,,,0,0,1,,,,,0,,,69,125
143744,note_off,,,,,0,0,1,,,,,0,,,69,80
143744,note_off,,,,,0,0,1,,,,,0,,,73,80
143744,note_off,,,,,128,0,1,,,,,0,,,61,80
143744,note_off,,,,,0,0,1,,,,,0,,,64,80
143808,note_on,,,,,0,0,2,,,,,1,,,41,127
143808,note_on,,,,,320,0,2,,,,,1,,,29,127
144000,note_on,,,,,0,0,1,,,,,0,,,80,125
144000,note_on,,,,,0,0,1,,,,,0,,,74,125
144000,note_on,,,,,0,0,1,,,,,0,,,71,125
144000,note_on,,,,,256,0,1,,,,,0,,,68,125
144064,note_off,,,,,256,0,2,,,,,1,,,29,81
144064,note_off,,,,,0,0,2,,,,,1,,,41,81
144128,note_off,,,,,128,0,1,,,,,0,,,68,80
144128,note_off,,,,,0,0,1,,,,,0,,,71,80
144128,note_off,,,,,0,0,1,,,,,0,,,74,80
144128,note_off,,,,,0,0,1,,,,,0,,,80,80
144192,note_on,,,,,0,0,1,,,,,0,,,80,125
144192,note_on,,,,,0,0,1,,,,,0,,,71,125
144192,note_on,,,,,0,0,1,,,,,0,,,74,125
144192,note_on,,,,,64,0,1,,,,,0,,,68,125
144192,note_on,,,,,128,0,2,,,,,1,,,29,127
144192,note_on,,,,,0,0,2,,,,,1,,,41,127
144320,note_off,,,,,0,0,1,,,,,0,,,80,80
144320,note_off,,,,,0,0,1,,,,,0,,,74,80
144320,note_off,,,,,0,0,1,,,,,0,,,71,80
144320,note_off,,,,,128,0,1,,,,,0,,,68,80
144320,note_off,,,,,128,0,2,,,,,1,,,29,81
144320,note_off,,,,,0,0,2,,,,,1,,,41,81
144384,note_on,,,,,64,0,2,,,,,1,,,29,127
144384,note_on,,,,,0,0,2,,,,,1,,,41,127
144576,note_on,,,,,0,0,1,,,,,0,,,75,125
144576,note_on,,,,,0,0,1,,,,,0,,,81,125
144576,note_on,,,,,256,0,1,,,,,0,,,69,125
144576,note_on,,,,,0,0,1,,,,,0,,,72,125
144704,note_off,,,,,128,0,1,,,,,0,,,69,80
144704,note_off,,,,,0,0,1,,,,,0,,,72,80
144704,note_off,,,,,0,0,1,,,,,0,,,75,80
144704,note_off,,,,,0,0,1,,,,,0,,,81,80
144768,note_on,,,,,64,0,1,,,,,0,,,69,125
144768,note_off,,,,,0,0,2,,,,,1,,,41,81
144768,note_off,,,,,384,0,2,,,,,1,,,29,81
144768,note_on,,,,,0,0,1,,,,,0,,,81,125
144768,note_on,,,,,0,0,1,,,,,0,,,75,125
144768,note_on,,,,,0,0,1,,,,,0,,,72,125
144896,note_off,,,,,128,0,1,,,,,0,,,69,80
144896,note_off,,,,,0,0,1,,,,,0,,,72,80
144896,note_off,,,,,0,0,1,,,,,0,,,75,80
144896,note_off,,,,,0,0,1,,,,,0,,,81,80
144960,note_on,,,,,0,0,2,,,,,1,,,41,127
144960,note_on,,,,,192,0,2,,,,,1,,,29,127
145152,note_on,,,,,0,0,1,,,,,0,,,74,125
145152,note_on,,,,,0,0,1,,,,,0,,,83,125
145152,note_on,,,,,256,0,1,,,,,0,,,71,125
145152,note_on,,,,,0,0,1,,,,,0,,,80,125
145216,note_off,,,,,256,0,2,,,,,1,,,29,81
145216,note_off,,,,,0,0,2,,,,,1,,,41,81
145280,note_off,,,,,0,0,1,,,,,0,,,83,80
145280,note_off,,,,,0,0,1,,,,,0,,,80,80
145280,note_off,,,,,0,0,1,,,,,0,,,74,80
145280,note_off,,,,,128,0,1,,,,,0,,,71,80
145344,note_on,,,,,64,0,1,,,,,0,,,71,125
145344,note_on,,,,,0,0,1,,,,,0,,,74,125
145344,note_on,,,,,0,0,1,,,,,0,,,80,125
145344,note_on,,,,,0,0,2,,,,,1,,,40,127
145344,note_on,,,,,128,0,2,,,,,1,,,28,127
145344,note_on,,,,,0,0,1,,,,,0,,,83,125
145472,note_off,,,,,0,0,2,,,,,1,,,40,81
145472,note_off,,,,,0,0,1,,,,,0,,,80,80
145472,note_off,,,,,0,0,1,,,,,0,,,83,80
145472,note_off,,,,,0,0,1,,,,,0,,,74,80
145472,note_off,,,,,128,0,1,,,,,0,,,71,80
145472,note_off,,,,,128,0,2,,,,,1,,,28,81
145536,note_on,,,,,64,0,2,,,,,1,,,33,127
145536,note_on,,,,,0,0,2,,,,,1,,,45,127
145728,note_on,,,,,0,0,1,,,,,0,,,76,125
145728,note_on,,,,,0,0,1,,,,,0,,,85,125
145728,note_on,,,,,0,0,1,,,,,0,,,81,125
145728,note_on,,,,,256,0,1,,,,,0,,,73,125
145856,note_off,,,,,0,0,1,,,,,0,,,85,80
145856,note_off,,,,,0,0,1,,,,,0,,,81,80
145856,note_off,,,,,128,0,1,,,,,0,,,73,80
145856,note_off,,,,,0,0,1,,,,,0,,,76,80
145920,note_on,,,,,64,0,1,,,,,0,,,73,125
145920,note_on,,,,,0,0,1,,,,,0,,,85,125
145920,note_on,,,,,0,0,1,,,,,0,,,81,125
145920,note_on,,,,,0,0,1,,,,,0,,,76,125
145920,note_off,,,,,0,0,2,,,,,1,,,45,81
145920,note_off,,,,,384,0,2,,,,,1,,,33,81
146048,note_off,,,,,0,0,1,,,,,0,,,76,80
146048,note_off,,,,,128,0,1,,,,,0,,,73,80
146048,note_off,,,,,0,0,1,,,,,0,,,85,80
146048,note_off,,,,,0,0,1,,,,,0,,,81,80
146112,note_on,,,,,0,0,2,,,,,1,,,53,127
146112,note_on,,,,,192,0,2,,,,,1,,,41,127
146304,note_on,,,,,0,0,1,,,,,0,,,74,125
146304,note_on,,,,,0,0,1,,,,,0,,,68,125
146304,note_on,,,,,256,0,1,,,,,0,,,80,125
146304,note_on,,,,,0,0,1,,,,,0,,,71,125
146368,note_off,,,,,256,0,2,,,,,1,,,41,81
146368,note_off,,,,,0,0,2,,,,,1,,,53,81
146432,note_off,,,,,0,0,1,,,,,0,,,68,80
146432,note_off,,,,,128,0,1,,,,,0,,,80,80
146432,note_off,,,,,0,0,1,,,,,0,,,74,80
146432,note_off,,,,,0,0,1,,,,,0,,,71,80
146496,note_on,,,,,0,0,1,,,,,0,,,68,125
146496,note_on,,,,,0,0,2,,,,,1,,,53,127
146496,note_on,,,,,128,0,2,,,,,1,,,41,127
146496,note_on,,,,,0,0,1,,,,,0,,,71,125
146496,note_on,,,,,64,0,1,,,,,0,,,80,125
146496,note_on,,,,,0,0,1,,,,,0,,,74,125
146624,note_off,,,,,128,0,1,,,,,0,,,80,80
146624,note_off,,,,,0,0,1,,,,,0,,,71,80
146624,note_off,,,,,0,0,1,,,,,0,,,74,80
146624,note_off,,,,,0,0,1,,,,,0,,,68,80
146624,note_off,,,,,0,0,2,,,,,1,,,53,81
146624,note_off,,,,,128,0,2,,,,,1,,,41,81
146688,note_on,,,,,0,0,2,,,,,1,,,41,127
146688,note_on,,,,,64,0,2,,,,,1,,,53,127
146880,note_on,,,,,0,0,1,,,,,0,,,72,125
146880,note_on,,,,,0,0,1,,,,,0,,,81,125
146880,note_on,,,,,0,0,1,,,,,0,,,75,125
146880,note_on,,,,,256,0,1,,,,,0,,,69,125
147008,note_off,,,,,128,0,1,,,,,0,,,69,80
147008,note_off,,,,,0,0,1,,,,,0,,,81,80
147008,note_off,,,,,0,0,1,,,,,0,,,75,80
147008,note_off,,,,,0,0,1,,,,,0,,,72,80
147072,note_off,,,,,0,0,2,,,,,1,,,41,81
147072,note_off,,,,,384,0,2,,,,,1,,,53,81
147072,note_on,,,,,64,0,1,,,,,0,,,69,125
147072,note_on,,,,,0,0,1,,,,,0,,,81,125
147072,note_on,,,,,0,0,1,,,,,0,,,72,125
147072,note_on,,,,,0,0,1,,,,,0,,,75,125
147200,note_off,,,,,0,0,1,,,,,0,,,72,80
147200,note_off,,,,,128,0,1,,,,,0,,,69,80
147200,note_off,,,,,0,0,1,,,,,0,,,75,80
147200,note_off,,,,,0,0,1,,,,,0,,,81,80
147264,note_on,,,,,0,0,2,,,,,1,,,41,127
147264,note_on,,,,,192,0,2,,,,,1,,,53,127
147456,note_on,,,,,0,0,1,,,,,0,,,74,125
147456,note_on,,,,,256,0,1,,,,,0,,,71,125
147456,note_on,,,,,0,0,1,,,,,0,,,80,125
147456,note_on,,,,,0,0,1,,,,,0,,,83,125
147520,note_off,,,,,256,0,2,,,,,1,,,53,81
147520,note_off,,,,,0,0,2,,,,,1,,,41,81
147584,note_off,,,,,128,0,1,,,,,0,,,71,80
147584,note_off,,,,,0,0,1,,,,,0,,,74,80
147584,note_off,,,,,0,0,1,,,,,0,,,80,80
147584,note_off,,,,,0,0,1,,,,,0,,,83,80
147648,note_on,,,,,0,0,1,,,,,0,,,80,125
147648,note_on,,,,,64,0,1,,,,,0,,,71,125
147648,note_on,,,,,128,0,2,,,,,1,,,52,127
147648,note_on,,,,,0,0,1,,,,,0,,,83,125
147648,note_on,,,,,0,0,1,,,,,0,,,74,125
147648,note_on,,,,,0,0,2,,,,,1,,,40,127
147776,note_off,,,,,0,0,1,,,,,0,,,74,80
147776,note_off,,,,,0,0,2,,,,,1,,,40,81
147776,note_off,,,,,128,0,2,,,,,1,,,52,81
147776,note_off,,,,,0,0,1,,,,,0,,,83,80
147776,note_off,,,,,128,0,1,,,,,0,,,71,80
147776,note_off,,,,,0,0,1,,,,,0,,,80,80
148032,note_on,,,,,0,0,2,,,,,1,,,57,127
148032,note_on,,,,,256,0,2,,,,,1,,,45,127
148128,note_on,,,,,96,0,2,,,,,1,,,52,127
148160,note_off,,,,,32,0,2,,,,,1,,,45,81
148160,note_off,,,,,0,0,2,,,,,1,,,57,81
148224,note_on,,,,,0,0,1,,,,,0,,,83,125
148224,note_on,,,,,0,0,1,,,,,0,,,92,125
148224,note_on,,,,,64,0,2,,,,,1,,,64,127
148224,note_on,,,,,0,0,2,,,,,1,,,56,127
148224,note_on,,,,,448,0,1,,,,,0,,,95,125
148224,note_on,,,,,0,0,2,,,,,1,,,52,127
148256,note_off,,,,,32,0,2,,,,,1,,,52,81
148320,note_on,,,,,64,0,2,,,,,1,,,52,127
148320,note_on,,,,,0,0,1,,,,,0,,,96,125
148320,note_on,,,,,0,0,1,,,,,0,,,92,125
148320,note_on,,,,,0,0,2,,,,,1,,,64,127
148320,note_on,,,,,96,0,1,,,,,0,,,84,125
148320,note_on,,,,,0,0,2,,,,,1,,,56,127
148352,note_off,,,,,0,0,1,,,,,0,,,92,80
148352,note_off,,,,,0,0,2,,,,,1,,,56,81
148352,note_off,,,,,0,0,2,,,,,1,,,52,81
148352,note_off,,,,,32,0,2,,,,,1,,,64,81
148352,note_off,,,,,0,0,1,,,,,0,,,83,80
148352,note_off,,,,,32,0,1,,,,,0,,,95,80
148384,note_off,,,,,0,0,2,,,,,1,,,64,81
148384,note_off,,,,,0,0,2,,,,,1,,,56,81
148384,note_off,,,,,32,0,1,,,,,0,,,84,80
148384,note_off,,,,,32,0,2,,,,,1,,,52,81
148384,note_off,,,,,0,0,1,,,,,0,,,92,80
148384,note_off,,,,,0,0,1,,,,,0,,,96,80
148416,note_on,,,,,32,0,1,,,,,0,,,85,125
148416,note_on,,,,,0,0,1,,,,,0,,,93,125
148416,note_on,,,,,0,0,1,,,,,0,,,97,125
148480,note_off,,,,,0,0,1,,,,,0,,,97,80
148480,note_off,,,,,0,0,1,,,,,0,,,93,80
148480,note_off,,,,,64,0,1,,,,,0,,,85,80
148512,note_on,,,,,32,0,1,,,,,0,,,85,125
148512,note_on,,,,,0,0,1,,,,,0,,,97,125
148512,note_on,,,,,0,0,1,,,,,0,,,93,125
148608,note_on,,,,,96,0,1,,,,,0,,,89,125
148608,note_on,,,,,0,0,1,,,,,0,,,97,125
148608,note_on,,,,,0,0,1,,,,,0,,,93,125
148608,note_on,,,,,0,0,2,,,,,1,,,57,127
148608,note_on,,,,,0,0,2,,,,,1,,,61,127
148608,note_on,,,,,0,0,1,,,,,0,,,101,125
148608,note_on,,,,,0,0,2,,,,,1,,,65,127
148608,note_on,,,,,224,0,2,,,,,1,,,53,127
148640,note_off,,,,,32,0,1,,,,,0,,,85,80
148640,note_off,,,,,0,0,1,,,,,0,,,93,80
148640,note_off,,,,,0,0,1,,,,,0,,,97,80
148736,note_off,,,,,0,0,1,,,,,0,,,101,80
148736,note_off,,,,,0,0,2,,,,,1,,,57,81
148736,note_off,,,,,0,0,1,,,,,0,,,97,80
148736,note_off,,,,,0,0,2,,,,,1,,,61,81
148736,note_off,,,,,0,0,1,,,,,0,,,93,80
148736,note_off,,,,,96,0,1,,,,,0,,,89,80
148736,note_off,,,,,0,0,2,,,,,1,,,65,81
148736,note_off,,,,,128,0,2,,,,,1,,,53,81
148800,note_on,,,,,0,0,2,,,,,1,,,65,127
148800,note_on,,,,,0,0,2,,,,,1,,,61,127
148800,note_on,,,,,0,0,2,,,,,1,,,57,127
148800,note_on,,,,,0,0,1,,,,,0,,,93,125
148800,note_on,,,,,0,0,1,,,,,0,,,101,125
148800,note_on,,,,,64,0,1,,,,,0,,,89,125
148800,note_on,,,,,64,0,2,,,,,1,,,53,127
148800,note_on,,,,,0,0,1,,,,,0,,,97,125
148896,note_on,,,,,0,0,2,,,,,1,,,49,127
148896,note_on,,,,,0,0,1,,,,,0,,,93,125
148896,note_on,,,,,0,0,1,,,,,0,,,100,125
148896,note_on,,,,,0,0,2,,,,,1,,,52,127
148896,note_on,,,,,0,0,2,,,,,1,,,57,127
148896,note_on,,,,,0,0,1,,,,,0,,,97,125
148896,note_on,,,,,96,0,2,,,,,1,,,45,127
148896,note_on,,,,,96,0,1,,,,,0,,,88,125
148928,note_off,,,,,0,0,2,,,,,1,,,65,81
148928,note_off,,,,,0,0,1,,,,,0,,,97,80
148928,note_off,,,,,0,0,1,,,,,0,,,101,80
148928,note_off,,,,,32,0,2,,,,,1,,,53,81
148928,note_off,,,,,0,0,2,,,,,1,,,61,81
148928,note_off,,,,,32,0,1,,,,,0,,,89,80
148928,note_off,,,,,0,0,2,,,,,1,,,57,81
148928,note_off,,,,,0,0,1,,,,,0,,,93,80
148960,note_off,,,,,32,0,1,,,,,0,,,88,80
148960,note_off,,,,,0,0,2,,,,,1,,,52,81
148960,note_off,,,,,0,0,1,,,,,0,,,93,80
148960,note_off,,,,,0,0,1,,,,,0,,,97,80
148960,note_off,,,,,0,0,1,,,,,0,,,100,80
148960,note_off,,,,,32,0,2,,,,,1,,,45,81
148960,note_off,,,,,0,0,2,,,,,1,,,49,81
148960,note_off,,,,,0,0,2,,,,,1,,,57,81
148992,note_on,,,,,32,0,1,,,,,0,,,100,125
148992,note_on,,,,,32,0,2,,,,,1,,,57,127
148992,note_on,,,,,0,0,1,,,,,0,,,93,125
148992,note_on,,,,,0,0,1,,,,,0,,,97,125
148992,note_on,,,,,0,0,1,,,,,0,,,88,125
148992,note_on,,,,,0,0,2,,,,,1,,,52,127
148992,note_on,,,,,0,0,2,,,,,1,,,49,127
148992,note_on,,,,,0,0,2,,,,,1,,,45,127
149088,note_on,,,,,96,0,2,,,,,1,,,52,127
149088,note_on,,,,,0,0,2,,,,,1,,,64,127
149088,note_on,,,,,0,0,2,,,,,1,,,56,127
149088,note_on,,,,,96,0,1,,,,,0,,,84,125
149088,note_on,,,,,0,0,1,,,,,0,,,92,125
149088,note_on,,,,,0,0,1,,,,,0,,,96,125
149120,note_off,,,,,0,0,1,,,,,0,,,93,80
149120,note_off,,,,,32,0,1,,,,,0,,,100,80
149120,note_off,,,,,0,0,1,,,,,0,,,88,80
149120,note_off,,,,,0,0,2,,,,,1,,,45,81
149120,note_off,,,,,0,0,2,,,,,1,,,49,81
149120,note_off,,,,,0,0,2,,,,,1,,,52,81
149120,note_off,,,,,32,0,2,,,,,1,,,57,81
149120,note_off,,,,,0,0,1,,,,,0,,,97,80
149152,note_off,,,,,32,0,2,,,,,1,,,52,81
149152,note_off,,,,,0,0,1,,,,,0,,,96,80
149152,note_off,,,,,0,0,2,,,,,1,,,64,81
149152,note_off,,,,,32,0,1,,,,,0,,,84,80
149152,note_off,,,,,0,0,2,,,,,1,,,56,81
149152,note_off,,,,,0,0,1,,,,,0,,,92,80
149184,note_on,,,,,0,0,1,,,,,0,,,93,125
149184,note_on,,,,,0,0,1,,,,,0,,,97,125
149184,note_on,,,,,32,0,1,,,,,0,,,85,125
149280,note_on,,,,,96,0,1,,,,,0,,,85,125
149280,note_on,,,,,0,0,1,,,,,0,,,93,125
149280,note_on,,,,,0,0,1,,,,,0,,,97,125
149312,note_off,,,,,32,0,1,,,,,0,,,85,80
149312,note_off,,,,,0,0,1,,,,,0,,,97,80
149312,note_off,,,,,0,0,1,,,,,0,,,93,80
149376,note_on,,,,,0,0,2,,,,,1,,,65,127
149376,note_on,,,,,0,0,2,,,,,1,,,57,127
149376,note_on,,,,,0,0,2,,,,,1,,,61,127
149376,note_on,,,,,224,0,2,,,,,1,,,53,127
149376,note_on,,,,,0,0,1,,,,,0,,,101,125
149376,note_on,,,,,0,0,1,,,,,0,,,97,125
149376,note_on,,,,,0,0,1,,,,,0,,,93,125
149376,note_on,,,,,64,0,1,,,,,0,,,89,125
149408,note_off,,,,,32,0,1,,,,,0,,,85,80
149408,note_off,,,,,0,0,1,,,,,0,,,97,80
149408,note_off,,,,,0,0,1,,,,,0,,,93,80
149504,note_off,,,,,128,0,2,,,,,1,,,53,81
149504,note_off,,,,,0,0,1,,,,,0,,,101,80
149504,note_off,,,,,0,0,2,,,,,1,,,57,81
149504,note_off,,,,,96,0,1,,,,,0,,,89,80
149504,note_off,,,,,0,0,1,,,,,0,,,97,80
149504,note_off,,,,,0,0,1,,,,,0,,,93,80
149504,note_off,,,,,0,0,2,,,,,1,,,61,81
149504,note_off,,,,,0,0,2,,,,,1,,,65,81
149568,note_on,,,,,0,0,2,,,,,1,,,61,127
149568,note_on,,,,,0,0,1,,,,,0,,,93,125
149568,note_on,,,,,64,0,2,,,,,1,,,53,127
149568,note_on,,,,,64,0,1,,,,,0,,,89,125
149568,note_on,,,,,0,0,2,,,,,1,,,65,127
149568,note_on,,,,,0,0,1,,,,,0,,,101,125
149568,note_on,,,,,0,0,1,,,,,0,,,97,125
149568,note_on,,,,,0,0,2,,,,,1,,,57,127
149696,note_off,,,,,0,0,2,,,,,1,,,65,81
149696,note_off,,,,,128,0,1,,,,,0,,,89,80
149696,note_off,,,,,0,0,1,,,,,0,,,93,80
149696,note_off,,,,,0,0,1,,,,,0,,,97,80
149696,note_off,,,,,128,0,2,,,,,1,,,53,81
149696,note_off,,,,,0,0,1,,,,,0,,,101,80
149696,note_off,,,,,0,0,2,,,,,1,,,61,81
149696,note_off,,,,,0,0,2,,,,,1,,,57,81
149760,note_on,,,,,0,0,2,,,,,1,,,49,127
149760,note_on,,,,,0,0,1,,,,,0,,,100,125
149760,note_on,,,,,0,0,2,,,,,1,,,52,127
149760,note_on,,,,,0,0,1,,,,,0,,,97,125
149760,note_on,,,,,0,0,1,,,,,0,,,93,125
149760,note_on,,,,,0,0,2,,,,,1,,,57,127
149760,note_on,,,,,64,0,1,,,,,0,,,88,125
149760,note_on,,,,,64,0,2,,,,,1,,,45,127
149824,note_off,,,,,64,0,1,,,,,0,,,88,80
149824,note_off,,,,,64,0,2,,,,,1,,,45,81
149824,note_off,,,,,0,0,1,,,,,0,,,93,80
149824,note_off,,,,,0,0,1,,,,,0,,,97,80
149824,note_off,,,,,0,0,1,,,,,0,,,100,80
149824,note_off,,,,,0,0,2,,,,,1,,,49,81
149824,note_off,,,,,0,0,2,,,,,1,,,52,81
149824,note_off,,,,,0,0,2,,,,,1,,,57,81
149856,note_on,,,,,0,0,1,,,,,0,,,97,125
149856,note_on,,,,,0,0,1,,,,,0,,,101,125
149856,note_on,,,,,0,0,2,,,,,1,,,49,127
149856,note_on,,,,,0,0,2,,,,,1,,,52,127
149856,note_on,,,,,0,0,2,,,,,1,,,57,127
149856,note_on,,,,,0,0,1,,,,,0,,,93,125
149856,note_on,,,,,32,0,2,,,,,1,,,45,127
149856,note_on,,,,,32,0,1,,,,,0,,,89,125
149984,note_off,,,,,0,0,1,,,,,0,,,97,80
149984,note_off,,,,,0,0,1,,,,,0,,,101,80
149984,note_off,,,,,0,0,1,,,,,0,,,93,80
149984,note_off,,,,,128,0,2,,,,,1,,,45,81
149984,note_off,,,,,0,0,2,,,,,1,,,57,81
149984,note_off,,,,,0,0,2,,,,,1,,,52,81
149984,note_off,,,,,0,0,2,,,,,1,,,49,81
149984,note_off,,,,,128,0,1,,,,,0,,,89,80
150048,note_on,,,,,64,0,1,,,,,0,,,89,125
150048,note_on,,,,,0,0,2,,,,,1,,,65,127
150048,note_on,,,,,0,0,1,,,,,0,,,101,125
150048,note_on,,,,,0,0,1,,,,,0,,,97,125
150048,note_on,,,,,0,0,1,,,,,0,,,93,125
150048,note_on,,,,,64,0,2,,,,,1,,,53,127
150048,note_on,,,,,0,0,2,,,,,1,,,61,127
150048,note_on,,,,,0,0,2,,,,,1,,,57,127
150112,note_off,,,,,64,0,1,,,,,0,,,89,80
150112,note_off,,,,,0,0,2,,,,,1,,,57,81
150112,note_off,,,,,0,0,1,,,,,0,,,101,80
150112,note_off,,,,,0,0,1,,,,,0,,,97,80
150112,note_off,,,,,0,0,1,,,,,0,,,93,80
150112,note_off,,,,,0,0,2,,,,,1,,,61,81
150112,note_off,,,,,0,0,2,,,,,1,,,65,81
150112,note_off,,,,,64,0,2,,,,,1,,,53,81
150144,note_on,,,,,0,0,2,,,,,1,,,61,127
150144,note_on,,,,,0,0,2,,,,,1,,,65,127
150144,note_on,,,,,0,0,1,,,,,0,,,101,125
150144,note_on,,,,,0,0,2,,,,,1,,,57,127
150144,note_on,,,,,32,0,1,,,,,0,,,89,125
150144,note_on,,,,,0,0,1,,,,,0,,,93,125
150144,note_on,,,,,0,0,1,,,,,0,,,97,125
150144,note_on,,,,,32,0,2,,,,,1,,,53,127
150272,note_off,,,,,0,0,2,,,,,1,,,57,81
150272,note_off,,,,,128,0,1,,,,,0,,,89,80
150272,note_off,,,,,128,0,2,,,,,1,,,53,81
150272,note_off,,,,,0,0,1,,,,,0,,,101,80
150272,note_off,,,,,0,0,1,,,,,0,,,97,80
150272,note_off,,,,,0,0,1,,,,,0,,,93,80
150272,note_off,,,,,0,0,2,,,,,1,,,65,81
150272,note_off,,,,,0,0,2,,,,,1,,,61,81
150624,note_on,,,,,352,0,2,,,,,1,,,57,127
150624,note_on,,,,,0,0,1,,,,,0,,,93,125
150624,note_on,,,,,0,0,1,,,,,0,,,97,125
150624,note_on,,,,,0,0,1,,,,,0,,,100,125
150624,note_on,,,,,0,0,2,,,,,1,,,52,127
150624,note_on,,,,,0,0,2,,,,,1,,,49,127
150624,note_on,,,,,0,0,2,,,,,1,,,45,127
150624,note_on,,,,,352,0,1,,,,,0,,,88,125
150688,note_off,,,,,0,0,2,,,,,1,,,49,81
150688,note_off,,,,,64,0,2,,,,,1,,,57,81
150688,note_off,,,,,0,0,2,,,,,1,,,45,81
150688,note_off,,,,,0,0,2,,,,,1,,,52,81
150688,note_off,,,,,64,0,1,,,,,0,,,88,80
150688,note_off,,,,,0,0,1,,,,,0,,,100,80
150688,note_off,,,,,0,0,1,,,,,0,,,93,80
150688,note_off,,,,,0,0,1,,,,,0,,,97,80
150720,note_on,,,,,32,0,2,,,,,1,,,45,127
150720,note_on,,,,,0,0,2,,,,,1,,,49,127
150720,note_on,,,,,0,0,1,,,,,0,,,100,125
150720,note_on,,,,,32,0,1,,,,,0,,,88,125
150720,note_on,,,,,0,0,1,,,,,0,,,97,125
150720,note_on,,,,,0,0,2,,,,,1,,,52,127
150720,note_on,,,,,0,0,1,,,,,0,,,93,125
150720,note_on,,,,,0,0,2,,,,,1,,,57,127
150720,time_signature,2,4,96,8,69120,1,0,,,,,,,,,
150848,note_off,,,,,0,0,2,,,,,1,,,49,81
150848,note_off,,,,,0,0,1,,,,,0,,,97,80
150848,note_off,,,,,0,0,2,,,,,1,,,57,81
150848,note_off,,,,,0,0,1,,,,,0,,,93,80
150848,note_off,,,,,0,0,1,,,,,0,,,100,80
150848,note_off,,,,,128,0,2,,,,,1,,,45,81
150848,note_off,,,,,128,0,1,,,,,0,,,88,80
150848,note_off,,,,,0,0,2,,,,,1,,,52,81
150912,note_on,,,,,0,0,1,,,,,0,,,97,125
150912,note_on,,,,,0,0,1,,,,,0,,,93,125
150912,note_on,,,,,0,0,2,,,,,1,,,53,127
150912,note_on,,,,,64,0,1,,,,,0,,,89,125
150912,note_on,,,,,64,0,2,,,,,1,,,41,127
150912,note_on,,,,,0,0,1,,,,,0,,,101,125
151040,note_off,,,,,0,0,2,,,,,1,,,53,81
151040,note_off,,,,,128,0,2,,,,,1,,,41,81
151040,note_off,,,,,128,0,1,,,,,0,,,89,80
151040,note_off,,,,,0,0,1,,,,,0,,,97,80
151040,note_off,,,,,0,0,1,,,,,0,,,93,80
151040,note_off,,,,,0,0,1,,,,,0,,,101,80
151104,note_on,,,,,0,0,1,,,,,0,,,100,125
151104,note_on,,,,,0,0,1,,,,,0,,,97,125
151104,note_on,,,,,0,0,1,,,,,0,,,93,125
151104,note_on,,,,,0,0,2,,,,,1,,,57,127
151104,note_on,,,,,64,0,2,,,,,1,,,45,127
151104,note_on,,,,,64,0,1,,,,,0,,,88,125
151232,note_off,,,,,0,0,2,,,,,1,,,57,81
151232,note_off,,,,,128,0,2,,,,,1,,,45,81
151232,note_off,,,,,0,0,1,,,,,0,,,100,80
151232,note_off,,,,,0,0,1,,,,,0,,,97,80
151232,note_off,,,,,0,0,1,,,,,0,,,93,80
151232,note_off,,,,,128,0,1,,,,,0,,,88,80
151296,note_on,,,,,64,0,2,,,,,1,,,41,127
151296,note_on,,,,,0,0,1,,,,,0,,,93,125
151296,note_on,,,,,0,0,1,,,,,0,,,101,125
151296,note_on,,,,,64,0,1,,,,,0,,,89,125
151296,note_on,,,,,0,0,2,,,,,1,,,53,127
151296,note_on,,,,,0,0,1,,,,,0,,,97,125
151424,note_off,,,,,128,0,2,,,,,1,,,41,81
151424,note_off,,,,,128,0,1,,,,,0,,,89,80
151424,note_off,,,,,0,0,1,,,,,0,,,93,80
151424,note_off,,,,,0,0,1,,,,,0,,,97,80
151424,note_off,,,,,0,0,1,,,,,0,,,101,80
151424,note_off,,,,,0,0,2,,,,,1,,,53,81
151488,note_on,,,,,0,0,1,,,,,0,,,100,125
151488,note_on,,,,,0,0,1,,,,,0,,,97,125
151488,note_on,,,,,0,0,1,,,,,0,,,93,125
151488,note_on,,,,,64,0,1,,,,,0,,,88,125
151488,note_on,,,,,64,0,2,,,,,1,,,45,127
151488,note_on,,,,,0,0,2,,,,,1,,,57,127
151616,note_off,,,,,0,0,1,,,,,0,,,100,80
151616,note_off,,,,,128,0,2,,,,,1,,,45,81
151616,note_off,,,,,128,0,1,,,,,0,,,88,80
151616,note_off,,,,,0,0,1,,,,,0,,,97,80
151616,note_off,,,,,0,0,1,,,,,0,,,93,80
151616,note_off,,,,,0,0,2,,,,,1,,,57,81
151680,note_on,,,,,64,0,2,,,,,1,,,53,127
151680,note_on,,,,,64,0,1,,,,,0,,,89,125
151680,note_on,,,,,0,0,1,,,,,0,,,93,125
151680,note_on,,,,,0,0,1,,,,,0,,,97,125
151680,note_on,,,,,0,0,1,,,,,0,,,101,125
151680,note_on,,,,,0,0,2,,,,,1,,,41,127
151808,note_off,,,,,128,0,1,,,,,0,,,89,80
151808,note_off,,,,,128,0,2,,,,,1,,,53,81
151808,note_off,,,,,0,0,2,,,,,1,,,41,81
151808,note_off,,,,,0,0,1,,,,,0,,,93,80
151808,note_off,,,,,0,0,1,,,,,0,,,101,80
151808,note_off,,,,,0,0,1,,,,,0,,,97,80
151872,note_on,,,,,64,0,2,,,,,1,,,45,127
151872,note_on,,,,,64,0,1,,,,,0,,,88,125
151872,note_on,,,,,0,0,1,,,,,0,,,93,125
151872,note_on,,,,,0,0,1,,,,,0,,,100,125
151872,note_on,,,,,0,0,1,,,,,0,,,97,125
151872,note_on,,,,,0,0,2,,,,,1,,,57,127
152000,note_off,,,,,0,0,1,,,,,0,,,100,80
152000,note_off,,,,,128,0,1,,,,,0,,,88,80
152000,note_off,,,,,0,0,1,,,,,0,,,97,80
152000,note_off,,,,,0,0,1,,,,,0,,,93,80
152000,note_off,,,,,128,0,2,,,,,1,,,45,81
152000,note_off,,,,,0,0,2,,,,,1,,,57,81
152064,note_on,,,,,64,0,1,,,,,0,,,89,125
152064,note_on,,,,,64,0,2,,,,,1,,,53,127
152064,note_on,,,,,0,0,1,,,,,0,,,97,125
152064,note_on,,,,,0,0,2,,,,,1,,,41,127
152064,note_on,,,,,0,0,1,,,,,0,,,101,125
152064,note_on,,,,,0,0,1,,,,,0,,,93,125
152192,note_off,,,,,0,0,2,,,,,1,,,41,81
152192,note_off,,,,,0,0,1,,,,,0,,,101,80
152192,note_off,,,,,0,0,1,,,,,0,,,93,80
152192,note_off,,,,,0,0,1,,,,,0,,,97,80
152192,note_off,,,,,128,0,1,,,,,0,,,89,80
152192,note_off,,,,,128,0,2,,,,,1,,,53,81
152256,note_on,,,,,0,0,2,,,,,1,,,57,127
152256,note_on,,,,,0,0,1,,,,,0,,,97,125
152256,note_on,,,,,64,0,2,,,,,1,,,45,127
152256,note_on,,,,,0,0,1,,,,,0,,,93,125
152256,note_on,,,,,0,0,1,,,,,0,,,100,125
152256,note_on,,,,,64,0,1,,,,,0,,,88,125
152384,note_off,,,,,128,0,1,,,,,0,,,88,80
152384,note_off,,,,,0,0,1,,,,,0,,,100,80
152384,note_off,,,,,0,0,1,,,,,0,,,93,80
152384,note_off,,,,,128,0,2,,,,,1,,,45,81
152384,note_off,,,,,0,0,1,,,,,0,,,97,80
152384,note_off,,,,,0,0,2,,,,,1,,,57,81
153024,note_on,,,,,640,0,2,,,,,1,,,53,127
153024,note_on,,,,,0,0,1,,,,,0,,,97,125
153024,note_on,,,,,0,0,1,,,,,0,,,93,125
153024,note_on,,,,,0,0,1,,,,,0,,,101,125
153024,note_on,,,,,640,0,1,,,,,0,,,89,125
153024,note_on,,,,,0,0,2,,,,,1,,,41,127
153152,note_off,,,,,0,0,1,,,,,0,,,101,80
153152,note_off,,,,,0,0,1,,,,,0,,,97,80
153152,note_off,,,,,0,0,1,,,,,0,,,93,80
153152,note_off,,,,,128,0,2,,,,,1,,,53,81
153152,note_off,,,,,0,0,2,,,,,1,,,41,81
153152,note_off,,,,,128,0,1,,,,,0,,,89,80
153792,note_on,,,,,640,0,2,,,,,1,,,46,127
153792,end_of_track,,,,,0,1,0,,,,,,,,,
153792,note_on,,,,,0,0,2,,,,,1,,,41,127
153792,time_signature,3,8,96,8,3072,1,0,,,,,,,,,
153792,note_on,,,,,0,0,2,,,,,1,,,37,127
153888,note_on,,,,,96,0,2,,,,,1,,,53,127
153920,note_off,,,,,0,0,2,,,,,1,,,41,81
153920,note_off,,,,,0,0,2,,,,,1,,,37,81
153920,note_off,,,,,32,0,2,,,,,1,,,46,81
153952,note_off,,,,,32,0,2,,,,,1,,,53,81
153984,note_on,,,,,32,0,2,,,,,1,,,46,127
153984,note_on,,,,,0,0,2,,,,,1,,,58,127
153984,note_on,,,,,0,0,2,,,,,1,,,37,127
153984,note_on,,,,,0,0,2,,,,,1,,,41,127
154048,note_off,,,,,64,0,2,,,,,1,,,58,81
154080,note_on,,,,,928,0,1,,,,,0,,,65,125
154112,note_off,,,,,0,0,2,,,,,1,,,37,81
154112,note_off,,,,,0,0,2,,,,,1,,,41,81
154112,note_off,,,,,64,0,2,,,,,1,,,46,81
154144,note_off,,,,,64,0,1,,,,,0,,,65,80
154176,note_on,,,,,32,0,1,,,,,0,,,65,125
154176,note_on,,,,,0,0,2,,,,,1,,,41,127
154176,note_on,,,,,0,0,2,,,,,1,,,37,127
154176,note_on,,,,,64,0,2,,,,,1,,,46,127
154240,note_off,,,,,64,0,1,,,,,0,,,65,80
154272,note_on,,,,,32,0,1,,,,,0,,,70,125
154304,note_off,,,,,128,0,2,,,,,1,,,46,81
154304,note_off,,,,,0,0,2,,,,,1,,,37,81
154304,note_off,,,,,0,0,2,,,,,1,,,41,81
154336,note_off,,,,,64,0,1,,,,,0,,,70,80
154368,note_on,,,,,64,0,2,,,,,1,,,41,127
154368,note_on,,,,,32,0,1,,,,,0,,,77,125
154368,note_on,,,,,0,0,2,,,,,1,,,37,127
154368,note_on,,,,,0,0,2,,,,,1,,,46,127
154432,note_off,,,,,64,0,1,,,,,0,,,77,80
154464,note_on,,,,,32,0,1,,,,,0,,,77,125
154496,note_off,,,,,128,0,2,,,,,1,,,41,81
154496,note_off,,,,,0,0,2,,,,,1,,,46,81
154496,note_off,,,,,0,0,2,,,,,1,,,37,81
154528,note_off,,,,,64,0,1,,,,,0,,,77,80
154560,note_on,,,,,0,0,2,,,,,1,,,41,127
154560,note_on,,,,,32,0,1,,,,,0,,,82,125
154560,note_on,,,,,64,0,2,,,,,1,,,46,127
154560,note_on,,,,,0,0,2,,,,,1,,,37,127
154624,note_off,,,,,64,0,1,,,,,0,,,82,80
154656,note_on,,,,,32,0,1,,,,,0,,,89,125
154688,note_off,,,,,128,0,2,,,,,1,,,46,81
154688,note_off,,,,,0,0,2,,,,,1,,,37,81
154688,note_off,,,,,0,0,2,,,,,1,,,41,81
154720,note_off,,,,,64,0,1,,,,,0,,,89,80
154752,note_on,,,,,0,0,2,,,,,1,,,37,127
154752,note_on,,,,,64,0,2,,,,,1,,,46,127
154752,note_on,,,,,46048,0,3,,,,,2,,,90,125
154752,note_on,,,,,0,0,2,,,,,1,,,41,127
154816,note_off,,,,,64,0,3,,,,,2,,,90,80
154848,note_on,,,,,32,0,3,,,,,2,,,94,125
154880,note_off,,,,,0,0,2,,,,,1,,,41,81
154880,note_off,,,,,0,0,2,,,,,1,,,37,81
154880,note_off,,,,,128,0,2,,,,,1,,,46,81
154912,note_off,,,,,64,0,3,,,,,2,,,94,80
154944,note_on,,,,,64,0,2,,,,,1,,,46,127
154944,note_on,,,,,0,0,2,,,,,1,,,41,127
154944,note_on,,,,,0,0,2,,,,,1,,,37,127
155040,note_on,,,,,128,0,3,,,,,2,,,94,125
155072,note_off,,,,,0,0,2,,,,,1,,,41,81
155072,note_off,,,,,0,0,2,,,,,1,,,37,81
155072,note_off,,,,,128,0,2,,,,,1,,,46,81
155104,note_off,,,,,64,0,3,,,,,2,,,94,80
155136,note_on,,,,,0,0,2,,,,,1,,,37,127
155136,note_on,,,,,0,0,2,,,,,1,,,41,127
155136,note_on,,,,,32,0,3,,,,,2,,,89,125
155136,note_on,,,,,64,0,2,,,,,1,,,46,127
155200,note_off,,,,,64,0,3,,,,,2,,,89,80
155232,note_on,,,,,32,0,3,,,,,2,,,89,125
155264,note_off,,,,,0,0,2,,,,,1,,,37,81
155264,note_off,,,,,0,0,2,,,,,1,,,41,81
155264,note_off,,,,,128,0,2,,,,,1,,,46,81
155296,note_off,,,,,64,0,3,,,,,2,,,89,80
155328,note_on,,,,,64,0,2,,,,,1,,,46,127
155328,note_on,,,,,32,0,3,,,,,2,,,82,125
155328,note_on,,,,,0,0,2,,,,,1,,,37,127
155328,note_on,,,,,0,0,2,,,,,1,,,41,127
155392,note_off,,,,,64,0,3,,,,,2,,,82,80
155424,note_on,,,,,32,0,3,,,,,2,,,77,125
155456,note_off,,,,,0,0,2,,,,,1,,,37,81
155456,note_off,,,,,0,0,2,,,,,1,,,41,81
155456,note_off,,,,,128,0,2,,,,,1,,,46,81
155488,note_off,,,,,64,0,3,,,,,2,,,77,80
155520,note_on,,,,,0,0,2,,,,,1,,,37,127
155520,note_on,,,,,0,0,2,,,,,1,,,41,127
155520,note_on,,,,,64,0,2,,,,,1,,,46,127
155520,note_on,,,,,800,0,1,,,,,0,,,77,125
155584,note_off,,,,,64,0,1,,,,,0,,,77,80
155616,note_on,,,,,32,0,1,,,,,0,,,70,125
155648,note_off,,,,,0,0,2,,,,,1,,,37,81
155648,note_off,,,,,0,0,2,,,,,1,,,41,81
155648,note_off,,,,,128,0,2,,,,,1,,,46,81
155680,note_off,,,,,64,0,1,,,,,0,,,70,80
155712,note_on,,,,,32,0,1,,,,,0,,,65,125
155712,note_on,,,,,64,0,2,,,,,1,,,46,127
155712,note_on,,,,,0,0,2,,,,,1,,,41,127
155712,note_on,,,,,0,0,2,,,,,1,,,37,127
155776,note_off,,,,,64,0,1,,,,,0,,,65,80
155808,note_on,,,,,32,0,1,,,,,0,,,65,125
155840,note_off,,,,,0,0,2,,,,,1,,,37,81
155840,note_off,,,,,128,0,2,,,,,1,,,46,81
155840,note_off,,,,,0,0,2,,,,,1,,,41,81
155872,note_off,,,,,64,0,1,,,,,0,,,65,80
155904,note_on,,,,,64,0,2,,,,,1,,,46,127
155904,note_on,,,,,0,0,2,,,,,1,,,58,127
155904,note_on,,,,,0,0,2,,,,,1,,,41,127
155904,note_on,,,,,0,0,2,,,,,1,,,37,127
155968,note_off,,,,,64,0,2,,,,,1,,,58,81
156000,note_on,,,,,32,0,2,,,,,1,,,53,127
156032,note_off,,,,,0,0,2,,,,,1,,,37,81
156032,note_off,,,,,0,0,2,,,,,1,,,41,81
156032,note_off,,,,,32,0,2,,,,,1,,,46,81
156064,note_off,,,,,32,0,2,,,,,1,,,53,81
156096,note_on,,,,,0,0,2,,,,,1,,,41,127
156096,note_on,,,,,0,0,1,,,,,0,,,58,125
156096,note_on,,,,,0,0,2,,,,,1,,,37,127
156096,note_on,,,,,224,0,1,,,,,0,,,65,125
156096,note_on,,,,,32,0,2,,,,,1,,,46,127
156224,note_off,,,,,0,0,2,,,,,1,,,37,81
156224,note_off,,,,,0,0,2,,,,,1,,,41,81
156224,note_off,,,,,128,0,2,,,,,1,,,46,81
156224,note_off,,,,,0,0,1,,,,,0,,,58,80
156224,note_off,,,,,128,0,1,,,,,0,,,65,80
156672,note_on,,,,,0,0,1,,,,,0,,,82,125
156672,note_on,,,,,0,0,1,,,,,0,,,85,125
156672,note_on,,,,,0,0,2,,,,,1,,,65,127
156672,note_on,,,,,0,0,2,,,,,1,,,61,127
156672,note_on,,,,,448,0,1,,,,,0,,,77,125
156672,note_on,,,,,0,0,2,,,,,1,,,58,127
156672,note_on,,,,,0,0,1,,,,,0,,,89,125
156672,note_on,,,,,448,0,2,,,,,1,,,53,127
156800,note_off,,,,,0,0,2,,,,,1,,,65,81
156800,note_off,,,,,0,0,2,,,,,1,,,61,81
156800,note_off,,,,,0,0,2,,,,,1,,,58,81
156800,note_off,,,,,0,0,1,,,,,0,,,82,80
156800,note_off,,,,,0,0,1,,,,,0,,,89,80
156800,note_off,,,,,0,0,1,,,,,0,,,85,80
156800,note_off,,,,,128,0,2,,,,,1,,,53,81
156800,note_off,,,,,128,0,1,,,,,0,,,77,80
157248,note_on,,,,,0,0,2,,,,,1,,,33,127
157248,note_on,,,,,448,0,2,,,,,1,,,45,127
157312,note_off,,,,,64,0,2,,,,,1,,,45,81
157312,note_off,,,,,0,0,2,,,,,1,,,33,81
157344,note_on,,,,,32,0,2,,,,,1,,,46,127
157344,note_on,,,,,0,0,2,,,,,1,,,58,127
157408,note_off,,,,,64,0,2,,,,,1,,,46,81
157408,note_off,,,,,0,0,2,,,,,1,,,58,81
157440,note_on,,,,,0,0,2,,,,,1,,,34,127
157440,note_on,,,,,32,0,2,,,,,1,,,46,127
157504,note_off,,,,,64,0,2,,,,,1,,,46,81
157504,note_off,,,,,0,0,2,,,,,1,,,34,81
157536,note_on,,,,,0,0,2,,,,,1,,,61,127
157536,note_on,,,,,32,0,2,,,,,1,,,49,127
157600,note_off,,,,,0,0,2,,,,,1,,,61,81
157600,note_off,,,,,64,0,2,,,,,1,,,49,81
157632,note_on,,,,,0,0,2,,,,,1,,,37,127
157632,note_on,,,,,32,0,2,,,,,1,,,49,127
157696,note_off,,,,,64,0,2,,,,,1,,,49,81
157696,note_off,,,,,0,0,2,,,,,1,,,37,81
157728,note_on,,,,,0,0,2,,,,,1,,,64,127
157728,note_on,,,,,32,0,2,,,,,1,,,52,127
157792,note_off,,,,,0,0,2,,,,,1,,,64,81
157792,note_off,,,,,64,0,2,,,,,1,,,52,81
157824,note_on,,,,,0,0,2,,,,,1,,,52,127
157824,note_on,,,,,32,0,2,,,,,1,,,40,127
157888,note_off,,,,,0,0,2,,,,,1,,,52,81
157888,note_off,,,,,64,0,2,,,,,1,,,40,81
157920,note_on,,,,,32,0,2,,,,,1,,,53,127
157920,note_on,,,,,0,0,2,,,,,1,,,65,127
157984,note_off,,,,,0,0,2,,,,,1,,,65,81
157984,note_off,,,,,64,0,2,,,,,1,,,53,81
158016,note_on,,,,,32,0,2,,,,,1,,,42,127
158016,note_on,,,,,0,0,2,,,,,1,,,53,127
158080,note_off,,,,,64,0,2,,,,,1,,,42,81
158080,note_off,,,,,0,0,2,,,,,1,,,53,81
158112,note_on,,,,,0,0,1,,,,,0,,,69,125
158112,note_on,,,,,1312,0,1,,,,,0,,,57,125
158176,note_off,,,,,0,0,1,,,,,0,,,69,80
158176,note_off,,,,,64,0,1,,,,,0,,,57,80
158208,note_on,,,,,128,0,2,,,,,1,,,45,127
158208,note_on,,,,,0,0,2,,,,,1,,,57,127
158272,note_off,,,,,0,0,2,,,,,1,,,57,81
158272,note_off,,,,,64,0,2,,,,,1,,,45,81
158304,note_on,,,,,0,0,1,,,,,0,,,70,125
158304,note_on,,,,,128,0,1,,,,,0,,,58,125
158368,note_off,,,,,0,0,1,,,,,0,,,70,80
158368,note_off,,,,,64,0,1,,,,,0,,,58,80
158400,note_on,,,,,0,0,2,,,,,1,,,58,127
158400,note_on,,,,,128,0,2,,,,,1,,,46,127
158464,note_off,,,,,0,0,2,,,,,1,,,58,81
158464,note_off,,,,,64,0,2,,,,,1,,,46,81
158496,note_on,,,,,0,0,1,,,,,0,,,73,125
158496,note_on,,,,,128,0,1,,,,,0,,,61,125
158560,note_off,,,,,64,0,1,,,,,0,,,61,80
158560,note_off,,,,,0,0,1,,,,,0,,,73,80
158592,note_on,,,,,0,0,2,,,,,1,,,61,127
158592,note_on,,,,,128,0,2,,,,,1,,,49,127
158656,note_off,,,,,0,0,2,,,,,1,,,61,81
158656,note_off,,,,,64,0,2,,,,,1,,,49,81
158688,note_on,,,,,128,0,1,,,,,0,,,64,125
158688,note_on,,,,,0,0,1,,,,,0,,,76,125
158752,note_off,,,,,64,0,1,,,,,0,,,64,80
158752,note_off,,,,,0,0,1,,,,,0,,,76,80
158784,note_on,,,,,128,0,2,,,,,1,,,52,127
158784,note_on,,,,,0,0,2,,,,,1,,,64,127
158848,note_off,,,,,64,0,2,,,,,1,,,52,81
158848,note_off,,,,,0,0,2,,,,,1,,,64,81
158880,note_on,,,,,0,0,1,,,,,0,,,77,125
158880,note_on,,,,,128,0,1,,,,,0,,,65,125
158944,note_off,,,,,0,0,1,,,,,0,,,77,80
158944,note_off,,,,,64,0,1,,,,,0,,,65,80
158976,note_on,,,,,128,0,2,,,,,1,,,65,127
158976,note_on,,,,,0,0,2,,,,,1,,,53,127
159040,note_off,,,,,0,0,2,,,,,1,,,53,81
159040,note_off,,,,,64,0,2,,,,,1,,,65,81
159072,note_on,,,,,0,0,1,,,,,0,,,81,125
159072,note_on,,,,,128,0,1,,,,,0,,,69,125
159136,note_off,,,,,0,0,1,,,,,0,,,81,80
159136,note_off,,,,,64,0,1,,,,,0,,,69,80
159168,note_on,,,,,0,0,2,,,,,1,,,52,127
159168,note_on,,,,,128,0,2,,,,,1,,,64,127
159232,note_off,,,,,0,0,2,,,,,1,,,52,81
159232,note_off,,,,,64,0,2,,,,,1,,,64,81
159264,note_on,,,,,0,0,1,,,,,0,,,82,125
159264,note_on,,,,,128,0,1,,,,,0,,,70,125
159328,note_off,,,,,0,0,1,,,,,0,,,82,80
159328,note_off,,,,,64,0,1,,,,,0,,,70,80
159360,note_on,,,,,0,0,2,,,,,1,,,49,127
159360,note_on,,,,,128,0,2,,,,,1,,,61,127
159424,note_off,,,,,0,0,2,,,,,1,,,49,81
159424,note_off,,,,,64,0,2,,,,,1,,,61,81
159456,note_on,,,,,128,0,1,,,,,0,,,73,125
159456,note_on,,,,,0,0,1,,,,,0,,,85,125
159520,note_off,,,,,0,0,1,,,,,0,,,85,80
159520,note_off,,,,,64,0,1,,,,,0,,,73,80
159552,note_on,,,,,0,0,2,,,,,1,,,46,127
159552,note_on,,,,,128,0,2,,,,,1,,,58,127
159616,note_off,,,,,64,0,2,,,,,1,,,58,81
159616,note_off,,,,,0,0,2,,,,,1,,,46,81
159648,note_on,,,,,4160,0,3,,,,,2,,,76,125
159648,note_on,,,,,0,0,3,,,,,2,,,88,125
159712,note_off,,,,,0,0,3,,,,,2,,,88,80
159712,note_off,,,,,64,0,3,,,,,2,,,76,80
159744,note_on,,,,,0,0,2,,,,,1,,,45,127
159744,note_on,,,,,128,0,2,,,,,1,,,57,127
159808,note_off,,,,,64,0,2,,,,,1,,,57,81
159808,note_off,,,,,0,0,2,,,,,1,,,45,81
159840,note_on,,,,,128,0,3,,,,,2,,,77,125
159840,note_on,,,,,0,0,3,,,,,2,,,89,125
159904,note_off,,,,,0,0,3,,,,,2,,,89,80
159904,note_off,,,,,64,0,3,,,,,2,,,77,80
159936,note_on,,,,,128,0,2,,,,,1,,,53,127
159936,note_on,,,,,0,0,2,,,,,1,,,41,127
160000,note_off,,,,,0,0,2,,,,,1,,,41,81
160000,note_off,,,,,64,0,2,,,,,1,,,53,81
160032,note_on,,,,,0,0,3,,,,,2,,,93,125
160032,note_on,,,,,128,0,3,,,,,2,,,81,125
160096,note_off,,,,,64,0,3,,,,,2,,,81,80
160096,note_off,,,,,0,0,3,,,,,2,,,93,80
160128,note_on,,,,,0,0,2,,,,,1,,,40,127
160128,note_on,,,,,128,0,2,,,,,1,,,52,127
160192,note_off,,,,,0,0,2,,,,,1,,,40,81
160192,note_off,,,,,64,0,2,,,,,1,,,52,81
160224,note_on,,,,,0,0,3,,,,,2,,,94,125
160224,note_on,,,,,128,0,3,,,,,2,,,82,125
160288,note_off,,,,,64,0,3,,,,,2,,,82,80
160288,note_off,,,,,0,0,3,,,,,2,,,94,80
160320,note_on,,,,,128,0,2,,,,,1,,,53,127
160320,note_on,,,,,0,0,2,,,,,1,,,41,127
160384,note_off,,,,,64,0,2,,,,,1,,,53,81
160384,note_off,,,,,0,0,2,,,,,1,,,41,81
160416,note_on,,,,,0,0,3,,,,,2,,,97,125
160416,note_on,,,,,128,0,3,,,,,2,,,85,125
160480,note_off,,,,,0,0,3,,,,,2,,,97,80
160480,note_off,,,,,64,0,3,,,,,2,,,85,80
160512,note_on,,,,,128,0,2,,,,,1,,,52,127
160512,note_on,,,,,0,0,2,,,,,1,,,40,127
160576,note_off,,,,,64,0,2,,,,,1,,,52,81
160576,note_off,,,,,0,0,2,,,,,1,,,40,81
160608,note_on,,,,,0,0,3,,,,,2,,,98,125
160608,note_on,,,,,128,0,3,,,,,2,,,86,125
160672,note_off,,,,,0,0,3,,,,,2,,,98,80
160672,note_off,,,,,64,0,3,,,,,2,,,86,80
160704,note_on,,,,,0,0,2,,,,,1,,,51,127
160704,note_on,,,,,128,0,2,,,,,1,,,39,127
160768,note_off,,,,,0,0,2,,,,,1,,,51,81
160768,note_off,,,,,64,0,2,,,,,1,,,39,81
160800,note_on,,,,,0,0,3,,,,,2,,,99,125
160800,note_on,,,,,128,0,3,,,,,2,,,87,125
160864,note_off,,,,,64,0,3,,,,,2,,,87,80
160864,note_off,,,,,0,0,3,,,,,2,,,99,80
160896,note_on,,,,,0,0,2,,,,,1,,,39,127
160896,note_on,,,,,128,0,2,,,,,1,,,51,127
160960,note_off,,,,,0,0,2,,,,,1,,,39,81
160960,note_off,,,,,64,0,2,,,,,1,,,51,81
160992,note_on,,,,,128,0,3,,,,,2,,,88,125
160992,note_on,,,,,0,0,3,,,,,2,,,100,125
161056,note_off,,,,,64,0,3,,,,,2,,,88,80
161056,note_off,,,,,0,0,3,,,,,2,,,100,80
161088,note_on,,,,,128,0,2,,,,,1,,,49,127
161088,note_on,,,,,0,0,2,,,,,1,,,37,127
161152,note_off,,,,,64,0,2,,,,,1,,,49,81
161152,note_off,,,,,0,0,2,,,,,1,,,37,81
161184,note_on,,,,,0,0,3,,,,,2,,,101,125
161184,note_on,,,,,128,0,3,,,,,2,,,89,125
161248,note_off,,,,,0,0,3,,,,,2,,,101,80
161248,note_off,,,,,64,0,3,,,,,2,,,89,80
161280,note_on,,,,,0,0,2,,,,,1,,,36,127
161280,note_on,,,,,128,0,2,,,,,1,,,48,127
161344,note_off,,,,,64,0,2,,,,,1,,,48,81
161344,note_off,,,,,0,0,2,,,,,1,,,36,81
161376,note_on,,,,,128,0,3,,,,,2,,,102,125
161376,note_on,,,,,0,0,3,,,,,2,,,90,125
161440,note_off,,,,,0,0,3,,,,,2,,,90,80
161440,note_off,,,,,64,0,3,,,,,2,,,102,80
161472,note_on,,,,,128,0,2,,,,,1,,,47,127
161472,note_on,,,,,0,0,2,,,,,1,,,35,127
161536,note_off,,,,,0,0,2,,,,,1,,,35,81
161536,note_off,,,,,64,0,2,,,,,1,,,47,81
161568,note_on,,,,,0,0,3,,,,,2,,,91,125
161568,note_on,,,,,128,0,3,,,,,2,,,103,125
161632,note_off,,,,,0,0,3,,,,,2,,,91,80
161632,note_off,,,,,64,0,3,,,,,2,,,103,80
161664,note_on,,,,,128,0,2,,,,,1,,,46,127
161664,note_on,,,,,0,0,2,,,,,1,,,34,127
161728,note_off,,,,,0,0,2,,,,,1,,,34,81
161728,note_off,,,,,64,0,2,,,,,1,,,46,81
161760,note_on,,,,,128,0,3,,,,,2,,,104,125
161760,note_on,,,,,0,0,3,,,,,2,,,92,125
161824,note_off,,,,,0,0,3,,,,,2,,,92,80
161824,note_off,,,,,64,0,3,,,,,2,,,104,80
161856,note_on,,,,,0,0,2,,,,,1,,,33,127
161856,note_on,,,,,128,0,2,,,,,1,,,45,127
161856,note_on,,,,,0,0,3,,,,,2,,,93,125
161856,note_on,,,,,32,0,3,,,,,2,,,105,125
161920,note_off,,,,,0,0,3,,,,,2,,,93,80
161920,note_off,,,,,64,0,3,,,,,2,,,105,80
161920,end_of_track,,,,,0,1,3,,,,,,,,,
161984,note_off,,,,,0,0,2,,,,,1,,,33,81
161984,note_off,,,,,128,0,2,,,,,1,,,45,81
162432,note_on,,,,,0,0,2,,,,,1,,,57,127
162432,note_on,,,,,0,0,2,,,,,1,,,52,127
162432,note_on,,,,,2912,0,1,,,,,0,,,81,125
162432,note_on,,,,,448,0,2,,,,,1,,,61,127
162432,note_on,,,,,0,0,1,,,,,0,,,69,125
162432,note_on,,,,,0,0,1,,,,,0,,,76,125
162432,note_on,,,,,0,0,2,,,,,1,,,64,127
162432,note_on,,,,,0,0,1,,,,,0,,,73,125
162688,note_off,,,,,0,0,1,,,,,0,,,73,80
162688,note_off,,,,,0,0,1,,,,,0,,,76,80
162688,note_off,,,,,0,0,2,,,,,1,,,52,81
162688,end_of_track,,,,,0,1,1,,,,,,,,,
162688,note_off,,,,,0,0,2,,,,,1,,,57,81
162688,note_off,,,,,256,0,1,,,,,0,,,81,80
162688,note_off,,,,,256,0,2,,,,,1,,,61,81
162688,note_off,,,,,0,0,1,,,,,0,,,69,80
162688,note_off,,,,,0,0,2,,,,,1,,,64,81
163008,note_on,,,,,0,0,2,,,,,1,,,33,127
163008,note_on,,,,,320,0,2,,,,,1,,,57,127
163008,note_on,,,,,0,0,2,,,,,1,,,45,127
163584,note_on,,,,,576,0,2,,,,,1,,,57,127
163584,note_on,,,,,0,0,2,,,,,1,,,45,127
163584,note_on,,,,,0,0,2,,,,,1,,,33,127
163776,note_on,,,,,0,0,2,,,,,1,,,45,127
163776,note_on,,,,,0,0,2,,,,,1,,,33,127
163776,note_on,,,,,192,0,2,,,,,1,,,57,127
163840,note_off,,,,,0,0,2,,,,,1,,,45,81
163840,note_off,,,,,64,0,2,,,,,1,,,57,81
163840,note_off,,,,,0,0,2,,,,,1,,,33,81
163968,note_on,,,,,0,0,2,,,,,1,,,33,127
163968,note_on,,,,,0,0,2,,,,,1,,,45,127
163968,note_on,,,,,128,0,2,,,,,1,,,57,127
164032,note_off,,,,,64,0,2,,,,,1,,,57,81
164032,note_off,,,,,0,0,2,,,,,1,,,33,81
164032,note_off,,,,,0,0,2,,,,,1,,,45,81
164036,note_off,,,,,0,0,2,,,,,1,,,33,81
164036,note_off,,,,,4,0,2,,,,,1,,,57,81
164036,note_off,,,,,0,0,2,,,,,1,,,45,81
164096,note_off,,,,,0,0,2,,,,,1,,,33,81
164096,note_off,,,,,60,0,2,,,,,1,,,57,81
164096,end_of_track,,,,,0,1,2,,,,,,,,,
164096,note_off,,,,,0,0,2,,,,,1,,,45,81
