tick,type,numerator,denominator,clocks_per_click,notated_32nd_notes_per_beat,time,meta,track,data,tempo,control,value,channel,program,key,note,velocity
0,control_change,,,,,0,0,1,,,0,0,0,,,,
0,key_signature,,,,,0,1,5,,,,,,,C,,
0,key_signature,,,,,0,1,6,,,,,,,C,,
0,key_signature,,,,,0,1,7,,,,,,,C,,
0,key_signature,,,,,0,1,8,,,,,,,C,,
0,key_signature,,,,,0,1,9,,,,,,,C,,
0,key_signature,,,,,0,1,10,,,,,,,C,,
0,track_name,,,,,0,1,2,,,,,,,,,
0,note_on,,,,,0,0,2,,,,,1,,,44,109
0,program_change,,,,,0,0,1,,,,,0,0,,,
0,program_change,,,,,0,0,2,,,,,1,0,,,
0,program_change,,,,,0,0,3,,,,,2,0,,,
0,sequencer_specific,,,,,0,1,0,"(0, 0, 65)",,,,,,,,
0,set_tempo,,,,,0,1,0,,500000,,,,,,,
0,time_signature,3,8,96,8,0,1,0,,,,,,,,,
0,track_name,,,,,0,1,1,,,,,,,,,
0,key_signature,,,,,0,1,4,,,,,,,C,,
0,key_signature,,,,,0,1,3,,,,,,,C,,
0,track_name,,,,,0,1,3,,,,,,,,,
0,key_signature,,,,,0,1,1,,,,,,,Db,,
0,key_signature,,,,,0,1,2,,,,,,,Db,,
0,control_change,,,,,0,0,3,,,91,60,2,,,,
0,control_change,,,,,0,0,3,,,0,0,2,,,,
0,control_change,,,,,0,0,2,,,91,59,1,,,,
0,control_change,,,,,0,0,2,,,0,0,1,,,,
0,end_of_track,,,,,0,1,0,,,,,,,,,
0,control_change,,,,,0,0,1,,,91,53,0,,,,
0,end_of_track,,,,,0,1,5,,,,,,,,,
0,end_of_track,,,,,0,1,6,,,,,,,,,
0,end_of_track,,,,,0,1,7,,,,,,,,,
0,end_of_track,,,,,0,1,8,,,,,,,,,
0,end_of_track,,,,,0,1,9,,,,,,,,,
0,end_of_track,,,,,0,1,10,,,,,,,,,
0,end_of_track,,,,,0,1,4,,,,,,,,,
192,note_on,,,,,0,0,2,,,,,1,,,56,109
192,note_on,,,,,192,0,2,,,,,1,,,60,109
192,note_on,,,,,0,0,2,,,,,1,,,54,109
256,note_off,,,,,64,0,2,,,,,1,,,44,69
320,note_off,,,,,0,0,2,,,,,1,,,56,69
320,note_off,,,,,64,0,2,,,,,1,,,60,69
320,note_off,,,,,0,0,2,,,,,1,,,54,69
384,note_on,,,,,0,0,2,,,,,1,,,56,109
384,note_on,,,,,0,0,2,,,,,1,,,60,109
384,note_on,,,,,384,0,1,,,,,0,,,64,112
384,note_on,,,,,64,0,2,,,,,1,,,54,109
512,note_off,,,,,0,0,2,,,,,1,,,60,69
512,note_off,,,,,0,0,2,,,,,1,,,56,69
512,note_off,,,,,128,0,2,,,,,1,,,54,69
576,note_on,,,,,0,0,2,,,,,1,,,54,109
576,note_on,,,,,0,0,2,,,,,1,,,56,109
576,note_on,,,,,64,0,2,,,,,1,,,60,109
704,note_off,,,,,0,0,2,,,,,1,,,56,69
704,note_off,,,,,0,0,2,,,,,1,,,54,69
704,note_off,,,,,128,0,2,,,,,1,,,60,69
768,note_on,,,,,64,0,2,,,,,1,,,60,109
768,note_on,,,,,0,0,2,,,,,1,,,56,109
768,note_on,,,,,0,0,2,,,,,1,,,54,109
896,note_off,,,,,128,0,2,,,,,1,,,60,69
896,note_off,,,,,0,0,2,,,,,1,,,56,69
896,note_off,,,,,0,0,2,,,,,1,,,54,69
960,note_on,,,,,0,0,2,,,,,1,,,56,109
960,note_on,,,,,0,0,2,,,,,1,,,54,109
960,note_on,,,,,64,0,2,,,,,1,,,60,109
1088,note_off,,,,,0,0,2,,,,,1,,,54,69
1088,note_off,,,,,0,0,2,,,,,1,,,56,69
1088,note_off,,,,,128,0,2,,,,,1,,,60,69
1152,note_on,,,,,64,0,2,,,,,1,,,44,109
1152,note_on,,,,,768,0,1,,,,,0,,,65,112
1344,note_on,,,,,192,0,2,,,,,1,,,60,109
1344,note_on,,,,,0,0,2,,,,,1,,,56,109
1344,note_on,,,,,0,0,2,,,,,1,,,54,109
1408,note_off,,,,,64,0,2,,,,,1,,,44,69
1412,note_off,,,,,260,0,1,,,,,0,,,64,71
1472,note_off,,,,,64,0,2,,,,,1,,,60,69
1472,note_off,,,,,0,0,2,,,,,1,,,54,69
1472,note_off,,,,,0,0,2,,,,,1,,,56,69
1536,note_on,,,,,64,0,2,,,,,1,,,60,109
1536,note_on,,,,,124,0,1,,,,,0,,,70,112
1536,note_on,,,,,0,0,2,,,,,1,,,54,109
1536,note_on,,,,,0,0,2,,,,,1,,,56,109
1664,note_off,,,,,0,0,2,,,,,1,,,56,69
1664,note_off,,,,,0,0,2,,,,,1,,,54,69
1664,note_off,,,,,128,0,2,,,,,1,,,60,69
1728,note_on,,,,,0,0,1,,,,,0,,,70,112
1728,note_on,,,,,0,0,2,,,,,1,,,56,109
1728,note_on,,,,,0,0,2,,,,,1,,,54,109
1728,note_on,,,,,64,0,2,,,,,1,,,60,109
1728,note_on,,,,,192,0,1,,,,,0,,,70,112
1856,note_off,,,,,0,0,2,,,,,1,,,56,69
1856,note_off,,,,,0,0,2,,,,,1,,,54,69
1856,note_off,,,,,128,0,2,,,,,1,,,60,69
1920,note_on,,,,,64,0,2,,,,,1,,,60,109
1920,note_on,,,,,0,0,2,,,,,1,,,54,109
1920,note_on,,,,,0,0,2,,,,,1,,,56,109
1984,note_off,,,,,256,0,1,,,,,0,,,70,71
2048,note_off,,,,,64,0,1,,,,,0,,,70,71
2048,note_off,,,,,0,0,2,,,,,1,,,54,69
2048,note_off,,,,,128,0,2,,,,,1,,,60,69
2048,note_off,,,,,0,0,2,,,,,1,,,56,69
2112,note_on,,,,,64,0,1,,,,,0,,,64,112
2112,note_on,,,,,0,0,2,,,,,1,,,56,109
2112,note_on,,,,,64,0,2,,,,,1,,,60,109
2112,note_on,,,,,0,0,2,,,,,1,,,54,109
2180,note_off,,,,,68,0,1,,,,,0,,,65,71
2240,note_off,,,,,0,0,2,,,,,1,,,54,69
2240,note_off,,,,,60,0,1,,,,,0,,,70,71
2240,note_off,,,,,128,0,2,,,,,1,,,60,69
2240,note_off,,,,,0,0,2,,,,,1,,,56,69
2304,note_on,,,,,64,0,1,,,,,0,,,64,112
2304,note_on,,,,,64,0,2,,,,,1,,,37,109
2496,note_on,,,,,0,0,2,,,,,1,,,56,109
2496,note_on,,,,,0,0,2,,,,,1,,,61,109
2496,note_on,,,,,192,0,2,,,,,1,,,53,109
2560,note_off,,,,,64,0,2,,,,,1,,,37,69
2624,note_off,,,,,320,0,1,,,,,0,,,64,71
2624,note_off,,,,,0,0,2,,,,,1,,,61,69
2624,note_off,,,,,0,0,2,,,,,1,,,56,69
2624,note_off,,,,,64,0,2,,,,,1,,,53,69
2688,note_on,,,,,64,0,1,,,,,0,,,65,112
2688,note_on,,,,,64,0,2,,,,,1,,,53,109
2688,note_on,,,,,0,0,2,,,,,1,,,61,109
2688,note_on,,,,,0,0,2,,,,,1,,,56,109
2816,note_off,,,,,128,0,1,,,,,0,,,64,71
2816,note_off,,,,,0,0,2,,,,,1,,,56,69
2816,note_off,,,,,0,0,2,,,,,1,,,61,69
2816,note_off,,,,,128,0,2,,,,,1,,,53,69
2880,note_on,,,,,64,0,1,,,,,0,,,57,112
3072,note_on,,,,,0,0,2,,,,,1,,,61,109
3072,note_on,,,,,256,0,2,,,,,1,,,53,109
3200,note_off,,,,,128,0,2,,,,,1,,,53,69
3200,note_off,,,,,320,0,1,,,,,0,,,65,71
3200,note_off,,,,,0,0,2,,,,,1,,,61,69
3264,note_on,,,,,64,0,2,,,,,1,,,53,109
3264,note_on,,,,,0,0,2,,,,,1,,,61,109
3264,note_on,,,,,64,0,1,,,,,0,,,57,112
3392,note_off,,,,,128,0,2,,,,,1,,,53,69
3392,note_off,,,,,128,0,1,,,,,0,,,57,71
3392,note_off,,,,,0,0,2,,,,,1,,,61,69
3456,note_on,,,,,64,0,1,,,,,0,,,57,112
3648,note_on,,,,,256,0,2,,,,,1,,,53,109
3648,note_on,,,,,0,0,2,,,,,1,,,61,109
3776,note_off,,,,,0,0,2,,,,,1,,,61,69
3776,note_off,,,,,320,0,1,,,,,0,,,57,71
3776,note_off,,,,,128,0,2,,,,,1,,,53,69
3840,note_on,,,,,64,0,2,,,,,1,,,53,109
3840,note_on,,,,,0,0,2,,,,,1,,,61,109
3840,note_on,,,,,64,0,1,,,,,0,,,57,112
3936,note_on,,,,,96,0,1,,,,,0,,,57,112
3968,note_off,,,,,128,0,2,,,,,1,,,53,69
3968,note_off,,,,,32,0,1,,,,,0,,,57,71
3968,note_off,,,,,0,0,2,,,,,1,,,61,69
4032,note_on,,,,,64,0,1,,,,,0,,,65,112
4032,note_on,,,,,64,0,2,,,,,1,,,49,109
4064,note_off,,,,,32,0,1,,,,,0,,,57,71
4096,note_off,,,,,32,0,1,,,,,0,,,57,71
4224,note_on,,,,,0,0,2,,,,,1,,,56,109
4224,note_on,,,,,192,0,2,,,,,1,,,53,109
4224,note_on,,,,,0,0,2,,,,,1,,,61,109
4288,note_off,,,,,64,0,2,,,,,1,,,49,69
4352,note_off,,,,,0,0,2,,,,,1,,,56,69
4352,note_off,,,,,0,0,2,,,,,1,,,61,69
4352,note_off,,,,,64,0,2,,,,,1,,,53,69
4416,note_on,,,,,0,0,2,,,,,1,,,56,109
4416,note_on,,,,,64,0,2,,,,,1,,,53,109
4416,note_on,,,,,0,0,2,,,,,1,,,61,109
4544,note_off,,,,,128,0,2,,,,,1,,,53,69
4544,note_off,,,,,0,0,2,,,,,1,,,61,69
4544,note_off,,,,,0,0,2,,,,,1,,,56,69
4608,note_on,,,,,64,0,2,,,,,1,,,44,109
4800,note_on,,,,,0,0,2,,,,,1,,,60,109
4800,note_on,,,,,192,0,2,,,,,1,,,54,109
4800,note_off,,,,,704,0,1,,,,,0,,,65,71
4800,note_on,,,,,0,0,2,,,,,1,,,56,109
4864,note_off,,,,,64,0,2,,,,,1,,,44,69
4928,note_off,,,,,0,0,2,,,,,1,,,56,69
4928,note_off,,,,,0,0,2,,,,,1,,,60,69
4928,note_off,,,,,64,0,2,,,,,1,,,54,69
4992,note_on,,,,,64,0,2,,,,,1,,,60,109
4992,note_on,,,,,192,0,1,,,,,0,,,64,112
4992,note_on,,,,,0,0,2,,,,,1,,,54,109
4992,note_on,,,,,0,0,2,,,,,1,,,56,109
5120,note_off,,,,,128,0,2,,,,,1,,,60,69
5120,note_off,,,,,0,0,2,,,,,1,,,54,69
5120,note_off,,,,,0,0,2,,,,,1,,,56,69
5184,note_on,,,,,0,0,2,,,,,1,,,54,109
5184,note_on,,,,,64,0,2,,,,,1,,,60,109
5184,note_on,,,,,0,0,2,,,,,1,,,56,109
5312,note_off,,,,,0,0,2,,,,,1,,,56,69
5312,note_off,,,,,0,0,2,,,,,1,,,54,69
5312,note_off,,,,,128,0,2,,,,,1,,,60,69
5376,note_on,,,,,64,0,2,,,,,1,,,60,109
5376,note_on,,,,,0,0,2,,,,,1,,,56,109
5376,note_on,,,,,0,0,2,,,,,1,,,54,109
5504,note_off,,,,,0,0,2,,,,,1,,,56,69
5504,note_off,,,,,128,0,2,,,,,1,,,60,69
5504,note_off,,,,,0,0,2,,,,,1,,,54,69
5568,note_on,,,,,64,0,2,,,,,1,,,60,109
5568,note_on,,,,,576,0,1,,,,,0,,,65,112
5568,note_on,,,,,0,0,2,,,,,1,,,54,109
5568,note_on,,,,,0,0,2,,,,,1,,,56,109
5696,note_off,,,,,128,0,2,,,,,1,,,60,69
5696,note_off,,,,,0,0,2,,,,,1,,,54,69
5696,note_off,,,,,0,0,2,,,,,1,,,56,69
5760,note_on,,,,,64,0,2,,,,,1,,,44,109
5760,note_off,,,,,192,0,1,,,,,0,,,64,71
5952,note_on,,,,,192,0,2,,,,,1,,,60,109
5952,note_on,,,,,0,0,2,,,,,1,,,56,109
5952,note_on,,,,,0,0,2,,,,,1,,,54,109
6016,note_off,,,,,64,0,2,,,,,1,,,44,69
6080,note_off,,,,,64,0,2,,,,,1,,,60,69
6080,note_off,,,,,0,0,2,,,,,1,,,54,69
6080,note_off,,,,,0,0,2,,,,,1,,,56,69
6144,note_on,,,,,384,0,1,,,,,0,,,70,112
6144,note_on,,,,,64,0,2,,,,,1,,,60,109
6144,note_on,,,,,0,0,2,,,,,1,,,54,109
6144,note_on,,,,,0,0,2,,,,,1,,,56,109
6272,note_off,,,,,0,0,2,,,,,1,,,56,69
6272,note_off,,,,,0,0,2,,,,,1,,,54,69
6272,note_off,,,,,128,0,2,,,,,1,,,60,69
6336,note_off,,,,,192,0,1,,,,,0,,,65,71
6336,note_on,,,,,64,0,2,,,,,1,,,60,109
6336,note_on,,,,,0,0,2,,,,,1,,,56,109
6336,note_on,,,,,0,0,2,,,,,1,,,54,109
6464,note_off,,,,,0,0,2,,,,,1,,,56,69
6464,note_off,,,,,128,0,2,,,,,1,,,60,69
6464,note_off,,,,,0,0,2,,,,,1,,,54,69
6528,note_on,,,,,0,0,2,,,,,1,,,54,109
6528,note_on,,,,,0,0,2,,,,,1,,,56,109
6528,note_on,,,,,64,0,2,,,,,1,,,60,109
6656,note_off,,,,,0,0,2,,,,,1,,,54,69
6656,note_off,,,,,128,0,2,,,,,1,,,60,69
6656,note_off,,,,,0,0,2,,,,,1,,,56,69
6720,note_on,,,,,0,0,2,,,,,1,,,54,109
6720,note_on,,,,,0,0,2,,,,,1,,,56,109
6720,note_on,,,,,384,0,1,,,,,0,,,64,112
6720,note_on,,,,,64,0,2,,,,,1,,,60,109
6848,note_off,,,,,128,0,2,,,,,1,,,60,69
6848,note_off,,,,,0,0,2,,,,,1,,,54,69
6848,note_off,,,,,0,0,2,,,,,1,,,56,69
6912,note_on,,,,,64,0,2,,,,,1,,,37,109
6912,note_off,,,,,192,0,1,,,,,0,,,70,71
7104,note_on,,,,,0,0,2,,,,,1,,,56,109
7104,note_on,,,,,0,0,2,,,,,1,,,53,109
7104,note_on,,,,,192,0,2,,,,,1,,,61,109
7168,note_off,,,,,64,0,2,,,,,1,,,37,69
7232,note_off,,,,,0,0,2,,,,,1,,,56,69
7232,note_off,,,,,0,0,2,,,,,1,,,53,69
7232,note_off,,,,,64,0,2,,,,,1,,,61,69
7296,note_on,,,,,0,0,2,,,,,1,,,53,109
7296,note_on,,,,,384,0,1,,,,,0,,,65,112
7296,note_on,,,,,64,0,2,,,,,1,,,61,109
7296,note_on,,,,,0,0,2,,,,,1,,,56,109
7424,note_off,,,,,0,0,2,,,,,1,,,53,69
7424,note_off,,,,,0,0,2,,,,,1,,,56,69
7424,note_off,,,,,128,0,2,,,,,1,,,61,69
7488,note_off,,,,,192,0,1,,,,,0,,,64,71
7488,note_on,,,,,0,0,1,,,,,0,,,57,112
7616,note_off,,,,,128,0,1,,,,,0,,,57,71
7680,note_on,,,,,256,0,2,,,,,1,,,53,109
7680,note_on,,,,,0,0,2,,,,,1,,,61,109
7808,note_off,,,,,0,0,2,,,,,1,,,61,69
7808,note_off,,,,,128,0,2,,,,,1,,,53,69
7872,note_on,,,,,0,0,2,,,,,1,,,61,109
7872,note_on,,,,,256,0,1,,,,,0,,,57,112
7872,note_on,,,,,64,0,2,,,,,1,,,53,109
8000,note_off,,,,,0,0,2,,,,,1,,,61,69
8000,note_off,,,,,128,0,2,,,,,1,,,53,69
8000,note_off,,,,,128,0,1,,,,,0,,,57,71
8064,note_on,,,,,0,0,1,,,,,0,,,57,112
8064,note_off,,,,,64,0,1,,,,,0,,,65,71
8256,note_on,,,,,0,0,2,,,,,1,,,53,109
8256,note_on,,,,,256,0,2,,,,,1,,,61,109
8384,note_off,,,,,128,0,2,,,,,1,,,61,69
8384,note_off,,,,,0,0,2,,,,,1,,,53,69
8448,note_on,,,,,0,0,2,,,,,1,,,53,109
8448,note_on,,,,,64,0,2,,,,,1,,,61,109
8448,note_on,,,,,384,0,1,,,,,0,,,56,112
8544,note_on,,,,,96,0,1,,,,,0,,,56,112
8576,note_off,,,,,128,0,2,,,,,1,,,61,69
8576,note_off,,,,,32,0,1,,,,,0,,,56,71
8576,note_off,,,,,0,0,2,,,,,1,,,53,69
8640,note_on,,,,,64,0,1,,,,,0,,,65,112
8640,note_on,,,,,64,0,2,,,,,1,,,49,109
8672,note_off,,,,,32,0,1,,,,,0,,,57,71
8832,note_on,,,,,0,0,2,,,,,1,,,56,109
8832,note_off,,,,,160,0,1,,,,,0,,,56,71
8832,note_on,,,,,192,0,2,,,,,1,,,53,109
8832,note_on,,,,,0,0,2,,,,,1,,,61,109
8896,note_off,,,,,64,0,2,,,,,1,,,49,69
8960,note_off,,,,,0,0,2,,,,,1,,,56,69
8960,note_off,,,,,64,0,2,,,,,1,,,53,69
8960,note_off,,,,,0,0,2,,,,,1,,,61,69
9024,note_on,,,,,0,0,2,,,,,1,,,56,109
9024,note_on,,,,,64,0,2,,,,,1,,,53,109
9024,note_on,,,,,0,0,2,,,,,1,,,61,109
9024,note_off,,,,,192,0,1,,,,,0,,,65,71
9152,note_off,,,,,0,0,2,,,,,1,,,56,69
9152,note_off,,,,,128,0,2,,,,,1,,,53,69
9152,note_off,,,,,0,0,2,,,,,1,,,61,69
9216,note_on,,,,,64,0,2,,,,,1,,,47,109
9408,note_on,,,,,0,0,2,,,,,1,,,62,109
9408,note_on,,,,,192,0,2,,,,,1,,,53,109
9408,note_on,,,,,0,0,2,,,,,1,,,56,109
9472,note_off,,,,,64,0,2,,,,,1,,,47,69
9536,note_off,,,,,64,0,2,,,,,1,,,53,69
9536,note_off,,,,,0,0,2,,,,,1,,,56,69
9536,note_off,,,,,0,0,2,,,,,1,,,62,69
9600,note_on,,,,,576,0,1,,,,,0,,,64,112
9600,note_on,,,,,0,0,2,,,,,1,,,62,109
9600,note_on,,,,,0,0,2,,,,,1,,,56,109
9600,note_on,,,,,64,0,2,,,,,1,,,53,109
9728,note_off,,,,,0,0,2,,,,,1,,,62,69
9728,note_off,,,,,0,0,2,,,,,1,,,56,69
9728,note_off,,,,,128,0,2,,,,,1,,,53,69
9792,note_on,,,,,0,0,2,,,,,1,,,56,109
9792,note_on,,,,,0,0,2,,,,,1,,,53,109
9792,note_on,,,,,64,0,2,,,,,1,,,62,109
9920,note_off,,,,,0,0,2,,,,,1,,,56,69
9920,note_off,,,,,0,0,2,,,,,1,,,53,69
9920,note_off,,,,,128,0,2,,,,,1,,,62,69
9984,note_on,,,,,64,0,2,,,,,1,,,62,109
9984,note_on,,,,,0,0,2,,,,,1,,,56,109
9984,note_on,,,,,0,0,2,,,,,1,,,53,109
10112,note_off,,,,,128,0,2,,,,,1,,,62,69
10112,note_off,,,,,0,0,2,,,,,1,,,53,69
10112,note_off,,,,,0,0,2,,,,,1,,,56,69
10176,note_on,,,,,0,0,2,,,,,1,,,53,109
10176,note_on,,,,,0,0,2,,,,,1,,,56,109
10176,note_on,,,,,64,0,2,,,,,1,,,62,109
10176,note_on,,,,,576,0,1,,,,,0,,,65,112
10304,note_off,,,,,0,0,2,,,,,1,,,53,69
10304,note_off,,,,,128,0,2,,,,,1,,,62,69
10304,note_off,,,,,0,0,2,,,,,1,,,56,69
10368,note_off,,,,,192,0,1,,,,,0,,,64,71
10368,note_on,,,,,64,0,2,,,,,1,,,46,109
10560,note_on,,,,,0,0,2,,,,,1,,,56,109
10560,note_on,,,,,192,0,2,,,,,1,,,53,109
10560,note_on,,,,,0,0,2,,,,,1,,,62,109
10624,note_off,,,,,64,0,2,,,,,1,,,46,69
10688,note_off,,,,,0,0,2,,,,,1,,,56,69
10688,note_off,,,,,0,0,2,,,,,1,,,62,69
10688,note_off,,,,,64,0,2,,,,,1,,,53,69
10752,note_on,,,,,384,0,1,,,,,0,,,71,112
10752,note_on,,,,,0,0,2,,,,,1,,,56,109
10752,note_on,,,,,0,0,2,,,,,1,,,62,109
10752,note_on,,,,,64,0,2,,,,,1,,,53,109
10880,note_off,,,,,0,0,2,,,,,1,,,56,69
10880,note_off,,,,,0,0,2,,,,,1,,,62,69
10880,note_off,,,,,128,0,2,,,,,1,,,53,69
10944,note_on,,,,,64,0,2,,,,,1,,,53,109
10944,note_on,,,,,0,0,2,,,,,1,,,56,109
10944,note_on,,,,,0,0,2,,,,,1,,,62,109
10944,note_off,,,,,192,0,1,,,,,0,,,65,71
11072,note_off,,,,,128,0,2,,,,,1,,,53,69
11072,note_off,,,,,0,0,2,,,,,1,,,62,69
11072,note_off,,,,,0,0,2,,,,,1,,,56,69
11136,note_on,,,,,0,0,2,,,,,1,,,56,109
11136,note_on,,,,,0,0,2,,,,,1,,,62,109
11136,note_on,,,,,64,0,2,,,,,1,,,53,109
11264,note_off,,,,,128,0,2,,,,,1,,,53,69
11264,note_off,,,,,0,0,2,,,,,1,,,62,69
11264,note_off,,,,,0,0,2,,,,,1,,,56,69
11328,note_on,,,,,0,0,2,,,,,1,,,56,109
11328,note_on,,,,,0,0,2,,,,,1,,,62,109
11328,note_on,,,,,64,0,2,,,,,1,,,53,109
11328,note_on,,,,,384,0,1,,,,,0,,,65,112
11456,note_off,,,,,0,0,2,,,,,1,,,56,69
11456,note_off,,,,,0,0,2,,,,,1,,,62,69
11456,note_off,,,,,128,0,1,,,,,0,,,65,71
11456,note_off,,,,,128,0,2,,,,,1,,,53,69
11520,note_off,,,,,64,0,1,,,,,0,,,71,71
11520,note_on,,,,,0,0,1,,,,,0,,,65,112
11648,note_off,,,,,128,0,1,,,,,0,,,65,71
11712,note_on,,,,,256,0,2,,,,,1,,,54,109
11712,note_on,,,,,0,0,2,,,,,1,,,63,109
11712,note_on,,,,,0,0,2,,,,,1,,,58,109
11840,note_off,,,,,0,0,2,,,,,1,,,58,69
11840,note_off,,,,,0,0,2,,,,,1,,,63,69
11840,note_off,,,,,128,0,2,,,,,1,,,54,69
11904,note_on,,,,,0,0,2,,,,,1,,,58,109
11904,note_on,,,,,0,0,2,,,,,1,,,63,109
11904,note_on,,,,,256,0,1,,,,,0,,,66,112
11904,note_on,,,,,64,0,2,,,,,1,,,54,109
12032,note_off,,,,,0,0,2,,,,,1,,,63,69
12032,note_off,,,,,128,0,2,,,,,1,,,54,69
12032,note_off,,,,,0,0,2,,,,,1,,,58,69
12096,note_on,,,,,192,0,1,,,,,0,,,59,112
12224,note_off,,,,,128,0,1,,,,,0,,,59,71
12288,note_on,,,,,0,0,2,,,,,1,,,57,109
12288,note_on,,,,,256,0,2,,,,,1,,,54,109
12288,note_on,,,,,0,0,2,,,,,1,,,63,109
12416,note_off,,,,,0,0,2,,,,,1,,,57,69
12416,note_off,,,,,128,0,2,,,,,1,,,54,69
12416,note_off,,,,,0,0,2,,,,,1,,,63,69
12480,note_on,,,,,0,0,2,,,,,1,,,57,109
12480,note_on,,,,,0,0,2,,,,,1,,,63,109
12480,note_on,,,,,256,0,1,,,,,0,,,59,112
12480,note_on,,,,,64,0,2,,,,,1,,,54,109
12608,note_off,,,,,0,0,2,,,,,1,,,57,69
12608,note_off,,,,,0,0,2,,,,,1,,,63,69
12608,note_off,,,,,128,0,2,,,,,1,,,54,69
12608,note_off,,,,,128,0,1,,,,,0,,,59,71
12672,note_on,,,,,0,0,1,,,,,0,,,59,112
12672,note_off,,,,,64,0,1,,,,,0,,,66,71
12864,note_on,,,,,0,0,2,,,,,1,,,63,109
12864,note_on,,,,,256,0,2,,,,,1,,,54,109
12864,note_on,,,,,0,0,2,,,,,1,,,57,109
12928,note_off,,,,,256,0,1,,,,,0,,,59,71
12992,note_off,,,,,0,0,2,,,,,1,,,57,69
12992,note_off,,,,,128,0,2,,,,,1,,,54,69
12992,note_off,,,,,0,0,2,,,,,1,,,63,69
13056,note_on,,,,,0,0,2,,,,,1,,,57,109
13056,note_on,,,,,128,0,1,,,,,0,,,58,112
13056,note_on,,,,,64,0,2,,,,,1,,,54,109
13056,note_on,,,,,0,0,2,,,,,1,,,63,109
13152,note_on,,,,,96,0,1,,,,,0,,,58,112
13184,note_off,,,,,0,0,2,,,,,1,,,63,69
13184,note_off,,,,,32,0,1,,,,,0,,,58,71
13184,note_off,,,,,128,0,2,,,,,1,,,54,69
13184,note_off,,,,,0,0,2,,,,,1,,,57,69
13248,note_on,,,,,64,0,1,,,,,0,,,66,112
13248,note_on,,,,,64,0,2,,,,,1,,,51,109
13280,note_off,,,,,32,0,1,,,,,0,,,58,71
13440,note_on,,,,,192,0,2,,,,,1,,,54,109
13440,note_on,,,,,0,0,2,,,,,1,,,63,109
13440,note_on,,,,,0,0,2,,,,,1,,,58,109
13504,note_off,,,,,64,0,2,,,,,1,,,51,69
13568,note_off,,,,,64,0,2,,,,,1,,,54,69
13568,note_off,,,,,0,0,2,,,,,1,,,58,69
13568,note_off,,,,,0,0,2,,,,,1,,,63,69
13632,note_off,,,,,352,0,1,,,,,0,,,66,71
13632,note_on,,,,,0,0,2,,,,,1,,,63,109
13632,note_on,,,,,0,0,2,,,,,1,,,58,109
13632,note_on,,,,,64,0,2,,,,,1,,,54,109
13760,note_off,,,,,0,0,2,,,,,1,,,63,69
13760,note_off,,,,,0,0,2,,,,,1,,,58,69
13760,note_off,,,,,128,0,2,,,,,1,,,54,69
13824,note_on,,,,,64,0,2,,,,,1,,,47,109
14016,note_on,,,,,0,0,2,,,,,1,,,56,109
14016,note_on,,,,,0,0,2,,,,,1,,,62,109
14016,note_on,,,,,192,0,2,,,,,1,,,53,109
14080,note_off,,,,,64,0,2,,,,,1,,,47,69
14144,note_off,,,,,0,0,2,,,,,1,,,62,69
14144,note_off,,,,,0,0,2,,,,,1,,,56,69
14144,note_off,,,,,64,0,2,,,,,1,,,53,69
14208,note_on,,,,,64,0,2,,,,,1,,,53,109
14208,note_on,,,,,576,0,1,,,,,0,,,64,112
14208,note_on,,,,,0,0,2,,,,,1,,,56,109
14208,note_on,,,,,0,0,2,,,,,1,,,62,109
14336,note_off,,,,,128,0,2,,,,,1,,,53,69
14336,note_off,,,,,0,0,2,,,,,1,,,56,69
14336,note_off,,,,,0,0,2,,,,,1,,,62,69
14400,note_on,,,,,0,0,2,,,,,1,,,56,109
14400,note_on,,,,,0,0,2,,,,,1,,,62,109
14400,note_on,,,,,64,0,2,,,,,1,,,53,109
14528,note_off,,,,,128,0,2,,,,,1,,,53,69
14528,note_off,,,,,0,0,2,,,,,1,,,62,69
14528,note_off,,,,,0,0,2,,,,,1,,,56,69
14592,note_on,,,,,0,0,2,,,,,1,,,56,109
14592,note_on,,,,,64,0,2,,,,,1,,,53,109
14592,note_on,,,,,0,0,2,,,,,1,,,62,109
14720,note_off,,,,,0,0,2,,,,,1,,,62,69
14720,note_off,,,,,128,0,2,,,,,1,,,53,69
14720,note_off,,,,,0,0,2,,,,,1,,,56,69
14784,note_on,,,,,576,0,1,,,,,0,,,65,112
14784,note_on,,,,,0,0,2,,,,,1,,,62,109
14784,note_on,,,,,64,0,2,,,,,1,,,53,109
14784,note_on,,,,,0,0,2,,,,,1,,,56,109
14912,note_off,,,,,128,0,2,,,,,1,,,53,69
14912,note_off,,,,,0,0,2,,,,,1,,,62,69
14912,note_off,,,,,0,0,2,,,,,1,,,56,69
14976,note_off,,,,,192,0,1,,,,,0,,,64,71
14976,note_on,,,,,64,0,2,,,,,1,,,46,109
15168,note_on,,,,,0,0,2,,,,,1,,,56,109
15168,note_on,,,,,0,0,2,,,,,1,,,62,109
15168,note_on,,,,,192,0,2,,,,,1,,,53,109
15232,note_off,,,,,64,0,2,,,,,1,,,46,69
15296,note_off,,,,,0,0,2,,,,,1,,,62,69
15296,note_off,,,,,0,0,2,,,,,1,,,56,69
15296,note_off,,,,,64,0,2,,,,,1,,,53,69
15360,note_on,,,,,64,0,2,,,,,1,,,53,109
15360,note_on,,,,,384,0,1,,,,,0,,,71,112
15360,note_on,,,,,0,0,2,,,,,1,,,56,109
15360,note_on,,,,,0,0,2,,,,,1,,,62,109
15488,note_off,,,,,128,0,2,,,,,1,,,53,69
15488,note_off,,,,,0,0,2,,,,,1,,,62,69
15488,note_off,,,,,0,0,2,,,,,1,,,56,69
15552,note_on,,,,,0,0,2,,,,,1,,,56,109
15552,note_on,,,,,0,0,2,,,,,1,,,62,109
15552,note_on,,,,,64,0,2,,,,,1,,,53,109
15552,note_off,,,,,192,0,1,,,,,0,,,65,71
15680,note_off,,,,,0,0,2,,,,,1,,,62,69
15680,note_off,,,,,0,0,2,,,,,1,,,56,69
15680,note_off,,,,,128,0,2,,,,,1,,,53,69
15744,note_on,,,,,0,0,2,,,,,1,,,56,109
15744,note_on,,,,,0,0,2,,,,,1,,,62,109
15744,note_on,,,,,64,0,2,,,,,1,,,53,109
15872,note_off,,,,,0,0,2,,,,,1,,,62,69
15872,note_off,,,,,0,0,2,,,,,1,,,56,69
15872,note_off,,,,,128,0,2,,,,,1,,,53,69
15936,note_on,,,,,0,0,2,,,,,1,,,62,109
15936,note_on,,,,,64,0,2,,,,,1,,,53,109
15936,note_on,,,,,384,0,1,,,,,0,,,65,112
15936,note_on,,,,,0,0,2,,,,,1,,,56,109
16064,note_off,,,,,0,0,2,,,,,1,,,62,69
16064,note_off,,,,,0,0,2,,,,,1,,,56,69
16064,note_off,,,,,128,0,2,,,,,1,,,53,69
16128,note_on,,,,,64,0,2,,,,,1,,,39,109
16128,note_off,,,,,192,0,1,,,,,0,,,71,71
16320,note_on,,,,,0,0,2,,,,,1,,,63,109
16320,note_on,,,,,192,0,2,,,,,1,,,54,109
16320,note_on,,,,,0,0,2,,,,,1,,,58,109
16384,note_off,,,,,64,0,2,,,,,1,,,39,69
16448,note_off,,,,,64,0,2,,,,,1,,,54,69
16448,note_off,,,,,0,0,2,,,,,1,,,63,69
16448,note_off,,,,,0,0,2,,,,,1,,,58,69
16512,note_on,,,,,64,0,2,,,,,1,,,54,109
16512,note_on,,,,,0,0,2,,,,,1,,,63,109
16512,note_on,,,,,0,0,2,,,,,1,,,58,109
16512,note_on,,,,,384,0,1,,,,,0,,,66,112
16640,note_off,,,,,128,0,2,,,,,1,,,54,69
16640,note_off,,,,,0,0,2,,,,,1,,,63,69
16640,note_off,,,,,0,0,2,,,,,1,,,58,69
16704,note_off,,,,,192,0,1,,,,,0,,,65,71
16704,note_on,,,,,0,0,1,,,,,0,,,59,112
16896,note_on,,,,,0,0,2,,,,,1,,,57,109
16896,note_on,,,,,0,0,2,,,,,1,,,54,109
16896,note_on,,,,,256,0,2,,,,,1,,,63,109
17024,note_off,,,,,0,0,2,,,,,1,,,57,69
17024,note_off,,,,,0,0,2,,,,,1,,,54,69
17024,note_off,,,,,128,0,2,,,,,1,,,63,69
17088,note_on,,,,,64,0,2,,,,,1,,,63,109
17088,note_off,,,,,384,0,1,,,,,0,,,59,71
17088,note_on,,,,,0,0,2,,,,,1,,,54,109
17088,note_on,,,,,0,0,1,,,,,0,,,59,112
17088,note_on,,,,,0,0,2,,,,,1,,,57,109
17216,note_off,,,,,128,0,1,,,,,0,,,59,71
17216,note_off,,,,,0,0,2,,,,,1,,,54,69
17216,note_off,,,,,128,0,2,,,,,1,,,63,69
17216,note_off,,,,,0,0,2,,,,,1,,,57,69
17280,note_on,,,,,0,0,1,,,,,0,,,59,112
17280,note_off,,,,,64,0,1,,,,,0,,,66,71
17472,note_on,,,,,256,0,2,,,,,1,,,63,109
17472,note_on,,,,,0,0,2,,,,,1,,,57,109
17472,note_on,,,,,0,0,2,,,,,1,,,54,109
17536,note_off,,,,,256,0,1,,,,,0,,,59,71
17600,note_off,,,,,128,0,2,,,,,1,,,63,69
17600,note_off,,,,,0,0,2,,,,,1,,,54,69
17600,note_off,,,,,0,0,2,,,,,1,,,57,69
17664,note_on,,,,,128,0,1,,,,,0,,,58,112
17664,note_on,,,,,0,0,2,,,,,1,,,54,109
17664,note_on,,,,,64,0,2,,,,,1,,,63,109
17760,note_on,,,,,96,0,1,,,,,0,,,58,112
17792,note_off,,,,,32,0,1,,,,,0,,,58,71
17792,note_off,,,,,128,0,2,,,,,1,,,63,69
17792,note_off,,,,,0,0,2,,,,,1,,,54,69
17856,note_on,,,,,64,0,1,,,,,0,,,66,112
17856,note_on,,,,,64,0,2,,,,,1,,,51,109
17888,note_off,,,,,32,0,1,,,,,0,,,58,71
18048,note_on,,,,,192,0,2,,,,,1,,,54,109
18048,note_on,,,,,0,0,2,,,,,1,,,63,109
18048,note_on,,,,,0,0,2,,,,,1,,,58,109
18112,note_off,,,,,64,0,2,,,,,1,,,51,69
18176,note_off,,,,,0,0,2,,,,,1,,,63,69
18176,note_off,,,,,64,0,2,,,,,1,,,54,69
18176,note_off,,,,,0,0,2,,,,,1,,,58,69
18240,note_on,,,,,0,0,2,,,,,1,,,63,109
18240,note_on,,,,,0,0,2,,,,,1,,,58,109
18240,note_on,,,,,64,0,2,,,,,1,,,54,109
18368,note_off,,,,,128,0,2,,,,,1,,,54,69
18368,note_off,,,,,0,0,2,,,,,1,,,63,69
18368,note_off,,,,,0,0,2,,,,,1,,,58,69
18368,note_off,,,,,480,0,1,,,,,0,,,66,71
18432,note_on,,,,,64,0,2,,,,,1,,,48,109
18624,note_on,,,,,192,0,2,,,,,1,,,58,109
18624,note_on,,,,,0,0,2,,,,,1,,,63,109
18688,note_off,,,,,64,0,2,,,,,1,,,48,69
18752,note_off,,,,,0,0,2,,,,,1,,,63,69
18752,note_off,,,,,64,0,2,,,,,1,,,58,69
18816,note_on,,,,,64,0,2,,,,,1,,,58,109
18816,note_on,,,,,448,0,1,,,,,0,,,66,112
18816,note_on,,,,,0,0,2,,,,,1,,,63,109
18944,note_off,,,,,128,0,2,,,,,1,,,58,69
18944,note_off,,,,,0,0,2,,,,,1,,,63,69
19008,note_on,,,,,0,0,2,,,,,1,,,63,109
19008,note_on,,,,,0,0,2,,,,,1,,,66,109
19008,note_on,,,,,64,0,2,,,,,1,,,58,109
19008,note_on,,,,,192,0,1,,,,,0,,,73,112
19136,note_off,,,,,128,0,1,,,,,0,,,73,71
19136,note_off,,,,,128,0,2,,,,,1,,,58,69
19136,note_off,,,,,0,0,2,,,,,1,,,63,69
19136,note_off,,,,,0,0,2,,,,,1,,,66,69
19200,note_on,,,,,64,0,2,,,,,1,,,58,109
19200,note_on,,,,,0,0,2,,,,,1,,,63,109
19200,note_on,,,,,0,0,2,,,,,1,,,66,109
19328,note_off,,,,,128,0,2,,,,,1,,,58,69
19328,note_off,,,,,0,0,2,,,,,1,,,63,69
19328,note_off,,,,,0,0,2,,,,,1,,,66,69
19392,note_on,,,,,0,0,2,,,,,1,,,63,109
19392,note_on,,,,,0,0,2,,,,,1,,,66,109
19392,note_on,,,,,64,0,2,,,,,1,,,58,109
19392,note_on,,,,,256,0,1,,,,,0,,,73,112
19520,note_off,,,,,0,0,2,,,,,1,,,63,69
19520,note_off,,,,,128,0,1,,,,,0,,,73,71
19520,note_off,,,,,0,0,2,,,,,1,,,66,69
19520,note_off,,,,,128,0,2,,,,,1,,,58,69
19584,note_on,,,,,0,0,1,,,,,0,,,73,112
19584,note_on,,,,,64,0,2,,,,,1,,,41,109
19584,note_off,,,,,64,0,1,,,,,0,,,66,71
19776,note_on,,,,,192,0,2,,,,,1,,,57,109
19776,note_on,,,,,192,0,1,,,,,0,,,73,112
19776,note_on,,,,,0,0,2,,,,,1,,,63,109
19776,note_on,,,,,0,0,2,,,,,1,,,66,109
19840,note_off,,,,,64,0,2,,,,,1,,,41,69
19904,note_off,,,,,0,0,2,,,,,1,,,63,69
19904,note_off,,,,,64,0,2,,,,,1,,,57,69
19904,note_off,,,,,0,0,2,,,,,1,,,66,69
19968,note_on,,,,,64,0,2,,,,,1,,,57,109
19968,note_on,,,,,0,0,2,,,,,1,,,66,109
19968,note_on,,,,,0,0,2,,,,,1,,,63,109
20096,note_off,,,,,0,0,2,,,,,1,,,66,69
20096,note_off,,,,,128,0,2,,,,,1,,,57,69
20096,note_off,,,,,0,0,2,,,,,1,,,63,69
20160,note_off,,,,,384,0,1,,,,,0,,,73,71
20160,note_on,,,,,0,0,2,,,,,1,,,66,109
20160,note_on,,,,,0,0,2,,,,,1,,,63,109
20160,note_on,,,,,64,0,2,,,,,1,,,57,109
20288,note_off,,,,,0,0,2,,,,,1,,,66,69
20288,note_off,,,,,0,0,2,,,,,1,,,63,69
20288,note_off,,,,,128,0,2,,,,,1,,,57,69
20352,note_on,,,,,64,0,2,,,,,1,,,57,109
20352,note_on,,,,,0,0,2,,,,,1,,,66,109
20352,note_on,,,,,0,0,2,,,,,1,,,63,109
20448,note_on,,,,,288,0,1,,,,,0,,,72,112
20480,note_off,,,,,128,0,2,,,,,1,,,57,69
20480,note_off,,,,,0,0,2,,,,,1,,,63,69
20480,note_off,,,,,0,0,2,,,,,1,,,66,69
20544,note_on,,,,,0,0,2,,,,,1,,,66,109
20544,note_on,,,,,0,0,2,,,,,1,,,63,109
20544,note_on,,,,,64,0,2,,,,,1,,,57,109
20672,note_off,,,,,0,0,2,,,,,1,,,63,69
20672,note_off,,,,,0,0,2,,,,,1,,,66,69
20672,note_off,,,,,128,0,2,,,,,1,,,57,69
20704,note_off,,,,,256,0,1,,,,,0,,,72,71
20736,note_on,,,,,64,0,2,,,,,1,,,46,109
20928,note_on,,,,,192,0,2,,,,,1,,,56,109
20928,note_on,,,,,0,0,2,,,,,1,,,65,109
20928,note_on,,,,,0,0,2,,,,,1,,,63,109
20992,note_off,,,,,64,0,2,,,,,1,,,46,69
21056,note_off,,,,,64,0,2,,,,,1,,,56,69
21056,note_off,,,,,0,0,2,,,,,1,,,63,69
21056,note_off,,,,,0,0,2,,,,,1,,,65,69
21120,note_on,,,,,416,0,1,,,,,0,,,72,112
21120,note_on,,,,,0,0,1,,,,,0,,,84,112
21120,note_on,,,,,64,0,2,,,,,1,,,56,109
21120,note_on,,,,,0,0,2,,,,,1,,,65,109
21120,note_on,,,,,0,0,2,,,,,1,,,63,109
21124,note_off,,,,,4,0,1,,,,,0,,,73,71
21248,note_off,,,,,0,0,2,,,,,1,,,63,69
21248,note_off,,,,,124,0,1,,,,,0,,,72,71
21248,note_off,,,,,128,0,2,,,,,1,,,56,69
21248,note_off,,,,,0,0,2,,,,,1,,,65,69
21312,note_on,,,,,64,0,2,,,,,1,,,56,109
21312,note_on,,,,,0,0,2,,,,,1,,,63,109
21312,note_on,,,,,0,0,2,,,,,1,,,65,109
21312,note_on,,,,,64,0,1,,,,,0,,,77,112
21440,note_off,,,,,128,0,2,,,,,1,,,56,69
21440,note_off,,,,,0,0,2,,,,,1,,,65,69
21440,note_off,,,,,128,0,1,,,,,0,,,77,71
21440,note_off,,,,,0,0,2,,,,,1,,,63,69
21504,note_on,,,,,64,0,1,,,,,0,,,83,112
21504,note_on,,,,,64,0,2,,,,,1,,,56,109
21504,note_on,,,,,0,0,2,,,,,1,,,65,109
21504,note_on,,,,,0,0,2,,,,,1,,,63,109
21504,note_on,,,,,0,0,1,,,,,0,,,71,112
21632,note_off,,,,,0,0,2,,,,,1,,,63,69
21632,note_off,,,,,0,0,2,,,,,1,,,65,69
21632,note_off,,,,,128,0,2,,,,,1,,,56,69
21696,note_on,,,,,0,0,1,,,,,0,,,83,112
21696,note_on,,,,,0,0,2,,,,,1,,,63,109
21696,note_on,,,,,0,0,2,,,,,1,,,65,109
21696,note_on,,,,,64,0,2,,,,,1,,,56,109
21696,note_on,,,,,192,0,1,,,,,0,,,71,112
21760,note_off,,,,,0,0,1,,,,,0,,,71,71
21760,note_off,,,,,64,0,1,,,,,0,,,83,71
21824,note_off,,,,,64,0,1,,,,,0,,,71,71
21824,note_off,,,,,0,0,2,,,,,1,,,63,69
21824,note_off,,,,,0,0,2,,,,,1,,,65,69
21824,note_off,,,,,0,0,1,,,,,0,,,83,71
21824,note_off,,,,,128,0,2,,,,,1,,,56,69
21888,note_on,,,,,0,0,2,,,,,1,,,65,109
21888,note_on,,,,,0,0,2,,,,,1,,,62,109
21888,note_on,,,,,64,0,2,,,,,1,,,56,109
21888,note_off,,,,,64,0,1,,,,,0,,,84,71
22016,note_off,,,,,0,0,2,,,,,1,,,65,69
22016,note_off,,,,,0,0,2,,,,,1,,,62,69
22016,note_off,,,,,128,0,2,,,,,1,,,56,69
22080,note_on,,,,,0,0,2,,,,,1,,,62,109
22080,note_on,,,,,0,0,2,,,,,1,,,65,109
22080,note_on,,,,,64,0,2,,,,,1,,,56,109
22208,note_off,,,,,0,0,2,,,,,1,,,65,69
22208,note_off,,,,,0,0,2,,,,,1,,,62,69
22208,note_off,,,,,128,0,2,,,,,1,,,56,69
22272,note_on,,,,,0,0,2,,,,,1,,,62,109
22272,note_on,,,,,0,0,2,,,,,1,,,65,109
22272,note_on,,,,,384,0,1,,,,,0,,,71,112
22272,note_on,,,,,0,0,1,,,,,0,,,83,112
22272,note_on,,,,,64,0,2,,,,,1,,,56,109
22400,note_off,,,,,0,0,2,,,,,1,,,62,69
22400,note_off,,,,,0,0,2,,,,,1,,,65,69
22400,note_off,,,,,128,0,2,,,,,1,,,56,69
22464,note_on,,,,,64,0,2,,,,,1,,,56,109
22464,note_on,,,,,0,0,2,,,,,1,,,65,109
22464,note_on,,,,,0,0,2,,,,,1,,,62,109
22592,note_off,,,,,128,0,2,,,,,1,,,56,69
22592,note_off,,,,,0,0,2,,,,,1,,,62,69
22592,note_off,,,,,0,0,2,,,,,1,,,65,69
22656,note_on,,,,,0,0,2,,,,,1,,,65,109
22656,note_on,,,,,0,0,2,,,,,1,,,62,109
22656,note_on,,,,,64,0,2,,,,,1,,,56,109
22784,note_off,,,,,0,0,2,,,,,1,,,65,69
22784,note_off,,,,,128,0,2,,,,,1,,,56,69
22784,note_off,,,,,0,0,2,,,,,1,,,62,69
22848,note_on,,,,,64,0,2,,,,,1,,,56,109
22848,note_on,,,,,0,0,2,,,,,1,,,65,109
22848,note_on,,,,,576,0,1,,,,,0,,,82,112
22848,note_on,,,,,0,0,2,,,,,1,,,62,109
22848,note_on,,,,,0,0,1,,,,,0,,,70,112
22976,note_off,,,,,0,0,2,,,,,1,,,62,69
22976,note_off,,,,,0,0,2,,,,,1,,,65,69
22976,note_off,,,,,128,0,2,,,,,1,,,56,69
23040,note_on,,,,,64,0,2,,,,,1,,,46,109
23040,note_off,,,,,0,0,1,,,,,0,,,83,71
23040,note_off,,,,,192,0,1,,,,,0,,,71,71
23104,note_off,,,,,0,0,1,,,,,0,,,70,71
23104,note_off,,,,,64,0,1,,,,,0,,,82,71
23232,note_on,,,,,0,0,2,,,,,1,,,61,109
23232,note_on,,,,,192,0,2,,,,,1,,,56,109
23296,note_off,,,,,64,0,2,,,,,1,,,46,69
23360,note_off,,,,,0,0,2,,,,,1,,,61,69
23360,note_off,,,,,64,0,2,,,,,1,,,56,69
23424,note_on,,,,,0,0,2,,,,,1,,,61,109
23424,note_on,,,,,64,0,2,,,,,1,,,56,109
23424,note_on,,,,,320,0,1,,,,,0,,,64,112
23552,note_off,,,,,128,0,2,,,,,1,,,56,69
23552,note_off,,,,,0,0,2,,,,,1,,,61,69
23552,note_off,,,,,128,0,1,,,,,0,,,64,71
23616,note_on,,,,,64,0,1,,,,,0,,,71,112
23616,note_on,,,,,0,0,2,,,,,1,,,58,109
23616,note_on,,,,,64,0,2,,,,,1,,,64,109
23616,note_on,,,,,0,0,2,,,,,1,,,61,109
23744,note_off,,,,,0,0,2,,,,,1,,,61,69
23744,note_off,,,,,128,0,2,,,,,1,,,64,69
23808,note_on,,,,,0,0,2,,,,,1,,,61,109
23808,note_on,,,,,0,0,2,,,,,1,,,64,109
23808,note_on,,,,,64,0,2,,,,,1,,,56,109
23872,note_off,,,,,256,0,1,,,,,0,,,71,71
23872,note_off,,,,,64,0,2,,,,,1,,,58,69
23936,note_off,,,,,64,0,2,,,,,1,,,56,69
23936,note_off,,,,,0,0,2,,,,,1,,,61,69
23936,note_off,,,,,0,0,2,,,,,1,,,64,69
24000,note_on,,,,,0,0,2,,,,,1,,,64,109
24000,note_on,,,,,128,0,1,,,,,0,,,71,112
24000,note_on,,,,,64,0,2,,,,,1,,,56,109
24000,note_on,,,,,0,0,2,,,,,1,,,61,109
24128,note_off,,,,,128,0,1,,,,,0,,,71,71
24128,note_off,,,,,0,0,2,,,,,1,,,61,69
24128,note_off,,,,,128,0,2,,,,,1,,,56,69
24128,note_off,,,,,0,0,2,,,,,1,,,64,69
24192,note_on,,,,,64,0,2,,,,,1,,,39,109
24192,note_on,,,,,64,0,1,,,,,0,,,71,112
24384,note_on,,,,,0,0,2,,,,,1,,,61,109
24384,note_on,,,,,0,0,2,,,,,1,,,64,109
24384,note_on,,,,,192,0,2,,,,,1,,,55,109
24448,note_off,,,,,64,0,2,,,,,1,,,39,69
24512,note_off,,,,,0,0,2,,,,,1,,,61,69
24512,note_off,,,,,0,0,2,,,,,1,,,64,69
24512,note_off,,,,,64,0,2,,,,,1,,,55,69
24576,note_on,,,,,0,0,2,,,,,1,,,64,109
24576,note_off,,,,,384,0,1,,,,,0,,,71,71
24576,note_on,,,,,0,0,2,,,,,1,,,61,109
24576,note_on,,,,,64,0,2,,,,,1,,,55,109
24704,note_off,,,,,0,0,2,,,,,1,,,61,69
24704,note_off,,,,,0,0,2,,,,,1,,,64,69
24704,note_off,,,,,128,0,2,,,,,1,,,55,69
24768,note_on,,,,,64,0,2,,,,,1,,,55,109
24768,note_on,,,,,0,0,2,,,,,1,,,61,109
24768,note_on,,,,,0,0,2,,,,,1,,,64,109
24768,note_on,,,,,192,0,1,,,,,0,,,71,112
25152,note_on,,,,,0,0,1,,,,,0,,,70,112
25152,note_off,,,,,384,0,1,,,,,0,,,71,71
25280,note_off,,,,,128,0,1,,,,,0,,,70,71
25344,note_on,,,,,576,0,2,,,,,1,,,44,109
25536,note_on,,,,,0,0,2,,,,,1,,,63,109
25536,note_on,,,,,0,0,2,,,,,1,,,54,109
25536,note_off,,,,,0,0,2,,,,,1,,,55,69
25536,note_off,,,,,192,0,2,,,,,1,,,61,69
25536,note_on,,,,,0,0,2,,,,,1,,,61,109
25536,note_off,,,,,0,0,2,,,,,1,,,64,69
25600,note_off,,,,,64,0,2,,,,,1,,,44,69
25664,note_off,,,,,0,0,2,,,,,1,,,63,69
25664,note_off,,,,,0,0,2,,,,,1,,,61,69
25664,note_off,,,,,64,0,2,,,,,1,,,54,69
25728,note_on,,,,,448,0,1,,,,,0,,,70,112
25728,note_on,,,,,0,0,1,,,,,0,,,82,112
25728,note_on,,,,,64,0,2,,,,,1,,,54,109
25728,note_on,,,,,0,0,2,,,,,1,,,61,109
25728,note_on,,,,,0,0,2,,,,,1,,,63,109
25856,note_off,,,,,128,0,1,,,,,0,,,70,71
25856,note_off,,,,,0,0,2,,,,,1,,,61,69
25856,note_off,,,,,0,0,1,,,,,0,,,82,71
25856,note_off,,,,,128,0,2,,,,,1,,,54,69
25856,note_off,,,,,0,0,2,,,,,1,,,63,69
25920,note_on,,,,,0,0,2,,,,,1,,,61,109
25920,note_on,,,,,64,0,1,,,,,0,,,75,112
25920,note_on,,,,,0,0,2,,,,,1,,,63,109
25920,note_on,,,,,64,0,2,,,,,1,,,54,109
26048,note_off,,,,,128,0,1,,,,,0,,,75,71
26048,note_off,,,,,0,0,2,,,,,1,,,63,69
26048,note_off,,,,,0,0,2,,,,,1,,,61,69
26048,note_off,,,,,128,0,2,,,,,1,,,54,69
26112,note_on,,,,,64,0,2,,,,,1,,,54,109
26112,note_on,,,,,0,0,2,,,,,1,,,61,109
26112,note_on,,,,,0,0,2,,,,,1,,,63,109
26240,note_off,,,,,0,0,2,,,,,1,,,61,69
26240,note_off,,,,,0,0,2,,,,,1,,,63,69
26240,note_off,,,,,128,0,2,,,,,1,,,54,69
26304,note_on,,,,,0,0,2,,,,,1,,,61,109
26304,note_on,,,,,64,0,2,,,,,1,,,54,109
26304,note_on,,,,,0,0,2,,,,,1,,,63,109
26304,note_on,,,,,256,0,1,,,,,0,,,69,112
26304,note_on,,,,,0,0,1,,,,,0,,,81,112
26432,note_off,,,,,128,0,1,,,,,0,,,69,71
26432,note_off,,,,,0,0,2,,,,,1,,,63,69
26432,note_off,,,,,0,0,1,,,,,0,,,81,71
26432,note_off,,,,,0,0,2,,,,,1,,,61,69
26432,note_off,,,,,128,0,2,,,,,1,,,54,69
26496,note_on,,,,,0,0,2,,,,,1,,,63,109
26496,note_on,,,,,64,0,1,,,,,0,,,81,112
26496,note_on,,,,,0,0,2,,,,,1,,,60,109
26496,note_on,,,,,64,0,2,,,,,1,,,54,109
26496,note_on,,,,,0,0,1,,,,,0,,,69,112
26624,note_off,,,,,128,0,2,,,,,1,,,54,69
26624,note_off,,,,,0,0,2,,,,,1,,,63,69
26624,note_off,,,,,0,0,2,,,,,1,,,60,69
26688,note_on,,,,,0,0,2,,,,,1,,,63,109
26688,note_on,,,,,64,0,2,,,,,1,,,54,109
26688,note_on,,,,,0,0,2,,,,,1,,,60,109
26816,note_off,,,,,128,0,2,,,,,1,,,54,69
26816,note_off,,,,,0,0,2,,,,,1,,,60,69
26816,note_off,,,,,0,0,2,,,,,1,,,63,69
26880,note_on,,,,,0,0,2,,,,,1,,,63,109
26880,note_off,,,,,0,0,1,,,,,0,,,69,71
26880,note_on,,,,,64,0,2,,,,,1,,,54,109
26880,note_off,,,,,384,0,1,,,,,0,,,81,71
26880,note_on,,,,,0,0,2,,,,,1,,,60,109
27008,note_off,,,,,0,0,2,,,,,1,,,60,69
27008,note_off,,,,,128,0,2,,,,,1,,,54,69
27008,note_off,,,,,0,0,2,,,,,1,,,63,69
27072,note_on,,,,,64,0,2,,,,,1,,,54,109
27072,note_on,,,,,0,0,2,,,,,1,,,60,109
27072,note_on,,,,,0,0,2,,,,,1,,,63,109
27072,note_on,,,,,192,0,1,,,,,0,,,81,112
27072,note_on,,,,,0,0,1,,,,,0,,,69,112
27328,note_off,,,,,256,0,1,,,,,0,,,81,71
27328,note_off,,,,,0,0,1,,,,,0,,,69,71
27360,note_on,,,,,0,0,1,,,,,0,,,68,112
27360,note_on,,,,,32,0,1,,,,,0,,,80,112
27584,note_off,,,,,0,0,2,,,,,1,,,63,69
27584,note_off,,,,,0,0,2,,,,,1,,,60,69
27584,note_off,,,,,512,0,2,,,,,1,,,54,69
27616,note_off,,,,,256,0,1,,,,,0,,,80,71
27616,note_off,,,,,0,0,1,,,,,0,,,68,71
27648,note_on,,,,,64,0,2,,,,,1,,,44,109
27776,note_off,,,,,128,0,2,,,,,1,,,44,69
27840,note_on,,,,,64,0,2,,,,,1,,,53,109
27840,note_on,,,,,0,0,2,,,,,1,,,59,109
27968,note_off,,,,,128,0,2,,,,,1,,,53,69
27968,note_off,,,,,0,0,2,,,,,1,,,59,69
28032,note_on,,,,,0,0,2,,,,,1,,,59,109
28032,note_on,,,,,64,0,2,,,,,1,,,53,109
28032,note_on,,,,,416,0,1,,,,,0,,,62,112
28160,note_off,,,,,0,0,2,,,,,1,,,59,69
28160,note_off,,,,,128,0,1,,,,,0,,,62,71
28160,note_off,,,,,128,0,2,,,,,1,,,53,69
28224,note_on,,,,,64,0,1,,,,,0,,,69,112
28416,note_on,,,,,0,0,2,,,,,1,,,53,109
28416,note_on,,,,,256,0,2,,,,,1,,,59,109
28416,note_on,,,,,0,0,2,,,,,1,,,62,109
28480,note_off,,,,,256,0,1,,,,,0,,,69,71
28512,note_on,,,,,0,0,2,,,,,1,,,62,109
28512,note_on,,,,,0,0,2,,,,,1,,,53,109
28512,note_on,,,,,96,0,2,,,,,1,,,59,109
28544,note_off,,,,,0,0,2,,,,,1,,,53,69
28544,note_off,,,,,0,0,2,,,,,1,,,62,69
28544,note_off,,,,,32,0,2,,,,,1,,,59,69
28608,note_on,,,,,0,0,2,,,,,1,,,53,109
28608,note_on,,,,,128,0,1,,,,,0,,,69,112
28608,note_on,,,,,64,0,2,,,,,1,,,59,109
28608,note_on,,,,,0,0,2,,,,,1,,,62,109
28640,note_off,,,,,0,0,2,,,,,1,,,62,69
28640,note_off,,,,,0,0,2,,,,,1,,,53,69
28640,note_off,,,,,32,0,2,,,,,1,,,59,69
28736,note_off,,,,,0,0,2,,,,,1,,,62,69
28736,note_off,,,,,0,0,2,,,,,1,,,53,69
28736,note_off,,,,,96,0,2,,,,,1,,,59,69
28736,note_off,,,,,128,0,1,,,,,0,,,69,71
28800,note_on,,,,,64,0,1,,,,,0,,,69,112
28800,note_on,,,,,64,0,2,,,,,1,,,37,109
28992,note_on,,,,,0,0,2,,,,,1,,,59,109
28992,note_on,,,,,0,0,2,,,,,1,,,62,109
28992,note_on,,,,,192,0,2,,,,,1,,,53,109
29056,note_off,,,,,64,0,2,,,,,1,,,37,69
29120,note_off,,,,,0,0,2,,,,,1,,,59,69
29120,note_off,,,,,0,0,2,,,,,1,,,62,69
29120,note_off,,,,,64,0,2,,,,,1,,,53,69
29184,note_on,,,,,0,0,2,,,,,1,,,59,109
29184,note_on,,,,,64,0,2,,,,,1,,,53,109
29184,note_on,,,,,0,0,2,,,,,1,,,62,109
29184,note_off,,,,,384,0,1,,,,,0,,,69,71
29312,note_off,,,,,0,0,2,,,,,1,,,62,69
29312,note_off,,,,,128,0,2,,,,,1,,,53,69
29312,note_off,,,,,0,0,2,,,,,1,,,59,69
29376,note_on,,,,,0,0,2,,,,,1,,,59,109
29376,note_on,,,,,0,0,2,,,,,1,,,62,109
29376,note_on,,,,,192,0,1,,,,,0,,,69,112
29376,note_on,,,,,64,0,2,,,,,1,,,53,109
29504,note_off,,,,,128,0,2,,,,,1,,,53,69
29504,note_off,,,,,0,0,2,,,,,1,,,59,69
29504,note_off,,,,,0,0,2,,,,,1,,,62,69
29568,note_on,,,,,192,0,1,,,,,0,,,68,112
29632,note_off,,,,,64,0,1,,,,,0,,,69,71
29824,note_off,,,,,192,0,1,,,,,0,,,68,71
29952,note_on,,,,,448,0,2,,,,,1,,,42,109
30144,note_on,,,,,0,0,1,,,,,0,,,80,112
30144,note_on,,,,,192,0,2,,,,,1,,,57,109
30144,note_on,,,,,0,0,2,,,,,1,,,54,109
30144,note_on,,,,,0,0,2,,,,,1,,,62,109
30144,note_on,,,,,320,0,1,,,,,0,,,68,112
30208,note_off,,,,,64,0,2,,,,,1,,,42,69
30272,note_off,,,,,0,0,2,,,,,1,,,54,69
30272,note_off,,,,,128,0,1,,,,,0,,,68,71
30272,note_off,,,,,0,0,2,,,,,1,,,62,69
30272,note_off,,,,,64,0,2,,,,,1,,,57,69
30272,note_off,,,,,0,0,1,,,,,0,,,80,71
30336,note_on,,,,,0,0,2,,,,,1,,,54,109
30336,note_on,,,,,64,0,2,,,,,1,,,57,109
30336,note_on,,,,,0,0,2,,,,,1,,,62,109
30336,note_on,,,,,0,0,1,,,,,0,,,66,112
30336,note_on,,,,,64,0,1,,,,,0,,,78,112
30464,note_off,,,,,128,0,1,,,,,0,,,78,71
30464,note_off,,,,,0,0,1,,,,,0,,,66,71
30464,note_off,,,,,128,0,2,,,,,1,,,57,69
30464,note_off,,,,,0,0,2,,,,,1,,,54,69
30464,note_off,,,,,0,0,2,,,,,1,,,62,69
30528,note_on,,,,,64,0,2,,,,,1,,,45,109
30720,note_on,,,,,0,0,2,,,,,1,,,54,109
30720,note_on,,,,,0,0,1,,,,,0,,,78,112
30720,note_on,,,,,256,0,1,,,,,0,,,66,112
30720,note_on,,,,,192,0,2,,,,,1,,,57,109
30784,note_off,,,,,64,0,2,,,,,1,,,45,69
30848,note_off,,,,,0,0,2,,,,,1,,,54,69
30848,note_off,,,,,128,0,1,,,,,0,,,66,71
30848,note_off,,,,,64,0,2,,,,,1,,,57,69
30848,note_off,,,,,0,0,1,,,,,0,,,78,71
30912,note_on,,,,,64,0,2,,,,,1,,,57,109
30912,note_on,,,,,0,0,2,,,,,1,,,54,109
30912,note_on,,,,,0,0,1,,,,,0,,,76,112
30912,note_on,,,,,64,0,1,,,,,0,,,64,112
31040,note_off,,,,,128,0,2,,,,,1,,,57,69
31040,note_off,,,,,0,0,1,,,,,0,,,76,71
31040,note_off,,,,,0,0,2,,,,,1,,,54,69
31040,note_off,,,,,128,0,1,,,,,0,,,64,71
31104,note_on,,,,,64,0,2,,,,,1,,,50,109
31296,note_on,,,,,256,0,1,,,,,0,,,64,112
31296,note_on,,,,,192,0,2,,,,,1,,,57,109
31296,note_on,,,,,0,0,1,,,,,0,,,76,112
31296,note_on,,,,,0,0,2,,,,,1,,,54,109
31360,note_off,,,,,64,0,2,,,,,1,,,50,69
31424,note_off,,,,,128,0,1,,,,,0,,,64,71
31424,note_off,,,,,0,0,1,,,,,0,,,76,71
31424,note_off,,,,,64,0,2,,,,,1,,,57,69
31424,note_off,,,,,0,0,2,,,,,1,,,54,69
31488,note_on,,,,,64,0,2,,,,,1,,,57,109
31488,note_on,,,,,64,0,1,,,,,0,,,62,112
31488,note_on,,,,,0,0,1,,,,,0,,,74,112
31488,note_on,,,,,0,0,2,,,,,1,,,54,109
31616,note_off,,,,,0,0,2,,,,,1,,,54,69
31616,note_off,,,,,128,0,1,,,,,0,,,62,71
31616,note_off,,,,,0,0,1,,,,,0,,,74,71
31616,note_off,,,,,128,0,2,,,,,1,,,57,69
31680,note_on,,,,,64,0,2,,,,,1,,,42,109
31872,note_on,,,,,0,0,2,,,,,1,,,54,109
31872,note_on,,,,,192,0,2,,,,,1,,,57,109
31872,note_on,,,,,256,0,1,,,,,0,,,74,112
31872,note_on,,,,,0,0,1,,,,,0,,,62,112
31936,note_off,,,,,64,0,2,,,,,1,,,42,69
32000,note_off,,,,,128,0,1,,,,,0,,,74,71
32000,note_off,,,,,64,0,2,,,,,1,,,57,69
32000,note_off,,,,,0,0,1,,,,,0,,,62,71
32000,note_off,,,,,0,0,2,,,,,1,,,54,69
32064,note_on,,,,,0,0,2,,,,,1,,,54,109
32064,note_on,,,,,0,0,1,,,,,0,,,61,112
32064,note_on,,,,,64,0,1,,,,,0,,,73,112
32064,note_on,,,,,64,0,2,,,,,1,,,57,109
32192,note_off,,,,,128,0,1,,,,,0,,,73,71
32192,note_off,,,,,0,0,1,,,,,0,,,61,71
32192,note_off,,,,,0,0,2,,,,,1,,,54,69
32192,note_off,,,,,128,0,2,,,,,1,,,57,69
32256,note_on,,,,,64,0,2,,,,,1,,,41,109
32448,note_on,,,,,0,0,2,,,,,1,,,57,109
32448,note_on,,,,,0,0,2,,,,,1,,,54,109
32448,note_on,,,,,192,0,2,,,,,1,,,51,109
32512,note_off,,,,,64,0,2,,,,,1,,,41,69
32576,note_off,,,,,0,0,2,,,,,1,,,54,69
32576,note_off,,,,,64,0,2,,,,,1,,,51,69
32576,note_off,,,,,0,0,2,,,,,1,,,57,69
32640,note_on,,,,,0,0,2,,,,,1,,,57,109
32640,note_on,,,,,0,0,2,,,,,1,,,54,109
32640,note_on,,,,,448,0,1,,,,,0,,,73,112
32640,note_on,,,,,64,0,2,,,,,1,,,51,109
32640,note_on,,,,,0,0,1,,,,,0,,,61,112
32768,note_off,,,,,0,0,2,,,,,1,,,54,69
32768,note_off,,,,,128,0,2,,,,,1,,,51,69
32768,note_off,,,,,0,0,2,,,,,1,,,57,69
32832,note_on,,,,,64,0,2,,,,,1,,,51,109
32832,note_on,,,,,0,0,2,,,,,1,,,57,109
32832,note_on,,,,,0,0,2,,,,,1,,,54,109
32960,note_off,,,,,0,0,2,,,,,1,,,57,69
32960,note_off,,,,,0,0,2,,,,,1,,,54,69
32960,note_off,,,,,128,0,2,,,,,1,,,51,69
33024,note_on,,,,,0,0,2,,,,,1,,,54,109
33024,note_on,,,,,0,0,2,,,,,1,,,57,109
33024,note_on,,,,,64,0,2,,,,,1,,,51,109
33120,note_on,,,,,480,0,1,,,,,0,,,60,112
33152,note_off,,,,,128,0,2,,,,,1,,,51,69
33152,note_off,,,,,0,0,2,,,,,1,,,54,69
33152,note_off,,,,,0,0,2,,,,,1,,,57,69
33184,note_off,,,,,64,0,1,,,,,0,,,60,71
33216,note_on,,,,,0,0,2,,,,,1,,,54,109
33216,note_on,,,,,64,0,2,,,,,1,,,51,109
33216,note_on,,,,,0,0,2,,,,,1,,,57,109
33216,note_on,,,,,32,0,1,,,,,0,,,60,112
33216,note_on,,,,,0,0,1,,,,,0,,,72,112
33216,note_on,,,,,0,0,1,,,,,0,,,61,112
33280,note_off,,,,,64,0,1,,,,,0,,,61,71
33312,note_on,,,,,32,0,1,,,,,0,,,60,112
33344,note_off,,,,,32,0,1,,,,,0,,,60,71
33344,note_off,,,,,0,0,2,,,,,1,,,54,69
33344,note_off,,,,,0,0,2,,,,,1,,,57,69
33344,note_off,,,,,128,0,2,,,,,1,,,51,69
33344,note_off,,,,,0,0,1,,,,,0,,,72,71
33376,note_off,,,,,32,0,1,,,,,0,,,60,71
33408,note_on,,,,,0,0,1,,,,,0,,,61,112
33408,note_on,,,,,0,0,2,,,,,1,,,63,109
33408,note_on,,,,,0,0,2,,,,,1,,,57,109
33408,note_on,,,,,0,0,1,,,,,0,,,73,112
33408,note_off,,,,,32,0,1,,,,,0,,,61,71
33408,note_off,,,,,0,0,1,,,,,0,,,73,71
33408,note_on,,,,,64,0,2,,,,,1,,,54,109
33408,note_on,,,,,0,0,1,,,,,0,,,68,112
33472,note_off,,,,,64,0,1,,,,,0,,,68,71
33504,note_on,,,,,32,0,1,,,,,0,,,66,112
33536,note_off,,,,,0,0,2,,,,,1,,,63,69
33536,note_off,,,,,128,0,2,,,,,1,,,54,69
33536,note_off,,,,,0,0,2,,,,,1,,,57,69
33568,note_off,,,,,64,0,1,,,,,0,,,66,71
33600,note_on,,,,,32,0,1,,,,,0,,,73,112
33664,note_off,,,,,0,0,1,,,,,0,,,73,71
33664,note_off,,,,,0,0,1,,,,,0,,,73,71
33664,note_off,,,,,64,0,1,,,,,0,,,61,71
33696,note_on,,,,,32,0,1,,,,,0,,,72,112
33760,note_off,,,,,64,0,1,,,,,0,,,72,71
33792,note_on,,,,,0,0,1,,,,,0,,,80,112
33792,note_on,,,,,32,0,1,,,,,0,,,60,112
33792,note_on,,,,,0,0,1,,,,,0,,,72,112
33856,note_off,,,,,64,0,1,,,,,0,,,80,71
33888,note_on,,,,,32,0,1,,,,,0,,,78,112
33920,note_off,,,,,0,0,1,,,,,0,,,72,71
33920,note_off,,,,,32,0,1,,,,,0,,,60,71
33952,note_off,,,,,32,0,1,,,,,0,,,78,71
33984,note_on,,,,,32,0,1,,,,,0,,,85,112
33984,note_on,,,,,0,0,1,,,,,0,,,80,112
33984,note_on,,,,,0,0,1,,,,,0,,,68,112
34048,note_off,,,,,64,0,1,,,,,0,,,85,71
34080,note_on,,,,,32,0,1,,,,,0,,,84,112
34240,note_off,,,,,160,0,1,,,,,0,,,80,71
34240,note_off,,,,,0,0,1,,,,,0,,,68,71
34272,note_on,,,,,32,0,1,,,,,0,,,92,112
34336,note_off,,,,,64,0,1,,,,,0,,,84,71
34368,note_on,,,,,0,0,1,,,,,0,,,78,112
34368,note_on,,,,,0,0,1,,,,,0,,,66,112
34368,note_on,,,,,32,0,1,,,,,0,,,90,112
34400,note_off,,,,,32,0,1,,,,,0,,,92,71
34496,note_off,,,,,96,0,1,,,,,0,,,90,71
34496,note_off,,,,,0,0,1,,,,,0,,,66,71
34496,note_off,,,,,0,0,1,,,,,0,,,78,71
34560,note_on,,,,,1024,0,2,,,,,1,,,42,109
34752,note_on,,,,,256,0,1,,,,,0,,,68,112
34752,note_on,,,,,0,0,1,,,,,0,,,80,112
34752,note_on,,,,,192,0,2,,,,,1,,,54,109
34752,note_on,,,,,0,0,2,,,,,1,,,57,109
34752,note_on,,,,,0,0,2,,,,,1,,,62,109
34816,note_off,,,,,64,0,2,,,,,1,,,42,69
34880,note_off,,,,,0,0,2,,,,,1,,,57,69
34880,note_off,,,,,64,0,2,,,,,1,,,54,69
34880,note_off,,,,,0,0,2,,,,,1,,,62,69
34880,note_off,,,,,0,0,1,,,,,0,,,80,71
34880,note_off,,,,,128,0,1,,,,,0,,,68,71
34944,note_on,,,,,64,0,2,,,,,1,,,54,109
34944,note_on,,,,,0,0,1,,,,,0,,,78,112
34944,note_on,,,,,64,0,1,,,,,0,,,66,112
34944,note_on,,,,,0,0,2,,,,,1,,,62,109
34944,note_on,,,,,0,0,2,,,,,1,,,57,109
35072,note_off,,,,,128,0,2,,,,,1,,,54,69
35072,note_off,,,,,128,0,1,,,,,0,,,66,71
35072,note_off,,,,,0,0,1,,,,,0,,,78,71
35072,note_off,,,,,0,0,2,,,,,1,,,57,69
35072,note_off,,,,,0,0,2,,,,,1,,,62,69
35136,note_on,,,,,64,0,2,,,,,1,,,45,109
35328,note_on,,,,,256,0,1,,,,,0,,,66,112
35328,note_on,,,,,0,0,2,,,,,1,,,57,109
35328,note_on,,,,,0,0,1,,,,,0,,,78,112
35328,note_on,,,,,192,0,2,,,,,1,,,54,109
35392,note_off,,,,,64,0,2,,,,,1,,,45,69
35456,note_off,,,,,128,0,1,,,,,0,,,66,71
35456,note_off,,,,,0,0,1,,,,,0,,,78,71
35456,note_off,,,,,64,0,2,,,,,1,,,54,69
35456,note_off,,,,,0,0,2,,,,,1,,,57,69
35520,note_on,,,,,0,0,2,,,,,1,,,57,109
35520,note_on,,,,,64,0,2,,,,,1,,,54,109
35520,note_on,,,,,0,0,1,,,,,0,,,76,112
35520,note_on,,,,,64,0,1,,,,,0,,,64,112
35648,note_off,,,,,128,0,1,,,,,0,,,64,71
35648,note_off,,,,,0,0,2,,,,,1,,,57,69
35648,note_off,,,,,128,0,2,,,,,1,,,54,69
35648,note_off,,,,,0,0,1,,,,,0,,,76,71
35712,note_on,,,,,64,0,2,,,,,1,,,50,109
35904,note_on,,,,,0,0,2,,,,,1,,,57,109
35904,note_on,,,,,0,0,1,,,,,0,,,76,112
35904,note_on,,,,,256,0,1,,,,,0,,,64,112
35904,note_on,,,,,192,0,2,,,,,1,,,54,109
35968,note_off,,,,,64,0,2,,,,,1,,,50,69
36032,note_off,,,,,0,0,2,,,,,1,,,57,69
36032,note_off,,,,,128,0,1,,,,,0,,,64,71
36032,note_off,,,,,0,0,1,,,,,0,,,76,71
36032,note_off,,,,,64,0,2,,,,,1,,,54,69
36096,note_on,,,,,0,0,1,,,,,0,,,74,112
36096,note_on,,,,,64,0,2,,,,,1,,,54,109
36096,note_on,,,,,64,0,1,,,,,0,,,62,112
36096,note_on,,,,,0,0,2,,,,,1,,,57,109
36224,note_off,,,,,128,0,1,,,,,0,,,62,71
36224,note_off,,,,,0,0,2,,,,,1,,,57,69
36224,note_off,,,,,0,0,1,,,,,0,,,74,71
36224,note_off,,,,,128,0,2,,,,,1,,,54,69
36288,note_on,,,,,64,0,2,,,,,1,,,42,109
36480,note_on,,,,,192,0,2,,,,,1,,,54,109
36480,note_on,,,,,256,0,1,,,,,0,,,62,112
36480,note_on,,,,,0,0,1,,,,,0,,,74,112
36480,note_on,,,,,0,0,2,,,,,1,,,57,109
36544,note_off,,,,,64,0,2,,,,,1,,,42,69
36608,note_off,,,,,64,0,2,,,,,1,,,54,69
36608,note_off,,,,,0,0,2,,,,,1,,,57,69
36608,note_off,,,,,0,0,1,,,,,0,,,74,71
36608,note_off,,,,,128,0,1,,,,,0,,,62,71
36672,note_on,,,,,0,0,1,,,,,0,,,73,112
36672,note_on,,,,,64,0,2,,,,,1,,,54,109
36672,note_on,,,,,0,0,2,,,,,1,,,57,109
36672,note_on,,,,,64,0,1,,,,,0,,,61,112
36800,note_off,,,,,0,0,2,,,,,1,,,57,69
36800,note_off,,,,,128,0,2,,,,,1,,,54,69
36800,note_off,,,,,128,0,1,,,,,0,,,61,71
36800,note_off,,,,,0,0,1,,,,,0,,,73,71
36864,note_on,,,,,64,0,2,,,,,1,,,41,109
37056,note_on,,,,,0,0,2,,,,,1,,,57,109
37056,note_on,,,,,192,0,2,,,,,1,,,51,109
37056,note_on,,,,,0,0,2,,,,,1,,,54,109
37120,note_off,,,,,64,0,2,,,,,1,,,41,69
37184,note_off,,,,,0,0,2,,,,,1,,,57,69
37184,note_off,,,,,64,0,2,,,,,1,,,51,69
37184,note_off,,,,,0,0,2,,,,,1,,,54,69
37248,note_on,,,,,0,0,2,,,,,1,,,54,109
37248,note_on,,,,,448,0,1,,,,,0,,,61,112
37248,note_on,,,,,0,0,2,,,,,1,,,57,109
37248,note_on,,,,,64,0,2,,,,,1,,,51,109
37248,note_on,,,,,0,0,1,,,,,0,,,73,112
37376,note_off,,,,,0,0,2,,,,,1,,,54,69
37376,note_off,,,,,0,0,2,,,,,1,,,57,69
37376,note_off,,,,,128,0,2,,,,,1,,,51,69
37440,note_on,,,,,64,0,2,,,,,1,,,51,109
37440,note_on,,,,,0,0,2,,,,,1,,,54,109
37440,note_on,,,,,0,0,2,,,,,1,,,57,109
37568,note_off,,,,,0,0,2,,,,,1,,,54,69
37568,note_off,,,,,0,0,2,,,,,1,,,57,69
37568,note_off,,,,,128,0,2,,,,,1,,,51,69
37632,note_on,,,,,0,0,2,,,,,1,,,54,109
37632,note_on,,,,,0,0,2,,,,,1,,,57,109
37632,note_on,,,,,64,0,2,,,,,1,,,51,109
37728,note_on,,,,,480,0,1,,,,,0,,,60,112
37760,note_off,,,,,128,0,2,,,,,1,,,51,69
37760,note_off,,,,,0,0,2,,,,,1,,,57,69
37760,note_off,,,,,0,0,2,,,,,1,,,54,69
37792,note_off,,,,,64,0,1,,,,,0,,,60,71
37824,note_on,,,,,0,0,2,,,,,1,,,54,109
37824,note_on,,,,,0,0,2,,,,,1,,,57,109
37824,note_on,,,,,32,0,1,,,,,0,,,61,112
37824,note_on,,,,,64,0,2,,,,,1,,,51,109
37888,note_off,,,,,64,0,1,,,,,0,,,61,71
37920,note_on,,,,,32,0,1,,,,,0,,,60,112
37952,note_off,,,,,128,0,2,,,,,1,,,51,69
37952,note_off,,,,,0,0,2,,,,,1,,,57,69
37952,note_off,,,,,0,0,2,,,,,1,,,54,69
37984,note_off,,,,,64,0,1,,,,,0,,,60,71
38016,note_on,,,,,0,0,1,,,,,0,,,73,112
38016,note_on,,,,,0,0,2,,,,,1,,,63,109
38016,note_on,,,,,0,0,2,,,,,1,,,57,109
38016,note_off,,,,,0,0,1,,,,,0,,,73,71
38016,note_on,,,,,0,0,1,,,,,0,,,61,112
38016,note_on,,,,,0,0,1,,,,,0,,,68,112
38016,note_off,,,,,32,0,1,,,,,0,,,61,71
38016,note_on,,,,,64,0,2,,,,,1,,,54,109
38080,note_off,,,,,64,0,1,,,,,0,,,68,71
38112,note_on,,,,,32,0,1,,,,,0,,,66,112
38144,note_off,,,,,128,0,2,,,,,1,,,54,69
38144,note_off,,,,,0,0,2,,,,,1,,,57,69
38144,note_off,,,,,0,0,2,,,,,1,,,63,69
38176,note_off,,,,,64,0,1,,,,,0,,,66,71
38208,note_on,,,,,32,0,1,,,,,0,,,73,112
38272,note_off,,,,,0,0,1,,,,,0,,,73,71
38272,note_off,,,,,64,0,1,,,,,0,,,61,71
38272,note_off,,,,,0,0,1,,,,,0,,,73,71
38304,note_on,,,,,32,0,1,,,,,0,,,72,112
38368,note_off,,,,,64,0,1,,,,,0,,,72,71
38400,note_on,,,,,32,0,1,,,,,0,,,60,112
38400,note_on,,,,,0,0,1,,,,,0,,,72,112
38400,note_on,,,,,0,0,1,,,,,0,,,80,112
38464,note_off,,,,,64,0,1,,,,,0,,,80,71
38496,note_on,,,,,32,0,1,,,,,0,,,78,112
38528,note_off,,,,,0,0,1,,,,,0,,,72,71
38528,note_off,,,,,32,0,1,,,,,0,,,60,71
38560,note_off,,,,,32,0,1,,,,,0,,,78,71
38592,note_on,,,,,0,0,1,,,,,0,,,68,112
38592,note_on,,,,,32,0,1,,,,,0,,,85,112
38592,note_on,,,,,0,0,1,,,,,0,,,80,112
38656,note_off,,,,,64,0,1,,,,,0,,,85,71
38688,note_on,,,,,32,0,1,,,,,0,,,84,112
38752,note_off,,,,,64,0,1,,,,,0,,,84,71
38784,note_on,,,,,32,0,1,,,,,0,,,66,112
38784,note_on,,,,,0,0,1,,,,,0,,,78,112
38848,note_off,,,,,0,0,1,,,,,0,,,68,71
38848,note_off,,,,,64,0,1,,,,,0,,,80,71
38912,note_off,,,,,0,0,1,,,,,0,,,78,71
38912,note_off,,,,,64,0,1,,,,,0,,,66,71
38976,note_on,,,,,64,0,1,,,,,0,,,92,112
39072,note_on,,,,,96,0,1,,,,,0,,,90,112
39104,note_off,,,,,32,0,1,,,,,0,,,92,71
39168,note_on,,,,,1024,0,2,,,,,1,,,42,109
39200,note_off,,,,,96,0,1,,,,,0,,,90,71
39360,note_on,,,,,0,0,2,,,,,1,,,57,109
39360,note_on,,,,,0,0,2,,,,,1,,,62,109
39360,note_on,,,,,192,0,2,,,,,1,,,54,109
39424,note_off,,,,,64,0,2,,,,,1,,,42,69
39488,note_off,,,,,0,0,2,,,,,1,,,62,69
39488,note_off,,,,,64,0,2,,,,,1,,,54,69
39488,note_off,,,,,0,0,2,,,,,1,,,57,69
39552,note_on,,,,,0,0,1,,,,,0,,,77,112
39552,note_on,,,,,352,0,1,,,,,0,,,65,112
39552,note_on,,,,,0,0,2,,,,,1,,,62,109
39552,note_on,,,,,0,0,2,,,,,1,,,57,109
39552,note_on,,,,,64,0,2,,,,,1,,,54,109
39680,note_off,,,,,128,0,1,,,,,0,,,65,71
39680,note_off,,,,,0,0,2,,,,,1,,,57,69
39680,note_off,,,,,0,0,2,,,,,1,,,62,69
39680,note_off,,,,,0,0,1,,,,,0,,,77,71
39680,note_off,,,,,128,0,2,,,,,1,,,54,69
39744,note_on,,,,,0,0,1,,,,,0,,,78,112
39744,note_on,,,,,64,0,2,,,,,1,,,45,109
39744,note_on,,,,,64,0,1,,,,,0,,,66,112
39936,note_on,,,,,0,0,2,,,,,1,,,57,109
39936,note_on,,,,,192,0,2,,,,,1,,,54,109
39936,note_on,,,,,0,0,2,,,,,1,,,62,109
40000,note_off,,,,,64,0,2,,,,,1,,,45,69
40000,note_off,,,,,256,0,1,,,,,0,,,66,71
40000,note_off,,,,,0,0,1,,,,,0,,,78,71
40064,note_off,,,,,64,0,2,,,,,1,,,54,69
40064,note_off,,,,,0,0,2,,,,,1,,,62,69
40064,note_off,,,,,0,0,2,,,,,1,,,57,69
40128,note_on,,,,,0,0,2,,,,,1,,,62,109
40128,note_on,,,,,0,0,2,,,,,1,,,57,109
40128,note_on,,,,,64,0,2,,,,,1,,,54,109
40128,note_on,,,,,0,0,1,,,,,0,,,80,112
40128,note_on,,,,,128,0,1,,,,,0,,,68,112
40256,note_off,,,,,128,0,2,,,,,1,,,54,69
40256,note_off,,,,,0,0,1,,,,,0,,,80,71
40256,note_off,,,,,128,0,1,,,,,0,,,68,71
40256,note_off,,,,,0,0,2,,,,,1,,,62,69
40256,note_off,,,,,0,0,2,,,,,1,,,57,69
40320,note_on,,,,,0,0,1,,,,,0,,,83,112
40320,note_on,,,,,64,0,1,,,,,0,,,71,112
40320,note_on,,,,,64,0,2,,,,,1,,,50,109
40512,note_on,,,,,192,0,2,,,,,1,,,54,109
40512,note_on,,,,,0,0,2,,,,,1,,,62,109
40512,note_on,,,,,0,0,2,,,,,1,,,57,109
40576,note_off,,,,,64,0,2,,,,,1,,,50,69
40576,note_off,,,,,256,0,1,,,,,0,,,71,71
40576,note_off,,,,,0,0,1,,,,,0,,,83,71
40640,note_off,,,,,64,0,2,,,,,1,,,54,69
40640,note_off,,,,,0,0,2,,,,,1,,,62,69
40640,note_off,,,,,0,0,2,,,,,1,,,57,69
40704,note_on,,,,,0,0,2,,,,,1,,,62,109
40704,note_on,,,,,0,0,2,,,,,1,,,57,109
40704,note_on,,,,,128,0,1,,,,,0,,,69,112
40704,note_on,,,,,64,0,2,,,,,1,,,54,109
40704,note_on,,,,,0,0,1,,,,,0,,,81,112
40832,note_off,,,,,0,0,1,,,,,0,,,81,71
40832,note_off,,,,,128,0,2,,,,,1,,,54,69
40832,note_off,,,,,128,0,1,,,,,0,,,69,71
40832,note_off,,,,,0,0,2,,,,,1,,,57,69
40832,note_off,,,,,0,0,2,,,,,1,,,62,69
40896,note_on,,,,,64,0,2,,,,,1,,,45,109
40896,note_on,,,,,0,0,1,,,,,0,,,80,112
40896,note_on,,,,,64,0,1,,,,,0,,,68,112
41088,note_on,,,,,192,0,2,,,,,1,,,54,109
41088,note_on,,,,,0,0,2,,,,,1,,,62,109
41088,note_on,,,,,0,0,2,,,,,1,,,57,109
41152,note_off,,,,,256,0,1,,,,,0,,,68,71
41152,note_off,,,,,64,0,2,,,,,1,,,45,69
41152,note_off,,,,,0,0,1,,,,,0,,,80,71
41216,note_off,,,,,64,0,2,,,,,1,,,54,69
41216,note_off,,,,,0,0,2,,,,,1,,,57,69
41216,note_off,,,,,0,0,2,,,,,1,,,62,69
41280,note_on,,,,,0,0,2,,,,,1,,,57,109
41280,note_on,,,,,0,0,1,,,,,0,,,78,112
41280,note_on,,,,,0,0,2,,,,,1,,,62,109
41280,note_on,,,,,64,0,2,,,,,1,,,54,109
41280,note_on,,,,,128,0,1,,,,,0,,,66,112
41408,note_off,,,,,128,0,1,,,,,0,,,66,71
41408,note_off,,,,,0,0,2,,,,,1,,,57,69
41408,note_off,,,,,0,0,2,,,,,1,,,62,69
41408,note_off,,,,,128,0,2,,,,,1,,,54,69
41408,note_off,,,,,0,0,1,,,,,0,,,78,71
41472,key_signature,,,,,41472,1,3,,,,,,,Db,,
41472,note_on,,,,,64,0,2,,,,,1,,,45,109
41664,note_on,,,,,192,0,2,,,,,1,,,57,109
41664,note_on,,,,,0,0,2,,,,,1,,,62,109
41728,note_off,,,,,64,0,2,,,,,1,,,45,69
41792,note_off,,,,,0,0,2,,,,,1,,,62,69
41792,note_off,,,,,64,0,2,,,,,1,,,57,69
41856,note_on,,,,,448,0,1,,,,,0,,,66,112
41856,note_on,,,,,64,0,2,,,,,1,,,57,109
41856,note_on,,,,,384,0,3,,,,,2,,,66,115
41856,note_on,,,,,0,0,1,,,,,0,,,78,112
41856,note_on,,,,,0,0,2,,,,,1,,,62,109
41984,note_off,,,,,128,0,2,,,,,1,,,57,69
41984,note_off,,,,,0,0,2,,,,,1,,,62,69
41984,note_off,,,,,128,0,1,,,,,0,,,66,71
41984,note_off,,,,,128,0,3,,,,,2,,,66,73
41984,note_off,,,,,0,0,1,,,,,0,,,78,71
42048,note_on,,,,,64,0,1,,,,,0,,,66,112
42048,note_on,,,,,0,0,1,,,,,0,,,78,112
42048,note_on,,,,,64,0,2,,,,,1,,,46,109
42048,note_on,,,,,64,0,3,,,,,2,,,66,115
42240,note_on,,,,,0,0,2,,,,,1,,,58,109
42240,note_on,,,,,192,0,2,,,,,1,,,56,109
42240,note_on,,,,,0,0,2,,,,,1,,,62,109
42240,note_off,,,,,192,0,3,,,,,2,,,66,73
42304,note_off,,,,,64,0,2,,,,,1,,,46,69
42336,note_on,,,,,96,0,3,,,,,2,,,65,115
42368,note_off,,,,,64,0,2,,,,,1,,,56,69
42368,note_off,,,,,0,0,2,,,,,1,,,58,69
42368,note_off,,,,,0,0,2,,,,,1,,,62,69
42400,note_off,,,,,64,0,3,,,,,2,,,65,73
42432,note_on,,,,,0,0,1,,,,,0,,,77,112
42432,note_on,,,,,384,0,1,,,,,0,,,65,112
42432,note_on,,,,,32,0,3,,,,,2,,,71,115
42432,note_on,,,,,0,0,2,,,,,1,,,58,109
42432,note_on,,,,,0,0,2,,,,,1,,,62,109
42432,note_on,,,,,64,0,2,,,,,1,,,56,109
42496,note_off,,,,,64,0,3,,,,,2,,,71,73
42528,note_on,,,,,32,0,3,,,,,2,,,70,115
42560,note_off,,,,,128,0,2,,,,,1,,,56,69
42560,note_off,,,,,0,0,1,,,,,0,,,65,71
42560,note_off,,,,,128,0,1,,,,,0,,,66,71
42560,note_off,,,,,0,0,1,,,,,0,,,78,71
42560,note_off,,,,,0,0,2,,,,,1,,,58,69
42560,note_off,,,,,0,0,2,,,,,1,,,62,69
42560,note_off,,,,,0,0,1,,,,,0,,,77,71
42592,note_off,,,,,64,0,3,,,,,2,,,70,73
42624,note_on,,,,,64,0,1,,,,,0,,,66,112
42624,note_on,,,,,64,0,2,,,,,1,,,56,109
42624,note_on,,,,,32,0,3,,,,,2,,,90,115
42624,note_on,,,,,0,0,2,,,,,1,,,61,109
42624,note_on,,,,,0,0,2,,,,,1,,,58,109
42624,note_on,,,,,0,0,1,,,,,0,,,78,112
42688,note_off,,,,,64,0,3,,,,,2,,,90,73
42720,note_on,,,,,32,0,3,,,,,2,,,89,115
42752,note_off,,,,,0,0,2,,,,,1,,,58,69
42752,note_off,,,,,128,0,2,,,,,1,,,56,69
42752,note_off,,,,,0,0,2,,,,,1,,,61,69
42784,note_off,,,,,64,0,3,,,,,2,,,89,73
42816,note_on,,,,,64,0,2,,,,,1,,,56,109
42816,note_on,,,,,0,0,2,,,,,1,,,58,109
42816,note_on,,,,,0,0,2,,,,,1,,,61,109
42816,note_on,,,,,32,0,3,,,,,2,,,83,115
42880,note_off,,,,,64,0,3,,,,,2,,,83,73
42912,note_on,,,,,32,0,3,,,,,2,,,82,115
42944,note_off,,,,,128,0,2,,,,,1,,,56,69
42944,note_off,,,,,0,0,2,,,,,1,,,58,69
42944,note_off,,,,,0,0,2,,,,,1,,,61,69
42976,note_off,,,,,64,0,3,,,,,2,,,82,73
43008,note_on,,,,,384,0,1,,,,,0,,,65,112
43008,note_on,,,,,32,0,3,,,,,2,,,90,115
43008,note_on,,,,,64,0,2,,,,,1,,,56,109
43008,note_on,,,,,0,0,2,,,,,1,,,58,109
43008,note_on,,,,,0,0,2,,,,,1,,,61,109
43008,note_on,,,,,0,0,1,,,,,0,,,77,112
43072,note_off,,,,,64,0,3,,,,,2,,,90,73
43104,note_on,,,,,32,0,3,,,,,2,,,89,115
43136,note_off,,,,,0,0,2,,,,,1,,,61,69
43136,note_off,,,,,0,0,2,,,,,1,,,58,69
43136,note_off,,,,,0,0,1,,,,,0,,,77,71
43136,note_off,,,,,0,0,1,,,,,0,,,65,71
43136,note_off,,,,,128,0,1,,,,,0,,,66,71
43136,note_off,,,,,128,0,2,,,,,1,,,56,69
43136,note_off,,,,,0,0,1,,,,,0,,,78,71
43168,note_off,,,,,64,0,3,,,,,2,,,89,73
43200,note_on,,,,,64,0,1,,,,,0,,,71,112
43200,note_on,,,,,0,0,2,,,,,1,,,65,109
43200,note_on,,,,,0,0,2,,,,,1,,,62,109
43200,note_on,,,,,64,0,2,,,,,1,,,56,109
43200,note_on,,,,,32,0,3,,,,,2,,,83,115
43200,note_on,,,,,0,0,1,,,,,0,,,83,112
43200,note_on,,,,,0,0,3,,,,,2,,,95,115
43328,note_off,,,,,0,0,2,,,,,1,,,65,69
43328,note_off,,,,,128,0,2,,,,,1,,,56,69
43328,note_off,,,,,0,0,2,,,,,1,,,62,69
43392,note_on,,,,,0,0,3,,,,,2,,,94,115
43392,note_on,,,,,192,0,3,,,,,2,,,82,115
43584,note_on,,,,,0,0,1,,,,,0,,,82,112
43584,note_on,,,,,384,0,1,,,,,0,,,70,112
43648,note_off,,,,,0,0,3,,,,,2,,,94,73
43648,note_off,,,,,256,0,3,,,,,2,,,82,73
43712,note_off,,,,,128,0,1,,,,,0,,,71,71
43712,note_off,,,,,0,0,1,,,,,0,,,70,71
43712,note_off,,,,,0,0,3,,,,,2,,,95,73
43712,note_off,,,,,0,0,1,,,,,0,,,82,71
43712,note_off,,,,,0,0,1,,,,,0,,,83,71
43712,note_off,,,,,64,0,3,,,,,2,,,83,73
43776,note_on,,,,,448,0,2,,,,,1,,,44,109
43968,note_on,,,,,0,0,2,,,,,1,,,59,109
43968,note_on,,,,,0,0,2,,,,,1,,,64,109
43968,note_on,,,,,192,0,2,,,,,1,,,55,109
44032,note_off,,,,,64,0,2,,,,,1,,,44,69
44096,note_off,,,,,0,0,2,,,,,1,,,59,69
44096,note_off,,,,,64,0,2,,,,,1,,,55,69
44096,note_off,,,,,0,0,2,,,,,1,,,64,69
44160,note_on,,,,,0,0,1,,,,,0,,,79,112
44160,note_on,,,,,64,0,2,,,,,1,,,55,109
44160,note_on,,,,,0,0,2,,,,,1,,,64,109
44160,note_on,,,,,0,0,2,,,,,1,,,59,109
44160,note_on,,,,,448,0,1,,,,,0,,,67,112
44288,note_off,,,,,128,0,2,,,,,1,,,55,69
44288,note_off,,,,,128,0,1,,,,,0,,,67,71
44288,note_off,,,,,0,0,1,,,,,0,,,79,71
44288,note_off,,,,,0,0,2,,,,,1,,,59,69
44288,note_off,,,,,0,0,2,,,,,1,,,64,69
44352,note_on,,,,,0,0,1,,,,,0,,,80,112
44352,note_on,,,,,64,0,1,,,,,0,,,68,112
44352,note_on,,,,,64,0,2,,,,,1,,,47,109
44544,note_on,,,,,0,0,2,,,,,1,,,64,109
44544,note_on,,,,,0,0,2,,,,,1,,,59,109
44544,note_on,,,,,192,0,2,,,,,1,,,55,109
44608,note_off,,,,,64,0,2,,,,,1,,,47,69
44672,note_off,,,,,0,0,2,,,,,1,,,59,69
44672,note_off,,,,,0,0,2,,,,,1,,,64,69
44672,note_off,,,,,64,0,2,,,,,1,,,55,69
44736,note_on,,,,,0,0,1,,,,,0,,,82,112
44736,note_on,,,,,0,0,2,,,,,1,,,59,109
44736,note_on,,,,,384,0,1,,,,,0,,,70,112
44736,note_on,,,,,64,0,2,,,,,1,,,55,109
44736,note_on,,,,,0,0,2,,,,,1,,,64,109
44864,note_off,,,,,128,0,1,,,,,0,,,68,71
44864,note_off,,,,,0,0,2,,,,,1,,,64,69
44864,note_off,,,,,0,0,1,,,,,0,,,70,71
44864,note_off,,,,,0,0,1,,,,,0,,,80,71
44864,note_off,,,,,0,0,1,,,,,0,,,82,71
44864,note_off,,,,,0,0,2,,,,,1,,,59,69
44864,note_off,,,,,128,0,2,,,,,1,,,55,69
44928,note_on,,,,,64,0,1,,,,,0,,,73,112
44928,note_on,,,,,64,0,2,,,,,1,,,52,109
44928,note_on,,,,,0,0,1,,,,,0,,,85,112
45120,note_on,,,,,0,0,2,,,,,1,,,59,109
45120,note_on,,,,,0,0,2,,,,,1,,,64,109
45120,note_on,,,,,192,0,2,,,,,1,,,56,109
45184,note_off,,,,,64,0,2,,,,,1,,,52,69
45248,note_off,,,,,0,0,2,,,,,1,,,59,69
45248,note_off,,,,,0,0,2,,,,,1,,,64,69
45248,note_off,,,,,64,0,2,,,,,1,,,56,69
45312,note_on,,,,,0,0,2,,,,,1,,,59,109
45312,note_on,,,,,0,0,2,,,,,1,,,64,109
45312,note_on,,,,,64,0,2,,,,,1,,,56,109
45312,note_on,,,,,384,0,1,,,,,0,,,71,112
45312,note_on,,,,,0,0,1,,,,,0,,,83,112
45440,note_off,,,,,128,0,2,,,,,1,,,56,69
45440,note_off,,,,,0,0,1,,,,,0,,,85,71
45440,note_off,,,,,0,0,2,,,,,1,,,64,69
45440,note_off,,,,,0,0,2,,,,,1,,,59,69
45440,note_off,,,,,128,0,1,,,,,0,,,73,71
45440,note_off,,,,,0,0,1,,,,,0,,,83,71
45440,note_off,,,,,0,0,1,,,,,0,,,71,71
45504,note_on,,,,,64,0,2,,,,,1,,,47,109
45504,note_on,,,,,0,0,1,,,,,0,,,82,112
45504,note_on,,,,,64,0,1,,,,,0,,,70,112
45696,note_on,,,,,0,0,2,,,,,1,,,59,109
45696,note_on,,,,,192,0,2,,,,,1,,,56,109
45696,note_on,,,,,0,0,2,,,,,1,,,64,109
45760,note_off,,,,,64,0,2,,,,,1,,,47,69
45824,note_off,,,,,0,0,2,,,,,1,,,64,69
45824,note_off,,,,,64,0,2,,,,,1,,,56,69
45824,note_off,,,,,0,0,2,,,,,1,,,59,69
45888,note_on,,,,,0,0,1,,,,,0,,,80,112
45888,note_on,,,,,0,0,2,,,,,1,,,64,109
45888,note_on,,,,,0,0,2,,,,,1,,,59,109
45888,note_on,,,,,384,0,1,,,,,0,,,68,112
45888,note_on,,,,,64,0,2,,,,,1,,,56,109
46016,note_off,,,,,128,0,2,,,,,1,,,56,69
46016,note_off,,,,,0,0,1,,,,,0,,,68,71
46016,note_off,,,,,128,0,1,,,,,0,,,70,71
46016,note_off,,,,,0,0,2,,,,,1,,,59,69
46016,note_off,,,,,0,0,2,,,,,1,,,64,69
46016,note_off,,,,,0,0,1,,,,,0,,,82,71
46016,note_off,,,,,0,0,1,,,,,0,,,80,71
46080,note_on,,,,,64,0,2,,,,,1,,,47,109
46272,note_on,,,,,192,0,2,,,,,1,,,59,109
46272,note_on,,,,,0,0,2,,,,,1,,,64,109
46336,note_off,,,,,64,0,2,,,,,1,,,47,69
46400,note_off,,,,,0,0,2,,,,,1,,,64,69
46400,note_off,,,,,64,0,2,,,,,1,,,59,69
46464,note_on,,,,,0,0,2,,,,,1,,,64,109
46464,note_on,,,,,448,0,1,,,,,0,,,68,112
46464,note_on,,,,,64,0,2,,,,,1,,,59,109
46464,note_on,,,,,2752,0,3,,,,,2,,,68,115
46464,note_on,,,,,0,0,1,,,,,0,,,80,112
46592,note_off,,,,,128,0,2,,,,,1,,,59,69
46592,note_off,,,,,128,0,3,,,,,2,,,68,73
46592,note_off,,,,,0,0,1,,,,,0,,,80,71
46592,note_off,,,,,0,0,2,,,,,1,,,64,69
46592,note_off,,,,,128,0,1,,,,,0,,,68,71
46656,note_on,,,,,0,0,1,,,,,0,,,80,112
46656,note_on,,,,,64,0,1,,,,,0,,,68,112
46656,note_on,,,,,64,0,3,,,,,2,,,68,115
46656,note_on,,,,,64,0,2,,,,,1,,,48,109
46848,note_off,,,,,192,0,3,,,,,2,,,68,73
46848,note_on,,,,,0,0,2,,,,,1,,,60,109
46848,note_on,,,,,0,0,2,,,,,1,,,64,109
46848,note_on,,,,,192,0,2,,,,,1,,,58,109
46912,note_off,,,,,64,0,2,,,,,1,,,48,69
46944,note_on,,,,,96,0,3,,,,,2,,,67,115
46976,note_off,,,,,0,0,2,,,,,1,,,64,69
46976,note_off,,,,,64,0,2,,,,,1,,,58,69
46976,note_off,,,,,0,0,2,,,,,1,,,60,69
47008,note_off,,,,,64,0,3,,,,,2,,,67,73
47040,note_on,,,,,384,0,1,,,,,0,,,67,112
47040,note_on,,,,,0,0,2,,,,,1,,,60,109
47040,note_on,,,,,0,0,1,,,,,0,,,79,112
47040,note_on,,,,,0,0,2,,,,,1,,,64,109
47040,note_on,,,,,64,0,2,,,,,1,,,58,109
47040,note_on,,,,,32,0,3,,,,,2,,,73,115
47104,note_off,,,,,64,0,3,,,,,2,,,73,73
47136,note_on,,,,,32,0,3,,,,,2,,,72,115
47168,note_off,,,,,0,0,2,,,,,1,,,64,69
47168,note_off,,,,,0,0,2,,,,,1,,,60,69
47168,note_off,,,,,128,0,1,,,,,0,,,68,71
47168,note_off,,,,,0,0,1,,,,,0,,,80,71
47168,note_off,,,,,0,0,1,,,,,0,,,79,71
47168,note_off,,,,,128,0,2,,,,,1,,,58,69
47168,note_off,,,,,0,0,1,,,,,0,,,67,71
47200,note_off,,,,,64,0,3,,,,,2,,,72,73
47232,note_on,,,,,64,0,2,,,,,1,,,58,109
47232,note_on,,,,,0,0,1,,,,,0,,,68,112
47232,note_on,,,,,32,0,3,,,,,2,,,92,115
47232,note_on,,,,,0,0,2,,,,,1,,,64,109
47232,note_on,,,,,0,0,2,,,,,1,,,60,109
47232,note_on,,,,,64,0,1,,,,,0,,,80,112
47296,note_off,,,,,64,0,3,,,,,2,,,92,73
47328,note_on,,,,,32,0,3,,,,,2,,,91,115
47360,note_off,,,,,0,0,2,,,,,1,,,60,69
47360,note_off,,,,,0,0,2,,,,,1,,,64,69
47360,note_off,,,,,128,0,2,,,,,1,,,58,69
47392,note_off,,,,,64,0,3,,,,,2,,,91,73
47424,note_on,,,,,32,0,3,,,,,2,,,85,115
47424,note_on,,,,,0,0,2,,,,,1,,,64,109
47424,note_on,,,,,0,0,2,,,,,1,,,60,109
47424,note_on,,,,,64,0,2,,,,,1,,,58,109
47488,note_off,,,,,64,0,3,,,,,2,,,85,73
47520,note_on,,,,,32,0,3,,,,,2,,,84,115
47552,note_off,,,,,0,0,2,,,,,1,,,64,69
47552,note_off,,,,,0,0,2,,,,,1,,,60,69
47552,note_off,,,,,128,0,2,,,,,1,,,58,69
47584,note_off,,,,,64,0,3,,,,,2,,,84,73
47616,note_on,,,,,64,0,2,,,,,1,,,58,109
47616,note_on,,,,,0,0,2,,,,,1,,,60,109
47616,note_on,,,,,0,0,1,,,,,0,,,79,112
47616,note_on,,,,,32,0,3,,,,,2,,,92,115
47616,note_on,,,,,0,0,2,,,,,1,,,64,109
47616,note_on,,,,,384,0,1,,,,,0,,,67,112
47680,note_off,,,,,64,0,3,,,,,2,,,92,73
47712,note_on,,,,,32,0,3,,,,,2,,,91,115
47744,note_off,,,,,0,0,2,,,,,1,,,64,69
47744,note_off,,,,,0,0,2,,,,,1,,,60,69
47744,note_off,,,,,128,0,2,,,,,1,,,58,69
47744,note_off,,,,,0,0,1,,,,,0,,,67,71
47744,note_off,,,,,0,0,1,,,,,0,,,68,71
47744,note_off,,,,,0,0,1,,,,,0,,,79,71
47744,note_off,,,,,128,0,1,,,,,0,,,80,71
47776,note_off,,,,,64,0,3,,,,,2,,,91,73
47808,note_on,,,,,64,0,2,,,,,1,,,58,109
47808,note_on,,,,,32,0,3,,,,,2,,,85,115
47808,note_on,,,,,0,0,2,,,,,1,,,67,109
47808,note_on,,,,,0,0,1,,,,,0,,,85,112
47808,note_on,,,,,0,0,2,,,,,1,,,64,109
47808,note_on,,,,,0,0,3,,,,,2,,,97,115
47808,note_on,,,,,64,0,1,,,,,0,,,73,112
48192,note_on,,,,,384,0,1,,,,,0,,,72,112
48192,note_on,,,,,384,0,3,,,,,2,,,84,115
48192,note_on,,,,,0,0,1,,,,,0,,,84,112
48192,note_on,,,,,0,0,3,,,,,2,,,96,115
48320,note_off,,,,,0,0,2,,,,,1,,,64,69
48320,note_off,,,,,0,0,2,,,,,1,,,67,69
48320,note_off,,,,,0,0,1,,,,,0,,,84,71
48320,note_off,,,,,128,0,3,,,,,2,,,85,73
48320,note_off,,,,,0,0,3,,,,,2,,,84,73
48320,note_off,,,,,0,0,3,,,,,2,,,96,73
48320,note_off,,,,,0,0,3,,,,,2,,,97,73
48320,note_off,,,,,0,0,1,,,,,0,,,85,71
48320,note_off,,,,,0,0,1,,,,,0,,,72,71
48320,note_off,,,,,512,0,2,,,,,1,,,58,69
48320,note_off,,,,,128,0,1,,,,,0,,,73,71
48384,note_on,,,,,64,0,2,,,,,1,,,46,109
48576,note_on,,,,,0,0,2,,,,,1,,,61,109
48576,note_on,,,,,0,0,2,,,,,1,,,66,109
48576,note_on,,,,,192,0,2,,,,,1,,,58,109
48640,note_off,,,,,64,0,2,,,,,1,,,46,69
48704,note_off,,,,,64,0,2,,,,,1,,,58,69
48704,note_off,,,,,0,0,2,,,,,1,,,61,69
48704,note_off,,,,,0,0,2,,,,,1,,,66,69
48768,note_on,,,,,0,0,2,,,,,1,,,61,109
48768,note_on,,,,,64,0,2,,,,,1,,,58,109
48768,note_on,,,,,0,0,1,,,,,0,,,81,112
48768,note_on,,,,,448,0,1,,,,,0,,,69,112
48768,note_on,,,,,0,0,2,,,,,1,,,66,109
48896,note_off,,,,,0,0,2,,,,,1,,,66,69
48896,note_off,,,,,0,0,2,,,,,1,,,61,69
48896,note_off,,,,,0,0,1,,,,,0,,,81,71
48896,note_off,,,,,128,0,2,,,,,1,,,58,69
48896,note_off,,,,,128,0,1,,,,,0,,,69,71
48960,note_on,,,,,0,0,1,,,,,0,,,82,112
48960,note_on,,,,,64,0,2,,,,,1,,,49,109
48960,note_on,,,,,64,0,1,,,,,0,,,70,112
49152,note_on,,,,,0,0,2,,,,,1,,,61,109
49152,note_on,,,,,192,0,2,,,,,1,,,58,109
49152,note_on,,,,,0,0,2,,,,,1,,,66,109
49216,note_off,,,,,64,0,2,,,,,1,,,49,69
49280,note_off,,,,,64,0,2,,,,,1,,,58,69
49280,note_off,,,,,0,0,2,,,,,1,,,61,69
49280,note_off,,,,,0,0,2,,,,,1,,,66,69
49344,note_on,,,,,0,0,2,,,,,1,,,66,109
49344,note_on,,,,,0,0,1,,,,,0,,,84,112
49344,note_on,,,,,384,0,1,,,,,0,,,72,112
49344,note_on,,,,,0,0,2,,,,,1,,,61,109
49344,note_on,,,,,64,0,2,,,,,1,,,58,109
49472,note_off,,,,,0,0,1,,,,,0,,,84,71
49472,note_off,,,,,128,0,2,,,,,1,,,58,69
49472,note_off,,,,,0,0,2,,,,,1,,,61,69
49472,note_off,,,,,128,0,1,,,,,0,,,70,71
49472,note_off,,,,,0,0,1,,,,,0,,,72,71
49472,note_off,,,,,0,0,1,,,,,0,,,82,71
49472,note_off,,,,,0,0,2,,,,,1,,,66,69
49536,note_on,,,,,64,0,1,,,,,0,,,75,112
49536,note_on,,,,,64,0,2,,,,,1,,,54,109
49536,note_on,,,,,0,0,1,,,,,0,,,87,112
49728,note_on,,,,,0,0,2,,,,,1,,,61,109
49728,note_on,,,,,192,0,2,,,,,1,,,58,109
49728,note_on,,,,,0,0,2,,,,,1,,,66,109
49792,note_off,,,,,64,0,2,,,,,1,,,54,69
49856,note_off,,,,,0,0,2,,,,,1,,,61,69
49856,note_off,,,,,0,0,2,,,,,1,,,66,69
49856,note_off,,,,,64,0,2,,,,,1,,,58,69
49920,note_on,,,,,64,0,2,,,,,1,,,58,109
49920,note_on,,,,,0,0,2,,,,,1,,,61,109
49920,note_on,,,,,0,0,2,,,,,1,,,66,109
49920,note_on,,,,,0,0,1,,,,,0,,,85,112
49920,note_on,,,,,384,0,1,,,,,0,,,73,112
50048,note_off,,,,,128,0,1,,,,,0,,,75,71
50048,note_off,,,,,0,0,2,,,,,1,,,66,69
50048,note_off,,,,,128,0,2,,,,,1,,,58,69
50048,note_off,,,,,0,0,1,,,,,0,,,87,71
50048,note_off,,,,,0,0,1,,,,,0,,,73,71
50048,note_off,,,,,0,0,1,,,,,0,,,85,71
50048,note_off,,,,,0,0,2,,,,,1,,,61,69
50112,note_on,,,,,64,0,1,,,,,0,,,72,112
50112,note_on,,,,,0,0,1,,,,,0,,,84,112
50112,note_on,,,,,64,0,2,,,,,1,,,49,109
50304,note_on,,,,,192,0,2,,,,,1,,,61,109
50304,note_on,,,,,0,0,2,,,,,1,,,66,109
50304,note_on,,,,,0,0,2,,,,,1,,,58,109
50368,note_off,,,,,64,0,2,,,,,1,,,49,69
50432,note_off,,,,,64,0,2,,,,,1,,,61,69
50432,note_off,,,,,0,0,2,,,,,1,,,58,69
50432,note_off,,,,,0,0,2,,,,,1,,,66,69
50496,note_on,,,,,384,0,1,,,,,0,,,70,112
50496,note_on,,,,,64,0,2,,,,,1,,,61,109
50496,note_on,,,,,0,0,1,,,,,0,,,82,112
50496,note_on,,,,,0,0,2,,,,,1,,,66,109
50496,note_on,,,,,0,0,2,,,,,1,,,58,109
50624,note_off,,,,,128,0,1,,,,,0,,,72,71
50624,note_off,,,,,0,0,1,,,,,0,,,82,71
50624,note_off,,,,,0,0,1,,,,,0,,,84,71
50624,note_off,,,,,0,0,1,,,,,0,,,70,71
50624,note_off,,,,,128,0,2,,,,,1,,,61,69
50624,note_off,,,,,0,0,2,,,,,1,,,58,69
50624,note_off,,,,,0,0,2,,,,,1,,,66,69
50688,note_on,,,,,64,0,2,,,,,1,,,49,109
50880,note_on,,,,,192,0,2,,,,,1,,,61,109
50880,note_on,,,,,0,0,2,,,,,1,,,66,109
50944,note_off,,,,,64,0,2,,,,,1,,,49,69
51008,note_off,,,,,0,0,2,,,,,1,,,66,69
51008,note_off,,,,,64,0,2,,,,,1,,,61,69
51072,note_on,,,,,0,0,2,,,,,1,,,66,109
51072,note_on,,,,,64,0,2,,,,,1,,,61,109
51072,note_on,,,,,2752,0,3,,,,,2,,,70,115
51072,note_on,,,,,0,0,1,,,,,0,,,82,112
51072,note_on,,,,,448,0,1,,,,,0,,,70,112
51200,note_off,,,,,128,0,3,,,,,2,,,70,73
51200,note_off,,,,,0,0,2,,,,,1,,,66,69
51200,note_off,,,,,0,0,1,,,,,0,,,82,71
51200,note_off,,,,,128,0,1,,,,,0,,,70,71
51200,note_off,,,,,128,0,2,,,,,1,,,61,69
51264,note_on,,,,,64,0,1,,,,,0,,,70,112
51264,note_on,,,,,64,0,3,,,,,2,,,70,115
51264,note_on,,,,,64,0,2,,,,,1,,,50,109
51264,note_on,,,,,0,0,1,,,,,0,,,82,112
51456,note_on,,,,,0,0,2,,,,,1,,,66,109
51456,note_on,,,,,192,0,2,,,,,1,,,60,109
51456,note_off,,,,,192,0,3,,,,,2,,,70,73
51520,note_off,,,,,64,0,2,,,,,1,,,50,69
51520,note_off,,,,,0,0,1,,,,,0,,,82,71
51520,note_off,,,,,256,0,1,,,,,0,,,70,71
51552,note_on,,,,,96,0,3,,,,,2,,,69,115
51584,note_off,,,,,0,0,2,,,,,1,,,66,69
51584,note_off,,,,,64,0,2,,,,,1,,,60,69
51616,note_off,,,,,64,0,3,,,,,2,,,69,73
51648,note_on,,,,,32,0,3,,,,,2,,,75,115
51648,note_on,,,,,0,0,2,,,,,1,,,66,109
51648,note_on,,,,,128,0,1,,,,,0,,,69,112
51648,note_on,,,,,64,0,2,,,,,1,,,60,109
51648,note_on,,,,,0,0,1,,,,,0,,,81,112
51712,note_off,,,,,64,0,3,,,,,2,,,75,73
51744,note_on,,,,,32,0,3,,,,,2,,,74,115
51776,note_off,,,,,128,0,2,,,,,1,,,60,69
51776,note_off,,,,,128,0,1,,,,,0,,,69,71
51776,note_off,,,,,0,0,2,,,,,1,,,66,69
51776,note_off,,,,,0,0,1,,,,,0,,,81,71
51808,note_off,,,,,64,0,3,,,,,2,,,74,73
51840,note_on,,,,,64,0,1,,,,,0,,,70,112
51840,note_on,,,,,0,0,1,,,,,0,,,82,112
51840,note_on,,,,,64,0,2,,,,,1,,,60,109
51840,note_on,,,,,0,0,2,,,,,1,,,66,109
51840,note_on,,,,,32,0,3,,,,,2,,,82,115
51904,note_off,,,,,64,0,3,,,,,2,,,82,73
51936,note_on,,,,,32,0,3,,,,,2,,,81,115
51968,note_off,,,,,0,0,2,,,,,1,,,66,69
51968,note_off,,,,,128,0,2,,,,,1,,,60,69
52000,note_off,,,,,64,0,3,,,,,2,,,81,73
52032,note_on,,,,,0,0,2,,,,,1,,,66,109
52032,note_on,,,,,32,0,3,,,,,2,,,87,115
52032,note_on,,,,,64,0,2,,,,,1,,,60,109
52096,note_off,,,,,256,0,1,,,,,0,,,70,71
52096,note_off,,,,,0,0,1,,,,,0,,,82,71
52096,note_off,,,,,64,0,3,,,,,2,,,87,73
52128,note_on,,,,,32,0,3,,,,,2,,,86,115
52160,note_off,,,,,128,0,2,,,,,1,,,60,69
52160,note_off,,,,,0,0,2,,,,,1,,,66,69
52192,note_off,,,,,64,0,3,,,,,2,,,86,73
52224,note_on,,,,,128,0,1,,,,,0,,,69,112
52224,note_on,,,,,0,0,1,,,,,0,,,81,112
52224,note_on,,,,,0,0,2,,,,,1,,,66,109
52224,note_on,,,,,32,0,3,,,,,2,,,94,115
52224,note_on,,,,,64,0,2,,,,,1,,,60,109
52288,note_off,,,,,64,0,3,,,,,2,,,94,73
52320,note_on,,,,,32,0,3,,,,,2,,,93,115
52352,note_off,,,,,128,0,1,,,,,0,,,69,71
52352,note_off,,,,,128,0,2,,,,,1,,,60,69
52352,note_off,,,,,0,0,2,,,,,1,,,66,69
52352,note_off,,,,,0,0,1,,,,,0,,,81,71
52384,note_off,,,,,64,0,3,,,,,2,,,93,73
52416,note_on,,,,,32,0,3,,,,,2,,,87,115
52416,note_on,,,,,0,0,1,,,,,0,,,75,112
52416,note_on,,,,,64,0,1,,,,,0,,,87,112
52416,note_on,,,,,64,0,2,,,,,1,,,50,109
52416,note_on,,,,,0,0,3,,,,,2,,,99,115
52608,note_on,,,,,0,0,2,,,,,1,,,60,109
52608,note_on,,,,,0,0,2,,,,,1,,,66,109
52608,note_on,,,,,192,0,2,,,,,1,,,57,109
52672,note_off,,,,,0,0,3,,,,,2,,,99,73
52672,note_off,,,,,256,0,1,,,,,0,,,87,71
52672,note_off,,,,,256,0,3,,,,,2,,,87,73
52672,note_off,,,,,0,0,1,,,,,0,,,75,71
52672,note_off,,,,,64,0,2,,,,,1,,,50,69
52736,note_off,,,,,64,0,2,,,,,1,,,57,69
52736,note_off,,,,,0,0,2,,,,,1,,,66,69
52736,note_off,,,,,0,0,2,,,,,1,,,60,69
52800,note_on,,,,,0,0,2,,,,,1,,,60,109
52800,note_on,,,,,0,0,2,,,,,1,,,66,109
52800,note_on,,,,,128,0,1,,,,,0,,,86,112
52800,note_on,,,,,0,0,1,,,,,0,,,74,112
52800,note_on,,,,,128,0,3,,,,,2,,,86,115
52800,note_on,,,,,0,0,3,,,,,2,,,98,115
52800,note_on,,,,,64,0,2,,,,,1,,,57,109
52928,note_off,,,,,128,0,3,,,,,2,,,86,73
52928,note_off,,,,,0,0,2,,,,,1,,,66,69
52928,note_off,,,,,0,0,2,,,,,1,,,60,69
52928,note_off,,,,,128,0,1,,,,,0,,,86,71
52928,note_off,,,,,0,0,3,,,,,2,,,98,73
52928,note_off,,,,,0,0,1,,,,,0,,,74,71
52928,note_off,,,,,128,0,2,,,,,1,,,57,69
52992,note_on,,,,,0,0,1,,,,,0,,,85,112
52992,note_on,,,,,0,0,3,,,,,2,,,85,115
52992,note_on,,,,,64,0,2,,,,,1,,,51,109
52992,note_on,,,,,64,0,3,,,,,2,,,97,115
52992,note_on,,,,,64,0,1,,,,,0,,,73,112
53184,note_on,,,,,192,0,2,,,,,1,,,57,109
53184,note_on,,,,,0,0,2,,,,,1,,,66,109
53248,note_off,,,,,256,0,1,,,,,0,,,73,71
53248,note_off,,,,,0,0,3,,,,,2,,,85,73
53248,note_off,,,,,0,0,1,,,,,0,,,85,71
53248,note_off,,,,,256,0,3,,,,,2,,,97,73
53248,note_off,,,,,64,0,2,,,,,1,,,51,69
53312,note_off,,,,,64,0,2,,,,,1,,,57,69
53312,note_off,,,,,0,0,2,,,,,1,,,66,69
53376,note_on,,,,,0,0,3,,,,,2,,,96,115
53376,note_on,,,,,128,0,1,,,,,0,,,72,112
53376,note_on,,,,,0,0,1,,,,,0,,,84,112
53376,note_on,,,,,128,0,3,,,,,2,,,84,115
53376,note_on,,,,,64,0,2,,,,,1,,,57,109
53376,note_on,,,,,0,0,2,,,,,1,,,66,109
53504,note_off,,,,,0,0,2,,,,,1,,,66,69
53504,note_off,,,,,128,0,2,,,,,1,,,57,69
53504,note_off,,,,,128,0,3,,,,,2,,,84,73
53504,note_off,,,,,128,0,1,,,,,0,,,72,71
53504,note_off,,,,,0,0,3,,,,,2,,,96,73
53504,note_off,,,,,0,0,1,,,,,0,,,84,71
53568,note_on,,,,,64,0,2,,,,,1,,,51,109
53568,note_on,,,,,0,0,3,,,,,2,,,95,115
53568,note_on,,,,,64,0,1,,,,,0,,,71,112
53568,note_on,,,,,64,0,3,,,,,2,,,83,115
53568,note_on,,,,,0,0,1,,,,,0,,,83,112
53760,note_on,,,,,192,0,2,,,,,1,,,58,109
53760,note_on,,,,,0,0,2,,,,,1,,,66,109
53824,note_off,,,,,0,0,1,,,,,0,,,83,71
53824,note_off,,,,,256,0,1,,,,,0,,,71,71
53824,note_off,,,,,0,0,3,,,,,2,,,95,73
53824,note_off,,,,,256,0,3,,,,,2,,,83,73
53888,note_off,,,,,128,0,2,,,,,1,,,58,69
53888,note_off,,,,,0,0,2,,,,,1,,,66,69
53952,note_on,,,,,0,0,1,,,,,0,,,82,112
53952,note_off,,,,,64,0,2,,,,,1,,,51,69
53952,note_on,,,,,0,0,2,,,,,1,,,58,109
53952,note_on,,,,,0,0,3,,,,,2,,,94,115
53952,note_on,,,,,128,0,1,,,,,0,,,70,112
53952,note_on,,,,,128,0,3,,,,,2,,,82,115
53952,note_on,,,,,0,0,2,,,,,1,,,66,109
54080,note_off,,,,,128,0,3,,,,,2,,,82,73
54080,note_off,,,,,0,0,1,,,,,0,,,82,71
54080,note_off,,,,,0,0,2,,,,,1,,,66,69
54080,note_off,,,,,128,0,2,,,,,1,,,58,69
54080,note_off,,,,,0,0,3,,,,,2,,,94,73
54080,note_off,,,,,128,0,1,,,,,0,,,70,71
54144,note_on,,,,,64,0,2,,,,,1,,,51,109
54144,note_on,,,,,0,0,1,,,,,0,,,82,112
54144,note_on,,,,,64,0,1,,,,,0,,,70,112
54144,note_on,,,,,0,0,3,,,,,2,,,94,115
54144,note_on,,,,,64,0,3,,,,,2,,,82,115
54336,note_on,,,,,0,0,2,,,,,1,,,66,109
54336,note_on,,,,,192,0,2,,,,,1,,,59,109
54400,note_off,,,,,0,0,3,,,,,2,,,94,73
54400,note_off,,,,,0,0,1,,,,,0,,,82,71
54400,note_off,,,,,64,0,2,,,,,1,,,51,69
54400,note_off,,,,,256,0,3,,,,,2,,,82,73
54400,note_off,,,,,256,0,1,,,,,0,,,70,71
54464,note_off,,,,,0,0,2,,,,,1,,,66,69
54464,note_off,,,,,64,0,2,,,,,1,,,59,69
54528,note_on,,,,,0,0,3,,,,,2,,,93,115
54528,note_on,,,,,0,0,1,,,,,0,,,81,112
54528,note_on,,,,,128,0,1,,,,,0,,,69,112
54528,note_on,,,,,0,0,2,,,,,1,,,66,109
54528,note_on,,,,,128,0,3,,,,,2,,,81,115
54528,note_on,,,,,64,0,2,,,,,1,,,59,109
54656,note_off,,,,,128,0,2,,,,,1,,,59,69
54656,note_off,,,,,0,0,1,,,,,0,,,81,71
54656,note_off,,,,,128,0,3,,,,,2,,,81,73
54656,note_off,,,,,128,0,1,,,,,0,,,69,71
54656,note_off,,,,,0,0,3,,,,,2,,,93,73
54656,note_off,,,,,0,0,2,,,,,1,,,66,69
54720,note_on,,,,,64,0,1,,,,,0,,,87,112
54720,note_on,,,,,64,0,2,,,,,1,,,50,109
54720,note_on,,,,,0,0,1,,,,,0,,,75,112
54720,note_on,,,,,0,0,3,,,,,2,,,87,115
54720,note_on,,,,,64,0,3,,,,,2,,,75,115
54912,note_on,,,,,0,0,2,,,,,1,,,60,109
54912,note_on,,,,,0,0,2,,,,,1,,,66,109
54912,note_on,,,,,192,0,2,,,,,1,,,57,109
54976,note_off,,,,,0,0,1,,,,,0,,,75,71
54976,note_off,,,,,256,0,1,,,,,0,,,87,71
54976,note_off,,,,,64,0,2,,,,,1,,,50,69
54976,note_off,,,,,256,0,3,,,,,2,,,75,73
54976,note_off,,,,,0,0,3,,,,,2,,,87,73
55040,note_off,,,,,0,0,2,,,,,1,,,66,69
55040,note_off,,,,,0,0,2,,,,,1,,,60,69
55040,note_off,,,,,64,0,2,,,,,1,,,57,69
55104,note_on,,,,,128,0,1,,,,,0,,,74,112
55104,note_on,,,,,0,0,2,,,,,1,,,60,109
55104,note_on,,,,,0,0,3,,,,,2,,,86,115
55104,note_on,,,,,0,0,1,,,,,0,,,86,112
55104,note_on,,,,,128,0,3,,,,,2,,,74,115
55104,note_on,,,,,64,0,2,,,,,1,,,57,109
55104,note_on,,,,,0,0,2,,,,,1,,,66,109
55232,note_off,,,,,0,0,3,,,,,2,,,86,73
55232,note_off,,,,,128,0,1,,,,,0,,,74,71
55232,note_off,,,,,0,0,2,,,,,1,,,66,69
55232,note_off,,,,,128,0,3,,,,,2,,,74,73
55232,note_off,,,,,0,0,2,,,,,1,,,60,69
55232,note_off,,,,,128,0,2,,,,,1,,,57,69
55232,note_off,,,,,0,0,1,,,,,0,,,86,71
55296,note_on,,,,,64,0,2,,,,,1,,,51,109
55296,note_on,,,,,64,0,1,,,,,0,,,73,112
55296,note_on,,,,,0,0,1,,,,,0,,,85,112
55296,note_on,,,,,64,0,3,,,,,2,,,73,115
55296,note_on,,,,,0,0,3,,,,,2,,,85,115
55488,note_on,,,,,0,0,2,,,,,1,,,66,109
55488,note_on,,,,,192,0,2,,,,,1,,,57,109
55552,note_off,,,,,0,0,1,,,,,0,,,85,71
55552,note_off,,,,,256,0,3,,,,,2,,,73,73
55552,note_off,,,,,0,0,3,,,,,2,,,85,73
55552,note_off,,,,,256,0,1,,,,,0,,,73,71
55616,note_off,,,,,128,0,2,,,,,1,,,57,69
55616,note_off,,,,,0,0,2,,,,,1,,,66,69
55680,note_on,,,,,0,0,3,,,,,2,,,84,115
55680,note_on,,,,,128,0,3,,,,,2,,,72,115
55680,note_off,,,,,64,0,2,,,,,1,,,51,69
55680,note_on,,,,,128,0,1,,,,,0,,,72,112
55680,note_on,,,,,0,0,2,,,,,1,,,57,109
55680,note_on,,,,,0,0,1,,,,,0,,,84,112
55680,note_on,,,,,0,0,2,,,,,1,,,66,109
55808,note_off,,,,,128,0,1,,,,,0,,,72,71
55808,note_off,,,,,128,0,3,,,,,2,,,72,73
55808,note_off,,,,,0,0,1,,,,,0,,,84,71
55808,note_off,,,,,128,0,2,,,,,1,,,57,69
55808,note_off,,,,,0,0,3,,,,,2,,,84,73
55808,note_off,,,,,0,0,2,,,,,1,,,66,69
55872,note_on,,,,,64,0,1,,,,,0,,,71,112
55872,note_on,,,,,0,0,1,,,,,0,,,83,112
55872,note_on,,,,,64,0,2,,,,,1,,,51,109
56064,note_on,,,,,192,0,2,,,,,1,,,58,109
56064,note_on,,,,,0,0,2,,,,,1,,,66,109
56128,note_off,,,,,256,0,1,,,,,0,,,71,71
56128,note_off,,,,,0,0,1,,,,,0,,,83,71
56192,note_off,,,,,128,0,2,,,,,1,,,58,69
56192,note_off,,,,,0,0,2,,,,,1,,,66,69
56256,note_on,,,,,128,0,1,,,,,0,,,70,112
56256,note_on,,,,,0,0,1,,,,,0,,,82,112
56256,note_on,,,,,0,0,2,,,,,1,,,66,109
56256,note_off,,,,,64,0,2,,,,,1,,,51,69
56256,note_on,,,,,0,0,2,,,,,1,,,58,109
56384,note_off,,,,,128,0,2,,,,,1,,,58,69
56384,note_off,,,,,0,0,2,,,,,1,,,66,69
56384,note_off,,,,,0,0,1,,,,,0,,,82,71
56384,note_off,,,,,128,0,1,,,,,0,,,70,71
56448,note_on,,,,,0,0,1,,,,,0,,,82,112
56448,note_on,,,,,64,0,2,,,,,1,,,51,109
56448,note_on,,,,,64,0,1,,,,,0,,,70,112
56640,note_on,,,,,192,0,2,,,,,1,,,59,109
56640,note_on,,,,,0,0,2,,,,,1,,,66,109
56704,note_off,,,,,0,0,1,,,,,0,,,82,71
56704,note_off,,,,,256,0,1,,,,,0,,,70,71
56704,note_off,,,,,64,0,2,,,,,1,,,51,69
56768,note_off,,,,,64,0,2,,,,,1,,,59,69
56768,note_off,,,,,0,0,2,,,,,1,,,66,69
56832,note_on,,,,,128,0,1,,,,,0,,,69,112
56832,note_on,,,,,64,0,2,,,,,1,,,60,109
56832,note_on,,,,,0,0,2,,,,,1,,,66,109
56832,note_on,,,,,0,0,1,,,,,0,,,81,112
56960,note_off,,,,,128,0,1,,,,,0,,,69,71
56960,note_off,,,,,128,0,2,,,,,1,,,60,69
56960,note_off,,,,,0,0,1,,,,,0,,,81,71
56960,note_off,,,,,0,0,2,,,,,1,,,66,69
57024,note_on,,,,,0,0,1,,,,,0,,,87,112
57024,note_on,,,,,64,0,2,,,,,1,,,50,109
57024,note_on,,,,,64,0,1,,,,,0,,,75,112
57216,note_on,,,,,0,0,2,,,,,1,,,60,109
57216,note_on,,,,,192,0,2,,,,,1,,,57,109
57216,note_on,,,,,0,0,2,,,,,1,,,66,109
57280,note_off,,,,,256,0,1,,,,,0,,,75,71
57280,note_off,,,,,64,0,2,,,,,1,,,50,69
57280,note_off,,,,,0,0,1,,,,,0,,,87,71
57344,note_off,,,,,64,0,2,,,,,1,,,57,69
57344,note_off,,,,,0,0,2,,,,,1,,,66,69
57344,note_off,,,,,0,0,2,,,,,1,,,60,69
57408,note_on,,,,,64,0,2,,,,,1,,,57,109
57408,note_on,,,,,128,0,1,,,,,0,,,74,112
57408,note_on,,,,,0,0,2,,,,,1,,,60,109
57408,note_on,,,,,0,0,1,,,,,0,,,86,112
57408,note_on,,,,,0,0,2,,,,,1,,,66,109
57536,note_off,,,,,128,0,2,,,,,1,,,57,69
57536,note_off,,,,,0,0,2,,,,,1,,,60,69
57536,note_off,,,,,0,0,2,,,,,1,,,66,69
57536,note_off,,,,,128,0,1,,,,,0,,,74,71
57536,note_off,,,,,0,0,1,,,,,0,,,86,71
57600,note_on,,,,,64,0,2,,,,,1,,,51,109
57792,note_on,,,,,0,0,2,,,,,1,,,66,109
57792,note_on,,,,,192,0,2,,,,,1,,,57,109
57920,note_off,,,,,0,0,2,,,,,1,,,66,69
57920,note_off,,,,,128,0,2,,,,,1,,,57,69
57984,note_off,,,,,64,0,2,,,,,1,,,51,69
57984,note_on,,,,,0,0,1,,,,,0,,,85,112
57984,note_on,,,,,448,0,1,,,,,0,,,73,112
57984,note_on,,,,,0,0,2,,,,,1,,,66,109
57984,note_on,,,,,0,0,2,,,,,1,,,57,109
58112,note_off,,,,,0,0,2,,,,,1,,,66,69
58112,note_off,,,,,0,0,1,,,,,0,,,85,71
58112,note_off,,,,,128,0,2,,,,,1,,,57,69
58112,note_off,,,,,128,0,1,,,,,0,,,73,71
58176,note_on,,,,,0,0,2,,,,,1,,,66,109
58176,note_on,,,,,0,0,2,,,,,1,,,57,109
58176,note_on,,,,,64,0,2,,,,,1,,,51,109
58304,note_off,,,,,128,0,2,,,,,1,,,57,69
58304,note_off,,,,,0,0,2,,,,,1,,,66,69
58368,note_on,,,,,0,0,2,,,,,1,,,66,109
58368,note_on,,,,,64,0,2,,,,,1,,,57,109
58496,note_off,,,,,128,0,2,,,,,1,,,57,69
58496,note_off,,,,,0,0,2,,,,,1,,,66,69
58560,note_on,,,,,0,0,1,,,,,0,,,84,112
58560,note_on,,,,,448,0,1,,,,,0,,,72,112
58560,note_on,,,,,0,0,2,,,,,1,,,57,109
58560,note_on,,,,,0,0,2,,,,,1,,,66,109
58560,note_off,,,,,64,0,2,,,,,1,,,51,69
58688,note_off,,,,,128,0,1,,,,,0,,,72,71
58688,note_off,,,,,0,0,2,,,,,1,,,66,69
58688,note_off,,,,,0,0,1,,,,,0,,,84,71
58688,note_off,,,,,128,0,2,,,,,1,,,57,69
58752,note_on,,,,,64,0,2,,,,,1,,,51,109
58944,note_on,,,,,0,0,2,,,,,1,,,66,109
58944,note_on,,,,,192,0,2,,,,,1,,,58,109
59072,note_off,,,,,128,0,2,,,,,1,,,58,69
59072,note_off,,,,,0,0,2,,,,,1,,,66,69
59136,note_on,,,,,0,0,2,,,,,1,,,66,109
59136,note_on,,,,,0,0,2,,,,,1,,,58,109
59136,note_off,,,,,64,0,2,,,,,1,,,51,69
59136,note_on,,,,,448,0,1,,,,,0,,,71,112
59136,note_on,,,,,0,0,1,,,,,0,,,83,112
59264,note_off,,,,,128,0,2,,,,,1,,,58,69
59264,note_off,,,,,0,0,1,,,,,0,,,83,71
59264,note_off,,,,,128,0,1,,,,,0,,,71,71
59264,note_off,,,,,0,0,2,,,,,1,,,66,69
59328,note_on,,,,,0,0,2,,,,,1,,,66,109
59328,note_on,,,,,0,0,2,,,,,1,,,58,109
59328,note_on,,,,,64,0,2,,,,,1,,,51,109
59456,note_off,,,,,0,0,2,,,,,1,,,66,69
59456,note_off,,,,,128,0,2,,,,,1,,,58,69
59520,note_on,,,,,0,0,2,,,,,1,,,66,109
59520,note_on,,,,,64,0,2,,,,,1,,,58,109
59648,note_off,,,,,0,0,2,,,,,1,,,66,69
59648,note_off,,,,,128,0,2,,,,,1,,,58,69
59712,note_on,,,,,448,0,1,,,,,0,,,70,112
59712,note_on,,,,,0,0,2,,,,,1,,,58,109
59712,note_on,,,,,0,0,2,,,,,1,,,66,109
59712,note_off,,,,,64,0,2,,,,,1,,,51,69
59712,note_on,,,,,0,0,1,,,,,0,,,82,112
59840,note_off,,,,,0,0,2,,,,,1,,,66,69
59840,note_off,,,,,0,0,1,,,,,0,,,82,71
59840,note_off,,,,,128,0,2,,,,,1,,,58,69
59840,note_off,,,,,128,0,1,,,,,0,,,70,71
59904,note_on,,,,,64,0,2,,,,,1,,,51,109
60096,note_on,,,,,0,0,2,,,,,1,,,66,109
60096,note_on,,,,,192,0,2,,,,,1,,,58,109
60224,note_off,,,,,128,0,2,,,,,1,,,58,69
60224,note_off,,,,,0,0,2,,,,,1,,,66,69
60288,note_off,,,,,64,0,2,,,,,1,,,51,69
60288,note_on,,,,,0,0,2,,,,,1,,,60,109
60288,note_on,,,,,0,0,2,,,,,1,,,66,109
60416,note_off,,,,,128,0,2,,,,,1,,,60,69
60416,note_off,,,,,0,0,2,,,,,1,,,66,69
60480,note_on,,,,,0,0,1,,,,,0,,,82,112
60480,note_on,,,,,64,0,2,,,,,1,,,60,109
60480,note_on,,,,,0,0,2,,,,,1,,,66,109
60480,note_on,,,,,640,0,1,,,,,0,,,70,112
60608,note_off,,,,,0,0,2,,,,,1,,,66,69
60608,note_off,,,,,128,0,2,,,,,1,,,60,69
60672,note_on,,,,,0,0,2,,,,,1,,,66,109
60672,note_on,,,,,64,0,2,,,,,1,,,60,109
60800,note_off,,,,,0,0,2,,,,,1,,,66,69
60800,note_off,,,,,128,0,2,,,,,1,,,60,69
60864,note_on,,,,,0,0,2,,,,,1,,,66,109
60864,note_on,,,,,64,0,2,,,,,1,,,60,109
60992,note_off,,,,,0,0,2,,,,,1,,,66,69
60992,note_off,,,,,128,0,2,,,,,1,,,60,69
61056,note_on,,,,,64,0,2,,,,,1,,,60,109
61056,note_on,,,,,0,0,2,,,,,1,,,66,109
61184,note_off,,,,,128,0,2,,,,,1,,,60,69
61184,note_off,,,,,0,0,2,,,,,1,,,66,69
61248,note_off,,,,,0,0,1,,,,,0,,,82,71
61248,note_off,,,,,768,0,1,,,,,0,,,70,71
61344,note_on,,,,,0,0,1,,,,,0,,,81,112
61344,note_on,,,,,96,0,1,,,,,0,,,69,112
61472,note_off,,,,,0,0,1,,,,,0,,,81,71
61472,note_off,,,,,128,0,1,,,,,0,,,69,71
61632,note_on,,,,,160,0,1,,,,,0,,,82,112
61632,note_on,,,,,0,0,1,,,,,0,,,70,112
61888,note_off,,,,,256,0,1,,,,,0,,,82,71
61888,note_off,,,,,0,0,1,,,,,0,,,70,71
62016,note_on,,,,,128,0,1,,,,,0,,,69,112
62016,note_on,,,,,0,0,1,,,,,0,,,81,112
62144,note_off,,,,,128,0,1,,,,,0,,,69,71
62144,note_off,,,,,0,0,1,,,,,0,,,81,71
62208,note_on,,,,,64,0,1,,,,,0,,,73,112
62208,note_on,,,,,0,0,1,,,,,0,,,85,112
62592,note_off,,,,,384,0,1,,,,,0,,,73,71
62592,note_off,,,,,0,0,1,,,,,0,,,85,71
62784,note_on,,,,,0,0,1,,,,,0,,,84,112
62784,note_on,,,,,192,0,1,,,,,0,,,72,112
63168,note_off,,,,,0,0,1,,,,,0,,,84,71
63168,note_off,,,,,384,0,1,,,,,0,,,72,71
63360,note_on,,,,,192,0,1,,,,,0,,,92,112
63360,note_on,,,,,0,0,1,,,,,0,,,80,112
63744,note_off,,,,,0,0,1,,,,,0,,,80,71
63744,note_off,,,,,384,0,1,,,,,0,,,92,71
63936,note_on,,,,,192,0,1,,,,,0,,,90,112
63936,note_on,,,,,0,0,1,,,,,0,,,78,112
64320,note_off,,,,,0,0,1,,,,,0,,,78,71
64320,note_off,,,,,384,0,1,,,,,0,,,90,71
65088,note_on,,,,,0,0,1,,,,,0,,,90,112
65088,note_on,,,,,3904,0,2,,,,,1,,,81,109
65088,note_on,,,,,768,0,1,,,,,0,,,87,112
65152,note_off,,,,,64,0,2,,,,,1,,,81,69
65152,note_off,,,,,64,0,1,,,,,0,,,90,71
65184,note_on,,,,,32,0,2,,,,,1,,,84,109
65184,note_on,,,,,32,0,1,,,,,0,,,92,112
65216,note_off,,,,,32,0,1,,,,,0,,,87,71
65248,note_off,,,,,64,0,2,,,,,1,,,84,69
65248,note_off,,,,,32,0,1,,,,,0,,,92,71
65280,note_on,,,,,32,0,1,,,,,0,,,87,112
65280,note_on,,,,,0,0,1,,,,,0,,,90,112
65280,note_on,,,,,32,0,2,,,,,1,,,81,109
65344,note_off,,,,,64,0,1,,,,,0,,,90,71
65344,note_off,,,,,64,0,2,,,,,1,,,81,69
65376,note_on,,,,,32,0,1,,,,,0,,,92,112
65376,note_on,,,,,32,0,2,,,,,1,,,84,109
65408,note_off,,,,,32,0,1,,,,,0,,,87,71
65440,note_off,,,,,64,0,2,,,,,1,,,84,69
65440,note_off,,,,,32,0,1,,,,,0,,,92,71
65472,note_on,,,,,32,0,1,,,,,0,,,87,112
65472,note_on,,,,,32,0,2,,,,,1,,,81,109
65472,note_on,,,,,0,0,1,,,,,0,,,90,112
65536,note_off,,,,,64,0,1,,,,,0,,,90,71
65536,note_off,,,,,64,0,2,,,,,1,,,81,69
65568,note_on,,,,,32,0,2,,,,,1,,,84,109
65568,note_on,,,,,32,0,1,,,,,0,,,92,112
65600,note_off,,,,,32,0,1,,,,,0,,,87,71
65632,note_off,,,,,32,0,1,,,,,0,,,92,71
65632,note_off,,,,,64,0,2,,,,,1,,,84,69
65664,note_on,,,,,32,0,2,,,,,1,,,81,109
65664,note_on,,,,,0,0,1,,,,,0,,,90,112
65664,note_on,,,,,0,0,1,,,,,0,,,87,112
65664,note_on,,,,,32,0,1,,,,,0,,,90,112
65792,note_off,,,,,128,0,1,,,,,0,,,90,71
65792,note_off,,,,,0,0,1,,,,,0,,,87,71
65792,note_off,,,,,0,0,1,,,,,0,,,90,71
65792,note_off,,,,,128,0,2,,,,,1,,,81,69
65856,note_on,,,,,64,0,1,,,,,0,,,87,112
65856,note_on,,,,,0,0,1,,,,,0,,,84,112
65856,note_on,,,,,64,0,2,,,,,1,,,78,109
65984,note_off,,,,,128,0,1,,,,,0,,,87,71
65984,note_off,,,,,128,0,2,,,,,1,,,78,69
65984,note_off,,,,,0,0,1,,,,,0,,,84,71
66048,note_on,,,,,0,0,1,,,,,0,,,90,112
66048,note_on,,,,,64,0,1,,,,,0,,,87,112
66048,note_on,,,,,64,0,2,,,,,1,,,81,109
66176,note_off,,,,,128,0,2,,,,,1,,,81,69
66176,note_off,,,,,128,0,1,,,,,0,,,87,71
66176,note_off,,,,,0,0,1,,,,,0,,,90,71
66240,note_on,,,,,64,0,2,,,,,1,,,82,109
66240,note_on,,,,,0,0,1,,,,,0,,,89,112
66240,note_on,,,,,64,0,1,,,,,0,,,85,112
66368,note_off,,,,,128,0,2,,,,,1,,,82,69
66368,note_off,,,,,128,0,1,,,,,0,,,85,71
66368,note_off,,,,,0,0,1,,,,,0,,,89,71
66432,note_on,,,,,64,0,2,,,,,1,,,77,109
66432,note_on,,,,,0,0,1,,,,,0,,,82,112
66432,note_on,,,,,64,0,1,,,,,0,,,85,112
66560,note_off,,,,,0,0,1,,,,,0,,,82,71
66560,note_off,,,,,128,0,2,,,,,1,,,77,69
66560,note_off,,,,,128,0,1,,,,,0,,,85,71
66624,note_on,,,,,64,0,2,,,,,1,,,82,109
66624,note_on,,,,,64,0,1,,,,,0,,,85,112
66624,note_on,,,,,0,0,1,,,,,0,,,89,112
66752,note_off,,,,,0,0,1,,,,,0,,,89,71
66752,note_off,,,,,128,0,1,,,,,0,,,85,71
66752,note_off,,,,,128,0,2,,,,,1,,,82,69
66816,note_on,,,,,64,0,1,,,,,0,,,82,112
66816,note_on,,,,,64,0,2,,,,,1,,,77,109
66816,note_on,,,,,0,0,1,,,,,0,,,85,112
66944,note_off,,,,,128,0,1,,,,,0,,,82,71
66944,note_off,,,,,128,0,2,,,,,1,,,77,69
66944,note_off,,,,,0,0,1,,,,,0,,,85,71
67008,note_on,,,,,64,0,2,,,,,1,,,73,109
67008,note_on,,,,,64,0,1,,,,,0,,,77,112
67008,note_on,,,,,0,0,1,,,,,0,,,82,112
67136,note_off,,,,,0,0,1,,,,,0,,,82,71
67136,note_off,,,,,128,0,1,,,,,0,,,77,71
67136,note_off,,,,,128,0,2,,,,,1,,,73,69
67200,note_on,,,,,64,0,2,,,,,1,,,77,109
67200,note_on,,,,,64,0,1,,,,,0,,,82,112
67200,note_on,,,,,0,0,1,,,,,0,,,85,112
67328,note_off,,,,,0,0,1,,,,,0,,,85,71
67328,note_off,,,,,128,0,2,,,,,1,,,77,69
67328,note_off,,,,,128,0,1,,,,,0,,,82,71
67392,note_on,,,,,64,0,2,,,,,1,,,73,109
67392,note_on,,,,,0,0,1,,,,,0,,,82,112
67392,note_on,,,,,64,0,1,,,,,0,,,78,112
67456,note_off,,,,,64,0,1,,,,,0,,,82,71
67456,note_off,,,,,64,0,2,,,,,1,,,73,69
67488,note_on,,,,,32,0,2,,,,,1,,,76,109
67488,note_on,,,,,32,0,1,,,,,0,,,84,112
67520,note_off,,,,,32,0,1,,,,,0,,,78,71
67552,note_off,,,,,64,0,2,,,,,1,,,76,69
67552,note_off,,,,,32,0,1,,,,,0,,,84,71
67584,note_on,,,,,32,0,2,,,,,1,,,73,109
67584,note_on,,,,,32,0,1,,,,,0,,,78,112
67584,note_on,,,,,0,0,1,,,,,0,,,82,112
67648,note_off,,,,,64,0,1,,,,,0,,,82,71
67648,note_off,,,,,64,0,2,,,,,1,,,73,69
67680,note_on,,,,,32,0,2,,,,,1,,,76,109
67680,note_on,,,,,32,0,1,,,,,0,,,84,112
67712,note_off,,,,,32,0,1,,,,,0,,,78,71
67744,note_off,,,,,64,0,2,,,,,1,,,76,69
67744,note_off,,,,,32,0,1,,,,,0,,,84,71
67776,note_on,,,,,0,0,1,,,,,0,,,82,112
67776,note_on,,,,,32,0,1,,,,,0,,,78,112
67776,note_on,,,,,32,0,2,,,,,1,,,73,109
67840,note_off,,,,,64,0,2,,,,,1,,,73,69
67840,note_off,,,,,64,0,1,,,,,0,,,82,71
67872,note_on,,,,,32,0,2,,,,,1,,,76,109
67872,note_on,,,,,32,0,1,,,,,0,,,84,112
67904,note_off,,,,,32,0,1,,,,,0,,,78,71
67936,note_off,,,,,32,0,1,,,,,0,,,84,71
67936,note_off,,,,,64,0,2,,,,,1,,,76,69
67968,note_on,,,,,32,0,1,,,,,0,,,78,112
67968,note_on,,,,,32,0,2,,,,,1,,,73,109
67968,note_on,,,,,0,0,1,,,,,0,,,82,112
68096,note_off,,,,,128,0,1,,,,,0,,,78,71
68096,note_off,,,,,128,0,2,,,,,1,,,73,69
68096,note_off,,,,,0,0,1,,,,,0,,,82,71
68160,note_on,,,,,64,0,2,,,,,1,,,70,109
68160,note_on,,,,,0,0,1,,,,,0,,,78,112
68160,note_on,,,,,64,0,1,,,,,0,,,76,112
68288,note_off,,,,,128,0,1,,,,,0,,,76,71
68288,note_off,,,,,0,0,1,,,,,0,,,78,71
68288,note_off,,,,,128,0,2,,,,,1,,,70,69
68352,note_on,,,,,0,0,1,,,,,0,,,82,112
68352,note_on,,,,,64,0,1,,,,,0,,,78,112
68352,note_on,,,,,64,0,2,,,,,1,,,73,109
68480,note_off,,,,,128,0,1,,,,,0,,,78,71
68480,note_off,,,,,0,0,1,,,,,0,,,82,71
68480,note_off,,,,,128,0,2,,,,,1,,,73,69
68544,note_on,,,,,64,0,2,,,,,1,,,77,109
68544,note_on,,,,,64,0,1,,,,,0,,,82,112
68544,note_on,,,,,0,0,1,,,,,0,,,85,112
68672,note_off,,,,,0,0,1,,,,,0,,,85,71
68672,note_off,,,,,128,0,1,,,,,0,,,82,71
68672,note_off,,,,,128,0,2,,,,,1,,,77,69
68736,note_on,,,,,0,0,1,,,,,0,,,82,112
68736,note_on,,,,,64,0,2,,,,,1,,,73,109
68736,note_on,,,,,64,0,1,,,,,0,,,77,112
68864,note_off,,,,,128,0,2,,,,,1,,,73,69
68864,note_off,,,,,128,0,1,,,,,0,,,77,71
68864,note_off,,,,,0,0,1,,,,,0,,,82,71
68928,note_on,,,,,64,0,1,,,,,0,,,82,112
68928,note_on,,,,,64,0,2,,,,,1,,,77,109
68928,note_on,,,,,0,0,1,,,,,0,,,85,112
69056,note_off,,,,,128,0,2,,,,,1,,,77,69
69056,note_off,,,,,0,0,1,,,,,0,,,85,71
69056,note_off,,,,,128,0,1,,,,,0,,,82,71
69120,note_on,,,,,64,0,1,,,,,0,,,77,112
69120,note_on,,,,,64,0,2,,,,,1,,,73,109
69120,note_on,,,,,0,0,1,,,,,0,,,82,112
69248,note_off,,,,,128,0,1,,,,,0,,,77,71
69248,note_off,,,,,0,0,1,,,,,0,,,82,71
69248,note_off,,,,,128,0,2,,,,,1,,,73,69
69312,note_on,,,,,64,0,1,,,,,0,,,77,112
69312,note_on,,,,,64,0,2,,,,,1,,,70,109
69312,note_on,,,,,0,0,1,,,,,0,,,73,112
69440,note_off,,,,,128,0,2,,,,,1,,,70,69
69440,note_off,,,,,128,0,1,,,,,0,,,77,71
69440,note_off,,,,,0,0,1,,,,,0,,,73,71
69504,note_on,,,,,0,0,1,,,,,0,,,77,112
69504,note_on,,,,,64,0,1,,,,,0,,,82,112
69504,note_on,,,,,64,0,2,,,,,1,,,73,109
69632,note_off,,,,,0,0,1,,,,,0,,,77,71
69632,note_off,,,,,128,0,2,,,,,1,,,73,69
69632,note_off,,,,,128,0,1,,,,,0,,,82,71
69696,note_on,,,,,64,0,1,,,,,0,,,90,112
69696,note_on,,,,,64,0,2,,,,,1,,,69,109
69696,note_on,,,,,0,0,1,,,,,0,,,87,112
69760,note_off,,,,,64,0,1,,,,,0,,,90,71
69760,note_off,,,,,64,0,2,,,,,1,,,69,69
69792,note_on,,,,,32,0,1,,,,,0,,,92,112
69792,note_on,,,,,32,0,2,,,,,1,,,72,109
69824,note_off,,,,,32,0,1,,,,,0,,,87,71
69856,note_off,,,,,32,0,1,,,,,0,,,92,71
69856,note_off,,,,,64,0,2,,,,,1,,,72,69
69888,note_on,,,,,32,0,1,,,,,0,,,90,112
69888,note_on,,,,,0,0,1,,,,,0,,,87,112
69888,note_on,,,,,32,0,2,,,,,1,,,69,109
69952,note_off,,,,,64,0,2,,,,,1,,,69,69
69952,note_off,,,,,64,0,1,,,,,0,,,90,71
69984,note_on,,,,,32,0,2,,,,,1,,,72,109
69984,note_on,,,,,32,0,1,,,,,0,,,92,112
70016,note_off,,,,,32,0,1,,,,,0,,,87,71
70048,note_off,,,,,64,0,2,,,,,1,,,72,69
70048,note_off,,,,,32,0,1,,,,,0,,,92,71
70080,note_on,,,,,32,0,2,,,,,1,,,69,109
70080,note_on,,,,,32,0,1,,,,,0,,,90,112
70080,note_on,,,,,0,0,1,,,,,0,,,87,112
70144,note_off,,,,,64,0,2,,,,,1,,,69,69
70144,note_off,,,,,64,0,1,,,,,0,,,90,71
70176,note_on,,,,,32,0,1,,,,,0,,,92,112
70176,note_on,,,,,32,0,2,,,,,1,,,72,109
70208,note_off,,,,,32,0,1,,,,,0,,,87,71
70240,note_off,,,,,64,0,2,,,,,1,,,72,69
70240,note_off,,,,,32,0,1,,,,,0,,,92,71
70272,note_on,,,,,32,0,2,,,,,1,,,69,109
70272,note_on,,,,,0,0,1,,,,,0,,,87,112
70272,note_on,,,,,32,0,1,,,,,0,,,90,112
70400,note_off,,,,,0,0,1,,,,,0,,,87,71
70400,note_off,,,,,128,0,2,,,,,1,,,69,69
70400,note_off,,,,,128,0,1,,,,,0,,,90,71
70464,note_on,,,,,64,0,2,,,,,1,,,66,109
70464,note_on,,,,,64,0,1,,,,,0,,,87,112
70464,note_on,,,,,0,0,1,,,,,0,,,84,112
70592,note_off,,,,,0,0,1,,,,,0,,,84,71
70592,note_off,,,,,128,0,2,,,,,1,,,66,69
70592,note_off,,,,,128,0,1,,,,,0,,,87,71
70656,note_on,,,,,64,0,2,,,,,1,,,69,109
70656,note_on,,,,,64,0,1,,,,,0,,,87,112
70656,note_on,,,,,0,0,1,,,,,0,,,90,112
70784,note_off,,,,,128,0,2,,,,,1,,,69,69
70784,note_off,,,,,0,0,1,,,,,0,,,90,71
70784,note_off,,,,,128,0,1,,,,,0,,,87,71
70848,note_on,,,,,64,0,2,,,,,1,,,70,109
70848,note_on,,,,,64,0,1,,,,,0,,,85,112
70848,note_on,,,,,0,0,1,,,,,0,,,89,112
70976,note_off,,,,,0,0,1,,,,,0,,,89,71
70976,note_off,,,,,128,0,1,,,,,0,,,85,71
70976,note_off,,,,,128,0,2,,,,,1,,,70,69
71040,note_on,,,,,64,0,2,,,,,1,,,65,109
71040,note_on,,,,,64,0,1,,,,,0,,,85,112
71040,note_on,,,,,0,0,1,,,,,0,,,82,112
71168,note_off,,,,,128,0,1,,,,,0,,,85,71
71168,note_off,,,,,128,0,2,,,,,1,,,65,69
71168,note_off,,,,,0,0,1,,,,,0,,,82,71
71232,note_on,,,,,0,0,1,,,,,0,,,89,112
71232,note_on,,,,,64,0,2,,,,,1,,,70,109
71232,note_on,,,,,64,0,1,,,,,0,,,85,112
71360,note_off,,,,,128,0,2,,,,,1,,,70,69
71360,note_off,,,,,128,0,1,,,,,0,,,85,71
71360,note_off,,,,,0,0,1,,,,,0,,,89,71
71424,note_on,,,,,0,0,1,,,,,0,,,82,112
71424,note_on,,,,,64,0,2,,,,,1,,,65,109
71424,note_on,,,,,64,0,1,,,,,0,,,85,112
71552,note_off,,,,,128,0,2,,,,,1,,,65,69
71552,note_off,,,,,128,0,1,,,,,0,,,85,71
71552,note_off,,,,,0,0,1,,,,,0,,,82,71
71616,note_on,,,,,64,0,1,,,,,0,,,82,112
71616,note_on,,,,,64,0,2,,,,,1,,,61,109
71616,note_on,,,,,0,0,1,,,,,0,,,77,112
71744,note_off,,,,,128,0,2,,,,,1,,,61,69
71744,note_off,,,,,0,0,1,,,,,0,,,77,71
71744,note_off,,,,,128,0,1,,,,,0,,,82,71
71808,note_on,,,,,0,0,1,,,,,0,,,82,112
71808,note_on,,,,,64,0,2,,,,,1,,,65,109
71808,note_on,,,,,64,0,1,,,,,0,,,85,112
71936,note_off,,,,,128,0,2,,,,,1,,,65,69
71936,note_off,,,,,0,0,1,,,,,0,,,82,71
71936,note_off,,,,,128,0,1,,,,,0,,,85,71
72000,note_on,,,,,64,0,2,,,,,1,,,61,109
72000,note_on,,,,,0,0,1,,,,,0,,,82,112
72000,note_on,,,,,64,0,1,,,,,0,,,78,112
72064,note_off,,,,,64,0,1,,,,,0,,,82,71
72064,note_off,,,,,64,0,2,,,,,1,,,61,69
72096,note_on,,,,,32,0,2,,,,,1,,,64,109
72096,note_on,,,,,32,0,1,,,,,0,,,84,112
72128,note_off,,,,,32,0,1,,,,,0,,,78,71
72160,note_off,,,,,32,0,1,,,,,0,,,84,71
72160,note_off,,,,,64,0,2,,,,,1,,,64,69
72192,note_on,,,,,32,0,2,,,,,1,,,61,109
72192,note_on,,,,,0,0,1,,,,,0,,,82,112
72192,note_on,,,,,32,0,1,,,,,0,,,78,112
72256,note_off,,,,,64,0,1,,,,,0,,,82,71
72256,note_off,,,,,64,0,2,,,,,1,,,61,69
72288,note_on,,,,,32,0,1,,,,,0,,,84,112
72288,note_on,,,,,32,0,2,,,,,1,,,64,109
72320,note_off,,,,,32,0,1,,,,,0,,,78,71
72352,note_off,,,,,32,0,1,,,,,0,,,84,71
72352,note_off,,,,,64,0,2,,,,,1,,,64,69
72384,note_on,,,,,32,0,2,,,,,1,,,61,109
72384,note_on,,,,,32,0,1,,,,,0,,,78,112
72384,note_on,,,,,0,0,1,,,,,0,,,82,112
72448,note_off,,,,,64,0,2,,,,,1,,,61,69
72448,note_off,,,,,64,0,1,,,,,0,,,82,71
72480,note_on,,,,,32,0,2,,,,,1,,,64,109
72480,note_on,,,,,32,0,1,,,,,0,,,84,112
72512,note_off,,,,,32,0,1,,,,,0,,,78,71
72544,note_off,,,,,32,0,1,,,,,0,,,84,71
72544,note_off,,,,,64,0,2,,,,,1,,,64,69
72576,note_on,,,,,32,0,2,,,,,1,,,61,109
72576,note_on,,,,,0,0,1,,,,,0,,,82,112
72576,note_on,,,,,32,0,1,,,,,0,,,78,112
72704,note_off,,,,,128,0,2,,,,,1,,,61,69
72704,note_off,,,,,128,0,1,,,,,0,,,78,71
72704,note_off,,,,,0,0,1,,,,,0,,,82,71
72768,note_on,,,,,0,0,1,,,,,0,,,78,112
72768,note_on,,,,,64,0,1,,,,,0,,,76,112
72768,note_on,,,,,64,0,2,,,,,1,,,58,109
72896,note_off,,,,,128,0,1,,,,,0,,,76,71
72896,note_off,,,,,128,0,2,,,,,1,,,58,69
72896,note_off,,,,,0,0,1,,,,,0,,,78,71
72960,note_on,,,,,64,0,1,,,,,0,,,78,112
72960,note_on,,,,,0,0,1,,,,,0,,,82,112
72960,note_on,,,,,64,0,2,,,,,1,,,61,109
73088,note_off,,,,,0,0,1,,,,,0,,,82,71
73088,note_off,,,,,128,0,2,,,,,1,,,61,69
73088,note_off,,,,,128,0,1,,,,,0,,,78,71
73152,note_on,,,,,64,0,1,,,,,0,,,82,112
73152,note_on,,,,,0,0,1,,,,,0,,,85,112
73152,note_on,,,,,64,0,2,,,,,1,,,65,109
73280,note_off,,,,,0,0,1,,,,,0,,,85,71
73280,note_off,,,,,128,0,2,,,,,1,,,65,69
73280,note_off,,,,,128,0,1,,,,,0,,,82,71
73344,note_on,,,,,0,0,1,,,,,0,,,82,112
73344,note_on,,,,,64,0,1,,,,,0,,,77,112
73344,note_on,,,,,64,0,2,,,,,1,,,61,109
73472,note_off,,,,,0,0,1,,,,,0,,,82,71
73472,note_off,,,,,128,0,2,,,,,1,,,61,69
73472,note_off,,,,,128,0,1,,,,,0,,,77,71
73536,note_on,,,,,64,0,1,,,,,0,,,82,112
73536,note_on,,,,,0,0,1,,,,,0,,,85,112
73536,note_on,,,,,64,0,2,,,,,1,,,65,109
73664,note_off,,,,,0,0,1,,,,,0,,,85,71
73664,note_off,,,,,128,0,1,,,,,0,,,82,71
73664,note_off,,,,,128,0,2,,,,,1,,,65,69
73728,note_on,,,,,64,0,1,,,,,0,,,77,112
73728,note_on,,,,,0,0,1,,,,,0,,,82,112
73728,note_on,,,,,64,0,2,,,,,1,,,61,109
73856,note_off,,,,,0,0,1,,,,,0,,,82,71
73856,note_off,,,,,128,0,2,,,,,1,,,61,69
73856,note_off,,,,,128,0,1,,,,,0,,,77,71
73920,note_on,,,,,64,0,2,,,,,1,,,58,109
73920,note_on,,,,,64,0,1,,,,,0,,,73,112
73920,note_on,,,,,0,0,1,,,,,0,,,77,112
74048,note_off,,,,,128,0,1,,,,,0,,,73,71
74048,note_off,,,,,0,0,1,,,,,0,,,77,71
74048,note_off,,,,,128,0,2,,,,,1,,,58,69
74112,note_on,,,,,64,0,1,,,,,0,,,77,112
74112,note_on,,,,,0,0,1,,,,,0,,,82,112
74112,note_on,,,,,64,0,2,,,,,1,,,61,109
74240,note_off,,,,,128,0,2,,,,,1,,,61,69
74240,note_off,,,,,128,0,1,,,,,0,,,77,71
74240,note_off,,,,,0,0,1,,,,,0,,,82,71
74304,note_on,,,,,64,0,1,,,,,0,,,66,112
74304,note_on,,,,,0,0,1,,,,,0,,,63,112
74304,note_on,,,,,64,0,2,,,,,1,,,57,109
74368,note_off,,,,,64,0,1,,,,,0,,,66,71
74368,note_off,,,,,64,0,2,,,,,1,,,57,69
74400,note_on,,,,,32,0,2,,,,,1,,,60,109
74400,note_on,,,,,32,0,1,,,,,0,,,68,112
74432,note_off,,,,,32,0,1,,,,,0,,,63,71
74464,note_off,,,,,32,0,1,,,,,0,,,68,71
74464,note_off,,,,,64,0,2,,,,,1,,,60,69
74496,note_on,,,,,32,0,1,,,,,0,,,66,112
74496,note_on,,,,,32,0,2,,,,,1,,,57,109
74496,note_on,,,,,0,0,1,,,,,0,,,63,112
74560,note_off,,,,,64,0,1,,,,,0,,,66,71
74560,note_off,,,,,64,0,2,,,,,1,,,57,69
74592,note_on,,,,,32,0,1,,,,,0,,,68,112
74592,note_on,,,,,32,0,2,,,,,1,,,60,109
74624,note_off,,,,,32,0,1,,,,,0,,,63,71
74656,note_off,,,,,64,0,2,,,,,1,,,60,69
74656,note_off,,,,,32,0,1,,,,,0,,,68,71
74688,note_on,,,,,32,0,2,,,,,1,,,57,109
74688,note_on,,,,,0,0,1,,,,,0,,,63,112
74688,note_on,,,,,32,0,1,,,,,0,,,66,112
74752,note_off,,,,,64,0,1,,,,,0,,,66,71
74752,note_off,,,,,64,0,2,,,,,1,,,57,69
74784,note_on,,,,,32,0,2,,,,,1,,,60,109
74784,note_on,,,,,32,0,1,,,,,0,,,68,112
74816,note_off,,,,,32,0,1,,,,,0,,,63,71
74848,note_off,,,,,32,0,1,,,,,0,,,68,71
74848,note_off,,,,,64,0,2,,,,,1,,,60,69
74880,note_on,,,,,32,0,2,,,,,1,,,57,109
74880,note_on,,,,,32,0,1,,,,,0,,,63,112
74880,note_on,,,,,0,0,1,,,,,0,,,66,112
75008,note_off,,,,,0,0,1,,,,,0,,,66,71
75008,note_off,,,,,128,0,1,,,,,0,,,63,71
75008,note_off,,,,,128,0,2,,,,,1,,,57,69
75072,note_on,,,,,0,0,1,,,,,0,,,63,112
75072,note_on,,,,,64,0,1,,,,,0,,,60,112
75072,note_on,,,,,64,0,2,,,,,1,,,54,109
75200,note_off,,,,,0,0,1,,,,,0,,,63,71
75200,note_off,,,,,128,0,1,,,,,0,,,60,71
75200,note_off,,,,,128,0,2,,,,,1,,,54,69
75264,note_on,,,,,64,0,1,,,,,0,,,63,112
75264,note_on,,,,,0,0,1,,,,,0,,,66,112
75264,note_on,,,,,64,0,2,,,,,1,,,57,109
75392,note_off,,,,,128,0,1,,,,,0,,,63,71
75392,note_off,,,,,128,0,2,,,,,1,,,57,69
75392,note_off,,,,,0,0,1,,,,,0,,,66,71
75456,note_on,,,,,0,0,1,,,,,0,,,66,112
75456,note_on,,,,,64,0,2,,,,,1,,,57,109
75456,note_on,,,,,64,0,1,,,,,0,,,63,112
75520,note_off,,,,,64,0,2,,,,,1,,,57,69
75520,note_off,,,,,64,0,1,,,,,0,,,66,71
75552,note_on,,,,,32,0,2,,,,,1,,,60,109
75552,note_on,,,,,32,0,1,,,,,0,,,68,112
75584,note_off,,,,,32,0,1,,,,,0,,,63,71
75616,note_off,,,,,32,0,1,,,,,0,,,68,71
75616,note_off,,,,,64,0,2,,,,,1,,,60,69
75648,note_on,,,,,32,0,1,,,,,0,,,63,112
75648,note_on,,,,,32,0,2,,,,,1,,,57,109
75648,note_on,,,,,0,0,1,,,,,0,,,66,112
75712,note_off,,,,,64,0,2,,,,,1,,,57,69
75712,note_off,,,,,64,0,1,,,,,0,,,66,71
75744,note_on,,,,,32,0,2,,,,,1,,,60,109
75744,note_on,,,,,32,0,1,,,,,0,,,68,112
75776,note_off,,,,,32,0,1,,,,,0,,,63,71
75808,note_off,,,,,32,0,1,,,,,0,,,68,71
75808,note_off,,,,,64,0,2,,,,,1,,,60,69
75840,note_on,,,,,0,0,1,,,,,0,,,66,112
75840,note_on,,,,,32,0,1,,,,,0,,,63,112
75840,note_on,,,,,32,0,2,,,,,1,,,57,109
75904,note_off,,,,,64,0,2,,,,,1,,,57,69
75904,note_off,,,,,64,0,1,,,,,0,,,66,71
75936,note_on,,,,,32,0,2,,,,,1,,,60,109
75936,note_on,,,,,32,0,1,,,,,0,,,68,112
75968,note_off,,,,,32,0,1,,,,,0,,,63,71
76000,note_off,,,,,64,0,2,,,,,1,,,60,69
76000,note_off,,,,,32,0,1,,,,,0,,,68,71
76032,note_on,,,,,32,0,1,,,,,0,,,63,112
76032,note_on,,,,,32,0,2,,,,,1,,,57,109
76032,note_on,,,,,0,0,1,,,,,0,,,66,112
76160,note_off,,,,,128,0,2,,,,,1,,,57,69
76160,note_off,,,,,0,0,1,,,,,0,,,66,71
76160,note_off,,,,,128,0,1,,,,,0,,,63,71
76224,note_on,,,,,64,0,1,,,,,0,,,63,112
76224,note_on,,,,,0,0,1,,,,,0,,,60,112
76224,note_on,,,,,64,0,2,,,,,1,,,54,109
76352,note_off,,,,,128,0,1,,,,,0,,,63,71
76352,note_off,,,,,0,0,1,,,,,0,,,60,71
76352,note_off,,,,,128,0,2,,,,,1,,,54,69
76416,note_on,,,,,0,0,1,,,,,0,,,66,112
76416,note_on,,,,,64,0,2,,,,,1,,,57,109
76416,note_on,,,,,64,0,1,,,,,0,,,63,112
76544,note_off,,,,,128,0,1,,,,,0,,,63,71
76544,note_off,,,,,128,0,2,,,,,1,,,57,69
76544,note_off,,,,,0,0,1,,,,,0,,,66,71
77184,note_on,,,,,640,0,2,,,,,1,,,69,109
77184,note_on,,,,,640,0,1,,,,,0,,,75,112
77184,note_on,,,,,0,0,1,,,,,0,,,78,112
77248,note_off,,,,,64,0,1,,,,,0,,,75,71
77248,note_off,,,,,0,0,1,,,,,0,,,78,71
77248,note_off,,,,,64,0,2,,,,,1,,,69,69
77280,note_on,,,,,32,0,2,,,,,1,,,72,109
77280,note_on,,,,,32,0,1,,,,,0,,,80,112
77344,note_off,,,,,64,0,2,,,,,1,,,72,69
77344,note_off,,,,,64,0,1,,,,,0,,,80,71
77376,note_on,,,,,32,0,1,,,,,0,,,75,112
77376,note_on,,,,,32,0,2,,,,,1,,,69,109
77376,note_on,,,,,0,0,1,,,,,0,,,78,112
77440,note_off,,,,,64,0,1,,,,,0,,,75,71
77440,note_off,,,,,0,0,1,,,,,0,,,78,71
77440,note_off,,,,,64,0,2,,,,,1,,,69,69
77472,note_on,,,,,32,0,2,,,,,1,,,72,109
77472,note_on,,,,,32,0,1,,,,,0,,,80,112
77536,note_off,,,,,64,0,1,,,,,0,,,80,71
77536,note_off,,,,,64,0,2,,,,,1,,,72,69
77568,note_on,,,,,32,0,1,,,,,0,,,75,112
77568,note_on,,,,,0,0,1,,,,,0,,,78,112
77568,note_on,,,,,32,0,2,,,,,1,,,69,109
77696,note_off,,,,,0,0,1,,,,,0,,,78,71
77696,note_off,,,,,128,0,2,,,,,1,,,69,69
77696,note_off,,,,,128,0,1,,,,,0,,,75,71
77760,note_on,,,,,64,0,2,,,,,1,,,81,109
77760,note_on,,,,,0,0,1,,,,,0,,,87,112
77760,note_on,,,,,64,0,1,,,,,0,,,90,112
77824,note_off,,,,,64,0,2,,,,,1,,,81,69
77824,note_off,,,,,64,0,1,,,,,0,,,90,71
77824,note_off,,,,,0,0,1,,,,,0,,,87,71
77856,note_on,,,,,32,0,1,,,,,0,,,92,112
77856,note_on,,,,,32,0,2,,,,,1,,,84,109
77920,note_off,,,,,64,0,2,,,,,1,,,84,69
77920,note_off,,,,,64,0,1,,,,,0,,,92,71
77952,note_on,,,,,0,0,1,,,,,0,,,87,112
77952,note_on,,,,,32,0,1,,,,,0,,,90,112
77952,note_on,,,,,32,0,2,,,,,1,,,81,109
78016,note_off,,,,,64,0,2,,,,,1,,,81,69
78016,note_off,,,,,64,0,1,,,,,0,,,90,71
78016,note_off,,,,,0,0,1,,,,,0,,,87,71
78048,note_on,,,,,32,0,1,,,,,0,,,92,112
78048,note_on,,,,,32,0,2,,,,,1,,,84,109
78112,note_off,,,,,64,0,1,,,,,0,,,92,71
78112,note_off,,,,,64,0,2,,,,,1,,,84,69
78144,note_on,,,,,32,0,1,,,,,0,,,87,112
78144,note_on,,,,,0,0,1,,,,,0,,,90,112
78144,note_on,,,,,32,0,2,,,,,1,,,81,109
78272,note_off,,,,,128,0,1,,,,,0,,,87,71
78272,note_off,,,,,128,0,2,,,,,1,,,81,69
78272,note_off,,,,,0,0,1,,,,,0,,,90,71
78336,note_on,,,,,64,0,1,,,,,0,,,75,112
78336,note_on,,,,,0,0,1,,,,,0,,,78,112
78336,note_on,,,,,64,0,2,,,,,1,,,69,109
78400,note_off,,,,,0,0,1,,,,,0,,,78,71
78400,note_off,,,,,64,0,2,,,,,1,,,69,69
78400,note_off,,,,,64,0,1,,,,,0,,,75,71
78432,note_on,,,,,32,0,2,,,,,1,,,72,109
78432,note_on,,,,,32,0,1,,,,,0,,,80,112
78496,note_off,,,,,64,0,2,,,,,1,,,72,69
78496,note_off,,,,,64,0,1,,,,,0,,,80,71
78528,note_on,,,,,32,0,1,,,,,0,,,75,112
78528,note_on,,,,,0,0,1,,,,,0,,,78,112
78528,note_on,,,,,32,0,2,,,,,1,,,69,109
78592,note_off,,,,,0,0,1,,,,,0,,,78,71
78592,note_off,,,,,64,0,2,,,,,1,,,69,69
78592,note_off,,,,,64,0,1,,,,,0,,,75,71
78624,note_on,,,,,32,0,1,,,,,0,,,80,112
78624,note_on,,,,,32,0,2,,,,,1,,,72,109
78688,note_off,,,,,64,0,1,,,,,0,,,80,71
78688,note_off,,,,,64,0,2,,,,,1,,,72,69
78720,note_on,,,,,32,0,2,,,,,1,,,69,109
78720,note_on,,,,,32,0,1,,,,,0,,,78,112
78848,note_off,,,,,128,0,2,,,,,1,,,69,69
78848,note_off,,,,,128,0,1,,,,,0,,,78,71
78912,note_on,,,,,64,0,1,,,,,0,,,90,112
78912,note_on,,,,,0,0,1,,,,,0,,,87,112
78912,note_on,,,,,64,0,2,,,,,1,,,81,109
78976,note_off,,,,,64,0,1,,,,,0,,,90,71
78976,note_off,,,,,64,0,2,,,,,1,,,81,69
78976,note_off,,,,,0,0,1,,,,,0,,,87,71
79008,note_on,,,,,32,0,1,,,,,0,,,92,112
79008,note_on,,,,,32,0,2,,,,,1,,,84,109
79008,note_on,,,,,0,0,1,,,,,0,,,89,112
79072,note_off,,,,,64,0,1,,,,,0,,,92,71
79072,note_off,,,,,0,0,1,,,,,0,,,89,71
79072,note_off,,,,,64,0,2,,,,,1,,,84,69
79104,note_on,,,,,32,0,2,,,,,1,,,81,109
79104,note_on,,,,,32,0,1,,,,,0,,,90,112
79104,note_on,,,,,0,0,1,,,,,0,,,87,112
79168,note_off,,,,,0,0,1,,,,,0,,,87,71
79168,note_off,,,,,64,0,1,,,,,0,,,90,71
79168,note_off,,,,,64,0,2,,,,,1,,,81,69
79200,note_on,,,,,32,0,1,,,,,0,,,92,112
79200,note_on,,,,,0,0,1,,,,,0,,,89,112
79200,note_on,,,,,32,0,2,,,,,1,,,84,109
79264,note_off,,,,,64,0,1,,,,,0,,,92,71
79264,note_off,,,,,0,0,1,,,,,0,,,89,71
79264,note_off,,,,,64,0,2,,,,,1,,,84,69
79296,note_on,,,,,32,0,2,,,,,1,,,81,109
79296,note_on,,,,,0,0,1,,,,,0,,,87,112
79296,note_on,,,,,32,0,1,,,,,0,,,90,112
79424,note_off,,,,,0,0,1,,,,,0,,,87,71
79424,note_off,,,,,128,0,2,,,,,1,,,81,69
79424,note_off,,,,,128,0,1,,,,,0,,,90,71
80064,key_signature,,,,,640,1,1,,,,,,,E,,
80064,note_on,,,,,0,0,1,,,,,0,,,78,112
80064,key_signature,,,,,640,1,2,,,,,,,E,,
80064,note_on,,,,,0,0,1,,,,,0,,,66,112
80640,note_on,,,,,576,0,2,,,,,1,,,45,109
80736,note_on,,,,,96,0,2,,,,,1,,,51,109
80768,note_off,,,,,32,0,2,,,,,1,,,45,69
80832,note_on,,,,,64,0,2,,,,,1,,,54,109
80832,note_off,,,,,0,0,1,,,,,0,,,66,71
80832,note_on,,,,,0,0,1,,,,,0,,,65,112
80832,note_on,,,,,0,0,1,,,,,0,,,77,112
80832,note_off,,,,,768,0,1,,,,,0,,,78,71
80864,note_off,,,,,32,0,2,,,,,1,,,51,69
80928,note_on,,,,,64,0,2,,,,,1,,,59,109
80960,note_off,,,,,32,0,2,,,,,1,,,54,69
81056,note_off,,,,,96,0,2,,,,,1,,,59,69
81216,note_on,,,,,160,0,2,,,,,1,,,63,109
81312,note_on,,,,,96,0,2,,,,,1,,,59,109
81344,note_off,,,,,512,0,1,,,,,0,,,77,71
81344,note_off,,,,,0,0,1,,,,,0,,,65,71
81344,note_off,,,,,32,0,2,,,,,1,,,63,69
81408,note_on,,,,,64,0,2,,,,,1,,,54,109
81408,note_on,,,,,0,0,1,,,,,0,,,66,112
81408,note_on,,,,,64,0,1,,,,,0,,,78,112
81440,note_off,,,,,32,0,2,,,,,1,,,59,69
81504,note_on,,,,,64,0,2,,,,,1,,,51,109
81536,note_off,,,,,32,0,2,,,,,1,,,54,69
81632,note_off,,,,,96,0,2,,,,,1,,,51,69
81792,note_on,,,,,160,0,2,,,,,1,,,45,109
81888,note_on,,,,,96,0,2,,,,,1,,,51,109
81920,note_off,,,,,32,0,2,,,,,1,,,45,69
81920,note_off,,,,,0,0,1,,,,,0,,,66,71
81920,note_off,,,,,512,0,1,,,,,0,,,78,71
81984,note_on,,,,,64,0,1,,,,,0,,,73,112
81984,note_on,,,,,0,0,1,,,,,0,,,85,112
81984,note_on,,,,,64,0,2,,,,,1,,,54,109
82016,note_off,,,,,32,0,2,,,,,1,,,51,69
82080,note_on,,,,,64,0,2,,,,,1,,,59,109
82112,note_off,,,,,32,0,2,,,,,1,,,54,69
82208,note_off,,,,,96,0,2,,,,,1,,,59,69
82368,note_on,,,,,160,0,2,,,,,1,,,63,109
82464,note_on,,,,,96,0,2,,,,,1,,,61,109
82496,note_off,,,,,512,0,1,,,,,0,,,73,71
82496,note_off,,,,,32,0,2,,,,,1,,,63,69
82496,note_off,,,,,0,0,1,,,,,0,,,85,71
82560,note_on,,,,,64,0,1,,,,,0,,,67,112
82560,note_on,,,,,64,0,2,,,,,1,,,59,109
82560,note_on,,,,,0,0,1,,,,,0,,,79,112
82592,note_off,,,,,32,0,2,,,,,1,,,61,69
82656,note_on,,,,,64,0,2,,,,,1,,,51,109
82688,note_off,,,,,32,0,2,,,,,1,,,59,69
82784,note_off,,,,,96,0,2,,,,,1,,,51,69
82944,note_on,,,,,160,0,2,,,,,1,,,44,109
83040,note_on,,,,,96,0,2,,,,,1,,,52,109
83072,note_off,,,,,32,0,2,,,,,1,,,44,69
83072,note_off,,,,,0,0,1,,,,,0,,,67,71
83072,note_off,,,,,512,0,1,,,,,0,,,79,71
83136,note_on,,,,,0,0,1,,,,,0,,,80,112
83136,note_on,,,,,64,0,2,,,,,1,,,56,109
83136,note_on,,,,,64,0,1,,,,,0,,,68,112
83168,note_off,,,,,32,0,2,,,,,1,,,52,69
83232,note_on,,,,,64,0,2,,,,,1,,,59,109
83264,note_off,,,,,32,0,2,,,,,1,,,56,69
83360,note_off,,,,,96,0,2,,,,,1,,,59,69
83520,note_on,,,,,0,0,1,,,,,0,,,72,112
83520,note_on,,,,,384,0,1,,,,,0,,,68,112
83520,note_on,,,,,0,0,1,,,,,0,,,64,112
83648,note_off,,,,,128,0,1,,,,,0,,,68,71
83648,note_off,,,,,0,0,1,,,,,0,,,80,71
83648,note_off,,,,,0,0,1,,,,,0,,,68,71
83648,note_off,,,,,0,0,1,,,,,0,,,64,71
83904,note_on,,,,,0,0,1,,,,,0,,,64,112
83904,note_on,,,,,0,0,1,,,,,0,,,68,112
83904,note_off,,,,,256,0,1,,,,,0,,,72,71
84032,note_off,,,,,0,0,1,,,,,0,,,64,71
84032,note_off,,,,,128,0,1,,,,,0,,,68,71
84096,note_on,,,,,64,0,1,,,,,0,,,68,112
84096,note_on,,,,,0,0,1,,,,,0,,,72,112
84096,note_on,,,,,0,0,1,,,,,0,,,64,112
84160,note_off,,,,,64,0,1,,,,,0,,,72,71
84192,note_on,,,,,32,0,1,,,,,0,,,71,112
84256,note_off,,,,,64,0,1,,,,,0,,,71,71
84288,note_on,,,,,32,0,1,,,,,0,,,70,112
84352,note_off,,,,,64,0,1,,,,,0,,,70,71
84384,note_on,,,,,32,0,1,,,,,0,,,71,112
84448,note_off,,,,,64,0,1,,,,,0,,,71,71
84480,note_on,,,,,0,0,1,,,,,0,,,76,112
84480,note_off,,,,,32,0,1,,,,,0,,,68,71
84480,note_off,,,,,0,0,1,,,,,0,,,64,71
84544,note_off,,,,,64,0,1,,,,,0,,,76,71
84576,note_on,,,,,32,0,1,,,,,0,,,78,112
84640,note_off,,,,,64,0,1,,,,,0,,,78,71
84672,note_on,,,,,0,0,1,,,,,0,,,80,112
84672,note_on,,,,,0,0,1,,,,,0,,,64,112
84672,note_on,,,,,32,0,1,,,,,0,,,68,112
84672,note_on,,,,,0,0,1,,,,,0,,,59,112
84736,note_off,,,,,64,0,1,,,,,0,,,80,71
84768,note_on,,,,,32,0,1,,,,,0,,,83,112
84800,note_off,,,,,32,0,1,,,,,0,,,68,71
84800,note_off,,,,,0,0,1,,,,,0,,,59,71
84800,note_off,,,,,0,0,1,,,,,0,,,64,71
84832,note_off,,,,,32,0,1,,,,,0,,,83,71
84864,note_on,,,,,32,0,1,,,,,0,,,88,112
84928,note_off,,,,,64,0,1,,,,,0,,,88,71
84960,note_on,,,,,32,0,1,,,,,0,,,90,112
85024,note_off,,,,,64,0,1,,,,,0,,,90,71
85056,note_on,,,,,32,0,1,,,,,0,,,92,112
85184,note_off,,,,,128,0,1,,,,,0,,,92,71
85248,note_on,,,,,1888,0,2,,,,,1,,,45,109
85344,note_on,,,,,96,0,2,,,,,1,,,51,109
85376,note_off,,,,,32,0,2,,,,,1,,,45,69
85440,note_on,,,,,64,0,2,,,,,1,,,54,109
85472,note_off,,,,,32,0,2,,,,,1,,,51,69
85536,note_on,,,,,64,0,2,,,,,1,,,59,109
85536,note_on,,,,,0,0,1,,,,,0,,,77,112
85536,note_on,,,,,352,0,1,,,,,0,,,89,112
85568,note_off,,,,,32,0,2,,,,,1,,,54,69
85632,note_on,,,,,64,0,2,,,,,1,,,63,109
85664,note_off,,,,,32,0,2,,,,,1,,,59,69
85760,note_off,,,,,96,0,2,,,,,1,,,63,69
85824,note_on,,,,,64,0,2,,,,,1,,,66,109
85920,note_on,,,,,96,0,2,,,,,1,,,63,109
85952,note_off,,,,,32,0,2,,,,,1,,,66,69
86016,note_on,,,,,64,0,2,,,,,1,,,59,109
86048,note_off,,,,,512,0,1,,,,,0,,,89,71
86048,note_off,,,,,32,0,2,,,,,1,,,63,69
86048,note_off,,,,,0,0,1,,,,,0,,,77,71
86112,note_on,,,,,64,0,1,,,,,0,,,78,112
86112,note_on,,,,,64,0,2,,,,,1,,,54,109
86112,note_on,,,,,0,0,1,,,,,0,,,90,112
86144,note_off,,,,,32,0,2,,,,,1,,,59,69
86208,note_on,,,,,64,0,2,,,,,1,,,51,109
86240,note_off,,,,,32,0,2,,,,,1,,,54,69
86336,note_off,,,,,96,0,2,,,,,1,,,51,69
86400,note_on,,,,,64,0,2,,,,,1,,,45,109
86496,note_on,,,,,96,0,2,,,,,1,,,51,109
86528,note_off,,,,,32,0,2,,,,,1,,,45,69
86592,note_on,,,,,64,0,2,,,,,1,,,54,109
86624,note_off,,,,,512,0,1,,,,,0,,,78,71
86624,note_off,,,,,32,0,2,,,,,1,,,51,69
86624,note_off,,,,,0,0,1,,,,,0,,,90,71
86688,note_on,,,,,64,0,2,,,,,1,,,59,109
86688,note_on,,,,,0,0,1,,,,,0,,,97,112
86688,note_on,,,,,64,0,1,,,,,0,,,85,112
86720,note_off,,,,,32,0,2,,,,,1,,,54,69
86784,note_on,,,,,64,0,2,,,,,1,,,63,109
86816,note_off,,,,,32,0,2,,,,,1,,,59,69
86912,note_off,,,,,96,0,2,,,,,1,,,63,69
86976,note_on,,,,,64,0,2,,,,,1,,,66,109
87072,note_on,,,,,96,0,2,,,,,1,,,63,109
87104,note_off,,,,,32,0,2,,,,,1,,,66,69
87168,note_on,,,,,64,0,2,,,,,1,,,59,109
87200,note_off,,,,,0,0,1,,,,,0,,,97,71
87200,note_off,,,,,512,0,1,,,,,0,,,85,71
87200,note_off,,,,,32,0,2,,,,,1,,,63,69
87264,note_on,,,,,64,0,1,,,,,0,,,79,112
87264,note_on,,,,,64,0,2,,,,,1,,,63,109
87264,note_on,,,,,0,0,1,,,,,0,,,91,112
87296,note_off,,,,,32,0,2,,,,,1,,,59,69
87360,note_on,,,,,64,0,2,,,,,1,,,67,109
87392,note_off,,,,,32,0,2,,,,,1,,,63,69
87488,note_off,,,,,96,0,2,,,,,1,,,67,69
87552,note_on,,,,,64,0,2,,,,,1,,,44,109
87648,note_on,,,,,96,0,2,,,,,1,,,52,109
87680,note_off,,,,,32,0,2,,,,,1,,,44,69
87744,note_on,,,,,64,0,2,,,,,1,,,56,109
87776,note_off,,,,,32,0,2,,,,,1,,,52,69
87776,note_off,,,,,512,0,1,,,,,0,,,91,71
87776,note_off,,,,,0,0,1,,,,,0,,,79,71
87840,note_on,,,,,0,0,1,,,,,0,,,92,112
87840,note_on,,,,,64,0,2,,,,,1,,,59,109
87840,note_on,,,,,64,0,1,,,,,0,,,80,112
87872,note_off,,,,,32,0,2,,,,,1,,,56,69
87936,note_on,,,,,64,0,2,,,,,1,,,64,109
87968,note_off,,,,,32,0,2,,,,,1,,,59,69
88064,note_off,,,,,96,0,2,,,,,1,,,64,69
88128,note_on,,,,,64,0,2,,,,,1,,,72,109
88128,note_on,,,,,288,0,1,,,,,0,,,84,112
88128,note_on,,,,,0,0,2,,,,,1,,,68,109
88256,note_off,,,,,0,0,2,,,,,1,,,68,69
88256,note_off,,,,,128,0,2,,,,,1,,,72,69
88352,note_off,,,,,0,0,1,,,,,0,,,92,71
88352,note_off,,,,,224,0,1,,,,,0,,,80,71
88512,note_on,,,,,0,0,2,,,,,1,,,72,109
88512,note_on,,,,,256,0,2,,,,,1,,,68,109
88640,note_off,,,,,0,0,2,,,,,1,,,72,69
88640,note_off,,,,,128,0,2,,,,,1,,,68,69
88704,note_on,,,,,0,0,2,,,,,1,,,68,109
88704,note_on,,,,,0,0,2,,,,,1,,,64,109
88704,note_on,,,,,64,0,2,,,,,1,,,72,109
88704,note_on,,,,,352,0,1,,,,,0,,,84,112
88768,note_off,,,,,64,0,1,,,,,0,,,84,71
88800,note_on,,,,,32,0,1,,,,,0,,,83,112
88864,note_off,,,,,64,0,1,,,,,0,,,83,71
88896,note_off,,,,,32,0,1,,,,,0,,,84,71
88896,note_on,,,,,0,0,1,,,,,0,,,82,112
88960,note_off,,,,,256,0,2,,,,,1,,,72,69
88960,note_off,,,,,64,0,1,,,,,0,,,82,71
88992,note_on,,,,,32,0,1,,,,,0,,,83,112
89056,note_off,,,,,64,0,1,,,,,0,,,83,71
89088,note_off,,,,,128,0,2,,,,,1,,,68,69
89088,note_on,,,,,0,0,2,,,,,1,,,71,109
89088,note_off,,,,,0,0,2,,,,,1,,,64,69
89088,note_on,,,,,32,0,1,,,,,0,,,88,112
89152,note_off,,,,,64,0,1,,,,,0,,,88,71
89184,note_on,,,,,32,0,1,,,,,0,,,90,112
89216,note_off,,,,,128,0,2,,,,,1,,,71,69
89248,note_off,,,,,64,0,1,,,,,0,,,90,71
89280,note_on,,,,,32,0,1,,,,,0,,,92,112
89280,note_on,,,,,64,0,2,,,,,1,,,80,109
89344,note_off,,,,,64,0,1,,,,,0,,,92,71
89376,note_on,,,,,32,0,1,,,,,0,,,95,112
89408,note_off,,,,,128,0,2,,,,,1,,,80,69
89440,note_off,,,,,64,0,1,,,,,0,,,95,71
89472,note_on,,,,,32,0,1,,,,,0,,,100,112
89536,note_off,,,,,64,0,1,,,,,0,,,100,71
89568,note_on,,,,,32,0,1,,,,,0,,,102,112
89632,note_off,,,,,64,0,1,,,,,0,,,102,71
89664,note_on,,,,,32,0,1,,,,,0,,,104,112
89792,note_off,,,,,128,0,1,,,,,0,,,104,71
89856,note_on,,,,,448,0,2,,,,,1,,,47,109
89952,note_on,,,,,96,0,2,,,,,1,,,53,109
89984,note_off,,,,,32,0,2,,,,,1,,,47,69
90048,note_on,,,,,256,0,1,,,,,0,,,67,112
90048,note_on,,,,,0,0,1,,,,,0,,,79,112
90048,note_on,,,,,64,0,2,,,,,1,,,56,109
90080,note_off,,,,,32,0,2,,,,,1,,,53,69
90144,note_on,,,,,64,0,2,,,,,1,,,61,109
90176,note_off,,,,,32,0,2,,,,,1,,,56,69
90272,note_off,,,,,96,0,2,,,,,1,,,61,69
90432,note_off,,,,,384,0,1,,,,,0,,,67,71
90432,note_off,,,,,0,0,1,,,,,0,,,79,71
90432,note_on,,,,,160,0,2,,,,,1,,,65,109
90528,note_on,,,,,96,0,2,,,,,1,,,61,109
90560,note_off,,,,,32,0,2,,,,,1,,,65,69
90624,note_on,,,,,192,0,1,,,,,0,,,68,112
90624,note_on,,,,,64,0,2,,,,,1,,,56,109
90624,note_on,,,,,0,0,1,,,,,0,,,80,112
90656,note_off,,,,,32,0,2,,,,,1,,,61,69
90720,note_on,,,,,64,0,2,,,,,1,,,53,109
90752,note_off,,,,,32,0,2,,,,,1,,,56,69
90848,note_off,,,,,96,0,2,,,,,1,,,53,69
91008,note_on,,,,,160,0,2,,,,,1,,,47,109
91008,note_off,,,,,384,0,1,,,,,0,,,68,71
91008,note_off,,,,,0,0,1,,,,,0,,,80,71
91104,note_on,,,,,96,0,2,,,,,1,,,53,109
91136,note_off,,,,,32,0,2,,,,,1,,,47,69
91200,note_on,,,,,64,0,2,,,,,1,,,56,109
91200,note_on,,,,,0,0,1,,,,,0,,,86,112
91200,note_on,,,,,192,0,1,,,,,0,,,74,112
91232,note_off,,,,,32,0,2,,,,,1,,,53,69
91296,note_on,,,,,64,0,2,,,,,1,,,61,109
91328,note_off,,,,,32,0,2,,,,,1,,,56,69
91424,note_off,,,,,96,0,2,,,,,1,,,61,69
91584,note_off,,,,,0,0,1,,,,,0,,,86,71
91584,note_on,,,,,160,0,2,,,,,1,,,65,109
91584,note_off,,,,,384,0,1,,,,,0,,,74,71
91680,note_on,,,,,96,0,2,,,,,1,,,61,109
91712,note_off,,,,,32,0,2,,,,,1,,,65,69
91776,note_on,,,,,192,0,1,,,,,0,,,68,112
91776,note_on,,,,,64,0,2,,,,,1,,,56,109
91776,note_on,,,,,0,0,1,,,,,0,,,80,112
91808,note_off,,,,,32,0,2,,,,,1,,,61,69
91872,note_on,,,,,64,0,2,,,,,1,,,53,109
91904,note_off,,,,,32,0,2,,,,,1,,,56,69
92000,note_off,,,,,96,0,2,,,,,1,,,53,69
92160,note_off,,,,,0,0,1,,,,,0,,,80,71
92160,note_on,,,,,160,0,2,,,,,1,,,45,109
92160,note_off,,,,,384,0,1,,,,,0,,,68,71
92256,note_on,,,,,96,0,2,,,,,1,,,54,109
92288,note_off,,,,,32,0,2,,,,,1,,,45,69
92352,note_on,,,,,64,0,2,,,,,1,,,57,109
92352,note_on,,,,,192,0,1,,,,,0,,,69,112
92352,note_on,,,,,0,0,1,,,,,0,,,81,112
92384,note_off,,,,,32,0,2,,,,,1,,,54,69
92448,note_on,,,,,64,0,2,,,,,1,,,61,109
92480,note_off,,,,,32,0,2,,,,,1,,,57,69
92576,note_off,,,,,96,0,2,,,,,1,,,61,69
92736,note_on,,,,,160,0,2,,,,,1,,,69,109
92736,note_on,,,,,0,0,2,,,,,1,,,66,109
92736,note_off,,,,,384,0,1,,,,,0,,,69,71
92736,note_on,,,,,0,0,1,,,,,0,,,74,112
92736,note_off,,,,,0,0,1,,,,,0,,,81,71
92864,note_off,,,,,0,0,2,,,,,1,,,66,69
92864,note_off,,,,,128,0,2,,,,,1,,,69,69
93120,note_on,,,,,256,0,2,,,,,1,,,69,109
93120,note_on,,,,,0,0,2,,,,,1,,,60,109
93120,note_on,,,,,0,0,2,,,,,1,,,66,109
93248,note_off,,,,,0,0,2,,,,,1,,,60,69
93248,note_off,,,,,0,0,2,,,,,1,,,66,69
93248,note_off,,,,,512,0,1,,,,,0,,,74,71
93248,note_off,,,,,128,0,2,,,,,1,,,69,69
93312,note_on,,,,,64,0,1,,,,,0,,,74,112
93312,note_on,,,,,0,0,2,,,,,1,,,66,109
93312,note_on,,,,,0,0,2,,,,,1,,,69,109
93312,note_on,,,,,64,0,2,,,,,1,,,60,109
93408,note_on,,,,,96,0,1,,,,,0,,,73,112
93440,note_off,,,,,32,0,1,,,,,0,,,74,71
93504,note_on,,,,,64,0,1,,,,,0,,,74,112
93536,note_off,,,,,32,0,1,,,,,0,,,73,71
93600,note_on,,,,,64,0,1,,,,,0,,,78,112
93632,note_off,,,,,32,0,1,,,,,0,,,74,71
93696,note_on,,,,,64,0,1,,,,,0,,,80,112
93728,note_off,,,,,32,0,1,,,,,0,,,78,71
93792,note_on,,,,,64,0,1,,,,,0,,,83,112
93824,note_off,,,,,0,0,2,,,,,1,,,69,69
93824,note_off,,,,,512,0,2,,,,,1,,,60,69
93824,note_off,,,,,32,0,1,,,,,0,,,80,71
93824,note_off,,,,,0,0,2,,,,,1,,,66,69
93888,note_on,,,,,0,0,2,,,,,1,,,66,109
93888,note_on,,,,,64,0,2,,,,,1,,,61,109
93888,note_on,,,,,64,0,1,,,,,0,,,81,112
93888,note_on,,,,,0,0,2,,,,,1,,,69,109
93920,note_off,,,,,32,0,1,,,,,0,,,95,71
93984,note_on,,,,,64,0,1,,,,,0,,,85,112
94016,note_off,,,,,32,0,1,,,,,0,,,81,71
94080,note_on,,,,,64,0,1,,,,,0,,,90,112
94112,note_off,,,,,32,0,1,,,,,0,,,85,71
94144,note_off,,,,,0,0,2,,,,,1,,,69,69
94144,note_off,,,,,256,0,2,,,,,1,,,61,69
94144,note_off,,,,,0,0,2,,,,,1,,,66,69
94176,note_on,,,,,64,0,1,,,,,0,,,92,112
94208,note_off,,,,,32,0,1,,,,,0,,,90,71
94272,note_on,,,,,64,0,1,,,,,0,,,93,112
94304,note_off,,,,,32,0,1,,,,,0,,,92,71
94400,note_off,,,,,96,0,1,,,,,0,,,93,71
94464,note_on,,,,,320,0,2,,,,,1,,,47,109
94556,note_off,,,,,92,0,2,,,,,1,,,47,69
94560,note_on,,,,,4,0,2,,,,,1,,,53,109
94652,note_off,,,,,92,0,2,,,,,1,,,53,69
94656,note_on,,,,,4,0,2,,,,,1,,,56,109
94748,note_off,,,,,92,0,2,,,,,1,,,56,69
94752,note_on,,,,,4,0,2,,,,,1,,,61,109
94844,note_off,,,,,92,0,2,,,,,1,,,61,69
94848,note_on,,,,,4,0,2,,,,,1,,,65,109
94848,note_on,,,,,448,0,1,,,,,0,,,91,112
94848,note_on,,,,,0,0,1,,,,,0,,,79,112
94940,note_off,,,,,92,0,2,,,,,1,,,65,69
95036,note_off,,,,,0,0,1,,,,,0,,,79,71
95036,note_off,,,,,188,0,1,,,,,0,,,91,71
95040,note_on,,,,,100,0,2,,,,,1,,,68,109
95132,note_off,,,,,92,0,2,,,,,1,,,68,69
95136,note_on,,,,,4,0,2,,,,,1,,,65,109
95228,note_off,,,,,92,0,2,,,,,1,,,65,69
95232,note_on,,,,,4,0,2,,,,,1,,,61,109
95324,note_off,,,,,92,0,2,,,,,1,,,61,69
95328,note_on,,,,,4,0,2,,,,,1,,,56,109
95420,note_off,,,,,92,0,2,,,,,1,,,56,69
95424,note_on,,,,,388,0,1,,,,,0,,,80,112
95424,note_on,,,,,4,0,2,,,,,1,,,53,109
95424,note_on,,,,,0,0,1,,,,,0,,,92,112
95516,note_off,,,,,92,0,2,,,,,1,,,53,69
95612,note_off,,,,,188,0,1,,,,,0,,,80,71
95612,note_off,,,,,0,0,1,,,,,0,,,92,71
95616,note_on,,,,,100,0,2,,,,,1,,,47,109
95708,note_off,,,,,92,0,2,,,,,1,,,47,69
95712,note_on,,,,,4,0,2,,,,,1,,,53,109
95804,note_off,,,,,92,0,2,,,,,1,,,53,69
95808,note_on,,,,,4,0,2,,,,,1,,,56,109
95900,note_off,,,,,92,0,2,,,,,1,,,56,69
95904,note_on,,,,,4,0,2,,,,,1,,,61,109
95996,note_off,,,,,92,0,2,,,,,1,,,61,69
96000,note_on,,,,,4,0,2,,,,,1,,,65,109
96000,note_on,,,,,0,0,1,,,,,0,,,98,112
96000,note_on,,,,,388,0,1,,,,,0,,,86,112
96092,note_off,,,,,92,0,2,,,,,1,,,65,69
96188,note_off,,,,,188,0,1,,,,,0,,,86,71
96188,note_off,,,,,0,0,1,,,,,0,,,98,71
96192,note_on,,,,,100,0,2,,,,,1,,,68,109
96284,note_off,,,,,92,0,2,,,,,1,,,68,69
96288,note_on,,,,,4,0,2,,,,,1,,,65,109
96380,note_off,,,,,92,0,2,,,,,1,,,65,69
96384,note_on,,,,,4,0,2,,,,,1,,,61,109
96476,note_off,,,,,92,0,2,,,,,1,,,61,69
96480,note_on,,,,,4,0,2,,,,,1,,,56,109
96572,note_off,,,,,92,0,2,,,,,1,,,56,69
96576,note_on,,,,,0,0,1,,,,,0,,,92,112
96576,note_on,,,,,388,0,1,,,,,0,,,80,112
96576,note_on,,,,,4,0,2,,,,,1,,,53,109
96668,note_off,,,,,92,0,2,,,,,1,,,53,69
96764,note_off,,,,,0,0,1,,,,,0,,,92,71
96764,note_off,,,,,188,0,1,,,,,0,,,80,71
96768,note_on,,,,,100,0,2,,,,,1,,,45,109
96860,note_off,,,,,92,0,2,,,,,1,,,45,69
96864,note_on,,,,,4,0,2,,,,,1,,,54,109
96956,note_off,,,,,92,0,2,,,,,1,,,54,69
96960,note_on,,,,,4,0,2,,,,,1,,,57,109
97052,note_off,,,,,92,0,2,,,,,1,,,57,69
97056,note_on,,,,,4,0,2,,,,,1,,,61,109
97148,note_off,,,,,92,0,2,,,,,1,,,61,69
97152,note_on,,,,,0,0,1,,,,,0,,,93,112
97152,note_on,,,,,4,0,2,,,,,1,,,66,109
97152,note_on,,,,,388,0,1,,,,,0,,,81,112
97244,note_off,,,,,92,0,2,,,,,1,,,66,69
97248,note_on,,,,,4,0,2,,,,,1,,,69,109
97340,note_off,,,,,188,0,1,,,,,0,,,81,71
97340,note_off,,,,,92,0,2,,,,,1,,,69,69
97340,note_off,,,,,0,0,1,,,,,0,,,93,71
97344,note_on,,,,,4,0,1,,,,,0,,,86,112
97344,note_on,,,,,0,0,2,,,,,1,,,74,109
97344,note_on,,,,,0,0,2,,,,,1,,,69,109
97344,note_on,,,,,4,0,2,,,,,1,,,66,109
97532,note_off,,,,,0,0,2,,,,,1,,,69,69
97532,note_off,,,,,0,0,2,,,,,1,,,74,69
97532,note_off,,,,,188,0,2,,,,,1,,,66,69
97728,note_on,,,,,0,0,2,,,,,1,,,74,109
97728,note_on,,,,,0,0,2,,,,,1,,,69,109
97728,note_on,,,,,196,0,2,,,,,1,,,66,109
97916,note_off,,,,,572,0,1,,,,,0,,,86,71
97916,note_off,,,,,188,0,2,,,,,1,,,66,69
97916,note_off,,,,,0,0,2,,,,,1,,,74,69
97916,note_off,,,,,0,0,2,,,,,1,,,69,69
97920,note_on,,,,,4,0,1,,,,,0,,,86,112
97920,note_on,,,,,4,0,2,,,,,1,,,66,109
97920,note_on,,,,,0,0,2,,,,,1,,,69,109
97920,note_on,,,,,0,0,2,,,,,1,,,74,109
98012,note_off,,,,,92,0,1,,,,,0,,,86,71
98016,note_on,,,,,4,0,1,,,,,0,,,85,112
98108,note_off,,,,,92,0,1,,,,,0,,,85,71
98112,note_on,,,,,4,0,1,,,,,0,,,84,112
98204,note_off,,,,,92,0,1,,,,,0,,,84,71
98208,note_on,,,,,4,0,1,,,,,0,,,85,112
98300,note_off,,,,,0,0,2,,,,,1,,,69,69
98300,note_off,,,,,0,0,2,,,,,1,,,74,69
98300,note_off,,,,,92,0,1,,,,,0,,,85,71
98300,note_off,,,,,380,0,2,,,,,1,,,66,69
98304,note_on,,,,,4,0,1,,,,,0,,,90,112
98304,note_on,,,,,4,0,2,,,,,1,,,73,109
98396,note_off,,,,,92,0,1,,,,,0,,,90,71
98400,note_on,,,,,4,0,1,,,,,0,,,92,112
98492,note_off,,,,,92,0,1,,,,,0,,,92,71
98492,note_off,,,,,188,0,2,,,,,1,,,73,69
98496,note_on,,,,,4,0,1,,,,,0,,,93,112
98496,note_on,,,,,4,0,2,,,,,1,,,81,109
98588,note_off,,,,,92,0,1,,,,,0,,,93,71
98592,note_on,,,,,4,0,1,,,,,0,,,97,112
98684,note_off,,,,,92,0,1,,,,,0,,,97,71
98684,note_off,,,,,188,0,2,,,,,1,,,81,69
98688,note_on,,,,,4,0,1,,,,,0,,,102,112
98780,note_off,,,,,92,0,1,,,,,0,,,102,71
98784,note_on,,,,,4,0,1,,,,,0,,,104,112
98876,note_off,,,,,92,0,1,,,,,0,,,104,71
98880,note_on,,,,,4,0,1,,,,,0,,,105,112
98972,note_off,,,,,92,0,1,,,,,0,,,105,71
99072,note_on,,,,,388,0,2,,,,,1,,,49,109
99164,note_off,,,,,92,0,2,,,,,1,,,49,69
99168,note_on,,,,,4,0,2,,,,,1,,,55,109
99260,note_off,,,,,92,0,2,,,,,1,,,55,69
99264,note_on,,,,,0,0,1,,,,,0,,,81,112
99264,note_on,,,,,292,0,1,,,,,0,,,69,112
99264,note_on,,,,,4,0,2,,,,,1,,,58,109
99356,note_off,,,,,92,0,2,,,,,1,,,58,69
99360,note_on,,,,,4,0,2,,,,,1,,,64,109
99452,note_off,,,,,92,0,2,,,,,1,,,64,69
99648,note_on,,,,,196,0,2,,,,,1,,,67,109
99740,note_off,,,,,92,0,2,,,,,1,,,67,69
99744,note_on,,,,,4,0,2,,,,,1,,,64,109
99836,note_off,,,,,92,0,2,,,,,1,,,64,69
99840,note_on,,,,,0,0,1,,,,,0,,,82,112
99840,note_on,,,,,4,0,2,,,,,1,,,58,109
99840,note_on,,,,,576,0,1,,,,,0,,,70,112
99932,note_off,,,,,92,0,2,,,,,1,,,58,69
99936,note_on,,,,,4,0,2,,,,,1,,,55,109
100028,note_off,,,,,92,0,2,,,,,1,,,55,69
100224,note_on,,,,,196,0,2,,,,,1,,,48,109
100316,note_off,,,,,92,0,2,,,,,1,,,48,69
100320,note_on,,,,,4,0,2,,,,,1,,,55,109
100412,note_off,,,,,92,0,2,,,,,1,,,55,69
100412,note_off,,,,,0,0,1,,,,,0,,,70,71
100412,note_off,,,,,572,0,1,,,,,0,,,82,71
100416,note_on,,,,,4,0,2,,,,,1,,,58,109
100508,note_off,,,,,92,0,2,,,,,1,,,58,69
100512,note_on,,,,,0,0,1,,,,,0,,,88,112
100512,note_on,,,,,4,0,2,,,,,1,,,64,109
100512,note_on,,,,,100,0,1,,,,,0,,,76,112
100604,note_off,,,,,92,0,2,,,,,1,,,64,69
100800,note_on,,,,,196,0,2,,,,,1,,,67,109
100892,note_off,,,,,92,0,2,,,,,1,,,67,69
100896,note_on,,,,,4,0,2,,,,,1,,,64,109
100988,note_off,,,,,92,0,2,,,,,1,,,64,69
100988,note_off,,,,,476,0,1,,,,,0,,,69,71
100988,note_off,,,,,0,0,1,,,,,0,,,81,71
100992,note_on,,,,,4,0,1,,,,,0,,,70,112
100992,note_on,,,,,4,0,2,,,,,1,,,58,109
100992,note_on,,,,,0,0,1,,,,,0,,,82,112
101084,note_off,,,,,92,0,2,,,,,1,,,58,69
101088,note_on,,,,,4,0,2,,,,,1,,,55,109
101180,note_off,,,,,92,0,2,,,,,1,,,55,69
101376,note_on,,,,,196,0,2,,,,,1,,,47,109
101468,note_off,,,,,92,0,2,,,,,1,,,47,69
101472,note_on,,,,,4,0,2,,,,,1,,,55,109
101564,note_off,,,,,92,0,2,,,,,1,,,55,69
101568,note_on,,,,,576,0,1,,,,,0,,,70,112
101568,note_on,,,,,4,0,2,,,,,1,,,59,109
101568,note_on,,,,,0,0,1,,,,,0,,,82,112
101660,note_off,,,,,0,0,1,,,,,0,,,88,71
101660,note_off,,,,,92,0,2,,,,,1,,,59,69
101660,note_off,,,,,92,0,1,,,,,0,,,76,71
101664,note_on,,,,,4,0,2,,,,,1,,,64,109
101756,note_off,,,,,92,0,2,,,,,1,,,64,69
101952,note_on,,,,,196,0,2,,,,,1,,,67,109
102044,note_off,,,,,92,0,2,,,,,1,,,67,69
102048,note_on,,,,,4,0,2,,,,,1,,,64,109
102140,note_off,,,,,480,0,1,,,,,0,,,82,71
102140,note_off,,,,,92,0,2,,,,,1,,,64,69
102140,note_off,,,,,0,0,1,,,,,0,,,70,71
102144,note_on,,,,,0,0,1,,,,,0,,,83,112
102144,note_on,,,,,4,0,1,,,,,0,,,71,112
102144,note_on,,,,,4,0,2,,,,,1,,,59,109
102236,note_off,,,,,92,0,2,,,,,1,,,59,69
102240,note_on,,,,,4,0,2,,,,,1,,,55,109
102332,note_off,,,,,92,0,2,,,,,1,,,55,69
102528,note_on,,,,,196,0,2,,,,,1,,,46,109
102620,note_off,,,,,92,0,2,,,,,1,,,46,69
102624,note_on,,,,,4,0,2,,,,,1,,,55,109
102716,note_off,,,,,0,0,1,,,,,0,,,70,71
102716,note_off,,,,,92,0,2,,,,,1,,,55,69
102716,note_off,,,,,572,0,1,,,,,0,,,82,71
102720,note_on,,,,,4,0,2,,,,,1,,,60,109
102720,note_on,,,,,4,0,1,,,,,0,,,76,112
102720,note_on,,,,,0,0,1,,,,,0,,,88,112
102812,note_off,,,,,92,0,2,,,,,1,,,60,69
102816,note_on,,,,,4,0,2,,,,,1,,,64,109
102908,note_off,,,,,92,0,2,,,,,1,,,64,69
103104,note_on,,,,,196,0,2,,,,,1,,,67,109
103196,note_off,,,,,92,0,2,,,,,1,,,67,69
103200,note_on,,,,,4,0,2,,,,,1,,,64,109
103292,note_off,,,,,92,0,2,,,,,1,,,64,69
103292,note_off,,,,,0,0,1,,,,,0,,,83,71
103292,note_off,,,,,572,0,1,,,,,0,,,71,71
103296,note_on,,,,,4,0,1,,,,,0,,,72,112
103296,note_on,,,,,4,0,2,,,,,1,,,60,109
103296,note_on,,,,,0,0,1,,,,,0,,,84,112
103388,note_off,,,,,92,0,2,,,,,1,,,60,69
103392,note_on,,,,,4,0,2,,,,,1,,,55,109
103484,note_off,,,,,92,0,2,,,,,1,,,55,69
103680,note_on,,,,,196,0,2,,,,,1,,,46,109
103772,note_off,,,,,92,0,2,,,,,1,,,46,69
103776,note_on,,,,,4,0,2,,,,,1,,,55,109
103868,note_off,,,,,572,0,1,,,,,0,,,76,71
103868,note_off,,,,,92,0,2,,,,,1,,,55,69
103868,note_off,,,,,0,0,1,,,,,0,,,88,71
103872,note_on,,,,,4,0,2,,,,,1,,,61,109
103964,note_off,,,,,92,0,2,,,,,1,,,61,69
103968,note_on,,,,,100,0,1,,,,,0,,,64,112
104060,note_off,,,,,92,0,1,,,,,0,,,64,71
104064,note_on,,,,,4,0,1,,,,,0,,,66,112
104064,note_on,,,,,0,0,1,,,,,0,,,63,112
104156,note_off,,,,,0,0,1,,,,,0,,,63,71
104156,note_off,,,,,92,0,1,,,,,0,,,66,71
104160,note_on,,,,,4,0,1,,,,,0,,,67,112
104160,note_on,,,,,0,0,1,,,,,0,,,73,112
104160,note_on,,,,,0,0,1,,,,,0,,,64,112
104252,note_off,,,,,0,0,1,,,,,0,,,73,71
104252,note_off,,,,,0,0,1,,,,,0,,,64,71
104252,note_off,,,,,92,0,1,,,,,0,,,67,71
104256,note_on,,,,,4,0,1,,,,,0,,,69,112
104256,note_on,,,,,292,0,2,,,,,1,,,66,109
104348,note_off,,,,,92,0,2,,,,,1,,,66,69
104348,note_off,,,,,92,0,1,,,,,0,,,69,71
104352,note_on,,,,,4,0,2,,,,,1,,,67,109
104352,note_on,,,,,0,0,1,,,,,0,,,76,112
104352,note_on,,,,,4,0,1,,,,,0,,,70,112
104444,note_off,,,,,92,0,2,,,,,1,,,67,69
104444,note_off,,,,,92,0,1,,,,,0,,,84,71
104444,note_off,,,,,0,0,1,,,,,0,,,70,71
104444,note_off,,,,,0,0,1,,,,,0,,,76,71
104444,note_off,,,,,0,0,1,,,,,0,,,72,71
104448,note_on,,,,,4,0,1,,,,,0,,,72,112
104448,note_on,,,,,4,0,2,,,,,1,,,69,109
104540,note_off,,,,,92,0,1,,,,,0,,,72,71
104540,note_off,,,,,92,0,2,,,,,1,,,69,69
104544,note_on,,,,,4,0,1,,,,,0,,,75,112
104544,note_on,,,,,4,0,2,,,,,1,,,70,109
104544,note_on,,,,,0,0,1,,,,,0,,,79,112
104636,note_off,,,,,92,0,1,,,,,0,,,75,71
104636,note_off,,,,,92,0,2,,,,,1,,,70,69
104636,note_off,,,,,0,0,1,,,,,0,,,79,71
104640,note_on,,,,,4,0,2,,,,,1,,,72,109
104640,note_on,,,,,4,0,1,,,,,0,,,75,112
104732,note_off,,,,,92,0,2,,,,,1,,,72,69
104732,note_off,,,,,92,0,1,,,,,0,,,75,71
104736,note_on,,,,,4,0,1,,,,,0,,,76,112
104736,note_on,,,,,4,0,2,,,,,1,,,73,109
104736,note_on,,,,,0,0,1,,,,,0,,,82,112
104828,note_off,,,,,0,0,1,,,,,0,,,82,71
104828,note_off,,,,,92,0,1,,,,,0,,,76,71
104828,note_off,,,,,92,0,2,,,,,1,,,73,69
104832,note_on,,,,,4,0,2,,,,,1,,,75,109
104832,note_on,,,,,4,0,1,,,,,0,,,78,112
104924,note_off,,,,,92,0,1,,,,,0,,,78,71
104924,note_off,,,,,92,0,2,,,,,1,,,75,69
104928,note_on,,,,,4,0,2,,,,,1,,,76,109
104928,note_on,,,,,0,0,1,,,,,0,,,85,112
104928,note_on,,,,,4,0,1,,,,,0,,,80,112
105020,note_off,,,,,92,0,1,,,,,0,,,80,71
105020,note_off,,,,,92,0,2,,,,,1,,,76,69
105020,note_off,,,,,0,0,1,,,,,0,,,85,71
105024,note_on,,,,,4,0,2,,,,,1,,,78,109
105024,note_on,,,,,4,0,1,,,,,0,,,81,112
105116,note_off,,,,,92,0,1,,,,,0,,,81,71
105116,note_off,,,,,92,0,2,,,,,1,,,78,69
105120,note_on,,,,,4,0,1,,,,,0,,,82,112
105120,note_on,,,,,4,0,2,,,,,1,,,79,109
105120,note_on,,,,,0,0,1,,,,,0,,,88,112
105212,note_off,,,,,0,0,1,,,,,0,,,88,71
105212,note_off,,,,,92,0,1,,,,,0,,,82,71
105212,note_off,,,,,92,0,2,,,,,1,,,79,69
105408,note_on,,,,,196,0,2,,,,,1,,,81,109
105408,note_on,,,,,196,0,1,,,,,0,,,84,112
105500,note_off,,,,,92,0,1,,,,,0,,,84,71
105500,note_off,,,,,92,0,2,,,,,1,,,81,69
105504,note_on,,,,,0,0,1,,,,,0,,,91,112
105504,note_on,,,,,4,0,1,,,,,0,,,85,112
105504,note_on,,,,,4,0,2,,,,,1,,,82,109
105596,note_off,,,,,92,0,2,,,,,1,,,82,69
105596,note_off,,,,,92,0,1,,,,,0,,,85,71
105596,note_off,,,,,0,0,1,,,,,0,,,91,71
105600,note_on,,,,,4,0,1,,,,,0,,,87,112
105600,note_on,,,,,4,0,2,,,,,1,,,84,109
105692,note_off,,,,,92,0,2,,,,,1,,,84,69
105692,note_off,,,,,92,0,1,,,,,0,,,87,71
105696,note_on,,,,,4,0,2,,,,,1,,,85,109
105696,note_on,,,,,4,0,1,,,,,0,,,88,112
105696,note_on,,,,,0,0,1,,,,,0,,,95,112
105788,note_off,,,,,92,0,2,,,,,1,,,85,69
105788,note_off,,,,,92,0,1,,,,,0,,,88,71
105788,note_off,,,,,0,0,1,,,,,0,,,95,71
105792,note_on,,,,,4,0,1,,,,,0,,,90,112
105792,note_on,,,,,4,0,2,,,,,1,,,87,109
105884,note_off,,,,,92,0,1,,,,,0,,,90,71
105884,note_off,,,,,92,0,2,,,,,1,,,87,69
105888,note_on,,,,,4,0,1,,,,,0,,,91,112
105888,note_on,,,,,0,0,1,,,,,0,,,97,112
105888,note_on,,,,,4,0,2,,,,,1,,,88,109
105980,note_off,,,,,92,0,1,,,,,0,,,91,71
105980,note_off,,,,,0,0,1,,,,,0,,,97,71
105980,note_off,,,,,92,0,2,,,,,1,,,88,69
105984,note_on,,,,,4,0,1,,,,,0,,,90,112
105984,note_on,,,,,4,0,2,,,,,1,,,87,109
106076,note_off,,,,,92,0,1,,,,,0,,,90,71
106076,note_off,,,,,92,0,2,,,,,1,,,87,69
106080,note_on,,,,,4,0,2,,,,,1,,,88,109
106080,note_on,,,,,0,0,1,,,,,0,,,99,112
106080,note_on,,,,,4,0,1,,,,,0,,,92,112
106172,note_off,,,,,92,0,2,,,,,1,,,88,69
106172,note_off,,,,,0,0,1,,,,,0,,,99,71
106172,note_off,,,,,92,0,1,,,,,0,,,92,71
106176,note_on,,,,,4,0,2,,,,,1,,,87,109
106176,note_on,,,,,4,0,1,,,,,0,,,90,112
106268,note_off,,,,,92,0,1,,,,,0,,,90,71
106268,note_off,,,,,92,0,2,,,,,1,,,87,69
106272,note_on,,,,,4,0,2,,,,,1,,,88,109
106272,note_on,,,,,4,0,1,,,,,0,,,92,112
106272,note_on,,,,,0,0,1,,,,,0,,,99,112
106364,note_off,,,,,92,0,2,,,,,1,,,88,69
106364,note_off,,,,,92,0,1,,,,,0,,,92,71
106364,note_off,,,,,0,0,1,,,,,0,,,99,71
106368,note_on,,,,,4,0,1,,,,,0,,,90,112
106368,note_on,,,,,4,0,2,,,,,1,,,87,109
106460,note_off,,,,,92,0,1,,,,,0,,,90,71
106460,note_off,,,,,92,0,2,,,,,1,,,87,69
106464,note_on,,,,,0,0,1,,,,,0,,,99,112
106464,note_on,,,,,4,0,2,,,,,1,,,88,109
106464,note_on,,,,,4,0,1,,,,,0,,,92,112
106556,note_off,,,,,92,0,1,,,,,0,,,92,71
106556,note_off,,,,,92,0,2,,,,,1,,,88,69
106556,note_off,,,,,0,0,1,,,,,0,,,99,71
106560,note_on,,,,,0,0,2,,,,,1,,,82,109
106560,note_on,,,,,0,0,1,,,,,0,,,97,112
106560,note_on,,,,,0,0,1,,,,,0,,,91,112
106560,key_signature,,,,,4,1,1,,,,,,,Ab,,
106560,key_signature,,,,,4,1,2,,,,,,,Ab,,
106652,note_off,,,,,92,0,2,,,,,1,,,82,69
106652,note_off,,,,,92,0,1,,,,,0,,,97,71
106656,note_on,,,,,4,0,1,,,,,0,,,99,112
106656,note_on,,,,,4,0,2,,,,,1,,,88,109
106748,note_off,,,,,0,0,1,,,,,0,,,99,71
106748,note_off,,,,,92,0,1,,,,,0,,,91,71
106748,note_off,,,,,92,0,2,,,,,1,,,88,69
106752,note_on,,,,,0,0,1,,,,,0,,,97,112
106752,note_on,,,,,4,0,1,,,,,0,,,91,112
106752,note_on,,,,,4,0,2,,,,,1,,,82,109
106844,note_off,,,,,92,0,1,,,,,0,,,97,71
106844,note_off,,,,,92,0,2,,,,,1,,,82,69
106848,note_on,,,,,4,0,2,,,,,1,,,88,109
106848,note_on,,,,,4,0,1,,,,,0,,,99,112
106940,note_off,,,,,0,0,1,,,,,0,,,99,71
106940,note_off,,,,,92,0,2,,,,,1,,,88,69
106940,note_off,,,,,92,0,1,,,,,0,,,91,71
106944,note_on,,,,,4,0,1,,,,,0,,,91,112
106944,note_on,,,,,4,0,2,,,,,1,,,82,109
106944,note_on,,,,,0,0,1,,,,,0,,,97,112
107036,note_off,,,,,92,0,1,,,,,0,,,97,71
107036,note_off,,,,,92,0,2,,,,,1,,,82,69
107040,note_on,,,,,4,0,1,,,,,0,,,99,112
107040,note_on,,,,,4,0,2,,,,,1,,,88,109
107132,note_off,,,,,0,0,1,,,,,0,,,99,71
107132,note_off,,,,,92,0,2,,,,,1,,,88,69
107132,note_off,,,,,92,0,1,,,,,0,,,91,71
107136,note_on,,,,,0,0,1,,,,,0,,,97,112
107136,note_on,,,,,4,0,1,,,,,0,,,91,112
107136,note_on,,,,,4,0,2,,,,,1,,,82,109
107324,note_off,,,,,188,0,2,,,,,1,,,82,69
107324,note_off,,,,,0,0,1,,,,,0,,,97,71
107324,note_off,,,,,188,0,1,,,,,0,,,91,71
107328,note_on,,,,,4,0,2,,,,,1,,,85,109
107328,note_on,,,,,0,0,1,,,,,0,,,94,112
107328,note_on,,,,,4,0,1,,,,,0,,,91,112
107516,note_off,,,,,188,0,2,,,,,1,,,85,69
107516,note_off,,,,,0,0,1,,,,,0,,,94,71
107516,note_off,,,,,188,0,1,,,,,0,,,91,71
107520,note_on,,,,,4,0,2,,,,,1,,,88,109
107520,note_on,,,,,0,0,1,,,,,0,,,97,112
107520,note_on,,,,,4,0,1,,,,,0,,,94,112
107708,note_off,,,,,188,0,1,,,,,0,,,94,71
107708,note_off,,,,,0,0,1,,,,,0,,,97,71
107708,note_off,,,,,188,0,2,,,,,1,,,88,69
107712,note_on,,,,,4,0,1,,,,,0,,,92,112
107712,note_on,,,,,4,0,2,,,,,1,,,89,109
107712,note_on,,,,,0,0,1,,,,,0,,,96,112
107900,note_off,,,,,0,0,1,,,,,0,,,96,71
107900,note_off,,,,,188,0,1,,,,,0,,,92,71
107900,note_off,,,,,188,0,2,,,,,1,,,89,69
107904,note_on,,,,,0,0,1,,,,,0,,,92,112
107904,note_on,,,,,4,0,2,,,,,1,,,84,109
107904,note_on,,,,,4,0,1,,,,,0,,,89,112
108092,note_off,,,,,188,0,2,,,,,1,,,84,69
108092,note_off,,,,,188,0,1,,,,,0,,,89,71
108092,note_off,,,,,0,0,1,,,,,0,,,92,71
108096,note_on,,,,,4,0,1,,,,,0,,,92,112
108096,note_on,,,,,0,0,1,,,,,0,,,96,112
108096,note_on,,,,,4,0,2,,,,,1,,,89,109
108284,note_off,,,,,188,0,1,,,,,0,,,92,71
108284,note_off,,,,,188,0,2,,,,,1,,,89,69
108284,note_off,,,,,0,0,1,,,,,0,,,96,71
108288,note_on,,,,,4,0,1,,,,,0,,,89,112
108288,note_on,,,,,4,0,2,,,,,1,,,84,109
108288,note_on,,,,,0,0,1,,,,,0,,,92,112
108476,note_off,,,,,0,0,1,,,,,0,,,92,71
108476,note_off,,,,,188,0,2,,,,,1,,,84,69
108476,note_off,,,,,188,0,1,,,,,0,,,89,71
108480,note_on,,,,,4,0,2,,,,,1,,,80,109
108480,note_on,,,,,0,0,1,,,,,0,,,84,112
108480,note_on,,,,,4,0,1,,,,,0,,,89,112
108668,note_off,,,,,0,0,1,,,,,0,,,84,71
108668,note_off,,,,,188,0,2,,,,,1,,,80,69
108668,note_off,,,,,188,0,1,,,,,0,,,89,71
108672,note_on,,,,,4,0,1,,,,,0,,,89,112
108672,note_on,,,,,4,0,2,,,,,1,,,84,109
108672,note_on,,,,,0,0,1,,,,,0,,,92,112
108860,note_off,,,,,188,0,2,,,,,1,,,84,69
108860,note_off,,,,,0,0,1,,,,,0,,,92,71
108860,note_off,,,,,188,0,1,,,,,0,,,89,71
108864,note_on,,,,,0,0,1,,,,,0,,,89,112
108864,note_on,,,,,4,0,2,,,,,1,,,80,109
108864,note_on,,,,,4,0,1,,,,,0,,,85,112
108956,note_off,,,,,92,0,1,,,,,0,,,89,71
108956,note_off,,,,,92,0,2,,,,,1,,,80,69
108960,note_on,,,,,4,0,1,,,,,0,,,91,112
108960,note_on,,,,,4,0,2,,,,,1,,,83,109
109052,note_off,,,,,0,0,1,,,,,0,,,91,71
109052,note_off,,,,,92,0,1,,,,,0,,,85,71
109052,note_off,,,,,92,0,2,,,,,1,,,83,69
109056,note_on,,,,,0,0,1,,,,,0,,,89,112
109056,note_on,,,,,4,0,2,,,,,1,,,80,109
109056,note_on,,,,,4,0,1,,,,,0,,,85,112
109148,note_off,,,,,92,0,1,,,,,0,,,89,71
109148,note_off,,,,,92,0,2,,,,,1,,,80,69
109152,note_on,,,,,4,0,1,,,,,0,,,91,112
109152,note_on,,,,,4,0,2,,,,,1,,,83,109
109244,note_off,,,,,92,0,2,,,,,1,,,83,69
109244,note_off,,,,,92,0,1,,,,,0,,,85,71
109244,note_off,,,,,0,0,1,,,,,0,,,91,71
109248,note_on,,,,,4,0,1,,,,,0,,,85,112
109248,note_on,,,,,4,0,2,,,,,1,,,80,109
109248,note_on,,,,,0,0,1,,,,,0,,,89,112
109340,note_off,,,,,92,0,2,,,,,1,,,80,69
109340,note_off,,,,,92,0,1,,,,,0,,,89,71
109344,note_on,,,,,4,0,1,,,,,0,,,91,112
109344,note_on,,,,,4,0,2,,,,,1,,,83,109
109436,note_off,,,,,0,0,1,,,,,0,,,91,71
109436,note_off,,,,,92,0,1,,,,,0,,,85,71
109436,note_off,,,,,92,0,2,,,,,1,,,83,69
109440,note_on,,,,,4,0,2,,,,,1,,,80,109
109440,note_on,,,,,4,0,1,,,,,0,,,85,112
109440,note_on,,,,,0,0,1,,,,,0,,,89,112
109628,note_off,,,,,0,0,1,,,,,0,,,89,71
109628,note_off,,,,,188,0,2,,,,,1,,,80,69
109628,note_off,,,,,188,0,1,,,,,0,,,85,71
109632,note_on,,,,,4,0,1,,,,,0,,,83,112
109632,note_on,,,,,0,0,1,,,,,0,,,85,112
109632,note_on,,,,,4,0,2,,,,,1,,,77,109
109820,note_off,,,,,188,0,1,,,,,0,,,83,71
109820,note_off,,,,,0,0,1,,,,,0,,,85,71
109820,note_off,,,,,188,0,2,,,,,1,,,77,69
109824,note_on,,,,,4,0,2,,,,,1,,,80,109
109824,note_on,,,,,4,0,1,,,,,0,,,85,112
109824,note_on,,,,,0,0,1,,,,,0,,,89,112
110012,note_off,,,,,188,0,2,,,,,1,,,80,69
110012,note_off,,,,,0,0,1,,,,,0,,,89,71
110012,note_off,,,,,188,0,1,,,,,0,,,85,71
110016,note_on,,,,,0,0,1,,,,,0,,,92,112
110016,note_on,,,,,4,0,1,,,,,0,,,89,112
110016,note_on,,,,,4,0,2,,,,,1,,,84,109
110204,note_off,,,,,0,0,1,,,,,0,,,92,71
110204,note_off,,,,,188,0,1,,,,,0,,,89,71
110204,note_off,,,,,188,0,2,,,,,1,,,84,69
110208,note_on,,,,,4,0,1,,,,,0,,,89,112
110208,note_on,,,,,0,0,1,,,,,0,,,84,112
110208,note_on,,,,,4,0,2,,,,,1,,,80,109
110396,note_off,,,,,188,0,2,,,,,1,,,80,69
110396,note_off,,,,,188,0,1,,,,,0,,,89,71
110396,note_off,,,,,0,0,1,,,,,0,,,84,71
110400,note_on,,,,,0,0,1,,,,,0,,,92,112
110400,note_on,,,,,4,0,2,,,,,1,,,84,109
110400,note_on,,,,,4,0,1,,,,,0,,,89,112
110588,note_off,,,,,188,0,2,,,,,1,,,84,69
110588,note_off,,,,,0,0,1,,,,,0,,,92,71
110588,note_off,,,,,188,0,1,,,,,0,,,89,71
110592,note_on,,,,,0,0,1,,,,,0,,,89,112
110592,note_on,,,,,4,0,2,,,,,1,,,80,109
110592,note_on,,,,,4,0,1,,,,,0,,,84,112
110780,note_off,,,,,0,0,1,,,,,0,,,89,71
110780,note_off,,,,,188,0,2,,,,,1,,,80,69
110780,note_off,,,,,188,0,1,,,,,0,,,84,71
110784,note_on,,,,,4,0,2,,,,,1,,,77,109
110784,note_on,,,,,0,0,1,,,,,0,,,84,112
110784,note_on,,,,,4,0,1,,,,,0,,,80,112
110972,note_off,,,,,0,0,1,,,,,0,,,84,71
110972,note_off,,,,,188,0,2,,,,,1,,,77,69
110972,note_off,,,,,188,0,1,,,,,0,,,80,71
110976,note_on,,,,,0,0,1,,,,,0,,,80,112
110976,note_on,,,,,4,0,2,,,,,1,,,72,109
110976,note_on,,,,,4,0,1,,,,,0,,,77,112
111164,note_off,,,,,0,0,1,,,,,0,,,80,71
111164,note_off,,,,,188,0,2,,,,,1,,,72,69
111164,note_off,,,,,188,0,1,,,,,0,,,77,71
111168,note_on,,,,,4,0,2,,,,,1,,,70,109
111168,note_on,,,,,4,0,1,,,,,0,,,79,112
111168,note_on,,,,,0,0,1,,,,,0,,,85,112
111260,note_off,,,,,92,0,1,,,,,0,,,85,71
111260,note_off,,,,,92,0,2,,,,,1,,,70,69
111264,note_on,,,,,4,0,2,,,,,1,,,76,109
111264,note_on,,,,,4,0,1,,,,,0,,,87,112
111356,note_off,,,,,0,0,1,,,,,0,,,87,71
111356,note_off,,,,,92,0,2,,,,,1,,,76,69
111356,note_off,,,,,92,0,1,,,,,0,,,79,71
111360,note_on,,,,,4,0,1,,,,,0,,,79,112
111360,note_on,,,,,0,0,1,,,,,0,,,85,112
111360,note_on,,,,,4,0,2,,,,,1,,,70,109
111452,note_off,,,,,92,0,2,,,,,1,,,70,69
111452,note_off,,,,,92,0,1,,,,,0,,,85,71
111456,note_on,,,,,4,0,2,,,,,1,,,76,109
111456,note_on,,,,,4,0,1,,,,,0,,,87,112
111548,note_off,,,,,0,0,1,,,,,0,,,87,71
111548,note_off,,,,,92,0,1,,,,,0,,,79,71
111548,note_off,,,,,92,0,2,,,,,1,,,76,69
111552,note_on,,,,,4,0,2,,,,,1,,,70,109
111552,note_on,,,,,0,0,1,,,,,0,,,85,112
111552,note_on,,,,,4,0,1,,,,,0,,,79,112
111644,note_off,,,,,92,0,1,,,,,0,,,85,71
111644,note_off,,,,,92,0,2,,,,,1,,,70,69
111648,note_on,,,,,4,0,2,,,,,1,,,76,109
111648,note_on,,,,,4,0,1,,,,,0,,,87,112
111740,note_off,,,,,92,0,1,,,,,0,,,79,71
111740,note_off,,,,,92,0,2,,,,,1,,,76,69
111740,note_off,,,,,0,0,1,,,,,0,,,87,71
111744,note_on,,,,,0,0,1,,,,,0,,,85,112
111744,note_on,,,,,4,0,1,,,,,0,,,79,112
111744,note_on,,,,,4,0,2,,,,,1,,,70,109
111932,note_off,,,,,188,0,1,,,,,0,,,79,71
111932,note_off,,,,,0,0,1,,,,,0,,,85,71
111932,note_off,,,,,188,0,2,,,,,1,,,70,69
111936,note_on,,,,,4,0,1,,,,,0,,,79,112
111936,note_on,,,,,0,0,1,,,,,0,,,82,112
111936,note_on,,,,,4,0,2,,,,,1,,,73,109
112124,note_off,,,,,188,0,1,,,,,0,,,79,71
112124,note_off,,,,,0,0,1,,,,,0,,,82,71
112124,note_off,,,,,188,0,2,,,,,1,,,73,69
112128,note_on,,,,,4,0,1,,,,,0,,,82,112
112128,note_on,,,,,0,0,1,,,,,0,,,85,112
112128,note_on,,,,,4,0,2,,,,,1,,,76,109
112316,note_off,,,,,188,0,2,,,,,1,,,76,69
112316,note_off,,,,,188,0,1,,,,,0,,,82,71
112316,note_off,,,,,0,0,1,,,,,0,,,85,71
112320,note_on,,,,,0,0,1,,,,,0,,,84,112
112320,note_on,,,,,4,0,1,,,,,0,,,80,112
112320,note_on,,,,,4,0,2,,,,,1,,,77,109
112508,note_off,,,,,0,0,1,,,,,0,,,84,71
112508,note_off,,,,,188,0,2,,,,,1,,,77,69
112508,note_off,,,,,188,0,1,,,,,0,,,80,71
112512,note_on,,,,,4,0,1,,,,,0,,,77,112
112512,note_on,,,,,0,0,1,,,,,0,,,80,112
112512,note_on,,,,,4,0,2,,,,,1,,,72,109
112700,note_off,,,,,0,0,1,,,,,0,,,80,71
112700,note_off,,,,,188,0,1,,,,,0,,,77,71
112700,note_off,,,,,188,0,2,,,,,1,,,72,69
112704,note_on,,,,,0,0,1,,,,,0,,,84,112
112704,note_on,,,,,4,0,1,,,,,0,,,80,112
112704,note_on,,,,,4,0,2,,,,,1,,,77,109
112892,note_off,,,,,0,0,1,,,,,0,,,84,71
112892,note_off,,,,,188,0,2,,,,,1,,,77,69
112892,note_off,,,,,188,0,1,,,,,0,,,80,71
112896,note_on,,,,,4,0,1,,,,,0,,,77,112
112896,note_on,,,,,0,0,1,,,,,0,,,80,112
112896,note_on,,,,,4,0,2,,,,,1,,,72,109
113084,note_off,,,,,0,0,1,,,,,0,,,80,71
113084,note_off,,,,,188,0,2,,,,,1,,,72,69
113084,note_off,,,,,188,0,1,,,,,0,,,77,71
113088,note_on,,,,,0,0,1,,,,,0,,,77,112
113088,note_on,,,,,4,0,2,,,,,1,,,68,109
113088,note_on,,,,,4,0,1,,,,,0,,,72,112
113276,note_off,,,,,188,0,1,,,,,0,,,72,71
113276,note_off,,,,,188,0,2,,,,,1,,,68,69
113276,note_off,,,,,0,0,1,,,,,0,,,77,71
113280,note_on,,,,,0,0,1,,,,,0,,,80,112
113280,note_on,,,,,4,0,2,,,,,1,,,72,109
113280,note_on,,,,,4,0,1,,,,,0,,,77,112
113468,note_off,,,,,188,0,1,,,,,0,,,77,71
113468,note_off,,,,,188,0,2,,,,,1,,,72,69
113468,note_off,,,,,0,0,1,,,,,0,,,80,71
113472,note_on,,,,,4,0,2,,,,,1,,,68,109
113472,note_on,,,,,0,0,1,,,,,0,,,77,112
113472,note_on,,,,,4,0,1,,,,,0,,,73,112
113564,note_off,,,,,92,0,1,,,,,0,,,77,71
113564,note_off,,,,,92,0,2,,,,,1,,,68,69
113568,note_on,,,,,4,0,1,,,,,0,,,79,112
113568,note_on,,,,,4,0,2,,,,,1,,,71,109
113660,note_off,,,,,92,0,1,,,,,0,,,73,71
113660,note_off,,,,,92,0,2,,,,,1,,,71,69
113660,note_off,,,,,0,0,1,,,,,0,,,79,71
113664,note_on,,,,,4,0,1,,,,,0,,,73,112
113664,note_on,,,,,4,0,2,,,,,1,,,68,109
113664,note_on,,,,,0,0,1,,,,,0,,,77,112
113756,note_off,,,,,92,0,2,,,,,1,,,68,69
113756,note_off,,,,,92,0,1,,,,,0,,,77,71
113760,note_on,,,,,4,0,2,,,,,1,,,71,109
113760,note_on,,,,,4,0,1,,,,,0,,,79,112
113852,note_off,,,,,92,0,1,,,,,0,,,73,71
113852,note_off,,,,,92,0,2,,,,,1,,,71,69
113852,note_off,,,,,0,0,1,,,,,0,,,79,71
113856,note_on,,,,,4,0,1,,,,,0,,,73,112
113856,note_on,,,,,0,0,1,,,,,0,,,77,112
113856,note_on,,,,,4,0,2,,,,,1,,,68,109
113948,note_off,,,,,92,0,1,,,,,0,,,77,71
113948,note_off,,,,,92,0,2,,,,,1,,,68,69
113952,note_on,,,,,4,0,1,,,,,0,,,79,112
113952,note_on,,,,,4,0,2,,,,,1,,,71,109
114044,note_off,,,,,92,0,2,,,,,1,,,71,69
114044,note_off,,,,,92,0,1,,,,,0,,,73,71
114044,note_off,,,,,0,0,1,,,,,0,,,79,71
114048,note_on,,,,,4,0,1,,,,,0,,,77,112
114048,note_on,,,,,4,0,2,,,,,1,,,68,109
114048,note_on,,,,,0,0,1,,,,,0,,,73,112
114236,note_off,,,,,188,0,2,,,,,1,,,68,69
114236,note_off,,,,,0,0,1,,,,,0,,,73,71
114236,note_off,,,,,188,0,1,,,,,0,,,77,71
114240,note_on,,,,,4,0,1,,,,,0,,,73,112
114240,note_on,,,,,4,0,2,,,,,1,,,65,109
114240,note_on,,,,,0,0,1,,,,,0,,,71,112
114428,note_off,,,,,188,0,2,,,,,1,,,65,69
114428,note_off,,,,,188,0,1,,,,,0,,,73,71
114428,note_off,,,,,0,0,1,,,,,0,,,71,71
114432,note_on,,,,,4,0,1,,,,,0,,,73,112
114432,note_on,,,,,0,0,1,,,,,0,,,77,112
114432,note_on,,,,,4,0,2,,,,,1,,,68,109
114620,note_off,,,,,188,0,1,,,,,0,,,73,71
114620,note_off,,,,,188,0,2,,,,,1,,,68,69
114620,note_off,,,,,0,0,1,,,,,0,,,77,71
114624,note_on,,,,,4,0,2,,,,,1,,,72,109
114624,note_on,,,,,0,0,1,,,,,0,,,80,112
114624,note_on,,,,,4,0,1,,,,,0,,,77,112
114812,note_off,,,,,188,0,1,,,,,0,,,77,71
114812,note_off,,,,,0,0,1,,,,,0,,,80,71
114812,note_off,,,,,188,0,2,,,,,1,,,72,69
114816,note_on,,,,,0,0,1,,,,,0,,,77,112
114816,note_on,,,,,4,0,2,,,,,1,,,68,109
114816,note_on,,,,,4,0,1,,,,,0,,,72,112
115004,note_off,,,,,188,0,1,,,,,0,,,72,71
115004,note_off,,,,,0,0,1,,,,,0,,,77,71
115004,note_off,,,,,188,0,2,,,,,1,,,68,69
115008,note_on,,,,,4,0,2,,,,,1,,,72,109
115008,note_on,,,,,0,0,1,,,,,0,,,80,112
115008,note_on,,,,,4,0,1,,,,,0,,,77,112
115196,note_off,,,,,188,0,2,,,,,1,,,72,69
115196,note_off,,,,,0,0,1,,,,,0,,,80,71
115196,note_off,,,,,188,0,1,,,,,0,,,77,71
115200,note_on,,,,,4,0,1,,,,,0,,,77,112
115200,note_on,,,,,0,0,1,,,,,0,,,72,112
115200,note_on,,,,,4,0,2,,,,,1,,,68,109
115388,note_off,,,,,188,0,2,,,,,1,,,68,69
115388,note_off,,,,,0,0,1,,,,,0,,,72,71
115388,note_off,,,,,188,0,1,,,,,0,,,77,71
115392,note_on,,,,,0,0,1,,,,,0,,,68,112
115392,note_on,,,,,4,0,2,,,,,1,,,65,109
115392,note_on,,,,,4,0,1,,,,,0,,,72,112
115580,note_off,,,,,188,0,1,,,,,0,,,72,71
115580,note_off,,,,,188,0,2,,,,,1,,,65,69
115580,note_off,,,,,0,0,1,,,,,0,,,68,71
115584,note_on,,,,,4,0,1,,,,,0,,,65,112
115584,note_on,,,,,0,0,1,,,,,0,,,68,112
115584,note_on,,,,,4,0,2,,,,,1,,,60,109
115772,note_off,,,,,0,0,1,,,,,0,,,68,71
115772,note_off,,,,,188,0,2,,,,,1,,,60,69
115772,note_off,,,,,188,0,1,,,,,0,,,65,71
115776,note_on,,,,,4,0,2,,,,,1,,,64,109
115776,note_on,,,,,4,0,1,,,,,0,,,70,112
115776,note_on,,,,,0,0,1,,,,,0,,,73,112
115868,note_off,,,,,92,0,1,,,,,0,,,73,71
115868,note_off,,,,,92,0,2,,,,,1,,,64,69
115872,note_on,,,,,4,0,2,,,,,1,,,67,109
115872,note_on,,,,,4,0,1,,,,,0,,,75,112
115964,note_off,,,,,0,0,1,,,,,0,,,75,71
115964,note_off,,,,,92,0,1,,,,,0,,,70,71
115964,note_off,,,,,92,0,2,,,,,1,,,67,69
115968,note_on,,,,,4,0,2,,,,,1,,,64,109
115968,note_on,,,,,4,0,1,,,,,0,,,70,112
115968,note_on,,,,,0,0,1,,,,,0,,,73,112
116060,note_off,,,,,92,0,2,,,,,1,,,64,69
116060,note_off,,,,,92,0,1,,,,,0,,,73,71
116064,note_on,,,,,4,0,2,,,,,1,,,67,109
116064,note_on,,,,,4,0,1,,,,,0,,,75,112
116156,note_off,,,,,0,0,1,,,,,0,,,75,71
116156,note_off,,,,,92,0,1,,,,,0,,,70,71
116156,note_off,,,,,92,0,2,,,,,1,,,67,69
116160,note_on,,,,,4,0,1,,,,,0,,,70,112
116160,note_on,,,,,0,0,1,,,,,0,,,73,112
116160,note_on,,,,,4,0,2,,,,,1,,,64,109
116252,note_off,,,,,92,0,2,,,,,1,,,64,69
116252,note_off,,,,,92,0,1,,,,,0,,,73,71
116256,note_on,,,,,4,0,1,,,,,0,,,75,112
116256,note_on,,,,,4,0,2,,,,,1,,,67,109
116348,note_off,,,,,0,0,1,,,,,0,,,75,71
116348,note_off,,,,,92,0,1,,,,,0,,,70,71
116348,note_off,,,,,92,0,2,,,,,1,,,67,69
116352,note_on,,,,,0,0,1,,,,,0,,,73,112
116352,note_on,,,,,4,0,1,,,,,0,,,70,112
116352,note_on,,,,,4,0,2,,,,,1,,,64,109
116540,note_off,,,,,188,0,2,,,,,1,,,64,69
116540,note_off,,,,,0,0,1,,,,,0,,,73,71
116540,note_off,,,,,188,0,1,,,,,0,,,70,71
116544,note_on,,,,,4,0,1,,,,,0,,,70,112
116544,note_on,,,,,0,0,1,,,,,0,,,67,112
116544,note_on,,,,,4,0,2,,,,,1,,,61,109
116732,note_off,,,,,188,0,2,,,,,1,,,61,69
116732,note_off,,,,,188,0,1,,,,,0,,,70,71
116732,note_off,,,,,0,0,1,,,,,0,,,67,71
116736,note_on,,,,,4,0,2,,,,,1,,,64,109
116736,note_on,,,,,4,0,1,,,,,0,,,70,112
116736,note_on,,,,,0,0,1,,,,,0,,,73,112
116924,note_off,,,,,0,0,1,,,,,0,,,73,71
116924,note_off,,,,,188,0,1,,,,,0,,,70,71
116924,note_off,,,,,188,0,2,,,,,1,,,64,69
116928,note_on,,,,,0,0,1,,,,,0,,,73,112
116928,note_on,,,,,4,0,2,,,,,1,,,64,109
116928,note_on,,,,,4,0,1,,,,,0,,,70,112
117020,note_off,,,,,92,0,1,,,,,0,,,73,71
117020,note_off,,,,,92,0,2,,,,,1,,,64,69
117024,note_on,,,,,4,0,2,,,,,1,,,67,109
117024,note_on,,,,,4,0,1,,,,,0,,,75,112
117116,note_off,,,,,92,0,1,,,,,0,,,70,71
117116,note_off,,,,,0,0,1,,,,,0,,,75,71
117116,note_off,,,,,92,0,2,,,,,1,,,67,69
117120,note_on,,,,,4,0,1,,,,,0,,,70,112
117120,note_on,,,,,4,0,2,,,,,1,,,64,109
117120,note_on,,,,,0,0,1,,,,,0,,,73,112
117212,note_off,,,,,92,0,1,,,,,0,,,73,71
117212,note_off,,,,,92,0,2,,,,,1,,,64,69
117216,note_on,,,,,4,0,2,,,,,1,,,67,109
117216,note_on,,,,,4,0,1,,,,,0,,,75,112
117308,note_off,,,,,0,0,1,,,,,0,,,75,71
117308,note_off,,,,,92,0,1,,,,,0,,,70,71
117308,note_off,,,,,92,0,2,,,,,1,,,67,69
117312,note_on,,,,,0,0,1,,,,,0,,,73,112
117312,note_on,,,,,4,0,2,,,,,1,,,64,109
117312,note_on,,,,,4,0,1,,,,,0,,,70,112
117404,note_off,,,,,92,0,1,,,,,0,,,73,71
117404,note_off,,,,,92,0,2,,,,,1,,,64,69
117408,note_on,,,,,4,0,2,,,,,1,,,67,109
117408,note_on,,,,,4,0,1,,,,,0,,,75,112
117500,note_off,,,,,92,0,2,,,,,1,,,67,69
117500,note_off,,,,,0,0,1,,,,,0,,,75,71
117500,note_off,,,,,92,0,1,,,,,0,,,70,71
117504,note_on,,,,,4,0,1,,,,,0,,,73,112
117504,note_on,,,,,4,0,2,,,,,1,,,63,109
117504,note_on,,,,,0,0,1,,,,,0,,,70,112
117692,note_off,,,,,0,0,1,,,,,0,,,70,71
117692,note_off,,,,,188,0,2,,,,,1,,,63,69
117692,note_off,,,,,188,0,1,,,,,0,,,73,71
117696,note_on,,,,,4,0,1,,,,,0,,,70,112
117696,note_on,,,,,4,0,2,,,,,1,,,61,109
117696,note_on,,,,,0,0,1,,,,,0,,,67,112
117884,note_off,,,,,188,0,2,,,,,1,,,61,69
117884,note_off,,,,,0,0,1,,,,,0,,,67,71
117884,note_off,,,,,188,0,1,,,,,0,,,70,71
117888,note_on,,,,,0,0,1,,,,,0,,,70,112
117888,note_on,,,,,4,0,2,,,,,1,,,63,109
117888,note_on,,,,,4,0,1,,,,,0,,,73,112
118076,note_off,,,,,188,0,1,,,,,0,,,73,71
118076,note_off,,,,,188,0,2,,,,,1,,,63,69
118076,note_off,,,,,0,0,1,,,,,0,,,70,71
118656,note_on,,,,,580,0,2,,,,,1,,,76,109
118656,note_on,,,,,580,0,1,,,,,0,,,82,112
118656,note_on,,,,,0,0,1,,,,,0,,,85,112
118748,note_off,,,,,92,0,2,,,,,1,,,76,69
118748,note_off,,,,,92,0,1,,,,,0,,,85,71
118752,note_on,,,,,4,0,2,,,,,1,,,79,109
118752,note_on,,,,,4,0,1,,,,,0,,,87,112
118844,note_off,,,,,92,0,1,,,,,0,,,82,71
118844,note_off,,,,,92,0,2,,,,,1,,,79,69
118844,note_off,,,,,0,0,1,,,,,0,,,87,71
118848,note_on,,,,,0,0,1,,,,,0,,,85,112
118848,note_on,,,,,4,0,2,,,,,1,,,76,109
118848,note_on,,,,,4,0,1,,,,,0,,,82,112
118940,note_off,,,,,92,0,1,,,,,0,,,85,71
118940,note_off,,,,,92,0,2,,,,,1,,,76,69
118944,note_on,,,,,4,0,1,,,,,0,,,87,112
118944,note_on,,,,,4,0,2,,,,,1,,,79,109
119036,note_off,,,,,0,0,1,,,,,0,,,87,71
119036,note_off,,,,,92,0,1,,,,,0,,,82,71
119036,note_off,,,,,92,0,2,,,,,1,,,79,69
119040,note_on,,,,,0,0,1,,,,,0,,,85,112
119040,note_on,,,,,4,0,2,,,,,1,,,76,109
119040,note_on,,,,,4,0,1,,,,,0,,,82,112
119228,note_off,,,,,188,0,2,,,,,1,,,76,69
119228,note_off,,,,,0,0,1,,,,,0,,,85,71
119228,note_off,,,,,188,0,1,,,,,0,,,82,71
119232,note_on,,,,,0,0,1,,,,,0,,,97,112
119232,note_on,,,,,4,0,2,,,,,1,,,88,109
119232,note_on,,,,,4,0,1,,,,,0,,,94,112
119324,note_off,,,,,92,0,1,,,,,0,,,94,71
119324,note_off,,,,,0,0,1,,,,,0,,,97,71
119324,note_off,,,,,92,0,2,,,,,1,,,88,69
119328,note_on,,,,,4,0,2,,,,,1,,,91,109
119328,note_on,,,,,4,0,1,,,,,0,,,99,112
119420,note_off,,,,,92,0,1,,,,,0,,,99,71
119420,note_off,,,,,92,0,2,,,,,1,,,91,69
119424,note_on,,,,,4,0,2,,,,,1,,,88,109
119424,note_on,,,,,4,0,1,,,,,0,,,94,112
119424,note_on,,,,,0,0,1,,,,,0,,,97,112
119516,note_off,,,,,92,0,2,,,,,1,,,88,69
119516,note_off,,,,,0,0,1,,,,,0,,,97,71
119516,note_off,,,,,92,0,1,,,,,0,,,94,71
119520,note_on,,,,,4,0,2,,,,,1,,,91,109
119520,note_on,,,,,4,0,1,,,,,0,,,99,112
119612,note_off,,,,,92,0,1,,,,,0,,,99,71
119612,note_off,,,,,92,0,2,,,,,1,,,91,69
119616,note_on,,,,,4,0,2,,,,,1,,,88,109
119616,note_on,,,,,0,0,1,,,,,0,,,97,112
119616,note_on,,,,,4,0,1,,,,,0,,,94,112
119804,note_off,,,,,188,0,2,,,,,1,,,88,69
119804,note_off,,,,,188,0,1,,,,,0,,,94,71
119804,note_off,,,,,0,0,1,,,,,0,,,97,71
119808,note_on,,,,,4,0,2,,,,,1,,,76,109
119808,note_on,,,,,0,0,1,,,,,0,,,82,112
119808,note_on,,,,,4,0,1,,,,,0,,,85,112
119900,note_off,,,,,92,0,2,,,,,1,,,76,69
119900,note_off,,,,,0,0,1,,,,,0,,,82,71
119900,note_off,,,,,92,0,1,,,,,0,,,85,71
119904,note_on,,,,,4,0,2,,,,,1,,,79,109
119904,note_on,,,,,4,0,1,,,,,0,,,87,112
119996,note_off,,,,,92,0,2,,,,,1,,,79,69
119996,note_off,,,,,92,0,1,,,,,0,,,87,71
120000,note_on,,,,,0,0,1,,,,,0,,,85,112
120000,note_on,,,,,4,0,2,,,,,1,,,76,109
120000,note_on,,,,,4,0,1,,,,,0,,,82,112
120092,note_off,,,,,0,0,1,,,,,0,,,85,71
120092,note_off,,,,,92,0,2,,,,,1,,,76,69
120092,note_off,,,,,92,0,1,,,,,0,,,82,71
120096,note_on,,,,,4,0,1,,,,,0,,,87,112
120096,note_on,,,,,4,0,2,,,,,1,,,79,109
120188,note_off,,,,,92,0,1,,,,,0,,,87,71
120188,note_off,,,,,92,0,2,,,,,1,,,79,69
120192,note_on,,,,,4,0,2,,,,,1,,,76,109
120192,note_on,,,,,0,0,1,,,,,0,,,85,112
120192,note_on,,,,,4,0,1,,,,,0,,,82,112
120380,note_off,,,,,188,0,2,,,,,1,,,76,69
120380,note_off,,,,,0,0,1,,,,,0,,,85,71
120380,note_off,,,,,188,0,1,,,,,0,,,82,71
120384,note_on,,,,,4,0,2,,,,,1,,,88,109
120384,note_on,,,,,4,0,1,,,,,0,,,94,112
120384,note_on,,,,,0,0,1,,,,,0,,,97,112
120476,note_off,,,,,0,0,1,,,,,0,,,97,71
120476,note_off,,,,,92,0,2,,,,,1,,,88,69
120476,note_off,,,,,92,0,1,,,,,0,,,94,71
120480,note_on,,,,,4,0,2,,,,,1,,,91,109
120480,note_on,,,,,4,0,1,,,,,0,,,99,112
120572,note_off,,,,,92,0,1,,,,,0,,,99,71
120572,note_off,,,,,92,0,2,,,,,1,,,91,69
120576,note_on,,,,,4,0,2,,,,,1,,,88,109
120576,note_on,,,,,0,0,1,,,,,0,,,97,112
120576,note_on,,,,,4,0,1,,,,,0,,,94,112
120668,note_off,,,,,0,0,1,,,,,0,,,97,71
120668,note_off,,,,,92,0,1,,,,,0,,,94,71
120668,note_off,,,,,92,0,2,,,,,1,,,88,69
120672,note_on,,,,,4,0,1,,,,,0,,,99,112
120672,note_on,,,,,4,0,2,,,,,1,,,91,109
120764,note_off,,,,,92,0,1,,,,,0,,,99,71
120764,note_off,,,,,92,0,2,,,,,1,,,91,69
120768,note_on,,,,,4,0,1,,,,,0,,,94,112
120768,note_on,,,,,0,0,1,,,,,0,,,97,112
120768,note_on,,,,,4,0,2,,,,,1,,,88,109
120956,note_off,,,,,188,0,1,,,,,0,,,94,71
120956,note_off,,,,,0,0,1,,,,,0,,,97,71
120956,note_off,,,,,188,0,2,,,,,1,,,88,69
121536,note_on,,,,,580,0,1,,,,,0,,,64,112
122112,note_on,,,,,1156,0,2,,,,,1,,,46,109
122112,note_on,,,,,0,0,2,,,,,1,,,55,109
122112,note_on,,,,,0,0,2,,,,,1,,,61,109
122684,note_off,,,,,1148,0,1,,,,,0,,,64,71
122688,note_on,,,,,4,0,1,,,,,0,,,64,112
122688,note_on,,,,,0,0,1,,,,,0,,,76,112
123260,note_off,,,,,1148,0,2,,,,,1,,,46,69
123260,note_off,,,,,0,0,2,,,,,1,,,55,69
123260,note_off,,,,,0,0,2,,,,,1,,,61,69
123264,note_on,,,,,4,0,2,,,,,1,,,45,109
123264,note_on,,,,,0,0,2,,,,,1,,,61,109
123264,note_on,,,,,0,0,2,,,,,1,,,55,109
123836,note_off,,,,,0,0,1,,,,,0,,,64,71
123836,note_off,,,,,1148,0,1,,,,,0,,,76,71
123840,note_on,,,,,4,0,1,,,,,0,,,76,112
123840,note_on,,,,,0,0,1,,,,,0,,,88,112
124412,note_off,,,,,0,0,2,,,,,1,,,45,69
124412,note_off,,,,,0,0,1,,,,,0,,,88,71
124412,note_off,,,,,572,0,1,,,,,0,,,76,71
124412,note_off,,,,,1148,0,2,,,,,1,,,55,69
124412,note_off,,,,,0,0,2,,,,,1,,,61,69
124416,key_signature,,,,,4,1,2,,,,,,,Db,,
124416,key_signature,,,,,4,1,1,,,,,,,Db,,
124416,note_on,,,,,0,0,2,,,,,1,,,44,109
124512,note_on,,,,,68704,0,3,,,,,2,,,76,115
124604,note_off,,,,,188,0,2,,,,,1,,,44,69
124604,note_off,,,,,92,0,3,,,,,2,,,76,73
124608,note_on,,,,,192,0,1,,,,,0,,,64,112
124608,note_on,,,,,4,0,3,,,,,2,,,76,115
124700,note_off,,,,,92,0,3,,,,,2,,,76,73
124704,note_on,,,,,4,0,3,,,,,2,,,76,115
124796,note_off,,,,,92,0,3,,,,,2,,,76,73
124800,note_on,,,,,4,0,3,,,,,2,,,88,115
124800,note_on,,,,,192,0,1,,,,,0,,,60,112
124892,note_off,,,,,92,0,3,,,,,2,,,88,73
124896,note_on,,,,,4,0,3,,,,,2,,,76,115
124988,note_off,,,,,92,0,3,,,,,2,,,76,73
124988,note_off,,,,,0,0,1,,,,,0,,,60,71
124988,note_off,,,,,188,0,1,,,,,0,,,64,71
124992,note_on,,,,,0,0,2,,,,,1,,,56,109
124992,note_on,,,,,388,0,2,,,,,1,,,54,109
125088,note_on,,,,,100,0,3,,,,,2,,,77,115
125180,note_off,,,,,188,0,2,,,,,1,,,54,69
125180,note_off,,,,,0,0,2,,,,,1,,,56,69
125180,note_off,,,,,92,0,3,,,,,2,,,77,73
125184,note_on,,,,,196,0,1,,,,,0,,,65,112
125184,note_on,,,,,4,0,3,,,,,2,,,77,115
125276,note_off,,,,,92,0,3,,,,,2,,,77,73
125280,note_on,,,,,4,0,3,,,,,2,,,77,115
125372,note_off,,,,,92,0,3,,,,,2,,,77,73
125376,note_on,,,,,192,0,1,,,,,0,,,60,112
125376,note_on,,,,,4,0,3,,,,,2,,,89,115
125468,note_off,,,,,92,0,3,,,,,2,,,89,73
125472,note_on,,,,,4,0,3,,,,,2,,,77,115
125564,note_off,,,,,92,0,3,,,,,2,,,77,73
125564,note_off,,,,,188,0,1,,,,,0,,,65,71
125564,note_off,,,,,0,0,1,,,,,0,,,60,71
125568,note_on,,,,,0,0,2,,,,,1,,,56,109
125568,note_on,,,,,388,0,2,,,,,1,,,54,109
125664,note_on,,,,,100,0,3,,,,,2,,,82,115
125756,note_off,,,,,0,0,2,,,,,1,,,56,69
125756,note_off,,,,,92,0,3,,,,,2,,,82,73
125756,note_off,,,,,188,0,2,,,,,1,,,54,69
125760,note_on,,,,,196,0,1,,,,,0,,,70,112
125760,note_on,,,,,4,0,3,,,,,2,,,82,115
125852,note_off,,,,,92,0,3,,,,,2,,,82,73
125856,note_on,,,,,4,0,3,,,,,2,,,82,115
125948,note_off,,,,,92,0,3,,,,,2,,,82,73
125952,note_on,,,,,192,0,1,,,,,0,,,60,112
125952,note_on,,,,,4,0,3,,,,,2,,,94,115
126044,note_off,,,,,92,0,3,,,,,2,,,94,73
126048,note_on,,,,,4,0,3,,,,,2,,,82,115
126140,note_off,,,,,188,0,1,,,,,0,,,70,71
126140,note_off,,,,,0,0,1,,,,,0,,,60,71
126140,note_off,,,,,92,0,3,,,,,2,,,82,73
126144,note_on,,,,,0,0,2,,,,,1,,,54,109
126144,note_on,,,,,388,0,2,,,,,1,,,56,109
126240,note_on,,,,,100,0,3,,,,,2,,,76,115
126332,note_off,,,,,0,0,2,,,,,1,,,54,69
126332,note_off,,,,,188,0,2,,,,,1,,,56,69
126332,note_off,,,,,92,0,3,,,,,2,,,76,73
126336,note_on,,,,,4,0,3,,,,,2,,,76,115
126336,note_on,,,,,196,0,1,,,,,0,,,64,112
126428,note_off,,,,,92,0,3,,,,,2,,,76,73
126432,note_on,,,,,4,0,3,,,,,2,,,76,115
126524,note_off,,,,,92,0,3,,,,,2,,,76,73
126528,note_on,,,,,4,0,3,,,,,2,,,88,115
126528,note_on,,,,,192,0,1,,,,,0,,,60,112
126620,note_off,,,,,92,0,3,,,,,2,,,88,73
126624,note_on,,,,,4,0,3,,,,,2,,,76,115
126716,note_off,,,,,92,0,3,,,,,2,,,76,73
126716,note_off,,,,,188,0,1,,,,,0,,,64,71
126716,note_off,,,,,0,0,1,,,,,0,,,60,71
126720,note_on,,,,,388,0,2,,,,,1,,,37,109
126816,note_on,,,,,100,0,3,,,,,2,,,77,115
126908,note_off,,,,,92,0,3,,,,,2,,,77,73
126912,note_on,,,,,196,0,1,,,,,0,,,65,112
126912,note_on,,,,,4,0,3,,,,,2,,,77,115
127004,note_off,,,,,92,0,3,,,,,2,,,77,73
127008,note_on,,,,,4,0,3,,,,,2,,,77,115
127100,note_off,,,,,92,0,3,,,,,2,,,77,73
127100,note_off,,,,,380,0,2,,,,,1,,,37,69
127104,note_on,,,,,4,0,3,,,,,2,,,89,115
127104,note_on,,,,,192,0,1,,,,,0,,,61,112
127196,note_off,,,,,92,0,3,,,,,2,,,89,73
127200,note_on,,,,,4,0,3,,,,,2,,,77,115
127292,note_off,,,,,188,0,1,,,,,0,,,65,71
127292,note_off,,,,,92,0,3,,,,,2,,,77,73
127292,note_off,,,,,0,0,1,,,,,0,,,61,71
127296,note_on,,,,,196,0,2,,,,,1,,,53,109
127296,note_on,,,,,0,0,2,,,,,1,,,57,109
127392,note_on,,,,,100,0,3,,,,,2,,,69,115
127484,note_off,,,,,188,0,2,,,,,1,,,57,69
127484,note_off,,,,,92,0,3,,,,,2,,,69,73
127488,note_on,,,,,4,0,3,,,,,2,,,69,115
127488,note_on,,,,,196,0,1,,,,,0,,,65,112
127580,note_off,,,,,92,0,3,,,,,2,,,69,73
127584,note_on,,,,,4,0,3,,,,,2,,,69,115
127676,note_off,,,,,188,0,1,,,,,0,,,65,71
127676,note_off,,,,,92,0,3,,,,,2,,,69,73
127676,note_off,,,,,192,0,2,,,,,1,,,53,69
127680,note_on,,,,,4,0,3,,,,,2,,,81,115
127680,note_on,,,,,4,0,1,,,,,0,,,61,112
127772,note_off,,,,,92,0,3,,,,,2,,,81,73
127776,note_on,,,,,4,0,3,,,,,2,,,69,115
127868,note_off,,,,,92,0,3,,,,,2,,,69,73
127868,note_off,,,,,188,0,1,,,,,0,,,61,71
127872,note_on,,,,,196,0,2,,,,,1,,,53,109
127872,note_on,,,,,4,0,3,,,,,2,,,69,115
127872,note_on,,,,,0,0,2,,,,,1,,,57,109
127964,note_off,,,,,92,0,3,,,,,2,,,69,73
127968,note_on,,,,,4,0,3,,,,,2,,,69,115
128060,note_off,,,,,92,0,3,,,,,2,,,69,73
128060,note_off,,,,,188,0,2,,,,,1,,,57,69
128064,note_on,,,,,4,0,3,,,,,2,,,81,115
128064,note_on,,,,,196,0,1,,,,,0,,,65,112
128156,note_off,,,,,92,0,3,,,,,2,,,81,73
128160,note_on,,,,,4,0,3,,,,,2,,,69,115
128252,note_off,,,,,92,0,3,,,,,2,,,69,73
128252,note_off,,,,,192,0,2,,,,,1,,,53,69
128252,note_off,,,,,188,0,1,,,,,0,,,65,71
128256,note_on,,,,,4,0,3,,,,,2,,,68,115
128256,note_on,,,,,4,0,1,,,,,0,,,61,112
128348,note_off,,,,,92,0,3,,,,,2,,,68,73
128352,note_on,,,,,4,0,3,,,,,2,,,68,115
128444,note_off,,,,,92,0,3,,,,,2,,,68,73
128444,note_off,,,,,188,0,1,,,,,0,,,61,71
128448,note_on,,,,,0,0,2,,,,,1,,,56,109
128448,note_on,,,,,4,0,3,,,,,2,,,80,115
128448,note_on,,,,,196,0,2,,,,,1,,,53,109
128540,note_off,,,,,92,0,3,,,,,2,,,80,73
128544,note_on,,,,,4,0,3,,,,,2,,,68,115
128636,note_off,,,,,92,0,3,,,,,2,,,68,73
128636,note_off,,,,,188,0,2,,,,,1,,,56,69
128640,note_on,,,,,4,0,3,,,,,2,,,77,115
128640,note_on,,,,,196,0,1,,,,,0,,,65,112
128732,note_off,,,,,92,0,3,,,,,2,,,77,73
128736,note_on,,,,,4,0,3,,,,,2,,,77,115
128828,note_off,,,,,92,0,3,,,,,2,,,77,73
128828,note_off,,,,,192,0,2,,,,,1,,,53,69
128828,note_off,,,,,188,0,1,,,,,0,,,65,71
128832,note_on,,,,,4,0,3,,,,,2,,,89,115
128832,note_on,,,,,4,0,1,,,,,0,,,61,112
128924,note_off,,,,,92,0,3,,,,,2,,,89,73
128928,note_on,,,,,4,0,3,,,,,2,,,77,115
129020,note_off,,,,,188,0,1,,,,,0,,,61,71
129020,note_off,,,,,92,0,3,,,,,2,,,77,73
129024,note_on,,,,,196,0,2,,,,,1,,,44,109
129120,note_on,,,,,100,0,3,,,,,2,,,76,115
129212,note_off,,,,,188,0,2,,,,,1,,,44,69
129212,note_off,,,,,92,0,3,,,,,2,,,76,73
129216,note_on,,,,,4,0,3,,,,,2,,,76,115
129216,note_on,,,,,196,0,1,,,,,0,,,64,112
129308,note_off,,,,,92,0,3,,,,,2,,,76,73
129312,note_on,,,,,4,0,3,,,,,2,,,76,115
129404,note_off,,,,,92,0,3,,,,,2,,,76,73
129408,note_on,,,,,196,0,2,,,,,1,,,60,109
129408,note_on,,,,,4,0,3,,,,,2,,,88,115
129500,note_off,,,,,92,0,3,,,,,2,,,88,73
129504,note_on,,,,,4,0,3,,,,,2,,,76,115
129596,note_off,,,,,188,0,2,,,,,1,,,60,69
129596,note_off,,,,,92,0,3,,,,,2,,,76,73
129596,note_off,,,,,380,0,1,,,,,0,,,64,71
129600,note_on,,,,,4,0,2,,,,,1,,,56,109
129600,note_on,,,,,0,0,2,,,,,1,,,54,109
129696,note_on,,,,,100,0,3,,,,,2,,,77,115
129788,note_off,,,,,188,0,2,,,,,1,,,56,69
129788,note_off,,,,,92,0,3,,,,,2,,,77,73
129788,note_off,,,,,0,0,2,,,,,1,,,54,69
129792,note_on,,,,,196,0,1,,,,,0,,,65,112
129792,note_on,,,,,4,0,3,,,,,2,,,77,115
129884,note_off,,,,,92,0,3,,,,,2,,,77,73
129888,note_on,,,,,4,0,3,,,,,2,,,77,115
129980,note_off,,,,,92,0,3,,,,,2,,,77,73
129984,note_on,,,,,192,0,1,,,,,0,,,60,112
129984,note_on,,,,,4,0,3,,,,,2,,,89,115
130076,note_off,,,,,92,0,3,,,,,2,,,89,73
130080,note_on,,,,,4,0,3,,,,,2,,,77,115
130172,note_off,,,,,188,0,1,,,,,0,,,65,71
130172,note_off,,,,,0,0,1,,,,,0,,,60,71
130172,note_off,,,,,92,0,3,,,,,2,,,77,73
130176,note_on,,,,,388,0,2,,,,,1,,,54,109
130176,note_on,,,,,0,0,2,,,,,1,,,56,109
130272,note_on,,,,,100,0,3,,,,,2,,,82,115
130364,note_off,,,,,92,0,3,,,,,2,,,82,73
130364,note_off,,,,,188,0,2,,,,,1,,,54,69
130364,note_off,,,,,0,0,2,,,,,1,,,56,69
130368,note_on,,,,,4,0,3,,,,,2,,,82,115
130368,note_on,,,,,196,0,1,,,,,0,,,70,112
130460,note_off,,,,,92,0,3,,,,,2,,,82,73
130464,note_on,,,,,4,0,3,,,,,2,,,82,115
130556,note_off,,,,,92,0,3,,,,,2,,,82,73
130560,note_on,,,,,192,0,1,,,,,0,,,60,112
130560,note_on,,,,,4,0,3,,,,,2,,,94,115
130652,note_off,,,,,92,0,3,,,,,2,,,94,73
130656,note_on,,,,,4,0,3,,,,,2,,,82,115
130748,note_off,,,,,188,0,1,,,,,0,,,70,71
130748,note_off,,,,,0,0,1,,,,,0,,,60,71
130748,note_off,,,,,92,0,3,,,,,2,,,82,73
130752,note_on,,,,,0,0,2,,,,,1,,,54,109
130752,note_on,,,,,388,0,2,,,,,1,,,56,109
130848,note_on,,,,,100,0,3,,,,,2,,,76,115
130940,note_off,,,,,92,0,3,,,,,2,,,76,73
130940,note_off,,,,,188,0,2,,,,,1,,,56,69
130940,note_off,,,,,0,0,2,,,,,1,,,54,69
130944,note_on,,,,,196,0,1,,,,,0,,,64,112
130944,note_on,,,,,4,0,3,,,,,2,,,76,115
131036,note_off,,,,,92,0,3,,,,,2,,,76,73
131040,note_on,,,,,4,0,3,,,,,2,,,76,115
131132,note_off,,,,,92,0,3,,,,,2,,,76,73
131136,note_on,,,,,4,0,3,,,,,2,,,88,115
131136,note_on,,,,,192,0,1,,,,,0,,,60,112
131228,note_off,,,,,92,0,3,,,,,2,,,88,73
131232,note_on,,,,,4,0,3,,,,,2,,,76,115
131324,note_off,,,,,188,0,1,,,,,0,,,64,71
131324,note_off,,,,,0,0,1,,,,,0,,,60,71
131324,note_off,,,,,92,0,3,,,,,2,,,76,73
131328,note_on,,,,,388,0,2,,,,,1,,,37,109
131424,note_on,,,,,100,0,3,,,,,2,,,77,115
131516,note_off,,,,,92,0,3,,,,,2,,,77,73
131520,note_on,,,,,4,0,3,,,,,2,,,77,115
131520,note_on,,,,,196,0,1,,,,,0,,,65,112
131612,note_off,,,,,92,0,3,,,,,2,,,77,73
131616,note_on,,,,,4,0,3,,,,,2,,,77,115
131708,note_off,,,,,380,0,2,,,,,1,,,37,69
131708,note_off,,,,,92,0,3,,,,,2,,,77,73
131712,note_on,,,,,4,0,3,,,,,2,,,89,115
131712,note_on,,,,,192,0,1,,,,,0,,,61,112
131804,note_off,,,,,92,0,3,,,,,2,,,89,73
131808,note_on,,,,,4,0,3,,,,,2,,,77,115
131900,note_off,,,,,92,0,3,,,,,2,,,77,73
131900,note_off,,,,,0,0,1,,,,,0,,,61,71
131900,note_off,,,,,188,0,1,,,,,0,,,65,71
131904,note_on,,,,,196,0,2,,,,,1,,,53,109
131904,note_on,,,,,0,0,2,,,,,1,,,57,109
132000,note_on,,,,,100,0,3,,,,,2,,,69,115
132092,note_off,,,,,188,0,2,,,,,1,,,57,69
132092,note_off,,,,,92,0,3,,,,,2,,,69,73
132096,note_on,,,,,4,0,3,,,,,2,,,69,115
132096,note_on,,,,,196,0,1,,,,,0,,,65,112
132188,note_off,,,,,92,0,3,,,,,2,,,69,73
132192,note_on,,,,,4,0,3,,,,,2,,,69,115
132284,note_off,,,,,192,0,2,,,,,1,,,53,69
132284,note_off,,,,,92,0,3,,,,,2,,,69,73
132284,note_off,,,,,188,0,1,,,,,0,,,65,71
132288,note_on,,,,,4,0,3,,,,,2,,,81,115
132288,note_on,,,,,4,0,1,,,,,0,,,61,112
132380,note_off,,,,,92,0,3,,,,,2,,,81,73
132384,note_on,,,,,4,0,3,,,,,2,,,69,115
132476,note_off,,,,,92,0,3,,,,,2,,,69,73
132476,note_off,,,,,188,0,1,,,,,0,,,61,71
132480,note_on,,,,,196,0,2,,,,,1,,,53,109
132480,note_on,,,,,4,0,3,,,,,2,,,69,115
132480,note_on,,,,,0,0,2,,,,,1,,,57,109
132572,note_off,,,,,92,0,3,,,,,2,,,69,73
132576,note_on,,,,,4,0,3,,,,,2,,,69,115
132668,note_off,,,,,92,0,3,,,,,2,,,69,73
132668,note_off,,,,,188,0,2,,,,,1,,,57,69
132672,note_on,,,,,196,0,1,,,,,0,,,65,112
132672,note_on,,,,,4,0,3,,,,,2,,,81,115
132764,note_off,,,,,92,0,3,,,,,2,,,81,73
132768,note_on,,,,,4,0,3,,,,,2,,,68,115
132860,note_off,,,,,192,0,2,,,,,1,,,53,69
132860,note_off,,,,,188,0,1,,,,,0,,,65,71
132860,note_off,,,,,92,0,3,,,,,2,,,68,73
132864,note_on,,,,,4,0,3,,,,,2,,,68,115
132864,note_on,,,,,4,0,1,,,,,0,,,61,112
132956,note_off,,,,,92,0,3,,,,,2,,,68,73
132960,note_on,,,,,4,0,3,,,,,2,,,68,115
133052,note_off,,,,,92,0,3,,,,,2,,,68,73
133052,note_off,,,,,188,0,1,,,,,0,,,61,71
133056,note_on,,,,,196,0,2,,,,,1,,,53,109
133056,note_on,,,,,0,0,2,,,,,1,,,56,109
133056,note_on,,,,,4,0,3,,,,,2,,,80,115
133148,note_off,,,,,92,0,3,,,,,2,,,80,73
133152,note_on,,,,,4,0,3,,,,,2,,,68,115
133244,note_off,,,,,92,0,3,,,,,2,,,68,73
133244,note_off,,,,,188,0,2,,,,,1,,,56,69
133248,note_on,,,,,196,0,1,,,,,0,,,65,112
133248,note_on,,,,,4,0,3,,,,,2,,,77,115
133340,note_off,,,,,92,0,3,,,,,2,,,77,73
133344,note_on,,,,,4,0,3,,,,,2,,,77,115
133436,note_off,,,,,92,0,3,,,,,2,,,77,73
133436,note_off,,,,,192,0,2,,,,,1,,,53,69
133436,note_off,,,,,188,0,1,,,,,0,,,65,71
133440,note_on,,,,,4,0,1,,,,,0,,,61,112
133440,note_on,,,,,4,0,3,,,,,2,,,89,115
133532,note_off,,,,,92,0,3,,,,,2,,,89,73
133536,note_on,,,,,4,0,3,,,,,2,,,77,115
133628,note_off,,,,,188,0,1,,,,,0,,,61,71
133628,note_off,,,,,92,0,3,,,,,2,,,77,73
133632,note_on,,,,,196,0,2,,,,,1,,,47,109
133728,note_on,,,,,100,0,3,,,,,2,,,76,115
133820,note_off,,,,,92,0,3,,,,,2,,,76,73
133824,note_on,,,,,4,0,3,,,,,2,,,76,115
133824,note_on,,,,,196,0,1,,,,,0,,,64,112
133916,note_off,,,,,92,0,3,,,,,2,,,76,73
133920,note_on,,,,,4,0,3,,,,,2,,,76,115
134012,note_off,,,,,92,0,3,,,,,2,,,76,73
134012,note_off,,,,,380,0,2,,,,,1,,,47,69
134016,note_on,,,,,4,0,3,,,,,2,,,88,115
134016,note_on,,,,,192,0,1,,,,,0,,,62,112
134108,note_off,,,,,92,0,3,,,,,2,,,88,73
134112,note_on,,,,,4,0,3,,,,,2,,,76,115
134204,note_off,,,,,188,0,1,,,,,0,,,64,71
134204,note_off,,,,,0,0,1,,,,,0,,,62,71
134204,note_off,,,,,92,0,3,,,,,2,,,76,73
134208,note_on,,,,,0,0,2,,,,,1,,,53,109
134208,note_on,,,,,196,0,2,,,,,1,,,56,109
134304,note_on,,,,,100,0,3,,,,,2,,,77,115
134396,note_off,,,,,92,0,3,,,,,2,,,77,73
134396,note_off,,,,,0,0,2,,,,,1,,,53,69
134396,note_off,,,,,188,0,2,,,,,1,,,56,69
134400,note_on,,,,,196,0,1,,,,,0,,,65,112
134400,note_on,,,,,4,0,3,,,,,2,,,77,115
134492,note_off,,,,,92,0,3,,,,,2,,,77,73
134496,note_on,,,,,4,0,3,,,,,2,,,77,115
134588,note_off,,,,,92,0,3,,,,,2,,,77,73
134592,note_on,,,,,192,0,1,,,,,0,,,62,112
134592,note_on,,,,,4,0,3,,,,,2,,,89,115
134684,note_off,,,,,92,0,3,,,,,2,,,89,73
134688,note_on,,,,,4,0,3,,,,,2,,,77,115
134780,note_off,,,,,188,0,1,,,,,0,,,65,71
134780,note_off,,,,,92,0,3,,,,,2,,,77,73
134780,note_off,,,,,0,0,1,,,,,0,,,62,71
134784,note_on,,,,,388,0,2,,,,,1,,,46,109
134880,note_on,,,,,100,0,3,,,,,2,,,83,115
134972,note_off,,,,,92,0,3,,,,,2,,,83,73
134976,note_on,,,,,4,0,3,,,,,2,,,83,115
134976,note_on,,,,,196,0,1,,,,,0,,,71,112
135068,note_off,,,,,92,0,3,,,,,2,,,83,73
135072,note_on,,,,,4,0,3,,,,,2,,,83,115
135164,note_off,,,,,380,0,2,,,,,1,,,46,69
135164,note_off,,,,,92,0,3,,,,,2,,,83,73
135168,note_on,,,,,4,0,3,,,,,2,,,95,115
135168,note_on,,,,,192,0,1,,,,,0,,,62,112
135260,note_off,,,,,92,0,3,,,,,2,,,95,73
135264,note_on,,,,,4,0,3,,,,,2,,,83,115
135356,note_off,,,,,188,0,1,,,,,0,,,71,71
135356,note_off,,,,,0,0,1,,,,,0,,,62,71
135356,note_off,,,,,92,0,3,,,,,2,,,83,73
135360,note_on,,,,,196,0,2,,,,,1,,,56,109
135360,note_on,,,,,0,0,2,,,,,1,,,53,109
135456,note_on,,,,,100,0,3,,,,,2,,,77,115
135548,note_off,,,,,0,0,2,,,,,1,,,53,69
135548,note_off,,,,,92,0,3,,,,,2,,,77,73
135548,note_off,,,,,188,0,2,,,,,1,,,56,69
135552,note_on,,,,,4,0,3,,,,,2,,,77,115
135552,note_on,,,,,196,0,1,,,,,0,,,65,112
135644,note_off,,,,,92,0,3,,,,,2,,,77,73
135648,note_on,,,,,4,0,3,,,,,2,,,77,115
135740,note_off,,,,,92,0,3,,,,,2,,,77,73
135744,note_on,,,,,192,0,1,,,,,0,,,62,112
135744,note_on,,,,,4,0,3,,,,,2,,,89,115
135836,note_off,,,,,92,0,3,,,,,2,,,89,73
135840,note_on,,,,,4,0,3,,,,,2,,,77,115
135932,note_off,,,,,92,0,3,,,,,2,,,77,73
135932,note_off,,,,,188,0,1,,,,,0,,,65,71
135932,note_off,,,,,0,0,1,,,,,0,,,62,71
135936,note_on,,,,,388,0,2,,,,,1,,,39,109
136032,note_on,,,,,100,0,3,,,,,2,,,78,115
136124,note_off,,,,,92,0,3,,,,,2,,,78,73
136128,note_on,,,,,196,0,1,,,,,0,,,66,112
136128,note_on,,,,,4,0,3,,,,,2,,,78,115
136220,note_off,,,,,92,0,3,,,,,2,,,78,73
136224,note_on,,,,,4,0,3,,,,,2,,,78,115
136316,note_off,,,,,380,0,2,,,,,1,,,39,69
136316,note_off,,,,,92,0,3,,,,,2,,,78,73
136320,note_on,,,,,4,0,3,,,,,2,,,90,115
136320,note_on,,,,,192,0,1,,,,,0,,,63,112
136412,note_off,,,,,92,0,3,,,,,2,,,90,73
136416,note_on,,,,,4,0,3,,,,,2,,,78,115
136508,note_off,,,,,0,0,1,,,,,0,,,63,71
136508,note_off,,,,,92,0,3,,,,,2,,,78,73
136508,note_off,,,,,188,0,1,,,,,0,,,66,71
136512,note_on,,,,,0,0,2,,,,,1,,,57,109
136512,note_on,,,,,196,0,2,,,,,1,,,54,109
136608,note_on,,,,,100,0,3,,,,,2,,,71,115
136700,note_off,,,,,188,0,2,,,,,1,,,57,69
136700,note_off,,,,,92,0,3,,,,,2,,,71,73
136704,note_on,,,,,4,0,3,,,,,2,,,71,115
136704,note_on,,,,,196,0,1,,,,,0,,,66,112
136796,note_off,,,,,92,0,3,,,,,2,,,71,73
136800,note_on,,,,,4,0,3,,,,,2,,,71,115
136892,note_off,,,,,192,0,2,,,,,1,,,54,69
136892,note_off,,,,,92,0,3,,,,,2,,,71,73
136896,note_on,,,,,192,0,1,,,,,0,,,63,112
136896,note_on,,,,,4,0,3,,,,,2,,,83,115
136988,note_off,,,,,92,0,3,,,,,2,,,83,73
136992,note_on,,,,,4,0,3,,,,,2,,,71,115
137084,note_off,,,,,92,0,3,,,,,2,,,71,73
137084,note_off,,,,,188,0,1,,,,,0,,,66,71
137084,note_off,,,,,0,0,1,,,,,0,,,63,71
137088,note_on,,,,,4,0,3,,,,,2,,,71,115
137088,note_on,,,,,0,0,2,,,,,1,,,57,109
137088,note_on,,,,,196,0,2,,,,,1,,,54,109
137180,note_off,,,,,92,0,3,,,,,2,,,71,73
137184,note_on,,,,,4,0,3,,,,,2,,,71,115
137276,note_off,,,,,92,0,3,,,,,2,,,71,73
137276,note_off,,,,,188,0,2,,,,,1,,,57,69
137280,note_on,,,,,4,0,3,,,,,2,,,83,115
137280,note_on,,,,,196,0,1,,,,,0,,,66,112
137372,note_off,,,,,92,0,3,,,,,2,,,83,73
137376,note_on,,,,,4,0,3,,,,,2,,,71,115
137468,note_off,,,,,92,0,3,,,,,2,,,71,73
137468,note_off,,,,,192,0,2,,,,,1,,,54,69
137472,note_on,,,,,4,0,3,,,,,2,,,70,115
137472,note_on,,,,,192,0,1,,,,,0,,,63,112
137564,note_off,,,,,92,0,3,,,,,2,,,70,73
137568,note_on,,,,,4,0,3,,,,,2,,,70,115
137660,note_off,,,,,0,0,1,,,,,0,,,63,71
137660,note_off,,,,,92,0,3,,,,,2,,,70,73
137660,note_off,,,,,188,0,1,,,,,0,,,66,71
137664,note_on,,,,,0,0,2,,,,,1,,,58,109
137664,note_on,,,,,4,0,3,,,,,2,,,82,115
137664,note_on,,,,,196,0,2,,,,,1,,,54,109
137756,note_off,,,,,92,0,3,,,,,2,,,82,73
137760,note_on,,,,,4,0,3,,,,,2,,,70,115
137852,note_off,,,,,188,0,2,,,,,1,,,58,69
137852,note_off,,,,,92,0,3,,,,,2,,,70,73
137856,note_on,,,,,196,0,1,,,,,0,,,66,112
137856,note_on,,,,,4,0,3,,,,,2,,,78,115
137948,note_off,,,,,92,0,3,,,,,2,,,78,73
137952,note_on,,,,,4,0,3,,,,,2,,,78,115
138044,note_off,,,,,92,0,3,,,,,2,,,78,73
138044,note_off,,,,,192,0,2,,,,,1,,,54,69
138048,note_on,,,,,192,0,1,,,,,0,,,63,112
138048,note_on,,,,,4,0,3,,,,,2,,,90,115
138140,note_off,,,,,92,0,3,,,,,2,,,90,73
138236,note_off,,,,,188,0,1,,,,,0,,,66,71
138236,note_off,,,,,0,0,1,,,,,0,,,63,71
138240,note_on,,,,,196,0,2,,,,,1,,,47,109
138336,note_on,,,,,196,0,3,,,,,2,,,76,115
138428,note_off,,,,,92,0,3,,,,,2,,,76,73
138432,note_on,,,,,4,0,3,,,,,2,,,76,115
138432,note_on,,,,,196,0,1,,,,,0,,,64,112
138524,note_off,,,,,92,0,3,,,,,2,,,76,73
138528,note_on,,,,,4,0,3,,,,,2,,,76,115
138620,note_off,,,,,92,0,3,,,,,2,,,76,73
138620,note_off,,,,,380,0,2,,,,,1,,,47,69
138624,note_on,,,,,4,0,3,,,,,2,,,88,115
138624,note_on,,,,,192,0,1,,,,,0,,,62,112
138716,note_off,,,,,92,0,3,,,,,2,,,88,73
138720,note_on,,,,,4,0,3,,,,,2,,,76,115
138812,note_off,,,,,0,0,1,,,,,0,,,62,71
138812,note_off,,,,,188,0,1,,,,,0,,,64,71
138812,note_off,,,,,92,0,3,,,,,2,,,76,73
138816,note_on,,,,,0,0,2,,,,,1,,,56,109
138816,note_on,,,,,196,0,2,,,,,1,,,53,109
138912,note_on,,,,,100,0,3,,,,,2,,,77,115
139004,note_off,,,,,188,0,2,,,,,1,,,56,69
139004,note_off,,,,,92,0,3,,,,,2,,,77,73
139008,note_on,,,,,196,0,1,,,,,0,,,65,112
139008,note_on,,,,,4,0,3,,,,,2,,,77,115
139100,note_off,,,,,92,0,3,,,,,2,,,77,73
139104,note_on,,,,,4,0,3,,,,,2,,,77,115
139196,note_off,,,,,192,0,2,,,,,1,,,53,69
139196,note_off,,,,,188,0,1,,,,,0,,,65,71
139196,note_off,,,,,92,0,3,,,,,2,,,77,73
139200,note_on,,,,,4,0,1,,,,,0,,,62,112
139200,note_on,,,,,4,0,3,,,,,2,,,89,115
139292,note_off,,,,,92,0,3,,,,,2,,,89,73
139296,note_on,,,,,4,0,3,,,,,2,,,77,115
139388,note_off,,,,,92,0,3,,,,,2,,,77,73
139388,note_off,,,,,188,0,1,,,,,0,,,62,71
139392,note_on,,,,,196,0,2,,,,,1,,,46,109
139488,note_on,,,,,100,0,3,,,,,2,,,83,115
139580,note_off,,,,,92,0,3,,,,,2,,,83,73
139584,note_on,,,,,196,0,1,,,,,0,,,71,112
139584,note_on,,,,,4,0,3,,,,,2,,,83,115
139676,note_off,,,,,92,0,3,,,,,2,,,83,73
139680,note_on,,,,,4,0,3,,,,,2,,,83,115
139772,note_off,,,,,380,0,2,,,,,1,,,46,69
139772,note_off,,,,,92,0,3,,,,,2,,,83,73
139776,note_on,,,,,4,0,3,,,,,2,,,95,115
139776,note_on,,,,,192,0,1,,,,,0,,,62,112
139868,note_off,,,,,92,0,3,,,,,2,,,95,73
139872,note_on,,,,,4,0,3,,,,,2,,,83,115
139964,note_off,,,,,92,0,3,,,,,2,,,83,73
139964,note_off,,,,,0,0,1,,,,,0,,,62,71
139964,note_off,,,,,188,0,1,,,,,0,,,71,71
139968,note_on,,,,,0,0,2,,,,,1,,,56,109
139968,note_on,,,,,196,0,2,,,,,1,,,53,109
140064,note_on,,,,,100,0,3,,,,,2,,,77,115
140156,note_off,,,,,92,0,3,,,,,2,,,77,73
140156,note_off,,,,,188,0,2,,,,,1,,,56,69
140160,note_on,,,,,4,0,3,,,,,2,,,77,115
140160,note_on,,,,,196,0,1,,,,,0,,,65,112
140252,note_off,,,,,92,0,3,,,,,2,,,77,73
140256,note_on,,,,,4,0,3,,,,,2,,,77,115
140348,note_off,,,,,192,0,2,,,,,1,,,53,69
140348,note_off,,,,,92,0,3,,,,,2,,,77,73
140352,note_on,,,,,192,0,1,,,,,0,,,62,112
140352,note_on,,,,,4,0,3,,,,,2,,,89,115
140444,note_off,,,,,92,0,3,,,,,2,,,89,73
140448,note_on,,,,,4,0,3,,,,,2,,,77,115
140540,note_off,,,,,0,0,1,,,,,0,,,62,71
140540,note_off,,,,,92,0,3,,,,,2,,,77,73
140540,note_off,,,,,188,0,1,,,,,0,,,65,71
140544,note_on,,,,,196,0,2,,,,,1,,,39,109
140640,note_on,,,,,100,0,3,,,,,2,,,78,115
140732,note_off,,,,,92,0,3,,,,,2,,,78,73
140736,note_on,,,,,196,0,1,,,,,0,,,66,112
140736,note_on,,,,,4,0,3,,,,,2,,,78,115
140828,note_off,,,,,92,0,3,,,,,2,,,78,73
140832,note_on,,,,,4,0,3,,,,,2,,,78,115
140924,note_off,,,,,92,0,3,,,,,2,,,78,73
140924,note_off,,,,,380,0,2,,,,,1,,,39,69
140928,note_on,,,,,192,0,1,,,,,0,,,63,112
140928,note_on,,,,,4,0,3,,,,,2,,,90,115
141020,note_off,,,,,92,0,3,,,,,2,,,90,73
141024,note_on,,,,,4,0,3,,,,,2,,,78,115
141116,note_off,,,,,188,0,1,,,,,0,,,66,71
141116,note_off,,,,,92,0,3,,,,,2,,,78,73
141116,note_off,,,,,0,0,1,,,,,0,,,63,71
141120,note_on,,,,,196,0,2,,,,,1,,,54,109
141120,note_on,,,,,0,0,2,,,,,1,,,57,109
141216,note_on,,,,,100,0,3,,,,,2,,,71,115
141308,note_off,,,,,92,0,3,,,,,2,,,71,73
141308,note_off,,,,,188,0,2,,,,,1,,,57,69
141312,note_on,,,,,196,0,1,,,,,0,,,66,112
141312,note_on,,,,,4,0,3,,,,,2,,,71,115
141404,note_off,,,,,92,0,3,,,,,2,,,71,73
141408,note_on,,,,,4,0,3,,,,,2,,,71,115
141500,note_off,,,,,92,0,3,,,,,2,,,71,73
141500,note_off,,,,,192,0,2,,,,,1,,,54,69
141504,note_on,,,,,4,0,3,,,,,2,,,84,115
141504,note_on,,,,,192,0,1,,,,,0,,,63,112
141596,note_off,,,,,92,0,3,,,,,2,,,84,73
141600,note_on,,,,,4,0,3,,,,,2,,,71,115
141692,note_off,,,,,188,0,1,,,,,0,,,66,71
141692,note_off,,,,,92,0,3,,,,,2,,,71,73
141692,note_off,,,,,0,0,1,,,,,0,,,63,71
141696,note_on,,,,,196,0,2,,,,,1,,,54,109
141696,note_on,,,,,4,0,3,,,,,2,,,71,115
141696,note_on,,,,,0,0,2,,,,,1,,,57,109
141788,note_off,,,,,92,0,3,,,,,2,,,71,73
141792,note_on,,,,,4,0,3,,,,,2,,,71,115
141884,note_off,,,,,92,0,3,,,,,2,,,71,73
141884,note_off,,,,,188,0,2,,,,,1,,,57,69
141888,note_on,,,,,4,0,3,,,,,2,,,83,115
141888,note_on,,,,,196,0,1,,,,,0,,,66,112
141980,note_off,,,,,92,0,3,,,,,2,,,83,73
141984,note_on,,,,,4,0,3,,,,,2,,,71,115
142076,note_off,,,,,92,0,3,,,,,2,,,71,73
142076,note_off,,,,,192,0,2,,,,,1,,,54,69
142080,note_on,,,,,4,0,3,,,,,2,,,70,115
142080,note_on,,,,,192,0,1,,,,,0,,,63,112
142172,note_off,,,,,92,0,3,,,,,2,,,70,73
142176,note_on,,,,,4,0,3,,,,,2,,,70,115
142268,note_off,,,,,92,0,3,,,,,2,,,70,73
142268,note_off,,,,,188,0,1,,,,,0,,,66,71
142268,note_off,,,,,0,0,1,,,,,0,,,63,71
142272,note_on,,,,,196,0,2,,,,,1,,,54,109
142272,note_on,,,,,4,0,3,,,,,2,,,82,115
142272,note_on,,,,,0,0,2,,,,,1,,,56,109
142364,note_off,,,,,92,0,3,,,,,2,,,82,73
142368,note_on,,,,,4,0,3,,,,,2,,,70,115
142460,note_off,,,,,188,0,2,,,,,1,,,56,69
142460,note_off,,,,,92,0,3,,,,,2,,,70,73
142464,note_on,,,,,196,0,1,,,,,0,,,66,112
142464,note_on,,,,,4,0,3,,,,,2,,,78,115
142556,note_off,,,,,92,0,3,,,,,2,,,78,73
142560,note_on,,,,,4,0,3,,,,,2,,,78,115
142652,note_off,,,,,192,0,2,,,,,1,,,54,69
142652,note_off,,,,,92,0,3,,,,,2,,,78,73
142656,note_on,,,,,4,0,3,,,,,2,,,90,115
142656,note_on,,,,,192,0,1,,,,,0,,,63,112
142748,note_off,,,,,92,0,3,,,,,2,,,90,73
142752,note_on,,,,,4,0,3,,,,,2,,,78,115
142844,note_off,,,,,188,0,1,,,,,0,,,66,71
142844,note_off,,,,,0,0,1,,,,,0,,,63,71
142844,note_off,,,,,92,0,3,,,,,2,,,78,73
142848,note_on,,,,,196,0,2,,,,,1,,,48,109
142944,note_on,,,,,100,0,3,,,,,2,,,78,115
143036,note_off,,,,,92,0,3,,,,,2,,,78,73
143036,note_off,,,,,188,0,2,,,,,1,,,48,69
143040,note_on,,,,,196,0,1,,,,,0,,,66,112
143040,note_on,,,,,4,0,3,,,,,2,,,78,115
143132,note_off,,,,,92,0,3,,,,,2,,,78,73
143136,note_on,,,,,4,0,3,,,,,2,,,78,115
143228,note_off,,,,,92,0,3,,,,,2,,,78,73
143232,note_on,,,,,4,0,3,,,,,2,,,90,115
143232,note_on,,,,,192,0,1,,,,,0,,,63,112
143324,note_off,,,,,92,0,3,,,,,2,,,90,73
143328,note_on,,,,,4,0,3,,,,,2,,,78,115
143420,note_off,,,,,188,0,1,,,,,0,,,66,71
143420,note_off,,,,,92,0,3,,,,,2,,,78,73
143420,note_off,,,,,0,0,1,,,,,0,,,63,71
143424,note_on,,,,,388,0,2,,,,,1,,,58,109
143520,note_on,,,,,100,0,3,,,,,2,,,85,115
143612,note_off,,,,,92,0,3,,,,,2,,,85,73
143616,note_on,,,,,4,0,3,,,,,2,,,85,115
143616,note_on,,,,,196,0,1,,,,,0,,,73,112
143708,note_off,,,,,92,0,3,,,,,2,,,85,73
143712,note_on,,,,,4,0,3,,,,,2,,,85,115
143804,note_off,,,,,380,0,2,,,,,1,,,58,69
143804,note_off,,,,,92,0,3,,,,,2,,,85,73
143808,note_on,,,,,4,0,3,,,,,2,,,97,115
143808,note_on,,,,,0,0,1,,,,,0,,,66,112
143808,note_on,,,,,192,0,1,,,,,0,,,63,112
143900,note_off,,,,,92,0,3,,,,,2,,,97,73
143904,note_on,,,,,4,0,3,,,,,2,,,85,115
143996,note_off,,,,,0,0,1,,,,,0,,,63,71
143996,note_off,,,,,92,0,3,,,,,2,,,85,73
143996,note_off,,,,,0,0,1,,,,,0,,,66,71
143996,note_off,,,,,188,0,1,,,,,0,,,73,71
144000,note_on,,,,,196,0,2,,,,,1,,,41,109
144000,note_on,,,,,4,0,3,,,,,2,,,85,115
144092,note_off,,,,,92,0,3,,,,,2,,,85,73
144096,note_on,,,,,4,0,3,,,,,2,,,85,115
144188,note_off,,,,,92,0,3,,,,,2,,,85,73
144192,note_on,,,,,196,0,1,,,,,0,,,73,112
144192,note_on,,,,,4,0,3,,,,,2,,,97,115
144284,note_off,,,,,92,0,3,,,,,2,,,97,73
144288,note_on,,,,,4,0,3,,,,,2,,,85,115
144380,note_off,,,,,380,0,2,,,,,1,,,41,69
144380,note_off,,,,,92,0,3,,,,,2,,,85,73
144384,note_on,,,,,0,0,1,,,,,0,,,63,112
144384,note_on,,,,,4,0,3,,,,,2,,,85,115
144384,note_on,,,,,192,0,1,,,,,0,,,66,112
144476,note_off,,,,,92,0,3,,,,,2,,,85,73
144480,note_on,,,,,4,0,3,,,,,2,,,85,115
144572,note_off,,,,,188,0,1,,,,,0,,,73,71
144572,note_off,,,,,0,0,1,,,,,0,,,66,71
144572,note_off,,,,,0,0,1,,,,,0,,,63,71
144572,note_off,,,,,92,0,3,,,,,2,,,85,73
144576,note_on,,,,,4,0,3,,,,,2,,,97,115
144576,note_on,,,,,196,0,2,,,,,1,,,57,109
144668,note_off,,,,,92,0,3,,,,,2,,,97,73
144672,note_on,,,,,4,0,3,,,,,2,,,85,115
144764,note_off,,,,,92,0,3,,,,,2,,,85,73
144768,note_on,,,,,4,0,3,,,,,2,,,84,115
144768,note_on,,,,,196,0,1,,,,,0,,,72,112
144860,note_off,,,,,92,0,3,,,,,2,,,84,73
144864,note_on,,,,,4,0,3,,,,,2,,,84,115
144956,note_off,,,,,92,0,3,,,,,2,,,84,73
144956,note_off,,,,,380,0,2,,,,,1,,,57,69
144960,note_on,,,,,0,0,1,,,,,0,,,63,112
144960,note_on,,,,,4,0,3,,,,,2,,,96,115
144960,note_on,,,,,192,0,1,,,,,0,,,66,112
145052,note_off,,,,,92,0,3,,,,,2,,,96,73
145056,note_on,,,,,4,0,3,,,,,2,,,84,115
145148,note_off,,,,,188,0,1,,,,,0,,,72,71
145148,note_off,,,,,92,0,3,,,,,2,,,84,73
145148,note_off,,,,,0,0,1,,,,,0,,,66,71
145148,note_off,,,,,0,0,1,,,,,0,,,63,71
145152,note_on,,,,,196,0,2,,,,,1,,,46,109
145248,note_on,,,,,100,0,3,,,,,2,,,84,115
145340,note_off,,,,,92,0,3,,,,,2,,,84,73
145340,note_off,,,,,188,0,2,,,,,1,,,46,69
145344,note_on,,,,,4,0,3,,,,,2,,,87,115
145344,note_on,,,,,196,0,1,,,,,0,,,72,112
145436,note_off,,,,,92,0,3,,,,,2,,,87,73
145440,note_on,,,,,4,0,3,,,,,2,,,96,115
145532,note_off,,,,,92,0,3,,,,,2,,,96,73
145536,note_on,,,,,0,0,1,,,,,0,,,65,112
145536,note_on,,,,,4,0,3,,,,,2,,,95,115
145536,note_on,,,,,192,0,1,,,,,0,,,63,112
145628,note_off,,,,,92,0,3,,,,,2,,,95,73
145632,note_on,,,,,4,0,3,,,,,2,,,94,115
145724,note_off,,,,,0,0,1,,,,,0,,,63,71
145724,note_off,,,,,188,0,1,,,,,0,,,72,71
145724,note_off,,,,,92,0,3,,,,,2,,,94,73
145724,note_off,,,,,0,0,1,,,,,0,,,65,71
145728,note_on,,,,,388,0,2,,,,,1,,,56,109
145728,note_on,,,,,4,0,3,,,,,2,,,92,115
145820,note_off,,,,,92,0,3,,,,,2,,,92,73
145824,note_on,,,,,4,0,3,,,,,2,,,91,115
145916,note_off,,,,,92,0,3,,,,,2,,,91,73
145920,note_on,,,,,4,0,3,,,,,2,,,90,115
145920,note_on,,,,,196,0,1,,,,,0,,,71,112
146012,note_off,,,,,92,0,3,,,,,2,,,90,73
146016,note_on,,,,,4,0,3,,,,,2,,,89,115
146108,note_off,,,,,380,0,2,,,,,1,,,56,69
146108,note_off,,,,,92,0,3,,,,,2,,,89,73
146112,note_on,,,,,4,0,3,,,,,2,,,88,115
146204,note_off,,,,,92,0,3,,,,,2,,,88,73
146208,note_on,,,,,4,0,3,,,,,2,,,87,115
146300,note_off,,,,,92,0,3,,,,,2,,,87,73
146300,note_off,,,,,380,0,1,,,,,0,,,71,71
146304,note_on,,,,,0,0,1,,,,,0,,,65,112
146304,note_on,,,,,4,0,3,,,,,2,,,86,115
146304,note_on,,,,,4,0,1,,,,,0,,,63,112
146396,note_off,,,,,92,0,3,,,,,2,,,86,73
146400,note_on,,,,,4,0,3,,,,,2,,,85,115
146492,note_off,,,,,0,0,1,,,,,0,,,65,71
146492,note_off,,,,,188,0,1,,,,,0,,,63,71
146492,note_off,,,,,92,0,3,,,,,2,,,85,73
146496,note_on,,,,,4,0,3,,,,,2,,,84,115
146588,note_off,,,,,92,0,3,,,,,2,,,84,73
146592,note_on,,,,,4,0,3,,,,,2,,,83,115
146592,note_on,,,,,484,0,2,,,,,1,,,56,109
146684,note_off,,,,,92,0,3,,,,,2,,,83,73
146688,note_on,,,,,4,0,3,,,,,2,,,82,115
146780,note_off,,,,,188,0,2,,,,,1,,,56,69
146780,note_off,,,,,92,0,3,,,,,2,,,82,73
146784,note_on,,,,,4,0,3,,,,,2,,,81,115
146876,note_off,,,,,92,0,3,,,,,2,,,81,73
146880,note_on,,,,,388,0,1,,,,,0,,,68,112
146880,note_on,,,,,4,0,3,,,,,2,,,80,115
146972,note_off,,,,,92,0,3,,,,,2,,,80,73
146976,note_on,,,,,4,0,3,,,,,2,,,79,115
147068,note_off,,,,,92,0,3,,,,,2,,,79,73
147072,note_on,,,,,4,0,3,,,,,2,,,78,115
147164,note_off,,,,,92,0,3,,,,,2,,,78,73
147168,note_on,,,,,4,0,3,,,,,2,,,77,115
147168,note_on,,,,,0,0,1,,,,,0,,,62,112
147168,note_on,,,,,288,0,1,,,,,0,,,65,112
147260,note_off,,,,,92,0,1,,,,,0,,,68,71
147260,note_off,,,,,92,0,3,,,,,2,,,77,73
147264,note_on,,,,,4,0,3,,,,,2,,,78,115
147356,note_off,,,,,96,0,1,,,,,0,,,65,71
147356,note_off,,,,,92,0,3,,,,,2,,,78,73
147356,note_off,,,,,0,0,1,,,,,0,,,62,71
147360,note_on,,,,,4,0,3,,,,,2,,,77,115
147452,note_off,,,,,92,0,3,,,,,2,,,77,73
147456,note_on,,,,,100,0,1,,,,,0,,,70,112
147456,note_on,,,,,0,0,1,,,,,0,,,61,112
147456,note_on,,,,,0,0,1,,,,,0,,,65,112
147456,note_on,,,,,0,0,1,,,,,0,,,70,112
147456,note_on,,,,,4,0,3,,,,,2,,,76,115
147548,note_off,,,,,92,0,3,,,,,2,,,76,73
147552,note_on,,,,,4,0,3,,,,,2,,,77,115
147644,note_off,,,,,0,0,1,,,,,0,,,61,71
147644,note_off,,,,,188,0,1,,,,,0,,,70,71
147644,note_off,,,,,0,0,1,,,,,0,,,70,71
147644,note_off,,,,,0,0,1,,,,,0,,,65,71
147644,note_off,,,,,92,0,3,,,,,2,,,77,73
147648,note_on,,,,,4,0,3,,,,,2,,,78,115
147740,note_off,,,,,92,0,3,,,,,2,,,78,73
147744,note_on,,,,,4,0,3,,,,,2,,,77,115
147836,note_off,,,,,92,0,3,,,,,2,,,77,73
147840,note_on,,,,,4,0,3,,,,,2,,,83,115
147932,note_off,,,,,92,0,3,,,,,2,,,83,73
147936,note_on,,,,,4,0,3,,,,,2,,,82,115
148028,note_off,,,,,92,0,3,,,,,2,,,82,73
148032,note_on,,,,,1252,0,2,,,,,1,,,46,109
148128,note_on,,,,,100,0,3,,,,,2,,,76,115
148220,note_off,,,,,92,0,3,,,,,2,,,76,73
148224,note_on,,,,,4,0,3,,,,,2,,,76,115
148316,note_off,,,,,92,0,3,,,,,2,,,76,73
148320,note_on,,,,,676,0,1,,,,,0,,,64,112
148320,note_on,,,,,4,0,3,,,,,2,,,76,115
148412,note_off,,,,,380,0,2,,,,,1,,,46,69
148412,note_off,,,,,92,0,3,,,,,2,,,76,73
148416,note_on,,,,,4,0,3,,,,,2,,,88,115
148416,note_on,,,,,96,0,1,,,,,0,,,61,112
148508,note_off,,,,,92,0,3,,,,,2,,,88,73
148512,note_on,,,,,4,0,3,,,,,2,,,76,115
148604,note_off,,,,,92,0,3,,,,,2,,,76,73
148604,note_off,,,,,188,0,1,,,,,0,,,61,71
148608,note_on,,,,,196,0,2,,,,,1,,,56,109
148700,note_off,,,,,96,0,1,,,,,0,,,64,71
148704,note_on,,,,,100,0,3,,,,,2,,,83,115
148796,note_off,,,,,92,0,3,,,,,2,,,83,73
148800,note_on,,,,,100,0,1,,,,,0,,,71,112
148800,note_on,,,,,4,0,3,,,,,2,,,83,115
148892,note_off,,,,,92,0,3,,,,,2,,,83,73
148896,note_on,,,,,4,0,3,,,,,2,,,83,115
148988,note_off,,,,,92,0,3,,,,,2,,,83,73
148988,note_off,,,,,380,0,2,,,,,1,,,56,69
148992,note_on,,,,,0,0,1,,,,,0,,,61,112
148992,note_on,,,,,192,0,1,,,,,0,,,64,112
148992,note_on,,,,,4,0,3,,,,,2,,,95,115
149084,note_off,,,,,92,0,3,,,,,2,,,95,73
149088,note_on,,,,,4,0,3,,,,,2,,,83,115
149180,note_off,,,,,188,0,1,,,,,0,,,71,71
149180,note_off,,,,,92,0,3,,,,,2,,,83,73
149180,note_off,,,,,0,0,1,,,,,0,,,64,71
149180,note_off,,,,,0,0,1,,,,,0,,,61,71
149184,note_on,,,,,4,0,3,,,,,2,,,83,115
149184,note_on,,,,,196,0,2,,,,,1,,,39,109
149276,note_off,,,,,92,0,3,,,,,2,,,83,73
149280,note_on,,,,,4,0,3,,,,,2,,,83,115
149372,note_off,,,,,92,0,3,,,,,2,,,83,73
149376,note_on,,,,,4,0,3,,,,,2,,,95,115
149376,note_on,,,,,196,0,1,,,,,0,,,71,112
149468,note_off,,,,,92,0,3,,,,,2,,,95,73
149472,note_on,,,,,4,0,3,,,,,2,,,83,115
149564,note_off,,,,,380,0,2,,,,,1,,,39,69
149564,note_off,,,,,92,0,3,,,,,2,,,83,73
149568,note_on,,,,,192,0,1,,,,,0,,,64,112
149568,note_on,,,,,0,0,1,,,,,0,,,61,112
149568,note_on,,,,,4,0,3,,,,,2,,,83,115
149660,note_off,,,,,92,0,3,,,,,2,,,83,73
149664,note_on,,,,,4,0,3,,,,,2,,,83,115
149756,note_off,,,,,92,0,3,,,,,2,,,83,73
149756,note_off,,,,,0,0,1,,,,,0,,,64,71
149756,note_off,,,,,0,0,1,,,,,0,,,61,71
149756,note_off,,,,,188,0,1,,,,,0,,,71,71
149760,note_on,,,,,4,0,3,,,,,2,,,95,115
149760,note_on,,,,,196,0,2,,,,,1,,,55,109
149852,note_off,,,,,92,0,3,,,,,2,,,95,73
149856,note_on,,,,,4,0,3,,,,,2,,,83,115
149948,note_off,,,,,92,0,3,,,,,2,,,83,73
149952,note_on,,,,,4,0,3,,,,,2,,,82,115
149952,note_on,,,,,196,0,1,,,,,0,,,70,112
150044,note_off,,,,,92,0,3,,,,,2,,,82,73
150048,note_on,,,,,4,0,3,,,,,2,,,82,115
150140,note_off,,,,,380,0,2,,,,,1,,,55,69
150140,note_off,,,,,92,0,3,,,,,2,,,82,73
150144,note_on,,,,,192,0,1,,,,,0,,,64,112
150144,note_on,,,,,4,0,3,,,,,2,,,94,115
150236,note_off,,,,,92,0,3,,,,,2,,,94,73
150240,note_on,,,,,4,0,3,,,,,2,,,82,115
150332,note_off,,,,,188,0,1,,,,,0,,,70,71
150332,note_off,,,,,92,0,3,,,,,2,,,82,73
150332,note_off,,,,,0,0,1,,,,,0,,,64,71
150336,note_on,,,,,196,0,2,,,,,1,,,44,109
150432,note_on,,,,,100,0,1,,,,,0,,,70,112
150432,note_on,,,,,100,0,3,,,,,2,,,82,115
150524,note_off,,,,,92,0,3,,,,,2,,,82,73
150528,note_on,,,,,4,0,3,,,,,2,,,87,115
150620,note_off,,,,,92,0,3,,,,,2,,,87,73
150624,note_on,,,,,4,0,3,,,,,2,,,94,115
150716,note_off,,,,,380,0,2,,,,,1,,,44,69
150716,note_off,,,,,92,0,3,,,,,2,,,94,73
150720,note_on,,,,,288,0,1,,,,,0,,,63,112
150720,note_on,,,,,0,0,1,,,,,0,,,61,112
150720,note_on,,,,,4,0,3,,,,,2,,,93,115
150812,note_off,,,,,92,0,3,,,,,2,,,93,73
150812,note_off,,,,,92,0,1,,,,,0,,,70,71
150816,note_on,,,,,4,0,3,,,,,2,,,92,115
150908,note_off,,,,,96,0,1,,,,,0,,,63,71
150908,note_off,,,,,92,0,3,,,,,2,,,92,73
150908,note_off,,,,,0,0,1,,,,,0,,,61,71
150912,note_on,,,,,196,0,2,,,,,1,,,54,109
150912,note_on,,,,,4,0,3,,,,,2,,,90,115
151004,note_off,,,,,92,0,3,,,,,2,,,90,73
151008,note_on,,,,,4,0,3,,,,,2,,,90,115
151100,note_off,,,,,92,0,3,,,,,2,,,90,73
151104,note_on,,,,,4,0,3,,,,,2,,,89,115
151196,note_off,,,,,92,0,3,,,,,2,,,89,73
151200,note_on,,,,,4,0,3,,,,,2,,,88,115
151292,note_off,,,,,380,0,2,,,,,1,,,54,69
151292,note_off,,,,,92,0,3,,,,,2,,,88,73
151296,note_on,,,,,4,0,3,,,,,2,,,87,115
151296,note_on,,,,,388,0,1,,,,,0,,,69,112
151388,note_off,,,,,92,0,3,,,,,2,,,87,73
151392,note_on,,,,,4,0,3,,,,,2,,,86,115
151484,note_off,,,,,92,0,3,,,,,2,,,86,73
151488,note_on,,,,,4,0,3,,,,,2,,,85,115
151580,note_off,,,,,92,0,3,,,,,2,,,85,73
151584,note_on,,,,,0,0,1,,,,,0,,,61,112
151584,note_on,,,,,288,0,1,,,,,0,,,63,112
151584,note_on,,,,,4,0,3,,,,,2,,,84,115
151676,note_off,,,,,92,0,3,,,,,2,,,84,73
151676,note_off,,,,,92,0,1,,,,,0,,,69,71
151680,note_on,,,,,4,0,3,,,,,2,,,83,115
151772,note_off,,,,,92,0,3,,,,,2,,,83,73
151776,note_on,,,,,4,0,3,,,,,2,,,82,115
152032,note_off,,,,,256,0,3,,,,,2,,,82,73
152064,note_on,,,,,772,0,2,,,,,1,,,54,109
152064,note_on,,,,,32,0,3,,,,,2,,,81,115
152096,note_off,,,,,0,0,1,,,,,0,,,61,71
152096,note_off,,,,,420,0,1,,,,,0,,,63,71
152156,note_off,,,,,92,0,3,,,,,2,,,81,73
152160,note_on,,,,,96,0,2,,,,,1,,,63,109
152160,note_on,,,,,4,0,3,,,,,2,,,80,115
152252,note_off,,,,,92,0,3,,,,,2,,,80,73
152256,note_on,,,,,4,0,3,,,,,2,,,79,115
152348,note_off,,,,,92,0,3,,,,,2,,,79,73
152352,note_on,,,,,256,0,1,,,,,0,,,69,112
152352,note_on,,,,,4,0,3,,,,,2,,,78,115
152444,note_off,,,,,284,0,2,,,,,1,,,54,69
152444,note_off,,,,,92,0,3,,,,,2,,,78,73
152448,note_on,,,,,4,0,3,,,,,2,,,77,115
152540,note_off,,,,,92,0,3,,,,,2,,,77,73
152544,note_on,,,,,4,0,3,,,,,2,,,76,115
152636,note_off,,,,,92,0,3,,,,,2,,,76,73
152640,note_on,,,,,0,0,1,,,,,0,,,60,112
152640,note_on,,,,,288,0,1,,,,,0,,,63,112
152640,note_on,,,,,4,0,3,,,,,2,,,75,115
152672,note_off,,,,,228,0,2,,,,,1,,,63,69
152732,note_off,,,,,92,0,3,,,,,2,,,75,73
152732,note_off,,,,,92,0,1,,,,,0,,,69,71
152736,note_on,,,,,4,0,3,,,,,2,,,76,115
152828,note_off,,,,,0,0,1,,,,,0,,,60,71
152828,note_off,,,,,96,0,1,,,,,0,,,63,71
152828,note_off,,,,,92,0,3,,,,,2,,,76,73
152832,note_on,,,,,4,0,3,,,,,2,,,75,115
152924,note_off,,,,,92,0,3,,,,,2,,,75,73
152928,note_on,,,,,0,0,1,,,,,0,,,60,112
152928,note_on,,,,,100,0,1,,,,,0,,,68,112
152928,note_on,,,,,0,0,1,,,,,0,,,63,112
152928,note_on,,,,,4,0,3,,,,,2,,,74,115
153020,note_off,,,,,92,0,3,,,,,2,,,74,73
153024,note_on,,,,,4,0,3,,,,,2,,,75,115
153116,note_off,,,,,92,0,3,,,,,2,,,75,73
153120,note_on,,,,,4,0,3,,,,,2,,,76,115
153212,note_off,,,,,92,0,3,,,,,2,,,76,73
153216,note_on,,,,,4,0,3,,,,,2,,,75,115
153308,note_off,,,,,92,0,3,,,,,2,,,75,73
153312,note_on,,,,,4,0,3,,,,,2,,,81,115
153404,note_off,,,,,92,0,3,,,,,2,,,81,73
153408,note_on,,,,,4,0,3,,,,,2,,,80,115
153664,note_off,,,,,256,0,3,,,,,2,,,80,73
153696,note_off,,,,,0,0,1,,,,,0,,,60,71
153696,note_off,,,,,0,0,1,,,,,0,,,63,71
153696,note_off,,,,,768,0,1,,,,,0,,,68,71
153792,note_on,,,,,1120,0,2,,,,,1,,,44,109
153888,note_on,,,,,224,0,3,,,,,2,,,74,115
153952,note_off,,,,,64,0,3,,,,,2,,,74,73
153984,note_on,,,,,32,0,3,,,,,2,,,74,115
153984,note_on,,,,,288,0,1,,,,,0,,,62,112
154048,note_off,,,,,256,0,2,,,,,1,,,44,69
154048,note_off,,,,,64,0,3,,,,,2,,,74,73
154080,note_on,,,,,32,0,3,,,,,2,,,74,115
154144,note_off,,,,,64,0,3,,,,,2,,,74,73
154176,note_on,,,,,32,0,3,,,,,2,,,86,115
154240,note_off,,,,,64,0,3,,,,,2,,,86,73
154272,note_on,,,,,224,0,2,,,,,1,,,59,109
154272,note_on,,,,,32,0,3,,,,,2,,,74,115
154336,note_off,,,,,64,0,3,,,,,2,,,74,73
154368,note_on,,,,,96,0,2,,,,,1,,,53,109
154400,note_off,,,,,32,0,2,,,,,1,,,59,69
154464,note_on,,,,,128,0,3,,,,,2,,,81,115
154528,note_off,,,,,64,0,3,,,,,2,,,81,73
154560,note_on,,,,,32,0,3,,,,,2,,,81,115
154560,note_on,,,,,576,0,1,,,,,0,,,69,112
154624,note_off,,,,,64,0,3,,,,,2,,,81,73
154624,note_off,,,,,224,0,2,,,,,1,,,53,69
154656,note_on,,,,,32,0,3,,,,,2,,,81,115
154720,note_off,,,,,64,0,3,,,,,2,,,81,73
154752,note_on,,,,,0,0,1,,,,,0,,,59,112
154752,note_on,,,,,32,0,3,,,,,2,,,93,115
154752,note_off,,,,,192,0,1,,,,,0,,,62,71
154752,note_on,,,,,0,0,1,,,,,0,,,62,112
154816,note_off,,,,,64,0,1,,,,,0,,,69,71
154816,note_off,,,,,64,0,3,,,,,2,,,93,73
154848,note_on,,,,,32,0,3,,,,,2,,,81,115
154880,note_off,,,,,64,0,1,,,,,0,,,62,71
154880,note_off,,,,,0,0,1,,,,,0,,,59,71
154912,note_off,,,,,64,0,3,,,,,2,,,81,73
154944,note_on,,,,,320,0,2,,,,,1,,,37,109
154944,note_on,,,,,32,0,3,,,,,2,,,81,115
155008,note_off,,,,,64,0,3,,,,,2,,,81,73
155040,note_on,,,,,32,0,3,,,,,2,,,81,115
155072,note_off,,,,,128,0,2,,,,,1,,,37,69
155104,note_off,,,,,64,0,3,,,,,2,,,81,73
155136,note_on,,,,,256,0,1,,,,,0,,,69,112
155136,note_on,,,,,32,0,3,,,,,2,,,93,115
155200,note_off,,,,,64,0,3,,,,,2,,,93,73
155232,note_on,,,,,32,0,3,,,,,2,,,81,115
155296,note_off,,,,,64,0,3,,,,,2,,,81,73
155328,note_on,,,,,32,0,3,,,,,2,,,81,115
155328,note_on,,,,,192,0,1,,,,,0,,,62,112
155328,note_on,,,,,0,0,1,,,,,0,,,59,112
155392,note_off,,,,,64,0,1,,,,,0,,,69,71
155392,note_off,,,,,64,0,3,,,,,2,,,81,73
155424,note_on,,,,,32,0,3,,,,,2,,,81,115
155456,note_off,,,,,64,0,1,,,,,0,,,62,71
155456,note_off,,,,,0,0,1,,,,,0,,,59,71
155488,note_off,,,,,64,0,3,,,,,2,,,81,73
155520,note_on,,,,,32,0,3,,,,,2,,,93,115
155520,note_on,,,,,448,0,2,,,,,1,,,53,109
155584,note_off,,,,,64,0,3,,,,,2,,,93,73
155616,note_on,,,,,32,0,3,,,,,2,,,81,115
155648,note_off,,,,,128,0,2,,,,,1,,,53,69
155680,note_off,,,,,64,0,3,,,,,2,,,81,73
155712,note_on,,,,,32,0,3,,,,,2,,,80,115
155712,note_on,,,,,256,0,1,,,,,0,,,68,112
155776,note_off,,,,,64,0,3,,,,,2,,,80,73
155808,note_on,,,,,32,0,3,,,,,2,,,81,115
155872,note_off,,,,,64,0,3,,,,,2,,,81,73
155904,note_on,,,,,192,0,1,,,,,0,,,62,112
155904,note_on,,,,,32,0,3,,,,,2,,,92,115
155904,note_on,,,,,0,0,1,,,,,0,,,59,112
155968,note_off,,,,,64,0,1,,,,,0,,,68,71
155968,note_off,,,,,64,0,3,,,,,2,,,92,73
156000,note_on,,,,,32,0,3,,,,,2,,,80,115
156032,note_off,,,,,0,0,1,,,,,0,,,59,71
156032,note_off,,,,,64,0,1,,,,,0,,,62,71
156064,end_of_track,,,,,0,1,3,,,,,,,,,
156064,note_off,,,,,64,0,3,,,,,2,,,80,73
156096,note_on,,,,,448,0,2,,,,,1,,,42,109
156192,note_on,,,,,160,0,1,,,,,0,,,80,112
156224,note_off,,,,,128,0,2,,,,,1,,,42,69
156256,note_off,,,,,64,0,1,,,,,0,,,80,71
156288,note_on,,,,,64,0,2,,,,,1,,,68,109
156288,note_on,,,,,32,0,1,,,,,0,,,80,112
156352,note_off,,,,,64,0,1,,,,,0,,,80,71
156384,note_on,,,,,32,0,1,,,,,0,,,92,112
156416,note_off,,,,,128,0,2,,,,,1,,,68,69
156448,note_off,,,,,64,0,1,,,,,0,,,92,71
156480,note_on,,,,,64,0,2,,,,,1,,,62,109
156480,note_on,,,,,32,0,1,,,,,0,,,90,112
156544,note_off,,,,,64,0,1,,,,,0,,,90,71
156576,note_on,,,,,32,0,1,,,,,0,,,78,112
156608,note_off,,,,,128,0,2,,,,,1,,,62,69
156640,note_off,,,,,64,0,1,,,,,0,,,78,71
156672,note_on,,,,,64,0,2,,,,,1,,,57,109
156768,note_on,,,,,128,0,1,,,,,0,,,78,112
156800,note_off,,,,,128,0,2,,,,,1,,,57,69
156832,note_off,,,,,64,0,1,,,,,0,,,78,71
156864,note_on,,,,,32,0,1,,,,,0,,,78,112
156864,note_on,,,,,64,0,2,,,,,1,,,66,109
156928,note_off,,,,,64,0,1,,,,,0,,,78,71
156960,note_on,,,,,32,0,1,,,,,0,,,90,112
156992,note_off,,,,,128,0,2,,,,,1,,,66,69
157024,note_off,,,,,64,0,1,,,,,0,,,90,71
157056,note_on,,,,,64,0,2,,,,,1,,,62,109
157056,note_on,,,,,32,0,1,,,,,0,,,88,112
157120,note_off,,,,,64,0,1,,,,,0,,,88,71
157152,note_on,,,,,32,0,1,,,,,0,,,76,112
157184,note_off,,,,,128,0,2,,,,,1,,,62,69
157216,note_off,,,,,64,0,1,,,,,0,,,76,71
157248,note_on,,,,,64,0,2,,,,,1,,,54,109
157344,note_on,,,,,128,0,1,,,,,0,,,76,112
157376,note_off,,,,,128,0,2,,,,,1,,,54,69
157408,note_off,,,,,64,0,1,,,,,0,,,76,71
157440,note_on,,,,,64,0,2,,,,,1,,,64,109
157440,note_on,,,,,32,0,1,,,,,0,,,76,112
157504,note_off,,,,,64,0,1,,,,,0,,,76,71
157536,note_on,,,,,32,0,1,,,,,0,,,88,112
157568,note_off,,,,,128,0,2,,,,,1,,,64,69
157600,note_off,,,,,64,0,1,,,,,0,,,88,71
157632,note_on,,,,,32,0,1,,,,,0,,,86,112
157632,note_on,,,,,64,0,2,,,,,1,,,57,109
157696,note_off,,,,,64,0,1,,,,,0,,,86,71
157728,note_on,,,,,32,0,1,,,,,0,,,74,112
157760,note_off,,,,,128,0,2,,,,,1,,,57,69
157792,note_off,,,,,64,0,1,,,,,0,,,74,71
157824,note_on,,,,,64,0,2,,,,,1,,,54,109
157920,note_on,,,,,128,0,1,,,,,0,,,74,112
157952,note_off,,,,,128,0,2,,,,,1,,,54,69
157984,note_off,,,,,64,0,1,,,,,0,,,74,71
158016,note_on,,,,,64,0,2,,,,,1,,,62,109
158016,note_on,,,,,32,0,1,,,,,0,,,74,112
158080,note_off,,,,,64,0,1,,,,,0,,,74,71
158112,note_on,,,,,32,0,1,,,,,0,,,86,112
158144,note_off,,,,,128,0,2,,,,,1,,,62,69
158176,note_off,,,,,64,0,1,,,,,0,,,86,71
158208,note_on,,,,,64,0,2,,,,,1,,,57,109
158208,note_on,,,,,32,0,1,,,,,0,,,85,112
158272,note_off,,,,,64,0,1,,,,,0,,,85,71
158304,note_on,,,,,32,0,1,,,,,0,,,73,112
158336,note_off,,,,,128,0,2,,,,,1,,,57,69
158368,note_off,,,,,64,0,1,,,,,0,,,73,71
158400,note_on,,,,,64,0,2,,,,,1,,,41,109
158528,note_off,,,,,128,0,2,,,,,1,,,41,69
158592,note_on,,,,,64,0,2,,,,,1,,,51,109
158592,note_on,,,,,224,0,1,,,,,0,,,73,112
158656,note_off,,,,,64,0,1,,,,,0,,,73,71
158688,note_on,,,,,32,0,1,,,,,0,,,73,112
158720,note_off,,,,,128,0,2,,,,,1,,,51,69
158752,note_off,,,,,64,0,1,,,,,0,,,73,71
158784,note_on,,,,,64,0,2,,,,,1,,,57,109
158784,note_on,,,,,32,0,1,,,,,0,,,85,112
158848,note_off,,,,,64,0,1,,,,,0,,,85,71
158880,note_on,,,,,32,0,1,,,,,0,,,73,112
158912,note_off,,,,,128,0,2,,,,,1,,,57,69
158944,note_off,,,,,64,0,1,,,,,0,,,73,71
158976,note_on,,,,,32,0,1,,,,,0,,,63,112
158976,note_on,,,,,0,0,1,,,,,0,,,71,112
159040,note_off,,,,,64,0,1,,,,,0,,,71,71
159072,note_on,,,,,32,0,1,,,,,0,,,71,112
159104,note_off,,,,,32,0,1,,,,,0,,,63,71
159136,note_off,,,,,32,0,1,,,,,0,,,71,71
159168,note_on,,,,,32,0,1,,,,,0,,,66,112
159168,note_on,,,,,0,0,1,,,,,0,,,83,112
159232,note_off,,,,,64,0,1,,,,,0,,,83,71
159264,note_on,,,,,32,0,1,,,,,0,,,71,112
159296,note_off,,,,,32,0,1,,,,,0,,,66,71
159328,note_off,,,,,32,0,1,,,,,0,,,71,71
159360,note_on,,,,,0,0,1,,,,,0,,,72,112
159360,note_on,,,,,32,0,1,,,,,0,,,63,112
159424,note_off,,,,,64,0,1,,,,,0,,,72,71
159456,note_on,,,,,32,0,1,,,,,0,,,72,112
159488,note_off,,,,,32,0,1,,,,,0,,,63,71
159520,note_off,,,,,32,0,1,,,,,0,,,72,71
159552,note_on,,,,,32,0,1,,,,,0,,,84,112
159616,note_off,,,,,64,0,1,,,,,0,,,84,71
159648,note_on,,,,,32,0,1,,,,,0,,,72,112
159712,note_off,,,,,64,0,1,,,,,0,,,72,71
159744,note_on,,,,,32,0,1,,,,,0,,,75,112
159808,note_off,,,,,64,0,1,,,,,0,,,75,71
159840,note_on,,,,,32,0,1,,,,,0,,,75,112
159904,note_off,,,,,64,0,1,,,,,0,,,75,71
159936,note_on,,,,,32,0,1,,,,,0,,,87,112
160000,note_off,,,,,64,0,1,,,,,0,,,87,71
160032,note_on,,,,,32,0,1,,,,,0,,,75,112
160096,note_off,,,,,64,0,1,,,,,0,,,75,71
160128,note_on,,,,,32,0,1,,,,,0,,,76,112
160192,note_off,,,,,64,0,1,,,,,0,,,76,71
160224,note_on,,,,,32,0,1,,,,,0,,,76,112
160288,note_off,,,,,64,0,1,,,,,0,,,76,71
160320,note_on,,,,,32,0,1,,,,,0,,,88,112
160384,note_off,,,,,64,0,1,,,,,0,,,88,71
160416,note_on,,,,,32,0,1,,,,,0,,,76,112
160480,note_off,,,,,64,0,1,,,,,0,,,76,71
160512,note_on,,,,,32,0,1,,,,,0,,,89,112
160576,note_off,,,,,64,0,1,,,,,0,,,89,71
160608,note_on,,,,,32,0,1,,,,,0,,,77,112
160672,note_off,,,,,64,0,1,,,,,0,,,77,71
160704,note_on,,,,,1792,0,2,,,,,1,,,42,109
160800,note_on,,,,,128,0,1,,,,,0,,,80,112
160832,note_off,,,,,128,0,2,,,,,1,,,42,69
160864,note_off,,,,,64,0,1,,,,,0,,,80,71
160896,note_on,,,,,32,0,1,,,,,0,,,80,112
160896,note_on,,,,,64,0,2,,,,,1,,,68,109
160960,note_off,,,,,64,0,1,,,,,0,,,80,71
160992,note_on,,,,,32,0,1,,,,,0,,,92,112
161024,note_off,,,,,128,0,2,,,,,1,,,68,69
161056,note_off,,,,,64,0,1,,,,,0,,,92,71
161088,note_on,,,,,64,0,2,,,,,1,,,62,109
161088,note_on,,,,,32,0,1,,,,,0,,,90,112
161152,note_off,,,,,64,0,1,,,,,0,,,90,71
161184,note_on,,,,,32,0,1,,,,,0,,,78,112
161216,note_off,,,,,128,0,2,,,,,1,,,62,69
161248,note_off,,,,,64,0,1,,,,,0,,,78,71
161280,note_on,,,,,64,0,2,,,,,1,,,57,109
161376,note_on,,,,,128,0,1,,,,,0,,,78,112
161408,note_off,,,,,128,0,2,,,,,1,,,57,69
161440,note_off,,,,,64,0,1,,,,,0,,,78,71
161472,note_on,,,,,32,0,1,,,,,0,,,78,112
161472,note_on,,,,,64,0,2,,,,,1,,,66,109
161536,note_off,,,,,64,0,1,,,,,0,,,78,71
161568,note_on,,,,,32,0,1,,,,,0,,,90,112
161600,note_off,,,,,128,0,2,,,,,1,,,66,69
161632,note_off,,,,,64,0,1,,,,,0,,,90,71
161664,note_on,,,,,32,0,1,,,,,0,,,88,112
161664,note_on,,,,,64,0,2,,,,,1,,,62,109
161728,note_off,,,,,64,0,1,,,,,0,,,88,71
161760,note_on,,,,,32,0,1,,,,,0,,,76,112
161792,note_off,,,,,128,0,2,,,,,1,,,62,69
161824,note_off,,,,,64,0,1,,,,,0,,,76,71
161856,note_on,,,,,64,0,2,,,,,1,,,54,109
161952,note_on,,,,,128,0,1,,,,,0,,,76,112
161984,note_off,,,,,128,0,2,,,,,1,,,54,69
162016,note_off,,,,,64,0,1,,,,,0,,,76,71
162048,note_on,,,,,64,0,2,,,,,1,,,64,109
162048,note_on,,,,,32,0,1,,,,,0,,,76,112
162112,note_off,,,,,64,0,1,,,,,0,,,76,71
162144,note_on,,,,,32,0,1,,,,,0,,,88,112
162176,note_off,,,,,128,0,2,,,,,1,,,64,69
162208,note_off,,,,,64,0,1,,,,,0,,,88,71
162240,note_on,,,,,64,0,2,,,,,1,,,57,109
162240,note_on,,,,,32,0,1,,,,,0,,,86,112
162304,note_off,,,,,64,0,1,,,,,0,,,86,71
162336,note_on,,,,,32,0,1,,,,,0,,,74,112
162368,note_off,,,,,128,0,2,,,,,1,,,57,69
162400,note_off,,,,,64,0,1,,,,,0,,,74,71
162432,note_on,,,,,64,0,2,,,,,1,,,54,109
162528,note_on,,,,,128,0,1,,,,,0,,,74,112
162560,note_off,,,,,128,0,2,,,,,1,,,54,69
162592,note_off,,,,,64,0,1,,,,,0,,,74,71
162624,note_on,,,,,32,0,1,,,,,0,,,74,112
162624,note_on,,,,,64,0,2,,,,,1,,,62,109
162688,note_off,,,,,64,0,1,,,,,0,,,74,71
162720,note_on,,,,,32,0,1,,,,,0,,,86,112
162752,note_off,,,,,128,0,2,,,,,1,,,62,69
162784,note_off,,,,,64,0,1,,,,,0,,,86,71
162816,note_on,,,,,32,0,1,,,,,0,,,85,112
162816,note_on,,,,,64,0,2,,,,,1,,,57,109
162880,note_off,,,,,64,0,1,,,,,0,,,85,71
162912,note_on,,,,,32,0,1,,,,,0,,,73,112
162944,note_off,,,,,128,0,2,,,,,1,,,57,69
162976,note_off,,,,,64,0,1,,,,,0,,,73,71
163008,note_on,,,,,64,0,2,,,,,1,,,41,109
163136,note_off,,,,,128,0,2,,,,,1,,,41,69
163200,note_on,,,,,224,0,1,,,,,0,,,73,112
163200,note_on,,,,,64,0,2,,,,,1,,,51,109
163264,note_off,,,,,64,0,1,,,,,0,,,73,71
163296,note_on,,,,,32,0,1,,,,,0,,,73,112
163328,note_off,,,,,128,0,2,,,,,1,,,51,69
163360,note_off,,,,,64,0,1,,,,,0,,,73,71
163392,note_on,,,,,32,0,1,,,,,0,,,85,112
163392,note_on,,,,,64,0,2,,,,,1,,,57,109
163456,note_off,,,,,64,0,1,,,,,0,,,85,71
163488,note_on,,,,,32,0,1,,,,,0,,,73,112
163520,note_off,,,,,128,0,2,,,,,1,,,57,69
163552,note_off,,,,,64,0,1,,,,,0,,,73,71
163584,note_on,,,,,0,0,1,,,,,0,,,71,112
163584,note_on,,,,,32,0,1,,,,,0,,,63,112
163648,note_off,,,,,64,0,1,,,,,0,,,71,71
163680,note_on,,,,,32,0,1,,,,,0,,,71,112
163712,note_off,,,,,32,0,1,,,,,0,,,63,71
163744,note_off,,,,,32,0,1,,,,,0,,,71,71
163776,note_on,,,,,0,0,1,,,,,0,,,83,112
163776,note_on,,,,,32,0,1,,,,,0,,,66,112
163840,note_off,,,,,64,0,1,,,,,0,,,83,71
163872,note_on,,,,,32,0,1,,,,,0,,,71,112
163904,note_off,,,,,32,0,1,,,,,0,,,66,71
163936,note_off,,,,,32,0,1,,,,,0,,,71,71
163968,note_on,,,,,32,0,1,,,,,0,,,63,112
163968,note_on,,,,,0,0,1,,,,,0,,,72,112
164032,note_off,,,,,64,0,1,,,,,0,,,72,71
164064,note_on,,,,,32,0,1,,,,,0,,,72,112
164096,note_off,,,,,32,0,1,,,,,0,,,63,71
164128,note_off,,,,,32,0,1,,,,,0,,,72,71
164160,note_on,,,,,32,0,1,,,,,0,,,84,112
164224,note_off,,,,,64,0,1,,,,,0,,,84,71
164256,note_on,,,,,32,0,1,,,,,0,,,72,112
164320,note_off,,,,,64,0,1,,,,,0,,,72,71
164352,note_on,,,,,32,0,1,,,,,0,,,75,112
164416,note_off,,,,,64,0,1,,,,,0,,,75,71
164448,note_on,,,,,32,0,1,,,,,0,,,75,112
164512,note_off,,,,,64,0,1,,,,,0,,,75,71
164544,note_on,,,,,32,0,1,,,,,0,,,87,112
164608,note_off,,,,,64,0,1,,,,,0,,,87,71
164640,note_on,,,,,32,0,1,,,,,0,,,75,112
164704,note_off,,,,,64,0,1,,,,,0,,,75,71
164736,note_on,,,,,32,0,1,,,,,0,,,76,112
164800,note_off,,,,,64,0,1,,,,,0,,,76,71
164832,note_on,,,,,32,0,1,,,,,0,,,88,112
164896,note_off,,,,,64,0,1,,,,,0,,,88,71
164928,note_on,,,,,32,0,1,,,,,0,,,76,112
164992,note_off,,,,,64,0,1,,,,,0,,,76,71
165024,note_on,,,,,32,0,1,,,,,0,,,77,112
165088,note_off,,,,,64,0,1,,,,,0,,,77,71
165120,note_on,,,,,32,0,1,,,,,0,,,89,112
165184,note_off,,,,,64,0,1,,,,,0,,,89,71
165216,note_on,,,,,32,0,1,,,,,0,,,77,112
165280,note_off,,,,,64,0,1,,,,,0,,,77,71
165312,note_on,,,,,0,0,2,,,,,1,,,42,109
165312,key_signature,,,,,1792,1,2,,,,,,,C,,
165312,key_signature,,,,,32,1,1,,,,,,,C,,
165408,note_on,,,,,96,0,1,,,,,0,,,77,112
165440,note_off,,,,,128,0,2,,,,,1,,,42,69
165472,note_off,,,,,64,0,1,,,,,0,,,77,71
165504,note_on,,,,,64,0,2,,,,,1,,,50,109
165504,note_on,,,,,32,0,1,,,,,0,,,77,112
165568,note_off,,,,,64,0,1,,,,,0,,,77,71
165600,note_on,,,,,32,0,1,,,,,0,,,89,112
165632,note_off,,,,,128,0,2,,,,,1,,,50,69
165664,note_off,,,,,64,0,1,,,,,0,,,89,71
165696,note_on,,,,,64,0,2,,,,,1,,,57,109
165696,note_on,,,,,32,0,1,,,,,0,,,77,112
165760,note_off,,,,,64,0,1,,,,,0,,,77,71
165824,note_off,,,,,128,0,2,,,,,1,,,57,69
165888,note_on,,,,,128,0,1,,,,,0,,,78,112
165888,note_on,,,,,64,0,2,,,,,1,,,62,109
165952,note_off,,,,,64,0,1,,,,,0,,,78,71
165984,note_on,,,,,32,0,1,,,,,0,,,78,112
166016,note_off,,,,,128,0,2,,,,,1,,,62,69
166048,note_off,,,,,64,0,1,,,,,0,,,78,71
166080,note_on,,,,,64,0,2,,,,,1,,,69,109
166080,note_on,,,,,32,0,1,,,,,0,,,90,112
166144,note_off,,,,,64,0,1,,,,,0,,,90,71
166176,note_on,,,,,32,0,1,,,,,0,,,78,112
166208,note_off,,,,,128,0,2,,,,,1,,,69,69
166240,note_off,,,,,64,0,1,,,,,0,,,78,71
166272,note_on,,,,,32,0,1,,,,,0,,,80,112
166272,note_on,,,,,64,0,2,,,,,1,,,74,109
166336,note_off,,,,,64,0,1,,,,,0,,,80,71
166368,note_on,,,,,32,0,1,,,,,0,,,80,112
166400,note_off,,,,,128,0,2,,,,,1,,,74,69
166432,note_off,,,,,64,0,1,,,,,0,,,80,71
166464,note_on,,,,,32,0,1,,,,,0,,,92,112
166464,note_on,,,,,64,0,2,,,,,1,,,69,109
166528,note_off,,,,,64,0,1,,,,,0,,,92,71
166560,note_on,,,,,32,0,1,,,,,0,,,80,112
166592,note_off,,,,,128,0,2,,,,,1,,,69,69
166624,note_off,,,,,64,0,1,,,,,0,,,80,71
166656,note_on,,,,,32,0,1,,,,,0,,,83,112
166656,note_on,,,,,64,0,2,,,,,1,,,62,109
166720,note_off,,,,,64,0,1,,,,,0,,,83,71
166752,note_on,,,,,32,0,1,,,,,0,,,83,112
166784,note_off,,,,,128,0,2,,,,,1,,,62,69
166816,note_off,,,,,64,0,1,,,,,0,,,83,71
166848,note_on,,,,,32,0,1,,,,,0,,,95,112
166848,note_on,,,,,64,0,2,,,,,1,,,65,109
166912,note_off,,,,,64,0,1,,,,,0,,,95,71
166944,note_on,,,,,32,0,1,,,,,0,,,83,112
166976,note_off,,,,,128,0,2,,,,,1,,,65,69
167008,note_off,,,,,64,0,1,,,,,0,,,83,71
167040,note_on,,,,,64,0,2,,,,,1,,,50,109
167040,note_on,,,,,32,0,1,,,,,0,,,81,112
167104,note_off,,,,,64,0,1,,,,,0,,,81,71
167136,note_on,,,,,32,0,1,,,,,0,,,81,112
167168,note_off,,,,,128,0,2,,,,,1,,,50,69
167200,note_off,,,,,64,0,1,,,,,0,,,81,71
167232,note_on,,,,,32,0,1,,,,,0,,,93,112
167232,note_on,,,,,64,0,2,,,,,1,,,42,109
167296,note_off,,,,,64,0,1,,,,,0,,,93,71
167328,note_on,,,,,32,0,1,,,,,0,,,81,112
167360,note_off,,,,,128,0,2,,,,,1,,,42,69
167392,note_off,,,,,64,0,1,,,,,0,,,81,71
167424,note_on,,,,,64,0,2,,,,,1,,,50,109
167424,note_on,,,,,32,0,1,,,,,0,,,80,112
167488,note_off,,,,,64,0,1,,,,,0,,,80,71
167520,note_on,,,,,32,0,1,,,,,0,,,80,112
167552,note_off,,,,,128,0,2,,,,,1,,,50,69
167584,note_off,,,,,64,0,1,,,,,0,,,80,71
167616,note_on,,,,,32,0,1,,,,,0,,,92,112
167616,note_on,,,,,64,0,2,,,,,1,,,57,109
167680,note_off,,,,,64,0,1,,,,,0,,,92,71
167712,note_on,,,,,32,0,1,,,,,0,,,80,112
167744,note_off,,,,,128,0,2,,,,,1,,,57,69
167776,note_off,,,,,64,0,1,,,,,0,,,80,71
167808,note_on,,,,,32,0,1,,,,,0,,,78,112
167808,note_on,,,,,64,0,2,,,,,1,,,45,109
167872,note_off,,,,,64,0,1,,,,,0,,,78,71
167904,note_on,,,,,32,0,1,,,,,0,,,78,112
167936,note_off,,,,,128,0,2,,,,,1,,,45,69
167968,note_off,,,,,64,0,1,,,,,0,,,78,71
168000,note_on,,,,,64,0,2,,,,,1,,,54,109
168000,note_on,,,,,32,0,1,,,,,0,,,90,112
168064,note_off,,,,,64,0,1,,,,,0,,,90,71
168096,note_on,,,,,32,0,1,,,,,0,,,78,112
168128,note_off,,,,,128,0,2,,,,,1,,,54,69
168160,note_off,,,,,64,0,1,,,,,0,,,78,71
168192,note_on,,,,,64,0,2,,,,,1,,,62,109
168192,note_on,,,,,32,0,1,,,,,0,,,78,112
168256,note_off,,,,,64,0,1,,,,,0,,,78,71
168288,note_on,,,,,32,0,1,,,,,0,,,78,112
168320,note_off,,,,,128,0,2,,,,,1,,,62,69
168352,note_off,,,,,64,0,1,,,,,0,,,78,71
168384,note_on,,,,,64,0,2,,,,,1,,,46,109
168384,note_on,,,,,32,0,1,,,,,0,,,90,112
168448,note_off,,,,,64,0,1,,,,,0,,,90,71
168480,note_on,,,,,32,0,1,,,,,0,,,78,112
168512,note_off,,,,,128,0,2,,,,,1,,,46,69
168544,note_off,,,,,64,0,1,,,,,0,,,78,71
168576,note_on,,,,,32,0,1,,,,,0,,,78,112
168576,note_on,,,,,64,0,2,,,,,1,,,56,109
168640,note_off,,,,,64,0,1,,,,,0,,,78,71
168672,note_on,,,,,32,0,1,,,,,0,,,78,112
168704,note_off,,,,,128,0,2,,,,,1,,,56,69
168736,note_off,,,,,64,0,1,,,,,0,,,78,71
168768,note_on,,,,,32,0,1,,,,,0,,,90,112
168768,note_on,,,,,64,0,2,,,,,1,,,62,109
168832,note_off,,,,,64,0,1,,,,,0,,,90,71
168864,note_on,,,,,32,0,1,,,,,0,,,78,112
168896,note_off,,,,,128,0,2,,,,,1,,,62,69
168928,note_off,,,,,64,0,1,,,,,0,,,78,71
168960,note_on,,,,,64,0,2,,,,,1,,,59,109
168960,note_on,,,,,32,0,1,,,,,0,,,78,112
169024,note_off,,,,,64,0,1,,,,,0,,,78,71
169056,note_on,,,,,32,0,1,,,,,0,,,78,112
169088,note_off,,,,,128,0,2,,,,,1,,,59,69
169120,note_off,,,,,64,0,1,,,,,0,,,78,71
169152,note_on,,,,,64,0,2,,,,,1,,,57,109
169152,note_on,,,,,32,0,1,,,,,0,,,89,112
169216,note_off,,,,,64,0,1,,,,,0,,,89,71
169248,note_on,,,,,32,0,1,,,,,0,,,77,112
169280,note_off,,,,,128,0,2,,,,,1,,,57,69
169312,note_off,,,,,64,0,1,,,,,0,,,77,71
169344,note_on,,,,,64,0,2,,,,,1,,,71,109
169344,note_on,,,,,0,0,2,,,,,1,,,56,109
169344,note_on,,,,,0,0,2,,,,,1,,,65,109
169344,note_on,,,,,32,0,1,,,,,0,,,83,112
169344,note_on,,,,,0,0,2,,,,,1,,,62,109
169408,note_off,,,,,64,0,1,,,,,0,,,83,71
169440,note_on,,,,,32,0,1,,,,,0,,,83,112
169504,note_off,,,,,64,0,1,,,,,0,,,83,71
169536,note_on,,,,,32,0,1,,,,,0,,,95,112
169600,note_off,,,,,0,0,2,,,,,1,,,62,69
169600,note_off,,,,,0,0,2,,,,,1,,,65,69
169600,note_off,,,,,256,0,2,,,,,1,,,71,69
169600,note_off,,,,,64,0,1,,,,,0,,,95,71
169600,note_off,,,,,0,0,2,,,,,1,,,56,69
169632,note_on,,,,,32,0,1,,,,,0,,,83,112
169696,note_off,,,,,64,0,1,,,,,0,,,83,71
169728,note_on,,,,,128,0,2,,,,,1,,,70,109
169728,note_on,,,,,32,0,1,,,,,0,,,94,112
169792,note_off,,,,,64,0,1,,,,,0,,,94,71
169824,note_on,,,,,32,0,1,,,,,0,,,82,112
169856,note_off,,,,,128,0,2,,,,,1,,,70,69
169888,note_off,,,,,64,0,1,,,,,0,,,82,71
169920,note_on,,,,,64,0,2,,,,,1,,,44,109
170048,note_off,,,,,128,0,2,,,,,1,,,44,69
170112,note_on,,,,,224,0,1,,,,,0,,,79,112
170112,note_on,,,,,64,0,2,,,,,1,,,52,109
170176,note_off,,,,,64,0,1,,,,,0,,,79,71
170208,note_on,,,,,32,0,1,,,,,0,,,79,112
170240,note_off,,,,,128,0,2,,,,,1,,,52,69
170272,note_off,,,,,64,0,1,,,,,0,,,79,71
170304,note_on,,,,,64,0,2,,,,,1,,,59,109
170304,note_on,,,,,32,0,1,,,,,0,,,91,112
170368,note_off,,,,,64,0,1,,,,,0,,,91,71
170400,note_on,,,,,32,0,1,,,,,0,,,79,112
170432,note_off,,,,,128,0,2,,,,,1,,,59,69
170464,note_off,,,,,64,0,1,,,,,0,,,79,71
170496,note_on,,,,,64,0,2,,,,,1,,,64,109
170496,note_on,,,,,32,0,1,,,,,0,,,80,112
170560,note_off,,,,,64,0,1,,,,,0,,,80,71
170592,note_on,,,,,32,0,1,,,,,0,,,80,112
170624,note_off,,,,,128,0,2,,,,,1,,,64,69
170656,note_off,,,,,64,0,1,,,,,0,,,80,71
170688,note_on,,,,,64,0,2,,,,,1,,,71,109
170688,note_on,,,,,32,0,1,,,,,0,,,92,112
170752,note_off,,,,,64,0,1,,,,,0,,,92,71
170784,note_on,,,,,32,0,1,,,,,0,,,80,112
170816,note_off,,,,,128,0,2,,,,,1,,,71,69
170848,note_off,,,,,64,0,1,,,,,0,,,80,71
170880,note_on,,,,,64,0,2,,,,,1,,,76,109
170880,note_on,,,,,32,0,1,,,,,0,,,82,112
170944,note_off,,,,,64,0,1,,,,,0,,,82,71
170976,note_on,,,,,32,0,1,,,,,0,,,82,112
171008,note_off,,,,,128,0,2,,,,,1,,,76,69
171040,note_off,,,,,64,0,1,,,,,0,,,82,71
171072,note_on,,,,,32,0,1,,,,,0,,,94,112
171072,note_on,,,,,64,0,2,,,,,1,,,71,109
171136,note_off,,,,,64,0,1,,,,,0,,,94,71
171168,note_on,,,,,32,0,1,,,,,0,,,82,112
171200,note_off,,,,,128,0,2,,,,,1,,,71,69
171232,note_off,,,,,64,0,1,,,,,0,,,82,71
171264,note_on,,,,,32,0,1,,,,,0,,,85,112
171264,note_on,,,,,64,0,2,,,,,1,,,64,109
171328,note_off,,,,,64,0,1,,,,,0,,,85,71
171360,note_on,,,,,32,0,1,,,,,0,,,85,112
171392,note_off,,,,,128,0,2,,,,,1,,,64,69
171424,note_off,,,,,64,0,1,,,,,0,,,85,71
171456,note_on,,,,,32,0,1,,,,,0,,,97,112
171456,note_on,,,,,64,0,2,,,,,1,,,65,109
171520,note_off,,,,,64,0,1,,,,,0,,,97,71
171552,note_on,,,,,32,0,1,,,,,0,,,85,112
171584,note_off,,,,,128,0,2,,,,,1,,,65,69
171616,note_off,,,,,64,0,1,,,,,0,,,85,71
171648,note_on,,,,,64,0,2,,,,,1,,,52,109
171648,note_on,,,,,32,0,1,,,,,0,,,83,112
171712,note_off,,,,,64,0,1,,,,,0,,,83,71
171744,note_on,,,,,32,0,1,,,,,0,,,83,112
171776,note_off,,,,,128,0,2,,,,,1,,,52,69
171808,note_off,,,,,64,0,1,,,,,0,,,83,71
171840,note_on,,,,,64,0,2,,,,,1,,,44,109
171840,note_on,,,,,32,0,1,,,,,0,,,95,112
171904,note_off,,,,,64,0,1,,,,,0,,,95,71
171936,note_on,,,,,32,0,1,,,,,0,,,83,112
171968,note_off,,,,,128,0,2,,,,,1,,,44,69
172000,note_off,,,,,64,0,1,,,,,0,,,83,71
172032,note_on,,,,,64,0,2,,,,,1,,,52,109
172032,note_on,,,,,32,0,1,,,,,0,,,82,112
172096,note_off,,,,,64,0,1,,,,,0,,,82,71
172128,note_on,,,,,32,0,1,,,,,0,,,82,112
172160,note_off,,,,,128,0,2,,,,,1,,,52,69
172192,note_off,,,,,64,0,1,,,,,0,,,82,71
172224,note_on,,,,,32,0,1,,,,,0,,,94,112
172224,note_on,,,,,64,0,2,,,,,1,,,59,109
172288,note_off,,,,,64,0,1,,,,,0,,,94,71
172320,note_on,,,,,32,0,1,,,,,0,,,82,112
172352,note_off,,,,,128,0,2,,,,,1,,,59,69
172384,note_off,,,,,64,0,1,,,,,0,,,82,71
172416,note_on,,,,,32,0,1,,,,,0,,,80,112
172416,note_on,,,,,64,0,2,,,,,1,,,47,109
172480,note_off,,,,,64,0,1,,,,,0,,,80,71
172512,note_on,,,,,32,0,1,,,,,0,,,80,112
172544,note_off,,,,,128,0,2,,,,,1,,,47,69
172576,note_off,,,,,64,0,1,,,,,0,,,80,71
172608,note_on,,,,,64,0,2,,,,,1,,,56,109
172608,note_on,,,,,32,0,1,,,,,0,,,92,112
172672,note_off,,,,,64,0,1,,,,,0,,,92,71
172704,note_on,,,,,32,0,1,,,,,0,,,80,112
172736,note_off,,,,,128,0,2,,,,,1,,,56,69
172768,note_off,,,,,64,0,1,,,,,0,,,80,71
172800,note_on,,,,,64,0,2,,,,,1,,,64,109
172800,note_on,,,,,32,0,1,,,,,0,,,80,112
172864,note_off,,,,,64,0,1,,,,,0,,,80,71
172896,note_on,,,,,32,0,1,,,,,0,,,80,112
172928,note_off,,,,,128,0,2,,,,,1,,,64,69
172960,note_off,,,,,64,0,1,,,,,0,,,80,71
172992,note_on,,,,,32,0,1,,,,,0,,,92,112
172992,note_on,,,,,64,0,2,,,,,1,,,50,109
173056,note_off,,,,,64,0,1,,,,,0,,,92,71
173088,note_on,,,,,32,0,1,,,,,0,,,80,112
173120,note_off,,,,,128,0,2,,,,,1,,,50,69
173152,note_off,,,,,64,0,1,,,,,0,,,80,71
173184,note_on,,,,,32,0,1,,,,,0,,,80,112
173184,note_on,,,,,64,0,2,,,,,1,,,58,109
173248,note_off,,,,,64,0,1,,,,,0,,,80,71
173280,note_on,,,,,32,0,1,,,,,0,,,80,112
173312,note_off,,,,,128,0,2,,,,,1,,,58,69
173344,note_off,,,,,64,0,1,,,,,0,,,80,71
173376,note_on,,,,,32,0,1,,,,,0,,,92,112
173376,note_on,,,,,64,0,2,,,,,1,,,72,109
173440,note_off,,,,,64,0,1,,,,,0,,,92,71
173472,note_on,,,,,32,0,1,,,,,0,,,80,112
173504,note_off,,,,,128,0,2,,,,,1,,,72,69
173536,note_off,,,,,64,0,1,,,,,0,,,80,71
173568,note_on,,,,,32,0,1,,,,,0,,,80,112
173568,note_on,,,,,64,0,2,,,,,1,,,68,109
173632,note_off,,,,,64,0,1,,,,,0,,,80,71
173664,note_on,,,,,32,0,1,,,,,0,,,80,112
173696,note_off,,,,,128,0,2,,,,,1,,,68,69
173728,note_off,,,,,64,0,1,,,,,0,,,80,71
173760,note_on,,,,,32,0,1,,,,,0,,,91,112
173760,note_on,,,,,64,0,2,,,,,1,,,67,109
173824,note_off,,,,,64,0,1,,,,,0,,,91,71
173856,note_on,,,,,32,0,1,,,,,0,,,79,112
173888,note_off,,,,,128,0,2,,,,,1,,,67,69
173920,note_off,,,,,64,0,1,,,,,0,,,79,71
173952,note_on,,,,,0,0,2,,,,,1,,,59,109
173952,note_on,,,,,32,0,1,,,,,0,,,85,112
173952,note_on,,,,,0,0,2,,,,,1,,,64,109
173952,note_on,,,,,0,0,2,,,,,1,,,67,109
173952,note_on,,,,,64,0,2,,,,,1,,,74,109
174016,note_off,,,,,64,0,1,,,,,0,,,85,71
174048,note_on,,,,,32,0,1,,,,,0,,,85,112
174112,note_off,,,,,64,0,1,,,,,0,,,85,71
174144,note_on,,,,,32,0,1,,,,,0,,,97,112
174208,note_off,,,,,256,0,2,,,,,1,,,74,69
174208,note_off,,,,,0,0,2,,,,,1,,,59,69
174208,note_off,,,,,64,0,1,,,,,0,,,97,71
174208,note_off,,,,,0,0,2,,,,,1,,,67,69
174208,note_off,,,,,0,0,2,,,,,1,,,64,69
174240,note_on,,,,,32,0,1,,,,,0,,,85,112
174304,note_off,,,,,64,0,1,,,,,0,,,85,71
174336,note_on,,,,,128,0,2,,,,,1,,,72,109
174336,note_on,,,,,32,0,1,,,,,0,,,96,112
174400,note_off,,,,,64,0,1,,,,,0,,,96,71
174432,note_on,,,,,32,0,1,,,,,0,,,84,112
174464,note_off,,,,,128,0,2,,,,,1,,,72,69
174496,note_off,,,,,64,0,1,,,,,0,,,84,71
174528,note_on,,,,,64,0,2,,,,,1,,,46,109
174656,note_off,,,,,128,0,2,,,,,1,,,46,69
174720,note_on,,,,,64,0,2,,,,,1,,,54,109
174720,note_on,,,,,224,0,1,,,,,0,,,81,112
174784,note_off,,,,,64,0,1,,,,,0,,,81,71
174816,note_on,,,,,32,0,1,,,,,0,,,81,112
174848,note_off,,,,,128,0,2,,,,,1,,,54,69
174880,note_off,,,,,64,0,1,,,,,0,,,81,71
174912,note_on,,,,,64,0,2,,,,,1,,,61,109
174912,note_on,,,,,32,0,1,,,,,0,,,93,112
174976,note_off,,,,,64,0,1,,,,,0,,,93,71
175008,note_on,,,,,32,0,1,,,,,0,,,81,112
175040,note_off,,,,,128,0,2,,,,,1,,,61,69
175072,note_off,,,,,64,0,1,,,,,0,,,81,71
175104,note_on,,,,,64,0,2,,,,,1,,,66,109
175104,note_on,,,,,32,0,1,,,,,0,,,82,112
175168,note_off,,,,,64,0,1,,,,,0,,,82,71
175200,note_on,,,,,32,0,1,,,,,0,,,82,112
175232,note_off,,,,,128,0,2,,,,,1,,,66,69
175264,note_off,,,,,64,0,1,,,,,0,,,82,71
175296,note_on,,,,,32,0,1,,,,,0,,,94,112
175296,note_on,,,,,64,0,2,,,,,1,,,73,109
175360,note_off,,,,,64,0,1,,,,,0,,,94,71
175392,note_on,,,,,32,0,1,,,,,0,,,82,112
175424,note_off,,,,,128,0,2,,,,,1,,,73,69
175456,note_off,,,,,64,0,1,,,,,0,,,82,71
175488,note_on,,,,,64,0,2,,,,,1,,,78,109
175488,note_on,,,,,32,0,1,,,,,0,,,84,112
175552,note_off,,,,,64,0,1,,,,,0,,,84,71
175584,note_on,,,,,32,0,1,,,,,0,,,84,112
175616,note_off,,,,,128,0,2,,,,,1,,,78,69
175648,note_off,,,,,64,0,1,,,,,0,,,84,71
175680,note_on,,,,,64,0,2,,,,,1,,,73,109
175680,note_on,,,,,32,0,1,,,,,0,,,96,112
175744,note_off,,,,,64,0,1,,,,,0,,,96,71
175776,note_on,,,,,32,0,1,,,,,0,,,84,112
175808,note_off,,,,,128,0,2,,,,,1,,,73,69
175840,note_off,,,,,64,0,1,,,,,0,,,84,71
175872,note_on,,,,,32,0,1,,,,,0,,,87,112
175872,note_on,,,,,64,0,2,,,,,1,,,66,109
175936,note_off,,,,,64,0,1,,,,,0,,,87,71
175968,note_on,,,,,32,0,1,,,,,0,,,87,112
176000,note_off,,,,,128,0,2,,,,,1,,,66,69
176032,note_off,,,,,64,0,1,,,,,0,,,87,71
176064,note_on,,,,,32,0,1,,,,,0,,,99,112
176064,note_on,,,,,64,0,2,,,,,1,,,70,109
176128,note_off,,,,,64,0,1,,,,,0,,,99,71
176160,note_on,,,,,32,0,1,,,,,0,,,87,112
176192,note_off,,,,,128,0,2,,,,,1,,,70,69
176224,note_off,,,,,64,0,1,,,,,0,,,87,71
176256,note_on,,,,,64,0,2,,,,,1,,,54,109
176256,note_on,,,,,32,0,1,,,,,0,,,85,112
176320,note_off,,,,,64,0,1,,,,,0,,,85,71
176352,note_on,,,,,32,0,1,,,,,0,,,85,112
176384,note_off,,,,,128,0,2,,,,,1,,,54,69
176416,note_off,,,,,64,0,1,,,,,0,,,85,71
176448,note_on,,,,,64,0,2,,,,,1,,,46,109
176448,note_on,,,,,32,0,1,,,,,0,,,97,112
176512,note_off,,,,,64,0,1,,,,,0,,,97,71
176544,note_on,,,,,32,0,1,,,,,0,,,85,112
176576,note_off,,,,,128,0,2,,,,,1,,,46,69
176608,note_off,,,,,64,0,1,,,,,0,,,85,71
176640,note_on,,,,,32,0,1,,,,,0,,,84,112
176640,note_on,,,,,64,0,2,,,,,1,,,54,109
176704,note_off,,,,,64,0,1,,,,,0,,,84,71
176736,note_on,,,,,32,0,1,,,,,0,,,84,112
176768,note_off,,,,,128,0,2,,,,,1,,,54,69
176800,note_off,,,,,64,0,1,,,,,0,,,84,71
176832,note_on,,,,,64,0,2,,,,,1,,,61,109
176832,note_on,,,,,32,0,1,,,,,0,,,96,112
176896,note_off,,,,,64,0,1,,,,,0,,,96,71
176928,note_on,,,,,32,0,1,,,,,0,,,84,112
176960,end_of_track,,,,,0,1,2,,,,,,,,,
176960,note_off,,,,,128,0,2,,,,,1,,,61,69
176992,note_off,,,,,64,0,1,,,,,0,,,84,71
177024,note_on,,,,,32,0,1,,,,,0,,,81,112
177088,note_off,,,,,64,0,1,,,,,0,,,81,71
177120,note_on,,,,,32,0,1,,,,,0,,,81,112
177184,note_off,,,,,64,0,1,,,,,0,,,81,71
177216,note_on,,,,,32,0,1,,,,,0,,,93,112
177280,note_off,,,,,64,0,1,,,,,0,,,93,71
177312,note_on,,,,,32,0,1,,,,,0,,,81,112
177376,note_off,,,,,64,0,1,,,,,0,,,81,71
177408,note_on,,,,,32,0,1,,,,,0,,,82,112
177472,note_off,,,,,64,0,1,,,,,0,,,82,71
177504,note_on,,,,,32,0,1,,,,,0,,,82,112
177568,note_off,,,,,64,0,1,,,,,0,,,82,71
177600,note_on,,,,,32,0,1,,,,,0,,,94,112
177664,note_off,,,,,64,0,1,,,,,0,,,94,71
177696,note_on,,,,,32,0,1,,,,,0,,,82,112
177760,note_off,,,,,64,0,1,,,,,0,,,82,71
177792,note_on,,,,,32,0,1,,,,,0,,,84,112
177856,note_off,,,,,64,0,1,,,,,0,,,84,71
177888,note_on,,,,,32,0,1,,,,,0,,,84,112
177952,note_off,,,,,64,0,1,,,,,0,,,84,71
177984,note_on,,,,,32,0,1,,,,,0,,,96,112
178048,note_off,,,,,64,0,1,,,,,0,,,96,71
178080,note_on,,,,,32,0,1,,,,,0,,,84,112
178144,note_off,,,,,64,0,1,,,,,0,,,84,71
178176,note_on,,,,,32,0,1,,,,,0,,,85,112
178240,note_off,,,,,64,0,1,,,,,0,,,85,71
178272,note_on,,,,,32,0,1,,,,,0,,,85,112
178336,note_off,,,,,64,0,1,,,,,0,,,85,71
178368,note_on,,,,,32,0,1,,,,,0,,,97,112
178432,note_off,,,,,64,0,1,,,,,0,,,97,71
178464,note_on,,,,,32,0,1,,,,,0,,,85,112
178528,note_off,,,,,64,0,1,,,,,0,,,85,71
178560,note_on,,,,,32,0,1,,,,,0,,,87,112
178624,note_off,,,,,64,0,1,,,,,0,,,87,71
178656,note_on,,,,,32,0,1,,,,,0,,,87,112
178720,note_off,,,,,64,0,1,,,,,0,,,87,71
178752,note_on,,,,,32,0,1,,,,,0,,,99,112
178816,note_off,,,,,64,0,1,,,,,0,,,99,71
178848,note_on,,,,,32,0,1,,,,,0,,,87,112
178912,note_off,,,,,64,0,1,,,,,0,,,87,71
178944,note_on,,,,,32,0,1,,,,,0,,,87,112
179008,note_off,,,,,64,0,1,,,,,0,,,87,71
179040,note_on,,,,,32,0,1,,,,,0,,,87,112
179104,note_off,,,,,64,0,1,,,,,0,,,87,71
179136,note_on,,,,,32,0,1,,,,,0,,,100,112
179200,note_off,,,,,64,0,1,,,,,0,,,100,71
179232,note_on,,,,,32,0,1,,,,,0,,,88,112
179296,end_of_track,,,,,0,1,1,,,,,,,,,
179296,note_off,,,,,64,0,1,,,,,0,,,88,71
