tick,type,numerator,denominator,clocks_per_click,notated_32nd_notes_per_beat,time,meta,track,data,tempo,control,value,channel,program,key,note,velocity
0,control_change,,,,,0,0,1,,,0,0,0,,,,
0,track_name,,,,,0,1,1,,,,,,,,,
0,time_signature,3,8,96,8,0,1,0,,,,,,,,,
0,set_tempo,,,,,0,1,0,,500000,,,,,,,
0,sequencer_specific,,,,,0,1,0,"(0, 0, 119, 14, 0)",,,,,,,,
0,sequencer_specific,,,,,0,1,0,"(0, 0, 65)",,,,,,,,
0,program_change,,,,,0,0,2,,,,,1,0,,,
0,program_change,,,,,0,0,1,,,,,0,0,,,
0,track_name,,,,,0,1,2,,,,,,,,,
0,key_signature,,,,,0,1,3,,,,,,,C,,
0,key_signature,,,,,0,1,2,,,,,,,A,,
0,key_signature,,,,,0,1,1,,,,,,,A,,
0,track_name,,,,,0,1,3,,,,,,,,,
0,control_change,,,,,0,0,2,,,0,0,1,,,,
0,control_change,,,,,0,0,2,,,10,33,1,,,,
0,control_change,,,,,0,0,2,,,91,66,1,,,,
0,end_of_track,,,,,0,1,3,,,,,,,,,
0,control_change,,,,,0,0,2,,,7,127,1,,,,
0,control_change,,,,,0,0,1,,,91,69,0,,,,
0,control_change,,,,,0,0,1,,,10,91,0,,,,
0,end_of_track,,,,,0,1,0,,,,,,,,,
0,control_change,,,,,0,0,1,,,7,127,0,,,,
480,note_on,,,,,480,0,2,,,,,1,,,39,121
576,note_on,,,,,96,0,2,,,,,1,,,40,121
608,note_off,,,,,32,0,2,,,,,1,,,39,77
704,note_off,,,,,96,0,2,,,,,1,,,40,77
768,note_on,,,,,64,0,2,,,,,1,,,40,121
896,note_off,,,,,128,0,2,,,,,1,,,40,77
960,note_on,,,,,64,0,2,,,,,1,,,40,121
1088,note_off,,,,,128,0,2,,,,,1,,,40,77
1152,note_on,,,,,64,0,2,,,,,1,,,40,121
1280,note_off,,,,,128,0,2,,,,,1,,,40,77
1344,note_on,,,,,64,0,2,,,,,1,,,40,121
1472,note_off,,,,,128,0,2,,,,,1,,,40,77
1536,note_on,,,,,64,0,2,,,,,1,,,40,121
1632,note_on,,,,,96,0,2,,,,,1,,,39,121
1664,note_off,,,,,32,0,2,,,,,1,,,40,77
1728,note_on,,,,,64,0,2,,,,,1,,,40,121
1760,note_off,,,,,32,0,2,,,,,1,,,39,77
1856,note_off,,,,,96,0,2,,,,,1,,,40,77
1920,note_on,,,,,64,0,2,,,,,1,,,40,121
2048,note_off,,,,,128,0,2,,,,,1,,,40,77
2112,note_on,,,,,64,0,2,,,,,1,,,40,121
2208,note_on,,,,,96,0,2,,,,,1,,,39,121
2240,note_off,,,,,32,0,2,,,,,1,,,40,77
2304,note_on,,,,,64,0,2,,,,,1,,,40,121
2336,note_off,,,,,32,0,2,,,,,1,,,39,77
2432,note_off,,,,,96,0,2,,,,,1,,,40,77
2496,note_on,,,,,64,0,2,,,,,1,,,40,121
2624,note_off,,,,,128,0,2,,,,,1,,,40,77
2688,note_on,,,,,64,0,2,,,,,1,,,40,121
2784,note_on,,,,,96,0,2,,,,,1,,,46,121
2816,note_off,,,,,32,0,2,,,,,1,,,40,77
2880,note_on,,,,,0,0,2,,,,,1,,,47,121
2880,note_on,,,,,64,0,2,,,,,1,,,40,121
2912,note_off,,,,,32,0,2,,,,,1,,,46,77
3008,note_off,,,,,0,0,2,,,,,1,,,47,77
3008,note_off,,,,,96,0,2,,,,,1,,,40,77
3072,note_on,,,,,0,0,2,,,,,1,,,47,121
3072,note_on,,,,,64,0,2,,,,,1,,,40,121
3200,note_off,,,,,0,0,2,,,,,1,,,47,77
3200,note_off,,,,,128,0,2,,,,,1,,,40,77
3264,note_on,,,,,64,0,2,,,,,1,,,40,121
3264,note_on,,,,,0,0,2,,,,,1,,,47,121
3392,note_off,,,,,128,0,2,,,,,1,,,40,77
3392,note_off,,,,,0,0,2,,,,,1,,,47,77
3456,note_on,,,,,0,0,2,,,,,1,,,40,121
3456,note_on,,,,,64,0,2,,,,,1,,,47,121
3584,note_off,,,,,128,0,2,,,,,1,,,47,77
3584,note_off,,,,,0,0,2,,,,,1,,,40,77
3648,note_on,,,,,64,0,2,,,,,1,,,47,121
3648,note_on,,,,,0,0,2,,,,,1,,,40,121
3776,note_off,,,,,0,0,2,,,,,1,,,40,77
3776,note_off,,,,,128,0,2,,,,,1,,,47,77
3840,note_on,,,,,0,0,2,,,,,1,,,40,121
3840,note_on,,,,,64,0,2,,,,,1,,,47,121
3936,note_on,,,,,96,0,2,,,,,1,,,46,121
3968,note_off,,,,,32,0,2,,,,,1,,,47,77
3968,note_off,,,,,0,0,2,,,,,1,,,40,77
4032,note_on,,,,,0,0,2,,,,,1,,,40,121
4032,note_on,,,,,64,0,2,,,,,1,,,47,121
4064,note_off,,,,,32,0,2,,,,,1,,,46,77
4160,note_off,,,,,96,0,2,,,,,1,,,47,77
4160,note_off,,,,,0,0,2,,,,,1,,,40,77
4224,note_on,,,,,64,0,2,,,,,1,,,47,121
4224,note_on,,,,,0,0,2,,,,,1,,,40,121
4352,note_off,,,,,0,0,2,,,,,1,,,40,77
4352,note_off,,,,,128,0,2,,,,,1,,,47,77
4416,note_on,,,,,64,0,2,,,,,1,,,47,121
4416,note_on,,,,,0,0,2,,,,,1,,,40,121
4512,note_on,,,,,96,0,2,,,,,1,,,46,121
4544,note_off,,,,,32,0,2,,,,,1,,,47,77
4544,note_off,,,,,0,0,2,,,,,1,,,40,77
4608,note_on,,,,,64,0,2,,,,,1,,,47,121
4608,note_on,,,,,0,0,2,,,,,1,,,40,121
4640,note_off,,,,,32,0,2,,,,,1,,,46,77
4736,note_off,,,,,0,0,2,,,,,1,,,40,77
4736,note_off,,,,,96,0,2,,,,,1,,,47,77
4800,note_on,,,,,0,0,2,,,,,1,,,40,121
4800,note_on,,,,,64,0,2,,,,,1,,,47,121
4928,note_off,,,,,128,0,2,,,,,1,,,47,77
4928,note_off,,,,,0,0,2,,,,,1,,,40,77
4992,note_on,,,,,0,0,2,,,,,1,,,40,121
4992,note_on,,,,,64,0,2,,,,,1,,,47,121
5088,note_on,,,,,96,0,2,,,,,1,,,53,121
5120,note_off,,,,,32,0,2,,,,,1,,,47,77
5120,note_off,,,,,0,0,2,,,,,1,,,40,77
5184,note_on,,,,,0,0,2,,,,,1,,,47,121
5184,note_on,,,,,0,0,2,,,,,1,,,54,121
5184,note_on,,,,,64,0,2,,,,,1,,,40,121
5216,note_off,,,,,32,0,2,,,,,1,,,53,77
5312,note_off,,,,,0,0,2,,,,,1,,,54,77
5312,note_off,,,,,0,0,2,,,,,1,,,47,77
5312,note_off,,,,,96,0,2,,,,,1,,,40,77
5376,note_on,,,,,0,0,2,,,,,1,,,47,121
5376,note_on,,,,,64,0,2,,,,,1,,,40,121
5376,note_on,,,,,0,0,2,,,,,1,,,54,121
5504,note_off,,,,,128,0,2,,,,,1,,,40,77
5504,note_off,,,,,0,0,2,,,,,1,,,47,77
5504,note_off,,,,,0,0,2,,,,,1,,,54,77
5568,note_on,,,,,64,0,2,,,,,1,,,40,121
5568,note_on,,,,,0,0,2,,,,,1,,,47,121
5568,note_on,,,,,0,0,2,,,,,1,,,54,121
5696,note_off,,,,,128,0,2,,,,,1,,,40,77
5696,note_off,,,,,0,0,2,,,,,1,,,47,77
5696,note_off,,,,,0,0,2,,,,,1,,,54,77
5760,note_on,,,,,64,0,2,,,,,1,,,54,121
5760,note_on,,,,,0,0,2,,,,,1,,,47,121
5760,note_on,,,,,0,0,2,,,,,1,,,40,121
5888,note_off,,,,,0,0,2,,,,,1,,,47,77
5888,note_off,,,,,128,0,2,,,,,1,,,54,77
5888,note_off,,,,,0,0,2,,,,,1,,,40,77
5952,note_on,,,,,0,0,2,,,,,1,,,47,121
5952,note_on,,,,,0,0,2,,,,,1,,,40,121
5952,note_on,,,,,64,0,2,,,,,1,,,54,121
6080,note_off,,,,,0,0,2,,,,,1,,,47,77
6080,note_off,,,,,128,0,2,,,,,1,,,54,77
6080,note_off,,,,,0,0,2,,,,,1,,,40,77
6144,note_on,,,,,64,0,2,,,,,1,,,54,121
6144,note_on,,,,,0,0,2,,,,,1,,,40,121
6144,note_on,,,,,0,0,2,,,,,1,,,47,121
6240,note_on,,,,,96,0,2,,,,,1,,,53,121
6272,note_off,,,,,32,0,2,,,,,1,,,54,77
6272,note_off,,,,,0,0,2,,,,,1,,,40,77
6272,note_off,,,,,0,0,2,,,,,1,,,47,77
6336,note_on,,,,,64,0,2,,,,,1,,,40,121
6336,note_on,,,,,0,0,2,,,,,1,,,54,121
6336,note_on,,,,,0,0,2,,,,,1,,,61,121
6336,note_on,,,,,0,0,2,,,,,1,,,47,121
6368,note_off,,,,,32,0,2,,,,,1,,,53,77
6464,note_off,,,,,0,0,2,,,,,1,,,47,77
6464,note_off,,,,,96,0,2,,,,,1,,,40,77
6464,note_off,,,,,0,0,2,,,,,1,,,54,77
6464,note_off,,,,,0,0,2,,,,,1,,,61,77
6528,note_on,,,,,0,0,2,,,,,1,,,61,121
6528,note_on,,,,,0,0,2,,,,,1,,,54,121
6528,note_on,,,,,0,0,2,,,,,1,,,47,121
6528,note_on,,,,,64,0,2,,,,,1,,,40,121
6656,note_off,,,,,128,0,2,,,,,1,,,40,77
6656,note_off,,,,,0,0,2,,,,,1,,,47,77
6656,note_off,,,,,0,0,2,,,,,1,,,54,77
6656,note_off,,,,,0,0,2,,,,,1,,,61,77
6720,note_on,,,,,64,0,2,,,,,1,,,40,121
6720,note_on,,,,,0,0,2,,,,,1,,,54,121
6720,note_on,,,,,0,0,2,,,,,1,,,61,121
6720,note_on,,,,,0,0,2,,,,,1,,,47,121
6848,note_off,,,,,128,0,2,,,,,1,,,40,77
6848,note_off,,,,,0,0,2,,,,,1,,,54,77
6848,note_off,,,,,0,0,2,,,,,1,,,47,77
6848,note_off,,,,,0,0,2,,,,,1,,,61,77
6912,note_on,,,,,0,0,2,,,,,1,,,40,121
6912,note_on,,,,,0,0,2,,,,,1,,,47,121
6912,note_on,,,,,64,0,2,,,,,1,,,61,121
6912,note_on,,,,,0,0,2,,,,,1,,,54,121
7040,note_off,,,,,0,0,2,,,,,1,,,40,77
7040,note_off,,,,,0,0,2,,,,,1,,,47,77
7040,note_off,,,,,0,0,2,,,,,1,,,54,77
7040,note_off,,,,,128,0,2,,,,,1,,,61,77
7104,note_on,,,,,0,0,2,,,,,1,,,54,121
7104,note_on,,,,,64,0,2,,,,,1,,,61,121
7104,note_on,,,,,0,0,2,,,,,1,,,40,121
7104,note_on,,,,,0,0,2,,,,,1,,,47,121
7232,note_off,,,,,0,0,2,,,,,1,,,54,77
7232,note_off,,,,,0,0,2,,,,,1,,,40,77
7232,note_off,,,,,0,0,2,,,,,1,,,47,77
7232,note_off,,,,,128,0,2,,,,,1,,,61,77
7296,note_on,,,,,0,0,2,,,,,1,,,47,121
7296,note_on,,,,,64,0,2,,,,,1,,,61,121
7296,note_on,,,,,0,0,2,,,,,1,,,40,121
7296,note_on,,,,,0,0,2,,,,,1,,,54,121
7392,note_on,,,,,7392,0,1,,,,,0,,,60,121
7424,note_off,,,,,128,0,2,,,,,1,,,61,77
7424,note_off,,,,,0,0,2,,,,,1,,,40,77
7424,note_off,,,,,0,0,2,,,,,1,,,47,77
7424,note_off,,,,,0,0,2,,,,,1,,,54,77
7488,note_on,,,,,0,0,2,,,,,1,,,40,121
7488,note_on,,,,,64,0,2,,,,,1,,,54,121
7488,note_on,,,,,0,0,1,,,,,0,,,61,121
7488,note_on,,,,,96,0,1,,,,,0,,,69,121
7488,note_on,,,,,0,0,2,,,,,1,,,47,121
7520,note_off,,,,,32,0,1,,,,,0,,,60,77
7616,note_off,,,,,0,0,2,,,,,1,,,47,77
7616,note_off,,,,,0,0,2,,,,,1,,,40,77
7616,note_off,,,,,96,0,1,,,,,0,,,69,77
7616,note_off,,,,,128,0,2,,,,,1,,,54,77
7616,note_off,,,,,0,0,1,,,,,0,,,61,77
7680,note_on,,,,,64,0,1,,,,,0,,,69,121
7680,note_on,,,,,64,0,2,,,,,1,,,54,121
7680,note_on,,,,,0,0,1,,,,,0,,,61,121
7680,note_on,,,,,0,0,2,,,,,1,,,40,121
7680,note_on,,,,,0,0,2,,,,,1,,,47,121
7808,note_off,,,,,0,0,2,,,,,1,,,47,77
7808,note_off,,,,,128,0,2,,,,,1,,,54,77
7808,note_off,,,,,0,0,1,,,,,0,,,61,77
7808,note_off,,,,,128,0,1,,,,,0,,,69,77
7808,note_off,,,,,0,0,2,,,,,1,,,40,77
7872,note_on,,,,,0,0,2,,,,,1,,,40,121
7872,note_on,,,,,64,0,1,,,,,0,,,69,121
7872,note_on,,,,,64,0,2,,,,,1,,,54,121
7872,note_on,,,,,0,0,2,,,,,1,,,47,121
7872,note_on,,,,,0,0,1,,,,,0,,,61,121
8000,note_off,,,,,0,0,1,,,,,0,,,61,77
8000,note_off,,,,,128,0,2,,,,,1,,,54,77
8000,note_off,,,,,0,0,2,,,,,1,,,40,77
8000,note_off,,,,,0,0,2,,,,,1,,,47,77
8000,note_off,,,,,128,0,1,,,,,0,,,69,77
8064,note_on,,,,,0,0,1,,,,,0,,,61,121
8064,note_on,,,,,0,0,2,,,,,1,,,47,121
8064,note_on,,,,,0,0,2,,,,,1,,,40,121
8064,note_on,,,,,64,0,1,,,,,0,,,69,121
8064,note_on,,,,,64,0,2,,,,,1,,,54,121
8192,note_off,,,,,0,0,2,,,,,1,,,47,77
8192,note_off,,,,,0,0,2,,,,,1,,,40,77
8192,note_off,,,,,128,0,1,,,,,0,,,69,77
8192,note_off,,,,,128,0,2,,,,,1,,,54,77
8192,note_off,,,,,0,0,1,,,,,0,,,61,77
8256,note_on,,,,,0,0,2,,,,,1,,,47,121
8256,note_on,,,,,0,0,2,,,,,1,,,40,121
8256,note_on,,,,,64,0,2,,,,,1,,,54,121
8256,note_on,,,,,64,0,1,,,,,0,,,69,121
8256,note_on,,,,,0,0,1,,,,,0,,,61,121
8384,note_off,,,,,0,0,2,,,,,1,,,40,77
8384,note_off,,,,,0,0,2,,,,,1,,,47,77
8384,note_off,,,,,128,0,1,,,,,0,,,69,77
8384,note_off,,,,,0,0,1,,,,,0,,,61,77
8384,note_off,,,,,128,0,2,,,,,1,,,54,77
8448,note_on,,,,,64,0,2,,,,,1,,,54,121
8448,note_on,,,,,0,0,2,,,,,1,,,47,121
8448,note_on,,,,,0,0,2,,,,,1,,,40,121
8448,note_on,,,,,0,0,1,,,,,0,,,61,121
8448,note_on,,,,,64,0,1,,,,,0,,,69,121
8544,note_on,,,,,96,0,1,,,,,0,,,61,121
8576,note_off,,,,,0,0,1,,,,,0,,,61,77
8576,note_off,,,,,32,0,1,,,,,0,,,69,77
8576,note_off,,,,,128,0,2,,,,,1,,,54,77
8576,note_off,,,,,0,0,2,,,,,1,,,40,77
8576,note_off,,,,,0,0,2,,,,,1,,,47,77
8640,note_on,,,,,0,0,2,,,,,1,,,47,121
8640,note_on,,,,,64,0,1,,,,,0,,,62,121
8640,note_on,,,,,0,0,2,,,,,1,,,40,121
8640,note_on,,,,,0,0,1,,,,,0,,,69,121
8640,note_on,,,,,64,0,2,,,,,1,,,54,121
8672,note_off,,,,,32,0,1,,,,,0,,,61,77
8768,note_off,,,,,0,0,2,,,,,1,,,47,77
8768,note_off,,,,,96,0,1,,,,,0,,,62,77
8768,note_off,,,,,0,0,2,,,,,1,,,40,77
8768,note_off,,,,,128,0,2,,,,,1,,,54,77
8768,note_off,,,,,0,0,1,,,,,0,,,69,77
8832,note_on,,,,,64,0,2,,,,,1,,,54,121
8832,note_on,,,,,0,0,1,,,,,0,,,69,121
8832,note_on,,,,,64,0,1,,,,,0,,,62,121
8832,note_on,,,,,0,0,2,,,,,1,,,47,121
8832,note_on,,,,,0,0,2,,,,,1,,,40,121
8960,note_off,,,,,128,0,1,,,,,0,,,62,77
8960,note_off,,,,,0,0,1,,,,,0,,,69,77
8960,note_off,,,,,128,0,2,,,,,1,,,54,77
8960,note_off,,,,,0,0,2,,,,,1,,,47,77
8960,note_off,,,,,0,0,2,,,,,1,,,40,77
9024,note_on,,,,,64,0,1,,,,,0,,,62,121
9024,note_on,,,,,0,0,2,,,,,1,,,40,121
9024,note_on,,,,,64,0,2,,,,,1,,,54,121
9024,note_on,,,,,0,0,1,,,,,0,,,69,121
9024,note_on,,,,,0,0,2,,,,,1,,,47,121
9152,note_off,,,,,128,0,1,,,,,0,,,62,77
9152,note_off,,,,,128,0,2,,,,,1,,,54,77
9152,note_off,,,,,0,0,1,,,,,0,,,69,77
9152,note_off,,,,,0,0,2,,,,,1,,,40,77
9152,note_off,,,,,0,0,2,,,,,1,,,47,77
9216,note_on,,,,,64,0,1,,,,,0,,,69,121
9216,note_on,,,,,0,0,1,,,,,0,,,62,121
9216,note_on,,,,,0,0,2,,,,,1,,,47,121
9216,note_on,,,,,0,0,2,,,,,1,,,40,121
9216,note_on,,,,,64,0,2,,,,,1,,,54,121
9344,note_off,,,,,128,0,2,,,,,1,,,54,77
9344,note_off,,,,,0,0,1,,,,,0,,,62,77
9344,note_off,,,,,128,0,1,,,,,0,,,69,77
9344,note_off,,,,,0,0,2,,,,,1,,,47,77
9344,note_off,,,,,0,0,2,,,,,1,,,40,77
9408,note_on,,,,,64,0,2,,,,,1,,,54,121
9408,note_on,,,,,0,0,2,,,,,1,,,40,121
9408,note_on,,,,,0,0,2,,,,,1,,,47,121
9408,note_on,,,,,64,0,1,,,,,0,,,62,121
9536,note_off,,,,,128,0,1,,,,,0,,,62,77
9536,note_off,,,,,0,0,2,,,,,1,,,40,77
9536,note_off,,,,,0,0,2,,,,,1,,,47,77
9536,note_off,,,,,128,0,2,,,,,1,,,54,77
9600,note_on,,,,,0,0,2,,,,,1,,,40,121
9600,note_on,,,,,0,0,2,,,,,1,,,47,121
9600,note_on,,,,,0,0,1,,,,,0,,,69,121
9600,note_on,,,,,64,0,1,,,,,0,,,62,121
9600,note_on,,,,,64,0,2,,,,,1,,,54,121
9728,note_off,,,,,0,0,2,,,,,1,,,47,77
9728,note_off,,,,,0,0,2,,,,,1,,,40,77
9728,note_off,,,,,128,0,2,,,,,1,,,54,77
9728,note_off,,,,,0,0,1,,,,,0,,,69,77
9728,note_off,,,,,128,0,1,,,,,0,,,62,77
9792,note_on,,,,,64,0,2,,,,,1,,,54,121
9792,note_on,,,,,0,0,1,,,,,0,,,62,121
9792,note_on,,,,,0,0,1,,,,,0,,,62,121
9792,note_on,,,,,0,0,1,,,,,0,,,76,121
9792,note_on,,,,,0,0,1,,,,,0,,,69,121
9792,note_on,,,,,64,0,1,,,,,0,,,76,121
9792,note_on,,,,,0,0,2,,,,,1,,,40,121
9792,note_on,,,,,0,0,2,,,,,1,,,47,121
9792,note_on,,,,,0,0,1,,,,,0,,,69,121
9920,note_off,,,,,0,0,2,,,,,1,,,40,77
9920,note_off,,,,,128,0,2,,,,,1,,,54,77
9920,note_off,,,,,0,0,2,,,,,1,,,47,77
9984,note_on,,,,,64,0,2,,,,,1,,,54,121
9984,note_on,,,,,0,0,2,,,,,1,,,47,121
9984,note_on,,,,,0,0,2,,,,,1,,,40,121
10048,note_off,,,,,0,0,1,,,,,0,,,69,77
10048,note_off,,,,,256,0,1,,,,,0,,,76,77
10048,note_off,,,,,0,0,1,,,,,0,,,69,77
10048,note_off,,,,,0,0,1,,,,,0,,,62,77
10048,note_off,,,,,0,0,1,,,,,0,,,76,77
10048,note_off,,,,,0,0,1,,,,,0,,,62,77
10112,note_off,,,,,0,0,2,,,,,1,,,47,77
10112,note_off,,,,,0,0,2,,,,,1,,,40,77
10112,note_off,,,,,128,0,2,,,,,1,,,54,77
10176,note_on,,,,,64,0,2,,,,,1,,,54,121
10176,note_on,,,,,0,0,2,,,,,1,,,40,121
10176,note_on,,,,,128,0,1,,,,,0,,,69,121
10176,note_on,,,,,0,0,1,,,,,0,,,62,121
10176,note_on,,,,,0,0,2,,,,,1,,,47,121
10304,note_off,,,,,128,0,2,,,,,1,,,54,77
10304,note_off,,,,,0,0,1,,,,,0,,,62,77
10304,note_off,,,,,128,0,1,,,,,0,,,69,77
10304,note_off,,,,,0,0,2,,,,,1,,,47,77
10304,note_off,,,,,0,0,2,,,,,1,,,40,77
10368,note_on,,,,,0,0,2,,,,,1,,,54,121
10368,note_on,,,,,0,0,2,,,,,1,,,47,121
10368,note_on,,,,,64,0,2,,,,,1,,,40,121
10496,note_off,,,,,0,0,2,,,,,1,,,54,77
10496,note_off,,,,,0,0,2,,,,,1,,,47,77
10496,note_off,,,,,128,0,2,,,,,1,,,40,77
10560,note_on,,,,,256,0,1,,,,,0,,,62,121
10560,note_on,,,,,0,0,2,,,,,1,,,47,121
10560,note_on,,,,,0,0,2,,,,,1,,,54,121
10560,note_on,,,,,64,0,2,,,,,1,,,40,121
10688,note_off,,,,,0,0,2,,,,,1,,,47,77
10688,note_off,,,,,0,0,2,,,,,1,,,54,77
10688,note_off,,,,,128,0,1,,,,,0,,,62,77
10688,note_off,,,,,128,0,2,,,,,1,,,40,77
10752,note_on,,,,,0,0,2,,,,,1,,,47,121
10752,note_on,,,,,0,0,2,,,,,1,,,54,121
10752,note_on,,,,,64,0,2,,,,,1,,,40,121
10752,note_on,,,,,0,0,1,,,,,0,,,69,121
10752,note_on,,,,,64,0,1,,,,,0,,,62,121
10880,note_off,,,,,0,0,1,,,,,0,,,69,77
10880,note_off,,,,,128,0,2,,,,,1,,,40,77
10880,note_off,,,,,128,0,1,,,,,0,,,62,77
10880,note_off,,,,,0,0,2,,,,,1,,,54,77
10880,note_off,,,,,0,0,2,,,,,1,,,47,77
10944,note_on,,,,,0,0,2,,,,,1,,,54,121
10944,note_on,,,,,64,0,1,,,,,0,,,62,121
10944,note_on,,,,,0,0,1,,,,,0,,,62,121
10944,note_on,,,,,0,0,1,,,,,0,,,76,121
10944,note_on,,,,,64,0,2,,,,,1,,,47,121
10944,note_on,,,,,0,0,1,,,,,0,,,69,121
10944,note_on,,,,,0,0,1,,,,,0,,,69,121
10944,note_on,,,,,0,0,2,,,,,1,,,40,121
10944,note_on,,,,,0,0,1,,,,,0,,,76,121
11072,note_off,,,,,0,0,2,,,,,1,,,40,77
11072,note_off,,,,,0,0,2,,,,,1,,,54,77
11072,note_off,,,,,128,0,2,,,,,1,,,47,77
11136,note_on,,,,,64,0,2,,,,,1,,,54,121
11136,note_on,,,,,0,0,2,,,,,1,,,40,121
11136,note_on,,,,,0,0,2,,,,,1,,,47,121
11200,note_off,,,,,0,0,1,,,,,0,,,76,77
11200,note_off,,,,,0,0,1,,,,,0,,,69,77
11200,note_off,,,,,0,0,1,,,,,0,,,69,77
11200,note_off,,,,,0,0,1,,,,,0,,,62,77
11200,note_off,,,,,0,0,1,,,,,0,,,76,77
11200,note_off,,,,,256,0,1,,,,,0,,,62,77
11264,note_off,,,,,0,0,2,,,,,1,,,47,77
11264,note_off,,,,,0,0,2,,,,,1,,,40,77
11264,note_off,,,,,128,0,2,,,,,1,,,54,77
11328,note_on,,,,,0,0,2,,,,,1,,,40,121
11328,note_on,,,,,128,0,1,,,,,0,,,62,121
11328,note_on,,,,,64,0,2,,,,,1,,,54,121
11328,note_on,,,,,0,0,2,,,,,1,,,47,121
11328,note_on,,,,,0,0,1,,,,,0,,,69,121
11456,note_off,,,,,128,0,2,,,,,1,,,54,77
11456,note_off,,,,,0,0,2,,,,,1,,,47,77
11456,note_off,,,,,128,0,1,,,,,0,,,62,77
11456,note_off,,,,,0,0,1,,,,,0,,,69,77
11456,note_off,,,,,0,0,2,,,,,1,,,40,77
11520,note_on,,,,,0,0,2,,,,,1,,,40,121
11520,note_on,,,,,64,0,2,,,,,1,,,54,121
11520,note_on,,,,,64,0,1,,,,,0,,,62,121
11520,note_on,,,,,0,0,1,,,,,0,,,69,121
11520,note_on,,,,,0,0,1,,,,,0,,,69,121
11520,note_on,,,,,0,0,1,,,,,0,,,76,121
11520,note_on,,,,,0,0,1,,,,,0,,,76,121
11520,note_on,,,,,0,0,1,,,,,0,,,62,121
11520,note_on,,,,,0,0,2,,,,,1,,,47,121
11648,note_off,,,,,0,0,2,,,,,1,,,40,77
11648,note_off,,,,,128,0,2,,,,,1,,,54,77
11648,note_off,,,,,0,0,2,,,,,1,,,47,77
11712,note_on,,,,,0,0,2,,,,,1,,,47,121
11712,note_on,,,,,0,0,2,,,,,1,,,40,121
11712,note_on,,,,,64,0,2,,,,,1,,,54,121
11776,note_off,,,,,0,0,1,,,,,0,,,62,77
11776,note_off,,,,,0,0,1,,,,,0,,,76,77
11776,note_off,,,,,0,0,1,,,,,0,,,76,77
11776,note_off,,,,,256,0,1,,,,,0,,,62,77
11776,note_off,,,,,0,0,1,,,,,0,,,69,77
11776,note_off,,,,,0,0,1,,,,,0,,,69,77
11840,note_off,,,,,0,0,2,,,,,1,,,40,77
11840,note_off,,,,,0,0,2,,,,,1,,,47,77
11840,note_off,,,,,128,0,2,,,,,1,,,54,77
11904,note_on,,,,,0,0,1,,,,,0,,,62,121
11904,note_on,,,,,0,0,2,,,,,1,,,40,121
11904,note_on,,,,,0,0,2,,,,,1,,,47,121
11904,note_on,,,,,128,0,1,,,,,0,,,69,121
11904,note_on,,,,,64,0,2,,,,,1,,,54,121
12032,note_off,,,,,128,0,2,,,,,1,,,54,77
12032,note_off,,,,,128,0,1,,,,,0,,,69,77
12032,note_off,,,,,0,0,2,,,,,1,,,47,77
12032,note_off,,,,,0,0,2,,,,,1,,,40,77
12032,note_off,,,,,0,0,1,,,,,0,,,62,77
12096,note_on,,,,,0,0,1,,,,,0,,,69,121
12096,note_on,,,,,0,0,1,,,,,0,,,62,121
12096,note_on,,,,,0,0,1,,,,,0,,,76,121
12096,note_on,,,,,0,0,1,,,,,0,,,69,121
12096,note_on,,,,,0,0,1,,,,,0,,,76,121
12096,note_on,,,,,64,0,1,,,,,0,,,62,121
12096,note_on,,,,,0,0,2,,,,,1,,,47,121
12096,note_on,,,,,64,0,2,,,,,1,,,54,121
12096,note_on,,,,,0,0,2,,,,,1,,,40,121
12224,note_off,,,,,0,0,2,,,,,1,,,47,77
12224,note_off,,,,,128,0,2,,,,,1,,,54,77
12224,note_off,,,,,0,0,2,,,,,1,,,40,77
12288,note_on,,,,,0,0,2,,,,,1,,,47,121
12288,note_on,,,,,0,0,2,,,,,1,,,40,121
12288,note_on,,,,,64,0,2,,,,,1,,,54,121
12352,note_off,,,,,256,0,1,,,,,0,,,62,77
12352,note_off,,,,,0,0,1,,,,,0,,,76,77
12352,note_off,,,,,0,0,1,,,,,0,,,69,77
12352,note_off,,,,,0,0,1,,,,,0,,,62,77
12352,note_off,,,,,0,0,1,,,,,0,,,69,77
12352,note_off,,,,,0,0,1,,,,,0,,,76,77
12416,note_off,,,,,128,0,2,,,,,1,,,54,77
12416,note_off,,,,,0,0,2,,,,,1,,,40,77
12416,note_off,,,,,0,0,2,,,,,1,,,47,77
12480,note_on,,,,,0,0,2,,,,,1,,,40,121
12480,note_on,,,,,128,0,1,,,,,0,,,69,121
12480,note_on,,,,,64,0,2,,,,,1,,,54,121
12480,note_on,,,,,0,0,2,,,,,1,,,47,121
12480,note_on,,,,,0,0,1,,,,,0,,,62,121
12608,note_off,,,,,0,0,2,,,,,1,,,40,77
12608,note_off,,,,,0,0,2,,,,,1,,,47,77
12608,note_off,,,,,0,0,1,,,,,0,,,62,77
12608,note_off,,,,,128,0,1,,,,,0,,,69,77
12608,note_off,,,,,128,0,2,,,,,1,,,54,77
12672,note_on,,,,,0,0,2,,,,,1,,,40,121
12672,note_on,,,,,0,0,2,,,,,1,,,47,121
12672,note_on,,,,,64,0,1,,,,,0,,,69,121
12672,note_on,,,,,0,0,1,,,,,0,,,62,121
12672,note_on,,,,,64,0,2,,,,,1,,,54,121
12800,note_off,,,,,128,0,2,,,,,1,,,54,77
12800,note_off,,,,,0,0,2,,,,,1,,,40,77
12800,note_off,,,,,0,0,2,,,,,1,,,47,77
12864,note_on,,,,,0,0,2,,,,,1,,,40,121
12864,note_on,,,,,0,0,2,,,,,1,,,47,121
12864,note_on,,,,,64,0,2,,,,,1,,,54,121
12928,note_off,,,,,256,0,1,,,,,0,,,69,77
12928,note_off,,,,,0,0,1,,,,,0,,,62,77
12992,note_off,,,,,0,0,2,,,,,1,,,40,77
12992,note_off,,,,,0,0,2,,,,,1,,,47,77
12992,note_off,,,,,128,0,2,,,,,1,,,54,77
13056,note_on,,,,,64,0,2,,,,,1,,,47,121
13056,note_on,,,,,128,0,1,,,,,0,,,62,121
13056,note_on,,,,,0,0,2,,,,,1,,,40,121
13056,note_on,,,,,0,0,1,,,,,0,,,55,121
13184,note_off,,,,,0,0,2,,,,,1,,,40,77
13184,note_off,,,,,128,0,1,,,,,0,,,62,77
13184,note_off,,,,,128,0,2,,,,,1,,,47,77
13184,note_off,,,,,0,0,1,,,,,0,,,55,77
13248,note_on,,,,,64,0,1,,,,,0,,,69,121
13248,note_on,,,,,64,0,2,,,,,1,,,54,121
13248,note_on,,,,,0,0,1,,,,,0,,,69,121
13248,note_on,,,,,0,0,2,,,,,1,,,40,121
13248,note_on,,,,,0,0,1,,,,,0,,,62,121
13248,note_on,,,,,0,0,1,,,,,0,,,62,121
13248,note_on,,,,,0,0,2,,,,,1,,,47,121
13376,note_off,,,,,128,0,2,,,,,1,,,54,77
13376,note_off,,,,,0,0,2,,,,,1,,,47,77
13376,note_off,,,,,0,0,2,,,,,1,,,40,77
13440,note_on,,,,,64,0,2,,,,,1,,,54,121
13440,note_on,,,,,0,0,2,,,,,1,,,40,121
13440,note_on,,,,,0,0,2,,,,,1,,,47,121
13504,note_off,,,,,0,0,1,,,,,0,,,62,77
13504,note_off,,,,,256,0,1,,,,,0,,,69,77
13504,note_off,,,,,0,0,1,,,,,0,,,62,77
13504,note_off,,,,,0,0,1,,,,,0,,,69,77
13568,note_off,,,,,0,0,2,,,,,1,,,47,77
13568,note_off,,,,,128,0,2,,,,,1,,,54,77
13568,note_off,,,,,0,0,2,,,,,1,,,40,77
13632,note_on,,,,,128,0,1,,,,,0,,,62,121
13632,note_on,,,,,0,0,2,,,,,1,,,40,121
13632,note_on,,,,,0,0,1,,,,,0,,,55,121
13632,note_on,,,,,64,0,2,,,,,1,,,47,121
13760,note_off,,,,,128,0,1,,,,,0,,,62,77
13760,note_off,,,,,128,0,2,,,,,1,,,47,77
13760,note_off,,,,,0,0,2,,,,,1,,,40,77
13760,note_off,,,,,0,0,1,,,,,0,,,55,77
13824,note_on,,,,,64,0,1,,,,,0,,,69,121
13824,note_on,,,,,0,0,1,,,,,0,,,62,121
13824,note_on,,,,,0,0,1,,,,,0,,,69,121
13824,note_on,,,,,0,0,1,,,,,0,,,62,121
13824,note_on,,,,,0,0,2,,,,,1,,,47,121
13824,note_on,,,,,0,0,2,,,,,1,,,40,121
13824,note_on,,,,,64,0,2,,,,,1,,,54,121
13952,note_off,,,,,128,0,2,,,,,1,,,54,77
13952,note_off,,,,,0,0,2,,,,,1,,,40,77
13952,note_off,,,,,0,0,2,,,,,1,,,47,77
14016,note_on,,,,,64,0,2,,,,,1,,,54,121
14016,note_on,,,,,0,0,2,,,,,1,,,40,121
14016,note_on,,,,,0,0,2,,,,,1,,,47,121
14080,note_off,,,,,0,0,1,,,,,0,,,62,77
14080,note_off,,,,,256,0,1,,,,,0,,,69,77
14080,note_off,,,,,0,0,1,,,,,0,,,69,77
14080,note_off,,,,,0,0,1,,,,,0,,,62,77
14144,note_off,,,,,0,0,2,,,,,1,,,47,77
14144,note_off,,,,,0,0,2,,,,,1,,,40,77
14144,note_off,,,,,128,0,2,,,,,1,,,54,77
14208,note_on,,,,,64,0,2,,,,,1,,,47,121
14208,note_on,,,,,0,0,2,,,,,1,,,40,121
14208,note_on,,,,,128,0,1,,,,,0,,,62,121
14208,note_on,,,,,0,0,1,,,,,0,,,55,121
14336,note_off,,,,,128,0,1,,,,,0,,,62,77
14336,note_off,,,,,128,0,2,,,,,1,,,47,77
14336,note_off,,,,,0,0,1,,,,,0,,,55,77
14336,note_off,,,,,0,0,2,,,,,1,,,40,77
14400,note_on,,,,,0,0,2,,,,,1,,,40,121
14400,note_on,,,,,64,0,1,,,,,0,,,62,121
14400,note_on,,,,,0,0,1,,,,,0,,,55,121
14400,note_on,,,,,64,0,2,,,,,1,,,47,121
14528,note_off,,,,,128,0,2,,,,,1,,,47,77
14528,note_off,,,,,0,0,2,,,,,1,,,40,77
14592,note_on,,,,,0,0,2,,,,,1,,,40,121
14592,note_on,,,,,64,0,2,,,,,1,,,47,121
14656,note_off,,,,,0,0,1,,,,,0,,,55,77
14656,note_off,,,,,256,0,1,,,,,0,,,62,77
14720,note_off,,,,,0,0,2,,,,,1,,,40,77
14720,note_off,,,,,128,0,2,,,,,1,,,47,77
14784,note_on,,,,,0,0,2,,,,,1,,,40,121
14784,note_on,,,,,64,0,2,,,,,1,,,47,121
14912,note_off,,,,,0,0,2,,,,,1,,,40,77
14912,note_off,,,,,128,0,2,,,,,1,,,47,77
14976,note_on,,,,,0,0,2,,,,,1,,,40,121
14976,note_on,,,,,320,0,1,,,,,0,,,62,121
14976,note_on,,,,,64,0,2,,,,,1,,,47,121
14976,note_on,,,,,0,0,1,,,,,0,,,55,121
15232,note_off,,,,,0,0,2,,,,,1,,,40,77
15232,note_off,,,,,256,0,1,,,,,0,,,62,77
15232,note_off,,,,,0,0,1,,,,,0,,,55,77
15232,note_off,,,,,256,0,2,,,,,1,,,47,77
15552,note_on,,,,,320,0,2,,,,,1,,,55,121
15552,note_on,,,,,0,0,2,,,,,1,,,40,121
15552,note_on,,,,,0,0,2,,,,,1,,,48,121
15808,note_off,,,,,0,0,2,,,,,1,,,40,77
15808,note_off,,,,,256,0,2,,,,,1,,,55,77
15808,note_off,,,,,0,0,2,,,,,1,,,48,77
16896,note_on,,,,,0,0,2,,,,,1,,,55,121
16896,note_on,,,,,1088,0,2,,,,,1,,,31,121
16924,note_off,,,,,28,0,2,,,,,1,,,31,77
16924,note_off,,,,,0,0,2,,,,,1,,,55,77
16992,note_on,,,,,0,0,2,,,,,1,,,57,121
16992,note_on,,,,,68,0,2,,,,,1,,,33,121
17020,note_off,,,,,0,0,2,,,,,1,,,57,77
17020,note_off,,,,,28,0,2,,,,,1,,,33,77
17088,note_on,,,,,0,0,2,,,,,1,,,59,121
17088,note_on,,,,,68,0,2,,,,,1,,,35,121
17116,note_off,,,,,28,0,2,,,,,1,,,35,77
17116,note_off,,,,,0,0,2,,,,,1,,,59,77
17280,note_on,,,,,0,0,2,,,,,1,,,48,121
17280,note_on,,,,,0,0,2,,,,,1,,,60,121
17280,note_on,,,,,164,0,2,,,,,1,,,36,121
17308,note_off,,,,,0,0,2,,,,,1,,,60,77
17308,note_off,,,,,0,0,2,,,,,1,,,48,77
17308,note_off,,,,,28,0,2,,,,,1,,,36,77
17472,note_on,,,,,0,0,2,,,,,1,,,55,121
17472,note_on,,,,,164,0,2,,,,,1,,,31,121
17500,note_off,,,,,28,0,2,,,,,1,,,31,77
17500,note_off,,,,,0,0,2,,,,,1,,,55,77
17568,note_on,,,,,0,0,2,,,,,1,,,57,121
17568,note_on,,,,,68,0,2,,,,,1,,,33,121
17596,note_off,,,,,28,0,2,,,,,1,,,33,77
17596,note_off,,,,,0,0,2,,,,,1,,,57,77
17664,note_on,,,,,0,0,2,,,,,1,,,59,121
17664,note_on,,,,,68,0,2,,,,,1,,,35,121
17692,note_off,,,,,0,0,2,,,,,1,,,59,77
17692,note_off,,,,,28,0,2,,,,,1,,,35,77
17856,note_on,,,,,0,0,2,,,,,1,,,36,121
17856,note_on,,,,,0,0,2,,,,,1,,,48,121
17856,note_on,,,,,164,0,2,,,,,1,,,60,121
17916,note_off,,,,,0,0,2,,,,,1,,,36,77
17916,note_off,,,,,60,0,2,,,,,1,,,60,77
17916,note_off,,,,,0,0,2,,,,,1,,,48,77
18048,note_on,,,,,0,0,2,,,,,1,,,57,121
18048,note_on,,,,,132,0,2,,,,,1,,,33,121
18076,note_off,,,,,0,0,2,,,,,1,,,57,77
18076,note_off,,,,,28,0,2,,,,,1,,,33,77
18144,note_on,,,,,0,0,2,,,,,1,,,59,121
18144,note_on,,,,,68,0,2,,,,,1,,,35,121
18172,note_off,,,,,0,0,2,,,,,1,,,59,77
18172,note_off,,,,,28,0,2,,,,,1,,,35,77
18240,note_on,,,,,0,0,2,,,,,1,,,60,121
18240,note_on,,,,,68,0,2,,,,,1,,,36,121
18268,note_off,,,,,0,0,2,,,,,1,,,60,77
18268,note_off,,,,,28,0,2,,,,,1,,,36,77
18432,note_on,,,,,3200,0,1,,,,,0,,,62,121
18432,note_on,,,,,164,0,2,,,,,1,,,50,121
18432,note_on,,,,,0,0,2,,,,,1,,,38,121
18492,note_off,,,,,60,0,2,,,,,1,,,50,77
18492,note_off,,,,,0,0,2,,,,,1,,,38,77
18492,note_off,,,,,60,0,1,,,,,0,,,62,77
18624,note_on,,,,,132,0,1,,,,,0,,,59,121
18624,note_on,,,,,132,0,2,,,,,1,,,35,121
18652,note_off,,,,,28,0,2,,,,,1,,,35,77
18652,note_off,,,,,28,0,1,,,,,0,,,59,77
18720,note_on,,,,,68,0,1,,,,,0,,,60,121
18720,note_on,,,,,68,0,2,,,,,1,,,36,121
18748,note_off,,,,,28,0,2,,,,,1,,,36,77
18748,note_off,,,,,28,0,1,,,,,0,,,60,77
18816,note_on,,,,,68,0,1,,,,,0,,,62,121
18816,note_on,,,,,68,0,2,,,,,1,,,38,121
18844,note_off,,,,,28,0,2,,,,,1,,,38,77
18844,note_off,,,,,28,0,1,,,,,0,,,62,77
19008,note_on,,,,,0,0,2,,,,,1,,,40,121
19008,note_on,,,,,164,0,1,,,,,0,,,64,121
19008,note_on,,,,,164,0,2,,,,,1,,,52,121
19068,note_off,,,,,0,0,2,,,,,1,,,40,77
19068,note_off,,,,,60,0,2,,,,,1,,,52,77
19068,note_off,,,,,60,0,1,,,,,0,,,64,77
19488,note_on,,,,,420,0,2,,,,,1,,,39,121
19548,note_off,,,,,60,0,2,,,,,1,,,39,77
19584,note_on,,,,,36,0,2,,,,,1,,,40,121
19644,note_off,,,,,60,0,2,,,,,1,,,40,77
19776,note_on,,,,,132,0,2,,,,,1,,,40,121
19836,note_off,,,,,60,0,2,,,,,1,,,40,77
19968,note_on,,,,,132,0,2,,,,,1,,,40,121
20028,note_off,,,,,60,0,2,,,,,1,,,40,77
20160,note_on,,,,,132,0,2,,,,,1,,,40,121
20220,note_off,,,,,60,0,2,,,,,1,,,40,77
20352,note_on,,,,,132,0,2,,,,,1,,,40,121
20412,note_off,,,,,60,0,2,,,,,1,,,40,77
20544,note_on,,,,,132,0,2,,,,,1,,,40,121
20604,note_off,,,,,60,0,2,,,,,1,,,40,77
20640,note_on,,,,,36,0,2,,,,,1,,,39,121
20700,note_off,,,,,60,0,2,,,,,1,,,39,77
20736,note_on,,,,,36,0,2,,,,,1,,,40,121
20796,note_off,,,,,60,0,2,,,,,1,,,40,77
20928,note_on,,,,,132,0,2,,,,,1,,,40,121
20988,note_off,,,,,60,0,2,,,,,1,,,40,77
21120,note_on,,,,,132,0,2,,,,,1,,,40,121
21180,note_off,,,,,60,0,2,,,,,1,,,40,77
21216,note_on,,,,,36,0,2,,,,,1,,,39,121
21276,note_off,,,,,60,0,2,,,,,1,,,39,77
21312,note_on,,,,,36,0,2,,,,,1,,,40,121
21372,note_off,,,,,60,0,2,,,,,1,,,40,77
21504,note_on,,,,,132,0,2,,,,,1,,,40,121
21564,note_off,,,,,60,0,2,,,,,1,,,40,77
21696,note_on,,,,,132,0,2,,,,,1,,,40,121
21756,note_off,,,,,60,0,2,,,,,1,,,40,77
21792,note_on,,,,,36,0,2,,,,,1,,,46,121
21852,note_off,,,,,60,0,2,,,,,1,,,46,77
21888,note_on,,,,,0,0,2,,,,,1,,,40,121
21888,note_on,,,,,36,0,2,,,,,1,,,47,121
21948,note_off,,,,,0,0,2,,,,,1,,,40,77
21948,note_off,,,,,60,0,2,,,,,1,,,47,77
22080,note_on,,,,,132,0,2,,,,,1,,,47,121
22080,note_on,,,,,0,0,2,,,,,1,,,40,121
22140,note_off,,,,,60,0,2,,,,,1,,,47,77
22140,note_off,,,,,0,0,2,,,,,1,,,40,77
22272,note_on,,,,,0,0,2,,,,,1,,,40,121
22272,note_on,,,,,132,0,2,,,,,1,,,47,121
22332,note_off,,,,,0,0,2,,,,,1,,,40,77
22332,note_off,,,,,60,0,2,,,,,1,,,47,77
22464,note_on,,,,,132,0,2,,,,,1,,,47,121
22464,note_on,,,,,0,0,2,,,,,1,,,40,121
22524,note_off,,,,,0,0,2,,,,,1,,,40,77
22524,note_off,,,,,60,0,2,,,,,1,,,47,77
22656,note_on,,,,,132,0,2,,,,,1,,,47,121
22656,note_on,,,,,0,0,2,,,,,1,,,40,121
22716,note_off,,,,,0,0,2,,,,,1,,,40,77
22716,note_off,,,,,60,0,2,,,,,1,,,47,77
22848,note_on,,,,,132,0,2,,,,,1,,,47,121
22848,note_on,,,,,0,0,2,,,,,1,,,40,121
22908,note_off,,,,,60,0,2,,,,,1,,,47,77
22908,note_off,,,,,0,0,2,,,,,1,,,40,77
22944,note_on,,,,,36,0,2,,,,,1,,,46,121
23004,note_off,,,,,60,0,2,,,,,1,,,46,77
23040,note_on,,,,,36,0,2,,,,,1,,,47,121
23040,note_on,,,,,0,0,2,,,,,1,,,40,121
23100,note_off,,,,,0,0,2,,,,,1,,,40,77
23100,note_off,,,,,60,0,2,,,,,1,,,47,77
23232,note_on,,,,,0,0,2,,,,,1,,,40,121
23232,note_on,,,,,132,0,2,,,,,1,,,47,121
23292,note_off,,,,,0,0,2,,,,,1,,,40,77
23292,note_off,,,,,60,0,2,,,,,1,,,47,77
23424,note_on,,,,,132,0,2,,,,,1,,,47,121
23424,note_on,,,,,0,0,2,,,,,1,,,40,121
23484,note_off,,,,,0,0,2,,,,,1,,,40,77
23484,note_off,,,,,60,0,2,,,,,1,,,47,77
23520,note_on,,,,,36,0,2,,,,,1,,,46,121
23580,note_off,,,,,60,0,2,,,,,1,,,46,77
23616,note_on,,,,,36,0,2,,,,,1,,,47,121
23616,note_on,,,,,0,0,2,,,,,1,,,40,121
23676,note_off,,,,,0,0,2,,,,,1,,,40,77
23676,note_off,,,,,60,0,2,,,,,1,,,47,77
23808,note_on,,,,,0,0,2,,,,,1,,,40,121
23808,note_on,,,,,132,0,2,,,,,1,,,47,121
23868,note_off,,,,,0,0,2,,,,,1,,,40,77
23868,note_off,,,,,60,0,2,,,,,1,,,47,77
24000,note_on,,,,,0,0,2,,,,,1,,,40,121
24000,note_on,,,,,132,0,2,,,,,1,,,47,121
24060,note_off,,,,,60,0,2,,,,,1,,,47,77
24060,note_off,,,,,0,0,2,,,,,1,,,40,77
24096,note_on,,,,,36,0,2,,,,,1,,,53,121
24156,note_off,,,,,60,0,2,,,,,1,,,53,77
24192,note_on,,,,,0,0,2,,,,,1,,,40,121
24192,note_on,,,,,36,0,2,,,,,1,,,54,121
24192,note_on,,,,,0,0,2,,,,,1,,,47,121
24252,note_off,,,,,60,0,2,,,,,1,,,54,77
24252,note_off,,,,,0,0,2,,,,,1,,,47,77
24252,note_off,,,,,0,0,2,,,,,1,,,40,77
24384,note_on,,,,,0,0,2,,,,,1,,,47,121
24384,note_on,,,,,132,0,2,,,,,1,,,54,121
24384,note_on,,,,,0,0,2,,,,,1,,,40,121
24444,note_off,,,,,0,0,2,,,,,1,,,47,77
24444,note_off,,,,,0,0,2,,,,,1,,,40,77
24444,note_off,,,,,60,0,2,,,,,1,,,54,77
24576,note_on,,,,,0,0,2,,,,,1,,,40,121
24576,note_on,,,,,0,0,2,,,,,1,,,47,121
24576,note_on,,,,,132,0,2,,,,,1,,,54,121
24636,note_off,,,,,0,0,2,,,,,1,,,40,77
24636,note_off,,,,,60,0,2,,,,,1,,,54,77
24636,note_off,,,,,0,0,2,,,,,1,,,47,77
24768,note_on,,,,,0,0,2,,,,,1,,,47,121
24768,note_on,,,,,0,0,2,,,,,1,,,40,121
24768,note_on,,,,,132,0,2,,,,,1,,,54,121
24828,note_off,,,,,60,0,2,,,,,1,,,54,77
24828,note_off,,,,,0,0,2,,,,,1,,,40,77
24828,note_off,,,,,0,0,2,,,,,1,,,47,77
24960,note_on,,,,,0,0,2,,,,,1,,,47,121
24960,note_on,,,,,0,0,2,,,,,1,,,40,121
24960,note_on,,,,,132,0,2,,,,,1,,,54,121
25020,note_off,,,,,60,0,2,,,,,1,,,54,77
25020,note_off,,,,,0,0,2,,,,,1,,,47,77
25020,note_off,,,,,0,0,2,,,,,1,,,40,77
25152,note_on,,,,,132,0,2,,,,,1,,,54,121
25152,note_on,,,,,0,0,2,,,,,1,,,47,121
25152,note_on,,,,,0,0,2,,,,,1,,,40,121
25212,note_off,,,,,60,0,2,,,,,1,,,54,77
25212,note_off,,,,,0,0,2,,,,,1,,,40,77
25212,note_off,,,,,0,0,2,,,,,1,,,47,77
25248,note_on,,,,,36,0,2,,,,,1,,,53,121
25308,note_off,,,,,60,0,2,,,,,1,,,53,77
25344,note_on,,,,,36,0,2,,,,,1,,,40,121
25344,note_on,,,,,0,0,2,,,,,1,,,61,121
25344,note_on,,,,,0,0,2,,,,,1,,,54,121
25344,note_on,,,,,0,0,2,,,,,1,,,47,121
25404,note_off,,,,,0,0,2,,,,,1,,,54,77
25404,note_off,,,,,0,0,2,,,,,1,,,61,77
25404,note_off,,,,,0,0,2,,,,,1,,,47,77
25404,note_off,,,,,60,0,2,,,,,1,,,40,77
25536,note_on,,,,,0,0,2,,,,,1,,,61,121
25536,note_on,,,,,0,0,2,,,,,1,,,54,121
25536,note_on,,,,,132,0,2,,,,,1,,,40,121
25536,note_on,,,,,0,0,2,,,,,1,,,47,121
25596,note_off,,,,,0,0,2,,,,,1,,,61,77
25596,note_off,,,,,0,0,2,,,,,1,,,47,77
25596,note_off,,,,,0,0,2,,,,,1,,,54,77
25596,note_off,,,,,60,0,2,,,,,1,,,40,77
25728,note_on,,,,,0,0,2,,,,,1,,,61,121
25728,note_on,,,,,132,0,2,,,,,1,,,40,121
25728,note_on,,,,,0,0,2,,,,,1,,,47,121
25728,note_on,,,,,0,0,2,,,,,1,,,54,121
25788,note_off,,,,,60,0,2,,,,,1,,,40,77
25788,note_off,,,,,0,0,2,,,,,1,,,47,77
25788,note_off,,,,,0,0,2,,,,,1,,,54,77
25788,note_off,,,,,0,0,2,,,,,1,,,61,77
25920,note_on,,,,,132,0,2,,,,,1,,,61,121
25920,note_on,,,,,0,0,2,,,,,1,,,54,121
25920,note_on,,,,,0,0,2,,,,,1,,,47,121
25920,note_on,,,,,0,0,2,,,,,1,,,40,121
25980,note_off,,,,,0,0,2,,,,,1,,,40,77
25980,note_off,,,,,0,0,2,,,,,1,,,47,77
25980,note_off,,,,,0,0,2,,,,,1,,,54,77
25980,note_off,,,,,60,0,2,,,,,1,,,61,77
26112,note_on,,,,,0,0,2,,,,,1,,,54,121
26112,note_on,,,,,132,0,2,,,,,1,,,61,121
26112,note_on,,,,,0,0,2,,,,,1,,,47,121
26112,note_on,,,,,0,0,2,,,,,1,,,40,121
26172,note_off,,,,,60,0,2,,,,,1,,,61,77
26172,note_off,,,,,0,0,2,,,,,1,,,40,77
26172,note_off,,,,,0,0,2,,,,,1,,,47,77
26172,note_off,,,,,0,0,2,,,,,1,,,54,77
26304,note_on,,,,,0,0,2,,,,,1,,,40,121
26304,note_on,,,,,0,0,2,,,,,1,,,47,121
26304,note_on,,,,,0,0,2,,,,,1,,,54,121
26304,note_on,,,,,132,0,2,,,,,1,,,61,121
26364,note_off,,,,,0,0,2,,,,,1,,,40,77
26364,note_off,,,,,0,0,2,,,,,1,,,47,77
26364,note_off,,,,,0,0,2,,,,,1,,,54,77
26364,note_off,,,,,60,0,2,,,,,1,,,61,77
26400,note_on,,,,,7332,0,1,,,,,0,,,60,121
26460,note_off,,,,,60,0,1,,,,,0,,,60,77
26496,note_on,,,,,36,0,1,,,,,0,,,69,121
26496,note_on,,,,,0,0,1,,,,,0,,,61,121
26496,note_on,,,,,0,0,2,,,,,1,,,47,121
26496,note_on,,,,,0,0,2,,,,,1,,,40,121
26496,note_on,,,,,132,0,2,,,,,1,,,54,121
26556,note_off,,,,,0,0,2,,,,,1,,,40,77
26556,note_off,,,,,60,0,2,,,,,1,,,54,77
26556,note_off,,,,,60,0,1,,,,,0,,,69,77
26556,note_off,,,,,0,0,1,,,,,0,,,61,77
26556,note_off,,,,,0,0,2,,,,,1,,,47,77
26688,note_on,,,,,0,0,1,,,,,0,,,61,121
26688,note_on,,,,,132,0,1,,,,,0,,,69,121
26688,note_on,,,,,0,0,2,,,,,1,,,40,121
26688,note_on,,,,,0,0,2,,,,,1,,,47,121
26688,note_on,,,,,132,0,2,,,,,1,,,54,121
26748,note_off,,,,,0,0,2,,,,,1,,,40,77
26748,note_off,,,,,0,0,2,,,,,1,,,47,77
26748,note_off,,,,,0,0,1,,,,,0,,,61,77
26748,note_off,,,,,60,0,1,,,,,0,,,69,77
26748,note_off,,,,,60,0,2,,,,,1,,,54,77
26880,note_on,,,,,132,0,2,,,,,1,,,54,121
26880,note_on,,,,,132,0,1,,,,,0,,,69,121
26880,note_on,,,,,0,0,2,,,,,1,,,40,121
26880,note_on,,,,,0,0,1,,,,,0,,,61,121
26880,note_on,,,,,0,0,2,,,,,1,,,47,121
26940,note_off,,,,,0,0,2,,,,,1,,,40,77
26940,note_off,,,,,0,0,2,,,,,1,,,47,77
26940,note_off,,,,,60,0,2,,,,,1,,,54,77
26940,note_off,,,,,60,0,1,,,,,0,,,69,77
26940,note_off,,,,,0,0,1,,,,,0,,,61,77
27072,note_on,,,,,0,0,2,,,,,1,,,40,121
27072,note_on,,,,,132,0,1,,,,,0,,,69,121
27072,note_on,,,,,132,0,2,,,,,1,,,54,121
27072,note_on,,,,,0,0,2,,,,,1,,,47,121
27072,note_on,,,,,0,0,1,,,,,0,,,61,121
27132,note_off,,,,,60,0,2,,,,,1,,,54,77
27132,note_off,,,,,0,0,1,,,,,0,,,61,77
27132,note_off,,,,,0,0,2,,,,,1,,,47,77
27132,note_off,,,,,0,0,2,,,,,1,,,40,77
27132,note_off,,,,,60,0,1,,,,,0,,,69,77
27264,note_on,,,,,132,0,2,,,,,1,,,54,121
27264,note_on,,,,,132,0,1,,,,,0,,,69,121
27264,note_on,,,,,0,0,2,,,,,1,,,40,121
27264,note_on,,,,,0,0,2,,,,,1,,,47,121
27264,note_on,,,,,0,0,1,,,,,0,,,61,121
27324,note_off,,,,,0,0,2,,,,,1,,,47,77
27324,note_off,,,,,0,0,1,,,,,0,,,61,77
27324,note_off,,,,,60,0,2,,,,,1,,,54,77
27324,note_off,,,,,0,0,2,,,,,1,,,40,77
27324,note_off,,,,,60,0,1,,,,,0,,,69,77
27456,note_on,,,,,0,0,2,,,,,1,,,40,121
27456,note_on,,,,,0,0,1,,,,,0,,,61,121
27456,note_on,,,,,132,0,1,,,,,0,,,69,121
27456,note_on,,,,,0,0,2,,,,,1,,,47,121
27456,note_on,,,,,132,0,2,,,,,1,,,54,121
27516,note_off,,,,,60,0,2,,,,,1,,,54,77
27516,note_off,,,,,0,0,1,,,,,0,,,61,77
27516,note_off,,,,,0,0,2,,,,,1,,,40,77
27516,note_off,,,,,0,0,2,,,,,1,,,47,77
27516,note_off,,,,,60,0,1,,,,,0,,,69,77
27552,note_on,,,,,36,0,1,,,,,0,,,61,121
27612,note_off,,,,,60,0,1,,,,,0,,,61,77
27648,note_on,,,,,0,0,2,,,,,1,,,47,121
27648,note_on,,,,,0,0,1,,,,,0,,,62,121
27648,note_on,,,,,0,0,2,,,,,1,,,40,121
27648,note_on,,,,,36,0,1,,,,,0,,,69,121
27648,note_on,,,,,132,0,2,,,,,1,,,54,121
27708,note_off,,,,,60,0,2,,,,,1,,,54,77
27708,note_off,,,,,0,0,1,,,,,0,,,62,77
27708,note_off,,,,,60,0,1,,,,,0,,,69,77
27708,note_off,,,,,0,0,2,,,,,1,,,47,77
27708,note_off,,,,,0,0,2,,,,,1,,,40,77
27840,note_on,,,,,132,0,2,,,,,1,,,54,121
27840,note_on,,,,,0,0,2,,,,,1,,,40,121
27840,note_on,,,,,0,0,2,,,,,1,,,47,121
27840,note_on,,,,,0,0,1,,,,,0,,,62,121
27840,note_on,,,,,132,0,1,,,,,0,,,69,121
27900,note_off,,,,,0,0,2,,,,,1,,,47,77
27900,note_off,,,,,0,0,2,,,,,1,,,40,77
27900,note_off,,,,,60,0,2,,,,,1,,,54,77
27900,note_off,,,,,0,0,1,,,,,0,,,62,77
27900,note_off,,,,,60,0,1,,,,,0,,,69,77
28032,note_on,,,,,132,0,2,,,,,1,,,54,121
28032,note_on,,,,,0,0,2,,,,,1,,,40,121
28032,note_on,,,,,132,0,1,,,,,0,,,69,121
28032,note_on,,,,,0,0,1,,,,,0,,,62,121
28032,note_on,,,,,0,0,2,,,,,1,,,47,121
28092,note_off,,,,,0,0,2,,,,,1,,,47,77
28092,note_off,,,,,0,0,2,,,,,1,,,40,77
28092,note_off,,,,,0,0,1,,,,,0,,,62,77
28092,note_off,,,,,60,0,2,,,,,1,,,54,77
28092,note_off,,,,,60,0,1,,,,,0,,,69,77
28224,note_on,,,,,0,0,2,,,,,1,,,47,121
28224,note_on,,,,,0,0,2,,,,,1,,,40,121
28224,note_on,,,,,0,0,1,,,,,0,,,62,121
28224,note_on,,,,,132,0,2,,,,,1,,,54,121
28224,note_on,,,,,132,0,1,,,,,0,,,69,121
28284,note_off,,,,,0,0,2,,,,,1,,,40,77
28284,note_off,,,,,60,0,2,,,,,1,,,54,77
28284,note_off,,,,,60,0,1,,,,,0,,,69,77
28284,note_off,,,,,0,0,2,,,,,1,,,47,77
28284,note_off,,,,,0,0,1,,,,,0,,,62,77
28416,note_on,,,,,132,0,1,,,,,0,,,62,121
28416,note_on,,,,,132,0,2,,,,,1,,,54,121
28416,note_on,,,,,0,0,2,,,,,1,,,40,121
28416,note_on,,,,,0,0,2,,,,,1,,,47,121
28476,note_off,,,,,60,0,2,,,,,1,,,54,77
28476,note_off,,,,,60,0,1,,,,,0,,,62,77
28476,note_off,,,,,0,0,2,,,,,1,,,47,77
28476,note_off,,,,,0,0,2,,,,,1,,,40,77
28608,note_on,,,,,0,0,2,,,,,1,,,47,121
28608,note_on,,,,,0,0,2,,,,,1,,,40,121
28608,note_on,,,,,132,0,1,,,,,0,,,62,121
28608,note_on,,,,,0,0,1,,,,,0,,,69,121
28608,note_on,,,,,132,0,2,,,,,1,,,54,121
28668,note_off,,,,,60,0,1,,,,,0,,,62,77
28668,note_off,,,,,0,0,2,,,,,1,,,40,77
28668,note_off,,,,,0,0,2,,,,,1,,,47,77
28668,note_off,,,,,0,0,1,,,,,0,,,69,77
28668,note_off,,,,,60,0,2,,,,,1,,,54,77
28800,note_on,,,,,0,0,1,,,,,0,,,62,121
28800,note_on,,,,,0,0,2,,,,,1,,,40,121
28800,note_on,,,,,0,0,1,,,,,0,,,69,121
28800,note_on,,,,,0,0,1,,,,,0,,,62,121
28800,note_on,,,,,0,0,1,,,,,0,,,76,121
28800,note_on,,,,,132,0,1,,,,,0,,,69,121
28800,note_on,,,,,0,0,1,,,,,0,,,76,121
28800,note_on,,,,,0,0,2,,,,,1,,,47,121
28800,note_on,,,,,132,0,2,,,,,1,,,54,121
28860,note_off,,,,,60,0,1,,,,,0,,,76,77
28860,note_off,,,,,0,0,2,,,,,1,,,47,77
28860,note_off,,,,,0,0,2,,,,,1,,,40,77
28860,note_off,,,,,60,0,2,,,,,1,,,54,77
28924,note_off,,,,,0,0,1,,,,,0,,,62,77
28924,note_off,,,,,64,0,1,,,,,0,,,69,77
28992,note_on,,,,,132,0,2,,,,,1,,,54,121
28992,note_on,,,,,0,0,2,,,,,1,,,47,121
28992,note_on,,,,,0,0,2,,,,,1,,,40,121
29052,note_off,,,,,0,0,2,,,,,1,,,47,77
29052,note_off,,,,,0,0,2,,,,,1,,,40,77
29052,note_off,,,,,60,0,2,,,,,1,,,54,77
29056,note_off,,,,,132,0,1,,,,,0,,,76,77
29056,note_off,,,,,0,0,1,,,,,0,,,62,77
29056,note_off,,,,,0,0,1,,,,,0,,,69,77
29184,note_on,,,,,0,0,2,,,,,1,,,47,121
29184,note_on,,,,,0,0,2,,,,,1,,,40,121
29184,note_on,,,,,132,0,2,,,,,1,,,54,121
29184,note_on,,,,,0,0,1,,,,,0,,,69,121
29184,note_on,,,,,128,0,1,,,,,0,,,62,121
29244,note_off,,,,,0,0,2,,,,,1,,,47,77
29244,note_off,,,,,60,0,2,,,,,1,,,54,77
29244,note_off,,,,,0,0,1,,,,,0,,,69,77
29244,note_off,,,,,60,0,1,,,,,0,,,62,77
29244,note_off,,,,,0,0,2,,,,,1,,,40,77
29376,note_on,,,,,0,0,2,,,,,1,,,47,121
29376,note_on,,,,,132,0,2,,,,,1,,,54,121
29376,note_on,,,,,0,0,2,,,,,1,,,40,121
29436,note_off,,,,,0,0,2,,,,,1,,,40,77
29436,note_off,,,,,0,0,2,,,,,1,,,47,77
29436,note_off,,,,,60,0,2,,,,,1,,,54,77
29568,note_on,,,,,0,0,2,,,,,1,,,40,121
29568,note_on,,,,,132,0,2,,,,,1,,,54,121
29568,note_on,,,,,0,0,2,,,,,1,,,47,121
29568,note_on,,,,,324,0,1,,,,,0,,,62,121
29628,note_off,,,,,60,0,2,,,,,1,,,54,77
29628,note_off,,,,,0,0,2,,,,,1,,,40,77
29628,note_off,,,,,0,0,2,,,,,1,,,47,77
29628,note_off,,,,,60,0,1,,,,,0,,,62,77
29760,note_on,,,,,132,0,2,,,,,1,,,54,121
29760,note_on,,,,,0,0,1,,,,,0,,,69,121
29760,note_on,,,,,132,0,1,,,,,0,,,62,121
29760,note_on,,,,,0,0,2,,,,,1,,,47,121
29760,note_on,,,,,0,0,2,,,,,1,,,40,121
29820,note_off,,,,,0,0,1,,,,,0,,,69,77
29820,note_off,,,,,60,0,1,,,,,0,,,62,77
29820,note_off,,,,,0,0,2,,,,,1,,,47,77
29820,note_off,,,,,60,0,2,,,,,1,,,54,77
29820,note_off,,,,,0,0,2,,,,,1,,,40,77
29952,note_on,,,,,132,0,2,,,,,1,,,54,121
29952,note_on,,,,,0,0,2,,,,,1,,,40,121
29952,note_on,,,,,0,0,2,,,,,1,,,47,121
29952,note_on,,,,,0,0,1,,,,,0,,,76,121
29952,note_on,,,,,0,0,1,,,,,0,,,76,121
29952,note_on,,,,,0,0,1,,,,,0,,,62,121
29952,note_on,,,,,0,0,1,,,,,0,,,62,121
29952,note_on,,,,,132,0,1,,,,,0,,,69,121
29952,note_on,,,,,0,0,1,,,,,0,,,69,121
30012,note_off,,,,,0,0,2,,,,,1,,,40,77
30012,note_off,,,,,0,0,2,,,,,1,,,47,77
30012,note_off,,,,,60,0,2,,,,,1,,,54,77
30076,note_off,,,,,124,0,1,,,,,0,,,69,77
30076,note_off,,,,,0,0,1,,,,,0,,,62,77
30080,note_off,,,,,4,0,1,,,,,0,,,76,77
30144,note_on,,,,,0,0,2,,,,,1,,,47,121
30144,note_on,,,,,0,0,2,,,,,1,,,40,121
30144,note_on,,,,,64,0,1,,,,,0,,,62,121
30144,note_on,,,,,132,0,2,,,,,1,,,54,121
30204,note_off,,,,,60,0,1,,,,,0,,,62,77
30204,note_off,,,,,60,0,2,,,,,1,,,54,77
30204,note_off,,,,,0,0,2,,,,,1,,,40,77
30204,note_off,,,,,0,0,2,,,,,1,,,47,77
30208,note_off,,,,,0,0,1,,,,,0,,,69,77
30208,note_off,,,,,4,0,1,,,,,0,,,76,77
30208,note_off,,,,,0,0,1,,,,,0,,,62,77
30336,note_on,,,,,132,0,2,,,,,1,,,54,121
30336,note_on,,,,,0,0,1,,,,,0,,,69,121
30336,note_on,,,,,128,0,1,,,,,0,,,62,121
30336,note_on,,,,,0,0,2,,,,,1,,,40,121
30336,note_on,,,,,0,0,2,,,,,1,,,47,121
30396,note_off,,,,,60,0,2,,,,,1,,,54,77
30396,note_off,,,,,60,0,1,,,,,0,,,62,77
30396,note_off,,,,,0,0,2,,,,,1,,,40,77
30396,note_off,,,,,0,0,1,,,,,0,,,69,77
30396,note_off,,,,,0,0,2,,,,,1,,,47,77
30528,note_on,,,,,132,0,1,,,,,0,,,62,121
30528,note_on,,,,,0,0,1,,,,,0,,,69,121
30528,note_on,,,,,132,0,2,,,,,1,,,54,121
30528,note_on,,,,,0,0,2,,,,,1,,,40,121
30528,note_on,,,,,0,0,1,,,,,0,,,76,121
30528,note_on,,,,,0,0,1,,,,,0,,,69,121
30528,note_on,,,,,0,0,1,,,,,0,,,76,121
30528,note_on,,,,,0,0,2,,,,,1,,,47,121
30528,note_on,,,,,0,0,1,,,,,0,,,62,121
30588,note_off,,,,,0,0,2,,,,,1,,,40,77
30588,note_off,,,,,0,0,2,,,,,1,,,47,77
30588,note_off,,,,,60,0,2,,,,,1,,,54,77
30652,note_off,,,,,0,0,1,,,,,0,,,76,77
30652,note_off,,,,,0,0,1,,,,,0,,,69,77
30652,note_off,,,,,124,0,1,,,,,0,,,62,77
30720,note_on,,,,,132,0,2,,,,,1,,,54,121
30720,note_on,,,,,0,0,2,,,,,1,,,47,121
30720,note_on,,,,,0,0,2,,,,,1,,,40,121
30780,note_off,,,,,60,0,2,,,,,1,,,54,77
30780,note_off,,,,,0,0,2,,,,,1,,,40,77
30780,note_off,,,,,0,0,2,,,,,1,,,47,77
30784,note_off,,,,,0,0,1,,,,,0,,,69,77
30784,note_off,,,,,0,0,1,,,,,0,,,62,77
30784,note_off,,,,,132,0,1,,,,,0,,,76,77
30912,note_on,,,,,128,0,1,,,,,0,,,62,121
30912,note_on,,,,,0,0,2,,,,,1,,,40,121
30912,note_on,,,,,132,0,2,,,,,1,,,54,121
30912,note_on,,,,,0,0,1,,,,,0,,,69,121
30912,note_on,,,,,0,0,2,,,,,1,,,47,121
30972,note_off,,,,,60,0,2,,,,,1,,,54,77
30972,note_off,,,,,0,0,1,,,,,0,,,69,77
30972,note_off,,,,,0,0,2,,,,,1,,,47,77
30972,note_off,,,,,60,0,1,,,,,0,,,62,77
30972,note_off,,,,,0,0,2,,,,,1,,,40,77
31104,note_on,,,,,132,0,2,,,,,1,,,54,121
31104,note_on,,,,,132,0,1,,,,,0,,,62,121
31104,note_on,,,,,0,0,1,,,,,0,,,76,121
31104,note_on,,,,,0,0,2,,,,,1,,,40,121
31104,note_on,,,,,0,0,2,,,,,1,,,47,121
31104,note_on,,,,,0,0,1,,,,,0,,,76,121
31104,note_on,,,,,0,0,1,,,,,0,,,69,121
31104,note_on,,,,,0,0,1,,,,,0,,,69,121
31104,note_on,,,,,0,0,1,,,,,0,,,62,121
31164,note_off,,,,,0,0,2,,,,,1,,,40,77
31164,note_off,,,,,60,0,2,,,,,1,,,54,77
31164,note_off,,,,,0,0,2,,,,,1,,,47,77
31228,note_off,,,,,0,0,1,,,,,0,,,69,77
31228,note_off,,,,,0,0,1,,,,,0,,,76,77
31228,note_off,,,,,124,0,1,,,,,0,,,62,77
31296,note_on,,,,,0,0,2,,,,,1,,,40,121
31296,note_on,,,,,132,0,2,,,,,1,,,54,121
31296,note_on,,,,,0,0,2,,,,,1,,,47,121
31356,note_off,,,,,60,0,2,,,,,1,,,54,77
31356,note_off,,,,,0,0,2,,,,,1,,,47,77
31356,note_off,,,,,0,0,2,,,,,1,,,40,77
31360,note_off,,,,,0,0,1,,,,,0,,,62,77
31360,note_off,,,,,0,0,1,,,,,0,,,69,77
31360,note_off,,,,,132,0,1,,,,,0,,,76,77
31488,note_on,,,,,132,0,2,,,,,1,,,54,121
31488,note_on,,,,,128,0,1,,,,,0,,,62,121
31488,note_on,,,,,0,0,2,,,,,1,,,47,121
31488,note_on,,,,,0,0,2,,,,,1,,,40,121
31488,note_on,,,,,0,0,1,,,,,0,,,69,121
31548,note_off,,,,,0,0,2,,,,,1,,,47,77
31548,note_off,,,,,0,0,1,,,,,0,,,69,77
31548,note_off,,,,,60,0,2,,,,,1,,,54,77
31548,note_off,,,,,0,0,2,,,,,1,,,40,77
31548,note_off,,,,,60,0,1,,,,,0,,,62,77
31680,note_on,,,,,0,0,2,,,,,1,,,47,121
31680,note_on,,,,,0,0,2,,,,,1,,,54,121
31680,note_on,,,,,0,0,1,,,,,0,,,62,121
31680,note_on,,,,,0,0,1,,,,,0,,,69,121
31680,note_on,,,,,0,0,1,,,,,0,,,69,121
31680,note_on,,,,,132,0,1,,,,,0,,,62,121
31680,note_on,,,,,132,0,2,,,,,1,,,40,121
31740,note_off,,,,,60,0,2,,,,,1,,,40,77
31740,note_off,,,,,0,0,2,,,,,1,,,47,77
31740,note_off,,,,,0,0,2,,,,,1,,,54,77
31804,note_off,,,,,124,0,1,,,,,0,,,62,77
31804,note_off,,,,,0,0,1,,,,,0,,,69,77
31872,note_on,,,,,0,0,2,,,,,1,,,54,121
31872,note_on,,,,,0,0,2,,,,,1,,,47,121
31872,note_on,,,,,132,0,2,,,,,1,,,40,121
31932,note_off,,,,,0,0,2,,,,,1,,,47,77
31932,note_off,,,,,60,0,2,,,,,1,,,40,77
31932,note_off,,,,,0,0,2,,,,,1,,,54,77
31936,note_off,,,,,0,0,1,,,,,0,,,62,77
31936,note_off,,,,,132,0,1,,,,,0,,,69,77
32064,note_on,,,,,0,0,1,,,,,0,,,62,121
32064,note_on,,,,,128,0,1,,,,,0,,,55,121
32064,note_on,,,,,132,0,2,,,,,1,,,40,121
32064,note_on,,,,,0,0,2,,,,,1,,,47,121
32124,note_off,,,,,60,0,2,,,,,1,,,40,77
32124,note_off,,,,,60,0,1,,,,,0,,,55,77
32124,note_off,,,,,0,0,1,,,,,0,,,62,77
32124,note_off,,,,,0,0,2,,,,,1,,,47,77
32256,note_on,,,,,0,0,1,,,,,0,,,62,121
32256,note_on,,,,,0,0,2,,,,,1,,,54,121
32256,note_on,,,,,0,0,1,,,,,0,,,62,121
32256,note_on,,,,,0,0,2,,,,,1,,,47,121
32256,note_on,,,,,132,0,2,,,,,1,,,40,121
32256,note_on,,,,,132,0,1,,,,,0,,,69,121
32256,note_on,,,,,0,0,1,,,,,0,,,69,121
32316,note_off,,,,,0,0,2,,,,,1,,,47,77
32316,note_off,,,,,60,0,2,,,,,1,,,40,77
32316,note_off,,,,,0,0,2,,,,,1,,,54,77
32380,note_off,,,,,0,0,1,,,,,0,,,62,77
32380,note_off,,,,,124,0,1,,,,,0,,,69,77
32448,note_on,,,,,132,0,2,,,,,1,,,40,121
32448,note_on,,,,,0,0,2,,,,,1,,,54,121
32448,note_on,,,,,0,0,2,,,,,1,,,47,121
32508,note_off,,,,,60,0,2,,,,,1,,,40,77
32508,note_off,,,,,0,0,2,,,,,1,,,47,77
32508,note_off,,,,,0,0,2,,,,,1,,,54,77
32512,note_off,,,,,132,0,1,,,,,0,,,69,77
32512,note_off,,,,,0,0,1,,,,,0,,,62,77
32640,note_on,,,,,0,0,2,,,,,1,,,47,121
32640,note_on,,,,,0,0,1,,,,,0,,,55,121
32640,note_on,,,,,132,0,2,,,,,1,,,40,121
32640,note_on,,,,,128,0,1,,,,,0,,,62,121
32700,note_off,,,,,0,0,2,,,,,1,,,47,77
32700,note_off,,,,,60,0,2,,,,,1,,,40,77
32700,note_off,,,,,0,0,1,,,,,0,,,55,77
32700,note_off,,,,,60,0,1,,,,,0,,,62,77
32832,note_on,,,,,0,0,2,,,,,1,,,47,121
32832,note_on,,,,,0,0,2,,,,,1,,,54,121
32832,note_on,,,,,132,0,1,,,,,0,,,69,121
32832,note_on,,,,,0,0,1,,,,,0,,,69,121
32832,note_on,,,,,0,0,1,,,,,0,,,62,121
32832,note_on,,,,,132,0,2,,,,,1,,,40,121
32832,note_on,,,,,0,0,1,,,,,0,,,62,121
32892,note_off,,,,,0,0,2,,,,,1,,,54,77
32892,note_off,,,,,60,0,2,,,,,1,,,40,77
32892,note_off,,,,,0,0,2,,,,,1,,,47,77
32956,note_off,,,,,124,0,1,,,,,0,,,69,77
32956,note_off,,,,,0,0,1,,,,,0,,,62,77
33024,note_on,,,,,0,0,2,,,,,1,,,47,121
33024,note_on,,,,,0,0,2,,,,,1,,,54,121
33024,note_on,,,,,132,0,2,,,,,1,,,40,121
33084,note_off,,,,,60,0,2,,,,,1,,,40,77
33084,note_off,,,,,0,0,2,,,,,1,,,47,77
33084,note_off,,,,,0,0,2,,,,,1,,,54,77
33088,note_off,,,,,132,0,1,,,,,0,,,69,77
33088,note_off,,,,,0,0,1,,,,,0,,,62,77
33216,note_on,,,,,0,0,2,,,,,1,,,47,121
33216,note_on,,,,,132,0,2,,,,,1,,,40,121
33216,note_on,,,,,0,0,1,,,,,0,,,55,121
33216,note_on,,,,,128,0,1,,,,,0,,,62,121
33276,note_off,,,,,60,0,2,,,,,1,,,40,77
33276,note_off,,,,,60,0,1,,,,,0,,,62,77
33276,note_off,,,,,0,0,2,,,,,1,,,47,77
33276,note_off,,,,,0,0,1,,,,,0,,,55,77
33408,note_on,,,,,0,0,1,,,,,0,,,55,121
33408,note_on,,,,,132,0,1,,,,,0,,,62,121
33408,note_on,,,,,0,0,2,,,,,1,,,40,121
33408,note_on,,,,,132,0,2,,,,,1,,,47,121
33468,note_off,,,,,0,0,2,,,,,1,,,40,77
33468,note_off,,,,,60,0,2,,,,,1,,,47,77
33532,note_off,,,,,124,0,1,,,,,0,,,62,77
33532,note_off,,,,,0,0,1,,,,,0,,,55,77
33600,note_on,,,,,0,0,2,,,,,1,,,40,121
33600,note_on,,,,,132,0,2,,,,,1,,,47,121
33660,note_off,,,,,0,0,2,,,,,1,,,40,77
33660,note_off,,,,,60,0,2,,,,,1,,,47,77
33792,note_on,,,,,132,0,2,,,,,1,,,47,121
33792,note_on,,,,,0,0,2,,,,,1,,,40,121
33852,note_off,,,,,60,0,2,,,,,1,,,47,77
33852,note_off,,,,,0,0,2,,,,,1,,,40,77
33984,note_on,,,,,0,0,1,,,,,0,,,55,121
33984,note_on,,,,,452,0,1,,,,,0,,,62,121
33984,note_on,,,,,132,0,2,,,,,1,,,47,121
33984,note_on,,,,,0,0,2,,,,,1,,,40,121
34108,note_off,,,,,124,0,2,,,,,1,,,47,77
34108,note_off,,,,,0,0,2,,,,,1,,,40,77
34108,note_off,,,,,124,0,1,,,,,0,,,62,77
34108,note_off,,,,,0,0,1,,,,,0,,,55,77
34560,note_on,,,,,0,0,2,,,,,1,,,55,121
34560,note_on,,,,,452,0,2,,,,,1,,,40,121
34560,note_on,,,,,0,0,2,,,,,1,,,48,121
34684,note_off,,,,,0,0,2,,,,,1,,,55,77
34684,note_off,,,,,124,0,2,,,,,1,,,40,77
34684,note_off,,,,,0,0,2,,,,,1,,,48,77
35904,note_on,,,,,1220,0,2,,,,,1,,,31,121
35904,note_on,,,,,0,0,2,,,,,1,,,55,121
35932,note_off,,,,,0,0,2,,,,,1,,,55,77
35932,note_off,,,,,28,0,2,,,,,1,,,31,77
36000,note_on,,,,,0,0,2,,,,,1,,,57,121
36000,note_on,,,,,68,0,2,,,,,1,,,33,121
36028,note_off,,,,,0,0,2,,,,,1,,,57,77
36028,note_off,,,,,28,0,2,,,,,1,,,33,77
36096,note_on,,,,,68,0,2,,,,,1,,,35,121
36096,note_on,,,,,0,0,2,,,,,1,,,59,121
36124,note_off,,,,,28,0,2,,,,,1,,,35,77
36124,note_off,,,,,0,0,2,,,,,1,,,59,77
36288,note_on,,,,,0,0,2,,,,,1,,,60,121
36288,note_on,,,,,0,0,2,,,,,1,,,48,121
36288,note_on,,,,,164,0,2,,,,,1,,,36,121
36316,note_off,,,,,28,0,2,,,,,1,,,36,77
36316,note_off,,,,,0,0,2,,,,,1,,,48,77
36316,note_off,,,,,0,0,2,,,,,1,,,60,77
36480,note_on,,,,,164,0,2,,,,,1,,,31,121
36480,note_on,,,,,0,0,2,,,,,1,,,55,121
36508,note_off,,,,,28,0,2,,,,,1,,,31,77
36508,note_off,,,,,0,0,2,,,,,1,,,55,77
36576,note_on,,,,,68,0,2,,,,,1,,,33,121
36576,note_on,,,,,0,0,2,,,,,1,,,57,121
36604,note_off,,,,,28,0,2,,,,,1,,,33,77
36604,note_off,,,,,0,0,2,,,,,1,,,57,77
36672,note_on,,,,,68,0,2,,,,,1,,,35,121
36672,note_on,,,,,0,0,2,,,,,1,,,59,121
36700,note_off,,,,,0,0,2,,,,,1,,,59,77
36700,note_off,,,,,28,0,2,,,,,1,,,35,77
36864,note_on,,,,,164,0,2,,,,,1,,,60,121
36864,note_on,,,,,0,0,2,,,,,1,,,36,121
36864,note_on,,,,,0,0,2,,,,,1,,,48,121
36924,note_off,,,,,60,0,2,,,,,1,,,60,77
36924,note_off,,,,,0,0,2,,,,,1,,,36,77
36924,note_off,,,,,0,0,2,,,,,1,,,48,77
37056,note_on,,,,,0,0,2,,,,,1,,,57,121
37056,note_on,,,,,132,0,2,,,,,1,,,33,121
37084,note_off,,,,,28,0,2,,,,,1,,,33,77
37084,note_off,,,,,0,0,2,,,,,1,,,57,77
37152,note_on,,,,,68,0,2,,,,,1,,,35,121
37152,note_on,,,,,0,0,2,,,,,1,,,59,121
37180,note_off,,,,,28,0,2,,,,,1,,,35,77
37180,note_off,,,,,0,0,2,,,,,1,,,59,77
37248,note_on,,,,,0,0,2,,,,,1,,,36,121
37248,note_on,,,,,68,0,2,,,,,1,,,60,121
37308,note_off,,,,,0,0,2,,,,,1,,,36,77
37308,note_off,,,,,60,0,2,,,,,1,,,60,77
37440,note_on,,,,,132,0,2,,,,,1,,,50,121
37440,note_on,,,,,3332,0,1,,,,,0,,,62,121
37440,note_on,,,,,0,0,2,,,,,1,,,38,121
37500,note_off,,,,,60,0,2,,,,,1,,,50,77
37500,note_off,,,,,0,0,2,,,,,1,,,38,77
37500,note_off,,,,,60,0,1,,,,,0,,,62,77
37632,note_on,,,,,132,0,1,,,,,0,,,59,121
37632,note_on,,,,,132,0,2,,,,,1,,,35,121
37660,note_off,,,,,28,0,1,,,,,0,,,59,77
37660,note_off,,,,,28,0,2,,,,,1,,,35,77
37728,note_on,,,,,68,0,2,,,,,1,,,36,121
37728,note_on,,,,,68,0,1,,,,,0,,,60,121
37756,note_off,,,,,28,0,1,,,,,0,,,60,77
37788,note_off,,,,,60,0,2,,,,,1,,,36,77
37824,note_on,,,,,36,0,2,,,,,1,,,38,121
37824,note_on,,,,,68,0,1,,,,,0,,,62,121
37852,note_off,,,,,28,0,1,,,,,0,,,62,77
37852,note_off,,,,,28,0,2,,,,,1,,,38,77
38016,note_on,,,,,164,0,2,,,,,1,,,52,121
38016,note_on,,,,,0,0,2,,,,,1,,,40,121
38016,note_on,,,,,164,0,1,,,,,0,,,64,121
38076,note_off,,,,,0,0,2,,,,,1,,,40,77
38076,note_off,,,,,60,0,1,,,,,0,,,64,77
38076,note_off,,,,,60,0,2,,,,,1,,,52,77
38208,note_on,,,,,0,0,2,,,,,1,,,35,121
38208,note_on,,,,,132,0,2,,,,,1,,,47,121
38208,note_on,,,,,132,0,1,,,,,0,,,59,121
38268,note_off,,,,,60,0,1,,,,,0,,,59,77
38268,note_off,,,,,60,0,2,,,,,1,,,47,77
38268,note_off,,,,,0,0,2,,,,,1,,,35,77
38592,note_on,,,,,0,0,2,,,,,1,,,40,121
38592,note_on,,,,,324,0,1,,,,,0,,,64,121
38592,note_on,,,,,324,0,2,,,,,1,,,52,121
38652,note_off,,,,,60,0,2,,,,,1,,,52,77
38652,note_off,,,,,0,0,2,,,,,1,,,40,77
38652,note_off,,,,,60,0,1,,,,,0,,,64,77
38784,note_on,,,,,132,0,2,,,,,1,,,48,121
38784,note_on,,,,,132,0,1,,,,,0,,,60,121
38784,note_on,,,,,0,0,2,,,,,1,,,36,121
38844,note_off,,,,,0,0,2,,,,,1,,,36,77
38844,note_off,,,,,60,0,1,,,,,0,,,60,77
38844,note_off,,,,,60,0,2,,,,,1,,,48,77
39168,note_on,,,,,0,0,2,,,,,1,,,41,121
39168,note_on,,,,,324,0,1,,,,,0,,,65,121
39168,note_on,,,,,324,0,2,,,,,1,,,53,121
39228,note_off,,,,,0,0,2,,,,,1,,,41,77
39228,note_off,,,,,60,0,2,,,,,1,,,53,77
39228,note_off,,,,,60,0,1,,,,,0,,,65,77
39360,note_on,,,,,132,0,2,,,,,1,,,36,121
39360,note_on,,,,,132,0,1,,,,,0,,,60,121
39360,note_on,,,,,0,0,2,,,,,1,,,48,121
39420,note_off,,,,,0,0,2,,,,,1,,,48,77
39420,note_off,,,,,60,0,1,,,,,0,,,60,77
39420,note_off,,,,,60,0,2,,,,,1,,,36,77
39744,note_on,,,,,324,0,1,,,,,0,,,65,121
39744,note_on,,,,,324,0,2,,,,,1,,,53,121
39744,note_on,,,,,0,0,2,,,,,1,,,41,121
39804,note_off,,,,,60,0,2,,,,,1,,,53,77
39804,note_off,,,,,0,0,2,,,,,1,,,41,77
39804,note_off,,,,,60,0,1,,,,,0,,,65,77
39936,note_on,,,,,0,0,2,,,,,1,,,37,121
39936,note_on,,,,,132,0,2,,,,,1,,,49,121
39936,note_on,,,,,132,0,1,,,,,0,,,61,121
39996,note_off,,,,,0,0,2,,,,,1,,,37,77
39996,note_off,,,,,60,0,2,,,,,1,,,49,77
39996,note_off,,,,,60,0,1,,,,,0,,,61,77
40320,note_on,,,,,0,0,2,,,,,1,,,42,121
40320,note_on,,,,,324,0,1,,,,,0,,,66,121
40320,note_on,,,,,324,0,2,,,,,1,,,54,121
40380,note_off,,,,,60,0,1,,,,,0,,,66,77
40380,note_off,,,,,60,0,2,,,,,1,,,54,77
40380,note_off,,,,,0,0,2,,,,,1,,,42,77
40512,note_on,,,,,0,0,2,,,,,1,,,38,121
40512,note_on,,,,,132,0,2,,,,,1,,,50,121
40512,note_on,,,,,132,0,1,,,,,0,,,62,121
40572,note_off,,,,,0,0,2,,,,,1,,,38,77
40572,note_off,,,,,60,0,2,,,,,1,,,50,77
40572,note_off,,,,,60,0,1,,,,,0,,,62,77
40896,note_on,,,,,324,0,1,,,,,0,,,67,121
40896,note_on,,,,,324,0,2,,,,,1,,,55,121
40896,note_on,,,,,0,0,2,,,,,1,,,43,121
40956,note_off,,,,,60,0,1,,,,,0,,,67,77
40956,note_off,,,,,0,0,2,,,,,1,,,43,77
40956,note_off,,,,,60,0,2,,,,,1,,,55,77
41088,note_on,,,,,0,0,2,,,,,1,,,51,121
41088,note_on,,,,,132,0,2,,,,,1,,,39,121
41088,note_on,,,,,132,0,1,,,,,0,,,63,121
41148,note_off,,,,,0,0,2,,,,,1,,,51,77
41148,note_off,,,,,60,0,1,,,,,0,,,63,77
41148,note_off,,,,,60,0,2,,,,,1,,,39,77
41472,note_on,,,,,324,0,1,,,,,0,,,68,121
41472,note_on,,,,,324,0,2,,,,,1,,,56,121
41472,note_on,,,,,0,0,2,,,,,1,,,44,121
41532,note_off,,,,,60,0,2,,,,,1,,,56,77
41532,note_off,,,,,0,0,2,,,,,1,,,44,77
41532,note_off,,,,,60,0,1,,,,,0,,,68,77
41664,note_on,,,,,132,0,1,,,,,0,,,64,121
41664,note_on,,,,,0,0,2,,,,,1,,,52,121
41664,note_on,,,,,132,0,2,,,,,1,,,40,121
41724,note_off,,,,,0,0,2,,,,,1,,,52,77
41724,note_off,,,,,60,0,1,,,,,0,,,64,77
41724,note_off,,,,,60,0,2,,,,,1,,,40,77
41856,note_on,,,,,132,0,2,,,,,1,,,57,121
41856,note_on,,,,,0,0,2,,,,,1,,,45,121
41856,note_on,,,,,132,0,1,,,,,0,,,69,121
41916,note_off,,,,,0,0,2,,,,,1,,,45,77
41916,note_off,,,,,60,0,2,,,,,1,,,57,77
41916,note_off,,,,,60,0,1,,,,,0,,,69,77
42048,note_on,,,,,132,0,2,,,,,1,,,53,121
42048,note_on,,,,,132,0,1,,,,,0,,,65,121
42048,note_on,,,,,0,0,2,,,,,1,,,41,121
42108,note_off,,,,,60,0,2,,,,,1,,,53,77
42108,note_off,,,,,0,0,2,,,,,1,,,41,77
42108,note_off,,,,,60,0,1,,,,,0,,,65,77
42240,note_on,,,,,132,0,1,,,,,0,,,66,121
42240,note_on,,,,,0,0,2,,,,,1,,,42,121
42240,note_on,,,,,132,0,2,,,,,1,,,54,121
42300,note_off,,,,,0,0,2,,,,,1,,,42,77
42300,note_off,,,,,60,0,2,,,,,1,,,54,77
42300,note_off,,,,,60,0,1,,,,,0,,,66,77
42432,note_on,,,,,0,0,2,,,,,1,,,35,121
42432,note_on,,,,,0,0,1,,,,,0,,,59,121
42432,note_on,,,,,132,0,1,,,,,0,,,71,121
42432,note_on,,,,,132,0,2,,,,,1,,,47,121
42492,note_off,,,,,0,0,1,,,,,0,,,59,77
42492,note_off,,,,,60,0,1,,,,,0,,,71,77
42492,note_off,,,,,0,0,2,,,,,1,,,35,77
42492,note_off,,,,,60,0,2,,,,,1,,,47,77
42624,note_on,,,,,0,0,2,,,,,1,,,40,121
42624,note_on,,,,,0,0,1,,,,,0,,,64,121
42624,note_on,,,,,132,0,2,,,,,1,,,52,121
42624,note_on,,,,,132,0,1,,,,,0,,,76,121
42684,note_off,,,,,0,0,1,,,,,0,,,64,77
42684,note_off,,,,,60,0,1,,,,,0,,,76,77
42684,note_off,,,,,0,0,2,,,,,1,,,40,77
42684,note_off,,,,,60,0,2,,,,,1,,,52,77
42816,note_on,,,,,0,0,1,,,,,0,,,59,121
42816,note_on,,,,,132,0,2,,,,,1,,,47,121
42816,note_on,,,,,0,0,2,,,,,1,,,35,121
42816,note_on,,,,,132,0,1,,,,,0,,,71,121
42876,note_off,,,,,60,0,1,,,,,0,,,71,77
42876,note_off,,,,,0,0,2,,,,,1,,,35,77
42876,note_off,,,,,0,0,1,,,,,0,,,59,77
42876,note_off,,,,,60,0,2,,,,,1,,,47,77
43200,note_on,,,,,324,0,2,,,,,1,,,52,121
43200,note_on,,,,,0,0,2,,,,,1,,,40,121
43200,note_on,,,,,0,0,1,,,,,0,,,64,121
43200,note_on,,,,,324,0,1,,,,,0,,,76,121
43260,note_off,,,,,60,0,1,,,,,0,,,76,77
43260,note_off,,,,,0,0,1,,,,,0,,,64,77
43260,note_off,,,,,60,0,2,,,,,1,,,52,77
43260,note_off,,,,,0,0,2,,,,,1,,,40,77
43392,note_on,,,,,0,0,2,,,,,1,,,36,121
43392,note_on,,,,,132,0,2,,,,,1,,,48,121
43392,note_on,,,,,0,0,1,,,,,0,,,60,121
43392,note_on,,,,,132,0,1,,,,,0,,,72,121
43452,note_off,,,,,0,0,2,,,,,1,,,36,77
43452,note_off,,,,,60,0,1,,,,,0,,,72,77
43452,note_off,,,,,0,0,1,,,,,0,,,60,77
43452,note_off,,,,,60,0,2,,,,,1,,,48,77
43776,note_on,,,,,324,0,1,,,,,0,,,77,121
43776,note_on,,,,,0,0,1,,,,,0,,,65,121
43776,note_on,,,,,324,0,2,,,,,1,,,53,121
43776,note_on,,,,,0,0,2,,,,,1,,,41,121
43836,note_off,,,,,0,0,2,,,,,1,,,41,77
43836,note_off,,,,,60,0,1,,,,,0,,,77,77
43836,note_off,,,,,60,0,2,,,,,1,,,53,77
43836,note_off,,,,,0,0,1,,,,,0,,,65,77
43968,note_on,,,,,0,0,2,,,,,1,,,36,121
43968,note_on,,,,,132,0,1,,,,,0,,,72,121
43968,note_on,,,,,0,0,1,,,,,0,,,60,121
43968,note_on,,,,,132,0,2,,,,,1,,,48,121
44028,note_off,,,,,0,0,2,,,,,1,,,36,77
44028,note_off,,,,,60,0,2,,,,,1,,,48,77
44028,note_off,,,,,60,0,1,,,,,0,,,72,77
44028,note_off,,,,,0,0,1,,,,,0,,,60,77
44352,note_on,,,,,0,0,2,,,,,1,,,41,121
44352,note_on,,,,,0,0,1,,,,,0,,,65,121
44352,note_on,,,,,324,0,2,,,,,1,,,53,121
44352,note_on,,,,,324,0,1,,,,,0,,,77,121
44412,note_off,,,,,0,0,2,,,,,1,,,41,77
44412,note_off,,,,,60,0,2,,,,,1,,,53,77
44412,note_off,,,,,60,0,1,,,,,0,,,77,77
44412,note_off,,,,,0,0,1,,,,,0,,,65,77
44544,note_on,,,,,132,0,2,,,,,1,,,49,121
44544,note_on,,,,,132,0,1,,,,,0,,,73,121
44544,note_on,,,,,0,0,1,,,,,0,,,61,121
44544,note_on,,,,,0,0,2,,,,,1,,,37,121
44604,note_off,,,,,0,0,1,,,,,0,,,61,77
44604,note_off,,,,,60,0,2,,,,,1,,,49,77
44604,note_off,,,,,0,0,2,,,,,1,,,37,77
44604,note_off,,,,,60,0,1,,,,,0,,,73,77
44928,note_on,,,,,0,0,2,,,,,1,,,42,121
44928,note_on,,,,,324,0,2,,,,,1,,,54,121
44928,note_on,,,,,324,0,1,,,,,0,,,78,121
44928,note_on,,,,,0,0,1,,,,,0,,,66,121
44988,note_off,,,,,0,0,1,,,,,0,,,66,77
44988,note_off,,,,,0,0,2,,,,,1,,,42,77
44988,note_off,,,,,60,0,2,,,,,1,,,54,77
44988,note_off,,,,,60,0,1,,,,,0,,,78,77
45120,note_on,,,,,132,0,1,,,,,0,,,74,121
45120,note_on,,,,,0,0,2,,,,,1,,,38,121
45120,note_on,,,,,0,0,1,,,,,0,,,62,121
45120,note_on,,,,,132,0,2,,,,,1,,,50,121
45180,note_off,,,,,0,0,1,,,,,0,,,62,77
45180,note_off,,,,,0,0,2,,,,,1,,,38,77
45180,note_off,,,,,60,0,2,,,,,1,,,50,77
45180,note_off,,,,,60,0,1,,,,,0,,,74,77
45504,note_on,,,,,0,0,2,,,,,1,,,43,121
45504,note_on,,,,,324,0,2,,,,,1,,,55,121
45504,note_on,,,,,324,0,1,,,,,0,,,79,121
45504,note_on,,,,,0,0,1,,,,,0,,,67,121
45564,note_off,,,,,60,0,2,,,,,1,,,55,77
45564,note_off,,,,,60,0,1,,,,,0,,,79,77
45564,note_off,,,,,0,0,1,,,,,0,,,67,77
45564,note_off,,,,,0,0,2,,,,,1,,,43,77
45696,note_on,,,,,0,0,1,,,,,0,,,63,121
45696,note_on,,,,,132,0,1,,,,,0,,,75,121
45696,note_on,,,,,132,0,2,,,,,1,,,51,121
45696,note_on,,,,,0,0,2,,,,,1,,,39,121
45756,note_off,,,,,0,0,2,,,,,1,,,39,77
45756,note_off,,,,,60,0,1,,,,,0,,,75,77
45756,note_off,,,,,60,0,2,,,,,1,,,51,77
45756,note_off,,,,,0,0,1,,,,,0,,,63,77
46080,note_on,,,,,324,0,2,,,,,1,,,56,121
46080,note_on,,,,,0,0,2,,,,,1,,,44,121
46080,note_on,,,,,0,0,1,,,,,0,,,68,121
46080,note_on,,,,,324,0,1,,,,,0,,,80,121
46140,note_off,,,,,60,0,2,,,,,1,,,56,77
46140,note_off,,,,,60,0,1,,,,,0,,,80,77
46140,note_off,,,,,0,0,1,,,,,0,,,68,77
46140,note_off,,,,,0,0,2,,,,,1,,,44,77
46272,note_on,,,,,132,0,1,,,,,0,,,76,121
46272,note_on,,,,,132,0,2,,,,,1,,,52,121
46272,note_on,,,,,0,0,1,,,,,0,,,64,121
46272,note_on,,,,,0,0,2,,,,,1,,,40,121
46332,note_off,,,,,60,0,2,,,,,1,,,52,77
46332,note_off,,,,,0,0,2,,,,,1,,,40,77
46332,note_off,,,,,0,0,1,,,,,0,,,64,77
46332,note_off,,,,,60,0,1,,,,,0,,,76,77
46464,note_on,,,,,0,0,2,,,,,1,,,57,121
46464,note_on,,,,,132,0,2,,,,,1,,,45,121
46464,note_on,,,,,0,0,1,,,,,0,,,81,121
46464,note_on,,,,,132,0,1,,,,,0,,,69,121
46524,note_off,,,,,60,0,1,,,,,0,,,69,77
46524,note_off,,,,,60,0,2,,,,,1,,,45,77
46524,note_off,,,,,0,0,1,,,,,0,,,81,77
46524,note_off,,,,,0,0,2,,,,,1,,,57,77
46656,note_on,,,,,0,0,1,,,,,0,,,65,121
46656,note_on,,,,,0,0,2,,,,,1,,,41,121
46656,note_on,,,,,132,0,1,,,,,0,,,77,121
46656,note_on,,,,,132,0,2,,,,,1,,,53,121
46716,note_off,,,,,60,0,2,,,,,1,,,53,77
46716,note_off,,,,,0,0,2,,,,,1,,,41,77
46716,note_off,,,,,60,0,1,,,,,0,,,77,77
46716,note_off,,,,,0,0,1,,,,,0,,,65,77
46848,note_on,,,,,0,0,2,,,,,1,,,42,121
46848,note_on,,,,,0,0,1,,,,,0,,,66,121
46848,note_on,,,,,132,0,1,,,,,0,,,78,121
46848,note_on,,,,,132,0,2,,,,,1,,,54,121
46908,note_off,,,,,0,0,2,,,,,1,,,42,77
46908,note_off,,,,,60,0,2,,,,,1,,,54,77
46908,note_off,,,,,60,0,1,,,,,0,,,78,77
46908,note_off,,,,,0,0,1,,,,,0,,,66,77
47040,note_on,,,,,0,0,1,,,,,0,,,83,121
47040,note_on,,,,,0,0,2,,,,,1,,,47,121
47040,note_on,,,,,132,0,1,,,,,0,,,71,121
47040,note_on,,,,,132,0,2,,,,,1,,,59,121
47100,note_off,,,,,60,0,1,,,,,0,,,71,77
47100,note_off,,,,,0,0,1,,,,,0,,,83,77
47100,note_off,,,,,60,0,2,,,,,1,,,59,77
47100,note_off,,,,,0,0,2,,,,,1,,,47,77
47232,note_on,,,,,132,0,1,,,,,0,,,88,121
47232,note_on,,,,,0,0,2,,,,,1,,,52,121
47232,note_on,,,,,132,0,2,,,,,1,,,64,121
47232,note_on,,,,,0,0,1,,,,,0,,,76,121
47292,note_off,,,,,0,0,1,,,,,0,,,76,77
47292,note_off,,,,,60,0,2,,,,,1,,,64,77
47292,note_off,,,,,60,0,1,,,,,0,,,88,77
47292,note_off,,,,,0,0,2,,,,,1,,,52,77
47424,note_on,,,,,0,0,2,,,,,1,,,59,121
47424,note_on,,,,,132,0,2,,,,,1,,,47,121
47424,note_on,,,,,132,0,1,,,,,0,,,71,121
47424,note_on,,,,,0,0,1,,,,,0,,,83,121
47484,note_off,,,,,0,0,2,,,,,1,,,59,77
47484,note_off,,,,,60,0,2,,,,,1,,,47,77
47484,note_off,,,,,60,0,1,,,,,0,,,71,77
47484,note_off,,,,,0,0,1,,,,,0,,,83,77
47808,note_on,,,,,324,0,2,,,,,1,,,52,121
47808,note_on,,,,,324,0,1,,,,,0,,,76,121
47808,note_on,,,,,0,0,1,,,,,0,,,88,121
47808,note_on,,,,,0,0,2,,,,,1,,,64,121
47868,note_off,,,,,60,0,1,,,,,0,,,76,77
47868,note_off,,,,,0,0,1,,,,,0,,,88,77
47868,note_off,,,,,0,0,2,,,,,1,,,64,77
47868,note_off,,,,,60,0,2,,,,,1,,,52,77
48000,note_on,,,,,132,0,2,,,,,1,,,59,121
48000,note_on,,,,,0,0,1,,,,,0,,,71,121
48000,note_on,,,,,0,0,2,,,,,1,,,47,121
48000,note_on,,,,,132,0,1,,,,,0,,,83,121
48060,note_off,,,,,60,0,1,,,,,0,,,83,77
48060,note_off,,,,,0,0,1,,,,,0,,,71,77
48060,note_off,,,,,0,0,2,,,,,1,,,47,77
48060,note_off,,,,,60,0,2,,,,,1,,,59,77
48384,note_on,,,,,324,0,1,,,,,0,,,88,121
48384,note_on,,,,,324,0,2,,,,,1,,,64,121
48384,note_on,,,,,0,0,1,,,,,0,,,76,121
48384,note_on,,,,,0,0,2,,,,,1,,,52,121
48444,note_off,,,,,60,0,2,,,,,1,,,64,77
48444,note_off,,,,,0,0,1,,,,,0,,,76,77
48444,note_off,,,,,60,0,1,,,,,0,,,88,77
48444,note_off,,,,,0,0,2,,,,,1,,,52,77
48576,note_on,,,,,0,0,1,,,,,0,,,84,121
48576,note_on,,,,,132,0,2,,,,,1,,,48,121
48576,note_on,,,,,132,0,1,,,,,0,,,72,121
48576,note_on,,,,,0,0,2,,,,,1,,,60,121
48636,note_off,,,,,0,0,2,,,,,1,,,60,77
48636,note_off,,,,,0,0,1,,,,,0,,,84,77
48636,note_off,,,,,60,0,1,,,,,0,,,72,77
48636,note_off,,,,,60,0,2,,,,,1,,,48,77
48960,note_on,,,,,0,0,1,,,,,0,,,76,121
48960,note_on,,,,,324,0,1,,,,,0,,,88,121
48960,note_on,,,,,0,0,2,,,,,1,,,52,121
48960,note_on,,,,,324,0,2,,,,,1,,,64,121
49020,note_off,,,,,0,0,2,,,,,1,,,52,77
49020,note_off,,,,,60,0,2,,,,,1,,,64,77
49020,note_off,,,,,60,0,1,,,,,0,,,88,77
49020,note_off,,,,,0,0,1,,,,,0,,,76,77
49152,note_on,,,,,0,0,2,,,,,1,,,48,121
49152,note_on,,,,,132,0,2,,,,,1,,,60,121
49152,note_on,,,,,132,0,1,,,,,0,,,84,121
49152,note_on,,,,,0,0,1,,,,,0,,,72,121
49212,note_off,,,,,0,0,1,,,,,0,,,72,77
49212,note_off,,,,,0,0,2,,,,,1,,,48,77
49212,note_off,,,,,60,0,1,,,,,0,,,84,77
49212,note_off,,,,,60,0,2,,,,,1,,,60,77
49536,note_on,,,,,0,0,1,,,,,0,,,76,121
49536,note_on,,,,,324,0,2,,,,,1,,,64,121
49536,note_on,,,,,0,0,2,,,,,1,,,52,121
49536,note_on,,,,,324,0,1,,,,,0,,,88,121
49596,note_off,,,,,60,0,2,,,,,1,,,64,77
49596,note_off,,,,,60,0,1,,,,,0,,,88,77
49596,note_off,,,,,0,0,2,,,,,1,,,52,77
49596,note_off,,,,,0,0,1,,,,,0,,,76,77
49728,note_on,,,,,0,0,1,,,,,0,,,73,121
49728,note_on,,,,,0,0,2,,,,,1,,,49,121
49728,note_on,,,,,132,0,1,,,,,0,,,76,121
49728,note_on,,,,,0,0,2,,,,,1,,,56,121
49728,note_on,,,,,0,0,1,,,,,0,,,64,121
49728,note_on,,,,,0,0,1,,,,,0,,,68,121
49728,note_on,,,,,132,0,2,,,,,1,,,61,121
49756,note_off,,,,,0,0,1,,,,,0,,,73,77
49756,note_off,,,,,28,0,1,,,,,0,,,76,77
49756,note_off,,,,,0,0,1,,,,,0,,,64,77
49756,note_off,,,,,0,0,2,,,,,1,,,56,77
49756,note_off,,,,,0,0,2,,,,,1,,,49,77
49756,note_off,,,,,28,0,2,,,,,1,,,61,77
49756,note_off,,,,,0,0,1,,,,,0,,,68,77
49824,note_on,,,,,0,0,2,,,,,1,,,49,121
49824,note_on,,,,,0,0,2,,,,,1,,,56,121
49824,note_on,,,,,0,0,1,,,,,0,,,68,121
49824,note_on,,,,,68,0,1,,,,,0,,,76,121
49824,note_on,,,,,68,0,2,,,,,1,,,61,121
49824,note_on,,,,,0,0,1,,,,,0,,,68,121
49824,note_on,,,,,0,0,1,,,,,0,,,73,121
49884,note_off,,,,,0,0,1,,,,,0,,,73,77
49884,note_off,,,,,60,0,1,,,,,0,,,76,77
49884,note_off,,,,,0,0,2,,,,,1,,,56,77
49884,note_off,,,,,0,0,2,,,,,1,,,49,77
49884,note_off,,,,,0,0,1,,,,,0,,,68,77
49884,note_off,,,,,0,0,1,,,,,0,,,68,77
49884,note_off,,,,,60,0,2,,,,,1,,,61,77
50112,note_on,,,,,228,0,2,,,,,1,,,61,121
50112,note_on,,,,,0,0,2,,,,,1,,,49,121
50112,note_on,,,,,0,0,1,,,,,0,,,76,121
50112,note_on,,,,,0,0,1,,,,,0,,,85,121
50112,note_on,,,,,228,0,1,,,,,0,,,88,121
50112,note_on,,,,,0,0,2,,,,,1,,,56,121
50112,note_on,,,,,0,0,1,,,,,0,,,80,121
50172,note_off,,,,,0,0,2,,,,,1,,,49,77
50172,note_off,,,,,60,0,2,,,,,1,,,61,77
50172,note_off,,,,,0,0,1,,,,,0,,,85,77
50172,note_off,,,,,0,0,1,,,,,0,,,80,77
50172,note_off,,,,,0,0,1,,,,,0,,,76,77
50172,note_off,,,,,0,0,2,,,,,1,,,56,77
50172,note_off,,,,,60,0,1,,,,,0,,,88,77
50304,note_on,,,,,0,0,1,,,,,0,,,85,121
50304,note_on,,,,,132,0,2,,,,,1,,,56,121
50304,note_on,,,,,0,0,1,,,,,0,,,80,121
50304,note_on,,,,,0,0,1,,,,,0,,,76,121
50304,note_on,,,,,0,0,2,,,,,1,,,44,121
50304,note_on,,,,,132,0,1,,,,,0,,,88,121
50304,note_on,,,,,0,0,2,,,,,1,,,52,121
50332,note_off,,,,,0,0,2,,,,,1,,,44,77
50332,note_off,,,,,28,0,1,,,,,0,,,88,77
50332,note_off,,,,,0,0,1,,,,,0,,,85,77
50332,note_off,,,,,0,0,1,,,,,0,,,80,77
50332,note_off,,,,,0,0,1,,,,,0,,,76,77
50332,note_off,,,,,0,0,2,,,,,1,,,52,77
50332,note_off,,,,,28,0,2,,,,,1,,,56,77
50400,note_on,,,,,0,0,1,,,,,0,,,80,121
50400,note_on,,,,,0,0,1,,,,,0,,,76,121
50400,note_on,,,,,0,0,1,,,,,0,,,85,121
50400,note_on,,,,,68,0,2,,,,,1,,,56,121
50400,note_on,,,,,0,0,2,,,,,1,,,52,121
50400,note_on,,,,,68,0,1,,,,,0,,,88,121
50400,note_on,,,,,0,0,2,,,,,1,,,44,121
50460,note_off,,,,,60,0,2,,,,,1,,,56,77
50460,note_off,,,,,60,0,1,,,,,0,,,88,77
50460,note_off,,,,,0,0,1,,,,,0,,,85,77
50460,note_off,,,,,0,0,2,,,,,1,,,44,77
50460,note_off,,,,,0,0,1,,,,,0,,,76,77
50460,note_off,,,,,0,0,2,,,,,1,,,52,77
50460,note_off,,,,,0,0,1,,,,,0,,,80,77
50688,note_on,,,,,228,0,2,,,,,1,,,56,121
50688,note_on,,,,,0,0,2,,,,,1,,,52,121
50688,note_on,,,,,0,0,1,,,,,0,,,76,121
50688,note_on,,,,,0,0,2,,,,,1,,,44,121
50688,note_on,,,,,0,0,1,,,,,0,,,85,121
50688,note_on,,,,,0,0,1,,,,,0,,,80,121
50688,note_on,,,,,228,0,1,,,,,0,,,88,121
50748,note_off,,,,,0,0,2,,,,,1,,,44,77
50748,note_off,,,,,60,0,1,,,,,0,,,88,77
50748,note_off,,,,,0,0,1,,,,,0,,,85,77
50748,note_off,,,,,0,0,1,,,,,0,,,80,77
50748,note_off,,,,,0,0,1,,,,,0,,,76,77
50748,note_off,,,,,0,0,2,,,,,1,,,52,77
50748,note_off,,,,,60,0,2,,,,,1,,,56,77
50880,note_on,,,,,132,0,1,,,,,0,,,88,121
50880,note_on,,,,,0,0,2,,,,,1,,,49,121
50880,note_on,,,,,0,0,1,,,,,0,,,80,121
50880,note_on,,,,,0,0,2,,,,,1,,,40,121
50880,note_on,,,,,0,0,1,,,,,0,,,76,121
50880,note_on,,,,,132,0,2,,,,,1,,,52,121
50880,note_on,,,,,0,0,1,,,,,0,,,85,121
50908,note_off,,,,,28,0,1,,,,,0,,,88,77
50908,note_off,,,,,0,0,2,,,,,1,,,40,77
50908,note_off,,,,,0,0,1,,,,,0,,,80,77
50908,note_off,,,,,0,0,2,,,,,1,,,49,77
50908,note_off,,,,,0,0,1,,,,,0,,,76,77
50908,note_off,,,,,0,0,1,,,,,0,,,85,77
50908,note_off,,,,,28,0,2,,,,,1,,,52,77
50976,note_on,,,,,0,0,2,,,,,1,,,49,121
50976,note_on,,,,,0,0,2,,,,,1,,,40,121
50976,note_on,,,,,0,0,1,,,,,0,,,85,121
50976,note_on,,,,,68,0,1,,,,,0,,,88,121
50976,note_on,,,,,68,0,2,,,,,1,,,52,121
50976,note_on,,,,,0,0,1,,,,,0,,,80,121
50976,note_on,,,,,0,0,1,,,,,0,,,76,121
51036,note_off,,,,,0,0,2,,,,,1,,,40,77
51036,note_off,,,,,0,0,2,,,,,1,,,49,77
51036,note_off,,,,,0,0,1,,,,,0,,,85,77
51036,note_off,,,,,0,0,1,,,,,0,,,76,77
51036,note_off,,,,,60,0,1,,,,,0,,,88,77
51036,note_off,,,,,0,0,1,,,,,0,,,80,77
51036,note_off,,,,,60,0,2,,,,,1,,,52,77
51264,note_on,,,,,228,0,2,,,,,1,,,52,121
51264,note_on,,,,,0,0,1,,,,,0,,,85,121
51264,note_on,,,,,0,0,2,,,,,1,,,49,121
51264,note_on,,,,,228,0,1,,,,,0,,,88,121
51264,note_on,,,,,0,0,2,,,,,1,,,40,121
51264,note_on,,,,,0,0,1,,,,,0,,,88,121
51264,note_on,,,,,0,0,1,,,,,0,,,76,121
51264,note_on,,,,,0,0,1,,,,,0,,,80,121
51324,note_off,,,,,0,0,1,,,,,0,,,88,77
51324,note_off,,,,,0,0,1,,,,,0,,,85,77
51324,note_off,,,,,0,0,1,,,,,0,,,80,77
51324,note_off,,,,,0,0,1,,,,,0,,,76,77
51324,note_off,,,,,0,0,2,,,,,1,,,40,77
51324,note_off,,,,,0,0,2,,,,,1,,,49,77
51324,note_off,,,,,60,0,1,,,,,0,,,88,77
51324,note_off,,,,,60,0,2,,,,,1,,,52,77
51456,note_on,,,,,132,0,1,,,,,0,,,88,121
51456,note_on,,,,,0,0,1,,,,,0,,,76,121
51456,note_on,,,,,0,0,2,,,,,1,,,37,121
51456,note_on,,,,,0,0,1,,,,,0,,,85,121
51456,note_on,,,,,0,0,2,,,,,1,,,44,121
51456,note_on,,,,,132,0,2,,,,,1,,,49,121
51456,note_on,,,,,0,0,1,,,,,0,,,80,121
51484,note_off,,,,,0,0,1,,,,,0,,,85,77
51484,note_off,,,,,0,0,1,,,,,0,,,80,77
51484,note_off,,,,,0,0,1,,,,,0,,,76,77
51484,note_off,,,,,28,0,1,,,,,0,,,88,77
51484,note_off,,,,,0,0,2,,,,,1,,,37,77
51484,note_off,,,,,0,0,2,,,,,1,,,44,77
51484,note_off,,,,,28,0,2,,,,,1,,,49,77
51552,note_on,,,,,0,0,1,,,,,0,,,88,121
51552,note_on,,,,,68,0,2,,,,,1,,,49,121
51552,note_on,,,,,68,0,1,,,,,0,,,88,121
51552,note_on,,,,,0,0,2,,,,,1,,,44,121
51552,note_on,,,,,0,0,1,,,,,0,,,80,121
51552,note_on,,,,,0,0,1,,,,,0,,,85,121
51552,note_on,,,,,0,0,2,,,,,1,,,37,121
51552,note_on,,,,,0,0,1,,,,,0,,,76,121
51612,note_off,,,,,0,0,1,,,,,0,,,76,77
51612,note_off,,,,,0,0,1,,,,,0,,,80,77
51612,note_off,,,,,0,0,1,,,,,0,,,85,77
51612,note_off,,,,,0,0,1,,,,,0,,,88,77
51612,note_off,,,,,60,0,1,,,,,0,,,88,77
51612,note_off,,,,,0,0,2,,,,,1,,,37,77
51612,note_off,,,,,0,0,2,,,,,1,,,44,77
51612,note_off,,,,,60,0,2,,,,,1,,,49,77
51840,note_on,,,,,228,0,1,,,,,0,,,76,121
51840,note_on,,,,,0,0,1,,,,,0,,,85,121
51840,note_on,,,,,0,0,1,,,,,0,,,88,121
51840,note_on,,,,,228,0,2,,,,,1,,,49,121
51840,note_on,,,,,0,0,1,,,,,0,,,76,121
51840,note_on,,,,,0,0,1,,,,,0,,,80,121
51840,note_on,,,,,0,0,2,,,,,1,,,37,121
51840,note_on,,,,,0,0,2,,,,,1,,,44,121
51900,note_off,,,,,0,0,1,,,,,0,,,76,77
51900,note_off,,,,,0,0,1,,,,,0,,,80,77
51900,note_off,,,,,0,0,1,,,,,0,,,85,77
51900,note_off,,,,,0,0,1,,,,,0,,,88,77
51900,note_off,,,,,0,0,2,,,,,1,,,37,77
51900,note_off,,,,,0,0,2,,,,,1,,,44,77
51900,note_off,,,,,60,0,1,,,,,0,,,76,77
51900,note_off,,,,,60,0,2,,,,,1,,,49,77
52032,note_on,,,,,0,0,2,,,,,1,,,40,121
52032,note_on,,,,,0,0,1,,,,,0,,,88,121
52032,note_on,,,,,0,0,1,,,,,0,,,85,121
52032,note_on,,,,,132,0,2,,,,,1,,,32,121
52032,note_on,,,,,0,0,2,,,,,1,,,44,121
52032,note_on,,,,,0,0,1,,,,,0,,,80,121
52032,note_on,,,,,132,0,1,,,,,0,,,76,121
52092,note_off,,,,,60,0,1,,,,,0,,,76,77
52092,note_off,,,,,0,0,2,,,,,1,,,44,77
52092,note_off,,,,,0,0,1,,,,,0,,,88,77
52092,note_off,,,,,0,0,1,,,,,0,,,85,77
52092,note_off,,,,,0,0,1,,,,,0,,,80,77
52092,note_off,,,,,0,0,2,,,,,1,,,40,77
52092,note_off,,,,,60,0,2,,,,,1,,,32,77
52224,note_on,,,,,132,0,2,,,,,1,,,32,121
52224,note_on,,,,,132,0,1,,,,,0,,,76,121
52224,note_on,,,,,0,0,2,,,,,1,,,44,121
52224,note_on,,,,,0,0,1,,,,,0,,,85,121
52224,note_on,,,,,0,0,1,,,,,0,,,88,121
52224,note_on,,,,,0,0,1,,,,,0,,,80,121
52224,note_on,,,,,0,0,2,,,,,1,,,40,121
52284,note_off,,,,,60,0,1,,,,,0,,,76,77
52284,note_off,,,,,60,0,2,,,,,1,,,32,77
52284,note_off,,,,,0,0,2,,,,,1,,,44,77
52284,note_off,,,,,0,0,2,,,,,1,,,40,77
52284,note_off,,,,,0,0,1,,,,,0,,,80,77
52284,note_off,,,,,0,0,1,,,,,0,,,85,77
52284,note_off,,,,,0,0,1,,,,,0,,,88,77
52416,note_on,,,,,132,0,1,,,,,0,,,76,121
52416,note_on,,,,,0,0,2,,,,,1,,,40,121
52416,note_on,,,,,0,0,2,,,,,1,,,44,121
52416,note_on,,,,,132,0,2,,,,,1,,,32,121
52416,note_on,,,,,0,0,1,,,,,0,,,80,121
52416,note_on,,,,,0,0,1,,,,,0,,,85,121
52416,note_on,,,,,0,0,1,,,,,0,,,88,121
52476,note_off,,,,,0,0,2,,,,,1,,,44,77
52476,note_off,,,,,0,0,2,,,,,1,,,40,77
52476,note_off,,,,,0,0,1,,,,,0,,,85,77
52476,note_off,,,,,60,0,1,,,,,0,,,76,77
52476,note_off,,,,,60,0,2,,,,,1,,,32,77
52476,note_off,,,,,0,0,1,,,,,0,,,80,77
52476,note_off,,,,,0,0,1,,,,,0,,,88,77
52608,note_on,,,,,0,0,2,,,,,1,,,44,121
52608,note_on,,,,,132,0,1,,,,,0,,,76,121
52608,note_on,,,,,0,0,1,,,,,0,,,88,121
52608,note_on,,,,,0,0,1,,,,,0,,,85,121
52608,note_on,,,,,0,0,1,,,,,0,,,80,121
52608,note_on,,,,,0,0,2,,,,,1,,,40,121
52608,note_on,,,,,132,0,2,,,,,1,,,32,121
52668,note_off,,,,,60,0,1,,,,,0,,,76,77
52668,note_off,,,,,60,0,2,,,,,1,,,32,77
52668,note_off,,,,,0,0,1,,,,,0,,,85,77
52668,note_off,,,,,0,0,1,,,,,0,,,80,77
52668,note_off,,,,,0,0,2,,,,,1,,,44,77
52668,note_off,,,,,0,0,2,,,,,1,,,40,77
52668,note_off,,,,,0,0,1,,,,,0,,,88,77
52800,note_on,,,,,0,0,2,,,,,1,,,44,121
52800,note_on,,,,,132,0,1,,,,,0,,,88,121
52800,note_on,,,,,0,0,1,,,,,0,,,85,121
52800,note_on,,,,,0,0,1,,,,,0,,,80,121
52800,note_on,,,,,132,0,2,,,,,1,,,32,121
52800,note_on,,,,,0,0,1,,,,,0,,,76,121
52800,note_on,,,,,0,0,2,,,,,1,,,40,121
52860,note_off,,,,,0,0,2,,,,,1,,,40,77
52860,note_off,,,,,0,0,2,,,,,1,,,44,77
52860,note_off,,,,,60,0,2,,,,,1,,,32,77
52860,note_off,,,,,0,0,1,,,,,0,,,76,77
52860,note_off,,,,,60,0,1,,,,,0,,,88,77
52860,note_off,,,,,0,0,1,,,,,0,,,85,77
52860,note_off,,,,,0,0,1,,,,,0,,,80,77
52992,note_on,,,,,0,0,1,,,,,0,,,85,121
52992,note_on,,,,,0,0,1,,,,,0,,,88,121
52992,note_on,,,,,0,0,2,,,,,1,,,44,121
52992,note_on,,,,,0,0,2,,,,,1,,,40,121
52992,note_on,,,,,0,0,1,,,,,0,,,80,121
52992,note_on,,,,,132,0,2,,,,,1,,,32,121
52992,note_on,,,,,132,0,1,,,,,0,,,76,121
53052,note_off,,,,,0,0,1,,,,,0,,,88,77
53052,note_off,,,,,60,0,1,,,,,0,,,76,77
53052,note_off,,,,,60,0,2,,,,,1,,,32,77
53052,note_off,,,,,0,0,1,,,,,0,,,80,77
53052,note_off,,,,,0,0,2,,,,,1,,,44,77
53052,note_off,,,,,0,0,2,,,,,1,,,40,77
53052,note_off,,,,,0,0,1,,,,,0,,,85,77
53184,note_on,,,,,132,0,2,,,,,1,,,52,121
53244,note_off,,,,,60,0,2,,,,,1,,,52,77
53376,note_on,,,,,132,0,2,,,,,1,,,56,121
53436,note_off,,,,,60,0,2,,,,,1,,,56,77
53568,note_on,,,,,516,0,1,,,,,0,,,64,121
53692,note_off,,,,,124,0,1,,,,,0,,,64,77
53760,note_on,,,,,68,0,1,,,,,0,,,61,121
53820,note_off,,,,,60,0,1,,,,,0,,,61,77
54528,note_on,,,,,1092,0,2,,,,,1,,,52,121
54588,note_off,,,,,60,0,2,,,,,1,,,52,77
54624,note_on,,,,,36,0,2,,,,,1,,,56,121
54684,note_off,,,,,60,0,2,,,,,1,,,56,77
54720,note_on,,,,,900,0,1,,,,,0,,,64,121
54844,note_off,,,,,124,0,1,,,,,0,,,64,77
54912,note_on,,,,,68,0,1,,,,,0,,,61,121
54972,note_off,,,,,60,0,1,,,,,0,,,61,77
55200,note_on,,,,,228,0,1,,,,,0,,,63,121
55260,note_off,,,,,60,0,1,,,,,0,,,63,77
55296,note_on,,,,,36,0,1,,,,,0,,,64,121
55420,note_off,,,,,124,0,1,,,,,0,,,64,77
55488,note_on,,,,,68,0,1,,,,,0,,,61,121
55548,note_off,,,,,60,0,1,,,,,0,,,61,77
55776,note_on,,,,,228,0,1,,,,,0,,,63,121
55836,note_off,,,,,60,0,1,,,,,0,,,63,77
55872,note_on,,,,,36,0,1,,,,,0,,,64,121
55996,note_off,,,,,124,0,1,,,,,0,,,64,77
56064,note_on,,,,,68,0,1,,,,,0,,,61,121
56124,note_off,,,,,60,0,1,,,,,0,,,61,77
56352,note_on,,,,,228,0,1,,,,,0,,,63,121
56412,note_off,,,,,60,0,1,,,,,0,,,63,77
56448,note_on,,,,,36,0,1,,,,,0,,,64,121
56508,note_off,,,,,60,0,1,,,,,0,,,64,77
56640,note_on,,,,,132,0,1,,,,,0,,,64,121
56700,note_off,,,,,60,0,1,,,,,0,,,64,77
56832,note_on,,,,,132,0,1,,,,,0,,,64,121
56892,note_off,,,,,60,0,1,,,,,0,,,64,77
57024,note_on,,,,,132,0,1,,,,,0,,,64,121
57084,note_off,,,,,60,0,1,,,,,0,,,64,77
57216,note_on,,,,,132,0,1,,,,,0,,,64,121
57276,note_off,,,,,60,0,1,,,,,0,,,64,77
57408,note_on,,,,,132,0,1,,,,,0,,,64,121
57468,note_off,,,,,60,0,1,,,,,0,,,64,77
57504,note_on,,,,,36,0,1,,,,,0,,,63,121
57564,note_off,,,,,60,0,1,,,,,0,,,63,77
57600,note_on,,,,,0,0,1,,,,,0,,,59,121
57600,note_on,,,,,36,0,1,,,,,0,,,64,121
57660,note_off,,,,,0,0,1,,,,,0,,,59,77
57660,note_off,,,,,60,0,1,,,,,0,,,64,77
57792,note_on,,,,,0,0,1,,,,,0,,,59,121
57792,note_on,,,,,132,0,1,,,,,0,,,64,121
57852,note_off,,,,,0,0,1,,,,,0,,,59,77
57852,note_off,,,,,60,0,1,,,,,0,,,64,77
57984,note_on,,,,,132,0,1,,,,,0,,,64,121
57984,note_on,,,,,0,0,1,,,,,0,,,59,121
58044,note_off,,,,,60,0,1,,,,,0,,,64,77
58044,note_off,,,,,0,0,1,,,,,0,,,59,77
58176,note_on,,,,,132,0,1,,,,,0,,,64,121
58176,note_on,,,,,0,0,1,,,,,0,,,59,121
58236,note_off,,,,,60,0,1,,,,,0,,,64,77
58236,note_off,,,,,0,0,1,,,,,0,,,59,77
58368,note_on,,,,,0,0,1,,,,,0,,,59,121
58368,note_on,,,,,132,0,1,,,,,0,,,64,121
58428,note_off,,,,,60,0,1,,,,,0,,,64,77
58428,note_off,,,,,0,0,1,,,,,0,,,59,77
58560,note_on,,,,,0,0,1,,,,,0,,,59,121
58560,note_on,,,,,132,0,1,,,,,0,,,64,121
58620,note_off,,,,,60,0,1,,,,,0,,,64,77
58620,note_off,,,,,0,0,1,,,,,0,,,59,77
58752,note_on,,,,,0,0,2,,,,,1,,,52,121
58752,note_on,,,,,4068,0,2,,,,,1,,,59,121
58752,note_on,,,,,132,0,1,,,,,0,,,64,121
58812,note_off,,,,,0,0,2,,,,,1,,,52,77
58812,note_off,,,,,60,0,2,,,,,1,,,59,77
58812,note_off,,,,,60,0,1,,,,,0,,,64,77
58944,note_on,,,,,0,0,2,,,,,1,,,52,121
58944,note_on,,,,,132,0,1,,,,,0,,,64,121
58944,note_on,,,,,132,0,2,,,,,1,,,59,121
59004,note_off,,,,,60,0,1,,,,,0,,,64,77
59004,note_off,,,,,60,0,2,,,,,1,,,59,77
59004,note_off,,,,,0,0,2,,,,,1,,,52,77
59136,note_on,,,,,132,0,2,,,,,1,,,59,121
59136,note_on,,,,,0,0,2,,,,,1,,,52,121
59136,note_on,,,,,132,0,1,,,,,0,,,64,121
59196,note_off,,,,,60,0,2,,,,,1,,,59,77
59196,note_off,,,,,60,0,1,,,,,0,,,64,77
59196,note_off,,,,,0,0,2,,,,,1,,,52,77
59328,note_on,,,,,132,0,2,,,,,1,,,59,121
59328,note_on,,,,,0,0,2,,,,,1,,,52,121
59328,note_on,,,,,0,0,2,,,,,1,,,45,121
59328,note_on,,,,,132,0,1,,,,,0,,,64,121
59388,note_off,,,,,60,0,2,,,,,1,,,59,77
59388,note_off,,,,,0,0,2,,,,,1,,,45,77
59388,note_off,,,,,0,0,2,,,,,1,,,52,77
59388,note_off,,,,,60,0,1,,,,,0,,,64,77
59520,note_on,,,,,132,0,2,,,,,1,,,59,121
59520,note_on,,,,,0,0,2,,,,,1,,,45,121
59520,note_on,,,,,0,0,2,,,,,1,,,52,121
59520,note_on,,,,,132,0,1,,,,,0,,,64,121
59580,note_off,,,,,0,0,2,,,,,1,,,52,77
59580,note_off,,,,,0,0,2,,,,,1,,,45,77
59580,note_off,,,,,60,0,1,,,,,0,,,64,77
59580,note_off,,,,,60,0,2,,,,,1,,,59,77
59712,note_on,,,,,132,0,1,,,,,0,,,64,121
59712,note_on,,,,,132,0,2,,,,,1,,,59,121
59712,note_on,,,,,0,0,2,,,,,1,,,52,121
59712,note_on,,,,,0,0,2,,,,,1,,,45,121
59772,note_off,,,,,60,0,2,,,,,1,,,59,77
59772,note_off,,,,,0,0,2,,,,,1,,,45,77
59772,note_off,,,,,0,0,2,,,,,1,,,52,77
59772,note_off,,,,,60,0,1,,,,,0,,,64,77
59904,note_on,,,,,0,0,2,,,,,1,,,40,121
59904,note_on,,,,,0,0,2,,,,,1,,,45,121
59904,note_on,,,,,0,0,2,,,,,1,,,52,121
59904,note_on,,,,,132,0,1,,,,,0,,,64,121
59904,note_on,,,,,132,0,2,,,,,1,,,59,121
59964,note_off,,,,,0,0,2,,,,,1,,,40,77
59964,note_off,,,,,60,0,2,,,,,1,,,59,77
59964,note_off,,,,,60,0,1,,,,,0,,,64,77
59964,note_off,,,,,0,0,2,,,,,1,,,45,77
59964,note_off,,,,,0,0,2,,,,,1,,,52,77
60096,note_on,,,,,132,0,1,,,,,0,,,64,121
60096,note_on,,,,,0,0,2,,,,,1,,,40,121
60096,note_on,,,,,0,0,2,,,,,1,,,45,121
60096,note_on,,,,,0,0,2,,,,,1,,,52,121
60096,note_on,,,,,132,0,2,,,,,1,,,59,121
60156,note_off,,,,,60,0,1,,,,,0,,,64,77
60156,note_off,,,,,0,0,2,,,,,1,,,52,77
60156,note_off,,,,,0,0,2,,,,,1,,,45,77
60156,note_off,,,,,60,0,2,,,,,1,,,59,77
60156,note_off,,,,,0,0,2,,,,,1,,,40,77
60288,note_on,,,,,0,0,2,,,,,1,,,40,121
60288,note_on,,,,,132,0,1,,,,,0,,,64,121
60288,note_on,,,,,0,0,2,,,,,1,,,45,121
60288,note_on,,,,,0,0,2,,,,,1,,,52,121
60288,note_on,,,,,132,0,2,,,,,1,,,59,121
60348,note_off,,,,,0,0,2,,,,,1,,,52,77
60348,note_off,,,,,60,0,2,,,,,1,,,59,77
60348,note_off,,,,,0,0,2,,,,,1,,,45,77
60348,note_off,,,,,60,0,1,,,,,0,,,64,77
60348,note_off,,,,,0,0,2,,,,,1,,,40,77
60480,note_on,,,,,0,0,2,,,,,1,,,52,121
60480,note_on,,,,,132,0,1,,,,,0,,,64,121
60480,note_on,,,,,0,0,2,,,,,1,,,33,121
60480,note_on,,,,,0,0,2,,,,,1,,,40,121
60480,note_on,,,,,0,0,2,,,,,1,,,45,121
60480,note_on,,,,,132,0,2,,,,,1,,,59,121
60540,note_off,,,,,0,0,2,,,,,1,,,52,77
60540,note_off,,,,,60,0,2,,,,,1,,,59,77
60540,note_off,,,,,0,0,2,,,,,1,,,45,77
60540,note_off,,,,,0,0,2,,,,,1,,,40,77
60540,note_off,,,,,0,0,2,,,,,1,,,33,77
60540,note_off,,,,,60,0,1,,,,,0,,,64,77
60672,note_on,,,,,132,0,2,,,,,1,,,59,121
60672,note_on,,,,,0,0,2,,,,,1,,,33,121
60672,note_on,,,,,0,0,2,,,,,1,,,40,121
60672,note_on,,,,,0,0,2,,,,,1,,,52,121
60672,note_on,,,,,132,0,1,,,,,0,,,64,121
60672,note_on,,,,,0,0,2,,,,,1,,,45,121
60732,note_off,,,,,60,0,1,,,,,0,,,64,77
60732,note_off,,,,,60,0,2,,,,,1,,,59,77
60732,note_off,,,,,0,0,2,,,,,1,,,40,77
60732,note_off,,,,,0,0,2,,,,,1,,,33,77
60732,note_off,,,,,0,0,2,,,,,1,,,52,77
60732,note_off,,,,,0,0,2,,,,,1,,,45,77
60864,note_on,,,,,132,0,1,,,,,0,,,64,121
60864,note_on,,,,,132,0,2,,,,,1,,,59,121
60864,note_on,,,,,0,0,2,,,,,1,,,40,121
60864,note_on,,,,,0,0,2,,,,,1,,,33,121
60864,note_on,,,,,0,0,2,,,,,1,,,45,121
60864,note_on,,,,,0,0,2,,,,,1,,,52,121
60924,note_off,,,,,60,0,2,,,,,1,,,59,77
60924,note_off,,,,,0,0,2,,,,,1,,,33,77
60924,note_off,,,,,0,0,2,,,,,1,,,52,77
60924,note_off,,,,,0,0,2,,,,,1,,,45,77
60924,note_off,,,,,0,0,2,,,,,1,,,40,77
60924,note_off,,,,,60,0,1,,,,,0,,,64,77
61056,note_on,,,,,0,0,2,,,,,1,,,52,121
61056,note_on,,,,,132,0,2,,,,,1,,,33,121
61056,note_on,,,,,0,0,2,,,,,1,,,45,121
61056,note_on,,,,,0,0,2,,,,,1,,,40,121
61084,note_off,,,,,28,0,2,,,,,1,,,52,77
61116,note_off,,,,,0,0,2,,,,,1,,,40,77
61116,note_off,,,,,0,0,2,,,,,1,,,45,77
61116,note_off,,,,,32,0,2,,,,,1,,,33,77
61152,note_on,,,,,36,0,2,,,,,1,,,59,121
61180,note_off,,,,,28,0,2,,,,,1,,,59,77
61248,note_on,,,,,324,0,1,,,,,0,,,64,121
61248,note_on,,,,,0,0,2,,,,,1,,,40,121
61248,note_on,,,,,0,0,2,,,,,1,,,45,121
61248,note_on,,,,,68,0,2,,,,,1,,,33,121
61276,note_off,,,,,28,0,1,,,,,0,,,64,77
61308,note_off,,,,,60,0,2,,,,,1,,,33,77
61308,note_off,,,,,0,0,2,,,,,1,,,45,77
61308,note_off,,,,,0,0,2,,,,,1,,,40,77
61344,note_on,,,,,36,0,2,,,,,1,,,59,121
61372,note_off,,,,,28,0,2,,,,,1,,,59,77
61440,note_on,,,,,0,0,2,,,,,1,,,40,121
61440,note_on,,,,,68,0,2,,,,,1,,,33,121
61440,note_on,,,,,0,0,2,,,,,1,,,52,121
61440,note_on,,,,,0,0,2,,,,,1,,,45,121
61468,note_off,,,,,28,0,2,,,,,1,,,52,77
61500,note_off,,,,,32,0,2,,,,,1,,,33,77
61500,note_off,,,,,0,0,2,,,,,1,,,45,77
61500,note_off,,,,,0,0,2,,,,,1,,,40,77
61536,note_on,,,,,36,0,2,,,,,1,,,59,121
61564,note_off,,,,,28,0,2,,,,,1,,,59,77
61632,note_on,,,,,68,0,2,,,,,1,,,45,121
61632,note_on,,,,,0,0,2,,,,,1,,,40,121
61632,note_on,,,,,0,0,2,,,,,1,,,33,121
61632,note_on,,,,,356,0,1,,,,,0,,,64,121
61660,note_off,,,,,28,0,1,,,,,0,,,64,77
61692,note_off,,,,,0,0,2,,,,,1,,,33,77
61692,note_off,,,,,0,0,2,,,,,1,,,40,77
61692,note_off,,,,,60,0,2,,,,,1,,,45,77
61728,note_on,,,,,68,0,1,,,,,0,,,71,121
61756,note_off,,,,,28,0,1,,,,,0,,,71,77
61824,note_on,,,,,0,0,2,,,,,1,,,33,121
61824,note_on,,,,,0,0,2,,,,,1,,,40,121
61824,note_on,,,,,132,0,2,,,,,1,,,45,121
61824,note_on,,,,,68,0,1,,,,,0,,,76,121
61852,note_off,,,,,28,0,1,,,,,0,,,76,77
61884,note_off,,,,,0,0,2,,,,,1,,,40,77
61884,note_off,,,,,0,0,2,,,,,1,,,33,77
61884,note_off,,,,,60,0,2,,,,,1,,,45,77
61920,note_on,,,,,68,0,1,,,,,0,,,71,121
61948,note_off,,,,,28,0,1,,,,,0,,,71,77
62016,note_on,,,,,132,0,2,,,,,1,,,45,121
62016,note_on,,,,,0,0,2,,,,,1,,,40,121
62016,note_on,,,,,0,0,2,,,,,1,,,33,121
62016,note_on,,,,,68,0,1,,,,,0,,,64,121
62044,note_off,,,,,28,0,1,,,,,0,,,64,77
62076,note_off,,,,,0,0,2,,,,,1,,,40,77
62076,note_off,,,,,0,0,2,,,,,1,,,33,77
62076,note_off,,,,,60,0,2,,,,,1,,,45,77
62112,note_on,,,,,68,0,1,,,,,0,,,71,121
62140,note_off,,,,,28,0,1,,,,,0,,,71,77
62208,note_on,,,,,0,0,2,,,,,1,,,40,121
62208,note_on,,,,,68,0,1,,,,,0,,,76,121
62208,note_on,,,,,132,0,2,,,,,1,,,45,121
62208,note_on,,,,,0,0,2,,,,,1,,,33,121
62236,note_off,,,,,28,0,1,,,,,0,,,76,77
62268,note_off,,,,,0,0,2,,,,,1,,,33,77
62268,note_off,,,,,0,0,2,,,,,1,,,40,77
62268,note_off,,,,,60,0,2,,,,,1,,,45,77
62304,note_on,,,,,68,0,1,,,,,0,,,83,121
62332,note_off,,,,,28,0,1,,,,,0,,,83,77
62400,note_on,,,,,68,0,1,,,,,0,,,88,121
62400,note_on,,,,,0,0,2,,,,,1,,,40,121
62400,note_on,,,,,132,0,2,,,,,1,,,45,121
62400,note_on,,,,,0,0,2,,,,,1,,,33,121
62428,note_off,,,,,28,0,1,,,,,0,,,88,77
62460,note_off,,,,,60,0,2,,,,,1,,,45,77
62460,note_off,,,,,0,0,2,,,,,1,,,33,77
62460,note_off,,,,,0,0,2,,,,,1,,,40,77
62496,note_on,,,,,68,0,1,,,,,0,,,83,121
62524,note_off,,,,,28,0,1,,,,,0,,,83,77
62592,note_on,,,,,0,0,2,,,,,1,,,33,121
62592,note_on,,,,,132,0,2,,,,,1,,,45,121
62592,note_on,,,,,0,0,2,,,,,1,,,40,121
62592,note_on,,,,,68,0,1,,,,,0,,,76,121
62620,note_off,,,,,28,0,1,,,,,0,,,76,77
62652,note_off,,,,,60,0,2,,,,,1,,,45,77
62652,note_off,,,,,0,0,2,,,,,1,,,40,77
62652,note_off,,,,,0,0,2,,,,,1,,,33,77
62688,note_on,,,,,68,0,1,,,,,0,,,83,121
62716,note_off,,,,,28,0,1,,,,,0,,,83,77
62784,note_on,,,,,68,0,1,,,,,0,,,88,121
62784,note_on,,,,,0,0,2,,,,,1,,,40,121
62784,note_on,,,,,132,0,2,,,,,1,,,45,121
62784,note_on,,,,,0,0,2,,,,,1,,,33,121
62812,note_off,,,,,28,0,1,,,,,0,,,88,77
62844,note_off,,,,,60,0,2,,,,,1,,,45,77
62844,note_off,,,,,0,0,2,,,,,1,,,33,77
62844,note_off,,,,,0,0,2,,,,,1,,,40,77
62880,note_on,,,,,68,0,1,,,,,0,,,95,121
62908,note_off,,,,,28,0,1,,,,,0,,,95,77
62976,note_on,,,,,0,0,2,,,,,1,,,33,121
62976,note_on,,,,,0,0,2,,,,,1,,,40,121
62976,note_on,,,,,68,0,1,,,,,0,,,100,121
62976,note_on,,,,,132,0,2,,,,,1,,,45,121
63036,note_off,,,,,0,0,2,,,,,1,,,33,77
63036,note_off,,,,,0,0,2,,,,,1,,,40,77
63036,note_off,,,,,60,0,2,,,,,1,,,45,77
63036,note_off,,,,,60,0,1,,,,,0,,,100,77
63168,note_on,,,,,0,0,2,,,,,1,,,33,121
63168,note_on,,,,,0,0,2,,,,,1,,,40,121
63168,note_on,,,,,132,0,2,,,,,1,,,45,121
63228,note_off,,,,,0,0,2,,,,,1,,,33,77
63228,note_off,,,,,60,0,2,,,,,1,,,45,77
63228,note_off,,,,,0,0,2,,,,,1,,,40,77
63360,note_on,,,,,0,0,2,,,,,1,,,40,121
63360,note_on,,,,,132,0,2,,,,,1,,,45,121
63360,note_on,,,,,0,0,2,,,,,1,,,33,121
63420,note_off,,,,,0,0,2,,,,,1,,,40,77
63420,note_off,,,,,0,0,2,,,,,1,,,33,77
63420,note_off,,,,,60,0,2,,,,,1,,,45,77
63456,note_on,,,,,420,0,1,,,,,0,,,52,121
63516,note_off,,,,,60,0,1,,,,,0,,,52,77
63552,note_on,,,,,36,0,1,,,,,0,,,57,121
63552,note_on,,,,,0,0,2,,,,,1,,,52,121
63552,note_on,,,,,132,0,2,,,,,1,,,49,121
63612,note_off,,,,,60,0,1,,,,,0,,,57,77
63612,note_off,,,,,60,0,2,,,,,1,,,49,77
63612,note_off,,,,,0,0,2,,,,,1,,,52,77
63840,note_on,,,,,228,0,1,,,,,0,,,57,121
63900,note_off,,,,,60,0,1,,,,,0,,,57,77
63936,note_on,,,,,36,0,1,,,,,0,,,64,121
63936,note_on,,,,,0,0,2,,,,,1,,,52,121
63936,note_on,,,,,324,0,2,,,,,1,,,52,121
63936,note_on,,,,,0,0,2,,,,,1,,,49,121
63996,note_off,,,,,0,0,2,,,,,1,,,49,77
63996,note_off,,,,,0,0,2,,,,,1,,,52,77
63996,note_off,,,,,60,0,2,,,,,1,,,52,77
64060,note_off,,,,,124,0,1,,,,,0,,,64,77
64128,note_on,,,,,132,0,2,,,,,1,,,52,121
64128,note_on,,,,,0,0,2,,,,,1,,,49,121
64188,note_off,,,,,0,0,2,,,,,1,,,49,77
64188,note_off,,,,,60,0,2,,,,,1,,,52,77
64320,note_on,,,,,0,0,2,,,,,1,,,49,121
64320,note_on,,,,,132,0,2,,,,,1,,,52,121
64320,note_on,,,,,260,0,1,,,,,0,,,61,121
64380,note_off,,,,,0,0,2,,,,,1,,,49,77
64380,note_off,,,,,60,0,1,,,,,0,,,61,77
64380,note_off,,,,,60,0,2,,,,,1,,,52,77
64512,note_on,,,,,0,0,2,,,,,1,,,49,121
64512,note_on,,,,,132,0,1,,,,,0,,,59,121
64512,note_on,,,,,132,0,2,,,,,1,,,52,121
64540,note_off,,,,,28,0,1,,,,,0,,,59,77
64572,note_off,,,,,0,0,2,,,,,1,,,49,77
64572,note_off,,,,,60,0,2,,,,,1,,,52,77
64608,note_on,,,,,68,0,1,,,,,0,,,61,121
64636,note_off,,,,,28,0,1,,,,,0,,,61,77
64704,note_on,,,,,68,0,1,,,,,0,,,59,121
64704,note_on,,,,,132,0,2,,,,,1,,,52,121
64704,note_on,,,,,0,0,2,,,,,1,,,49,121
64764,note_off,,,,,0,0,2,,,,,1,,,49,77
64764,note_off,,,,,60,0,2,,,,,1,,,52,77
64764,note_off,,,,,60,0,1,,,,,0,,,59,77
64896,note_on,,,,,132,0,2,,,,,1,,,52,121
64896,note_on,,,,,132,0,1,,,,,0,,,57,121
64896,note_on,,,,,0,0,2,,,,,1,,,49,121
64956,note_off,,,,,60,0,1,,,,,0,,,57,77
64956,note_off,,,,,0,0,2,,,,,1,,,49,77
64956,note_off,,,,,60,0,2,,,,,1,,,52,77
65088,note_on,,,,,132,0,2,,,,,1,,,52,121
65088,note_on,,,,,132,0,1,,,,,0,,,56,121
65088,note_on,,,,,0,0,2,,,,,1,,,49,121
65116,note_off,,,,,28,0,1,,,,,0,,,56,77
65148,note_off,,,,,60,0,2,,,,,1,,,52,77
65148,note_off,,,,,0,0,2,,,,,1,,,49,77
65184,note_on,,,,,68,0,1,,,,,0,,,57,121
65212,note_off,,,,,28,0,1,,,,,0,,,57,77
65280,note_on,,,,,68,0,1,,,,,0,,,56,121
65280,note_on,,,,,0,0,2,,,,,1,,,49,121
65280,note_on,,,,,132,0,2,,,,,1,,,52,121
65340,note_off,,,,,60,0,2,,,,,1,,,52,77
65340,note_off,,,,,0,0,2,,,,,1,,,49,77
65340,note_off,,,,,60,0,1,,,,,0,,,56,77
65472,note_on,,,,,0,0,2,,,,,1,,,49,121
65472,note_on,,,,,132,0,2,,,,,1,,,52,121
65472,note_on,,,,,132,0,1,,,,,0,,,54,121
65532,note_off,,,,,60,0,1,,,,,0,,,54,77
65532,note_off,,,,,0,0,2,,,,,1,,,49,77
65532,note_off,,,,,60,0,2,,,,,1,,,52,77
65664,note_on,,,,,132,0,1,,,,,0,,,53,121
65724,note_off,,,,,60,0,1,,,,,0,,,53,77
65760,note_on,,,,,0,0,2,,,,,1,,,57,121
65760,note_on,,,,,228,0,2,,,,,1,,,61,121
65760,note_on,,,,,36,0,1,,,,,0,,,54,121
65788,note_off,,,,,28,0,1,,,,,0,,,54,77
65820,note_off,,,,,60,0,2,,,,,1,,,61,77
65820,note_off,,,,,0,0,2,,,,,1,,,57,77
65856,note_on,,,,,68,0,1,,,,,0,,,56,121
65884,note_off,,,,,28,0,1,,,,,0,,,56,77
66048,note_on,,,,,164,0,1,,,,,0,,,54,121
66048,note_on,,,,,228,0,2,,,,,1,,,61,121
66048,note_on,,,,,0,0,2,,,,,1,,,57,121
66108,note_off,,,,,60,0,2,,,,,1,,,61,77
66108,note_off,,,,,0,0,2,,,,,1,,,57,77
66108,note_off,,,,,60,0,1,,,,,0,,,54,77
66240,note_on,,,,,132,0,2,,,,,1,,,61,121
66240,note_on,,,,,0,0,2,,,,,1,,,57,121
66240,note_on,,,,,132,0,1,,,,,0,,,51,121
66300,note_off,,,,,60,0,1,,,,,0,,,51,77
66300,note_off,,,,,0,0,2,,,,,1,,,57,77
66300,note_off,,,,,60,0,2,,,,,1,,,61,77
66432,note_on,,,,,132,0,2,,,,,1,,,61,121
66432,note_on,,,,,132,0,1,,,,,0,,,52,121
66432,note_on,,,,,0,0,2,,,,,1,,,57,121
66460,note_off,,,,,28,0,1,,,,,0,,,52,77
66492,note_off,,,,,60,0,2,,,,,1,,,61,77
66492,note_off,,,,,0,0,2,,,,,1,,,57,77
66528,note_on,,,,,68,0,1,,,,,0,,,54,121
66556,note_off,,,,,28,0,1,,,,,0,,,54,77
66624,note_on,,,,,0,0,2,,,,,1,,,57,121
66624,note_on,,,,,132,0,2,,,,,1,,,61,121
66624,note_on,,,,,68,0,1,,,,,0,,,52,121
66684,note_off,,,,,0,0,2,,,,,1,,,57,77
66684,note_off,,,,,60,0,1,,,,,0,,,52,77
66684,note_off,,,,,60,0,2,,,,,1,,,61,77
66816,note_on,,,,,0,0,2,,,,,1,,,61,121
66816,note_on,,,,,132,0,2,,,,,1,,,61,121
66816,note_on,,,,,0,0,2,,,,,1,,,57,121
66876,note_off,,,,,0,0,2,,,,,1,,,57,77
66876,note_off,,,,,0,0,2,,,,,1,,,61,77
66876,note_off,,,,,60,0,2,,,,,1,,,61,77
67008,note_on,,,,,0,0,2,,,,,1,,,57,121
67008,note_on,,,,,132,0,2,,,,,1,,,61,121
67008,note_on,,,,,324,0,1,,,,,0,,,49,121
67068,note_off,,,,,60,0,1,,,,,0,,,49,77
67068,note_off,,,,,60,0,2,,,,,1,,,61,77
67068,note_off,,,,,0,0,2,,,,,1,,,57,77
67200,note_on,,,,,132,0,1,,,,,0,,,50,121
67200,note_on,,,,,0,0,2,,,,,1,,,57,121
67200,note_on,,,,,132,0,2,,,,,1,,,61,121
67260,note_off,,,,,0,0,2,,,,,1,,,57,77
67260,note_off,,,,,60,0,2,,,,,1,,,61,77
67260,note_off,,,,,60,0,1,,,,,0,,,50,77
67392,note_on,,,,,0,0,2,,,,,1,,,57,121
67392,note_on,,,,,132,0,2,,,,,1,,,61,121
67392,note_on,,,,,132,0,1,,,,,0,,,51,121
67452,note_off,,,,,0,0,2,,,,,1,,,57,77
67452,note_off,,,,,60,0,2,,,,,1,,,61,77
67452,note_off,,,,,60,0,1,,,,,0,,,51,77
67584,note_on,,,,,132,0,2,,,,,1,,,61,121
67584,note_on,,,,,0,0,2,,,,,1,,,57,121
67584,note_on,,,,,132,0,1,,,,,0,,,54,121
67644,note_off,,,,,60,0,2,,,,,1,,,61,77
67644,note_off,,,,,60,0,1,,,,,0,,,54,77
67644,note_off,,,,,0,0,2,,,,,1,,,57,77
67776,note_on,,,,,132,0,2,,,,,1,,,61,121
67776,note_on,,,,,0,0,2,,,,,1,,,57,121
67776,note_on,,,,,132,0,1,,,,,0,,,52,121
67836,note_off,,,,,60,0,1,,,,,0,,,52,77
67836,note_off,,,,,60,0,2,,,,,1,,,61,77
67836,note_off,,,,,0,0,2,,,,,1,,,57,77
67968,note_on,,,,,0,0,2,,,,,1,,,40,121
67968,note_on,,,,,0,0,2,,,,,1,,,33,121
67968,note_on,,,,,132,0,2,,,,,1,,,45,121
68028,note_off,,,,,0,0,2,,,,,1,,,33,77
68028,note_off,,,,,0,0,2,,,,,1,,,40,77
68028,note_off,,,,,60,0,2,,,,,1,,,45,77
68064,note_on,,,,,228,0,1,,,,,0,,,52,121
68124,note_off,,,,,60,0,1,,,,,0,,,52,77
68160,note_on,,,,,0,0,2,,,,,1,,,49,121
68160,note_on,,,,,36,0,1,,,,,0,,,57,121
68160,note_on,,,,,132,0,2,,,,,1,,,52,121
68220,note_off,,,,,60,0,1,,,,,0,,,57,77
68220,note_off,,,,,60,0,2,,,,,1,,,52,77
68220,note_off,,,,,0,0,2,,,,,1,,,49,77
68448,note_on,,,,,228,0,1,,,,,0,,,57,121
68508,note_off,,,,,60,0,1,,,,,0,,,57,77
68544,note_on,,,,,324,0,2,,,,,1,,,52,121
68544,note_on,,,,,36,0,1,,,,,0,,,64,121
68544,note_on,,,,,0,0,2,,,,,1,,,49,121
68604,note_off,,,,,60,0,2,,,,,1,,,52,77
68604,note_off,,,,,0,0,2,,,,,1,,,49,77
68668,note_off,,,,,124,0,1,,,,,0,,,64,77
68736,note_on,,,,,132,0,2,,,,,1,,,52,121
68736,note_on,,,,,0,0,2,,,,,1,,,49,121
68796,note_off,,,,,0,0,2,,,,,1,,,49,77
68796,note_off,,,,,60,0,2,,,,,1,,,52,77
68928,note_on,,,,,0,0,2,,,,,1,,,52,121
68928,note_on,,,,,132,0,2,,,,,1,,,49,121
68928,note_on,,,,,260,0,1,,,,,0,,,61,121
68988,note_off,,,,,0,0,2,,,,,1,,,52,77
68988,note_off,,,,,60,0,1,,,,,0,,,61,77
68988,note_off,,,,,60,0,2,,,,,1,,,49,77
69120,note_on,,,,,132,0,2,,,,,1,,,49,121
69120,note_on,,,,,132,0,1,,,,,0,,,59,121
69120,note_on,,,,,0,0,2,,,,,1,,,52,121
69148,note_off,,,,,28,0,1,,,,,0,,,59,77
69180,note_off,,,,,60,0,2,,,,,1,,,49,77
69180,note_off,,,,,0,0,2,,,,,1,,,52,77
69216,note_on,,,,,68,0,1,,,,,0,,,61,121
69244,note_off,,,,,28,0,1,,,,,0,,,61,77
69312,note_on,,,,,132,0,2,,,,,1,,,49,121
69312,note_on,,,,,68,0,1,,,,,0,,,59,121
69312,note_on,,,,,0,0,2,,,,,1,,,52,121
69372,note_off,,,,,60,0,1,,,,,0,,,59,77
69372,note_off,,,,,60,0,2,,,,,1,,,49,77
69372,note_off,,,,,0,0,2,,,,,1,,,52,77
69504,note_on,,,,,0,0,2,,,,,1,,,52,121
69504,note_on,,,,,132,0,1,,,,,0,,,57,121
69504,note_on,,,,,132,0,2,,,,,1,,,49,121
69564,note_off,,,,,60,0,1,,,,,0,,,57,77
69564,note_off,,,,,0,0,2,,,,,1,,,52,77
69564,note_off,,,,,60,0,2,,,,,1,,,49,77
69696,note_on,,,,,132,0,1,,,,,0,,,56,121
69696,note_on,,,,,132,0,2,,,,,1,,,49,121
69696,note_on,,,,,0,0,2,,,,,1,,,52,121
69724,note_off,,,,,28,0,1,,,,,0,,,56,77
69756,note_off,,,,,60,0,2,,,,,1,,,49,77
69756,note_off,,,,,0,0,2,,,,,1,,,52,77
69792,note_on,,,,,68,0,1,,,,,0,,,57,121
69820,note_off,,,,,28,0,1,,,,,0,,,57,77
69888,note_on,,,,,132,0,2,,,,,1,,,49,121
69888,note_on,,,,,68,0,1,,,,,0,,,56,121
69888,note_on,,,,,0,0,2,,,,,1,,,52,121
69948,note_off,,,,,60,0,2,,,,,1,,,49,77
69948,note_off,,,,,0,0,2,,,,,1,,,52,77
69948,note_off,,,,,60,0,1,,,,,0,,,56,77
70080,note_on,,,,,132,0,2,,,,,1,,,49,121
70080,note_on,,,,,132,0,1,,,,,0,,,54,121
70080,note_on,,,,,0,0,2,,,,,1,,,52,121
70140,note_off,,,,,60,0,2,,,,,1,,,49,77
70140,note_off,,,,,0,0,2,,,,,1,,,52,77
70140,note_off,,,,,60,0,1,,,,,0,,,54,77
70272,note_on,,,,,132,0,1,,,,,0,,,53,121
70332,note_off,,,,,60,0,1,,,,,0,,,53,77
70464,note_on,,,,,132,0,1,,,,,0,,,54,121
70464,note_on,,,,,324,0,2,,,,,1,,,57,121
70464,note_on,,,,,0,0,2,,,,,1,,,61,121
70492,note_off,,,,,28,0,1,,,,,0,,,54,77
70524,note_off,,,,,0,0,2,,,,,1,,,61,77
70524,note_off,,,,,60,0,2,,,,,1,,,57,77
70560,note_on,,,,,68,0,1,,,,,0,,,56,121
70588,note_off,,,,,28,0,1,,,,,0,,,56,77
70656,note_on,,,,,68,0,1,,,,,0,,,54,121
70656,note_on,,,,,0,0,2,,,,,1,,,61,121
70656,note_on,,,,,132,0,2,,,,,1,,,57,121
70716,note_off,,,,,60,0,2,,,,,1,,,57,77
70716,note_off,,,,,0,0,2,,,,,1,,,61,77
70716,note_off,,,,,60,0,1,,,,,0,,,54,77
70848,note_on,,,,,132,0,1,,,,,0,,,51,121
70848,note_on,,,,,0,0,2,,,,,1,,,61,121
70848,note_on,,,,,132,0,2,,,,,1,,,57,121
70908,note_off,,,,,0,0,2,,,,,1,,,61,77
70908,note_off,,,,,60,0,1,,,,,0,,,51,77
70908,note_off,,,,,60,0,2,,,,,1,,,57,77
71040,note_on,,,,,132,0,2,,,,,1,,,57,121
71040,note_on,,,,,0,0,2,,,,,1,,,61,121
71040,note_on,,,,,132,0,1,,,,,0,,,52,121
71068,note_off,,,,,28,0,1,,,,,0,,,52,77
71100,note_off,,,,,0,0,2,,,,,1,,,61,77
71100,note_off,,,,,60,0,2,,,,,1,,,57,77
71136,note_on,,,,,68,0,1,,,,,0,,,54,121
71164,note_off,,,,,28,0,1,,,,,0,,,54,77
71232,note_on,,,,,68,0,1,,,,,0,,,52,121
71232,note_on,,,,,0,0,2,,,,,1,,,61,121
71232,note_on,,,,,132,0,2,,,,,1,,,57,121
71292,note_off,,,,,60,0,2,,,,,1,,,57,77
71292,note_off,,,,,0,0,2,,,,,1,,,61,77
71292,note_off,,,,,60,0,1,,,,,0,,,52,77
71424,note_on,,,,,132,0,2,,,,,1,,,57,121
71424,note_on,,,,,0,0,2,,,,,1,,,61,121
71484,note_off,,,,,60,0,2,,,,,1,,,57,77
71484,note_off,,,,,0,0,2,,,,,1,,,61,77
71616,note_on,,,,,324,0,1,,,,,0,,,49,121
71616,note_on,,,,,132,0,2,,,,,1,,,57,121
71616,note_on,,,,,0,0,2,,,,,1,,,61,121
71676,note_off,,,,,0,0,2,,,,,1,,,61,77
71676,note_off,,,,,60,0,2,,,,,1,,,57,77
71676,note_off,,,,,60,0,1,,,,,0,,,49,77
71808,note_on,,,,,132,0,2,,,,,1,,,57,121
71808,note_on,,,,,0,0,2,,,,,1,,,61,121
71808,note_on,,,,,132,0,1,,,,,0,,,50,121
71868,note_off,,,,,60,0,1,,,,,0,,,50,77
71868,note_off,,,,,0,0,2,,,,,1,,,61,77
71868,note_off,,,,,60,0,2,,,,,1,,,57,77
72000,note_on,,,,,132,0,1,,,,,0,,,51,121
72000,note_on,,,,,132,0,2,,,,,1,,,57,121
72000,note_on,,,,,0,0,2,,,,,1,,,61,121
72060,note_off,,,,,0,0,2,,,,,1,,,61,77
72060,note_off,,,,,60,0,2,,,,,1,,,57,77
72060,note_off,,,,,60,0,1,,,,,0,,,51,77
72192,note_on,,,,,132,0,2,,,,,1,,,57,121
72192,note_on,,,,,132,0,1,,,,,0,,,54,121
72192,note_on,,,,,0,0,2,,,,,1,,,61,121
72252,note_off,,,,,60,0,1,,,,,0,,,54,77
72252,note_off,,,,,0,0,2,,,,,1,,,61,77
72252,note_off,,,,,60,0,2,,,,,1,,,57,77
72384,note_on,,,,,0,0,2,,,,,1,,,61,121
72384,note_on,,,,,132,0,1,,,,,0,,,52,121
72384,note_on,,,,,132,0,2,,,,,1,,,57,121
72444,note_off,,,,,0,0,2,,,,,1,,,61,77
72444,note_off,,,,,60,0,2,,,,,1,,,57,77
72444,note_off,,,,,60,0,1,,,,,0,,,52,77
72576,note_on,,,,,132,0,2,,,,,1,,,45,121
72576,note_on,,,,,0,0,2,,,,,1,,,40,121
72576,note_on,,,,,0,0,2,,,,,1,,,33,121
72636,note_off,,,,,0,0,2,,,,,1,,,33,77
72636,note_off,,,,,60,0,2,,,,,1,,,45,77
72636,note_off,,,,,0,0,2,,,,,1,,,40,77
72672,note_on,,,,,228,0,1,,,,,0,,,52,121
72732,note_off,,,,,60,0,1,,,,,0,,,52,77
72864,note_on,,,,,228,0,2,,,,,1,,,49,121
72864,note_on,,,,,132,0,1,,,,,0,,,57,121
72864,note_on,,,,,0,0,2,,,,,1,,,52,121
72924,note_off,,,,,60,0,2,,,,,1,,,49,77
72924,note_off,,,,,0,0,2,,,,,1,,,52,77
72924,note_off,,,,,60,0,1,,,,,0,,,57,77
73056,note_on,,,,,132,0,1,,,,,0,,,57,121
73116,note_off,,,,,60,0,1,,,,,0,,,57,77
73152,note_on,,,,,36,0,1,,,,,0,,,64,121
73152,note_on,,,,,228,0,2,,,,,1,,,49,121
73152,note_on,,,,,0,0,1,,,,,0,,,64,121
73152,note_on,,,,,0,0,2,,,,,1,,,52,121
73212,note_off,,,,,60,0,2,,,,,1,,,49,77
73212,note_off,,,,,0,0,2,,,,,1,,,52,77
73276,note_off,,,,,124,0,1,,,,,0,,,64,77
73344,note_on,,,,,0,0,2,,,,,1,,,52,121
73344,note_on,,,,,132,0,2,,,,,1,,,49,121
73404,note_off,,,,,0,0,2,,,,,1,,,52,77
73404,note_off,,,,,60,0,2,,,,,1,,,49,77
73408,note_off,,,,,132,0,1,,,,,0,,,64,77
73536,note_on,,,,,128,0,1,,,,,0,,,61,121
73536,note_on,,,,,0,0,2,,,,,1,,,52,121
73536,note_on,,,,,0,0,2,,,,,1,,,57,121
73536,note_on,,,,,132,0,2,,,,,1,,,49,121
73596,note_off,,,,,0,0,2,,,,,1,,,52,77
73596,note_off,,,,,60,0,2,,,,,1,,,49,77
73596,note_off,,,,,60,0,1,,,,,0,,,61,77
73596,note_off,,,,,0,0,2,,,,,1,,,57,77
73632,note_on,,,,,36,0,1,,,,,0,,,61,121
73692,note_off,,,,,60,0,1,,,,,0,,,61,77
73728,note_on,,,,,36,0,1,,,,,0,,,64,121
73728,note_on,,,,,0,0,2,,,,,1,,,54,121
73728,note_on,,,,,0,0,2,,,,,1,,,48,121
73728,note_on,,,,,132,0,2,,,,,1,,,57,121
73728,note_on,,,,,0,0,1,,,,,0,,,64,121
73788,note_off,,,,,0,0,2,,,,,1,,,54,77
73788,note_off,,,,,0,0,2,,,,,1,,,48,77
73788,note_off,,,,,60,0,2,,,,,1,,,57,77
73852,note_off,,,,,124,0,1,,,,,0,,,64,77
73920,note_on,,,,,132,0,2,,,,,1,,,57,121
73920,note_on,,,,,0,0,2,,,,,1,,,48,121
73920,note_on,,,,,0,0,2,,,,,1,,,54,121
73980,note_off,,,,,0,0,2,,,,,1,,,54,77
73980,note_off,,,,,0,0,2,,,,,1,,,48,77
73980,note_off,,,,,60,0,2,,,,,1,,,57,77
73984,note_off,,,,,132,0,1,,,,,0,,,64,77
74112,note_on,,,,,0,0,2,,,,,1,,,54,121
74112,note_on,,,,,132,0,2,,,,,1,,,57,121
74112,note_on,,,,,128,0,1,,,,,0,,,63,121
74112,note_on,,,,,0,0,2,,,,,1,,,48,121
74172,note_off,,,,,60,0,2,,,,,1,,,57,77
74172,note_off,,,,,0,0,2,,,,,1,,,48,77
74172,note_off,,,,,60,0,1,,,,,0,,,63,77
74172,note_off,,,,,0,0,2,,,,,1,,,54,77
74208,note_on,,,,,36,0,1,,,,,0,,,63,121
74268,note_off,,,,,60,0,1,,,,,0,,,63,77
74304,note_on,,,,,132,0,2,,,,,1,,,49,121
74304,note_on,,,,,0,0,1,,,,,0,,,64,121
74304,note_on,,,,,36,0,1,,,,,0,,,64,121
74304,note_on,,,,,0,0,2,,,,,1,,,57,121
74304,note_on,,,,,0,0,2,,,,,1,,,52,121
74364,note_off,,,,,0,0,2,,,,,1,,,57,77
74364,note_off,,,,,60,0,2,,,,,1,,,49,77
74364,note_off,,,,,0,0,2,,,,,1,,,52,77
74428,note_off,,,,,124,0,1,,,,,0,,,64,77
74496,note_on,,,,,0,0,2,,,,,1,,,57,121
74496,note_on,,,,,0,0,2,,,,,1,,,52,121
74496,note_on,,,,,132,0,2,,,,,1,,,49,121
74556,note_off,,,,,60,0,2,,,,,1,,,49,77
74556,note_off,,,,,0,0,2,,,,,1,,,57,77
74556,note_off,,,,,0,0,2,,,,,1,,,52,77
74560,note_off,,,,,132,0,1,,,,,0,,,64,77
74688,note_on,,,,,132,0,2,,,,,1,,,49,121
74688,note_on,,,,,0,0,2,,,,,1,,,57,121
74688,note_on,,,,,0,0,2,,,,,1,,,52,121
74688,note_on,,,,,128,0,1,,,,,0,,,61,121
74748,note_off,,,,,0,0,2,,,,,1,,,57,77
74748,note_off,,,,,0,0,2,,,,,1,,,52,77
74748,note_off,,,,,60,0,2,,,,,1,,,49,77
74748,note_off,,,,,60,0,1,,,,,0,,,61,77
74784,note_on,,,,,36,0,1,,,,,0,,,61,121
74844,note_off,,,,,60,0,1,,,,,0,,,61,77
74880,note_on,,,,,0,0,1,,,,,0,,,64,121
74880,note_on,,,,,36,0,1,,,,,0,,,64,121
74880,note_on,,,,,132,0,2,,,,,1,,,47,121
74880,note_on,,,,,0,0,2,,,,,1,,,54,121
74880,note_on,,,,,0,0,2,,,,,1,,,57,121
74940,note_off,,,,,60,0,2,,,,,1,,,47,77
74940,note_off,,,,,0,0,2,,,,,1,,,54,77
74940,note_off,,,,,0,0,2,,,,,1,,,57,77
75004,note_off,,,,,124,0,1,,,,,0,,,64,77
75072,note_on,,,,,0,0,2,,,,,1,,,54,121
75072,note_on,,,,,0,0,2,,,,,1,,,57,121
75072,note_on,,,,,132,0,2,,,,,1,,,47,121
75132,note_off,,,,,0,0,2,,,,,1,,,57,77
75132,note_off,,,,,60,0,2,,,,,1,,,47,77
75132,note_off,,,,,0,0,2,,,,,1,,,54,77
75136,note_off,,,,,132,0,1,,,,,0,,,64,77
75264,note_on,,,,,128,0,1,,,,,0,,,63,121
75264,note_on,,,,,0,0,2,,,,,1,,,57,121
75264,note_on,,,,,0,0,2,,,,,1,,,54,121
75264,note_on,,,,,132,0,2,,,,,1,,,47,121
75324,note_off,,,,,0,0,2,,,,,1,,,54,77
75324,note_off,,,,,0,0,2,,,,,1,,,57,77
75324,note_off,,,,,60,0,2,,,,,1,,,47,77
75324,note_off,,,,,60,0,1,,,,,0,,,63,77
75360,note_on,,,,,36,0,1,,,,,0,,,63,121
75420,note_off,,,,,60,0,1,,,,,0,,,63,77
75456,note_on,,,,,0,0,2,,,,,1,,,52,121
75456,note_on,,,,,0,0,2,,,,,1,,,57,121
75456,note_on,,,,,36,0,1,,,,,0,,,64,121
75456,note_on,,,,,132,0,2,,,,,1,,,49,121
75456,note_on,,,,,0,0,1,,,,,0,,,64,121
75516,note_off,,,,,0,0,2,,,,,1,,,57,77
75516,note_off,,,,,60,0,2,,,,,1,,,49,77
75516,note_off,,,,,0,0,2,,,,,1,,,52,77
75580,note_off,,,,,124,0,1,,,,,0,,,64,77
75648,note_on,,,,,0,0,2,,,,,1,,,52,121
75648,note_on,,,,,0,0,2,,,,,1,,,57,121
75648,note_on,,,,,132,0,2,,,,,1,,,49,121
75708,note_off,,,,,0,0,2,,,,,1,,,52,77
75708,note_off,,,,,60,0,2,,,,,1,,,49,77
75708,note_off,,,,,0,0,2,,,,,1,,,57,77
75712,note_off,,,,,132,0,1,,,,,0,,,64,77
75840,note_on,,,,,128,0,1,,,,,0,,,61,121
75840,note_on,,,,,132,0,2,,,,,1,,,49,121
75840,note_on,,,,,0,0,2,,,,,1,,,57,121
75840,note_on,,,,,0,0,2,,,,,1,,,52,121
75900,note_off,,,,,60,0,1,,,,,0,,,61,77
75900,note_off,,,,,0,0,2,,,,,1,,,57,77
75900,note_off,,,,,60,0,2,,,,,1,,,49,77
75900,note_off,,,,,0,0,2,,,,,1,,,52,77
76032,note_on,,,,,0,0,1,,,,,0,,,64,121
76032,note_on,,,,,0,0,2,,,,,1,,,52,121
76032,note_on,,,,,0,0,2,,,,,1,,,49,121
76032,note_on,,,,,132,0,2,,,,,1,,,57,121
76032,note_on,,,,,132,0,1,,,,,0,,,76,121
76032,note_on,,,,,0,0,1,,,,,0,,,69,121
76092,note_off,,,,,0,0,2,,,,,1,,,52,77
76092,note_off,,,,,0,0,2,,,,,1,,,49,77
76092,note_off,,,,,60,0,2,,,,,1,,,57,77
76156,note_off,,,,,0,0,1,,,,,0,,,69,77
76156,note_off,,,,,124,0,1,,,,,0,,,76,77
76156,note_off,,,,,0,0,1,,,,,0,,,64,77
76224,note_on,,,,,0,0,2,,,,,1,,,52,121
76224,note_on,,,,,132,0,2,,,,,1,,,49,121
76224,note_on,,,,,0,0,2,,,,,1,,,57,121
76284,note_off,,,,,60,0,2,,,,,1,,,49,77
76284,note_off,,,,,0,0,2,,,,,1,,,57,77
76284,note_off,,,,,0,0,2,,,,,1,,,52,77
76416,note_on,,,,,0,0,2,,,,,1,,,52,121
76416,note_on,,,,,132,0,2,,,,,1,,,49,121
76416,note_on,,,,,0,0,2,,,,,1,,,57,121
76416,note_on,,,,,260,0,1,,,,,0,,,73,121
76476,note_off,,,,,0,0,2,,,,,1,,,57,77
76476,note_off,,,,,60,0,2,,,,,1,,,49,77
76476,note_off,,,,,0,0,2,,,,,1,,,52,77
76476,note_off,,,,,60,0,1,,,,,0,,,73,77
76608,note_on,,,,,0,0,2,,,,,1,,,49,121
76608,note_on,,,,,0,0,2,,,,,1,,,52,121
76608,note_on,,,,,132,0,2,,,,,1,,,57,121
76608,note_on,,,,,0,0,1,,,,,0,,,81,121
76608,note_on,,,,,0,0,1,,,,,0,,,88,121
76608,note_on,,,,,132,0,1,,,,,0,,,76,121
76668,note_off,,,,,0,0,2,,,,,1,,,49,77
76668,note_off,,,,,60,0,2,,,,,1,,,57,77
76668,note_off,,,,,0,0,2,,,,,1,,,52,77
76732,note_off,,,,,0,0,1,,,,,0,,,81,77
76732,note_off,,,,,0,0,1,,,,,0,,,88,77
76732,note_off,,,,,124,0,1,,,,,0,,,76,77
76800,note_on,,,,,0,0,2,,,,,1,,,52,121
76800,note_on,,,,,132,0,2,,,,,1,,,57,121
76800,note_on,,,,,0,0,2,,,,,1,,,49,121
76860,note_off,,,,,60,0,2,,,,,1,,,57,77
76860,note_off,,,,,0,0,2,,,,,1,,,49,77
76860,note_off,,,,,0,0,2,,,,,1,,,52,77
76992,note_on,,,,,260,0,1,,,,,0,,,85,121
76992,note_on,,,,,0,0,2,,,,,1,,,49,121
76992,note_on,,,,,0,0,2,,,,,1,,,52,121
76992,note_on,,,,,132,0,2,,,,,1,,,57,121
77052,note_off,,,,,0,0,2,,,,,1,,,49,77
77052,note_off,,,,,0,0,2,,,,,1,,,52,77
77052,note_off,,,,,60,0,1,,,,,0,,,85,77
77052,note_off,,,,,60,0,2,,,,,1,,,57,77
77184,note_on,,,,,132,0,2,,,,,1,,,57,121
77184,note_on,,,,,132,0,1,,,,,0,,,88,121
77184,note_on,,,,,0,0,1,,,,,0,,,100,121
77184,note_on,,,,,0,0,1,,,,,0,,,93,121
77184,note_on,,,,,0,0,2,,,,,1,,,49,121
77184,note_on,,,,,0,0,2,,,,,1,,,52,121
77244,note_off,,,,,60,0,2,,,,,1,,,57,77
77244,note_off,,,,,60,0,1,,,,,0,,,88,77
77244,note_off,,,,,0,0,1,,,,,0,,,93,77
77244,note_off,,,,,0,0,1,,,,,0,,,100,77
77244,note_off,,,,,0,0,2,,,,,1,,,52,77
77244,note_off,,,,,0,0,2,,,,,1,,,49,77
77760,note_on,,,,,0,0,2,,,,,1,,,45,121
77760,note_on,,,,,0,0,2,,,,,1,,,37,121
77760,note_on,,,,,0,0,1,,,,,0,,,61,121
77760,note_on,,,,,516,0,1,,,,,0,,,66,121
77760,note_on,,,,,516,0,2,,,,,1,,,49,121
77760,note_on,,,,,0,0,1,,,,,0,,,57,121
77820,note_off,,,,,0,0,2,,,,,1,,,37,77
77820,note_off,,,,,0,0,1,,,,,0,,,61,77
77820,note_off,,,,,0,0,2,,,,,1,,,45,77
77820,note_off,,,,,60,0,1,,,,,0,,,66,77
77820,note_off,,,,,60,0,2,,,,,1,,,49,77
77820,note_off,,,,,0,0,1,,,,,0,,,57,77
78336,note_on,,,,,0,0,1,,,,,0,,,63,121
78336,note_on,,,,,0,0,2,,,,,1,,,48,121
78336,note_on,,,,,0,0,2,,,,,1,,,44,121
78336,note_on,,,,,0,0,2,,,,,1,,,36,121
78336,key_signature,,,,,516,1,2,,,,,,,Ab,,
78336,key_signature,,,,,516,1,1,,,,,,,Ab,,
78336,note_on,,,,,0,0,1,,,,,0,,,68,121
78336,note_on,,,,,0,0,1,,,,,0,,,56,121
78396,note_off,,,,,60,0,2,,,,,1,,,48,77
78396,note_off,,,,,0,0,1,,,,,0,,,63,77
78396,note_off,,,,,0,0,1,,,,,0,,,56,77
78396,note_off,,,,,0,0,2,,,,,1,,,44,77
78396,note_off,,,,,0,0,2,,,,,1,,,36,77
78396,note_off,,,,,60,0,1,,,,,0,,,68,77
78528,note_on,,,,,132,0,1,,,,,0,,,55,121
78588,note_off,,,,,60,0,1,,,,,0,,,55,77
78624,note_on,,,,,36,0,1,,,,,0,,,56,121
78684,note_off,,,,,60,0,1,,,,,0,,,56,77
78816,note_on,,,,,420,0,2,,,,,1,,,59,121
78876,note_off,,,,,60,0,2,,,,,1,,,59,77
78912,note_on,,,,,36,0,2,,,,,1,,,60,121
78972,note_off,,,,,60,0,2,,,,,1,,,60,77
79008,note_on,,,,,324,0,1,,,,,0,,,62,121
79068,note_off,,,,,60,0,1,,,,,0,,,62,77
79104,note_on,,,,,36,0,1,,,,,0,,,63,121
79164,note_off,,,,,60,0,1,,,,,0,,,63,77
79296,note_on,,,,,132,0,1,,,,,0,,,68,121
79356,note_off,,,,,60,0,1,,,,,0,,,68,77
79392,note_on,,,,,36,0,1,,,,,0,,,72,121
79452,note_off,,,,,60,0,1,,,,,0,,,72,77
79488,note_on,,,,,0,0,1,,,,,0,,,82,121
79488,note_on,,,,,0,0,1,,,,,0,,,89,121
79488,note_on,,,,,0,0,2,,,,,1,,,67,121
79488,note_on,,,,,36,0,1,,,,,0,,,77,121
79488,note_on,,,,,516,0,2,,,,,1,,,51,121
79488,note_on,,,,,0,0,2,,,,,1,,,61,121
79548,note_off,,,,,60,0,1,,,,,0,,,77,77
79548,note_off,,,,,0,0,1,,,,,0,,,82,77
79548,note_off,,,,,0,0,2,,,,,1,,,67,77
79548,note_off,,,,,60,0,2,,,,,1,,,51,77
79548,note_off,,,,,0,0,2,,,,,1,,,61,77
79548,note_off,,,,,0,0,1,,,,,0,,,89,77
79584,note_on,,,,,36,0,1,,,,,0,,,87,121
79612,note_off,,,,,28,0,1,,,,,0,,,87,77
79680,note_on,,,,,68,0,1,,,,,0,,,85,121
79680,note_on,,,,,0,0,2,,,,,1,,,67,121
79680,note_on,,,,,0,0,2,,,,,1,,,61,121
79680,note_on,,,,,132,0,2,,,,,1,,,58,121
79708,note_off,,,,,28,0,1,,,,,0,,,85,77
79740,note_off,,,,,0,0,2,,,,,1,,,61,77
79740,note_off,,,,,0,0,2,,,,,1,,,67,77
79740,note_off,,,,,60,0,2,,,,,1,,,58,77
79776,note_on,,,,,68,0,1,,,,,0,,,82,121
79804,note_off,,,,,28,0,1,,,,,0,,,82,77
79872,note_on,,,,,68,0,1,,,,,0,,,77,121
79872,note_on,,,,,132,0,2,,,,,1,,,67,121
79872,note_on,,,,,0,0,2,,,,,1,,,58,121
79872,note_on,,,,,0,0,2,,,,,1,,,61,121
79900,note_off,,,,,28,0,1,,,,,0,,,77,77
79932,note_off,,,,,0,0,2,,,,,1,,,61,77
79932,note_off,,,,,0,0,2,,,,,1,,,58,77
79932,note_off,,,,,60,0,2,,,,,1,,,67,77
80064,note_on,,,,,132,0,2,,,,,1,,,58,121
80064,note_on,,,,,164,0,1,,,,,0,,,75,121
80064,note_on,,,,,0,0,2,,,,,1,,,67,121
80064,note_on,,,,,0,0,2,,,,,1,,,61,121
80092,note_off,,,,,28,0,1,,,,,0,,,75,77
80124,note_off,,,,,0,0,2,,,,,1,,,61,77
80124,note_off,,,,,60,0,2,,,,,1,,,58,77
80124,note_off,,,,,0,0,2,,,,,1,,,67,77
80160,note_on,,,,,68,0,1,,,,,0,,,73,121
80188,note_off,,,,,28,0,1,,,,,0,,,73,77
80256,note_on,,,,,68,0,1,,,,,0,,,70,121
80284,note_off,,,,,28,0,1,,,,,0,,,70,77
80352,note_on,,,,,68,0,1,,,,,0,,,65,121
80380,note_off,,,,,28,0,1,,,,,0,,,65,77
80448,note_on,,,,,68,0,1,,,,,0,,,63,121
80476,note_off,,,,,28,0,1,,,,,0,,,63,77
80640,note_on,,,,,516,0,2,,,,,1,,,48,121
80640,note_on,,,,,0,0,1,,,,,0,,,80,121
80640,note_on,,,,,0,0,1,,,,,0,,,75,121
80640,note_on,,,,,0,0,2,,,,,1,,,60,121
80640,note_on,,,,,0,0,2,,,,,1,,,56,121
80640,note_on,,,,,164,0,1,,,,,0,,,68,121
80700,note_off,,,,,0,0,2,,,,,1,,,60,77
80700,note_off,,,,,60,0,2,,,,,1,,,48,77
80700,note_off,,,,,0,0,2,,,,,1,,,56,77
80700,note_off,,,,,0,0,1,,,,,0,,,75,77
80700,note_off,,,,,0,0,1,,,,,0,,,80,77
80700,note_off,,,,,60,0,1,,,,,0,,,68,77
81024,note_on,,,,,324,0,1,,,,,0,,,67,121
81084,note_off,,,,,60,0,1,,,,,0,,,67,77
81120,note_on,,,,,36,0,1,,,,,0,,,68,121
81180,note_off,,,,,60,0,1,,,,,0,,,68,77
81216,note_on,,,,,36,0,1,,,,,0,,,71,121
81276,note_off,,,,,60,0,1,,,,,0,,,71,77
81312,note_on,,,,,36,0,1,,,,,0,,,74,121
81372,note_off,,,,,60,0,1,,,,,0,,,74,77
81408,note_on,,,,,36,0,1,,,,,0,,,75,121
81468,note_off,,,,,60,0,1,,,,,0,,,75,77
81504,note_on,,,,,36,0,1,,,,,0,,,80,121
81564,note_off,,,,,60,0,1,,,,,0,,,80,77
81600,note_on,,,,,36,0,1,,,,,0,,,84,121
81660,note_off,,,,,60,0,1,,,,,0,,,84,77
81792,note_on,,,,,0,0,1,,,,,0,,,101,121
81792,note_on,,,,,0,0,1,,,,,0,,,94,121
81792,note_on,,,,,132,0,1,,,,,0,,,89,121
81792,note_on,,,,,0,0,2,,,,,1,,,73,121
81792,note_on,,,,,1092,0,2,,,,,1,,,79,121
81792,note_on,,,,,0,0,2,,,,,1,,,63,121
81852,note_off,,,,,0,0,2,,,,,1,,,63,77
81852,note_off,,,,,0,0,2,,,,,1,,,73,77
81852,note_off,,,,,0,0,1,,,,,0,,,94,77
81852,note_off,,,,,0,0,1,,,,,0,,,101,77
81852,note_off,,,,,60,0,1,,,,,0,,,89,77
81852,note_off,,,,,60,0,2,,,,,1,,,79,77
81888,note_on,,,,,36,0,1,,,,,0,,,99,121
81916,note_off,,,,,28,0,1,,,,,0,,,99,77
81984,note_on,,,,,132,0,2,,,,,1,,,79,121
81984,note_on,,,,,0,0,2,,,,,1,,,70,121
81984,note_on,,,,,0,0,2,,,,,1,,,73,121
81984,note_on,,,,,68,0,1,,,,,0,,,97,121
82012,note_off,,,,,28,0,1,,,,,0,,,97,77
82044,note_off,,,,,0,0,2,,,,,1,,,70,77
82044,note_off,,,,,60,0,2,,,,,1,,,79,77
82044,note_off,,,,,0,0,2,,,,,1,,,73,77
82080,note_on,,,,,68,0,1,,,,,0,,,94,121
82108,note_off,,,,,28,0,1,,,,,0,,,94,77
82176,note_on,,,,,0,0,2,,,,,1,,,70,121
82176,note_on,,,,,132,0,2,,,,,1,,,79,121
82176,note_on,,,,,0,0,2,,,,,1,,,73,121
82176,note_on,,,,,68,0,1,,,,,0,,,89,121
82204,note_off,,,,,28,0,1,,,,,0,,,89,77
82236,note_off,,,,,0,0,2,,,,,1,,,70,77
82236,note_off,,,,,60,0,2,,,,,1,,,79,77
82236,note_off,,,,,0,0,2,,,,,1,,,73,77
82368,note_on,,,,,164,0,1,,,,,0,,,87,121
82368,note_on,,,,,132,0,2,,,,,1,,,79,121
82368,note_on,,,,,0,0,2,,,,,1,,,70,121
82368,note_on,,,,,0,0,2,,,,,1,,,73,121
82396,note_off,,,,,28,0,1,,,,,0,,,87,77
82428,note_off,,,,,60,0,2,,,,,1,,,79,77
82428,note_off,,,,,0,0,2,,,,,1,,,70,77
82428,note_off,,,,,0,0,2,,,,,1,,,73,77
82464,note_on,,,,,68,0,1,,,,,0,,,85,121
82492,note_off,,,,,28,0,1,,,,,0,,,85,77
82560,note_on,,,,,68,0,1,,,,,0,,,82,121
82588,note_off,,,,,28,0,1,,,,,0,,,82,77
82656,note_on,,,,,68,0,1,,,,,0,,,77,121
82684,note_off,,,,,28,0,1,,,,,0,,,77,77
82752,note_on,,,,,68,0,1,,,,,0,,,75,121
82812,note_off,,,,,60,0,1,,,,,0,,,75,77
82944,note_on,,,,,0,0,1,,,,,0,,,75,121
82944,key_signature,,,,,516,1,2,,,,,,,A,,
82944,note_on,,,,,0,0,2,,,,,1,,,48,121
82944,key_signature,,,,,132,1,1,,,,,,,A,,
82944,note_on,,,,,0,0,1,,,,,0,,,68,121
82944,note_on,,,,,0,0,2,,,,,1,,,36,121
82944,note_on,,,,,0,0,1,,,,,0,,,80,121
83004,note_off,,,,,60,0,2,,,,,1,,,36,77
83004,note_off,,,,,0,0,1,,,,,0,,,75,77
83004,note_off,,,,,0,0,2,,,,,1,,,48,77
83004,note_off,,,,,0,0,1,,,,,0,,,80,77
83004,note_off,,,,,60,0,1,,,,,0,,,68,77
83136,note_on,,,,,132,0,1,,,,,0,,,68,121
83136,note_on,,,,,0,0,2,,,,,1,,,51,121
83136,note_on,,,,,132,0,2,,,,,1,,,39,121
83164,note_off,,,,,28,0,1,,,,,0,,,68,77
83196,note_off,,,,,0,0,2,,,,,1,,,51,77
83196,note_off,,,,,60,0,2,,,,,1,,,39,77
83232,note_on,,,,,68,0,1,,,,,0,,,80,121
83260,note_off,,,,,28,0,1,,,,,0,,,80,77
83328,note_on,,,,,132,0,2,,,,,1,,,44,121
83328,note_on,,,,,0,0,2,,,,,1,,,56,121
83328,note_on,,,,,68,0,1,,,,,0,,,68,121
83388,note_off,,,,,0,0,2,,,,,1,,,56,77
83388,note_off,,,,,60,0,2,,,,,1,,,44,77
83388,note_off,,,,,60,0,1,,,,,0,,,68,77
83520,note_on,,,,,132,0,1,,,,,0,,,69,121
83520,note_on,,,,,132,0,2,,,,,1,,,48,121
83520,note_on,,,,,0,0,2,,,,,1,,,60,121
83520,note_on,,,,,0,0,1,,,,,0,,,75,121
83520,note_on,,,,,0,0,1,,,,,0,,,81,121
83580,note_off,,,,,0,0,2,,,,,1,,,60,77
83580,note_off,,,,,0,0,1,,,,,0,,,75,77
83580,note_off,,,,,0,0,1,,,,,0,,,81,77
83580,note_off,,,,,60,0,1,,,,,0,,,69,77
83580,note_off,,,,,60,0,2,,,,,1,,,48,77
83712,note_on,,,,,0,0,2,,,,,1,,,63,121
83712,note_on,,,,,132,0,1,,,,,0,,,80,121
83712,note_on,,,,,132,0,2,,,,,1,,,51,121
83740,note_off,,,,,28,0,1,,,,,0,,,80,77
83772,note_off,,,,,60,0,2,,,,,1,,,51,77
83772,note_off,,,,,0,0,2,,,,,1,,,63,77
83808,note_on,,,,,68,0,1,,,,,0,,,75,121
83836,note_off,,,,,28,0,1,,,,,0,,,75,77
83904,note_on,,,,,0,0,2,,,,,1,,,60,121
83904,note_on,,,,,132,0,2,,,,,1,,,48,121
83904,note_on,,,,,68,0,1,,,,,0,,,68,121
83964,note_off,,,,,60,0,2,,,,,1,,,48,77
83964,note_off,,,,,60,0,1,,,,,0,,,68,77
83964,note_off,,,,,0,0,2,,,,,1,,,60,77
84096,note_on,,,,,0,0,2,,,,,1,,,61,121
84096,note_on,,,,,132,0,1,,,,,0,,,68,121
84096,note_on,,,,,0,0,1,,,,,0,,,78,121
84096,note_on,,,,,0,0,1,,,,,0,,,73,121
84096,note_on,,,,,0,0,1,,,,,0,,,68,121
84096,note_on,,,,,132,0,2,,,,,1,,,49,121
84156,note_off,,,,,0,0,1,,,,,0,,,68,77
84156,note_off,,,,,0,0,1,,,,,0,,,73,77
84156,note_off,,,,,0,0,1,,,,,0,,,78,77
84156,note_off,,,,,60,0,1,,,,,0,,,68,77
84156,note_off,,,,,0,0,2,,,,,1,,,61,77
84156,note_off,,,,,60,0,2,,,,,1,,,49,77
84288,note_on,,,,,0,0,2,,,,,1,,,64,121
84288,note_on,,,,,132,0,1,,,,,0,,,76,121
84288,note_on,,,,,132,0,2,,,,,1,,,52,121
84316,note_off,,,,,28,0,1,,,,,0,,,76,77
84348,note_off,,,,,0,0,2,,,,,1,,,64,77
84348,note_off,,,,,60,0,2,,,,,1,,,52,77
84384,note_on,,,,,68,0,1,,,,,0,,,73,121
84412,note_off,,,,,28,0,1,,,,,0,,,73,77
84480,note_on,,,,,0,0,2,,,,,1,,,61,121
84480,note_on,,,,,68,0,1,,,,,0,,,68,121
84480,note_on,,,,,132,0,2,,,,,1,,,49,121
84540,note_off,,,,,60,0,1,,,,,0,,,68,77
84540,note_off,,,,,0,0,2,,,,,1,,,61,77
84540,note_off,,,,,60,0,2,,,,,1,,,49,77
84672,note_on,,,,,0,0,1,,,,,0,,,70,121
84672,note_on,,,,,132,0,1,,,,,0,,,64,121
84672,note_on,,,,,0,0,2,,,,,1,,,54,121
84672,note_on,,,,,0,0,1,,,,,0,,,75,121
84672,note_on,,,,,132,0,2,,,,,1,,,42,121
84732,note_off,,,,,60,0,1,,,,,0,,,64,77
84732,note_off,,,,,0,0,1,,,,,0,,,75,77
84732,note_off,,,,,0,0,1,,,,,0,,,70,77
84732,note_off,,,,,0,0,2,,,,,1,,,54,77
84732,note_off,,,,,60,0,2,,,,,1,,,42,77
84864,note_on,,,,,0,0,2,,,,,1,,,58,121
84864,note_on,,,,,132,0,2,,,,,1,,,46,121
84864,note_on,,,,,132,0,1,,,,,0,,,73,121
84892,note_off,,,,,28,0,1,,,,,0,,,73,77
84924,note_off,,,,,0,0,2,,,,,1,,,58,77
84924,note_off,,,,,60,0,2,,,,,1,,,46,77
84960,note_on,,,,,68,0,1,,,,,0,,,70,121
84988,note_off,,,,,28,0,1,,,,,0,,,70,77
85056,note_on,,,,,0,0,2,,,,,1,,,54,121
85056,note_on,,,,,68,0,1,,,,,0,,,64,121
85056,note_on,,,,,132,0,2,,,,,1,,,42,121
85116,note_off,,,,,60,0,2,,,,,1,,,42,77
85116,note_off,,,,,60,0,1,,,,,0,,,64,77
85116,note_off,,,,,0,0,2,,,,,1,,,54,77
85248,note_on,,,,,132,0,1,,,,,0,,,68,121
85276,note_off,,,,,28,0,1,,,,,0,,,68,77
85344,note_on,,,,,68,0,1,,,,,0,,,66,121
85372,note_off,,,,,28,0,1,,,,,0,,,66,77
85440,note_on,,,,,68,0,1,,,,,0,,,66,121
85440,note_on,,,,,324,0,2,,,,,1,,,47,121
85468,note_off,,,,,28,0,1,,,,,0,,,66,77
85500,note_off,,,,,60,0,2,,,,,1,,,47,77
85536,note_on,,,,,68,0,1,,,,,0,,,63,121
85564,note_off,,,,,28,0,1,,,,,0,,,63,77
85632,note_on,,,,,68,0,1,,,,,0,,,68,121
85632,note_on,,,,,132,0,2,,,,,1,,,54,121
85660,note_off,,,,,28,0,1,,,,,0,,,68,77
85692,note_off,,,,,60,0,2,,,,,1,,,54,77
85728,note_on,,,,,68,0,1,,,,,0,,,66,121
85756,note_off,,,,,28,0,1,,,,,0,,,66,77
85824,note_on,,,,,68,0,1,,,,,0,,,71,121
85824,note_on,,,,,0,0,2,,,,,1,,,63,121
85824,note_on,,,,,132,0,2,,,,,1,,,59,121
85852,note_off,,,,,28,0,1,,,,,0,,,71,77
85920,note_on,,,,,68,0,1,,,,,0,,,69,121
85948,note_off,,,,,28,0,1,,,,,0,,,69,77
85948,note_off,,,,,124,0,2,,,,,1,,,59,77
85948,note_off,,,,,0,0,2,,,,,1,,,63,77
86016,note_on,,,,,68,0,1,,,,,0,,,69,121
86044,note_off,,,,,28,0,1,,,,,0,,,69,77
86112,note_on,,,,,68,0,1,,,,,0,,,66,121
86140,note_off,,,,,28,0,1,,,,,0,,,66,77
86208,note_on,,,,,68,0,1,,,,,0,,,71,121
86208,note_on,,,,,260,0,2,,,,,1,,,54,121
86236,note_off,,,,,28,0,1,,,,,0,,,71,77
86268,note_off,,,,,60,0,2,,,,,1,,,54,77
86304,note_on,,,,,68,0,1,,,,,0,,,69,121
86332,note_off,,,,,28,0,1,,,,,0,,,69,77
86400,note_on,,,,,68,0,1,,,,,0,,,73,121
86428,note_off,,,,,28,0,1,,,,,0,,,73,77
86496,note_on,,,,,68,0,1,,,,,0,,,71,121
86524,note_off,,,,,28,0,1,,,,,0,,,71,77
86592,note_on,,,,,68,0,1,,,,,0,,,71,121
86592,note_on,,,,,324,0,2,,,,,1,,,47,121
86620,note_off,,,,,28,0,1,,,,,0,,,71,77
86652,note_off,,,,,60,0,2,,,,,1,,,47,77
86688,note_on,,,,,68,0,1,,,,,0,,,68,121
86716,note_off,,,,,28,0,1,,,,,0,,,68,77
86784,note_on,,,,,132,0,2,,,,,1,,,56,121
86784,note_on,,,,,68,0,1,,,,,0,,,73,121
86812,note_off,,,,,28,0,1,,,,,0,,,73,77
86844,note_off,,,,,60,0,2,,,,,1,,,56,77
86880,note_on,,,,,68,0,1,,,,,0,,,71,121
86908,note_off,,,,,28,0,1,,,,,0,,,71,77
86976,note_on,,,,,68,0,1,,,,,0,,,78,121
86976,note_on,,,,,132,0,2,,,,,1,,,59,121
86976,note_on,,,,,0,0,2,,,,,1,,,64,121
87004,note_off,,,,,28,0,1,,,,,0,,,78,77
87072,note_on,,,,,68,0,1,,,,,0,,,76,121
87100,note_off,,,,,0,0,2,,,,,1,,,64,77
87100,note_off,,,,,124,0,2,,,,,1,,,59,77
87100,note_off,,,,,28,0,1,,,,,0,,,76,77
87168,note_on,,,,,68,0,1,,,,,0,,,76,121
87196,note_off,,,,,28,0,1,,,,,0,,,76,77
87264,note_on,,,,,68,0,1,,,,,0,,,71,121
87292,note_off,,,,,28,0,1,,,,,0,,,71,77
87360,note_on,,,,,68,0,1,,,,,0,,,78,121
87360,note_on,,,,,260,0,2,,,,,1,,,56,121
87388,note_off,,,,,28,0,1,,,,,0,,,78,77
87420,note_off,,,,,60,0,2,,,,,1,,,56,77
87456,note_on,,,,,68,0,1,,,,,0,,,76,121
87484,note_off,,,,,28,0,1,,,,,0,,,76,77
87552,note_on,,,,,68,0,1,,,,,0,,,68,121
87552,note_on,,,,,0,0,1,,,,,0,,,80,121
87552,note_on,,,,,132,0,2,,,,,1,,,48,121
87552,note_on,,,,,0,0,1,,,,,0,,,75,121
87552,note_on,,,,,0,0,2,,,,,1,,,60,121
87612,note_off,,,,,0,0,1,,,,,0,,,80,77
87612,note_off,,,,,0,0,1,,,,,0,,,75,77
87612,note_off,,,,,60,0,1,,,,,0,,,68,77
87612,note_off,,,,,60,0,2,,,,,1,,,48,77
87612,note_off,,,,,0,0,2,,,,,1,,,60,77
87744,note_on,,,,,0,0,2,,,,,1,,,63,121
87744,note_on,,,,,132,0,1,,,,,0,,,80,121
87744,note_on,,,,,132,0,2,,,,,1,,,51,121
87772,note_off,,,,,28,0,1,,,,,0,,,80,77
87804,note_off,,,,,60,0,2,,,,,1,,,51,77
87804,note_off,,,,,0,0,2,,,,,1,,,63,77
87840,note_on,,,,,68,0,1,,,,,0,,,92,121
87868,note_off,,,,,28,0,1,,,,,0,,,92,77
87936,note_on,,,,,68,0,1,,,,,0,,,80,121
87936,note_on,,,,,132,0,2,,,,,1,,,56,121
87936,note_on,,,,,0,0,2,,,,,1,,,68,121
87996,note_off,,,,,60,0,2,,,,,1,,,56,77
87996,note_off,,,,,60,0,1,,,,,0,,,80,77
87996,note_off,,,,,0,0,2,,,,,1,,,68,77
88128,note_on,,,,,0,0,1,,,,,0,,,87,121
88128,note_on,,,,,0,0,2,,,,,1,,,60,121
88128,note_on,,,,,132,0,1,,,,,0,,,81,121
88128,note_on,,,,,132,0,2,,,,,1,,,72,121
88188,note_off,,,,,60,0,1,,,,,0,,,81,77
88188,note_off,,,,,0,0,2,,,,,1,,,60,77
88188,note_off,,,,,0,0,1,,,,,0,,,87,77
88188,note_off,,,,,60,0,2,,,,,1,,,72,77
88320,note_on,,,,,0,0,2,,,,,1,,,75,121
88320,note_on,,,,,132,0,1,,,,,0,,,92,121
88320,note_on,,,,,132,0,2,,,,,1,,,63,121
88348,note_off,,,,,28,0,1,,,,,0,,,92,77
88380,note_off,,,,,0,0,2,,,,,1,,,75,77
88380,note_off,,,,,60,0,2,,,,,1,,,63,77
88416,note_on,,,,,68,0,1,,,,,0,,,87,121
88444,note_off,,,,,28,0,1,,,,,0,,,87,77
88512,note_on,,,,,68,0,1,,,,,0,,,80,121
88512,note_on,,,,,132,0,2,,,,,1,,,60,121
88512,note_on,,,,,0,0,2,,,,,1,,,72,121
88572,note_off,,,,,60,0,1,,,,,0,,,80,77
88572,note_off,,,,,60,0,2,,,,,1,,,60,77
88572,note_off,,,,,0,0,2,,,,,1,,,72,77
88704,note_on,,,,,0,0,1,,,,,0,,,90,121
88704,note_on,,,,,132,0,2,,,,,1,,,61,121
88704,note_on,,,,,0,0,1,,,,,0,,,85,121
88704,note_on,,,,,132,0,1,,,,,0,,,80,121
88704,note_on,,,,,0,0,2,,,,,1,,,73,121
88704,note_on,,,,,0,0,2,,,,,1,,,61,121
88764,note_off,,,,,0,0,1,,,,,0,,,90,77
88764,note_off,,,,,0,0,2,,,,,1,,,73,77
88764,note_off,,,,,0,0,2,,,,,1,,,61,77
88764,note_off,,,,,60,0,2,,,,,1,,,61,77
88764,note_off,,,,,0,0,1,,,,,0,,,85,77
88764,note_off,,,,,60,0,1,,,,,0,,,80,77
88896,note_on,,,,,0,0,2,,,,,1,,,76,121
88896,note_on,,,,,132,0,2,,,,,1,,,64,121
88896,note_on,,,,,132,0,1,,,,,0,,,88,121
88924,note_off,,,,,28,0,1,,,,,0,,,88,77
88956,note_off,,,,,60,0,2,,,,,1,,,64,77
88956,note_off,,,,,0,0,2,,,,,1,,,76,77
88992,note_on,,,,,68,0,1,,,,,0,,,85,121
89020,note_off,,,,,28,0,1,,,,,0,,,85,77
89088,note_on,,,,,0,0,2,,,,,1,,,73,121
89088,note_on,,,,,68,0,1,,,,,0,,,80,121
89088,note_on,,,,,132,0,2,,,,,1,,,61,121
89148,note_off,,,,,60,0,2,,,,,1,,,61,77
89148,note_off,,,,,60,0,1,,,,,0,,,80,77
89148,note_off,,,,,0,0,2,,,,,1,,,73,77
89280,note_on,,,,,0,0,1,,,,,0,,,87,121
89280,note_on,,,,,0,0,2,,,,,1,,,54,121
89280,note_on,,,,,132,0,2,,,,,1,,,66,121
89280,note_on,,,,,0,0,1,,,,,0,,,82,121
89280,note_on,,,,,132,0,1,,,,,0,,,76,121
89340,note_off,,,,,0,0,1,,,,,0,,,87,77
89340,note_off,,,,,60,0,1,,,,,0,,,76,77
89340,note_off,,,,,60,0,2,,,,,1,,,66,77
89340,note_off,,,,,0,0,1,,,,,0,,,82,77
89340,note_off,,,,,0,0,2,,,,,1,,,54,77
89472,note_on,,,,,0,0,2,,,,,1,,,70,121
89472,note_on,,,,,132,0,1,,,,,0,,,85,121
89472,note_on,,,,,132,0,2,,,,,1,,,58,121
89500,note_off,,,,,28,0,1,,,,,0,,,85,77
89532,note_off,,,,,60,0,2,,,,,1,,,58,77
89532,note_off,,,,,0,0,2,,,,,1,,,70,77
89568,note_on,,,,,68,0,1,,,,,0,,,82,121
89596,note_off,,,,,28,0,1,,,,,0,,,82,77
89664,note_on,,,,,0,0,2,,,,,1,,,54,121
89664,note_on,,,,,68,0,1,,,,,0,,,76,121
89664,note_on,,,,,132,0,2,,,,,1,,,66,121
89724,note_off,,,,,60,0,1,,,,,0,,,76,77
89724,note_off,,,,,0,0,2,,,,,1,,,54,77
89724,note_off,,,,,60,0,2,,,,,1,,,66,77
89856,note_on,,,,,132,0,1,,,,,0,,,80,121
89884,note_off,,,,,28,0,1,,,,,0,,,80,77
89952,note_on,,,,,68,0,1,,,,,0,,,78,121
89980,note_off,,,,,28,0,1,,,,,0,,,78,77
90048,note_on,,,,,68,0,1,,,,,0,,,78,121
90048,note_on,,,,,324,0,2,,,,,1,,,59,121
90076,note_off,,,,,28,0,1,,,,,0,,,78,77
90108,note_off,,,,,60,0,2,,,,,1,,,59,77
90144,note_on,,,,,68,0,1,,,,,0,,,75,121
90172,note_off,,,,,28,0,1,,,,,0,,,75,77
90240,note_on,,,,,68,0,1,,,,,0,,,80,121
90240,note_on,,,,,132,0,2,,,,,1,,,66,121
90268,note_off,,,,,28,0,1,,,,,0,,,80,77
90300,note_off,,,,,60,0,2,,,,,1,,,66,77
90336,note_on,,,,,68,0,1,,,,,0,,,78,121
90364,note_off,,,,,28,0,1,,,,,0,,,78,77
90432,note_on,,,,,0,0,2,,,,,1,,,71,121
90432,note_on,,,,,132,0,2,,,,,1,,,75,121
90432,note_on,,,,,68,0,1,,,,,0,,,83,121
90460,note_off,,,,,28,0,1,,,,,0,,,83,77
90528,note_on,,,,,68,0,1,,,,,0,,,81,121
90556,note_off,,,,,124,0,2,,,,,1,,,75,77
90556,note_off,,,,,0,0,2,,,,,1,,,71,77
90556,note_off,,,,,28,0,1,,,,,0,,,81,77
90624,note_on,,,,,68,0,1,,,,,0,,,81,121
90652,note_off,,,,,28,0,1,,,,,0,,,81,77
90720,note_on,,,,,68,0,1,,,,,0,,,78,121
90748,note_off,,,,,28,0,1,,,,,0,,,78,77
90816,note_on,,,,,260,0,2,,,,,1,,,66,121
90816,note_on,,,,,68,0,1,,,,,0,,,83,121
90844,note_off,,,,,28,0,1,,,,,0,,,83,77
90876,note_off,,,,,60,0,2,,,,,1,,,66,77
90912,note_on,,,,,68,0,1,,,,,0,,,81,121
90940,note_off,,,,,28,0,1,,,,,0,,,81,77
91008,note_on,,,,,68,0,1,,,,,0,,,85,121
91036,note_off,,,,,28,0,1,,,,,0,,,85,77
91104,note_on,,,,,68,0,1,,,,,0,,,83,121
91132,note_off,,,,,28,0,1,,,,,0,,,83,77
91200,note_on,,,,,324,0,2,,,,,1,,,59,121
91200,note_on,,,,,68,0,1,,,,,0,,,83,121
91228,note_off,,,,,28,0,1,,,,,0,,,83,77
91260,note_off,,,,,60,0,2,,,,,1,,,59,77
91296,note_on,,,,,68,0,1,,,,,0,,,80,121
91324,note_off,,,,,28,0,1,,,,,0,,,80,77
91392,note_on,,,,,132,0,2,,,,,1,,,68,121
91392,note_on,,,,,68,0,1,,,,,0,,,85,121
91420,note_off,,,,,28,0,1,,,,,0,,,85,77
91452,note_off,,,,,60,0,2,,,,,1,,,68,77
91488,note_on,,,,,68,0,1,,,,,0,,,83,121
91516,note_off,,,,,28,0,1,,,,,0,,,83,77
91584,note_on,,,,,132,0,2,,,,,1,,,76,121
91584,note_on,,,,,0,0,2,,,,,1,,,71,121
91584,note_on,,,,,68,0,1,,,,,0,,,90,121
91612,note_off,,,,,28,0,1,,,,,0,,,90,77
91680,note_on,,,,,68,0,1,,,,,0,,,88,121
91708,note_off,,,,,0,0,2,,,,,1,,,71,77
91708,note_off,,,,,124,0,2,,,,,1,,,76,77
91708,note_off,,,,,28,0,1,,,,,0,,,88,77
91776,note_on,,,,,68,0,1,,,,,0,,,88,121
91804,note_off,,,,,28,0,1,,,,,0,,,88,77
91872,note_on,,,,,68,0,1,,,,,0,,,83,121
91900,note_off,,,,,28,0,1,,,,,0,,,83,77
91968,note_on,,,,,260,0,2,,,,,1,,,68,121
91968,note_on,,,,,68,0,1,,,,,0,,,90,121
91996,note_off,,,,,28,0,1,,,,,0,,,90,77
92028,note_off,,,,,60,0,2,,,,,1,,,68,77
92064,note_on,,,,,68,0,1,,,,,0,,,88,121
92092,note_off,,,,,28,0,1,,,,,0,,,88,77
92160,note_on,,,,,68,0,1,,,,,0,,,92,121
92188,note_off,,,,,28,0,1,,,,,0,,,92,77
92256,note_on,,,,,68,0,1,,,,,0,,,90,121
92284,note_off,,,,,28,0,1,,,,,0,,,90,77
92352,note_on,,,,,68,0,1,,,,,0,,,90,121
92352,note_on,,,,,324,0,2,,,,,1,,,59,121
92380,note_off,,,,,28,0,1,,,,,0,,,90,77
92412,note_off,,,,,60,0,2,,,,,1,,,59,77
92448,note_on,,,,,68,0,1,,,,,0,,,87,121
92476,note_off,,,,,28,0,1,,,,,0,,,87,77
92544,note_on,,,,,0,0,2,,,,,1,,,69,121
92544,note_on,,,,,132,0,2,,,,,1,,,66,121
92544,note_on,,,,,68,0,1,,,,,0,,,92,121
92572,note_off,,,,,28,0,1,,,,,0,,,92,77
92604,note_off,,,,,0,0,2,,,,,1,,,69,77
92604,note_off,,,,,60,0,2,,,,,1,,,66,77
92640,note_on,,,,,68,0,1,,,,,0,,,90,121
92668,note_off,,,,,28,0,1,,,,,0,,,90,77
92736,note_on,,,,,68,0,1,,,,,0,,,95,121
92736,note_on,,,,,0,0,2,,,,,1,,,78,121
92736,note_on,,,,,0,0,2,,,,,1,,,75,121
92736,note_on,,,,,132,0,2,,,,,1,,,69,121
92764,note_off,,,,,28,0,1,,,,,0,,,95,77
92832,note_on,,,,,68,0,1,,,,,0,,,93,121
92860,note_off,,,,,0,0,2,,,,,1,,,78,77
92860,note_off,,,,,0,0,2,,,,,1,,,75,77
92860,note_off,,,,,28,0,1,,,,,0,,,93,77
92860,note_off,,,,,124,0,2,,,,,1,,,69,77
92928,note_on,,,,,68,0,1,,,,,0,,,93,121
92956,note_off,,,,,28,0,1,,,,,0,,,93,77
93024,note_on,,,,,68,0,1,,,,,0,,,90,121
93052,note_off,,,,,28,0,1,,,,,0,,,90,77
93120,note_on,,,,,68,0,1,,,,,0,,,95,121
93120,note_on,,,,,260,0,2,,,,,1,,,71,121
93148,note_off,,,,,28,0,1,,,,,0,,,95,77
93180,note_off,,,,,60,0,2,,,,,1,,,71,77
93216,note_on,,,,,68,0,1,,,,,0,,,93,121
93244,note_off,,,,,28,0,1,,,,,0,,,93,77
93312,note_on,,,,,68,0,1,,,,,0,,,97,121
93340,note_off,,,,,28,0,1,,,,,0,,,97,77
93408,note_on,,,,,68,0,1,,,,,0,,,95,121
93436,note_off,,,,,28,0,1,,,,,0,,,95,77
93504,note_on,,,,,68,0,1,,,,,0,,,95,121
93504,note_on,,,,,324,0,2,,,,,1,,,59,121
93532,note_off,,,,,28,0,1,,,,,0,,,95,77
93564,note_off,,,,,60,0,2,,,,,1,,,59,77
93600,note_on,,,,,68,0,1,,,,,0,,,92,121
93628,note_off,,,,,28,0,1,,,,,0,,,92,77
93696,note_on,,,,,132,0,2,,,,,1,,,68,121
93696,note_on,,,,,68,0,1,,,,,0,,,97,121
93696,note_on,,,,,0,0,2,,,,,1,,,71,121
93724,note_off,,,,,28,0,1,,,,,0,,,97,77
93756,note_off,,,,,60,0,2,,,,,1,,,68,77
93756,note_off,,,,,0,0,2,,,,,1,,,71,77
93792,note_on,,,,,68,0,1,,,,,0,,,95,121
93820,note_off,,,,,28,0,1,,,,,0,,,95,77
93888,note_on,,,,,0,0,2,,,,,1,,,80,121
93888,note_on,,,,,0,0,2,,,,,1,,,76,121
93888,note_on,,,,,68,0,1,,,,,0,,,102,121
93888,note_on,,,,,132,0,2,,,,,1,,,68,121
93916,note_off,,,,,28,0,1,,,,,0,,,102,77
93984,note_on,,,,,68,0,1,,,,,0,,,100,121
94012,note_off,,,,,28,0,1,,,,,0,,,100,77
94012,note_off,,,,,0,0,2,,,,,1,,,76,77
94012,note_off,,,,,0,0,2,,,,,1,,,80,77
94012,note_off,,,,,124,0,2,,,,,1,,,68,77
94080,note_on,,,,,68,0,1,,,,,0,,,100,121
94108,note_off,,,,,28,0,1,,,,,0,,,100,77
94176,note_on,,,,,68,0,1,,,,,0,,,95,121
94204,note_off,,,,,28,0,1,,,,,0,,,95,77
94272,note_on,,,,,68,0,1,,,,,0,,,102,121
94272,note_on,,,,,260,0,2,,,,,1,,,71,121
94300,note_off,,,,,28,0,1,,,,,0,,,102,77
94332,note_off,,,,,60,0,2,,,,,1,,,71,77
94368,note_on,,,,,68,0,1,,,,,0,,,100,121
94396,note_off,,,,,28,0,1,,,,,0,,,100,77
94464,note_on,,,,,68,0,1,,,,,0,,,92,121
94464,note_on,,,,,132,0,2,,,,,1,,,59,121
94492,note_off,,,,,28,0,1,,,,,0,,,92,77
94560,note_on,,,,,0,0,1,,,,,0,,,104,121
94560,note_on,,,,,68,0,1,,,,,0,,,90,121
94588,note_off,,,,,28,0,1,,,,,0,,,90,77
94588,note_off,,,,,0,0,1,,,,,0,,,104,77
94588,note_off,,,,,124,0,2,,,,,1,,,59,77
94656,note_on,,,,,0,0,2,,,,,1,,,66,121
94656,note_on,,,,,0,0,2,,,,,1,,,69,121
94656,note_on,,,,,68,0,1,,,,,0,,,89,121
94656,note_on,,,,,68,0,2,,,,,1,,,63,121
94684,note_off,,,,,28,0,1,,,,,0,,,89,77
94716,note_off,,,,,0,0,2,,,,,1,,,66,77
94716,note_off,,,,,60,0,2,,,,,1,,,63,77
94716,note_off,,,,,0,0,2,,,,,1,,,69,77
94752,note_on,,,,,68,0,1,,,,,0,,,90,121
94752,note_on,,,,,0,0,1,,,,,0,,,101,121
94780,note_off,,,,,0,0,1,,,,,0,,,101,77
94780,note_off,,,,,28,0,1,,,,,0,,,90,77
94848,note_on,,,,,68,0,1,,,,,0,,,92,121
94848,note_on,,,,,0,0,2,,,,,1,,,69,121
94848,note_on,,,,,0,0,2,,,,,1,,,66,121
94848,note_on,,,,,132,0,2,,,,,1,,,63,121
94876,note_off,,,,,28,0,1,,,,,0,,,92,77
94908,note_off,,,,,60,0,2,,,,,1,,,63,77
94908,note_off,,,,,0,0,2,,,,,1,,,69,77
94908,note_off,,,,,0,0,2,,,,,1,,,66,77
94944,note_on,,,,,0,0,1,,,,,0,,,102,121
94944,note_on,,,,,68,0,1,,,,,0,,,93,121
94972,note_off,,,,,28,0,1,,,,,0,,,93,77
94972,note_off,,,,,0,0,1,,,,,0,,,102,77
95040,note_on,,,,,132,0,2,,,,,1,,,58,121
95040,note_on,,,,,68,0,1,,,,,0,,,94,121
95040,note_on,,,,,0,0,1,,,,,0,,,92,121
95068,note_off,,,,,0,0,1,,,,,0,,,92,77
95068,note_off,,,,,28,0,1,,,,,0,,,94,77
95136,note_on,,,,,68,0,1,,,,,0,,,95,121
95136,note_on,,,,,0,0,1,,,,,0,,,104,121
95164,note_off,,,,,28,0,1,,,,,0,,,95,77
95164,note_off,,,,,124,0,2,,,,,1,,,58,77
95164,note_off,,,,,0,0,1,,,,,0,,,104,77
95232,note_on,,,,,68,0,1,,,,,0,,,96,121
95232,note_on,,,,,0,0,1,,,,,0,,,89,121
95232,note_on,,,,,0,0,2,,,,,1,,,70,121
95232,note_on,,,,,68,0,2,,,,,1,,,63,121
95232,note_on,,,,,0,0,2,,,,,1,,,66,121
95260,note_off,,,,,28,0,1,,,,,0,,,96,77
95260,note_off,,,,,0,0,1,,,,,0,,,89,77
95292,note_off,,,,,60,0,2,,,,,1,,,63,77
95292,note_off,,,,,0,0,2,,,,,1,,,66,77
95292,note_off,,,,,0,0,2,,,,,1,,,70,77
95328,note_on,,,,,0,0,1,,,,,0,,,101,121
95328,note_on,,,,,68,0,1,,,,,0,,,97,121
95356,note_off,,,,,28,0,1,,,,,0,,,97,77
95356,note_off,,,,,0,0,1,,,,,0,,,101,77
95424,note_on,,,,,0,0,2,,,,,1,,,70,121
95424,note_on,,,,,68,0,1,,,,,0,,,99,121
95424,note_on,,,,,132,0,2,,,,,1,,,63,121
95424,note_on,,,,,0,0,1,,,,,0,,,90,121
95424,note_on,,,,,0,0,2,,,,,1,,,66,121
95452,note_off,,,,,28,0,1,,,,,0,,,99,77
95452,note_off,,,,,0,0,1,,,,,0,,,90,77
95484,note_off,,,,,0,0,2,,,,,1,,,70,77
95484,note_off,,,,,60,0,2,,,,,1,,,63,77
95484,note_off,,,,,0,0,2,,,,,1,,,66,77
95520,note_on,,,,,0,0,1,,,,,0,,,99,121
95520,note_on,,,,,68,0,1,,,,,0,,,101,121
95548,note_off,,,,,28,0,1,,,,,0,,,101,77
95548,note_off,,,,,0,0,1,,,,,0,,,99,77
95616,note_on,,,,,0,0,1,,,,,0,,,92,121
95616,note_on,,,,,132,0,2,,,,,1,,,57,121
95616,note_on,,,,,68,0,1,,,,,0,,,101,121
95644,note_off,,,,,28,0,1,,,,,0,,,101,77
95644,note_off,,,,,0,0,1,,,,,0,,,92,77
95712,note_on,,,,,0,0,1,,,,,0,,,104,121
95712,note_on,,,,,68,0,1,,,,,0,,,102,121
95740,note_off,,,,,0,0,1,,,,,0,,,104,77
95740,note_off,,,,,124,0,2,,,,,1,,,57,77
95740,note_off,,,,,28,0,1,,,,,0,,,102,77
95808,note_on,,,,,0,0,1,,,,,0,,,89,121
95808,note_on,,,,,68,0,2,,,,,1,,,63,121
95808,note_on,,,,,0,0,2,,,,,1,,,71,121
95808,note_on,,,,,0,0,2,,,,,1,,,66,121
95808,note_on,,,,,68,0,1,,,,,0,,,104,121
95836,note_off,,,,,0,0,1,,,,,0,,,89,77
95836,note_off,,,,,28,0,1,,,,,0,,,104,77
95868,note_off,,,,,0,0,2,,,,,1,,,71,77
95868,note_off,,,,,0,0,2,,,,,1,,,66,77
95868,note_off,,,,,60,0,2,,,,,1,,,63,77
95904,note_on,,,,,0,0,1,,,,,0,,,101,121
95904,note_on,,,,,68,0,1,,,,,0,,,102,121
95932,note_off,,,,,28,0,1,,,,,0,,,102,77
95932,note_off,,,,,0,0,1,,,,,0,,,101,77
96000,note_on,,,,,68,0,1,,,,,0,,,101,121
96000,note_on,,,,,0,0,2,,,,,1,,,63,121
96000,note_on,,,,,0,0,2,,,,,1,,,66,121
96000,note_on,,,,,132,0,2,,,,,1,,,71,121
96000,note_on,,,,,0,0,1,,,,,0,,,90,121
96028,note_off,,,,,0,0,1,,,,,0,,,90,77
96028,note_off,,,,,28,0,1,,,,,0,,,101,77
96060,note_off,,,,,0,0,2,,,,,1,,,63,77
96060,note_off,,,,,0,0,2,,,,,1,,,66,77
96060,note_off,,,,,60,0,2,,,,,1,,,71,77
96096,note_on,,,,,0,0,1,,,,,0,,,102,121
96096,note_on,,,,,68,0,1,,,,,0,,,101,121
96124,note_off,,,,,28,0,1,,,,,0,,,101,77
96124,note_off,,,,,0,0,1,,,,,0,,,102,77
96192,note_on,,,,,0,0,1,,,,,0,,,92,121
96192,note_on,,,,,68,0,1,,,,,0,,,99,121
96192,note_on,,,,,132,0,2,,,,,1,,,56,121
96220,note_off,,,,,28,0,1,,,,,0,,,99,77
96220,note_off,,,,,0,0,1,,,,,0,,,92,77
96288,note_on,,,,,0,0,1,,,,,0,,,104,121
96288,note_on,,,,,68,0,1,,,,,0,,,97,121
96316,note_off,,,,,124,0,2,,,,,1,,,56,77
96316,note_off,,,,,28,0,1,,,,,0,,,97,77
96316,note_off,,,,,0,0,1,,,,,0,,,104,77
96384,note_on,,,,,68,0,2,,,,,1,,,63,121
96384,note_on,,,,,0,0,1,,,,,0,,,89,121
96384,note_on,,,,,0,0,2,,,,,1,,,66,121
96384,note_on,,,,,68,0,1,,,,,0,,,96,121
96384,note_on,,,,,0,0,2,,,,,1,,,72,121
96412,note_off,,,,,28,0,1,,,,,0,,,96,77
96412,note_off,,,,,0,0,1,,,,,0,,,89,77
96444,note_off,,,,,0,0,2,,,,,1,,,72,77
96444,note_off,,,,,0,0,2,,,,,1,,,66,77
96444,note_off,,,,,60,0,2,,,,,1,,,63,77
96480,note_on,,,,,68,0,1,,,,,0,,,96,121
96480,note_on,,,,,0,0,1,,,,,0,,,101,121
96508,note_off,,,,,0,0,1,,,,,0,,,101,77
96508,note_off,,,,,28,0,1,,,,,0,,,96,77
96576,note_on,,,,,132,0,2,,,,,1,,,63,121
96576,note_on,,,,,0,0,2,,,,,1,,,72,121
96576,note_on,,,,,68,0,1,,,,,0,,,94,121
96576,note_on,,,,,0,0,2,,,,,1,,,66,121
96576,note_on,,,,,0,0,1,,,,,0,,,90,121
96604,note_off,,,,,28,0,1,,,,,0,,,94,77
96604,note_off,,,,,0,0,1,,,,,0,,,90,77
96636,note_off,,,,,60,0,2,,,,,1,,,63,77
96636,note_off,,,,,0,0,2,,,,,1,,,66,77
96636,note_off,,,,,0,0,2,,,,,1,,,72,77
96672,note_on,,,,,68,0,1,,,,,0,,,93,121
96672,note_on,,,,,0,0,1,,,,,0,,,102,121
96700,note_off,,,,,28,0,1,,,,,0,,,93,77
96700,note_off,,,,,0,0,1,,,,,0,,,102,77
96768,note_on,,,,,68,0,1,,,,,0,,,92,121
96768,note_on,,,,,132,0,2,,,,,1,,,62,121
96796,note_off,,,,,28,0,1,,,,,0,,,92,77
96864,note_on,,,,,68,0,1,,,,,0,,,90,121
96864,note_on,,,,,0,0,1,,,,,0,,,104,121
96892,note_off,,,,,0,0,1,,,,,0,,,104,77
96892,note_off,,,,,28,0,1,,,,,0,,,90,77
96892,note_off,,,,,124,0,2,,,,,1,,,62,77
96960,note_on,,,,,68,0,1,,,,,0,,,89,121
96960,note_on,,,,,0,0,2,,,,,1,,,69,121
96960,note_on,,,,,68,0,2,,,,,1,,,66,121
96960,note_on,,,,,0,0,2,,,,,1,,,72,121
96988,note_off,,,,,28,0,1,,,,,0,,,89,77
97020,note_off,,,,,0,0,2,,,,,1,,,72,77
97020,note_off,,,,,0,0,2,,,,,1,,,69,77
97020,note_off,,,,,60,0,2,,,,,1,,,66,77
97056,note_on,,,,,0,0,1,,,,,0,,,101,121
97056,note_on,,,,,68,0,1,,,,,0,,,90,121
97084,note_off,,,,,0,0,1,,,,,0,,,101,77
97084,note_off,,,,,28,0,1,,,,,0,,,90,77
97152,note_on,,,,,0,0,1,,,,,0,,,90,121
97152,note_on,,,,,132,0,2,,,,,1,,,66,121
97152,note_on,,,,,68,0,1,,,,,0,,,92,121
97152,note_on,,,,,0,0,2,,,,,1,,,72,121
97152,note_on,,,,,0,0,2,,,,,1,,,69,121
97180,note_off,,,,,28,0,1,,,,,0,,,92,77
97180,note_off,,,,,0,0,1,,,,,0,,,90,77
97212,note_off,,,,,0,0,2,,,,,1,,,72,77
97212,note_off,,,,,0,0,2,,,,,1,,,69,77
97212,note_off,,,,,60,0,2,,,,,1,,,66,77
97248,note_on,,,,,0,0,1,,,,,0,,,102,121
97248,note_on,,,,,68,0,1,,,,,0,,,93,121
97276,note_off,,,,,0,0,1,,,,,0,,,102,77
97276,note_off,,,,,28,0,1,,,,,0,,,93,77
97344,note_on,,,,,132,0,2,,,,,1,,,61,121
97344,note_on,,,,,68,0,1,,,,,0,,,94,121
97344,note_on,,,,,0,0,1,,,,,0,,,92,121
97372,note_off,,,,,0,0,1,,,,,0,,,92,77
97372,note_off,,,,,28,0,1,,,,,0,,,94,77
97440,note_on,,,,,0,0,1,,,,,0,,,104,121
97440,note_on,,,,,68,0,1,,,,,0,,,95,121
97468,note_off,,,,,0,0,1,,,,,0,,,104,77
97468,note_off,,,,,124,0,2,,,,,1,,,61,77
97468,note_off,,,,,28,0,1,,,,,0,,,95,77
97536,note_on,,,,,68,0,2,,,,,1,,,66,121
97536,note_on,,,,,0,0,2,,,,,1,,,73,121
97536,note_on,,,,,0,0,1,,,,,0,,,89,121
97536,note_on,,,,,0,0,2,,,,,1,,,69,121
97536,note_on,,,,,68,0,1,,,,,0,,,96,121
97564,note_off,,,,,0,0,1,,,,,0,,,89,77
97564,note_off,,,,,28,0,1,,,,,0,,,96,77
97596,note_off,,,,,0,0,2,,,,,1,,,69,77
97596,note_off,,,,,0,0,2,,,,,1,,,73,77
97596,note_off,,,,,60,0,2,,,,,1,,,66,77
97632,note_on,,,,,0,0,1,,,,,0,,,101,121
97632,note_on,,,,,68,0,1,,,,,0,,,97,121
97660,note_off,,,,,0,0,1,,,,,0,,,101,77
97660,note_off,,,,,28,0,1,,,,,0,,,97,77
97728,note_on,,,,,0,0,1,,,,,0,,,90,121
97728,note_on,,,,,0,0,2,,,,,1,,,69,121
97728,note_on,,,,,0,0,2,,,,,1,,,73,121
97728,note_on,,,,,68,0,1,,,,,0,,,99,121
97728,note_on,,,,,132,0,2,,,,,1,,,66,121
97756,note_off,,,,,0,0,1,,,,,0,,,90,77
97756,note_off,,,,,28,0,1,,,,,0,,,99,77
97788,note_off,,,,,60,0,2,,,,,1,,,66,77
97788,note_off,,,,,0,0,2,,,,,1,,,69,77
97788,note_off,,,,,0,0,2,,,,,1,,,73,77
97824,note_on,,,,,68,0,1,,,,,0,,,101,121
97824,note_on,,,,,0,0,1,,,,,0,,,102,121
97852,note_off,,,,,0,0,1,,,,,0,,,102,77
97852,note_off,,,,,28,0,1,,,,,0,,,101,77
97920,note_on,,,,,68,0,1,,,,,0,,,101,121
97920,note_on,,,,,0,0,1,,,,,0,,,92,121
97920,note_on,,,,,132,0,2,,,,,1,,,60,121
97948,note_off,,,,,28,0,1,,,,,0,,,101,77
97948,note_off,,,,,0,0,1,,,,,0,,,92,77
98016,note_on,,,,,0,0,1,,,,,0,,,104,121
98016,note_on,,,,,68,0,1,,,,,0,,,102,121
98044,note_off,,,,,28,0,1,,,,,0,,,102,77
98044,note_off,,,,,0,0,1,,,,,0,,,104,77
98044,note_off,,,,,124,0,2,,,,,1,,,60,77
98112,note_on,,,,,0,0,2,,,,,1,,,74,121
98112,note_on,,,,,0,0,2,,,,,1,,,69,121
98112,note_on,,,,,68,0,2,,,,,1,,,66,121
98112,note_on,,,,,0,0,1,,,,,0,,,88,121
98112,note_on,,,,,68,0,1,,,,,0,,,104,121
98140,note_off,,,,,28,0,1,,,,,0,,,104,77
98140,note_off,,,,,0,0,1,,,,,0,,,88,77
98172,note_off,,,,,0,0,2,,,,,1,,,74,77
98172,note_off,,,,,0,0,2,,,,,1,,,69,77
98172,note_off,,,,,60,0,2,,,,,1,,,66,77
98208,note_on,,,,,68,0,1,,,,,0,,,102,121
98208,note_on,,,,,0,0,1,,,,,0,,,101,121
98236,note_off,,,,,28,0,1,,,,,0,,,102,77
98236,note_off,,,,,0,0,1,,,,,0,,,101,77
98304,note_on,,,,,0,0,1,,,,,0,,,90,121
98304,note_on,,,,,132,0,2,,,,,1,,,66,121
98304,note_on,,,,,68,0,1,,,,,0,,,101,121
98304,note_on,,,,,0,0,2,,,,,1,,,74,121
98304,note_on,,,,,0,0,2,,,,,1,,,69,121
98332,note_off,,,,,28,0,1,,,,,0,,,101,77
98332,note_off,,,,,0,0,1,,,,,0,,,90,77
98364,note_off,,,,,0,0,2,,,,,1,,,74,77
98364,note_off,,,,,60,0,2,,,,,1,,,66,77
98364,note_off,,,,,0,0,2,,,,,1,,,69,77
98400,note_on,,,,,68,0,1,,,,,0,,,100,121
98400,note_on,,,,,0,0,1,,,,,0,,,102,121
98428,note_off,,,,,0,0,1,,,,,0,,,102,77
98428,note_off,,,,,28,0,1,,,,,0,,,100,77
98496,note_on,,,,,0,0,1,,,,,0,,,92,121
98496,note_on,,,,,68,0,1,,,,,0,,,99,121
98496,note_on,,,,,132,0,2,,,,,1,,,59,121
98524,note_off,,,,,0,0,1,,,,,0,,,92,77
98524,note_off,,,,,28,0,1,,,,,0,,,99,77
98592,note_on,,,,,68,0,1,,,,,0,,,97,121
98592,note_on,,,,,0,0,1,,,,,0,,,104,121
98620,note_off,,,,,124,0,2,,,,,1,,,59,77
98620,note_off,,,,,0,0,1,,,,,0,,,104,77
98620,note_off,,,,,28,0,1,,,,,0,,,97,77
98688,note_on,,,,,68,0,2,,,,,1,,,66,121
98688,note_on,,,,,68,0,1,,,,,0,,,96,121
98688,note_on,,,,,0,0,1,,,,,0,,,89,121
98688,note_on,,,,,0,0,2,,,,,1,,,75,121
98688,note_on,,,,,0,0,2,,,,,1,,,69,121
98716,note_off,,,,,0,0,1,,,,,0,,,89,77
98716,note_off,,,,,28,0,1,,,,,0,,,96,77
98748,note_off,,,,,0,0,2,,,,,1,,,75,77
98748,note_off,,,,,0,0,2,,,,,1,,,69,77
98748,note_off,,,,,60,0,2,,,,,1,,,66,77
98784,note_on,,,,,0,0,1,,,,,0,,,101,121
98784,note_on,,,,,68,0,1,,,,,0,,,95,121
98812,note_off,,,,,28,0,1,,,,,0,,,95,77
98812,note_off,,,,,0,0,1,,,,,0,,,101,77
98880,note_on,,,,,132,0,2,,,,,1,,,66,121
98880,note_on,,,,,0,0,2,,,,,1,,,69,121
98880,note_on,,,,,0,0,2,,,,,1,,,75,121
98880,note_on,,,,,0,0,1,,,,,0,,,90,121
98880,note_on,,,,,68,0,1,,,,,0,,,94,121
98908,note_off,,,,,0,0,1,,,,,0,,,90,77
98908,note_off,,,,,28,0,1,,,,,0,,,94,77
98940,note_off,,,,,0,0,2,,,,,1,,,69,77
98940,note_off,,,,,0,0,2,,,,,1,,,75,77
98940,note_off,,,,,60,0,2,,,,,1,,,66,77
98976,note_on,,,,,0,0,1,,,,,0,,,102,121
98976,note_on,,,,,68,0,1,,,,,0,,,93,121
99004,note_off,,,,,0,0,1,,,,,0,,,102,77
99004,note_off,,,,,28,0,1,,,,,0,,,93,77
99072,note_on,,,,,68,0,1,,,,,0,,,92,121
99072,note_on,,,,,0,0,2,,,,,1,,,64,121
99072,note_on,,,,,0,0,2,,,,,1,,,62,121
99072,note_on,,,,,0,0,2,,,,,1,,,56,121
99072,note_on,,,,,132,0,2,,,,,1,,,52,121
99100,note_off,,,,,28,0,1,,,,,0,,,92,77
99132,note_off,,,,,0,0,2,,,,,1,,,62,77
99132,note_off,,,,,0,0,2,,,,,1,,,64,77
99132,note_off,,,,,60,0,2,,,,,1,,,52,77
99132,note_off,,,,,0,0,2,,,,,1,,,56,77
99168,note_on,,,,,68,0,1,,,,,0,,,104,121
99196,note_off,,,,,28,0,1,,,,,0,,,104,77
99264,note_on,,,,,68,0,1,,,,,0,,,90,121
99264,note_on,,,,,0,0,2,,,,,1,,,56,121
99264,note_on,,,,,0,0,2,,,,,1,,,62,121
99264,note_on,,,,,0,0,2,,,,,1,,,64,121
99264,note_on,,,,,132,0,2,,,,,1,,,52,121
99292,note_off,,,,,28,0,1,,,,,0,,,90,77
99324,note_off,,,,,0,0,2,,,,,1,,,64,77
99324,note_off,,,,,60,0,2,,,,,1,,,52,77
99324,note_off,,,,,0,0,2,,,,,1,,,56,77
99324,note_off,,,,,0,0,2,,,,,1,,,62,77
99360,note_on,,,,,68,0,1,,,,,0,,,102,121
99388,note_off,,,,,28,0,1,,,,,0,,,102,77
99456,note_on,,,,,132,0,2,,,,,1,,,52,121
99456,note_on,,,,,68,0,1,,,,,0,,,88,121
99456,note_on,,,,,0,0,2,,,,,1,,,56,121
99456,note_on,,,,,0,0,2,,,,,1,,,64,121
99456,note_on,,,,,0,0,2,,,,,1,,,62,121
99484,note_off,,,,,28,0,1,,,,,0,,,88,77
99516,note_off,,,,,60,0,2,,,,,1,,,52,77
99516,note_off,,,,,0,0,2,,,,,1,,,56,77
99516,note_off,,,,,0,0,2,,,,,1,,,64,77
99516,note_off,,,,,0,0,2,,,,,1,,,62,77
99552,note_on,,,,,68,0,1,,,,,0,,,100,121
99580,note_off,,,,,28,0,1,,,,,0,,,100,77
99648,note_on,,,,,132,0,2,,,,,1,,,54,121
99648,note_on,,,,,68,0,1,,,,,0,,,86,121
99648,note_on,,,,,0,0,2,,,,,1,,,57,121
99648,note_on,,,,,0,0,2,,,,,1,,,62,121
99648,note_on,,,,,0,0,2,,,,,1,,,64,121
99676,note_off,,,,,28,0,1,,,,,0,,,86,77
99708,note_off,,,,,0,0,2,,,,,1,,,57,77
99708,note_off,,,,,60,0,2,,,,,1,,,54,77
99708,note_off,,,,,0,0,2,,,,,1,,,62,77
99708,note_off,,,,,0,0,2,,,,,1,,,64,77
99744,note_on,,,,,68,0,1,,,,,0,,,98,121
99772,note_off,,,,,28,0,1,,,,,0,,,98,77
99840,note_on,,,,,0,0,2,,,,,1,,,57,121
99840,note_on,,,,,0,0,2,,,,,1,,,64,121
99840,note_on,,,,,132,0,2,,,,,1,,,54,121
99840,note_on,,,,,0,0,2,,,,,1,,,62,121
99840,note_on,,,,,68,0,1,,,,,0,,,82,121
99868,note_off,,,,,28,0,1,,,,,0,,,82,77
99900,note_off,,,,,60,0,2,,,,,1,,,54,77
99900,note_off,,,,,0,0,2,,,,,1,,,62,77
99900,note_off,,,,,0,0,2,,,,,1,,,64,77
99900,note_off,,,,,0,0,2,,,,,1,,,57,77
99936,note_on,,,,,68,0,1,,,,,0,,,94,121
99964,note_off,,,,,28,0,1,,,,,0,,,94,77
100032,note_on,,,,,68,0,1,,,,,0,,,83,121
100032,note_on,,,,,0,0,2,,,,,1,,,62,121
100032,note_on,,,,,132,0,2,,,,,1,,,54,121
100032,note_on,,,,,0,0,2,,,,,1,,,57,121
100032,note_on,,,,,0,0,2,,,,,1,,,64,121
100060,note_off,,,,,28,0,1,,,,,0,,,83,77
100092,note_off,,,,,60,0,2,,,,,1,,,54,77
100092,note_off,,,,,0,0,2,,,,,1,,,62,77
100092,note_off,,,,,0,0,2,,,,,1,,,57,77
100092,note_off,,,,,0,0,2,,,,,1,,,64,77
100128,note_on,,,,,68,0,1,,,,,0,,,95,121
100156,note_off,,,,,28,0,1,,,,,0,,,95,77
100224,note_on,,,,,68,0,1,,,,,0,,,85,121
100224,note_on,,,,,0,0,2,,,,,1,,,64,121
100224,note_on,,,,,0,0,2,,,,,1,,,62,121
100224,note_on,,,,,0,0,2,,,,,1,,,59,121
100224,note_on,,,,,132,0,2,,,,,1,,,56,121
100252,note_off,,,,,28,0,1,,,,,0,,,85,77
100284,note_off,,,,,60,0,2,,,,,1,,,56,77
100284,note_off,,,,,0,0,2,,,,,1,,,59,77
100284,note_off,,,,,0,0,2,,,,,1,,,62,77
100284,note_off,,,,,0,0,2,,,,,1,,,64,77
100320,note_on,,,,,68,0,1,,,,,0,,,97,121
100348,note_off,,,,,28,0,1,,,,,0,,,97,77
100416,note_on,,,,,132,0,2,,,,,1,,,56,121
100416,note_on,,,,,68,0,1,,,,,0,,,83,121
100416,note_on,,,,,0,0,2,,,,,1,,,64,121
100416,note_on,,,,,0,0,2,,,,,1,,,62,121
100416,note_on,,,,,0,0,2,,,,,1,,,59,121
100444,note_off,,,,,28,0,1,,,,,0,,,83,77
100476,note_off,,,,,0,0,2,,,,,1,,,59,77
100476,note_off,,,,,60,0,2,,,,,1,,,56,77
100476,note_off,,,,,0,0,2,,,,,1,,,64,77
100476,note_off,,,,,0,0,2,,,,,1,,,62,77
100512,note_on,,,,,68,0,1,,,,,0,,,95,121
100540,note_off,,,,,28,0,1,,,,,0,,,95,77
100608,note_on,,,,,132,0,2,,,,,1,,,56,121
100608,note_on,,,,,0,0,2,,,,,1,,,59,121
100608,note_on,,,,,0,0,2,,,,,1,,,62,121
100608,note_on,,,,,0,0,2,,,,,1,,,64,121
100608,note_on,,,,,68,0,1,,,,,0,,,82,121
100636,note_off,,,,,28,0,1,,,,,0,,,82,77
100668,note_off,,,,,0,0,2,,,,,1,,,62,77
100668,note_off,,,,,60,0,2,,,,,1,,,56,77
100668,note_off,,,,,0,0,2,,,,,1,,,59,77
100668,note_off,,,,,0,0,2,,,,,1,,,64,77
100704,note_on,,,,,68,0,1,,,,,0,,,94,121
100732,note_off,,,,,28,0,1,,,,,0,,,94,77
100800,note_on,,,,,68,0,1,,,,,0,,,81,121
100800,note_on,,,,,0,0,2,,,,,1,,,62,121
100800,note_on,,,,,0,0,2,,,,,1,,,57,121
100800,note_on,,,,,132,0,2,,,,,1,,,54,121
100800,note_on,,,,,0,0,2,,,,,1,,,64,121
100828,note_off,,,,,28,0,1,,,,,0,,,81,77
100860,note_off,,,,,0,0,2,,,,,1,,,64,77
100860,note_off,,,,,60,0,2,,,,,1,,,54,77
100860,note_off,,,,,0,0,2,,,,,1,,,62,77
100860,note_off,,,,,0,0,2,,,,,1,,,57,77
100896,note_on,,,,,68,0,1,,,,,0,,,93,121
100924,note_off,,,,,28,0,1,,,,,0,,,93,77
100992,note_on,,,,,68,0,1,,,,,0,,,77,121
100992,note_on,,,,,0,0,2,,,,,1,,,64,121
100992,note_on,,,,,0,0,2,,,,,1,,,62,121
100992,note_on,,,,,0,0,2,,,,,1,,,57,121
100992,note_on,,,,,132,0,2,,,,,1,,,54,121
101020,note_off,,,,,28,0,1,,,,,0,,,77,77
101052,note_off,,,,,0,0,2,,,,,1,,,64,77
101052,note_off,,,,,0,0,2,,,,,1,,,57,77
101052,note_off,,,,,60,0,2,,,,,1,,,54,77
101052,note_off,,,,,0,0,2,,,,,1,,,62,77
101088,note_on,,,,,68,0,1,,,,,0,,,89,121
101116,note_off,,,,,28,0,1,,,,,0,,,89,77
101184,note_on,,,,,68,0,1,,,,,0,,,78,121
101184,note_on,,,,,0,0,2,,,,,1,,,64,121
101184,note_on,,,,,0,0,2,,,,,1,,,62,121
101184,note_on,,,,,0,0,2,,,,,1,,,57,121
101184,note_on,,,,,132,0,2,,,,,1,,,54,121
101212,note_off,,,,,28,0,1,,,,,0,,,78,77
101244,note_off,,,,,60,0,2,,,,,1,,,54,77
101244,note_off,,,,,0,0,2,,,,,1,,,57,77
101244,note_off,,,,,0,0,2,,,,,1,,,62,77
101244,note_off,,,,,0,0,2,,,,,1,,,64,77
101280,note_on,,,,,68,0,1,,,,,0,,,90,121
101308,note_off,,,,,28,0,1,,,,,0,,,90,77
101376,note_on,,,,,68,0,1,,,,,0,,,80,121
101376,note_on,,,,,0,0,2,,,,,1,,,64,121
101376,note_on,,,,,0,0,2,,,,,1,,,62,121
101376,note_on,,,,,0,0,2,,,,,1,,,56,121
101376,note_on,,,,,132,0,2,,,,,1,,,52,121
101404,note_off,,,,,28,0,1,,,,,0,,,80,77
101436,note_off,,,,,60,0,2,,,,,1,,,52,77
101436,note_off,,,,,0,0,2,,,,,1,,,56,77
101436,note_off,,,,,0,0,2,,,,,1,,,64,77
101436,note_off,,,,,0,0,2,,,,,1,,,62,77
101472,note_on,,,,,68,0,1,,,,,0,,,92,121
101500,note_off,,,,,28,0,1,,,,,0,,,92,77
101568,note_on,,,,,132,0,2,,,,,1,,,52,121
101568,note_on,,,,,0,0,2,,,,,1,,,64,121
101568,note_on,,,,,0,0,2,,,,,1,,,62,121
101568,note_on,,,,,68,0,1,,,,,0,,,78,121
101568,note_on,,,,,0,0,2,,,,,1,,,56,121
101596,note_off,,,,,28,0,1,,,,,0,,,78,77
101628,note_off,,,,,0,0,2,,,,,1,,,64,77
101628,note_off,,,,,60,0,2,,,,,1,,,52,77
101628,note_off,,,,,0,0,2,,,,,1,,,56,77
101628,note_off,,,,,0,0,2,,,,,1,,,62,77
101664,note_on,,,,,68,0,1,,,,,0,,,90,121
101692,note_off,,,,,28,0,1,,,,,0,,,90,77
101760,note_on,,,,,132,0,2,,,,,1,,,52,121
101760,note_on,,,,,0,0,2,,,,,1,,,64,121
101760,note_on,,,,,0,0,2,,,,,1,,,62,121
101760,note_on,,,,,0,0,2,,,,,1,,,56,121
101760,note_on,,,,,68,0,1,,,,,0,,,76,121
101788,note_off,,,,,28,0,1,,,,,0,,,76,77
101820,note_off,,,,,60,0,2,,,,,1,,,52,77
101820,note_off,,,,,0,0,2,,,,,1,,,56,77
101820,note_off,,,,,0,0,2,,,,,1,,,64,77
101820,note_off,,,,,0,0,2,,,,,1,,,62,77
101856,note_on,,,,,68,0,1,,,,,0,,,88,121
101884,note_off,,,,,28,0,1,,,,,0,,,88,77
101952,note_on,,,,,132,0,2,,,,,1,,,54,121
101952,note_on,,,,,0,0,2,,,,,1,,,62,121
101952,note_on,,,,,0,0,2,,,,,1,,,64,121
101952,note_on,,,,,0,0,2,,,,,1,,,57,121
101952,note_on,,,,,68,0,1,,,,,0,,,74,121
101980,note_off,,,,,28,0,1,,,,,0,,,74,77
102012,note_off,,,,,0,0,2,,,,,1,,,64,77
102012,note_off,,,,,60,0,2,,,,,1,,,54,77
102012,note_off,,,,,0,0,2,,,,,1,,,57,77
102012,note_off,,,,,0,0,2,,,,,1,,,62,77
102048,note_on,,,,,68,0,1,,,,,0,,,86,121
102076,note_off,,,,,28,0,1,,,,,0,,,86,77
102144,note_on,,,,,0,0,2,,,,,1,,,57,121
102144,note_on,,,,,68,0,1,,,,,0,,,70,121
102144,note_on,,,,,132,0,2,,,,,1,,,54,121
102144,note_on,,,,,0,0,2,,,,,1,,,62,121
102144,note_on,,,,,0,0,2,,,,,1,,,64,121
102172,note_off,,,,,28,0,1,,,,,0,,,70,77
102204,note_off,,,,,0,0,2,,,,,1,,,64,77
102204,note_off,,,,,0,0,2,,,,,1,,,57,77
102204,note_off,,,,,60,0,2,,,,,1,,,54,77
102204,note_off,,,,,0,0,2,,,,,1,,,62,77
102240,note_on,,,,,68,0,1,,,,,0,,,82,121
102268,note_off,,,,,28,0,1,,,,,0,,,82,77
102336,note_on,,,,,0,0,2,,,,,1,,,64,121
102336,note_on,,,,,0,0,2,,,,,1,,,62,121
102336,note_on,,,,,68,0,1,,,,,0,,,71,121
102336,note_on,,,,,0,0,2,,,,,1,,,57,121
102336,note_on,,,,,132,0,2,,,,,1,,,54,121
102364,note_off,,,,,28,0,1,,,,,0,,,71,77
102396,note_off,,,,,0,0,2,,,,,1,,,57,77
102396,note_off,,,,,0,0,2,,,,,1,,,62,77
102396,note_off,,,,,0,0,2,,,,,1,,,64,77
102396,note_off,,,,,60,0,2,,,,,1,,,54,77
102432,note_on,,,,,68,0,1,,,,,0,,,83,121
102460,note_off,,,,,28,0,1,,,,,0,,,83,77
102528,note_on,,,,,68,0,1,,,,,0,,,73,121
102528,note_on,,,,,0,0,2,,,,,1,,,64,121
102528,note_on,,,,,0,0,2,,,,,1,,,62,121
102528,note_on,,,,,0,0,2,,,,,1,,,59,121
102528,note_on,,,,,132,0,2,,,,,1,,,56,121
102556,note_off,,,,,28,0,1,,,,,0,,,73,77
102588,note_off,,,,,60,0,2,,,,,1,,,56,77
102588,note_off,,,,,0,0,2,,,,,1,,,59,77
102588,note_off,,,,,0,0,2,,,,,1,,,62,77
102588,note_off,,,,,0,0,2,,,,,1,,,64,77
102624,note_on,,,,,68,0,1,,,,,0,,,85,121
102652,note_off,,,,,28,0,1,,,,,0,,,85,77
102720,note_on,,,,,132,0,2,,,,,1,,,56,121
102720,note_on,,,,,0,0,2,,,,,1,,,62,121
102720,note_on,,,,,0,0,2,,,,,1,,,64,121
102720,note_on,,,,,68,0,1,,,,,0,,,71,121
102720,note_on,,,,,0,0,2,,,,,1,,,59,121
102748,note_off,,,,,28,0,1,,,,,0,,,71,77
102780,note_off,,,,,60,0,2,,,,,1,,,56,77
102780,note_off,,,,,0,0,2,,,,,1,,,64,77
102780,note_off,,,,,0,0,2,,,,,1,,,59,77
102780,note_off,,,,,0,0,2,,,,,1,,,62,77
102816,note_on,,,,,68,0,1,,,,,0,,,83,121
102844,note_off,,,,,28,0,1,,,,,0,,,83,77
102912,note_on,,,,,0,0,2,,,,,1,,,64,121
102912,note_on,,,,,0,0,2,,,,,1,,,62,121
102912,note_on,,,,,0,0,2,,,,,1,,,59,121
102912,note_on,,,,,132,0,2,,,,,1,,,56,121
102912,note_on,,,,,68,0,1,,,,,0,,,70,121
102940,note_off,,,,,28,0,1,,,,,0,,,70,77
102972,note_off,,,,,0,0,2,,,,,1,,,64,77
102972,note_off,,,,,0,0,2,,,,,1,,,59,77
102972,note_off,,,,,0,0,2,,,,,1,,,62,77
102972,note_off,,,,,60,0,2,,,,,1,,,56,77
103008,note_on,,,,,68,0,1,,,,,0,,,82,121
103036,note_off,,,,,28,0,1,,,,,0,,,82,77
103104,note_on,,,,,68,0,1,,,,,0,,,69,121
103104,note_on,,,,,132,0,2,,,,,1,,,54,121
103104,note_on,,,,,0,0,2,,,,,1,,,64,121
103104,note_on,,,,,0,0,2,,,,,1,,,54,121
103104,note_on,,,,,0,0,2,,,,,1,,,57,121
103104,note_on,,,,,0,0,2,,,,,1,,,62,121
103132,note_off,,,,,28,0,1,,,,,0,,,69,77
103164,note_off,,,,,0,0,2,,,,,1,,,64,77
103164,note_off,,,,,0,0,2,,,,,1,,,57,77
103164,note_off,,,,,60,0,2,,,,,1,,,54,77
103164,note_off,,,,,0,0,2,,,,,1,,,62,77
103164,note_off,,,,,0,0,2,,,,,1,,,54,77
103200,note_on,,,,,68,0,1,,,,,0,,,81,121
103228,note_off,,,,,28,0,1,,,,,0,,,81,77
103296,note_on,,,,,0,0,2,,,,,1,,,57,121
103296,note_on,,,,,0,0,2,,,,,1,,,62,121
103296,note_on,,,,,68,0,1,,,,,0,,,65,121
103296,note_on,,,,,132,0,2,,,,,1,,,54,121
103296,note_on,,,,,0,0,2,,,,,1,,,64,121
103324,note_off,,,,,28,0,1,,,,,0,,,65,77
103356,note_off,,,,,0,0,2,,,,,1,,,57,77
103356,note_off,,,,,0,0,2,,,,,1,,,62,77
103356,note_off,,,,,0,0,2,,,,,1,,,64,77
103356,note_off,,,,,60,0,2,,,,,1,,,54,77
103392,note_on,,,,,68,0,1,,,,,0,,,77,121
103420,note_off,,,,,28,0,1,,,,,0,,,77,77
103488,note_on,,,,,68,0,1,,,,,0,,,66,121
103488,note_on,,,,,0,0,2,,,,,1,,,57,121
103488,note_on,,,,,0,0,2,,,,,1,,,64,121
103488,note_on,,,,,132,0,2,,,,,1,,,54,121
103488,note_on,,,,,0,0,2,,,,,1,,,62,121
103516,note_off,,,,,28,0,1,,,,,0,,,66,77
103548,note_off,,,,,0,0,2,,,,,1,,,64,77
103548,note_off,,,,,0,0,2,,,,,1,,,62,77
103548,note_off,,,,,0,0,2,,,,,1,,,57,77
103548,note_off,,,,,60,0,2,,,,,1,,,54,77
103584,note_on,,,,,68,0,1,,,,,0,,,78,121
103612,note_off,,,,,28,0,1,,,,,0,,,78,77
103680,note_on,,,,,68,0,1,,,,,0,,,68,121
103680,note_on,,,,,0,0,2,,,,,1,,,56,121
103680,note_on,,,,,0,0,2,,,,,1,,,62,121
103680,note_on,,,,,0,0,2,,,,,1,,,64,121
103680,note_on,,,,,132,0,2,,,,,1,,,52,121
103708,note_off,,,,,28,0,1,,,,,0,,,68,77
103740,note_off,,,,,0,0,2,,,,,1,,,56,77
103740,note_off,,,,,60,0,2,,,,,1,,,52,77
103740,note_off,,,,,0,0,2,,,,,1,,,62,77
103740,note_off,,,,,0,0,2,,,,,1,,,64,77
103776,note_on,,,,,68,0,1,,,,,0,,,80,121
103804,note_off,,,,,28,0,1,,,,,0,,,80,77
103872,note_on,,,,,68,0,1,,,,,0,,,66,121
103900,note_off,,,,,28,0,1,,,,,0,,,66,77
103968,note_on,,,,,68,0,1,,,,,0,,,78,121
103996,note_off,,,,,28,0,1,,,,,0,,,78,77
104064,note_on,,,,,68,0,1,,,,,0,,,64,121
104092,note_off,,,,,28,0,1,,,,,0,,,64,77
104160,note_on,,,,,68,0,1,,,,,0,,,76,121
104188,note_off,,,,,28,0,1,,,,,0,,,76,77
104256,note_on,,,,,68,0,1,,,,,0,,,62,121
104284,note_off,,,,,28,0,1,,,,,0,,,62,77
104352,note_on,,,,,68,0,1,,,,,0,,,74,121
104380,note_off,,,,,28,0,1,,,,,0,,,74,77
104448,note_on,,,,,0,0,2,,,,,1,,,34,121
104448,note_on,,,,,708,0,2,,,,,1,,,46,121
104508,note_off,,,,,0,0,2,,,,,1,,,34,77
104508,note_off,,,,,60,0,2,,,,,1,,,46,77
104544,note_on,,,,,164,0,1,,,,,0,,,58,121
104544,note_on,,,,,0,0,1,,,,,0,,,70,121
104572,note_off,,,,,0,0,1,,,,,0,,,70,77
104572,note_off,,,,,28,0,1,,,,,0,,,58,77
104640,note_on,,,,,132,0,2,,,,,1,,,35,121
104640,note_on,,,,,0,0,2,,,,,1,,,47,121
104700,note_off,,,,,60,0,2,,,,,1,,,35,77
104700,note_off,,,,,0,0,2,,,,,1,,,47,77
104736,note_on,,,,,0,0,1,,,,,0,,,71,121
104736,note_on,,,,,164,0,1,,,,,0,,,59,121
104764,note_off,,,,,28,0,1,,,,,0,,,59,77
104764,note_off,,,,,0,0,1,,,,,0,,,71,77
104832,note_on,,,,,0,0,2,,,,,1,,,49,121
104832,note_on,,,,,132,0,2,,,,,1,,,37,121
104892,note_off,,,,,60,0,2,,,,,1,,,37,77
104892,note_off,,,,,0,0,2,,,,,1,,,49,77
104928,note_on,,,,,0,0,1,,,,,0,,,73,121
104928,note_on,,,,,164,0,1,,,,,0,,,61,121
104956,note_off,,,,,0,0,1,,,,,0,,,73,77
104956,note_off,,,,,28,0,1,,,,,0,,,61,77
105024,note_on,,,,,0,0,2,,,,,1,,,50,121
105024,note_on,,,,,132,0,2,,,,,1,,,38,121
105084,note_off,,,,,60,0,2,,,,,1,,,38,77
105084,note_off,,,,,0,0,2,,,,,1,,,50,77
105120,note_on,,,,,0,0,1,,,,,0,,,74,121
105120,note_on,,,,,164,0,1,,,,,0,,,62,121
105148,note_off,,,,,28,0,1,,,,,0,,,62,77
105148,note_off,,,,,0,0,1,,,,,0,,,74,77
105216,note_on,,,,,0,0,2,,,,,1,,,51,121
105216,note_on,,,,,132,0,2,,,,,1,,,39,121
105276,note_off,,,,,0,0,2,,,,,1,,,51,77
105276,note_off,,,,,60,0,2,,,,,1,,,39,77
105312,note_on,,,,,0,0,1,,,,,0,,,75,121
105312,note_on,,,,,164,0,1,,,,,0,,,63,121
105340,note_off,,,,,28,0,1,,,,,0,,,63,77
105340,note_off,,,,,0,0,1,,,,,0,,,75,77
105408,note_on,,,,,132,0,2,,,,,1,,,40,121
105408,note_on,,,,,0,0,2,,,,,1,,,52,121
105468,note_off,,,,,0,0,2,,,,,1,,,52,77
105468,note_off,,,,,60,0,2,,,,,1,,,40,77
105504,note_on,,,,,164,0,1,,,,,0,,,64,121
105504,note_on,,,,,0,0,1,,,,,0,,,64,121
105504,note_on,,,,,0,0,1,,,,,0,,,76,121
105532,note_off,,,,,28,0,1,,,,,0,,,64,77
105532,note_off,,,,,0,0,1,,,,,0,,,64,77
105532,note_off,,,,,0,0,1,,,,,0,,,76,77
105600,note_on,,,,,132,0,2,,,,,1,,,42,121
105600,note_on,,,,,0,0,2,,,,,1,,,54,121
105660,note_off,,,,,0,0,2,,,,,1,,,54,77
105660,note_off,,,,,60,0,2,,,,,1,,,42,77
105696,note_on,,,,,164,0,1,,,,,0,,,66,121
105696,note_on,,,,,0,0,1,,,,,0,,,78,121
105724,note_off,,,,,0,0,1,,,,,0,,,78,77
105724,note_off,,,,,28,0,1,,,,,0,,,66,77
105792,note_on,,,,,132,0,2,,,,,1,,,43,121
105792,note_on,,,,,0,0,2,,,,,1,,,55,121
105852,note_off,,,,,60,0,2,,,,,1,,,43,77
105852,note_off,,,,,0,0,2,,,,,1,,,55,77
105888,note_on,,,,,0,0,1,,,,,0,,,79,121
105888,note_on,,,,,164,0,1,,,,,0,,,67,121
105916,note_off,,,,,0,0,1,,,,,0,,,79,77
105916,note_off,,,,,28,0,1,,,,,0,,,67,77
105984,note_on,,,,,0,0,2,,,,,1,,,56,121
105984,note_on,,,,,132,0,2,,,,,1,,,44,121
106044,note_off,,,,,60,0,2,,,,,1,,,44,77
106044,note_off,,,,,0,0,2,,,,,1,,,56,77
106080,note_on,,,,,0,0,1,,,,,0,,,80,121
106080,note_on,,,,,164,0,1,,,,,0,,,68,121
106108,note_off,,,,,0,0,1,,,,,0,,,80,77
106108,note_off,,,,,28,0,1,,,,,0,,,68,77
106176,note_on,,,,,132,0,2,,,,,1,,,46,121
106176,note_on,,,,,0,0,2,,,,,1,,,58,121
106236,note_off,,,,,0,0,2,,,,,1,,,58,77
106236,note_off,,,,,60,0,2,,,,,1,,,46,77
106272,note_on,,,,,0,0,1,,,,,0,,,82,121
106272,note_on,,,,,164,0,1,,,,,0,,,70,121
106300,note_off,,,,,28,0,1,,,,,0,,,70,77
106300,note_off,,,,,0,0,1,,,,,0,,,82,77
106368,note_on,,,,,132,0,2,,,,,1,,,47,121
106368,note_on,,,,,0,0,2,,,,,1,,,59,121
106428,note_off,,,,,60,0,2,,,,,1,,,47,77
106428,note_off,,,,,0,0,2,,,,,1,,,59,77
106464,note_on,,,,,0,0,1,,,,,0,,,83,121
106464,note_on,,,,,164,0,1,,,,,0,,,71,121
106492,note_off,,,,,28,0,1,,,,,0,,,71,77
106492,note_off,,,,,0,0,1,,,,,0,,,83,77
106560,note_on,,,,,0,0,2,,,,,1,,,61,121
106560,note_on,,,,,132,0,2,,,,,1,,,49,121
106620,note_off,,,,,60,0,2,,,,,1,,,49,77
106620,note_off,,,,,0,0,2,,,,,1,,,61,77
106656,note_on,,,,,0,0,1,,,,,0,,,85,121
106656,note_on,,,,,164,0,1,,,,,0,,,73,121
106684,note_off,,,,,0,0,1,,,,,0,,,85,77
106684,note_off,,,,,28,0,1,,,,,0,,,73,77
106752,note_on,,,,,0,0,2,,,,,1,,,62,121
106752,note_on,,,,,132,0,2,,,,,1,,,50,121
106812,note_off,,,,,0,0,2,,,,,1,,,62,77
106812,note_off,,,,,60,0,2,,,,,1,,,50,77
106848,note_on,,,,,0,0,1,,,,,0,,,74,121
106848,note_on,,,,,164,0,1,,,,,0,,,86,121
106912,note_off,,,,,0,0,1,,,,,0,,,74,77
106912,note_off,,,,,64,0,1,,,,,0,,,86,77
106944,note_on,,,,,132,0,2,,,,,1,,,51,121
106944,note_on,,,,,0,0,2,,,,,1,,,63,121
107004,note_off,,,,,60,0,2,,,,,1,,,51,77
107004,note_off,,,,,0,0,2,,,,,1,,,63,77
107040,note_on,,,,,0,0,1,,,,,0,,,87,121
107040,note_on,,,,,128,0,1,,,,,0,,,75,121
107068,note_off,,,,,0,0,1,,,,,0,,,87,77
107068,note_off,,,,,28,0,1,,,,,0,,,75,77
107136,note_on,,,,,0,0,2,,,,,1,,,64,121
107136,note_on,,,,,68,0,1,,,,,0,,,88,121
107136,note_on,,,,,0,0,1,,,,,0,,,76,121
107136,note_on,,,,,132,0,2,,,,,1,,,52,121
107196,note_off,,,,,0,0,2,,,,,1,,,64,77
107196,note_off,,,,,60,0,2,,,,,1,,,52,77
107196,note_off,,,,,0,0,1,,,,,0,,,76,77
107196,note_off,,,,,60,0,1,,,,,0,,,88,77
107328,note_on,,,,,132,0,2,,,,,1,,,54,121
107328,note_on,,,,,132,0,1,,,,,0,,,90,121
107328,note_on,,,,,0,0,1,,,,,0,,,78,121
107328,note_on,,,,,0,0,2,,,,,1,,,66,121
107388,note_off,,,,,0,0,1,,,,,0,,,78,77
107388,note_off,,,,,60,0,1,,,,,0,,,90,77
107388,note_off,,,,,0,0,2,,,,,1,,,66,77
107388,note_off,,,,,60,0,2,,,,,1,,,54,77
107520,note_on,,,,,0,0,2,,,,,1,,,67,121
107520,note_on,,,,,132,0,1,,,,,0,,,79,121
107520,note_on,,,,,132,0,2,,,,,1,,,55,121
107520,note_on,,,,,0,0,1,,,,,0,,,91,121
107580,note_off,,,,,0,0,1,,,,,0,,,91,77
107580,note_off,,,,,60,0,2,,,,,1,,,55,77
107580,note_off,,,,,60,0,1,,,,,0,,,79,77
107580,note_off,,,,,0,0,2,,,,,1,,,67,77
107712,note_on,,,,,132,0,1,,,,,0,,,80,121
107712,note_on,,,,,132,0,2,,,,,1,,,68,121
107712,note_on,,,,,0,0,2,,,,,1,,,56,121
107712,note_on,,,,,0,0,1,,,,,0,,,92,121
107772,note_off,,,,,60,0,1,,,,,0,,,80,77
107772,note_off,,,,,0,0,1,,,,,0,,,92,77
107840,note_off,,,,,128,0,2,,,,,1,,,68,77
107840,note_off,,,,,0,0,2,,,,,1,,,56,77
107904,note_on,,,,,64,0,2,,,,,1,,,58,121
107904,note_on,,,,,0,0,2,,,,,1,,,70,121
107904,note_on,,,,,0,0,1,,,,,0,,,94,121
107904,note_on,,,,,132,0,1,,,,,0,,,82,121
107964,note_off,,,,,60,0,1,,,,,0,,,82,77
107964,note_off,,,,,0,0,1,,,,,0,,,94,77
108032,note_off,,,,,128,0,2,,,,,1,,,58,77
108032,note_off,,,,,0,0,2,,,,,1,,,70,77
108096,note_on,,,,,132,0,1,,,,,0,,,83,121
108096,note_on,,,,,0,0,2,,,,,1,,,71,121
108096,note_on,,,,,64,0,2,,,,,1,,,59,121
108096,note_on,,,,,0,0,1,,,,,0,,,95,121
108156,note_off,,,,,0,0,1,,,,,0,,,95,77
108156,note_off,,,,,60,0,1,,,,,0,,,83,77
108224,note_off,,,,,128,0,2,,,,,1,,,59,77
108224,note_off,,,,,0,0,2,,,,,1,,,71,77
108288,note_on,,,,,64,0,2,,,,,1,,,73,121
108288,note_on,,,,,0,0,2,,,,,1,,,61,121
108288,note_on,,,,,132,0,1,,,,,0,,,85,121
108288,note_on,,,,,0,0,1,,,,,0,,,97,121
108348,note_off,,,,,0,0,1,,,,,0,,,97,77
108348,note_off,,,,,60,0,1,,,,,0,,,85,77
108416,note_off,,,,,0,0,2,,,,,1,,,61,77
108416,note_off,,,,,128,0,2,,,,,1,,,73,77
108480,note_on,,,,,64,0,2,,,,,1,,,62,121
108480,note_on,,,,,0,0,1,,,,,0,,,98,121
108480,note_on,,,,,0,0,2,,,,,1,,,74,121
108480,note_on,,,,,132,0,1,,,,,0,,,86,121
108540,note_off,,,,,0,0,1,,,,,0,,,98,77
108540,note_off,,,,,60,0,1,,,,,0,,,86,77
108608,note_off,,,,,0,0,2,,,,,1,,,74,77
108608,note_off,,,,,128,0,2,,,,,1,,,62,77
108672,note_on,,,,,0,0,2,,,,,1,,,75,121
108672,note_on,,,,,132,0,1,,,,,0,,,87,121
108672,note_on,,,,,0,0,1,,,,,0,,,99,121
108672,note_on,,,,,64,0,2,,,,,1,,,63,121
108732,note_off,,,,,0,0,1,,,,,0,,,99,77
108732,note_off,,,,,60,0,1,,,,,0,,,87,77
108800,note_off,,,,,128,0,2,,,,,1,,,63,77
108800,note_off,,,,,0,0,2,,,,,1,,,75,77
108864,note_on,,,,,0,0,2,,,,,1,,,76,121
108864,note_on,,,,,0,0,1,,,,,0,,,100,121
108864,note_on,,,,,132,0,1,,,,,0,,,88,121
108864,note_on,,,,,64,0,2,,,,,1,,,64,121
108924,note_off,,,,,0,0,1,,,,,0,,,100,77
108924,note_off,,,,,60,0,1,,,,,0,,,88,77
108992,note_off,,,,,128,0,2,,,,,1,,,64,77
108992,note_off,,,,,0,0,2,,,,,1,,,76,77
109056,note_on,,,,,0,0,2,,,,,1,,,64,121
109056,note_on,,,,,64,0,2,,,,,1,,,52,121
109056,note_on,,,,,132,0,1,,,,,0,,,88,121
109056,note_on,,,,,0,0,1,,,,,0,,,100,121
109084,note_off,,,,,0,0,1,,,,,0,,,100,77
109084,note_off,,,,,28,0,1,,,,,0,,,88,77
109084,note_off,,,,,0,0,2,,,,,1,,,64,77
109084,note_off,,,,,28,0,2,,,,,1,,,52,77
109152,note_on,,,,,68,0,1,,,,,0,,,88,121
109152,note_on,,,,,0,0,1,,,,,0,,,100,121
109152,note_on,,,,,0,0,2,,,,,1,,,64,121
109152,note_on,,,,,68,0,2,,,,,1,,,52,121
109212,note_off,,,,,60,0,1,,,,,0,,,88,77
109212,note_off,,,,,0,0,1,,,,,0,,,100,77
109212,note_off,,,,,0,0,2,,,,,1,,,64,77
109212,note_off,,,,,60,0,2,,,,,1,,,52,77
109440,note_on,,,,,0,0,1,,,,,0,,,101,121
109440,note_on,,,,,0,0,2,,,,,1,,,56,121
109440,note_on,,,,,228,0,2,,,,,1,,,44,121
109440,note_on,,,,,228,0,1,,,,,0,,,89,121
109468,note_off,,,,,28,0,1,,,,,0,,,89,77
109468,note_off,,,,,0,0,1,,,,,0,,,101,77
109500,note_off,,,,,60,0,2,,,,,1,,,44,77
109500,note_off,,,,,0,0,2,,,,,1,,,56,77
109536,note_on,,,,,68,0,1,,,,,0,,,96,121
109564,note_off,,,,,28,0,1,,,,,0,,,96,77
109632,note_on,,,,,68,0,1,,,,,0,,,92,121
109660,note_off,,,,,28,0,1,,,,,0,,,92,77
109728,note_on,,,,,228,0,2,,,,,1,,,56,121
109728,note_on,,,,,0,0,2,,,,,1,,,65,121
109728,note_on,,,,,68,0,1,,,,,0,,,89,121
109728,note_on,,,,,0,0,2,,,,,1,,,60,121
109756,note_off,,,,,0,0,2,,,,,1,,,60,77
109756,note_off,,,,,0,0,2,,,,,1,,,65,77
109756,note_off,,,,,28,0,1,,,,,0,,,89,77
109756,note_off,,,,,28,0,2,,,,,1,,,56,77
109824,note_on,,,,,0,0,2,,,,,1,,,65,121
109824,note_on,,,,,0,0,2,,,,,1,,,60,121
109824,note_on,,,,,68,0,1,,,,,0,,,84,121
109824,note_on,,,,,68,0,2,,,,,1,,,56,121
109852,note_off,,,,,28,0,1,,,,,0,,,84,77
109884,note_off,,,,,0,0,2,,,,,1,,,60,77
109884,note_off,,,,,0,0,2,,,,,1,,,65,77
109884,note_off,,,,,60,0,2,,,,,1,,,56,77
109920,note_on,,,,,68,0,1,,,,,0,,,80,121
109948,note_off,,,,,28,0,1,,,,,0,,,80,77
110016,note_on,,,,,68,0,1,,,,,0,,,76,121
110016,note_on,,,,,0,0,2,,,,,1,,,64,121
110016,note_on,,,,,132,0,2,,,,,1,,,52,121
110016,note_on,,,,,0,0,1,,,,,0,,,88,121
110076,note_off,,,,,0,0,2,,,,,1,,,64,77
110076,note_off,,,,,60,0,1,,,,,0,,,76,77
110076,note_off,,,,,60,0,2,,,,,1,,,52,77
110076,note_off,,,,,0,0,1,,,,,0,,,88,77
110208,note_on,,,,,132,0,1,,,,,0,,,88,121
110208,note_on,,,,,0,0,1,,,,,0,,,100,121
110208,note_on,,,,,0,0,2,,,,,1,,,64,121
110208,note_on,,,,,132,0,2,,,,,1,,,52,121
110236,note_off,,,,,0,0,1,,,,,0,,,100,77
110236,note_off,,,,,28,0,1,,,,,0,,,88,77
110236,note_off,,,,,0,0,2,,,,,1,,,64,77
110236,note_off,,,,,28,0,2,,,,,1,,,52,77
110304,note_on,,,,,68,0,2,,,,,1,,,52,121
110304,note_on,,,,,68,0,1,,,,,0,,,88,121
110304,note_on,,,,,0,0,2,,,,,1,,,64,121
110304,note_on,,,,,0,0,1,,,,,0,,,100,121
110364,note_off,,,,,0,0,2,,,,,1,,,64,77
110364,note_off,,,,,60,0,1,,,,,0,,,88,77
110364,note_off,,,,,0,0,1,,,,,0,,,100,77
110364,note_off,,,,,60,0,2,,,,,1,,,52,77
110592,note_on,,,,,0,0,1,,,,,0,,,101,121
110592,note_on,,,,,0,0,1,,,,,0,,,101,121
110592,note_on,,,,,228,0,2,,,,,1,,,44,121
110592,note_on,,,,,228,0,1,,,,,0,,,89,121
110592,note_on,,,,,0,0,2,,,,,1,,,56,121
110620,note_off,,,,,28,0,1,,,,,0,,,89,77
110620,note_off,,,,,0,0,1,,,,,0,,,101,77
110652,note_off,,,,,60,0,2,,,,,1,,,44,77
110652,note_off,,,,,0,0,2,,,,,1,,,56,77
110688,note_on,,,,,68,0,1,,,,,0,,,96,121
110716,note_off,,,,,28,0,1,,,,,0,,,96,77
110784,note_on,,,,,68,0,1,,,,,0,,,92,121
110812,note_off,,,,,28,0,1,,,,,0,,,92,77
110848,note_off,,,,,36,0,1,,,,,0,,,101,77
110880,note_on,,,,,228,0,2,,,,,1,,,56,121
110880,note_on,,,,,0,0,2,,,,,1,,,60,121
110880,note_on,,,,,0,0,2,,,,,1,,,65,121
110880,note_on,,,,,32,0,1,,,,,0,,,89,121
110908,note_off,,,,,28,0,1,,,,,0,,,89,77
110908,note_off,,,,,28,0,2,,,,,1,,,56,77
110908,note_off,,,,,0,0,2,,,,,1,,,60,77
110908,note_off,,,,,0,0,2,,,,,1,,,65,77
110976,note_on,,,,,68,0,1,,,,,0,,,84,121
110976,note_on,,,,,0,0,2,,,,,1,,,60,121
110976,note_on,,,,,68,0,2,,,,,1,,,56,121
110976,note_on,,,,,0,0,2,,,,,1,,,65,121
111004,note_off,,,,,28,0,1,,,,,0,,,84,77
111036,note_off,,,,,0,0,2,,,,,1,,,65,77
111036,note_off,,,,,60,0,2,,,,,1,,,56,77
111036,note_off,,,,,0,0,2,,,,,1,,,60,77
111072,note_on,,,,,68,0,1,,,,,0,,,80,121
111100,note_off,,,,,28,0,1,,,,,0,,,80,77
111168,note_on,,,,,0,0,1,,,,,0,,,88,121
111168,note_on,,,,,68,0,1,,,,,0,,,76,121
111168,note_on,,,,,0,0,2,,,,,1,,,64,121
111168,note_on,,,,,132,0,2,,,,,1,,,52,121
111228,note_off,,,,,0,0,1,,,,,0,,,88,77
111228,note_off,,,,,0,0,2,,,,,1,,,64,77
111228,note_off,,,,,60,0,1,,,,,0,,,76,77
111228,note_off,,,,,60,0,2,,,,,1,,,52,77
111360,note_on,,,,,0,0,1,,,,,0,,,100,121
111360,note_on,,,,,0,0,2,,,,,1,,,64,121
111360,note_on,,,,,132,0,2,,,,,1,,,52,121
111360,note_on,,,,,132,0,1,,,,,0,,,88,121
111388,note_off,,,,,0,0,1,,,,,0,,,100,77
111388,note_off,,,,,28,0,1,,,,,0,,,88,77
111388,note_off,,,,,0,0,2,,,,,1,,,64,77
111388,note_off,,,,,28,0,2,,,,,1,,,52,77
111456,note_on,,,,,0,0,1,,,,,0,,,100,121
111456,note_on,,,,,68,0,1,,,,,0,,,88,121
111456,note_on,,,,,0,0,2,,,,,1,,,64,121
111456,note_on,,,,,68,0,2,,,,,1,,,52,121
111516,note_off,,,,,0,0,2,,,,,1,,,64,77
111516,note_off,,,,,60,0,1,,,,,0,,,88,77
111516,note_off,,,,,0,0,1,,,,,0,,,100,77
111516,note_off,,,,,60,0,2,,,,,1,,,52,77
111744,note_on,,,,,228,0,1,,,,,0,,,89,121
111744,note_on,,,,,228,0,2,,,,,1,,,44,121
111744,note_on,,,,,0,0,1,,,,,0,,,101,121
111744,note_on,,,,,0,0,2,,,,,1,,,56,121
111744,note_on,,,,,0,0,1,,,,,0,,,101,121
111772,note_off,,,,,0,0,1,,,,,0,,,101,77
111772,note_off,,,,,28,0,1,,,,,0,,,89,77
111804,note_off,,,,,60,0,2,,,,,1,,,44,77
111804,note_off,,,,,0,0,2,,,,,1,,,56,77
111840,note_on,,,,,68,0,1,,,,,0,,,96,121
111868,note_off,,,,,28,0,1,,,,,0,,,96,77
111936,note_on,,,,,68,0,1,,,,,0,,,92,121
111964,note_off,,,,,28,0,1,,,,,0,,,92,77
112000,note_off,,,,,36,0,1,,,,,0,,,101,77
112032,note_on,,,,,32,0,1,,,,,0,,,89,121
112060,note_off,,,,,28,0,1,,,,,0,,,89,77
112128,note_on,,,,,68,0,1,,,,,0,,,84,121
112128,note_on,,,,,0,0,2,,,,,1,,,65,121
112128,note_on,,,,,0,0,2,,,,,1,,,60,121
112128,note_on,,,,,324,0,2,,,,,1,,,56,121
112156,note_off,,,,,28,0,1,,,,,0,,,84,77
112188,note_off,,,,,60,0,2,,,,,1,,,56,77
112188,note_off,,,,,0,0,2,,,,,1,,,60,77
112188,note_off,,,,,0,0,2,,,,,1,,,65,77
112224,note_on,,,,,68,0,1,,,,,0,,,80,121
112252,note_off,,,,,28,0,1,,,,,0,,,80,77
112320,note_on,,,,,0,0,1,,,,,0,,,77,121
112320,note_on,,,,,0,0,1,,,,,0,,,89,121
112320,note_on,,,,,0,0,2,,,,,1,,,65,121
112320,note_on,,,,,132,0,2,,,,,1,,,56,121
112320,note_on,,,,,0,0,2,,,,,1,,,60,121
112320,note_on,,,,,68,0,1,,,,,0,,,89,121
112348,note_off,,,,,0,0,1,,,,,0,,,77,77
112348,note_off,,,,,28,0,1,,,,,0,,,89,77
112380,note_off,,,,,0,0,2,,,,,1,,,65,77
112380,note_off,,,,,0,0,2,,,,,1,,,60,77
112380,note_off,,,,,60,0,2,,,,,1,,,56,77
112416,note_on,,,,,68,0,1,,,,,0,,,84,121
112444,note_off,,,,,28,0,1,,,,,0,,,84,77
112512,note_on,,,,,68,0,1,,,,,0,,,80,121
112540,note_off,,,,,28,0,1,,,,,0,,,80,77
112576,note_off,,,,,36,0,1,,,,,0,,,89,77
112608,note_on,,,,,32,0,1,,,,,0,,,77,121
112636,note_off,,,,,28,0,1,,,,,0,,,77,77
112704,note_on,,,,,68,0,1,,,,,0,,,84,121
112704,note_on,,,,,0,0,2,,,,,1,,,44,121
112704,note_on,,,,,324,0,2,,,,,1,,,53,121
112704,note_on,,,,,0,0,2,,,,,1,,,48,121
112732,note_off,,,,,28,0,1,,,,,0,,,84,77
112764,note_off,,,,,0,0,2,,,,,1,,,48,77
112764,note_off,,,,,0,0,2,,,,,1,,,44,77
112764,note_off,,,,,60,0,2,,,,,1,,,53,77
112800,note_on,,,,,68,0,1,,,,,0,,,80,121
112828,note_off,,,,,28,0,1,,,,,0,,,80,77
112896,note_on,,,,,0,0,2,,,,,1,,,44,121
112896,note_on,,,,,68,0,1,,,,,0,,,65,121
112896,note_on,,,,,0,0,2,,,,,1,,,48,121
112896,note_on,,,,,0,0,1,,,,,0,,,77,121
112896,note_on,,,,,0,0,1,,,,,0,,,77,121
112896,note_on,,,,,132,0,2,,,,,1,,,53,121
112924,note_off,,,,,0,0,1,,,,,0,,,77,77
112924,note_off,,,,,28,0,1,,,,,0,,,65,77
112956,note_off,,,,,0,0,2,,,,,1,,,48,77
112956,note_off,,,,,0,0,2,,,,,1,,,44,77
112956,note_off,,,,,60,0,2,,,,,1,,,53,77
112992,note_on,,,,,68,0,1,,,,,0,,,72,121
113020,note_off,,,,,28,0,1,,,,,0,,,72,77
113088,note_on,,,,,68,0,1,,,,,0,,,68,121
113116,note_off,,,,,28,0,1,,,,,0,,,68,77
113152,note_off,,,,,36,0,1,,,,,0,,,77,77
113184,note_on,,,,,32,0,1,,,,,0,,,65,121
113212,note_off,,,,,28,0,1,,,,,0,,,65,77
113280,note_on,,,,,0,0,2,,,,,1,,,36,121
113280,note_on,,,,,68,0,1,,,,,0,,,60,121
113280,note_on,,,,,0,0,2,,,,,1,,,32,121
113280,note_on,,,,,324,0,2,,,,,1,,,41,121
113308,note_off,,,,,28,0,1,,,,,0,,,60,77
113340,note_off,,,,,0,0,2,,,,,1,,,36,77
113340,note_off,,,,,0,0,2,,,,,1,,,32,77
113340,note_off,,,,,60,0,2,,,,,1,,,41,77
113376,note_on,,,,,68,0,1,,,,,0,,,56,121
113404,note_off,,,,,28,0,1,,,,,0,,,56,77
113472,note_on,,,,,0,0,2,,,,,1,,,41,121
113472,note_on,,,,,0,0,2,,,,,1,,,36,121
113472,note_on,,,,,132,0,2,,,,,1,,,53,121
113472,note_on,,,,,0,0,2,,,,,1,,,32,121
113472,note_on,,,,,68,0,1,,,,,0,,,65,121
113532,note_off,,,,,60,0,1,,,,,0,,,65,77
113532,note_off,,,,,0,0,2,,,,,1,,,41,77
113532,note_off,,,,,0,0,2,,,,,1,,,32,77
113532,note_off,,,,,60,0,2,,,,,1,,,53,77
113532,note_off,,,,,0,0,2,,,,,1,,,36,77
115776,note_on,,,,,0,0,2,,,,,1,,,35,121
115776,note_on,,,,,2244,0,2,,,,,1,,,47,121
115804,note_off,,,,,0,0,2,,,,,1,,,35,77
115804,note_off,,,,,28,0,2,,,,,1,,,47,77
115872,note_on,,,,,0,0,2,,,,,1,,,36,121
115872,note_on,,,,,68,0,2,,,,,1,,,48,121
115900,note_off,,,,,28,0,2,,,,,1,,,48,77
115900,note_off,,,,,0,0,2,,,,,1,,,36,77
115968,note_on,,,,,0,0,2,,,,,1,,,38,121
115968,note_on,,,,,68,0,2,,,,,1,,,50,121
115996,note_off,,,,,28,0,2,,,,,1,,,50,77
115996,note_off,,,,,0,0,2,,,,,1,,,38,77
116064,note_on,,,,,68,0,2,,,,,1,,,52,121
116064,note_on,,,,,0,0,2,,,,,1,,,40,121
116092,note_off,,,,,28,0,2,,,,,1,,,52,77
116092,note_off,,,,,0,0,2,,,,,1,,,40,77
116160,note_on,,,,,68,0,2,,,,,1,,,53,121
116160,note_on,,,,,0,0,2,,,,,1,,,41,121
116188,note_off,,,,,28,0,2,,,,,1,,,53,77
116188,note_off,,,,,0,0,2,,,,,1,,,41,77
116256,note_on,,,,,68,0,2,,,,,1,,,55,121
116256,note_on,,,,,0,0,2,,,,,1,,,43,121
116284,note_off,,,,,28,0,2,,,,,1,,,55,77
116284,note_off,,,,,0,0,2,,,,,1,,,43,77
116352,note_on,,,,,0,0,2,,,,,1,,,45,121
116352,note_on,,,,,68,0,2,,,,,1,,,57,121
116380,note_off,,,,,28,0,2,,,,,1,,,57,77
116380,note_off,,,,,0,0,2,,,,,1,,,45,77
116448,note_on,,,,,0,0,2,,,,,1,,,47,121
116448,note_on,,,,,68,0,2,,,,,1,,,59,121
116476,note_off,,,,,0,0,2,,,,,1,,,47,77
116476,note_off,,,,,28,0,2,,,,,1,,,59,77
116544,note_on,,,,,3012,0,1,,,,,0,,,60,121
116544,note_on,,,,,68,0,2,,,,,1,,,48,121
116572,note_off,,,,,28,0,1,,,,,0,,,60,77
116572,note_off,,,,,28,0,2,,,,,1,,,48,77
116640,note_on,,,,,68,0,2,,,,,1,,,50,121
116640,note_on,,,,,68,0,1,,,,,0,,,62,121
116668,note_off,,,,,28,0,2,,,,,1,,,50,77
116668,note_off,,,,,28,0,1,,,,,0,,,62,77
116736,note_on,,,,,68,0,1,,,,,0,,,64,121
116736,note_on,,,,,68,0,2,,,,,1,,,52,121
116764,note_off,,,,,28,0,1,,,,,0,,,64,77
116764,note_off,,,,,28,0,2,,,,,1,,,52,77
116832,note_on,,,,,68,0,2,,,,,1,,,53,121
116832,note_on,,,,,68,0,1,,,,,0,,,65,121
116860,note_off,,,,,28,0,1,,,,,0,,,65,77
116860,note_off,,,,,28,0,2,,,,,1,,,53,77
116928,note_on,,,,,68,0,2,,,,,1,,,55,121
116928,note_on,,,,,68,0,1,,,,,0,,,67,121
116956,note_off,,,,,28,0,2,,,,,1,,,55,77
116956,note_off,,,,,28,0,1,,,,,0,,,67,77
117024,note_on,,,,,68,0,2,,,,,1,,,57,121
117024,note_on,,,,,0,0,1,,,,,0,,,61,121
117024,note_on,,,,,68,0,1,,,,,0,,,69,121
117052,note_off,,,,,28,0,2,,,,,1,,,57,77
117052,note_off,,,,,28,0,1,,,,,0,,,69,77
117052,note_off,,,,,0,0,1,,,,,0,,,61,77
117120,note_on,,,,,68,0,1,,,,,0,,,71,121
117120,note_on,,,,,68,0,2,,,,,1,,,59,121
117148,note_off,,,,,28,0,2,,,,,1,,,59,77
117148,note_off,,,,,28,0,1,,,,,0,,,71,77
117216,note_on,,,,,68,0,2,,,,,1,,,60,121
117216,note_on,,,,,68,0,1,,,,,0,,,72,121
117244,note_off,,,,,28,0,1,,,,,0,,,72,77
117244,note_off,,,,,28,0,2,,,,,1,,,60,77
117312,note_on,,,,,68,0,1,,,,,0,,,62,121
117312,note_on,,,,,0,0,1,,,,,0,,,74,121
117340,note_off,,,,,28,0,1,,,,,0,,,62,77
117340,note_off,,,,,0,0,1,,,,,0,,,74,77
117408,note_on,,,,,0,0,1,,,,,0,,,76,121
117408,note_on,,,,,68,0,1,,,,,0,,,64,121
117436,note_off,,,,,28,0,1,,,,,0,,,64,77
117436,note_off,,,,,0,0,1,,,,,0,,,76,77
117504,note_on,,,,,68,0,1,,,,,0,,,77,121
117504,note_on,,,,,0,0,1,,,,,0,,,65,121
117532,note_off,,,,,28,0,1,,,,,0,,,77,77
117532,note_off,,,,,0,0,1,,,,,0,,,65,77
117600,note_on,,,,,0,0,1,,,,,0,,,67,121
117600,note_on,,,,,68,0,1,,,,,0,,,79,121
117628,note_off,,,,,28,0,1,,,,,0,,,79,77
117628,note_off,,,,,0,0,1,,,,,0,,,67,77
117696,note_on,,,,,0,0,1,,,,,0,,,69,121
117696,note_on,,,,,68,0,1,,,,,0,,,81,121
117724,note_off,,,,,28,0,1,,,,,0,,,81,77
117724,note_off,,,,,0,0,1,,,,,0,,,69,77
117792,note_on,,,,,0,0,1,,,,,0,,,71,121
117792,note_on,,,,,68,0,1,,,,,0,,,83,121
117820,note_off,,,,,0,0,1,,,,,0,,,71,77
117820,note_off,,,,,28,0,1,,,,,0,,,83,77
117888,note_on,,,,,0,0,1,,,,,0,,,72,121
117888,note_on,,,,,68,0,1,,,,,0,,,84,121
117916,note_off,,,,,28,0,1,,,,,0,,,84,77
117916,note_off,,,,,0,0,1,,,,,0,,,72,77
117984,note_on,,,,,0,0,1,,,,,0,,,86,121
117984,note_on,,,,,68,0,1,,,,,0,,,74,121
118012,note_off,,,,,28,0,1,,,,,0,,,74,77
118012,note_off,,,,,0,0,1,,,,,0,,,86,77
118080,note_on,,,,,68,0,1,,,,,0,,,88,121
118080,note_on,,,,,836,0,2,,,,,1,,,76,121
118108,note_off,,,,,28,0,2,,,,,1,,,76,77
118108,note_off,,,,,28,0,1,,,,,0,,,88,77
118176,note_on,,,,,68,0,2,,,,,1,,,77,121
118176,note_on,,,,,68,0,1,,,,,0,,,89,121
118204,note_off,,,,,28,0,2,,,,,1,,,77,77
118204,note_off,,,,,28,0,1,,,,,0,,,89,77
118272,note_on,,,,,68,0,2,,,,,1,,,79,121
118272,note_on,,,,,68,0,1,,,,,0,,,91,121
118300,note_off,,,,,28,0,1,,,,,0,,,91,77
118300,note_off,,,,,28,0,2,,,,,1,,,79,77
118368,note_on,,,,,68,0,1,,,,,0,,,93,121
118368,note_on,,,,,68,0,2,,,,,1,,,81,121
118396,note_off,,,,,28,0,2,,,,,1,,,81,77
118396,note_off,,,,,28,0,1,,,,,0,,,93,77
118464,note_on,,,,,68,0,2,,,,,1,,,83,121
118464,note_on,,,,,68,0,1,,,,,0,,,95,121
118492,note_off,,,,,28,0,2,,,,,1,,,83,77
118492,note_off,,,,,28,0,1,,,,,0,,,95,77
118560,note_on,,,,,68,0,2,,,,,1,,,84,121
118560,note_on,,,,,68,0,1,,,,,0,,,96,121
118588,note_off,,,,,28,0,2,,,,,1,,,84,77
118588,note_off,,,,,28,0,1,,,,,0,,,96,77
118656,note_on,,,,,0,0,1,,,,,0,,,98,121
118656,note_on,,,,,68,0,2,,,,,1,,,86,121
118656,note_on,,,,,68,0,1,,,,,0,,,98,121
118684,note_off,,,,,28,0,1,,,,,0,,,98,77
118684,note_off,,,,,28,0,2,,,,,1,,,86,77
118752,note_on,,,,,68,0,1,,,,,0,,,100,121
118812,note_off,,,,,60,0,1,,,,,0,,,100,77
118912,note_off,,,,,100,0,1,,,,,0,,,98,77
118944,note_on,,,,,0,0,1,,,,,0,,,88,121
118944,note_on,,,,,32,0,1,,,,,0,,,100,121
119004,note_off,,,,,0,0,1,,,,,0,,,88,77
119004,note_off,,,,,60,0,1,,,,,0,,,100,77
119136,note_on,,,,,0,0,1,,,,,0,,,88,121
119136,note_on,,,,,0,0,2,,,,,1,,,64,121
119136,note_on,,,,,452,0,2,,,,,1,,,76,121
119136,note_on,,,,,132,0,1,,,,,0,,,100,121
119196,note_off,,,,,0,0,1,,,,,0,,,88,77
119196,note_off,,,,,60,0,1,,,,,0,,,100,77
119196,note_off,,,,,60,0,2,,,,,1,,,76,77
119196,note_off,,,,,0,0,2,,,,,1,,,64,77
119232,note_on,,,,,36,0,2,,,,,1,,,64,121
119232,note_on,,,,,0,0,2,,,,,1,,,76,121
119232,note_on,,,,,36,0,1,,,,,0,,,88,121
119232,note_on,,,,,0,0,1,,,,,0,,,100,121
119292,note_off,,,,,60,0,1,,,,,0,,,88,77
119292,note_off,,,,,0,0,2,,,,,1,,,76,77
119292,note_off,,,,,60,0,2,,,,,1,,,64,77
119292,note_off,,,,,0,0,1,,,,,0,,,100,77
119424,note_on,,,,,132,0,1,,,,,0,,,88,121
119424,note_on,,,,,0,0,1,,,,,0,,,100,121
119484,note_off,,,,,0,0,1,,,,,0,,,100,77
119484,note_off,,,,,60,0,1,,,,,0,,,88,77
119616,note_on,,,,,0,0,1,,,,,0,,,100,121
119616,note_on,,,,,0,0,2,,,,,1,,,61,121
119616,note_on,,,,,132,0,1,,,,,0,,,88,121
119616,note_on,,,,,324,0,2,,,,,1,,,73,121
119676,note_off,,,,,0,0,1,,,,,0,,,100,77
119676,note_off,,,,,0,0,2,,,,,1,,,61,77
119676,note_off,,,,,60,0,2,,,,,1,,,73,77
119676,note_off,,,,,60,0,1,,,,,0,,,88,77
119808,note_on,,,,,0,0,1,,,,,0,,,100,121
119808,note_on,,,,,0,0,2,,,,,1,,,64,121
119808,note_on,,,,,132,0,2,,,,,1,,,52,121
119808,note_on,,,,,132,0,1,,,,,0,,,88,121
119868,note_off,,,,,60,0,2,,,,,1,,,52,77
119868,note_off,,,,,60,0,1,,,,,0,,,88,77
119868,note_off,,,,,0,0,2,,,,,1,,,64,77
119868,note_off,,,,,0,0,1,,,,,0,,,100,77
120000,note_on,,,,,132,0,1,,,,,0,,,88,121
120000,note_on,,,,,0,0,1,,,,,0,,,100,121
120060,note_off,,,,,60,0,1,,,,,0,,,88,77
120060,note_off,,,,,0,0,1,,,,,0,,,100,77
120192,note_on,,,,,324,0,2,,,,,1,,,52,121
120192,note_on,,,,,0,0,2,,,,,1,,,40,121
120192,note_on,,,,,132,0,1,,,,,0,,,88,121
120192,note_on,,,,,0,0,1,,,,,0,,,100,121
120252,note_off,,,,,0,0,2,,,,,1,,,40,77
120252,note_off,,,,,60,0,1,,,,,0,,,88,77
120252,note_off,,,,,0,0,1,,,,,0,,,100,77
120252,note_off,,,,,60,0,2,,,,,1,,,52,77
120384,note_on,,,,,0,0,1,,,,,0,,,100,121
120384,note_on,,,,,132,0,2,,,,,1,,,40,121
120384,note_on,,,,,0,0,2,,,,,1,,,52,121
120384,note_on,,,,,132,0,1,,,,,0,,,88,121
120444,note_off,,,,,60,0,1,,,,,0,,,88,77
120444,note_off,,,,,0,0,1,,,,,0,,,100,77
120444,note_off,,,,,0,0,2,,,,,1,,,52,77
120444,note_off,,,,,60,0,2,,,,,1,,,40,77
120576,note_on,,,,,132,0,1,,,,,0,,,88,121
120576,note_on,,,,,0,0,1,,,,,0,,,100,121
120636,note_off,,,,,0,0,1,,,,,0,,,100,77
120636,note_off,,,,,60,0,1,,,,,0,,,88,77
120768,note_on,,,,,0,0,1,,,,,0,,,97,121
120768,note_on,,,,,324,0,2,,,,,1,,,45,121
120768,note_on,,,,,0,0,1,,,,,0,,,100,121
120768,note_on,,,,,0,0,2,,,,,1,,,40,121
120768,note_on,,,,,0,0,2,,,,,1,,,33,121
120768,note_on,,,,,132,0,1,,,,,0,,,88,121
120768,note_on,,,,,0,0,1,,,,,0,,,93,121
120828,note_off,,,,,0,0,2,,,,,1,,,40,77
120828,note_off,,,,,0,0,2,,,,,1,,,33,77
120828,note_off,,,,,60,0,1,,,,,0,,,88,77
120828,note_off,,,,,0,0,1,,,,,0,,,97,77
120828,note_off,,,,,0,0,1,,,,,0,,,100,77
120828,note_off,,,,,0,0,1,,,,,0,,,93,77
120828,note_off,,,,,60,0,2,,,,,1,,,45,77
120960,note_on,,,,,0,0,1,,,,,0,,,93,121
120960,note_on,,,,,132,0,1,,,,,0,,,88,121
120960,note_on,,,,,0,0,1,,,,,0,,,97,121
120960,note_on,,,,,0,0,1,,,,,0,,,100,121
120960,note_on,,,,,132,0,2,,,,,1,,,45,121
120960,note_on,,,,,0,0,2,,,,,1,,,40,121
120960,note_on,,,,,0,0,2,,,,,1,,,33,121
121020,note_off,,,,,0,0,2,,,,,1,,,40,77
121020,note_off,,,,,0,0,2,,,,,1,,,33,77
121020,note_off,,,,,60,0,2,,,,,1,,,45,77
121020,note_off,,,,,60,0,1,,,,,0,,,88,77
121020,note_off,,,,,0,0,1,,,,,0,,,100,77
121020,note_off,,,,,0,0,1,,,,,0,,,93,77
121020,note_off,,,,,0,0,1,,,,,0,,,97,77
121152,note_on,,,,,0,0,1,,,,,0,,,85,121
121152,note_on,,,,,0,0,1,,,,,0,,,88,121
121152,note_on,,,,,0,0,1,,,,,0,,,81,121
121152,note_on,,,,,132,0,1,,,,,0,,,76,121
121152,note_on,,,,,0,0,2,,,,,1,,,52,121
121152,note_on,,,,,132,0,2,,,,,1,,,40,121
121212,note_off,,,,,0,0,1,,,,,0,,,88,77
121212,note_off,,,,,60,0,1,,,,,0,,,76,77
121212,note_off,,,,,0,0,2,,,,,1,,,52,77
121212,note_off,,,,,0,0,1,,,,,0,,,85,77
121212,note_off,,,,,0,0,1,,,,,0,,,81,77
121212,note_off,,,,,60,0,2,,,,,1,,,40,77
121344,note_on,,,,,132,0,2,,,,,1,,,45,121
121344,note_on,,,,,0,0,1,,,,,0,,,81,121
121344,note_on,,,,,132,0,1,,,,,0,,,76,121
121344,note_on,,,,,0,0,2,,,,,1,,,57,121
121344,note_on,,,,,0,0,1,,,,,0,,,85,121
121344,note_on,,,,,0,0,1,,,,,0,,,88,121
121404,note_off,,,,,60,0,1,,,,,0,,,76,77
121404,note_off,,,,,0,0,1,,,,,0,,,81,77
121404,note_off,,,,,0,0,2,,,,,1,,,57,77
121404,note_off,,,,,60,0,2,,,,,1,,,45,77
121404,note_off,,,,,0,0,1,,,,,0,,,85,77
121404,note_off,,,,,0,0,1,,,,,0,,,88,77
121536,note_on,,,,,0,0,1,,,,,0,,,81,121
121536,note_on,,,,,0,0,1,,,,,0,,,88,121
121536,note_on,,,,,0,0,1,,,,,0,,,85,121
121536,note_on,,,,,0,0,2,,,,,1,,,64,121
121536,note_on,,,,,132,0,1,,,,,0,,,76,121
121536,note_on,,,,,132,0,2,,,,,1,,,52,121
121596,note_off,,,,,60,0,1,,,,,0,,,76,77
121596,note_off,,,,,0,0,1,,,,,0,,,85,77
121596,note_off,,,,,0,0,1,,,,,0,,,81,77
121596,note_off,,,,,0,0,1,,,,,0,,,88,77
121660,note_off,,,,,124,0,2,,,,,1,,,52,77
121660,note_off,,,,,0,0,2,,,,,1,,,64,77
121728,note_on,,,,,132,0,1,,,,,0,,,76,121
121728,note_on,,,,,0,0,1,,,,,0,,,88,121
121728,note_on,,,,,0,0,1,,,,,0,,,85,121
121728,note_on,,,,,0,0,1,,,,,0,,,81,121
121788,note_off,,,,,0,0,1,,,,,0,,,81,77
121788,note_off,,,,,60,0,1,,,,,0,,,76,77
121788,note_off,,,,,0,0,1,,,,,0,,,88,77
121788,note_off,,,,,0,0,1,,,,,0,,,85,77
121920,note_on,,,,,132,0,1,,,,,0,,,76,121
121920,note_on,,,,,0,0,1,,,,,0,,,81,121
121920,note_on,,,,,0,0,2,,,,,1,,,61,121
121920,note_on,,,,,0,0,1,,,,,0,,,85,121
121920,note_on,,,,,0,0,1,,,,,0,,,88,121
121920,note_on,,,,,260,0,2,,,,,1,,,49,121
121948,note_off,,,,,0,0,1,,,,,0,,,85,77
121948,note_off,,,,,28,0,1,,,,,0,,,81,77
121948,note_off,,,,,0,0,1,,,,,0,,,88,77
121980,note_off,,,,,32,0,1,,,,,0,,,76,77
121980,note_off,,,,,60,0,2,,,,,1,,,49,77
121980,note_off,,,,,0,0,2,,,,,1,,,61,77
122112,note_on,,,,,132,0,2,,,,,1,,,47,121
122112,note_on,,,,,0,0,1,,,,,0,,,85,121
122112,note_on,,,,,0,0,1,,,,,0,,,81,121
122112,note_on,,,,,0,0,1,,,,,0,,,88,121
122112,note_on,,,,,0,0,2,,,,,1,,,59,121
122112,note_on,,,,,132,0,1,,,,,0,,,76,121
122172,note_off,,,,,60,0,2,,,,,1,,,47,77
122172,note_off,,,,,0,0,1,,,,,0,,,88,77
122172,note_off,,,,,0,0,2,,,,,1,,,59,77
122172,note_off,,,,,0,0,1,,,,,0,,,85,77
122172,note_off,,,,,60,0,1,,,,,0,,,76,77
122172,note_off,,,,,0,0,1,,,,,0,,,81,77
122304,note_on,,,,,0,0,1,,,,,0,,,81,121
122304,note_on,,,,,132,0,1,,,,,0,,,76,121
122304,note_on,,,,,0,0,2,,,,,1,,,61,121
122304,note_on,,,,,0,0,1,,,,,0,,,85,121
122304,note_on,,,,,132,0,2,,,,,1,,,49,121
122304,note_on,,,,,0,0,1,,,,,0,,,88,121
122364,note_off,,,,,0,0,2,,,,,1,,,61,77
122364,note_off,,,,,60,0,1,,,,,0,,,76,77
122364,note_off,,,,,60,0,2,,,,,1,,,49,77
122364,note_off,,,,,0,0,1,,,,,0,,,81,77
122364,note_off,,,,,0,0,1,,,,,0,,,88,77
122364,note_off,,,,,0,0,1,,,,,0,,,85,77
122496,note_on,,,,,0,0,2,,,,,1,,,57,121
122496,note_on,,,,,132,0,2,,,,,1,,,45,121
122496,note_on,,,,,0,0,1,,,,,0,,,81,121
122496,note_on,,,,,132,0,1,,,,,0,,,76,121
122496,note_on,,,,,0,0,1,,,,,0,,,85,121
122496,note_on,,,,,0,0,1,,,,,0,,,88,121
122556,note_off,,,,,0,0,1,,,,,0,,,88,77
122556,note_off,,,,,0,0,1,,,,,0,,,85,77
122556,note_off,,,,,0,0,1,,,,,0,,,81,77
122556,note_off,,,,,60,0,2,,,,,1,,,45,77
122556,note_off,,,,,60,0,1,,,,,0,,,76,77
122556,note_off,,,,,0,0,2,,,,,1,,,57,77
122688,note_on,,,,,132,0,1,,,,,0,,,76,121
122688,note_on,,,,,0,0,2,,,,,1,,,56,121
122688,note_on,,,,,0,0,1,,,,,0,,,81,121
122688,note_on,,,,,0,0,1,,,,,0,,,85,121
122688,note_on,,,,,0,0,1,,,,,0,,,88,121
122688,note_on,,,,,132,0,2,,,,,1,,,44,121
122748,note_off,,,,,0,0,2,,,,,1,,,56,77
122748,note_off,,,,,60,0,1,,,,,0,,,76,77
122748,note_off,,,,,60,0,2,,,,,1,,,44,77
122748,note_off,,,,,0,0,1,,,,,0,,,81,77
122748,note_off,,,,,0,0,1,,,,,0,,,85,77
122748,note_off,,,,,0,0,1,,,,,0,,,88,77
122880,note_on,,,,,0,0,1,,,,,0,,,85,121
122880,note_on,,,,,0,0,1,,,,,0,,,88,121
122880,note_on,,,,,132,0,2,,,,,1,,,45,121
122880,note_on,,,,,0,0,1,,,,,0,,,81,121
122880,note_on,,,,,0,0,2,,,,,1,,,57,121
122880,note_on,,,,,132,0,1,,,,,0,,,76,121
122940,note_off,,,,,0,0,2,,,,,1,,,57,77
122940,note_off,,,,,60,0,2,,,,,1,,,45,77
122940,note_off,,,,,0,0,1,,,,,0,,,81,77
122940,note_off,,,,,0,0,1,,,,,0,,,85,77
122940,note_off,,,,,60,0,1,,,,,0,,,76,77
122940,note_off,,,,,0,0,1,,,,,0,,,88,77
123072,note_on,,,,,132,0,1,,,,,0,,,76,121
123072,note_on,,,,,0,0,1,,,,,0,,,85,121
123072,note_on,,,,,0,0,2,,,,,1,,,54,121
123072,note_on,,,,,0,0,1,,,,,0,,,81,121
123072,note_on,,,,,132,0,2,,,,,1,,,42,121
123072,note_on,,,,,0,0,1,,,,,0,,,88,121
123132,note_off,,,,,0,0,1,,,,,0,,,81,77
123132,note_off,,,,,0,0,2,,,,,1,,,54,77
123132,note_off,,,,,60,0,1,,,,,0,,,76,77
123132,note_off,,,,,0,0,1,,,,,0,,,85,77
123132,note_off,,,,,60,0,2,,,,,1,,,42,77
123132,note_off,,,,,0,0,1,,,,,0,,,88,77
123264,note_on,,,,,0,0,2,,,,,1,,,53,121
123264,note_on,,,,,132,0,2,,,,,1,,,41,121
123324,note_off,,,,,0,0,2,,,,,1,,,53,77
123324,note_off,,,,,60,0,2,,,,,1,,,41,77
123456,note_on,,,,,132,0,2,,,,,1,,,44,121
123456,note_on,,,,,0,0,1,,,,,0,,,69,121
123456,note_on,,,,,0,0,1,,,,,0,,,69,121
123456,note_on,,,,,0,0,1,,,,,0,,,73,121
123456,note_on,,,,,324,0,1,,,,,0,,,61,121
123456,note_on,,,,,0,0,2,,,,,1,,,56,121
123516,note_off,,,,,0,0,1,,,,,0,,,69,77
123516,note_off,,,,,0,0,2,,,,,1,,,56,77
123516,note_off,,,,,0,0,1,,,,,0,,,73,77
123516,note_off,,,,,0,0,1,,,,,0,,,69,77
123516,note_off,,,,,60,0,1,,,,,0,,,61,77
123516,note_off,,,,,60,0,2,,,,,1,,,44,77
123648,note_on,,,,,132,0,2,,,,,1,,,42,121
123648,note_on,,,,,132,0,1,,,,,0,,,61,121
123648,note_on,,,,,0,0,1,,,,,0,,,69,121
123648,note_on,,,,,0,0,2,,,,,1,,,54,121
123648,note_on,,,,,0,0,1,,,,,0,,,73,121
123708,note_off,,,,,0,0,1,,,,,0,,,69,77
123708,note_off,,,,,60,0,1,,,,,0,,,61,77
123708,note_off,,,,,0,0,2,,,,,1,,,54,77
123708,note_off,,,,,0,0,1,,,,,0,,,73,77
123708,note_off,,,,,60,0,2,,,,,1,,,42,77
123840,note_on,,,,,0,0,1,,,,,0,,,73,121
123840,note_on,,,,,0,0,2,,,,,1,,,39,121
123840,note_on,,,,,0,0,1,,,,,0,,,69,121
123840,note_on,,,,,132,0,1,,,,,0,,,61,121
123840,note_on,,,,,132,0,2,,,,,1,,,51,121
123900,note_off,,,,,0,0,1,,,,,0,,,73,77
123900,note_off,,,,,0,0,1,,,,,0,,,69,77
123900,note_off,,,,,60,0,2,,,,,1,,,51,77
123900,note_off,,,,,60,0,1,,,,,0,,,61,77
123900,note_off,,,,,0,0,2,,,,,1,,,39,77
124032,note_on,,,,,0,0,1,,,,,0,,,69,121
124032,note_on,,,,,0,0,2,,,,,1,,,54,121
124032,note_on,,,,,0,0,1,,,,,0,,,69,121
124032,note_on,,,,,0,0,1,,,,,0,,,73,121
124032,note_on,,,,,132,0,1,,,,,0,,,61,121
124032,note_on,,,,,132,0,2,,,,,1,,,42,121
124092,note_off,,,,,0,0,2,,,,,1,,,54,77
124092,note_off,,,,,0,0,1,,,,,0,,,69,77
124092,note_off,,,,,60,0,2,,,,,1,,,42,77
124092,note_off,,,,,0,0,1,,,,,0,,,73,77
124092,note_off,,,,,0,0,1,,,,,0,,,69,77
124092,note_off,,,,,60,0,1,,,,,0,,,61,77
124224,note_on,,,,,132,0,2,,,,,1,,,40,121
124224,note_on,,,,,0,0,1,,,,,0,,,69,121
124224,note_on,,,,,132,0,1,,,,,0,,,61,121
124224,note_on,,,,,0,0,2,,,,,1,,,52,121
124224,note_on,,,,,0,0,1,,,,,0,,,73,121
124284,note_off,,,,,0,0,1,,,,,0,,,73,77
124284,note_off,,,,,0,0,2,,,,,1,,,52,77
124284,note_off,,,,,60,0,2,,,,,1,,,40,77
124284,note_off,,,,,60,0,1,,,,,0,,,61,77
124284,note_off,,,,,0,0,1,,,,,0,,,69,77
124416,note_on,,,,,0,0,1,,,,,0,,,69,121
124416,note_on,,,,,132,0,1,,,,,0,,,61,121
124416,note_on,,,,,0,0,1,,,,,0,,,73,121
124476,note_off,,,,,60,0,1,,,,,0,,,61,77
124476,note_off,,,,,0,0,1,,,,,0,,,73,77
124476,note_off,,,,,0,0,1,,,,,0,,,69,77
124608,note_on,,,,,132,0,1,,,,,0,,,61,121
124608,note_on,,,,,0,0,2,,,,,1,,,37,121
124608,note_on,,,,,324,0,2,,,,,1,,,49,121
124668,note_off,,,,,60,0,2,,,,,1,,,49,77
124668,note_off,,,,,0,0,2,,,,,1,,,37,77
124668,note_off,,,,,60,0,1,,,,,0,,,61,77
124800,note_on,,,,,132,0,1,,,,,0,,,62,121
124800,note_on,,,,,132,0,2,,,,,1,,,38,121
124800,note_on,,,,,0,0,2,,,,,1,,,50,121
124860,note_off,,,,,60,0,2,,,,,1,,,38,77
124860,note_off,,,,,0,0,2,,,,,1,,,50,77
124860,note_off,,,,,60,0,1,,,,,0,,,62,77
124992,note_on,,,,,132,0,2,,,,,1,,,51,121
124992,note_on,,,,,132,0,1,,,,,0,,,63,121
124992,note_on,,,,,0,0,2,,,,,1,,,39,121
125052,note_off,,,,,60,0,2,,,,,1,,,51,77
125052,note_off,,,,,60,0,1,,,,,0,,,63,77
125052,note_off,,,,,0,0,2,,,,,1,,,39,77
125184,note_on,,,,,0,0,2,,,,,1,,,54,121
125184,note_on,,,,,132,0,2,,,,,1,,,42,121
125184,note_on,,,,,132,0,1,,,,,0,,,66,121
125244,note_off,,,,,0,0,2,,,,,1,,,54,77
125244,note_off,,,,,60,0,2,,,,,1,,,42,77
125244,note_off,,,,,60,0,1,,,,,0,,,66,77
125376,note_on,,,,,132,0,2,,,,,1,,,40,121
125376,note_on,,,,,132,0,1,,,,,0,,,64,121
125376,note_on,,,,,0,0,2,,,,,1,,,52,121
125436,note_off,,,,,0,0,2,,,,,1,,,52,77
125436,note_off,,,,,60,0,2,,,,,1,,,40,77
125436,note_off,,,,,60,0,1,,,,,0,,,64,77
125568,note_on,,,,,132,0,2,,,,,1,,,45,121
125568,note_on,,,,,0,0,2,,,,,1,,,33,121
125696,note_off,,,,,128,0,2,,,,,1,,,45,77
125696,note_off,,,,,0,0,2,,,,,1,,,33,77
125760,note_on,,,,,324,0,1,,,,,0,,,76,121
125760,note_on,,,,,0,0,2,,,,,1,,,52,121
125760,note_on,,,,,64,0,2,,,,,1,,,40,121
125760,note_on,,,,,0,0,1,,,,,0,,,81,121
125760,note_on,,,,,0,0,1,,,,,0,,,85,121
125760,note_on,,,,,0,0,1,,,,,0,,,88,121
125888,note_off,,,,,0,0,2,,,,,1,,,52,77
125888,note_off,,,,,128,0,1,,,,,0,,,76,77
125888,note_off,,,,,0,0,1,,,,,0,,,88,77
125888,note_off,,,,,0,0,1,,,,,0,,,81,77
125888,note_off,,,,,128,0,2,,,,,1,,,40,77
125888,note_off,,,,,0,0,1,,,,,0,,,85,77
125952,note_on,,,,,64,0,2,,,,,1,,,45,121
125952,note_on,,,,,0,0,1,,,,,0,,,88,121
125952,note_on,,,,,0,0,2,,,,,1,,,57,121
125952,note_on,,,,,64,0,1,,,,,0,,,76,121
125952,note_on,,,,,0,0,1,,,,,0,,,85,121
125952,note_on,,,,,0,0,1,,,,,0,,,81,121
126080,note_off,,,,,0,0,2,,,,,1,,,57,77
126080,note_off,,,,,0,0,1,,,,,0,,,81,77
126080,note_off,,,,,0,0,1,,,,,0,,,85,77
126080,note_off,,,,,0,0,1,,,,,0,,,88,77
126080,note_off,,,,,128,0,1,,,,,0,,,76,77
126080,note_off,,,,,128,0,2,,,,,1,,,45,77
126144,note_on,,,,,64,0,1,,,,,0,,,76,121
126144,note_on,,,,,64,0,2,,,,,1,,,52,121
126144,note_on,,,,,0,0,1,,,,,0,,,88,121
126144,note_on,,,,,0,0,1,,,,,0,,,85,121
126144,note_on,,,,,0,0,1,,,,,0,,,81,121
126144,note_on,,,,,0,0,2,,,,,1,,,64,121
126272,note_off,,,,,0,0,1,,,,,0,,,81,77
126272,note_off,,,,,0,0,1,,,,,0,,,85,77
126272,note_off,,,,,0,0,1,,,,,0,,,88,77
126272,note_off,,,,,128,0,1,,,,,0,,,76,77
126336,note_on,,,,,0,0,1,,,,,0,,,88,121
126336,note_on,,,,,0,0,1,,,,,0,,,81,121
126336,note_on,,,,,0,0,1,,,,,0,,,85,121
126336,note_on,,,,,64,0,1,,,,,0,,,76,121
126400,note_off,,,,,0,0,2,,,,,1,,,64,77
126400,note_off,,,,,256,0,2,,,,,1,,,52,77
126464,note_off,,,,,0,0,1,,,,,0,,,88,77
126464,note_off,,,,,0,0,1,,,,,0,,,85,77
126464,note_off,,,,,0,0,1,,,,,0,,,81,77
126464,note_off,,,,,128,0,1,,,,,0,,,76,77
126528,note_on,,,,,64,0,1,,,,,0,,,76,121
126528,note_on,,,,,0,0,2,,,,,1,,,61,121
126528,note_on,,,,,0,0,1,,,,,0,,,81,121
126528,note_on,,,,,128,0,2,,,,,1,,,49,121
126528,note_on,,,,,0,0,1,,,,,0,,,88,121
126528,note_on,,,,,0,0,1,,,,,0,,,85,121
126656,note_off,,,,,0,0,1,,,,,0,,,88,77
126656,note_off,,,,,128,0,2,,,,,1,,,49,77
126656,note_off,,,,,0,0,1,,,,,0,,,81,77
126656,note_off,,,,,128,0,1,,,,,0,,,76,77
126656,note_off,,,,,0,0,2,,,,,1,,,61,77
126656,note_off,,,,,0,0,1,,,,,0,,,85,77
126720,note_on,,,,,0,0,2,,,,,1,,,59,121
126720,note_on,,,,,64,0,1,,,,,0,,,76,121
126720,note_on,,,,,64,0,2,,,,,1,,,47,121
126720,note_on,,,,,0,0,1,,,,,0,,,81,121
126720,note_on,,,,,0,0,1,,,,,0,,,85,121
126720,note_on,,,,,0,0,1,,,,,0,,,88,121
126848,note_off,,,,,0,0,1,,,,,0,,,85,77
126848,note_off,,,,,128,0,1,,,,,0,,,76,77
126848,note_off,,,,,0,0,2,,,,,1,,,59,77
126848,note_off,,,,,0,0,1,,,,,0,,,81,77
126848,note_off,,,,,0,0,1,,,,,0,,,88,77
126848,note_off,,,,,128,0,2,,,,,1,,,47,77
126912,note_on,,,,,0,0,1,,,,,0,,,88,121
126912,note_on,,,,,64,0,1,,,,,0,,,76,121
126912,note_on,,,,,0,0,1,,,,,0,,,81,121
126912,note_on,,,,,0,0,2,,,,,1,,,61,121
126912,note_on,,,,,0,0,1,,,,,0,,,85,121
126912,note_on,,,,,64,0,2,,,,,1,,,49,121
126912,note_on,,,,,0,0,1,,,,,0,,,85,121
127040,note_off,,,,,128,0,2,,,,,1,,,49,77
127040,note_off,,,,,0,0,2,,,,,1,,,61,77
127040,note_off,,,,,0,0,1,,,,,0,,,81,77
127040,note_off,,,,,0,0,1,,,,,0,,,85,77
127040,note_off,,,,,0,0,1,,,,,0,,,85,77
127040,note_off,,,,,128,0,1,,,,,0,,,76,77
127040,note_off,,,,,0,0,1,,,,,0,,,88,77
127104,note_on,,,,,0,0,1,,,,,0,,,81,121
127104,note_on,,,,,0,0,1,,,,,0,,,81,121
127104,note_on,,,,,0,0,1,,,,,0,,,88,121
127104,note_on,,,,,0,0,1,,,,,0,,,85,121
127104,note_on,,,,,0,0,2,,,,,1,,,57,121
127104,note_on,,,,,64,0,2,,,,,1,,,45,121
127104,note_on,,,,,64,0,1,,,,,0,,,76,121
127232,note_off,,,,,0,0,1,,,,,0,,,85,77
127232,note_off,,,,,0,0,2,,,,,1,,,57,77
127232,note_off,,,,,128,0,1,,,,,0,,,76,77
127232,note_off,,,,,128,0,2,,,,,1,,,45,77
127232,note_off,,,,,0,0,1,,,,,0,,,88,77
127232,note_off,,,,,0,0,1,,,,,0,,,81,77
127232,note_off,,,,,0,0,1,,,,,0,,,81,77
127296,note_on,,,,,0,0,1,,,,,0,,,85,121
127296,note_on,,,,,0,0,1,,,,,0,,,88,121
127296,note_on,,,,,0,0,2,,,,,1,,,56,121
127296,note_on,,,,,0,0,1,,,,,0,,,81,121
127296,note_on,,,,,64,0,2,,,,,1,,,44,121
127296,note_on,,,,,64,0,1,,,,,0,,,76,121
127424,note_off,,,,,0,0,2,,,,,1,,,56,77
127424,note_off,,,,,128,0,1,,,,,0,,,76,77
127424,note_off,,,,,128,0,2,,,,,1,,,44,77
127424,note_off,,,,,0,0,1,,,,,0,,,85,77
127424,note_off,,,,,0,0,1,,,,,0,,,81,77
127424,note_off,,,,,0,0,1,,,,,0,,,88,77
127488,note_on,,,,,0,0,1,,,,,0,,,81,121
127488,note_on,,,,,0,0,2,,,,,1,,,57,121
127488,note_on,,,,,0,0,1,,,,,0,,,85,121
127488,note_on,,,,,64,0,1,,,,,0,,,76,121
127488,note_on,,,,,0,0,1,,,,,0,,,88,121
127488,note_on,,,,,64,0,2,,,,,1,,,45,121
127616,note_off,,,,,0,0,2,,,,,1,,,57,77
127616,note_off,,,,,0,0,1,,,,,0,,,88,77
127616,note_off,,,,,128,0,2,,,,,1,,,45,77
127616,note_off,,,,,0,0,1,,,,,0,,,85,77
127616,note_off,,,,,0,0,1,,,,,0,,,81,77
127616,note_off,,,,,128,0,1,,,,,0,,,76,77
127680,note_on,,,,,64,0,2,,,,,1,,,42,121
127680,note_on,,,,,0,0,1,,,,,0,,,81,121
127680,note_on,,,,,0,0,1,,,,,0,,,85,121
127680,note_on,,,,,0,0,1,,,,,0,,,88,121
127680,note_on,,,,,64,0,1,,,,,0,,,76,121
127680,note_on,,,,,0,0,2,,,,,1,,,54,121
127808,note_off,,,,,128,0,2,,,,,1,,,42,77
127808,note_off,,,,,128,0,1,,,,,0,,,76,77
127808,note_off,,,,,0,0,1,,,,,0,,,85,77
127808,note_off,,,,,0,0,1,,,,,0,,,88,77
127808,note_off,,,,,0,0,1,,,,,0,,,81,77
127808,note_off,,,,,0,0,2,,,,,1,,,54,77
127872,note_on,,,,,64,0,2,,,,,1,,,41,121
127872,note_on,,,,,0,0,2,,,,,1,,,53,121
128000,note_off,,,,,128,0,2,,,,,1,,,41,77
128000,note_off,,,,,0,0,2,,,,,1,,,53,77
128064,note_on,,,,,0,0,2,,,,,1,,,56,121
128064,note_on,,,,,0,0,1,,,,,0,,,69,121
128064,note_on,,,,,0,0,1,,,,,0,,,73,121
128064,note_on,,,,,256,0,1,,,,,0,,,61,121
128064,note_on,,,,,64,0,2,,,,,1,,,44,121
128192,note_off,,,,,0,0,1,,,,,0,,,73,77
128192,note_off,,,,,0,0,2,,,,,1,,,56,77
128192,note_off,,,,,128,0,1,,,,,0,,,61,77
128192,note_off,,,,,128,0,2,,,,,1,,,44,77
128192,note_off,,,,,0,0,1,,,,,0,,,69,77
128256,note_on,,,,,0,0,2,,,,,1,,,54,121
128256,note_on,,,,,64,0,2,,,,,1,,,42,121
128256,note_on,,,,,0,0,1,,,,,0,,,73,121
128256,note_on,,,,,0,0,1,,,,,0,,,69,121
128256,note_on,,,,,0,0,1,,,,,0,,,61,121
128256,note_on,,,,,64,0,1,,,,,0,,,61,121
128384,note_off,,,,,0,0,1,,,,,0,,,61,77
128384,note_off,,,,,0,0,2,,,,,1,,,54,77
128384,note_off,,,,,0,0,1,,,,,0,,,73,77
128384,note_off,,,,,0,0,1,,,,,0,,,69,77
128384,note_off,,,,,128,0,1,,,,,0,,,61,77
128384,note_off,,,,,128,0,2,,,,,1,,,42,77
128448,note_on,,,,,0,0,1,,,,,0,,,73,121
128448,note_on,,,,,64,0,2,,,,,1,,,39,121
128448,note_on,,,,,0,0,2,,,,,1,,,51,121
128448,note_on,,,,,64,0,1,,,,,0,,,61,121
128448,note_on,,,,,0,0,1,,,,,0,,,69,121
128576,note_off,,,,,0,0,1,,,,,0,,,69,77
128576,note_off,,,,,0,0,2,,,,,1,,,51,77
128576,note_off,,,,,128,0,1,,,,,0,,,61,77
128576,note_off,,,,,128,0,2,,,,,1,,,39,77
128576,note_off,,,,,0,0,1,,,,,0,,,73,77
128640,note_on,,,,,0,0,1,,,,,0,,,73,121
128640,note_on,,,,,64,0,1,,,,,0,,,61,121
128640,note_on,,,,,0,0,1,,,,,0,,,69,121
128640,note_on,,,,,64,0,2,,,,,1,,,42,121
128640,note_on,,,,,0,0,2,,,,,1,,,54,121
128640,note_on,,,,,0,0,2,,,,,1,,,42,121
128768,note_off,,,,,0,0,2,,,,,1,,,54,77
128768,note_off,,,,,0,0,1,,,,,0,,,73,77
128768,note_off,,,,,0,0,2,,,,,1,,,42,77
128768,note_off,,,,,128,0,2,,,,,1,,,42,77
128768,note_off,,,,,0,0,1,,,,,0,,,69,77
128768,note_off,,,,,128,0,1,,,,,0,,,61,77
128832,note_on,,,,,0,0,1,,,,,0,,,73,121
128832,note_on,,,,,64,0,2,,,,,1,,,40,121
128832,note_on,,,,,0,0,1,,,,,0,,,69,121
128832,note_on,,,,,64,0,1,,,,,0,,,61,121
128832,note_on,,,,,0,0,2,,,,,1,,,52,121
128960,note_off,,,,,128,0,1,,,,,0,,,61,77
128960,note_off,,,,,128,0,2,,,,,1,,,40,77
128960,note_off,,,,,0,0,2,,,,,1,,,52,77
128960,note_off,,,,,0,0,1,,,,,0,,,69,77
128960,note_off,,,,,0,0,1,,,,,0,,,73,77
129024,note_on,,,,,0,0,1,,,,,0,,,73,121
129024,note_on,,,,,0,0,1,,,,,0,,,69,121
129024,note_on,,,,,64,0,1,,,,,0,,,61,121
129152,note_off,,,,,128,0,1,,,,,0,,,61,77
129152,note_off,,,,,0,0,1,,,,,0,,,73,77
129152,note_off,,,,,0,0,1,,,,,0,,,69,77
129216,note_on,,,,,256,0,2,,,,,1,,,37,121
129216,note_on,,,,,0,0,2,,,,,1,,,49,121
129216,note_on,,,,,64,0,1,,,,,0,,,61,121
129344,note_off,,,,,0,0,2,,,,,1,,,49,77
129344,note_off,,,,,128,0,1,,,,,0,,,61,77
129344,note_off,,,,,128,0,2,,,,,1,,,37,77
129408,note_on,,,,,64,0,1,,,,,0,,,62,121
129408,note_on,,,,,0,0,2,,,,,1,,,50,121
129408,note_on,,,,,64,0,2,,,,,1,,,38,121
129536,note_off,,,,,128,0,1,,,,,0,,,62,77
129536,note_off,,,,,0,0,2,,,,,1,,,50,77
129536,note_off,,,,,128,0,2,,,,,1,,,38,77
129600,note_on,,,,,0,0,2,,,,,1,,,51,121
129600,note_on,,,,,64,0,2,,,,,1,,,39,121
129600,note_on,,,,,64,0,1,,,,,0,,,63,121
129728,note_off,,,,,0,0,2,,,,,1,,,51,77
129728,note_off,,,,,128,0,2,,,,,1,,,39,77
129728,note_off,,,,,128,0,1,,,,,0,,,63,77
129792,note_on,,,,,64,0,2,,,,,1,,,42,121
129792,note_on,,,,,0,0,2,,,,,1,,,54,121
129792,note_on,,,,,64,0,1,,,,,0,,,66,121
129920,note_off,,,,,128,0,2,,,,,1,,,42,77
129920,note_off,,,,,128,0,1,,,,,0,,,66,77
129920,note_off,,,,,0,0,2,,,,,1,,,54,77
129984,note_on,,,,,0,0,2,,,,,1,,,52,121
129984,note_on,,,,,64,0,1,,,,,0,,,64,121
129984,note_on,,,,,64,0,2,,,,,1,,,40,121
130112,note_off,,,,,128,0,1,,,,,0,,,64,77
130112,note_off,,,,,0,0,2,,,,,1,,,52,77
130112,note_off,,,,,128,0,2,,,,,1,,,40,77
130176,note_on,,,,,64,0,2,,,,,1,,,45,121
130176,note_on,,,,,0,0,2,,,,,1,,,33,121
130304,note_off,,,,,0,0,2,,,,,1,,,33,77
130304,note_off,,,,,128,0,2,,,,,1,,,45,77
130368,note_on,,,,,0,0,1,,,,,0,,,81,121
130368,note_on,,,,,0,0,1,,,,,0,,,76,121
130368,note_on,,,,,64,0,2,,,,,1,,,40,121
130368,note_on,,,,,256,0,1,,,,,0,,,69,121
130368,note_on,,,,,0,0,2,,,,,1,,,52,121
130368,note_on,,,,,0,0,1,,,,,0,,,88,121
130368,note_on,,,,,0,0,1,,,,,0,,,85,121
130496,note_off,,,,,128,0,1,,,,,0,,,69,77
130496,note_off,,,,,128,0,2,,,,,1,,,40,77
130496,note_off,,,,,0,0,1,,,,,0,,,88,77
130496,note_off,,,,,0,0,1,,,,,0,,,76,77
130496,note_off,,,,,0,0,2,,,,,1,,,52,77
130496,note_off,,,,,0,0,1,,,,,0,,,81,77
130496,note_off,,,,,0,0,1,,,,,0,,,85,77
130560,note_on,,,,,0,0,1,,,,,0,,,85,121
130560,note_on,,,,,0,0,1,,,,,0,,,81,121
130560,note_on,,,,,64,0,1,,,,,0,,,76,121
130560,note_on,,,,,0,0,1,,,,,0,,,88,121
130560,note_on,,,,,64,0,2,,,,,1,,,57,121
130560,note_on,,,,,0,0,2,,,,,1,,,45,121
130688,note_off,,,,,0,0,2,,,,,1,,,45,77
130688,note_off,,,,,128,0,1,,,,,0,,,76,77
130688,note_off,,,,,0,0,1,,,,,0,,,81,77
130688,note_off,,,,,128,0,2,,,,,1,,,57,77
130688,note_off,,,,,0,0,1,,,,,0,,,85,77
130688,note_off,,,,,0,0,1,,,,,0,,,88,77
130752,note_on,,,,,64,0,1,,,,,0,,,88,121
130752,note_on,,,,,0,0,1,,,,,0,,,85,121
130752,note_on,,,,,0,0,1,,,,,0,,,81,121
130752,note_on,,,,,0,0,1,,,,,0,,,76,121
130752,note_on,,,,,0,0,2,,,,,1,,,64,121
130752,note_on,,,,,64,0,2,,,,,1,,,52,121
130880,note_off,,,,,128,0,1,,,,,0,,,88,77
130880,note_off,,,,,0,0,1,,,,,0,,,76,77
130880,note_off,,,,,0,0,1,,,,,0,,,81,77
130880,note_off,,,,,0,0,1,,,,,0,,,85,77
130944,note_on,,,,,64,0,1,,,,,0,,,76,121
130944,note_on,,,,,0,0,1,,,,,0,,,88,121
130944,note_on,,,,,0,0,1,,,,,0,,,81,121
130944,note_on,,,,,0,0,1,,,,,0,,,85,121
131008,note_off,,,,,0,0,2,,,,,1,,,64,77
131008,note_off,,,,,256,0,2,,,,,1,,,52,77
131072,note_off,,,,,128,0,1,,,,,0,,,76,77
131072,note_off,,,,,0,0,1,,,,,0,,,81,77
131072,note_off,,,,,0,0,1,,,,,0,,,85,77
131072,note_off,,,,,0,0,1,,,,,0,,,88,77
131136,note_on,,,,,0,0,1,,,,,0,,,85,121
131136,note_on,,,,,0,0,1,,,,,0,,,88,121
131136,note_on,,,,,128,0,2,,,,,1,,,49,121
131136,note_on,,,,,0,0,2,,,,,1,,,61,121
131136,note_on,,,,,64,0,1,,,,,0,,,76,121
131136,note_on,,,,,0,0,1,,,,,0,,,81,121
131264,note_off,,,,,128,0,2,,,,,1,,,49,77
131264,note_off,,,,,0,0,1,,,,,0,,,81,77
131264,note_off,,,,,0,0,1,,,,,0,,,88,77
131264,note_off,,,,,0,0,2,,,,,1,,,61,77
131264,note_off,,,,,128,0,1,,,,,0,,,76,77
131264,note_off,,,,,0,0,1,,,,,0,,,85,77
131328,note_on,,,,,64,0,1,,,,,0,,,78,121
131328,note_on,,,,,0,0,1,,,,,0,,,90,121
131328,note_on,,,,,0,0,1,,,,,0,,,85,121
131328,note_on,,,,,0,0,2,,,,,1,,,64,121
131328,note_on,,,,,0,0,1,,,,,0,,,81,121
131328,note_on,,,,,64,0,2,,,,,1,,,52,121
131456,note_off,,,,,0,0,1,,,,,0,,,85,77
131456,note_off,,,,,128,0,1,,,,,0,,,78,77
131456,note_off,,,,,0,0,1,,,,,0,,,90,77
131456,note_off,,,,,0,0,1,,,,,0,,,81,77
131520,note_on,,,,,0,0,1,,,,,0,,,81,121
131520,note_on,,,,,64,0,1,,,,,0,,,90,121
131520,note_on,,,,,0,0,1,,,,,0,,,85,121
131520,note_on,,,,,0,0,1,,,,,0,,,78,121
131584,note_off,,,,,256,0,2,,,,,1,,,52,77
131584,note_off,,,,,0,0,2,,,,,1,,,64,77
131648,note_off,,,,,128,0,1,,,,,0,,,90,77
131648,note_off,,,,,0,0,1,,,,,0,,,78,77
131648,note_off,,,,,0,0,1,,,,,0,,,81,77
131648,note_off,,,,,0,0,1,,,,,0,,,85,77
131712,note_on,,,,,128,0,2,,,,,1,,,51,121
131712,note_on,,,,,64,0,1,,,,,0,,,78,121
131712,note_on,,,,,0,0,2,,,,,1,,,63,121
131712,note_on,,,,,0,0,1,,,,,0,,,81,121
131712,note_on,,,,,0,0,1,,,,,0,,,85,121
131712,note_on,,,,,0,0,1,,,,,0,,,90,121
131712,note_on,,,,,0,0,1,,,,,0,,,78,121
131840,note_off,,,,,0,0,2,,,,,1,,,63,77
131840,note_off,,,,,128,0,1,,,,,0,,,78,77
131840,note_off,,,,,0,0,1,,,,,0,,,78,77
131840,note_off,,,,,0,0,1,,,,,0,,,85,77
131840,note_off,,,,,128,0,2,,,,,1,,,51,77
131840,note_off,,,,,0,0,1,,,,,0,,,90,77
131840,note_off,,,,,0,0,1,,,,,0,,,81,77
131904,note_on,,,,,64,0,2,,,,,1,,,52,121
131904,note_on,,,,,0,0,1,,,,,0,,,76,121
131904,note_on,,,,,0,0,1,,,,,0,,,85,121
131904,note_on,,,,,0,0,2,,,,,1,,,64,121
131904,note_on,,,,,64,0,1,,,,,0,,,88,121
131904,note_on,,,,,0,0,1,,,,,0,,,81,121
132032,note_off,,,,,128,0,1,,,,,0,,,88,77
132032,note_off,,,,,0,0,1,,,,,0,,,76,77
132032,note_off,,,,,0,0,1,,,,,0,,,81,77
132032,note_off,,,,,0,0,1,,,,,0,,,85,77
132096,note_on,,,,,0,0,1,,,,,0,,,81,121
132096,note_on,,,,,0,0,1,,,,,0,,,85,121
132096,note_on,,,,,64,0,1,,,,,0,,,88,121
132096,note_on,,,,,0,0,1,,,,,0,,,76,121
132160,note_off,,,,,0,0,2,,,,,1,,,64,77
132160,note_off,,,,,256,0,2,,,,,1,,,52,77
132224,note_off,,,,,0,0,1,,,,,0,,,85,77
132224,note_off,,,,,0,0,1,,,,,0,,,76,77
132224,note_off,,,,,0,0,1,,,,,0,,,81,77
132224,note_off,,,,,128,0,1,,,,,0,,,88,77
132288,note_on,,,,,0,0,1,,,,,0,,,76,121
132288,note_on,,,,,0,0,1,,,,,0,,,81,121
132288,note_on,,,,,64,0,1,,,,,0,,,88,121
132288,note_on,,,,,0,0,2,,,,,1,,,61,121
132288,note_on,,,,,128,0,2,,,,,1,,,49,121
132288,note_on,,,,,0,0,1,,,,,0,,,85,121
132416,note_off,,,,,0,0,1,,,,,0,,,76,77
132416,note_off,,,,,0,0,1,,,,,0,,,85,77
132416,note_off,,,,,0,0,1,,,,,0,,,81,77
132416,note_off,,,,,0,0,2,,,,,1,,,61,77
132416,note_off,,,,,128,0,2,,,,,1,,,49,77
132416,note_off,,,,,128,0,1,,,,,0,,,88,77
132480,note_on,,,,,0,0,1,,,,,0,,,85,121
132480,note_on,,,,,0,0,1,,,,,0,,,90,121
132480,note_on,,,,,0,0,1,,,,,0,,,81,121
132480,note_on,,,,,0,0,2,,,,,1,,,64,121
132480,note_on,,,,,64,0,1,,,,,0,,,78,121
132480,note_on,,,,,64,0,2,,,,,1,,,52,121
132608,note_off,,,,,0,0,1,,,,,0,,,90,77
132608,note_off,,,,,128,0,1,,,,,0,,,78,77
132608,note_off,,,,,0,0,1,,,,,0,,,85,77
132608,note_off,,,,,0,0,1,,,,,0,,,81,77
132672,note_on,,,,,0,0,1,,,,,0,,,85,121
132672,note_on,,,,,0,0,1,,,,,0,,,81,121
132672,note_on,,,,,0,0,1,,,,,0,,,78,121
132672,note_on,,,,,64,0,1,,,,,0,,,90,121
132736,note_off,,,,,256,0,2,,,,,1,,,52,77
132736,note_off,,,,,0,0,2,,,,,1,,,64,77
132800,note_off,,,,,128,0,1,,,,,0,,,90,77
132800,note_off,,,,,0,0,1,,,,,0,,,85,77
132800,note_off,,,,,0,0,1,,,,,0,,,81,77
132800,note_off,,,,,0,0,1,,,,,0,,,78,77
132864,note_on,,,,,0,0,2,,,,,1,,,63,121
132864,note_on,,,,,128,0,2,,,,,1,,,51,121
132864,note_on,,,,,0,0,1,,,,,0,,,85,121
132864,note_on,,,,,0,0,1,,,,,0,,,81,121
132864,note_on,,,,,0,0,1,,,,,0,,,78,121
132864,note_on,,,,,64,0,1,,,,,0,,,90,121
132992,note_off,,,,,128,0,1,,,,,0,,,90,77
132992,note_off,,,,,0,0,2,,,,,1,,,63,77
132992,note_off,,,,,0,0,1,,,,,0,,,78,77
132992,note_off,,,,,0,0,1,,,,,0,,,81,77
132992,note_off,,,,,0,0,1,,,,,0,,,85,77
132992,note_off,,,,,128,0,2,,,,,1,,,51,77
133056,note_on,,,,,0,0,1,,,,,0,,,88,121
133056,note_on,,,,,0,0,2,,,,,1,,,64,121
133056,note_on,,,,,64,0,2,,,,,1,,,52,121
133056,note_on,,,,,0,0,1,,,,,0,,,85,121
133056,note_on,,,,,0,0,1,,,,,0,,,81,121
133056,note_on,,,,,64,0,1,,,,,0,,,76,121
133184,note_off,,,,,0,0,1,,,,,0,,,81,77
133184,note_off,,,,,0,0,1,,,,,0,,,85,77
133184,note_off,,,,,128,0,1,,,,,0,,,76,77
133184,note_off,,,,,0,0,1,,,,,0,,,88,77
133248,note_on,,,,,64,0,1,,,,,0,,,76,121
133248,note_on,,,,,0,0,1,,,,,0,,,85,121
133248,note_on,,,,,0,0,1,,,,,0,,,88,121
133248,note_on,,,,,0,0,1,,,,,0,,,81,121
133312,note_off,,,,,0,0,2,,,,,1,,,64,77
133312,note_off,,,,,256,0,2,,,,,1,,,52,77
133376,note_off,,,,,0,0,1,,,,,0,,,88,77
133376,note_off,,,,,128,0,1,,,,,0,,,76,77
133376,note_off,,,,,0,0,1,,,,,0,,,81,77
133376,note_off,,,,,0,0,1,,,,,0,,,85,77
133440,note_on,,,,,0,0,1,,,,,0,,,90,121
133440,note_on,,,,,0,0,1,,,,,0,,,85,121
133440,note_on,,,,,0,0,1,,,,,0,,,78,121
133440,note_on,,,,,128,0,2,,,,,1,,,49,121
133440,note_on,,,,,0,0,2,,,,,1,,,61,121
133440,note_on,,,,,64,0,1,,,,,0,,,81,121
133568,note_off,,,,,0,0,1,,,,,0,,,78,77
133568,note_off,,,,,128,0,2,,,,,1,,,49,77
133568,note_off,,,,,0,0,1,,,,,0,,,85,77
133568,note_off,,,,,0,0,1,,,,,0,,,90,77
133568,note_off,,,,,0,0,2,,,,,1,,,61,77
133568,note_off,,,,,128,0,1,,,,,0,,,81,77
133632,note_on,,,,,64,0,2,,,,,1,,,52,121
133632,note_on,,,,,0,0,1,,,,,0,,,76,121
133632,note_on,,,,,0,0,1,,,,,0,,,81,121
133632,note_on,,,,,0,0,1,,,,,0,,,85,121
133632,note_on,,,,,0,0,2,,,,,1,,,64,121
133632,note_on,,,,,64,0,1,,,,,0,,,88,121
133760,note_off,,,,,0,0,1,,,,,0,,,76,77
133760,note_off,,,,,128,0,1,,,,,0,,,88,77
133760,note_off,,,,,0,0,1,,,,,0,,,81,77
133760,note_off,,,,,0,0,1,,,,,0,,,85,77
133824,note_on,,,,,64,0,1,,,,,0,,,88,121
133824,note_on,,,,,0,0,1,,,,,0,,,85,121
133824,note_on,,,,,0,0,1,,,,,0,,,81,121
133824,note_on,,,,,0,0,1,,,,,0,,,76,121
133888,note_off,,,,,256,0,2,,,,,1,,,52,77
133888,note_off,,,,,0,0,2,,,,,1,,,64,77
133952,note_off,,,,,0,0,1,,,,,0,,,85,77
133952,note_off,,,,,128,0,1,,,,,0,,,88,77
133952,note_off,,,,,0,0,1,,,,,0,,,76,77
133952,note_off,,,,,0,0,1,,,,,0,,,81,77
134016,note_on,,,,,0,0,2,,,,,1,,,61,121
134016,note_on,,,,,0,0,1,,,,,0,,,90,121
134016,note_on,,,,,0,0,1,,,,,0,,,85,121
134016,note_on,,,,,0,0,1,,,,,0,,,78,121
134016,note_on,,,,,128,0,2,,,,,1,,,49,121
134016,note_on,,,,,64,0,1,,,,,0,,,81,121
134144,note_off,,,,,128,0,1,,,,,0,,,81,77
134144,note_off,,,,,0,0,1,,,,,0,,,90,77
134144,note_off,,,,,0,0,1,,,,,0,,,85,77
134144,note_off,,,,,0,0,1,,,,,0,,,78,77
134144,note_off,,,,,128,0,2,,,,,1,,,49,77
134144,note_off,,,,,0,0,2,,,,,1,,,61,77
134208,note_on,,,,,0,0,2,,,,,1,,,64,121
134208,note_on,,,,,64,0,2,,,,,1,,,52,121
134208,note_on,,,,,0,0,1,,,,,0,,,88,121
134208,note_on,,,,,0,0,1,,,,,0,,,85,121
134208,note_on,,,,,0,0,1,,,,,0,,,81,121
134208,note_on,,,,,64,0,1,,,,,0,,,76,121
134336,note_off,,,,,128,0,1,,,,,0,,,76,77
134336,note_off,,,,,0,0,1,,,,,0,,,81,77
134336,note_off,,,,,0,0,1,,,,,0,,,88,77
134336,note_off,,,,,0,0,1,,,,,0,,,85,77
134400,note_on,,,,,64,0,1,,,,,0,,,76,121
134400,note_on,,,,,0,0,1,,,,,0,,,81,121
134400,note_on,,,,,0,0,1,,,,,0,,,85,121
134400,note_on,,,,,0,0,1,,,,,0,,,88,121
134464,note_off,,,,,0,0,2,,,,,1,,,64,77
134464,note_off,,,,,256,0,2,,,,,1,,,52,77
134528,note_off,,,,,0,0,1,,,,,0,,,88,77
134528,note_off,,,,,128,0,1,,,,,0,,,76,77
134528,note_off,,,,,0,0,1,,,,,0,,,85,77
134528,note_off,,,,,0,0,1,,,,,0,,,81,77
134592,note_on,,,,,128,0,2,,,,,1,,,61,121
134592,note_on,,,,,64,0,1,,,,,0,,,81,121
134592,note_on,,,,,0,0,1,,,,,0,,,78,121
134592,note_on,,,,,0,0,2,,,,,1,,,49,121
134592,note_on,,,,,0,0,1,,,,,0,,,90,121
134592,note_on,,,,,0,0,1,,,,,0,,,85,121
134720,note_off,,,,,128,0,1,,,,,0,,,81,77
134720,note_off,,,,,128,0,2,,,,,1,,,61,77
134720,note_off,,,,,0,0,1,,,,,0,,,78,77
134720,note_off,,,,,0,0,1,,,,,0,,,85,77
134720,note_off,,,,,0,0,2,,,,,1,,,49,77
134720,note_off,,,,,0,0,1,,,,,0,,,90,77
134784,note_on,,,,,0,0,2,,,,,1,,,64,121
134784,note_on,,,,,64,0,2,,,,,1,,,52,121
134784,note_on,,,,,0,0,1,,,,,0,,,88,121
134784,note_on,,,,,0,0,1,,,,,0,,,81,121
134784,note_on,,,,,0,0,1,,,,,0,,,85,121
134784,note_on,,,,,64,0,1,,,,,0,,,76,121
135040,note_off,,,,,0,0,1,,,,,0,,,81,77
135040,note_off,,,,,0,0,1,,,,,0,,,85,77
135040,note_off,,,,,256,0,1,,,,,0,,,76,77
135040,note_off,,,,,0,0,2,,,,,1,,,64,77
135040,note_off,,,,,256,0,2,,,,,1,,,52,77
135040,note_off,,,,,0,0,1,,,,,0,,,88,77
135360,note_on,,,,,0,0,2,,,,,1,,,49,121
135360,note_on,,,,,0,0,2,,,,,1,,,54,121
135360,note_on,,,,,0,0,1,,,,,0,,,85,121
135360,note_on,,,,,0,0,2,,,,,1,,,57,121
135360,note_on,,,,,0,0,1,,,,,0,,,81,121
135360,note_on,,,,,320,0,2,,,,,1,,,45,121
135360,note_on,,,,,320,0,1,,,,,0,,,78,121
135360,note_on,,,,,0,0,1,,,,,0,,,90,121
135616,note_off,,,,,0,0,1,,,,,0,,,81,77
135616,note_off,,,,,0,0,1,,,,,0,,,85,77
135616,note_off,,,,,0,0,2,,,,,1,,,57,77
135616,note_off,,,,,0,0,1,,,,,0,,,90,77
135616,note_off,,,,,256,0,1,,,,,0,,,78,77
135616,note_off,,,,,0,0,2,,,,,1,,,54,77
135616,note_off,,,,,0,0,2,,,,,1,,,49,77
135616,note_off,,,,,256,0,2,,,,,1,,,45,77
135936,note_on,,,,,0,0,2,,,,,1,,,53,121
135936,key_signature,,,,,320,1,1,,,,,,,Db,,
135936,key_signature,,,,,320,1,2,,,,,,,Db,,
135936,note_on,,,,,0,0,2,,,,,1,,,41,121
135936,note_on,,,,,0,0,2,,,,,1,,,49,121
135936,note_on,,,,,0,0,1,,,,,0,,,80,121
135936,note_on,,,,,0,0,1,,,,,0,,,85,121
135936,note_on,,,,,0,0,1,,,,,0,,,92,121
136064,note_off,,,,,0,0,1,,,,,0,,,80,77
136064,note_off,,,,,0,0,1,,,,,0,,,85,77
136064,note_off,,,,,0,0,2,,,,,1,,,41,77
136064,note_off,,,,,128,0,1,,,,,0,,,92,77
136064,note_off,,,,,0,0,2,,,,,1,,,49,77
136064,note_off,,,,,128,0,2,,,,,1,,,53,77
136512,note_on,,,,,448,0,1,,,,,0,,,60,121
136608,note_on,,,,,96,0,1,,,,,0,,,61,121
136640,note_off,,,,,32,0,1,,,,,0,,,60,77
136704,note_on,,,,,64,0,1,,,,,0,,,64,121
136736,note_off,,,,,32,0,1,,,,,0,,,61,77
136800,note_on,,,,,64,0,1,,,,,0,,,65,121
136832,note_off,,,,,32,0,1,,,,,0,,,64,77
136896,note_on,,,,,64,0,1,,,,,0,,,67,121
136928,note_off,,,,,32,0,1,,,,,0,,,65,77
136992,note_on,,,,,64,0,1,,,,,0,,,68,121
137024,note_off,,,,,32,0,1,,,,,0,,,67,77
137088,note_on,,,,,0,0,2,,,,,1,,,56,121
137088,note_on,,,,,0,0,2,,,,,1,,,66,121
137088,note_on,,,,,0,0,1,,,,,0,,,87,121
137088,note_on,,,,,0,0,1,,,,,0,,,82,121
137088,note_on,,,,,64,0,1,,,,,0,,,94,121
137088,note_on,,,,,0,0,1,,,,,0,,,94,121
137088,note_on,,,,,1024,0,2,,,,,1,,,72,121
137120,note_off,,,,,32,0,1,,,,,0,,,68,77
137216,note_off,,,,,0,0,2,,,,,1,,,56,77
137216,note_off,,,,,0,0,1,,,,,0,,,82,77
137216,note_off,,,,,128,0,2,,,,,1,,,72,77
137216,note_off,,,,,0,0,2,,,,,1,,,66,77
137216,note_off,,,,,96,0,1,,,,,0,,,94,77
137216,note_off,,,,,0,0,1,,,,,0,,,87,77
137280,note_on,,,,,64,0,2,,,,,1,,,63,121
137280,note_on,,,,,0,0,2,,,,,1,,,66,121
137280,note_on,,,,,0,0,2,,,,,1,,,72,121
137280,note_on,,,,,64,0,1,,,,,0,,,92,121
137344,note_off,,,,,0,0,1,,,,,0,,,92,77
137344,note_off,,,,,64,0,1,,,,,0,,,94,77
137376,note_on,,,,,32,0,1,,,,,0,,,90,121
137408,note_off,,,,,128,0,2,,,,,1,,,63,77
137408,note_off,,,,,0,0,2,,,,,1,,,66,77
137408,note_off,,,,,0,0,2,,,,,1,,,72,77
137440,note_off,,,,,64,0,1,,,,,0,,,90,77
137472,note_on,,,,,0,0,2,,,,,1,,,66,121
137472,note_on,,,,,0,0,2,,,,,1,,,72,121
137472,note_on,,,,,64,0,2,,,,,1,,,63,121
137472,note_on,,,,,32,0,1,,,,,0,,,87,121
137536,note_off,,,,,64,0,1,,,,,0,,,87,77
137568,note_on,,,,,32,0,1,,,,,0,,,84,121
137600,note_off,,,,,128,0,2,,,,,1,,,63,77
137600,note_off,,,,,0,0,2,,,,,1,,,66,77
137600,note_off,,,,,0,0,2,,,,,1,,,72,77
137632,note_off,,,,,64,0,1,,,,,0,,,84,77
137664,note_on,,,,,0,0,2,,,,,1,,,66,121
137664,note_on,,,,,0,0,2,,,,,1,,,72,121
137664,note_on,,,,,32,0,1,,,,,0,,,80,121
137664,note_on,,,,,64,0,2,,,,,1,,,63,121
137728,note_off,,,,,64,0,1,,,,,0,,,80,77
137760,note_on,,,,,32,0,1,,,,,0,,,78,121
137792,note_off,,,,,128,0,2,,,,,1,,,63,77
137792,note_off,,,,,0,0,2,,,,,1,,,66,77
137792,note_off,,,,,0,0,2,,,,,1,,,72,77
137824,note_off,,,,,64,0,1,,,,,0,,,78,77
137856,note_on,,,,,32,0,1,,,,,0,,,75,121
137920,note_off,,,,,64,0,1,,,,,0,,,75,77
137952,note_on,,,,,32,0,1,,,,,0,,,72,121
138016,note_off,,,,,64,0,1,,,,,0,,,72,77
138048,note_on,,,,,32,0,1,,,,,0,,,68,121
138176,note_off,,,,,128,0,1,,,,,0,,,68,77
138240,note_on,,,,,0,0,1,,,,,0,,,73,121
138240,note_on,,,,,0,0,2,,,,,1,,,49,121
138240,note_on,,,,,448,0,2,,,,,1,,,53,121
138240,note_on,,,,,64,0,1,,,,,0,,,61,121
138240,note_on,,,,,0,0,2,,,,,1,,,41,121
138240,note_on,,,,,0,0,1,,,,,0,,,68,121
138368,note_off,,,,,0,0,2,,,,,1,,,41,77
138368,note_off,,,,,128,0,2,,,,,1,,,53,77
138368,note_off,,,,,0,0,2,,,,,1,,,49,77
138368,note_off,,,,,128,0,1,,,,,0,,,61,77
138368,note_off,,,,,0,0,1,,,,,0,,,73,77
138368,note_off,,,,,0,0,1,,,,,0,,,68,77
138528,note_on,,,,,160,0,1,,,,,0,,,60,121
138624,note_on,,,,,96,0,1,,,,,0,,,61,121
138656,note_off,,,,,32,0,1,,,,,0,,,60,77
138752,note_off,,,,,96,0,1,,,,,0,,,61,77
138816,note_on,,,,,448,0,2,,,,,1,,,64,121
138912,note_on,,,,,96,0,2,,,,,1,,,65,121
138944,note_off,,,,,32,0,2,,,,,1,,,64,77
139008,note_on,,,,,256,0,1,,,,,0,,,67,121
139040,note_off,,,,,96,0,2,,,,,1,,,65,77
139104,note_on,,,,,96,0,1,,,,,0,,,68,121
139136,note_off,,,,,32,0,1,,,,,0,,,67,77
139200,note_on,,,,,160,0,2,,,,,1,,,73,121
139232,note_off,,,,,96,0,1,,,,,0,,,68,77
139296,note_on,,,,,96,0,2,,,,,1,,,77,121
139328,note_off,,,,,32,0,2,,,,,1,,,73,77
139392,note_on,,,,,0,0,2,,,,,1,,,56,121
139392,note_on,,,,,0,0,1,,,,,0,,,87,121
139392,note_on,,,,,0,0,1,,,,,0,,,94,121
139392,note_on,,,,,0,0,1,,,,,0,,,94,121
139392,note_on,,,,,0,0,2,,,,,1,,,66,121
139392,note_on,,,,,0,0,1,,,,,0,,,87,121
139392,note_on,,,,,0,0,1,,,,,0,,,82,121
139392,note_on,,,,,64,0,2,,,,,1,,,72,121
139392,note_on,,,,,160,0,1,,,,,0,,,82,121
139424,note_off,,,,,32,0,2,,,,,1,,,77,77
139520,note_off,,,,,96,0,2,,,,,1,,,72,77
139520,note_off,,,,,0,0,1,,,,,0,,,94,77
139520,note_off,,,,,0,0,2,,,,,1,,,66,77
139520,note_off,,,,,0,0,2,,,,,1,,,56,77
139520,note_off,,,,,128,0,1,,,,,0,,,82,77
139520,note_off,,,,,0,0,1,,,,,0,,,87,77
139584,note_on,,,,,64,0,2,,,,,1,,,63,121
139584,note_on,,,,,64,0,1,,,,,0,,,92,121
139584,note_on,,,,,0,0,2,,,,,1,,,66,121
139584,note_on,,,,,0,0,2,,,,,1,,,72,121
139648,note_off,,,,,0,0,1,,,,,0,,,82,77
139648,note_off,,,,,0,0,1,,,,,0,,,87,77
139648,note_off,,,,,0,0,1,,,,,0,,,92,77
139648,note_off,,,,,64,0,1,,,,,0,,,94,77
139680,note_on,,,,,32,0,1,,,,,0,,,90,121
139712,note_off,,,,,0,0,2,,,,,1,,,66,77
139712,note_off,,,,,0,0,2,,,,,1,,,72,77
139712,note_off,,,,,128,0,2,,,,,1,,,63,77
139744,note_off,,,,,64,0,1,,,,,0,,,90,77
139776,note_on,,,,,0,0,2,,,,,1,,,72,121
139776,note_on,,,,,0,0,2,,,,,1,,,66,121
139776,note_on,,,,,32,0,1,,,,,0,,,87,121
139776,note_on,,,,,64,0,2,,,,,1,,,63,121
139840,note_off,,,,,64,0,1,,,,,0,,,87,77
139872,note_on,,,,,32,0,1,,,,,0,,,84,121
139904,note_off,,,,,0,0,2,,,,,1,,,72,77
139904,note_off,,,,,0,0,2,,,,,1,,,66,77
139904,note_off,,,,,128,0,2,,,,,1,,,63,77
139936,note_off,,,,,64,0,1,,,,,0,,,84,77
139968,note_on,,,,,64,0,2,,,,,1,,,72,121
139968,note_on,,,,,0,0,2,,,,,1,,,66,121
139968,note_on,,,,,0,0,2,,,,,1,,,80,121
139968,note_on,,,,,0,0,2,,,,,1,,,63,121
140032,note_off,,,,,0,0,2,,,,,1,,,66,77
140032,note_off,,,,,0,0,2,,,,,1,,,80,77
140032,note_off,,,,,0,0,2,,,,,1,,,63,77
140032,note_off,,,,,64,0,2,,,,,1,,,72,77
140064,note_on,,,,,32,0,2,,,,,1,,,78,121
140128,note_off,,,,,64,0,2,,,,,1,,,78,77
140160,note_on,,,,,32,0,2,,,,,1,,,75,121
140224,note_off,,,,,64,0,2,,,,,1,,,75,77
140256,note_on,,,,,32,0,2,,,,,1,,,72,121
140320,note_off,,,,,64,0,2,,,,,1,,,72,77
140352,note_on,,,,,32,0,2,,,,,1,,,68,121
140480,note_off,,,,,128,0,2,,,,,1,,,68,77
140544,note_on,,,,,0,0,1,,,,,0,,,61,121
140544,key_signature,,,,,608,1,1,,,,,,,A,,
140544,key_signature,,,,,64,1,2,,,,,,,A,,
140544,note_on,,,,,0,0,1,,,,,0,,,73,121
140544,note_on,,,,,0,0,2,,,,,1,,,41,121
140544,note_on,,,,,0,0,1,,,,,0,,,68,121
140544,note_on,,,,,0,0,2,,,,,1,,,53,121
140672,note_off,,,,,0,0,2,,,,,1,,,53,77
140672,note_off,,,,,128,0,2,,,,,1,,,41,77
140672,note_off,,,,,0,0,1,,,,,0,,,73,77
140672,note_off,,,,,0,0,1,,,,,0,,,68,77
140672,note_off,,,,,128,0,1,,,,,0,,,61,77
140736,note_on,,,,,64,0,1,,,,,0,,,73,121
140736,note_on,,,,,64,0,2,,,,,1,,,44,121
140736,note_on,,,,,0,0,2,,,,,1,,,56,121
140800,note_off,,,,,64,0,1,,,,,0,,,73,77
140832,note_on,,,,,32,0,1,,,,,0,,,85,121
140864,note_off,,,,,0,0,2,,,,,1,,,56,77
140864,note_off,,,,,128,0,2,,,,,1,,,44,77
140896,note_off,,,,,64,0,1,,,,,0,,,85,77
140928,note_on,,,,,64,0,2,,,,,1,,,49,121
140928,note_on,,,,,0,0,2,,,,,1,,,61,121
140928,note_on,,,,,32,0,1,,,,,0,,,73,121
141056,note_off,,,,,128,0,1,,,,,0,,,73,77
141056,note_off,,,,,128,0,2,,,,,1,,,49,77
141056,note_off,,,,,0,0,2,,,,,1,,,61,77
141120,note_on,,,,,64,0,1,,,,,0,,,74,121
141120,note_on,,,,,0,0,1,,,,,0,,,80,121
141120,note_on,,,,,64,0,2,,,,,1,,,65,121
141120,note_on,,,,,0,0,2,,,,,1,,,53,121
141120,note_on,,,,,0,0,1,,,,,0,,,86,121
141248,note_off,,,,,0,0,1,,,,,0,,,86,77
141248,note_off,,,,,0,0,1,,,,,0,,,80,77
141248,note_off,,,,,0,0,2,,,,,1,,,53,77
141248,note_off,,,,,128,0,2,,,,,1,,,65,77
141248,note_off,,,,,128,0,1,,,,,0,,,74,77
141312,note_on,,,,,0,0,2,,,,,1,,,68,121
141312,note_on,,,,,64,0,2,,,,,1,,,56,121
141312,note_on,,,,,64,0,1,,,,,0,,,85,121
141376,note_off,,,,,64,0,1,,,,,0,,,85,77
141408,note_on,,,,,32,0,1,,,,,0,,,80,121
141440,note_off,,,,,128,0,2,,,,,1,,,56,77
141440,note_off,,,,,0,0,2,,,,,1,,,68,77
141472,note_off,,,,,64,0,1,,,,,0,,,80,77
141504,note_on,,,,,0,0,2,,,,,1,,,65,121
141504,note_on,,,,,32,0,1,,,,,0,,,73,121
141504,note_on,,,,,64,0,2,,,,,1,,,53,121
141632,note_off,,,,,0,0,2,,,,,1,,,65,77
141632,note_off,,,,,128,0,1,,,,,0,,,73,77
141632,note_off,,,,,128,0,2,,,,,1,,,53,77
141696,note_on,,,,,0,0,1,,,,,0,,,78,121
141696,note_on,,,,,0,0,1,,,,,0,,,83,121
141696,note_on,,,,,0,0,2,,,,,1,,,66,121
141696,note_on,,,,,64,0,2,,,,,1,,,54,121
141696,note_on,,,,,64,0,1,,,,,0,,,73,121
141824,note_off,,,,,0,0,1,,,,,0,,,83,77
141824,note_off,,,,,0,0,1,,,,,0,,,78,77
141824,note_off,,,,,128,0,2,,,,,1,,,54,77
141824,note_off,,,,,128,0,1,,,,,0,,,73,77
141824,note_off,,,,,0,0,2,,,,,1,,,66,77
141888,note_on,,,,,64,0,2,,,,,1,,,57,121
141888,note_on,,,,,0,0,1,,,,,0,,,81,121
141888,note_on,,,,,64,0,1,,,,,0,,,56,121
141952,note_off,,,,,64,0,1,,,,,0,,,81,77
141984,note_on,,,,,32,0,1,,,,,0,,,78,121
142016,note_off,,,,,128,0,2,,,,,1,,,57,77
142016,note_off,,,,,32,0,1,,,,,0,,,56,77
142048,note_off,,,,,32,0,1,,,,,0,,,78,77
142080,note_on,,,,,32,0,1,,,,,0,,,73,121
142080,note_on,,,,,0,0,2,,,,,1,,,66,121
142080,note_on,,,,,64,0,2,,,,,1,,,54,121
142208,note_off,,,,,0,0,2,,,,,1,,,66,77
142208,note_off,,,,,128,0,2,,,,,1,,,54,77
142208,note_off,,,,,128,0,1,,,,,0,,,73,77
142272,note_on,,,,,0,0,1,,,,,0,,,80,121
142272,note_on,,,,,0,0,2,,,,,1,,,59,121
142272,note_on,,,,,0,0,1,,,,,0,,,75,121
142272,note_on,,,,,64,0,2,,,,,1,,,47,121
142272,note_on,,,,,64,0,1,,,,,0,,,69,121
142400,note_off,,,,,128,0,2,,,,,1,,,47,77
142400,note_off,,,,,0,0,1,,,,,0,,,80,77
142400,note_off,,,,,128,0,1,,,,,0,,,69,77
142400,note_off,,,,,0,0,2,,,,,1,,,59,77
142400,note_off,,,,,0,0,1,,,,,0,,,75,77
142464,note_on,,,,,64,0,2,,,,,1,,,51,121
142464,note_on,,,,,0,0,2,,,,,1,,,63,121
142464,note_on,,,,,64,0,1,,,,,0,,,78,121
142528,note_off,,,,,64,0,1,,,,,0,,,78,77
142560,note_on,,,,,32,0,1,,,,,0,,,75,121
142592,note_off,,,,,128,0,2,,,,,1,,,51,77
142592,note_off,,,,,0,0,2,,,,,1,,,63,77
142624,note_off,,,,,64,0,1,,,,,0,,,75,77
142656,note_on,,,,,0,0,2,,,,,1,,,59,121
142656,note_on,,,,,64,0,2,,,,,1,,,47,121
142656,note_on,,,,,32,0,1,,,,,0,,,69,121
142784,note_off,,,,,128,0,2,,,,,1,,,47,77
142784,note_off,,,,,128,0,1,,,,,0,,,69,77
142784,note_off,,,,,0,0,2,,,,,1,,,59,77
142848,note_on,,,,,64,0,1,,,,,0,,,73,121
142912,note_off,,,,,64,0,1,,,,,0,,,73,77
142944,note_on,,,,,32,0,1,,,,,0,,,71,121
143008,note_off,,,,,64,0,1,,,,,0,,,71,77
143040,note_on,,,,,256,0,2,,,,,1,,,52,121
143040,note_on,,,,,32,0,1,,,,,0,,,71,121
143104,note_off,,,,,64,0,1,,,,,0,,,71,77
143136,note_on,,,,,32,0,1,,,,,0,,,68,121
143168,note_off,,,,,128,0,2,,,,,1,,,52,77
143200,note_off,,,,,64,0,1,,,,,0,,,68,77
143232,note_on,,,,,64,0,2,,,,,1,,,59,121
143232,note_on,,,,,32,0,1,,,,,0,,,73,121
143296,note_off,,,,,64,0,1,,,,,0,,,73,77
143328,note_on,,,,,32,0,1,,,,,0,,,71,121
143360,note_off,,,,,128,0,2,,,,,1,,,59,77
143392,note_off,,,,,64,0,1,,,,,0,,,71,77
143424,note_on,,,,,32,0,1,,,,,0,,,62,121
143424,note_on,,,,,0,0,1,,,,,0,,,76,121
143424,note_on,,,,,0,0,1,,,,,0,,,68,121
143424,note_on,,,,,0,0,1,,,,,0,,,64,121
143488,note_off,,,,,64,0,1,,,,,0,,,76,77
143520,note_on,,,,,32,0,1,,,,,0,,,74,121
143584,note_off,,,,,64,0,1,,,,,0,,,74,77
143616,note_on,,,,,32,0,1,,,,,0,,,74,121
143680,note_off,,,,,64,0,1,,,,,0,,,62,77
143680,note_off,,,,,0,0,1,,,,,0,,,64,77
143680,note_off,,,,,0,0,1,,,,,0,,,74,77
143680,note_off,,,,,0,0,1,,,,,0,,,68,77
143712,note_on,,,,,32,0,1,,,,,0,,,71,121
143776,note_off,,,,,64,0,1,,,,,0,,,71,77
143808,note_on,,,,,0,0,1,,,,,0,,,76,121
143808,note_on,,,,,32,0,1,,,,,0,,,59,121
143872,note_off,,,,,64,0,1,,,,,0,,,76,77
143904,note_on,,,,,32,0,1,,,,,0,,,74,121
143936,note_off,,,,,32,0,1,,,,,0,,,59,77
143968,note_off,,,,,32,0,1,,,,,0,,,74,77
144000,note_on,,,,,32,0,1,,,,,0,,,78,121
144064,note_off,,,,,64,0,1,,,,,0,,,78,77
144096,note_on,,,,,32,0,1,,,,,0,,,76,121
144160,note_off,,,,,64,0,1,,,,,0,,,76,77
144192,note_on,,,,,32,0,1,,,,,0,,,76,121
144192,note_on,,,,,832,0,2,,,,,1,,,52,121
144256,note_off,,,,,64,0,1,,,,,0,,,76,77
144288,note_on,,,,,32,0,1,,,,,0,,,73,121
144320,note_off,,,,,128,0,2,,,,,1,,,52,77
144352,note_off,,,,,64,0,1,,,,,0,,,73,77
144384,note_on,,,,,64,0,2,,,,,1,,,61,121
144384,note_on,,,,,32,0,1,,,,,0,,,78,121
144448,note_off,,,,,64,0,1,,,,,0,,,78,77
144480,note_on,,,,,32,0,1,,,,,0,,,76,121
144512,note_off,,,,,128,0,2,,,,,1,,,61,77
144544,note_off,,,,,64,0,1,,,,,0,,,76,77
144576,note_on,,,,,32,0,1,,,,,0,,,64,121
144576,note_on,,,,,0,0,1,,,,,0,,,83,121
144576,note_on,,,,,0,0,1,,,,,0,,,69,121
144640,note_off,,,,,64,0,1,,,,,0,,,83,77
144672,note_on,,,,,32,0,1,,,,,0,,,81,121
144736,note_off,,,,,64,0,1,,,,,0,,,81,77
144768,note_on,,,,,32,0,1,,,,,0,,,81,121
144832,note_off,,,,,0,0,1,,,,,0,,,81,77
144832,note_off,,,,,64,0,1,,,,,0,,,64,77
144832,note_off,,,,,0,0,1,,,,,0,,,69,77
144864,note_on,,,,,32,0,1,,,,,0,,,76,121
144928,note_off,,,,,64,0,1,,,,,0,,,76,77
144960,note_on,,,,,0,0,1,,,,,0,,,83,121
144960,note_on,,,,,32,0,1,,,,,0,,,61,121
145024,note_off,,,,,64,0,1,,,,,0,,,83,77
145056,note_on,,,,,32,0,1,,,,,0,,,81,121
145088,note_off,,,,,32,0,1,,,,,0,,,61,77
145120,note_off,,,,,32,0,1,,,,,0,,,81,77
145152,note_on,,,,,640,0,2,,,,,1,,,53,121
145152,note_on,,,,,0,0,2,,,,,1,,,41,121
145152,note_on,,,,,0,0,1,,,,,0,,,80,121
145152,note_on,,,,,0,0,1,,,,,0,,,85,121
145152,note_on,,,,,32,0,1,,,,,0,,,73,121
145280,note_off,,,,,128,0,1,,,,,0,,,73,77
145280,note_off,,,,,0,0,2,,,,,1,,,41,77
145280,note_off,,,,,0,0,1,,,,,0,,,85,77
145280,note_off,,,,,128,0,2,,,,,1,,,53,77
145280,note_off,,,,,0,0,1,,,,,0,,,80,77
145344,note_on,,,,,64,0,1,,,,,0,,,85,121
145344,note_on,,,,,0,0,2,,,,,1,,,56,121
145344,note_on,,,,,64,0,2,,,,,1,,,44,121
145408,note_off,,,,,64,0,1,,,,,0,,,85,77
145440,note_on,,,,,32,0,1,,,,,0,,,85,121
145472,note_off,,,,,128,0,2,,,,,1,,,44,77
145472,note_off,,,,,0,0,2,,,,,1,,,56,77
145504,note_off,,,,,64,0,1,,,,,0,,,85,77
145536,note_on,,,,,0,0,2,,,,,1,,,61,121
145536,note_on,,,,,32,0,1,,,,,0,,,85,121
145536,note_on,,,,,64,0,2,,,,,1,,,49,121
145664,note_off,,,,,128,0,2,,,,,1,,,49,77
145664,note_off,,,,,0,0,2,,,,,1,,,61,77
145664,note_off,,,,,128,0,1,,,,,0,,,85,77
145728,note_on,,,,,64,0,1,,,,,0,,,74,121
145728,note_on,,,,,64,0,2,,,,,1,,,65,121
145728,note_on,,,,,0,0,1,,,,,0,,,86,121
145728,note_on,,,,,0,0,2,,,,,1,,,53,121
145728,note_on,,,,,0,0,1,,,,,0,,,80,121
145728,note_on,,,,,0,0,1,,,,,0,,,74,121
145856,note_off,,,,,128,0,2,,,,,1,,,65,77
145856,note_off,,,,,0,0,2,,,,,1,,,53,77
145856,note_off,,,,,128,0,1,,,,,0,,,74,77
145856,note_off,,,,,0,0,1,,,,,0,,,86,77
145856,note_off,,,,,0,0,1,,,,,0,,,80,77
145856,note_off,,,,,0,0,1,,,,,0,,,74,77
145920,note_on,,,,,0,0,2,,,,,1,,,68,121
145920,note_on,,,,,64,0,2,,,,,1,,,56,121
145920,note_on,,,,,64,0,1,,,,,0,,,85,121
145984,note_off,,,,,64,0,1,,,,,0,,,85,77
146016,note_on,,,,,32,0,1,,,,,0,,,85,121
146048,note_off,,,,,0,0,2,,,,,1,,,68,77
146048,note_off,,,,,128,0,2,,,,,1,,,56,77
146080,note_off,,,,,64,0,1,,,,,0,,,85,77
146112,note_on,,,,,64,0,2,,,,,1,,,65,121
146112,note_on,,,,,32,0,1,,,,,0,,,85,121
146112,note_on,,,,,0,0,2,,,,,1,,,53,121
146240,note_off,,,,,0,0,2,,,,,1,,,53,77
146240,note_off,,,,,128,0,1,,,,,0,,,85,77
146240,note_off,,,,,128,0,2,,,,,1,,,65,77
146304,note_on,,,,,0,0,1,,,,,0,,,80,121
146304,note_on,,,,,64,0,1,,,,,0,,,69,121
146304,note_on,,,,,64,0,2,,,,,1,,,54,121
146304,note_on,,,,,0,0,1,,,,,0,,,74,121
146304,note_on,,,,,0,0,2,,,,,1,,,66,121
146432,note_off,,,,,128,0,1,,,,,0,,,69,77
146432,note_off,,,,,0,0,1,,,,,0,,,74,77
146432,note_off,,,,,128,0,2,,,,,1,,,54,77
146432,note_off,,,,,0,0,2,,,,,1,,,66,77
146432,note_off,,,,,0,0,1,,,,,0,,,80,77
146496,note_on,,,,,64,0,2,,,,,1,,,57,121
146496,note_on,,,,,64,0,1,,,,,0,,,56,121
146496,note_on,,,,,0,0,1,,,,,0,,,78,121
146560,note_off,,,,,64,0,1,,,,,0,,,78,77
146592,note_on,,,,,32,0,1,,,,,0,,,90,121
146624,note_off,,,,,32,0,1,,,,,0,,,56,77
146624,note_off,,,,,128,0,2,,,,,1,,,57,77
146656,note_off,,,,,32,0,1,,,,,0,,,90,77
146688,note_on,,,,,0,0,2,,,,,1,,,66,121
146688,note_on,,,,,32,0,1,,,,,0,,,78,121
146688,note_on,,,,,64,0,2,,,,,1,,,54,121
146816,note_off,,,,,0,0,2,,,,,1,,,66,77
146816,note_off,,,,,128,0,1,,,,,0,,,78,77
146816,note_off,,,,,128,0,2,,,,,1,,,54,77
146880,note_on,,,,,0,0,2,,,,,1,,,59,121
146880,note_on,,,,,64,0,2,,,,,1,,,47,121
146880,note_on,,,,,64,0,1,,,,,0,,,69,121
146880,note_on,,,,,0,0,1,,,,,0,,,75,121
146880,note_on,,,,,0,0,1,,,,,0,,,80,121
147008,note_off,,,,,128,0,1,,,,,0,,,69,77
147008,note_off,,,,,0,0,1,,,,,0,,,75,77
147008,note_off,,,,,0,0,1,,,,,0,,,80,77
147008,note_off,,,,,0,0,2,,,,,1,,,59,77
147008,note_off,,,,,128,0,2,,,,,1,,,47,77
147072,note_on,,,,,64,0,1,,,,,0,,,78,121
147072,note_on,,,,,0,0,2,,,,,1,,,63,121
147072,note_on,,,,,64,0,2,,,,,1,,,51,121
147136,note_off,,,,,64,0,1,,,,,0,,,78,77
147168,note_on,,,,,32,0,1,,,,,0,,,90,121
147200,note_off,,,,,128,0,2,,,,,1,,,51,77
147200,note_off,,,,,0,0,2,,,,,1,,,63,77
147232,note_off,,,,,64,0,1,,,,,0,,,90,77
147264,note_on,,,,,64,0,2,,,,,1,,,47,121
147264,note_on,,,,,0,0,2,,,,,1,,,59,121
147264,note_on,,,,,32,0,1,,,,,0,,,78,121
147392,note_off,,,,,0,0,2,,,,,1,,,59,77
147392,note_off,,,,,128,0,1,,,,,0,,,78,77
147392,note_off,,,,,128,0,2,,,,,1,,,47,77
147456,note_on,,,,,64,0,1,,,,,0,,,73,121
147520,note_off,,,,,64,0,1,,,,,0,,,73,77
147552,note_on,,,,,32,0,1,,,,,0,,,71,121
147616,note_off,,,,,64,0,1,,,,,0,,,71,77
147648,note_on,,,,,32,0,1,,,,,0,,,71,121
147648,note_on,,,,,256,0,2,,,,,1,,,52,121
147712,note_off,,,,,64,0,1,,,,,0,,,71,77
147744,note_on,,,,,32,0,1,,,,,0,,,68,121
147776,note_off,,,,,128,0,2,,,,,1,,,52,77
147808,note_off,,,,,64,0,1,,,,,0,,,68,77
147840,note_on,,,,,64,0,2,,,,,1,,,59,121
147840,note_on,,,,,32,0,1,,,,,0,,,73,121
147904,note_off,,,,,64,0,1,,,,,0,,,73,77
147936,note_on,,,,,32,0,1,,,,,0,,,71,121
147968,note_off,,,,,128,0,2,,,,,1,,,59,77
148000,note_off,,,,,64,0,1,,,,,0,,,71,77
148032,note_on,,,,,0,0,1,,,,,0,,,64,121
148032,note_on,,,,,32,0,1,,,,,0,,,76,121
148032,note_on,,,,,0,0,1,,,,,0,,,62,121
148032,note_on,,,,,0,0,1,,,,,0,,,68,121
148096,note_off,,,,,64,0,1,,,,,0,,,76,77
148128,note_on,,,,,32,0,1,,,,,0,,,74,121
148192,note_off,,,,,64,0,1,,,,,0,,,74,77
148224,note_on,,,,,32,0,1,,,,,0,,,74,121
148288,note_off,,,,,64,0,1,,,,,0,,,62,77
148288,note_off,,,,,0,0,1,,,,,0,,,64,77
148288,note_off,,,,,0,0,1,,,,,0,,,68,77
148288,note_off,,,,,0,0,1,,,,,0,,,74,77
148320,note_on,,,,,32,0,1,,,,,0,,,71,121
148384,note_off,,,,,64,0,1,,,,,0,,,71,77
148416,note_on,,,,,0,0,1,,,,,0,,,59,121
148416,note_on,,,,,32,0,1,,,,,0,,,76,121
148480,note_off,,,,,64,0,1,,,,,0,,,76,77
148512,note_on,,,,,32,0,1,,,,,0,,,74,121
148544,note_off,,,,,32,0,1,,,,,0,,,59,77
148576,note_off,,,,,32,0,1,,,,,0,,,74,77
148608,note_on,,,,,32,0,1,,,,,0,,,78,121
148672,note_off,,,,,64,0,1,,,,,0,,,78,77
148704,note_on,,,,,32,0,1,,,,,0,,,76,121
148768,note_off,,,,,64,0,1,,,,,0,,,76,77
148800,note_on,,,,,32,0,1,,,,,0,,,76,121
148800,note_on,,,,,832,0,2,,,,,1,,,52,121
148864,note_off,,,,,64,0,1,,,,,0,,,76,77
148896,note_on,,,,,32,0,1,,,,,0,,,73,121
148928,note_off,,,,,128,0,2,,,,,1,,,52,77
148960,note_off,,,,,64,0,1,,,,,0,,,73,77
148992,note_on,,,,,32,0,1,,,,,0,,,78,121
148992,note_on,,,,,64,0,2,,,,,1,,,61,121
149056,note_off,,,,,64,0,1,,,,,0,,,78,77
149088,note_on,,,,,32,0,1,,,,,0,,,76,121
149120,note_off,,,,,128,0,2,,,,,1,,,61,77
149152,note_off,,,,,64,0,1,,,,,0,,,76,77
149184,note_on,,,,,32,0,1,,,,,0,,,83,121
149184,note_on,,,,,0,0,1,,,,,0,,,69,121
149184,note_on,,,,,0,0,1,,,,,0,,,64,121
149248,note_off,,,,,64,0,1,,,,,0,,,83,77
149280,note_on,,,,,32,0,1,,,,,0,,,81,121
149344,note_off,,,,,64,0,1,,,,,0,,,81,77
149376,note_on,,,,,32,0,1,,,,,0,,,81,121
149440,note_off,,,,,64,0,1,,,,,0,,,64,77
149440,note_off,,,,,0,0,1,,,,,0,,,81,77
149440,note_off,,,,,0,0,1,,,,,0,,,69,77
149472,note_on,,,,,32,0,1,,,,,0,,,76,121
149536,note_off,,,,,64,0,1,,,,,0,,,76,77
149568,note_on,,,,,32,0,1,,,,,0,,,83,121
149568,note_on,,,,,0,0,1,,,,,0,,,61,121
149632,note_off,,,,,64,0,1,,,,,0,,,83,77
149664,note_on,,,,,32,0,1,,,,,0,,,81,121
149696,note_off,,,,,32,0,1,,,,,0,,,61,77
149728,note_off,,,,,32,0,1,,,,,0,,,81,77
149760,note_on,,,,,32,0,1,,,,,0,,,85,121
149824,note_off,,,,,64,0,1,,,,,0,,,85,77
149856,note_on,,,,,32,0,1,,,,,0,,,83,121
149920,note_off,,,,,64,0,1,,,,,0,,,83,77
149952,note_on,,,,,832,0,2,,,,,1,,,52,121
149952,note_on,,,,,32,0,1,,,,,0,,,83,121
150016,note_off,,,,,64,0,1,,,,,0,,,83,77
150048,note_on,,,,,32,0,1,,,,,0,,,80,121
150080,note_off,,,,,128,0,2,,,,,1,,,52,77
150112,note_off,,,,,64,0,1,,,,,0,,,80,77
150144,note_on,,,,,0,0,2,,,,,1,,,62,121
150144,note_on,,,,,32,0,1,,,,,0,,,85,121
150144,note_on,,,,,64,0,2,,,,,1,,,59,121
150208,note_off,,,,,64,0,1,,,,,0,,,85,77
150240,note_on,,,,,32,0,1,,,,,0,,,83,121
150272,note_off,,,,,0,0,2,,,,,1,,,62,77
150272,note_off,,,,,128,0,2,,,,,1,,,59,77
150304,note_off,,,,,64,0,1,,,,,0,,,83,77
150336,note_on,,,,,0,0,2,,,,,1,,,68,121
150336,note_on,,,,,64,0,2,,,,,1,,,62,121
150336,note_on,,,,,32,0,1,,,,,0,,,88,121
150336,note_on,,,,,0,0,2,,,,,1,,,71,121
150400,note_off,,,,,64,0,1,,,,,0,,,88,77
150432,note_on,,,,,32,0,1,,,,,0,,,86,121
150496,note_off,,,,,64,0,1,,,,,0,,,86,77
150528,note_on,,,,,32,0,1,,,,,0,,,86,121
150592,note_off,,,,,256,0,2,,,,,1,,,62,77
150592,note_off,,,,,0,0,2,,,,,1,,,71,77
150592,note_off,,,,,64,0,1,,,,,0,,,86,77
150592,note_off,,,,,0,0,2,,,,,1,,,68,77
150624,note_on,,,,,32,0,1,,,,,0,,,83,121
150688,note_off,,,,,64,0,1,,,,,0,,,83,77
150720,note_on,,,,,128,0,2,,,,,1,,,64,121
150720,note_on,,,,,32,0,1,,,,,0,,,88,121
150784,note_off,,,,,64,0,1,,,,,0,,,88,77
150816,note_on,,,,,32,0,1,,,,,0,,,86,121
150848,note_off,,,,,128,0,2,,,,,1,,,64,77
150880,note_off,,,,,64,0,1,,,,,0,,,86,77
150912,note_on,,,,,32,0,1,,,,,0,,,90,121
150976,note_off,,,,,64,0,1,,,,,0,,,90,77
151008,note_on,,,,,32,0,1,,,,,0,,,88,121
151072,note_off,,,,,64,0,1,,,,,0,,,88,77
151104,note_on,,,,,256,0,2,,,,,1,,,52,121
151104,note_on,,,,,32,0,1,,,,,0,,,88,121
151168,note_off,,,,,64,0,1,,,,,0,,,88,77
151200,note_on,,,,,32,0,1,,,,,0,,,85,121
151232,note_off,,,,,128,0,2,,,,,1,,,52,77
151264,note_off,,,,,64,0,1,,,,,0,,,85,77
151296,note_on,,,,,64,0,2,,,,,1,,,61,121
151296,note_on,,,,,0,0,2,,,,,1,,,64,121
151296,note_on,,,,,32,0,1,,,,,0,,,90,121
151360,note_off,,,,,64,0,1,,,,,0,,,90,77
151392,note_on,,,,,32,0,1,,,,,0,,,88,121
151424,note_off,,,,,0,0,2,,,,,1,,,64,77
151424,note_off,,,,,128,0,2,,,,,1,,,61,77
151456,note_off,,,,,64,0,1,,,,,0,,,88,77
151488,note_on,,,,,0,0,2,,,,,1,,,61,121
151488,note_on,,,,,64,0,2,,,,,1,,,73,121
151488,note_on,,,,,0,0,2,,,,,1,,,69,121
151488,note_on,,,,,32,0,1,,,,,0,,,95,121
151552,note_off,,,,,64,0,1,,,,,0,,,95,77
151584,note_on,,,,,32,0,1,,,,,0,,,93,121
151648,note_off,,,,,64,0,1,,,,,0,,,93,77
151680,note_on,,,,,32,0,1,,,,,0,,,93,121
151744,note_off,,,,,0,0,2,,,,,1,,,61,77
151744,note_off,,,,,0,0,2,,,,,1,,,69,77
151744,note_off,,,,,64,0,1,,,,,0,,,93,77
151744,note_off,,,,,256,0,2,,,,,1,,,73,77
151776,note_on,,,,,32,0,1,,,,,0,,,88,121
151840,note_off,,,,,64,0,1,,,,,0,,,88,77
151872,note_on,,,,,128,0,2,,,,,1,,,64,121
151872,note_on,,,,,32,0,1,,,,,0,,,95,121
151936,note_off,,,,,64,0,1,,,,,0,,,95,77
151968,note_on,,,,,32,0,1,,,,,0,,,93,121
152000,note_off,,,,,128,0,2,,,,,1,,,64,77
152032,note_off,,,,,64,0,1,,,,,0,,,93,77
152064,note_on,,,,,0,0,1,,,,,0,,,85,121
152064,note_on,,,,,32,0,1,,,,,0,,,97,121
152064,note_on,,,,,64,0,2,,,,,1,,,64,121
152128,note_off,,,,,0,0,1,,,,,0,,,85,77
152128,note_off,,,,,64,0,1,,,,,0,,,97,77
152160,note_on,,,,,0,0,1,,,,,0,,,100,121
152160,note_on,,,,,32,0,1,,,,,0,,,95,121
152224,note_off,,,,,64,0,1,,,,,0,,,95,77
152224,note_off,,,,,0,0,1,,,,,0,,,100,77
152256,note_on,,,,,0,0,2,,,,,1,,,71,121
152256,note_on,,,,,0,0,2,,,,,1,,,74,121
152256,note_on,,,,,32,0,1,,,,,0,,,94,121
152256,note_on,,,,,192,0,2,,,,,1,,,68,121
152256,note_on,,,,,0,0,1,,,,,0,,,82,121
152320,note_off,,,,,64,0,1,,,,,0,,,94,77
152320,note_off,,,,,0,0,1,,,,,0,,,82,77
152320,note_off,,,,,64,0,2,,,,,1,,,64,77
152352,note_on,,,,,32,0,1,,,,,0,,,95,121
152352,note_on,,,,,0,0,1,,,,,0,,,94,121
152384,note_off,,,,,0,0,2,,,,,1,,,71,77
152384,note_off,,,,,64,0,2,,,,,1,,,68,77
152384,note_off,,,,,0,0,2,,,,,1,,,74,77
152416,note_off,,,,,64,0,1,,,,,0,,,95,77
152416,note_off,,,,,0,0,1,,,,,0,,,94,77
152448,note_on,,,,,64,0,2,,,,,1,,,74,121
152448,note_on,,,,,0,0,2,,,,,1,,,68,121
152448,note_on,,,,,32,0,1,,,,,0,,,96,121
152448,note_on,,,,,0,0,1,,,,,0,,,83,121
152448,note_on,,,,,0,0,2,,,,,1,,,71,121
152512,note_off,,,,,64,0,1,,,,,0,,,96,77
152512,note_off,,,,,0,0,1,,,,,0,,,83,77
152544,note_on,,,,,0,0,1,,,,,0,,,96,121
152544,note_on,,,,,32,0,1,,,,,0,,,97,121
152576,note_off,,,,,0,0,2,,,,,1,,,68,77
152576,note_off,,,,,128,0,2,,,,,1,,,74,77
152576,note_off,,,,,0,0,2,,,,,1,,,71,77
152608,note_off,,,,,64,0,1,,,,,0,,,97,77
152608,note_off,,,,,0,0,1,,,,,0,,,96,77
152640,note_on,,,,,32,0,1,,,,,0,,,85,121
152640,note_on,,,,,0,0,1,,,,,0,,,98,121
152640,note_on,,,,,64,0,2,,,,,1,,,63,121
152704,note_off,,,,,64,0,1,,,,,0,,,85,77
152704,note_off,,,,,0,0,1,,,,,0,,,98,77
152736,note_on,,,,,32,0,1,,,,,0,,,97,121
152736,note_on,,,,,0,0,1,,,,,0,,,99,121
152800,note_off,,,,,64,0,1,,,,,0,,,97,77
152800,note_off,,,,,0,0,1,,,,,0,,,99,77
152832,note_on,,,,,32,0,1,,,,,0,,,82,121
152832,note_on,,,,,0,0,2,,,,,1,,,68,121
152832,note_on,,,,,192,0,2,,,,,1,,,68,121
152832,note_on,,,,,0,0,2,,,,,1,,,71,121
152832,note_on,,,,,0,0,2,,,,,1,,,75,121
152832,note_on,,,,,0,0,1,,,,,0,,,100,121
152896,note_off,,,,,64,0,2,,,,,1,,,63,77
152896,note_off,,,,,0,0,1,,,,,0,,,100,77
152896,note_off,,,,,64,0,1,,,,,0,,,82,77
152928,note_on,,,,,32,0,1,,,,,0,,,94,121
152928,note_on,,,,,0,0,1,,,,,0,,,101,121
152960,note_off,,,,,0,0,2,,,,,1,,,68,77
152960,note_off,,,,,64,0,2,,,,,1,,,68,77
152960,note_off,,,,,0,0,2,,,,,1,,,75,77
152960,note_off,,,,,0,0,2,,,,,1,,,71,77
152992,note_off,,,,,0,0,1,,,,,0,,,101,77
152992,note_off,,,,,64,0,1,,,,,0,,,94,77
153024,note_on,,,,,64,0,2,,,,,1,,,68,121
153024,note_on,,,,,0,0,2,,,,,1,,,71,121
153024,note_on,,,,,0,0,2,,,,,1,,,75,121
153024,note_on,,,,,0,0,1,,,,,0,,,102,121
153024,note_on,,,,,32,0,1,,,,,0,,,83,121
153088,note_off,,,,,64,0,1,,,,,0,,,83,77
153088,note_off,,,,,0,0,1,,,,,0,,,102,77
153120,note_on,,,,,32,0,1,,,,,0,,,95,121
153120,note_on,,,,,0,0,1,,,,,0,,,103,121
153152,note_off,,,,,0,0,2,,,,,1,,,75,77
153152,note_off,,,,,0,0,2,,,,,1,,,71,77
153152,note_off,,,,,128,0,2,,,,,1,,,68,77
153184,note_off,,,,,0,0,1,,,,,0,,,103,77
153184,note_off,,,,,64,0,1,,,,,0,,,95,77
153216,note_on,,,,,32,0,1,,,,,0,,,85,121
153216,note_on,,,,,0,0,1,,,,,0,,,104,121
153216,note_on,,,,,64,0,2,,,,,1,,,62,121
153280,note_off,,,,,0,0,1,,,,,0,,,104,77
153280,note_off,,,,,64,0,1,,,,,0,,,85,77
153312,note_on,,,,,0,0,1,,,,,0,,,103,121
153312,note_on,,,,,32,0,1,,,,,0,,,97,121
153376,note_off,,,,,0,0,1,,,,,0,,,103,77
153376,note_off,,,,,64,0,1,,,,,0,,,97,77
153408,note_on,,,,,0,0,2,,,,,1,,,68,121
153408,note_on,,,,,0,0,2,,,,,1,,,76,121
153408,note_on,,,,,32,0,1,,,,,0,,,82,121
153408,note_on,,,,,0,0,1,,,,,0,,,102,121
153408,note_on,,,,,192,0,2,,,,,1,,,71,121
153472,note_off,,,,,64,0,2,,,,,1,,,62,77
153472,note_off,,,,,64,0,1,,,,,0,,,82,77
153472,note_off,,,,,0,0,1,,,,,0,,,102,77
153504,note_on,,,,,32,0,1,,,,,0,,,94,121
153504,note_on,,,,,0,0,1,,,,,0,,,101,121
153536,note_off,,,,,0,0,2,,,,,1,,,76,77
153536,note_off,,,,,0,0,2,,,,,1,,,68,77
153536,note_off,,,,,64,0,2,,,,,1,,,71,77
153568,note_off,,,,,64,0,1,,,,,0,,,94,77
153568,note_off,,,,,0,0,1,,,,,0,,,101,77
153600,note_on,,,,,0,0,1,,,,,0,,,100,121
153600,note_on,,,,,0,0,2,,,,,1,,,71,121
153600,note_on,,,,,0,0,2,,,,,1,,,68,121
153600,note_on,,,,,64,0,2,,,,,1,,,76,121
153600,note_on,,,,,32,0,1,,,,,0,,,83,121
153664,note_off,,,,,64,0,1,,,,,0,,,83,77
153664,note_off,,,,,0,0,1,,,,,0,,,100,77
153696,note_on,,,,,0,0,1,,,,,0,,,99,121
153696,note_on,,,,,32,0,1,,,,,0,,,95,121
153728,note_off,,,,,0,0,2,,,,,1,,,71,77
153728,note_off,,,,,0,0,2,,,,,1,,,68,77
153728,note_off,,,,,128,0,2,,,,,1,,,76,77
153760,note_off,,,,,0,0,1,,,,,0,,,99,77
153760,note_off,,,,,64,0,1,,,,,0,,,95,77
153792,note_on,,,,,64,0,2,,,,,1,,,61,121
153792,note_on,,,,,0,0,1,,,,,0,,,98,121
153792,note_on,,,,,32,0,1,,,,,0,,,85,121
153856,note_off,,,,,0,0,1,,,,,0,,,98,77
153856,note_off,,,,,64,0,1,,,,,0,,,85,77
153888,note_on,,,,,32,0,1,,,,,0,,,97,121
153952,note_off,,,,,64,0,1,,,,,0,,,97,77
153984,note_on,,,,,0,0,1,,,,,0,,,96,121
153984,note_on,,,,,0,0,2,,,,,1,,,71,121
153984,note_on,,,,,192,0,2,,,,,1,,,68,121
153984,note_on,,,,,0,0,2,,,,,1,,,77,121
153984,note_on,,,,,32,0,1,,,,,0,,,81,121
154048,note_off,,,,,64,0,1,,,,,0,,,81,77
154048,note_off,,,,,0,0,1,,,,,0,,,96,77
154048,note_off,,,,,64,0,2,,,,,1,,,61,77
154080,note_on,,,,,0,0,1,,,,,0,,,95,121
154080,note_on,,,,,32,0,1,,,,,0,,,94,121
154112,note_off,,,,,64,0,2,,,,,1,,,68,77
154112,note_off,,,,,0,0,2,,,,,1,,,77,77
154112,note_off,,,,,0,0,2,,,,,1,,,71,77
154144,note_off,,,,,0,0,1,,,,,0,,,95,77
154144,note_off,,,,,64,0,1,,,,,0,,,94,77
154176,note_on,,,,,32,0,1,,,,,0,,,83,121
154176,note_on,,,,,0,0,1,,,,,0,,,94,121
154176,note_on,,,,,0,0,2,,,,,1,,,71,121
154176,note_on,,,,,0,0,2,,,,,1,,,77,121
154176,note_on,,,,,64,0,2,,,,,1,,,68,121
154240,note_off,,,,,0,0,1,,,,,0,,,94,77
154240,note_off,,,,,64,0,1,,,,,0,,,83,77
154272,note_on,,,,,32,0,1,,,,,0,,,95,121
154304,note_off,,,,,0,0,2,,,,,1,,,77,77
154304,note_off,,,,,0,0,2,,,,,1,,,71,77
154304,note_off,,,,,128,0,2,,,,,1,,,68,77
154336,note_off,,,,,64,0,1,,,,,0,,,95,77
154368,note_on,,,,,0,0,1,,,,,0,,,97,121
154368,note_on,,,,,32,0,1,,,,,0,,,85,121
154368,note_on,,,,,64,0,2,,,,,1,,,55,121
154432,note_off,,,,,0,0,1,,,,,0,,,97,77
154432,note_off,,,,,64,0,1,,,,,0,,,85,77
154464,note_on,,,,,32,0,1,,,,,0,,,97,121
154464,note_on,,,,,0,0,1,,,,,0,,,95,121
154528,note_off,,,,,64,0,1,,,,,0,,,97,77
154528,note_off,,,,,0,0,1,,,,,0,,,95,77
154560,note_on,,,,,0,0,1,,,,,0,,,94,121
154560,note_on,,,,,192,0,2,,,,,1,,,59,121
154560,note_on,,,,,0,0,2,,,,,1,,,65,121
154560,note_on,,,,,0,0,2,,,,,1,,,62,121
154560,note_on,,,,,32,0,1,,,,,0,,,82,121
154624,note_off,,,,,64,0,1,,,,,0,,,82,77
154624,note_off,,,,,64,0,2,,,,,1,,,55,77
154624,note_off,,,,,0,0,1,,,,,0,,,94,77
154656,note_on,,,,,0,0,1,,,,,0,,,95,121
154656,note_on,,,,,32,0,1,,,,,0,,,94,121
154688,note_off,,,,,64,0,2,,,,,1,,,59,77
154688,note_off,,,,,0,0,2,,,,,1,,,62,77
154688,note_off,,,,,0,0,2,,,,,1,,,65,77
154720,note_off,,,,,64,0,1,,,,,0,,,94,77
154720,note_off,,,,,0,0,1,,,,,0,,,95,77
154752,note_on,,,,,64,0,2,,,,,1,,,59,121
154752,note_on,,,,,0,0,1,,,,,0,,,96,121
154752,note_on,,,,,32,0,1,,,,,0,,,83,121
154752,note_on,,,,,0,0,2,,,,,1,,,62,121
154752,note_on,,,,,0,0,2,,,,,1,,,65,121
154816,note_off,,,,,0,0,1,,,,,0,,,96,77
154816,note_off,,,,,64,0,1,,,,,0,,,83,77
154848,note_on,,,,,0,0,1,,,,,0,,,97,121
154848,note_on,,,,,32,0,1,,,,,0,,,96,121
154880,note_off,,,,,0,0,2,,,,,1,,,62,77
154880,note_off,,,,,0,0,2,,,,,1,,,65,77
154880,note_off,,,,,128,0,2,,,,,1,,,59,77
154912,note_off,,,,,0,0,1,,,,,0,,,97,77
154912,note_off,,,,,64,0,1,,,,,0,,,96,77
154944,note_on,,,,,64,0,2,,,,,1,,,54,121
154944,note_on,,,,,0,0,1,,,,,0,,,98,121
154944,note_on,,,,,32,0,1,,,,,0,,,85,121
155008,note_off,,,,,0,0,1,,,,,0,,,98,77
155008,note_off,,,,,64,0,1,,,,,0,,,85,77
155040,note_on,,,,,0,0,1,,,,,0,,,99,121
155040,note_on,,,,,32,0,1,,,,,0,,,97,121
155104,note_off,,,,,64,0,1,,,,,0,,,97,77
155104,note_off,,,,,0,0,1,,,,,0,,,99,77
155136,note_on,,,,,0,0,2,,,,,1,,,62,121
155136,note_on,,,,,0,0,2,,,,,1,,,66,121
155136,note_on,,,,,0,0,1,,,,,0,,,100,121
155136,note_on,,,,,192,0,2,,,,,1,,,59,121
155136,note_on,,,,,32,0,1,,,,,0,,,82,121
155200,note_off,,,,,64,0,1,,,,,0,,,82,77
155200,note_off,,,,,0,0,1,,,,,0,,,100,77
155200,note_off,,,,,64,0,2,,,,,1,,,54,77
155232,note_on,,,,,0,0,1,,,,,0,,,101,121
155232,note_on,,,,,32,0,1,,,,,0,,,94,121
155264,note_off,,,,,0,0,2,,,,,1,,,62,77
155264,note_off,,,,,0,0,2,,,,,1,,,66,77
155264,note_off,,,,,64,0,2,,,,,1,,,59,77
155296,note_off,,,,,0,0,1,,,,,0,,,101,77
155296,note_off,,,,,64,0,1,,,,,0,,,94,77
155328,note_on,,,,,0,0,1,,,,,0,,,102,121
155328,note_on,,,,,64,0,2,,,,,1,,,59,121
155328,note_on,,,,,32,0,1,,,,,0,,,83,121
155328,note_on,,,,,0,0,2,,,,,1,,,62,121
155328,note_on,,,,,0,0,2,,,,,1,,,66,121
155392,note_off,,,,,64,0,1,,,,,0,,,83,77
155392,note_off,,,,,0,0,1,,,,,0,,,102,77
155424,note_on,,,,,32,0,1,,,,,0,,,95,121
155424,note_on,,,,,0,0,1,,,,,0,,,103,121
155456,note_off,,,,,0,0,2,,,,,1,,,66,77
155456,note_off,,,,,0,0,2,,,,,1,,,62,77
155456,note_off,,,,,128,0,2,,,,,1,,,59,77
155488,note_off,,,,,64,0,1,,,,,0,,,95,77
155488,note_off,,,,,0,0,1,,,,,0,,,103,77
155520,note_on,,,,,32,0,1,,,,,0,,,85,121
155520,note_on,,,,,0,0,1,,,,,0,,,104,121
155520,note_on,,,,,64,0,2,,,,,1,,,53,121
155584,note_off,,,,,0,0,1,,,,,0,,,104,77
155584,note_off,,,,,64,0,1,,,,,0,,,85,77
155616,note_on,,,,,32,0,1,,,,,0,,,97,121
155616,note_on,,,,,0,0,1,,,,,0,,,103,121
155680,note_off,,,,,64,0,1,,,,,0,,,97,77
155680,note_off,,,,,0,0,1,,,,,0,,,103,77
155712,note_on,,,,,192,0,2,,,,,1,,,59,121
155712,note_on,,,,,0,0,2,,,,,1,,,62,121
155712,note_on,,,,,0,0,2,,,,,1,,,67,121
155712,note_on,,,,,0,0,1,,,,,0,,,102,121
155712,note_on,,,,,32,0,1,,,,,0,,,82,121
155776,note_off,,,,,64,0,2,,,,,1,,,53,77
155776,note_off,,,,,64,0,1,,,,,0,,,82,77
155776,note_off,,,,,0,0,1,,,,,0,,,102,77
155808,note_on,,,,,32,0,1,,,,,0,,,94,121
155808,note_on,,,,,0,0,1,,,,,0,,,101,121
155840,note_off,,,,,64,0,2,,,,,1,,,59,77
155840,note_off,,,,,0,0,2,,,,,1,,,67,77
155840,note_off,,,,,0,0,2,,,,,1,,,62,77
155872,note_off,,,,,0,0,1,,,,,0,,,101,77
155872,note_off,,,,,64,0,1,,,,,0,,,94,77
155904,note_on,,,,,0,0,1,,,,,0,,,100,121
155904,note_on,,,,,0,0,2,,,,,1,,,67,121
155904,note_on,,,,,0,0,2,,,,,1,,,62,121
155904,note_on,,,,,32,0,1,,,,,0,,,83,121
155904,note_on,,,,,64,0,2,,,,,1,,,59,121
155968,note_off,,,,,64,0,1,,,,,0,,,83,77
155968,note_off,,,,,0,0,1,,,,,0,,,100,77
156000,note_on,,,,,0,0,1,,,,,0,,,99,121
156000,note_on,,,,,32,0,1,,,,,0,,,95,121
156032,note_off,,,,,128,0,2,,,,,1,,,59,77
156032,note_off,,,,,0,0,2,,,,,1,,,62,77
156032,note_off,,,,,0,0,2,,,,,1,,,67,77
156064,note_off,,,,,0,0,1,,,,,0,,,99,77
156064,note_off,,,,,64,0,1,,,,,0,,,95,77
156096,note_on,,,,,64,0,2,,,,,1,,,52,121
156096,note_on,,,,,0,0,1,,,,,0,,,98,121
156096,note_on,,,,,32,0,1,,,,,0,,,85,121
156160,note_off,,,,,0,0,1,,,,,0,,,98,77
156160,note_off,,,,,64,0,1,,,,,0,,,85,77
156192,note_on,,,,,32,0,1,,,,,0,,,97,121
156256,note_off,,,,,64,0,1,,,,,0,,,97,77
156288,note_on,,,,,32,0,1,,,,,0,,,82,121
156288,note_on,,,,,0,0,2,,,,,1,,,68,121
156288,note_on,,,,,0,0,1,,,,,0,,,96,121
156288,note_on,,,,,192,0,2,,,,,1,,,59,121
156288,note_on,,,,,0,0,2,,,,,1,,,62,121
156352,note_off,,,,,0,0,1,,,,,0,,,96,77
156352,note_off,,,,,64,0,2,,,,,1,,,52,77
156352,note_off,,,,,64,0,1,,,,,0,,,82,77
156384,note_on,,,,,0,0,1,,,,,0,,,95,121
156384,note_on,,,,,32,0,1,,,,,0,,,94,121
156416,note_off,,,,,0,0,2,,,,,1,,,62,77
156416,note_off,,,,,64,0,2,,,,,1,,,59,77
156416,note_off,,,,,0,0,2,,,,,1,,,68,77
156448,note_off,,,,,64,0,1,,,,,0,,,94,77
156448,note_off,,,,,0,0,1,,,,,0,,,95,77
156480,note_on,,,,,32,0,1,,,,,0,,,83,121
156480,note_on,,,,,64,0,2,,,,,1,,,59,121
156480,note_on,,,,,0,0,2,,,,,1,,,68,121
156480,note_on,,,,,0,0,1,,,,,0,,,94,121
156480,note_on,,,,,0,0,2,,,,,1,,,62,121
156544,note_off,,,,,64,0,1,,,,,0,,,83,77
156544,note_off,,,,,0,0,1,,,,,0,,,94,77
156576,note_on,,,,,0,0,1,,,,,0,,,95,121
156576,note_on,,,,,32,0,1,,,,,0,,,92,121
156608,note_off,,,,,128,0,2,,,,,1,,,59,77
156608,note_off,,,,,0,0,2,,,,,1,,,68,77
156608,note_off,,,,,0,0,2,,,,,1,,,62,77
156640,note_off,,,,,0,0,1,,,,,0,,,95,77
156640,note_off,,,,,64,0,1,,,,,0,,,92,77
156672,note_on,,,,,32,0,1,,,,,0,,,86,121
156672,note_on,,,,,0,0,2,,,,,1,,,47,121
156672,note_on,,,,,64,0,2,,,,,1,,,59,121
156736,note_off,,,,,64,0,1,,,,,0,,,86,77
156768,note_on,,,,,32,0,1,,,,,0,,,98,121
156832,note_off,,,,,64,0,1,,,,,0,,,98,77
156864,note_on,,,,,0,0,2,,,,,1,,,61,121
156864,note_on,,,,,32,0,1,,,,,0,,,84,121
156864,note_on,,,,,0,0,2,,,,,1,,,65,121
156864,note_on,,,,,192,0,2,,,,,1,,,56,121
156928,note_off,,,,,0,0,2,,,,,1,,,47,77
156928,note_off,,,,,64,0,1,,,,,0,,,84,77
156928,note_off,,,,,64,0,2,,,,,1,,,59,77
156960,note_on,,,,,32,0,1,,,,,0,,,96,121
156992,note_off,,,,,64,0,2,,,,,1,,,56,77
156992,note_off,,,,,0,0,2,,,,,1,,,65,77
156992,note_off,,,,,0,0,2,,,,,1,,,61,77
157024,note_off,,,,,64,0,1,,,,,0,,,96,77
157056,note_on,,,,,0,0,2,,,,,1,,,61,121
157056,note_on,,,,,0,0,2,,,,,1,,,65,121
157056,note_on,,,,,64,0,2,,,,,1,,,56,121
157056,note_on,,,,,32,0,1,,,,,0,,,85,121
157120,note_off,,,,,64,0,1,,,,,0,,,85,77
157152,note_on,,,,,32,0,1,,,,,0,,,97,121
157184,note_off,,,,,0,0,2,,,,,1,,,61,77
157184,note_off,,,,,0,0,2,,,,,1,,,65,77
157184,note_off,,,,,128,0,2,,,,,1,,,56,77
157216,note_off,,,,,64,0,1,,,,,0,,,97,77
157248,note_on,,,,,32,0,1,,,,,0,,,86,121
157248,note_on,,,,,0,0,2,,,,,1,,,57,121
157248,note_on,,,,,64,0,2,,,,,1,,,45,121
157312,note_off,,,,,64,0,1,,,,,0,,,86,77
157344,note_on,,,,,32,0,1,,,,,0,,,98,121
157408,note_off,,,,,64,0,1,,,,,0,,,98,77
157440,note_on,,,,,192,0,2,,,,,1,,,57,121
157440,note_on,,,,,0,0,2,,,,,1,,,61,121
157440,note_on,,,,,0,0,2,,,,,1,,,66,121
157440,note_on,,,,,32,0,1,,,,,0,,,84,121
157504,note_off,,,,,64,0,1,,,,,0,,,84,77
157504,note_off,,,,,0,0,2,,,,,1,,,57,77
157504,note_off,,,,,64,0,2,,,,,1,,,45,77
157536,note_on,,,,,32,0,1,,,,,0,,,96,121
157568,note_off,,,,,0,0,2,,,,,1,,,61,77
157568,note_off,,,,,0,0,2,,,,,1,,,66,77
157568,note_off,,,,,64,0,2,,,,,1,,,57,77
157600,note_off,,,,,64,0,1,,,,,0,,,96,77
157632,note_on,,,,,32,0,1,,,,,0,,,85,121
157632,note_on,,,,,0,0,2,,,,,1,,,66,121
157632,note_on,,,,,64,0,2,,,,,1,,,57,121
157632,note_on,,,,,0,0,2,,,,,1,,,61,121
157696,note_off,,,,,64,0,1,,,,,0,,,85,77
157728,note_on,,,,,32,0,1,,,,,0,,,97,121
157760,note_off,,,,,0,0,2,,,,,1,,,66,77
157760,note_off,,,,,0,0,2,,,,,1,,,61,77
157760,note_off,,,,,128,0,2,,,,,1,,,57,77
157792,note_off,,,,,64,0,1,,,,,0,,,97,77
157824,note_on,,,,,64,0,2,,,,,1,,,55,121
157824,note_on,,,,,32,0,1,,,,,0,,,86,121
157824,note_on,,,,,0,0,2,,,,,1,,,43,121
157888,note_off,,,,,64,0,1,,,,,0,,,86,77
157920,note_on,,,,,32,0,1,,,,,0,,,98,121
157984,note_off,,,,,64,0,1,,,,,0,,,98,77
158016,note_on,,,,,0,0,2,,,,,1,,,64,121
158016,note_on,,,,,0,0,2,,,,,1,,,61,121
158016,note_on,,,,,192,0,2,,,,,1,,,57,121
158016,note_on,,,,,0,0,1,,,,,0,,,68,121
158016,note_on,,,,,32,0,1,,,,,0,,,84,121
158080,note_off,,,,,64,0,1,,,,,0,,,84,77
158080,note_off,,,,,64,0,2,,,,,1,,,55,77
158080,note_off,,,,,0,0,2,,,,,1,,,43,77
158112,note_on,,,,,32,0,1,,,,,0,,,96,121
158144,note_off,,,,,64,0,2,,,,,1,,,57,77
158144,note_off,,,,,32,0,1,,,,,0,,,68,77
158144,note_off,,,,,0,0,2,,,,,1,,,61,77
158144,note_off,,,,,0,0,2,,,,,1,,,64,77
158176,note_off,,,,,32,0,1,,,,,0,,,96,77
158208,note_on,,,,,0,0,2,,,,,1,,,61,121
158208,note_on,,,,,0,0,2,,,,,1,,,64,121
158208,note_on,,,,,64,0,2,,,,,1,,,57,121
158208,note_on,,,,,0,0,1,,,,,0,,,68,121
158208,note_on,,,,,32,0,1,,,,,0,,,85,121
158272,note_off,,,,,64,0,1,,,,,0,,,85,77
158304,note_on,,,,,32,0,1,,,,,0,,,97,121
158336,note_off,,,,,0,0,2,,,,,1,,,61,77
158336,note_off,,,,,32,0,1,,,,,0,,,68,77
158336,note_off,,,,,0,0,2,,,,,1,,,64,77
158336,note_off,,,,,128,0,2,,,,,1,,,57,77
158368,note_off,,,,,32,0,1,,,,,0,,,97,77
158400,note_on,,,,,0,0,2,,,,,1,,,53,121
158400,note_on,,,,,64,0,2,,,,,1,,,41,121
158400,note_on,,,,,32,0,1,,,,,0,,,86,121
158464,note_off,,,,,64,0,1,,,,,0,,,86,77
158496,note_on,,,,,32,0,1,,,,,0,,,98,121
158560,note_off,,,,,64,0,1,,,,,0,,,98,77
158592,note_on,,,,,192,0,2,,,,,1,,,57,121
158592,note_on,,,,,32,0,1,,,,,0,,,68,121
158592,note_on,,,,,0,0,2,,,,,1,,,60,121
158592,note_on,,,,,0,0,1,,,,,0,,,87,121
158592,note_on,,,,,0,0,2,,,,,1,,,63,121
158656,note_off,,,,,0,0,2,,,,,1,,,53,77
158656,note_off,,,,,64,0,2,,,,,1,,,41,77
158656,note_off,,,,,64,0,1,,,,,0,,,87,77
158688,note_on,,,,,32,0,1,,,,,0,,,99,121
158720,note_off,,,,,0,0,2,,,,,1,,,63,77
158720,note_off,,,,,0,0,2,,,,,1,,,60,77
158720,note_off,,,,,64,0,2,,,,,1,,,57,77
158720,note_off,,,,,32,0,1,,,,,0,,,68,77
158752,note_off,,,,,32,0,1,,,,,0,,,99,77
158784,note_on,,,,,0,0,2,,,,,1,,,63,121
158784,note_on,,,,,0,0,2,,,,,1,,,60,121
158784,note_on,,,,,0,0,1,,,,,0,,,87,121
158784,note_on,,,,,32,0,1,,,,,0,,,68,121
158784,note_on,,,,,64,0,2,,,,,1,,,57,121
158848,note_off,,,,,64,0,1,,,,,0,,,87,77
158880,note_on,,,,,32,0,1,,,,,0,,,99,121
158912,note_off,,,,,0,0,2,,,,,1,,,60,77
158912,note_off,,,,,128,0,2,,,,,1,,,57,77
158912,note_off,,,,,32,0,1,,,,,0,,,68,77
158912,note_off,,,,,0,0,2,,,,,1,,,63,77
158944,note_off,,,,,32,0,1,,,,,0,,,99,77
158976,note_on,,,,,32,0,1,,,,,0,,,88,121
158976,note_on,,,,,0,0,2,,,,,1,,,52,121
158976,note_on,,,,,64,0,2,,,,,1,,,40,121
158976,note_on,,,,,0,0,1,,,,,0,,,100,121
158976,note_on,,,,,0,0,1,,,,,0,,,97,121
158976,note_on,,,,,0,0,1,,,,,0,,,93,121
159232,note_off,,,,,0,0,1,,,,,0,,,100,77
159232,note_off,,,,,0,0,2,,,,,1,,,52,77
159232,note_off,,,,,0,0,1,,,,,0,,,97,77
159232,note_off,,,,,256,0,1,,,,,0,,,88,77
159232,note_off,,,,,256,0,2,,,,,1,,,40,77
159232,note_off,,,,,0,0,1,,,,,0,,,93,77
159552,note_on,,,,,0,0,1,,,,,0,,,89,121
159552,note_on,,,,,0,0,1,,,,,0,,,93,121
159552,note_on,,,,,0,0,1,,,,,0,,,96,121
159552,note_on,,,,,0,0,2,,,,,1,,,39,121
159552,note_on,,,,,320,0,1,,,,,0,,,101,121
159552,note_on,,,,,320,0,2,,,,,1,,,51,121
159680,note_off,,,,,128,0,1,,,,,0,,,101,77
159680,note_off,,,,,128,0,2,,,,,1,,,51,77
159680,note_off,,,,,0,0,1,,,,,0,,,89,77
159680,note_off,,,,,0,0,1,,,,,0,,,93,77
159680,note_off,,,,,0,0,1,,,,,0,,,96,77
159680,note_off,,,,,0,0,2,,,,,1,,,39,77
159744,note_on,,,,,0,0,2,,,,,1,,,65,121
159744,note_on,,,,,64,0,1,,,,,0,,,89,121
159744,note_on,,,,,0,0,2,,,,,1,,,60,121
159744,note_on,,,,,64,0,2,,,,,1,,,57,121
159744,note_on,,,,,0,0,1,,,,,0,,,77,121
159744,note_on,,,,,0,0,1,,,,,0,,,81,121
159744,note_on,,,,,0,0,1,,,,,0,,,84,121
159872,note_off,,,,,0,0,1,,,,,0,,,77,77
159872,note_off,,,,,0,0,2,,,,,1,,,60,77
159872,note_off,,,,,0,0,1,,,,,0,,,84,77
159872,note_off,,,,,128,0,2,,,,,1,,,57,77
159872,note_off,,,,,0,0,2,,,,,1,,,65,77
159872,note_off,,,,,128,0,1,,,,,0,,,89,77
159872,note_off,,,,,0,0,1,,,,,0,,,81,77
160128,note_on,,,,,0,0,1,,,,,0,,,77,121
160128,note_on,,,,,0,0,2,,,,,1,,,38,121
160128,note_on,,,,,256,0,1,,,,,0,,,89,121
160128,note_on,,,,,256,0,2,,,,,1,,,50,121
160128,note_on,,,,,0,0,1,,,,,0,,,82,121
160256,note_off,,,,,0,0,1,,,,,0,,,77,77
160256,note_off,,,,,0,0,1,,,,,0,,,82,77
160256,note_off,,,,,128,0,2,,,,,1,,,50,77
160256,note_off,,,,,0,0,2,,,,,1,,,38,77
160256,note_off,,,,,128,0,1,,,,,0,,,89,77
160320,note_on,,,,,0,0,1,,,,,0,,,82,121
160320,note_on,,,,,64,0,1,,,,,0,,,77,121
160320,note_on,,,,,0,0,2,,,,,1,,,53,121
160320,note_on,,,,,0,0,2,,,,,1,,,62,121
160320,note_on,,,,,0,0,1,,,,,0,,,89,121
160320,note_on,,,,,64,0,2,,,,,1,,,58,121
160448,note_off,,,,,0,0,1,,,,,0,,,89,77
160448,note_off,,,,,0,0,1,,,,,0,,,82,77
160448,note_off,,,,,128,0,1,,,,,0,,,77,77
160448,note_off,,,,,0,0,2,,,,,1,,,53,77
160448,note_off,,,,,128,0,2,,,,,1,,,58,77
160448,note_off,,,,,0,0,2,,,,,1,,,62,77
160704,note_on,,,,,0,0,1,,,,,0,,,77,121
160704,note_on,,,,,0,0,1,,,,,0,,,89,121
160704,note_on,,,,,0,0,2,,,,,1,,,37,121
160704,note_on,,,,,256,0,2,,,,,1,,,49,121
160704,note_on,,,,,256,0,1,,,,,0,,,83,121
160832,note_off,,,,,0,0,2,,,,,1,,,37,77
160832,note_off,,,,,128,0,1,,,,,0,,,83,77
160832,note_off,,,,,128,0,2,,,,,1,,,49,77
160832,note_off,,,,,0,0,1,,,,,0,,,89,77
160832,note_off,,,,,0,0,1,,,,,0,,,77,77
160896,note_on,,,,,64,0,2,,,,,1,,,49,121
160896,note_on,,,,,64,0,1,,,,,0,,,71,121
160896,note_on,,,,,0,0,1,,,,,0,,,77,121
160896,note_on,,,,,0,0,2,,,,,1,,,56,121
161024,note_off,,,,,128,0,1,,,,,0,,,71,77
161024,note_off,,,,,0,0,1,,,,,0,,,77,77
161024,note_off,,,,,128,0,2,,,,,1,,,49,77
161024,note_off,,,,,0,0,2,,,,,1,,,56,77
161280,note_on,,,,,0,0,2,,,,,1,,,49,121
161280,note_on,,,,,256,0,2,,,,,1,,,37,121
161344,note_off,,,,,0,0,2,,,,,1,,,49,77
161344,note_off,,,,,64,0,2,,,,,1,,,37,77
161376,note_on,,,,,0,0,2,,,,,1,,,50,121
161376,note_on,,,,,32,0,2,,,,,1,,,38,121
161440,note_off,,,,,64,0,2,,,,,1,,,38,77
161440,note_off,,,,,0,0,2,,,,,1,,,50,77
161472,note_on,,,,,0,0,2,,,,,1,,,52,121
161472,note_on,,,,,32,0,2,,,,,1,,,40,121
161536,note_off,,,,,64,0,2,,,,,1,,,40,77
161536,note_off,,,,,0,0,2,,,,,1,,,52,77
161568,note_on,,,,,0,0,2,,,,,1,,,41,121
161568,note_on,,,,,32,0,2,,,,,1,,,53,121
161664,note_on,,,,,0,0,2,,,,,1,,,44,121
161664,note_on,,,,,96,0,2,,,,,1,,,41,121
161664,note_on,,,,,640,0,1,,,,,0,,,77,121
161664,note_on,,,,,0,0,2,,,,,1,,,53,121
161664,note_on,,,,,0,0,2,,,,,1,,,47,121
161664,note_on,,,,,0,0,2,,,,,1,,,50,121
161696,note_off,,,,,0,0,2,,,,,1,,,41,77
161696,note_off,,,,,32,0,2,,,,,1,,,53,77
161760,note_on,,,,,0,0,2,,,,,1,,,41,121
161760,note_on,,,,,0,0,2,,,,,1,,,44,121
161760,note_on,,,,,0,0,2,,,,,1,,,47,121
161760,note_on,,,,,64,0,2,,,,,1,,,56,121
161760,note_on,,,,,96,0,1,,,,,0,,,80,121
161760,note_on,,,,,0,0,2,,,,,1,,,50,121
161792,note_off,,,,,0,0,2,,,,,1,,,50,77
161792,note_off,,,,,0,0,2,,,,,1,,,53,77
161792,note_off,,,,,32,0,2,,,,,1,,,41,77
161792,note_off,,,,,0,0,2,,,,,1,,,47,77
161792,note_off,,,,,32,0,1,,,,,0,,,77,77
161792,note_off,,,,,0,0,2,,,,,1,,,44,77
161856,note_on,,,,,0,0,1,,,,,0,,,71,121
161856,note_on,,,,,64,0,1,,,,,0,,,83,121
161856,note_on,,,,,0,0,2,,,,,1,,,41,121
161856,note_on,,,,,0,0,2,,,,,1,,,44,121
161856,note_on,,,,,0,0,2,,,,,1,,,47,121
161856,note_on,,,,,64,0,2,,,,,1,,,50,121
161888,note_off,,,,,0,0,2,,,,,1,,,50,77
161888,note_off,,,,,0,0,2,,,,,1,,,47,77
161888,note_off,,,,,0,0,2,,,,,1,,,44,77
161888,note_off,,,,,32,0,2,,,,,1,,,56,77
161888,note_off,,,,,32,0,1,,,,,0,,,80,77
161888,note_off,,,,,0,0,2,,,,,1,,,41,77
161984,note_off,,,,,96,0,1,,,,,0,,,83,77
161984,note_off,,,,,96,0,2,,,,,1,,,50,77
161984,note_off,,,,,0,0,1,,,,,0,,,71,77
161984,note_off,,,,,0,0,2,,,,,1,,,41,77
161984,note_off,,,,,0,0,2,,,,,1,,,44,77
161984,note_off,,,,,0,0,2,,,,,1,,,47,77
162048,note_on,,,,,0,0,2,,,,,1,,,41,121
162048,note_on,,,,,0,0,2,,,,,1,,,47,121
162048,note_on,,,,,64,0,2,,,,,1,,,44,121
162048,note_on,,,,,0,0,2,,,,,1,,,50,121
162048,note_on,,,,,0,0,1,,,,,0,,,73,121
162048,note_on,,,,,64,0,1,,,,,0,,,85,121
162176,note_off,,,,,0,0,2,,,,,1,,,41,77
162176,note_off,,,,,128,0,2,,,,,1,,,44,77
162176,note_off,,,,,0,0,2,,,,,1,,,50,77
162176,note_off,,,,,128,0,1,,,,,0,,,85,77
162176,note_off,,,,,0,0,1,,,,,0,,,73,77
162176,note_off,,,,,0,0,2,,,,,1,,,47,77
162240,note_on,,,,,64,0,1,,,,,0,,,86,121
162240,note_on,,,,,0,0,2,,,,,1,,,50,121
162240,note_on,,,,,0,0,2,,,,,1,,,47,121
162240,note_on,,,,,0,0,2,,,,,1,,,44,121
162240,note_on,,,,,0,0,1,,,,,0,,,74,121
162240,note_on,,,,,64,0,2,,,,,1,,,41,121
162368,note_off,,,,,128,0,1,,,,,0,,,86,77
162368,note_off,,,,,0,0,1,,,,,0,,,74,77
162368,note_off,,,,,128,0,2,,,,,1,,,41,77
162368,note_off,,,,,0,0,2,,,,,1,,,50,77
162368,note_off,,,,,0,0,2,,,,,1,,,44,77
162368,note_off,,,,,0,0,2,,,,,1,,,47,77
162432,note_on,,,,,0,0,2,,,,,1,,,44,121
162432,note_on,,,,,0,0,2,,,,,1,,,41,121
162432,note_on,,,,,64,0,2,,,,,1,,,50,121
162432,note_on,,,,,64,0,1,,,,,0,,,77,121
162432,note_on,,,,,0,0,1,,,,,0,,,89,121
162432,note_on,,,,,0,0,2,,,,,1,,,47,121
162560,note_off,,,,,0,0,2,,,,,1,,,44,77
162560,note_off,,,,,128,0,1,,,,,0,,,77,77
162560,note_off,,,,,0,0,2,,,,,1,,,47,77
162560,note_off,,,,,0,0,2,,,,,1,,,41,77
162560,note_off,,,,,128,0,2,,,,,1,,,50,77
162560,note_off,,,,,0,0,1,,,,,0,,,89,77
162624,note_on,,,,,0,0,2,,,,,1,,,52,121
162624,note_on,,,,,0,0,2,,,,,1,,,47,121
162624,note_on,,,,,0,0,1,,,,,0,,,92,121
162624,note_on,,,,,64,0,1,,,,,0,,,80,121
162624,note_on,,,,,64,0,2,,,,,1,,,40,121
162624,note_on,,,,,0,0,2,,,,,1,,,44,121
162752,note_off,,,,,128,0,2,,,,,1,,,40,77
162752,note_off,,,,,0,0,1,,,,,0,,,92,77
162752,note_off,,,,,0,0,2,,,,,1,,,47,77
162752,note_off,,,,,0,0,2,,,,,1,,,44,77
162752,note_off,,,,,128,0,1,,,,,0,,,80,77
162752,note_off,,,,,0,0,2,,,,,1,,,52,77
162816,note_on,,,,,0,0,1,,,,,0,,,95,121
162816,note_on,,,,,0,0,2,,,,,1,,,44,121
162816,note_on,,,,,0,0,2,,,,,1,,,47,121
162816,note_on,,,,,0,0,2,,,,,1,,,52,121
162816,note_on,,,,,64,0,2,,,,,1,,,40,121
162816,note_on,,,,,64,0,1,,,,,0,,,83,121
162944,note_off,,,,,0,0,2,,,,,1,,,44,77
162944,note_off,,,,,0,0,2,,,,,1,,,47,77
162944,note_off,,,,,0,0,2,,,,,1,,,52,77
162944,note_off,,,,,128,0,1,,,,,0,,,83,77
162944,note_off,,,,,0,0,1,,,,,0,,,95,77
162944,note_off,,,,,128,0,2,,,,,1,,,40,77
163008,note_on,,,,,64,0,1,,,,,0,,,86,121
163008,note_on,,,,,0,0,2,,,,,1,,,47,121
163008,note_on,,,,,0,0,1,,,,,0,,,98,121
163008,note_on,,,,,0,0,2,,,,,1,,,44,121
163008,note_on,,,,,64,0,2,,,,,1,,,52,121
163008,note_on,,,,,0,0,2,,,,,1,,,40,121
163136,note_off,,,,,128,0,1,,,,,0,,,86,77
163136,note_off,,,,,0,0,2,,,,,1,,,40,77
163136,note_off,,,,,0,0,1,,,,,0,,,98,77
163136,note_off,,,,,0,0,2,,,,,1,,,44,77
163136,note_off,,,,,0,0,2,,,,,1,,,47,77
163136,note_off,,,,,128,0,2,,,,,1,,,52,77
163200,note_on,,,,,0,0,2,,,,,1,,,52,121
163200,note_on,,,,,0,0,1,,,,,0,,,99,121
163200,note_on,,,,,0,0,2,,,,,1,,,47,121
163200,note_on,,,,,64,0,1,,,,,0,,,87,121
163200,note_on,,,,,64,0,2,,,,,1,,,40,121
163200,note_on,,,,,0,0,2,,,,,1,,,44,121
163328,note_off,,,,,128,0,2,,,,,1,,,40,77
163328,note_off,,,,,0,0,2,,,,,1,,,47,77
163328,note_off,,,,,0,0,2,,,,,1,,,52,77
163328,note_off,,,,,0,0,1,,,,,0,,,99,77
163328,note_off,,,,,128,0,1,,,,,0,,,87,77
163328,note_off,,,,,0,0,2,,,,,1,,,44,77
163392,note_on,,,,,64,0,1,,,,,0,,,88,121
163392,note_on,,,,,0,0,2,,,,,1,,,44,121
163392,note_on,,,,,0,0,2,,,,,1,,,47,121
163392,note_on,,,,,0,0,1,,,,,0,,,100,121
163392,note_on,,,,,0,0,2,,,,,1,,,52,121
163392,note_on,,,,,64,0,2,,,,,1,,,40,121
163520,note_off,,,,,0,0,2,,,,,1,,,44,77
163520,note_off,,,,,128,0,2,,,,,1,,,40,77
163520,note_off,,,,,0,0,1,,,,,0,,,100,77
163520,note_off,,,,,0,0,2,,,,,1,,,52,77
163520,note_off,,,,,0,0,2,,,,,1,,,47,77
163520,note_off,,,,,128,0,1,,,,,0,,,88,77
163584,note_on,,,,,64,0,1,,,,,0,,,88,121
163584,note_on,,,,,0,0,1,,,,,0,,,97,121
163584,note_on,,,,,0,0,2,,,,,1,,,40,121
163584,note_on,,,,,0,0,1,,,,,0,,,100,121
163584,note_on,,,,,0,0,1,,,,,0,,,93,121
163584,note_on,,,,,0,0,2,,,,,1,,,45,121
163584,note_on,,,,,0,0,2,,,,,1,,,49,121
163584,note_on,,,,,0,0,2,,,,,1,,,52,121
163584,note_on,,,,,64,0,2,,,,,1,,,40,121
163840,note_off,,,,,0,0,1,,,,,0,,,93,77
163840,note_off,,,,,256,0,2,,,,,1,,,40,77
163840,note_off,,,,,0,0,1,,,,,0,,,97,77
163840,note_off,,,,,0,0,2,,,,,1,,,49,77
163840,note_off,,,,,0,0,2,,,,,1,,,45,77
163840,note_off,,,,,0,0,2,,,,,1,,,52,77
163840,note_off,,,,,256,0,1,,,,,0,,,88,77
163840,note_off,,,,,0,0,1,,,,,0,,,100,77
163840,note_off,,,,,0,0,2,,,,,1,,,40,77
164160,note_on,,,,,320,0,2,,,,,1,,,51,121
164160,note_on,,,,,320,0,1,,,,,0,,,101,121
164160,note_on,,,,,0,0,2,,,,,1,,,39,121
164160,note_on,,,,,0,0,1,,,,,0,,,89,121
164160,note_on,,,,,0,0,1,,,,,0,,,93,121
164160,note_on,,,,,0,0,1,,,,,0,,,96,121
164288,note_off,,,,,128,0,2,,,,,1,,,51,77
164288,note_off,,,,,0,0,1,,,,,0,,,89,77
164288,note_off,,,,,0,0,1,,,,,0,,,93,77
164288,note_off,,,,,0,0,1,,,,,0,,,96,77
164288,note_off,,,,,0,0,2,,,,,1,,,39,77
164288,note_off,,,,,128,0,1,,,,,0,,,101,77
164352,note_on,,,,,0,0,1,,,,,0,,,77,121
164352,note_on,,,,,0,0,2,,,,,1,,,60,121
164352,note_on,,,,,0,0,1,,,,,0,,,84,121
164352,note_on,,,,,0,0,1,,,,,0,,,81,121
164352,note_on,,,,,0,0,2,,,,,1,,,65,121
164352,note_on,,,,,64,0,2,,,,,1,,,57,121
164352,note_on,,,,,64,0,1,,,,,0,,,89,121
164480,note_off,,,,,0,0,1,,,,,0,,,84,77
164480,note_off,,,,,0,0,2,,,,,1,,,65,77
164480,note_off,,,,,0,0,1,,,,,0,,,81,77
164480,note_off,,,,,0,0,2,,,,,1,,,60,77
164480,note_off,,,,,0,0,1,,,,,0,,,77,77
164480,note_off,,,,,128,0,2,,,,,1,,,57,77
164480,note_off,,,,,128,0,1,,,,,0,,,89,77
164736,note_on,,,,,256,0,1,,,,,0,,,89,121
164736,note_on,,,,,0,0,1,,,,,0,,,82,121
164736,note_on,,,,,0,0,1,,,,,0,,,77,121
164736,note_on,,,,,0,0,2,,,,,1,,,38,121
164736,note_on,,,,,256,0,2,,,,,1,,,50,121
164864,note_off,,,,,0,0,1,,,,,0,,,77,77
164864,note_off,,,,,0,0,2,,,,,1,,,38,77
164864,note_off,,,,,128,0,2,,,,,1,,,50,77
164864,note_off,,,,,128,0,1,,,,,0,,,89,77
164864,note_off,,,,,0,0,1,,,,,0,,,82,77
164928,note_on,,,,,0,0,1,,,,,0,,,89,121
164928,note_on,,,,,0,0,1,,,,,0,,,82,121
164928,note_on,,,,,64,0,2,,,,,1,,,58,121
164928,note_on,,,,,0,0,2,,,,,1,,,62,121
164928,note_on,,,,,0,0,2,,,,,1,,,53,121
164928,note_on,,,,,64,0,1,,,,,0,,,77,121
165056,note_off,,,,,128,0,2,,,,,1,,,58,77
165056,note_off,,,,,0,0,2,,,,,1,,,62,77
165056,note_off,,,,,0,0,2,,,,,1,,,53,77
165056,note_off,,,,,128,0,1,,,,,0,,,77,77
165056,note_off,,,,,0,0,1,,,,,0,,,82,77
165056,note_off,,,,,0,0,1,,,,,0,,,89,77
165312,note_on,,,,,256,0,1,,,,,0,,,83,121
165312,note_on,,,,,256,0,2,,,,,1,,,49,121
165312,note_on,,,,,0,0,2,,,,,1,,,37,121
165312,note_on,,,,,0,0,1,,,,,0,,,89,121
165312,note_on,,,,,0,0,1,,,,,0,,,77,121
165440,note_off,,,,,0,0,1,,,,,0,,,77,77
165440,note_off,,,,,0,0,1,,,,,0,,,89,77
165440,note_off,,,,,128,0,2,,,,,1,,,49,77
165440,note_off,,,,,128,0,1,,,,,0,,,83,77
165440,note_off,,,,,0,0,2,,,,,1,,,37,77
165504,note_on,,,,,64,0,2,,,,,1,,,49,121
165504,note_on,,,,,0,0,1,,,,,0,,,77,121
165504,note_on,,,,,0,0,2,,,,,1,,,56,121
165504,note_on,,,,,64,0,1,,,,,0,,,71,121
165632,note_off,,,,,0,0,1,,,,,0,,,77,77
165632,note_off,,,,,128,0,2,,,,,1,,,49,77
165632,note_off,,,,,128,0,1,,,,,0,,,71,77
165632,note_off,,,,,0,0,2,,,,,1,,,56,77
165888,note_on,,,,,256,0,2,,,,,1,,,37,121
165888,note_on,,,,,0,0,2,,,,,1,,,49,121
165952,note_off,,,,,64,0,2,,,,,1,,,37,77
165952,note_off,,,,,0,0,2,,,,,1,,,49,77
165984,note_on,,,,,0,0,2,,,,,1,,,50,121
165984,note_on,,,,,32,0,2,,,,,1,,,38,121
166048,note_off,,,,,0,0,2,,,,,1,,,50,77
166048,note_off,,,,,64,0,2,,,,,1,,,38,77
166080,note_on,,,,,32,0,2,,,,,1,,,40,121
166080,note_on,,,,,0,0,2,,,,,1,,,52,121
166144,note_off,,,,,0,0,2,,,,,1,,,52,77
166144,note_off,,,,,64,0,2,,,,,1,,,40,77
166176,note_on,,,,,32,0,2,,,,,1,,,53,121
166176,note_on,,,,,0,0,2,,,,,1,,,41,121
166272,note_on,,,,,0,0,2,,,,,1,,,44,121
166272,note_on,,,,,96,0,2,,,,,1,,,41,121
166272,note_on,,,,,0,0,2,,,,,1,,,50,121
166272,note_on,,,,,0,0,2,,,,,1,,,53,121
166272,note_on,,,,,640,0,1,,,,,0,,,77,121
166272,note_on,,,,,0,0,2,,,,,1,,,47,121
166304,note_off,,,,,32,0,2,,,,,1,,,53,77
166304,note_off,,,,,0,0,2,,,,,1,,,41,77
166368,note_on,,,,,0,0,2,,,,,1,,,47,121
166368,note_on,,,,,96,0,1,,,,,0,,,80,121
166368,note_on,,,,,0,0,2,,,,,1,,,41,121
166368,note_on,,,,,64,0,2,,,,,1,,,56,121
166368,note_on,,,,,0,0,2,,,,,1,,,50,121
166368,note_on,,,,,0,0,2,,,,,1,,,44,121
166400,note_off,,,,,0,0,2,,,,,1,,,53,77
166400,note_off,,,,,0,0,2,,,,,1,,,44,77
166400,note_off,,,,,0,0,2,,,,,1,,,50,77
166400,note_off,,,,,32,0,2,,,,,1,,,41,77
166400,note_off,,,,,32,0,1,,,,,0,,,77,77
166400,note_off,,,,,0,0,2,,,,,1,,,47,77
166464,note_on,,,,,0,0,2,,,,,1,,,44,121
166464,note_on,,,,,64,0,1,,,,,0,,,83,121
166464,note_on,,,,,0,0,2,,,,,1,,,47,121
166464,note_on,,,,,0,0,1,,,,,0,,,71,121
166464,note_on,,,,,0,0,2,,,,,1,,,41,121
166464,note_on,,,,,64,0,2,,,,,1,,,50,121
166496,note_off,,,,,32,0,1,,,,,0,,,80,77
166496,note_off,,,,,32,0,2,,,,,1,,,56,77
166496,note_off,,,,,0,0,2,,,,,1,,,50,77
166496,note_off,,,,,0,0,2,,,,,1,,,47,77
166496,note_off,,,,,0,0,2,,,,,1,,,44,77
166496,note_off,,,,,0,0,2,,,,,1,,,41,77
166592,note_off,,,,,96,0,1,,,,,0,,,83,77
166592,note_off,,,,,0,0,2,,,,,1,,,47,77
166592,note_off,,,,,0,0,1,,,,,0,,,71,77
166592,note_off,,,,,0,0,2,,,,,1,,,41,77
166592,note_off,,,,,0,0,2,,,,,1,,,44,77
166592,note_off,,,,,96,0,2,,,,,1,,,50,77
166656,note_on,,,,,0,0,2,,,,,1,,,47,121
166656,note_on,,,,,0,0,2,,,,,1,,,50,121
166656,note_on,,,,,0,0,1,,,,,0,,,73,121
166656,note_on,,,,,0,0,2,,,,,1,,,41,121
166656,note_on,,,,,64,0,2,,,,,1,,,44,121
166656,note_on,,,,,64,0,1,,,,,0,,,85,121
166784,note_off,,,,,128,0,2,,,,,1,,,44,77
166784,note_off,,,,,0,0,1,,,,,0,,,73,77
166784,note_off,,,,,0,0,2,,,,,1,,,47,77
166784,note_off,,,,,0,0,2,,,,,1,,,41,77
166784,note_off,,,,,128,0,1,,,,,0,,,85,77
166784,note_off,,,,,0,0,2,,,,,1,,,50,77
166848,note_on,,,,,0,0,2,,,,,1,,,47,121
166848,note_on,,,,,64,0,1,,,,,0,,,86,121
166848,note_on,,,,,0,0,1,,,,,0,,,74,121
166848,note_on,,,,,64,0,2,,,,,1,,,41,121
166848,note_on,,,,,0,0,2,,,,,1,,,44,121
166848,note_on,,,,,0,0,2,,,,,1,,,50,121
166976,note_off,,,,,0,0,2,,,,,1,,,50,77
166976,note_off,,,,,128,0,2,,,,,1,,,41,77
166976,note_off,,,,,0,0,2,,,,,1,,,47,77
166976,note_off,,,,,0,0,1,,,,,0,,,74,77
166976,note_off,,,,,0,0,2,,,,,1,,,44,77
166976,note_off,,,,,128,0,1,,,,,0,,,86,77
167040,note_on,,,,,0,0,2,,,,,1,,,44,121
167040,note_on,,,,,0,0,1,,,,,0,,,89,121
167040,note_on,,,,,0,0,2,,,,,1,,,41,121
167040,note_on,,,,,64,0,2,,,,,1,,,50,121
167040,note_on,,,,,64,0,1,,,,,0,,,77,121
167040,note_on,,,,,0,0,2,,,,,1,,,47,121
167168,note_off,,,,,0,0,2,,,,,1,,,41,77
167168,note_off,,,,,0,0,2,,,,,1,,,44,77
167168,note_off,,,,,0,0,2,,,,,1,,,47,77
167168,note_off,,,,,0,0,1,,,,,0,,,89,77
167168,note_off,,,,,128,0,1,,,,,0,,,77,77
167168,note_off,,,,,128,0,2,,,,,1,,,50,77
167232,note_on,,,,,64,0,1,,,,,0,,,78,121
167232,note_on,,,,,0,0,1,,,,,0,,,90,121
167232,note_on,,,,,0,0,2,,,,,1,,,49,121
167232,note_on,,,,,0,0,2,,,,,1,,,46,121
167232,note_on,,,,,64,0,2,,,,,1,,,40,121
167360,note_off,,,,,0,0,2,,,,,1,,,46,77
167360,note_off,,,,,128,0,2,,,,,1,,,40,77
167360,note_off,,,,,0,0,1,,,,,0,,,90,77
167360,note_off,,,,,0,0,2,,,,,1,,,49,77
167360,note_off,,,,,128,0,1,,,,,0,,,78,77
167424,note_on,,,,,64,0,1,,,,,0,,,81,121
167424,note_on,,,,,0,0,2,,,,,1,,,46,121
167424,note_on,,,,,0,0,2,,,,,1,,,49,121
167424,note_on,,,,,64,0,2,,,,,1,,,40,121
167424,note_on,,,,,0,0,1,,,,,0,,,93,121
167552,note_off,,,,,0,0,1,,,,,0,,,93,77
167552,note_off,,,,,128,0,2,,,,,1,,,40,77
167552,note_off,,,,,128,0,1,,,,,0,,,81,77
167552,note_off,,,,,0,0,2,,,,,1,,,46,77
167552,note_off,,,,,0,0,2,,,,,1,,,49,77
167616,note_on,,,,,64,0,1,,,,,0,,,94,121
167616,note_on,,,,,0,0,1,,,,,0,,,82,121
167616,note_on,,,,,64,0,2,,,,,1,,,40,121
167616,note_on,,,,,0,0,2,,,,,1,,,49,121
167616,note_on,,,,,0,0,2,,,,,1,,,46,121
167744,note_off,,,,,0,0,2,,,,,1,,,49,77
167744,note_off,,,,,128,0,2,,,,,1,,,40,77
167744,note_off,,,,,0,0,1,,,,,0,,,82,77
167744,note_off,,,,,128,0,1,,,,,0,,,94,77
167744,note_off,,,,,0,0,2,,,,,1,,,46,77
167808,note_on,,,,,64,0,1,,,,,0,,,85,121
167808,note_on,,,,,0,0,2,,,,,1,,,49,121
167808,note_on,,,,,0,0,1,,,,,0,,,97,121
167808,note_on,,,,,0,0,2,,,,,1,,,46,121
167808,note_on,,,,,64,0,2,,,,,1,,,40,121
167936,note_off,,,,,128,0,2,,,,,1,,,40,77
167936,note_off,,,,,128,0,1,,,,,0,,,85,77
167936,note_off,,,,,0,0,1,,,,,0,,,97,77
167936,note_off,,,,,0,0,2,,,,,1,,,49,77
167936,note_off,,,,,0,0,2,,,,,1,,,46,77
168000,note_on,,,,,0,0,1,,,,,0,,,101,121
168000,note_on,,,,,0,0,2,,,,,1,,,46,121
168000,note_on,,,,,64,0,1,,,,,0,,,89,121
168000,note_on,,,,,0,0,2,,,,,1,,,49,121
168000,note_on,,,,,64,0,2,,,,,1,,,40,121
168128,note_off,,,,,128,0,2,,,,,1,,,40,77
168128,note_off,,,,,0,0,1,,,,,0,,,101,77
168128,note_off,,,,,0,0,2,,,,,1,,,49,77
168128,note_off,,,,,0,0,2,,,,,1,,,46,77
168128,note_off,,,,,128,0,1,,,,,0,,,89,77
168192,note_on,,,,,0,0,1,,,,,0,,,90,121
168192,note_on,,,,,0,0,2,,,,,1,,,46,121
168192,note_on,,,,,0,0,2,,,,,1,,,49,121
168192,note_on,,,,,64,0,1,,,,,0,,,102,121
168192,note_on,,,,,64,0,2,,,,,1,,,40,121
168192,note_on,,,,,0,0,2,,,,,1,,,40,121
168320,note_off,,,,,128,0,1,,,,,0,,,102,77
168320,note_off,,,,,0,0,1,,,,,0,,,90,77
168384,note_on,,,,,0,0,1,,,,,0,,,91,121
168384,note_on,,,,,64,0,1,,,,,0,,,79,121
168384,note_on,,,,,0,0,2,,,,,1,,,49,121
168384,note_on,,,,,192,0,2,,,,,1,,,39,121
168384,note_on,,,,,0,0,2,,,,,1,,,46,121
168448,note_off,,,,,64,0,2,,,,,1,,,40,77
168448,note_off,,,,,0,0,2,,,,,1,,,40,77
168448,note_off,,,,,0,0,2,,,,,1,,,46,77
168448,note_off,,,,,0,0,2,,,,,1,,,49,77
168512,note_off,,,,,128,0,1,,,,,0,,,79,77
168512,note_off,,,,,0,0,1,,,,,0,,,91,77
168512,note_off,,,,,0,0,2,,,,,1,,,46,77
168512,note_off,,,,,0,0,2,,,,,1,,,49,77
168512,note_off,,,,,64,0,2,,,,,1,,,39,77
168576,note_on,,,,,0,0,2,,,,,1,,,49,121
168576,note_on,,,,,0,0,2,,,,,1,,,46,121
168576,note_on,,,,,64,0,1,,,,,0,,,81,121
168576,note_on,,,,,0,0,1,,,,,0,,,93,121
168576,note_on,,,,,64,0,2,,,,,1,,,39,121
168704,note_off,,,,,128,0,2,,,,,1,,,39,77
168704,note_off,,,,,0,0,1,,,,,0,,,93,77
168704,note_off,,,,,128,0,1,,,,,0,,,81,77
168704,note_off,,,,,0,0,2,,,,,1,,,49,77
168704,note_off,,,,,0,0,2,,,,,1,,,46,77
168768,note_on,,,,,64,0,2,,,,,1,,,46,121
168768,note_on,,,,,64,0,1,,,,,0,,,82,121
168768,note_on,,,,,0,0,1,,,,,0,,,94,121
168768,note_on,,,,,0,0,2,,,,,1,,,39,121
168768,note_on,,,,,0,0,2,,,,,1,,,49,121
168896,note_off,,,,,0,0,2,,,,,1,,,39,77
168896,note_off,,,,,128,0,1,,,,,0,,,82,77
168896,note_off,,,,,0,0,2,,,,,1,,,49,77
168896,note_off,,,,,128,0,2,,,,,1,,,46,77
168896,note_off,,,,,0,0,1,,,,,0,,,94,77
168960,note_on,,,,,0,0,2,,,,,1,,,46,121
168960,note_on,,,,,64,0,1,,,,,0,,,85,121
168960,note_on,,,,,0,0,2,,,,,1,,,49,121
168960,note_on,,,,,0,0,1,,,,,0,,,97,121
168960,note_on,,,,,64,0,2,,,,,1,,,39,121
169088,note_off,,,,,0,0,2,,,,,1,,,49,77
169088,note_off,,,,,0,0,1,,,,,0,,,97,77
169088,note_off,,,,,128,0,1,,,,,0,,,85,77
169088,note_off,,,,,128,0,2,,,,,1,,,39,77
169088,note_off,,,,,0,0,2,,,,,1,,,46,77
169152,note_on,,,,,64,0,2,,,,,1,,,39,121
169152,note_on,,,,,0,0,2,,,,,1,,,49,121
169152,note_on,,,,,0,0,2,,,,,1,,,46,121
169152,note_on,,,,,64,0,1,,,,,0,,,90,121
169152,note_on,,,,,0,0,1,,,,,0,,,102,121
169280,note_off,,,,,128,0,2,,,,,1,,,39,77
169280,note_off,,,,,0,0,1,,,,,0,,,102,77
169280,note_off,,,,,128,0,1,,,,,0,,,90,77
169280,note_off,,,,,0,0,2,,,,,1,,,49,77
169280,note_off,,,,,0,0,2,,,,,1,,,46,77
169344,note_on,,,,,64,0,1,,,,,0,,,91,121
169344,note_on,,,,,0,0,2,,,,,1,,,49,121
169344,note_on,,,,,64,0,2,,,,,1,,,46,121
169344,note_on,,,,,0,0,1,,,,,0,,,103,121
169344,note_on,,,,,0,0,2,,,,,1,,,39,121
169600,note_off,,,,,256,0,1,,,,,0,,,91,77
169600,note_off,,,,,0,0,2,,,,,1,,,39,77
169600,note_off,,,,,256,0,2,,,,,1,,,46,77
169600,note_off,,,,,0,0,1,,,,,0,,,103,77
169600,note_off,,,,,0,0,2,,,,,1,,,49,77
169920,note_on,,,,,320,0,2,,,,,1,,,38,121
169920,note_on,,,,,0,0,1,,,,,0,,,94,121
169920,note_on,,,,,0,0,1,,,,,0,,,103,121
169920,note_on,,,,,0,0,1,,,,,0,,,98,121
169920,note_on,,,,,320,0,1,,,,,0,,,91,121
169920,note_on,,,,,0,0,2,,,,,1,,,50,121
170048,note_off,,,,,0,0,1,,,,,0,,,103,77
170048,note_off,,,,,0,0,2,,,,,1,,,50,77
170048,note_off,,,,,128,0,2,,,,,1,,,38,77
170048,note_off,,,,,0,0,1,,,,,0,,,94,77
170048,note_off,,,,,128,0,1,,,,,0,,,91,77
170048,note_off,,,,,0,0,1,,,,,0,,,98,77
170112,note_on,,,,,0,0,2,,,,,1,,,67,121
170112,note_on,,,,,64,0,1,,,,,0,,,91,121
170112,note_on,,,,,0,0,2,,,,,1,,,62,121
170112,note_on,,,,,0,0,1,,,,,0,,,79,121
170112,note_on,,,,,0,0,1,,,,,0,,,82,121
170112,note_on,,,,,0,0,1,,,,,0,,,86,121
170112,note_on,,,,,64,0,2,,,,,1,,,58,121
170240,note_off,,,,,128,0,1,,,,,0,,,91,77
170240,note_off,,,,,0,0,2,,,,,1,,,62,77
170240,note_off,,,,,0,0,1,,,,,0,,,82,77
170240,note_off,,,,,0,0,2,,,,,1,,,67,77
170240,note_off,,,,,128,0,2,,,,,1,,,58,77
170240,note_off,,,,,0,0,1,,,,,0,,,79,77
170240,note_off,,,,,0,0,1,,,,,0,,,86,77
170496,note_on,,,,,0,0,1,,,,,0,,,91,121
170496,note_on,,,,,0,0,1,,,,,0,,,88,121
170496,note_on,,,,,0,0,1,,,,,0,,,82,121
170496,note_on,,,,,0,0,2,,,,,1,,,49,121
170496,note_on,,,,,256,0,1,,,,,0,,,79,121
170496,note_on,,,,,256,0,2,,,,,1,,,37,121
170624,note_off,,,,,0,0,1,,,,,0,,,88,77
170624,note_off,,,,,0,0,1,,,,,0,,,91,77
170624,note_off,,,,,128,0,1,,,,,0,,,79,77
170624,note_off,,,,,0,0,2,,,,,1,,,49,77
170624,note_off,,,,,128,0,2,,,,,1,,,37,77
170624,note_off,,,,,0,0,1,,,,,0,,,82,77
170688,note_on,,,,,64,0,1,,,,,0,,,79,121
170688,note_on,,,,,0,0,2,,,,,1,,,64,121
170688,note_on,,,,,0,0,2,,,,,1,,,58,121
170688,note_on,,,,,64,0,2,,,,,1,,,55,121
170688,note_on,,,,,0,0,1,,,,,0,,,91,121
170688,note_on,,,,,0,0,1,,,,,0,,,88,121
170688,note_on,,,,,0,0,1,,,,,0,,,82,121
170816,note_off,,,,,128,0,1,,,,,0,,,79,77
170816,note_off,,,,,0,0,2,,,,,1,,,58,77
170816,note_off,,,,,128,0,2,,,,,1,,,55,77
170816,note_off,,,,,0,0,1,,,,,0,,,91,77
170816,note_off,,,,,0,0,1,,,,,0,,,82,77
170816,note_off,,,,,0,0,1,,,,,0,,,88,77
170816,note_off,,,,,0,0,2,,,,,1,,,64,77
171072,note_on,,,,,0,0,1,,,,,0,,,91,121
171072,note_on,,,,,256,0,2,,,,,1,,,48,121
171072,note_on,,,,,0,0,2,,,,,1,,,36,121
171072,note_on,,,,,256,0,1,,,,,0,,,79,121
171072,note_on,,,,,0,0,1,,,,,0,,,82,121
171072,note_on,,,,,0,0,1,,,,,0,,,88,121
171200,note_off,,,,,128,0,2,,,,,1,,,48,77
171200,note_off,,,,,0,0,1,,,,,0,,,91,77
171200,note_off,,,,,0,0,1,,,,,0,,,88,77
171200,note_off,,,,,128,0,1,,,,,0,,,79,77
171200,note_off,,,,,0,0,1,,,,,0,,,82,77
171200,note_off,,,,,0,0,2,,,,,1,,,36,77
171264,note_on,,,,,64,0,1,,,,,0,,,76,121
171264,note_on,,,,,64,0,2,,,,,1,,,36,121
171264,note_on,,,,,0,0,2,,,,,1,,,58,121
171264,note_on,,,,,0,0,2,,,,,1,,,55,121
171264,note_on,,,,,0,0,1,,,,,0,,,79,121
171264,note_on,,,,,0,0,2,,,,,1,,,48,121
171392,note_off,,,,,128,0,1,,,,,0,,,76,77
171392,note_off,,,,,0,0,2,,,,,1,,,58,77
171392,note_off,,,,,0,0,1,,,,,0,,,79,77
171392,note_off,,,,,0,0,2,,,,,1,,,48,77
171392,note_off,,,,,0,0,2,,,,,1,,,55,77
171392,note_off,,,,,128,0,2,,,,,1,,,36,77
172224,note_on,,,,,0,0,1,,,,,0,,,83,121
172224,note_on,,,,,832,0,1,,,,,0,,,80,121
172224,note_on,,,,,0,0,1,,,,,0,,,92,121
172224,note_on,,,,,0,0,2,,,,,1,,,40,121
172224,note_on,,,,,0,0,2,,,,,1,,,47,121
172224,note_on,,,,,0,0,1,,,,,0,,,86,121
172224,note_on,,,,,0,0,2,,,,,1,,,47,121
172224,note_on,,,,,0,0,2,,,,,1,,,44,121
172224,note_on,,,,,0,0,2,,,,,1,,,52,121
172224,note_on,,,,,832,0,2,,,,,1,,,52,121
172480,note_off,,,,,0,0,2,,,,,1,,,44,77
172480,note_off,,,,,256,0,2,,,,,1,,,52,77
172480,note_off,,,,,0,0,1,,,,,0,,,92,77
172480,note_off,,,,,0,0,2,,,,,1,,,52,77
172480,note_off,,,,,0,0,1,,,,,0,,,86,77
172480,note_off,,,,,0,0,2,,,,,1,,,47,77
172480,note_off,,,,,0,0,2,,,,,1,,,47,77
172480,note_off,,,,,0,0,1,,,,,0,,,83,77
172480,note_off,,,,,0,0,2,,,,,1,,,40,77
172480,note_off,,,,,256,0,1,,,,,0,,,80,77
172800,note_on,,,,,320,0,2,,,,,1,,,33,121
172800,note_on,,,,,0,0,1,,,,,0,,,88,121
172800,note_on,,,,,0,0,1,,,,,0,,,85,121
172800,note_on,,,,,320,0,1,,,,,0,,,81,121
172800,note_on,,,,,0,0,2,,,,,1,,,40,121
172800,note_on,,,,,0,0,2,,,,,1,,,45,121
172800,note_on,,,,,0,0,2,,,,,1,,,37,121
172928,note_off,,,,,128,0,2,,,,,1,,,33,77
172928,note_off,,,,,0,0,1,,,,,0,,,88,77
172928,note_off,,,,,0,0,2,,,,,1,,,45,77
172928,note_off,,,,,0,0,2,,,,,1,,,40,77
172928,note_off,,,,,0,0,2,,,,,1,,,37,77
172928,note_off,,,,,0,0,1,,,,,0,,,85,77
172928,note_off,,,,,128,0,1,,,,,0,,,81,77
172992,note_on,,,,,0,0,2,,,,,1,,,61,121
172992,note_on,,,,,0,0,2,,,,,1,,,57,121
172992,note_on,,,,,64,0,2,,,,,1,,,52,121
172992,note_on,,,,,64,0,1,,,,,0,,,64,121
173120,note_off,,,,,0,0,2,,,,,1,,,57,77
173120,note_off,,,,,128,0,2,,,,,1,,,52,77
173120,note_off,,,,,0,0,2,,,,,1,,,61,77
173120,note_off,,,,,128,0,1,,,,,0,,,64,77
173184,note_on,,,,,64,0,2,,,,,1,,,52,121
173184,note_on,,,,,64,0,1,,,,,0,,,64,121
173184,note_on,,,,,0,0,1,,,,,0,,,69,121
173184,note_on,,,,,0,0,2,,,,,1,,,57,121
173184,note_on,,,,,0,0,2,,,,,1,,,61,121
173312,note_off,,,,,0,0,1,,,,,0,,,69,77
173312,note_off,,,,,128,0,2,,,,,1,,,52,77
173312,note_off,,,,,0,0,2,,,,,1,,,57,77
173312,note_off,,,,,0,0,2,,,,,1,,,61,77
173312,note_off,,,,,128,0,1,,,,,0,,,64,77
173376,note_on,,,,,0,0,2,,,,,1,,,61,121
173376,note_on,,,,,64,0,2,,,,,1,,,52,121
173376,note_on,,,,,64,0,1,,,,,0,,,76,121
173376,note_on,,,,,0,0,1,,,,,0,,,64,121
173376,note_on,,,,,0,0,1,,,,,0,,,69,121
173376,note_on,,,,,0,0,2,,,,,1,,,57,121
173504,note_off,,,,,0,0,2,,,,,1,,,57,77
173504,note_off,,,,,128,0,2,,,,,1,,,52,77
173504,note_off,,,,,0,0,2,,,,,1,,,61,77
173568,note_on,,,,,0,0,2,,,,,1,,,61,121
173568,note_on,,,,,64,0,2,,,,,1,,,52,121
173568,note_on,,,,,0,0,2,,,,,1,,,57,121
173632,note_off,,,,,256,0,1,,,,,0,,,76,77
173696,note_off,,,,,0,0,2,,,,,1,,,57,77
173696,note_off,,,,,128,0,2,,,,,1,,,52,77
173696,note_off,,,,,0,0,2,,,,,1,,,61,77
173760,note_on,,,,,0,0,2,,,,,1,,,61,121
173760,note_on,,,,,0,0,2,,,,,1,,,57,121
173760,note_on,,,,,64,0,2,,,,,1,,,52,121
173760,note_off,,,,,128,0,1,,,,,0,,,69,77
173760,note_on,,,,,0,0,1,,,,,0,,,73,121
173760,note_off,,,,,0,0,1,,,,,0,,,64,77
173888,note_off,,,,,128,0,1,,,,,0,,,73,77
173888,note_off,,,,,128,0,2,,,,,1,,,52,77
173888,note_off,,,,,0,0,2,,,,,1,,,57,77
173888,note_off,,,,,0,0,2,,,,,1,,,61,77
173952,note_on,,,,,0,0,2,,,,,1,,,61,121
173952,note_on,,,,,64,0,2,,,,,1,,,59,121
173952,note_on,,,,,64,0,1,,,,,0,,,64,121
173952,note_on,,,,,0,0,1,,,,,0,,,71,121
174016,note_off,,,,,64,0,1,,,,,0,,,71,77
174048,note_on,,,,,32,0,1,,,,,0,,,73,121
174080,note_off,,,,,32,0,1,,,,,0,,,64,77
174080,note_off,,,,,128,0,2,,,,,1,,,59,77
174080,note_off,,,,,0,0,2,,,,,1,,,61,77
174112,note_off,,,,,32,0,1,,,,,0,,,73,77
174144,note_on,,,,,32,0,1,,,,,0,,,64,121
174144,note_on,,,,,64,0,2,,,,,1,,,59,121
174144,note_on,,,,,0,0,2,,,,,1,,,61,121
174144,note_on,,,,,0,0,1,,,,,0,,,71,121
174272,note_off,,,,,0,0,2,,,,,1,,,61,77
174272,note_off,,,,,128,0,1,,,,,0,,,64,77
174272,note_off,,,,,0,0,1,,,,,0,,,71,77
174272,note_off,,,,,128,0,2,,,,,1,,,59,77
174336,note_on,,,,,64,0,2,,,,,1,,,57,121
174336,note_on,,,,,64,0,1,,,,,0,,,64,121
174336,note_on,,,,,0,0,1,,,,,0,,,69,121
174336,note_on,,,,,0,0,2,,,,,1,,,61,121
174464,note_off,,,,,0,0,1,,,,,0,,,69,77
174464,note_off,,,,,0,0,2,,,,,1,,,61,77
174464,note_off,,,,,128,0,2,,,,,1,,,57,77
174464,note_off,,,,,128,0,1,,,,,0,,,64,77
174528,note_on,,,,,0,0,2,,,,,1,,,56,121
174528,note_on,,,,,0,0,1,,,,,0,,,68,121
174528,note_on,,,,,64,0,2,,,,,1,,,57,121
174528,note_on,,,,,64,0,1,,,,,0,,,61,121
174528,note_on,,,,,0,0,2,,,,,1,,,57,121
174592,note_off,,,,,64,0,1,,,,,0,,,68,77
174624,note_on,,,,,32,0,1,,,,,0,,,69,121
174656,note_off,,,,,32,0,1,,,,,0,,,61,77
174656,note_off,,,,,128,0,2,,,,,1,,,57,77
174656,note_off,,,,,0,0,2,,,,,1,,,57,77
174656,note_off,,,,,0,0,2,,,,,1,,,56,77
174688,note_off,,,,,32,0,1,,,,,0,,,69,77
174720,note_on,,,,,32,0,1,,,,,0,,,61,121
174720,note_on,,,,,0,0,2,,,,,1,,,56,121
174720,note_on,,,,,64,0,2,,,,,1,,,57,121
174720,note_on,,,,,0,0,1,,,,,0,,,68,121
174848,note_off,,,,,128,0,1,,,,,0,,,61,77
174848,note_off,,,,,0,0,1,,,,,0,,,68,77
174848,note_off,,,,,0,0,2,,,,,1,,,56,77
174848,note_off,,,,,128,0,2,,,,,1,,,57,77
174912,note_on,,,,,0,0,1,,,,,0,,,66,121
174912,note_on,,,,,64,0,2,,,,,1,,,57,121
174912,note_on,,,,,0,0,2,,,,,1,,,54,121
174912,note_on,,,,,64,0,1,,,,,0,,,61,121
175040,note_off,,,,,128,0,1,,,,,0,,,61,77
175040,note_off,,,,,0,0,1,,,,,0,,,66,77
175040,note_off,,,,,128,0,2,,,,,1,,,57,77
175040,note_off,,,,,0,0,2,,,,,1,,,54,77
175104,note_on,,,,,64,0,2,,,,,1,,,53,121
175104,note_on,,,,,64,0,1,,,,,0,,,61,121
175104,note_on,,,,,0,0,1,,,,,0,,,61,121
175104,note_on,,,,,0,0,2,,,,,1,,,57,121
175104,note_on,,,,,0,0,1,,,,,0,,,65,121
175232,note_off,,,,,0,0,1,,,,,0,,,65,77
175232,note_off,,,,,128,0,1,,,,,0,,,61,77
175232,note_off,,,,,0,0,2,,,,,1,,,57,77
175232,note_off,,,,,0,0,1,,,,,0,,,61,77
175232,note_off,,,,,128,0,2,,,,,1,,,53,77
175296,note_on,,,,,0,0,2,,,,,1,,,56,121
175296,note_on,,,,,0,0,1,,,,,0,,,68,121
175296,note_on,,,,,64,0,1,,,,,0,,,61,121
175296,note_on,,,,,64,0,2,,,,,1,,,57,121
175424,note_off,,,,,128,0,2,,,,,1,,,57,77
175424,note_off,,,,,0,0,2,,,,,1,,,56,77
175424,note_off,,,,,128,0,1,,,,,0,,,61,77
175424,note_off,,,,,0,0,1,,,,,0,,,68,77
175488,note_on,,,,,0,0,1,,,,,0,,,66,121
175488,note_on,,,,,0,0,2,,,,,1,,,54,121
175488,note_on,,,,,64,0,2,,,,,1,,,57,121
175488,note_on,,,,,64,0,1,,,,,0,,,61,121
175616,note_off,,,,,128,0,2,,,,,1,,,57,77
175616,note_off,,,,,128,0,1,,,,,0,,,61,77
175616,note_off,,,,,0,0,1,,,,,0,,,66,77
175616,note_off,,,,,0,0,2,,,,,1,,,54,77
175680,note_on,,,,,0,0,1,,,,,0,,,63,121
175680,note_on,,,,,0,0,2,,,,,1,,,57,121
175680,note_on,,,,,64,0,1,,,,,0,,,61,121
175680,note_on,,,,,64,0,2,,,,,1,,,51,121
175808,note_off,,,,,0,0,1,,,,,0,,,63,77
175808,note_off,,,,,128,0,2,,,,,1,,,51,77
175808,note_off,,,,,128,0,1,,,,,0,,,61,77
175808,note_off,,,,,0,0,2,,,,,1,,,57,77
175872,note_on,,,,,0,0,1,,,,,0,,,66,121
175872,note_on,,,,,64,0,1,,,,,0,,,61,121
175872,note_on,,,,,64,0,2,,,,,1,,,54,121
175872,note_on,,,,,0,0,2,,,,,1,,,57,121
176000,note_off,,,,,128,0,1,,,,,0,,,61,77
176000,note_off,,,,,0,0,2,,,,,1,,,57,77
176000,note_off,,,,,0,0,1,,,,,0,,,66,77
176000,note_off,,,,,128,0,2,,,,,1,,,54,77
176064,note_on,,,,,64,0,2,,,,,1,,,52,121
176064,note_on,,,,,0,0,1,,,,,0,,,64,121
176064,note_on,,,,,0,0,2,,,,,1,,,57,121
176064,note_on,,,,,64,0,1,,,,,0,,,61,121
176192,note_off,,,,,0,0,2,,,,,1,,,57,77
176192,note_off,,,,,128,0,1,,,,,0,,,61,77
176192,note_off,,,,,0,0,1,,,,,0,,,64,77
176192,note_off,,,,,128,0,2,,,,,1,,,52,77
176256,note_on,,,,,64,0,2,,,,,1,,,37,121
176256,note_on,,,,,0,0,2,,,,,1,,,49,121
176256,note_on,,,,,0,0,2,,,,,1,,,45,121
176256,note_on,,,,,0,0,1,,,,,0,,,61,121
176256,note_on,,,,,64,0,1,,,,,0,,,57,121
176384,note_off,,,,,0,0,2,,,,,1,,,45,77
176384,note_off,,,,,128,0,1,,,,,0,,,57,77
176384,note_off,,,,,0,0,1,,,,,0,,,61,77
176384,note_off,,,,,0,0,2,,,,,1,,,49,77
176384,note_off,,,,,128,0,2,,,,,1,,,37,77
176448,note_on,,,,,0,0,1,,,,,0,,,61,121
176448,note_on,,,,,0,0,1,,,,,0,,,62,121
176448,note_on,,,,,0,0,2,,,,,1,,,45,121
176448,note_on,,,,,64,0,1,,,,,0,,,57,121
176448,note_on,,,,,0,0,2,,,,,1,,,50,121
176448,note_on,,,,,64,0,2,,,,,1,,,38,121
176576,note_off,,,,,0,0,1,,,,,0,,,61,77
176576,note_off,,,,,0,0,1,,,,,0,,,62,77
176576,note_off,,,,,0,0,2,,,,,1,,,50,77
176576,note_off,,,,,0,0,2,,,,,1,,,45,77
176576,note_off,,,,,128,0,2,,,,,1,,,38,77
176576,note_off,,,,,128,0,1,,,,,0,,,57,77
176832,note_on,,,,,0,0,1,,,,,0,,,63,121
176832,note_on,,,,,256,0,1,,,,,0,,,57,121
176832,note_on,,,,,0,0,2,,,,,1,,,45,121
176832,note_on,,,,,0,0,2,,,,,1,,,51,121
176832,note_on,,,,,0,0,1,,,,,0,,,61,121
176832,note_on,,,,,256,0,2,,,,,1,,,39,121
176960,note_off,,,,,0,0,1,,,,,0,,,61,77
176960,note_off,,,,,0,0,1,,,,,0,,,63,77
176960,note_off,,,,,128,0,2,,,,,1,,,39,77
176960,note_off,,,,,0,0,2,,,,,1,,,51,77
176960,note_off,,,,,0,0,2,,,,,1,,,45,77
176960,note_off,,,,,128,0,1,,,,,0,,,57,77
177024,note_on,,,,,64,0,2,,,,,1,,,42,121
177024,note_on,,,,,0,0,1,,,,,0,,,61,121
177024,note_on,,,,,0,0,1,,,,,0,,,66,121
177024,note_on,,,,,64,0,1,,,,,0,,,57,121
177024,note_on,,,,,0,0,2,,,,,1,,,54,121
177024,note_on,,,,,0,0,2,,,,,1,,,45,121
177152,note_off,,,,,128,0,1,,,,,0,,,57,77
177152,note_off,,,,,0,0,1,,,,,0,,,61,77
177152,note_off,,,,,0,0,2,,,,,1,,,54,77
177152,note_off,,,,,0,0,1,,,,,0,,,66,77
177152,note_off,,,,,0,0,2,,,,,1,,,45,77
177152,note_off,,,,,128,0,2,,,,,1,,,42,77
177216,note_on,,,,,0,0,1,,,,,0,,,64,121
177216,note_on,,,,,0,0,1,,,,,0,,,61,121
177216,note_on,,,,,0,0,2,,,,,1,,,52,121
177216,note_on,,,,,0,0,2,,,,,1,,,45,121
177216,note_on,,,,,64,0,1,,,,,0,,,57,121
177216,note_on,,,,,64,0,2,,,,,1,,,40,121
177344,note_off,,,,,0,0,1,,,,,0,,,61,77
177344,note_off,,,,,0,0,2,,,,,1,,,52,77
177344,note_off,,,,,0,0,2,,,,,1,,,45,77
177344,note_off,,,,,128,0,1,,,,,0,,,57,77
177344,note_off,,,,,0,0,1,,,,,0,,,64,77
177344,note_off,,,,,128,0,2,,,,,1,,,40,77
177408,note_on,,,,,64,0,2,,,,,1,,,33,121
177408,note_on,,,,,0,0,2,,,,,1,,,45,121
177536,note_off,,,,,128,0,2,,,,,1,,,33,77
177536,note_off,,,,,0,0,2,,,,,1,,,45,77
177600,note_on,,,,,0,0,2,,,,,1,,,57,121
177600,note_on,,,,,0,0,2,,,,,1,,,61,121
177600,note_on,,,,,256,0,1,,,,,0,,,64,121
177600,note_on,,,,,64,0,2,,,,,1,,,52,121
177728,note_off,,,,,128,0,1,,,,,0,,,64,77
177728,note_off,,,,,0,0,2,,,,,1,,,57,77
177728,note_off,,,,,0,0,2,,,,,1,,,61,77
177728,note_off,,,,,128,0,2,,,,,1,,,52,77
177792,note_on,,,,,64,0,1,,,,,0,,,69,121
177792,note_on,,,,,0,0,2,,,,,1,,,57,121
177792,note_on,,,,,0,0,2,,,,,1,,,61,121
177792,note_on,,,,,64,0,2,,,,,1,,,52,121
177920,note_off,,,,,0,0,2,,,,,1,,,61,77
177920,note_off,,,,,128,0,1,,,,,0,,,69,77
177920,note_off,,,,,0,0,2,,,,,1,,,57,77
177920,note_off,,,,,128,0,2,,,,,1,,,52,77
177984,note_on,,,,,0,0,2,,,,,1,,,61,121
177984,note_on,,,,,64,0,2,,,,,1,,,52,121
177984,note_on,,,,,0,0,1,,,,,0,,,64,121
177984,note_on,,,,,0,0,1,,,,,0,,,69,121
177984,note_on,,,,,0,0,2,,,,,1,,,57,121
177984,note_on,,,,,64,0,1,,,,,0,,,76,121
178112,note_off,,,,,128,0,2,,,,,1,,,52,77
178112,note_off,,,,,0,0,2,,,,,1,,,57,77
178112,note_off,,,,,0,0,2,,,,,1,,,61,77
178176,note_on,,,,,0,0,2,,,,,1,,,61,121
178176,note_on,,,,,0,0,2,,,,,1,,,57,121
178176,note_on,,,,,64,0,2,,,,,1,,,52,121
178240,note_off,,,,,256,0,1,,,,,0,,,76,77
178304,note_off,,,,,0,0,2,,,,,1,,,57,77
178304,note_off,,,,,0,0,2,,,,,1,,,61,77
178304,note_off,,,,,128,0,2,,,,,1,,,52,77
178368,note_on,,,,,64,0,2,,,,,1,,,52,121
178368,note_on,,,,,0,0,2,,,,,1,,,61,121
178368,note_on,,,,,0,0,2,,,,,1,,,57,121
178368,note_off,,,,,0,0,1,,,,,0,,,64,77
178368,note_on,,,,,0,0,1,,,,,0,,,73,121
178368,note_off,,,,,128,0,1,,,,,0,,,69,77
178496,note_off,,,,,128,0,1,,,,,0,,,73,77
178496,note_off,,,,,128,0,2,,,,,1,,,52,77
178496,note_off,,,,,0,0,2,,,,,1,,,57,77
178496,note_off,,,,,0,0,2,,,,,1,,,61,77
178560,note_on,,,,,0,0,2,,,,,1,,,61,121
178560,note_on,,,,,64,0,1,,,,,0,,,64,121
178560,note_on,,,,,0,0,1,,,,,0,,,71,121
178560,note_on,,,,,64,0,2,,,,,1,,,59,121
178624,note_off,,,,,64,0,1,,,,,0,,,71,77
178656,note_on,,,,,32,0,1,,,,,0,,,73,121
178688,note_off,,,,,0,0,2,,,,,1,,,61,77
178688,note_off,,,,,128,0,2,,,,,1,,,59,77
178688,note_off,,,,,32,0,1,,,,,0,,,64,77
178720,note_off,,,,,32,0,1,,,,,0,,,73,77
178752,note_on,,,,,32,0,1,,,,,0,,,64,121
178752,note_on,,,,,0,0,1,,,,,0,,,71,121
178752,note_on,,,,,0,0,2,,,,,1,,,61,121
178752,note_on,,,,,64,0,2,,,,,1,,,59,121
178880,note_off,,,,,0,0,1,,,,,0,,,71,77
178880,note_off,,,,,128,0,2,,,,,1,,,59,77
178880,note_off,,,,,0,0,2,,,,,1,,,61,77
178880,note_off,,,,,128,0,1,,,,,0,,,64,77
178944,note_on,,,,,0,0,1,,,,,0,,,69,121
178944,note_on,,,,,0,0,2,,,,,1,,,61,121
178944,note_on,,,,,64,0,2,,,,,1,,,57,121
178944,note_on,,,,,64,0,1,,,,,0,,,64,121
179072,note_off,,,,,0,0,1,,,,,0,,,69,77
179072,note_off,,,,,128,0,1,,,,,0,,,64,77
179072,note_off,,,,,128,0,2,,,,,1,,,57,77
179072,note_off,,,,,0,0,2,,,,,1,,,61,77
179136,note_on,,,,,0,0,2,,,,,1,,,56,121
179136,note_on,,,,,0,0,1,,,,,0,,,61,121
179136,note_on,,,,,64,0,2,,,,,1,,,57,121
179136,note_on,,,,,64,0,1,,,,,0,,,68,121
179200,note_off,,,,,64,0,1,,,,,0,,,68,77
179232,note_on,,,,,32,0,1,,,,,0,,,69,121
179264,note_off,,,,,32,0,1,,,,,0,,,61,77
179264,note_off,,,,,0,0,2,,,,,1,,,56,77
179264,note_off,,,,,128,0,2,,,,,1,,,57,77
179296,note_off,,,,,32,0,1,,,,,0,,,69,77
179328,note_on,,,,,0,0,1,,,,,0,,,61,121
179328,note_on,,,,,32,0,1,,,,,0,,,68,121
179328,note_on,,,,,64,0,2,,,,,1,,,57,121
179328,note_on,,,,,0,0,2,,,,,1,,,56,121
179456,note_off,,,,,128,0,1,,,,,0,,,68,77
179456,note_off,,,,,0,0,2,,,,,1,,,56,77
179456,note_off,,,,,128,0,2,,,,,1,,,57,77
179456,note_off,,,,,0,0,1,,,,,0,,,61,77
179520,note_on,,,,,0,0,1,,,,,0,,,61,121
179520,note_on,,,,,0,0,2,,,,,1,,,54,121
179520,note_on,,,,,64,0,1,,,,,0,,,66,121
179520,note_on,,,,,64,0,2,,,,,1,,,57,121
179648,note_off,,,,,128,0,1,,,,,0,,,66,77
179648,note_off,,,,,0,0,2,,,,,1,,,54,77
179648,note_off,,,,,0,0,1,,,,,0,,,61,77
179648,note_off,,,,,128,0,2,,,,,1,,,57,77
179712,note_on,,,,,0,0,1,,,,,0,,,65,121
179712,note_on,,,,,64,0,1,,,,,0,,,61,121
179712,note_on,,,,,0,0,2,,,,,1,,,53,121
179712,note_on,,,,,64,0,2,,,,,1,,,57,121
179840,note_off,,,,,0,0,2,,,,,1,,,53,77
179840,note_off,,,,,128,0,1,,,,,0,,,61,77
179840,note_off,,,,,128,0,2,,,,,1,,,57,77
179840,note_off,,,,,0,0,1,,,,,0,,,65,77
179904,note_on,,,,,64,0,2,,,,,1,,,57,121
179904,note_on,,,,,0,0,1,,,,,0,,,68,121
179904,note_on,,,,,0,0,2,,,,,1,,,57,121
179904,note_on,,,,,0,0,2,,,,,1,,,56,121
179904,note_on,,,,,64,0,1,,,,,0,,,61,121
180032,note_off,,,,,0,0,2,,,,,1,,,57,77
180032,note_off,,,,,128,0,2,,,,,1,,,57,77
180032,note_off,,,,,128,0,1,,,,,0,,,61,77
180032,note_off,,,,,0,0,2,,,,,1,,,56,77
180032,note_off,,,,,0,0,1,,,,,0,,,68,77
180096,note_on,,,,,0,0,1,,,,,0,,,66,121
180096,note_on,,,,,64,0,1,,,,,0,,,61,121
180096,note_on,,,,,0,0,2,,,,,1,,,54,121
180096,note_on,,,,,64,0,2,,,,,1,,,57,121
180224,note_off,,,,,0,0,2,,,,,1,,,54,77
180224,note_off,,,,,0,0,1,,,,,0,,,66,77
180224,note_off,,,,,128,0,1,,,,,0,,,61,77
180224,note_off,,,,,128,0,2,,,,,1,,,57,77
180288,note_on,,,,,0,0,2,,,,,1,,,51,121
180288,note_on,,,,,64,0,2,,,,,1,,,57,121
180288,note_on,,,,,0,0,1,,,,,0,,,63,121
180288,note_on,,,,,64,0,1,,,,,0,,,61,121
180416,note_off,,,,,0,0,2,,,,,1,,,51,77
180416,note_off,,,,,0,0,1,,,,,0,,,63,77
180416,note_off,,,,,128,0,1,,,,,0,,,61,77
180416,note_off,,,,,128,0,2,,,,,1,,,57,77
180480,note_on,,,,,0,0,1,,,,,0,,,66,121
180480,note_on,,,,,64,0,1,,,,,0,,,61,121
180480,note_on,,,,,64,0,2,,,,,1,,,57,121
180480,note_on,,,,,0,0,2,,,,,1,,,54,121
180608,note_off,,,,,0,0,2,,,,,1,,,54,77
180608,note_off,,,,,128,0,2,,,,,1,,,57,77
180608,note_off,,,,,128,0,1,,,,,0,,,61,77
180608,note_off,,,,,0,0,1,,,,,0,,,66,77
180672,note_on,,,,,0,0,2,,,,,1,,,52,121
180672,note_on,,,,,64,0,1,,,,,0,,,61,121
180672,note_on,,,,,64,0,2,,,,,1,,,57,121
180672,note_on,,,,,0,0,1,,,,,0,,,64,121
180800,note_off,,,,,128,0,1,,,,,0,,,61,77
180800,note_off,,,,,0,0,1,,,,,0,,,64,77
180800,note_off,,,,,0,0,2,,,,,1,,,52,77
180800,note_off,,,,,128,0,2,,,,,1,,,57,77
181056,note_on,,,,,0,0,1,,,,,0,,,57,121
181056,note_on,,,,,256,0,2,,,,,1,,,49,121
181056,note_on,,,,,0,0,2,,,,,1,,,37,121
181056,note_on,,,,,0,0,2,,,,,1,,,45,121
181056,note_on,,,,,256,0,1,,,,,0,,,61,121
181184,note_off,,,,,0,0,2,,,,,1,,,45,77
181184,note_off,,,,,0,0,1,,,,,0,,,57,77
181184,note_off,,,,,128,0,1,,,,,0,,,61,77
181184,note_off,,,,,128,0,2,,,,,1,,,49,77
181184,note_off,,,,,0,0,2,,,,,1,,,37,77
181248,note_on,,,,,64,0,1,,,,,0,,,57,121
181248,note_on,,,,,64,0,2,,,,,1,,,38,121
181248,note_on,,,,,0,0,2,,,,,1,,,50,121
181248,note_on,,,,,0,0,1,,,,,0,,,62,121
181248,note_on,,,,,0,0,1,,,,,0,,,61,121
181248,note_on,,,,,0,0,2,,,,,1,,,45,121
181376,note_off,,,,,128,0,2,,,,,1,,,38,77
181376,note_off,,,,,0,0,1,,,,,0,,,61,77
181376,note_off,,,,,128,0,1,,,,,0,,,57,77
181376,note_off,,,,,0,0,2,,,,,1,,,50,77
181376,note_off,,,,,0,0,2,,,,,1,,,45,77
181376,note_off,,,,,0,0,1,,,,,0,,,62,77
181440,note_on,,,,,64,0,1,,,,,0,,,63,121
181440,note_on,,,,,64,0,2,,,,,1,,,51,121
181440,note_on,,,,,0,0,2,,,,,1,,,45,121
181440,note_on,,,,,0,0,2,,,,,1,,,39,121
181440,note_on,,,,,0,0,1,,,,,0,,,61,121
181440,note_on,,,,,0,0,1,,,,,0,,,57,121
181568,note_off,,,,,128,0,1,,,,,0,,,63,77
181568,note_off,,,,,0,0,2,,,,,1,,,45,77
181568,note_off,,,,,0,0,2,,,,,1,,,39,77
181568,note_off,,,,,0,0,1,,,,,0,,,57,77
181568,note_off,,,,,0,0,1,,,,,0,,,61,77
181568,note_off,,,,,128,0,2,,,,,1,,,51,77
181632,note_on,,,,,0,0,1,,,,,0,,,61,121
181632,note_on,,,,,0,0,1,,,,,0,,,66,121
181632,note_on,,,,,64,0,1,,,,,0,,,57,121
181632,note_on,,,,,0,0,2,,,,,1,,,45,121
181632,note_on,,,,,0,0,2,,,,,1,,,54,121
181632,note_on,,,,,64,0,2,,,,,1,,,42,121
181760,note_off,,,,,0,0,2,,,,,1,,,54,77
181760,note_off,,,,,128,0,1,,,,,0,,,57,77
181760,note_off,,,,,0,0,1,,,,,0,,,61,77
181760,note_off,,,,,0,0,1,,,,,0,,,66,77
181760,note_off,,,,,128,0,2,,,,,1,,,42,77
181760,note_off,,,,,0,0,2,,,,,1,,,45,77
181824,note_on,,,,,64,0,1,,,,,0,,,57,121
181824,note_on,,,,,64,0,2,,,,,1,,,40,121
181824,note_on,,,,,0,0,1,,,,,0,,,61,121
181824,note_on,,,,,0,0,2,,,,,1,,,52,121
181824,note_on,,,,,0,0,2,,,,,1,,,45,121
181824,note_on,,,,,0,0,1,,,,,0,,,64,121
181952,note_off,,,,,128,0,2,,,,,1,,,40,77
181952,note_off,,,,,128,0,1,,,,,0,,,57,77
181952,note_off,,,,,0,0,1,,,,,0,,,64,77
181952,note_off,,,,,0,0,1,,,,,0,,,61,77
181952,note_off,,,,,0,0,2,,,,,1,,,52,77
181952,note_off,,,,,0,0,2,,,,,1,,,45,77
182016,note_on,,,,,0,0,2,,,,,1,,,45,121
182016,note_on,,,,,64,0,2,,,,,1,,,33,121
182144,note_off,,,,,128,0,2,,,,,1,,,33,77
182144,note_off,,,,,0,0,2,,,,,1,,,45,77
182208,note_on,,,,,64,0,2,,,,,1,,,52,121
182208,note_on,,,,,256,0,1,,,,,0,,,64,121
182208,note_on,,,,,0,0,2,,,,,1,,,57,121
182208,note_on,,,,,0,0,2,,,,,1,,,61,121
182336,note_off,,,,,0,0,2,,,,,1,,,61,77
182336,note_off,,,,,0,0,2,,,,,1,,,57,77
182336,note_off,,,,,128,0,2,,,,,1,,,52,77
182336,note_off,,,,,128,0,1,,,,,0,,,64,77
182400,note_on,,,,,64,0,2,,,,,1,,,52,121
182400,note_on,,,,,0,0,2,,,,,1,,,57,121
182400,note_on,,,,,0,0,2,,,,,1,,,61,121
182400,note_on,,,,,64,0,1,,,,,0,,,69,121
182528,note_off,,,,,128,0,2,,,,,1,,,52,77
182528,note_off,,,,,128,0,1,,,,,0,,,69,77
182528,note_off,,,,,0,0,2,,,,,1,,,57,77
182528,note_off,,,,,0,0,2,,,,,1,,,61,77
182592,note_on,,,,,64,0,2,,,,,1,,,52,121
182592,note_on,,,,,0,0,1,,,,,0,,,69,121
182592,note_on,,,,,0,0,2,,,,,1,,,57,121
182592,note_on,,,,,0,0,2,,,,,1,,,61,121
182592,note_on,,,,,0,0,1,,,,,0,,,64,121
182592,note_on,,,,,64,0,1,,,,,0,,,76,121
182720,note_off,,,,,128,0,2,,,,,1,,,52,77
182720,note_off,,,,,0,0,2,,,,,1,,,57,77
182720,note_off,,,,,0,0,2,,,,,1,,,61,77
182784,note_on,,,,,0,0,2,,,,,1,,,61,121
182784,note_on,,,,,64,0,2,,,,,1,,,52,121
182784,note_on,,,,,0,0,2,,,,,1,,,57,121
182848,note_off,,,,,256,0,1,,,,,0,,,76,77
182912,note_off,,,,,0,0,2,,,,,1,,,61,77
182912,note_off,,,,,0,0,2,,,,,1,,,57,77
182912,note_off,,,,,128,0,2,,,,,1,,,52,77
182976,note_off,,,,,128,0,1,,,,,0,,,69,77
182976,note_on,,,,,0,0,2,,,,,1,,,61,121
182976,note_on,,,,,0,0,1,,,,,0,,,73,121
182976,note_on,,,,,64,0,2,,,,,1,,,52,121
182976,note_off,,,,,0,0,1,,,,,0,,,64,77
182976,note_on,,,,,0,0,2,,,,,1,,,57,121
183104,note_off,,,,,0,0,2,,,,,1,,,57,77
183104,note_off,,,,,0,0,2,,,,,1,,,61,77
183104,note_off,,,,,128,0,1,,,,,0,,,73,77
183104,note_off,,,,,128,0,2,,,,,1,,,52,77
183168,note_on,,,,,64,0,1,,,,,0,,,73,121
183168,note_on,,,,,0,0,2,,,,,1,,,57,121
183168,note_on,,,,,0,0,1,,,,,0,,,73,121
183168,note_on,,,,,0,0,1,,,,,0,,,73,121
183168,note_on,,,,,64,0,2,,,,,1,,,54,121
183168,note_on,,,,,0,0,2,,,,,1,,,64,121
183296,note_off,,,,,0,0,2,,,,,1,,,64,77
183296,note_off,,,,,0,0,2,,,,,1,,,57,77
183296,note_off,,,,,128,0,2,,,,,1,,,54,77
183360,note_on,,,,,64,0,2,,,,,1,,,54,121
183360,note_on,,,,,0,0,2,,,,,1,,,54,121
183360,note_on,,,,,0,0,2,,,,,1,,,57,121
183360,note_on,,,,,0,0,2,,,,,1,,,64,121
183488,note_off,,,,,128,0,2,,,,,1,,,54,77
183488,note_off,,,,,0,0,2,,,,,1,,,57,77
183488,note_off,,,,,0,0,2,,,,,1,,,64,77
183488,note_off,,,,,0,0,2,,,,,1,,,54,77
183552,note_on,,,,,0,0,2,,,,,1,,,64,121
183552,note_on,,,,,0,0,2,,,,,1,,,57,121
183552,note_off,,,,,384,0,1,,,,,0,,,73,77
183552,note_off,,,,,0,0,1,,,,,0,,,73,77
183552,note_off,,,,,0,0,1,,,,,0,,,73,77
183552,note_on,,,,,64,0,2,,,,,1,,,54,121
183680,note_off,,,,,128,0,2,,,,,1,,,54,77
183680,note_off,,,,,0,0,2,,,,,1,,,64,77
183680,note_off,,,,,0,0,2,,,,,1,,,57,77
183744,note_on,,,,,0,0,2,,,,,1,,,57,121
183744,note_on,,,,,0,0,2,,,,,1,,,63,121
183744,note_on,,,,,64,0,2,,,,,1,,,54,121
183744,note_on,,,,,192,0,1,,,,,0,,,72,121
183872,note_off,,,,,0,0,2,,,,,1,,,63,77
183872,note_off,,,,,128,0,2,,,,,1,,,54,77
183872,note_off,,,,,0,0,2,,,,,1,,,57,77
183936,note_on,,,,,64,0,2,,,,,1,,,54,121
183936,note_on,,,,,0,0,2,,,,,1,,,57,121
183936,note_on,,,,,0,0,2,,,,,1,,,63,121
184064,note_off,,,,,0,0,2,,,,,1,,,57,77
184064,note_off,,,,,128,0,2,,,,,1,,,54,77
184064,note_off,,,,,0,0,2,,,,,1,,,63,77
184128,note_off,,,,,384,0,1,,,,,0,,,72,77
184128,note_on,,,,,0,0,2,,,,,1,,,54,121
184128,note_on,,,,,64,0,2,,,,,1,,,54,121
184128,note_on,,,,,0,0,2,,,,,1,,,63,121
184128,note_on,,,,,0,0,2,,,,,1,,,57,121
184128,note_on,,,,,0,0,2,,,,,1,,,54,121
184256,note_off,,,,,0,0,2,,,,,1,,,54,77
184256,note_off,,,,,0,0,2,,,,,1,,,63,77
184256,note_off,,,,,0,0,2,,,,,1,,,57,77
184256,note_off,,,,,128,0,2,,,,,1,,,54,77
184256,note_off,,,,,0,0,2,,,,,1,,,54,77
184320,note_on,,,,,64,0,2,,,,,1,,,33,121
184320,note_on,,,,,0,0,2,,,,,1,,,45,121
184448,note_off,,,,,0,0,2,,,,,1,,,45,77
184448,note_off,,,,,128,0,2,,,,,1,,,33,77
184512,note_on,,,,,64,0,2,,,,,1,,,52,121
184512,note_on,,,,,384,0,1,,,,,0,,,61,121
184512,note_on,,,,,0,0,2,,,,,1,,,57,121
184640,note_off,,,,,128,0,2,,,,,1,,,52,77
184640,note_off,,,,,128,0,1,,,,,0,,,61,77
184640,note_off,,,,,0,0,2,,,,,1,,,57,77
184704,note_on,,,,,64,0,1,,,,,0,,,61,121
184704,note_on,,,,,0,0,1,,,,,0,,,64,121
184704,note_on,,,,,64,0,2,,,,,1,,,52,121
184704,note_on,,,,,0,0,2,,,,,1,,,57,121
184832,note_off,,,,,0,0,2,,,,,1,,,57,77
184832,note_off,,,,,128,0,2,,,,,1,,,52,77
184832,note_off,,,,,128,0,1,,,,,0,,,61,77
184832,note_off,,,,,0,0,1,,,,,0,,,64,77
184896,note_on,,,,,0,0,2,,,,,1,,,61,121
184896,note_on,,,,,64,0,1,,,,,0,,,64,121
184896,note_on,,,,,0,0,2,,,,,1,,,57,121
184896,note_on,,,,,64,0,2,,,,,1,,,52,121
184896,note_on,,,,,0,0,1,,,,,0,,,73,121
185024,note_off,,,,,128,0,2,,,,,1,,,52,77
185024,note_off,,,,,0,0,2,,,,,1,,,57,77
185024,note_off,,,,,0,0,2,,,,,1,,,61,77
185088,note_on,,,,,0,0,2,,,,,1,,,57,121
185088,note_on,,,,,64,0,2,,,,,1,,,52,121
185088,note_on,,,,,0,0,2,,,,,1,,,61,121
185152,note_off,,,,,256,0,1,,,,,0,,,73,77
185216,note_off,,,,,0,0,2,,,,,1,,,61,77
185216,note_off,,,,,0,0,2,,,,,1,,,57,77
185216,note_off,,,,,128,0,2,,,,,1,,,52,77
185280,note_on,,,,,0,0,2,,,,,1,,,57,121
185280,note_on,,,,,0,0,2,,,,,1,,,61,121
185280,note_on,,,,,0,0,1,,,,,0,,,69,121
185280,note_off,,,,,128,0,1,,,,,0,,,64,77
185280,note_on,,,,,64,0,2,,,,,1,,,52,121
185376,note_on,,,,,96,0,1,,,,,0,,,69,121
185408,note_off,,,,,0,0,2,,,,,1,,,57,77
185408,note_off,,,,,128,0,2,,,,,1,,,52,77
185408,note_off,,,,,0,0,2,,,,,1,,,61,77
185408,note_off,,,,,32,0,1,,,,,0,,,69,77
185472,note_on,,,,,0,0,2,,,,,1,,,60,121
185472,note_on,,,,,64,0,1,,,,,0,,,68,121
185472,note_on,,,,,0,0,2,,,,,1,,,54,121
185472,note_on,,,,,64,0,2,,,,,1,,,57,121
185472,note_on,,,,,0,0,1,,,,,0,,,64,121
185504,note_off,,,,,32,0,1,,,,,0,,,69,77
185600,note_off,,,,,0,0,2,,,,,1,,,60,77
185600,note_off,,,,,0,0,2,,,,,1,,,54,77
185600,note_off,,,,,128,0,2,,,,,1,,,57,77
185664,note_on,,,,,0,0,2,,,,,1,,,60,121
185664,note_on,,,,,0,0,2,,,,,1,,,54,121
185664,note_on,,,,,64,0,2,,,,,1,,,57,121
185792,note_off,,,,,128,0,2,,,,,1,,,57,77
185792,note_off,,,,,0,0,2,,,,,1,,,60,77
185792,note_off,,,,,0,0,2,,,,,1,,,54,77
185856,note_on,,,,,0,0,2,,,,,1,,,54,121
185856,note_on,,,,,0,0,2,,,,,1,,,60,121
185856,note_off,,,,,352,0,1,,,,,0,,,68,77
185856,note_on,,,,,64,0,2,,,,,1,,,57,121
185856,note_off,,,,,0,0,1,,,,,0,,,64,77
185984,note_off,,,,,0,0,2,,,,,1,,,60,77
185984,note_off,,,,,128,0,2,,,,,1,,,57,77
185984,note_off,,,,,0,0,2,,,,,1,,,54,77
186048,note_on,,,,,0,0,2,,,,,1,,,54,121
186048,note_on,,,,,0,0,2,,,,,1,,,59,121
186048,note_on,,,,,192,0,1,,,,,0,,,66,121
186048,note_on,,,,,0,0,1,,,,,0,,,63,121
186048,note_on,,,,,64,0,2,,,,,1,,,57,121
186176,note_off,,,,,128,0,2,,,,,1,,,57,77
186176,note_off,,,,,0,0,2,,,,,1,,,59,77
186176,note_off,,,,,0,0,2,,,,,1,,,54,77
186240,note_on,,,,,64,0,2,,,,,1,,,54,121
186240,note_on,,,,,0,0,2,,,,,1,,,59,121
186240,note_on,,,,,0,0,2,,,,,1,,,57,121
186368,note_off,,,,,128,0,2,,,,,1,,,54,77
186368,note_off,,,,,0,0,2,,,,,1,,,57,77
186368,note_off,,,,,0,0,2,,,,,1,,,59,77
186432,note_off,,,,,384,0,1,,,,,0,,,66,77
186432,note_on,,,,,0,0,2,,,,,1,,,57,121
186432,note_on,,,,,0,0,2,,,,,1,,,59,121
186432,note_on,,,,,64,0,2,,,,,1,,,54,121
186432,note_off,,,,,0,0,1,,,,,0,,,63,77
186560,note_off,,,,,0,0,2,,,,,1,,,59,77
186560,note_off,,,,,128,0,2,,,,,1,,,54,77
186560,note_off,,,,,0,0,2,,,,,1,,,57,77
186624,note_on,,,,,64,0,2,,,,,1,,,33,121
186624,note_on,,,,,0,0,2,,,,,1,,,45,121
186752,note_off,,,,,0,0,2,,,,,1,,,45,77
186752,note_off,,,,,128,0,2,,,,,1,,,33,77
186816,note_on,,,,,64,0,2,,,,,1,,,52,121
186816,note_on,,,,,0,0,2,,,,,1,,,61,121
186816,note_on,,,,,0,0,2,,,,,1,,,57,121
186944,note_off,,,,,0,0,2,,,,,1,,,61,77
186944,note_off,,,,,0,0,2,,,,,1,,,57,77
186944,note_off,,,,,128,0,2,,,,,1,,,52,77
187008,note_on,,,,,64,0,2,,,,,1,,,52,121
187008,note_on,,,,,0,0,2,,,,,1,,,61,121
187008,note_on,,,,,0,0,2,,,,,1,,,57,121
187136,note_off,,,,,0,0,2,,,,,1,,,61,77
187136,note_off,,,,,128,0,2,,,,,1,,,52,77
187136,note_off,,,,,0,0,2,,,,,1,,,57,77
187200,note_on,,,,,0,0,2,,,,,1,,,61,121
187200,note_on,,,,,768,0,1,,,,,0,,,64,121
187200,note_on,,,,,64,0,2,,,,,1,,,52,121
187200,note_on,,,,,0,0,2,,,,,1,,,57,121
187328,note_off,,,,,128,0,2,,,,,1,,,52,77
187328,note_off,,,,,0,0,2,,,,,1,,,61,77
187328,note_off,,,,,0,0,2,,,,,1,,,57,77
187392,note_on,,,,,64,0,2,,,,,1,,,52,121
187392,note_on,,,,,0,0,2,,,,,1,,,57,121
187392,note_on,,,,,0,0,2,,,,,1,,,61,121
187456,note_off,,,,,256,0,1,,,,,0,,,64,77
187520,note_off,,,,,0,0,2,,,,,1,,,57,77
187520,note_off,,,,,0,0,2,,,,,1,,,61,77
187520,note_off,,,,,128,0,2,,,,,1,,,52,77
187584,note_on,,,,,64,0,2,,,,,1,,,52,121
187584,note_on,,,,,128,0,1,,,,,0,,,61,121
187584,note_on,,,,,0,0,2,,,,,1,,,57,121
187680,note_on,,,,,96,0,1,,,,,0,,,61,121
187712,note_off,,,,,128,0,2,,,,,1,,,52,77
187712,note_off,,,,,0,0,2,,,,,1,,,57,77
187712,note_off,,,,,32,0,1,,,,,0,,,61,77
187776,note_on,,,,,0,0,2,,,,,1,,,60,121
187776,note_on,,,,,0,0,2,,,,,1,,,57,121
187776,note_on,,,,,64,0,2,,,,,1,,,54,121
187776,note_on,,,,,64,0,1,,,,,0,,,64,121
187808,note_off,,,,,32,0,1,,,,,0,,,61,77
187904,note_off,,,,,128,0,2,,,,,1,,,54,77
187904,note_off,,,,,0,0,2,,,,,1,,,57,77
187904,note_off,,,,,0,0,2,,,,,1,,,60,77
187968,note_on,,,,,0,0,2,,,,,1,,,57,121
187968,note_on,,,,,0,0,2,,,,,1,,,60,121
187968,note_on,,,,,64,0,2,,,,,1,,,54,121
188096,note_off,,,,,128,0,2,,,,,1,,,54,77
188096,note_off,,,,,0,0,2,,,,,1,,,60,77
188096,note_off,,,,,0,0,2,,,,,1,,,57,77
188160,note_on,,,,,64,0,2,,,,,1,,,54,121
188160,note_on,,,,,0,0,2,,,,,1,,,57,121
188160,note_off,,,,,352,0,1,,,,,0,,,64,77
188160,note_on,,,,,0,0,2,,,,,1,,,60,121
188288,note_off,,,,,128,0,2,,,,,1,,,54,77
188288,note_off,,,,,0,0,2,,,,,1,,,57,77
188288,note_off,,,,,0,0,2,,,,,1,,,60,77
188352,note_on,,,,,64,0,2,,,,,1,,,54,121
188352,note_on,,,,,192,0,1,,,,,0,,,63,121
188352,note_on,,,,,0,0,2,,,,,1,,,57,121
188352,note_on,,,,,0,0,2,,,,,1,,,60,121
188480,note_off,,,,,128,0,2,,,,,1,,,54,77
188480,note_off,,,,,0,0,2,,,,,1,,,60,77
188480,note_off,,,,,0,0,2,,,,,1,,,57,77
188544,note_on,,,,,0,0,2,,,,,1,,,57,121
188544,note_on,,,,,0,0,2,,,,,1,,,60,121
188544,note_on,,,,,64,0,2,,,,,1,,,54,121
188672,note_off,,,,,128,0,2,,,,,1,,,54,77
188672,note_off,,,,,0,0,2,,,,,1,,,57,77
188672,note_off,,,,,0,0,2,,,,,1,,,60,77
188736,note_on,,,,,0,0,2,,,,,1,,,60,121
188736,note_on,,,,,64,0,2,,,,,1,,,54,121
188736,note_off,,,,,384,0,1,,,,,0,,,63,77
188736,note_on,,,,,0,0,2,,,,,1,,,57,121
188864,note_off,,,,,0,0,2,,,,,1,,,60,77
188864,note_off,,,,,0,0,2,,,,,1,,,57,77
188864,note_off,,,,,128,0,2,,,,,1,,,54,77
188928,note_on,,,,,64,0,2,,,,,1,,,33,121
188928,note_on,,,,,0,0,2,,,,,1,,,45,121
189056,note_off,,,,,128,0,2,,,,,1,,,33,77
189056,note_off,,,,,0,0,2,,,,,1,,,45,77
189120,note_on,,,,,0,0,2,,,,,1,,,61,121
189120,note_on,,,,,64,0,2,,,,,1,,,52,121
189120,note_on,,,,,0,0,2,,,,,1,,,57,121
189248,note_off,,,,,0,0,2,,,,,1,,,57,77
189248,note_off,,,,,0,0,2,,,,,1,,,61,77
189248,note_off,,,,,128,0,2,,,,,1,,,52,77
189312,note_on,,,,,0,0,2,,,,,1,,,61,121
189312,note_on,,,,,0,0,2,,,,,1,,,57,121
189312,note_on,,,,,64,0,2,,,,,1,,,52,121
189440,note_off,,,,,0,0,2,,,,,1,,,57,77
189440,note_off,,,,,0,0,2,,,,,1,,,61,77
189440,note_off,,,,,128,0,2,,,,,1,,,52,77
189504,note_on,,,,,64,0,2,,,,,1,,,52,121
189504,note_on,,,,,0,0,2,,,,,1,,,57,121
189504,note_on,,,,,0,0,2,,,,,1,,,61,121
189504,note_on,,,,,768,0,1,,,,,0,,,64,121
189632,note_off,,,,,128,0,2,,,,,1,,,52,77
189632,note_off,,,,,0,0,2,,,,,1,,,57,77
189632,note_off,,,,,0,0,2,,,,,1,,,61,77
189696,note_on,,,,,0,0,2,,,,,1,,,61,121
189696,note_on,,,,,64,0,2,,,,,1,,,52,121
189696,note_on,,,,,0,0,2,,,,,1,,,57,121
189760,note_off,,,,,256,0,1,,,,,0,,,64,77
189824,note_off,,,,,0,0,2,,,,,1,,,61,77
189824,note_off,,,,,128,0,2,,,,,1,,,52,77
189824,note_off,,,,,0,0,2,,,,,1,,,57,77
189888,note_on,,,,,128,0,1,,,,,0,,,61,121
189888,note_on,,,,,0,0,2,,,,,1,,,57,121
189888,note_on,,,,,64,0,2,,,,,1,,,52,121
189984,note_on,,,,,96,0,1,,,,,0,,,61,121
190016,note_off,,,,,128,0,2,,,,,1,,,52,77
190016,note_off,,,,,32,0,1,,,,,0,,,61,77
190016,note_off,,,,,0,0,2,,,,,1,,,57,77
190080,note_on,,,,,0,0,2,,,,,1,,,60,121
190080,note_on,,,,,64,0,2,,,,,1,,,54,121
190080,note_on,,,,,64,0,1,,,,,0,,,64,121
190080,note_on,,,,,0,0,2,,,,,1,,,57,121
190112,note_off,,,,,32,0,1,,,,,0,,,61,77
190208,note_off,,,,,0,0,2,,,,,1,,,57,77
190208,note_off,,,,,128,0,2,,,,,1,,,54,77
190208,note_off,,,,,0,0,2,,,,,1,,,60,77
190272,note_on,,,,,0,0,2,,,,,1,,,57,121
190272,note_on,,,,,0,0,2,,,,,1,,,60,121
190272,note_on,,,,,64,0,2,,,,,1,,,54,121
190400,note_off,,,,,0,0,2,,,,,1,,,57,77
190400,note_off,,,,,0,0,2,,,,,1,,,60,77
190400,note_off,,,,,128,0,2,,,,,1,,,54,77
190464,note_on,,,,,64,0,2,,,,,1,,,54,121
190464,note_off,,,,,352,0,1,,,,,0,,,64,77
190464,note_on,,,,,0,0,2,,,,,1,,,57,121
190464,note_on,,,,,0,0,2,,,,,1,,,60,121
190592,note_off,,,,,0,0,2,,,,,1,,,57,77
190592,note_off,,,,,0,0,2,,,,,1,,,60,77
190592,note_off,,,,,128,0,2,,,,,1,,,54,77
190656,note_on,,,,,64,0,2,,,,,1,,,54,121
190656,note_on,,,,,192,0,1,,,,,0,,,63,121
190656,note_on,,,,,0,0,2,,,,,1,,,57,121
190656,note_on,,,,,0,0,2,,,,,1,,,60,121
190784,note_off,,,,,128,0,2,,,,,1,,,54,77
190784,note_off,,,,,0,0,2,,,,,1,,,60,77
190784,note_off,,,,,0,0,2,,,,,1,,,57,77
190848,note_on,,,,,0,0,2,,,,,1,,,60,121
190848,note_on,,,,,0,0,2,,,,,1,,,57,121
190848,note_on,,,,,64,0,2,,,,,1,,,54,121
190976,note_off,,,,,128,0,2,,,,,1,,,54,77
190976,note_off,,,,,0,0,2,,,,,1,,,60,77
190976,note_off,,,,,0,0,2,,,,,1,,,57,77
191040,note_off,,,,,384,0,1,,,,,0,,,63,77
191040,note_on,,,,,64,0,2,,,,,1,,,54,121
191040,note_on,,,,,0,0,2,,,,,1,,,60,121
191040,note_on,,,,,0,0,2,,,,,1,,,57,121
191168,note_off,,,,,0,0,2,,,,,1,,,60,77
191168,note_off,,,,,0,0,2,,,,,1,,,57,77
191168,note_off,,,,,128,0,2,,,,,1,,,54,77
191232,note_on,,,,,0,0,2,,,,,1,,,60,121
191232,note_on,,,,,64,0,2,,,,,1,,,54,121
191232,note_on,,,,,0,0,2,,,,,1,,,57,121
191360,note_off,,,,,0,0,2,,,,,1,,,60,77
191360,note_off,,,,,128,0,2,,,,,1,,,54,77
191360,note_off,,,,,0,0,2,,,,,1,,,57,77
191808,note_on,,,,,768,0,1,,,,,0,,,64,121
192064,note_off,,,,,256,0,1,,,,,0,,,64,77
192192,note_on,,,,,128,0,1,,,,,0,,,63,121
192320,note_off,,,,,128,0,1,,,,,0,,,63,77
192384,note_on,,,,,0,0,2,,,,,1,,,57,121
192384,note_on,,,,,0,0,2,,,,,1,,,60,121
192384,note_on,,,,,1024,0,2,,,,,1,,,54,121
192512,note_off,,,,,0,0,2,,,,,1,,,57,77
192512,note_off,,,,,0,0,2,,,,,1,,,60,77
192512,note_off,,,,,128,0,2,,,,,1,,,54,77
192960,note_on,,,,,640,0,1,,,,,0,,,64,121
193216,note_off,,,,,256,0,1,,,,,0,,,64,77
193344,note_on,,,,,128,0,1,,,,,0,,,63,121
193472,note_off,,,,,128,0,1,,,,,0,,,63,77
193536,note_on,,,,,1024,0,2,,,,,1,,,54,121
193536,note_on,,,,,0,0,2,,,,,1,,,57,121
193536,note_on,,,,,0,0,2,,,,,1,,,60,121
193664,end_of_track,,,,,0,1,2,,,,,,,,,
193664,note_off,,,,,128,0,2,,,,,1,,,54,77
193664,note_off,,,,,0,0,2,,,,,1,,,60,77
193664,note_off,,,,,0,0,2,,,,,1,,,57,77
194112,note_on,,,,,640,0,1,,,,,0,,,64,121
194496,note_off,,,,,384,0,1,,,,,0,,,64,77
194688,note_on,,,,,192,0,1,,,,,0,,,64,121
195072,note_off,,,,,384,0,1,,,,,0,,,64,77
195264,note_on,,,,,192,0,1,,,,,0,,,63,121
195648,note_off,,,,,384,0,1,,,,,0,,,63,77
195840,note_on,,,,,192,0,1,,,,,0,,,62,121
196224,note_off,,,,,384,0,1,,,,,0,,,62,77
196416,note_on,,,,,192,0,1,,,,,0,,,64,121
196800,note_off,,,,,384,0,1,,,,,0,,,64,77
196992,note_on,,,,,192,0,1,,,,,0,,,63,121
197376,note_off,,,,,384,0,1,,,,,0,,,63,77
197568,note_on,,,,,192,0,1,,,,,0,,,64,121
197952,end_of_track,,,,,0,1,1,,,,,,,,,
197952,note_off,,,,,384,0,1,,,,,0,,,64,77
