tick,type,numerator,denominator,clocks_per_click,notated_32nd_notes_per_beat,time,meta,track,key,tempo,port,control,value,channel,program,note,velocity
0,control_change,,,,,0,0,1,,,,0,0,0,,,
0,track_name,,,,,0,1,2,,,,,,,,,
0,track_name,,,,,0,1,1,,,,,,,,,
0,time_signature,4,4,24,8,0,1,0,,,,,,,,,
0,set_tempo,,,,,0,1,0,,504202,,,,,,,
0,program_change,,,,,0,0,1,,,,,,0,0,,
0,track_name,,,,,0,1,3,,,,,,,,,
0,midi_port,,,,,0,1,4,,,0,,,,,,
0,midi_port,,,,,0,1,3,,,0,,,,,,
0,midi_port,,,,,0,1,2,,,0,,,,,,
0,midi_port,,,,,0,1,1,,,0,,,,,,
0,key_signature,,,,,0,1,0,C,,,,,,,,
0,end_of_track,,,,,0,1,4,,,,,,,,,
0,end_of_track,,,,,0,1,3,,,,,,,,,
0,end_of_track,,,,,0,1,2,,,,,,,,,
0,track_name,,,,,0,1,4,,,,,,,,,
0,control_change,,,,,0,0,1,,,,7,125,0,,,
6,set_tempo,,,,,6,1,0,,508475,,,,,,,
10,set_tempo,,,,,4,1,0,,512821,,,,,,,
14,set_tempo,,,,,4,1,0,,517241,,,,,,,
100,note_on,,,,,0,0,1,,,,,,0,,77,48
100,control_change,,,,,100,0,1,,,,67,127,0,,,
101,note_on,,,,,1,0,1,,,,,,0,,80,53
118,control_change,,,,,17,0,1,,,,64,127,0,,,
133,note_on,,,,,15,0,1,,,,,,0,,75,53
153,note_on,,,,,20,0,1,,,,,,0,,80,0
156,note_on,,,,,3,0,1,,,,,,0,,77,0
164,note_on,,,,,8,0,1,,,,,,0,,72,44
170,note_on,,,,,6,0,1,,,,,,0,,75,0
180,note_on,,,,,10,0,1,,,,,,0,,72,0
187,note_on,,,,,7,0,1,,,,,,0,,68,50
211,note_on,,,,,24,0,1,,,,,,0,,75,59
220,note_on,,,,,9,0,1,,,,,,0,,68,0
232,note_on,,,,,12,0,1,,,,,,0,,72,49
248,note_on,,,,,16,0,1,,,,,,0,,72,0
254,note_on,,,,,6,0,1,,,,,,0,,75,0
256,note_on,,,,,2,0,1,,,,,,0,,77,54
258,note_on,,,,,2,0,1,,,,,,0,,80,65
280,note_on,,,,,22,0,1,,,,,,0,,75,47
310,note_on,,,,,30,0,1,,,,,,0,,75,0
311,note_on,,,,,1,0,1,,,,,,0,,77,0
312,note_on,,,,,1,0,1,,,,,,0,,72,47
324,note_on,,,,,12,0,1,,,,,,0,,68,53
328,note_on,,,,,4,0,1,,,,,,0,,72,0
328,note_on,,,,,0,0,1,,,,,,0,,80,0
348,note_on,,,,,20,0,1,,,,,,0,,75,56
360,note_on,,,,,12,0,1,,,,,,0,,68,0
372,note_on,,,,,12,0,1,,,,,,0,,72,45
384,note_on,,,,,12,0,1,,,,,,0,,75,0
387,note_on,,,,,3,0,1,,,,,,0,,80,58
387,note_on,,,,,0,0,1,,,,,,0,,77,55
388,note_on,,,,,1,0,1,,,,,,0,,72,0
409,note_on,,,,,21,0,1,,,,,,0,,75,44
430,note_on,,,,,21,0,1,,,,,,0,,77,0
435,note_on,,,,,5,0,1,,,,,,0,,72,49
436,note_on,,,,,1,0,1,,,,,,0,,75,0
442,note_on,,,,,6,0,1,,,,,,0,,80,0
451,note_on,,,,,9,0,1,,,,,,0,,72,0
452,note_on,,,,,1,0,1,,,,,,0,,68,50
474,note_on,,,,,22,0,1,,,,,,0,,75,51
489,note_on,,,,,15,0,1,,,,,,0,,68,0
508,note_on,,,,,19,0,1,,,,,,0,,72,41
517,note_on,,,,,9,0,1,,,,,,0,,75,0
520,note_on,,,,,3,0,1,,,,,,0,,77,43
524,note_on,,,,,4,0,1,,,,,,0,,80,43
525,note_on,,,,,1,0,1,,,,,,0,,72,0
542,note_on,,,,,17,0,1,,,,,,0,,75,53
553,note_on,,,,,11,0,1,,,,,,0,,80,0
574,note_on,,,,,0,0,1,,,,,,0,,72,46
574,note_on,,,,,21,0,1,,,,,,0,,75,0
584,note_on,,,,,10,0,1,,,,,,0,,77,0
590,note_on,,,,,6,0,1,,,,,,0,,68,49
597,note_on,,,,,7,0,1,,,,,,0,,72,0
614,note_on,,,,,17,0,1,,,,,,0,,75,60
630,note_on,,,,,16,0,1,,,,,,0,,68,0
645,note_on,,,,,15,0,1,,,,,,0,,72,43
667,note_on,,,,,22,0,1,,,,,,0,,75,0
667,note_on,,,,,0,0,1,,,,,,0,,77,49
671,note_on,,,,,4,0,1,,,,,,0,,66,73
672,note_on,,,,,1,0,1,,,,,,0,,80,56
676,note_on,,,,,4,0,1,,,,,,0,,72,0
690,control_change,,,,,14,0,1,,,,64,0,0,,,
699,note_on,,,,,9,0,1,,,,,,0,,75,61
724,note_on,,,,,25,0,1,,,,,,0,,72,50
734,note_on,,,,,10,0,1,,,,,,0,,75,0
740,note_on,,,,,6,0,1,,,,,,0,,77,0
751,note_on,,,,,11,0,1,,,,,,0,,68,61
756,note_on,,,,,5,0,1,,,,,,0,,72,0
760,control_change,,,,,4,0,1,,,,64,127,0,,,
761,note_on,,,,,1,0,1,,,,,,0,,80,0
774,note_on,,,,,13,0,1,,,,,,0,,75,52
792,note_on,,,,,18,0,1,,,,,,0,,68,0
804,note_on,,,,,12,0,1,,,,,,0,,72,40
814,note_on,,,,,10,0,1,,,,,,0,,75,0
816,note_on,,,,,2,0,1,,,,,,0,,77,51
817,note_on,,,,,1,0,1,,,,,,0,,80,57
819,note_on,,,,,2,0,1,,,,,,0,,66,0
824,note_on,,,,,5,0,1,,,,,,0,,65,71
826,note_on,,,,,2,0,1,,,,,,0,,72,0
836,note_on,,,,,10,0,1,,,,,,0,,75,53
864,note_on,,,,,28,0,1,,,,,,0,,72,49
867,note_on,,,,,3,0,1,,,,,,0,,65,0
872,note_on,,,,,5,0,1,,,,,,0,,75,0
884,note_on,,,,,12,0,1,,,,,,0,,68,62
888,note_on,,,,,4,0,1,,,,,,0,,62,78
889,note_on,,,,,1,0,1,,,,,,0,,72,0
901,note_on,,,,,0,0,1,,,,,,0,,77,0
901,note_on,,,,,12,0,1,,,,,,0,,80,0
907,note_on,,,,,6,0,1,,,,,,0,,75,56
926,control_change,,,,,19,0,1,,,,64,0,0,,,
927,note_on,,,,,1,0,1,,,,,,0,,68,0
933,note_on,,,,,6,0,1,,,,,,0,,72,32
951,note_on,,,,,18,0,1,,,,,,0,,75,0
952,note_on,,,,,1,0,1,,,,,,0,,62,0
953,note_on,,,,,1,0,1,,,,,,0,,80,61
954,note_on,,,,,1,0,1,,,,,,0,,77,50
956,note_on,,,,,2,0,1,,,,,,0,,65,74
965,note_on,,,,,9,0,1,,,,,,0,,72,0
977,note_on,,,,,12,0,1,,,,,,0,,75,61
988,control_change,,,,,11,0,1,,,,64,127,0,,,
1001,note_on,,,,,13,0,1,,,,,,0,,72,45
1006,note_on,,,,,5,0,1,,,,,,0,,65,0
1008,note_on,,,,,2,0,1,,,,,,0,,75,0
1013,note_on,,,,,5,0,1,,,,,,0,,63,72
1017,note_on,,,,,4,0,1,,,,,,0,,68,65
1026,note_on,,,,,9,0,1,,,,,,0,,72,0
1038,note_on,,,,,12,0,1,,,,,,0,,80,0
1039,note_on,,,,,1,0,1,,,,,,0,,75,65
1040,note_on,,,,,1,0,1,,,,,,0,,77,0
1058,note_on,,,,,18,0,1,,,,,,0,,68,0
1064,note_on,,,,,6,0,1,,,,,,0,,72,43
1070,note_on,,,,,6,0,1,,,,,,0,,63,0
1072,note_on,,,,,2,0,1,,,,,,0,,61,75
1080,note_on,,,,,8,0,1,,,,,,0,,75,0
1080,note_on,,,,,0,0,1,,,,,,0,,77,64
1081,note_on,,,,,1,0,1,,,,,,0,,80,68
1094,note_on,,,,,13,0,1,,,,,,0,,72,0
1104,note_on,,,,,10,0,1,,,,,,0,,75,56
1126,note_on,,,,,22,0,1,,,,,,0,,72,50
1128,control_change,,,,,2,0,1,,,,64,0,0,,,
1130,note_on,,,,,2,0,1,,,,,,0,,61,0
1131,note_on,,,,,1,0,1,,,,,,0,,59,63
1136,note_on,,,,,5,0,1,,,,,,0,,75,0
1142,note_on,,,,,6,0,1,,,,,,0,,68,62
1150,note_on,,,,,8,0,1,,,,,,0,,72,0
1156,control_change,,,,,6,0,1,,,,64,127,0,,,
1162,note_on,,,,,6,0,1,,,,,,0,,77,0
1164,note_on,,,,,2,0,1,,,,,,0,,80,0
1166,note_on,,,,,2,0,1,,,,,,0,,75,66
1182,control_change,,,,,16,0,1,,,,64,0,0,,,
1183,note_on,,,,,1,0,1,,,,,,0,,68,0
1194,note_on,,,,,11,0,1,,,,,,0,,61,52
1195,note_on,,,,,1,0,1,,,,,,0,,72,18
1197,control_change,,,,,2,0,1,,,,64,127,0,,,
1205,note_on,,,,,0,0,1,,,,,,0,,80,62
1205,note_on,,,,,8,0,1,,,,,,0,,75,0
1209,note_on,,,,,4,0,1,,,,,,0,,77,51
1212,note_on,,,,,3,0,1,,,,,,0,,59,0
1216,control_change,,,,,0,0,1,,,,64,0,0,,,
1216,note_on,,,,,4,0,1,,,,,,0,,72,0
1224,note_on,,,,,8,0,1,,,,,,0,,75,60
1229,control_change,,,,,5,0,1,,,,64,127,0,,,
1247,note_on,,,,,18,0,1,,,,,,0,,72,44
1255,note_on,,,,,8,0,1,,,,,,0,,61,0
1256,control_change,,,,,1,0,1,,,,64,0,0,,,
1258,note_on,,,,,2,0,1,,,,,,0,,75,0
1261,note_on,,,,,3,0,1,,,,,,0,,60,51
1263,note_on,,,,,2,0,1,,,,,,0,,68,60
1268,control_change,,,,,5,0,1,,,,64,127,0,,,
1272,note_on,,,,,4,0,1,,,,,,0,,72,0
1285,note_on,,,,,13,0,1,,,,,,0,,77,0
1288,note_on,,,,,3,0,1,,,,,,0,,80,0
1289,note_on,,,,,1,0,1,,,,,,0,,75,61
1292,control_change,,,,,3,0,1,,,,64,0,0,,,
1307,control_change,,,,,15,0,1,,,,64,127,0,,,
1309,note_on,,,,,2,0,1,,,,,,0,,68,0
1312,note_on,,,,,3,0,1,,,,,,0,,72,45
1323,control_change,,,,,11,0,1,,,,64,0,0,,,
1327,note_on,,,,,0,0,1,,,,,,0,,80,63
1327,note_on,,,,,4,0,1,,,,,,0,,75,0
1330,note_on,,,,,0,0,1,,,,,,0,,58,70
1330,note_on,,,,,3,0,1,,,,,,0,,77,57
1336,note_on,,,,,6,0,1,,,,,,0,,60,0
1336,control_change,,,,,0,0,1,,,,64,127,0,,,
1344,note_on,,,,,8,0,1,,,,,,0,,72,0
1348,note_on,,,,,4,0,1,,,,,,0,,75,52
1359,control_change,,,,,11,0,1,,,,64,0,0,,,
1369,control_change,,,,,10,0,1,,,,64,127,0,,,
1374,note_on,,,,,5,0,1,,,,,,0,,72,50
1386,note_on,,,,,12,0,1,,,,,,0,,75,0
1391,control_change,,,,,5,0,1,,,,64,0,0,,,
1392,note_on,,,,,1,0,1,,,,,,0,,58,0
1394,note_on,,,,,2,0,1,,,,,,0,,68,58
1396,note_on,,,,,2,0,1,,,,,,0,,55,68
1399,control_change,,,,,3,0,1,,,,64,127,0,,,
1400,note_on,,,,,1,0,1,,,,,,0,,72,0
1416,note_on,,,,,16,0,1,,,,,,0,,77,0
1416,note_on,,,,,0,0,1,,,,,,0,,80,0
1420,note_on,,,,,4,0,1,,,,,,0,,75,56
1422,control_change,,,,,2,0,1,,,,64,0,0,,,
1435,control_change,,,,,13,0,1,,,,64,127,0,,,
1440,note_on,,,,,0,0,1,,,,,,0,,72,41
1440,note_on,,,,,5,0,1,,,,,,0,,68,0
1454,control_change,,,,,14,0,1,,,,64,0,0,,,
1458,note_on,,,,,4,0,1,,,,,,0,,75,0
1462,control_change,,,,,4,0,1,,,,64,127,0,,,
1463,note_on,,,,,1,0,1,,,,,,0,,77,53
1464,note_on,,,,,0,0,1,,,,,,0,,80,53
1464,note_on,,,,,1,0,1,,,,,,0,,58,63
1467,note_on,,,,,3,0,1,,,,,,0,,55,0
1477,note_on,,,,,10,0,1,,,,,,0,,72,0
1484,note_on,,,,,7,0,1,,,,,,0,,75,57
1485,control_change,,,,,1,0,1,,,,64,0,0,,,
1491,control_change,,,,,6,0,1,,,,64,127,0,,,
1512,note_on,,,,,21,0,1,,,,,,0,,72,46
1516,control_change,,,,,4,0,1,,,,64,0,0,,,
1522,control_change,,,,,0,0,1,,,,64,127,0,,,
1522,note_on,,,,,6,0,1,,,,,,0,,75,0
1528,note_on,,,,,6,0,1,,,,,,0,,77,0
1529,note_on,,,,,1,0,1,,,,,,0,,56,57
1530,note_on,,,,,1,0,1,,,,,,0,,58,0
1532,note_on,,,,,2,0,1,,,,,,0,,68,57
1539,note_on,,,,,7,0,1,,,,,,0,,72,0
1547,control_change,,,,,8,0,1,,,,64,0,0,,,
1554,control_change,,,,,7,0,1,,,,64,127,0,,,
1555,note_on,,,,,1,0,1,,,,,,0,,80,0
1559,note_on,,,,,4,0,1,,,,,,0,,75,48
1577,note_on,,,,,18,0,1,,,,,,0,,68,0
1579,control_change,,,,,2,0,1,,,,64,0,0,,,
1584,note_on,,,,,5,0,1,,,,,,0,,72,44
1590,control_change,,,,,6,0,1,,,,64,127,0,,,
1599,note_on,,,,,9,0,1,,,,,,0,,56,0
1602,note_on,,,,,3,0,1,,,,,,0,,75,0
1604,note_on,,,,,2,0,1,,,,,,0,,77,52
1606,note_on,,,,,0,0,1,,,,,,0,,80,52
1606,note_on,,,,,2,0,1,,,,,,0,,54,53
1612,control_change,,,,,6,0,1,,,,64,0,0,,,
1614,note_on,,,,,2,0,1,,,,,,0,,72,0
1618,control_change,,,,,4,0,1,,,,64,127,0,,,
1628,note_on,,,,,10,0,1,,,,,,0,,75,42
1654,note_on,,,,,26,0,1,,,,,,0,,72,45
1667,note_on,,,,,13,0,1,,,,,,0,,75,0
1673,control_change,,,,,6,0,1,,,,64,0,0,,,
1675,note_on,,,,,2,0,1,,,,,,0,,54,0
1677,note_on,,,,,2,0,1,,,,,,0,,68,54
1682,note_on,,,,,5,0,1,,,,,,0,,72,0
1688,note_on,,,,,6,0,1,,,,,,0,,53,62
1703,note_on,,,,,15,0,1,,,,,,0,,77,0
1705,note_on,,,,,2,0,1,,,,,,0,,80,0
1707,note_on,,,,,2,0,1,,,,,,0,,75,59
1714,control_change,,,,,7,0,1,,,,64,127,0,,,
1731,note_on,,,,,17,0,1,,,,,,0,,68,0
1733,note_on,,,,,2,0,1,,,,,,0,,73,54
1741,control_change,,,,,8,0,1,,,,64,0,0,,,
1754,note_on,,,,,0,0,1,,,,,,0,,80,57
1754,note_on,,,,,13,0,1,,,,,,0,,77,60
1757,control_change,,,,,3,0,1,,,,64,127,0,,,
1759,note_on,,,,,2,0,1,,,,,,0,,75,0
1761,note_on,,,,,2,0,1,,,,,,0,,73,0
1764,note_on,,,,,3,0,1,,,,,,0,,56,65
1776,control_change,,,,,12,0,1,,,,64,0,0,,,
1778,note_on,,,,,2,0,1,,,,,,0,,75,62
1783,control_change,,,,,5,0,1,,,,64,127,0,,,
1801,note_on,,,,,18,0,1,,,,,,0,,73,62
1808,note_on,,,,,7,0,1,,,,,,0,,53,0
1812,note_on,,,,,0,0,1,,,,,,0,,77,0
1812,note_on,,,,,4,0,1,,,,,,0,,75,0
1819,note_on,,,,,7,0,1,,,,,,0,,68,69
1820,note_on,,,,,1,0,1,,,,,,0,,61,68
1822,note_on,,,,,2,0,1,,,,,,0,,73,0
1832,control_change,,,,,10,0,1,,,,64,0,0,,,
1835,control_change,,,,,0,0,1,,,,64,127,0,,,
1835,note_on,,,,,3,0,1,,,,,,0,,56,0
1837,note_on,,,,,2,0,1,,,,,,0,,80,0
1842,note_on,,,,,5,0,1,,,,,,0,,75,65
1862,control_change,,,,,20,0,1,,,,64,0,0,,,
1866,note_on,,,,,4,0,1,,,,,,0,,73,66
1867,note_on,,,,,1,0,1,,,,,,0,,68,0
1870,control_change,,,,,3,0,1,,,,64,127,0,,,
1881,note_on,,,,,11,0,1,,,,,,0,,80,62
1882,note_on,,,,,1,0,1,,,,,,0,,77,55
1884,note_on,,,,,2,0,1,,,,,,0,,63,71
1885,note_on,,,,,1,0,1,,,,,,0,,75,0
1889,note_on,,,,,4,0,1,,,,,,0,,73,0
1893,note_on,,,,,4,0,1,,,,,,0,,61,0
1895,control_change,,,,,2,0,1,,,,64,0,0,,,
1902,control_change,,,,,7,0,1,,,,64,127,0,,,
1903,note_on,,,,,1,0,1,,,,,,0,,75,62
1922,note_on,,,,,19,0,1,,,,,,0,,73,57
1930,control_change,,,,,8,0,1,,,,64,0,0,,,
1932,note_on,,,,,2,0,1,,,,,,0,,77,0
1932,control_change,,,,,0,0,1,,,,64,127,0,,,
1936,note_on,,,,,4,0,1,,,,,,0,,75,0
1943,note_on,,,,,7,0,1,,,,,,0,,68,69
1944,note_on,,,,,1,0,1,,,,,,0,,73,0
1952,note_on,,,,,8,0,1,,,,,,0,,63,0
1952,note_on,,,,,0,0,1,,,,,,0,,64,75
1962,control_change,,,,,10,0,1,,,,64,0,0,,,
1967,note_on,,,,,5,0,1,,,,,,0,,80,0
1969,note_on,,,,,2,0,1,,,,,,0,,75,56
1991,note_on,,,,,22,0,1,,,,,,0,,68,0
1993,note_on,,,,,2,0,1,,,,,,0,,73,59
2019,control_change,,,,,26,0,1,,,,64,127,0,,,
2020,note_on,,,,,0,0,1,,,,,,0,,80,56
2020,note_on,,,,,1,0,1,,,,,,0,,75,0
2021,note_on,,,,,1,0,1,,,,,,0,,73,0
2021,note_on,,,,,0,0,1,,,,,,0,,77,51
2042,note_on,,,,,21,0,1,,,,,,0,,75,52
2046,control_change,,,,,4,0,1,,,,64,0,0,,,
2062,control_change,,,,,16,0,1,,,,64,127,0,,,
2065,note_on,,,,,3,0,1,,,,,,0,,73,56
2070,note_on,,,,,5,0,1,,,,,,0,,75,0
2071,note_on,,,,,1,0,1,,,,,,0,,77,0
2082,control_change,,,,,11,0,1,,,,64,0,0,,,
2083,note_on,,,,,0,0,1,,,,,,0,,68,53
2083,note_on,,,,,1,0,1,,,,,,0,,73,0
2086,note_on,,,,,3,0,1,,,,,,0,,65,60
2089,note_on,,,,,3,0,1,,,,,,0,,64,0
2101,note_on,,,,,12,0,1,,,,,,0,,80,0
2112,note_on,,,,,11,0,1,,,,,,0,,75,49
2116,control_change,,,,,4,0,1,,,,64,127,0,,,
2119,note_on,,,,,3,0,1,,,,,,0,,73,49
2131,note_on,,,,,12,0,1,,,,,,0,,68,0
2143,control_change,,,,,12,0,1,,,,64,0,0,,,
2149,note_on,,,,,0,0,1,,,,,,0,,80,56
2149,note_on,,,,,6,0,1,,,,,,0,,75,0
2150,note_on,,,,,1,0,1,,,,,,0,,61,62
2152,note_on,,,,,2,0,1,,,,,,0,,65,0
2152,note_on,,,,,0,0,1,,,,,,0,,77,50
2153,note_on,,,,,1,0,1,,,,,,0,,73,0
2155,control_change,,,,,2,0,1,,,,64,127,0,,,
2168,note_on,,,,,13,0,1,,,,,,0,,75,51
2176,control_change,,,,,8,0,1,,,,64,0,0,,,
2184,control_change,,,,,8,0,1,,,,64,127,0,,,
2189,note_on,,,,,5,0,1,,,,,,0,,73,56
2202,note_on,,,,,13,0,1,,,,,,0,,75,0
2204,note_on,,,,,2,0,1,,,,,,0,,77,0
2208,note_on,,,,,4,0,1,,,,,,0,,58,75
2210,note_on,,,,,2,0,1,,,,,,0,,68,66
2214,note_on,,,,,4,0,1,,,,,,0,,73,0
2216,note_on,,,,,2,0,1,,,,,,0,,61,0
2230,note_on,,,,,14,0,1,,,,,,0,,80,0
2234,note_on,,,,,4,0,1,,,,,,0,,75,59
2246,note_on,,,,,12,0,1,,,,,,0,,73,60
2257,control_change,,,,,11,0,1,,,,64,0,0,,,
2258,note_on,,,,,1,0,1,,,,,,0,,68,0
2266,note_on,,,,,8,0,1,,,,,,0,,58,0
2268,control_change,,,,,0,0,1,,,,64,127,0,,,
2268,note_on,,,,,2,0,1,,,,,,0,,56,70
2270,note_on,,,,,2,0,1,,,,,,0,,80,63
2272,note_on,,,,,2,0,1,,,,,,0,,77,54
2273,note_on,,,,,1,0,1,,,,,,0,,75,0
2273,note_on,,,,,0,0,1,,,,,,0,,73,0
2289,note_on,,,,,16,0,1,,,,,,0,,75,63
2291,control_change,,,,,2,0,1,,,,64,0,0,,,
2298,control_change,,,,,7,0,1,,,,64,127,0,,,
2308,note_on,,,,,10,0,1,,,,,,0,,73,57
2320,note_on,,,,,12,0,1,,,,,,0,,77,0
2324,note_on,,,,,4,0,1,,,,,,0,,75,0
2330,note_on,,,,,6,0,1,,,,,,0,,68,65
2332,note_on,,,,,2,0,1,,,,,,0,,73,0
2333,note_on,,,,,1,0,1,,,,,,0,,61,69
2345,control_change,,,,,12,0,1,,,,64,0,0,,,
2347,control_change,,,,,2,0,1,,,,64,127,0,,,
2348,note_on,,,,,1,0,1,,,,,,0,,80,0
2355,note_on,,,,,7,0,1,,,,,,0,,75,61
2373,control_change,,,,,18,0,1,,,,64,0,0,,,
2376,note_on,,,,,3,0,1,,,,,,0,,73,58
2378,note_on,,,,,2,0,1,,,,,,0,,68,0
2380,note_on,,,,,2,0,1,,,,,,0,,56,0
2386,control_change,,,,,6,0,1,,,,64,127,0,,,
2395,note_on,,,,,9,0,1,,,,,,0,,65,70
2397,note_on,,,,,0,0,1,,,,,,0,,77,58
2397,note_on,,,,,2,0,1,,,,,,0,,75,0
2398,note_on,,,,,1,0,1,,,,,,0,,80,53
2401,note_on,,,,,3,0,1,,,,,,0,,73,0
2406,note_on,,,,,5,0,1,,,,,,0,,61,0
2419,note_on,,,,,13,0,1,,,,,,0,,65,0
2421,note_on,,,,,2,0,1,,,,,,0,,75,51
2422,control_change,,,,,1,0,1,,,,64,0,0,,,
2426,control_change,,,,,4,0,1,,,,64,127,0,,,
2444,note_on,,,,,18,0,1,,,,,,0,,77,0
2446,note_on,,,,,2,0,1,,,,,,0,,73,59
2448,note_on,,,,,2,0,1,,,,,,0,,80,0
2457,note_on,,,,,9,0,1,,,,,,0,,75,0
2464,note_on,,,,,7,0,1,,,,,,0,,73,0
2472,note_on,,,,,8,0,1,,,,,,0,,70,78
2478,control_change,,,,,6,0,1,,,,64,0,0,,,
2488,control_change,,,,,10,0,1,,,,64,127,0,,,
2492,note_on,,,,,4,0,1,,,,,,0,,75,44
2509,note_on,,,,,17,0,1,,,,,,0,,73,45
2514,note_on,,,,,5,0,1,,,,,,0,,70,0
2528,note_on,,,,,14,0,1,,,,,,0,,77,48
2532,note_on,,,,,4,0,1,,,,,,0,,80,58
2536,note_on,,,,,4,0,1,,,,,,0,,75,0
2538,note_on,,,,,2,0,1,,,,,,0,,73,0
2560,note_on,,,,,22,0,1,,,,,,0,,75,44
2585,note_on,,,,,25,0,1,,,,,,0,,80,0
2586,note_on,,,,,1,0,1,,,,,,0,,77,0
2586,note_on,,,,,0,0,1,,,,,,0,,73,52
2597,note_on,,,,,11,0,1,,,,,,0,,75,0
2605,note_on,,,,,8,0,1,,,,,,0,,73,0
2611,note_on,,,,,6,0,1,,,,,,0,,68,66
2626,control_change,,,,,15,0,1,,,,64,0,0,,,
2638,note_on,,,,,12,0,1,,,,,,0,,75,50
2656,note_on,,,,,18,0,1,,,,,,0,,73,53
2675,note_on,,,,,19,0,1,,,,,,0,,75,0
2677,note_on,,,,,2,0,1,,,,,,0,,77,49
2678,control_change,,,,,1,0,1,,,,64,127,0,,,
2679,note_on,,,,,1,0,1,,,,,,0,,80,49
2682,note_on,,,,,3,0,1,,,,,,0,,73,0
2696,note_on,,,,,14,0,1,,,,,,0,,68,0
2701,note_on,,,,,5,0,1,,,,,,0,,75,51
2722,note_on,,,,,21,0,1,,,,,,0,,77,0
2727,note_on,,,,,5,0,1,,,,,,0,,80,0
2730,note_on,,,,,3,0,1,,,,,,0,,73,51
2731,note_on,,,,,1,0,1,,,,,,0,,75,0
2753,note_on,,,,,22,0,1,,,,,,0,,73,0
2755,note_on,,,,,2,0,1,,,,,,0,,68,59
2782,note_on,,,,,27,0,1,,,,,,0,,75,53
2801,note_on,,,,,19,0,1,,,,,,0,,68,0
2809,note_on,,,,,8,0,1,,,,,,0,,72,37
2822,note_on,,,,,13,0,1,,,,,,0,,75,0
2825,note_on,,,,,3,0,1,,,,,,0,,77,55
2826,note_on,,,,,0,0,1,,,,,,0,,80,56
2826,note_on,,,,,1,0,1,,,,,,0,,66,70
2830,control_change,,,,,4,0,1,,,,64,0,0,,,
2831,note_on,,,,,1,0,1,,,,,,0,,72,0
2849,note_on,,,,,18,0,1,,,,,,0,,75,47
2864,note_on,,,,,15,0,1,,,,,,0,,80,0
2872,note_on,,,,,8,0,1,,,,,,0,,77,0
2875,note_on,,,,,3,0,1,,,,,,0,,72,42
2876,note_on,,,,,1,0,1,,,,,,0,,75,0
2886,control_change,,,,,10,0,1,,,,64,127,0,,,
2892,note_on,,,,,6,0,1,,,,,,0,,72,0
2893,note_on,,,,,1,0,1,,,,,,0,,68,59
2919,note_on,,,,,26,0,1,,,,,,0,,75,53
2934,note_on,,,,,15,0,1,,,,,,0,,68,0
2944,note_on,,,,,10,0,1,,,,,,0,,72,32
2956,note_on,,,,,12,0,1,,,,,,0,,75,0
2956,note_on,,,,,0,0,1,,,,,,0,,66,0
2961,note_on,,,,,5,0,1,,,,,,0,,80,56
2961,note_on,,,,,0,0,1,,,,,,0,,77,58
2962,note_on,,,,,1,0,1,,,,,,0,,65,76
2967,note_on,,,,,5,0,1,,,,,,0,,72,0
2973,control_change,,,,,6,0,1,,,,64,0,0,,,
2980,note_on,,,,,7,0,1,,,,,,0,,75,51
3000,control_change,,,,,20,0,1,,,,64,127,0,,,
3008,note_on,,,,,8,0,1,,,,,,0,,72,40
3017,note_on,,,,,9,0,1,,,,,,0,,75,0
3022,note_on,,,,,0,0,1,,,,,,0,,62,66
3022,note_on,,,,,5,0,1,,,,,,0,,65,0
3026,note_on,,,,,4,0,1,,,,,,0,,68,61
3031,note_on,,,,,5,0,1,,,,,,0,,72,0
3037,note_on,,,,,6,0,1,,,,,,0,,77,0
3043,note_on,,,,,6,0,1,,,,,,0,,80,0
3054,note_on,,,,,11,0,1,,,,,,0,,75,63
3061,note_on,,,,,7,0,1,,,,,,0,,62,0
3061,control_change,,,,,0,0,1,,,,64,0,0,,,
3067,note_on,,,,,6,0,1,,,,,,0,,68,0
3068,note_on,,,,,1,0,1,,,,,,0,,65,64
3072,note_on,,,,,4,0,1,,,,,,0,,72,43
3078,control_change,,,,,6,0,1,,,,64,127,0,,,
3084,note_on,,,,,0,0,1,,,,,,0,,80,71
3084,note_on,,,,,6,0,1,,,,,,0,,75,0
3084,note_on,,,,,0,0,1,,,,,,0,,63,74
3087,note_on,,,,,3,0,1,,,,,,0,,77,58
3091,note_on,,,,,4,0,1,,,,,,0,,65,0
3097,note_on,,,,,6,0,1,,,,,,0,,72,0
3101,control_change,,,,,4,0,1,,,,64,0,0,,,
3103,note_on,,,,,2,0,1,,,,,,0,,75,54
3116,control_change,,,,,13,0,1,,,,64,127,0,,,
3132,note_on,,,,,16,0,1,,,,,,0,,72,39
3133,control_change,,,,,1,0,1,,,,64,0,0,,,
3134,note_on,,,,,1,0,1,,,,,,0,,63,0
3142,note_on,,,,,8,0,1,,,,,,0,,75,0
3146,note_on,,,,,4,0,1,,,,,,0,,61,60
3147,control_change,,,,,1,0,1,,,,64,127,0,,,
3153,note_on,,,,,6,0,1,,,,,,0,,72,0
3153,note_on,,,,,0,0,1,,,,,,0,,68,63
3168,note_on,,,,,15,0,1,,,,,,0,,77,0
3172,note_on,,,,,4,0,1,,,,,,0,,80,0
3176,control_change,,,,,4,0,1,,,,64,0,0,,,
3179,note_on,,,,,3,0,1,,,,,,0,,75,50
3184,control_change,,,,,5,0,1,,,,64,127,0,,,
3192,note_on,,,,,8,0,1,,,,,,0,,68,0
3197,note_on,,,,,5,0,1,,,,,,0,,72,43
3210,control_change,,,,,0,0,1,,,,64,0,0,,,
3210,note_on,,,,,13,0,1,,,,,,0,,61,0
3211,note_on,,,,,1,0,1,,,,,,0,,60,67
3214,note_on,,,,,3,0,1,,,,,,0,,80,70
3216,note_on,,,,,2,0,1,,,,,,0,,77,60
3217,note_on,,,,,1,0,1,,,,,,0,,75,0
3222,control_change,,,,,5,0,1,,,,64,127,0,,,
3224,note_on,,,,,2,0,1,,,,,,0,,72,0
3241,note_on,,,,,17,0,1,,,,,,0,,75,45
3245,control_change,,,,,4,0,1,,,,64,0,0,,,
3253,control_change,,,,,8,0,1,,,,64,127,0,,,
3259,note_on,,,,,6,0,1,,,,,,0,,60,0
3262,note_on,,,,,3,0,1,,,,,,0,,72,45
3268,note_on,,,,,6,0,1,,,,,,0,,75,0
3271,note_on,,,,,3,0,1,,,,,,0,,59,64
3280,note_on,,,,,9,0,1,,,,,,0,,68,63
3282,note_on,,,,,2,0,1,,,,,,0,,72,0
3295,note_on,,,,,13,0,1,,,,,,0,,77,0
3300,note_on,,,,,5,0,1,,,,,,0,,80,0
3301,control_change,,,,,1,0,1,,,,64,0,0,,,
3310,note_on,,,,,9,0,1,,,,,,0,,61,57
3315,note_on,,,,,5,0,1,,,,,,0,,72,49
3316,note_on,,,,,1,0,1,,,,,,0,,75,33
3320,note_on,,,,,4,0,1,,,,,,0,,59,0
3321,note_on,,,,,1,0,1,,,,,,0,,68,0
3336,control_change,,,,,15,0,1,,,,64,127,0,,,
3341,note_on,,,,,5,0,1,,,,,,0,,77,58
3342,note_on,,,,,1,0,1,,,,,,0,,80,72
3343,note_on,,,,,1,0,1,,,,,,0,,75,0
3349,note_on,,,,,0,0,1,,,,,,0,,61,0
3349,note_on,,,,,6,0,1,,,,,,0,,72,0
3350,note_on,,,,,1,0,1,,,,,,0,,60,76
3357,control_change,,,,,7,0,1,,,,64,0,0,,,
3365,note_on,,,,,8,0,1,,,,,,0,,75,53
3380,control_change,,,,,15,0,1,,,,64,127,0,,,
3388,note_on,,,,,8,0,1,,,,,,0,,72,41
3397,note_on,,,,,9,0,1,,,,,,0,,75,0
3401,control_change,,,,,4,0,1,,,,64,0,0,,,
3405,note_on,,,,,4,0,1,,,,,,0,,68,61
3410,note_on,,,,,5,0,1,,,,,,0,,72,0
3412,note_on,,,,,2,0,1,,,,,,0,,58,67
3415,control_change,,,,,3,0,1,,,,64,127,0,,,
3417,note_on,,,,,2,0,1,,,,,,0,,60,0
3426,note_on,,,,,9,0,1,,,,,,0,,77,0
3428,note_on,,,,,2,0,1,,,,,,0,,80,0
3433,note_on,,,,,5,0,1,,,,,,0,,75,52
3436,control_change,,,,,3,0,1,,,,64,0,0,,,
3449,control_change,,,,,13,0,1,,,,64,127,0,,,
3451,note_on,,,,,2,0,1,,,,,,0,,68,0
3454,note_on,,,,,3,0,1,,,,,,0,,72,43
3469,note_on,,,,,15,0,1,,,,,,0,,75,0
3470,control_change,,,,,1,0,1,,,,64,0,0,,,
3471,note_on,,,,,1,0,1,,,,,,0,,80,67
3472,note_on,,,,,1,0,1,,,,,,0,,56,74
3474,note_on,,,,,0,0,1,,,,,,0,,77,54
3474,note_on,,,,,2,0,1,,,,,,0,,58,0
3481,note_on,,,,,7,0,1,,,,,,0,,72,0
3482,control_change,,,,,1,0,1,,,,64,127,0,,,
3494,note_on,,,,,12,0,1,,,,,,0,,75,59
3506,control_change,,,,,12,0,1,,,,64,0,0,,,
3518,note_on,,,,,12,0,1,,,,,,0,,72,44
3520,control_change,,,,,2,0,1,,,,64,127,0,,,
3523,note_on,,,,,3,0,1,,,,,,0,,56,0
3527,note_on,,,,,4,0,1,,,,,,0,,75,0
3536,note_on,,,,,9,0,1,,,,,,0,,68,60
3536,note_on,,,,,0,0,1,,,,,,0,,55,60
3540,control_change,,,,,4,0,1,,,,64,0,0,,,
3541,note_on,,,,,1,0,1,,,,,,0,,72,0
3548,control_change,,,,,7,0,1,,,,64,127,0,,,
3559,note_on,,,,,11,0,1,,,,,,0,,77,0
3559,note_on,,,,,0,0,1,,,,,,0,,80,0
3569,control_change,,,,,10,0,1,,,,64,0,0,,,
3570,note_on,,,,,1,0,1,,,,,,0,,75,42
3576,note_on,,,,,6,0,1,,,,,,0,,72,51
3578,note_on,,,,,2,0,1,,,,,,0,,58,61
3580,note_on,,,,,2,0,1,,,,,,0,,55,0
3584,control_change,,,,,4,0,1,,,,64,127,0,,,
3585,note_on,,,,,1,0,1,,,,,,0,,68,0
3603,note_on,,,,,18,0,1,,,,,,0,,75,0
3603,note_on,,,,,0,0,1,,,,,,0,,80,68
3605,note_on,,,,,2,0,1,,,,,,0,,77,55
3614,note_on,,,,,9,0,1,,,,,,0,,72,0
3616,note_on,,,,,2,0,1,,,,,,0,,56,71
3622,control_change,,,,,6,0,1,,,,64,0,0,,,
3625,note_on,,,,,3,0,1,,,,,,0,,58,0
3628,note_on,,,,,3,0,1,,,,,,0,,75,48
3634,control_change,,,,,6,0,1,,,,64,127,0,,,
3654,control_change,,,,,20,0,1,,,,64,0,0,,,
3658,note_on,,,,,4,0,1,,,,,,0,,72,43
3663,note_on,,,,,5,0,1,,,,,,0,,75,0
3666,control_change,,,,,3,0,1,,,,64,127,0,,,
3673,note_on,,,,,7,0,1,,,,,,0,,56,0
3673,note_on,,,,,0,0,1,,,,,,0,,55,63
3676,note_on,,,,,3,0,1,,,,,,0,,68,60
3681,note_on,,,,,5,0,1,,,,,,0,,72,0
3686,control_change,,,,,5,0,1,,,,64,0,0,,,
3698,control_change,,,,,12,0,1,,,,64,127,0,,,
3700,note_on,,,,,2,0,1,,,,,,0,,77,0
3702,note_on,,,,,2,0,1,,,,,,0,,80,0
3703,note_on,,,,,1,0,1,,,,,,0,,75,56
3718,control_change,,,,,15,0,1,,,,64,0,0,,,
3726,note_on,,,,,8,0,1,,,,,,0,,68,0
3732,note_on,,,,,6,0,1,,,,,,0,,72,42
3740,control_change,,,,,8,0,1,,,,64,127,0,,,
3741,note_on,,,,,1,0,1,,,,,,0,,55,0
3744,note_on,,,,,3,0,1,,,,,,0,,75,0
3746,note_on,,,,,0,0,1,,,,,,0,,54,66
3746,note_on,,,,,2,0,1,,,,,,0,,77,55
3748,note_on,,,,,2,0,1,,,,,,0,,80,56
3760,note_on,,,,,12,0,1,,,,,,0,,72,0
3764,control_change,,,,,4,0,1,,,,64,0,0,,,
3775,note_on,,,,,11,0,1,,,,,,0,,75,53
3778,control_change,,,,,3,0,1,,,,64,127,0,,,
3800,control_change,,,,,22,0,1,,,,64,0,0,,,
3804,note_on,,,,,4,0,1,,,,,,0,,72,40
3814,note_on,,,,,10,0,1,,,,,,0,,75,0
3815,control_change,,,,,1,0,1,,,,64,127,0,,,
3822,note_on,,,,,7,0,1,,,,,,0,,54,0
3826,note_on,,,,,4,0,1,,,,,,0,,68,54
3827,note_on,,,,,1,0,1,,,,,,0,,72,0
3828,note_on,,,,,1,0,1,,,,,,0,,53,73
3848,note_on,,,,,20,0,1,,,,,,0,,77,0
3852,note_on,,,,,4,0,1,,,,,,0,,80,0
3855,note_on,,,,,3,0,1,,,,,,0,,75,59
3856,control_change,,,,,1,0,1,,,,64,0,0,,,
3878,note_on,,,,,22,0,1,,,,,,0,,68,0
3881,note_on,,,,,3,0,1,,,,,,0,,73,56
3896,control_change,,,,,15,0,1,,,,64,127,0,,,
3897,note_on,,,,,1,0,1,,,,,,0,,80,63
3900,note_on,,,,,3,0,1,,,,,,0,,77,58
3903,note_on,,,,,3,0,1,,,,,,0,,75,0
3904,note_on,,,,,1,0,1,,,,,,0,,56,68
3905,note_on,,,,,1,0,1,,,,,,0,,73,0
3921,note_on,,,,,16,0,1,,,,,,0,,75,60
3939,control_change,,,,,18,0,1,,,,64,0,0,,,
3950,note_on,,,,,11,0,1,,,,,,0,,73,66
3951,control_change,,,,,1,0,1,,,,64,127,0,,,
3959,note_on,,,,,8,0,1,,,,,,0,,53,0
3963,note_on,,,,,4,0,1,,,,,,0,,75,0
3964,note_on,,,,,1,0,1,,,,,,0,,77,0
3968,note_on,,,,,4,0,1,,,,,,0,,61,68
3970,note_on,,,,,2,0,1,,,,,,0,,68,70
3972,note_on,,,,,2,0,1,,,,,,0,,73,0
3979,note_on,,,,,7,0,1,,,,,,0,,56,0
3986,control_change,,,,,7,0,1,,,,64,0,0,,,
3989,control_change,,,,,3,0,1,,,,64,127,0,,,
3990,note_on,,,,,1,0,1,,,,,,0,,80,0
3993,note_on,,,,,3,0,1,,,,,,0,,75,68
4012,note_on,,,,,19,0,1,,,,,,0,,68,0
4013,note_on,,,,,1,0,1,,,,,,0,,73,62
4021,control_change,,,,,8,0,1,,,,64,0,0,,,
4026,control_change,,,,,5,0,1,,,,64,127,0,,,
4028,note_on,,,,,2,0,1,,,,,,0,,63,75
4032,note_on,,,,,4,0,1,,,,,,0,,80,69
4034,note_on,,,,,2,0,1,,,,,,0,,77,58
4035,note_on,,,,,1,0,1,,,,,,0,,61,0
4037,note_on,,,,,2,0,1,,,,,,0,,75,0
4040,note_on,,,,,3,0,1,,,,,,0,,73,0
4052,control_change,,,,,12,0,1,,,,64,0,0,,,
4056,note_on,,,,,4,0,1,,,,,,0,,75,57
4058,control_change,,,,,2,0,1,,,,64,127,0,,,
4073,note_on,,,,,15,0,1,,,,,,0,,73,52
4085,note_on,,,,,12,0,1,,,,,,0,,75,0
4086,control_change,,,,,1,0,1,,,,64,0,0,,,
4088,note_on,,,,,2,0,1,,,,,,0,,77,0
4089,control_change,,,,,1,0,1,,,,64,127,0,,,
4092,note_on,,,,,3,0,1,,,,,,0,,63,0
4094,note_on,,,,,2,0,1,,,,,,0,,68,67
4095,note_on,,,,,1,0,1,,,,,,0,,73,0
4096,note_on,,,,,1,0,1,,,,,,0,,64,83
4115,control_change,,,,,0,0,1,,,,64,0,0,,,
4115,note_on,,,,,19,0,1,,,,,,0,,80,0
4123,note_on,,,,,8,0,1,,,,,,0,,75,52
4130,note_on,,,,,7,0,1,,,,,,0,,73,50
4139,note_on,,,,,9,0,1,,,,,,0,,68,0
4162,note_on,,,,,0,0,1,,,,,,0,,80,59
4162,note_on,,,,,23,0,1,,,,,,0,,77,54
4163,note_on,,,,,1,0,1,,,,,,0,,73,0
4165,note_on,,,,,2,0,1,,,,,,0,,75,0
4169,control_change,,,,,4,0,1,,,,64,127,0,,,
4185,note_on,,,,,16,0,1,,,,,,0,,75,53
4196,control_change,,,,,11,0,1,,,,64,0,0,,,
4207,note_on,,,,,11,0,1,,,,,,0,,73,51
4211,note_on,,,,,4,0,1,,,,,,0,,77,0
4217,note_on,,,,,6,0,1,,,,,,0,,75,0
4218,control_change,,,,,1,0,1,,,,64,127,0,,,
4225,note_on,,,,,0,0,1,,,,,,0,,68,53
4225,note_on,,,,,7,0,1,,,,,,0,,73,0
4226,note_on,,,,,1,0,1,,,,,,0,,65,68
4232,note_on,,,,,6,0,1,,,,,,0,,64,0
4244,control_change,,,,,12,0,1,,,,64,0,0,,,
4248,note_on,,,,,4,0,1,,,,,,0,,80,0
4260,note_on,,,,,12,0,1,,,,,,0,,73,53
4262,note_on,,,,,2,0,1,,,,,,0,,75,48
4265,note_on,,,,,3,0,1,,,,,,0,,65,0
4268,control_change,,,,,3,0,1,,,,64,127,0,,,
4277,note_on,,,,,9,0,1,,,,,,0,,68,0
4292,note_on,,,,,15,0,1,,,,,,0,,80,63
4293,note_on,,,,,1,0,1,,,,,,0,,77,55
4294,note_on,,,,,1,0,1,,,,,,0,,75,0
4294,note_on,,,,,0,0,1,,,,,,0,,61,71
4296,note_on,,,,,2,0,1,,,,,,0,,73,0
4297,control_change,,,,,1,0,1,,,,64,0,0,,,
4302,control_change,,,,,5,0,1,,,,64,127,0,,,
4316,note_on,,,,,14,0,1,,,,,,0,,75,56
4337,note_on,,,,,21,0,1,,,,,,0,,73,59
4342,note_on,,,,,5,0,1,,,,,,0,,77,0
4350,note_on,,,,,8,0,1,,,,,,0,,75,0
4355,note_on,,,,,0,0,1,,,,,,0,,68,69
4355,note_on,,,,,5,0,1,,,,,,0,,59,74
4357,note_on,,,,,0,0,1,,,,,,0,,73,0
4357,note_on,,,,,2,0,1,,,,,,0,,61,0
4379,note_on,,,,,22,0,1,,,,,,0,,80,0
4381,note_on,,,,,2,0,1,,,,,,0,,75,57
4398,note_on,,,,,17,0,1,,,,,,0,,73,53
4405,note_on,,,,,7,0,1,,,,,,0,,68,0
4408,control_change,,,,,3,0,1,,,,64,0,0,,,
4417,note_on,,,,,9,0,1,,,,,,0,,80,76
4418,note_on,,,,,1,0,1,,,,,,0,,59,0
4420,note_on,,,,,2,0,1,,,,,,0,,57,73
4422,note_on,,,,,2,0,1,,,,,,0,,77,59
4425,note_on,,,,,3,0,1,,,,,,0,,73,0
4425,control_change,,,,,0,0,1,,,,64,127,0,,,
4426,note_on,,,,,1,0,1,,,,,,0,,75,0
4443,note_on,,,,,17,0,1,,,,,,0,,75,60
4447,control_change,,,,,4,0,1,,,,64,0,0,,,
4458,control_change,,,,,11,0,1,,,,64,127,0,,,
4464,note_on,,,,,0,0,1,,,,,,0,,73,70
4464,note_on,,,,,6,0,1,,,,,,0,,77,0
4477,note_on,,,,,13,0,1,,,,,,0,,75,0
4477,note_on,,,,,0,0,1,,,,,,0,,61,75
4478,note_on,,,,,1,0,1,,,,,,0,,80,0
4485,note_on,,,,,7,0,1,,,,,,0,,69,64
4486,control_change,,,,,1,0,1,,,,64,0,0,,,
4487,note_on,,,,,1,0,1,,,,,,0,,73,0
4492,control_change,,,,,5,0,1,,,,64,127,0,,,
4496,note_on,,,,,4,0,1,,,,,,0,,57,0
4509,note_on,,,,,13,0,1,,,,,,0,,73,47
4521,note_on,,,,,12,0,1,,,,,,0,,69,0
4524,control_change,,,,,3,0,1,,,,64,0,0,,,
4525,note_on,,,,,1,0,1,,,,,,0,,75,54
4532,control_change,,,,,7,0,1,,,,64,127,0,,,
4540,note_on,,,,,8,0,1,,,,,,0,,73,0
4542,note_on,,,,,2,0,1,,,,,,0,,66,77
4545,note_on,,,,,3,0,1,,,,,,0,,81,70
4548,note_on,,,,,3,0,1,,,,,,0,,78,50
4550,note_on,,,,,2,0,1,,,,,,0,,61,0
4551,note_on,,,,,1,0,1,,,,,,0,,75,0
4561,control_change,,,,,10,0,1,,,,64,0,0,,,
4568,note_on,,,,,7,0,1,,,,,,0,,75,63
4576,control_change,,,,,8,0,1,,,,64,127,0,,,
4585,note_on,,,,,9,0,1,,,,,,0,,81,0
4592,note_on,,,,,7,0,1,,,,,,0,,73,62
4599,note_on,,,,,7,0,1,,,,,,0,,78,0
4600,control_change,,,,,1,0,1,,,,64,0,0,,,
4604,note_on,,,,,4,0,1,,,,,,0,,75,0
4609,note_on,,,,,5,0,1,,,,,,0,,73,0
4616,control_change,,,,,7,0,1,,,,64,127,0,,,
4619,note_on,,,,,3,0,1,,,,,,0,,66,0
4624,note_on,,,,,5,0,1,,,,,,0,,68,83
4636,control_change,,,,,12,0,1,,,,64,0,0,,,
4640,note_on,,,,,4,0,1,,,,,,0,,75,53
4652,note_on,,,,,12,0,1,,,,,,0,,73,49
4654,control_change,,,,,2,0,1,,,,64,127,0,,,
4671,control_change,,,,,17,0,1,,,,64,0,0,,,
4678,note_on,,,,,7,0,1,,,,,,0,,73,0
4682,note_on,,,,,4,0,1,,,,,,0,,75,0
4682,note_on,,,,,0,0,1,,,,,,0,,78,45
4682,note_on,,,,,0,0,1,,,,,,0,,81,53
4689,control_change,,,,,7,0,1,,,,64,127,0,,,
4706,note_on,,,,,17,0,1,,,,,,0,,75,51
4708,note_on,,,,,2,0,1,,,,,,0,,81,0
4710,control_change,,,,,2,0,1,,,,64,0,0,,,
4718,control_change,,,,,8,0,1,,,,64,127,0,,,
4725,note_on,,,,,7,0,1,,,,,,0,,78,0
4729,note_on,,,,,4,0,1,,,,,,0,,73,42
4738,note_on,,,,,9,0,1,,,,,,0,,73,0
4739,control_change,,,,,0,0,1,,,,64,0,0,,,
4739,note_on,,,,,1,0,1,,,,,,0,,75,0
4750,note_on,,,,,11,0,1,,,,,,0,,69,66
4752,control_change,,,,,2,0,1,,,,64,127,0,,,
4756,note_on,,,,,4,0,1,,,,,,0,,68,0
4782,note_on,,,,,26,0,1,,,,,,0,,75,42
4788,control_change,,,,,6,0,1,,,,64,0,0,,,
4791,control_change,,,,,3,0,1,,,,64,127,0,,,
4796,note_on,,,,,5,0,1,,,,,,0,,73,50
4811,note_on,,,,,15,0,1,,,,,,0,,66,58
4812,note_on,,,,,1,0,1,,,,,,0,,69,0
4818,note_on,,,,,6,0,1,,,,,,0,,81,62
4820,note_on,,,,,0,0,1,,,,,,0,,78,47
4820,note_on,,,,,2,0,1,,,,,,0,,75,0
4822,note_on,,,,,2,0,1,,,,,,0,,73,0
4824,control_change,,,,,2,0,1,,,,64,0,0,,,
4834,control_change,,,,,10,0,1,,,,64,127,0,,,
4844,note_on,,,,,10,0,1,,,,,,0,,75,62
4854,note_on,,,,,10,0,1,,,,,,0,,66,0
4862,control_change,,,,,8,0,1,,,,64,0,0,,,
4864,note_on,,,,,2,0,1,,,,,,0,,63,62
4867,note_on,,,,,3,0,1,,,,,,0,,73,68
4869,note_on,,,,,2,0,1,,,,,,0,,81,0
4873,control_change,,,,,4,0,1,,,,64,127,0,,,
4876,note_on,,,,,3,0,1,,,,,,0,,78,0
4886,note_on,,,,,10,0,1,,,,,,0,,75,0
4889,note_on,,,,,3,0,1,,,,,,0,,61,74
4891,note_on,,,,,2,0,1,,,,,,0,,69,70
4892,note_on,,,,,1,0,1,,,,,,0,,73,0
4903,note_on,,,,,11,0,1,,,,,,0,,63,0
4920,note_on,,,,,17,0,1,,,,,,0,,73,67
4932,note_on,,,,,12,0,1,,,,,,0,,69,0
4936,control_change,,,,,4,0,1,,,,64,0,0,,,
4942,note_on,,,,,6,0,1,,,,,,0,,75,66
4945,control_change,,,,,3,0,1,,,,64,127,0,,,
4954,note_on,,,,,0,0,1,,,,,,0,,81,71
4954,note_on,,,,,9,0,1,,,,,,0,,73,0
4956,note_on,,,,,2,0,1,,,,,,0,,59,71
4961,note_on,,,,,5,0,1,,,,,,0,,75,0
4961,note_on,,,,,0,0,1,,,,,,0,,61,0
4962,note_on,,,,,1,0,1,,,,,,0,,78,52
4968,control_change,,,,,6,0,1,,,,64,0,0,,,
4979,note_on,,,,,11,0,1,,,,,,0,,75,68
4980,control_change,,,,,1,0,1,,,,64,127,0,,,
4998,note_on,,,,,18,0,1,,,,,,0,,81,0
4999,note_on,,,,,1,0,1,,,,,,0,,73,74
5006,note_on,,,,,7,0,1,,,,,,0,,78,0
5012,note_on,,,,,6,0,1,,,,,,0,,75,0
5014,control_change,,,,,2,0,1,,,,64,0,0,,,
5017,note_on,,,,,3,0,1,,,,,,0,,64,68
5020,note_on,,,,,3,0,1,,,,,,0,,73,0
5022,control_change,,,,,2,0,1,,,,64,127,0,,,
5025,note_on,,,,,3,0,1,,,,,,0,,71,65
5029,note_on,,,,,4,0,1,,,,,,0,,59,0
5048,note_on,,,,,19,0,1,,,,,,0,,78,63
5058,note_on,,,,,10,0,1,,,,,,0,,71,0
5062,note_on,,,,,4,0,1,,,,,,0,,76,49
5079,note_on,,,,,17,0,1,,,,,,0,,76,0
5082,note_on,,,,,3,0,1,,,,,,0,,83,69
5083,note_on,,,,,1,0,1,,,,,,0,,68,74
5084,note_on,,,,,1,0,1,,,,,,0,,80,45
5087,note_on,,,,,0,0,1,,,,,,0,,64,0
5087,note_on,,,,,3,0,1,,,,,,0,,78,0
5087,control_change,,,,,0,0,1,,,,64,0,0,,,
5099,control_change,,,,,12,0,1,,,,64,127,0,,,
5102,note_on,,,,,3,0,1,,,,,,0,,78,63
5118,note_on,,,,,16,0,1,,,,,,0,,83,0
5125,control_change,,,,,7,0,1,,,,64,0,0,,,
5126,note_on,,,,,1,0,1,,,,,,0,,76,58
5128,note_on,,,,,2,0,1,,,,,,0,,80,0
5134,note_on,,,,,6,0,1,,,,,,0,,78,0
5140,control_change,,,,,6,0,1,,,,64,127,0,,,
5146,note_on,,,,,6,0,1,,,,,,0,,76,0
5157,note_on,,,,,11,0,1,,,,,,0,,70,81
5166,control_change,,,,,9,0,1,,,,64,0,0,,,
5168,note_on,,,,,2,0,1,,,,,,0,,68,0
5178,note_on,,,,,10,0,1,,,,,,0,,78,60
5200,note_on,,,,,22,0,1,,,,,,0,,76,49
5215,note_on,,,,,15,0,1,,,,,,0,,83,58
5218,note_on,,,,,3,0,1,,,,,,0,,80,66
5220,note_on,,,,,0,0,1,,,,,,0,,78,0
5220,note_on,,,,,2,0,1,,,,,,0,,76,0
5221,control_change,,,,,1,0,1,,,,64,127,0,,,
5236,note_on,,,,,15,0,1,,,,,,0,,78,41
5248,note_on,,,,,12,0,1,,,,,,0,,83,0
5260,note_on,,,,,12,0,1,,,,,,0,,80,0
5260,note_on,,,,,0,0,1,,,,,,0,,76,38
5276,note_on,,,,,16,0,1,,,,,,0,,78,0
5282,note_on,,,,,6,0,1,,,,,,0,,76,0
5290,note_on,,,,,8,0,1,,,,,,0,,70,0
5292,note_on,,,,,2,0,1,,,,,,0,,71,74
5303,control_change,,,,,11,0,1,,,,64,0,0,,,
5314,control_change,,,,,11,0,1,,,,64,127,0,,,
5320,note_on,,,,,6,0,1,,,,,,0,,78,52
5327,note_on,,,,,7,0,1,,,,,,0,,71,0
5332,note_on,,,,,5,0,1,,,,,,0,,76,54
5341,control_change,,,,,9,0,1,,,,64,0,0,,,
5355,note_on,,,,,14,0,1,,,,,,0,,83,57
5356,note_on,,,,,1,0,1,,,,,,0,,68,68
5357,note_on,,,,,0,0,1,,,,,,0,,80,52
5357,note_on,,,,,1,0,1,,,,,,0,,78,0
5358,control_change,,,,,1,0,1,,,,64,127,0,,,
5359,note_on,,,,,1,0,1,,,,,,0,,76,0
5378,note_on,,,,,19,0,1,,,,,,0,,78,58
5388,control_change,,,,,10,0,1,,,,64,0,0,,,
5391,control_change,,,,,3,0,1,,,,64,127,0,,,
5392,note_on,,,,,1,0,1,,,,,,0,,83,0
5398,note_on,,,,,6,0,1,,,,,,0,,68,0
5402,note_on,,,,,4,0,1,,,,,,0,,76,56
5407,note_on,,,,,5,0,1,,,,,,0,,80,0
5412,note_on,,,,,5,0,1,,,,,,0,,64,56
5417,note_on,,,,,5,0,1,,,,,,0,,78,0
5423,note_on,,,,,6,0,1,,,,,,0,,71,69
5424,note_on,,,,,1,0,1,,,,,,0,,63,77
5427,note_on,,,,,3,0,1,,,,,,0,,76,0
5445,note_on,,,,,18,0,1,,,,,,0,,64,0
5448,note_on,,,,,3,0,1,,,,,,0,,76,52
5463,note_on,,,,,15,0,1,,,,,,0,,71,0
5466,control_change,,,,,3,0,1,,,,64,0,0,,,
5467,note_on,,,,,1,0,1,,,,,,0,,78,62
5478,control_change,,,,,11,0,1,,,,64,127,0,,,
5483,note_on,,,,,0,0,1,,,,,,0,,83,59
5483,note_on,,,,,5,0,1,,,,,,0,,76,0
5485,note_on,,,,,2,0,1,,,,,,0,,63,0
5488,note_on,,,,,3,0,1,,,,,,0,,80,61
5491,note_on,,,,,3,0,1,,,,,,0,,78,0
5496,note_on,,,,,5,0,1,,,,,,0,,61,70
5508,note_on,,,,,12,0,1,,,,,,0,,78,57
5510,control_change,,,,,2,0,1,,,,64,0,0,,,
5519,control_change,,,,,9,0,1,,,,64,127,0,,,
5524,note_on,,,,,5,0,1,,,,,,0,,83,0
5530,note_on,,,,,6,0,1,,,,,,0,,76,60
5540,note_on,,,,,0,0,1,,,,,,0,,78,0
5540,note_on,,,,,10,0,1,,,,,,0,,80,0
5546,control_change,,,,,6,0,1,,,,64,0,0,,,
5553,note_on,,,,,7,0,1,,,,,,0,,64,80
5554,control_change,,,,,1,0,1,,,,64,127,0,,,
5555,note_on,,,,,1,0,1,,,,,,0,,72,59
5557,note_on,,,,,2,0,1,,,,,,0,,76,0
5560,note_on,,,,,3,0,1,,,,,,0,,61,0
5576,note_on,,,,,16,0,1,,,,,,0,,76,51
5586,control_change,,,,,0,0,1,,,,64,0,0,,,
5586,note_on,,,,,10,0,1,,,,,,0,,72,0
5587,note_on,,,,,1,0,1,,,,,,0,,78,51
5592,control_change,,,,,5,0,1,,,,64,127,0,,,
5609,note_on,,,,,17,0,1,,,,,,0,,76,0
5613,note_on,,,,,4,0,1,,,,,,0,,84,65
5618,control_change,,,,,0,0,1,,,,64,0,0,,,
5618,note_on,,,,,5,0,1,,,,,,0,,78,0
5620,note_on,,,,,2,0,1,,,,,,0,,80,21
5620,note_on,,,,,0,0,1,,,,,,0,,69,85
5627,note_on,,,,,7,0,1,,,,,,0,,64,0
5634,control_change,,,,,7,0,1,,,,64,127,0,,,
5635,note_on,,,,,1,0,1,,,,,,0,,78,62
5662,note_on,,,,,27,0,1,,,,,,0,,84,0
5665,note_on,,,,,3,0,1,,,,,,0,,76,67
5672,note_on,,,,,7,0,1,,,,,,0,,78,0
5672,note_on,,,,,0,0,1,,,,,,0,,80,0
5681,note_on,,,,,9,0,1,,,,,,0,,76,0
5684,control_change,,,,,3,0,1,,,,64,0,0,,,
5692,note_on,,,,,8,0,1,,,,,,0,,69,0
5696,note_on,,,,,4,0,1,,,,,,0,,72,85
5701,control_change,,,,,5,0,1,,,,64,127,0,,,
5711,note_on,,,,,10,0,1,,,,,,0,,78,63
5734,note_on,,,,,23,0,1,,,,,,0,,76,52
5747,note_on,,,,,13,0,1,,,,,,0,,84,53
5750,note_on,,,,,3,0,1,,,,,,0,,80,29
5752,note_on,,,,,2,0,1,,,,,,0,,76,0
5756,note_on,,,,,4,0,1,,,,,,0,,78,0
5776,note_on,,,,,20,0,1,,,,,,0,,78,54
5784,note_on,,,,,8,0,1,,,,,,0,,72,0
5789,note_on,,,,,5,0,1,,,,,,0,,84,0
5806,note_on,,,,,17,0,1,,,,,,0,,80,0
5806,note_on,,,,,0,0,1,,,,,,0,,76,57
5821,note_on,,,,,15,0,1,,,,,,0,,78,0
5828,note_on,,,,,7,0,1,,,,,,0,,76,0
5836,note_on,,,,,8,0,1,,,,,,0,,73,75
5840,control_change,,,,,4,0,1,,,,64,0,0,,,
5856,note_on,,,,,16,0,1,,,,,,0,,78,56
5874,note_on,,,,,18,0,1,,,,,,0,,76,43
5880,control_change,,,,,6,0,1,,,,64,127,0,,,
5900,note_on,,,,,0,0,1,,,,,,0,,80,49
5900,note_on,,,,,20,0,1,,,,,,0,,85,66
5901,note_on,,,,,1,0,1,,,,,,0,,78,0
5903,note_on,,,,,2,0,1,,,,,,0,,76,0
5926,note_on,,,,,23,0,1,,,,,,0,,78,58
5927,note_on,,,,,1,0,1,,,,,,0,,73,0
5928,note_on,,,,,1,0,1,,,,,,0,,85,0
5954,note_on,,,,,0,0,1,,,,,,0,,76,50
5954,note_on,,,,,26,0,1,,,,,,0,,78,0
5957,note_on,,,,,3,0,1,,,,,,0,,80,0
5971,note_on,,,,,14,0,1,,,,,,0,,76,0
5973,note_on,,,,,2,0,1,,,,,,0,,73,56
5988,note_on,,,,,15,0,1,,,,,,0,,78,47
6002,note_on,,,,,14,0,1,,,,,,0,,73,0
6015,note_on,,,,,13,0,1,,,,,,0,,76,57
6036,note_on,,,,,21,0,1,,,,,,0,,76,0
6037,note_on,,,,,1,0,1,,,,,,0,,85,70
6039,note_on,,,,,2,0,1,,,,,,0,,78,0
6040,note_on,,,,,1,0,1,,,,,,0,,80,50
6042,note_on,,,,,2,0,1,,,,,,0,,69,76
6054,control_change,,,,,12,0,1,,,,64,0,0,,,
6059,note_on,,,,,5,0,1,,,,,,0,,78,53
6070,note_on,,,,,11,0,1,,,,,,0,,85,0
6084,note_on,,,,,14,0,1,,,,,,0,,76,50
6088,note_on,,,,,4,0,1,,,,,,0,,80,0
6090,note_on,,,,,2,0,1,,,,,,0,,78,0
6098,control_change,,,,,8,0,1,,,,64,127,0,,,
6100,note_on,,,,,2,0,1,,,,,,0,,73,61
6103,note_on,,,,,3,0,1,,,,,,0,,76,0
6121,note_on,,,,,18,0,1,,,,,,0,,78,57
6133,note_on,,,,,12,0,1,,,,,,0,,73,0
6148,note_on,,,,,15,0,1,,,,,,0,,76,59
6166,note_on,,,,,18,0,1,,,,,,0,,78,0
6167,note_on,,,,,1,0,1,,,,,,0,,85,70
6172,note_on,,,,,5,0,1,,,,,,0,,68,70
6174,note_on,,,,,2,0,1,,,,,,0,,69,0
6176,note_on,,,,,2,0,1,,,,,,0,,76,0
6177,note_on,,,,,1,0,1,,,,,,0,,80,43
6183,control_change,,,,,6,0,1,,,,64,0,0,,,
6185,note_on,,,,,2,0,1,,,,,,0,,78,58
6199,control_change,,,,,14,0,1,,,,64,127,0,,,
6210,note_on,,,,,11,0,1,,,,,,0,,80,0
6211,note_on,,,,,1,0,1,,,,,,0,,85,0
6214,note_on,,,,,3,0,1,,,,,,0,,76,51
6224,note_on,,,,,10,0,1,,,,,,0,,78,0
6232,note_on,,,,,8,0,1,,,,,,0,,68,0
6234,note_on,,,,,2,0,1,,,,,,0,,76,0
6240,note_on,,,,,6,0,1,,,,,,0,,74,69
6243,note_on,,,,,3,0,1,,,,,,0,,65,66
6252,control_change,,,,,9,0,1,,,,64,0,0,,,
6265,note_on,,,,,13,0,1,,,,,,0,,80,66
6268,control_change,,,,,3,0,1,,,,64,127,0,,,
6269,note_on,,,,,1,0,1,,,,,,0,,74,0
6275,note_on,,,,,6,0,1,,,,,,0,,65,0
6283,note_on,,,,,8,0,1,,,,,,0,,78,63
6288,note_on,,,,,5,0,1,,,,,,0,,68,64
6296,control_change,,,,,8,0,1,,,,64,0,0,,,
6300,note_on,,,,,4,0,1,,,,,,0,,80,0
6301,note_on,,,,,1,0,1,,,,,,0,,78,0
6308,control_change,,,,,7,0,1,,,,64,127,0,,,
6309,note_on,,,,,0,0,1,,,,,,0,,81,72
6309,note_on,,,,,1,0,1,,,,,,0,,86,76
6310,note_on,,,,,1,0,1,,,,,,0,,66,75
6326,note_on,,,,,16,0,1,,,,,,0,,68,0
6329,note_on,,,,,3,0,1,,,,,,0,,81,0
6340,note_on,,,,,11,0,1,,,,,,0,,80,67
6344,note_on,,,,,4,0,1,,,,,,0,,86,0
6358,control_change,,,,,14,0,1,,,,64,0,0,,,
6362,note_on,,,,,4,0,1,,,,,,0,,80,0
6362,note_on,,,,,0,0,1,,,,,,0,,78,65
6368,note_on,,,,,6,0,1,,,,,,0,,66,0
6375,control_change,,,,,7,0,1,,,,64,127,0,,,
6376,note_on,,,,,1,0,1,,,,,,0,,78,0
6383,note_on,,,,,0,0,1,,,,,,0,,74,54
6383,note_on,,,,,7,0,1,,,,,,0,,64,65
6404,note_on,,,,,21,0,1,,,,,,0,,80,60
6410,note_on,,,,,6,0,1,,,,,,0,,74,0
6420,note_on,,,,,10,0,1,,,,,,0,,78,65
6433,note_on,,,,,13,0,1,,,,,,0,,64,0
6435,control_change,,,,,2,0,1,,,,64,0,0,,,
6438,note_on,,,,,3,0,1,,,,,,0,,80,0
6443,note_on,,,,,5,0,1,,,,,,0,,78,0
6443,note_on,,,,,0,0,1,,,,,,0,,86,65
6446,control_change,,,,,3,0,1,,,,64,127,0,,,
6448,note_on,,,,,2,0,1,,,,,,0,,62,70
6468,note_on,,,,,20,0,1,,,,,,0,,80,79
6474,note_on,,,,,6,0,1,,,,,,0,,86,0
6492,note_on,,,,,18,0,1,,,,,,0,,80,0
6494,note_on,,,,,0,0,1,,,,,,0,,78,59
6494,note_on,,,,,2,0,1,,,,,,0,,62,0
6504,note_on,,,,,10,0,1,,,,,,0,,60,70
6508,control_change,,,,,4,0,1,,,,64,0,0,,,
6510,note_on,,,,,2,0,1,,,,,,0,,75,72
6513,note_on,,,,,3,0,1,,,,,,0,,78,0
6520,control_change,,,,,7,0,1,,,,64,127,0,,,
6537,note_on,,,,,17,0,1,,,,,,0,,75,0
6537,note_on,,,,,0,0,1,,,,,,0,,80,54
6537,note_on,,,,,0,0,1,,,,,,0,,60,0
6540,note_on,,,,,3,0,1,,,,,,0,,63,66
6553,control_change,,,,,13,0,1,,,,64,0,0,,,
6556,note_on,,,,,3,0,1,,,,,,0,,78,61
6569,control_change,,,,,13,0,1,,,,64,127,0,,,
6572,note_on,,,,,3,0,1,,,,,,0,,87,78
6574,note_on,,,,,0,0,1,,,,,,0,,80,0
6574,note_on,,,,,2,0,1,,,,,,0,,78,0
6575,note_on,,,,,1,0,1,,,,,,0,,81,52
6576,note_on,,,,,1,0,1,,,,,,0,,61,75
6582,note_on,,,,,6,0,1,,,,,,0,,63,0
6602,note_on,,,,,20,0,1,,,,,,0,,81,0
6604,note_on,,,,,2,0,1,,,,,,0,,80,70
6609,note_on,,,,,5,0,1,,,,,,0,,87,0
6619,note_on,,,,,10,0,1,,,,,,0,,78,51
6629,control_change,,,,,10,0,1,,,,64,0,0,,,
6632,note_on,,,,,0,0,1,,,,,,0,,61,0
6632,note_on,,,,,3,0,1,,,,,,0,,80,0
6638,note_on,,,,,6,0,1,,,,,,0,,78,0
6639,note_on,,,,,1,0,1,,,,,,0,,75,75
6642,note_on,,,,,3,0,1,,,,,,0,,59,67
6643,control_change,,,,,1,0,1,,,,64,127,0,,,
6663,note_on,,,,,20,0,1,,,,,,0,,75,0
6667,note_on,,,,,4,0,1,,,,,,0,,80,59
6675,note_on,,,,,8,0,1,,,,,,0,,78,59
6693,note_on,,,,,18,0,1,,,,,,0,,59,0
6698,note_on,,,,,5,0,1,,,,,,0,,78,0
6699,control_change,,,,,1,0,1,,,,64,0,0,,,
6700,note_on,,,,,1,0,1,,,,,,0,,57,81
6703,note_on,,,,,3,0,1,,,,,,0,,87,74
6704,note_on,,,,,1,0,1,,,,,,0,,81,74
6706,note_on,,,,,2,0,1,,,,,,0,,80,0
6713,control_change,,,,,7,0,1,,,,64,127,0,,,
6734,note_on,,,,,21,0,1,,,,,,0,,81,0
6735,note_on,,,,,1,0,1,,,,,,0,,80,66
6746,note_on,,,,,11,0,1,,,,,,0,,87,0
6752,note_on,,,,,6,0,1,,,,,,0,,78,48
6759,note_on,,,,,7,0,1,,,,,,0,,80,0
6761,note_on,,,,,2,0,1,,,,,,0,,57,0
6765,note_on,,,,,4,0,1,,,,,,0,,56,77
6767,control_change,,,,,2,0,1,,,,64,0,0,,,
6777,note_on,,,,,10,0,1,,,,,,0,,78,0
6784,note_on,,,,,7,0,1,,,,,,0,,76,57
6785,control_change,,,,,1,0,1,,,,64,127,0,,,
6799,note_on,,,,,14,0,1,,,,,,0,,56,0
6808,note_on,,,,,9,0,1,,,,,,0,,59,65
6810,note_on,,,,,2,0,1,,,,,,0,,83,42
6815,note_on,,,,,5,0,1,,,,,,0,,76,0
6817,control_change,,,,,2,0,1,,,,64,0,0,,,
6818,note_on,,,,,1,0,1,,,,,,0,,81,63
6835,control_change,,,,,17,0,1,,,,64,127,0,,,
6836,note_on,,,,,0,0,1,,,,,,0,,85,61
6836,note_on,,,,,1,0,1,,,,,,0,,81,0
6838,note_on,,,,,2,0,1,,,,,,0,,89,62
6840,note_on,,,,,2,0,1,,,,,,0,,57,81
6841,note_on,,,,,1,0,1,,,,,,0,,59,0
6844,note_on,,,,,3,0,1,,,,,,0,,83,0
6859,control_change,,,,,15,0,1,,,,64,0,0,,,
6862,note_on,,,,,3,0,1,,,,,,0,,83,59
6874,control_change,,,,,12,0,1,,,,64,127,0,,,
6875,note_on,,,,,1,0,1,,,,,,0,,89,0
6885,note_on,,,,,10,0,1,,,,,,0,,81,59
6891,note_on,,,,,6,0,1,,,,,,0,,85,0
6898,note_on,,,,,7,0,1,,,,,,0,,83,0
6902,note_on,,,,,4,0,1,,,,,,0,,57,0
6903,note_on,,,,,1,0,1,,,,,,0,,56,80
6903,control_change,,,,,0,0,1,,,,64,0,0,,,
6906,note_on,,,,,3,0,1,,,,,,0,,77,67
6908,note_on,,,,,2,0,1,,,,,,0,,81,0
6914,control_change,,,,,6,0,1,,,,64,127,0,,,
6936,note_on,,,,,22,0,1,,,,,,0,,77,0
6936,note_on,,,,,0,0,1,,,,,,0,,83,56
6938,control_change,,,,,2,0,1,,,,64,0,0,,,
6940,note_on,,,,,2,0,1,,,,,,0,,81,60
6954,control_change,,,,,14,0,1,,,,64,127,0,,,
6962,note_on,,,,,8,0,1,,,,,,0,,56,0
6963,note_on,,,,,0,0,1,,,,,,0,,85,72
6963,note_on,,,,,1,0,1,,,,,,0,,54,79
6965,note_on,,,,,2,0,1,,,,,,0,,90,74
6966,note_on,,,,,1,0,1,,,,,,0,,81,0
6973,note_on,,,,,7,0,1,,,,,,0,,83,0
6979,control_change,,,,,6,0,1,,,,64,0,0,,,
6997,note_on,,,,,18,0,1,,,,,,0,,83,67
6999,control_change,,,,,2,0,1,,,,64,127,0,,,
7000,note_on,,,,,1,0,1,,,,,,0,,90,0
7016,note_on,,,,,16,0,1,,,,,,0,,81,63
7020,control_change,,,,,4,0,1,,,,64,0,0,,,
7025,note_on,,,,,5,0,1,,,,,,0,,83,0
7032,note_on,,,,,7,0,1,,,,,,0,,54,0
7034,note_on,,,,,2,0,1,,,,,,0,,52,67
7036,control_change,,,,,2,0,1,,,,64,127,0,,,
7037,note_on,,,,,1,0,1,,,,,,0,,78,74
7038,note_on,,,,,1,0,1,,,,,,0,,81,0
7047,note_on,,,,,9,0,1,,,,,,0,,85,0
7059,control_change,,,,,12,0,1,,,,64,0,0,,,
7068,note_on,,,,,9,0,1,,,,,,0,,83,60
7076,note_on,,,,,8,0,1,,,,,,0,,78,0
7079,note_on,,,,,3,0,1,,,,,,0,,81,53
7080,control_change,,,,,1,0,1,,,,64,127,0,,,
7100,control_change,,,,,20,0,1,,,,64,0,0,,,
7102,note_on,,,,,2,0,1,,,,,,0,,52,0
7103,note_on,,,,,1,0,1,,,,,,0,,51,67
7103,note_on,,,,,0,0,1,,,,,,0,,85,61
7106,note_on,,,,,3,0,1,,,,,,0,,83,0
7107,note_on,,,,,1,0,1,,,,,,0,,81,0
7107,note_on,,,,,0,0,1,,,,,,0,,90,61
7118,control_change,,,,,11,0,1,,,,64,127,0,,,
7134,control_change,,,,,16,0,1,,,,64,0,0,,,
7135,note_on,,,,,1,0,1,,,,,,0,,83,60
7147,note_on,,,,,12,0,1,,,,,,0,,90,0
7151,control_change,,,,,4,0,1,,,,64,127,0,,,
7156,note_on,,,,,5,0,1,,,,,,0,,81,54
7162,note_on,,,,,6,0,1,,,,,,0,,83,0
7174,note_on,,,,,12,0,1,,,,,,0,,78,54
7177,note_on,,,,,3,0,1,,,,,,0,,54,59
7178,note_on,,,,,1,0,1,,,,,,0,,81,0
7182,note_on,,,,,4,0,1,,,,,,0,,51,0
7182,control_change,,,,,0,0,1,,,,64,0,0,,,
7197,note_on,,,,,15,0,1,,,,,,0,,85,0
7198,control_change,,,,,1,0,1,,,,64,127,0,,,
7204,note_on,,,,,6,0,1,,,,,,0,,83,50
7219,control_change,,,,,15,0,1,,,,64,0,0,,,
7222,note_on,,,,,3,0,1,,,,,,0,,78,0
7225,note_on,,,,,3,0,1,,,,,,0,,81,49
7235,control_change,,,,,10,0,1,,,,64,127,0,,,
7243,note_on,,,,,8,0,1,,,,,,0,,83,0
7244,note_on,,,,,1,0,1,,,,,,0,,85,62
7245,note_on,,,,,1,0,1,,,,,,0,,54,0
7245,note_on,,,,,0,0,1,,,,,,0,,90,57
7246,note_on,,,,,1,0,1,,,,,,0,,56,67
7250,note_on,,,,,4,0,1,,,,,,0,,81,0
7256,control_change,,,,,6,0,1,,,,64,0,0,,,
7264,control_change,,,,,8,0,1,,,,64,127,0,,,
7273,note_on,,,,,9,0,1,,,,,,0,,83,59
7293,note_on,,,,,20,0,1,,,,,,0,,90,0
7294,note_on,,,,,1,0,1,,,,,,0,,81,58
7295,control_change,,,,,1,0,1,,,,64,0,0,,,
7302,note_on,,,,,7,0,1,,,,,,0,,83,0
7306,note_on,,,,,4,0,1,,,,,,0,,56,0
7310,note_on,,,,,4,0,1,,,,,,0,,59,71
7313,control_change,,,,,3,0,1,,,,64,127,0,,,
7317,note_on,,,,,4,0,1,,,,,,0,,78,60
7324,note_on,,,,,7,0,1,,,,,,0,,81,0
7339,note_on,,,,,15,0,1,,,,,,0,,85,0
7342,control_change,,,,,3,0,1,,,,64,0,0,,,
7343,note_on,,,,,1,0,1,,,,,,0,,83,57
7352,control_change,,,,,9,0,1,,,,64,127,0,,,
7363,note_on,,,,,11,0,1,,,,,,0,,78,0
7366,note_on,,,,,3,0,1,,,,,,0,,81,47
7372,note_on,,,,,6,0,1,,,,,,0,,59,0
7378,control_change,,,,,6,0,1,,,,64,0,0,,,
7380,note_on,,,,,2,0,1,,,,,,0,,57,58
7384,note_on,,,,,4,0,1,,,,,,0,,83,0
7385,note_on,,,,,1,0,1,,,,,,0,,90,56
7387,note_on,,,,,2,0,1,,,,,,0,,85,57
7388,control_change,,,,,1,0,1,,,,64,127,0,,,
7390,note_on,,,,,2,0,1,,,,,,0,,81,0
7417,note_on,,,,,27,0,1,,,,,,0,,83,56
7420,control_change,,,,,3,0,1,,,,64,0,0,,,
7428,control_change,,,,,8,0,1,,,,64,127,0,,,
7436,note_on,,,,,8,0,1,,,,,,0,,81,49
7444,note_on,,,,,8,0,1,,,,,,0,,90,0
7446,note_on,,,,,2,0,1,,,,,,0,,83,0
7456,control_change,,,,,10,0,1,,,,64,0,0,,,
7458,note_on,,,,,2,0,1,,,,,,0,,78,50
7464,note_on,,,,,6,0,1,,,,,,0,,81,0
7466,control_change,,,,,2,0,1,,,,64,127,0,,,
7467,note_on,,,,,1,0,1,,,,,,0,,61,60
7469,note_on,,,,,2,0,1,,,,,,0,,57,0
7484,note_on,,,,,15,0,1,,,,,,0,,85,0
7485,note_on,,,,,1,0,1,,,,,,0,,83,58
7508,note_on,,,,,23,0,1,,,,,,0,,78,0
7512,note_on,,,,,4,0,1,,,,,,0,,81,53
7532,control_change,,,,,20,0,1,,,,64,0,0,,,
7544,note_on,,,,,12,0,1,,,,,,0,,63,61
7545,control_change,,,,,0,0,1,,,,64,127,0,,,
7545,note_on,,,,,0,0,1,,,,,,0,,90,57
7545,note_on,,,,,1,0,1,,,,,,0,,83,0
7546,note_on,,,,,1,0,1,,,,,,0,,85,48
7549,note_on,,,,,3,0,1,,,,,,0,,81,0
7552,note_on,,,,,3,0,1,,,,,,0,,61,0
7560,note_on,,,,,8,0,1,,,,,,0,,63,0
7575,note_on,,,,,15,0,1,,,,,,0,,83,53
7607,note_on,,,,,32,0,1,,,,,,0,,81,62
7631,control_change,,,,,24,0,1,,,,64,0,0,,,
7641,note_on,,,,,0,0,1,,,,,,0,,44,71
7641,control_change,,,,,10,0,1,,,,67,0,0,,,
7650,note_on,,,,,9,0,1,,,,,,0,,83,0
7654,note_on,,,,,4,0,1,,,,,,0,,81,0
7656,note_on,,,,,2,0,1,,,,,,0,,85,0
7662,control_change,,,,,6,0,1,,,,64,127,0,,,
7667,note_on,,,,,5,0,1,,,,,,0,,90,0
7684,note_on,,,,,17,0,1,,,,,,0,,44,0
7692,note_on,,,,,8,0,1,,,,,,0,,56,65
7712,set_tempo,,,,,7698,1,0,,508475,,,,,,,
7720,note_on,,,,,28,0,1,,,,,,0,,56,0
7726,note_on,,,,,6,0,1,,,,,,0,,54,49
7734,set_tempo,,,,,22,1,0,,504202,,,,,,,
7750,note_on,,,,,24,0,1,,,,,,0,,54,0
7754,set_tempo,,,,,20,1,0,,500000,,,,,,,
7757,note_on,,,,,7,0,1,,,,,,0,,60,54
7759,note_on,,,,,2,0,1,,,,,,0,,90,71
7760,note_on,,,,,1,0,1,,,,,,0,,78,68
7774,set_tempo,,,,,20,1,0,,495868,,,,,,,
7784,note_on,,,,,24,0,1,,,,,,0,,60,0
7789,note_on,,,,,5,0,1,,,,,,0,,56,67
7794,set_tempo,,,,,20,1,0,,491803,,,,,,,
7812,note_on,,,,,23,0,1,,,,,,0,,56,0
7814,set_tempo,,,,,20,1,0,,487805,,,,,,,
7816,note_on,,,,,4,0,1,,,,,,0,,54,62
7834,set_tempo,,,,,20,1,0,,483871,,,,,,,
7842,note_on,,,,,26,0,1,,,,,,0,,54,0
7843,control_change,,,,,1,0,1,,,,64,0,0,,,
7846,note_on,,,,,3,0,1,,,,,,0,,46,74
7854,set_tempo,,,,,20,1,0,,480000,,,,,,,
7868,control_change,,,,,22,0,1,,,,64,127,0,,,
7873,note_on,,,,,5,0,1,,,,,,0,,46,0
7880,note_on,,,,,7,0,1,,,,,,0,,56,53
7889,note_on,,,,,9,0,1,,,,,,0,,90,0
7893,note_on,,,,,4,0,1,,,,,,0,,78,0
7904,note_on,,,,,11,0,1,,,,,,0,,56,0
7907,note_on,,,,,3,0,1,,,,,,0,,54,44
7927,note_on,,,,,20,0,1,,,,,,0,,54,0
7930,note_on,,,,,3,0,1,,,,,,0,,61,60
7936,note_on,,,,,0,0,1,,,,,,0,,89,63
7936,note_on,,,,,6,0,1,,,,,,0,,77,62
7953,note_on,,,,,17,0,1,,,,,,0,,89,0
7958,note_on,,,,,5,0,1,,,,,,0,,61,0
7961,note_on,,,,,3,0,1,,,,,,0,,77,0
7965,note_on,,,,,4,0,1,,,,,,0,,56,49
7984,note_on,,,,,19,0,1,,,,,,0,,56,0
7985,note_on,,,,,1,0,1,,,,,,0,,54,62
8003,control_change,,,,,18,0,1,,,,64,0,0,,,
8004,note_on,,,,,1,0,1,,,,,,0,,54,0
8012,note_on,,,,,8,0,1,,,,,,0,,86,72
8013,note_on,,,,,0,0,1,,,,,,0,,48,61
8013,note_on,,,,,1,0,1,,,,,,0,,74,63
8029,control_change,,,,,16,0,1,,,,64,127,0,,,
8031,note_on,,,,,2,0,1,,,,,,0,,74,0
8034,note_on,,,,,3,0,1,,,,,,0,,48,0
8040,note_on,,,,,6,0,1,,,,,,0,,86,0
8045,note_on,,,,,5,0,1,,,,,,0,,56,66
8069,note_on,,,,,24,0,1,,,,,,0,,56,0
8071,note_on,,,,,2,0,1,,,,,,0,,54,50
8082,note_on,,,,,11,0,1,,,,,,0,,54,0
8088,note_on,,,,,6,0,1,,,,,,0,,89,70
8090,note_on,,,,,2,0,1,,,,,,0,,77,60
8094,note_on,,,,,4,0,1,,,,,,0,,63,69
8110,note_on,,,,,16,0,1,,,,,,0,,89,0
8112,note_on,,,,,2,0,1,,,,,,0,,77,0
8123,note_on,,,,,11,0,1,,,,,,0,,56,61
8126,note_on,,,,,3,0,1,,,,,,0,,63,0
8143,note_on,,,,,17,0,1,,,,,,0,,56,0
8148,note_on,,,,,5,0,1,,,,,,0,,54,47
8158,note_on,,,,,10,0,1,,,,,,0,,54,0
8166,control_change,,,,,8,0,1,,,,64,0,0,,,
8168,note_on,,,,,2,0,1,,,,,,0,,49,61
8170,note_on,,,,,2,0,1,,,,,,0,,75,62
8170,note_on,,,,,0,0,1,,,,,,0,,87,71
8190,control_change,,,,,20,0,1,,,,64,127,0,,,
8193,note_on,,,,,3,0,1,,,,,,0,,49,0
8198,note_on,,,,,5,0,1,,,,,,0,,58,56
8208,note_on,,,,,10,0,1,,,,,,0,,75,0
8210,note_on,,,,,2,0,1,,,,,,0,,87,0
8212,note_on,,,,,2,0,1,,,,,,0,,58,0
8226,note_on,,,,,14,0,1,,,,,,0,,54,45
8245,note_on,,,,,19,0,1,,,,,,0,,54,0
8251,note_on,,,,,6,0,1,,,,,,0,,66,62
8255,note_on,,,,,4,0,1,,,,,,0,,85,61
8256,note_on,,,,,1,0,1,,,,,,0,,73,61
8278,note_on,,,,,22,0,1,,,,,,0,,58,52
8288,note_on,,,,,10,0,1,,,,,,0,,66,0
8292,note_on,,,,,4,0,1,,,,,,0,,85,0
8299,note_on,,,,,7,0,1,,,,,,0,,73,0
8306,note_on,,,,,0,0,1,,,,,,0,,54,56
8306,note_on,,,,,7,0,1,,,,,,0,,58,0
8328,note_on,,,,,22,0,1,,,,,,0,,54,0
8334,control_change,,,,,6,0,1,,,,64,0,0,,,
8336,note_on,,,,,0,0,1,,,,,,0,,51,74
8336,note_on,,,,,2,0,1,,,,,,0,,71,70
8339,note_on,,,,,3,0,1,,,,,,0,,83,69
8352,note_on,,,,,13,0,1,,,,,,0,,71,0
8362,control_change,,,,,10,0,1,,,,64,127,0,,,
8363,note_on,,,,,1,0,1,,,,,,0,,83,0
8369,note_on,,,,,6,0,1,,,,,,0,,51,0
8372,note_on,,,,,3,0,1,,,,,,0,,60,59
8398,note_on,,,,,26,0,1,,,,,,0,,60,0
8411,note_on,,,,,13,0,1,,,,,,0,,66,65
8418,note_on,,,,,7,0,1,,,,,,0,,85,76
8419,note_on,,,,,1,0,1,,,,,,0,,73,68
8436,note_on,,,,,17,0,1,,,,,,0,,66,0
8440,note_on,,,,,4,0,1,,,,,,0,,60,54
8449,note_on,,,,,9,0,1,,,,,,0,,85,0
8462,note_on,,,,,13,0,1,,,,,,0,,60,0
8462,note_on,,,,,0,0,1,,,,,,0,,56,70
8464,note_on,,,,,2,0,1,,,,,,0,,73,0
8488,note_on,,,,,24,0,1,,,,,,0,,56,0
8490,control_change,,,,,0,0,1,,,,64,0,0,,,
8490,note_on,,,,,2,0,1,,,,,,0,,52,74
8494,note_on,,,,,4,0,1,,,,,,0,,84,71
8496,note_on,,,,,2,0,1,,,,,,0,,72,67
8514,note_on,,,,,18,0,1,,,,,,0,,84,0
8516,control_change,,,,,2,0,1,,,,64,127,0,,,
8517,note_on,,,,,1,0,1,,,,,,0,,72,0
8517,note_on,,,,,0,0,1,,,,,,0,,52,0
8524,note_on,,,,,7,0,1,,,,,,0,,61,70
8552,note_on,,,,,28,0,1,,,,,,0,,56,47
8564,note_on,,,,,12,0,1,,,,,,0,,61,0
8573,note_on,,,,,9,0,1,,,,,,0,,82,74
8574,note_on,,,,,1,0,1,,,,,,0,,70,69
8576,note_on,,,,,2,0,1,,,,,,0,,56,0
8577,note_on,,,,,1,0,1,,,,,,0,,67,54
8603,note_on,,,,,26,0,1,,,,,,0,,82,0
8607,note_on,,,,,4,0,1,,,,,,0,,61,60
8609,note_on,,,,,2,0,1,,,,,,0,,70,0
8623,note_on,,,,,14,0,1,,,,,,0,,67,0
8632,note_on,,,,,9,0,1,,,,,,0,,56,62
8640,note_on,,,,,8,0,1,,,,,,0,,61,0
8646,control_change,,,,,6,0,1,,,,64,0,0,,,
8657,note_on,,,,,11,0,1,,,,,,0,,79,67
8658,note_on,,,,,1,0,1,,,,,,0,,67,64
8660,note_on,,,,,2,0,1,,,,,,0,,53,69
8663,note_on,,,,,3,0,1,,,,,,0,,56,0
8670,control_change,,,,,7,0,1,,,,64,127,0,,,
8672,note_on,,,,,2,0,1,,,,,,0,,67,0
8673,note_on,,,,,1,0,1,,,,,,0,,79,0
8696,note_on,,,,,23,0,1,,,,,,0,,59,57
8705,note_on,,,,,9,0,1,,,,,,0,,53,0
8710,control_change,,,,,5,0,1,,,,64,0,0,,,
8712,note_on,,,,,2,0,1,,,,,,0,,68,70
8714,note_on,,,,,2,0,1,,,,,,0,,80,71
8721,note_on,,,,,7,0,1,,,,,,0,,62,50
8724,note_on,,,,,3,0,1,,,,,,0,,59,0
8726,control_change,,,,,2,0,1,,,,64,127,0,,,
8730,note_on,,,,,4,0,1,,,,,,0,,68,0
8731,note_on,,,,,1,0,1,,,,,,0,,80,0
8741,note_on,,,,,10,0,1,,,,,,0,,56,63
8748,note_on,,,,,7,0,1,,,,,,0,,62,0
8752,control_change,,,,,4,0,1,,,,64,0,0,,,
8768,note_on,,,,,16,0,1,,,,,,0,,82,72
8770,note_on,,,,,2,0,1,,,,,,0,,70,65
8772,control_change,,,,,2,0,1,,,,64,127,0,,,
8777,note_on,,,,,5,0,1,,,,,,0,,59,36
8792,note_on,,,,,15,0,1,,,,,,0,,82,0
8792,note_on,,,,,0,0,1,,,,,,0,,56,0
8794,note_on,,,,,2,0,1,,,,,,0,,70,0
8794,note_on,,,,,0,0,1,,,,,,0,,62,63
8797,note_on,,,,,3,0,1,,,,,,0,,59,0
8816,note_on,,,,,19,0,1,,,,,,0,,62,0
8827,note_on,,,,,11,0,1,,,,,,0,,54,67
8830,control_change,,,,,3,0,1,,,,64,0,0,,,
8831,note_on,,,,,1,0,1,,,,,,0,,80,74
8832,note_on,,,,,1,0,1,,,,,,0,,68,76
8854,control_change,,,,,22,0,1,,,,64,127,0,,,
8868,note_on,,,,,14,0,1,,,,,,0,,60,56
8870,note_on,,,,,2,0,1,,,,,,0,,80,0
8873,note_on,,,,,3,0,1,,,,,,0,,54,0
8877,note_on,,,,,4,0,1,,,,,,0,,68,0
8888,note_on,,,,,11,0,1,,,,,,0,,60,0
8892,note_on,,,,,4,0,1,,,,,,0,,63,57
8912,control_change,,,,,20,0,1,,,,64,0,0,,,
8916,note_on,,,,,4,0,1,,,,,,0,,78,66
8918,note_on,,,,,0,0,1,,,,,,0,,66,52
8918,note_on,,,,,2,0,1,,,,,,0,,63,0
8918,note_on,,,,,0,0,1,,,,,,0,,56,66
8938,control_change,,,,,20,0,1,,,,64,127,0,,,
8944,set_tempo,,,,,1090,1,0,,476190,,,,,,,
8950,note_on,,,,,12,0,1,,,,,,0,,56,0
8956,set_tempo,,,,,12,1,0,,480000,,,,,,,
8956,note_on,,,,,6,0,1,,,,,,0,,60,47
8966,set_tempo,,,,,10,1,0,,483871,,,,,,,
8970,note_on,,,,,14,0,1,,,,,,0,,60,0
8970,note_on,,,,,0,0,1,,,,,,0,,63,49
8972,note_on,,,,,2,0,1,,,,,,0,,78,0
8976,set_tempo,,,,,10,1,0,,487805,,,,,,,
8977,note_on,,,,,5,0,1,,,,,,0,,66,0
8983,note_on,,,,,6,0,1,,,,,,0,,63,0
8986,set_tempo,,,,,10,1,0,,491803,,,,,,,
8998,set_tempo,,,,,12,1,0,,495868,,,,,,,
9001,control_change,,,,,18,0,1,,,,64,0,0,,,
9004,note_on,,,,,3,0,1,,,,,,0,,77,58
9006,note_on,,,,,2,0,1,,,,,,0,,65,56
9008,set_tempo,,,,,10,1,0,,500000,,,,,,,
9009,note_on,,,,,3,0,1,,,,,,0,,49,57
9018,set_tempo,,,,,10,1,0,,504202,,,,,,,
9023,control_change,,,,,14,0,1,,,,64,127,0,,,
9028,set_tempo,,,,,10,1,0,,508475,,,,,,,
9032,note_on,,,,,9,0,1,,,,,,0,,65,0
9040,set_tempo,,,,,12,1,0,,512821,,,,,,,
9041,note_on,,,,,0,0,1,,,,,,0,,77,0
9041,note_on,,,,,9,0,1,,,,,,0,,49,0
9042,note_on,,,,,1,0,1,,,,,,0,,61,51
9050,set_tempo,,,,,10,1,0,,517241,,,,,,,
9060,set_tempo,,,,,10,1,0,,521739,,,,,,,
9066,note_on,,,,,24,0,1,,,,,,0,,56,52
9067,note_on,,,,,1,0,1,,,,,,0,,61,0
9070,set_tempo,,,,,10,1,0,,526316,,,,,,,
9081,control_change,,,,,14,0,1,,,,64,0,0,,,
9082,set_tempo,,,,,12,1,0,,530973,,,,,,,
9083,note_on,,,,,2,0,1,,,,,,0,,56,0
9083,note_on,,,,,0,0,1,,,,,,0,,68,66
9084,note_on,,,,,1,0,1,,,,,,0,,80,76
9087,note_on,,,,,3,0,1,,,,,,0,,53,59
9092,set_tempo,,,,,10,1,0,,535714,,,,,,,
9102,set_tempo,,,,,10,1,0,,540541,,,,,,,
9104,control_change,,,,,17,0,1,,,,64,127,0,,,
9112,set_tempo,,,,,10,1,0,,545455,,,,,,,
9112,note_on,,,,,8,0,1,,,,,,0,,68,0
9116,note_on,,,,,4,0,1,,,,,,0,,56,49
9118,set_tempo,,,,,6,1,0,,540541,,,,,,,
9119,note_on,,,,,3,0,1,,,,,,0,,53,0
9122,note_on,,,,,3,0,1,,,,,,0,,80,0
9126,note_on,,,,,4,0,1,,,,,,0,,56,0
9128,set_tempo,,,,,10,1,0,,535714,,,,,,,
9136,note_on,,,,,10,0,1,,,,,,0,,61,63
9138,set_tempo,,,,,10,1,0,,530973,,,,,,,
9148,set_tempo,,,,,10,1,0,,526316,,,,,,,
9155,note_on,,,,,19,0,1,,,,,,0,,85,83
9156,control_change,,,,,1,0,1,,,,64,0,0,,,
9157,note_on,,,,,0,0,1,,,,,,0,,73,70
9157,note_on,,,,,1,0,1,,,,,,0,,61,0
9158,note_on,,,,,1,0,1,,,,,,0,,58,65
9158,set_tempo,,,,,10,1,0,,521739,,,,,,,
9168,set_tempo,,,,,10,1,0,,517241,,,,,,,
9171,control_change,,,,,13,0,1,,,,64,127,0,,,
9178,set_tempo,,,,,10,1,0,,512821,,,,,,,
9181,note_on,,,,,10,0,1,,,,,,0,,58,0
9186,note_on,,,,,5,0,1,,,,,,0,,66,62
9186,set_tempo,,,,,8,1,0,,508475,,,,,,,
9194,note_on,,,,,8,0,1,,,,,,0,,73,0
9196,set_tempo,,,,,10,1,0,,504202,,,,,,,
9197,note_on,,,,,3,0,1,,,,,,0,,85,0
9206,set_tempo,,,,,10,1,0,,500000,,,,,,,
9215,control_change,,,,,18,0,1,,,,64,0,0,,,
9216,note_on,,,,,1,0,1,,,,,,0,,66,0
9216,set_tempo,,,,,10,1,0,,495868,,,,,,,
9218,note_on,,,,,2,0,1,,,,,,0,,61,49
9226,set_tempo,,,,,10,1,0,,491803,,,,,,,
9232,note_on,,,,,14,0,1,,,,,,0,,61,0
9233,note_on,,,,,1,0,1,,,,,,0,,87,77
9235,note_on,,,,,0,0,1,,,,,,0,,56,70
9235,note_on,,,,,2,0,1,,,,,,0,,75,68
9236,set_tempo,,,,,10,1,0,,487805,,,,,,,
9238,control_change,,,,,3,0,1,,,,64,127,0,,,
9244,set_tempo,,,,,8,1,0,,483871,,,,,,,
9264,note_on,,,,,26,0,1,,,,,,0,,87,0
9266,note_on,,,,,2,0,1,,,,,,0,,75,0
9272,note_on,,,,,6,0,1,,,,,,0,,65,64
9292,note_on,,,,,20,0,1,,,,,,0,,56,0
9296,note_on,,,,,4,0,1,,,,,,0,,61,57
9308,note_on,,,,,12,0,1,,,,,,0,,65,0
9317,note_on,,,,,9,0,1,,,,,,0,,55,59
9318,note_on,,,,,1,0,1,,,,,,0,,61,0
9320,control_change,,,,,2,0,1,,,,64,0,0,,,
9321,note_on,,,,,1,0,1,,,,,,0,,88,73
9323,note_on,,,,,2,0,1,,,,,,0,,76,63
9352,note_on,,,,,29,0,1,,,,,,0,,70,69
9353,control_change,,,,,1,0,1,,,,64,127,0,,,
9372,note_on,,,,,19,0,1,,,,,,0,,64,64
9376,note_on,,,,,4,0,1,,,,,,0,,70,0
9396,note_on,,,,,20,0,1,,,,,,0,,55,0
9400,note_on,,,,,4,0,1,,,,,,0,,64,0
9402,note_on,,,,,2,0,1,,,,,,0,,61,59
9415,note_on,,,,,13,0,1,,,,,,0,,76,0
9425,note_on,,,,,10,0,1,,,,,,0,,69,60
9426,note_on,,,,,1,0,1,,,,,,0,,88,0
9453,note_on,,,,,27,0,1,,,,,,0,,64,59
9457,note_on,,,,,4,0,1,,,,,,0,,69,0
9476,control_change,,,,,19,0,1,,,,64,0,0,,,
9477,note_on,,,,,1,0,1,,,,,,0,,89,66
9479,note_on,,,,,2,0,1,,,,,,0,,77,63
9484,note_on,,,,,5,0,1,,,,,,0,,56,63
9488,note_on,,,,,4,0,1,,,,,,0,,64,0
9488,note_on,,,,,0,0,1,,,,,,0,,61,0
9494,note_on,,,,,6,0,1,,,,,,0,,89,0
9500,control_change,,,,,6,0,1,,,,64,127,0,,,
9501,note_on,,,,,1,0,1,,,,,,0,,77,0
9511,note_on,,,,,10,0,1,,,,,,0,,68,55
9515,note_on,,,,,4,0,1,,,,,,0,,56,0
9540,note_on,,,,,25,0,1,,,,,,0,,68,0
9540,note_on,,,,,0,0,1,,,,,,0,,61,48
9560,note_on,,,,,20,0,1,,,,,,0,,61,0
9562,note_on,,,,,0,0,1,,,,,,0,,85,62
9562,note_on,,,,,2,0,1,,,,,,0,,73,63
9569,note_on,,,,,7,0,1,,,,,,0,,56,57
9570,control_change,,,,,1,0,1,,,,64,0,0,,,
9582,control_change,,,,,12,0,1,,,,64,127,0,,,
9597,note_on,,,,,15,0,1,,,,,,0,,85,0
9600,note_on,,,,,3,0,1,,,,,,0,,56,0
9604,note_on,,,,,4,0,1,,,,,,0,,73,0
9604,note_on,,,,,0,0,1,,,,,,0,,65,46
9617,note_on,,,,,13,0,1,,,,,,0,,65,0
9626,note_on,,,,,9,0,1,,,,,,0,,61,51
9643,note_on,,,,,17,0,1,,,,,,0,,61,0
9644,control_change,,,,,1,0,1,,,,64,0,0,,,
9645,note_on,,,,,1,0,1,,,,,,0,,82,67
9646,note_on,,,,,1,0,1,,,,,,0,,70,58
9648,note_on,,,,,2,0,1,,,,,,0,,55,51
9667,control_change,,,,,19,0,1,,,,64,127,0,,,
9678,note_on,,,,,11,0,1,,,,,,0,,64,73
9679,note_on,,,,,1,0,1,,,,,,0,,82,0
9684,note_on,,,,,5,0,1,,,,,,0,,55,0
9686,note_on,,,,,2,0,1,,,,,,0,,70,0
9700,note_on,,,,,14,0,1,,,,,,0,,61,53
9703,note_on,,,,,3,0,1,,,,,,0,,64,0
9718,note_on,,,,,15,0,1,,,,,,0,,56,70
9726,note_on,,,,,0,0,1,,,,,,0,,68,68
9726,note_on,,,,,8,0,1,,,,,,0,,80,65
9731,note_on,,,,,5,0,1,,,,,,0,,61,0
9735,control_change,,,,,4,0,1,,,,64,0,0,,,
9756,control_change,,,,,21,0,1,,,,64,127,0,,,
9757,note_on,,,,,1,0,1,,,,,,0,,65,64
9758,note_on,,,,,1,0,1,,,,,,0,,68,0
9770,note_on,,,,,12,0,1,,,,,,0,,80,0
9782,note_on,,,,,12,0,1,,,,,,0,,56,0
9784,note_on,,,,,2,0,1,,,,,,0,,65,0
9788,note_on,,,,,4,0,1,,,,,,0,,61,49
9805,note_on,,,,,17,0,1,,,,,,0,,54,66
9807,note_on,,,,,0,0,1,,,,,,0,,73,71
9807,note_on,,,,,2,0,1,,,,,,0,,85,87
9812,control_change,,,,,5,0,1,,,,64,0,0,,,
9819,note_on,,,,,7,0,1,,,,,,0,,61,0
9830,control_change,,,,,11,0,1,,,,64,127,0,,,
9835,note_on,,,,,5,0,1,,,,,,0,,63,68
9840,note_on,,,,,5,0,1,,,,,,0,,54,0
9842,note_on,,,,,2,0,1,,,,,,0,,73,0
9851,note_on,,,,,9,0,1,,,,,,0,,85,0
9854,note_on,,,,,3,0,1,,,,,,0,,58,53
9861,note_on,,,,,7,0,1,,,,,,0,,58,0
9868,note_on,,,,,7,0,1,,,,,,0,,63,0
9882,note_on,,,,,14,0,1,,,,,,0,,53,71
9890,control_change,,,,,8,0,1,,,,64,0,0,,,
9892,note_on,,,,,2,0,1,,,,,,0,,89,78
9892,note_on,,,,,0,0,1,,,,,,0,,77,83
9911,note_on,,,,,19,0,1,,,,,,0,,77,0
9917,note_on,,,,,6,0,1,,,,,,0,,89,0
9918,control_change,,,,,1,0,1,,,,64,127,0,,,
9922,note_on,,,,,4,0,1,,,,,,0,,61,66
9945,note_on,,,,,23,0,1,,,,,,0,,53,0
9948,note_on,,,,,3,0,1,,,,,,0,,56,63
9954,note_on,,,,,6,0,1,,,,,,0,,61,0
9974,note_on,,,,,0,0,1,,,,,,0,,94,86
9974,note_on,,,,,20,0,1,,,,,,0,,56,0
9975,note_on,,,,,1,0,1,,,,,,0,,82,71
9977,note_on,,,,,2,0,1,,,,,,0,,52,70
9979,control_change,,,,,2,0,1,,,,64,0,0,,,
10004,note_on,,,,,25,0,1,,,,,,0,,60,64
10034,note_on,,,,,30,0,1,,,,,,0,,55,61
10038,note_on,,,,,4,0,1,,,,,,0,,60,0
10061,note_on,,,,,23,0,1,,,,,,0,,55,0
10062,control_change,,,,,1,0,1,,,,64,127,0,,,
10063,note_on,,,,,1,0,1,,,,,,0,,52,0
10069,note_on,,,,,6,0,1,,,,,,0,,53,65
10092,note_on,,,,,23,0,1,,,,,,0,,94,0
10097,note_on,,,,,5,0,1,,,,,,0,,53,0
10097,note_on,,,,,0,0,1,,,,,,0,,82,0
10101,note_on,,,,,4,0,1,,,,,,0,,61,60
10124,note_on,,,,,23,0,1,,,,,,0,,61,0
10128,note_on,,,,,4,0,1,,,,,,0,,56,54
10138,control_change,,,,,10,0,1,,,,64,0,0,,,
10149,note_on,,,,,11,0,1,,,,,,0,,56,0
10151,note_on,,,,,2,0,1,,,,,,0,,48,67
10156,note_on,,,,,5,0,1,,,,,,0,,80,55
10156,note_on,,,,,0,0,1,,,,,,0,,92,61
10163,control_change,,,,,7,0,1,,,,64,127,0,,,
10178,note_on,,,,,15,0,1,,,,,,0,,48,0
10188,note_on,,,,,10,0,1,,,,,,0,,64,48
10209,note_on,,,,,21,0,1,,,,,,0,,56,47
10211,note_on,,,,,2,0,1,,,,,,0,,64,0
10226,control_change,,,,,15,0,1,,,,64,0,0,,,
10240,note_on,,,,,14,0,1,,,,,,0,,56,0
10241,control_change,,,,,1,0,1,,,,64,127,0,,,
10243,note_on,,,,,2,0,1,,,,,,0,,49,63
10270,note_on,,,,,27,0,1,,,,,,0,,49,0
10276,note_on,,,,,6,0,1,,,,,,0,,65,48
10299,note_on,,,,,23,0,1,,,,,,0,,65,0
10307,note_on,,,,,8,0,1,,,,,,0,,56,59
10330,note_on,,,,,23,0,1,,,,,,0,,56,0
10352,control_change,,,,,22,0,1,,,,64,0,0,,,
10355,note_on,,,,,3,0,1,,,,,,0,,44,80
10368,control_change,,,,,13,0,1,,,,64,127,0,,,
10376,note_on,,,,,8,0,1,,,,,,0,,92,0
10383,note_on,,,,,7,0,1,,,,,,0,,80,0
10402,note_on,,,,,19,0,1,,,,,,0,,44,0
10404,note_on,,,,,2,0,1,,,,,,0,,56,66
10427,note_on,,,,,23,0,1,,,,,,0,,56,0
10430,note_on,,,,,3,0,1,,,,,,0,,54,56
10451,note_on,,,,,21,0,1,,,,,,0,,54,0
10458,note_on,,,,,7,0,1,,,,,,0,,60,58
10468,note_on,,,,,10,0,1,,,,,,0,,90,69
10469,note_on,,,,,1,0,1,,,,,,0,,78,62
10487,note_on,,,,,18,0,1,,,,,,0,,60,0
10488,note_on,,,,,1,0,1,,,,,,0,,56,63
10516,note_on,,,,,28,0,1,,,,,,0,,56,0
10517,note_on,,,,,1,0,1,,,,,,0,,54,62
10546,note_on,,,,,29,0,1,,,,,,0,,54,0
10547,note_on,,,,,1,0,1,,,,,,0,,46,74
10556,control_change,,,,,9,0,1,,,,64,0,0,,,
10578,note_on,,,,,22,0,1,,,,,,0,,46,0
10579,note_on,,,,,1,0,1,,,,,,0,,56,68
10579,control_change,,,,,0,0,1,,,,64,127,0,,,
10604,note_on,,,,,0,0,1,,,,,,0,,54,59
10604,note_on,,,,,25,0,1,,,,,,0,,56,0
10608,note_on,,,,,4,0,1,,,,,,0,,78,0
10608,note_on,,,,,0,0,1,,,,,,0,,90,0
10627,note_on,,,,,19,0,1,,,,,,0,,54,0
10630,note_on,,,,,3,0,1,,,,,,0,,61,74
10633,note_on,,,,,3,0,1,,,,,,0,,77,66
10634,note_on,,,,,1,0,1,,,,,,0,,89,69
10654,note_on,,,,,20,0,1,,,,,,0,,61,0
10658,note_on,,,,,4,0,1,,,,,,0,,89,0
10662,note_on,,,,,4,0,1,,,,,,0,,77,0
10668,note_on,,,,,6,0,1,,,,,,0,,56,57
10686,note_on,,,,,18,0,1,,,,,,0,,56,0
10686,note_on,,,,,0,0,1,,,,,,0,,54,61
10706,control_change,,,,,20,0,1,,,,64,0,0,,,
10707,note_on,,,,,1,0,1,,,,,,0,,54,0
10711,note_on,,,,,4,0,1,,,,,,0,,86,69
10712,note_on,,,,,1,0,1,,,,,,0,,74,65
10713,note_on,,,,,1,0,1,,,,,,0,,48,73
10728,note_on,,,,,0,0,1,,,,,,0,,86,0
10728,note_on,,,,,15,0,1,,,,,,0,,74,0
10730,control_change,,,,,2,0,1,,,,64,127,0,,,
10736,note_on,,,,,6,0,1,,,,,,0,,48,0
10744,note_on,,,,,8,0,1,,,,,,0,,56,68
10768,note_on,,,,,24,0,1,,,,,,0,,54,43
10770,note_on,,,,,0,0,1,,,,,,0,,75,66
10770,note_on,,,,,2,0,1,,,,,,0,,87,81
10772,note_on,,,,,2,0,1,,,,,,0,,56,0
10776,note_on,,,,,4,0,1,,,,,,0,,54,0
10786,note_on,,,,,10,0,1,,,,,,0,,75,0
10787,note_on,,,,,1,0,1,,,,,,0,,87,0
10787,note_on,,,,,0,0,1,,,,,,0,,63,59
10820,note_on,,,,,33,0,1,,,,,,0,,77,74
10820,note_on,,,,,0,0,1,,,,,,0,,89,74
10821,note_on,,,,,1,0,1,,,,,,0,,56,71
10826,note_on,,,,,5,0,1,,,,,,0,,63,0
10835,note_on,,,,,9,0,1,,,,,,0,,89,0
10837,note_on,,,,,2,0,1,,,,,,0,,77,0
10843,note_on,,,,,6,0,1,,,,,,0,,54,56
10844,note_on,,,,,1,0,1,,,,,,0,,56,0
10862,note_on,,,,,18,0,1,,,,,,0,,54,0
10866,note_on,,,,,4,0,1,,,,,,0,,49,72
10870,note_on,,,,,4,0,1,,,,,,0,,87,70
10871,note_on,,,,,1,0,1,,,,,,0,,75,75
10877,control_change,,,,,6,0,1,,,,64,0,0,,,
10897,note_on,,,,,20,0,1,,,,,,0,,58,69
10898,note_on,,,,,1,0,1,,,,,,0,,49,0
10902,control_change,,,,,4,0,1,,,,64,127,0,,,
10905,note_on,,,,,3,0,1,,,,,,0,,87,0
10907,note_on,,,,,2,0,1,,,,,,0,,75,0
10918,note_on,,,,,11,0,1,,,,,,0,,58,0
10925,note_on,,,,,7,0,1,,,,,,0,,54,56
10946,note_on,,,,,21,0,1,,,,,,0,,54,0
10947,note_on,,,,,0,0,1,,,,,,0,,73,68
10947,note_on,,,,,1,0,1,,,,,,0,,85,75
10949,note_on,,,,,2,0,1,,,,,,0,,66,63
10979,note_on,,,,,30,0,1,,,,,,0,,58,56
10987,note_on,,,,,8,0,1,,,,,,0,,85,0
10990,note_on,,,,,3,0,1,,,,,,0,,73,0
10991,note_on,,,,,1,0,1,,,,,,0,,66,0
11002,note_on,,,,,11,0,1,,,,,,0,,54,58
11007,note_on,,,,,5,0,1,,,,,,0,,58,0
11028,note_on,,,,,21,0,1,,,,,,0,,54,0
11031,note_on,,,,,0,0,1,,,,,,0,,83,72
11031,note_on,,,,,3,0,1,,,,,,0,,71,70
11034,note_on,,,,,3,0,1,,,,,,0,,51,83
11036,control_change,,,,,2,0,1,,,,64,0,0,,,
11049,note_on,,,,,13,0,1,,,,,,0,,71,0
11056,note_on,,,,,7,0,1,,,,,,0,,83,0
11059,control_change,,,,,3,0,1,,,,64,127,0,,,
11074,note_on,,,,,15,0,1,,,,,,0,,60,41
11082,note_on,,,,,8,0,1,,,,,,0,,51,0
11090,note_on,,,,,8,0,1,,,,,,0,,84,74
11091,note_on,,,,,1,0,1,,,,,,0,,72,68
11097,note_on,,,,,6,0,1,,,,,,0,,56,56
11105,note_on,,,,,8,0,1,,,,,,0,,84,0
11106,note_on,,,,,1,0,1,,,,,,0,,72,0
11108,note_on,,,,,2,0,1,,,,,,0,,60,0
11110,note_on,,,,,2,0,1,,,,,,0,,56,0
11117,note_on,,,,,7,0,1,,,,,,0,,66,69
11147,note_on,,,,,30,0,1,,,,,,0,,85,82
11149,note_on,,,,,0,0,1,,,,,,0,,73,74
11149,note_on,,,,,2,0,1,,,,,,0,,66,0
11150,note_on,,,,,1,0,1,,,,,,0,,60,57
11172,note_on,,,,,0,0,1,,,,,,0,,85,0
11172,note_on,,,,,22,0,1,,,,,,0,,73,0
11173,note_on,,,,,1,0,1,,,,,,0,,56,65
11176,note_on,,,,,3,0,1,,,,,,0,,60,0
11206,note_on,,,,,30,0,1,,,,,,0,,52,74
11207,note_on,,,,,1,0,1,,,,,,0,,56,0
11213,note_on,,,,,6,0,1,,,,,,0,,84,77
11214,note_on,,,,,1,0,1,,,,,,0,,72,77
11227,control_change,,,,,13,0,1,,,,64,0,0,,,
11253,note_on,,,,,0,0,1,,,,,,0,,61,70
11253,note_on,,,,,26,0,1,,,,,,0,,84,0
11255,note_on,,,,,2,0,1,,,,,,0,,52,0
11256,control_change,,,,,1,0,1,,,,64,127,0,,,
11260,note_on,,,,,4,0,1,,,,,,0,,72,0
11276,note_on,,,,,16,0,1,,,,,,0,,56,50
11290,note_on,,,,,14,0,1,,,,,,0,,61,0
11302,note_on,,,,,12,0,1,,,,,,0,,67,57
11304,note_on,,,,,2,0,1,,,,,,0,,82,63
11305,note_on,,,,,1,0,1,,,,,,0,,70,58
11307,note_on,,,,,2,0,1,,,,,,0,,56,0
11332,note_on,,,,,25,0,1,,,,,,0,,82,0
11333,note_on,,,,,1,0,1,,,,,,0,,70,0
11336,note_on,,,,,0,0,1,,,,,,0,,61,57
11336,note_on,,,,,3,0,1,,,,,,0,,67,0
11360,note_on,,,,,24,0,1,,,,,,0,,56,48
11364,note_on,,,,,4,0,1,,,,,,0,,61,0
11383,note_on,,,,,19,0,1,,,,,,0,,79,69
11384,note_on,,,,,1,0,1,,,,,,0,,53,75
11384,note_on,,,,,0,0,1,,,,,,0,,67,60
11387,control_change,,,,,3,0,1,,,,64,0,0,,,
11398,note_on,,,,,11,0,1,,,,,,0,,56,0
11402,note_on,,,,,4,0,1,,,,,,0,,67,0
11403,note_on,,,,,1,0,1,,,,,,0,,79,0
11410,control_change,,,,,7,0,1,,,,64,127,0,,,
11420,note_on,,,,,10,0,1,,,,,,0,,59,49
11428,note_on,,,,,8,0,1,,,,,,0,,53,0
11441,note_on,,,,,13,0,1,,,,,,0,,68,76
11443,note_on,,,,,2,0,1,,,,,,0,,80,74
11444,note_on,,,,,1,0,1,,,,,,0,,62,66
11446,note_on,,,,,2,0,1,,,,,,0,,59,0
11450,set_tempo,,,,,2206,1,0,,487805,,,,,,,
11456,control_change,,,,,10,0,1,,,,64,0,0,,,
11458,note_on,,,,,2,0,1,,,,,,0,,68,0
11460,set_tempo,,,,,10,1,0,,491803,,,,,,,
11461,note_on,,,,,3,0,1,,,,,,0,,80,0
11468,note_on,,,,,7,0,1,,,,,,0,,62,0
11470,control_change,,,,,2,0,1,,,,64,127,0,,,
11470,set_tempo,,,,,10,1,0,,495868,,,,,,,
11480,set_tempo,,,,,10,1,0,,500000,,,,,,,
11480,note_on,,,,,10,0,1,,,,,,0,,56,69
11488,set_tempo,,,,,8,1,0,,504202,,,,,,,
11498,set_tempo,,,,,10,1,0,,508475,,,,,,,
11499,note_on,,,,,19,0,1,,,,,,0,,82,69
11500,note_on,,,,,1,0,1,,,,,,0,,70,69
11505,control_change,,,,,5,0,1,,,,64,0,0,,,
11508,set_tempo,,,,,10,1,0,,512821,,,,,,,
11512,note_on,,,,,7,0,1,,,,,,0,,59,52
11518,set_tempo,,,,,10,1,0,,517241,,,,,,,
11522,control_change,,,,,10,0,1,,,,64,127,0,,,
11526,set_tempo,,,,,8,1,0,,521739,,,,,,,
11533,note_on,,,,,11,0,1,,,,,,0,,56,0
11536,note_on,,,,,3,0,1,,,,,,0,,62,63
11536,set_tempo,,,,,10,1,0,,526316,,,,,,,
11537,note_on,,,,,1,0,1,,,,,,0,,82,0
11542,note_on,,,,,5,0,1,,,,,,0,,59,0
11544,note_on,,,,,2,0,1,,,,,,0,,70,0
11546,set_tempo,,,,,10,1,0,,530973,,,,,,,
11556,set_tempo,,,,,10,1,0,,535714,,,,,,,
11564,set_tempo,,,,,8,1,0,,540541,,,,,,,
11568,note_on,,,,,24,0,1,,,,,,0,,54,60
11570,note_on,,,,,0,0,1,,,,,,0,,68,72
11570,note_on,,,,,2,0,1,,,,,,0,,80,67
11574,set_tempo,,,,,10,1,0,,545455,,,,,,,
11575,note_on,,,,,5,0,1,,,,,,0,,62,0
11576,control_change,,,,,1,0,1,,,,64,0,0,,,
11584,set_tempo,,,,,10,1,0,,550459,,,,,,,
11592,note_on,,,,,16,0,1,,,,,,0,,60,48
11594,set_tempo,,,,,10,1,0,,555556,,,,,,,
11595,control_change,,,,,3,0,1,,,,64,127,0,,,
11602,set_tempo,,,,,8,1,0,,560748,,,,,,,
11612,set_tempo,,,,,10,1,0,,566038,,,,,,,
11615,note_on,,,,,20,0,1,,,,,,0,,80,0
11616,note_on,,,,,1,0,1,,,,,,0,,68,0
11618,note_on,,,,,2,0,1,,,,,,0,,63,43
11622,set_tempo,,,,,10,1,0,,571429,,,,,,,
11629,note_on,,,,,11,0,1,,,,,,0,,60,0
11630,note_on,,,,,1,0,1,,,,,,0,,54,0
11630,set_tempo,,,,,8,1,0,,576923,,,,,,,
11632,set_tempo,,,,,2,1,0,,571429,,,,,,,
11641,note_on,,,,,11,0,1,,,,,,0,,56,66
11644,note_on,,,,,3,0,1,,,,,,0,,63,0
11644,set_tempo,,,,,12,1,0,,571429,,,,,,,
11648,note_on,,,,,0,0,1,,,,,,0,,78,67
11648,note_on,,,,,4,0,1,,,,,,0,,66,60
11650,set_tempo,,,,,6,1,0,,566038,,,,,,,
11651,control_change,,,,,3,0,1,,,,64,0,0,,,
11656,set_tempo,,,,,6,1,0,,560748,,,,,,,
11662,set_tempo,,,,,6,1,0,,555556,,,,,,,
11666,set_tempo,,,,,4,1,0,,550459,,,,,,,
11672,set_tempo,,,,,6,1,0,,545455,,,,,,,
11672,control_change,,,,,21,0,1,,,,64,127,0,,,
11678,note_on,,,,,6,0,1,,,,,,0,,60,43
11678,set_tempo,,,,,6,1,0,,540541,,,,,,,
11682,set_tempo,,,,,4,1,0,,535714,,,,,,,
11688,set_tempo,,,,,6,1,0,,530973,,,,,,,
11694,set_tempo,,,,,6,1,0,,526316,,,,,,,
11698,note_on,,,,,0,0,1,,,,,,0,,63,45
11698,set_tempo,,,,,4,1,0,,521739,,,,,,,
11698,note_on,,,,,20,0,1,,,,,,0,,56,0
11702,note_on,,,,,4,0,1,,,,,,0,,60,0
11704,set_tempo,,,,,6,1,0,,517241,,,,,,,
11707,note_on,,,,,5,0,1,,,,,,0,,78,0
11710,set_tempo,,,,,6,1,0,,512821,,,,,,,
11714,note_on,,,,,7,0,1,,,,,,0,,66,0
11716,set_tempo,,,,,6,1,0,,508475,,,,,,,
11720,set_tempo,,,,,4,1,0,,504202,,,,,,,
11724,note_on,,,,,10,0,1,,,,,,0,,63,0
11726,set_tempo,,,,,6,1,0,,500000,,,,,,,
11732,set_tempo,,,,,6,1,0,,495868,,,,,,,
11736,set_tempo,,,,,4,1,0,,491803,,,,,,,
11739,control_change,,,,,15,0,1,,,,64,0,0,,,
11740,note_on,,,,,1,0,1,,,,,,0,,65,61
11741,note_on,,,,,1,0,1,,,,,,0,,77,59
11742,set_tempo,,,,,6,1,0,,487805,,,,,,,
11744,note_on,,,,,3,0,1,,,,,,0,,49,62
11748,set_tempo,,,,,6,1,0,,483871,,,,,,,
11752,set_tempo,,,,,4,1,0,,480000,,,,,,,
11754,set_tempo,,,,,2,1,0,,480000,,,,,,,
11760,set_tempo,,,,,6,1,0,,500000,,,,,,,
11762,control_change,,,,,18,0,1,,,,64,127,0,,,
11770,note_on,,,,,8,0,1,,,,,,0,,65,0
11773,note_on,,,,,3,0,1,,,,,,0,,77,0
11781,note_on,,,,,8,0,1,,,,,,0,,49,0
11782,note_on,,,,,1,0,1,,,,,,0,,61,51
11796,set_tempo,,,,,36,1,0,,495868,,,,,,,
11804,note_on,,,,,22,0,1,,,,,,0,,56,53
11811,note_on,,,,,7,0,1,,,,,,0,,61,0
11823,control_change,,,,,12,0,1,,,,64,0,0,,,
11824,note_on,,,,,1,0,1,,,,,,0,,56,0
11824,note_on,,,,,0,0,1,,,,,,0,,80,72
11825,note_on,,,,,1,0,1,,,,,,0,,68,72
11827,note_on,,,,,2,0,1,,,,,,0,,53,59
11830,set_tempo,,,,,34,1,0,,491803,,,,,,,
11845,control_change,,,,,18,0,1,,,,64,127,0,,,
11857,note_on,,,,,12,0,1,,,,,,0,,56,52
11860,note_on,,,,,3,0,1,,,,,,0,,68,0
11862,note_on,,,,,2,0,1,,,,,,0,,53,0
11864,set_tempo,,,,,34,1,0,,487805,,,,,,,
11868,note_on,,,,,6,0,1,,,,,,0,,80,0
11876,note_on,,,,,0,0,1,,,,,,0,,61,62
11876,note_on,,,,,8,0,1,,,,,,0,,56,0
11894,note_on,,,,,18,0,1,,,,,,0,,61,0
11898,set_tempo,,,,,34,1,0,,483871,,,,,,,
11903,control_change,,,,,9,0,1,,,,64,0,0,,,
11904,note_on,,,,,1,0,1,,,,,,0,,85,88
11904,note_on,,,,,0,0,1,,,,,,0,,73,72
11905,note_on,,,,,1,0,1,,,,,,0,,58,61
11924,control_change,,,,,19,0,1,,,,64,127,0,,,
11932,set_tempo,,,,,34,1,0,,480000,,,,,,,
11933,note_on,,,,,9,0,1,,,,,,0,,66,55
11936,note_on,,,,,3,0,1,,,,,,0,,58,0
11944,note_on,,,,,8,0,1,,,,,,0,,73,0
11950,note_on,,,,,6,0,1,,,,,,0,,85,0
11962,note_on,,,,,12,0,1,,,,,,0,,61,56
11966,set_tempo,,,,,34,1,0,,476190,,,,,,,
11967,note_on,,,,,5,0,1,,,,,,0,,66,0
11974,control_change,,,,,7,0,1,,,,64,0,0,,,
11987,note_on,,,,,13,0,1,,,,,,0,,61,0
11987,note_on,,,,,0,0,1,,,,,,0,,56,70
11988,note_on,,,,,1,0,1,,,,,,0,,87,93
11988,note_on,,,,,0,0,1,,,,,,0,,75,79
11999,control_change,,,,,11,0,1,,,,64,127,0,,,
12000,set_tempo,,,,,34,1,0,,472441,,,,,,,
12014,note_on,,,,,15,0,1,,,,,,0,,75,0
12018,note_on,,,,,4,0,1,,,,,,0,,87,0
12023,note_on,,,,,5,0,1,,,,,,0,,65,60
12038,note_on,,,,,15,0,1,,,,,,0,,56,0
12042,note_on,,,,,4,0,1,,,,,,0,,61,53
12062,note_on,,,,,20,0,1,,,,,,0,,65,0
12065,control_change,,,,,3,0,1,,,,64,0,0,,,
12069,note_on,,,,,0,0,1,,,,,,0,,55,66
12069,note_on,,,,,4,0,1,,,,,,0,,61,0
12076,note_on,,,,,7,0,1,,,,,,0,,76,85
12076,note_on,,,,,0,0,1,,,,,,0,,88,95
12103,control_change,,,,,27,0,1,,,,64,127,0,,,
12118,note_on,,,,,15,0,1,,,,,,0,,70,56
12137,note_on,,,,,19,0,1,,,,,,0,,64,59
12143,note_on,,,,,6,0,1,,,,,,0,,70,0
12152,note_on,,,,,9,0,1,,,,,,0,,55,0
12165,note_on,,,,,13,0,1,,,,,,0,,76,0
12166,note_on,,,,,1,0,1,,,,,,0,,64,0
12168,note_on,,,,,2,0,1,,,,,,0,,61,61
12178,note_on,,,,,10,0,1,,,,,,0,,88,0
12195,note_on,,,,,17,0,1,,,,,,0,,69,60
12226,note_on,,,,,31,0,1,,,,,,0,,64,53
12229,note_on,,,,,3,0,1,,,,,,0,,69,0
12240,note_on,,,,,11,0,1,,,,,,0,,77,56
12241,note_on,,,,,1,0,1,,,,,,0,,89,54
12242,control_change,,,,,1,0,1,,,,64,0,0,,,
12243,note_on,,,,,1,0,1,,,,,,0,,64,0
12244,note_on,,,,,1,0,1,,,,,,0,,56,71
12247,note_on,,,,,3,0,1,,,,,,0,,61,0
12260,note_on,,,,,13,0,1,,,,,,0,,89,0
12262,note_on,,,,,2,0,1,,,,,,0,,77,0
12264,control_change,,,,,2,0,1,,,,64,127,0,,,
12276,note_on,,,,,12,0,1,,,,,,0,,68,53
12284,note_on,,,,,8,0,1,,,,,,0,,56,0
12304,note_on,,,,,20,0,1,,,,,,0,,61,47
12311,note_on,,,,,7,0,1,,,,,,0,,68,0
12327,control_change,,,,,16,0,1,,,,64,0,0,,,
12332,note_on,,,,,5,0,1,,,,,,0,,73,69
12333,note_on,,,,,1,0,1,,,,,,0,,85,77
12336,note_on,,,,,3,0,1,,,,,,0,,59,58
12347,note_on,,,,,11,0,1,,,,,,0,,61,0
12348,control_change,,,,,1,0,1,,,,64,127,0,,,
12367,note_on,,,,,19,0,1,,,,,,0,,85,0
12372,note_on,,,,,5,0,1,,,,,,0,,59,0
12373,note_on,,,,,1,0,1,,,,,,0,,73,0
12376,note_on,,,,,3,0,1,,,,,,0,,68,56
12393,note_on,,,,,17,0,1,,,,,,0,,68,0
12396,note_on,,,,,3,0,1,,,,,,0,,65,56
12413,note_on,,,,,17,0,1,,,,,,0,,65,0
12415,note_on,,,,,2,0,1,,,,,,0,,83,77
12416,note_on,,,,,1,0,1,,,,,,0,,71,67
12418,control_change,,,,,2,0,1,,,,64,0,0,,,
12420,note_on,,,,,2,0,1,,,,,,0,,56,80
12439,control_change,,,,,19,0,1,,,,64,127,0,,,
12450,note_on,,,,,11,0,1,,,,,,0,,65,67
12454,note_on,,,,,4,0,1,,,,,,0,,83,0
12461,note_on,,,,,7,0,1,,,,,,0,,71,0
12464,note_on,,,,,3,0,1,,,,,,0,,56,0
12476,note_on,,,,,12,0,1,,,,,,0,,61,59
12478,note_on,,,,,2,0,1,,,,,,0,,65,0
12500,control_change,,,,,22,0,1,,,,64,0,0,,,
12501,note_on,,,,,1,0,1,,,,,,0,,81,71
12503,note_on,,,,,2,0,1,,,,,,0,,69,69
12504,note_on,,,,,1,0,1,,,,,,0,,61,0
12506,note_on,,,,,2,0,1,,,,,,0,,57,72
12521,control_change,,,,,15,0,1,,,,64,127,0,,,
12526,note_on,,,,,5,0,1,,,,,,0,,69,0
12532,note_on,,,,,6,0,1,,,,,,0,,66,72
12539,note_on,,,,,7,0,1,,,,,,0,,57,0
12540,note_on,,,,,1,0,1,,,,,,0,,81,0
12554,note_on,,,,,14,0,1,,,,,,0,,66,0
12560,note_on,,,,,6,0,1,,,,,,0,,61,57
12583,note_on,,,,,23,0,1,,,,,,0,,85,75
12584,note_on,,,,,1,0,1,,,,,,0,,73,57
12586,control_change,,,,,2,0,1,,,,64,0,0,,,
12588,note_on,,,,,2,0,1,,,,,,0,,56,65
12606,control_change,,,,,18,0,1,,,,64,127,0,,,
12614,note_on,,,,,0,0,1,,,,,,0,,61,0
12614,note_on,,,,,8,0,1,,,,,,0,,73,0
12619,note_on,,,,,5,0,1,,,,,,0,,85,0
12619,note_on,,,,,0,0,1,,,,,,0,,64,51
12644,note_on,,,,,0,0,1,,,,,,0,,59,51
12644,note_on,,,,,25,0,1,,,,,,0,,56,0
12652,note_on,,,,,8,0,1,,,,,,0,,64,0
12662,note_on,,,,,10,0,1,,,,,,0,,90,82
12664,control_change,,,,,2,0,1,,,,64,0,0,,,
12664,note_on,,,,,0,0,1,,,,,,0,,78,65
12672,note_on,,,,,8,0,1,,,,,,0,,54,70
12677,note_on,,,,,5,0,1,,,,,,0,,59,0
12681,control_change,,,,,4,0,1,,,,64,127,0,,,
12696,note_on,,,,,15,0,1,,,,,,0,,63,63
12705,note_on,,,,,9,0,1,,,,,,0,,78,0
12710,note_on,,,,,5,0,1,,,,,,0,,90,0
12722,note_on,,,,,12,0,1,,,,,,0,,54,0
12732,note_on,,,,,10,0,1,,,,,,0,,57,62
12734,note_on,,,,,2,0,1,,,,,,0,,63,0
12750,control_change,,,,,16,0,1,,,,64,0,0,,,
12757,note_on,,,,,7,0,1,,,,,,0,,57,0
12757,note_on,,,,,0,0,1,,,,,,0,,92,84
12758,note_on,,,,,1,0,1,,,,,,0,,80,84
12763,note_on,,,,,5,0,1,,,,,,0,,52,84
12794,note_on,,,,,31,0,1,,,,,,0,,61,66
12801,control_change,,,,,7,0,1,,,,64,127,0,,,
12816,note_on,,,,,15,0,1,,,,,,0,,56,66
12820,note_on,,,,,4,0,1,,,,,,0,,52,0
12829,note_on,,,,,9,0,1,,,,,,0,,61,0
12840,control_change,,,,,11,0,1,,,,64,0,0,,,
12844,note_on,,,,,4,0,1,,,,,,0,,56,0
12844,note_on,,,,,0,0,1,,,,,,0,,54,66
12860,control_change,,,,,16,0,1,,,,64,127,0,,,
12874,note_on,,,,,14,0,1,,,,,,0,,63,71
12899,note_on,,,,,25,0,1,,,,,,0,,63,0
12901,note_on,,,,,2,0,1,,,,,,0,,57,63
12902,note_on,,,,,1,0,1,,,,,,0,,92,0
12903,note_on,,,,,1,0,1,,,,,,0,,54,0
12906,note_on,,,,,3,0,1,,,,,,0,,80,0
12925,control_change,,,,,19,0,1,,,,64,0,0,,,
12929,note_on,,,,,4,0,1,,,,,,0,,57,0
12930,note_on,,,,,1,0,1,,,,,,0,,52,61
12932,note_on,,,,,0,0,1,,,,,,0,,93,61
12932,note_on,,,,,2,0,1,,,,,,0,,81,61
12945,control_change,,,,,13,0,1,,,,64,127,0,,,
12955,note_on,,,,,10,0,1,,,,,,0,,81,0
12957,note_on,,,,,2,0,1,,,,,,0,,93,0
12964,note_on,,,,,7,0,1,,,,,,0,,61,65
12978,note_on,,,,,14,0,1,,,,,,0,,52,0
12988,note_on,,,,,10,0,1,,,,,,0,,54,50
12999,note_on,,,,,11,0,1,,,,,,0,,61,0
13010,control_change,,,,,11,0,1,,,,64,0,0,,,
13020,note_on,,,,,10,0,1,,,,,,0,,90,70
13021,note_on,,,,,1,0,1,,,,,,0,,78,63
13023,note_on,,,,,2,0,1,,,,,,0,,51,71
13025,note_on,,,,,2,0,1,,,,,,0,,54,0
13034,control_change,,,,,9,0,1,,,,64,127,0,,,
13046,note_on,,,,,0,0,1,,,,,,0,,78,0
13046,note_on,,,,,12,0,1,,,,,,0,,90,0
13052,note_on,,,,,6,0,1,,,,,,0,,59,52
13069,note_on,,,,,17,0,1,,,,,,0,,51,0
13072,note_on,,,,,3,0,1,,,,,,0,,59,0
13076,note_on,,,,,4,0,1,,,,,,0,,63,52
13093,note_on,,,,,17,0,1,,,,,,0,,87,82
13099,control_change,,,,,6,0,1,,,,64,0,0,,,
13107,note_on,,,,,8,0,1,,,,,,0,,63,0
13115,note_on,,,,,8,0,1,,,,,,0,,57,68
13120,note_on,,,,,5,0,1,,,,,,0,,85,57
13121,note_on,,,,,1,0,1,,,,,,0,,73,76
13126,note_on,,,,,5,0,1,,,,,,0,,87,0
13132,control_change,,,,,6,0,1,,,,64,127,0,,,
13147,note_on,,,,,15,0,1,,,,,,0,,73,0
13148,note_on,,,,,1,0,1,,,,,,0,,66,52
13158,note_on,,,,,10,0,1,,,,,,0,,85,0
13171,note_on,,,,,13,0,1,,,,,,0,,66,0
13176,note_on,,,,,5,0,1,,,,,,0,,63,56
13178,note_on,,,,,2,0,1,,,,,,0,,57,0
13185,control_change,,,,,7,0,1,,,,64,0,0,,,
13195,note_on,,,,,10,0,1,,,,,,0,,63,0
13196,note_on,,,,,1,0,1,,,,,,0,,83,69
13197,note_on,,,,,1,0,1,,,,,,0,,71,71
13200,note_on,,,,,3,0,1,,,,,,0,,59,64
13202,control_change,,,,,2,0,1,,,,64,127,0,,,
13216,note_on,,,,,14,0,1,,,,,,0,,71,0
13225,note_on,,,,,9,0,1,,,,,,0,,83,0
13228,note_on,,,,,3,0,1,,,,,,0,,68,76
13249,note_on,,,,,21,0,1,,,,,,0,,59,0
13250,note_on,,,,,1,0,1,,,,,,0,,68,0
13252,note_on,,,,,2,0,1,,,,,,0,,64,59
13264,note_on,,,,,12,0,1,,,,,,0,,64,0
13272,control_change,,,,,8,0,1,,,,64,0,0,,,
13278,note_on,,,,,6,0,1,,,,,,0,,57,74
13278,note_on,,,,,0,0,1,,,,,,0,,88,77
13279,note_on,,,,,1,0,1,,,,,,0,,76,68
13291,control_change,,,,,12,0,1,,,,64,127,0,,,
13298,note_on,,,,,7,0,1,,,,,,0,,76,0
13308,note_on,,,,,10,0,1,,,,,,0,,88,0
13312,note_on,,,,,4,0,1,,,,,,0,,66,74
13322,note_on,,,,,10,0,1,,,,,,0,,57,0
13337,note_on,,,,,15,0,1,,,,,,0,,66,0
13338,note_on,,,,,1,0,1,,,,,,0,,61,57
13351,control_change,,,,,13,0,1,,,,64,0,0,,,
13353,note_on,,,,,2,0,1,,,,,,0,,61,0
13357,note_on,,,,,4,0,1,,,,,,0,,92,83
13358,note_on,,,,,1,0,1,,,,,,0,,56,79
13359,note_on,,,,,1,0,1,,,,,,0,,80,71
13376,control_change,,,,,17,0,1,,,,64,127,0,,,
13389,note_on,,,,,0,0,1,,,,,,0,,64,66
13389,note_on,,,,,13,0,1,,,,,,0,,80,0
13398,note_on,,,,,9,0,1,,,,,,0,,92,0
13405,note_on,,,,,7,0,1,,,,,,0,,56,0
13408,note_on,,,,,3,0,1,,,,,,0,,59,58
13421,note_on,,,,,13,0,1,,,,,,0,,64,0
13439,note_on,,,,,18,0,1,,,,,,0,,55,72
13440,note_on,,,,,1,0,1,,,,,,0,,59,0
13443,control_change,,,,,3,0,1,,,,64,0,0,,,
13448,note_on,,,,,5,0,1,,,,,,0,,94,97
13449,note_on,,,,,1,0,1,,,,,,0,,82,89
13480,note_on,,,,,31,0,1,,,,,,0,,63,68
13484,control_change,,,,,4,0,1,,,,64,127,0,,,
13502,note_on,,,,,18,0,1,,,,,,0,,61,72
13504,note_on,,,,,2,0,1,,,,,,0,,55,0
13509,note_on,,,,,5,0,1,,,,,,0,,63,0
13524,control_change,,,,,15,0,1,,,,64,0,0,,,
13532,note_on,,,,,8,0,1,,,,,,0,,61,0
13532,note_on,,,,,0,0,1,,,,,,0,,56,67
13546,control_change,,,,,14,0,1,,,,64,127,0,,,
13563,note_on,,,,,17,0,1,,,,,,0,,64,64
13589,note_on,,,,,26,0,1,,,,,,0,,59,54
13594,note_on,,,,,5,0,1,,,,,,0,,64,0
13597,note_on,,,,,3,0,1,,,,,,0,,82,0
13598,note_on,,,,,1,0,1,,,,,,0,,94,0
13604,control_change,,,,,6,0,1,,,,64,0,0,,,
13605,note_on,,,,,1,0,1,,,,,,0,,56,0
13613,note_on,,,,,8,0,1,,,,,,0,,59,0
13620,note_on,,,,,7,0,1,,,,,,0,,54,56
13623,note_on,,,,,3,0,1,,,,,,0,,83,66
13626,note_on,,,,,3,0,1,,,,,,0,,95,65
13628,control_change,,,,,2,0,1,,,,64,127,0,,,
13643,note_on,,,,,15,0,1,,,,,,0,,95,0
13645,note_on,,,,,2,0,1,,,,,,0,,83,0
13652,note_on,,,,,7,0,1,,,,,,0,,63,59
13656,note_on,,,,,4,0,1,,,,,,0,,54,0
13680,note_on,,,,,0,0,1,,,,,,0,,59,56
13680,note_on,,,,,24,0,1,,,,,,0,,63,0
13688,control_change,,,,,8,0,1,,,,64,0,0,,,
13702,note_on,,,,,14,0,1,,,,,,0,,59,0
13706,note_on,,,,,4,0,1,,,,,,0,,52,55
13707,note_on,,,,,1,0,1,,,,,,0,,92,70
13709,note_on,,,,,2,0,1,,,,,,0,,80,62
13711,control_change,,,,,2,0,1,,,,64,127,0,,,
13728,note_on,,,,,17,0,1,,,,,,0,,92,0
13730,note_on,,,,,2,0,1,,,,,,0,,80,0
13736,note_on,,,,,6,0,1,,,,,,0,,59,60
13760,note_on,,,,,24,0,1,,,,,,0,,52,0
13764,note_on,,,,,4,0,1,,,,,,0,,64,71
13765,note_on,,,,,1,0,1,,,,,,0,,59,0
13769,note_on,,,,,4,0,1,,,,,,0,,88,75
13779,note_on,,,,,10,0,1,,,,,,0,,64,0
13790,control_change,,,,,11,0,1,,,,64,0,0,,,
13802,note_on,,,,,12,0,1,,,,,,0,,87,89
13807,note_on,,,,,5,0,1,,,,,,0,,88,0
13808,note_on,,,,,1,0,1,,,,,,0,,75,72
13810,note_on,,,,,2,0,1,,,,,,0,,59,66
13815,control_change,,,,,5,0,1,,,,64,127,0,,,
13832,note_on,,,,,17,0,1,,,,,,0,,68,72
13840,note_on,,,,,8,0,1,,,,,,0,,75,0
13845,note_on,,,,,5,0,1,,,,,,0,,87,0
13857,note_on,,,,,12,0,1,,,,,,0,,68,0
13864,note_on,,,,,7,0,1,,,,,,0,,64,65
13869,note_on,,,,,5,0,1,,,,,,0,,59,0
13871,control_change,,,,,2,0,1,,,,64,0,0,,,
13888,note_on,,,,,0,0,1,,,,,,0,,73,72
13888,note_on,,,,,17,0,1,,,,,,0,,85,81
13890,note_on,,,,,2,0,1,,,,,,0,,64,0
13895,control_change,,,,,5,0,1,,,,64,127,0,,,
13896,note_on,,,,,1,0,1,,,,,,0,,61,66
13916,note_on,,,,,20,0,1,,,,,,0,,69,63
13917,note_on,,,,,1,0,1,,,,,,0,,73,0
13928,note_on,,,,,11,0,1,,,,,,0,,85,0
13943,note_on,,,,,15,0,1,,,,,,0,,69,0
13945,note_on,,,,,2,0,1,,,,,,0,,61,0
13948,note_on,,,,,3,0,1,,,,,,0,,64,64
13968,control_change,,,,,0,0,1,,,,64,0,0,,,
13968,note_on,,,,,20,0,1,,,,,,0,,64,0
13976,note_on,,,,,8,0,1,,,,,,0,,88,77
13978,note_on,,,,,2,0,1,,,,,,0,,76,69
13980,note_on,,,,,2,0,1,,,,,,0,,59,61
13987,control_change,,,,,7,0,1,,,,64,127,0,,,
13996,note_on,,,,,9,0,1,,,,,,0,,76,0
14004,note_on,,,,,8,0,1,,,,,,0,,68,74
14006,note_on,,,,,2,0,1,,,,,,0,,88,0
14031,note_on,,,,,25,0,1,,,,,,0,,68,0
14036,note_on,,,,,5,0,1,,,,,,0,,63,60
14045,note_on,,,,,9,0,1,,,,,,0,,59,0
14054,note_on,,,,,9,0,1,,,,,,0,,63,0
14054,control_change,,,,,0,0,1,,,,64,0,0,,,
14056,note_on,,,,,2,0,1,,,,,,0,,93,82
14058,note_on,,,,,2,0,1,,,,,,0,,81,72
14065,note_on,,,,,7,0,1,,,,,,0,,57,73
14072,control_change,,,,,7,0,1,,,,64,127,0,,,
14082,note_on,,,,,10,0,1,,,,,,0,,81,0
14088,note_on,,,,,6,0,1,,,,,,0,,93,0
14088,note_on,,,,,0,0,1,,,,,,0,,66,62
14107,note_on,,,,,19,0,1,,,,,,0,,57,0
14117,note_on,,,,,10,0,1,,,,,,0,,66,0
14120,note_on,,,,,3,0,1,,,,,,0,,61,57
14148,note_on,,,,,28,0,1,,,,,,0,,61,0
14150,note_on,,,,,2,0,1,,,,,,0,,84,77
14150,note_on,,,,,0,0,1,,,,,,0,,96,84
14152,control_change,,,,,2,0,1,,,,64,0,0,,,
14153,note_on,,,,,1,0,1,,,,,,0,,54,75
14182,note_on,,,,,29,0,1,,,,,,0,,63,67
14186,control_change,,,,,4,0,1,,,,64,127,0,,,
14208,note_on,,,,,22,0,1,,,,,,0,,54,0
14211,note_on,,,,,3,0,1,,,,,,0,,57,65
14220,note_on,,,,,9,0,1,,,,,,0,,63,0
14228,control_change,,,,,8,0,1,,,,64,0,0,,,
14241,note_on,,,,,13,0,1,,,,,,0,,56,84
14243,note_on,,,,,2,0,1,,,,,,0,,57,0
14251,control_change,,,,,8,0,1,,,,64,127,0,,,
14258,note_on,,,,,7,0,1,,,,,,0,,84,0
14268,note_on,,,,,10,0,1,,,,,,0,,64,56
14297,note_on,,,,,29,0,1,,,,,,0,,59,61
14300,note_on,,,,,3,0,1,,,,,,0,,64,0
14304,note_on,,,,,4,0,1,,,,,,0,,56,0
14318,note_on,,,,,14,0,1,,,,,,0,,96,0
14322,control_change,,,,,4,0,1,,,,64,0,0,,,
14327,note_on,,,,,5,0,1,,,,,,0,,54,67
14328,note_on,,,,,1,0,1,,,,,,0,,59,0
14335,note_on,,,,,7,0,1,,,,,,0,,97,70
14336,note_on,,,,,1,0,1,,,,,,0,,85,61
14350,control_change,,,,,14,0,1,,,,64,127,0,,,
14364,note_on,,,,,14,0,1,,,,,,0,,63,61
14378,note_on,,,,,14,0,1,,,,,,0,,54,0
14398,note_on,,,,,20,0,1,,,,,,0,,57,40
14403,note_on,,,,,5,0,1,,,,,,0,,63,0
14418,control_change,,,,,15,0,1,,,,64,0,0,,,
14422,note_on,,,,,4,0,1,,,,,,0,,57,0
14424,note_on,,,,,2,0,1,,,,,,0,,52,63
14440,control_change,,,,,16,0,1,,,,64,127,0,,,
14462,note_on,,,,,22,0,1,,,,,,0,,61,57
14483,note_on,,,,,21,0,1,,,,,,0,,52,0
14497,note_on,,,,,14,0,1,,,,,,0,,61,0
14498,note_on,,,,,1,0,1,,,,,,0,,57,56
14512,control_change,,,,,14,0,1,,,,64,0,0,,,
14523,note_on,,,,,11,0,1,,,,,,0,,57,0
14526,note_on,,,,,3,0,1,,,,,,0,,51,68
14531,note_on,,,,,5,0,1,,,,,,0,,97,0
14539,note_on,,,,,8,0,1,,,,,,0,,85,0
14544,control_change,,,,,5,0,1,,,,64,127,0,,,
14561,note_on,,,,,17,0,1,,,,,,0,,60,46
14583,note_on,,,,,22,0,1,,,,,,0,,51,0
14591,note_on,,,,,8,0,1,,,,,,0,,60,0
14596,note_on,,,,,5,0,1,,,,,,0,,57,59
14623,note_on,,,,,27,0,1,,,,,,0,,57,0
14628,note_on,,,,,0,0,1,,,,,,0,,66,70
14628,note_on,,,,,5,0,1,,,,,,0,,81,81
14657,note_on,,,,,29,0,1,,,,,,0,,66,0
14660,note_on,,,,,3,0,1,,,,,,0,,60,58
14684,note_on,,,,,24,0,1,,,,,,0,,57,69
14685,note_on,,,,,1,0,1,,,,,,0,,60,0
14713,note_on,,,,,28,0,1,,,,,,0,,57,0
14715,note_on,,,,,2,0,1,,,,,,0,,52,64
14720,control_change,,,,,5,0,1,,,,64,0,0,,,
14744,note_on,,,,,24,0,1,,,,,,0,,61,62
14744,control_change,,,,,0,0,1,,,,64,127,0,,,
14752,note_on,,,,,8,0,1,,,,,,0,,52,0
14772,note_on,,,,,20,0,1,,,,,,0,,57,58
14773,note_on,,,,,1,0,1,,,,,,0,,61,0
14797,note_on,,,,,24,0,1,,,,,,0,,57,0
14800,note_on,,,,,3,0,1,,,,,,0,,68,70
14811,note_on,,,,,11,0,1,,,,,,0,,80,80
14822,note_on,,,,,11,0,1,,,,,,0,,81,0
14828,note_on,,,,,6,0,1,,,,,,0,,61,53
14834,note_on,,,,,6,0,1,,,,,,0,,68,0
14850,note_on,,,,,16,0,1,,,,,,0,,61,0
14857,note_on,,,,,7,0,1,,,,,,0,,57,58
14887,note_on,,,,,30,0,1,,,,,,0,,51,81
14889,control_change,,,,,2,0,1,,,,64,0,0,,,
14890,note_on,,,,,1,0,1,,,,,,0,,57,0
14892,note_on,,,,,2,0,1,,,,,,0,,77,74
14901,note_on,,,,,9,0,1,,,,,,0,,80,0
14916,control_change,,,,,15,0,1,,,,64,127,0,,,
14926,note_on,,,,,10,0,1,,,,,,0,,60,60
14940,note_on,,,,,14,0,1,,,,,,0,,51,0
14946,note_on,,,,,6,0,1,,,,,,0,,77,0
14951,note_on,,,,,5,0,1,,,,,,0,,57,54
14954,note_on,,,,,3,0,1,,,,,,0,,60,0
14973,note_on,,,,,19,0,1,,,,,,0,,57,0
14975,note_on,,,,,2,0,1,,,,,,0,,66,50
14982,note_on,,,,,7,0,1,,,,,,0,,78,67
15002,note_on,,,,,20,0,1,,,,,,0,,60,50
15003,note_on,,,,,1,0,1,,,,,,0,,66,0
15026,note_on,,,,,23,0,1,,,,,,0,,60,0
15031,note_on,,,,,5,0,1,,,,,,0,,57,60
15048,note_on,,,,,0,0,1,,,,,,0,,78,0
15048,note_on,,,,,17,0,1,,,,,,0,,57,0
15072,note_on,,,,,24,0,1,,,,,,0,,49,75
15072,note_on,,,,,0,0,1,,,,,,0,,80,70
15078,control_change,,,,,6,0,1,,,,64,0,0,,,
15098,note_on,,,,,20,0,1,,,,,,0,,80,0
15100,note_on,,,,,2,0,1,,,,,,0,,57,65
15104,control_change,,,,,4,0,1,,,,64,127,0,,,
15112,note_on,,,,,8,0,1,,,,,,0,,49,0
15124,note_on,,,,,12,0,1,,,,,,0,,57,0
15136,note_on,,,,,12,0,1,,,,,,0,,54,65
15160,note_on,,,,,24,0,1,,,,,,0,,81,77
15162,note_on,,,,,2,0,1,,,,,,0,,64,61
15169,note_on,,,,,7,0,1,,,,,,0,,54,0
15185,note_on,,,,,16,0,1,,,,,,0,,64,0
15196,set_tempo,,,,,3196,1,0,,472441,,,,,,,
15198,note_on,,,,,13,0,1,,,,,,0,,57,47
15217,note_on,,,,,19,0,1,,,,,,0,,54,59
15224,note_on,,,,,7,0,1,,,,,,0,,57,0
15240,set_tempo,,,,,44,1,0,,476190,,,,,,,
15253,note_on,,,,,29,0,1,,,,,,0,,48,70
15254,note_on,,,,,1,0,1,,,,,,0,,54,0
15255,control_change,,,,,1,0,1,,,,64,0,0,,,
15271,note_on,,,,,16,0,1,,,,,,0,,81,0
15283,control_change,,,,,12,0,1,,,,64,127,0,,,
15284,set_tempo,,,,,44,1,0,,480000,,,,,,,
15286,note_on,,,,,3,0,1,,,,,,0,,57,49
15287,note_on,,,,,1,0,1,,,,,,0,,48,0
15306,note_on,,,,,19,0,1,,,,,,0,,81,71
15316,note_on,,,,,10,0,1,,,,,,0,,81,0
15320,note_on,,,,,4,0,1,,,,,,0,,57,0
15321,note_on,,,,,1,0,1,,,,,,0,,54,51
15328,set_tempo,,,,,44,1,0,,483871,,,,,,,
15337,note_on,,,,,16,0,1,,,,,,0,,81,71
15349,note_on,,,,,12,0,1,,,,,,0,,54,0
15354,note_on,,,,,5,0,1,,,,,,0,,63,41
15372,set_tempo,,,,,44,1,0,,487805,,,,,,,
15376,note_on,,,,,22,0,1,,,,,,0,,57,55
15377,note_on,,,,,1,0,1,,,,,,0,,93,91
15381,note_on,,,,,4,0,1,,,,,,0,,63,0
15400,note_on,,,,,19,0,1,,,,,,0,,54,53
15402,note_on,,,,,2,0,1,,,,,,0,,57,0
15416,set_tempo,,,,,44,1,0,,491803,,,,,,,
15419,note_on,,,,,17,0,1,,,,,,0,,54,0
15427,note_on,,,,,8,0,1,,,,,,0,,49,75
15449,control_change,,,,,22,0,1,,,,64,0,0,,,
15458,set_tempo,,,,,42,1,0,,495868,,,,,,,
15464,note_on,,,,,15,0,1,,,,,,0,,57,73
15470,note_on,,,,,6,0,1,,,,,,0,,81,0
15471,note_on,,,,,1,0,1,,,,,,0,,49,0
15472,control_change,,,,,1,0,1,,,,64,127,0,,,
15488,note_on,,,,,16,0,1,,,,,,0,,54,68
15494,note_on,,,,,6,0,1,,,,,,0,,57,0
15502,set_tempo,,,,,44,1,0,,500000,,,,,,,
15512,note_on,,,,,0,0,1,,,,,,0,,64,58
15512,note_on,,,,,18,0,1,,,,,,0,,54,0
15517,note_on,,,,,5,0,1,,,,,,0,,92,86
15518,note_on,,,,,1,0,1,,,,,,0,,80,68
15521,note_on,,,,,3,0,1,,,,,,0,,93,0
15542,note_on,,,,,21,0,1,,,,,,0,,64,0
15543,note_on,,,,,1,0,1,,,,,,0,,57,62
15544,note_on,,,,,1,0,1,,,,,,0,,80,0
15546,set_tempo,,,,,44,1,0,,504202,,,,,,,
15548,note_on,,,,,4,0,1,,,,,,0,,92,0
15569,note_on,,,,,21,0,1,,,,,,0,,54,65
15577,note_on,,,,,8,0,1,,,,,,0,,57,0
15590,set_tempo,,,,,44,1,0,,508475,,,,,,,
15598,note_on,,,,,0,0,1,,,,,,0,,48,71
15598,note_on,,,,,21,0,1,,,,,,0,,54,0
15602,control_change,,,,,4,0,1,,,,64,0,0,,,
15606,note_on,,,,,4,0,1,,,,,,0,,89,78
15607,note_on,,,,,1,0,1,,,,,,0,,77,75
15629,control_change,,,,,22,0,1,,,,64,127,0,,,
15630,note_on,,,,,1,0,1,,,,,,0,,77,0
15634,set_tempo,,,,,44,1,0,,512821,,,,,,,
15634,note_on,,,,,4,0,1,,,,,,0,,57,55
15636,note_on,,,,,2,0,1,,,,,,0,,48,0
15646,note_on,,,,,10,0,1,,,,,,0,,89,0
15665,note_on,,,,,19,0,1,,,,,,0,,57,0
15666,note_on,,,,,1,0,1,,,,,,0,,54,52
15678,set_tempo,,,,,44,1,0,,517241,,,,,,,
15692,note_on,,,,,26,0,1,,,,,,0,,78,65
15693,note_on,,,,,1,0,1,,,,,,0,,90,70
15694,note_on,,,,,1,0,1,,,,,,0,,63,51
15695,note_on,,,,,1,0,1,,,,,,0,,54,0
15719,note_on,,,,,24,0,1,,,,,,0,,63,0
15720,set_tempo,,,,,42,1,0,,521739,,,,,,,
15728,note_on,,,,,9,0,1,,,,,,0,,57,54
15730,note_on,,,,,2,0,1,,,,,,0,,78,0
15749,note_on,,,,,19,0,1,,,,,,0,,57,0
15750,note_on,,,,,1,0,1,,,,,,0,,54,61
15762,note_on,,,,,12,0,1,,,,,,0,,90,0
15768,set_tempo,,,,,48,1,0,,517241,,,,,,,
15781,control_change,,,,,19,0,1,,,,64,0,0,,,
15782,note_on,,,,,1,0,1,,,,,,0,,54,0
15783,note_on,,,,,1,0,1,,,,,,0,,47,76
15787,note_on,,,,,4,0,1,,,,,,0,,92,72
15789,note_on,,,,,2,0,1,,,,,,0,,80,67
15792,set_tempo,,,,,24,1,0,,521739,,,,,,,
15796,set_tempo,,,,,4,1,0,,517241,,,,,,,
15800,set_tempo,,,,,4,1,0,,512821,,,,,,,
15804,set_tempo,,,,,4,1,0,,508475,,,,,,,
15807,control_change,,,,,18,0,1,,,,64,127,0,,,
15808,set_tempo,,,,,4,1,0,,504202,,,,,,,
15812,set_tempo,,,,,4,1,0,,500000,,,,,,,
15812,note_on,,,,,5,0,1,,,,,,0,,92,0
15812,note_on,,,,,0,0,1,,,,,,0,,47,0
15812,note_on,,,,,0,0,1,,,,,,0,,57,67
15814,set_tempo,,,,,2,1,0,,495868,,,,,,,
15818,set_tempo,,,,,4,1,0,,491803,,,,,,,
15822,set_tempo,,,,,4,1,0,,487805,,,,,,,
15826,set_tempo,,,,,4,1,0,,483871,,,,,,,
15830,set_tempo,,,,,4,1,0,,480000,,,,,,,
15834,set_tempo,,,,,4,1,0,,476190,,,,,,,
15836,set_tempo,,,,,2,1,0,,472441,,,,,,,
15845,note_on,,,,,33,0,1,,,,,,0,,80,0
15848,note_on,,,,,3,0,1,,,,,,0,,54,52
15850,note_on,,,,,2,0,1,,,,,,0,,57,0
15864,set_tempo,,,,,28,1,0,,508475,,,,,,,
15883,note_on,,,,,33,0,1,,,,,,0,,54,0
15883,note_on,,,,,0,0,1,,,,,,0,,63,53
15889,note_on,,,,,6,0,1,,,,,,0,,81,60
15890,note_on,,,,,1,0,1,,,,,,0,,93,63
15912,set_tempo,,,,,48,1,0,,504202,,,,,,,
15914,note_on,,,,,24,0,1,,,,,,0,,63,0
15923,note_on,,,,,9,0,1,,,,,,0,,57,49
15952,note_on,,,,,29,0,1,,,,,,0,,57,0
15953,note_on,,,,,1,0,1,,,,,,0,,54,58
15960,set_tempo,,,,,48,1,0,,500000,,,,,,,
15987,note_on,,,,,34,0,1,,,,,,0,,54,0
15989,note_on,,,,,2,0,1,,,,,,0,,46,77
15990,note_on,,,,,1,0,1,,,,,,0,,81,0
15993,control_change,,,,,3,0,1,,,,64,0,0,,,
16008,set_tempo,,,,,48,1,0,,495868,,,,,,,
16013,note_on,,,,,20,0,1,,,,,,0,,93,0
16018,control_change,,,,,5,0,1,,,,64,127,0,,,
16023,note_on,,,,,5,0,1,,,,,,0,,54,68
16025,note_on,,,,,2,0,1,,,,,,0,,46,0
16034,set_tempo,,,,,26,1,0,,500000,,,,,,,
16044,set_tempo,,,,,10,1,0,,495868,,,,,,,
16054,note_on,,,,,29,0,1,,,,,,0,,57,69
16054,set_tempo,,,,,10,1,0,,491803,,,,,,,
16061,note_on,,,,,7,0,1,,,,,,0,,54,0
16062,set_tempo,,,,,8,1,0,,487805,,,,,,,
16072,set_tempo,,,,,10,1,0,,483871,,,,,,,
16076,note_on,,,,,15,0,1,,,,,,0,,57,0
16081,note_on,,,,,5,0,1,,,,,,0,,62,54
16082,set_tempo,,,,,10,1,0,,480000,,,,,,,
16087,note_on,,,,,6,0,1,,,,,,0,,94,84
16088,note_on,,,,,1,0,1,,,,,,0,,82,65
16090,set_tempo,,,,,8,1,0,,476190,,,,,,,
16099,note_on,,,,,11,0,1,,,,,,0,,62,0
16100,set_tempo,,,,,10,1,0,,472441,,,,,,,
16110,set_tempo,,,,,10,1,0,,468750,,,,,,,
16110,note_on,,,,,11,0,1,,,,,,0,,66,67
16118,set_tempo,,,,,8,1,0,,465116,,,,,,,
16128,set_tempo,,,,,10,1,0,,461538,,,,,,,
16138,set_tempo,,,,,10,1,0,,458015,,,,,,,
16144,note_on,,,,,0,0,1,,,,,,0,,69,66
16144,note_on,,,,,34,0,1,,,,,,0,,66,0
16146,set_tempo,,,,,8,1,0,,454545,,,,,,,
16150,set_tempo,,,,,4,1,0,,454545,,,,,,,
16169,note_on,,,,,25,0,1,,,,,,0,,69,0
16174,note_on,,,,,5,0,1,,,,,,0,,74,76
16176,set_tempo,,,,,26,1,0,,458015,,,,,,,
16198,note_on,,,,,24,0,1,,,,,,0,,94,0
16200,set_tempo,,,,,24,1,0,,461538,,,,,,,
16202,note_on,,,,,4,0,1,,,,,,0,,74,0
16206,note_on,,,,,4,0,1,,,,,,0,,69,64
16209,note_on,,,,,3,0,1,,,,,,0,,82,0
16224,note_on,,,,,15,0,1,,,,,,0,,69,0
16224,set_tempo,,,,,24,1,0,,465116,,,,,,,
16228,note_on,,,,,4,0,1,,,,,,0,,66,57
16237,note_on,,,,,9,0,1,,,,,,0,,66,0
16248,set_tempo,,,,,24,1,0,,468750,,,,,,,
16257,note_on,,,,,20,0,1,,,,,,0,,62,74
16260,note_on,,,,,3,0,1,,,,,,0,,93,77
16261,note_on,,,,,1,0,1,,,,,,0,,81,65
16272,set_tempo,,,,,24,1,0,,472441,,,,,,,
16276,note_on,,,,,15,0,1,,,,,,0,,93,0
16278,note_on,,,,,2,0,1,,,,,,0,,81,0
16282,note_on,,,,,4,0,1,,,,,,0,,62,0
16295,note_on,,,,,13,0,1,,,,,,0,,57,56
16296,set_tempo,,,,,24,1,0,,476190,,,,,,,
16312,note_on,,,,,17,0,1,,,,,,0,,57,0
16316,note_on,,,,,4,0,1,,,,,,0,,54,60
16320,set_tempo,,,,,24,1,0,,480000,,,,,,,
16342,control_change,,,,,26,0,1,,,,64,0,0,,,
16346,note_on,,,,,0,0,1,,,,,,0,,78,74
16346,note_on,,,,,4,0,1,,,,,,0,,90,72
16352,note_on,,,,,6,0,1,,,,,,0,,54,0
16353,note_on,,,,,1,0,1,,,,,,0,,46,61
16365,note_on,,,,,12,0,1,,,,,,0,,78,0
16366,control_change,,,,,0,0,1,,,,64,127,0,,,
16366,note_on,,,,,1,0,1,,,,,,0,,90,0
16383,note_on,,,,,17,0,1,,,,,,0,,46,0
16392,note_on,,,,,9,0,1,,,,,,0,,54,69
16401,note_on,,,,,9,0,1,,,,,,0,,54,0
16416,note_on,,,,,15,0,1,,,,,,0,,58,60
16435,note_on,,,,,19,0,1,,,,,,0,,62,58
16436,note_on,,,,,1,0,1,,,,,,0,,58,0
16445,note_on,,,,,9,0,1,,,,,,0,,93,74
16446,note_on,,,,,1,0,1,,,,,,0,,81,69
16450,note_on,,,,,4,0,1,,,,,,0,,62,0
16464,note_on,,,,,14,0,1,,,,,,0,,93,0
16466,note_on,,,,,2,0,1,,,,,,0,,67,59
16467,note_on,,,,,1,0,1,,,,,,0,,81,0
16494,note_on,,,,,27,0,1,,,,,,0,,70,57
16496,note_on,,,,,2,0,1,,,,,,0,,67,0
16521,note_on,,,,,25,0,1,,,,,,0,,70,0
16528,note_on,,,,,7,0,1,,,,,,0,,74,71
16534,note_on,,,,,6,0,1,,,,,,0,,91,79
16536,control_change,,,,,2,0,1,,,,64,0,0,,,
16537,note_on,,,,,1,0,1,,,,,,0,,79,66
16549,control_change,,,,,12,0,1,,,,64,127,0,,,
16560,note_on,,,,,11,0,1,,,,,,0,,70,56
16563,note_on,,,,,3,0,1,,,,,,0,,91,0
16572,note_on,,,,,9,0,1,,,,,,0,,74,0
16573,note_on,,,,,1,0,1,,,,,,0,,79,0
16589,note_on,,,,,16,0,1,,,,,,0,,70,0
16592,note_on,,,,,3,0,1,,,,,,0,,67,58
16601,note_on,,,,,9,0,1,,,,,,0,,67,0
16619,note_on,,,,,18,0,1,,,,,,0,,76,56
16620,note_on,,,,,1,0,1,,,,,,0,,88,54
16631,note_on,,,,,11,0,1,,,,,,0,,62,48
16636,note_on,,,,,5,0,1,,,,,,0,,76,0
16637,note_on,,,,,1,0,1,,,,,,0,,88,0
16657,note_on,,,,,20,0,1,,,,,,0,,58,59
16668,note_on,,,,,11,0,1,,,,,,0,,62,0
16687,note_on,,,,,19,0,1,,,,,,0,,58,0
16689,note_on,,,,,2,0,1,,,,,,0,,55,61
16698,note_on,,,,,9,0,1,,,,,,0,,55,0
16711,note_on,,,,,13,0,1,,,,,,0,,85,79
16712,note_on,,,,,1,0,1,,,,,,0,,73,71
16714,control_change,,,,,2,0,1,,,,64,0,0,,,
16720,note_on,,,,,6,0,1,,,,,,0,,46,77
16736,note_on,,,,,16,0,1,,,,,,0,,73,0
16737,control_change,,,,,1,0,1,,,,64,127,0,,,
16739,note_on,,,,,2,0,1,,,,,,0,,85,0
16761,note_on,,,,,22,0,1,,,,,,0,,55,54
16771,note_on,,,,,10,0,1,,,,,,0,,46,0
16781,note_on,,,,,10,0,1,,,,,,0,,52,67
16790,note_on,,,,,9,0,1,,,,,,0,,55,0
16809,note_on,,,,,19,0,1,,,,,,0,,52,0
16812,note_on,,,,,3,0,1,,,,,,0,,61,56
16816,note_on,,,,,4,0,1,,,,,,0,,88,74
16818,note_on,,,,,2,0,1,,,,,,0,,76,63
16839,note_on,,,,,0,0,1,,,,,,0,,88,0
16839,note_on,,,,,21,0,1,,,,,,0,,76,0
16846,note_on,,,,,7,0,1,,,,,,0,,61,0
16851,note_on,,,,,5,0,1,,,,,,0,,55,63
16873,note_on,,,,,22,0,1,,,,,,0,,55,0
16877,note_on,,,,,4,0,1,,,,,,0,,52,55
16905,control_change,,,,,28,0,1,,,,64,0,0,,,
16908,note_on,,,,,3,0,1,,,,,,0,,52,0
16909,note_on,,,,,1,0,1,,,,,,0,,86,68
16910,note_on,,,,,1,0,1,,,,,,0,,74,63
16912,note_on,,,,,2,0,1,,,,,,0,,47,63
16923,note_on,,,,,11,0,1,,,,,,0,,86,0
16926,note_on,,,,,3,0,1,,,,,,0,,74,0
16928,control_change,,,,,2,0,1,,,,64,127,0,,,
16944,note_on,,,,,16,0,1,,,,,,0,,56,66
16947,note_on,,,,,3,0,1,,,,,,0,,47,0
16980,note_on,,,,,33,0,1,,,,,,0,,53,47
16984,note_on,,,,,4,0,1,,,,,,0,,56,0
17002,note_on,,,,,18,0,1,,,,,,0,,80,68
17002,note_on,,,,,0,0,1,,,,,,0,,68,60
17003,note_on,,,,,1,0,1,,,,,,0,,53,0
17010,note_on,,,,,7,0,1,,,,,,0,,62,49
17026,note_on,,,,,0,0,1,,,,,,0,,80,0
17026,note_on,,,,,16,0,1,,,,,,0,,68,0
17036,note_on,,,,,10,0,1,,,,,,0,,56,59
17040,note_on,,,,,4,0,1,,,,,,0,,62,0
17067,note_on,,,,,27,0,1,,,,,,0,,53,55
17068,note_on,,,,,1,0,1,,,,,,0,,56,0
17096,note_on,,,,,28,0,1,,,,,,0,,53,0
17097,control_change,,,,,1,0,1,,,,64,0,0,,,
17100,note_on,,,,,3,0,1,,,,,,0,,48,71
17100,note_on,,,,,0,0,1,,,,,,0,,81,69
17101,note_on,,,,,1,0,1,,,,,,0,,69,67
17115,note_on,,,,,14,0,1,,,,,,0,,69,0
17120,note_on,,,,,5,0,1,,,,,,0,,81,0
17122,control_change,,,,,2,0,1,,,,64,127,0,,,
17140,note_on,,,,,18,0,1,,,,,,0,,57,49
17144,note_on,,,,,4,0,1,,,,,,0,,48,0
17163,note_on,,,,,19,0,1,,,,,,0,,84,72
17164,note_on,,,,,1,0,1,,,,,,0,,72,63
17166,note_on,,,,,2,0,1,,,,,,0,,57,0
17168,note_on,,,,,2,0,1,,,,,,0,,54,59
17177,note_on,,,,,9,0,1,,,,,,0,,84,0
17178,note_on,,,,,1,0,1,,,,,,0,,72,0
17204,note_on,,,,,26,0,1,,,,,,0,,54,0
17213,note_on,,,,,9,0,1,,,,,,0,,63,58
17244,note_on,,,,,31,0,1,,,,,,0,,82,69
17245,note_on,,,,,1,0,1,,,,,,0,,70,62
17246,note_on,,,,,1,0,1,,,,,,0,,57,59
17247,note_on,,,,,1,0,1,,,,,,0,,63,0
17262,set_tempo,,,,,942,1,0,,480000,,,,,,,
17267,note_on,,,,,20,0,1,,,,,,0,,82,0
17270,note_on,,,,,3,0,1,,,,,,0,,70,0
17273,note_on,,,,,3,0,1,,,,,,0,,54,59
17274,note_on,,,,,1,0,1,,,,,,0,,57,0
17302,note_on,,,,,28,0,1,,,,,,0,,54,0
17324,note_on,,,,,0,0,1,,,,,,0,,78,74
17324,note_on,,,,,22,0,1,,,,,,0,,66,76
17332,note_on,,,,,8,0,1,,,,,,0,,48,59
17338,control_change,,,,,6,0,1,,,,64,0,0,,,
17346,set_tempo,,,,,84,1,0,,483871,,,,,,,
17355,note_on,,,,,17,0,1,,,,,,0,,66,0
17356,note_on,,,,,1,0,1,,,,,,0,,48,0
17356,note_on,,,,,0,0,1,,,,,,0,,78,0
17360,note_on,,,,,4,0,1,,,,,,0,,60,59
17363,control_change,,,,,3,0,1,,,,64,127,0,,,
17396,note_on,,,,,33,0,1,,,,,,0,,60,0
17407,note_on,,,,,11,0,1,,,,,,0,,81,60
17408,note_on,,,,,1,0,1,,,,,,0,,58,56
17412,note_on,,,,,4,0,1,,,,,,0,,69,48
17428,set_tempo,,,,,82,1,0,,487805,,,,,,,
17446,note_on,,,,,34,0,1,,,,,,0,,81,0
17447,note_on,,,,,1,0,1,,,,,,0,,69,0
17451,note_on,,,,,4,0,1,,,,,,0,,58,0
17456,note_on,,,,,5,0,1,,,,,,0,,64,46
17500,note_on,,,,,44,0,1,,,,,,0,,60,46
17510,set_tempo,,,,,82,1,0,,491803,,,,,,,
17514,note_on,,,,,14,0,1,,,,,,0,,64,0
17521,note_on,,,,,7,0,1,,,,,,0,,60,0
17532,note_on,,,,,11,0,1,,,,,,0,,58,46
17551,note_on,,,,,19,0,1,,,,,,0,,79,78
17552,note_on,,,,,1,0,1,,,,,,0,,67,64
17553,note_on,,,,,1,0,1,,,,,,0,,58,0
17566,note_on,,,,,13,0,1,,,,,,0,,79,0
17567,note_on,,,,,1,0,1,,,,,,0,,67,0
17588,note_on,,,,,21,0,1,,,,,,0,,41,70
17594,set_tempo,,,,,84,1,0,,495868,,,,,,,
17630,control_change,,,,,42,0,1,,,,64,0,0,,,
17638,note_on,,,,,8,0,1,,,,,,0,,77,72
17640,note_on,,,,,2,0,1,,,,,,0,,65,62
17646,note_on,,,,,6,0,1,,,,,,0,,57,75
17676,set_tempo,,,,,82,1,0,,500000,,,,,,,
17678,note_on,,,,,32,0,1,,,,,,0,,77,0
17681,control_change,,,,,0,0,1,,,,64,127,0,,,
17681,control_change,,,,,3,0,1,,,,67,127,0,,,
17688,note_on,,,,,7,0,1,,,,,,0,,65,0
17698,note_on,,,,,10,0,1,,,,,,0,,41,0
17717,note_on,,,,,19,0,1,,,,,,0,,57,0
17757,note_on,,,,,40,0,1,,,,,,0,,65,55
17758,set_tempo,,,,,82,1,0,,504202,,,,,,,
17760,set_tempo,,,,,2,1,0,,504202,,,,,,,
17762,set_tempo,,,,,2,1,0,,495868,,,,,,,
17764,set_tempo,,,,,2,1,0,,487805,,,,,,,
17766,set_tempo,,,,,2,1,0,,480000,,,,,,,
17771,note_on,,,,,14,0,1,,,,,,0,,69,43
17787,note_on,,,,,16,0,1,,,,,,0,,62,60
17802,note_on,,,,,15,0,1,,,,,,0,,69,0
17803,note_on,,,,,1,0,1,,,,,,0,,65,0
17807,note_on,,,,,4,0,1,,,,,,0,,60,63
17813,note_on,,,,,6,0,1,,,,,,0,,62,0
17814,note_on,,,,,1,0,1,,,,,,0,,60,0
17824,note_on,,,,,10,0,1,,,,,,0,,53,59
17826,note_on,,,,,2,0,1,,,,,,0,,57,61
17864,note_on,,,,,38,0,1,,,,,,0,,62,53
17887,note_on,,,,,23,0,1,,,,,,0,,53,0
17890,note_on,,,,,3,0,1,,,,,,0,,60,61
17896,note_on,,,,,6,0,1,,,,,,0,,57,0
17898,note_on,,,,,2,0,1,,,,,,0,,62,0
17908,note_on,,,,,10,0,1,,,,,,0,,60,0
17910,note_on,,,,,2,0,1,,,,,,0,,77,64
17912,note_on,,,,,2,0,1,,,,,,0,,81,56
17943,note_on,,,,,31,0,1,,,,,,0,,74,63
17956,note_on,,,,,13,0,1,,,,,,0,,77,0
17960,note_on,,,,,0,0,1,,,,,,0,,72,58
17960,note_on,,,,,4,0,1,,,,,,0,,81,0
17966,note_on,,,,,0,0,1,,,,,,0,,74,0
17966,note_on,,,,,6,0,1,,,,,,0,,72,0
17984,note_on,,,,,18,0,1,,,,,,0,,65,56
17987,note_on,,,,,3,0,1,,,,,,0,,69,56
18018,note_on,,,,,31,0,1,,,,,,0,,74,61
18037,note_on,,,,,19,0,1,,,,,,0,,72,64
18038,note_on,,,,,1,0,1,,,,,,0,,69,0
18046,note_on,,,,,8,0,1,,,,,,0,,74,0
18047,note_on,,,,,1,0,1,,,,,,0,,65,0
18058,note_on,,,,,11,0,1,,,,,,0,,72,0
18066,note_on,,,,,8,0,1,,,,,,0,,93,63
18066,note_on,,,,,0,0,1,,,,,,0,,89,62
18100,note_on,,,,,34,0,1,,,,,,0,,86,53
18113,note_on,,,,,13,0,1,,,,,,0,,93,0
18117,note_on,,,,,4,0,1,,,,,,0,,89,0
18123,note_on,,,,,6,0,1,,,,,,0,,84,59
18132,note_on,,,,,9,0,1,,,,,,0,,86,0
18140,note_on,,,,,8,0,1,,,,,,0,,84,0
18145,note_on,,,,,5,0,1,,,,,,0,,81,45
18147,note_on,,,,,2,0,1,,,,,,0,,77,71
18175,note_on,,,,,28,0,1,,,,,,0,,74,56
18192,note_on,,,,,17,0,1,,,,,,0,,81,0
18198,note_on,,,,,6,0,1,,,,,,0,,72,64
18202,note_on,,,,,4,0,1,,,,,,0,,77,0
18208,note_on,,,,,6,0,1,,,,,,0,,74,0
18213,note_on,,,,,5,0,1,,,,,,0,,72,0
18230,note_on,,,,,17,0,1,,,,,,0,,81,69
18230,note_on,,,,,0,0,1,,,,,,0,,84,62
18264,note_on,,,,,34,0,1,,,,,,0,,79,50
18276,control_change,,,,,12,0,1,,,,64,0,0,,,
18280,note_on,,,,,4,0,1,,,,,,0,,84,0
18289,note_on,,,,,9,0,1,,,,,,0,,79,0
18290,note_on,,,,,1,0,1,,,,,,0,,81,0
18294,note_on,,,,,4,0,1,,,,,,0,,77,42
18303,note_on,,,,,9,0,1,,,,,,0,,77,0
18313,control_change,,,,,10,0,1,,,,64,127,0,,,
18320,note_on,,,,,7,0,1,,,,,,0,,72,60
18344,note_on,,,,,24,0,1,,,,,,0,,79,48
18355,note_on,,,,,11,0,1,,,,,,0,,72,0
18360,note_on,,,,,5,0,1,,,,,,0,,53,67
18364,note_on,,,,,4,0,1,,,,,,0,,76,49
18368,note_on,,,,,4,0,1,,,,,,0,,79,0
18385,note_on,,,,,17,0,1,,,,,,0,,70,56
18386,note_on,,,,,1,0,1,,,,,,0,,81,65
18388,note_on,,,,,0,0,1,,,,,,0,,84,67
18388,note_on,,,,,2,0,1,,,,,,0,,76,0
18415,note_on,,,,,27,0,1,,,,,,0,,53,0
18416,note_on,,,,,1,0,1,,,,,,0,,79,66
18429,note_on,,,,,13,0,1,,,,,,0,,84,0
18445,note_on,,,,,16,0,1,,,,,,0,,76,48
18446,note_on,,,,,1,0,1,,,,,,0,,79,0
18452,note_on,,,,,6,0,1,,,,,,0,,81,0
18465,note_on,,,,,13,0,1,,,,,,0,,76,0
18467,note_on,,,,,2,0,1,,,,,,0,,72,64
18504,note_on,,,,,37,0,1,,,,,,0,,79,55
18507,note_on,,,,,3,0,1,,,,,,0,,72,0
18517,note_on,,,,,10,0,1,,,,,,0,,76,43
18531,note_on,,,,,14,0,1,,,,,,0,,79,0
18540,note_on,,,,,9,0,1,,,,,,0,,81,64
18541,note_on,,,,,1,0,1,,,,,,0,,70,0
18542,note_on,,,,,1,0,1,,,,,,0,,69,63
18545,note_on,,,,,3,0,1,,,,,,0,,84,64
18546,note_on,,,,,1,0,1,,,,,,0,,76,0
18550,control_change,,,,,4,0,1,,,,64,0,0,,,
18566,control_change,,,,,16,0,1,,,,64,127,0,,,
18570,note_on,,,,,4,0,1,,,,,,0,,79,60
18580,note_on,,,,,10,0,1,,,,,,0,,84,0
18596,note_on,,,,,16,0,1,,,,,,0,,76,37
18606,control_change,,,,,10,0,1,,,,64,0,0,,,
18607,note_on,,,,,1,0,1,,,,,,0,,79,0
18608,note_on,,,,,1,0,1,,,,,,0,,81,0
18612,control_change,,,,,0,0,1,,,,64,127,0,,,
18612,note_on,,,,,4,0,1,,,,,,0,,69,0
18615,note_on,,,,,3,0,1,,,,,,0,,76,0
18616,note_on,,,,,1,0,1,,,,,,0,,66,56
18617,note_on,,,,,1,0,1,,,,,,0,,72,64
18646,note_on,,,,,29,0,1,,,,,,0,,79,56
18647,control_change,,,,,1,0,1,,,,64,0,0,,,
18656,control_change,,,,,9,0,1,,,,64,127,0,,,
18658,note_on,,,,,2,0,1,,,,,,0,,72,0
18660,note_on,,,,,2,0,1,,,,,,0,,66,0
18660,note_on,,,,,0,0,1,,,,,,0,,69,59
18668,note_on,,,,,8,0,1,,,,,,0,,76,57
18682,control_change,,,,,14,0,1,,,,64,0,0,,,
18683,note_on,,,,,1,0,1,,,,,,0,,79,0
18687,note_on,,,,,4,0,1,,,,,,0,,81,68
18692,note_on,,,,,5,0,1,,,,,,0,,67,45
18692,control_change,,,,,0,0,1,,,,64,127,0,,,
18694,note_on,,,,,2,0,1,,,,,,0,,84,65
18697,note_on,,,,,3,0,1,,,,,,0,,76,0
18705,note_on,,,,,8,0,1,,,,,,0,,69,0
18715,note_on,,,,,10,0,1,,,,,,0,,79,60
18720,control_change,,,,,5,0,1,,,,64,0,0,,,
18724,control_change,,,,,4,0,1,,,,64,127,0,,,
18731,note_on,,,,,7,0,1,,,,,,0,,84,0
18744,note_on,,,,,13,0,1,,,,,,0,,76,53
18750,note_on,,,,,6,0,1,,,,,,0,,67,0
18750,control_change,,,,,0,0,1,,,,64,0,0,,,
18752,note_on,,,,,2,0,1,,,,,,0,,79,0
18757,control_change,,,,,5,0,1,,,,64,127,0,,,
18758,note_on,,,,,1,0,1,,,,,,0,,81,0
18764,note_on,,,,,6,0,1,,,,,,0,,76,0
18764,note_on,,,,,0,0,1,,,,,,0,,64,54
18766,note_on,,,,,2,0,1,,,,,,0,,72,63
18792,note_on,,,,,26,0,1,,,,,,0,,79,50
18804,note_on,,,,,12,0,1,,,,,,0,,72,0
18816,note_on,,,,,12,0,1,,,,,,0,,76,53
18828,note_on,,,,,12,0,1,,,,,,0,,79,0
18830,control_change,,,,,2,0,1,,,,64,0,0,,,
18832,control_change,,,,,2,0,1,,,,64,127,0,,,
18843,note_on,,,,,11,0,1,,,,,,0,,84,62
18844,note_on,,,,,1,0,1,,,,,,0,,58,59
18846,note_on,,,,,2,0,1,,,,,,0,,81,25
18851,note_on,,,,,0,0,1,,,,,,0,,64,0
18851,note_on,,,,,5,0,1,,,,,,0,,76,0
18867,control_change,,,,,16,0,1,,,,64,0,0,,,
18868,note_on,,,,,1,0,1,,,,,,0,,79,66
18869,control_change,,,,,1,0,1,,,,64,127,0,,,
18882,note_on,,,,,13,0,1,,,,,,0,,84,0
18887,note_on,,,,,5,0,1,,,,,,0,,76,59
18908,note_on,,,,,21,0,1,,,,,,0,,72,62
18910,note_on,,,,,2,0,1,,,,,,0,,81,0
18910,note_on,,,,,0,0,1,,,,,,0,,79,0
18916,note_on,,,,,6,0,1,,,,,,0,,76,0
18924,note_on,,,,,8,0,1,,,,,,0,,72,0
18930,note_on,,,,,6,0,1,,,,,,0,,58,0
18930,note_on,,,,,0,0,1,,,,,,0,,59,68
18949,control_change,,,,,19,0,1,,,,64,0,0,,,
18958,note_on,,,,,9,0,1,,,,,,0,,62,57
18964,note_on,,,,,6,0,1,,,,,,0,,59,0
18982,note_on,,,,,18,0,1,,,,,,0,,60,58
18991,note_on,,,,,9,0,1,,,,,,0,,62,0
19005,control_change,,,,,14,0,1,,,,64,127,0,,,
19018,note_on,,,,,13,0,1,,,,,,0,,69,63
19019,note_on,,,,,1,0,1,,,,,,0,,65,64
19023,note_on,,,,,4,0,1,,,,,,0,,60,0
19051,note_on,,,,,28,0,1,,,,,,0,,62,52
19066,note_on,,,,,15,0,1,,,,,,0,,60,63
19077,note_on,,,,,0,0,1,,,,,,0,,65,0
19077,note_on,,,,,11,0,1,,,,,,0,,62,0
19079,note_on,,,,,2,0,1,,,,,,0,,60,0
19082,note_on,,,,,3,0,1,,,,,,0,,69,0
19101,note_on,,,,,19,0,1,,,,,,0,,57,68
19102,note_on,,,,,1,0,1,,,,,,0,,53,61
19130,note_on,,,,,28,0,1,,,,,,0,,62,42
19154,note_on,,,,,24,0,1,,,,,,0,,60,58
19161,note_on,,,,,7,0,1,,,,,,0,,57,0
19162,note_on,,,,,1,0,1,,,,,,0,,53,0
19168,note_on,,,,,6,0,1,,,,,,0,,62,0
19178,note_on,,,,,10,0,1,,,,,,0,,60,0
19179,note_on,,,,,1,0,1,,,,,,0,,81,64
19180,note_on,,,,,1,0,1,,,,,,0,,77,60
19215,note_on,,,,,35,0,1,,,,,,0,,74,54
19230,note_on,,,,,15,0,1,,,,,,0,,72,64
19243,note_on,,,,,13,0,1,,,,,,0,,77,0
19244,note_on,,,,,1,0,1,,,,,,0,,74,0
19248,note_on,,,,,4,0,1,,,,,,0,,72,0
19252,note_on,,,,,4,0,1,,,,,,0,,81,0
19264,note_on,,,,,12,0,1,,,,,,0,,69,61
19265,note_on,,,,,1,0,1,,,,,,0,,65,61
19291,note_on,,,,,26,0,1,,,,,,0,,74,56
19317,note_on,,,,,26,0,1,,,,,,0,,72,49
19318,note_on,,,,,1,0,1,,,,,,0,,69,0
19329,note_on,,,,,11,0,1,,,,,,0,,65,0
19330,note_on,,,,,1,0,1,,,,,,0,,74,0
19340,note_on,,,,,10,0,1,,,,,,0,,72,0
19346,note_on,,,,,6,0,1,,,,,,0,,89,76
19347,note_on,,,,,1,0,1,,,,,,0,,93,70
19382,note_on,,,,,35,0,1,,,,,,0,,86,62
19394,note_on,,,,,12,0,1,,,,,,0,,93,0
19398,note_on,,,,,4,0,1,,,,,,0,,84,63
19402,note_on,,,,,4,0,1,,,,,,0,,89,0
19408,note_on,,,,,6,0,1,,,,,,0,,86,0
19415,note_on,,,,,7,0,1,,,,,,0,,84,0
19429,note_on,,,,,14,0,1,,,,,,0,,81,67
19434,note_on,,,,,5,0,1,,,,,,0,,77,61
19454,note_on,,,,,20,0,1,,,,,,0,,74,48
19461,control_change,,,,,7,0,1,,,,64,0,0,,,
19480,note_on,,,,,19,0,1,,,,,,0,,72,64
19486,control_change,,,,,6,0,1,,,,64,127,0,,,
19490,note_on,,,,,4,0,1,,,,,,0,,81,0
19492,note_on,,,,,2,0,1,,,,,,0,,77,0
19500,note_on,,,,,8,0,1,,,,,,0,,74,0
19506,note_on,,,,,6,0,1,,,,,,0,,72,0
19508,note_on,,,,,2,0,1,,,,,,0,,81,63
19511,note_on,,,,,3,0,1,,,,,,0,,84,30
19536,note_on,,,,,25,0,1,,,,,,0,,79,59
19558,note_on,,,,,22,0,1,,,,,,0,,84,0
19566,note_on,,,,,8,0,1,,,,,,0,,79,0
19567,note_on,,,,,1,0,1,,,,,,0,,77,53
19578,note_on,,,,,11,0,1,,,,,,0,,77,0
19579,note_on,,,,,1,0,1,,,,,,0,,81,0
19584,note_on,,,,,5,0,1,,,,,,0,,72,68
19592,control_change,,,,,8,0,1,,,,64,0,0,,,
19617,control_change,,,,,25,0,1,,,,64,127,0,,,
19621,note_on,,,,,4,0,1,,,,,,0,,79,50
19628,note_on,,,,,7,0,1,,,,,,0,,72,0
19632,note_on,,,,,4,0,1,,,,,,0,,76,54
19633,note_on,,,,,1,0,1,,,,,,0,,53,74
19655,note_on,,,,,22,0,1,,,,,,0,,53,0
19662,note_on,,,,,0,0,1,,,,,,0,,84,68
19662,note_on,,,,,7,0,1,,,,,,0,,76,0
19663,note_on,,,,,0,0,1,,,,,,0,,81,59
19663,note_on,,,,,1,0,1,,,,,,0,,79,0
19669,note_on,,,,,6,0,1,,,,,,0,,70,79
19692,note_on,,,,,23,0,1,,,,,,0,,79,64
19702,note_on,,,,,10,0,1,,,,,,0,,84,0
19720,note_on,,,,,18,0,1,,,,,,0,,76,49
19730,note_on,,,,,10,0,1,,,,,,0,,81,0
19731,note_on,,,,,1,0,1,,,,,,0,,79,0
19739,note_on,,,,,8,0,1,,,,,,0,,76,0
19744,note_on,,,,,5,0,1,,,,,,0,,72,65
19779,note_on,,,,,35,0,1,,,,,,0,,79,55
19787,note_on,,,,,8,0,1,,,,,,0,,72,0
19798,note_on,,,,,11,0,1,,,,,,0,,76,55
19813,note_on,,,,,15,0,1,,,,,,0,,79,0
19818,note_on,,,,,5,0,1,,,,,,0,,81,63
19824,note_on,,,,,0,0,1,,,,,,0,,69,63
19824,note_on,,,,,6,0,1,,,,,,0,,84,65
19827,note_on,,,,,3,0,1,,,,,,0,,76,0
19829,note_on,,,,,2,0,1,,,,,,0,,70,0
19833,control_change,,,,,4,0,1,,,,64,0,0,,,
19848,note_on,,,,,15,0,1,,,,,,0,,79,63
19853,control_change,,,,,5,0,1,,,,64,127,0,,,
19879,note_on,,,,,26,0,1,,,,,,0,,76,42
19880,note_on,,,,,1,0,1,,,,,,0,,84,0
19889,note_on,,,,,9,0,1,,,,,,0,,79,0
19894,note_on,,,,,5,0,1,,,,,,0,,81,0
19898,control_change,,,,,4,0,1,,,,64,0,0,,,
19899,note_on,,,,,0,0,1,,,,,,0,,66,62
19899,note_on,,,,,1,0,1,,,,,,0,,76,0
19901,note_on,,,,,2,0,1,,,,,,0,,72,63
19907,control_change,,,,,6,0,1,,,,64,127,0,,,
19908,note_on,,,,,1,0,1,,,,,,0,,69,0
19931,note_on,,,,,23,0,1,,,,,,0,,79,54
19943,control_change,,,,,12,0,1,,,,64,0,0,,,
19945,note_on,,,,,2,0,1,,,,,,0,,72,0
19947,note_on,,,,,2,0,1,,,,,,0,,69,66
19951,control_change,,,,,4,0,1,,,,64,127,0,,,
19956,note_on,,,,,5,0,1,,,,,,0,,76,65
19958,note_on,,,,,2,0,1,,,,,,0,,66,0
19966,note_on,,,,,8,0,1,,,,,,0,,79,0
19978,note_on,,,,,12,0,1,,,,,,0,,81,70
19982,control_change,,,,,4,0,1,,,,64,0,0,,,
19983,note_on,,,,,1,0,1,,,,,,0,,67,48
19983,note_on,,,,,0,0,1,,,,,,0,,84,74
19987,control_change,,,,,4,0,1,,,,64,127,0,,,
19988,note_on,,,,,1,0,1,,,,,,0,,76,0
19991,note_on,,,,,3,0,1,,,,,,0,,69,0
20007,note_on,,,,,16,0,1,,,,,,0,,79,64
20018,control_change,,,,,11,0,1,,,,64,0,0,,,
20028,control_change,,,,,10,0,1,,,,64,127,0,,,
20037,note_on,,,,,9,0,1,,,,,,0,,76,53
20045,note_on,,,,,8,0,1,,,,,,0,,67,0
20047,note_on,,,,,2,0,1,,,,,,0,,79,0
20054,note_on,,,,,7,0,1,,,,,,0,,64,59
20055,note_on,,,,,1,0,1,,,,,,0,,84,0
20056,note_on,,,,,1,0,1,,,,,,0,,72,63
20058,note_on,,,,,2,0,1,,,,,,0,,76,0
20058,control_change,,,,,0,0,1,,,,64,0,0,,,
20065,note_on,,,,,7,0,1,,,,,,0,,81,0
20066,control_change,,,,,1,0,1,,,,64,127,0,,,
20090,note_on,,,,,24,0,1,,,,,,0,,79,60
20101,note_on,,,,,11,0,1,,,,,,0,,72,0
20111,note_on,,,,,10,0,1,,,,,,0,,76,63
20126,control_change,,,,,15,0,1,,,,64,0,0,,,
20130,note_on,,,,,4,0,1,,,,,,0,,64,0
20131,note_on,,,,,1,0,1,,,,,,0,,79,0
20132,note_on,,,,,1,0,1,,,,,,0,,81,68
20133,control_change,,,,,1,0,1,,,,64,127,0,,,
20135,note_on,,,,,2,0,1,,,,,,0,,84,69
20136,note_on,,,,,1,0,1,,,,,,0,,58,74
20146,note_on,,,,,10,0,1,,,,,,0,,76,0
20164,note_on,,,,,18,0,1,,,,,,0,,79,61
20189,note_on,,,,,25,0,1,,,,,,0,,76,48
20199,note_on,,,,,10,0,1,,,,,,0,,79,0
20212,note_on,,,,,13,0,1,,,,,,0,,59,65
20223,note_on,,,,,11,0,1,,,,,,0,,58,0
20227,note_on,,,,,4,0,1,,,,,,0,,72,67
20235,control_change,,,,,8,0,1,,,,64,0,0,,,
20255,note_on,,,,,20,0,1,,,,,,0,,59,0
20256,note_on,,,,,1,0,1,,,,,,0,,79,56
20266,note_on,,,,,10,0,1,,,,,,0,,84,0
20267,note_on,,,,,1,0,1,,,,,,0,,81,0
20270,control_change,,,,,3,0,1,,,,64,127,0,,,
20272,note_on,,,,,2,0,1,,,,,,0,,72,0
20274,note_on,,,,,2,0,1,,,,,,0,,62,54
20274,note_on,,,,,0,0,1,,,,,,0,,77,61
20296,note_on,,,,,22,0,1,,,,,,0,,84,73
20297,note_on,,,,,1,0,1,,,,,,0,,81,66
20301,control_change,,,,,4,0,1,,,,64,0,0,,,
20302,note_on,,,,,1,0,1,,,,,,0,,60,66
20304,note_on,,,,,2,0,1,,,,,,0,,79,0
20308,note_on,,,,,4,0,1,,,,,,0,,77,0
20310,note_on,,,,,2,0,1,,,,,,0,,62,0
20317,control_change,,,,,7,0,1,,,,64,127,0,,,
20329,note_on,,,,,12,0,1,,,,,,0,,79,64
20330,note_on,,,,,1,0,1,,,,,,0,,76,0
20338,note_on,,,,,8,0,1,,,,,,0,,81,0
20339,note_on,,,,,1,0,1,,,,,,0,,84,0
20344,control_change,,,,,5,0,1,,,,64,0,0,,,
20346,control_change,,,,,2,0,1,,,,64,127,0,,,
20360,control_change,,,,,14,0,1,,,,64,0,0,,,
20361,note_on,,,,,1,0,1,,,,,,0,,77,59
20364,control_change,,,,,3,0,1,,,,64,127,0,,,
20367,note_on,,,,,3,0,1,,,,,,0,,60,0
20371,note_on,,,,,4,0,1,,,,,,0,,79,0
20384,note_on,,,,,0,0,1,,,,,,0,,72,58
20384,note_on,,,,,13,0,1,,,,,,0,,57,64
20385,note_on,,,,,1,0,1,,,,,,0,,77,0
20401,control_change,,,,,16,0,1,,,,64,0,0,,,
20408,control_change,,,,,7,0,1,,,,64,127,0,,,
20414,note_on,,,,,6,0,1,,,,,,0,,79,54
20426,note_on,,,,,12,0,1,,,,,,0,,72,0
20431,note_on,,,,,5,0,1,,,,,,0,,77,56
20436,control_change,,,,,5,0,1,,,,64,0,0,,,
20450,control_change,,,,,14,0,1,,,,64,127,0,,,
20458,note_on,,,,,8,0,1,,,,,,0,,81,59
20458,note_on,,,,,0,0,1,,,,,,0,,53,69
20461,note_on,,,,,3,0,1,,,,,,0,,84,56
20462,note_on,,,,,1,0,1,,,,,,0,,79,0
20464,note_on,,,,,2,0,1,,,,,,0,,57,0
20466,note_on,,,,,2,0,1,,,,,,0,,77,0
20483,control_change,,,,,17,0,1,,,,64,0,0,,,
20488,note_on,,,,,5,0,1,,,,,,0,,79,63
20494,control_change,,,,,6,0,1,,,,64,127,0,,,
20516,note_on,,,,,22,0,1,,,,,,0,,77,51
20517,control_change,,,,,1,0,1,,,,64,0,0,,,
20520,set_tempo,,,,,2754,1,0,,476190,,,,,,,
20527,note_on,,,,,10,0,1,,,,,,0,,84,0
20530,note_on,,,,,3,0,1,,,,,,0,,79,0
20531,control_change,,,,,1,0,1,,,,64,127,0,,,
20534,note_on,,,,,3,0,1,,,,,,0,,53,0
20540,note_on,,,,,6,0,1,,,,,,0,,54,50
20542,note_on,,,,,0,0,1,,,,,,0,,77,0
20542,note_on,,,,,0,0,1,,,,,,0,,72,66
20542,note_on,,,,,2,0,1,,,,,,0,,81,0
20544,set_tempo,,,,,24,1,0,,480000,,,,,,,
20558,control_change,,,,,16,0,1,,,,64,0,0,,,
20568,set_tempo,,,,,24,1,0,,483871,,,,,,,
20570,control_change,,,,,12,0,1,,,,64,127,0,,,
20578,note_on,,,,,8,0,1,,,,,,0,,79,45
20586,note_on,,,,,8,0,1,,,,,,0,,57,55
20592,set_tempo,,,,,24,1,0,,487805,,,,,,,
20594,note_on,,,,,8,0,1,,,,,,0,,72,0
20595,note_on,,,,,1,0,1,,,,,,0,,76,51
20597,control_change,,,,,2,0,1,,,,64,0,0,,,
20609,control_change,,,,,12,0,1,,,,64,127,0,,,
20616,set_tempo,,,,,24,1,0,,491803,,,,,,,
20617,note_on,,,,,8,0,1,,,,,,0,,81,66
20618,note_on,,,,,0,0,1,,,,,,0,,55,64
20618,note_on,,,,,1,0,1,,,,,,0,,54,0
20620,note_on,,,,,2,0,1,,,,,,0,,79,0
20620,note_on,,,,,0,0,1,,,,,,0,,84,67
20623,note_on,,,,,3,0,1,,,,,,0,,57,0
20624,note_on,,,,,1,0,1,,,,,,0,,76,0
20635,control_change,,,,,11,0,1,,,,64,0,0,,,
20640,set_tempo,,,,,24,1,0,,495868,,,,,,,
20645,control_change,,,,,10,0,1,,,,64,127,0,,,
20650,note_on,,,,,5,0,1,,,,,,0,,79,51
20664,set_tempo,,,,,24,1,0,,500000,,,,,,,
20671,control_change,,,,,21,0,1,,,,64,0,0,,,
20677,note_on,,,,,6,0,1,,,,,,0,,76,53
20685,control_change,,,,,8,0,1,,,,64,127,0,,,
20688,set_tempo,,,,,24,1,0,,504202,,,,,,,
20691,note_on,,,,,6,0,1,,,,,,0,,55,0
20692,note_on,,,,,1,0,1,,,,,,0,,79,0
20693,note_on,,,,,1,0,1,,,,,,0,,84,0
20694,note_on,,,,,1,0,1,,,,,,0,,81,0
20697,note_on,,,,,3,0,1,,,,,,0,,52,61
20700,note_on,,,,,3,0,1,,,,,,0,,76,0
20702,note_on,,,,,2,0,1,,,,,,0,,72,60
20712,control_change,,,,,10,0,1,,,,64,0,0,,,
20712,set_tempo,,,,,24,1,0,,508475,,,,,,,
20720,control_change,,,,,8,0,1,,,,64,127,0,,,
20735,note_on,,,,,15,0,1,,,,,,0,,79,61
20736,set_tempo,,,,,24,1,0,,512821,,,,,,,
20742,note_on,,,,,7,0,1,,,,,,0,,72,0
20745,control_change,,,,,3,0,1,,,,64,0,0,,,
20759,control_change,,,,,14,0,1,,,,64,127,0,,,
20760,set_tempo,,,,,24,1,0,,517241,,,,,,,
20765,note_on,,,,,6,0,1,,,,,,0,,76,37
20777,note_on,,,,,12,0,1,,,,,,0,,81,63
20779,note_on,,,,,0,0,1,,,,,,0,,84,64
20779,note_on,,,,,2,0,1,,,,,,0,,46,67
20780,note_on,,,,,1,0,1,,,,,,0,,79,0
20782,note_on,,,,,0,0,1,,,,,,0,,76,0
20782,note_on,,,,,2,0,1,,,,,,0,,52,0
20784,set_tempo,,,,,24,1,0,,521739,,,,,,,
20805,note_on,,,,,23,0,1,,,,,,0,,79,67
20808,set_tempo,,,,,24,1,0,,526316,,,,,,,
20825,note_on,,,,,20,0,1,,,,,,0,,76,54
20832,set_tempo,,,,,24,1,0,,530973,,,,,,,
20848,note_on,,,,,23,0,1,,,,,,0,,72,59
20856,set_tempo,,,,,24,1,0,,535714,,,,,,,
20863,note_on,,,,,15,0,1,,,,,,0,,46,0
20869,note_on,,,,,6,0,1,,,,,,0,,76,0
20871,note_on,,,,,2,0,1,,,,,,0,,72,0
20875,note_on,,,,,4,0,1,,,,,,0,,79,0
20880,set_tempo,,,,,24,1,0,,540541,,,,,,,
20880,note_on,,,,,0,0,1,,,,,,0,,45,75
20880,note_on,,,,,5,0,1,,,,,,0,,81,0
20883,control_change,,,,,3,0,1,,,,64,0,0,,,
20887,note_on,,,,,4,0,1,,,,,,0,,84,0
20900,set_tempo,,,,,20,1,0,,517241,,,,,,,
20902,control_change,,,,,15,0,1,,,,64,127,0,,,
20918,set_tempo,,,,,18,1,0,,512821,,,,,,,
20938,set_tempo,,,,,20,1,0,,508475,,,,,,,
20956,set_tempo,,,,,18,1,0,,504202,,,,,,,
20959,note_on,,,,,57,0,1,,,,,,0,,48,66
20960,note_on,,,,,1,0,1,,,,,,0,,93,78
20976,set_tempo,,,,,20,1,0,,500000,,,,,,,
20991,note_on,,,,,31,0,1,,,,,,0,,84,63
20994,set_tempo,,,,,18,1,0,,495868,,,,,,,
21008,note_on,,,,,17,0,1,,,,,,0,,84,0
21014,note_on,,,,,6,0,1,,,,,,0,,81,48
21014,set_tempo,,,,,20,1,0,,491803,,,,,,,
21032,set_tempo,,,,,18,1,0,,487805,,,,,,,
21037,note_on,,,,,23,0,1,,,,,,0,,84,68
21039,note_on,,,,,2,0,1,,,,,,0,,81,0
21040,note_on,,,,,1,0,1,,,,,,0,,53,69
21051,note_on,,,,,11,0,1,,,,,,0,,45,0
21052,set_tempo,,,,,20,1,0,,483871,,,,,,,
21058,note_on,,,,,7,0,1,,,,,,0,,84,0
21060,note_on,,,,,2,0,1,,,,,,0,,48,0
21067,note_on,,,,,7,0,1,,,,,,0,,81,59
21070,set_tempo,,,,,18,1,0,,480000,,,,,,,
21073,note_on,,,,,6,0,1,,,,,,0,,93,0
21088,note_on,,,,,15,0,1,,,,,,0,,84,60
21089,note_on,,,,,1,0,1,,,,,,0,,81,0
21115,note_on,,,,,26,0,1,,,,,,0,,84,0
21116,note_on,,,,,1,0,1,,,,,,0,,53,0
21116,note_on,,,,,0,0,1,,,,,,0,,91,78
21117,control_change,,,,,1,0,1,,,,64,0,0,,,
21118,note_on,,,,,1,0,1,,,,,,0,,55,69
21132,control_change,,,,,14,0,1,,,,64,127,0,,,
21145,note_on,,,,,13,0,1,,,,,,0,,84,69
21166,note_on,,,,,21,0,1,,,,,,0,,91,0
21167,note_on,,,,,1,0,1,,,,,,0,,81,57
21169,note_on,,,,,2,0,1,,,,,,0,,84,0
21172,control_change,,,,,3,0,1,,,,64,0,0,,,
21194,note_on,,,,,22,0,1,,,,,,0,,56,82
21196,note_on,,,,,2,0,1,,,,,,0,,81,0
21196,note_on,,,,,0,0,1,,,,,,0,,88,70
21200,note_on,,,,,4,0,1,,,,,,0,,55,0
21202,control_change,,,,,2,0,1,,,,64,127,0,,,
21225,note_on,,,,,23,0,1,,,,,,0,,84,62
21244,note_on,,,,,19,0,1,,,,,,0,,88,0
21252,note_on,,,,,8,0,1,,,,,,0,,81,46
21253,note_on,,,,,1,0,1,,,,,,0,,84,0
21274,note_on,,,,,21,0,1,,,,,,0,,81,0
21280,note_on,,,,,6,0,1,,,,,,0,,91,77
21307,note_on,,,,,27,0,1,,,,,,0,,84,64
21328,note_on,,,,,21,0,1,,,,,,0,,91,0
21330,note_on,,,,,2,0,1,,,,,,0,,84,0
21334,note_on,,,,,4,0,1,,,,,,0,,81,47
21341,control_change,,,,,7,0,1,,,,64,0,0,,,
21350,note_on,,,,,9,0,1,,,,,,0,,56,0
21353,note_on,,,,,3,0,1,,,,,,0,,57,61
21357,note_on,,,,,4,0,1,,,,,,0,,89,71
21360,note_on,,,,,3,0,1,,,,,,0,,81,0
21371,control_change,,,,,11,0,1,,,,64,127,0,,,
21390,note_on,,,,,19,0,1,,,,,,0,,84,64
21400,note_on,,,,,10,0,1,,,,,,0,,89,0
21408,note_on,,,,,8,0,1,,,,,,0,,84,0
21409,note_on,,,,,1,0,1,,,,,,0,,81,63
21417,note_on,,,,,8,0,1,,,,,,0,,81,0
21422,note_on,,,,,5,0,1,,,,,,0,,57,0
21435,control_change,,,,,13,0,1,,,,64,0,0,,,
21437,note_on,,,,,2,0,1,,,,,,0,,53,72
21440,note_on,,,,,3,0,1,,,,,,0,,86,67
21460,control_change,,,,,20,0,1,,,,64,127,0,,,
21468,note_on,,,,,8,0,1,,,,,,0,,81,70
21477,note_on,,,,,9,0,1,,,,,,0,,86,0
21493,note_on,,,,,16,0,1,,,,,,0,,77,60
21494,note_on,,,,,1,0,1,,,,,,0,,81,0
21513,note_on,,,,,19,0,1,,,,,,0,,77,0
21514,note_on,,,,,1,0,1,,,,,,0,,53,0
21518,note_on,,,,,4,0,1,,,,,,0,,48,68
21520,control_change,,,,,2,0,1,,,,64,0,0,,,
21521,note_on,,,,,1,0,1,,,,,,0,,83,78
21545,control_change,,,,,24,0,1,,,,64,127,0,,,
21550,note_on,,,,,5,0,1,,,,,,0,,81,67
21559,note_on,,,,,9,0,1,,,,,,0,,83,0
21572,note_on,,,,,13,0,1,,,,,,0,,77,64
21573,note_on,,,,,1,0,1,,,,,,0,,81,0
21592,note_on,,,,,19,0,1,,,,,,0,,77,0
21597,note_on,,,,,5,0,1,,,,,,0,,86,76
21599,note_on,,,,,2,0,1,,,,,,0,,53,73
21602,control_change,,,,,3,0,1,,,,64,0,0,,,
21619,control_change,,,,,17,0,1,,,,64,127,0,,,
21628,note_on,,,,,9,0,1,,,,,,0,,81,48
21629,note_on,,,,,1,0,1,,,,,,0,,48,0
21636,note_on,,,,,7,0,1,,,,,,0,,86,0
21636,note_on,,,,,0,0,1,,,,,,0,,81,0
21646,note_on,,,,,10,0,1,,,,,,0,,77,69
21656,note_on,,,,,10,0,1,,,,,,0,,77,0
21667,note_on,,,,,11,0,1,,,,,,0,,53,0
21672,note_on,,,,,5,0,1,,,,,,0,,57,72
21675,control_change,,,,,0,0,1,,,,64,0,0,,,
21675,note_on,,,,,3,0,1,,,,,,0,,84,86
21695,control_change,,,,,20,0,1,,,,64,127,0,,,
21704,note_on,,,,,9,0,1,,,,,,0,,77,72
21724,note_on,,,,,20,0,1,,,,,,0,,72,60
21726,note_on,,,,,2,0,1,,,,,,0,,84,0
21730,note_on,,,,,4,0,1,,,,,,0,,77,0
21749,control_change,,,,,19,0,1,,,,64,0,0,,,
21751,note_on,,,,,2,0,1,,,,,,0,,82,85
21753,note_on,,,,,2,0,1,,,,,,0,,58,77
21756,note_on,,,,,3,0,1,,,,,,0,,57,0
21760,note_on,,,,,4,0,1,,,,,,0,,72,0
21773,control_change,,,,,13,0,1,,,,64,127,0,,,
21784,note_on,,,,,11,0,1,,,,,,0,,77,71
21791,note_on,,,,,7,0,1,,,,,,0,,82,0
21808,note_on,,,,,0,0,1,,,,,,0,,74,55
21808,note_on,,,,,17,0,1,,,,,,0,,77,0
21831,note_on,,,,,23,0,1,,,,,,0,,80,81
21833,control_change,,,,,2,0,1,,,,64,0,0,,,
21834,note_on,,,,,1,0,1,,,,,,0,,59,78
21836,note_on,,,,,2,0,1,,,,,,0,,58,0
21837,note_on,,,,,1,0,1,,,,,,0,,74,0
21860,note_on,,,,,23,0,1,,,,,,0,,77,62
21870,note_on,,,,,10,0,1,,,,,,0,,80,0
21872,control_change,,,,,2,0,1,,,,64,127,0,,,
21885,note_on,,,,,13,0,1,,,,,,0,,77,0
21886,note_on,,,,,1,0,1,,,,,,0,,74,46
21897,note_on,,,,,11,0,1,,,,,,0,,74,0
21908,note_on,,,,,11,0,1,,,,,,0,,81,70
21917,control_change,,,,,9,0,1,,,,64,0,0,,,
21924,control_change,,,,,7,0,1,,,,64,127,0,,,
21941,note_on,,,,,17,0,1,,,,,,0,,77,62
21948,set_tempo,,,,,878,1,0,,480000,,,,,,,
21955,note_on,,,,,14,0,1,,,,,,0,,81,0
21956,set_tempo,,,,,8,1,0,,483871,,,,,,,
21964,set_tempo,,,,,8,1,0,,487805,,,,,,,
21965,note_on,,,,,10,0,1,,,,,,0,,74,42
21966,note_on,,,,,1,0,1,,,,,,0,,77,0
21972,set_tempo,,,,,8,1,0,,491803,,,,,,,
21975,note_on,,,,,9,0,1,,,,,,0,,74,0
21980,set_tempo,,,,,8,1,0,,495868,,,,,,,
21986,control_change,,,,,11,0,1,,,,64,0,0,,,
21988,note_on,,,,,0,0,1,,,,,,0,,81,75
21988,note_on,,,,,0,0,1,,,,,,0,,60,63
21988,set_tempo,,,,,8,1,0,,500000,,,,,,,
21988,note_on,,,,,2,0,1,,,,,,0,,59,0
21996,set_tempo,,,,,8,1,0,,504202,,,,,,,
22004,set_tempo,,,,,8,1,0,,508475,,,,,,,
22012,control_change,,,,,24,0,1,,,,64,127,0,,,
22012,set_tempo,,,,,8,1,0,,512821,,,,,,,
22015,note_on,,,,,3,0,1,,,,,,0,,77,65
22020,set_tempo,,,,,8,1,0,,517241,,,,,,,
22027,note_on,,,,,12,0,1,,,,,,0,,81,0
22028,set_tempo,,,,,8,1,0,,521739,,,,,,,
22036,set_tempo,,,,,8,1,0,,526316,,,,,,,
22040,note_on,,,,,13,0,1,,,,,,0,,77,0
22044,note_on,,,,,4,0,1,,,,,,0,,69,58
22044,set_tempo,,,,,8,1,0,,530973,,,,,,,
22052,set_tempo,,,,,8,1,0,,535714,,,,,,,
22060,set_tempo,,,,,8,1,0,,540541,,,,,,,
22061,note_on,,,,,17,0,1,,,,,,0,,69,0
22063,note_on,,,,,2,0,1,,,,,,0,,60,0
22064,control_change,,,,,1,0,1,,,,64,0,0,,,
22066,note_on,,,,,2,0,1,,,,,,0,,57,60
22068,set_tempo,,,,,8,1,0,,545455,,,,,,,
22071,note_on,,,,,5,0,1,,,,,,0,,79,81
22076,set_tempo,,,,,8,1,0,,550459,,,,,,,
22082,set_tempo,,,,,6,1,0,,555556,,,,,,,
22087,control_change,,,,,16,0,1,,,,64,127,0,,,
22096,set_tempo,,,,,14,1,0,,550459,,,,,,,
22108,note_on,,,,,21,0,1,,,,,,0,,72,63
22110,set_tempo,,,,,14,1,0,,545455,,,,,,,
22124,set_tempo,,,,,14,1,0,,540541,,,,,,,
22126,note_on,,,,,18,0,1,,,,,,0,,79,0
22126,note_on,,,,,0,0,1,,,,,,0,,69,64
22135,note_on,,,,,9,0,1,,,,,,0,,72,0
22138,set_tempo,,,,,14,1,0,,535714,,,,,,,
22139,note_on,,,,,4,0,1,,,,,,0,,57,0
22144,control_change,,,,,5,0,1,,,,64,0,0,,,
22147,note_on,,,,,3,0,1,,,,,,0,,53,68
22152,set_tempo,,,,,14,1,0,,530973,,,,,,,
22153,note_on,,,,,6,0,1,,,,,,0,,69,0
22154,note_on,,,,,1,0,1,,,,,,0,,76,68
22166,set_tempo,,,,,14,1,0,,526316,,,,,,,
22174,control_change,,,,,20,0,1,,,,64,127,0,,,
22180,set_tempo,,,,,14,1,0,,521739,,,,,,,
22185,note_on,,,,,11,0,1,,,,,,0,,72,69
22194,set_tempo,,,,,14,1,0,,517241,,,,,,,
22202,note_on,,,,,17,0,1,,,,,,0,,76,0
22206,note_on,,,,,4,0,1,,,,,,0,,69,53
22208,set_tempo,,,,,14,1,0,,512821,,,,,,,
22211,note_on,,,,,5,0,1,,,,,,0,,72,0
22222,set_tempo,,,,,14,1,0,,508475,,,,,,,
22223,note_on,,,,,12,0,1,,,,,,0,,69,0
22227,control_change,,,,,4,0,1,,,,64,0,0,,,
22228,note_on,,,,,1,0,1,,,,,,0,,79,49
22234,note_on,,,,,6,0,1,,,,,,0,,57,64
22236,set_tempo,,,,,14,1,0,,504202,,,,,,,
22244,control_change,,,,,10,0,1,,,,64,127,0,,,
22250,set_tempo,,,,,14,1,0,,500000,,,,,,,
22252,note_on,,,,,8,0,1,,,,,,0,,53,0
22261,note_on,,,,,9,0,1,,,,,,0,,72,64
22264,set_tempo,,,,,14,1,0,,495868,,,,,,,
22278,set_tempo,,,,,14,1,0,,491803,,,,,,,
22283,note_on,,,,,22,0,1,,,,,,0,,79,0
22285,note_on,,,,,2,0,1,,,,,,0,,69,64
22290,note_on,,,,,5,0,1,,,,,,0,,72,0
22292,set_tempo,,,,,14,1,0,,487805,,,,,,,
22305,control_change,,,,,15,0,1,,,,64,0,0,,,
22306,note_on,,,,,1,0,1,,,,,,0,,57,0
22306,set_tempo,,,,,14,1,0,,483871,,,,,,,
22308,note_on,,,,,2,0,1,,,,,,0,,69,0
22310,note_on,,,,,2,0,1,,,,,,0,,60,48
22313,note_on,,,,,3,0,1,,,,,,0,,77,63
22320,set_tempo,,,,,14,1,0,,480000,,,,,,,
22326,control_change,,,,,13,0,1,,,,64,127,0,,,
22348,note_on,,,,,22,0,1,,,,,,0,,72,59
22356,note_on,,,,,8,0,1,,,,,,0,,77,0
22368,note_on,,,,,12,0,1,,,,,,0,,69,61
22371,note_on,,,,,3,0,1,,,,,,0,,72,0
22390,control_change,,,,,19,0,1,,,,64,0,0,,,
22392,note_on,,,,,2,0,1,,,,,,0,,60,0
22392,note_on,,,,,0,0,1,,,,,,0,,64,65
22393,note_on,,,,,1,0,1,,,,,,0,,69,0
22398,note_on,,,,,5,0,1,,,,,,0,,76,56
22408,control_change,,,,,10,0,1,,,,64,127,0,,,
22432,note_on,,,,,24,0,1,,,,,,0,,72,49
22442,note_on,,,,,10,0,1,,,,,,0,,76,0
22455,note_on,,,,,13,0,1,,,,,,0,,69,50
22457,note_on,,,,,2,0,1,,,,,,0,,72,0
22467,note_on,,,,,10,0,1,,,,,,0,,64,0
22478,note_on,,,,,11,0,1,,,,,,0,,67,54
22480,note_on,,,,,2,0,1,,,,,,0,,75,65
22484,control_change,,,,,4,0,1,,,,64,0,0,,,
22488,note_on,,,,,4,0,1,,,,,,0,,69,0
22512,note_on,,,,,24,0,1,,,,,,0,,72,53
22518,note_on,,,,,6,0,1,,,,,,0,,75,0
22537,note_on,,,,,0,0,1,,,,,,0,,69,37
22537,note_on,,,,,19,0,1,,,,,,0,,72,0
22549,note_on,,,,,12,0,1,,,,,,0,,69,0
22562,note_on,,,,,13,0,1,,,,,,0,,65,62
22563,note_on,,,,,1,0,1,,,,,,0,,80,78
22568,control_change,,,,,5,0,1,,,,64,127,0,,,
22569,note_on,,,,,1,0,1,,,,,,0,,67,0
22597,note_on,,,,,28,0,1,,,,,,0,,75,67
22601,note_on,,,,,4,0,1,,,,,,0,,80,0
22619,note_on,,,,,18,0,1,,,,,,0,,75,0
22622,note_on,,,,,3,0,1,,,,,,0,,72,62
22644,note_on,,,,,22,0,1,,,,,,0,,72,0
22653,note_on,,,,,9,0,1,,,,,,0,,81,71
22686,note_on,,,,,33,0,1,,,,,,0,,75,62
22700,note_on,,,,,14,0,1,,,,,,0,,81,0
22712,note_on,,,,,12,0,1,,,,,,0,,75,0
22712,note_on,,,,,0,0,1,,,,,,0,,72,57
22726,note_on,,,,,14,0,1,,,,,,0,,72,0
22735,note_on,,,,,9,0,1,,,,,,0,,65,0
22748,note_on,,,,,13,0,1,,,,,,0,,63,65
22749,note_on,,,,,1,0,1,,,,,,0,,83,69
22752,control_change,,,,,3,0,1,,,,64,0,0,,,
22783,note_on,,,,,31,0,1,,,,,,0,,81,62
22784,note_on,,,,,1,0,1,,,,,,0,,83,0
22807,note_on,,,,,23,0,1,,,,,,0,,81,0
22815,note_on,,,,,8,0,1,,,,,,0,,77,53
22842,note_on,,,,,27,0,1,,,,,,0,,77,0
22849,note_on,,,,,7,0,1,,,,,,0,,85,71
22853,note_on,,,,,4,0,1,,,,,,0,,63,0
22856,note_on,,,,,3,0,1,,,,,,0,,64,63
22883,note_on,,,,,27,0,1,,,,,,0,,81,60
22895,note_on,,,,,12,0,1,,,,,,0,,85,0
22898,control_change,,,,,3,0,1,,,,64,127,0,,,
22912,note_on,,,,,14,0,1,,,,,,0,,81,0
22916,note_on,,,,,4,0,1,,,,,,0,,76,59
22924,note_on,,,,,8,0,1,,,,,,0,,76,0
22940,note_on,,,,,16,0,1,,,,,,0,,64,0
22944,note_on,,,,,4,0,1,,,,,,0,,73,69
22977,note_on,,,,,33,0,1,,,,,,0,,69,46
22999,note_on,,,,,22,0,1,,,,,,0,,64,63
23005,note_on,,,,,6,0,1,,,,,,0,,73,0
23012,note_on,,,,,7,0,1,,,,,,0,,69,0
23014,note_on,,,,,2,0,1,,,,,,0,,64,0
23034,note_on,,,,,20,0,1,,,,,,0,,57,55
23036,note_on,,,,,2,0,1,,,,,,0,,61,63
23061,note_on,,,,,25,0,1,,,,,,0,,66,49
23090,note_on,,,,,29,0,1,,,,,,0,,64,58
23094,note_on,,,,,4,0,1,,,,,,0,,61,0
23102,note_on,,,,,8,0,1,,,,,,0,,57,0
23104,note_on,,,,,2,0,1,,,,,,0,,66,0
23111,note_on,,,,,7,0,1,,,,,,0,,64,0
23120,note_on,,,,,9,0,1,,,,,,0,,85,65
23122,note_on,,,,,2,0,1,,,,,,0,,81,62
23155,note_on,,,,,33,0,1,,,,,,0,,85,0
23155,note_on,,,,,0,0,1,,,,,,0,,78,62
23172,note_on,,,,,17,0,1,,,,,,0,,81,0
23174,note_on,,,,,2,0,1,,,,,,0,,76,63
23184,note_on,,,,,10,0,1,,,,,,0,,78,0
23186,note_on,,,,,2,0,1,,,,,,0,,76,0
23204,note_on,,,,,0,0,1,,,,,,0,,69,59
23204,note_on,,,,,18,0,1,,,,,,0,,73,60
23234,note_on,,,,,30,0,1,,,,,,0,,78,68
23259,note_on,,,,,25,0,1,,,,,,0,,76,56
23260,note_on,,,,,1,0,1,,,,,,0,,73,0
23268,note_on,,,,,8,0,1,,,,,,0,,69,0
23274,note_on,,,,,6,0,1,,,,,,0,,78,0
23281,note_on,,,,,7,0,1,,,,,,0,,76,0
23291,note_on,,,,,10,0,1,,,,,,0,,97,58
23292,note_on,,,,,1,0,1,,,,,,0,,93,60
23318,note_on,,,,,26,0,1,,,,,,0,,90,52
23322,note_on,,,,,4,0,1,,,,,,0,,97,0
23337,note_on,,,,,15,0,1,,,,,,0,,93,0
23342,note_on,,,,,5,0,1,,,,,,0,,88,56
23350,note_on,,,,,8,0,1,,,,,,0,,90,0
23355,note_on,,,,,5,0,1,,,,,,0,,88,0
23368,note_on,,,,,13,0,1,,,,,,0,,85,53
23374,note_on,,,,,6,0,1,,,,,,0,,81,68
23398,set_tempo,,,,,1078,1,0,,476190,,,,,,,
23400,note_on,,,,,26,0,1,,,,,,0,,78,47
23416,set_tempo,,,,,18,1,0,,480000,,,,,,,
23417,note_on,,,,,17,0,1,,,,,,0,,85,0
23421,note_on,,,,,4,0,1,,,,,,0,,76,49
23428,note_on,,,,,7,0,1,,,,,,0,,81,0
23432,set_tempo,,,,,16,1,0,,483871,,,,,,,
23434,note_on,,,,,6,0,1,,,,,,0,,78,0
23436,note_on,,,,,2,0,1,,,,,,0,,76,0
23448,set_tempo,,,,,16,1,0,,487805,,,,,,,
23451,note_on,,,,,15,0,1,,,,,,0,,85,62
23453,note_on,,,,,2,0,1,,,,,,0,,88,55
23464,set_tempo,,,,,16,1,0,,491803,,,,,,,
23482,set_tempo,,,,,18,1,0,,495868,,,,,,,
23484,note_on,,,,,31,0,1,,,,,,0,,83,53
23497,note_on,,,,,13,0,1,,,,,,0,,88,0
23498,set_tempo,,,,,16,1,0,,500000,,,,,,,
23510,note_on,,,,,13,0,1,,,,,,0,,81,59
23514,set_tempo,,,,,16,1,0,,504202,,,,,,,
23520,note_on,,,,,10,0,1,,,,,,0,,83,0
23520,note_on,,,,,0,0,1,,,,,,0,,85,0
23526,control_change,,,,,6,0,1,,,,64,0,0,,,
23530,set_tempo,,,,,16,1,0,,508475,,,,,,,
23531,note_on,,,,,5,0,1,,,,,,0,,81,0
23532,note_on,,,,,1,0,1,,,,,,0,,76,64
23548,set_tempo,,,,,18,1,0,,512821,,,,,,,
23564,set_tempo,,,,,16,1,0,,517241,,,,,,,
23564,control_change,,,,,32,0,1,,,,64,127,0,,,
23566,note_on,,,,,2,0,1,,,,,,0,,83,57
23571,note_on,,,,,5,0,1,,,,,,0,,76,0
23580,note_on,,,,,9,0,1,,,,,,0,,57,64
23580,set_tempo,,,,,16,1,0,,521739,,,,,,,
23588,note_on,,,,,0,0,1,,,,,,0,,80,60
23588,note_on,,,,,8,0,1,,,,,,0,,57,0
23596,set_tempo,,,,,16,1,0,,526316,,,,,,,
23612,set_tempo,,,,,16,1,0,,521739,,,,,,,
23614,note_on,,,,,26,0,1,,,,,,0,,88,65
23615,note_on,,,,,1,0,1,,,,,,0,,85,61
23616,note_on,,,,,1,0,1,,,,,,0,,83,0
23621,note_on,,,,,5,0,1,,,,,,0,,74,55
23626,set_tempo,,,,,14,1,0,,517241,,,,,,,
23626,note_on,,,,,5,0,1,,,,,,0,,80,0
23642,set_tempo,,,,,16,1,0,,512821,,,,,,,
23644,note_on,,,,,18,0,1,,,,,,0,,83,65
23655,note_on,,,,,11,0,1,,,,,,0,,88,0
23656,set_tempo,,,,,14,1,0,,508475,,,,,,,
23670,set_tempo,,,,,14,1,0,,504202,,,,,,,
23672,note_on,,,,,17,0,1,,,,,,0,,80,61
23680,note_on,,,,,8,0,1,,,,,,0,,85,0
23680,note_on,,,,,0,0,1,,,,,,0,,83,0
23686,set_tempo,,,,,16,1,0,,500000,,,,,,,
23690,note_on,,,,,10,0,1,,,,,,0,,80,0
23696,note_on,,,,,6,0,1,,,,,,0,,76,62
23700,set_tempo,,,,,14,1,0,,495868,,,,,,,
23714,set_tempo,,,,,14,1,0,,491803,,,,,,,
23729,note_on,,,,,33,0,1,,,,,,0,,83,58
23730,set_tempo,,,,,16,1,0,,487805,,,,,,,
23737,note_on,,,,,8,0,1,,,,,,0,,76,0
23744,set_tempo,,,,,14,1,0,,483871,,,,,,,
23755,note_on,,,,,18,0,1,,,,,,0,,80,35
23758,set_tempo,,,,,14,1,0,,480000,,,,,,,
23768,note_on,,,,,13,0,1,,,,,,0,,83,0
23773,note_on,,,,,5,0,1,,,,,,0,,88,66
23773,note_on,,,,,0,0,1,,,,,,0,,85,61
23774,note_on,,,,,1,0,1,,,,,,0,,80,0
23776,control_change,,,,,0,0,1,,,,64,0,0,,,
23776,note_on,,,,,2,0,1,,,,,,0,,73,65
23787,note_on,,,,,11,0,1,,,,,,0,,74,0
23794,control_change,,,,,7,0,1,,,,64,127,0,,,
23799,note_on,,,,,5,0,1,,,,,,0,,83,60
23816,note_on,,,,,17,0,1,,,,,,0,,88,0
23825,note_on,,,,,9,0,1,,,,,,0,,80,61
23834,control_change,,,,,9,0,1,,,,64,0,0,,,
23839,note_on,,,,,5,0,1,,,,,,0,,83,0
23840,note_on,,,,,1,0,1,,,,,,0,,85,0
23846,note_on,,,,,6,0,1,,,,,,0,,80,0
23847,control_change,,,,,1,0,1,,,,64,127,0,,,
23849,note_on,,,,,2,0,1,,,,,,0,,76,67
23852,note_on,,,,,3,0,1,,,,,,0,,70,66
23866,note_on,,,,,14,0,1,,,,,,0,,73,0
23875,note_on,,,,,9,0,1,,,,,,0,,83,63
23881,control_change,,,,,6,0,1,,,,64,0,0,,,
23891,control_change,,,,,10,0,1,,,,64,127,0,,,
23892,note_on,,,,,1,0,1,,,,,,0,,76,0
23900,note_on,,,,,8,0,1,,,,,,0,,70,0
23908,note_on,,,,,8,0,1,,,,,,0,,73,47
23909,note_on,,,,,1,0,1,,,,,,0,,80,60
23918,control_change,,,,,9,0,1,,,,64,0,0,,,
23924,note_on,,,,,6,0,1,,,,,,0,,83,0
23927,control_change,,,,,3,0,1,,,,64,127,0,,,
23928,note_on,,,,,0,0,1,,,,,,0,,71,64
23928,note_on,,,,,1,0,1,,,,,,0,,88,62
23931,note_on,,,,,3,0,1,,,,,,0,,85,74
23933,note_on,,,,,2,0,1,,,,,,0,,73,0
23935,note_on,,,,,2,0,1,,,,,,0,,80,0
23950,control_change,,,,,15,0,1,,,,64,0,0,,,
23956,control_change,,,,,6,0,1,,,,64,127,0,,,
23959,note_on,,,,,3,0,1,,,,,,0,,83,52
23982,control_change,,,,,23,0,1,,,,64,0,0,,,
23989,note_on,,,,,7,0,1,,,,,,0,,88,0
23989,control_change,,,,,0,0,1,,,,64,127,0,,,
23990,note_on,,,,,1,0,1,,,,,,0,,80,61
24002,note_on,,,,,12,0,1,,,,,,0,,83,0
24004,note_on,,,,,2,0,1,,,,,,0,,85,0
24011,note_on,,,,,0,0,1,,,,,,0,,68,60
24011,note_on,,,,,7,0,1,,,,,,0,,80,0
24012,note_on,,,,,1,0,1,,,,,,0,,71,0
24014,note_on,,,,,2,0,1,,,,,,0,,76,56
24019,control_change,,,,,5,0,1,,,,64,0,0,,,
24028,control_change,,,,,9,0,1,,,,64,127,0,,,
24040,note_on,,,,,12,0,1,,,,,,0,,83,63
24052,note_on,,,,,12,0,1,,,,,,0,,76,0
24055,control_change,,,,,3,0,1,,,,64,0,0,,,
24063,control_change,,,,,8,0,1,,,,64,127,0,,,
24067,note_on,,,,,4,0,1,,,,,,0,,80,51
24078,note_on,,,,,11,0,1,,,,,,0,,83,0
24084,note_on,,,,,6,0,1,,,,,,0,,85,53
24085,note_on,,,,,1,0,1,,,,,,0,,88,65
24086,note_on,,,,,0,0,1,,,,,,0,,62,50
24086,note_on,,,,,1,0,1,,,,,,0,,68,0
24087,note_on,,,,,1,0,1,,,,,,0,,80,0
24108,control_change,,,,,21,0,1,,,,64,0,0,,,
24112,note_on,,,,,4,0,1,,,,,,0,,83,63
24120,control_change,,,,,8,0,1,,,,64,127,0,,,
24126,note_on,,,,,6,0,1,,,,,,0,,88,0
24134,note_on,,,,,8,0,1,,,,,,0,,80,65
24144,control_change,,,,,10,0,1,,,,64,0,0,,,
24151,note_on,,,,,7,0,1,,,,,,0,,85,0
24152,note_on,,,,,1,0,1,,,,,,0,,76,62
24153,control_change,,,,,1,0,1,,,,64,127,0,,,
24154,note_on,,,,,1,0,1,,,,,,0,,83,0
24161,note_on,,,,,7,0,1,,,,,,0,,80,0
24172,note_on,,,,,11,0,1,,,,,,0,,76,0
24184,note_on,,,,,12,0,1,,,,,,0,,63,76
24189,note_on,,,,,5,0,1,,,,,,0,,62,0
24199,control_change,,,,,10,0,1,,,,64,0,0,,,
24212,note_on,,,,,13,0,1,,,,,,0,,66,67
24225,note_on,,,,,13,0,1,,,,,,0,,63,0
24236,note_on,,,,,11,0,1,,,,,,0,,64,51
24249,note_on,,,,,13,0,1,,,,,,0,,66,0
24256,control_change,,,,,7,0,1,,,,64,127,0,,,
24275,note_on,,,,,19,0,1,,,,,,0,,73,70
24277,note_on,,,,,2,0,1,,,,,,0,,64,0
24278,note_on,,,,,1,0,1,,,,,,0,,69,57
24302,note_on,,,,,24,0,1,,,,,,0,,66,57
24316,note_on,,,,,14,0,1,,,,,,0,,73,0
24323,note_on,,,,,7,0,1,,,,,,0,,64,69
24327,note_on,,,,,4,0,1,,,,,,0,,69,0
24337,note_on,,,,,10,0,1,,,,,,0,,66,0
24340,note_on,,,,,3,0,1,,,,,,0,,64,0
24351,note_on,,,,,11,0,1,,,,,,0,,57,63
24357,note_on,,,,,6,0,1,,,,,,0,,61,70
24384,note_on,,,,,27,0,1,,,,,,0,,66,61
24402,note_on,,,,,18,0,1,,,,,,0,,64,64
24408,note_on,,,,,6,0,1,,,,,,0,,61,0
24416,note_on,,,,,8,0,1,,,,,,0,,57,0
24422,note_on,,,,,6,0,1,,,,,,0,,66,0
24429,note_on,,,,,7,0,1,,,,,,0,,64,0
24437,note_on,,,,,8,0,1,,,,,,0,,85,63
24441,note_on,,,,,4,0,1,,,,,,0,,81,62
24470,note_on,,,,,29,0,1,,,,,,0,,78,62
24476,note_on,,,,,6,0,1,,,,,,0,,85,0
24485,note_on,,,,,9,0,1,,,,,,0,,81,0
24490,note_on,,,,,5,0,1,,,,,,0,,76,64
24500,note_on,,,,,0,0,1,,,,,,0,,78,0
24500,note_on,,,,,10,0,1,,,,,,0,,76,0
24518,note_on,,,,,18,0,1,,,,,,0,,73,62
24520,note_on,,,,,2,0,1,,,,,,0,,69,58
24547,note_on,,,,,27,0,1,,,,,,0,,78,54
24570,note_on,,,,,23,0,1,,,,,,0,,76,56
24571,note_on,,,,,1,0,1,,,,,,0,,73,0
24582,note_on,,,,,11,0,1,,,,,,0,,69,0
24587,note_on,,,,,5,0,1,,,,,,0,,78,0
24593,note_on,,,,,6,0,1,,,,,,0,,76,0
24601,note_on,,,,,8,0,1,,,,,,0,,97,63
24604,note_on,,,,,3,0,1,,,,,,0,,93,61
24630,note_on,,,,,26,0,1,,,,,,0,,90,59
24636,note_on,,,,,6,0,1,,,,,,0,,97,0
24648,note_on,,,,,12,0,1,,,,,,0,,93,0
24655,note_on,,,,,7,0,1,,,,,,0,,88,59
24663,note_on,,,,,8,0,1,,,,,,0,,90,0
24670,note_on,,,,,7,0,1,,,,,,0,,88,0
24677,note_on,,,,,7,0,1,,,,,,0,,85,65
24682,note_on,,,,,5,0,1,,,,,,0,,81,69
24704,note_on,,,,,22,0,1,,,,,,0,,78,48
24718,note_on,,,,,14,0,1,,,,,,0,,85,0
24724,note_on,,,,,6,0,1,,,,,,0,,76,60
24730,note_on,,,,,6,0,1,,,,,,0,,81,0
24735,note_on,,,,,5,0,1,,,,,,0,,78,0
24742,note_on,,,,,7,0,1,,,,,,0,,76,0
24759,note_on,,,,,17,0,1,,,,,,0,,85,60
24762,note_on,,,,,3,0,1,,,,,,0,,88,37
24790,note_on,,,,,28,0,1,,,,,,0,,83,56
24816,note_on,,,,,26,0,1,,,,,,0,,81,61
24820,note_on,,,,,4,0,1,,,,,,0,,88,0
24824,note_on,,,,,4,0,1,,,,,,0,,83,0
24826,control_change,,,,,2,0,1,,,,64,0,0,,,
24835,note_on,,,,,9,0,1,,,,,,0,,85,0
24838,note_on,,,,,3,0,1,,,,,,0,,76,62
24839,note_on,,,,,1,0,1,,,,,,0,,81,0
24860,control_change,,,,,21,0,1,,,,64,127,0,,,
24876,note_on,,,,,16,0,1,,,,,,0,,83,57
24883,note_on,,,,,7,0,1,,,,,,0,,76,0
24894,note_on,,,,,11,0,1,,,,,,0,,80,49
24901,note_on,,,,,7,0,1,,,,,,0,,57,71
24919,note_on,,,,,18,0,1,,,,,,0,,57,0
24920,note_on,,,,,1,0,1,,,,,,0,,85,62
24923,note_on,,,,,3,0,1,,,,,,0,,88,66
24924,note_on,,,,,1,0,1,,,,,,0,,80,0
24925,note_on,,,,,1,0,1,,,,,,0,,83,0
24939,note_on,,,,,14,0,1,,,,,,0,,74,64
24952,note_on,,,,,13,0,1,,,,,,0,,83,63
24965,note_on,,,,,13,0,1,,,,,,0,,88,0
24978,note_on,,,,,13,0,1,,,,,,0,,80,56
24988,note_on,,,,,10,0,1,,,,,,0,,85,0
24990,note_on,,,,,2,0,1,,,,,,0,,83,0
24998,note_on,,,,,8,0,1,,,,,,0,,80,0
25003,note_on,,,,,5,0,1,,,,,,0,,76,63
25034,note_on,,,,,31,0,1,,,,,,0,,83,47
25046,note_on,,,,,12,0,1,,,,,,0,,76,0
25058,note_on,,,,,12,0,1,,,,,,0,,80,53
25070,note_on,,,,,12,0,1,,,,,,0,,83,0
25081,note_on,,,,,11,0,1,,,,,,0,,85,66
25083,note_on,,,,,2,0,1,,,,,,0,,88,65
25086,note_on,,,,,3,0,1,,,,,,0,,80,0
25090,note_on,,,,,4,0,1,,,,,,0,,73,68
25096,note_on,,,,,6,0,1,,,,,,0,,74,0
25098,control_change,,,,,2,0,1,,,,64,0,0,,,
25112,note_on,,,,,14,0,1,,,,,,0,,83,59
25116,control_change,,,,,4,0,1,,,,64,127,0,,,
25132,note_on,,,,,16,0,1,,,,,,0,,88,0
25136,note_on,,,,,4,0,1,,,,,,0,,80,59
25149,control_change,,,,,13,0,1,,,,64,0,0,,,
25151,note_on,,,,,2,0,1,,,,,,0,,83,0
25153,note_on,,,,,2,0,1,,,,,,0,,85,0
25155,note_on,,,,,2,0,1,,,,,,0,,80,0
25160,note_on,,,,,5,0,1,,,,,,0,,76,63
25161,note_on,,,,,1,0,1,,,,,,0,,70,62
25162,control_change,,,,,1,0,1,,,,64,127,0,,,
25163,note_on,,,,,1,0,1,,,,,,0,,73,0
25186,note_on,,,,,23,0,1,,,,,,0,,83,57
25204,note_on,,,,,18,0,1,,,,,,0,,73,60
25205,note_on,,,,,1,0,1,,,,,,0,,76,0
25213,note_on,,,,,8,0,1,,,,,,0,,70,0
25217,note_on,,,,,4,0,1,,,,,,0,,80,56
25222,control_change,,,,,5,0,1,,,,64,0,0,,,
25228,control_change,,,,,6,0,1,,,,64,127,0,,,
25232,note_on,,,,,0,0,1,,,,,,0,,71,70
25232,note_on,,,,,4,0,1,,,,,,0,,83,0
25233,note_on,,,,,1,0,1,,,,,,0,,73,0
25235,note_on,,,,,2,0,1,,,,,,0,,85,67
25236,note_on,,,,,1,0,1,,,,,,0,,88,71
25242,note_on,,,,,6,0,1,,,,,,0,,80,0
25254,control_change,,,,,12,0,1,,,,64,0,0,,,
25262,control_change,,,,,8,0,1,,,,64,127,0,,,
25264,note_on,,,,,2,0,1,,,,,,0,,83,61
25286,control_change,,,,,22,0,1,,,,64,0,0,,,
25291,note_on,,,,,5,0,1,,,,,,0,,88,0
25292,note_on,,,,,1,0,1,,,,,,0,,80,59
25293,control_change,,,,,1,0,1,,,,64,127,0,,,
25304,note_on,,,,,11,0,1,,,,,,0,,83,0
25308,note_on,,,,,4,0,1,,,,,,0,,85,0
25312,note_on,,,,,4,0,1,,,,,,0,,80,0
25314,note_on,,,,,0,0,1,,,,,,0,,68,72
25314,note_on,,,,,2,0,1,,,,,,0,,76,63
25326,note_on,,,,,12,0,1,,,,,,0,,71,0
25340,note_on,,,,,14,0,1,,,,,,0,,83,69
25354,note_on,,,,,14,0,1,,,,,,0,,76,0
25370,note_on,,,,,16,0,1,,,,,,0,,80,54
25389,note_on,,,,,19,0,1,,,,,,0,,62,62
25389,note_on,,,,,0,0,1,,,,,,0,,85,61
25390,note_on,,,,,1,0,1,,,,,,0,,83,0
25390,note_on,,,,,0,0,1,,,,,,0,,88,69
25393,note_on,,,,,3,0,1,,,,,,0,,68,0
25397,note_on,,,,,4,0,1,,,,,,0,,80,0
25411,control_change,,,,,14,0,1,,,,64,0,0,,,
25417,control_change,,,,,6,0,1,,,,64,127,0,,,
25418,note_on,,,,,1,0,1,,,,,,0,,83,60
25437,note_on,,,,,19,0,1,,,,,,0,,88,0
25442,note_on,,,,,5,0,1,,,,,,0,,80,62
25445,control_change,,,,,3,0,1,,,,64,0,0,,,
25447,control_change,,,,,2,0,1,,,,64,127,0,,,
25460,note_on,,,,,13,0,1,,,,,,0,,83,0
25461,note_on,,,,,1,0,1,,,,,,0,,85,0
25469,note_on,,,,,8,0,1,,,,,,0,,80,0
25470,note_on,,,,,1,0,1,,,,,,0,,76,47
25477,note_on,,,,,7,0,1,,,,,,0,,63,72
25488,note_on,,,,,11,0,1,,,,,,0,,62,0
25492,note_on,,,,,4,0,1,,,,,,0,,83,49
25516,note_on,,,,,24,0,1,,,,,,0,,76,0
25520,control_change,,,,,4,0,1,,,,64,0,0,,,
25522,control_change,,,,,2,0,1,,,,64,127,0,,,
25531,note_on,,,,,9,0,1,,,,,,0,,80,63
25532,note_on,,,,,1,0,1,,,,,,0,,66,67
25539,note_on,,,,,7,0,1,,,,,,0,,63,0
25550,note_on,,,,,11,0,1,,,,,,0,,83,0
25551,control_change,,,,,1,0,1,,,,64,0,0,,,
25552,note_on,,,,,1,0,1,,,,,,0,,85,68
25555,note_on,,,,,3,0,1,,,,,,0,,88,67
25558,control_change,,,,,3,0,1,,,,64,127,0,,,
25559,note_on,,,,,1,0,1,,,,,,0,,64,72
25561,note_on,,,,,2,0,1,,,,,,0,,80,0
25574,note_on,,,,,13,0,1,,,,,,0,,66,0
25581,note_on,,,,,7,0,1,,,,,,0,,83,61
25596,control_change,,,,,15,0,1,,,,64,0,0,,,
25603,note_on,,,,,7,0,1,,,,,,0,,88,0
25613,note_on,,,,,10,0,1,,,,,,0,,81,64
25615,control_change,,,,,2,0,1,,,,64,127,0,,,
25626,note_on,,,,,11,0,1,,,,,,0,,83,0
25628,note_on,,,,,2,0,1,,,,,,0,,85,0
25638,note_on,,,,,10,0,1,,,,,,0,,76,51
25639,note_on,,,,,1,0,1,,,,,,0,,81,0
25640,note_on,,,,,1,0,1,,,,,,0,,61,56
25646,control_change,,,,,6,0,1,,,,64,0,0,,,
25647,note_on,,,,,1,0,1,,,,,,0,,64,0
25652,control_change,,,,,5,0,1,,,,64,127,0,,,
25666,note_on,,,,,14,0,1,,,,,,0,,83,60
25677,note_on,,,,,11,0,1,,,,,,0,,76,0
25684,control_change,,,,,7,0,1,,,,64,0,0,,,
25686,control_change,,,,,2,0,1,,,,64,127,0,,,
25696,note_on,,,,,10,0,1,,,,,,0,,81,58
25714,note_on,,,,,18,0,1,,,,,,0,,83,0
25715,control_change,,,,,1,0,1,,,,64,0,0,,,
25716,note_on,,,,,1,0,1,,,,,,0,,85,63
25717,note_on,,,,,1,0,1,,,,,,0,,57,61
25719,note_on,,,,,2,0,1,,,,,,0,,61,0
25723,control_change,,,,,4,0,1,,,,64,127,0,,,
25724,note_on,,,,,1,0,1,,,,,,0,,88,61
25725,note_on,,,,,1,0,1,,,,,,0,,81,0
25750,control_change,,,,,25,0,1,,,,64,0,0,,,
25753,note_on,,,,,3,0,1,,,,,,0,,83,62
25756,control_change,,,,,3,0,1,,,,64,127,0,,,
25772,note_on,,,,,0,0,1,,,,,,0,,81,57
25772,note_on,,,,,16,0,1,,,,,,0,,88,0
25782,control_change,,,,,10,0,1,,,,64,0,0,,,
25784,control_change,,,,,2,0,1,,,,64,127,0,,,
25791,note_on,,,,,7,0,1,,,,,,0,,83,0
25800,note_on,,,,,0,0,1,,,,,,0,,76,54
25800,note_on,,,,,9,0,1,,,,,,0,,81,0
25801,note_on,,,,,1,0,1,,,,,,0,,85,0
25804,note_on,,,,,3,0,1,,,,,,0,,58,63
25806,note_on,,,,,2,0,1,,,,,,0,,57,0
25824,control_change,,,,,18,0,1,,,,64,0,0,,,
25832,control_change,,,,,8,0,1,,,,64,127,0,,,
25834,note_on,,,,,2,0,1,,,,,,0,,83,62
25852,note_on,,,,,18,0,1,,,,,,0,,76,0
25856,note_on,,,,,4,0,1,,,,,,0,,61,41
25859,control_change,,,,,3,0,1,,,,64,0,0,,,
25863,note_on,,,,,4,0,1,,,,,,0,,80,56
25868,control_change,,,,,5,0,1,,,,64,127,0,,,
25872,note_on,,,,,4,0,1,,,,,,0,,58,0
25876,note_on,,,,,4,0,1,,,,,,0,,59,67
25879,note_on,,,,,3,0,1,,,,,,0,,61,0
25882,note_on,,,,,3,0,1,,,,,,0,,83,0
25884,note_on,,,,,2,0,1,,,,,,0,,88,61
25886,note_on,,,,,2,0,1,,,,,,0,,85,61
25893,note_on,,,,,7,0,1,,,,,,0,,80,0
25899,control_change,,,,,6,0,1,,,,64,0,0,,,
25904,control_change,,,,,5,0,1,,,,64,127,0,,,
25919,note_on,,,,,15,0,1,,,,,,0,,83,54
25922,set_tempo,,,,,2164,1,0,,476190,,,,,,,
25933,control_change,,,,,14,0,1,,,,64,0,0,,,
25938,note_on,,,,,5,0,1,,,,,,0,,88,0
25940,control_change,,,,,2,0,1,,,,64,127,0,,,
25942,set_tempo,,,,,20,1,0,,480000,,,,,,,
25950,note_on,,,,,10,0,1,,,,,,0,,80,56
25957,note_on,,,,,7,0,1,,,,,,0,,59,0
25962,set_tempo,,,,,20,1,0,,483871,,,,,,,
25962,note_on,,,,,5,0,1,,,,,,0,,85,0
25963,note_on,,,,,1,0,1,,,,,,0,,83,0
25965,note_on,,,,,2,0,1,,,,,,0,,56,59
25971,note_on,,,,,6,0,1,,,,,,0,,80,0
25972,control_change,,,,,1,0,1,,,,64,0,0,,,
25973,note_on,,,,,1,0,1,,,,,,0,,76,59
25975,control_change,,,,,2,0,1,,,,64,127,0,,,
25982,set_tempo,,,,,20,1,0,,487805,,,,,,,
25999,note_on,,,,,24,0,1,,,,,,0,,83,70
26002,set_tempo,,,,,20,1,0,,491803,,,,,,,
26014,note_on,,,,,15,0,1,,,,,,0,,76,0
26022,set_tempo,,,,,20,1,0,,495868,,,,,,,
26028,note_on,,,,,14,0,1,,,,,,0,,80,50
26036,control_change,,,,,8,0,1,,,,64,0,0,,,
26042,control_change,,,,,6,0,1,,,,64,127,0,,,
26042,set_tempo,,,,,20,1,0,,500000,,,,,,,
26043,note_on,,,,,1,0,1,,,,,,0,,56,0
26050,note_on,,,,,0,0,1,,,,,,0,,88,55
26050,note_on,,,,,0,0,1,,,,,,0,,85,31
26050,note_on,,,,,7,0,1,,,,,,0,,83,0
26052,note_on,,,,,2,0,1,,,,,,0,,50,60
26056,note_on,,,,,4,0,1,,,,,,0,,80,0
26062,set_tempo,,,,,20,1,0,,504202,,,,,,,
26082,note_on,,,,,26,0,1,,,,,,0,,83,63
26082,set_tempo,,,,,20,1,0,,508475,,,,,,,
26100,note_on,,,,,18,0,1,,,,,,0,,88,0
26102,set_tempo,,,,,20,1,0,,512821,,,,,,,
26104,note_on,,,,,4,0,1,,,,,,0,,80,68
26122,note_on,,,,,18,0,1,,,,,,0,,76,58
26122,set_tempo,,,,,20,1,0,,517241,,,,,,,
26133,note_on,,,,,11,0,1,,,,,,0,,85,0
26136,note_on,,,,,3,0,1,,,,,,0,,80,0
26136,note_on,,,,,0,0,1,,,,,,0,,76,0
26138,note_on,,,,,2,0,1,,,,,,0,,83,0
26142,set_tempo,,,,,20,1,0,,521739,,,,,,,
26143,note_on,,,,,5,0,1,,,,,,0,,50,0
26147,note_on,,,,,4,0,1,,,,,,0,,49,77
26162,set_tempo,,,,,20,1,0,,526316,,,,,,,
26182,set_tempo,,,,,20,1,0,,530973,,,,,,,
26192,control_change,,,,,45,0,1,,,,64,0,0,,,
26202,set_tempo,,,,,20,1,0,,535714,,,,,,,
26222,set_tempo,,,,,20,1,0,,540541,,,,,,,
26226,set_tempo,,,,,4,1,0,,540541,,,,,,,
26236,note_on,,,,,44,0,1,,,,,,0,,97,89
26240,set_tempo,,,,,14,1,0,,535714,,,,,,,
26243,note_on,,,,,7,0,1,,,,,,0,,52,64
26247,control_change,,,,,4,0,1,,,,64,127,0,,,
26252,set_tempo,,,,,12,1,0,,530973,,,,,,,
26253,note_on,,,,,6,0,1,,,,,,0,,49,0
26264,set_tempo,,,,,12,1,0,,526316,,,,,,,
26266,note_on,,,,,13,0,1,,,,,,0,,88,66
26276,set_tempo,,,,,12,1,0,,521739,,,,,,,
26290,set_tempo,,,,,14,1,0,,517241,,,,,,,
26294,note_on,,,,,28,0,1,,,,,,0,,88,0
26295,note_on,,,,,1,0,1,,,,,,0,,85,69
26302,set_tempo,,,,,12,1,0,,512821,,,,,,,
26314,set_tempo,,,,,12,1,0,,508475,,,,,,,
26318,note_on,,,,,23,0,1,,,,,,0,,52,0
26319,note_on,,,,,1,0,1,,,,,,0,,88,68
26320,note_on,,,,,0,0,1,,,,,,0,,57,67
26320,note_on,,,,,1,0,1,,,,,,0,,85,0
26322,note_on,,,,,2,0,1,,,,,,0,,97,0
26326,set_tempo,,,,,12,1,0,,504202,,,,,,,
26338,set_tempo,,,,,12,1,0,,500000,,,,,,,
26344,note_on,,,,,22,0,1,,,,,,0,,88,0
26348,note_on,,,,,4,0,1,,,,,,0,,85,69
26352,set_tempo,,,,,14,1,0,,495868,,,,,,,
26364,set_tempo,,,,,12,1,0,,491803,,,,,,,
26376,set_tempo,,,,,12,1,0,,487805,,,,,,,
26378,note_on,,,,,30,0,1,,,,,,0,,85,0
26378,note_on,,,,,0,0,1,,,,,,0,,88,54
26388,set_tempo,,,,,12,1,0,,483871,,,,,,,
26396,note_on,,,,,18,0,1,,,,,,0,,59,64
26400,set_tempo,,,,,12,1,0,,480000,,,,,,,
26402,note_on,,,,,6,0,1,,,,,,0,,57,0
26402,control_change,,,,,0,0,1,,,,64,0,0,,,
26404,note_on,,,,,2,0,1,,,,,,0,,88,0
26406,note_on,,,,,2,0,1,,,,,,0,,95,54
26419,control_change,,,,,13,0,1,,,,64,127,0,,,
26431,note_on,,,,,12,0,1,,,,,,0,,88,55
26439,note_on,,,,,8,0,1,,,,,,0,,95,0
26454,note_on,,,,,15,0,1,,,,,,0,,85,63
26456,note_on,,,,,2,0,1,,,,,,0,,88,0
26476,note_on,,,,,20,0,1,,,,,,0,,59,0
26480,note_on,,,,,4,0,1,,,,,,0,,60,70
26481,note_on,,,,,1,0,1,,,,,,0,,92,76
26483,note_on,,,,,2,0,1,,,,,,0,,85,0
26483,control_change,,,,,0,0,1,,,,64,0,0,,,
26504,control_change,,,,,21,0,1,,,,64,127,0,,,
26510,note_on,,,,,6,0,1,,,,,,0,,88,64
26531,note_on,,,,,21,0,1,,,,,,0,,92,0
26538,note_on,,,,,7,0,1,,,,,,0,,85,62
26539,note_on,,,,,1,0,1,,,,,,0,,88,0
26558,note_on,,,,,19,0,1,,,,,,0,,85,0
26564,note_on,,,,,6,0,1,,,,,,0,,95,70
26568,control_change,,,,,4,0,1,,,,64,0,0,,,
26586,control_change,,,,,18,0,1,,,,64,127,0,,,
26598,note_on,,,,,12,0,1,,,,,,0,,88,41
26617,note_on,,,,,19,0,1,,,,,,0,,85,57
26618,note_on,,,,,1,0,1,,,,,,0,,95,0
26622,note_on,,,,,4,0,1,,,,,,0,,88,0
26636,note_on,,,,,14,0,1,,,,,,0,,85,0
26644,note_on,,,,,8,0,1,,,,,,0,,61,71
26646,note_on,,,,,2,0,1,,,,,,0,,60,0
26648,note_on,,,,,2,0,1,,,,,,0,,93,64
26650,control_change,,,,,2,0,1,,,,64,0,0,,,
26670,control_change,,,,,20,0,1,,,,64,127,0,,,
26680,note_on,,,,,10,0,1,,,,,,0,,88,55
26695,note_on,,,,,15,0,1,,,,,,0,,93,0
26699,note_on,,,,,4,0,1,,,,,,0,,85,56
26700,note_on,,,,,1,0,1,,,,,,0,,88,0
26707,note_on,,,,,7,0,1,,,,,,0,,85,0
26726,control_change,,,,,19,0,1,,,,64,0,0,,,
26728,note_on,,,,,0,0,1,,,,,,0,,90,78
26728,note_on,,,,,2,0,1,,,,,,0,,61,0
26733,note_on,,,,,5,0,1,,,,,,0,,57,59
26747,control_change,,,,,14,0,1,,,,64,127,0,,,
26760,note_on,,,,,13,0,1,,,,,,0,,85,67
26765,note_on,,,,,5,0,1,,,,,,0,,90,0
26781,note_on,,,,,16,0,1,,,,,,0,,85,0
26788,note_on,,,,,7,0,1,,,,,,0,,81,50
26808,note_on,,,,,20,0,1,,,,,,0,,57,0
26811,control_change,,,,,3,0,1,,,,64,0,0,,,
26812,note_on,,,,,1,0,1,,,,,,0,,52,67
26814,note_on,,,,,2,0,1,,,,,,0,,87,81
26824,note_on,,,,,10,0,1,,,,,,0,,81,0
26837,control_change,,,,,13,0,1,,,,64,127,0,,,
26840,note_on,,,,,3,0,1,,,,,,0,,85,78
26844,note_on,,,,,4,0,1,,,,,,0,,87,0
26866,note_on,,,,,22,0,1,,,,,,0,,85,0
26870,note_on,,,,,4,0,1,,,,,,0,,81,58
26890,note_on,,,,,20,0,1,,,,,,0,,90,74
26897,note_on,,,,,7,0,1,,,,,,0,,57,65
26898,note_on,,,,,1,0,1,,,,,,0,,81,0
26900,control_change,,,,,2,0,1,,,,64,0,0,,,
26910,note_on,,,,,10,0,1,,,,,,0,,52,0
26917,control_change,,,,,7,0,1,,,,64,127,0,,,
26924,note_on,,,,,7,0,1,,,,,,0,,85,67
26939,note_on,,,,,15,0,1,,,,,,0,,90,0
26948,note_on,,,,,0,0,1,,,,,,0,,81,61
26948,note_on,,,,,9,0,1,,,,,,0,,85,0
26957,note_on,,,,,9,0,1,,,,,,0,,81,0
26973,control_change,,,,,16,0,1,,,,64,0,0,,,
26976,note_on,,,,,3,0,1,,,,,,0,,61,60
26979,note_on,,,,,3,0,1,,,,,,0,,88,63
26990,control_change,,,,,11,0,1,,,,64,127,0,,,
27008,note_on,,,,,18,0,1,,,,,,0,,81,58
27029,note_on,,,,,21,0,1,,,,,,0,,88,0
27033,note_on,,,,,0,0,1,,,,,,0,,76,48
27033,note_on,,,,,4,0,1,,,,,,0,,81,0
27045,note_on,,,,,12,0,1,,,,,,0,,57,0
27048,note_on,,,,,3,0,1,,,,,,0,,76,0
27053,note_on,,,,,5,0,1,,,,,,0,,61,0
27054,note_on,,,,,1,0,1,,,,,,0,,62,69
27058,note_on,,,,,4,0,1,,,,,,0,,86,80
27059,control_change,,,,,1,0,1,,,,64,0,0,,,
27075,control_change,,,,,16,0,1,,,,64,127,0,,,
27089,note_on,,,,,14,0,1,,,,,,0,,81,61
27100,note_on,,,,,11,0,1,,,,,,0,,86,0
27114,note_on,,,,,14,0,1,,,,,,0,,78,51
27122,note_on,,,,,8,0,1,,,,,,0,,81,0
27127,note_on,,,,,5,0,1,,,,,,0,,78,0
27129,control_change,,,,,2,0,1,,,,64,0,0,,,
27140,note_on,,,,,0,0,1,,,,,,0,,63,74
27140,note_on,,,,,11,0,1,,,,,,0,,84,65
27150,note_on,,,,,10,0,1,,,,,,0,,62,0
27162,control_change,,,,,12,0,1,,,,64,127,0,,,
27171,note_on,,,,,9,0,1,,,,,,0,,81,64
27179,note_on,,,,,8,0,1,,,,,,0,,84,0
27196,note_on,,,,,17,0,1,,,,,,0,,78,65
27201,note_on,,,,,5,0,1,,,,,,0,,81,0
27212,control_change,,,,,11,0,1,,,,64,0,0,,,
27218,note_on,,,,,6,0,1,,,,,,0,,78,0
27220,note_on,,,,,2,0,1,,,,,,0,,85,72
27225,control_change,,,,,5,0,1,,,,64,127,0,,,
27256,note_on,,,,,31,0,1,,,,,,0,,81,54
27272,note_on,,,,,16,0,1,,,,,,0,,85,0
27278,note_on,,,,,6,0,1,,,,,,0,,78,56
27282,note_on,,,,,4,0,1,,,,,,0,,81,0
27294,control_change,,,,,12,0,1,,,,64,0,0,,,
27301,note_on,,,,,7,0,1,,,,,,0,,78,0
27301,note_on,,,,,0,0,1,,,,,,0,,63,0
27304,note_on,,,,,3,0,1,,,,,,0,,64,64
27304,note_on,,,,,0,0,1,,,,,,0,,85,67
27323,control_change,,,,,19,0,1,,,,64,127,0,,,
27335,note_on,,,,,12,0,1,,,,,,0,,81,58
27350,note_on,,,,,15,0,1,,,,,,0,,85,0
27359,note_on,,,,,9,0,1,,,,,,0,,81,0
27363,note_on,,,,,4,0,1,,,,,,0,,73,49
27378,control_change,,,,,15,0,1,,,,64,0,0,,,
27383,note_on,,,,,5,0,1,,,,,,0,,73,0
27389,note_on,,,,,6,0,1,,,,,,0,,61,57
27392,note_on,,,,,3,0,1,,,,,,0,,64,0
27395,note_on,,,,,3,0,1,,,,,,0,,83,64
27403,control_change,,,,,8,0,1,,,,64,127,0,,,
27432,note_on,,,,,29,0,1,,,,,,0,,76,48
27442,note_on,,,,,10,0,1,,,,,,0,,83,0
27453,note_on,,,,,11,0,1,,,,,,0,,73,45
27456,note_on,,,,,3,0,1,,,,,,0,,76,0
27464,control_change,,,,,8,0,1,,,,64,0,0,,,
27467,note_on,,,,,3,0,1,,,,,,0,,61,0
27469,note_on,,,,,2,0,1,,,,,,0,,57,68
27474,note_on,,,,,5,0,1,,,,,,0,,80,75
27475,note_on,,,,,1,0,1,,,,,,0,,73,0
27492,control_change,,,,,17,0,1,,,,64,127,0,,,
27506,note_on,,,,,14,0,1,,,,,,0,,76,59
27522,note_on,,,,,16,0,1,,,,,,0,,80,0
27531,note_on,,,,,9,0,1,,,,,,0,,73,51
27533,note_on,,,,,2,0,1,,,,,,0,,76,0
27542,note_on,,,,,9,0,1,,,,,,0,,73,0
27549,control_change,,,,,7,0,1,,,,64,0,0,,,
27552,note_on,,,,,3,0,1,,,,,,0,,83,73
27555,note_on,,,,,3,0,1,,,,,,0,,61,68
27574,control_change,,,,,0,0,1,,,,64,127,0,,,
27574,note_on,,,,,19,0,1,,,,,,0,,57,0
27589,note_on,,,,,15,0,1,,,,,,0,,76,57
27608,note_on,,,,,19,0,1,,,,,,0,,83,0
27612,note_on,,,,,4,0,1,,,,,,0,,73,60
27616,note_on,,,,,4,0,1,,,,,,0,,76,0
27632,note_on,,,,,16,0,1,,,,,,0,,61,0
27633,note_on,,,,,0,0,1,,,,,,0,,64,58
27633,note_on,,,,,1,0,1,,,,,,0,,73,0
27637,control_change,,,,,4,0,1,,,,64,0,0,,,
27639,note_on,,,,,2,0,1,,,,,,0,,81,66
27656,control_change,,,,,17,0,1,,,,64,127,0,,,
27674,note_on,,,,,18,0,1,,,,,,0,,76,57
27688,note_on,,,,,14,0,1,,,,,,0,,81,0
27696,note_on,,,,,8,0,1,,,,,,0,,76,0
27698,note_on,,,,,2,0,1,,,,,,0,,73,60
27708,note_on,,,,,10,0,1,,,,,,0,,73,0
27718,control_change,,,,,10,0,1,,,,64,0,0,,,
27725,note_on,,,,,7,0,1,,,,,,0,,75,70
27726,note_on,,,,,1,0,1,,,,,,0,,64,0
27726,note_on,,,,,0,0,1,,,,,,0,,66,63
27747,control_change,,,,,21,0,1,,,,64,127,0,,,
27758,note_on,,,,,11,0,1,,,,,,0,,73,63
27768,note_on,,,,,10,0,1,,,,,,0,,75,0
27789,note_on,,,,,21,0,1,,,,,,0,,73,0
27790,note_on,,,,,1,0,1,,,,,,0,,69,48
27800,note_on,,,,,10,0,1,,,,,,0,,69,0
27817,note_on,,,,,17,0,1,,,,,,0,,78,79
27820,note_on,,,,,3,0,1,,,,,,0,,63,63
27823,control_change,,,,,3,0,1,,,,64,0,0,,,
27825,note_on,,,,,2,0,1,,,,,,0,,66,0
27852,note_on,,,,,27,0,1,,,,,,0,,73,61
27864,note_on,,,,,12,0,1,,,,,,0,,78,0
27877,note_on,,,,,13,0,1,,,,,,0,,73,0
27880,note_on,,,,,3,0,1,,,,,,0,,69,59
27888,note_on,,,,,8,0,1,,,,,,0,,69,0
27907,note_on,,,,,19,0,1,,,,,,0,,64,71
27910,note_on,,,,,3,0,1,,,,,,0,,76,69
27912,note_on,,,,,2,0,1,,,,,,0,,63,0
27916,control_change,,,,,4,0,1,,,,64,127,0,,,
27938,note_on,,,,,22,0,1,,,,,,0,,73,62
27940,note_on,,,,,2,0,1,,,,,,0,,64,0
27961,note_on,,,,,21,0,1,,,,,,0,,76,0
27972,note_on,,,,,11,0,1,,,,,,0,,69,69
27978,note_on,,,,,6,0,1,,,,,,0,,73,0
27996,note_on,,,,,18,0,1,,,,,,0,,69,0
28001,note_on,,,,,5,0,1,,,,,,0,,64,69
28015,note_on,,,,,14,0,1,,,,,,0,,64,0
28039,note_on,,,,,24,0,1,,,,,,0,,61,55
28052,note_on,,,,,13,0,1,,,,,,0,,61,0
28074,note_on,,,,,22,0,1,,,,,,0,,57,80
28091,note_on,,,,,17,0,1,,,,,,0,,57,0
28110,note_on,,,,,19,0,1,,,,,,0,,55,69
28129,note_on,,,,,19,0,1,,,,,,0,,55,0
28130,control_change,,,,,1,0,1,,,,64,0,0,,,
28142,control_change,,,,,12,0,1,,,,64,127,0,,,
28146,note_on,,,,,4,0,1,,,,,,0,,57,69
28178,note_on,,,,,32,0,1,,,,,,0,,58,81
28182,note_on,,,,,4,0,1,,,,,,0,,57,0
28202,control_change,,,,,20,0,1,,,,64,0,0,,,
28203,note_on,,,,,1,0,1,,,,,,0,,58,0
28218,note_on,,,,,0,0,1,,,,,,0,,61,82
28218,control_change,,,,,15,0,1,,,,67,0,0,,,
28234,control_change,,,,,16,0,1,,,,64,127,0,,,
28257,note_on,,,,,23,0,1,,,,,,0,,55,60
28266,note_on,,,,,9,0,1,,,,,,0,,61,0
28278,note_on,,,,,12,0,1,,,,,,0,,55,0
28286,note_on,,,,,8,0,1,,,,,,0,,52,53
28300,note_on,,,,,14,0,1,,,,,,0,,52,0
28322,note_on,,,,,22,0,1,,,,,,0,,46,74
28328,note_on,,,,,6,0,1,,,,,,0,,64,74
28336,control_change,,,,,8,0,1,,,,64,0,0,,,
28350,control_change,,,,,14,0,1,,,,64,127,0,,,
28356,note_on,,,,,6,0,1,,,,,,0,,61,57
28368,note_on,,,,,12,0,1,,,,,,0,,64,0
28382,note_on,,,,,14,0,1,,,,,,0,,61,0
28383,note_on,,,,,1,0,1,,,,,,0,,55,48
28400,note_on,,,,,17,0,1,,,,,,0,,55,0
28420,note_on,,,,,20,0,1,,,,,,0,,67,67
28422,control_change,,,,,2,0,1,,,,64,0,0,,,
28439,control_change,,,,,17,0,1,,,,64,127,0,,,
28454,note_on,,,,,15,0,1,,,,,,0,,64,62
28458,note_on,,,,,4,0,1,,,,,,0,,67,0
28481,note_on,,,,,23,0,1,,,,,,0,,61,60
28482,note_on,,,,,1,0,1,,,,,,0,,64,0
28498,note_on,,,,,16,0,1,,,,,,0,,61,0
28506,control_change,,,,,8,0,1,,,,64,0,0,,,
28510,note_on,,,,,4,0,1,,,,,,0,,45,69
28514,note_on,,,,,4,0,1,,,,,,0,,69,74
28518,note_on,,,,,4,0,1,,,,,,0,,46,0
28544,note_on,,,,,26,0,1,,,,,,0,,64,60
28548,control_change,,,,,4,0,1,,,,64,127,0,,,
28553,note_on,,,,,5,0,1,,,,,,0,,69,0
28571,note_on,,,,,18,0,1,,,,,,0,,64,0
28572,note_on,,,,,1,0,1,,,,,,0,,61,55
28579,note_on,,,,,7,0,1,,,,,,0,,61,0
28598,control_change,,,,,19,0,1,,,,64,0,0,,,
28604,note_on,,,,,6,0,1,,,,,,0,,69,70
28604,note_on,,,,,0,0,1,,,,,,0,,42,58
28605,note_on,,,,,1,0,1,,,,,,0,,57,76
28606,note_on,,,,,1,0,1,,,,,,0,,45,0
28629,control_change,,,,,23,0,1,,,,64,127,0,,,
28638,note_on,,,,,9,0,1,,,,,,0,,57,0
28641,note_on,,,,,3,0,1,,,,,,0,,64,63
28666,note_on,,,,,25,0,1,,,,,,0,,61,62
28680,note_on,,,,,14,0,1,,,,,,0,,64,0
28689,note_on,,,,,9,0,1,,,,,,0,,42,0
28694,note_on,,,,,5,0,1,,,,,,0,,43,69
28696,note_on,,,,,2,0,1,,,,,,0,,60,70
28697,note_on,,,,,1,0,1,,,,,,0,,61,0
28699,control_change,,,,,2,0,1,,,,64,0,0,,,
28723,control_change,,,,,24,0,1,,,,64,127,0,,,
28732,note_on,,,,,9,0,1,,,,,,0,,64,61
28740,note_on,,,,,8,0,1,,,,,,0,,60,0
28758,note_on,,,,,18,0,1,,,,,,0,,69,0
28766,note_on,,,,,8,0,1,,,,,,0,,61,58
28779,note_on,,,,,13,0,1,,,,,,0,,43,0
28788,note_on,,,,,9,0,1,,,,,,0,,64,0
28794,note_on,,,,,6,0,1,,,,,,0,,40,62
28795,note_on,,,,,1,0,1,,,,,,0,,70,76
28798,note_on,,,,,3,0,1,,,,,,0,,58,81
28802,note_on,,,,,4,0,1,,,,,,0,,61,0
28803,control_change,,,,,1,0,1,,,,64,0,0,,,
28828,note_on,,,,,25,0,1,,,,,,0,,67,57
28840,note_on,,,,,12,0,1,,,,,,0,,58,0
28840,control_change,,,,,0,0,1,,,,64,127,0,,,
28859,note_on,,,,,19,0,1,,,,,,0,,62,56
28876,note_on,,,,,17,0,1,,,,,,0,,67,0
28878,note_on,,,,,2,0,1,,,,,,0,,40,0
28892,control_change,,,,,14,0,1,,,,64,0,0,,,
28893,note_on,,,,,1,0,1,,,,,,0,,61,76
28895,note_on,,,,,2,0,1,,,,,,0,,38,49
28896,note_on,,,,,1,0,1,,,,,,0,,62,0
28918,set_tempo,,,,,2518,1,0,,480000,,,,,,,
28918,note_on,,,,,22,0,1,,,,,,0,,38,0
28928,control_change,,,,,10,0,1,,,,64,127,0,,,
28929,note_on,,,,,1,0,1,,,,,,0,,62,62
28930,set_tempo,,,,,12,1,0,,483871,,,,,,,
28937,note_on,,,,,8,0,1,,,,,,0,,61,0
28942,set_tempo,,,,,12,1,0,,487805,,,,,,,
28951,note_on,,,,,14,0,1,,,,,,0,,70,0
28952,set_tempo,,,,,10,1,0,,491803,,,,,,,
28955,note_on,,,,,4,0,1,,,,,,0,,67,55
28962,note_on,,,,,7,0,1,,,,,,0,,62,0
28964,set_tempo,,,,,12,1,0,,495868,,,,,,,
28974,set_tempo,,,,,10,1,0,,500000,,,,,,,
28982,note_on,,,,,20,0,1,,,,,,0,,67,0
28986,set_tempo,,,,,12,1,0,,504202,,,,,,,
28987,control_change,,,,,5,0,1,,,,64,0,0,,,
28990,note_on,,,,,3,0,1,,,,,,0,,37,64
28996,set_tempo,,,,,10,1,0,,508475,,,,,,,
29008,set_tempo,,,,,12,1,0,,512821,,,,,,,
29018,set_tempo,,,,,10,1,0,,517241,,,,,,,
29023,control_change,,,,,33,0,1,,,,64,127,0,,,
29030,set_tempo,,,,,12,1,0,,521739,,,,,,,
29031,note_on,,,,,8,0,1,,,,,,0,,46,61
29040,set_tempo,,,,,10,1,0,,526316,,,,,,,
29049,note_on,,,,,18,0,1,,,,,,0,,37,0
29054,note_on,,,,,5,0,1,,,,,,0,,49,60
29063,note_on,,,,,9,0,1,,,,,,0,,46,0
29071,note_on,,,,,8,0,1,,,,,,0,,49,0
29080,set_tempo,,,,,40,1,0,,521739,,,,,,,
29086,note_on,,,,,0,0,1,,,,,,0,,40,64
29086,control_change,,,,,15,0,1,,,,64,0,0,,,
29087,note_on,,,,,1,0,1,,,,,,0,,94,73
29089,note_on,,,,,2,0,1,,,,,,0,,82,66
29120,set_tempo,,,,,40,1,0,,517241,,,,,,,
29121,note_on,,,,,32,0,1,,,,,,0,,49,66
29125,control_change,,,,,4,0,1,,,,64,127,0,,,
29134,note_on,,,,,9,0,1,,,,,,0,,40,0
29150,note_on,,,,,16,0,1,,,,,,0,,52,61
29152,note_on,,,,,2,0,1,,,,,,0,,49,0
29160,set_tempo,,,,,40,1,0,,512821,,,,,,,
29166,note_on,,,,,14,0,1,,,,,,0,,52,0
29174,note_on,,,,,8,0,1,,,,,,0,,43,69
29183,control_change,,,,,9,0,1,,,,64,0,0,,,
29200,set_tempo,,,,,40,1,0,,508475,,,,,,,
29210,note_on,,,,,27,0,1,,,,,,0,,52,63
29214,note_on,,,,,4,0,1,,,,,,0,,94,0
29214,control_change,,,,,0,0,1,,,,64,127,0,,,
29225,note_on,,,,,11,0,1,,,,,,0,,43,0
29228,note_on,,,,,3,0,1,,,,,,0,,82,0
29234,note_on,,,,,6,0,1,,,,,,0,,55,55
29240,set_tempo,,,,,40,1,0,,504202,,,,,,,
29243,note_on,,,,,9,0,1,,,,,,0,,52,0
29256,note_on,,,,,13,0,1,,,,,,0,,55,0
29267,note_on,,,,,11,0,1,,,,,,0,,45,58
29270,note_on,,,,,3,0,1,,,,,,0,,81,61
29270,note_on,,,,,0,0,1,,,,,,0,,93,74
29276,control_change,,,,,6,0,1,,,,64,0,0,,,
29280,set_tempo,,,,,40,1,0,,500000,,,,,,,
29292,note_on,,,,,16,0,1,,,,,,0,,54,55
29295,note_on,,,,,3,0,1,,,,,,0,,93,0
29299,note_on,,,,,4,0,1,,,,,,0,,81,0
29301,note_on,,,,,2,0,1,,,,,,0,,45,0
29303,control_change,,,,,2,0,1,,,,64,127,0,,,
29314,note_on,,,,,11,0,1,,,,,,0,,54,0
29320,set_tempo,,,,,40,1,0,,495868,,,,,,,
29320,note_on,,,,,6,0,1,,,,,,0,,57,65
29342,note_on,,,,,22,0,1,,,,,,0,,57,0
29353,note_on,,,,,11,0,1,,,,,,0,,49,46
29360,set_tempo,,,,,40,1,0,,491803,,,,,,,
29365,note_on,,,,,12,0,1,,,,,,0,,90,74
29366,note_on,,,,,1,0,1,,,,,,0,,78,74
29369,control_change,,,,,3,0,1,,,,64,0,0,,,
29392,note_on,,,,,23,0,1,,,,,,0,,58,60
29400,set_tempo,,,,,40,1,0,,487805,,,,,,,
29401,control_change,,,,,9,0,1,,,,64,127,0,,,
29411,note_on,,,,,10,0,1,,,,,,0,,49,0
29424,note_on,,,,,13,0,1,,,,,,0,,90,0
29428,note_on,,,,,4,0,1,,,,,,0,,61,64
29433,note_on,,,,,5,0,1,,,,,,0,,58,0
29439,note_on,,,,,6,0,1,,,,,,0,,78,0
29440,set_tempo,,,,,40,1,0,,483871,,,,,,,
29457,note_on,,,,,18,0,1,,,,,,0,,61,0
29459,note_on,,,,,2,0,1,,,,,,0,,91,71
29460,note_on,,,,,1,0,1,,,,,,0,,79,67
29463,note_on,,,,,3,0,1,,,,,,0,,58,69
29464,control_change,,,,,1,0,1,,,,64,0,0,,,
29470,control_change,,,,,6,0,1,,,,64,127,0,,,
29480,set_tempo,,,,,40,1,0,,480000,,,,,,,
29486,note_on,,,,,16,0,1,,,,,,0,,91,0
29490,note_on,,,,,4,0,1,,,,,,0,,58,0
29493,note_on,,,,,3,0,1,,,,,,0,,79,0
29494,note_on,,,,,1,0,1,,,,,,0,,52,66
29520,set_tempo,,,,,40,1,0,,476190,,,,,,,
29525,note_on,,,,,31,0,1,,,,,,0,,58,72
29526,note_on,,,,,1,0,1,,,,,,0,,52,0
29546,note_on,,,,,20,0,1,,,,,,0,,58,0
29555,control_change,,,,,9,0,1,,,,64,0,0,,,
29557,note_on,,,,,2,0,1,,,,,,0,,50,68
29560,set_tempo,,,,,40,1,0,,472441,,,,,,,
29561,note_on,,,,,4,0,1,,,,,,0,,88,68
29562,note_on,,,,,1,0,1,,,,,,0,,76,56
29586,note_on,,,,,24,0,1,,,,,,0,,58,62
29588,note_on,,,,,2,0,1,,,,,,0,,88,0
29590,control_change,,,,,2,0,1,,,,64,127,0,,,
29596,note_on,,,,,6,0,1,,,,,,0,,50,0
29596,note_on,,,,,0,0,1,,,,,,0,,76,0
29600,set_tempo,,,,,40,1,0,,468750,,,,,,,
29618,note_on,,,,,22,0,1,,,,,,0,,58,0
29618,note_on,,,,,0,0,1,,,,,,0,,62,47
29640,set_tempo,,,,,40,1,0,,465116,,,,,,,
29650,note_on,,,,,32,0,1,,,,,,0,,58,56
29653,note_on,,,,,3,0,1,,,,,,0,,62,0
29657,note_on,,,,,4,0,1,,,,,,0,,86,67
29660,note_on,,,,,3,0,1,,,,,,0,,74,53
29676,note_on,,,,,16,0,1,,,,,,0,,86,0
29677,control_change,,,,,1,0,1,,,,64,0,0,,,
29680,set_tempo,,,,,40,1,0,,461538,,,,,,,
29680,note_on,,,,,3,0,1,,,,,,0,,74,0
29684,set_tempo,,,,,4,1,0,,465116,,,,,,,
29686,set_tempo,,,,,2,1,0,,468750,,,,,,,
29686,note_on,,,,,6,0,1,,,,,,0,,58,0
29690,set_tempo,,,,,4,1,0,,472441,,,,,,,
29692,set_tempo,,,,,2,1,0,,476190,,,,,,,
29694,set_tempo,,,,,2,1,0,,480000,,,,,,,
29694,note_on,,,,,8,0,1,,,,,,0,,55,58
29698,set_tempo,,,,,4,1,0,,483871,,,,,,,
29700,set_tempo,,,,,2,1,0,,487805,,,,,,,
29702,set_tempo,,,,,2,1,0,,491803,,,,,,,
29703,control_change,,,,,9,0,1,,,,64,127,0,,,
29706,set_tempo,,,,,4,1,0,,495868,,,,,,,
29708,set_tempo,,,,,2,1,0,,500000,,,,,,,
29712,set_tempo,,,,,4,1,0,,504202,,,,,,,
29714,set_tempo,,,,,2,1,0,,508475,,,,,,,
29716,set_tempo,,,,,2,1,0,,512821,,,,,,,
29720,set_tempo,,,,,4,1,0,,517241,,,,,,,
29722,set_tempo,,,,,2,1,0,,521739,,,,,,,
29723,note_on,,,,,20,0,1,,,,,,0,,58,67
29724,set_tempo,,,,,2,1,0,,526316,,,,,,,
29733,note_on,,,,,10,0,1,,,,,,0,,55,0
29743,note_on,,,,,10,0,1,,,,,,0,,58,0
29744,set_tempo,,,,,20,1,0,,521739,,,,,,,
29762,set_tempo,,,,,18,1,0,,517241,,,,,,,
29762,note_on,,,,,19,0,1,,,,,,0,,62,75
29772,control_change,,,,,10,0,1,,,,64,0,0,,,
29782,set_tempo,,,,,20,1,0,,512821,,,,,,,
29798,note_on,,,,,26,0,1,,,,,,0,,56,77
29800,set_tempo,,,,,18,1,0,,508475,,,,,,,
29800,control_change,,,,,2,0,1,,,,64,127,0,,,
29818,note_on,,,,,18,0,1,,,,,,0,,62,0
29820,set_tempo,,,,,20,1,0,,504202,,,,,,,
29822,note_on,,,,,4,0,1,,,,,,0,,53,66
29825,note_on,,,,,3,0,1,,,,,,0,,56,0
29834,note_on,,,,,9,0,1,,,,,,0,,53,0
29838,set_tempo,,,,,18,1,0,,500000,,,,,,,
29856,note_on,,,,,22,0,1,,,,,,0,,47,73
29856,set_tempo,,,,,18,1,0,,495868,,,,,,,
29857,note_on,,,,,1,0,1,,,,,,0,,65,80
29859,control_change,,,,,2,0,1,,,,64,0,0,,,
29876,set_tempo,,,,,20,1,0,,491803,,,,,,,
29886,control_change,,,,,27,0,1,,,,64,127,0,,,
29891,note_on,,,,,5,0,1,,,,,,0,,62,66
29894,set_tempo,,,,,18,1,0,,487805,,,,,,,
29901,note_on,,,,,10,0,1,,,,,,0,,65,0
29914,set_tempo,,,,,20,1,0,,483871,,,,,,,
29916,note_on,,,,,15,0,1,,,,,,0,,62,0
29917,note_on,,,,,1,0,1,,,,,,0,,56,60
29929,note_on,,,,,12,0,1,,,,,,0,,56,0
29932,set_tempo,,,,,18,1,0,,480000,,,,,,,
29946,control_change,,,,,17,0,1,,,,64,0,0,,,
29948,note_on,,,,,2,0,1,,,,,,0,,68,68
29952,set_tempo,,,,,20,1,0,,476190,,,,,,,
29969,control_change,,,,,21,0,1,,,,64,127,0,,,
29970,set_tempo,,,,,18,1,0,,472441,,,,,,,
29972,note_on,,,,,3,0,1,,,,,,0,,68,0
29979,note_on,,,,,7,0,1,,,,,,0,,65,68
29988,set_tempo,,,,,18,1,0,,468750,,,,,,,
30007,note_on,,,,,28,0,1,,,,,,0,,62,63
30008,set_tempo,,,,,20,1,0,,465116,,,,,,,
30010,note_on,,,,,3,0,1,,,,,,0,,65,0
30026,set_tempo,,,,,18,1,0,,461538,,,,,,,
30027,note_on,,,,,17,0,1,,,,,,0,,62,0
30038,note_on,,,,,11,0,1,,,,,,0,,70,77
30041,control_change,,,,,3,0,1,,,,64,0,0,,,
30042,note_on,,,,,1,0,1,,,,,,0,,46,88
30045,note_on,,,,,3,0,1,,,,,,0,,47,0
30046,set_tempo,,,,,20,1,0,,458015,,,,,,,
30064,set_tempo,,,,,18,1,0,,454545,,,,,,,
30067,control_change,,,,,22,0,1,,,,64,127,0,,,
30074,note_on,,,,,7,0,1,,,,,,0,,65,66
30084,set_tempo,,,,,20,1,0,,451128,,,,,,,
30091,note_on,,,,,17,0,1,,,,,,0,,70,0
30102,set_tempo,,,,,18,1,0,,447761,,,,,,,
30106,note_on,,,,,15,0,1,,,,,,0,,65,0
30108,note_on,,,,,2,0,1,,,,,,0,,62,60
30120,set_tempo,,,,,18,1,0,,444444,,,,,,,
30130,note_on,,,,,22,0,1,,,,,,0,,62,0
30132,control_change,,,,,2,0,1,,,,64,0,0,,,
30138,note_on,,,,,0,0,1,,,,,,0,,43,69
30138,note_on,,,,,6,0,1,,,,,,0,,46,0
30139,note_on,,,,,1,0,1,,,,,,0,,70,86
30140,set_tempo,,,,,20,1,0,,441176,,,,,,,
30143,note_on,,,,,4,0,1,,,,,,0,,58,89
30158,set_tempo,,,,,18,1,0,,437956,,,,,,,
30174,control_change,,,,,31,0,1,,,,64,127,0,,,
30178,note_on,,,,,4,0,1,,,,,,0,,65,60
30178,set_tempo,,,,,20,1,0,,434783,,,,,,,
30190,note_on,,,,,12,0,1,,,,,,0,,58,0
30196,set_tempo,,,,,18,1,0,,431655,,,,,,,
30209,note_on,,,,,19,0,1,,,,,,0,,62,63
30214,set_tempo,,,,,18,1,0,,428571,,,,,,,
30216,note_on,,,,,7,0,1,,,,,,0,,65,0
30230,set_tempo,,,,,16,1,0,,431655,,,,,,,
30231,note_on,,,,,15,0,1,,,,,,0,,43,0
30232,control_change,,,,,1,0,1,,,,64,0,0,,,
30237,note_on,,,,,5,0,1,,,,,,0,,44,69
30238,note_on,,,,,0,0,1,,,,,,0,,61,83
30238,note_on,,,,,1,0,1,,,,,,0,,62,0
30244,set_tempo,,,,,14,1,0,,434783,,,,,,,
30260,set_tempo,,,,,16,1,0,,437956,,,,,,,
30260,control_change,,,,,22,0,1,,,,64,127,0,,,
30269,note_on,,,,,9,0,1,,,,,,0,,65,70
30274,set_tempo,,,,,14,1,0,,441176,,,,,,,
30277,note_on,,,,,8,0,1,,,,,,0,,61,0
30284,note_on,,,,,7,0,1,,,,,,0,,70,0
30288,set_tempo,,,,,14,1,0,,444444,,,,,,,
30298,note_on,,,,,14,0,1,,,,,,0,,62,65
30304,set_tempo,,,,,16,1,0,,447761,,,,,,,
30308,note_on,,,,,10,0,1,,,,,,0,,65,0
30318,note_on,,,,,10,0,1,,,,,,0,,62,0
30318,set_tempo,,,,,14,1,0,,451128,,,,,,,
30327,note_on,,,,,9,0,1,,,,,,0,,44,0
30333,note_on,,,,,6,0,1,,,,,,0,,59,81
30333,note_on,,,,,0,0,1,,,,,,0,,41,71
30334,set_tempo,,,,,16,1,0,,454545,,,,,,,
30336,note_on,,,,,3,0,1,,,,,,0,,71,66
30338,control_change,,,,,2,0,1,,,,64,0,0,,,
30348,note_on,,,,,10,0,1,,,,,,0,,59,0
30348,set_tempo,,,,,14,1,0,,458015,,,,,,,
30362,set_tempo,,,,,14,1,0,,461538,,,,,,,
30369,control_change,,,,,21,0,1,,,,64,127,0,,,
30370,note_on,,,,,1,0,1,,,,,,0,,68,76
30400,note_on,,,,,30,0,1,,,,,,0,,63,67
30419,note_on,,,,,19,0,1,,,,,,0,,68,0
30428,note_on,,,,,9,0,1,,,,,,0,,41,0
30434,note_on,,,,,0,0,1,,,,,,0,,62,82
30434,note_on,,,,,6,0,1,,,,,,0,,63,0
30436,note_on,,,,,2,0,1,,,,,,0,,39,72
30440,control_change,,,,,4,0,1,,,,64,0,0,,,
30468,note_on,,,,,0,0,1,,,,,,0,,63,70
30468,control_change,,,,,28,0,1,,,,64,127,0,,,
30477,note_on,,,,,9,0,1,,,,,,0,,62,0
30495,note_on,,,,,18,0,1,,,,,,0,,39,0
30500,note_on,,,,,5,0,1,,,,,,0,,68,76
30509,note_on,,,,,9,0,1,,,,,,0,,63,0
30521,note_on,,,,,12,0,1,,,,,,0,,71,0
30525,note_on,,,,,4,0,1,,,,,,0,,68,0
30538,control_change,,,,,13,0,1,,,,64,0,0,,,
30539,note_on,,,,,1,0,1,,,,,,0,,38,66
30573,control_change,,,,,34,0,1,,,,64,127,0,,,
30577,note_on,,,,,4,0,1,,,,,,0,,47,63
30594,note_on,,,,,17,0,1,,,,,,0,,38,0
30606,note_on,,,,,12,0,1,,,,,,0,,50,64
30613,note_on,,,,,7,0,1,,,,,,0,,47,0
30625,note_on,,,,,12,0,1,,,,,,0,,50,0
30639,note_on,,,,,14,0,1,,,,,,0,,41,81
30642,note_on,,,,,3,0,1,,,,,,0,,95,78
30642,note_on,,,,,0,0,1,,,,,,0,,83,72
30645,control_change,,,,,3,0,1,,,,64,0,0,,,
30669,note_on,,,,,24,0,1,,,,,,0,,50,63
30670,control_change,,,,,1,0,1,,,,64,127,0,,,
30684,note_on,,,,,14,0,1,,,,,,0,,41,0
30695,note_on,,,,,11,0,1,,,,,,0,,53,68
30702,note_on,,,,,7,0,1,,,,,,0,,50,0
30718,note_on,,,,,16,0,1,,,,,,0,,53,0
30731,note_on,,,,,13,0,1,,,,,,0,,44,79
30737,control_change,,,,,6,0,1,,,,64,0,0,,,
30756,note_on,,,,,19,0,1,,,,,,0,,53,63
30764,note_on,,,,,8,0,1,,,,,,0,,83,0
30767,control_change,,,,,3,0,1,,,,64,127,0,,,
30779,note_on,,,,,12,0,1,,,,,,0,,44,0
30793,note_on,,,,,14,0,1,,,,,,0,,56,65
30798,note_on,,,,,5,0,1,,,,,,0,,53,0
30811,note_on,,,,,13,0,1,,,,,,0,,56,0
30828,note_on,,,,,17,0,1,,,,,,0,,94,90
30830,note_on,,,,,2,0,1,,,,,,0,,82,70
30832,control_change,,,,,2,0,1,,,,64,0,0,,,
30833,note_on,,,,,1,0,1,,,,,,0,,46,62
30838,note_on,,,,,5,0,1,,,,,,0,,95,0
30851,note_on,,,,,13,0,1,,,,,,0,,46,0
30860,note_on,,,,,9,0,1,,,,,,0,,55,61
30860,control_change,,,,,0,0,1,,,,64,127,0,,,
30862,note_on,,,,,2,0,1,,,,,,0,,94,0
30866,note_on,,,,,4,0,1,,,,,,0,,82,0
30888,note_on,,,,,22,0,1,,,,,,0,,58,71
30891,note_on,,,,,3,0,1,,,,,,0,,55,0
30913,note_on,,,,,22,0,1,,,,,,0,,58,0
30919,note_on,,,,,6,0,1,,,,,,0,,50,69
30925,note_on,,,,,6,0,1,,,,,,0,,91,78
30927,note_on,,,,,2,0,1,,,,,,0,,79,72
30929,control_change,,,,,2,0,1,,,,64,0,0,,,
30956,note_on,,,,,27,0,1,,,,,,0,,59,60
30959,control_change,,,,,3,0,1,,,,64,127,0,,,
30964,note_on,,,,,5,0,1,,,,,,0,,79,0
30970,note_on,,,,,6,0,1,,,,,,0,,91,0
30975,note_on,,,,,5,0,1,,,,,,0,,50,0
30984,note_on,,,,,9,0,1,,,,,,0,,62,73
30986,note_on,,,,,2,0,1,,,,,,0,,59,0
31009,note_on,,,,,23,0,1,,,,,,0,,62,0
31018,note_on,,,,,9,0,1,,,,,,0,,59,60
31019,note_on,,,,,1,0,1,,,,,,0,,92,74
31020,note_on,,,,,1,0,1,,,,,,0,,80,71
31039,control_change,,,,,19,0,1,,,,64,0,0,,,
31041,note_on,,,,,2,0,1,,,,,,0,,92,0
31044,note_on,,,,,3,0,1,,,,,,0,,80,0
31046,control_change,,,,,2,0,1,,,,64,127,0,,,
31048,note_on,,,,,2,0,1,,,,,,0,,59,0
31051,note_on,,,,,3,0,1,,,,,,0,,53,64
31082,note_on,,,,,31,0,1,,,,,,0,,59,54
31089,note_on,,,,,7,0,1,,,,,,0,,53,0
31103,control_change,,,,,14,0,1,,,,64,0,0,,,
31113,note_on,,,,,10,0,1,,,,,,0,,59,0
31114,note_on,,,,,1,0,1,,,,,,0,,89,74
31116,note_on,,,,,2,0,1,,,,,,0,,77,69
31118,note_on,,,,,2,0,1,,,,,,0,,51,81
31136,note_on,,,,,18,0,1,,,,,,0,,77,0
31137,note_on,,,,,1,0,1,,,,,,0,,89,0
31138,control_change,,,,,1,0,1,,,,64,127,0,,,
31149,note_on,,,,,11,0,1,,,,,,0,,59,51
31165,note_on,,,,,16,0,1,,,,,,0,,51,0
31176,note_on,,,,,11,0,1,,,,,,0,,59,0
31176,note_on,,,,,0,0,1,,,,,,0,,63,65
31202,note_on,,,,,26,0,1,,,,,,0,,63,0
31214,note_on,,,,,12,0,1,,,,,,0,,59,59
31216,note_on,,,,,2,0,1,,,,,,0,,87,91
31217,note_on,,,,,1,0,1,,,,,,0,,75,78
31234,note_on,,,,,17,0,1,,,,,,0,,87,0
31236,control_change,,,,,2,0,1,,,,64,0,0,,,
31239,note_on,,,,,3,0,1,,,,,,0,,75,0
31242,note_on,,,,,3,0,1,,,,,,0,,59,0
31243,note_on,,,,,1,0,1,,,,,,0,,56,75
31261,control_change,,,,,18,0,1,,,,64,127,0,,,
31279,note_on,,,,,18,0,1,,,,,,0,,59,77
31292,note_on,,,,,13,0,1,,,,,,0,,59,0
31293,note_on,,,,,1,0,1,,,,,,0,,56,0
31318,note_on,,,,,25,0,1,,,,,,0,,63,93
31331,control_change,,,,,13,0,1,,,,64,0,0,,,
31351,note_on,,,,,20,0,1,,,,,,0,,57,78
31358,control_change,,,,,7,0,1,,,,64,127,0,,,
31375,note_on,,,,,17,0,1,,,,,,0,,63,0
31382,note_on,,,,,7,0,1,,,,,,0,,57,0
31384,note_on,,,,,2,0,1,,,,,,0,,54,72
31394,note_on,,,,,10,0,1,,,,,,0,,54,0
31408,control_change,,,,,14,0,1,,,,64,0,0,,,
31412,note_on,,,,,4,0,1,,,,,,0,,48,83
31414,note_on,,,,,2,0,1,,,,,,0,,66,94
31434,control_change,,,,,20,0,1,,,,64,127,0,,,
31445,note_on,,,,,11,0,1,,,,,,0,,63,76
31461,note_on,,,,,16,0,1,,,,,,0,,66,0
31473,note_on,,,,,12,0,1,,,,,,0,,63,0
31473,note_on,,,,,0,0,1,,,,,,0,,57,67
31487,note_on,,,,,14,0,1,,,,,,0,,57,0
31500,control_change,,,,,13,0,1,,,,64,0,0,,,
31513,note_on,,,,,13,0,1,,,,,,0,,69,78
31516,control_change,,,,,3,0,1,,,,64,127,0,,,
31538,note_on,,,,,22,0,1,,,,,,0,,69,0
31539,note_on,,,,,1,0,1,,,,,,0,,66,76
31570,note_on,,,,,31,0,1,,,,,,0,,66,0
31572,note_on,,,,,2,0,1,,,,,,0,,63,83
31588,note_on,,,,,16,0,1,,,,,,0,,63,0
31601,control_change,,,,,13,0,1,,,,64,0,0,,,
31604,note_on,,,,,3,0,1,,,,,,0,,47,86
31607,note_on,,,,,3,0,1,,,,,,0,,71,92
31609,note_on,,,,,2,0,1,,,,,,0,,48,0
31631,control_change,,,,,22,0,1,,,,64,127,0,,,
31634,note_on,,,,,3,0,1,,,,,,0,,66,77
31643,note_on,,,,,9,0,1,,,,,,0,,71,0
31666,note_on,,,,,23,0,1,,,,,,0,,66,0
31666,note_on,,,,,0,0,1,,,,,,0,,63,74
31679,note_on,,,,,13,0,1,,,,,,0,,63,0
31698,note_on,,,,,19,0,1,,,,,,0,,47,0
31699,control_change,,,,,1,0,1,,,,64,0,0,,,
31700,note_on,,,,,1,0,1,,,,,,0,,44,84
31704,note_on,,,,,4,0,1,,,,,,0,,59,89
31706,note_on,,,,,2,0,1,,,,,,0,,71,71
31738,note_on,,,,,32,0,1,,,,,,0,,66,77
31738,control_change,,,,,0,0,1,,,,64,127,0,,,
31741,note_on,,,,,3,0,1,,,,,,0,,59,0
31766,note_on,,,,,25,0,1,,,,,,0,,63,79
31781,note_on,,,,,15,0,1,,,,,,0,,66,0
31788,note_on,,,,,7,0,1,,,,,,0,,44,0
31794,note_on,,,,,6,0,1,,,,,,0,,45,90
31798,note_on,,,,,4,0,1,,,,,,0,,63,0
31800,note_on,,,,,2,0,1,,,,,,0,,62,72
31804,control_change,,,,,4,0,1,,,,64,0,0,,,
31822,control_change,,,,,18,0,1,,,,64,127,0,,,
31827,note_on,,,,,5,0,1,,,,,,0,,66,70
31836,note_on,,,,,9,0,1,,,,,,0,,62,0
31853,note_on,,,,,17,0,1,,,,,,0,,71,0
31856,note_on,,,,,3,0,1,,,,,,0,,63,69
31880,note_on,,,,,24,0,1,,,,,,0,,63,0
31887,note_on,,,,,7,0,1,,,,,,0,,60,88
31888,note_on,,,,,1,0,1,,,,,,0,,72,85
31890,note_on,,,,,2,0,1,,,,,,0,,66,0
31892,note_on,,,,,2,0,1,,,,,,0,,42,79
31894,control_change,,,,,2,0,1,,,,64,0,0,,,
31902,note_on,,,,,8,0,1,,,,,,0,,45,0
31922,note_on,,,,,20,0,1,,,,,,0,,69,73
31924,control_change,,,,,2,0,1,,,,64,127,0,,,
31930,note_on,,,,,6,0,1,,,,,,0,,60,0
31956,note_on,,,,,26,0,1,,,,,,0,,64,73
31971,note_on,,,,,15,0,1,,,,,,0,,42,0
31982,note_on,,,,,11,0,1,,,,,,0,,69,0
31986,note_on,,,,,4,0,1,,,,,,0,,40,81
31990,control_change,,,,,4,0,1,,,,64,0,0,,,
31992,note_on,,,,,2,0,1,,,,,,0,,63,93
31998,note_on,,,,,6,0,1,,,,,,0,,64,0
32006,note_on,,,,,8,0,1,,,,,,0,,40,0
32013,control_change,,,,,0,0,1,,,,64,127,0,,,
32013,note_on,,,,,7,0,1,,,,,,0,,72,0
32024,note_on,,,,,11,0,1,,,,,,0,,69,76
32028,note_on,,,,,4,0,1,,,,,,0,,63,0
32058,note_on,,,,,30,0,1,,,,,,0,,69,0
32058,note_on,,,,,0,0,1,,,,,,0,,64,65
32078,note_on,,,,,20,0,1,,,,,,0,,64,0
32090,control_change,,,,,0,0,1,,,,64,0,0,,,
32090,note_on,,,,,12,0,1,,,,,,0,,39,86
32095,note_on,,,,,5,0,1,,,,,,0,,54,94
32106,note_on,,,,,11,0,1,,,,,,0,,39,0
32117,control_change,,,,,11,0,1,,,,64,127,0,,,
32124,note_on,,,,,7,0,1,,,,,,0,,66,88
32128,note_on,,,,,4,0,1,,,,,,0,,54,0
32158,note_on,,,,,30,0,1,,,,,,0,,61,72
32170,note_on,,,,,12,0,1,,,,,,0,,39,94
32183,note_on,,,,,13,0,1,,,,,,0,,66,0
32190,note_on,,,,,7,0,1,,,,,,0,,61,0
32196,control_change,,,,,6,0,1,,,,64,0,0,,,
32197,note_on,,,,,1,0,1,,,,,,0,,57,92
32201,note_on,,,,,4,0,1,,,,,,0,,51,91
32221,note_on,,,,,20,0,1,,,,,,0,,57,0
32229,note_on,,,,,8,0,1,,,,,,0,,69,77
32232,control_change,,,,,3,0,1,,,,64,127,0,,,
32236,note_on,,,,,4,0,1,,,,,,0,,69,0
32267,note_on,,,,,31,0,1,,,,,,0,,63,77
32278,note_on,,,,,11,0,1,,,,,,0,,63,0
32297,control_change,,,,,19,0,1,,,,64,0,0,,,
32298,note_on,,,,,1,0,1,,,,,,0,,60,81
32312,control_change,,,,,14,0,1,,,,64,127,0,,,
32331,note_on,,,,,19,0,1,,,,,,0,,72,73
32334,note_on,,,,,3,0,1,,,,,,0,,60,0
32339,note_on,,,,,5,0,1,,,,,,0,,51,0
32356,note_on,,,,,17,0,1,,,,,,0,,69,83
32359,note_on,,,,,3,0,1,,,,,,0,,66,84
32360,note_on,,,,,1,0,1,,,,,,0,,39,0
32374,note_on,,,,,14,0,1,,,,,,0,,72,0
32388,note_on,,,,,14,0,1,,,,,,0,,66,0
32393,note_on,,,,,5,0,1,,,,,,0,,62,84
32399,note_on,,,,,6,0,1,,,,,,0,,69,0
32400,note_on,,,,,0,0,1,,,,,,0,,38,84
32400,note_on,,,,,1,0,1,,,,,,0,,50,81
32403,control_change,,,,,3,0,1,,,,64,0,0,,,
32426,note_on,,,,,23,0,1,,,,,,0,,74,90
32428,control_change,,,,,2,0,1,,,,64,127,0,,,
32440,note_on,,,,,12,0,1,,,,,,0,,62,0
32441,note_on,,,,,1,0,1,,,,,,0,,50,0
32450,note_on,,,,,9,0,1,,,,,,0,,38,0
32458,note_on,,,,,0,0,1,,,,,,0,,66,75
32458,note_on,,,,,8,0,1,,,,,,0,,69,76
32476,note_on,,,,,18,0,1,,,,,,0,,74,0
32488,note_on,,,,,12,0,1,,,,,,0,,66,0
32489,note_on,,,,,1,0,1,,,,,,0,,69,0
32492,note_on,,,,,0,0,1,,,,,,0,,47,81
32492,note_on,,,,,3,0,1,,,,,,0,,35,86
32493,control_change,,,,,1,0,1,,,,64,0,0,,,
32494,note_on,,,,,1,0,1,,,,,,0,,62,83
32515,note_on,,,,,21,0,1,,,,,,0,,74,89
32523,note_on,,,,,8,0,1,,,,,,0,,62,0
32524,control_change,,,,,1,0,1,,,,64,127,0,,,
32548,note_on,,,,,24,0,1,,,,,,0,,69,81
32556,note_on,,,,,8,0,1,,,,,,0,,35,0
32559,note_on,,,,,3,0,1,,,,,,0,,47,0
32572,note_on,,,,,13,0,1,,,,,,0,,66,74
32583,note_on,,,,,11,0,1,,,,,,0,,69,0
32593,control_change,,,,,10,0,1,,,,64,0,0,,,
32595,note_on,,,,,2,0,1,,,,,,0,,48,91
32596,note_on,,,,,1,0,1,,,,,,0,,36,87
32600,note_on,,,,,4,0,1,,,,,,0,,65,93
32601,note_on,,,,,1,0,1,,,,,,0,,66,0
32620,control_change,,,,,19,0,1,,,,64,127,0,,,
32621,note_on,,,,,1,0,1,,,,,,0,,74,0
32627,note_on,,,,,6,0,1,,,,,,0,,69,73
32638,note_on,,,,,11,0,1,,,,,,0,,65,0
32644,note_on,,,,,6,0,1,,,,,,0,,48,0
32652,note_on,,,,,8,0,1,,,,,,0,,36,0
32662,note_on,,,,,10,0,1,,,,,,0,,66,82
32688,note_on,,,,,26,0,1,,,,,,0,,69,0
32693,note_on,,,,,5,0,1,,,,,,0,,45,91
32694,note_on,,,,,1,0,1,,,,,,0,,33,91
32694,control_change,,,,,0,0,1,,,,64,0,0,,,
32697,note_on,,,,,3,0,1,,,,,,0,,75,87
32698,note_on,,,,,1,0,1,,,,,,0,,63,92
32703,note_on,,,,,5,0,1,,,,,,0,,66,0
32726,set_tempo,,,,,2364,1,0,,461538,,,,,,,
32727,control_change,,,,,24,0,1,,,,64,127,0,,,
32730,note_on,,,,,3,0,1,,,,,,0,,72,76
32732,note_on,,,,,2,0,1,,,,,,0,,63,0
32747,note_on,,,,,15,0,1,,,,,,0,,33,0
32748,note_on,,,,,1,0,1,,,,,,0,,45,0
32765,note_on,,,,,17,0,1,,,,,,0,,66,86
32766,set_tempo,,,,,40,1,0,,465116,,,,,,,
32779,note_on,,,,,14,0,1,,,,,,0,,72,0
32793,control_change,,,,,14,0,1,,,,64,0,0,,,
32798,note_on,,,,,5,0,1,,,,,,0,,44,99
32800,note_on,,,,,2,0,1,,,,,,0,,65,99
32802,note_on,,,,,2,0,1,,,,,,0,,32,99
32803,note_on,,,,,1,0,1,,,,,,0,,66,0
32804,set_tempo,,,,,38,1,0,,468750,,,,,,,
32824,control_change,,,,,21,0,1,,,,64,127,0,,,
32825,note_on,,,,,1,0,1,,,,,,0,,44,0
32828,note_on,,,,,3,0,1,,,,,,0,,32,0
32836,note_on,,,,,8,0,1,,,,,,0,,72,72
32844,set_tempo,,,,,40,1,0,,472441,,,,,,,
32845,note_on,,,,,9,0,1,,,,,,0,,65,0
32868,note_on,,,,,23,0,1,,,,,,0,,66,83
32882,set_tempo,,,,,38,1,0,,476190,,,,,,,
32897,control_change,,,,,29,0,1,,,,64,0,0,,,
32913,note_on,,,,,16,0,1,,,,,,0,,42,109
32913,note_on,,,,,0,0,1,,,,,,0,,30,109
32914,note_on,,,,,1,0,1,,,,,,0,,66,0
32914,note_on,,,,,0,0,1,,,,,,0,,72,0
32921,note_on,,,,,7,0,1,,,,,,0,,75,0
32922,set_tempo,,,,,40,1,0,,480000,,,,,,,
32932,control_change,,,,,11,0,1,,,,64,127,0,,,
32960,set_tempo,,,,,38,1,0,,483871,,,,,,,
32964,note_on,,,,,32,0,1,,,,,,0,,42,0
32980,note_on,,,,,16,0,1,,,,,,0,,30,0
33000,set_tempo,,,,,40,1,0,,487805,,,,,,,
33022,note_on,,,,,42,0,1,,,,,,0,,45,78
33028,note_on,,,,,6,0,1,,,,,,0,,90,102
33028,note_on,,,,,0,0,1,,,,,,0,,78,97
33036,set_tempo,,,,,36,1,0,,491803,,,,,,,
33036,control_change,,,,,8,0,1,,,,64,0,0,,,
33054,note_on,,,,,18,0,1,,,,,,0,,54,75
33060,set_tempo,,,,,24,1,0,,487805,,,,,,,
33068,control_change,,,,,14,0,1,,,,64,127,0,,,
33077,note_on,,,,,9,0,1,,,,,,0,,45,0
33084,set_tempo,,,,,24,1,0,,483871,,,,,,,
33085,note_on,,,,,8,0,1,,,,,,0,,57,73
33088,note_on,,,,,3,0,1,,,,,,0,,54,0
33103,note_on,,,,,15,0,1,,,,,,0,,57,0
33108,set_tempo,,,,,24,1,0,,480000,,,,,,,
33112,note_on,,,,,9,0,1,,,,,,0,,48,84
33132,control_change,,,,,20,0,1,,,,64,0,0,,,
33132,set_tempo,,,,,24,1,0,,476190,,,,,,,
33145,note_on,,,,,13,0,1,,,,,,0,,57,57
33154,control_change,,,,,9,0,1,,,,64,127,0,,,
33156,set_tempo,,,,,24,1,0,,472441,,,,,,,
33158,note_on,,,,,4,0,1,,,,,,0,,48,0
33169,note_on,,,,,11,0,1,,,,,,0,,60,61
33171,note_on,,,,,2,0,1,,,,,,0,,90,0
33178,note_on,,,,,0,0,1,,,,,,0,,78,0
33178,note_on,,,,,7,0,1,,,,,,0,,57,0
33180,set_tempo,,,,,24,1,0,,468750,,,,,,,
33184,set_tempo,,,,,4,1,0,,468750,,,,,,,
33189,note_on,,,,,11,0,1,,,,,,0,,60,0
33202,note_on,,,,,13,0,1,,,,,,0,,51,81
33206,note_on,,,,,4,0,1,,,,,,0,,89,81
33208,note_on,,,,,2,0,1,,,,,,0,,77,76
33215,control_change,,,,,7,0,1,,,,64,0,0,,,
33232,note_on,,,,,17,0,1,,,,,,0,,60,63
33240,control_change,,,,,8,0,1,,,,64,127,0,,,
33248,note_on,,,,,8,0,1,,,,,,0,,89,0
33256,note_on,,,,,8,0,1,,,,,,0,,51,0
33260,note_on,,,,,4,0,1,,,,,,0,,63,66
33261,note_on,,,,,1,0,1,,,,,,0,,77,0
33271,note_on,,,,,10,0,1,,,,,,0,,60,0
33284,note_on,,,,,13,0,1,,,,,,0,,63,0
33296,note_on,,,,,12,0,1,,,,,,0,,53,80
33300,note_on,,,,,4,0,1,,,,,,0,,86,80
33300,note_on,,,,,0,0,1,,,,,,0,,74,69
33312,control_change,,,,,12,0,1,,,,64,0,0,,,
33321,note_on,,,,,9,0,1,,,,,,0,,74,0
33326,note_on,,,,,5,0,1,,,,,,0,,86,0
33328,note_on,,,,,2,0,1,,,,,,0,,60,64
33337,control_change,,,,,9,0,1,,,,64,127,0,,,
33351,note_on,,,,,14,0,1,,,,,,0,,53,0
33352,note_on,,,,,1,0,1,,,,,,0,,65,69
33361,note_on,,,,,9,0,1,,,,,,0,,60,0
33375,note_on,,,,,14,0,1,,,,,,0,,65,0
33390,note_on,,,,,0,0,1,,,,,,0,,75,81
33390,note_on,,,,,15,0,1,,,,,,0,,87,85
33391,note_on,,,,,1,0,1,,,,,,0,,57,65
33400,control_change,,,,,9,0,1,,,,64,0,0,,,
33408,note_on,,,,,8,0,1,,,,,,0,,60,64
33422,control_change,,,,,14,0,1,,,,64,127,0,,,
33424,note_on,,,,,2,0,1,,,,,,0,,87,0
33430,note_on,,,,,6,0,1,,,,,,0,,75,0
33432,set_tempo,,,,,248,1,0,,472441,,,,,,,
33446,note_on,,,,,16,0,1,,,,,,0,,66,79
33451,note_on,,,,,5,0,1,,,,,,0,,57,0
33454,note_on,,,,,3,0,1,,,,,,0,,60,0
33466,note_on,,,,,12,0,1,,,,,,0,,66,0
33478,set_tempo,,,,,46,1,0,,476190,,,,,,,
33480,note_on,,,,,14,0,1,,,,,,0,,84,77
33482,note_on,,,,,2,0,1,,,,,,0,,72,76
33484,note_on,,,,,2,0,1,,,,,,0,,54,79
33485,control_change,,,,,1,0,1,,,,64,0,0,,,
33506,control_change,,,,,21,0,1,,,,64,127,0,,,
33511,note_on,,,,,5,0,1,,,,,,0,,84,0
33512,note_on,,,,,1,0,1,,,,,,0,,72,0
33516,note_on,,,,,4,0,1,,,,,,0,,63,70
33522,set_tempo,,,,,44,1,0,,480000,,,,,,,
33531,note_on,,,,,15,0,1,,,,,,0,,54,0
33539,note_on,,,,,8,0,1,,,,,,0,,66,67
33548,note_on,,,,,9,0,1,,,,,,0,,63,0
33563,note_on,,,,,15,0,1,,,,,,0,,66,0
33566,set_tempo,,,,,44,1,0,,483871,,,,,,,
33576,note_on,,,,,13,0,1,,,,,,0,,82,81
33577,note_on,,,,,1,0,1,,,,,,0,,70,79
33578,note_on,,,,,1,0,1,,,,,,0,,58,75
33581,control_change,,,,,3,0,1,,,,64,0,0,,,
33602,control_change,,,,,21,0,1,,,,64,127,0,,,
33604,note_on,,,,,2,0,1,,,,,,0,,82,0
33607,note_on,,,,,3,0,1,,,,,,0,,63,56
33609,note_on,,,,,2,0,1,,,,,,0,,70,0
33612,set_tempo,,,,,46,1,0,,487805,,,,,,,
33632,note_on,,,,,23,0,1,,,,,,0,,66,70
33633,note_on,,,,,1,0,1,,,,,,0,,58,0
33641,note_on,,,,,8,0,1,,,,,,0,,63,0
33644,note_on,,,,,3,0,1,,,,,,0,,66,0
33656,set_tempo,,,,,44,1,0,,491803,,,,,,,
33673,note_on,,,,,29,0,1,,,,,,0,,81,76
33674,note_on,,,,,1,0,1,,,,,,0,,69,76
33674,note_on,,,,,0,0,1,,,,,,0,,42,67
33678,control_change,,,,,4,0,1,,,,64,0,0,,,
33700,set_tempo,,,,,44,1,0,,495868,,,,,,,
33702,set_tempo,,,,,2,1,0,,487805,,,,,,,
33706,control_change,,,,,28,0,1,,,,64,127,0,,,
33708,note_on,,,,,2,0,1,,,,,,0,,81,0
33717,note_on,,,,,9,0,1,,,,,,0,,69,0
33720,note_on,,,,,3,0,1,,,,,,0,,52,42
33725,note_on,,,,,5,0,1,,,,,,0,,42,0
33737,note_on,,,,,12,0,1,,,,,,0,,54,72
33738,note_on,,,,,1,0,1,,,,,,0,,52,0
33754,note_on,,,,,16,0,1,,,,,,0,,54,0
33756,set_tempo,,,,,54,1,0,,483871,,,,,,,
33771,note_on,,,,,17,0,1,,,,,,0,,45,79
33774,note_on,,,,,3,0,1,,,,,,0,,90,100
33776,note_on,,,,,2,0,1,,,,,,0,,78,91
33778,control_change,,,,,2,0,1,,,,64,0,0,,,
33803,note_on,,,,,25,0,1,,,,,,0,,54,65
33810,set_tempo,,,,,54,1,0,,480000,,,,,,,
33813,control_change,,,,,10,0,1,,,,64,127,0,,,
33824,note_on,,,,,11,0,1,,,,,,0,,45,0
33838,note_on,,,,,14,0,1,,,,,,0,,57,76
33840,note_on,,,,,2,0,1,,,,,,0,,54,0
33854,note_on,,,,,14,0,1,,,,,,0,,57,0
33862,set_tempo,,,,,52,1,0,,476190,,,,,,,
33874,note_on,,,,,20,0,1,,,,,,0,,48,66
33878,control_change,,,,,4,0,1,,,,64,0,0,,,
33907,control_change,,,,,29,0,1,,,,64,127,0,,,
33910,note_on,,,,,3,0,1,,,,,,0,,57,67
33916,set_tempo,,,,,54,1,0,,472441,,,,,,,
33917,note_on,,,,,7,0,1,,,,,,0,,48,0
33928,note_on,,,,,11,0,1,,,,,,0,,60,71
33930,note_on,,,,,2,0,1,,,,,,0,,90,0
33937,note_on,,,,,7,0,1,,,,,,0,,78,0
33938,note_on,,,,,1,0,1,,,,,,0,,57,0
33947,note_on,,,,,9,0,1,,,,,,0,,60,0
33960,note_on,,,,,13,0,1,,,,,,0,,89,77
33962,note_on,,,,,2,0,1,,,,,,0,,51,88
33964,note_on,,,,,2,0,1,,,,,,0,,77,73
33969,control_change,,,,,5,0,1,,,,64,0,0,,,
33970,set_tempo,,,,,54,1,0,,468750,,,,,,,
33995,note_on,,,,,26,0,1,,,,,,0,,60,72
33996,control_change,,,,,1,0,1,,,,64,127,0,,,
34010,note_on,,,,,14,0,1,,,,,,0,,89,0
34013,note_on,,,,,3,0,1,,,,,,0,,51,0
34017,note_on,,,,,4,0,1,,,,,,0,,77,0
34022,note_on,,,,,5,0,1,,,,,,0,,63,73
34022,set_tempo,,,,,52,1,0,,465116,,,,,,,
34030,note_on,,,,,8,0,1,,,,,,0,,60,0
34044,note_on,,,,,14,0,1,,,,,,0,,63,0
34058,note_on,,,,,14,0,1,,,,,,0,,53,65
34059,control_change,,,,,1,0,1,,,,64,0,0,,,
34060,note_on,,,,,1,0,1,,,,,,0,,74,77
34061,note_on,,,,,1,0,1,,,,,,0,,86,82
34076,note_on,,,,,15,0,1,,,,,,0,,74,0
34080,note_on,,,,,4,0,1,,,,,,0,,86,0
34082,control_change,,,,,2,0,1,,,,64,127,0,,,
34086,note_on,,,,,4,0,1,,,,,,0,,60,62
34109,note_on,,,,,23,0,1,,,,,,0,,53,0
34113,note_on,,,,,4,0,1,,,,,,0,,65,64
34119,note_on,,,,,6,0,1,,,,,,0,,87,81
34119,note_on,,,,,0,0,1,,,,,,0,,75,72
34120,note_on,,,,,1,0,1,,,,,,0,,60,0
34142,note_on,,,,,22,0,1,,,,,,0,,75,0
34143,note_on,,,,,1,0,1,,,,,,0,,87,0
34147,note_on,,,,,4,0,1,,,,,,0,,65,0
34151,note_on,,,,,4,0,1,,,,,,0,,57,66
34168,note_on,,,,,17,0,1,,,,,,0,,60,63
34186,note_on,,,,,18,0,1,,,,,,0,,89,78
34186,note_on,,,,,0,0,1,,,,,,0,,77,74
34201,note_on,,,,,15,0,1,,,,,,0,,66,59
34209,note_on,,,,,8,0,1,,,,,,0,,89,0
34212,control_change,,,,,3,0,1,,,,64,0,0,,,
34215,note_on,,,,,3,0,1,,,,,,0,,77,0
34218,note_on,,,,,3,0,1,,,,,,0,,60,0
34222,note_on,,,,,4,0,1,,,,,,0,,57,0
34225,control_change,,,,,3,0,1,,,,64,127,0,,,
34239,note_on,,,,,14,0,1,,,,,,0,,66,0
34249,note_on,,,,,10,0,1,,,,,,0,,54,81
34254,set_tempo,,,,,232,1,0,,458015,,,,,,,
34254,note_on,,,,,5,0,1,,,,,,0,,87,86
34255,note_on,,,,,1,0,1,,,,,,0,,75,81
34258,set_tempo,,,,,4,1,0,,458015,,,,,,,
34266,set_tempo,,,,,8,1,0,,461538,,,,,,,
34274,set_tempo,,,,,8,1,0,,465116,,,,,,,
34282,note_on,,,,,27,0,1,,,,,,0,,87,0
34282,set_tempo,,,,,8,1,0,,468750,,,,,,,
34284,note_on,,,,,2,0,1,,,,,,0,,75,0
34286,note_on,,,,,2,0,1,,,,,,0,,63,70
34290,set_tempo,,,,,8,1,0,,472441,,,,,,,
34298,set_tempo,,,,,8,1,0,,476190,,,,,,,
34306,set_tempo,,,,,8,1,0,,480000,,,,,,,
34314,note_on,,,,,28,0,1,,,,,,0,,54,0
34314,set_tempo,,,,,8,1,0,,483871,,,,,,,
34316,note_on,,,,,2,0,1,,,,,,0,,66,63
34322,set_tempo,,,,,8,1,0,,487805,,,,,,,
34324,note_on,,,,,8,0,1,,,,,,0,,84,81
34325,note_on,,,,,1,0,1,,,,,,0,,72,80
34330,set_tempo,,,,,8,1,0,,491803,,,,,,,
34333,note_on,,,,,8,0,1,,,,,,0,,63,0
34338,note_on,,,,,5,0,1,,,,,,0,,66,0
34338,set_tempo,,,,,8,1,0,,495868,,,,,,,
34346,set_tempo,,,,,8,1,0,,500000,,,,,,,
34354,set_tempo,,,,,8,1,0,,504202,,,,,,,
34360,note_on,,,,,22,0,1,,,,,,0,,58,81
34362,set_tempo,,,,,8,1,0,,508475,,,,,,,
34365,note_on,,,,,5,0,1,,,,,,0,,84,0
34368,set_tempo,,,,,6,1,0,,512821,,,,,,,
34369,note_on,,,,,4,0,1,,,,,,0,,72,0
34376,set_tempo,,,,,8,1,0,,517241,,,,,,,
34376,control_change,,,,,7,0,1,,,,64,0,0,,,
34383,note_on,,,,,7,0,1,,,,,,0,,63,73
34384,set_tempo,,,,,8,1,0,,521739,,,,,,,
34392,set_tempo,,,,,8,1,0,,526316,,,,,,,
34396,control_change,,,,,13,0,1,,,,64,127,0,,,
34400,set_tempo,,,,,8,1,0,,530973,,,,,,,
34408,set_tempo,,,,,8,1,0,,535714,,,,,,,
34410,note_on,,,,,14,0,1,,,,,,0,,66,79
34414,note_on,,,,,4,0,1,,,,,,0,,58,0
34416,set_tempo,,,,,8,1,0,,540541,,,,,,,
34424,set_tempo,,,,,8,1,0,,545455,,,,,,,
34426,note_on,,,,,12,0,1,,,,,,0,,82,84
34426,note_on,,,,,0,0,1,,,,,,0,,70,81
34427,note_on,,,,,1,0,1,,,,,,0,,63,0
34428,note_on,,,,,1,0,1,,,,,,0,,66,0
34432,set_tempo,,,,,8,1,0,,550459,,,,,,,
34440,set_tempo,,,,,8,1,0,,555556,,,,,,,
34448,set_tempo,,,,,8,1,0,,560748,,,,,,,
34456,set_tempo,,,,,8,1,0,,566038,,,,,,,
34464,set_tempo,,,,,8,1,0,,571429,,,,,,,
34465,note_on,,,,,37,0,1,,,,,,0,,82,0
34466,note_on,,,,,1,0,1,,,,,,0,,70,0
34468,note_on,,,,,2,0,1,,,,,,0,,66,93
34470,note_on,,,,,2,0,1,,,,,,0,,54,85
34472,set_tempo,,,,,8,1,0,,576923,,,,,,,
34478,set_tempo,,,,,6,1,0,,582524,,,,,,,
34478,control_change,,,,,8,0,1,,,,64,0,0,,,
34482,set_tempo,,,,,4,1,0,,588235,,,,,,,
34486,set_tempo,,,,,4,1,0,,588235,,,,,,,
34490,set_tempo,,,,,4,1,0,,588235,,,,,,,
34500,set_tempo,,,,,10,1,0,,582524,,,,,,,
34506,control_change,,,,,28,0,1,,,,64,127,0,,,
34508,note_on,,,,,2,0,1,,,,,,0,,69,68
34510,set_tempo,,,,,10,1,0,,576923,,,,,,,
34520,set_tempo,,,,,10,1,0,,571429,,,,,,,
34524,note_on,,,,,16,0,1,,,,,,0,,66,0
34527,note_on,,,,,3,0,1,,,,,,0,,54,0
34528,set_tempo,,,,,8,1,0,,566038,,,,,,,
34537,note_on,,,,,10,0,1,,,,,,0,,72,68
34538,set_tempo,,,,,10,1,0,,560748,,,,,,,
34539,note_on,,,,,2,0,1,,,,,,0,,81,77
34541,note_on,,,,,2,0,1,,,,,,0,,69,0
34548,set_tempo,,,,,10,1,0,,555556,,,,,,,
34556,set_tempo,,,,,8,1,0,,550459,,,,,,,
34560,note_on,,,,,19,0,1,,,,,,0,,72,0
34566,set_tempo,,,,,10,1,0,,545455,,,,,,,
34567,note_on,,,,,7,0,1,,,,,,0,,63,90
34567,control_change,,,,,0,0,1,,,,64,0,0,,,
34569,note_on,,,,,2,0,1,,,,,,0,,51,88
34574,note_on,,,,,5,0,1,,,,,,0,,81,0
34576,set_tempo,,,,,10,1,0,,540541,,,,,,,
34586,set_tempo,,,,,10,1,0,,535714,,,,,,,
34594,set_tempo,,,,,8,1,0,,530973,,,,,,,
34594,control_change,,,,,20,0,1,,,,64,127,0,,,
34602,note_on,,,,,8,0,1,,,,,,0,,72,63
34604,set_tempo,,,,,10,1,0,,526316,,,,,,,
34614,set_tempo,,,,,10,1,0,,521739,,,,,,,
34616,note_on,,,,,14,0,1,,,,,,0,,63,0
34622,set_tempo,,,,,8,1,0,,517241,,,,,,,
34624,note_on,,,,,8,0,1,,,,,,0,,84,77
34628,note_on,,,,,4,0,1,,,,,,0,,51,0
34629,note_on,,,,,1,0,1,,,,,,0,,75,74
34632,set_tempo,,,,,10,1,0,,512821,,,,,,,
34633,note_on,,,,,4,0,1,,,,,,0,,72,0
34642,set_tempo,,,,,10,1,0,,508475,,,,,,,
34650,note_on,,,,,17,0,1,,,,,,0,,75,0
34651,note_on,,,,,1,0,1,,,,,,0,,84,0
34652,set_tempo,,,,,10,1,0,,504202,,,,,,,
34659,note_on,,,,,8,0,1,,,,,,0,,60,77
34660,set_tempo,,,,,8,1,0,,500000,,,,,,,
34660,note_on,,,,,1,0,1,,,,,,0,,48,87
34663,control_change,,,,,3,0,1,,,,64,0,0,,,
34670,set_tempo,,,,,10,1,0,,495868,,,,,,,
34680,set_tempo,,,,,10,1,0,,491803,,,,,,,
34688,set_tempo,,,,,8,1,0,,487805,,,,,,,
34690,note_on,,,,,27,0,1,,,,,,0,,75,79
34695,control_change,,,,,5,0,1,,,,64,127,0,,,
34703,note_on,,,,,8,0,1,,,,,,0,,48,0
34705,note_on,,,,,2,0,1,,,,,,0,,60,0
34717,note_on,,,,,12,0,1,,,,,,0,,87,70
34720,note_on,,,,,3,0,1,,,,,,0,,78,72
34725,note_on,,,,,5,0,1,,,,,,0,,75,0
34736,set_tempo,,,,,48,1,0,,483871,,,,,,,
34741,note_on,,,,,16,0,1,,,,,,0,,78,0
34746,note_on,,,,,5,0,1,,,,,,0,,87,0
34748,note_on,,,,,2,0,1,,,,,,0,,58,89
34750,note_on,,,,,2,0,1,,,,,,0,,46,87
34754,control_change,,,,,4,0,1,,,,64,0,0,,,
34781,note_on,,,,,27,0,1,,,,,,0,,76,66
34782,set_tempo,,,,,46,1,0,,480000,,,,,,,
34782,control_change,,,,,1,0,1,,,,64,127,0,,,
34803,note_on,,,,,21,0,1,,,,,,0,,58,0
34808,note_on,,,,,5,0,1,,,,,,0,,88,61
34810,note_on,,,,,0,0,1,,,,,,0,,79,76
34810,note_on,,,,,2,0,1,,,,,,0,,46,0
34814,note_on,,,,,4,0,1,,,,,,0,,76,0
34828,set_tempo,,,,,46,1,0,,476190,,,,,,,
34834,note_on,,,,,20,0,1,,,,,,0,,79,0
34836,control_change,,,,,2,0,1,,,,64,0,0,,,
34838,note_on,,,,,2,0,1,,,,,,0,,45,88
34839,note_on,,,,,1,0,1,,,,,,0,,57,86
34842,note_on,,,,,3,0,1,,,,,,0,,88,0
34864,note_on,,,,,22,0,1,,,,,,0,,45,0
34868,note_on,,,,,4,0,1,,,,,,0,,57,0
34872,note_on,,,,,4,0,1,,,,,,0,,77,69
34873,control_change,,,,,1,0,1,,,,64,127,0,,,
34874,set_tempo,,,,,46,1,0,,472441,,,,,,,
34898,note_on,,,,,25,0,1,,,,,,0,,89,78
34901,note_on,,,,,3,0,1,,,,,,0,,81,67
34904,note_on,,,,,3,0,1,,,,,,0,,77,0
34920,set_tempo,,,,,46,1,0,,468750,,,,,,,
34922,set_tempo,,,,,2,1,0,,472441,,,,,,,
34922,note_on,,,,,18,0,1,,,,,,0,,89,0
34925,control_change,,,,,3,0,1,,,,64,0,0,,,
34928,note_on,,,,,3,0,1,,,,,,0,,63,76
34929,note_on,,,,,1,0,1,,,,,,0,,81,0
34930,note_on,,,,,1,0,1,,,,,,0,,51,93
34956,control_change,,,,,26,0,1,,,,64,127,0,,,
34959,note_on,,,,,3,0,1,,,,,,0,,78,79
34962,note_on,,,,,3,0,1,,,,,,0,,63,0
34963,note_on,,,,,1,0,1,,,,,,0,,51,0
34988,note_on,,,,,25,0,1,,,,,,0,,90,70
34990,note_on,,,,,2,0,1,,,,,,0,,81,74
34997,note_on,,,,,7,0,1,,,,,,0,,78,0
35016,note_on,,,,,19,0,1,,,,,,0,,90,0
35020,control_change,,,,,4,0,1,,,,64,0,0,,,
35022,note_on,,,,,0,0,1,,,,,,0,,60,66
35022,note_on,,,,,2,0,1,,,,,,0,,81,0
35023,note_on,,,,,1,0,1,,,,,,0,,48,83
35049,note_on,,,,,26,0,1,,,,,,0,,60,0
35051,control_change,,,,,2,0,1,,,,64,127,0,,,
35052,note_on,,,,,1,0,1,,,,,,0,,75,62
35061,note_on,,,,,9,0,1,,,,,,0,,48,0
35077,note_on,,,,,16,0,1,,,,,,0,,87,54
35081,note_on,,,,,4,0,1,,,,,,0,,78,74
35088,note_on,,,,,7,0,1,,,,,,0,,75,0
35106,note_on,,,,,18,0,1,,,,,,0,,78,0
35109,note_on,,,,,3,0,1,,,,,,0,,45,92
35110,note_on,,,,,1,0,1,,,,,,0,,87,0
35110,note_on,,,,,0,0,1,,,,,,0,,57,88
35112,control_change,,,,,2,0,1,,,,64,0,0,,,
35137,note_on,,,,,25,0,1,,,,,,0,,78,71
35147,control_change,,,,,10,0,1,,,,64,127,0,,,
35150,note_on,,,,,3,0,1,,,,,,0,,57,0
35151,note_on,,,,,1,0,1,,,,,,0,,45,0
35164,note_on,,,,,13,0,1,,,,,,0,,81,71
35165,note_on,,,,,1,0,1,,,,,,0,,90,68
35168,note_on,,,,,3,0,1,,,,,,0,,78,0
35185,note_on,,,,,17,0,1,,,,,,0,,81,0
35198,control_change,,,,,0,0,1,,,,64,0,0,,,
35198,note_on,,,,,13,0,1,,,,,,0,,54,91
35200,note_on,,,,,2,0,1,,,,,,0,,90,0
35200,note_on,,,,,0,0,1,,,,,,0,,42,81
35227,note_on,,,,,27,0,1,,,,,,0,,81,67
35231,control_change,,,,,4,0,1,,,,64,127,0,,,
35242,note_on,,,,,11,0,1,,,,,,0,,54,0
35250,note_on,,,,,8,0,1,,,,,,0,,93,69
35251,note_on,,,,,1,0,1,,,,,,0,,85,76
35259,note_on,,,,,8,0,1,,,,,,0,,81,0
35260,note_on,,,,,1,0,1,,,,,,0,,42,0
35274,note_on,,,,,14,0,1,,,,,,0,,93,0
35277,note_on,,,,,3,0,1,,,,,,0,,85,0
35287,control_change,,,,,10,0,1,,,,64,0,0,,,
35288,note_on,,,,,1,0,1,,,,,,0,,40,83
35289,note_on,,,,,1,0,1,,,,,,0,,52,84
35308,note_on,,,,,19,0,1,,,,,,0,,82,77
35315,note_on,,,,,7,0,1,,,,,,0,,52,0
35320,note_on,,,,,5,0,1,,,,,,0,,40,0
35322,control_change,,,,,2,0,1,,,,64,127,0,,,
35339,note_on,,,,,17,0,1,,,,,,0,,94,84
35342,note_on,,,,,3,0,1,,,,,,0,,85,79
35348,note_on,,,,,6,0,1,,,,,,0,,82,0
35360,note_on,,,,,12,0,1,,,,,,0,,85,0
35365,note_on,,,,,5,0,1,,,,,,0,,94,0
35373,control_change,,,,,8,0,1,,,,64,0,0,,,
35374,note_on,,,,,1,0,1,,,,,,0,,39,87
35375,note_on,,,,,1,0,1,,,,,,0,,51,95
35404,note_on,,,,,0,0,1,,,,,,0,,83,69
35404,note_on,,,,,29,0,1,,,,,,0,,39,0
35405,note_on,,,,,1,0,1,,,,,,0,,51,0
35410,control_change,,,,,5,0,1,,,,64,127,0,,,
35439,note_on,,,,,29,0,1,,,,,,0,,95,74
35441,note_on,,,,,2,0,1,,,,,,0,,87,81
35449,note_on,,,,,8,0,1,,,,,,0,,83,0
35467,note_on,,,,,18,0,1,,,,,,0,,87,0
35468,note_on,,,,,1,0,1,,,,,,0,,57,92
35469,note_on,,,,,1,0,1,,,,,,0,,45,90
35471,note_on,,,,,2,0,1,,,,,,0,,95,0
35472,control_change,,,,,1,0,1,,,,64,0,0,,,
35498,note_on,,,,,26,0,1,,,,,,0,,84,62
35499,note_on,,,,,1,0,1,,,,,,0,,57,0
35502,note_on,,,,,3,0,1,,,,,,0,,45,0
35504,control_change,,,,,2,0,1,,,,64,127,0,,,
35532,note_on,,,,,0,0,1,,,,,,0,,96,80
35532,note_on,,,,,28,0,1,,,,,,0,,87,81
35538,note_on,,,,,6,0,1,,,,,,0,,84,0
35554,note_on,,,,,0,0,1,,,,,,0,,87,0
35554,note_on,,,,,16,0,1,,,,,,0,,96,0
35560,note_on,,,,,6,0,1,,,,,,0,,54,95
35561,control_change,,,,,1,0,1,,,,64,0,0,,,
35562,note_on,,,,,1,0,1,,,,,,0,,42,87
35590,note_on,,,,,28,0,1,,,,,,0,,81,74
35596,note_on,,,,,6,0,1,,,,,,0,,54,0
35598,note_on,,,,,2,0,1,,,,,,0,,42,0
35598,control_change,,,,,0,0,1,,,,64,127,0,,,
35620,note_on,,,,,22,0,1,,,,,,0,,93,81
35621,note_on,,,,,1,0,1,,,,,,0,,84,85
35624,note_on,,,,,3,0,1,,,,,,0,,81,0
35643,note_on,,,,,19,0,1,,,,,,0,,84,0
35651,note_on,,,,,8,0,1,,,,,,0,,93,0
35652,control_change,,,,,1,0,1,,,,64,0,0,,,
35655,note_on,,,,,0,0,1,,,,,,0,,39,89
35655,note_on,,,,,3,0,1,,,,,,0,,51,90
35683,note_on,,,,,28,0,1,,,,,,0,,84,67
35685,control_change,,,,,2,0,1,,,,64,127,0,,,
35688,note_on,,,,,3,0,1,,,,,,0,,39,0
35691,note_on,,,,,3,0,1,,,,,,0,,51,0
35711,note_on,,,,,20,0,1,,,,,,0,,96,87
35711,note_on,,,,,0,0,1,,,,,,0,,87,83
35717,note_on,,,,,6,0,1,,,,,,0,,84,0
35732,note_on,,,,,15,0,1,,,,,,0,,87,0
35734,note_on,,,,,2,0,1,,,,,,0,,96,0
35748,note_on,,,,,14,0,1,,,,,,0,,36,87
35748,control_change,,,,,0,0,1,,,,64,0,0,,,
35749,note_on,,,,,1,0,1,,,,,,0,,48,93
35776,note_on,,,,,27,0,1,,,,,,0,,48,0
35779,note_on,,,,,3,0,1,,,,,,0,,87,94
35781,note_on,,,,,2,0,1,,,,,,0,,36,0
35782,control_change,,,,,1,0,1,,,,64,127,0,,,
35808,note_on,,,,,26,0,1,,,,,,0,,99,86
35810,note_on,,,,,2,0,1,,,,,,0,,90,78
35814,note_on,,,,,4,0,1,,,,,,0,,87,0
35830,note_on,,,,,16,0,1,,,,,,0,,90,0
35832,note_on,,,,,2,0,1,,,,,,0,,99,0
35834,control_change,,,,,2,0,1,,,,64,0,0,,,
35842,note_on,,,,,8,0,1,,,,,,0,,46,91
35843,note_on,,,,,1,0,1,,,,,,0,,34,96
35870,control_change,,,,,27,0,1,,,,64,127,0,,,
35871,note_on,,,,,1,0,1,,,,,,0,,88,78
35872,note_on,,,,,0,0,1,,,,,,0,,46,0
35872,note_on,,,,,1,0,1,,,,,,0,,34,0
35880,set_tempo,,,,,958,1,0,,476190,,,,,,,
35890,set_tempo,,,,,10,1,0,,480000,,,,,,,
35900,set_tempo,,,,,10,1,0,,483871,,,,,,,
35904,note_on,,,,,32,0,1,,,,,,0,,100,92
35905,note_on,,,,,1,0,1,,,,,,0,,91,87
35908,set_tempo,,,,,8,1,0,,487805,,,,,,,
35912,note_on,,,,,7,0,1,,,,,,0,,88,0
35918,set_tempo,,,,,10,1,0,,491803,,,,,,,
35926,control_change,,,,,14,0,1,,,,64,0,0,,,
35928,set_tempo,,,,,10,1,0,,495868,,,,,,,
35928,note_on,,,,,2,0,1,,,,,,0,,91,0
35932,note_on,,,,,4,0,1,,,,,,0,,100,0
35936,set_tempo,,,,,8,1,0,,500000,,,,,,,
35943,note_on,,,,,11,0,1,,,,,,0,,45,98
35943,note_on,,,,,0,0,1,,,,,,0,,33,95
35946,set_tempo,,,,,10,1,0,,504202,,,,,,,
35954,set_tempo,,,,,8,1,0,,508475,,,,,,,
35959,note_on,,,,,16,0,1,,,,,,0,,33,0
35960,control_change,,,,,1,0,1,,,,64,127,0,,,
35964,set_tempo,,,,,10,1,0,,512821,,,,,,,
35964,note_on,,,,,4,0,1,,,,,,0,,45,0
35974,set_tempo,,,,,10,1,0,,517241,,,,,,,
35978,note_on,,,,,14,0,1,,,,,,0,,89,82
35982,set_tempo,,,,,8,1,0,,521739,,,,,,,
35992,set_tempo,,,,,10,1,0,,526316,,,,,,,
36000,set_tempo,,,,,8,1,0,,530973,,,,,,,
36004,set_tempo,,,,,4,1,0,,530973,,,,,,,
36006,note_on,,,,,28,0,1,,,,,,0,,93,87
36012,set_tempo,,,,,8,1,0,,526316,,,,,,,
36014,note_on,,,,,8,0,1,,,,,,0,,89,0
36020,set_tempo,,,,,8,1,0,,521739,,,,,,,
36028,set_tempo,,,,,8,1,0,,517241,,,,,,,
36035,note_on,,,,,21,0,1,,,,,,0,,93,0
36036,set_tempo,,,,,8,1,0,,512821,,,,,,,
36043,note_on,,,,,8,0,1,,,,,,0,,53,81
36043,note_on,,,,,0,0,1,,,,,,0,,101,100
36044,note_on,,,,,0,0,1,,,,,,0,,60,73
36044,note_on,,,,,1,0,1,,,,,,0,,65,82
36044,set_tempo,,,,,8,1,0,,508475,,,,,,,
36045,note_on,,,,,1,0,1,,,,,,0,,57,77
36052,set_tempo,,,,,8,1,0,,504202,,,,,,,
36060,set_tempo,,,,,8,1,0,,500000,,,,,,,
36068,set_tempo,,,,,8,1,0,,495868,,,,,,,
36075,note_on,,,,,30,0,1,,,,,,0,,93,84
36076,set_tempo,,,,,8,1,0,,491803,,,,,,,
36084,set_tempo,,,,,8,1,0,,487805,,,,,,,
36090,note_on,,,,,15,0,1,,,,,,0,,101,0
36092,set_tempo,,,,,8,1,0,,483871,,,,,,,
36100,set_tempo,,,,,8,1,0,,480000,,,,,,,
36102,note_on,,,,,0,0,1,,,,,,0,,89,82
36102,note_on,,,,,12,0,1,,,,,,0,,93,0
36108,set_tempo,,,,,8,1,0,,476190,,,,,,,
36109,note_on,,,,,7,0,1,,,,,,0,,89,0
36109,note_on,,,,,0,0,1,,,,,,0,,53,0
36114,note_on,,,,,5,0,1,,,,,,0,,65,0
36116,set_tempo,,,,,8,1,0,,472441,,,,,,,
36117,note_on,,,,,3,0,1,,,,,,0,,60,0
36123,note_on,,,,,6,0,1,,,,,,0,,57,0
36124,set_tempo,,,,,8,1,0,,468750,,,,,,,
36132,note_on,,,,,9,0,1,,,,,,0,,89,85
36161,note_on,,,,,29,0,1,,,,,,0,,81,84
36181,note_on,,,,,20,0,1,,,,,,0,,89,0
36189,note_on,,,,,8,0,1,,,,,,0,,77,69
36192,note_on,,,,,3,0,1,,,,,,0,,81,0
36201,note_on,,,,,9,0,1,,,,,,0,,77,0
36215,note_on,,,,,14,0,1,,,,,,0,,61,101
36216,note_on,,,,,1,0,1,,,,,,0,,49,92
36224,note_on,,,,,8,0,1,,,,,,0,,77,82
36228,control_change,,,,,4,0,1,,,,64,0,0,,,
36251,note_on,,,,,23,0,1,,,,,,0,,61,0
36254,note_on,,,,,3,0,1,,,,,,0,,69,76
36255,control_change,,,,,1,0,1,,,,64,127,0,,,
36267,note_on,,,,,12,0,1,,,,,,0,,49,0
36279,note_on,,,,,12,0,1,,,,,,0,,77,0
36284,note_on,,,,,5,0,1,,,,,,0,,65,79
36301,note_on,,,,,17,0,1,,,,,,0,,69,0
36315,control_change,,,,,14,0,1,,,,64,0,0,,,
36316,note_on,,,,,1,0,1,,,,,,0,,47,94
36316,note_on,,,,,0,0,1,,,,,,0,,59,93
36318,note_on,,,,,2,0,1,,,,,,0,,65,0
36332,note_on,,,,,14,0,1,,,,,,0,,59,0
36339,note_on,,,,,7,0,1,,,,,,0,,47,0
36340,control_change,,,,,1,0,1,,,,64,127,0,,,
36359,note_on,,,,,19,0,1,,,,,,0,,59,82
36381,note_on,,,,,22,0,1,,,,,,0,,59,0
36402,note_on,,,,,21,0,1,,,,,,0,,61,96
36403,note_on,,,,,1,0,1,,,,,,0,,49,87
36406,control_change,,,,,3,0,1,,,,64,0,0,,,
36424,control_change,,,,,0,0,1,,,,64,127,0,,,
36424,note_on,,,,,18,0,1,,,,,,0,,49,0
36428,note_on,,,,,4,0,1,,,,,,0,,61,0
36431,note_on,,,,,3,0,1,,,,,,0,,61,62
36456,note_on,,,,,25,0,1,,,,,,0,,61,0
36482,note_on,,,,,26,0,1,,,,,,0,,60,90
36483,note_on,,,,,1,0,1,,,,,,0,,48,87
36484,control_change,,,,,1,0,1,,,,64,0,0,,,
36501,control_change,,,,,17,0,1,,,,64,127,0,,,
36502,note_on,,,,,1,0,1,,,,,,0,,60,0
36506,note_on,,,,,4,0,1,,,,,,0,,48,0
36520,note_on,,,,,14,0,1,,,,,,0,,60,74
36547,note_on,,,,,27,0,1,,,,,,0,,60,0
36559,note_on,,,,,12,0,1,,,,,,0,,57,93
36560,note_on,,,,,1,0,1,,,,,,0,,45,92
36573,note_on,,,,,13,0,1,,,,,,0,,57,0
36578,note_on,,,,,5,0,1,,,,,,0,,45,0
36591,note_on,,,,,13,0,1,,,,,,0,,57,88
36635,control_change,,,,,44,0,1,,,,64,0,0,,,
36642,note_on,,,,,7,0,1,,,,,,0,,57,0
36643,note_on,,,,,1,0,1,,,,,,0,,45,102
36644,note_on,,,,,1,0,1,,,,,,0,,33,95
36674,note_on,,,,,30,0,1,,,,,,0,,33,0
36675,control_change,,,,,1,0,1,,,,64,127,0,,,
36682,note_on,,,,,7,0,1,,,,,,0,,45,0
36709,note_on,,,,,27,0,1,,,,,,0,,89,75
36732,note_on,,,,,23,0,1,,,,,,0,,89,0
36732,note_on,,,,,0,0,1,,,,,,0,,93,85
36760,note_on,,,,,28,0,1,,,,,,0,,93,0
36767,note_on,,,,,7,0,1,,,,,,0,,65,86
36768,note_on,,,,,0,0,1,,,,,,0,,53,85
36768,note_on,,,,,0,0,1,,,,,,0,,57,80
36768,note_on,,,,,1,0,1,,,,,,0,,101,95
36769,note_on,,,,,1,0,1,,,,,,0,,61,84
36799,note_on,,,,,30,0,1,,,,,,0,,93,84
36813,note_on,,,,,14,0,1,,,,,,0,,101,0
36825,note_on,,,,,0,0,1,,,,,,0,,89,81
36825,note_on,,,,,12,0,1,,,,,,0,,93,0
36832,note_on,,,,,7,0,1,,,,,,0,,89,0
36838,note_on,,,,,6,0,1,,,,,,0,,65,0
36840,note_on,,,,,2,0,1,,,,,,0,,53,0
36845,note_on,,,,,5,0,1,,,,,,0,,61,0
36848,note_on,,,,,3,0,1,,,,,,0,,57,0
36852,note_on,,,,,4,0,1,,,,,,0,,89,83
36881,note_on,,,,,29,0,1,,,,,,0,,81,78
36895,note_on,,,,,14,0,1,,,,,,0,,89,0
36904,note_on,,,,,9,0,1,,,,,,0,,77,77
36907,note_on,,,,,3,0,1,,,,,,0,,81,0
36916,note_on,,,,,9,0,1,,,,,,0,,77,0
36932,note_on,,,,,16,0,1,,,,,,0,,61,85
36934,note_on,,,,,2,0,1,,,,,,0,,49,80
36936,note_on,,,,,2,0,1,,,,,,0,,77,75
36938,control_change,,,,,2,0,1,,,,64,0,0,,,
36958,control_change,,,,,20,0,1,,,,64,127,0,,,
36962,note_on,,,,,4,0,1,,,,,,0,,61,0
36965,note_on,,,,,3,0,1,,,,,,0,,49,0
36969,note_on,,,,,4,0,1,,,,,,0,,69,82
36992,note_on,,,,,23,0,1,,,,,,0,,77,0
36998,note_on,,,,,6,0,1,,,,,,0,,65,82
37007,note_on,,,,,9,0,1,,,,,,0,,69,0
37021,note_on,,,,,14,0,1,,,,,,0,,65,0
37023,note_on,,,,,2,0,1,,,,,,0,,59,85
37025,note_on,,,,,2,0,1,,,,,,0,,47,85
37030,control_change,,,,,5,0,1,,,,64,0,0,,,
37047,control_change,,,,,17,0,1,,,,64,127,0,,,
37049,note_on,,,,,2,0,1,,,,,,0,,59,0
37050,note_on,,,,,1,0,1,,,,,,0,,47,0
37064,note_on,,,,,14,0,1,,,,,,0,,59,78
37090,note_on,,,,,26,0,1,,,,,,0,,59,0
37108,note_on,,,,,18,0,1,,,,,,0,,50,84
37108,note_on,,,,,0,0,1,,,,,,0,,62,87
37119,control_change,,,,,11,0,1,,,,64,0,0,,,
37122,note_on,,,,,3,0,1,,,,,,0,,62,0
37126,note_on,,,,,4,0,1,,,,,,0,,50,0
37132,control_change,,,,,6,0,1,,,,64,127,0,,,
37144,note_on,,,,,12,0,1,,,,,,0,,62,77
37171,note_on,,,,,27,0,1,,,,,,0,,62,0
37184,note_on,,,,,13,0,1,,,,,,0,,61,91
37185,control_change,,,,,1,0,1,,,,64,0,0,,,
37186,note_on,,,,,1,0,1,,,,,,0,,49,84
37200,control_change,,,,,14,0,1,,,,64,127,0,,,
37202,note_on,,,,,2,0,1,,,,,,0,,61,0
37207,note_on,,,,,5,0,1,,,,,,0,,49,0
37216,note_on,,,,,9,0,1,,,,,,0,,61,81
37246,note_on,,,,,30,0,1,,,,,,0,,61,0
37263,note_on,,,,,17,0,1,,,,,,0,,57,94
37264,control_change,,,,,1,0,1,,,,64,0,0,,,
37265,note_on,,,,,1,0,1,,,,,,0,,45,88
37277,note_on,,,,,12,0,1,,,,,,0,,57,0
37278,control_change,,,,,1,0,1,,,,64,127,0,,,
37279,note_on,,,,,1,0,1,,,,,,0,,45,0
37294,note_on,,,,,15,0,1,,,,,,0,,57,84
37339,note_on,,,,,45,0,1,,,,,,0,,57,0
37345,control_change,,,,,6,0,1,,,,64,0,0,,,
37348,note_on,,,,,3,0,1,,,,,,0,,45,98
37351,note_on,,,,,3,0,1,,,,,,0,,33,95
37376,note_on,,,,,25,0,1,,,,,,0,,33,0
37377,control_change,,,,,1,0,1,,,,64,127,0,,,
37383,note_on,,,,,6,0,1,,,,,,0,,45,0
37410,note_on,,,,,27,0,1,,,,,,0,,90,83
37444,note_on,,,,,34,0,1,,,,,,0,,93,63
37451,note_on,,,,,7,0,1,,,,,,0,,90,0
37469,note_on,,,,,18,0,1,,,,,,0,,93,0
37470,note_on,,,,,1,0,1,,,,,,0,,54,76
37470,note_on,,,,,0,0,1,,,,,,0,,66,88
37470,note_on,,,,,0,0,1,,,,,,0,,62,72
37472,note_on,,,,,2,0,1,,,,,,0,,57,55
37474,note_on,,,,,2,0,1,,,,,,0,,102,93
37502,note_on,,,,,28,0,1,,,,,,0,,93,84
37520,note_on,,,,,18,0,1,,,,,,0,,102,0
37530,note_on,,,,,10,0,1,,,,,,0,,90,78
37531,note_on,,,,,1,0,1,,,,,,0,,93,0
37535,note_on,,,,,4,0,1,,,,,,0,,62,0
37535,note_on,,,,,0,0,1,,,,,,0,,66,0
37537,note_on,,,,,2,0,1,,,,,,0,,90,0
37539,note_on,,,,,2,0,1,,,,,,0,,57,0
37542,note_on,,,,,3,0,1,,,,,,0,,54,0
37560,note_on,,,,,18,0,1,,,,,,0,,90,92
37587,note_on,,,,,27,0,1,,,,,,0,,81,87
37606,note_on,,,,,19,0,1,,,,,,0,,90,0
37614,note_on,,,,,8,0,1,,,,,,0,,78,85
37616,note_on,,,,,2,0,1,,,,,,0,,81,0
37625,note_on,,,,,9,0,1,,,,,,0,,78,0
37636,note_on,,,,,11,0,1,,,,,,0,,62,87
37637,control_change,,,,,1,0,1,,,,64,0,0,,,
37638,note_on,,,,,1,0,1,,,,,,0,,50,87
37646,note_on,,,,,8,0,1,,,,,,0,,78,79
37654,note_on,,,,,8,0,1,,,,,,0,,62,0
37657,note_on,,,,,3,0,1,,,,,,0,,50,0
37659,control_change,,,,,2,0,1,,,,64,127,0,,,
37662,note_on,,,,,3,0,1,,,,,,0,,78,0
37668,note_on,,,,,6,0,1,,,,,,0,,69,83
37686,note_on,,,,,18,0,1,,,,,,0,,69,0
37692,note_on,,,,,6,0,1,,,,,,0,,66,87
37710,note_on,,,,,18,0,1,,,,,,0,,66,0
37725,note_on,,,,,15,0,1,,,,,,0,,61,97
37727,note_on,,,,,2,0,1,,,,,,0,,49,92
37730,control_change,,,,,3,0,1,,,,64,0,0,,,
37747,note_on,,,,,17,0,1,,,,,,0,,61,0
37749,control_change,,,,,2,0,1,,,,64,127,0,,,
37750,note_on,,,,,1,0,1,,,,,,0,,49,0
37768,note_on,,,,,18,0,1,,,,,,0,,61,68
37786,note_on,,,,,18,0,1,,,,,,0,,61,0
37804,note_on,,,,,18,0,1,,,,,,0,,52,84
37807,note_on,,,,,3,0,1,,,,,,0,,64,71
37811,control_change,,,,,4,0,1,,,,64,0,0,,,
37827,note_on,,,,,16,0,1,,,,,,0,,64,0
37828,note_on,,,,,1,0,1,,,,,,0,,52,0
37829,control_change,,,,,1,0,1,,,,64,127,0,,,
37841,note_on,,,,,12,0,1,,,,,,0,,64,90
37866,note_on,,,,,25,0,1,,,,,,0,,64,0
37875,note_on,,,,,9,0,1,,,,,,0,,62,82
37877,note_on,,,,,2,0,1,,,,,,0,,50,84
37882,control_change,,,,,5,0,1,,,,64,0,0,,,
37896,note_on,,,,,14,0,1,,,,,,0,,62,0
37900,note_on,,,,,4,0,1,,,,,,0,,50,0
37905,control_change,,,,,5,0,1,,,,64,127,0,,,
37910,note_on,,,,,5,0,1,,,,,,0,,62,87
37938,note_on,,,,,28,0,1,,,,,,0,,62,0
37943,note_on,,,,,5,0,1,,,,,,0,,59,93
37944,note_on,,,,,1,0,1,,,,,,0,,47,75
37949,control_change,,,,,5,0,1,,,,64,0,0,,,
37958,note_on,,,,,9,0,1,,,,,,0,,59,0
37961,note_on,,,,,3,0,1,,,,,,0,,47,0
37965,control_change,,,,,4,0,1,,,,64,127,0,,,
37976,note_on,,,,,11,0,1,,,,,,0,,59,77
37994,note_on,,,,,18,0,1,,,,,,0,,59,0
38006,note_on,,,,,0,0,1,,,,,,0,,44,85
38006,note_on,,,,,12,0,1,,,,,,0,,56,101
38010,control_change,,,,,4,0,1,,,,64,0,0,,,
38025,note_on,,,,,15,0,1,,,,,,0,,44,0
38026,note_on,,,,,1,0,1,,,,,,0,,56,0
38030,control_change,,,,,4,0,1,,,,64,127,0,,,
38039,note_on,,,,,9,0,1,,,,,,0,,56,95
38063,note_on,,,,,24,0,1,,,,,,0,,56,0
38074,note_on,,,,,11,0,1,,,,,,0,,47,86
38075,note_on,,,,,1,0,1,,,,,,0,,59,77
38084,control_change,,,,,9,0,1,,,,64,0,0,,,
38095,note_on,,,,,11,0,1,,,,,,0,,59,0
38099,note_on,,,,,4,0,1,,,,,,0,,47,0
38102,control_change,,,,,3,0,1,,,,64,127,0,,,
38107,note_on,,,,,5,0,1,,,,,,0,,59,88
38129,note_on,,,,,22,0,1,,,,,,0,,59,0
38138,note_on,,,,,9,0,1,,,,,,0,,57,81
38139,note_on,,,,,1,0,1,,,,,,0,,45,84
38151,control_change,,,,,12,0,1,,,,64,0,0,,,
38156,note_on,,,,,5,0,1,,,,,,0,,57,0
38164,note_on,,,,,8,0,1,,,,,,0,,45,0
38170,control_change,,,,,6,0,1,,,,64,127,0,,,
38171,note_on,,,,,1,0,1,,,,,,0,,57,92
38198,note_on,,,,,27,0,1,,,,,,0,,57,0
38208,note_on,,,,,10,0,1,,,,,,0,,54,88
38208,control_change,,,,,0,0,1,,,,64,0,0,,,
38209,note_on,,,,,1,0,1,,,,,,0,,42,83
38225,note_on,,,,,16,0,1,,,,,,0,,54,0
38228,note_on,,,,,3,0,1,,,,,,0,,42,0
38230,control_change,,,,,2,0,1,,,,64,127,0,,,
38240,note_on,,,,,10,0,1,,,,,,0,,54,84
38266,note_on,,,,,26,0,1,,,,,,0,,54,0
38278,note_on,,,,,12,0,1,,,,,,0,,49,89
38279,note_on,,,,,1,0,1,,,,,,0,,37,84
38292,control_change,,,,,13,0,1,,,,64,0,0,,,
38297,note_on,,,,,5,0,1,,,,,,0,,49,0
38298,note_on,,,,,1,0,1,,,,,,0,,37,0
38320,note_on,,,,,22,0,1,,,,,,0,,38,78
38321,note_on,,,,,1,0,1,,,,,,0,,50,80
38332,note_on,,,,,11,0,1,,,,,,0,,50,0
38333,note_on,,,,,1,0,1,,,,,,0,,38,0
38356,note_on,,,,,0,0,1,,,,,,0,,40,88
38356,note_on,,,,,23,0,1,,,,,,0,,52,91
38368,note_on,,,,,12,0,1,,,,,,0,,40,0
38368,note_on,,,,,0,0,1,,,,,,0,,52,0
38390,note_on,,,,,22,0,1,,,,,,0,,50,85
38390,note_on,,,,,0,0,1,,,,,,0,,38,90
38404,note_on,,,,,14,0,1,,,,,,0,,50,0
38406,note_on,,,,,2,0,1,,,,,,0,,38,0
38426,note_on,,,,,20,0,1,,,,,,0,,49,80
38429,note_on,,,,,3,0,1,,,,,,0,,37,75
38440,note_on,,,,,11,0,1,,,,,,0,,37,0
38440,note_on,,,,,0,0,1,,,,,,0,,49,0
38465,note_on,,,,,25,0,1,,,,,,0,,47,87
38466,note_on,,,,,1,0,1,,,,,,0,,35,91
38477,note_on,,,,,11,0,1,,,,,,0,,47,0
38479,note_on,,,,,2,0,1,,,,,,0,,35,0
38500,note_on,,,,,21,0,1,,,,,,0,,44,101
38502,note_on,,,,,2,0,1,,,,,,0,,32,96
38514,note_on,,,,,12,0,1,,,,,,0,,44,0
38515,note_on,,,,,1,0,1,,,,,,0,,32,0
38544,note_on,,,,,29,0,1,,,,,,0,,33,91
38545,note_on,,,,,1,0,1,,,,,,0,,45,91
38552,note_on,,,,,7,0,1,,,,,,0,,45,0
38552,note_on,,,,,0,0,1,,,,,,0,,33,0
38576,note_on,,,,,0,0,1,,,,,,0,,35,95
38576,note_on,,,,,24,0,1,,,,,,0,,47,95
38587,note_on,,,,,11,0,1,,,,,,0,,47,0
38590,note_on,,,,,3,0,1,,,,,,0,,35,0
38611,note_on,,,,,21,0,1,,,,,,0,,45,95
38612,note_on,,,,,1,0,1,,,,,,0,,33,98
38622,note_on,,,,,10,0,1,,,,,,0,,45,0
38624,note_on,,,,,2,0,1,,,,,,0,,33,0
38647,note_on,,,,,23,0,1,,,,,,0,,44,86
38650,note_on,,,,,3,0,1,,,,,,0,,32,86
38660,note_on,,,,,0,0,1,,,,,,0,,44,0
38660,note_on,,,,,10,0,1,,,,,,0,,32,0
38685,note_on,,,,,25,0,1,,,,,,0,,42,86
38687,note_on,,,,,2,0,1,,,,,,0,,30,84
38700,note_on,,,,,13,0,1,,,,,,0,,42,0
38702,note_on,,,,,2,0,1,,,,,,0,,30,0
38724,note_on,,,,,22,0,1,,,,,,0,,29,100
38725,note_on,,,,,1,0,1,,,,,,0,,41,82
38737,note_on,,,,,12,0,1,,,,,,0,,41,0
38737,note_on,,,,,0,0,1,,,,,,0,,29,0
38765,note_on,,,,,28,0,1,,,,,,0,,30,92
38766,note_on,,,,,1,0,1,,,,,,0,,42,83
38777,note_on,,,,,11,0,1,,,,,,0,,42,0
38777,note_on,,,,,0,0,1,,,,,,0,,30,0
38805,note_on,,,,,28,0,1,,,,,,0,,44,104
38807,note_on,,,,,2,0,1,,,,,,0,,32,90
38820,note_on,,,,,13,0,1,,,,,,0,,44,0
38821,note_on,,,,,1,0,1,,,,,,0,,32,0
38847,note_on,,,,,26,0,1,,,,,,0,,45,94
38848,note_on,,,,,1,0,1,,,,,,0,,33,93
38857,note_on,,,,,9,0,1,,,,,,0,,45,0
38858,note_on,,,,,1,0,1,,,,,,0,,33,0
38887,note_on,,,,,29,0,1,,,,,,0,,49,100
38888,note_on,,,,,1,0,1,,,,,,0,,37,92
38900,note_on,,,,,12,0,1,,,,,,0,,49,0
38902,note_on,,,,,2,0,1,,,,,,0,,37,0
38932,note_on,,,,,30,0,1,,,,,,0,,50,88
38932,note_on,,,,,0,0,1,,,,,,0,,38,94
38944,note_on,,,,,12,0,1,,,,,,0,,50,0
38945,note_on,,,,,1,0,1,,,,,,0,,38,0
38976,note_on,,,,,31,0,1,,,,,,0,,41,97
38977,note_on,,,,,1,0,1,,,,,,0,,53,92
38991,note_on,,,,,14,0,1,,,,,,0,,53,0
38994,note_on,,,,,3,0,1,,,,,,0,,41,0
39020,note_on,,,,,26,0,1,,,,,,0,,54,87
39021,note_on,,,,,1,0,1,,,,,,0,,42,89
39035,note_on,,,,,14,0,1,,,,,,0,,54,0
39038,note_on,,,,,3,0,1,,,,,,0,,42,0
39070,note_on,,,,,32,0,1,,,,,,0,,56,102
39071,note_on,,,,,1,0,1,,,,,,0,,44,93
39090,note_on,,,,,19,0,1,,,,,,0,,56,0
39094,note_on,,,,,4,0,1,,,,,,0,,44,0
39123,note_on,,,,,29,0,1,,,,,,0,,45,94
39124,note_on,,,,,1,0,1,,,,,,0,,57,95
39140,note_on,,,,,16,0,1,,,,,,0,,57,0
39140,note_on,,,,,0,0,1,,,,,,0,,45,0
39175,note_on,,,,,35,0,1,,,,,,0,,61,91
39177,note_on,,,,,2,0,1,,,,,,0,,49,91
39206,note_on,,,,,29,0,1,,,,,,0,,49,0
39209,note_on,,,,,3,0,1,,,,,,0,,61,0
39210,control_change,,,,,1,0,1,,,,64,127,0,,,
39238,note_on,,,,,28,0,1,,,,,,0,,62,94
39239,note_on,,,,,1,0,1,,,,,,0,,50,94
39256,control_change,,,,,17,0,1,,,,64,0,0,,,
39269,note_on,,,,,13,0,1,,,,,,0,,50,0
39271,note_on,,,,,2,0,1,,,,,,0,,62,0
39279,control_change,,,,,8,0,1,,,,64,127,0,,,
39309,note_on,,,,,30,0,1,,,,,,0,,65,96
39312,note_on,,,,,3,0,1,,,,,,0,,53,96
39331,control_change,,,,,19,0,1,,,,64,0,0,,,
39356,control_change,,,,,25,0,1,,,,64,127,0,,,
39367,note_on,,,,,11,0,1,,,,,,0,,53,0
39369,note_on,,,,,2,0,1,,,,,,0,,65,0
39410,note_on,,,,,41,0,1,,,,,,0,,54,96
39411,note_on,,,,,1,0,1,,,,,,0,,66,96
39425,control_change,,,,,14,0,1,,,,64,0,0,,,
39454,control_change,,,,,29,0,1,,,,64,127,0,,,
39481,note_on,,,,,27,0,1,,,,,,0,,66,0
39482,note_on,,,,,1,0,1,,,,,,0,,54,0
39531,note_on,,,,,49,0,1,,,,,,0,,56,102
39532,note_on,,,,,1,0,1,,,,,,0,,68,102
39534,control_change,,,,,2,0,1,,,,64,0,0,,,
39562,control_change,,,,,28,0,1,,,,64,127,0,,,
39589,note_on,,,,,27,0,1,,,,,,0,,56,0
39590,note_on,,,,,1,0,1,,,,,,0,,68,0
39669,note_on,,,,,79,0,1,,,,,,0,,69,106
39670,note_on,,,,,1,0,1,,,,,,0,,57,108
39674,control_change,,,,,4,0,1,,,,64,0,0,,,
39710,control_change,,,,,36,0,1,,,,64,127,0,,,
39713,note_on,,,,,3,0,1,,,,,,0,,69,0
39731,note_on,,,,,18,0,1,,,,,,0,,57,0
39797,control_change,,,,,66,0,1,,,,64,0,0,,,
39811,note_on,,,,,14,0,1,,,,,,0,,44,108
39812,note_on,,,,,1,0,1,,,,,,0,,32,108
39828,control_change,,,,,16,0,1,,,,64,127,0,,,
39830,note_on,,,,,0,0,1,,,,,,0,,44,0
39830,note_on,,,,,2,0,1,,,,,,0,,32,0
39879,note_on,,,,,49,0,1,,,,,,0,,56,69
39913,note_on,,,,,34,0,1,,,,,,0,,54,63
39922,note_on,,,,,9,0,1,,,,,,0,,56,0
39948,note_on,,,,,26,0,1,,,,,,0,,54,0
39954,note_on,,,,,6,0,1,,,,,,0,,60,67
39959,note_on,,,,,0,0,1,,,,,,0,,78,74
39959,note_on,,,,,5,0,1,,,,,,0,,90,81
39989,note_on,,,,,30,0,1,,,,,,0,,60,0
39990,note_on,,,,,1,0,1,,,,,,0,,56,68
40023,note_on,,,,,33,0,1,,,,,,0,,54,72
40025,note_on,,,,,2,0,1,,,,,,0,,56,0
40057,note_on,,,,,32,0,1,,,,,,0,,54,0
40059,note_on,,,,,2,0,1,,,,,,0,,46,80
40062,control_change,,,,,3,0,1,,,,64,0,0,,,
40086,control_change,,,,,24,0,1,,,,64,127,0,,,
40090,note_on,,,,,4,0,1,,,,,,0,,46,0
40093,note_on,,,,,3,0,1,,,,,,0,,56,69
40104,note_on,,,,,11,0,1,,,,,,0,,90,0
40107,note_on,,,,,3,0,1,,,,,,0,,78,0
40123,note_on,,,,,16,0,1,,,,,,0,,54,57
40126,note_on,,,,,3,0,1,,,,,,0,,56,0
40152,note_on,,,,,26,0,1,,,,,,0,,61,68
40153,note_on,,,,,1,0,1,,,,,,0,,89,72
40154,note_on,,,,,1,0,1,,,,,,0,,77,67
40155,note_on,,,,,1,0,1,,,,,,0,,54,0
40180,note_on,,,,,25,0,1,,,,,,0,,89,0
40184,note_on,,,,,4,0,1,,,,,,0,,61,0
40186,note_on,,,,,2,0,1,,,,,,0,,56,58
40187,note_on,,,,,1,0,1,,,,,,0,,77,0
40210,note_on,,,,,23,0,1,,,,,,0,,54,70
40213,note_on,,,,,3,0,1,,,,,,0,,56,0
40236,note_on,,,,,23,0,1,,,,,,0,,54,0
40238,control_change,,,,,2,0,1,,,,64,0,0,,,
40242,note_on,,,,,4,0,1,,,,,,0,,48,74
40247,note_on,,,,,5,0,1,,,,,,0,,86,77
40248,note_on,,,,,1,0,1,,,,,,0,,74,70
40268,note_on,,,,,20,0,1,,,,,,0,,74,0
40270,control_change,,,,,2,0,1,,,,64,127,0,,,
40276,note_on,,,,,0,0,1,,,,,,0,,56,70
40276,note_on,,,,,6,0,1,,,,,,0,,86,0
40277,note_on,,,,,1,0,1,,,,,,0,,48,0
40310,note_on,,,,,0,0,1,,,,,,0,,54,52
40310,note_on,,,,,33,0,1,,,,,,0,,56,0
40331,note_on,,,,,21,0,1,,,,,,0,,54,0
40337,note_on,,,,,6,0,1,,,,,,0,,63,65
40338,note_on,,,,,1,0,1,,,,,,0,,77,65
40338,note_on,,,,,0,0,1,,,,,,0,,89,69
40366,note_on,,,,,0,0,1,,,,,,0,,77,0
40366,note_on,,,,,28,0,1,,,,,,0,,89,0
40369,note_on,,,,,3,0,1,,,,,,0,,56,63
40381,note_on,,,,,12,0,1,,,,,,0,,63,0
40398,note_on,,,,,17,0,1,,,,,,0,,54,62
40399,note_on,,,,,1,0,1,,,,,,0,,56,0
40420,note_on,,,,,21,0,1,,,,,,0,,54,0
40429,control_change,,,,,9,0,1,,,,64,0,0,,,
40431,note_on,,,,,2,0,1,,,,,,0,,49,63
40433,note_on,,,,,2,0,1,,,,,,0,,87,79
40433,note_on,,,,,0,0,1,,,,,,0,,75,74
40457,note_on,,,,,24,0,1,,,,,,0,,49,0
40458,control_change,,,,,1,0,1,,,,64,127,0,,,
40466,note_on,,,,,8,0,1,,,,,,0,,58,62
40480,note_on,,,,,14,0,1,,,,,,0,,87,0
40486,note_on,,,,,6,0,1,,,,,,0,,75,0
40492,note_on,,,,,6,0,1,,,,,,0,,58,0
40494,note_on,,,,,2,0,1,,,,,,0,,54,49
40516,note_on,,,,,22,0,1,,,,,,0,,54,0
40525,note_on,,,,,9,0,1,,,,,,0,,66,72
40530,note_on,,,,,5,0,1,,,,,,0,,85,70
40530,note_on,,,,,0,0,1,,,,,,0,,73,63
40557,note_on,,,,,27,0,1,,,,,,0,,58,63
40562,set_tempo,,,,,4438,1,0,,468750,,,,,,,
40570,note_on,,,,,13,0,1,,,,,,0,,66,0
40576,note_on,,,,,6,0,1,,,,,,0,,85,0
40584,note_on,,,,,8,0,1,,,,,,0,,73,0
40585,note_on,,,,,1,0,1,,,,,,0,,54,57
40590,note_on,,,,,5,0,1,,,,,,0,,58,0
40611,note_on,,,,,21,0,1,,,,,,0,,54,0
40617,note_on,,,,,6,0,1,,,,,,0,,51,76
40618,control_change,,,,,1,0,1,,,,64,0,0,,,
40619,note_on,,,,,1,0,1,,,,,,0,,71,70
40620,note_on,,,,,1,0,1,,,,,,0,,83,74
40634,set_tempo,,,,,72,1,0,,465116,,,,,,,
40635,note_on,,,,,15,0,1,,,,,,0,,71,0
40647,control_change,,,,,12,0,1,,,,64,127,0,,,
40648,note_on,,,,,1,0,1,,,,,,0,,60,56
40651,note_on,,,,,3,0,1,,,,,,0,,83,0
40656,note_on,,,,,5,0,1,,,,,,0,,51,0
40670,note_on,,,,,14,0,1,,,,,,0,,60,0
40676,note_on,,,,,6,0,1,,,,,,0,,56,60
40703,note_on,,,,,27,0,1,,,,,,0,,56,0
40706,set_tempo,,,,,72,1,0,,461538,,,,,,,
40708,note_on,,,,,5,0,1,,,,,,0,,66,66
40711,note_on,,,,,0,0,1,,,,,,0,,85,82
40711,note_on,,,,,3,0,1,,,,,,0,,73,66
40736,note_on,,,,,25,0,1,,,,,,0,,60,60
40742,note_on,,,,,6,0,1,,,,,,0,,66,0
40752,note_on,,,,,10,0,1,,,,,,0,,85,0
40764,note_on,,,,,12,0,1,,,,,,0,,56,69
40768,note_on,,,,,4,0,1,,,,,,0,,73,0
40771,note_on,,,,,3,0,1,,,,,,0,,60,0
40776,set_tempo,,,,,70,1,0,,458015,,,,,,,
40797,note_on,,,,,26,0,1,,,,,,0,,56,0
40800,note_on,,,,,3,0,1,,,,,,0,,52,74
40800,note_on,,,,,0,0,1,,,,,,0,,84,71
40801,note_on,,,,,1,0,1,,,,,,0,,72,70
40803,control_change,,,,,2,0,1,,,,64,0,0,,,
40827,note_on,,,,,24,0,1,,,,,,0,,84,0
40831,note_on,,,,,4,0,1,,,,,,0,,61,67
40832,control_change,,,,,1,0,1,,,,64,127,0,,,
40836,note_on,,,,,4,0,1,,,,,,0,,72,0
40837,note_on,,,,,1,0,1,,,,,,0,,52,0
40848,set_tempo,,,,,72,1,0,,454545,,,,,,,
40856,note_on,,,,,19,0,1,,,,,,0,,56,69
40881,note_on,,,,,25,0,1,,,,,,0,,61,0
40889,note_on,,,,,8,0,1,,,,,,0,,56,0
40891,note_on,,,,,2,0,1,,,,,,0,,82,75
40891,note_on,,,,,0,0,1,,,,,,0,,67,52
40893,note_on,,,,,2,0,1,,,,,,0,,70,70
40918,set_tempo,,,,,70,1,0,,451128,,,,,,,
40920,set_tempo,,,,,2,1,0,,447761,,,,,,,
40926,note_on,,,,,33,0,1,,,,,,0,,61,62
40927,note_on,,,,,1,0,1,,,,,,0,,82,0
40938,note_on,,,,,11,0,1,,,,,,0,,70,0
40940,note_on,,,,,2,0,1,,,,,,0,,67,0
40950,note_on,,,,,10,0,1,,,,,,0,,56,57
40956,set_tempo,,,,,36,1,0,,451128,,,,,,,
40963,note_on,,,,,13,0,1,,,,,,0,,61,0
40978,control_change,,,,,15,0,1,,,,64,0,0,,,
40984,note_on,,,,,0,0,1,,,,,,0,,53,69
40984,note_on,,,,,6,0,1,,,,,,0,,79,69
40986,note_on,,,,,2,0,1,,,,,,0,,67,62
40987,note_on,,,,,1,0,1,,,,,,0,,56,0
40990,set_tempo,,,,,34,1,0,,454545,,,,,,,
41002,note_on,,,,,15,0,1,,,,,,0,,67,0
41005,note_on,,,,,3,0,1,,,,,,0,,79,0
41008,control_change,,,,,3,0,1,,,,64,127,0,,,
41019,note_on,,,,,11,0,1,,,,,,0,,59,45
41024,set_tempo,,,,,34,1,0,,458015,,,,,,,
41036,note_on,,,,,17,0,1,,,,,,0,,53,0
41045,note_on,,,,,9,0,1,,,,,,0,,68,76
41046,note_on,,,,,1,0,1,,,,,,0,,80,72
41047,note_on,,,,,1,0,1,,,,,,0,,62,55
41055,note_on,,,,,8,0,1,,,,,,0,,59,0
41058,set_tempo,,,,,34,1,0,,461538,,,,,,,
41064,control_change,,,,,9,0,1,,,,64,0,0,,,
41066,note_on,,,,,2,0,1,,,,,,0,,68,0
41068,note_on,,,,,2,0,1,,,,,,0,,80,0
41072,note_on,,,,,4,0,1,,,,,,0,,56,68
41076,note_on,,,,,4,0,1,,,,,,0,,62,0
41086,control_change,,,,,10,0,1,,,,64,127,0,,,
41092,set_tempo,,,,,34,1,0,,465116,,,,,,,
41104,note_on,,,,,18,0,1,,,,,,0,,82,81
41106,note_on,,,,,0,0,1,,,,,,0,,59,48
41106,note_on,,,,,2,0,1,,,,,,0,,70,77
41126,set_tempo,,,,,34,1,0,,468750,,,,,,,
41131,note_on,,,,,25,0,1,,,,,,0,,56,0
41131,note_on,,,,,0,0,1,,,,,,0,,62,58
41137,note_on,,,,,6,0,1,,,,,,0,,82,0
41138,control_change,,,,,1,0,1,,,,64,0,0,,,
41142,note_on,,,,,4,0,1,,,,,,0,,59,0
41143,control_change,,,,,1,0,1,,,,64,127,0,,,
41146,note_on,,,,,3,0,1,,,,,,0,,70,0
41160,set_tempo,,,,,34,1,0,,472441,,,,,,,
41163,note_on,,,,,17,0,1,,,,,,0,,54,68
41164,note_on,,,,,1,0,1,,,,,,0,,62,0
41168,note_on,,,,,4,0,1,,,,,,0,,80,74
41170,note_on,,,,,2,0,1,,,,,,0,,68,77
41180,control_change,,,,,10,0,1,,,,64,0,0,,,
41196,set_tempo,,,,,36,1,0,,476190,,,,,,,
41200,note_on,,,,,20,0,1,,,,,,0,,60,53
41202,control_change,,,,,2,0,1,,,,64,127,0,,,
41220,note_on,,,,,18,0,1,,,,,,0,,80,0
41221,note_on,,,,,1,0,1,,,,,,0,,68,0
41224,note_on,,,,,3,0,1,,,,,,0,,60,0
41226,note_on,,,,,2,0,1,,,,,,0,,54,0
41230,set_tempo,,,,,34,1,0,,480000,,,,,,,
41232,note_on,,,,,6,0,1,,,,,,0,,63,51
41258,note_on,,,,,26,0,1,,,,,,0,,63,0
41259,note_on,,,,,1,0,1,,,,,,0,,78,67
41260,note_on,,,,,1,0,1,,,,,,0,,66,61
41262,control_change,,,,,2,0,1,,,,64,0,0,,,
41263,note_on,,,,,1,0,1,,,,,,0,,56,66
41264,set_tempo,,,,,34,1,0,,483871,,,,,,,
41287,control_change,,,,,24,0,1,,,,64,127,0,,,
41292,note_on,,,,,5,0,1,,,,,,0,,60,37
41298,set_tempo,,,,,34,1,0,,487805,,,,,,,
41311,note_on,,,,,19,0,1,,,,,,0,,56,0
41315,note_on,,,,,0,0,1,,,,,,0,,78,0
41315,note_on,,,,,4,0,1,,,,,,0,,60,0
41316,note_on,,,,,1,0,1,,,,,,0,,63,52
41322,note_on,,,,,6,0,1,,,,,,0,,66,0
41332,set_tempo,,,,,34,1,0,,491803,,,,,,,
41335,note_on,,,,,13,0,1,,,,,,0,,63,0
41352,note_on,,,,,17,0,1,,,,,,0,,65,66
41353,note_on,,,,,1,0,1,,,,,,0,,77,67
41356,control_change,,,,,3,0,1,,,,64,0,0,,,
41361,note_on,,,,,5,0,1,,,,,,0,,49,58
41366,set_tempo,,,,,34,1,0,,495868,,,,,,,
41380,control_change,,,,,19,0,1,,,,64,127,0,,,
41395,note_on,,,,,0,0,1,,,,,,0,,65,0
41395,note_on,,,,,15,0,1,,,,,,0,,77,0
41396,note_on,,,,,1,0,1,,,,,,0,,61,65
41396,set_tempo,,,,,30,1,0,,495868,,,,,,,
41400,note_on,,,,,4,0,1,,,,,,0,,49,0
41419,note_on,,,,,19,0,1,,,,,,0,,56,54
41422,set_tempo,,,,,26,1,0,,491803,,,,,,,
41436,note_on,,,,,17,0,1,,,,,,0,,61,0
41442,note_on,,,,,6,0,1,,,,,,0,,56,0
41444,note_on,,,,,2,0,1,,,,,,0,,53,67
41446,set_tempo,,,,,24,1,0,,487805,,,,,,,
41446,note_on,,,,,2,0,1,,,,,,0,,80,70
41447,note_on,,,,,1,0,1,,,,,,0,,68,71
41453,control_change,,,,,6,0,1,,,,64,0,0,,,
41470,set_tempo,,,,,24,1,0,,483871,,,,,,,
41478,note_on,,,,,25,0,1,,,,,,0,,56,69
41480,control_change,,,,,2,0,1,,,,64,127,0,,,
41486,note_on,,,,,6,0,1,,,,,,0,,68,0
41490,note_on,,,,,4,0,1,,,,,,0,,53,0
41494,set_tempo,,,,,24,1,0,,480000,,,,,,,
41498,note_on,,,,,8,0,1,,,,,,0,,80,0
41506,note_on,,,,,8,0,1,,,,,,0,,61,76
41511,note_on,,,,,5,0,1,,,,,,0,,56,0
41518,set_tempo,,,,,24,1,0,,476190,,,,,,,
41523,note_on,,,,,12,0,1,,,,,,0,,61,0
41538,note_on,,,,,0,0,1,,,,,,0,,73,76
41538,note_on,,,,,15,0,1,,,,,,0,,85,86
41541,note_on,,,,,3,0,1,,,,,,0,,58,68
41544,set_tempo,,,,,26,1,0,,472441,,,,,,,
41552,control_change,,,,,11,0,1,,,,64,0,0,,,
41568,set_tempo,,,,,24,1,0,,468750,,,,,,,
41574,note_on,,,,,22,0,1,,,,,,0,,66,66
41576,control_change,,,,,2,0,1,,,,64,127,0,,,
41578,note_on,,,,,2,0,1,,,,,,0,,58,0
41590,note_on,,,,,12,0,1,,,,,,0,,73,0
41592,set_tempo,,,,,24,1,0,,465116,,,,,,,
41596,note_on,,,,,6,0,1,,,,,,0,,85,0
41598,note_on,,,,,2,0,1,,,,,,0,,61,68
41605,note_on,,,,,7,0,1,,,,,,0,,66,0
41616,set_tempo,,,,,24,1,0,,461538,,,,,,,
41627,note_on,,,,,22,0,1,,,,,,0,,61,0
41630,note_on,,,,,3,0,1,,,,,,0,,56,77
41631,note_on,,,,,0,0,1,,,,,,0,,75,77
41631,note_on,,,,,1,0,1,,,,,,0,,87,90
41636,control_change,,,,,5,0,1,,,,64,0,0,,,
41640,set_tempo,,,,,24,1,0,,458015,,,,,,,
41664,set_tempo,,,,,24,1,0,,454545,,,,,,,
41668,note_on,,,,,32,0,1,,,,,,0,,65,66
41670,control_change,,,,,2,0,1,,,,64,127,0,,,
41682,note_on,,,,,12,0,1,,,,,,0,,56,0
41694,note_on,,,,,12,0,1,,,,,,0,,87,0
41696,note_on,,,,,2,0,1,,,,,,0,,61,60
41699,note_on,,,,,3,0,1,,,,,,0,,75,0
41716,note_on,,,,,17,0,1,,,,,,0,,65,0
41723,note_on,,,,,7,0,1,,,,,,0,,55,70
41730,note_on,,,,,7,0,1,,,,,,0,,88,80
41731,note_on,,,,,1,0,1,,,,,,0,,76,71
41737,note_on,,,,,6,0,1,,,,,,0,,61,0
41738,control_change,,,,,1,0,1,,,,64,0,0,,,
41770,note_on,,,,,32,0,1,,,,,,0,,70,60
41777,control_change,,,,,7,0,1,,,,64,127,0,,,
41792,note_on,,,,,15,0,1,,,,,,0,,64,61
41796,note_on,,,,,4,0,1,,,,,,0,,70,0
41817,note_on,,,,,21,0,1,,,,,,0,,55,0
41821,note_on,,,,,4,0,1,,,,,,0,,64,0
41822,note_on,,,,,1,0,1,,,,,,0,,61,65
41830,note_on,,,,,8,0,1,,,,,,0,,76,0
41848,note_on,,,,,18,0,1,,,,,,0,,88,0
41849,note_on,,,,,1,0,1,,,,,,0,,69,63
41881,note_on,,,,,32,0,1,,,,,,0,,64,52
41885,note_on,,,,,4,0,1,,,,,,0,,69,0
41898,control_change,,,,,13,0,1,,,,64,0,0,,,
41902,note_on,,,,,4,0,1,,,,,,0,,64,0
41907,note_on,,,,,5,0,1,,,,,,0,,89,65
41909,note_on,,,,,2,0,1,,,,,,0,,77,57
41912,note_on,,,,,3,0,1,,,,,,0,,61,0
41913,note_on,,,,,1,0,1,,,,,,0,,56,62
41931,note_on,,,,,18,0,1,,,,,,0,,89,0
41933,control_change,,,,,2,0,1,,,,64,127,0,,,
41935,note_on,,,,,2,0,1,,,,,,0,,77,0
41945,note_on,,,,,10,0,1,,,,,,0,,68,56
41959,note_on,,,,,14,0,1,,,,,,0,,56,0
41971,note_on,,,,,12,0,1,,,,,,0,,61,51
41976,note_on,,,,,5,0,1,,,,,,0,,68,0
41995,note_on,,,,,19,0,1,,,,,,0,,61,0
42002,note_on,,,,,0,0,1,,,,,,0,,85,76
42002,note_on,,,,,7,0,1,,,,,,0,,73,67
42003,note_on,,,,,1,0,1,,,,,,0,,56,68
42006,control_change,,,,,3,0,1,,,,64,0,0,,,
42032,control_change,,,,,26,0,1,,,,64,127,0,,,
42039,note_on,,,,,7,0,1,,,,,,0,,65,57
42040,note_on,,,,,1,0,1,,,,,,0,,85,0
42042,note_on,,,,,2,0,1,,,,,,0,,56,0
42052,note_on,,,,,10,0,1,,,,,,0,,73,0
42065,note_on,,,,,13,0,1,,,,,,0,,61,61
42069,note_on,,,,,4,0,1,,,,,,0,,65,0
42089,note_on,,,,,20,0,1,,,,,,0,,61,0
42095,note_on,,,,,6,0,1,,,,,,0,,82,72
42096,note_on,,,,,1,0,1,,,,,,0,,55,64
42097,note_on,,,,,1,0,1,,,,,,0,,70,69
42101,control_change,,,,,4,0,1,,,,64,0,0,,,
42128,control_change,,,,,27,0,1,,,,64,127,0,,,
42129,note_on,,,,,1,0,1,,,,,,0,,64,79
42140,note_on,,,,,11,0,1,,,,,,0,,82,0
42141,note_on,,,,,1,0,1,,,,,,0,,55,0
42152,note_on,,,,,11,0,1,,,,,,0,,70,0
42159,note_on,,,,,7,0,1,,,,,,0,,61,62
42164,note_on,,,,,5,0,1,,,,,,0,,64,0
42181,note_on,,,,,17,0,1,,,,,,0,,61,0
42188,note_on,,,,,7,0,1,,,,,,0,,56,66
42190,note_on,,,,,2,0,1,,,,,,0,,68,78
42191,note_on,,,,,1,0,1,,,,,,0,,80,76
42200,control_change,,,,,9,0,1,,,,64,0,0,,,
42217,note_on,,,,,17,0,1,,,,,,0,,65,67
42224,control_change,,,,,7,0,1,,,,64,127,0,,,
42226,note_on,,,,,2,0,1,,,,,,0,,68,0
42240,note_on,,,,,14,0,1,,,,,,0,,80,0
42244,note_on,,,,,4,0,1,,,,,,0,,61,67
42256,note_on,,,,,12,0,1,,,,,,0,,65,0
42278,note_on,,,,,22,0,1,,,,,,0,,85,85
42279,note_on,,,,,1,0,1,,,,,,0,,73,75
42283,note_on,,,,,4,0,1,,,,,,0,,61,0
42284,note_on,,,,,1,0,1,,,,,,0,,54,62
42289,control_change,,,,,5,0,1,,,,64,0,0,,,
42292,note_on,,,,,3,0,1,,,,,,0,,56,0
42310,control_change,,,,,18,0,1,,,,64,127,0,,,
42312,note_on,,,,,2,0,1,,,,,,0,,63,66
42319,note_on,,,,,7,0,1,,,,,,0,,54,0
42326,note_on,,,,,7,0,1,,,,,,0,,73,0
42331,note_on,,,,,5,0,1,,,,,,0,,85,0
42344,note_on,,,,,13,0,1,,,,,,0,,58,65
42364,note_on,,,,,20,0,1,,,,,,0,,63,0
42366,note_on,,,,,2,0,1,,,,,,0,,58,0
42379,note_on,,,,,13,0,1,,,,,,0,,89,74
42379,note_on,,,,,0,0,1,,,,,,0,,77,81
42382,note_on,,,,,3,0,1,,,,,,0,,53,64
42386,control_change,,,,,4,0,1,,,,64,0,0,,,
42411,note_on,,,,,25,0,1,,,,,,0,,77,0
42413,note_on,,,,,2,0,1,,,,,,0,,61,74
42418,note_on,,,,,5,0,1,,,,,,0,,89,0
42421,control_change,,,,,3,0,1,,,,64,127,0,,,
42434,note_on,,,,,13,0,1,,,,,,0,,53,0
42438,note_on,,,,,4,0,1,,,,,,0,,56,62
42450,note_on,,,,,12,0,1,,,,,,0,,61,0
42471,note_on,,,,,21,0,1,,,,,,0,,56,0
42476,note_on,,,,,5,0,1,,,,,,0,,52,72
42478,note_on,,,,,0,0,1,,,,,,0,,82,80
42478,note_on,,,,,2,0,1,,,,,,0,,94,91
42484,control_change,,,,,6,0,1,,,,64,0,0,,,
42506,note_on,,,,,22,0,1,,,,,,0,,60,67
42540,note_on,,,,,34,0,1,,,,,,0,,55,62
42542,note_on,,,,,2,0,1,,,,,,0,,60,0
42567,control_change,,,,,25,0,1,,,,64,127,0,,,
42577,note_on,,,,,10,0,1,,,,,,0,,52,0
42580,note_on,,,,,3,0,1,,,,,,0,,55,0
42581,note_on,,,,,1,0,1,,,,,,0,,53,67
42600,set_tempo,,,,,936,1,0,,458015,,,,,,,
42610,note_on,,,,,29,0,1,,,,,,0,,94,0
42612,note_on,,,,,2,0,1,,,,,,0,,61,67
42616,set_tempo,,,,,16,1,0,,461538,,,,,,,
42622,note_on,,,,,10,0,1,,,,,,0,,82,0
42623,note_on,,,,,1,0,1,,,,,,0,,53,0
42630,set_tempo,,,,,14,1,0,,465116,,,,,,,
42640,note_on,,,,,17,0,1,,,,,,0,,56,65
42642,note_on,,,,,2,0,1,,,,,,0,,61,0
42644,set_tempo,,,,,14,1,0,,468750,,,,,,,
42658,set_tempo,,,,,14,1,0,,472441,,,,,,,
42664,note_on,,,,,22,0,1,,,,,,0,,56,0
42672,set_tempo,,,,,14,1,0,,476190,,,,,,,
42674,note_on,,,,,10,0,1,,,,,,0,,48,68
42677,control_change,,,,,3,0,1,,,,64,0,0,,,
42678,note_on,,,,,1,0,1,,,,,,0,,92,67
42679,note_on,,,,,1,0,1,,,,,,0,,80,65
42688,set_tempo,,,,,16,1,0,,480000,,,,,,,
42702,set_tempo,,,,,14,1,0,,483871,,,,,,,
42706,control_change,,,,,27,0,1,,,,64,127,0,,,
42714,note_on,,,,,8,0,1,,,,,,0,,64,71
42716,set_tempo,,,,,14,1,0,,487805,,,,,,,
42721,note_on,,,,,7,0,1,,,,,,0,,48,0
42730,set_tempo,,,,,14,1,0,,491803,,,,,,,
42738,note_on,,,,,17,0,1,,,,,,0,,64,0
42742,note_on,,,,,4,0,1,,,,,,0,,56,63
42744,set_tempo,,,,,14,1,0,,495868,,,,,,,
42760,set_tempo,,,,,16,1,0,,500000,,,,,,,
42766,control_change,,,,,24,0,1,,,,64,0,0,,,
42770,note_on,,,,,4,0,1,,,,,,0,,56,0
42771,note_on,,,,,1,0,1,,,,,,0,,49,69
42774,set_tempo,,,,,14,1,0,,504202,,,,,,,
42784,control_change,,,,,13,0,1,,,,64,127,0,,,
42788,set_tempo,,,,,14,1,0,,508475,,,,,,,
42798,note_on,,,,,14,0,1,,,,,,0,,49,0
42802,set_tempo,,,,,14,1,0,,512821,,,,,,,
42814,note_on,,,,,16,0,1,,,,,,0,,65,58
42816,set_tempo,,,,,14,1,0,,517241,,,,,,,
42832,set_tempo,,,,,16,1,0,,521739,,,,,,,
42836,note_on,,,,,22,0,1,,,,,,0,,56,60
42841,note_on,,,,,5,0,1,,,,,,0,,65,0
42846,set_tempo,,,,,14,1,0,,526316,,,,,,,
42859,note_on,,,,,18,0,1,,,,,,0,,56,0
42860,set_tempo,,,,,14,1,0,,530973,,,,,,,
42871,control_change,,,,,12,0,1,,,,64,0,0,,,
42874,set_tempo,,,,,14,1,0,,535714,,,,,,,
42876,note_on,,,,,5,0,1,,,,,,0,,44,81
42888,set_tempo,,,,,14,1,0,,540541,,,,,,,
42890,note_on,,,,,14,0,1,,,,,,0,,44,0
42890,note_on,,,,,0,0,1,,,,,,0,,80,0
42891,control_change,,,,,1,0,1,,,,64,127,0,,,
42896,note_on,,,,,5,0,1,,,,,,0,,92,0
42904,set_tempo,,,,,16,1,0,,545455,,,,,,,
42918,set_tempo,,,,,14,1,0,,550459,,,,,,,
42920,note_on,,,,,24,0,1,,,,,,0,,56,61
42932,set_tempo,,,,,14,1,0,,555556,,,,,,,
42946,set_tempo,,,,,14,1,0,,560748,,,,,,,
42948,note_on,,,,,28,0,1,,,,,,0,,56,0
42950,note_on,,,,,2,0,1,,,,,,0,,54,49
42960,set_tempo,,,,,14,1,0,,566038,,,,,,,
42962,set_tempo,,,,,2,1,0,,545455,,,,,,,
42975,note_on,,,,,25,0,1,,,,,,0,,54,0
42978,note_on,,,,,3,0,1,,,,,,0,,60,61
42979,note_on,,,,,1,0,1,,,,,,0,,90,77
42980,set_tempo,,,,,18,1,0,,540541,,,,,,,
42980,note_on,,,,,1,0,1,,,,,,0,,78,77
42996,set_tempo,,,,,16,1,0,,535714,,,,,,,
43005,note_on,,,,,25,0,1,,,,,,0,,60,0
43009,note_on,,,,,4,0,1,,,,,,0,,56,65
43014,set_tempo,,,,,18,1,0,,530973,,,,,,,
43026,note_on,,,,,17,0,1,,,,,,0,,56,0
43030,set_tempo,,,,,16,1,0,,526316,,,,,,,
43032,note_on,,,,,6,0,1,,,,,,0,,54,65
43048,set_tempo,,,,,18,1,0,,521739,,,,,,,
43054,note_on,,,,,22,0,1,,,,,,0,,54,0
43064,set_tempo,,,,,16,1,0,,517241,,,,,,,
43068,note_on,,,,,14,0,1,,,,,,0,,46,66
43070,control_change,,,,,2,0,1,,,,64,0,0,,,
43082,set_tempo,,,,,18,1,0,,512821,,,,,,,
43095,control_change,,,,,25,0,1,,,,64,127,0,,,
43098,set_tempo,,,,,16,1,0,,508475,,,,,,,
43099,note_on,,,,,4,0,1,,,,,,0,,56,75
43101,note_on,,,,,2,0,1,,,,,,0,,46,0
43116,note_on,,,,,15,0,1,,,,,,0,,90,0
43116,set_tempo,,,,,18,1,0,,504202,,,,,,,
43118,note_on,,,,,2,0,1,,,,,,0,,78,0
43129,note_on,,,,,11,0,1,,,,,,0,,56,0
43131,note_on,,,,,2,0,1,,,,,,0,,54,56
43132,set_tempo,,,,,16,1,0,,500000,,,,,,,
43150,set_tempo,,,,,18,1,0,,495868,,,,,,,
43158,note_on,,,,,27,0,1,,,,,,0,,54,0
43160,note_on,,,,,2,0,1,,,,,,0,,89,70
43162,note_on,,,,,0,0,1,,,,,,0,,77,63
43162,note_on,,,,,2,0,1,,,,,,0,,61,57
43166,set_tempo,,,,,16,1,0,,491803,,,,,,,
43174,note_on,,,,,12,0,1,,,,,,0,,61,0
43184,set_tempo,,,,,18,1,0,,487805,,,,,,,
43188,note_on,,,,,14,0,1,,,,,,0,,89,0
43190,note_on,,,,,2,0,1,,,,,,0,,56,61
43198,note_on,,,,,8,0,1,,,,,,0,,77,0
43200,set_tempo,,,,,16,1,0,,483871,,,,,,,
43216,note_on,,,,,18,0,1,,,,,,0,,56,0
43218,note_on,,,,,2,0,1,,,,,,0,,54,57
43218,set_tempo,,,,,18,1,0,,480000,,,,,,,
43234,set_tempo,,,,,16,1,0,,476190,,,,,,,
43242,note_on,,,,,24,0,1,,,,,,0,,54,0
43243,control_change,,,,,1,0,1,,,,64,0,0,,,
43249,note_on,,,,,6,0,1,,,,,,0,,48,68
43252,note_on,,,,,3,0,1,,,,,,0,,86,72
43252,note_on,,,,,0,0,1,,,,,,0,,74,65
43252,set_tempo,,,,,18,1,0,,472441,,,,,,,
43268,set_tempo,,,,,16,1,0,,468750,,,,,,,
43269,note_on,,,,,17,0,1,,,,,,0,,74,0
43270,note_on,,,,,1,0,1,,,,,,0,,86,0
43271,control_change,,,,,1,0,1,,,,64,127,0,,,
43279,note_on,,,,,8,0,1,,,,,,0,,48,0
43284,note_on,,,,,5,0,1,,,,,,0,,56,65
43286,set_tempo,,,,,18,1,0,,465116,,,,,,,
43302,set_tempo,,,,,16,1,0,,461538,,,,,,,
43309,note_on,,,,,25,0,1,,,,,,0,,75,74
43310,note_on,,,,,1,0,1,,,,,,0,,87,82
43312,note_on,,,,,2,0,1,,,,,,0,,54,48
43317,note_on,,,,,5,0,1,,,,,,0,,56,0
43318,set_tempo,,,,,16,1,0,,458015,,,,,,,
43320,set_tempo,,,,,2,1,0,,472441,,,,,,,
43326,note_on,,,,,0,0,1,,,,,,0,,87,0
43326,note_on,,,,,9,0,1,,,,,,0,,75,0
43327,note_on,,,,,1,0,1,,,,,,0,,54,0
43336,note_on,,,,,9,0,1,,,,,,0,,63,62
43364,note_on,,,,,28,0,1,,,,,,0,,56,69
43368,note_on,,,,,0,0,1,,,,,,0,,89,74
43368,note_on,,,,,4,0,1,,,,,,0,,77,70
43380,note_on,,,,,12,0,1,,,,,,0,,63,0
43387,note_on,,,,,7,0,1,,,,,,0,,89,0
43388,note_on,,,,,1,0,1,,,,,,0,,77,0
43388,note_on,,,,,0,0,1,,,,,,0,,56,0
43390,note_on,,,,,2,0,1,,,,,,0,,54,58
43411,note_on,,,,,21,0,1,,,,,,0,,54,0
43420,set_tempo,,,,,100,1,0,,476190,,,,,,,
43428,note_on,,,,,17,0,1,,,,,,0,,49,69
43431,note_on,,,,,3,0,1,,,,,,0,,87,79
43432,note_on,,,,,1,0,1,,,,,,0,,75,77
43436,control_change,,,,,4,0,1,,,,64,0,0,,,
43455,note_on,,,,,19,0,1,,,,,,0,,58,69
43462,control_change,,,,,7,0,1,,,,64,127,0,,,
43464,note_on,,,,,2,0,1,,,,,,0,,49,0
43465,note_on,,,,,1,0,1,,,,,,0,,87,0
43471,note_on,,,,,6,0,1,,,,,,0,,75,0
43487,note_on,,,,,16,0,1,,,,,,0,,54,57
43497,note_on,,,,,10,0,1,,,,,,0,,58,0
43511,note_on,,,,,14,0,1,,,,,,0,,54,0
43514,note_on,,,,,3,0,1,,,,,,0,,66,71
43520,note_on,,,,,6,0,1,,,,,,0,,85,78
43520,set_tempo,,,,,100,1,0,,480000,,,,,,,
43520,note_on,,,,,0,0,1,,,,,,0,,73,77
43549,note_on,,,,,29,0,1,,,,,,0,,58,65
43558,note_on,,,,,9,0,1,,,,,,0,,66,0
43560,note_on,,,,,2,0,1,,,,,,0,,85,0
43568,note_on,,,,,8,0,1,,,,,,0,,73,0
43576,note_on,,,,,8,0,1,,,,,,0,,54,65
43582,note_on,,,,,6,0,1,,,,,,0,,58,0
43600,note_on,,,,,18,0,1,,,,,,0,,54,0
43606,control_change,,,,,6,0,1,,,,64,0,0,,,
43608,note_on,,,,,0,0,1,,,,,,0,,83,75
43608,note_on,,,,,2,0,1,,,,,,0,,71,72
43609,note_on,,,,,1,0,1,,,,,,0,,51,81
43620,set_tempo,,,,,100,1,0,,483871,,,,,,,
43626,note_on,,,,,17,0,1,,,,,,0,,71,0
43632,note_on,,,,,6,0,1,,,,,,0,,83,0
43634,control_change,,,,,2,0,1,,,,64,127,0,,,
43641,note_on,,,,,7,0,1,,,,,,0,,60,49
43653,note_on,,,,,12,0,1,,,,,,0,,51,0
43669,note_on,,,,,16,0,1,,,,,,0,,72,76
43670,note_on,,,,,1,0,1,,,,,,0,,84,78
43672,note_on,,,,,2,0,1,,,,,,0,,56,57
43678,note_on,,,,,6,0,1,,,,,,0,,60,0
43686,note_on,,,,,0,0,1,,,,,,0,,84,0
43686,note_on,,,,,8,0,1,,,,,,0,,72,0
43690,note_on,,,,,4,0,1,,,,,,0,,56,0
43693,note_on,,,,,3,0,1,,,,,,0,,66,63
43720,set_tempo,,,,,100,1,0,,487805,,,,,,,
43725,note_on,,,,,32,0,1,,,,,,0,,66,0
43726,note_on,,,,,1,0,1,,,,,,0,,85,91
43727,note_on,,,,,1,0,1,,,,,,0,,73,86
43728,note_on,,,,,1,0,1,,,,,,0,,60,63
43752,note_on,,,,,24,0,1,,,,,,0,,56,68
43753,note_on,,,,,1,0,1,,,,,,0,,60,0
43756,note_on,,,,,3,0,1,,,,,,0,,85,0
43764,note_on,,,,,8,0,1,,,,,,0,,73,0
43784,note_on,,,,,20,0,1,,,,,,0,,52,69
43786,note_on,,,,,2,0,1,,,,,,0,,56,0
43789,note_on,,,,,3,0,1,,,,,,0,,84,84
43790,note_on,,,,,1,0,1,,,,,,0,,72,80
43810,control_change,,,,,20,0,1,,,,64,0,0,,,
43825,note_on,,,,,15,0,1,,,,,,0,,61,72
43837,note_on,,,,,12,0,1,,,,,,0,,84,0
43839,note_on,,,,,2,0,1,,,,,,0,,52,0
43842,control_change,,,,,3,0,1,,,,64,127,0,,,
43847,note_on,,,,,5,0,1,,,,,,0,,72,0
43854,note_on,,,,,7,0,1,,,,,,0,,56,62
43869,note_on,,,,,15,0,1,,,,,,0,,61,0
43879,note_on,,,,,10,0,1,,,,,,0,,56,0
43881,note_on,,,,,2,0,1,,,,,,0,,67,57
43888,note_on,,,,,7,0,1,,,,,,0,,82,81
43889,note_on,,,,,1,0,1,,,,,,0,,70,79
43918,note_on,,,,,29,0,1,,,,,,0,,61,62
43936,note_on,,,,,18,0,1,,,,,,0,,82,0
43940,note_on,,,,,4,0,1,,,,,,0,,67,0
43942,note_on,,,,,2,0,1,,,,,,0,,70,0
43952,note_on,,,,,10,0,1,,,,,,0,,56,56
43957,note_on,,,,,5,0,1,,,,,,0,,61,0
43979,note_on,,,,,22,0,1,,,,,,0,,53,71
43982,note_on,,,,,3,0,1,,,,,,0,,79,76
43984,note_on,,,,,2,0,1,,,,,,0,,67,69
43990,control_change,,,,,6,0,1,,,,64,0,0,,,
43996,note_on,,,,,6,0,1,,,,,,0,,56,0
44007,note_on,,,,,11,0,1,,,,,,0,,67,0
44009,note_on,,,,,2,0,1,,,,,,0,,79,0
44015,note_on,,,,,6,0,1,,,,,,0,,59,35
44018,control_change,,,,,3,0,1,,,,64,127,0,,,
44030,note_on,,,,,12,0,1,,,,,,0,,53,0
44043,note_on,,,,,13,0,1,,,,,,0,,62,53
44047,note_on,,,,,4,0,1,,,,,,0,,68,76
44048,note_on,,,,,1,0,1,,,,,,0,,80,79
44050,note_on,,,,,2,0,1,,,,,,0,,59,0
44070,note_on,,,,,0,0,1,,,,,,0,,68,0
44070,note_on,,,,,20,0,1,,,,,,0,,80,0
44072,note_on,,,,,2,0,1,,,,,,0,,62,0
44073,note_on,,,,,1,0,1,,,,,,0,,56,69
44106,note_on,,,,,33,0,1,,,,,,0,,59,44
44111,note_on,,,,,5,0,1,,,,,,0,,70,78
44112,note_on,,,,,1,0,1,,,,,,0,,82,82
44114,control_change,,,,,2,0,1,,,,64,0,0,,,
44123,note_on,,,,,9,0,1,,,,,,0,,56,0
44138,note_on,,,,,15,0,1,,,,,,0,,59,0
44140,note_on,,,,,2,0,1,,,,,,0,,62,64
44140,control_change,,,,,0,0,1,,,,64,127,0,,,
44151,note_on,,,,,11,0,1,,,,,,0,,82,0
44156,note_on,,,,,5,0,1,,,,,,0,,70,0
44175,note_on,,,,,19,0,1,,,,,,0,,62,0
44176,note_on,,,,,1,0,1,,,,,,0,,54,39
44178,note_on,,,,,2,0,1,,,,,,0,,80,78
44179,note_on,,,,,1,0,1,,,,,,0,,68,84
44198,control_change,,,,,19,0,1,,,,64,0,0,,,
44210,note_on,,,,,12,0,1,,,,,,0,,60,57
44221,control_change,,,,,11,0,1,,,,64,127,0,,,
44236,note_on,,,,,15,0,1,,,,,,0,,80,0
44240,note_on,,,,,4,0,1,,,,,,0,,68,0
44242,note_on,,,,,2,0,1,,,,,,0,,63,53
44248,note_on,,,,,6,0,1,,,,,,0,,54,0
44250,note_on,,,,,2,0,1,,,,,,0,,60,0
44268,note_on,,,,,18,0,1,,,,,,0,,63,0
44271,note_on,,,,,3,0,1,,,,,,0,,56,66
44274,note_on,,,,,3,0,1,,,,,,0,,78,72
44276,note_on,,,,,2,0,1,,,,,,0,,66,69
44286,control_change,,,,,10,0,1,,,,64,0,0,,,
44311,note_on,,,,,25,0,1,,,,,,0,,60,43
44314,control_change,,,,,3,0,1,,,,64,127,0,,,
44331,note_on,,,,,17,0,1,,,,,,0,,63,49
44333,note_on,,,,,2,0,1,,,,,,0,,56,0
44334,note_on,,,,,1,0,1,,,,,,0,,60,0
44338,note_on,,,,,4,0,1,,,,,,0,,78,0
44342,note_on,,,,,4,0,1,,,,,,0,,66,0
44354,note_on,,,,,12,0,1,,,,,,0,,63,0
44372,note_on,,,,,0,0,1,,,,,,0,,77,59
44372,note_on,,,,,18,0,1,,,,,,0,,65,56
44374,note_on,,,,,2,0,1,,,,,,0,,49,61
44382,control_change,,,,,8,0,1,,,,64,0,0,,,
44400,set_tempo,,,,,680,1,0,,487805,,,,,,,
44406,control_change,,,,,24,0,1,,,,64,127,0,,,
44413,note_on,,,,,7,0,1,,,,,,0,,61,65
44417,note_on,,,,,4,0,1,,,,,,0,,65,0
44421,note_on,,,,,4,0,1,,,,,,0,,77,0
44421,note_on,,,,,0,0,1,,,,,,0,,49,0
44422,set_tempo,,,,,22,1,0,,483871,,,,,,,
44433,note_on,,,,,12,0,1,,,,,,0,,56,51
44444,set_tempo,,,,,22,1,0,,480000,,,,,,,
44453,note_on,,,,,20,0,1,,,,,,0,,61,0
44458,note_on,,,,,5,0,1,,,,,,0,,56,0
44459,note_on,,,,,1,0,1,,,,,,0,,53,63
44464,set_tempo,,,,,20,1,0,,476190,,,,,,,
44464,note_on,,,,,5,0,1,,,,,,0,,68,70
44465,note_on,,,,,1,0,1,,,,,,0,,80,71
44476,control_change,,,,,11,0,1,,,,64,0,0,,,
44486,set_tempo,,,,,22,1,0,,472441,,,,,,,
44499,note_on,,,,,23,0,1,,,,,,0,,56,70
44502,control_change,,,,,3,0,1,,,,64,127,0,,,
44508,set_tempo,,,,,22,1,0,,468750,,,,,,,
44510,note_on,,,,,8,0,1,,,,,,0,,53,0
44513,note_on,,,,,3,0,1,,,,,,0,,68,0
44522,note_on,,,,,9,0,1,,,,,,0,,61,65
44524,note_on,,,,,2,0,1,,,,,,0,,80,0
44528,set_tempo,,,,,20,1,0,,465116,,,,,,,
44528,note_on,,,,,4,0,1,,,,,,0,,56,0
44542,note_on,,,,,14,0,1,,,,,,0,,61,0
44550,set_tempo,,,,,22,1,0,,461538,,,,,,,
44554,note_on,,,,,12,0,1,,,,,,0,,73,73
44556,note_on,,,,,2,0,1,,,,,,0,,85,84
44558,note_on,,,,,2,0,1,,,,,,0,,58,69
44570,control_change,,,,,12,0,1,,,,64,0,0,,,
44572,set_tempo,,,,,22,1,0,,458015,,,,,,,
44590,note_on,,,,,20,0,1,,,,,,0,,66,63
44592,set_tempo,,,,,20,1,0,,454545,,,,,,,
44594,note_on,,,,,4,0,1,,,,,,0,,58,0
44603,control_change,,,,,9,0,1,,,,64,127,0,,,
44610,note_on,,,,,7,0,1,,,,,,0,,73,0
44614,set_tempo,,,,,22,1,0,,451128,,,,,,,
44616,note_on,,,,,6,0,1,,,,,,0,,85,0
44616,note_on,,,,,0,0,1,,,,,,0,,61,60
44624,note_on,,,,,8,0,1,,,,,,0,,66,0
44636,set_tempo,,,,,22,1,0,,447761,,,,,,,
44646,note_on,,,,,22,0,1,,,,,,0,,56,72
44648,note_on,,,,,2,0,1,,,,,,0,,61,0
44650,note_on,,,,,2,0,1,,,,,,0,,87,84
44651,note_on,,,,,1,0,1,,,,,,0,,75,76
44656,set_tempo,,,,,20,1,0,,444444,,,,,,,
44658,control_change,,,,,7,0,1,,,,64,0,0,,,
44670,set_tempo,,,,,14,1,0,,437956,,,,,,,
44688,note_on,,,,,30,0,1,,,,,,0,,65,69
44690,set_tempo,,,,,20,1,0,,441176,,,,,,,
44698,control_change,,,,,10,0,1,,,,64,127,0,,,
44708,set_tempo,,,,,18,1,0,,444444,,,,,,,
44712,note_on,,,,,0,0,1,,,,,,0,,61,61
44712,note_on,,,,,14,0,1,,,,,,0,,87,0
44713,note_on,,,,,1,0,1,,,,,,0,,56,0
44714,note_on,,,,,1,0,1,,,,,,0,,75,0
44726,set_tempo,,,,,18,1,0,,447761,,,,,,,
44734,note_on,,,,,20,0,1,,,,,,0,,65,0
44741,note_on,,,,,7,0,1,,,,,,0,,61,0
44742,note_on,,,,,1,0,1,,,,,,0,,55,62
44744,set_tempo,,,,,18,1,0,,451128,,,,,,,
44750,note_on,,,,,8,0,1,,,,,,0,,88,95
44751,note_on,,,,,1,0,1,,,,,,0,,76,84
44762,control_change,,,,,11,0,1,,,,64,0,0,,,
44764,set_tempo,,,,,20,1,0,,454545,,,,,,,
44782,set_tempo,,,,,18,1,0,,458015,,,,,,,
44788,note_on,,,,,26,0,1,,,,,,0,,70,65
44800,set_tempo,,,,,18,1,0,,461538,,,,,,,
44802,control_change,,,,,14,0,1,,,,64,127,0,,,
44807,note_on,,,,,5,0,1,,,,,,0,,64,63
44817,note_on,,,,,10,0,1,,,,,,0,,70,0
44818,set_tempo,,,,,18,1,0,,465116,,,,,,,
44836,set_tempo,,,,,18,1,0,,468750,,,,,,,
44837,note_on,,,,,20,0,1,,,,,,0,,61,49
44840,note_on,,,,,3,0,1,,,,,,0,,64,0
44843,note_on,,,,,3,0,1,,,,,,0,,55,0
44849,note_on,,,,,6,0,1,,,,,,0,,76,0
44856,set_tempo,,,,,20,1,0,,472441,,,,,,,
44864,note_on,,,,,15,0,1,,,,,,0,,88,0
44874,set_tempo,,,,,18,1,0,,476190,,,,,,,
44878,note_on,,,,,14,0,1,,,,,,0,,69,43
44892,set_tempo,,,,,18,1,0,,480000,,,,,,,
44901,note_on,,,,,23,0,1,,,,,,0,,64,61
44904,note_on,,,,,3,0,1,,,,,,0,,69,0
44910,set_tempo,,,,,18,1,0,,483871,,,,,,,
44922,control_change,,,,,18,0,1,,,,64,0,0,,,
44924,note_on,,,,,0,0,1,,,,,,0,,77,66
44924,note_on,,,,,2,0,1,,,,,,0,,89,61
44925,note_on,,,,,1,0,1,,,,,,0,,64,0
44928,set_tempo,,,,,18,1,0,,487805,,,,,,,
44930,note_on,,,,,5,0,1,,,,,,0,,56,74
44932,note_on,,,,,2,0,1,,,,,,0,,61,0
44934,set_tempo,,,,,6,1,0,,483871,,,,,,,
44948,note_on,,,,,16,0,1,,,,,,0,,89,0
44952,control_change,,,,,4,0,1,,,,64,127,0,,,
44953,note_on,,,,,1,0,1,,,,,,0,,77,0
44962,note_on,,,,,9,0,1,,,,,,0,,68,68
44980,note_on,,,,,18,0,1,,,,,,0,,56,0
44991,note_on,,,,,11,0,1,,,,,,0,,61,49
44996,note_on,,,,,5,0,1,,,,,,0,,68,0
45015,note_on,,,,,19,0,1,,,,,,0,,61,0
45018,control_change,,,,,3,0,1,,,,64,0,0,,,
45021,note_on,,,,,3,0,1,,,,,,0,,56,71
45022,note_on,,,,,1,0,1,,,,,,0,,73,76
45022,note_on,,,,,0,0,1,,,,,,0,,85,76
45046,control_change,,,,,24,0,1,,,,64,127,0,,,
45060,note_on,,,,,0,0,1,,,,,,0,,65,49
45060,note_on,,,,,14,0,1,,,,,,0,,85,0
45066,note_on,,,,,6,0,1,,,,,,0,,56,0
45073,note_on,,,,,7,0,1,,,,,,0,,73,0
45082,note_on,,,,,9,0,1,,,,,,0,,61,63
45086,note_on,,,,,4,0,1,,,,,,0,,65,0
45094,set_tempo,,,,,160,1,0,,487805,,,,,,,
45109,note_on,,,,,23,0,1,,,,,,0,,61,0
45116,note_on,,,,,0,0,1,,,,,,0,,70,74
45116,note_on,,,,,7,0,1,,,,,,0,,82,71
45119,note_on,,,,,3,0,1,,,,,,0,,55,50
45120,control_change,,,,,1,0,1,,,,64,0,0,,,
45147,note_on,,,,,27,0,1,,,,,,0,,64,62
45148,control_change,,,,,1,0,1,,,,64,127,0,,,
45149,note_on,,,,,1,0,1,,,,,,0,,55,0
45154,note_on,,,,,5,0,1,,,,,,0,,82,0
45169,note_on,,,,,15,0,1,,,,,,0,,70,0
45177,note_on,,,,,8,0,1,,,,,,0,,64,0
45178,note_on,,,,,1,0,1,,,,,,0,,61,49
45203,note_on,,,,,25,0,1,,,,,,0,,56,61
45206,note_on,,,,,3,0,1,,,,,,0,,61,0
45210,note_on,,,,,4,0,1,,,,,,0,,68,79
45210,note_on,,,,,0,0,1,,,,,,0,,80,72
45221,control_change,,,,,11,0,1,,,,64,0,0,,,
45236,note_on,,,,,0,0,1,,,,,,0,,65,57
45236,note_on,,,,,15,0,1,,,,,,0,,68,0
45240,set_tempo,,,,,146,1,0,,476190,,,,,,,
45248,control_change,,,,,12,0,1,,,,64,127,0,,,
45249,note_on,,,,,1,0,1,,,,,,0,,80,0
45272,note_on,,,,,23,0,1,,,,,,0,,61,54
45276,note_on,,,,,4,0,1,,,,,,0,,65,0
45281,note_on,,,,,5,0,1,,,,,,0,,56,0
45299,note_on,,,,,18,0,1,,,,,,0,,85,84
45300,note_on,,,,,1,0,1,,,,,,0,,73,82
45304,note_on,,,,,4,0,1,,,,,,0,,53,68
45307,note_on,,,,,3,0,1,,,,,,0,,61,0
45312,control_change,,,,,5,0,1,,,,64,0,0,,,
45331,control_change,,,,,19,0,1,,,,64,127,0,,,
45332,note_on,,,,,1,0,1,,,,,,0,,65,59
45335,note_on,,,,,3,0,1,,,,,,0,,73,0
45342,note_on,,,,,7,0,1,,,,,,0,,85,0
45348,note_on,,,,,6,0,1,,,,,,0,,53,0
45368,note_on,,,,,20,0,1,,,,,,0,,61,62
45374,note_on,,,,,6,0,1,,,,,,0,,65,0
45395,note_on,,,,,21,0,1,,,,,,0,,61,0
45399,note_on,,,,,4,0,1,,,,,,0,,77,82
45400,note_on,,,,,1,0,1,,,,,,0,,89,82
45401,note_on,,,,,1,0,1,,,,,,0,,49,89
45404,control_change,,,,,3,0,1,,,,64,0,0,,,
45419,note_on,,,,,15,0,1,,,,,,0,,77,0
45436,note_on,,,,,17,0,1,,,,,,0,,89,0
45436,control_change,,,,,0,0,1,,,,64,127,0,,,
45440,note_on,,,,,4,0,1,,,,,,0,,61,75
45468,note_on,,,,,28,0,1,,,,,,0,,56,75
45470,note_on,,,,,2,0,1,,,,,,0,,49,0
45482,note_on,,,,,12,0,1,,,,,,0,,61,0
45504,note_on,,,,,22,0,1,,,,,,0,,47,75
45504,note_on,,,,,0,0,1,,,,,,0,,94,93
45506,note_on,,,,,2,0,1,,,,,,0,,82,83
45510,note_on,,,,,4,0,1,,,,,,0,,56,0
45516,control_change,,,,,6,0,1,,,,64,0,0,,,
45537,note_on,,,,,21,0,1,,,,,,0,,53,58
45552,note_on,,,,,15,0,1,,,,,,0,,47,0
45552,control_change,,,,,0,0,1,,,,64,127,0,,,
45566,note_on,,,,,14,0,1,,,,,,0,,56,65
45579,note_on,,,,,13,0,1,,,,,,0,,53,0
45600,note_on,,,,,21,0,1,,,,,,0,,61,71
45602,note_on,,,,,2,0,1,,,,,,0,,56,0
45614,note_on,,,,,12,0,1,,,,,,0,,61,0
45616,note_on,,,,,2,0,1,,,,,,0,,94,0
45630,note_on,,,,,14,0,1,,,,,,0,,82,0
45634,note_on,,,,,4,0,1,,,,,,0,,65,44
45662,note_on,,,,,28,0,1,,,,,,0,,68,69
45690,note_on,,,,,0,0,1,,,,,,0,,80,83
45690,note_on,,,,,28,0,1,,,,,,0,,92,78
45692,note_on,,,,,2,0,1,,,,,,0,,73,79
45718,note_on,,,,,0,0,1,,,,,,0,,92,0
45718,note_on,,,,,26,0,1,,,,,,0,,73,0
45718,note_on,,,,,0,0,1,,,,,,0,,80,0
45724,note_on,,,,,6,0,1,,,,,,0,,68,0
45726,note_on,,,,,2,0,1,,,,,,0,,65,0
45790,note_on,,,,,64,0,1,,,,,,0,,77,76
45791,note_on,,,,,1,0,1,,,,,,0,,89,77
45810,note_on,,,,,19,0,1,,,,,,0,,77,0
45815,note_on,,,,,5,0,1,,,,,,0,,89,0
45842,set_tempo,,,,,602,1,0,,472441,,,,,,,
45872,note_on,,,,,57,0,1,,,,,,0,,46,76
45875,control_change,,,,,3,0,1,,,,64,0,0,,,
45876,note_on,,,,,1,0,1,,,,,,0,,75,78
45877,note_on,,,,,1,0,1,,,,,,0,,87,84
45908,control_change,,,,,31,0,1,,,,64,127,0,,,
45911,note_on,,,,,3,0,1,,,,,,0,,54,61
45929,note_on,,,,,18,0,1,,,,,,0,,87,0
45932,note_on,,,,,3,0,1,,,,,,0,,46,0
45934,note_on,,,,,2,0,1,,,,,,0,,75,0
45941,note_on,,,,,7,0,1,,,,,,0,,58,70
45945,note_on,,,,,4,0,1,,,,,,0,,54,0
45954,note_on,,,,,9,0,1,,,,,,0,,58,0
45974,note_on,,,,,0,0,1,,,,,,0,,73,80
45974,note_on,,,,,20,0,1,,,,,,0,,85,86
45976,note_on,,,,,2,0,1,,,,,,0,,61,52
45982,set_tempo,,,,,140,1,0,,468750,,,,,,,
45994,note_on,,,,,18,0,1,,,,,,0,,73,0
45996,note_on,,,,,2,0,1,,,,,,0,,61,0
46006,note_on,,,,,0,0,1,,,,,,0,,66,60
46006,note_on,,,,,10,0,1,,,,,,0,,85,0
46027,note_on,,,,,21,0,1,,,,,,0,,70,77
46030,note_on,,,,,3,0,1,,,,,,0,,66,0
46051,note_on,,,,,21,0,1,,,,,,0,,70,0
46065,note_on,,,,,14,0,1,,,,,,0,,73,87
46070,note_on,,,,,5,0,1,,,,,,0,,90,87
46071,note_on,,,,,1,0,1,,,,,,0,,78,80
46087,note_on,,,,,16,0,1,,,,,,0,,73,0
46092,note_on,,,,,5,0,1,,,,,,0,,78,0
46104,note_on,,,,,12,0,1,,,,,,0,,90,0
46122,set_tempo,,,,,140,1,0,,465116,,,,,,,
46156,note_on,,,,,52,0,1,,,,,,0,,94,93
46156,note_on,,,,,0,0,1,,,,,,0,,82,85
46178,note_on,,,,,22,0,1,,,,,,0,,82,0
46183,note_on,,,,,5,0,1,,,,,,0,,94,0
46246,set_tempo,,,,,124,1,0,,461538,,,,,,,
46247,note_on,,,,,64,0,1,,,,,,0,,45,75
46248,set_tempo,,,,,2,1,0,,461538,,,,,,,
46249,control_change,,,,,2,0,1,,,,64,0,0,,,
46250,set_tempo,,,,,2,1,0,,365854,,,,,,,
46250,note_on,,,,,1,0,1,,,,,,0,,84,79
46251,note_on,,,,,1,0,1,,,,,,0,,96,90
46280,control_change,,,,,29,0,1,,,,64,127,0,,,
46288,note_on,,,,,8,0,1,,,,,,0,,54,75
46294,note_on,,,,,6,0,1,,,,,,0,,45,0
46319,note_on,,,,,25,0,1,,,,,,0,,54,0
46328,note_on,,,,,9,0,1,,,,,,0,,57,77
46339,note_on,,,,,11,0,1,,,,,,0,,57,0
46348,note_on,,,,,9,0,1,,,,,,0,,96,0
46348,set_tempo,,,,,98,1,0,,368098,,,,,,,
46350,set_tempo,,,,,2,1,0,,437956,,,,,,,
46352,set_tempo,,,,,2,1,0,,441176,,,,,,,
46352,note_on,,,,,4,0,1,,,,,,0,,84,0
46356,set_tempo,,,,,4,1,0,,444444,,,,,,,
46358,set_tempo,,,,,2,1,0,,441176,,,,,,,
46360,note_on,,,,,8,0,1,,,,,,0,,61,79
46366,set_tempo,,,,,8,1,0,,444444,,,,,,,
46372,set_tempo,,,,,6,1,0,,447761,,,,,,,
46378,set_tempo,,,,,6,1,0,,451128,,,,,,,
46378,note_on,,,,,18,0,1,,,,,,0,,61,0
46386,set_tempo,,,,,8,1,0,,454545,,,,,,,
46392,set_tempo,,,,,6,1,0,,458015,,,,,,,
46392,note_on,,,,,14,0,1,,,,,,0,,66,80
46398,set_tempo,,,,,6,1,0,,461538,,,,,,,
46406,set_tempo,,,,,8,1,0,,465116,,,,,,,
46412,set_tempo,,,,,6,1,0,,468750,,,,,,,
46414,note_on,,,,,22,0,1,,,,,,0,,66,0
46418,set_tempo,,,,,6,1,0,,472441,,,,,,,
46420,note_on,,,,,6,0,1,,,,,,0,,69,73
46426,set_tempo,,,,,8,1,0,,476190,,,,,,,
46432,set_tempo,,,,,6,1,0,,480000,,,,,,,
46438,set_tempo,,,,,6,1,0,,483871,,,,,,,
46440,note_on,,,,,0,0,1,,,,,,0,,97,97
46440,note_on,,,,,20,0,1,,,,,,0,,73,88
46442,note_on,,,,,2,0,1,,,,,,0,,69,0
46442,note_on,,,,,0,0,1,,,,,,0,,85,78
46446,set_tempo,,,,,8,1,0,,487805,,,,,,,
46452,set_tempo,,,,,6,1,0,,491803,,,,,,,
46458,set_tempo,,,,,6,1,0,,495868,,,,,,,
46459,note_on,,,,,17,0,1,,,,,,0,,73,0
46460,note_on,,,,,1,0,1,,,,,,0,,85,0
46464,note_on,,,,,4,0,1,,,,,,0,,97,0
46464,set_tempo,,,,,6,1,0,,495868,,,,,,,
46472,set_tempo,,,,,8,1,0,,491803,,,,,,,
46478,set_tempo,,,,,6,1,0,,487805,,,,,,,
46484,set_tempo,,,,,6,1,0,,483871,,,,,,,
46490,set_tempo,,,,,6,1,0,,480000,,,,,,,
46498,set_tempo,,,,,8,1,0,,476190,,,,,,,
46504,set_tempo,,,,,6,1,0,,472441,,,,,,,
46510,set_tempo,,,,,6,1,0,,468750,,,,,,,
46516,set_tempo,,,,,6,1,0,,465116,,,,,,,
46522,set_tempo,,,,,6,1,0,,461538,,,,,,,
46530,note_on,,,,,66,0,1,,,,,,0,,90,84
46531,note_on,,,,,1,0,1,,,,,,0,,78,85
46566,note_on,,,,,35,0,1,,,,,,0,,90,0
46571,note_on,,,,,5,0,1,,,,,,0,,78,0
46572,set_tempo,,,,,50,1,0,,451128,,,,,,,
46616,note_on,,,,,45,0,1,,,,,,0,,45,81
46619,control_change,,,,,3,0,1,,,,64,0,0,,,
46620,note_on,,,,,1,0,1,,,,,,0,,88,83
46621,note_on,,,,,1,0,1,,,,,,0,,76,77
46624,set_tempo,,,,,52,1,0,,447761,,,,,,,
46644,note_on,,,,,23,0,1,,,,,,0,,54,71
46645,note_on,,,,,1,0,1,,,,,,0,,76,0
46648,note_on,,,,,3,0,1,,,,,,0,,88,0
46648,control_change,,,,,0,0,1,,,,64,127,0,,,
46663,note_on,,,,,15,0,1,,,,,,0,,45,0
46673,note_on,,,,,10,0,1,,,,,,0,,57,87
46675,note_on,,,,,2,0,1,,,,,,0,,54,0
46676,set_tempo,,,,,52,1,0,,444444,,,,,,,
46680,note_on,,,,,5,0,1,,,,,,0,,57,0
46708,note_on,,,,,28,0,1,,,,,,0,,62,76
46712,note_on,,,,,4,0,1,,,,,,0,,86,89
46713,note_on,,,,,1,0,1,,,,,,0,,74,81
46728,set_tempo,,,,,52,1,0,,441176,,,,,,,
46729,note_on,,,,,16,0,1,,,,,,0,,74,0
46734,note_on,,,,,5,0,1,,,,,,0,,86,0
46735,note_on,,,,,1,0,1,,,,,,0,,66,63
46737,note_on,,,,,2,0,1,,,,,,0,,62,0
46763,note_on,,,,,26,0,1,,,,,,0,,66,0
46768,note_on,,,,,5,0,1,,,,,,0,,69,81
46780,set_tempo,,,,,52,1,0,,437956,,,,,,,
46786,note_on,,,,,18,0,1,,,,,,0,,69,0
46796,set_tempo,,,,,16,1,0,,444444,,,,,,,
46809,note_on,,,,,23,0,1,,,,,,0,,78,96
46809,note_on,,,,,0,0,1,,,,,,0,,90,93
46810,note_on,,,,,1,0,1,,,,,,0,,74,100
46828,note_on,,,,,18,0,1,,,,,,0,,78,0
46835,note_on,,,,,7,0,1,,,,,,0,,90,0
46901,note_on,,,,,66,0,1,,,,,,0,,93,96
46902,note_on,,,,,1,0,1,,,,,,0,,74,0
46902,note_on,,,,,0,0,1,,,,,,0,,81,93
46915,note_on,,,,,13,0,1,,,,,,0,,81,0
46918,set_tempo,,,,,122,1,0,,441176,,,,,,,
46923,note_on,,,,,8,0,1,,,,,,0,,93,0
46997,note_on,,,,,74,0,1,,,,,,0,,85,92
46998,note_on,,,,,1,0,1,,,,,,0,,97,102
47014,note_on,,,,,16,0,1,,,,,,0,,85,0
47021,note_on,,,,,7,0,1,,,,,,0,,97,0
47040,set_tempo,,,,,122,1,0,,437956,,,,,,,
47051,control_change,,,,,30,0,1,,,,64,0,0,,,
47083,note_on,,,,,32,0,1,,,,,,0,,86,88
47084,note_on,,,,,1,0,1,,,,,,0,,98,96
47085,note_on,,,,,1,0,1,,,,,,0,,66,75
47087,note_on,,,,,0,0,1,,,,,,0,,69,67
47087,note_on,,,,,2,0,1,,,,,,0,,74,73
47090,control_change,,,,,3,0,1,,,,64,127,0,,,
47102,note_on,,,,,12,0,1,,,,,,0,,69,0
47102,note_on,,,,,0,0,1,,,,,,0,,74,0
47107,note_on,,,,,5,0,1,,,,,,0,,66,0
47116,control_change,,,,,9,0,1,,,,64,0,0,,,
47160,set_tempo,,,,,120,1,0,,434783,,,,,,,
47164,set_tempo,,,,,4,1,0,,437956,,,,,,,
47172,set_tempo,,,,,8,1,0,,441176,,,,,,,
47173,control_change,,,,,57,0,1,,,,64,127,0,,,
47175,note_on,,,,,2,0,1,,,,,,0,,57,88
47180,set_tempo,,,,,8,1,0,,444444,,,,,,,
47184,note_on,,,,,9,0,1,,,,,,0,,86,0
47186,set_tempo,,,,,6,1,0,,447761,,,,,,,
47186,note_on,,,,,2,0,1,,,,,,0,,98,0
47189,note_on,,,,,3,0,1,,,,,,0,,57,0
47194,set_tempo,,,,,8,1,0,,451128,,,,,,,
47200,set_tempo,,,,,6,1,0,,454545,,,,,,,
47208,set_tempo,,,,,8,1,0,,458015,,,,,,,
47216,set_tempo,,,,,8,1,0,,461538,,,,,,,
47222,set_tempo,,,,,6,1,0,,465116,,,,,,,
47230,set_tempo,,,,,8,1,0,,468750,,,,,,,
47236,set_tempo,,,,,6,1,0,,472441,,,,,,,
47244,set_tempo,,,,,8,1,0,,476190,,,,,,,
47252,set_tempo,,,,,8,1,0,,480000,,,,,,,
47258,set_tempo,,,,,6,1,0,,483871,,,,,,,
47264,note_on,,,,,0,0,1,,,,,,0,,66,79
47264,note_on,,,,,75,0,1,,,,,,0,,99,100
47265,note_on,,,,,1,0,1,,,,,,0,,87,94
47266,set_tempo,,,,,8,1,0,,487805,,,,,,,
47267,note_on,,,,,2,0,1,,,,,,0,,75,80
47272,set_tempo,,,,,6,1,0,,491803,,,,,,,
47274,note_on,,,,,7,0,1,,,,,,0,,72,66
47280,set_tempo,,,,,8,1,0,,495868,,,,,,,
47280,note_on,,,,,0,0,1,,,,,,0,,75,0
47280,note_on,,,,,6,0,1,,,,,,0,,72,0
47286,note_on,,,,,6,0,1,,,,,,0,,66,0
47288,set_tempo,,,,,8,1,0,,500000,,,,,,,
47294,set_tempo,,,,,6,1,0,,504202,,,,,,,
47302,set_tempo,,,,,8,1,0,,508475,,,,,,,
47308,control_change,,,,,22,0,1,,,,64,0,0,,,
47308,set_tempo,,,,,6,1,0,,512821,,,,,,,
47316,set_tempo,,,,,8,1,0,,517241,,,,,,,
47324,set_tempo,,,,,8,1,0,,521739,,,,,,,
47330,set_tempo,,,,,6,1,0,,526316,,,,,,,
47338,set_tempo,,,,,8,1,0,,530973,,,,,,,
47344,set_tempo,,,,,6,1,0,,535714,,,,,,,
47352,set_tempo,,,,,8,1,0,,540541,,,,,,,
47353,control_change,,,,,45,0,1,,,,64,0,0,,,
47354,note_on,,,,,1,0,1,,,,,,0,,56,91
47360,set_tempo,,,,,8,1,0,,545455,,,,,,,
47366,set_tempo,,,,,6,1,0,,550459,,,,,,,
47370,note_on,,,,,16,0,1,,,,,,0,,99,0
47374,set_tempo,,,,,8,1,0,,555556,,,,,,,
47376,note_on,,,,,6,0,1,,,,,,0,,87,0
47377,note_on,,,,,1,0,1,,,,,,0,,56,0
47378,set_tempo,,,,,4,1,0,,555556,,,,,,,
47382,set_tempo,,,,,4,1,0,,550459,,,,,,,
47384,set_tempo,,,,,2,1,0,,545455,,,,,,,
47386,set_tempo,,,,,2,1,0,,540541,,,,,,,
47388,set_tempo,,,,,2,1,0,,535714,,,,,,,
47390,set_tempo,,,,,2,1,0,,530973,,,,,,,
47392,set_tempo,,,,,2,1,0,,526316,,,,,,,
47394,set_tempo,,,,,2,1,0,,521739,,,,,,,
47396,set_tempo,,,,,2,1,0,,517241,,,,,,,
47398,set_tempo,,,,,2,1,0,,512821,,,,,,,
47400,set_tempo,,,,,2,1,0,,508475,,,,,,,
47404,set_tempo,,,,,4,1,0,,504202,,,,,,,
47406,set_tempo,,,,,2,1,0,,500000,,,,,,,
47408,set_tempo,,,,,2,1,0,,495868,,,,,,,
47410,set_tempo,,,,,2,1,0,,491803,,,,,,,
47412,set_tempo,,,,,2,1,0,,487805,,,,,,,
47414,set_tempo,,,,,2,1,0,,483871,,,,,,,
47416,set_tempo,,,,,2,1,0,,480000,,,,,,,
47418,set_tempo,,,,,2,1,0,,476190,,,,,,,
47420,set_tempo,,,,,2,1,0,,472441,,,,,,,
47422,set_tempo,,,,,2,1,0,,468750,,,,,,,
47424,set_tempo,,,,,2,1,0,,465116,,,,,,,
47428,set_tempo,,,,,4,1,0,,461538,,,,,,,
47430,set_tempo,,,,,2,1,0,,458015,,,,,,,
47432,set_tempo,,,,,2,1,0,,454545,,,,,,,
47434,set_tempo,,,,,2,1,0,,451128,,,,,,,
47436,set_tempo,,,,,2,1,0,,447761,,,,,,,
47438,set_tempo,,,,,2,1,0,,444444,,,,,,,
47439,note_on,,,,,62,0,1,,,,,,0,,100,96
47440,set_tempo,,,,,2,1,0,,441176,,,,,,,
47440,note_on,,,,,0,0,1,,,,,,0,,68,82
47440,note_on,,,,,0,0,1,,,,,,0,,76,81
47440,note_on,,,,,1,0,1,,,,,,0,,88,85
47442,set_tempo,,,,,2,1,0,,437956,,,,,,,
47442,note_on,,,,,2,0,1,,,,,,0,,71,77
47444,set_tempo,,,,,2,1,0,,434783,,,,,,,
47446,set_tempo,,,,,2,1,0,,431655,,,,,,,
47448,set_tempo,,,,,2,1,0,,428571,,,,,,,
47454,note_on,,,,,12,0,1,,,,,,0,,71,0
47455,note_on,,,,,1,0,1,,,,,,0,,76,0
47460,note_on,,,,,5,0,1,,,,,,0,,68,0
47474,set_tempo,,,,,26,1,0,,425532,,,,,,,
47498,set_tempo,,,,,24,1,0,,422535,,,,,,,
47508,control_change,,,,,48,0,1,,,,64,0,0,,,
47522,set_tempo,,,,,24,1,0,,419580,,,,,,,
47524,note_on,,,,,16,0,1,,,,,,0,,59,84
47534,note_on,,,,,10,0,1,,,,,,0,,88,0
47536,control_change,,,,,2,0,1,,,,64,0,0,,,
47538,note_on,,,,,2,0,1,,,,,,0,,100,0
47548,set_tempo,,,,,26,1,0,,416667,,,,,,,
47551,note_on,,,,,13,0,1,,,,,,0,,59,0
47572,set_tempo,,,,,24,1,0,,413793,,,,,,,
47596,set_tempo,,,,,24,1,0,,410959,,,,,,,
47605,note_on,,,,,54,0,1,,,,,,0,,90,91
47606,note_on,,,,,1,0,1,,,,,,0,,102,97
47607,note_on,,,,,1,0,1,,,,,,0,,78,81
47608,note_on,,,,,1,0,1,,,,,,0,,68,73
47610,note_on,,,,,2,0,1,,,,,,0,,71,73
47622,set_tempo,,,,,26,1,0,,408163,,,,,,,
47626,note_on,,,,,16,0,1,,,,,,0,,78,0
47628,note_on,,,,,2,0,1,,,,,,0,,68,0
47629,note_on,,,,,1,0,1,,,,,,0,,71,0
47646,set_tempo,,,,,24,1,0,,405405,,,,,,,
47670,control_change,,,,,41,0,1,,,,64,0,0,,,
47670,set_tempo,,,,,24,1,0,,402685,,,,,,,
47688,note_on,,,,,18,0,1,,,,,,0,,64,96
47697,control_change,,,,,9,0,1,,,,64,0,0,,,
47702,note_on,,,,,5,0,1,,,,,,0,,90,0
47706,note_on,,,,,4,0,1,,,,,,0,,102,0
47715,note_on,,,,,9,0,1,,,,,,0,,64,0
47720,set_tempo,,,,,50,1,0,,397351,,,,,,,
47768,note_on,,,,,53,0,1,,,,,,0,,103,100
47769,note_on,,,,,1,0,1,,,,,,0,,91,85
47770,note_on,,,,,1,0,1,,,,,,0,,71,79
47771,note_on,,,,,1,0,1,,,,,,0,,79,81
47773,note_on,,,,,2,0,1,,,,,,0,,76,68
47785,note_on,,,,,12,0,1,,,,,,0,,76,0
47786,note_on,,,,,1,0,1,,,,,,0,,79,0
47793,note_on,,,,,7,0,1,,,,,,0,,71,0
47802,control_change,,,,,9,0,1,,,,64,0,0,,,
47820,set_tempo,,,,,100,1,0,,394737,,,,,,,
47844,note_on,,,,,42,0,1,,,,,,0,,68,91
47846,control_change,,,,,2,0,1,,,,64,0,0,,,
47850,note_on,,,,,4,0,1,,,,,,0,,91,0
47857,note_on,,,,,7,0,1,,,,,,0,,103,0
47875,note_on,,,,,18,0,1,,,,,,0,,68,0
47920,set_tempo,,,,,100,1,0,,392157,,,,,,,
47922,note_on,,,,,0,0,1,,,,,,0,,92,87
47922,note_on,,,,,47,0,1,,,,,,0,,104,96
47923,note_on,,,,,1,0,1,,,,,,0,,80,82
47925,note_on,,,,,2,0,1,,,,,,0,,71,70
47927,note_on,,,,,2,0,1,,,,,,0,,76,64
47934,note_on,,,,,7,0,1,,,,,,0,,76,0
47939,note_on,,,,,5,0,1,,,,,,0,,71,0
47940,note_on,,,,,1,0,1,,,,,,0,,80,0
47986,control_change,,,,,46,0,1,,,,64,0,0,,,
48001,note_on,,,,,15,0,1,,,,,,0,,66,86
48011,note_on,,,,,10,0,1,,,,,,0,,104,0
48013,control_change,,,,,2,0,1,,,,64,0,0,,,
48020,set_tempo,,,,,100,1,0,,389610,,,,,,,
48028,note_on,,,,,15,0,1,,,,,,0,,92,0
48056,note_on,,,,,28,0,1,,,,,,0,,66,0
48076,note_on,,,,,20,0,1,,,,,,0,,81,72
48077,note_on,,,,,1,0,1,,,,,,0,,105,102
48078,note_on,,,,,1,0,1,,,,,,0,,93,90
48081,note_on,,,,,3,0,1,,,,,,0,,75,71
48083,note_on,,,,,2,0,1,,,,,,0,,72,79
48091,note_on,,,,,8,0,1,,,,,,0,,75,0
48094,note_on,,,,,3,0,1,,,,,,0,,81,0
48098,note_on,,,,,4,0,1,,,,,,0,,72,0
48120,set_tempo,,,,,100,1,0,,387097,,,,,,,
48154,control_change,,,,,56,0,1,,,,64,0,0,,,
48155,note_on,,,,,1,0,1,,,,,,0,,63,89
48173,control_change,,,,,18,0,1,,,,64,0,0,,,
48217,note_on,,,,,44,0,1,,,,,,0,,93,0
48220,set_tempo,,,,,100,1,0,,384615,,,,,,,
48224,note_on,,,,,7,0,1,,,,,,0,,105,0
48227,note_on,,,,,3,0,1,,,,,,0,,80,87
48228,note_on,,,,,1,0,1,,,,,,0,,104,95
48228,note_on,,,,,0,0,1,,,,,,0,,92,89
48231,note_on,,,,,3,0,1,,,,,,0,,75,80
48232,note_on,,,,,1,0,1,,,,,,0,,72,76
48234,set_tempo,,,,,14,1,0,,384615,,,,,,,
48242,note_on,,,,,10,0,1,,,,,,0,,72,0
48242,note_on,,,,,0,0,1,,,,,,0,,80,0
48244,note_on,,,,,2,0,1,,,,,,0,,75,0
48246,note_on,,,,,2,0,1,,,,,,0,,92,0
48248,note_on,,,,,2,0,1,,,,,,0,,104,0
48254,note_on,,,,,6,0,1,,,,,,0,,63,0
48300,control_change,,,,,46,0,1,,,,64,0,0,,,
48304,note_on,,,,,4,0,1,,,,,,0,,60,84
48308,note_on,,,,,4,0,1,,,,,,0,,89,87
48309,note_on,,,,,1,0,1,,,,,,0,,101,95
48321,control_change,,,,,12,0,1,,,,64,0,0,,,
48324,note_on,,,,,3,0,1,,,,,,0,,101,0
48326,note_on,,,,,2,0,1,,,,,,0,,89,0
48326,set_tempo,,,,,92,1,0,,382166,,,,,,,
48380,note_on,,,,,0,0,1,,,,,,0,,102,97
48380,note_on,,,,,54,0,1,,,,,,0,,78,77
48381,note_on,,,,,0,0,1,,,,,,0,,69,60
48381,note_on,,,,,1,0,1,,,,,,0,,90,80
48382,note_on,,,,,1,0,1,,,,,,0,,75,79
48391,note_on,,,,,9,0,1,,,,,,0,,75,0
48392,note_on,,,,,1,0,1,,,,,,0,,78,0
48393,note_on,,,,,1,0,1,,,,,,0,,69,0
48394,note_on,,,,,0,0,1,,,,,,0,,102,0
48394,note_on,,,,,1,0,1,,,,,,0,,90,0
48399,note_on,,,,,5,0,1,,,,,,0,,60,0
48416,set_tempo,,,,,90,1,0,,379747,,,,,,,
48445,control_change,,,,,46,0,1,,,,64,0,0,,,
48456,note_on,,,,,0,0,1,,,,,,0,,98,92
48456,note_on,,,,,11,0,1,,,,,,0,,57,69
48457,note_on,,,,,1,0,1,,,,,,0,,86,87
48465,control_change,,,,,8,0,1,,,,64,0,0,,,
48469,note_on,,,,,0,0,1,,,,,,0,,98,0
48469,note_on,,,,,4,0,1,,,,,,0,,86,0
48506,set_tempo,,,,,90,1,0,,377358,,,,,,,
48527,note_on,,,,,58,0,1,,,,,,0,,75,80
48529,note_on,,,,,0,0,1,,,,,,0,,66,77
48529,note_on,,,,,2,0,1,,,,,,0,,99,94
48530,note_on,,,,,1,0,1,,,,,,0,,87,92
48533,note_on,,,,,3,0,1,,,,,,0,,72,70
48540,note_on,,,,,0,0,1,,,,,,0,,75,0
48540,note_on,,,,,7,0,1,,,,,,0,,72,0
48545,note_on,,,,,5,0,1,,,,,,0,,66,0
48559,note_on,,,,,14,0,1,,,,,,0,,57,0
48581,control_change,,,,,22,0,1,,,,64,0,0,,,
48596,set_tempo,,,,,90,1,0,,375000,,,,,,,
48603,note_on,,,,,22,0,1,,,,,,0,,56,98
48608,control_change,,,,,5,0,1,,,,64,0,0,,,
48613,note_on,,,,,5,0,1,,,,,,0,,99,0
48620,note_on,,,,,7,0,1,,,,,,0,,87,0
48638,note_on,,,,,18,0,1,,,,,,0,,56,0
48678,note_on,,,,,40,0,1,,,,,,0,,100,92
48679,note_on,,,,,1,0,1,,,,,,0,,88,84
48679,note_on,,,,,0,0,1,,,,,,0,,68,81
48680,note_on,,,,,1,0,1,,,,,,0,,76,76
48683,note_on,,,,,3,0,1,,,,,,0,,71,79
48688,set_tempo,,,,,92,1,0,,372671,,,,,,,
48690,note_on,,,,,7,0,1,,,,,,0,,71,0
48693,note_on,,,,,3,0,1,,,,,,0,,76,0
48698,note_on,,,,,5,0,1,,,,,,0,,68,0
48749,control_change,,,,,51,0,1,,,,64,0,0,,,
48757,note_on,,,,,8,0,1,,,,,,0,,59,91
48764,note_on,,,,,7,0,1,,,,,,0,,88,0
48768,note_on,,,,,4,0,1,,,,,,0,,100,0
48772,control_change,,,,,4,0,1,,,,64,0,0,,,
48778,set_tempo,,,,,90,1,0,,370370,,,,,,,
48784,note_on,,,,,12,0,1,,,,,,0,,59,0
48830,note_on,,,,,46,0,1,,,,,,0,,78,82
48831,note_on,,,,,1,0,1,,,,,,0,,102,97
48832,note_on,,,,,1,0,1,,,,,,0,,90,87
48834,note_on,,,,,2,0,1,,,,,,0,,71,76
48834,note_on,,,,,0,0,1,,,,,,0,,68,82
48850,note_on,,,,,16,0,1,,,,,,0,,78,0
48853,note_on,,,,,3,0,1,,,,,,0,,71,0
48856,note_on,,,,,3,0,1,,,,,,0,,68,0
48868,set_tempo,,,,,90,1,0,,368098,,,,,,,
48890,control_change,,,,,34,0,1,,,,64,0,0,,,
48907,note_on,,,,,17,0,1,,,,,,0,,64,83
48916,control_change,,,,,9,0,1,,,,64,0,0,,,
48918,note_on,,,,,2,0,1,,,,,,0,,90,0
48919,note_on,,,,,1,0,1,,,,,,0,,102,0
48938,note_on,,,,,19,0,1,,,,,,0,,64,0
48958,set_tempo,,,,,90,1,0,,365854,,,,,,,
48981,note_on,,,,,43,0,1,,,,,,0,,103,103
48981,note_on,,,,,0,0,1,,,,,,0,,71,81
48982,note_on,,,,,0,0,1,,,,,,0,,91,87
48982,note_on,,,,,1,0,1,,,,,,0,,79,77
48985,note_on,,,,,3,0,1,,,,,,0,,76,71
48992,note_on,,,,,7,0,1,,,,,,0,,76,0
48996,note_on,,,,,4,0,1,,,,,,0,,79,0
49002,note_on,,,,,6,0,1,,,,,,0,,71,0
49038,note_on,,,,,36,0,1,,,,,,0,,91,0
49045,control_change,,,,,7,0,1,,,,64,0,0,,,
49050,set_tempo,,,,,92,1,0,,363636,,,,,,,
49050,note_on,,,,,5,0,1,,,,,,0,,103,0
49054,note_on,,,,,4,0,1,,,,,,0,,68,93
49070,control_change,,,,,16,0,1,,,,64,0,0,,,
49077,note_on,,,,,7,0,1,,,,,,0,,68,0
49123,note_on,,,,,0,0,1,,,,,,0,,92,88
49123,note_on,,,,,46,0,1,,,,,,0,,80,89
49124,note_on,,,,,1,0,1,,,,,,0,,104,89
49128,note_on,,,,,4,0,1,,,,,,0,,71,61
49130,note_on,,,,,2,0,1,,,,,,0,,76,56
49137,note_on,,,,,7,0,1,,,,,,0,,76,0
49138,note_on,,,,,1,0,1,,,,,,0,,71,0
49140,set_tempo,,,,,90,1,0,,361446,,,,,,,
49140,note_on,,,,,2,0,1,,,,,,0,,80,0
49177,control_change,,,,,37,0,1,,,,64,0,0,,,
49197,note_on,,,,,20,0,1,,,,,,0,,66,87
49202,control_change,,,,,5,0,1,,,,64,0,0,,,
49205,note_on,,,,,3,0,1,,,,,,0,,104,0
49221,note_on,,,,,16,0,1,,,,,,0,,92,0
49230,set_tempo,,,,,90,1,0,,359281,,,,,,,
49268,note_on,,,,,47,0,1,,,,,,0,,81,69
49269,note_on,,,,,1,0,1,,,,,,0,,105,100
49270,note_on,,,,,1,0,1,,,,,,0,,93,90
49273,note_on,,,,,3,0,1,,,,,,0,,72,76
49274,note_on,,,,,1,0,1,,,,,,0,,75,58
49276,note_on,,,,,2,0,1,,,,,,0,,66,0
49282,note_on,,,,,6,0,1,,,,,,0,,75,0
49284,note_on,,,,,2,0,1,,,,,,0,,81,0
49288,note_on,,,,,4,0,1,,,,,,0,,72,0
49320,set_tempo,,,,,90,1,0,,357143,,,,,,,
49326,note_on,,,,,38,0,1,,,,,,0,,93,0
49339,control_change,,,,,13,0,1,,,,64,0,0,,,
49344,note_on,,,,,5,0,1,,,,,,0,,63,90
49360,control_change,,,,,16,0,1,,,,64,0,0,,,
49377,note_on,,,,,17,0,1,,,,,,0,,105,0
49412,set_tempo,,,,,92,1,0,,355030,,,,,,,
49415,note_on,,,,,38,0,1,,,,,,0,,63,0
49416,note_on,,,,,1,0,1,,,,,,0,,92,90
49417,note_on,,,,,1,0,1,,,,,,0,,80,86
49418,note_on,,,,,1,0,1,,,,,,0,,104,84
49420,note_on,,,,,2,0,1,,,,,,0,,72,79
49422,note_on,,,,,2,0,1,,,,,,0,,75,80
49428,note_on,,,,,6,0,1,,,,,,0,,75,0
49429,note_on,,,,,1,0,1,,,,,,0,,80,0
49431,note_on,,,,,2,0,1,,,,,,0,,72,0
49433,note_on,,,,,2,0,1,,,,,,0,,92,0
49436,note_on,,,,,3,0,1,,,,,,0,,104,0
49481,control_change,,,,,45,0,1,,,,64,0,0,,,
49493,note_on,,,,,0,0,1,,,,,,0,,101,93
49493,note_on,,,,,12,0,1,,,,,,0,,89,86
49496,note_on,,,,,3,0,1,,,,,,0,,60,72
49499,control_change,,,,,3,0,1,,,,64,0,0,,,
49502,set_tempo,,,,,90,1,0,,352941,,,,,,,
49508,note_on,,,,,9,0,1,,,,,,0,,101,0
49508,note_on,,,,,0,0,1,,,,,,0,,89,0
49568,note_on,,,,,60,0,1,,,,,,0,,69,75
49569,note_on,,,,,1,0,1,,,,,,0,,78,80
49569,note_on,,,,,0,0,1,,,,,,0,,102,95
49570,note_on,,,,,1,0,1,,,,,,0,,90,82
49573,note_on,,,,,3,0,1,,,,,,0,,75,90
49575,note_on,,,,,2,0,1,,,,,,0,,60,0
49581,note_on,,,,,6,0,1,,,,,,0,,78,0
49582,note_on,,,,,1,0,1,,,,,,0,,69,0
49584,note_on,,,,,2,0,1,,,,,,0,,102,0
49584,note_on,,,,,0,0,1,,,,,,0,,90,0
49586,note_on,,,,,2,0,1,,,,,,0,,75,0
49592,set_tempo,,,,,90,1,0,,350877,,,,,,,
49634,control_change,,,,,48,0,1,,,,64,0,0,,,
49644,note_on,,,,,10,0,1,,,,,,0,,57,74
49650,note_on,,,,,6,0,1,,,,,,0,,86,86
49651,note_on,,,,,1,0,1,,,,,,0,,98,93
49657,control_change,,,,,6,0,1,,,,64,0,0,,,
49663,note_on,,,,,6,0,1,,,,,,0,,86,0
49664,note_on,,,,,1,0,1,,,,,,0,,98,0
49682,set_tempo,,,,,90,1,0,,348837,,,,,,,
49715,note_on,,,,,51,0,1,,,,,,0,,57,0
49723,note_on,,,,,8,0,1,,,,,,0,,75,72
49724,note_on,,,,,1,0,1,,,,,,0,,66,72
49726,note_on,,,,,0,0,1,,,,,,0,,99,94
49726,note_on,,,,,2,0,1,,,,,,0,,87,90
49730,note_on,,,,,4,0,1,,,,,,0,,72,72
49737,note_on,,,,,7,0,1,,,,,,0,,72,0
49737,note_on,,,,,0,0,1,,,,,,0,,75,0
49744,note_on,,,,,7,0,1,,,,,,0,,66,0
49781,control_change,,,,,37,0,1,,,,64,0,0,,,
49802,note_on,,,,,21,0,1,,,,,,0,,56,105
49810,control_change,,,,,8,0,1,,,,64,0,0,,,
49815,note_on,,,,,5,0,1,,,,,,0,,99,0
49823,note_on,,,,,8,0,1,,,,,,0,,87,0
49825,note_on,,,,,2,0,1,,,,,,0,,56,0
49879,note_on,,,,,54,0,1,,,,,,0,,100,97
49880,note_on,,,,,1,0,1,,,,,,0,,88,84
49880,note_on,,,,,0,0,1,,,,,,0,,68,89
49882,note_on,,,,,2,0,1,,,,,,0,,76,78
49884,note_on,,,,,2,0,1,,,,,,0,,71,79
49892,note_on,,,,,8,0,1,,,,,,0,,71,0
49895,note_on,,,,,3,0,1,,,,,,0,,76,0
49901,note_on,,,,,6,0,1,,,,,,0,,68,0
49944,control_change,,,,,43,0,1,,,,64,0,0,,,
49954,note_on,,,,,10,0,1,,,,,,0,,59,91
49955,note_on,,,,,1,0,1,,,,,,0,,88,0
49962,note_on,,,,,7,0,1,,,,,,0,,100,0
49966,control_change,,,,,4,0,1,,,,64,0,0,,,
49989,note_on,,,,,23,0,1,,,,,,0,,59,0
50026,note_on,,,,,37,0,1,,,,,,0,,102,94
50027,note_on,,,,,1,0,1,,,,,,0,,90,81
50029,note_on,,,,,2,0,1,,,,,,0,,78,81
50032,note_on,,,,,3,0,1,,,,,,0,,71,81
50032,note_on,,,,,0,0,1,,,,,,0,,68,89
50039,note_on,,,,,7,0,1,,,,,,0,,71,0
50044,note_on,,,,,5,0,1,,,,,,0,,78,0
50054,note_on,,,,,10,0,1,,,,,,0,,68,0
50086,control_change,,,,,32,0,1,,,,64,0,0,,,
50098,note_on,,,,,12,0,1,,,,,,0,,64,90
50110,control_change,,,,,12,0,1,,,,64,0,0,,,
50112,note_on,,,,,2,0,1,,,,,,0,,102,0
50116,note_on,,,,,4,0,1,,,,,,0,,90,0
50125,note_on,,,,,9,0,1,,,,,,0,,64,0
50168,note_on,,,,,43,0,1,,,,,,0,,103,104
50169,note_on,,,,,1,0,1,,,,,,0,,91,90
50170,note_on,,,,,1,0,1,,,,,,0,,79,84
50172,note_on,,,,,2,0,1,,,,,,0,,76,75
50174,note_on,,,,,2,0,1,,,,,,0,,71,81
50180,note_on,,,,,6,0,1,,,,,,0,,76,0
50184,note_on,,,,,4,0,1,,,,,,0,,79,0
50188,note_on,,,,,4,0,1,,,,,,0,,91,0
50191,note_on,,,,,3,0,1,,,,,,0,,71,0
50196,note_on,,,,,5,0,1,,,,,,0,,103,0
50229,control_change,,,,,33,0,1,,,,64,0,0,,,
50242,note_on,,,,,13,0,1,,,,,,0,,68,94
50256,control_change,,,,,14,0,1,,,,64,0,0,,,
50282,note_on,,,,,26,0,1,,,,,,0,,68,0
50309,note_on,,,,,27,0,1,,,,,,0,,80,82
50312,note_on,,,,,3,0,1,,,,,,0,,104,92
50312,note_on,,,,,0,0,1,,,,,,0,,92,89
50314,note_on,,,,,2,0,1,,,,,,0,,71,66
50316,note_on,,,,,2,0,1,,,,,,0,,76,60
50320,note_on,,,,,4,0,1,,,,,,0,,71,0
50323,note_on,,,,,0,0,1,,,,,,0,,76,0
50323,note_on,,,,,3,0,1,,,,,,0,,80,0
50325,note_on,,,,,2,0,1,,,,,,0,,104,0
50326,note_on,,,,,1,0,1,,,,,,0,,92,0
50376,control_change,,,,,50,0,1,,,,64,0,0,,,
50380,note_on,,,,,4,0,1,,,,,,0,,62,82
50402,control_change,,,,,22,0,1,,,,64,0,0,,,
50449,note_on,,,,,47,0,1,,,,,,0,,101,101
50449,note_on,,,,,0,0,1,,,,,,0,,89,89
50450,note_on,,,,,1,0,1,,,,,,0,,68,75
50453,note_on,,,,,3,0,1,,,,,,0,,77,59
50455,note_on,,,,,2,0,1,,,,,,0,,62,0
50455,note_on,,,,,0,0,1,,,,,,0,,71,76
50463,note_on,,,,,8,0,1,,,,,,0,,71,0
50468,note_on,,,,,0,0,1,,,,,,0,,89,0
50468,note_on,,,,,5,0,1,,,,,,0,,77,0
50471,note_on,,,,,3,0,1,,,,,,0,,101,0
50490,note_on,,,,,19,0,1,,,,,,0,,68,0
50513,control_change,,,,,23,0,1,,,,64,0,0,,,
50516,note_on,,,,,3,0,1,,,,,,0,,63,89
50539,control_change,,,,,23,0,1,,,,64,0,0,,,
50579,note_on,,,,,40,0,1,,,,,,0,,63,0
50580,note_on,,,,,1,0,1,,,,,,0,,90,88
50581,note_on,,,,,1,0,1,,,,,,0,,102,96
50583,note_on,,,,,2,0,1,,,,,,0,,78,87
50587,note_on,,,,,4,0,1,,,,,,0,,69,74
50589,note_on,,,,,2,0,1,,,,,,0,,72,62
50602,note_on,,,,,13,0,1,,,,,,0,,72,0
50607,note_on,,,,,5,0,1,,,,,,0,,69,0
50611,note_on,,,,,4,0,1,,,,,,0,,78,0
50641,control_change,,,,,30,0,1,,,,64,0,0,,,
50650,note_on,,,,,9,0,1,,,,,,0,,64,86
50651,note_on,,,,,1,0,1,,,,,,0,,102,0
50663,control_change,,,,,12,0,1,,,,64,127,0,,,
50676,note_on,,,,,13,0,1,,,,,,0,,90,0
50702,note_on,,,,,26,0,1,,,,,,0,,64,0
50716,note_on,,,,,14,0,1,,,,,,0,,103,101
50717,note_on,,,,,1,0,1,,,,,,0,,91,91
50719,note_on,,,,,2,0,1,,,,,,0,,73,75
50719,note_on,,,,,0,0,1,,,,,,0,,70,76
50720,note_on,,,,,1,0,1,,,,,,0,,79,90
50738,note_on,,,,,18,0,1,,,,,,0,,73,0
50742,note_on,,,,,4,0,1,,,,,,0,,79,0
50748,note_on,,,,,6,0,1,,,,,,0,,70,0
50768,note_on,,,,,20,0,1,,,,,,0,,91,0
50777,control_change,,,,,9,0,1,,,,64,0,0,,,
50778,note_on,,,,,1,0,1,,,,,,0,,103,0
50786,note_on,,,,,8,0,1,,,,,,0,,65,85
50802,control_change,,,,,16,0,1,,,,64,127,0,,,
50848,note_on,,,,,46,0,1,,,,,,0,,80,82
50850,note_on,,,,,2,0,1,,,,,,0,,92,94
50851,note_on,,,,,1,0,1,,,,,,0,,104,91
50853,note_on,,,,,2,0,1,,,,,,0,,71,70
50866,note_on,,,,,13,0,1,,,,,,0,,74,26
50870,note_on,,,,,4,0,1,,,,,,0,,65,0
50879,note_on,,,,,9,0,1,,,,,,0,,80,0
50880,note_on,,,,,1,0,1,,,,,,0,,74,0
50885,note_on,,,,,5,0,1,,,,,,0,,71,0
50887,control_change,,,,,2,0,1,,,,64,0,0,,,
50913,note_on,,,,,26,0,1,,,,,,0,,66,94
50915,control_change,,,,,2,0,1,,,,64,127,0,,,
50920,note_on,,,,,5,0,1,,,,,,0,,104,0
50924,note_on,,,,,4,0,1,,,,,,0,,92,0
50977,note_on,,,,,53,0,1,,,,,,0,,105,102
50978,note_on,,,,,1,0,1,,,,,,0,,93,92
50980,note_on,,,,,2,0,1,,,,,,0,,72,79
50982,note_on,,,,,0,0,1,,,,,,0,,81,74
50982,note_on,,,,,2,0,1,,,,,,0,,75,69
50983,note_on,,,,,1,0,1,,,,,,0,,66,0
51009,note_on,,,,,26,0,1,,,,,,0,,81,0
51013,note_on,,,,,4,0,1,,,,,,0,,75,0
51015,note_on,,,,,2,0,1,,,,,,0,,72,0
51036,control_change,,,,,21,0,1,,,,64,0,0,,,
51046,note_on,,,,,10,0,1,,,,,,0,,67,74
51057,note_on,,,,,11,0,1,,,,,,0,,93,0
51061,control_change,,,,,4,0,1,,,,64,127,0,,,
51063,note_on,,,,,2,0,1,,,,,,0,,105,0
51106,note_on,,,,,43,0,1,,,,,,0,,73,76
51107,note_on,,,,,1,0,1,,,,,,0,,105,102
51108,note_on,,,,,1,0,1,,,,,,0,,93,95
51108,note_on,,,,,0,0,1,,,,,,0,,81,76
51111,note_on,,,,,3,0,1,,,,,,0,,76,62
51118,note_on,,,,,7,0,1,,,,,,0,,67,0
51140,note_on,,,,,22,0,1,,,,,,0,,81,0
51143,note_on,,,,,3,0,1,,,,,,0,,76,0
51155,note_on,,,,,12,0,1,,,,,,0,,73,0
51162,control_change,,,,,7,0,1,,,,64,0,0,,,
51172,note_on,,,,,10,0,1,,,,,,0,,66,93
51174,note_on,,,,,2,0,1,,,,,,0,,93,0
51182,note_on,,,,,8,0,1,,,,,,0,,105,0
51189,control_change,,,,,7,0,1,,,,64,127,0,,,
51200,note_on,,,,,11,0,1,,,,,,0,,93,84
51213,note_on,,,,,13,0,1,,,,,,0,,66,0
51224,note_on,,,,,11,0,1,,,,,,0,,93,0
51234,note_on,,,,,10,0,1,,,,,,0,,105,103
51236,note_on,,,,,2,0,1,,,,,,0,,72,67
51236,note_on,,,,,0,0,1,,,,,,0,,75,76
51237,note_on,,,,,1,0,1,,,,,,0,,81,78
51261,note_on,,,,,24,0,1,,,,,,0,,105,0
51266,note_on,,,,,5,0,1,,,,,,0,,72,0
51269,note_on,,,,,3,0,1,,,,,,0,,93,83
51275,note_on,,,,,6,0,1,,,,,,0,,81,0
51277,note_on,,,,,2,0,1,,,,,,0,,75,0
51280,control_change,,,,,3,0,1,,,,64,0,0,,,
51292,note_on,,,,,12,0,1,,,,,,0,,93,0
51299,note_on,,,,,7,0,1,,,,,,0,,67,62
51301,note_on,,,,,2,0,1,,,,,,0,,105,100
51303,control_change,,,,,2,0,1,,,,64,127,0,,,
51323,note_on,,,,,20,0,1,,,,,,0,,105,0
51330,note_on,,,,,7,0,1,,,,,,0,,93,81
51332,note_on,,,,,2,0,1,,,,,,0,,67,0
51357,note_on,,,,,25,0,1,,,,,,0,,93,0
51364,note_on,,,,,7,0,1,,,,,,0,,81,75
51366,note_on,,,,,2,0,1,,,,,,0,,105,98
51367,note_on,,,,,1,0,1,,,,,,0,,76,62
51370,note_on,,,,,3,0,1,,,,,,0,,73,73
51374,control_change,,,,,4,0,1,,,,64,0,0,,,
51380,control_change,,,,,6,0,1,,,,64,127,0,,,
51385,note_on,,,,,5,0,1,,,,,,0,,81,0
51389,note_on,,,,,4,0,1,,,,,,0,,76,0
51393,note_on,,,,,4,0,1,,,,,,0,,105,0
51396,note_on,,,,,3,0,1,,,,,,0,,73,0
51399,note_on,,,,,3,0,1,,,,,,0,,93,84
51421,note_on,,,,,22,0,1,,,,,,0,,93,0
51430,control_change,,,,,9,0,1,,,,64,0,0,,,
51433,note_on,,,,,3,0,1,,,,,,0,,68,102
51435,note_on,,,,,2,0,1,,,,,,0,,105,101
51446,control_change,,,,,11,0,1,,,,64,127,0,,,
51450,note_on,,,,,4,0,1,,,,,,0,,68,0
51461,note_on,,,,,11,0,1,,,,,,0,,105,0
51468,note_on,,,,,7,0,1,,,,,,0,,93,84
51491,note_on,,,,,23,0,1,,,,,,0,,93,0
51504,note_on,,,,,0,0,1,,,,,,0,,75,79
51504,note_on,,,,,13,0,1,,,,,,0,,105,101
51505,control_change,,,,,1,0,1,,,,64,0,0,,,
51506,note_on,,,,,1,0,1,,,,,,0,,84,79
51508,note_on,,,,,2,0,1,,,,,,0,,78,73
51512,control_change,,,,,4,0,1,,,,64,127,0,,,
51523,note_on,,,,,11,0,1,,,,,,0,,84,0
51531,note_on,,,,,8,0,1,,,,,,0,,75,0
51532,note_on,,,,,1,0,1,,,,,,0,,78,0
51534,note_on,,,,,2,0,1,,,,,,0,,105,0
51540,note_on,,,,,6,0,1,,,,,,0,,93,88
51565,control_change,,,,,25,0,1,,,,64,0,0,,,
51572,control_change,,,,,7,0,1,,,,64,127,0,,,
51574,note_on,,,,,2,0,1,,,,,,0,,68,94
51576,note_on,,,,,2,0,1,,,,,,0,,105,102
51582,note_on,,,,,6,0,1,,,,,,0,,93,0
51588,note_on,,,,,6,0,1,,,,,,0,,68,0
51602,note_on,,,,,14,0,1,,,,,,0,,105,0
51610,note_on,,,,,8,0,1,,,,,,0,,93,85
51644,control_change,,,,,34,0,1,,,,64,0,0,,,
51646,control_change,,,,,2,0,1,,,,64,127,0,,,
51648,note_on,,,,,0,0,1,,,,,,0,,85,88
51648,note_on,,,,,2,0,1,,,,,,0,,105,105
51656,note_on,,,,,0,0,1,,,,,,0,,79,66
51656,note_on,,,,,8,0,1,,,,,,0,,76,75
51658,note_on,,,,,2,0,1,,,,,,0,,93,0
51663,note_on,,,,,5,0,1,,,,,,0,,79,0
51664,note_on,,,,,1,0,1,,,,,,0,,85,0
51672,note_on,,,,,8,0,1,,,,,,0,,76,0
51676,note_on,,,,,4,0,1,,,,,,0,,105,0
51684,note_on,,,,,8,0,1,,,,,,0,,93,92
51706,note_on,,,,,22,0,1,,,,,,0,,93,0
51711,control_change,,,,,5,0,1,,,,64,0,0,,,
51719,control_change,,,,,8,0,1,,,,64,127,0,,,
51721,note_on,,,,,2,0,1,,,,,,0,,105,104
51722,note_on,,,,,1,0,1,,,,,,0,,68,97
51736,note_on,,,,,14,0,1,,,,,,0,,68,0
51750,note_on,,,,,14,0,1,,,,,,0,,105,0
51757,note_on,,,,,7,0,1,,,,,,0,,93,88
51781,note_on,,,,,24,0,1,,,,,,0,,93,0
51795,note_on,,,,,14,0,1,,,,,,0,,84,75
51796,note_on,,,,,1,0,1,,,,,,0,,93,29
51796,note_on,,,,,0,0,1,,,,,,0,,105,108
51796,note_on,,,,,0,0,1,,,,,,0,,78,76
51799,control_change,,,,,3,0,1,,,,64,0,0,,,
51800,note_on,,,,,1,0,1,,,,,,0,,75,73
51802,control_change,,,,,2,0,1,,,,64,127,0,,,
51806,note_on,,,,,4,0,1,,,,,,0,,93,0
51814,note_on,,,,,8,0,1,,,,,,0,,84,0
51819,note_on,,,,,5,0,1,,,,,,0,,75,0
51825,note_on,,,,,6,0,1,,,,,,0,,78,0
51825,note_on,,,,,0,0,1,,,,,,0,,105,0
51833,note_on,,,,,8,0,1,,,,,,0,,93,90
51872,note_on,,,,,39,0,1,,,,,,0,,68,94
51873,control_change,,,,,1,0,1,,,,64,0,0,,,
51874,note_on,,,,,1,0,1,,,,,,0,,105,108
51877,control_change,,,,,3,0,1,,,,64,127,0,,,
51883,note_on,,,,,6,0,1,,,,,,0,,93,0
51884,note_on,,,,,1,0,1,,,,,,0,,68,0
51908,note_on,,,,,24,0,1,,,,,,0,,105,0
51912,note_on,,,,,4,0,1,,,,,,0,,93,84
51954,control_change,,,,,42,0,1,,,,64,0,0,,,
51955,note_on,,,,,1,0,1,,,,,,0,,105,108
51955,note_on,,,,,0,0,1,,,,,,0,,78,86
51957,note_on,,,,,0,0,1,,,,,,0,,84,79
51957,note_on,,,,,2,0,1,,,,,,0,,87,90
51962,control_change,,,,,5,0,1,,,,64,127,0,,,
51964,note_on,,,,,2,0,1,,,,,,0,,93,0
51973,note_on,,,,,9,0,1,,,,,,0,,87,0
51973,note_on,,,,,0,0,1,,,,,,0,,84,0
51975,note_on,,,,,2,0,1,,,,,,0,,78,0
51994,note_on,,,,,19,0,1,,,,,,0,,93,94
52002,note_on,,,,,8,0,1,,,,,,0,,105,0
52004,set_tempo,,,,,2322,1,0,,348837,,,,,,,
52012,set_tempo,,,,,8,1,0,,350877,,,,,,,
52018,note_on,,,,,16,0,1,,,,,,0,,93,0
52020,set_tempo,,,,,8,1,0,,352941,,,,,,,
52028,set_tempo,,,,,8,1,0,,355030,,,,,,,
52036,set_tempo,,,,,8,1,0,,357143,,,,,,,
52040,note_on,,,,,22,0,1,,,,,,0,,92,97
52041,note_on,,,,,1,0,1,,,,,,0,,90,86
52042,set_tempo,,,,,6,1,0,,359281,,,,,,,
52044,control_change,,,,,3,0,1,,,,64,0,0,,,
52048,note_on,,,,,4,0,1,,,,,,0,,90,0
52050,set_tempo,,,,,8,1,0,,361446,,,,,,,
52053,note_on,,,,,5,0,1,,,,,,0,,92,0
52054,control_change,,,,,1,0,1,,,,64,127,0,,,
52058,set_tempo,,,,,8,1,0,,363636,,,,,,,
52066,set_tempo,,,,,8,1,0,,365854,,,,,,,
52074,set_tempo,,,,,8,1,0,,368098,,,,,,,
52080,note_on,,,,,0,0,1,,,,,,0,,93,79
52080,note_on,,,,,26,0,1,,,,,,0,,87,88
52080,set_tempo,,,,,6,1,0,,370370,,,,,,,
52082,note_on,,,,,2,0,1,,,,,,0,,84,69
52096,note_on,,,,,14,0,1,,,,,,0,,93,0
52098,note_on,,,,,2,0,1,,,,,,0,,84,0
52100,note_on,,,,,2,0,1,,,,,,0,,87,0
52110,note_on,,,,,10,0,1,,,,,,0,,92,107
52112,note_on,,,,,2,0,1,,,,,,0,,90,86
52119,note_on,,,,,7,0,1,,,,,,0,,90,0
52121,note_on,,,,,2,0,1,,,,,,0,,92,0
52138,note_on,,,,,0,0,1,,,,,,0,,93,92
52138,note_on,,,,,17,0,1,,,,,,0,,84,86
52138,note_on,,,,,0,0,1,,,,,,0,,87,84
52155,note_on,,,,,17,0,1,,,,,,0,,84,0
52156,note_on,,,,,1,0,1,,,,,,0,,93,0
52157,note_on,,,,,1,0,1,,,,,,0,,87,0
52167,note_on,,,,,10,0,1,,,,,,0,,92,95
52168,note_on,,,,,1,0,1,,,,,,0,,90,81
52174,note_on,,,,,6,0,1,,,,,,0,,92,0
52177,note_on,,,,,3,0,1,,,,,,0,,90,0
52197,note_on,,,,,20,0,1,,,,,,0,,87,86
52197,note_on,,,,,0,0,1,,,,,,0,,93,87
52198,note_on,,,,,1,0,1,,,,,,0,,84,78
52214,note_on,,,,,0,0,1,,,,,,0,,93,0
52214,note_on,,,,,16,0,1,,,,,,0,,84,0
52215,note_on,,,,,1,0,1,,,,,,0,,87,0
52224,note_on,,,,,9,0,1,,,,,,0,,92,97
52224,note_on,,,,,0,0,1,,,,,,0,,90,87
52236,note_on,,,,,12,0,1,,,,,,0,,90,0
52237,note_on,,,,,1,0,1,,,,,,0,,92,0
52252,note_on,,,,,15,0,1,,,,,,0,,93,87
52253,note_on,,,,,1,0,1,,,,,,0,,84,79
52253,note_on,,,,,0,0,1,,,,,,0,,87,86
52270,note_on,,,,,17,0,1,,,,,,0,,84,0
52271,note_on,,,,,1,0,1,,,,,,0,,93,0
52272,note_on,,,,,1,0,1,,,,,,0,,87,0
52280,note_on,,,,,8,0,1,,,,,,0,,92,97
52282,note_on,,,,,2,0,1,,,,,,0,,90,84
52298,note_on,,,,,0,0,1,,,,,,0,,92,0
52298,note_on,,,,,16,0,1,,,,,,0,,90,0
52305,note_on,,,,,7,0,1,,,,,,0,,93,89
52306,note_on,,,,,1,0,1,,,,,,0,,87,82
52307,note_on,,,,,1,0,1,,,,,,0,,84,78
52314,set_tempo,,,,,234,1,0,,368098,,,,,,,
52325,note_on,,,,,0,0,1,,,,,,0,,93,0
52325,note_on,,,,,18,0,1,,,,,,0,,84,0
52326,note_on,,,,,1,0,1,,,,,,0,,87,0
52336,note_on,,,,,10,0,1,,,,,,0,,92,97
52338,note_on,,,,,2,0,1,,,,,,0,,90,84
52350,note_on,,,,,12,0,1,,,,,,0,,92,0
52351,note_on,,,,,1,0,1,,,,,,0,,90,0
52356,set_tempo,,,,,42,1,0,,370370,,,,,,,
52361,note_on,,,,,10,0,1,,,,,,0,,93,81
52362,note_on,,,,,1,0,1,,,,,,0,,84,74
52362,note_on,,,,,0,0,1,,,,,,0,,87,77
52378,note_on,,,,,16,0,1,,,,,,0,,93,0
52379,note_on,,,,,1,0,1,,,,,,0,,87,0
52380,note_on,,,,,1,0,1,,,,,,0,,84,0
52390,note_on,,,,,10,0,1,,,,,,0,,92,99
52391,note_on,,,,,1,0,1,,,,,,0,,90,88
52405,note_on,,,,,14,0,1,,,,,,0,,92,0
52406,note_on,,,,,1,0,1,,,,,,0,,90,0
52415,note_on,,,,,9,0,1,,,,,,0,,93,84
52416,note_on,,,,,1,0,1,,,,,,0,,84,82
52417,note_on,,,,,1,0,1,,,,,,0,,87,80
52433,note_on,,,,,16,0,1,,,,,,0,,84,0
52434,note_on,,,,,1,0,1,,,,,,0,,93,0
52435,note_on,,,,,1,0,1,,,,,,0,,87,0
52440,note_on,,,,,5,0,1,,,,,,0,,92,96
52442,note_on,,,,,2,0,1,,,,,,0,,90,82
52458,note_on,,,,,16,0,1,,,,,,0,,90,0
52460,note_on,,,,,2,0,1,,,,,,0,,92,0
52469,note_on,,,,,9,0,1,,,,,,0,,93,87
52470,note_on,,,,,1,0,1,,,,,,0,,84,76
52470,note_on,,,,,0,0,1,,,,,,0,,87,84
52487,note_on,,,,,17,0,1,,,,,,0,,84,0
52490,note_on,,,,,3,0,1,,,,,,0,,93,0
52492,note_on,,,,,2,0,1,,,,,,0,,87,0
52495,note_on,,,,,3,0,1,,,,,,0,,92,106
52496,note_on,,,,,1,0,1,,,,,,0,,90,95
52518,note_on,,,,,0,0,1,,,,,,0,,92,0
52518,note_on,,,,,22,0,1,,,,,,0,,90,0
52525,note_on,,,,,7,0,1,,,,,,0,,93,86
52525,note_on,,,,,0,0,1,,,,,,0,,84,87
52526,note_on,,,,,1,0,1,,,,,,0,,87,90
52543,note_on,,,,,17,0,1,,,,,,0,,84,0
52545,note_on,,,,,2,0,1,,,,,,0,,87,0
52547,note_on,,,,,2,0,1,,,,,,0,,93,0
52550,note_on,,,,,3,0,1,,,,,,0,,92,98
52551,note_on,,,,,1,0,1,,,,,,0,,90,87
52568,note_on,,,,,17,0,1,,,,,,0,,90,0
52569,note_on,,,,,1,0,1,,,,,,0,,92,0
52578,note_on,,,,,9,0,1,,,,,,0,,93,81
52580,note_on,,,,,0,0,1,,,,,,0,,84,78
52580,note_on,,,,,2,0,1,,,,,,0,,87,82
52597,note_on,,,,,17,0,1,,,,,,0,,84,0
52597,note_on,,,,,0,0,1,,,,,,0,,87,0
52600,note_on,,,,,3,0,1,,,,,,0,,93,0
52608,note_on,,,,,8,0,1,,,,,,0,,92,95
52608,note_on,,,,,0,0,1,,,,,,0,,90,87
52624,note_on,,,,,16,0,1,,,,,,0,,90,0
52624,note_on,,,,,0,0,1,,,,,,0,,92,0
52629,note_on,,,,,5,0,1,,,,,,0,,93,84
52631,note_on,,,,,0,0,1,,,,,,0,,87,84
52631,note_on,,,,,2,0,1,,,,,,0,,84,81
52649,note_on,,,,,18,0,1,,,,,,0,,84,0
52651,note_on,,,,,2,0,1,,,,,,0,,87,0
52652,note_on,,,,,1,0,1,,,,,,0,,93,0
52659,note_on,,,,,7,0,1,,,,,,0,,92,95
52660,note_on,,,,,1,0,1,,,,,,0,,90,87
52677,note_on,,,,,17,0,1,,,,,,0,,90,0
52677,note_on,,,,,0,0,1,,,,,,0,,92,0
52684,note_on,,,,,7,0,1,,,,,,0,,93,84
52684,note_on,,,,,0,0,1,,,,,,0,,84,83
52686,note_on,,,,,2,0,1,,,,,,0,,87,86
52701,note_on,,,,,15,0,1,,,,,,0,,84,0
52706,note_on,,,,,5,0,1,,,,,,0,,93,0
52708,note_on,,,,,2,0,1,,,,,,0,,87,0
52712,note_on,,,,,4,0,1,,,,,,0,,92,99
52712,note_on,,,,,0,0,1,,,,,,0,,90,88
52729,note_on,,,,,17,0,1,,,,,,0,,90,0
52731,note_on,,,,,2,0,1,,,,,,0,,92,0
52738,note_on,,,,,7,0,1,,,,,,0,,94,94
52740,note_on,,,,,0,0,1,,,,,,0,,84,79
52740,note_on,,,,,2,0,1,,,,,,0,,87,87
52758,note_on,,,,,18,0,1,,,,,,0,,84,0
52760,note_on,,,,,2,0,1,,,,,,0,,87,0
52762,note_on,,,,,2,0,1,,,,,,0,,94,0
52766,note_on,,,,,4,0,1,,,,,,0,,92,93
52767,note_on,,,,,1,0,1,,,,,,0,,90,79
52784,note_on,,,,,0,0,1,,,,,,0,,92,0
52784,note_on,,,,,17,0,1,,,,,,0,,90,0
52796,note_on,,,,,12,0,1,,,,,,0,,94,97
52798,note_on,,,,,0,0,1,,,,,,0,,87,86
52798,note_on,,,,,2,0,1,,,,,,0,,84,84
52814,note_on,,,,,16,0,1,,,,,,0,,84,0
52817,note_on,,,,,3,0,1,,,,,,0,,87,0
52821,note_on,,,,,4,0,1,,,,,,0,,92,92
52822,note_on,,,,,1,0,1,,,,,,0,,90,85
52823,note_on,,,,,1,0,1,,,,,,0,,94,0
52839,note_on,,,,,16,0,1,,,,,,0,,90,0
52840,note_on,,,,,1,0,1,,,,,,0,,92,0
52854,note_on,,,,,14,0,1,,,,,,0,,95,91
52854,note_on,,,,,0,0,1,,,,,,0,,87,95
52855,note_on,,,,,1,0,1,,,,,,0,,84,88
52870,note_on,,,,,15,0,1,,,,,,0,,84,0
52872,note_on,,,,,0,0,1,,,,,,0,,95,0
52872,note_on,,,,,2,0,1,,,,,,0,,87,0
52877,note_on,,,,,5,0,1,,,,,,0,,92,89
52878,note_on,,,,,1,0,1,,,,,,0,,90,80
52896,note_on,,,,,18,0,1,,,,,,0,,92,0
52898,note_on,,,,,2,0,1,,,,,,0,,90,0
52908,note_on,,,,,0,0,1,,,,,,0,,95,90
52908,note_on,,,,,10,0,1,,,,,,0,,87,94
52909,note_on,,,,,1,0,1,,,,,,0,,84,81
52921,note_on,,,,,12,0,1,,,,,,0,,84,0
52923,note_on,,,,,2,0,1,,,,,,0,,95,0
52926,note_on,,,,,3,0,1,,,,,,0,,87,0
52944,note_on,,,,,18,0,1,,,,,,0,,80,76
52948,control_change,,,,,4,0,1,,,,64,0,0,,,
52962,note_on,,,,,14,0,1,,,,,,0,,80,0
52964,control_change,,,,,2,0,1,,,,64,127,0,,,
52967,note_on,,,,,3,0,1,,,,,,0,,90,88
52968,note_on,,,,,1,0,1,,,,,,0,,96,94
52968,note_on,,,,,0,0,1,,,,,,0,,87,93
52984,note_on,,,,,16,0,1,,,,,,0,,87,0
52985,note_on,,,,,1,0,1,,,,,,0,,96,0
52990,note_on,,,,,5,0,1,,,,,,0,,90,0
53002,note_on,,,,,12,0,1,,,,,,0,,86,102
53018,note_on,,,,,16,0,1,,,,,,0,,86,0
53022,note_on,,,,,4,0,1,,,,,,0,,96,94
53023,note_on,,,,,1,0,1,,,,,,0,,87,92
53024,note_on,,,,,1,0,1,,,,,,0,,90,84
53041,note_on,,,,,17,0,1,,,,,,0,,87,0
53044,note_on,,,,,3,0,1,,,,,,0,,96,0
53045,note_on,,,,,1,0,1,,,,,,0,,90,0
53054,note_on,,,,,9,0,1,,,,,,0,,80,92
53070,control_change,,,,,16,0,1,,,,64,0,0,,,
53077,note_on,,,,,7,0,1,,,,,,0,,97,97
53078,note_on,,,,,1,0,1,,,,,,0,,91,86
53080,note_on,,,,,0,0,1,,,,,,0,,88,79
53080,note_on,,,,,2,0,1,,,,,,0,,80,0
53086,control_change,,,,,6,0,1,,,,64,127,0,,,
53098,note_on,,,,,12,0,1,,,,,,0,,88,0
53099,note_on,,,,,1,0,1,,,,,,0,,91,0
53100,note_on,,,,,1,0,1,,,,,,0,,97,0
53110,note_on,,,,,10,0,1,,,,,,0,,87,104
53129,note_on,,,,,19,0,1,,,,,,0,,97,92
53132,note_on,,,,,0,0,1,,,,,,0,,91,74
53132,note_on,,,,,3,0,1,,,,,,0,,87,0
53133,note_on,,,,,1,0,1,,,,,,0,,88,86
53150,note_on,,,,,17,0,1,,,,,,0,,88,0
53153,note_on,,,,,3,0,1,,,,,,0,,91,0
53156,note_on,,,,,3,0,1,,,,,,0,,97,0
53164,note_on,,,,,8,0,1,,,,,,0,,80,91
53179,control_change,,,,,15,0,1,,,,64,0,0,,,
53188,note_on,,,,,0,0,1,,,,,,0,,98,95
53188,note_on,,,,,9,0,1,,,,,,0,,80,0
53189,note_on,,,,,1,0,1,,,,,,0,,89,84
53189,note_on,,,,,0,0,1,,,,,,0,,92,82
53190,control_change,,,,,1,0,1,,,,64,127,0,,,
53206,note_on,,,,,16,0,1,,,,,,0,,89,0
53207,note_on,,,,,1,0,1,,,,,,0,,98,0
53210,note_on,,,,,3,0,1,,,,,,0,,92,0
53218,note_on,,,,,8,0,1,,,,,,0,,88,89
53242,note_on,,,,,0,0,1,,,,,,0,,92,86
53242,note_on,,,,,24,0,1,,,,,,0,,98,95
53245,note_on,,,,,0,0,1,,,,,,0,,89,88
53245,note_on,,,,,3,0,1,,,,,,0,,88,0
53258,note_on,,,,,13,0,1,,,,,,0,,89,0
53264,note_on,,,,,6,0,1,,,,,,0,,98,0
53266,note_on,,,,,2,0,1,,,,,,0,,92,0
53273,note_on,,,,,7,0,1,,,,,,0,,80,97
53288,control_change,,,,,15,0,1,,,,64,0,0,,,
53297,note_on,,,,,0,0,1,,,,,,0,,93,87
53297,note_on,,,,,9,0,1,,,,,,0,,99,89
53298,note_on,,,,,1,0,1,,,,,,0,,90,80
53301,control_change,,,,,3,0,1,,,,64,127,0,,,
53303,note_on,,,,,2,0,1,,,,,,0,,80,0
53321,note_on,,,,,18,0,1,,,,,,0,,90,0
53324,note_on,,,,,3,0,1,,,,,,0,,99,0
53325,note_on,,,,,1,0,1,,,,,,0,,93,0
53328,note_on,,,,,3,0,1,,,,,,0,,89,92
53355,note_on,,,,,0,0,1,,,,,,0,,90,96
53355,note_on,,,,,27,0,1,,,,,,0,,89,0
53357,note_on,,,,,2,0,1,,,,,,0,,99,81
53358,note_on,,,,,1,0,1,,,,,,0,,93,80
53378,note_on,,,,,20,0,1,,,,,,0,,93,0
53379,note_on,,,,,1,0,1,,,,,,0,,90,0
53384,note_on,,,,,5,0,1,,,,,,0,,99,0
53385,note_on,,,,,1,0,1,,,,,,0,,80,97
53399,control_change,,,,,14,0,1,,,,64,0,0,,,
53414,note_on,,,,,15,0,1,,,,,,0,,98,92
53415,control_change,,,,,1,0,1,,,,64,127,0,,,
53416,note_on,,,,,0,0,1,,,,,,0,,92,80
53416,note_on,,,,,1,0,1,,,,,,0,,89,84
53419,note_on,,,,,3,0,1,,,,,,0,,80,0
53433,note_on,,,,,14,0,1,,,,,,0,,89,0
53435,note_on,,,,,2,0,1,,,,,,0,,98,0
53437,note_on,,,,,2,0,1,,,,,,0,,92,0
53442,note_on,,,,,5,0,1,,,,,,0,,88,92
53467,note_on,,,,,25,0,1,,,,,,0,,88,0
53469,note_on,,,,,2,0,1,,,,,,0,,98,96
53470,note_on,,,,,1,0,1,,,,,,0,,92,86
53472,note_on,,,,,2,0,1,,,,,,0,,89,84
53485,note_on,,,,,13,0,1,,,,,,0,,89,0
53490,note_on,,,,,5,0,1,,,,,,0,,98,0
53493,note_on,,,,,3,0,1,,,,,,0,,92,0
53500,note_on,,,,,7,0,1,,,,,,0,,80,97
53508,control_change,,,,,8,0,1,,,,64,0,0,,,
53525,note_on,,,,,17,0,1,,,,,,0,,99,91
53525,note_on,,,,,0,0,1,,,,,,0,,93,84
53526,control_change,,,,,1,0,1,,,,64,127,0,,,
53527,note_on,,,,,1,0,1,,,,,,0,,90,86
53535,note_on,,,,,8,0,1,,,,,,0,,80,0
53547,note_on,,,,,12,0,1,,,,,,0,,90,0
53550,note_on,,,,,3,0,1,,,,,,0,,99,0
53552,note_on,,,,,2,0,1,,,,,,0,,93,0
53554,note_on,,,,,2,0,1,,,,,,0,,89,92
53581,note_on,,,,,27,0,1,,,,,,0,,90,96
53582,note_on,,,,,1,0,1,,,,,,0,,89,0
53583,note_on,,,,,0,0,1,,,,,,0,,99,82
53583,note_on,,,,,1,0,1,,,,,,0,,93,79
53602,note_on,,,,,19,0,1,,,,,,0,,93,0
53603,note_on,,,,,1,0,1,,,,,,0,,90,0
53610,note_on,,,,,7,0,1,,,,,,0,,99,0
53614,note_on,,,,,4,0,1,,,,,,0,,80,92
53628,control_change,,,,,14,0,1,,,,64,0,0,,,
53638,note_on,,,,,10,0,1,,,,,,0,,100,94
53640,note_on,,,,,0,0,1,,,,,,0,,91,81
53640,note_on,,,,,2,0,1,,,,,,0,,94,84
53641,control_change,,,,,1,0,1,,,,64,127,0,,,
53646,note_on,,,,,5,0,1,,,,,,0,,80,0
53656,note_on,,,,,10,0,1,,,,,,0,,91,0
53660,note_on,,,,,4,0,1,,,,,,0,,100,0
53664,note_on,,,,,4,0,1,,,,,,0,,94,0
53672,note_on,,,,,8,0,1,,,,,,0,,90,95
53697,note_on,,,,,25,0,1,,,,,,0,,90,0
53698,note_on,,,,,1,0,1,,,,,,0,,100,97
53700,note_on,,,,,2,0,1,,,,,,0,,91,85
53700,note_on,,,,,0,0,1,,,,,,0,,94,91
53717,note_on,,,,,17,0,1,,,,,,0,,91,0
53720,note_on,,,,,3,0,1,,,,,,0,,100,0
53722,note_on,,,,,2,0,1,,,,,,0,,94,0
53733,note_on,,,,,11,0,1,,,,,,0,,80,98
53749,control_change,,,,,16,0,1,,,,64,0,0,,,
53758,note_on,,,,,9,0,1,,,,,,0,,101,97
53761,note_on,,,,,3,0,1,,,,,,0,,95,84
53762,note_on,,,,,1,0,1,,,,,,0,,92,77
53764,control_change,,,,,2,0,1,,,,64,127,0,,,
53765,note_on,,,,,1,0,1,,,,,,0,,80,0
53780,note_on,,,,,15,0,1,,,,,,0,,92,0
53782,note_on,,,,,2,0,1,,,,,,0,,101,0
53785,note_on,,,,,3,0,1,,,,,,0,,95,0
53792,note_on,,,,,7,0,1,,,,,,0,,91,90
53816,note_on,,,,,24,0,1,,,,,,0,,91,0
53822,note_on,,,,,6,0,1,,,,,,0,,101,85
53822,note_on,,,,,0,0,1,,,,,,0,,92,87
53823,note_on,,,,,1,0,1,,,,,,0,,95,81
53841,note_on,,,,,18,0,1,,,,,,0,,95,0
53844,note_on,,,,,3,0,1,,,,,,0,,92,0
53844,note_on,,,,,0,0,1,,,,,,0,,101,0
53871,control_change,,,,,27,0,1,,,,64,0,0,,,
53876,note_on,,,,,5,0,1,,,,,,0,,90,98
53880,note_on,,,,,4,0,1,,,,,,0,,98,98
53906,control_change,,,,,26,0,1,,,,64,127,0,,,
53916,note_on,,,,,10,0,1,,,,,,0,,101,96
53925,note_on,,,,,9,0,1,,,,,,0,,98,0
53936,note_on,,,,,11,0,1,,,,,,0,,94,96
53958,note_on,,,,,22,0,1,,,,,,0,,99,95
53959,note_on,,,,,1,0,1,,,,,,0,,90,0
53971,note_on,,,,,12,0,1,,,,,,0,,101,0
53985,note_on,,,,,14,0,1,,,,,,0,,94,0
53990,note_on,,,,,5,0,1,,,,,,0,,89,94
53996,note_on,,,,,6,0,1,,,,,,0,,96,94
53999,note_on,,,,,3,0,1,,,,,,0,,99,0
54014,control_change,,,,,15,0,1,,,,64,0,0,,,
54032,control_change,,,,,18,0,1,,,,64,127,0,,,
54039,note_on,,,,,7,0,1,,,,,,0,,96,0
54040,note_on,,,,,1,0,1,,,,,,0,,99,92
54051,note_on,,,,,11,0,1,,,,,,0,,89,0
54060,note_on,,,,,9,0,1,,,,,,0,,92,92
54073,note_on,,,,,13,0,1,,,,,,0,,99,0
54074,note_on,,,,,1,0,1,,,,,,0,,97,91
54101,note_on,,,,,27,0,1,,,,,,0,,92,0
54106,note_on,,,,,5,0,1,,,,,,0,,97,0
54108,note_on,,,,,2,0,1,,,,,,0,,87,89
54112,note_on,,,,,4,0,1,,,,,,0,,95,89
54120,control_change,,,,,8,0,1,,,,64,0,0,,,
54134,control_change,,,,,14,0,1,,,,64,127,0,,,
54144,note_on,,,,,10,0,1,,,,,,0,,97,90
54146,note_on,,,,,2,0,1,,,,,,0,,95,0
54168,note_on,,,,,22,0,1,,,,,,0,,87,0
54172,note_on,,,,,4,0,1,,,,,,0,,90,90
54177,note_on,,,,,5,0,1,,,,,,0,,97,0
54188,note_on,,,,,11,0,1,,,,,,0,,96,90
54212,note_on,,,,,24,0,1,,,,,,0,,85,90
54214,note_on,,,,,0,0,1,,,,,,0,,93,90
54214,note_on,,,,,0,0,1,,,,,,0,,90,0
54214,note_on,,,,,2,0,1,,,,,,0,,96,0
54231,control_change,,,,,17,0,1,,,,64,0,0,,,
54246,note_on,,,,,15,0,1,,,,,,0,,96,90
54246,control_change,,,,,0,0,1,,,,64,127,0,,,
54253,note_on,,,,,7,0,1,,,,,,0,,93,0
54266,note_on,,,,,13,0,1,,,,,,0,,85,0
54268,note_on,,,,,2,0,1,,,,,,0,,89,89
54287,note_on,,,,,19,0,1,,,,,,0,,94,88
54294,note_on,,,,,7,0,1,,,,,,0,,96,0
54300,note_on,,,,,6,0,1,,,,,,0,,89,0
54311,note_on,,,,,11,0,1,,,,,,0,,94,0
54316,note_on,,,,,5,0,1,,,,,,0,,84,86
54320,note_on,,,,,4,0,1,,,,,,0,,91,86
54327,control_change,,,,,7,0,1,,,,64,0,0,,,
54345,control_change,,,,,18,0,1,,,,64,127,0,,,
54354,note_on,,,,,9,0,1,,,,,,0,,94,86
54360,note_on,,,,,0,0,1,,,,,,0,,84,0
54360,note_on,,,,,6,0,1,,,,,,0,,91,0
54372,note_on,,,,,12,0,1,,,,,,0,,87,86
54390,note_on,,,,,18,0,1,,,,,,0,,92,86
54396,note_on,,,,,6,0,1,,,,,,0,,94,0
54416,control_change,,,,,20,0,1,,,,64,0,0,,,
54417,note_on,,,,,1,0,1,,,,,,0,,92,0
54421,note_on,,,,,4,0,1,,,,,,0,,89,85
54423,note_on,,,,,2,0,1,,,,,,0,,82,85
54424,note_on,,,,,1,0,1,,,,,,0,,87,0
54440,control_change,,,,,16,0,1,,,,64,127,0,,,
54455,note_on,,,,,15,0,1,,,,,,0,,92,84
54462,note_on,,,,,7,0,1,,,,,,0,,89,0
54473,note_on,,,,,11,0,1,,,,,,0,,85,84
54478,note_on,,,,,5,0,1,,,,,,0,,82,0
54493,note_on,,,,,15,0,1,,,,,,0,,90,84
54499,note_on,,,,,6,0,1,,,,,,0,,92,0
54515,control_change,,,,,16,0,1,,,,64,0,0,,,
54519,note_on,,,,,4,0,1,,,,,,0,,85,0
54521,note_on,,,,,2,0,1,,,,,,0,,90,0
54526,note_on,,,,,0,0,1,,,,,,0,,88,84
54526,note_on,,,,,5,0,1,,,,,,0,,80,84
54538,control_change,,,,,12,0,1,,,,64,127,0,,,
54557,note_on,,,,,19,0,1,,,,,,0,,90,83
54564,note_on,,,,,7,0,1,,,,,,0,,88,0
54578,note_on,,,,,14,0,1,,,,,,0,,84,83
54588,note_on,,,,,10,0,1,,,,,,0,,80,0
54592,note_on,,,,,4,0,1,,,,,,0,,89,81
54599,note_on,,,,,7,0,1,,,,,,0,,90,0
54605,note_on,,,,,6,0,1,,,,,,0,,84,0
54610,control_change,,,,,5,0,1,,,,64,0,0,,,
54620,note_on,,,,,10,0,1,,,,,,0,,89,0
54624,control_change,,,,,4,0,1,,,,64,127,0,,,
54628,note_on,,,,,4,0,1,,,,,,0,,78,79
54628,note_on,,,,,0,0,1,,,,,,0,,86,79
54661,note_on,,,,,33,0,1,,,,,,0,,89,79
54668,note_on,,,,,7,0,1,,,,,,0,,86,0
54683,note_on,,,,,15,0,1,,,,,,0,,82,79
54694,note_on,,,,,11,0,1,,,,,,0,,78,0
54700,note_on,,,,,6,0,1,,,,,,0,,87,79
54706,control_change,,,,,6,0,1,,,,64,0,0,,,
54711,note_on,,,,,5,0,1,,,,,,0,,89,0
54715,note_on,,,,,4,0,1,,,,,,0,,82,0
54726,note_on,,,,,11,0,1,,,,,,0,,87,0
54729,control_change,,,,,3,0,1,,,,64,127,0,,,
54734,note_on,,,,,5,0,1,,,,,,0,,84,76
54736,note_on,,,,,2,0,1,,,,,,0,,77,76
54768,note_on,,,,,32,0,1,,,,,,0,,87,76
54773,note_on,,,,,5,0,1,,,,,,0,,84,0
54785,note_on,,,,,12,0,1,,,,,,0,,80,76
54787,note_on,,,,,2,0,1,,,,,,0,,77,0
54806,note_on,,,,,19,0,1,,,,,,0,,85,76
54811,note_on,,,,,5,0,1,,,,,,0,,87,0
54825,note_on,,,,,14,0,1,,,,,,0,,80,0
54828,control_change,,,,,3,0,1,,,,64,0,0,,,
54834,note_on,,,,,6,0,1,,,,,,0,,85,0
54840,note_on,,,,,6,0,1,,,,,,0,,75,75
54842,note_on,,,,,2,0,1,,,,,,0,,83,75
54846,control_change,,,,,4,0,1,,,,64,127,0,,,
54874,note_on,,,,,28,0,1,,,,,,0,,85,75
54877,note_on,,,,,3,0,1,,,,,,0,,83,0
54887,note_on,,,,,10,0,1,,,,,,0,,78,75
54897,note_on,,,,,10,0,1,,,,,,0,,75,0
54912,note_on,,,,,15,0,1,,,,,,0,,84,72
54914,note_on,,,,,2,0,1,,,,,,0,,85,0
54922,note_on,,,,,8,0,1,,,,,,0,,78,0
54935,note_on,,,,,13,0,1,,,,,,0,,84,0
54944,note_on,,,,,9,0,1,,,,,,0,,73,72
54947,note_on,,,,,3,0,1,,,,,,0,,81,72
54966,control_change,,,,,19,0,1,,,,64,0,0,,,
54979,note_on,,,,,13,0,1,,,,,,0,,84,72
54981,control_change,,,,,2,0,1,,,,64,127,0,,,
54986,note_on,,,,,5,0,1,,,,,,0,,81,0
54994,note_on,,,,,8,0,1,,,,,,0,,77,72
55007,note_on,,,,,13,0,1,,,,,,0,,73,0
55017,note_on,,,,,10,0,1,,,,,,0,,82,72
55024,note_on,,,,,7,0,1,,,,,,0,,84,0
55025,note_on,,,,,1,0,1,,,,,,0,,77,0
55042,note_on,,,,,17,0,1,,,,,,0,,82,0
55051,note_on,,,,,9,0,1,,,,,,0,,79,70
55054,note_on,,,,,3,0,1,,,,,,0,,72,70
55078,control_change,,,,,24,0,1,,,,64,0,0,,,
55084,note_on,,,,,6,0,1,,,,,,0,,82,70
55088,note_on,,,,,4,0,1,,,,,,0,,79,0
55094,control_change,,,,,6,0,1,,,,64,127,0,,,
55110,note_on,,,,,16,0,1,,,,,,0,,75,69
55112,note_on,,,,,2,0,1,,,,,,0,,72,0
55123,note_on,,,,,11,0,1,,,,,,0,,80,69
55132,note_on,,,,,9,0,1,,,,,,0,,82,0
55142,note_on,,,,,10,0,1,,,,,,0,,75,0
55152,note_on,,,,,10,0,1,,,,,,0,,80,0
55155,note_on,,,,,3,0,1,,,,,,0,,77,69
55164,note_on,,,,,9,0,1,,,,,,0,,70,69
55178,control_change,,,,,14,0,1,,,,64,0,0,,,
55188,note_on,,,,,10,0,1,,,,,,0,,80,69
55192,note_on,,,,,4,0,1,,,,,,0,,77,0
55202,control_change,,,,,10,0,1,,,,64,127,0,,,
55211,note_on,,,,,9,0,1,,,,,,0,,73,68
55214,note_on,,,,,3,0,1,,,,,,0,,70,0
55229,note_on,,,,,15,0,1,,,,,,0,,78,67
55235,note_on,,,,,6,0,1,,,,,,0,,80,0
55248,note_on,,,,,13,0,1,,,,,,0,,73,0
55255,note_on,,,,,7,0,1,,,,,,0,,78,0
55263,note_on,,,,,8,0,1,,,,,,0,,76,65
55264,note_on,,,,,1,0,1,,,,,,0,,68,65
55287,control_change,,,,,23,0,1,,,,64,0,0,,,
55292,note_on,,,,,5,0,1,,,,,,0,,76,0
55296,note_on,,,,,4,0,1,,,,,,0,,78,65
55306,control_change,,,,,10,0,1,,,,64,127,0,,,
55312,note_on,,,,,6,0,1,,,,,,0,,72,65
55331,note_on,,,,,19,0,1,,,,,,0,,68,0
55336,note_on,,,,,5,0,1,,,,,,0,,77,65
55339,note_on,,,,,3,0,1,,,,,,0,,72,0
55342,note_on,,,,,3,0,1,,,,,,0,,78,0
55359,note_on,,,,,17,0,1,,,,,,0,,77,0
55369,note_on,,,,,10,0,1,,,,,,0,,66,65
55371,note_on,,,,,2,0,1,,,,,,0,,74,64
55388,control_change,,,,,17,0,1,,,,64,0,0,,,
55404,note_on,,,,,16,0,1,,,,,,0,,77,64
55408,control_change,,,,,0,0,1,,,,64,127,0,,,
55408,note_on,,,,,4,0,1,,,,,,0,,74,0
55427,note_on,,,,,19,0,1,,,,,,0,,70,62
55439,note_on,,,,,0,0,1,,,,,,0,,75,62
55439,note_on,,,,,12,0,1,,,,,,0,,66,0
55444,note_on,,,,,5,0,1,,,,,,0,,77,0
55466,note_on,,,,,22,0,1,,,,,,0,,70,0
55467,note_on,,,,,1,0,1,,,,,,0,,75,0
55475,note_on,,,,,8,0,1,,,,,,0,,72,61
55476,note_on,,,,,1,0,1,,,,,,0,,65,61
55486,control_change,,,,,10,0,1,,,,64,0,0,,,
55509,note_on,,,,,23,0,1,,,,,,0,,75,61
55512,note_on,,,,,3,0,1,,,,,,0,,72,0
55520,control_change,,,,,8,0,1,,,,64,127,0,,,
55532,note_on,,,,,12,0,1,,,,,,0,,68,61
55533,note_on,,,,,1,0,1,,,,,,0,,65,0
55549,note_on,,,,,16,0,1,,,,,,0,,73,61
55552,note_on,,,,,3,0,1,,,,,,0,,75,0
55566,note_on,,,,,14,0,1,,,,,,0,,68,0
55578,note_on,,,,,12,0,1,,,,,,0,,63,61
55580,note_on,,,,,2,0,1,,,,,,0,,73,0
55584,note_on,,,,,4,0,1,,,,,,0,,71,61
55592,control_change,,,,,8,0,1,,,,64,0,0,,,
55616,note_on,,,,,24,0,1,,,,,,0,,73,61
55619,control_change,,,,,3,0,1,,,,64,127,0,,,
55621,note_on,,,,,2,0,1,,,,,,0,,71,0
55634,note_on,,,,,13,0,1,,,,,,0,,66,59
55642,note_on,,,,,8,0,1,,,,,,0,,63,0
55654,note_on,,,,,12,0,1,,,,,,0,,72,59
55656,note_on,,,,,2,0,1,,,,,,0,,73,0
55669,note_on,,,,,13,0,1,,,,,,0,,66,0
55677,note_on,,,,,8,0,1,,,,,,0,,72,0
55678,set_tempo,,,,,3322,1,0,,368098,,,,,,,
55687,note_on,,,,,10,0,1,,,,,,0,,69,59
55688,note_on,,,,,1,0,1,,,,,,0,,61,59
55698,control_change,,,,,10,0,1,,,,64,0,0,,,
55715,note_on,,,,,17,0,1,,,,,,0,,69,0
55722,set_tempo,,,,,44,1,0,,370370,,,,,,,
55724,note_on,,,,,9,0,1,,,,,,0,,72,59
55727,control_change,,,,,3,0,1,,,,64,127,0,,,
55743,note_on,,,,,16,0,1,,,,,,0,,65,59
55757,note_on,,,,,14,0,1,,,,,,0,,61,0
55763,note_on,,,,,6,0,1,,,,,,0,,70,59
55766,set_tempo,,,,,44,1,0,,372671,,,,,,,
55768,note_on,,,,,5,0,1,,,,,,0,,72,0
55772,note_on,,,,,4,0,1,,,,,,0,,65,0
55788,note_on,,,,,16,0,1,,,,,,0,,70,0
55798,note_on,,,,,10,0,1,,,,,,0,,67,59
55799,note_on,,,,,1,0,1,,,,,,0,,60,59
55810,set_tempo,,,,,44,1,0,,375000,,,,,,,
55816,control_change,,,,,17,0,1,,,,64,0,0,,,
55832,note_on,,,,,16,0,1,,,,,,0,,70,59
55834,note_on,,,,,2,0,1,,,,,,0,,67,0
55847,control_change,,,,,13,0,1,,,,64,127,0,,,
55854,set_tempo,,,,,44,1,0,,377358,,,,,,,
55858,note_on,,,,,11,0,1,,,,,,0,,63,55
55864,note_on,,,,,6,0,1,,,,,,0,,60,0
55873,note_on,,,,,9,0,1,,,,,,0,,68,55
55882,note_on,,,,,9,0,1,,,,,,0,,70,0
55888,note_on,,,,,6,0,1,,,,,,0,,63,0
55898,set_tempo,,,,,44,1,0,,379747,,,,,,,
55902,note_on,,,,,14,0,1,,,,,,0,,68,0
55910,note_on,,,,,8,0,1,,,,,,0,,65,57
55912,note_on,,,,,2,0,1,,,,,,0,,58,57
55926,control_change,,,,,14,0,1,,,,64,0,0,,,
55935,note_on,,,,,9,0,1,,,,,,0,,65,0
55940,set_tempo,,,,,42,1,0,,382166,,,,,,,
55944,note_on,,,,,9,0,1,,,,,,0,,68,57
55946,control_change,,,,,2,0,1,,,,64,127,0,,,
55965,note_on,,,,,19,0,1,,,,,,0,,61,57
55968,note_on,,,,,3,0,1,,,,,,0,,58,0
55984,set_tempo,,,,,44,1,0,,384615,,,,,,,
55984,note_on,,,,,16,0,1,,,,,,0,,66,57
55988,note_on,,,,,4,0,1,,,,,,0,,68,0
56009,note_on,,,,,21,0,1,,,,,,0,,61,0
56010,note_on,,,,,1,0,1,,,,,,0,,66,0
56014,control_change,,,,,4,0,1,,,,64,0,0,,,
56021,note_on,,,,,7,0,1,,,,,,0,,56,57
56023,note_on,,,,,2,0,1,,,,,,0,,64,57
56028,set_tempo,,,,,44,1,0,,387097,,,,,,,
56033,control_change,,,,,10,0,1,,,,64,127,0,,,
56054,note_on,,,,,21,0,1,,,,,,0,,64,0
56057,note_on,,,,,3,0,1,,,,,,0,,66,58
56072,set_tempo,,,,,44,1,0,,389610,,,,,,,
56075,note_on,,,,,18,0,1,,,,,,0,,60,60
56098,note_on,,,,,23,0,1,,,,,,0,,56,0
56099,note_on,,,,,1,0,1,,,,,,0,,65,60
56102,note_on,,,,,3,0,1,,,,,,0,,60,0
56103,control_change,,,,,1,0,1,,,,64,0,0,,,
56104,note_on,,,,,1,0,1,,,,,,0,,66,0
56116,set_tempo,,,,,44,1,0,,392157,,,,,,,
56117,control_change,,,,,13,0,1,,,,64,127,0,,,
56125,note_on,,,,,8,0,1,,,,,,0,,65,0
56138,note_on,,,,,13,0,1,,,,,,0,,62,60
56139,note_on,,,,,1,0,1,,,,,,0,,54,60
56158,set_tempo,,,,,42,1,0,,394737,,,,,,,
56170,control_change,,,,,31,0,1,,,,64,0,0,,,
56175,note_on,,,,,5,0,1,,,,,,0,,65,62
56180,note_on,,,,,5,0,1,,,,,,0,,62,0
56190,control_change,,,,,10,0,1,,,,64,127,0,,,
56200,note_on,,,,,10,0,1,,,,,,0,,58,65
56202,set_tempo,,,,,44,1,0,,397351,,,,,,,
56211,note_on,,,,,11,0,1,,,,,,0,,54,0
56216,note_on,,,,,5,0,1,,,,,,0,,63,67
56223,note_on,,,,,7,0,1,,,,,,0,,65,0
56232,note_on,,,,,9,0,1,,,,,,0,,58,0
56244,note_on,,,,,12,0,1,,,,,,0,,63,0
56246,set_tempo,,,,,44,1,0,,400000,,,,,,,
56255,note_on,,,,,11,0,1,,,,,,0,,53,72
56261,note_on,,,,,6,0,1,,,,,,0,,60,72
56267,control_change,,,,,6,0,1,,,,64,0,0,,,
56290,note_on,,,,,23,0,1,,,,,,0,,60,0
56290,set_tempo,,,,,44,1,0,,402685,,,,,,,
56296,control_change,,,,,6,0,1,,,,64,127,0,,,
56300,note_on,,,,,4,0,1,,,,,,0,,63,75
56332,note_on,,,,,32,0,1,,,,,,0,,56,65
56334,set_tempo,,,,,44,1,0,,405405,,,,,,,
56339,note_on,,,,,7,0,1,,,,,,0,,53,0
56352,note_on,,,,,13,0,1,,,,,,0,,61,81
56363,note_on,,,,,11,0,1,,,,,,0,,63,0
56376,note_on,,,,,13,0,1,,,,,,0,,56,0
56378,set_tempo,,,,,44,1,0,,408163,,,,,,,
56398,note_on,,,,,22,0,1,,,,,,0,,52,67
56400,note_on,,,,,2,0,1,,,,,,0,,59,80
56415,note_on,,,,,15,0,1,,,,,,0,,61,0
56420,set_tempo,,,,,42,1,0,,410959,,,,,,,
56420,control_change,,,,,5,0,1,,,,64,0,0,,,
56448,control_change,,,,,28,0,1,,,,64,127,0,,,
56458,note_on,,,,,10,0,1,,,,,,0,,59,0
56460,note_on,,,,,2,0,1,,,,,,0,,61,84
56464,set_tempo,,,,,44,1,0,,413793,,,,,,,
56492,note_on,,,,,32,0,1,,,,,,0,,55,62
56494,note_on,,,,,2,0,1,,,,,,0,,52,0
56508,set_tempo,,,,,44,1,0,,416667,,,,,,,
56512,note_on,,,,,18,0,1,,,,,,0,,60,83
56528,note_on,,,,,16,0,1,,,,,,0,,55,0
56528,note_on,,,,,0,0,1,,,,,,0,,61,0
56544,note_on,,,,,16,0,1,,,,,,0,,51,84
56552,set_tempo,,,,,44,1,0,,419580,,,,,,,
56567,control_change,,,,,23,0,1,,,,64,0,0,,,
56596,set_tempo,,,,,44,1,0,,422535,,,,,,,
56608,note_on,,,,,41,0,1,,,,,,0,,54,67
56638,set_tempo,,,,,42,1,0,,425532,,,,,,,
56650,note_on,,,,,42,0,1,,,,,,0,,57,85
56679,note_on,,,,,29,0,1,,,,,,0,,60,0
56696,note_on,,,,,17,0,1,,,,,,0,,59,76
56731,note_on,,,,,35,0,1,,,,,,0,,60,82
56738,note_on,,,,,7,0,1,,,,,,0,,59,0
56767,note_on,,,,,29,0,1,,,,,,0,,61,86
56776,note_on,,,,,9,0,1,,,,,,0,,60,0
56883,control_change,,,,,107,0,1,,,,64,127,0,,,
56994,note_on,,,,,111,0,1,,,,,,0,,60,77
56998,note_on,,,,,4,0,1,,,,,,0,,61,0
57023,note_on,,,,,25,0,1,,,,,,0,,61,89
57028,note_on,,,,,5,0,1,,,,,,0,,60,0
57041,note_on,,,,,13,0,1,,,,,,0,,60,80
57042,control_change,,,,,1,0,1,,,,64,0,0,,,
57047,note_on,,,,,5,0,1,,,,,,0,,61,0
57108,control_change,,,,,61,0,1,,,,64,127,0,,,
57134,note_on,,,,,26,0,1,,,,,,0,,59,82
57143,note_on,,,,,9,0,1,,,,,,0,,60,0
57195,note_on,,,,,52,0,1,,,,,,0,,59,0
57196,note_on,,,,,1,0,1,,,,,,0,,60,89
57211,note_on,,,,,15,0,1,,,,,,0,,60,0
57223,note_on,,,,,12,0,1,,,,,,0,,57,0
57225,note_on,,,,,2,0,1,,,,,,0,,60,78
57235,note_on,,,,,10,0,1,,,,,,0,,54,0
57248,note_on,,,,,13,0,1,,,,,,0,,44,92
57254,control_change,,,,,6,0,1,,,,64,0,0,,,
57256,note_on,,,,,2,0,1,,,,,,0,,51,0
57260,note_on,,,,,4,0,1,,,,,,0,,65,92
57264,note_on,,,,,4,0,1,,,,,,0,,60,0
57277,control_change,,,,,13,0,1,,,,64,127,0,,,
57300,note_on,,,,,23,0,1,,,,,,0,,54,79
57320,note_on,,,,,20,0,1,,,,,,0,,44,0
57375,note_on,,,,,55,0,1,,,,,,0,,60,72
57457,note_on,,,,,82,0,1,,,,,,0,,60,0
57474,note_on,,,,,17,0,1,,,,,,0,,54,0
57475,set_tempo,,,,,837,1,0,,425532,,,,,,,
57479,set_tempo,,,,,4,1,0,,428571,,,,,,,
57483,set_tempo,,,,,4,1,0,,431655,,,,,,,
57487,set_tempo,,,,,4,1,0,,434783,,,,,,,
57491,set_tempo,,,,,4,1,0,,437956,,,,,,,
57495,set_tempo,,,,,4,1,0,,441176,,,,,,,
57499,set_tempo,,,,,4,1,0,,444444,,,,,,,
57503,set_tempo,,,,,4,1,0,,447761,,,,,,,
57507,set_tempo,,,,,4,1,0,,451128,,,,,,,
57511,set_tempo,,,,,4,1,0,,454545,,,,,,,
57513,set_tempo,,,,,2,1,0,,458015,,,,,,,
57517,set_tempo,,,,,4,1,0,,461538,,,,,,,
57521,set_tempo,,,,,4,1,0,,465116,,,,,,,
57525,set_tempo,,,,,4,1,0,,468750,,,,,,,
57529,set_tempo,,,,,4,1,0,,472441,,,,,,,
57533,set_tempo,,,,,4,1,0,,476190,,,,,,,
57537,set_tempo,,,,,4,1,0,,480000,,,,,,,
57541,set_tempo,,,,,4,1,0,,483871,,,,,,,
57545,set_tempo,,,,,4,1,0,,487805,,,,,,,
57547,set_tempo,,,,,2,1,0,,491803,,,,,,,
57551,set_tempo,,,,,4,1,0,,495868,,,,,,,
57555,set_tempo,,,,,4,1,0,,500000,,,,,,,
57559,set_tempo,,,,,4,1,0,,504202,,,,,,,
57563,set_tempo,,,,,4,1,0,,508475,,,,,,,
57567,set_tempo,,,,,4,1,0,,512821,,,,,,,
57571,set_tempo,,,,,4,1,0,,517241,,,,,,,
57575,set_tempo,,,,,4,1,0,,521739,,,,,,,
57579,set_tempo,,,,,4,1,0,,526316,,,,,,,
57581,set_tempo,,,,,2,1,0,,530973,,,,,,,
57585,set_tempo,,,,,4,1,0,,535714,,,,,,,
57589,set_tempo,,,,,4,1,0,,540541,,,,,,,
57593,set_tempo,,,,,4,1,0,,545455,,,,,,,
57597,set_tempo,,,,,4,1,0,,550459,,,,,,,
57601,set_tempo,,,,,4,1,0,,555556,,,,,,,
57605,set_tempo,,,,,4,1,0,,560748,,,,,,,
57609,set_tempo,,,,,4,1,0,,566038,,,,,,,
57613,set_tempo,,,,,4,1,0,,571429,,,,,,,
57617,set_tempo,,,,,4,1,0,,576923,,,,,,,
57619,set_tempo,,,,,2,1,0,,582524,,,,,,,
57623,set_tempo,,,,,4,1,0,,588235,,,,,,,
57627,set_tempo,,,,,4,1,0,,594059,,,,,,,
57631,set_tempo,,,,,4,1,0,,600000,,,,,,,
57635,set_tempo,,,,,4,1,0,,606061,,,,,,,
57639,set_tempo,,,,,4,1,0,,612245,,,,,,,
57643,set_tempo,,,,,4,1,0,,618557,,,,,,,
57647,set_tempo,,,,,4,1,0,,625000,,,,,,,
57651,set_tempo,,,,,4,1,0,,631579,,,,,,,
57652,note_on,,,,,178,0,1,,,,,,0,,63,65
57653,set_tempo,,,,,2,1,0,,638298,,,,,,,
57657,set_tempo,,,,,4,1,0,,645161,,,,,,,
57661,set_tempo,,,,,4,1,0,,652174,,,,,,,
57665,set_tempo,,,,,4,1,0,,659341,,,,,,,
57666,note_on,,,,,14,0,1,,,,,,0,,65,0
57669,set_tempo,,,,,4,1,0,,666667,,,,,,,
57673,set_tempo,,,,,4,1,0,,674157,,,,,,,
57675,control_change,,,,,9,0,1,,,,64,0,0,,,
57677,set_tempo,,,,,4,1,0,,681818,,,,,,,
57681,set_tempo,,,,,4,1,0,,689655,,,,,,,
57684,note_on,,,,,9,0,1,,,,,,0,,37,85
57685,set_tempo,,,,,4,1,0,,697674,,,,,,,
57687,set_tempo,,,,,2,1,0,,705882,,,,,,,
57691,set_tempo,,,,,4,1,0,,714286,,,,,,,
57695,set_tempo,,,,,4,1,0,,722892,,,,,,,
57699,set_tempo,,,,,4,1,0,,731707,,,,,,,
57702,control_change,,,,,18,0,1,,,,67,127,0,,,
57702,control_change,,,,,0,0,1,,,,64,127,0,,,
57703,set_tempo,,,,,4,1,0,,740741,,,,,,,
57705,note_on,,,,,3,0,1,,,,,,0,,37,0
57707,set_tempo,,,,,4,1,0,,750000,,,,,,,
57711,set_tempo,,,,,4,1,0,,759494,,,,,,,
57715,set_tempo,,,,,4,1,0,,769231,,,,,,,
57717,note_on,,,,,12,0,1,,,,,,0,,53,86
57717,set_tempo,,,,,2,1,0,,779221,,,,,,,
57719,set_tempo,,,,,2,1,0,,759494,,,,,,,
57721,set_tempo,,,,,2,1,0,,731707,,,,,,,
57723,note_on,,,,,0,0,1,,,,,,0,,61,67
57723,note_on,,,,,6,0,1,,,,,,0,,63,0
57723,set_tempo,,,,,2,1,0,,714286,,,,,,,
57725,set_tempo,,,,,2,1,0,,689655,,,,,,,
57727,set_tempo,,,,,2,1,0,,674157,,,,,,,
57729,set_tempo,,,,,2,1,0,,652174,,,,,,,
57731,set_tempo,,,,,2,1,0,,631579,,,,,,,
57732,note_on,,,,,9,0,1,,,,,,0,,53,0
57733,set_tempo,,,,,2,1,0,,618557,,,,,,,
57735,set_tempo,,,,,2,1,0,,600000,,,,,,,
57737,set_tempo,,,,,2,1,0,,588235,,,,,,,
57739,set_tempo,,,,,2,1,0,,571429,,,,,,,
57741,set_tempo,,,,,2,1,0,,560748,,,,,,,
57743,set_tempo,,,,,2,1,0,,545455,,,,,,,
57745,set_tempo,,,,,2,1,0,,530973,,,,,,,
57746,note_on,,,,,14,0,1,,,,,,0,,61,0
57747,set_tempo,,,,,2,1,0,,526316,,,,,,,
57755,set_tempo,,,,,8,1,0,,521739,,,,,,,
57756,note_on,,,,,10,0,1,,,,,,0,,56,63
57761,set_tempo,,,,,6,1,0,,517241,,,,,,,
57769,set_tempo,,,,,8,1,0,,512821,,,,,,,
57775,set_tempo,,,,,6,1,0,,508475,,,,,,,
57780,note_on,,,,,24,0,1,,,,,,0,,61,57
57783,set_tempo,,,,,8,1,0,,504202,,,,,,,
57785,note_on,,,,,5,0,1,,,,,,0,,56,0
57789,set_tempo,,,,,6,1,0,,500000,,,,,,,
57797,set_tempo,,,,,8,1,0,,495868,,,,,,,
57803,set_tempo,,,,,6,1,0,,491803,,,,,,,
57811,note_on,,,,,26,0,1,,,,,,0,,68,75
57811,set_tempo,,,,,8,1,0,,487805,,,,,,,
57817,set_tempo,,,,,6,1,0,,483871,,,,,,,
57818,note_on,,,,,7,0,1,,,,,,0,,61,0
57823,set_tempo,,,,,6,1,0,,480000,,,,,,,
57842,note_on,,,,,24,0,1,,,,,,0,,63,53
57851,note_on,,,,,9,0,1,,,,,,0,,68,0
57873,note_on,,,,,22,0,1,,,,,,0,,61,54
57899,note_on,,,,,26,0,1,,,,,,0,,68,71
57900,note_on,,,,,1,0,1,,,,,,0,,61,0
57902,note_on,,,,,2,0,1,,,,,,0,,63,0
57917,note_on,,,,,15,0,1,,,,,,0,,68,0
57928,note_on,,,,,11,0,1,,,,,,0,,61,65
57956,note_on,,,,,28,0,1,,,,,,0,,68,65
57961,note_on,,,,,5,0,1,,,,,,0,,61,0
57988,note_on,,,,,27,0,1,,,,,,0,,73,65
57991,note_on,,,,,3,0,1,,,,,,0,,68,0
58016,note_on,,,,,25,0,1,,,,,,0,,70,65
58023,note_on,,,,,7,0,1,,,,,,0,,73,0
58042,note_on,,,,,19,0,1,,,,,,0,,68,59
58062,note_on,,,,,20,0,1,,,,,,0,,68,0
58062,note_on,,,,,0,0,1,,,,,,0,,70,0
58068,note_on,,,,,6,0,1,,,,,,0,,73,54
58087,note_on,,,,,19,0,1,,,,,,0,,73,0
58094,note_on,,,,,7,0,1,,,,,,0,,68,68
58124,note_on,,,,,30,0,1,,,,,,0,,73,61
58130,note_on,,,,,6,0,1,,,,,,0,,68,0
58155,note_on,,,,,25,0,1,,,,,,0,,80,79
58160,note_on,,,,,5,0,1,,,,,,0,,73,0
58188,note_on,,,,,28,0,1,,,,,,0,,75,53
58214,note_on,,,,,26,0,1,,,,,,0,,73,54
58217,note_on,,,,,3,0,1,,,,,,0,,75,0
58222,note_on,,,,,5,0,1,,,,,,0,,80,0
58238,note_on,,,,,16,0,1,,,,,,0,,73,0
58244,note_on,,,,,6,0,1,,,,,,0,,68,65
58272,note_on,,,,,28,0,1,,,,,,0,,75,53
58282,note_on,,,,,10,0,1,,,,,,0,,68,0
58297,note_on,,,,,15,0,1,,,,,,0,,73,59
58326,note_on,,,,,29,0,1,,,,,,0,,80,69
58330,note_on,,,,,4,0,1,,,,,,0,,73,0
58330,note_on,,,,,0,0,1,,,,,,0,,75,0
58358,note_on,,,,,28,0,1,,,,,,0,,75,59
58382,note_on,,,,,0,0,1,,,,,,0,,73,57
58382,note_on,,,,,24,0,1,,,,,,0,,75,0
58403,note_on,,,,,21,0,1,,,,,,0,,73,0
58405,note_on,,,,,2,0,1,,,,,,0,,68,65
58420,note_on,,,,,15,0,1,,,,,,0,,80,0
58434,control_change,,,,,14,0,1,,,,64,0,0,,,
58439,note_on,,,,,5,0,1,,,,,,0,,75,56
58448,note_on,,,,,9,0,1,,,,,,0,,68,0
58454,note_on,,,,,6,0,1,,,,,,0,,72,61
58458,note_on,,,,,4,0,1,,,,,,0,,49,57
58462,control_change,,,,,4,0,1,,,,64,127,0,,,
58471,note_on,,,,,9,0,1,,,,,,0,,75,0
58481,note_on,,,,,10,0,1,,,,,,0,,49,0
58490,note_on,,,,,9,0,1,,,,,,0,,77,69
58492,note_on,,,,,2,0,1,,,,,,0,,80,81
58494,note_on,,,,,2,0,1,,,,,,0,,66,74
58500,note_on,,,,,6,0,1,,,,,,0,,72,0
58524,note_on,,,,,24,0,1,,,,,,0,,75,62
58554,note_on,,,,,30,0,1,,,,,,0,,72,51
58562,note_on,,,,,8,0,1,,,,,,0,,75,0
58573,note_on,,,,,11,0,1,,,,,,0,,72,0
58576,note_on,,,,,3,0,1,,,,,,0,,68,67
58595,note_on,,,,,19,0,1,,,,,,0,,80,0
58598,note_on,,,,,3,0,1,,,,,,0,,77,0
58604,note_on,,,,,6,0,1,,,,,,0,,75,57
58619,note_on,,,,,15,0,1,,,,,,0,,68,0
58634,note_on,,,,,15,0,1,,,,,,0,,72,49
58659,note_on,,,,,25,0,1,,,,,,0,,75,0
58660,note_on,,,,,1,0,1,,,,,,0,,80,70
58662,note_on,,,,,2,0,1,,,,,,0,,77,62
58664,note_on,,,,,2,0,1,,,,,,0,,65,57
58666,note_on,,,,,2,0,1,,,,,,0,,66,0
58672,note_on,,,,,6,0,1,,,,,,0,,72,0
58674,control_change,,,,,2,0,1,,,,64,0,0,,,
58690,note_on,,,,,16,0,1,,,,,,0,,75,60
58701,control_change,,,,,11,0,1,,,,64,127,0,,,
58719,note_on,,,,,18,0,1,,,,,,0,,72,56
58726,control_change,,,,,7,0,1,,,,64,0,0,,,
58733,note_on,,,,,7,0,1,,,,,,0,,75,0
58740,control_change,,,,,0,0,1,,,,64,127,0,,,
58740,note_on,,,,,7,0,1,,,,,,0,,62,56
58744,note_on,,,,,4,0,1,,,,,,0,,65,0
58746,note_on,,,,,0,0,1,,,,,,0,,68,76
58746,note_on,,,,,2,0,1,,,,,,0,,72,0
58762,note_on,,,,,16,0,1,,,,,,0,,80,0
58766,note_on,,,,,4,0,1,,,,,,0,,77,0
58768,control_change,,,,,2,0,1,,,,64,0,0,,,
58769,control_change,,,,,1,0,1,,,,64,127,0,,,
58777,note_on,,,,,8,0,1,,,,,,0,,75,65
58782,note_on,,,,,5,0,1,,,,,,0,,62,0
58795,note_on,,,,,13,0,1,,,,,,0,,68,0
58795,control_change,,,,,0,0,1,,,,64,0,0,,,
58800,note_on,,,,,5,0,1,,,,,,0,,65,56
58804,note_on,,,,,4,0,1,,,,,,0,,72,47
58816,control_change,,,,,12,0,1,,,,64,127,0,,,
58825,note_on,,,,,9,0,1,,,,,,0,,77,63
58827,note_on,,,,,2,0,1,,,,,,0,,75,0
58827,note_on,,,,,0,0,1,,,,,,0,,63,67
58828,note_on,,,,,1,0,1,,,,,,0,,80,72
58844,note_on,,,,,16,0,1,,,,,,0,,72,0
58848,control_change,,,,,4,0,1,,,,64,0,0,,,
58854,note_on,,,,,6,0,1,,,,,,0,,65,0
58857,note_on,,,,,3,0,1,,,,,,0,,75,67
58860,control_change,,,,,3,0,1,,,,64,127,0,,,
58885,control_change,,,,,25,0,1,,,,64,0,0,,,
58888,set_tempo,,,,,1065,1,0,,483871,,,,,,,
58891,note_on,,,,,6,0,1,,,,,,0,,72,53
58894,control_change,,,,,3,0,1,,,,64,127,0,,,
58900,note_on,,,,,6,0,1,,,,,,0,,63,0
58903,note_on,,,,,3,0,1,,,,,,0,,75,0
58904,set_tempo,,,,,16,1,0,,487805,,,,,,,
58907,note_on,,,,,4,0,1,,,,,,0,,60,58
58912,note_on,,,,,5,0,1,,,,,,0,,68,69
58917,note_on,,,,,5,0,1,,,,,,0,,72,0
58920,set_tempo,,,,,16,1,0,,491803,,,,,,,
58928,control_change,,,,,11,0,1,,,,64,0,0,,,
58936,set_tempo,,,,,16,1,0,,495868,,,,,,,
58936,note_on,,,,,8,0,1,,,,,,0,,75,56
58939,control_change,,,,,0,0,1,,,,64,127,0,,,
58939,note_on,,,,,3,0,1,,,,,,0,,80,0
58940,note_on,,,,,1,0,1,,,,,,0,,77,0
58952,set_tempo,,,,,16,1,0,,500000,,,,,,,
58960,note_on,,,,,20,0,1,,,,,,0,,68,0
58967,note_on,,,,,7,0,1,,,,,,0,,72,51
58968,set_tempo,,,,,16,1,0,,504202,,,,,,,
58970,control_change,,,,,3,0,1,,,,64,0,0,,,
58984,set_tempo,,,,,16,1,0,,508475,,,,,,,
58988,control_change,,,,,18,0,1,,,,64,127,0,,,
58990,note_on,,,,,0,0,1,,,,,,0,,60,0
58990,note_on,,,,,2,0,1,,,,,,0,,75,0
58992,note_on,,,,,2,0,1,,,,,,0,,77,61
58994,note_on,,,,,2,0,1,,,,,,0,,80,65
58995,note_on,,,,,1,0,1,,,,,,0,,58,59
59000,set_tempo,,,,,16,1,0,,512821,,,,,,,
59010,note_on,,,,,15,0,1,,,,,,0,,72,0
59016,set_tempo,,,,,16,1,0,,517241,,,,,,,
59023,note_on,,,,,13,0,1,,,,,,0,,75,56
59032,set_tempo,,,,,16,1,0,,521739,,,,,,,
59048,set_tempo,,,,,16,1,0,,526316,,,,,,,
59052,note_on,,,,,29,0,1,,,,,,0,,72,51
59064,set_tempo,,,,,16,1,0,,530973,,,,,,,
59069,note_on,,,,,17,0,1,,,,,,0,,75,0
59070,set_tempo,,,,,6,1,0,,526316,,,,,,,
59072,note_on,,,,,3,0,1,,,,,,0,,58,0
59076,control_change,,,,,4,0,1,,,,64,0,0,,,
59077,note_on,,,,,1,0,1,,,,,,0,,55,60
59078,note_on,,,,,1,0,1,,,,,,0,,68,72
59080,note_on,,,,,2,0,1,,,,,,0,,72,0
59086,set_tempo,,,,,16,1,0,,521739,,,,,,,
59097,note_on,,,,,17,0,1,,,,,,0,,77,0
59099,note_on,,,,,2,0,1,,,,,,0,,80,0
59102,set_tempo,,,,,16,1,0,,517241,,,,,,,
59105,note_on,,,,,6,0,1,,,,,,0,,75,56
59118,set_tempo,,,,,16,1,0,,512821,,,,,,,
59131,note_on,,,,,26,0,1,,,,,,0,,68,0
59132,set_tempo,,,,,14,1,0,,508475,,,,,,,
59136,note_on,,,,,5,0,1,,,,,,0,,73,57
59148,set_tempo,,,,,16,1,0,,504202,,,,,,,
59162,set_tempo,,,,,14,1,0,,508475,,,,,,,
59163,note_on,,,,,27,0,1,,,,,,0,,80,75
59164,note_on,,,,,1,0,1,,,,,,0,,77,64
59167,note_on,,,,,3,0,1,,,,,,0,,56,79
59170,set_tempo,,,,,8,1,0,,504202,,,,,,,
59170,note_on,,,,,3,0,1,,,,,,0,,75,0
59171,note_on,,,,,1,0,1,,,,,,0,,73,0
59177,note_on,,,,,6,0,1,,,,,,0,,55,0
59178,set_tempo,,,,,8,1,0,,500000,,,,,,,
59184,control_change,,,,,7,0,1,,,,64,127,0,,,
59186,set_tempo,,,,,8,1,0,,495868,,,,,,,
59194,set_tempo,,,,,8,1,0,,491803,,,,,,,
59194,note_on,,,,,10,0,1,,,,,,0,,75,67
59202,set_tempo,,,,,8,1,0,,487805,,,,,,,
59206,control_change,,,,,12,0,1,,,,64,0,0,,,
59210,set_tempo,,,,,8,1,0,,483871,,,,,,,
59218,set_tempo,,,,,8,1,0,,480000,,,,,,,
59219,control_change,,,,,13,0,1,,,,64,127,0,,,
59220,note_on,,,,,1,0,1,,,,,,0,,73,67
59226,set_tempo,,,,,8,1,0,,476190,,,,,,,
59234,set_tempo,,,,,8,1,0,,472441,,,,,,,
59238,note_on,,,,,18,0,1,,,,,,0,,75,0
59242,set_tempo,,,,,8,1,0,,468750,,,,,,,
59244,note_on,,,,,6,0,1,,,,,,0,,68,77
59245,note_on,,,,,1,0,1,,,,,,0,,73,0
59246,note_on,,,,,1,0,1,,,,,,0,,61,63
59250,set_tempo,,,,,8,1,0,,465116,,,,,,,
59257,note_on,,,,,11,0,1,,,,,,0,,77,0
59258,set_tempo,,,,,8,1,0,,461538,,,,,,,
59266,set_tempo,,,,,8,1,0,,458015,,,,,,,
59268,note_on,,,,,11,0,1,,,,,,0,,56,0
59270,note_on,,,,,2,0,1,,,,,,0,,80,0
59271,note_on,,,,,1,0,1,,,,,,0,,75,69
59274,set_tempo,,,,,8,1,0,,454545,,,,,,,
59282,set_tempo,,,,,8,1,0,,451128,,,,,,,
59290,set_tempo,,,,,8,1,0,,447761,,,,,,,
59290,note_on,,,,,19,0,1,,,,,,0,,68,0
59298,set_tempo,,,,,8,1,0,,444444,,,,,,,
59304,note_on,,,,,14,0,1,,,,,,0,,73,67
59306,set_tempo,,,,,8,1,0,,441176,,,,,,,
59314,set_tempo,,,,,8,1,0,,437956,,,,,,,
59322,set_tempo,,,,,8,1,0,,434783,,,,,,,
59328,note_on,,,,,24,0,1,,,,,,0,,65,77
59328,note_on,,,,,0,0,1,,,,,,0,,80,71
59330,note_on,,,,,2,0,1,,,,,,0,,61,0
59330,set_tempo,,,,,8,1,0,,431655,,,,,,,
59332,note_on,,,,,2,0,1,,,,,,0,,77,57
59335,note_on,,,,,3,0,1,,,,,,0,,75,0
59336,set_tempo,,,,,6,1,0,,434783,,,,,,,
59338,note_on,,,,,3,0,1,,,,,,0,,73,0
59362,note_on,,,,,24,0,1,,,,,,0,,75,72
59386,note_on,,,,,24,0,1,,,,,,0,,65,0
59390,note_on,,,,,4,0,1,,,,,,0,,77,0
59395,note_on,,,,,5,0,1,,,,,,0,,73,56
59406,note_on,,,,,11,0,1,,,,,,0,,80,0
59406,note_on,,,,,0,0,1,,,,,,0,,75,0
59416,note_on,,,,,0,0,1,,,,,,0,,67,61
59416,note_on,,,,,10,0,1,,,,,,0,,73,0
59435,control_change,,,,,19,0,1,,,,64,0,0,,,
59442,set_tempo,,,,,106,1,0,,434783,,,,,,,
59446,note_on,,,,,11,0,1,,,,,,0,,73,69
59456,set_tempo,,,,,14,1,0,,431655,,,,,,,
59458,set_tempo,,,,,2,1,0,,434783,,,,,,,
59475,note_on,,,,,29,0,1,,,,,,0,,77,63
59477,control_change,,,,,0,0,1,,,,64,127,0,,,
59477,note_on,,,,,2,0,1,,,,,,0,,73,0
59503,note_on,,,,,26,0,1,,,,,,0,,85,87
59506,set_tempo,,,,,48,1,0,,437956,,,,,,,
59513,note_on,,,,,10,0,1,,,,,,0,,77,0
59534,note_on,,,,,21,0,1,,,,,,0,,82,74
59552,set_tempo,,,,,46,1,0,,441176,,,,,,,
59558,note_on,,,,,24,0,1,,,,,,0,,80,65
59563,note_on,,,,,5,0,1,,,,,,0,,85,0
59575,note_on,,,,,12,0,1,,,,,,0,,82,0
59584,note_on,,,,,9,0,1,,,,,,0,,80,0
59591,note_on,,,,,7,0,1,,,,,,0,,68,79
59597,note_on,,,,,6,0,1,,,,,,0,,67,0
59598,set_tempo,,,,,46,1,0,,444444,,,,,,,
59601,control_change,,,,,4,0,1,,,,64,0,0,,,
59621,note_on,,,,,20,0,1,,,,,,0,,77,64
59626,control_change,,,,,5,0,1,,,,64,127,0,,,
59643,note_on,,,,,17,0,1,,,,,,0,,80,58
59644,set_tempo,,,,,46,1,0,,447761,,,,,,,
59648,note_on,,,,,5,0,1,,,,,,0,,77,0
59679,note_on,,,,,31,0,1,,,,,,0,,89,71
59680,note_on,,,,,1,0,1,,,,,,0,,80,0
59709,note_on,,,,,29,0,1,,,,,,0,,85,67
59729,note_on,,,,,20,0,1,,,,,,0,,89,0
59735,note_on,,,,,6,0,1,,,,,,0,,82,75
59747,note_on,,,,,12,0,1,,,,,,0,,85,0
59753,note_on,,,,,6,0,1,,,,,,0,,82,0
59766,note_on,,,,,13,0,1,,,,,,0,,80,70
59799,note_on,,,,,33,0,1,,,,,,0,,87,75
59816,note_on,,,,,17,0,1,,,,,,0,,80,0
59817,control_change,,,,,1,0,1,,,,64,0,0,,,
59824,note_on,,,,,7,0,1,,,,,,0,,61,70
59828,note_on,,,,,4,0,1,,,,,,0,,84,55
59833,note_on,,,,,5,0,1,,,,,,0,,68,0
59846,note_on,,,,,13,0,1,,,,,,0,,61,0
59847,control_change,,,,,1,0,1,,,,64,127,0,,,
59862,note_on,,,,,15,0,1,,,,,,0,,89,74
59865,note_on,,,,,0,0,1,,,,,,0,,78,78
59865,note_on,,,,,3,0,1,,,,,,0,,92,80
59869,note_on,,,,,4,0,1,,,,,,0,,87,0
59873,note_on,,,,,4,0,1,,,,,,0,,84,0
59898,note_on,,,,,25,0,1,,,,,,0,,87,74
59929,note_on,,,,,31,0,1,,,,,,0,,84,62
59934,note_on,,,,,5,0,1,,,,,,0,,89,0
59936,note_on,,,,,2,0,1,,,,,,0,,92,0
59939,note_on,,,,,3,0,1,,,,,,0,,87,0
59950,note_on,,,,,11,0,1,,,,,,0,,84,0
59952,note_on,,,,,2,0,1,,,,,,0,,80,59
59979,note_on,,,,,27,0,1,,,,,,0,,87,66
59986,note_on,,,,,7,0,1,,,,,,0,,80,0
60009,note_on,,,,,23,0,1,,,,,,0,,84,58
60033,note_on,,,,,0,0,1,,,,,,0,,89,59
60033,note_on,,,,,24,0,1,,,,,,0,,87,0
60035,note_on,,,,,2,0,1,,,,,,0,,92,75
60040,note_on,,,,,0,0,1,,,,,,0,,77,65
60040,note_on,,,,,5,0,1,,,,,,0,,78,0
60045,note_on,,,,,5,0,1,,,,,,0,,84,0
60046,control_change,,,,,1,0,1,,,,64,0,0,,,
60063,note_on,,,,,17,0,1,,,,,,0,,87,65
60070,control_change,,,,,7,0,1,,,,64,127,0,,,
60092,note_on,,,,,22,0,1,,,,,,0,,84,63
60103,note_on,,,,,11,0,1,,,,,,0,,87,0
60120,control_change,,,,,0,0,1,,,,64,0,0,,,
60120,note_on,,,,,17,0,1,,,,,,0,,77,0
60121,note_on,,,,,1,0,1,,,,,,0,,84,0
60122,note_on,,,,,1,0,1,,,,,,0,,74,58
60122,set_tempo,,,,,478,1,0,,447761,,,,,,,
60122,note_on,,,,,0,0,1,,,,,,0,,80,74
60131,note_on,,,,,9,0,1,,,,,,0,,92,0
60133,control_change,,,,,2,0,1,,,,64,127,0,,,
60137,note_on,,,,,4,0,1,,,,,,0,,89,0
60147,note_on,,,,,10,0,1,,,,,,0,,87,71
60162,note_on,,,,,15,0,1,,,,,,0,,77,51
60163,note_on,,,,,1,0,1,,,,,,0,,80,0
60172,note_on,,,,,9,0,1,,,,,,0,,74,0
60173,note_on,,,,,1,0,1,,,,,,0,,84,64
60174,control_change,,,,,1,0,1,,,,64,0,0,,,
60182,set_tempo,,,,,60,1,0,,451128,,,,,,,
60191,control_change,,,,,17,0,1,,,,64,127,0,,,
60194,note_on,,,,,3,0,1,,,,,,0,,89,62
60196,note_on,,,,,2,0,1,,,,,,0,,87,0
60197,note_on,,,,,1,0,1,,,,,,0,,92,71
60201,note_on,,,,,4,0,1,,,,,,0,,75,68
60209,note_on,,,,,8,0,1,,,,,,0,,77,0
60214,note_on,,,,,5,0,1,,,,,,0,,84,0
60225,note_on,,,,,11,0,1,,,,,,0,,87,77
60242,set_tempo,,,,,60,1,0,,454545,,,,,,,
60255,note_on,,,,,30,0,1,,,,,,0,,84,63
60266,note_on,,,,,11,0,1,,,,,,0,,75,0
60270,note_on,,,,,4,0,1,,,,,,0,,87,0
60274,control_change,,,,,4,0,1,,,,64,0,0,,,
60278,note_on,,,,,4,0,1,,,,,,0,,80,69
60279,note_on,,,,,1,0,1,,,,,,0,,72,46
60281,note_on,,,,,2,0,1,,,,,,0,,84,0
60286,control_change,,,,,5,0,1,,,,64,127,0,,,
60298,note_on,,,,,12,0,1,,,,,,0,,92,0
60302,note_on,,,,,4,0,1,,,,,,0,,87,67
60302,set_tempo,,,,,60,1,0,,458015,,,,,,,
60303,note_on,,,,,1,0,1,,,,,,0,,89,0
60332,note_on,,,,,29,0,1,,,,,,0,,80,0
60336,note_on,,,,,4,0,1,,,,,,0,,84,61
60360,set_tempo,,,,,58,1,0,,461538,,,,,,,
60362,note_on,,,,,26,0,1,,,,,,0,,66,65
60364,note_on,,,,,2,0,1,,,,,,0,,87,0
60364,control_change,,,,,0,0,1,,,,64,0,0,,,
60366,note_on,,,,,0,0,1,,,,,,0,,92,71
60366,note_on,,,,,0,0,1,,,,,,0,,89,59
60366,note_on,,,,,2,0,1,,,,,,0,,72,0
60380,note_on,,,,,14,0,1,,,,,,0,,84,0
60382,control_change,,,,,2,0,1,,,,64,127,0,,,
60391,note_on,,,,,9,0,1,,,,,,0,,87,54
60416,note_on,,,,,25,0,1,,,,,,0,,84,49
60439,note_on,,,,,23,0,1,,,,,,0,,87,0
60444,note_on,,,,,5,0,1,,,,,,0,,80,66
60444,note_on,,,,,0,0,1,,,,,,0,,67,59
60449,note_on,,,,,5,0,1,,,,,,0,,84,0
60451,note_on,,,,,2,0,1,,,,,,0,,66,0
60454,control_change,,,,,3,0,1,,,,64,0,0,,,
60465,control_change,,,,,11,0,1,,,,64,127,0,,,
60468,note_on,,,,,3,0,1,,,,,,0,,92,0
60469,note_on,,,,,1,0,1,,,,,,0,,87,67
60471,note_on,,,,,2,0,1,,,,,,0,,89,0
60489,note_on,,,,,18,0,1,,,,,,0,,85,74
60496,note_on,,,,,7,0,1,,,,,,0,,80,0
60498,note_on,,,,,2,0,1,,,,,,0,,70,56
60511,note_on,,,,,13,0,1,,,,,,0,,67,0
60522,note_on,,,,,11,0,1,,,,,,0,,89,58
60523,note_on,,,,,1,0,1,,,,,,0,,92,66
60526,control_change,,,,,3,0,1,,,,64,0,0,,,
60528,note_on,,,,,2,0,1,,,,,,0,,87,0
60533,note_on,,,,,5,0,1,,,,,,0,,68,68
60536,note_on,,,,,3,0,1,,,,,,0,,70,0
60538,control_change,,,,,2,0,1,,,,64,127,0,,,
60539,note_on,,,,,1,0,1,,,,,,0,,85,0
60556,note_on,,,,,17,0,1,,,,,,0,,87,70
60584,note_on,,,,,28,0,1,,,,,,0,,85,70
60599,note_on,,,,,15,0,1,,,,,,0,,68,0
60601,note_on,,,,,2,0,1,,,,,,0,,87,0
60610,control_change,,,,,0,0,1,,,,64,0,0,,,
60610,note_on,,,,,9,0,1,,,,,,0,,80,68
60612,note_on,,,,,2,0,1,,,,,,0,,85,0
60613,note_on,,,,,1,0,1,,,,,,0,,65,65
60627,control_change,,,,,14,0,1,,,,64,127,0,,,
60628,note_on,,,,,1,0,1,,,,,,0,,89,0
60632,note_on,,,,,4,0,1,,,,,,0,,92,0
60638,note_on,,,,,6,0,1,,,,,,0,,87,75
60665,note_on,,,,,27,0,1,,,,,,0,,85,69
60672,note_on,,,,,7,0,1,,,,,,0,,80,0
60682,note_on,,,,,10,0,1,,,,,,0,,65,0
60696,note_on,,,,,14,0,1,,,,,,0,,92,68
60698,note_on,,,,,2,0,1,,,,,,0,,89,55
60699,note_on,,,,,1,0,1,,,,,,0,,61,63
60700,note_on,,,,,1,0,1,,,,,,0,,87,0
60701,control_change,,,,,1,0,1,,,,64,0,0,,,
60702,note_on,,,,,1,0,1,,,,,,0,,85,0
60715,control_change,,,,,13,0,1,,,,64,127,0,,,
60717,note_on,,,,,2,0,1,,,,,,0,,87,56
60743,note_on,,,,,26,0,1,,,,,,0,,92,0
60750,note_on,,,,,7,0,1,,,,,,0,,85,66
60756,note_on,,,,,6,0,1,,,,,,0,,89,0
60770,note_on,,,,,14,0,1,,,,,,0,,87,0
60781,note_on,,,,,11,0,1,,,,,,0,,80,69
60784,note_on,,,,,3,0,1,,,,,,0,,85,0
60784,note_on,,,,,0,0,1,,,,,,0,,62,70
60804,note_on,,,,,20,0,1,,,,,,0,,61,0
60809,control_change,,,,,5,0,1,,,,64,0,0,,,
60818,note_on,,,,,9,0,1,,,,,,0,,87,64
60826,note_on,,,,,8,0,1,,,,,,0,,62,0
60840,note_on,,,,,14,0,1,,,,,,0,,65,48
60842,note_on,,,,,2,0,1,,,,,,0,,80,0
60852,note_on,,,,,10,0,1,,,,,,0,,84,71
60862,control_change,,,,,10,0,1,,,,64,127,0,,,
60872,note_on,,,,,10,0,1,,,,,,0,,63,74
60884,note_on,,,,,0,0,1,,,,,,0,,92,69
60884,note_on,,,,,12,0,1,,,,,,0,,89,69
60886,note_on,,,,,2,0,1,,,,,,0,,87,0
60888,note_on,,,,,2,0,1,,,,,,0,,65,0
60895,note_on,,,,,7,0,1,,,,,,0,,84,0
60911,note_on,,,,,16,0,1,,,,,,0,,87,67
60938,note_on,,,,,27,0,1,,,,,,0,,84,57
60954,note_on,,,,,0,0,1,,,,,,0,,63,0
60954,note_on,,,,,16,0,1,,,,,,0,,87,0
60956,note_on,,,,,2,0,1,,,,,,0,,60,64
60961,note_on,,,,,5,0,1,,,,,,0,,80,51
60962,control_change,,,,,1,0,1,,,,64,0,0,,,
60968,note_on,,,,,6,0,1,,,,,,0,,84,0
60972,control_change,,,,,4,0,1,,,,64,127,0,,,
60985,note_on,,,,,13,0,1,,,,,,0,,87,76
60986,note_on,,,,,1,0,1,,,,,,0,,92,0
60992,note_on,,,,,6,0,1,,,,,,0,,89,0
61018,note_on,,,,,26,0,1,,,,,,0,,84,61
61019,note_on,,,,,1,0,1,,,,,,0,,80,0
61039,control_change,,,,,20,0,1,,,,64,0,0,,,
61042,note_on,,,,,3,0,1,,,,,,0,,54,59
61044,note_on,,,,,2,0,1,,,,,,0,,92,69
61045,note_on,,,,,1,0,1,,,,,,0,,89,55
61046,note_on,,,,,1,0,1,,,,,,0,,87,0
61047,note_on,,,,,1,0,1,,,,,,0,,60,0
61055,note_on,,,,,8,0,1,,,,,,0,,84,0
61057,control_change,,,,,2,0,1,,,,64,127,0,,,
61066,note_on,,,,,9,0,1,,,,,,0,,87,49
61098,note_on,,,,,32,0,1,,,,,,0,,84,59
61122,note_on,,,,,24,0,1,,,,,,0,,87,0
61127,note_on,,,,,5,0,1,,,,,,0,,53,64
61132,note_on,,,,,5,0,1,,,,,,0,,80,58
61133,note_on,,,,,1,0,1,,,,,,0,,54,0
61136,note_on,,,,,3,0,1,,,,,,0,,84,0
61145,control_change,,,,,9,0,1,,,,64,0,0,,,
61162,note_on,,,,,17,0,1,,,,,,0,,87,72
61163,note_on,,,,,1,0,1,,,,,,0,,92,0
61166,note_on,,,,,3,0,1,,,,,,0,,89,0
61194,set_tempo,,,,,834,1,0,,458015,,,,,,,
61194,note_on,,,,,28,0,1,,,,,,0,,85,65
61196,set_tempo,,,,,2,1,0,,461538,,,,,,,
61197,note_on,,,,,3,0,1,,,,,,0,,80,0
61212,note_on,,,,,15,0,1,,,,,,0,,92,71
61214,set_tempo,,,,,18,1,0,,458015,,,,,,,
61216,note_on,,,,,0,0,1,,,,,,0,,56,74
61216,note_on,,,,,4,0,1,,,,,,0,,89,66
61217,control_change,,,,,1,0,1,,,,64,127,0,,,
61221,note_on,,,,,4,0,1,,,,,,0,,85,0
61224,note_on,,,,,3,0,1,,,,,,0,,87,0
61230,set_tempo,,,,,16,1,0,,454545,,,,,,,
61239,note_on,,,,,15,0,1,,,,,,0,,87,75
61246,set_tempo,,,,,16,1,0,,451128,,,,,,,
61248,note_on,,,,,9,0,1,,,,,,0,,53,0
61262,set_tempo,,,,,16,1,0,,447761,,,,,,,
61273,note_on,,,,,25,0,1,,,,,,0,,85,75
61278,set_tempo,,,,,16,1,0,,444444,,,,,,,
61284,set_tempo,,,,,6,1,0,,444444,,,,,,,
61292,note_on,,,,,19,0,1,,,,,,0,,87,0
61292,note_on,,,,,0,0,1,,,,,,0,,61,69
61297,control_change,,,,,5,0,1,,,,64,0,0,,,
61298,note_on,,,,,1,0,1,,,,,,0,,80,77
61301,note_on,,,,,3,0,1,,,,,,0,,85,0
61307,control_change,,,,,6,0,1,,,,64,127,0,,,
61309,note_on,,,,,2,0,1,,,,,,0,,56,0
61310,set_tempo,,,,,26,1,0,,444444,,,,,,,
61320,note_on,,,,,11,0,1,,,,,,0,,89,0
61322,note_on,,,,,2,0,1,,,,,,0,,87,72
61325,note_on,,,,,3,0,1,,,,,,0,,92,0
61354,note_on,,,,,29,0,1,,,,,,0,,80,0
61355,note_on,,,,,1,0,1,,,,,,0,,85,62
61376,note_on,,,,,21,0,1,,,,,,0,,89,64
61376,note_on,,,,,0,0,1,,,,,,0,,63,70
61376,control_change,,,,,0,0,1,,,,64,0,0,,,
61377,note_on,,,,,1,0,1,,,,,,0,,92,78
61378,note_on,,,,,1,0,1,,,,,,0,,61,0
61383,note_on,,,,,5,0,1,,,,,,0,,87,0
61384,note_on,,,,,1,0,1,,,,,,0,,85,0
61396,control_change,,,,,12,0,1,,,,64,127,0,,,
61396,set_tempo,,,,,86,1,0,,441176,,,,,,,
61403,note_on,,,,,7,0,1,,,,,,0,,87,67
61430,note_on,,,,,27,0,1,,,,,,0,,85,56
61448,note_on,,,,,18,0,1,,,,,,0,,87,0
61456,note_on,,,,,8,0,1,,,,,,0,,80,69
61458,note_on,,,,,2,0,1,,,,,,0,,85,0
61464,note_on,,,,,6,0,1,,,,,,0,,64,70
61465,control_change,,,,,1,0,1,,,,64,0,0,,,
61476,note_on,,,,,11,0,1,,,,,,0,,63,0
61481,note_on,,,,,5,0,1,,,,,,0,,87,58
61482,set_tempo,,,,,86,1,0,,437956,,,,,,,
61485,note_on,,,,,4,0,1,,,,,,0,,89,0
61490,note_on,,,,,5,0,1,,,,,,0,,92,0
61517,note_on,,,,,27,0,1,,,,,,0,,85,63
61522,note_on,,,,,5,0,1,,,,,,0,,80,0
61550,note_on,,,,,28,0,1,,,,,,0,,92,65
61552,note_on,,,,,2,0,1,,,,,,0,,89,53
61554,note_on,,,,,2,0,1,,,,,,0,,85,0
61554,control_change,,,,,0,0,1,,,,64,127,0,,,
61556,note_on,,,,,2,0,1,,,,,,0,,87,0
61568,set_tempo,,,,,86,1,0,,434783,,,,,,,
61576,note_on,,,,,20,0,1,,,,,,0,,87,53
61610,note_on,,,,,34,0,1,,,,,,0,,85,57
61617,note_on,,,,,7,0,1,,,,,,0,,89,0
61622,note_on,,,,,5,0,1,,,,,,0,,87,0
61631,note_on,,,,,9,0,1,,,,,,0,,85,0
61631,note_on,,,,,0,0,1,,,,,,0,,80,51
61635,note_on,,,,,4,0,1,,,,,,0,,64,0
61640,note_on,,,,,5,0,1,,,,,,0,,65,69
61646,control_change,,,,,6,0,1,,,,64,0,0,,,
61652,note_on,,,,,6,0,1,,,,,,0,,92,0
61654,set_tempo,,,,,86,1,0,,431655,,,,,,,
61661,note_on,,,,,9,0,1,,,,,,0,,87,67
61663,control_change,,,,,2,0,1,,,,64,127,0,,,
61691,note_on,,,,,28,0,1,,,,,,0,,85,57
61701,note_on,,,,,10,0,1,,,,,,0,,80,0
61714,control_change,,,,,13,0,1,,,,64,0,0,,,
61719,note_on,,,,,5,0,1,,,,,,0,,92,68
61720,note_on,,,,,1,0,1,,,,,,0,,89,49
61722,note_on,,,,,2,0,1,,,,,,0,,87,0
61723,note_on,,,,,1,0,1,,,,,,0,,61,60
61725,note_on,,,,,2,0,1,,,,,,0,,85,0
61728,note_on,,,,,3,0,1,,,,,,0,,65,0
61733,control_change,,,,,5,0,1,,,,64,127,0,,,
61740,set_tempo,,,,,86,1,0,,428571,,,,,,,
61745,note_on,,,,,12,0,1,,,,,,0,,87,65
61780,note_on,,,,,35,0,1,,,,,,0,,85,68
61790,set_tempo,,,,,50,1,0,,428571,,,,,,,
61792,note_on,,,,,12,0,1,,,,,,0,,87,0
61800,note_on,,,,,8,0,1,,,,,,0,,80,65
61801,control_change,,,,,1,0,1,,,,64,0,0,,,
61803,note_on,,,,,2,0,1,,,,,,0,,85,0
61810,note_on,,,,,7,0,1,,,,,,0,,58,60
61812,control_change,,,,,2,0,1,,,,64,127,0,,,
61818,note_on,,,,,6,0,1,,,,,,0,,92,0
61818,note_on,,,,,0,0,1,,,,,,0,,89,0
61826,note_on,,,,,8,0,1,,,,,,0,,87,67
61860,note_on,,,,,34,0,1,,,,,,0,,85,68
61862,note_on,,,,,2,0,1,,,,,,0,,80,0
61873,note_on,,,,,11,0,1,,,,,,0,,61,0
61884,note_on,,,,,11,0,1,,,,,,0,,58,0
61884,note_on,,,,,0,0,1,,,,,,0,,56,72
61884,note_on,,,,,0,0,1,,,,,,0,,92,76
61885,note_on,,,,,1,0,1,,,,,,0,,89,66
61887,note_on,,,,,2,0,1,,,,,,0,,85,0
61891,note_on,,,,,4,0,1,,,,,,0,,87,0
61891,control_change,,,,,0,0,1,,,,64,0,0,,,
61908,control_change,,,,,17,0,1,,,,64,127,0,,,
61912,note_on,,,,,4,0,1,,,,,,0,,87,67
61942,note_on,,,,,30,0,1,,,,,,0,,85,74
61962,note_on,,,,,20,0,1,,,,,,0,,87,0
61968,note_on,,,,,0,0,1,,,,,,0,,61,71
61968,note_on,,,,,6,0,1,,,,,,0,,80,78
61970,note_on,,,,,2,0,1,,,,,,0,,85,0
61970,control_change,,,,,0,0,1,,,,64,0,0,,,
61977,control_change,,,,,7,0,1,,,,64,127,0,,,
61991,note_on,,,,,14,0,1,,,,,,0,,87,71
61992,note_on,,,,,1,0,1,,,,,,0,,56,0
61994,note_on,,,,,2,0,1,,,,,,0,,89,0
61996,note_on,,,,,2,0,1,,,,,,0,,92,0
62023,note_on,,,,,27,0,1,,,,,,0,,85,67
62026,note_on,,,,,3,0,1,,,,,,0,,80,0
62042,note_on,,,,,16,0,1,,,,,,0,,65,58
62043,note_on,,,,,1,0,1,,,,,,0,,61,0
62045,note_on,,,,,2,0,1,,,,,,0,,89,62
62047,note_on,,,,,2,0,1,,,,,,0,,92,75
62051,note_on,,,,,4,0,1,,,,,,0,,87,0
62054,note_on,,,,,3,0,1,,,,,,0,,85,0
62054,control_change,,,,,0,0,1,,,,64,0,0,,,
62060,control_change,,,,,6,0,1,,,,64,127,0,,,
62072,note_on,,,,,12,0,1,,,,,,0,,87,70
62102,note_on,,,,,30,0,1,,,,,,0,,85,76
62130,note_on,,,,,28,0,1,,,,,,0,,87,0
62131,note_on,,,,,1,0,1,,,,,,0,,80,77
62131,note_on,,,,,0,0,1,,,,,,0,,70,68
62136,note_on,,,,,5,0,1,,,,,,0,,85,0
62138,note_on,,,,,2,0,1,,,,,,0,,65,0
62149,control_change,,,,,11,0,1,,,,64,0,0,,,
62153,note_on,,,,,4,0,1,,,,,,0,,89,0
62158,note_on,,,,,5,0,1,,,,,,0,,87,77
62162,note_on,,,,,4,0,1,,,,,,0,,92,0
62187,control_change,,,,,25,0,1,,,,64,127,0,,,
62196,note_on,,,,,0,0,1,,,,,,0,,85,61
62196,note_on,,,,,9,0,1,,,,,,0,,80,0
62225,note_on,,,,,29,0,1,,,,,,0,,92,75
62226,note_on,,,,,1,0,1,,,,,,0,,89,65
62228,note_on,,,,,2,0,1,,,,,,0,,85,0
62234,note_on,,,,,6,0,1,,,,,,0,,87,0
62252,note_on,,,,,18,0,1,,,,,,0,,87,59
62281,note_on,,,,,29,0,1,,,,,,0,,85,54
62300,note_on,,,,,19,0,1,,,,,,0,,87,0
62308,note_on,,,,,8,0,1,,,,,,0,,85,0
62309,note_on,,,,,0,0,1,,,,,,0,,80,66
62309,note_on,,,,,1,0,1,,,,,,0,,68,63
62320,control_change,,,,,11,0,1,,,,64,0,0,,,
62333,control_change,,,,,0,0,1,,,,64,127,0,,,
62333,note_on,,,,,13,0,1,,,,,,0,,89,0
62334,note_on,,,,,1,0,1,,,,,,0,,87,62
62342,note_on,,,,,8,0,1,,,,,,0,,92,0
62350,note_on,,,,,8,0,1,,,,,,0,,70,0
62362,note_on,,,,,0,0,1,,,,,,0,,85,67
62362,note_on,,,,,12,0,1,,,,,,0,,80,0
62390,note_on,,,,,0,0,1,,,,,,0,,92,74
62390,note_on,,,,,28,0,1,,,,,,0,,68,0
62392,note_on,,,,,2,0,1,,,,,,0,,65,67
62393,note_on,,,,,1,0,1,,,,,,0,,89,63
62394,control_change,,,,,1,0,1,,,,64,0,0,,,
62395,note_on,,,,,1,0,1,,,,,,0,,87,0
62396,note_on,,,,,1,0,1,,,,,,0,,85,0
62402,control_change,,,,,6,0,1,,,,64,127,0,,,
62414,note_on,,,,,12,0,1,,,,,,0,,87,60
62442,note_on,,,,,28,0,1,,,,,,0,,85,70
62456,note_on,,,,,14,0,1,,,,,,0,,89,0
62460,note_on,,,,,4,0,1,,,,,,0,,87,0
62466,note_on,,,,,6,0,1,,,,,,0,,80,76
62470,note_on,,,,,4,0,1,,,,,,0,,85,0
62471,note_on,,,,,1,0,1,,,,,,0,,61,61
62478,control_change,,,,,7,0,1,,,,64,0,0,,,
62481,note_on,,,,,3,0,1,,,,,,0,,65,0
62492,note_on,,,,,11,0,1,,,,,,0,,92,0
62493,control_change,,,,,1,0,1,,,,64,127,0,,,
62494,note_on,,,,,1,0,1,,,,,,0,,87,77
62522,note_on,,,,,28,0,1,,,,,,0,,80,0
62525,note_on,,,,,3,0,1,,,,,,0,,85,67
62543,note_on,,,,,18,0,1,,,,,,0,,61,0
62547,note_on,,,,,4,0,1,,,,,,0,,92,70
62548,note_on,,,,,0,0,1,,,,,,0,,89,58
62548,note_on,,,,,1,0,1,,,,,,0,,65,66
62552,note_on,,,,,4,0,1,,,,,,0,,85,0
62553,note_on,,,,,1,0,1,,,,,,0,,87,0
62554,control_change,,,,,1,0,1,,,,64,0,0,,,
62563,control_change,,,,,9,0,1,,,,64,127,0,,,
62577,note_on,,,,,14,0,1,,,,,,0,,87,62
62600,note_on,,,,,23,0,1,,,,,,0,,85,66
62617,note_on,,,,,17,0,1,,,,,,0,,87,0
62625,note_on,,,,,8,0,1,,,,,,0,,80,66
62626,note_on,,,,,1,0,1,,,,,,0,,85,0
62632,control_change,,,,,6,0,1,,,,64,0,0,,,
62634,note_on,,,,,2,0,1,,,,,,0,,68,53
62641,note_on,,,,,7,0,1,,,,,,0,,65,0
62648,control_change,,,,,7,0,1,,,,64,127,0,,,
62651,note_on,,,,,3,0,1,,,,,,0,,89,0
62652,note_on,,,,,1,0,1,,,,,,0,,87,66
62656,note_on,,,,,4,0,1,,,,,,0,,92,0
62685,note_on,,,,,29,0,1,,,,,,0,,85,56
62687,note_on,,,,,2,0,1,,,,,,0,,80,0
62712,note_on,,,,,25,0,1,,,,,,0,,92,67
62714,note_on,,,,,0,0,1,,,,,,0,,89,61
62714,note_on,,,,,2,0,1,,,,,,0,,85,0
62715,note_on,,,,,1,0,1,,,,,,0,,73,45
62717,control_change,,,,,2,0,1,,,,64,0,0,,,
62718,note_on,,,,,1,0,1,,,,,,0,,87,0
62731,control_change,,,,,13,0,1,,,,64,127,0,,,
62740,note_on,,,,,9,0,1,,,,,,0,,87,53
62760,set_tempo,,,,,970,1,0,,428571,,,,,,,
62768,note_on,,,,,28,0,1,,,,,,0,,85,57
62778,set_tempo,,,,,18,1,0,,425532,,,,,,,
62788,note_on,,,,,20,0,1,,,,,,0,,87,0
62796,note_on,,,,,0,0,1,,,,,,0,,85,0
62796,set_tempo,,,,,18,1,0,,422535,,,,,,,
62796,note_on,,,,,8,0,1,,,,,,0,,68,0
62797,note_on,,,,,0,0,1,,,,,,0,,76,51
62797,note_on,,,,,1,0,1,,,,,,0,,80,52
62798,note_on,,,,,1,0,1,,,,,,0,,73,0
62802,control_change,,,,,4,0,1,,,,64,0,0,,,
62814,set_tempo,,,,,18,1,0,,419580,,,,,,,
62824,note_on,,,,,22,0,1,,,,,,0,,89,0
62825,note_on,,,,,1,0,1,,,,,,0,,87,68
62828,note_on,,,,,3,0,1,,,,,,0,,92,0
62832,set_tempo,,,,,18,1,0,,416667,,,,,,,
62846,control_change,,,,,18,0,1,,,,64,127,0,,,
62848,end_of_track,,,,,0,1,0,,,,,,,,,
62848,set_tempo,,,,,16,1,0,,413793,,,,,,,
62852,note_on,,,,,6,0,1,,,,,,0,,80,0
62853,note_on,,,,,1,0,1,,,,,,0,,85,56
62878,note_on,,,,,25,0,1,,,,,,0,,92,66
62880,note_on,,,,,2,0,1,,,,,,0,,89,48
62882,note_on,,,,,2,0,1,,,,,,0,,85,0
62884,note_on,,,,,2,0,1,,,,,,0,,87,0
62905,note_on,,,,,21,0,1,,,,,,0,,87,50
62937,note_on,,,,,32,0,1,,,,,,0,,85,53
62945,note_on,,,,,8,0,1,,,,,,0,,87,0
62958,note_on,,,,,13,0,1,,,,,,0,,85,0
62960,note_on,,,,,2,0,1,,,,,,0,,80,51
62981,note_on,,,,,21,0,1,,,,,,0,,89,0
62983,note_on,,,,,2,0,1,,,,,,0,,92,0
62986,note_on,,,,,3,0,1,,,,,,0,,87,65
63014,note_on,,,,,28,0,1,,,,,,0,,85,52
63015,note_on,,,,,1,0,1,,,,,,0,,80,0
63045,note_on,,,,,30,0,1,,,,,,0,,92,59
63046,note_on,,,,,1,0,1,,,,,,0,,85,0
63049,note_on,,,,,3,0,1,,,,,,0,,87,0
63050,note_on,,,,,1,0,1,,,,,,0,,89,49
63071,note_on,,,,,21,0,1,,,,,,0,,87,53
63101,note_on,,,,,30,0,1,,,,,,0,,85,47
63117,note_on,,,,,16,0,1,,,,,,0,,87,0
63122,note_on,,,,,5,0,1,,,,,,0,,80,51
63123,note_on,,,,,1,0,1,,,,,,0,,85,0
63129,note_on,,,,,6,0,1,,,,,,0,,76,0
63135,note_on,,,,,6,0,1,,,,,,0,,77,63
63152,note_on,,,,,17,0,1,,,,,,0,,92,0
63152,note_on,,,,,0,0,1,,,,,,0,,87,54
63153,note_on,,,,,1,0,1,,,,,,0,,89,0
63155,control_change,,,,,2,0,1,,,,64,0,0,,,
63183,note_on,,,,,28,0,1,,,,,,0,,85,56
63184,note_on,,,,,1,0,1,,,,,,0,,80,0
63212,control_change,,,,,28,0,1,,,,64,127,0,,,
63216,note_on,,,,,4,0,1,,,,,,0,,85,0
63217,note_on,,,,,1,0,1,,,,,,0,,92,62
63218,note_on,,,,,1,0,1,,,,,,0,,89,59
63222,note_on,,,,,4,0,1,,,,,,0,,87,0
63247,note_on,,,,,25,0,1,,,,,,0,,87,60
63276,note_on,,,,,29,0,1,,,,,,0,,77,0
63278,note_on,,,,,2,0,1,,,,,,0,,85,52
63287,note_on,,,,,9,0,1,,,,,,0,,89,0
63288,note_on,,,,,1,0,1,,,,,,0,,87,0
63299,note_on,,,,,11,0,1,,,,,,0,,85,0
63299,note_on,,,,,0,0,1,,,,,,0,,80,53
63300,note_on,,,,,1,0,1,,,,,,0,,80,51
63322,note_on,,,,,22,0,1,,,,,,0,,92,0
63330,note_on,,,,,8,0,1,,,,,,0,,87,54
63333,control_change,,,,,3,0,1,,,,64,0,0,,,
63354,note_on,,,,,21,0,1,,,,,,0,,80,0
63361,note_on,,,,,7,0,1,,,,,,0,,85,56
63362,note_on,,,,,1,0,1,,,,,,0,,80,0
63390,control_change,,,,,28,0,1,,,,64,127,0,,,
63394,note_on,,,,,4,0,1,,,,,,0,,85,0
63395,note_on,,,,,1,0,1,,,,,,0,,92,62
63396,note_on,,,,,1,0,1,,,,,,0,,89,59
63400,note_on,,,,,4,0,1,,,,,,0,,87,0
63425,note_on,,,,,25,0,1,,,,,,0,,87,60
63456,note_on,,,,,31,0,1,,,,,,0,,85,52
63465,note_on,,,,,9,0,1,,,,,,0,,89,0
63466,note_on,,,,,1,0,1,,,,,,0,,87,0
63477,note_on,,,,,11,0,1,,,,,,0,,85,0
63480,note_on,,,,,3,0,1,,,,,,0,,80,51
63500,note_on,,,,,20,0,1,,,,,,0,,92,0
63510,note_on,,,,,10,0,1,,,,,,0,,87,54
63513,control_change,,,,,3,0,1,,,,64,0,0,,,
63541,note_on,,,,,28,0,1,,,,,,0,,85,56
63542,note_on,,,,,1,0,1,,,,,,0,,80,0
63570,control_change,,,,,28,0,1,,,,64,127,0,,,
63574,note_on,,,,,4,0,1,,,,,,0,,85,0
63575,note_on,,,,,1,0,1,,,,,,0,,92,62
63576,note_on,,,,,1,0,1,,,,,,0,,89,59
63580,note_on,,,,,4,0,1,,,,,,0,,87,0
63605,note_on,,,,,25,0,1,,,,,,0,,87,60
63636,note_on,,,,,31,0,1,,,,,,0,,85,52
63645,note_on,,,,,9,0,1,,,,,,0,,89,0
63646,note_on,,,,,1,0,1,,,,,,0,,87,0
63657,note_on,,,,,11,0,1,,,,,,0,,85,0
63660,note_on,,,,,3,0,1,,,,,,0,,80,51
63680,note_on,,,,,20,0,1,,,,,,0,,92,0
63690,note_on,,,,,10,0,1,,,,,,0,,87,54
63693,control_change,,,,,3,0,1,,,,64,0,0,,,
63721,note_on,,,,,28,0,1,,,,,,0,,85,56
63722,note_on,,,,,1,0,1,,,,,,0,,80,0
63750,control_change,,,,,28,0,1,,,,64,127,0,,,
63754,note_on,,,,,4,0,1,,,,,,0,,85,0
63755,note_on,,,,,1,0,1,,,,,,0,,92,62
63756,note_on,,,,,1,0,1,,,,,,0,,89,59
63760,note_on,,,,,4,0,1,,,,,,0,,87,0
63785,note_on,,,,,25,0,1,,,,,,0,,87,60
63816,note_on,,,,,31,0,1,,,,,,0,,85,52
63825,note_on,,,,,9,0,1,,,,,,0,,89,0
63826,note_on,,,,,1,0,1,,,,,,0,,87,0
63837,note_on,,,,,11,0,1,,,,,,0,,85,0
63840,note_on,,,,,3,0,1,,,,,,0,,80,59
63842,control_change,,,,,2,0,1,,,,64,0,0,,,
63860,note_on,,,,,18,0,1,,,,,,0,,92,0
63907,note_on,,,,,47,0,1,,,,,,0,,80,0
63964,note_on,,,,,57,0,1,,,,,,0,,61,66
63970,control_change,,,,,6,0,1,,,,64,0,0,,,
64000,control_change,,,,,30,0,1,,,,64,127,0,,,
64015,note_on,,,,,15,0,1,,,,,,0,,61,0
64016,note_on,,,,,1,0,1,,,,,,0,,68,60
64042,note_on,,,,,26,0,1,,,,,,0,,73,61
64044,note_on,,,,,2,0,1,,,,,,0,,68,0
64062,note_on,,,,,18,0,1,,,,,,0,,77,69
64065,note_on,,,,,3,0,1,,,,,,0,,73,0
64076,note_on,,,,,11,0,1,,,,,,0,,77,0
64084,note_on,,,,,8,0,1,,,,,,0,,80,59
64103,note_on,,,,,19,0,1,,,,,,0,,85,65
64105,note_on,,,,,2,0,1,,,,,,0,,80,0
64114,note_on,,,,,9,0,1,,,,,,0,,89,61
64121,note_on,,,,,7,0,1,,,,,,0,,85,0
64140,note_on,,,,,19,0,1,,,,,,0,,89,0
64140,note_on,,,,,0,0,1,,,,,,0,,97,86
64154,note_on,,,,,14,0,1,,,,,,0,,97,0
64154,end_of_track,,,,,0,1,1,,,,,,,,,
