tick,type,time,meta,track,numerator,denominator,clocks_per_click,notated_32nd_notes_per_beat,key,tempo,port,program,channel,control,value,note,velocity
0,control_change,0,0,1,,,,,,,,,0,7,127,,
0,copyright,0,1,0,,,,,,,,,,,,,
0,key_signature,0,1,0,,,,,C,,,,,,,,
0,midi_port,0,1,1,,,,,,,0,,,,,,
0,midi_port,0,1,2,,,,,,,0,,,,,,
0,midi_port,0,1,3,,,,,,,0,,,,,,
0,midi_port,0,1,4,,,,,,,0,,,,,,
0,track_name,0,1,3,,,,,,,,,,,,,
0,program_change,0,0,1,,,,,,,,0,0,,,,
0,program_change,0,0,2,,,,,,,,0,1,,,,
0,program_change,0,0,3,,,,,,,,0,2,,,,
0,program_change,0,0,4,,,,,,,,0,3,,,,
0,set_tempo,0,1,0,,,,,,869565,,,,,,,
0,text,0,1,0,,,,,,,,,,,,,
0,time_signature,0,1,0,1,4,24,8,,,,,,,,,
0,track_name,0,1,0,,,,,,,,,,,,,
0,track_name,0,1,1,,,,,,,,,,,,,
0,track_name,0,1,2,,,,,,,,,,,,,
0,control_change,0,0,4,,,,,,,,,3,10,30,,
0,control_change,0,0,4,,,,,,,,,3,7,127,,
0,track_name,0,1,4,,,,,,,,,,,,,
0,control_change,0,0,3,,,,,,,,,2,10,30,,
0,control_change,0,0,1,,,,,,,,,0,10,97,,
0,control_change,0,0,3,,,,,,,,,2,7,127,,
0,control_change,0,0,2,,,,,,,,,1,7,127,,
0,control_change,0,0,2,,,,,,,,,1,10,97,,
105,note_on,105,0,3,,,,,,,,,2,,,51,36
120,note_on,15,0,3,,,,,,,,,2,,,51,0
120,note_on,0,0,3,,,,,,,,,2,,,52,36
120,time_signature,120,1,0,3,4,24,8,,,,,,,,,
120,note_on,0,0,3,,,,,,,,,2,,,45,36
465,note_on,345,0,3,,,,,,,,,2,,,51,36
480,note_on,0,0,3,,,,,,,,,2,,,52,36
480,note_on,0,0,3,,,,,,,,,2,,,45,36
480,note_on,0,0,3,,,,,,,,,2,,,52,0
480,note_on,0,0,3,,,,,,,,,2,,,45,0
480,note_on,15,0,3,,,,,,,,,2,,,51,0
825,note_on,345,0,3,,,,,,,,,2,,,51,36
840,note_on,0,0,3,,,,,,,,,2,,,45,0
840,note_on,840,0,1,,,,,,,,,0,,,69,49
840,note_on,0,0,3,,,,,,,,,2,,,52,36
840,note_on,0,0,3,,,,,,,,,2,,,52,0
840,note_on,0,0,3,,,,,,,,,2,,,45,36
840,note_on,15,0,3,,,,,,,,,2,,,51,0
870,note_on,30,0,1,,,,,,,,,0,,,69,0
870,note_on,0,0,1,,,,,,,,,0,,,72,49
900,note_on,30,0,1,,,,,,,,,0,,,72,0
900,note_on,0,0,1,,,,,,,,,0,,,71,49
930,note_on,30,0,1,,,,,,,,,0,,,71,0
930,note_on,0,0,1,,,,,,,,,0,,,74,49
960,note_on,0,0,1,,,,,,,,,0,,,72,49
960,note_on,30,0,1,,,,,,,,,0,,,74,0
1020,note_on,60,0,1,,,,,,,,,0,,,72,0
1020,note_on,0,0,1,,,,,,,,,0,,,69,49
1080,note_on,0,0,1,,,,,,,,,0,,,71,49
1080,note_on,60,0,1,,,,,,,,,0,,,69,0
1140,note_on,0,0,1,,,,,,,,,0,,,68,49
1140,note_on,60,0,1,,,,,,,,,0,,,71,0
1185,note_on,345,0,3,,,,,,,,,2,,,51,36
1200,note_on,0,0,3,,,,,,,,,2,,,45,36
1200,note_on,0,0,3,,,,,,,,,2,,,45,0
1200,note_on,0,0,1,,,,,,,,,0,,,69,49
1200,note_on,15,0,3,,,,,,,,,2,,,51,0
1200,note_on,60,0,1,,,,,,,,,0,,,68,0
1200,note_on,0,0,3,,,,,,,,,2,,,52,36
1200,note_on,0,0,3,,,,,,,,,2,,,52,0
1260,note_on,0,0,1,,,,,,,,,0,,,72,75
1260,note_on,60,0,1,,,,,,,,,0,,,69,0
1264,note_on,4,0,1,,,,,,,,,0,,,72,0
1320,note_on,0,0,1,,,,,,,,,0,,,71,75
1320,note_on,0,0,1,,,,,,,,,0,,,68,70
1320,note_on,56,0,1,,,,,,,,,0,,,64,65
1545,note_on,345,0,3,,,,,,,,,2,,,51,36
1560,note_on,0,0,1,,,,,,,,,0,,,68,0
1560,note_on,0,0,3,,,,,,,,,2,,,52,0
1560,note_on,0,0,3,,,,,,,,,2,,,52,36
1560,note_on,15,0,3,,,,,,,,,2,,,51,0
1560,note_on,0,0,1,,,,,,,,,0,,,64,0
1560,note_on,0,0,3,,,,,,,,,2,,,45,36
1560,note_on,0,0,1,,,,,,,,,0,,,69,49
1560,note_on,0,0,3,,,,,,,,,2,,,45,0
1560,note_on,240,0,1,,,,,,,,,0,,,71,0
1620,note_on,0,0,1,,,,,,,,,0,,,72,75
1620,note_on,60,0,1,,,,,,,,,0,,,69,0
1624,note_on,4,0,1,,,,,,,,,0,,,72,0
1680,note_on,0,0,1,,,,,,,,,0,,,71,75
1680,note_on,0,0,1,,,,,,,,,0,,,68,70
1680,note_on,56,0,1,,,,,,,,,0,,,64,65
1905,note_on,345,0,3,,,,,,,,,2,,,51,36
1920,note_on,240,0,1,,,,,,,,,0,,,71,0
1920,note_on,0,0,3,,,,,,,,,2,,,52,36
1920,note_on,0,0,3,,,,,,,,,2,,,52,0
1920,note_on,15,0,3,,,,,,,,,2,,,51,0
1920,note_on,0,0,1,,,,,,,,,0,,,64,0
1920,note_on,0,0,3,,,,,,,,,2,,,45,36
1920,note_on,0,0,1,,,,,,,,,0,,,68,0
1920,note_on,0,0,1,,,,,,,,,0,,,69,49
1920,note_on,0,0,3,,,,,,,,,2,,,45,0
1950,note_on,0,0,1,,,,,,,,,0,,,76,49
1950,note_on,30,0,1,,,,,,,,,0,,,69,0
1980,note_on,30,0,1,,,,,,,,,0,,,76,0
1980,note_on,0,0,1,,,,,,,,,0,,,74,49
2010,note_on,0,0,1,,,,,,,,,0,,,77,49
2010,note_on,30,0,1,,,,,,,,,0,,,74,0
2040,note_on,0,0,1,,,,,,,,,0,,,76,49
2040,note_on,30,0,1,,,,,,,,,0,,,77,0
2100,note_on,60,0,1,,,,,,,,,0,,,76,0
2100,note_on,0,0,1,,,,,,,,,0,,,69,49
2160,note_on,0,0,1,,,,,,,,,0,,,71,49
2160,note_on,60,0,1,,,,,,,,,0,,,69,0
2220,note_on,0,0,1,,,,,,,,,0,,,72,49
2220,note_on,60,0,1,,,,,,,,,0,,,71,0
2280,note_on,360,0,3,,,,,,,,,2,,,52,0
2280,note_on,2280,0,2,,,,,,,,,1,,,62,36
2280,note_on,0,0,1,,,,,,,,,0,,,68,49
2280,note_on,2280,0,4,,,,,,,,,3,,,45,36
2280,note_on,0,0,4,,,,,,,,,3,,,52,36
2280,note_on,60,0,1,,,,,,,,,0,,,72,0
2280,note_on,0,0,3,,,,,,,,,2,,,45,0
2280,note_on,0,0,3,,,,,,,,,2,,,59,49
2340,note_on,0,0,1,,,,,,,,,0,,,71,75
2340,note_on,60,0,1,,,,,,,,,0,,,68,0
2344,note_on,4,0,1,,,,,,,,,0,,,71,0
2400,note_on,0,0,1,,,,,,,,,0,,,64,75
2400,note_on,0,0,3,,,,,,,,,2,,,60,75
2400,note_on,120,0,3,,,,,,,,,2,,,59,0
2400,note_on,120,0,2,,,,,,,,,1,,,62,0
2400,note_on,56,0,1,,,,,,,,,0,,,57,67
2640,note_on,0,0,4,,,,,,,,,3,,,45,0
2640,note_on,0,0,4,,,,,,,,,3,,,45,36
2640,note_on,0,0,4,,,,,,,,,3,,,52,36
2640,time_signature,2520,1,0,4,4,24,8,,,,,,,,,
2640,note_on,360,0,4,,,,,,,,,3,,,52,0
2640,note_on,0,0,3,,,,,,,,,2,,,59,49
2640,note_on,0,0,1,,,,,,,,,0,,,68,49
2640,note_on,240,0,2,,,,,,,,,1,,,62,36
2640,note_on,240,0,1,,,,,,,,,0,,,64,0
2640,note_on,0,0,1,,,,,,,,,0,,,57,0
2640,note_on,240,0,3,,,,,,,,,2,,,60,0
2700,note_on,0,0,1,,,,,,,,,0,,,71,75
2700,note_on,60,0,1,,,,,,,,,0,,,68,0
2704,note_on,4,0,1,,,,,,,,,0,,,71,0
2760,note_on,0,0,1,,,,,,,,,0,,,64,75
2760,note_on,56,0,1,,,,,,,,,0,,,57,67
2760,note_on,120,0,2,,,,,,,,,1,,,62,0
2760,note_on,120,0,3,,,,,,,,,2,,,59,0
2760,note_on,0,0,3,,,,,,,,,2,,,60,75
3000,note_on,0,0,1,,,,,,,,,0,,,57,0
3000,note_on,360,0,4,,,,,,,,,3,,,52,0
3000,note_on,240,0,3,,,,,,,,,2,,,60,0
3000,note_on,0,0,4,,,,,,,,,3,,,45,0
3000,note_on,240,0,1,,,,,,,,,0,,,64,0
3100,note_on,100,0,3,,,,,,,,,2,,,45,49
3110,note_on,10,0,3,,,,,,,,,2,,,52,49
3120,time_signature,480,1,0,3,4,24,8,,,,,,,,,
3120,control_change,10,0,3,,,,,,,,,2,64,127,,
3120,note_on,0,0,3,,,,,,,,,2,,,57,49
3126,note_on,6,0,3,,,,,,,,,2,,,57,0
3126,note_on,0,0,3,,,,,,,,,2,,,45,0
3126,note_on,0,0,3,,,,,,,,,2,,,52,0
3180,note_on,54,0,3,,,,,,,,,2,,,52,49
3186,note_on,6,0,3,,,,,,,,,2,,,52,0
3240,note_on,54,0,3,,,,,,,,,2,,,57,49
3246,note_on,6,0,3,,,,,,,,,2,,,57,0
3300,note_on,54,0,3,,,,,,,,,2,,,59,49
3306,note_on,6,0,3,,,,,,,,,2,,,59,0
3360,note_on,54,0,3,,,,,,,,,2,,,60,49
3366,note_on,6,0,3,,,,,,,,,2,,,60,0
3420,note_on,0,0,3,,,,,,,,,2,,,57,49
3420,control_change,54,0,3,,,,,,,,,2,64,0,,
3426,note_on,6,0,3,,,,,,,,,2,,,57,0
3480,note_on,0,0,3,,,,,,,,,2,,,52,75
3480,control_change,54,0,3,,,,,,,,,2,64,127,,
3480,time_signature,360,1,0,4,4,24,8,,,,,,,,,
3480,note_on,480,0,4,,,,,,,,,3,,,45,36
3486,note_on,6,0,3,,,,,,,,,2,,,52,0
3525,set_tempo,45,1,0,,,,,,909091,,,,,,,
3540,note_on,54,0,3,,,,,,,,,2,,,57,49
3546,note_on,6,0,3,,,,,,,,,2,,,57,0
3570,set_tempo,45,1,0,,,,,,952381,,,,,,,
3600,note_on,54,0,3,,,,,,,,,2,,,56,49
3606,note_on,6,0,3,,,,,,,,,2,,,56,0
3615,set_tempo,45,1,0,,,,,,1000000,,,,,,,
3660,set_tempo,45,1,0,,,,,,1071429,,,,,,,
3660,note_on,54,0,3,,,,,,,,,2,,,59,49
3666,note_on,6,0,3,,,,,,,,,2,,,59,0
3705,set_tempo,45,1,0,,,,,,1132075,,,,,,,
3720,control_change,54,0,3,,,,,,,,,2,64,0,,
3720,note_on,0,0,3,,,,,,,,,2,,,52,49
3750,set_tempo,45,1,0,,,,,,1200000,,,,,,,
3795,set_tempo,45,1,0,,,,,,1276596,,,,,,,
3840,note_on,360,0,4,,,,,,,,,3,,,45,0
3840,set_tempo,45,1,0,,,,,,1395349,,,,,,,
3840,note_on,120,0,3,,,,,,,,,2,,,52,0
3945,note_on,105,0,3,,,,,,,,,2,,,51,36
3960,note_on,960,0,1,,,,,,,,,0,,,69,49
3960,note_on,0,0,3,,,,,,,,,2,,,45,36
3960,note_on,0,0,3,,,,,,,,,2,,,52,36
3960,time_signature,120,1,0,3,4,24,8,,,,,,,,,
3960,note_on,15,0,3,,,,,,,,,2,,,51,0
3960,set_tempo,0,1,0,,,,,,869565,,,,,,,
3990,note_on,30,0,1,,,,,,,,,0,,,69,0
3990,note_on,0,0,1,,,,,,,,,0,,,72,49
4020,note_on,30,0,1,,,,,,,,,0,,,72,0
4020,note_on,0,0,1,,,,,,,,,0,,,71,49
4050,note_on,30,0,1,,,,,,,,,0,,,71,0
4050,note_on,0,0,1,,,,,,,,,0,,,74,49
4080,note_on,0,0,1,,,,,,,,,0,,,72,49
4080,note_on,30,0,1,,,,,,,,,0,,,74,0
4140,note_on,0,0,1,,,,,,,,,0,,,69,49
4140,note_on,60,0,1,,,,,,,,,0,,,72,0
4200,note_on,0,0,1,,,,,,,,,0,,,71,49
4200,note_on,60,0,1,,,,,,,,,0,,,69,0
4260,note_on,0,0,1,,,,,,,,,0,,,68,49
4260,note_on,60,0,1,,,,,,,,,0,,,71,0
4305,note_on,345,0,3,,,,,,,,,2,,,51,36
4320,note_on,15,0,3,,,,,,,,,2,,,51,0
4320,note_on,60,0,1,,,,,,,,,0,,,68,0
4320,note_on,0,0,3,,,,,,,,,2,,,45,36
4320,note_on,0,0,3,,,,,,,,,2,,,52,0
4320,note_on,0,0,3,,,,,,,,,2,,,45,0
4320,note_on,0,0,3,,,,,,,,,2,,,52,36
4320,note_on,0,0,1,,,,,,,,,0,,,69,49
4380,note_on,0,0,1,,,,,,,,,0,,,72,75
4380,note_on,60,0,1,,,,,,,,,0,,,69,0
4384,note_on,4,0,1,,,,,,,,,0,,,72,0
4440,note_on,0,0,1,,,,,,,,,0,,,68,70
4440,note_on,0,0,1,,,,,,,,,0,,,71,75
4440,note_on,56,0,1,,,,,,,,,0,,,64,65
4660,note_on,340,0,3,,,,,,,,,2,,,45,36
4670,note_on,10,0,3,,,,,,,,,2,,,52,36
4680,note_on,0,0,3,,,,,,,,,2,,,57,49
4680,note_on,0,0,3,,,,,,,,,2,,,45,0
4680,note_on,10,0,3,,,,,,,,,2,,,52,0
4680,note_on,240,0,1,,,,,,,,,0,,,71,0
4680,note_on,0,0,1,,,,,,,,,0,,,68,0
4680,control_change,0,0,3,,,,,,,,,2,64,127,,
4680,note_on,0,0,1,,,,,,,,,0,,,69,49
4686,note_on,0,0,3,,,,,,,,,2,,,45,0
4686,note_on,0,0,3,,,,,,,,,2,,,52,0
4686,note_on,6,0,3,,,,,,,,,2,,,57,0
4740,note_on,54,0,3,,,,,,,,,2,,,52,49
4746,note_on,6,0,3,,,,,,,,,2,,,52,0
4800,note_on,120,0,1,,,,,,,,,0,,,69,0
4800,note_on,0,0,1,,,,,,,,,0,,,64,0
4800,note_on,54,0,3,,,,,,,,,2,,,57,62
4806,note_on,6,0,3,,,,,,,,,2,,,57,0
4860,note_on,54,0,3,,,,,,,,,2,,,59,62
4866,note_on,6,0,3,,,,,,,,,2,,,59,0
4920,note_on,54,0,3,,,,,,,,,2,,,60,75
4926,note_on,6,0,3,,,,,,,,,2,,,60,0
4980,control_change,54,0,3,,,,,,,,,2,64,0,,
4980,note_on,0,0,3,,,,,,,,,2,,,57,75
4986,note_on,6,0,3,,,,,,,,,2,,,57,0
5040,note_on,0,0,3,,,,,,,,,2,,,52,75
5040,note_on,1200,0,4,,,,,,,,,3,,,45,62
5040,time_signature,1080,1,0,4,4,24,8,,,,,,,,,
5040,control_change,54,0,3,,,,,,,,,2,64,127,,
5046,note_on,6,0,3,,,,,,,,,2,,,52,0
5085,set_tempo,45,1,0,,,,,,909091,,,,,,,
5100,note_on,54,0,3,,,,,,,,,2,,,57,75
5106,note_on,6,0,3,,,,,,,,,2,,,57,0
5130,set_tempo,45,1,0,,,,,,952381,,,,,,,
5160,note_on,54,0,3,,,,,,,,,2,,,56,62
5166,note_on,6,0,3,,,,,,,,,2,,,56,0
5175,set_tempo,45,1,0,,,,,,1000000,,,,,,,
5220,note_on,54,0,3,,,,,,,,,2,,,59,62
5220,set_tempo,45,1,0,,,,,,1071429,,,,,,,
5226,note_on,6,0,3,,,,,,,,,2,,,59,0
5265,set_tempo,45,1,0,,,,,,1132075,,,,,,,
5280,note_on,0,0,3,,,,,,,,,2,,,52,49
5280,control_change,54,0,3,,,,,,,,,2,64,0,,
5310,set_tempo,45,1,0,,,,,,1200000,,,,,,,
5355,set_tempo,45,1,0,,,,,,1276596,,,,,,,
5400,set_tempo,45,1,0,,,,,,1395349,,,,,,,
5400,note_on,120,0,3,,,,,,,,,2,,,52,0
5400,note_on,360,0,4,,,,,,,,,3,,,45,0
5505,note_on,105,0,3,,,,,,,,,2,,,51,36
5520,note_on,15,0,3,,,,,,,,,2,,,51,0
5520,note_on,0,0,3,,,,,,,,,2,,,52,36
5520,time_signature,120,1,0,3,4,24,8,,,,,,,,,
5520,note_on,0,0,3,,,,,,,,,2,,,45,36
5520,set_tempo,0,1,0,,,,,,869565,,,,,,,
5520,note_on,720,0,1,,,,,,,,,0,,,69,49
5550,note_on,30,0,1,,,,,,,,,0,,,69,0
5550,note_on,0,0,1,,,,,,,,,0,,,72,49
5580,note_on,0,0,1,,,,,,,,,0,,,71,49
5580,note_on,30,0,1,,,,,,,,,0,,,72,0
5610,note_on,0,0,1,,,,,,,,,0,,,74,49
5610,note_on,30,0,1,,,,,,,,,0,,,71,0
5640,note_on,0,0,1,,,,,,,,,0,,,72,49
5640,note_on,30,0,1,,,,,,,,,0,,,74,0
5700,note_on,0,0,1,,,,,,,,,0,,,69,49
5700,note_on,60,0,1,,,,,,,,,0,,,72,0
5760,note_on,60,0,1,,,,,,,,,0,,,69,0
5760,note_on,0,0,1,,,,,,,,,0,,,71,49
5820,note_on,60,0,1,,,,,,,,,0,,,71,0
5820,note_on,0,0,1,,,,,,,,,0,,,68,49
5865,note_on,345,0,3,,,,,,,,,2,,,51,36
5880,note_on,0,0,3,,,,,,,,,2,,,45,0
5880,note_on,0,0,3,,,,,,,,,2,,,45,36
5880,note_on,0,0,3,,,,,,,,,2,,,52,0
5880,note_on,15,0,3,,,,,,,,,2,,,51,0
5880,note_on,60,0,1,,,,,,,,,0,,,68,0
5880,note_on,0,0,1,,,,,,,,,0,,,69,49
5880,note_on,0,0,3,,,,,,,,,2,,,52,36
5940,note_on,60,0,1,,,,,,,,,0,,,69,0
5940,note_on,0,0,1,,,,,,,,,0,,,72,75
5944,note_on,4,0,1,,,,,,,,,0,,,72,0
6000,note_on,56,0,1,,,,,,,,,0,,,64,65
6000,note_on,0,0,1,,,,,,,,,0,,,71,75
6000,note_on,0,0,1,,,,,,,,,0,,,68,70
6220,note_on,340,0,3,,,,,,,,,2,,,45,36
6230,note_on,10,0,3,,,,,,,,,2,,,52,36
6240,note_on,10,0,3,,,,,,,,,2,,,52,0
6240,note_on,240,0,1,,,,,,,,,0,,,71,0
6240,note_on,0,0,1,,,,,,,,,0,,,64,0
6240,note_on,0,0,1,,,,,,,,,0,,,64,49
6240,note_on,0,0,3,,,,,,,,,2,,,45,0
6240,note_on,0,0,3,,,,,,,,,2,,,57,49
6240,control_change,0,0,3,,,,,,,,,2,64,127,,
6240,note_on,0,0,1,,,,,,,,,0,,,69,49
6240,note_on,0,0,1,,,,,,,,,0,,,68,0
6246,note_on,6,0,3,,,,,,,,,2,,,57,0
6246,note_on,0,0,3,,,,,,,,,2,,,45,0
6246,note_on,0,0,3,,,,,,,,,2,,,52,0
6300,note_on,54,0,3,,,,,,,,,2,,,64,49
6306,note_on,6,0,3,,,,,,,,,2,,,64,0
6360,note_on,0,0,1,,,,,,,,,0,,,64,0
6360,note_on,120,0,1,,,,,,,,,0,,,69,0
6360,note_on,54,0,3,,,,,,,,,2,,,62,49
6366,note_on,6,0,3,,,,,,,,,2,,,62,0
6420,note_on,54,0,3,,,,,,,,,2,,,60,49
6426,note_on,6,0,3,,,,,,,,,2,,,60,0
6480,note_on,1080,0,4,,,,,,,,,3,,,56,36
6480,note_on,54,0,3,,,,,,,,,2,,,59,49
6486,note_on,6,0,3,,,,,,,,,2,,,59,0
6540,note_on,0,0,3,,,,,,,,,2,,,52,49
6540,control_change,54,0,3,,,,,,,,,2,64,0,,
6546,note_on,6,0,3,,,,,,,,,2,,,52,0
6600,note_on,120,0,4,,,,,,,,,3,,,56,0
6600,note_on,0,0,4,,,,,,,,,3,,,45,36
6600,note_on,0,0,4,,,,,,,,,3,,,52,36
6600,note_on,54,0,3,,,,,,,,,2,,,57,49
6645,set_tempo,1125,1,0,,,,,,909091,,,,,,,
6690,note_on,0,0,3,,,,,,,,,2,,,60,49
6690,note_on,90,0,3,,,,,,,,,2,,,57,0
6690,set_tempo,45,1,0,,,,,,952381,,,,,,,
6720,note_on,0,0,3,,,,,,,,,2,,,59,49
6720,note_on,120,0,4,,,,,,,,,3,,,56,36
6720,note_on,30,0,3,,,,,,,,,2,,,60,0
6720,control_change,0,0,3,,,,,,,,,2,64,127,,
6726,note_on,6,0,3,,,,,,,,,2,,,59,0
6735,set_tempo,45,1,0,,,,,,1000000,,,,,,,
6780,note_on,54,0,3,,,,,,,,,2,,,52,49
6780,set_tempo,45,1,0,,,,,,1071429,,,,,,,
6786,note_on,6,0,3,,,,,,,,,2,,,52,0
6825,set_tempo,45,1,0,,,,,,1132075,,,,,,,
6840,note_on,0,0,3,,,,,,,,,2,,,59,49
6840,control_change,54,0,3,,,,,,,,,2,64,0,,
6852,note_on,12,0,3,,,,,,,,,2,,,59,0
6870,set_tempo,45,1,0,,,,,,1200000,,,,,,,
6915,set_tempo,45,1,0,,,,,,1276596,,,,,,,
6940,note_on,88,0,3,,,,,,,,,2,,,45,49
6950,note_on,10,0,3,,,,,,,,,2,,,52,49
6960,note_on,0,0,4,,,,,,,,,3,,,52,0
6960,note_on,240,0,4,,,,,,,,,3,,,56,0
6960,note_on,600,0,1,,,,,,,,,0,,,69,49
6960,set_tempo,45,1,0,,,,,,923077,,,,,,,
6960,note_on,0,0,4,,,,,,,,,3,,,45,0
6960,note_on,10,0,3,,,,,,,,,2,,,57,36
6990,note_on,0,0,1,,,,,,,,,0,,,76,49
6990,note_on,30,0,1,,,,,,,,,0,,,69,0
7020,note_on,30,0,1,,,,,,,,,0,,,76,0
7020,note_on,0,0,1,,,,,,,,,0,,,74,49
7050,note_on,30,0,1,,,,,,,,,0,,,74,0
7050,note_on,0,0,1,,,,,,,,,0,,,77,49
7080,note_on,0,0,1,,,,,,,,,0,,,76,49
7080,note_on,30,0,1,,,,,,,,,0,,,77,0
7140,note_on,0,0,1,,,,,,,,,0,,,69,49
7140,note_on,60,0,1,,,,,,,,,0,,,76,0
7200,note_on,0,0,3,,,,,,,,,2,,,45,0
7200,note_on,0,0,3,,,,,,,,,2,,,52,0
7200,note_on,240,0,3,,,,,,,,,2,,,57,0
7200,note_on,60,0,1,,,,,,,,,0,,,69,0
7200,note_on,0,0,1,,,,,,,,,0,,,71,49
7260,note_on,0,0,1,,,,,,,,,0,,,72,49
7260,note_on,60,0,1,,,,,,,,,0,,,71,0
7300,note_on,100,0,3,,,,,,,,,2,,,45,36
7310,note_on,10,0,3,,,,,,,,,2,,,52,36
7320,note_on,60,0,1,,,,,,,,,0,,,72,0
7320,note_on,10,0,3,,,,,,,,,2,,,59,36
7320,note_on,0,0,1,,,,,,,,,0,,,68,49
7320,note_on,4560,0,2,,,,,,,,,1,,,62,36
7380,note_on,0,0,1,,,,,,,,,0,,,71,75
7380,note_on,60,0,1,,,,,,,,,0,,,68,0
7384,note_on,4,0,1,,,,,,,,,0,,,71,0
7440,note_on,120,0,3,,,,,,,,,2,,,59,0
7440,note_on,56,0,1,,,,,,,,,0,,,57,67
7440,note_on,0,0,3,,,,,,,,,2,,,60,62
7440,note_on,0,0,3,,,,,,,,,2,,,52,0
7440,note_on,0,0,3,,,,,,,,,2,,,45,0
7440,note_on,120,0,2,,,,,,,,,1,,,62,0
7440,note_on,0,0,1,,,,,,,,,0,,,64,75
7680,note_on,0,0,1,,,,,,,,,0,,,57,0
7680,note_on,240,0,3,,,,,,,,,2,,,60,0
7680,note_on,0,0,4,,,,,,,,,3,,,52,36
7680,control_change,0,0,3,,,,,,,,,2,64,127,,
7680,note_on,240,0,1,,,,,,,,,0,,,64,0
7680,note_on,720,0,4,,,,,,,,,3,,,45,36
7680,note_on,0,0,3,,,,,,,,,2,,,57,49
7686,note_on,6,0,3,,,,,,,,,2,,,57,0
7740,note_on,54,0,3,,,,,,,,,2,,,64,49
7746,note_on,6,0,3,,,,,,,,,2,,,64,0
7800,note_on,54,0,3,,,,,,,,,2,,,62,49
7806,note_on,6,0,3,,,,,,,,,2,,,62,0
7860,note_on,54,0,3,,,,,,,,,2,,,60,49
7866,note_on,6,0,3,,,,,,,,,2,,,60,0
7920,note_on,240,0,4,,,,,,,,,3,,,56,36
7920,note_on,54,0,3,,,,,,,,,2,,,59,49
7926,note_on,6,0,3,,,,,,,,,2,,,59,0
7980,note_on,0,0,3,,,,,,,,,2,,,52,49
7980,control_change,54,0,3,,,,,,,,,2,64,0,,
7986,note_on,6,0,3,,,,,,,,,2,,,52,0
8040,note_on,54,0,3,,,,,,,,,2,,,57,49
8040,note_on,0,0,4,,,,,,,,,3,,,45,0
8040,note_on,0,0,4,,,,,,,,,3,,,45,36
8040,note_on,0,0,4,,,,,,,,,3,,,52,0
8040,note_on,0,0,4,,,,,,,,,3,,,52,36
8040,note_on,120,0,4,,,,,,,,,3,,,56,0
8085,set_tempo,1125,1,0,,,,,,967742,,,,,,,
8130,note_on,90,0,3,,,,,,,,,2,,,57,0
8130,note_on,0,0,3,,,,,,,,,2,,,60,49
8130,set_tempo,45,1,0,,,,,,1016949,,,,,,,
8160,note_on,30,0,3,,,,,,,,,2,,,60,0
8160,note_on,0,0,3,,,,,,,,,2,,,59,49
8160,control_change,0,0,3,,,,,,,,,2,64,127,,
8160,note_on,120,0,4,,,,,,,,,3,,,56,36
8166,note_on,6,0,3,,,,,,,,,2,,,59,0
8175,set_tempo,45,1,0,,,,,,1071429,,,,,,,
8220,control_change,54,0,3,,,,,,,,,2,64,0,,
8220,note_on,0,0,3,,,,,,,,,2,,,52,49
8220,set_tempo,45,1,0,,,,,,1153846,,,,,,,
8226,note_on,6,0,3,,,,,,,,,2,,,52,0
8265,set_tempo,45,1,0,,,,,,1224490,,,,,,,
8280,note_on,54,0,3,,,,,,,,,2,,,59,49
8310,set_tempo,45,1,0,,,,,,1304348,,,,,,,
8355,set_tempo,45,1,0,,,,,,1395349,,,,,,,
8380,note_on,100,0,3,,,,,,,,,2,,,45,49
8390,note_on,10,0,3,,,,,,,,,2,,,52,49
8400,note_on,0,0,4,,,,,,,,,3,,,52,0
8400,note_on,240,0,4,,,,,,,,,3,,,56,0
8400,note_on,720,0,1,,,,,,,,,0,,,69,49
8400,note_on,0,0,4,,,,,,,,,3,,,45,0
8400,note_on,10,0,3,,,,,,,,,2,,,59,0
8400,set_tempo,45,1,0,,,,,,923077,,,,,,,
8400,note_on,0,0,3,,,,,,,,,2,,,57,36
8430,note_on,30,0,1,,,,,,,,,0,,,69,0
8430,note_on,0,0,1,,,,,,,,,0,,,76,49
8460,note_on,30,0,1,,,,,,,,,0,,,76,0
8460,note_on,0,0,1,,,,,,,,,0,,,74,49
8490,note_on,30,0,1,,,,,,,,,0,,,74,0
8490,note_on,0,0,1,,,,,,,,,0,,,77,49
8520,note_on,0,0,1,,,,,,,,,0,,,76,49
8520,note_on,30,0,1,,,,,,,,,0,,,77,0
8580,note_on,180,0,3,,,,,,,,,2,,,57,0
8580,note_on,0,0,3,,,,,,,,,2,,,60,49
8580,note_on,60,0,1,,,,,,,,,0,,,76,0
8580,note_on,0,0,1,,,,,,,,,0,,,69,49
8580,note_on,0,0,3,,,,,,,,,2,,,45,0
8580,note_on,0,0,3,,,,,,,,,2,,,52,0
8640,note_on,60,0,3,,,,,,,,,2,,,60,0
8640,note_on,0,0,1,,,,,,,,,0,,,71,49
8640,note_on,60,0,1,,,,,,,,,0,,,69,0
8640,note_on,0,0,3,,,,,,,,,2,,,59,49
8700,note_on,0,0,1,,,,,,,,,0,,,72,49
8700,note_on,60,0,3,,,,,,,,,2,,,59,0
8700,note_on,0,0,3,,,,,,,,,2,,,57,49
8700,note_on,60,0,1,,,,,,,,,0,,,71,0
8760,note_on,0,0,1,,,,,,,,,0,,,68,49
8760,note_on,60,0,3,,,,,,,,,2,,,57,0
8760,note_on,360,0,4,,,,,,,,,3,,,45,36
8760,note_on,0,0,4,,,,,,,,,3,,,52,36
8760,note_on,1320,0,2,,,,,,,,,1,,,62,36
8760,note_on,60,0,1,,,,,,,,,0,,,72,0
8760,note_on,0,0,3,,,,,,,,,2,,,59,36
8820,note_on,0,0,1,,,,,,,,,0,,,71,75
8820,note_on,60,0,1,,,,,,,,,0,,,68,0
8824,note_on,4,0,1,,,,,,,,,0,,,71,0
8880,note_on,0,0,1,,,,,,,,,0,,,64,75
8880,note_on,0,0,3,,,,,,,,,2,,,60,62
8880,note_on,56,0,1,,,,,,,,,0,,,57,67
8880,note_on,120,0,2,,,,,,,,,1,,,62,0
8880,note_on,120,0,3,,,,,,,,,2,,,59,0
9100,note_on,220,0,3,,,,,,,,,2,,,45,36
9110,note_on,10,0,3,,,,,,,,,2,,,52,36
9120,note_on,0,0,1,,,,,,,,,0,,,57,0
9120,note_on,360,0,4,,,,,,,,,3,,,52,0
9120,note_on,240,0,1,,,,,,,,,0,,,64,0
9120,note_on,0,0,3,,,,,,,,,2,,,57,49
9120,note_on,0,0,4,,,,,,,,,3,,,45,0
9120,note_on,10,0,3,,,,,,,,,2,,,60,0
9126,note_on,6,0,3,,,,,,,,,2,,,57,0
9165,set_tempo,765,1,0,,,,,,967742,,,,,,,
9180,note_on,54,0,3,,,,,,,,,2,,,59,49
9186,note_on,6,0,3,,,,,,,,,2,,,59,0
9210,set_tempo,45,1,0,,,,,,1016949,,,,,,,
9240,note_on,54,0,3,,,,,,,,,2,,,60,49
9246,note_on,6,0,3,,,,,,,,,2,,,60,0
9255,set_tempo,45,1,0,,,,,,1071429,,,,,,,
9300,note_on,54,0,3,,,,,,,,,2,,,62,49
9300,set_tempo,45,1,0,,,,,,1153846,,,,,,,
9306,note_on,6,0,3,,,,,,,,,2,,,62,0
9345,set_tempo,45,1,0,,,,,,1224490,,,,,,,
9360,note_on,54,0,3,,,,,,,,,2,,,64,49
9366,note_on,6,0,3,,,,,,,,,2,,,64,0
9390,set_tempo,45,1,0,,,,,,1304348,,,,,,,
9420,note_on,54,0,3,,,,,,,,,2,,,62,49
9426,note_on,0,0,3,,,,,,,,,2,,,45,0
9426,note_on,0,0,3,,,,,,,,,2,,,52,0
9426,note_on,6,0,3,,,,,,,,,2,,,62,0
9435,set_tempo,45,1,0,,,,,,1395349,,,,,,,
9460,note_on,34,0,3,,,,,,,,,2,,,45,49
9470,note_on,10,0,3,,,,,,,,,2,,,52,49
9480,time_signature,45,1,0,4,4,24,8,,,,,,,,,
9480,set_tempo,0,1,0,,,,,,1538462,,,,,,,
9480,note_on,10,0,3,,,,,,,,,2,,,60,49
9486,note_on,6,0,3,,,,,,,,,2,,,60,0
9540,note_on,54,0,3,,,,,,,,,2,,,59,49
9546,note_on,6,0,3,,,,,,,,,2,,,59,0
9600,note_on,54,0,3,,,,,,,,,2,,,57,49
9606,note_on,0,0,3,,,,,,,,,2,,,52,0
9606,note_on,6,0,3,,,,,,,,,2,,,57,0
9660,note_on,54,0,3,,,,,,,,,2,,,52,49
9720,note_on,60,0,3,,,,,,,,,2,,,52,0
9720,note_on,0,0,3,,,,,,,,,2,,,57,49
9840,note_on,0,0,3,,,,,,,,,2,,,45,0
9840,note_on,120,0,3,,,,,,,,,2,,,57,0
9945,note_on,105,0,3,,,,,,,,,2,,,51,36
9960,note_on,0,0,3,,,,,,,,,2,,,45,36
9960,set_tempo,0,1,0,,,,,,869565,,,,,,,
9960,note_on,0,0,3,,,,,,,,,2,,,52,36
9960,note_on,15,0,3,,,,,,,,,2,,,51,0
9960,time_signature,480,1,0,3,4,24,8,,,,,,,,,
9960,note_on,840,0,1,,,,,,,,,0,,,69,49
9990,note_on,0,0,1,,,,,,,,,0,,,77,49
9990,note_on,30,0,1,,,,,,,,,0,,,69,0
10020,note_on,0,0,1,,,,,,,,,0,,,76,49
10020,note_on,30,0,1,,,,,,,,,0,,,77,0
10050,note_on,30,0,1,,,,,,,,,0,,,76,0
10050,note_on,0,0,1,,,,,,,,,0,,,80,49
10080,note_on,0,0,1,,,,,,,,,0,,,81,49
10080,note_on,30,0,1,,,,,,,,,0,,,80,0
10140,note_on,0,0,1,,,,,,,,,0,,,77,49
10140,note_on,60,0,1,,,,,,,,,0,,,81,0
10200,note_on,0,0,1,,,,,,,,,0,,,76,49
10200,note_on,60,0,1,,,,,,,,,0,,,77,0
10290,note_on,90,0,1,,,,,,,,,0,,,76,0
10290,note_on,0,0,1,,,,,,,,,0,,,74,49
10305,note_on,345,0,3,,,,,,,,,2,,,51,36
10320,note_on,0,0,1,,,,,,,,,0,,,72,49
10320,note_on,0,0,1,,,,,,,,,0,,,64,49
10320,note_on,0,0,3,,,,,,,,,2,,,52,36
10320,note_on,0,0,3,,,,,,,,,2,,,52,0
10320,note_on,0,0,3,,,,,,,,,2,,,45,36
10320,note_on,30,0,1,,,,,,,,,0,,,74,0
10320,note_on,15,0,3,,,,,,,,,2,,,51,0
10320,note_on,0,0,3,,,,,,,,,2,,,45,0
10410,note_on,0,0,1,,,,,,,,,0,,,64,0
10410,note_on,0,0,1,,,,,,,,,0,,,62,49
10410,note_on,0,0,1,,,,,,,,,0,,,71,49
10410,note_on,90,0,1,,,,,,,,,0,,,72,0
10440,note_on,0,0,1,,,,,,,,,0,,,62,0
10440,note_on,30,0,1,,,,,,,,,0,,,71,0
10440,note_on,0,0,1,,,,,,,,,0,,,60,49
10440,note_on,0,0,1,,,,,,,,,0,,,69,49
10500,note_on,0,0,1,,,,,,,,,0,,,64,49
10500,note_on,0,0,1,,,,,,,,,0,,,60,0
10500,note_on,0,0,1,,,,,,,,,0,,,59,49
10500,note_on,60,0,1,,,,,,,,,0,,,69,0
10560,note_on,60,0,1,,,,,,,,,0,,,64,0
10560,note_on,0,0,1,,,,,,,,,0,,,59,0
10560,note_on,0,0,1,,,,,,,,,0,,,60,49
10560,note_on,0,0,1,,,,,,,,,0,,,69,49
10680,note_on,0,0,3,,,,,,,,,2,,,59,36
10680,note_on,0,0,3,,,,,,,,,2,,,53,36
10680,note_on,0,0,3,,,,,,,,,2,,,45,0
10680,note_on,120,0,1,,,,,,,,,0,,,69,0
10680,note_on,0,0,1,,,,,,,,,0,,,68,49
10680,note_on,360,0,3,,,,,,,,,2,,,52,0
10680,note_on,0,0,1,,,,,,,,,0,,,60,0
10680,note_on,1800,0,2,,,,,,,,,1,,,62,36
10680,note_on,1560,0,4,,,,,,,,,3,,,45,36
10740,note_on,0,0,1,,,,,,,,,0,,,71,75
10740,note_on,60,0,1,,,,,,,,,0,,,68,0
10744,note_on,4,0,1,,,,,,,,,0,,,71,0
10800,note_on,0,0,3,,,,,,,,,2,,,57,36
10800,note_on,120,0,2,,,,,,,,,1,,,62,0
10800,note_on,56,0,1,,,,,,,,,0,,,64,49
10800,note_on,0,0,3,,,,,,,,,2,,,53,0
10800,note_on,0,0,3,,,,,,,,,2,,,52,36
10800,note_on,0,0,2,,,,,,,,,1,,,60,36
10800,note_on,120,0,3,,,,,,,,,2,,,59,0
11040,note_on,0,0,3,,,,,,,,,2,,,53,36
11040,note_on,0,0,3,,,,,,,,,2,,,59,36
11040,note_on,240,0,1,,,,,,,,,0,,,64,0
11040,note_on,360,0,4,,,,,,,,,3,,,45,0
11040,note_on,0,0,3,,,,,,,,,2,,,52,0
11040,note_on,240,0,3,,,,,,,,,2,,,57,0
11040,note_on,0,0,1,,,,,,,,,0,,,68,49
11040,note_on,240,0,2,,,,,,,,,1,,,60,0
11040,note_on,0,0,4,,,,,,,,,3,,,45,36
11040,note_on,0,0,2,,,,,,,,,1,,,62,36
11085,set_tempo,1125,1,0,,,,,,909091,,,,,,,
11100,note_on,0,0,1,,,,,,,,,0,,,71,75
11100,note_on,60,0,1,,,,,,,,,0,,,68,0
11104,note_on,4,0,1,,,,,,,,,0,,,71,0
11130,set_tempo,45,1,0,,,,,,952381,,,,,,,
11160,note_on,56,0,1,,,,,,,,,0,,,64,49
11160,note_on,120,0,2,,,,,,,,,1,,,62,0
11160,note_on,0,0,3,,,,,,,,,2,,,52,36
11160,note_on,0,0,2,,,,,,,,,1,,,60,36
11160,note_on,0,0,3,,,,,,,,,2,,,53,0
11160,note_on,120,0,3,,,,,,,,,2,,,59,0
11160,note_on,0,0,3,,,,,,,,,2,,,57,36
11175,set_tempo,45,1,0,,,,,,1000000,,,,,,,
11220,set_tempo,45,1,0,,,,,,1071429,,,,,,,
11265,set_tempo,45,1,0,,,,,,1132075,,,,,,,
11310,set_tempo,45,1,0,,,,,,1200000,,,,,,,
11355,set_tempo,45,1,0,,,,,,1276596,,,,,,,
11400,set_tempo,45,1,0,,,,,,1395349,,,,,,,
11400,note_on,240,0,1,,,,,,,,,0,,,64,0
11400,note_on,0,0,1,,,,,,,,,0,,,68,49
11400,note_on,0,0,3,,,,,,,,,2,,,59,36
11400,note_on,0,0,4,,,,,,,,,3,,,45,36
11400,note_on,240,0,2,,,,,,,,,1,,,60,0
11400,note_on,0,0,2,,,,,,,,,1,,,62,36
11400,note_on,0,0,3,,,,,,,,,2,,,52,0
11400,note_on,240,0,3,,,,,,,,,2,,,57,0
11400,note_on,0,0,3,,,,,,,,,2,,,53,36
11400,note_on,360,0,4,,,,,,,,,3,,,45,0
11460,note_on,60,0,1,,,,,,,,,0,,,68,0
11460,note_on,0,0,1,,,,,,,,,0,,,71,75
11464,note_on,4,0,1,,,,,,,,,0,,,71,0
11520,note_on,0,0,3,,,,,,,,,2,,,65,49
11520,note_on,120,0,2,,,,,,,,,1,,,62,0
11520,note_on,0,0,3,,,,,,,,,2,,,53,0
11520,note_on,120,0,4,,,,,,,,,3,,,45,0
11520,note_on,120,0,3,,,,,,,,,2,,,59,0
12000,note_on,0,0,3,,,,,,,,,2,,,56,49
12000,note_on,480,0,3,,,,,,,,,2,,,65,0
12120,note_on,120,0,3,,,,,,,,,2,,,56,0
12120,time_signature,720,1,0,6,8,12,8,,,,,,,,,
12120,set_tempo,0,1,0,,,,,,674157,,,,,,,
12420,note_on,0,0,1,,,,,,,,,0,,,76,49
12420,note_on,0,0,1,,,,,,,,,0,,,64,49
12420,control_change,956,0,1,,,,,,,,,0,64,127,,
12426,note_on,0,0,1,,,,,,,,,0,,,64,0
12426,note_on,6,0,1,,,,,,,,,0,,,76,0
12480,note_on,0,0,1,,,,,,,,,0,,,76,49
12480,note_on,54,0,1,,,,,,,,,0,,,64,49
12492,note_on,12,0,1,,,,,,,,,0,,,76,0
12492,note_on,0,0,1,,,,,,,,,0,,,64,0
12600,note_on,108,0,1,,,,,,,,,0,,,64,49
12600,note_on,0,0,1,,,,,,,,,0,,,76,49
12606,note_on,0,0,1,,,,,,,,,0,,,64,0
12606,note_on,6,0,1,,,,,,,,,0,,,76,0
12660,note_on,54,0,1,,,,,,,,,0,,,64,49
12660,note_on,0,0,1,,,,,,,,,0,,,76,49
12672,note_on,12,0,1,,,,,,,,,0,,,76,0
12672,note_on,0,0,1,,,,,,,,,0,,,64,0
12780,control_change,108,0,1,,,,,,,,,0,64,0,,
12780,note_on,0,0,1,,,,,,,,,0,,,76,49
12780,note_on,0,0,1,,,,,,,,,0,,,64,49
12786,note_on,6,0,1,,,,,,,,,0,,,76,0
12786,note_on,0,0,1,,,,,,,,,0,,,64,0
12840,note_on,0,0,1,,,,,,,,,0,,,76,49
12840,note_on,720,0,3,,,,,,,,,2,,,45,36
12840,key_signature,720,1,0,,,,,A,,,,,,,,
12840,control_change,54,0,1,,,,,,,,,0,64,127,,
12840,note_on,0,0,1,,,,,,,,,0,,,64,49
12845,note_on,5,0,3,,,,,,,,,2,,,45,0
12852,note_on,12,0,1,,,,,,,,,0,,,76,0
12852,note_on,0,0,1,,,,,,,,,0,,,64,0
12892,note_on,47,0,3,,,,,,,,,2,,,49,36
12900,note_on,8,0,3,,,,,,,,,2,,,49,0
12900,note_on,0,0,3,,,,,,,,,2,,,52,36
12905,note_on,5,0,3,,,,,,,,,2,,,52,0
12952,note_on,47,0,3,,,,,,,,,2,,,52,36
12960,note_on,0,0,3,,,,,,,,,2,,,57,36
12960,note_on,8,0,3,,,,,,,,,2,,,52,0
12960,note_on,0,0,1,,,,,,,,,0,,,76,49
12960,note_on,108,0,1,,,,,,,,,0,,,64,49
12965,note_on,5,0,3,,,,,,,,,2,,,57,0
12966,note_on,0,0,1,,,,,,,,,0,,,64,0
12966,note_on,6,0,1,,,,,,,,,0,,,76,0
13012,note_on,47,0,3,,,,,,,,,2,,,57,36
13020,note_on,54,0,1,,,,,,,,,0,,,64,49
13020,note_on,0,0,3,,,,,,,,,2,,,61,62
13020,note_on,0,0,1,,,,,,,,,0,,,76,49
13020,note_on,8,0,3,,,,,,,,,2,,,57,0
13032,note_on,12,0,3,,,,,,,,,2,,,61,0
13032,note_on,12,0,1,,,,,,,,,0,,,76,0
13032,note_on,0,0,1,,,,,,,,,0,,,64,0
13140,control_change,108,0,1,,,,,,,,,0,64,0,,
13140,note_on,0,0,1,,,,,,,,,0,,,76,49
13140,note_on,0,0,1,,,,,,,,,0,,,64,49
13146,note_on,0,0,1,,,,,,,,,0,,,64,0
13146,note_on,6,0,1,,,,,,,,,0,,,76,0
13200,note_on,0,0,1,,,,,,,,,0,,,64,49
13200,control_change,54,0,1,,,,,,,,,0,64,127,,
13200,note_on,168,0,3,,,,,,,,,2,,,45,36
13200,note_on,0,0,1,,,,,,,,,0,,,76,49
13205,note_on,5,0,3,,,,,,,,,2,,,45,0
13212,note_on,0,0,1,,,,,,,,,0,,,64,0
13212,note_on,12,0,1,,,,,,,,,0,,,76,0
13252,note_on,47,0,3,,,,,,,,,2,,,49,36
13260,note_on,8,0,3,,,,,,,,,2,,,49,0
13260,note_on,0,0,3,,,,,,,,,2,,,52,36
13265,note_on,5,0,3,,,,,,,,,2,,,52,0
13312,note_on,47,0,3,,,,,,,,,2,,,52,36
13320,note_on,8,0,3,,,,,,,,,2,,,52,0
13320,note_on,0,0,3,,,,,,,,,2,,,57,36
13320,note_on,0,0,1,,,,,,,,,0,,,76,49
13320,note_on,108,0,1,,,,,,,,,0,,,64,49
13325,note_on,5,0,3,,,,,,,,,2,,,57,0
13326,note_on,6,0,1,,,,,,,,,0,,,76,0
13326,note_on,0,0,1,,,,,,,,,0,,,64,0
13372,note_on,47,0,3,,,,,,,,,2,,,57,36
13380,note_on,54,0,1,,,,,,,,,0,,,64,49
13380,note_on,0,0,3,,,,,,,,,2,,,61,62
13380,note_on,0,0,1,,,,,,,,,0,,,76,49
13380,note_on,8,0,3,,,,,,,,,2,,,57,0
13392,note_on,12,0,3,,,,,,,,,2,,,61,0
13392,note_on,0,0,1,,,,,,,,,0,,,64,0
13392,note_on,12,0,1,,,,,,,,,0,,,76,0
13500,control_change,108,0,1,,,,,,,,,0,64,0,,
13500,note_on,0,0,1,,,,,,,,,0,,,76,49
13500,note_on,0,0,1,,,,,,,,,0,,,64,49
13506,note_on,0,0,1,,,,,,,,,0,,,64,0
13506,note_on,6,0,1,,,,,,,,,0,,,76,0
13560,note_on,168,0,3,,,,,,,,,2,,,44,36
13560,control_change,54,0,1,,,,,,,,,0,64,127,,
13560,note_on,0,0,1,,,,,,,,,0,,,77,49
13560,note_on,0,0,1,,,,,,,,,0,,,65,49
13565,note_on,5,0,3,,,,,,,,,2,,,44,0
13572,note_on,0,0,1,,,,,,,,,0,,,65,0
13572,note_on,12,0,1,,,,,,,,,0,,,77,0
13612,note_on,47,0,3,,,,,,,,,2,,,49,36
13620,note_on,0,0,3,,,,,,,,,2,,,53,36
13620,note_on,8,0,3,,,,,,,,,2,,,49,0
13625,note_on,5,0,3,,,,,,,,,2,,,53,0
13672,note_on,47,0,3,,,,,,,,,2,,,53,36
13680,note_on,108,0,1,,,,,,,,,0,,,65,49
13680,note_on,0,0,1,,,,,,,,,0,,,77,49
13680,note_on,8,0,3,,,,,,,,,2,,,53,0
13680,note_on,0,0,3,,,,,,,,,2,,,59,36
13685,note_on,5,0,3,,,,,,,,,2,,,59,0
13686,note_on,6,0,1,,,,,,,,,0,,,77,0
13686,note_on,0,0,1,,,,,,,,,0,,,65,0
13732,note_on,47,0,3,,,,,,,,,2,,,59,36
13740,note_on,8,0,3,,,,,,,,,2,,,59,0
13740,note_on,0,0,1,,,,,,,,,0,,,77,49
13740,note_on,54,0,1,,,,,,,,,0,,,65,49
13740,note_on,0,0,3,,,,,,,,,2,,,61,62
13752,note_on,12,0,1,,,,,,,,,0,,,77,0
13752,note_on,0,0,1,,,,,,,,,0,,,65,0
13752,note_on,12,0,3,,,,,,,,,2,,,61,0
13860,control_change,108,0,1,,,,,,,,,0,64,0,,
13860,note_on,0,0,1,,,,,,,,,0,,,77,62
13860,note_on,0,0,1,,,,,,,,,0,,,65,62
13866,note_on,0,0,1,,,,,,,,,0,,,65,0
13866,note_on,6,0,1,,,,,,,,,0,,,77,0
13920,note_on,0,0,1,,,,,,,,,0,,,78,62
13920,note_on,0,0,1,,,,,,,,,0,,,66,62
13920,note_on,168,0,3,,,,,,,,,2,,,42,62
13920,control_change,54,0,1,,,,,,,,,0,64,127,,
13925,note_on,5,0,3,,,,,,,,,2,,,42,0
13932,note_on,0,0,1,,,,,,,,,0,,,66,0
13932,note_on,12,0,1,,,,,,,,,0,,,78,0
13965,set_tempo,1125,1,0,,,,,,697674,,,,,,,
13972,note_on,47,0,3,,,,,,,,,2,,,49,62
13980,note_on,8,0,3,,,,,,,,,2,,,49,0
13980,note_on,0,0,3,,,,,,,,,2,,,54,62
13985,note_on,5,0,3,,,,,,,,,2,,,54,0
14010,set_tempo,45,1,0,,,,,,722892,,,,,,,
14032,note_on,47,0,3,,,,,,,,,2,,,54,62
14040,note_on,8,0,3,,,,,,,,,2,,,54,0
14040,control_change,108,0,1,,,,,,,,,0,64,0,,
14040,note_on,0,0,1,,,,,,,,,0,,,66,75
14040,note_on,0,0,1,,,,,,,,,0,,,78,75
14040,note_on,0,0,3,,,,,,,,,2,,,57,62
14046,note_on,6,0,1,,,,,,,,,0,,,78,0
14046,note_on,0,0,1,,,,,,,,,0,,,66,0
14046,note_on,6,0,3,,,,,,,,,2,,,57,0
14055,set_tempo,45,1,0,,,,,,750000,,,,,,,
14100,note_on,54,0,3,,,,,,,,,2,,,40,62
14100,note_on,0,0,1,,,,,,,,,0,,,68,75
14100,note_on,0,0,1,,,,,,,,,0,,,80,75
14100,control_change,54,0,1,,,,,,,,,0,64,127,,
14100,set_tempo,45,1,0,,,,,,789474,,,,,,,
14105,note_on,5,0,3,,,,,,,,,2,,,40,0
14109,note_on,0,0,1,,,,,,,,,0,,,68,0
14109,note_on,9,0,1,,,,,,,,,0,,,80,0
14145,set_tempo,45,1,0,,,,,,821918,,,,,,,
14152,note_on,47,0,3,,,,,,,,,2,,,52,62
14160,note_on,0,0,3,,,,,,,,,2,,,59,62
14160,note_on,8,0,3,,,,,,,,,2,,,52,0
14165,note_on,5,0,3,,,,,,,,,2,,,59,0
14190,set_tempo,45,1,0,,,,,,857143,,,,,,,
14190,note_on,81,0,1,,,,,,,,,0,,,69,75
14190,note_on,0,0,1,,,,,,,,,0,,,81,75
14194,note_on,4,0,1,,,,,,,,,0,,,81,0
14194,note_on,0,0,1,,,,,,,,,0,,,69,0
14212,note_on,47,0,3,,,,,,,,,2,,,56,62
14220,note_on,8,0,3,,,,,,,,,2,,,56,0
14220,note_on,0,0,1,,,,,,,,,0,,,83,62
14220,note_on,0,0,3,,,,,,,,,2,,,62,62
14220,note_on,0,0,1,,,,,,,,,0,,,71,62
14220,control_change,26,0,1,,,,,,,,,0,64,0,,
14226,note_on,6,0,1,,,,,,,,,0,,,83,0
14226,note_on,6,0,3,,,,,,,,,2,,,62,0
14226,note_on,0,0,1,,,,,,,,,0,,,71,0
14235,set_tempo,45,1,0,,,,,,895522,,,,,,,
14280,note_on,54,0,1,,,,,,,,,0,,,69,75
14280,note_on,0,0,1,,,,,,,,,0,,,81,75
14280,note_on,54,0,3,,,,,,,,,2,,,45,62
14280,set_tempo,45,1,0,,,,,,705882,,,,,,,
14285,note_on,5,0,3,,,,,,,,,2,,,45,0
14332,note_on,47,0,3,,,,,,,,,2,,,49,62
14340,note_on,0,0,3,,,,,,,,,2,,,52,62
14340,note_on,8,0,3,,,,,,,,,2,,,49,0
14345,note_on,5,0,3,,,,,,,,,2,,,52,0
14392,note_on,47,0,3,,,,,,,,,2,,,52,62
14400,note_on,120,0,1,,,,,,,,,0,,,81,0
14400,control_change,0,0,1,,,,,,,,,0,64,127,,
14400,note_on,0,0,1,,,,,,,,,0,,,64,49
14400,note_on,0,0,1,,,,,,,,,0,,,76,49
14400,note_on,0,0,1,,,,,,,,,0,,,69,0
14400,note_on,8,0,3,,,,,,,,,2,,,52,0
14400,note_on,0,0,3,,,,,,,,,2,,,57,62
14405,note_on,5,0,3,,,,,,,,,2,,,57,0
14406,note_on,6,0,1,,,,,,,,,0,,,76,0
14406,note_on,0,0,1,,,,,,,,,0,,,64,0
14452,note_on,47,0,3,,,,,,,,,2,,,57,62
14460,note_on,0,0,3,,,,,,,,,2,,,61,88
14460,note_on,8,0,3,,,,,,,,,2,,,57,0
14460,note_on,54,0,1,,,,,,,,,0,,,64,49
14460,note_on,0,0,1,,,,,,,,,0,,,76,49
14472,note_on,12,0,1,,,,,,,,,0,,,76,0
14472,note_on,0,0,1,,,,,,,,,0,,,64,0
14472,note_on,12,0,3,,,,,,,,,2,,,61,0
14580,note_on,0,0,1,,,,,,,,,0,,,64,49
14580,note_on,0,0,1,,,,,,,,,0,,,76,49
14580,control_change,108,0,1,,,,,,,,,0,64,0,,
14580,note_on,3060,0,2,,,,,,,,,1,,,73,75
14586,note_on,6,0,1,,,,,,,,,0,,,76,0
14586,note_on,0,0,1,,,,,,,,,0,,,64,0
14640,note_on,60,0,2,,,,,,,,,1,,,73,0
14640,note_on,0,0,1,,,,,,,,,0,,,76,49
14640,note_on,0,0,2,,,,,,,,,1,,,73,75
14640,control_change,54,0,1,,,,,,,,,0,64,127,,
14640,note_on,0,0,1,,,,,,,,,0,,,64,49
14640,note_on,168,0,3,,,,,,,,,2,,,45,62
14645,note_on,5,0,3,,,,,,,,,2,,,45,0
14652,note_on,12,0,1,,,,,,,,,0,,,76,0
14652,note_on,0,0,1,,,,,,,,,0,,,64,0
14692,note_on,47,0,3,,,,,,,,,2,,,49,62
14700,note_on,8,0,3,,,,,,,,,2,,,49,0
14700,note_on,0,0,3,,,,,,,,,2,,,52,62
14705,note_on,5,0,3,,,,,,,,,2,,,52,0
14752,note_on,47,0,3,,,,,,,,,2,,,52,62
14760,note_on,0,0,1,,,,,,,,,0,,,76,49
14760,note_on,8,0,3,,,,,,,,,2,,,52,0
14760,note_on,108,0,1,,,,,,,,,0,,,64,49
14760,note_on,0,0,3,,,,,,,,,2,,,57,62
14765,note_on,5,0,3,,,,,,,,,2,,,57,0
14766,note_on,0,0,1,,,,,,,,,0,,,64,0
14766,note_on,6,0,1,,,,,,,,,0,,,76,0
14812,note_on,47,0,3,,,,,,,,,2,,,57,62
14820,note_on,8,0,3,,,,,,,,,2,,,57,0
14820,note_on,54,0,1,,,,,,,,,0,,,64,49
14820,note_on,0,0,3,,,,,,,,,2,,,61,88
14820,note_on,0,0,1,,,,,,,,,0,,,76,49
14832,note_on,12,0,1,,,,,,,,,0,,,76,0
14832,note_on,0,0,1,,,,,,,,,0,,,64,0
14832,note_on,12,0,3,,,,,,,,,2,,,61,0
14940,control_change,108,0,1,,,,,,,,,0,64,0,,
14940,note_on,0,0,1,,,,,,,,,0,,,76,49
14940,note_on,300,0,2,,,,,,,,,1,,,73,0
14940,note_on,0,0,1,,,,,,,,,0,,,64,49
14940,note_on,0,0,2,,,,,,,,,1,,,69,75
14946,note_on,0,0,1,,,,,,,,,0,,,64,0
14946,note_on,6,0,1,,,,,,,,,0,,,76,0
15000,note_on,60,0,2,,,,,,,,,1,,,69,0
15000,note_on,0,0,1,,,,,,,,,0,,,76,49
15000,note_on,0,0,2,,,,,,,,,1,,,64,75
15000,control_change,54,0,1,,,,,,,,,0,64,127,,
15000,note_on,168,0,3,,,,,,,,,2,,,45,62
15005,note_on,5,0,3,,,,,,,,,2,,,45,0
15012,note_on,12,0,1,,,,,,,,,0,,,76,0
15052,note_on,47,0,3,,,,,,,,,2,,,49,62
15060,note_on,0,0,3,,,,,,,,,2,,,52,62
15060,note_on,8,0,3,,,,,,,,,2,,,49,0
15065,note_on,5,0,3,,,,,,,,,2,,,52,0
15112,note_on,47,0,3,,,,,,,,,2,,,52,62
15120,note_on,8,0,3,,,,,,,,,2,,,52,0
15120,note_on,120,0,2,,,,,,,,,1,,,64,0
15120,note_on,0,0,3,,,,,,,,,2,,,57,62
15120,note_on,0,0,2,,,,,,,,,1,,,64,75
15120,note_on,108,0,1,,,,,,,,,0,,,76,49
15125,note_on,5,0,3,,,,,,,,,2,,,57,0
15126,note_on,6,0,1,,,,,,,,,0,,,76,0
15165,note_on,45,0,2,,,,,,,,,1,,,66,75
15172,note_on,47,0,3,,,,,,,,,2,,,57,62
15180,note_on,54,0,1,,,,,,,,,0,,,76,49
15180,note_on,15,0,2,,,,,,,,,1,,,66,0
15180,note_on,8,0,3,,,,,,,,,2,,,57,0
15180,note_on,0,0,2,,,,,,,,,1,,,64,75
15180,note_on,0,0,2,,,,,,,,,1,,,64,0
15180,note_on,0,0,3,,,,,,,,,2,,,61,88
15192,note_on,12,0,3,,,,,,,,,2,,,61,0
15192,note_on,12,0,1,,,,,,,,,0,,,76,0
15240,note_on,0,0,2,,,,,,,,,1,,,63,75
15240,note_on,60,0,2,,,,,,,,,1,,,64,0
15300,note_on,0,0,1,,,,,,,,,0,,,76,49
15300,note_on,0,0,2,,,,,,,,,1,,,64,75
15300,control_change,108,0,1,,,,,,,,,0,64,0,,
15300,note_on,60,0,2,,,,,,,,,1,,,63,0
15306,note_on,6,0,1,,,,,,,,,0,,,76,0
15360,note_on,0,0,1,,,,,,,,,0,,,76,49
15360,control_change,54,0,1,,,,,,,,,0,64,127,,
15360,note_on,0,0,2,,,,,,,,,1,,,66,75
15360,note_on,168,0,3,,,,,,,,,2,,,44,62
15360,note_on,60,0,2,,,,,,,,,1,,,64,0
15365,note_on,5,0,3,,,,,,,,,2,,,44,0
15372,note_on,12,0,1,,,,,,,,,0,,,76,0
15412,note_on,47,0,3,,,,,,,,,2,,,50,62
15420,note_on,0,0,3,,,,,,,,,2,,,52,62
15420,note_on,8,0,3,,,,,,,,,2,,,50,0
15425,note_on,5,0,3,,,,,,,,,2,,,52,0
15472,note_on,47,0,3,,,,,,,,,2,,,52,62
15480,note_on,8,0,3,,,,,,,,,2,,,52,0
15480,note_on,0,0,1,,,,,,,,,0,,,76,49
15480,note_on,108,0,1,,,,,,,,,0,,,64,49
15480,note_on,0,0,3,,,,,,,,,2,,,59,62
15486,note_on,6,0,1,,,,,,,,,0,,,76,0
15486,note_on,6,0,3,,,,,,,,,2,,,59,0
15486,note_on,0,0,1,,,,,,,,,0,,,64,0
15536,note_on,50,0,3,,,,,,,,,2,,,59,62
15540,note_on,180,0,2,,,,,,,,,1,,,66,0
15540,note_on,0,0,2,,,,,,,,,1,,,64,75
15540,note_on,54,0,1,,,,,,,,,0,,,76,49
15543,note_on,7,0,3,,,,,,,,,2,,,62,88
15544,note_on,1,0,3,,,,,,,,,2,,,59,0
15552,note_on,12,0,1,,,,,,,,,0,,,76,0
15555,note_on,11,0,3,,,,,,,,,2,,,62,0
15660,control_change,108,0,1,,,,,,,,,0,64,0,,
15660,note_on,120,0,2,,,,,,,,,1,,,64,0
15660,note_on,0,0,1,,,,,,,,,0,,,64,49
15660,note_on,0,0,1,,,,,,,,,0,,,76,49
15666,note_on,6,0,1,,,,,,,,,0,,,76,0
15666,note_on,0,0,1,,,,,,,,,0,,,64,0
15720,note_on,54,0,1,,,,,,,,,0,,,66,49
15720,note_on,165,0,3,,,,,,,,,2,,,44,62
15720,note_on,0,0,1,,,,,,,,,0,,,78,49
15725,note_on,5,0,3,,,,,,,,,2,,,44,0
15772,note_on,47,0,3,,,,,,,,,2,,,50,62
15780,note_on,8,0,3,,,,,,,,,2,,,50,0
15780,note_on,0,0,3,,,,,,,,,2,,,52,62
15785,note_on,5,0,3,,,,,,,,,2,,,52,0
15832,note_on,47,0,3,,,,,,,,,2,,,52,62
15840,note_on,8,0,3,,,,,,,,,2,,,52,0
15840,note_on,120,0,1,,,,,,,,,0,,,78,0
15840,note_on,0,0,1,,,,,,,,,0,,,64,49
15840,note_on,0,0,3,,,,,,,,,2,,,59,62
15840,note_on,0,0,1,,,,,,,,,0,,,66,0
15840,note_on,0,0,1,,,,,,,,,0,,,76,49
15846,note_on,6,0,3,,,,,,,,,2,,,59,0
15896,note_on,50,0,3,,,,,,,,,2,,,59,62
15900,note_on,60,0,1,,,,,,,,,0,,,76,0
15900,note_on,0,0,1,,,,,,,,,0,,,76,49
15900,note_on,0,0,1,,,,,,,,,0,,,64,49
15900,note_on,0,0,1,,,,,,,,,0,,,64,0
15903,note_on,7,0,3,,,,,,,,,2,,,62,88
15904,note_on,1,0,3,,,,,,,,,2,,,59,0
15915,note_on,11,0,3,,,,,,,,,2,,,62,0
16020,note_on,360,0,2,,,,,,,,,1,,,65,75
16020,note_on,120,0,1,,,,,,,,,0,,,76,0
16020,note_on,0,0,1,,,,,,,,,0,,,64,0
16020,note_on,0,0,1,,,,,,,,,0,,,77,49
16023,note_on,0,0,3,,,,,,,,,2,,,59,62
16023,note_on,0,0,3,,,,,,,,,2,,,56,62
16023,note_on,108,0,3,,,,,,,,,2,,,49,62
16068,note_on,0,0,3,,,,,,,,,2,,,49,0
16068,note_on,45,0,3,,,,,,,,,2,,,59,0
16068,note_on,0,0,3,,,,,,,,,2,,,56,0
16080,note_on,60,0,1,,,,,,,,,0,,,77,0
16080,note_on,12,0,3,,,,,,,,,2,,,42,62
16080,control_change,0,0,1,,,,,,,,,0,64,127,,
16080,note_on,60,0,2,,,,,,,,,1,,,65,0
16080,note_on,0,0,2,,,,,,,,,1,,,66,75
16080,note_on,0,0,1,,,,,,,,,0,,,78,49
16085,note_on,5,0,3,,,,,,,,,2,,,42,0
16092,note_on,12,0,1,,,,,,,,,0,,,78,0
16132,note_on,47,0,3,,,,,,,,,2,,,49,62
16140,note_on,0,0,3,,,,,,,,,2,,,54,62
16140,note_on,8,0,3,,,,,,,,,2,,,49,0
16145,note_on,5,0,3,,,,,,,,,2,,,54,0
16192,note_on,47,0,3,,,,,,,,,2,,,54,62
16200,note_on,0,0,1,,,,,,,,,0,,,78,49
16200,note_on,8,0,3,,,,,,,,,2,,,54,0
16200,note_on,108,0,1,,,,,,,,,0,,,66,49
16200,note_on,0,0,3,,,,,,,,,2,,,57,62
16205,note_on,5,0,3,,,,,,,,,2,,,57,0
16206,note_on,6,0,1,,,,,,,,,0,,,78,0
16206,note_on,0,0,1,,,,,,,,,0,,,66,0
16252,note_on,47,0,3,,,,,,,,,2,,,57,62
16260,note_on,0,0,1,,,,,,,,,0,,,78,49
16260,note_on,54,0,1,,,,,,,,,0,,,66,49
16260,note_on,0,0,3,,,,,,,,,2,,,61,88
16260,note_on,8,0,3,,,,,,,,,2,,,57,0
16272,note_on,12,0,1,,,,,,,,,0,,,78,0
16272,note_on,12,0,3,,,,,,,,,2,,,61,0
16272,note_on,0,0,1,,,,,,,,,0,,,66,0
16380,control_change,108,0,1,,,,,,,,,0,64,0,,
16380,note_on,0,0,1,,,,,,,,,0,,,80,49
16380,note_on,0,0,2,,,,,,,,,1,,,68,75
16380,note_on,300,0,2,,,,,,,,,1,,,66,0
16386,note_on,6,0,1,,,,,,,,,0,,,80,0
16410,note_on,30,0,2,,,,,,,,,1,,,69,75
16425,note_on,15,0,2,,,,,,,,,1,,,69,0
16425,note_on,0,0,2,,,,,,,,,1,,,71,75
16440,note_on,15,0,2,,,,,,,,,1,,,71,0
16440,note_on,0,0,2,,,,,,,,,1,,,68,0
16440,note_on,54,0,1,,,,,,,,,0,,,81,49
16440,note_on,168,0,3,,,,,,,,,2,,,40,62
16440,note_on,0,0,2,,,,,,,,,1,,,69,75
16445,note_on,5,0,3,,,,,,,,,2,,,40,0
16492,note_on,47,0,3,,,,,,,,,2,,,49,62
16500,note_on,0,0,2,,,,,,,,,1,,,68,75
16500,note_on,60,0,2,,,,,,,,,1,,,69,0
16500,note_on,0,0,3,,,,,,,,,2,,,52,62
16500,note_on,8,0,3,,,,,,,,,2,,,49,0
16505,note_on,5,0,3,,,,,,,,,2,,,52,0
16552,note_on,47,0,3,,,,,,,,,2,,,52,62
16560,note_on,8,0,3,,,,,,,,,2,,,52,0
16560,note_on,120,0,1,,,,,,,,,0,,,81,0
16560,note_on,60,0,2,,,,,,,,,1,,,68,0
16560,note_on,0,0,1,,,,,,,,,0,,,76,49
16560,note_on,0,0,2,,,,,,,,,1,,,69,101
16560,control_change,0,0,1,,,,,,,,,0,64,127,,
16560,note_on,0,0,3,,,,,,,,,2,,,57,62
16560,note_on,0,0,1,,,,,,,,,0,,,64,49
16566,note_on,6,0,3,,,,,,,,,2,,,57,0
16566,note_on,6,0,1,,,,,,,,,0,,,76,0
16566,note_on,0,0,1,,,,,,,,,0,,,64,0
16620,note_on,0,0,2,,,,,,,,,1,,,73,75
16620,note_on,54,0,3,,,,,,,,,2,,,40,62
16620,note_on,54,0,1,,,,,,,,,0,,,64,49
16620,note_on,0,0,1,,,,,,,,,0,,,76,49
16620,note_on,60,0,2,,,,,,,,,1,,,69,0
16625,note_on,5,0,3,,,,,,,,,2,,,40,0
16632,note_on,12,0,1,,,,,,,,,0,,,76,0
16632,note_on,0,0,1,,,,,,,,,0,,,64,0
16672,note_on,47,0,3,,,,,,,,,2,,,50,62
16680,note_on,8,0,3,,,,,,,,,2,,,50,0
16680,note_on,0,0,3,,,,,,,,,2,,,52,62
16685,note_on,5,0,3,,,,,,,,,2,,,52,0
16732,note_on,47,0,3,,,,,,,,,2,,,52,62
16740,note_on,0,0,1,,,,,,,,,0,,,64,49
16740,note_on,0,0,2,,,,,,,,,1,,,71,75
16740,note_on,0,0,3,,,,,,,,,2,,,56,62
16740,note_on,120,0,2,,,,,,,,,1,,,73,0
16740,note_on,0,0,1,,,,,,,,,0,,,76,49
16740,note_on,8,0,3,,,,,,,,,2,,,52,0
16740,control_change,108,0,1,,,,,,,,,0,64,0,,
16746,note_on,0,0,1,,,,,,,,,0,,,64,0
16746,note_on,6,0,1,,,,,,,,,0,,,76,0
16746,note_on,6,0,3,,,,,,,,,2,,,56,0
16800,note_on,0,0,1,,,,,,,,,0,,,76,62
16800,note_on,54,0,3,,,,,,,,,2,,,45,62
16800,note_on,0,0,2,,,,,,,,,1,,,69,75
16800,note_on,54,0,1,,,,,,,,,0,,,64,62
16800,note_on,60,0,2,,,,,,,,,1,,,71,0
16805,note_on,5,0,3,,,,,,,,,2,,,45,0
16845,set_tempo,2565,1,0,,,,,,731707,,,,,,,
16852,note_on,47,0,3,,,,,,,,,2,,,49,62
16860,note_on,0,0,1,,,,,,,,,0,,,80,62
16860,note_on,8,0,3,,,,,,,,,2,,,49,0
16860,note_on,60,0,1,,,,,,,,,0,,,76,0
16860,note_on,0,0,1,,,,,,,,,0,,,64,0
16860,note_on,0,0,3,,,,,,,,,2,,,52,62
16860,note_on,0,0,1,,,,,,,,,0,,,68,62
16865,note_on,5,0,3,,,,,,,,,2,,,52,0
16890,set_tempo,45,1,0,,,,,,759494,,,,,,,
16912,note_on,47,0,3,,,,,,,,,2,,,52,62
16920,note_on,60,0,1,,,,,,,,,0,,,80,0
16920,note_on,0,0,1,,,,,,,,,0,,,68,0
16920,note_on,120,0,2,,,,,,,,,1,,,69,0
16920,note_on,0,0,1,,,,,,,,,0,,,81,75
16920,note_on,0,0,3,,,,,,,,,2,,,57,62
16920,note_on,8,0,3,,,,,,,,,2,,,52,0
16920,note_on,0,0,1,,,,,,,,,0,,,69,75
16926,note_on,6,0,3,,,,,,,,,2,,,57,0
16935,set_tempo,45,1,0,,,,,,789474,,,,,,,
16980,set_tempo,45,1,0,,,,,,833333,,,,,,,
16980,note_on,0,0,1,,,,,,,,,0,,,73,75
16980,note_on,0,0,1,,,,,,,,,0,,,69,0
16980,note_on,54,0,3,,,,,,,,,2,,,40,62
16980,note_on,0,0,1,,,,,,,,,0,,,85,75
16980,note_on,60,0,1,,,,,,,,,0,,,81,0
16985,note_on,5,0,3,,,,,,,,,2,,,40,0
17025,set_tempo,45,1,0,,,,,,869565,,,,,,,
17032,note_on,47,0,3,,,,,,,,,2,,,50,62
17040,note_on,8,0,3,,,,,,,,,2,,,50,0
17040,note_on,0,0,3,,,,,,,,,2,,,52,62
17045,note_on,5,0,3,,,,,,,,,2,,,52,0
17070,set_tempo,45,1,0,,,,,,909091,,,,,,,
17092,note_on,47,0,3,,,,,,,,,2,,,52,62
17100,note_on,120,0,1,,,,,,,,,0,,,85,0
17100,note_on,8,0,3,,,,,,,,,2,,,52,0
17100,note_on,0,0,1,,,,,,,,,0,,,71,62
17100,note_on,0,0,1,,,,,,,,,0,,,73,0
17100,note_on,0,0,1,,,,,,,,,0,,,83,62
17100,note_on,0,0,3,,,,,,,,,2,,,56,62
17106,note_on,6,0,3,,,,,,,,,2,,,56,0
17115,set_tempo,45,1,0,,,,,,952381,,,,,,,
17160,set_tempo,45,1,0,,,,,,705882,,,,,,,
17160,note_on,0,0,1,,,,,,,,,0,,,71,0
17160,note_on,0,0,1,,,,,,,,,0,,,81,75
17160,note_on,54,0,3,,,,,,,,,2,,,45,62
17160,note_on,0,0,1,,,,,,,,,0,,,69,75
17160,note_on,60,0,1,,,,,,,,,0,,,83,0
17165,note_on,5,0,3,,,,,,,,,2,,,45,0
17212,note_on,47,0,3,,,,,,,,,2,,,49,62
17220,note_on,0,0,3,,,,,,,,,2,,,52,62
17220,note_on,8,0,3,,,,,,,,,2,,,49,0
17225,note_on,5,0,3,,,,,,,,,2,,,52,0
17272,note_on,47,0,3,,,,,,,,,2,,,52,62
17280,note_on,8,0,3,,,,,,,,,2,,,52,0
17280,control_change,0,0,1,,,,,,,,,0,64,127,,
17280,note_on,0,0,1,,,,,,,,,0,,,64,49
17280,note_on,0,0,1,,,,,,,,,0,,,69,0
17280,note_on,0,0,3,,,,,,,,,2,,,57,62
17280,note_on,0,0,1,,,,,,,,,0,,,76,49
17280,note_on,120,0,1,,,,,,,,,0,,,81,0
17285,note_on,5,0,3,,,,,,,,,2,,,57,0
17286,note_on,6,0,1,,,,,,,,,0,,,76,0
17286,note_on,0,0,1,,,,,,,,,0,,,64,0
17332,note_on,47,0,3,,,,,,,,,2,,,57,62
17340,note_on,54,0,1,,,,,,,,,0,,,64,49
17340,note_on,0,0,3,,,,,,,,,2,,,61,88
17340,note_on,8,0,3,,,,,,,,,2,,,57,0
17340,note_on,0,0,1,,,,,,,,,0,,,76,49
17352,note_on,12,0,3,,,,,,,,,2,,,61,0
17352,note_on,12,0,1,,,,,,,,,0,,,76,0
17352,note_on,0,0,1,,,,,,,,,0,,,64,0
17460,note_on,0,0,1,,,,,,,,,0,,,64,49
17460,note_on,0,0,1,,,,,,,,,0,,,76,49
17460,control_change,108,0,1,,,,,,,,,0,64,0,,
17460,note_on,540,0,2,,,,,,,,,1,,,73,75
17466,note_on,6,0,1,,,,,,,,,0,,,76,0
17466,note_on,0,0,1,,,,,,,,,0,,,64,0
17520,control_change,54,0,1,,,,,,,,,0,64,127,,
17520,note_on,0,0,2,,,,,,,,,1,,,73,75
17520,note_on,0,0,1,,,,,,,,,0,,,64,49
17520,note_on,60,0,2,,,,,,,,,1,,,73,0
17520,note_on,0,0,1,,,,,,,,,0,,,76,49
17520,note_on,168,0,3,,,,,,,,,2,,,45,62
17525,note_on,5,0,3,,,,,,,,,2,,,45,0
17532,note_on,12,0,1,,,,,,,,,0,,,76,0
17532,note_on,0,0,1,,,,,,,,,0,,,64,0
17572,note_on,47,0,3,,,,,,,,,2,,,49,62
17580,note_on,0,0,3,,,,,,,,,2,,,52,62
17580,note_on,8,0,3,,,,,,,,,2,,,49,0
17585,note_on,5,0,3,,,,,,,,,2,,,52,0
17632,note_on,47,0,3,,,,,,,,,2,,,52,62
17640,note_on,0,0,1,,,,,,,,,0,,,76,49
17640,note_on,0,0,3,,,,,,,,,2,,,57,62
17640,note_on,8,0,3,,,,,,,,,2,,,52,0
17640,note_on,108,0,1,,,,,,,,,0,,,64,49
17645,note_on,5,0,3,,,,,,,,,2,,,57,0
17646,note_on,6,0,1,,,,,,,,,0,,,76,0
17646,note_on,0,0,1,,,,,,,,,0,,,64,0
17692,note_on,47,0,3,,,,,,,,,2,,,57,62
17700,note_on,8,0,3,,,,,,,,,2,,,57,0
17700,note_on,54,0,1,,,,,,,,,0,,,64,49
17700,note_on,0,0,1,,,,,,,,,0,,,76,49
17700,note_on,0,0,3,,,,,,,,,2,,,61,88
17712,note_on,12,0,3,,,,,,,,,2,,,61,0
17712,note_on,0,0,1,,,,,,,,,0,,,64,0
17712,note_on,12,0,1,,,,,,,,,0,,,76,0
17820,note_on,0,0,2,,,,,,,,,1,,,69,75
17820,note_on,300,0,2,,,,,,,,,1,,,73,0
17820,note_on,0,0,1,,,,,,,,,0,,,76,49
17820,note_on,0,0,1,,,,,,,,,0,,,64,49
17820,control_change,108,0,1,,,,,,,,,0,64,0,,
17826,note_on,6,0,1,,,,,,,,,0,,,76,0
17826,note_on,0,0,1,,,,,,,,,0,,,64,0
17880,note_on,0,0,2,,,,,,,,,1,,,64,75
17880,note_on,60,0,2,,,,,,,,,1,,,69,0
17880,control_change,54,0,1,,,,,,,,,0,64,127,,
17880,note_on,0,0,1,,,,,,,,,0,,,76,49
17880,note_on,168,0,3,,,,,,,,,2,,,45,62
17885,note_on,5,0,3,,,,,,,,,2,,,45,0
17892,note_on,12,0,1,,,,,,,,,0,,,76,0
17932,note_on,47,0,3,,,,,,,,,2,,,49,62
17940,note_on,8,0,3,,,,,,,,,2,,,49,0
17940,note_on,0,0,3,,,,,,,,,2,,,52,62
17945,note_on,5,0,3,,,,,,,,,2,,,52,0
17992,note_on,47,0,3,,,,,,,,,2,,,52,62
18000,note_on,0,0,3,,,,,,,,,2,,,57,62
18000,note_on,120,0,2,,,,,,,,,1,,,64,0
18000,note_on,108,0,1,,,,,,,,,0,,,76,49
18000,note_on,8,0,3,,,,,,,,,2,,,52,0
18000,note_on,0,0,2,,,,,,,,,1,,,64,75
18005,note_on,5,0,3,,,,,,,,,2,,,57,0
18006,note_on,6,0,1,,,,,,,,,0,,,76,0
18045,note_on,45,0,2,,,,,,,,,1,,,66,75
18052,note_on,47,0,3,,,,,,,,,2,,,57,62
18060,note_on,8,0,3,,,,,,,,,2,,,57,0
18060,note_on,0,0,3,,,,,,,,,2,,,61,88
18060,note_on,0,0,2,,,,,,,,,1,,,64,0
18060,note_on,54,0,1,,,,,,,,,0,,,76,49
18060,note_on,0,0,2,,,,,,,,,1,,,64,75
18060,note_on,15,0,2,,,,,,,,,1,,,66,0
18072,note_on,12,0,3,,,,,,,,,2,,,61,0
18072,note_on,12,0,1,,,,,,,,,0,,,76,0
18120,note_on,60,0,2,,,,,,,,,1,,,64,0
18120,note_on,0,0,2,,,,,,,,,1,,,63,75
18180,note_on,0,0,2,,,,,,,,,1,,,64,75
18180,note_on,60,0,2,,,,,,,,,1,,,63,0
18180,control_change,108,0,1,,,,,,,,,0,64,0,,
18180,note_on,0,0,1,,,,,,,,,0,,,76,49
18186,note_on,6,0,1,,,,,,,,,0,,,76,0
18240,note_on,60,0,2,,,,,,,,,1,,,64,0
18240,control_change,54,0,1,,,,,,,,,0,64,127,,
18240,note_on,168,0,3,,,,,,,,,2,,,44,62
18240,note_on,0,0,1,,,,,,,,,0,,,76,49
18240,note_on,0,0,2,,,,,,,,,1,,,66,75
18245,note_on,5,0,3,,,,,,,,,2,,,44,0
18252,note_on,12,0,1,,,,,,,,,0,,,76,0
18292,note_on,47,0,3,,,,,,,,,2,,,50,62
18300,note_on,8,0,3,,,,,,,,,2,,,50,0
18300,note_on,0,0,3,,,,,,,,,2,,,52,62
18305,note_on,5,0,3,,,,,,,,,2,,,52,0
18352,note_on,47,0,3,,,,,,,,,2,,,52,62
18360,note_on,0,0,3,,,,,,,,,2,,,59,62
18360,note_on,8,0,3,,,,,,,,,2,,,52,0
18360,note_on,0,0,1,,,,,,,,,0,,,76,49
18360,note_on,108,0,1,,,,,,,,,0,,,64,49
18366,note_on,6,0,1,,,,,,,,,0,,,76,0
18366,note_on,6,0,3,,,,,,,,,2,,,59,0
18366,note_on,0,0,1,,,,,,,,,0,,,64,0
18416,note_on,50,0,3,,,,,,,,,2,,,59,62
18420,note_on,54,0,1,,,,,,,,,0,,,76,49
18420,note_on,180,0,2,,,,,,,,,1,,,66,0
18420,note_on,0,0,2,,,,,,,,,1,,,64,75
18423,note_on,7,0,3,,,,,,,,,2,,,62,88
18424,note_on,1,0,3,,,,,,,,,2,,,59,0
18432,note_on,12,0,1,,,,,,,,,0,,,76,0
18435,note_on,11,0,3,,,,,,,,,2,,,62,0
18540,note_on,0,0,1,,,,,,,,,0,,,64,49
18540,note_on,120,0,2,,,,,,,,,1,,,64,0
18540,note_on,0,0,1,,,,,,,,,0,,,76,49
18540,control_change,108,0,1,,,,,,,,,0,64,0,,
18546,note_on,0,0,1,,,,,,,,,0,,,64,0
18546,note_on,6,0,1,,,,,,,,,0,,,76,0
18600,note_on,165,0,3,,,,,,,,,2,,,44,62
18600,note_on,0,0,1,,,,,,,,,0,,,78,49
18600,note_on,54,0,1,,,,,,,,,0,,,66,49
18605,note_on,5,0,3,,,,,,,,,2,,,44,0
18652,note_on,47,0,3,,,,,,,,,2,,,50,62
18660,note_on,8,0,3,,,,,,,,,2,,,50,0
18660,note_on,0,0,3,,,,,,,,,2,,,52,62
18665,note_on,5,0,3,,,,,,,,,2,,,52,0
18712,note_on,47,0,3,,,,,,,,,2,,,52,62
18720,note_on,0,0,1,,,,,,,,,0,,,66,0
18720,note_on,0,0,1,,,,,,,,,0,,,64,49
18720,note_on,0,0,1,,,,,,,,,0,,,76,49
18720,note_on,8,0,3,,,,,,,,,2,,,52,0
18720,note_on,0,0,3,,,,,,,,,2,,,59,62
18720,note_on,120,0,1,,,,,,,,,0,,,78,0
18726,note_on,6,0,3,,,,,,,,,2,,,59,0
18776,note_on,50,0,3,,,,,,,,,2,,,59,62
18780,note_on,0,0,1,,,,,,,,,0,,,76,49
18780,note_on,0,0,1,,,,,,,,,0,,,64,49
18780,note_on,0,0,1,,,,,,,,,0,,,64,0
18780,note_on,60,0,1,,,,,,,,,0,,,76,0
18783,note_on,7,0,3,,,,,,,,,2,,,62,88
18784,note_on,1,0,3,,,,,,,,,2,,,59,0
18795,note_on,11,0,3,,,,,,,,,2,,,62,0
18900,note_on,0,0,1,,,,,,,,,0,,,77,49
18900,note_on,120,0,1,,,,,,,,,0,,,76,0
18900,note_on,0,0,1,,,,,,,,,0,,,64,0
18900,note_on,360,0,2,,,,,,,,,1,,,65,75
18903,note_on,0,0,3,,,,,,,,,2,,,59,62
18903,note_on,108,0,3,,,,,,,,,2,,,49,62
18903,note_on,0,0,3,,,,,,,,,2,,,56,62
18948,note_on,45,0,3,,,,,,,,,2,,,59,0
18948,note_on,0,0,3,,,,,,,,,2,,,49,0
18948,note_on,0,0,3,,,,,,,,,2,,,56,0
18960,control_change,0,0,1,,,,,,,,,0,64,127,,
18960,note_on,12,0,3,,,,,,,,,2,,,42,62
18960,note_on,60,0,2,,,,,,,,,1,,,65,0
18960,note_on,60,0,1,,,,,,,,,0,,,77,0
18960,note_on,0,0,1,,,,,,,,,0,,,78,49
18960,note_on,0,0,2,,,,,,,,,1,,,66,75
18965,note_on,5,0,3,,,,,,,,,2,,,42,0
18972,note_on,12,0,1,,,,,,,,,0,,,78,0
19012,note_on,47,0,3,,,,,,,,,2,,,49,62
19020,note_on,8,0,3,,,,,,,,,2,,,49,0
19020,note_on,0,0,3,,,,,,,,,2,,,54,62
19025,note_on,5,0,3,,,,,,,,,2,,,54,0
19072,note_on,47,0,3,,,,,,,,,2,,,54,62
19080,note_on,108,0,1,,,,,,,,,0,,,66,49
19080,note_on,8,0,3,,,,,,,,,2,,,54,0
19080,note_on,0,0,1,,,,,,,,,0,,,78,49
19080,note_on,0,0,3,,,,,,,,,2,,,57,62
19085,note_on,5,0,3,,,,,,,,,2,,,57,0
19086,note_on,6,0,1,,,,,,,,,0,,,78,0
19086,note_on,0,0,1,,,,,,,,,0,,,66,0
19132,note_on,47,0,3,,,,,,,,,2,,,57,62
19140,note_on,8,0,3,,,,,,,,,2,,,57,0
19140,note_on,0,0,3,,,,,,,,,2,,,61,88
19140,note_on,0,0,1,,,,,,,,,0,,,78,49
19140,note_on,54,0,1,,,,,,,,,0,,,66,49
19152,note_on,12,0,3,,,,,,,,,2,,,61,0
19152,note_on,12,0,1,,,,,,,,,0,,,78,0
19152,note_on,0,0,1,,,,,,,,,0,,,66,0
19260,note_on,0,0,2,,,,,,,,,1,,,68,75
19260,control_change,108,0,1,,,,,,,,,0,64,0,,
19260,note_on,300,0,2,,,,,,,,,1,,,66,0
19260,note_on,0,0,1,,,,,,,,,0,,,80,49
19266,note_on,6,0,1,,,,,,,,,0,,,80,0
19320,note_on,60,0,2,,,,,,,,,1,,,68,0
19320,note_on,168,0,3,,,,,,,,,2,,,40,62
19320,note_on,0,0,2,,,,,,,,,1,,,69,75
19320,note_on,54,0,1,,,,,,,,,0,,,81,49
19325,note_on,5,0,3,,,,,,,,,2,,,40,0
19372,note_on,47,0,3,,,,,,,,,2,,,49,62
19380,note_on,0,0,3,,,,,,,,,2,,,52,62
19380,note_on,0,0,2,,,,,,,,,1,,,73,75
19380,note_on,60,0,2,,,,,,,,,1,,,69,0
19380,note_on,8,0,3,,,,,,,,,2,,,49,0
19385,note_on,5,0,3,,,,,,,,,2,,,52,0
19432,note_on,47,0,3,,,,,,,,,2,,,52,62
19440,note_on,120,0,1,,,,,,,,,0,,,81,0
19440,note_on,0,0,2,,,,,,,,,1,,,69,101
19440,note_on,0,0,3,,,,,,,,,2,,,57,62
19440,control_change,0,0,1,,,,,,,,,0,64,127,,
19440,note_on,8,0,3,,,,,,,,,2,,,52,0
19440,note_on,0,0,1,,,,,,,,,0,,,64,49
19440,note_on,0,0,1,,,,,,,,,0,,,76,49
19440,note_on,60,0,2,,,,,,,,,1,,,73,0
19446,note_on,6,0,1,,,,,,,,,0,,,76,0
19446,note_on,6,0,3,,,,,,,,,2,,,57,0
19446,note_on,0,0,1,,,,,,,,,0,,,64,0
19485,note_on,45,0,2,,,,,,,,,1,,,68,75
19500,note_on,0,0,2,,,,,,,,,1,,,76,75
19500,note_on,15,0,2,,,,,,,,,1,,,68,0
19500,note_on,0,0,2,,,,,,,,,1,,,69,0
19500,note_on,54,0,1,,,,,,,,,0,,,64,49
19500,note_on,54,0,3,,,,,,,,,2,,,40,62
19505,note_on,5,0,3,,,,,,,,,2,,,40,0
19512,note_on,12,0,1,,,,,,,,,0,,,64,0
19552,note_on,47,0,3,,,,,,,,,2,,,50,62
19560,note_on,8,0,3,,,,,,,,,2,,,50,0
19560,note_on,0,0,3,,,,,,,,,2,,,52,62
19565,note_on,5,0,3,,,,,,,,,2,,,52,0
19612,note_on,47,0,3,,,,,,,,,2,,,52,62
19620,note_on,0,0,1,,,,,,,,,0,,,64,49
19620,note_on,8,0,3,,,,,,,,,2,,,52,0
19620,note_on,0,0,1,,,,,,,,,0,,,76,49
19620,control_change,108,0,1,,,,,,,,,0,64,0,,
19620,note_on,120,0,2,,,,,,,,,1,,,76,0
19620,note_on,0,0,3,,,,,,,,,2,,,59,62
19620,note_on,0,0,2,,,,,,,,,1,,,68,75
19626,note_on,6,0,3,,,,,,,,,2,,,59,0
19626,note_on,0,0,1,,,,,,,,,0,,,64,0
19626,note_on,6,0,1,,,,,,,,,0,,,76,0
19680,note_on,0,0,1,,,,,,,,,0,,,76,62
19680,note_on,54,0,3,,,,,,,,,2,,,45,62
19680,note_on,60,0,2,,,,,,,,,1,,,68,0
19680,note_on,0,0,2,,,,,,,,,1,,,69,75
19680,note_on,54,0,1,,,,,,,,,0,,,64,62
19685,note_on,5,0,3,,,,,,,,,2,,,45,0
19725,set_tempo,2565,1,0,,,,,,731707,,,,,,,
19732,note_on,47,0,3,,,,,,,,,2,,,49,62
19740,note_on,0,0,1,,,,,,,,,0,,,64,0
19740,note_on,0,0,1,,,,,,,,,0,,,73,62
19740,note_on,0,0,1,,,,,,,,,0,,,85,62
19740,note_on,60,0,1,,,,,,,,,0,,,76,0
19740,note_on,8,0,3,,,,,,,,,2,,,49,0
19740,note_on,0,0,3,,,,,,,,,2,,,52,62
19745,note_on,5,0,3,,,,,,,,,2,,,52,0
19770,set_tempo,45,1,0,,,,,,759494,,,,,,,
19792,note_on,47,0,3,,,,,,,,,2,,,52,62
19800,note_on,60,0,1,,,,,,,,,0,,,85,0
19800,note_on,8,0,3,,,,,,,,,2,,,52,0
19800,note_on,0,0,1,,,,,,,,,0,,,81,75
19800,note_on,0,0,3,,,,,,,,,2,,,57,62
19800,note_on,0,0,1,,,,,,,,,0,,,73,0
19800,note_on,120,0,2,,,,,,,,,1,,,69,0
19800,note_on,0,0,1,,,,,,,,,0,,,69,75
19806,note_on,6,0,3,,,,,,,,,2,,,57,0
19815,set_tempo,45,1,0,,,,,,789474,,,,,,,
19860,note_on,54,0,3,,,,,,,,,2,,,40,62
19860,set_tempo,45,1,0,,,,,,833333,,,,,,,
19860,note_on,0,0,1,,,,,,,,,0,,,88,75
19860,note_on,0,0,1,,,,,,,,,0,,,76,75
19860,note_on,0,0,1,,,,,,,,,0,,,69,0
19860,note_on,60,0,1,,,,,,,,,0,,,81,0
19865,note_on,5,0,3,,,,,,,,,2,,,40,0
19905,set_tempo,45,1,0,,,,,,869565,,,,,,,
19912,note_on,47,0,3,,,,,,,,,2,,,50,62
19920,note_on,8,0,3,,,,,,,,,2,,,50,0
19920,note_on,0,0,3,,,,,,,,,2,,,52,62
19925,note_on,5,0,3,,,,,,,,,2,,,52,0
19950,set_tempo,45,1,0,,,,,,909091,,,,,,,
19972,note_on,47,0,3,,,,,,,,,2,,,52,62
19980,note_on,120,0,1,,,,,,,,,0,,,88,0
19980,note_on,0,0,1,,,,,,,,,0,,,80,62
19980,note_on,0,0,1,,,,,,,,,0,,,76,0
19980,note_on,0,0,1,,,,,,,,,0,,,68,62
19980,note_on,0,0,3,,,,,,,,,2,,,59,62
19980,note_on,8,0,3,,,,,,,,,2,,,52,0
19986,note_on,6,0,3,,,,,,,,,2,,,59,0
19995,set_tempo,45,1,0,,,,,,952381,,,,,,,
20040,note_on,60,0,1,,,,,,,,,0,,,80,0
20040,note_on,0,0,1,,,,,,,,,0,,,68,0
20040,note_on,0,0,1,,,,,,,,,0,,,81,75
20040,note_on,0,0,1,,,,,,,,,0,,,69,75
20040,note_on,54,0,3,,,,,,,,,2,,,45,62
20040,set_tempo,45,1,0,,,,,,705882,,,,,,,
20045,note_on,5,0,3,,,,,,,,,2,,,45,0
20092,note_on,47,0,3,,,,,,,,,2,,,49,62
20100,note_on,0,0,3,,,,,,,,,2,,,52,62
20100,note_on,8,0,3,,,,,,,,,2,,,49,0
20105,note_on,5,0,3,,,,,,,,,2,,,52,0
20152,note_on,47,0,3,,,,,,,,,2,,,52,62
20160,note_on,120,0,1,,,,,,,,,0,,,81,0
20160,control_change,0,0,1,,,,,,,,,0,64,127,,
20160,note_on,0,0,1,,,,,,,,,0,,,64,49
20160,note_on,0,0,1,,,,,,,,,0,,,69,0
20160,note_on,0,0,1,,,,,,,,,0,,,76,49
20160,note_on,8,0,3,,,,,,,,,2,,,52,0
20160,note_on,0,0,3,,,,,,,,,2,,,57,62
20165,note_on,5,0,3,,,,,,,,,2,,,57,0
20166,note_on,0,0,1,,,,,,,,,0,,,64,0
20166,note_on,6,0,1,,,,,,,,,0,,,76,0
20212,note_on,47,0,3,,,,,,,,,2,,,57,62
20220,note_on,0,0,3,,,,,,,,,2,,,61,88
20220,note_on,54,0,1,,,,,,,,,0,,,64,49
20220,note_on,0,0,1,,,,,,,,,0,,,76,49
20220,note_on,8,0,3,,,,,,,,,2,,,57,0
20232,note_on,0,0,1,,,,,,,,,0,,,64,0
20232,note_on,12,0,1,,,,,,,,,0,,,76,0
20232,note_on,12,0,3,,,,,,,,,2,,,61,0
20340,control_change,108,0,1,,,,,,,,,0,64,0,,
20340,note_on,0,0,1,,,,,,,,,0,,,76,49
20340,note_on,0,0,1,,,,,,,,,0,,,64,49
20346,note_on,6,0,1,,,,,,,,,0,,,76,0
20346,note_on,0,0,1,,,,,,,,,0,,,64,0
20400,note_on,0,0,2,,,,,,,,,1,,,72,101
20400,note_on,168,0,3,,,,,,,,,2,,,33,62
20400,control_change,54,0,1,,,,,,,,,0,64,127,,
20400,note_on,0,0,1,,,,,,,,,0,,,64,49
20400,note_on,0,0,1,,,,,,,,,0,,,76,49
20400,note_on,600,0,2,,,,,,,,,1,,,69,93
20405,note_on,5,0,3,,,,,,,,,2,,,33,0
20412,note_on,0,0,1,,,,,,,,,0,,,64,0
20412,note_on,12,0,1,,,,,,,,,0,,,76,0
20452,note_on,47,0,3,,,,,,,,,2,,,48,62
20460,note_on,8,0,3,,,,,,,,,2,,,48,0
20460,note_on,0,0,3,,,,,,,,,2,,,52,62
20465,note_on,5,0,3,,,,,,,,,2,,,52,0
20512,note_on,47,0,3,,,,,,,,,2,,,52,62
20520,note_on,0,0,1,,,,,,,,,0,,,76,49
20520,note_on,0,0,2,,,,,,,,,1,,,69,0
20520,note_on,0,0,3,,,,,,,,,2,,,57,62
20520,note_on,108,0,1,,,,,,,,,0,,,64,49
20520,note_on,120,0,2,,,,,,,,,1,,,72,0
20520,note_on,8,0,3,,,,,,,,,2,,,52,0
20525,note_on,5,0,3,,,,,,,,,2,,,57,0
20526,note_on,0,0,1,,,,,,,,,0,,,64,0
20526,note_on,6,0,1,,,,,,,,,0,,,76,0
20572,note_on,47,0,3,,,,,,,,,2,,,57,62
20580,note_on,54,0,1,,,,,,,,,0,,,64,49
20580,note_on,0,0,1,,,,,,,,,0,,,76,49
20580,note_on,8,0,3,,,,,,,,,2,,,57,0
20580,note_on,0,0,3,,,,,,,,,2,,,60,88
20592,note_on,0,0,1,,,,,,,,,0,,,64,0
20592,note_on,12,0,3,,,,,,,,,2,,,60,0
20592,note_on,12,0,1,,,,,,,,,0,,,76,0
20640,note_on,0,0,2,,,,,,,,,1,,,69,75
20640,note_on,0,0,2,,,,,,,,,1,,,60,75
20640,control_change,120,0,2,,,,,,,,,1,64,127,,
20646,note_on,0,0,2,,,,,,,,,1,,,60,0
20646,note_on,6,0,2,,,,,,,,,1,,,69,0
20700,control_change,108,0,1,,,,,,,,,0,64,0,,
20700,control_change,54,0,2,,,,,,,,,1,64,0,,
20700,note_on,0,0,2,,,,,,,,,1,,,71,75
20700,note_on,0,0,1,,,,,,,,,0,,,76,49
20700,note_on,0,0,1,,,,,,,,,0,,,64,49
20700,note_on,0,0,2,,,,,,,,,1,,,64,75
20706,note_on,6,0,2,,,,,,,,,1,,,71,0
20706,note_on,0,0,2,,,,,,,,,1,,,64,0
20706,note_on,0,0,1,,,,,,,,,0,,,64,0
20706,note_on,6,0,1,,,,,,,,,0,,,76,0
20760,note_on,0,0,1,,,,,,,,,0,,,76,49
20760,note_on,54,0,1,,,,,,,,,0,,,64,49
20760,note_on,168,0,3,,,,,,,,,2,,,33,62
20760,note_on,0,0,2,,,,,,,,,1,,,69,75
20760,control_change,54,0,2,,,,,,,,,1,64,127,,
20760,note_on,0,0,2,,,,,,,,,1,,,72,75
20765,note_on,5,0,3,,,,,,,,,2,,,33,0
20772,note_on,12,0,2,,,,,,,,,1,,,72,0
20772,note_on,0,0,2,,,,,,,,,1,,,69,0
20812,note_on,47,0,3,,,,,,,,,2,,,48,62
20820,note_on,0,0,3,,,,,,,,,2,,,52,62
20820,note_on,8,0,3,,,,,,,,,2,,,48,0
20825,note_on,5,0,3,,,,,,,,,2,,,52,0
20872,note_on,47,0,3,,,,,,,,,2,,,52,62
20880,note_on,0,0,3,,,,,,,,,2,,,57,62
20880,note_on,108,0,2,,,,,,,,,1,,,69,88
20880,note_on,120,0,1,,,,,,,,,0,,,76,0
20880,note_on,8,0,3,,,,,,,,,2,,,52,0
20880,note_on,0,0,2,,,,,,,,,1,,,72,88
20880,note_on,0,0,1,,,,,,,,,0,,,76,49
20880,note_on,0,0,1,,,,,,,,,0,,,64,0
20880,note_on,0,0,1,,,,,,,,,0,,,64,49
20885,note_on,5,0,3,,,,,,,,,2,,,57,0
20886,note_on,6,0,2,,,,,,,,,1,,,72,0
20886,note_on,0,0,2,,,,,,,,,1,,,69,0
20932,note_on,47,0,3,,,,,,,,,2,,,57,62
20940,note_on,8,0,3,,,,,,,,,2,,,57,0
20940,note_on,0,0,1,,,,,,,,,0,,,64,49
20940,note_on,0,0,1,,,,,,,,,0,,,64,0
20940,note_on,0,0,2,,,,,,,,,1,,,76,88
20940,note_on,60,0,1,,,,,,,,,0,,,76,0
20940,note_on,54,0,2,,,,,,,,,1,,,72,88
20940,note_on,0,0,3,,,,,,,,,2,,,60,88
20952,note_on,12,0,3,,,,,,,,,2,,,60,0
20952,note_on,0,0,2,,,,,,,,,1,,,72,0
20952,note_on,12,0,2,,,,,,,,,1,,,76,0
21060,note_on,120,0,1,,,,,,,,,0,,,64,0
21060,note_on,0,0,1,,,,,,,,,0,,,76,49
21060,note_on,0,0,1,,,,,,,,,0,,,64,49
21060,control_change,108,0,2,,,,,,,,,1,64,0,,
21060,note_on,0,0,2,,,,,,,,,1,,,72,75
21060,note_on,0,0,2,,,,,,,,,1,,,69,75
21066,note_on,6,0,2,,,,,,,,,1,,,72,0
21066,note_on,0,0,2,,,,,,,,,1,,,69,0
21120,note_on,168,0,3,,,,,,,,,2,,,40,62
21120,note_on,0,0,2,,,,,,,,,1,,,71,75
21120,note_on,0,0,1,,,,,,,,,0,,,64,49
21120,note_on,0,0,1,,,,,,,,,0,,,76,49
21120,note_on,60,0,1,,,,,,,,,0,,,76,0
21120,note_on,54,0,2,,,,,,,,,1,,,68,75
21120,note_on,0,0,1,,,,,,,,,0,,,64,0
21125,note_on,5,0,3,,,,,,,,,2,,,40,0
21172,note_on,47,0,3,,,,,,,,,2,,,47,62
21180,note_on,8,0,3,,,,,,,,,2,,,47,0
21180,note_on,0,0,3,,,,,,,,,2,,,52,62
21185,note_on,5,0,3,,,,,,,,,2,,,52,0
21232,note_on,47,0,3,,,,,,,,,2,,,52,62
21240,note_on,120,0,1,,,,,,,,,0,,,76,0
21240,note_on,0,0,1,,,,,,,,,0,,,76,49
21240,note_on,120,0,2,,,,,,,,,1,,,71,0
21240,note_on,0,0,1,,,,,,,,,0,,,68,49
21240,note_on,0,0,2,,,,,,,,,1,,,68,0
21240,note_on,8,0,3,,,,,,,,,2,,,52,0
21240,note_on,0,0,1,,,,,,,,,0,,,64,49
21240,note_on,0,0,1,,,,,,,,,0,,,64,0
21240,note_on,0,0,3,,,,,,,,,2,,,56,62
21245,note_on,5,0,3,,,,,,,,,2,,,56,0
21292,note_on,47,0,3,,,,,,,,,2,,,56,62
21300,note_on,0,0,1,,,,,,,,,0,,,64,0
21300,note_on,0,0,1,,,,,,,,,0,,,76,49
21300,note_on,0,0,3,,,,,,,,,2,,,59,62
21300,note_on,0,0,1,,,,,,,,,0,,,68,49
21300,note_on,0,0,1,,,,,,,,,0,,,64,49
21300,note_on,0,0,1,,,,,,,,,0,,,68,0
21300,note_on,8,0,3,,,,,,,,,2,,,56,0
21300,note_on,60,0,1,,,,,,,,,0,,,76,0
21360,note_on,60,0,1,,,,,,,,,0,,,76,0
21360,note_on,0,0,1,,,,,,,,,0,,,78,49
21360,note_on,0,0,1,,,,,,,,,0,,,64,0
21360,note_on,0,0,1,,,,,,,,,0,,,66,49
21360,note_on,0,0,1,,,,,,,,,0,,,68,0
21360,note_on,0,0,1,,,,,,,,,0,,,69,49
21360,note_on,60,0,3,,,,,,,,,2,,,59,0
21420,note_on,0,0,1,,,,,,,,,0,,,80,49
21420,note_on,0,0,1,,,,,,,,,0,,,69,0
21420,note_on,60,0,1,,,,,,,,,0,,,78,0
21420,note_on,0,0,1,,,,,,,,,0,,,66,0
21420,note_on,0,0,1,,,,,,,,,0,,,68,49
21420,note_on,180,0,2,,,,,,,,,1,,,71,75
21480,note_on,120,0,3,,,,,,,,,2,,,35,62
21480,note_on,0,0,1,,,,,,,,,0,,,80,49
21480,note_on,0,0,1,,,,,,,,,0,,,76,49
21480,note_on,60,0,1,,,,,,,,,0,,,80,0
21480,note_on,0,0,1,,,,,,,,,0,,,68,49
21480,note_on,60,0,2,,,,,,,,,1,,,71,0
21480,note_on,0,0,1,,,,,,,,,0,,,68,0
21480,note_on,0,0,2,,,,,,,,,1,,,73,88
21532,note_on,52,0,3,,,,,,,,,2,,,52,62
21533,note_on,1,0,3,,,,,,,,,2,,,35,0
21540,note_on,0,0,3,,,,,,,,,2,,,56,62
21540,note_on,7,0,3,,,,,,,,,2,,,52,0
21592,note_on,52,0,3,,,,,,,,,2,,,56,62
21593,note_on,1,0,3,,,,,,,,,2,,,56,0
21600,note_on,0,0,2,,,,,,,,,1,,,71,88
21600,note_on,7,0,3,,,,,,,,,2,,,56,0
21600,note_on,0,0,3,,,,,,,,,2,,,59,62
21600,note_on,0,0,1,,,,,,,,,0,,,68,0
21600,note_on,120,0,1,,,,,,,,,0,,,80,0
21600,note_on,0,0,1,,,,,,,,,0,,,68,49
21600,note_on,0,0,1,,,,,,,,,0,,,76,0
21600,note_on,0,0,1,,,,,,,,,0,,,76,49
21600,note_on,0,0,1,,,,,,,,,0,,,80,49
21600,note_on,120,0,2,,,,,,,,,1,,,73,0
21652,note_on,52,0,3,,,,,,,,,2,,,59,62
21653,note_on,1,0,3,,,,,,,,,2,,,59,0
21660,note_on,0,0,1,,,,,,,,,0,,,68,49
21660,note_on,0,0,1,,,,,,,,,0,,,76,0
21660,note_on,0,0,1,,,,,,,,,0,,,76,49
21660,note_on,0,0,3,,,,,,,,,2,,,64,62
21660,note_on,0,0,1,,,,,,,,,0,,,80,49
21660,note_on,60,0,2,,,,,,,,,1,,,71,0
21660,note_on,7,0,3,,,,,,,,,2,,,59,0
21660,note_on,60,0,1,,,,,,,,,0,,,80,0
21660,note_on,0,0,1,,,,,,,,,0,,,68,0
21720,note_on,0,0,1,,,,,,,,,0,,,81,49
21720,note_on,0,0,1,,,,,,,,,0,,,76,0
21720,note_on,60,0,1,,,,,,,,,0,,,80,0
21720,note_on,0,0,1,,,,,,,,,0,,,68,0
21720,note_on,0,0,1,,,,,,,,,0,,,78,49
21720,note_on,60,0,3,,,,,,,,,2,,,64,0
21720,note_on,0,0,1,,,,,,,,,0,,,69,49
21780,note_on,0,0,1,,,,,,,,,0,,,80,49
21780,note_on,0,0,1,,,,,,,,,0,,,78,0
21780,note_on,0,0,1,,,,,,,,,0,,,83,49
21780,note_on,60,0,1,,,,,,,,,0,,,81,0
21780,note_on,0,0,1,,,,,,,,,0,,,69,0
21780,note_on,120,0,2,,,,,,,,,1,,,71,88
21817,note_on,37,0,1,,,,,,,,,0,,,70,49
21825,note_on,8,0,1,,,,,,,,,0,,,76,49
21832,note_on,7,0,1,,,,,,,,,0,,,78,49
21840,note_on,120,0,3,,,,,,,,,2,,,47,88
21840,note_on,0,0,1,,,,,,,,,0,,,80,0
21840,note_on,8,0,1,,,,,,,,,0,,,83,0
21840,note_on,0,0,1,,,,,,,,,0,,,85,49
21840,note_on,60,0,2,,,,,,,,,1,,,71,0
21846,note_on,6,0,3,,,,,,,,,2,,,47,0
21885,set_tempo,1845,1,0,,,,,,731707,,,,,,,
21900,note_on,54,0,3,,,,,,,,,2,,,61,62
21900,note_on,0,0,3,,,,,,,,,2,,,66,62
21900,note_on,0,0,3,,,,,,,,,2,,,64,62
21930,set_tempo,45,1,0,,,,,,759494,,,,,,,
21960,note_on,0,0,1,,,,,,,,,0,,,78,49
21960,note_on,0,0,1,,,,,,,,,0,,,78,0
21960,note_on,0,0,1,,,,,,,,,0,,,76,49
21960,note_on,0,0,3,,,,,,,,,2,,,61,0
21960,note_on,0,0,1,,,,,,,,,0,,,76,0
21960,note_on,0,0,3,,,,,,,,,2,,,64,0
21960,note_on,0,0,1,,,,,,,,,0,,,70,0
21960,note_on,60,0,3,,,,,,,,,2,,,66,0
21960,note_on,0,0,1,,,,,,,,,0,,,85,49
21960,note_on,120,0,2,,,,,,,,,1,,,70,88
21960,note_on,0,0,3,,,,,,,,,2,,,54,62
21960,note_on,120,0,1,,,,,,,,,0,,,85,0
21975,set_tempo,45,1,0,,,,,,789474,,,,,,,
21997,note_on,37,0,1,,,,,,,,,0,,,69,49
22005,note_on,8,0,1,,,,,,,,,0,,,75,49
22012,note_on,7,0,1,,,,,,,,,0,,,78,49
22020,note_on,0,0,1,,,,,,,,,0,,,87,49
22020,note_on,60,0,2,,,,,,,,,1,,,70,0
22020,note_on,8,0,1,,,,,,,,,0,,,85,0
22020,set_tempo,45,1,0,,,,,,833333,,,,,,,
22020,note_on,60,0,3,,,,,,,,,2,,,54,0
22020,note_on,0,0,1,,,,,,,,,0,,,76,0
22020,note_on,0,0,1,,,,,,,,,0,,,78,0
22020,note_on,0,0,3,,,,,,,,,2,,,47,88
22026,note_on,6,0,3,,,,,,,,,2,,,47,0
22065,set_tempo,45,1,0,,,,,,869565,,,,,,,
22080,note_on,60,0,2,,,,,,,,,1,,,73,88
22080,note_on,0,0,3,,,,,,,,,2,,,63,62
22080,note_on,0,0,3,,,,,,,,,2,,,69,62
22080,note_on,54,0,3,,,,,,,,,2,,,59,62
22110,set_tempo,45,1,0,,,,,,909091,,,,,,,
22140,note_on,0,0,2,,,,,,,,,1,,,71,88
22140,note_on,60,0,3,,,,,,,,,2,,,69,0
22140,note_on,0,0,3,,,,,,,,,2,,,63,0
22140,note_on,0,0,1,,,,,,,,,0,,,87,49
22140,note_on,0,0,1,,,,,,,,,0,,,75,0
22140,note_on,0,0,1,,,,,,,,,0,,,75,49
22140,note_on,120,0,1,,,,,,,,,0,,,87,0
22140,note_on,0,0,3,,,,,,,,,2,,,54,62
22140,note_on,0,0,3,,,,,,,,,2,,,59,0
22140,note_on,0,0,1,,,,,,,,,0,,,78,0
22140,note_on,0,0,1,,,,,,,,,0,,,78,49
22140,note_on,0,0,1,,,,,,,,,0,,,69,0
22140,note_on,60,0,2,,,,,,,,,1,,,73,0
22155,set_tempo,45,1,0,,,,,,952381,,,,,,,
22200,note_on,0,0,1,,,,,,,,,0,,,88,49
22200,note_on,0,0,1,,,,,,,,,0,,,80,49
22200,note_on,0,0,1,,,,,,,,,0,,,78,0
22200,note_on,0,0,1,,,,,,,,,0,,,76,49
22200,note_on,0,0,1,,,,,,,,,0,,,75,0
22200,set_tempo,45,1,0,,,,,,705882,,,,,,,
22200,note_on,0,0,3,,,,,,,,,2,,,40,62
22200,note_on,0,0,2,,,,,,,,,1,,,68,88
22200,note_on,60,0,2,,,,,,,,,1,,,71,0
22200,note_on,60,0,1,,,,,,,,,0,,,87,0
22200,note_on,60,0,3,,,,,,,,,2,,,54,0
22252,note_on,52,0,3,,,,,,,,,2,,,47,62
22253,note_on,1,0,3,,,,,,,,,2,,,40,0
22260,note_on,0,0,3,,,,,,,,,2,,,52,62
22260,note_on,7,0,3,,,,,,,,,2,,,47,0
22265,note_on,5,0,3,,,,,,,,,2,,,52,0
22312,note_on,47,0,3,,,,,,,,,2,,,52,62
22320,note_on,0,0,1,,,,,,,,,0,,,76,0
22320,note_on,0,0,3,,,,,,,,,2,,,56,62
22320,note_on,120,0,1,,,,,,,,,0,,,88,0
22320,note_on,8,0,3,,,,,,,,,2,,,52,0
22320,note_on,120,0,2,,,,,,,,,1,,,68,0
22320,note_on,0,0,1,,,,,,,,,0,,,64,49
22320,note_on,0,0,1,,,,,,,,,0,,,80,0
22320,note_on,0,0,1,,,,,,,,,0,,,76,49
22325,note_on,5,0,3,,,,,,,,,2,,,56,0
22372,note_on,47,0,3,,,,,,,,,2,,,56,62
22380,note_on,8,0,3,,,,,,,,,2,,,56,0
22380,note_on,60,0,1,,,,,,,,,0,,,76,0
22380,note_on,0,0,1,,,,,,,,,0,,,76,49
22380,note_on,0,0,1,,,,,,,,,0,,,64,0
22380,note_on,0,0,3,,,,,,,,,2,,,59,62
22380,note_on,0,0,1,,,,,,,,,0,,,64,49
22385,note_on,5,0,3,,,,,,,,,2,,,59,0
22432,note_on,47,0,3,,,,,,,,,2,,,59,62
22440,note_on,0,0,3,,,,,,,,,2,,,64,62
22440,note_on,8,0,3,,,,,,,,,2,,,59,0
22445,note_on,5,0,3,,,,,,,,,2,,,64,0
22492,note_on,47,0,3,,,,,,,,,2,,,59,78
22492,note_on,0,0,3,,,,,,,,,2,,,64,83
22492,note_on,0,0,3,,,,,,,,,2,,,68,88
22498,note_on,0,0,3,,,,,,,,,2,,,59,0
22498,note_on,0,0,3,,,,,,,,,2,,,64,0
22498,note_on,6,0,3,,,,,,,,,2,,,68,0
22500,note_on,0,0,1,,,,,,,,,0,,,64,0
22500,note_on,0,0,1,,,,,,,,,0,,,64,49
22500,note_on,120,0,1,,,,,,,,,0,,,76,0
22500,note_on,0,0,1,,,,,,,,,0,,,76,49
22500,note_on,180,0,2,,,,,,,,,1,,,68,88
22560,note_on,0,0,3,,,,,,,,,2,,,69,62
22560,note_on,60,0,1,,,,,,,,,0,,,76,0
22560,note_on,0,0,3,,,,,,,,,2,,,66,62
22560,note_on,0,0,1,,,,,,,,,0,,,76,49
22560,note_on,0,0,2,,,,,,,,,1,,,69,101
22560,note_on,0,0,1,,,,,,,,,0,,,64,49
22560,note_on,0,0,1,,,,,,,,,0,,,64,0
22560,note_on,60,0,2,,,,,,,,,1,,,68,0
22560,note_on,62,0,3,,,,,,,,,2,,,60,62
22620,note_on,0,0,3,,,,,,,,,2,,,66,0
22620,note_on,0,0,3,,,,,,,,,2,,,52,62
22620,note_on,60,0,3,,,,,,,,,2,,,69,0
22620,note_on,0,0,3,,,,,,,,,2,,,60,0
22680,note_on,120,0,1,,,,,,,,,0,,,76,0
22680,note_on,0,0,3,,,,,,,,,2,,,60,62
22680,note_on,0,0,3,,,,,,,,,2,,,69,62
22680,note_on,120,0,2,,,,,,,,,1,,,69,0
22680,note_on,0,0,3,,,,,,,,,2,,,66,62
22680,note_on,0,0,2,,,,,,,,,1,,,69,101
22680,note_on,60,0,3,,,,,,,,,2,,,52,0
22680,note_on,0,0,1,,,,,,,,,0,,,64,49
22680,note_on,0,0,1,,,,,,,,,0,,,64,0
22680,note_on,0,0,1,,,,,,,,,0,,,76,49
22740,note_on,0,0,1,,,,,,,,,0,,,64,49
22740,note_on,0,0,3,,,,,,,,,2,,,70,62
22740,note_on,0,0,3,,,,,,,,,2,,,67,62
22740,note_on,0,0,3,,,,,,,,,2,,,66,0
22740,note_on,0,0,1,,,,,,,,,0,,,64,0
22740,note_on,60,0,2,,,,,,,,,1,,,69,0
22740,note_on,0,0,3,,,,,,,,,2,,,60,0
22740,note_on,60,0,1,,,,,,,,,0,,,76,0
22740,note_on,60,0,3,,,,,,,,,2,,,69,0
22740,note_on,0,0,1,,,,,,,,,0,,,76,49
22740,note_on,0,0,2,,,,,,,,,1,,,70,101
22740,note_on,0,0,3,,,,,,,,,2,,,60,62
22800,note_on,60,0,3,,,,,,,,,2,,,70,0
22800,note_on,0,0,3,,,,,,,,,2,,,52,62
22800,note_on,0,0,3,,,,,,,,,2,,,60,0
22800,note_on,0,0,3,,,,,,,,,2,,,67,0
22860,note_on,120,0,1,,,,,,,,,0,,,76,0
22860,note_on,0,0,3,,,,,,,,,2,,,60,62
22860,note_on,0,0,3,,,,,,,,,2,,,67,62
22860,note_on,120,0,2,,,,,,,,,1,,,70,0
22860,note_on,0,0,3,,,,,,,,,2,,,70,62
22860,note_on,0,0,2,,,,,,,,,1,,,70,101
22860,note_on,60,0,3,,,,,,,,,2,,,52,0
22860,note_on,0,0,1,,,,,,,,,0,,,64,0
22860,note_on,0,0,1,,,,,,,,,0,,,76,49
22860,note_on,0,0,1,,,,,,,,,0,,,64,49
22920,note_on,0,0,3,,,,,,,,,2,,,68,62
22920,note_on,0,0,3,,,,,,,,,2,,,67,0
22920,note_on,0,0,3,,,,,,,,,2,,,62,62
22920,note_on,0,0,3,,,,,,,,,2,,,60,0
22920,note_on,0,0,1,,,,,,,,,0,,,64,0
22920,note_on,0,0,3,,,,,,,,,2,,,71,62
22920,note_on,0,0,1,,,,,,,,,0,,,76,49
22920,note_on,60,0,2,,,,,,,,,1,,,70,0
22920,note_on,0,0,2,,,,,,,,,1,,,71,101
22920,note_on,60,0,3,,,,,,,,,2,,,70,0
22920,note_on,0,0,1,,,,,,,,,0,,,64,49
22920,note_on,60,0,1,,,,,,,,,0,,,76,0
23017,note_on,97,0,1,,,,,,,,,0,,,83,49
23020,note_on,100,0,3,,,,,,,,,2,,,40,62
23025,note_on,8,0,1,,,,,,,,,0,,,88,49
23030,note_on,10,0,3,,,,,,,,,2,,,47,62
23032,note_on,7,0,1,,,,,,,,,0,,,92,49
23040,note_on,0,0,3,,,,,,,,,2,,,56,62
23040,note_on,0,0,3,,,,,,,,,2,,,62,0
23040,note_on,0,0,3,,,,,,,,,2,,,68,0
23040,note_on,120,0,2,,,,,,,,,1,,,71,0
23040,set_tempo,840,1,0,,,,,,869565,,,,,,,
23040,note_on,0,0,1,,,,,,,,,0,,,64,0
23040,note_on,0,0,1,,,,,,,,,0,,,100,49
23040,note_on,10,0,3,,,,,,,,,2,,,71,0
23040,note_on,8,0,1,,,,,,,,,0,,,76,0
23077,note_on,37,0,1,,,,,,,,,0,,,83,49
23080,note_on,40,0,3,,,,,,,,,2,,,40,62
23085,note_on,8,0,1,,,,,,,,,0,,,88,49
23090,note_on,10,0,3,,,,,,,,,2,,,47,62
23092,note_on,7,0,1,,,,,,,,,0,,,92,49
23100,note_on,0,0,1,,,,,,,,,0,,,83,0
23100,note_on,0,0,1,,,,,,,,,0,,,88,0
23100,note_on,0,0,3,,,,,,,,,2,,,56,62
23100,note_on,0,0,3,,,,,,,,,2,,,47,0
23100,note_on,0,0,1,,,,,,,,,0,,,92,0
23100,note_on,0,0,1,,,,,,,,,0,,,100,49
23100,note_on,8,0,1,,,,,,,,,0,,,100,0
23100,note_on,10,0,3,,,,,,,,,2,,,56,0
23100,note_on,0,0,3,,,,,,,,,2,,,40,0
23220,set_tempo,180,1,0,,,,,,674157,,,,,,,
23220,note_on,0,0,3,,,,,,,,,2,,,71,62
23220,note_on,0,0,3,,,,,,,,,2,,,68,62
23220,note_on,0,0,3,,,,,,,,,2,,,62,62
23220,note_on,0,0,3,,,,,,,,,2,,,47,0
23220,note_on,0,0,1,,,,,,,,,0,,,83,0
23220,note_on,0,0,1,,,,,,,,,0,,,88,0
23220,note_on,180,0,2,,,,,,,,,1,,,71,101
23220,note_on,0,0,1,,,,,,,,,0,,,92,0
23220,note_on,0,0,1,,,,,,,,,0,,,64,49
23220,note_on,0,0,1,,,,,,,,,0,,,76,49
23220,note_on,120,0,3,,,,,,,,,2,,,56,0
23220,note_on,120,0,1,,,,,,,,,0,,,100,0
23220,note_on,0,0,3,,,,,,,,,2,,,40,0
23280,note_on,0,0,1,,,,,,,,,0,,,64,0
23280,note_on,0,0,3,,,,,,,,,2,,,72,62
23280,note_on,0,0,1,,,,,,,,,0,,,64,49
23280,note_on,0,0,1,,,,,,,,,0,,,76,49
23280,note_on,60,0,2,,,,,,,,,1,,,71,0
23280,note_on,0,0,3,,,,,,,,,2,,,68,62
23280,note_on,0,0,2,,,,,,,,,1,,,72,101
23280,note_on,60,0,1,,,,,,,,,0,,,76,0
23280,note_on,60,0,3,,,,,,,,,2,,,71,0
23280,note_on,0,0,3,,,,,,,,,2,,,62,62
23280,note_on,0,0,3,,,,,,,,,2,,,68,0
23280,note_on,0,0,3,,,,,,,,,2,,,62,0
23377,note_on,97,0,1,,,,,,,,,0,,,84,49
23380,note_on,100,0,3,,,,,,,,,2,,,40,62
23385,note_on,8,0,1,,,,,,,,,0,,,88,49
23390,note_on,10,0,3,,,,,,,,,2,,,48,62
23392,note_on,7,0,1,,,,,,,,,0,,,92,49
23400,set_tempo,180,1,0,,,,,,869565,,,,,,,
23400,note_on,10,0,3,,,,,,,,,2,,,72,0
23400,note_on,0,0,3,,,,,,,,,2,,,62,0
23400,note_on,0,0,1,,,,,,,,,0,,,100,49
23400,note_on,0,0,3,,,,,,,,,2,,,56,62
23400,note_on,8,0,1,,,,,,,,,0,,,76,0
23400,note_on,120,0,2,,,,,,,,,1,,,72,0
23400,note_on,0,0,3,,,,,,,,,2,,,68,0
23400,note_on,0,0,1,,,,,,,,,0,,,64,0
23437,note_on,37,0,1,,,,,,,,,0,,,84,49
23440,note_on,40,0,3,,,,,,,,,2,,,40,62
23445,note_on,8,0,1,,,,,,,,,0,,,88,49
23450,note_on,10,0,3,,,,,,,,,2,,,48,62
23452,note_on,7,0,1,,,,,,,,,0,,,92,49
23460,note_on,0,0,3,,,,,,,,,2,,,40,0
23460,note_on,0,0,1,,,,,,,,,0,,,88,0
23460,note_on,0,0,1,,,,,,,,,0,,,100,49
23460,note_on,8,0,1,,,,,,,,,0,,,100,0
23460,note_on,0,0,3,,,,,,,,,2,,,48,0
23460,note_on,0,0,3,,,,,,,,,2,,,56,62
23460,note_on,0,0,1,,,,,,,,,0,,,92,0
23460,note_on,0,0,1,,,,,,,,,0,,,84,0
23460,note_on,10,0,3,,,,,,,,,2,,,56,0
23580,note_on,0,0,1,,,,,,,,,0,,,84,0
23580,note_on,0,0,1,,,,,,,,,0,,,76,49
23580,note_on,0,0,1,,,,,,,,,0,,,64,49
23580,note_on,120,0,1,,,,,,,,,0,,,100,0
23580,note_on,0,0,2,,,,,,,,,1,,,72,101
23580,note_on,120,0,3,,,,,,,,,2,,,56,0
23580,note_on,0,0,1,,,,,,,,,0,,,92,0
23580,note_on,180,0,2,,,,,,,,,1,,,68,101
23580,set_tempo,180,1,0,,,,,,674157,,,,,,,
23580,note_on,0,0,3,,,,,,,,,2,,,40,0
23580,note_on,0,0,3,,,,,,,,,2,,,62,62
23580,note_on,0,0,3,,,,,,,,,2,,,48,0
23580,note_on,0,0,1,,,,,,,,,0,,,88,0
23580,note_on,0,0,3,,,,,,,,,2,,,52,62
23640,note_on,60,0,1,,,,,,,,,0,,,76,0
23640,note_on,0,0,2,,,,,,,,,1,,,68,0
23640,note_on,0,0,2,,,,,,,,,1,,,69,62
23640,note_on,0,0,2,,,,,,,,,1,,,73,62
23640,note_on,60,0,2,,,,,,,,,1,,,72,0
23640,note_on,0,0,3,,,,,,,,,2,,,61,49
23640,note_on,0,0,3,,,,,,,,,2,,,52,49
23640,note_on,0,0,3,,,,,,,,,2,,,52,0
23640,note_on,0,0,1,,,,,,,,,0,,,64,49
23640,note_on,0,0,1,,,,,,,,,0,,,76,49
23640,note_on,60,0,3,,,,,,,,,2,,,62,0
23640,note_on,0,0,1,,,,,,,,,0,,,64,0
23640,note_on,0,0,3,,,,,,,,,2,,,45,49
23680,note_on,40,0,1,,,,,,,,,0,,,81,65
23690,note_on,10,0,1,,,,,,,,,0,,,85,70
23700,note_on,0,0,1,,,,,,,,,0,,,64,0
23700,note_on,0,0,1,,,,,,,,,0,,,88,75
23700,note_on,10,0,1,,,,,,,,,0,,,76,0
23706,note_on,0,0,1,,,,,,,,,0,,,81,0
23706,note_on,6,0,1,,,,,,,,,0,,,88,0
23706,note_on,0,0,1,,,,,,,,,0,,,85,0
23740,note_on,34,0,1,,,,,,,,,0,,,85,65
23750,note_on,10,0,1,,,,,,,,,0,,,88,70
23760,note_on,120,0,3,,,,,,,,,2,,,61,0
23760,note_on,0,0,3,,,,,,,,,2,,,76,49
23760,note_on,0,0,3,,,,,,,,,2,,,52,0
23760,note_on,10,0,1,,,,,,,,,0,,,93,75
23760,note_on,0,0,3,,,,,,,,,2,,,45,0
23760,note_on,0,0,3,,,,,,,,,2,,,64,49
23766,note_on,0,0,1,,,,,,,,,0,,,85,0
23766,note_on,6,0,1,,,,,,,,,0,,,93,0
23766,note_on,0,0,1,,,,,,,,,0,,,88,0
23800,note_on,34,0,1,,,,,,,,,0,,,88,65
23810,note_on,10,0,1,,,,,,,,,0,,,93,70
23820,note_on,0,0,3,,,,,,,,,2,,,64,49
23820,note_on,0,0,3,,,,,,,,,2,,,76,49
23820,note_on,60,0,3,,,,,,,,,2,,,76,0
23820,note_on,10,0,1,,,,,,,,,0,,,97,75
23820,note_on,0,0,3,,,,,,,,,2,,,64,0
23826,note_on,6,0,1,,,,,,,,,0,,,97,0
23826,note_on,0,0,1,,,,,,,,,0,,,88,0
23826,note_on,0,0,1,,,,,,,,,0,,,93,0
23940,note_on,0,0,2,,,,,,,,,1,,,57,62
23940,note_on,0,0,2,,,,,,,,,1,,,61,62
23940,note_on,0,0,3,,,,,,,,,2,,,64,0
23940,note_on,0,0,2,,,,,,,,,1,,,69,62
23940,note_on,120,0,3,,,,,,,,,2,,,76,0
23940,note_on,0,0,3,,,,,,,,,2,,,45,49
23940,note_on,0,0,3,,,,,,,,,2,,,52,49
23940,note_on,0,0,2,,,,,,,,,1,,,69,0
23940,note_on,300,0,2,,,,,,,,,1,,,73,0
24000,note_on,60,0,3,,,,,,,,,2,,,52,0
24000,note_on,0,0,3,,,,,,,,,2,,,45,0
24000,note_on,0,0,2,,,,,,,,,1,,,61,0
24000,note_on,0,0,3,,,,,,,,,2,,,45,49
24000,note_on,0,0,2,,,,,,,,,1,,,64,62
24000,note_on,0,0,2,,,,,,,,,1,,,61,62
24000,note_on,60,0,2,,,,,,,,,1,,,69,0
24000,note_on,0,0,3,,,,,,,,,2,,,52,49
24040,note_on,214,0,1,,,,,,,,,0,,,81,65
24050,note_on,10,0,1,,,,,,,,,0,,,85,70
24060,note_on,10,0,1,,,,,,,,,0,,,88,75
24066,note_on,0,0,1,,,,,,,,,0,,,85,0
24066,note_on,6,0,1,,,,,,,,,0,,,88,0
24066,note_on,0,0,1,,,,,,,,,0,,,81,0
24100,note_on,34,0,1,,,,,,,,,0,,,85,65
24110,note_on,10,0,1,,,,,,,,,0,,,88,70
24120,note_on,120,0,2,,,,,,,,,1,,,64,0
24120,note_on,0,0,3,,,,,,,,,2,,,45,0
24120,note_on,120,0,3,,,,,,,,,2,,,52,0
24120,note_on,0,0,2,,,,,,,,,1,,,61,0
24120,note_on,0,0,2,,,,,,,,,1,,,57,0
24120,note_on,0,0,2,,,,,,,,,1,,,52,80
24120,note_on,10,0,1,,,,,,,,,0,,,93,75
24120,note_on,0,0,2,,,,,,,,,1,,,64,88
24126,note_on,6,0,1,,,,,,,,,0,,,93,0
24126,note_on,0,0,1,,,,,,,,,0,,,85,0
24126,note_on,0,0,1,,,,,,,,,0,,,88,0
24160,note_on,34,0,1,,,,,,,,,0,,,88,65
24165,note_on,45,0,2,,,,,,,,,1,,,54,62
24165,note_on,0,0,2,,,,,,,,,1,,,66,62
24170,note_on,10,0,1,,,,,,,,,0,,,93,70
24180,note_on,15,0,2,,,,,,,,,1,,,66,0
24180,note_on,0,0,2,,,,,,,,,1,,,64,75
24180,note_on,0,0,2,,,,,,,,,1,,,64,0
24180,note_on,0,0,2,,,,,,,,,1,,,52,75
24180,note_on,0,0,2,,,,,,,,,1,,,52,0
24180,note_on,0,0,2,,,,,,,,,1,,,54,0
24180,note_on,10,0,1,,,,,,,,,0,,,97,75
24186,note_on,6,0,1,,,,,,,,,0,,,97,0
24186,note_on,0,0,1,,,,,,,,,0,,,93,0
24186,note_on,0,0,1,,,,,,,,,0,,,88,0
24240,note_on,0,0,2,,,,,,,,,1,,,52,0
24240,note_on,60,0,2,,,,,,,,,1,,,64,0
24240,note_on,0,0,2,,,,,,,,,1,,,63,75
24240,note_on,0,0,2,,,,,,,,,1,,,51,75
24300,note_on,0,0,2,,,,,,,,,1,,,64,75
24300,note_on,0,0,2,,,,,,,,,1,,,61,75
24300,note_on,0,0,2,,,,,,,,,1,,,57,75
24300,note_on,0,0,2,,,,,,,,,1,,,51,0
24300,note_on,180,0,3,,,,,,,,,2,,,45,49
24300,note_on,0,0,3,,,,,,,,,2,,,52,49
24300,note_on,60,0,2,,,,,,,,,1,,,63,0
24360,note_on,0,0,2,,,,,,,,,1,,,57,0
24360,note_on,0,0,2,,,,,,,,,1,,,66,101
24360,note_on,0,0,2,,,,,,,,,1,,,62,96
24360,note_on,0,0,2,,,,,,,,,1,,,61,0
24360,note_on,0,0,2,,,,,,,,,1,,,59,91
24360,note_on,60,0,2,,,,,,,,,1,,,64,0
24360,note_on,0,0,3,,,,,,,,,2,,,54,49
24360,note_on,0,0,3,,,,,,,,,2,,,44,49
24360,note_on,60,0,3,,,,,,,,,2,,,52,0
24360,note_on,0,0,3,,,,,,,,,2,,,45,0
24400,note_on,214,0,1,,,,,,,,,0,,,83,65
24410,note_on,10,0,1,,,,,,,,,0,,,86,70
24420,note_on,10,0,1,,,,,,,,,0,,,88,75
24426,note_on,0,0,1,,,,,,,,,0,,,83,0
24426,note_on,6,0,1,,,,,,,,,0,,,88,0
24426,note_on,0,0,1,,,,,,,,,0,,,86,0
24460,note_on,34,0,1,,,,,,,,,0,,,86,65
24470,note_on,10,0,1,,,,,,,,,0,,,88,70
24480,note_on,10,0,1,,,,,,,,,0,,,95,75
24486,note_on,6,0,1,,,,,,,,,0,,,95,0
24486,note_on,0,0,1,,,,,,,,,0,,,88,0
24486,note_on,0,0,1,,,,,,,,,0,,,86,0
24520,note_on,34,0,1,,,,,,,,,0,,,88,65
24525,note_on,165,0,2,,,,,,,,,1,,,52,75
24530,note_on,10,0,1,,,,,,,,,0,,,95,70
24540,note_on,0,0,2,,,,,,,,,1,,,59,0
24540,note_on,0,0,2,,,,,,,,,1,,,62,0
24540,note_on,0,0,2,,,,,,,,,1,,,64,75
24540,note_on,180,0,3,,,,,,,,,2,,,54,0
24540,note_on,0,0,3,,,,,,,,,2,,,44,0
24540,note_on,10,0,1,,,,,,,,,0,,,98,75
24540,note_on,15,0,2,,,,,,,,,1,,,66,0
24546,note_on,6,0,1,,,,,,,,,0,,,98,0
24546,note_on,0,0,1,,,,,,,,,0,,,95,0
24546,note_on,0,0,1,,,,,,,,,0,,,88,0
24660,note_on,0,0,2,,,,,,,,,1,,,64,75
24660,note_on,0,0,2,,,,,,,,,1,,,62,75
24660,note_on,0,0,2,,,,,,,,,1,,,59,75
24660,note_on,0,0,3,,,,,,,,,2,,,52,49
24660,note_on,120,0,2,,,,,,,,,1,,,64,0
24660,note_on,0,0,2,,,,,,,,,1,,,52,0
24660,note_on,120,0,3,,,,,,,,,2,,,44,49
24720,note_on,60,0,2,,,,,,,,,1,,,64,0
24720,note_on,0,0,3,,,,,,,,,2,,,44,0
24720,note_on,0,0,3,,,,,,,,,2,,,44,49
24720,note_on,0,0,3,,,,,,,,,2,,,54,49
24720,note_on,60,0,3,,,,,,,,,2,,,52,0
24720,note_on,0,0,2,,,,,,,,,1,,,62,96
24720,note_on,0,0,2,,,,,,,,,1,,,66,101
24720,note_on,0,0,2,,,,,,,,,1,,,62,0
24720,note_on,0,0,2,,,,,,,,,1,,,59,91
24720,note_on,0,0,2,,,,,,,,,1,,,59,0
24760,note_on,214,0,1,,,,,,,,,0,,,83,65
24770,note_on,10,0,1,,,,,,,,,0,,,86,70
24780,note_on,10,0,1,,,,,,,,,0,,,88,75
24786,note_on,6,0,1,,,,,,,,,0,,,88,0
24786,note_on,0,0,1,,,,,,,,,0,,,86,0
24786,note_on,0,0,1,,,,,,,,,0,,,83,0
24820,note_on,34,0,1,,,,,,,,,0,,,86,65
24830,note_on,10,0,1,,,,,,,,,0,,,88,70
24840,note_on,10,0,1,,,,,,,,,0,,,95,75
24846,note_on,0,0,1,,,,,,,,,0,,,86,0
24846,note_on,6,0,1,,,,,,,,,0,,,95,0
24846,note_on,0,0,1,,,,,,,,,0,,,88,0
24880,note_on,34,0,1,,,,,,,,,0,,,88,65
24885,note_on,165,0,2,,,,,,,,,1,,,52,75
24890,note_on,10,0,1,,,,,,,,,0,,,95,70
24900,note_on,0,0,2,,,,,,,,,1,,,64,75
24900,note_on,180,0,3,,,,,,,,,2,,,54,0
24900,note_on,0,0,3,,,,,,,,,2,,,44,0
24900,note_on,0,0,2,,,,,,,,,1,,,59,0
24900,note_on,15,0,2,,,,,,,,,1,,,66,0
24900,note_on,0,0,2,,,,,,,,,1,,,62,0
24900,note_on,10,0,1,,,,,,,,,0,,,98,75
24906,note_on,6,0,1,,,,,,,,,0,,,98,0
24906,note_on,0,0,1,,,,,,,,,0,,,95,0
24906,note_on,0,0,1,,,,,,,,,0,,,88,0
25020,note_on,0,0,2,,,,,,,,,1,,,61,75
25020,note_on,0,0,3,,,,,,,,,2,,,53,49
25020,note_on,120,0,3,,,,,,,,,2,,,44,49
25020,note_on,0,0,2,,,,,,,,,1,,,59,75
25020,note_on,0,0,2,,,,,,,,,1,,,52,0
25020,note_on,120,0,2,,,,,,,,,1,,,64,0
25020,note_on,0,0,3,,,,,,,,,2,,,49,49
25020,note_on,0,0,2,,,,,,,,,1,,,65,75
25080,note_on,0,0,2,,,,,,,,,1,,,61,0
25080,note_on,0,0,2,,,,,,,,,1,,,59,0
25080,note_on,0,0,2,,,,,,,,,1,,,61,75
25080,note_on,0,0,2,,,,,,,,,1,,,66,75
25080,note_on,60,0,3,,,,,,,,,2,,,53,0
25080,note_on,0,0,3,,,,,,,,,2,,,42,62
25080,note_on,0,0,3,,,,,,,,,2,,,54,62
25080,note_on,60,0,2,,,,,,,,,1,,,65,0
25080,note_on,0,0,3,,,,,,,,,2,,,49,0
25080,note_on,0,0,3,,,,,,,,,2,,,44,0
25080,note_on,0,0,2,,,,,,,,,1,,,57,75
25080,note_on,0,0,3,,,,,,,,,2,,,49,62
25120,note_on,214,0,1,,,,,,,,,0,,,81,65
25130,note_on,10,0,1,,,,,,,,,0,,,85,70
25140,note_on,10,0,1,,,,,,,,,0,,,90,75
25146,note_on,6,0,1,,,,,,,,,0,,,90,0
25146,note_on,0,0,1,,,,,,,,,0,,,81,0
25146,note_on,0,0,1,,,,,,,,,0,,,85,0
25180,note_on,34,0,1,,,,,,,,,0,,,85,65
25190,note_on,10,0,1,,,,,,,,,0,,,90,70
25200,note_on,0,0,2,,,,,,,,,1,,,57,0
25200,note_on,120,0,2,,,,,,,,,1,,,66,0
25200,note_on,0,0,3,,,,,,,,,2,,,61,62
25200,note_on,0,0,2,,,,,,,,,1,,,61,0
25200,note_on,0,0,3,,,,,,,,,2,,,57,62
25200,note_on,0,0,3,,,,,,,,,2,,,42,0
25200,note_on,120,0,3,,,,,,,,,2,,,54,0
25200,note_on,0,0,3,,,,,,,,,2,,,54,62
25200,note_on,0,0,3,,,,,,,,,2,,,49,0
25200,note_on,10,0,1,,,,,,,,,0,,,93,75
25206,note_on,0,0,1,,,,,,,,,0,,,90,0
25206,note_on,0,0,1,,,,,,,,,0,,,85,0
25206,note_on,6,0,1,,,,,,,,,0,,,93,0
25240,note_on,34,0,1,,,,,,,,,0,,,90,65
25250,note_on,10,0,1,,,,,,,,,0,,,93,70
25260,note_on,0,0,3,,,,,,,,,2,,,57,62
25260,note_on,10,0,1,,,,,,,,,0,,,97,75
25260,note_on,0,0,3,,,,,,,,,2,,,61,62
25260,note_on,60,0,3,,,,,,,,,2,,,61,0
25260,note_on,0,0,3,,,,,,,,,2,,,57,0
25260,note_on,0,0,3,,,,,,,,,2,,,54,62
25260,note_on,0,0,3,,,,,,,,,2,,,54,0
25266,note_on,0,0,1,,,,,,,,,0,,,93,0
25266,note_on,0,0,1,,,,,,,,,0,,,90,0
25266,note_on,6,0,1,,,,,,,,,0,,,97,0
25380,note_on,180,0,2,,,,,,,,,1,,,57,75
25380,note_on,120,0,3,,,,,,,,,2,,,61,0
25380,note_on,0,0,2,,,,,,,,,1,,,61,75
25380,note_on,0,0,3,,,,,,,,,2,,,57,0
25380,note_on,0,0,3,,,,,,,,,2,,,54,62
25380,note_on,0,0,2,,,,,,,,,1,,,68,75
25380,note_on,0,0,3,,,,,,,,,2,,,49,62
25380,note_on,0,0,3,,,,,,,,,2,,,42,62
25380,note_on,0,0,3,,,,,,,,,2,,,54,0
25440,note_on,0,0,2,,,,,,,,,1,,,57,0
25440,note_on,0,0,2,,,,,,,,,1,,,61,88
25440,note_on,0,0,2,,,,,,,,,1,,,57,88
25440,note_on,0,0,2,,,,,,,,,1,,,61,0
25440,note_on,0,0,3,,,,,,,,,2,,,52,62
25440,note_on,0,0,3,,,,,,,,,2,,,49,62
25440,note_on,60,0,3,,,,,,,,,2,,,54,0
25440,note_on,0,0,2,,,,,,,,,1,,,69,88
25440,note_on,60,0,2,,,,,,,,,1,,,68,0
25440,note_on,0,0,3,,,,,,,,,2,,,42,0
25440,note_on,0,0,3,,,,,,,,,2,,,40,62
25440,note_on,0,0,3,,,,,,,,,2,,,49,0
25480,note_on,214,0,1,,,,,,,,,0,,,81,65
25485,set_tempo,1905,1,0,,,,,,697674,,,,,,,
25490,note_on,10,0,1,,,,,,,,,0,,,85,70
25500,note_on,60,0,3,,,,,,,,,2,,,52,0
25500,note_on,0,0,3,,,,,,,,,2,,,49,0
25500,note_on,0,0,3,,,,,,,,,2,,,40,0
25500,note_on,0,0,2,,,,,,,,,1,,,56,88
25500,note_on,0,0,2,,,,,,,,,1,,,57,0
25500,note_on,10,0,1,,,,,,,,,0,,,88,75
25500,note_on,0,0,2,,,,,,,,,1,,,68,88
25500,note_on,60,0,2,,,,,,,,,1,,,69,0
25500,note_on,0,0,2,,,,,,,,,1,,,61,0
25506,note_on,0,0,1,,,,,,,,,0,,,81,0
25506,note_on,6,0,1,,,,,,,,,0,,,88,0
25506,note_on,0,0,1,,,,,,,,,0,,,85,0
25530,set_tempo,45,1,0,,,,,,722892,,,,,,,
25540,note_on,34,0,1,,,,,,,,,0,,,85,65
25550,note_on,10,0,1,,,,,,,,,0,,,88,70
25560,note_on,0,0,2,,,,,,,,,1,,,57,88
25560,note_on,0,0,2,,,,,,,,,1,,,69,88
25560,note_on,10,0,1,,,,,,,,,0,,,93,75
25560,note_on,60,0,2,,,,,,,,,1,,,68,0
25560,note_on,0,0,2,,,,,,,,,1,,,56,0
25566,note_on,0,0,1,,,,,,,,,0,,,85,0
25566,note_on,0,0,1,,,,,,,,,0,,,88,0
25566,note_on,6,0,1,,,,,,,,,0,,,93,0
25575,set_tempo,45,1,0,,,,,,750000,,,,,,,
25620,note_on,0,0,1,,,,,,,,,0,,,92,71
25620,note_on,54,0,1,,,,,,,,,0,,,86,63
25620,note_on,0,0,1,,,,,,,,,0,,,100,75
25620,note_on,60,0,2,,,,,,,,,1,,,69,0
25620,note_on,0,0,2,,,,,,,,,1,,,57,0
25620,set_tempo,45,1,0,,,,,,789474,,,,,,,
25620,note_on,0,0,1,,,,,,,,,0,,,88,67
25620,note_on,0,0,2,,,,,,,,,1,,,61,88
25620,note_on,0,0,2,,,,,,,,,1,,,73,88
25626,note_on,6,0,1,,,,,,,,,0,,,100,0
25626,note_on,0,0,1,,,,,,,,,0,,,92,0
25626,note_on,0,0,1,,,,,,,,,0,,,86,0
25626,note_on,0,0,1,,,,,,,,,0,,,88,0
25665,set_tempo,45,1,0,,,,,,821918,,,,,,,
25710,set_tempo,45,1,0,,,,,,857143,,,,,,,
25740,note_on,0,0,1,,,,,,,,,0,,,64,49
25740,note_on,0,0,1,,,,,,,,,0,,,76,49
25740,note_on,114,0,1,,,,,,,,,0,,,62,49
25740,note_on,0,0,2,,,,,,,,,1,,,59,88
25740,note_on,0,0,2,,,,,,,,,1,,,71,88
25740,note_on,120,0,2,,,,,,,,,1,,,73,0
25740,note_on,0,0,3,,,,,,,,,2,,,56,62
25740,note_on,240,0,3,,,,,,,,,2,,,52,62
25740,note_on,0,0,2,,,,,,,,,1,,,61,0
25755,set_tempo,45,1,0,,,,,,895522,,,,,,,
25800,note_on,0,0,3,,,,,,,,,2,,,45,75
25800,note_on,0,0,3,,,,,,,,,2,,,52,0
25800,note_on,0,0,3,,,,,,,,,2,,,52,75
25800,note_on,0,0,3,,,,,,,,,2,,,57,75
25800,note_on,60,0,2,,,,,,,,,1,,,71,0
25800,note_on,0,0,2,,,,,,,,,1,,,69,88
25800,note_on,0,0,2,,,,,,,,,1,,,59,0
25800,set_tempo,45,1,0,,,,,,705882,,,,,,,
25800,note_on,0,0,2,,,,,,,,,1,,,57,88
25800,note_on,60,0,3,,,,,,,,,2,,,56,0
25800,note_on,0,0,1,,,,,,,,,0,,,64,0
25800,note_on,0,0,1,,,,,,,,,0,,,62,0
25800,note_on,0,0,1,,,,,,,,,0,,,61,75
25800,note_on,60,0,1,,,,,,,,,0,,,76,0
25800,note_on,0,0,1,,,,,,,,,0,,,76,75
25860,note_on,60,0,3,,,,,,,,,2,,,57,0
25860,note_on,60,0,1,,,,,,,,,0,,,76,0
25860,note_on,0,0,3,,,,,,,,,2,,,45,0
25860,note_on,0,0,1,,,,,,,,,0,,,61,0
25860,note_on,0,0,3,,,,,,,,,2,,,57,75
25860,note_on,0,0,1,,,,,,,,,0,,,80,75
25860,note_on,0,0,1,,,,,,,,,0,,,68,75
25860,note_on,0,0,3,,,,,,,,,2,,,52,0
25860,note_on,0,0,3,,,,,,,,,2,,,52,75
25920,note_on,0,0,3,,,,,,,,,2,,,52,0
25920,note_on,0,0,3,,,,,,,,,2,,,57,75
25920,note_on,0,0,3,,,,,,,,,2,,,61,75
25920,note_on,60,0,1,,,,,,,,,0,,,80,0
25920,note_on,120,0,2,,,,,,,,,1,,,69,0
25920,note_on,0,0,2,,,,,,,,,1,,,57,0
25920,note_on,0,0,1,,,,,,,,,0,,,81,75
25920,note_on,0,0,1,,,,,,,,,0,,,68,0
25920,note_on,0,0,1,,,,,,,,,0,,,69,75
25920,note_on,60,0,3,,,,,,,,,2,,,57,0
25980,note_on,0,0,3,,,,,,,,,2,,,57,0
25980,note_on,0,0,3,,,,,,,,,2,,,44,75
25980,note_on,0,0,1,,,,,,,,,0,,,69,0
25980,note_on,0,0,1,,,,,,,,,0,,,73,75
25980,note_on,0,0,1,,,,,,,,,0,,,85,75
25980,note_on,60,0,1,,,,,,,,,0,,,81,0
25980,note_on,60,0,3,,,,,,,,,2,,,61,0
26040,note_on,0,0,3,,,,,,,,,2,,,53,75
26040,note_on,60,0,3,,,,,,,,,2,,,44,0
26040,note_on,0,0,3,,,,,,,,,2,,,49,75
26100,note_on,180,0,2,,,,,,,,,1,,,61,104
26100,note_on,120,0,1,,,,,,,,,0,,,85,0
26100,note_on,60,0,3,,,,,,,,,2,,,53,0
26100,note_on,0,0,3,,,,,,,,,2,,,53,75
26100,note_on,0,0,3,,,,,,,,,2,,,59,75
26100,note_on,0,0,1,,,,,,,,,0,,,73,0
26100,note_on,0,0,3,,,,,,,,,2,,,49,0
26100,note_on,0,0,2,,,,,,,,,1,,,71,109
26100,note_on,0,0,2,,,,,,,,,1,,,73,114
26137,note_on,37,0,3,,,,,,,,,2,,,42,75
26145,note_on,8,0,3,,,,,,,,,2,,,49,75
26152,note_on,7,0,3,,,,,,,,,2,,,54,75
26160,note_on,0,0,3,,,,,,,,,2,,,53,0
26160,note_on,0,0,3,,,,,,,,,2,,,57,75
26160,note_on,0,0,2,,,,,,,,,1,,,73,88
26160,note_on,0,0,2,,,,,,,,,1,,,71,0
26160,note_on,0,0,2,,,,,,,,,1,,,61,0
26160,note_on,0,0,2,,,,,,,,,1,,,61,88
26160,note_on,60,0,2,,,,,,,,,1,,,73,0
26160,note_on,0,0,2,,,,,,,,,1,,,69,88
26160,note_on,8,0,3,,,,,,,,,2,,,59,0
26200,note_on,100,0,1,,,,,,,,,0,,,81,91
26210,note_on,10,0,1,,,,,,,,,0,,,85,96
26220,note_on,10,0,1,,,,,,,,,0,,,90,101
26226,note_on,0,0,1,,,,,,,,,0,,,81,0
26226,note_on,0,0,1,,,,,,,,,0,,,85,0
26226,note_on,6,0,1,,,,,,,,,0,,,90,0
26260,note_on,34,0,1,,,,,,,,,0,,,85,91
26270,note_on,10,0,1,,,,,,,,,0,,,90,96
26280,note_on,120,0,3,,,,,,,,,2,,,57,0
26280,note_on,0,0,2,,,,,,,,,1,,,61,0
26280,note_on,120,0,2,,,,,,,,,1,,,73,0
26280,note_on,0,0,2,,,,,,,,,1,,,69,0
26280,control_change,0,0,3,,,,,,,,,2,64,127,,
26280,note_on,0,0,3,,,,,,,,,2,,,49,0
26280,note_on,0,0,3,,,,,,,,,2,,,54,0
26280,note_on,0,0,3,,,,,,,,,2,,,54,75
26280,note_on,0,0,3,,,,,,,,,2,,,57,75
26280,note_on,0,0,3,,,,,,,,,2,,,61,75
26280,note_on,0,0,3,,,,,,,,,2,,,42,0
26280,note_on,10,0,1,,,,,,,,,0,,,93,101
26286,note_on,0,0,3,,,,,,,,,2,,,54,0
26286,note_on,0,0,3,,,,,,,,,2,,,57,0
26286,note_on,6,0,3,,,,,,,,,2,,,61,0
26286,note_on,6,0,1,,,,,,,,,0,,,93,0
26286,note_on,0,0,1,,,,,,,,,0,,,90,0
26286,note_on,0,0,1,,,,,,,,,0,,,85,0
26320,note_on,34,0,1,,,,,,,,,0,,,90,91
26330,note_on,10,0,1,,,,,,,,,0,,,93,96
26340,note_on,10,0,1,,,,,,,,,0,,,97,101
26340,note_on,0,0,3,,,,,,,,,2,,,61,75
26340,note_on,0,0,3,,,,,,,,,2,,,57,75
26340,note_on,0,0,3,,,,,,,,,2,,,54,75
26340,control_change,54,0,3,,,,,,,,,2,64,0,,
26346,note_on,0,0,1,,,,,,,,,0,,,93,0
26346,note_on,0,0,1,,,,,,,,,0,,,90,0
26346,note_on,6,0,1,,,,,,,,,0,,,97,0
26352,note_on,0,0,3,,,,,,,,,2,,,57,0
26352,note_on,0,0,3,,,,,,,,,2,,,54,0
26352,note_on,12,0,3,,,,,,,,,2,,,61,0
26460,note_on,108,0,3,,,,,,,,,2,,,42,75
26460,note_on,0,0,3,,,,,,,,,2,,,54,75
26460,note_on,0,0,3,,,,,,,,,2,,,49,75
26460,note_on,180,0,2,,,,,,,,,1,,,57,88
26460,note_on,0,0,2,,,,,,,,,1,,,68,88
26460,note_on,0,0,2,,,,,,,,,1,,,61,88
26520,time_signature,720,1,0,7,8,12,8,,,,,,,,,
26520,note_on,60,0,3,,,,,,,,,2,,,54,0
26520,note_on,0,0,2,,,,,,,,,1,,,61,0
26520,note_on,0,0,3,,,,,,,,,2,,,40,88
26520,note_on,0,0,2,,,,,,,,,1,,,57,0
26520,note_on,0,0,2,,,,,,,,,1,,,57,101
26520,note_on,0,0,2,,,,,,,,,1,,,61,101
26520,note_on,0,0,2,,,,,,,,,1,,,69,101
26520,note_on,0,0,3,,,,,,,,,2,,,42,0
26520,note_on,0,0,3,,,,,,,,,2,,,49,0
26520,note_on,60,0,2,,,,,,,,,1,,,68,0
26520,note_on,0,0,3,,,,,,,,,2,,,52,88
26520,note_on,0,0,3,,,,,,,,,2,,,49,88
26565,set_tempo,45,1,0,,,,,,731707,,,,,,,
26580,note_on,60,0,3,,,,,,,,,2,,,52,0
26580,note_on,60,0,2,,,,,,,,,1,,,69,0
26580,note_on,0,0,2,,,,,,,,,1,,,61,0
26580,note_on,0,0,2,,,,,,,,,1,,,57,0
26580,note_on,0,0,1,,,,,,,,,0,,,85,88
26580,note_on,0,0,1,,,,,,,,,0,,,88,88
26580,note_on,0,0,2,,,,,,,,,1,,,73,101
26580,note_on,0,0,2,,,,,,,,,1,,,61,101
26580,note_on,234,0,1,,,,,,,,,0,,,81,88
26580,note_on,0,0,3,,,,,,,,,2,,,49,0
26580,note_on,0,0,3,,,,,,,,,2,,,40,0
26610,note_on,0,0,1,,,,,,,,,0,,,81,0
26610,note_on,0,0,1,,,,,,,,,0,,,85,0
26610,set_tempo,45,1,0,,,,,,759494,,,,,,,
26610,note_on,0,0,1,,,,,,,,,0,,,93,88
26610,note_on,30,0,1,,,,,,,,,0,,,88,0
26640,note_on,0,0,2,,,,,,,,,1,,,69,101
26640,note_on,0,0,2,,,,,,,,,1,,,57,101
26640,note_on,0,0,2,,,,,,,,,1,,,61,0
26640,note_on,0,0,1,,,,,,,,,0,,,88,88
26640,note_on,60,0,2,,,,,,,,,1,,,73,0
26640,note_on,0,0,1,,,,,,,,,0,,,93,88
26640,note_on,30,0,1,,,,,,,,,0,,,93,0
26640,note_on,0,0,1,,,,,,,,,0,,,85,88
26655,set_tempo,45,1,0,,,,,,789474,,,,,,,
26670,note_on,0,0,1,,,,,,,,,0,,,85,0
26670,note_on,0,0,1,,,,,,,,,0,,,97,88
26670,note_on,30,0,1,,,,,,,,,0,,,93,0
26670,note_on,0,0,1,,,,,,,,,0,,,88,0
26677,note_on,7,0,1,,,,,,,,,0,,,86,88
26685,note_on,8,0,1,,,,,,,,,0,,,88,88
26692,note_on,7,0,1,,,,,,,,,0,,,92,88
26700,note_on,60,0,2,,,,,,,,,1,,,69,0
26700,note_on,0,0,2,,,,,,,,,1,,,64,119
26700,note_on,0,0,2,,,,,,,,,1,,,76,127
26700,note_on,0,0,1,,,,,,,,,0,,,100,88
26700,set_tempo,45,1,0,,,,,,833333,,,,,,,
26700,note_on,0,0,2,,,,,,,,,1,,,57,0
26700,note_on,8,0,1,,,,,,,,,0,,,97,0
26745,set_tempo,45,1,0,,,,,,869565,,,,,,,
26790,set_tempo,45,1,0,,,,,,909091,,,,,,,
26835,set_tempo,45,1,0,,,,,,952381,,,,,,,
26880,note_on,180,0,1,,,,,,,,,0,,,100,0
26880,note_on,300,0,3,,,,,,,,,2,,,52,88
26880,note_on,0,0,1,,,,,,,,,0,,,92,0
26880,note_on,0,0,3,,,,,,,,,2,,,59,88
26880,note_on,0,0,2,,,,,,,,,1,,,68,101
26880,note_on,0,0,2,,,,,,,,,1,,,64,0
26880,note_on,180,0,2,,,,,,,,,1,,,76,0
26880,set_tempo,45,1,0,,,,,,705882,,,,,,,
26880,note_on,0,0,1,,,,,,,,,0,,,88,0
26880,note_on,0,0,1,,,,,,,,,0,,,62,88
26880,note_on,0,0,1,,,,,,,,,0,,,64,88
26880,note_on,0,0,1,,,,,,,,,0,,,76,88
26880,note_on,0,0,1,,,,,,,,,0,,,86,0
26925,note_on,45,0,1,,,,,,,,,0,,,61,88
26940,note_on,0,0,3,,,,,,,,,2,,,45,88
26940,note_on,0,0,3,,,,,,,,,2,,,52,0
26940,note_on,0,0,3,,,,,,,,,2,,,57,88
26940,note_on,0,0,3,,,,,,,,,2,,,52,88
26940,note_on,0,0,1,,,,,,,,,0,,,62,0
26940,note_on,0,0,2,,,,,,,,,1,,,69,101
26940,note_on,60,0,3,,,,,,,,,2,,,59,0
26940,note_on,15,0,1,,,,,,,,,0,,,76,0
26940,note_on,60,0,2,,,,,,,,,1,,,68,0
26940,time_signature,60,1,0,6,8,12,8,,,,,,,,,
26940,note_on,0,0,1,,,,,,,,,0,,,76,88
26940,note_on,0,0,1,,,,,,,,,0,,,64,0
26985,set_tempo,45,1,0,,,,,,731707,,,,,,,
27000,note_on,60,0,3,,,,,,,,,2,,,57,0
27000,note_on,0,0,3,,,,,,,,,2,,,45,0
27000,note_on,0,0,3,,,,,,,,,2,,,52,0
27000,note_on,0,0,3,,,,,,,,,2,,,57,114
27000,note_on,0,0,1,,,,,,,,,0,,,61,0
27000,note_on,0,0,3,,,,,,,,,2,,,52,106
27000,note_on,0,0,1,,,,,,,,,0,,,73,88
27000,note_on,0,0,1,,,,,,,,,0,,,85,88
27000,note_on,60,0,1,,,,,,,,,0,,,76,0
27006,note_on,6,0,3,,,,,,,,,2,,,57,0
27006,note_on,0,0,3,,,,,,,,,2,,,52,0
27030,set_tempo,45,1,0,,,,,,759494,,,,,,,
27060,note_on,0,0,1,,,,,,,,,0,,,69,88
27060,note_on,120,0,2,,,,,,,,,1,,,69,0
27060,note_on,0,0,1,,,,,,,,,0,,,73,0
27060,note_on,54,0,3,,,,,,,,,2,,,57,106
27060,note_on,60,0,1,,,,,,,,,0,,,85,0
27060,note_on,0,0,3,,,,,,,,,2,,,61,114
27060,note_on,0,0,1,,,,,,,,,0,,,81,88
27066,note_on,0,0,3,,,,,,,,,2,,,57,0
27066,note_on,6,0,3,,,,,,,,,2,,,61,0
27075,set_tempo,45,1,0,,,,,,789474,,,,,,,
27105,note_on,45,0,1,,,,,,,,,0,,,80,88
27120,note_on,0,0,1,,,,,,,,,0,,,81,0
27120,note_on,54,0,3,,,,,,,,,2,,,40,114
27120,set_tempo,45,1,0,,,,,,833333,,,,,,,
27120,note_on,0,0,1,,,,,,,,,0,,,88,88
27120,note_on,15,0,1,,,,,,,,,0,,,80,0
27120,note_on,0,0,1,,,,,,,,,0,,,76,88
27120,note_on,0,0,1,,,,,,,,,0,,,69,0
27126,note_on,6,0,3,,,,,,,,,2,,,40,0
27165,set_tempo,45,1,0,,,,,,869565,,,,,,,
27180,note_on,54,0,3,,,,,,,,,2,,,52,106
27180,note_on,0,0,3,,,,,,,,,2,,,59,114
27186,note_on,0,0,3,,,,,,,,,2,,,52,0
27186,note_on,6,0,3,,,,,,,,,2,,,59,0
27210,set_tempo,45,1,0,,,,,,909091,,,,,,,
27240,note_on,54,0,3,,,,,,,,,2,,,59,106
27240,note_on,120,0,1,,,,,,,,,0,,,88,0
27240,note_on,0,0,3,,,,,,,,,2,,,62,114
27240,note_on,0,0,1,,,,,,,,,0,,,76,0
27240,note_on,0,0,1,,,,,,,,,0,,,80,75
27240,note_on,0,0,1,,,,,,,,,0,,,68,75
27246,note_on,6,0,3,,,,,,,,,2,,,62,0
27246,note_on,0,0,3,,,,,,,,,2,,,59,0
27255,set_tempo,45,1,0,,,,,,952381,,,,,,,
27300,note_on,60,0,1,,,,,,,,,0,,,80,0
27300,set_tempo,45,1,0,,,,,,705882,,,,,,,
27300,note_on,0,0,1,,,,,,,,,0,,,69,75
27300,note_on,0,0,1,,,,,,,,,0,,,81,75
27300,note_on,54,0,3,,,,,,,,,2,,,45,75
27300,note_on,0,0,1,,,,,,,,,0,,,68,0
27305,note_on,5,0,3,,,,,,,,,2,,,45,0
27352,note_on,47,0,3,,,,,,,,,2,,,49,75
27360,note_on,8,0,3,,,,,,,,,2,,,49,0
27360,note_on,0,0,3,,,,,,,,,2,,,52,75
27364,note_on,4,0,3,,,,,,,,,2,,,52,0
27412,note_on,48,0,3,,,,,,,,,2,,,52,75
27420,note_on,0,0,1,,,,,,,,,0,,,64,75
27420,note_on,0,0,1,,,,,,,,,0,,,69,0
27420,note_on,0,0,1,,,,,,,,,0,,,76,75
27420,note_on,8,0,3,,,,,,,,,2,,,52,0
27420,control_change,0,0,1,,,,,,,,,0,64,127,,
27420,note_on,120,0,1,,,,,,,,,0,,,81,0
27420,note_on,0,0,3,,,,,,,,,2,,,57,75
27425,note_on,5,0,3,,,,,,,,,2,,,57,0
27426,note_on,0,0,1,,,,,,,,,0,,,64,0
27426,note_on,6,0,1,,,,,,,,,0,,,76,0
27472,note_on,47,0,3,,,,,,,,,2,,,57,75
27480,note_on,0,0,1,,,,,,,,,0,,,76,62
27480,note_on,8,0,3,,,,,,,,,2,,,57,0
27480,note_on,0,0,3,,,,,,,,,2,,,61,101
27480,note_on,0,0,3,,,,,,,,,2,,,57,93
27480,note_on,54,0,1,,,,,,,,,0,,,64,62
27492,note_on,0,0,1,,,,,,,,,0,,,64,0
27492,note_on,0,0,3,,,,,,,,,2,,,57,0
27492,note_on,12,0,3,,,,,,,,,2,,,61,0
27492,note_on,12,0,1,,,,,,,,,0,,,76,0
27600,note_on,0,0,1,,,,,,,,,0,,,64,62
27600,note_on,0,0,1,,,,,,,,,0,,,76,62
27600,control_change,108,0,1,,,,,,,,,0,64,0,,
27606,note_on,0,0,1,,,,,,,,,0,,,64,0
27606,note_on,6,0,1,,,,,,,,,0,,,76,0
27660,control_change,54,0,1,,,,,,,,,0,64,127,,
27660,note_on,168,0,3,,,,,,,,,2,,,33,49
27660,note_on,0,0,1,,,,,,,,,0,,,76,62
27660,note_on,0,0,1,,,,,,,,,0,,,73,62
27660,note_on,0,0,1,,,,,,,,,0,,,64,62
27665,note_on,5,0,3,,,,,,,,,2,,,33,0
27672,note_on,0,0,1,,,,,,,,,0,,,73,0
27672,note_on,12,0,1,,,,,,,,,0,,,76,0
27672,note_on,0,0,1,,,,,,,,,0,,,64,0
27705,set_tempo,405,1,0,,,,,,731707,,,,,,,
27712,note_on,47,0,3,,,,,,,,,2,,,49,49
27720,note_on,8,0,3,,,,,,,,,2,,,49,0
27720,note_on,0,0,3,,,,,,,,,2,,,52,49
27724,note_on,4,0,3,,,,,,,,,2,,,52,0
27750,set_tempo,45,1,0,,,,,,759494,,,,,,,
27772,note_on,48,0,3,,,,,,,,,2,,,52,49
27780,note_on,8,0,3,,,,,,,,,2,,,52,0
27780,note_on,0,0,3,,,,,,,,,2,,,57,49
27780,note_on,108,0,1,,,,,,,,,0,,,64,49
27780,note_on,0,0,1,,,,,,,,,0,,,73,49
27780,note_on,0,0,1,,,,,,,,,0,,,76,49
27785,note_on,5,0,3,,,,,,,,,2,,,57,0
27786,note_on,0,0,1,,,,,,,,,0,,,64,0
27786,note_on,0,0,1,,,,,,,,,0,,,73,0
27786,note_on,6,0,1,,,,,,,,,0,,,76,0
27795,set_tempo,45,1,0,,,,,,789474,,,,,,,
27832,note_on,47,0,3,,,,,,,,,2,,,57,49
27840,note_on,0,0,1,,,,,,,,,0,,,73,49
27840,note_on,0,0,1,,,,,,,,,0,,,76,49
27840,set_tempo,45,1,0,,,,,,833333,,,,,,,
27840,note_on,0,0,3,,,,,,,,,2,,,61,75
27840,note_on,8,0,3,,,,,,,,,2,,,57,0
27840,note_on,0,0,3,,,,,,,,,2,,,57,67
27840,note_on,54,0,1,,,,,,,,,0,,,64,49
27852,note_on,0,0,3,,,,,,,,,2,,,57,0
27852,note_on,0,0,1,,,,,,,,,0,,,64,0
27852,note_on,12,0,3,,,,,,,,,2,,,61,0
27852,note_on,0,0,1,,,,,,,,,0,,,73,0
27852,note_on,12,0,1,,,,,,,,,0,,,76,0
27885,set_tempo,45,1,0,,,,,,869565,,,,,,,
27930,set_tempo,45,1,0,,,,,,909091,,,,,,,
27960,note_on,0,0,1,,,,,,,,,0,,,64,49
27960,note_on,0,0,1,,,,,,,,,0,,,73,49
27960,note_on,0,0,1,,,,,,,,,0,,,76,49
27960,control_change,108,0,1,,,,,,,,,0,64,0,,
27966,note_on,6,0,1,,,,,,,,,0,,,76,0
27966,note_on,0,0,1,,,,,,,,,0,,,64,0
27966,note_on,0,0,1,,,,,,,,,0,,,73,0
27975,set_tempo,45,1,0,,,,,,952381,,,,,,,
28020,set_tempo,45,1,0,,,,,,705882,,,,,,,
28020,end_of_track,0,1,0,,,,,,,,,,,,,
28020,note_on,0,0,1,,,,,,,,,0,,,97,36
28020,note_on,0,0,2,,,,,,,,,1,,,88,36
28020,note_on,54,0,1,,,,,,,,,0,,,85,36
28020,note_on,0,0,1,,,,,,,,,0,,,93,36
28020,control_change,960,0,2,,,,,,,,,1,64,127,,
28050,note_on,0,0,2,,,,,,,,,1,,,81,36
28050,note_on,30,0,2,,,,,,,,,1,,,88,0
28080,note_on,0,0,2,,,,,,,,,1,,,76,36
28080,note_on,30,0,2,,,,,,,,,1,,,81,0
28110,note_on,0,0,2,,,,,,,,,1,,,76,36
28110,note_on,30,0,2,,,,,,,,,1,,,76,0
28140,note_on,30,0,2,,,,,,,,,1,,,76,0
28140,note_on,0,0,2,,,,,,,,,1,,,69,36
28170,note_on,30,0,2,,,,,,,,,1,,,69,0
28170,note_on,0,0,2,,,,,,,,,1,,,64,36
28200,note_on,30,0,2,,,,,,,,,1,,,64,0
28200,control_change,348,0,3,,,,,,,,,2,64,127,,
28200,note_on,0,0,3,,,,,,,,,2,,,64,49
28230,note_on,30,0,3,,,,,,,,,2,,,64,0
28230,note_on,0,0,3,,,,,,,,,2,,,57,49
28260,note_on,0,0,3,,,,,,,,,2,,,52,49
28260,note_on,30,0,3,,,,,,,,,2,,,57,0
28290,note_on,0,0,3,,,,,,,,,2,,,52,49
28290,note_on,30,0,3,,,,,,,,,2,,,52,0
28320,note_on,30,0,3,,,,,,,,,2,,,52,0
28320,control_change,120,0,2,,,,,,,,,1,64,0,,
28320,note_on,0,0,3,,,,,,,,,2,,,45,49
28350,note_on,30,0,3,,,,,,,,,2,,,45,0
28350,note_on,0,0,3,,,,,,,,,2,,,40,49
28380,control_change,0,0,3,,,,,,,,,2,64,0,,
28380,note_on,0,0,3,,,,,,,,,2,,,33,75
28380,note_on,30,0,3,,,,,,,,,2,,,40,0
28440,note_on,60,0,3,,,,,,,,,2,,,33,0
28440,note_on,420,0,1,,,,,,,,,0,,,97,0
28440,note_on,0,0,1,,,,,,,,,0,,,93,0
28440,note_on,0,0,1,,,,,,,,,0,,,85,0
28740,control_change,420,0,2,,,,,,,,,1,64,0,,
28740,control_change,17220,0,4,,,,,,,,,3,64,0,,
28740,end_of_track,0,1,4,,,,,,,,,,,,,
28740,end_of_track,0,1,3,,,,,,,,,,,,,
28740,end_of_track,0,1,2,,,,,,,,,,,,,
28740,end_of_track,0,1,1,,,,,,,,,,,,,
28740,control_change,300,0,1,,,,,,,,,0,64,0,,
28740,control_change,300,0,3,,,,,,,,,2,64,0,,
