tick,type,time,meta,track,numerator,denominator,clocks_per_click,notated_32nd_notes_per_beat,key,tempo,program,channel,control,value,note,velocity
0,control_change,0,0,1,,,,,,,,0,7,127,,
0,track_name,0,1,1,,,,,,,,,,,,
0,track_name,0,1,0,,,,,,,,,,,,
0,time_signature,0,1,0,4,4,24,8,,,,,,,,
0,set_tempo,0,1,0,,,,,,600000,,,,,,
0,program_change,0,0,3,,,,,,,0,0,,,,
0,program_change,0,0,2,,,,,,,0,0,,,,
0,program_change,0,0,1,,,,,,,0,0,,,,
0,track_name,0,1,2,,,,,,,,,,,,
0,key_signature,0,1,0,,,,,C,,,,,,,
0,track_name,0,1,3,,,,,,,,,,,,
0,control_change,0,0,1,,,,,,,,0,10,62,,
0,control_change,0,0,2,,,,,,,,0,7,127,,
0,control_change,0,0,3,,,,,,,,0,7,127,,
0,control_change,0,0,3,,,,,,,,0,10,62,,
0,control_change,0,0,2,,,,,,,,0,10,62,,
900,note_on,900,0,3,,,,,,,,0,,,52,80
900,note_on,0,0,3,,,,,,,,0,,,64,80
948,note_on,48,0,3,,,,,,,,0,,,64,0
948,note_on,0,0,3,,,,,,,,0,,,52,0
960,note_on,12,0,3,,,,,,,,0,,,52,80
960,note_on,0,0,3,,,,,,,,0,,,64,80
977,control_change,17,0,3,,,,,,,,0,64,127,,
1152,note_on,175,0,3,,,,,,,,0,,,64,0
1152,note_on,0,0,3,,,,,,,,0,,,52,0
1200,note_on,0,0,3,,,,,,,,0,,,31,80
1200,note_on,0,0,3,,,,,,,,0,,,40,80
1200,note_on,0,0,3,,,,,,,,0,,,46,80
1200,note_on,0,0,3,,,,,,,,0,,,49,80
1200,note_on,0,0,3,,,,,,,,0,,,52,80
1200,note_on,48,0,3,,,,,,,,0,,,43,80
1392,note_on,192,0,3,,,,,,,,0,,,46,0
1392,note_on,0,0,3,,,,,,,,0,,,52,0
1392,note_on,0,0,3,,,,,,,,0,,,49,0
1392,note_on,0,0,3,,,,,,,,0,,,43,0
1392,note_on,0,0,3,,,,,,,,0,,,31,0
1392,note_on,0,0,3,,,,,,,,0,,,40,0
1440,note_on,0,0,3,,,,,,,,0,,,64,80
1440,note_on,0,0,3,,,,,,,,0,,,76,80
1440,note_on,0,0,3,,,,,,,,0,,,88,80
1440,note_on,48,0,3,,,,,,,,0,,,52,80
1632,note_on,192,0,3,,,,,,,,0,,,76,0
1632,note_on,0,0,3,,,,,,,,0,,,64,0
1632,note_on,0,0,3,,,,,,,,0,,,88,0
1632,note_on,0,0,3,,,,,,,,0,,,52,0
1680,note_on,48,0,3,,,,,,,,0,,,61,80
1680,note_on,0,0,3,,,,,,,,0,,,64,80
1680,note_on,0,0,3,,,,,,,,0,,,52,80
1680,note_on,0,0,3,,,,,,,,0,,,43,80
1680,note_on,0,0,3,,,,,,,,0,,,55,80
1680,note_on,0,0,3,,,,,,,,0,,,58,80
1849,note_on,0,0,3,,,,,,,,0,,,43,0
1849,note_on,0,0,3,,,,,,,,0,,,52,0
1849,note_on,169,0,3,,,,,,,,0,,,55,0
1860,note_on,11,0,3,,,,,,,,0,,,67,80
1872,note_on,12,0,3,,,,,,,,0,,,61,0
1872,note_on,0,0,3,,,,,,,,0,,,64,0
1872,note_on,0,0,3,,,,,,,,0,,,58,0
1920,note_on,48,0,3,,,,,,,,0,,,76,80
1920,note_on,0,0,3,,,,,,,,0,,,100,80
1920,note_on,0,0,3,,,,,,,,0,,,88,80
1920,note_on,0,0,3,,,,,,,,0,,,82,80
1920,note_on,0,0,3,,,,,,,,0,,,73,80
2112,note_on,0,0,3,,,,,,,,0,,,82,0
2112,note_on,0,0,3,,,,,,,,0,,,67,0
2112,note_on,192,0,3,,,,,,,,0,,,73,0
2112,note_on,0,0,3,,,,,,,,0,,,76,0
2160,set_tempo,2160,1,0,,,,,,498712,,,,,,
2184,note_on,72,0,3,,,,,,,,0,,,88,0
2184,note_on,0,0,3,,,,,,,,0,,,100,0
2190,note_on,6,0,3,,,,,,,,0,,,99,80
2214,note_on,24,0,3,,,,,,,,0,,,99,0
2220,note_on,6,0,3,,,,,,,,0,,,97,80
2244,note_on,24,0,3,,,,,,,,0,,,97,0
2250,note_on,6,0,3,,,,,,,,0,,,94,80
2274,note_on,24,0,3,,,,,,,,0,,,94,0
2280,note_on,6,0,3,,,,,,,,0,,,88,80
2304,note_on,24,0,3,,,,,,,,0,,,88,0
2310,note_on,6,0,3,,,,,,,,0,,,87,80
2334,note_on,24,0,3,,,,,,,,0,,,87,0
2340,note_on,6,0,3,,,,,,,,0,,,85,80
2364,note_on,24,0,3,,,,,,,,0,,,85,0
2370,note_on,6,0,3,,,,,,,,0,,,82,80
2394,note_on,24,0,3,,,,,,,,0,,,82,0
2400,note_on,6,0,3,,,,,,,,0,,,76,80
2424,note_on,24,0,3,,,,,,,,0,,,76,0
2430,note_on,6,0,3,,,,,,,,0,,,75,80
2454,note_on,24,0,3,,,,,,,,0,,,75,0
2460,note_on,6,0,3,,,,,,,,0,,,73,80
2484,note_on,24,0,3,,,,,,,,0,,,73,0
2490,note_on,6,0,3,,,,,,,,0,,,70,80
2514,note_on,24,0,3,,,,,,,,0,,,70,0
2520,note_on,6,0,3,,,,,,,,0,,,64,80
2544,note_on,24,0,3,,,,,,,,0,,,64,0
2550,note_on,6,0,3,,,,,,,,0,,,63,80
2574,note_on,24,0,3,,,,,,,,0,,,63,0
2580,note_on,6,0,3,,,,,,,,0,,,61,80
2604,note_on,24,0,3,,,,,,,,0,,,61,0
2610,note_on,6,0,3,,,,,,,,0,,,58,80
2634,note_on,24,0,3,,,,,,,,0,,,58,0
2640,note_on,6,0,3,,,,,,,,0,,,52,80
2669,note_on,29,0,3,,,,,,,,0,,,52,0
2670,note_on,1,0,3,,,,,,,,0,,,51,80
2699,note_on,29,0,3,,,,,,,,0,,,51,0
2700,note_on,1,0,3,,,,,,,,0,,,49,80
2729,note_on,29,0,3,,,,,,,,0,,,49,0
2730,note_on,1,0,3,,,,,,,,0,,,46,80
2759,note_on,29,0,3,,,,,,,,0,,,46,0
2760,note_on,1,0,3,,,,,,,,0,,,40,80
2789,note_on,29,0,3,,,,,,,,0,,,40,0
2790,note_on,1,0,3,,,,,,,,0,,,39,80
2802,control_change,12,0,3,,,,,,,,0,64,0,,
2819,note_on,17,0,3,,,,,,,,0,,,39,0
2820,note_on,1,0,3,,,,,,,,0,,,37,80
2849,note_on,29,0,3,,,,,,,,0,,,37,0
2850,note_on,1,0,3,,,,,,,,0,,,34,80
2879,note_on,29,0,3,,,,,,,,0,,,34,0
2880,note_on,1,0,3,,,,,,,,0,,,31,80
2884,set_tempo,724,1,0,,,,,,602894,,,,,,
2904,note_on,24,0,3,,,,,,,,0,,,31,0
2910,note_on,6,0,3,,,,,,,,0,,,32,80
2982,note_on,72,0,3,,,,,,,,0,,,32,0
3300,note_on,0,0,3,,,,,,,,0,,,49,72
3300,note_on,318,0,3,,,,,,,,0,,,52,72
3300,note_on,0,0,3,,,,,,,,0,,,43,72
3300,note_on,0,0,3,,,,,,,,0,,,46,72
3307,note_on,7,0,3,,,,,,,,0,,,52,63
3348,note_on,0,0,3,,,,,,,,0,,,43,0
3348,note_on,0,0,3,,,,,,,,0,,,46,0
3348,note_on,0,0,3,,,,,,,,0,,,52,0
3348,note_on,41,0,3,,,,,,,,0,,,49,0
3355,note_on,7,0,3,,,,,,,,0,,,52,0
3360,note_on,0,0,3,,,,,,,,0,,,47,80
3360,note_on,5,0,3,,,,,,,,0,,,44,80
3504,note_on,0,0,3,,,,,,,,0,,,44,0
3504,note_on,144,0,3,,,,,,,,0,,,47,0
3540,note_on,36,0,3,,,,,,,,0,,,46,80
3540,note_on,0,0,3,,,,,,,,0,,,55,80
3540,note_on,0,0,3,,,,,,,,0,,,49,80
3540,note_on,0,0,3,,,,,,,,0,,,52,80
3588,note_on,0,0,3,,,,,,,,0,,,52,0
3588,note_on,0,0,3,,,,,,,,0,,,46,0
3588,note_on,48,0,3,,,,,,,,0,,,55,0
3588,note_on,0,0,3,,,,,,,,0,,,49,0
3600,note_on,12,0,3,,,,,,,,0,,,47,80
3600,note_on,0,0,3,,,,,,,,0,,,52,80
3600,note_on,0,0,3,,,,,,,,0,,,56,80
3696,note_on,0,0,3,,,,,,,,0,,,47,0
3696,note_on,0,0,3,,,,,,,,0,,,56,0
3696,note_on,96,0,3,,,,,,,,0,,,52,0
3780,note_on,84,0,3,,,,,,,,0,,,55,80
3780,note_on,0,0,3,,,,,,,,0,,,52,80
3780,note_on,0,0,3,,,,,,,,0,,,61,80
3780,note_on,0,0,3,,,,,,,,0,,,58,80
3828,note_on,0,0,3,,,,,,,,0,,,58,0
3828,note_on,48,0,3,,,,,,,,0,,,61,0
3828,note_on,0,0,3,,,,,,,,0,,,52,0
3828,note_on,0,0,3,,,,,,,,0,,,55,0
3840,note_on,0,0,3,,,,,,,,0,,,59,80
3840,note_on,12,0,3,,,,,,,,0,,,56,80
3936,note_on,0,0,3,,,,,,,,0,,,56,0
3936,note_on,96,0,3,,,,,,,,0,,,59,0
4080,note_on,0,0,3,,,,,,,,0,,,88,80
4080,note_on,0,0,3,,,,,,,,0,,,83,80
4080,note_on,0,0,3,,,,,,,,0,,,56,80
4080,note_on,0,0,3,,,,,,,,0,,,64,80
4080,note_on,144,0,3,,,,,,,,0,,,71,80
4080,note_on,0,0,3,,,,,,,,0,,,76,80
4176,note_on,0,0,3,,,,,,,,0,,,56,0
4176,note_on,0,0,3,,,,,,,,0,,,71,0
4176,note_on,96,0,3,,,,,,,,0,,,64,0
4176,note_on,0,0,3,,,,,,,,0,,,88,0
4176,note_on,0,0,3,,,,,,,,0,,,83,0
4176,note_on,0,0,3,,,,,,,,0,,,76,0
4740,note_on,0,0,3,,,,,,,,0,,,53,80
4740,note_on,564,0,3,,,,,,,,0,,,65,80
4788,note_on,0,0,3,,,,,,,,0,,,65,0
4788,note_on,48,0,3,,,,,,,,0,,,53,0
4800,note_on,0,0,3,,,,,,,,0,,,53,80
4800,control_change,12,0,3,,,,,,,,0,64,127,,
4800,note_on,0,0,3,,,,,,,,0,,,65,80
4992,note_on,0,0,3,,,,,,,,0,,,53,0
4992,note_on,192,0,3,,,,,,,,0,,,65,0
5040,note_on,48,0,3,,,,,,,,0,,,50,80
5040,note_on,0,0,3,,,,,,,,0,,,44,80
5040,note_on,0,0,3,,,,,,,,0,,,53,80
5040,note_on,0,0,3,,,,,,,,0,,,47,80
5040,note_on,0,0,3,,,,,,,,0,,,32,80
5040,note_on,0,0,3,,,,,,,,0,,,41,80
5232,note_on,0,0,3,,,,,,,,0,,,44,0
5232,note_on,0,0,3,,,,,,,,0,,,41,0
5232,note_on,192,0,3,,,,,,,,0,,,32,0
5232,note_on,0,0,3,,,,,,,,0,,,50,0
5232,note_on,0,0,3,,,,,,,,0,,,47,0
5232,note_on,0,0,3,,,,,,,,0,,,53,0
5280,note_on,0,0,3,,,,,,,,0,,,89,80
5280,note_on,48,0,3,,,,,,,,0,,,77,80
5280,note_on,0,0,3,,,,,,,,0,,,65,80
5280,note_on,0,0,3,,,,,,,,0,,,53,80
5472,note_on,192,0,3,,,,,,,,0,,,89,0
5472,note_on,0,0,3,,,,,,,,0,,,65,0
5472,note_on,0,0,3,,,,,,,,0,,,77,0
5472,note_on,0,0,3,,,,,,,,0,,,53,0
5520,note_on,48,0,3,,,,,,,,0,,,56,80
5520,note_on,0,0,3,,,,,,,,0,,,53,80
5520,note_on,0,0,3,,,,,,,,0,,,59,80
5520,note_on,0,0,3,,,,,,,,0,,,62,80
5520,note_on,0,0,3,,,,,,,,0,,,65,80
5520,note_on,0,0,3,,,,,,,,0,,,44,80
5689,note_on,169,0,3,,,,,,,,0,,,44,0
5689,note_on,0,0,3,,,,,,,,0,,,53,0
5689,note_on,0,0,3,,,,,,,,0,,,56,0
5700,note_on,11,0,3,,,,,,,,0,,,68,80
5712,note_on,12,0,3,,,,,,,,0,,,62,0
5712,note_on,0,0,3,,,,,,,,0,,,59,0
5712,note_on,0,0,3,,,,,,,,0,,,65,0
5760,note_on,48,0,3,,,,,,,,0,,,89,80
5760,note_on,0,0,3,,,,,,,,0,,,77,80
5760,note_on,0,0,3,,,,,,,,0,,,83,80
5760,note_on,0,0,3,,,,,,,,0,,,74,80
5760,note_on,0,0,3,,,,,,,,0,,,101,80
5952,note_on,0,0,3,,,,,,,,0,,,68,0
5952,note_on,0,0,3,,,,,,,,0,,,77,0
5952,note_on,0,0,3,,,,,,,,0,,,83,0
5952,note_on,192,0,3,,,,,,,,0,,,74,0
5999,set_tempo,3115,1,0,,,,,,502849,,,,,,
6024,note_on,0,0,3,,,,,,,,0,,,101,0
6024,note_on,72,0,3,,,,,,,,0,,,89,0
6030,note_on,6,0,3,,,,,,,,0,,,100,80
6054,note_on,24,0,3,,,,,,,,0,,,100,0
6060,note_on,6,0,3,,,,,,,,0,,,98,80
6084,note_on,24,0,3,,,,,,,,0,,,98,0
6090,note_on,6,0,3,,,,,,,,0,,,95,80
6114,note_on,24,0,3,,,,,,,,0,,,95,0
6120,note_on,6,0,3,,,,,,,,0,,,89,80
6144,note_on,24,0,3,,,,,,,,0,,,89,0
6150,note_on,6,0,3,,,,,,,,0,,,88,80
6174,note_on,24,0,3,,,,,,,,0,,,88,0
6180,note_on,6,0,3,,,,,,,,0,,,86,80
6204,note_on,24,0,3,,,,,,,,0,,,86,0
6210,note_on,6,0,3,,,,,,,,0,,,83,80
6234,note_on,24,0,3,,,,,,,,0,,,83,0
6240,note_on,6,0,3,,,,,,,,0,,,77,80
6264,note_on,24,0,3,,,,,,,,0,,,77,0
6270,note_on,6,0,3,,,,,,,,0,,,76,80
6294,note_on,24,0,3,,,,,,,,0,,,76,0
6300,note_on,6,0,3,,,,,,,,0,,,74,80
6324,note_on,24,0,3,,,,,,,,0,,,74,0
6330,note_on,6,0,3,,,,,,,,0,,,71,80
6354,note_on,24,0,3,,,,,,,,0,,,71,0
6360,note_on,6,0,3,,,,,,,,0,,,65,80
6384,note_on,24,0,3,,,,,,,,0,,,65,0
6390,note_on,6,0,3,,,,,,,,0,,,64,80
6414,note_on,24,0,3,,,,,,,,0,,,64,0
6420,note_on,6,0,3,,,,,,,,0,,,62,80
6444,note_on,24,0,3,,,,,,,,0,,,62,0
6450,note_on,6,0,3,,,,,,,,0,,,59,80
6474,note_on,24,0,3,,,,,,,,0,,,59,0
6480,note_on,6,0,3,,,,,,,,0,,,53,80
6509,note_on,29,0,3,,,,,,,,0,,,53,0
6510,note_on,1,0,3,,,,,,,,0,,,52,80
6539,note_on,29,0,3,,,,,,,,0,,,52,0
6540,note_on,1,0,3,,,,,,,,0,,,50,80
6569,note_on,29,0,3,,,,,,,,0,,,50,0
6570,note_on,1,0,3,,,,,,,,0,,,47,80
6599,note_on,29,0,3,,,,,,,,0,,,47,0
6600,note_on,1,0,3,,,,,,,,0,,,41,80
6629,note_on,29,0,3,,,,,,,,0,,,41,0
6630,note_on,1,0,3,,,,,,,,0,,,40,80
6634,control_change,4,0,3,,,,,,,,0,64,0,,
6659,note_on,25,0,3,,,,,,,,0,,,40,0
6660,note_on,1,0,3,,,,,,,,0,,,38,80
6689,note_on,29,0,3,,,,,,,,0,,,38,0
6690,note_on,1,0,3,,,,,,,,0,,,35,80
6715,set_tempo,716,1,0,,,,,,602894,,,,,,
6719,note_on,29,0,3,,,,,,,,0,,,35,0
6720,note_on,1,0,3,,,,,,,,0,,,32,80
6744,note_on,24,0,3,,,,,,,,0,,,32,0
6750,note_on,6,0,3,,,,,,,,0,,,33,80
6822,note_on,72,0,3,,,,,,,,0,,,33,0
7140,note_on,318,0,3,,,,,,,,0,,,44,76
7140,note_on,0,0,3,,,,,,,,0,,,50,76
7140,note_on,0,0,3,,,,,,,,0,,,47,76
7140,note_on,0,0,3,,,,,,,,0,,,53,76
7188,note_on,0,0,3,,,,,,,,0,,,44,0
7188,note_on,0,0,3,,,,,,,,0,,,47,0
7188,note_on,0,0,3,,,,,,,,0,,,50,0
7188,note_on,48,0,3,,,,,,,,0,,,53,0
7200,note_on,12,0,3,,,,,,,,0,,,54,80
7200,note_on,0,0,3,,,,,,,,0,,,45,80
7200,note_on,0,0,3,,,,,,,,0,,,50,80
7344,note_on,0,0,3,,,,,,,,0,,,54,0
7344,note_on,144,0,3,,,,,,,,0,,,50,0
7344,note_on,0,0,3,,,,,,,,0,,,45,0
7380,note_on,0,0,3,,,,,,,,0,,,59,80
7380,note_on,0,0,3,,,,,,,,0,,,56,80
7380,note_on,0,0,3,,,,,,,,0,,,53,80
7380,note_on,36,0,3,,,,,,,,0,,,50,80
7428,note_on,0,0,3,,,,,,,,0,,,50,0
7428,note_on,0,0,3,,,,,,,,0,,,56,0
7428,note_on,0,0,3,,,,,,,,0,,,53,0
7428,note_on,48,0,3,,,,,,,,0,,,59,0
7440,note_on,12,0,3,,,,,,,,0,,,57,80
7440,note_on,0,0,3,,,,,,,,0,,,54,80
7536,note_on,0,0,3,,,,,,,,0,,,57,0
7536,note_on,96,0,3,,,,,,,,0,,,54,0
7620,note_on,0,0,3,,,,,,,,0,,,62,80
7620,note_on,0,0,3,,,,,,,,0,,,65,80
7620,note_on,0,0,3,,,,,,,,0,,,59,80
7620,note_on,84,0,3,,,,,,,,0,,,74,80
7620,note_on,0,0,3,,,,,,,,0,,,68,80
7668,note_on,0,0,3,,,,,,,,0,,,68,0
7668,note_on,0,0,3,,,,,,,,0,,,65,0
7668,note_on,0,0,3,,,,,,,,0,,,74,0
7668,note_on,48,0,3,,,,,,,,0,,,59,0
7680,note_on,0,0,3,,,,,,,,0,,,66,80
7680,note_on,0,0,3,,,,,,,,0,,,57,80
7680,note_on,12,0,3,,,,,,,,0,,,69,80
7776,note_on,0,0,3,,,,,,,,0,,,57,0
7776,note_on,0,0,3,,,,,,,,0,,,62,0
7776,note_on,0,0,3,,,,,,,,0,,,69,0
7776,note_on,96,0,3,,,,,,,,0,,,66,0
7910,note_on,134,0,3,,,,,,,,0,,,57,80
7920,note_on,0,0,3,,,,,,,,0,,,66,80
7920,note_on,10,0,3,,,,,,,,0,,,78,80
7920,note_on,0,0,3,,,,,,,,0,,,74,80
7920,note_on,0,0,3,,,,,,,,0,,,86,80
7920,note_on,0,0,3,,,,,,,,0,,,90,80
8006,note_on,86,0,3,,,,,,,,0,,,57,0
8016,note_on,0,0,3,,,,,,,,0,,,74,0
8016,note_on,0,0,3,,,,,,,,0,,,90,0
8016,note_on,0,0,3,,,,,,,,0,,,78,0
8016,note_on,0,0,3,,,,,,,,0,,,86,0
8016,note_on,10,0,3,,,,,,,,0,,,66,0
8580,note_on,564,0,3,,,,,,,,0,,,66,80
8580,note_on,0,0,3,,,,,,,,0,,,54,80
8628,note_on,48,0,3,,,,,,,,0,,,54,0
8628,note_on,0,0,3,,,,,,,,0,,,66,0
8640,note_on,0,0,3,,,,,,,,0,,,54,80
8640,note_on,0,0,3,,,,,,,,0,,,66,80
8640,control_change,12,0,3,,,,,,,,0,64,127,,
8832,note_on,0,0,3,,,,,,,,0,,,66,0
8832,note_on,192,0,3,,,,,,,,0,,,54,0
8880,note_on,48,0,3,,,,,,,,0,,,33,80
8880,note_on,0,0,3,,,,,,,,0,,,45,80
9072,note_on,0,0,3,,,,,,,,0,,,33,0
9072,note_on,192,0,3,,,,,,,,0,,,45,0
9120,note_on,48,0,3,,,,,,,,0,,,63,80
9120,note_on,0,0,3,,,,,,,,0,,,90,80
9120,note_on,0,0,3,,,,,,,,0,,,84,80
9120,note_on,0,0,3,,,,,,,,0,,,78,80
9120,note_on,0,0,3,,,,,,,,0,,,66,80
9120,note_on,0,0,3,,,,,,,,0,,,57,80
9264,note_on,0,0,3,,,,,,,,0,,,84,0
9264,note_on,144,0,3,,,,,,,,0,,,90,0
9264,note_on,0,0,3,,,,,,,,0,,,78,0
9270,note_on,6,0,3,,,,,,,,0,,,89,80
9294,note_on,24,0,3,,,,,,,,0,,,89,0
9300,note_on,6,0,3,,,,,,,,0,,,87,80
9324,note_on,24,0,3,,,,,,,,0,,,87,0
9330,note_on,6,0,3,,,,,,,,0,,,84,80
9354,note_on,24,0,3,,,,,,,,0,,,84,0
9360,note_on,6,0,3,,,,,,,,0,,,78,80
9384,note_on,24,0,3,,,,,,,,0,,,78,0
9390,note_on,6,0,3,,,,,,,,0,,,77,80
9414,note_on,24,0,3,,,,,,,,0,,,77,0
9420,note_on,6,0,3,,,,,,,,0,,,75,80
9444,note_on,24,0,3,,,,,,,,0,,,75,0
9450,note_on,6,0,3,,,,,,,,0,,,72,80
9474,note_on,24,0,3,,,,,,,,0,,,72,0
9480,note_on,6,0,3,,,,,,,,0,,,66,80
9504,note_on,0,0,3,,,,,,,,0,,,63,0
9504,note_on,24,0,3,,,,,,,,0,,,66,0
9504,note_on,0,0,3,,,,,,,,0,,,57,0
9504,note_on,0,0,3,,,,,,,,0,,,66,0
9510,note_on,6,0,3,,,,,,,,0,,,65,80
9531,control_change,21,0,3,,,,,,,,0,64,0,,
9534,note_on,3,0,3,,,,,,,,0,,,65,0
9540,note_on,6,0,3,,,,,,,,0,,,63,80
9564,note_on,24,0,3,,,,,,,,0,,,63,0
9570,note_on,6,0,3,,,,,,,,0,,,60,80
9594,note_on,24,0,3,,,,,,,,0,,,60,0
9600,control_change,6,0,3,,,,,,,,0,64,127,,
9600,note_on,0,0,3,,,,,,,,0,,,66,80
9600,note_on,0,0,3,,,,,,,,0,,,54,80
9792,note_on,0,0,3,,,,,,,,0,,,66,0
9792,note_on,192,0,3,,,,,,,,0,,,54,0
9840,note_on,0,0,3,,,,,,,,0,,,46,80
9840,note_on,48,0,3,,,,,,,,0,,,34,80
10032,note_on,0,0,3,,,,,,,,0,,,34,0
10032,note_on,192,0,3,,,,,,,,0,,,46,0
10080,note_on,0,0,3,,,,,,,,0,,,66,80
10080,note_on,48,0,3,,,,,,,,0,,,90,80
10080,note_on,0,0,3,,,,,,,,0,,,82,80
10080,note_on,0,0,3,,,,,,,,0,,,58,80
10080,note_on,0,0,3,,,,,,,,0,,,63,80
10080,note_on,0,0,3,,,,,,,,0,,,78,80
10224,note_on,0,0,3,,,,,,,,0,,,90,0
10224,note_on,144,0,3,,,,,,,,0,,,82,0
10224,note_on,0,0,3,,,,,,,,0,,,78,0
10230,note_on,6,0,3,,,,,,,,0,,,89,80
10254,note_on,24,0,3,,,,,,,,0,,,89,0
10260,note_on,6,0,3,,,,,,,,0,,,87,80
10284,note_on,24,0,3,,,,,,,,0,,,87,0
10290,note_on,6,0,3,,,,,,,,0,,,82,80
10314,note_on,24,0,3,,,,,,,,0,,,82,0
10320,note_on,6,0,3,,,,,,,,0,,,78,80
10344,note_on,24,0,3,,,,,,,,0,,,78,0
10350,note_on,6,0,3,,,,,,,,0,,,77,80
10374,note_on,24,0,3,,,,,,,,0,,,77,0
10380,note_on,6,0,3,,,,,,,,0,,,75,80
10404,note_on,24,0,3,,,,,,,,0,,,75,0
10410,note_on,6,0,3,,,,,,,,0,,,70,80
10434,note_on,24,0,3,,,,,,,,0,,,70,0
10440,note_on,6,0,3,,,,,,,,0,,,66,80
10464,note_on,0,0,3,,,,,,,,0,,,58,0
10464,note_on,24,0,3,,,,,,,,0,,,66,0
10464,note_on,0,0,3,,,,,,,,0,,,66,0
10464,note_on,0,0,3,,,,,,,,0,,,63,0
10470,note_on,6,0,3,,,,,,,,0,,,65,80
10494,note_on,24,0,3,,,,,,,,0,,,65,0
10500,note_on,6,0,3,,,,,,,,0,,,63,80
10524,note_on,24,0,3,,,,,,,,0,,,63,0
10524,control_change,0,0,3,,,,,,,,0,64,0,,
10530,note_on,6,0,3,,,,,,,,0,,,58,80
10554,note_on,24,0,3,,,,,,,,0,,,58,0
10560,note_on,0,0,3,,,,,,,,0,,,66,80
10560,note_on,0,0,3,,,,,,,,0,,,54,80
10560,control_change,6,0,3,,,,,,,,0,64,127,,
10752,note_on,0,0,3,,,,,,,,0,,,54,0
10752,note_on,192,0,3,,,,,,,,0,,,66,0
10800,note_on,0,0,3,,,,,,,,0,,,35,80
10800,note_on,0,0,3,,,,,,,,0,,,66,80
10800,note_on,0,0,3,,,,,,,,0,,,69,80
10800,note_on,48,0,3,,,,,,,,0,,,78,80
10810,note_on,10,0,3,,,,,,,,0,,,39,80
10820,note_on,10,0,3,,,,,,,,0,,,47,80
10878,note_on,58,0,3,,,,,,,,0,,,66,0
10878,note_on,0,0,3,,,,,,,,0,,,69,0
10878,note_on,0,0,3,,,,,,,,0,,,78,0
10882,note_on,4,0,3,,,,,,,,0,,,77,80
10900,note_on,18,0,3,,,,,,,,0,,,77,0
10904,note_on,4,0,3,,,,,,,,0,,,75,80
10922,note_on,18,0,3,,,,,,,,0,,,75,0
10926,note_on,4,0,3,,,,,,,,0,,,69,80
10944,note_on,18,0,3,,,,,,,,0,,,69,0
10948,note_on,4,0,3,,,,,,,,0,,,66,80
10966,note_on,18,0,3,,,,,,,,0,,,66,0
10970,note_on,4,0,3,,,,,,,,0,,,65,80
10988,note_on,18,0,3,,,,,,,,0,,,65,0
10992,note_on,4,0,3,,,,,,,,0,,,63,80
10998,note_on,0,0,3,,,,,,,,0,,,47,0
10998,note_on,0,0,3,,,,,,,,0,,,35,0
10998,note_on,6,0,3,,,,,,,,0,,,39,0
11010,note_on,12,0,3,,,,,,,,0,,,63,0
11014,note_on,4,0,3,,,,,,,,0,,,59,80
11032,note_on,18,0,3,,,,,,,,0,,,59,0
11040,note_on,0,0,3,,,,,,,,0,,,57,80
11040,note_on,8,0,3,,,,,,,,0,,,69,80
11042,control_change,2,0,3,,,,,,,,0,64,0,,
11066,control_change,24,0,3,,,,,,,,0,64,127,,
11232,note_on,0,0,3,,,,,,,,0,,,69,0
11232,note_on,166,0,3,,,,,,,,0,,,57,0
11276,note_on,0,0,3,,,,,,,,0,,,81,80
11276,note_on,44,0,3,,,,,,,,0,,,87,80
11276,note_on,0,0,3,,,,,,,,0,,,93,80
11280,note_on,4,0,3,,,,,,,,0,,,36,80
11287,note_on,7,0,3,,,,,,,,0,,,42,80
11294,note_on,7,0,3,,,,,,,,0,,,45,80
11301,note_on,7,0,3,,,,,,,,0,,,48,80
11354,note_on,0,0,3,,,,,,,,0,,,81,0
11354,note_on,0,0,3,,,,,,,,0,,,87,0
11354,note_on,53,0,3,,,,,,,,0,,,93,0
11358,note_on,4,0,3,,,,,,,,0,,,92,80
11376,note_on,18,0,3,,,,,,,,0,,,92,0
11380,note_on,4,0,3,,,,,,,,0,,,90,80
11398,note_on,18,0,3,,,,,,,,0,,,90,0
11402,note_on,4,0,3,,,,,,,,0,,,87,80
11420,note_on,18,0,3,,,,,,,,0,,,87,0
11424,note_on,4,0,3,,,,,,,,0,,,81,80
11442,note_on,18,0,3,,,,,,,,0,,,81,0
11446,note_on,4,0,3,,,,,,,,0,,,80,80
11464,note_on,18,0,3,,,,,,,,0,,,80,0
11468,note_on,4,0,3,,,,,,,,0,,,78,80
11476,note_on,0,0,3,,,,,,,,0,,,36,0
11476,note_on,0,0,3,,,,,,,,0,,,42,0
11476,note_on,0,0,3,,,,,,,,0,,,45,0
11476,note_on,8,0,3,,,,,,,,0,,,48,0
11486,note_on,10,0,3,,,,,,,,0,,,78,0
11490,note_on,4,0,3,,,,,,,,0,,,75,80
11508,note_on,18,0,3,,,,,,,,0,,,75,0
11520,control_change,12,0,3,,,,,,,,0,64,0,,
11520,note_on,0,0,3,,,,,,,,0,,,69,80
11520,note_on,0,0,3,,,,,,,,0,,,57,80
11558,control_change,38,0,3,,,,,,,,0,64,127,,
11712,note_on,154,0,3,,,,,,,,0,,,57,0
11712,note_on,0,0,3,,,,,,,,0,,,69,0
11760,note_on,48,0,3,,,,,,,,0,,,73,80
11760,note_on,0,0,3,,,,,,,,0,,,81,80
11760,note_on,0,0,3,,,,,,,,0,,,69,80
11760,note_on,0,0,3,,,,,,,,0,,,37,80
11767,note_on,7,0,3,,,,,,,,0,,,42,80
11774,note_on,7,0,3,,,,,,,,0,,,45,80
11781,note_on,7,0,3,,,,,,,,0,,,49,80
11838,note_on,57,0,3,,,,,,,,0,,,69,0
11838,note_on,0,0,3,,,,,,,,0,,,81,0
11838,note_on,0,0,3,,,,,,,,0,,,73,0
11842,note_on,4,0,3,,,,,,,,0,,,80,80
11860,note_on,18,0,3,,,,,,,,0,,,80,0
11864,note_on,4,0,3,,,,,,,,0,,,78,80
11882,note_on,18,0,3,,,,,,,,0,,,78,0
11886,note_on,4,0,3,,,,,,,,0,,,73,80
11904,note_on,18,0,3,,,,,,,,0,,,73,0
11908,note_on,4,0,3,,,,,,,,0,,,68,80
11926,note_on,18,0,3,,,,,,,,0,,,68,0
11930,note_on,4,0,3,,,,,,,,0,,,68,80
11948,note_on,18,0,3,,,,,,,,0,,,68,0
11952,note_on,4,0,3,,,,,,,,0,,,66,80
11956,note_on,4,0,3,,,,,,,,0,,,37,0
11956,note_on,0,0,3,,,,,,,,0,,,42,0
11956,note_on,0,0,3,,,,,,,,0,,,45,0
11956,note_on,0,0,3,,,,,,,,0,,,49,0
11970,note_on,14,0,3,,,,,,,,0,,,66,0
11974,note_on,4,0,3,,,,,,,,0,,,61,80
11991,set_tempo,5276,1,0,,,,,,824289,,,,,,
11992,note_on,18,0,3,,,,,,,,0,,,61,0
11996,note_on,4,0,3,,,,,,,,0,,,62,80
11997,set_tempo,6,1,0,,,,,,1035554,,,,,,
11998,note_on,2,0,3,,,,,,,,0,,,38,80
11998,note_on,0,0,3,,,,,,,,0,,,50,80
12092,note_on,94,0,3,,,,,,,,0,,,62,0
12094,note_on,2,0,3,,,,,,,,0,,,50,0
12094,note_on,0,0,3,,,,,,,,0,,,38,0
12233,set_tempo,236,1,0,,,,,,1018157,,,,,,
12236,note_on,0,0,3,,,,,,,,0,,,88,80
12236,note_on,142,0,3,,,,,,,,0,,,90,80
12236,note_on,0,0,3,,,,,,,,0,,,100,80
12238,note_on,2,0,3,,,,,,,,0,,,62,80
12238,note_on,0,0,3,,,,,,,,0,,,76,80
12238,note_on,0,0,3,,,,,,,,0,,,72,80
12250,set_tempo,17,1,0,,,,,,494641,,,,,,
12255,set_tempo,5,1,0,,,,,,498712,,,,,,
12456,control_change,218,0,3,,,,,,,,0,64,0,,
12480,control_change,24,0,3,,,,,,,,0,64,127,,
12547,set_tempo,292,1,0,,,,,,498712,,,,,,
12576,note_on,96,0,3,,,,,,,,0,,,72,0
12576,note_on,0,0,3,,,,,,,,0,,,62,0
12576,note_on,0,0,3,,,,,,,,0,,,100,0
12576,note_on,0,0,3,,,,,,,,0,,,90,0
12576,note_on,0,0,3,,,,,,,,0,,,88,0
12576,note_on,0,0,3,,,,,,,,0,,,76,0
12600,note_on,0,0,3,,,,,,,,0,,,74,80
12600,note_on,0,0,3,,,,,,,,0,,,86,80
12600,note_on,0,0,3,,,,,,,,0,,,90,80
12600,note_on,0,0,3,,,,,,,,0,,,98,80
12600,note_on,24,0,3,,,,,,,,0,,,62,80
12600,note_on,0,0,3,,,,,,,,0,,,71,80
12621,set_tempo,74,1,0,,,,,,494641,,,,,,
12696,note_on,96,0,3,,,,,,,,0,,,86,0
12696,note_on,0,0,3,,,,,,,,0,,,71,0
12696,note_on,0,0,3,,,,,,,,0,,,74,0
12696,note_on,0,0,3,,,,,,,,0,,,90,0
12696,note_on,0,0,3,,,,,,,,0,,,62,0
12696,note_on,0,0,3,,,,,,,,0,,,98,0
12696,set_tempo,75,1,0,,,,,,490637,,,,,,
12700,set_tempo,4,1,0,,,,,,494641,,,,,,
12704,set_tempo,4,1,0,,,,,,490637,,,,,,
12720,note_on,0,0,3,,,,,,,,0,,,96,80
12720,note_on,0,0,3,,,,,,,,0,,,90,80
12720,note_on,0,0,3,,,,,,,,0,,,86,80
12720,note_on,0,0,3,,,,,,,,0,,,72,80
12720,note_on,0,0,3,,,,,,,,0,,,69,80
12720,note_on,24,0,3,,,,,,,,0,,,84,80
12720,note_on,0,0,3,,,,,,,,0,,,62,80
12726,set_tempo,22,1,0,,,,,,490637,,,,,,
12809,set_tempo,83,1,0,,,,,,486697,,,,,,
12816,note_on,0,0,3,,,,,,,,0,,,69,0
12816,note_on,0,0,3,,,,,,,,0,,,62,0
12816,note_on,96,0,3,,,,,,,,0,,,96,0
12816,note_on,0,0,3,,,,,,,,0,,,90,0
12816,note_on,0,0,3,,,,,,,,0,,,72,0
12816,note_on,0,0,3,,,,,,,,0,,,84,0
12816,note_on,0,0,3,,,,,,,,0,,,86,0
12840,note_on,0,0,3,,,,,,,,0,,,62,80
12840,note_on,0,0,3,,,,,,,,0,,,68,80
12840,note_on,0,0,3,,,,,,,,0,,,71,80
12840,note_on,0,0,3,,,,,,,,0,,,83,80
12840,note_on,24,0,3,,,,,,,,0,,,89,80
12840,note_on,0,0,3,,,,,,,,0,,,86,80
12840,note_on,0,0,3,,,,,,,,0,,,95,80
12892,set_tempo,83,1,0,,,,,,482820,,,,,,
12936,note_on,96,0,3,,,,,,,,0,,,68,0
12936,note_on,0,0,3,,,,,,,,0,,,62,0
12936,note_on,0,0,3,,,,,,,,0,,,71,0
12936,note_on,0,0,3,,,,,,,,0,,,83,0
12936,note_on,0,0,3,,,,,,,,0,,,86,0
12936,note_on,0,0,3,,,,,,,,0,,,89,0
12936,note_on,0,0,3,,,,,,,,0,,,95,0
12960,note_on,24,0,3,,,,,,,,0,,,68,80
12960,note_on,0,0,3,,,,,,,,0,,,95,80
12960,note_on,0,0,3,,,,,,,,0,,,89,80
12960,note_on,0,0,3,,,,,,,,0,,,86,80
12960,note_on,0,0,3,,,,,,,,0,,,71,80
12960,note_on,0,0,3,,,,,,,,0,,,62,80
12960,note_on,0,0,3,,,,,,,,0,,,83,80
12970,set_tempo,78,1,0,,,,,,479004,,,,,,
13053,set_tempo,83,1,0,,,,,,475248,,,,,,
13056,note_on,0,0,3,,,,,,,,0,,,89,0
13056,note_on,96,0,3,,,,,,,,0,,,62,0
13056,note_on,0,0,3,,,,,,,,0,,,68,0
13056,note_on,0,0,3,,,,,,,,0,,,71,0
13056,note_on,0,0,3,,,,,,,,0,,,83,0
13056,note_on,0,0,3,,,,,,,,0,,,86,0
13056,note_on,0,0,3,,,,,,,,0,,,95,0
13080,note_on,0,0,3,,,,,,,,0,,,84,80
13080,note_on,0,0,3,,,,,,,,0,,,72,80
13080,note_on,0,0,3,,,,,,,,0,,,86,80
13080,note_on,0,0,3,,,,,,,,0,,,90,80
13080,note_on,0,0,3,,,,,,,,0,,,96,80
13080,note_on,0,0,3,,,,,,,,0,,,62,80
13080,note_on,24,0,3,,,,,,,,0,,,69,80
13136,set_tempo,83,1,0,,,,,,471550,,,,,,
13176,note_on,0,0,3,,,,,,,,0,,,90,0
13176,note_on,0,0,3,,,,,,,,0,,,86,0
13176,note_on,0,0,3,,,,,,,,0,,,84,0
13176,note_on,0,0,3,,,,,,,,0,,,72,0
13176,note_on,0,0,3,,,,,,,,0,,,69,0
13176,note_on,96,0,3,,,,,,,,0,,,96,0
13176,note_on,0,0,3,,,,,,,,0,,,62,0
13200,note_on,24,0,3,,,,,,,,0,,,65,80
13200,note_on,0,0,3,,,,,,,,0,,,92,80
13200,note_on,0,0,3,,,,,,,,0,,,86,80
13200,note_on,0,0,3,,,,,,,,0,,,62,80
13200,note_on,0,0,3,,,,,,,,0,,,80,80
13200,note_on,0,0,3,,,,,,,,0,,,68,80
13200,note_on,0,0,3,,,,,,,,0,,,83,80
13219,set_tempo,83,1,0,,,,,,467909,,,,,,
13296,note_on,0,0,3,,,,,,,,0,,,62,0
13296,note_on,0,0,3,,,,,,,,0,,,65,0
13296,note_on,0,0,3,,,,,,,,0,,,68,0
13296,note_on,0,0,3,,,,,,,,0,,,80,0
13296,note_on,0,0,3,,,,,,,,0,,,86,0
13296,note_on,0,0,3,,,,,,,,0,,,83,0
13296,note_on,96,0,3,,,,,,,,0,,,92,0
13302,set_tempo,83,1,0,,,,,,464324,,,,,,
13320,note_on,0,0,3,,,,,,,,0,,,93,80
13320,note_on,0,0,3,,,,,,,,0,,,66,80
13320,note_on,0,0,3,,,,,,,,0,,,81,80
13320,note_on,0,0,3,,,,,,,,0,,,84,80
13320,note_on,0,0,3,,,,,,,,0,,,86,80
13320,note_on,0,0,3,,,,,,,,0,,,62,80
13320,note_on,24,0,3,,,,,,,,0,,,69,80
13375,control_change,55,0,3,,,,,,,,0,64,0,,
13385,set_tempo,83,1,0,,,,,,460794,,,,,,
13416,note_on,41,0,3,,,,,,,,0,,,62,0
13416,note_on,0,0,3,,,,,,,,0,,,86,0
13416,note_on,0,0,3,,,,,,,,0,,,84,0
13416,note_on,0,0,3,,,,,,,,0,,,93,0
13416,note_on,0,0,3,,,,,,,,0,,,81,0
13416,note_on,0,0,3,,,,,,,,0,,,69,0
13416,note_on,0,0,3,,,,,,,,0,,,66,0
13440,note_on,0,0,3,,,,,,,,0,,,83,80
13440,note_on,0,0,3,,,,,,,,0,,,89,80
13440,note_on,0,0,3,,,,,,,,0,,,86,80
13440,note_on,0,0,3,,,,,,,,0,,,77,80
13440,control_change,24,0,3,,,,,,,,0,64,127,,
13440,note_on,0,0,3,,,,,,,,0,,,71,80
13440,note_on,0,0,3,,,,,,,,0,,,68,80
13440,note_on,0,0,3,,,,,,,,0,,,62,80
13464,set_tempo,79,1,0,,,,,,457317,,,,,,
13536,note_on,0,0,3,,,,,,,,0,,,89,0
13536,note_on,0,0,3,,,,,,,,0,,,86,0
13536,note_on,0,0,3,,,,,,,,0,,,83,0
13536,note_on,0,0,3,,,,,,,,0,,,77,0
13536,note_on,0,0,3,,,,,,,,0,,,68,0
13536,note_on,96,0,3,,,,,,,,0,,,71,0
13536,note_on,0,0,3,,,,,,,,0,,,62,0
13560,note_on,0,0,3,,,,,,,,0,,,62,80
13560,note_on,0,0,3,,,,,,,,0,,,72,80
13560,note_on,0,0,3,,,,,,,,0,,,78,80
13560,note_on,0,0,3,,,,,,,,0,,,90,80
13560,note_on,0,0,3,,,,,,,,0,,,86,80
13560,note_on,0,0,3,,,,,,,,0,,,69,80
13560,note_on,24,0,3,,,,,,,,0,,,84,80
13656,note_on,0,0,3,,,,,,,,0,,,84,0
13656,note_on,96,0,3,,,,,,,,0,,,69,0
13656,note_on,0,0,3,,,,,,,,0,,,62,0
13656,note_on,0,0,3,,,,,,,,0,,,72,0
13656,note_on,0,0,3,,,,,,,,0,,,78,0
13656,note_on,0,0,3,,,,,,,,0,,,86,0
13656,note_on,0,0,3,,,,,,,,0,,,90,0
13680,note_on,0,0,3,,,,,,,,0,,,80,80
13680,note_on,0,0,3,,,,,,,,0,,,74,80
13680,note_on,0,0,3,,,,,,,,0,,,68,80
13680,note_on,0,0,3,,,,,,,,0,,,83,80
13680,note_on,0,0,3,,,,,,,,0,,,86,80
13680,note_on,24,0,3,,,,,,,,0,,,65,80
13680,note_on,0,0,3,,,,,,,,0,,,62,80
13776,note_on,0,0,3,,,,,,,,0,,,83,0
13776,note_on,0,0,3,,,,,,,,0,,,86,0
13776,note_on,0,0,3,,,,,,,,0,,,74,0
13776,note_on,0,0,3,,,,,,,,0,,,80,0
13776,note_on,0,0,3,,,,,,,,0,,,62,0
13776,note_on,96,0,3,,,,,,,,0,,,68,0
13776,note_on,0,0,3,,,,,,,,0,,,65,0
13800,note_on,0,0,3,,,,,,,,0,,,62,80
13800,note_on,0,0,3,,,,,,,,0,,,66,80
13800,note_on,0,0,3,,,,,,,,0,,,69,80
13800,note_on,0,0,3,,,,,,,,0,,,74,80
13800,note_on,24,0,3,,,,,,,,0,,,81,80
13800,note_on,0,0,3,,,,,,,,0,,,84,80
13800,note_on,0,0,3,,,,,,,,0,,,86,80
13896,note_on,0,0,3,,,,,,,,0,,,69,0
13896,note_on,0,0,3,,,,,,,,0,,,86,0
13896,note_on,0,0,3,,,,,,,,0,,,66,0
13896,note_on,0,0,3,,,,,,,,0,,,84,0
13896,note_on,96,0,3,,,,,,,,0,,,74,0
13896,note_on,0,0,3,,,,,,,,0,,,62,0
13896,note_on,0,0,3,,,,,,,,0,,,81,0
13920,note_on,24,0,3,,,,,,,,0,,,83,80
13920,note_on,0,0,3,,,,,,,,0,,,77,80
13920,note_on,0,0,3,,,,,,,,0,,,74,80
13920,note_on,0,0,3,,,,,,,,0,,,71,80
13920,note_on,0,0,3,,,,,,,,0,,,68,80
13920,note_on,0,0,3,,,,,,,,0,,,62,80
14016,note_on,0,0,3,,,,,,,,0,,,77,0
14016,note_on,0,0,3,,,,,,,,0,,,68,0
14016,note_on,0,0,3,,,,,,,,0,,,74,0
14016,note_on,0,0,3,,,,,,,,0,,,83,0
14016,note_on,96,0,3,,,,,,,,0,,,71,0
14016,note_on,0,0,3,,,,,,,,0,,,62,0
14040,note_on,24,0,3,,,,,,,,0,,,84,80
14040,note_on,0,0,3,,,,,,,,0,,,69,80
14040,note_on,0,0,3,,,,,,,,0,,,78,80
14040,note_on,0,0,3,,,,,,,,0,,,72,80
14040,note_on,0,0,3,,,,,,,,0,,,74,80
14040,note_on,0,0,3,,,,,,,,0,,,62,80
14136,note_on,96,0,3,,,,,,,,0,,,72,0
14136,note_on,0,0,3,,,,,,,,0,,,62,0
14136,note_on,0,0,3,,,,,,,,0,,,69,0
14136,note_on,0,0,3,,,,,,,,0,,,74,0
14136,note_on,0,0,3,,,,,,,,0,,,78,0
14136,note_on,0,0,3,,,,,,,,0,,,84,0
14160,note_on,0,0,3,,,,,,,,0,,,65,80
14160,note_on,0,0,3,,,,,,,,0,,,68,80
14160,note_on,0,0,3,,,,,,,,0,,,74,80
14160,note_on,0,0,3,,,,,,,,0,,,80,80
14160,note_on,0,0,3,,,,,,,,0,,,59,80
14160,note_on,24,0,3,,,,,,,,0,,,71,80
14256,note_on,0,0,3,,,,,,,,0,,,80,0
14256,note_on,0,0,3,,,,,,,,0,,,74,0
14256,note_on,0,0,3,,,,,,,,0,,,71,0
14256,note_on,96,0,3,,,,,,,,0,,,65,0
14256,note_on,0,0,3,,,,,,,,0,,,59,0
14256,note_on,0,0,3,,,,,,,,0,,,68,0
14280,note_on,24,0,3,,,,,,,,0,,,81,80
14280,note_on,0,0,3,,,,,,,,0,,,72,80
14280,note_on,0,0,3,,,,,,,,0,,,60,80
14280,note_on,0,0,3,,,,,,,,0,,,66,80
14280,note_on,0,0,3,,,,,,,,0,,,69,80
14280,note_on,0,0,3,,,,,,,,0,,,74,80
14376,note_on,0,0,3,,,,,,,,0,,,81,0
14376,note_on,0,0,3,,,,,,,,0,,,60,0
14376,note_on,0,0,3,,,,,,,,0,,,66,0
14376,note_on,96,0,3,,,,,,,,0,,,74,0
14376,note_on,0,0,3,,,,,,,,0,,,72,0
14376,note_on,0,0,3,,,,,,,,0,,,69,0
14400,note_on,0,0,3,,,,,,,,0,,,77,80
14400,note_on,0,0,3,,,,,,,,0,,,71,80
14400,note_on,0,0,3,,,,,,,,0,,,68,80
14400,note_on,0,0,3,,,,,,,,0,,,65,80
14400,note_on,0,0,3,,,,,,,,0,,,62,80
14400,note_on,0,0,3,,,,,,,,0,,,56,80
14400,control_change,24,0,3,,,,,,,,0,64,0,,
14402,set_tempo,938,1,0,,,,,,447194,,,,,,
14445,set_tempo,43,1,0,,,,,,443918,,,,,,
14469,control_change,69,0,3,,,,,,,,0,64,127,,
14489,set_tempo,44,1,0,,,,,,440690,,,,,,
14496,note_on,27,0,3,,,,,,,,0,,,62,0
14496,note_on,0,0,3,,,,,,,,0,,,65,0
14496,note_on,0,0,3,,,,,,,,0,,,71,0
14496,note_on,0,0,3,,,,,,,,0,,,77,0
14496,note_on,0,0,3,,,,,,,,0,,,56,0
14496,note_on,0,0,3,,,,,,,,0,,,68,0
14520,note_on,24,0,3,,,,,,,,0,,,57,80
14520,note_on,0,0,3,,,,,,,,0,,,62,80
14520,note_on,0,0,3,,,,,,,,0,,,66,80
14520,note_on,0,0,3,,,,,,,,0,,,69,80
14520,note_on,0,0,3,,,,,,,,0,,,72,80
14520,note_on,0,0,3,,,,,,,,0,,,78,80
14528,set_tempo,39,1,0,,,,,,437509,,,,,,
14572,set_tempo,44,1,0,,,,,,434373,,,,,,
14611,set_tempo,39,1,0,,,,,,431282,,,,,,
14616,note_on,0,0,3,,,,,,,,0,,,66,0
14616,note_on,0,0,3,,,,,,,,0,,,57,0
14616,note_on,0,0,3,,,,,,,,0,,,72,0
14616,note_on,0,0,3,,,,,,,,0,,,78,0
14616,note_on,0,0,3,,,,,,,,0,,,62,0
14616,note_on,96,0,3,,,,,,,,0,,,69,0
14640,note_on,0,0,3,,,,,,,,0,,,74,80
14640,note_on,0,0,3,,,,,,,,0,,,65,80
14640,note_on,0,0,3,,,,,,,,0,,,68,80
14640,note_on,0,0,3,,,,,,,,0,,,59,80
14640,note_on,0,0,3,,,,,,,,0,,,53,80
14640,note_on,24,0,3,,,,,,,,0,,,62,80
14655,set_tempo,44,1,0,,,,,,428235,,,,,,
14694,set_tempo,39,1,0,,,,,,425230,,,,,,
14736,note_on,0,0,3,,,,,,,,0,,,53,0
14736,note_on,0,0,3,,,,,,,,0,,,59,0
14736,note_on,0,0,3,,,,,,,,0,,,62,0
14736,note_on,0,0,3,,,,,,,,0,,,68,0
14736,note_on,0,0,3,,,,,,,,0,,,74,0
14736,note_on,96,0,3,,,,,,,,0,,,65,0
14738,set_tempo,44,1,0,,,,,,422268,,,,,,
14760,note_on,24,0,3,,,,,,,,0,,,54,80
14760,note_on,0,0,3,,,,,,,,0,,,62,80
14760,note_on,0,0,3,,,,,,,,0,,,60,80
14760,note_on,0,0,3,,,,,,,,0,,,69,80
14760,note_on,0,0,3,,,,,,,,0,,,66,80
14760,note_on,0,0,3,,,,,,,,0,,,74,80
14781,set_tempo,43,1,0,,,,,,419346,,,,,,
14821,set_tempo,40,1,0,,,,,,416464,,,,,,
14856,note_on,0,0,3,,,,,,,,0,,,54,0
14856,note_on,0,0,3,,,,,,,,0,,,60,0
14856,note_on,0,0,3,,,,,,,,0,,,62,0
14856,note_on,0,0,3,,,,,,,,0,,,66,0
14856,note_on,96,0,3,,,,,,,,0,,,69,0
14856,note_on,0,0,3,,,,,,,,0,,,74,0
14864,set_tempo,43,1,0,,,,,,413622,,,,,,
14880,note_on,0,0,3,,,,,,,,0,,,56,80
14880,note_on,24,0,3,,,,,,,,0,,,62,80
14880,note_on,0,0,3,,,,,,,,0,,,59,80
14880,note_on,0,0,3,,,,,,,,0,,,74,80
14880,note_on,14880,0,2,,,,,,,,0,,,65,80
14880,note_on,0,0,2,,,,,,,,0,,,71,80
14880,note_on,0,0,3,,,,,,,,0,,,50,80
14904,set_tempo,40,1,0,,,,,,410818,,,,,,
14947,set_tempo,43,1,0,,,,,,408052,,,,,,
14976,note_on,96,0,3,,,,,,,,0,,,74,0
14976,note_on,0,0,3,,,,,,,,0,,,62,0
14986,set_tempo,39,1,0,,,,,,405323,,,,,,
15000,note_on,0,0,3,,,,,,,,0,,,62,80
15000,note_on,24,0,3,,,,,,,,0,,,74,80
15030,set_tempo,44,1,0,,,,,,402631,,,,,,
15072,note_on,0,0,3,,,,,,,,0,,,50,0
15072,note_on,192,0,2,,,,,,,,0,,,71,0
15072,note_on,0,0,2,,,,,,,,0,,,65,0
15072,note_on,0,0,3,,,,,,,,0,,,56,0
15072,note_on,72,0,3,,,,,,,,0,,,59,0
15074,set_tempo,44,1,0,,,,,,399973,,,,,,
15096,note_on,24,0,3,,,,,,,,0,,,74,0
15096,note_on,0,0,3,,,,,,,,0,,,62,0
15113,set_tempo,39,1,0,,,,,,397351,,,,,,
15120,note_on,0,0,3,,,,,,,,0,,,74,80
15120,note_on,0,0,3,,,,,,,,0,,,62,80
15120,note_on,24,0,3,,,,,,,,0,,,50,80
15120,note_on,0,0,3,,,,,,,,0,,,60,80
15120,note_on,0,0,2,,,,,,,,0,,,72,80
15120,note_on,0,0,3,,,,,,,,0,,,57,80
15120,note_on,48,0,2,,,,,,,,0,,,66,80
15157,set_tempo,44,1,0,,,,,,394763,,,,,,
15196,set_tempo,39,1,0,,,,,,392208,,,,,,
15216,note_on,96,0,3,,,,,,,,0,,,62,0
15216,note_on,0,0,3,,,,,,,,0,,,74,0
15240,note_on,24,0,3,,,,,,,,0,,,74,80
15240,note_on,0,0,3,,,,,,,,0,,,62,80
15240,set_tempo,44,1,0,,,,,,389686,,,,,,
15279,set_tempo,39,1,0,,,,,,387197,,,,,,
15312,note_on,0,0,2,,,,,,,,0,,,66,0
15312,note_on,0,0,3,,,,,,,,0,,,60,0
15312,note_on,72,0,3,,,,,,,,0,,,50,0
15312,note_on,0,0,3,,,,,,,,0,,,57,0
15312,note_on,192,0,2,,,,,,,,0,,,72,0
15322,set_tempo,43,1,0,,,,,,384739,,,,,,
15336,note_on,0,0,3,,,,,,,,0,,,62,0
15336,note_on,24,0,3,,,,,,,,0,,,74,0
15360,note_on,24,0,3,,,,,,,,0,,,50,80
15360,note_on,0,0,3,,,,,,,,0,,,74,80
15360,note_on,0,0,3,,,,,,,,0,,,62,80
15360,note_on,0,0,3,,,,,,,,0,,,56,80
15360,note_on,0,0,3,,,,,,,,0,,,53,80
15360,note_on,0,0,2,,,,,,,,0,,,68,80
15360,note_on,48,0,2,,,,,,,,0,,,65,80
15362,set_tempo,40,1,0,,,,,,382312,,,,,,
15445,set_tempo,83,1,0,,,,,,379915,,,,,,
15456,note_on,96,0,3,,,,,,,,0,,,74,0
15456,note_on,0,0,3,,,,,,,,0,,,62,0
15480,note_on,0,0,3,,,,,,,,0,,,74,80
15480,note_on,24,0,3,,,,,,,,0,,,62,80
15523,set_tempo,78,1,0,,,,,,377548,,,,,,
15552,note_on,0,0,3,,,,,,,,0,,,56,0
15552,note_on,192,0,2,,,,,,,,0,,,68,0
15552,note_on,72,0,3,,,,,,,,0,,,50,0
15552,note_on,0,0,2,,,,,,,,0,,,65,0
15552,note_on,0,0,3,,,,,,,,0,,,53,0
15576,note_on,24,0,3,,,,,,,,0,,,62,0
15576,note_on,0,0,3,,,,,,,,0,,,74,0
15600,note_on,0,0,2,,,,,,,,0,,,66,80
15600,note_on,0,0,3,,,,,,,,0,,,50,80
15600,note_on,0,0,3,,,,,,,,0,,,57,80
15600,note_on,0,0,3,,,,,,,,0,,,62,80
15600,note_on,0,0,3,,,,,,,,0,,,74,80
15600,note_on,24,0,3,,,,,,,,0,,,54,80
15600,note_on,48,0,2,,,,,,,,0,,,69,80
15602,set_tempo,79,1,0,,,,,,375211,,,,,,
15680,set_tempo,78,1,0,,,,,,372902,,,,,,
15696,note_on,96,0,3,,,,,,,,0,,,62,0
15696,note_on,0,0,3,,,,,,,,0,,,74,0
15720,note_on,0,0,3,,,,,,,,0,,,62,80
15720,note_on,24,0,3,,,,,,,,0,,,74,80
15763,set_tempo,83,1,0,,,,,,370622,,,,,,
15792,note_on,0,0,3,,,,,,,,0,,,50,0
15792,note_on,72,0,3,,,,,,,,0,,,54,0
15792,note_on,0,0,3,,,,,,,,0,,,57,0
15792,note_on,0,0,2,,,,,,,,0,,,69,0
15792,note_on,192,0,2,,,,,,,,0,,,66,0
15816,note_on,0,0,3,,,,,,,,0,,,62,0
15816,note_on,24,0,3,,,,,,,,0,,,74,0
15840,note_on,0,0,3,,,,,,,,0,,,56,80
15840,note_on,0,0,2,,,,,,,,0,,,71,80
15840,note_on,48,0,2,,,,,,,,0,,,65,80
15840,note_on,0,0,3,,,,,,,,0,,,62,80
15840,note_on,24,0,3,,,,,,,,0,,,59,80
15840,note_on,0,0,3,,,,,,,,0,,,74,80
15840,note_on,0,0,3,,,,,,,,0,,,50,80
15842,set_tempo,79,1,0,,,,,,368369,,,,,,
15920,set_tempo,78,1,0,,,,,,366144,,,,,,
15936,note_on,0,0,3,,,,,,,,0,,,74,0
15936,note_on,96,0,3,,,,,,,,0,,,62,0
15960,note_on,0,0,3,,,,,,,,0,,,74,80
15960,note_on,24,0,3,,,,,,,,0,,,62,80
15999,set_tempo,79,1,0,,,,,,363945,,,,,,
16032,note_on,0,0,3,,,,,,,,0,,,50,0
16032,note_on,72,0,3,,,,,,,,0,,,59,0
16032,note_on,192,0,2,,,,,,,,0,,,71,0
16032,note_on,0,0,2,,,,,,,,0,,,65,0
16032,note_on,0,0,3,,,,,,,,0,,,56,0
16056,note_on,24,0,3,,,,,,,,0,,,62,0
16056,note_on,0,0,3,,,,,,,,0,,,74,0
16080,note_on,0,0,2,,,,,,,,0,,,66,80
16080,note_on,0,0,3,,,,,,,,0,,,57,80
16080,note_on,0,0,3,,,,,,,,0,,,60,80
16080,note_on,0,0,3,,,,,,,,0,,,62,80
16080,note_on,0,0,3,,,,,,,,0,,,74,80
16080,note_on,24,0,3,,,,,,,,0,,,50,80
16080,note_on,48,0,2,,,,,,,,0,,,72,80
16082,set_tempo,83,1,0,,,,,,361773,,,,,,
16160,set_tempo,78,1,0,,,,,,359626,,,,,,
16176,note_on,0,0,3,,,,,,,,0,,,74,0
16176,note_on,96,0,3,,,,,,,,0,,,62,0
16200,note_on,0,0,3,,,,,,,,0,,,74,80
16200,note_on,24,0,3,,,,,,,,0,,,62,80
16239,set_tempo,79,1,0,,,,,,357505,,,,,,
16296,note_on,0,0,3,,,,,,,,0,,,62,0
16296,note_on,96,0,3,,,,,,,,0,,,74,0
16317,set_tempo,78,1,0,,,,,,355408,,,,,,
16319,set_tempo,2,1,0,,,,,,360144,,,,,,
16320,note_on,24,0,3,,,,,,,,0,,,74,80
16320,note_on,0,0,3,,,,,,,,0,,,62,80
16332,set_tempo,13,1,0,,,,,,358852,,,,,,
16416,note_on,0,0,3,,,,,,,,0,,,74,0
16416,note_on,96,0,3,,,,,,,,0,,,62,0
16440,note_on,24,0,3,,,,,,,,0,,,74,80
16440,note_on,0,0,3,,,,,,,,0,,,62,80
16512,note_on,0,0,3,,,,,,,,0,,,57,0
16512,note_on,72,0,3,,,,,,,,0,,,50,0
16512,note_on,432,0,2,,,,,,,,0,,,66,0
16512,note_on,0,0,2,,,,,,,,0,,,72,0
16512,note_on,0,0,3,,,,,,,,0,,,60,0
16536,note_on,0,0,3,,,,,,,,0,,,62,0
16536,note_on,24,0,3,,,,,,,,0,,,74,0
16560,note_on,24,0,3,,,,,,,,0,,,74,80
16560,note_on,0,0,3,,,,,,,,0,,,62,80
16656,note_on,96,0,3,,,,,,,,0,,,62,0
16656,note_on,0,0,3,,,,,,,,0,,,74,0
16680,note_on,24,0,3,,,,,,,,0,,,62,80
16680,note_on,0,0,3,,,,,,,,0,,,74,80
16776,note_on,96,0,3,,,,,,,,0,,,74,0
16776,note_on,0,0,3,,,,,,,,0,,,62,0
16800,note_on,24,0,3,,,,,,,,0,,,74,80
16800,note_on,0,0,3,,,,,,,,0,,,62,80
16896,note_on,0,0,3,,,,,,,,0,,,74,0
16896,note_on,96,0,3,,,,,,,,0,,,62,0
16920,note_on,24,0,3,,,,,,,,0,,,74,80
16920,note_on,0,0,3,,,,,,,,0,,,62,80
17016,note_on,0,0,3,,,,,,,,0,,,74,0
17016,note_on,96,0,3,,,,,,,,0,,,62,0
17028,control_change,12,0,3,,,,,,,,0,64,0,,
17040,note_on,0,0,3,,,,,,,,0,,,73,80
17040,note_on,12,0,3,,,,,,,,0,,,61,80
17136,note_on,0,0,3,,,,,,,,0,,,61,0
17136,note_on,96,0,3,,,,,,,,0,,,73,0
17160,note_on,24,0,3,,,,,,,,0,,,72,80
17160,note_on,0,0,3,,,,,,,,0,,,60,80
17256,note_on,96,0,3,,,,,,,,0,,,60,0
17256,note_on,0,0,3,,,,,,,,0,,,72,0
17280,control_change,24,0,3,,,,,,,,0,64,127,,
17280,note_on,0,0,3,,,,,,,,0,,,71,80
17280,note_on,0,0,3,,,,,,,,0,,,59,80
17376,note_on,0,0,3,,,,,,,,0,,,59,0
17376,note_on,96,0,3,,,,,,,,0,,,71,0
17400,note_on,0,0,3,,,,,,,,0,,,59,80
17400,note_on,24,0,3,,,,,,,,0,,,71,80
17496,note_on,96,0,3,,,,,,,,0,,,59,0
17496,note_on,0,0,3,,,,,,,,0,,,71,0
17520,note_on,0,0,3,,,,,,,,0,,,71,80
17520,note_on,24,0,3,,,,,,,,0,,,59,80
17616,note_on,0,0,3,,,,,,,,0,,,59,0
17616,note_on,96,0,3,,,,,,,,0,,,71,0
17640,note_on,24,0,3,,,,,,,,0,,,71,80
17640,note_on,0,0,3,,,,,,,,0,,,59,80
17736,note_on,0,0,3,,,,,,,,0,,,71,0
17736,note_on,96,0,3,,,,,,,,0,,,59,0
17760,note_on,0,0,2,,,,,,,,0,,,62,80
17760,note_on,24,0,3,,,,,,,,0,,,56,80
17760,note_on,1248,0,2,,,,,,,,0,,,68,80
17760,note_on,0,0,3,,,,,,,,0,,,59,80
17760,note_on,0,0,3,,,,,,,,0,,,53,80
17760,note_on,0,0,3,,,,,,,,0,,,47,80
17760,note_on,0,0,3,,,,,,,,0,,,71,80
17856,note_on,0,0,3,,,,,,,,0,,,59,0
17856,note_on,96,0,3,,,,,,,,0,,,71,0
17880,note_on,0,0,3,,,,,,,,0,,,71,80
17880,note_on,24,0,3,,,,,,,,0,,,59,80
17952,note_on,72,0,3,,,,,,,,0,,,56,0
17952,note_on,0,0,3,,,,,,,,0,,,53,0
17952,note_on,192,0,2,,,,,,,,0,,,62,0
17952,note_on,0,0,2,,,,,,,,0,,,68,0
17952,note_on,0,0,3,,,,,,,,0,,,47,0
17976,note_on,0,0,3,,,,,,,,0,,,71,0
17976,note_on,24,0,3,,,,,,,,0,,,59,0
18000,note_on,48,0,2,,,,,,,,0,,,63,80
18000,note_on,0,0,3,,,,,,,,0,,,71,80
18000,note_on,0,0,3,,,,,,,,0,,,59,80
18000,note_on,0,0,3,,,,,,,,0,,,47,80
18000,note_on,0,0,2,,,,,,,,0,,,69,80
18000,note_on,24,0,3,,,,,,,,0,,,57,80
18000,note_on,0,0,3,,,,,,,,0,,,54,80
18096,note_on,0,0,3,,,,,,,,0,,,71,0
18096,note_on,96,0,3,,,,,,,,0,,,59,0
18120,note_on,0,0,3,,,,,,,,0,,,59,80
18120,note_on,24,0,3,,,,,,,,0,,,71,80
18192,note_on,72,0,3,,,,,,,,0,,,57,0
18192,note_on,0,0,3,,,,,,,,0,,,54,0
18192,note_on,0,0,3,,,,,,,,0,,,47,0
18192,note_on,0,0,2,,,,,,,,0,,,63,0
18192,note_on,192,0,2,,,,,,,,0,,,69,0
18216,note_on,24,0,3,,,,,,,,0,,,71,0
18216,note_on,0,0,3,,,,,,,,0,,,59,0
18240,note_on,0,0,3,,,,,,,,0,,,59,80
18240,note_on,24,0,3,,,,,,,,0,,,50,80
18240,note_on,0,0,2,,,,,,,,0,,,62,80
18240,note_on,0,0,3,,,,,,,,0,,,47,80
18240,note_on,0,0,3,,,,,,,,0,,,53,80
18240,note_on,0,0,3,,,,,,,,0,,,71,80
18240,note_on,48,0,2,,,,,,,,0,,,65,80
18257,set_tempo,1925,1,0,,,,,,360144,,,,,,
18295,set_tempo,38,1,0,,,,,,358852,,,,,,
18327,set_tempo,32,1,0,,,,,,357569,,,,,,
18336,note_on,96,0,3,,,,,,,,0,,,59,0
18336,note_on,0,0,3,,,,,,,,0,,,71,0
18360,note_on,24,0,3,,,,,,,,0,,,71,80
18360,note_on,0,0,3,,,,,,,,0,,,59,80
18365,set_tempo,38,1,0,,,,,,356295,,,,,,
18396,set_tempo,31,1,0,,,,,,355030,,,,,,
18432,note_on,72,0,3,,,,,,,,0,,,50,0
18432,note_on,0,0,3,,,,,,,,0,,,53,0
18432,note_on,192,0,2,,,,,,,,0,,,62,0
18432,note_on,0,0,3,,,,,,,,0,,,47,0
18432,note_on,0,0,2,,,,,,,,0,,,65,0
18434,set_tempo,38,1,0,,,,,,353774,,,,,,
18456,note_on,0,0,3,,,,,,,,0,,,59,0
18456,note_on,24,0,3,,,,,,,,0,,,71,0
18466,set_tempo,32,1,0,,,,,,352526,,,,,,
18480,note_on,0,0,3,,,,,,,,0,,,54,80
18480,note_on,48,0,2,,,,,,,,0,,,66,80
18480,note_on,24,0,3,,,,,,,,0,,,71,80
18480,note_on,0,0,3,,,,,,,,0,,,59,80
18480,note_on,0,0,2,,,,,,,,0,,,63,80
18480,note_on,0,0,3,,,,,,,,0,,,47,80
18480,note_on,0,0,3,,,,,,,,0,,,51,80
18504,set_tempo,38,1,0,,,,,,351288,,,,,,
18535,set_tempo,31,1,0,,,,,,350058,,,,,,
18567,set_tempo,32,1,0,,,,,,348837,,,,,,
18576,note_on,96,0,3,,,,,,,,0,,,59,0
18576,note_on,0,0,3,,,,,,,,0,,,71,0
18600,note_on,0,0,3,,,,,,,,0,,,59,80
18600,note_on,24,0,3,,,,,,,,0,,,71,80
18605,set_tempo,38,1,0,,,,,,347625,,,,,,
18636,set_tempo,31,1,0,,,,,,346420,,,,,,
18672,note_on,192,0,2,,,,,,,,0,,,63,0
18672,note_on,0,0,3,,,,,,,,0,,,51,0
18672,note_on,0,0,3,,,,,,,,0,,,54,0
18672,note_on,72,0,3,,,,,,,,0,,,47,0
18672,note_on,0,0,2,,,,,,,,0,,,66,0
18674,set_tempo,38,1,0,,,,,,345224,,,,,,
18696,note_on,0,0,3,,,,,,,,0,,,59,0
18696,note_on,24,0,3,,,,,,,,0,,,71,0
18706,set_tempo,32,1,0,,,,,,344037,,,,,,
18720,note_on,24,0,3,,,,,,,,0,,,59,80
18720,note_on,0,0,2,,,,,,,,0,,,62,80
18720,note_on,0,0,3,,,,,,,,0,,,53,80
18720,note_on,0,0,3,,,,,,,,0,,,56,80
18720,note_on,0,0,3,,,,,,,,0,,,71,80
18720,note_on,48,0,2,,,,,,,,0,,,68,80
18720,note_on,0,0,3,,,,,,,,0,,,47,80
18744,set_tempo,38,1,0,,,,,,342857,,,,,,
18775,set_tempo,31,1,0,,,,,,341686,,,,,,
18813,set_tempo,38,1,0,,,,,,340522,,,,,,
18816,note_on,0,0,3,,,,,,,,0,,,59,0
18816,note_on,96,0,3,,,,,,,,0,,,71,0
18840,note_on,0,0,3,,,,,,,,0,,,59,80
18840,note_on,24,0,3,,,,,,,,0,,,71,80
18845,set_tempo,32,1,0,,,,,,339367,,,,,,
18876,set_tempo,31,1,0,,,,,,338219,,,,,,
18912,note_on,0,0,2,,,,,,,,0,,,68,0
18912,note_on,72,0,3,,,,,,,,0,,,56,0
18912,note_on,0,0,3,,,,,,,,0,,,53,0
18912,note_on,0,0,3,,,,,,,,0,,,47,0
18912,note_on,192,0,2,,,,,,,,0,,,62,0
18914,set_tempo,38,1,0,,,,,,337079,,,,,,
18936,note_on,24,0,3,,,,,,,,0,,,71,0
18936,note_on,0,0,3,,,,,,,,0,,,59,0
18946,set_tempo,32,1,0,,,,,,335946,,,,,,
18960,note_on,24,0,3,,,,,,,,0,,,59,80
18960,note_on,0,0,2,,,,,,,,0,,,63,80
18960,note_on,48,0,2,,,,,,,,0,,,69,80
18960,note_on,0,0,3,,,,,,,,0,,,71,80
18960,note_on,0,0,3,,,,,,,,0,,,57,80
18960,note_on,0,0,3,,,,,,,,0,,,54,80
18960,note_on,0,0,3,,,,,,,,0,,,47,80
18984,set_tempo,38,1,0,,,,,,334821,,,,,,
19015,set_tempo,31,1,0,,,,,,333704,,,,,,
19053,set_tempo,38,1,0,,,,,,332594,,,,,,
19056,note_on,96,0,3,,,,,,,,0,,,71,0
19056,note_on,0,0,3,,,,,,,,0,,,59,0
19080,note_on,0,0,3,,,,,,,,0,,,59,80
19080,note_on,24,0,3,,,,,,,,0,,,71,80
19085,set_tempo,32,1,0,,,,,,331492,,,,,,
19123,set_tempo,38,1,0,,,,,,330396,,,,,,
19152,note_on,72,0,3,,,,,,,,0,,,54,0
19152,note_on,0,0,3,,,,,,,,0,,,57,0
19152,note_on,0,0,3,,,,,,,,0,,,47,0
19152,note_on,192,0,2,,,,,,,,0,,,63,0
19152,note_on,0,0,2,,,,,,,,0,,,69,0
19154,set_tempo,31,1,0,,,,,,329308,,,,,,
19176,note_on,0,0,3,,,,,,,,0,,,59,0
19176,note_on,24,0,3,,,,,,,,0,,,71,0
19186,set_tempo,32,1,0,,,,,,328228,,,,,,
19200,note_on,0,0,2,,,,,,,,0,,,59,80
19200,note_on,48,0,2,,,,,,,,0,,,71,80
19296,note_on,96,0,2,,,,,,,,0,,,59,0
19296,note_on,0,0,2,,,,,,,,0,,,71,0
19320,note_on,0,0,2,,,,,,,,0,,,71,80
19320,note_on,24,0,2,,,,,,,,0,,,59,80
19416,note_on,96,0,2,,,,,,,,0,,,71,0
19416,note_on,0,0,2,,,,,,,,0,,,59,0
19440,note_on,0,0,2,,,,,,,,0,,,59,80
19440,note_on,24,0,2,,,,,,,,0,,,71,80
19536,note_on,0,0,2,,,,,,,,0,,,71,0
19536,note_on,96,0,2,,,,,,,,0,,,59,0
19560,note_on,0,0,2,,,,,,,,0,,,71,80
19560,note_on,24,0,2,,,,,,,,0,,,59,80
19656,note_on,96,0,2,,,,,,,,0,,,71,0
19656,note_on,0,0,2,,,,,,,,0,,,59,0
19680,note_on,0,0,2,,,,,,,,0,,,59,80
19680,note_on,24,0,2,,,,,,,,0,,,71,80
19776,note_on,96,0,2,,,,,,,,0,,,59,0
19776,note_on,0,0,2,,,,,,,,0,,,71,0
19800,note_on,24,0,2,,,,,,,,0,,,59,80
19800,note_on,0,0,2,,,,,,,,0,,,71,80
19896,note_on,0,0,2,,,,,,,,0,,,59,0
19896,note_on,96,0,2,,,,,,,,0,,,71,0
19920,note_on,0,0,2,,,,,,,,0,,,58,80
19920,note_on,24,0,2,,,,,,,,0,,,70,80
19980,control_change,804,0,3,,,,,,,,0,64,0,,
20016,note_on,0,0,2,,,,,,,,0,,,70,0
20016,note_on,96,0,2,,,,,,,,0,,,58,0
20040,note_on,24,0,2,,,,,,,,0,,,69,80
20040,note_on,0,0,2,,,,,,,,0,,,57,80
20136,note_on,0,0,2,,,,,,,,0,,,69,0
20136,note_on,96,0,2,,,,,,,,0,,,57,0
20160,control_change,180,0,3,,,,,,,,0,64,127,,
20160,note_on,24,0,2,,,,,,,,0,,,68,80
20160,note_on,0,0,2,,,,,,,,0,,,56,80
20256,note_on,96,0,2,,,,,,,,0,,,56,0
20256,note_on,0,0,2,,,,,,,,0,,,68,0
20280,note_on,0,0,2,,,,,,,,0,,,56,80
20280,note_on,24,0,2,,,,,,,,0,,,68,80
20376,note_on,96,0,2,,,,,,,,0,,,56,0
20376,note_on,0,0,2,,,,,,,,0,,,68,0
20400,note_on,0,0,3,,,,,,,,0,,,44,80
20400,note_on,0,0,2,,,,,,,,0,,,68,80
20400,note_on,24,0,2,,,,,,,,0,,,56,80
20400,note_on,0,0,3,,,,,,,,0,,,50,80
20400,note_on,240,0,3,,,,,,,,0,,,59,80
20400,note_on,0,0,3,,,,,,,,0,,,68,80
20400,note_on,0,0,3,,,,,,,,0,,,53,80
20496,note_on,0,0,2,,,,,,,,0,,,56,0
20496,note_on,96,0,2,,,,,,,,0,,,68,0
20520,note_on,24,0,2,,,,,,,,0,,,68,80
20520,note_on,0,0,2,,,,,,,,0,,,56,80
20592,note_on,0,0,3,,,,,,,,0,,,68,0
20592,note_on,0,0,3,,,,,,,,0,,,44,0
20592,note_on,192,0,3,,,,,,,,0,,,53,0
20592,note_on,0,0,3,,,,,,,,0,,,50,0
20592,note_on,0,0,3,,,,,,,,0,,,59,0
20616,note_on,0,0,2,,,,,,,,0,,,68,0
20616,note_on,96,0,2,,,,,,,,0,,,56,0
20640,note_on,0,0,3,,,,,,,,0,,,60,80
20640,note_on,48,0,3,,,,,,,,0,,,51,80
20640,note_on,24,0,2,,,,,,,,0,,,68,80
20640,note_on,0,0,3,,,,,,,,0,,,54,80
20640,note_on,0,0,2,,,,,,,,0,,,56,80
20640,note_on,0,0,3,,,,,,,,0,,,44,80
20640,note_on,0,0,3,,,,,,,,0,,,70,80
20736,note_on,0,0,2,,,,,,,,0,,,68,0
20736,note_on,96,0,2,,,,,,,,0,,,56,0
20760,note_on,0,0,2,,,,,,,,0,,,68,80
20760,note_on,24,0,2,,,,,,,,0,,,56,80
20832,note_on,0,0,3,,,,,,,,0,,,51,0
20832,note_on,0,0,3,,,,,,,,0,,,70,0
20832,note_on,0,0,3,,,,,,,,0,,,44,0
20832,note_on,192,0,3,,,,,,,,0,,,60,0
20832,note_on,0,0,3,,,,,,,,0,,,54,0
20856,note_on,0,0,2,,,,,,,,0,,,56,0
20856,note_on,96,0,2,,,,,,,,0,,,68,0
20880,note_on,0,0,3,,,,,,,,0,,,44,80
20880,note_on,24,0,2,,,,,,,,0,,,56,80
20880,note_on,0,0,3,,,,,,,,0,,,62,80
20880,note_on,0,0,3,,,,,,,,0,,,65,80
20880,note_on,0,0,3,,,,,,,,0,,,47,80
20880,note_on,48,0,3,,,,,,,,0,,,50,80
20880,note_on,0,0,2,,,,,,,,0,,,68,80
20976,note_on,0,0,2,,,,,,,,0,,,56,0
20976,note_on,96,0,2,,,,,,,,0,,,68,0
21000,note_on,24,0,2,,,,,,,,0,,,56,80
21000,note_on,0,0,2,,,,,,,,0,,,68,80
21072,note_on,0,0,3,,,,,,,,0,,,65,0
21072,note_on,0,0,3,,,,,,,,0,,,62,0
21072,note_on,0,0,3,,,,,,,,0,,,47,0
21072,note_on,0,0,3,,,,,,,,0,,,50,0
21072,note_on,192,0,3,,,,,,,,0,,,44,0
21096,note_on,0,0,2,,,,,,,,0,,,56,0
21096,note_on,96,0,2,,,,,,,,0,,,68,0
21114,set_tempo,1928,1,0,,,,,,329308,,,,,,
21120,note_on,24,0,2,,,,,,,,0,,,56,80
21120,note_on,48,0,3,,,,,,,,0,,,60,80
21120,note_on,0,0,2,,,,,,,,0,,,68,80
21120,note_on,0,0,3,,,,,,,,0,,,44,80
21120,note_on,0,0,3,,,,,,,,0,,,51,80
21120,note_on,0,0,3,,,,,,,,0,,,63,80
21120,note_on,0,0,3,,,,,,,,0,,,48,80
21152,set_tempo,38,1,0,,,,,,330396,,,,,,
21190,set_tempo,38,1,0,,,,,,331492,,,,,,
21216,note_on,96,0,2,,,,,,,,0,,,68,0
21216,note_on,0,0,2,,,,,,,,0,,,56,0
21227,set_tempo,37,1,0,,,,,,332594,,,,,,
21240,note_on,24,0,2,,,,,,,,0,,,68,80
21240,note_on,0,0,2,,,,,,,,0,,,56,80
21265,set_tempo,38,1,0,,,,,,333704,,,,,,
21303,set_tempo,38,1,0,,,,,,334821,,,,,,
21312,note_on,0,0,3,,,,,,,,0,,,63,0
21312,note_on,192,0,3,,,,,,,,0,,,51,0
21312,note_on,0,0,3,,,,,,,,0,,,60,0
21312,note_on,0,0,3,,,,,,,,0,,,48,0
21312,note_on,0,0,3,,,,,,,,0,,,44,0
21336,note_on,96,0,2,,,,,,,,0,,,56,0
21336,note_on,0,0,2,,,,,,,,0,,,68,0
21341,set_tempo,38,1,0,,,,,,335946,,,,,,
21360,note_on,24,0,2,,,,,,,,0,,,65,80
21360,note_on,0,0,2,,,,,,,,0,,,53,80
21360,note_on,0,0,3,,,,,,,,0,,,50,80
21360,note_on,0,0,3,,,,,,,,0,,,41,80
21360,note_on,48,0,3,,,,,,,,0,,,62,80
21360,note_on,0,0,3,,,,,,,,0,,,47,80
21360,note_on,0,0,3,,,,,,,,0,,,56,80
21379,set_tempo,38,1,0,,,,,,337079,,,,,,
21417,set_tempo,38,1,0,,,,,,338219,,,,,,
21455,set_tempo,38,1,0,,,,,,339367,,,,,,
21456,note_on,96,0,2,,,,,,,,0,,,53,0
21456,note_on,0,0,2,,,,,,,,0,,,65,0
21480,note_on,0,0,2,,,,,,,,0,,,53,80
21480,note_on,24,0,2,,,,,,,,0,,,65,80
21493,set_tempo,38,1,0,,,,,,340522,,,,,,
21531,set_tempo,38,1,0,,,,,,341686,,,,,,
21552,note_on,192,0,3,,,,,,,,0,,,56,0
21552,note_on,0,0,3,,,,,,,,0,,,41,0
21552,note_on,0,0,3,,,,,,,,0,,,47,0
21552,note_on,0,0,3,,,,,,,,0,,,50,0
21552,note_on,0,0,3,,,,,,,,0,,,62,0
21569,set_tempo,38,1,0,,,,,,342857,,,,,,
21576,note_on,0,0,2,,,,,,,,0,,,65,0
21576,note_on,96,0,2,,,,,,,,0,,,53,0
21600,note_on,48,0,3,,,,,,,,0,,,48,80
21600,note_on,0,0,3,,,,,,,,0,,,57,80
21600,note_on,0,0,3,,,,,,,,0,,,51,80
21600,note_on,0,0,3,,,,,,,,0,,,63,80
21600,note_on,0,0,2,,,,,,,,0,,,65,80
21600,note_on,24,0,2,,,,,,,,0,,,53,80
21600,note_on,0,0,3,,,,,,,,0,,,41,80
21606,set_tempo,37,1,0,,,,,,344037,,,,,,
21615,control_change,15,0,3,,,,,,,,0,64,0,,
21644,set_tempo,38,1,0,,,,,,345224,,,,,,
21682,set_tempo,38,1,0,,,,,,346420,,,,,,
21696,note_on,96,0,2,,,,,,,,0,,,65,0
21696,note_on,0,0,2,,,,,,,,0,,,53,0
21720,note_on,0,0,2,,,,,,,,0,,,53,80
21720,set_tempo,38,1,0,,,,,,347625,,,,,,
21720,note_on,24,0,2,,,,,,,,0,,,65,80
21758,set_tempo,38,1,0,,,,,,348837,,,,,,
21792,note_on,177,0,3,,,,,,,,0,,,63,0
21792,note_on,0,0,3,,,,,,,,0,,,51,0
21792,note_on,0,0,3,,,,,,,,0,,,41,0
21792,note_on,0,0,3,,,,,,,,0,,,57,0
21792,note_on,0,0,3,,,,,,,,0,,,48,0
21795,control_change,3,0,3,,,,,,,,0,64,127,,
21796,set_tempo,38,1,0,,,,,,350058,,,,,,
21816,note_on,0,0,2,,,,,,,,0,,,65,0
21816,note_on,96,0,2,,,,,,,,0,,,53,0
21834,set_tempo,38,1,0,,,,,,351288,,,,,,
21840,note_on,45,0,3,,,,,,,,0,,,47,80
21840,note_on,0,0,3,,,,,,,,0,,,56,80
21840,note_on,24,0,2,,,,,,,,0,,,53,80
21840,note_on,0,0,2,,,,,,,,0,,,65,80
21840,note_on,0,0,3,,,,,,,,0,,,44,80
21840,note_on,0,0,3,,,,,,,,0,,,41,80
21840,note_on,0,0,3,,,,,,,,0,,,59,80
21872,set_tempo,38,1,0,,,,,,352526,,,,,,
21910,set_tempo,38,1,0,,,,,,353774,,,,,,
21936,note_on,96,0,2,,,,,,,,0,,,65,0
21936,note_on,0,0,2,,,,,,,,0,,,53,0
21947,set_tempo,37,1,0,,,,,,355030,,,,,,
21960,note_on,24,0,2,,,,,,,,0,,,53,80
21960,note_on,0,0,2,,,,,,,,0,,,65,80
21985,set_tempo,38,1,0,,,,,,356295,,,,,,
22023,set_tempo,38,1,0,,,,,,357569,,,,,,
22032,note_on,0,0,3,,,,,,,,0,,,41,0
22032,note_on,0,0,3,,,,,,,,0,,,44,0
22032,note_on,0,0,3,,,,,,,,0,,,47,0
22032,note_on,0,0,3,,,,,,,,0,,,59,0
22032,note_on,192,0,3,,,,,,,,0,,,56,0
22056,note_on,96,0,2,,,,,,,,0,,,65,0
22056,note_on,0,0,2,,,,,,,,0,,,53,0
22061,set_tempo,38,1,0,,,,,,358852,,,,,,
22080,note_on,24,0,2,,,,,,,,0,,,65,80
22080,note_on,0,0,3,,,,,,,,0,,,57,80
22080,note_on,0,0,2,,,,,,,,0,,,53,80
22080,note_on,0,0,3,,,,,,,,0,,,41,80
22080,note_on,48,0,3,,,,,,,,0,,,45,80
22080,note_on,0,0,3,,,,,,,,0,,,48,80
22080,note_on,0,0,3,,,,,,,,0,,,60,80
22093,set_tempo,32,1,0,,,,,,360144,,,,,,
22176,note_on,0,0,2,,,,,,,,0,,,65,0
22176,note_on,96,0,2,,,,,,,,0,,,53,0
22200,note_on,0,0,2,,,,,,,,0,,,53,80
22200,note_on,24,0,2,,,,,,,,0,,,65,80
22272,note_on,0,0,3,,,,,,,,0,,,45,0
22272,note_on,0,0,3,,,,,,,,0,,,48,0
22272,note_on,0,0,3,,,,,,,,0,,,57,0
22272,note_on,192,0,3,,,,,,,,0,,,60,0
22272,note_on,0,0,3,,,,,,,,0,,,41,0
22296,note_on,96,0,2,,,,,,,,0,,,53,0
22296,note_on,0,0,2,,,,,,,,0,,,65,0
22320,note_on,0,0,2,,,,,,,,0,,,62,80
22320,note_on,0,0,3,,,,,,,,0,,,59,80
22320,note_on,24,0,2,,,,,,,,0,,,50,80
22320,note_on,0,0,3,,,,,,,,0,,,53,80
22320,note_on,0,0,3,,,,,,,,0,,,38,80
22320,note_on,0,0,3,,,,,,,,0,,,47,80
22320,note_on,48,0,3,,,,,,,,0,,,44,80
22365,control_change,45,0,3,,,,,,,,0,64,0,,
22416,note_on,0,0,2,,,,,,,,0,,,50,0
22416,note_on,96,0,2,,,,,,,,0,,,62,0
22440,note_on,0,0,2,,,,,,,,0,,,50,80
22440,note_on,24,0,2,,,,,,,,0,,,62,80
22500,control_change,135,0,3,,,,,,,,0,64,127,,
22536,note_on,96,0,2,,,,,,,,0,,,50,0
22536,note_on,0,0,2,,,,,,,,0,,,62,0
22560,note_on,24,0,2,,,,,,,,0,,,50,80
22560,note_on,0,0,2,,,,,,,,0,,,62,80
22656,note_on,0,0,2,,,,,,,,0,,,50,0
22656,note_on,96,0,2,,,,,,,,0,,,62,0
22680,note_on,24,0,2,,,,,,,,0,,,50,80
22680,note_on,0,0,2,,,,,,,,0,,,62,80
22704,note_on,0,0,3,,,,,,,,0,,,53,0
22704,note_on,0,0,3,,,,,,,,0,,,59,0
22704,note_on,204,0,3,,,,,,,,0,,,47,0
22704,note_on,0,0,3,,,,,,,,0,,,38,0
22704,note_on,0,0,3,,,,,,,,0,,,44,0
22774,set_tempo,681,1,0,,,,,,358852,,,,,,
22776,note_on,0,0,2,,,,,,,,0,,,50,0
22776,note_on,96,0,2,,,,,,,,0,,,62,0
22800,note_on,0,0,3,,,,,,,,0,,,38,80
22800,note_on,0,0,3,,,,,,,,0,,,45,80
22800,note_on,0,0,2,,,,,,,,0,,,50,80
22800,note_on,0,0,3,,,,,,,,0,,,54,80
22800,note_on,0,0,3,,,,,,,,0,,,60,80
22800,note_on,24,0,2,,,,,,,,0,,,62,80
22800,note_on,96,0,3,,,,,,,,0,,,48,80
22844,set_tempo,70,1,0,,,,,,360144,,,,,,
22896,note_on,0,0,2,,,,,,,,0,,,62,0
22896,note_on,96,0,2,,,,,,,,0,,,50,0
22907,set_tempo,63,1,0,,,,,,361446,,,,,,
22920,note_on,24,0,2,,,,,,,,0,,,50,80
22920,note_on,0,0,2,,,,,,,,0,,,62,80
22976,set_tempo,69,1,0,,,,,,362757,,,,,,
23016,note_on,96,0,2,,,,,,,,0,,,62,0
23016,note_on,0,0,2,,,,,,,,0,,,50,0
23040,set_tempo,64,1,0,,,,,,364078,,,,,,
23040,note_on,0,0,2,,,,,,,,0,,,62,80
23040,note_on,24,0,2,,,,,,,,0,,,50,80
23109,set_tempo,69,1,0,,,,,,365408,,,,,,
23136,note_on,0,0,2,,,,,,,,0,,,50,0
23136,note_on,96,0,2,,,,,,,,0,,,62,0
23160,note_on,0,0,2,,,,,,,,0,,,62,80
23160,note_on,24,0,2,,,,,,,,0,,,50,80
23172,set_tempo,63,1,0,,,,,,366748,,,,,,
23232,note_on,432,0,3,,,,,,,,0,,,38,0
23232,note_on,0,0,3,,,,,,,,0,,,60,0
23232,note_on,0,0,3,,,,,,,,0,,,54,0
23232,note_on,0,0,3,,,,,,,,0,,,48,0
23232,note_on,0,0,3,,,,,,,,0,,,45,0
23242,set_tempo,70,1,0,,,,,,368098,,,,,,
23256,note_on,96,0,2,,,,,,,,0,,,62,0
23256,note_on,0,0,2,,,,,,,,0,,,50,0
23280,note_on,0,0,3,,,,,,,,0,,,56,80
23280,note_on,0,0,3,,,,,,,,0,,,44,80
23280,note_on,0,0,3,,,,,,,,0,,,41,80
23280,note_on,48,0,3,,,,,,,,0,,,53,80
23280,note_on,0,0,3,,,,,,,,0,,,38,80
23280,note_on,0,0,2,,,,,,,,0,,,50,80
23280,note_on,24,0,2,,,,,,,,0,,,62,80
23305,set_tempo,63,1,0,,,,,,369458,,,,,,
23368,set_tempo,63,1,0,,,,,,370828,,,,,,
23376,note_on,0,0,2,,,,,,,,0,,,62,0
23376,note_on,96,0,2,,,,,,,,0,,,50,0
23400,note_on,0,0,2,,,,,,,,0,,,50,80
23400,note_on,24,0,2,,,,,,,,0,,,62,80
23437,set_tempo,69,1,0,,,,,,372208,,,,,,
23472,note_on,0,0,3,,,,,,,,0,,,53,0
23472,note_on,0,0,3,,,,,,,,0,,,56,0
23472,note_on,0,0,3,,,,,,,,0,,,38,0
23472,note_on,192,0,3,,,,,,,,0,,,44,0
23472,note_on,0,0,3,,,,,,,,0,,,41,0
23496,note_on,96,0,2,,,,,,,,0,,,50,0
23496,note_on,0,0,2,,,,,,,,0,,,62,0
23501,set_tempo,64,1,0,,,,,,373599,,,,,,
23520,note_on,24,0,2,,,,,,,,0,,,62,80
23520,note_on,0,0,3,,,,,,,,0,,,45,80
23520,note_on,0,0,3,,,,,,,,0,,,57,80
23520,note_on,0,0,3,,,,,,,,0,,,38,80
23520,note_on,0,0,3,,,,,,,,0,,,42,80
23520,note_on,48,0,3,,,,,,,,0,,,54,80
23520,note_on,0,0,2,,,,,,,,0,,,50,80
23570,set_tempo,69,1,0,,,,,,375000,,,,,,
23616,note_on,0,0,2,,,,,,,,0,,,62,0
23616,note_on,96,0,2,,,,,,,,0,,,50,0
23633,set_tempo,63,1,0,,,,,,376412,,,,,,
23640,note_on,0,0,2,,,,,,,,0,,,62,80
23640,note_on,24,0,2,,,,,,,,0,,,50,80
23703,set_tempo,70,1,0,,,,,,377834,,,,,,
23712,note_on,0,0,3,,,,,,,,0,,,54,0
23712,note_on,0,0,3,,,,,,,,0,,,42,0
23712,note_on,0,0,3,,,,,,,,0,,,57,0
23712,note_on,0,0,3,,,,,,,,0,,,38,0
23712,note_on,192,0,3,,,,,,,,0,,,45,0
23736,note_on,96,0,2,,,,,,,,0,,,62,0
23736,note_on,0,0,2,,,,,,,,0,,,50,0
23760,note_on,24,0,2,,,,,,,,0,,,50,80
23760,note_on,0,0,3,,,,,,,,0,,,38,80
23760,note_on,0,0,3,,,,,,,,0,,,44,80
23760,note_on,0,0,3,,,,,,,,0,,,47,80
23760,note_on,0,0,3,,,,,,,,0,,,59,80
23760,note_on,0,0,2,,,,,,,,0,,,62,80
23760,note_on,48,0,3,,,,,,,,0,,,53,80
23766,set_tempo,63,1,0,,,,,,379267,,,,,,
23835,set_tempo,69,1,0,,,,,,380711,,,,,,
23856,note_on,0,0,2,,,,,,,,0,,,50,0
23856,note_on,96,0,2,,,,,,,,0,,,62,0
23880,note_on,24,0,2,,,,,,,,0,,,62,80
23880,note_on,0,0,2,,,,,,,,0,,,50,80
23899,set_tempo,64,1,0,,,,,,382166,,,,,,
23952,note_on,0,0,3,,,,,,,,0,,,53,0
23952,note_on,0,0,3,,,,,,,,0,,,47,0
23952,note_on,0,0,3,,,,,,,,0,,,44,0
23952,note_on,192,0,3,,,,,,,,0,,,59,0
23952,note_on,0,0,3,,,,,,,,0,,,38,0
23962,set_tempo,63,1,0,,,,,,383632,,,,,,
23976,note_on,0,0,2,,,,,,,,0,,,62,0
23976,note_on,96,0,2,,,,,,,,0,,,50,0
24000,note_on,0,0,3,,,,,,,,0,,,60,80
24000,note_on,0,0,3,,,,,,,,0,,,48,80
24000,note_on,0,0,3,,,,,,,,0,,,38,80
24000,note_on,24,0,2,,,,,,,,0,,,62,80
24000,note_on,0,0,3,,,,,,,,0,,,54,80
24000,note_on,0,0,2,,,,,,,,0,,,50,80
24000,note_on,48,0,3,,,,,,,,0,,,45,80
24000,control_change,0,0,3,,,,,,,,0,64,0,,
24096,note_on,0,0,2,,,,,,,,0,,,62,0
24096,note_on,96,0,2,,,,,,,,0,,,50,0
24120,note_on,0,0,2,,,,,,,,0,,,50,80
24120,note_on,24,0,2,,,,,,,,0,,,62,80
24216,note_on,96,0,2,,,,,,,,0,,,50,0
24216,note_on,0,0,2,,,,,,,,0,,,62,0
24220,control_change,220,0,3,,,,,,,,0,64,127,,
24240,note_on,24,0,2,,,,,,,,0,,,62,80
24240,note_on,0,0,2,,,,,,,,0,,,50,80
24336,note_on,0,0,2,,,,,,,,0,,,62,0
24336,note_on,96,0,2,,,,,,,,0,,,50,0
24360,note_on,24,0,2,,,,,,,,0,,,62,80
24360,note_on,0,0,2,,,,,,,,0,,,50,80
24384,note_on,164,0,3,,,,,,,,0,,,38,0
24456,note_on,96,0,2,,,,,,,,0,,,50,0
24456,note_on,0,0,2,,,,,,,,0,,,62,0
24480,note_on,24,0,2,,,,,,,,0,,,51,80
24480,note_on,96,0,3,,,,,,,,0,,,39,80
24480,note_on,0,0,2,,,,,,,,0,,,63,80
24480,set_tempo,518,1,0,,,,,,386598,,,,,,
24505,set_tempo,25,1,0,,,,,,388098,,,,,,
24524,set_tempo,19,1,0,,,,,,389610,,,,,,
24543,set_tempo,19,1,0,,,,,,391134,,,,,,
24562,set_tempo,19,1,0,,,,,,392670,,,,,,
24576,note_on,96,0,2,,,,,,,,0,,,63,0
24576,note_on,0,0,2,,,,,,,,0,,,51,0
24581,set_tempo,19,1,0,,,,,,394218,,,,,,
24600,note_on,24,0,2,,,,,,,,0,,,63,80
24600,note_on,0,0,2,,,,,,,,0,,,51,80
24600,set_tempo,19,1,0,,,,,,395778,,,,,,
24619,set_tempo,19,1,0,,,,,,397351,,,,,,
24644,set_tempo,25,1,0,,,,,,398936,,,,,,
24663,set_tempo,19,1,0,,,,,,400534,,,,,,
24682,set_tempo,19,1,0,,,,,,402145,,,,,,
24696,note_on,96,0,2,,,,,,,,0,,,51,0
24696,note_on,0,0,2,,,,,,,,0,,,63,0
24701,set_tempo,19,1,0,,,,,,403769,,,,,,
24720,note_on,0,0,2,,,,,,,,0,,,63,80
24720,note_on,24,0,2,,,,,,,,0,,,51,80
24720,set_tempo,19,1,0,,,,,,405405,,,,,,
24739,set_tempo,19,1,0,,,,,,407056,,,,,,
24757,set_tempo,18,1,0,,,,,,408719,,,,,,
24776,set_tempo,19,1,0,,,,,,410397,,,,,,
24802,set_tempo,26,1,0,,,,,,412088,,,,,,
24816,note_on,0,0,2,,,,,,,,0,,,51,0
24816,note_on,96,0,2,,,,,,,,0,,,63,0
24821,set_tempo,19,1,0,,,,,,413793,,,,,,
24840,set_tempo,19,1,0,,,,,,415512,,,,,,
24840,note_on,24,0,2,,,,,,,,0,,,63,80
24840,note_on,0,0,2,,,,,,,,0,,,51,80
24859,set_tempo,19,1,0,,,,,,417246,,,,,,
24864,note_on,0,0,3,,,,,,,,0,,,60,0
24864,note_on,0,0,3,,,,,,,,0,,,54,0
24864,note_on,384,0,3,,,,,,,,0,,,48,0
24864,note_on,0,0,3,,,,,,,,0,,,45,0
24877,set_tempo,18,1,0,,,,,,418994,,,,,,
24896,set_tempo,19,1,0,,,,,,420757,,,,,,
24915,set_tempo,19,1,0,,,,,,422535,,,,,,
24934,set_tempo,19,1,0,,,,,,424328,,,,,,
24936,note_on,0,0,2,,,,,,,,0,,,63,0
24936,note_on,96,0,2,,,,,,,,0,,,51,0
24960,note_on,96,0,3,,,,,,,,0,,,61,80
24960,note_on,0,0,2,,,,,,,,0,,,51,80
24960,note_on,24,0,2,,,,,,,,0,,,63,80
24960,note_on,0,0,3,,,,,,,,0,,,46,80
24960,note_on,0,0,3,,,,,,,,0,,,49,80
24960,note_on,0,0,3,,,,,,,,0,,,55,80
24960,control_change,0,0,3,,,,,,,,0,64,0,,
25056,note_on,96,0,2,,,,,,,,0,,,51,0
25056,note_on,0,0,2,,,,,,,,0,,,63,0
25080,note_on,0,0,2,,,,,,,,0,,,63,80
25080,note_on,24,0,2,,,,,,,,0,,,51,80
25152,note_on,192,0,3,,,,,,,,0,,,39,0
25176,note_on,96,0,2,,,,,,,,0,,,63,0
25176,note_on,0,0,2,,,,,,,,0,,,51,0
25200,note_on,24,0,2,,,,,,,,0,,,64,80
25200,control_change,48,0,3,,,,,,,,0,64,127,,
25200,note_on,0,0,3,,,,,,,,0,,,40,80
25200,note_on,0,0,2,,,,,,,,0,,,52,80
25296,note_on,96,0,2,,,,,,,,0,,,52,0
25296,note_on,0,0,2,,,,,,,,0,,,64,0
25320,note_on,24,0,2,,,,,,,,0,,,52,80
25320,note_on,0,0,2,,,,,,,,0,,,64,80
25416,note_on,96,0,2,,,,,,,,0,,,64,0
25416,note_on,0,0,2,,,,,,,,0,,,52,0
25440,note_on,24,0,2,,,,,,,,0,,,64,80
25440,note_on,0,0,2,,,,,,,,0,,,52,80
25536,note_on,96,0,2,,,,,,,,0,,,52,0
25536,note_on,0,0,2,,,,,,,,0,,,64,0
25560,note_on,0,0,2,,,,,,,,0,,,52,80
25560,note_on,24,0,2,,,,,,,,0,,,64,80
25656,note_on,0,0,2,,,,,,,,0,,,64,0
25656,note_on,96,0,2,,,,,,,,0,,,52,0
25680,note_on,0,0,2,,,,,,,,0,,,52,80
25680,note_on,24,0,2,,,,,,,,0,,,64,80
25776,note_on,96,0,2,,,,,,,,0,,,52,0
25776,note_on,576,0,3,,,,,,,,0,,,40,0
25776,note_on,0,0,2,,,,,,,,0,,,64,0
25800,note_on,0,0,2,,,,,,,,0,,,64,80
25800,note_on,24,0,2,,,,,,,,0,,,52,80
25896,note_on,0,0,2,,,,,,,,0,,,52,0
25896,note_on,96,0,2,,,,,,,,0,,,64,0
25909,set_tempo,975,1,0,,,,,,422535,,,,,,
25920,control_change,144,0,3,,,,,,,,0,64,0,,
25920,note_on,24,0,2,,,,,,,,0,,,63,80
25920,note_on,0,0,3,,,,,,,,0,,,39,80
25920,note_on,0,0,2,,,,,,,,0,,,51,80
25928,set_tempo,19,1,0,,,,,,424328,,,,,,
25947,set_tempo,19,1,0,,,,,,426136,,,,,,
25966,set_tempo,19,1,0,,,,,,427960,,,,,,
25978,set_tempo,12,1,0,,,,,,429799,,,,,,
25989,control_change,69,0,3,,,,,,,,0,64,127,,
25997,set_tempo,19,1,0,,,,,,431655,,,,,,
26016,set_tempo,19,1,0,,,,,,433526,,,,,,
26016,note_on,0,0,2,,,,,,,,0,,,63,0
26016,note_on,96,0,2,,,,,,,,0,,,51,0
26029,set_tempo,13,1,0,,,,,,435414,,,,,,
26040,note_on,0,0,2,,,,,,,,0,,,63,80
26040,note_on,24,0,2,,,,,,,,0,,,51,80
26048,set_tempo,19,1,0,,,,,,437318,,,,,,
26067,set_tempo,19,1,0,,,,,,439239,,,,,,
26079,set_tempo,12,1,0,,,,,,441176,,,,,,
26098,set_tempo,19,1,0,,,,,,443131,,,,,,
26112,note_on,0,0,3,,,,,,,,0,,,55,0
26112,note_on,0,0,3,,,,,,,,0,,,61,0
26112,note_on,0,0,3,,,,,,,,0,,,49,0
26112,note_on,123,0,3,,,,,,,,0,,,39,0
26112,note_on,0,0,3,,,,,,,,0,,,46,0
26117,set_tempo,19,1,0,,,,,,445104,,,,,,
26130,set_tempo,13,1,0,,,,,,447094,,,,,,
26136,note_on,0,0,2,,,,,,,,0,,,51,0
26136,note_on,96,0,2,,,,,,,,0,,,63,0
26149,set_tempo,19,1,0,,,,,,449102,,,,,,
26160,note_on,24,0,2,,,,,,,,0,,,50,80
26160,note_on,0,0,3,,,,,,,,0,,,46,80
26160,note_on,0,0,3,,,,,,,,0,,,43,80
26160,note_on,0,0,3,,,,,,,,0,,,38,80
26160,note_on,0,0,2,,,,,,,,0,,,62,80
26160,note_on,48,0,3,,,,,,,,0,,,55,80
26168,set_tempo,19,1,0,,,,,,451128,,,,,,
26180,set_tempo,12,1,0,,,,,,453172,,,,,,
26199,set_tempo,19,1,0,,,,,,455235,,,,,,
26218,set_tempo,19,1,0,,,,,,457317,,,,,,
26231,set_tempo,13,1,0,,,,,,459418,,,,,,
26250,set_tempo,19,1,0,,,,,,461538,,,,,,
26256,note_on,96,0,2,,,,,,,,0,,,62,0
26256,note_on,0,0,2,,,,,,,,0,,,50,0
26269,set_tempo,19,1,0,,,,,,463679,,,,,,
26280,note_on,24,0,2,,,,,,,,0,,,62,80
26280,note_on,0,0,2,,,,,,,,0,,,50,80
26288,set_tempo,19,1,0,,,,,,465839,,,,,,
26300,set_tempo,12,1,0,,,,,,468019,,,,,,
26319,set_tempo,19,1,0,,,,,,470219,,,,,,
26338,set_tempo,19,1,0,,,,,,472441,,,,,,
26351,set_tempo,13,1,0,,,,,,474684,,,,,,
26352,note_on,192,0,3,,,,,,,,0,,,38,0
26370,set_tempo,19,1,0,,,,,,476948,,,,,,
26376,note_on,96,0,2,,,,,,,,0,,,50,0
26376,note_on,0,0,2,,,,,,,,0,,,62,0
26389,set_tempo,19,1,0,,,,,,479233,,,,,,
26396,control_change,44,0,3,,,,,,,,0,64,0,,
26400,note_on,4,0,3,,,,,,,,0,,,37,80
26400,note_on,24,0,2,,,,,,,,0,,,49,80
26400,note_on,0,0,2,,,,,,,,0,,,61,80
26401,set_tempo,12,1,0,,,,,,481541,,,,,,
26420,set_tempo,19,1,0,,,,,,483871,,,,,,
26439,set_tempo,19,1,0,,,,,,486224,,,,,,
26447,control_change,47,0,3,,,,,,,,0,64,127,,
26452,set_tempo,13,1,0,,,,,,488599,,,,,,
26471,set_tempo,19,1,0,,,,,,490998,,,,,,
26490,set_tempo,19,1,0,,,,,,493421,,,,,,
26502,set_tempo,12,1,0,,,,,,495868,,,,,,
26521,set_tempo,19,1,0,,,,,,498339,,,,,,
26528,note_on,0,0,2,,,,,,,,0,,,49,0
26528,note_on,128,0,2,,,,,,,,0,,,61,0
26540,set_tempo,19,1,0,,,,,,500835,,,,,,
26544,note_on,97,0,3,,,,,,,,0,,,55,0
26544,note_on,0,0,3,,,,,,,,0,,,46,0
26544,note_on,0,0,3,,,,,,,,0,,,43,0
26553,set_tempo,13,1,0,,,,,,503356,,,,,,
26560,note_on,32,0,2,,,,,,,,0,,,49,80
26560,note_on,0,0,2,,,,,,,,0,,,61,80
26572,set_tempo,19,1,0,,,,,,505902,,,,,,
26581,set_tempo,9,1,0,,,,,,498339,,,,,,
26587,set_tempo,6,1,0,,,,,,500835,,,,,,
26594,set_tempo,7,1,0,,,,,,503356,,,,,,
26600,set_tempo,6,1,0,,,,,,505902,,,,,,
26606,set_tempo,6,1,0,,,,,,508475,,,,,,
26613,set_tempo,7,1,0,,,,,,511073,,,,,,
26619,set_tempo,6,1,0,,,,,,513699,,,,,,
26625,set_tempo,6,1,0,,,,,,516351,,,,,,
26632,set_tempo,7,1,0,,,,,,521739,,,,,,
26638,set_tempo,6,1,0,,,,,,524476,,,,,,
26644,set_tempo,6,1,0,,,,,,527241,,,,,,
26650,set_tempo,6,1,0,,,,,,530035,,,,,,
26657,set_tempo,7,1,0,,,,,,532860,,,,,,
26663,set_tempo,6,1,0,,,,,,535714,,,,,,
26669,set_tempo,6,1,0,,,,,,538600,,,,,,
26676,set_tempo,7,1,0,,,,,,541516,,,,,,
26682,set_tempo,6,1,0,,,,,,547445,,,,,,
26688,set_tempo,6,1,0,,,,,,550459,,,,,,
26688,note_on,128,0,2,,,,,,,,0,,,61,0
26688,note_on,0,0,2,,,,,,,,0,,,49,0
26695,set_tempo,7,1,0,,,,,,553506,,,,,,
26701,set_tempo,6,1,0,,,,,,556586,,,,,,
26707,set_tempo,6,1,0,,,,,,559701,,,,,,
26714,set_tempo,7,1,0,,,,,,562852,,,,,,
26720,note_on,176,0,3,,,,,,,,0,,,37,0
26720,note_on,0,0,3,,,,,,,,0,,,36,80
26720,note_on,32,0,2,,,,,,,,0,,,48,80
26720,note_on,0,0,3,,,,,,,,0,,,46,80
26720,note_on,0,0,3,,,,,,,,0,,,52,80
26720,set_tempo,6,1,0,,,,,,566038,,,,,,
26720,note_on,0,0,3,,,,,,,,0,,,43,80
26720,note_on,0,0,2,,,,,,,,0,,,60,80
26726,set_tempo,6,1,0,,,,,,569260,,,,,,
26733,set_tempo,7,1,0,,,,,,575816,,,,,,
26739,set_tempo,6,1,0,,,,,,579151,,,,,,
26745,set_tempo,6,1,0,,,,,,582524,,,,,,
26752,set_tempo,7,1,0,,,,,,585938,,,,,,
26758,set_tempo,6,1,0,,,,,,589391,,,,,,
26764,set_tempo,6,1,0,,,,,,592885,,,,,,
26770,set_tempo,6,1,0,,,,,,596421,,,,,,
26777,set_tempo,7,1,0,,,,,,600000,,,,,,
26783,set_tempo,6,1,0,,,,,,607287,,,,,,
26789,set_tempo,6,1,0,,,,,,610998,,,,,,
26790,control_change,70,0,3,,,,,,,,0,64,0,,
26796,set_tempo,7,1,0,,,,,,614754,,,,,,
26802,set_tempo,6,1,0,,,,,,618557,,,,,,
26808,set_tempo,6,1,0,,,,,,622407,,,,,,
26815,set_tempo,7,1,0,,,,,,626305,,,,,,
26821,set_tempo,6,1,0,,,,,,630252,,,,,,
26827,set_tempo,6,1,0,,,,,,634249,,,,,,
26834,set_tempo,7,1,0,,,,,,642398,,,,,,
26840,set_tempo,6,1,0,,,,,,646552,,,,,,
26846,set_tempo,6,1,0,,,,,,650759,,,,,,
26848,note_on,0,0,2,,,,,,,,0,,,48,0
26848,note_on,128,0,2,,,,,,,,0,,,60,0
26853,set_tempo,7,1,0,,,,,,655022,,,,,,
26859,set_tempo,6,1,0,,,,,,659341,,,,,,
26865,set_tempo,6,1,0,,,,,,663717,,,,,,
26872,set_tempo,7,1,0,,,,,,668151,,,,,,
26878,set_tempo,6,1,0,,,,,,672646,,,,,,
26880,note_on,0,0,3,,,,,,,,0,,,36,80
26880,note_on,0,0,2,,,,,,,,0,,,48,80
26880,note_on,32,0,2,,,,,,,,0,,,60,80
26880,note_on,90,0,3,,,,,,,,0,,,36,0
26884,set_tempo,6,1,0,,,,,,681818,,,,,,
26890,set_tempo,6,1,0,,,,,,686499,,,,,,
26897,set_tempo,7,1,0,,,,,,691244,,,,,,
26903,set_tempo,6,1,0,,,,,,696056,,,,,,
26909,set_tempo,6,1,0,,,,,,700935,,,,,,
26916,set_tempo,7,1,0,,,,,,705882,,,,,,
26922,set_tempo,6,1,0,,,,,,710900,,,,,,
26928,set_tempo,6,1,0,,,,,,721154,,,,,,
27008,note_on,0,0,2,,,,,,,,0,,,60,0
27008,note_on,128,0,2,,,,,,,,0,,,48,0
27040,note_on,160,0,3,,,,,,,,0,,,36,0
27040,note_on,0,0,3,,,,,,,,0,,,35,80
27040,note_on,32,0,2,,,,,,,,0,,,47,80
27040,note_on,0,0,2,,,,,,,,0,,,59,80
27137,set_tempo,209,1,0,,,,,,715990,,,,,,
27168,note_on,128,0,2,,,,,,,,0,,,59,0
27168,note_on,0,0,2,,,,,,,,0,,,47,0
27200,note_on,32,0,2,,,,,,,,0,,,47,80
27200,note_on,0,0,2,,,,,,,,0,,,59,80
27264,note_on,0,0,3,,,,,,,,0,,,43,0
27264,note_on,224,0,3,,,,,,,,0,,,46,0
27264,note_on,0,0,3,,,,,,,,0,,,52,0
27328,note_on,128,0,2,,,,,,,,0,,,59,0
27328,note_on,0,0,2,,,,,,,,0,,,47,0
27345,set_tempo,208,1,0,,,,,,710900,,,,,,
27358,set_tempo,13,1,0,,,,,,705882,,,,,,
27360,note_on,96,0,3,,,,,,,,0,,,35,0
27370,set_tempo,12,1,0,,,,,,700935,,,,,,
27383,set_tempo,13,1,0,,,,,,696056,,,,,,
27396,set_tempo,13,1,0,,,,,,691244,,,,,,
27408,set_tempo,12,1,0,,,,,,686499,,,,,,
27421,set_tempo,13,1,0,,,,,,681818,,,,,,
27434,set_tempo,13,1,0,,,,,,677201,,,,,,
27446,set_tempo,12,1,0,,,,,,672646,,,,,,
27459,set_tempo,13,1,0,,,,,,668151,,,,,,
27472,set_tempo,13,1,0,,,,,,663717,,,,,,
27484,set_tempo,12,1,0,,,,,,659341,,,,,,
27497,set_tempo,13,1,0,,,,,,655022,,,,,,
27509,set_tempo,12,1,0,,,,,,650759,,,,,,
27522,set_tempo,13,1,0,,,,,,646552,,,,,,
27535,set_tempo,13,1,0,,,,,,642398,,,,,,
27547,set_tempo,12,1,0,,,,,,638298,,,,,,
27560,set_tempo,13,1,0,,,,,,634249,,,,,,
27573,set_tempo,13,1,0,,,,,,630252,,,,,,
27585,set_tempo,12,1,0,,,,,,626305,,,,,,
27592,set_tempo,7,1,0,,,,,,622407,,,,,,
27604,set_tempo,12,1,0,,,,,,618557,,,,,,
27617,set_tempo,13,1,0,,,,,,614754,,,,,,
27629,set_tempo,12,1,0,,,,,,610998,,,,,,
27642,set_tempo,13,1,0,,,,,,607287,,,,,,
27655,set_tempo,13,1,0,,,,,,603622,,,,,,
27667,set_tempo,12,1,0,,,,,,600000,,,,,,
27680,set_tempo,13,1,0,,,,,,596421,,,,,,
27693,set_tempo,13,1,0,,,,,,592885,,,,,,
27705,set_tempo,12,1,0,,,,,,589391,,,,,,
27718,set_tempo,13,1,0,,,,,,585938,,,,,,
27730,set_tempo,12,1,0,,,,,,582524,,,,,,
27743,set_tempo,13,1,0,,,,,,579151,,,,,,
27756,set_tempo,13,1,0,,,,,,575816,,,,,,
27768,set_tempo,12,1,0,,,,,,572519,,,,,,
27781,set_tempo,13,1,0,,,,,,569260,,,,,,
27794,set_tempo,13,1,0,,,,,,566038,,,,,,
27806,set_tempo,12,1,0,,,,,,562852,,,,,,
27819,set_tempo,13,1,0,,,,,,559701,,,,,,
27832,set_tempo,13,1,0,,,,,,556586,,,,,,
27838,set_tempo,6,1,0,,,,,,553506,,,,,,
27840,note_on,512,0,2,,,,,,,,0,,,46,80
27840,note_on,0,0,2,,,,,,,,0,,,58,80
28080,note_on,0,0,3,,,,,,,,0,,,55,64
28080,note_on,0,0,3,,,,,,,,0,,,34,64
28080,note_on,0,0,3,,,,,,,,0,,,63,64
28080,note_on,720,0,3,,,,,,,,0,,,67,64
28176,note_on,0,0,3,,,,,,,,0,,,63,0
28176,note_on,96,0,3,,,,,,,,0,,,34,0
28176,note_on,0,0,3,,,,,,,,0,,,55,0
28176,note_on,0,0,3,,,,,,,,0,,,67,0
28320,note_on,480,0,2,,,,,,,,0,,,58,0
28320,note_on,0,0,2,,,,,,,,0,,,46,0
28320,note_on,0,0,2,,,,,,,,0,,,58,80
28320,note_on,0,0,2,,,,,,,,0,,,46,80
28560,note_on,0,0,3,,,,,,,,0,,,62,64
28560,note_on,384,0,3,,,,,,,,0,,,56,64
28560,note_on,0,0,3,,,,,,,,0,,,34,64
28560,note_on,0,0,3,,,,,,,,0,,,65,64
28656,note_on,0,0,3,,,,,,,,0,,,56,0
28656,note_on,96,0,3,,,,,,,,0,,,34,0
28656,note_on,0,0,3,,,,,,,,0,,,62,0
28656,note_on,0,0,3,,,,,,,,0,,,65,0
28800,note_on,480,0,2,,,,,,,,0,,,58,0
28800,note_on,0,0,2,,,,,,,,0,,,46,0
28800,note_on,0,0,2,,,,,,,,0,,,46,80
28800,note_on,0,0,2,,,,,,,,0,,,58,80
29040,note_on,0,0,3,,,,,,,,0,,,55,64
29040,note_on,0,0,3,,,,,,,,0,,,67,64
29040,note_on,384,0,3,,,,,,,,0,,,34,64
29040,note_on,0,0,3,,,,,,,,0,,,63,64
29136,note_on,0,0,3,,,,,,,,0,,,55,0
29136,note_on,96,0,3,,,,,,,,0,,,63,0
29136,note_on,0,0,3,,,,,,,,0,,,67,0
29136,note_on,0,0,3,,,,,,,,0,,,34,0
29280,note_on,0,0,2,,,,,,,,0,,,58,0
29280,note_on,480,0,2,,,,,,,,0,,,46,0
29460,note_on,0,0,2,,,,,,,,0,,,43,80
29460,note_on,180,0,2,,,,,,,,0,,,55,80
29520,note_on,0,0,2,,,,,,,,0,,,56,80
29520,note_on,0,0,2,,,,,,,,0,,,44,80
29520,note_on,60,0,2,,,,,,,,0,,,43,0
29520,note_on,0,0,2,,,,,,,,0,,,55,0
29628,note_on,0,0,2,,,,,,,,0,,,44,0
29628,note_on,108,0,2,,,,,,,,0,,,56,0
29700,note_on,72,0,2,,,,,,,,0,,,45,80
29700,note_on,0,0,2,,,,,,,,0,,,57,80
29760,note_on,0,0,2,,,,,,,,0,,,45,0
29760,note_on,0,0,2,,,,,,,,0,,,58,80
29760,note_on,60,0,2,,,,,,,,0,,,57,0
29760,note_on,0,0,2,,,,,,,,0,,,46,80
30000,note_on,0,0,3,,,,,,,,0,,,34,72
30000,note_on,0,0,3,,,,,,,,0,,,55,72
30000,note_on,864,0,3,,,,,,,,0,,,67,72
30000,note_on,0,0,3,,,,,,,,0,,,63,72
30096,note_on,0,0,3,,,,,,,,0,,,63,0
30096,note_on,0,0,3,,,,,,,,0,,,55,0
30096,note_on,96,0,3,,,,,,,,0,,,34,0
30096,note_on,0,0,3,,,,,,,,0,,,67,0
30240,note_on,0,0,2,,,,,,,,0,,,58,80
30240,note_on,0,0,2,,,,,,,,0,,,46,80
30240,note_on,0,0,2,,,,,,,,0,,,46,0
30240,note_on,480,0,2,,,,,,,,0,,,58,0
30480,note_on,0,0,3,,,,,,,,0,,,65,72
30480,note_on,384,0,3,,,,,,,,0,,,62,72
30480,note_on,0,0,3,,,,,,,,0,,,56,72
30480,note_on,0,0,3,,,,,,,,0,,,34,72
30576,note_on,0,0,3,,,,,,,,0,,,62,0
30576,note_on,0,0,3,,,,,,,,0,,,34,0
30576,note_on,96,0,3,,,,,,,,0,,,65,0
30576,note_on,0,0,3,,,,,,,,0,,,56,0
30720,note_on,480,0,2,,,,,,,,0,,,46,0
30720,note_on,0,0,2,,,,,,,,0,,,58,80
30720,note_on,0,0,2,,,,,,,,0,,,58,0
30720,note_on,0,0,2,,,,,,,,0,,,46,80
30960,note_on,0,0,3,,,,,,,,0,,,70,72
30960,note_on,0,0,3,,,,,,,,0,,,55,72
30960,note_on,384,0,3,,,,,,,,0,,,63,72
30960,note_on,0,0,3,,,,,,,,0,,,34,72
31056,note_on,0,0,3,,,,,,,,0,,,63,0
31056,note_on,96,0,3,,,,,,,,0,,,55,0
31056,note_on,0,0,3,,,,,,,,0,,,34,0
31056,note_on,0,0,3,,,,,,,,0,,,70,0
31200,note_on,480,0,2,,,,,,,,0,,,46,0
31200,note_on,0,0,2,,,,,,,,0,,,58,0
31380,note_on,180,0,2,,,,,,,,0,,,58,80
31380,note_on,0,0,2,,,,,,,,0,,,46,80
31440,note_on,0,0,2,,,,,,,,0,,,59,80
31440,note_on,0,0,2,,,,,,,,0,,,58,0
31440,note_on,0,0,2,,,,,,,,0,,,47,80
31440,note_on,60,0,2,,,,,,,,0,,,46,0
31548,note_on,0,0,2,,,,,,,,0,,,59,0
31548,note_on,108,0,2,,,,,,,,0,,,47,0
31620,note_on,0,0,2,,,,,,,,0,,,60,80
31620,note_on,72,0,2,,,,,,,,0,,,48,80
31680,note_on,0,0,2,,,,,,,,0,,,48,0
31680,note_on,0,0,2,,,,,,,,0,,,61,80
31680,note_on,0,0,2,,,,,,,,0,,,49,80
31680,note_on,60,0,2,,,,,,,,0,,,60,0
31920,note_on,864,0,3,,,,,,,,0,,,66,80
31920,note_on,0,0,3,,,,,,,,0,,,37,80
31920,note_on,0,0,3,,,,,,,,0,,,70,80
31920,note_on,0,0,3,,,,,,,,0,,,58,80
32016,note_on,0,0,3,,,,,,,,0,,,70,0
32016,note_on,96,0,3,,,,,,,,0,,,37,0
32016,note_on,0,0,3,,,,,,,,0,,,66,0
32016,note_on,0,0,3,,,,,,,,0,,,58,0
32064,note_on,0,0,2,,,,,,,,0,,,49,0
32064,note_on,384,0,2,,,,,,,,0,,,61,0
32160,note_on,0,0,2,,,,,,,,0,,,61,80
32160,note_on,96,0,2,,,,,,,,0,,,49,80
32400,note_on,0,0,3,,,,,,,,0,,,68,80
32400,note_on,384,0,3,,,,,,,,0,,,37,80
32400,note_on,0,0,3,,,,,,,,0,,,59,80
32400,note_on,0,0,3,,,,,,,,0,,,65,80
32496,note_on,0,0,3,,,,,,,,0,,,68,0
32496,note_on,0,0,3,,,,,,,,0,,,37,0
32496,note_on,0,0,3,,,,,,,,0,,,59,0
32496,note_on,96,0,3,,,,,,,,0,,,65,0
32544,note_on,384,0,2,,,,,,,,0,,,61,0
32544,note_on,0,0,2,,,,,,,,0,,,49,0
32640,note_on,0,0,2,,,,,,,,0,,,49,80
32640,note_on,96,0,2,,,,,,,,0,,,61,80
32880,note_on,384,0,3,,,,,,,,0,,,42,80
32880,note_on,0,0,3,,,,,,,,0,,,58,80
32880,note_on,0,0,3,,,,,,,,0,,,66,80
32880,note_on,0,0,3,,,,,,,,0,,,70,80
32976,note_on,96,0,3,,,,,,,,0,,,58,0
32976,note_on,0,0,3,,,,,,,,0,,,42,0
32976,note_on,0,0,3,,,,,,,,0,,,66,0
32976,note_on,0,0,3,,,,,,,,0,,,70,0
33024,note_on,0,0,2,,,,,,,,0,,,61,0
33024,note_on,384,0,2,,,,,,,,0,,,49,0
33300,note_on,276,0,2,,,,,,,,0,,,61,80
33300,note_on,0,0,2,,,,,,,,0,,,49,80
33348,note_on,48,0,2,,,,,,,,0,,,49,0
33348,note_on,0,0,2,,,,,,,,0,,,61,0
33360,note_on,0,0,2,,,,,,,,0,,,66,80
33360,note_on,12,0,2,,,,,,,,0,,,54,80
33468,note_on,108,0,2,,,,,,,,0,,,66,0
33468,note_on,0,0,2,,,,,,,,0,,,54,0
33540,note_on,0,0,2,,,,,,,,0,,,52,80
33540,note_on,72,0,2,,,,,,,,0,,,64,80
33588,note_on,0,0,2,,,,,,,,0,,,64,0
33588,note_on,48,0,2,,,,,,,,0,,,52,0
33600,note_on,0,0,2,,,,,,,,0,,,53,80
33600,note_on,12,0,2,,,,,,,,0,,,65,80
33840,note_on,0,0,3,,,,,,,,0,,,41,80
33840,note_on,0,0,3,,,,,,,,0,,,70,80
33840,note_on,0,0,3,,,,,,,,0,,,74,80
33840,note_on,864,0,3,,,,,,,,0,,,62,80
33936,note_on,0,0,3,,,,,,,,0,,,41,0
33936,note_on,96,0,3,,,,,,,,0,,,74,0
33936,note_on,0,0,3,,,,,,,,0,,,62,0
33936,note_on,0,0,3,,,,,,,,0,,,70,0
33984,note_on,384,0,2,,,,,,,,0,,,53,0
33984,note_on,0,0,2,,,,,,,,0,,,65,0
34080,note_on,96,0,2,,,,,,,,0,,,65,80
34080,note_on,0,0,2,,,,,,,,0,,,53,80
34320,note_on,0,0,3,,,,,,,,0,,,69,80
34320,note_on,0,0,3,,,,,,,,0,,,63,80
34320,note_on,384,0,3,,,,,,,,0,,,72,80
34320,note_on,0,0,3,,,,,,,,0,,,41,80
34416,note_on,0,0,2,,,,,,,,0,,,65,0
34416,note_on,0,0,3,,,,,,,,0,,,72,0
34416,note_on,96,0,3,,,,,,,,0,,,41,0
34416,note_on,336,0,2,,,,,,,,0,,,53,0
34416,note_on,0,0,3,,,,,,,,0,,,69,0
34416,note_on,0,0,3,,,,,,,,0,,,63,0
34500,note_on,0,0,2,,,,,,,,0,,,53,80
34500,note_on,84,0,2,,,,,,,,0,,,65,80
34548,note_on,0,0,2,,,,,,,,0,,,65,0
34548,note_on,48,0,2,,,,,,,,0,,,53,0
34560,note_on,12,0,2,,,,,,,,0,,,59,80
34560,note_on,0,0,2,,,,,,,,0,,,71,80
34800,note_on,0,0,3,,,,,,,,0,,,63,80
34800,note_on,0,0,3,,,,,,,,0,,,68,80
34800,note_on,384,0,3,,,,,,,,0,,,34,80
34800,note_on,0,0,3,,,,,,,,0,,,77,80
34800,control_change,0,0,3,,,,,,,,0,64,127,,
34992,note_on,192,0,3,,,,,,,,0,,,77,0
34992,note_on,0,0,3,,,,,,,,0,,,34,0
34992,note_on,0,0,3,,,,,,,,0,,,63,0
34992,note_on,0,0,3,,,,,,,,0,,,68,0
35136,note_on,0,0,2,,,,,,,,0,,,59,0
35136,note_on,576,0,2,,,,,,,,0,,,71,0
35160,note_on,0,0,2,,,,,,,,0,,,63,80
35160,note_on,0,0,2,,,,,,,,0,,,59,80
35160,note_on,24,0,2,,,,,,,,0,,,68,80
35256,note_on,96,0,2,,,,,,,,0,,,59,0
35256,note_on,0,0,2,,,,,,,,0,,,68,0
35256,note_on,0,0,2,,,,,,,,0,,,63,0
35280,note_on,24,0,2,,,,,,,,0,,,59,80
35280,note_on,0,0,2,,,,,,,,0,,,65,80
35280,note_on,0,0,2,,,,,,,,0,,,56,80
35376,note_on,96,0,2,,,,,,,,0,,,56,0
35376,note_on,0,0,2,,,,,,,,0,,,65,0
35376,note_on,0,0,2,,,,,,,,0,,,59,0
35400,note_on,24,0,2,,,,,,,,0,,,56,80
35400,note_on,0,0,2,,,,,,,,0,,,63,80
35400,note_on,0,0,2,,,,,,,,0,,,53,80
35496,note_on,0,0,2,,,,,,,,0,,,63,0
35496,note_on,96,0,2,,,,,,,,0,,,53,0
35496,note_on,0,0,2,,,,,,,,0,,,56,0
35520,note_on,0,0,2,,,,,,,,0,,,59,80
35520,note_on,24,0,2,,,,,,,,0,,,51,80
35520,note_on,0,0,2,,,,,,,,0,,,53,80
35616,note_on,0,0,2,,,,,,,,0,,,51,0
35616,note_on,0,0,2,,,,,,,,0,,,53,0
35616,note_on,96,0,2,,,,,,,,0,,,59,0
35640,note_on,24,0,2,,,,,,,,0,,,47,80
35640,note_on,0,0,2,,,,,,,,0,,,51,80
35640,note_on,0,0,2,,,,,,,,0,,,56,80
35736,note_on,96,0,2,,,,,,,,0,,,56,0
35736,note_on,0,0,2,,,,,,,,0,,,47,0
35736,note_on,0,0,2,,,,,,,,0,,,51,0
35760,note_on,0,0,2,,,,,,,,0,,,44,80
35760,note_on,0,0,2,,,,,,,,0,,,53,80
35760,note_on,24,0,2,,,,,,,,0,,,47,80
35856,note_on,0,0,2,,,,,,,,0,,,47,0
35856,note_on,0,0,2,,,,,,,,0,,,53,0
35856,note_on,96,0,2,,,,,,,,0,,,44,0
35873,control_change,881,0,3,,,,,,,,0,64,0,,
35880,note_on,0,0,2,,,,,,,,0,,,51,80
35880,note_on,24,0,2,,,,,,,,0,,,41,80
35880,note_on,0,0,2,,,,,,,,0,,,44,80
35928,note_on,48,0,2,,,,,,,,0,,,51,0
35940,note_on,12,0,2,,,,,,,,0,,,50,80
35956,note_on,0,0,2,,,,,,,,0,,,41,0
35956,note_on,0,0,2,,,,,,,,0,,,44,0
35956,note_on,16,0,2,,,,,,,,0,,,50,0
35960,note_on,4,0,2,,,,,,,,0,,,51,80
35976,note_on,16,0,2,,,,,,,,0,,,51,0
35980,note_on,4,0,2,,,,,,,,0,,,53,80
35996,note_on,16,0,2,,,,,,,,0,,,53,0
36000,note_on,4,0,2,,,,,,,,0,,,51,80
36240,note_on,0,0,3,,,,,,,,0,,,34,80
36240,note_on,367,0,3,,,,,,,,0,,,83,80
36240,note_on,0,0,3,,,,,,,,0,,,77,80
36240,note_on,0,0,3,,,,,,,,0,,,68,80
36336,note_on,0,0,3,,,,,,,,0,,,83,0
36336,note_on,96,0,3,,,,,,,,0,,,34,0
36336,note_on,0,0,3,,,,,,,,0,,,77,0
36336,note_on,0,0,3,,,,,,,,0,,,68,0
36384,note_on,384,0,2,,,,,,,,0,,,51,0
36480,note_on,96,0,2,,,,,,,,0,,,50,80
36672,note_on,192,0,2,,,,,,,,0,,,50,0
36720,note_on,0,0,3,,,,,,,,0,,,68,80
36720,note_on,384,0,3,,,,,,,,0,,,82,80
36720,note_on,0,0,3,,,,,,,,0,,,34,80
36720,note_on,0,0,3,,,,,,,,0,,,77,80
36720,note_on,0,0,3,,,,,,,,0,,,70,80
36816,note_on,0,0,3,,,,,,,,0,,,82,0
36816,note_on,0,0,3,,,,,,,,0,,,77,0
36816,note_on,0,0,3,,,,,,,,0,,,70,0
36816,note_on,0,0,3,,,,,,,,0,,,68,0
36816,note_on,96,0,3,,,,,,,,0,,,34,0
36900,note_on,228,0,2,,,,,,,,0,,,46,80
36916,note_on,16,0,2,,,,,,,,0,,,46,0
36920,note_on,4,0,2,,,,,,,,0,,,47,80
36936,note_on,16,0,2,,,,,,,,0,,,47,0
36940,note_on,4,0,2,,,,,,,,0,,,49,80
36956,note_on,16,0,2,,,,,,,,0,,,49,0
36960,note_on,4,0,2,,,,,,,,0,,,47,80
37200,note_on,0,0,3,,,,,,,,0,,,75,80
37200,note_on,0,0,3,,,,,,,,0,,,34,80
37200,note_on,384,0,3,,,,,,,,0,,,80,80
37200,note_on,0,0,3,,,,,,,,0,,,89,80
37296,note_on,96,0,3,,,,,,,,0,,,34,0
37296,note_on,336,0,2,,,,,,,,0,,,47,0
37296,note_on,0,0,3,,,,,,,,0,,,89,0
37296,note_on,0,0,3,,,,,,,,0,,,80,0
37296,note_on,0,0,3,,,,,,,,0,,,75,0
37380,note_on,84,0,2,,,,,,,,0,,,46,80
37428,note_on,48,0,2,,,,,,,,0,,,46,0
37440,note_on,0,0,3,,,,,,,,0,,,34,80
37440,note_on,144,0,3,,,,,,,,0,,,74,80
37440,note_on,12,0,2,,,,,,,,0,,,46,80
37455,note_on,15,0,3,,,,,,,,0,,,80,80
37470,note_on,15,0,3,,,,,,,,0,,,82,80
37485,note_on,15,0,3,,,,,,,,0,,,94,80
37536,note_on,51,0,3,,,,,,,,0,,,34,0
37536,note_on,96,0,2,,,,,,,,0,,,46,0
37548,note_on,0,0,3,,,,,,,,0,,,80,0
37548,note_on,0,0,3,,,,,,,,0,,,74,0
37548,note_on,0,0,3,,,,,,,,0,,,94,0
37548,note_on,12,0,3,,,,,,,,0,,,82,0
37680,note_on,144,0,2,,,,,,,,0,,,34,80
37776,note_on,96,0,2,,,,,,,,0,,,34,0
37920,note_on,144,0,2,,,,,,,,0,,,58,80
38016,note_on,96,0,2,,,,,,,,0,,,58,0
38160,note_on,144,0,2,,,,,,,,0,,,46,80
38256,note_on,96,0,2,,,,,,,,0,,,46,0
38400,note_on,144,0,2,,,,,,,,0,,,70,80
38784,note_on,384,0,2,,,,,,,,0,,,70,0
38873,set_tempo,11035,1,0,,,,,,498712,,,,,,
38960,note_on,38960,0,1,,,,,,,,0,,,70,80
38960,note_on,0,0,1,,,,,,,,0,,,82,80
38960,note_on,176,0,2,,,,,,,,0,,,58,80
39024,note_on,64,0,2,,,,,,,,0,,,58,0
39024,note_on,0,0,1,,,,,,,,0,,,70,0
39024,note_on,64,0,1,,,,,,,,0,,,82,0
39040,note_on,16,0,1,,,,,,,,0,,,71,80
39040,note_on,0,0,1,,,,,,,,0,,,83,80
39040,note_on,16,0,2,,,,,,,,0,,,59,80
39104,note_on,0,0,1,,,,,,,,0,,,71,0
39104,note_on,64,0,2,,,,,,,,0,,,59,0
39104,note_on,64,0,1,,,,,,,,0,,,83,0
39120,note_on,16,0,1,,,,,,,,0,,,72,80
39120,note_on,0,0,1,,,,,,,,0,,,84,80
39120,note_on,16,0,2,,,,,,,,0,,,60,80
39122,set_tempo,249,1,0,,,,,,502849,,,,,,
39144,set_tempo,22,1,0,,,,,,507057,,,,,,
39166,set_tempo,22,1,0,,,,,,511335,,,,,,
39188,set_tempo,22,1,0,,,,,,515685,,,,,,
39195,note_on,75,0,2,,,,,,,,0,,,60,0
39195,note_on,0,0,1,,,,,,,,0,,,72,0
39195,note_on,75,0,1,,,,,,,,0,,,84,0
39200,note_on,5,0,1,,,,,,,,0,,,73,80
39200,note_on,5,0,2,,,,,,,,0,,,61,80
39200,note_on,0,0,1,,,,,,,,0,,,85,80
39209,set_tempo,21,1,0,,,,,,520111,,,,,,
39231,set_tempo,22,1,0,,,,,,524613,,,,,,
39253,set_tempo,22,1,0,,,,,,529194,,,,,,
39275,set_tempo,22,1,0,,,,,,533855,,,,,,
39275,note_on,75,0,2,,,,,,,,0,,,61,0
39275,note_on,75,0,1,,,,,,,,0,,,85,0
39275,note_on,0,0,1,,,,,,,,0,,,73,0
39280,note_on,0,0,1,,,,,,,,0,,,86,80
39280,note_on,5,0,2,,,,,,,,0,,,62,80
39280,note_on,5,0,1,,,,,,,,0,,,74,80
39297,set_tempo,22,1,0,,,,,,538600,,,,,,
39318,set_tempo,21,1,0,,,,,,543429,,,,,,
39340,set_tempo,22,1,0,,,,,,548346,,,,,,
39355,note_on,75,0,1,,,,,,,,0,,,86,0
39355,note_on,75,0,2,,,,,,,,0,,,62,0
39355,note_on,0,0,1,,,,,,,,0,,,74,0
39360,note_on,5,0,2,,,,,,,,0,,,63,80
39360,note_on,0,0,1,,,,,,,,0,,,75,80
39360,note_on,5,0,1,,,,,,,,0,,,87,80
39375,set_tempo,35,1,0,,,,,,543429,,,,,,
39600,note_on,0,0,3,,,,,,,,0,,,39,80
39600,note_on,2052,0,3,,,,,,,,0,,,58,80
39600,note_on,0,0,3,,,,,,,,0,,,55,80
39600,note_on,0,0,3,,,,,,,,0,,,51,80
39600,note_on,0,0,3,,,,,,,,0,,,46,80
39696,note_on,96,0,3,,,,,,,,0,,,46,0
39696,note_on,0,0,3,,,,,,,,0,,,39,0
39696,note_on,0,0,3,,,,,,,,0,,,51,0
39696,note_on,0,0,3,,,,,,,,0,,,58,0
39696,note_on,0,0,3,,,,,,,,0,,,55,0
39744,note_on,384,0,2,,,,,,,,0,,,63,0
39744,note_on,384,0,1,,,,,,,,0,,,75,0
39744,note_on,0,0,1,,,,,,,,0,,,87,0
39840,note_on,0,0,1,,,,,,,,0,,,75,80
39840,note_on,96,0,2,,,,,,,,0,,,63,80
39840,note_on,96,0,1,,,,,,,,0,,,87,80
40080,note_on,0,0,3,,,,,,,,0,,,56,80
40080,note_on,0,0,3,,,,,,,,0,,,51,80
40080,note_on,0,0,3,,,,,,,,0,,,47,80
40080,note_on,384,0,3,,,,,,,,0,,,59,80
40080,note_on,0,0,3,,,,,,,,0,,,44,80
40176,note_on,336,0,2,,,,,,,,0,,,63,0
40176,note_on,336,0,1,,,,,,,,0,,,75,0
40176,note_on,0,0,3,,,,,,,,0,,,47,0
40176,note_on,0,0,3,,,,,,,,0,,,51,0
40176,note_on,0,0,3,,,,,,,,0,,,59,0
40176,note_on,0,0,1,,,,,,,,0,,,87,0
40176,note_on,96,0,3,,,,,,,,0,,,56,0
40176,note_on,0,0,3,,,,,,,,0,,,44,0
40260,note_on,0,0,1,,,,,,,,0,,,87,80
40260,note_on,84,0,1,,,,,,,,0,,,75,80
40260,note_on,84,0,2,,,,,,,,0,,,63,80
40308,note_on,48,0,2,,,,,,,,0,,,63,0
40308,note_on,48,0,1,,,,,,,,0,,,87,0
40308,note_on,0,0,1,,,,,,,,0,,,75,0
40320,note_on,12,0,1,,,,,,,,0,,,75,80
40320,note_on,0,0,1,,,,,,,,0,,,87,80
40320,note_on,12,0,2,,,,,,,,0,,,63,80
40560,note_on,0,0,3,,,,,,,,0,,,51,80
40560,note_on,0,0,3,,,,,,,,0,,,39,80
40560,note_on,0,0,3,,,,,,,,0,,,46,80
40560,note_on,384,0,3,,,,,,,,0,,,55,80
40560,note_on,0,0,3,,,,,,,,0,,,58,80
40656,note_on,0,0,3,,,,,,,,0,,,51,0
40656,note_on,96,0,3,,,,,,,,0,,,46,0
40656,note_on,0,0,3,,,,,,,,0,,,58,0
40656,note_on,0,0,3,,,,,,,,0,,,55,0
40656,note_on,0,0,3,,,,,,,,0,,,39,0
40704,note_on,384,0,2,,,,,,,,0,,,63,0
40704,note_on,384,0,1,,,,,,,,0,,,87,0
40704,note_on,0,0,1,,,,,,,,0,,,75,0
40791,set_tempo,1416,1,0,,,,,,553506,,,,,,
40799,set_tempo,8,1,0,,,,,,455235,,,,,,
40812,set_tempo,13,1,0,,,,,,457317,,,,,,
40825,set_tempo,13,1,0,,,,,,459418,,,,,,
40837,set_tempo,12,1,0,,,,,,461538,,,,,,
40850,set_tempo,13,1,0,,,,,,463679,,,,,,
40863,set_tempo,13,1,0,,,,,,465839,,,,,,
40875,set_tempo,12,1,0,,,,,,468019,,,,,,
40880,note_on,0,0,1,,,,,,,,0,,,86,80
40880,note_on,176,0,2,,,,,,,,0,,,62,80
40880,note_on,176,0,1,,,,,,,,0,,,74,80
40888,set_tempo,13,1,0,,,,,,470219,,,,,,
40900,set_tempo,12,1,0,,,,,,472441,,,,,,
40913,set_tempo,13,1,0,,,,,,474684,,,,,,
40926,set_tempo,13,1,0,,,,,,476948,,,,,,
40938,set_tempo,12,1,0,,,,,,479233,,,,,,
40944,note_on,64,0,1,,,,,,,,0,,,86,0
40944,note_on,0,0,1,,,,,,,,0,,,74,0
40944,note_on,64,0,2,,,,,,,,0,,,62,0
40951,set_tempo,13,1,0,,,,,,481541,,,,,,
40960,note_on,16,0,2,,,,,,,,0,,,63,80
40960,note_on,16,0,1,,,,,,,,0,,,75,80
40960,note_on,0,0,1,,,,,,,,0,,,87,80
40964,set_tempo,13,1,0,,,,,,483871,,,,,,
40976,set_tempo,12,1,0,,,,,,486224,,,,,,
40989,set_tempo,13,1,0,,,,,,488599,,,,,,
41001,set_tempo,12,1,0,,,,,,490998,,,,,,
41014,set_tempo,13,1,0,,,,,,493421,,,,,,
41024,note_on,64,0,2,,,,,,,,0,,,63,0
41024,note_on,0,0,1,,,,,,,,0,,,75,0
41024,note_on,64,0,1,,,,,,,,0,,,87,0
41027,set_tempo,13,1,0,,,,,,495868,,,,,,
41039,set_tempo,12,1,0,,,,,,498339,,,,,,
41040,note_on,0,0,1,,,,,,,,0,,,91,80
41040,note_on,16,0,2,,,,,,,,0,,,67,80
41040,note_on,16,0,1,,,,,,,,0,,,79,80
41046,set_tempo,7,1,0,,,,,,500835,,,,,,
41058,set_tempo,12,1,0,,,,,,503356,,,,,,
41071,set_tempo,13,1,0,,,,,,505902,,,,,,
41084,set_tempo,13,1,0,,,,,,508475,,,,,,
41096,set_tempo,12,1,0,,,,,,511073,,,,,,
41104,note_on,0,0,1,,,,,,,,0,,,79,0
41104,note_on,64,0,1,,,,,,,,0,,,91,0
41104,note_on,64,0,2,,,,,,,,0,,,67,0
41109,set_tempo,13,1,0,,,,,,513699,,,,,,
41120,note_on,16,0,2,,,,,,,,0,,,63,80
41120,note_on,0,0,1,,,,,,,,0,,,75,80
41120,note_on,16,0,1,,,,,,,,0,,,87,80
41121,set_tempo,12,1,0,,,,,,516351,,,,,,
41134,set_tempo,13,1,0,,,,,,519031,,,,,,
41147,set_tempo,13,1,0,,,,,,521739,,,,,,
41159,set_tempo,12,1,0,,,,,,524476,,,,,,
41172,set_tempo,13,1,0,,,,,,527241,,,,,,
41184,note_on,64,0,2,,,,,,,,0,,,63,0
41184,note_on,64,0,1,,,,,,,,0,,,75,0
41184,note_on,0,0,1,,,,,,,,0,,,87,0
41185,set_tempo,13,1,0,,,,,,530035,,,,,,
41197,set_tempo,12,1,0,,,,,,532860,,,,,,
41200,note_on,16,0,2,,,,,,,,0,,,59,80
41200,note_on,0,0,1,,,,,,,,0,,,71,80
41200,note_on,16,0,1,,,,,,,,0,,,83,80
41210,set_tempo,13,1,0,,,,,,535714,,,,,,
41223,set_tempo,13,1,0,,,,,,538600,,,,,,
41235,set_tempo,12,1,0,,,,,,541516,,,,,,
41248,set_tempo,13,1,0,,,,,,544465,,,,,,
41260,set_tempo,12,1,0,,,,,,547445,,,,,,
41264,note_on,64,0,2,,,,,,,,0,,,59,0
41264,note_on,0,0,1,,,,,,,,0,,,83,0
41264,note_on,64,0,1,,,,,,,,0,,,71,0
41273,set_tempo,13,1,0,,,,,,550459,,,,,,
41280,note_on,16,0,1,,,,,,,,0,,,82,80
41280,note_on,0,0,1,,,,,,,,0,,,70,80
41280,note_on,16,0,2,,,,,,,,0,,,58,80
41286,set_tempo,13,1,0,,,,,,553506,,,,,,
41292,set_tempo,6,1,0,,,,,,556586,,,,,,
41296,set_tempo,4,1,0,,,,,,556586,,,,,,
41520,note_on,0,0,3,,,,,,,,0,,,53,80
41520,note_on,0,0,3,,,,,,,,0,,,58,80
41520,note_on,0,0,3,,,,,,,,0,,,62,80
41520,note_on,864,0,3,,,,,,,,0,,,34,80
41520,note_on,0,0,3,,,,,,,,0,,,46,80
41616,note_on,96,0,3,,,,,,,,0,,,58,0
41616,note_on,0,0,3,,,,,,,,0,,,34,0
41616,note_on,0,0,3,,,,,,,,0,,,62,0
41616,note_on,0,0,3,,,,,,,,0,,,53,0
41616,note_on,0,0,3,,,,,,,,0,,,46,0
41664,note_on,384,0,2,,,,,,,,0,,,58,0
41664,note_on,0,0,1,,,,,,,,0,,,82,0
41664,note_on,384,0,1,,,,,,,,0,,,70,0
41760,note_on,96,0,2,,,,,,,,0,,,58,80
41760,note_on,0,0,1,,,,,,,,0,,,82,80
41760,note_on,96,0,1,,,,,,,,0,,,70,80
42000,note_on,0,0,3,,,,,,,,0,,,58,80
42000,note_on,384,0,3,,,,,,,,0,,,46,80
42000,note_on,0,0,3,,,,,,,,0,,,63,80
42000,note_on,0,0,3,,,,,,,,0,,,39,80
42000,note_on,0,0,3,,,,,,,,0,,,54,80
42096,note_on,0,0,3,,,,,,,,0,,,63,0
42096,note_on,0,0,3,,,,,,,,0,,,54,0
42096,note_on,0,0,3,,,,,,,,0,,,46,0
42096,note_on,96,0,3,,,,,,,,0,,,39,0
42096,note_on,0,0,1,,,,,,,,0,,,70,0
42096,note_on,336,0,1,,,,,,,,0,,,82,0
42096,note_on,336,0,2,,,,,,,,0,,,58,0
42096,note_on,0,0,3,,,,,,,,0,,,58,0
42180,note_on,84,0,2,,,,,,,,0,,,58,80
42180,note_on,0,0,1,,,,,,,,0,,,70,80
42180,note_on,84,0,1,,,,,,,,0,,,82,80
42228,note_on,48,0,1,,,,,,,,0,,,70,0
42228,note_on,48,0,2,,,,,,,,0,,,58,0
42228,note_on,0,0,1,,,,,,,,0,,,82,0
42240,note_on,12,0,1,,,,,,,,0,,,82,80
42240,note_on,12,0,2,,,,,,,,0,,,58,80
42240,note_on,0,0,1,,,,,,,,0,,,70,80
42480,note_on,384,0,3,,,,,,,,0,,,46,80
42480,note_on,0,0,3,,,,,,,,0,,,34,80
42480,note_on,0,0,3,,,,,,,,0,,,53,80
42480,note_on,0,0,3,,,,,,,,0,,,58,80
42480,note_on,0,0,3,,,,,,,,0,,,62,80
42576,note_on,0,0,3,,,,,,,,0,,,53,0
42576,note_on,0,0,3,,,,,,,,0,,,46,0
42576,note_on,0,0,3,,,,,,,,0,,,62,0
42576,note_on,0,0,3,,,,,,,,0,,,34,0
42576,note_on,96,0,3,,,,,,,,0,,,58,0
42624,note_on,384,0,2,,,,,,,,0,,,58,0
42624,note_on,384,0,1,,,,,,,,0,,,70,0
42624,note_on,0,0,1,,,,,,,,0,,,82,0
42661,set_tempo,1365,1,0,,,,,,559701,,,,,,
42673,set_tempo,12,1,0,,,,,,556586,,,,,,
42680,set_tempo,7,1,0,,,,,,553506,,,,,,
42692,set_tempo,12,1,0,,,,,,550459,,,,,,
42699,set_tempo,7,1,0,,,,,,547445,,,,,,
42705,set_tempo,6,1,0,,,,,,544465,,,,,,
42711,set_tempo,6,1,0,,,,,,553506,,,,,,
42724,set_tempo,13,1,0,,,,,,550459,,,,,,
42730,set_tempo,6,1,0,,,,,,547445,,,,,,
42736,set_tempo,6,1,0,,,,,,544465,,,,,,
42743,set_tempo,7,1,0,,,,,,541516,,,,,,
42749,set_tempo,6,1,0,,,,,,538600,,,,,,
42755,set_tempo,6,1,0,,,,,,535714,,,,,,
42762,set_tempo,7,1,0,,,,,,532860,,,,,,
42768,set_tempo,6,1,0,,,,,,530035,,,,,,
42774,set_tempo,6,1,0,,,,,,527241,,,,,,
42781,set_tempo,7,1,0,,,,,,524476,,,,,,
42787,set_tempo,6,1,0,,,,,,521739,,,,,,
42793,set_tempo,6,1,0,,,,,,519031,,,,,,
42800,note_on,176,0,2,,,,,,,,0,,,58,80
42800,note_on,176,0,1,,,,,,,,0,,,70,80
42800,note_on,0,0,1,,,,,,,,0,,,82,80
42806,set_tempo,13,1,0,,,,,,516351,,,,,,
42812,set_tempo,6,1,0,,,,,,513699,,,,,,
42819,set_tempo,7,1,0,,,,,,511073,,,,,,
42825,set_tempo,6,1,0,,,,,,508475,,,,,,
42831,set_tempo,6,1,0,,,,,,505902,,,,,,
42837,set_tempo,6,1,0,,,,,,503356,,,,,,
42844,set_tempo,7,1,0,,,,,,500835,,,,,,
42850,set_tempo,6,1,0,,,,,,498339,,,,,,
42856,set_tempo,6,1,0,,,,,,495868,,,,,,
42863,set_tempo,7,1,0,,,,,,493421,,,,,,
42864,note_on,64,0,2,,,,,,,,0,,,58,0
42864,note_on,64,0,1,,,,,,,,0,,,82,0
42864,note_on,0,0,1,,,,,,,,0,,,70,0
42869,set_tempo,6,1,0,,,,,,490998,,,,,,
42875,set_tempo,6,1,0,,,,,,488599,,,,,,
42880,note_on,0,0,1,,,,,,,,0,,,71,80
42880,note_on,16,0,1,,,,,,,,0,,,83,80
42880,note_on,16,0,2,,,,,,,,0,,,59,80
42888,set_tempo,13,1,0,,,,,,486224,,,,,,
42894,set_tempo,6,1,0,,,,,,483871,,,,,,
42901,set_tempo,7,1,0,,,,,,481541,,,,,,
42907,set_tempo,6,1,0,,,,,,479233,,,,,,
42913,set_tempo,6,1,0,,,,,,476948,,,,,,
42920,set_tempo,7,1,0,,,,,,474684,,,,,,
42926,set_tempo,6,1,0,,,,,,472441,,,,,,
42932,set_tempo,6,1,0,,,,,,470219,,,,,,
42939,set_tempo,7,1,0,,,,,,468019,,,,,,
42944,note_on,64,0,2,,,,,,,,0,,,59,0
42944,note_on,64,0,1,,,,,,,,0,,,71,0
42944,note_on,0,0,1,,,,,,,,0,,,83,0
42945,set_tempo,6,1,0,,,,,,465839,,,,,,
42951,set_tempo,6,1,0,,,,,,463679,,,,,,
42957,set_tempo,6,1,0,,,,,,461538,,,,,,
42960,note_on,16,0,2,,,,,,,,0,,,60,80
42960,note_on,0,0,1,,,,,,,,0,,,84,80
42960,note_on,16,0,1,,,,,,,,0,,,72,80
42964,set_tempo,7,1,0,,,,,,459418,,,,,,
42995,set_tempo,31,1,0,,,,,,461538,,,,,,
43005,note_on,45,0,2,,,,,,,,0,,,60,0
43005,note_on,0,0,1,,,,,,,,0,,,72,0
43005,note_on,45,0,1,,,,,,,,0,,,84,0
43008,note_on,3,0,2,,,,,,,,0,,,61,80
43008,note_on,0,0,1,,,,,,,,0,,,85,80
43008,note_on,3,0,1,,,,,,,,0,,,73,80
43021,set_tempo,26,1,0,,,,,,463679,,,,,,
43052,set_tempo,31,1,0,,,,,,465839,,,,,,
43053,note_on,0,0,1,,,,,,,,0,,,73,0
43053,note_on,45,0,2,,,,,,,,0,,,61,0
43053,note_on,45,0,1,,,,,,,,0,,,85,0
43056,note_on,0,0,1,,,,,,,,0,,,86,80
43056,note_on,3,0,1,,,,,,,,0,,,74,80
43056,note_on,3,0,2,,,,,,,,0,,,62,80
43077,set_tempo,25,1,0,,,,,,468019,,,,,,
43101,note_on,0,0,1,,,,,,,,0,,,74,0
43101,note_on,45,0,1,,,,,,,,0,,,86,0
43101,note_on,45,0,2,,,,,,,,0,,,62,0
43104,note_on,0,0,1,,,,,,,,0,,,75,80
43104,note_on,3,0,2,,,,,,,,0,,,63,80
43104,note_on,3,0,1,,,,,,,,0,,,87,80
43109,set_tempo,32,1,0,,,,,,470219,,,,,,
43134,set_tempo,25,1,0,,,,,,472441,,,,,,
43149,note_on,45,0,2,,,,,,,,0,,,63,0
43149,note_on,0,0,1,,,,,,,,0,,,87,0
43149,note_on,45,0,1,,,,,,,,0,,,75,0
43152,note_on,3,0,2,,,,,,,,0,,,64,80
43152,note_on,0,0,1,,,,,,,,0,,,88,80
43152,note_on,3,0,1,,,,,,,,0,,,76,80
43166,set_tempo,32,1,0,,,,,,474684,,,,,,
43184,note_on,0,0,1,,,,,,,,0,,,76,0
43184,note_on,32,0,1,,,,,,,,0,,,88,0
43184,note_on,32,0,2,,,,,,,,0,,,64,0
43191,set_tempo,25,1,0,,,,,,476948,,,,,,
43200,note_on,16,0,1,,,,,,,,0,,,89,80
43200,note_on,16,0,2,,,,,,,,0,,,65,80
43200,note_on,0,0,1,,,,,,,,0,,,77,80
43209,control_change,633,0,3,,,,,,,,0,64,127,,
43216,set_tempo,25,1,0,,,,,,553506,,,,,,
43440,note_on,0,0,3,,,,,,,,0,,,41,80
43440,note_on,231,0,3,,,,,,,,0,,,60,80
43440,note_on,0,0,3,,,,,,,,0,,,53,80
43440,note_on,0,0,3,,,,,,,,0,,,56,80
43440,note_on,0,0,3,,,,,,,,0,,,48,80
43536,note_on,96,0,3,,,,,,,,0,,,41,0
43536,note_on,0,0,3,,,,,,,,0,,,60,0
43536,note_on,0,0,3,,,,,,,,0,,,53,0
43536,note_on,0,0,3,,,,,,,,0,,,48,0
43536,note_on,0,0,3,,,,,,,,0,,,56,0
43584,note_on,384,0,1,,,,,,,,0,,,77,0
43584,note_on,0,0,1,,,,,,,,0,,,89,0
43584,note_on,384,0,2,,,,,,,,0,,,65,0
43604,control_change,68,0,3,,,,,,,,0,64,0,,
43663,control_change,59,0,3,,,,,,,,0,64,127,,
43680,note_on,0,0,1,,,,,,,,0,,,89,80
43680,note_on,96,0,1,,,,,,,,0,,,77,80
43680,note_on,96,0,2,,,,,,,,0,,,65,80
43920,note_on,0,0,3,,,,,,,,0,,,46,80
43920,note_on,0,0,3,,,,,,,,0,,,49,80
43920,note_on,0,0,3,,,,,,,,0,,,53,80
43920,note_on,0,0,3,,,,,,,,0,,,58,80
43920,note_on,257,0,3,,,,,,,,0,,,61,80
44016,note_on,96,0,3,,,,,,,,0,,,49,0
44016,note_on,0,0,1,,,,,,,,0,,,77,0
44016,note_on,0,0,3,,,,,,,,0,,,61,0
44016,note_on,0,0,3,,,,,,,,0,,,58,0
44016,note_on,0,0,3,,,,,,,,0,,,53,0
44016,note_on,336,0,2,,,,,,,,0,,,65,0
44016,note_on,0,0,3,,,,,,,,0,,,46,0
44016,note_on,336,0,1,,,,,,,,0,,,89,0
44100,control_change,84,0,3,,,,,,,,0,64,0,,
44100,note_on,0,0,1,,,,,,,,0,,,89,80
44100,note_on,84,0,2,,,,,,,,0,,,65,80
44100,note_on,84,0,1,,,,,,,,0,,,77,80
44148,note_on,0,0,1,,,,,,,,0,,,77,0
44148,note_on,48,0,1,,,,,,,,0,,,89,0
44148,note_on,48,0,2,,,,,,,,0,,,65,0
44160,note_on,12,0,1,,,,,,,,0,,,89,80
44160,control_change,60,0,3,,,,,,,,0,64,127,,
44160,note_on,12,0,2,,,,,,,,0,,,65,80
44160,note_on,0,0,1,,,,,,,,0,,,77,80
44400,note_on,240,0,3,,,,,,,,0,,,56,80
44400,note_on,0,0,3,,,,,,,,0,,,48,80
44400,note_on,0,0,3,,,,,,,,0,,,41,80
44400,note_on,0,0,3,,,,,,,,0,,,60,80
44400,note_on,0,0,3,,,,,,,,0,,,53,80
44496,note_on,96,0,3,,,,,,,,0,,,41,0
44496,note_on,0,0,3,,,,,,,,0,,,48,0
44496,note_on,0,0,3,,,,,,,,0,,,56,0
44496,note_on,0,0,3,,,,,,,,0,,,53,0
44496,note_on,0,0,3,,,,,,,,0,,,60,0
44544,note_on,384,0,1,,,,,,,,0,,,77,0
44544,note_on,384,0,2,,,,,,,,0,,,65,0
44544,note_on,0,0,1,,,,,,,,0,,,89,0
44633,set_tempo,1417,1,0,,,,,,451128,,,,,,
44646,set_tempo,13,1,0,,,,,,453172,,,,,,
44658,set_tempo,12,1,0,,,,,,455235,,,,,,
44671,set_tempo,13,1,0,,,,,,457317,,,,,,
44684,set_tempo,13,1,0,,,,,,459418,,,,,,
44696,set_tempo,12,1,0,,,,,,461538,,,,,,
44709,set_tempo,13,1,0,,,,,,463679,,,,,,
44715,set_tempo,6,1,0,,,,,,465839,,,,,,
44720,note_on,176,0,1,,,,,,,,0,,,76,80
44720,note_on,176,0,2,,,,,,,,0,,,64,80
44720,note_on,0,0,1,,,,,,,,0,,,88,80
44728,set_tempo,13,1,0,,,,,,468019,,,,,,
44740,set_tempo,12,1,0,,,,,,470219,,,,,,
44753,set_tempo,13,1,0,,,,,,472441,,,,,,
44766,set_tempo,13,1,0,,,,,,474684,,,,,,
44778,set_tempo,12,1,0,,,,,,476948,,,,,,
44784,note_on,0,0,1,,,,,,,,0,,,76,0
44784,note_on,64,0,1,,,,,,,,0,,,88,0
44784,note_on,64,0,2,,,,,,,,0,,,64,0
44786,control_change,290,0,3,,,,,,,,0,64,0,,
44791,set_tempo,13,1,0,,,,,,479233,,,,,,
44797,set_tempo,6,1,0,,,,,,481541,,,,,,
44800,note_on,16,0,2,,,,,,,,0,,,65,80
44800,note_on,0,0,1,,,,,,,,0,,,89,80
44800,note_on,16,0,1,,,,,,,,0,,,77,80
44810,set_tempo,13,1,0,,,,,,483871,,,,,,
44822,set_tempo,12,1,0,,,,,,486224,,,,,,
44835,set_tempo,13,1,0,,,,,,488599,,,,,,
44848,set_tempo,13,1,0,,,,,,490998,,,,,,
44860,set_tempo,12,1,0,,,,,,493421,,,,,,
44864,note_on,64,0,2,,,,,,,,0,,,65,0
44864,note_on,64,0,1,,,,,,,,0,,,89,0
44864,note_on,0,0,1,,,,,,,,0,,,77,0
44873,set_tempo,13,1,0,,,,,,495868,,,,,,
44879,set_tempo,6,1,0,,,,,,498339,,,,,,
44880,note_on,0,0,1,,,,,,,,0,,,80,80
44880,note_on,16,0,1,,,,,,,,0,,,92,80
44880,note_on,16,0,2,,,,,,,,0,,,68,80
44892,set_tempo,13,1,0,,,,,,500835,,,,,,
44905,set_tempo,13,1,0,,,,,,503356,,,,,,
44917,set_tempo,12,1,0,,,,,,505902,,,,,,
44930,set_tempo,13,1,0,,,,,,508475,,,,,,
44942,set_tempo,12,1,0,,,,,,511073,,,,,,
44944,note_on,64,0,2,,,,,,,,0,,,68,0
44944,note_on,0,0,1,,,,,,,,0,,,92,0
44944,note_on,64,0,1,,,,,,,,0,,,80,0
44955,set_tempo,13,1,0,,,,,,513699,,,,,,
44960,note_on,16,0,2,,,,,,,,0,,,67,80
44960,note_on,0,0,1,,,,,,,,0,,,79,80
44960,note_on,16,0,1,,,,,,,,0,,,91,80
44961,set_tempo,6,1,0,,,,,,516351,,,,,,
44974,set_tempo,13,1,0,,,,,,519031,,,,,,
44987,set_tempo,13,1,0,,,,,,521739,,,,,,
44999,set_tempo,12,1,0,,,,,,524476,,,,,,
45012,set_tempo,13,1,0,,,,,,527241,,,,,,
45024,note_on,64,0,2,,,,,,,,0,,,67,0
45024,note_on,0,0,1,,,,,,,,0,,,91,0
45024,note_on,64,0,1,,,,,,,,0,,,79,0
45025,set_tempo,13,1,0,,,,,,530035,,,,,,
45037,set_tempo,12,1,0,,,,,,532860,,,,,,
45040,note_on,0,0,1,,,,,,,,0,,,77,80
45040,note_on,16,0,1,,,,,,,,0,,,89,80
45040,note_on,16,0,2,,,,,,,,0,,,65,80
45044,set_tempo,7,1,0,,,,,,535714,,,,,,
45056,set_tempo,12,1,0,,,,,,538600,,,,,,
45069,set_tempo,13,1,0,,,,,,541516,,,,,,
45081,set_tempo,12,1,0,,,,,,544465,,,,,,
45094,set_tempo,13,1,0,,,,,,547445,,,,,,
45104,note_on,64,0,2,,,,,,,,0,,,65,0
45104,note_on,64,0,1,,,,,,,,0,,,77,0
45104,note_on,0,0,1,,,,,,,,0,,,89,0
45107,set_tempo,13,1,0,,,,,,550459,,,,,,
45113,set_tempo,6,1,0,,,,,,553506,,,,,,
45120,note_on,16,0,2,,,,,,,,0,,,63,80
45120,note_on,16,0,1,,,,,,,,0,,,75,80
45120,control_change,334,0,3,,,,,,,,0,64,127,,
45120,note_on,0,0,1,,,,,,,,0,,,87,80
45123,set_tempo,10,1,0,,,,,,559701,,,,,,
45360,note_on,0,0,3,,,,,,,,0,,,56,80
45360,note_on,0,0,3,,,,,,,,0,,,51,80
45360,note_on,0,0,3,,,,,,,,0,,,60,80
45360,note_on,240,0,3,,,,,,,,0,,,44,80
45360,note_on,0,0,3,,,,,,,,0,,,48,80
45456,note_on,0,0,3,,,,,,,,0,,,51,0
45456,note_on,0,0,3,,,,,,,,0,,,48,0
45456,note_on,0,0,3,,,,,,,,0,,,44,0
45456,note_on,0,0,3,,,,,,,,0,,,56,0
45456,note_on,96,0,3,,,,,,,,0,,,60,0
45489,control_change,33,0,3,,,,,,,,0,64,0,,
45504,note_on,384,0,2,,,,,,,,0,,,63,0
45504,note_on,384,0,1,,,,,,,,0,,,87,0
45504,note_on,0,0,1,,,,,,,,0,,,75,0
45574,control_change,85,0,3,,,,,,,,0,64,127,,
45600,note_on,96,0,1,,,,,,,,0,,,87,80
45600,note_on,96,0,2,,,,,,,,0,,,63,80
45600,note_on,0,0,1,,,,,,,,0,,,75,80
45840,note_on,0,0,3,,,,,,,,0,,,46,80
45840,note_on,0,0,3,,,,,,,,0,,,51,80
45840,note_on,0,0,3,,,,,,,,0,,,55,80
45840,note_on,266,0,3,,,,,,,,0,,,61,80
45840,note_on,0,0,3,,,,,,,,0,,,39,80
45840,note_on,0,0,3,,,,,,,,0,,,58,80
45936,note_on,0,0,3,,,,,,,,0,,,51,0
45936,note_on,0,0,1,,,,,,,,0,,,87,0
45936,note_on,336,0,1,,,,,,,,0,,,75,0
45936,note_on,0,0,3,,,,,,,,0,,,58,0
45936,note_on,96,0,3,,,,,,,,0,,,46,0
45936,note_on,0,0,3,,,,,,,,0,,,39,0
45936,note_on,0,0,3,,,,,,,,0,,,55,0
45936,note_on,0,0,3,,,,,,,,0,,,61,0
45936,note_on,336,0,2,,,,,,,,0,,,63,0
46020,note_on,84,0,1,,,,,,,,0,,,87,80
46020,note_on,0,0,1,,,,,,,,0,,,75,80
46020,note_on,84,0,2,,,,,,,,0,,,63,80
46054,control_change,118,0,3,,,,,,,,0,64,0,,
46068,note_on,48,0,1,,,,,,,,0,,,75,0
46068,note_on,0,0,1,,,,,,,,0,,,87,0
46068,note_on,48,0,2,,,,,,,,0,,,63,0
46080,note_on,0,0,1,,,,,,,,0,,,84,80
46080,control_change,26,0,3,,,,,,,,0,64,127,,
46080,note_on,12,0,2,,,,,,,,0,,,72,80
46080,note_on,12,0,1,,,,,,,,0,,,96,80
46320,note_on,0,0,3,,,,,,,,0,,,44,80
46320,note_on,0,0,3,,,,,,,,0,,,51,80
46320,note_on,0,0,3,,,,,,,,0,,,56,80
46320,note_on,0,0,3,,,,,,,,0,,,60,80
46320,note_on,240,0,3,,,,,,,,0,,,48,80
46416,note_on,0,0,3,,,,,,,,0,,,44,0
46416,note_on,0,0,3,,,,,,,,0,,,48,0
46416,note_on,0,0,3,,,,,,,,0,,,51,0
46416,note_on,0,0,3,,,,,,,,0,,,60,0
46416,note_on,96,0,3,,,,,,,,0,,,56,0
46571,set_tempo,1448,1,0,,,,,,553506,,,,,,
46572,set_tempo,1,1,0,,,,,,453172,,,,,,
46585,set_tempo,13,1,0,,,,,,455235,,,,,,
46597,set_tempo,12,1,0,,,,,,457317,,,,,,
46610,set_tempo,13,1,0,,,,,,459418,,,,,,
46622,set_tempo,12,1,0,,,,,,461538,,,,,,
46624,note_on,544,0,2,,,,,,,,0,,,72,0
46624,note_on,544,0,1,,,,,,,,0,,,84,0
46624,note_on,0,0,1,,,,,,,,0,,,96,0
46635,set_tempo,13,1,0,,,,,,463679,,,,,,
46640,note_on,0,0,1,,,,,,,,0,,,91,80
46640,note_on,16,0,1,,,,,,,,0,,,79,80
46640,note_on,16,0,2,,,,,,,,0,,,67,80
46648,set_tempo,13,1,0,,,,,,465839,,,,,,
46660,set_tempo,12,1,0,,,,,,468019,,,,,,
46667,set_tempo,7,1,0,,,,,,470219,,,,,,
46679,set_tempo,12,1,0,,,,,,472441,,,,,,
46686,control_change,270,0,3,,,,,,,,0,64,0,,
46692,set_tempo,13,1,0,,,,,,474684,,,,,,
46704,note_on,64,0,2,,,,,,,,0,,,67,0
46704,note_on,0,0,1,,,,,,,,0,,,79,0
46704,note_on,64,0,1,,,,,,,,0,,,91,0
46705,set_tempo,13,1,0,,,,,,476948,,,,,,
46717,set_tempo,12,1,0,,,,,,479233,,,,,,
46720,note_on,16,0,2,,,,,,,,0,,,68,80
46720,note_on,16,0,1,,,,,,,,0,,,80,80
46720,note_on,0,0,1,,,,,,,,0,,,92,80
46730,set_tempo,13,1,0,,,,,,481541,,,,,,
46742,set_tempo,12,1,0,,,,,,483871,,,,,,
46755,set_tempo,13,1,0,,,,,,486224,,,,,,
46761,set_tempo,6,1,0,,,,,,488599,,,,,,
46774,set_tempo,13,1,0,,,,,,490998,,,,,,
46784,note_on,64,0,2,,,,,,,,0,,,68,0
46784,note_on,0,0,1,,,,,,,,0,,,80,0
46784,note_on,64,0,1,,,,,,,,0,,,92,0
46787,set_tempo,13,1,0,,,,,,493421,,,,,,
46799,set_tempo,12,1,0,,,,,,495868,,,,,,
46800,note_on,0,0,1,,,,,,,,0,,,94,80
46800,note_on,16,0,1,,,,,,,,0,,,82,80
46800,note_on,16,0,2,,,,,,,,0,,,70,80
46812,set_tempo,13,1,0,,,,,,498339,,,,,,
46825,set_tempo,13,1,0,,,,,,500835,,,,,,
46837,set_tempo,12,1,0,,,,,,503356,,,,,,
46850,set_tempo,13,1,0,,,,,,505902,,,,,,
46856,set_tempo,6,1,0,,,,,,508475,,,,,,
46864,note_on,64,0,2,,,,,,,,0,,,70,0
46864,note_on,64,0,1,,,,,,,,0,,,94,0
46864,note_on,0,0,1,,,,,,,,0,,,82,0
46869,set_tempo,13,1,0,,,,,,511073,,,,,,
46880,note_on,16,0,1,,,,,,,,0,,,80,80
46880,note_on,0,0,1,,,,,,,,0,,,92,80
46880,note_on,16,0,2,,,,,,,,0,,,68,80
46881,set_tempo,12,1,0,,,,,,513699,,,,,,
46894,set_tempo,13,1,0,,,,,,516351,,,,,,
46907,set_tempo,13,1,0,,,,,,519031,,,,,,
46919,set_tempo,12,1,0,,,,,,521739,,,,,,
46932,set_tempo,13,1,0,,,,,,524476,,,,,,
46944,note_on,64,0,1,,,,,,,,0,,,92,0
46944,note_on,64,0,2,,,,,,,,0,,,68,0
46944,note_on,0,0,1,,,,,,,,0,,,80,0
46945,set_tempo,13,1,0,,,,,,527241,,,,,,
46951,set_tempo,6,1,0,,,,,,530035,,,,,,
46960,note_on,16,0,2,,,,,,,,0,,,65,80
46960,note_on,0,0,1,,,,,,,,0,,,89,80
46960,note_on,16,0,1,,,,,,,,0,,,77,80
46964,set_tempo,13,1,0,,,,,,532860,,,,,,
46976,set_tempo,12,1,0,,,,,,535714,,,,,,
46989,set_tempo,13,1,0,,,,,,538600,,,,,,
47001,set_tempo,12,1,0,,,,,,541516,,,,,,
47014,set_tempo,13,1,0,,,,,,544465,,,,,,
47024,note_on,64,0,1,,,,,,,,0,,,89,0
47024,note_on,64,0,2,,,,,,,,0,,,65,0
47024,note_on,0,0,1,,,,,,,,0,,,77,0
47027,set_tempo,13,1,0,,,,,,547445,,,,,,
47039,set_tempo,12,1,0,,,,,,550459,,,,,,
47040,note_on,0,0,1,,,,,,,,0,,,87,80
47040,note_on,16,0,2,,,,,,,,0,,,63,80
47040,note_on,16,0,1,,,,,,,,0,,,75,80
47040,control_change,354,0,3,,,,,,,,0,64,127,,
47046,set_tempo,7,1,0,,,,,,553506,,,,,,
47280,note_on,0,0,3,,,,,,,,0,,,56,80
47280,note_on,240,0,3,,,,,,,,0,,,60,80
47280,note_on,0,0,3,,,,,,,,0,,,51,80
47280,note_on,0,0,3,,,,,,,,0,,,48,80
47280,note_on,0,0,3,,,,,,,,0,,,44,80
47376,note_on,96,0,3,,,,,,,,0,,,44,0
47376,note_on,0,0,3,,,,,,,,0,,,56,0
47376,note_on,0,0,3,,,,,,,,0,,,60,0
47376,note_on,0,0,3,,,,,,,,0,,,51,0
47376,note_on,0,0,3,,,,,,,,0,,,48,0
47424,note_on,384,0,1,,,,,,,,0,,,87,0
47424,note_on,384,0,2,,,,,,,,0,,,63,0
47424,note_on,0,0,1,,,,,,,,0,,,75,0
47434,control_change,58,0,3,,,,,,,,0,64,0,,
47511,control_change,77,0,3,,,,,,,,0,64,127,,
47520,note_on,96,0,2,,,,,,,,0,,,63,80
47520,note_on,96,0,1,,,,,,,,0,,,75,80
47520,note_on,0,0,1,,,,,,,,0,,,87,80
47760,note_on,0,0,3,,,,,,,,0,,,46,80
47760,note_on,0,0,3,,,,,,,,0,,,61,80
47760,note_on,0,0,3,,,,,,,,0,,,39,80
47760,note_on,0,0,3,,,,,,,,0,,,55,80
47760,note_on,249,0,3,,,,,,,,0,,,58,80
47760,note_on,0,0,3,,,,,,,,0,,,51,80
47856,note_on,0,0,1,,,,,,,,0,,,75,0
47856,note_on,0,0,3,,,,,,,,0,,,39,0
47856,note_on,0,0,3,,,,,,,,0,,,46,0
47856,note_on,0,0,3,,,,,,,,0,,,55,0
47856,note_on,0,0,3,,,,,,,,0,,,61,0
47856,note_on,0,0,3,,,,,,,,0,,,58,0
47856,note_on,336,0,1,,,,,,,,0,,,87,0
47856,note_on,336,0,2,,,,,,,,0,,,63,0
47856,note_on,96,0,3,,,,,,,,0,,,51,0
47940,note_on,0,0,1,,,,,,,,0,,,87,80
47940,note_on,84,0,2,,,,,,,,0,,,63,80
47940,note_on,84,0,1,,,,,,,,0,,,75,80
47966,control_change,110,0,3,,,,,,,,0,64,0,,
47988,note_on,48,0,2,,,,,,,,0,,,63,0
47988,note_on,48,0,1,,,,,,,,0,,,87,0
47988,note_on,0,0,1,,,,,,,,0,,,75,0
48000,note_on,0,0,1,,,,,,,,0,,,96,80
48000,control_change,34,0,3,,,,,,,,0,64,127,,
48000,note_on,12,0,1,,,,,,,,0,,,84,80
48000,note_on,12,0,2,,,,,,,,0,,,72,80
48240,note_on,0,0,3,,,,,,,,0,,,39,80
48240,note_on,0,0,3,,,,,,,,0,,,44,80
48240,note_on,0,0,3,,,,,,,,0,,,48,80
48240,note_on,0,0,3,,,,,,,,0,,,51,80
48240,note_on,0,0,3,,,,,,,,0,,,32,80
48240,note_on,0,0,3,,,,,,,,0,,,60,80
48240,note_on,240,0,3,,,,,,,,0,,,56,80
48336,note_on,96,0,3,,,,,,,,0,,,51,0
48336,note_on,0,0,3,,,,,,,,0,,,32,0
48336,note_on,0,0,3,,,,,,,,0,,,48,0
48336,note_on,0,0,3,,,,,,,,0,,,56,0
48336,note_on,0,0,3,,,,,,,,0,,,44,0
48336,note_on,0,0,3,,,,,,,,0,,,39,0
48336,note_on,0,0,3,,,,,,,,0,,,60,0
48384,note_on,384,0,1,,,,,,,,0,,,96,0
48384,note_on,0,0,1,,,,,,,,0,,,84,0
48384,note_on,384,0,2,,,,,,,,0,,,72,0
48403,control_change,67,0,3,,,,,,,,0,64,0,,
48471,control_change,68,0,3,,,,,,,,0,64,127,,
48471,set_tempo,1425,1,0,,,,,,556586,,,,,,
48480,note_on,96,0,2,,,,,,,,0,,,72,80
48480,note_on,0,0,1,,,,,,,,0,,,84,80
48480,note_on,96,0,1,,,,,,,,0,,,96,80
48484,set_tempo,13,1,0,,,,,,559701,,,,,,
48496,set_tempo,12,1,0,,,,,,562852,,,,,,
48509,set_tempo,13,1,0,,,,,,566038,,,,,,
48521,set_tempo,12,1,0,,,,,,569260,,,,,,
48534,set_tempo,13,1,0,,,,,,572519,,,,,,
48547,set_tempo,13,1,0,,,,,,575816,,,,,,
48559,set_tempo,12,1,0,,,,,,579151,,,,,,
48572,set_tempo,13,1,0,,,,,,582524,,,,,,
48585,set_tempo,13,1,0,,,,,,585938,,,,,,
48597,set_tempo,12,1,0,,,,,,589391,,,,,,
48610,set_tempo,13,1,0,,,,,,592885,,,,,,
48622,set_tempo,12,1,0,,,,,,596421,,,,,,
48635,set_tempo,13,1,0,,,,,,600000,,,,,,
48648,set_tempo,13,1,0,,,,,,603622,,,,,,
48660,set_tempo,12,1,0,,,,,,607287,,,,,,
48673,set_tempo,13,1,0,,,,,,610998,,,,,,
48686,set_tempo,13,1,0,,,,,,614754,,,,,,
48695,note_on,224,0,3,,,,,,,,0,,,32,80
48698,set_tempo,12,1,0,,,,,,618557,,,,,,
48711,set_tempo,13,1,0,,,,,,622407,,,,,,
48717,set_tempo,6,1,0,,,,,,626305,,,,,,
48720,note_on,0,0,3,,,,,,,,0,,,66,80
48720,note_on,0,0,3,,,,,,,,0,,,63,80
48720,note_on,0,0,3,,,,,,,,0,,,60,80
48720,note_on,0,0,3,,,,,,,,0,,,54,80
48720,note_on,0,0,3,,,,,,,,0,,,48,80
48720,note_on,0,0,3,,,,,,,,0,,,39,80
48720,note_on,25,0,3,,,,,,,,0,,,44,80
48730,set_tempo,13,1,0,,,,,,630252,,,,,,
48742,set_tempo,12,1,0,,,,,,634249,,,,,,
48755,set_tempo,13,1,0,,,,,,638298,,,,,,
48768,set_tempo,13,1,0,,,,,,642398,,,,,,
48780,set_tempo,12,1,0,,,,,,646552,,,,,,
48791,note_on,71,0,3,,,,,,,,0,,,32,0
48793,set_tempo,13,1,0,,,,,,650759,,,,,,
48806,set_tempo,13,1,0,,,,,,655022,,,,,,
48816,note_on,336,0,2,,,,,,,,0,,,72,0
48816,note_on,25,0,3,,,,,,,,0,,,44,0
48816,note_on,0,0,3,,,,,,,,0,,,63,0
48816,note_on,336,0,1,,,,,,,,0,,,84,0
48816,note_on,0,0,3,,,,,,,,0,,,60,0
48816,note_on,0,0,3,,,,,,,,0,,,54,0
48816,note_on,0,0,3,,,,,,,,0,,,66,0
48816,note_on,0,0,3,,,,,,,,0,,,48,0
48816,note_on,0,0,3,,,,,,,,0,,,39,0
48816,note_on,0,0,1,,,,,,,,0,,,96,0
48818,set_tempo,12,1,0,,,,,,659341,,,,,,
48831,set_tempo,13,1,0,,,,,,663717,,,,,,
48844,set_tempo,13,1,0,,,,,,668151,,,,,,
48856,set_tempo,12,1,0,,,,,,672646,,,,,,
48869,set_tempo,13,1,0,,,,,,677201,,,,,,
48881,set_tempo,12,1,0,,,,,,681818,,,,,,
48894,set_tempo,13,1,0,,,,,,686499,,,,,,
48900,note_on,0,0,1,,,,,,,,0,,,96,80
48900,note_on,84,0,1,,,,,,,,0,,,84,80
48900,note_on,84,0,2,,,,,,,,0,,,72,80
48907,set_tempo,13,1,0,,,,,,691244,,,,,,
48917,control_change,101,0,3,,,,,,,,0,64,0,,
48919,set_tempo,12,1,0,,,,,,696056,,,,,,
48932,set_tempo,13,1,0,,,,,,700935,,,,,,
48945,set_tempo,13,1,0,,,,,,705882,,,,,,
48948,note_on,0,0,1,,,,,,,,0,,,84,0
48948,note_on,48,0,1,,,,,,,,0,,,96,0
48948,note_on,48,0,2,,,,,,,,0,,,72,0
48957,set_tempo,12,1,0,,,,,,715990,,,,,,
48960,note_on,0,0,1,,,,,,,,0,,,88,80
48960,note_on,12,0,1,,,,,,,,0,,,100,80
48960,control_change,43,0,3,,,,,,,,0,64,127,,
48960,note_on,12,0,2,,,,,,,,0,,,76,80
49140,note_on,180,0,3,,,,,,,,0,,,31,80
49197,set_tempo,240,1,0,,,,,,710900,,,,,,
49200,note_on,0,0,3,,,,,,,,0,,,40,80
49200,note_on,0,0,3,,,,,,,,0,,,60,80
49200,note_on,0,0,3,,,,,,,,0,,,48,80
49200,note_on,0,0,3,,,,,,,,0,,,43,80
49200,note_on,0,0,3,,,,,,,,0,,,67,80
49200,note_on,60,0,3,,,,,,,,0,,,55,80
49200,note_on,0,0,3,,,,,,,,0,,,64,80
49204,set_tempo,7,1,0,,,,,,638298,,,,,,
49216,set_tempo,12,1,0,,,,,,642398,,,,,,
49229,set_tempo,13,1,0,,,,,,646552,,,,,,
49241,set_tempo,12,1,0,,,,,,650759,,,,,,
49254,set_tempo,13,1,0,,,,,,655022,,,,,,
49267,set_tempo,13,1,0,,,,,,659341,,,,,,
49273,set_tempo,6,1,0,,,,,,663717,,,,,,
49286,set_tempo,13,1,0,,,,,,668151,,,,,,
49298,set_tempo,12,1,0,,,,,,672646,,,,,,
49311,set_tempo,13,1,0,,,,,,677201,,,,,,
49324,set_tempo,13,1,0,,,,,,681818,,,,,,
49336,set_tempo,12,1,0,,,,,,686499,,,,,,
49349,set_tempo,13,1,0,,,,,,691244,,,,,,
49355,set_tempo,6,1,0,,,,,,696056,,,,,,
49368,set_tempo,13,1,0,,,,,,700935,,,,,,
49380,set_tempo,12,1,0,,,,,,705882,,,,,,
49393,set_tempo,13,1,0,,,,,,710900,,,,,,
49406,set_tempo,13,1,0,,,,,,715990,,,,,,
49418,set_tempo,12,1,0,,,,,,721154,,,,,,
49431,set_tempo,13,1,0,,,,,,726392,,,,,,
49437,set_tempo,6,1,0,,,,,,457317,,,,,,
49456,set_tempo,19,1,0,,,,,,459418,,,,,,
49475,set_tempo,19,1,0,,,,,,461538,,,,,,
49488,note_on,528,0,1,,,,,,,,0,,,88,0
49488,note_on,528,0,2,,,,,,,,0,,,76,0
49488,note_on,0,0,1,,,,,,,,0,,,100,0
49494,set_tempo,19,1,0,,,,,,463679,,,,,,
49500,note_on,12,0,2,,,,,,,,0,,,74,80
49500,note_on,0,0,1,,,,,,,,0,,,98,80
49500,note_on,12,0,1,,,,,,,,0,,,86,80
49513,set_tempo,19,1,0,,,,,,465839,,,,,,
49532,set_tempo,19,1,0,,,,,,468019,,,,,,
49548,note_on,48,0,1,,,,,,,,0,,,98,0
49548,note_on,48,0,2,,,,,,,,0,,,74,0
49548,note_on,0,0,1,,,,,,,,0,,,86,0
49551,set_tempo,19,1,0,,,,,,470219,,,,,,
49560,note_on,12,0,1,,,,,,,,0,,,96,80
49560,note_on,0,0,1,,,,,,,,0,,,84,80
49560,note_on,12,0,2,,,,,,,,0,,,72,80
49564,set_tempo,13,1,0,,,,,,472441,,,,,,
49582,set_tempo,18,1,0,,,,,,474684,,,,,,
49601,set_tempo,19,1,0,,,,,,476948,,,,,,
49608,note_on,0,0,1,,,,,,,,0,,,96,0
49608,note_on,48,0,1,,,,,,,,0,,,84,0
49608,note_on,48,0,2,,,,,,,,0,,,72,0
49620,set_tempo,19,1,0,,,,,,479233,,,,,,
49620,note_on,12,0,1,,,,,,,,0,,,79,80
49620,note_on,12,0,2,,,,,,,,0,,,67,80
49620,note_on,0,0,1,,,,,,,,0,,,91,80
49639,set_tempo,19,1,0,,,,,,481541,,,,,,
49650,note_on,0,0,3,,,,,,,,0,,,40,0
49650,note_on,0,0,3,,,,,,,,0,,,43,0
49650,note_on,0,0,3,,,,,,,,0,,,48,0
49650,note_on,0,0,3,,,,,,,,0,,,55,0
49650,note_on,0,0,3,,,,,,,,0,,,60,0
49650,note_on,0,0,3,,,,,,,,0,,,67,0
49650,note_on,450,0,3,,,,,,,,0,,,64,0
49650,note_on,0,0,3,,,,,,,,0,,,31,0
49658,set_tempo,19,1,0,,,,,,483871,,,,,,
49668,note_on,0,0,1,,,,,,,,0,,,79,0
49668,note_on,48,0,2,,,,,,,,0,,,67,0
49668,note_on,48,0,1,,,,,,,,0,,,91,0
49677,set_tempo,19,1,0,,,,,,486224,,,,,,
49680,note_on,0,0,1,,,,,,,,0,,,76,80
49680,note_on,12,0,1,,,,,,,,0,,,88,80
49680,note_on,12,0,2,,,,,,,,0,,,64,80
49690,set_tempo,13,1,0,,,,,,488599,,,,,,
49709,set_tempo,19,1,0,,,,,,490998,,,,,,
49728,note_on,0,0,1,,,,,,,,0,,,88,0
49728,note_on,48,0,2,,,,,,,,0,,,64,0
49728,note_on,48,0,1,,,,,,,,0,,,76,0
49728,set_tempo,19,1,0,,,,,,493421,,,,,,
49740,note_on,12,0,2,,,,,,,,0,,,62,80
49740,note_on,0,0,1,,,,,,,,0,,,86,80
49740,note_on,12,0,1,,,,,,,,0,,,74,80
49747,set_tempo,19,1,0,,,,,,495868,,,,,,
49766,set_tempo,19,1,0,,,,,,498339,,,,,,
49785,set_tempo,19,1,0,,,,,,500835,,,,,,
49788,note_on,48,0,2,,,,,,,,0,,,62,0
49788,note_on,48,0,1,,,,,,,,0,,,86,0
49788,note_on,0,0,1,,,,,,,,0,,,74,0
49800,note_on,12,0,1,,,,,,,,0,,,72,80
49800,note_on,0,0,1,,,,,,,,0,,,84,80
49800,note_on,12,0,2,,,,,,,,0,,,60,80
49804,set_tempo,19,1,0,,,,,,503356,,,,,,
49816,set_tempo,12,1,0,,,,,,505902,,,,,,
49835,set_tempo,19,1,0,,,,,,508475,,,,,,
49848,note_on,0,0,1,,,,,,,,0,,,72,0
49848,note_on,48,0,2,,,,,,,,0,,,60,0
49848,note_on,48,0,1,,,,,,,,0,,,84,0
49854,set_tempo,19,1,0,,,,,,511073,,,,,,
49860,note_on,0,0,1,,,,,,,,0,,,67,80
49860,note_on,12,0,1,,,,,,,,0,,,79,80
49860,note_on,12,0,2,,,,,,,,0,,,55,80
49873,set_tempo,19,1,0,,,,,,513699,,,,,,
49892,set_tempo,19,1,0,,,,,,516351,,,,,,
49908,note_on,0,0,1,,,,,,,,0,,,79,0
49908,note_on,48,0,2,,,,,,,,0,,,55,0
49908,note_on,48,0,1,,,,,,,,0,,,67,0
49911,set_tempo,19,1,0,,,,,,519031,,,,,,
49920,note_on,12,0,2,,,,,,,,0,,,52,80
49920,note_on,0,0,1,,,,,,,,0,,,76,80
49920,note_on,12,0,1,,,,,,,,0,,,64,80
49930,set_tempo,19,1,0,,,,,,521739,,,,,,
49942,set_tempo,12,1,0,,,,,,524476,,,,,,
49961,set_tempo,19,1,0,,,,,,527241,,,,,,
49968,note_on,0,0,1,,,,,,,,0,,,64,0
49968,note_on,48,0,2,,,,,,,,0,,,52,0
49968,note_on,48,0,1,,,,,,,,0,,,76,0
49980,note_on,12,0,2,,,,,,,,0,,,50,80
49980,note_on,12,0,1,,,,,,,,0,,,74,80
49980,note_on,0,0,1,,,,,,,,0,,,62,80
49980,set_tempo,19,1,0,,,,,,530035,,,,,,
49999,set_tempo,19,1,0,,,,,,532860,,,,,,
50018,set_tempo,19,1,0,,,,,,535714,,,,,,
50028,note_on,0,0,1,,,,,,,,0,,,74,0
50028,note_on,48,0,1,,,,,,,,0,,,62,0
50028,note_on,48,0,2,,,,,,,,0,,,50,0
50037,set_tempo,19,1,0,,,,,,538600,,,,,,
50040,note_on,12,0,1,,,,,,,,0,,,72,80
50040,note_on,12,0,2,,,,,,,,0,,,48,80
50040,note_on,0,0,1,,,,,,,,0,,,60,80
50056,set_tempo,19,1,0,,,,,,541516,,,,,,
50069,set_tempo,13,1,0,,,,,,544465,,,,,,
50088,set_tempo,19,1,0,,,,,,547445,,,,,,
50088,note_on,0,0,1,,,,,,,,0,,,72,0
50088,note_on,48,0,2,,,,,,,,0,,,48,0
50088,note_on,48,0,1,,,,,,,,0,,,60,0
50100,note_on,12,0,2,,,,,,,,0,,,45,80
50100,note_on,0,0,1,,,,,,,,0,,,57,80
50100,note_on,12,0,1,,,,,,,,0,,,69,80
50107,set_tempo,19,1,0,,,,,,550459,,,,,,
50126,set_tempo,19,1,0,,,,,,553506,,,,,,
50145,set_tempo,19,1,0,,,,,,556586,,,,,,
50148,note_on,0,0,1,,,,,,,,0,,,69,0
50148,note_on,48,0,1,,,,,,,,0,,,57,0
50148,note_on,48,0,2,,,,,,,,0,,,45,0
50160,note_on,12,0,2,,,,,,,,0,,,43,80
50160,note_on,0,0,1,,,,,,,,0,,,67,80
50160,note_on,12,0,1,,,,,,,,0,,,55,80
50164,set_tempo,19,1,0,,,,,,559701,,,,,,
50168,control_change,518,0,3,,,,,,,,0,64,0,,
50176,set_tempo,12,1,0,,,,,,562852,,,,,,
50256,note_on,96,0,2,,,,,,,,0,,,43,0
50256,note_on,0,0,1,,,,,,,,0,,,55,0
50256,note_on,96,0,1,,,,,,,,0,,,67,0
50340,note_on,0,0,2,,,,,,,,0,,,38,80
50340,note_on,84,0,2,,,,,,,,0,,,31,80
50340,note_on,84,0,1,,,,,,,,0,,,67,80
50340,note_on,0,0,1,,,,,,,,0,,,71,80
50340,note_on,0,0,1,,,,,,,,0,,,65,80
50340,note_on,0,0,2,,,,,,,,0,,,43,80
50340,note_on,0,0,1,,,,,,,,0,,,79,80
50388,note_on,0,0,1,,,,,,,,0,,,65,0
50388,note_on,0,0,2,,,,,,,,0,,,31,0
50388,note_on,48,0,1,,,,,,,,0,,,79,0
50388,note_on,48,0,2,,,,,,,,0,,,38,0
50388,note_on,0,0,1,,,,,,,,0,,,71,0
50388,note_on,0,0,2,,,,,,,,0,,,43,0
50388,note_on,0,0,1,,,,,,,,0,,,67,0
50400,note_on,0,0,1,,,,,,,,0,,,67,80
50400,note_on,0,0,1,,,,,,,,0,,,64,80
50400,note_on,0,0,2,,,,,,,,0,,,36,80
50400,note_on,12,0,2,,,,,,,,0,,,40,80
50400,note_on,0,0,2,,,,,,,,0,,,48,80
50400,note_on,12,0,1,,,,,,,,0,,,76,80
50496,note_on,96,0,2,,,,,,,,0,,,48,0
50496,note_on,0,0,2,,,,,,,,0,,,40,0
50496,note_on,0,0,2,,,,,,,,0,,,36,0
50496,note_on,96,0,1,,,,,,,,0,,,64,0
50496,note_on,0,0,1,,,,,,,,0,,,76,0
50496,note_on,0,0,1,,,,,,,,0,,,67,0
50640,note_on,0,0,2,,,,,,,,0,,,55,80
50640,note_on,0,0,2,,,,,,,,0,,,60,80
50640,note_on,0,0,1,,,,,,,,0,,,67,80
50640,note_on,144,0,1,,,,,,,,0,,,64,80
50640,note_on,144,0,2,,,,,,,,0,,,52,80
50640,note_on,0,0,1,,,,,,,,0,,,72,80
50736,note_on,0,0,2,,,,,,,,0,,,52,0
50736,note_on,0,0,1,,,,,,,,0,,,72,0
50736,note_on,0,0,2,,,,,,,,0,,,55,0
50736,note_on,0,0,1,,,,,,,,0,,,64,0
50736,note_on,96,0,1,,,,,,,,0,,,67,0
50736,note_on,96,0,2,,,,,,,,0,,,60,0
50880,time_signature,704,1,0,2,4,24,8,,,,,,,,
51300,note_on,1132,0,3,,,,,,,,0,,,48,80
51348,note_on,48,0,3,,,,,,,,0,,,48,0
51360,time_signature,480,1,0,4,4,24,8,,,,,,,,
51360,note_on,12,0,3,,,,,,,,0,,,48,80
51456,note_on,96,0,3,,,,,,,,0,,,48,0
51600,note_on,144,0,3,,,,,,,,0,,,36,80
51696,note_on,96,0,3,,,,,,,,0,,,36,0
51780,note_on,0,0,3,,,,,,,,0,,,68,64
51780,note_on,84,0,3,,,,,,,,0,,,65,64
51780,note_on,0,0,3,,,,,,,,0,,,59,64
51780,note_on,0,0,3,,,,,,,,0,,,62,64
51828,note_on,0,0,3,,,,,,,,0,,,68,0
51828,note_on,48,0,3,,,,,,,,0,,,62,0
51828,note_on,0,0,3,,,,,,,,0,,,65,0
51828,note_on,0,0,3,,,,,,,,0,,,59,0
51840,note_on,0,0,3,,,,,,,,0,,,62,80
51840,note_on,12,0,3,,,,,,,,0,,,68,80
51840,note_on,0,0,3,,,,,,,,0,,,59,80
51936,note_on,0,0,3,,,,,,,,0,,,59,0
51936,note_on,96,0,3,,,,,,,,0,,,62,0
51936,note_on,0,0,3,,,,,,,,0,,,68,0
52080,note_on,144,0,3,,,,,,,,0,,,48,80
52176,note_on,96,0,3,,,,,,,,0,,,48,0
52306,control_change,130,0,3,,,,,,,,0,64,127,,
52320,note_on,14,0,3,,,,,,,,0,,,76,80
52320,note_on,0,0,3,,,,,,,,0,,,88,80
52320,note_on,0,0,3,,,,,,,,0,,,72,80
52320,note_on,0,0,3,,,,,,,,0,,,67,80
52320,note_on,0,0,3,,,,,,,,0,,,79,80
52320,note_on,0,0,3,,,,,,,,0,,,64,80
52546,set_tempo,1186,1,0,,,,,,574328,,,,,,
52568,set_tempo,22,1,0,,,,,,568936,,,,,,
52590,set_tempo,22,1,0,,,,,,563645,,,,,,
52612,set_tempo,22,1,0,,,,,,558451,,,,,,
52629,set_tempo,17,1,0,,,,,,553352,,,,,,
52651,set_tempo,22,1,0,,,,,,548346,,,,,,
52673,set_tempo,22,1,0,,,,,,543429,,,,,,
52688,note_on,0,0,3,,,,,,,,0,,,76,0
52688,note_on,368,0,3,,,,,,,,0,,,88,0
52688,note_on,0,0,3,,,,,,,,0,,,79,0
52690,set_tempo,17,1,0,,,,,,538600,,,,,,
52712,set_tempo,22,1,0,,,,,,533855,,,,,,
52720,note_on,32,0,3,,,,,,,,0,,,86,80
52734,set_tempo,22,1,0,,,,,,529194,,,,,,
52752,note_on,32,0,3,,,,,,,,0,,,86,0
52756,set_tempo,22,1,0,,,,,,524613,,,,,,
52760,note_on,8,0,3,,,,,,,,0,,,84,80
52773,set_tempo,17,1,0,,,,,,520111,,,,,,
52792,note_on,32,0,3,,,,,,,,0,,,84,0
52795,set_tempo,22,1,0,,,,,,515685,,,,,,
52800,note_on,8,0,3,,,,,,,,0,,,79,80
52817,set_tempo,22,1,0,,,,,,511335,,,,,,
52832,note_on,32,0,3,,,,,,,,0,,,79,0
52834,set_tempo,17,1,0,,,,,,507057,,,,,,
52840,note_on,8,0,3,,,,,,,,0,,,76,80
52856,set_tempo,22,1,0,,,,,,502849,,,,,,
52872,note_on,32,0,3,,,,,,,,0,,,76,0
52878,set_tempo,22,1,0,,,,,,498712,,,,,,
52880,note_on,8,0,3,,,,,,,,0,,,74,80
52900,set_tempo,22,1,0,,,,,,494641,,,,,,
52912,note_on,32,0,3,,,,,,,,0,,,74,0
52917,set_tempo,17,1,0,,,,,,490637,,,,,,
52920,note_on,8,0,3,,,,,,,,0,,,72,80
52939,set_tempo,22,1,0,,,,,,486697,,,,,,
52952,note_on,32,0,3,,,,,,,,0,,,72,0
52960,note_on,8,0,3,,,,,,,,0,,,67,80
52961,set_tempo,22,1,0,,,,,,482820,,,,,,
52978,set_tempo,17,1,0,,,,,,479004,,,,,,
52992,note_on,32,0,3,,,,,,,,0,,,67,0
53000,set_tempo,22,1,0,,,,,,475248,,,,,,
53000,note_on,8,0,3,,,,,,,,0,,,64,80
53022,set_tempo,22,1,0,,,,,,471550,,,,,,
53032,note_on,32,0,3,,,,,,,,0,,,64,0
53040,note_on,8,0,3,,,,,,,,0,,,62,80
53044,set_tempo,22,1,0,,,,,,467909,,,,,,
53061,set_tempo,17,1,0,,,,,,464324,,,,,,
53072,note_on,32,0,3,,,,,,,,0,,,62,0
53080,note_on,8,0,3,,,,,,,,0,,,60,80
53083,set_tempo,22,1,0,,,,,,460794,,,,,,
53088,note_on,8,0,3,,,,,,,,0,,,64,0
53088,note_on,0,0,3,,,,,,,,0,,,72,0
53088,note_on,0,0,3,,,,,,,,0,,,67,0
53105,set_tempo,22,1,0,,,,,,457317,,,,,,
53112,note_on,24,0,3,,,,,,,,0,,,60,0
53120,note_on,8,0,3,,,,,,,,0,,,55,80
53122,set_tempo,17,1,0,,,,,,453892,,,,,,
53144,set_tempo,22,1,0,,,,,,450518,,,,,,
53152,note_on,32,0,3,,,,,,,,0,,,55,0
53160,note_on,8,0,3,,,,,,,,0,,,52,80
53164,control_change,4,0,3,,,,,,,,0,64,0,,
53166,set_tempo,22,1,0,,,,,,447194,,,,,,
53188,set_tempo,22,1,0,,,,,,443918,,,,,,
53192,note_on,28,0,3,,,,,,,,0,,,52,0
53200,note_on,8,0,3,,,,,,,,0,,,50,80
53205,set_tempo,17,1,0,,,,,,440690,,,,,,
53227,set_tempo,22,1,0,,,,,,437509,,,,,,
53232,note_on,32,0,3,,,,,,,,0,,,50,0
53240,note_on,8,0,3,,,,,,,,0,,,48,80
53249,set_tempo,22,1,0,,,,,,434373,,,,,,
53266,set_tempo,17,1,0,,,,,,431282,,,,,,
53271,set_tempo,5,1,0,,,,,,488599,,,,,,
53272,note_on,32,0,3,,,,,,,,0,,,48,0
53274,set_tempo,3,1,0,,,,,,553506,,,,,,
53280,set_tempo,6,1,0,,,,,,556586,,,,,,
53280,note_on,8,0,3,,,,,,,,0,,,48,96
53318,set_tempo,38,1,0,,,,,,559701,,,,,,
53376,note_on,96,0,3,,,,,,,,0,,,48,0
53520,note_on,144,0,3,,,,,,,,0,,,36,80
53616,note_on,96,0,3,,,,,,,,0,,,36,0
53700,note_on,0,0,3,,,,,,,,0,,,69,80
53700,note_on,84,0,3,,,,,,,,0,,,66,80
53700,note_on,0,0,3,,,,,,,,0,,,63,80
53700,note_on,0,0,3,,,,,,,,0,,,60,80
53748,note_on,0,0,3,,,,,,,,0,,,66,0
53748,note_on,0,0,3,,,,,,,,0,,,63,0
53748,note_on,48,0,3,,,,,,,,0,,,69,0
53748,note_on,0,0,3,,,,,,,,0,,,60,0
53760,note_on,12,0,3,,,,,,,,0,,,66,80
53760,note_on,0,0,3,,,,,,,,0,,,69,80
53760,note_on,0,0,3,,,,,,,,0,,,63,80
53760,note_on,0,0,3,,,,,,,,0,,,60,80
53856,note_on,0,0,3,,,,,,,,0,,,66,0
53856,note_on,0,0,3,,,,,,,,0,,,63,0
53856,note_on,0,0,3,,,,,,,,0,,,69,0
53856,note_on,96,0,3,,,,,,,,0,,,60,0
54000,note_on,144,0,3,,,,,,,,0,,,48,80
54096,note_on,96,0,3,,,,,,,,0,,,48,0
54240,control_change,144,0,3,,,,,,,,0,64,127,,
54240,note_on,0,0,1,,,,,,,,0,,,79,80
54240,note_on,0,0,2,,,,,,,,0,,,67,80
54240,note_on,0,0,2,,,,,,,,0,,,72,80
54240,note_on,3504,0,2,,,,,,,,0,,,76,80
54240,note_on,3504,0,1,,,,,,,,0,,,91,80
54240,note_on,0,0,1,,,,,,,,0,,,88,80
54240,note_on,0,0,2,,,,,,,,0,,,64,80
54624,note_on,0,0,2,,,,,,,,0,,,67,0
54624,note_on,384,0,2,,,,,,,,0,,,64,0
54624,note_on,0,0,2,,,,,,,,0,,,72,0
54624,note_on,0,0,2,,,,,,,,0,,,76,0
54640,note_on,0,0,1,,,,,,,,0,,,79,0
54640,note_on,0,0,1,,,,,,,,0,,,91,0
54640,note_on,0,0,1,,,,,,,,0,,,86,80
54640,note_on,400,0,1,,,,,,,,0,,,88,0
54672,note_on,32,0,1,,,,,,,,0,,,86,0
54680,note_on,8,0,1,,,,,,,,0,,,84,80
54694,set_tempo,1376,1,0,,,,,,553506,,,,,,
54712,note_on,32,0,1,,,,,,,,0,,,84,0
54720,note_on,8,0,1,,,,,,,,0,,,79,80
54744,note_on,24,0,1,,,,,,,,0,,,79,0
54750,note_on,6,0,1,,,,,,,,0,,,76,80
54774,note_on,24,0,1,,,,,,,,0,,,76,0
54780,note_on,6,0,1,,,,,,,,0,,,74,80
54804,note_on,24,0,1,,,,,,,,0,,,74,0
54810,note_on,6,0,1,,,,,,,,0,,,72,80
54834,note_on,24,0,1,,,,,,,,0,,,72,0
54840,note_on,6,0,1,,,,,,,,0,,,67,80
54864,note_on,24,0,1,,,,,,,,0,,,67,0
54870,note_on,6,0,1,,,,,,,,0,,,64,80
54894,note_on,24,0,1,,,,,,,,0,,,64,0
54900,note_on,6,0,1,,,,,,,,0,,,62,80
54924,note_on,24,0,1,,,,,,,,0,,,62,0
54930,note_on,6,0,1,,,,,,,,0,,,64,80
54930,note_on,0,0,1,,,,,,,,0,,,67,80
54930,note_on,0,0,1,,,,,,,,0,,,60,80
54954,note_on,0,0,1,,,,,,,,0,,,64,0
54954,note_on,0,0,1,,,,,,,,0,,,60,0
54954,note_on,24,0,1,,,,,,,,0,,,67,0
54960,note_on,0,0,1,,,,,,,,0,,,69,80
54960,note_on,0,0,1,,,,,,,,0,,,67,80
54960,note_on,336,0,2,,,,,,,,0,,,55,80
54960,note_on,6,0,1,,,,,,,,0,,,64,80
54960,note_on,0,0,1,,,,,,,,0,,,57,80
54984,note_on,24,0,2,,,,,,,,0,,,55,0
54990,note_on,6,0,2,,,,,,,,0,,,52,80
55014,note_on,24,0,2,,,,,,,,0,,,52,0
55020,note_on,6,0,2,,,,,,,,0,,,50,80
55044,note_on,24,0,2,,,,,,,,0,,,50,0
55050,note_on,6,0,2,,,,,,,,0,,,48,80
55056,note_on,0,0,1,,,,,,,,0,,,64,0
55056,note_on,96,0,1,,,,,,,,0,,,67,0
55056,note_on,0,0,1,,,,,,,,0,,,57,0
55056,note_on,0,0,1,,,,,,,,0,,,69,0
55074,note_on,24,0,2,,,,,,,,0,,,48,0
55080,note_on,6,0,2,,,,,,,,0,,,43,80
55104,note_on,24,0,2,,,,,,,,0,,,43,0
55110,note_on,6,0,2,,,,,,,,0,,,40,80
55122,control_change,882,0,3,,,,,,,,0,64,0,,
55134,note_on,24,0,2,,,,,,,,0,,,40,0
55140,note_on,6,0,2,,,,,,,,0,,,38,80
55164,note_on,24,0,2,,,,,,,,0,,,38,0
55170,note_on,0,0,1,,,,,,,,0,,,70,80
55170,note_on,0,0,1,,,,,,,,0,,,64,80
55170,note_on,6,0,2,,,,,,,,0,,,36,80
55170,note_on,0,0,1,,,,,,,,0,,,67,80
55170,note_on,114,0,1,,,,,,,,0,,,58,80
55194,note_on,24,0,1,,,,,,,,0,,,67,0
55194,note_on,0,0,1,,,,,,,,0,,,58,0
55194,note_on,0,0,1,,,,,,,,0,,,64,0
55194,note_on,0,0,1,,,,,,,,0,,,70,0
55194,note_on,24,0,2,,,,,,,,0,,,36,0
55200,note_on,0,0,3,,,,,,,,0,,,64,80
55200,note_on,0,0,3,,,,,,,,0,,,67,80
55200,note_on,0,0,3,,,,,,,,0,,,71,80
55200,note_on,78,0,3,,,,,,,,0,,,35,80
55200,note_on,0,0,3,,,,,,,,0,,,59,80
55243,set_tempo,549,1,0,,,,,,556586,,,,,,
55296,note_on,96,0,3,,,,,,,,0,,,35,0
55380,note_on,84,0,3,,,,,,,,0,,,48,80
55428,note_on,48,0,3,,,,,,,,0,,,48,0
55440,note_on,12,0,3,,,,,,,,0,,,47,80
55536,note_on,96,0,3,,,,,,,,0,,,47,0
55584,note_on,0,0,3,,,,,,,,0,,,59,0
55584,note_on,0,0,3,,,,,,,,0,,,67,0
55584,note_on,0,0,3,,,,,,,,0,,,71,0
55584,note_on,48,0,3,,,,,,,,0,,,64,0
55620,note_on,36,0,3,,,,,,,,0,,,60,80
55668,note_on,48,0,3,,,,,,,,0,,,60,0
55680,note_on,0,0,3,,,,,,,,0,,,71,80
55680,note_on,12,0,3,,,,,,,,0,,,57,80
55680,note_on,0,0,3,,,,,,,,0,,,59,80
55680,note_on,0,0,3,,,,,,,,0,,,63,80
55680,note_on,0,0,3,,,,,,,,0,,,66,80
55776,note_on,96,0,3,,,,,,,,0,,,59,0
55860,note_on,84,0,3,,,,,,,,0,,,84,80
55860,note_on,0,0,3,,,,,,,,0,,,72,80
55908,note_on,0,0,3,,,,,,,,0,,,84,0
55908,note_on,48,0,3,,,,,,,,0,,,72,0
55920,note_on,12,0,3,,,,,,,,0,,,83,80
55920,note_on,0,0,3,,,,,,,,0,,,71,80
56016,note_on,96,0,3,,,,,,,,0,,,83,0
56016,note_on,0,0,3,,,,,,,,0,,,71,0
56040,note_on,24,0,3,,,,,,,,0,,,47,80
56072,note_on,32,0,3,,,,,,,,0,,,47,0
56074,note_on,0,0,3,,,,,,,,0,,,66,0
56074,note_on,0,0,3,,,,,,,,0,,,57,0
56074,note_on,2,0,3,,,,,,,,0,,,63,0
56074,note_on,0,0,3,,,,,,,,0,,,71,0
56080,note_on,6,0,3,,,,,,,,0,,,49,80
56100,note_on,0,0,3,,,,,,,,0,,,66,80
56100,note_on,0,0,3,,,,,,,,0,,,71,80
56100,note_on,0,0,3,,,,,,,,0,,,57,80
56100,note_on,20,0,3,,,,,,,,0,,,63,80
56112,note_on,12,0,3,,,,,,,,0,,,49,0
56120,note_on,8,0,3,,,,,,,,0,,,51,80
56148,note_on,0,0,3,,,,,,,,0,,,57,0
56148,note_on,28,0,3,,,,,,,,0,,,71,0
56148,note_on,0,0,3,,,,,,,,0,,,66,0
56148,note_on,0,0,3,,,,,,,,0,,,63,0
56152,note_on,4,0,3,,,,,,,,0,,,51,0
56160,note_on,0,0,3,,,,,,,,0,,,56,80
56160,note_on,0,0,3,,,,,,,,0,,,64,80
56160,note_on,0,0,3,,,,,,,,0,,,71,80
56160,note_on,8,0,3,,,,,,,,0,,,52,80
56256,note_on,96,0,3,,,,,,,,0,,,52,0
56352,note_on,96,0,3,,,,,,,,0,,,71,0
56352,note_on,0,0,3,,,,,,,,0,,,56,0
56352,note_on,0,0,3,,,,,,,,0,,,64,0
56400,note_on,48,0,3,,,,,,,,0,,,40,80
56496,note_on,96,0,3,,,,,,,,0,,,40,0
56580,note_on,84,0,3,,,,,,,,0,,,68,80
56580,note_on,0,0,3,,,,,,,,0,,,64,80
56580,note_on,0,0,3,,,,,,,,0,,,71,80
56580,note_on,0,0,3,,,,,,,,0,,,76,80
56628,note_on,48,0,3,,,,,,,,0,,,71,0
56628,note_on,0,0,3,,,,,,,,0,,,64,0
56628,note_on,0,0,3,,,,,,,,0,,,68,0
56628,note_on,0,0,3,,,,,,,,0,,,76,0
56640,note_on,0,0,3,,,,,,,,0,,,76,80
56640,note_on,0,0,3,,,,,,,,0,,,68,80
56640,note_on,12,0,3,,,,,,,,0,,,71,80
56736,note_on,0,0,3,,,,,,,,0,,,71,0
56736,note_on,96,0,3,,,,,,,,0,,,76,0
56736,note_on,0,0,3,,,,,,,,0,,,68,0
56880,note_on,144,0,3,,,,,,,,0,,,52,80
56976,note_on,96,0,3,,,,,,,,0,,,52,0
57120,note_on,0,0,3,,,,,,,,0,,,64,80
57120,note_on,0,0,3,,,,,,,,0,,,66,80
57120,note_on,144,0,3,,,,,,,,0,,,96,80
57120,note_on,0,0,3,,,,,,,,0,,,75,80
57120,note_on,0,0,3,,,,,,,,0,,,84,80
57120,control_change,0,0,3,,,,,,,,0,64,127,,
57120,note_on,0,0,3,,,,,,,,0,,,69,80
57120,note_on,0,0,3,,,,,,,,0,,,90,80
57319,set_tempo,2076,1,0,,,,,,550459,,,,,,
57504,note_on,384,0,3,,,,,,,,0,,,90,0
57504,note_on,0,0,3,,,,,,,,0,,,84,0
57504,note_on,0,0,3,,,,,,,,0,,,69,0
57504,note_on,0,0,3,,,,,,,,0,,,75,0
57504,note_on,0,0,3,,,,,,,,0,,,96,0
57504,note_on,0,0,3,,,,,,,,0,,,64,0
57504,note_on,0,0,3,,,,,,,,0,,,66,0
57510,note_on,6,0,3,,,,,,,,0,,,95,80
57534,note_on,24,0,3,,,,,,,,0,,,95,0
57540,note_on,6,0,3,,,,,,,,0,,,93,80
57564,note_on,24,0,3,,,,,,,,0,,,93,0
57570,note_on,6,0,3,,,,,,,,0,,,90,80
57594,note_on,24,0,3,,,,,,,,0,,,90,0
57600,note_on,6,0,3,,,,,,,,0,,,84,80
57624,note_on,24,0,3,,,,,,,,0,,,84,0
57630,note_on,6,0,3,,,,,,,,0,,,83,80
57654,note_on,24,0,3,,,,,,,,0,,,83,0
57660,note_on,6,0,3,,,,,,,,0,,,81,80
57684,note_on,24,0,3,,,,,,,,0,,,81,0
57690,note_on,6,0,3,,,,,,,,0,,,78,80
57714,note_on,24,0,3,,,,,,,,0,,,78,0
57720,note_on,6,0,3,,,,,,,,0,,,72,80
57744,note_on,24,0,3,,,,,,,,0,,,72,0
57750,note_on,6,0,3,,,,,,,,0,,,71,80
57774,note_on,24,0,3,,,,,,,,0,,,71,0
57780,note_on,6,0,3,,,,,,,,0,,,69,80
57804,note_on,24,0,3,,,,,,,,0,,,69,0
57810,note_on,6,0,3,,,,,,,,0,,,66,80
57810,note_on,0,0,3,,,,,,,,0,,,48,80
57810,note_on,0,0,3,,,,,,,,0,,,45,80
57834,note_on,0,0,3,,,,,,,,0,,,66,0
57834,note_on,0,0,3,,,,,,,,0,,,48,0
57834,note_on,24,0,3,,,,,,,,0,,,45,0
57840,note_on,0,0,3,,,,,,,,0,,,45,80
57840,note_on,0,0,3,,,,,,,,0,,,50,80
57840,note_on,6,0,3,,,,,,,,0,,,48,80
57840,note_on,0,0,3,,,,,,,,0,,,60,80
57852,control_change,12,0,3,,,,,,,,0,64,0,,
57864,note_on,12,0,3,,,,,,,,0,,,60,0
57870,note_on,6,0,3,,,,,,,,0,,,59,80
57894,note_on,24,0,3,,,,,,,,0,,,59,0
57900,note_on,6,0,3,,,,,,,,0,,,57,80
57924,note_on,24,0,3,,,,,,,,0,,,57,0
57930,note_on,6,0,3,,,,,,,,0,,,54,80
57936,note_on,0,0,3,,,,,,,,0,,,45,0
57936,note_on,0,0,3,,,,,,,,0,,,50,0
57936,note_on,6,0,3,,,,,,,,0,,,48,0
57954,note_on,18,0,3,,,,,,,,0,,,54,0
57960,note_on,6,0,3,,,,,,,,0,,,48,80
57984,note_on,24,0,3,,,,,,,,0,,,48,0
57990,note_on,6,0,3,,,,,,,,0,,,47,80
58014,note_on,24,0,3,,,,,,,,0,,,47,0
58020,note_on,6,0,3,,,,,,,,0,,,45,80
58044,note_on,24,0,3,,,,,,,,0,,,45,0
58050,note_on,0,0,3,,,,,,,,0,,,45,80
58050,note_on,0,0,3,,,,,,,,0,,,48,80
58050,note_on,6,0,3,,,,,,,,0,,,51,80
58050,note_on,0,0,3,,,,,,,,0,,,42,80
58074,note_on,0,0,3,,,,,,,,0,,,45,0
58074,note_on,0,0,3,,,,,,,,0,,,48,0
58074,note_on,0,0,3,,,,,,,,0,,,51,0
58074,note_on,24,0,3,,,,,,,,0,,,42,0
58080,note_on,0,0,3,,,,,,,,0,,,44,80
58080,note_on,0,0,3,,,,,,,,0,,,40,80
58080,note_on,0,0,3,,,,,,,,0,,,52,80
58080,note_on,6,0,3,,,,,,,,0,,,47,80
58176,note_on,0,0,3,,,,,,,,0,,,40,0
58176,note_on,0,0,3,,,,,,,,0,,,47,0
58176,note_on,0,0,3,,,,,,,,0,,,52,0
58176,note_on,96,0,3,,,,,,,,0,,,44,0
58320,note_on,144,0,3,,,,,,,,0,,,40,80
58416,note_on,96,0,3,,,,,,,,0,,,40,0
58500,note_on,0,0,3,,,,,,,,0,,,64,80
58500,note_on,0,0,3,,,,,,,,0,,,68,80
58500,note_on,0,0,3,,,,,,,,0,,,71,80
58500,note_on,84,0,3,,,,,,,,0,,,76,80
58548,note_on,0,0,3,,,,,,,,0,,,76,0
58548,note_on,48,0,3,,,,,,,,0,,,64,0
58548,note_on,0,0,3,,,,,,,,0,,,71,0
58548,note_on,0,0,3,,,,,,,,0,,,68,0
58560,note_on,0,0,3,,,,,,,,0,,,76,80
58560,note_on,12,0,3,,,,,,,,0,,,71,80
58560,note_on,0,0,3,,,,,,,,0,,,68,80
58656,note_on,0,0,3,,,,,,,,0,,,71,0
58656,note_on,0,0,3,,,,,,,,0,,,76,0
58656,note_on,96,0,3,,,,,,,,0,,,68,0
58800,note_on,144,0,3,,,,,,,,0,,,52,80
58896,note_on,96,0,3,,,,,,,,0,,,52,0
59040,note_on,0,0,3,,,,,,,,0,,,73,80
59040,control_change,144,0,3,,,,,,,,0,64,127,,
59040,note_on,0,0,3,,,,,,,,0,,,64,80
59040,note_on,0,0,3,,,,,,,,0,,,70,80
59040,note_on,0,0,3,,,,,,,,0,,,97,80
59040,note_on,0,0,3,,,,,,,,0,,,79,80
59040,note_on,0,0,3,,,,,,,,0,,,85,80
59040,note_on,0,0,3,,,,,,,,0,,,91,80
59328,note_on,288,0,3,,,,,,,,0,,,73,0
59328,note_on,0,0,3,,,,,,,,0,,,70,0
59328,note_on,0,0,3,,,,,,,,0,,,79,0
59328,note_on,0,0,3,,,,,,,,0,,,64,0
59424,note_on,96,0,3,,,,,,,,0,,,85,0
59424,note_on,0,0,3,,,,,,,,0,,,97,0
59424,note_on,0,0,3,,,,,,,,0,,,91,0
59430,note_on,6,0,3,,,,,,,,0,,,96,80
59454,note_on,24,0,3,,,,,,,,0,,,96,0
59460,note_on,6,0,3,,,,,,,,0,,,94,80
59484,note_on,24,0,3,,,,,,,,0,,,94,0
59490,note_on,6,0,3,,,,,,,,0,,,91,80
59514,note_on,24,0,3,,,,,,,,0,,,91,0
59520,note_on,6,0,3,,,,,,,,0,,,85,80
59544,note_on,24,0,3,,,,,,,,0,,,85,0
59550,note_on,6,0,3,,,,,,,,0,,,84,80
59574,note_on,24,0,3,,,,,,,,0,,,84,0
59580,note_on,6,0,3,,,,,,,,0,,,82,80
59604,note_on,24,0,3,,,,,,,,0,,,82,0
59610,note_on,6,0,3,,,,,,,,0,,,79,80
59634,note_on,24,0,3,,,,,,,,0,,,79,0
59640,note_on,6,0,3,,,,,,,,0,,,73,80
59664,note_on,24,0,3,,,,,,,,0,,,73,0
59670,note_on,6,0,3,,,,,,,,0,,,72,80
59694,note_on,24,0,3,,,,,,,,0,,,72,0
59700,note_on,6,0,3,,,,,,,,0,,,70,80
59724,note_on,24,0,3,,,,,,,,0,,,70,0
59730,note_on,6,0,3,,,,,,,,0,,,67,80
59730,note_on,0,0,3,,,,,,,,0,,,37,88
59754,note_on,24,0,3,,,,,,,,0,,,37,0
59754,note_on,0,0,3,,,,,,,,0,,,67,0
59760,note_on,0,0,3,,,,,,,,0,,,61,80
59760,note_on,6,0,3,,,,,,,,0,,,39,88
59784,note_on,24,0,3,,,,,,,,0,,,61,0
59784,control_change,0,0,3,,,,,,,,0,64,0,,
59790,note_on,6,0,3,,,,,,,,0,,,60,80
59814,note_on,24,0,3,,,,,,,,0,,,60,0
59820,note_on,6,0,3,,,,,,,,0,,,58,80
59844,note_on,24,0,3,,,,,,,,0,,,58,0
59850,note_on,6,0,3,,,,,,,,0,,,55,80
59856,note_on,6,0,3,,,,,,,,0,,,39,0
59874,note_on,18,0,3,,,,,,,,0,,,55,0
59880,note_on,6,0,3,,,,,,,,0,,,49,80
59904,note_on,24,0,3,,,,,,,,0,,,49,0
59910,note_on,6,0,3,,,,,,,,0,,,48,80
59934,note_on,24,0,3,,,,,,,,0,,,48,0
59940,note_on,6,0,3,,,,,,,,0,,,46,80
59964,note_on,24,0,3,,,,,,,,0,,,46,0
59970,note_on,6,0,3,,,,,,,,0,,,43,80
59970,note_on,0,0,3,,,,,,,,0,,,40,88
59994,note_on,24,0,3,,,,,,,,0,,,40,0
59994,note_on,0,0,3,,,,,,,,0,,,43,0
60000,note_on,6,0,3,,,,,,,,0,,,41,88
60061,set_tempo,2742,1,0,,,,,,553506,,,,,,
60180,note_on,0,0,3,,,,,,,,0,,,49,80
60180,note_on,180,0,3,,,,,,,,0,,,54,80
60180,note_on,0,0,3,,,,,,,,0,,,46,80
60210,note_on,5016,0,2,,,,,,,,0,,,29,80
60228,note_on,0,0,3,,,,,,,,0,,,46,0
60228,note_on,0,0,3,,,,,,,,0,,,54,0
60228,note_on,48,0,3,,,,,,,,0,,,49,0
60240,note_on,30,0,2,,,,,,,,0,,,34,80
60240,note_on,0,0,3,,,,,,,,0,,,53,80
60240,note_on,0,0,3,,,,,,,,0,,,49,80
60240,note_on,12,0,3,,,,,,,,0,,,46,80
60255,note_on,15,0,2,,,,,,,,0,,,37,80
60336,note_on,0,0,3,,,,,,,,0,,,53,0
60336,note_on,0,0,3,,,,,,,,0,,,46,0
60336,note_on,96,0,3,,,,,,,,0,,,49,0
60342,note_on,87,0,2,,,,,,,,0,,,37,0
60342,note_on,0,0,2,,,,,,,,0,,,34,0
60342,note_on,0,0,2,,,,,,,,0,,,29,0
60384,note_on,48,0,3,,,,,,,,0,,,41,0
60420,note_on,0,0,3,,,,,,,,0,,,66,80
60420,note_on,0,0,3,,,,,,,,0,,,58,80
60420,note_on,36,0,3,,,,,,,,0,,,61,80
60468,note_on,0,0,3,,,,,,,,0,,,58,0
60468,note_on,0,0,3,,,,,,,,0,,,61,0
60468,note_on,48,0,3,,,,,,,,0,,,66,0
60480,note_on,0,0,3,,,,,,,,0,,,65,80
60480,note_on,0,0,3,,,,,,,,0,,,63,80
60480,note_on,0,0,3,,,,,,,,0,,,60,80
60480,note_on,0,0,3,,,,,,,,0,,,41,88
60480,note_on,12,0,3,,,,,,,,0,,,57,80
60576,note_on,0,0,3,,,,,,,,0,,,63,0
60576,note_on,96,0,3,,,,,,,,0,,,65,0
60576,note_on,0,0,3,,,,,,,,0,,,60,0
60576,note_on,0,0,3,,,,,,,,0,,,57,0
60660,note_on,0,0,3,,,,,,,,0,,,72,80
60660,note_on,84,0,3,,,,,,,,0,,,75,80
60660,note_on,318,0,2,,,,,,,,0,,,29,80
60660,note_on,0,0,3,,,,,,,,0,,,78,80
60670,note_on,10,0,2,,,,,,,,0,,,33,80
60680,note_on,10,0,2,,,,,,,,0,,,36,80
60708,note_on,48,0,3,,,,,,,,0,,,78,0
60708,note_on,0,0,3,,,,,,,,0,,,75,0
60708,note_on,0,0,3,,,,,,,,0,,,72,0
60720,note_on,0,0,3,,,,,,,,0,,,75,80
60720,note_on,0,0,3,,,,,,,,0,,,77,80
60720,note_on,12,0,3,,,,,,,,0,,,69,80
60720,note_on,0,0,3,,,,,,,,0,,,72,80
60786,note_on,106,0,2,,,,,,,,0,,,36,0
60786,note_on,0,0,2,,,,,,,,0,,,29,0
60786,note_on,0,0,2,,,,,,,,0,,,33,0
60816,note_on,96,0,3,,,,,,,,0,,,77,0
60816,note_on,0,0,3,,,,,,,,0,,,41,0
60816,note_on,0,0,3,,,,,,,,0,,,69,0
60816,note_on,0,0,3,,,,,,,,0,,,72,0
60816,note_on,0,0,3,,,,,,,,0,,,75,0
60900,note_on,84,0,3,,,,,,,,0,,,41,88
60948,note_on,48,0,3,,,,,,,,0,,,41,0
60960,note_on,12,0,3,,,,,,,,0,,,41,88
60981,control_change,21,0,3,,,,,,,,0,64,127,,
61140,note_on,159,0,3,,,,,,,,0,,,82,80
61170,note_on,30,0,3,,,,,,,,0,,,89,80
61170,note_on,384,0,2,,,,,,,,0,,,34,80
61199,set_tempo,1138,1,0,,,,,,503356,,,,,,
61200,note_on,30,0,2,,,,,,,,0,,,37,80
61200,note_on,30,0,3,,,,,,,,0,,,97,80
61232,note_on,32,0,3,,,,,,,,0,,,97,0
61232,note_on,0,0,3,,,,,,,,0,,,89,0
61232,note_on,0,0,3,,,,,,,,0,,,82,0
61237,set_tempo,38,1,0,,,,,,505902,,,,,,
61240,note_on,8,0,3,,,,,,,,0,,,96,80
61272,note_on,32,0,3,,,,,,,,0,,,96,0
61275,set_tempo,38,1,0,,,,,,508475,,,,,,
61280,note_on,8,0,3,,,,,,,,0,,,94,80
61296,note_on,0,0,2,,,,,,,,0,,,34,0
61296,note_on,96,0,2,,,,,,,,0,,,37,0
61312,note_on,32,0,3,,,,,,,,0,,,94,0
61313,set_tempo,38,1,0,,,,,,511073,,,,,,
61320,note_on,8,0,3,,,,,,,,0,,,89,80
61351,set_tempo,38,1,0,,,,,,513699,,,,,,
61352,note_on,32,0,3,,,,,,,,0,,,89,0
61360,note_on,8,0,3,,,,,,,,0,,,85,80
61389,set_tempo,38,1,0,,,,,,516351,,,,,,
61392,note_on,32,0,3,,,,,,,,0,,,85,0
61400,note_on,8,0,3,,,,,,,,0,,,84,80
61427,set_tempo,38,1,0,,,,,,519031,,,,,,
61432,note_on,32,0,3,,,,,,,,0,,,84,0
61440,note_on,8,0,3,,,,,,,,0,,,82,80
61464,set_tempo,37,1,0,,,,,,521739,,,,,,
61472,note_on,32,0,3,,,,,,,,0,,,82,0
61480,note_on,8,0,3,,,,,,,,0,,,77,80
61502,set_tempo,38,1,0,,,,,,524476,,,,,,
61512,note_on,32,0,3,,,,,,,,0,,,77,0
61520,note_on,8,0,3,,,,,,,,0,,,73,80
61540,set_tempo,38,1,0,,,,,,527241,,,,,,
61552,note_on,32,0,3,,,,,,,,0,,,73,0
61560,note_on,8,0,3,,,,,,,,0,,,72,80
61578,set_tempo,38,1,0,,,,,,530035,,,,,,
61584,note_on,24,0,3,,,,,,,,0,,,41,0
61592,note_on,8,0,3,,,,,,,,0,,,72,0
61600,note_on,8,0,3,,,,,,,,0,,,70,80
61616,set_tempo,38,1,0,,,,,,532860,,,,,,
61620,note_on,20,0,3,,,,,,,,0,,,41,88
61632,note_on,12,0,3,,,,,,,,0,,,70,0
61640,note_on,8,0,3,,,,,,,,0,,,65,80
61654,set_tempo,38,1,0,,,,,,535714,,,,,,
61668,note_on,28,0,3,,,,,,,,0,,,41,0
61672,note_on,4,0,3,,,,,,,,0,,,65,0
61680,note_on,8,0,3,,,,,,,,0,,,42,88
61680,note_on,0,0,3,,,,,,,,0,,,61,80
61692,set_tempo,38,1,0,,,,,,538600,,,,,,
61712,note_on,32,0,3,,,,,,,,0,,,61,0
61720,note_on,8,0,3,,,,,,,,0,,,60,80
61725,control_change,5,0,3,,,,,,,,0,64,0,,
61730,set_tempo,38,1,0,,,,,,541516,,,,,,
61752,note_on,27,0,3,,,,,,,,0,,,60,0
61760,note_on,8,0,3,,,,,,,,0,,,58,80
61768,set_tempo,38,1,0,,,,,,544465,,,,,,
61776,note_on,16,0,3,,,,,,,,0,,,42,0
61792,note_on,16,0,3,,,,,,,,0,,,58,0
61800,note_on,8,0,3,,,,,,,,0,,,53,80
61805,set_tempo,37,1,0,,,,,,547445,,,,,,
61824,note_on,24,0,3,,,,,,,,0,,,53,0
61830,note_on,6,0,3,,,,,,,,0,,,49,80
61843,set_tempo,38,1,0,,,,,,550459,,,,,,
61854,note_on,24,0,3,,,,,,,,0,,,49,0
61860,note_on,6,0,3,,,,,,,,0,,,48,80
61860,note_on,0,0,3,,,,,,,,0,,,43,88
61881,set_tempo,38,1,0,,,,,,553506,,,,,,
61884,note_on,24,0,3,,,,,,,,0,,,48,0
61890,note_on,6,0,3,,,,,,,,0,,,46,80
61908,note_on,18,0,3,,,,,,,,0,,,43,0
61913,set_tempo,32,1,0,,,,,,556586,,,,,,
61914,note_on,6,0,3,,,,,,,,0,,,46,0
61920,note_on,6,0,3,,,,,,,,0,,,44,88
61923,set_tempo,10,1,0,,,,,,553506,,,,,,
62100,note_on,180,0,3,,,,,,,,0,,,58,80
62100,note_on,0,0,3,,,,,,,,0,,,49,80
62100,note_on,0,0,3,,,,,,,,0,,,53,80
62130,note_on,834,0,2,,,,,,,,0,,,32,80
62148,note_on,0,0,3,,,,,,,,0,,,53,0
62148,note_on,48,0,3,,,,,,,,0,,,49,0
62148,note_on,0,0,3,,,,,,,,0,,,58,0
62160,note_on,0,0,3,,,,,,,,0,,,53,80
62160,note_on,30,0,2,,,,,,,,0,,,37,80
62160,note_on,12,0,3,,,,,,,,0,,,49,80
62160,note_on,0,0,3,,,,,,,,0,,,56,80
62175,note_on,15,0,2,,,,,,,,0,,,41,80
62256,note_on,0,0,3,,,,,,,,0,,,49,0
62256,note_on,96,0,3,,,,,,,,0,,,56,0
62256,note_on,0,0,3,,,,,,,,0,,,53,0
62262,note_on,87,0,2,,,,,,,,0,,,41,0
62262,note_on,0,0,2,,,,,,,,0,,,32,0
62262,note_on,0,0,2,,,,,,,,0,,,37,0
62304,note_on,48,0,3,,,,,,,,0,,,44,0
62340,note_on,0,0,3,,,,,,,,0,,,61,80
62340,note_on,36,0,3,,,,,,,,0,,,70,80
62340,note_on,0,0,3,,,,,,,,0,,,65,80
62388,note_on,48,0,3,,,,,,,,0,,,65,0
62388,note_on,0,0,3,,,,,,,,0,,,61,0
62388,note_on,0,0,3,,,,,,,,0,,,70,0
62400,note_on,0,0,3,,,,,,,,0,,,66,80
62400,note_on,0,0,3,,,,,,,,0,,,60,80
62400,note_on,0,0,3,,,,,,,,0,,,44,88
62400,note_on,12,0,3,,,,,,,,0,,,68,80
62400,note_on,0,0,3,,,,,,,,0,,,63,80
62496,note_on,0,0,3,,,,,,,,0,,,60,0
62496,note_on,0,0,3,,,,,,,,0,,,63,0
62496,note_on,0,0,3,,,,,,,,0,,,68,0
62496,note_on,96,0,3,,,,,,,,0,,,66,0
62580,note_on,0,0,3,,,,,,,,0,,,72,80
62580,note_on,0,0,3,,,,,,,,0,,,78,80
62580,note_on,0,0,3,,,,,,,,0,,,75,80
62580,note_on,318,0,2,,,,,,,,0,,,32,80
62580,note_on,84,0,3,,,,,,,,0,,,82,80
62590,note_on,10,0,2,,,,,,,,0,,,36,80
62600,note_on,10,0,2,,,,,,,,0,,,39,80
62628,note_on,0,0,3,,,,,,,,0,,,75,0
62628,note_on,0,0,3,,,,,,,,0,,,78,0
62628,note_on,0,0,3,,,,,,,,0,,,82,0
62628,note_on,48,0,3,,,,,,,,0,,,72,0
62640,note_on,0,0,3,,,,,,,,0,,,75,80
62640,note_on,0,0,3,,,,,,,,0,,,78,80
62640,note_on,0,0,3,,,,,,,,0,,,80,80
62640,note_on,12,0,3,,,,,,,,0,,,72,80
62706,note_on,0,0,2,,,,,,,,0,,,36,0
62706,note_on,0,0,2,,,,,,,,0,,,32,0
62706,note_on,106,0,2,,,,,,,,0,,,39,0
62736,note_on,96,0,3,,,,,,,,0,,,80,0
62736,note_on,0,0,3,,,,,,,,0,,,44,0
62736,note_on,0,0,3,,,,,,,,0,,,72,0
62736,note_on,0,0,3,,,,,,,,0,,,75,0
62736,note_on,0,0,3,,,,,,,,0,,,78,0
62820,note_on,84,0,3,,,,,,,,0,,,44,88
62868,note_on,48,0,3,,,,,,,,0,,,44,0
62877,set_tempo,954,1,0,,,,,,553506,,,,,,
62880,control_change,12,0,3,,,,,,,,0,64,127,,
62880,note_on,0,0,3,,,,,,,,0,,,44,88
62915,set_tempo,38,1,0,,,,,,550459,,,,,,
62946,set_tempo,31,1,0,,,,,,547445,,,,,,
62978,set_tempo,32,1,0,,,,,,544465,,,,,,
63010,set_tempo,32,1,0,,,,,,541516,,,,,,
63047,set_tempo,37,1,0,,,,,,538600,,,,,,
63060,note_on,180,0,3,,,,,,,,0,,,85,80
63079,set_tempo,32,1,0,,,,,,535714,,,,,,
63090,note_on,30,0,3,,,,,,,,0,,,92,80
63111,set_tempo,32,1,0,,,,,,532860,,,,,,
63120,note_on,414,0,2,,,,,,,,0,,,41,80
63120,note_on,0,0,2,,,,,,,,0,,,32,80
63120,note_on,30,0,3,,,,,,,,0,,,101,80
63120,note_on,0,0,2,,,,,,,,0,,,37,80
63142,set_tempo,31,1,0,,,,,,530035,,,,,,
63152,note_on,0,0,3,,,,,,,,0,,,92,0
63152,note_on,0,0,3,,,,,,,,0,,,85,0
63152,note_on,32,0,3,,,,,,,,0,,,101,0
63160,note_on,8,0,3,,,,,,,,0,,,99,80
63174,set_tempo,32,1,0,,,,,,527241,,,,,,
63192,note_on,32,0,3,,,,,,,,0,,,99,0
63200,note_on,8,0,3,,,,,,,,0,,,97,80
63212,set_tempo,38,1,0,,,,,,524476,,,,,,
63216,note_on,96,0,2,,,,,,,,0,,,32,0
63216,note_on,0,0,2,,,,,,,,0,,,41,0
63216,note_on,0,0,2,,,,,,,,0,,,37,0
63232,note_on,32,0,3,,,,,,,,0,,,97,0
63240,note_on,8,0,3,,,,,,,,0,,,92,80
63243,set_tempo,31,1,0,,,,,,521739,,,,,,
63272,note_on,32,0,3,,,,,,,,0,,,92,0
63275,set_tempo,32,1,0,,,,,,519031,,,,,,
63280,note_on,8,0,3,,,,,,,,0,,,89,80
63306,set_tempo,31,1,0,,,,,,516351,,,,,,
63312,note_on,32,0,3,,,,,,,,0,,,89,0
63320,note_on,8,0,3,,,,,,,,0,,,87,80
63338,set_tempo,32,1,0,,,,,,513699,,,,,,
63352,note_on,32,0,3,,,,,,,,0,,,87,0
63360,note_on,8,0,3,,,,,,,,0,,,85,80
63376,set_tempo,38,1,0,,,,,,511073,,,,,,
63392,note_on,32,0,3,,,,,,,,0,,,85,0
63400,note_on,8,0,3,,,,,,,,0,,,80,80
63407,set_tempo,31,1,0,,,,,,508475,,,,,,
63424,note_on,24,0,3,,,,,,,,0,,,44,0
63432,note_on,8,0,3,,,,,,,,0,,,80,0
63439,set_tempo,32,1,0,,,,,,505902,,,,,,
63440,note_on,0,0,3,,,,,,,,0,,,77,80
63440,note_on,8,0,3,,,,,,,,0,,,43,88
63471,set_tempo,32,1,0,,,,,,503356,,,,,,
63472,note_on,32,0,3,,,,,,,,0,,,77,0
63480,note_on,8,0,3,,,,,,,,0,,,75,80
63502,set_tempo,31,1,0,,,,,,500835,,,,,,
63504,note_on,24,0,3,,,,,,,,0,,,43,0
63512,note_on,8,0,3,,,,,,,,0,,,75,0
63520,note_on,8,0,3,,,,,,,,0,,,44,88
63520,note_on,0,0,3,,,,,,,,0,,,73,80
63525,control_change,5,0,3,,,,,,,,0,64,0,,
63540,set_tempo,38,1,0,,,,,,498339,,,,,,
63552,note_on,27,0,3,,,,,,,,0,,,73,0
63560,note_on,8,0,3,,,,,,,,0,,,68,80
63572,set_tempo,32,1,0,,,,,,495868,,,,,,
63584,note_on,24,0,3,,,,,,,,0,,,44,0
63592,note_on,8,0,3,,,,,,,,0,,,68,0
63600,note_on,0,0,3,,,,,,,,0,,,49,88
63600,note_on,8,0,3,,,,,,,,0,,,65,80
63603,set_tempo,31,1,0,,,,,,493421,,,,,,
63632,note_on,32,0,3,,,,,,,,0,,,65,0
63635,set_tempo,32,1,0,,,,,,490998,,,,,,
63640,note_on,8,0,3,,,,,,,,0,,,63,80
63664,note_on,24,0,3,,,,,,,,0,,,49,0
63666,set_tempo,31,1,0,,,,,,488599,,,,,,
63672,note_on,8,0,3,,,,,,,,0,,,63,0
63680,note_on,0,0,3,,,,,,,,0,,,61,80
63680,note_on,8,0,3,,,,,,,,0,,,48,88
63704,set_tempo,38,1,0,,,,,,486224,,,,,,
63712,note_on,32,0,3,,,,,,,,0,,,61,0
63720,note_on,8,0,3,,,,,,,,0,,,56,80
63736,set_tempo,32,1,0,,,,,,483871,,,,,,
63744,note_on,0,0,3,,,,,,,,0,,,48,0
63744,note_on,24,0,3,,,,,,,,0,,,56,0
63750,note_on,6,0,3,,,,,,,,0,,,53,80
63760,note_on,10,0,3,,,,,,,,0,,,46,88
63767,set_tempo,31,1,0,,,,,,481541,,,,,,
63774,note_on,14,0,3,,,,,,,,0,,,53,0
63780,note_on,6,0,3,,,,,,,,0,,,51,80
63799,set_tempo,32,1,0,,,,,,479233,,,,,,
63804,note_on,24,0,3,,,,,,,,0,,,51,0
63810,note_on,6,0,3,,,,,,,,0,,,49,80
63824,note_on,14,0,3,,,,,,,,0,,,46,0
63831,set_tempo,32,1,0,,,,,,556586,,,,,,
63834,note_on,10,0,3,,,,,,,,0,,,49,0
63840,note_on,6,0,3,,,,,,,,0,,,44,88
64020,note_on,0,0,3,,,,,,,,0,,,53,80
64020,note_on,180,0,3,,,,,,,,0,,,58,80
64020,note_on,0,0,3,,,,,,,,0,,,49,80
64068,note_on,48,0,3,,,,,,,,0,,,49,0
64068,note_on,0,0,3,,,,,,,,0,,,58,0
64068,note_on,0,0,3,,,,,,,,0,,,53,0
64080,note_on,0,0,3,,,,,,,,0,,,56,80
64080,note_on,0,0,2,,,,,,,,0,,,32,80
64080,note_on,0,0,2,,,,,,,,0,,,41,80
64080,note_on,12,0,3,,,,,,,,0,,,53,80
64080,note_on,864,0,2,,,,,,,,0,,,37,80
64080,note_on,0,0,3,,,,,,,,0,,,49,80
64176,note_on,0,0,3,,,,,,,,0,,,53,0
64176,note_on,96,0,3,,,,,,,,0,,,56,0
64176,note_on,0,0,3,,,,,,,,0,,,49,0
64224,note_on,48,0,3,,,,,,,,0,,,44,0
64260,note_on,0,0,3,,,,,,,,0,,,61,80
64260,note_on,0,0,3,,,,,,,,0,,,65,80
64260,note_on,36,0,3,,,,,,,,0,,,70,80
64272,note_on,0,0,2,,,,,,,,0,,,32,0
64272,note_on,192,0,2,,,,,,,,0,,,41,0
64272,note_on,0,0,2,,,,,,,,0,,,37,0
64308,note_on,0,0,3,,,,,,,,0,,,65,0
64308,note_on,0,0,3,,,,,,,,0,,,70,0
64308,note_on,48,0,3,,,,,,,,0,,,61,0
64320,note_on,12,0,3,,,,,,,,0,,,66,80
64320,note_on,0,0,3,,,,,,,,0,,,60,80
64320,note_on,0,0,3,,,,,,,,0,,,68,80
64320,note_on,0,0,3,,,,,,,,0,,,44,88
64320,note_on,0,0,3,,,,,,,,0,,,63,80
64416,note_on,0,0,3,,,,,,,,0,,,63,0
64416,note_on,0,0,3,,,,,,,,0,,,66,0
64416,note_on,96,0,3,,,,,,,,0,,,68,0
64416,note_on,0,0,3,,,,,,,,0,,,60,0
64500,note_on,84,0,3,,,,,,,,0,,,72,80
64500,note_on,228,0,2,,,,,,,,0,,,32,80
64500,note_on,0,0,3,,,,,,,,0,,,82,80
64500,note_on,0,0,3,,,,,,,,0,,,78,80
64500,note_on,0,0,3,,,,,,,,0,,,75,80
64515,note_on,15,0,2,,,,,,,,0,,,36,80
64530,note_on,15,0,2,,,,,,,,0,,,39,80
64545,note_on,15,0,2,,,,,,,,0,,,42,80
64548,note_on,0,0,3,,,,,,,,0,,,72,0
64548,note_on,0,0,3,,,,,,,,0,,,75,0
64548,note_on,48,0,3,,,,,,,,0,,,78,0
64548,note_on,0,0,3,,,,,,,,0,,,82,0
64560,note_on,12,0,3,,,,,,,,0,,,80,80
64560,note_on,0,0,3,,,,,,,,0,,,72,80
64560,note_on,0,0,3,,,,,,,,0,,,75,80
64560,note_on,0,0,3,,,,,,,,0,,,78,80
64656,note_on,0,0,3,,,,,,,,0,,,80,0
64656,note_on,0,0,3,,,,,,,,0,,,78,0
64656,note_on,0,0,3,,,,,,,,0,,,44,0
64656,note_on,0,0,3,,,,,,,,0,,,75,0
64656,note_on,96,0,3,,,,,,,,0,,,72,0
64673,note_on,0,0,2,,,,,,,,0,,,39,0
64673,note_on,0,0,2,,,,,,,,0,,,36,0
64673,note_on,0,0,2,,,,,,,,0,,,32,0
64673,note_on,128,0,2,,,,,,,,0,,,42,0
64740,note_on,84,0,3,,,,,,,,0,,,44,88
64788,note_on,48,0,3,,,,,,,,0,,,44,0
64800,note_on,0,0,3,,,,,,,,0,,,44,88
64800,control_change,12,0,3,,,,,,,,0,64,127,,
64807,set_tempo,976,1,0,,,,,,556586,,,,,,
64857,set_tempo,50,1,0,,,,,,553506,,,,,,
64901,set_tempo,44,1,0,,,,,,550459,,,,,,
64952,set_tempo,51,1,0,,,,,,547445,,,,,,
64980,note_on,180,0,3,,,,,,,,0,,,85,80
64980,note_on,307,0,2,,,,,,,,0,,,32,80
64990,note_on,10,0,2,,,,,,,,0,,,37,80
64996,set_tempo,44,1,0,,,,,,544465,,,,,,
65000,note_on,10,0,2,,,,,,,,0,,,41,80
65010,note_on,30,0,3,,,,,,,,0,,,92,80
65040,note_on,30,0,3,,,,,,,,0,,,101,80
65040,set_tempo,44,1,0,,,,,,541516,,,,,,
65072,note_on,0,0,3,,,,,,,,0,,,92,0
65072,note_on,0,0,3,,,,,,,,0,,,85,0
65072,note_on,32,0,3,,,,,,,,0,,,101,0
65080,note_on,8,0,3,,,,,,,,0,,,99,80
65091,set_tempo,51,1,0,,,,,,538600,,,,,,
65106,note_on,0,0,2,,,,,,,,0,,,32,0
65106,note_on,106,0,2,,,,,,,,0,,,41,0
65106,note_on,0,0,2,,,,,,,,0,,,37,0
65112,note_on,32,0,3,,,,,,,,0,,,99,0
65120,note_on,8,0,3,,,,,,,,0,,,97,80
65135,set_tempo,44,1,0,,,,,,535714,,,,,,
65152,note_on,32,0,3,,,,,,,,0,,,97,0
65160,note_on,8,0,3,,,,,,,,0,,,92,80
65186,set_tempo,51,1,0,,,,,,532860,,,,,,
65192,note_on,32,0,3,,,,,,,,0,,,92,0
65200,note_on,8,0,3,,,,,,,,0,,,89,80
65230,set_tempo,44,1,0,,,,,,530035,,,,,,
65232,note_on,32,0,3,,,,,,,,0,,,89,0
65240,note_on,8,0,3,,,,,,,,0,,,87,80
65272,note_on,32,0,3,,,,,,,,0,,,87,0
65274,set_tempo,44,1,0,,,,,,527241,,,,,,
65280,note_on,0,0,3,,,,,,,,0,,,85,80
65280,control_change,8,0,3,,,,,,,,0,64,0,,
65312,note_on,32,0,3,,,,,,,,0,,,85,0
65320,note_on,8,0,3,,,,,,,,0,,,80,80
65325,set_tempo,51,1,0,,,,,,524476,,,,,,
65344,note_on,24,0,3,,,,,,,,0,,,44,0
65352,note_on,8,0,3,,,,,,,,0,,,80,0
65360,note_on,0,0,3,,,,,,,,0,,,43,88
65360,note_on,8,0,3,,,,,,,,0,,,77,80
65369,set_tempo,44,1,0,,,,,,521739,,,,,,
65392,note_on,32,0,3,,,,,,,,0,,,77,0
65400,note_on,8,0,3,,,,,,,,0,,,75,80
65419,set_tempo,50,1,0,,,,,,519031,,,,,,
65424,note_on,24,0,3,,,,,,,,0,,,43,0
65432,note_on,8,0,3,,,,,,,,0,,,75,0
65440,note_on,8,0,3,,,,,,,,0,,,44,88
65440,note_on,0,0,3,,,,,,,,0,,,73,80
65463,set_tempo,44,1,0,,,,,,516351,,,,,,
65472,note_on,32,0,3,,,,,,,,0,,,73,0
65480,note_on,8,0,3,,,,,,,,0,,,68,80
65504,note_on,24,0,3,,,,,,,,0,,,44,0
65508,set_tempo,45,1,0,,,,,,513699,,,,,,
65512,note_on,8,0,3,,,,,,,,0,,,68,0
65520,note_on,8,0,3,,,,,,,,0,,,65,80
65520,note_on,0,0,3,,,,,,,,0,,,53,88
65552,note_on,32,0,3,,,,,,,,0,,,65,0
65558,set_tempo,50,1,0,,,,,,511073,,,,,,
65560,note_on,8,0,3,,,,,,,,0,,,63,80
65584,note_on,24,0,3,,,,,,,,0,,,53,0
65592,note_on,8,0,3,,,,,,,,0,,,63,0
65600,note_on,8,0,3,,,,,,,,0,,,49,88
65600,note_on,0,0,3,,,,,,,,0,,,61,80
65602,set_tempo,44,1,0,,,,,,508475,,,,,,
65632,note_on,32,0,3,,,,,,,,0,,,61,0
65640,note_on,8,0,3,,,,,,,,0,,,56,80
65653,set_tempo,51,1,0,,,,,,505902,,,,,,
65664,note_on,24,0,3,,,,,,,,0,,,56,0
65664,note_on,0,0,3,,,,,,,,0,,,49,0
65670,note_on,6,0,3,,,,,,,,0,,,53,80
65680,note_on,10,0,3,,,,,,,,0,,,46,88
65694,note_on,14,0,3,,,,,,,,0,,,53,0
65697,set_tempo,44,1,0,,,,,,503356,,,,,,
65700,note_on,6,0,3,,,,,,,,0,,,51,80
65724,note_on,24,0,3,,,,,,,,0,,,51,0
65730,note_on,6,0,3,,,,,,,,0,,,49,80
65741,set_tempo,44,1,0,,,,,,500835,,,,,,
65744,note_on,14,0,3,,,,,,,,0,,,46,0
65748,set_tempo,7,1,0,,,,,,547445,,,,,,
65754,set_tempo,6,1,0,,,,,,550459,,,,,,
65754,note_on,10,0,3,,,,,,,,0,,,49,0
65760,control_change,0,0,3,,,,,,,,0,64,127,,
65760,note_on,6,0,3,,,,,,,,0,,,44,88
65840,note_on,0,0,3,,,,,,,,0,,,53,80
65840,note_on,0,0,3,,,,,,,,0,,,58,80
65840,note_on,80,0,3,,,,,,,,0,,,49,80
65904,note_on,64,0,3,,,,,,,,0,,,58,0
65904,note_on,0,0,3,,,,,,,,0,,,49,0
65904,note_on,0,0,3,,,,,,,,0,,,53,0
65920,note_on,0,0,3,,,,,,,,0,,,53,80
65920,note_on,16,0,3,,,,,,,,0,,,49,80
65920,note_on,0,0,3,,,,,,,,0,,,56,80
65984,note_on,64,0,3,,,,,,,,0,,,56,0
65984,note_on,0,0,3,,,,,,,,0,,,53,0
65984,note_on,0,0,3,,,,,,,,0,,,49,0
66000,note_on,0,0,2,,,,,,,,0,,,41,80
66000,note_on,16,0,3,,,,,,,,0,,,61,80
66000,note_on,894,0,2,,,,,,,,0,,,32,80
66000,note_on,0,0,3,,,,,,,,0,,,70,80
66000,note_on,0,0,3,,,,,,,,0,,,65,80
66000,note_on,0,0,2,,,,,,,,0,,,37,80
66064,note_on,0,0,3,,,,,,,,0,,,65,0
66064,note_on,0,0,3,,,,,,,,0,,,61,0
66064,note_on,64,0,3,,,,,,,,0,,,70,0
66080,note_on,16,0,3,,,,,,,,0,,,65,80
66080,note_on,0,0,3,,,,,,,,0,,,61,80
66080,note_on,0,0,3,,,,,,,,0,,,68,80
66096,note_on,16,0,3,,,,,,,,0,,,44,0
66144,note_on,48,0,3,,,,,,,,0,,,65,0
66144,note_on,0,0,3,,,,,,,,0,,,68,0
66144,note_on,0,0,3,,,,,,,,0,,,61,0
66160,note_on,16,0,3,,,,,,,,0,,,73,80
66160,note_on,0,0,3,,,,,,,,0,,,82,80
66160,note_on,0,0,3,,,,,,,,0,,,77,80
66180,note_on,20,0,3,,,,,,,,0,,,44,88
66192,note_on,0,0,2,,,,,,,,0,,,41,0
66192,note_on,192,0,2,,,,,,,,0,,,37,0
66192,note_on,0,0,2,,,,,,,,0,,,32,0
66224,note_on,44,0,3,,,,,,,,0,,,82,0
66224,note_on,0,0,3,,,,,,,,0,,,77,0
66224,note_on,0,0,3,,,,,,,,0,,,73,0
66225,set_tempo,471,1,0,,,,,,556586,,,,,,
66228,note_on,4,0,3,,,,,,,,0,,,44,0
66237,set_tempo,12,1,0,,,,,,553506,,,,,,
66240,control_change,0,0,3,,,,,,,,0,64,0,,
66240,note_on,48,0,2,,,,,,,,0,,,32,80
66240,note_on,12,0,3,,,,,,,,0,,,44,88
66240,note_on,0,0,3,,,,,,,,0,,,80,80
66240,note_on,0,0,3,,,,,,,,0,,,79,80
66240,note_on,0,0,3,,,,,,,,0,,,72,80
66250,set_tempo,13,1,0,,,,,,550459,,,,,,
66255,note_on,15,0,2,,,,,,,,0,,,36,80
66263,set_tempo,13,1,0,,,,,,547445,,,,,,
66270,note_on,15,0,2,,,,,,,,0,,,39,80
66275,set_tempo,12,1,0,,,,,,544465,,,,,,
66285,note_on,15,0,2,,,,,,,,0,,,42,80
66288,set_tempo,13,1,0,,,,,,541516,,,,,,
66301,set_tempo,13,1,0,,,,,,538600,,,,,,
66304,note_on,0,0,3,,,,,,,,0,,,44,0
66304,note_on,0,0,3,,,,,,,,0,,,79,0
66304,note_on,0,0,3,,,,,,,,0,,,80,0
66304,note_on,64,0,3,,,,,,,,0,,,72,0
66307,set_tempo,6,1,0,,,,,,535714,,,,,,
66320,note_on,0,0,3,,,,,,,,0,,,92,80
66320,set_tempo,13,1,0,,,,,,532860,,,,,,
66320,note_on,16,0,3,,,,,,,,0,,,32,88
66320,note_on,0,0,3,,,,,,,,0,,,44,88
66320,note_on,0,0,3,,,,,,,,0,,,80,80
66332,set_tempo,12,1,0,,,,,,530035,,,,,,
66345,set_tempo,13,1,0,,,,,,527241,,,,,,
66357,set_tempo,12,1,0,,,,,,524476,,,,,,
66370,set_tempo,13,1,0,,,,,,521739,,,,,,
66376,set_tempo,6,1,0,,,,,,519031,,,,,,
66384,note_on,64,0,3,,,,,,,,0,,,92,0
66384,note_on,0,0,3,,,,,,,,0,,,44,0
66384,note_on,0,0,3,,,,,,,,0,,,32,0
66384,note_on,0,0,3,,,,,,,,0,,,80,0
66389,set_tempo,13,1,0,,,,,,516351,,,,,,
66400,note_on,0,0,3,,,,,,,,0,,,81,80
66400,note_on,0,0,3,,,,,,,,0,,,33,88
66400,note_on,0,0,3,,,,,,,,0,,,45,88
66400,note_on,16,0,3,,,,,,,,0,,,93,80
66402,set_tempo,13,1,0,,,,,,513699,,,,,,
66413,note_on,128,0,2,,,,,,,,0,,,42,0
66413,note_on,0,0,2,,,,,,,,0,,,32,0
66413,note_on,0,0,2,,,,,,,,0,,,39,0
66413,note_on,0,0,2,,,,,,,,0,,,36,0
66414,set_tempo,12,1,0,,,,,,511073,,,,,,
66427,set_tempo,13,1,0,,,,,,508475,,,,,,
66440,set_tempo,13,1,0,,,,,,505902,,,,,,
66446,set_tempo,6,1,0,,,,,,503356,,,,,,
66459,set_tempo,13,1,0,,,,,,500835,,,,,,
66464,note_on,64,0,3,,,,,,,,0,,,45,0
66464,note_on,0,0,3,,,,,,,,0,,,81,0
66464,note_on,0,0,3,,,,,,,,0,,,33,0
66464,note_on,0,0,3,,,,,,,,0,,,93,0
66471,set_tempo,12,1,0,,,,,,498339,,,,,,
66480,note_on,0,0,3,,,,,,,,0,,,94,80
66480,note_on,16,0,3,,,,,,,,0,,,34,88
66480,note_on,0,0,3,,,,,,,,0,,,82,80
66480,note_on,0,0,3,,,,,,,,0,,,46,88
66484,set_tempo,13,1,0,,,,,,495868,,,,,,
66496,set_tempo,12,1,0,,,,,,493421,,,,,,
66509,set_tempo,13,1,0,,,,,,490998,,,,,,
66515,set_tempo,6,1,0,,,,,,488599,,,,,,
66528,set_tempo,13,1,0,,,,,,486224,,,,,,
66541,set_tempo,13,1,0,,,,,,483871,,,,,,
66544,note_on,0,0,3,,,,,,,,0,,,82,0
66544,note_on,0,0,3,,,,,,,,0,,,34,0
66544,note_on,64,0,3,,,,,,,,0,,,94,0
66544,note_on,0,0,3,,,,,,,,0,,,46,0
66553,set_tempo,12,1,0,,,,,,481541,,,,,,
66560,note_on,0,0,3,,,,,,,,0,,,83,80
66560,note_on,0,0,3,,,,,,,,0,,,35,88
66560,note_on,16,0,3,,,,,,,,0,,,95,80
66560,note_on,0,0,3,,,,,,,,0,,,47,88
66566,set_tempo,13,1,0,,,,,,479233,,,,,,
66579,set_tempo,13,1,0,,,,,,476948,,,,,,
66585,set_tempo,6,1,0,,,,,,474684,,,,,,
66597,set_tempo,12,1,0,,,,,,472441,,,,,,
66610,set_tempo,13,1,0,,,,,,470219,,,,,,
66623,set_tempo,13,1,0,,,,,,468019,,,,,,
66624,note_on,0,0,3,,,,,,,,0,,,47,0
66624,note_on,0,0,3,,,,,,,,0,,,83,0
66624,note_on,0,0,3,,,,,,,,0,,,95,0
66624,note_on,64,0,3,,,,,,,,0,,,35,0
66635,set_tempo,12,1,0,,,,,,465839,,,,,,
66640,note_on,0,0,3,,,,,,,,0,,,96,80
66640,note_on,16,0,3,,,,,,,,0,,,84,80
66640,note_on,0,0,3,,,,,,,,0,,,48,88
66640,note_on,0,0,3,,,,,,,,0,,,36,88
66648,set_tempo,13,1,0,,,,,,463679,,,,,,
66654,set_tempo,6,1,0,,,,,,461538,,,,,,
66667,set_tempo,13,1,0,,,,,,459418,,,,,,
66680,set_tempo,13,1,0,,,,,,495868,,,,,,
66704,note_on,0,0,3,,,,,,,,0,,,48,0
66704,note_on,0,0,3,,,,,,,,0,,,84,0
66704,note_on,0,0,3,,,,,,,,0,,,96,0
66704,note_on,64,0,3,,,,,,,,0,,,36,0
66720,note_on,0,0,3,,,,,,,,0,,,44,80
66720,note_on,0,0,3,,,,,,,,0,,,49,80
66720,note_on,0,0,3,,,,,,,,0,,,85,80
66720,note_on,16,0,3,,,,,,,,0,,,37,80
66720,note_on,0,0,3,,,,,,,,0,,,97,80
66720,note_on,0,0,3,,,,,,,,0,,,89,80
66738,control_change,18,0,3,,,,,,,,0,64,127,,
66816,note_on,0,0,3,,,,,,,,0,,,37,0
66816,note_on,0,0,3,,,,,,,,0,,,44,0
66816,note_on,0,0,3,,,,,,,,0,,,49,0
66816,note_on,0,0,3,,,,,,,,0,,,89,0
66816,note_on,78,0,3,,,,,,,,0,,,85,0
66816,note_on,0,0,3,,,,,,,,0,,,97,0
66840,note_on,24,0,3,,,,,,,,0,,,49,80
66920,note_on,80,0,3,,,,,,,,0,,,56,80
66936,note_on,16,0,3,,,,,,,,0,,,49,0
66960,note_on,24,0,3,,,,,,,,0,,,37,80
66960,note_on,0,0,3,,,,,,,,0,,,65,80
66992,note_on,0,0,3,,,,,,,,0,,,56,0
66992,note_on,32,0,3,,,,,,,,0,,,65,0
67000,note_on,8,0,3,,,,,,,,0,,,63,80
67032,note_on,32,0,3,,,,,,,,0,,,63,0
67040,note_on,8,0,3,,,,,,,,0,,,61,80
67056,note_on,16,0,3,,,,,,,,0,,,37,0
67072,note_on,16,0,3,,,,,,,,0,,,61,0
67080,note_on,8,0,3,,,,,,,,0,,,56,80
67080,note_on,0,0,3,,,,,,,,0,,,49,80
67112,note_on,32,0,3,,,,,,,,0,,,56,0
67120,note_on,8,0,3,,,,,,,,0,,,53,80
67152,note_on,32,0,3,,,,,,,,0,,,53,0
67176,note_on,24,0,3,,,,,,,,0,,,49,0
67200,note_on,0,0,2,,,,,,,,0,,,61,92
67200,note_on,787,0,2,,,,,,,,0,,,49,92
67218,control_change,42,0,3,,,,,,,,0,64,0,,
67242,control_change,24,0,3,,,,,,,,0,64,127,,
67320,note_on,78,0,3,,,,,,,,0,,,45,80
67400,note_on,80,0,3,,,,,,,,0,,,61,80
67416,note_on,16,0,3,,,,,,,,0,,,45,0
67440,note_on,0,0,3,,,,,,,,0,,,69,80
67440,note_on,24,0,3,,,,,,,,0,,,42,80
67472,note_on,32,0,3,,,,,,,,0,,,69,0
67472,note_on,0,0,3,,,,,,,,0,,,61,0
67480,note_on,8,0,3,,,,,,,,0,,,68,80
67512,note_on,32,0,3,,,,,,,,0,,,68,0
67520,note_on,8,0,3,,,,,,,,0,,,66,80
67536,note_on,16,0,3,,,,,,,,0,,,42,0
67536,note_on,0,0,2,,,,,,,,0,,,49,0
67536,note_on,336,0,2,,,,,,,,0,,,61,0
67552,note_on,16,0,3,,,,,,,,0,,,66,0
67560,note_on,8,0,3,,,,,,,,0,,,61,80
67560,note_on,0,0,3,,,,,,,,0,,,45,80
67592,note_on,32,0,3,,,,,,,,0,,,61,0
67600,note_on,8,0,3,,,,,,,,0,,,57,80
67620,note_on,84,0,2,,,,,,,,0,,,49,92
67620,note_on,0,0,2,,,,,,,,0,,,61,92
67632,note_on,32,0,3,,,,,,,,0,,,57,0
67656,note_on,24,0,3,,,,,,,,0,,,45,0
67668,note_on,48,0,2,,,,,,,,0,,,61,0
67668,note_on,0,0,2,,,,,,,,0,,,49,0
67680,note_on,0,0,2,,,,,,,,0,,,49,92
67680,control_change,24,0,3,,,,,,,,0,64,0,,
67680,note_on,12,0,2,,,,,,,,0,,,61,92
67725,control_change,45,0,3,,,,,,,,0,64,127,,
67800,note_on,75,0,3,,,,,,,,0,,,44,80
67840,note_on,40,0,3,,,,,,,,0,,,65,80
67880,note_on,40,0,3,,,,,,,,0,,,68,80
67896,note_on,16,0,3,,,,,,,,0,,,44,0
67920,note_on,0,0,3,,,,,,,,0,,,77,80
67920,note_on,24,0,3,,,,,,,,0,,,37,80
67952,note_on,32,0,3,,,,,,,,0,,,77,0
67952,note_on,0,0,3,,,,,,,,0,,,65,0
67952,note_on,0,0,3,,,,,,,,0,,,68,0
67960,note_on,8,0,3,,,,,,,,0,,,75,80
67992,note_on,32,0,3,,,,,,,,0,,,75,0
68000,note_on,8,0,3,,,,,,,,0,,,73,80
68016,note_on,16,0,3,,,,,,,,0,,,37,0
68032,note_on,16,0,3,,,,,,,,0,,,73,0
68040,note_on,0,0,3,,,,,,,,0,,,68,80
68040,note_on,8,0,3,,,,,,,,0,,,44,80
68064,note_on,384,0,2,,,,,,,,0,,,49,0
68064,note_on,0,0,2,,,,,,,,0,,,61,0
68072,note_on,32,0,3,,,,,,,,0,,,68,0
68080,note_on,8,0,3,,,,,,,,0,,,65,80
68112,note_on,32,0,3,,,,,,,,0,,,65,0
68120,note_on,8,0,3,,,,,,,,0,,,68,80
68136,note_on,16,0,3,,,,,,,,0,,,44,0
68152,note_on,16,0,3,,,,,,,,0,,,68,0
68160,note_on,0,0,3,,,,,,,,0,,,49,80
68160,note_on,8,0,3,,,,,,,,0,,,73,80
68192,note_on,32,0,3,,,,,,,,0,,,73,0
68200,note_on,8,0,3,,,,,,,,0,,,75,80
68232,note_on,32,0,3,,,,,,,,0,,,75,0
68240,note_on,0,0,2,,,,,,,,0,,,48,92
68240,note_on,8,0,3,,,,,,,,0,,,77,80
68240,note_on,176,0,2,,,,,,,,0,,,60,92
68256,note_on,16,0,3,,,,,,,,0,,,49,0
68272,note_on,16,0,3,,,,,,,,0,,,77,0
68280,note_on,8,0,3,,,,,,,,0,,,80,80
68304,note_on,0,0,2,,,,,,,,0,,,60,0
68304,note_on,64,0,2,,,,,,,,0,,,48,0
68312,note_on,32,0,3,,,,,,,,0,,,80,0
68320,note_on,0,0,2,,,,,,,,0,,,61,92
68320,note_on,16,0,2,,,,,,,,0,,,49,92
68320,note_on,8,0,3,,,,,,,,0,,,85,80
68352,note_on,32,0,3,,,,,,,,0,,,85,0
68360,note_on,8,0,3,,,,,,,,0,,,87,80
68373,control_change,13,0,3,,,,,,,,0,64,0,,
68384,note_on,64,0,2,,,,,,,,0,,,61,0
68384,note_on,0,0,2,,,,,,,,0,,,49,0
68392,note_on,19,0,3,,,,,,,,0,,,87,0
68400,note_on,8,0,3,,,,,,,,0,,,89,80
68400,note_on,0,0,2,,,,,,,,0,,,65,92
68400,note_on,16,0,2,,,,,,,,0,,,53,92
68432,note_on,32,0,3,,,,,,,,0,,,89,0
68440,note_on,8,0,3,,,,,,,,0,,,92,80
68464,note_on,64,0,2,,,,,,,,0,,,65,0
68464,note_on,0,0,2,,,,,,,,0,,,53,0
68472,note_on,32,0,3,,,,,,,,0,,,92,0
68480,note_on,8,0,3,,,,,,,,0,,,97,80
68480,note_on,0,0,2,,,,,,,,0,,,49,92
68480,note_on,16,0,2,,,,,,,,0,,,61,92
68512,note_on,32,0,3,,,,,,,,0,,,97,0
68520,note_on,8,0,3,,,,,,,,0,,,99,80
68544,note_on,0,0,2,,,,,,,,0,,,61,0
68544,note_on,64,0,2,,,,,,,,0,,,49,0
68552,note_on,32,0,3,,,,,,,,0,,,99,0
68560,note_on,8,0,3,,,,,,,,0,,,101,80
68560,note_on,0,0,2,,,,,,,,0,,,46,92
68560,note_on,16,0,2,,,,,,,,0,,,58,92
68624,note_on,64,0,3,,,,,,,,0,,,101,0
68624,note_on,64,0,2,,,,,,,,0,,,46,0
68624,note_on,0,0,2,,,,,,,,0,,,58,0
68640,control_change,16,0,3,,,,,,,,0,64,127,,
68640,note_on,16,0,2,,,,,,,,0,,,56,92
68640,note_on,0,0,2,,,,,,,,0,,,44,92
68760,note_on,120,0,3,,,,,,,,0,,,39,80
68840,note_on,80,0,3,,,,,,,,0,,,60,80
68856,note_on,16,0,3,,,,,,,,0,,,39,0
68880,note_on,0,0,3,,,,,,,,0,,,32,80
68880,note_on,24,0,3,,,,,,,,0,,,68,80
68912,note_on,0,0,3,,,,,,,,0,,,60,0
68912,note_on,32,0,3,,,,,,,,0,,,68,0
68920,note_on,8,0,3,,,,,,,,0,,,64,80
68952,note_on,32,0,3,,,,,,,,0,,,64,0
68960,note_on,8,0,3,,,,,,,,0,,,63,80
68976,note_on,16,0,3,,,,,,,,0,,,32,0
68992,note_on,16,0,3,,,,,,,,0,,,63,0
69000,note_on,8,0,3,,,,,,,,0,,,39,80
69000,note_on,0,0,3,,,,,,,,0,,,60,80
69024,note_on,384,0,2,,,,,,,,0,,,44,0
69024,note_on,0,0,2,,,,,,,,0,,,56,0
69032,note_on,32,0,3,,,,,,,,0,,,60,0
69040,note_on,8,0,3,,,,,,,,0,,,56,80
69072,note_on,32,0,3,,,,,,,,0,,,56,0
69096,note_on,24,0,3,,,,,,,,0,,,39,0
69120,note_on,96,0,2,,,,,,,,0,,,44,92
69120,control_change,24,0,3,,,,,,,,0,64,0,,
69120,note_on,0,0,2,,,,,,,,0,,,56,92
69150,control_change,30,0,3,,,,,,,,0,64,127,,
69240,note_on,90,0,3,,,,,,,,0,,,40,80
69336,note_on,96,0,3,,,,,,,,0,,,40,0
69340,note_on,4,0,3,,,,,,,,0,,,64,80
69360,note_on,20,0,3,,,,,,,,0,,,37,80
69380,note_on,20,0,3,,,,,,,,0,,,68,80
69412,note_on,32,0,3,,,,,,,,0,,,68,0
69412,note_on,0,0,3,,,,,,,,0,,,64,0
69420,note_on,8,0,3,,,,,,,,0,,,66,80
69452,note_on,32,0,3,,,,,,,,0,,,66,0
69456,note_on,0,0,2,,,,,,,,0,,,44,0
69456,note_on,336,0,2,,,,,,,,0,,,56,0
69456,note_on,4,0,3,,,,,,,,0,,,37,0
69460,note_on,4,0,3,,,,,,,,0,,,64,80
69480,note_on,20,0,3,,,,,,,,0,,,40,80
69492,note_on,12,0,3,,,,,,,,0,,,64,0
69500,note_on,8,0,3,,,,,,,,0,,,61,80
69532,note_on,32,0,3,,,,,,,,0,,,61,0
69540,note_on,84,0,2,,,,,,,,0,,,44,75
69540,note_on,8,0,3,,,,,,,,0,,,56,80
69540,note_on,0,0,2,,,,,,,,0,,,56,75
69572,note_on,32,0,3,,,,,,,,0,,,56,0
69576,note_on,4,0,3,,,,,,,,0,,,40,0
69588,note_on,48,0,2,,,,,,,,0,,,56,0
69588,note_on,0,0,2,,,,,,,,0,,,44,0
69600,note_on,12,0,2,,,,,,,,0,,,44,92
69600,note_on,0,0,2,,,,,,,,0,,,56,92
69600,control_change,24,0,3,,,,,,,,0,64,0,,
69645,control_change,45,0,3,,,,,,,,0,64,127,,
69720,note_on,75,0,3,,,,,,,,0,,,39,80
69800,note_on,80,0,3,,,,,,,,0,,,63,80
69816,note_on,16,0,3,,,,,,,,0,,,39,0
69840,note_on,24,0,3,,,,,,,,0,,,72,80
69840,note_on,0,0,3,,,,,,,,0,,,32,80
69872,note_on,0,0,3,,,,,,,,0,,,63,0
69872,note_on,32,0,3,,,,,,,,0,,,72,0
69880,note_on,8,0,3,,,,,,,,0,,,70,80
69912,note_on,32,0,3,,,,,,,,0,,,70,0
69920,note_on,8,0,3,,,,,,,,0,,,68,80
69936,note_on,16,0,3,,,,,,,,0,,,32,0
69952,note_on,16,0,3,,,,,,,,0,,,68,0
69960,note_on,8,0,3,,,,,,,,0,,,39,80
69960,note_on,0,0,3,,,,,,,,0,,,63,80
69984,note_on,0,0,2,,,,,,,,0,,,44,0
69984,note_on,384,0,2,,,,,,,,0,,,56,0
69992,note_on,32,0,3,,,,,,,,0,,,63,0
70000,note_on,8,0,3,,,,,,,,0,,,60,80
70032,note_on,32,0,3,,,,,,,,0,,,60,0
70040,note_on,8,0,3,,,,,,,,0,,,63,80
70056,note_on,16,0,3,,,,,,,,0,,,39,0
70072,note_on,16,0,3,,,,,,,,0,,,63,0
70080,note_on,0,0,3,,,,,,,,0,,,44,80
70080,note_on,8,0,3,,,,,,,,0,,,68,80
70112,note_on,32,0,3,,,,,,,,0,,,68,0
70120,note_on,8,0,3,,,,,,,,0,,,70,80
70152,note_on,32,0,3,,,,,,,,0,,,70,0
70160,note_on,176,0,2,,,,,,,,0,,,44,92
70160,note_on,8,0,3,,,,,,,,0,,,72,80
70160,note_on,0,0,2,,,,,,,,0,,,56,92
70170,control_change,10,0,3,,,,,,,,0,64,0,,
70176,note_on,6,0,3,,,,,,,,0,,,44,0
70192,note_on,16,0,3,,,,,,,,0,,,72,0
70200,note_on,8,0,3,,,,,,,,0,,,75,80
70224,note_on,64,0,2,,,,,,,,0,,,56,0
70224,note_on,0,0,2,,,,,,,,0,,,44,0
70232,note_on,32,0,3,,,,,,,,0,,,75,0
70240,note_on,0,0,2,,,,,,,,0,,,58,92
70240,note_on,8,0,3,,,,,,,,0,,,80,80
70240,note_on,16,0,2,,,,,,,,0,,,46,92
70272,note_on,32,0,3,,,,,,,,0,,,80,0
70280,note_on,8,0,3,,,,,,,,0,,,82,80
70304,note_on,64,0,2,,,,,,,,0,,,58,0
70304,note_on,0,0,2,,,,,,,,0,,,46,0
70312,note_on,32,0,3,,,,,,,,0,,,82,0
70320,note_on,16,0,2,,,,,,,,0,,,47,92
70320,note_on,0,0,2,,,,,,,,0,,,59,92
70320,note_on,8,0,3,,,,,,,,0,,,84,80
70352,note_on,32,0,3,,,,,,,,0,,,84,0
70360,note_on,8,0,3,,,,,,,,0,,,87,80
70368,note_on,48,0,2,,,,,,,,0,,,59,0
70368,note_on,0,0,2,,,,,,,,0,,,47,0
70380,note_on,0,0,2,,,,,,,,0,,,48,92
70380,note_on,12,0,2,,,,,,,,0,,,60,92
70392,note_on,32,0,3,,,,,,,,0,,,87,0
70400,note_on,8,0,3,,,,,,,,0,,,92,80
70428,note_on,48,0,2,,,,,,,,0,,,48,0
70428,note_on,0,0,2,,,,,,,,0,,,60,0
70432,note_on,32,0,3,,,,,,,,0,,,92,0
70440,note_on,12,0,2,,,,,,,,0,,,49,92
70440,note_on,0,0,2,,,,,,,,0,,,61,92
70440,note_on,8,0,3,,,,,,,,0,,,94,80
70472,note_on,32,0,3,,,,,,,,0,,,94,0
70480,note_on,8,0,3,,,,,,,,0,,,96,80
70488,note_on,48,0,2,,,,,,,,0,,,61,0
70488,note_on,0,0,2,,,,,,,,0,,,49,0
70500,note_on,12,0,2,,,,,,,,0,,,62,92
70500,note_on,0,0,2,,,,,,,,0,,,50,92
70542,control_change,62,0,3,,,,,,,,0,64,127,,
70544,note_on,2,0,3,,,,,,,,0,,,96,0
70548,note_on,48,0,2,,,,,,,,0,,,50,0
70548,note_on,0,0,2,,,,,,,,0,,,62,0
70560,note_on,0,0,2,,,,,,,,0,,,51,92
70560,note_on,12,0,2,,,,,,,,0,,,63,92
70680,note_on,136,0,3,,,,,,,,0,,,46,80
70760,note_on,80,0,3,,,,,,,,0,,,58,80
70776,note_on,16,0,3,,,,,,,,0,,,46,0
70800,note_on,0,0,3,,,,,,,,0,,,39,80
70800,note_on,24,0,3,,,,,,,,0,,,66,80
70832,note_on,0,0,3,,,,,,,,0,,,58,0
70832,note_on,32,0,3,,,,,,,,0,,,66,0
70840,note_on,8,0,3,,,,,,,,0,,,65,80
70872,note_on,32,0,3,,,,,,,,0,,,65,0
70880,note_on,8,0,3,,,,,,,,0,,,63,80
70896,note_on,16,0,3,,,,,,,,0,,,39,0
70912,note_on,16,0,3,,,,,,,,0,,,63,0
70920,note_on,8,0,3,,,,,,,,0,,,58,80
70920,note_on,0,0,3,,,,,,,,0,,,46,80
70944,note_on,384,0,2,,,,,,,,0,,,51,0
70944,note_on,0,0,2,,,,,,,,0,,,63,0
70952,note_on,32,0,3,,,,,,,,0,,,58,0
70960,note_on,8,0,3,,,,,,,,0,,,54,80
70992,note_on,32,0,3,,,,,,,,0,,,54,0
71016,note_on,24,0,3,,,,,,,,0,,,46,0
71022,control_change,6,0,3,,,,,,,,0,64,0,,
71040,note_on,0,0,2,,,,,,,,0,,,63,92
71040,note_on,96,0,2,,,,,,,,0,,,51,92
71058,control_change,36,0,3,,,,,,,,0,64,127,,
71160,note_on,102,0,3,,,,,,,,0,,,47,80
71240,note_on,80,0,3,,,,,,,,0,,,63,80
71256,note_on,16,0,3,,,,,,,,0,,,47,0
71280,note_on,0,0,3,,,,,,,,0,,,44,80
71280,note_on,24,0,3,,,,,,,,0,,,71,80
71312,note_on,0,0,3,,,,,,,,0,,,63,0
71312,note_on,32,0,3,,,,,,,,0,,,71,0
71320,note_on,8,0,3,,,,,,,,0,,,70,80
71352,note_on,32,0,3,,,,,,,,0,,,70,0
71360,note_on,8,0,3,,,,,,,,0,,,68,80
71376,note_on,16,0,3,,,,,,,,0,,,44,0
71376,note_on,336,0,2,,,,,,,,0,,,63,0
71376,note_on,0,0,2,,,,,,,,0,,,51,0
71392,note_on,16,0,3,,,,,,,,0,,,68,0
71400,note_on,0,0,3,,,,,,,,0,,,63,80
71400,note_on,8,0,3,,,,,,,,0,,,47,80
71432,note_on,32,0,3,,,,,,,,0,,,63,0
71440,note_on,8,0,3,,,,,,,,0,,,59,80
71460,note_on,0,0,2,,,,,,,,0,,,63,92
71460,note_on,84,0,2,,,,,,,,0,,,51,92
71472,note_on,32,0,3,,,,,,,,0,,,59,0
71496,note_on,24,0,3,,,,,,,,0,,,47,0
71508,note_on,0,0,2,,,,,,,,0,,,51,0
71508,note_on,48,0,2,,,,,,,,0,,,63,0
71520,note_on,12,0,2,,,,,,,,0,,,63,92
71520,note_on,0,0,2,,,,,,,,0,,,51,92
71520,control_change,24,0,3,,,,,,,,0,64,0,,
71547,control_change,27,0,3,,,,,,,,0,64,127,,
71640,note_on,93,0,3,,,,,,,,0,,,46,80
71680,note_on,40,0,3,,,,,,,,0,,,66,80
71720,note_on,40,0,3,,,,,,,,0,,,70,80
71736,note_on,16,0,3,,,,,,,,0,,,46,0
71760,note_on,0,0,3,,,,,,,,0,,,78,80
71760,note_on,24,0,3,,,,,,,,0,,,39,80
71792,note_on,0,0,3,,,,,,,,0,,,66,0
71792,note_on,0,0,3,,,,,,,,0,,,70,0
71792,note_on,32,0,3,,,,,,,,0,,,78,0
71800,note_on,8,0,3,,,,,,,,0,,,77,80
71832,note_on,32,0,3,,,,,,,,0,,,77,0
71840,note_on,8,0,3,,,,,,,,0,,,75,80
71856,note_on,16,0,3,,,,,,,,0,,,39,0
71872,note_on,16,0,3,,,,,,,,0,,,75,0
71880,note_on,0,0,3,,,,,,,,0,,,46,80
71880,note_on,8,0,3,,,,,,,,0,,,70,80
71904,note_on,384,0,2,,,,,,,,0,,,51,0
71912,note_on,32,0,3,,,,,,,,0,,,70,0
71920,note_on,8,0,3,,,,,,,,0,,,66,80
71952,note_on,32,0,3,,,,,,,,0,,,66,0
71960,note_on,8,0,3,,,,,,,,0,,,70,80
71976,note_on,16,0,3,,,,,,,,0,,,46,0
71992,note_on,16,0,3,,,,,,,,0,,,70,0
72000,note_on,0,0,3,,,,,,,,0,,,51,80
72000,note_on,8,0,3,,,,,,,,0,,,75,80
72032,note_on,32,0,3,,,,,,,,0,,,75,0
72040,note_on,8,0,3,,,,,,,,0,,,77,80
72064,note_on,160,0,2,,,,,,,,0,,,63,0
72072,note_on,32,0,3,,,,,,,,0,,,77,0
72080,note_on,0,0,2,,,,,,,,0,,,62,92
72080,note_on,8,0,3,,,,,,,,0,,,78,80
72080,note_on,16,0,2,,,,,,,,0,,,50,92
72096,note_on,16,0,3,,,,,,,,0,,,51,0
72112,note_on,16,0,3,,,,,,,,0,,,78,0
72120,note_on,8,0,3,,,,,,,,0,,,82,80
72126,control_change,6,0,3,,,,,,,,0,64,0,,
72144,note_on,64,0,2,,,,,,,,0,,,62,0
72144,note_on,0,0,2,,,,,,,,0,,,50,0
72152,note_on,26,0,3,,,,,,,,0,,,82,0
72160,note_on,16,0,2,,,,,,,,0,,,51,92
72160,note_on,0,0,2,,,,,,,,0,,,63,92
72160,note_on,8,0,3,,,,,,,,0,,,87,80
72192,note_on,32,0,3,,,,,,,,0,,,87,0
72200,note_on,8,0,3,,,,,,,,0,,,89,80
72224,note_on,0,0,2,,,,,,,,0,,,51,0
72224,note_on,64,0,2,,,,,,,,0,,,63,0
72232,note_on,32,0,3,,,,,,,,0,,,89,0
72240,note_on,8,0,3,,,,,,,,0,,,90,80
72240,note_on,16,0,2,,,,,,,,0,,,66,92
72240,note_on,0,0,2,,,,,,,,0,,,54,92
72272,note_on,32,0,3,,,,,,,,0,,,90,0
72280,note_on,8,0,3,,,,,,,,0,,,94,80
72304,note_on,64,0,2,,,,,,,,0,,,54,0
72304,note_on,0,0,2,,,,,,,,0,,,66,0
72312,note_on,32,0,3,,,,,,,,0,,,94,0
72320,note_on,0,0,2,,,,,,,,0,,,65,92
72320,note_on,16,0,2,,,,,,,,0,,,53,92
72320,note_on,8,0,3,,,,,,,,0,,,99,80
72352,note_on,32,0,3,,,,,,,,0,,,99,0
72360,note_on,8,0,3,,,,,,,,0,,,101,80
72384,note_on,64,0,2,,,,,,,,0,,,65,0
72384,note_on,0,0,2,,,,,,,,0,,,53,0
72392,note_on,32,0,3,,,,,,,,0,,,101,0
72400,note_on,8,0,3,,,,,,,,0,,,102,80
72400,note_on,16,0,2,,,,,,,,0,,,51,92
72400,note_on,0,0,2,,,,,,,,0,,,63,92
72464,note_on,64,0,3,,,,,,,,0,,,102,0
72464,note_on,64,0,2,,,,,,,,0,,,63,0
72464,note_on,0,0,2,,,,,,,,0,,,51,0
72480,note_on,0,0,2,,,,,,,,0,,,49,92
72480,note_on,16,0,2,,,,,,,,0,,,61,92
72480,control_change,16,0,3,,,,,,,,0,64,127,,
72600,note_on,120,0,3,,,,,,,,0,,,46,80
72680,note_on,80,0,3,,,,,,,,0,,,66,80
72696,note_on,16,0,3,,,,,,,,0,,,46,0
72720,note_on,0,0,3,,,,,,,,0,,,70,80
72720,note_on,24,0,3,,,,,,,,0,,,37,80
72752,note_on,32,0,3,,,,,,,,0,,,70,0
72752,note_on,0,0,3,,,,,,,,0,,,66,0
72760,note_on,8,0,3,,,,,,,,0,,,68,80
72792,note_on,32,0,3,,,,,,,,0,,,68,0
72800,note_on,8,0,3,,,,,,,,0,,,66,80
72816,note_on,16,0,3,,,,,,,,0,,,37,0
72832,note_on,16,0,3,,,,,,,,0,,,66,0
72840,note_on,8,0,3,,,,,,,,0,,,61,80
72840,note_on,0,0,3,,,,,,,,0,,,46,80
72864,note_on,0,0,2,,,,,,,,0,,,61,0
72864,note_on,384,0,2,,,,,,,,0,,,49,0
72872,note_on,32,0,3,,,,,,,,0,,,61,0
72880,note_on,8,0,3,,,,,,,,0,,,58,80
72912,note_on,32,0,3,,,,,,,,0,,,58,0
72936,note_on,24,0,3,,,,,,,,0,,,46,0
72960,note_on,0,0,2,,,,,,,,0,,,49,92
72960,note_on,96,0,2,,,,,,,,0,,,61,92
72960,control_change,24,0,3,,,,,,,,0,64,0,,
72984,control_change,24,0,3,,,,,,,,0,64,127,,
73080,note_on,96,0,3,,,,,,,,0,,,47,80
73160,note_on,80,0,3,,,,,,,,0,,,65,80
73176,note_on,16,0,3,,,,,,,,0,,,47,0
73200,note_on,0,0,3,,,,,,,,0,,,73,80
73200,note_on,24,0,3,,,,,,,,0,,,37,80
73232,note_on,0,0,3,,,,,,,,0,,,65,0
73232,note_on,32,0,3,,,,,,,,0,,,73,0
73240,note_on,8,0,3,,,,,,,,0,,,71,80
73272,note_on,32,0,3,,,,,,,,0,,,71,0
73280,note_on,8,0,3,,,,,,,,0,,,68,80
73296,note_on,0,0,2,,,,,,,,0,,,61,0
73296,note_on,16,0,3,,,,,,,,0,,,37,0
73296,note_on,336,0,2,,,,,,,,0,,,49,0
73312,note_on,16,0,3,,,,,,,,0,,,68,0
73320,note_on,8,0,3,,,,,,,,0,,,65,80
73320,note_on,0,0,3,,,,,,,,0,,,47,80
73352,note_on,32,0,3,,,,,,,,0,,,65,0
73360,note_on,8,0,3,,,,,,,,0,,,61,80
73380,note_on,0,0,2,,,,,,,,0,,,49,92
73380,note_on,84,0,2,,,,,,,,0,,,61,92
73392,note_on,32,0,3,,,,,,,,0,,,61,0
73416,note_on,24,0,3,,,,,,,,0,,,47,0
73428,note_on,0,0,2,,,,,,,,0,,,61,0
73428,note_on,48,0,2,,,,,,,,0,,,49,0
73431,control_change,15,0,3,,,,,,,,0,64,0,,
73440,note_on,0,0,2,,,,,,,,0,,,58,92
73440,note_on,12,0,2,,,,,,,,0,,,70,92
73494,control_change,63,0,3,,,,,,,,0,64,127,,
73560,note_on,66,0,3,,,,,,,,0,,,49,80
73600,note_on,40,0,3,,,,,,,,0,,,70,80
73640,note_on,40,0,3,,,,,,,,0,,,73,80
73656,note_on,16,0,3,,,,,,,,0,,,49,0
73680,note_on,24,0,3,,,,,,,,0,,,82,80
73680,note_on,0,0,3,,,,,,,,0,,,46,80
73712,note_on,0,0,3,,,,,,,,0,,,70,0
73712,note_on,0,0,3,,,,,,,,0,,,73,0
73712,note_on,32,0,3,,,,,,,,0,,,82,0
73720,note_on,8,0,3,,,,,,,,0,,,80,80
73752,note_on,32,0,3,,,,,,,,0,,,80,0
73760,note_on,8,0,3,,,,,,,,0,,,78,80
73776,note_on,16,0,3,,,,,,,,0,,,46,0
73792,note_on,16,0,3,,,,,,,,0,,,78,0
73800,note_on,8,0,3,,,,,,,,0,,,42,80
73800,note_on,0,0,3,,,,,,,,0,,,73,80
73832,note_on,32,0,3,,,,,,,,0,,,73,0
73840,note_on,8,0,3,,,,,,,,0,,,70,80
73872,note_on,32,0,3,,,,,,,,0,,,70,0
73880,note_on,8,0,3,,,,,,,,0,,,73,80
73896,note_on,16,0,3,,,,,,,,0,,,42,0
73912,note_on,16,0,3,,,,,,,,0,,,73,0
73920,note_on,8,0,3,,,,,,,,0,,,37,80
73920,note_on,0,0,3,,,,,,,,0,,,78,80
73952,note_on,32,0,3,,,,,,,,0,,,78,0
73960,note_on,8,0,3,,,,,,,,0,,,80,80
73984,note_on,0,0,2,,,,,,,,0,,,70,0
73984,note_on,544,0,2,,,,,,,,0,,,58,0
73992,note_on,32,0,3,,,,,,,,0,,,80,0
74000,note_on,0,0,2,,,,,,,,0,,,53,92
74000,note_on,8,0,3,,,,,,,,0,,,82,80
74000,note_on,16,0,2,,,,,,,,0,,,65,92
74016,note_on,16,0,3,,,,,,,,0,,,37,0
74032,note_on,16,0,3,,,,,,,,0,,,82,0
74040,note_on,8,0,3,,,,,,,,0,,,85,80
74064,note_on,0,0,2,,,,,,,,0,,,65,0
74064,note_on,64,0,2,,,,,,,,0,,,53,0
74072,note_on,32,0,3,,,,,,,,0,,,85,0
74080,note_on,16,0,2,,,,,,,,0,,,66,92
74080,note_on,8,0,3,,,,,,,,0,,,90,80
74080,note_on,0,0,2,,,,,,,,0,,,54,92
74112,note_on,32,0,3,,,,,,,,0,,,90,0
74120,note_on,8,0,3,,,,,,,,0,,,92,80
74144,note_on,0,0,2,,,,,,,,0,,,66,0
74144,note_on,64,0,2,,,,,,,,0,,,54,0
74152,note_on,32,0,3,,,,,,,,0,,,92,0
74160,note_on,0,0,2,,,,,,,,0,,,68,92
74160,note_on,8,0,3,,,,,,,,0,,,94,80
74160,note_on,16,0,2,,,,,,,,0,,,56,92
74166,control_change,6,0,3,,,,,,,,0,64,0,,
74192,note_on,26,0,3,,,,,,,,0,,,94,0
74200,note_on,8,0,3,,,,,,,,0,,,92,80
74224,note_on,64,0,2,,,,,,,,0,,,68,0
74224,note_on,0,0,2,,,,,,,,0,,,56,0
74232,note_on,32,0,3,,,,,,,,0,,,92,0
74240,note_on,8,0,3,,,,,,,,0,,,90,80
74240,note_on,16,0,2,,,,,,,,0,,,66,92
74240,note_on,0,0,2,,,,,,,,0,,,54,92
74272,note_on,32,0,3,,,,,,,,0,,,90,0
74280,note_on,8,0,3,,,,,,,,0,,,82,80
74304,note_on,64,0,2,,,,,,,,0,,,54,0
74304,note_on,0,0,2,,,,,,,,0,,,66,0
74312,note_on,32,0,3,,,,,,,,0,,,82,0
74320,note_on,16,0,2,,,,,,,,0,,,63,92
74320,note_on,0,0,2,,,,,,,,0,,,51,92
74320,note_on,8,0,3,,,,,,,,0,,,94,80
74320,note_on,0,0,3,,,,,,,,0,,,97,80
74384,note_on,0,0,3,,,,,,,,0,,,94,0
74384,note_on,64,0,3,,,,,,,,0,,,97,0
74384,note_on,64,0,2,,,,,,,,0,,,51,0
74384,note_on,0,0,2,,,,,,,,0,,,63,0
74400,note_on,16,0,2,,,,,,,,0,,,61,92
74400,note_on,0,0,2,,,,,,,,0,,,49,92
74400,control_change,16,0,3,,,,,,,,0,64,127,,
74520,note_on,120,0,3,,,,,,,,0,,,46,80
74600,note_on,80,0,3,,,,,,,,0,,,66,80
74616,note_on,16,0,3,,,,,,,,0,,,46,0
74640,note_on,0,0,3,,,,,,,,0,,,70,80
74640,note_on,24,0,3,,,,,,,,0,,,37,80
74672,note_on,32,0,3,,,,,,,,0,,,70,0
74672,note_on,0,0,3,,,,,,,,0,,,66,0
74680,note_on,8,0,3,,,,,,,,0,,,68,80
74712,note_on,32,0,3,,,,,,,,0,,,68,0
74720,note_on,8,0,3,,,,,,,,0,,,66,80
74736,note_on,16,0,3,,,,,,,,0,,,37,0
74752,note_on,16,0,3,,,,,,,,0,,,66,0
74760,note_on,0,0,3,,,,,,,,0,,,46,80
74760,note_on,8,0,3,,,,,,,,0,,,61,80
74784,note_on,0,0,2,,,,,,,,0,,,61,0
74784,note_on,384,0,2,,,,,,,,0,,,49,0
74792,note_on,32,0,3,,,,,,,,0,,,61,0
74800,note_on,8,0,3,,,,,,,,0,,,58,80
74832,note_on,32,0,3,,,,,,,,0,,,58,0
74856,note_on,24,0,3,,,,,,,,0,,,46,0
74880,control_change,24,0,3,,,,,,,,0,64,0,,
74880,note_on,96,0,2,,,,,,,,0,,,49,92
74880,note_on,0,0,2,,,,,,,,0,,,61,92
74916,control_change,36,0,3,,,,,,,,0,64,127,,
75000,note_on,84,0,3,,,,,,,,0,,,47,80
75080,note_on,80,0,3,,,,,,,,0,,,65,80
75096,note_on,16,0,3,,,,,,,,0,,,47,0
75120,note_on,24,0,3,,,,,,,,0,,,37,80
75120,note_on,0,0,3,,,,,,,,0,,,73,80
75152,note_on,0,0,3,,,,,,,,0,,,65,0
75152,note_on,32,0,3,,,,,,,,0,,,73,0
75160,note_on,8,0,3,,,,,,,,0,,,71,80
75192,note_on,32,0,3,,,,,,,,0,,,71,0
75200,note_on,8,0,3,,,,,,,,0,,,68,80
75216,note_on,0,0,2,,,,,,,,0,,,49,0
75216,note_on,16,0,3,,,,,,,,0,,,37,0
75216,note_on,336,0,2,,,,,,,,0,,,61,0
75232,note_on,16,0,3,,,,,,,,0,,,68,0
75240,note_on,0,0,3,,,,,,,,0,,,47,80
75240,note_on,8,0,3,,,,,,,,0,,,65,80
75272,note_on,32,0,3,,,,,,,,0,,,65,0
75280,note_on,8,0,3,,,,,,,,0,,,63,80
75300,note_on,0,0,2,,,,,,,,0,,,61,92
75300,note_on,84,0,2,,,,,,,,0,,,49,92
75312,note_on,32,0,3,,,,,,,,0,,,63,0
75336,note_on,24,0,3,,,,,,,,0,,,47,0
75348,note_on,0,0,2,,,,,,,,0,,,49,0
75348,note_on,48,0,2,,,,,,,,0,,,61,0
75360,note_on,0,0,2,,,,,,,,0,,,70,92
75360,note_on,12,0,2,,,,,,,,0,,,58,92
75387,control_change,51,0,3,,,,,,,,0,64,0,,
75438,control_change,51,0,3,,,,,,,,0,64,127,,
75480,note_on,42,0,3,,,,,,,,0,,,49,80
75520,note_on,40,0,3,,,,,,,,0,,,70,80
75560,note_on,40,0,3,,,,,,,,0,,,73,80
75576,note_on,16,0,3,,,,,,,,0,,,49,0
75600,note_on,0,0,3,,,,,,,,0,,,82,80
75600,note_on,24,0,3,,,,,,,,0,,,42,80
75632,note_on,0,0,3,,,,,,,,0,,,73,0
75632,note_on,0,0,3,,,,,,,,0,,,70,0
75632,note_on,32,0,3,,,,,,,,0,,,82,0
75640,note_on,8,0,3,,,,,,,,0,,,80,80
75672,note_on,32,0,3,,,,,,,,0,,,80,0
75680,note_on,8,0,3,,,,,,,,0,,,78,80
75696,note_on,16,0,3,,,,,,,,0,,,42,0
75712,note_on,16,0,3,,,,,,,,0,,,78,0
75720,note_on,8,0,3,,,,,,,,0,,,73,80
75720,note_on,0,0,3,,,,,,,,0,,,49,80
75744,note_on,384,0,2,,,,,,,,0,,,70,0
75744,note_on,0,0,2,,,,,,,,0,,,58,0
75752,note_on,32,0,3,,,,,,,,0,,,73,0
75760,note_on,8,0,3,,,,,,,,0,,,70,80
75792,note_on,32,0,3,,,,,,,,0,,,70,0
75800,note_on,8,0,3,,,,,,,,0,,,73,80
75816,note_on,16,0,3,,,,,,,,0,,,49,0
75832,note_on,16,0,3,,,,,,,,0,,,73,0
75840,note_on,0,0,2,,,,,,,,0,,,64,92
75840,note_on,96,0,2,,,,,,,,0,,,52,92
75840,note_on,8,0,3,,,,,,,,0,,,78,80
75872,note_on,32,0,3,,,,,,,,0,,,78,0
75880,note_on,8,0,3,,,,,,,,0,,,80,80
75912,note_on,32,0,3,,,,,,,,0,,,80,0
75920,note_on,8,0,3,,,,,,,,0,,,82,80
75952,note_on,32,0,3,,,,,,,,0,,,82,0
75960,note_on,0,0,3,,,,,,,,0,,,49,80
75960,note_on,8,0,3,,,,,,,,0,,,85,80
75992,note_on,32,0,3,,,,,,,,0,,,85,0
76000,note_on,8,0,3,,,,,,,,0,,,90,80
76032,note_on,32,0,3,,,,,,,,0,,,90,0
76040,note_on,8,0,3,,,,,,,,0,,,92,80
76056,note_on,16,0,3,,,,,,,,0,,,49,0
76072,note_on,16,0,3,,,,,,,,0,,,92,0
76080,note_on,0,0,3,,,,,,,,0,,,94,80
76080,note_on,8,0,3,,,,,,,,0,,,46,80
76092,control_change,12,0,3,,,,,,,,0,64,0,,
76112,note_on,20,0,3,,,,,,,,0,,,94,0
76120,note_on,8,0,3,,,,,,,,0,,,92,80
76152,note_on,32,0,3,,,,,,,,0,,,92,0
76160,note_on,8,0,3,,,,,,,,0,,,90,80
76176,note_on,16,0,3,,,,,,,,0,,,46,0
76176,note_on,336,0,2,,,,,,,,0,,,64,0
76176,note_on,0,0,2,,,,,,,,0,,,52,0
76192,note_on,16,0,3,,,,,,,,0,,,90,0
76200,note_on,8,0,3,,,,,,,,0,,,82,80
76200,note_on,0,0,3,,,,,,,,0,,,42,80
76232,note_on,32,0,3,,,,,,,,0,,,82,0
76240,note_on,8,0,3,,,,,,,,0,,,97,80
76240,note_on,0,0,3,,,,,,,,0,,,94,80
76260,note_on,0,0,2,,,,,,,,0,,,52,92
76260,note_on,84,0,2,,,,,,,,0,,,64,92
76296,note_on,56,0,3,,,,,,,,0,,,42,0
76304,note_on,8,0,3,,,,,,,,0,,,94,0
76304,note_on,0,0,3,,,,,,,,0,,,97,0
76308,note_on,0,0,2,,,,,,,,0,,,64,0
76308,note_on,48,0,2,,,,,,,,0,,,52,0
76311,control_change,7,0,3,,,,,,,,0,64,127,,
76320,note_on,0,0,2,,,,,,,,0,,,65,92
76320,note_on,12,0,2,,,,,,,,0,,,53,110
76440,note_on,129,0,3,,,,,,,,0,,,46,80
76480,note_on,21286,0,1,,,,,,,,0,,,61,80
76512,note_on,192,0,2,,,,,,,,0,,,65,0
76512,note_on,0,0,2,,,,,,,,0,,,53,0
76520,note_on,40,0,1,,,,,,,,0,,,70,80
76536,note_on,96,0,3,,,,,,,,0,,,46,0
76560,note_on,40,0,1,,,,,,,,0,,,73,80
76560,note_on,0,0,2,,,,,,,,0,,,53,110
76560,note_on,48,0,2,,,,,,,,0,,,65,92
76592,note_on,0,0,1,,,,,,,,0,,,61,0
76592,note_on,0,0,1,,,,,,,,0,,,70,0
76592,note_on,32,0,1,,,,,,,,0,,,73,0
76600,note_on,8,0,1,,,,,,,,0,,,72,80
76632,note_on,32,0,1,,,,,,,,0,,,72,0
76640,note_on,8,0,1,,,,,,,,0,,,70,80
76672,note_on,32,0,1,,,,,,,,0,,,70,0
76680,note_on,8,0,1,,,,,,,,0,,,65,80
76680,note_on,144,0,3,,,,,,,,0,,,41,80
76712,note_on,32,0,1,,,,,,,,0,,,65,0
76720,note_on,8,0,1,,,,,,,,0,,,61,80
76728,note_on,0,0,2,,,,,,,,0,,,65,0
76728,note_on,168,0,2,,,,,,,,0,,,53,0
76752,note_on,32,0,1,,,,,,,,0,,,61,0
76760,note_on,8,0,1,,,,,,,,0,,,70,80
76770,note_on,0,0,2,,,,,,,,0,,,65,92
76770,note_on,42,0,2,,,,,,,,0,,,53,92
76776,note_on,96,0,3,,,,,,,,0,,,41,0
76792,note_on,32,0,1,,,,,,,,0,,,70,0
76794,note_on,24,0,2,,,,,,,,0,,,65,0
76794,note_on,0,0,2,,,,,,,,0,,,53,0
76800,note_on,8,0,1,,,,,,,,0,,,63,80
76800,note_on,6,0,2,,,,,,,,0,,,65,92
76800,control_change,24,0,3,,,,,,,,0,64,0,,
76800,note_on,0,0,2,,,,,,,,0,,,53,110
76830,control_change,30,0,3,,,,,,,,0,64,127,,
76832,note_on,32,0,1,,,,,,,,0,,,63,0
76840,note_on,8,0,1,,,,,,,,0,,,69,80
76880,note_on,40,0,1,,,,,,,,0,,,72,80
76912,note_on,32,0,1,,,,,,,,0,,,72,0
76912,note_on,0,0,1,,,,,,,,0,,,69,0
76920,note_on,90,0,3,,,,,,,,0,,,42,80
76920,note_on,8,0,1,,,,,,,,0,,,77,80
76952,note_on,32,0,1,,,,,,,,0,,,77,0
76960,note_on,8,0,1,,,,,,,,0,,,75,80
76992,note_on,0,0,2,,,,,,,,0,,,65,0
76992,note_on,32,0,1,,,,,,,,0,,,75,0
76992,note_on,192,0,2,,,,,,,,0,,,53,0
77000,note_on,8,0,1,,,,,,,,0,,,81,80
77016,note_on,96,0,3,,,,,,,,0,,,42,0
77040,note_on,48,0,2,,,,,,,,0,,,65,92
77040,note_on,0,0,2,,,,,,,,0,,,53,110
77040,note_on,40,0,1,,,,,,,,0,,,84,80
77072,note_on,32,0,1,,,,,,,,0,,,84,0
77072,note_on,0,0,1,,,,,,,,0,,,81,0
77080,note_on,8,0,1,,,,,,,,0,,,89,80
77112,note_on,32,0,1,,,,,,,,0,,,89,0
77120,note_on,8,0,1,,,,,,,,0,,,87,80
77152,note_on,32,0,1,,,,,,,,0,,,87,0
77160,note_on,144,0,3,,,,,,,,0,,,41,80
77160,note_on,8,0,1,,,,,,,,0,,,93,80
77200,note_on,40,0,1,,,,,,,,0,,,96,80
77232,note_on,32,0,1,,,,,,,,0,,,96,0
77232,note_on,192,0,2,,,,,,,,0,,,53,0
77232,note_on,0,0,2,,,,,,,,0,,,65,0
77232,note_on,0,0,1,,,,,,,,0,,,93,0
77240,note_on,8,0,1,,,,,,,,0,,,100,80
77256,note_on,96,0,3,,,,,,,,0,,,41,0
77272,note_on,32,0,1,,,,,,,,0,,,100,0
77280,control_change,24,0,3,,,,,,,,0,64,0,,
77280,note_on,0,0,2,,,,,,,,0,,,59,88
77280,note_on,0,0,3,,,,,,,,0,,,87,80
77280,note_on,48,0,2,,,,,,,,0,,,71,88
77310,note_on,30,0,3,,,,,,,,0,,,92,80
77331,control_change,21,0,3,,,,,,,,0,64,127,,
77340,note_on,9,0,3,,,,,,,,0,,,101,80
77364,note_on,0,0,3,,,,,,,,0,,,87,0
77364,note_on,0,0,3,,,,,,,,0,,,92,0
77364,note_on,24,0,3,,,,,,,,0,,,101,0
77370,note_on,6,0,3,,,,,,,,0,,,99,80
77394,note_on,24,0,3,,,,,,,,0,,,99,0
77400,note_on,6,0,3,,,,,,,,0,,,95,80
77424,note_on,24,0,3,,,,,,,,0,,,95,0
77430,note_on,6,0,3,,,,,,,,0,,,92,80
77440,note_on,10,0,3,,,,,,,,0,,,34,80
77454,note_on,14,0,3,,,,,,,,0,,,92,0
77460,note_on,6,0,3,,,,,,,,0,,,44,80
77460,note_on,0,0,3,,,,,,,,0,,,89,80
77480,note_on,20,0,3,,,,,,,,0,,,47,80
77484,note_on,4,0,3,,,,,,,,0,,,89,0
77490,note_on,6,0,3,,,,,,,,0,,,87,80
77514,note_on,24,0,3,,,,,,,,0,,,87,0
77520,note_on,6,0,3,,,,,,,,0,,,83,80
77550,note_on,30,0,3,,,,,,,,0,,,87,80
77580,note_on,30,0,3,,,,,,,,0,,,95,80
77604,note_on,0,0,3,,,,,,,,0,,,83,0
77604,note_on,0,0,3,,,,,,,,0,,,87,0
77604,note_on,24,0,3,,,,,,,,0,,,95,0
77610,note_on,6,0,3,,,,,,,,0,,,92,80
77634,note_on,24,0,3,,,,,,,,0,,,92,0
77640,note_on,6,0,3,,,,,,,,0,,,89,80
77664,note_on,24,0,3,,,,,,,,0,,,89,0
77670,note_on,6,0,3,,,,,,,,0,,,87,80
77672,note_on,2,0,3,,,,,,,,0,,,34,0
77672,note_on,0,0,3,,,,,,,,0,,,44,0
77672,note_on,0,0,3,,,,,,,,0,,,47,0
77694,note_on,22,0,3,,,,,,,,0,,,87,0
77700,note_on,6,0,3,,,,,,,,0,,,83,80
77724,note_on,24,0,3,,,,,,,,0,,,83,0
77730,note_on,6,0,3,,,,,,,,0,,,80,80
77754,note_on,24,0,3,,,,,,,,0,,,80,0
77760,note_on,6,0,3,,,,,,,,0,,,75,80
77790,note_on,30,0,3,,,,,,,,0,,,80,80
77820,note_on,30,0,3,,,,,,,,0,,,89,80
77844,note_on,0,0,3,,,,,,,,0,,,80,0
77844,note_on,0,0,3,,,,,,,,0,,,75,0
77844,note_on,24,0,3,,,,,,,,0,,,89,0
77850,note_on,6,0,3,,,,,,,,0,,,87,80
77856,note_on,0,0,2,,,,,,,,0,,,71,0
77856,note_on,576,0,2,,,,,,,,0,,,59,0
77874,note_on,24,0,3,,,,,,,,0,,,87,0
77880,note_on,24,0,2,,,,,,,,0,,,56,88
77880,note_on,0,0,2,,,,,,,,0,,,68,88
77880,note_on,6,0,3,,,,,,,,0,,,83,80
77904,note_on,24,0,3,,,,,,,,0,,,83,0
77910,note_on,6,0,3,,,,,,,,0,,,80,80
77934,note_on,24,0,3,,,,,,,,0,,,80,0
77940,note_on,6,0,3,,,,,,,,0,,,77,80
77964,note_on,24,0,3,,,,,,,,0,,,77,0
77970,note_on,6,0,3,,,,,,,,0,,,75,80
77976,note_on,0,0,2,,,,,,,,0,,,56,0
77976,note_on,96,0,2,,,,,,,,0,,,68,0
77994,note_on,24,0,3,,,,,,,,0,,,75,0
78000,note_on,6,0,3,,,,,,,,0,,,71,80
78000,note_on,0,0,2,,,,,,,,0,,,65,88
78000,note_on,24,0,2,,,,,,,,0,,,53,88
78030,note_on,30,0,3,,,,,,,,0,,,75,80
78060,note_on,30,0,3,,,,,,,,0,,,83,80
78084,note_on,0,0,3,,,,,,,,0,,,71,0
78084,note_on,0,0,3,,,,,,,,0,,,75,0
78084,note_on,24,0,3,,,,,,,,0,,,83,0
78090,note_on,6,0,3,,,,,,,,0,,,80,80
78096,note_on,96,0,2,,,,,,,,0,,,65,0
78096,note_on,0,0,2,,,,,,,,0,,,53,0
78114,note_on,24,0,3,,,,,,,,0,,,80,0
78120,note_on,0,0,2,,,,,,,,0,,,51,88
78120,note_on,6,0,3,,,,,,,,0,,,77,80
78120,note_on,24,0,2,,,,,,,,0,,,63,88
78144,note_on,24,0,3,,,,,,,,0,,,77,0
78150,note_on,6,0,3,,,,,,,,0,,,75,80
78174,note_on,24,0,3,,,,,,,,0,,,75,0
78180,note_on,6,0,3,,,,,,,,0,,,71,80
78204,note_on,24,0,3,,,,,,,,0,,,71,0
78210,note_on,6,0,3,,,,,,,,0,,,68,80
78216,note_on,96,0,2,,,,,,,,0,,,51,0
78216,note_on,0,0,2,,,,,,,,0,,,63,0
78234,note_on,24,0,3,,,,,,,,0,,,68,0
78240,note_on,0,0,3,,,,,,,,0,,,63,80
78240,note_on,0,0,2,,,,,,,,0,,,59,80
78240,control_change,6,0,3,,,,,,,,0,64,0,,
78240,note_on,24,0,2,,,,,,,,0,,,47,80
78260,control_change,20,0,3,,,,,,,,0,64,127,,
78270,note_on,10,0,3,,,,,,,,0,,,68,80
78300,note_on,30,0,3,,,,,,,,0,,,77,80
78324,note_on,0,0,3,,,,,,,,0,,,68,0
78324,note_on,24,0,3,,,,,,,,0,,,77,0
78324,note_on,0,0,3,,,,,,,,0,,,63,0
78330,note_on,6,0,3,,,,,,,,0,,,75,80
78336,note_on,96,0,2,,,,,,,,0,,,59,0
78336,note_on,0,0,2,,,,,,,,0,,,47,0
78354,note_on,24,0,3,,,,,,,,0,,,75,0
78360,note_on,6,0,3,,,,,,,,0,,,71,80
78360,note_on,0,0,2,,,,,,,,0,,,44,80
78360,note_on,24,0,2,,,,,,,,0,,,56,80
78384,note_on,24,0,3,,,,,,,,0,,,71,0
78390,note_on,6,0,3,,,,,,,,0,,,68,80
78414,note_on,24,0,3,,,,,,,,0,,,68,0
78420,note_on,6,0,3,,,,,,,,0,,,65,80
78444,note_on,24,0,3,,,,,,,,0,,,65,0
78450,note_on,6,0,3,,,,,,,,0,,,63,80
78456,note_on,0,0,2,,,,,,,,0,,,56,0
78456,note_on,96,0,2,,,,,,,,0,,,44,0
78474,note_on,24,0,3,,,,,,,,0,,,63,0
78480,note_on,6,0,3,,,,,,,,0,,,56,64
78480,note_on,0,0,2,,,,,,,,0,,,41,80
78480,note_on,24,0,2,,,,,,,,0,,,53,80
78500,note_on,20,0,3,,,,,,,,0,,,63,64
78520,note_on,20,0,3,,,,,,,,0,,,71,64
78556,note_on,0,0,3,,,,,,,,0,,,56,0
78556,note_on,36,0,3,,,,,,,,0,,,71,0
78556,note_on,0,0,3,,,,,,,,0,,,63,0
78560,note_on,4,0,3,,,,,,,,0,,,68,64
78576,note_on,96,0,2,,,,,,,,0,,,41,0
78576,note_on,16,0,3,,,,,,,,0,,,68,0
78576,note_on,0,0,2,,,,,,,,0,,,53,0
78580,note_on,4,0,3,,,,,,,,0,,,65,64
78596,note_on,16,0,3,,,,,,,,0,,,65,0
78600,note_on,4,0,3,,,,,,,,0,,,63,64
78600,note_on,0,0,2,,,,,,,,0,,,39,80
78600,note_on,24,0,2,,,,,,,,0,,,51,80
78616,note_on,16,0,3,,,,,,,,0,,,63,0
78620,note_on,4,0,3,,,,,,,,0,,,59,64
78636,note_on,16,0,3,,,,,,,,0,,,59,0
78640,note_on,4,0,3,,,,,,,,0,,,56,64
78656,note_on,16,0,3,,,,,,,,0,,,56,0
78660,note_on,4,0,3,,,,,,,,0,,,50,94
78676,note_on,16,0,3,,,,,,,,0,,,50,0
78680,note_on,4,0,3,,,,,,,,0,,,51,94
78695,control_change,15,0,3,,,,,,,,0,64,0,,
78696,note_on,96,0,2,,,,,,,,0,,,39,0
78696,note_on,0,0,2,,,,,,,,0,,,51,0
78696,note_on,1,0,3,,,,,,,,0,,,51,0
78700,note_on,4,0,3,,,,,,,,0,,,53,94
78713,control_change,13,0,3,,,,,,,,0,64,127,,
78716,note_on,3,0,3,,,,,,,,0,,,53,0
78720,note_on,0,0,3,,,,,,,,0,,,53,50
78720,note_on,0,0,3,,,,,,,,0,,,51,110
78720,note_on,4,0,3,,,,,,,,0,,,65,80
78720,note_on,0,0,3,,,,,,,,0,,,39,97
78768,note_on,48,0,3,,,,,,,,0,,,53,0
78768,note_on,0,0,3,,,,,,,,0,,,65,0
78780,note_on,0,0,3,,,,,,,,0,,,56,80
78780,note_on,12,0,3,,,,,,,,0,,,59,80
78800,note_on,104,0,2,,,,,,,,0,,,47,56
78800,note_on,0,0,2,,,,,,,,0,,,44,56
78800,note_on,0,0,2,,,,,,,,0,,,41,56
78828,note_on,0,0,3,,,,,,,,0,,,59,0
78828,note_on,48,0,3,,,,,,,,0,,,56,0
78840,note_on,12,0,3,,,,,,,,0,,,65,80
78864,note_on,64,0,2,,,,,,,,0,,,44,0
78864,note_on,0,0,2,,,,,,,,0,,,41,0
78864,note_on,0,0,2,,,,,,,,0,,,47,0
78880,note_on,0,0,2,,,,,,,,0,,,41,56
78880,note_on,0,0,2,,,,,,,,0,,,44,56
78880,note_on,16,0,2,,,,,,,,0,,,47,56
78888,note_on,48,0,3,,,,,,,,0,,,65,0
78900,note_on,0,0,3,,,,,,,,0,,,68,80
78900,note_on,12,0,3,,,,,,,,0,,,71,80
78944,note_on,0,0,2,,,,,,,,0,,,44,0
78944,note_on,64,0,2,,,,,,,,0,,,41,0
78944,note_on,0,0,2,,,,,,,,0,,,47,0
78948,note_on,48,0,3,,,,,,,,0,,,68,0
78948,note_on,0,0,3,,,,,,,,0,,,71,0
78960,note_on,16,0,2,,,,,,,,0,,,47,56
78960,note_on,12,0,3,,,,,,,,0,,,65,80
78960,note_on,0,0,2,,,,,,,,0,,,44,56
78960,note_on,0,0,2,,,,,,,,0,,,41,56
78960,note_on,0,0,3,,,,,,,,0,,,77,80
79008,note_on,48,0,3,,,,,,,,0,,,77,0
79008,note_on,0,0,3,,,,,,,,0,,,65,0
79020,note_on,12,0,3,,,,,,,,0,,,68,80
79020,note_on,0,0,3,,,,,,,,0,,,71,80
79056,note_on,36,0,3,,,,,,,,0,,,51,0
79056,note_on,96,0,2,,,,,,,,0,,,44,0
79056,note_on,0,0,2,,,,,,,,0,,,47,0
79056,note_on,0,0,2,,,,,,,,0,,,41,0
79056,note_on,0,0,3,,,,,,,,0,,,39,0
79068,note_on,0,0,3,,,,,,,,0,,,71,0
79068,note_on,12,0,3,,,,,,,,0,,,68,0
79080,note_on,12,0,3,,,,,,,,0,,,65,80
79128,note_on,48,0,3,,,,,,,,0,,,65,0
79140,note_on,0,0,3,,,,,,,,0,,,38,97
79140,note_on,0,0,3,,,,,,,,0,,,50,97
79140,note_on,0,0,3,,,,,,,,0,,,59,80
79140,note_on,12,0,3,,,,,,,,0,,,56,80
79188,note_on,0,0,3,,,,,,,,0,,,38,0
79188,note_on,48,0,3,,,,,,,,0,,,50,0
79188,note_on,0,0,3,,,,,,,,0,,,56,0
79188,note_on,0,0,3,,,,,,,,0,,,59,0
79193,control_change,5,0,3,,,,,,,,0,64,0,,
79200,note_on,7,0,3,,,,,,,,0,,,58,80
79200,note_on,0,0,3,,,,,,,,0,,,38,87
79200,note_on,0,0,3,,,,,,,,0,,,41,78
79200,note_on,0,0,3,,,,,,,,0,,,44,78
79200,note_on,0,0,3,,,,,,,,0,,,50,87
79200,note_on,0,0,3,,,,,,,,0,,,70,80
79200,note_on,0,0,3,,,,,,,,0,,,46,78
79233,control_change,33,0,3,,,,,,,,0,64,127,,
79248,note_on,15,0,3,,,,,,,,0,,,70,0
79248,note_on,0,0,3,,,,,,,,0,,,58,0
79260,note_on,0,0,3,,,,,,,,0,,,68,80
79260,note_on,12,0,3,,,,,,,,0,,,65,80
79296,note_on,36,0,3,,,,,,,,0,,,50,0
79296,note_on,0,0,3,,,,,,,,0,,,46,0
79296,note_on,0,0,3,,,,,,,,0,,,44,0
79296,note_on,0,0,3,,,,,,,,0,,,41,0
79296,note_on,0,0,3,,,,,,,,0,,,38,0
79308,note_on,12,0,3,,,,,,,,0,,,68,0
79308,note_on,0,0,3,,,,,,,,0,,,65,0
79320,note_on,12,0,3,,,,,,,,0,,,70,80
79368,note_on,48,0,3,,,,,,,,0,,,70,0
79380,note_on,12,0,3,,,,,,,,0,,,80,80
79380,note_on,0,0,3,,,,,,,,0,,,77,80
79428,note_on,48,0,3,,,,,,,,0,,,77,0
79428,note_on,0,0,3,,,,,,,,0,,,80,0
79440,note_on,0,0,3,,,,,,,,0,,,58,97
79440,note_on,0,0,3,,,,,,,,0,,,82,80
79440,note_on,12,0,3,,,,,,,,0,,,70,80
79488,note_on,48,0,3,,,,,,,,0,,,82,0
79488,note_on,0,0,3,,,,,,,,0,,,70,0
79500,note_on,12,0,3,,,,,,,,0,,,80,80
79500,note_on,0,0,3,,,,,,,,0,,,77,80
79536,note_on,36,0,3,,,,,,,,0,,,58,0
79548,note_on,12,0,3,,,,,,,,0,,,77,0
79548,note_on,0,0,3,,,,,,,,0,,,80,0
79560,note_on,0,0,3,,,,,,,,0,,,70,80
79560,note_on,12,0,3,,,,,,,,0,,,46,107
79592,note_on,32,0,3,,,,,,,,0,,,46,0
79600,note_on,8,0,3,,,,,,,,0,,,47,107
79608,note_on,8,0,3,,,,,,,,0,,,70,0
79620,note_on,0,0,3,,,,,,,,0,,,68,80
79620,note_on,12,0,3,,,,,,,,0,,,65,80
79632,note_on,12,0,3,,,,,,,,0,,,47,0
79640,note_on,8,0,3,,,,,,,,0,,,49,107
79668,note_on,0,0,3,,,,,,,,0,,,65,0
79668,note_on,28,0,3,,,,,,,,0,,,68,0
79672,note_on,4,0,3,,,,,,,,0,,,49,0
79674,control_change,2,0,3,,,,,,,,0,64,0,,
79680,note_on,0,0,3,,,,,,,,0,,,35,97
79680,note_on,0,0,3,,,,,,,,0,,,47,97
79680,note_on,6,0,3,,,,,,,,0,,,75,80
79680,note_on,0,0,3,,,,,,,,0,,,63,80
79698,control_change,18,0,3,,,,,,,,0,64,127,,
79728,note_on,30,0,3,,,,,,,,0,,,63,0
79728,note_on,0,0,3,,,,,,,,0,,,75,0
79740,note_on,12,0,3,,,,,,,,0,,,68,80
79740,note_on,0,0,3,,,,,,,,0,,,65,80
79760,note_on,0,0,2,,,,,,,,0,,,39,64
79760,note_on,704,0,2,,,,,,,,0,,,44,64
79760,note_on,0,0,2,,,,,,,,0,,,41,64
79788,note_on,48,0,3,,,,,,,,0,,,65,0
79788,note_on,0,0,3,,,,,,,,0,,,68,0
79800,note_on,12,0,3,,,,,,,,0,,,75,80
79824,note_on,0,0,2,,,,,,,,0,,,44,0
79824,note_on,0,0,2,,,,,,,,0,,,39,0
79824,note_on,64,0,2,,,,,,,,0,,,41,0
79840,note_on,16,0,2,,,,,,,,0,,,44,64
79840,note_on,0,0,2,,,,,,,,0,,,41,64
79840,note_on,0,0,2,,,,,,,,0,,,39,64
79848,note_on,48,0,3,,,,,,,,0,,,75,0
79860,note_on,12,0,3,,,,,,,,0,,,77,80
79860,note_on,0,0,3,,,,,,,,0,,,80,80
79904,note_on,0,0,2,,,,,,,,0,,,44,0
79904,note_on,0,0,2,,,,,,,,0,,,41,0
79904,note_on,64,0,2,,,,,,,,0,,,39,0
79908,note_on,0,0,3,,,,,,,,0,,,77,0
79908,note_on,48,0,3,,,,,,,,0,,,80,0
79920,note_on,0,0,3,,,,,,,,0,,,75,80
79920,note_on,16,0,2,,,,,,,,0,,,39,64
79920,note_on,0,0,2,,,,,,,,0,,,44,64
79920,note_on,0,0,2,,,,,,,,0,,,41,64
79920,note_on,12,0,3,,,,,,,,0,,,87,80
79968,note_on,48,0,3,,,,,,,,0,,,75,0
79968,note_on,0,0,3,,,,,,,,0,,,87,0
79980,note_on,12,0,3,,,,,,,,0,,,77,80
79980,note_on,0,0,3,,,,,,,,0,,,80,80
80016,note_on,0,0,2,,,,,,,,0,,,39,0
80016,note_on,36,0,3,,,,,,,,0,,,47,0
80016,note_on,0,0,3,,,,,,,,0,,,35,0
80016,note_on,96,0,2,,,,,,,,0,,,41,0
80016,note_on,0,0,2,,,,,,,,0,,,44,0
80028,note_on,0,0,3,,,,,,,,0,,,80,0
80028,note_on,12,0,3,,,,,,,,0,,,77,0
80040,note_on,12,0,3,,,,,,,,0,,,75,80
80088,note_on,48,0,3,,,,,,,,0,,,75,0
80100,note_on,0,0,3,,,,,,,,0,,,68,80
80100,note_on,0,0,3,,,,,,,,0,,,34,97
80100,note_on,0,0,3,,,,,,,,0,,,46,97
80100,note_on,12,0,3,,,,,,,,0,,,65,80
80148,note_on,0,0,3,,,,,,,,0,,,34,0
80148,note_on,0,0,3,,,,,,,,0,,,46,0
80148,note_on,0,0,3,,,,,,,,0,,,65,0
80148,note_on,48,0,3,,,,,,,,0,,,68,0
80158,set_tempo,13478,1,0,,,,,,498339,,,,,,
80160,note_on,0,0,3,,,,,,,,0,,,74,80
80160,note_on,0,0,3,,,,,,,,0,,,62,80
80160,note_on,0,0,3,,,,,,,,0,,,46,80
80160,note_on,0,0,3,,,,,,,,0,,,41,80
80160,note_on,0,0,3,,,,,,,,0,,,34,80
80160,note_on,12,0,3,,,,,,,,0,,,38,80
80177,set_tempo,19,1,0,,,,,,500835,,,,,,
80178,control_change,18,0,3,,,,,,,,0,64,0,,
80208,note_on,0,0,3,,,,,,,,0,,,74,0
80208,note_on,30,0,3,,,,,,,,0,,,62,0
80215,set_tempo,38,1,0,,,,,,503356,,,,,,
80220,note_on,12,0,3,,,,,,,,0,,,68,80
80220,note_on,0,0,3,,,,,,,,0,,,65,80
80253,set_tempo,38,1,0,,,,,,505902,,,,,,
80256,note_on,0,0,3,,,,,,,,0,,,41,0
80256,note_on,0,0,3,,,,,,,,0,,,46,0
80256,note_on,36,0,3,,,,,,,,0,,,34,0
80256,note_on,0,0,3,,,,,,,,0,,,38,0
80268,note_on,12,0,3,,,,,,,,0,,,65,0
80268,note_on,0,0,3,,,,,,,,0,,,68,0
80280,note_on,12,0,3,,,,,,,,0,,,74,80
80280,note_on,0,0,3,,,,,,,,0,,,62,80
80291,set_tempo,38,1,0,,,,,,508475,,,,,,
80328,note_on,48,0,3,,,,,,,,0,,,74,0
80329,set_tempo,38,1,0,,,,,,511073,,,,,,
80340,note_on,12,0,3,,,,,,,,0,,,86,80
80367,set_tempo,38,1,0,,,,,,513699,,,,,,
80376,note_on,36,0,3,,,,,,,,0,,,62,0
80388,note_on,12,0,3,,,,,,,,0,,,86,0
80400,note_on,0,0,3,,,,,,,,0,,,44,80
80400,note_on,12,0,3,,,,,,,,0,,,56,80
80400,note_on,0,0,3,,,,,,,,0,,,77,80
80400,note_on,0,0,3,,,,,,,,0,,,65,80
80404,set_tempo,37,1,0,,,,,,516351,,,,,,
80436,set_tempo,32,1,0,,,,,,519031,,,,,,
80448,note_on,48,0,3,,,,,,,,0,,,65,0
80448,note_on,0,0,3,,,,,,,,0,,,77,0
80460,note_on,12,0,3,,,,,,,,0,,,74,80
80460,note_on,0,0,3,,,,,,,,0,,,70,80
80474,set_tempo,38,1,0,,,,,,521739,,,,,,
80496,note_on,36,0,3,,,,,,,,0,,,44,0
80496,note_on,0,0,3,,,,,,,,0,,,56,0
80508,note_on,0,0,3,,,,,,,,0,,,70,0
80508,note_on,12,0,3,,,,,,,,0,,,74,0
80512,set_tempo,38,1,0,,,,,,524476,,,,,,
80520,note_on,12,0,3,,,,,,,,0,,,65,80
80520,note_on,0,0,3,,,,,,,,0,,,77,80
80550,set_tempo,38,1,0,,,,,,527241,,,,,,
80568,note_on,48,0,3,,,,,,,,0,,,77,0
80580,note_on,12,0,3,,,,,,,,0,,,89,80
80588,set_tempo,38,1,0,,,,,,530035,,,,,,
80616,note_on,36,0,3,,,,,,,,0,,,65,0
80625,set_tempo,37,1,0,,,,,,532860,,,,,,
80628,note_on,12,0,3,,,,,,,,0,,,89,0
80640,note_on,0,0,3,,,,,,,,0,,,53,80
80640,note_on,0,0,3,,,,,,,,0,,,69,80
80640,note_on,0,0,3,,,,,,,,0,,,81,80
80640,note_on,12,0,3,,,,,,,,0,,,41,80
80657,set_tempo,32,1,0,,,,,,535714,,,,,,
80688,note_on,48,0,3,,,,,,,,0,,,81,0
80688,note_on,0,0,3,,,,,,,,0,,,69,0
80695,set_tempo,38,1,0,,,,,,538600,,,,,,
80700,note_on,12,0,3,,,,,,,,0,,,74,80
80700,note_on,0,0,3,,,,,,,,0,,,77,80
80733,set_tempo,38,1,0,,,,,,541516,,,,,,
80736,note_on,36,0,3,,,,,,,,0,,,41,0
80736,note_on,0,0,3,,,,,,,,0,,,53,0
80748,note_on,0,0,3,,,,,,,,0,,,77,0
80748,note_on,12,0,3,,,,,,,,0,,,74,0
80760,note_on,0,0,3,,,,,,,,0,,,81,80
80760,note_on,0,0,3,,,,,,,,0,,,57,80
80760,note_on,12,0,3,,,,,,,,0,,,69,80
80771,set_tempo,38,1,0,,,,,,544465,,,,,,
80808,note_on,48,0,3,,,,,,,,0,,,81,0
80809,set_tempo,38,1,0,,,,,,547445,,,,,,
80820,note_on,12,0,3,,,,,,,,0,,,93,80
80847,set_tempo,38,1,0,,,,,,550459,,,,,,
80856,note_on,0,0,3,,,,,,,,0,,,69,0
80856,note_on,36,0,3,,,,,,,,0,,,57,0
80868,note_on,12,0,3,,,,,,,,0,,,93,0
80880,note_on,0,0,3,,,,,,,,0,,,44,80
80880,note_on,0,0,3,,,,,,,,0,,,50,80
80880,note_on,12,0,3,,,,,,,,0,,,41,80
80880,note_on,0,0,3,,,,,,,,0,,,82,80
80880,note_on,0,0,3,,,,,,,,0,,,38,80
80880,note_on,0,0,3,,,,,,,,0,,,70,80
80884,set_tempo,37,1,0,,,,,,553506,,,,,,
80916,set_tempo,32,1,0,,,,,,556586,,,,,,
80928,note_on,48,0,3,,,,,,,,0,,,70,0
80928,note_on,0,0,3,,,,,,,,0,,,82,0
80940,note_on,12,0,3,,,,,,,,0,,,80,80
80940,note_on,0,0,3,,,,,,,,0,,,77,80
80954,set_tempo,38,1,0,,,,,,559701,,,,,,
80976,note_on,36,0,3,,,,,,,,0,,,44,0
80976,note_on,0,0,3,,,,,,,,0,,,38,0
80976,note_on,0,0,3,,,,,,,,0,,,41,0
80976,note_on,0,0,3,,,,,,,,0,,,50,0
80988,note_on,12,0,3,,,,,,,,0,,,77,0
80988,note_on,0,0,3,,,,,,,,0,,,80,0
80992,set_tempo,38,1,0,,,,,,562852,,,,,,
81000,note_on,0,0,3,,,,,,,,0,,,58,80
81000,note_on,12,0,3,,,,,,,,0,,,70,80
81000,note_on,0,0,3,,,,,,,,0,,,82,80
81030,set_tempo,38,1,0,,,,,,566038,,,,,,
81048,note_on,48,0,3,,,,,,,,0,,,82,0
81060,note_on,12,0,3,,,,,,,,0,,,94,80
81068,set_tempo,38,1,0,,,,,,569260,,,,,,
81096,note_on,36,0,3,,,,,,,,0,,,58,0
81096,note_on,0,0,3,,,,,,,,0,,,70,0
81105,set_tempo,37,1,0,,,,,,572519,,,,,,
81108,note_on,12,0,3,,,,,,,,0,,,94,0
81120,note_on,0,0,3,,,,,,,,0,,,41,80
81120,note_on,0,0,3,,,,,,,,0,,,44,80
81120,note_on,0,0,3,,,,,,,,0,,,49,80
81120,note_on,0,0,3,,,,,,,,0,,,71,80
81120,note_on,0,0,3,,,,,,,,0,,,83,80
81120,note_on,12,0,3,,,,,,,,0,,,37,80
81137,set_tempo,32,1,0,,,,,,575816,,,,,,
81168,note_on,0,0,3,,,,,,,,0,,,71,0
81168,note_on,48,0,3,,,,,,,,0,,,83,0
81175,set_tempo,38,1,0,,,,,,579151,,,,,,
81180,note_on,12,0,3,,,,,,,,0,,,77,80
81180,note_on,0,0,3,,,,,,,,0,,,80,80
81213,set_tempo,38,1,0,,,,,,582524,,,,,,
81216,note_on,0,0,3,,,,,,,,0,,,49,0
81216,note_on,0,0,3,,,,,,,,0,,,41,0
81216,note_on,0,0,3,,,,,,,,0,,,37,0
81216,note_on,36,0,3,,,,,,,,0,,,44,0
81228,note_on,0,0,3,,,,,,,,0,,,77,0
81228,note_on,12,0,3,,,,,,,,0,,,80,0
81240,note_on,12,0,3,,,,,,,,0,,,71,80
81240,note_on,0,0,3,,,,,,,,0,,,83,80
81240,note_on,0,0,3,,,,,,,,0,,,59,80
81251,set_tempo,38,1,0,,,,,,585938,,,,,,
81288,note_on,48,0,3,,,,,,,,0,,,83,0
81289,set_tempo,38,1,0,,,,,,589391,,,,,,
81300,note_on,12,0,3,,,,,,,,0,,,95,80
81327,set_tempo,38,1,0,,,,,,592885,,,,,,
81336,note_on,0,0,3,,,,,,,,0,,,71,0
81336,note_on,36,0,3,,,,,,,,0,,,59,0
81348,note_on,12,0,3,,,,,,,,0,,,95,0
81360,note_on,0,0,3,,,,,,,,0,,,84,80
81360,note_on,0,0,3,,,,,,,,0,,,44,80
81360,note_on,0,0,3,,,,,,,,0,,,36,80
81360,note_on,12,0,3,,,,,,,,0,,,72,80
81360,note_on,0,0,3,,,,,,,,0,,,41,80
81360,note_on,0,0,3,,,,,,,,0,,,48,80
81364,set_tempo,37,1,0,,,,,,596421,,,,,,
81396,set_tempo,32,1,0,,,,,,600000,,,,,,
81408,note_on,48,0,3,,,,,,,,0,,,84,0
81408,note_on,0,0,3,,,,,,,,0,,,72,0
81420,note_on,12,0,3,,,,,,,,0,,,80,80
81420,note_on,0,0,3,,,,,,,,0,,,77,80
81434,set_tempo,38,1,0,,,,,,603622,,,,,,
81456,note_on,0,0,3,,,,,,,,0,,,48,0
81456,note_on,0,0,3,,,,,,,,0,,,44,0
81456,note_on,36,0,3,,,,,,,,0,,,41,0
81456,note_on,0,0,3,,,,,,,,0,,,36,0
81468,note_on,0,0,3,,,,,,,,0,,,80,0
81468,note_on,12,0,3,,,,,,,,0,,,77,0
81472,set_tempo,38,1,0,,,,,,607287,,,,,,
81480,note_on,12,0,3,,,,,,,,0,,,84,80
81480,note_on,0,0,3,,,,,,,,0,,,72,80
81480,note_on,0,0,3,,,,,,,,0,,,60,80
81510,set_tempo,38,1,0,,,,,,610998,,,,,,
81528,note_on,48,0,3,,,,,,,,0,,,84,0
81540,note_on,12,0,3,,,,,,,,0,,,96,80
81548,set_tempo,38,1,0,,,,,,614754,,,,,,
81576,note_on,36,0,3,,,,,,,,0,,,60,0
81576,note_on,0,0,3,,,,,,,,0,,,72,0
81585,set_tempo,37,1,0,,,,,,618557,,,,,,
81588,note_on,12,0,3,,,,,,,,0,,,96,0
81600,note_on,0,0,3,,,,,,,,0,,,85,80
81600,note_on,0,0,3,,,,,,,,0,,,47,80
81600,note_on,0,0,3,,,,,,,,0,,,73,80
81600,note_on,0,0,3,,,,,,,,0,,,35,80
81600,note_on,12,0,3,,,,,,,,0,,,44,80
81600,note_on,0,0,3,,,,,,,,0,,,41,80
81604,set_tempo,19,1,0,,,,,,622407,,,,,,
81611,set_tempo,7,1,0,,,,,,626305,,,,,,
81618,set_tempo,7,1,0,,,,,,630252,,,,,,
81623,set_tempo,5,1,0,,,,,,634249,,,,,,
81630,set_tempo,7,1,0,,,,,,638298,,,,,,
81635,set_tempo,5,1,0,,,,,,642398,,,,,,
81642,set_tempo,7,1,0,,,,,,646552,,,,,,
81647,set_tempo,5,1,0,,,,,,650759,,,,,,
81648,note_on,0,0,3,,,,,,,,0,,,73,0
81648,note_on,48,0,3,,,,,,,,0,,,85,0
81654,set_tempo,7,1,0,,,,,,655022,,,,,,
81659,set_tempo,5,1,0,,,,,,659341,,,,,,
81660,note_on,12,0,3,,,,,,,,0,,,80,80
81660,note_on,0,0,3,,,,,,,,0,,,77,80
81666,set_tempo,7,1,0,,,,,,663717,,,,,,
81671,set_tempo,5,1,0,,,,,,668151,,,,,,
81678,set_tempo,7,1,0,,,,,,672646,,,,,,
81683,set_tempo,5,1,0,,,,,,677201,,,,,,
81690,set_tempo,7,1,0,,,,,,681818,,,,,,
81696,note_on,0,0,3,,,,,,,,0,,,44,0
81696,note_on,0,0,3,,,,,,,,0,,,41,0
81696,note_on,36,0,3,,,,,,,,0,,,35,0
81696,note_on,0,0,3,,,,,,,,0,,,47,0
81698,set_tempo,8,1,0,,,,,,686499,,,,,,
81702,set_tempo,4,1,0,,,,,,691244,,,,,,
81708,note_on,0,0,3,,,,,,,,0,,,80,0
81708,note_on,12,0,3,,,,,,,,0,,,77,0
81710,set_tempo,8,1,0,,,,,,696056,,,,,,
81714,set_tempo,4,1,0,,,,,,700935,,,,,,
81720,note_on,12,0,3,,,,,,,,0,,,85,80
81720,note_on,0,0,3,,,,,,,,0,,,61,80
81720,note_on,0,0,3,,,,,,,,0,,,73,80
81722,set_tempo,8,1,0,,,,,,705882,,,,,,
81726,set_tempo,4,1,0,,,,,,710900,,,,,,
81734,set_tempo,8,1,0,,,,,,715990,,,,,,
81738,set_tempo,4,1,0,,,,,,721154,,,,,,
81746,set_tempo,8,1,0,,,,,,726392,,,,,,
81750,set_tempo,4,1,0,,,,,,731707,,,,,,
81758,set_tempo,8,1,0,,,,,,737101,,,,,,
81762,set_tempo,4,1,0,,,,,,742574,,,,,,
81768,note_on,48,0,3,,,,,,,,0,,,85,0
81770,set_tempo,8,1,0,,,,,,748130,,,,,,
81777,set_tempo,7,1,0,,,,,,753769,,,,,,
81780,note_on,12,0,3,,,,,,,,0,,,97,80
81782,set_tempo,5,1,0,,,,,,759494,,,,,,
81789,set_tempo,7,1,0,,,,,,765306,,,,,,
81794,set_tempo,5,1,0,,,,,,771208,,,,,,
81801,set_tempo,7,1,0,,,,,,777202,,,,,,
81806,set_tempo,5,1,0,,,,,,783290,,,,,,
81813,set_tempo,7,1,0,,,,,,789474,,,,,,
81816,note_on,36,0,3,,,,,,,,0,,,61,0
81816,note_on,0,0,3,,,,,,,,0,,,73,0
81818,set_tempo,5,1,0,,,,,,795756,,,,,,
81825,set_tempo,7,1,0,,,,,,802139,,,,,,
81828,note_on,12,0,3,,,,,,,,0,,,97,0
81830,set_tempo,5,1,0,,,,,,808625,,,,,,
81837,set_tempo,7,1,0,,,,,,815217,,,,,,
81840,note_on,0,0,3,,,,,,,,0,,,41,80
81840,note_on,0,0,3,,,,,,,,0,,,86,80
81840,note_on,12,0,3,,,,,,,,0,,,34,80
81840,note_on,0,0,3,,,,,,,,0,,,74,80
81840,note_on,0,0,3,,,,,,,,0,,,46,80
81840,note_on,0,0,3,,,,,,,,0,,,44,80
81842,set_tempo,5,1,0,,,,,,821918,,,,,,
81849,set_tempo,7,1,0,,,,,,828729,,,,,,
81856,set_tempo,7,1,0,,,,,,835655,,,,,,
81861,set_tempo,5,1,0,,,,,,842697,,,,,,
81868,set_tempo,7,1,0,,,,,,849858,,,,,,
81873,set_tempo,5,1,0,,,,,,857143,,,,,,
81880,set_tempo,7,1,0,,,,,,864553,,,,,,
81885,set_tempo,5,1,0,,,,,,872093,,,,,,
81888,note_on,48,0,3,,,,,,,,0,,,74,0
81888,note_on,0,0,3,,,,,,,,0,,,86,0
81892,set_tempo,7,1,0,,,,,,879765,,,,,,
81897,set_tempo,5,1,0,,,,,,887574,,,,,,
81900,note_on,12,0,3,,,,,,,,0,,,80,80
81900,note_on,0,0,3,,,,,,,,0,,,77,80
81904,set_tempo,7,1,0,,,,,,895522,,,,,,
81909,set_tempo,5,1,0,,,,,,903614,,,,,,
81916,set_tempo,7,1,0,,,,,,911854,,,,,,
81921,set_tempo,5,1,0,,,,,,920245,,,,,,
81928,set_tempo,7,1,0,,,,,,928793,,,,,,
81935,set_tempo,7,1,0,,,,,,937500,,,,,,
81936,note_on,36,0,3,,,,,,,,0,,,44,0
81936,note_on,0,0,3,,,,,,,,0,,,46,0
81936,note_on,0,0,3,,,,,,,,0,,,34,0
81936,note_on,0,0,3,,,,,,,,0,,,41,0
81940,set_tempo,5,1,0,,,,,,946372,,,,,,
81947,set_tempo,7,1,0,,,,,,955414,,,,,,
81948,note_on,0,0,3,,,,,,,,0,,,80,0
81948,note_on,12,0,3,,,,,,,,0,,,77,0
81952,set_tempo,5,1,0,,,,,,964630,,,,,,
81959,set_tempo,7,1,0,,,,,,974026,,,,,,
81960,note_on,0,0,3,,,,,,,,0,,,86,80
81960,note_on,12,0,3,,,,,,,,0,,,62,80
81960,note_on,0,0,3,,,,,,,,0,,,74,80
81964,set_tempo,5,1,0,,,,,,983607,,,,,,
81971,set_tempo,7,1,0,,,,,,993377,,,,,,
81976,set_tempo,5,1,0,,,,,,1003344,,,,,,
81983,set_tempo,7,1,0,,,,,,1013514,,,,,,
81988,set_tempo,5,1,0,,,,,,1023891,,,,,,
81995,set_tempo,7,1,0,,,,,,1034483,,,,,,
82000,set_tempo,5,1,0,,,,,,1045296,,,,,,
82007,set_tempo,7,1,0,,,,,,1056338,,,,,,
82008,note_on,48,0,3,,,,,,,,0,,,86,0
82014,set_tempo,7,1,0,,,,,,1067616,,,,,,
82019,set_tempo,5,1,0,,,,,,1079137,,,,,,
82020,note_on,12,0,3,,,,,,,,0,,,98,80
82026,set_tempo,7,1,0,,,,,,1090909,,,,,,
82031,set_tempo,5,1,0,,,,,,1102941,,,,,,
82038,set_tempo,7,1,0,,,,,,1115242,,,,,,
82043,set_tempo,5,1,0,,,,,,1127820,,,,,,
82050,set_tempo,7,1,0,,,,,,1140684,,,,,,
82055,set_tempo,5,1,0,,,,,,1153846,,,,,,
82056,note_on,36,0,3,,,,,,,,0,,,74,0
82056,note_on,0,0,3,,,,,,,,0,,,62,0
82062,set_tempo,7,1,0,,,,,,1167315,,,,,,
82067,set_tempo,5,1,0,,,,,,1181102,,,,,,
82068,note_on,12,0,3,,,,,,,,0,,,98,0
82074,set_tempo,7,1,0,,,,,,1195219,,,,,,
82079,set_tempo,5,1,0,,,,,,1209677,,,,,,
82080,note_on,0,0,2,,,,,,,,0,,,55,80
82080,note_on,0,0,2,,,,,,,,0,,,58,80
82080,note_on,0,0,2,,,,,,,,0,,,63,80
82080,note_on,0,0,1,,,,,,,,0,,,82,80
82080,note_on,2064,0,2,,,,,,,,0,,,51,80
82080,note_on,4808,0,1,,,,,,,,0,,,87,80
82080,note_on,0,0,1,,,,,,,,0,,,75,80
82080,control_change,12,0,3,,,,,,,,0,64,127,,
82080,note_on,0,0,1,,,,,,,,0,,,79,80
82091,set_tempo,12,1,0,,,,,,566038,,,,,,
82144,note_on,0,0,2,,,,,,,,0,,,51,0
82144,note_on,0,0,1,,,,,,,,0,,,75,0
82144,note_on,64,0,1,,,,,,,,0,,,79,0
82144,note_on,0,0,1,,,,,,,,0,,,82,0
82144,note_on,0,0,1,,,,,,,,0,,,87,0
82144,note_on,64,0,2,,,,,,,,0,,,58,0
82144,note_on,0,0,2,,,,,,,,0,,,63,0
82144,note_on,0,0,2,,,,,,,,0,,,55,0
82154,set_tempo,63,1,0,,,,,,562852,,,,,,
82160,note_on,16,0,1,,,,,,,,0,,,82,80
82160,note_on,0,0,2,,,,,,,,0,,,58,80
82160,note_on,16,0,2,,,,,,,,0,,,46,80
82160,note_on,0,0,1,,,,,,,,0,,,70,80
82224,note_on,0,0,2,,,,,,,,0,,,46,0
82224,note_on,64,0,2,,,,,,,,0,,,58,0
82224,note_on,0,0,1,,,,,,,,0,,,82,0
82224,note_on,64,0,1,,,,,,,,0,,,70,0
82240,note_on,0,0,1,,,,,,,,0,,,67,80
82240,note_on,0,0,2,,,,,,,,0,,,43,80
82240,note_on,16,0,1,,,,,,,,0,,,79,80
82240,note_on,16,0,2,,,,,,,,0,,,55,80
82304,note_on,0,0,1,,,,,,,,0,,,79,0
82304,note_on,64,0,2,,,,,,,,0,,,43,0
82304,note_on,0,0,2,,,,,,,,0,,,55,0
82304,note_on,64,0,1,,,,,,,,0,,,67,0
82320,note_on,0,0,1,,,,,,,,0,,,63,80
82320,note_on,16,0,2,,,,,,,,0,,,51,80
82320,note_on,0,0,2,,,,,,,,0,,,39,80
82320,note_on,16,0,1,,,,,,,,0,,,75,80
82384,note_on,0,0,2,,,,,,,,0,,,51,0
82384,note_on,64,0,2,,,,,,,,0,,,39,0
82384,note_on,0,0,1,,,,,,,,0,,,75,0
82384,note_on,64,0,1,,,,,,,,0,,,63,0
82400,note_on,0,0,1,,,,,,,,0,,,67,80
82400,note_on,16,0,1,,,,,,,,0,,,79,80
82400,note_on,0,0,2,,,,,,,,0,,,43,80
82400,note_on,16,0,2,,,,,,,,0,,,55,80
82464,note_on,64,0,2,,,,,,,,0,,,43,0
82464,note_on,0,0,1,,,,,,,,0,,,79,0
82464,note_on,0,0,2,,,,,,,,0,,,55,0
82464,note_on,64,0,1,,,,,,,,0,,,67,0
82480,note_on,16,0,2,,,,,,,,0,,,46,80
82480,note_on,0,0,1,,,,,,,,0,,,70,80
82480,note_on,16,0,1,,,,,,,,0,,,82,80
82480,note_on,0,0,2,,,,,,,,0,,,58,80
82544,note_on,64,0,1,,,,,,,,0,,,70,0
82544,note_on,0,0,2,,,,,,,,0,,,46,0
82544,note_on,64,0,2,,,,,,,,0,,,58,0
82544,note_on,0,0,1,,,,,,,,0,,,82,0
82560,note_on,16,0,2,,,,,,,,0,,,59,80
82560,note_on,0,0,1,,,,,,,,0,,,80,80
82560,note_on,0,0,2,,,,,,,,0,,,51,80
82560,note_on,0,0,2,,,,,,,,0,,,56,80
82560,note_on,0,0,2,,,,,,,,0,,,63,80
82560,note_on,0,0,1,,,,,,,,0,,,87,80
82560,note_on,16,0,1,,,,,,,,0,,,75,80
82560,note_on,0,0,1,,,,,,,,0,,,83,80
82560,control_change,480,0,3,,,,,,,,0,64,0,,
82602,control_change,42,0,3,,,,,,,,0,64,127,,
82624,note_on,0,0,2,,,,,,,,0,,,59,0
82624,note_on,64,0,2,,,,,,,,0,,,56,0
82624,note_on,0,0,1,,,,,,,,0,,,75,0
82624,note_on,0,0,2,,,,,,,,0,,,51,0
82624,note_on,64,0,1,,,,,,,,0,,,80,0
82624,note_on,0,0,2,,,,,,,,0,,,63,0
82624,note_on,0,0,1,,,,,,,,0,,,87,0
82624,note_on,0,0,1,,,,,,,,0,,,83,0
82640,note_on,16,0,2,,,,,,,,0,,,47,80
82640,note_on,0,0,2,,,,,,,,0,,,59,80
82640,note_on,0,0,1,,,,,,,,0,,,71,80
82640,note_on,16,0,1,,,,,,,,0,,,83,80
82704,note_on,0,0,2,,,,,,,,0,,,47,0
82704,note_on,64,0,2,,,,,,,,0,,,59,0
82704,note_on,0,0,1,,,,,,,,0,,,83,0
82704,note_on,64,0,1,,,,,,,,0,,,71,0
82720,note_on,16,0,1,,,,,,,,0,,,80,80
82720,note_on,0,0,2,,,,,,,,0,,,44,80
82720,note_on,0,0,1,,,,,,,,0,,,68,80
82720,note_on,16,0,2,,,,,,,,0,,,56,80
82784,note_on,0,0,1,,,,,,,,0,,,80,0
82784,note_on,64,0,1,,,,,,,,0,,,68,0
82784,note_on,64,0,2,,,,,,,,0,,,44,0
82784,note_on,0,0,2,,,,,,,,0,,,56,0
82800,note_on,16,0,2,,,,,,,,0,,,51,80
82800,note_on,0,0,1,,,,,,,,0,,,63,80
82800,note_on,0,0,2,,,,,,,,0,,,39,80
82800,note_on,16,0,1,,,,,,,,0,,,75,80
82864,note_on,64,0,1,,,,,,,,0,,,63,0
82864,note_on,64,0,2,,,,,,,,0,,,39,0
82864,note_on,0,0,2,,,,,,,,0,,,51,0
82864,note_on,0,0,1,,,,,,,,0,,,75,0
82880,note_on,16,0,1,,,,,,,,0,,,68,80
82880,note_on,16,0,2,,,,,,,,0,,,44,80
82880,note_on,0,0,2,,,,,,,,0,,,56,80
82880,note_on,0,0,1,,,,,,,,0,,,80,80
82944,note_on,0,0,2,,,,,,,,0,,,44,0
82944,note_on,64,0,1,,,,,,,,0,,,80,0
82944,note_on,0,0,1,,,,,,,,0,,,68,0
82944,note_on,64,0,2,,,,,,,,0,,,56,0
82960,note_on,0,0,1,,,,,,,,0,,,71,80
82960,note_on,16,0,1,,,,,,,,0,,,83,80
82960,note_on,16,0,2,,,,,,,,0,,,59,80
82960,note_on,0,0,2,,,,,,,,0,,,47,80
83024,note_on,64,0,1,,,,,,,,0,,,71,0
83024,note_on,64,0,2,,,,,,,,0,,,47,0
83024,note_on,0,0,1,,,,,,,,0,,,83,0
83024,note_on,0,0,2,,,,,,,,0,,,59,0
83040,note_on,16,0,1,,,,,,,,0,,,82,80
83040,note_on,16,0,2,,,,,,,,0,,,58,80
83040,control_change,438,0,3,,,,,,,,0,64,0,,
83040,note_on,0,0,1,,,,,,,,0,,,75,80
83040,note_on,0,0,2,,,,,,,,0,,,51,80
83040,note_on,0,0,1,,,,,,,,0,,,79,80
83040,note_on,0,0,1,,,,,,,,0,,,87,80
83040,note_on,0,0,2,,,,,,,,0,,,55,80
83040,note_on,0,0,2,,,,,,,,0,,,63,80
83070,control_change,30,0,3,,,,,,,,0,64,127,,
83104,note_on,0,0,2,,,,,,,,0,,,63,0
83104,note_on,0,0,2,,,,,,,,0,,,58,0
83104,note_on,0,0,2,,,,,,,,0,,,55,0
83104,note_on,64,0,2,,,,,,,,0,,,51,0
83104,note_on,0,0,1,,,,,,,,0,,,82,0
83104,note_on,64,0,1,,,,,,,,0,,,75,0
83104,note_on,0,0,1,,,,,,,,0,,,87,0
83104,note_on,0,0,1,,,,,,,,0,,,79,0
83120,note_on,0,0,2,,,,,,,,0,,,46,80
83120,note_on,16,0,1,,,,,,,,0,,,70,80
83120,note_on,0,0,1,,,,,,,,0,,,82,80
83120,note_on,16,0,2,,,,,,,,0,,,58,80
83184,note_on,64,0,1,,,,,,,,0,,,82,0
83184,note_on,0,0,2,,,,,,,,0,,,58,0
83184,note_on,0,0,1,,,,,,,,0,,,70,0
83184,note_on,64,0,2,,,,,,,,0,,,46,0
83200,note_on,16,0,2,,,,,,,,0,,,43,80
83200,note_on,0,0,2,,,,,,,,0,,,55,80
83200,note_on,16,0,1,,,,,,,,0,,,67,80
83200,note_on,0,0,1,,,,,,,,0,,,79,80
83264,note_on,0,0,1,,,,,,,,0,,,67,0
83264,note_on,64,0,1,,,,,,,,0,,,79,0
83264,note_on,64,0,2,,,,,,,,0,,,55,0
83264,note_on,0,0,2,,,,,,,,0,,,43,0
83280,note_on,0,0,2,,,,,,,,0,,,39,80
83280,note_on,16,0,2,,,,,,,,0,,,51,80
83280,note_on,16,0,1,,,,,,,,0,,,63,80
83280,note_on,0,0,1,,,,,,,,0,,,75,80
83344,note_on,64,0,2,,,,,,,,0,,,39,0
83344,note_on,0,0,1,,,,,,,,0,,,63,0
83344,note_on,0,0,2,,,,,,,,0,,,51,0
83344,note_on,64,0,1,,,,,,,,0,,,75,0
83360,note_on,16,0,1,,,,,,,,0,,,67,80
83360,note_on,0,0,2,,,,,,,,0,,,43,80
83360,note_on,0,0,1,,,,,,,,0,,,79,80
83360,note_on,16,0,2,,,,,,,,0,,,55,80
83424,note_on,0,0,2,,,,,,,,0,,,55,0
83424,note_on,64,0,2,,,,,,,,0,,,43,0
83424,note_on,64,0,1,,,,,,,,0,,,79,0
83424,note_on,0,0,1,,,,,,,,0,,,67,0
83440,note_on,0,0,1,,,,,,,,0,,,82,80
83440,note_on,0,0,2,,,,,,,,0,,,46,80
83440,note_on,16,0,2,,,,,,,,0,,,58,80
83440,note_on,16,0,1,,,,,,,,0,,,70,80
83477,set_tempo,1323,1,0,,,,,,559701,,,,,,
83490,control_change,420,0,3,,,,,,,,0,64,0,,
83496,set_tempo,19,1,0,,,,,,556586,,,,,,
83504,note_on,0,0,1,,,,,,,,0,,,70,0
83504,note_on,0,0,2,,,,,,,,0,,,58,0
83504,note_on,64,0,2,,,,,,,,0,,,46,0
83504,note_on,64,0,1,,,,,,,,0,,,82,0
83515,set_tempo,19,1,0,,,,,,553506,,,,,,
83520,note_on,0,0,2,,,,,,,,0,,,63,80
83520,note_on,16,0,2,,,,,,,,0,,,51,80
83520,note_on,0,0,1,,,,,,,,0,,,87,80
83520,note_on,16,0,1,,,,,,,,0,,,75,80
83529,control_change,39,0,3,,,,,,,,0,64,127,,
83534,set_tempo,19,1,0,,,,,,550459,,,,,,
83553,set_tempo,19,1,0,,,,,,547445,,,,,,
83572,set_tempo,19,1,0,,,,,,544465,,,,,,
83584,note_on,64,0,1,,,,,,,,0,,,87,0
83584,note_on,64,0,2,,,,,,,,0,,,63,0
83584,note_on,0,0,2,,,,,,,,0,,,51,0
83584,note_on,0,0,1,,,,,,,,0,,,75,0
83591,set_tempo,19,1,0,,,,,,541516,,,,,,
83600,note_on,16,0,1,,,,,,,,0,,,74,80
83600,note_on,16,0,2,,,,,,,,0,,,50,80
83600,note_on,0,0,2,,,,,,,,0,,,62,80
83600,note_on,0,0,1,,,,,,,,0,,,86,80
83610,set_tempo,19,1,0,,,,,,538600,,,,,,
83623,set_tempo,13,1,0,,,,,,535714,,,,,,
83642,set_tempo,19,1,0,,,,,,532860,,,,,,
83661,set_tempo,19,1,0,,,,,,530035,,,,,,
83664,note_on,0,0,2,,,,,,,,0,,,50,0
83664,note_on,64,0,2,,,,,,,,0,,,62,0
83664,note_on,64,0,1,,,,,,,,0,,,86,0
83664,note_on,0,0,1,,,,,,,,0,,,74,0
83679,set_tempo,18,1,0,,,,,,527241,,,,,,
83680,note_on,0,0,1,,,,,,,,0,,,75,80
83680,note_on,16,0,2,,,,,,,,0,,,51,80
83680,note_on,16,0,1,,,,,,,,0,,,87,80
83680,note_on,0,0,2,,,,,,,,0,,,63,80
83698,set_tempo,19,1,0,,,,,,524476,,,,,,
83717,set_tempo,19,1,0,,,,,,521739,,,,,,
83736,set_tempo,19,1,0,,,,,,519031,,,,,,
83744,note_on,64,0,2,,,,,,,,0,,,63,0
83744,note_on,64,0,1,,,,,,,,0,,,75,0
83744,note_on,0,0,2,,,,,,,,0,,,51,0
83744,note_on,0,0,1,,,,,,,,0,,,87,0
83749,set_tempo,13,1,0,,,,,,516351,,,,,,
83760,note_on,0,0,1,,,,,,,,0,,,79,80
83760,note_on,0,0,2,,,,,,,,0,,,55,80
83760,note_on,16,0,2,,,,,,,,0,,,67,80
83760,note_on,16,0,1,,,,,,,,0,,,91,80
83768,set_tempo,19,1,0,,,,,,513699,,,,,,
83787,set_tempo,19,1,0,,,,,,511073,,,,,,
83806,set_tempo,19,1,0,,,,,,508475,,,,,,
83824,note_on,64,0,2,,,,,,,,0,,,55,0
83824,note_on,0,0,1,,,,,,,,0,,,91,0
83824,note_on,64,0,1,,,,,,,,0,,,79,0
83824,note_on,0,0,2,,,,,,,,0,,,67,0
83825,set_tempo,19,1,0,,,,,,505902,,,,,,
83840,note_on,0,0,2,,,,,,,,0,,,63,80
83840,note_on,16,0,1,,,,,,,,0,,,75,80
83840,note_on,16,0,2,,,,,,,,0,,,51,80
83840,note_on,0,0,1,,,,,,,,0,,,87,80
83844,set_tempo,19,1,0,,,,,,503356,,,,,,
83863,set_tempo,19,1,0,,,,,,500835,,,,,,
83869,set_tempo,6,1,0,,,,,,498339,,,,,,
83875,set_tempo,6,1,0,,,,,,500835,,,,,,
83882,set_tempo,7,1,0,,,,,,503356,,,,,,
83888,set_tempo,6,1,0,,,,,,505902,,,,,,
83894,set_tempo,6,1,0,,,,,,511073,,,,,,
83901,set_tempo,7,1,0,,,,,,513699,,,,,,
83904,note_on,64,0,2,,,,,,,,0,,,63,0
83904,note_on,0,0,1,,,,,,,,0,,,75,0
83904,note_on,64,0,1,,,,,,,,0,,,87,0
83904,note_on,0,0,2,,,,,,,,0,,,51,0
83907,set_tempo,6,1,0,,,,,,516351,,,,,,
83913,set_tempo,6,1,0,,,,,,521739,,,,,,
83919,set_tempo,6,1,0,,,,,,524476,,,,,,
83920,note_on,16,0,1,,,,,,,,0,,,83,80
83920,note_on,0,0,1,,,,,,,,0,,,71,80
83920,note_on,0,0,2,,,,,,,,0,,,47,80
83920,note_on,16,0,2,,,,,,,,0,,,59,80
83926,set_tempo,7,1,0,,,,,,527241,,,,,,
83932,set_tempo,6,1,0,,,,,,532860,,,,,,
83938,set_tempo,6,1,0,,,,,,535714,,,,,,
83945,set_tempo,7,1,0,,,,,,538600,,,,,,
83951,set_tempo,6,1,0,,,,,,544465,,,,,,
83957,set_tempo,6,1,0,,,,,,547445,,,,,,
83964,set_tempo,7,1,0,,,,,,550459,,,,,,
83970,set_tempo,6,1,0,,,,,,556586,,,,,,
83976,set_tempo,6,1,0,,,,,,547445,,,,,,
83984,note_on,0,0,1,,,,,,,,0,,,83,0
83984,note_on,64,0,2,,,,,,,,0,,,47,0
83984,note_on,64,0,1,,,,,,,,0,,,71,0
83984,note_on,0,0,2,,,,,,,,0,,,59,0
83989,set_tempo,13,1,0,,,,,,550459,,,,,,
84000,note_on,16,0,1,,,,,,,,0,,,77,80
84000,note_on,16,0,2,,,,,,,,0,,,53,80
84000,note_on,0,0,1,,,,,,,,0,,,70,80
84000,note_on,0,0,2,,,,,,,,0,,,58,80
84000,note_on,0,0,2,,,,,,,,0,,,50,80
84000,note_on,0,0,1,,,,,,,,0,,,82,80
84000,note_on,0,0,1,,,,,,,,0,,,74,80
84000,note_on,0,0,2,,,,,,,,0,,,46,80
84009,control_change,480,0,3,,,,,,,,0,64,0,,
84030,control_change,21,0,3,,,,,,,,0,64,127,,
84064,note_on,0,0,2,,,,,,,,0,,,53,0
84064,note_on,0,0,2,,,,,,,,0,,,50,0
84064,note_on,0,0,2,,,,,,,,0,,,46,0
84064,note_on,64,0,2,,,,,,,,0,,,58,0
84064,note_on,64,0,1,,,,,,,,0,,,70,0
84064,note_on,0,0,1,,,,,,,,0,,,74,0
84064,note_on,0,0,1,,,,,,,,0,,,77,0
84064,note_on,0,0,1,,,,,,,,0,,,82,0
84080,note_on,16,0,1,,,,,,,,0,,,65,80
84080,note_on,0,0,1,,,,,,,,0,,,77,80
84080,note_on,0,0,2,,,,,,,,0,,,53,80
84080,note_on,16,0,2,,,,,,,,0,,,41,80
84144,note_on,64,0,2,,,,,,,,0,,,53,0
84144,note_on,0,0,2,,,,,,,,0,,,41,0
84144,note_on,64,0,1,,,,,,,,0,,,77,0
84144,note_on,0,0,1,,,,,,,,0,,,65,0
84160,note_on,16,0,2,,,,,,,,0,,,50,80
84160,note_on,16,0,1,,,,,,,,0,,,62,80
84160,note_on,0,0,2,,,,,,,,0,,,38,80
84160,note_on,0,0,1,,,,,,,,0,,,74,80
84224,note_on,0,0,2,,,,,,,,0,,,50,0
84224,note_on,0,0,1,,,,,,,,0,,,62,0
84224,note_on,64,0,2,,,,,,,,0,,,38,0
84224,note_on,64,0,1,,,,,,,,0,,,74,0
84240,note_on,16,0,2,,,,,,,,0,,,34,80
84240,note_on,0,0,2,,,,,,,,0,,,46,80
84240,note_on,16,0,1,,,,,,,,0,,,70,80
84240,note_on,0,0,1,,,,,,,,0,,,58,80
84304,note_on,0,0,2,,,,,,,,0,,,34,0
84304,note_on,64,0,2,,,,,,,,0,,,46,0
84304,note_on,64,0,1,,,,,,,,0,,,58,0
84304,note_on,0,0,1,,,,,,,,0,,,70,0
84320,note_on,0,0,2,,,,,,,,0,,,38,80
84320,note_on,0,0,1,,,,,,,,0,,,74,80
84320,note_on,16,0,2,,,,,,,,0,,,50,80
84320,note_on,16,0,1,,,,,,,,0,,,62,80
84384,note_on,0,0,1,,,,,,,,0,,,62,0
84384,note_on,64,0,2,,,,,,,,0,,,38,0
84384,note_on,64,0,1,,,,,,,,0,,,74,0
84384,note_on,0,0,2,,,,,,,,0,,,50,0
84400,note_on,16,0,1,,,,,,,,0,,,77,80
84400,note_on,0,0,1,,,,,,,,0,,,65,80
84400,note_on,16,0,2,,,,,,,,0,,,53,80
84400,note_on,0,0,2,,,,,,,,0,,,41,80
84428,set_tempo,439,1,0,,,,,,553506,,,,,,
84454,control_change,424,0,3,,,,,,,,0,64,0,,
84464,note_on,64,0,2,,,,,,,,0,,,41,0
84464,note_on,0,0,2,,,,,,,,0,,,53,0
84464,note_on,64,0,1,,,,,,,,0,,,65,0
84464,note_on,0,0,1,,,,,,,,0,,,77,0
84476,control_change,22,0,3,,,,,,,,0,64,127,,
84480,note_on,16,0,2,,,,,,,,0,,,54,80
84480,note_on,0,0,1,,,,,,,,0,,,82,80
84480,note_on,0,0,1,,,,,,,,0,,,78,80
84480,note_on,0,0,2,,,,,,,,0,,,51,80
84480,note_on,16,0,1,,,,,,,,0,,,75,80
84480,note_on,0,0,1,,,,,,,,0,,,70,80
84480,note_on,0,0,2,,,,,,,,0,,,46,80
84480,note_on,0,0,2,,,,,,,,0,,,58,80
84544,note_on,0,0,2,,,,,,,,0,,,58,0
84544,note_on,0,0,2,,,,,,,,0,,,46,0
84544,note_on,64,0,1,,,,,,,,0,,,78,0
84544,note_on,0,0,1,,,,,,,,0,,,70,0
84544,note_on,0,0,1,,,,,,,,0,,,75,0
84544,note_on,64,0,2,,,,,,,,0,,,51,0
84544,note_on,0,0,2,,,,,,,,0,,,54,0
84544,note_on,0,0,1,,,,,,,,0,,,82,0
84560,note_on,16,0,1,,,,,,,,0,,,66,80
84560,note_on,0,0,2,,,,,,,,0,,,54,80
84560,note_on,16,0,2,,,,,,,,0,,,42,80
84560,note_on,0,0,1,,,,,,,,0,,,78,80
84624,note_on,0,0,2,,,,,,,,0,,,42,0
84624,note_on,64,0,1,,,,,,,,0,,,78,0
84624,note_on,64,0,2,,,,,,,,0,,,54,0
84624,note_on,0,0,1,,,,,,,,0,,,66,0
84640,note_on,0,0,2,,,,,,,,0,,,39,80
84640,note_on,16,0,2,,,,,,,,0,,,51,80
84640,note_on,0,0,1,,,,,,,,0,,,75,80
84640,note_on,16,0,1,,,,,,,,0,,,63,80
84704,note_on,64,0,1,,,,,,,,0,,,75,0
84704,note_on,64,0,2,,,,,,,,0,,,39,0
84704,note_on,0,0,2,,,,,,,,0,,,51,0
84704,note_on,0,0,1,,,,,,,,0,,,63,0
84720,note_on,16,0,2,,,,,,,,0,,,34,80
84720,note_on,0,0,1,,,,,,,,0,,,70,80
84720,note_on,16,0,1,,,,,,,,0,,,58,80
84720,note_on,0,0,2,,,,,,,,0,,,46,80
84784,note_on,0,0,1,,,,,,,,0,,,58,0
84784,note_on,64,0,2,,,,,,,,0,,,46,0
84784,note_on,0,0,2,,,,,,,,0,,,34,0
84784,note_on,64,0,1,,,,,,,,0,,,70,0
84800,note_on,16,0,1,,,,,,,,0,,,75,80
84800,note_on,0,0,2,,,,,,,,0,,,39,80
84800,note_on,0,0,1,,,,,,,,0,,,63,80
84800,note_on,16,0,2,,,,,,,,0,,,51,80
84864,note_on,64,0,2,,,,,,,,0,,,39,0
84864,note_on,0,0,2,,,,,,,,0,,,51,0
84864,note_on,64,0,1,,,,,,,,0,,,63,0
84864,note_on,0,0,1,,,,,,,,0,,,75,0
84880,note_on,16,0,2,,,,,,,,0,,,42,80
84880,note_on,0,0,1,,,,,,,,0,,,78,80
84880,note_on,16,0,1,,,,,,,,0,,,66,80
84880,note_on,0,0,2,,,,,,,,0,,,54,80
84944,note_on,0,0,1,,,,,,,,0,,,66,0
84944,note_on,64,0,2,,,,,,,,0,,,54,0
84944,note_on,64,0,1,,,,,,,,0,,,78,0
84944,note_on,0,0,2,,,,,,,,0,,,42,0
84960,control_change,484,0,3,,,,,,,,0,64,0,,
84960,note_on,16,0,2,,,,,,,,0,,,58,80
84960,note_on,0,0,1,,,,,,,,0,,,77,80
84960,note_on,0,0,1,,,,,,,,0,,,74,80
84960,note_on,0,0,1,,,,,,,,0,,,82,80
84960,note_on,16,0,1,,,,,,,,0,,,70,80
84960,note_on,0,0,2,,,,,,,,0,,,53,80
84960,note_on,0,0,2,,,,,,,,0,,,50,80
84960,note_on,0,0,2,,,,,,,,0,,,46,80
84994,control_change,34,0,3,,,,,,,,0,64,127,,
85024,note_on,0,0,2,,,,,,,,0,,,58,0
85024,note_on,64,0,2,,,,,,,,0,,,46,0
85024,note_on,0,0,2,,,,,,,,0,,,53,0
85024,note_on,0,0,2,,,,,,,,0,,,50,0
85024,note_on,0,0,1,,,,,,,,0,,,70,0
85024,note_on,0,0,1,,,,,,,,0,,,82,0
85024,note_on,64,0,1,,,,,,,,0,,,77,0
85024,note_on,0,0,1,,,,,,,,0,,,74,0
85040,note_on,0,0,1,,,,,,,,0,,,77,80
85040,note_on,16,0,1,,,,,,,,0,,,65,80
85040,note_on,0,0,2,,,,,,,,0,,,41,80
85040,note_on,16,0,2,,,,,,,,0,,,53,80
85104,note_on,64,0,2,,,,,,,,0,,,41,0
85104,note_on,0,0,1,,,,,,,,0,,,65,0
85104,note_on,64,0,1,,,,,,,,0,,,77,0
85104,note_on,0,0,2,,,,,,,,0,,,53,0
85120,note_on,16,0,2,,,,,,,,0,,,38,80
85120,note_on,0,0,1,,,,,,,,0,,,62,80
85120,note_on,0,0,2,,,,,,,,0,,,50,80
85120,note_on,16,0,1,,,,,,,,0,,,74,80
85184,note_on,0,0,2,,,,,,,,0,,,38,0
85184,note_on,64,0,2,,,,,,,,0,,,50,0
85184,note_on,64,0,1,,,,,,,,0,,,62,0
85184,note_on,0,0,1,,,,,,,,0,,,74,0
85200,note_on,16,0,1,,,,,,,,0,,,70,80
85200,note_on,16,0,2,,,,,,,,0,,,34,80
85200,note_on,0,0,2,,,,,,,,0,,,46,80
85200,note_on,0,0,1,,,,,,,,0,,,58,80
85264,note_on,0,0,1,,,,,,,,0,,,70,0
85264,note_on,64,0,2,,,,,,,,0,,,46,0
85264,note_on,64,0,1,,,,,,,,0,,,58,0
85264,note_on,0,0,2,,,,,,,,0,,,34,0
85280,note_on,16,0,2,,,,,,,,0,,,38,80
85280,note_on,0,0,1,,,,,,,,0,,,74,80
85280,note_on,0,0,2,,,,,,,,0,,,50,80
85280,note_on,16,0,1,,,,,,,,0,,,62,80
85344,note_on,64,0,1,,,,,,,,0,,,74,0
85344,note_on,64,0,2,,,,,,,,0,,,50,0
85344,note_on,0,0,1,,,,,,,,0,,,62,0
85344,note_on,0,0,2,,,,,,,,0,,,38,0
85360,note_on,16,0,2,,,,,,,,0,,,41,80
85360,note_on,0,0,1,,,,,,,,0,,,65,80
85360,note_on,0,0,2,,,,,,,,0,,,53,80
85360,note_on,16,0,1,,,,,,,,0,,,77,80
85419,control_change,425,0,3,,,,,,,,0,64,0,,
85424,note_on,64,0,2,,,,,,,,0,,,53,0
85424,note_on,0,0,1,,,,,,,,0,,,77,0
85424,note_on,64,0,1,,,,,,,,0,,,65,0
85424,note_on,0,0,2,,,,,,,,0,,,41,0
85429,set_tempo,1001,1,0,,,,,,550459,,,,,,
85434,set_tempo,5,1,0,,,,,,553506,,,,,,
85440,note_on,0,0,2,,,,,,,,0,,,46,80
85440,note_on,16,0,2,,,,,,,,0,,,58,80
85440,note_on,0,0,1,,,,,,,,0,,,70,80
85440,note_on,16,0,1,,,,,,,,0,,,82,80
85441,set_tempo,7,1,0,,,,,,556586,,,,,,
85446,set_tempo,5,1,0,,,,,,559701,,,,,,
85451,set_tempo,5,1,0,,,,,,562852,,,,,,
85456,set_tempo,5,1,0,,,,,,566038,,,,,,
85457,control_change,38,0,3,,,,,,,,0,64,127,,
85460,set_tempo,4,1,0,,,,,,569260,,,,,,
85465,set_tempo,5,1,0,,,,,,572519,,,,,,
85470,set_tempo,5,1,0,,,,,,575816,,,,,,
85477,set_tempo,7,1,0,,,,,,579151,,,,,,
85482,set_tempo,5,1,0,,,,,,582524,,,,,,
85487,set_tempo,5,1,0,,,,,,585938,,,,,,
85492,set_tempo,5,1,0,,,,,,589391,,,,,,
85496,set_tempo,4,1,0,,,,,,592885,,,,,,
85501,set_tempo,5,1,0,,,,,,596421,,,,,,
85504,note_on,0,0,2,,,,,,,,0,,,58,0
85504,note_on,64,0,2,,,,,,,,0,,,46,0
85504,note_on,64,0,1,,,,,,,,0,,,70,0
85504,note_on,0,0,1,,,,,,,,0,,,82,0
85506,set_tempo,5,1,0,,,,,,600000,,,,,,
85511,set_tempo,5,1,0,,,,,,603622,,,,,,
85518,set_tempo,7,1,0,,,,,,607287,,,,,,
85520,note_on,16,0,1,,,,,,,,0,,,71,80
85520,note_on,0,0,1,,,,,,,,0,,,83,80
85520,note_on,0,0,2,,,,,,,,0,,,47,80
85520,note_on,16,0,2,,,,,,,,0,,,59,80
85523,set_tempo,5,1,0,,,,,,610998,,,,,,
85528,set_tempo,5,1,0,,,,,,614754,,,,,,
85532,set_tempo,4,1,0,,,,,,618557,,,,,,
85537,set_tempo,5,1,0,,,,,,622407,,,,,,
85542,set_tempo,5,1,0,,,,,,626305,,,,,,
85547,set_tempo,5,1,0,,,,,,630252,,,,,,
85552,set_tempo,5,1,0,,,,,,634249,,,,,,
85559,set_tempo,7,1,0,,,,,,630252,,,,,,
85564,set_tempo,5,1,0,,,,,,626305,,,,,,
85568,set_tempo,4,1,0,,,,,,622407,,,,,,
85573,set_tempo,5,1,0,,,,,,618557,,,,,,
85578,set_tempo,5,1,0,,,,,,614754,,,,,,
85583,set_tempo,5,1,0,,,,,,610998,,,,,,
85584,note_on,0,0,1,,,,,,,,0,,,71,0
85584,note_on,64,0,2,,,,,,,,0,,,47,0
85584,note_on,0,0,2,,,,,,,,0,,,59,0
85584,note_on,64,0,1,,,,,,,,0,,,83,0
85588,set_tempo,5,1,0,,,,,,607287,,,,,,
85595,set_tempo,7,1,0,,,,,,603622,,,,,,
85600,note_on,16,0,2,,,,,,,,0,,,48,80
85600,note_on,0,0,2,,,,,,,,0,,,60,80
85600,note_on,16,0,1,,,,,,,,0,,,84,80
85600,note_on,0,0,1,,,,,,,,0,,,72,80
85600,set_tempo,5,1,0,,,,,,600000,,,,,,
85604,set_tempo,4,1,0,,,,,,596421,,,,,,
85609,set_tempo,5,1,0,,,,,,592885,,,,,,
85614,set_tempo,5,1,0,,,,,,589391,,,,,,
85619,set_tempo,5,1,0,,,,,,585938,,,,,,
85624,set_tempo,5,1,0,,,,,,582524,,,,,,
85628,set_tempo,4,1,0,,,,,,579151,,,,,,
85636,set_tempo,8,1,0,,,,,,575816,,,,,,
85640,set_tempo,4,1,0,,,,,,572519,,,,,,
85645,set_tempo,5,1,0,,,,,,569260,,,,,,
85650,set_tempo,5,1,0,,,,,,566038,,,,,,
85655,set_tempo,5,1,0,,,,,,562852,,,,,,
85660,set_tempo,5,1,0,,,,,,559701,,,,,,
85664,note_on,64,0,2,,,,,,,,0,,,60,0
85664,set_tempo,4,1,0,,,,,,556586,,,,,,
85664,note_on,64,0,1,,,,,,,,0,,,72,0
85664,note_on,0,0,2,,,,,,,,0,,,48,0
85664,note_on,0,0,1,,,,,,,,0,,,84,0
85669,set_tempo,5,1,0,,,,,,553506,,,,,,
85676,set_tempo,7,1,0,,,,,,550459,,,,,,
85680,note_on,0,0,1,,,,,,,,0,,,73,80
85680,note_on,0,0,2,,,,,,,,0,,,61,80
85680,note_on,16,0,2,,,,,,,,0,,,49,80
85680,note_on,16,0,1,,,,,,,,0,,,85,80
85681,set_tempo,5,1,0,,,,,,547445,,,,,,
85686,set_tempo,5,1,0,,,,,,544465,,,,,,
85691,set_tempo,5,1,0,,,,,,541516,,,,,,
85696,set_tempo,5,1,0,,,,,,538600,,,,,,
85700,set_tempo,4,1,0,,,,,,535714,,,,,,
85705,set_tempo,5,1,0,,,,,,532860,,,,,,
85712,set_tempo,7,1,0,,,,,,530035,,,,,,
85717,set_tempo,5,1,0,,,,,,527241,,,,,,
85722,set_tempo,5,1,0,,,,,,524476,,,,,,
85727,set_tempo,5,1,0,,,,,,521739,,,,,,
85728,note_on,48,0,1,,,,,,,,0,,,73,0
85728,note_on,48,0,2,,,,,,,,0,,,61,0
85728,note_on,0,0,2,,,,,,,,0,,,49,0
85728,note_on,0,0,1,,,,,,,,0,,,85,0
85732,set_tempo,5,1,0,,,,,,519031,,,,,,
85736,set_tempo,4,1,0,,,,,,516351,,,,,,
85740,note_on,12,0,1,,,,,,,,0,,,86,80
85740,note_on,0,0,1,,,,,,,,0,,,74,80
85740,note_on,0,0,2,,,,,,,,0,,,50,80
85740,note_on,12,0,2,,,,,,,,0,,,62,80
85741,set_tempo,5,1,0,,,,,,513699,,,,,,
85746,set_tempo,5,1,0,,,,,,511073,,,,,,
85753,set_tempo,7,1,0,,,,,,508475,,,,,,
85758,set_tempo,5,1,0,,,,,,505902,,,,,,
85763,set_tempo,5,1,0,,,,,,503356,,,,,,
85768,set_tempo,5,1,0,,,,,,500835,,,,,,
85772,set_tempo,4,1,0,,,,,,498339,,,,,,
85777,set_tempo,5,1,0,,,,,,495868,,,,,,
85782,set_tempo,5,1,0,,,,,,493421,,,,,,
85787,set_tempo,5,1,0,,,,,,490998,,,,,,
85788,note_on,48,0,1,,,,,,,,0,,,74,0
85788,note_on,0,0,2,,,,,,,,0,,,62,0
85788,note_on,0,0,1,,,,,,,,0,,,86,0
85788,note_on,48,0,2,,,,,,,,0,,,50,0
85794,set_tempo,7,1,0,,,,,,493421,,,,,,
85799,set_tempo,5,1,0,,,,,,495868,,,,,,
85800,note_on,12,0,2,,,,,,,,0,,,63,80
85800,note_on,0,0,1,,,,,,,,0,,,87,80
85800,note_on,12,0,1,,,,,,,,0,,,75,80
85800,note_on,0,0,2,,,,,,,,0,,,51,80
85806,set_tempo,7,1,0,,,,,,498339,,,,,,
85811,set_tempo,5,1,0,,,,,,500835,,,,,,
85818,set_tempo,7,1,0,,,,,,503356,,,,,,
85823,set_tempo,5,1,0,,,,,,505902,,,,,,
85830,set_tempo,7,1,0,,,,,,508475,,,,,,
85835,set_tempo,5,1,0,,,,,,511073,,,,,,
85842,set_tempo,7,1,0,,,,,,513699,,,,,,
85847,set_tempo,5,1,0,,,,,,516351,,,,,,
85848,note_on,48,0,2,,,,,,,,0,,,51,0
85848,note_on,48,0,1,,,,,,,,0,,,87,0
85848,note_on,0,0,1,,,,,,,,0,,,75,0
85848,note_on,0,0,2,,,,,,,,0,,,63,0
85852,set_tempo,5,1,0,,,,,,519031,,,,,,
85859,set_tempo,7,1,0,,,,,,521739,,,,,,
85860,note_on,12,0,2,,,,,,,,0,,,52,80
85860,note_on,0,0,1,,,,,,,,0,,,88,80
85860,note_on,0,0,2,,,,,,,,0,,,64,80
85860,note_on,12,0,1,,,,,,,,0,,,76,80
85864,set_tempo,5,1,0,,,,,,524476,,,,,,
85871,set_tempo,7,1,0,,,,,,527241,,,,,,
85876,set_tempo,5,1,0,,,,,,530035,,,,,,
85883,set_tempo,7,1,0,,,,,,532860,,,,,,
85888,set_tempo,5,1,0,,,,,,535714,,,,,,
85895,set_tempo,7,1,0,,,,,,538600,,,,,,
85900,set_tempo,5,1,0,,,,,,541516,,,,,,
85907,set_tempo,7,1,0,,,,,,544465,,,,,,
85908,note_on,48,0,2,,,,,,,,0,,,64,0
85908,note_on,0,0,1,,,,,,,,0,,,76,0
85908,note_on,48,0,1,,,,,,,,0,,,88,0
85908,note_on,0,0,2,,,,,,,,0,,,52,0
85912,set_tempo,5,1,0,,,,,,547445,,,,,,
85916,set_tempo,4,1,0,,,,,,550459,,,,,,
85917,set_tempo,1,1,0,,,,,,547445,,,,,,
85919,set_tempo,2,1,0,,,,,,550459,,,,,,
85920,note_on,0,0,2,,,,,,,,0,,,56,80
85920,note_on,0,0,2,,,,,,,,0,,,60,80
85920,control_change,463,0,3,,,,,,,,0,64,0,,
85920,note_on,0,0,2,,,,,,,,0,,,53,80
85920,note_on,0,0,1,,,,,,,,0,,,84,80
85920,note_on,12,0,2,,,,,,,,0,,,65,80
85920,note_on,0,0,1,,,,,,,,0,,,80,80
85920,note_on,0,0,1,,,,,,,,0,,,77,80
85920,note_on,12,0,1,,,,,,,,0,,,89,80
85922,set_tempo,3,1,0,,,,,,553506,,,,,,
85971,control_change,51,0,3,,,,,,,,0,64,127,,
85984,note_on,0,0,1,,,,,,,,0,,,89,0
85984,note_on,0,0,2,,,,,,,,0,,,60,0
85984,note_on,0,0,2,,,,,,,,0,,,53,0
85984,note_on,64,0,2,,,,,,,,0,,,56,0
85984,note_on,64,0,1,,,,,,,,0,,,84,0
85984,note_on,0,0,2,,,,,,,,0,,,65,0
85984,note_on,0,0,1,,,,,,,,0,,,77,0
85984,note_on,0,0,1,,,,,,,,0,,,80,0
86000,note_on,16,0,2,,,,,,,,0,,,48,80
86000,note_on,16,0,1,,,,,,,,0,,,72,80
86000,note_on,0,0,1,,,,,,,,0,,,84,80
86000,note_on,0,0,2,,,,,,,,0,,,60,80
86029,set_tempo,107,1,0,,,,,,556586,,,,,,
86064,note_on,0,0,2,,,,,,,,0,,,48,0
86064,note_on,64,0,1,,,,,,,,0,,,84,0
86064,note_on,64,0,2,,,,,,,,0,,,60,0
86064,note_on,0,0,1,,,,,,,,0,,,72,0
86080,note_on,16,0,1,,,,,,,,0,,,80,80
86080,note_on,0,0,2,,,,,,,,0,,,56,80
86080,note_on,16,0,2,,,,,,,,0,,,44,80
86080,note_on,0,0,1,,,,,,,,0,,,68,80
86144,note_on,64,0,1,,,,,,,,0,,,68,0
86144,note_on,0,0,1,,,,,,,,0,,,80,0
86144,note_on,64,0,2,,,,,,,,0,,,56,0
86144,note_on,0,0,2,,,,,,,,0,,,44,0
86160,note_on,16,0,2,,,,,,,,0,,,41,80
86160,note_on,0,0,1,,,,,,,,0,,,65,80
86160,note_on,0,0,2,,,,,,,,0,,,53,80
86160,note_on,16,0,1,,,,,,,,0,,,77,80
86224,note_on,0,0,2,,,,,,,,0,,,41,0
86224,note_on,64,0,1,,,,,,,,0,,,65,0
86224,note_on,64,0,2,,,,,,,,0,,,53,0
86224,note_on,0,0,1,,,,,,,,0,,,77,0
86240,note_on,16,0,1,,,,,,,,0,,,80,80
86240,note_on,0,0,1,,,,,,,,0,,,68,80
86240,note_on,0,0,2,,,,,,,,0,,,56,80
86240,note_on,16,0,2,,,,,,,,0,,,44,80
86304,note_on,0,0,1,,,,,,,,0,,,80,0
86304,note_on,0,0,2,,,,,,,,0,,,44,0
86304,note_on,64,0,2,,,,,,,,0,,,56,0
86304,note_on,64,0,1,,,,,,,,0,,,68,0
86320,note_on,16,0,2,,,,,,,,0,,,60,80
86320,note_on,0,0,2,,,,,,,,0,,,48,80
86320,note_on,0,0,1,,,,,,,,0,,,72,80
86320,note_on,16,0,1,,,,,,,,0,,,84,80
86384,note_on,0,0,1,,,,,,,,0,,,84,0
86384,note_on,64,0,2,,,,,,,,0,,,48,0
86384,note_on,0,0,2,,,,,,,,0,,,60,0
86384,note_on,64,0,1,,,,,,,,0,,,72,0
86400,note_on,16,0,1,,,,,,,,0,,,82,80
86400,control_change,429,0,3,,,,,,,,0,64,0,,
86400,note_on,0,0,2,,,,,,,,0,,,53,80
86400,note_on,0,0,2,,,,,,,,0,,,58,80
86400,note_on,0,0,1,,,,,,,,0,,,89,80
86400,note_on,16,0,2,,,,,,,,0,,,61,80
86400,note_on,0,0,1,,,,,,,,0,,,85,80
86400,note_on,0,0,1,,,,,,,,0,,,77,80
86400,note_on,0,0,2,,,,,,,,0,,,65,80
86460,control_change,60,0,3,,,,,,,,0,64,127,,
86464,note_on,0,0,2,,,,,,,,0,,,65,0
86464,note_on,0,0,2,,,,,,,,0,,,61,0
86464,note_on,64,0,2,,,,,,,,0,,,58,0
86464,note_on,64,0,1,,,,,,,,0,,,85,0
86464,note_on,0,0,1,,,,,,,,0,,,89,0
86464,note_on,0,0,2,,,,,,,,0,,,53,0
86464,note_on,0,0,1,,,,,,,,0,,,77,0
86464,note_on,0,0,1,,,,,,,,0,,,82,0
86480,note_on,0,0,2,,,,,,,,0,,,61,80
86480,note_on,0,0,1,,,,,,,,0,,,85,80
86480,note_on,16,0,1,,,,,,,,0,,,73,80
86480,note_on,16,0,2,,,,,,,,0,,,49,80
86544,note_on,0,0,2,,,,,,,,0,,,49,0
86544,note_on,0,0,1,,,,,,,,0,,,73,0
86544,note_on,64,0,1,,,,,,,,0,,,85,0
86544,note_on,64,0,2,,,,,,,,0,,,61,0
86560,note_on,16,0,1,,,,,,,,0,,,70,80
86560,note_on,0,0,1,,,,,,,,0,,,82,80
86560,note_on,16,0,2,,,,,,,,0,,,58,80
86560,note_on,0,0,2,,,,,,,,0,,,46,80
86624,note_on,0,0,2,,,,,,,,0,,,58,0
86624,note_on,64,0,1,,,,,,,,0,,,82,0
86624,note_on,0,0,1,,,,,,,,0,,,70,0
86624,note_on,64,0,2,,,,,,,,0,,,46,0
86640,note_on,0,0,1,,,,,,,,0,,,77,80
86640,note_on,16,0,2,,,,,,,,0,,,41,80
86640,note_on,0,0,2,,,,,,,,0,,,53,80
86640,note_on,16,0,1,,,,,,,,0,,,65,80
86704,note_on,64,0,2,,,,,,,,0,,,53,0
86704,note_on,0,0,2,,,,,,,,0,,,41,0
86704,note_on,64,0,1,,,,,,,,0,,,77,0
86704,note_on,0,0,1,,,,,,,,0,,,65,0
86720,note_on,16,0,1,,,,,,,,0,,,70,80
86720,note_on,16,0,2,,,,,,,,0,,,46,80
86720,note_on,0,0,1,,,,,,,,0,,,82,80
86720,note_on,0,0,2,,,,,,,,0,,,58,80
86784,note_on,0,0,1,,,,,,,,0,,,70,0
86784,note_on,64,0,2,,,,,,,,0,,,58,0
86784,note_on,0,0,2,,,,,,,,0,,,46,0
86784,note_on,64,0,1,,,,,,,,0,,,82,0
86800,note_on,0,0,1,,,,,,,,0,,,85,80
86800,note_on,0,0,2,,,,,,,,0,,,61,80
86800,note_on,16,0,1,,,,,,,,0,,,73,80
86800,note_on,16,0,2,,,,,,,,0,,,49,80
86864,note_on,0,0,2,,,,,,,,0,,,49,0
86864,note_on,64,0,2,,,,,,,,0,,,61,0
86864,note_on,64,0,1,,,,,,,,0,,,85,0
86864,note_on,0,0,1,,,,,,,,0,,,73,0
86880,note_on,16,0,1,,,,,,,,0,,,80,80
86880,control_change,420,0,3,,,,,,,,0,64,0,,
86880,note_on,16,0,2,,,,,,,,0,,,56,80
86880,note_on,0,0,1,,,,,,,,0,,,77,80
86880,note_on,0,0,1,,,,,,,,0,,,84,80
86880,note_on,0,0,2,,,,,,,,0,,,65,80
86880,note_on,0,0,2,,,,,,,,0,,,60,80
86880,note_on,0,0,2,,,,,,,,0,,,53,80
86880,note_on,0,0,1,,,,,,,,0,,,89,80
86919,control_change,39,0,3,,,,,,,,0,64,127,,
86944,note_on,0,0,1,,,,,,,,0,,,80,0
86944,note_on,0,0,1,,,,,,,,0,,,84,0
86944,note_on,0,0,1,,,,,,,,0,,,89,0
86944,note_on,64,0,2,,,,,,,,0,,,65,0
86944,note_on,64,0,1,,,,,,,,0,,,77,0
86944,note_on,0,0,2,,,,,,,,0,,,60,0
86944,note_on,0,0,2,,,,,,,,0,,,53,0
86944,note_on,0,0,2,,,,,,,,0,,,56,0
86960,note_on,0,0,2,,,,,,,,0,,,48,80
86960,note_on,16,0,1,,,,,,,,0,,,84,80
86960,note_on,0,0,1,,,,,,,,0,,,72,80
86960,note_on,16,0,2,,,,,,,,0,,,60,80
87024,note_on,64,0,2,,,,,,,,0,,,48,0
87024,note_on,0,0,2,,,,,,,,0,,,60,0
87024,note_on,64,0,1,,,,,,,,0,,,72,0
87024,note_on,0,0,1,,,,,,,,0,,,84,0
87040,note_on,16,0,1,,,,,,,,0,,,68,80
87040,note_on,0,0,2,,,,,,,,0,,,44,80
87040,note_on,16,0,2,,,,,,,,0,,,56,80
87040,note_on,0,0,1,,,,,,,,0,,,80,80
87104,note_on,0,0,2,,,,,,,,0,,,56,0
87104,note_on,64,0,2,,,,,,,,0,,,44,0
87104,note_on,64,0,1,,,,,,,,0,,,80,0
87104,note_on,0,0,1,,,,,,,,0,,,68,0
87120,note_on,0,0,2,,,,,,,,0,,,53,80
87120,note_on,16,0,2,,,,,,,,0,,,41,80
87120,note_on,0,0,1,,,,,,,,0,,,77,80
87120,note_on,16,0,1,,,,,,,,0,,,65,80
87184,note_on,0,0,1,,,,,,,,0,,,65,0
87184,note_on,64,0,1,,,,,,,,0,,,77,0
87184,note_on,0,0,2,,,,,,,,0,,,41,0
87184,note_on,64,0,2,,,,,,,,0,,,53,0
87200,note_on,0,0,2,,,,,,,,0,,,56,80
87200,note_on,16,0,2,,,,,,,,0,,,44,80
87200,note_on,0,0,1,,,,,,,,0,,,80,80
87200,note_on,16,0,1,,,,,,,,0,,,68,80
87264,note_on,0,0,1,,,,,,,,0,,,68,0
87264,note_on,0,0,2,,,,,,,,0,,,44,0
87264,note_on,64,0,1,,,,,,,,0,,,80,0
87264,note_on,64,0,2,,,,,,,,0,,,56,0
87280,note_on,0,0,2,,,,,,,,0,,,60,80
87280,note_on,16,0,1,,,,,,,,0,,,72,80
87280,note_on,0,0,1,,,,,,,,0,,,84,80
87280,note_on,16,0,2,,,,,,,,0,,,48,80
87334,control_change,415,0,3,,,,,,,,0,64,0,,
87344,note_on,64,0,2,,,,,,,,0,,,60,0
87344,note_on,0,0,2,,,,,,,,0,,,48,0
87344,note_on,64,0,1,,,,,,,,0,,,84,0
87344,note_on,0,0,1,,,,,,,,0,,,72,0
87355,set_tempo,1326,1,0,,,,,,550459,,,,,,
87360,note_on,16,0,2,,,,,,,,0,,,53,80
87360,note_on,16,0,1,,,,,,,,0,,,77,80
87360,note_on,0,0,2,,,,,,,,0,,,65,80
87360,note_on,0,0,1,,,,,,,,0,,,89,80
87369,control_change,35,0,3,,,,,,,,0,64,127,,
87381,set_tempo,26,1,0,,,,,,547445,,,,,,
87399,set_tempo,18,1,0,,,,,,544465,,,,,,
87418,set_tempo,19,1,0,,,,,,541516,,,,,,
87424,note_on,0,0,2,,,,,,,,0,,,53,0
87424,note_on,64,0,1,,,,,,,,0,,,89,0
87424,note_on,64,0,2,,,,,,,,0,,,65,0
87424,note_on,0,0,1,,,,,,,,0,,,77,0
87437,set_tempo,19,1,0,,,,,,538600,,,,,,
87440,note_on,0,0,1,,,,,,,,0,,,76,80
87440,note_on,0,0,2,,,,,,,,0,,,64,80
87440,note_on,16,0,1,,,,,,,,0,,,88,80
87440,note_on,16,0,2,,,,,,,,0,,,52,80
87456,set_tempo,19,1,0,,,,,,535714,,,,,,
87475,set_tempo,19,1,0,,,,,,532860,,,,,,
87494,set_tempo,19,1,0,,,,,,530035,,,,,,
87504,note_on,64,0,1,,,,,,,,0,,,76,0
87504,note_on,0,0,2,,,,,,,,0,,,52,0
87504,note_on,0,0,1,,,,,,,,0,,,88,0
87504,note_on,64,0,2,,,,,,,,0,,,64,0
87513,set_tempo,19,1,0,,,,,,527241,,,,,,
87520,note_on,16,0,2,,,,,,,,0,,,53,80
87520,note_on,16,0,1,,,,,,,,0,,,77,80
87520,note_on,0,0,2,,,,,,,,0,,,65,80
87520,note_on,0,0,1,,,,,,,,0,,,89,80
87532,set_tempo,19,1,0,,,,,,524476,,,,,,
87557,set_tempo,25,1,0,,,,,,521739,,,,,,
87576,set_tempo,19,1,0,,,,,,519031,,,,,,
87584,note_on,0,0,1,,,,,,,,0,,,77,0
87584,note_on,64,0,2,,,,,,,,0,,,65,0
87584,note_on,0,0,2,,,,,,,,0,,,53,0
87584,note_on,64,0,1,,,,,,,,0,,,89,0
87595,set_tempo,19,1,0,,,,,,516351,,,,,,
87600,note_on,0,0,1,,,,,,,,0,,,80,80
87600,note_on,16,0,1,,,,,,,,0,,,92,80
87600,note_on,16,0,2,,,,,,,,0,,,56,80
87600,note_on,0,0,2,,,,,,,,0,,,68,80
87614,set_tempo,19,1,0,,,,,,513699,,,,,,
87633,set_tempo,19,1,0,,,,,,511073,,,,,,
87652,set_tempo,19,1,0,,,,,,508475,,,,,,
87664,note_on,0,0,1,,,,,,,,0,,,92,0
87664,note_on,64,0,1,,,,,,,,0,,,80,0
87664,note_on,0,0,2,,,,,,,,0,,,56,0
87664,note_on,64,0,2,,,,,,,,0,,,68,0
87671,set_tempo,19,1,0,,,,,,505902,,,,,,
87680,note_on,16,0,2,,,,,,,,0,,,55,80
87680,note_on,0,0,1,,,,,,,,0,,,91,80
87680,note_on,0,0,2,,,,,,,,0,,,67,80
87680,note_on,16,0,1,,,,,,,,0,,,79,80
87690,set_tempo,19,1,0,,,,,,503356,,,,,,
87709,set_tempo,19,1,0,,,,,,503356,,,,,,
87722,set_tempo,13,1,0,,,,,,505902,,,,,,
87728,set_tempo,6,1,0,,,,,,508475,,,,,,
87734,set_tempo,6,1,0,,,,,,511073,,,,,,
87741,set_tempo,7,1,0,,,,,,513699,,,,,,
87744,note_on,64,0,2,,,,,,,,0,,,67,0
87744,note_on,0,0,1,,,,,,,,0,,,79,0
87744,note_on,0,0,2,,,,,,,,0,,,55,0
87744,note_on,64,0,1,,,,,,,,0,,,91,0
87747,set_tempo,6,1,0,,,,,,516351,,,,,,
87753,set_tempo,6,1,0,,,,,,519031,,,,,,
87759,set_tempo,6,1,0,,,,,,521739,,,,,,
87760,note_on,16,0,2,,,,,,,,0,,,53,80
87760,note_on,16,0,1,,,,,,,,0,,,77,80
87760,note_on,0,0,2,,,,,,,,0,,,65,80
87760,note_on,0,0,1,,,,,,,,0,,,89,80
87766,set_tempo,7,1,0,,,,,,524476,,,,,,
87772,set_tempo,6,1,0,,,,,,527241,,,,,,
87778,set_tempo,6,1,0,,,,,,530035,,,,,,
87785,set_tempo,7,1,0,,,,,,532860,,,,,,
87791,set_tempo,6,1,0,,,,,,535714,,,,,,
87797,set_tempo,6,1,0,,,,,,538600,,,,,,
87804,set_tempo,7,1,0,,,,,,541516,,,,,,
87810,set_tempo,6,1,0,,,,,,544465,,,,,,
87816,set_tempo,6,1,0,,,,,,547445,,,,,,
87823,set_tempo,7,1,0,,,,,,550459,,,,,,
87824,note_on,0,0,1,,,,,,,,0,,,77,0
87824,note_on,64,0,2,,,,,,,,0,,,65,0
87824,note_on,64,0,1,,,,,,,,0,,,89,0
87824,note_on,0,0,2,,,,,,,,0,,,53,0
87829,set_tempo,6,1,0,,,,,,553506,,,,,,
87835,set_tempo,6,1,0,,,,,,556586,,,,,,
87840,note_on,0,0,1,,,,,,,,0,,,75,80
87840,note_on,0,0,1,,,,,,,,0,,,80,80
87840,note_on,0,0,1,,,,,,,,0,,,84,80
87840,note_on,16,0,1,,,,,,,,0,,,87,80
87840,control_change,471,0,3,,,,,,,,0,64,0,,
87840,note_on,0,0,2,,,,,,,,0,,,51,80
87840,note_on,0,0,2,,,,,,,,0,,,56,80
87840,note_on,0,0,2,,,,,,,,0,,,60,80
87840,note_on,16,0,2,,,,,,,,0,,,63,80
87848,set_tempo,13,1,0,,,,,,553506,,,,,,
87896,control_change,56,0,3,,,,,,,,0,64,127,,
87904,note_on,64,0,1,,,,,,,,0,,,84,0
87904,note_on,0,0,1,,,,,,,,0,,,80,0
87904,note_on,0,0,1,,,,,,,,0,,,87,0
87904,note_on,64,0,2,,,,,,,,0,,,56,0
87904,note_on,0,0,2,,,,,,,,0,,,51,0
87904,note_on,0,0,1,,,,,,,,0,,,75,0
87904,note_on,0,0,2,,,,,,,,0,,,60,0
87904,note_on,0,0,2,,,,,,,,0,,,63,0
87920,note_on,16,0,2,,,,,,,,0,,,60,80
87920,note_on,16,0,1,,,,,,,,0,,,84,80
87920,note_on,0,0,2,,,,,,,,0,,,48,80
87920,note_on,0,0,1,,,,,,,,0,,,72,80
87984,note_on,64,0,1,,,,,,,,0,,,72,0
87984,note_on,0,0,1,,,,,,,,0,,,84,0
87984,note_on,64,0,2,,,,,,,,0,,,48,0
87984,note_on,0,0,2,,,,,,,,0,,,60,0
88000,note_on,16,0,2,,,,,,,,0,,,44,80
88000,note_on,0,0,2,,,,,,,,0,,,56,80
88000,note_on,16,0,1,,,,,,,,0,,,80,80
88000,note_on,0,0,1,,,,,,,,0,,,68,80
88064,note_on,64,0,2,,,,,,,,0,,,56,0
88064,note_on,0,0,2,,,,,,,,0,,,44,0
88064,note_on,0,0,1,,,,,,,,0,,,80,0
88064,note_on,64,0,1,,,,,,,,0,,,68,0
88080,note_on,16,0,2,,,,,,,,0,,,51,80
88080,note_on,0,0,2,,,,,,,,0,,,39,80
88080,note_on,0,0,1,,,,,,,,0,,,75,80
88080,note_on,16,0,1,,,,,,,,0,,,63,80
88144,note_on,0,0,2,,,,,,,,0,,,51,0
88144,note_on,0,0,1,,,,,,,,0,,,63,0
88144,note_on,64,0,1,,,,,,,,0,,,75,0
88144,note_on,64,0,2,,,,,,,,0,,,39,0
88160,note_on,0,0,1,,,,,,,,0,,,68,80
88160,note_on,16,0,2,,,,,,,,0,,,44,80
88160,note_on,16,0,1,,,,,,,,0,,,80,80
88160,note_on,0,0,2,,,,,,,,0,,,56,80
88224,note_on,0,0,1,,,,,,,,0,,,80,0
88224,note_on,0,0,2,,,,,,,,0,,,44,0
88224,note_on,64,0,2,,,,,,,,0,,,56,0
88224,note_on,64,0,1,,,,,,,,0,,,68,0
88240,note_on,0,0,1,,,,,,,,0,,,84,80
88240,note_on,16,0,2,,,,,,,,0,,,48,80
88240,note_on,16,0,1,,,,,,,,0,,,72,80
88240,note_on,0,0,2,,,,,,,,0,,,60,80
88304,note_on,0,0,1,,,,,,,,0,,,72,0
88304,note_on,0,0,2,,,,,,,,0,,,48,0
88304,note_on,64,0,2,,,,,,,,0,,,60,0
88304,note_on,64,0,1,,,,,,,,0,,,84,0
88311,control_change,415,0,3,,,,,,,,0,64,0,,
88320,note_on,0,0,1,,,,,,,,0,,,75,80
88320,note_on,0,0,1,,,,,,,,0,,,82,80
88320,note_on,16,0,2,,,,,,,,0,,,58,80
88320,note_on,0,0,1,,,,,,,,0,,,79,80
88320,note_on,0,0,2,,,,,,,,0,,,51,80
88320,note_on,0,0,2,,,,,,,,0,,,55,80
88320,note_on,0,0,2,,,,,,,,0,,,63,80
88320,note_on,16,0,1,,,,,,,,0,,,87,80
88363,control_change,52,0,3,,,,,,,,0,64,127,,
88384,note_on,64,0,1,,,,,,,,0,,,82,0
88384,note_on,0,0,1,,,,,,,,0,,,79,0
88384,note_on,0,0,1,,,,,,,,0,,,87,0
88384,note_on,0,0,1,,,,,,,,0,,,75,0
88384,note_on,0,0,2,,,,,,,,0,,,55,0
88384,note_on,0,0,2,,,,,,,,0,,,51,0
88384,note_on,64,0,2,,,,,,,,0,,,63,0
88384,note_on,0,0,2,,,,,,,,0,,,58,0
88400,note_on,0,0,1,,,,,,,,0,,,82,80
88400,note_on,16,0,2,,,,,,,,0,,,46,80
88400,note_on,0,0,2,,,,,,,,0,,,58,80
88400,note_on,16,0,1,,,,,,,,0,,,70,80
88464,note_on,0,0,2,,,,,,,,0,,,46,0
88464,note_on,0,0,1,,,,,,,,0,,,70,0
88464,note_on,64,0,1,,,,,,,,0,,,82,0
88464,note_on,64,0,2,,,,,,,,0,,,58,0
88480,note_on,16,0,1,,,,,,,,0,,,79,80
88480,note_on,16,0,2,,,,,,,,0,,,43,80
88480,note_on,0,0,1,,,,,,,,0,,,67,80
88480,note_on,0,0,2,,,,,,,,0,,,55,80
88544,note_on,0,0,2,,,,,,,,0,,,43,0
88544,note_on,64,0,2,,,,,,,,0,,,55,0
88544,note_on,64,0,1,,,,,,,,0,,,67,0
88544,note_on,0,0,1,,,,,,,,0,,,79,0
88560,note_on,16,0,1,,,,,,,,0,,,63,80
88560,note_on,0,0,1,,,,,,,,0,,,75,80
88560,note_on,0,0,2,,,,,,,,0,,,51,80
88560,note_on,16,0,2,,,,,,,,0,,,39,80
88624,note_on,64,0,2,,,,,,,,0,,,51,0
88624,note_on,64,0,1,,,,,,,,0,,,75,0
88624,note_on,0,0,1,,,,,,,,0,,,63,0
88624,note_on,0,0,2,,,,,,,,0,,,39,0
88640,note_on,0,0,2,,,,,,,,0,,,43,80
88640,note_on,16,0,2,,,,,,,,0,,,55,80
88640,note_on,0,0,1,,,,,,,,0,,,67,80
88640,note_on,16,0,1,,,,,,,,0,,,79,80
88704,note_on,0,0,2,,,,,,,,0,,,55,0
88704,note_on,64,0,2,,,,,,,,0,,,43,0
88704,note_on,64,0,1,,,,,,,,0,,,67,0
88704,note_on,0,0,1,,,,,,,,0,,,79,0
88720,note_on,0,0,2,,,,,,,,0,,,58,80
88720,note_on,16,0,2,,,,,,,,0,,,46,80
88720,note_on,16,0,1,,,,,,,,0,,,70,80
88720,note_on,0,0,1,,,,,,,,0,,,82,80
88784,note_on,64,0,2,,,,,,,,0,,,58,0
88784,note_on,0,0,1,,,,,,,,0,,,70,0
88784,note_on,0,0,2,,,,,,,,0,,,46,0
88784,note_on,64,0,1,,,,,,,,0,,,82,0
88800,note_on,0,0,1,,,,,,,,0,,,75,80
88800,note_on,16,0,2,,,,,,,,0,,,56,80
88800,note_on,0,0,2,,,,,,,,0,,,60,80
88800,note_on,0,0,1,,,,,,,,0,,,87,80
88800,note_on,0,0,2,,,,,,,,0,,,63,80
88800,control_change,437,0,3,,,,,,,,0,64,0,,
88800,note_on,16,0,1,,,,,,,,0,,,84,80
88800,note_on,0,0,1,,,,,,,,0,,,80,80
88800,note_on,0,0,2,,,,,,,,0,,,51,80
88843,control_change,43,0,3,,,,,,,,0,64,127,,
88864,note_on,0,0,1,,,,,,,,0,,,84,0
88864,note_on,0,0,1,,,,,,,,0,,,80,0
88864,note_on,0,0,1,,,,,,,,0,,,87,0
88864,note_on,0,0,2,,,,,,,,0,,,51,0
88864,note_on,0,0,2,,,,,,,,0,,,56,0
88864,note_on,0,0,2,,,,,,,,0,,,63,0
88864,note_on,64,0,2,,,,,,,,0,,,60,0
88864,note_on,64,0,1,,,,,,,,0,,,75,0
88880,note_on,16,0,2,,,,,,,,0,,,60,80
88880,note_on,0,0,1,,,,,,,,0,,,72,80
88880,note_on,0,0,2,,,,,,,,0,,,48,80
88880,note_on,16,0,1,,,,,,,,0,,,84,80
88944,note_on,0,0,1,,,,,,,,0,,,84,0
88944,note_on,64,0,2,,,,,,,,0,,,48,0
88944,note_on,0,0,2,,,,,,,,0,,,60,0
88944,note_on,64,0,1,,,,,,,,0,,,72,0
88960,note_on,0,0,1,,,,,,,,0,,,68,80
88960,note_on,16,0,2,,,,,,,,0,,,44,80
88960,note_on,16,0,1,,,,,,,,0,,,80,80
88960,note_on,0,0,2,,,,,,,,0,,,56,80
89024,note_on,64,0,1,,,,,,,,0,,,68,0
89024,note_on,0,0,1,,,,,,,,0,,,80,0
89024,note_on,64,0,2,,,,,,,,0,,,56,0
89024,note_on,0,0,2,,,,,,,,0,,,44,0
89040,note_on,16,0,1,,,,,,,,0,,,63,80
89040,note_on,16,0,2,,,,,,,,0,,,51,80
89040,note_on,0,0,1,,,,,,,,0,,,75,80
89040,note_on,0,0,2,,,,,,,,0,,,39,80
89104,note_on,0,0,2,,,,,,,,0,,,51,0
89104,note_on,0,0,1,,,,,,,,0,,,63,0
89104,note_on,64,0,2,,,,,,,,0,,,39,0
89104,note_on,64,0,1,,,,,,,,0,,,75,0
89120,note_on,16,0,1,,,,,,,,0,,,80,80
89120,note_on,0,0,1,,,,,,,,0,,,68,80
89120,note_on,16,0,2,,,,,,,,0,,,44,80
89120,note_on,0,0,2,,,,,,,,0,,,56,80
89184,note_on,0,0,1,,,,,,,,0,,,80,0
89184,note_on,64,0,2,,,,,,,,0,,,56,0
89184,note_on,64,0,1,,,,,,,,0,,,68,0
89184,note_on,0,0,2,,,,,,,,0,,,44,0
89200,note_on,0,0,2,,,,,,,,0,,,48,80
89200,note_on,0,0,1,,,,,,,,0,,,72,80
89200,note_on,16,0,1,,,,,,,,0,,,84,80
89200,note_on,16,0,2,,,,,,,,0,,,60,80
89243,set_tempo,1395,1,0,,,,,,556586,,,,,,
89246,control_change,403,0,3,,,,,,,,0,64,0,,
89264,note_on,64,0,1,,,,,,,,0,,,72,0
89264,note_on,0,0,1,,,,,,,,0,,,84,0
89264,note_on,64,0,2,,,,,,,,0,,,48,0
89264,note_on,0,0,2,,,,,,,,0,,,60,0
89274,set_tempo,31,1,0,,,,,,553506,,,,,,
89280,note_on,0,0,1,,,,,,,,0,,,75,80
89280,note_on,16,0,1,,,,,,,,0,,,87,80
89280,note_on,16,0,2,,,,,,,,0,,,63,80
89280,note_on,0,0,2,,,,,,,,0,,,51,80
89289,control_change,43,0,3,,,,,,,,0,64,127,,
89300,set_tempo,26,1,0,,,,,,550459,,,,,,
89331,set_tempo,31,1,0,,,,,,547445,,,,,,
89344,note_on,0,0,2,,,,,,,,0,,,63,0
89344,note_on,64,0,2,,,,,,,,0,,,51,0
89344,note_on,64,0,1,,,,,,,,0,,,75,0
89344,note_on,0,0,1,,,,,,,,0,,,87,0
89357,set_tempo,26,1,0,,,,,,544465,,,,,,
89360,note_on,0,0,1,,,,,,,,0,,,84,80
89360,note_on,16,0,2,,,,,,,,0,,,72,80
89360,note_on,16,0,1,,,,,,,,0,,,96,80
89360,note_on,0,0,2,,,,,,,,0,,,60,80
89388,set_tempo,31,1,0,,,,,,541516,,,,,,
89413,set_tempo,25,1,0,,,,,,538600,,,,,,
89424,note_on,64,0,1,,,,,,,,0,,,84,0
89424,note_on,0,0,2,,,,,,,,0,,,72,0
89424,note_on,0,0,1,,,,,,,,0,,,96,0
89424,note_on,64,0,2,,,,,,,,0,,,60,0
89439,set_tempo,26,1,0,,,,,,535714,,,,,,
89440,note_on,16,0,2,,,,,,,,0,,,55,80
89440,note_on,0,0,1,,,,,,,,0,,,79,80
89440,note_on,0,0,2,,,,,,,,0,,,67,80
89440,note_on,16,0,1,,,,,,,,0,,,91,80
89470,set_tempo,31,1,0,,,,,,532860,,,,,,
89495,set_tempo,25,1,0,,,,,,530035,,,,,,
89504,note_on,0,0,2,,,,,,,,0,,,55,0
89504,note_on,64,0,1,,,,,,,,0,,,79,0
89504,note_on,64,0,2,,,,,,,,0,,,67,0
89504,note_on,0,0,1,,,,,,,,0,,,91,0
89520,note_on,16,0,2,,,,,,,,0,,,58,80
89520,note_on,0,0,1,,,,,,,,0,,,94,80
89520,note_on,16,0,1,,,,,,,,0,,,82,80
89520,note_on,0,0,2,,,,,,,,0,,,70,80
89527,set_tempo,32,1,0,,,,,,527241,,,,,,
89552,set_tempo,25,1,0,,,,,,524476,,,,,,
89578,set_tempo,26,1,0,,,,,,521739,,,,,,
89584,note_on,64,0,2,,,,,,,,0,,,70,0
89584,note_on,0,0,2,,,,,,,,0,,,58,0
89584,note_on,64,0,1,,,,,,,,0,,,94,0
89584,note_on,0,0,1,,,,,,,,0,,,82,0
89600,note_on,16,0,1,,,,,,,,0,,,92,80
89600,note_on,0,0,2,,,,,,,,0,,,68,80
89600,note_on,16,0,2,,,,,,,,0,,,56,80
89600,note_on,0,0,1,,,,,,,,0,,,80,80
89609,set_tempo,31,1,0,,,,,,519031,,,,,,
89622,set_tempo,13,1,0,,,,,,521739,,,,,,
89634,set_tempo,12,1,0,,,,,,524476,,,,,,
89647,set_tempo,13,1,0,,,,,,527241,,,,,,
89660,set_tempo,13,1,0,,,,,,530035,,,,,,
89664,note_on,0,0,1,,,,,,,,0,,,92,0
89664,note_on,64,0,1,,,,,,,,0,,,80,0
89664,note_on,64,0,2,,,,,,,,0,,,68,0
89664,note_on,0,0,2,,,,,,,,0,,,56,0
89672,set_tempo,12,1,0,,,,,,532860,,,,,,
89680,note_on,0,0,2,,,,,,,,0,,,53,80
89680,note_on,0,0,1,,,,,,,,0,,,77,80
89680,note_on,16,0,2,,,,,,,,0,,,65,80
89680,note_on,16,0,1,,,,,,,,0,,,89,80
89685,set_tempo,13,1,0,,,,,,535714,,,,,,
89698,set_tempo,13,1,0,,,,,,538600,,,,,,
89710,set_tempo,12,1,0,,,,,,541516,,,,,,
89723,set_tempo,13,1,0,,,,,,544465,,,,,,
89735,set_tempo,12,1,0,,,,,,547445,,,,,,
89744,note_on,0,0,2,,,,,,,,0,,,65,0
89744,note_on,64,0,1,,,,,,,,0,,,77,0
89744,note_on,0,0,1,,,,,,,,0,,,89,0
89744,note_on,64,0,2,,,,,,,,0,,,53,0
89748,set_tempo,13,1,0,,,,,,550459,,,,,,
89754,set_tempo,6,1,0,,,,,,553506,,,,,,
89760,note_on,0,0,1,,,,,,,,0,,,75,80
89760,note_on,0,0,2,,,,,,,,0,,,60,80
89760,note_on,0,0,1,,,,,,,,0,,,87,80
89760,note_on,0,0,2,,,,,,,,0,,,63,80
89760,note_on,0,0,2,,,,,,,,0,,,51,80
89760,note_on,16,0,2,,,,,,,,0,,,56,80
89760,note_on,16,0,1,,,,,,,,0,,,80,80
89760,note_on,0,0,1,,,,,,,,0,,,84,80
89761,set_tempo,7,1,0,,,,,,553506,,,,,,
89769,control_change,480,0,3,,,,,,,,0,64,0,,
89816,control_change,47,0,3,,,,,,,,0,64,127,,
89824,note_on,0,0,2,,,,,,,,0,,,60,0
89824,note_on,0,0,1,,,,,,,,0,,,84,0
89824,note_on,0,0,1,,,,,,,,0,,,87,0
89824,note_on,64,0,2,,,,,,,,0,,,63,0
89824,note_on,0,0,2,,,,,,,,0,,,56,0
89824,note_on,0,0,2,,,,,,,,0,,,51,0
89824,note_on,0,0,1,,,,,,,,0,,,80,0
89824,note_on,64,0,1,,,,,,,,0,,,75,0
89840,note_on,0,0,2,,,,,,,,0,,,60,80
89840,note_on,16,0,1,,,,,,,,0,,,72,80
89840,note_on,0,0,1,,,,,,,,0,,,84,80
89840,note_on,16,0,2,,,,,,,,0,,,48,80
89904,note_on,0,0,1,,,,,,,,0,,,72,0
89904,note_on,64,0,2,,,,,,,,0,,,60,0
89904,note_on,0,0,2,,,,,,,,0,,,48,0
89904,note_on,64,0,1,,,,,,,,0,,,84,0
89920,note_on,16,0,1,,,,,,,,0,,,68,80
89920,note_on,0,0,1,,,,,,,,0,,,80,80
89920,note_on,16,0,2,,,,,,,,0,,,56,80
89920,note_on,0,0,2,,,,,,,,0,,,44,80
89984,note_on,64,0,1,,,,,,,,0,,,80,0
89984,note_on,0,0,1,,,,,,,,0,,,68,0
89984,note_on,64,0,2,,,,,,,,0,,,44,0
89984,note_on,0,0,2,,,,,,,,0,,,56,0
90000,note_on,16,0,2,,,,,,,,0,,,51,80
90000,note_on,0,0,1,,,,,,,,0,,,63,80
90000,note_on,16,0,1,,,,,,,,0,,,75,80
90000,note_on,0,0,2,,,,,,,,0,,,39,80
90064,note_on,0,0,2,,,,,,,,0,,,51,0
90064,note_on,64,0,2,,,,,,,,0,,,39,0
90064,note_on,64,0,1,,,,,,,,0,,,63,0
90064,note_on,0,0,1,,,,,,,,0,,,75,0
90080,note_on,16,0,1,,,,,,,,0,,,68,80
90080,note_on,16,0,2,,,,,,,,0,,,44,80
90080,note_on,0,0,1,,,,,,,,0,,,80,80
90080,note_on,0,0,2,,,,,,,,0,,,56,80
90144,note_on,64,0,2,,,,,,,,0,,,56,0
90144,note_on,0,0,1,,,,,,,,0,,,68,0
90144,note_on,0,0,2,,,,,,,,0,,,44,0
90144,note_on,64,0,1,,,,,,,,0,,,80,0
90160,note_on,16,0,1,,,,,,,,0,,,84,80
90160,note_on,16,0,2,,,,,,,,0,,,60,80
90160,note_on,0,0,1,,,,,,,,0,,,72,80
90160,note_on,0,0,2,,,,,,,,0,,,48,80
90224,note_on,0,0,1,,,,,,,,0,,,84,0
90224,note_on,64,0,1,,,,,,,,0,,,72,0
90224,note_on,0,0,2,,,,,,,,0,,,60,0
90224,note_on,64,0,2,,,,,,,,0,,,48,0
90227,control_change,411,0,3,,,,,,,,0,64,0,,
90240,note_on,0,0,1,,,,,,,,0,,,75,80
90240,note_on,0,0,1,,,,,,,,0,,,79,80
90240,note_on,0,0,1,,,,,,,,0,,,82,80
90240,note_on,0,0,2,,,,,,,,0,,,55,80
90240,note_on,0,0,2,,,,,,,,0,,,58,80
90240,note_on,16,0,2,,,,,,,,0,,,63,80
90240,note_on,0,0,2,,,,,,,,0,,,51,80
90240,note_on,16,0,1,,,,,,,,0,,,87,80
90261,control_change,34,0,3,,,,,,,,0,64,127,,
90304,note_on,64,0,1,,,,,,,,0,,,82,0
90304,note_on,0,0,1,,,,,,,,0,,,75,0
90304,note_on,0,0,1,,,,,,,,0,,,79,0
90304,note_on,0,0,1,,,,,,,,0,,,87,0
90304,note_on,0,0,2,,,,,,,,0,,,55,0
90304,note_on,0,0,2,,,,,,,,0,,,58,0
90304,note_on,0,0,2,,,,,,,,0,,,63,0
90304,note_on,64,0,2,,,,,,,,0,,,51,0
90320,note_on,16,0,1,,,,,,,,0,,,82,80
90320,note_on,16,0,2,,,,,,,,0,,,46,80
90320,note_on,0,0,2,,,,,,,,0,,,58,80
90320,note_on,0,0,1,,,,,,,,0,,,70,80
90384,note_on,0,0,1,,,,,,,,0,,,82,0
90384,note_on,64,0,2,,,,,,,,0,,,58,0
90384,note_on,0,0,2,,,,,,,,0,,,46,0
90384,note_on,64,0,1,,,,,,,,0,,,70,0
90400,note_on,16,0,1,,,,,,,,0,,,79,80
90400,note_on,0,0,2,,,,,,,,0,,,43,80
90400,note_on,16,0,2,,,,,,,,0,,,55,80
90400,note_on,0,0,1,,,,,,,,0,,,67,80
90464,note_on,0,0,1,,,,,,,,0,,,79,0
90464,note_on,0,0,2,,,,,,,,0,,,55,0
90464,note_on,64,0,1,,,,,,,,0,,,67,0
90464,note_on,64,0,2,,,,,,,,0,,,43,0
90480,note_on,0,0,2,,,,,,,,0,,,51,80
90480,note_on,16,0,2,,,,,,,,0,,,39,80
90480,note_on,0,0,1,,,,,,,,0,,,75,80
90480,note_on,16,0,1,,,,,,,,0,,,63,80
90544,note_on,0,0,1,,,,,,,,0,,,63,0
90544,note_on,64,0,2,,,,,,,,0,,,51,0
90544,note_on,64,0,1,,,,,,,,0,,,75,0
90544,note_on,0,0,2,,,,,,,,0,,,39,0
90560,note_on,0,0,2,,,,,,,,0,,,43,80
90560,note_on,0,0,1,,,,,,,,0,,,67,80
90560,note_on,16,0,1,,,,,,,,0,,,79,80
90560,note_on,16,0,2,,,,,,,,0,,,55,80
90624,note_on,0,0,1,,,,,,,,0,,,79,0
90624,note_on,0,0,2,,,,,,,,0,,,55,0
90624,note_on,64,0,1,,,,,,,,0,,,67,0
90624,note_on,64,0,2,,,,,,,,0,,,43,0
90640,note_on,16,0,1,,,,,,,,0,,,70,80
90640,note_on,0,0,1,,,,,,,,0,,,82,80
90640,note_on,0,0,2,,,,,,,,0,,,58,80
90640,note_on,16,0,2,,,,,,,,0,,,46,80
90704,note_on,0,0,2,,,,,,,,0,,,46,0
90704,note_on,0,0,1,,,,,,,,0,,,70,0
90704,note_on,64,0,1,,,,,,,,0,,,82,0
90704,note_on,64,0,2,,,,,,,,0,,,58,0
90720,note_on,0,0,2,,,,,,,,0,,,56,80
90720,note_on,0,0,2,,,,,,,,0,,,51,80
90720,note_on,16,0,1,,,,,,,,0,,,87,80
90720,control_change,459,0,3,,,,,,,,0,64,0,,
90720,note_on,0,0,2,,,,,,,,0,,,63,80
90720,note_on,0,0,1,,,,,,,,0,,,75,80
90720,note_on,0,0,1,,,,,,,,0,,,80,80
90720,note_on,0,0,1,,,,,,,,0,,,83,80
90720,note_on,16,0,2,,,,,,,,0,,,59,80
90773,control_change,53,0,3,,,,,,,,0,64,127,,
90784,note_on,0,0,2,,,,,,,,0,,,63,0
90784,note_on,64,0,2,,,,,,,,0,,,51,0
90784,note_on,0,0,2,,,,,,,,0,,,59,0
90784,note_on,0,0,2,,,,,,,,0,,,56,0
90784,note_on,0,0,1,,,,,,,,0,,,75,0
90784,note_on,0,0,1,,,,,,,,0,,,87,0
90784,note_on,64,0,1,,,,,,,,0,,,83,0
90784,note_on,0,0,1,,,,,,,,0,,,80,0
90800,note_on,0,0,1,,,,,,,,0,,,83,80
90800,note_on,0,0,2,,,,,,,,0,,,59,80
90800,note_on,16,0,1,,,,,,,,0,,,71,80
90800,note_on,16,0,2,,,,,,,,0,,,47,80
90864,note_on,0,0,1,,,,,,,,0,,,71,0
90864,note_on,0,0,2,,,,,,,,0,,,47,0
90864,note_on,64,0,1,,,,,,,,0,,,83,0
90864,note_on,64,0,2,,,,,,,,0,,,59,0
90880,note_on,0,0,1,,,,,,,,0,,,80,80
90880,note_on,16,0,1,,,,,,,,0,,,68,80
90880,note_on,0,0,2,,,,,,,,0,,,44,80
90880,note_on,16,0,2,,,,,,,,0,,,56,80
90944,note_on,0,0,1,,,,,,,,0,,,68,0
90944,note_on,0,0,2,,,,,,,,0,,,56,0
90944,note_on,64,0,2,,,,,,,,0,,,44,0
90944,note_on,64,0,1,,,,,,,,0,,,80,0
90960,note_on,16,0,2,,,,,,,,0,,,51,80
90960,note_on,0,0,2,,,,,,,,0,,,39,80
90960,note_on,16,0,1,,,,,,,,0,,,75,80
90960,note_on,0,0,1,,,,,,,,0,,,63,80
91024,note_on,64,0,2,,,,,,,,0,,,39,0
91024,note_on,0,0,2,,,,,,,,0,,,51,0
91024,note_on,64,0,1,,,,,,,,0,,,63,0
91024,note_on,0,0,1,,,,,,,,0,,,75,0
91040,note_on,0,0,2,,,,,,,,0,,,44,80
91040,note_on,16,0,1,,,,,,,,0,,,80,80
91040,note_on,16,0,2,,,,,,,,0,,,56,80
91040,note_on,0,0,1,,,,,,,,0,,,68,80
91104,note_on,0,0,2,,,,,,,,0,,,56,0
91104,note_on,0,0,1,,,,,,,,0,,,80,0
91104,note_on,64,0,2,,,,,,,,0,,,44,0
91104,note_on,64,0,1,,,,,,,,0,,,68,0
91120,note_on,16,0,2,,,,,,,,0,,,47,80
91120,note_on,0,0,2,,,,,,,,0,,,59,80
91120,note_on,16,0,1,,,,,,,,0,,,71,80
91120,note_on,0,0,1,,,,,,,,0,,,83,80
91184,note_on,0,0,1,,,,,,,,0,,,71,0
91184,note_on,64,0,1,,,,,,,,0,,,83,0
91184,note_on,64,0,2,,,,,,,,0,,,59,0
91184,note_on,0,0,2,,,,,,,,0,,,47,0
91192,set_tempo,1431,1,0,,,,,,508475,,,,,,
91200,note_on,0,0,1,,,,,,,,0,,,87,80
91200,note_on,0,0,2,,,,,,,,0,,,51,80
91200,note_on,16,0,2,,,,,,,,0,,,63,80
91200,control_change,427,0,3,,,,,,,,0,64,0,,
91200,note_on,16,0,1,,,,,,,,0,,,75,80
91207,set_tempo,15,1,0,,,,,,511073,,,,,,
91221,set_tempo,14,1,0,,,,,,513699,,,,,,
91233,set_tempo,12,1,0,,,,,,516351,,,,,,
91247,set_tempo,14,1,0,,,,,,519031,,,,,,
91248,control_change,48,0,3,,,,,,,,0,64,127,,
91262,set_tempo,15,1,0,,,,,,521739,,,,,,
91264,note_on,64,0,2,,,,,,,,0,,,51,0
91264,note_on,0,0,1,,,,,,,,0,,,75,0
91264,note_on,64,0,1,,,,,,,,0,,,87,0
91264,note_on,0,0,2,,,,,,,,0,,,63,0
91274,set_tempo,12,1,0,,,,,,524476,,,,,,
91280,note_on,0,0,1,,,,,,,,0,,,95,80
91280,note_on,16,0,1,,,,,,,,0,,,83,80
91280,note_on,16,0,2,,,,,,,,0,,,59,80
91280,note_on,0,0,2,,,,,,,,0,,,71,80
91288,set_tempo,14,1,0,,,,,,527241,,,,,,
91303,set_tempo,15,1,0,,,,,,530035,,,,,,
91315,set_tempo,12,1,0,,,,,,532860,,,,,,
91329,set_tempo,14,1,0,,,,,,535714,,,,,,
91343,set_tempo,14,1,0,,,,,,538600,,,,,,
91344,note_on,0,0,1,,,,,,,,0,,,83,0
91344,note_on,0,0,2,,,,,,,,0,,,59,0
91344,note_on,64,0,2,,,,,,,,0,,,71,0
91344,note_on,64,0,1,,,,,,,,0,,,95,0
91355,set_tempo,12,1,0,,,,,,541516,,,,,,
91360,note_on,0,0,1,,,,,,,,0,,,79,80
91360,note_on,16,0,2,,,,,,,,0,,,67,80
91360,note_on,0,0,2,,,,,,,,0,,,55,80
91360,note_on,16,0,1,,,,,,,,0,,,91,80
91370,set_tempo,15,1,0,,,,,,544465,,,,,,
91384,set_tempo,14,1,0,,,,,,547445,,,,,,
91396,set_tempo,12,1,0,,,,,,550459,,,,,,
91411,set_tempo,15,1,0,,,,,,553506,,,,,,
91424,note_on,64,0,2,,,,,,,,0,,,55,0
91424,note_on,64,0,1,,,,,,,,0,,,79,0
91424,note_on,0,0,1,,,,,,,,0,,,91,0
91424,note_on,0,0,2,,,,,,,,0,,,67,0
91425,set_tempo,14,1,0,,,,,,556586,,,,,,
91437,set_tempo,12,1,0,,,,,,559701,,,,,,
91440,note_on,16,0,1,,,,,,,,0,,,94,80
91440,note_on,16,0,2,,,,,,,,0,,,70,80
91440,note_on,0,0,1,,,,,,,,0,,,82,80
91440,note_on,0,0,2,,,,,,,,0,,,58,80
91451,set_tempo,14,1,0,,,,,,562852,,,,,,
91466,set_tempo,15,1,0,,,,,,566038,,,,,,
91478,set_tempo,12,1,0,,,,,,569260,,,,,,
91492,set_tempo,14,1,0,,,,,,572519,,,,,,
91504,note_on,64,0,1,,,,,,,,0,,,82,0
91504,note_on,0,0,1,,,,,,,,0,,,94,0
91504,note_on,64,0,2,,,,,,,,0,,,58,0
91504,note_on,0,0,2,,,,,,,,0,,,70,0
91507,set_tempo,15,1,0,,,,,,575816,,,,,,
91519,set_tempo,12,1,0,,,,,,579151,,,,,,
91520,note_on,16,0,2,,,,,,,,0,,,68,80
91520,note_on,16,0,1,,,,,,,,0,,,80,80
91520,note_on,0,0,1,,,,,,,,0,,,92,80
91520,note_on,0,0,2,,,,,,,,0,,,56,80
91533,set_tempo,14,1,0,,,,,,582524,,,,,,
91547,set_tempo,14,1,0,,,,,,585938,,,,,,
91559,set_tempo,12,1,0,,,,,,589391,,,,,,
91574,set_tempo,15,1,0,,,,,,592885,,,,,,
91584,note_on,64,0,2,,,,,,,,0,,,56,0
91584,note_on,0,0,2,,,,,,,,0,,,68,0
91584,note_on,0,0,1,,,,,,,,0,,,80,0
91584,note_on,64,0,1,,,,,,,,0,,,92,0
91588,set_tempo,14,1,0,,,,,,596421,,,,,,
91600,note_on,0,0,1,,,,,,,,0,,,77,80
91600,set_tempo,12,1,0,,,,,,600000,,,,,,
91600,note_on,16,0,2,,,,,,,,0,,,65,80
91600,note_on,16,0,1,,,,,,,,0,,,89,80
91600,note_on,0,0,2,,,,,,,,0,,,53,80
91615,set_tempo,15,1,0,,,,,,603622,,,,,,
91629,set_tempo,14,1,0,,,,,,607287,,,,,,
91641,set_tempo,12,1,0,,,,,,610998,,,,,,
91655,set_tempo,14,1,0,,,,,,614754,,,,,,
91664,note_on,0,0,1,,,,,,,,0,,,89,0
91664,note_on,0,0,2,,,,,,,,0,,,65,0
91664,note_on,64,0,1,,,,,,,,0,,,77,0
91664,note_on,64,0,2,,,,,,,,0,,,53,0
91670,set_tempo,15,1,0,,,,,,618557,,,,,,
91672,set_tempo,2,1,0,,,,,,556586,,,,,,
91680,note_on,0,0,2,,,,,,,,0,,,54,80
91680,control_change,432,0,3,,,,,,,,0,64,0,,
91680,note_on,0,0,1,,,,,,,,0,,,78,80
91680,note_on,0,0,1,,,,,,,,0,,,87,80
91680,note_on,0,0,2,,,,,,,,0,,,66,80
91680,note_on,16,0,1,,,,,,,,0,,,83,80
91680,note_on,0,0,2,,,,,,,,0,,,63,80
91680,note_on,16,0,2,,,,,,,,0,,,59,80
91680,note_on,0,0,1,,,,,,,,0,,,90,80
91689,set_tempo,17,1,0,,,,,,556586,,,,,,
91691,set_tempo,2,1,0,,,,,,553506,,,,,,
91721,control_change,41,0,3,,,,,,,,0,64,127,,
91744,note_on,0,0,1,,,,,,,,0,,,78,0
91744,note_on,0,0,1,,,,,,,,0,,,83,0
91744,note_on,0,0,1,,,,,,,,0,,,87,0
91744,note_on,64,0,2,,,,,,,,0,,,54,0
91744,note_on,0,0,2,,,,,,,,0,,,66,0
91744,note_on,0,0,2,,,,,,,,0,,,59,0
91744,note_on,64,0,1,,,,,,,,0,,,90,0
91744,note_on,0,0,2,,,,,,,,0,,,63,0
91760,note_on,0,0,2,,,,,,,,0,,,51,80
91760,note_on,16,0,2,,,,,,,,0,,,63,80
91760,note_on,0,0,1,,,,,,,,0,,,75,80
91760,note_on,16,0,1,,,,,,,,0,,,87,80
91824,note_on,0,0,2,,,,,,,,0,,,63,0
91824,note_on,64,0,1,,,,,,,,0,,,75,0
91824,note_on,0,0,1,,,,,,,,0,,,87,0
91824,note_on,64,0,2,,,,,,,,0,,,51,0
91840,note_on,16,0,1,,,,,,,,0,,,83,80
91840,note_on,0,0,2,,,,,,,,0,,,59,80
91840,note_on,16,0,2,,,,,,,,0,,,47,80
91840,note_on,0,0,1,,,,,,,,0,,,71,80
91904,note_on,64,0,2,,,,,,,,0,,,59,0
91904,note_on,0,0,1,,,,,,,,0,,,83,0
91904,note_on,0,0,2,,,,,,,,0,,,47,0
91904,note_on,64,0,1,,,,,,,,0,,,71,0
91920,note_on,16,0,1,,,,,,,,0,,,78,80
91920,note_on,0,0,2,,,,,,,,0,,,54,80
91920,note_on,0,0,1,,,,,,,,0,,,66,80
91920,note_on,16,0,2,,,,,,,,0,,,42,80
91984,note_on,64,0,2,,,,,,,,0,,,54,0
91984,note_on,0,0,1,,,,,,,,0,,,78,0
91984,note_on,64,0,1,,,,,,,,0,,,66,0
91984,note_on,0,0,2,,,,,,,,0,,,42,0
92000,note_on,16,0,1,,,,,,,,0,,,83,80
92000,note_on,0,0,1,,,,,,,,0,,,71,80
92000,note_on,16,0,2,,,,,,,,0,,,47,80
92000,note_on,0,0,2,,,,,,,,0,,,59,80
92064,note_on,0,0,1,,,,,,,,0,,,83,0
92064,note_on,64,0,2,,,,,,,,0,,,59,0
92064,note_on,64,0,1,,,,,,,,0,,,71,0
92064,note_on,0,0,2,,,,,,,,0,,,47,0
92080,note_on,0,0,1,,,,,,,,0,,,87,80
92080,note_on,16,0,1,,,,,,,,0,,,75,80
92080,note_on,16,0,2,,,,,,,,0,,,51,80
92080,note_on,0,0,2,,,,,,,,0,,,63,80
92141,control_change,420,0,3,,,,,,,,0,64,0,,
92144,note_on,64,0,2,,,,,,,,0,,,63,0
92144,note_on,0,0,2,,,,,,,,0,,,51,0
92144,note_on,64,0,1,,,,,,,,0,,,87,0
92144,note_on,0,0,1,,,,,,,,0,,,75,0
92160,note_on,16,0,2,,,,,,,,0,,,58,80
92160,note_on,16,0,1,,,,,,,,0,,,85,80
92160,note_on,0,0,1,,,,,,,,0,,,78,80
92160,note_on,0,0,2,,,,,,,,0,,,61,80
92160,note_on,0,0,2,,,,,,,,0,,,66,80
92160,note_on,0,0,1,,,,,,,,0,,,82,80
92160,note_on,0,0,1,,,,,,,,0,,,90,80
92160,note_on,0,0,2,,,,,,,,0,,,54,80
92186,control_change,45,0,3,,,,,,,,0,64,127,,
92224,note_on,0,0,1,,,,,,,,0,,,90,0
92224,note_on,64,0,2,,,,,,,,0,,,61,0
92224,note_on,0,0,1,,,,,,,,0,,,85,0
92224,note_on,0,0,1,,,,,,,,0,,,78,0
92224,note_on,0,0,2,,,,,,,,0,,,58,0
92224,note_on,0,0,2,,,,,,,,0,,,54,0
92224,note_on,64,0,1,,,,,,,,0,,,82,0
92224,note_on,0,0,2,,,,,,,,0,,,66,0
92240,note_on,0,0,2,,,,,,,,0,,,61,80
92240,note_on,0,0,1,,,,,,,,0,,,85,80
92240,note_on,16,0,1,,,,,,,,0,,,73,80
92240,note_on,16,0,2,,,,,,,,0,,,49,80
92304,note_on,0,0,2,,,,,,,,0,,,49,0
92304,note_on,64,0,1,,,,,,,,0,,,85,0
92304,note_on,0,0,1,,,,,,,,0,,,73,0
92304,note_on,64,0,2,,,,,,,,0,,,61,0
92320,note_on,16,0,2,,,,,,,,0,,,58,80
92320,note_on,16,0,1,,,,,,,,0,,,70,80
92320,note_on,0,0,2,,,,,,,,0,,,46,80
92320,note_on,0,0,1,,,,,,,,0,,,82,80
92384,note_on,64,0,1,,,,,,,,0,,,82,0
92384,note_on,0,0,2,,,,,,,,0,,,58,0
92384,note_on,0,0,1,,,,,,,,0,,,70,0
92384,note_on,64,0,2,,,,,,,,0,,,46,0
92400,note_on,0,0,1,,,,,,,,0,,,78,80
92400,note_on,16,0,2,,,,,,,,0,,,42,80
92400,note_on,0,0,2,,,,,,,,0,,,54,80
92400,note_on,16,0,1,,,,,,,,0,,,66,80
92464,note_on,64,0,2,,,,,,,,0,,,54,0
92464,note_on,0,0,2,,,,,,,,0,,,42,0
92464,note_on,64,0,1,,,,,,,,0,,,78,0
92464,note_on,0,0,1,,,,,,,,0,,,66,0
92480,note_on,16,0,2,,,,,,,,0,,,61,80
92480,note_on,0,0,1,,,,,,,,0,,,73,80
92480,note_on,16,0,1,,,,,,,,0,,,85,80
92480,note_on,0,0,2,,,,,,,,0,,,49,80
92544,note_on,0,0,2,,,,,,,,0,,,61,0
92544,note_on,0,0,1,,,,,,,,0,,,85,0
92544,note_on,64,0,1,,,,,,,,0,,,73,0
92544,note_on,64,0,2,,,,,,,,0,,,49,0
92560,note_on,0,0,1,,,,,,,,0,,,78,80
92560,note_on,0,0,2,,,,,,,,0,,,54,80
92560,note_on,16,0,2,,,,,,,,0,,,66,80
92560,note_on,16,0,1,,,,,,,,0,,,90,80
92624,note_on,0,0,1,,,,,,,,0,,,90,0
92624,note_on,64,0,1,,,,,,,,0,,,78,0
92624,note_on,0,0,2,,,,,,,,0,,,66,0
92624,note_on,64,0,2,,,,,,,,0,,,54,0
92640,note_on,0,0,2,,,,,,,,0,,,59,80
92640,note_on,0,0,1,,,,,,,,0,,,90,80
92640,control_change,454,0,3,,,,,,,,0,64,0,,
92640,note_on,16,0,1,,,,,,,,0,,,99,80
92640,note_on,0,0,2,,,,,,,,0,,,51,80
92640,note_on,16,0,2,,,,,,,,0,,,63,80
92640,note_on,0,0,1,,,,,,,,0,,,87,80
92677,control_change,37,0,3,,,,,,,,0,64,127,,
92704,note_on,0,0,2,,,,,,,,0,,,59,0
92704,note_on,0,0,2,,,,,,,,0,,,63,0
92704,note_on,0,0,1,,,,,,,,0,,,87,0
92704,note_on,0,0,1,,,,,,,,0,,,99,0
92704,note_on,64,0,1,,,,,,,,0,,,90,0
92704,note_on,64,0,2,,,,,,,,0,,,51,0
92720,note_on,0,0,2,,,,,,,,0,,,47,80
92720,note_on,0,0,1,,,,,,,,0,,,83,80
92720,note_on,16,0,2,,,,,,,,0,,,59,80
92720,note_on,16,0,1,,,,,,,,0,,,95,80
92784,note_on,0,0,2,,,,,,,,0,,,59,0
92784,note_on,64,0,1,,,,,,,,0,,,83,0
92784,note_on,0,0,1,,,,,,,,0,,,95,0
92784,note_on,64,0,2,,,,,,,,0,,,47,0
92800,note_on,16,0,1,,,,,,,,0,,,90,80
92800,note_on,0,0,1,,,,,,,,0,,,78,80
92800,note_on,16,0,2,,,,,,,,0,,,42,80
92800,note_on,0,0,2,,,,,,,,0,,,54,80
92864,note_on,64,0,2,,,,,,,,0,,,54,0
92864,note_on,0,0,2,,,,,,,,0,,,42,0
92864,note_on,0,0,1,,,,,,,,0,,,90,0
92864,note_on,64,0,1,,,,,,,,0,,,78,0
92871,set_tempo,1180,1,0,,,,,,559701,,,,,,
92880,note_on,0,0,2,,,,,,,,0,,,51,80
92880,note_on,16,0,1,,,,,,,,0,,,75,80
92880,note_on,0,0,1,,,,,,,,0,,,87,80
92880,note_on,16,0,2,,,,,,,,0,,,39,80
92890,set_tempo,19,1,0,,,,,,562852,,,,,,
92909,set_tempo,19,1,0,,,,,,566038,,,,,,
92928,set_tempo,19,1,0,,,,,,569260,,,,,,
92944,note_on,64,0,1,,,,,,,,0,,,87,0
92944,note_on,0,0,1,,,,,,,,0,,,75,0
92944,note_on,64,0,2,,,,,,,,0,,,51,0
92944,note_on,0,0,2,,,,,,,,0,,,39,0
92947,set_tempo,19,1,0,,,,,,572519,,,,,,
92960,note_on,16,0,2,,,,,,,,0,,,35,80
92960,note_on,0,0,1,,,,,,,,0,,,83,80
92960,note_on,16,0,1,,,,,,,,0,,,71,80
92960,note_on,0,0,2,,,,,,,,0,,,47,80
92966,set_tempo,19,1,0,,,,,,575816,,,,,,
92985,set_tempo,19,1,0,,,,,,579151,,,,,,
93004,set_tempo,19,1,0,,,,,,582524,,,,,,
93023,set_tempo,19,1,0,,,,,,585938,,,,,,
93024,note_on,64,0,1,,,,,,,,0,,,83,0
93024,note_on,0,0,1,,,,,,,,0,,,71,0
93024,note_on,0,0,2,,,,,,,,0,,,35,0
93024,note_on,64,0,2,,,,,,,,0,,,47,0
93040,note_on,0,0,2,,,,,,,,0,,,63,80
93040,note_on,16,0,1,,,,,,,,0,,,99,80
93040,note_on,16,0,2,,,,,,,,0,,,51,80
93040,note_on,0,0,1,,,,,,,,0,,,87,80
93042,set_tempo,19,1,0,,,,,,589391,,,,,,
93054,set_tempo,12,1,0,,,,,,592885,,,,,,
93073,set_tempo,19,1,0,,,,,,596421,,,,,,
93092,set_tempo,19,1,0,,,,,,600000,,,,,,
93104,note_on,0,0,2,,,,,,,,0,,,51,0
93104,note_on,0,0,1,,,,,,,,0,,,99,0
93104,note_on,64,0,2,,,,,,,,0,,,63,0
93104,note_on,64,0,1,,,,,,,,0,,,87,0
93111,set_tempo,19,1,0,,,,,,603622,,,,,,
93113,control_change,436,0,3,,,,,,,,0,64,0,,
93120,note_on,0,0,2,,,,,,,,0,,,51,80
93120,note_on,0,0,2,,,,,,,,0,,,57,80
93120,note_on,0,0,1,,,,,,,,0,,,99,80
93120,note_on,0,0,1,,,,,,,,0,,,87,80
93120,note_on,16,0,2,,,,,,,,0,,,60,80
93120,note_on,0,0,2,,,,,,,,0,,,63,80
93120,note_on,16,0,1,,,,,,,,0,,,90,80
93130,set_tempo,19,1,0,,,,,,607287,,,,,,
93146,control_change,33,0,3,,,,,,,,0,64,127,,
93149,set_tempo,19,1,0,,,,,,610998,,,,,,
93168,set_tempo,19,1,0,,,,,,614754,,,,,,
93184,note_on,0,0,1,,,,,,,,0,,,90,0
93184,note_on,0,0,2,,,,,,,,0,,,60,0
93184,note_on,0,0,2,,,,,,,,0,,,63,0
93184,note_on,0,0,1,,,,,,,,0,,,99,0
93184,note_on,64,0,2,,,,,,,,0,,,51,0
93184,note_on,64,0,1,,,,,,,,0,,,87,0
93184,note_on,0,0,2,,,,,,,,0,,,57,0
93187,set_tempo,19,1,0,,,,,,618557,,,,,,
93200,note_on,0,0,1,,,,,,,,0,,,93,80
93200,note_on,16,0,1,,,,,,,,0,,,81,80
93200,note_on,16,0,2,,,,,,,,0,,,45,80
93200,note_on,0,0,2,,,,,,,,0,,,57,80
93206,set_tempo,19,1,0,,,,,,622407,,,,,,
93225,set_tempo,19,1,0,,,,,,626305,,,,,,
93238,set_tempo,13,1,0,,,,,,630252,,,,,,
93257,set_tempo,19,1,0,,,,,,634249,,,,,,
93264,note_on,0,0,1,,,,,,,,0,,,81,0
93264,note_on,0,0,2,,,,,,,,0,,,45,0
93264,note_on,64,0,2,,,,,,,,0,,,57,0
93264,note_on,64,0,1,,,,,,,,0,,,93,0
93275,set_tempo,18,1,0,,,,,,638298,,,,,,
93280,note_on,16,0,2,,,,,,,,0,,,42,80
93280,note_on,16,0,1,,,,,,,,0,,,78,80
93280,note_on,0,0,1,,,,,,,,0,,,90,80
93280,note_on,0,0,2,,,,,,,,0,,,54,80
93294,set_tempo,19,1,0,,,,,,642398,,,,,,
93313,set_tempo,19,1,0,,,,,,646552,,,,,,
93332,set_tempo,19,1,0,,,,,,650759,,,,,,
93344,note_on,64,0,2,,,,,,,,0,,,54,0
93344,note_on,0,0,2,,,,,,,,0,,,42,0
93344,note_on,0,0,1,,,,,,,,0,,,78,0
93344,note_on,64,0,1,,,,,,,,0,,,90,0
93351,set_tempo,19,1,0,,,,,,655022,,,,,,
93360,note_on,16,0,1,,,,,,,,0,,,87,80
93360,note_on,0,0,2,,,,,,,,0,,,51,80
93360,note_on,0,0,1,,,,,,,,0,,,75,80
93360,note_on,16,0,2,,,,,,,,0,,,39,80
93370,set_tempo,19,1,0,,,,,,659341,,,,,,
93389,set_tempo,19,1,0,,,,,,663717,,,,,,
93408,set_tempo,19,1,0,,,,,,668151,,,,,,
93421,set_tempo,13,1,0,,,,,,672646,,,,,,
93424,note_on,0,0,1,,,,,,,,0,,,87,0
93424,note_on,64,0,2,,,,,,,,0,,,51,0
93424,note_on,64,0,1,,,,,,,,0,,,75,0
93424,note_on,0,0,2,,,,,,,,0,,,39,0
93440,note_on,0,0,2,,,,,,,,0,,,36,80
93440,set_tempo,19,1,0,,,,,,677201,,,,,,
93440,note_on,16,0,2,,,,,,,,0,,,48,80
93440,note_on,0,0,1,,,,,,,,0,,,72,80
93440,note_on,16,0,1,,,,,,,,0,,,84,80
93459,set_tempo,19,1,0,,,,,,681818,,,,,,
93478,set_tempo,19,1,0,,,,,,686499,,,,,,
93497,set_tempo,19,1,0,,,,,,691244,,,,,,
93504,note_on,0,0,1,,,,,,,,0,,,84,0
93504,note_on,64,0,2,,,,,,,,0,,,36,0
93504,note_on,64,0,1,,,,,,,,0,,,72,0
93504,note_on,0,0,2,,,,,,,,0,,,48,0
93515,set_tempo,18,1,0,,,,,,696056,,,,,,
93520,note_on,16,0,2,,,,,,,,0,,,63,80
93520,note_on,0,0,2,,,,,,,,0,,,51,80
93520,note_on,0,0,1,,,,,,,,0,,,87,80
93520,note_on,16,0,1,,,,,,,,0,,,99,80
93534,set_tempo,19,1,0,,,,,,700935,,,,,,
93553,set_tempo,19,1,0,,,,,,705882,,,,,,
93572,set_tempo,19,1,0,,,,,,710900,,,,,,
93584,note_on,0,0,1,,,,,,,,0,,,99,0
93584,note_on,0,0,2,,,,,,,,0,,,63,0
93584,note_on,64,0,2,,,,,,,,0,,,51,0
93584,note_on,64,0,1,,,,,,,,0,,,87,0
93585,set_tempo,13,1,0,,,,,,493421,,,,,,
93600,note_on,0,0,2,,,,,,,,0,,,51,80
93600,note_on,0,0,2,,,,,,,,0,,,55,80
93600,note_on,0,0,2,,,,,,,,0,,,58,80
93600,note_on,16,0,2,,,,,,,,0,,,63,80
93600,note_on,454,0,3,,,,,,,,0,,,99,80
93600,control_change,0,0,3,,,,,,,,0,64,0,,
93600,note_on,0,0,3,,,,,,,,0,,,87,80
93623,set_tempo,38,1,0,,,,,,495868,,,,,,
93648,note_on,48,0,3,,,,,,,,0,,,87,0
93648,note_on,0,0,3,,,,,,,,0,,,99,0
93660,note_on,0,0,3,,,,,,,,0,,,91,80
93660,note_on,12,0,3,,,,,,,,0,,,94,80
93684,control_change,24,0,3,,,,,,,,0,64,127,,
93708,note_on,24,0,3,,,,,,,,0,,,91,0
93708,note_on,0,0,3,,,,,,,,0,,,94,0
93720,note_on,12,0,3,,,,,,,,0,,,87,80
93768,note_on,48,0,3,,,,,,,,0,,,87,0
93780,note_on,12,0,3,,,,,,,,0,,,82,80
93780,note_on,0,0,3,,,,,,,,0,,,79,80
93828,note_on,0,0,3,,,,,,,,0,,,82,0
93828,note_on,48,0,3,,,,,,,,0,,,79,0
93840,note_on,0,0,3,,,,,,,,0,,,75,80
93840,note_on,12,0,3,,,,,,,,0,,,43,80
93840,note_on,0,0,3,,,,,,,,0,,,46,80
93840,note_on,0,0,3,,,,,,,,0,,,34,80
93840,note_on,0,0,3,,,,,,,,0,,,87,80
93888,note_on,48,0,3,,,,,,,,0,,,75,0
93888,note_on,0,0,3,,,,,,,,0,,,87,0
93900,note_on,0,0,3,,,,,,,,0,,,82,80
93900,note_on,12,0,3,,,,,,,,0,,,79,80
93948,note_on,48,0,3,,,,,,,,0,,,82,0
93948,note_on,0,0,3,,,,,,,,0,,,79,0
93960,note_on,12,0,3,,,,,,,,0,,,75,80
93984,note_on,0,0,2,,,,,,,,0,,,58,0
93984,note_on,0,0,2,,,,,,,,0,,,63,0
93984,note_on,0,0,2,,,,,,,,0,,,55,0
93984,note_on,384,0,2,,,,,,,,0,,,51,0
94008,note_on,48,0,3,,,,,,,,0,,,75,0
94020,note_on,0,0,3,,,,,,,,0,,,70,80
94020,note_on,12,0,3,,,,,,,,0,,,67,80
94032,note_on,12,0,3,,,,,,,,0,,,43,0
94032,note_on,0,0,3,,,,,,,,0,,,34,0
94032,note_on,0,0,3,,,,,,,,0,,,46,0
94068,note_on,36,0,3,,,,,,,,0,,,67,0
94068,note_on,0,0,3,,,,,,,,0,,,70,0
94080,note_on,12,0,3,,,,,,,,0,,,75,80
94080,note_on,0,0,2,,,,,,,,0,,,51,80
94080,note_on,0,0,2,,,,,,,,0,,,59,80
94080,note_on,0,0,2,,,,,,,,0,,,63,80
94080,note_on,96,0,2,,,,,,,,0,,,56,80
94086,control_change,6,0,3,,,,,,,,0,64,0,,
94128,note_on,42,0,3,,,,,,,,0,,,75,0
94134,control_change,6,0,3,,,,,,,,0,64,127,,
94140,note_on,6,0,3,,,,,,,,0,,,71,80
94140,note_on,0,0,3,,,,,,,,0,,,68,80
94188,note_on,48,0,3,,,,,,,,0,,,68,0
94188,note_on,0,0,3,,,,,,,,0,,,71,0
94200,note_on,12,0,3,,,,,,,,0,,,63,80
94248,note_on,48,0,3,,,,,,,,0,,,63,0
94260,note_on,12,0,3,,,,,,,,0,,,56,80
94260,note_on,0,0,3,,,,,,,,0,,,59,80
94308,note_on,0,0,3,,,,,,,,0,,,56,0
94308,note_on,48,0,3,,,,,,,,0,,,59,0
94320,note_on,12,0,3,,,,,,,,0,,,63,80
94320,note_on,0,0,3,,,,,,,,0,,,47,80
94320,note_on,0,0,3,,,,,,,,0,,,34,80
94320,note_on,0,0,3,,,,,,,,0,,,44,80
94320,note_on,0,0,3,,,,,,,,0,,,51,80
94368,note_on,0,0,3,,,,,,,,0,,,63,0
94368,note_on,48,0,3,,,,,,,,0,,,51,0
94380,note_on,0,0,3,,,,,,,,0,,,56,80
94380,note_on,12,0,3,,,,,,,,0,,,59,80
94416,note_on,0,0,2,,,,,,,,0,,,56,0
94416,note_on,336,0,2,,,,,,,,0,,,59,0
94416,note_on,0,0,2,,,,,,,,0,,,63,0
94416,note_on,0,0,2,,,,,,,,0,,,51,0
94428,note_on,0,0,3,,,,,,,,0,,,59,0
94428,note_on,48,0,3,,,,,,,,0,,,56,0
94440,note_on,12,0,3,,,,,,,,0,,,63,80
94488,note_on,48,0,3,,,,,,,,0,,,63,0
94500,note_on,0,0,2,,,,,,,,0,,,51,80
94500,note_on,12,0,3,,,,,,,,0,,,71,80
94500,note_on,0,0,3,,,,,,,,0,,,68,80
94500,note_on,84,0,2,,,,,,,,0,,,63,80
94512,note_on,12,0,3,,,,,,,,0,,,34,0
94512,note_on,0,0,3,,,,,,,,0,,,44,0
94512,note_on,0,0,3,,,,,,,,0,,,47,0
94548,note_on,48,0,2,,,,,,,,0,,,51,0
94548,note_on,0,0,3,,,,,,,,0,,,68,0
94548,note_on,36,0,3,,,,,,,,0,,,71,0
94548,note_on,0,0,2,,,,,,,,0,,,63,0
94560,note_on,0,0,2,,,,,,,,0,,,55,80
94560,note_on,0,0,2,,,,,,,,0,,,63,80
94560,note_on,0,0,3,,,,,,,,0,,,75,80
94560,note_on,12,0,2,,,,,,,,0,,,58,80
94560,note_on,0,0,2,,,,,,,,0,,,51,80
94560,control_change,12,0,3,,,,,,,,0,64,0,,
94594,control_change,34,0,3,,,,,,,,0,64,127,,
94608,note_on,14,0,3,,,,,,,,0,,,75,0
94620,note_on,12,0,3,,,,,,,,0,,,70,80
94620,note_on,0,0,3,,,,,,,,0,,,67,80
94668,note_on,48,0,3,,,,,,,,0,,,67,0
94668,note_on,0,0,3,,,,,,,,0,,,70,0
94680,note_on,12,0,3,,,,,,,,0,,,75,80
94728,note_on,48,0,3,,,,,,,,0,,,75,0
94740,note_on,12,0,3,,,,,,,,0,,,79,80
94740,note_on,0,0,3,,,,,,,,0,,,82,80
94788,note_on,48,0,3,,,,,,,,0,,,82,0
94788,note_on,0,0,3,,,,,,,,0,,,79,0
94800,note_on,12,0,3,,,,,,,,0,,,46,80
94800,note_on,0,0,3,,,,,,,,0,,,87,80
94800,note_on,0,0,3,,,,,,,,0,,,75,80
94800,note_on,0,0,3,,,,,,,,0,,,43,80
94800,note_on,0,0,3,,,,,,,,0,,,34,80
94848,note_on,0,0,3,,,,,,,,0,,,75,0
94848,note_on,48,0,3,,,,,,,,0,,,87,0
94860,note_on,12,0,3,,,,,,,,0,,,82,80
94860,note_on,0,0,3,,,,,,,,0,,,79,80
94908,note_on,0,0,3,,,,,,,,0,,,82,0
94908,note_on,48,0,3,,,,,,,,0,,,79,0
94920,note_on,12,0,3,,,,,,,,0,,,87,80
94944,note_on,0,0,2,,,,,,,,0,,,63,0
94944,note_on,0,0,2,,,,,,,,0,,,58,0
94944,note_on,0,0,2,,,,,,,,0,,,55,0
94944,note_on,384,0,2,,,,,,,,0,,,51,0
94968,note_on,48,0,3,,,,,,,,0,,,87,0
94980,note_on,0,0,3,,,,,,,,0,,,91,80
94980,note_on,12,0,3,,,,,,,,0,,,94,80
94992,note_on,0,0,3,,,,,,,,0,,,34,0
94992,note_on,12,0,3,,,,,,,,0,,,46,0
94992,note_on,0,0,3,,,,,,,,0,,,43,0
95028,note_on,36,0,3,,,,,,,,0,,,94,0
95028,note_on,0,0,3,,,,,,,,0,,,91,0
95040,note_on,12,0,3,,,,,,,,0,,,87,80
95040,note_on,0,0,3,,,,,,,,0,,,99,80
95049,control_change,9,0,3,,,,,,,,0,64,0,,
95074,control_change,25,0,3,,,,,,,,0,64,127,,
95104,note_on,30,0,3,,,,,,,,0,,,99,0
95104,note_on,0,0,3,,,,,,,,0,,,87,0
95120,note_on,16,0,3,,,,,,,,0,,,74,80
95120,note_on,176,0,2,,,,,,,,0,,,62,80
95120,note_on,0,0,3,,,,,,,,0,,,86,80
95184,note_on,64,0,2,,,,,,,,0,,,62,0
95184,note_on,64,0,3,,,,,,,,0,,,86,0
95184,note_on,0,0,3,,,,,,,,0,,,74,0
95200,note_on,16,0,2,,,,,,,,0,,,63,80
95200,note_on,16,0,3,,,,,,,,0,,,87,80
95200,note_on,0,0,3,,,,,,,,0,,,75,80
95264,note_on,0,0,3,,,,,,,,0,,,87,0
95264,note_on,64,0,3,,,,,,,,0,,,75,0
95264,note_on,64,0,2,,,,,,,,0,,,63,0
95280,note_on,0,0,3,,,,,,,,0,,,91,80
95280,note_on,16,0,2,,,,,,,,0,,,67,80
95280,note_on,16,0,3,,,,,,,,0,,,79,80
95290,set_tempo,1667,1,0,,,,,,553506,,,,,,
95344,note_on,0,0,3,,,,,,,,0,,,79,0
95344,note_on,64,0,2,,,,,,,,0,,,67,0
95344,note_on,64,0,3,,,,,,,,0,,,91,0
95360,note_on,16,0,3,,,,,,,,0,,,87,80
95360,note_on,16,0,2,,,,,,,,0,,,63,80
95360,note_on,0,0,3,,,,,,,,0,,,75,80
95424,note_on,0,0,3,,,,,,,,0,,,87,0
95424,note_on,64,0,3,,,,,,,,0,,,75,0
95424,note_on,64,0,2,,,,,,,,0,,,63,0
95440,note_on,16,0,2,,,,,,,,0,,,59,80
95440,note_on,0,0,3,,,,,,,,0,,,83,80
95440,note_on,16,0,3,,,,,,,,0,,,71,80
95504,note_on,0,0,3,,,,,,,,0,,,71,0
95504,note_on,64,0,3,,,,,,,,0,,,83,0
95504,note_on,64,0,2,,,,,,,,0,,,59,0
95520,note_on,16,0,2,,,,,,,,0,,,58,80
95520,note_on,0,0,2,,,,,,,,0,,,50,80
95520,note_on,0,0,2,,,,,,,,0,,,53,80
95520,note_on,0,0,2,,,,,,,,0,,,46,80
95520,note_on,0,0,3,,,,,,,,0,,,94,80
95520,control_change,16,0,3,,,,,,,,0,64,0,,
95520,note_on,0,0,3,,,,,,,,0,,,82,80
95558,control_change,38,0,3,,,,,,,,0,64,127,,
95568,note_on,10,0,3,,,,,,,,0,,,94,0
95568,note_on,0,0,3,,,,,,,,0,,,82,0
95580,note_on,0,0,3,,,,,,,,0,,,89,80
95580,note_on,12,0,3,,,,,,,,0,,,86,80
95628,note_on,0,0,3,,,,,,,,0,,,86,0
95628,note_on,48,0,3,,,,,,,,0,,,89,0
95640,note_on,12,0,3,,,,,,,,0,,,82,80
95688,note_on,48,0,3,,,,,,,,0,,,82,0
95700,note_on,12,0,3,,,,,,,,0,,,77,80
95700,note_on,0,0,3,,,,,,,,0,,,74,80
95748,note_on,48,0,3,,,,,,,,0,,,74,0
95748,note_on,0,0,3,,,,,,,,0,,,77,0
95758,set_tempo,468,1,0,,,,,,500835,,,,,,
95760,note_on,12,0,3,,,,,,,,0,,,82,80
95760,note_on,0,0,3,,,,,,,,0,,,41,80
95760,note_on,0,0,3,,,,,,,,0,,,34,80
95760,note_on,0,0,3,,,,,,,,0,,,38,80
95760,note_on,0,0,3,,,,,,,,0,,,46,80
95760,note_on,0,0,3,,,,,,,,0,,,70,80
95777,set_tempo,19,1,0,,,,,,498339,,,,,,
95808,note_on,48,0,3,,,,,,,,0,,,70,0
95808,note_on,0,0,3,,,,,,,,0,,,82,0
95820,note_on,12,0,3,,,,,,,,0,,,77,80
95820,note_on,0,0,3,,,,,,,,0,,,74,80
95868,note_on,48,0,3,,,,,,,,0,,,74,0
95868,note_on,0,0,3,,,,,,,,0,,,77,0
95880,note_on,12,0,3,,,,,,,,0,,,70,80
95904,note_on,0,0,2,,,,,,,,0,,,58,0
95904,note_on,384,0,2,,,,,,,,0,,,46,0
95904,note_on,0,0,2,,,,,,,,0,,,53,0
95904,note_on,0,0,2,,,,,,,,0,,,50,0
95928,note_on,48,0,3,,,,,,,,0,,,70,0
95940,note_on,0,0,3,,,,,,,,0,,,62,80
95940,note_on,12,0,3,,,,,,,,0,,,65,80
95952,note_on,12,0,3,,,,,,,,0,,,38,0
95952,note_on,0,0,3,,,,,,,,0,,,46,0
95952,note_on,0,0,3,,,,,,,,0,,,41,0
95952,note_on,0,0,3,,,,,,,,0,,,34,0
95988,note_on,36,0,3,,,,,,,,0,,,62,0
95988,note_on,0,0,3,,,,,,,,0,,,65,0
96000,note_on,0,0,2,,,,,,,,0,,,58,80
96000,note_on,96,0,2,,,,,,,,0,,,51,80
96000,note_on,12,0,3,,,,,,,,0,,,70,80
96000,note_on,0,0,2,,,,,,,,0,,,54,80
96000,note_on,0,0,2,,,,,,,,0,,,46,80
96015,control_change,15,0,3,,,,,,,,0,64,0,,
96045,control_change,30,0,3,,,,,,,,0,64,127,,
96048,note_on,3,0,3,,,,,,,,0,,,70,0
96060,note_on,12,0,3,,,,,,,,0,,,66,80
96060,note_on,0,0,3,,,,,,,,0,,,63,80
96108,note_on,0,0,3,,,,,,,,0,,,66,0
96108,note_on,48,0,3,,,,,,,,0,,,63,0
96120,note_on,12,0,3,,,,,,,,0,,,58,80
96168,note_on,48,0,3,,,,,,,,0,,,58,0
96180,note_on,12,0,3,,,,,,,,0,,,51,80
96180,note_on,0,0,3,,,,,,,,0,,,54,80
96228,note_on,0,0,3,,,,,,,,0,,,51,0
96228,note_on,48,0,3,,,,,,,,0,,,54,0
96240,note_on,12,0,3,,,,,,,,0,,,46,80
96240,note_on,0,0,3,,,,,,,,0,,,42,80
96240,note_on,0,0,3,,,,,,,,0,,,39,80
96240,note_on,0,0,3,,,,,,,,0,,,58,80
96240,note_on,0,0,3,,,,,,,,0,,,34,80
96288,note_on,48,0,3,,,,,,,,0,,,58,0
96300,note_on,12,0,3,,,,,,,,0,,,54,80
96300,note_on,0,0,3,,,,,,,,0,,,51,80
96336,note_on,0,0,2,,,,,,,,0,,,58,0
96336,note_on,0,0,2,,,,,,,,0,,,54,0
96336,note_on,0,0,2,,,,,,,,0,,,51,0
96336,note_on,336,0,2,,,,,,,,0,,,46,0
96348,note_on,0,0,3,,,,,,,,0,,,54,0
96348,note_on,48,0,3,,,,,,,,0,,,51,0
96360,note_on,12,0,3,,,,,,,,0,,,58,80
96408,note_on,48,0,3,,,,,,,,0,,,58,0
96420,note_on,0,0,3,,,,,,,,0,,,63,80
96420,note_on,0,0,2,,,,,,,,0,,,58,80
96420,note_on,84,0,2,,,,,,,,0,,,46,80
96420,note_on,12,0,3,,,,,,,,0,,,66,80
96432,note_on,12,0,3,,,,,,,,0,,,34,0
96432,note_on,0,0,3,,,,,,,,0,,,39,0
96432,note_on,0,0,3,,,,,,,,0,,,42,0
96432,note_on,0,0,3,,,,,,,,0,,,46,0
96468,note_on,0,0,2,,,,,,,,0,,,46,0
96468,note_on,0,0,3,,,,,,,,0,,,66,0
96468,note_on,48,0,2,,,,,,,,0,,,58,0
96468,note_on,36,0,3,,,,,,,,0,,,63,0
96480,note_on,0,0,2,,,,,,,,0,,,58,80
96480,note_on,0,0,2,,,,,,,,0,,,46,80
96480,note_on,12,0,2,,,,,,,,0,,,53,80
96480,note_on,0,0,3,,,,,,,,0,,,70,80
96480,note_on,0,0,2,,,,,,,,0,,,50,80
96480,control_change,12,0,3,,,,,,,,0,64,0,,
96495,control_change,15,0,3,,,,,,,,0,64,127,,
96528,note_on,33,0,3,,,,,,,,0,,,70,0
96540,note_on,12,0,3,,,,,,,,0,,,65,80
96540,note_on,0,0,3,,,,,,,,0,,,62,80
96588,note_on,48,0,3,,,,,,,,0,,,62,0
96588,note_on,0,0,3,,,,,,,,0,,,65,0
96600,note_on,12,0,3,,,,,,,,0,,,70,80
96648,note_on,48,0,3,,,,,,,,0,,,70,0
96660,note_on,12,0,3,,,,,,,,0,,,77,80
96660,note_on,0,0,3,,,,,,,,0,,,74,80
96708,note_on,48,0,3,,,,,,,,0,,,74,0
96708,note_on,0,0,3,,,,,,,,0,,,77,0
96720,note_on,0,0,3,,,,,,,,0,,,34,80
96720,note_on,0,0,3,,,,,,,,0,,,41,80
96720,note_on,0,0,3,,,,,,,,0,,,82,80
96720,note_on,0,0,3,,,,,,,,0,,,46,80
96720,note_on,0,0,3,,,,,,,,0,,,70,80
96720,note_on,12,0,3,,,,,,,,0,,,38,80
96768,note_on,0,0,3,,,,,,,,0,,,82,0
96768,note_on,48,0,3,,,,,,,,0,,,70,0
96780,note_on,12,0,3,,,,,,,,0,,,74,80
96780,note_on,0,0,3,,,,,,,,0,,,77,80
96828,note_on,48,0,3,,,,,,,,0,,,77,0
96828,note_on,0,0,3,,,,,,,,0,,,74,0
96840,note_on,12,0,3,,,,,,,,0,,,82,80
96864,note_on,0,0,2,,,,,,,,0,,,50,0
96864,note_on,0,0,2,,,,,,,,0,,,53,0
96864,note_on,0,0,2,,,,,,,,0,,,58,0
96864,note_on,384,0,2,,,,,,,,0,,,46,0
96888,note_on,48,0,3,,,,,,,,0,,,82,0
96900,note_on,12,0,3,,,,,,,,0,,,86,80
96900,note_on,0,0,3,,,,,,,,0,,,89,80
96912,note_on,0,0,3,,,,,,,,0,,,38,0
96912,note_on,0,0,3,,,,,,,,0,,,41,0
96912,note_on,12,0,3,,,,,,,,0,,,34,0
96912,note_on,0,0,3,,,,,,,,0,,,46,0
96948,note_on,36,0,3,,,,,,,,0,,,89,0
96948,note_on,0,0,3,,,,,,,,0,,,86,0
96957,control_change,9,0,3,,,,,,,,0,64,0,,
96960,note_on,3,0,3,,,,,,,,0,,,94,80
96960,note_on,0,0,3,,,,,,,,0,,,82,80
96973,set_tempo,1196,1,0,,,,,,503356,,,,,,
96986,set_tempo,13,1,0,,,,,,505902,,,,,,
96990,control_change,30,0,3,,,,,,,,0,64,127,,
96999,set_tempo,13,1,0,,,,,,508475,,,,,,
97005,set_tempo,6,1,0,,,,,,511073,,,,,,
97018,set_tempo,13,1,0,,,,,,513699,,,,,,
97024,set_tempo,6,1,0,,,,,,516351,,,,,,
97037,set_tempo,13,1,0,,,,,,519031,,,,,,
97040,note_on,50,0,3,,,,,,,,0,,,82,0
97040,note_on,0,0,3,,,,,,,,0,,,94,0
97040,note_on,0,0,3,,,,,,,,0,,,71,80
97040,note_on,176,0,2,,,,,,,,0,,,59,80
97040,note_on,0,0,3,,,,,,,,0,,,83,80
97049,set_tempo,12,1,0,,,,,,521739,,,,,,
97055,set_tempo,6,1,0,,,,,,524476,,,,,,
97068,set_tempo,13,1,0,,,,,,527241,,,,,,
97074,set_tempo,6,1,0,,,,,,530035,,,,,,
97087,set_tempo,13,1,0,,,,,,532860,,,,,,
97100,set_tempo,13,1,0,,,,,,535714,,,,,,
97104,note_on,0,0,3,,,,,,,,0,,,71,0
97104,note_on,64,0,3,,,,,,,,0,,,83,0
97104,note_on,64,0,2,,,,,,,,0,,,59,0
97106,set_tempo,6,1,0,,,,,,538600,,,,,,
97119,set_tempo,13,1,0,,,,,,541516,,,,,,
97120,note_on,16,0,3,,,,,,,,0,,,84,80
97120,note_on,16,0,2,,,,,,,,0,,,60,80
97120,note_on,0,0,3,,,,,,,,0,,,72,80
97125,set_tempo,6,1,0,,,,,,544465,,,,,,
97138,set_tempo,13,1,0,,,,,,547445,,,,,,
97150,set_tempo,12,1,0,,,,,,550459,,,,,,
97157,set_tempo,7,1,0,,,,,,553506,,,,,,
97169,set_tempo,12,1,0,,,,,,556586,,,,,,
97175,set_tempo,6,1,0,,,,,,559701,,,,,,
97182,set_tempo,7,1,0,,,,,,559701,,,,,,
97184,note_on,0,0,3,,,,,,,,0,,,84,0
97184,note_on,64,0,3,,,,,,,,0,,,72,0
97184,note_on,64,0,2,,,,,,,,0,,,60,0
97194,set_tempo,12,1,0,,,,,,556586,,,,,,
97200,note_on,16,0,2,,,,,,,,0,,,61,80
97200,note_on,0,0,3,,,,,,,,0,,,73,80
97200,note_on,16,0,3,,,,,,,,0,,,85,80
97207,set_tempo,13,1,0,,,,,,553506,,,,,,
97220,set_tempo,13,1,0,,,,,,550459,,,,,,
97232,set_tempo,12,1,0,,,,,,547445,,,,,,
97245,set_tempo,13,1,0,,,,,,544465,,,,,,
97248,note_on,48,0,3,,,,,,,,0,,,73,0
97248,note_on,0,0,3,,,,,,,,0,,,85,0
97248,note_on,48,0,2,,,,,,,,0,,,61,0
97258,set_tempo,13,1,0,,,,,,541516,,,,,,
97260,note_on,12,0,2,,,,,,,,0,,,62,80
97260,note_on,12,0,3,,,,,,,,0,,,86,80
97260,note_on,0,0,3,,,,,,,,0,,,74,80
97270,set_tempo,12,1,0,,,,,,538600,,,,,,
97283,set_tempo,13,1,0,,,,,,535714,,,,,,
97295,set_tempo,12,1,0,,,,,,532860,,,,,,
97308,note_on,0,0,3,,,,,,,,0,,,86,0
97308,note_on,48,0,2,,,,,,,,0,,,62,0
97308,set_tempo,13,1,0,,,,,,530035,,,,,,
97308,note_on,48,0,3,,,,,,,,0,,,74,0
97320,note_on,0,0,3,,,,,,,,0,,,87,80
97320,note_on,12,0,3,,,,,,,,0,,,75,80
97320,note_on,12,0,2,,,,,,,,0,,,63,80
97321,set_tempo,13,1,0,,,,,,527241,,,,,,
97333,set_tempo,12,1,0,,,,,,524476,,,,,,
97346,set_tempo,13,1,0,,,,,,521739,,,,,,
97359,set_tempo,13,1,0,,,,,,519031,,,,,,
97368,note_on,0,0,3,,,,,,,,0,,,75,0
97368,note_on,48,0,2,,,,,,,,0,,,63,0
97368,note_on,48,0,3,,,,,,,,0,,,87,0
97371,set_tempo,12,1,0,,,,,,516351,,,,,,
97380,note_on,0,0,3,,,,,,,,0,,,88,80
97380,note_on,12,0,3,,,,,,,,0,,,76,80
97380,note_on,12,0,2,,,,,,,,0,,,64,80
97384,set_tempo,13,1,0,,,,,,513699,,,,,,
97397,set_tempo,13,1,0,,,,,,511073,,,,,,
97409,set_tempo,12,1,0,,,,,,508475,,,,,,
97422,set_tempo,13,1,0,,,,,,505902,,,,,,
97428,note_on,48,0,3,,,,,,,,0,,,88,0
97428,note_on,48,0,2,,,,,,,,0,,,64,0
97428,note_on,0,0,3,,,,,,,,0,,,76,0
97434,set_tempo,12,1,0,,,,,,503356,,,,,,
97440,note_on,0,0,1,,,,,,,,0,,,89,80
97440,note_on,0,0,2,,,,,,,,0,,,65,80
97440,note_on,0,0,2,,,,,,,,0,,,60,80
97440,note_on,0,0,2,,,,,,,,0,,,56,80
97440,control_change,12,0,3,,,,,,,,0,64,0,,
97440,note_on,12,0,2,,,,,,,,0,,,53,80
97440,note_on,3856,0,1,,,,,,,,0,,,101,80
97447,set_tempo,13,1,0,,,,,,500835,,,,,,
97488,note_on,48,0,1,,,,,,,,0,,,89,0
97488,note_on,0,0,1,,,,,,,,0,,,101,0
97500,note_on,0,0,1,,,,,,,,0,,,96,80
97500,note_on,12,0,1,,,,,,,,0,,,92,80
97500,control_change,60,0,3,,,,,,,,0,64,127,,
97548,note_on,48,0,1,,,,,,,,0,,,96,0
97548,note_on,0,0,1,,,,,,,,0,,,92,0
97560,note_on,12,0,1,,,,,,,,0,,,89,80
97608,note_on,48,0,1,,,,,,,,0,,,89,0
97620,note_on,0,0,1,,,,,,,,0,,,84,80
97620,note_on,12,0,1,,,,,,,,0,,,80,80
97668,note_on,0,0,1,,,,,,,,0,,,80,0
97668,note_on,48,0,1,,,,,,,,0,,,84,0
97680,note_on,0,0,3,,,,,,,,0,,,34,80
97680,note_on,180,0,3,,,,,,,,0,,,44,80
97680,note_on,12,0,1,,,,,,,,0,,,77,80
97680,note_on,0,0,3,,,,,,,,0,,,48,80
97680,note_on,0,0,1,,,,,,,,0,,,89,80
97728,note_on,0,0,1,,,,,,,,0,,,77,0
97728,note_on,48,0,1,,,,,,,,0,,,89,0
97740,note_on,0,0,1,,,,,,,,0,,,80,80
97740,note_on,12,0,1,,,,,,,,0,,,84,80
97788,note_on,0,0,1,,,,,,,,0,,,84,0
97788,note_on,48,0,1,,,,,,,,0,,,80,0
97800,note_on,12,0,1,,,,,,,,0,,,77,80
97824,note_on,0,0,2,,,,,,,,0,,,53,0
97824,note_on,0,0,2,,,,,,,,0,,,65,0
97824,note_on,384,0,2,,,,,,,,0,,,60,0
97824,note_on,0,0,2,,,,,,,,0,,,56,0
97848,note_on,48,0,1,,,,,,,,0,,,77,0
97860,note_on,0,0,1,,,,,,,,0,,,68,80
97860,note_on,12,0,1,,,,,,,,0,,,72,80
97872,note_on,0,0,3,,,,,,,,0,,,34,0
97872,note_on,0,0,3,,,,,,,,0,,,44,0
97872,note_on,192,0,3,,,,,,,,0,,,48,0
97908,note_on,0,0,1,,,,,,,,0,,,72,0
97908,note_on,48,0,1,,,,,,,,0,,,68,0
97920,note_on,96,0,2,,,,,,,,0,,,58,80
97920,note_on,0,0,2,,,,,,,,0,,,65,80
97920,note_on,0,0,2,,,,,,,,0,,,61,80
97920,note_on,0,0,2,,,,,,,,0,,,53,80
97920,note_on,12,0,1,,,,,,,,0,,,77,80
97920,control_change,48,0,3,,,,,,,,0,64,0,,
97968,note_on,48,0,1,,,,,,,,0,,,77,0
97974,control_change,54,0,3,,,,,,,,0,64,127,,
97980,note_on,12,0,1,,,,,,,,0,,,73,80
97980,note_on,0,0,1,,,,,,,,0,,,70,80
98028,note_on,48,0,1,,,,,,,,0,,,70,0
98028,note_on,0,0,1,,,,,,,,0,,,73,0
98040,note_on,12,0,1,,,,,,,,0,,,65,80
98088,note_on,48,0,1,,,,,,,,0,,,65,0
98100,note_on,0,0,1,,,,,,,,0,,,58,80
98100,note_on,12,0,1,,,,,,,,0,,,61,80
98148,note_on,48,0,1,,,,,,,,0,,,58,0
98148,note_on,0,0,1,,,,,,,,0,,,61,0
98160,note_on,186,0,3,,,,,,,,0,,,49,80
98160,note_on,0,0,3,,,,,,,,0,,,34,80
98160,note_on,0,0,1,,,,,,,,0,,,53,80
98160,note_on,12,0,1,,,,,,,,0,,,65,80
98160,note_on,0,0,3,,,,,,,,0,,,46,80
98208,note_on,48,0,1,,,,,,,,0,,,53,0
98208,note_on,0,0,1,,,,,,,,0,,,65,0
98220,note_on,12,0,1,,,,,,,,0,,,61,80
98220,note_on,0,0,1,,,,,,,,0,,,58,80
98256,note_on,0,0,2,,,,,,,,0,,,65,0
98256,note_on,0,0,2,,,,,,,,0,,,61,0
98256,note_on,336,0,2,,,,,,,,0,,,53,0
98256,note_on,0,0,2,,,,,,,,0,,,58,0
98268,note_on,48,0,1,,,,,,,,0,,,58,0
98268,note_on,0,0,1,,,,,,,,0,,,61,0
98280,note_on,12,0,1,,,,,,,,0,,,65,80
98328,note_on,48,0,1,,,,,,,,0,,,65,0
98340,note_on,0,0,2,,,,,,,,0,,,65,80
98340,note_on,84,0,2,,,,,,,,0,,,53,80
98340,note_on,0,0,1,,,,,,,,0,,,70,80
98340,note_on,12,0,1,,,,,,,,0,,,73,80
98352,note_on,192,0,3,,,,,,,,0,,,46,0
98352,note_on,0,0,3,,,,,,,,0,,,49,0
98352,note_on,0,0,3,,,,,,,,0,,,34,0
98388,note_on,0,0,2,,,,,,,,0,,,53,0
98388,note_on,48,0,2,,,,,,,,0,,,65,0
98388,note_on,48,0,1,,,,,,,,0,,,70,0
98388,note_on,0,0,1,,,,,,,,0,,,73,0
98400,control_change,48,0,3,,,,,,,,0,64,0,,
98400,note_on,12,0,1,,,,,,,,0,,,77,80
98400,note_on,12,0,2,,,,,,,,0,,,53,80
98400,note_on,0,0,2,,,,,,,,0,,,56,80
98400,note_on,0,0,2,,,,,,,,0,,,65,80
98400,note_on,0,0,2,,,,,,,,0,,,60,80
98448,note_on,48,0,1,,,,,,,,0,,,77,0
98460,note_on,12,0,1,,,,,,,,0,,,68,80
98460,note_on,0,0,1,,,,,,,,0,,,72,80
98490,control_change,90,0,3,,,,,,,,0,64,127,,
98508,note_on,48,0,1,,,,,,,,0,,,72,0
98508,note_on,0,0,1,,,,,,,,0,,,68,0
98520,note_on,12,0,1,,,,,,,,0,,,77,80
98568,note_on,48,0,1,,,,,,,,0,,,77,0
98580,note_on,0,0,1,,,,,,,,0,,,84,80
98580,note_on,12,0,1,,,,,,,,0,,,80,80
98628,note_on,0,0,1,,,,,,,,0,,,80,0
98628,note_on,48,0,1,,,,,,,,0,,,84,0
98640,note_on,12,0,1,,,,,,,,0,,,89,80
98640,note_on,0,0,1,,,,,,,,0,,,77,80
98640,note_on,0,0,3,,,,,,,,0,,,48,80
98640,note_on,0,0,3,,,,,,,,0,,,34,80
98640,note_on,150,0,3,,,,,,,,0,,,44,80
98688,note_on,48,0,1,,,,,,,,0,,,77,0
98688,note_on,0,0,1,,,,,,,,0,,,89,0
98700,note_on,0,0,1,,,,,,,,0,,,80,80
98700,note_on,12,0,1,,,,,,,,0,,,84,80
98748,note_on,0,0,1,,,,,,,,0,,,84,0
98748,note_on,48,0,1,,,,,,,,0,,,80,0
98760,note_on,12,0,1,,,,,,,,0,,,89,80
98784,note_on,0,0,2,,,,,,,,0,,,65,0
98784,note_on,384,0,2,,,,,,,,0,,,60,0
98784,note_on,0,0,2,,,,,,,,0,,,56,0
98784,note_on,0,0,2,,,,,,,,0,,,53,0
98808,note_on,48,0,1,,,,,,,,0,,,89,0
98820,note_on,0,0,1,,,,,,,,0,,,92,80
98820,note_on,12,0,1,,,,,,,,0,,,96,80
98832,note_on,192,0,3,,,,,,,,0,,,34,0
98832,note_on,0,0,3,,,,,,,,0,,,48,0
98832,note_on,0,0,3,,,,,,,,0,,,44,0
98868,note_on,48,0,1,,,,,,,,0,,,92,0
98868,note_on,0,0,1,,,,,,,,0,,,96,0
98880,note_on,12,0,1,,,,,,,,0,,,89,80
98880,note_on,0,0,1,,,,,,,,0,,,101,80
98886,control_change,54,0,3,,,,,,,,0,64,0,,
98887,set_tempo,1440,1,0,,,,,,503356,,,,,,
98900,set_tempo,13,1,0,,,,,,505902,,,,,,
98906,set_tempo,6,1,0,,,,,,508475,,,,,,
98919,set_tempo,13,1,0,,,,,,511073,,,,,,
98925,set_tempo,6,1,0,,,,,,513699,,,,,,
98938,set_tempo,13,1,0,,,,,,516351,,,,,,
98944,note_on,0,0,1,,,,,,,,0,,,89,0
98944,set_tempo,6,1,0,,,,,,519031,,,,,,
98944,note_on,64,0,1,,,,,,,,0,,,101,0
98957,set_tempo,13,1,0,,,,,,521739,,,,,,
98958,control_change,72,0,3,,,,,,,,0,64,127,,
98960,note_on,0,0,1,,,,,,,,0,,,88,80
98960,note_on,16,0,1,,,,,,,,0,,,76,80
98960,note_on,176,0,2,,,,,,,,0,,,64,80
98963,set_tempo,6,1,0,,,,,,524476,,,,,,
98975,set_tempo,12,1,0,,,,,,527241,,,,,,
98982,set_tempo,7,1,0,,,,,,530035,,,,,,
98994,set_tempo,12,1,0,,,,,,532860,,,,,,
99001,set_tempo,7,1,0,,,,,,535714,,,,,,
99013,set_tempo,12,1,0,,,,,,538600,,,,,,
99020,set_tempo,7,1,0,,,,,,541516,,,,,,
99024,note_on,64,0,2,,,,,,,,0,,,64,0
99024,note_on,64,0,1,,,,,,,,0,,,88,0
99024,note_on,0,0,1,,,,,,,,0,,,76,0
99032,set_tempo,12,1,0,,,,,,544465,,,,,,
99039,set_tempo,7,1,0,,,,,,547445,,,,,,
99040,note_on,16,0,1,,,,,,,,0,,,77,80
99040,note_on,0,0,1,,,,,,,,0,,,89,80
99040,note_on,16,0,2,,,,,,,,0,,,65,80
99051,set_tempo,12,1,0,,,,,,550459,,,,,,
99058,set_tempo,7,1,0,,,,,,553506,,,,,,
99064,set_tempo,6,1,0,,,,,,550459,,,,,,
99070,set_tempo,6,1,0,,,,,,547445,,,,,,
99077,set_tempo,7,1,0,,,,,,544465,,,,,,
99083,set_tempo,6,1,0,,,,,,541516,,,,,,
99089,set_tempo,6,1,0,,,,,,538600,,,,,,
99095,set_tempo,6,1,0,,,,,,535714,,,,,,
99102,set_tempo,7,1,0,,,,,,532860,,,,,,
99104,note_on,0,0,1,,,,,,,,0,,,77,0
99104,note_on,64,0,2,,,,,,,,0,,,65,0
99104,note_on,64,0,1,,,,,,,,0,,,89,0
99108,set_tempo,6,1,0,,,,,,530035,,,,,,
99114,set_tempo,6,1,0,,,,,,527241,,,,,,
99120,note_on,16,0,2,,,,,,,,0,,,68,80
99120,note_on,16,0,1,,,,,,,,0,,,80,80
99120,note_on,0,0,1,,,,,,,,0,,,92,80
99121,set_tempo,7,1,0,,,,,,524476,,,,,,
99127,set_tempo,6,1,0,,,,,,521739,,,,,,
99133,set_tempo,6,1,0,,,,,,516351,,,,,,
99140,set_tempo,7,1,0,,,,,,513699,,,,,,
99146,set_tempo,6,1,0,,,,,,511073,,,,,,
99152,set_tempo,6,1,0,,,,,,508475,,,,,,
99159,set_tempo,7,1,0,,,,,,505902,,,,,,
99165,set_tempo,6,1,0,,,,,,503356,,,,,,
99171,set_tempo,6,1,0,,,,,,500835,,,,,,
99178,set_tempo,7,1,0,,,,,,498339,,,,,,
99184,set_tempo,6,1,0,,,,,,495868,,,,,,
99184,note_on,64,0,2,,,,,,,,0,,,68,0
99184,note_on,64,0,1,,,,,,,,0,,,92,0
99184,note_on,0,0,1,,,,,,,,0,,,80,0
99190,set_tempo,6,1,0,,,,,,493421,,,,,,
99197,set_tempo,7,1,0,,,,,,490998,,,,,,
99200,note_on,16,0,2,,,,,,,,0,,,67,80
99200,note_on,16,0,1,,,,,,,,0,,,91,80
99200,note_on,0,0,1,,,,,,,,0,,,79,80
99203,set_tempo,6,1,0,,,,,,486224,,,,,,
99209,set_tempo,6,1,0,,,,,,483871,,,,,,
99215,set_tempo,6,1,0,,,,,,481541,,,,,,
99222,set_tempo,7,1,0,,,,,,479233,,,,,,
99228,set_tempo,6,1,0,,,,,,476948,,,,,,
99234,set_tempo,6,1,0,,,,,,474684,,,,,,
99241,set_tempo,7,1,0,,,,,,472441,,,,,,
99247,set_tempo,6,1,0,,,,,,470219,,,,,,
99253,set_tempo,6,1,0,,,,,,468019,,,,,,
99260,set_tempo,7,1,0,,,,,,465839,,,,,,
99264,note_on,64,0,2,,,,,,,,0,,,67,0
99264,note_on,0,0,1,,,,,,,,0,,,91,0
99264,note_on,64,0,1,,,,,,,,0,,,79,0
99266,set_tempo,6,1,0,,,,,,463679,,,,,,
99272,set_tempo,6,1,0,,,,,,459418,,,,,,
99279,set_tempo,7,1,0,,,,,,461538,,,,,,
99280,note_on,16,0,1,,,,,,,,0,,,77,80
99280,note_on,16,0,2,,,,,,,,0,,,65,80
99280,note_on,0,0,1,,,,,,,,0,,,89,80
99285,set_tempo,6,1,0,,,,,,463679,,,,,,
99291,set_tempo,6,1,0,,,,,,465839,,,,,,
99298,set_tempo,7,1,0,,,,,,470219,,,,,,
99304,set_tempo,6,1,0,,,,,,472441,,,,,,
99310,set_tempo,6,1,0,,,,,,474684,,,,,,
99317,set_tempo,7,1,0,,,,,,476948,,,,,,
99323,set_tempo,6,1,0,,,,,,481541,,,,,,
99329,set_tempo,6,1,0,,,,,,483871,,,,,,
99335,set_tempo,6,1,0,,,,,,486224,,,,,,
99342,set_tempo,7,1,0,,,,,,488599,,,,,,
99344,note_on,0,0,1,,,,,,,,0,,,77,0
99344,note_on,64,0,1,,,,,,,,0,,,89,0
99344,note_on,64,0,2,,,,,,,,0,,,65,0
99348,set_tempo,6,1,0,,,,,,493421,,,,,,
99360,note_on,0,0,3,,,,,,,,0,,,87,80
99360,note_on,0,0,3,,,,,,,,0,,,75,80
99360,note_on,0,0,3,,,,,,,,0,,,63,80
99360,note_on,0,0,3,,,,,,,,0,,,60,80
99360,note_on,0,0,3,,,,,,,,0,,,56,80
99360,note_on,0,0,3,,,,,,,,0,,,51,80
99360,control_change,402,0,3,,,,,,,,0,64,0,,
99364,set_tempo,16,1,0,,,,,,498339,,,,,,
99408,control_change,0,0,3,,,,,,,,0,64,127,,
99408,note_on,0,0,3,,,,,,,,0,,,87,0
99408,note_on,48,0,3,,,,,,,,0,,,75,0
99420,note_on,12,0,3,,,,,,,,0,,,84,80
99420,note_on,0,0,3,,,,,,,,0,,,80,80
99468,note_on,0,0,3,,,,,,,,0,,,84,0
99468,note_on,48,0,3,,,,,,,,0,,,80,0
99480,note_on,12,0,3,,,,,,,,0,,,75,80
99528,note_on,48,0,3,,,,,,,,0,,,75,0
99540,note_on,12,0,3,,,,,,,,0,,,68,80
99540,note_on,0,0,3,,,,,,,,0,,,72,80
99588,note_on,48,0,3,,,,,,,,0,,,72,0
99588,note_on,0,0,3,,,,,,,,0,,,68,0
99600,note_on,0,0,2,,,,,,,,0,,,44,80
99600,note_on,0,0,2,,,,,,,,0,,,48,80
99600,note_on,256,0,2,,,,,,,,0,,,34,80
99600,note_on,12,0,3,,,,,,,,0,,,63,80
99600,note_on,0,0,3,,,,,,,,0,,,75,80
99648,note_on,48,0,3,,,,,,,,0,,,75,0
99648,note_on,0,0,3,,,,,,,,0,,,63,0
99660,note_on,12,0,3,,,,,,,,0,,,72,80
99660,note_on,0,0,3,,,,,,,,0,,,68,80
99708,note_on,48,0,3,,,,,,,,0,,,68,0
99708,note_on,0,0,3,,,,,,,,0,,,72,0
99720,note_on,12,0,3,,,,,,,,0,,,75,80
99744,note_on,0,0,3,,,,,,,,0,,,51,0
99744,note_on,0,0,3,,,,,,,,0,,,56,0
99744,note_on,0,0,3,,,,,,,,0,,,60,0
99744,note_on,24,0,3,,,,,,,,0,,,63,0
99768,note_on,24,0,3,,,,,,,,0,,,75,0
99780,note_on,12,0,3,,,,,,,,0,,,80,80
99780,note_on,0,0,3,,,,,,,,0,,,84,80
99792,note_on,0,0,2,,,,,,,,0,,,34,0
99792,note_on,0,0,2,,,,,,,,0,,,44,0
99792,note_on,192,0,2,,,,,,,,0,,,48,0
99810,control_change,30,0,3,,,,,,,,0,64,0,,
99828,note_on,18,0,3,,,,,,,,0,,,84,0
99828,note_on,0,0,3,,,,,,,,0,,,80,0
99840,note_on,12,0,3,,,,,,,,0,,,87,80
99840,note_on,0,0,3,,,,,,,,0,,,51,80
99840,note_on,0,0,3,,,,,,,,0,,,55,80
99840,note_on,0,0,3,,,,,,,,0,,,59,80
99840,note_on,0,0,3,,,,,,,,0,,,63,80
99840,note_on,0,0,3,,,,,,,,0,,,75,80
99882,control_change,42,0,3,,,,,,,,0,64,127,,
99888,note_on,6,0,3,,,,,,,,0,,,75,0
99888,note_on,0,0,3,,,,,,,,0,,,87,0
99900,note_on,12,0,3,,,,,,,,0,,,83,80
99900,note_on,0,0,3,,,,,,,,0,,,79,80
99948,note_on,0,0,3,,,,,,,,0,,,83,0
99948,note_on,48,0,3,,,,,,,,0,,,79,0
99960,note_on,12,0,3,,,,,,,,0,,,87,80
100008,note_on,48,0,3,,,,,,,,0,,,87,0
100020,note_on,12,0,3,,,,,,,,0,,,95,80
100020,note_on,0,0,3,,,,,,,,0,,,91,80
100068,note_on,0,0,3,,,,,,,,0,,,95,0
100068,note_on,48,0,3,,,,,,,,0,,,91,0
100080,note_on,0,0,3,,,,,,,,0,,,87,80
100080,note_on,12,0,3,,,,,,,,0,,,99,80
100080,note_on,0,0,2,,,,,,,,0,,,47,80
100080,note_on,288,0,2,,,,,,,,0,,,43,80
100080,note_on,0,0,2,,,,,,,,0,,,34,80
100176,note_on,96,0,3,,,,,,,,0,,,63,0
100176,note_on,0,0,3,,,,,,,,0,,,51,0
100176,note_on,0,0,3,,,,,,,,0,,,55,0
100176,note_on,0,0,3,,,,,,,,0,,,59,0
100193,note_on,17,0,3,,,,,,,,0,,,87,0
100193,note_on,0,0,3,,,,,,,,0,,,99,0
100260,note_on,0,0,3,,,,,,,,0,,,63,80
100260,note_on,67,0,3,,,,,,,,0,,,51,80
100272,note_on,0,0,2,,,,,,,,0,,,47,0
100272,note_on,0,0,2,,,,,,,,0,,,43,0
100272,note_on,192,0,2,,,,,,,,0,,,34,0
100308,note_on,0,0,3,,,,,,,,0,,,51,0
100308,note_on,48,0,3,,,,,,,,0,,,63,0
100320,control_change,0,0,3,,,,,,,,0,64,0,,
100320,note_on,0,0,2,,,,,,,,0,,,51,80
100320,note_on,0,0,2,,,,,,,,0,,,56,80
100320,note_on,0,0,2,,,,,,,,0,,,60,80
100320,note_on,0,0,3,,,,,,,,0,,,87,80
100320,note_on,48,0,2,,,,,,,,0,,,63,80
100320,note_on,12,0,3,,,,,,,,0,,,75,80
100368,note_on,0,0,3,,,,,,,,0,,,75,0
100368,note_on,48,0,3,,,,,,,,0,,,87,0
100380,note_on,12,0,3,,,,,,,,0,,,84,80
100380,note_on,0,0,3,,,,,,,,0,,,80,80
100386,control_change,6,0,3,,,,,,,,0,64,127,,
100428,note_on,0,0,3,,,,,,,,0,,,84,0
100428,note_on,42,0,3,,,,,,,,0,,,80,0
100440,note_on,12,0,3,,,,,,,,0,,,75,80
100488,note_on,48,0,3,,,,,,,,0,,,75,0
100500,note_on,12,0,3,,,,,,,,0,,,68,80
100500,note_on,0,0,3,,,,,,,,0,,,72,80
100548,note_on,0,0,3,,,,,,,,0,,,68,0
100548,note_on,48,0,3,,,,,,,,0,,,72,0
100560,note_on,0,0,3,,,,,,,,0,,,34,80
100560,note_on,0,0,3,,,,,,,,0,,,63,80
100560,note_on,12,0,3,,,,,,,,0,,,75,80
100560,note_on,0,0,3,,,,,,,,0,,,48,80
100560,note_on,0,0,3,,,,,,,,0,,,44,80
100608,note_on,48,0,3,,,,,,,,0,,,63,0
100608,note_on,0,0,3,,,,,,,,0,,,75,0
100620,note_on,0,0,3,,,,,,,,0,,,68,80
100620,note_on,12,0,3,,,,,,,,0,,,72,80
100668,note_on,48,0,3,,,,,,,,0,,,68,0
100668,note_on,0,0,3,,,,,,,,0,,,72,0
100680,note_on,12,0,3,,,,,,,,0,,,75,80
100704,note_on,384,0,2,,,,,,,,0,,,56,0
100704,note_on,0,0,2,,,,,,,,0,,,63,0
100704,note_on,0,0,2,,,,,,,,0,,,51,0
100704,note_on,0,0,2,,,,,,,,0,,,60,0
100728,note_on,48,0,3,,,,,,,,0,,,75,0
100740,note_on,0,0,3,,,,,,,,0,,,80,80
100740,note_on,12,0,3,,,,,,,,0,,,84,80
100752,note_on,12,0,3,,,,,,,,0,,,48,0
100752,note_on,0,0,3,,,,,,,,0,,,34,0
100752,note_on,0,0,3,,,,,,,,0,,,44,0
100788,note_on,0,0,3,,,,,,,,0,,,80,0
100788,note_on,36,0,3,,,,,,,,0,,,84,0
100794,control_change,6,0,3,,,,,,,,0,64,0,,
100800,note_on,0,0,2,,,,,,,,0,,,51,80
100800,note_on,0,0,2,,,,,,,,0,,,59,80
100800,note_on,6,0,3,,,,,,,,0,,,75,80
100800,note_on,96,0,2,,,,,,,,0,,,57,80
100800,note_on,0,0,2,,,,,,,,0,,,63,80
100800,note_on,0,0,2,,,,,,,,0,,,54,80
100800,note_on,0,0,3,,,,,,,,0,,,87,80
100848,note_on,0,0,3,,,,,,,,0,,,75,0
100848,control_change,0,0,3,,,,,,,,0,64,127,,
100848,note_on,48,0,3,,,,,,,,0,,,87,0
100860,note_on,0,0,3,,,,,,,,0,,,83,80
100860,note_on,12,0,3,,,,,,,,0,,,78,80
100908,note_on,0,0,3,,,,,,,,0,,,78,0
100908,note_on,48,0,3,,,,,,,,0,,,83,0
100920,note_on,12,0,3,,,,,,,,0,,,87,80
100968,note_on,48,0,3,,,,,,,,0,,,87,0
100980,note_on,12,0,3,,,,,,,,0,,,95,80
100980,note_on,0,0,3,,,,,,,,0,,,90,80
101028,note_on,48,0,3,,,,,,,,0,,,90,0
101028,note_on,0,0,3,,,,,,,,0,,,95,0
101040,note_on,12,0,3,,,,,,,,0,,,87,80
101040,note_on,0,0,3,,,,,,,,0,,,99,80
101040,note_on,0,0,3,,,,,,,,0,,,47,80
101040,note_on,0,0,3,,,,,,,,0,,,45,80
101040,note_on,0,0,3,,,,,,,,0,,,34,80
101136,note_on,0,0,2,,,,,,,,0,,,51,0
101136,note_on,0,0,2,,,,,,,,0,,,54,0
101136,note_on,0,0,2,,,,,,,,0,,,57,0
101136,note_on,0,0,2,,,,,,,,0,,,59,0
101136,note_on,336,0,2,,,,,,,,0,,,63,0
101153,note_on,0,0,3,,,,,,,,0,,,87,0
101153,note_on,113,0,3,,,,,,,,0,,,99,0
101220,note_on,0,0,2,,,,,,,,0,,,63,80
101220,note_on,84,0,2,,,,,,,,0,,,51,80
101232,note_on,79,0,3,,,,,,,,0,,,45,0
101232,note_on,0,0,3,,,,,,,,0,,,34,0
101232,note_on,0,0,3,,,,,,,,0,,,47,0
101268,note_on,0,0,2,,,,,,,,0,,,51,0
101268,note_on,48,0,2,,,,,,,,0,,,63,0
101275,set_tempo,1911,1,0,,,,,,498339,,,,,,
101280,control_change,48,0,3,,,,,,,,0,64,0,,
101280,note_on,12,0,2,,,,,,,,0,,,52,80
101280,note_on,0,0,2,,,,,,,,0,,,56,80
101280,note_on,0,0,3,,,,,,,,0,,,88,80
101280,note_on,0,0,2,,,,,,,,0,,,64,80
101280,note_on,0,0,2,,,,,,,,0,,,59,80
101280,note_on,0,0,3,,,,,,,,0,,,76,80
101328,note_on,48,0,3,,,,,,,,0,,,76,0
101328,note_on,0,0,3,,,,,,,,0,,,88,0
101340,note_on,12,0,3,,,,,,,,0,,,83,80
101340,note_on,0,0,3,,,,,,,,0,,,80,80
101340,control_change,0,0,3,,,,,,,,0,64,127,,
101388,note_on,0,0,3,,,,,,,,0,,,83,0
101388,note_on,48,0,3,,,,,,,,0,,,80,0
101400,note_on,12,0,3,,,,,,,,0,,,76,80
101448,note_on,48,0,3,,,,,,,,0,,,76,0
101460,note_on,0,0,3,,,,,,,,0,,,71,80
101460,note_on,12,0,3,,,,,,,,0,,,68,80
101508,note_on,0,0,3,,,,,,,,0,,,68,0
101508,note_on,48,0,3,,,,,,,,0,,,71,0
101520,note_on,0,0,3,,,,,,,,0,,,44,80
101520,note_on,0,0,3,,,,,,,,0,,,47,80
101520,note_on,0,0,3,,,,,,,,0,,,64,80
101520,note_on,12,0,3,,,,,,,,0,,,76,80
101520,note_on,0,0,3,,,,,,,,0,,,34,80
101568,note_on,0,0,3,,,,,,,,0,,,76,0
101568,note_on,48,0,3,,,,,,,,0,,,64,0
101580,note_on,12,0,3,,,,,,,,0,,,71,80
101580,note_on,0,0,3,,,,,,,,0,,,68,80
101628,note_on,0,0,3,,,,,,,,0,,,71,0
101628,note_on,48,0,3,,,,,,,,0,,,68,0
101640,note_on,12,0,3,,,,,,,,0,,,76,80
101664,note_on,384,0,2,,,,,,,,0,,,64,0
101664,note_on,0,0,2,,,,,,,,0,,,59,0
101664,note_on,0,0,2,,,,,,,,0,,,56,0
101664,note_on,0,0,2,,,,,,,,0,,,52,0
101688,note_on,48,0,3,,,,,,,,0,,,76,0
101700,note_on,12,0,3,,,,,,,,0,,,83,80
101700,note_on,0,0,3,,,,,,,,0,,,80,80
101712,note_on,12,0,3,,,,,,,,0,,,44,0
101712,note_on,0,0,3,,,,,,,,0,,,34,0
101712,note_on,0,0,3,,,,,,,,0,,,47,0
101726,control_change,14,0,3,,,,,,,,0,64,0,,
101748,note_on,0,0,3,,,,,,,,0,,,80,0
101748,note_on,22,0,3,,,,,,,,0,,,83,0
101760,note_on,0,0,3,,,,,,,,0,,,76,80
101760,note_on,12,0,3,,,,,,,,0,,,88,80
101760,note_on,96,0,2,,,,,,,,0,,,55,80
101760,note_on,0,0,2,,,,,,,,0,,,64,80
101760,note_on,0,0,2,,,,,,,,0,,,61,80
101760,note_on,0,0,2,,,,,,,,0,,,52,80
101760,note_on,0,0,2,,,,,,,,0,,,58,80
101777,control_change,17,0,3,,,,,,,,0,64,127,,
101808,note_on,31,0,3,,,,,,,,0,,,76,0
101808,note_on,0,0,3,,,,,,,,0,,,88,0
101820,note_on,0,0,3,,,,,,,,0,,,85,80
101820,note_on,12,0,3,,,,,,,,0,,,79,80
101868,note_on,0,0,3,,,,,,,,0,,,79,0
101868,note_on,48,0,3,,,,,,,,0,,,85,0
101875,set_tempo,600,1,0,,,,,,495868,,,,,,
101880,note_on,12,0,3,,,,,,,,0,,,88,80
101928,note_on,48,0,3,,,,,,,,0,,,88,0
101940,note_on,0,0,3,,,,,,,,0,,,97,80
101940,note_on,12,0,3,,,,,,,,0,,,91,80
101940,note_on,0,0,3,,,,,,,,0,,,34,80
101970,note_on,30,0,3,,,,,,,,0,,,43,80
101988,note_on,0,0,3,,,,,,,,0,,,91,0
101988,note_on,18,0,3,,,,,,,,0,,,97,0
102000,note_on,0,0,3,,,,,,,,0,,,100,80
102000,note_on,12,0,3,,,,,,,,0,,,88,80
102000,note_on,0,0,3,,,,,,,,0,,,49,80
102096,note_on,0,0,2,,,,,,,,0,,,52,0
102096,note_on,0,0,2,,,,,,,,0,,,58,0
102096,note_on,0,0,3,,,,,,,,0,,,88,0
102096,note_on,0,0,2,,,,,,,,0,,,64,0
102096,note_on,336,0,2,,,,,,,,0,,,61,0
102096,note_on,96,0,3,,,,,,,,0,,,100,0
102096,note_on,0,0,2,,,,,,,,0,,,55,0
102180,note_on,0,0,2,,,,,,,,0,,,64,80
102180,note_on,84,0,2,,,,,,,,0,,,52,80
102192,note_on,0,0,3,,,,,,,,0,,,34,0
102192,note_on,0,0,3,,,,,,,,0,,,49,0
102192,note_on,96,0,3,,,,,,,,0,,,43,0
102227,control_change,35,0,3,,,,,,,,0,64,0,,
102228,note_on,0,0,2,,,,,,,,0,,,52,0
102228,note_on,48,0,2,,,,,,,,0,,,64,0
102240,note_on,12,0,2,,,,,,,,0,,,61,80
102240,note_on,0,0,2,,,,,,,,0,,,65,80
102240,note_on,0,0,2,,,,,,,,0,,,56,80
102240,note_on,0,0,2,,,,,,,,0,,,53,80
102240,note_on,2896,0,1,,,,,,,,0,,,89,80
102240,note_on,0,0,1,,,,,,,,0,,,77,80
102264,control_change,37,0,3,,,,,,,,0,64,127,,
102288,note_on,0,0,1,,,,,,,,0,,,89,0
102288,note_on,48,0,1,,,,,,,,0,,,77,0
102300,note_on,12,0,1,,,,,,,,0,,,85,80
102300,note_on,0,0,1,,,,,,,,0,,,80,80
102348,note_on,48,0,1,,,,,,,,0,,,80,0
102348,note_on,0,0,1,,,,,,,,0,,,85,0
102360,note_on,12,0,1,,,,,,,,0,,,77,80
102408,note_on,48,0,1,,,,,,,,0,,,77,0
102420,note_on,12,0,1,,,,,,,,0,,,73,80
102420,note_on,0,0,1,,,,,,,,0,,,68,80
102420,note_on,156,0,3,,,,,,,,0,,,34,80
102450,note_on,30,0,3,,,,,,,,0,,,44,80
102468,note_on,48,0,1,,,,,,,,0,,,68,0
102468,note_on,0,0,1,,,,,,,,0,,,73,0
102475,set_tempo,600,1,0,,,,,,493421,,,,,,
102476,set_tempo,1,1,0,,,,,,505902,,,,,,
102480,note_on,12,0,1,,,,,,,,0,,,77,80
102480,note_on,30,0,3,,,,,,,,0,,,49,80
102480,note_on,0,0,1,,,,,,,,0,,,65,80
102481,set_tempo,5,1,0,,,,,,508475,,,,,,
102488,set_tempo,7,1,0,,,,,,511073,,,,,,
102493,set_tempo,5,1,0,,,,,,513699,,,,,,
102500,set_tempo,7,1,0,,,,,,516351,,,,,,
102505,set_tempo,5,1,0,,,,,,519031,,,,,,
102512,set_tempo,7,1,0,,,,,,521739,,,,,,
102517,set_tempo,5,1,0,,,,,,524476,,,,,,
102524,set_tempo,7,1,0,,,,,,527241,,,,,,
102528,note_on,48,0,1,,,,,,,,0,,,65,0
102528,note_on,0,0,1,,,,,,,,0,,,77,0
102529,set_tempo,5,1,0,,,,,,530035,,,,,,
102536,set_tempo,7,1,0,,,,,,532860,,,,,,
102540,note_on,0,0,1,,,,,,,,0,,,68,80
102540,note_on,12,0,1,,,,,,,,0,,,73,80
102541,set_tempo,5,1,0,,,,,,535714,,,,,,
102548,set_tempo,7,1,0,,,,,,538600,,,,,,
102553,set_tempo,5,1,0,,,,,,541516,,,,,,
102560,set_tempo,7,1,0,,,,,,544465,,,,,,
102565,set_tempo,5,1,0,,,,,,547445,,,,,,
102572,set_tempo,7,1,0,,,,,,550459,,,,,,
102577,set_tempo,5,1,0,,,,,,553506,,,,,,
102584,set_tempo,7,1,0,,,,,,556586,,,,,,
102588,note_on,0,0,1,,,,,,,,0,,,73,0
102588,note_on,48,0,1,,,,,,,,0,,,68,0
102589,set_tempo,5,1,0,,,,,,559701,,,,,,
102596,set_tempo,7,1,0,,,,,,562852,,,,,,
102600,note_on,12,0,1,,,,,,,,0,,,77,80
102601,set_tempo,5,1,0,,,,,,566038,,,,,,
102608,set_tempo,7,1,0,,,,,,569260,,,,,,
102613,set_tempo,5,1,0,,,,,,572519,,,,,,
102620,set_tempo,7,1,0,,,,,,575816,,,,,,
102624,note_on,384,0,2,,,,,,,,0,,,56,0
102624,note_on,0,0,2,,,,,,,,0,,,65,0
102624,note_on,0,0,2,,,,,,,,0,,,53,0
102624,note_on,0,0,2,,,,,,,,0,,,61,0
102625,set_tempo,5,1,0,,,,,,579151,,,,,,
102632,set_tempo,7,1,0,,,,,,582524,,,,,,
102637,set_tempo,5,1,0,,,,,,585938,,,,,,
102644,set_tempo,7,1,0,,,,,,589391,,,,,,
102648,note_on,48,0,1,,,,,,,,0,,,77,0
102649,set_tempo,5,1,0,,,,,,592885,,,,,,
102656,set_tempo,7,1,0,,,,,,596421,,,,,,
102660,note_on,0,0,1,,,,,,,,0,,,80,80
102660,note_on,12,0,1,,,,,,,,0,,,85,80
102661,set_tempo,5,1,0,,,,,,600000,,,,,,
102668,set_tempo,7,1,0,,,,,,603622,,,,,,
102672,note_on,0,0,3,,,,,,,,0,,,44,0
102672,note_on,192,0,3,,,,,,,,0,,,49,0
102672,note_on,0,0,3,,,,,,,,0,,,34,0
102673,set_tempo,5,1,0,,,,,,607287,,,,,,
102680,set_tempo,7,1,0,,,,,,610998,,,,,,
102685,set_tempo,5,1,0,,,,,,614754,,,,,,
102690,set_tempo,5,1,0,,,,,,618557,,,,,,
102697,set_tempo,7,1,0,,,,,,622407,,,,,,
102702,set_tempo,5,1,0,,,,,,626305,,,,,,
102705,control_change,33,0,3,,,,,,,,0,64,0,,
102708,note_on,48,0,1,,,,,,,,0,,,80,0
102708,note_on,0,0,1,,,,,,,,0,,,85,0
102709,set_tempo,7,1,0,,,,,,630252,,,,,,
102714,set_tempo,5,1,0,,,,,,634249,,,,,,
102720,note_on,12,0,1,,,,,,,,0,,,77,80
102720,note_on,0,0,2,,,,,,,,0,,,53,80
102720,note_on,96,0,2,,,,,,,,0,,,62,80
102720,note_on,0,0,2,,,,,,,,0,,,59,80
102720,note_on,0,0,2,,,,,,,,0,,,65,80
102720,note_on,0,0,1,,,,,,,,0,,,89,80
102720,note_on,0,0,2,,,,,,,,0,,,56,80
102721,set_tempo,7,1,0,,,,,,638298,,,,,,
102726,set_tempo,5,1,0,,,,,,642398,,,,,,
102733,set_tempo,7,1,0,,,,,,646552,,,,,,
102738,control_change,33,0,3,,,,,,,,0,64,127,,
102738,set_tempo,5,1,0,,,,,,650759,,,,,,
102745,set_tempo,7,1,0,,,,,,655022,,,,,,
102750,set_tempo,5,1,0,,,,,,659341,,,,,,
102757,set_tempo,7,1,0,,,,,,663717,,,,,,
102762,set_tempo,5,1,0,,,,,,668151,,,,,,
102768,note_on,48,0,1,,,,,,,,0,,,89,0
102768,note_on,0,0,1,,,,,,,,0,,,77,0
102769,set_tempo,7,1,0,,,,,,672646,,,,,,
102774,set_tempo,5,1,0,,,,,,677201,,,,,,
102780,note_on,12,0,1,,,,,,,,0,,,80,80
102780,note_on,0,0,1,,,,,,,,0,,,86,80
102781,set_tempo,7,1,0,,,,,,681818,,,,,,
102786,set_tempo,5,1,0,,,,,,686499,,,,,,
102793,set_tempo,7,1,0,,,,,,691244,,,,,,
102798,set_tempo,5,1,0,,,,,,696056,,,,,,
102805,set_tempo,7,1,0,,,,,,700935,,,,,,
102810,set_tempo,5,1,0,,,,,,705882,,,,,,
102817,set_tempo,7,1,0,,,,,,710900,,,,,,
102822,set_tempo,5,1,0,,,,,,715990,,,,,,
102828,note_on,0,0,1,,,,,,,,0,,,80,0
102828,note_on,48,0,1,,,,,,,,0,,,86,0
102829,set_tempo,7,1,0,,,,,,721154,,,,,,
102834,set_tempo,5,1,0,,,,,,726392,,,,,,
102840,note_on,12,0,1,,,,,,,,0,,,89,80
102841,set_tempo,7,1,0,,,,,,731707,,,,,,
102846,set_tempo,5,1,0,,,,,,737101,,,,,,
102853,set_tempo,7,1,0,,,,,,742574,,,,,,
102858,set_tempo,5,1,0,,,,,,748130,,,,,,
102865,set_tempo,7,1,0,,,,,,753769,,,,,,
102870,set_tempo,5,1,0,,,,,,759494,,,,,,
102877,set_tempo,7,1,0,,,,,,765306,,,,,,
102882,set_tempo,5,1,0,,,,,,771208,,,,,,
102888,note_on,48,0,1,,,,,,,,0,,,89,0
102889,set_tempo,7,1,0,,,,,,777202,,,,,,
102894,set_tempo,5,1,0,,,,,,783290,,,,,,
102900,note_on,12,0,1,,,,,,,,0,,,98,80
102900,note_on,0,0,1,,,,,,,,0,,,92,80
102900,note_on,162,0,3,,,,,,,,0,,,34,80
102901,set_tempo,7,1,0,,,,,,789474,,,,,,
102906,set_tempo,5,1,0,,,,,,795756,,,,,,
102913,set_tempo,7,1,0,,,,,,802139,,,,,,
102918,set_tempo,5,1,0,,,,,,808625,,,,,,
102925,set_tempo,7,1,0,,,,,,815217,,,,,,
102930,note_on,30,0,3,,,,,,,,0,,,44,80
102930,set_tempo,5,1,0,,,,,,821918,,,,,,
102937,set_tempo,7,1,0,,,,,,828729,,,,,,
102942,set_tempo,5,1,0,,,,,,835655,,,,,,
102948,note_on,48,0,1,,,,,,,,0,,,92,0
102948,note_on,0,0,1,,,,,,,,0,,,98,0
102949,set_tempo,7,1,0,,,,,,842697,,,,,,
102954,set_tempo,5,1,0,,,,,,849858,,,,,,
102960,note_on,0,0,1,,,,,,,,0,,,89,80
102960,note_on,30,0,3,,,,,,,,0,,,50,80
102960,note_on,12,0,1,,,,,,,,0,,,101,80
102961,set_tempo,7,1,0,,,,,,857143,,,,,,
102966,set_tempo,5,1,0,,,,,,864553,,,,,,
102973,set_tempo,7,1,0,,,,,,872093,,,,,,
102978,set_tempo,5,1,0,,,,,,879765,,,,,,
102985,set_tempo,7,1,0,,,,,,887574,,,,,,
102990,set_tempo,5,1,0,,,,,,895522,,,,,,
102997,set_tempo,7,1,0,,,,,,903614,,,,,,
103002,set_tempo,5,1,0,,,,,,911854,,,,,,
103009,set_tempo,7,1,0,,,,,,920245,,,,,,
103014,set_tempo,5,1,0,,,,,,928793,,,,,,
103021,set_tempo,7,1,0,,,,,,937500,,,,,,
103026,set_tempo,5,1,0,,,,,,946372,,,,,,
103033,set_tempo,7,1,0,,,,,,955414,,,,,,
103038,set_tempo,5,1,0,,,,,,964630,,,,,,
103045,set_tempo,7,1,0,,,,,,974026,,,,,,
103050,set_tempo,5,1,0,,,,,,983607,,,,,,
103056,note_on,0,0,2,,,,,,,,0,,,56,0
103056,note_on,0,0,2,,,,,,,,0,,,53,0
103056,note_on,0,0,2,,,,,,,,0,,,62,0
103056,note_on,0,0,1,,,,,,,,0,,,101,0
103056,note_on,0,0,2,,,,,,,,0,,,65,0
103056,note_on,96,0,1,,,,,,,,0,,,89,0
103056,note_on,336,0,2,,,,,,,,0,,,59,0
103057,set_tempo,7,1,0,,,,,,993377,,,,,,
103062,set_tempo,5,1,0,,,,,,1003344,,,,,,
103069,set_tempo,7,1,0,,,,,,1013514,,,,,,
103074,set_tempo,5,1,0,,,,,,1023891,,,,,,
103081,set_tempo,7,1,0,,,,,,1034483,,,,,,
103086,set_tempo,5,1,0,,,,,,1045296,,,,,,
103093,set_tempo,7,1,0,,,,,,1056338,,,,,,
103098,set_tempo,5,1,0,,,,,,1067616,,,,,,
103105,set_tempo,7,1,0,,,,,,1079137,,,,,,
103110,set_tempo,5,1,0,,,,,,1090909,,,,,,
103117,set_tempo,7,1,0,,,,,,1102941,,,,,,
103122,set_tempo,5,1,0,,,,,,1115242,,,,,,
103125,set_tempo,3,1,0,,,,,,1115242,,,,,,
103127,set_tempo,2,1,0,,,,,,1167315,,,,,,
103130,set_tempo,3,1,0,,,,,,1224490,,,,,,
103132,set_tempo,2,1,0,,,,,,1287554,,,,,,
103134,set_tempo,2,1,0,,,,,,1357466,,,,,,
103137,set_tempo,3,1,0,,,,,,1435407,,,,,,
103138,note_on,0,0,2,,,,,,,,0,,,53,90
103138,note_on,82,0,2,,,,,,,,0,,,65,90
103139,set_tempo,2,1,0,,,,,,1522843,,,,,,
103142,set_tempo,3,1,0,,,,,,1621622,,,,,,
103144,set_tempo,2,1,0,,,,,,1734104,,,,,,
103146,set_tempo,2,1,0,,,,,,1863354,,,,,,
103149,set_tempo,3,1,0,,,,,,2013423,,,,,,
103151,set_tempo,2,1,0,,,,,,2238806,,,,,,
103152,set_tempo,1,1,0,,,,,,2459016,,,,,,
103152,note_on,192,0,3,,,,,,,,0,,,50,0
103152,note_on,0,0,3,,,,,,,,0,,,44,0
103152,note_on,0,0,3,,,,,,,,0,,,34,0
103186,note_on,0,0,2,,,,,,,,0,,,65,0
103186,note_on,48,0,2,,,,,,,,0,,,53,0
103187,set_tempo,35,1,0,,,,,,2400000,,,,,,
103188,control_change,36,0,3,,,,,,,,0,64,0,,
103190,set_tempo,3,1,0,,,,,,1621622,,,,,,
103192,set_tempo,2,1,0,,,,,,1224490,,,,,,
103194,set_tempo,2,1,0,,,,,,983607,,,,,,
103197,set_tempo,3,1,0,,,,,,821918,,,,,,
103199,set_tempo,2,1,0,,,,,,705882,,,,,,
103200,note_on,0,0,3,,,,,,,,0,,,90,80
103200,note_on,0,0,3,,,,,,,,0,,,66,80
103200,note_on,0,0,3,,,,,,,,0,,,78,80
103200,note_on,12,0,3,,,,,,,,0,,,54,80
103207,set_tempo,8,1,0,,,,,,696056,,,,,,
103213,set_tempo,6,1,0,,,,,,691244,,,,,,
103220,set_tempo,7,1,0,,,,,,686499,,,,,,
103232,set_tempo,12,1,0,,,,,,681818,,,,,,
103239,set_tempo,7,1,0,,,,,,677201,,,,,,
103245,set_tempo,6,1,0,,,,,,672646,,,,,,
103258,set_tempo,13,1,0,,,,,,668151,,,,,,
103260,control_change,60,0,3,,,,,,,,0,64,127,,
103264,set_tempo,6,1,0,,,,,,663717,,,,,,
103270,set_tempo,6,1,0,,,,,,659341,,,,,,
103283,set_tempo,13,1,0,,,,,,655022,,,,,,
103289,set_tempo,6,1,0,,,,,,650759,,,,,,
103295,set_tempo,6,1,0,,,,,,646552,,,,,,
103296,note_on,0,0,3,,,,,,,,0,,,66,0
103296,note_on,36,0,3,,,,,,,,0,,,90,0
103296,note_on,0,0,3,,,,,,,,0,,,78,0
103296,note_on,0,0,3,,,,,,,,0,,,54,0
103308,set_tempo,13,1,0,,,,,,642398,,,,,,
103314,set_tempo,6,1,0,,,,,,638298,,,,,,
103320,note_on,0,0,3,,,,,,,,0,,,90,80
103320,note_on,0,0,3,,,,,,,,0,,,78,80
103320,note_on,24,0,3,,,,,,,,0,,,66,80
103320,note_on,0,0,3,,,,,,,,0,,,54,80
103321,set_tempo,7,1,0,,,,,,634249,,,,,,
103333,set_tempo,12,1,0,,,,,,630252,,,,,,
103340,set_tempo,7,1,0,,,,,,626305,,,,,,
103346,set_tempo,6,1,0,,,,,,622407,,,,,,
103359,set_tempo,13,1,0,,,,,,618557,,,,,,
103365,set_tempo,6,1,0,,,,,,614754,,,,,,
103371,set_tempo,6,1,0,,,,,,610998,,,,,,
103384,set_tempo,13,1,0,,,,,,607287,,,,,,
103390,set_tempo,6,1,0,,,,,,603622,,,,,,
103397,set_tempo,7,1,0,,,,,,600000,,,,,,
103409,set_tempo,12,1,0,,,,,,596421,,,,,,
103415,set_tempo,6,1,0,,,,,,592885,,,,,,
103416,note_on,0,0,3,,,,,,,,0,,,54,0
103416,note_on,0,0,3,,,,,,,,0,,,66,0
103416,note_on,0,0,3,,,,,,,,0,,,78,0
103416,note_on,96,0,3,,,,,,,,0,,,90,0
103422,set_tempo,7,1,0,,,,,,589391,,,,,,
103434,set_tempo,12,1,0,,,,,,585938,,,,,,
103440,note_on,24,0,3,,,,,,,,0,,,90,80
103440,note_on,0,0,3,,,,,,,,0,,,66,80
103440,note_on,0,0,3,,,,,,,,0,,,54,80
103440,note_on,0,0,3,,,,,,,,0,,,78,80
103441,set_tempo,7,1,0,,,,,,582524,,,,,,
103447,set_tempo,6,1,0,,,,,,579151,,,,,,
103453,set_tempo,6,1,0,,,,,,575816,,,,,,
103466,set_tempo,13,1,0,,,,,,572519,,,,,,
103472,set_tempo,6,1,0,,,,,,569260,,,,,,
103479,set_tempo,7,1,0,,,,,,566038,,,,,,
103491,set_tempo,12,1,0,,,,,,562852,,,,,,
103498,set_tempo,7,1,0,,,,,,559701,,,,,,
103504,set_tempo,6,1,0,,,,,,556586,,,,,,
103517,set_tempo,13,1,0,,,,,,553506,,,,,,
103523,set_tempo,6,1,0,,,,,,550459,,,,,,
103529,set_tempo,6,1,0,,,,,,547445,,,,,,
103536,note_on,96,0,3,,,,,,,,0,,,78,0
103536,note_on,0,0,3,,,,,,,,0,,,54,0
103536,note_on,0,0,3,,,,,,,,0,,,66,0
103536,note_on,0,0,3,,,,,,,,0,,,90,0
103542,set_tempo,13,1,0,,,,,,544465,,,,,,
103548,set_tempo,6,1,0,,,,,,541516,,,,,,
103554,set_tempo,6,1,0,,,,,,538600,,,,,,
103560,note_on,0,0,3,,,,,,,,0,,,78,80
103560,note_on,0,0,3,,,,,,,,0,,,90,80
103560,note_on,0,0,3,,,,,,,,0,,,66,80
103560,note_on,24,0,3,,,,,,,,0,,,54,80
103567,set_tempo,13,1,0,,,,,,535714,,,,,,
103573,set_tempo,6,1,0,,,,,,532860,,,,,,
103580,set_tempo,7,1,0,,,,,,530035,,,,,,
103592,set_tempo,12,1,0,,,,,,527241,,,,,,
103599,set_tempo,7,1,0,,,,,,524476,,,,,,
103605,set_tempo,6,1,0,,,,,,521739,,,,,,
103618,set_tempo,13,1,0,,,,,,519031,,,,,,
103624,set_tempo,6,1,0,,,,,,516351,,,,,,
103630,set_tempo,6,1,0,,,,,,513699,,,,,,
103643,set_tempo,13,1,0,,,,,,511073,,,,,,
103649,set_tempo,6,1,0,,,,,,508475,,,,,,
103655,set_tempo,6,1,0,,,,,,505902,,,,,,
103656,note_on,0,0,3,,,,,,,,0,,,78,0
103656,note_on,96,0,3,,,,,,,,0,,,90,0
103656,note_on,0,0,3,,,,,,,,0,,,66,0
103656,note_on,0,0,3,,,,,,,,0,,,54,0
103668,set_tempo,13,1,0,,,,,,503356,,,,,,
103674,set_tempo,6,1,0,,,,,,500835,,,,,,
103680,note_on,0,0,3,,,,,,,,0,,,54,80
103680,note_on,24,0,3,,,,,,,,0,,,78,80
103680,note_on,0,0,3,,,,,,,,0,,,66,80
103680,note_on,0,0,3,,,,,,,,0,,,90,80
103681,set_tempo,7,1,0,,,,,,498339,,,,,,
103687,set_tempo,6,1,0,,,,,,495868,,,,,,
103700,set_tempo,13,1,0,,,,,,493421,,,,,,
103706,set_tempo,6,1,0,,,,,,490998,,,,,,
103712,set_tempo,6,1,0,,,,,,488599,,,,,,
103725,set_tempo,13,1,0,,,,,,486224,,,,,,
103731,set_tempo,6,1,0,,,,,,483871,,,,,,
103738,set_tempo,7,1,0,,,,,,481541,,,,,,
103750,set_tempo,12,1,0,,,,,,479233,,,,,,
103757,set_tempo,7,1,0,,,,,,476948,,,,,,
103763,set_tempo,6,1,0,,,,,,474684,,,,,,
103775,set_tempo,12,1,0,,,,,,472441,,,,,,
103776,note_on,0,0,3,,,,,,,,0,,,78,0
103776,note_on,0,0,3,,,,,,,,0,,,54,0
103776,note_on,96,0,3,,,,,,,,0,,,66,0
103776,note_on,0,0,3,,,,,,,,0,,,90,0
103782,set_tempo,7,1,0,,,,,,470219,,,,,,
103788,set_tempo,6,1,0,,,,,,468019,,,,,,
103800,note_on,24,0,3,,,,,,,,0,,,54,80
103800,note_on,0,0,3,,,,,,,,0,,,90,80
103800,note_on,0,0,3,,,,,,,,0,,,78,80
103800,note_on,0,0,3,,,,,,,,0,,,66,80
103801,set_tempo,13,1,0,,,,,,465839,,,,,,
103807,set_tempo,6,1,0,,,,,,463679,,,,,,
103813,set_tempo,6,1,0,,,,,,461538,,,,,,
103826,set_tempo,13,1,0,,,,,,459418,,,,,,
103832,set_tempo,6,1,0,,,,,,457317,,,,,,
103839,set_tempo,7,1,0,,,,,,455235,,,,,,
103851,set_tempo,12,1,0,,,,,,453172,,,,,,
103858,set_tempo,7,1,0,,,,,,451128,,,,,,
103864,set_tempo,6,1,0,,,,,,449102,,,,,,
103877,set_tempo,13,1,0,,,,,,447094,,,,,,
103883,set_tempo,6,1,0,,,,,,445104,,,,,,
103889,set_tempo,6,1,0,,,,,,443131,,,,,,
103896,note_on,0,0,3,,,,,,,,0,,,90,0
103896,note_on,0,0,3,,,,,,,,0,,,54,0
103896,note_on,96,0,3,,,,,,,,0,,,78,0
103896,note_on,0,0,3,,,,,,,,0,,,66,0
103902,set_tempo,13,1,0,,,,,,441176,,,,,,
103908,set_tempo,6,1,0,,,,,,439239,,,,,,
103914,set_tempo,6,1,0,,,,,,437318,,,,,,
103920,note_on,0,0,3,,,,,,,,0,,,66,80
103920,note_on,0,0,3,,,,,,,,0,,,90,80
103920,note_on,24,0,3,,,,,,,,0,,,54,80
103920,note_on,0,0,3,,,,,,,,0,,,78,80
103921,set_tempo,7,1,0,,,,,,435414,,,,,,
103933,set_tempo,12,1,0,,,,,,433526,,,,,,
103940,set_tempo,7,1,0,,,,,,431655,,,,,,
103946,set_tempo,6,1,0,,,,,,429799,,,,,,
103959,set_tempo,13,1,0,,,,,,427960,,,,,,
103965,set_tempo,6,1,0,,,,,,426136,,,,,,
103971,set_tempo,6,1,0,,,,,,424328,,,,,,
103984,set_tempo,13,1,0,,,,,,422535,,,,,,
103990,set_tempo,6,1,0,,,,,,420757,,,,,,
103997,set_tempo,7,1,0,,,,,,418994,,,,,,
104009,set_tempo,12,1,0,,,,,,417246,,,,,,
104015,set_tempo,6,1,0,,,,,,415512,,,,,,
104016,note_on,0,0,3,,,,,,,,0,,,66,0
104016,note_on,0,0,3,,,,,,,,0,,,54,0
104016,note_on,96,0,3,,,,,,,,0,,,90,0
104016,note_on,0,0,3,,,,,,,,0,,,78,0
104022,set_tempo,7,1,0,,,,,,413793,,,,,,
104034,set_tempo,12,1,0,,,,,,412088,,,,,,
104040,note_on,0,0,3,,,,,,,,0,,,90,80
104040,note_on,24,0,3,,,,,,,,0,,,54,80
104040,note_on,0,0,3,,,,,,,,0,,,78,80
104040,note_on,0,0,3,,,,,,,,0,,,66,80
104041,set_tempo,7,1,0,,,,,,410397,,,,,,
104047,set_tempo,6,1,0,,,,,,408719,,,,,,
104060,set_tempo,13,1,0,,,,,,407056,,,,,,
104066,set_tempo,6,1,0,,,,,,405405,,,,,,
104072,set_tempo,6,1,0,,,,,,403769,,,,,,
104085,set_tempo,13,1,0,,,,,,402145,,,,,,
104091,set_tempo,6,1,0,,,,,,400534,,,,,,
104098,set_tempo,7,1,0,,,,,,398936,,,,,,
104110,set_tempo,12,1,0,,,,,,397351,,,,,,
104117,set_tempo,7,1,0,,,,,,395778,,,,,,
104123,set_tempo,6,1,0,,,,,,394218,,,,,,
104135,set_tempo,12,1,0,,,,,,392670,,,,,,
104136,note_on,0,0,3,,,,,,,,0,,,66,0
104136,note_on,0,0,3,,,,,,,,0,,,78,0
104136,note_on,96,0,3,,,,,,,,0,,,90,0
104136,note_on,0,0,3,,,,,,,,0,,,54,0
104142,set_tempo,7,1,0,,,,,,391134,,,,,,
104148,set_tempo,6,1,0,,,,,,389610,,,,,,
104154,set_tempo,6,1,0,,,,,,388098,,,,,,
104160,note_on,0,0,3,,,,,,,,0,,,54,80
104160,note_on,24,0,3,,,,,,,,0,,,90,80
104160,note_on,0,0,3,,,,,,,,0,,,78,80
104160,note_on,0,0,3,,,,,,,,0,,,66,80
104256,note_on,96,0,3,,,,,,,,0,,,78,0
104256,note_on,0,0,3,,,,,,,,0,,,90,0
104256,note_on,0,0,3,,,,,,,,0,,,66,0
104256,note_on,0,0,3,,,,,,,,0,,,54,0
104280,note_on,24,0,3,,,,,,,,0,,,54,80
104280,note_on,0,0,3,,,,,,,,0,,,66,80
104280,note_on,0,0,3,,,,,,,,0,,,78,80
104280,note_on,0,0,3,,,,,,,,0,,,90,80
104376,note_on,0,0,3,,,,,,,,0,,,54,0
104376,note_on,0,0,3,,,,,,,,0,,,66,0
104376,note_on,0,0,3,,,,,,,,0,,,90,0
104376,note_on,96,0,3,,,,,,,,0,,,78,0
104400,note_on,1344,0,1,,,,,,,,0,,,81,80
104400,note_on,0,0,3,,,,,,,,0,,,90,64
104400,note_on,1214,0,2,,,,,,,,0,,,63,80
104400,note_on,0,0,3,,,,,,,,0,,,66,64
104400,note_on,24,0,3,,,,,,,,0,,,78,64
104400,note_on,0,0,1,,,,,,,,0,,,87,80
104400,note_on,0,0,3,,,,,,,,0,,,54,64
104400,control_change,0,0,3,,,,,,,,0,64,0,,
104400,note_on,0,0,2,,,,,,,,0,,,60,80
104436,control_change,36,0,3,,,,,,,,0,64,127,,
104496,note_on,0,0,3,,,,,,,,0,,,66,0
104496,note_on,0,0,3,,,,,,,,0,,,78,0
104496,note_on,0,0,3,,,,,,,,0,,,90,0
104496,note_on,60,0,3,,,,,,,,0,,,54,0
104520,note_on,0,0,3,,,,,,,,0,,,54,64
104520,note_on,0,0,3,,,,,,,,0,,,66,64
104520,note_on,0,0,3,,,,,,,,0,,,90,64
104520,note_on,24,0,3,,,,,,,,0,,,78,64
104592,note_on,0,0,1,,,,,,,,0,,,81,0
104592,note_on,192,0,2,,,,,,,,0,,,60,0
104592,note_on,192,0,1,,,,,,,,0,,,87,0
104592,note_on,0,0,2,,,,,,,,0,,,63,0
104616,note_on,96,0,3,,,,,,,,0,,,66,0
104616,note_on,0,0,3,,,,,,,,0,,,90,0
104616,note_on,0,0,3,,,,,,,,0,,,78,0
104616,note_on,0,0,3,,,,,,,,0,,,54,0
104640,note_on,0,0,3,,,,,,,,0,,,78,64
104640,note_on,0,0,3,,,,,,,,0,,,66,64
104640,note_on,0,0,3,,,,,,,,0,,,90,64
104640,note_on,0,0,1,,,,,,,,0,,,88,80
104640,note_on,48,0,1,,,,,,,,0,,,82,80
104640,note_on,24,0,3,,,,,,,,0,,,54,64
104640,note_on,0,0,2,,,,,,,,0,,,64,80
104640,note_on,48,0,2,,,,,,,,0,,,61,80
104736,note_on,0,0,3,,,,,,,,0,,,90,0
104736,note_on,96,0,3,,,,,,,,0,,,78,0
104736,note_on,0,0,3,,,,,,,,0,,,66,0
104736,note_on,0,0,3,,,,,,,,0,,,54,0
104760,note_on,0,0,3,,,,,,,,0,,,66,64
104760,note_on,0,0,3,,,,,,,,0,,,54,64
104760,note_on,0,0,3,,,,,,,,0,,,78,64
104760,note_on,24,0,3,,,,,,,,0,,,90,64
104832,note_on,0,0,2,,,,,,,,0,,,61,0
104832,note_on,192,0,1,,,,,,,,0,,,88,0
104832,note_on,192,0,2,,,,,,,,0,,,64,0
104832,note_on,0,0,1,,,,,,,,0,,,82,0
104856,note_on,0,0,3,,,,,,,,0,,,54,0
104856,note_on,0,0,3,,,,,,,,0,,,66,0
104856,note_on,0,0,3,,,,,,,,0,,,90,0
104856,note_on,96,0,3,,,,,,,,0,,,78,0
104880,note_on,48,0,1,,,,,,,,0,,,84,80
104880,note_on,0,0,3,,,,,,,,0,,,90,64
104880,note_on,0,0,3,,,,,,,,0,,,78,64
104880,note_on,0,0,2,,,,,,,,0,,,57,80
104880,note_on,0,0,3,,,,,,,,0,,,54,64
104880,note_on,48,0,2,,,,,,,,0,,,60,80
104880,note_on,24,0,3,,,,,,,,0,,,66,64
104880,note_on,0,0,1,,,,,,,,0,,,81,80
104976,note_on,96,0,3,,,,,,,,0,,,90,0
104976,note_on,0,0,3,,,,,,,,0,,,78,0
104976,note_on,0,0,3,,,,,,,,0,,,54,0
104976,note_on,0,0,3,,,,,,,,0,,,66,0
105000,note_on,24,0,3,,,,,,,,0,,,66,64
105000,note_on,0,0,3,,,,,,,,0,,,54,64
105000,note_on,0,0,3,,,,,,,,0,,,78,64
105000,note_on,0,0,3,,,,,,,,0,,,90,64
105072,note_on,0,0,1,,,,,,,,0,,,84,0
105072,note_on,0,0,2,,,,,,,,0,,,60,0
105072,note_on,192,0,1,,,,,,,,0,,,81,0
105072,note_on,192,0,2,,,,,,,,0,,,57,0
105096,note_on,96,0,3,,,,,,,,0,,,90,0
105096,note_on,0,0,3,,,,,,,,0,,,78,0
105096,note_on,0,0,3,,,,,,,,0,,,66,0
105096,note_on,0,0,3,,,,,,,,0,,,54,0
105120,note_on,48,0,1,,,,,,,,0,,,82,80
105120,note_on,0,0,3,,,,,,,,0,,,90,64
105120,note_on,0,0,1,,,,,,,,0,,,85,80
105120,note_on,0,0,3,,,,,,,,0,,,66,64
105120,note_on,24,0,3,,,,,,,,0,,,78,64
105120,note_on,0,0,3,,,,,,,,0,,,54,64
105120,note_on,0,0,2,,,,,,,,0,,,58,80
105120,note_on,48,0,2,,,,,,,,0,,,61,80
105216,note_on,96,0,3,,,,,,,,0,,,90,0
105216,note_on,0,0,3,,,,,,,,0,,,78,0
105216,note_on,0,0,3,,,,,,,,0,,,66,0
105216,note_on,0,0,3,,,,,,,,0,,,54,0
105240,note_on,24,0,3,,,,,,,,0,,,90,64
105240,note_on,0,0,3,,,,,,,,0,,,78,64
105240,note_on,0,0,3,,,,,,,,0,,,66,64
105240,note_on,0,0,3,,,,,,,,0,,,54,64
105312,note_on,0,0,2,,,,,,,,0,,,61,0
105312,note_on,192,0,2,,,,,,,,0,,,58,0
105312,note_on,0,0,1,,,,,,,,0,,,82,0
105312,note_on,192,0,1,,,,,,,,0,,,85,0
105336,note_on,96,0,3,,,,,,,,0,,,54,0
105336,note_on,0,0,3,,,,,,,,0,,,90,0
105336,note_on,0,0,3,,,,,,,,0,,,78,0
105336,note_on,0,0,3,,,,,,,,0,,,66,0
105360,note_on,0,0,3,,,,,,,,0,,,66,64
105360,note_on,0,0,3,,,,,,,,0,,,54,64
105360,note_on,24,0,3,,,,,,,,0,,,90,64
105360,note_on,0,0,3,,,,,,,,0,,,78,64
105360,note_on,48,0,2,,,,,,,,0,,,63,80
105360,note_on,48,0,1,,,,,,,,0,,,87,80
105360,note_on,0,0,2,,,,,,,,0,,,60,80
105360,note_on,0,0,1,,,,,,,,0,,,81,80
105456,note_on,96,0,3,,,,,,,,0,,,54,0
105456,note_on,0,0,3,,,,,,,,0,,,78,0
105456,note_on,0,0,3,,,,,,,,0,,,90,0
105456,note_on,0,0,3,,,,,,,,0,,,66,0
105480,note_on,24,0,3,,,,,,,,0,,,90,64
105480,note_on,0,0,3,,,,,,,,0,,,66,64
105480,note_on,0,0,3,,,,,,,,0,,,78,64
105480,note_on,0,0,3,,,,,,,,0,,,54,64
105552,note_on,0,0,2,,,,,,,,0,,,63,0
105552,note_on,0,0,1,,,,,,,,0,,,87,0
105552,note_on,192,0,2,,,,,,,,0,,,60,0
105552,note_on,192,0,1,,,,,,,,0,,,81,0
105576,note_on,0,0,3,,,,,,,,0,,,66,0
105576,note_on,0,0,3,,,,,,,,0,,,90,0
105576,note_on,96,0,3,,,,,,,,0,,,54,0
105576,note_on,0,0,3,,,,,,,,0,,,78,0
105600,note_on,48,0,1,,,,,,,,0,,,88,80
105600,note_on,0,0,1,,,,,,,,0,,,82,80
105600,note_on,0,0,2,,,,,,,,0,,,64,80
105600,note_on,24,0,3,,,,,,,,0,,,66,64
105600,note_on,0,0,3,,,,,,,,0,,,78,64
105600,note_on,0,0,3,,,,,,,,0,,,90,64
105600,note_on,0,0,3,,,,,,,,0,,,54,64
105600,note_on,48,0,2,,,,,,,,0,,,61,80
105696,note_on,0,0,3,,,,,,,,0,,,66,0
105696,note_on,0,0,3,,,,,,,,0,,,90,0
105696,note_on,96,0,3,,,,,,,,0,,,78,0
105696,note_on,0,0,3,,,,,,,,0,,,54,0
105720,note_on,0,0,3,,,,,,,,0,,,66,64
105720,note_on,0,0,3,,,,,,,,0,,,78,64
105720,note_on,0,0,3,,,,,,,,0,,,90,64
105720,note_on,24,0,3,,,,,,,,0,,,54,64
105792,note_on,0,0,2,,,,,,,,0,,,61,0
105792,note_on,192,0,2,,,,,,,,0,,,64,0
105816,note_on,0,0,3,,,,,,,,0,,,78,0
105816,note_on,0,0,3,,,,,,,,0,,,54,0
105816,note_on,96,0,3,,,,,,,,0,,,66,0
105816,note_on,0,0,3,,,,,,,,0,,,90,0
105840,note_on,0,0,3,,,,,,,,0,,,90,64
105840,note_on,0,0,3,,,,,,,,0,,,66,64
105840,note_on,24,0,3,,,,,,,,0,,,54,64
105840,note_on,0,0,3,,,,,,,,0,,,78,64
105936,note_on,0,0,3,,,,,,,,0,,,78,0
105936,note_on,0,0,3,,,,,,,,0,,,66,0
105936,note_on,0,0,3,,,,,,,,0,,,54,0
105936,note_on,96,0,3,,,,,,,,0,,,90,0
105960,note_on,24,0,3,,,,,,,,0,,,66,64
105960,note_on,0,0,3,,,,,,,,0,,,54,64
105960,note_on,0,0,3,,,,,,,,0,,,90,64
105960,note_on,0,0,3,,,,,,,,0,,,78,64
105984,note_on,0,0,1,,,,,,,,0,,,88,0
105984,note_on,384,0,1,,,,,,,,0,,,82,0
106056,note_on,0,0,3,,,,,,,,0,,,90,0
106056,note_on,0,0,3,,,,,,,,0,,,66,0
106056,note_on,0,0,3,,,,,,,,0,,,54,0
106056,note_on,96,0,3,,,,,,,,0,,,78,0
106080,note_on,0,0,3,,,,,,,,0,,,78,64
106080,note_on,0,0,3,,,,,,,,0,,,66,64
106080,note_on,0,0,3,,,,,,,,0,,,54,64
106080,note_on,24,0,3,,,,,,,,0,,,90,64
106090,set_tempo,1936,1,0,,,,,,389610,,,,,,
106128,set_tempo,38,1,0,,,,,,388098,,,,,,
106166,set_tempo,38,1,0,,,,,,386598,,,,,,
106176,note_on,0,0,3,,,,,,,,0,,,90,0
106176,note_on,0,0,3,,,,,,,,0,,,78,0
106176,note_on,0,0,3,,,,,,,,0,,,66,0
106176,note_on,96,0,3,,,,,,,,0,,,54,0
106200,note_on,0,0,3,,,,,,,,0,,,54,64
106200,note_on,24,0,3,,,,,,,,0,,,66,64
106200,note_on,0,0,3,,,,,,,,0,,,90,64
106200,note_on,0,0,3,,,,,,,,0,,,78,64
106204,set_tempo,38,1,0,,,,,,385109,,,,,,
106235,set_tempo,31,1,0,,,,,,383632,,,,,,
106273,set_tempo,38,1,0,,,,,,382166,,,,,,
106296,note_on,96,0,3,,,,,,,,0,,,78,0
106296,note_on,0,0,3,,,,,,,,0,,,54,0
106296,note_on,0,0,3,,,,,,,,0,,,90,0
106296,note_on,0,0,3,,,,,,,,0,,,66,0
106311,set_tempo,38,1,0,,,,,,380711,,,,,,
106320,note_on,0,0,3,,,,,,,,0,,,90,64
106320,note_on,0,0,3,,,,,,,,0,,,78,64
106320,note_on,0,0,3,,,,,,,,0,,,54,64
106320,note_on,24,0,3,,,,,,,,0,,,66,64
106349,set_tempo,38,1,0,,,,,,379267,,,,,,
106381,set_tempo,32,1,0,,,,,,377834,,,,,,
106416,note_on,0,0,3,,,,,,,,0,,,90,0
106416,note_on,0,0,3,,,,,,,,0,,,66,0
106416,note_on,0,0,3,,,,,,,,0,,,54,0
106416,note_on,96,0,3,,,,,,,,0,,,78,0
106419,set_tempo,38,1,0,,,,,,376412,,,,,,
106440,note_on,0,0,3,,,,,,,,0,,,54,64
106440,note_on,0,0,3,,,,,,,,0,,,90,64
106440,note_on,24,0,3,,,,,,,,0,,,66,64
106440,note_on,0,0,3,,,,,,,,0,,,78,64
106457,set_tempo,38,1,0,,,,,,375000,,,,,,
106494,set_tempo,37,1,0,,,,,,373599,,,,,,
106526,set_tempo,32,1,0,,,,,,372208,,,,,,
106536,note_on,0,0,3,,,,,,,,0,,,90,0
106536,note_on,96,0,3,,,,,,,,0,,,78,0
106536,note_on,0,0,3,,,,,,,,0,,,66,0
106536,note_on,0,0,3,,,,,,,,0,,,54,0
106560,note_on,0,0,3,,,,,,,,0,,,78,64
106560,note_on,0,0,3,,,,,,,,0,,,66,64
106560,note_on,0,0,3,,,,,,,,0,,,54,64
106560,note_on,24,0,3,,,,,,,,0,,,90,64
106564,set_tempo,38,1,0,,,,,,370828,,,,,,
106602,set_tempo,38,1,0,,,,,,369458,,,,,,
106633,set_tempo,31,1,0,,,,,,368098,,,,,,
106656,note_on,96,0,3,,,,,,,,0,,,78,0
106656,control_change,0,0,3,,,,,,,,0,64,0,,
106656,note_on,0,0,3,,,,,,,,0,,,54,0
106656,note_on,0,0,3,,,,,,,,0,,,66,0
106656,note_on,0,0,3,,,,,,,,0,,,90,0
106671,set_tempo,38,1,0,,,,,,366748,,,,,,
106680,note_on,24,0,3,,,,,,,,0,,,78,64
106680,note_on,0,0,3,,,,,,,,0,,,54,64
106680,note_on,0,0,3,,,,,,,,0,,,90,64
106680,note_on,0,0,3,,,,,,,,0,,,66,64
106709,set_tempo,38,1,0,,,,,,365408,,,,,,
106747,set_tempo,38,1,0,,,,,,364078,,,,,,
106776,note_on,0,0,3,,,,,,,,0,,,66,0
106776,note_on,96,0,3,,,,,,,,0,,,90,0
106776,note_on,0,0,3,,,,,,,,0,,,78,0
106776,note_on,0,0,3,,,,,,,,0,,,54,0
106779,set_tempo,32,1,0,,,,,,362757,,,,,,
106800,note_on,24,0,3,,,,,,,,0,,,65,80
106800,note_on,0,0,3,,,,,,,,0,,,89,80
106800,note_on,0,0,3,,,,,,,,0,,,53,80
106800,note_on,0,0,3,,,,,,,,0,,,77,80
106817,set_tempo,38,1,0,,,,,,361446,,,,,,
106854,set_tempo,37,1,0,,,,,,360144,,,,,,
106892,set_tempo,38,1,0,,,,,,358852,,,,,,
106896,note_on,0,0,3,,,,,,,,0,,,53,0
106896,note_on,0,0,3,,,,,,,,0,,,65,0
106896,note_on,96,0,3,,,,,,,,0,,,77,0
106896,note_on,0,0,3,,,,,,,,0,,,89,0
106920,note_on,0,0,3,,,,,,,,0,,,88,80
106920,note_on,0,0,3,,,,,,,,0,,,76,80
106920,note_on,0,0,3,,,,,,,,0,,,52,80
106920,note_on,24,0,3,,,,,,,,0,,,64,80
106924,set_tempo,32,1,0,,,,,,357569,,,,,,
106962,set_tempo,38,1,0,,,,,,356295,,,,,,
107000,set_tempo,38,1,0,,,,,,355030,,,,,,
107016,note_on,0,0,3,,,,,,,,0,,,88,0
107016,note_on,0,0,3,,,,,,,,0,,,64,0
107016,note_on,0,0,3,,,,,,,,0,,,52,0
107016,note_on,96,0,3,,,,,,,,0,,,76,0
107031,set_tempo,31,1,0,,,,,,353774,,,,,,
107040,note_on,0,0,3,,,,,,,,0,,,87,80
107040,note_on,0,0,3,,,,,,,,0,,,75,80
107040,note_on,0,0,3,,,,,,,,0,,,63,80
107040,control_change,24,0,3,,,,,,,,0,64,127,,
107040,note_on,0,0,3,,,,,,,,0,,,51,80
107136,note_on,96,0,3,,,,,,,,0,,,63,0
107136,note_on,0,0,3,,,,,,,,0,,,87,0
107136,note_on,0,0,3,,,,,,,,0,,,75,0
107136,note_on,0,0,3,,,,,,,,0,,,51,0
107160,note_on,0,0,3,,,,,,,,0,,,51,80
107160,note_on,0,0,3,,,,,,,,0,,,75,80
107160,note_on,0,0,3,,,,,,,,0,,,63,80
107160,note_on,24,0,3,,,,,,,,0,,,87,80
107256,note_on,0,0,3,,,,,,,,0,,,75,0
107256,note_on,0,0,3,,,,,,,,0,,,51,0
107256,note_on,0,0,3,,,,,,,,0,,,87,0
107256,note_on,96,0,3,,,,,,,,0,,,63,0
107280,note_on,24,0,3,,,,,,,,0,,,51,64
107280,note_on,0,0,3,,,,,,,,0,,,87,64
107280,note_on,0,0,3,,,,,,,,0,,,75,64
107280,note_on,1488,0,2,,,,,,,,0,,,57,80
107280,note_on,0,0,2,,,,,,,,0,,,60,80
107280,note_on,0,0,1,,,,,,,,0,,,78,80
107280,note_on,1296,0,1,,,,,,,,0,,,84,80
107280,note_on,0,0,3,,,,,,,,0,,,63,64
107376,note_on,0,0,3,,,,,,,,0,,,51,0
107376,note_on,96,0,3,,,,,,,,0,,,87,0
107376,note_on,0,0,3,,,,,,,,0,,,63,0
107376,note_on,0,0,3,,,,,,,,0,,,75,0
107400,note_on,0,0,3,,,,,,,,0,,,51,64
107400,note_on,0,0,3,,,,,,,,0,,,63,64
107400,note_on,0,0,3,,,,,,,,0,,,75,64
107400,note_on,24,0,3,,,,,,,,0,,,87,64
107472,note_on,192,0,1,,,,,,,,0,,,78,0
107472,note_on,0,0,2,,,,,,,,0,,,57,0
107472,note_on,192,0,2,,,,,,,,0,,,60,0
107472,note_on,0,0,1,,,,,,,,0,,,84,0
107496,note_on,0,0,3,,,,,,,,0,,,51,0
107496,note_on,0,0,3,,,,,,,,0,,,63,0
107496,note_on,0,0,3,,,,,,,,0,,,87,0
107496,note_on,96,0,3,,,,,,,,0,,,75,0
107520,note_on,0,0,3,,,,,,,,0,,,87,64
107520,note_on,0,0,1,,,,,,,,0,,,79,80
107520,note_on,24,0,3,,,,,,,,0,,,63,64
107520,note_on,0,0,2,,,,,,,,0,,,61,80
107520,note_on,0,0,3,,,,,,,,0,,,51,64
107520,note_on,0,0,3,,,,,,,,0,,,75,64
107520,note_on,48,0,2,,,,,,,,0,,,58,80
107520,note_on,48,0,1,,,,,,,,0,,,85,80
107616,note_on,0,0,3,,,,,,,,0,,,75,0
107616,note_on,0,0,3,,,,,,,,0,,,63,0
107616,note_on,0,0,3,,,,,,,,0,,,87,0
107616,note_on,96,0,3,,,,,,,,0,,,51,0
107640,note_on,0,0,3,,,,,,,,0,,,63,64
107640,note_on,0,0,3,,,,,,,,0,,,87,64
107640,note_on,0,0,3,,,,,,,,0,,,51,64
107640,note_on,24,0,3,,,,,,,,0,,,75,64
107712,note_on,0,0,1,,,,,,,,0,,,85,0
107712,note_on,0,0,2,,,,,,,,0,,,58,0
107712,note_on,192,0,2,,,,,,,,0,,,61,0
107712,note_on,192,0,1,,,,,,,,0,,,79,0
107736,note_on,96,0,3,,,,,,,,0,,,87,0
107736,note_on,0,0,3,,,,,,,,0,,,51,0
107736,note_on,0,0,3,,,,,,,,0,,,63,0
107736,note_on,0,0,3,,,,,,,,0,,,75,0
107760,note_on,24,0,3,,,,,,,,0,,,51,64
107760,note_on,0,0,1,,,,,,,,0,,,78,80
107760,note_on,0,0,3,,,,,,,,0,,,75,64
107760,note_on,0,0,2,,,,,,,,0,,,54,80
107760,note_on,0,0,3,,,,,,,,0,,,63,64
107760,note_on,48,0,1,,,,,,,,0,,,81,80
107760,note_on,48,0,2,,,,,,,,0,,,57,80
107760,note_on,0,0,3,,,,,,,,0,,,87,64
107856,note_on,0,0,3,,,,,,,,0,,,63,0
107856,note_on,96,0,3,,,,,,,,0,,,87,0
107856,note_on,0,0,3,,,,,,,,0,,,51,0
107856,note_on,0,0,3,,,,,,,,0,,,75,0
107880,note_on,24,0,3,,,,,,,,0,,,51,64
107880,note_on,0,0,3,,,,,,,,0,,,63,64
107880,note_on,0,0,3,,,,,,,,0,,,75,64
107880,note_on,0,0,3,,,,,,,,0,,,87,64
107952,note_on,0,0,1,,,,,,,,0,,,81,0
107952,note_on,0,0,2,,,,,,,,0,,,57,0
107952,note_on,192,0,1,,,,,,,,0,,,78,0
107952,note_on,192,0,2,,,,,,,,0,,,54,0
107976,note_on,0,0,3,,,,,,,,0,,,87,0
107976,note_on,96,0,3,,,,,,,,0,,,63,0
107976,note_on,0,0,3,,,,,,,,0,,,75,0
107976,note_on,0,0,3,,,,,,,,0,,,51,0
108000,note_on,24,0,3,,,,,,,,0,,,63,64
108000,note_on,48,0,2,,,,,,,,0,,,55,80
108000,note_on,0,0,3,,,,,,,,0,,,51,64
108000,note_on,0,0,3,,,,,,,,0,,,75,64
108000,note_on,0,0,3,,,,,,,,0,,,87,64
108000,note_on,0,0,1,,,,,,,,0,,,79,80
108000,note_on,48,0,1,,,,,,,,0,,,82,80
108000,note_on,0,0,2,,,,,,,,0,,,58,80
108096,note_on,0,0,3,,,,,,,,0,,,75,0
108096,note_on,96,0,3,,,,,,,,0,,,87,0
108096,note_on,0,0,3,,,,,,,,0,,,51,0
108096,note_on,0,0,3,,,,,,,,0,,,63,0
108120,note_on,0,0,3,,,,,,,,0,,,75,64
108120,note_on,0,0,3,,,,,,,,0,,,51,64
108120,note_on,24,0,3,,,,,,,,0,,,63,64
108120,note_on,0,0,3,,,,,,,,0,,,87,64
108192,note_on,192,0,2,,,,,,,,0,,,58,0
108192,note_on,0,0,2,,,,,,,,0,,,55,0
108192,note_on,192,0,1,,,,,,,,0,,,79,0
108192,note_on,0,0,1,,,,,,,,0,,,82,0
108216,note_on,0,0,3,,,,,,,,0,,,51,0
108216,note_on,0,0,3,,,,,,,,0,,,63,0
108216,note_on,0,0,3,,,,,,,,0,,,87,0
108216,note_on,96,0,3,,,,,,,,0,,,75,0
108240,note_on,0,0,1,,,,,,,,0,,,78,80
108240,note_on,0,0,2,,,,,,,,0,,,60,80
108240,note_on,24,0,3,,,,,,,,0,,,75,64
108240,note_on,48,0,2,,,,,,,,0,,,57,80
108240,note_on,0,0,3,,,,,,,,0,,,51,64
108240,note_on,0,0,3,,,,,,,,0,,,63,64
108240,note_on,0,0,3,,,,,,,,0,,,87,64
108240,note_on,48,0,1,,,,,,,,0,,,84,80
108336,note_on,0,0,3,,,,,,,,0,,,51,0
108336,note_on,0,0,3,,,,,,,,0,,,63,0
108336,note_on,96,0,3,,,,,,,,0,,,87,0
108336,note_on,0,0,3,,,,,,,,0,,,75,0
108360,note_on,0,0,3,,,,,,,,0,,,51,64
108360,note_on,0,0,3,,,,,,,,0,,,75,64
108360,note_on,24,0,3,,,,,,,,0,,,87,64
108360,note_on,0,0,3,,,,,,,,0,,,63,64
108432,note_on,0,0,1,,,,,,,,0,,,84,0
108432,note_on,0,0,2,,,,,,,,0,,,57,0
108432,note_on,192,0,2,,,,,,,,0,,,60,0
108432,note_on,192,0,1,,,,,,,,0,,,78,0
108456,note_on,0,0,3,,,,,,,,0,,,63,0
108456,note_on,0,0,3,,,,,,,,0,,,51,0
108456,note_on,96,0,3,,,,,,,,0,,,75,0
108456,note_on,0,0,3,,,,,,,,0,,,87,0
108480,note_on,48,0,2,,,,,,,,0,,,61,80
108480,note_on,0,0,2,,,,,,,,0,,,58,80
108480,note_on,0,0,3,,,,,,,,0,,,51,64
108480,note_on,48,0,1,,,,,,,,0,,,85,80
108480,note_on,24,0,3,,,,,,,,0,,,87,64
108480,note_on,0,0,1,,,,,,,,0,,,79,80
108480,note_on,0,0,3,,,,,,,,0,,,75,64
108480,note_on,0,0,3,,,,,,,,0,,,63,64
108576,note_on,0,0,3,,,,,,,,0,,,75,0
108576,note_on,0,0,3,,,,,,,,0,,,63,0
108576,note_on,0,0,3,,,,,,,,0,,,87,0
108576,note_on,96,0,3,,,,,,,,0,,,51,0
108600,note_on,24,0,3,,,,,,,,0,,,87,64
108600,note_on,0,0,3,,,,,,,,0,,,75,64
108600,note_on,0,0,3,,,,,,,,0,,,63,64
108600,note_on,0,0,3,,,,,,,,0,,,51,64
108696,note_on,0,0,3,,,,,,,,0,,,87,0
108696,note_on,96,0,3,,,,,,,,0,,,51,0
108696,note_on,0,0,3,,,,,,,,0,,,75,0
108696,note_on,0,0,3,,,,,,,,0,,,63,0
108720,note_on,0,0,3,,,,,,,,0,,,51,64
108720,note_on,24,0,3,,,,,,,,0,,,63,64
108720,note_on,0,0,3,,,,,,,,0,,,75,64
108720,note_on,0,0,3,,,,,,,,0,,,87,64
108816,note_on,96,0,3,,,,,,,,0,,,75,0
108816,note_on,0,0,3,,,,,,,,0,,,63,0
108816,note_on,0,0,3,,,,,,,,0,,,51,0
108816,note_on,0,0,3,,,,,,,,0,,,87,0
108840,note_on,0,0,3,,,,,,,,0,,,87,64
108840,note_on,0,0,3,,,,,,,,0,,,75,64
108840,note_on,0,0,3,,,,,,,,0,,,51,64
108840,note_on,24,0,3,,,,,,,,0,,,63,64
108864,note_on,0,0,2,,,,,,,,0,,,61,0
108864,note_on,0,0,1,,,,,,,,0,,,85,0
108864,note_on,384,0,1,,,,,,,,0,,,79,0
108864,note_on,384,0,2,,,,,,,,0,,,58,0
108936,note_on,0,0,3,,,,,,,,0,,,63,0
108936,note_on,96,0,3,,,,,,,,0,,,51,0
108936,note_on,0,0,3,,,,,,,,0,,,87,0
108936,note_on,0,0,3,,,,,,,,0,,,75,0
108960,note_on,0,0,3,,,,,,,,0,,,87,64
108960,note_on,0,0,3,,,,,,,,0,,,75,64
108960,note_on,0,0,3,,,,,,,,0,,,63,64
108960,note_on,24,0,3,,,,,,,,0,,,51,64
108964,set_tempo,1933,1,0,,,,,,355030,,,,,,
109014,set_tempo,50,1,0,,,,,,353774,,,,,,
109056,note_on,0,0,3,,,,,,,,0,,,87,0
109056,note_on,0,0,3,,,,,,,,0,,,75,0
109056,note_on,96,0,3,,,,,,,,0,,,63,0
109056,note_on,0,0,3,,,,,,,,0,,,51,0
109065,set_tempo,51,1,0,,,,,,352526,,,,,,
109080,note_on,0,0,3,,,,,,,,0,,,51,64
109080,note_on,0,0,3,,,,,,,,0,,,63,64
109080,note_on,0,0,3,,,,,,,,0,,,75,64
109080,note_on,24,0,3,,,,,,,,0,,,87,64
109115,set_tempo,50,1,0,,,,,,351288,,,,,,
109166,set_tempo,51,1,0,,,,,,350058,,,,,,
109176,note_on,0,0,3,,,,,,,,0,,,63,0
109176,note_on,96,0,3,,,,,,,,0,,,75,0
109176,note_on,0,0,3,,,,,,,,0,,,51,0
109176,note_on,0,0,3,,,,,,,,0,,,87,0
109200,note_on,24,0,3,,,,,,,,0,,,75,64
109200,note_on,0,0,3,,,,,,,,0,,,51,64
109200,note_on,0,0,3,,,,,,,,0,,,63,64
109200,note_on,0,0,3,,,,,,,,0,,,87,64
109217,set_tempo,51,1,0,,,,,,348837,,,,,,
109267,set_tempo,50,1,0,,,,,,347625,,,,,,
109296,note_on,96,0,3,,,,,,,,0,,,63,0
109296,note_on,0,0,3,,,,,,,,0,,,51,0
109296,note_on,0,0,3,,,,,,,,0,,,87,0
109296,note_on,0,0,3,,,,,,,,0,,,75,0
109311,set_tempo,44,1,0,,,,,,346420,,,,,,
109320,note_on,0,0,3,,,,,,,,0,,,51,64
109320,note_on,0,0,3,,,,,,,,0,,,63,64
109320,note_on,0,0,3,,,,,,,,0,,,75,64
109320,note_on,24,0,3,,,,,,,,0,,,87,64
109362,set_tempo,51,1,0,,,,,,345224,,,,,,
109412,set_tempo,50,1,0,,,,,,344037,,,,,,
109416,note_on,0,0,3,,,,,,,,0,,,87,0
109416,note_on,0,0,3,,,,,,,,0,,,75,0
109416,note_on,0,0,3,,,,,,,,0,,,63,0
109416,note_on,96,0,3,,,,,,,,0,,,51,0
109440,note_on,24,0,3,,,,,,,,0,,,63,64
109440,note_on,0,0,3,,,,,,,,0,,,87,64
109440,note_on,0,0,3,,,,,,,,0,,,75,64
109440,note_on,0,0,3,,,,,,,,0,,,51,64
109463,set_tempo,51,1,0,,,,,,342857,,,,,,
109513,set_tempo,50,1,0,,,,,,341686,,,,,,
109536,note_on,0,0,3,,,,,,,,0,,,63,0
109536,note_on,96,0,3,,,,,,,,0,,,51,0
109536,note_on,0,0,3,,,,,,,,0,,,75,0
109536,note_on,0,0,3,,,,,,,,0,,,87,0
109548,control_change,12,0,3,,,,,,,,0,64,0,,
109560,note_on,12,0,3,,,,,,,,0,,,63,64
109560,note_on,0,0,3,,,,,,,,0,,,51,64
109560,note_on,0,0,3,,,,,,,,0,,,75,64
109560,note_on,0,0,3,,,,,,,,0,,,87,64
109564,set_tempo,51,1,0,,,,,,340522,,,,,,
109608,set_tempo,44,1,0,,,,,,339367,,,,,,
109656,note_on,96,0,3,,,,,,,,0,,,51,0
109656,note_on,0,0,3,,,,,,,,0,,,63,0
109656,note_on,0,0,3,,,,,,,,0,,,75,0
109656,note_on,0,0,3,,,,,,,,0,,,87,0
109659,set_tempo,51,1,0,,,,,,338219,,,,,,
109680,note_on,0,0,3,,,,,,,,0,,,50,80
109680,note_on,24,0,3,,,,,,,,0,,,74,80
109680,note_on,0,0,3,,,,,,,,0,,,86,80
109680,note_on,0,0,3,,,,,,,,0,,,62,80
109709,set_tempo,50,1,0,,,,,,337079,,,,,,
109760,set_tempo,51,1,0,,,,,,335946,,,,,,
109776,note_on,96,0,3,,,,,,,,0,,,62,0
109776,note_on,0,0,3,,,,,,,,0,,,86,0
109776,note_on,0,0,3,,,,,,,,0,,,74,0
109776,note_on,0,0,3,,,,,,,,0,,,50,0
109800,note_on,0,0,3,,,,,,,,0,,,85,80
109800,note_on,0,0,3,,,,,,,,0,,,73,80
109800,note_on,0,0,3,,,,,,,,0,,,49,80
109800,note_on,24,0,3,,,,,,,,0,,,61,80
109810,set_tempo,50,1,0,,,,,,334821,,,,,,
109861,set_tempo,51,1,0,,,,,,333704,,,,,,
109896,note_on,96,0,3,,,,,,,,0,,,73,0
109896,note_on,0,0,3,,,,,,,,0,,,61,0
109896,note_on,0,0,3,,,,,,,,0,,,49,0
109896,note_on,0,0,3,,,,,,,,0,,,85,0
109905,set_tempo,44,1,0,,,,,,332594,,,,,,
109920,control_change,24,0,3,,,,,,,,0,64,127,,
109920,note_on,0,0,1,,,,,,,,0,,,84,80
109920,note_on,1056,0,1,,,,,,,,0,,,72,80
109920,note_on,0,0,2,,,,,,,,0,,,60,80
109920,note_on,1056,0,2,,,,,,,,0,,,48,80
110016,note_on,96,0,1,,,,,,,,0,,,84,0
110016,note_on,0,0,1,,,,,,,,0,,,72,0
110016,note_on,0,0,2,,,,,,,,0,,,48,0
110016,note_on,96,0,2,,,,,,,,0,,,60,0
110040,note_on,24,0,2,,,,,,,,0,,,60,80
110040,note_on,0,0,2,,,,,,,,0,,,48,80
110040,note_on,0,0,1,,,,,,,,0,,,84,80
110040,note_on,24,0,1,,,,,,,,0,,,72,80
110136,note_on,0,0,2,,,,,,,,0,,,60,0
110136,note_on,0,0,1,,,,,,,,0,,,72,0
110136,note_on,96,0,2,,,,,,,,0,,,48,0
110136,note_on,96,0,1,,,,,,,,0,,,84,0
110160,note_on,240,0,3,,,,,,,,0,,,57,80
110160,note_on,0,0,1,,,,,,,,0,,,84,64
110160,note_on,0,0,3,,,,,,,,0,,,54,80
110160,note_on,0,0,3,,,,,,,,0,,,75,80
110160,note_on,0,0,3,,,,,,,,0,,,81,80
110160,note_on,0,0,2,,,,,,,,0,,,48,64
110160,note_on,24,0,1,,,,,,,,0,,,72,64
110160,note_on,24,0,2,,,,,,,,0,,,60,64
110256,note_on,96,0,1,,,,,,,,0,,,84,0
110256,note_on,0,0,2,,,,,,,,0,,,60,0
110256,note_on,96,0,2,,,,,,,,0,,,48,0
110256,note_on,0,0,1,,,,,,,,0,,,72,0
110280,note_on,0,0,2,,,,,,,,0,,,48,64
110280,note_on,24,0,2,,,,,,,,0,,,60,64
110280,note_on,0,0,1,,,,,,,,0,,,72,64
110280,note_on,24,0,1,,,,,,,,0,,,84,64
110352,note_on,0,0,3,,,,,,,,0,,,54,0
110352,note_on,0,0,3,,,,,,,,0,,,57,0
110352,note_on,0,0,3,,,,,,,,0,,,75,0
110352,note_on,192,0,3,,,,,,,,0,,,81,0
110376,note_on,96,0,2,,,,,,,,0,,,48,0
110376,note_on,0,0,2,,,,,,,,0,,,60,0
110376,note_on,96,0,1,,,,,,,,0,,,72,0
110376,note_on,0,0,1,,,,,,,,0,,,84,0
110400,note_on,0,0,3,,,,,,,,0,,,82,80
110400,note_on,48,0,3,,,,,,,,0,,,76,80
110400,note_on,0,0,3,,,,,,,,0,,,55,80
110400,note_on,0,0,3,,,,,,,,0,,,58,80
110400,note_on,24,0,1,,,,,,,,0,,,72,64
110400,note_on,24,0,2,,,,,,,,0,,,60,64
110400,note_on,0,0,2,,,,,,,,0,,,48,64
110400,note_on,0,0,1,,,,,,,,0,,,84,64
110496,note_on,0,0,1,,,,,,,,0,,,72,0
110496,note_on,96,0,1,,,,,,,,0,,,84,0
110496,note_on,96,0,2,,,,,,,,0,,,48,0
110496,note_on,0,0,2,,,,,,,,0,,,60,0
110520,note_on,0,0,2,,,,,,,,0,,,48,64
110520,note_on,24,0,1,,,,,,,,0,,,84,64
110520,note_on,24,0,2,,,,,,,,0,,,60,64
110520,note_on,0,0,1,,,,,,,,0,,,72,64
110592,note_on,192,0,3,,,,,,,,0,,,55,0
110592,note_on,0,0,3,,,,,,,,0,,,82,0
110592,note_on,0,0,3,,,,,,,,0,,,76,0
110592,note_on,0,0,3,,,,,,,,0,,,58,0
110616,note_on,0,0,1,,,,,,,,0,,,84,0
110616,note_on,96,0,2,,,,,,,,0,,,48,0
110616,note_on,96,0,1,,,,,,,,0,,,72,0
110616,note_on,0,0,2,,,,,,,,0,,,60,0
110640,note_on,0,0,3,,,,,,,,0,,,54,80
110640,note_on,24,0,1,,,,,,,,0,,,72,64
110640,note_on,0,0,1,,,,,,,,0,,,84,64
110640,note_on,24,0,2,,,,,,,,0,,,48,64
110640,note_on,48,0,3,,,,,,,,0,,,51,80
110640,note_on,0,0,2,,,,,,,,0,,,60,64
110640,note_on,0,0,3,,,,,,,,0,,,75,80
110640,note_on,0,0,3,,,,,,,,0,,,78,80
110736,note_on,96,0,1,,,,,,,,0,,,84,0
110736,note_on,0,0,2,,,,,,,,0,,,48,0
110736,note_on,0,0,1,,,,,,,,0,,,72,0
110736,note_on,96,0,2,,,,,,,,0,,,60,0
110760,note_on,0,0,1,,,,,,,,0,,,72,64
110760,note_on,24,0,2,,,,,,,,0,,,60,64
110760,note_on,0,0,2,,,,,,,,0,,,48,64
110760,note_on,24,0,1,,,,,,,,0,,,84,64
110832,note_on,0,0,3,,,,,,,,0,,,51,0
110832,note_on,0,0,3,,,,,,,,0,,,54,0
110832,note_on,0,0,3,,,,,,,,0,,,75,0
110832,note_on,192,0,3,,,,,,,,0,,,78,0
110856,note_on,0,0,1,,,,,,,,0,,,84,0
110856,note_on,0,0,2,,,,,,,,0,,,60,0
110856,note_on,96,0,2,,,,,,,,0,,,48,0
110856,note_on,96,0,1,,,,,,,,0,,,72,0
110880,note_on,48,0,3,,,,,,,,0,,,60,64
110880,note_on,24,0,2,,,,,,,,0,,,52,80
110880,note_on,0,0,1,,,,,,,,0,,,79,80
110880,note_on,0,0,3,,,,,,,,0,,,48,64
110880,note_on,0,0,3,,,,,,,,0,,,72,64
110880,note_on,0,0,3,,,,,,,,0,,,84,64
110880,note_on,24,0,1,,,,,,,,0,,,76,80
110880,note_on,0,0,2,,,,,,,,0,,,55,80
110970,control_change,90,0,3,,,,,,,,0,64,0,,
110976,note_on,6,0,3,,,,,,,,0,,,72,0
110976,note_on,0,0,3,,,,,,,,0,,,48,0
110976,note_on,0,0,3,,,,,,,,0,,,60,0
110976,note_on,0,0,3,,,,,,,,0,,,84,0
111000,note_on,0,0,3,,,,,,,,0,,,84,64
111000,note_on,0,0,3,,,,,,,,0,,,72,64
111000,note_on,0,0,3,,,,,,,,0,,,48,64
111000,note_on,24,0,3,,,,,,,,0,,,60,64
111072,note_on,0,0,2,,,,,,,,0,,,52,0
111072,note_on,192,0,1,,,,,,,,0,,,79,0
111072,note_on,192,0,2,,,,,,,,0,,,55,0
111072,note_on,0,0,1,,,,,,,,0,,,76,0
111090,control_change,90,0,3,,,,,,,,0,64,127,,
111096,note_on,6,0,3,,,,,,,,0,,,84,0
111096,note_on,0,0,3,,,,,,,,0,,,60,0
111096,note_on,0,0,3,,,,,,,,0,,,72,0
111096,note_on,0,0,3,,,,,,,,0,,,48,0
111120,note_on,0,0,2,,,,,,,,0,,,51,80
111120,note_on,48,0,1,,,,,,,,0,,,72,80
111120,note_on,48,0,2,,,,,,,,0,,,54,80
111120,note_on,0,0,3,,,,,,,,0,,,81,64
111120,note_on,0,0,3,,,,,,,,0,,,69,64
111120,note_on,0,0,3,,,,,,,,0,,,45,64
111120,note_on,24,0,3,,,,,,,,0,,,57,64
111120,note_on,0,0,1,,,,,,,,0,,,78,80
111216,note_on,0,0,3,,,,,,,,0,,,45,0
111216,note_on,0,0,3,,,,,,,,0,,,69,0
111216,note_on,96,0,3,,,,,,,,0,,,81,0
111216,note_on,0,0,3,,,,,,,,0,,,57,0
111240,note_on,0,0,3,,,,,,,,0,,,45,64
111240,note_on,24,0,3,,,,,,,,0,,,81,64
111240,note_on,0,0,3,,,,,,,,0,,,57,64
111240,note_on,0,0,3,,,,,,,,0,,,69,64
111312,note_on,0,0,2,,,,,,,,0,,,54,0
111312,note_on,0,0,1,,,,,,,,0,,,72,0
111312,note_on,192,0,1,,,,,,,,0,,,78,0
111312,note_on,192,0,2,,,,,,,,0,,,51,0
111336,note_on,0,0,3,,,,,,,,0,,,81,0
111336,note_on,96,0,3,,,,,,,,0,,,69,0
111336,note_on,0,0,3,,,,,,,,0,,,57,0
111336,note_on,0,0,3,,,,,,,,0,,,45,0
111360,note_on,0,0,1,,,,,,,,0,,,79,80
111360,note_on,48,0,1,,,,,,,,0,,,73,80
111360,note_on,0,0,3,,,,,,,,0,,,57,64
111360,note_on,0,0,3,,,,,,,,0,,,69,64
111360,note_on,48,0,2,,,,,,,,0,,,55,80
111360,note_on,0,0,2,,,,,,,,0,,,52,80
111360,note_on,0,0,3,,,,,,,,0,,,45,64
111360,note_on,24,0,3,,,,,,,,0,,,81,64
111361,set_tempo,1456,1,0,,,,,,333704,,,,,,
111386,set_tempo,25,1,0,,,,,,334821,,,,,,
111411,set_tempo,25,1,0,,,,,,335946,,,,,,
111437,set_tempo,26,1,0,,,,,,337079,,,,,,
111455,set_tempo,18,1,0,,,,,,338219,,,,,,
111456,note_on,0,0,3,,,,,,,,0,,,81,0
111456,note_on,0,0,3,,,,,,,,0,,,57,0
111456,note_on,96,0,3,,,,,,,,0,,,69,0
111456,note_on,0,0,3,,,,,,,,0,,,45,0
111480,note_on,0,0,3,,,,,,,,0,,,81,64
111480,note_on,0,0,3,,,,,,,,0,,,45,64
111480,note_on,0,0,3,,,,,,,,0,,,57,64
111480,note_on,24,0,3,,,,,,,,0,,,69,64
111481,set_tempo,26,1,0,,,,,,339367,,,,,,
111506,set_tempo,25,1,0,,,,,,340522,,,,,,
111525,set_tempo,19,1,0,,,,,,341686,,,,,,
111550,set_tempo,25,1,0,,,,,,342857,,,,,,
111552,note_on,0,0,1,,,,,,,,0,,,73,0
111552,note_on,192,0,1,,,,,,,,0,,,79,0
111552,note_on,192,0,2,,,,,,,,0,,,52,0
111552,note_on,0,0,2,,,,,,,,0,,,55,0
111575,set_tempo,25,1,0,,,,,,344037,,,,,,
111576,note_on,0,0,3,,,,,,,,0,,,69,0
111576,note_on,0,0,3,,,,,,,,0,,,57,0
111576,note_on,96,0,3,,,,,,,,0,,,45,0
111576,note_on,0,0,3,,,,,,,,0,,,81,0
111594,set_tempo,19,1,0,,,,,,345224,,,,,,
111600,note_on,0,0,3,,,,,,,,0,,,81,64
111600,note_on,24,0,3,,,,,,,,0,,,45,64
111600,note_on,0,0,2,,,,,,,,0,,,48,80
111600,note_on,48,0,2,,,,,,,,0,,,51,80
111600,note_on,0,0,3,,,,,,,,0,,,57,64
111600,note_on,48,0,1,,,,,,,,0,,,75,80
111600,note_on,0,0,3,,,,,,,,0,,,69,64
111600,note_on,0,0,1,,,,,,,,0,,,72,80
111620,set_tempo,26,1,0,,,,,,346420,,,,,,
111645,set_tempo,25,1,0,,,,,,347625,,,,,,
111670,set_tempo,25,1,0,,,,,,348837,,,,,,
111689,set_tempo,19,1,0,,,,,,350058,,,,,,
111696,note_on,0,0,3,,,,,,,,0,,,45,0
111696,note_on,0,0,3,,,,,,,,0,,,57,0
111696,note_on,0,0,3,,,,,,,,0,,,69,0
111696,note_on,96,0,3,,,,,,,,0,,,81,0
111714,set_tempo,25,1,0,,,,,,351288,,,,,,
111720,note_on,24,0,3,,,,,,,,0,,,57,64
111720,note_on,0,0,3,,,,,,,,0,,,69,64
111720,note_on,0,0,3,,,,,,,,0,,,45,64
111720,note_on,0,0,3,,,,,,,,0,,,81,64
111740,set_tempo,26,1,0,,,,,,352526,,,,,,
111759,set_tempo,19,1,0,,,,,,353774,,,,,,
111784,set_tempo,25,1,0,,,,,,355030,,,,,,
111792,note_on,192,0,2,,,,,,,,0,,,48,0
111792,note_on,0,0,2,,,,,,,,0,,,51,0
111792,note_on,192,0,1,,,,,,,,0,,,72,0
111792,note_on,0,0,1,,,,,,,,0,,,75,0
111809,set_tempo,25,1,0,,,,,,356295,,,,,,
111816,note_on,96,0,3,,,,,,,,0,,,69,0
111816,note_on,0,0,3,,,,,,,,0,,,81,0
111816,note_on,0,0,3,,,,,,,,0,,,57,0
111816,note_on,0,0,3,,,,,,,,0,,,45,0
111828,set_tempo,19,1,0,,,,,,357569,,,,,,
111840,note_on,24,0,3,,,,,,,,0,,,81,64
111840,note_on,0,0,3,,,,,,,,0,,,69,64
111840,note_on,0,0,3,,,,,,,,0,,,57,64
111840,note_on,48,0,2,,,,,,,,0,,,49,80
111840,note_on,0,0,2,,,,,,,,0,,,52,80
111840,note_on,0,0,1,,,,,,,,0,,,73,80
111840,note_on,0,0,3,,,,,,,,0,,,45,64
111840,note_on,48,0,1,,,,,,,,0,,,76,80
111936,control_change,0,0,3,,,,,,,,0,64,0,,
111936,note_on,96,0,3,,,,,,,,0,,,45,0
111936,note_on,0,0,3,,,,,,,,0,,,69,0
111936,note_on,0,0,3,,,,,,,,0,,,81,0
111936,note_on,0,0,3,,,,,,,,0,,,57,0
111960,note_on,0,0,3,,,,,,,,0,,,45,64
111960,note_on,24,0,3,,,,,,,,0,,,81,64
111960,note_on,0,0,3,,,,,,,,0,,,57,64
111960,note_on,0,0,3,,,,,,,,0,,,69,64
112020,control_change,60,0,3,,,,,,,,0,64,127,,
112032,note_on,0,0,2,,,,,,,,0,,,49,0
112032,note_on,192,0,2,,,,,,,,0,,,52,0
112032,note_on,0,0,1,,,,,,,,0,,,76,0
112032,note_on,192,0,1,,,,,,,,0,,,73,0
112056,note_on,0,0,3,,,,,,,,0,,,81,0
112056,note_on,0,0,3,,,,,,,,0,,,57,0
112056,note_on,36,0,3,,,,,,,,0,,,69,0
112056,note_on,0,0,3,,,,,,,,0,,,45,0
112080,note_on,24,0,3,,,,,,,,0,,,66,64
112080,note_on,48,0,2,,,,,,,,0,,,51,80
112080,note_on,0,0,3,,,,,,,,0,,,78,64
112080,note_on,0,0,3,,,,,,,,0,,,42,64
112080,note_on,0,0,3,,,,,,,,0,,,54,64
112080,note_on,0,0,1,,,,,,,,0,,,75,80
112080,note_on,48,0,1,,,,,,,,0,,,69,80
112080,note_on,0,0,2,,,,,,,,0,,,48,80
112176,note_on,0,0,3,,,,,,,,0,,,42,0
112176,note_on,0,0,3,,,,,,,,0,,,66,0
112176,note_on,96,0,3,,,,,,,,0,,,78,0
112176,note_on,0,0,3,,,,,,,,0,,,54,0
112200,note_on,0,0,3,,,,,,,,0,,,66,64
112200,note_on,0,0,3,,,,,,,,0,,,78,64
112200,note_on,0,0,3,,,,,,,,0,,,42,64
112200,note_on,24,0,3,,,,,,,,0,,,54,64
112296,note_on,96,0,3,,,,,,,,0,,,66,0
112296,note_on,0,0,3,,,,,,,,0,,,42,0
112296,note_on,0,0,3,,,,,,,,0,,,78,0
112296,note_on,0,0,3,,,,,,,,0,,,54,0
112320,note_on,0,0,3,,,,,,,,0,,,42,64
112320,note_on,24,0,3,,,,,,,,0,,,54,64
112320,note_on,0,0,3,,,,,,,,0,,,66,64
112320,note_on,0,0,3,,,,,,,,0,,,78,64
112416,note_on,0,0,3,,,,,,,,0,,,78,0
112416,note_on,0,0,3,,,,,,,,0,,,54,0
112416,note_on,0,0,3,,,,,,,,0,,,42,0
112416,note_on,96,0,3,,,,,,,,0,,,66,0
112440,note_on,24,0,3,,,,,,,,0,,,42,64
112440,note_on,0,0,3,,,,,,,,0,,,78,64
112440,note_on,0,0,3,,,,,,,,0,,,66,64
112440,note_on,0,0,3,,,,,,,,0,,,54,64
112464,note_on,0,0,1,,,,,,,,0,,,69,0
112464,note_on,384,0,1,,,,,,,,0,,,75,0
112464,note_on,384,0,2,,,,,,,,0,,,48,0
112464,note_on,0,0,2,,,,,,,,0,,,51,0
112536,note_on,96,0,3,,,,,,,,0,,,54,0
112536,note_on,0,0,3,,,,,,,,0,,,42,0
112536,note_on,0,0,3,,,,,,,,0,,,66,0
112536,note_on,0,0,3,,,,,,,,0,,,78,0
112560,note_on,0,0,2,,,,,,,,0,,,49,80
112560,note_on,0,0,1,,,,,,,,0,,,76,80
112560,note_on,96,0,2,,,,,,,,0,,,52,80
112560,note_on,96,0,1,,,,,,,,0,,,70,80
112560,note_on,0,0,3,,,,,,,,0,,,42,64
112560,note_on,0,0,3,,,,,,,,0,,,54,64
112560,note_on,0,0,3,,,,,,,,0,,,66,64
112560,note_on,24,0,3,,,,,,,,0,,,78,64
112656,note_on,96,0,3,,,,,,,,0,,,66,0
112656,note_on,0,0,3,,,,,,,,0,,,54,0
112656,note_on,0,0,3,,,,,,,,0,,,78,0
112656,note_on,0,0,3,,,,,,,,0,,,42,0
112680,note_on,0,0,3,,,,,,,,0,,,42,64
112680,note_on,0,0,3,,,,,,,,0,,,54,64
112680,note_on,0,0,3,,,,,,,,0,,,66,64
112680,note_on,24,0,3,,,,,,,,0,,,78,64
112752,control_change,72,0,3,,,,,,,,0,64,0,,
112776,note_on,0,0,3,,,,,,,,0,,,54,0
112776,note_on,0,0,3,,,,,,,,0,,,66,0
112776,note_on,0,0,3,,,,,,,,0,,,78,0
112776,note_on,24,0,3,,,,,,,,0,,,42,0
112800,note_on,0,0,3,,,,,,,,0,,,78,64
112800,control_change,24,0,3,,,,,,,,0,64,127,,
112800,note_on,0,0,3,,,,,,,,0,,,42,64
112800,note_on,0,0,3,,,,,,,,0,,,54,64
112800,note_on,0,0,3,,,,,,,,0,,,66,64
112820,set_tempo,992,1,0,,,,,,357569,,,,,,
112845,set_tempo,25,1,0,,,,,,358852,,,,,,
112870,set_tempo,25,1,0,,,,,,360144,,,,,,
112895,set_tempo,25,1,0,,,,,,361446,,,,,,
112896,note_on,96,0,3,,,,,,,,0,,,42,0
112896,note_on,0,0,3,,,,,,,,0,,,66,0
112896,note_on,0,0,3,,,,,,,,0,,,78,0
112896,note_on,0,0,3,,,,,,,,0,,,54,0
112914,set_tempo,19,1,0,,,,,,362757,,,,,,
112920,note_on,0,0,3,,,,,,,,0,,,66,64
112920,note_on,0,0,3,,,,,,,,0,,,54,64
112920,note_on,0,0,3,,,,,,,,0,,,78,64
112920,note_on,24,0,3,,,,,,,,0,,,42,64
112940,set_tempo,26,1,0,,,,,,364078,,,,,,
112965,set_tempo,25,1,0,,,,,,365408,,,,,,
112990,set_tempo,25,1,0,,,,,,366748,,,,,,
112992,note_on,432,0,1,,,,,,,,0,,,76,0
112992,note_on,0,0,2,,,,,,,,0,,,52,0
112992,note_on,432,0,2,,,,,,,,0,,,49,0
112992,note_on,0,0,1,,,,,,,,0,,,70,0
113009,set_tempo,19,1,0,,,,,,368098,,,,,,
113016,note_on,0,0,3,,,,,,,,0,,,54,0
113016,note_on,0,0,3,,,,,,,,0,,,66,0
113016,note_on,96,0,3,,,,,,,,0,,,78,0
113016,note_on,0,0,3,,,,,,,,0,,,42,0
113034,set_tempo,25,1,0,,,,,,369458,,,,,,
113040,note_on,24,0,3,,,,,,,,0,,,66,64
113040,note_on,48,0,2,,,,,,,,0,,,48,80
113040,note_on,0,0,3,,,,,,,,0,,,42,64
113040,note_on,0,0,3,,,,,,,,0,,,54,64
113040,note_on,0,0,2,,,,,,,,0,,,45,80
113040,note_on,0,0,3,,,,,,,,0,,,78,64
113040,note_on,0,0,1,,,,,,,,0,,,69,80
113040,note_on,48,0,1,,,,,,,,0,,,72,80
113060,set_tempo,26,1,0,,,,,,370828,,,,,,
113085,set_tempo,25,1,0,,,,,,372208,,,,,,
113104,set_tempo,19,1,0,,,,,,373599,,,,,,
113129,set_tempo,25,1,0,,,,,,375000,,,,,,
113136,note_on,0,0,3,,,,,,,,0,,,54,0
113136,note_on,0,0,3,,,,,,,,0,,,42,0
113136,note_on,0,0,3,,,,,,,,0,,,66,0
113136,note_on,96,0,3,,,,,,,,0,,,78,0
113154,set_tempo,25,1,0,,,,,,376412,,,,,,
113160,note_on,24,0,3,,,,,,,,0,,,42,64
113160,note_on,0,0,3,,,,,,,,0,,,54,64
113160,note_on,0,0,3,,,,,,,,0,,,66,64
113160,note_on,0,0,3,,,,,,,,0,,,78,64
113180,set_tempo,26,1,0,,,,,,377834,,,,,,
113199,set_tempo,19,1,0,,,,,,379267,,,,,,
113224,set_tempo,25,1,0,,,,,,380711,,,,,,
113232,note_on,192,0,1,,,,,,,,0,,,69,0
113232,note_on,0,0,1,,,,,,,,0,,,72,0
113232,note_on,0,0,2,,,,,,,,0,,,48,0
113232,note_on,192,0,2,,,,,,,,0,,,45,0
113249,set_tempo,25,1,0,,,,,,382166,,,,,,
113256,note_on,0,0,3,,,,,,,,0,,,78,0
113256,note_on,0,0,3,,,,,,,,0,,,42,0
113256,note_on,96,0,3,,,,,,,,0,,,54,0
113256,note_on,0,0,3,,,,,,,,0,,,66,0
113268,set_tempo,19,1,0,,,,,,383632,,,,,,
113280,note_on,48,0,2,,,,,,,,0,,,49,80
113280,note_on,0,0,3,,,,,,,,0,,,66,64
113280,note_on,0,0,3,,,,,,,,0,,,78,64
113280,note_on,0,0,2,,,,,,,,0,,,46,80
113280,note_on,24,0,3,,,,,,,,0,,,42,64
113280,note_on,0,0,1,,,,,,,,0,,,73,80
113280,note_on,0,0,3,,,,,,,,0,,,54,64
113280,note_on,48,0,1,,,,,,,,0,,,70,80
113376,note_on,0,0,3,,,,,,,,0,,,54,0
113376,note_on,0,0,3,,,,,,,,0,,,66,0
113376,note_on,0,0,3,,,,,,,,0,,,42,0
113376,note_on,96,0,3,,,,,,,,0,,,78,0
113400,note_on,24,0,3,,,,,,,,0,,,42,64
113400,note_on,0,0,3,,,,,,,,0,,,78,64
113400,note_on,0,0,3,,,,,,,,0,,,66,64
113400,note_on,0,0,3,,,,,,,,0,,,54,64
113472,note_on,192,0,1,,,,,,,,0,,,73,0
113472,note_on,0,0,1,,,,,,,,0,,,70,0
113472,note_on,192,0,2,,,,,,,,0,,,46,0
113472,note_on,0,0,2,,,,,,,,0,,,49,0
113496,note_on,0,0,3,,,,,,,,0,,,66,0
113496,note_on,0,0,3,,,,,,,,0,,,42,0
113496,note_on,0,0,3,,,,,,,,0,,,54,0
113496,note_on,96,0,3,,,,,,,,0,,,78,0
113520,note_on,0,0,1,,,,,,,,0,,,75,80
113520,note_on,48,0,2,,,,,,,,0,,,48,80
113520,note_on,0,0,2,,,,,,,,0,,,51,80
113520,note_on,24,0,3,,,,,,,,0,,,66,64
113520,note_on,48,0,1,,,,,,,,0,,,69,80
113520,note_on,0,0,3,,,,,,,,0,,,42,64
113520,note_on,0,0,3,,,,,,,,0,,,54,64
113520,note_on,0,0,3,,,,,,,,0,,,78,64
113616,note_on,0,0,3,,,,,,,,0,,,54,0
113616,note_on,0,0,3,,,,,,,,0,,,66,0
113616,note_on,96,0,3,,,,,,,,0,,,78,0
113616,note_on,0,0,3,,,,,,,,0,,,42,0
113640,note_on,0,0,3,,,,,,,,0,,,42,64
113640,note_on,0,0,3,,,,,,,,0,,,66,64
113640,note_on,0,0,3,,,,,,,,0,,,78,64
113640,note_on,24,0,3,,,,,,,,0,,,54,64
113712,note_on,192,0,1,,,,,,,,0,,,75,0
113712,note_on,192,0,2,,,,,,,,0,,,51,0
113712,note_on,0,0,2,,,,,,,,0,,,48,0
113712,note_on,0,0,1,,,,,,,,0,,,69,0
113736,note_on,0,0,3,,,,,,,,0,,,42,0
113736,note_on,96,0,3,,,,,,,,0,,,66,0
113736,note_on,0,0,3,,,,,,,,0,,,54,0
113736,note_on,0,0,3,,,,,,,,0,,,78,0
113760,note_on,0,0,3,,,,,,,,0,,,42,60
113760,note_on,48,0,1,,,,,,,,0,,,70,80
113760,note_on,0,0,1,,,,,,,,0,,,76,80
113760,note_on,0,0,2,,,,,,,,0,,,52,80
113760,note_on,0,0,3,,,,,,,,0,,,54,60
113760,note_on,48,0,2,,,,,,,,0,,,49,80
113760,note_on,24,0,3,,,,,,,,0,,,78,60
113760,note_on,0,0,3,,,,,,,,0,,,66,60
113856,note_on,0,0,3,,,,,,,,0,,,54,0
113856,note_on,0,0,3,,,,,,,,0,,,78,0
113856,note_on,96,0,3,,,,,,,,0,,,42,0
113856,note_on,0,0,3,,,,,,,,0,,,66,0
113880,note_on,24,0,3,,,,,,,,0,,,42,60
113880,note_on,0,0,3,,,,,,,,0,,,66,60
113880,note_on,0,0,3,,,,,,,,0,,,54,60
113976,note_on,0,0,3,,,,,,,,0,,,54,0
113976,note_on,0,0,3,,,,,,,,0,,,42,0
113976,note_on,96,0,3,,,,,,,,0,,,66,0
114000,note_on,24,0,3,,,,,,,,0,,,54,60
114000,note_on,0,0,3,,,,,,,,0,,,42,60
114000,note_on,0,0,3,,,,,,,,0,,,66,60
114096,note_on,0,0,3,,,,,,,,0,,,54,0
114096,note_on,0,0,3,,,,,,,,0,,,42,0
114096,note_on,96,0,3,,,,,,,,0,,,66,0
114120,note_on,24,0,3,,,,,,,,0,,,66,60
114120,note_on,0,0,3,,,,,,,,0,,,54,60
114120,note_on,0,0,3,,,,,,,,0,,,42,60
114216,note_on,0,0,3,,,,,,,,0,,,66,0
114216,note_on,0,0,3,,,,,,,,0,,,42,0
114216,note_on,96,0,3,,,,,,,,0,,,54,0
114240,note_on,0,0,3,,,,,,,,0,,,54,60
114240,note_on,0,0,3,,,,,,,,0,,,66,60
114240,note_on,24,0,3,,,,,,,,0,,,42,60
114336,note_on,0,0,3,,,,,,,,0,,,66,0
114336,note_on,0,0,3,,,,,,,,0,,,42,0
114336,note_on,96,0,3,,,,,,,,0,,,54,0
114360,note_on,24,0,3,,,,,,,,0,,,42,60
114360,note_on,0,0,3,,,,,,,,0,,,66,60
114360,note_on,0,0,3,,,,,,,,0,,,54,60
114456,note_on,0,0,3,,,,,,,,0,,,66,0
114456,note_on,0,0,3,,,,,,,,0,,,42,0
114456,note_on,96,0,3,,,,,,,,0,,,54,0
114480,note_on,0,0,3,,,,,,,,0,,,66,60
114480,note_on,24,0,3,,,,,,,,0,,,42,60
114480,note_on,0,0,3,,,,,,,,0,,,54,60
114528,note_on,768,0,2,,,,,,,,0,,,52,0
114528,note_on,768,0,1,,,,,,,,0,,,76,0
114528,note_on,0,0,1,,,,,,,,0,,,70,0
114528,note_on,0,0,2,,,,,,,,0,,,49,0
114576,note_on,96,0,3,,,,,,,,0,,,54,0
114576,note_on,0,0,3,,,,,,,,0,,,42,0
114576,note_on,0,0,3,,,,,,,,0,,,66,0
114600,note_on,0,0,3,,,,,,,,0,,,66,60
114600,note_on,0,0,3,,,,,,,,0,,,54,60
114600,note_on,24,0,3,,,,,,,,0,,,42,60
114696,note_on,0,0,3,,,,,,,,0,,,42,0
114696,note_on,0,0,3,,,,,,,,0,,,54,0
114696,note_on,96,0,3,,,,,,,,0,,,66,0
114720,note_on,24,0,3,,,,,,,,0,,,54,60
114720,note_on,0,0,3,,,,,,,,0,,,66,60
114720,note_on,0,0,3,,,,,,,,0,,,42,60
114722,set_tempo,1454,1,0,,,,,,389610,,,,,,
114785,set_tempo,63,1,0,,,,,,391134,,,,,,
114816,note_on,96,0,3,,,,,,,,0,,,66,0
114816,note_on,0,0,3,,,,,,,,0,,,54,0
114816,note_on,0,0,3,,,,,,,,0,,,42,0
114840,note_on,0,0,3,,,,,,,,0,,,42,60
114840,note_on,24,0,3,,,,,,,,0,,,66,60
114840,note_on,0,0,3,,,,,,,,0,,,54,60
114842,set_tempo,57,1,0,,,,,,392670,,,,,,
114899,set_tempo,57,1,0,,,,,,394218,,,,,,
114936,note_on,96,0,3,,,,,,,,0,,,42,0
114936,note_on,0,0,3,,,,,,,,0,,,54,0
114936,note_on,0,0,3,,,,,,,,0,,,66,0
114960,note_on,24,0,3,,,,,,,,0,,,42,60
114960,note_on,0,0,3,,,,,,,,0,,,54,60
114960,note_on,0,0,3,,,,,,,,0,,,66,60
114962,set_tempo,63,1,0,,,,,,395778,,,,,,
115019,set_tempo,57,1,0,,,,,,397351,,,,,,
115056,note_on,0,0,3,,,,,,,,0,,,54,0
115056,note_on,0,0,3,,,,,,,,0,,,42,0
115056,note_on,96,0,3,,,,,,,,0,,,66,0
115076,set_tempo,57,1,0,,,,,,398936,,,,,,
115080,note_on,0,0,3,,,,,,,,0,,,54,60
115080,note_on,24,0,3,,,,,,,,0,,,42,60
115080,note_on,0,0,3,,,,,,,,0,,,66,60
115139,set_tempo,63,1,0,,,,,,400534,,,,,,
115176,note_on,0,0,3,,,,,,,,0,,,66,0
115176,note_on,96,0,3,,,,,,,,0,,,54,0
115176,note_on,0,0,3,,,,,,,,0,,,42,0
115196,set_tempo,57,1,0,,,,,,402145,,,,,,
115200,note_on,0,0,3,,,,,,,,0,,,66,60
115200,note_on,0,0,3,,,,,,,,0,,,54,60
115200,note_on,24,0,3,,,,,,,,0,,,42,60
115236,control_change,36,0,3,,,,,,,,0,64,0,,
115252,set_tempo,56,1,0,,,,,,403769,,,,,,
115296,note_on,60,0,3,,,,,,,,0,,,54,0
115296,note_on,0,0,3,,,,,,,,0,,,66,0
115296,note_on,0,0,3,,,,,,,,0,,,42,0
115316,set_tempo,64,1,0,,,,,,405405,,,,,,
115320,note_on,24,0,3,,,,,,,,0,,,54,60
115320,note_on,0,0,3,,,,,,,,0,,,42,60
115320,note_on,0,0,3,,,,,,,,0,,,66,60
115372,set_tempo,56,1,0,,,,,,407056,,,,,,
115416,note_on,96,0,3,,,,,,,,0,,,66,0
115416,note_on,0,0,3,,,,,,,,0,,,54,0
115416,note_on,0,0,3,,,,,,,,0,,,42,0
115429,set_tempo,57,1,0,,,,,,408719,,,,,,
115440,note_on,0,0,3,,,,,,,,0,,,41,80
115440,note_on,0,0,3,,,,,,,,0,,,65,80
115440,note_on,24,0,3,,,,,,,,0,,,53,80
115492,set_tempo,63,1,0,,,,,,410397,,,,,,
115536,note_on,96,0,3,,,,,,,,0,,,41,0
115536,note_on,0,0,3,,,,,,,,0,,,65,0
115536,note_on,0,0,3,,,,,,,,0,,,53,0
115549,set_tempo,57,1,0,,,,,,412088,,,,,,
115560,note_on,24,0,3,,,,,,,,0,,,64,80
115560,note_on,0,0,3,,,,,,,,0,,,40,80
115560,note_on,0,0,3,,,,,,,,0,,,52,80
115606,set_tempo,57,1,0,,,,,,413793,,,,,,
115656,note_on,96,0,3,,,,,,,,0,,,40,0
115656,note_on,0,0,3,,,,,,,,0,,,64,0
115656,note_on,0,0,3,,,,,,,,0,,,52,0
115663,set_tempo,57,1,0,,,,,,415512,,,,,,
115680,note_on,1152,0,1,,,,,,,,0,,,63,64
115680,note_on,0,0,3,,,,,,,,0,,,39,60
115680,note_on,0,0,3,,,,,,,,0,,,51,60
115680,control_change,24,0,3,,,,,,,,0,64,127,,
115776,note_on,0,0,3,,,,,,,,0,,,51,0
115776,note_on,96,0,3,,,,,,,,0,,,39,0
115800,note_on,0,0,3,,,,,,,,0,,,51,60
115800,note_on,24,0,3,,,,,,,,0,,,39,60
115896,note_on,0,0,3,,,,,,,,0,,,39,0
115896,note_on,96,0,3,,,,,,,,0,,,51,0
115920,note_on,0,0,3,,,,,,,,0,,,39,60
115920,note_on,24,0,3,,,,,,,,0,,,51,60
116016,note_on,0,0,3,,,,,,,,0,,,51,0
116016,note_on,96,0,3,,,,,,,,0,,,39,0
116040,note_on,0,0,3,,,,,,,,0,,,39,60
116040,note_on,24,0,3,,,,,,,,0,,,51,60
116064,note_on,384,0,1,,,,,,,,0,,,63,0
116136,note_on,0,0,3,,,,,,,,0,,,51,0
116136,note_on,96,0,3,,,,,,,,0,,,39,0
116160,note_on,0,0,1,,,,,,,,0,,,72,64
116160,note_on,96,0,1,,,,,,,,0,,,57,64
116160,note_on,24,0,3,,,,,,,,0,,,39,60
116160,note_on,0,0,1,,,,,,,,0,,,66,64
116160,note_on,0,0,1,,,,,,,,0,,,63,64
116160,note_on,0,0,3,,,,,,,,0,,,51,60
116256,note_on,96,0,3,,,,,,,,0,,,51,0
116256,note_on,0,0,3,,,,,,,,0,,,39,0
116280,note_on,24,0,3,,,,,,,,0,,,39,60
116280,note_on,0,0,3,,,,,,,,0,,,51,60
116376,note_on,0,0,3,,,,,,,,0,,,39,0
116376,note_on,96,0,3,,,,,,,,0,,,51,0
116400,note_on,24,0,3,,,,,,,,0,,,51,60
116400,note_on,0,0,3,,,,,,,,0,,,39,60
116496,note_on,0,0,3,,,,,,,,0,,,51,0
116496,note_on,96,0,3,,,,,,,,0,,,39,0
116520,note_on,0,0,3,,,,,,,,0,,,51,60
116520,note_on,24,0,3,,,,,,,,0,,,39,60
116544,note_on,0,0,1,,,,,,,,0,,,72,0
116544,note_on,384,0,1,,,,,,,,0,,,66,0
116544,note_on,0,0,1,,,,,,,,0,,,63,0
116544,note_on,0,0,1,,,,,,,,0,,,57,0
116616,note_on,0,0,3,,,,,,,,0,,,39,0
116616,note_on,96,0,3,,,,,,,,0,,,51,0
116640,note_on,96,0,1,,,,,,,,0,,,73,64
116640,note_on,0,0,1,,,,,,,,0,,,63,64
116640,note_on,24,0,3,,,,,,,,0,,,39,60
116640,note_on,0,0,1,,,,,,,,0,,,67,64
116640,note_on,0,0,3,,,,,,,,0,,,51,60
116640,note_on,0,0,1,,,,,,,,0,,,58,64
116736,note_on,0,0,3,,,,,,,,0,,,39,0
116736,note_on,96,0,3,,,,,,,,0,,,51,0
116760,note_on,0,0,3,,,,,,,,0,,,39,60
116760,note_on,24,0,3,,,,,,,,0,,,51,60
116856,note_on,96,0,3,,,,,,,,0,,,39,0
116856,note_on,0,0,3,,,,,,,,0,,,51,0
116880,note_on,24,0,3,,,,,,,,0,,,39,60
116880,note_on,0,0,3,,,,,,,,0,,,51,60
116976,note_on,0,0,3,,,,,,,,0,,,39,0
116976,note_on,96,0,3,,,,,,,,0,,,51,0
117000,note_on,24,0,3,,,,,,,,0,,,39,60
117000,note_on,0,0,3,,,,,,,,0,,,51,60
117024,note_on,0,0,1,,,,,,,,0,,,63,0
117024,note_on,0,0,1,,,,,,,,0,,,67,0
117024,note_on,384,0,1,,,,,,,,0,,,58,0
117024,note_on,0,0,1,,,,,,,,0,,,73,0
117096,note_on,96,0,3,,,,,,,,0,,,51,0
117096,note_on,0,0,3,,,,,,,,0,,,39,0
117120,note_on,0,0,1,,,,,,,,0,,,60,64
117120,note_on,0,0,3,,,,,,,,0,,,51,60
117120,note_on,96,0,1,,,,,,,,0,,,69,64
117120,note_on,0,0,1,,,,,,,,0,,,63,64
117120,note_on,24,0,3,,,,,,,,0,,,39,60
117120,note_on,0,0,1,,,,,,,,0,,,54,64
117216,note_on,96,0,3,,,,,,,,0,,,51,0
117216,note_on,0,0,3,,,,,,,,0,,,39,0
117240,note_on,0,0,3,,,,,,,,0,,,39,60
117240,note_on,24,0,3,,,,,,,,0,,,51,60
117336,note_on,96,0,3,,,,,,,,0,,,39,0
117336,note_on,0,0,3,,,,,,,,0,,,51,0
117360,note_on,0,0,3,,,,,,,,0,,,39,60
117360,note_on,24,0,3,,,,,,,,0,,,51,60
117456,note_on,0,0,3,,,,,,,,0,,,51,0
117456,note_on,96,0,3,,,,,,,,0,,,39,0
117480,note_on,0,0,3,,,,,,,,0,,,51,60
117480,note_on,24,0,3,,,,,,,,0,,,39,60
117492,control_change,12,0,3,,,,,,,,0,64,0,,
117504,note_on,0,0,1,,,,,,,,0,,,69,0
117504,note_on,0,0,1,,,,,,,,0,,,60,0
117504,note_on,0,0,1,,,,,,,,0,,,54,0
117504,note_on,384,0,1,,,,,,,,0,,,63,0
117576,note_on,84,0,3,,,,,,,,0,,,51,0
117576,note_on,0,0,3,,,,,,,,0,,,39,0
117600,note_on,0,0,3,,,,,,,,0,,,51,56
117600,note_on,0,0,3,,,,,,,,0,,,39,56
117600,note_on,0,0,1,,,,,,,,0,,,61,64
117600,control_change,24,0,3,,,,,,,,0,64,127,,
117600,note_on,0,0,1,,,,,,,,0,,,55,64
117600,note_on,96,0,1,,,,,,,,0,,,70,64
117600,note_on,0,0,1,,,,,,,,0,,,63,64
117696,note_on,96,0,3,,,,,,,,0,,,51,0
117696,note_on,0,0,3,,,,,,,,0,,,39,0
117720,note_on,0,0,3,,,,,,,,0,,,51,56
117720,note_on,24,0,3,,,,,,,,0,,,39,56
117816,note_on,96,0,3,,,,,,,,0,,,51,0
117816,note_on,0,0,3,,,,,,,,0,,,39,0
117840,note_on,0,0,3,,,,,,,,0,,,39,56
117840,note_on,24,0,3,,,,,,,,0,,,51,56
117888,note_on,0,0,1,,,,,,,,0,,,70,0
117888,note_on,288,0,1,,,,,,,,0,,,61,0
117888,note_on,0,0,1,,,,,,,,0,,,55,0
117888,note_on,0,0,1,,,,,,,,0,,,63,0
117936,note_on,0,0,3,,,,,,,,0,,,51,0
117936,note_on,96,0,3,,,,,,,,0,,,39,0
117960,note_on,0,0,1,,,,,,,,0,,,72,73
117960,note_on,0,0,3,,,,,,,,0,,,51,56
117960,note_on,0,0,1,,,,,,,,0,,,57,73
117960,note_on,24,0,3,,,,,,,,0,,,39,56
117960,note_on,72,0,1,,,,,,,,0,,,66,73
117960,note_on,0,0,1,,,,,,,,0,,,63,73
118056,note_on,0,0,3,,,,,,,,0,,,39,0
118056,note_on,96,0,3,,,,,,,,0,,,51,0
118080,note_on,24,0,3,,,,,,,,0,,,39,56
118080,note_on,0,0,3,,,,,,,,0,,,51,56
118152,note_on,192,0,1,,,,,,,,0,,,72,0
118152,note_on,0,0,1,,,,,,,,0,,,57,0
118152,note_on,0,0,1,,,,,,,,0,,,63,0
118152,note_on,0,0,1,,,,,,,,0,,,66,0
118176,note_on,0,0,3,,,,,,,,0,,,39,0
118176,note_on,96,0,3,,,,,,,,0,,,51,0
118200,note_on,0,0,1,,,,,,,,0,,,67,80
118200,note_on,0,0,1,,,,,,,,0,,,58,80
118200,note_on,24,0,3,,,,,,,,0,,,39,56
118200,note_on,0,0,3,,,,,,,,0,,,51,56
118200,note_on,48,0,1,,,,,,,,0,,,63,80
118200,note_on,0,0,1,,,,,,,,0,,,73,80
118296,note_on,0,0,3,,,,,,,,0,,,39,0
118296,note_on,96,0,3,,,,,,,,0,,,51,0
118320,note_on,0,0,3,,,,,,,,0,,,39,56
118320,note_on,24,0,3,,,,,,,,0,,,51,56
118416,note_on,0,0,3,,,,,,,,0,,,51,0
118416,note_on,96,0,3,,,,,,,,0,,,39,0
118440,note_on,24,0,3,,,,,,,,0,,,39,56
118440,note_on,0,0,3,,,,,,,,0,,,51,56
118536,note_on,96,0,3,,,,,,,,0,,,51,0
118536,note_on,0,0,3,,,,,,,,0,,,39,0
118560,note_on,24,0,3,,,,,,,,0,,,51,56
118560,note_on,0,0,3,,,,,,,,0,,,39,56
118656,note_on,0,0,3,,,,,,,,0,,,51,0
118656,note_on,96,0,3,,,,,,,,0,,,39,0
118680,note_on,24,0,3,,,,,,,,0,,,39,56
118680,note_on,0,0,3,,,,,,,,0,,,51,56
118776,note_on,96,0,3,,,,,,,,0,,,51,0
118776,note_on,0,0,3,,,,,,,,0,,,39,0
118800,note_on,0,0,3,,,,,,,,0,,,51,56
118800,note_on,24,0,3,,,,,,,,0,,,39,56
118896,note_on,96,0,3,,,,,,,,0,,,51,0
118896,note_on,0,0,3,,,,,,,,0,,,39,0
118920,note_on,24,0,3,,,,,,,,0,,,39,56
118920,note_on,0,0,3,,,,,,,,0,,,51,56
119016,note_on,0,0,3,,,,,,,,0,,,39,0
119016,note_on,96,0,3,,,,,,,,0,,,51,0
119040,note_on,24,0,3,,,,,,,,0,,,51,56
119040,note_on,0,0,3,,,,,,,,0,,,39,56
119136,note_on,0,0,3,,,,,,,,0,,,51,0
119136,note_on,96,0,3,,,,,,,,0,,,39,0
119160,note_on,0,0,3,,,,,,,,0,,,51,56
119160,note_on,24,0,3,,,,,,,,0,,,39,56
119235,note_on,0,0,1,,,,,,,,0,,,73,0
119235,note_on,0,0,1,,,,,,,,0,,,63,0
119235,note_on,0,0,1,,,,,,,,0,,,67,0
119235,note_on,1035,0,1,,,,,,,,0,,,58,0
119256,note_on,96,0,3,,,,,,,,0,,,51,0
119256,note_on,0,0,3,,,,,,,,0,,,39,0
119280,note_on,0,0,1,,,,,,,,0,,,63,64
119280,note_on,24,0,3,,,,,,,,0,,,51,56
119280,note_on,0,0,1,,,,,,,,0,,,66,64
119280,note_on,0,0,3,,,,,,,,0,,,39,56
119280,note_on,45,0,1,,,,,,,,0,,,72,64
119280,note_on,0,0,1,,,,,,,,0,,,57,64
119376,note_on,96,0,3,,,,,,,,0,,,39,0
119376,note_on,0,0,3,,,,,,,,0,,,51,0
119400,note_on,24,0,3,,,,,,,,0,,,51,56
119400,note_on,0,0,3,,,,,,,,0,,,39,56
119496,note_on,0,0,3,,,,,,,,0,,,51,0
119496,note_on,96,0,3,,,,,,,,0,,,39,0
119509,set_tempo,3846,1,0,,,,,,418994,,,,,,
119520,note_on,24,0,3,,,,,,,,0,,,39,56
119520,control_change,0,0,3,,,,,,,,0,64,0,,
119520,note_on,0,0,3,,,,,,,,0,,,51,56
119598,set_tempo,89,1,0,,,,,,420757,,,,,,
119616,note_on,96,0,3,,,,,,,,0,,,51,0
119616,note_on,0,0,3,,,,,,,,0,,,39,0
119628,control_change,12,0,3,,,,,,,,0,64,127,,
119640,note_on,12,0,3,,,,,,,,0,,,51,56
119640,note_on,0,0,3,,,,,,,,0,,,39,56
119686,set_tempo,88,1,0,,,,,,422535,,,,,,
119712,note_on,0,0,1,,,,,,,,0,,,72,0
119712,note_on,0,0,1,,,,,,,,0,,,66,0
119712,note_on,0,0,1,,,,,,,,0,,,63,0
119712,note_on,432,0,1,,,,,,,,0,,,57,0
119736,note_on,96,0,3,,,,,,,,0,,,39,0
119736,note_on,0,0,3,,,,,,,,0,,,51,0
119760,note_on,0,0,1,,,,,,,,0,,,63,80
119760,note_on,0,0,1,,,,,,,,0,,,56,80
119760,note_on,0,0,1,,,,,,,,0,,,65,80
119760,note_on,0,0,3,,,,,,,,0,,,51,56
119760,note_on,48,0,1,,,,,,,,0,,,71,80
119760,note_on,24,0,3,,,,,,,,0,,,39,56
119774,set_tempo,88,1,0,,,,,,424328,,,,,,
119856,note_on,0,0,3,,,,,,,,0,,,39,0
119856,note_on,96,0,3,,,,,,,,0,,,51,0
119863,set_tempo,89,1,0,,,,,,426136,,,,,,
119880,note_on,24,0,3,,,,,,,,0,,,39,56
119880,note_on,0,0,3,,,,,,,,0,,,51,56
119945,set_tempo,82,1,0,,,,,,427960,,,,,,
119976,note_on,96,0,3,,,,,,,,0,,,51,0
119976,note_on,0,0,3,,,,,,,,0,,,39,0
120000,note_on,24,0,3,,,,,,,,0,,,51,56
120000,note_on,0,0,3,,,,,,,,0,,,39,56
120033,set_tempo,88,1,0,,,,,,429799,,,,,,
120096,note_on,0,0,3,,,,,,,,0,,,51,0
120096,note_on,96,0,3,,,,,,,,0,,,39,0
120120,note_on,0,0,3,,,,,,,,0,,,39,56
120120,note_on,24,0,3,,,,,,,,0,,,51,56
120122,set_tempo,89,1,0,,,,,,431655,,,,,,
120144,note_on,0,0,1,,,,,,,,0,,,63,0
120144,note_on,384,0,1,,,,,,,,0,,,65,0
120144,note_on,0,0,1,,,,,,,,0,,,56,0
120144,note_on,0,0,1,,,,,,,,0,,,71,0
120210,set_tempo,88,1,0,,,,,,433526,,,,,,
120216,note_on,96,0,3,,,,,,,,0,,,39,0
120216,note_on,0,0,3,,,,,,,,0,,,51,0
120240,note_on,0,0,1,,,,,,,,0,,,68,80
120240,note_on,0,0,1,,,,,,,,0,,,63,80
120240,note_on,0,0,1,,,,,,,,0,,,53,80
120240,note_on,96,0,1,,,,,,,,0,,,59,80
120240,note_on,24,0,3,,,,,,,,0,,,39,56
120240,note_on,0,0,3,,,,,,,,0,,,51,56
120292,set_tempo,82,1,0,,,,,,435414,,,,,,
120336,note_on,0,0,3,,,,,,,,0,,,39,0
120336,note_on,96,0,3,,,,,,,,0,,,51,0
120360,note_on,0,0,3,,,,,,,,0,,,51,56
120360,note_on,24,0,3,,,,,,,,0,,,39,56
120381,set_tempo,89,1,0,,,,,,437318,,,,,,
120456,note_on,96,0,3,,,,,,,,0,,,51,0
120456,note_on,0,0,3,,,,,,,,0,,,39,0
120469,set_tempo,88,1,0,,,,,,439239,,,,,,
120480,note_on,24,0,3,,,,,,,,0,,,39,56
120480,note_on,0,0,3,,,,,,,,0,,,51,56
120558,set_tempo,89,1,0,,,,,,441176,,,,,,
120576,note_on,0,0,3,,,,,,,,0,,,39,0
120576,note_on,96,0,3,,,,,,,,0,,,51,0
120600,note_on,24,0,3,,,,,,,,0,,,51,56
120600,note_on,0,0,3,,,,,,,,0,,,39,56
120646,set_tempo,88,1,0,,,,,,443131,,,,,,
120672,note_on,0,0,1,,,,,,,,0,,,59,0
120672,note_on,0,0,1,,,,,,,,0,,,53,0
120672,note_on,432,0,1,,,,,,,,0,,,63,0
120672,note_on,0,0,1,,,,,,,,0,,,68,0
120696,note_on,0,0,3,,,,,,,,0,,,51,0
120696,note_on,96,0,3,,,,,,,,0,,,39,0
120720,note_on,0,0,1,,,,,,,,0,,,53,80
120720,note_on,0,0,1,,,,,,,,0,,,56,80
120720,note_on,0,0,3,,,,,,,,0,,,39,56
120720,note_on,24,0,3,,,,,,,,0,,,51,56
120720,note_on,48,0,1,,,,,,,,0,,,65,80
120728,set_tempo,82,1,0,,,,,,445104,,,,,,
120728,note_on,6200,0,2,,,,,,,,0,,,47,90
120816,set_tempo,88,1,0,,,,,,447094,,,,,,
120816,note_on,0,0,3,,,,,,,,0,,,51,0
120816,note_on,96,0,3,,,,,,,,0,,,39,0
120840,note_on,0,0,3,,,,,,,,0,,,51,56
120840,note_on,24,0,3,,,,,,,,0,,,39,56
120905,set_tempo,89,1,0,,,,,,449102,,,,,,
120912,note_on,192,0,1,,,,,,,,0,,,56,0
120912,note_on,0,0,1,,,,,,,,0,,,65,0
120912,note_on,0,0,1,,,,,,,,0,,,53,0
120936,note_on,96,0,3,,,,,,,,0,,,51,0
120936,note_on,0,0,3,,,,,,,,0,,,39,0
120960,note_on,48,0,1,,,,,,,,0,,,56,80
120960,note_on,232,0,2,,,,,,,,0,,,47,90
120960,note_on,0,0,1,,,,,,,,0,,,63,80
120960,note_on,0,0,3,,,,,,,,0,,,51,56
120960,note_on,24,0,3,,,,,,,,0,,,39,56
120960,note_on,0,0,1,,,,,,,,0,,,53,80
120968,note_on,8,0,2,,,,,,,,0,,,47,0
120993,set_tempo,88,1,0,,,,,,451128,,,,,,
121056,note_on,96,0,3,,,,,,,,0,,,51,0
121056,note_on,0,0,3,,,,,,,,0,,,39,0
121075,set_tempo,82,1,0,,,,,,453172,,,,,,
121080,note_on,24,0,3,,,,,,,,0,,,51,56
121080,note_on,0,0,3,,,,,,,,0,,,39,56
121152,note_on,0,0,1,,,,,,,,0,,,56,0
121152,note_on,0,0,1,,,,,,,,0,,,53,0
121152,note_on,192,0,1,,,,,,,,0,,,63,0
121164,set_tempo,89,1,0,,,,,,455235,,,,,,
121176,note_on,96,0,3,,,,,,,,0,,,39,0
121176,note_on,0,0,3,,,,,,,,0,,,51,0
121200,note_on,232,0,2,,,,,,,,0,,,47,0
121200,note_on,24,0,3,,,,,,,,0,,,39,56
121200,note_on,0,0,1,,,,,,,,0,,,59,80
121200,note_on,0,0,2,,,,,,,,0,,,47,90
121200,note_on,48,0,1,,,,,,,,0,,,56,80
121200,note_on,0,0,3,,,,,,,,0,,,51,56
121200,note_on,0,0,1,,,,,,,,0,,,53,80
121252,set_tempo,88,1,0,,,,,,457317,,,,,,
121296,note_on,0,0,3,,,,,,,,0,,,39,0
121296,note_on,96,0,3,,,,,,,,0,,,51,0
121320,note_on,0,0,3,,,,,,,,0,,,39,56
121320,note_on,24,0,3,,,,,,,,0,,,51,56
121332,control_change,12,0,3,,,,,,,,0,64,0,,
121341,set_tempo,89,1,0,,,,,,459418,,,,,,
121392,note_on,0,0,1,,,,,,,,0,,,56,0
121392,note_on,0,0,1,,,,,,,,0,,,53,0
121392,note_on,192,0,1,,,,,,,,0,,,59,0
121416,note_on,84,0,3,,,,,,,,0,,,39,0
121416,note_on,0,0,3,,,,,,,,0,,,51,0
121423,set_tempo,82,1,0,,,,,,461538,,,,,,
121440,note_on,24,0,3,,,,,,,,0,,,51,56
121440,note_on,48,0,1,,,,,,,,0,,,55,80
121440,control_change,0,0,3,,,,,,,,0,64,127,,
121440,note_on,0,0,3,,,,,,,,0,,,39,56
121440,note_on,240,0,2,,,,,,,,0,,,47,0
121440,note_on,0,0,1,,,,,,,,0,,,58,80
121453,note_on,13,0,2,,,,,,,,0,,,46,90
121536,note_on,0,0,3,,,,,,,,0,,,51,0
121536,note_on,96,0,3,,,,,,,,0,,,39,0
121560,note_on,24,0,3,,,,,,,,0,,,51,56
121560,note_on,0,0,3,,,,,,,,0,,,39,56
121656,note_on,96,0,3,,,,,,,,0,,,39,0
121656,note_on,0,0,3,,,,,,,,0,,,51,0
121680,note_on,0,0,3,,,,,,,,0,,,51,56
121680,note_on,24,0,3,,,,,,,,0,,,39,56
121776,note_on,0,0,3,,,,,,,,0,,,39,0
121776,note_on,96,0,3,,,,,,,,0,,,51,0
121800,note_on,0,0,3,,,,,,,,0,,,39,56
121800,note_on,24,0,3,,,,,,,,0,,,51,56
121896,note_on,0,0,3,,,,,,,,0,,,51,0
121896,note_on,96,0,3,,,,,,,,0,,,39,0
121920,note_on,0,0,3,,,,,,,,0,,,39,56
121920,note_on,24,0,3,,,,,,,,0,,,51,56
122016,note_on,96,0,3,,,,,,,,0,,,39,0
122016,note_on,0,0,3,,,,,,,,0,,,51,0
122040,note_on,0,0,3,,,,,,,,0,,,51,56
122040,note_on,24,0,3,,,,,,,,0,,,39,56
122136,note_on,96,0,3,,,,,,,,0,,,51,0
122136,note_on,0,0,3,,,,,,,,0,,,39,0
122160,note_on,24,0,3,,,,,,,,0,,,51,56
122160,note_on,0,0,3,,,,,,,,0,,,39,56
122208,note_on,768,0,1,,,,,,,,0,,,58,0
122208,note_on,0,0,1,,,,,,,,0,,,55,0
122221,note_on,768,0,2,,,,,,,,0,,,46,0
122256,note_on,96,0,3,,,,,,,,0,,,39,0
122256,note_on,0,0,3,,,,,,,,0,,,51,0
122280,note_on,24,0,3,,,,,,,,0,,,51,56
122280,note_on,0,0,3,,,,,,,,0,,,39,56
122376,note_on,0,0,3,,,,,,,,0,,,51,0
122376,note_on,96,0,3,,,,,,,,0,,,39,0
122400,note_on,0,0,3,,,,,,,,0,,,39,45
122400,note_on,0,0,1,,,,,,,,0,,,58,80
122400,note_on,192,0,1,,,,,,,,0,,,55,80
122400,note_on,24,0,3,,,,,,,,0,,,51,45
122400,note_on,179,0,2,,,,,,,,0,,,46,80
122496,note_on,96,0,3,,,,,,,,0,,,39,0
122496,note_on,0,0,3,,,,,,,,0,,,51,0
122520,note_on,0,0,3,,,,,,,,0,,,51,56
122520,note_on,24,0,3,,,,,,,,0,,,39,56
122616,note_on,0,0,3,,,,,,,,0,,,39,0
122616,note_on,96,0,3,,,,,,,,0,,,51,0
122640,note_on,0,0,3,,,,,,,,0,,,39,56
122640,note_on,24,0,3,,,,,,,,0,,,51,56
122736,note_on,0,0,3,,,,,,,,0,,,51,0
122736,note_on,96,0,3,,,,,,,,0,,,39,0
122760,note_on,24,0,3,,,,,,,,0,,,39,56
122760,note_on,0,0,3,,,,,,,,0,,,51,56
122784,note_on,384,0,2,,,,,,,,0,,,46,0
122784,note_on,384,0,1,,,,,,,,0,,,58,0
122784,note_on,0,0,1,,,,,,,,0,,,55,0
122856,note_on,96,0,3,,,,,,,,0,,,51,0
122856,note_on,0,0,3,,,,,,,,0,,,39,0
122880,note_on,0,0,1,,,,,,,,0,,,55,80
122880,note_on,24,0,3,,,,,,,,0,,,51,45
122880,note_on,96,0,1,,,,,,,,0,,,58,80
122880,note_on,96,0,2,,,,,,,,0,,,46,80
122880,note_on,0,0,3,,,,,,,,0,,,39,45
122976,note_on,96,0,3,,,,,,,,0,,,39,0
122976,note_on,0,0,3,,,,,,,,0,,,51,0
123000,note_on,0,0,3,,,,,,,,0,,,39,56
123000,note_on,24,0,3,,,,,,,,0,,,51,56
123096,note_on,0,0,3,,,,,,,,0,,,51,0
123096,note_on,96,0,3,,,,,,,,0,,,39,0
123120,note_on,24,0,3,,,,,,,,0,,,39,56
123120,note_on,0,0,3,,,,,,,,0,,,51,56
123216,note_on,0,0,3,,,,,,,,0,,,39,0
123216,note_on,96,0,3,,,,,,,,0,,,51,0
123240,note_on,0,0,3,,,,,,,,0,,,39,56
123240,note_on,24,0,3,,,,,,,,0,,,51,56
123264,note_on,0,0,1,,,,,,,,0,,,58,0
123264,note_on,384,0,1,,,,,,,,0,,,55,0
123324,note_on,444,0,2,,,,,,,,0,,,46,0
123330,note_on,6,0,2,,,,,,,,0,,,39,80
123336,note_on,0,0,3,,,,,,,,0,,,51,0
123336,note_on,96,0,3,,,,,,,,0,,,39,0
123348,control_change,12,0,3,,,,,,,,0,64,0,,
123360,note_on,30,0,2,,,,,,,,0,,,46,80
123361,set_tempo,1938,1,0,,,,,,503356,,,,,,
123390,note_on,30,0,2,,,,,,,,0,,,51,80
123420,note_on,30,0,2,,,,,,,,0,,,55,80
123450,note_on,30,0,2,,,,,,,,0,,,58,80
124327,set_tempo,966,1,0,,,,,,500835,,,,,,
124512,note_on,0,0,2,,,,,,,,0,,,51,0
124512,note_on,0,0,2,,,,,,,,0,,,46,0
124512,note_on,0,0,2,,,,,,,,0,,,39,0
124512,note_on,0,0,2,,,,,,,,0,,,55,0
124512,note_on,1062,0,2,,,,,,,,0,,,58,0
124980,note_on,468,0,2,,,,,,,,0,,,46,80
125028,note_on,48,0,2,,,,,,,,0,,,46,0
125028,set_tempo,701,1,0,,,,,,556586,,,,,,
125040,note_on,12,0,2,,,,,,,,0,,,47,80
125136,note_on,96,0,2,,,,,,,,0,,,47,0
125220,note_on,84,0,2,,,,,,,,0,,,48,80
125268,note_on,48,0,2,,,,,,,,0,,,48,0
125280,note_on,12,0,2,,,,,,,,0,,,49,80
125520,note_on,0,0,3,,,,,,,,0,,,66,64
125520,note_on,2172,0,3,,,,,,,,0,,,37,64
125520,note_on,0,0,3,,,,,,,,0,,,58,64
125520,note_on,0,0,3,,,,,,,,0,,,70,64
125616,note_on,96,0,3,,,,,,,,0,,,70,0
125616,note_on,0,0,3,,,,,,,,0,,,66,0
125616,note_on,0,0,3,,,,,,,,0,,,58,0
125616,note_on,0,0,3,,,,,,,,0,,,37,0
125664,note_on,384,0,2,,,,,,,,0,,,49,0
125691,set_tempo,663,1,0,,,,,,559701,,,,,,
125760,note_on,96,0,2,,,,,,,,0,,,49,80
126000,note_on,384,0,3,,,,,,,,0,,,65,64
126000,note_on,0,0,3,,,,,,,,0,,,68,64
126000,note_on,0,0,3,,,,,,,,0,,,59,64
126000,note_on,0,0,3,,,,,,,,0,,,37,64
126096,note_on,96,0,3,,,,,,,,0,,,68,0
126096,note_on,0,0,3,,,,,,,,0,,,65,0
126096,note_on,0,0,3,,,,,,,,0,,,59,0
126096,note_on,0,0,3,,,,,,,,0,,,37,0
126144,note_on,384,0,2,,,,,,,,0,,,49,0
126240,note_on,96,0,2,,,,,,,,0,,,49,80
126480,note_on,384,0,3,,,,,,,,0,,,70,64
126480,note_on,0,0,3,,,,,,,,0,,,58,64
126480,note_on,0,0,3,,,,,,,,0,,,66,64
126480,note_on,0,0,3,,,,,,,,0,,,42,64
126576,note_on,0,0,3,,,,,,,,0,,,70,0
126576,note_on,96,0,3,,,,,,,,0,,,42,0
126576,note_on,0,0,3,,,,,,,,0,,,58,0
126576,note_on,0,0,3,,,,,,,,0,,,66,0
126816,note_on,576,0,2,,,,,,,,0,,,49,0
126900,note_on,84,0,2,,,,,,,,0,,,49,80
126948,note_on,48,0,2,,,,,,,,0,,,49,0
126960,note_on,12,0,2,,,,,,,,0,,,48,80
127056,note_on,96,0,2,,,,,,,,0,,,48,0
127140,note_on,84,0,2,,,,,,,,0,,,47,80
127188,note_on,48,0,2,,,,,,,,0,,,47,0
127200,note_on,12,0,2,,,,,,,,0,,,46,80
127440,note_on,864,0,3,,,,,,,,0,,,67,64
127440,note_on,0,0,3,,,,,,,,0,,,70,64
127440,note_on,0,0,3,,,,,,,,0,,,63,64
127440,note_on,0,0,3,,,,,,,,0,,,58,64
127440,note_on,0,0,3,,,,,,,,0,,,34,64
127536,note_on,96,0,3,,,,,,,,0,,,63,0
127536,note_on,0,0,3,,,,,,,,0,,,58,0
127536,note_on,0,0,3,,,,,,,,0,,,70,0
127536,note_on,0,0,3,,,,,,,,0,,,67,0
127536,note_on,0,0,3,,,,,,,,0,,,34,0
127584,note_on,384,0,2,,,,,,,,0,,,46,0
127680,note_on,96,0,2,,,,,,,,0,,,46,80
127920,note_on,384,0,3,,,,,,,,0,,,70,64
127920,note_on,0,0,3,,,,,,,,0,,,68,64
127920,note_on,0,0,3,,,,,,,,0,,,58,64
127920,note_on,0,0,3,,,,,,,,0,,,62,64
127920,note_on,0,0,3,,,,,,,,0,,,34,64
128016,note_on,96,0,3,,,,,,,,0,,,68,0
128016,note_on,0,0,3,,,,,,,,0,,,70,0
128016,note_on,0,0,3,,,,,,,,0,,,58,0
128016,note_on,0,0,3,,,,,,,,0,,,34,0
128016,note_on,0,0,3,,,,,,,,0,,,62,0
128064,note_on,384,0,2,,,,,,,,0,,,46,0
128160,note_on,96,0,2,,,,,,,,0,,,46,88
128400,note_on,0,0,3,,,,,,,,0,,,63,64
128400,note_on,0,0,3,,,,,,,,0,,,58,64
128400,note_on,0,0,3,,,,,,,,0,,,70,64
128400,note_on,384,0,3,,,,,,,,0,,,39,64
128400,note_on,0,0,3,,,,,,,,0,,,67,64
128496,note_on,0,0,3,,,,,,,,0,,,70,0
128496,note_on,0,0,3,,,,,,,,0,,,63,0
128496,note_on,96,0,3,,,,,,,,0,,,67,0
128496,note_on,0,0,3,,,,,,,,0,,,58,0
128496,note_on,0,0,3,,,,,,,,0,,,39,0
128544,note_on,384,0,2,,,,,,,,0,,,46,0
128820,note_on,5556,0,1,,,,,,,,0,,,58,88
128820,note_on,276,0,2,,,,,,,,0,,,46,88
128820,note_on,0,0,2,,,,,,,,0,,,34,88
128868,note_on,48,0,1,,,,,,,,0,,,58,0
128868,note_on,48,0,2,,,,,,,,0,,,34,0
128868,note_on,0,0,2,,,,,,,,0,,,46,0
128880,note_on,0,0,2,,,,,,,,0,,,47,88
128880,note_on,12,0,2,,,,,,,,0,,,35,88
128880,note_on,12,0,1,,,,,,,,0,,,59,88
128976,note_on,0,0,2,,,,,,,,0,,,35,0
128976,note_on,96,0,1,,,,,,,,0,,,59,0
128976,note_on,96,0,2,,,,,,,,0,,,47,0
129060,note_on,84,0,2,,,,,,,,0,,,48,88
129060,note_on,84,0,1,,,,,,,,0,,,60,88
129060,note_on,0,0,2,,,,,,,,0,,,36,88
129108,note_on,48,0,2,,,,,,,,0,,,36,0
129108,note_on,0,0,2,,,,,,,,0,,,48,0
129120,note_on,0,0,2,,,,,,,,0,,,49,80
129120,note_on,60,0,1,,,,,,,,0,,,61,80
129120,note_on,12,0,2,,,,,,,,0,,,37,80
129120,control_change,624,0,3,,,,,,,,0,64,127,,
129156,note_on,36,0,1,,,,,,,,0,,,60,0
129360,note_on,0,0,3,,,,,,,,0,,,94,80
129360,note_on,0,0,3,,,,,,,,0,,,58,80
129360,note_on,0,0,3,,,,,,,,0,,,66,80
129360,note_on,0,0,3,,,,,,,,0,,,70,80
129360,note_on,240,0,3,,,,,,,,0,,,82,80
129360,note_on,0,0,3,,,,,,,,0,,,90,80
129456,note_on,0,0,3,,,,,,,,0,,,58,0
129456,note_on,0,0,3,,,,,,,,0,,,66,0
129456,note_on,0,0,3,,,,,,,,0,,,82,0
129456,note_on,0,0,3,,,,,,,,0,,,90,0
129456,note_on,0,0,3,,,,,,,,0,,,94,0
129456,note_on,96,0,3,,,,,,,,0,,,70,0
129504,note_on,384,0,2,,,,,,,,0,,,49,0
129504,note_on,348,0,1,,,,,,,,0,,,61,0
129504,note_on,0,0,2,,,,,,,,0,,,37,0
129555,control_change,99,0,3,,,,,,,,0,64,0,,
129600,note_on,96,0,2,,,,,,,,0,,,49,80
129600,note_on,96,0,1,,,,,,,,0,,,61,80
129600,note_on,0,0,2,,,,,,,,0,,,37,80
129735,control_change,180,0,3,,,,,,,,0,64,127,,
129840,note_on,0,0,3,,,,,,,,0,,,65,80
129840,note_on,0,0,3,,,,,,,,0,,,59,80
129840,note_on,0,0,3,,,,,,,,0,,,83,80
129840,note_on,0,0,3,,,,,,,,0,,,89,80
129840,note_on,0,0,3,,,,,,,,0,,,92,80
129840,note_on,0,0,3,,,,,,,,0,,,56,80
129840,note_on,0,0,3,,,,,,,,0,,,80,80
129840,note_on,105,0,3,,,,,,,,0,,,68,80
129936,note_on,0,0,3,,,,,,,,0,,,65,0
129936,note_on,0,0,3,,,,,,,,0,,,92,0
129936,note_on,96,0,3,,,,,,,,0,,,80,0
129936,note_on,0,0,3,,,,,,,,0,,,89,0
129936,note_on,0,0,3,,,,,,,,0,,,56,0
129936,note_on,0,0,3,,,,,,,,0,,,83,0
129936,note_on,0,0,3,,,,,,,,0,,,68,0
129936,note_on,0,0,3,,,,,,,,0,,,59,0
129984,note_on,384,0,1,,,,,,,,0,,,61,0
129984,note_on,0,0,2,,,,,,,,0,,,49,0
129984,note_on,384,0,2,,,,,,,,0,,,37,0
130080,note_on,0,0,2,,,,,,,,0,,,54,80
130080,control_change,144,0,3,,,,,,,,0,64,0,,
130080,note_on,96,0,1,,,,,,,,0,,,66,80
130080,note_on,96,0,2,,,,,,,,0,,,42,80
130131,control_change,51,0,3,,,,,,,,0,64,127,,
130320,note_on,189,0,3,,,,,,,,0,,,66,80
130320,note_on,0,0,3,,,,,,,,0,,,94,80
130320,note_on,0,0,3,,,,,,,,0,,,90,80
130320,note_on,0,0,3,,,,,,,,0,,,85,80
130320,note_on,0,0,3,,,,,,,,0,,,82,80
130320,note_on,0,0,3,,,,,,,,0,,,70,80
130320,note_on,0,0,3,,,,,,,,0,,,58,80
130320,note_on,0,0,3,,,,,,,,0,,,61,80
130416,note_on,0,0,3,,,,,,,,0,,,94,0
130416,note_on,0,0,3,,,,,,,,0,,,90,0
130416,note_on,0,0,3,,,,,,,,0,,,85,0
130416,note_on,0,0,3,,,,,,,,0,,,82,0
130416,note_on,0,0,3,,,,,,,,0,,,58,0
130416,note_on,0,0,3,,,,,,,,0,,,70,0
130416,note_on,96,0,3,,,,,,,,0,,,61,0
130416,note_on,0,0,3,,,,,,,,0,,,66,0
130554,set_tempo,4863,1,0,,,,,,495868,,,,,,
130579,set_tempo,25,1,0,,,,,,498339,,,,,,
130604,set_tempo,25,1,0,,,,,,500835,,,,,,
130623,set_tempo,19,1,0,,,,,,503356,,,,,,
130624,note_on,544,0,1,,,,,,,,0,,,66,0
130624,note_on,0,0,2,,,,,,,,0,,,42,0
130624,note_on,544,0,2,,,,,,,,0,,,54,0
130640,note_on,16,0,1,,,,,,,,0,,,65,80
130640,note_on,0,0,2,,,,,,,,0,,,41,80
130640,note_on,16,0,2,,,,,,,,0,,,53,80
130648,set_tempo,25,1,0,,,,,,505902,,,,,,
130667,set_tempo,19,1,0,,,,,,508475,,,,,,
130689,control_change,273,0,3,,,,,,,,0,64,0,,
130693,set_tempo,26,1,0,,,,,,511073,,,,,,
130704,note_on,64,0,1,,,,,,,,0,,,65,0
130704,note_on,0,0,2,,,,,,,,0,,,53,0
130704,note_on,64,0,2,,,,,,,,0,,,41,0
130718,set_tempo,25,1,0,,,,,,513699,,,,,,
130720,note_on,0,0,2,,,,,,,,0,,,52,80
130720,note_on,16,0,1,,,,,,,,0,,,64,80
130720,note_on,16,0,2,,,,,,,,0,,,40,80
130737,set_tempo,19,1,0,,,,,,516351,,,,,,
130762,set_tempo,25,1,0,,,,,,519031,,,,,,
130781,set_tempo,19,1,0,,,,,,521739,,,,,,
130784,note_on,0,0,2,,,,,,,,0,,,40,0
130784,note_on,64,0,2,,,,,,,,0,,,52,0
130784,note_on,64,0,1,,,,,,,,0,,,64,0
130800,note_on,16,0,1,,,,,,,,0,,,63,80
130800,note_on,0,0,2,,,,,,,,0,,,51,80
130800,note_on,16,0,2,,,,,,,,0,,,38,80
130806,set_tempo,25,1,0,,,,,,524476,,,,,,
130831,set_tempo,25,1,0,,,,,,527241,,,,,,
130845,note_on,45,0,2,,,,,,,,0,,,51,0
130845,note_on,45,0,1,,,,,,,,0,,,63,0
130845,note_on,0,0,2,,,,,,,,0,,,38,0
130848,note_on,3,0,2,,,,,,,,0,,,38,80
130848,note_on,3,0,1,,,,,,,,0,,,62,80
130848,note_on,0,0,2,,,,,,,,0,,,50,80
130850,set_tempo,19,1,0,,,,,,530035,,,,,,
130876,set_tempo,26,1,0,,,,,,532860,,,,,,
130893,note_on,45,0,1,,,,,,,,0,,,62,0
130893,note_on,45,0,2,,,,,,,,0,,,50,0
130893,note_on,0,0,2,,,,,,,,0,,,38,0
130895,set_tempo,19,1,0,,,,,,535714,,,,,,
130896,note_on,3,0,2,,,,,,,,0,,,49,80
130896,note_on,0,0,2,,,,,,,,0,,,37,80
130896,note_on,3,0,1,,,,,,,,0,,,61,80
130920,set_tempo,25,1,0,,,,,,538600,,,,,,
130941,note_on,0,0,2,,,,,,,,0,,,49,0
130941,note_on,45,0,1,,,,,,,,0,,,61,0
130941,note_on,45,0,2,,,,,,,,0,,,37,0
130944,note_on,3,0,2,,,,,,,,0,,,36,80
130944,note_on,3,0,1,,,,,,,,0,,,60,80
130944,note_on,0,0,2,,,,,,,,0,,,48,80
130945,set_tempo,25,1,0,,,,,,541516,,,,,,
130964,set_tempo,19,1,0,,,,,,544465,,,,,,
130989,note_on,0,0,2,,,,,,,,0,,,36,0
130989,note_on,45,0,2,,,,,,,,0,,,48,0
130989,note_on,45,0,1,,,,,,,,0,,,60,0
130989,set_tempo,25,1,0,,,,,,547445,,,,,,
130992,note_on,3,0,1,,,,,,,,0,,,59,80
130992,note_on,0,0,2,,,,,,,,0,,,47,80
130992,note_on,3,0,2,,,,,,,,0,,,35,80
131008,set_tempo,19,1,0,,,,,,550459,,,,,,
131034,set_tempo,26,1,0,,,,,,553506,,,,,,
131037,note_on,0,0,2,,,,,,,,0,,,35,0
131037,note_on,45,0,2,,,,,,,,0,,,47,0
131037,note_on,45,0,1,,,,,,,,0,,,59,0
131040,note_on,3,0,1,,,,,,,,0,,,58,80
131040,note_on,3,0,2,,,,,,,,0,,,34,80
131040,note_on,0,0,2,,,,,,,,0,,,46,80
131040,control_change,351,0,3,,,,,,,,0,64,127,,
131053,set_tempo,19,1,0,,,,,,556586,,,,,,
131280,note_on,0,0,3,,,,,,,,0,,,87,80
131280,note_on,240,0,3,,,,,,,,0,,,63,80
131280,note_on,0,0,3,,,,,,,,0,,,94,80
131280,note_on,0,0,3,,,,,,,,0,,,58,80
131280,note_on,0,0,3,,,,,,,,0,,,91,80
131280,note_on,0,0,3,,,,,,,,0,,,67,80
131280,note_on,0,0,3,,,,,,,,0,,,70,80
131280,note_on,0,0,3,,,,,,,,0,,,82,80
131376,note_on,0,0,3,,,,,,,,0,,,58,0
131376,note_on,0,0,3,,,,,,,,0,,,91,0
131376,note_on,96,0,3,,,,,,,,0,,,70,0
131376,note_on,0,0,3,,,,,,,,0,,,87,0
131376,note_on,0,0,3,,,,,,,,0,,,94,0
131376,note_on,0,0,3,,,,,,,,0,,,82,0
131376,note_on,0,0,3,,,,,,,,0,,,67,0
131376,note_on,0,0,3,,,,,,,,0,,,63,0
131424,note_on,384,0,2,,,,,,,,0,,,46,0
131424,note_on,384,0,1,,,,,,,,0,,,58,0
131424,note_on,0,0,2,,,,,,,,0,,,34,0
131520,note_on,96,0,2,,,,,,,,0,,,46,80
131520,note_on,0,0,2,,,,,,,,0,,,34,80
131520,control_change,144,0,3,,,,,,,,0,64,0,,
131520,note_on,96,0,1,,,,,,,,0,,,58,80
131589,control_change,69,0,3,,,,,,,,0,64,127,,
131760,note_on,0,0,3,,,,,,,,0,,,62,80
131760,note_on,0,0,3,,,,,,,,0,,,58,80
131760,note_on,0,0,3,,,,,,,,0,,,68,80
131760,note_on,0,0,3,,,,,,,,0,,,70,80
131760,note_on,0,0,3,,,,,,,,0,,,82,80
131760,note_on,0,0,3,,,,,,,,0,,,86,80
131760,note_on,0,0,3,,,,,,,,0,,,89,80
131760,note_on,0,0,3,,,,,,,,0,,,92,80
131760,note_on,0,0,3,,,,,,,,0,,,94,80
131760,note_on,171,0,3,,,,,,,,0,,,65,80
131856,note_on,0,0,3,,,,,,,,0,,,65,0
131856,note_on,0,0,2,,,,,,,,0,,,46,0
131856,note_on,0,0,3,,,,,,,,0,,,62,0
131856,note_on,96,0,3,,,,,,,,0,,,92,0
131856,note_on,0,0,3,,,,,,,,0,,,89,0
131856,note_on,336,0,1,,,,,,,,0,,,58,0
131856,note_on,0,0,3,,,,,,,,0,,,86,0
131856,note_on,336,0,2,,,,,,,,0,,,34,0
131856,note_on,0,0,3,,,,,,,,0,,,94,0
131856,note_on,0,0,3,,,,,,,,0,,,58,0
131856,note_on,0,0,3,,,,,,,,0,,,70,0
131856,note_on,0,0,3,,,,,,,,0,,,68,0
131856,note_on,0,0,3,,,,,,,,0,,,82,0
131940,note_on,84,0,2,,,,,,,,0,,,46,80
131940,note_on,0,0,2,,,,,,,,0,,,34,80
131940,note_on,84,0,1,,,,,,,,0,,,58,80
131988,note_on,0,0,2,,,,,,,,0,,,46,0
131988,note_on,48,0,1,,,,,,,,0,,,58,0
131988,note_on,48,0,2,,,,,,,,0,,,34,0
132000,note_on,0,0,2,,,,,,,,0,,,34,80
132000,note_on,12,0,2,,,,,,,,0,,,46,80
132000,control_change,144,0,3,,,,,,,,0,64,0,,
132000,note_on,12,0,1,,,,,,,,0,,,70,80
132000,note_on,0,0,1,,,,,,,,0,,,58,80
132043,control_change,43,0,3,,,,,,,,0,64,127,,
132240,note_on,0,0,3,,,,,,,,0,,,63,80
132240,note_on,0,0,3,,,,,,,,0,,,70,80
132240,note_on,0,0,3,,,,,,,,0,,,82,80
132240,note_on,0,0,3,,,,,,,,0,,,87,80
132240,note_on,0,0,3,,,,,,,,0,,,58,80
132240,note_on,0,0,3,,,,,,,,0,,,94,80
132240,note_on,197,0,3,,,,,,,,0,,,67,80
132240,note_on,0,0,3,,,,,,,,0,,,91,80
132336,note_on,96,0,3,,,,,,,,0,,,70,0
132336,note_on,0,0,3,,,,,,,,0,,,63,0
132336,note_on,0,0,3,,,,,,,,0,,,67,0
132336,note_on,0,0,3,,,,,,,,0,,,82,0
132336,note_on,0,0,3,,,,,,,,0,,,87,0
132336,note_on,0,0,3,,,,,,,,0,,,91,0
132336,note_on,0,0,3,,,,,,,,0,,,94,0
132336,note_on,0,0,3,,,,,,,,0,,,58,0
132384,note_on,0,0,1,,,,,,,,0,,,70,0
132384,note_on,384,0,1,,,,,,,,0,,,58,0
132384,note_on,0,0,2,,,,,,,,0,,,46,0
132384,note_on,384,0,2,,,,,,,,0,,,34,0
132480,note_on,0,0,2,,,,,,,,0,,,34,80
132480,note_on,96,0,2,,,,,,,,0,,,46,80
132480,note_on,96,0,1,,,,,,,,0,,,58,80
132480,note_on,0,0,1,,,,,,,,0,,,70,80
132691,set_tempo,1638,1,0,,,,,,556586,,,,,,
132696,control_change,360,0,3,,,,,,,,0,64,0,,
132720,note_on,0,0,3,,,,,,,,0,,,65,80
132720,note_on,0,0,3,,,,,,,,0,,,68,80
132720,note_on,0,0,3,,,,,,,,0,,,70,80
132720,note_on,0,0,3,,,,,,,,0,,,74,80
132720,note_on,0,0,3,,,,,,,,0,,,86,80
132720,note_on,0,0,3,,,,,,,,0,,,89,80
132720,note_on,0,0,3,,,,,,,,0,,,94,80
132720,note_on,0,0,3,,,,,,,,0,,,62,80
132720,note_on,24,0,3,,,,,,,,0,,,92,80
132720,note_on,0,0,3,,,,,,,,0,,,98,80
132726,control_change,6,0,3,,,,,,,,0,64,127,,
132780,set_tempo,89,1,0,,,,,,559701,,,,,,
132816,note_on,0,0,3,,,,,,,,0,,,89,0
132816,note_on,0,0,3,,,,,,,,0,,,92,0
132816,note_on,0,0,2,,,,,,,,0,,,46,0
132816,note_on,0,0,3,,,,,,,,0,,,74,0
132816,note_on,0,0,3,,,,,,,,0,,,70,0
132816,note_on,0,0,3,,,,,,,,0,,,65,0
132816,note_on,0,0,3,,,,,,,,0,,,62,0
132816,note_on,0,0,1,,,,,,,,0,,,58,0
132816,note_on,0,0,3,,,,,,,,0,,,86,0
132816,note_on,0,0,3,,,,,,,,0,,,94,0
132816,note_on,0,0,3,,,,,,,,0,,,68,0
132816,note_on,90,0,3,,,,,,,,0,,,98,0
132816,note_on,336,0,1,,,,,,,,0,,,70,0
132816,note_on,336,0,2,,,,,,,,0,,,34,0
132822,set_tempo,42,1,0,,,,,,556586,,,,,,
132858,set_tempo,36,1,0,,,,,,559701,,,,,,
132884,set_tempo,26,1,0,,,,,,1239669,,,,,,
132900,note_on,84,0,1,,,,,,,,0,,,58,80
132900,note_on,84,0,2,,,,,,,,0,,,46,80
132912,note_on,12,0,2,,,,,,,,0,,,46,0
132912,note_on,0,0,1,,,,,,,,0,,,59,80
132912,note_on,12,0,1,,,,,,,,0,,,58,0
132912,note_on,0,0,2,,,,,,,,0,,,47,80
132924,note_on,0,0,1,,,,,,,,0,,,60,80
132924,note_on,0,0,2,,,,,,,,0,,,48,80
132924,note_on,12,0,2,,,,,,,,0,,,47,0
132924,note_on,12,0,1,,,,,,,,0,,,59,0
132936,note_on,0,0,1,,,,,,,,0,,,61,80
132936,note_on,0,0,2,,,,,,,,0,,,49,80
132936,note_on,12,0,2,,,,,,,,0,,,48,0
132936,note_on,12,0,1,,,,,,,,0,,,60,0
132944,set_tempo,60,1,0,,,,,,1239669,,,,,,
132948,note_on,12,0,1,,,,,,,,0,,,61,0
132948,note_on,0,0,2,,,,,,,,0,,,50,80
132948,note_on,12,0,2,,,,,,,,0,,,49,0
132948,note_on,0,0,1,,,,,,,,0,,,62,80
132957,set_tempo,13,1,0,,,,,,553506,,,,,,
132960,note_on,12,0,1,,,,,,,,0,,,62,0
132960,control_change,0,0,3,,,,,,,,0,64,0,,
132960,note_on,12,0,2,,,,,,,,0,,,50,0
132960,note_on,0,0,3,,,,,,,,0,,,51,80
132960,note_on,144,0,3,,,,,,,,0,,,63,80
133026,control_change,66,0,3,,,,,,,,0,64,127,,
133152,note_on,126,0,3,,,,,,,,0,,,51,0
133152,note_on,0,0,3,,,,,,,,0,,,63,0
133200,note_on,0,0,3,,,,,,,,0,,,27,80
133200,note_on,0,0,3,,,,,,,,0,,,51,80
133200,note_on,48,0,3,,,,,,,,0,,,39,80
133392,note_on,0,0,3,,,,,,,,0,,,27,0
133392,note_on,192,0,3,,,,,,,,0,,,51,0
133392,note_on,0,0,3,,,,,,,,0,,,39,0
133440,note_on,48,0,3,,,,,,,,0,,,75,80
133440,note_on,0,0,3,,,,,,,,0,,,87,80
133440,note_on,0,0,3,,,,,,,,0,,,51,80
133440,note_on,0,0,3,,,,,,,,0,,,63,80
133632,note_on,0,0,3,,,,,,,,0,,,87,0
133632,note_on,192,0,3,,,,,,,,0,,,63,0
133632,note_on,0,0,3,,,,,,,,0,,,75,0
133632,note_on,0,0,3,,,,,,,,0,,,51,0
133680,note_on,48,0,3,,,,,,,,0,,,63,80
133680,note_on,0,0,3,,,,,,,,0,,,51,80
133680,note_on,0,0,3,,,,,,,,0,,,39,80
133860,note_on,900,0,1,,,,,,,,0,,,87,80
133860,note_on,900,0,2,,,,,,,,0,,,63,80
133872,note_on,192,0,3,,,,,,,,0,,,51,0
133872,note_on,0,0,3,,,,,,,,0,,,39,0
133872,note_on,0,0,3,,,,,,,,0,,,63,0
133920,note_on,60,0,1,,,,,,,,0,,,99,80
133920,note_on,0,0,2,,,,,,,,0,,,71,80
133920,note_on,60,0,2,,,,,,,,0,,,78,80
133920,note_on,0,0,2,,,,,,,,0,,,69,80
134304,note_on,0,0,2,,,,,,,,0,,,78,0
134304,note_on,0,0,2,,,,,,,,0,,,71,0
134304,note_on,0,0,2,,,,,,,,0,,,63,0
134304,note_on,384,0,2,,,,,,,,0,,,69,0
134304,note_on,0,0,1,,,,,,,,0,,,87,0
134304,note_on,384,0,1,,,,,,,,0,,,99,0
134310,note_on,6,0,1,,,,,,,,0,,,95,80
134334,note_on,24,0,1,,,,,,,,0,,,95,0
134340,note_on,6,0,1,,,,,,,,0,,,93,80
134364,note_on,24,0,1,,,,,,,,0,,,93,0
134370,note_on,6,0,1,,,,,,,,0,,,90,80
134394,note_on,24,0,1,,,,,,,,0,,,90,0
134400,note_on,6,0,1,,,,,,,,0,,,87,80
134424,note_on,24,0,1,,,,,,,,0,,,87,0
134430,note_on,6,0,1,,,,,,,,0,,,83,80
134454,note_on,24,0,1,,,,,,,,0,,,83,0
134460,note_on,6,0,1,,,,,,,,0,,,81,80
134484,note_on,24,0,1,,,,,,,,0,,,81,0
134490,note_on,6,0,1,,,,,,,,0,,,78,80
134514,note_on,24,0,1,,,,,,,,0,,,78,0
134520,note_on,6,0,1,,,,,,,,0,,,75,80
134544,note_on,24,0,1,,,,,,,,0,,,75,0
134550,note_on,6,0,1,,,,,,,,0,,,71,80
134574,note_on,24,0,1,,,,,,,,0,,,71,0
134580,note_on,6,0,1,,,,,,,,0,,,69,80
134604,note_on,24,0,1,,,,,,,,0,,,69,0
134610,note_on,6,0,1,,,,,,,,0,,,66,80
134634,note_on,24,0,1,,,,,,,,0,,,66,0
134640,note_on,6,0,1,,,,,,,,0,,,63,80
134664,note_on,24,0,1,,,,,,,,0,,,63,0
134670,note_on,6,0,1,,,,,,,,0,,,59,77
134688,control_change,816,0,3,,,,,,,,0,64,0,,
134694,note_on,24,0,1,,,,,,,,0,,,59,0
134700,note_on,6,0,1,,,,,,,,0,,,57,73
134724,note_on,24,0,1,,,,,,,,0,,,57,0
134730,note_on,6,0,1,,,,,,,,0,,,54,70
134754,note_on,24,0,1,,,,,,,,0,,,54,0
134760,note_on,6,0,1,,,,,,,,0,,,51,66
134784,note_on,24,0,1,,,,,,,,0,,,51,0
134790,note_on,6,0,1,,,,,,,,0,,,47,62
134814,note_on,24,0,1,,,,,,,,0,,,47,0
134820,note_on,6,0,1,,,,,,,,0,,,45,58
134844,note_on,24,0,1,,,,,,,,0,,,45,0
134850,note_on,6,0,1,,,,,,,,0,,,42,54
134874,note_on,24,0,1,,,,,,,,0,,,42,0
134877,set_tempo,1920,1,0,,,,,,556586,,,,,,
134880,note_on,0,0,3,,,,,,,,0,,,39,80
134880,control_change,192,0,3,,,,,,,,0,64,127,,
134908,set_tempo,31,1,0,,,,,,553506,,,,,,
134916,set_tempo,8,1,0,,,,,,715990,,,,,,
134928,note_on,48,0,3,,,,,,,,0,,,39,0
134940,note_on,12,0,3,,,,,,,,0,,,39,80
135084,note_on,144,0,3,,,,,,,,0,,,39,0
135117,set_tempo,201,1,0,,,,,,556586,,,,,,
135120,note_on,36,0,3,,,,,,,,0,,,39,80
135120,note_on,0,0,3,,,,,,,,0,,,27,80
135120,note_on,0,0,3,,,,,,,,0,,,51,80
135312,note_on,0,0,3,,,,,,,,0,,,39,0
135312,note_on,192,0,3,,,,,,,,0,,,51,0
135312,note_on,0,0,3,,,,,,,,0,,,27,0
135360,note_on,0,0,3,,,,,,,,0,,,87,80
135360,note_on,0,0,3,,,,,,,,0,,,75,80
135360,note_on,0,0,3,,,,,,,,0,,,51,80
135360,note_on,48,0,3,,,,,,,,0,,,63,80
135552,note_on,0,0,3,,,,,,,,0,,,75,0
135552,note_on,192,0,3,,,,,,,,0,,,51,0
135552,note_on,0,0,3,,,,,,,,0,,,63,0
135552,note_on,0,0,3,,,,,,,,0,,,87,0
135600,note_on,48,0,3,,,,,,,,0,,,51,80
135600,note_on,0,0,3,,,,,,,,0,,,63,80
135600,note_on,0,0,3,,,,,,,,0,,,39,80
135780,note_on,1476,0,2,,,,,,,,0,,,63,80
135780,note_on,906,0,1,,,,,,,,0,,,90,80
135792,note_on,192,0,3,,,,,,,,0,,,39,0
135792,note_on,0,0,3,,,,,,,,0,,,63,0
135792,note_on,0,0,3,,,,,,,,0,,,51,0
135840,note_on,60,0,2,,,,,,,,0,,,78,80
135840,note_on,60,0,1,,,,,,,,0,,,102,80
135840,note_on,0,0,2,,,,,,,,0,,,69,80
135840,note_on,0,0,2,,,,,,,,0,,,71,80
136224,note_on,0,0,1,,,,,,,,0,,,90,0
136224,note_on,384,0,1,,,,,,,,0,,,102,0
136224,note_on,384,0,2,,,,,,,,0,,,69,0
136224,note_on,0,0,2,,,,,,,,0,,,63,0
136224,note_on,0,0,2,,,,,,,,0,,,71,0
136224,note_on,0,0,2,,,,,,,,0,,,78,0
136230,note_on,6,0,1,,,,,,,,0,,,99,80
136254,note_on,24,0,1,,,,,,,,0,,,99,0
136260,note_on,6,0,1,,,,,,,,0,,,95,80
136284,note_on,24,0,1,,,,,,,,0,,,95,0
136290,note_on,6,0,1,,,,,,,,0,,,93,80
136314,note_on,24,0,1,,,,,,,,0,,,93,0
136320,note_on,6,0,1,,,,,,,,0,,,90,80
136344,note_on,24,0,1,,,,,,,,0,,,90,0
136350,note_on,6,0,1,,,,,,,,0,,,87,80
136374,note_on,24,0,1,,,,,,,,0,,,87,0
136380,note_on,6,0,1,,,,,,,,0,,,83,80
136404,note_on,24,0,1,,,,,,,,0,,,83,0
136410,note_on,6,0,1,,,,,,,,0,,,81,80
136434,note_on,24,0,1,,,,,,,,0,,,81,0
136440,note_on,6,0,1,,,,,,,,0,,,78,80
136464,note_on,24,0,1,,,,,,,,0,,,78,0
136470,note_on,6,0,1,,,,,,,,0,,,75,80
136494,note_on,24,0,1,,,,,,,,0,,,75,0
136500,note_on,6,0,1,,,,,,,,0,,,71,80
136524,note_on,24,0,1,,,,,,,,0,,,71,0
136530,note_on,6,0,1,,,,,,,,0,,,69,80
136554,note_on,24,0,1,,,,,,,,0,,,69,0
136560,note_on,6,0,1,,,,,,,,0,,,66,80
136584,note_on,24,0,1,,,,,,,,0,,,66,0
136590,note_on,6,0,1,,,,,,,,0,,,63,80
136614,note_on,24,0,1,,,,,,,,0,,,63,0
136620,note_on,6,0,1,,,,,,,,0,,,59,80
136623,control_change,831,0,3,,,,,,,,0,64,0,,
136644,note_on,24,0,1,,,,,,,,0,,,59,0
136650,note_on,6,0,1,,,,,,,,0,,,57,80
136674,note_on,24,0,1,,,,,,,,0,,,57,0
136680,note_on,6,0,1,,,,,,,,0,,,54,80
136703,note_on,23,0,1,,,,,,,,0,,,54,0
136704,note_on,1,0,1,,,,,,,,0,,,51,80
136727,note_on,23,0,1,,,,,,,,0,,,51,0
136728,note_on,1,0,1,,,,,,,,0,,,47,80
136751,note_on,23,0,1,,,,,,,,0,,,47,0
136752,note_on,1,0,1,,,,,,,,0,,,45,80
136775,note_on,23,0,1,,,,,,,,0,,,45,0
136776,note_on,1,0,1,,,,,,,,0,,,42,80
136795,set_tempo,1678,1,0,,,,,,500835,,,,,,
136798,set_tempo,3,1,0,,,,,,312826,,,,,,
136799,end_of_track,0,1,1,,,,,,,,,,,,
136799,note_on,23,0,1,,,,,,,,0,,,42,0
136800,time_signature,2,1,0,5,4,24,8,,,,,,,,
136800,note_on,0,0,3,,,,,,,,0,,,27,80
136800,note_on,177,0,3,,,,,,,,0,,,39,80
136992,control_change,0,0,3,,,,,,,,0,64,127,,
136992,note_on,192,0,3,,,,,,,,0,,,27,0
136992,note_on,0,0,3,,,,,,,,0,,,39,0
137033,set_tempo,233,1,0,,,,,,311850,,,,,,
137037,set_tempo,4,1,0,,,,,,382166,,,,,,
137038,set_tempo,1,1,0,,,,,,928793,,,,,,
137040,note_on,48,0,3,,,,,,,,0,,,28,80
137040,note_on,0,0,3,,,,,,,,0,,,40,80
137105,set_tempo,67,1,0,,,,,,937500,,,,,,
137232,note_on,0,0,3,,,,,,,,0,,,28,0
137232,note_on,192,0,3,,,,,,,,0,,,40,0
137280,note_on,0,0,3,,,,,,,,0,,,92,80
137280,note_on,0,0,3,,,,,,,,0,,,76,80
137280,note_on,0,0,3,,,,,,,,0,,,68,80
137280,note_on,0,0,3,,,,,,,,0,,,64,80
137280,note_on,0,0,3,,,,,,,,0,,,104,80
137280,note_on,48,0,3,,,,,,,,0,,,71,80
137280,note_on,0,0,3,,,,,,,,0,,,95,80
137376,note_on,0,0,3,,,,,,,,0,,,92,0
137376,note_on,0,0,3,,,,,,,,0,,,76,0
137376,note_on,96,0,3,,,,,,,,0,,,95,0
137376,note_on,0,0,3,,,,,,,,0,,,64,0
137376,note_on,0,0,3,,,,,,,,0,,,71,0
137376,note_on,0,0,3,,,,,,,,0,,,104,0
137376,note_on,0,0,3,,,,,,,,0,,,68,0
137496,control_change,120,0,3,,,,,,,,0,64,0,,
137520,note_on,0,0,3,,,,,,,,0,,,56,80
137520,note_on,24,0,3,,,,,,,,0,,,44,80
137520,note_on,0,0,3,,,,,,,,0,,,32,80
137616,note_on,96,0,3,,,,,,,,0,,,56,0
137700,control_change,84,0,3,,,,,,,,0,64,127,,
137712,note_on,0,0,3,,,,,,,,0,,,44,0
137712,note_on,12,0,3,,,,,,,,0,,,32,0
137760,note_on,0,0,3,,,,,,,,0,,,68,80
137760,note_on,48,0,3,,,,,,,,0,,,83,80
137760,note_on,0,0,3,,,,,,,,0,,,64,80
137760,note_on,0,0,3,,,,,,,,0,,,95,80
137760,note_on,0,0,3,,,,,,,,0,,,88,80
137760,note_on,0,0,3,,,,,,,,0,,,59,80
137760,note_on,0,0,3,,,,,,,,0,,,71,80
137856,note_on,0,0,3,,,,,,,,0,,,95,0
137856,note_on,0,0,3,,,,,,,,0,,,59,0
137856,note_on,0,0,3,,,,,,,,0,,,64,0
137856,note_on,96,0,3,,,,,,,,0,,,88,0
137856,note_on,0,0,3,,,,,,,,0,,,68,0
137856,note_on,0,0,3,,,,,,,,0,,,71,0
137856,note_on,0,0,3,,,,,,,,0,,,83,0
138000,time_signature,895,1,0,4,4,24,8,,,,,,,,
138000,set_tempo,0,1,0,,,,,,705882,,,,,,
138036,set_tempo,36,1,0,,,,,,700935,,,,,,
138355,control_change,499,0,3,,,,,,,,0,64,0,,
138660,note_on,0,0,3,,,,,,,,0,,,43,80
138660,note_on,305,0,3,,,,,,,,0,,,67,80
138660,note_on,0,0,3,,,,,,,,0,,,55,80
138660,note_on,0,0,3,,,,,,,,0,,,31,80
138708,note_on,48,0,3,,,,,,,,0,,,43,0
138708,note_on,0,0,3,,,,,,,,0,,,31,0
138708,note_on,0,0,3,,,,,,,,0,,,55,0
138708,note_on,0,0,3,,,,,,,,0,,,67,0
138720,note_on,12,0,3,,,,,,,,0,,,56,80
138720,note_on,0,0,3,,,,,,,,0,,,68,80
138720,note_on,0,0,3,,,,,,,,0,,,44,80
138720,note_on,0,0,3,,,,,,,,0,,,32,80
138816,note_on,96,0,3,,,,,,,,0,,,32,0
138816,note_on,0,0,3,,,,,,,,0,,,56,0
138816,note_on,0,0,3,,,,,,,,0,,,44,0
138816,note_on,0,0,3,,,,,,,,0,,,68,0
138900,note_on,0,0,3,,,,,,,,0,,,69,80
138900,note_on,0,0,3,,,,,,,,0,,,57,80
138900,note_on,0,0,3,,,,,,,,0,,,33,80
138900,note_on,84,0,3,,,,,,,,0,,,45,80
138948,note_on,48,0,3,,,,,,,,0,,,33,0
138948,note_on,0,0,3,,,,,,,,0,,,57,0
138948,note_on,0,0,3,,,,,,,,0,,,69,0
138948,note_on,0,0,3,,,,,,,,0,,,45,0
138960,note_on,0,0,3,,,,,,,,0,,,58,80
138960,note_on,0,0,3,,,,,,,,0,,,39,80
138960,note_on,0,0,3,,,,,,,,0,,,43,80
138960,note_on,0,0,3,,,,,,,,0,,,46,80
138960,note_on,0,0,3,,,,,,,,0,,,63,80
138960,note_on,12,0,3,,,,,,,,0,,,34,80
138960,note_on,0,0,3,,,,,,,,0,,,67,80
138960,note_on,0,0,3,,,,,,,,0,,,70,80
139440,note_on,0,0,3,,,,,,,,0,,,44,80
139440,note_on,0,0,3,,,,,,,,0,,,67,0
139440,note_on,0,0,3,,,,,,,,0,,,68,80
139440,note_on,0,0,3,,,,,,,,0,,,70,0
139440,note_on,0,0,3,,,,,,,,0,,,70,80
139440,note_on,0,0,3,,,,,,,,0,,,58,80
139440,note_on,0,0,3,,,,,,,,0,,,58,0
139440,note_on,0,0,3,,,,,,,,0,,,46,80
139440,note_on,0,0,3,,,,,,,,0,,,39,0
139440,note_on,0,0,3,,,,,,,,0,,,43,0
139440,note_on,0,0,3,,,,,,,,0,,,41,80
139440,note_on,0,0,3,,,,,,,,0,,,65,80
139440,note_on,0,0,3,,,,,,,,0,,,38,80
139440,note_on,0,0,3,,,,,,,,0,,,34,80
139440,note_on,0,0,3,,,,,,,,0,,,34,0
139440,note_on,480,0,3,,,,,,,,0,,,63,0
139440,note_on,0,0,3,,,,,,,,0,,,46,0
139440,note_on,0,0,3,,,,,,,,0,,,62,80
139914,note_on,474,0,3,,,,,,,,0,,,39,80
139914,note_on,0,0,3,,,,,,,,0,,,46,80
139914,note_on,3690,0,2,,,,,,,,0,,,58,80
139914,note_on,0,0,2,,,,,,,,0,,,70,80
139914,note_on,0,0,2,,,,,,,,0,,,67,80
139914,note_on,0,0,3,,,,,,,,0,,,43,80
139914,note_on,0,0,2,,,,,,,,0,,,63,80
139920,note_on,6,0,3,,,,,,,,0,,,65,0
139920,note_on,0,0,3,,,,,,,,0,,,70,0
139920,note_on,0,0,3,,,,,,,,0,,,62,0
139920,note_on,0,0,3,,,,,,,,0,,,58,0
139920,note_on,0,0,3,,,,,,,,0,,,68,0
139920,note_on,0,0,3,,,,,,,,0,,,34,0
139920,note_on,0,0,3,,,,,,,,0,,,38,0
139920,note_on,0,0,3,,,,,,,,0,,,41,0
139920,note_on,0,0,3,,,,,,,,0,,,44,0
139920,note_on,0,0,3,,,,,,,,0,,,46,0
141349,set_tempo,3313,1,0,,,,,,700444,,,,,,
141354,note_on,1434,0,3,,,,,,,,0,,,39,0
141354,end_of_track,0,1,2,,,,,,,,,,,,
141354,end_of_track,0,1,3,,,,,,,,,,,,
141354,note_on,0,0,2,,,,,,,,0,,,67,0
141354,note_on,0,0,3,,,,,,,,0,,,43,0
141354,note_on,0,0,2,,,,,,,,0,,,63,0
141354,note_on,0,0,2,,,,,,,,0,,,58,0
141354,note_on,1440,0,2,,,,,,,,0,,,70,0
141354,note_on,0,0,3,,,,,,,,0,,,46,0
141389,set_tempo,40,1,0,,,,,,708634,,,,,,
141428,set_tempo,39,1,0,,,,,,717017,,,,,,
141467,set_tempo,39,1,0,,,,,,725602,,,,,,
141507,set_tempo,40,1,0,,,,,,734394,,,,,,
141546,set_tempo,39,1,0,,,,,,743402,,,,,,
141585,set_tempo,39,1,0,,,,,,752634,,,,,,
141598,end_of_track,0,1,0,,,,,,,,,,,,
141598,set_tempo,13,1,0,,,,,,752634,,,,,,
