tick,type,time,meta,track,numerator,denominator,clocks_per_click,notated_32nd_notes_per_beat,key,tempo,program,channel,control,value,note,velocity
0,control_change,0,0,1,,,,,,,,0,7,100,,
0,control_change,0,0,2,,,,,,,,0,10,51,,
0,control_change,0,0,2,,,,,,,,0,10,51,,
0,control_change,0,0,2,,,,,,,,0,91,60,,
0,control_change,0,0,2,,,,,,,,0,91,60,,
0,control_change,0,0,2,,,,,,,,0,121,0,,
0,control_change,0,0,2,,,,,,,,0,121,0,,
0,control_change,0,0,3,,,,,,,,0,7,100,,
0,control_change,0,0,3,,,,,,,,0,10,64,,
0,control_change,0,0,3,,,,,,,,0,91,60,,
0,control_change,0,0,3,,,,,,,,0,121,0,,
0,key_signature,0,1,0,,,,,C,,,,,,,
0,note_on,0,0,1,,,,,,,,0,,,46,80
0,note_on,0,0,1,,,,,,,,0,,,50,80
0,track_name,0,1,2,,,,,,,,,,,,
0,program_change,0,0,1,,,,,,,0,0,,,,
0,program_change,0,0,1,,,,,,,0,0,,,,
0,program_change,0,0,2,,,,,,,0,0,,,,
0,program_change,0,0,2,,,,,,,0,0,,,,
0,program_change,0,0,3,,,,,,,0,0,,,,
0,set_tempo,0,1,0,,,,,,2222222,,,,,,
0,time_signature,0,1,0,3,4,24,8,,,,,,,,
0,track_name,0,1,0,,,,,,,,,,,,
0,track_name,0,1,1,,,,,,,,,,,,
0,control_change,0,0,2,,,,,,,,0,7,100,,
0,control_change,0,0,2,,,,,,,,0,7,100,,
0,track_name,0,1,3,,,,,,,,,,,,
0,control_change,0,0,1,,,,,,,,0,7,100,,
0,control_change,0,0,1,,,,,,,,0,10,51,,
0,control_change,0,0,1,,,,,,,,0,10,51,,
0,control_change,0,0,1,,,,,,,,0,91,60,,
0,control_change,0,0,1,,,,,,,,0,91,60,,
0,control_change,0,0,1,,,,,,,,0,121,0,,
0,control_change,0,0,1,,,,,,,,0,121,0,,
67,control_change,67,0,2,,,,,,,,0,64,127,,
180,note_on,113,0,2,,,,,,,,0,,,31,80
215,note_on,35,0,2,,,,,,,,0,,,31,0
225,note_on,10,0,2,,,,,,,,0,,,43,80
236,note_on,11,0,2,,,,,,,,0,,,43,0
239,note_on,3,0,2,,,,,,,,0,,,46,80
251,note_on,12,0,2,,,,,,,,0,,,46,0
254,note_on,3,0,2,,,,,,,,0,,,50,80
265,note_on,11,0,2,,,,,,,,0,,,50,0
270,note_on,5,0,2,,,,,,,,0,,,62,80
281,note_on,11,0,2,,,,,,,,0,,,62,0
284,note_on,3,0,2,,,,,,,,0,,,50,80
286,note_on,0,0,1,,,,,,,,0,,,46,0
286,note_on,286,0,1,,,,,,,,0,,,50,0
296,note_on,12,0,2,,,,,,,,0,,,50,0
299,note_on,3,0,2,,,,,,,,0,,,46,80
310,note_on,11,0,2,,,,,,,,0,,,46,0
315,note_on,5,0,2,,,,,,,,0,,,43,80
350,note_on,35,0,2,,,,,,,,0,,,43,0
360,note_on,0,0,1,,,,,,,,0,,,45,80
360,note_on,0,0,1,,,,,,,,0,,,49,80
360,note_on,74,0,1,,,,,,,,0,,,43,80
380,control_change,30,0,2,,,,,,,,0,64,0,,
450,control_change,70,0,2,,,,,,,,0,64,127,,
540,note_on,90,0,2,,,,,,,,0,,,31,80
575,note_on,35,0,2,,,,,,,,0,,,31,0
585,note_on,10,0,2,,,,,,,,0,,,43,80
596,note_on,11,0,2,,,,,,,,0,,,43,0
599,note_on,3,0,2,,,,,,,,0,,,45,80
611,note_on,12,0,2,,,,,,,,0,,,45,0
614,note_on,3,0,2,,,,,,,,0,,,49,80
625,note_on,11,0,2,,,,,,,,0,,,49,0
630,note_on,5,0,2,,,,,,,,0,,,61,80
641,note_on,11,0,2,,,,,,,,0,,,61,0
644,note_on,3,0,2,,,,,,,,0,,,49,80
646,note_on,0,0,1,,,,,,,,0,,,43,0
646,note_on,0,0,1,,,,,,,,0,,,45,0
646,note_on,286,0,1,,,,,,,,0,,,49,0
656,note_on,12,0,2,,,,,,,,0,,,49,0
659,note_on,3,0,2,,,,,,,,0,,,45,80
670,note_on,11,0,2,,,,,,,,0,,,45,0
675,note_on,5,0,2,,,,,,,,0,,,43,80
710,note_on,35,0,2,,,,,,,,0,,,43,0
720,note_on,74,0,1,,,,,,,,0,,,46,80
720,note_on,0,0,1,,,,,,,,0,,,50,80
722,control_change,12,0,2,,,,,,,,0,64,0,,
810,control_change,88,0,2,,,,,,,,0,64,127,,
900,note_on,90,0,2,,,,,,,,0,,,31,80
935,note_on,35,0,2,,,,,,,,0,,,31,0
945,note_on,10,0,2,,,,,,,,0,,,43,80
956,note_on,11,0,2,,,,,,,,0,,,43,0
959,note_on,3,0,2,,,,,,,,0,,,46,80
971,note_on,12,0,2,,,,,,,,0,,,46,0
974,note_on,3,0,2,,,,,,,,0,,,50,80
985,note_on,11,0,2,,,,,,,,0,,,50,0
990,note_on,5,0,2,,,,,,,,0,,,62,80
1001,note_on,11,0,2,,,,,,,,0,,,62,0
1004,note_on,3,0,2,,,,,,,,0,,,50,80
1006,note_on,0,0,1,,,,,,,,0,,,46,0
1006,note_on,286,0,1,,,,,,,,0,,,50,0
1016,note_on,12,0,2,,,,,,,,0,,,50,0
1019,note_on,3,0,2,,,,,,,,0,,,46,80
1030,note_on,11,0,2,,,,,,,,0,,,46,0
1035,note_on,5,0,2,,,,,,,,0,,,43,80
1070,note_on,35,0,2,,,,,,,,0,,,43,0
1080,note_on,0,0,1,,,,,,,,0,,,46,80
1080,control_change,10,0,2,,,,,,,,0,64,0,,
1080,note_on,74,0,1,,,,,,,,0,,,43,80
1170,control_change,90,0,2,,,,,,,,0,64,127,,
1260,note_on,90,0,2,,,,,,,,0,,,31,80
1295,note_on,35,0,2,,,,,,,,0,,,31,0
1305,note_on,10,0,2,,,,,,,,0,,,43,80
1316,note_on,11,0,2,,,,,,,,0,,,43,0
1319,note_on,3,0,2,,,,,,,,0,,,46,80
1331,note_on,12,0,2,,,,,,,,0,,,46,0
1334,note_on,3,0,2,,,,,,,,0,,,55,80
1345,note_on,11,0,2,,,,,,,,0,,,55,0
1350,note_on,5,0,2,,,,,,,,0,,,58,80
1361,note_on,11,0,2,,,,,,,,0,,,58,0
1364,note_on,3,0,2,,,,,,,,0,,,55,80
1366,note_on,0,0,1,,,,,,,,0,,,43,0
1366,note_on,286,0,1,,,,,,,,0,,,46,0
1376,note_on,12,0,2,,,,,,,,0,,,55,0
1379,note_on,3,0,2,,,,,,,,0,,,46,80
1390,note_on,11,0,2,,,,,,,,0,,,46,0
1395,note_on,5,0,2,,,,,,,,0,,,43,80
1430,note_on,35,0,2,,,,,,,,0,,,43,0
1440,note_on,0,0,1,,,,,,,,0,,,48,80
1440,control_change,10,0,2,,,,,,,,0,64,0,,
1440,note_on,0,0,1,,,,,,,,0,,,51,80
1440,note_on,74,0,1,,,,,,,,0,,,43,80
1530,control_change,90,0,2,,,,,,,,0,64,127,,
1620,note_on,90,0,2,,,,,,,,0,,,31,80
1655,note_on,35,0,2,,,,,,,,0,,,31,0
1665,note_on,10,0,2,,,,,,,,0,,,43,80
1676,note_on,11,0,2,,,,,,,,0,,,43,0
1679,note_on,3,0,2,,,,,,,,0,,,48,80
1691,note_on,12,0,2,,,,,,,,0,,,48,0
1694,note_on,3,0,2,,,,,,,,0,,,51,80
1705,note_on,11,0,2,,,,,,,,0,,,51,0
1710,note_on,5,0,2,,,,,,,,0,,,63,80
1721,note_on,11,0,2,,,,,,,,0,,,63,0
1724,note_on,3,0,2,,,,,,,,0,,,51,80
1726,note_on,286,0,1,,,,,,,,0,,,51,0
1726,note_on,0,0,1,,,,,,,,0,,,43,0
1726,note_on,0,0,1,,,,,,,,0,,,48,0
1736,note_on,12,0,2,,,,,,,,0,,,51,0
1739,note_on,3,0,2,,,,,,,,0,,,48,80
1750,note_on,11,0,2,,,,,,,,0,,,48,0
1755,note_on,5,0,2,,,,,,,,0,,,43,80
1790,note_on,35,0,2,,,,,,,,0,,,43,0
1800,note_on,0,0,1,,,,,,,,0,,,46,80
1800,note_on,0,0,1,,,,,,,,0,,,50,80
1800,note_on,74,0,1,,,,,,,,0,,,43,80
1800,control_change,10,0,2,,,,,,,,0,64,0,,
1890,control_change,90,0,2,,,,,,,,0,64,127,,
1980,note_on,90,0,2,,,,,,,,0,,,31,80
2015,note_on,35,0,2,,,,,,,,0,,,31,0
2025,note_on,10,0,2,,,,,,,,0,,,43,80
2036,note_on,11,0,2,,,,,,,,0,,,43,0
2039,note_on,3,0,2,,,,,,,,0,,,46,80
2051,note_on,12,0,2,,,,,,,,0,,,46,0
2054,note_on,3,0,2,,,,,,,,0,,,50,80
2065,note_on,11,0,2,,,,,,,,0,,,50,0
2070,note_on,5,0,2,,,,,,,,0,,,62,80
2081,note_on,11,0,2,,,,,,,,0,,,62,0
2084,note_on,3,0,2,,,,,,,,0,,,50,80
2086,note_on,0,0,1,,,,,,,,0,,,43,0
2086,note_on,0,0,1,,,,,,,,0,,,46,0
2086,note_on,286,0,1,,,,,,,,0,,,50,0
2096,note_on,12,0,2,,,,,,,,0,,,50,0
2099,note_on,3,0,2,,,,,,,,0,,,46,80
2110,note_on,11,0,2,,,,,,,,0,,,46,0
2115,note_on,5,0,2,,,,,,,,0,,,43,80
2150,note_on,35,0,2,,,,,,,,0,,,43,0
2160,note_on,74,0,1,,,,,,,,0,,,42,80
2160,note_on,0,0,1,,,,,,,,0,,,45,80
2160,control_change,10,0,2,,,,,,,,0,64,0,,
2160,note_on,0,0,1,,,,,,,,0,,,48,80
2250,control_change,90,0,2,,,,,,,,0,64,127,,
2340,note_on,90,0,2,,,,,,,,0,,,26,100
2375,note_on,35,0,2,,,,,,,,0,,,26,0
2385,note_on,10,0,2,,,,,,,,0,,,45,80
2396,note_on,11,0,2,,,,,,,,0,,,45,0
2399,note_on,3,0,2,,,,,,,,0,,,48,80
2411,note_on,12,0,2,,,,,,,,0,,,48,0
2414,note_on,3,0,2,,,,,,,,0,,,54,80
2425,note_on,11,0,2,,,,,,,,0,,,54,0
2430,note_on,5,0,2,,,,,,,,0,,,60,80
2441,note_on,11,0,2,,,,,,,,0,,,60,0
2444,note_on,3,0,2,,,,,,,,0,,,54,80
2446,note_on,0,0,1,,,,,,,,0,,,45,0
2446,note_on,286,0,1,,,,,,,,0,,,48,0
2446,note_on,0,0,1,,,,,,,,0,,,42,0
2456,note_on,12,0,2,,,,,,,,0,,,54,0
2459,note_on,3,0,2,,,,,,,,0,,,48,80
2470,note_on,11,0,2,,,,,,,,0,,,48,0
2475,note_on,5,0,2,,,,,,,,0,,,45,80
2510,note_on,35,0,2,,,,,,,,0,,,45,0
2520,note_on,74,0,1,,,,,,,,0,,,43,80
2520,note_on,0,0,1,,,,,,,,0,,,46,80
2520,control_change,10,0,2,,,,,,,,0,64,0,,
2610,control_change,90,0,2,,,,,,,,0,64,127,,
2700,note_on,90,0,2,,,,,,,,0,,,27,80
2735,note_on,35,0,2,,,,,,,,0,,,27,0
2745,note_on,10,0,2,,,,,,,,0,,,43,80
2756,note_on,11,0,2,,,,,,,,0,,,43,0
2759,note_on,3,0,2,,,,,,,,0,,,46,80
2771,note_on,12,0,2,,,,,,,,0,,,46,0
2774,note_on,3,0,2,,,,,,,,0,,,51,80
2785,note_on,11,0,2,,,,,,,,0,,,51,0
2790,note_on,5,0,2,,,,,,,,0,,,58,80
2801,note_on,11,0,2,,,,,,,,0,,,58,0
2804,note_on,3,0,2,,,,,,,,0,,,51,80
2806,note_on,286,0,1,,,,,,,,0,,,46,0
2806,note_on,0,0,1,,,,,,,,0,,,43,0
2816,note_on,12,0,2,,,,,,,,0,,,51,0
2819,note_on,3,0,2,,,,,,,,0,,,46,80
2830,note_on,11,0,2,,,,,,,,0,,,46,0
2835,note_on,5,0,2,,,,,,,,0,,,43,80
2870,note_on,35,0,2,,,,,,,,0,,,43,0
2880,note_on,74,0,1,,,,,,,,0,,,36,80
2880,note_on,0,0,1,,,,,,,,0,,,44,80
2880,note_on,0,0,1,,,,,,,,0,,,39,80
2880,control_change,10,0,2,,,,,,,,0,64,0,,
2970,control_change,90,0,2,,,,,,,,0,64,127,,
3060,note_on,90,0,2,,,,,,,,0,,,24,102
3095,note_on,35,0,2,,,,,,,,0,,,24,0
3105,note_on,10,0,2,,,,,,,,0,,,36,80
3116,note_on,11,0,2,,,,,,,,0,,,36,0
3119,note_on,3,0,2,,,,,,,,0,,,39,80
3131,note_on,12,0,2,,,,,,,,0,,,39,0
3134,note_on,3,0,2,,,,,,,,0,,,44,80
3145,note_on,11,0,2,,,,,,,,0,,,44,0
3150,note_on,5,0,2,,,,,,,,0,,,56,80
3161,note_on,11,0,2,,,,,,,,0,,,56,0
3164,note_on,3,0,2,,,,,,,,0,,,44,80
3166,note_on,0,0,1,,,,,,,,0,,,36,0
3166,note_on,0,0,1,,,,,,,,0,,,39,0
3166,note_on,286,0,1,,,,,,,,0,,,44,0
3176,note_on,12,0,2,,,,,,,,0,,,44,0
3179,note_on,3,0,2,,,,,,,,0,,,39,80
3190,note_on,11,0,2,,,,,,,,0,,,39,0
3195,note_on,5,0,2,,,,,,,,0,,,36,80
3230,note_on,35,0,2,,,,,,,,0,,,36,0
3240,note_on,74,0,1,,,,,,,,0,,,32,80
3240,control_change,10,0,2,,,,,,,,0,64,0,,
3240,note_on,0,0,1,,,,,,,,0,,,36,80
3240,note_on,0,0,1,,,,,,,,0,,,39,80
3330,control_change,90,0,2,,,,,,,,0,64,127,,
3420,note_on,90,0,2,,,,,,,,0,,,24,102
3455,note_on,35,0,2,,,,,,,,0,,,24,0
3465,note_on,10,0,2,,,,,,,,0,,,36,80
3476,note_on,11,0,2,,,,,,,,0,,,36,0
3479,note_on,3,0,2,,,,,,,,0,,,39,80
3491,note_on,12,0,2,,,,,,,,0,,,39,0
3494,note_on,3,0,2,,,,,,,,0,,,44,80
3505,note_on,11,0,2,,,,,,,,0,,,44,0
3510,note_on,5,0,2,,,,,,,,0,,,51,80
3521,note_on,11,0,2,,,,,,,,0,,,51,0
3524,note_on,3,0,2,,,,,,,,0,,,44,80
3526,note_on,0,0,1,,,,,,,,0,,,36,0
3526,note_on,286,0,1,,,,,,,,0,,,39,0
3526,note_on,0,0,1,,,,,,,,0,,,32,0
3536,note_on,12,0,2,,,,,,,,0,,,44,0
3539,note_on,3,0,2,,,,,,,,0,,,39,80
3550,note_on,11,0,2,,,,,,,,0,,,39,0
3555,note_on,5,0,2,,,,,,,,0,,,36,80
3590,note_on,35,0,2,,,,,,,,0,,,36,0
3600,note_on,0,0,1,,,,,,,,0,,,38,80
3600,note_on,0,0,1,,,,,,,,0,,,43,80
3600,note_on,74,0,1,,,,,,,,0,,,34,80
3600,control_change,10,0,2,,,,,,,,0,64,0,,
3690,control_change,90,0,2,,,,,,,,0,64,127,,
3780,note_on,90,0,2,,,,,,,,0,,,26,102
3815,note_on,35,0,2,,,,,,,,0,,,26,0
3825,note_on,10,0,2,,,,,,,,0,,,38,80
3836,note_on,11,0,2,,,,,,,,0,,,38,0
3839,note_on,3,0,2,,,,,,,,0,,,43,80
3851,note_on,12,0,2,,,,,,,,0,,,43,0
3854,note_on,3,0,2,,,,,,,,0,,,46,80
3865,note_on,11,0,2,,,,,,,,0,,,46,0
3870,note_on,5,0,2,,,,,,,,0,,,55,80
3881,note_on,11,0,2,,,,,,,,0,,,55,0
3884,note_on,3,0,2,,,,,,,,0,,,46,80
3886,note_on,0,0,1,,,,,,,,0,,,34,0
3886,note_on,286,0,1,,,,,,,,0,,,43,0
3886,note_on,0,0,1,,,,,,,,0,,,38,0
3896,note_on,12,0,2,,,,,,,,0,,,46,0
3899,note_on,3,0,2,,,,,,,,0,,,43,80
3910,note_on,11,0,2,,,,,,,,0,,,43,0
3915,note_on,5,0,2,,,,,,,,0,,,36,80
3950,note_on,35,0,2,,,,,,,,0,,,36,0
3960,note_on,74,0,1,,,,,,,,0,,,33,80
3960,note_on,0,0,1,,,,,,,,0,,,38,80
3960,note_on,0,0,1,,,,,,,,0,,,42,80
3960,control_change,10,0,2,,,,,,,,0,64,0,,
4050,control_change,90,0,2,,,,,,,,0,64,127,,
4140,note_on,90,0,2,,,,,,,,0,,,26,102
4175,note_on,35,0,2,,,,,,,,0,,,26,0
4185,note_on,10,0,2,,,,,,,,0,,,38,80
4196,note_on,11,0,2,,,,,,,,0,,,38,0
4199,note_on,3,0,2,,,,,,,,0,,,42,80
4211,note_on,12,0,2,,,,,,,,0,,,42,0
4214,note_on,3,0,2,,,,,,,,0,,,45,80
4225,note_on,11,0,2,,,,,,,,0,,,45,0
4230,note_on,5,0,2,,,,,,,,0,,,54,80
4241,note_on,11,0,2,,,,,,,,0,,,54,0
4244,note_on,3,0,2,,,,,,,,0,,,45,80
4246,note_on,286,0,1,,,,,,,,0,,,42,0
4246,note_on,0,0,1,,,,,,,,0,,,33,0
4246,note_on,0,0,1,,,,,,,,0,,,38,0
4256,note_on,12,0,2,,,,,,,,0,,,45,0
4259,note_on,3,0,2,,,,,,,,0,,,42,80
4270,note_on,11,0,2,,,,,,,,0,,,42,0
4275,note_on,5,0,2,,,,,,,,0,,,38,80
4310,note_on,35,0,2,,,,,,,,0,,,38,0
4320,note_on,74,0,1,,,,,,,,0,,,46,80
4320,control_change,10,0,2,,,,,,,,0,64,0,,
4320,note_on,0,0,1,,,,,,,,0,,,50,80
4410,control_change,90,0,2,,,,,,,,0,64,127,,
4500,note_on,90,0,2,,,,,,,,0,,,31,80
4535,note_on,35,0,2,,,,,,,,0,,,31,0
4545,note_on,10,0,2,,,,,,,,0,,,43,80
4556,note_on,11,0,2,,,,,,,,0,,,43,0
4559,note_on,3,0,2,,,,,,,,0,,,46,80
4571,note_on,12,0,2,,,,,,,,0,,,46,0
4574,note_on,3,0,2,,,,,,,,0,,,50,80
4585,note_on,11,0,2,,,,,,,,0,,,50,0
4590,note_on,5,0,2,,,,,,,,0,,,62,80
4601,note_on,11,0,2,,,,,,,,0,,,62,0
4604,note_on,3,0,2,,,,,,,,0,,,50,80
4606,note_on,286,0,1,,,,,,,,0,,,50,0
4606,note_on,0,0,1,,,,,,,,0,,,46,0
4616,note_on,12,0,2,,,,,,,,0,,,50,0
4619,note_on,3,0,2,,,,,,,,0,,,46,80
4630,note_on,11,0,2,,,,,,,,0,,,46,0
4635,note_on,5,0,2,,,,,,,,0,,,43,80
4670,note_on,35,0,2,,,,,,,,0,,,43,0
4680,note_on,0,0,1,,,,,,,,0,,,45,80
4680,control_change,10,0,2,,,,,,,,0,64,0,,
4680,note_on,74,0,1,,,,,,,,0,,,43,80
4680,note_on,0,0,1,,,,,,,,0,,,49,80
4770,control_change,90,0,2,,,,,,,,0,64,127,,
4860,note_on,90,0,2,,,,,,,,0,,,31,80
4895,note_on,35,0,2,,,,,,,,0,,,31,0
4905,note_on,10,0,2,,,,,,,,0,,,43,80
4916,note_on,11,0,2,,,,,,,,0,,,43,0
4919,note_on,3,0,2,,,,,,,,0,,,45,80
4931,note_on,12,0,2,,,,,,,,0,,,45,0
4934,note_on,3,0,2,,,,,,,,0,,,49,80
4945,note_on,11,0,2,,,,,,,,0,,,49,0
4950,note_on,5,0,2,,,,,,,,0,,,61,80
4961,note_on,11,0,2,,,,,,,,0,,,61,0
4964,note_on,3,0,2,,,,,,,,0,,,49,80
4966,note_on,0,0,1,,,,,,,,0,,,45,0
4966,note_on,0,0,1,,,,,,,,0,,,43,0
4966,note_on,286,0,1,,,,,,,,0,,,49,0
4976,note_on,12,0,2,,,,,,,,0,,,49,0
4979,note_on,3,0,2,,,,,,,,0,,,45,80
4990,note_on,11,0,2,,,,,,,,0,,,45,0
4995,note_on,5,0,2,,,,,,,,0,,,43,80
5030,note_on,35,0,2,,,,,,,,0,,,43,0
5040,note_on,74,0,1,,,,,,,,0,,,46,80
5040,note_on,0,0,1,,,,,,,,0,,,50,80
5040,control_change,10,0,2,,,,,,,,0,64,0,,
5130,control_change,90,0,2,,,,,,,,0,64,127,,
5220,note_on,90,0,2,,,,,,,,0,,,31,80
5255,note_on,35,0,2,,,,,,,,0,,,31,0
5265,note_on,10,0,2,,,,,,,,0,,,43,80
5276,note_on,11,0,2,,,,,,,,0,,,43,0
5279,note_on,3,0,2,,,,,,,,0,,,46,80
5291,note_on,12,0,2,,,,,,,,0,,,46,0
5294,note_on,3,0,2,,,,,,,,0,,,50,80
5305,note_on,11,0,2,,,,,,,,0,,,50,0
5310,note_on,5,0,2,,,,,,,,0,,,62,80
5321,note_on,11,0,2,,,,,,,,0,,,62,0
5324,note_on,3,0,2,,,,,,,,0,,,50,80
5326,note_on,286,0,1,,,,,,,,0,,,50,0
5326,note_on,0,0,1,,,,,,,,0,,,46,0
5336,note_on,12,0,2,,,,,,,,0,,,50,0
5339,note_on,3,0,2,,,,,,,,0,,,46,80
5350,note_on,11,0,2,,,,,,,,0,,,46,0
5355,note_on,5,0,2,,,,,,,,0,,,43,80
5390,note_on,35,0,2,,,,,,,,0,,,43,0
5400,control_change,10,0,2,,,,,,,,0,64,0,,
5400,note_on,74,0,1,,,,,,,,0,,,43,80
5400,note_on,0,0,1,,,,,,,,0,,,46,80
5490,control_change,90,0,2,,,,,,,,0,64,127,,
5580,note_on,90,0,2,,,,,,,,0,,,31,80
5615,note_on,35,0,2,,,,,,,,0,,,31,0
5625,note_on,10,0,2,,,,,,,,0,,,43,80
5636,note_on,11,0,2,,,,,,,,0,,,43,0
5639,note_on,3,0,2,,,,,,,,0,,,46,80
5651,note_on,12,0,2,,,,,,,,0,,,46,0
5654,note_on,3,0,2,,,,,,,,0,,,55,80
5665,note_on,11,0,2,,,,,,,,0,,,55,0
5670,note_on,5,0,2,,,,,,,,0,,,58,80
5681,note_on,11,0,2,,,,,,,,0,,,58,0
5684,note_on,3,0,2,,,,,,,,0,,,55,80
5686,note_on,286,0,1,,,,,,,,0,,,46,0
5686,note_on,0,0,1,,,,,,,,0,,,43,0
5696,note_on,12,0,2,,,,,,,,0,,,55,0
5699,note_on,3,0,2,,,,,,,,0,,,46,80
5710,note_on,11,0,2,,,,,,,,0,,,46,0
5715,note_on,5,0,2,,,,,,,,0,,,43,80
5750,note_on,35,0,2,,,,,,,,0,,,43,0
5760,note_on,74,0,1,,,,,,,,0,,,46,80
5760,note_on,0,0,1,,,,,,,,0,,,51,80
5760,control_change,10,0,2,,,,,,,,0,64,0,,
5850,control_change,90,0,2,,,,,,,,0,64,127,,
5940,note_on,90,0,2,,,,,,,,0,,,30,80
5975,note_on,35,0,2,,,,,,,,0,,,30,0
5985,note_on,10,0,2,,,,,,,,0,,,42,80
5996,note_on,11,0,2,,,,,,,,0,,,42,0
5999,note_on,3,0,2,,,,,,,,0,,,46,80
6011,note_on,12,0,2,,,,,,,,0,,,46,0
6014,note_on,3,0,2,,,,,,,,0,,,51,80
6025,note_on,11,0,2,,,,,,,,0,,,51,0
6030,note_on,5,0,2,,,,,,,,0,,,63,80
6041,note_on,11,0,2,,,,,,,,0,,,63,0
6044,note_on,3,0,2,,,,,,,,0,,,51,80
6046,note_on,286,0,1,,,,,,,,0,,,51,0
6046,note_on,0,0,1,,,,,,,,0,,,46,0
6056,note_on,12,0,2,,,,,,,,0,,,51,0
6059,note_on,3,0,2,,,,,,,,0,,,46,80
6070,note_on,11,0,2,,,,,,,,0,,,46,0
6075,note_on,5,0,2,,,,,,,,0,,,42,80
6110,note_on,35,0,2,,,,,,,,0,,,42,0
6120,note_on,0,0,1,,,,,,,,0,,,49,80
6120,note_on,74,0,1,,,,,,,,0,,,46,80
6120,note_on,0,0,1,,,,,,,,0,,,52,80
6120,control_change,10,0,2,,,,,,,,0,64,0,,
6210,control_change,90,0,2,,,,,,,,0,64,127,,
6300,note_on,90,0,2,,,,,,,,0,,,30,80
6335,note_on,35,0,2,,,,,,,,0,,,30,0
6345,note_on,10,0,2,,,,,,,,0,,,46,80
6356,note_on,11,0,2,,,,,,,,0,,,46,0
6359,note_on,3,0,2,,,,,,,,0,,,49,80
6371,note_on,12,0,2,,,,,,,,0,,,49,0
6374,note_on,3,0,2,,,,,,,,0,,,52,80
6385,note_on,11,0,2,,,,,,,,0,,,52,0
6390,note_on,5,0,2,,,,,,,,0,,,64,80
6401,note_on,11,0,2,,,,,,,,0,,,64,0
6404,note_on,3,0,2,,,,,,,,0,,,52,80
6406,note_on,0,0,1,,,,,,,,0,,,46,0
6406,note_on,0,0,1,,,,,,,,0,,,49,0
6406,note_on,286,0,1,,,,,,,,0,,,52,0
6416,note_on,12,0,2,,,,,,,,0,,,52,0
6419,note_on,3,0,2,,,,,,,,0,,,49,80
6430,note_on,11,0,2,,,,,,,,0,,,49,0
6435,note_on,5,0,2,,,,,,,,0,,,46,80
6470,note_on,35,0,2,,,,,,,,0,,,46,0
6480,control_change,10,0,2,,,,,,,,0,64,0,,
6480,note_on,74,0,1,,,,,,,,0,,,46,80
6480,note_on,0,0,1,,,,,,,,0,,,53,80
6480,note_on,0,0,1,,,,,,,,0,,,50,80
6570,control_change,90,0,2,,,,,,,,0,64,127,,
6660,note_on,90,0,2,,,,,,,,0,,,29,80
6695,note_on,35,0,2,,,,,,,,0,,,29,0
6705,note_on,10,0,2,,,,,,,,0,,,46,80
6716,note_on,11,0,2,,,,,,,,0,,,46,0
6719,note_on,3,0,2,,,,,,,,0,,,50,80
6731,note_on,12,0,2,,,,,,,,0,,,50,0
6734,note_on,3,0,2,,,,,,,,0,,,53,80
6745,note_on,11,0,2,,,,,,,,0,,,53,0
6750,note_on,5,0,2,,,,,,,,0,,,65,80
6761,note_on,11,0,2,,,,,,,,0,,,65,0
6764,note_on,3,0,2,,,,,,,,0,,,53,80
6766,note_on,0,0,1,,,,,,,,0,,,46,0
6766,note_on,0,0,1,,,,,,,,0,,,50,0
6766,note_on,286,0,1,,,,,,,,0,,,53,0
6776,note_on,12,0,2,,,,,,,,0,,,53,0
6779,note_on,3,0,2,,,,,,,,0,,,50,80
6790,note_on,11,0,2,,,,,,,,0,,,50,0
6795,note_on,5,0,2,,,,,,,,0,,,46,80
6830,note_on,35,0,2,,,,,,,,0,,,46,0
6840,control_change,10,0,2,,,,,,,,0,64,0,,
6840,note_on,0,0,1,,,,,,,,0,,,50,80
6840,note_on,0,0,1,,,,,,,,0,,,45,80
6840,note_on,0,0,1,,,,,,,,0,,,41,80
6840,note_on,74,0,1,,,,,,,,0,,,39,80
6930,control_change,90,0,2,,,,,,,,0,64,127,,
7020,note_on,90,0,2,,,,,,,,0,,,29,80
7055,note_on,35,0,2,,,,,,,,0,,,29,0
7065,note_on,10,0,2,,,,,,,,0,,,45,80
7076,note_on,11,0,2,,,,,,,,0,,,45,0
7079,note_on,3,0,2,,,,,,,,0,,,51,80
7091,note_on,12,0,2,,,,,,,,0,,,51,0
7094,note_on,3,0,2,,,,,,,,0,,,53,80
7105,note_on,11,0,2,,,,,,,,0,,,53,0
7110,note_on,5,0,2,,,,,,,,0,,,62,80
7121,note_on,11,0,2,,,,,,,,0,,,62,0
7124,note_on,3,0,2,,,,,,,,0,,,53,80
7126,note_on,0,0,1,,,,,,,,0,,,39,0
7126,note_on,0,0,1,,,,,,,,0,,,45,0
7126,note_on,286,0,1,,,,,,,,0,,,50,0
7126,note_on,0,0,1,,,,,,,,0,,,41,0
7136,note_on,12,0,2,,,,,,,,0,,,53,0
7139,note_on,3,0,2,,,,,,,,0,,,51,80
7150,note_on,11,0,2,,,,,,,,0,,,51,0
7155,note_on,5,0,2,,,,,,,,0,,,45,80
7190,note_on,35,0,2,,,,,,,,0,,,45,0
7200,note_on,74,0,1,,,,,,,,0,,,39,80
7200,note_on,0,0,1,,,,,,,,0,,,48,80
7200,note_on,0,0,1,,,,,,,,0,,,45,80
7200,control_change,10,0,2,,,,,,,,0,64,0,,
7200,note_on,0,0,1,,,,,,,,0,,,41,80
7290,control_change,90,0,2,,,,,,,,0,64,127,,
7380,note_on,90,0,2,,,,,,,,0,,,29,80
7415,note_on,35,0,2,,,,,,,,0,,,29,0
7425,note_on,10,0,2,,,,,,,,0,,,45,80
7436,note_on,11,0,2,,,,,,,,0,,,45,0
7439,note_on,3,0,2,,,,,,,,0,,,51,80
7451,note_on,12,0,2,,,,,,,,0,,,51,0
7454,note_on,3,0,2,,,,,,,,0,,,53,80
7465,note_on,11,0,2,,,,,,,,0,,,53,0
7470,note_on,5,0,2,,,,,,,,0,,,60,80
7481,note_on,11,0,2,,,,,,,,0,,,60,0
7484,note_on,3,0,2,,,,,,,,0,,,53,80
7486,note_on,286,0,1,,,,,,,,0,,,48,0
7486,note_on,0,0,1,,,,,,,,0,,,39,0
7486,note_on,0,0,1,,,,,,,,0,,,41,0
7486,note_on,0,0,1,,,,,,,,0,,,45,0
7496,note_on,12,0,2,,,,,,,,0,,,53,0
7499,note_on,3,0,2,,,,,,,,0,,,51,80
7510,note_on,11,0,2,,,,,,,,0,,,51,0
7515,note_on,5,0,2,,,,,,,,0,,,45,80
7550,note_on,35,0,2,,,,,,,,0,,,45,0
7560,note_on,74,0,1,,,,,,,,0,,,38,80
7560,control_change,10,0,2,,,,,,,,0,64,0,,
7560,note_on,0,0,1,,,,,,,,0,,,46,80
7560,note_on,0,0,1,,,,,,,,0,,,41,80
7650,control_change,90,0,2,,,,,,,,0,64,127,,
7740,note_on,90,0,2,,,,,,,,0,,,34,80
7796,note_on,56,0,2,,,,,,,,0,,,34,0
7799,note_on,3,0,2,,,,,,,,0,,,41,80
7811,note_on,12,0,2,,,,,,,,0,,,41,0
7814,note_on,3,0,2,,,,,,,,0,,,46,80
7825,note_on,11,0,2,,,,,,,,0,,,46,0
7830,note_on,5,0,2,,,,,,,,0,,,53,80
7841,note_on,11,0,2,,,,,,,,0,,,53,0
7844,note_on,3,0,2,,,,,,,,0,,,58,80
7846,note_on,286,0,1,,,,,,,,0,,,46,0
7846,note_on,0,0,1,,,,,,,,0,,,41,0
7846,note_on,0,0,1,,,,,,,,0,,,38,0
7856,note_on,12,0,2,,,,,,,,0,,,58,0
7859,note_on,3,0,2,,,,,,,,0,,,53,80
7870,note_on,11,0,2,,,,,,,,0,,,53,0
7875,note_on,5,0,2,,,,,,,,0,,,50,80
7886,note_on,11,0,2,,,,,,,,0,,,50,0
7889,note_on,3,0,2,,,,,,,,0,,,46,80
7901,note_on,12,0,2,,,,,,,,0,,,46,0
7904,note_on,3,0,2,,,,,,,,0,,,41,80
7915,note_on,11,0,2,,,,,,,,0,,,41,0
7920,note_on,5,0,2,,,,,,,,0,,,34,80
8010,control_change,90,0,2,,,,,,,,0,64,0,,
8100,note_on,0,0,1,,,,,,,,0,,,58,80
8100,note_on,254,0,1,,,,,,,,0,,,46,80
8135,note_on,125,0,2,,,,,,,,0,,,34,0
8243,note_on,143,0,1,,,,,,,,0,,,58,0
8243,note_on,0,0,1,,,,,,,,0,,,46,0
8280,note_on,0,0,1,,,,,,,,0,,,58,80
8280,note_on,37,0,1,,,,,,,,0,,,46,80
8423,note_on,143,0,1,,,,,,,,0,,,58,0
8423,note_on,0,0,1,,,,,,,,0,,,46,0
8460,note_on,0,0,1,,,,,,,,0,,,58,80
8460,note_on,37,0,1,,,,,,,,0,,,46,80
8603,note_on,143,0,1,,,,,,,,0,,,58,0
8603,note_on,0,0,1,,,,,,,,0,,,46,0
8640,note_on,0,0,1,,,,,,,,0,,,51,80
8640,note_on,37,0,1,,,,,,,,0,,,46,80
8640,note_on,0,0,1,,,,,,,,0,,,58,80
8640,control_change,505,0,2,,,,,,,,0,64,127,,
8640,note_on,0,0,1,,,,,,,,0,,,54,80
8820,note_on,180,0,2,,,,,,,,0,,,34,80
8855,note_on,35,0,2,,,,,,,,0,,,34,0
8865,note_on,10,0,2,,,,,,,,0,,,39,80
8881,note_on,16,0,2,,,,,,,,0,,,39,0
8887,note_on,6,0,2,,,,,,,,0,,,42,80
8906,note_on,19,0,2,,,,,,,,0,,,42,0
8910,note_on,4,0,2,,,,,,,,0,,,54,80
8926,note_on,0,0,1,,,,,,,,0,,,51,0
8926,note_on,0,0,1,,,,,,,,0,,,46,0
8926,note_on,0,0,1,,,,,,,,0,,,54,0
8926,note_on,286,0,1,,,,,,,,0,,,58,0
8928,note_on,18,0,2,,,,,,,,0,,,54,0
8933,note_on,5,0,2,,,,,,,,0,,,42,80
8950,note_on,0,0,2,,,,,,,,0,,,39,80
8950,note_on,17,0,2,,,,,,,,0,,,42,0
8969,note_on,19,0,2,,,,,,,,0,,,39,0
8969,note_on,0,0,2,,,,,,,,0,,,34,80
9000,note_on,0,0,1,,,,,,,,0,,,57,80
9000,note_on,0,0,1,,,,,,,,0,,,54,80
9000,note_on,74,0,1,,,,,,,,0,,,45,80
9000,note_on,0,0,1,,,,,,,,0,,,51,80
9000,control_change,31,0,2,,,,,,,,0,64,0,,
9005,note_on,5,0,2,,,,,,,,0,,,34,0
9090,control_change,85,0,2,,,,,,,,0,64,127,,
9180,note_on,90,0,2,,,,,,,,0,,,33,80
9215,note_on,35,0,2,,,,,,,,0,,,33,0
9225,note_on,10,0,2,,,,,,,,0,,,39,80
9241,note_on,16,0,2,,,,,,,,0,,,39,0
9247,note_on,6,0,2,,,,,,,,0,,,42,80
9266,note_on,19,0,2,,,,,,,,0,,,42,0
9270,note_on,4,0,2,,,,,,,,0,,,54,80
9286,note_on,286,0,1,,,,,,,,0,,,57,0
9286,note_on,0,0,1,,,,,,,,0,,,45,0
9286,note_on,0,0,1,,,,,,,,0,,,51,0
9286,note_on,0,0,1,,,,,,,,0,,,54,0
9288,note_on,18,0,2,,,,,,,,0,,,54,0
9293,note_on,5,0,2,,,,,,,,0,,,42,80
9310,note_on,17,0,2,,,,,,,,0,,,42,0
9310,note_on,0,0,2,,,,,,,,0,,,39,80
9329,note_on,0,0,2,,,,,,,,0,,,33,80
9329,note_on,19,0,2,,,,,,,,0,,,39,0
9360,note_on,74,0,1,,,,,,,,0,,,46,80
9360,note_on,0,0,1,,,,,,,,0,,,51,80
9360,note_on,0,0,1,,,,,,,,0,,,54,80
9360,control_change,31,0,2,,,,,,,,0,64,0,,
9360,note_on,0,0,1,,,,,,,,0,,,58,80
9365,note_on,5,0,2,,,,,,,,0,,,33,0
9450,control_change,85,0,2,,,,,,,,0,64,127,,
9540,note_on,90,0,2,,,,,,,,0,,,34,80
9575,note_on,35,0,2,,,,,,,,0,,,34,0
9585,note_on,10,0,2,,,,,,,,0,,,39,80
9601,note_on,16,0,2,,,,,,,,0,,,39,0
9607,note_on,6,0,2,,,,,,,,0,,,42,80
9626,note_on,19,0,2,,,,,,,,0,,,42,0
9630,note_on,4,0,2,,,,,,,,0,,,54,80
9646,note_on,286,0,1,,,,,,,,0,,,58,0
9646,note_on,0,0,1,,,,,,,,0,,,46,0
9646,note_on,0,0,1,,,,,,,,0,,,54,0
9646,note_on,0,0,1,,,,,,,,0,,,51,0
9648,note_on,18,0,2,,,,,,,,0,,,54,0
9653,note_on,5,0,2,,,,,,,,0,,,42,80
9670,note_on,17,0,2,,,,,,,,0,,,42,0
9670,note_on,0,0,2,,,,,,,,0,,,39,80
9689,note_on,19,0,2,,,,,,,,0,,,39,0
9697,note_on,8,0,2,,,,,,,,0,,,34,80
9702,note_on,5,0,2,,,,,,,,0,,,34,0
9720,note_on,0,0,1,,,,,,,,0,,,58,80
9720,note_on,74,0,1,,,,,,,,0,,,50,80
9720,control_change,18,0,2,,,,,,,,0,64,0,,
9720,note_on,0,0,1,,,,,,,,0,,,62,80
9720,note_on,0,0,1,,,,,,,,0,,,53,80
9810,control_change,90,0,2,,,,,,,,0,64,127,,
9900,note_on,90,0,2,,,,,,,,0,,,34,80
9956,note_on,56,0,2,,,,,,,,0,,,34,0
9956,note_on,0,0,2,,,,,,,,0,,,41,80
9968,note_on,12,0,2,,,,,,,,0,,,41,0
9968,note_on,0,0,2,,,,,,,,0,,,46,80
9980,note_on,0,0,2,,,,,,,,0,,,53,80
9980,note_on,12,0,2,,,,,,,,0,,,46,0
9992,note_on,0,0,2,,,,,,,,0,,,58,80
9992,note_on,12,0,2,,,,,,,,0,,,53,0
10004,note_on,0,0,2,,,,,,,,0,,,53,80
10004,note_on,12,0,2,,,,,,,,0,,,58,0
10006,note_on,0,0,1,,,,,,,,0,,,58,0
10006,note_on,0,0,1,,,,,,,,0,,,53,0
10006,note_on,0,0,1,,,,,,,,0,,,50,0
10006,note_on,286,0,1,,,,,,,,0,,,62,0
10016,note_on,0,0,2,,,,,,,,0,,,46,80
10016,note_on,12,0,2,,,,,,,,0,,,53,0
10027,note_on,11,0,2,,,,,,,,0,,,46,0
10027,note_on,0,0,2,,,,,,,,0,,,41,80
10040,note_on,13,0,2,,,,,,,,0,,,41,0
10043,note_on,3,0,2,,,,,,,,0,,,34,80
10170,control_change,127,0,2,,,,,,,,0,64,0,,
10188,note_on,18,0,2,,,,,,,,0,,,34,0
10260,note_on,254,0,1,,,,,,,,0,,,46,80
10260,note_on,0,0,1,,,,,,,,0,,,58,80
10403,note_on,143,0,1,,,,,,,,0,,,58,0
10403,note_on,0,0,1,,,,,,,,0,,,46,0
10440,note_on,37,0,1,,,,,,,,0,,,46,80
10440,note_on,0,0,1,,,,,,,,0,,,58,80
10583,note_on,143,0,1,,,,,,,,0,,,58,0
10583,note_on,0,0,1,,,,,,,,0,,,46,0
10620,note_on,0,0,1,,,,,,,,0,,,58,80
10620,note_on,37,0,1,,,,,,,,0,,,46,80
10763,note_on,0,0,1,,,,,,,,0,,,46,0
10763,note_on,143,0,1,,,,,,,,0,,,58,0
10800,note_on,37,0,1,,,,,,,,0,,,46,80
10800,note_on,0,0,1,,,,,,,,0,,,54,80
10800,control_change,612,0,2,,,,,,,,0,64,127,,
10800,note_on,0,0,1,,,,,,,,0,,,51,80
10800,note_on,0,0,1,,,,,,,,0,,,58,80
10980,note_on,180,0,2,,,,,,,,0,,,34,80
11015,note_on,35,0,2,,,,,,,,0,,,34,0
11025,note_on,10,0,2,,,,,,,,0,,,39,80
11041,note_on,16,0,2,,,,,,,,0,,,39,0
11047,note_on,6,0,2,,,,,,,,0,,,42,80
11064,note_on,17,0,2,,,,,,,,0,,,42,0
11070,note_on,6,0,2,,,,,,,,0,,,54,80
11086,note_on,286,0,1,,,,,,,,0,,,58,0
11086,note_on,0,0,1,,,,,,,,0,,,46,0
11086,note_on,0,0,1,,,,,,,,0,,,51,0
11086,note_on,0,0,1,,,,,,,,0,,,54,0
11086,note_on,16,0,2,,,,,,,,0,,,54,0
11092,note_on,6,0,2,,,,,,,,0,,,42,80
11109,note_on,17,0,2,,,,,,,,0,,,42,0
11115,note_on,6,0,2,,,,,,,,0,,,39,80
11131,note_on,16,0,2,,,,,,,,0,,,39,0
11137,note_on,6,0,2,,,,,,,,0,,,34,80
11154,note_on,17,0,2,,,,,,,,0,,,34,0
11160,note_on,74,0,1,,,,,,,,0,,,45,80
11160,note_on,0,0,1,,,,,,,,0,,,54,80
11160,note_on,0,0,1,,,,,,,,0,,,51,80
11160,note_on,0,0,1,,,,,,,,0,,,57,80
11163,control_change,9,0,2,,,,,,,,0,64,0,,
11205,control_change,42,0,2,,,,,,,,0,64,127,,
11340,note_on,135,0,2,,,,,,,,0,,,33,80
11375,note_on,35,0,2,,,,,,,,0,,,33,0
11385,note_on,10,0,2,,,,,,,,0,,,39,80
11401,note_on,16,0,2,,,,,,,,0,,,39,0
11407,note_on,6,0,2,,,,,,,,0,,,42,80
11424,note_on,17,0,2,,,,,,,,0,,,42,0
11430,note_on,6,0,2,,,,,,,,0,,,54,80
11446,note_on,0,0,1,,,,,,,,0,,,45,0
11446,note_on,16,0,2,,,,,,,,0,,,54,0
11446,note_on,0,0,1,,,,,,,,0,,,51,0
11446,note_on,0,0,1,,,,,,,,0,,,54,0
11446,note_on,286,0,1,,,,,,,,0,,,57,0
11452,note_on,6,0,2,,,,,,,,0,,,42,80
11469,note_on,17,0,2,,,,,,,,0,,,42,0
11475,note_on,6,0,2,,,,,,,,0,,,39,80
11491,note_on,16,0,2,,,,,,,,0,,,39,0
11497,note_on,6,0,2,,,,,,,,0,,,34,80
11514,note_on,17,0,2,,,,,,,,0,,,34,0
11520,note_on,0,0,1,,,,,,,,0,,,51,80
11520,note_on,74,0,1,,,,,,,,0,,,46,80
11520,control_change,6,0,2,,,,,,,,0,64,0,,
11520,note_on,0,0,1,,,,,,,,0,,,54,80
11520,note_on,0,0,1,,,,,,,,0,,,58,80
11557,control_change,37,0,2,,,,,,,,0,64,127,,
11700,note_on,143,0,2,,,,,,,,0,,,34,80
11735,note_on,35,0,2,,,,,,,,0,,,34,0
11745,note_on,10,0,2,,,,,,,,0,,,39,80
11761,note_on,16,0,2,,,,,,,,0,,,39,0
11765,note_on,4,0,2,,,,,,,,0,,,42,80
11784,note_on,19,0,2,,,,,,,,0,,,42,0
11790,note_on,6,0,2,,,,,,,,0,,,54,80
11806,note_on,0,0,1,,,,,,,,0,,,51,0
11806,note_on,0,0,1,,,,,,,,0,,,54,0
11806,note_on,286,0,1,,,,,,,,0,,,58,0
11806,note_on,0,0,1,,,,,,,,0,,,46,0
11808,note_on,18,0,2,,,,,,,,0,,,54,0
11813,note_on,5,0,2,,,,,,,,0,,,42,80
11830,note_on,0,0,2,,,,,,,,0,,,39,80
11830,note_on,17,0,2,,,,,,,,0,,,42,0
11849,note_on,19,0,2,,,,,,,,0,,,39,0
11857,note_on,8,0,2,,,,,,,,0,,,34,80
11873,note_on,16,0,2,,,,,,,,0,,,34,0
11880,control_change,0,0,2,,,,,,,,0,64,127,,
11880,note_on,0,0,1,,,,,,,,0,,,62,80
11880,note_on,74,0,1,,,,,,,,0,,,50,80
11880,control_change,7,0,2,,,,,,,,0,64,0,,
11880,note_on,0,0,1,,,,,,,,0,,,54,80
12060,note_on,180,0,2,,,,,,,,0,,,38,80
12119,note_on,0,0,2,,,,,,,,0,,,45,80
12119,note_on,59,0,2,,,,,,,,0,,,38,0
12137,note_on,18,0,2,,,,,,,,0,,,45,0
12141,note_on,4,0,2,,,,,,,,0,,,50,80
12159,note_on,18,0,2,,,,,,,,0,,,50,0
12164,note_on,5,0,2,,,,,,,,0,,,57,80
12166,note_on,0,0,1,,,,,,,,0,,,50,0
12166,note_on,286,0,1,,,,,,,,0,,,62,0
12166,note_on,0,0,1,,,,,,,,0,,,54,0
12182,note_on,18,0,2,,,,,,,,0,,,57,0
12186,note_on,4,0,2,,,,,,,,0,,,50,80
12204,note_on,18,0,2,,,,,,,,0,,,50,0
12209,note_on,5,0,2,,,,,,,,0,,,45,80
12227,note_on,18,0,2,,,,,,,,0,,,45,0
12231,note_on,4,0,2,,,,,,,,0,,,38,80
12330,control_change,99,0,2,,,,,,,,0,64,0,,
12376,note_on,46,0,2,,,,,,,,0,,,38,0
12420,note_on,0,0,1,,,,,,,,0,,,62,80
12420,note_on,254,0,1,,,,,,,,0,,,50,80
12563,note_on,0,0,1,,,,,,,,0,,,50,0
12563,note_on,143,0,1,,,,,,,,0,,,62,0
12600,note_on,37,0,1,,,,,,,,0,,,50,80
12600,note_on,0,0,1,,,,,,,,0,,,62,80
12743,note_on,0,0,1,,,,,,,,0,,,50,0
12743,note_on,143,0,1,,,,,,,,0,,,62,0
12780,note_on,0,0,1,,,,,,,,0,,,62,80
12780,note_on,37,0,1,,,,,,,,0,,,50,80
12905,note_on,125,0,1,,,,,,,,0,,,62,0
12905,note_on,0,0,1,,,,,,,,0,,,50,0
12937,note_on,32,0,1,,,,,,,,0,,,50,80
12947,note_on,10,0,1,,,,,,,,0,,,54,80
12960,control_change,13,0,1,,,,,,,,0,64,127,,
12960,set_tempo,0,1,0,,,,,,555556,,,,,,
12960,note_on,0,0,1,,,,,,,,0,,,62,80
12960,time_signature,12960,1,0,6,2,48,8,,,,,,,,
13050,note_on,13050,0,3,,,,,,,,0,,,66,76
13121,note_on,71,0,3,,,,,,,,0,,,66,0
13140,note_on,19,0,3,,,,,,,,0,,,74,76
13211,note_on,71,0,3,,,,,,,,0,,,74,0
13230,note_on,19,0,3,,,,,,,,0,,,78,76
13301,note_on,71,0,3,,,,,,,,0,,,78,0
13320,note_on,19,0,3,,,,,,,,0,,,86,76
13391,note_on,71,0,3,,,,,,,,0,,,86,0
13410,note_on,19,0,3,,,,,,,,0,,,78,76
13481,note_on,71,0,3,,,,,,,,0,,,78,0
13500,note_on,19,0,3,,,,,,,,0,,,74,76
13571,note_on,71,0,3,,,,,,,,0,,,74,0
13590,note_on,19,0,3,,,,,,,,0,,,66,76
13661,note_on,71,0,3,,,,,,,,0,,,66,0
13680,control_change,720,0,1,,,,,,,,0,64,0,,
13680,note_on,1304,0,2,,,,,,,,0,,,35,76
13694,control_change,14,0,1,,,,,,,,0,64,127,,
13751,note_on,71,0,2,,,,,,,,0,,,35,0
13770,note_on,19,0,2,,,,,,,,0,,,47,76
13841,note_on,71,0,2,,,,,,,,0,,,47,0
13860,note_on,19,0,2,,,,,,,,0,,,50,76
13931,note_on,71,0,2,,,,,,,,0,,,50,0
13950,note_on,19,0,2,,,,,,,,0,,,54,76
14021,note_on,71,0,2,,,,,,,,0,,,54,0
14040,note_on,19,0,2,,,,,,,,0,,,62,80
14111,note_on,71,0,2,,,,,,,,0,,,62,0
14130,note_on,19,0,2,,,,,,,,0,,,54,76
14201,note_on,71,0,2,,,,,,,,0,,,54,0
14220,note_on,19,0,2,,,,,,,,0,,,50,76
14291,note_on,71,0,2,,,,,,,,0,,,50,0
14310,note_on,19,0,2,,,,,,,,0,,,47,76
14322,note_on,628,0,1,,,,,,,,0,,,50,0
14332,note_on,10,0,1,,,,,,,,0,,,54,0
14345,note_on,13,0,1,,,,,,,,0,,,62,0
14355,note_on,10,0,1,,,,,,,,0,,,49,80
14377,note_on,22,0,1,,,,,,,,0,,,53,80
14381,note_on,71,0,2,,,,,,,,0,,,47,0
14400,note_on,23,0,1,,,,,,,,0,,,61,80
14402,control_change,2,0,1,,,,,,,,0,64,0,,
14423,control_change,21,0,1,,,,,,,,0,64,127,,
14490,note_on,829,0,3,,,,,,,,0,,,65,76
14561,note_on,71,0,3,,,,,,,,0,,,65,0
14580,note_on,19,0,3,,,,,,,,0,,,73,76
14651,note_on,71,0,3,,,,,,,,0,,,73,0
14670,note_on,19,0,3,,,,,,,,0,,,77,76
14741,note_on,71,0,3,,,,,,,,0,,,77,0
14760,note_on,19,0,3,,,,,,,,0,,,85,76
14831,note_on,71,0,3,,,,,,,,0,,,85,0
14850,note_on,19,0,3,,,,,,,,0,,,77,76
14921,note_on,71,0,3,,,,,,,,0,,,77,0
14940,note_on,19,0,3,,,,,,,,0,,,73,76
15011,note_on,71,0,3,,,,,,,,0,,,73,0
15030,note_on,19,0,3,,,,,,,,0,,,65,76
15101,note_on,71,0,3,,,,,,,,0,,,65,0
15120,note_on,739,0,2,,,,,,,,0,,,35,76
15125,control_change,702,0,1,,,,,,,,0,64,0,,
15143,control_change,18,0,1,,,,,,,,0,64,127,,
15191,note_on,71,0,2,,,,,,,,0,,,35,0
15210,note_on,19,0,2,,,,,,,,0,,,47,76
15281,note_on,71,0,2,,,,,,,,0,,,47,0
15300,note_on,19,0,2,,,,,,,,0,,,49,76
15371,note_on,71,0,2,,,,,,,,0,,,49,0
15390,note_on,19,0,2,,,,,,,,0,,,53,76
15461,note_on,71,0,2,,,,,,,,0,,,53,0
15480,note_on,19,0,2,,,,,,,,0,,,61,80
15551,note_on,71,0,2,,,,,,,,0,,,61,0
15570,note_on,19,0,2,,,,,,,,0,,,53,76
15641,note_on,71,0,2,,,,,,,,0,,,53,0
15660,note_on,19,0,2,,,,,,,,0,,,49,76
15731,note_on,71,0,2,,,,,,,,0,,,49,0
15750,note_on,19,0,2,,,,,,,,0,,,47,76
15785,note_on,642,0,1,,,,,,,,0,,,61,0
15785,note_on,0,0,1,,,,,,,,0,,,53,0
15785,note_on,0,0,1,,,,,,,,0,,,49,0
15795,note_on,10,0,1,,,,,,,,0,,,50,80
15817,note_on,22,0,1,,,,,,,,0,,,54,80
15821,note_on,71,0,2,,,,,,,,0,,,47,0
15836,control_change,19,0,1,,,,,,,,0,64,0,,
15840,note_on,4,0,1,,,,,,,,0,,,62,80
15858,control_change,18,0,1,,,,,,,,0,64,127,,
15930,note_on,829,0,3,,,,,,,,0,,,66,76
16001,note_on,71,0,3,,,,,,,,0,,,66,0
16020,note_on,19,0,3,,,,,,,,0,,,74,76
16091,note_on,71,0,3,,,,,,,,0,,,74,0
16110,note_on,19,0,3,,,,,,,,0,,,78,76
16181,note_on,71,0,3,,,,,,,,0,,,78,0
16200,note_on,19,0,3,,,,,,,,0,,,86,76
16271,note_on,71,0,3,,,,,,,,0,,,86,0
16290,note_on,19,0,3,,,,,,,,0,,,78,76
16361,note_on,71,0,3,,,,,,,,0,,,78,0
16380,note_on,19,0,3,,,,,,,,0,,,74,76
16451,note_on,71,0,3,,,,,,,,0,,,74,0
16470,note_on,19,0,3,,,,,,,,0,,,66,76
16541,note_on,71,0,3,,,,,,,,0,,,66,0
16560,note_on,739,0,2,,,,,,,,0,,,35,76
16560,control_change,702,0,1,,,,,,,,0,64,0,,
16578,control_change,18,0,1,,,,,,,,0,64,127,,
16631,note_on,71,0,2,,,,,,,,0,,,35,0
16650,note_on,19,0,2,,,,,,,,0,,,47,76
16721,note_on,71,0,2,,,,,,,,0,,,47,0
16740,note_on,19,0,2,,,,,,,,0,,,50,76
16811,note_on,71,0,2,,,,,,,,0,,,50,0
16830,note_on,19,0,2,,,,,,,,0,,,54,76
16901,note_on,71,0,2,,,,,,,,0,,,54,0
16920,note_on,19,0,2,,,,,,,,0,,,62,80
16991,note_on,71,0,2,,,,,,,,0,,,62,0
17010,note_on,19,0,2,,,,,,,,0,,,54,76
17081,note_on,71,0,2,,,,,,,,0,,,54,0
17100,note_on,19,0,2,,,,,,,,0,,,50,76
17171,note_on,71,0,2,,,,,,,,0,,,50,0
17190,note_on,19,0,2,,,,,,,,0,,,47,76
17225,note_on,0,0,1,,,,,,,,0,,,54,0
17225,note_on,647,0,1,,,,,,,,0,,,62,0
17225,note_on,0,0,1,,,,,,,,0,,,50,0
17235,note_on,10,0,1,,,,,,,,0,,,47,80
17257,note_on,22,0,1,,,,,,,,0,,,50,80
17261,note_on,71,0,2,,,,,,,,0,,,47,0
17280,note_on,23,0,1,,,,,,,,0,,,54,80
17280,note_on,0,0,1,,,,,,,,0,,,59,80
17298,control_change,18,0,1,,,,,,,,0,64,0,,
17301,control_change,3,0,1,,,,,,,,0,64,127,,
17370,note_on,829,0,3,,,,,,,,0,,,62,76
17441,note_on,71,0,3,,,,,,,,0,,,62,0
17460,note_on,19,0,3,,,,,,,,0,,,71,76
17531,note_on,71,0,3,,,,,,,,0,,,71,0
17550,note_on,19,0,3,,,,,,,,0,,,74,76
17621,note_on,71,0,3,,,,,,,,0,,,74,0
17640,note_on,19,0,3,,,,,,,,0,,,83,76
17711,note_on,71,0,3,,,,,,,,0,,,83,0
17730,note_on,19,0,3,,,,,,,,0,,,74,76
17801,note_on,71,0,3,,,,,,,,0,,,74,0
17820,note_on,19,0,3,,,,,,,,0,,,71,76
17891,note_on,71,0,3,,,,,,,,0,,,71,0
17910,note_on,19,0,3,,,,,,,,0,,,62,76
17981,note_on,71,0,3,,,,,,,,0,,,62,0
18000,control_change,699,0,1,,,,,,,,0,64,0,,
18000,note_on,739,0,2,,,,,,,,0,,,35,76
18021,control_change,21,0,1,,,,,,,,0,64,127,,
18071,note_on,71,0,2,,,,,,,,0,,,35,0
18090,note_on,19,0,2,,,,,,,,0,,,47,76
18161,note_on,71,0,2,,,,,,,,0,,,47,0
18180,note_on,19,0,2,,,,,,,,0,,,50,76
18251,note_on,71,0,2,,,,,,,,0,,,50,0
18270,note_on,19,0,2,,,,,,,,0,,,54,76
18341,note_on,71,0,2,,,,,,,,0,,,54,0
18360,note_on,19,0,2,,,,,,,,0,,,59,76
18431,note_on,71,0,2,,,,,,,,0,,,59,0
18450,note_on,19,0,2,,,,,,,,0,,,54,76
18521,note_on,71,0,2,,,,,,,,0,,,54,0
18540,note_on,19,0,2,,,,,,,,0,,,50,76
18611,note_on,71,0,2,,,,,,,,0,,,50,0
18620,note_on,599,0,1,,,,,,,,0,,,47,0
18630,note_on,19,0,2,,,,,,,,0,,,47,76
18642,note_on,22,0,1,,,,,,,,0,,,50,0
18665,note_on,0,0,1,,,,,,,,0,,,59,0
18665,note_on,23,0,1,,,,,,,,0,,,54,0
18675,note_on,10,0,1,,,,,,,,0,,,52,80
18697,note_on,22,0,1,,,,,,,,0,,,55,80
18701,note_on,71,0,2,,,,,,,,0,,,47,0
18715,control_change,18,0,1,,,,,,,,0,64,0,,
18720,note_on,5,0,1,,,,,,,,0,,,64,80
18736,control_change,16,0,1,,,,,,,,0,64,127,,
18810,note_on,829,0,3,,,,,,,,0,,,67,76
18881,note_on,71,0,3,,,,,,,,0,,,67,0
18900,note_on,19,0,3,,,,,,,,0,,,76,76
18971,note_on,71,0,3,,,,,,,,0,,,76,0
18990,note_on,19,0,3,,,,,,,,0,,,79,76
19061,note_on,71,0,3,,,,,,,,0,,,79,0
19080,note_on,19,0,3,,,,,,,,0,,,88,76
19151,note_on,71,0,3,,,,,,,,0,,,88,0
19170,note_on,19,0,3,,,,,,,,0,,,79,76
19241,note_on,71,0,3,,,,,,,,0,,,79,0
19260,note_on,19,0,3,,,,,,,,0,,,76,76
19331,note_on,71,0,3,,,,,,,,0,,,76,0
19350,note_on,19,0,3,,,,,,,,0,,,67,76
19421,note_on,71,0,3,,,,,,,,0,,,67,0
19437,control_change,701,0,1,,,,,,,,0,64,0,,
19440,note_on,739,0,2,,,,,,,,0,,,35,76
19453,control_change,16,0,1,,,,,,,,0,64,127,,
19511,note_on,71,0,2,,,,,,,,0,,,35,0
19530,note_on,19,0,2,,,,,,,,0,,,47,76
19601,note_on,71,0,2,,,,,,,,0,,,47,0
19620,note_on,19,0,2,,,,,,,,0,,,52,76
19691,note_on,71,0,2,,,,,,,,0,,,52,0
19710,note_on,19,0,2,,,,,,,,0,,,55,76
19781,note_on,71,0,2,,,,,,,,0,,,55,0
19800,note_on,19,0,2,,,,,,,,0,,,64,80
19871,note_on,71,0,2,,,,,,,,0,,,64,0
19890,note_on,19,0,2,,,,,,,,0,,,55,76
19961,note_on,71,0,2,,,,,,,,0,,,55,0
19980,note_on,19,0,2,,,,,,,,0,,,52,76
20051,note_on,71,0,2,,,,,,,,0,,,52,0
20070,note_on,19,0,2,,,,,,,,0,,,47,76
20105,note_on,652,0,1,,,,,,,,0,,,64,0
20105,note_on,0,0,1,,,,,,,,0,,,52,0
20105,note_on,0,0,1,,,,,,,,0,,,55,0
20115,note_on,10,0,1,,,,,,,,0,,,50,80
20137,note_on,22,0,1,,,,,,,,0,,,54,80
20141,note_on,71,0,2,,,,,,,,0,,,47,0
20152,control_change,15,0,1,,,,,,,,0,64,0,,
20160,note_on,8,0,1,,,,,,,,0,,,62,80
20179,control_change,19,0,1,,,,,,,,0,64,127,,
20250,note_on,829,0,3,,,,,,,,0,,,66,76
20321,note_on,71,0,3,,,,,,,,0,,,66,0
20340,note_on,19,0,3,,,,,,,,0,,,74,76
20411,note_on,71,0,3,,,,,,,,0,,,74,0
20430,note_on,19,0,3,,,,,,,,0,,,78,76
20501,note_on,71,0,3,,,,,,,,0,,,78,0
20520,note_on,19,0,3,,,,,,,,0,,,86,76
20591,note_on,71,0,3,,,,,,,,0,,,86,0
20610,note_on,19,0,3,,,,,,,,0,,,78,76
20681,note_on,71,0,3,,,,,,,,0,,,78,0
20700,note_on,19,0,3,,,,,,,,0,,,74,76
20771,note_on,71,0,3,,,,,,,,0,,,74,0
20790,note_on,19,0,3,,,,,,,,0,,,66,76
20861,note_on,71,0,3,,,,,,,,0,,,66,0
20877,control_change,698,0,1,,,,,,,,0,64,0,,
20880,note_on,739,0,2,,,,,,,,0,,,35,76
20899,control_change,22,0,1,,,,,,,,0,64,127,,
20951,note_on,71,0,2,,,,,,,,0,,,35,0
20970,note_on,19,0,2,,,,,,,,0,,,47,76
21041,note_on,71,0,2,,,,,,,,0,,,47,0
21060,note_on,19,0,2,,,,,,,,0,,,50,76
21131,note_on,71,0,2,,,,,,,,0,,,50,0
21150,note_on,19,0,2,,,,,,,,0,,,54,76
21221,note_on,71,0,2,,,,,,,,0,,,54,0
21240,note_on,19,0,2,,,,,,,,0,,,62,80
21311,note_on,71,0,2,,,,,,,,0,,,62,0
21330,note_on,19,0,2,,,,,,,,0,,,54,76
21401,note_on,71,0,2,,,,,,,,0,,,54,0
21420,note_on,19,0,2,,,,,,,,0,,,50,76
21491,note_on,71,0,2,,,,,,,,0,,,50,0
21510,note_on,19,0,2,,,,,,,,0,,,47,76
21545,note_on,0,0,1,,,,,,,,0,,,50,0
21545,note_on,0,0,1,,,,,,,,0,,,54,0
21545,note_on,646,0,1,,,,,,,,0,,,62,0
21555,note_on,10,0,1,,,,,,,,0,,,48,80
21577,note_on,22,0,1,,,,,,,,0,,,52,80
21581,note_on,71,0,2,,,,,,,,0,,,47,0
21600,note_on,23,0,1,,,,,,,,0,,,60,80
21619,control_change,19,0,1,,,,,,,,0,64,0,,
21624,control_change,5,0,1,,,,,,,,0,64,127,,
21690,note_on,829,0,3,,,,,,,,0,,,64,76
21761,note_on,71,0,3,,,,,,,,0,,,64,0
21780,note_on,19,0,3,,,,,,,,0,,,72,76
21851,note_on,71,0,3,,,,,,,,0,,,72,0
21870,note_on,19,0,3,,,,,,,,0,,,76,76
21941,note_on,71,0,3,,,,,,,,0,,,76,0
21960,note_on,19,0,3,,,,,,,,0,,,84,76
22031,note_on,71,0,3,,,,,,,,0,,,84,0
22050,note_on,19,0,3,,,,,,,,0,,,76,76
22121,note_on,71,0,3,,,,,,,,0,,,76,0
22140,note_on,19,0,3,,,,,,,,0,,,72,76
22211,note_on,71,0,3,,,,,,,,0,,,72,0
22230,note_on,19,0,3,,,,,,,,0,,,64,76
22301,note_on,71,0,3,,,,,,,,0,,,64,0
22320,control_change,696,0,1,,,,,,,,0,64,0,,
22320,note_on,739,0,2,,,,,,,,0,,,40,76
22341,control_change,21,0,1,,,,,,,,0,64,127,,
22391,note_on,71,0,2,,,,,,,,0,,,40,0
22410,note_on,19,0,2,,,,,,,,0,,,48,76
22481,note_on,71,0,2,,,,,,,,0,,,48,0
22500,note_on,19,0,2,,,,,,,,0,,,52,76
22571,note_on,71,0,2,,,,,,,,0,,,52,0
22590,note_on,19,0,2,,,,,,,,0,,,55,76
22661,note_on,71,0,2,,,,,,,,0,,,55,0
22680,note_on,19,0,2,,,,,,,,0,,,60,80
22751,note_on,71,0,2,,,,,,,,0,,,60,0
22770,note_on,19,0,2,,,,,,,,0,,,55,76
22841,note_on,71,0,2,,,,,,,,0,,,55,0
22860,note_on,19,0,2,,,,,,,,0,,,52,76
22931,note_on,71,0,2,,,,,,,,0,,,52,0
22940,note_on,599,0,1,,,,,,,,0,,,48,0
22950,note_on,19,0,2,,,,,,,,0,,,48,76
22962,note_on,22,0,1,,,,,,,,0,,,52,0
22985,note_on,23,0,1,,,,,,,,0,,,60,0
22995,note_on,10,0,1,,,,,,,,0,,,43,80
23009,note_on,14,0,1,,,,,,,,0,,,48,80
23021,note_on,71,0,2,,,,,,,,0,,,48,0
23024,note_on,15,0,1,,,,,,,,0,,,52,80
23040,note_on,16,0,1,,,,,,,,0,,,55,80
23043,control_change,3,0,1,,,,,,,,0,64,0,,
23064,control_change,21,0,1,,,,,,,,0,64,127,,
23130,note_on,829,0,3,,,,,,,,0,,,60,76
23201,note_on,71,0,3,,,,,,,,0,,,60,0
23220,note_on,19,0,3,,,,,,,,0,,,67,76
23291,note_on,71,0,3,,,,,,,,0,,,67,0
23310,note_on,19,0,3,,,,,,,,0,,,72,76
23381,note_on,71,0,3,,,,,,,,0,,,72,0
23400,note_on,19,0,3,,,,,,,,0,,,79,76
23471,note_on,71,0,3,,,,,,,,0,,,79,0
23490,note_on,19,0,3,,,,,,,,0,,,72,76
23561,note_on,71,0,3,,,,,,,,0,,,72,0
23580,note_on,19,0,3,,,,,,,,0,,,67,76
23651,note_on,71,0,3,,,,,,,,0,,,67,0
23670,note_on,19,0,3,,,,,,,,0,,,60,76
23741,note_on,71,0,3,,,,,,,,0,,,60,0
23760,control_change,696,0,1,,,,,,,,0,64,0,,
23760,note_on,739,0,2,,,,,,,,0,,,28,76
23784,control_change,24,0,1,,,,,,,,0,64,127,,
23831,note_on,71,0,2,,,,,,,,0,,,28,0
23850,note_on,19,0,2,,,,,,,,0,,,40,76
23921,note_on,71,0,2,,,,,,,,0,,,40,0
23940,note_on,19,0,2,,,,,,,,0,,,43,76
24011,note_on,71,0,2,,,,,,,,0,,,43,0
24030,note_on,19,0,2,,,,,,,,0,,,48,76
24101,note_on,71,0,2,,,,,,,,0,,,48,0
24120,note_on,19,0,2,,,,,,,,0,,,55,76
24191,note_on,71,0,2,,,,,,,,0,,,55,0
24210,note_on,19,0,2,,,,,,,,0,,,48,76
24281,note_on,71,0,2,,,,,,,,0,,,48,0
24300,note_on,19,0,2,,,,,,,,0,,,43,76
24371,note_on,71,0,2,,,,,,,,0,,,43,0
24390,note_on,19,0,2,,,,,,,,0,,,40,76
24425,note_on,0,0,1,,,,,,,,0,,,52,0
24425,note_on,0,0,1,,,,,,,,0,,,48,0
24425,note_on,0,0,1,,,,,,,,0,,,43,0
24425,note_on,641,0,1,,,,,,,,0,,,55,0
24435,note_on,10,0,1,,,,,,,,0,,,47,80
24457,note_on,22,0,1,,,,,,,,0,,,50,80
24461,note_on,71,0,2,,,,,,,,0,,,40,0
24477,control_change,20,0,1,,,,,,,,0,64,0,,
24480,note_on,3,0,1,,,,,,,,0,,,56,80
24480,note_on,0,0,1,,,,,,,,0,,,59,80
24499,control_change,19,0,1,,,,,,,,0,64,127,,
24570,note_on,829,0,3,,,,,,,,0,,,62,76
24641,note_on,71,0,3,,,,,,,,0,,,62,0
24660,note_on,19,0,3,,,,,,,,0,,,71,76
24731,note_on,71,0,3,,,,,,,,0,,,71,0
24750,note_on,19,0,3,,,,,,,,0,,,74,76
24821,note_on,71,0,3,,,,,,,,0,,,74,0
24840,note_on,19,0,3,,,,,,,,0,,,83,76
24911,note_on,71,0,3,,,,,,,,0,,,83,0
24930,note_on,19,0,3,,,,,,,,0,,,74,76
25001,note_on,71,0,3,,,,,,,,0,,,74,0
25020,note_on,19,0,3,,,,,,,,0,,,71,76
25091,note_on,71,0,3,,,,,,,,0,,,71,0
25110,note_on,19,0,3,,,,,,,,0,,,62,76
25181,note_on,71,0,3,,,,,,,,0,,,62,0
25197,control_change,698,0,1,,,,,,,,0,64,0,,
25200,note_on,739,0,2,,,,,,,,0,,,29,76
25221,control_change,24,0,1,,,,,,,,0,64,127,,
25271,note_on,71,0,2,,,,,,,,0,,,29,0
25290,note_on,19,0,2,,,,,,,,0,,,41,76
25361,note_on,71,0,2,,,,,,,,0,,,41,0
25380,note_on,19,0,2,,,,,,,,0,,,47,76
25451,note_on,71,0,2,,,,,,,,0,,,47,0
25470,note_on,19,0,2,,,,,,,,0,,,50,76
25541,note_on,71,0,2,,,,,,,,0,,,50,0
25560,note_on,19,0,2,,,,,,,,0,,,56,76
25631,note_on,71,0,2,,,,,,,,0,,,56,0
25650,note_on,19,0,2,,,,,,,,0,,,50,76
25721,note_on,71,0,2,,,,,,,,0,,,50,0
25740,note_on,19,0,2,,,,,,,,0,,,47,76
25811,note_on,71,0,2,,,,,,,,0,,,47,0
25830,note_on,19,0,2,,,,,,,,0,,,41,76
25865,note_on,0,0,1,,,,,,,,0,,,47,0
25865,note_on,644,0,1,,,,,,,,0,,,59,0
25865,note_on,0,0,1,,,,,,,,0,,,50,0
25865,note_on,0,0,1,,,,,,,,0,,,56,0
25875,note_on,10,0,1,,,,,,,,0,,,47,80
25897,note_on,22,0,1,,,,,,,,0,,,50,80
25901,note_on,71,0,2,,,,,,,,0,,,41,0
25920,note_on,23,0,1,,,,,,,,0,,,59,80
25941,control_change,21,0,1,,,,,,,,0,64,0,,
25943,control_change,2,0,1,,,,,,,,0,64,127,,
26010,note_on,829,0,3,,,,,,,,0,,,62,76
26081,note_on,71,0,3,,,,,,,,0,,,62,0
26100,note_on,19,0,3,,,,,,,,0,,,71,76
26171,note_on,71,0,3,,,,,,,,0,,,71,0
26190,note_on,19,0,3,,,,,,,,0,,,74,76
26261,note_on,71,0,3,,,,,,,,0,,,74,0
26280,note_on,19,0,3,,,,,,,,0,,,83,76
26351,note_on,71,0,3,,,,,,,,0,,,83,0
26370,note_on,19,0,3,,,,,,,,0,,,74,76
26441,note_on,71,0,3,,,,,,,,0,,,74,0
26460,note_on,19,0,3,,,,,,,,0,,,71,76
26531,note_on,71,0,3,,,,,,,,0,,,71,0
26550,note_on,19,0,3,,,,,,,,0,,,62,76
26621,note_on,71,0,3,,,,,,,,0,,,62,0
26640,note_on,739,0,2,,,,,,,,0,,,30,76
26642,control_change,699,0,1,,,,,,,,0,64,0,,
26663,control_change,21,0,1,,,,,,,,0,64,127,,
26711,note_on,71,0,2,,,,,,,,0,,,30,0
26730,note_on,19,0,2,,,,,,,,0,,,42,76
26801,note_on,71,0,2,,,,,,,,0,,,42,0
26820,note_on,19,0,2,,,,,,,,0,,,47,76
26891,note_on,71,0,2,,,,,,,,0,,,47,0
26910,note_on,19,0,2,,,,,,,,0,,,50,76
26981,note_on,71,0,2,,,,,,,,0,,,50,0
27000,note_on,19,0,2,,,,,,,,0,,,59,76
27071,note_on,71,0,2,,,,,,,,0,,,59,0
27090,note_on,19,0,2,,,,,,,,0,,,50,76
27161,note_on,71,0,2,,,,,,,,0,,,50,0
27180,note_on,19,0,2,,,,,,,,0,,,47,76
27251,note_on,71,0,2,,,,,,,,0,,,47,0
27260,note_on,597,0,1,,,,,,,,0,,,47,0
27270,note_on,19,0,2,,,,,,,,0,,,42,76
27282,note_on,22,0,1,,,,,,,,0,,,50,0
27305,note_on,23,0,1,,,,,,,,0,,,59,0
27315,note_on,10,0,1,,,,,,,,0,,,46,80
27337,note_on,22,0,1,,,,,,,,0,,,49,80
27341,note_on,71,0,2,,,,,,,,0,,,42,0
27358,control_change,21,0,1,,,,,,,,0,64,0,,
27360,note_on,2,0,1,,,,,,,,0,,,58,80
27403,control_change,43,0,1,,,,,,,,0,64,127,,
27450,note_on,829,0,3,,,,,,,,0,,,61,76
27521,note_on,71,0,3,,,,,,,,0,,,61,0
27540,note_on,19,0,3,,,,,,,,0,,,70,76
27611,note_on,71,0,3,,,,,,,,0,,,70,0
27630,note_on,19,0,3,,,,,,,,0,,,73,76
27701,note_on,71,0,3,,,,,,,,0,,,73,0
27720,note_on,19,0,3,,,,,,,,0,,,82,76
27791,note_on,71,0,3,,,,,,,,0,,,82,0
27810,note_on,19,0,3,,,,,,,,0,,,73,76
27881,note_on,71,0,3,,,,,,,,0,,,73,0
27900,note_on,19,0,3,,,,,,,,0,,,70,76
27971,note_on,71,0,3,,,,,,,,0,,,70,0
27990,note_on,19,0,3,,,,,,,,0,,,61,76
28061,note_on,71,0,3,,,,,,,,0,,,61,0
28078,control_change,675,0,1,,,,,,,,0,64,0,,
28080,note_on,739,0,2,,,,,,,,0,,,30,76
28103,control_change,25,0,1,,,,,,,,0,64,127,,
28151,note_on,71,0,2,,,,,,,,0,,,30,0
28170,note_on,19,0,2,,,,,,,,0,,,42,76
28241,note_on,71,0,2,,,,,,,,0,,,42,0
28260,note_on,19,0,2,,,,,,,,0,,,46,76
28331,note_on,71,0,2,,,,,,,,0,,,46,0
28350,note_on,19,0,2,,,,,,,,0,,,49,76
28421,note_on,71,0,2,,,,,,,,0,,,49,0
28440,note_on,19,0,2,,,,,,,,0,,,58,76
28511,note_on,71,0,2,,,,,,,,0,,,58,0
28530,note_on,19,0,2,,,,,,,,0,,,49,76
28601,note_on,71,0,2,,,,,,,,0,,,49,0
28620,note_on,19,0,2,,,,,,,,0,,,46,76
28691,note_on,71,0,2,,,,,,,,0,,,46,0
28710,note_on,19,0,2,,,,,,,,0,,,42,76
28745,note_on,642,0,1,,,,,,,,0,,,58,0
28745,note_on,0,0,1,,,,,,,,0,,,46,0
28745,note_on,0,0,1,,,,,,,,0,,,49,0
28755,note_on,10,0,1,,,,,,,,0,,,46,80
28777,note_on,22,0,1,,,,,,,,0,,,49,80
28781,note_on,71,0,2,,,,,,,,0,,,42,0
28800,control_change,23,0,1,,,,,,,,0,64,0,,
28800,note_on,0,0,1,,,,,,,,0,,,54,80
28816,control_change,16,0,1,,,,,,,,0,64,127,,
28890,note_on,829,0,3,,,,,,,,0,,,58,76
28961,note_on,71,0,3,,,,,,,,0,,,58,0
28980,note_on,19,0,3,,,,,,,,0,,,66,76
29051,note_on,71,0,3,,,,,,,,0,,,66,0
29070,note_on,19,0,3,,,,,,,,0,,,70,76
29141,note_on,71,0,3,,,,,,,,0,,,70,0
29160,note_on,19,0,3,,,,,,,,0,,,78,76
29231,note_on,71,0,3,,,,,,,,0,,,78,0
29250,note_on,19,0,3,,,,,,,,0,,,70,76
29321,note_on,71,0,3,,,,,,,,0,,,70,0
29340,note_on,19,0,3,,,,,,,,0,,,66,76
29411,note_on,71,0,3,,,,,,,,0,,,66,0
29430,note_on,19,0,3,,,,,,,,0,,,58,76
29501,note_on,71,0,3,,,,,,,,0,,,58,0
29520,control_change,704,0,1,,,,,,,,0,64,0,,
29520,note_on,739,0,2,,,,,,,,0,,,30,76
29536,control_change,16,0,1,,,,,,,,0,64,127,,
29591,note_on,71,0,2,,,,,,,,0,,,30,0
29610,note_on,19,0,2,,,,,,,,0,,,42,76
29681,note_on,71,0,2,,,,,,,,0,,,42,0
29700,note_on,19,0,2,,,,,,,,0,,,46,76
29771,note_on,71,0,2,,,,,,,,0,,,46,0
29790,note_on,19,0,2,,,,,,,,0,,,49,76
29861,note_on,71,0,2,,,,,,,,0,,,49,0
29880,note_on,19,0,2,,,,,,,,0,,,54,76
29951,note_on,71,0,2,,,,,,,,0,,,54,0
29970,note_on,19,0,2,,,,,,,,0,,,49,76
30041,note_on,71,0,2,,,,,,,,0,,,49,0
30060,note_on,19,0,2,,,,,,,,0,,,46,76
30131,note_on,71,0,2,,,,,,,,0,,,46,0
30150,note_on,19,0,2,,,,,,,,0,,,42,76
30185,note_on,0,0,1,,,,,,,,0,,,49,0
30185,note_on,0,0,1,,,,,,,,0,,,46,0
30185,note_on,649,0,1,,,,,,,,0,,,54,0
30195,note_on,10,0,1,,,,,,,,0,,,50,80
30217,note_on,22,0,1,,,,,,,,0,,,54,80
30221,note_on,71,0,2,,,,,,,,0,,,42,0
30240,note_on,23,0,1,,,,,,,,0,,,62,80
30256,control_change,16,0,1,,,,,,,,0,64,0,,
30260,control_change,4,0,1,,,,,,,,0,64,127,,
30420,note_on,919,0,3,,,,,,,,0,,,66,76
30467,note_on,47,0,3,,,,,,,,0,,,66,0
30479,note_on,12,0,3,,,,,,,,0,,,74,76
30526,note_on,47,0,3,,,,,,,,0,,,74,0
30539,note_on,13,0,3,,,,,,,,0,,,78,76
30587,note_on,48,0,3,,,,,,,,0,,,78,0
30600,note_on,13,0,3,,,,,,,,0,,,86,83
30743,note_on,143,0,3,,,,,,,,0,,,86,0
30780,note_on,37,0,3,,,,,,,,0,,,78,76
30827,note_on,47,0,3,,,,,,,,0,,,78,0
30839,note_on,12,0,3,,,,,,,,0,,,74,76
30886,note_on,47,0,3,,,,,,,,0,,,74,0
30899,note_on,13,0,3,,,,,,,,0,,,66,76
30947,note_on,48,0,3,,,,,,,,0,,,66,0
30956,control_change,696,0,1,,,,,,,,0,64,0,,
30960,note_on,739,0,2,,,,,,,,0,,,35,76
30980,control_change,24,0,1,,,,,,,,0,64,127,,
31031,note_on,71,0,2,,,,,,,,0,,,35,0
31050,note_on,19,0,2,,,,,,,,0,,,47,76
31121,note_on,71,0,2,,,,,,,,0,,,47,0
31140,note_on,19,0,2,,,,,,,,0,,,50,76
31211,note_on,71,0,2,,,,,,,,0,,,50,0
31230,note_on,19,0,2,,,,,,,,0,,,54,76
31301,note_on,71,0,2,,,,,,,,0,,,54,0
31320,note_on,19,0,2,,,,,,,,0,,,62,88
31391,note_on,71,0,2,,,,,,,,0,,,62,0
31410,note_on,19,0,2,,,,,,,,0,,,54,76
31481,note_on,71,0,2,,,,,,,,0,,,54,0
31500,note_on,19,0,2,,,,,,,,0,,,50,76
31571,note_on,71,0,2,,,,,,,,0,,,50,0
31580,note_on,600,0,1,,,,,,,,0,,,50,0
31590,note_on,19,0,2,,,,,,,,0,,,47,76
31602,note_on,22,0,1,,,,,,,,0,,,54,0
31625,note_on,23,0,1,,,,,,,,0,,,62,0
31635,note_on,10,0,1,,,,,,,,0,,,49,80
31657,note_on,22,0,1,,,,,,,,0,,,53,80
31661,note_on,71,0,2,,,,,,,,0,,,47,0
31676,control_change,19,0,1,,,,,,,,0,64,0,,
31680,note_on,4,0,1,,,,,,,,0,,,61,80
31698,control_change,18,0,1,,,,,,,,0,64,127,,
31860,note_on,913,0,3,,,,,,,,0,,,65,76
31907,note_on,47,0,3,,,,,,,,0,,,65,0
31919,note_on,12,0,3,,,,,,,,0,,,73,76
31966,note_on,47,0,3,,,,,,,,0,,,73,0
31979,note_on,13,0,3,,,,,,,,0,,,77,76
32027,note_on,48,0,3,,,,,,,,0,,,77,0
32040,note_on,13,0,3,,,,,,,,0,,,85,76
32183,note_on,143,0,3,,,,,,,,0,,,85,0
32220,note_on,37,0,3,,,,,,,,0,,,77,76
32267,note_on,47,0,3,,,,,,,,0,,,77,0
32279,note_on,12,0,3,,,,,,,,0,,,73,76
32326,note_on,47,0,3,,,,,,,,0,,,73,0
32339,note_on,13,0,3,,,,,,,,0,,,65,76
32387,note_on,48,0,3,,,,,,,,0,,,65,0
32396,control_change,698,0,1,,,,,,,,0,64,0,,
32400,note_on,739,0,2,,,,,,,,0,,,35,76
32420,control_change,24,0,1,,,,,,,,0,64,127,,
32471,note_on,71,0,2,,,,,,,,0,,,35,0
32490,note_on,19,0,2,,,,,,,,0,,,47,76
32561,note_on,71,0,2,,,,,,,,0,,,47,0
32580,note_on,19,0,2,,,,,,,,0,,,49,76
32651,note_on,71,0,2,,,,,,,,0,,,49,0
32670,note_on,19,0,2,,,,,,,,0,,,53,76
32741,note_on,71,0,2,,,,,,,,0,,,53,0
32760,note_on,19,0,2,,,,,,,,0,,,61,88
32831,note_on,71,0,2,,,,,,,,0,,,61,0
32850,note_on,19,0,2,,,,,,,,0,,,53,76
32921,note_on,71,0,2,,,,,,,,0,,,53,0
32940,note_on,19,0,2,,,,,,,,0,,,49,76
33011,note_on,71,0,2,,,,,,,,0,,,49,0
33030,note_on,19,0,2,,,,,,,,0,,,47,76
33065,note_on,645,0,1,,,,,,,,0,,,61,0
33065,note_on,0,0,1,,,,,,,,0,,,53,0
33065,note_on,0,0,1,,,,,,,,0,,,49,0
33075,note_on,10,0,1,,,,,,,,0,,,50,80
33097,note_on,22,0,1,,,,,,,,0,,,54,80
33101,note_on,71,0,2,,,,,,,,0,,,47,0
33120,note_on,23,0,1,,,,,,,,0,,,62,80
33122,control_change,2,0,1,,,,,,,,0,64,0,,
33140,control_change,18,0,1,,,,,,,,0,64,127,,
33300,note_on,913,0,3,,,,,,,,0,,,66,76
33347,note_on,47,0,3,,,,,,,,0,,,66,0
33359,note_on,12,0,3,,,,,,,,0,,,74,76
33406,note_on,47,0,3,,,,,,,,0,,,74,0
33419,note_on,13,0,3,,,,,,,,0,,,78,76
33467,note_on,48,0,3,,,,,,,,0,,,78,0
33480,note_on,13,0,3,,,,,,,,0,,,86,76
33623,note_on,143,0,3,,,,,,,,0,,,86,0
33660,note_on,37,0,3,,,,,,,,0,,,78,76
33707,note_on,47,0,3,,,,,,,,0,,,78,0
33719,note_on,12,0,3,,,,,,,,0,,,74,76
33766,note_on,47,0,3,,,,,,,,0,,,74,0
33779,note_on,13,0,3,,,,,,,,0,,,66,76
33827,note_on,48,0,3,,,,,,,,0,,,66,0
33838,control_change,698,0,1,,,,,,,,0,64,0,,
33840,note_on,739,0,2,,,,,,,,0,,,35,76
33860,control_change,22,0,1,,,,,,,,0,64,127,,
33911,note_on,71,0,2,,,,,,,,0,,,35,0
33930,note_on,19,0,2,,,,,,,,0,,,47,76
34001,note_on,71,0,2,,,,,,,,0,,,47,0
34020,note_on,19,0,2,,,,,,,,0,,,50,76
34091,note_on,71,0,2,,,,,,,,0,,,50,0
34110,note_on,19,0,2,,,,,,,,0,,,54,76
34181,note_on,71,0,2,,,,,,,,0,,,54,0
34200,note_on,19,0,2,,,,,,,,0,,,62,80
34271,note_on,71,0,2,,,,,,,,0,,,62,0
34290,note_on,19,0,2,,,,,,,,0,,,54,76
34361,note_on,71,0,2,,,,,,,,0,,,54,0
34380,note_on,19,0,2,,,,,,,,0,,,50,76
34451,note_on,71,0,2,,,,,,,,0,,,50,0
34470,note_on,19,0,2,,,,,,,,0,,,47,76
34505,note_on,645,0,1,,,,,,,,0,,,62,0
34505,note_on,0,0,1,,,,,,,,0,,,54,0
34505,note_on,0,0,1,,,,,,,,0,,,50,0
34515,note_on,10,0,1,,,,,,,,0,,,47,80
34537,note_on,22,0,1,,,,,,,,0,,,50,80
34541,note_on,71,0,2,,,,,,,,0,,,47,0
34560,note_on,0,0,1,,,,,,,,0,,,59,80
34560,note_on,23,0,1,,,,,,,,0,,,54,80
34580,control_change,20,0,1,,,,,,,,0,64,0,,
34588,control_change,8,0,1,,,,,,,,0,64,127,,
34740,note_on,913,0,3,,,,,,,,0,,,62,76
34787,note_on,47,0,3,,,,,,,,0,,,62,0
34799,note_on,12,0,3,,,,,,,,0,,,71,76
34846,note_on,47,0,3,,,,,,,,0,,,71,0
34859,note_on,13,0,3,,,,,,,,0,,,74,76
34907,note_on,48,0,3,,,,,,,,0,,,74,0
34920,note_on,13,0,3,,,,,,,,0,,,83,76
34991,note_on,71,0,3,,,,,,,,0,,,83,0
35010,note_on,19,0,3,,,,,,,,0,,,74,76
35081,note_on,71,0,3,,,,,,,,0,,,74,0
35100,note_on,19,0,3,,,,,,,,0,,,71,76
35171,note_on,71,0,3,,,,,,,,0,,,71,0
35190,note_on,19,0,3,,,,,,,,0,,,62,76
35261,note_on,71,0,3,,,,,,,,0,,,62,0
35280,note_on,739,0,2,,,,,,,,0,,,35,76
35281,control_change,693,0,1,,,,,,,,0,64,0,,
35295,control_change,14,0,1,,,,,,,,0,64,127,,
35351,note_on,71,0,2,,,,,,,,0,,,35,0
35370,note_on,19,0,2,,,,,,,,0,,,47,76
35441,note_on,71,0,2,,,,,,,,0,,,47,0
35460,note_on,19,0,2,,,,,,,,0,,,50,76
35531,note_on,71,0,2,,,,,,,,0,,,50,0
35550,note_on,19,0,2,,,,,,,,0,,,54,76
35621,note_on,71,0,2,,,,,,,,0,,,54,0
35640,note_on,19,0,2,,,,,,,,0,,,59,76
35711,note_on,71,0,2,,,,,,,,0,,,59,0
35730,note_on,19,0,2,,,,,,,,0,,,54,76
35801,note_on,71,0,2,,,,,,,,0,,,54,0
35820,note_on,19,0,2,,,,,,,,0,,,50,76
35891,note_on,71,0,2,,,,,,,,0,,,50,0
35900,note_on,605,0,1,,,,,,,,0,,,47,0
35910,note_on,19,0,2,,,,,,,,0,,,47,76
35922,note_on,22,0,1,,,,,,,,0,,,50,0
35945,note_on,23,0,1,,,,,,,,0,,,54,0
35945,note_on,0,0,1,,,,,,,,0,,,59,0
35955,note_on,10,0,1,,,,,,,,0,,,52,80
35977,note_on,22,0,1,,,,,,,,0,,,55,80
35981,note_on,71,0,2,,,,,,,,0,,,47,0
35998,control_change,21,0,1,,,,,,,,0,64,0,,
36000,note_on,2,0,1,,,,,,,,0,,,64,80
36019,control_change,19,0,1,,,,,,,,0,64,127,,
36090,note_on,829,0,3,,,,,,,,0,,,67,76
36161,note_on,71,0,3,,,,,,,,0,,,67,0
36180,note_on,19,0,3,,,,,,,,0,,,76,76
36251,note_on,71,0,3,,,,,,,,0,,,76,0
36270,note_on,19,0,3,,,,,,,,0,,,79,76
36341,note_on,71,0,3,,,,,,,,0,,,79,0
36360,note_on,19,0,3,,,,,,,,0,,,88,76
36431,note_on,71,0,3,,,,,,,,0,,,88,0
36450,note_on,19,0,3,,,,,,,,0,,,79,76
36521,note_on,71,0,3,,,,,,,,0,,,79,0
36540,note_on,19,0,3,,,,,,,,0,,,76,76
36611,note_on,71,0,3,,,,,,,,0,,,76,0
36630,note_on,19,0,3,,,,,,,,0,,,67,76
36701,note_on,71,0,3,,,,,,,,0,,,67,0
36718,control_change,699,0,1,,,,,,,,0,64,0,,
36720,note_on,739,0,2,,,,,,,,0,,,35,76
36736,control_change,18,0,1,,,,,,,,0,64,127,,
36791,note_on,71,0,2,,,,,,,,0,,,35,0
36810,note_on,19,0,2,,,,,,,,0,,,47,76
36881,note_on,71,0,2,,,,,,,,0,,,47,0
36900,note_on,19,0,2,,,,,,,,0,,,52,76
36971,note_on,71,0,2,,,,,,,,0,,,52,0
36990,note_on,19,0,2,,,,,,,,0,,,55,76
37061,note_on,71,0,2,,,,,,,,0,,,55,0
37080,note_on,19,0,2,,,,,,,,0,,,64,80
37151,note_on,71,0,2,,,,,,,,0,,,64,0
37170,note_on,19,0,2,,,,,,,,0,,,55,76
37241,note_on,71,0,2,,,,,,,,0,,,55,0
37260,note_on,19,0,2,,,,,,,,0,,,52,76
37331,note_on,71,0,2,,,,,,,,0,,,52,0
37350,note_on,19,0,2,,,,,,,,0,,,47,76
37385,note_on,0,0,1,,,,,,,,0,,,52,0
37385,note_on,0,0,1,,,,,,,,0,,,55,0
37385,note_on,649,0,1,,,,,,,,0,,,64,0
37395,note_on,10,0,1,,,,,,,,0,,,53,80
37417,note_on,22,0,1,,,,,,,,0,,,56,80
37421,note_on,71,0,2,,,,,,,,0,,,47,0
37437,control_change,20,0,1,,,,,,,,0,64,0,,
37440,note_on,3,0,1,,,,,,,,0,,,65,80
37452,control_change,12,0,1,,,,,,,,0,64,127,,
37530,note_on,829,0,3,,,,,,,,0,,,68,76
37601,note_on,71,0,3,,,,,,,,0,,,68,0
37620,note_on,19,0,3,,,,,,,,0,,,77,76
37691,note_on,71,0,3,,,,,,,,0,,,77,0
37710,note_on,19,0,3,,,,,,,,0,,,80,76
37781,note_on,71,0,3,,,,,,,,0,,,80,0
37800,note_on,19,0,3,,,,,,,,0,,,89,76
37871,note_on,71,0,3,,,,,,,,0,,,89,0
37890,note_on,19,0,3,,,,,,,,0,,,80,76
37961,note_on,71,0,3,,,,,,,,0,,,80,0
37980,note_on,19,0,3,,,,,,,,0,,,77,76
38051,note_on,71,0,3,,,,,,,,0,,,77,0
38070,note_on,19,0,3,,,,,,,,0,,,68,76
38141,note_on,71,0,3,,,,,,,,0,,,68,0
38155,control_change,703,0,1,,,,,,,,0,64,0,,
38160,note_on,739,0,2,,,,,,,,0,,,34,76
38166,control_change,11,0,1,,,,,,,,0,64,127,,
38231,note_on,71,0,2,,,,,,,,0,,,34,0
38250,note_on,19,0,2,,,,,,,,0,,,46,76
38321,note_on,71,0,2,,,,,,,,0,,,46,0
38340,note_on,19,0,2,,,,,,,,0,,,53,76
38411,note_on,71,0,2,,,,,,,,0,,,53,0
38430,note_on,19,0,2,,,,,,,,0,,,56,76
38501,note_on,71,0,2,,,,,,,,0,,,56,0
38520,note_on,19,0,2,,,,,,,,0,,,62,92
38591,note_on,71,0,2,,,,,,,,0,,,62,0
38610,note_on,19,0,2,,,,,,,,0,,,56,76
38681,note_on,71,0,2,,,,,,,,0,,,56,0
38700,note_on,19,0,2,,,,,,,,0,,,53,76
38771,note_on,71,0,2,,,,,,,,0,,,53,0
38790,note_on,19,0,2,,,,,,,,0,,,46,76
38825,note_on,0,0,1,,,,,,,,0,,,56,0
38825,note_on,0,0,1,,,,,,,,0,,,53,0
38825,note_on,659,0,1,,,,,,,,0,,,65,0
38835,note_on,10,0,1,,,,,,,,0,,,54,80
38857,note_on,22,0,1,,,,,,,,0,,,57,80
38861,note_on,71,0,2,,,,,,,,0,,,46,0
38880,note_on,23,0,1,,,,,,,,0,,,62,80
38880,note_on,0,0,1,,,,,,,,0,,,66,92
38886,control_change,6,0,1,,,,,,,,0,64,0,,
38920,control_change,34,0,1,,,,,,,,0,64,127,,
38970,note_on,829,0,3,,,,,,,,0,,,69,76
39041,note_on,71,0,3,,,,,,,,0,,,69,0
39060,note_on,19,0,3,,,,,,,,0,,,78,76
39131,note_on,71,0,3,,,,,,,,0,,,78,0
39150,note_on,19,0,3,,,,,,,,0,,,81,76
39221,note_on,71,0,3,,,,,,,,0,,,81,0
39240,note_on,19,0,3,,,,,,,,0,,,90,76
39311,note_on,71,0,3,,,,,,,,0,,,90,0
39330,note_on,19,0,3,,,,,,,,0,,,81,76
39401,note_on,71,0,3,,,,,,,,0,,,81,0
39420,note_on,19,0,3,,,,,,,,0,,,78,76
39491,note_on,71,0,3,,,,,,,,0,,,78,0
39510,note_on,19,0,3,,,,,,,,0,,,69,76
39581,note_on,71,0,3,,,,,,,,0,,,69,0
39595,control_change,675,0,1,,,,,,,,0,64,0,,
39600,note_on,739,0,2,,,,,,,,0,,,33,76
39619,control_change,24,0,1,,,,,,,,0,64,127,,
39671,note_on,71,0,2,,,,,,,,0,,,33,0
39690,note_on,19,0,2,,,,,,,,0,,,45,76
39761,note_on,71,0,2,,,,,,,,0,,,45,0
39780,note_on,19,0,2,,,,,,,,0,,,54,76
39851,note_on,71,0,2,,,,,,,,0,,,54,0
39870,note_on,19,0,2,,,,,,,,0,,,57,76
39941,note_on,71,0,2,,,,,,,,0,,,57,0
39960,note_on,19,0,2,,,,,,,,0,,,62,92
40031,note_on,71,0,2,,,,,,,,0,,,62,0
40050,note_on,19,0,2,,,,,,,,0,,,57,76
40121,note_on,71,0,2,,,,,,,,0,,,57,0
40140,note_on,19,0,2,,,,,,,,0,,,54,76
40211,note_on,71,0,2,,,,,,,,0,,,54,0
40220,note_on,601,0,1,,,,,,,,0,,,54,0
40230,note_on,19,0,2,,,,,,,,0,,,45,76
40242,note_on,22,0,1,,,,,,,,0,,,57,0
40265,note_on,0,0,1,,,,,,,,0,,,66,0
40265,note_on,23,0,1,,,,,,,,0,,,62,0
40275,note_on,10,0,1,,,,,,,,0,,,55,80
40297,note_on,22,0,1,,,,,,,,0,,,58,80
40301,note_on,71,0,2,,,,,,,,0,,,45,0
40320,note_on,0,0,1,,,,,,,,0,,,62,80
40320,control_change,23,0,1,,,,,,,,0,64,0,,
40320,note_on,0,0,1,,,,,,,,0,,,66,92
40344,control_change,24,0,1,,,,,,,,0,64,127,,
40410,note_on,829,0,3,,,,,,,,0,,,70,76
40481,note_on,71,0,3,,,,,,,,0,,,70,0
40500,note_on,19,0,3,,,,,,,,0,,,78,76
40571,note_on,71,0,3,,,,,,,,0,,,78,0
40590,note_on,19,0,3,,,,,,,,0,,,82,76
40661,note_on,71,0,3,,,,,,,,0,,,82,0
40680,note_on,19,0,3,,,,,,,,0,,,90,76
40751,note_on,71,0,3,,,,,,,,0,,,90,0
40770,note_on,19,0,3,,,,,,,,0,,,82,76
40841,note_on,71,0,3,,,,,,,,0,,,82,0
40860,note_on,19,0,3,,,,,,,,0,,,78,76
40931,note_on,71,0,3,,,,,,,,0,,,78,0
40950,note_on,19,0,3,,,,,,,,0,,,70,76
41021,note_on,71,0,3,,,,,,,,0,,,70,0
41040,control_change,696,0,1,,,,,,,,0,64,0,,
41040,note_on,739,0,2,,,,,,,,0,,,33,76
41061,control_change,21,0,1,,,,,,,,0,64,127,,
41111,note_on,71,0,2,,,,,,,,0,,,33,0
41130,note_on,19,0,2,,,,,,,,0,,,45,76
41201,note_on,71,0,2,,,,,,,,0,,,45,0
41220,note_on,19,0,2,,,,,,,,0,,,55,76
41291,note_on,71,0,2,,,,,,,,0,,,55,0
41310,note_on,19,0,2,,,,,,,,0,,,58,76
41381,note_on,71,0,2,,,,,,,,0,,,58,0
41400,note_on,19,0,2,,,,,,,,0,,,62,92
41471,note_on,71,0,2,,,,,,,,0,,,62,0
41490,note_on,19,0,2,,,,,,,,0,,,58,76
41561,note_on,71,0,2,,,,,,,,0,,,58,0
41580,note_on,19,0,2,,,,,,,,0,,,55,76
41651,note_on,71,0,2,,,,,,,,0,,,55,0
41670,note_on,19,0,2,,,,,,,,0,,,45,76
41741,note_on,71,0,2,,,,,,,,0,,,45,0
41752,control_change,691,0,1,,,,,,,,0,64,0,,
41760,note_on,0,0,1,,,,,,,,0,,,55,80
41760,note_on,0,0,1,,,,,,,,0,,,55,0
41760,note_on,0,0,1,,,,,,,,0,,,58,0
41760,note_on,0,0,1,,,,,,,,0,,,61,80
41760,note_on,0,0,1,,,,,,,,0,,,66,92
41760,note_on,8,0,1,,,,,,,,0,,,66,0
41760,note_on,0,0,1,,,,,,,,0,,,57,80
41760,note_on,0,0,1,,,,,,,,0,,,62,0
41771,control_change,11,0,1,,,,,,,,0,64,127,,
41850,note_on,829,0,3,,,,,,,,0,,,69,76
41921,note_on,71,0,3,,,,,,,,0,,,69,0
41940,note_on,19,0,3,,,,,,,,0,,,78,76
42011,note_on,71,0,3,,,,,,,,0,,,78,0
42030,note_on,19,0,3,,,,,,,,0,,,81,76
42101,note_on,71,0,3,,,,,,,,0,,,81,0
42120,note_on,19,0,3,,,,,,,,0,,,90,76
42191,note_on,71,0,3,,,,,,,,0,,,90,0
42210,note_on,19,0,3,,,,,,,,0,,,81,76
42281,note_on,71,0,3,,,,,,,,0,,,81,0
42300,note_on,19,0,3,,,,,,,,0,,,78,76
42371,note_on,71,0,3,,,,,,,,0,,,78,0
42390,note_on,19,0,3,,,,,,,,0,,,69,76
42461,note_on,71,0,3,,,,,,,,0,,,69,0
42480,note_on,739,0,2,,,,,,,,0,,,33,76
42483,control_change,712,0,1,,,,,,,,0,64,0,,
42506,control_change,23,0,1,,,,,,,,0,64,127,,
42551,note_on,71,0,2,,,,,,,,0,,,33,0
42570,note_on,19,0,2,,,,,,,,0,,,45,76
42641,note_on,71,0,2,,,,,,,,0,,,45,0
42660,note_on,19,0,2,,,,,,,,0,,,55,76
42731,note_on,71,0,2,,,,,,,,0,,,55,0
42750,note_on,19,0,2,,,,,,,,0,,,57,76
42766,note_on,0,0,1,,,,,,,,0,,,55,0
42766,note_on,0,0,1,,,,,,,,0,,,57,0
42766,note_on,0,0,1,,,,,,,,0,,,61,0
42766,note_on,260,0,1,,,,,,,,0,,,66,0
42821,note_on,71,0,2,,,,,,,,0,,,57,0
42840,note_on,19,0,2,,,,,,,,0,,,61,80
42840,note_on,74,0,1,,,,,,,,0,,,64,92
42911,note_on,71,0,2,,,,,,,,0,,,61,0
42930,note_on,19,0,2,,,,,,,,0,,,57,76
43001,note_on,71,0,2,,,,,,,,0,,,57,0
43020,note_on,19,0,2,,,,,,,,0,,,55,76
43091,note_on,71,0,2,,,,,,,,0,,,55,0
43110,note_on,19,0,2,,,,,,,,0,,,45,76
43126,note_on,286,0,1,,,,,,,,0,,,64,0
43181,note_on,71,0,2,,,,,,,,0,,,45,0
43200,control_change,74,0,1,,,,,,,,0,64,0,,
43200,note_on,0,0,2,,,,,,,,0,,,50,76
43200,note_on,19,0,2,,,,,,,,0,,,62,80
43200,note_on,0,0,2,,,,,,,,0,,,54,76
43238,control_change,38,0,1,,,,,,,,0,64,127,,
43290,note_on,829,0,3,,,,,,,,0,,,69,76
43361,note_on,71,0,3,,,,,,,,0,,,69,0
43380,note_on,19,0,3,,,,,,,,0,,,74,76
43451,note_on,71,0,3,,,,,,,,0,,,74,0
43470,note_on,19,0,3,,,,,,,,0,,,81,76
43541,note_on,71,0,3,,,,,,,,0,,,81,0
43560,note_on,19,0,3,,,,,,,,0,,,86,76
43631,note_on,71,0,3,,,,,,,,0,,,86,0
43650,note_on,19,0,3,,,,,,,,0,,,81,76
43721,note_on,71,0,3,,,,,,,,0,,,81,0
43740,note_on,19,0,3,,,,,,,,0,,,74,76
43811,note_on,71,0,3,,,,,,,,0,,,74,0
43830,note_on,19,0,3,,,,,,,,0,,,69,76
43901,note_on,71,0,3,,,,,,,,0,,,69,0
43920,note_on,682,0,1,,,,,,,,0,,,38,80
43923,control_change,3,0,1,,,,,,,,0,64,0,,
43944,control_change,21,0,1,,,,,,,,0,64,127,,
43991,note_on,47,0,1,,,,,,,,0,,,38,0
44010,note_on,19,0,1,,,,,,,,0,,,45,80
44081,note_on,71,0,1,,,,,,,,0,,,45,0
44100,note_on,19,0,1,,,,,,,,0,,,50,80
44171,note_on,71,0,1,,,,,,,,0,,,50,0
44190,note_on,19,0,1,,,,,,,,0,,,57,80
44261,note_on,71,0,1,,,,,,,,0,,,57,0
44280,note_on,19,0,1,,,,,,,,0,,,62,80
44351,note_on,71,0,1,,,,,,,,0,,,62,0
44370,note_on,19,0,1,,,,,,,,0,,,57,80
44441,note_on,71,0,1,,,,,,,,0,,,57,0
44460,note_on,19,0,1,,,,,,,,0,,,50,80
44531,note_on,71,0,1,,,,,,,,0,,,50,0
44550,note_on,19,0,1,,,,,,,,0,,,45,80
44621,note_on,71,0,1,,,,,,,,0,,,45,0
44640,note_on,19,0,1,,,,,,,,0,,,38,80
44643,control_change,3,0,1,,,,,,,,0,64,0,,
45215,note_on,572,0,1,,,,,,,,0,,,38,0
45360,note_on,145,0,1,,,,,,,,0,,,50,80
45360,note_on,1459,0,3,,,,,,,,0,,,62,80
45360,note_on,0,0,3,,,,,,,,0,,,74,80
45503,note_on,0,0,2,,,,,,,,0,,,62,0
45503,note_on,0,0,2,,,,,,,,0,,,50,0
45503,note_on,2303,0,2,,,,,,,,0,,,54,0
45935,note_on,0,0,3,,,,,,,,0,,,62,0
45935,note_on,575,0,1,,,,,,,,0,,,50,0
45935,note_on,575,0,3,,,,,,,,0,,,74,0
46080,note_on,145,0,3,,,,,,,,0,,,74,80
46080,note_on,145,0,1,,,,,,,,0,,,50,80
46080,note_on,0,0,3,,,,,,,,0,,,62,80
46655,note_on,0,0,3,,,,,,,,0,,,74,0
46655,note_on,575,0,3,,,,,,,,0,,,62,0
46655,note_on,575,0,1,,,,,,,,0,,,50,0
46800,note_on,0,0,3,,,,,,,,0,,,62,80
46800,note_on,145,0,3,,,,,,,,0,,,74,80
46800,note_on,145,0,1,,,,,,,,0,,,50,80
47375,note_on,0,0,3,,,,,,,,0,,,74,0
47375,note_on,575,0,3,,,,,,,,0,,,62,0
47375,note_on,575,0,1,,,,,,,,0,,,50,0
47514,set_tempo,34554,1,0,,,,,,1016260,,,,,,
47520,note_on,0,0,3,,,,,,,,0,,,50,80
47520,control_change,145,0,3,,,,,,,,0,64,127,,
47520,time_signature,6,1,0,3,4,24,8,,,,,,,,
47520,note_on,0,0,3,,,,,,,,0,,,74,80
47520,note_on,0,0,3,,,,,,,,0,,,62,80
47520,set_tempo,0,1,0,,,,,,1089325,,,,,,
47542,note_on,2039,0,2,,,,,,,,0,,,53,64
47542,note_on,167,0,1,,,,,,,,0,,,65,64
47570,note_on,28,0,1,,,,,,,,0,,,65,0
47570,note_on,28,0,2,,,,,,,,0,,,53,0
47573,note_on,3,0,2,,,,,,,,0,,,58,64
47573,note_on,3,0,1,,,,,,,,0,,,70,64
47601,note_on,28,0,2,,,,,,,,0,,,58,0
47601,note_on,28,0,1,,,,,,,,0,,,70,0
47604,note_on,3,0,2,,,,,,,,0,,,62,64
47604,note_on,3,0,1,,,,,,,,0,,,74,64
47633,note_on,29,0,1,,,,,,,,0,,,74,0
47633,note_on,29,0,2,,,,,,,,0,,,62,0
47636,note_on,3,0,1,,,,,,,,0,,,77,64
47636,note_on,3,0,2,,,,,,,,0,,,65,64
47664,note_on,28,0,2,,,,,,,,0,,,65,0
47664,note_on,28,0,1,,,,,,,,0,,,77,0
47667,note_on,3,0,2,,,,,,,,0,,,70,64
47667,note_on,3,0,1,,,,,,,,0,,,82,64
47695,note_on,28,0,1,,,,,,,,0,,,82,0
47695,note_on,28,0,2,,,,,,,,0,,,70,0
47700,note_on,5,0,1,,,,,,,,0,,,86,64
47700,note_on,5,0,2,,,,,,,,0,,,74,64
47728,note_on,28,0,2,,,,,,,,0,,,74,0
47728,note_on,28,0,1,,,,,,,,0,,,86,0
47730,note_on,2,0,2,,,,,,,,0,,,70,64
47730,note_on,2,0,1,,,,,,,,0,,,82,64
47759,note_on,29,0,2,,,,,,,,0,,,70,0
47759,note_on,29,0,1,,,,,,,,0,,,82,0
47761,note_on,2,0,2,,,,,,,,0,,,65,64
47761,note_on,2,0,1,,,,,,,,0,,,77,64
47791,note_on,30,0,2,,,,,,,,0,,,65,0
47791,note_on,30,0,1,,,,,,,,0,,,77,0
47794,note_on,3,0,2,,,,,,,,0,,,62,64
47794,note_on,3,0,1,,,,,,,,0,,,74,64
47806,note_on,0,0,3,,,,,,,,0,,,74,0
47806,note_on,286,0,3,,,,,,,,0,,,50,0
47806,note_on,0,0,3,,,,,,,,0,,,62,0
47822,note_on,28,0,1,,,,,,,,0,,,74,0
47822,note_on,28,0,2,,,,,,,,0,,,62,0
47825,note_on,3,0,1,,,,,,,,0,,,70,64
47825,note_on,3,0,2,,,,,,,,0,,,58,64
47853,note_on,28,0,1,,,,,,,,0,,,70,0
47853,note_on,28,0,2,,,,,,,,0,,,58,0
47857,note_on,4,0,2,,,,,,,,0,,,53,64
47857,note_on,4,0,1,,,,,,,,0,,,65,64
47877,control_change,71,0,3,,,,,,,,0,64,0,,
47880,note_on,3,0,3,,,,,,,,0,,,49,80
47880,note_on,0,0,3,,,,,,,,0,,,61,80
47880,note_on,0,0,3,,,,,,,,0,,,73,80
47885,note_on,28,0,2,,,,,,,,0,,,53,0
47885,note_on,28,0,1,,,,,,,,0,,,65,0
47901,control_change,21,0,3,,,,,,,,0,64,127,,
47903,note_on,18,0,2,,,,,,,,0,,,53,64
47903,note_on,18,0,1,,,,,,,,0,,,65,64
47932,note_on,29,0,2,,,,,,,,0,,,53,0
47932,note_on,29,0,1,,,,,,,,0,,,65,0
47934,note_on,2,0,1,,,,,,,,0,,,70,64
47934,note_on,2,0,2,,,,,,,,0,,,58,64
47962,note_on,28,0,1,,,,,,,,0,,,70,0
47962,note_on,28,0,2,,,,,,,,0,,,58,0
47965,note_on,3,0,1,,,,,,,,0,,,73,64
47965,note_on,3,0,2,,,,,,,,0,,,61,64
47995,note_on,30,0,1,,,,,,,,0,,,73,0
47995,note_on,30,0,2,,,,,,,,0,,,61,0
47998,note_on,3,0,2,,,,,,,,0,,,65,64
47998,note_on,3,0,1,,,,,,,,0,,,77,64
48026,note_on,28,0,2,,,,,,,,0,,,65,0
48026,note_on,28,0,1,,,,,,,,0,,,77,0
48029,note_on,3,0,1,,,,,,,,0,,,82,64
48029,note_on,3,0,2,,,,,,,,0,,,70,64
48057,note_on,28,0,1,,,,,,,,0,,,82,0
48057,note_on,28,0,2,,,,,,,,0,,,70,0
48061,note_on,4,0,1,,,,,,,,0,,,85,64
48061,note_on,4,0,2,,,,,,,,0,,,73,64
48089,note_on,28,0,1,,,,,,,,0,,,85,0
48089,note_on,28,0,2,,,,,,,,0,,,73,0
48092,note_on,3,0,1,,,,,,,,0,,,82,64
48092,note_on,3,0,2,,,,,,,,0,,,70,64
48120,note_on,28,0,1,,,,,,,,0,,,82,0
48120,note_on,28,0,2,,,,,,,,0,,,70,0
48123,note_on,3,0,1,,,,,,,,0,,,77,64
48123,note_on,3,0,2,,,,,,,,0,,,65,64
48152,note_on,29,0,1,,,,,,,,0,,,77,0
48152,note_on,29,0,2,,,,,,,,0,,,65,0
48155,note_on,3,0,2,,,,,,,,0,,,61,64
48155,note_on,3,0,1,,,,,,,,0,,,73,64
48166,note_on,0,0,3,,,,,,,,0,,,49,0
48166,note_on,265,0,3,,,,,,,,0,,,73,0
48166,note_on,0,0,3,,,,,,,,0,,,61,0
48183,note_on,28,0,2,,,,,,,,0,,,61,0
48183,note_on,28,0,1,,,,,,,,0,,,73,0
48186,note_on,3,0,2,,,,,,,,0,,,58,64
48186,note_on,3,0,1,,,,,,,,0,,,70,64
48214,note_on,28,0,1,,,,,,,,0,,,70,0
48214,note_on,28,0,2,,,,,,,,0,,,58,0
48218,note_on,4,0,1,,,,,,,,0,,,65,64
48218,note_on,4,0,2,,,,,,,,0,,,53,64
48240,note_on,74,0,3,,,,,,,,0,,,74,80
48240,note_on,0,0,3,,,,,,,,0,,,62,80
48240,note_on,0,0,3,,,,,,,,0,,,50,80
48245,control_change,5,0,3,,,,,,,,0,64,0,,
48247,note_on,29,0,1,,,,,,,,0,,,65,0
48247,note_on,29,0,2,,,,,,,,0,,,53,0
48265,note_on,18,0,1,,,,,,,,0,,,65,64
48265,note_on,18,0,2,,,,,,,,0,,,53,64
48269,control_change,24,0,3,,,,,,,,0,64,127,,
48293,note_on,28,0,1,,,,,,,,0,,,65,0
48293,note_on,28,0,2,,,,,,,,0,,,53,0
48296,note_on,3,0,2,,,,,,,,0,,,58,64
48296,note_on,3,0,1,,,,,,,,0,,,70,64
48324,note_on,28,0,2,,,,,,,,0,,,58,0
48324,note_on,28,0,1,,,,,,,,0,,,70,0
48327,note_on,3,0,1,,,,,,,,0,,,74,64
48327,note_on,3,0,2,,,,,,,,0,,,62,64
48356,note_on,29,0,2,,,,,,,,0,,,62,0
48356,note_on,29,0,1,,,,,,,,0,,,74,0
48359,note_on,3,0,1,,,,,,,,0,,,77,64
48359,note_on,3,0,2,,,,,,,,0,,,65,64
48387,note_on,28,0,2,,,,,,,,0,,,65,0
48387,note_on,28,0,1,,,,,,,,0,,,77,0
48390,note_on,3,0,2,,,,,,,,0,,,70,64
48390,note_on,3,0,1,,,,,,,,0,,,82,64
48420,note_on,30,0,2,,,,,,,,0,,,70,0
48420,note_on,30,0,1,,,,,,,,0,,,82,0
48422,note_on,2,0,1,,,,,,,,0,,,86,64
48422,note_on,2,0,2,,,,,,,,0,,,74,64
48450,note_on,28,0,2,,,,,,,,0,,,74,0
48450,note_on,28,0,1,,,,,,,,0,,,86,0
48453,note_on,3,0,1,,,,,,,,0,,,82,64
48453,note_on,3,0,2,,,,,,,,0,,,70,64
48481,note_on,28,0,1,,,,,,,,0,,,82,0
48481,note_on,28,0,2,,,,,,,,0,,,70,0
48484,note_on,3,0,1,,,,,,,,0,,,77,64
48484,note_on,3,0,2,,,,,,,,0,,,65,64
48514,note_on,30,0,1,,,,,,,,0,,,77,0
48514,note_on,30,0,2,,,,,,,,0,,,65,0
48517,note_on,3,0,2,,,,,,,,0,,,62,64
48517,note_on,3,0,1,,,,,,,,0,,,74,64
48526,note_on,0,0,3,,,,,,,,0,,,74,0
48526,note_on,0,0,3,,,,,,,,0,,,62,0
48526,note_on,257,0,3,,,,,,,,0,,,50,0
48545,note_on,28,0,2,,,,,,,,0,,,62,0
48545,note_on,28,0,1,,,,,,,,0,,,74,0
48547,note_on,2,0,2,,,,,,,,0,,,58,64
48547,note_on,2,0,1,,,,,,,,0,,,70,64
48577,note_on,30,0,1,,,,,,,,0,,,70,0
48577,note_on,30,0,2,,,,,,,,0,,,58,0
48580,note_on,3,0,2,,,,,,,,0,,,53,64
48580,note_on,3,0,1,,,,,,,,0,,,65,64
48588,note_on,8,0,2,,,,,,,,0,,,53,0
48588,note_on,8,0,1,,,,,,,,0,,,65,0
48600,control_change,74,0,3,,,,,,,,0,64,0,,
48600,note_on,0,0,3,,,,,,,,0,,,78,80
48600,note_on,0,0,3,,,,,,,,0,,,54,80
48600,note_on,0,0,3,,,,,,,,0,,,66,80
48621,control_change,21,0,3,,,,,,,,0,64,127,,
48622,note_on,34,0,1,,,,,,,,0,,,69,64
48622,note_on,34,0,2,,,,,,,,0,,,57,51
48650,note_on,28,0,1,,,,,,,,0,,,69,0
48650,note_on,28,0,2,,,,,,,,0,,,57,0
48652,note_on,2,0,1,,,,,,,,0,,,74,64
48652,note_on,2,0,2,,,,,,,,0,,,54,55
48680,note_on,28,0,2,,,,,,,,0,,,54,0
48680,note_on,28,0,1,,,,,,,,0,,,74,0
48681,note_on,1,0,1,,,,,,,,0,,,78,64
48681,note_on,1,0,2,,,,,,,,0,,,50,59
48709,note_on,28,0,2,,,,,,,,0,,,50,0
48709,note_on,28,0,1,,,,,,,,0,,,78,0
48712,note_on,3,0,1,,,,,,,,0,,,81,64
48712,note_on,3,0,2,,,,,,,,0,,,45,63
48740,note_on,28,0,2,,,,,,,,0,,,45,0
48740,note_on,28,0,1,,,,,,,,0,,,81,0
48742,note_on,2,0,2,,,,,,,,0,,,42,66
48742,note_on,2,0,1,,,,,,,,0,,,86,64
48770,note_on,28,0,2,,,,,,,,0,,,42,0
48770,note_on,28,0,1,,,,,,,,0,,,86,0
48771,note_on,1,0,2,,,,,,,,0,,,38,71
48771,note_on,1,0,1,,,,,,,,0,,,90,64
48799,note_on,28,0,1,,,,,,,,0,,,90,0
48799,note_on,28,0,2,,,,,,,,0,,,38,0
48802,note_on,3,0,2,,,,,,,,0,,,42,64
48802,note_on,3,0,1,,,,,,,,0,,,86,64
48830,note_on,28,0,1,,,,,,,,0,,,86,0
48830,note_on,28,0,2,,,,,,,,0,,,42,0
48832,note_on,2,0,1,,,,,,,,0,,,81,64
48832,note_on,2,0,2,,,,,,,,0,,,45,64
48860,note_on,28,0,2,,,,,,,,0,,,45,0
48860,note_on,28,0,1,,,,,,,,0,,,81,0
48861,note_on,1,0,2,,,,,,,,0,,,50,64
48861,note_on,1,0,1,,,,,,,,0,,,78,64
48886,note_on,0,0,3,,,,,,,,0,,,66,0
48886,note_on,0,0,3,,,,,,,,0,,,78,0
48886,note_on,265,0,3,,,,,,,,0,,,54,0
48889,note_on,28,0,1,,,,,,,,0,,,78,0
48889,note_on,28,0,2,,,,,,,,0,,,50,0
48892,note_on,3,0,1,,,,,,,,0,,,74,64
48892,note_on,3,0,2,,,,,,,,0,,,54,64
48920,note_on,28,0,1,,,,,,,,0,,,74,0
48920,note_on,28,0,2,,,,,,,,0,,,54,0
48922,note_on,2,0,1,,,,,,,,0,,,69,64
48922,note_on,2,0,2,,,,,,,,0,,,57,64
48950,note_on,28,0,1,,,,,,,,0,,,69,0
48950,note_on,28,0,2,,,,,,,,0,,,57,0
48951,note_on,1,0,2,,,,,,,,0,,,62,80
48951,note_on,1,0,1,,,,,,,,0,,,66,80
48971,control_change,85,0,3,,,,,,,,0,64,0,,
49096,note_on,145,0,2,,,,,,,,0,,,62,0
49096,note_on,145,0,1,,,,,,,,0,,,66,0
49131,note_on,0,0,1,,,,,,,,0,,,74,80
49131,note_on,35,0,2,,,,,,,,0,,,50,80
49131,note_on,35,0,1,,,,,,,,0,,,62,80
49239,note_on,108,0,2,,,,,,,,0,,,50,0
49239,note_on,108,0,1,,,,,,,,0,,,74,0
49239,note_on,0,0,1,,,,,,,,0,,,62,0
49266,note_on,27,0,1,,,,,,,,0,,,62,80
49266,note_on,0,0,1,,,,,,,,0,,,74,80
49266,note_on,27,0,2,,,,,,,,0,,,50,80
49303,note_on,37,0,2,,,,,,,,0,,,50,0
49303,note_on,37,0,1,,,,,,,,0,,,74,0
49303,note_on,0,0,1,,,,,,,,0,,,62,0
49311,note_on,8,0,2,,,,,,,,0,,,50,80
49311,note_on,8,0,1,,,,,,,,0,,,62,80
49311,note_on,0,0,1,,,,,,,,0,,,74,80
49456,note_on,145,0,2,,,,,,,,0,,,50,0
49456,note_on,0,0,1,,,,,,,,0,,,62,0
49456,note_on,145,0,1,,,,,,,,0,,,74,0
49491,note_on,35,0,2,,,,,,,,0,,,50,80
49491,note_on,35,0,1,,,,,,,,0,,,62,80
49491,note_on,0,0,1,,,,,,,,0,,,74,80
49636,note_on,145,0,2,,,,,,,,0,,,50,0
49636,note_on,145,0,1,,,,,,,,0,,,74,0
49636,note_on,0,0,1,,,,,,,,0,,,62,0
49680,note_on,709,0,3,,,,,,,,0,,,74,80
49680,note_on,0,0,3,,,,,,,,0,,,62,80
49680,note_on,0,0,3,,,,,,,,0,,,50,80
49680,control_change,0,0,3,,,,,,,,0,64,127,,
49702,note_on,66,0,2,,,,,,,,0,,,54,64
49702,note_on,66,0,1,,,,,,,,0,,,66,64
49730,note_on,28,0,1,,,,,,,,0,,,66,0
49730,note_on,28,0,2,,,,,,,,0,,,54,0
49733,note_on,3,0,2,,,,,,,,0,,,59,64
49733,note_on,3,0,1,,,,,,,,0,,,71,64
49761,note_on,28,0,2,,,,,,,,0,,,59,0
49761,note_on,28,0,1,,,,,,,,0,,,71,0
49764,note_on,3,0,2,,,,,,,,0,,,62,64
49764,note_on,3,0,1,,,,,,,,0,,,74,64
49793,note_on,29,0,1,,,,,,,,0,,,74,0
49793,note_on,29,0,2,,,,,,,,0,,,62,0
49796,note_on,3,0,2,,,,,,,,0,,,66,64
49796,note_on,3,0,1,,,,,,,,0,,,78,64
49824,note_on,28,0,1,,,,,,,,0,,,78,0
49824,note_on,28,0,2,,,,,,,,0,,,66,0
49827,note_on,3,0,1,,,,,,,,0,,,83,64
49827,note_on,3,0,2,,,,,,,,0,,,71,64
49855,note_on,28,0,1,,,,,,,,0,,,83,0
49855,note_on,28,0,2,,,,,,,,0,,,71,0
49860,note_on,5,0,2,,,,,,,,0,,,74,64
49860,note_on,5,0,1,,,,,,,,0,,,86,64
49888,note_on,28,0,2,,,,,,,,0,,,74,0
49888,note_on,28,0,1,,,,,,,,0,,,86,0
49890,note_on,2,0,1,,,,,,,,0,,,83,64
49890,note_on,2,0,2,,,,,,,,0,,,71,64
49919,note_on,29,0,1,,,,,,,,0,,,83,0
49919,note_on,29,0,2,,,,,,,,0,,,71,0
49921,note_on,2,0,1,,,,,,,,0,,,78,64
49921,note_on,2,0,2,,,,,,,,0,,,66,64
49951,note_on,30,0,2,,,,,,,,0,,,66,0
49951,note_on,30,0,1,,,,,,,,0,,,78,0
49954,note_on,3,0,2,,,,,,,,0,,,62,64
49954,note_on,3,0,1,,,,,,,,0,,,74,64
49966,note_on,286,0,3,,,,,,,,0,,,62,0
49966,note_on,0,0,3,,,,,,,,0,,,50,0
49966,note_on,0,0,3,,,,,,,,0,,,74,0
49982,note_on,28,0,1,,,,,,,,0,,,74,0
49982,note_on,28,0,2,,,,,,,,0,,,62,0
49985,note_on,3,0,2,,,,,,,,0,,,59,64
49985,note_on,3,0,1,,,,,,,,0,,,71,64
50013,note_on,28,0,1,,,,,,,,0,,,71,0
50013,note_on,28,0,2,,,,,,,,0,,,59,0
50017,note_on,4,0,1,,,,,,,,0,,,66,64
50017,note_on,4,0,2,,,,,,,,0,,,54,64
50040,note_on,0,0,3,,,,,,,,0,,,49,80
50040,note_on,0,0,3,,,,,,,,0,,,61,80
50040,control_change,0,0,3,,,,,,,,0,64,0,,
50040,note_on,74,0,3,,,,,,,,0,,,73,80
50045,note_on,28,0,1,,,,,,,,0,,,66,0
50045,note_on,28,0,2,,,,,,,,0,,,54,0
50063,note_on,18,0,2,,,,,,,,0,,,54,64
50063,note_on,18,0,1,,,,,,,,0,,,66,64
50064,control_change,24,0,3,,,,,,,,0,64,127,,
50092,note_on,29,0,1,,,,,,,,0,,,66,0
50092,note_on,29,0,2,,,,,,,,0,,,54,0
50094,note_on,2,0,2,,,,,,,,0,,,59,64
50094,note_on,2,0,1,,,,,,,,0,,,71,64
50122,note_on,28,0,2,,,,,,,,0,,,59,0
50122,note_on,28,0,1,,,,,,,,0,,,71,0
50125,note_on,3,0,1,,,,,,,,0,,,73,64
50125,note_on,3,0,2,,,,,,,,0,,,61,64
50155,note_on,30,0,2,,,,,,,,0,,,61,0
50155,note_on,30,0,1,,,,,,,,0,,,73,0
50158,note_on,3,0,1,,,,,,,,0,,,78,64
50158,note_on,3,0,2,,,,,,,,0,,,66,64
50186,note_on,28,0,1,,,,,,,,0,,,78,0
50186,note_on,28,0,2,,,,,,,,0,,,66,0
50189,note_on,3,0,2,,,,,,,,0,,,71,64
50189,note_on,3,0,1,,,,,,,,0,,,83,64
50217,note_on,28,0,1,,,,,,,,0,,,83,0
50217,note_on,28,0,2,,,,,,,,0,,,71,0
50221,note_on,4,0,2,,,,,,,,0,,,73,64
50221,note_on,4,0,1,,,,,,,,0,,,85,64
50249,note_on,28,0,1,,,,,,,,0,,,85,0
50249,note_on,28,0,2,,,,,,,,0,,,73,0
50252,note_on,3,0,1,,,,,,,,0,,,83,64
50252,note_on,3,0,2,,,,,,,,0,,,71,64
50280,note_on,28,0,2,,,,,,,,0,,,71,0
50280,note_on,28,0,1,,,,,,,,0,,,83,0
50283,note_on,3,0,2,,,,,,,,0,,,66,64
50283,note_on,3,0,1,,,,,,,,0,,,78,64
50312,note_on,29,0,1,,,,,,,,0,,,78,0
50312,note_on,29,0,2,,,,,,,,0,,,66,0
50315,note_on,3,0,1,,,,,,,,0,,,73,64
50315,note_on,3,0,2,,,,,,,,0,,,61,64
50326,note_on,0,0,3,,,,,,,,0,,,73,0
50326,note_on,262,0,3,,,,,,,,0,,,61,0
50326,note_on,0,0,3,,,,,,,,0,,,49,0
50343,note_on,28,0,1,,,,,,,,0,,,73,0
50343,note_on,28,0,2,,,,,,,,0,,,61,0
50346,note_on,3,0,1,,,,,,,,0,,,71,64
50346,note_on,3,0,2,,,,,,,,0,,,59,64
50374,note_on,28,0,1,,,,,,,,0,,,71,0
50374,note_on,28,0,2,,,,,,,,0,,,59,0
50378,note_on,4,0,2,,,,,,,,0,,,54,64
50378,note_on,4,0,1,,,,,,,,0,,,66,64
50400,note_on,0,0,3,,,,,,,,0,,,50,80
50400,note_on,0,0,3,,,,,,,,0,,,62,80
50400,note_on,74,0,3,,,,,,,,0,,,74,80
50403,control_change,3,0,3,,,,,,,,0,64,0,,
50407,note_on,29,0,2,,,,,,,,0,,,54,0
50407,note_on,29,0,1,,,,,,,,0,,,66,0
50425,note_on,18,0,1,,,,,,,,0,,,66,64
50425,note_on,18,0,2,,,,,,,,0,,,54,64
50432,control_change,29,0,3,,,,,,,,0,64,127,,
50453,note_on,28,0,1,,,,,,,,0,,,66,0
50453,note_on,28,0,2,,,,,,,,0,,,54,0
50456,note_on,3,0,2,,,,,,,,0,,,59,64
50456,note_on,3,0,1,,,,,,,,0,,,71,64
50484,note_on,28,0,1,,,,,,,,0,,,71,0
50484,note_on,28,0,2,,,,,,,,0,,,59,0
50487,note_on,3,0,2,,,,,,,,0,,,62,64
50487,note_on,3,0,1,,,,,,,,0,,,74,64
50516,note_on,29,0,1,,,,,,,,0,,,74,0
50516,note_on,29,0,2,,,,,,,,0,,,62,0
50519,note_on,3,0,1,,,,,,,,0,,,78,64
50519,note_on,3,0,2,,,,,,,,0,,,66,64
50547,note_on,28,0,1,,,,,,,,0,,,78,0
50547,note_on,28,0,2,,,,,,,,0,,,66,0
50550,note_on,3,0,1,,,,,,,,0,,,83,64
50550,note_on,3,0,2,,,,,,,,0,,,71,64
50580,note_on,30,0,1,,,,,,,,0,,,83,0
50580,note_on,30,0,2,,,,,,,,0,,,71,0
50582,note_on,2,0,2,,,,,,,,0,,,74,64
50582,note_on,2,0,1,,,,,,,,0,,,86,64
50610,note_on,28,0,1,,,,,,,,0,,,86,0
50610,note_on,28,0,2,,,,,,,,0,,,74,0
50613,note_on,3,0,1,,,,,,,,0,,,83,64
50613,note_on,3,0,2,,,,,,,,0,,,71,64
50641,note_on,28,0,1,,,,,,,,0,,,83,0
50641,note_on,28,0,2,,,,,,,,0,,,71,0
50644,note_on,3,0,1,,,,,,,,0,,,78,64
50644,note_on,3,0,2,,,,,,,,0,,,66,64
50674,note_on,30,0,1,,,,,,,,0,,,78,0
50674,note_on,30,0,2,,,,,,,,0,,,66,0
50677,note_on,3,0,1,,,,,,,,0,,,74,64
50677,note_on,3,0,2,,,,,,,,0,,,62,64
50686,note_on,254,0,3,,,,,,,,0,,,50,0
50686,note_on,0,0,3,,,,,,,,0,,,62,0
50686,note_on,0,0,3,,,,,,,,0,,,74,0
50705,note_on,28,0,2,,,,,,,,0,,,62,0
50705,note_on,28,0,1,,,,,,,,0,,,74,0
50707,note_on,2,0,1,,,,,,,,0,,,71,64
50707,note_on,2,0,2,,,,,,,,0,,,59,64
50737,note_on,30,0,1,,,,,,,,0,,,71,0
50737,note_on,30,0,2,,,,,,,,0,,,59,0
50740,note_on,3,0,1,,,,,,,,0,,,66,64
50748,note_on,8,0,1,,,,,,,,0,,,66,0
50760,note_on,0,0,3,,,,,,,,0,,,66,80
50760,control_change,0,0,3,,,,,,,,0,64,0,,
50760,note_on,74,0,3,,,,,,,,0,,,78,80
50760,note_on,0,0,3,,,,,,,,0,,,54,80
50782,note_on,34,0,1,,,,,,,,0,,,70,64
50789,control_change,29,0,3,,,,,,,,0,64,127,,
50810,note_on,28,0,1,,,,,,,,0,,,70,0
50812,note_on,75,0,2,,,,,,,,0,,,58,64
50812,note_on,2,0,1,,,,,,,,0,,,73,64
50840,note_on,28,0,1,,,,,,,,0,,,73,0
50840,note_on,28,0,2,,,,,,,,0,,,58,0
50841,note_on,1,0,2,,,,,,,,0,,,54,64
50841,note_on,1,0,1,,,,,,,,0,,,78,64
50869,note_on,28,0,1,,,,,,,,0,,,78,0
50869,note_on,28,0,2,,,,,,,,0,,,54,0
50872,note_on,3,0,1,,,,,,,,0,,,82,64
50872,note_on,3,0,2,,,,,,,,0,,,49,64
50900,note_on,28,0,1,,,,,,,,0,,,82,0
50900,note_on,28,0,2,,,,,,,,0,,,49,0
50902,note_on,2,0,2,,,,,,,,0,,,46,64
50902,note_on,2,0,1,,,,,,,,0,,,85,64
50930,note_on,28,0,2,,,,,,,,0,,,46,0
50930,note_on,28,0,1,,,,,,,,0,,,85,0
50931,note_on,1,0,1,,,,,,,,0,,,90,80
50931,note_on,1,0,2,,,,,,,,0,,,42,64
50959,note_on,28,0,1,,,,,,,,0,,,90,0
50959,note_on,28,0,2,,,,,,,,0,,,42,0
50962,note_on,3,0,2,,,,,,,,0,,,46,64
50962,note_on,3,0,1,,,,,,,,0,,,85,64
50990,note_on,28,0,2,,,,,,,,0,,,46,0
50990,note_on,28,0,1,,,,,,,,0,,,85,0
50992,note_on,2,0,2,,,,,,,,0,,,49,64
50992,note_on,2,0,1,,,,,,,,0,,,82,64
51020,note_on,28,0,2,,,,,,,,0,,,49,0
51020,note_on,28,0,1,,,,,,,,0,,,82,0
51021,note_on,1,0,2,,,,,,,,0,,,54,64
51021,note_on,1,0,1,,,,,,,,0,,,78,64
51046,note_on,0,0,3,,,,,,,,0,,,78,0
51046,note_on,257,0,3,,,,,,,,0,,,66,0
51046,note_on,0,0,3,,,,,,,,0,,,54,0
51049,note_on,28,0,2,,,,,,,,0,,,54,0
51049,note_on,28,0,1,,,,,,,,0,,,78,0
51052,note_on,3,0,1,,,,,,,,0,,,73,64
51052,note_on,3,0,2,,,,,,,,0,,,58,64
51080,note_on,28,0,2,,,,,,,,0,,,58,0
51080,note_on,28,0,1,,,,,,,,0,,,73,0
51082,note_on,2,0,1,,,,,,,,0,,,70,64
51082,note_on,2,0,2,,,,,,,,0,,,61,64
51110,note_on,28,0,1,,,,,,,,0,,,70,0
51110,note_on,28,0,2,,,,,,,,0,,,61,0
51111,note_on,1,0,2,,,,,,,,0,,,66,90
51120,control_change,74,0,3,,,,,,,,0,64,0,,
51256,note_on,145,0,2,,,,,,,,0,,,66,0
51291,note_on,35,0,2,,,,,,,,0,,,54,80
51291,note_on,0,0,1,,,,,,,,0,,,78,80
51291,note_on,181,0,1,,,,,,,,0,,,66,80
51399,note_on,108,0,2,,,,,,,,0,,,54,0
51399,note_on,108,0,1,,,,,,,,0,,,78,0
51399,note_on,0,0,1,,,,,,,,0,,,66,0
51426,note_on,27,0,2,,,,,,,,0,,,54,80
51426,note_on,0,0,1,,,,,,,,0,,,78,80
51426,note_on,27,0,1,,,,,,,,0,,,66,80
51463,note_on,37,0,2,,,,,,,,0,,,54,0
51463,note_on,37,0,1,,,,,,,,0,,,78,0
51463,note_on,0,0,1,,,,,,,,0,,,66,0
51471,note_on,8,0,1,,,,,,,,0,,,66,80
51471,note_on,0,0,1,,,,,,,,0,,,78,80
51471,note_on,8,0,2,,,,,,,,0,,,54,80
51616,note_on,145,0,1,,,,,,,,0,,,78,0
51616,note_on,145,0,2,,,,,,,,0,,,54,0
51616,note_on,0,0,1,,,,,,,,0,,,66,0
51651,note_on,0,0,1,,,,,,,,0,,,78,80
51651,note_on,35,0,2,,,,,,,,0,,,54,80
51651,note_on,35,0,1,,,,,,,,0,,,66,80
51796,note_on,0,0,1,,,,,,,,0,,,66,0
51796,note_on,145,0,1,,,,,,,,0,,,78,0
51796,note_on,145,0,2,,,,,,,,0,,,54,0
51840,note_on,0,0,3,,,,,,,,0,,,78,80
51840,note_on,0,0,3,,,,,,,,0,,,66,80
51840,note_on,0,0,3,,,,,,,,0,,,63,80
51840,control_change,720,0,3,,,,,,,,0,64,127,,
51840,note_on,0,0,3,,,,,,,,0,,,51,80
51862,note_on,66,0,2,,,,,,,,0,,,58,64
51862,note_on,66,0,1,,,,,,,,0,,,70,64
51890,note_on,28,0,2,,,,,,,,0,,,58,0
51890,note_on,28,0,1,,,,,,,,0,,,70,0
51892,note_on,2,0,1,,,,,,,,0,,,75,64
51892,note_on,2,0,2,,,,,,,,0,,,54,64
51920,note_on,28,0,2,,,,,,,,0,,,54,0
51920,note_on,28,0,1,,,,,,,,0,,,75,0
51921,note_on,1,0,1,,,,,,,,0,,,78,64
51921,note_on,1,0,2,,,,,,,,0,,,51,64
51949,note_on,28,0,1,,,,,,,,0,,,78,0
51949,note_on,28,0,2,,,,,,,,0,,,51,0
51952,note_on,3,0,2,,,,,,,,0,,,46,64
51952,note_on,3,0,1,,,,,,,,0,,,82,64
51980,note_on,28,0,1,,,,,,,,0,,,82,0
51980,note_on,28,0,2,,,,,,,,0,,,46,0
51982,note_on,2,0,1,,,,,,,,0,,,87,64
51982,note_on,2,0,2,,,,,,,,0,,,42,64
52010,note_on,28,0,2,,,,,,,,0,,,42,0
52010,note_on,28,0,1,,,,,,,,0,,,87,0
52011,note_on,1,0,2,,,,,,,,0,,,39,64
52011,note_on,1,0,1,,,,,,,,0,,,90,64
52039,note_on,28,0,2,,,,,,,,0,,,39,0
52039,note_on,28,0,1,,,,,,,,0,,,90,0
52042,note_on,3,0,1,,,,,,,,0,,,87,64
52042,note_on,3,0,2,,,,,,,,0,,,42,64
52070,note_on,28,0,2,,,,,,,,0,,,42,0
52070,note_on,28,0,1,,,,,,,,0,,,87,0
52072,note_on,2,0,2,,,,,,,,0,,,46,64
52072,note_on,2,0,1,,,,,,,,0,,,82,64
52100,note_on,28,0,1,,,,,,,,0,,,82,0
52100,note_on,28,0,2,,,,,,,,0,,,46,0
52101,note_on,1,0,1,,,,,,,,0,,,78,64
52101,note_on,1,0,2,,,,,,,,0,,,51,64
52126,note_on,286,0,3,,,,,,,,0,,,78,0
52126,note_on,0,0,3,,,,,,,,0,,,66,0
52126,note_on,0,0,3,,,,,,,,0,,,51,0
52126,note_on,0,0,3,,,,,,,,0,,,63,0
52129,note_on,28,0,1,,,,,,,,0,,,78,0
52129,note_on,28,0,2,,,,,,,,0,,,51,0
52132,note_on,3,0,2,,,,,,,,0,,,54,64
52132,note_on,3,0,1,,,,,,,,0,,,75,64
52160,note_on,28,0,2,,,,,,,,0,,,54,0
52160,note_on,28,0,1,,,,,,,,0,,,75,0
52162,note_on,2,0,1,,,,,,,,0,,,70,64
52162,note_on,2,0,2,,,,,,,,0,,,58,64
52190,note_on,28,0,1,,,,,,,,0,,,70,0
52190,note_on,28,0,2,,,,,,,,0,,,58,0
52191,note_on,1,0,1,,,,,,,,0,,,66,80
52191,note_on,1,0,2,,,,,,,,0,,,63,80
52203,control_change,77,0,3,,,,,,,,0,64,0,,
52336,note_on,145,0,1,,,,,,,,0,,,66,0
52336,note_on,145,0,2,,,,,,,,0,,,63,0
52371,note_on,35,0,2,,,,,,,,0,,,54,80
52371,note_on,0,0,1,,,,,,,,0,,,78,80
52371,note_on,35,0,1,,,,,,,,0,,,66,80
52479,note_on,108,0,2,,,,,,,,0,,,54,0
52479,note_on,108,0,1,,,,,,,,0,,,78,0
52479,note_on,0,0,1,,,,,,,,0,,,66,0
52506,note_on,0,0,1,,,,,,,,0,,,78,80
52506,note_on,27,0,1,,,,,,,,0,,,66,80
52506,note_on,27,0,2,,,,,,,,0,,,54,80
52543,note_on,37,0,2,,,,,,,,0,,,54,0
52543,note_on,37,0,1,,,,,,,,0,,,78,0
52543,note_on,0,0,1,,,,,,,,0,,,66,0
52551,note_on,8,0,2,,,,,,,,0,,,54,80
52551,note_on,8,0,1,,,,,,,,0,,,66,80
52551,note_on,0,0,1,,,,,,,,0,,,78,80
52696,note_on,145,0,1,,,,,,,,0,,,78,0
52696,note_on,0,0,1,,,,,,,,0,,,66,0
52696,note_on,145,0,2,,,,,,,,0,,,54,0
52731,note_on,35,0,1,,,,,,,,0,,,66,80
52731,note_on,0,0,1,,,,,,,,0,,,78,80
52731,note_on,35,0,2,,,,,,,,0,,,54,80
52876,note_on,0,0,1,,,,,,,,0,,,66,0
52876,note_on,145,0,1,,,,,,,,0,,,78,0
52876,note_on,145,0,2,,,,,,,,0,,,54,0
52920,note_on,0,0,1,,,,,,,,0,,,70,80
52920,note_on,44,0,2,,,,,,,,0,,,58,80
52920,note_on,0,0,1,,,,,,,,0,,,82,80
52920,control_change,44,0,1,,,,,,,,0,64,127,,
52920,note_on,0,0,2,,,,,,,,0,,,46,80
52942,note_on,22,0,1,,,,,,,,0,,,77,80
52942,note_on,22,0,2,,,,,,,,0,,,50,80
52948,note_on,6,0,1,,,,,,,,0,,,82,0
52948,note_on,0,0,2,,,,,,,,0,,,58,0
52948,note_on,6,0,2,,,,,,,,0,,,46,0
52948,note_on,0,0,1,,,,,,,,0,,,70,0
52970,note_on,22,0,1,,,,,,,,0,,,77,0
52970,note_on,22,0,2,,,,,,,,0,,,50,0
52972,note_on,2,0,2,,,,,,,,0,,,53,80
52972,note_on,2,0,1,,,,,,,,0,,,74,80
53000,note_on,28,0,2,,,,,,,,0,,,53,0
53000,note_on,28,0,1,,,,,,,,0,,,74,0
53001,note_on,1,0,2,,,,,,,,0,,,58,80
53001,note_on,1,0,1,,,,,,,,0,,,70,80
53029,note_on,28,0,1,,,,,,,,0,,,70,0
53029,note_on,28,0,2,,,,,,,,0,,,58,0
53032,note_on,3,0,2,,,,,,,,0,,,53,80
53032,note_on,3,0,1,,,,,,,,0,,,74,80
53060,note_on,28,0,1,,,,,,,,0,,,74,0
53060,note_on,28,0,2,,,,,,,,0,,,53,0
53062,note_on,2,0,2,,,,,,,,0,,,50,80
53062,note_on,2,0,1,,,,,,,,0,,,77,80
53090,note_on,28,0,2,,,,,,,,0,,,50,0
53090,note_on,28,0,1,,,,,,,,0,,,77,0
53091,note_on,1,0,2,,,,,,,,0,,,46,80
53091,note_on,1,0,1,,,,,,,,0,,,82,80
53119,note_on,28,0,2,,,,,,,,0,,,46,0
53119,note_on,28,0,1,,,,,,,,0,,,82,0
53122,note_on,3,0,1,,,,,,,,0,,,86,80
53122,note_on,3,0,2,,,,,,,,0,,,41,80
53150,note_on,28,0,2,,,,,,,,0,,,41,0
53150,note_on,28,0,1,,,,,,,,0,,,86,0
53152,note_on,2,0,2,,,,,,,,0,,,38,80
53152,note_on,2,0,1,,,,,,,,0,,,89,80
53180,note_on,28,0,1,,,,,,,,0,,,89,0
53180,note_on,28,0,2,,,,,,,,0,,,38,0
53181,note_on,0,0,1,,,,,,,,0,,,94,80
53181,note_on,1,0,2,,,,,,,,0,,,41,80
53181,note_on,0,0,1,,,,,,,,0,,,86,80
53181,note_on,0,0,2,,,,,,,,0,,,34,80
53181,note_on,0,0,2,,,,,,,,0,,,46,80
53181,note_on,1,0,1,,,,,,,,0,,,82,80
53270,note_on,89,0,2,,,,,,,,0,,,46,0
53270,note_on,89,0,1,,,,,,,,0,,,94,0
53270,note_on,0,0,2,,,,,,,,0,,,41,0
53270,note_on,0,0,1,,,,,,,,0,,,86,0
53270,note_on,0,0,1,,,,,,,,0,,,82,0
53270,note_on,0,0,2,,,,,,,,0,,,34,0
53272,control_change,2,0,1,,,,,,,,0,64,0,,
53280,note_on,8,0,1,,,,,,,,0,,,70,80
53280,note_on,10,0,2,,,,,,,,0,,,55,80
53280,note_on,0,0,1,,,,,,,,0,,,82,80
53280,note_on,0,0,2,,,,,,,,0,,,43,80
53293,control_change,13,0,1,,,,,,,,0,64,127,,
53302,note_on,9,0,1,,,,,,,,0,,,79,80
53302,note_on,22,0,2,,,,,,,,0,,,46,80
53308,note_on,0,0,1,,,,,,,,0,,,70,0
53308,note_on,0,0,2,,,,,,,,0,,,55,0
53308,note_on,6,0,2,,,,,,,,0,,,43,0
53308,note_on,6,0,1,,,,,,,,0,,,82,0
53330,note_on,22,0,2,,,,,,,,0,,,46,0
53330,note_on,22,0,1,,,,,,,,0,,,79,0
53332,note_on,2,0,1,,,,,,,,0,,,74,80
53332,note_on,2,0,2,,,,,,,,0,,,50,80
53360,note_on,28,0,1,,,,,,,,0,,,74,0
53360,note_on,28,0,2,,,,,,,,0,,,50,0
53361,note_on,1,0,2,,,,,,,,0,,,55,80
53361,note_on,1,0,1,,,,,,,,0,,,70,80
53389,note_on,28,0,1,,,,,,,,0,,,70,0
53389,note_on,28,0,2,,,,,,,,0,,,55,0
53392,note_on,3,0,1,,,,,,,,0,,,74,80
53392,note_on,3,0,2,,,,,,,,0,,,50,80
53420,note_on,28,0,2,,,,,,,,0,,,50,0
53420,note_on,28,0,1,,,,,,,,0,,,74,0
53422,note_on,2,0,1,,,,,,,,0,,,79,80
53422,note_on,2,0,2,,,,,,,,0,,,46,80
53450,note_on,28,0,1,,,,,,,,0,,,79,0
53450,note_on,28,0,2,,,,,,,,0,,,46,0
53451,note_on,1,0,1,,,,,,,,0,,,82,80
53451,note_on,1,0,2,,,,,,,,0,,,43,80
53479,note_on,28,0,1,,,,,,,,0,,,82,0
53479,note_on,28,0,2,,,,,,,,0,,,43,0
53482,note_on,3,0,1,,,,,,,,0,,,86,80
53482,note_on,3,0,2,,,,,,,,0,,,38,80
53510,note_on,28,0,2,,,,,,,,0,,,38,0
53510,note_on,28,0,1,,,,,,,,0,,,86,0
53512,note_on,2,0,1,,,,,,,,0,,,91,80
53512,note_on,2,0,2,,,,,,,,0,,,34,80
53540,note_on,28,0,1,,,,,,,,0,,,91,0
53540,note_on,28,0,2,,,,,,,,0,,,34,0
53541,note_on,0,0,1,,,,,,,,0,,,86,80
53541,note_on,1,0,1,,,,,,,,0,,,82,80
53541,note_on,0,0,1,,,,,,,,0,,,94,80
53541,note_on,0,0,2,,,,,,,,0,,,43,80
53541,note_on,1,0,2,,,,,,,,0,,,38,80
53541,note_on,0,0,2,,,,,,,,0,,,31,80
53630,note_on,89,0,2,,,,,,,,0,,,43,0
53630,note_on,0,0,2,,,,,,,,0,,,31,0
53630,note_on,89,0,1,,,,,,,,0,,,94,0
53630,note_on,0,0,2,,,,,,,,0,,,38,0
53630,note_on,0,0,1,,,,,,,,0,,,82,0
53630,note_on,0,0,1,,,,,,,,0,,,86,0
53631,note_on,0,0,2,,,,,,,,0,,,38,80
53631,note_on,1,0,1,,,,,,,,0,,,74,80
53631,note_on,1,0,2,,,,,,,,0,,,50,80
53631,note_on,0,0,1,,,,,,,,0,,,86,80
53645,control_change,14,0,1,,,,,,,,0,64,0,,
53661,control_change,16,0,1,,,,,,,,0,64,127,,
53668,note_on,7,0,1,,,,,,,,0,,,86,0
53668,note_on,37,0,2,,,,,,,,0,,,38,0
53668,note_on,0,0,1,,,,,,,,0,,,74,0
53668,note_on,0,0,2,,,,,,,,0,,,50,0
53676,note_on,0,0,1,,,,,,,,0,,,81,80
53676,note_on,8,0,1,,,,,,,,0,,,78,80
53676,note_on,8,0,2,,,,,,,,0,,,45,80
53676,note_on,0,0,2,,,,,,,,0,,,42,80
53713,note_on,0,0,2,,,,,,,,0,,,45,0
53713,note_on,37,0,1,,,,,,,,0,,,81,0
53713,note_on,0,0,1,,,,,,,,0,,,78,0
53713,note_on,37,0,2,,,,,,,,0,,,42,0
53721,note_on,8,0,2,,,,,,,,0,,,50,80
53721,note_on,8,0,1,,,,,,,,0,,,74,80
53758,note_on,37,0,1,,,,,,,,0,,,74,0
53758,note_on,37,0,2,,,,,,,,0,,,50,0
53766,note_on,8,0,1,,,,,,,,0,,,78,80
53766,note_on,0,0,2,,,,,,,,0,,,45,80
53766,note_on,0,0,1,,,,,,,,0,,,81,80
53766,note_on,8,0,2,,,,,,,,0,,,42,80
53803,note_on,37,0,2,,,,,,,,0,,,45,0
53803,note_on,0,0,1,,,,,,,,0,,,78,0
53803,note_on,37,0,1,,,,,,,,0,,,81,0
53803,note_on,0,0,2,,,,,,,,0,,,42,0
53811,note_on,8,0,1,,,,,,,,0,,,74,80
53811,note_on,8,0,2,,,,,,,,0,,,35,80
53811,note_on,0,0,2,,,,,,,,0,,,47,80
53811,note_on,0,0,1,,,,,,,,0,,,86,80
53848,note_on,0,0,1,,,,,,,,0,,,74,0
53848,note_on,37,0,1,,,,,,,,0,,,86,0
53848,note_on,0,0,2,,,,,,,,0,,,35,0
53848,note_on,37,0,2,,,,,,,,0,,,47,0
53856,note_on,8,0,2,,,,,,,,0,,,42,80
53856,note_on,0,0,2,,,,,,,,0,,,38,80
53856,note_on,8,0,1,,,,,,,,0,,,78,80
53856,note_on,0,0,1,,,,,,,,0,,,83,80
53893,note_on,0,0,1,,,,,,,,0,,,78,0
53893,note_on,0,0,2,,,,,,,,0,,,42,0
53893,note_on,37,0,1,,,,,,,,0,,,83,0
53893,note_on,37,0,2,,,,,,,,0,,,38,0
53901,note_on,8,0,2,,,,,,,,0,,,47,80
53901,note_on,8,0,1,,,,,,,,0,,,74,80
53938,note_on,37,0,1,,,,,,,,0,,,74,0
53938,note_on,37,0,2,,,,,,,,0,,,47,0
53946,note_on,0,0,2,,,,,,,,0,,,42,80
53946,note_on,0,0,1,,,,,,,,0,,,78,80
53946,note_on,8,0,2,,,,,,,,0,,,38,80
53946,note_on,8,0,1,,,,,,,,0,,,83,80
53983,note_on,0,0,2,,,,,,,,0,,,38,0
53983,note_on,0,0,1,,,,,,,,0,,,83,0
53983,note_on,37,0,1,,,,,,,,0,,,78,0
53983,note_on,37,0,2,,,,,,,,0,,,42,0
54000,control_change,17,0,1,,,,,,,,0,64,0,,
54000,note_on,0,0,1,,,,,,,,0,,,90,80
54000,note_on,17,0,2,,,,,,,,0,,,54,80
54000,note_on,0,0,1,,,,,,,,0,,,78,80
54000,note_on,0,0,2,,,,,,,,0,,,42,80
54021,control_change,21,0,1,,,,,,,,0,64,127,,
54035,note_on,35,0,2,,,,,,,,0,,,42,0
54035,note_on,14,0,1,,,,,,,,0,,,90,0
54035,note_on,0,0,1,,,,,,,,0,,,78,0
54035,note_on,0,0,2,,,,,,,,0,,,54,0
54045,note_on,10,0,2,,,,,,,,0,,,49,80
54045,note_on,10,0,1,,,,,,,,0,,,82,80
54045,note_on,0,0,2,,,,,,,,0,,,46,80
54045,note_on,0,0,1,,,,,,,,0,,,85,80
54080,note_on,35,0,2,,,,,,,,0,,,46,0
54080,note_on,35,0,1,,,,,,,,0,,,85,0
54080,note_on,0,0,1,,,,,,,,0,,,82,0
54080,note_on,0,0,2,,,,,,,,0,,,49,0
54090,note_on,10,0,2,,,,,,,,0,,,54,80
54090,note_on,10,0,1,,,,,,,,0,,,78,80
54125,note_on,35,0,2,,,,,,,,0,,,54,0
54125,note_on,35,0,1,,,,,,,,0,,,78,0
54135,note_on,10,0,2,,,,,,,,0,,,49,80
54135,note_on,0,0,1,,,,,,,,0,,,85,80
54135,note_on,0,0,2,,,,,,,,0,,,46,80
54135,note_on,10,0,1,,,,,,,,0,,,82,80
54170,note_on,35,0,1,,,,,,,,0,,,85,0
54170,note_on,0,0,2,,,,,,,,0,,,49,0
54170,note_on,0,0,1,,,,,,,,0,,,82,0
54170,note_on,35,0,2,,,,,,,,0,,,46,0
54180,note_on,0,0,1,,,,,,,,0,,,90,80
54180,note_on,0,0,2,,,,,,,,0,,,39,80
54180,note_on,10,0,1,,,,,,,,0,,,78,80
54180,note_on,10,0,2,,,,,,,,0,,,51,80
54215,note_on,0,0,1,,,,,,,,0,,,78,0
54215,note_on,35,0,2,,,,,,,,0,,,39,0
54215,note_on,35,0,1,,,,,,,,0,,,90,0
54215,note_on,0,0,2,,,,,,,,0,,,51,0
54225,note_on,0,0,1,,,,,,,,0,,,87,80
54225,note_on,10,0,1,,,,,,,,0,,,82,80
54225,note_on,0,0,2,,,,,,,,0,,,42,80
54225,note_on,10,0,2,,,,,,,,0,,,46,80
54260,note_on,35,0,1,,,,,,,,0,,,87,0
54260,note_on,0,0,1,,,,,,,,0,,,82,0
54260,note_on,35,0,2,,,,,,,,0,,,42,0
54260,note_on,0,0,2,,,,,,,,0,,,46,0
54270,note_on,10,0,1,,,,,,,,0,,,78,80
54270,note_on,10,0,2,,,,,,,,0,,,51,80
54305,note_on,35,0,1,,,,,,,,0,,,78,0
54305,note_on,35,0,2,,,,,,,,0,,,51,0
54315,note_on,10,0,2,,,,,,,,0,,,46,80
54315,note_on,0,0,2,,,,,,,,0,,,42,80
54315,note_on,10,0,1,,,,,,,,0,,,82,80
54315,note_on,0,0,1,,,,,,,,0,,,87,80
54317,set_tempo,6797,1,0,,,,,,1072194,,,,,,
54324,set_tempo,7,1,0,,,,,,1091504,,,,,,
54344,set_tempo,20,1,0,,,,,,1111523,,,,,,
54350,note_on,35,0,2,,,,,,,,0,,,42,0
54350,note_on,0,0,1,,,,,,,,0,,,82,0
54350,note_on,0,0,2,,,,,,,,0,,,46,0
54350,note_on,35,0,1,,,,,,,,0,,,87,0
54360,note_on,0,0,1,,,,,,,,0,,,94,80
54360,note_on,10,0,1,,,,,,,,0,,,82,80
54360,note_on,0,0,2,,,,,,,,0,,,34,80
54360,note_on,10,0,2,,,,,,,,0,,,46,80
54363,control_change,3,0,1,,,,,,,,0,64,0,,
54379,control_change,16,0,1,,,,,,,,0,64,127,,
54395,note_on,35,0,2,,,,,,,,0,,,34,0
54395,note_on,0,0,2,,,,,,,,0,,,46,0
54395,note_on,16,0,1,,,,,,,,0,,,94,0
54395,note_on,0,0,1,,,,,,,,0,,,82,0
54402,set_tempo,58,1,0,,,,,,1053556,,,,,,
54405,note_on,10,0,2,,,,,,,,0,,,41,80
54405,note_on,10,0,1,,,,,,,,0,,,86,80
54405,note_on,0,0,2,,,,,,,,0,,,38,80
54405,note_on,0,0,1,,,,,,,,0,,,89,80
54440,note_on,0,0,1,,,,,,,,0,,,86,0
54440,note_on,0,0,2,,,,,,,,0,,,41,0
54440,note_on,35,0,2,,,,,,,,0,,,38,0
54440,note_on,35,0,1,,,,,,,,0,,,89,0
54450,note_on,10,0,1,,,,,,,,0,,,82,80
54450,note_on,10,0,2,,,,,,,,0,,,46,80
54455,set_tempo,53,1,0,,,,,,1035554,,,,,,
54485,note_on,35,0,2,,,,,,,,0,,,46,0
54485,note_on,35,0,1,,,,,,,,0,,,82,0
54495,note_on,10,0,2,,,,,,,,0,,,41,80
54495,note_on,0,0,1,,,,,,,,0,,,89,80
54495,note_on,0,0,2,,,,,,,,0,,,38,80
54495,note_on,10,0,1,,,,,,,,0,,,86,80
54514,set_tempo,59,1,0,,,,,,1018157,,,,,,
54530,note_on,0,0,2,,,,,,,,0,,,41,0
54530,note_on,35,0,1,,,,,,,,0,,,89,0
54530,note_on,35,0,2,,,,,,,,0,,,38,0
54530,note_on,0,0,1,,,,,,,,0,,,86,0
54540,note_on,10,0,2,,,,,,,,0,,,43,80
54540,note_on,0,0,1,,,,,,,,0,,,94,80
54540,note_on,10,0,1,,,,,,,,0,,,82,80
54540,note_on,0,0,2,,,,,,,,0,,,31,80
54566,set_tempo,52,1,0,,,,,,1001335,,,,,,
54575,note_on,0,0,1,,,,,,,,0,,,82,0
54575,note_on,0,0,2,,,,,,,,0,,,43,0
54575,note_on,35,0,1,,,,,,,,0,,,94,0
54575,note_on,35,0,2,,,,,,,,0,,,31,0
54585,note_on,10,0,1,,,,,,,,0,,,86,80
54585,note_on,0,0,2,,,,,,,,0,,,34,80
54585,note_on,0,0,1,,,,,,,,0,,,91,80
54585,note_on,10,0,2,,,,,,,,0,,,38,80
54620,note_on,35,0,1,,,,,,,,0,,,91,0
54620,note_on,0,0,1,,,,,,,,0,,,86,0
54620,note_on,0,0,2,,,,,,,,0,,,38,0
54620,note_on,35,0,2,,,,,,,,0,,,34,0
54625,set_tempo,59,1,0,,,,,,985060,,,,,,
54630,note_on,10,0,1,,,,,,,,0,,,82,80
54630,note_on,10,0,2,,,,,,,,0,,,43,80
54665,note_on,35,0,1,,,,,,,,0,,,82,0
54665,note_on,35,0,2,,,,,,,,0,,,43,0
54675,note_on,0,0,2,,,,,,,,0,,,34,80
54675,note_on,10,0,2,,,,,,,,0,,,38,80
54675,note_on,10,0,1,,,,,,,,0,,,86,80
54675,note_on,0,0,1,,,,,,,,0,,,91,80
54677,set_tempo,52,1,0,,,,,,969305,,,,,,
54710,note_on,35,0,1,,,,,,,,0,,,91,0
54710,note_on,35,0,2,,,,,,,,0,,,34,0
54710,note_on,0,0,1,,,,,,,,0,,,86,0
54710,note_on,0,0,2,,,,,,,,0,,,38,0
54720,note_on,10,0,2,,,,,,,,0,,,50,80
54720,control_change,10,0,1,,,,,,,,0,64,0,,
54720,note_on,0,0,2,,,,,,,,0,,,38,80
54720,note_on,0,0,1,,,,,,,,0,,,86,80
54720,note_on,0,0,1,,,,,,,,0,,,98,80
54736,set_tempo,59,1,0,,,,,,954047,,,,,,
54746,control_change,26,0,1,,,,,,,,0,64,127,,
54755,note_on,0,0,1,,,,,,,,0,,,86,0
54755,note_on,35,0,2,,,,,,,,0,,,38,0
54755,note_on,0,0,2,,,,,,,,0,,,50,0
54755,note_on,9,0,1,,,,,,,,0,,,98,0
54765,note_on,10,0,2,,,,,,,,0,,,45,80
54765,note_on,0,0,2,,,,,,,,0,,,42,80
54765,note_on,0,0,1,,,,,,,,0,,,93,80
54765,note_on,10,0,1,,,,,,,,0,,,90,80
54789,set_tempo,53,1,0,,,,,,939261,,,,,,
54800,note_on,35,0,1,,,,,,,,0,,,93,0
54800,note_on,0,0,1,,,,,,,,0,,,90,0
54800,note_on,35,0,2,,,,,,,,0,,,42,0
54800,note_on,0,0,2,,,,,,,,0,,,45,0
54810,note_on,10,0,2,,,,,,,,0,,,50,80
54810,note_on,10,0,1,,,,,,,,0,,,86,80
54845,note_on,35,0,1,,,,,,,,0,,,86,0
54845,note_on,35,0,2,,,,,,,,0,,,50,0
54848,set_tempo,59,1,0,,,,,,924927,,,,,,
54855,note_on,10,0,2,,,,,,,,0,,,45,80
54855,note_on,0,0,1,,,,,,,,0,,,93,80
54855,note_on,0,0,2,,,,,,,,0,,,42,80
54855,note_on,10,0,1,,,,,,,,0,,,90,80
54890,note_on,35,0,1,,,,,,,,0,,,93,0
54890,note_on,0,0,2,,,,,,,,0,,,45,0
54890,note_on,0,0,1,,,,,,,,0,,,90,0
54890,note_on,35,0,2,,,,,,,,0,,,42,0
54900,note_on,10,0,2,,,,,,,,0,,,50,80
54900,note_on,0,0,1,,,,,,,,0,,,98,80
54900,note_on,10,0,1,,,,,,,,0,,,86,80
54900,set_tempo,52,1,0,,,,,,911023,,,,,,
54900,note_on,0,0,2,,,,,,,,0,,,38,80
54935,note_on,35,0,1,,,,,,,,0,,,98,0
54935,note_on,0,0,1,,,,,,,,0,,,86,0
54935,note_on,35,0,2,,,,,,,,0,,,38,0
54935,note_on,0,0,2,,,,,,,,0,,,50,0
54945,note_on,10,0,2,,,,,,,,0,,,46,80
54945,note_on,0,0,1,,,,,,,,0,,,94,80
54945,note_on,0,0,2,,,,,,,,0,,,43,80
54945,note_on,10,0,1,,,,,,,,0,,,91,80
54959,set_tempo,59,1,0,,,,,,897532,,,,,,
54980,note_on,35,0,2,,,,,,,,0,,,43,0
54980,note_on,0,0,1,,,,,,,,0,,,91,0
54980,note_on,35,0,1,,,,,,,,0,,,94,0
54980,note_on,0,0,2,,,,,,,,0,,,46,0
54990,note_on,10,0,2,,,,,,,,0,,,50,80
54990,note_on,10,0,1,,,,,,,,0,,,86,80
55011,set_tempo,52,1,0,,,,,,884434,,,,,,
55025,note_on,35,0,1,,,,,,,,0,,,86,0
55025,note_on,35,0,2,,,,,,,,0,,,50,0
55035,note_on,10,0,2,,,,,,,,0,,,46,80
55035,note_on,0,0,1,,,,,,,,0,,,94,80
55035,note_on,0,0,2,,,,,,,,0,,,43,80
55035,note_on,10,0,1,,,,,,,,0,,,91,80
55064,set_tempo,53,1,0,,,,,,871713,,,,,,
55070,note_on,35,0,1,,,,,,,,0,,,94,0
55070,note_on,0,0,1,,,,,,,,0,,,91,0
55070,note_on,0,0,2,,,,,,,,0,,,46,0
55070,note_on,35,0,2,,,,,,,,0,,,43,0
55072,set_tempo,8,1,0,,,,,,859353,,,,,,
55080,control_change,10,0,1,,,,,,,,0,64,0,,
55080,note_on,0,0,1,,,,,,,,0,,,86,60
55080,note_on,0,0,1,,,,,,,,0,,,98,60
55080,note_on,0,0,2,,,,,,,,0,,,50,60
55080,note_on,10,0,2,,,,,,,,0,,,38,60
55106,control_change,26,0,1,,,,,,,,0,64,127,,
55115,note_on,0,0,2,,,,,,,,0,,,38,0
55115,note_on,9,0,1,,,,,,,,0,,,98,0
55115,note_on,0,0,1,,,,,,,,0,,,86,0
55115,note_on,35,0,2,,,,,,,,0,,,50,0
55125,note_on,0,0,1,,,,,,,,0,,,93,61
55125,note_on,10,0,1,,,,,,,,0,,,90,61
55125,note_on,0,0,2,,,,,,,,0,,,42,61
55125,note_on,10,0,2,,,,,,,,0,,,45,61
55137,set_tempo,65,1,0,,,,,,847338,,,,,,
55160,note_on,35,0,2,,,,,,,,0,,,42,0
55160,note_on,0,0,2,,,,,,,,0,,,45,0
55160,note_on,35,0,1,,,,,,,,0,,,93,0
55160,note_on,0,0,1,,,,,,,,0,,,90,0
55170,note_on,0,0,1,,,,,,,,0,,,98,63
55170,note_on,10,0,2,,,,,,,,0,,,50,63
55170,note_on,10,0,1,,,,,,,,0,,,86,63
55196,set_tempo,59,1,0,,,,,,835655,,,,,,
55205,note_on,35,0,2,,,,,,,,0,,,50,0
55205,note_on,35,0,1,,,,,,,,0,,,86,0
55215,note_on,0,0,2,,,,,,,,0,,,43,65
55215,note_on,10,0,1,,,,,,,,0,,,98,0
55215,note_on,0,0,1,,,,,,,,0,,,94,65
55215,note_on,0,0,1,,,,,,,,0,,,91,65
55215,note_on,10,0,2,,,,,,,,0,,,46,65
55250,note_on,0,0,2,,,,,,,,0,,,46,0
55250,note_on,35,0,2,,,,,,,,0,,,43,0
55250,note_on,35,0,1,,,,,,,,0,,,91,0
55250,note_on,0,0,1,,,,,,,,0,,,94,0
55255,set_tempo,59,1,0,,,,,,824289,,,,,,
55260,note_on,0,0,2,,,,,,,,0,,,38,66
55260,note_on,10,0,2,,,,,,,,0,,,50,66
55260,note_on,10,0,1,,,,,,,,0,,,98,66
55260,note_on,0,0,1,,,,,,,,0,,,86,66
55295,note_on,35,0,1,,,,,,,,0,,,86,0
55295,note_on,35,0,2,,,,,,,,0,,,38,0
55295,note_on,0,0,2,,,,,,,,0,,,50,0
55295,note_on,0,0,1,,,,,,,,0,,,98,0
55305,note_on,10,0,1,,,,,,,,0,,,90,68
55305,note_on,0,0,1,,,,,,,,0,,,93,68
55305,note_on,10,0,2,,,,,,,,0,,,45,68
55305,note_on,0,0,2,,,,,,,,0,,,42,68
55314,set_tempo,59,1,0,,,,,,813229,,,,,,
55340,note_on,35,0,1,,,,,,,,0,,,93,0
55340,note_on,0,0,2,,,,,,,,0,,,45,0
55340,note_on,35,0,2,,,,,,,,0,,,42,0
55340,note_on,0,0,1,,,,,,,,0,,,90,0
55350,note_on,10,0,2,,,,,,,,0,,,50,70
55350,note_on,0,0,1,,,,,,,,0,,,86,70
55350,note_on,10,0,1,,,,,,,,0,,,98,70
55373,set_tempo,59,1,0,,,,,,802461,,,,,,
55385,note_on,35,0,2,,,,,,,,0,,,50,0
55385,note_on,35,0,1,,,,,,,,0,,,86,0
55395,note_on,0,0,2,,,,,,,,0,,,43,71
55395,note_on,0,0,1,,,,,,,,0,,,94,71
55395,note_on,10,0,2,,,,,,,,0,,,46,71
55395,note_on,10,0,1,,,,,,,,0,,,98,0
55395,note_on,0,0,1,,,,,,,,0,,,91,71
55430,note_on,0,0,1,,,,,,,,0,,,94,0
55430,note_on,0,0,2,,,,,,,,0,,,46,0
55430,note_on,35,0,2,,,,,,,,0,,,43,0
55430,note_on,35,0,1,,,,,,,,0,,,91,0
55432,set_tempo,59,1,0,,,,,,791975,,,,,,
55440,note_on,0,0,1,,,,,,,,0,,,86,73
55440,note_on,10,0,2,,,,,,,,0,,,50,73
55440,note_on,0,0,2,,,,,,,,0,,,38,73
55440,note_on,10,0,1,,,,,,,,0,,,98,73
55448,control_change,8,0,1,,,,,,,,0,64,0,,
55475,note_on,27,0,1,,,,,,,,0,,,86,0
55475,note_on,35,0,2,,,,,,,,0,,,38,0
55475,note_on,0,0,1,,,,,,,,0,,,98,0
55475,note_on,0,0,2,,,,,,,,0,,,50,0
55477,control_change,2,0,1,,,,,,,,0,64,127,,
55485,note_on,8,0,1,,,,,,,,0,,,90,75
55485,note_on,0,0,2,,,,,,,,0,,,42,75
55485,note_on,10,0,2,,,,,,,,0,,,45,75
55485,note_on,0,0,1,,,,,,,,0,,,93,75
55491,set_tempo,59,1,0,,,,,,781759,,,,,,
55520,note_on,35,0,2,,,,,,,,0,,,42,0
55520,note_on,0,0,2,,,,,,,,0,,,45,0
55520,note_on,35,0,1,,,,,,,,0,,,93,0
55520,note_on,0,0,1,,,,,,,,0,,,90,0
55530,note_on,10,0,2,,,,,,,,0,,,50,76
55530,note_on,0,0,1,,,,,,,,0,,,86,76
55530,note_on,10,0,1,,,,,,,,0,,,98,76
55549,set_tempo,58,1,0,,,,,,771803,,,,,,
55565,note_on,35,0,2,,,,,,,,0,,,50,0
55565,note_on,35,0,1,,,,,,,,0,,,86,0
55575,note_on,10,0,1,,,,,,,,0,,,98,0
55575,note_on,10,0,2,,,,,,,,0,,,46,78
55575,note_on,0,0,2,,,,,,,,0,,,43,78
55575,note_on,0,0,1,,,,,,,,0,,,94,78
55575,note_on,0,0,1,,,,,,,,0,,,91,78
55608,set_tempo,59,1,0,,,,,,762098,,,,,,
55610,note_on,35,0,2,,,,,,,,0,,,43,0
55610,note_on,35,0,1,,,,,,,,0,,,91,0
55610,note_on,0,0,1,,,,,,,,0,,,94,0
55610,note_on,0,0,2,,,,,,,,0,,,46,0
55620,note_on,0,0,2,,,,,,,,0,,,38,80
55620,note_on,0,0,1,,,,,,,,0,,,86,80
55620,note_on,10,0,2,,,,,,,,0,,,50,80
55620,note_on,10,0,1,,,,,,,,0,,,98,80
55655,note_on,0,0,1,,,,,,,,0,,,98,0
55655,note_on,35,0,1,,,,,,,,0,,,86,0
55655,note_on,35,0,2,,,,,,,,0,,,38,0
55655,note_on,0,0,2,,,,,,,,0,,,50,0
55665,note_on,10,0,2,,,,,,,,0,,,45,81
55665,note_on,0,0,2,,,,,,,,0,,,42,81
55665,note_on,10,0,1,,,,,,,,0,,,93,81
55665,note_on,0,0,1,,,,,,,,0,,,90,81
55674,set_tempo,66,1,0,,,,,,752634,,,,,,
55700,note_on,35,0,1,,,,,,,,0,,,90,0
55700,note_on,0,0,1,,,,,,,,0,,,93,0
55700,note_on,35,0,2,,,,,,,,0,,,42,0
55700,note_on,0,0,2,,,,,,,,0,,,45,0
55710,note_on,10,0,1,,,,,,,,0,,,98,83
55710,note_on,10,0,2,,,,,,,,0,,,50,83
55710,note_on,0,0,1,,,,,,,,0,,,86,83
55733,set_tempo,59,1,0,,,,,,743402,,,,,,
55745,note_on,35,0,2,,,,,,,,0,,,50,0
55745,note_on,35,0,1,,,,,,,,0,,,86,0
55755,note_on,0,0,1,,,,,,,,0,,,91,85
55755,note_on,10,0,1,,,,,,,,0,,,98,0
55755,note_on,10,0,2,,,,,,,,0,,,46,85
55755,note_on,0,0,1,,,,,,,,0,,,94,85
55755,note_on,0,0,2,,,,,,,,0,,,43,85
55790,note_on,35,0,2,,,,,,,,0,,,43,0
55790,note_on,0,0,1,,,,,,,,0,,,91,0
55790,note_on,0,0,2,,,,,,,,0,,,46,0
55790,note_on,35,0,1,,,,,,,,0,,,94,0
55792,set_tempo,59,1,0,,,,,,734394,,,,,,
55800,note_on,10,0,2,,,,,,,,0,,,50,86
55800,note_on,10,0,1,,,,,,,,0,,,98,86
55800,note_on,0,0,1,,,,,,,,0,,,86,86
55800,note_on,0,0,2,,,,,,,,0,,,38,86
55803,control_change,3,0,1,,,,,,,,0,64,0,,
55812,set_tempo,20,1,0,,,,,,752634,,,,,,
55829,control_change,26,0,1,,,,,,,,0,64,127,,
55835,note_on,35,0,2,,,,,,,,0,,,38,0
55835,note_on,6,0,1,,,,,,,,0,,,86,0
55835,note_on,0,0,1,,,,,,,,0,,,98,0
55835,note_on,0,0,2,,,,,,,,0,,,50,0
55845,note_on,10,0,2,,,,,,,,0,,,45,88
55845,note_on,0,0,2,,,,,,,,0,,,42,88
55845,note_on,10,0,1,,,,,,,,0,,,93,88
55845,note_on,0,0,1,,,,,,,,0,,,90,88
55880,note_on,0,0,2,,,,,,,,0,,,45,0
55880,note_on,35,0,2,,,,,,,,0,,,42,0
55880,note_on,0,0,1,,,,,,,,0,,,93,0
55880,note_on,35,0,1,,,,,,,,0,,,90,0
55890,note_on,10,0,1,,,,,,,,0,,,98,90
55890,note_on,10,0,2,,,,,,,,0,,,50,90
55890,note_on,0,0,1,,,,,,,,0,,,86,90
55925,note_on,35,0,2,,,,,,,,0,,,50,0
55925,note_on,35,0,1,,,,,,,,0,,,86,0
55935,note_on,0,0,1,,,,,,,,0,,,94,91
55935,note_on,0,0,1,,,,,,,,0,,,91,91
55935,note_on,10,0,2,,,,,,,,0,,,43,91
55935,note_on,0,0,2,,,,,,,,0,,,46,91
55935,note_on,10,0,1,,,,,,,,0,,,98,0
55970,note_on,35,0,2,,,,,,,,0,,,46,0
55970,note_on,35,0,1,,,,,,,,0,,,94,0
55970,note_on,0,0,2,,,,,,,,0,,,43,0
55970,note_on,0,0,1,,,,,,,,0,,,91,0
55980,note_on,10,0,2,,,,,,,,0,,,50,93
55980,note_on,0,0,1,,,,,,,,0,,,86,93
55980,note_on,0,0,2,,,,,,,,0,,,38,93
55980,note_on,10,0,1,,,,,,,,0,,,98,93
56015,note_on,35,0,2,,,,,,,,0,,,38,0
56015,note_on,35,0,1,,,,,,,,0,,,86,0
56015,note_on,0,0,2,,,,,,,,0,,,50,0
56015,note_on,0,0,1,,,,,,,,0,,,98,0
56025,note_on,10,0,2,,,,,,,,0,,,45,95
56025,note_on,0,0,2,,,,,,,,0,,,42,95
56025,note_on,10,0,1,,,,,,,,0,,,93,95
56025,note_on,0,0,1,,,,,,,,0,,,90,95
56060,note_on,0,0,2,,,,,,,,0,,,45,0
56060,note_on,35,0,1,,,,,,,,0,,,90,0
56060,note_on,35,0,2,,,,,,,,0,,,42,0
56060,note_on,0,0,1,,,,,,,,0,,,93,0
56070,note_on,10,0,1,,,,,,,,0,,,86,96
56070,note_on,0,0,1,,,,,,,,0,,,98,96
56070,note_on,10,0,2,,,,,,,,0,,,50,96
56105,note_on,35,0,1,,,,,,,,0,,,86,0
56105,note_on,35,0,2,,,,,,,,0,,,50,0
56115,note_on,0,0,2,,,,,,,,0,,,43,98
56115,note_on,10,0,2,,,,,,,,0,,,46,98
56115,note_on,0,0,1,,,,,,,,0,,,91,98
56115,note_on,10,0,1,,,,,,,,0,,,98,0
56115,note_on,0,0,1,,,,,,,,0,,,94,98
56145,set_tempo,333,1,0,,,,,,762098,,,,,,
56150,note_on,0,0,1,,,,,,,,0,,,91,0
56150,note_on,35,0,1,,,,,,,,0,,,94,0
56150,note_on,0,0,2,,,,,,,,0,,,46,0
56150,note_on,35,0,2,,,,,,,,0,,,43,0
56158,set_tempo,13,1,0,,,,,,634451,,,,,,
56160,note_on,0,0,1,,,,,,,,0,,,90,110
56160,note_on,0,0,2,,,,,,,,0,,,38,110
56160,note_on,0,0,1,,,,,,,,0,,,98,110
56160,control_change,10,0,1,,,,,,,,0,64,0,,
56160,note_on,0,0,1,,,,,,,,0,,,86,110
56160,note_on,10,0,2,,,,,,,,0,,,50,110
56160,note_on,0,0,2,,,,,,,,0,,,45,110
56189,set_tempo,31,1,0,,,,,,602894,,,,,,
56191,control_change,31,0,1,,,,,,,,0,64,127,,
56215,set_tempo,26,1,0,,,,,,596956,,,,,,
56227,set_tempo,12,1,0,,,,,,602228,,,,,,
56231,note_on,0,0,1,,,,,,,,0,,,90,0
56231,note_on,40,0,1,,,,,,,,0,,,86,0
56231,note_on,0,0,1,,,,,,,,0,,,98,0
56244,note_on,0,0,2,,,,,,,,0,,,50,0
56244,note_on,84,0,2,,,,,,,,0,,,38,0
56244,note_on,0,0,2,,,,,,,,0,,,45,0
56250,note_on,0,0,1,,,,,,,,0,,,97,80
56250,note_on,19,0,1,,,,,,,,0,,,85,80
56250,note_on,0,0,2,,,,,,,,0,,,49,80
56250,note_on,6,0,2,,,,,,,,0,,,61,80
56312,set_tempo,85,1,0,,,,,,596303,,,,,,
56321,note_on,0,0,1,,,,,,,,0,,,85,0
56321,note_on,71,0,1,,,,,,,,0,,,97,0
56334,note_on,84,0,2,,,,,,,,0,,,49,0
56334,note_on,0,0,2,,,,,,,,0,,,61,0
56340,note_on,0,0,2,,,,,,,,0,,,50,80
56340,note_on,6,0,2,,,,,,,,0,,,62,80
56340,note_on,0,0,1,,,,,,,,0,,,86,80
56340,note_on,19,0,1,,,,,,,,0,,,98,80
56397,set_tempo,85,1,0,,,,,,590493,,,,,,
56411,note_on,0,0,1,,,,,,,,0,,,98,0
56411,note_on,71,0,1,,,,,,,,0,,,86,0
56424,note_on,84,0,2,,,,,,,,0,,,50,0
56424,note_on,0,0,2,,,,,,,,0,,,62,0
56430,note_on,0,0,2,,,,,,,,0,,,45,80
56430,note_on,6,0,2,,,,,,,,0,,,57,80
56430,note_on,0,0,1,,,,,,,,0,,,81,80
56430,note_on,19,0,1,,,,,,,,0,,,93,80
56476,set_tempo,79,1,0,,,,,,584795,,,,,,
56501,note_on,71,0,1,,,,,,,,0,,,81,0
56501,note_on,0,0,1,,,,,,,,0,,,93,0
56514,note_on,0,0,2,,,,,,,,0,,,57,0
56514,note_on,84,0,2,,,,,,,,0,,,45,0
56520,note_on,0,0,2,,,,,,,,0,,,51,80
56520,note_on,6,0,2,,,,,,,,0,,,63,80
56520,note_on,0,0,1,,,,,,,,0,,,87,80
56520,note_on,19,0,1,,,,,,,,0,,,99,80
56536,control_change,16,0,1,,,,,,,,0,64,0,,
56561,set_tempo,85,1,0,,,,,,579206,,,,,,
56584,control_change,48,0,1,,,,,,,,0,64,127,,
56591,note_on,7,0,1,,,,,,,,0,,,87,0
56591,note_on,0,0,1,,,,,,,,0,,,99,0
56604,note_on,0,0,2,,,,,,,,0,,,63,0
56604,note_on,84,0,2,,,,,,,,0,,,51,0
56610,note_on,19,0,1,,,,,,,,0,,,86,80
56610,note_on,0,0,2,,,,,,,,0,,,50,80
56610,note_on,0,0,1,,,,,,,,0,,,98,80
56610,note_on,6,0,2,,,,,,,,0,,,62,80
56646,set_tempo,85,1,0,,,,,,573723,,,,,,
56681,note_on,0,0,1,,,,,,,,0,,,86,0
56681,note_on,71,0,1,,,,,,,,0,,,98,0
56694,note_on,84,0,2,,,,,,,,0,,,50,0
56694,note_on,0,0,2,,,,,,,,0,,,62,0
56700,note_on,6,0,2,,,,,,,,0,,,60,80
56700,note_on,19,0,1,,,,,,,,0,,,96,80
56700,note_on,0,0,1,,,,,,,,0,,,84,80
56700,note_on,0,0,2,,,,,,,,0,,,48,80
56731,set_tempo,85,1,0,,,,,,568343,,,,,,
56771,note_on,0,0,1,,,,,,,,0,,,96,0
56771,note_on,71,0,1,,,,,,,,0,,,84,0
56784,note_on,84,0,2,,,,,,,,0,,,48,0
56784,note_on,0,0,2,,,,,,,,0,,,60,0
56790,note_on,0,0,1,,,,,,,,0,,,94,80
56790,note_on,0,0,2,,,,,,,,0,,,46,80
56790,note_on,6,0,2,,,,,,,,0,,,58,80
56790,note_on,19,0,1,,,,,,,,0,,,82,80
56810,set_tempo,79,1,0,,,,,,563063,,,,,,
56861,note_on,71,0,1,,,,,,,,0,,,94,0
56861,note_on,0,0,1,,,,,,,,0,,,82,0
56874,note_on,0,0,2,,,,,,,,0,,,58,0
56874,note_on,84,0,2,,,,,,,,0,,,46,0
56880,note_on,0,0,1,,,,,,,,0,,,93,80
56880,note_on,0,0,1,,,,,,,,0,,,81,80
56880,control_change,19,0,1,,,,,,,,0,64,0,,
56880,note_on,0,0,2,,,,,,,,0,,,45,80
56880,note_on,6,0,2,,,,,,,,0,,,57,80
56895,set_tempo,85,1,0,,,,,,557880,,,,,,
56922,control_change,42,0,1,,,,,,,,0,64,127,,
56951,note_on,0,0,1,,,,,,,,0,,,93,0
56951,note_on,29,0,1,,,,,,,,0,,,81,0
56964,note_on,0,0,2,,,,,,,,0,,,57,0
56964,note_on,84,0,2,,,,,,,,0,,,45,0
56970,note_on,6,0,2,,,,,,,,0,,,51,80
56970,note_on,0,0,1,,,,,,,,0,,,75,80
56970,note_on,0,0,2,,,,,,,,0,,,39,80
56970,note_on,19,0,1,,,,,,,,0,,,87,80
56980,set_tempo,85,1,0,,,,,,552792,,,,,,
57041,note_on,71,0,1,,,,,,,,0,,,75,0
57041,note_on,0,0,1,,,,,,,,0,,,87,0
57054,note_on,0,0,2,,,,,,,,0,,,51,0
57054,note_on,84,0,2,,,,,,,,0,,,39,0
57060,note_on,0,0,1,,,,,,,,0,,,79,80
57060,note_on,0,0,2,,,,,,,,0,,,43,80
57060,note_on,6,0,2,,,,,,,,0,,,55,80
57060,note_on,19,0,1,,,,,,,,0,,,91,80
57065,set_tempo,85,1,0,,,,,,547795,,,,,,
57131,note_on,0,0,1,,,,,,,,0,,,91,0
57131,note_on,71,0,1,,,,,,,,0,,,79,0
57144,set_tempo,79,1,0,,,,,,542888,,,,,,
57144,note_on,84,0,2,,,,,,,,0,,,43,0
57144,note_on,0,0,2,,,,,,,,0,,,55,0
57150,note_on,6,0,2,,,,,,,,0,,,54,80
57150,note_on,0,0,1,,,,,,,,0,,,90,80
57150,note_on,19,0,1,,,,,,,,0,,,78,80
57150,note_on,0,0,2,,,,,,,,0,,,42,80
57221,note_on,71,0,1,,,,,,,,0,,,90,0
57221,note_on,0,0,1,,,,,,,,0,,,78,0
57229,set_tempo,85,1,0,,,,,,538068,,,,,,
57234,note_on,84,0,2,,,,,,,,0,,,42,0
57234,note_on,0,0,2,,,,,,,,0,,,54,0
57240,note_on,0,0,2,,,,,,,,0,,,45,80
57240,note_on,19,0,1,,,,,,,,0,,,74,80
57240,note_on,0,0,1,,,,,,,,0,,,86,80
57240,note_on,6,0,2,,,,,,,,0,,,50,80
57240,note_on,0,0,2,,,,,,,,0,,,38,80
57240,note_on,0,0,1,,,,,,,,0,,,78,80
57251,control_change,11,0,1,,,,,,,,0,64,0,,
57293,control_change,42,0,1,,,,,,,,0,64,127,,
57311,note_on,0,0,1,,,,,,,,0,,,86,0
57311,note_on,0,0,1,,,,,,,,0,,,74,0
57311,note_on,18,0,1,,,,,,,,0,,,78,0
57314,set_tempo,85,1,0,,,,,,533333,,,,,,
57324,note_on,0,0,2,,,,,,,,0,,,45,0
57324,note_on,84,0,2,,,,,,,,0,,,38,0
57324,note_on,0,0,2,,,,,,,,0,,,50,0
57330,note_on,0,0,2,,,,,,,,0,,,49,80
57330,note_on,0,0,1,,,,,,,,0,,,85,80
57330,note_on,6,0,2,,,,,,,,0,,,61,80
57330,note_on,19,0,1,,,,,,,,0,,,73,80
57392,set_tempo,78,1,0,,,,,,528681,,,,,,
57401,note_on,71,0,1,,,,,,,,0,,,85,0
57401,note_on,0,0,1,,,,,,,,0,,,73,0
57414,note_on,0,0,2,,,,,,,,0,,,61,0
57414,note_on,84,0,2,,,,,,,,0,,,49,0
57420,note_on,0,0,1,,,,,,,,0,,,74,80
57420,note_on,0,0,2,,,,,,,,0,,,50,80
57420,note_on,6,0,2,,,,,,,,0,,,62,80
57420,note_on,19,0,1,,,,,,,,0,,,86,80
57477,set_tempo,85,1,0,,,,,,524109,,,,,,
57491,note_on,71,0,1,,,,,,,,0,,,74,0
57491,note_on,0,0,1,,,,,,,,0,,,86,0
57504,note_on,0,0,2,,,,,,,,0,,,62,0
57504,note_on,84,0,2,,,,,,,,0,,,50,0
57510,note_on,0,0,1,,,,,,,,0,,,69,80
57510,note_on,19,0,1,,,,,,,,0,,,81,80
57510,note_on,0,0,2,,,,,,,,0,,,45,80
57510,note_on,6,0,2,,,,,,,,0,,,57,80
57563,set_tempo,86,1,0,,,,,,519615,,,,,,
57581,note_on,0,0,1,,,,,,,,0,,,81,0
57581,note_on,71,0,1,,,,,,,,0,,,69,0
57594,note_on,84,0,2,,,,,,,,0,,,45,0
57594,note_on,0,0,2,,,,,,,,0,,,57,0
57600,note_on,6,0,2,,,,,,,,0,,,63,80
57600,note_on,0,0,1,,,,,,,,0,,,75,80
57600,note_on,19,0,1,,,,,,,,0,,,87,80
57600,note_on,0,0,2,,,,,,,,0,,,51,80
57648,set_tempo,85,1,0,,,,,,515198,,,,,,
57671,note_on,71,0,1,,,,,,,,0,,,75,0
57671,note_on,0,0,1,,,,,,,,0,,,87,0
57684,note_on,0,0,2,,,,,,,,0,,,63,0
57684,note_on,84,0,2,,,,,,,,0,,,51,0
57690,note_on,6,0,2,,,,,,,,0,,,62,80
57690,note_on,0,0,1,,,,,,,,0,,,86,80
57690,note_on,19,0,1,,,,,,,,0,,,74,80
57690,note_on,0,0,2,,,,,,,,0,,,50,80
57726,set_tempo,78,1,0,,,,,,510856,,,,,,
57761,note_on,0,0,1,,,,,,,,0,,,74,0
57761,note_on,71,0,1,,,,,,,,0,,,86,0
57774,note_on,0,0,2,,,,,,,,0,,,62,0
57774,note_on,84,0,2,,,,,,,,0,,,50,0
57780,note_on,6,0,2,,,,,,,,0,,,60,80
57780,note_on,0,0,2,,,,,,,,0,,,48,80
57780,note_on,0,0,1,,,,,,,,0,,,84,80
57780,note_on,19,0,1,,,,,,,,0,,,72,80
57811,set_tempo,85,1,0,,,,,,506586,,,,,,
57851,note_on,0,0,1,,,,,,,,0,,,72,0
57851,note_on,71,0,1,,,,,,,,0,,,84,0
57864,note_on,0,0,2,,,,,,,,0,,,60,0
57864,note_on,84,0,2,,,,,,,,0,,,48,0
57870,note_on,0,0,1,,,,,,,,0,,,70,80
57870,note_on,0,0,2,,,,,,,,0,,,46,80
57870,note_on,19,0,1,,,,,,,,0,,,82,80
57870,note_on,6,0,2,,,,,,,,0,,,58,80
57896,set_tempo,85,1,0,,,,,,502386,,,,,,
57941,note_on,71,0,1,,,,,,,,0,,,70,0
57941,note_on,0,0,1,,,,,,,,0,,,82,0
57954,note_on,0,0,2,,,,,,,,0,,,58,0
57954,note_on,84,0,2,,,,,,,,0,,,46,0
57960,note_on,0,0,1,,,,,,,,0,,,69,80
57960,note_on,0,0,2,,,,,,,,0,,,45,80
57960,note_on,6,0,2,,,,,,,,0,,,57,80
57960,note_on,19,0,1,,,,,,,,0,,,81,80
57981,set_tempo,85,1,0,,,,,,498256,,,,,,
58031,note_on,71,0,1,,,,,,,,0,,,69,0
58031,note_on,0,0,1,,,,,,,,0,,,81,0
58044,note_on,0,0,2,,,,,,,,0,,,57,0
58044,note_on,84,0,2,,,,,,,,0,,,45,0
58050,note_on,6,0,2,,,,,,,,0,,,51,80
58050,note_on,0,0,1,,,,,,,,0,,,63,80
58050,note_on,0,0,2,,,,,,,,0,,,39,80
58050,note_on,19,0,1,,,,,,,,0,,,75,80
58060,set_tempo,79,1,0,,,,,,494193,,,,,,
58121,note_on,0,0,1,,,,,,,,0,,,75,0
58121,note_on,71,0,1,,,,,,,,0,,,63,0
58134,note_on,0,0,2,,,,,,,,0,,,51,0
58134,note_on,84,0,2,,,,,,,,0,,,39,0
58140,note_on,6,0,2,,,,,,,,0,,,55,80
58140,note_on,19,0,1,,,,,,,,0,,,67,80
58140,note_on,0,0,2,,,,,,,,0,,,43,80
58140,note_on,0,0,1,,,,,,,,0,,,79,80
58145,set_tempo,85,1,0,,,,,,490196,,,,,,
58211,note_on,0,0,1,,,,,,,,0,,,67,0
58211,note_on,71,0,1,,,,,,,,0,,,79,0
58224,note_on,84,0,2,,,,,,,,0,,,43,0
58224,note_on,0,0,2,,,,,,,,0,,,55,0
58230,note_on,0,0,2,,,,,,,,0,,,42,80
58230,note_on,0,0,1,,,,,,,,0,,,78,80
58230,set_tempo,85,1,0,,,,,,486263,,,,,,
58230,note_on,19,0,1,,,,,,,,0,,,66,80
58230,note_on,6,0,2,,,,,,,,0,,,54,80
58301,note_on,71,0,1,,,,,,,,0,,,78,0
58301,note_on,0,0,1,,,,,,,,0,,,66,0
58309,set_tempo,79,1,0,,,,,,482393,,,,,,
58314,note_on,84,0,2,,,,,,,,0,,,42,0
58314,note_on,0,0,2,,,,,,,,0,,,54,0
58320,set_tempo,11,1,0,,,,,,480000,,,,,,
58320,control_change,0,0,1,,,,,,,,0,64,0,,
58320,note_on,6,0,2,,,,,,,,0,,,45,80
58320,note_on,0,0,1,,,,,,,,0,,,66,80
58320,note_on,0,0,1,,,,,,,,0,,,74,80
58320,note_on,19,0,1,,,,,,,,0,,,62,80
58320,note_on,0,0,2,,,,,,,,0,,,50,80
58320,note_on,0,0,2,,,,,,,,0,,,38,80
58355,control_change,35,0,1,,,,,,,,0,64,127,,
58391,note_on,36,0,1,,,,,,,,0,,,66,0
58391,note_on,0,0,1,,,,,,,,0,,,74,0
58391,note_on,0,0,1,,,,,,,,0,,,62,0
58404,note_on,84,0,2,,,,,,,,0,,,38,0
58404,note_on,0,0,2,,,,,,,,0,,,45,0
58404,note_on,0,0,2,,,,,,,,0,,,50,0
58410,note_on,0,0,1,,,,,,,,0,,,61,80
58410,note_on,19,0,1,,,,,,,,0,,,73,80
58410,note_on,6,0,2,,,,,,,,0,,,49,80
58410,note_on,0,0,2,,,,,,,,0,,,37,80
58481,note_on,0,0,1,,,,,,,,0,,,73,0
58481,note_on,71,0,1,,,,,,,,0,,,61,0
58494,note_on,84,0,2,,,,,,,,0,,,37,0
58494,note_on,0,0,2,,,,,,,,0,,,49,0
58500,note_on,0,0,2,,,,,,,,0,,,38,80
58500,note_on,6,0,2,,,,,,,,0,,,50,80
58500,note_on,19,0,1,,,,,,,,0,,,74,80
58500,note_on,0,0,1,,,,,,,,0,,,62,80
58571,note_on,71,0,1,,,,,,,,0,,,62,0
58571,note_on,0,0,1,,,,,,,,0,,,74,0
58584,note_on,84,0,2,,,,,,,,0,,,38,0
58584,note_on,0,0,2,,,,,,,,0,,,50,0
58590,note_on,0,0,2,,,,,,,,0,,,45,105
58590,note_on,19,0,1,,,,,,,,0,,,69,80
58590,note_on,6,0,2,,,,,,,,0,,,33,105
58590,note_on,0,0,1,,,,,,,,0,,,57,80
58661,note_on,71,0,1,,,,,,,,0,,,57,0
58661,note_on,0,0,1,,,,,,,,0,,,69,0
58674,note_on,84,0,2,,,,,,,,0,,,45,0
58674,note_on,0,0,2,,,,,,,,0,,,33,0
58680,note_on,0,0,2,,,,,,,,0,,,39,96
58680,note_on,6,0,2,,,,,,,,0,,,51,96
58680,note_on,0,0,1,,,,,,,,0,,,75,80
58680,note_on,19,0,1,,,,,,,,0,,,63,80
58696,control_change,16,0,1,,,,,,,,0,64,0,,
58733,control_change,37,0,1,,,,,,,,0,64,127,,
58751,note_on,18,0,1,,,,,,,,0,,,75,0
58751,note_on,0,0,1,,,,,,,,0,,,63,0
58764,note_on,84,0,2,,,,,,,,0,,,39,0
58764,note_on,0,0,2,,,,,,,,0,,,51,0
58770,note_on,0,0,1,,,,,,,,0,,,62,80
58770,note_on,6,0,2,,,,,,,,0,,,50,80
58770,note_on,0,0,2,,,,,,,,0,,,38,80
58770,note_on,19,0,1,,,,,,,,0,,,74,80
58841,note_on,71,0,1,,,,,,,,0,,,62,0
58841,note_on,0,0,1,,,,,,,,0,,,74,0
58854,note_on,84,0,2,,,,,,,,0,,,38,0
58854,note_on,0,0,2,,,,,,,,0,,,50,0
58860,note_on,19,0,1,,,,,,,,0,,,72,80
58860,note_on,6,0,2,,,,,,,,0,,,48,105
58860,note_on,0,0,2,,,,,,,,0,,,36,105
58860,note_on,0,0,1,,,,,,,,0,,,60,80
58931,note_on,71,0,1,,,,,,,,0,,,60,0
58931,note_on,0,0,1,,,,,,,,0,,,72,0
58944,note_on,84,0,2,,,,,,,,0,,,36,0
58944,note_on,0,0,2,,,,,,,,0,,,48,0
58950,note_on,0,0,2,,,,,,,,0,,,33,80
58950,note_on,6,0,2,,,,,,,,0,,,45,80
58950,note_on,19,0,1,,,,,,,,0,,,69,80
58950,note_on,0,0,1,,,,,,,,0,,,57,80
59021,note_on,0,0,1,,,,,,,,0,,,69,0
59021,note_on,71,0,1,,,,,,,,0,,,57,0
59034,note_on,0,0,2,,,,,,,,0,,,45,0
59034,note_on,84,0,2,,,,,,,,0,,,33,0
59040,note_on,0,0,1,,,,,,,,0,,,66,80
59040,note_on,0,0,2,,,,,,,,0,,,38,80
59040,note_on,0,0,2,,,,,,,,0,,,50,80
59040,note_on,0,0,1,,,,,,,,0,,,74,80
59040,note_on,19,0,1,,,,,,,,0,,,62,80
59040,note_on,6,0,2,,,,,,,,0,,,45,80
59047,control_change,7,0,1,,,,,,,,0,64,0,,
59098,control_change,51,0,1,,,,,,,,0,64,127,,
59111,note_on,13,0,1,,,,,,,,0,,,66,0
59111,note_on,0,0,1,,,,,,,,0,,,62,0
59111,note_on,0,0,1,,,,,,,,0,,,74,0
59124,note_on,0,0,2,,,,,,,,0,,,50,0
59124,note_on,84,0,2,,,,,,,,0,,,38,0
59124,note_on,0,0,2,,,,,,,,0,,,45,0
59130,note_on,6,0,2,,,,,,,,0,,,49,80
59130,note_on,0,0,2,,,,,,,,0,,,37,80
59130,note_on,0,0,1,,,,,,,,0,,,73,80
59130,note_on,19,0,1,,,,,,,,0,,,61,80
59201,note_on,0,0,1,,,,,,,,0,,,61,0
59201,note_on,71,0,1,,,,,,,,0,,,73,0
59214,note_on,84,0,2,,,,,,,,0,,,37,0
59214,note_on,0,0,2,,,,,,,,0,,,49,0
59220,note_on,0,0,2,,,,,,,,0,,,38,80
59220,note_on,0,0,1,,,,,,,,0,,,74,80
59220,note_on,19,0,1,,,,,,,,0,,,62,80
59220,note_on,6,0,2,,,,,,,,0,,,50,80
59291,note_on,0,0,1,,,,,,,,0,,,62,0
59291,note_on,71,0,1,,,,,,,,0,,,74,0
59304,note_on,0,0,2,,,,,,,,0,,,50,0
59304,note_on,84,0,2,,,,,,,,0,,,38,0
59310,note_on,0,0,1,,,,,,,,0,,,57,80
59310,note_on,19,0,1,,,,,,,,0,,,69,80
59310,note_on,0,0,2,,,,,,,,0,,,33,88
59310,note_on,6,0,2,,,,,,,,0,,,45,88
59381,note_on,0,0,1,,,,,,,,0,,,69,0
59381,note_on,71,0,1,,,,,,,,0,,,57,0
59384,set_tempo,1064,1,0,,,,,,467508,,,,,,
59394,note_on,84,0,2,,,,,,,,0,,,33,0
59394,note_on,0,0,2,,,,,,,,0,,,45,0
59400,note_on,0,0,1,,,,,,,,0,,,75,80
59400,note_on,19,0,1,,,,,,,,0,,,63,80
59400,note_on,6,0,2,,,,,,,,0,,,51,80
59400,note_on,0,0,2,,,,,,,,0,,,39,80
59400,control_change,0,0,1,,,,,,,,0,64,0,,
59416,set_tempo,32,1,0,,,,,,471143,,,,,,
59443,set_tempo,27,1,0,,,,,,474834,,,,,,
59448,control_change,48,0,1,,,,,,,,0,64,127,,
59469,set_tempo,26,1,0,,,,,,478583,,,,,,
59471,note_on,0,0,1,,,,,,,,0,,,63,0
59471,note_on,23,0,1,,,,,,,,0,,,75,0
59484,note_on,84,0,2,,,,,,,,0,,,39,0
59484,note_on,0,0,2,,,,,,,,0,,,51,0
59490,note_on,6,0,2,,,,,,,,0,,,50,80
59490,note_on,0,0,2,,,,,,,,0,,,38,80
59490,note_on,19,0,1,,,,,,,,0,,,74,80
59490,note_on,0,0,1,,,,,,,,0,,,62,80
59495,set_tempo,26,1,0,,,,,,482393,,,,,,
59521,set_tempo,26,1,0,,,,,,486263,,,,,,
59554,set_tempo,33,1,0,,,,,,490196,,,,,,
59561,note_on,71,0,1,,,,,,,,0,,,62,0
59561,note_on,0,0,1,,,,,,,,0,,,74,0
59574,note_on,84,0,2,,,,,,,,0,,,38,0
59574,note_on,0,0,2,,,,,,,,0,,,50,0
59580,note_on,19,0,1,,,,,,,,0,,,72,80
59580,note_on,0,0,1,,,,,,,,0,,,60,80
59580,note_on,0,0,2,,,,,,,,0,,,36,88
59580,set_tempo,26,1,0,,,,,,494193,,,,,,
59580,note_on,6,0,2,,,,,,,,0,,,48,88
59606,set_tempo,26,1,0,,,,,,498256,,,,,,
59632,set_tempo,26,1,0,,,,,,502386,,,,,,
59651,note_on,71,0,1,,,,,,,,0,,,60,0
59651,note_on,0,0,1,,,,,,,,0,,,72,0
59659,set_tempo,27,1,0,,,,,,506586,,,,,,
59664,note_on,0,0,2,,,,,,,,0,,,48,0
59664,note_on,84,0,2,,,,,,,,0,,,36,0
59670,note_on,0,0,2,,,,,,,,0,,,33,80
59670,note_on,6,0,2,,,,,,,,0,,,45,80
59670,note_on,19,0,1,,,,,,,,0,,,57,80
59670,note_on,0,0,1,,,,,,,,0,,,69,80
59685,set_tempo,26,1,0,,,,,,510856,,,,,,
59717,set_tempo,32,1,0,,,,,,515198,,,,,,
59741,note_on,71,0,1,,,,,,,,0,,,69,0
59741,note_on,0,0,1,,,,,,,,0,,,57,0
59744,set_tempo,27,1,0,,,,,,519615,,,,,,
59754,note_on,0,0,2,,,,,,,,0,,,45,0
59754,note_on,84,0,2,,,,,,,,0,,,33,0
59760,note_on,0,0,1,,,,,,,,0,,,75,80
59760,note_on,19,0,1,,,,,,,,0,,,63,80
59760,note_on,6,0,2,,,,,,,,0,,,51,80
59760,note_on,0,0,2,,,,,,,,0,,,39,80
59770,set_tempo,26,1,0,,,,,,524109,,,,,,
59788,control_change,28,0,1,,,,,,,,0,64,0,,
59796,set_tempo,26,1,0,,,,,,528681,,,,,,
59822,set_tempo,26,1,0,,,,,,533333,,,,,,
59829,control_change,41,0,1,,,,,,,,0,64,127,,
59831,note_on,2,0,1,,,,,,,,0,,,75,0
59831,note_on,0,0,1,,,,,,,,0,,,63,0
59844,note_on,84,0,2,,,,,,,,0,,,39,0
59844,note_on,0,0,2,,,,,,,,0,,,51,0
59848,set_tempo,26,1,0,,,,,,538068,,,,,,
59850,note_on,6,0,2,,,,,,,,0,,,50,80
59850,note_on,0,0,1,,,,,,,,0,,,74,80
59850,note_on,0,0,2,,,,,,,,0,,,38,80
59850,note_on,19,0,1,,,,,,,,0,,,62,80
59881,set_tempo,33,1,0,,,,,,542888,,,,,,
59907,set_tempo,26,1,0,,,,,,547795,,,,,,
59921,note_on,71,0,1,,,,,,,,0,,,74,0
59921,note_on,0,0,1,,,,,,,,0,,,62,0
59933,set_tempo,26,1,0,,,,,,552792,,,,,,
59934,note_on,84,0,2,,,,,,,,0,,,38,0
59934,note_on,0,0,2,,,,,,,,0,,,50,0
59940,note_on,6,0,2,,,,,,,,0,,,47,80
59940,note_on,0,0,1,,,,,,,,0,,,71,80
59940,note_on,0,0,2,,,,,,,,0,,,35,80
59940,note_on,19,0,1,,,,,,,,0,,,59,80
59960,set_tempo,27,1,0,,,,,,557880,,,,,,
59986,set_tempo,26,1,0,,,,,,563063,,,,,,
60011,note_on,71,0,1,,,,,,,,0,,,71,0
60011,note_on,0,0,1,,,,,,,,0,,,59,0
60019,set_tempo,33,1,0,,,,,,568343,,,,,,
60024,note_on,0,0,2,,,,,,,,0,,,47,0
60024,note_on,84,0,2,,,,,,,,0,,,35,0
60030,note_on,6,0,2,,,,,,,,0,,,32,80
60030,note_on,0,0,2,,,,,,,,0,,,44,80
60030,note_on,0,0,1,,,,,,,,0,,,56,80
60030,note_on,19,0,1,,,,,,,,0,,,68,80
60045,set_tempo,26,1,0,,,,,,573723,,,,,,
60071,set_tempo,26,1,0,,,,,,579206,,,,,,
60097,set_tempo,26,1,0,,,,,,584795,,,,,,
60101,note_on,71,0,1,,,,,,,,0,,,56,0
60101,note_on,0,0,1,,,,,,,,0,,,68,0
60114,note_on,84,0,2,,,,,,,,0,,,44,0
60114,note_on,0,0,2,,,,,,,,0,,,32,0
60120,note_on,0,0,2,,,,,,,,0,,,39,80
60120,note_on,0,0,1,,,,,,,,0,,,75,80
60120,note_on,6,0,2,,,,,,,,0,,,51,80
60120,note_on,19,0,1,,,,,,,,0,,,63,80
60123,set_tempo,26,1,0,,,,,,590493,,,,,,
60125,control_change,5,0,1,,,,,,,,0,64,0,,
60149,set_tempo,26,1,0,,,,,,596303,,,,,,
60152,control_change,27,0,1,,,,,,,,0,64,127,,
60182,set_tempo,33,1,0,,,,,,602228,,,,,,
60191,note_on,0,0,1,,,,,,,,0,,,63,0
60191,note_on,39,0,1,,,,,,,,0,,,75,0
60204,note_on,84,0,2,,,,,,,,0,,,39,0
60204,note_on,0,0,2,,,,,,,,0,,,51,0
60208,set_tempo,26,1,0,,,,,,608273,,,,,,
60210,note_on,0,0,1,,,,,,,,0,,,62,80
60210,note_on,6,0,2,,,,,,,,0,,,50,80
60210,note_on,0,0,2,,,,,,,,0,,,38,80
60210,note_on,19,0,1,,,,,,,,0,,,74,80
60235,set_tempo,27,1,0,,,,,,614439,,,,,,
60261,set_tempo,26,1,0,,,,,,620732,,,,,,
60281,note_on,71,0,1,,,,,,,,0,,,62,0
60281,note_on,0,0,1,,,,,,,,0,,,74,0
60287,set_tempo,26,1,0,,,,,,627156,,,,,,
60294,note_on,0,0,2,,,,,,,,0,,,50,0
60294,note_on,84,0,2,,,,,,,,0,,,38,0
60300,note_on,19,0,1,,,,,,,,0,,,70,80
60300,note_on,6,0,2,,,,,,,,0,,,46,80
60300,note_on,0,0,2,,,,,,,,0,,,34,80
60300,note_on,0,0,1,,,,,,,,0,,,58,80
60313,set_tempo,26,1,0,,,,,,633714,,,,,,
60346,set_tempo,33,1,0,,,,,,640410,,,,,,
60371,note_on,0,0,1,,,,,,,,0,,,70,0
60371,note_on,71,0,1,,,,,,,,0,,,58,0
60372,set_tempo,26,1,0,,,,,,647249,,,,,,
60384,note_on,0,0,2,,,,,,,,0,,,46,0
60384,note_on,84,0,2,,,,,,,,0,,,34,0
60390,note_on,0,0,2,,,,,,,,0,,,31,80
60390,note_on,6,0,2,,,,,,,,0,,,43,80
60390,note_on,0,0,1,,,,,,,,0,,,67,80
60390,note_on,19,0,1,,,,,,,,0,,,55,80
60398,set_tempo,26,1,0,,,,,,654236,,,,,,
60424,set_tempo,26,1,0,,,,,,661376,,,,,,
60451,set_tempo,27,1,0,,,,,,668673,,,,,,
60461,note_on,71,0,1,,,,,,,,0,,,67,0
60461,note_on,0,0,1,,,,,,,,0,,,55,0
60474,note_on,0,0,2,,,,,,,,0,,,43,0
60474,note_on,84,0,2,,,,,,,,0,,,31,0
60477,set_tempo,26,1,0,,,,,,676133,,,,,,
60480,note_on,6,0,2,,,,,,,,0,,,51,80
60480,note_on,0,0,1,,,,,,,,0,,,63,80
60480,note_on,0,0,1,,,,,,,,0,,,75,80
60480,control_change,19,0,1,,,,,,,,0,64,0,,
60480,note_on,0,0,2,,,,,,,,0,,,39,80
60509,set_tempo,32,1,0,,,,,,683761,,,,,,
60536,set_tempo,27,1,0,,,,,,691563,,,,,,
60538,control_change,58,0,1,,,,,,,,0,64,127,,
60551,note_on,13,0,1,,,,,,,,0,,,75,0
60551,note_on,0,0,1,,,,,,,,0,,,63,0
60562,set_tempo,26,1,0,,,,,,699545,,,,,,
60564,note_on,0,0,2,,,,,,,,0,,,51,0
60564,note_on,84,0,2,,,,,,,,0,,,39,0
60570,note_on,0,0,2,,,,,,,,0,,,38,80
60570,note_on,19,0,1,,,,,,,,0,,,62,80
60570,note_on,6,0,2,,,,,,,,0,,,50,80
60570,note_on,0,0,1,,,,,,,,0,,,74,80
60588,set_tempo,26,1,0,,,,,,707714,,,,,,
60614,set_tempo,26,1,0,,,,,,716076,,,,,,
60640,set_tempo,26,1,0,,,,,,724638,,,,,,
60641,note_on,0,0,1,,,,,,,,0,,,62,0
60641,note_on,71,0,1,,,,,,,,0,,,74,0
60654,note_on,0,0,2,,,,,,,,0,,,50,0
60654,note_on,84,0,2,,,,,,,,0,,,38,0
60660,note_on,19,0,1,,,,,,,,0,,,57,80
60660,note_on,6,0,2,,,,,,,,0,,,45,80
60660,note_on,0,0,2,,,,,,,,0,,,33,80
60660,note_on,0,0,1,,,,,,,,0,,,69,80
60667,set_tempo,27,1,0,,,,,,733407,,,,,,
60693,set_tempo,26,1,0,,,,,,742390,,,,,,
60719,set_tempo,26,1,0,,,,,,751597,,,,,,
60731,note_on,0,0,1,,,,,,,,0,,,57,0
60731,note_on,71,0,1,,,,,,,,0,,,69,0
60744,note_on,84,0,2,,,,,,,,0,,,33,0
60744,note_on,0,0,2,,,,,,,,0,,,45,0
60745,set_tempo,26,1,0,,,,,,761035,,,,,,
60750,note_on,6,0,2,,,,,,,,0,,,42,80
60750,note_on,0,0,1,,,,,,,,0,,,54,80
60750,note_on,19,0,1,,,,,,,,0,,,66,80
60750,note_on,0,0,2,,,,,,,,0,,,30,80
60771,set_tempo,26,1,0,,,,,,770713,,,,,,
60804,set_tempo,33,1,0,,,,,,780640,,,,,,
60821,note_on,0,0,1,,,,,,,,0,,,66,0
60821,note_on,71,0,1,,,,,,,,0,,,54,0
60830,set_tempo,26,1,0,,,,,,790826,,,,,,
60834,note_on,84,0,2,,,,,,,,0,,,30,0
60834,note_on,0,0,2,,,,,,,,0,,,42,0
60840,note_on,19,0,1,,,,,,,,0,,,63,80
60840,note_on,0,0,2,,,,,,,,0,,,27,80
60840,note_on,6,0,2,,,,,,,,0,,,39,80
60840,note_on,0,0,2,,,,,,,,0,,,51,80
60851,control_change,11,0,1,,,,,,,,0,64,0,,
60856,set_tempo,26,1,0,,,,,,801282,,,,,,
60883,set_tempo,27,1,0,,,,,,812018,,,,,,
60893,control_change,42,0,1,,,,,,,,0,64,127,,
60909,set_tempo,26,1,0,,,,,,823045,,,,,,
60911,note_on,18,0,1,,,,,,,,0,,,63,0
60911,note_on,71,0,2,,,,,,,,0,,,51,0
60911,note_on,0,0,2,,,,,,,,0,,,27,0
60911,note_on,0,0,2,,,,,,,,0,,,39,0
60930,note_on,19,0,2,,,,,,,,0,,,26,80
60930,note_on,19,0,1,,,,,,,,0,,,62,80
60930,note_on,0,0,2,,,,,,,,0,,,38,80
60930,note_on,0,0,2,,,,,,,,0,,,50,80
60935,set_tempo,26,1,0,,,,,,834376,,,,,,
60961,set_tempo,26,1,0,,,,,,846024,,,,,,
60987,set_tempo,26,1,0,,,,,,858001,,,,,,
61001,note_on,0,0,2,,,,,,,,0,,,26,0
61001,note_on,0,0,2,,,,,,,,0,,,50,0
61001,note_on,71,0,1,,,,,,,,0,,,62,0
61001,note_on,71,0,2,,,,,,,,0,,,38,0
61013,set_tempo,26,1,0,,,,,,870322,,,,,,
61020,note_on,0,0,1,,,,,,,,0,,,63,80
61020,note_on,19,0,2,,,,,,,,0,,,51,80
61020,note_on,0,0,2,,,,,,,,0,,,39,80
61020,note_on,19,0,1,,,,,,,,0,,,75,80
61040,set_tempo,27,1,0,,,,,,883002,,,,,,
61066,set_tempo,26,1,0,,,,,,896057,,,,,,
61091,note_on,0,0,2,,,,,,,,0,,,51,0
61091,note_on,71,0,1,,,,,,,,0,,,63,0
61091,note_on,71,0,2,,,,,,,,0,,,39,0
61091,note_on,0,0,1,,,,,,,,0,,,75,0
61099,set_tempo,33,1,0,,,,,,909504,,,,,,
61110,note_on,0,0,2,,,,,,,,0,,,38,80
61110,note_on,19,0,2,,,,,,,,0,,,50,80
61110,note_on,19,0,1,,,,,,,,0,,,74,80
61110,note_on,0,0,1,,,,,,,,0,,,62,80
61125,set_tempo,26,1,0,,,,,,923361,,,,,,
61151,set_tempo,26,1,0,,,,,,937647,,,,,,
61177,set_tempo,26,1,0,,,,,,952381,,,,,,
61181,note_on,71,0,2,,,,,,,,0,,,38,0
61181,note_on,71,0,1,,,,,,,,0,,,62,0
61181,note_on,0,0,1,,,,,,,,0,,,74,0
61181,note_on,0,0,2,,,,,,,,0,,,50,0
61200,note_on,19,0,2,,,,,,,,0,,,63,80
61200,note_on,0,0,2,,,,,,,,0,,,51,80
61200,note_on,0,0,1,,,,,,,,0,,,87,80
61200,note_on,19,0,1,,,,,,,,0,,,75,80
61203,set_tempo,26,1,0,,,,,,967586,,,,,,
61229,set_tempo,26,1,0,,,,,,983284,,,,,,
61256,set_tempo,27,1,0,,,,,,999500,,,,,,
61271,note_on,71,0,2,,,,,,,,0,,,51,0
61271,note_on,0,0,2,,,,,,,,0,,,63,0
61271,note_on,71,0,1,,,,,,,,0,,,87,0
61271,note_on,0,0,1,,,,,,,,0,,,75,0
61282,set_tempo,26,1,0,,,,,,1016260,,,,,,
61290,note_on,19,0,1,,,,,,,,0,,,74,80
61290,note_on,19,0,2,,,,,,,,0,,,62,80
61290,note_on,0,0,1,,,,,,,,0,,,86,80
61290,note_on,0,0,2,,,,,,,,0,,,50,80
61308,set_tempo,26,1,0,,,,,,1033592,,,,,,
61334,set_tempo,26,1,0,,,,,,1051525,,,,,,
61360,set_tempo,26,1,0,,,,,,1070091,,,,,,
61361,note_on,71,0,2,,,,,,,,0,,,50,0
61361,note_on,71,0,1,,,,,,,,0,,,86,0
61361,note_on,0,0,2,,,,,,,,0,,,62,0
61361,note_on,0,0,1,,,,,,,,0,,,74,0
61367,set_tempo,7,1,0,,,,,,1129944,,,,,,
61373,set_tempo,6,1,0,,,,,,1151410,,,,,,
61380,note_on,0,0,1,,,,,,,,0,,,99,80
61380,note_on,19,0,2,,,,,,,,0,,,75,80
61380,set_tempo,7,1,0,,,,,,1173709,,,,,,
61380,note_on,0,0,2,,,,,,,,0,,,63,80
61380,note_on,19,0,1,,,,,,,,0,,,87,80
61387,set_tempo,7,1,0,,,,,,1196888,,,,,,
61393,set_tempo,6,1,0,,,,,,1221001,,,,,,
61400,set_tempo,7,1,0,,,,,,1246106,,,,,,
61406,set_tempo,6,1,0,,,,,,1299545,,,,,,
61413,set_tempo,7,1,0,,,,,,1328021,,,,,,
61419,set_tempo,6,1,0,,,,,,1357773,,,,,,
61426,set_tempo,7,1,0,,,,,,1388889,,,,,,
61432,set_tempo,6,1,0,,,,,,1421464,,,,,,
61439,set_tempo,7,1,0,,,,,,1455604,,,,,,
61445,set_tempo,6,1,0,,,,,,1529052,,,,,,
61451,note_on,0,0,2,,,,,,,,0,,,75,0
61451,note_on,71,0,1,,,,,,,,0,,,99,0
61451,note_on,71,0,2,,,,,,,,0,,,63,0
61451,note_on,0,0,1,,,,,,,,0,,,87,0
61452,set_tempo,7,1,0,,,,,,1568627,,,,,,
61459,set_tempo,7,1,0,,,,,,1610306,,,,,,
61465,set_tempo,6,1,0,,,,,,1654260,,,,,,
61470,note_on,0,0,1,,,,,,,,0,,,86,80
61470,note_on,0,0,2,,,,,,,,0,,,74,80
61470,note_on,19,0,1,,,,,,,,0,,,98,80
61470,note_on,19,0,2,,,,,,,,0,,,62,80
61472,set_tempo,7,1,0,,,,,,1700680,,,,,,
61478,set_tempo,6,1,0,,,,,,1749781,,,,,,
61485,set_tempo,7,1,0,,,,,,1857010,,,,,,
61491,set_tempo,6,1,0,,,,,,1915709,,,,,,
61498,set_tempo,7,1,0,,,,,,1978239,,,,,,
61504,set_tempo,6,1,0,,,,,,2044990,,,,,,
61511,set_tempo,7,1,0,,,,,,2116402,,,,,,
61517,set_tempo,6,1,0,,,,,,2192982,,,,,,
61524,set_tempo,7,1,0,,,,,,2364066,,,,,,
61531,set_tempo,7,1,0,,,,,,2460025,,,,,,
61537,set_tempo,6,1,0,,,,,,2564103,,,,,,
61541,note_on,71,0,2,,,,,,,,0,,,74,0
61541,note_on,0,0,2,,,,,,,,0,,,62,0
61541,note_on,71,0,1,,,,,,,,0,,,86,0
61541,note_on,0,0,1,,,,,,,,0,,,98,0
61544,set_tempo,7,1,0,,,,,,640410,,,,,,
61560,note_on,9357,0,3,,,,,,,,0,,,62,80
61560,control_change,19,0,1,,,,,,,,0,64,0,,
61560,time_signature,16,1,0,6,4,24,8,,,,,,,,
61560,note_on,19,0,2,,,,,,,,0,,,50,80
61560,note_on,0,0,2,,,,,,,,0,,,47,80
61560,note_on,0,0,2,,,,,,,,0,,,55,80
61560,note_on,0,0,2,,,,,,,,0,,,59,80
61560,note_on,0,0,3,,,,,,,,0,,,74,80
61589,set_tempo,29,1,0,,,,,,633714,,,,,,
61608,control_change,48,0,1,,,,,,,,0,64,127,,
61619,note_on,11,0,1,,,,,,,,0,,,62,73
61666,note_on,47,0,1,,,,,,,,0,,,62,0
61679,note_on,13,0,1,,,,,,,,0,,,67,73
61727,note_on,48,0,1,,,,,,,,0,,,67,0
61740,note_on,13,0,1,,,,,,,,0,,,71,73
61787,note_on,47,0,1,,,,,,,,0,,,71,0
61799,note_on,12,0,1,,,,,,,,0,,,74,73
61846,note_on,47,0,1,,,,,,,,0,,,74,0
61846,note_on,0,0,2,,,,,,,,0,,,50,0
61846,note_on,0,0,3,,,,,,,,0,,,62,0
61846,note_on,0,0,2,,,,,,,,0,,,47,0
61846,note_on,0,0,2,,,,,,,,0,,,59,0
61846,note_on,286,0,3,,,,,,,,0,,,74,0
61846,note_on,286,0,2,,,,,,,,0,,,55,0
61859,note_on,13,0,1,,,,,,,,0,,,79,73
61907,note_on,48,0,1,,,,,,,,0,,,79,0
61920,note_on,0,0,3,,,,,,,,0,,,86,80
61920,note_on,0,0,3,,,,,,,,0,,,98,80
61920,note_on,0,0,2,,,,,,,,0,,,31,80
61920,note_on,0,0,2,,,,,,,,0,,,43,80
61920,note_on,0,0,2,,,,,,,,0,,,38,80
61920,note_on,74,0,2,,,,,,,,0,,,35,80
61920,note_on,74,0,3,,,,,,,,0,,,95,80
61941,control_change,34,0,1,,,,,,,,0,64,0,,
61968,control_change,27,0,1,,,,,,,,0,64,127,,
61979,note_on,11,0,1,,,,,,,,0,,,91,73
62026,note_on,47,0,1,,,,,,,,0,,,91,0
62039,note_on,13,0,1,,,,,,,,0,,,86,73
62087,note_on,48,0,1,,,,,,,,0,,,86,0
62100,note_on,13,0,1,,,,,,,,0,,,83,73
62147,note_on,47,0,1,,,,,,,,0,,,83,0
62159,note_on,12,0,1,,,,,,,,0,,,79,73
62206,note_on,286,0,3,,,,,,,,0,,,86,0
62206,note_on,0,0,2,,,,,,,,0,,,43,0
62206,note_on,0,0,2,,,,,,,,0,,,35,0
62206,note_on,0,0,2,,,,,,,,0,,,31,0
62206,note_on,47,0,1,,,,,,,,0,,,79,0
62206,note_on,286,0,2,,,,,,,,0,,,38,0
62206,note_on,0,0,3,,,,,,,,0,,,98,0
62206,note_on,0,0,3,,,,,,,,0,,,95,0
62219,note_on,13,0,1,,,,,,,,0,,,74,73
62267,note_on,48,0,1,,,,,,,,0,,,74,0
62280,note_on,74,0,3,,,,,,,,0,,,61,80
62280,note_on,0,0,2,,,,,,,,0,,,46,80
62280,note_on,0,0,2,,,,,,,,0,,,52,80
62280,note_on,0,0,2,,,,,,,,0,,,55,80
62280,note_on,0,0,2,,,,,,,,0,,,58,80
62280,control_change,13,0,1,,,,,,,,0,64,0,,
62280,note_on,0,0,3,,,,,,,,0,,,73,80
62280,note_on,74,0,2,,,,,,,,0,,,49,80
62301,control_change,21,0,1,,,,,,,,0,64,127,,
62339,note_on,38,0,1,,,,,,,,0,,,67,73
62386,note_on,47,0,1,,,,,,,,0,,,67,0
62399,note_on,13,0,1,,,,,,,,0,,,70,73
62447,note_on,48,0,1,,,,,,,,0,,,70,0
62460,note_on,13,0,1,,,,,,,,0,,,73,73
62507,note_on,47,0,1,,,,,,,,0,,,73,0
62519,note_on,12,0,1,,,,,,,,0,,,79,73
62566,note_on,286,0,3,,,,,,,,0,,,73,0
62566,note_on,286,0,2,,,,,,,,0,,,58,0
62566,note_on,0,0,2,,,,,,,,0,,,49,0
62566,note_on,0,0,2,,,,,,,,0,,,52,0
62566,note_on,0,0,2,,,,,,,,0,,,55,0
62566,note_on,0,0,2,,,,,,,,0,,,46,0
62566,note_on,47,0,1,,,,,,,,0,,,79,0
62566,note_on,0,0,3,,,,,,,,0,,,61,0
62579,note_on,13,0,1,,,,,,,,0,,,82,73
62627,note_on,48,0,1,,,,,,,,0,,,82,0
62640,note_on,0,0,2,,,,,,,,0,,,34,80
62640,note_on,0,0,2,,,,,,,,0,,,40,80
62640,note_on,0,0,2,,,,,,,,0,,,43,80
62640,note_on,0,0,3,,,,,,,,0,,,97,80
62640,note_on,0,0,2,,,,,,,,0,,,31,80
62640,note_on,74,0,3,,,,,,,,0,,,85,80
62640,note_on,74,0,2,,,,,,,,0,,,37,80
62640,note_on,0,0,3,,,,,,,,0,,,94,80
62651,control_change,24,0,1,,,,,,,,0,64,0,,
62682,control_change,31,0,1,,,,,,,,0,64,127,,
62699,note_on,17,0,1,,,,,,,,0,,,91,73
62746,note_on,47,0,1,,,,,,,,0,,,91,0
62759,note_on,13,0,1,,,,,,,,0,,,85,73
62807,note_on,48,0,1,,,,,,,,0,,,85,0
62820,note_on,13,0,1,,,,,,,,0,,,82,73
62867,note_on,47,0,1,,,,,,,,0,,,82,0
62879,note_on,12,0,1,,,,,,,,0,,,79,73
62926,note_on,0,0,3,,,,,,,,0,,,97,0
62926,note_on,286,0,2,,,,,,,,0,,,40,0
62926,note_on,0,0,3,,,,,,,,0,,,85,0
62926,note_on,0,0,2,,,,,,,,0,,,43,0
62926,note_on,286,0,3,,,,,,,,0,,,94,0
62926,note_on,47,0,1,,,,,,,,0,,,79,0
62926,note_on,0,0,2,,,,,,,,0,,,31,0
62926,note_on,0,0,2,,,,,,,,0,,,34,0
62926,note_on,0,0,2,,,,,,,,0,,,37,0
62939,note_on,13,0,1,,,,,,,,0,,,73,73
62987,note_on,48,0,1,,,,,,,,0,,,73,0
62995,control_change,8,0,1,,,,,,,,0,64,0,,
63000,note_on,74,0,3,,,,,,,,0,,,74,80
63000,note_on,0,0,2,,,,,,,,0,,,47,80
63000,note_on,0,0,2,,,,,,,,0,,,55,80
63000,note_on,74,0,2,,,,,,,,0,,,50,80
63000,note_on,0,0,2,,,,,,,,0,,,59,80
63000,note_on,0,0,3,,,,,,,,0,,,62,80
63008,control_change,13,0,1,,,,,,,,0,64,127,,
63059,note_on,51,0,1,,,,,,,,0,,,62,73
63106,note_on,47,0,1,,,,,,,,0,,,62,0
63119,note_on,13,0,1,,,,,,,,0,,,67,73
63167,note_on,48,0,1,,,,,,,,0,,,67,0
63180,note_on,13,0,1,,,,,,,,0,,,71,73
63227,note_on,47,0,1,,,,,,,,0,,,71,0
63239,note_on,12,0,1,,,,,,,,0,,,74,73
63286,note_on,286,0,2,,,,,,,,0,,,55,0
63286,note_on,0,0,2,,,,,,,,0,,,59,0
63286,note_on,286,0,3,,,,,,,,0,,,62,0
63286,note_on,0,0,2,,,,,,,,0,,,50,0
63286,note_on,0,0,2,,,,,,,,0,,,47,0
63286,note_on,47,0,1,,,,,,,,0,,,74,0
63286,note_on,0,0,3,,,,,,,,0,,,74,0
63299,note_on,13,0,1,,,,,,,,0,,,79,73
63347,note_on,48,0,1,,,,,,,,0,,,79,0
63360,note_on,0,0,2,,,,,,,,0,,,31,80
63360,note_on,0,0,3,,,,,,,,0,,,98,80
63360,note_on,0,0,2,,,,,,,,0,,,38,80
63360,note_on,0,0,2,,,,,,,,0,,,43,80
63360,note_on,74,0,2,,,,,,,,0,,,35,80
63360,note_on,0,0,3,,,,,,,,0,,,86,80
63360,note_on,74,0,3,,,,,,,,0,,,95,80
63365,control_change,18,0,1,,,,,,,,0,64,0,,
63397,control_change,32,0,1,,,,,,,,0,64,127,,
63419,note_on,22,0,1,,,,,,,,0,,,91,73
63466,note_on,47,0,1,,,,,,,,0,,,91,0
63479,note_on,13,0,1,,,,,,,,0,,,86,73
63527,note_on,48,0,1,,,,,,,,0,,,86,0
63540,note_on,13,0,1,,,,,,,,0,,,83,73
63587,note_on,47,0,1,,,,,,,,0,,,83,0
63599,note_on,12,0,1,,,,,,,,0,,,79,73
63646,note_on,0,0,3,,,,,,,,0,,,98,0
63646,note_on,47,0,1,,,,,,,,0,,,79,0
63646,note_on,286,0,3,,,,,,,,0,,,86,0
63646,note_on,0,0,2,,,,,,,,0,,,31,0
63646,note_on,0,0,2,,,,,,,,0,,,35,0
63646,note_on,286,0,2,,,,,,,,0,,,38,0
63646,note_on,0,0,2,,,,,,,,0,,,43,0
63646,note_on,0,0,3,,,,,,,,0,,,95,0
63659,note_on,13,0,1,,,,,,,,0,,,74,73
63707,note_on,48,0,1,,,,,,,,0,,,74,0
63720,note_on,0,0,2,,,,,,,,0,,,55,80
63720,note_on,74,0,2,,,,,,,,0,,,47,80
63720,note_on,0,0,3,,,,,,,,0,,,59,80
63720,control_change,13,0,1,,,,,,,,0,64,0,,
63720,note_on,0,0,2,,,,,,,,0,,,43,80
63720,note_on,0,0,2,,,,,,,,0,,,50,80
63720,note_on,74,0,3,,,,,,,,0,,,71,80
63768,control_change,48,0,1,,,,,,,,0,64,127,,
63779,note_on,11,0,1,,,,,,,,0,,,62,73
63826,note_on,47,0,1,,,,,,,,0,,,62,0
63839,note_on,13,0,1,,,,,,,,0,,,67,73
63887,note_on,48,0,1,,,,,,,,0,,,67,0
63900,note_on,13,0,1,,,,,,,,0,,,71,73
63947,note_on,47,0,1,,,,,,,,0,,,71,0
63959,note_on,12,0,1,,,,,,,,0,,,74,73
64006,note_on,0,0,2,,,,,,,,0,,,47,0
64006,note_on,0,0,2,,,,,,,,0,,,55,0
64006,note_on,0,0,2,,,,,,,,0,,,43,0
64006,note_on,0,0,3,,,,,,,,0,,,71,0
64006,note_on,47,0,1,,,,,,,,0,,,74,0
64006,note_on,286,0,3,,,,,,,,0,,,59,0
64006,note_on,286,0,2,,,,,,,,0,,,50,0
64019,note_on,13,0,1,,,,,,,,0,,,79,73
64067,note_on,48,0,1,,,,,,,,0,,,79,0
64080,note_on,0,0,2,,,,,,,,0,,,38,80
64080,note_on,0,0,2,,,,,,,,0,,,31,80
64080,note_on,74,0,2,,,,,,,,0,,,35,80
64080,note_on,0,0,3,,,,,,,,0,,,95,80
64080,note_on,74,0,3,,,,,,,,0,,,91,80
64080,note_on,0,0,3,,,,,,,,0,,,83,80
64080,note_on,0,0,2,,,,,,,,0,,,43,80
64104,control_change,37,0,1,,,,,,,,0,64,0,,
64132,control_change,28,0,1,,,,,,,,0,64,127,,
64139,note_on,7,0,1,,,,,,,,0,,,86,73
64186,note_on,47,0,1,,,,,,,,0,,,86,0
64199,note_on,13,0,1,,,,,,,,0,,,83,73
64247,note_on,48,0,1,,,,,,,,0,,,83,0
64260,note_on,13,0,1,,,,,,,,0,,,79,73
64307,note_on,47,0,1,,,,,,,,0,,,79,0
64319,note_on,12,0,1,,,,,,,,0,,,74,73
64366,note_on,0,0,2,,,,,,,,0,,,43,0
64366,note_on,286,0,3,,,,,,,,0,,,83,0
64366,note_on,47,0,1,,,,,,,,0,,,74,0
64366,note_on,0,0,3,,,,,,,,0,,,91,0
64366,note_on,0,0,3,,,,,,,,0,,,95,0
64366,note_on,0,0,2,,,,,,,,0,,,35,0
64366,note_on,286,0,2,,,,,,,,0,,,38,0
64366,note_on,0,0,2,,,,,,,,0,,,31,0
64379,note_on,13,0,1,,,,,,,,0,,,71,73
64427,note_on,48,0,1,,,,,,,,0,,,71,0
64440,note_on,0,0,2,,,,,,,,0,,,48,80
64440,note_on,0,0,2,,,,,,,,0,,,52,80
64440,note_on,0,0,2,,,,,,,,0,,,60,80
64440,note_on,74,0,2,,,,,,,,0,,,55,80
64440,note_on,74,0,3,,,,,,,,0,,,64,80
64440,note_on,0,0,3,,,,,,,,0,,,76,80
64450,control_change,23,0,1,,,,,,,,0,64,0,,
64478,control_change,28,0,1,,,,,,,,0,64,127,,
64499,note_on,21,0,1,,,,,,,,0,,,67,73
64546,note_on,47,0,1,,,,,,,,0,,,67,0
64559,note_on,13,0,1,,,,,,,,0,,,72,73
64607,note_on,48,0,1,,,,,,,,0,,,72,0
64620,note_on,13,0,1,,,,,,,,0,,,76,73
64667,note_on,47,0,1,,,,,,,,0,,,76,0
64679,note_on,12,0,1,,,,,,,,0,,,79,73
64726,note_on,0,0,3,,,,,,,,0,,,64,0
64726,note_on,47,0,1,,,,,,,,0,,,79,0
64726,note_on,0,0,2,,,,,,,,0,,,52,0
64726,note_on,0,0,2,,,,,,,,0,,,55,0
64726,note_on,0,0,2,,,,,,,,0,,,48,0
64726,note_on,286,0,3,,,,,,,,0,,,76,0
64726,note_on,286,0,2,,,,,,,,0,,,60,0
64739,note_on,13,0,1,,,,,,,,0,,,84,73
64787,note_on,48,0,1,,,,,,,,0,,,84,0
64800,note_on,0,0,3,,,,,,,,0,,,100,80
64800,note_on,0,0,3,,,,,,,,0,,,88,80
64800,note_on,0,0,2,,,,,,,,0,,,43,80
64800,note_on,0,0,2,,,,,,,,0,,,36,80
64800,note_on,74,0,3,,,,,,,,0,,,96,80
64800,note_on,74,0,2,,,,,,,,0,,,40,80
64800,note_on,0,0,2,,,,,,,,0,,,31,80
64814,control_change,27,0,1,,,,,,,,0,64,0,,
64842,control_change,28,0,1,,,,,,,,0,64,127,,
64859,note_on,17,0,1,,,,,,,,0,,,91,73
64906,note_on,47,0,1,,,,,,,,0,,,91,0
64919,note_on,13,0,1,,,,,,,,0,,,88,73
64967,note_on,48,0,1,,,,,,,,0,,,88,0
64980,note_on,13,0,1,,,,,,,,0,,,84,73
65027,note_on,47,0,1,,,,,,,,0,,,84,0
65039,note_on,12,0,1,,,,,,,,0,,,79,73
65086,note_on,286,0,2,,,,,,,,0,,,43,0
65086,note_on,0,0,2,,,,,,,,0,,,36,0
65086,note_on,0,0,2,,,,,,,,0,,,40,0
65086,note_on,0,0,2,,,,,,,,0,,,31,0
65086,note_on,286,0,3,,,,,,,,0,,,88,0
65086,note_on,0,0,3,,,,,,,,0,,,96,0
65086,note_on,0,0,3,,,,,,,,0,,,100,0
65086,note_on,47,0,1,,,,,,,,0,,,79,0
65099,note_on,13,0,1,,,,,,,,0,,,76,73
65147,note_on,48,0,1,,,,,,,,0,,,76,0
65160,note_on,0,0,2,,,,,,,,0,,,50,80
65160,note_on,0,0,2,,,,,,,,0,,,59,80
65160,note_on,0,0,2,,,,,,,,0,,,47,80
65160,note_on,74,0,2,,,,,,,,0,,,55,80
65160,note_on,0,0,3,,,,,,,,0,,,62,80
65160,note_on,74,0,3,,,,,,,,0,,,74,80
65167,control_change,20,0,1,,,,,,,,0,64,0,,
65205,control_change,38,0,1,,,,,,,,0,64,127,,
65219,note_on,14,0,1,,,,,,,,0,,,67,73
65266,note_on,47,0,1,,,,,,,,0,,,67,0
65279,note_on,13,0,1,,,,,,,,0,,,71,73
65327,note_on,48,0,1,,,,,,,,0,,,71,0
65340,note_on,13,0,1,,,,,,,,0,,,74,73
65387,note_on,47,0,1,,,,,,,,0,,,74,0
65399,note_on,12,0,1,,,,,,,,0,,,79,73
65446,note_on,0,0,3,,,,,,,,0,,,74,0
65446,note_on,0,0,2,,,,,,,,0,,,50,0
65446,note_on,0,0,2,,,,,,,,0,,,55,0
65446,note_on,0,0,2,,,,,,,,0,,,47,0
65446,note_on,47,0,1,,,,,,,,0,,,79,0
65446,note_on,286,0,3,,,,,,,,0,,,62,0
65446,note_on,286,0,2,,,,,,,,0,,,59,0
65459,note_on,13,0,1,,,,,,,,0,,,83,73
65507,note_on,48,0,1,,,,,,,,0,,,83,0
65513,control_change,6,0,1,,,,,,,,0,64,0,,
65520,note_on,0,0,3,,,,,,,,0,,,86,80
65520,note_on,0,0,3,,,,,,,,0,,,98,80
65520,note_on,0,0,2,,,,,,,,0,,,43,80
65520,note_on,0,0,2,,,,,,,,0,,,35,80
65520,note_on,74,0,2,,,,,,,,0,,,38,80
65520,note_on,74,0,3,,,,,,,,0,,,95,80
65520,note_on,0,0,2,,,,,,,,0,,,31,80
65548,control_change,35,0,1,,,,,,,,0,64,127,,
65579,note_on,31,0,1,,,,,,,,0,,,91,73
65626,note_on,47,0,1,,,,,,,,0,,,91,0
65639,note_on,13,0,1,,,,,,,,0,,,86,73
65687,note_on,48,0,1,,,,,,,,0,,,86,0
65700,note_on,13,0,1,,,,,,,,0,,,83,73
65747,note_on,47,0,1,,,,,,,,0,,,83,0
65759,note_on,12,0,1,,,,,,,,0,,,79,73
65806,note_on,286,0,3,,,,,,,,0,,,86,0
65806,note_on,0,0,2,,,,,,,,0,,,31,0
65806,note_on,0,0,2,,,,,,,,0,,,38,0
65806,note_on,0,0,2,,,,,,,,0,,,35,0
65806,note_on,286,0,2,,,,,,,,0,,,43,0
65806,note_on,47,0,1,,,,,,,,0,,,79,0
65806,note_on,0,0,3,,,,,,,,0,,,95,0
65806,note_on,0,0,3,,,,,,,,0,,,98,0
65819,note_on,13,0,1,,,,,,,,0,,,74,73
65867,note_on,48,0,1,,,,,,,,0,,,74,0
65880,note_on,74,0,3,,,,,,,,0,,,60,80
65880,note_on,0,0,3,,,,,,,,0,,,72,80
65880,note_on,74,0,2,,,,,,,,0,,,57,80
65880,control_change,13,0,1,,,,,,,,0,64,0,,
65880,note_on,0,0,2,,,,,,,,0,,,54,80
65880,note_on,0,0,2,,,,,,,,0,,,51,80
65904,control_change,24,0,1,,,,,,,,0,64,127,,
65939,note_on,35,0,1,,,,,,,,0,,,66,73
65986,note_on,47,0,1,,,,,,,,0,,,66,0
65999,note_on,13,0,1,,,,,,,,0,,,69,73
66047,note_on,48,0,1,,,,,,,,0,,,69,0
66060,note_on,13,0,1,,,,,,,,0,,,72,73
66107,note_on,47,0,1,,,,,,,,0,,,72,0
66119,note_on,12,0,1,,,,,,,,0,,,78,73
66166,note_on,286,0,2,,,,,,,,0,,,54,0
66166,note_on,0,0,2,,,,,,,,0,,,57,0
66166,note_on,286,0,3,,,,,,,,0,,,72,0
66166,note_on,0,0,3,,,,,,,,0,,,60,0
66166,note_on,0,0,2,,,,,,,,0,,,51,0
66166,note_on,47,0,1,,,,,,,,0,,,78,0
66179,note_on,13,0,1,,,,,,,,0,,,81,73
66227,note_on,48,0,1,,,,,,,,0,,,81,0
66240,note_on,0,0,2,,,,,,,,0,,,45,80
66240,note_on,0,0,3,,,,,,,,0,,,84,80
66240,note_on,0,0,2,,,,,,,,0,,,39,80
66240,note_on,0,0,2,,,,,,,,0,,,48,80
66240,note_on,74,0,3,,,,,,,,0,,,93,80
66240,note_on,74,0,2,,,,,,,,0,,,42,80
66240,note_on,0,0,3,,,,,,,,0,,,96,80
66261,control_change,34,0,1,,,,,,,,0,64,0,,
66288,control_change,27,0,1,,,,,,,,0,64,127,,
66299,note_on,11,0,1,,,,,,,,0,,,90,73
66346,note_on,47,0,1,,,,,,,,0,,,90,0
66359,note_on,13,0,1,,,,,,,,0,,,84,73
66407,note_on,48,0,1,,,,,,,,0,,,84,0
66420,note_on,13,0,1,,,,,,,,0,,,81,73
66467,note_on,47,0,1,,,,,,,,0,,,81,0
66479,note_on,12,0,1,,,,,,,,0,,,78,73
66526,note_on,0,0,2,,,,,,,,0,,,39,0
66526,note_on,286,0,3,,,,,,,,0,,,84,0
66526,note_on,0,0,2,,,,,,,,0,,,42,0
66526,note_on,0,0,3,,,,,,,,0,,,96,0
66526,note_on,286,0,2,,,,,,,,0,,,45,0
66526,note_on,0,0,3,,,,,,,,0,,,93,0
66526,note_on,47,0,1,,,,,,,,0,,,78,0
66526,note_on,0,0,2,,,,,,,,0,,,48,0
66539,note_on,13,0,1,,,,,,,,0,,,72,73
66587,note_on,48,0,1,,,,,,,,0,,,72,0
66600,note_on,74,0,3,,,,,,,,0,,,59,80
66600,note_on,0,0,2,,,,,,,,0,,,52,80
66600,note_on,74,0,2,,,,,,,,0,,,55,80
66600,note_on,0,0,3,,,,,,,,0,,,71,80
66605,control_change,18,0,1,,,,,,,,0,64,0,,
66624,control_change,19,0,1,,,,,,,,0,64,127,,
66659,note_on,35,0,1,,,,,,,,0,,,64,73
66706,note_on,47,0,1,,,,,,,,0,,,64,0
66719,note_on,13,0,1,,,,,,,,0,,,67,73
66767,note_on,48,0,1,,,,,,,,0,,,67,0
66780,note_on,13,0,1,,,,,,,,0,,,71,73
66827,note_on,47,0,1,,,,,,,,0,,,71,0
66839,note_on,12,0,1,,,,,,,,0,,,76,73
66886,note_on,286,0,2,,,,,,,,0,,,52,0
66886,note_on,286,0,3,,,,,,,,0,,,71,0
66886,note_on,0,0,2,,,,,,,,0,,,55,0
66886,note_on,47,0,1,,,,,,,,0,,,76,0
66886,note_on,0,0,3,,,,,,,,0,,,59,0
66899,note_on,13,0,1,,,,,,,,0,,,79,73
66947,note_on,48,0,1,,,,,,,,0,,,79,0
66960,note_on,0,0,3,,,,,,,,0,,,95,80
66960,note_on,0,0,2,,,,,,,,0,,,40,80
66960,note_on,0,0,2,,,,,,,,0,,,47,80
66960,note_on,74,0,2,,,,,,,,0,,,43,80
66960,note_on,0,0,3,,,,,,,,0,,,91,80
66960,note_on,74,0,3,,,,,,,,0,,,83,80
66968,control_change,21,0,1,,,,,,,,0,64,0,,
66994,control_change,26,0,1,,,,,,,,0,64,127,,
67019,note_on,25,0,1,,,,,,,,0,,,88,73
67066,note_on,47,0,1,,,,,,,,0,,,88,0
67079,note_on,13,0,1,,,,,,,,0,,,83,73
67127,note_on,48,0,1,,,,,,,,0,,,83,0
67140,note_on,13,0,1,,,,,,,,0,,,79,73
67187,note_on,47,0,1,,,,,,,,0,,,79,0
67199,note_on,12,0,1,,,,,,,,0,,,76,73
67246,note_on,286,0,2,,,,,,,,0,,,47,0
67246,note_on,286,0,3,,,,,,,,0,,,91,0
67246,note_on,0,0,3,,,,,,,,0,,,83,0
67246,note_on,0,0,2,,,,,,,,0,,,40,0
67246,note_on,0,0,2,,,,,,,,0,,,43,0
67246,note_on,47,0,1,,,,,,,,0,,,76,0
67246,note_on,0,0,3,,,,,,,,0,,,95,0
67259,note_on,13,0,1,,,,,,,,0,,,71,73
67307,note_on,48,0,1,,,,,,,,0,,,71,0
67317,control_change,10,0,1,,,,,,,,0,64,0,,
67320,note_on,0,0,2,,,,,,,,0,,,48,80
67320,note_on,74,0,2,,,,,,,,0,,,52,80
67320,note_on,74,0,3,,,,,,,,0,,,69,80
67320,note_on,0,0,3,,,,,,,,0,,,57,80
67331,control_change,14,0,1,,,,,,,,0,64,127,,
67379,note_on,48,0,1,,,,,,,,0,,,60,73
67426,note_on,47,0,1,,,,,,,,0,,,60,0
67439,note_on,13,0,1,,,,,,,,0,,,64,73
67487,note_on,48,0,1,,,,,,,,0,,,64,0
67500,note_on,13,0,1,,,,,,,,0,,,69,73
67547,note_on,47,0,1,,,,,,,,0,,,69,0
67559,note_on,12,0,1,,,,,,,,0,,,72,73
67606,note_on,47,0,1,,,,,,,,0,,,72,0
67606,note_on,286,0,2,,,,,,,,0,,,48,0
67606,note_on,0,0,2,,,,,,,,0,,,52,0
67606,note_on,0,0,3,,,,,,,,0,,,69,0
67606,note_on,286,0,3,,,,,,,,0,,,57,0
67619,note_on,13,0,1,,,,,,,,0,,,76,73
67667,note_on,48,0,1,,,,,,,,0,,,76,0
67680,note_on,0,0,3,,,,,,,,0,,,81,80
67680,note_on,0,0,3,,,,,,,,0,,,93,80
67680,note_on,74,0,3,,,,,,,,0,,,88,80
67680,note_on,74,0,2,,,,,,,,0,,,45,80
67680,note_on,0,0,2,,,,,,,,0,,,40,80
67680,note_on,0,0,2,,,,,,,,0,,,36,80
67685,control_change,18,0,1,,,,,,,,0,64,0,,
67712,control_change,27,0,1,,,,,,,,0,64,127,,
67739,note_on,27,0,1,,,,,,,,0,,,84,73
67786,note_on,47,0,1,,,,,,,,0,,,84,0
67799,note_on,13,0,1,,,,,,,,0,,,81,73
67847,note_on,48,0,1,,,,,,,,0,,,81,0
67860,note_on,13,0,1,,,,,,,,0,,,76,73
67907,note_on,47,0,1,,,,,,,,0,,,76,0
67919,note_on,12,0,1,,,,,,,,0,,,72,73
67966,note_on,0,0,2,,,,,,,,0,,,36,0
67966,note_on,286,0,2,,,,,,,,0,,,40,0
67966,note_on,0,0,3,,,,,,,,0,,,88,0
67966,note_on,286,0,3,,,,,,,,0,,,81,0
67966,note_on,0,0,3,,,,,,,,0,,,93,0
67966,note_on,0,0,2,,,,,,,,0,,,45,0
67966,note_on,47,0,1,,,,,,,,0,,,72,0
67979,note_on,13,0,1,,,,,,,,0,,,69,73
68027,note_on,48,0,1,,,,,,,,0,,,69,0
68040,note_on,74,0,2,,,,,,,,0,,,52,80
68040,control_change,13,0,1,,,,,,,,0,64,0,,
68040,note_on,0,0,2,,,,,,,,0,,,43,80
68040,note_on,74,0,3,,,,,,,,0,,,64,80
68040,note_on,0,0,2,,,,,,,,0,,,46,80
68066,control_change,26,0,1,,,,,,,,0,64,127,,
68099,note_on,33,0,1,,,,,,,,0,,,55,80
68146,note_on,47,0,1,,,,,,,,0,,,55,0
68159,note_on,13,0,1,,,,,,,,0,,,58,80
68207,note_on,48,0,1,,,,,,,,0,,,58,0
68220,note_on,13,0,1,,,,,,,,0,,,64,80
68267,note_on,47,0,1,,,,,,,,0,,,64,0
68279,note_on,12,0,1,,,,,,,,0,,,67,80
68326,note_on,286,0,3,,,,,,,,0,,,64,0
68326,note_on,0,0,2,,,,,,,,0,,,43,0
68326,note_on,286,0,2,,,,,,,,0,,,46,0
68326,note_on,0,0,2,,,,,,,,0,,,52,0
68326,note_on,47,0,1,,,,,,,,0,,,67,0
68339,note_on,13,0,1,,,,,,,,0,,,70,80
68387,note_on,48,0,1,,,,,,,,0,,,70,0
68400,note_on,74,0,2,,,,,,,,0,,,36,100
68400,note_on,0,0,3,,,,,,,,0,,,88,80
68400,note_on,74,0,3,,,,,,,,0,,,76,80
68400,note_on,0,0,2,,,,,,,,0,,,24,100
68400,note_on,0,0,3,,,,,,,,0,,,82,80
68408,control_change,21,0,1,,,,,,,,0,64,0,,
68432,control_change,24,0,1,,,,,,,,0,64,127,,
68459,note_on,27,0,1,,,,,,,,0,,,79,80
68506,note_on,47,0,1,,,,,,,,0,,,79,0
68519,note_on,13,0,1,,,,,,,,0,,,76,80
68567,note_on,48,0,1,,,,,,,,0,,,76,0
68580,note_on,13,0,1,,,,,,,,0,,,70,80
68627,note_on,47,0,1,,,,,,,,0,,,70,0
68639,note_on,12,0,1,,,,,,,,0,,,67,80
68686,note_on,47,0,1,,,,,,,,0,,,67,0
68686,note_on,286,0,2,,,,,,,,0,,,24,0
68686,note_on,0,0,2,,,,,,,,0,,,36,0
68686,note_on,286,0,3,,,,,,,,0,,,82,0
68686,note_on,0,0,3,,,,,,,,0,,,88,0
68686,note_on,0,0,3,,,,,,,,0,,,76,0
68699,note_on,13,0,1,,,,,,,,0,,,64,80
68747,note_on,48,0,1,,,,,,,,0,,,64,0
68760,note_on,74,0,2,,,,,,,,0,,,52,80
68760,note_on,0,0,2,,,,,,,,0,,,47,80
68760,note_on,0,0,2,,,,,,,,0,,,55,80
68760,note_on,74,0,3,,,,,,,,0,,,67,80
68768,control_change,21,0,1,,,,,,,,0,64,0,,
68792,control_change,24,0,1,,,,,,,,0,64,127,,
68819,note_on,27,0,1,,,,,,,,0,,,59,80
68866,note_on,47,0,1,,,,,,,,0,,,59,0
68879,note_on,13,0,1,,,,,,,,0,,,64,80
68927,note_on,48,0,1,,,,,,,,0,,,64,0
68940,note_on,13,0,1,,,,,,,,0,,,67,80
68987,note_on,47,0,1,,,,,,,,0,,,67,0
68999,note_on,12,0,1,,,,,,,,0,,,71,80
69046,note_on,47,0,1,,,,,,,,0,,,71,0
69046,note_on,286,0,2,,,,,,,,0,,,55,0
69046,note_on,286,0,3,,,,,,,,0,,,67,0
69046,note_on,0,0,2,,,,,,,,0,,,47,0
69046,note_on,0,0,2,,,,,,,,0,,,52,0
69059,note_on,13,0,1,,,,,,,,0,,,76,80
69107,note_on,48,0,1,,,,,,,,0,,,76,0
69120,note_on,74,0,2,,,,,,,,0,,,43,80
69120,note_on,0,0,3,,,,,,,,0,,,91,80
69120,note_on,0,0,2,,,,,,,,0,,,35,80
69120,note_on,0,0,2,,,,,,,,0,,,40,80
69120,note_on,74,0,3,,,,,,,,0,,,79,80
69120,note_on,0,0,3,,,,,,,,0,,,88,80
69125,control_change,18,0,1,,,,,,,,0,64,0,,
69146,control_change,21,0,1,,,,,,,,0,64,127,,
69179,note_on,33,0,1,,,,,,,,0,,,83,80
69226,note_on,47,0,1,,,,,,,,0,,,83,0
69239,note_on,13,0,1,,,,,,,,0,,,79,80
69287,note_on,48,0,1,,,,,,,,0,,,79,0
69300,note_on,13,0,1,,,,,,,,0,,,76,80
69347,note_on,47,0,1,,,,,,,,0,,,76,0
69359,note_on,12,0,1,,,,,,,,0,,,71,80
69406,note_on,286,0,2,,,,,,,,0,,,40,0
69406,note_on,47,0,1,,,,,,,,0,,,71,0
69406,note_on,0,0,3,,,,,,,,0,,,91,0
69406,note_on,286,0,3,,,,,,,,0,,,88,0
69406,note_on,0,0,2,,,,,,,,0,,,35,0
69406,note_on,0,0,2,,,,,,,,0,,,43,0
69406,note_on,0,0,3,,,,,,,,0,,,79,0
69419,note_on,13,0,1,,,,,,,,0,,,67,80
69467,note_on,48,0,1,,,,,,,,0,,,67,0
69480,note_on,74,0,2,,,,,,,,0,,,51,80
69480,note_on,0,0,2,,,,,,,,0,,,54,80
69480,note_on,0,0,2,,,,,,,,0,,,47,80
69480,note_on,74,0,3,,,,,,,,0,,,66,80
69480,control_change,13,0,1,,,,,,,,0,64,0,,
69501,control_change,21,0,1,,,,,,,,0,64,127,,
69539,note_on,38,0,1,,,,,,,,0,,,59,80
69586,note_on,47,0,1,,,,,,,,0,,,59,0
69599,note_on,13,0,1,,,,,,,,0,,,63,80
69647,note_on,48,0,1,,,,,,,,0,,,63,0
69660,note_on,13,0,1,,,,,,,,0,,,66,80
69707,note_on,47,0,1,,,,,,,,0,,,66,0
69719,note_on,12,0,1,,,,,,,,0,,,71,80
69766,note_on,47,0,1,,,,,,,,0,,,71,0
69766,note_on,286,0,2,,,,,,,,0,,,47,0
69766,note_on,0,0,2,,,,,,,,0,,,51,0
69766,note_on,286,0,3,,,,,,,,0,,,66,0
69766,note_on,0,0,2,,,,,,,,0,,,54,0
69779,note_on,13,0,1,,,,,,,,0,,,75,80
69827,note_on,48,0,1,,,,,,,,0,,,75,0
69829,control_change,2,0,1,,,,,,,,0,64,0,,
69840,note_on,0,0,2,,,,,,,,0,,,35,80
69840,note_on,0,0,2,,,,,,,,0,,,39,80
69840,note_on,0,0,3,,,,,,,,0,,,78,80
69840,note_on,0,0,3,,,,,,,,0,,,90,80
69840,note_on,74,0,3,,,,,,,,0,,,87,80
69840,note_on,74,0,2,,,,,,,,0,,,42,80
69848,control_change,19,0,1,,,,,,,,0,64,127,,
69899,note_on,51,0,1,,,,,,,,0,,,83,80
69946,note_on,47,0,1,,,,,,,,0,,,83,0
69959,note_on,13,0,1,,,,,,,,0,,,78,80
70007,note_on,48,0,1,,,,,,,,0,,,78,0
70020,note_on,13,0,1,,,,,,,,0,,,75,80
70067,note_on,47,0,1,,,,,,,,0,,,75,0
70079,note_on,12,0,1,,,,,,,,0,,,71,80
70126,note_on,286,0,3,,,,,,,,0,,,90,0
70126,note_on,0,0,3,,,,,,,,0,,,87,0
70126,note_on,286,0,2,,,,,,,,0,,,35,0
70126,note_on,0,0,3,,,,,,,,0,,,78,0
70126,note_on,47,0,1,,,,,,,,0,,,71,0
70126,note_on,0,0,2,,,,,,,,0,,,39,0
70126,note_on,0,0,2,,,,,,,,0,,,42,0
70139,note_on,13,0,1,,,,,,,,0,,,66,80
70187,note_on,48,0,1,,,,,,,,0,,,66,0
70200,note_on,74,0,3,,,,,,,,0,,,62,80
70200,note_on,0,0,2,,,,,,,,0,,,47,80
70200,note_on,0,0,3,,,,,,,,0,,,74,80
70200,note_on,74,0,2,,,,,,,,0,,,59,80
70200,control_change,13,0,1,,,,,,,,0,64,0,,
70229,control_change,29,0,1,,,,,,,,0,64,127,,
70247,note_on,47,0,2,,,,,,,,0,,,47,0
70247,note_on,0,0,2,,,,,,,,0,,,59,0
70259,note_on,30,0,1,,,,,,,,0,,,62,76
70259,note_on,12,0,2,,,,,,,,0,,,55,80
70306,note_on,47,0,2,,,,,,,,0,,,55,0
70306,note_on,47,0,1,,,,,,,,0,,,62,0
70319,note_on,13,0,1,,,,,,,,0,,,67,76
70319,note_on,13,0,2,,,,,,,,0,,,50,80
70367,note_on,48,0,1,,,,,,,,0,,,67,0
70367,note_on,48,0,2,,,,,,,,0,,,50,0
70380,note_on,13,0,2,,,,,,,,0,,,47,80
70380,note_on,13,0,1,,,,,,,,0,,,71,76
70427,note_on,47,0,2,,,,,,,,0,,,47,0
70427,note_on,47,0,1,,,,,,,,0,,,71,0
70439,note_on,12,0,1,,,,,,,,0,,,74,76
70439,note_on,12,0,2,,,,,,,,0,,,43,80
70486,note_on,47,0,2,,,,,,,,0,,,43,0
70486,note_on,286,0,3,,,,,,,,0,,,74,0
70486,note_on,0,0,3,,,,,,,,0,,,62,0
70486,note_on,47,0,1,,,,,,,,0,,,74,0
70499,note_on,13,0,2,,,,,,,,0,,,38,80
70499,note_on,13,0,1,,,,,,,,0,,,79,76
70547,note_on,48,0,2,,,,,,,,0,,,38,0
70547,note_on,48,0,1,,,,,,,,0,,,79,0
70555,control_change,8,0,1,,,,,,,,0,64,0,,
70560,note_on,0,0,3,,,,,,,,0,,,95,80
70560,note_on,13,0,2,,,,,,,,0,,,43,80
70560,note_on,0,0,2,,,,,,,,0,,,31,80
70560,note_on,74,0,3,,,,,,,,0,,,86,80
70560,note_on,0,0,3,,,,,,,,0,,,98,80
70568,control_change,13,0,1,,,,,,,,0,64,127,,
70607,note_on,47,0,2,,,,,,,,0,,,31,0
70607,note_on,0,0,2,,,,,,,,0,,,43,0
70619,note_on,51,0,1,,,,,,,,0,,,91,76
70619,note_on,12,0,2,,,,,,,,0,,,35,80
70666,note_on,47,0,2,,,,,,,,0,,,35,0
70666,note_on,47,0,1,,,,,,,,0,,,91,0
70679,note_on,13,0,1,,,,,,,,0,,,86,76
70679,note_on,13,0,2,,,,,,,,0,,,38,80
70727,note_on,48,0,1,,,,,,,,0,,,86,0
70727,note_on,48,0,2,,,,,,,,0,,,38,0
70740,note_on,13,0,1,,,,,,,,0,,,83,76
70740,note_on,13,0,2,,,,,,,,0,,,43,80
70787,note_on,47,0,1,,,,,,,,0,,,83,0
70787,note_on,47,0,2,,,,,,,,0,,,43,0
70799,note_on,12,0,2,,,,,,,,0,,,47,80
70799,note_on,12,0,1,,,,,,,,0,,,79,76
70846,note_on,47,0,1,,,,,,,,0,,,79,0
70846,note_on,0,0,3,,,,,,,,0,,,86,0
70846,note_on,47,0,2,,,,,,,,0,,,47,0
70846,note_on,0,0,3,,,,,,,,0,,,98,0
70846,note_on,286,0,3,,,,,,,,0,,,95,0
70859,note_on,13,0,1,,,,,,,,0,,,74,76
70859,note_on,13,0,2,,,,,,,,0,,,50,80
70907,note_on,48,0,1,,,,,,,,0,,,74,0
70907,note_on,48,0,2,,,,,,,,0,,,50,0
70920,note_on,0,0,3,,,,,,,,0,,,61,80
70920,note_on,13,0,2,,,,,,,,0,,,46,80
70920,note_on,0,0,2,,,,,,,,0,,,58,80
70920,note_on,74,0,3,,,,,,,,0,,,73,80
70923,control_change,16,0,1,,,,,,,,0,64,0,,
70946,control_change,23,0,1,,,,,,,,0,64,127,,
70967,note_on,0,0,2,,,,,,,,0,,,46,0
70967,note_on,47,0,2,,,,,,,,0,,,58,0
70979,note_on,33,0,1,,,,,,,,0,,,67,76
70979,note_on,12,0,2,,,,,,,,0,,,55,80
71026,note_on,47,0,2,,,,,,,,0,,,55,0
71026,note_on,47,0,1,,,,,,,,0,,,67,0
71039,note_on,13,0,2,,,,,,,,0,,,52,80
71039,note_on,13,0,1,,,,,,,,0,,,70,76
71087,note_on,48,0,2,,,,,,,,0,,,52,0
71087,note_on,48,0,1,,,,,,,,0,,,70,0
71100,note_on,13,0,2,,,,,,,,0,,,46,80
71100,note_on,13,0,1,,,,,,,,0,,,73,76
71147,note_on,47,0,1,,,,,,,,0,,,73,0
71147,note_on,47,0,2,,,,,,,,0,,,46,0
71159,note_on,12,0,2,,,,,,,,0,,,43,80
71159,note_on,12,0,1,,,,,,,,0,,,79,76
71206,note_on,47,0,2,,,,,,,,0,,,43,0
71206,note_on,0,0,3,,,,,,,,0,,,73,0
71206,note_on,286,0,3,,,,,,,,0,,,61,0
71206,note_on,47,0,1,,,,,,,,0,,,79,0
71219,note_on,13,0,1,,,,,,,,0,,,82,76
71219,note_on,13,0,2,,,,,,,,0,,,40,80
71267,note_on,48,0,1,,,,,,,,0,,,82,0
71267,note_on,48,0,2,,,,,,,,0,,,40,0
71280,note_on,74,0,3,,,,,,,,0,,,94,80
71280,note_on,0,0,3,,,,,,,,0,,,85,80
71280,note_on,0,0,3,,,,,,,,0,,,97,80
71280,note_on,0,0,2,,,,,,,,0,,,31,80
71280,note_on,13,0,2,,,,,,,,0,,,43,80
71293,control_change,26,0,1,,,,,,,,0,64,0,,
71317,control_change,24,0,1,,,,,,,,0,64,127,,
71327,note_on,47,0,2,,,,,,,,0,,,31,0
71327,note_on,0,0,2,,,,,,,,0,,,43,0
71339,note_on,22,0,1,,,,,,,,0,,,91,76
71339,note_on,12,0,2,,,,,,,,0,,,37,80
71386,note_on,47,0,1,,,,,,,,0,,,91,0
71386,note_on,47,0,2,,,,,,,,0,,,37,0
71399,note_on,13,0,2,,,,,,,,0,,,40,80
71399,note_on,13,0,1,,,,,,,,0,,,85,76
71447,note_on,48,0,2,,,,,,,,0,,,40,0
71447,note_on,48,0,1,,,,,,,,0,,,85,0
71460,note_on,13,0,2,,,,,,,,0,,,43,80
71460,note_on,13,0,1,,,,,,,,0,,,82,76
71507,note_on,47,0,2,,,,,,,,0,,,43,0
71507,note_on,47,0,1,,,,,,,,0,,,82,0
71519,note_on,12,0,1,,,,,,,,0,,,79,76
71519,note_on,12,0,2,,,,,,,,0,,,49,80
71566,note_on,0,0,3,,,,,,,,0,,,94,0
71566,note_on,286,0,3,,,,,,,,0,,,97,0
71566,note_on,0,0,3,,,,,,,,0,,,85,0
71566,note_on,47,0,1,,,,,,,,0,,,79,0
71566,note_on,47,0,2,,,,,,,,0,,,49,0
71579,note_on,13,0,2,,,,,,,,0,,,52,80
71579,note_on,13,0,1,,,,,,,,0,,,73,76
71627,note_on,48,0,1,,,,,,,,0,,,73,0
71627,note_on,48,0,2,,,,,,,,0,,,52,0
71640,note_on,0,0,3,,,,,,,,0,,,74,80
71640,note_on,0,0,2,,,,,,,,0,,,47,80
71640,note_on,13,0,2,,,,,,,,0,,,59,80
71640,note_on,74,0,3,,,,,,,,0,,,62,80
71648,control_change,21,0,1,,,,,,,,0,64,0,,
71664,control_change,16,0,1,,,,,,,,0,64,127,,
71687,note_on,47,0,2,,,,,,,,0,,,47,0
71687,note_on,0,0,2,,,,,,,,0,,,59,0
71699,note_on,35,0,1,,,,,,,,0,,,62,76
71699,note_on,12,0,2,,,,,,,,0,,,55,80
71746,note_on,47,0,2,,,,,,,,0,,,55,0
71746,note_on,47,0,1,,,,,,,,0,,,62,0
71759,note_on,13,0,2,,,,,,,,0,,,50,80
71759,note_on,13,0,1,,,,,,,,0,,,67,76
71807,note_on,48,0,1,,,,,,,,0,,,67,0
71807,note_on,48,0,2,,,,,,,,0,,,50,0
71820,note_on,13,0,2,,,,,,,,0,,,47,80
71820,note_on,13,0,1,,,,,,,,0,,,71,76
71867,note_on,47,0,2,,,,,,,,0,,,47,0
71867,note_on,47,0,1,,,,,,,,0,,,71,0
71879,note_on,12,0,1,,,,,,,,0,,,74,76
71879,note_on,12,0,2,,,,,,,,0,,,43,80
71926,note_on,0,0,3,,,,,,,,0,,,62,0
71926,note_on,286,0,3,,,,,,,,0,,,74,0
71926,note_on,47,0,1,,,,,,,,0,,,74,0
71926,note_on,47,0,2,,,,,,,,0,,,43,0
71939,note_on,13,0,2,,,,,,,,0,,,38,80
71939,note_on,13,0,1,,,,,,,,0,,,79,76
71987,note_on,48,0,2,,,,,,,,0,,,38,0
71987,note_on,48,0,1,,,,,,,,0,,,79,0
72000,note_on,0,0,3,,,,,,,,0,,,98,80
72000,note_on,13,0,2,,,,,,,,0,,,43,80
72000,note_on,0,0,3,,,,,,,,0,,,95,80
72000,note_on,0,0,2,,,,,,,,0,,,31,80
72000,note_on,74,0,3,,,,,,,,0,,,86,80
72008,control_change,21,0,1,,,,,,,,0,64,0,,
72037,control_change,29,0,1,,,,,,,,0,64,127,,
72047,note_on,0,0,2,,,,,,,,0,,,43,0
72047,note_on,47,0,2,,,,,,,,0,,,31,0
72059,note_on,12,0,2,,,,,,,,0,,,35,80
72059,note_on,22,0,1,,,,,,,,0,,,91,76
72106,note_on,47,0,1,,,,,,,,0,,,91,0
72106,note_on,47,0,2,,,,,,,,0,,,35,0
72119,note_on,13,0,1,,,,,,,,0,,,86,76
72119,note_on,13,0,2,,,,,,,,0,,,38,80
72167,note_on,48,0,2,,,,,,,,0,,,38,0
72167,note_on,48,0,1,,,,,,,,0,,,86,0
72180,note_on,13,0,1,,,,,,,,0,,,83,76
72180,note_on,13,0,2,,,,,,,,0,,,43,80
72227,note_on,47,0,1,,,,,,,,0,,,83,0
72227,note_on,47,0,2,,,,,,,,0,,,43,0
72239,note_on,12,0,1,,,,,,,,0,,,79,76
72239,note_on,12,0,2,,,,,,,,0,,,47,80
72286,note_on,47,0,2,,,,,,,,0,,,47,0
72286,note_on,0,0,3,,,,,,,,0,,,86,0
72286,note_on,286,0,3,,,,,,,,0,,,95,0
72286,note_on,47,0,1,,,,,,,,0,,,79,0
72286,note_on,0,0,3,,,,,,,,0,,,98,0
72299,note_on,13,0,2,,,,,,,,0,,,50,80
72299,note_on,13,0,1,,,,,,,,0,,,74,76
72347,note_on,48,0,1,,,,,,,,0,,,74,0
72347,note_on,48,0,2,,,,,,,,0,,,50,0
72360,note_on,13,0,2,,,,,,,,0,,,55,80
72360,control_change,13,0,1,,,,,,,,0,64,0,,
72360,note_on,74,0,3,,,,,,,,0,,,59,80
72360,note_on,0,0,2,,,,,,,,0,,,43,80
72360,set_tempo,10771,1,0,,,,,,625000,,,,,,
72360,note_on,0,0,3,,,,,,,,0,,,71,80
72386,control_change,26,0,1,,,,,,,,0,64,127,,
72407,note_on,47,0,2,,,,,,,,0,,,43,0
72407,note_on,0,0,2,,,,,,,,0,,,55,0
72419,note_on,33,0,1,,,,,,,,0,,,62,76
72419,note_on,12,0,2,,,,,,,,0,,,50,80
72466,note_on,47,0,2,,,,,,,,0,,,50,0
72466,note_on,47,0,1,,,,,,,,0,,,62,0
72479,note_on,13,0,1,,,,,,,,0,,,67,76
72479,note_on,13,0,2,,,,,,,,0,,,47,80
72527,note_on,48,0,2,,,,,,,,0,,,47,0
72527,note_on,48,0,1,,,,,,,,0,,,67,0
72540,note_on,13,0,2,,,,,,,,0,,,43,80
72540,note_on,13,0,1,,,,,,,,0,,,71,76
72587,note_on,47,0,1,,,,,,,,0,,,71,0
72587,note_on,47,0,2,,,,,,,,0,,,43,0
72599,note_on,12,0,2,,,,,,,,0,,,38,80
72599,note_on,12,0,1,,,,,,,,0,,,74,76
72646,note_on,286,0,3,,,,,,,,0,,,71,0
72646,note_on,0,0,3,,,,,,,,0,,,59,0
72646,note_on,47,0,1,,,,,,,,0,,,74,0
72646,note_on,47,0,2,,,,,,,,0,,,38,0
72659,note_on,13,0,2,,,,,,,,0,,,35,80
72659,note_on,13,0,1,,,,,,,,0,,,79,76
72707,note_on,48,0,2,,,,,,,,0,,,35,0
72707,note_on,48,0,1,,,,,,,,0,,,79,0
72717,control_change,10,0,1,,,,,,,,0,64,0,,
72720,note_on,0,0,3,,,,,,,,0,,,95,80
72720,note_on,13,0,2,,,,,,,,0,,,43,80
72720,note_on,0,0,2,,,,,,,,0,,,31,80
72720,note_on,74,0,3,,,,,,,,0,,,83,80
72720,note_on,0,0,3,,,,,,,,0,,,91,80
72739,control_change,22,0,1,,,,,,,,0,64,127,,
72767,note_on,47,0,2,,,,,,,,0,,,31,0
72767,note_on,0,0,2,,,,,,,,0,,,43,0
72779,note_on,12,0,2,,,,,,,,0,,,35,80
72779,note_on,40,0,1,,,,,,,,0,,,86,76
72826,note_on,47,0,1,,,,,,,,0,,,86,0
72826,note_on,47,0,2,,,,,,,,0,,,35,0
72839,note_on,13,0,2,,,,,,,,0,,,38,80
72839,note_on,13,0,1,,,,,,,,0,,,83,76
72887,note_on,48,0,2,,,,,,,,0,,,38,0
72887,note_on,48,0,1,,,,,,,,0,,,83,0
72900,note_on,13,0,2,,,,,,,,0,,,43,80
72900,note_on,13,0,1,,,,,,,,0,,,79,76
72947,note_on,47,0,2,,,,,,,,0,,,43,0
72947,note_on,47,0,1,,,,,,,,0,,,79,0
72959,note_on,12,0,1,,,,,,,,0,,,74,76
72959,note_on,12,0,2,,,,,,,,0,,,47,80
73006,note_on,286,0,3,,,,,,,,0,,,91,0
73006,note_on,47,0,2,,,,,,,,0,,,47,0
73006,note_on,0,0,3,,,,,,,,0,,,95,0
73006,note_on,47,0,1,,,,,,,,0,,,74,0
73006,note_on,0,0,3,,,,,,,,0,,,83,0
73019,note_on,13,0,2,,,,,,,,0,,,50,80
73019,note_on,13,0,1,,,,,,,,0,,,71,76
73067,note_on,48,0,2,,,,,,,,0,,,50,0
73067,note_on,48,0,1,,,,,,,,0,,,71,0
73080,note_on,0,0,3,,,,,,,,0,,,65,80
73080,note_on,74,0,3,,,,,,,,0,,,77,80
73080,note_on,0,0,2,,,,,,,,0,,,50,80
73080,control_change,13,0,1,,,,,,,,0,64,0,,
73080,note_on,13,0,2,,,,,,,,0,,,62,80
73104,control_change,24,0,1,,,,,,,,0,64,127,,
73127,note_on,47,0,2,,,,,,,,0,,,50,0
73127,note_on,0,0,2,,,,,,,,0,,,62,0
73139,note_on,12,0,2,,,,,,,,0,,,59,80
73139,note_on,35,0,1,,,,,,,,0,,,71,76
73186,note_on,47,0,2,,,,,,,,0,,,59,0
73186,note_on,47,0,1,,,,,,,,0,,,71,0
73199,note_on,13,0,1,,,,,,,,0,,,74,76
73199,note_on,13,0,2,,,,,,,,0,,,56,80
73247,note_on,48,0,2,,,,,,,,0,,,56,0
73247,note_on,48,0,1,,,,,,,,0,,,74,0
73260,note_on,13,0,2,,,,,,,,0,,,50,80
73260,note_on,13,0,1,,,,,,,,0,,,77,76
73307,note_on,47,0,2,,,,,,,,0,,,50,0
73307,note_on,47,0,1,,,,,,,,0,,,77,0
73319,note_on,12,0,1,,,,,,,,0,,,83,76
73319,note_on,12,0,2,,,,,,,,0,,,47,80
73366,note_on,0,0,3,,,,,,,,0,,,77,0
73366,note_on,286,0,3,,,,,,,,0,,,65,0
73366,note_on,47,0,1,,,,,,,,0,,,83,0
73366,note_on,47,0,2,,,,,,,,0,,,47,0
73379,note_on,13,0,1,,,,,,,,0,,,86,76
73379,note_on,13,0,2,,,,,,,,0,,,44,80
73427,note_on,48,0,1,,,,,,,,0,,,86,0
73427,note_on,48,0,2,,,,,,,,0,,,44,0
73440,note_on,0,0,3,,,,,,,,0,,,89,80
73440,note_on,74,0,3,,,,,,,,0,,,98,80
73440,note_on,0,0,3,,,,,,,,0,,,101,80
73440,note_on,13,0,2,,,,,,,,0,,,44,80
73440,note_on,0,0,2,,,,,,,,0,,,32,80
73459,control_change,32,0,1,,,,,,,,0,64,0,,
73485,control_change,26,0,1,,,,,,,,0,64,127,,
73487,note_on,0,0,2,,,,,,,,0,,,44,0
73487,note_on,47,0,2,,,,,,,,0,,,32,0
73499,note_on,14,0,1,,,,,,,,0,,,95,76
73499,note_on,12,0,2,,,,,,,,0,,,35,80
73546,note_on,47,0,1,,,,,,,,0,,,95,0
73546,note_on,47,0,2,,,,,,,,0,,,35,0
73559,note_on,13,0,1,,,,,,,,0,,,89,76
73559,note_on,13,0,2,,,,,,,,0,,,38,80
73607,note_on,48,0,2,,,,,,,,0,,,38,0
73607,note_on,48,0,1,,,,,,,,0,,,89,0
73620,note_on,13,0,1,,,,,,,,0,,,86,76
73620,note_on,13,0,2,,,,,,,,0,,,44,80
73667,note_on,47,0,2,,,,,,,,0,,,44,0
73667,note_on,47,0,1,,,,,,,,0,,,86,0
73679,note_on,12,0,1,,,,,,,,0,,,83,76
73679,note_on,12,0,2,,,,,,,,0,,,47,80
73726,note_on,0,0,3,,,,,,,,0,,,101,0
73726,note_on,0,0,3,,,,,,,,0,,,98,0
73726,note_on,47,0,1,,,,,,,,0,,,83,0
73726,note_on,47,0,2,,,,,,,,0,,,47,0
73726,note_on,286,0,3,,,,,,,,0,,,89,0
73739,note_on,13,0,1,,,,,,,,0,,,77,76
73739,note_on,13,0,2,,,,,,,,0,,,50,80
73787,note_on,48,0,1,,,,,,,,0,,,77,0
73787,note_on,48,0,2,,,,,,,,0,,,50,0
73800,note_on,74,0,3,,,,,,,,0,,,76,80
73800,note_on,13,0,2,,,,,,,,0,,,60,80
73800,note_on,0,0,3,,,,,,,,0,,,64,80
73800,note_on,0,0,2,,,,,,,,0,,,48,80
73805,control_change,18,0,1,,,,,,,,0,64,0,,
73837,control_change,32,0,1,,,,,,,,0,64,127,,
73847,note_on,0,0,2,,,,,,,,0,,,60,0
73847,note_on,47,0,2,,,,,,,,0,,,48,0
73859,note_on,0,0,2,,,,,,,,0,,,52,80
73859,note_on,12,0,2,,,,,,,,0,,,57,80
73859,note_on,22,0,1,,,,,,,,0,,,69,76
73859,note_on,0,0,1,,,,,,,,0,,,72,76
73906,note_on,47,0,1,,,,,,,,0,,,72,0
73906,note_on,0,0,2,,,,,,,,0,,,57,0
73906,note_on,0,0,1,,,,,,,,0,,,69,0
73906,note_on,47,0,2,,,,,,,,0,,,52,0
73919,note_on,13,0,1,,,,,,,,0,,,76,76
73919,note_on,13,0,2,,,,,,,,0,,,48,80
73967,note_on,48,0,1,,,,,,,,0,,,76,0
73967,note_on,48,0,2,,,,,,,,0,,,48,0
73980,note_on,13,0,1,,,,,,,,0,,,76,76
73980,note_on,13,0,2,,,,,,,,0,,,48,80
74027,note_on,47,0,1,,,,,,,,0,,,76,0
74027,note_on,47,0,2,,,,,,,,0,,,48,0
74039,note_on,12,0,2,,,,,,,,0,,,45,80
74039,note_on,12,0,1,,,,,,,,0,,,81,76
74086,note_on,47,0,1,,,,,,,,0,,,81,0
74086,note_on,286,0,3,,,,,,,,0,,,64,0
74086,note_on,47,0,2,,,,,,,,0,,,45,0
74086,note_on,0,0,3,,,,,,,,0,,,76,0
74099,note_on,13,0,2,,,,,,,,0,,,40,80
74099,note_on,13,0,1,,,,,,,,0,,,88,76
74147,note_on,48,0,2,,,,,,,,0,,,40,0
74147,note_on,48,0,1,,,,,,,,0,,,88,0
74157,control_change,10,0,1,,,,,,,,0,64,0,,
74160,note_on,74,0,3,,,,,,,,0,,,72,81
74160,note_on,0,0,2,,,,,,,,0,,,45,80
74160,note_on,13,0,2,,,,,,,,0,,,57,80
74160,note_on,0,0,3,,,,,,,,0,,,60,81
74173,control_change,16,0,1,,,,,,,,0,64,127,,
74207,note_on,47,0,2,,,,,,,,0,,,45,0
74207,note_on,0,0,2,,,,,,,,0,,,57,0
74219,note_on,46,0,1,,,,,,,,0,,,69,76
74219,note_on,0,0,1,,,,,,,,0,,,64,76
74219,note_on,12,0,2,,,,,,,,0,,,48,80
74219,note_on,0,0,2,,,,,,,,0,,,52,80
74266,note_on,47,0,2,,,,,,,,0,,,52,0
74266,note_on,0,0,2,,,,,,,,0,,,48,0
74266,note_on,47,0,1,,,,,,,,0,,,64,0
74266,note_on,0,0,1,,,,,,,,0,,,69,0
74279,note_on,13,0,1,,,,,,,,0,,,72,76
74279,note_on,13,0,2,,,,,,,,0,,,45,80
74327,note_on,48,0,2,,,,,,,,0,,,45,0
74327,note_on,48,0,1,,,,,,,,0,,,72,0
74340,note_on,13,0,1,,,,,,,,0,,,72,76
74340,note_on,13,0,2,,,,,,,,0,,,45,80
74387,note_on,47,0,1,,,,,,,,0,,,72,0
74387,note_on,47,0,2,,,,,,,,0,,,45,0
74399,note_on,12,0,2,,,,,,,,0,,,40,80
74399,note_on,12,0,1,,,,,,,,0,,,76,76
74446,note_on,47,0,1,,,,,,,,0,,,76,0
74446,note_on,0,0,3,,,,,,,,0,,,72,0
74446,note_on,286,0,3,,,,,,,,0,,,60,0
74446,note_on,47,0,2,,,,,,,,0,,,40,0
74459,note_on,13,0,2,,,,,,,,0,,,33,80
74459,note_on,13,0,1,,,,,,,,0,,,84,76
74507,note_on,48,0,1,,,,,,,,0,,,84,0
74507,note_on,48,0,2,,,,,,,,0,,,33,0
74520,control_change,13,0,1,,,,,,,,0,64,0,,
74520,note_on,0,0,3,,,,,,,,0,,,59,84
74520,note_on,74,0,3,,,,,,,,0,,,71,84
74520,note_on,0,0,2,,,,,,,,0,,,38,80
74520,note_on,13,0,2,,,,,,,,0,,,50,80
74546,control_change,26,0,1,,,,,,,,0,64,127,,
74567,note_on,47,0,2,,,,,,,,0,,,38,0
74567,note_on,0,0,2,,,,,,,,0,,,50,0
74579,note_on,33,0,1,,,,,,,,0,,,62,76
74579,note_on,12,0,2,,,,,,,,0,,,43,80
74626,note_on,47,0,2,,,,,,,,0,,,43,0
74626,note_on,47,0,1,,,,,,,,0,,,62,0
74639,note_on,13,0,2,,,,,,,,0,,,47,80
74639,note_on,13,0,1,,,,,,,,0,,,67,76
74687,note_on,48,0,2,,,,,,,,0,,,47,0
74687,note_on,48,0,1,,,,,,,,0,,,67,0
74700,note_on,13,0,1,,,,,,,,0,,,71,76
74700,note_on,13,0,2,,,,,,,,0,,,50,80
74747,note_on,47,0,1,,,,,,,,0,,,71,0
74747,note_on,47,0,2,,,,,,,,0,,,50,0
74759,note_on,12,0,1,,,,,,,,0,,,74,76
74759,note_on,12,0,2,,,,,,,,0,,,55,80
74806,note_on,0,0,3,,,,,,,,0,,,71,0
74806,note_on,286,0,3,,,,,,,,0,,,59,0
74806,note_on,47,0,2,,,,,,,,0,,,55,0
74806,note_on,47,0,1,,,,,,,,0,,,74,0
74819,note_on,13,0,1,,,,,,,,0,,,79,76
74819,note_on,13,0,2,,,,,,,,0,,,59,80
74867,note_on,48,0,2,,,,,,,,0,,,59,0
74867,note_on,48,0,1,,,,,,,,0,,,79,0
74880,note_on,74,0,3,,,,,,,,0,,,91,80
74880,note_on,0,0,2,,,,,,,,0,,,50,80
74880,note_on,0,0,3,,,,,,,,0,,,95,80
74880,note_on,0,0,3,,,,,,,,0,,,83,80
74880,note_on,13,0,2,,,,,,,,0,,,62,80
74885,control_change,18,0,1,,,,,,,,0,64,0,,
74917,control_change,32,0,1,,,,,,,,0,64,127,,
74927,note_on,47,0,2,,,,,,,,0,,,50,0
74927,note_on,0,0,2,,,,,,,,0,,,62,0
74939,note_on,22,0,1,,,,,,,,0,,,86,76
74939,note_on,12,0,2,,,,,,,,0,,,59,80
74986,note_on,47,0,1,,,,,,,,0,,,86,0
74986,note_on,47,0,2,,,,,,,,0,,,59,0
74999,note_on,13,0,1,,,,,,,,0,,,83,76
74999,note_on,13,0,2,,,,,,,,0,,,55,80
75047,note_on,48,0,1,,,,,,,,0,,,83,0
75047,note_on,48,0,2,,,,,,,,0,,,55,0
75060,note_on,13,0,2,,,,,,,,0,,,50,80
75060,note_on,13,0,1,,,,,,,,0,,,79,76
75107,note_on,47,0,2,,,,,,,,0,,,50,0
75107,note_on,47,0,1,,,,,,,,0,,,79,0
75119,note_on,12,0,1,,,,,,,,0,,,74,76
75119,note_on,12,0,2,,,,,,,,0,,,47,80
75166,note_on,47,0,2,,,,,,,,0,,,47,0
75166,note_on,286,0,3,,,,,,,,0,,,95,0
75166,note_on,47,0,1,,,,,,,,0,,,74,0
75166,note_on,0,0,3,,,,,,,,0,,,83,0
75166,note_on,0,0,3,,,,,,,,0,,,91,0
75179,note_on,13,0,2,,,,,,,,0,,,43,80
75179,note_on,13,0,1,,,,,,,,0,,,71,76
75227,note_on,48,0,1,,,,,,,,0,,,71,0
75227,note_on,48,0,2,,,,,,,,0,,,43,0
75240,note_on,74,0,3,,,,,,,,0,,,71,88
75240,note_on,0,0,3,,,,,,,,0,,,59,88
75240,note_on,13,0,2,,,,,,,,0,,,50,80
75240,note_on,0,0,2,,,,,,,,0,,,38,80
75251,control_change,24,0,1,,,,,,,,0,64,0,,
75287,note_on,0,0,2,,,,,,,,0,,,50,0
75287,note_on,47,0,2,,,,,,,,0,,,38,0
75288,control_change,37,0,1,,,,,,,,0,64,127,,
75299,note_on,12,0,2,,,,,,,,0,,,42,80
75299,note_on,11,0,1,,,,,,,,0,,,62,76
75346,note_on,47,0,2,,,,,,,,0,,,42,0
75346,note_on,47,0,1,,,,,,,,0,,,62,0
75359,note_on,13,0,2,,,,,,,,0,,,48,80
75359,note_on,13,0,1,,,,,,,,0,,,66,76
75407,note_on,48,0,1,,,,,,,,0,,,66,0
75407,note_on,48,0,2,,,,,,,,0,,,48,0
75420,note_on,13,0,2,,,,,,,,0,,,50,80
75420,note_on,13,0,1,,,,,,,,0,,,71,76
75467,note_on,47,0,1,,,,,,,,0,,,71,0
75467,note_on,47,0,2,,,,,,,,0,,,50,0
75479,note_on,12,0,2,,,,,,,,0,,,54,80
75479,note_on,12,0,1,,,,,,,,0,,,74,76
75526,note_on,47,0,2,,,,,,,,0,,,54,0
75526,note_on,47,0,1,,,,,,,,0,,,74,0
75526,note_on,0,0,3,,,,,,,,0,,,71,0
75526,note_on,286,0,3,,,,,,,,0,,,59,0
75539,note_on,13,0,1,,,,,,,,0,,,78,76
75539,note_on,13,0,2,,,,,,,,0,,,60,80
75587,note_on,48,0,2,,,,,,,,0,,,60,0
75587,note_on,48,0,1,,,,,,,,0,,,78,0
75597,control_change,10,0,1,,,,,,,,0,64,0,,
75600,note_on,74,0,3,,,,,,,,0,,,90,80
75600,note_on,13,0,2,,,,,,,,0,,,62,80
75600,note_on,0,0,3,,,,,,,,0,,,95,80
75600,note_on,0,0,2,,,,,,,,0,,,50,80
75600,note_on,0,0,3,,,,,,,,0,,,83,80
75611,control_change,14,0,1,,,,,,,,0,64,127,,
75647,note_on,47,0,2,,,,,,,,0,,,50,0
75647,note_on,0,0,2,,,,,,,,0,,,62,0
75659,note_on,12,0,2,,,,,,,,0,,,60,80
75659,note_on,48,0,1,,,,,,,,0,,,86,76
75706,note_on,47,0,1,,,,,,,,0,,,86,0
75706,note_on,47,0,2,,,,,,,,0,,,60,0
75719,note_on,13,0,1,,,,,,,,0,,,83,76
75719,note_on,13,0,2,,,,,,,,0,,,54,80
75767,note_on,48,0,1,,,,,,,,0,,,83,0
75767,note_on,48,0,2,,,,,,,,0,,,54,0
75780,note_on,13,0,2,,,,,,,,0,,,50,80
75780,note_on,13,0,1,,,,,,,,0,,,78,76
75827,note_on,47,0,1,,,,,,,,0,,,78,0
75827,note_on,47,0,2,,,,,,,,0,,,50,0
75839,note_on,12,0,2,,,,,,,,0,,,48,80
75839,note_on,12,0,1,,,,,,,,0,,,74,76
75886,note_on,47,0,2,,,,,,,,0,,,48,0
75886,note_on,47,0,1,,,,,,,,0,,,74,0
75886,note_on,0,0,3,,,,,,,,0,,,83,0
75886,note_on,0,0,3,,,,,,,,0,,,90,0
75886,note_on,286,0,3,,,,,,,,0,,,95,0
75899,note_on,13,0,2,,,,,,,,0,,,42,80
75899,note_on,13,0,1,,,,,,,,0,,,71,76
75947,note_on,48,0,1,,,,,,,,0,,,71,0
75947,note_on,48,0,2,,,,,,,,0,,,42,0
75960,note_on,13,0,2,,,,,,,,0,,,50,80
75960,note_on,0,0,2,,,,,,,,0,,,38,80
75960,note_on,74,0,3,,,,,,,,0,,,57,92
75960,note_on,0,0,3,,,,,,,,0,,,69,92
75968,control_change,21,0,1,,,,,,,,0,64,0,,
75986,control_change,18,0,1,,,,,,,,0,64,127,,
76007,note_on,0,0,2,,,,,,,,0,,,50,0
76007,note_on,47,0,2,,,,,,,,0,,,38,0
76019,note_on,33,0,1,,,,,,,,0,,,62,76
76019,note_on,12,0,2,,,,,,,,0,,,42,80
76066,note_on,47,0,1,,,,,,,,0,,,62,0
76066,note_on,47,0,2,,,,,,,,0,,,42,0
76079,note_on,13,0,1,,,,,,,,0,,,66,76
76079,note_on,13,0,2,,,,,,,,0,,,48,80
76127,note_on,48,0,1,,,,,,,,0,,,66,0
76127,note_on,48,0,2,,,,,,,,0,,,48,0
76140,note_on,13,0,1,,,,,,,,0,,,69,76
76140,note_on,13,0,2,,,,,,,,0,,,50,80
76187,note_on,47,0,2,,,,,,,,0,,,50,0
76187,note_on,47,0,1,,,,,,,,0,,,69,0
76199,note_on,12,0,2,,,,,,,,0,,,54,80
76199,note_on,12,0,1,,,,,,,,0,,,74,76
76246,note_on,47,0,2,,,,,,,,0,,,54,0
76246,note_on,0,0,3,,,,,,,,0,,,57,0
76246,note_on,47,0,1,,,,,,,,0,,,74,0
76246,note_on,286,0,3,,,,,,,,0,,,69,0
76259,note_on,13,0,2,,,,,,,,0,,,60,80
76259,note_on,13,0,1,,,,,,,,0,,,78,76
76307,note_on,48,0,1,,,,,,,,0,,,78,0
76307,note_on,48,0,2,,,,,,,,0,,,60,0
76309,control_change,2,0,1,,,,,,,,0,64,0,,
76320,note_on,0,0,2,,,,,,,,0,,,50,80
76320,note_on,74,0,3,,,,,,,,0,,,81,80
76320,note_on,13,0,2,,,,,,,,0,,,62,80
76320,note_on,0,0,3,,,,,,,,0,,,90,80
76320,note_on,0,0,3,,,,,,,,0,,,93,80
76331,control_change,22,0,1,,,,,,,,0,64,127,,
76367,note_on,47,0,2,,,,,,,,0,,,50,0
76367,note_on,0,0,2,,,,,,,,0,,,62,0
76379,note_on,48,0,1,,,,,,,,0,,,86,76
76379,note_on,12,0,2,,,,,,,,0,,,60,80
76426,note_on,47,0,2,,,,,,,,0,,,60,0
76426,note_on,47,0,1,,,,,,,,0,,,86,0
76439,note_on,13,0,2,,,,,,,,0,,,54,80
76439,note_on,13,0,1,,,,,,,,0,,,81,76
76487,note_on,48,0,1,,,,,,,,0,,,81,0
76487,note_on,48,0,2,,,,,,,,0,,,54,0
76500,note_on,13,0,2,,,,,,,,0,,,50,80
76500,note_on,13,0,1,,,,,,,,0,,,78,76
76547,note_on,47,0,2,,,,,,,,0,,,50,0
76547,note_on,47,0,1,,,,,,,,0,,,78,0
76559,note_on,12,0,1,,,,,,,,0,,,74,76
76559,note_on,12,0,2,,,,,,,,0,,,48,80
76606,note_on,47,0,2,,,,,,,,0,,,48,0
76606,note_on,286,0,3,,,,,,,,0,,,90,0
76606,note_on,0,0,3,,,,,,,,0,,,81,0
76606,note_on,0,0,3,,,,,,,,0,,,93,0
76606,note_on,47,0,1,,,,,,,,0,,,74,0
76619,note_on,13,0,2,,,,,,,,0,,,42,80
76619,note_on,13,0,1,,,,,,,,0,,,69,76
76667,note_on,48,0,1,,,,,,,,0,,,69,0
76667,note_on,48,0,2,,,,,,,,0,,,42,0
76680,note_on,13,0,2,,,,,,,,0,,,43,80
76680,note_on,0,0,3,,,,,,,,0,,,55,96
76680,control_change,13,0,1,,,,,,,,0,64,0,,
76680,note_on,0,0,2,,,,,,,,0,,,31,80
76680,note_on,74,0,3,,,,,,,,0,,,67,96
76708,control_change,28,0,1,,,,,,,,0,64,127,,
76727,note_on,0,0,2,,,,,,,,0,,,43,0
76727,note_on,47,0,2,,,,,,,,0,,,31,0
76739,note_on,31,0,1,,,,,,,,0,,,59,76
76739,note_on,12,0,2,,,,,,,,0,,,35,80
76786,note_on,47,0,2,,,,,,,,0,,,35,0
76786,note_on,47,0,1,,,,,,,,0,,,59,0
76799,note_on,13,0,2,,,,,,,,0,,,38,80
76799,note_on,13,0,1,,,,,,,,0,,,62,76
76847,note_on,48,0,1,,,,,,,,0,,,62,0
76847,note_on,48,0,2,,,,,,,,0,,,38,0
76860,note_on,13,0,1,,,,,,,,0,,,67,76
76860,note_on,13,0,2,,,,,,,,0,,,43,80
76907,note_on,47,0,1,,,,,,,,0,,,67,0
76907,note_on,47,0,2,,,,,,,,0,,,43,0
76919,note_on,12,0,1,,,,,,,,0,,,71,76
76919,note_on,12,0,2,,,,,,,,0,,,47,80
76966,note_on,0,0,3,,,,,,,,0,,,67,0
76966,note_on,47,0,2,,,,,,,,0,,,47,0
76966,note_on,286,0,3,,,,,,,,0,,,55,0
76966,note_on,47,0,1,,,,,,,,0,,,71,0
76979,note_on,13,0,2,,,,,,,,0,,,50,80
76979,note_on,13,0,1,,,,,,,,0,,,74,76
77027,note_on,48,0,1,,,,,,,,0,,,74,0
77027,note_on,48,0,2,,,,,,,,0,,,50,0
77040,note_on,0,0,2,,,,,,,,0,,,43,80
77040,note_on,74,0,3,,,,,,,,0,,,83,80
77040,note_on,0,0,3,,,,,,,,0,,,91,80
77040,note_on,13,0,2,,,,,,,,0,,,55,80
77040,note_on,0,0,3,,,,,,,,0,,,79,80
77087,note_on,0,0,2,,,,,,,,0,,,55,0
77087,note_on,47,0,2,,,,,,,,0,,,43,0
77099,note_on,72,0,1,,,,,,,,0,,,86,76
77099,note_on,12,0,2,,,,,,,,0,,,47,80
77146,note_on,47,0,1,,,,,,,,0,,,86,0
77146,note_on,47,0,2,,,,,,,,0,,,47,0
77159,note_on,13,0,1,,,,,,,,0,,,83,76
77159,note_on,13,0,2,,,,,,,,0,,,50,80
77207,note_on,48,0,1,,,,,,,,0,,,83,0
77207,note_on,48,0,2,,,,,,,,0,,,50,0
77220,note_on,13,0,1,,,,,,,,0,,,79,76
77220,note_on,13,0,2,,,,,,,,0,,,55,80
77267,note_on,47,0,1,,,,,,,,0,,,79,0
77267,note_on,47,0,2,,,,,,,,0,,,55,0
77279,note_on,12,0,1,,,,,,,,0,,,74,76
77279,note_on,12,0,2,,,,,,,,0,,,59,80
77326,note_on,0,0,3,,,,,,,,0,,,79,0
77326,note_on,47,0,1,,,,,,,,0,,,74,0
77326,note_on,47,0,2,,,,,,,,0,,,59,0
77326,note_on,286,0,3,,,,,,,,0,,,91,0
77326,note_on,0,0,3,,,,,,,,0,,,83,0
77339,note_on,13,0,2,,,,,,,,0,,,62,80
77339,note_on,13,0,1,,,,,,,,0,,,71,80
77387,note_on,48,0,2,,,,,,,,0,,,62,0
77387,note_on,48,0,1,,,,,,,,0,,,71,0
77400,note_on,0,0,2,,,,,,,,0,,,62,80
77400,note_on,13,0,2,,,,,,,,0,,,67,80
77400,note_on,0,0,2,,,,,,,,0,,,55,80
77400,note_on,0,0,2,,,,,,,,0,,,59,80
77428,control_change,41,0,1,,,,,,,,0,64,0,,
77686,note_on,0,0,2,,,,,,,,0,,,55,0
77686,note_on,0,0,2,,,,,,,,0,,,62,0
77686,note_on,286,0,2,,,,,,,,0,,,59,0
77686,note_on,0,0,2,,,,,,,,0,,,67,0
77760,note_on,0,0,1,,,,,,,,0,,,67,88
77760,note_on,332,0,1,,,,,,,,0,,,55,88
77975,note_on,0,0,1,,,,,,,,0,,,55,0
77975,note_on,215,0,1,,,,,,,,0,,,67,0
78030,note_on,55,0,1,,,,,,,,0,,,55,88
78030,note_on,0,0,1,,,,,,,,0,,,67,88
78101,note_on,0,0,1,,,,,,,,0,,,55,0
78101,note_on,71,0,1,,,,,,,,0,,,67,0
78120,note_on,19,0,1,,,,,,,,0,,,55,88
78120,note_on,0,0,1,,,,,,,,0,,,67,88
78406,note_on,0,0,1,,,,,,,,0,,,55,0
78406,note_on,286,0,1,,,,,,,,0,,,67,0
78480,note_on,0,0,1,,,,,,,,0,,,55,88
78480,note_on,74,0,1,,,,,,,,0,,,67,88
78766,note_on,286,0,1,,,,,,,,0,,,55,0
78766,note_on,0,0,1,,,,,,,,0,,,67,0
78840,note_on,0,0,1,,,,,,,,0,,,67,88
78840,note_on,0,0,2,,,,,,,,0,,,43,48
78840,note_on,74,0,1,,,,,,,,0,,,55,88
78840,note_on,1154,0,2,,,,,,,,0,,,46,48
78840,control_change,0,0,1,,,,,,,,0,64,127,,
78840,note_on,0,0,2,,,,,,,,0,,,39,80
78887,note_on,0,0,1,,,,,,,,0,,,55,0
78887,note_on,47,0,1,,,,,,,,0,,,67,0
78899,note_on,59,0,2,,,,,,,,0,,,51,80
78899,note_on,12,0,1,,,,,,,,0,,,58,80
78946,note_on,47,0,1,,,,,,,,0,,,58,0
78959,note_on,0,0,2,,,,,,,,0,,,39,0
78959,note_on,60,0,2,,,,,,,,0,,,43,0
78959,note_on,13,0,1,,,,,,,,0,,,63,80
78959,note_on,0,0,2,,,,,,,,0,,,46,48
78959,note_on,0,0,1,,,,,,,,0,,,67,80
78959,note_on,0,0,2,,,,,,,,0,,,46,0
78959,note_on,0,0,2,,,,,,,,0,,,43,48
78959,note_on,0,0,2,,,,,,,,0,,,39,80
79007,note_on,0,0,1,,,,,,,,0,,,63,0
79007,note_on,48,0,1,,,,,,,,0,,,67,0
79020,note_on,13,0,1,,,,,,,,0,,,67,80
79020,note_on,0,0,2,,,,,,,,0,,,51,80
79020,note_on,61,0,2,,,,,,,,0,,,51,0
79020,note_on,0,0,1,,,,,,,,0,,,70,80
79067,note_on,0,0,1,,,,,,,,0,,,67,0
79067,note_on,47,0,1,,,,,,,,0,,,70,0
79079,note_on,0,0,2,,,,,,,,0,,,46,48
79079,note_on,0,0,2,,,,,,,,0,,,43,48
79079,note_on,0,0,2,,,,,,,,0,,,43,0
79079,note_on,0,0,2,,,,,,,,0,,,39,80
79079,note_on,0,0,2,,,,,,,,0,,,46,0
79079,note_on,12,0,1,,,,,,,,0,,,79,80
79079,note_on,59,0,2,,,,,,,,0,,,39,0
79079,note_on,0,0,1,,,,,,,,0,,,75,80
79126,note_on,0,0,1,,,,,,,,0,,,79,0
79126,note_on,47,0,1,,,,,,,,0,,,75,0
79139,note_on,0,0,1,,,,,,,,0,,,82,80
79139,note_on,60,0,2,,,,,,,,0,,,51,0
79139,note_on,0,0,2,,,,,,,,0,,,51,80
79139,note_on,13,0,1,,,,,,,,0,,,79,80
79187,note_on,48,0,1,,,,,,,,0,,,82,0
79187,note_on,0,0,1,,,,,,,,0,,,79,0
79200,note_on,61,0,2,,,,,,,,0,,,39,0
79200,note_on,0,0,2,,,,,,,,0,,,46,48
79200,note_on,0,0,2,,,,,,,,0,,,39,80
79200,note_on,0,0,2,,,,,,,,0,,,43,48
79200,note_on,0,0,1,,,,,,,,0,,,87,80
79200,note_on,0,0,2,,,,,,,,0,,,43,0
79200,note_on,13,0,1,,,,,,,,0,,,91,80
79200,note_on,0,0,2,,,,,,,,0,,,46,0
79247,note_on,47,0,1,,,,,,,,0,,,87,0
79247,note_on,0,0,1,,,,,,,,0,,,91,0
79259,note_on,0,0,1,,,,,,,,0,,,79,80
79259,note_on,0,0,2,,,,,,,,0,,,51,80
79259,note_on,12,0,1,,,,,,,,0,,,82,80
79259,note_on,59,0,2,,,,,,,,0,,,51,0
79306,note_on,0,0,1,,,,,,,,0,,,82,0
79306,note_on,47,0,1,,,,,,,,0,,,79,0
79319,note_on,13,0,1,,,,,,,,0,,,87,80
79319,note_on,0,0,2,,,,,,,,0,,,46,48
79319,note_on,0,0,1,,,,,,,,0,,,91,80
79319,note_on,60,0,2,,,,,,,,0,,,39,0
79319,note_on,0,0,2,,,,,,,,0,,,43,48
79319,note_on,0,0,2,,,,,,,,0,,,39,80
79319,note_on,0,0,2,,,,,,,,0,,,43,0
79319,note_on,0,0,2,,,,,,,,0,,,46,0
79367,note_on,0,0,1,,,,,,,,0,,,87,0
79367,note_on,48,0,1,,,,,,,,0,,,91,0
79380,note_on,0,0,2,,,,,,,,0,,,51,80
79380,note_on,61,0,2,,,,,,,,0,,,51,0
79439,note_on,0,0,2,,,,,,,,0,,,46,0
79439,note_on,0,0,2,,,,,,,,0,,,43,48
79439,note_on,0,0,2,,,,,,,,0,,,43,0
79439,note_on,0,0,2,,,,,,,,0,,,46,48
79439,note_on,59,0,2,,,,,,,,0,,,39,0
79439,note_on,0,0,2,,,,,,,,0,,,39,80
79499,note_on,60,0,2,,,,,,,,0,,,51,0
79499,note_on,0,0,2,,,,,,,,0,,,51,80
79560,control_change,0,0,1,,,,,,,,0,64,0,,
79560,note_on,0,0,2,,,,,,,,0,,,46,0
79560,note_on,0,0,2,,,,,,,,0,,,43,48
79560,note_on,0,0,2,,,,,,,,0,,,43,0
79560,note_on,0,0,2,,,,,,,,0,,,39,0
79560,note_on,0,0,2,,,,,,,,0,,,39,48
79560,note_on,193,0,1,,,,,,,,0,,,55,88
79560,note_on,61,0,2,,,,,,,,0,,,51,0
79560,note_on,0,0,1,,,,,,,,0,,,67,88
79560,note_on,0,0,2,,,,,,,,0,,,36,80
79573,control_change,13,0,1,,,,,,,,0,64,127,,
79607,note_on,34,0,1,,,,,,,,0,,,67,0
79607,note_on,0,0,1,,,,,,,,0,,,55,0
79619,note_on,59,0,2,,,,,,,,0,,,48,80
79619,note_on,12,0,1,,,,,,,,0,,,60,80
79666,note_on,47,0,1,,,,,,,,0,,,60,0
79679,note_on,0,0,2,,,,,,,,0,,,39,48
79679,note_on,0,0,2,,,,,,,,0,,,36,0
79679,note_on,0,0,2,,,,,,,,0,,,43,48
79679,note_on,0,0,2,,,,,,,,0,,,39,0
79679,note_on,0,0,2,,,,,,,,0,,,36,80
79679,note_on,13,0,1,,,,,,,,0,,,67,80
79679,note_on,0,0,1,,,,,,,,0,,,63,80
79679,note_on,60,0,2,,,,,,,,0,,,43,0
79727,note_on,0,0,1,,,,,,,,0,,,67,0
79727,note_on,48,0,1,,,,,,,,0,,,63,0
79740,note_on,0,0,1,,,,,,,,0,,,67,80
79740,note_on,61,0,2,,,,,,,,0,,,48,0
79740,note_on,0,0,2,,,,,,,,0,,,48,80
79740,note_on,13,0,1,,,,,,,,0,,,72,80
79787,note_on,47,0,1,,,,,,,,0,,,67,0
79787,note_on,0,0,1,,,,,,,,0,,,72,0
79799,note_on,0,0,2,,,,,,,,0,,,39,0
79799,note_on,59,0,2,,,,,,,,0,,,36,0
79799,note_on,0,0,1,,,,,,,,0,,,75,80
79799,note_on,12,0,1,,,,,,,,0,,,79,80
79799,note_on,0,0,2,,,,,,,,0,,,43,48
79799,note_on,0,0,2,,,,,,,,0,,,43,0
79799,note_on,0,0,2,,,,,,,,0,,,39,48
79799,note_on,0,0,2,,,,,,,,0,,,36,80
79846,note_on,47,0,1,,,,,,,,0,,,75,0
79846,note_on,0,0,1,,,,,,,,0,,,79,0
79859,note_on,13,0,1,,,,,,,,0,,,79,80
79859,note_on,60,0,2,,,,,,,,0,,,48,0
79859,note_on,0,0,2,,,,,,,,0,,,48,80
79859,note_on,0,0,1,,,,,,,,0,,,84,80
79907,note_on,48,0,1,,,,,,,,0,,,84,0
79907,note_on,0,0,1,,,,,,,,0,,,79,0
79920,note_on,13,0,1,,,,,,,,0,,,91,80
79920,note_on,61,0,2,,,,,,,,0,,,36,0
79920,note_on,0,0,2,,,,,,,,0,,,36,80
79920,note_on,0,0,2,,,,,,,,0,,,39,48
79920,note_on,0,0,2,,,,,,,,0,,,39,0
79920,note_on,0,0,1,,,,,,,,0,,,87,80
79920,note_on,0,0,2,,,,,,,,0,,,43,48
79920,note_on,0,0,2,,,,,,,,0,,,43,0
79967,note_on,47,0,1,,,,,,,,0,,,87,0
79967,note_on,0,0,1,,,,,,,,0,,,91,0
79979,note_on,12,0,1,,,,,,,,0,,,84,80
79979,note_on,59,0,2,,,,,,,,0,,,48,0
79979,note_on,0,0,2,,,,,,,,0,,,48,80
79979,note_on,0,0,1,,,,,,,,0,,,79,80
80026,note_on,47,0,1,,,,,,,,0,,,79,0
80026,note_on,0,0,1,,,,,,,,0,,,84,0
80039,note_on,0,0,1,,,,,,,,0,,,87,80
80039,note_on,0,0,2,,,,,,,,0,,,39,0
80039,note_on,13,0,1,,,,,,,,0,,,91,80
80039,note_on,0,0,2,,,,,,,,0,,,36,0
80039,note_on,0,0,2,,,,,,,,0,,,39,48
80039,note_on,0,0,2,,,,,,,,0,,,43,48
80039,note_on,0,0,2,,,,,,,,0,,,36,80
80039,note_on,60,0,2,,,,,,,,0,,,43,0
80087,note_on,0,0,1,,,,,,,,0,,,91,0
80087,note_on,48,0,1,,,,,,,,0,,,87,0
80100,note_on,0,0,2,,,,,,,,0,,,48,80
80100,note_on,61,0,2,,,,,,,,0,,,48,0
80159,note_on,0,0,2,,,,,,,,0,,,36,0
80159,note_on,0,0,2,,,,,,,,0,,,36,80
80159,note_on,0,0,2,,,,,,,,0,,,39,0
80159,note_on,0,0,2,,,,,,,,0,,,39,48
80159,note_on,0,0,2,,,,,,,,0,,,43,48
80159,note_on,59,0,2,,,,,,,,0,,,43,0
80219,note_on,0,0,2,,,,,,,,0,,,48,80
80219,note_on,60,0,2,,,,,,,,0,,,48,0
80272,control_change,185,0,1,,,,,,,,0,64,0,,
80280,note_on,0,0,2,,,,,,,,0,,,36,48
80280,note_on,0,0,2,,,,,,,,0,,,39,0
80280,note_on,8,0,1,,,,,,,,0,,,68,88
80280,note_on,0,0,1,,,,,,,,0,,,56,88
80280,note_on,0,0,2,,,,,,,,0,,,43,0
80280,note_on,61,0,2,,,,,,,,0,,,48,0
80280,note_on,0,0,2,,,,,,,,0,,,32,80
80280,note_on,0,0,2,,,,,,,,0,,,36,0
80280,note_on,0,0,2,,,,,,,,0,,,39,48
80291,control_change,11,0,1,,,,,,,,0,64,127,,
80327,note_on,36,0,1,,,,,,,,0,,,56,0
80327,note_on,0,0,1,,,,,,,,0,,,68,0
80339,note_on,59,0,2,,,,,,,,0,,,44,80
80339,note_on,12,0,1,,,,,,,,0,,,60,80
80386,note_on,47,0,1,,,,,,,,0,,,60,0
80399,note_on,0,0,2,,,,,,,,0,,,32,0
80399,note_on,0,0,2,,,,,,,,0,,,32,80
80399,note_on,0,0,2,,,,,,,,0,,,39,48
80399,note_on,13,0,1,,,,,,,,0,,,68,80
80399,note_on,0,0,2,,,,,,,,0,,,36,48
80399,note_on,0,0,2,,,,,,,,0,,,39,0
80399,note_on,0,0,1,,,,,,,,0,,,63,80
80399,note_on,60,0,2,,,,,,,,0,,,36,0
80447,note_on,48,0,1,,,,,,,,0,,,63,0
80447,note_on,0,0,1,,,,,,,,0,,,68,0
80460,note_on,0,0,1,,,,,,,,0,,,68,80
80460,note_on,13,0,1,,,,,,,,0,,,72,80
80460,note_on,0,0,2,,,,,,,,0,,,44,80
80460,note_on,61,0,2,,,,,,,,0,,,44,0
80507,note_on,47,0,1,,,,,,,,0,,,68,0
80507,note_on,0,0,1,,,,,,,,0,,,72,0
80519,note_on,0,0,1,,,,,,,,0,,,80,80
80519,note_on,0,0,2,,,,,,,,0,,,36,48
80519,note_on,0,0,2,,,,,,,,0,,,36,0
80519,note_on,0,0,2,,,,,,,,0,,,32,80
80519,note_on,0,0,2,,,,,,,,0,,,32,0
80519,note_on,0,0,2,,,,,,,,0,,,39,48
80519,note_on,12,0,1,,,,,,,,0,,,75,80
80519,note_on,59,0,2,,,,,,,,0,,,39,0
80566,note_on,47,0,1,,,,,,,,0,,,80,0
80566,note_on,0,0,1,,,,,,,,0,,,75,0
80579,note_on,60,0,2,,,,,,,,0,,,44,0
80579,note_on,0,0,1,,,,,,,,0,,,84,80
80579,note_on,13,0,1,,,,,,,,0,,,80,80
80579,note_on,0,0,2,,,,,,,,0,,,44,80
80627,note_on,0,0,1,,,,,,,,0,,,80,0
80627,note_on,48,0,1,,,,,,,,0,,,84,0
80640,note_on,0,0,2,,,,,,,,0,,,32,80
80640,note_on,0,0,2,,,,,,,,0,,,36,0
80640,note_on,0,0,2,,,,,,,,0,,,32,0
80640,note_on,13,0,1,,,,,,,,0,,,92,80
80640,note_on,61,0,2,,,,,,,,0,,,39,0
80640,note_on,0,0,1,,,,,,,,0,,,87,80
80640,note_on,0,0,2,,,,,,,,0,,,36,48
80640,note_on,0,0,2,,,,,,,,0,,,39,48
80687,note_on,0,0,1,,,,,,,,0,,,92,0
80687,note_on,47,0,1,,,,,,,,0,,,87,0
80699,note_on,0,0,1,,,,,,,,0,,,80,80
80699,note_on,59,0,2,,,,,,,,0,,,44,0
80699,note_on,12,0,1,,,,,,,,0,,,84,80
80699,note_on,0,0,2,,,,,,,,0,,,44,80
80746,note_on,47,0,1,,,,,,,,0,,,80,0
80746,note_on,0,0,1,,,,,,,,0,,,84,0
80759,note_on,0,0,2,,,,,,,,0,,,36,48
80759,note_on,60,0,2,,,,,,,,0,,,39,0
80759,note_on,0,0,2,,,,,,,,0,,,39,48
80759,note_on,0,0,2,,,,,,,,0,,,32,0
80759,note_on,13,0,1,,,,,,,,0,,,87,80
80759,note_on,0,0,2,,,,,,,,0,,,32,80
80759,note_on,0,0,1,,,,,,,,0,,,92,80
80759,note_on,0,0,2,,,,,,,,0,,,36,0
80807,note_on,0,0,1,,,,,,,,0,,,87,0
80807,note_on,48,0,1,,,,,,,,0,,,92,0
80820,note_on,61,0,2,,,,,,,,0,,,44,0
80820,note_on,0,0,2,,,,,,,,0,,,44,80
80879,note_on,0,0,2,,,,,,,,0,,,39,48
80879,note_on,0,0,2,,,,,,,,0,,,36,48
80879,note_on,0,0,2,,,,,,,,0,,,32,0
80879,note_on,0,0,2,,,,,,,,0,,,32,80
80879,note_on,59,0,2,,,,,,,,0,,,39,0
80879,note_on,0,0,2,,,,,,,,0,,,36,0
80939,note_on,0,0,2,,,,,,,,0,,,44,80
80939,note_on,60,0,2,,,,,,,,0,,,44,0
81000,control_change,0,0,1,,,,,,,,0,64,0,,
81000,note_on,61,0,2,,,,,,,,0,,,44,0
81000,note_on,0,0,1,,,,,,,,0,,,58,88
81000,note_on,0,0,2,,,,,,,,0,,,31,48
81000,note_on,0,0,2,,,,,,,,0,,,32,0
81000,note_on,193,0,1,,,,,,,,0,,,70,88
81000,note_on,0,0,2,,,,,,,,0,,,27,80
81000,note_on,0,0,2,,,,,,,,0,,,36,0
81000,note_on,0,0,2,,,,,,,,0,,,34,48
81000,note_on,0,0,2,,,,,,,,0,,,39,0
81019,control_change,19,0,1,,,,,,,,0,64,127,,
81047,note_on,0,0,1,,,,,,,,0,,,70,0
81047,note_on,28,0,1,,,,,,,,0,,,58,0
81059,note_on,59,0,2,,,,,,,,0,,,39,80
81059,note_on,12,0,1,,,,,,,,0,,,63,80
81106,note_on,47,0,1,,,,,,,,0,,,63,0
81119,note_on,60,0,2,,,,,,,,0,,,34,0
81119,note_on,0,0,1,,,,,,,,0,,,70,80
81119,note_on,0,0,2,,,,,,,,0,,,31,0
81119,note_on,13,0,1,,,,,,,,0,,,67,80
81119,note_on,0,0,2,,,,,,,,0,,,27,0
81119,note_on,0,0,2,,,,,,,,0,,,27,80
81119,note_on,0,0,2,,,,,,,,0,,,31,48
81119,note_on,0,0,2,,,,,,,,0,,,34,48
81167,note_on,48,0,1,,,,,,,,0,,,70,0
81167,note_on,0,0,1,,,,,,,,0,,,67,0
81180,note_on,61,0,2,,,,,,,,0,,,39,0
81180,note_on,13,0,1,,,,,,,,0,,,75,80
81180,note_on,0,0,1,,,,,,,,0,,,70,80
81180,note_on,0,0,2,,,,,,,,0,,,39,80
81227,note_on,0,0,1,,,,,,,,0,,,75,0
81227,note_on,47,0,1,,,,,,,,0,,,70,0
81239,note_on,0,0,2,,,,,,,,0,,,27,80
81239,note_on,0,0,2,,,,,,,,0,,,31,0
81239,note_on,0,0,2,,,,,,,,0,,,34,48
81239,note_on,59,0,2,,,,,,,,0,,,27,0
81239,note_on,0,0,2,,,,,,,,0,,,31,48
81239,note_on,12,0,1,,,,,,,,0,,,79,80
81239,note_on,0,0,2,,,,,,,,0,,,34,0
81239,note_on,0,0,1,,,,,,,,0,,,82,80
81286,note_on,0,0,1,,,,,,,,0,,,79,0
81286,note_on,47,0,1,,,,,,,,0,,,82,0
81299,note_on,0,0,1,,,,,,,,0,,,82,80
81299,note_on,0,0,2,,,,,,,,0,,,39,80
81299,note_on,60,0,2,,,,,,,,0,,,39,0
81299,note_on,13,0,1,,,,,,,,0,,,87,80
81347,note_on,48,0,1,,,,,,,,0,,,82,0
81347,note_on,0,0,1,,,,,,,,0,,,87,0
81360,note_on,0,0,2,,,,,,,,0,,,27,80
81360,note_on,13,0,1,,,,,,,,0,,,94,80
81360,note_on,0,0,1,,,,,,,,0,,,91,80
81360,note_on,0,0,2,,,,,,,,0,,,31,48
81360,note_on,0,0,2,,,,,,,,0,,,34,0
81360,note_on,0,0,2,,,,,,,,0,,,34,48
81360,note_on,61,0,2,,,,,,,,0,,,27,0
81360,note_on,0,0,2,,,,,,,,0,,,31,0
81407,note_on,0,0,1,,,,,,,,0,,,94,0
81407,note_on,47,0,1,,,,,,,,0,,,91,0
81419,note_on,59,0,2,,,,,,,,0,,,39,0
81419,note_on,0,0,1,,,,,,,,0,,,82,80
81419,note_on,12,0,1,,,,,,,,0,,,87,80
81419,note_on,0,0,2,,,,,,,,0,,,39,80
81466,note_on,0,0,1,,,,,,,,0,,,87,0
81466,note_on,47,0,1,,,,,,,,0,,,82,0
81479,note_on,0,0,2,,,,,,,,0,,,34,48
81479,note_on,0,0,2,,,,,,,,0,,,34,0
81479,note_on,60,0,2,,,,,,,,0,,,27,0
81479,note_on,13,0,1,,,,,,,,0,,,91,80
81479,note_on,0,0,2,,,,,,,,0,,,31,0
81479,note_on,0,0,1,,,,,,,,0,,,94,80
81479,note_on,0,0,2,,,,,,,,0,,,31,48
81479,note_on,0,0,2,,,,,,,,0,,,27,80
81527,note_on,48,0,1,,,,,,,,0,,,94,0
81527,note_on,0,0,1,,,,,,,,0,,,91,0
81540,note_on,61,0,2,,,,,,,,0,,,39,0
81540,note_on,0,0,1,,,,,,,,0,,,87,80
81540,note_on,0,0,2,,,,,,,,0,,,39,80
81540,note_on,13,0,1,,,,,,,,0,,,82,80
81587,note_on,47,0,1,,,,,,,,0,,,87,0
81587,note_on,0,0,1,,,,,,,,0,,,82,0
81599,note_on,59,0,2,,,,,,,,0,,,27,0
81599,note_on,0,0,2,,,,,,,,0,,,31,48
81599,note_on,0,0,1,,,,,,,,0,,,91,80
81599,note_on,0,0,2,,,,,,,,0,,,27,80
81599,note_on,0,0,2,,,,,,,,0,,,31,0
81599,note_on,0,0,2,,,,,,,,0,,,34,0
81599,note_on,0,0,2,,,,,,,,0,,,34,48
81599,note_on,12,0,1,,,,,,,,0,,,94,80
81646,note_on,47,0,1,,,,,,,,0,,,91,0
81646,note_on,0,0,1,,,,,,,,0,,,94,0
81659,note_on,60,0,2,,,,,,,,0,,,39,0
81659,note_on,0,0,1,,,,,,,,0,,,82,80
81659,note_on,13,0,1,,,,,,,,0,,,87,80
81659,note_on,0,0,2,,,,,,,,0,,,39,80
81707,note_on,0,0,1,,,,,,,,0,,,87,0
81707,note_on,48,0,1,,,,,,,,0,,,82,0
81720,note_on,0,0,2,,,,,,,,0,,,27,0
81720,note_on,0,0,2,,,,,,,,0,,,27,80
81720,note_on,0,0,2,,,,,,,,0,,,31,0
81720,note_on,0,0,2,,,,,,,,0,,,31,80
81720,note_on,0,0,2,,,,,,,,0,,,34,80
81720,note_on,0,0,2,,,,,,,,0,,,39,80
81720,note_on,13,0,1,,,,,,,,0,,,91,80
81720,note_on,61,0,2,,,,,,,,0,,,39,0
81720,note_on,0,0,1,,,,,,,,0,,,94,80
81720,note_on,0,0,2,,,,,,,,0,,,34,0
81741,control_change,21,0,1,,,,,,,,0,64,0,,
82006,note_on,0,0,1,,,,,,,,0,,,91,0
82006,note_on,265,0,1,,,,,,,,0,,,94,0
82080,note_on,360,0,2,,,,,,,,0,,,34,0
82080,note_on,0,0,1,,,,,,,,0,,,58,80
82080,note_on,74,0,1,,,,,,,,0,,,70,80
82080,note_on,0,0,2,,,,,,,,0,,,31,0
82080,note_on,0,0,2,,,,,,,,0,,,39,0
82080,note_on,0,0,2,,,,,,,,0,,,27,0
82295,note_on,215,0,1,,,,,,,,0,,,58,0
82295,note_on,0,0,1,,,,,,,,0,,,70,0
82350,note_on,0,0,1,,,,,,,,0,,,58,80
82350,note_on,55,0,1,,,,,,,,0,,,70,80
82421,note_on,71,0,1,,,,,,,,0,,,58,0
82421,note_on,0,0,1,,,,,,,,0,,,70,0
82440,note_on,19,0,1,,,,,,,,0,,,58,80
82440,note_on,0,0,1,,,,,,,,0,,,70,80
82726,note_on,0,0,1,,,,,,,,0,,,58,0
82726,note_on,286,0,1,,,,,,,,0,,,70,0
82800,note_on,74,0,1,,,,,,,,0,,,58,80
82800,note_on,0,0,1,,,,,,,,0,,,70,80
83086,note_on,0,0,1,,,,,,,,0,,,58,0
83086,note_on,286,0,1,,,,,,,,0,,,70,0
83160,note_on,1080,0,2,,,,,,,,0,,,42,80
83160,note_on,0,0,1,,,,,,,,0,,,70,88
83160,note_on,0,0,2,,,,,,,,0,,,46,48
83160,note_on,0,0,2,,,,,,,,0,,,49,48
83160,note_on,74,0,1,,,,,,,,0,,,58,88
83160,control_change,0,0,1,,,,,,,,0,64,127,,
83207,note_on,47,0,1,,,,,,,,0,,,70,0
83207,note_on,0,0,1,,,,,,,,0,,,58,0
83219,note_on,12,0,1,,,,,,,,0,,,61,80
83219,note_on,59,0,2,,,,,,,,0,,,54,80
83266,note_on,47,0,1,,,,,,,,0,,,61,0
83279,note_on,0,0,2,,,,,,,,0,,,42,0
83279,note_on,0,0,2,,,,,,,,0,,,49,48
83279,note_on,0,0,2,,,,,,,,0,,,42,80
83279,note_on,0,0,2,,,,,,,,0,,,46,0
83279,note_on,0,0,2,,,,,,,,0,,,46,48
83279,note_on,60,0,2,,,,,,,,0,,,49,0
83279,note_on,0,0,1,,,,,,,,0,,,66,80
83279,note_on,13,0,1,,,,,,,,0,,,70,80
83327,note_on,48,0,1,,,,,,,,0,,,66,0
83327,note_on,0,0,1,,,,,,,,0,,,70,0
83340,note_on,61,0,2,,,,,,,,0,,,54,0
83340,note_on,0,0,2,,,,,,,,0,,,54,80
83340,note_on,0,0,1,,,,,,,,0,,,70,80
83340,note_on,13,0,1,,,,,,,,0,,,73,80
83387,note_on,0,0,1,,,,,,,,0,,,73,0
83387,note_on,47,0,1,,,,,,,,0,,,70,0
83399,note_on,12,0,1,,,,,,,,0,,,82,80
83399,note_on,0,0,1,,,,,,,,0,,,78,80
83399,note_on,0,0,2,,,,,,,,0,,,42,80
83399,note_on,0,0,2,,,,,,,,0,,,49,48
83399,note_on,0,0,2,,,,,,,,0,,,49,0
83399,note_on,0,0,2,,,,,,,,0,,,46,0
83399,note_on,59,0,2,,,,,,,,0,,,42,0
83399,note_on,0,0,2,,,,,,,,0,,,46,48
83446,note_on,47,0,1,,,,,,,,0,,,78,0
83446,note_on,0,0,1,,,,,,,,0,,,82,0
83459,note_on,0,0,2,,,,,,,,0,,,54,80
83459,note_on,0,0,1,,,,,,,,0,,,82,80
83459,note_on,60,0,2,,,,,,,,0,,,54,0
83459,note_on,13,0,1,,,,,,,,0,,,85,80
83507,note_on,0,0,1,,,,,,,,0,,,85,0
83507,note_on,48,0,1,,,,,,,,0,,,82,0
83520,note_on,0,0,2,,,,,,,,0,,,46,0
83520,note_on,61,0,2,,,,,,,,0,,,42,0
83520,note_on,13,0,1,,,,,,,,0,,,94,80
83520,note_on,0,0,2,,,,,,,,0,,,46,48
83520,note_on,0,0,2,,,,,,,,0,,,42,80
83520,note_on,0,0,2,,,,,,,,0,,,49,0
83520,note_on,0,0,2,,,,,,,,0,,,49,48
83520,note_on,0,0,1,,,,,,,,0,,,90,80
83567,note_on,47,0,1,,,,,,,,0,,,90,0
83567,note_on,0,0,1,,,,,,,,0,,,94,0
83579,note_on,0,0,1,,,,,,,,0,,,82,80
83579,note_on,12,0,1,,,,,,,,0,,,85,80
83579,note_on,59,0,2,,,,,,,,0,,,54,0
83579,note_on,0,0,2,,,,,,,,0,,,54,80
83626,note_on,47,0,1,,,,,,,,0,,,82,0
83626,note_on,0,0,1,,,,,,,,0,,,85,0
83639,note_on,60,0,2,,,,,,,,0,,,42,0
83639,note_on,13,0,1,,,,,,,,0,,,94,80
83639,note_on,0,0,1,,,,,,,,0,,,90,80
83639,note_on,0,0,2,,,,,,,,0,,,46,0
83639,note_on,0,0,2,,,,,,,,0,,,42,80
83639,note_on,0,0,2,,,,,,,,0,,,46,48
83639,note_on,0,0,2,,,,,,,,0,,,49,0
83639,note_on,0,0,2,,,,,,,,0,,,49,48
83687,note_on,48,0,1,,,,,,,,0,,,90,0
83687,note_on,0,0,1,,,,,,,,0,,,94,0
83700,note_on,61,0,2,,,,,,,,0,,,54,0
83700,note_on,0,0,2,,,,,,,,0,,,54,80
83759,note_on,0,0,2,,,,,,,,0,,,46,0
83759,note_on,59,0,2,,,,,,,,0,,,42,0
83759,note_on,0,0,2,,,,,,,,0,,,49,48
83759,note_on,0,0,2,,,,,,,,0,,,49,0
83759,note_on,0,0,2,,,,,,,,0,,,46,48
83759,note_on,0,0,2,,,,,,,,0,,,42,80
83819,note_on,0,0,2,,,,,,,,0,,,54,80
83819,note_on,60,0,2,,,,,,,,0,,,54,0
83880,note_on,0,0,1,,,,,,,,0,,,58,88
83880,note_on,0,0,1,,,,,,,,0,,,70,88
83880,note_on,0,0,2,,,,,,,,0,,,42,48
83880,note_on,0,0,2,,,,,,,,0,,,42,0
83880,note_on,61,0,2,,,,,,,,0,,,54,0
83880,note_on,0,0,2,,,,,,,,0,,,39,80
83880,note_on,0,0,2,,,,,,,,0,,,49,0
83880,note_on,0,0,2,,,,,,,,0,,,46,48
83880,note_on,0,0,2,,,,,,,,0,,,46,0
83880,control_change,193,0,1,,,,,,,,0,64,0,,
83899,control_change,19,0,1,,,,,,,,0,64,127,,
83927,note_on,0,0,1,,,,,,,,0,,,58,0
83927,note_on,28,0,1,,,,,,,,0,,,70,0
83939,note_on,59,0,2,,,,,,,,0,,,51,80
83939,note_on,12,0,1,,,,,,,,0,,,63,80
83986,note_on,47,0,1,,,,,,,,0,,,63,0
83999,note_on,0,0,1,,,,,,,,0,,,70,80
83999,note_on,0,0,2,,,,,,,,0,,,46,48
83999,note_on,0,0,2,,,,,,,,0,,,39,0
83999,note_on,0,0,2,,,,,,,,0,,,39,80
83999,note_on,0,0,2,,,,,,,,0,,,42,0
83999,note_on,0,0,2,,,,,,,,0,,,42,48
83999,note_on,13,0,1,,,,,,,,0,,,66,80
83999,note_on,60,0,2,,,,,,,,0,,,46,0
84047,note_on,48,0,1,,,,,,,,0,,,70,0
84047,note_on,0,0,1,,,,,,,,0,,,66,0
84060,note_on,0,0,1,,,,,,,,0,,,75,80
84060,note_on,61,0,2,,,,,,,,0,,,51,0
84060,note_on,0,0,2,,,,,,,,0,,,51,80
84060,note_on,13,0,1,,,,,,,,0,,,70,80
84107,note_on,0,0,1,,,,,,,,0,,,70,0
84107,note_on,47,0,1,,,,,,,,0,,,75,0
84119,note_on,59,0,2,,,,,,,,0,,,39,0
84119,note_on,12,0,1,,,,,,,,0,,,82,80
84119,note_on,0,0,1,,,,,,,,0,,,78,80
84119,note_on,0,0,2,,,,,,,,0,,,39,80
84119,note_on,0,0,2,,,,,,,,0,,,42,0
84119,note_on,0,0,2,,,,,,,,0,,,42,48
84119,note_on,0,0,2,,,,,,,,0,,,46,0
84119,note_on,0,0,2,,,,,,,,0,,,46,48
84166,note_on,47,0,1,,,,,,,,0,,,78,0
84166,note_on,0,0,1,,,,,,,,0,,,82,0
84179,note_on,13,0,1,,,,,,,,0,,,87,80
84179,note_on,60,0,2,,,,,,,,0,,,51,0
84179,note_on,0,0,2,,,,,,,,0,,,51,80
84179,note_on,0,0,1,,,,,,,,0,,,82,80
84227,note_on,0,0,1,,,,,,,,0,,,87,0
84227,note_on,48,0,1,,,,,,,,0,,,82,0
84240,note_on,0,0,2,,,,,,,,0,,,42,0
84240,note_on,0,0,2,,,,,,,,0,,,42,48
84240,note_on,0,0,2,,,,,,,,0,,,46,0
84240,note_on,0,0,2,,,,,,,,0,,,46,48
84240,note_on,0,0,1,,,,,,,,0,,,90,80
84240,note_on,13,0,1,,,,,,,,0,,,94,80
84240,note_on,61,0,2,,,,,,,,0,,,39,0
84240,note_on,0,0,2,,,,,,,,0,,,39,80
84287,note_on,47,0,1,,,,,,,,0,,,90,0
84287,note_on,0,0,1,,,,,,,,0,,,94,0
84299,note_on,12,0,1,,,,,,,,0,,,87,80
84299,note_on,59,0,2,,,,,,,,0,,,51,0
84299,note_on,0,0,2,,,,,,,,0,,,51,80
84299,note_on,0,0,1,,,,,,,,0,,,82,80
84346,note_on,47,0,1,,,,,,,,0,,,82,0
84346,note_on,0,0,1,,,,,,,,0,,,87,0
84359,note_on,0,0,1,,,,,,,,0,,,94,80
84359,note_on,60,0,2,,,,,,,,0,,,46,0
84359,note_on,0,0,2,,,,,,,,0,,,39,0
84359,note_on,0,0,2,,,,,,,,0,,,39,80
84359,note_on,0,0,2,,,,,,,,0,,,42,0
84359,note_on,0,0,2,,,,,,,,0,,,42,48
84359,note_on,0,0,2,,,,,,,,0,,,46,48
84359,note_on,13,0,1,,,,,,,,0,,,90,80
84407,note_on,0,0,1,,,,,,,,0,,,90,0
84407,note_on,48,0,1,,,,,,,,0,,,94,0
84420,note_on,0,0,2,,,,,,,,0,,,51,80
84420,note_on,61,0,2,,,,,,,,0,,,51,0
84479,note_on,0,0,2,,,,,,,,0,,,42,0
84479,note_on,0,0,2,,,,,,,,0,,,42,48
84479,note_on,0,0,2,,,,,,,,0,,,46,48
84479,note_on,59,0,2,,,,,,,,0,,,46,0
84479,note_on,0,0,2,,,,,,,,0,,,39,0
84479,note_on,0,0,2,,,,,,,,0,,,39,80
84539,note_on,0,0,2,,,,,,,,0,,,51,80
84539,note_on,60,0,2,,,,,,,,0,,,51,0
84592,control_change,185,0,1,,,,,,,,0,64,0,,
84600,note_on,0,0,1,,,,,,,,0,,,71,88
84600,note_on,61,0,2,,,,,,,,0,,,51,0
84600,note_on,8,0,1,,,,,,,,0,,,59,88
84600,note_on,0,0,2,,,,,,,,0,,,35,80
84600,note_on,0,0,2,,,,,,,,0,,,39,0
84600,note_on,0,0,2,,,,,,,,0,,,39,48
84600,note_on,0,0,2,,,,,,,,0,,,42,0
84600,note_on,0,0,2,,,,,,,,0,,,42,48
84600,note_on,0,0,2,,,,,,,,0,,,46,0
84613,control_change,13,0,1,,,,,,,,0,64,127,,
84647,note_on,34,0,1,,,,,,,,0,,,71,0
84647,note_on,0,0,1,,,,,,,,0,,,59,0
84659,note_on,12,0,1,,,,,,,,0,,,63,80
84659,note_on,59,0,2,,,,,,,,0,,,47,80
84706,note_on,47,0,1,,,,,,,,0,,,63,0
84719,note_on,0,0,2,,,,,,,,0,,,35,80
84719,note_on,0,0,2,,,,,,,,0,,,39,48
84719,note_on,0,0,2,,,,,,,,0,,,42,0
84719,note_on,60,0,2,,,,,,,,0,,,39,0
84719,note_on,0,0,1,,,,,,,,0,,,71,80
84719,note_on,0,0,2,,,,,,,,0,,,42,48
84719,note_on,13,0,1,,,,,,,,0,,,66,80
84719,note_on,0,0,2,,,,,,,,0,,,35,0
84767,note_on,0,0,1,,,,,,,,0,,,66,0
84767,note_on,48,0,1,,,,,,,,0,,,71,0
84780,note_on,0,0,1,,,,,,,,0,,,75,80
84780,note_on,0,0,2,,,,,,,,0,,,47,80
84780,note_on,13,0,1,,,,,,,,0,,,71,80
84780,note_on,61,0,2,,,,,,,,0,,,47,0
84827,note_on,0,0,1,,,,,,,,0,,,71,0
84827,note_on,47,0,1,,,,,,,,0,,,75,0
84839,note_on,0,0,2,,,,,,,,0,,,35,80
84839,note_on,0,0,1,,,,,,,,0,,,78,80
84839,note_on,12,0,1,,,,,,,,0,,,83,80
84839,note_on,0,0,2,,,,,,,,0,,,42,48
84839,note_on,0,0,2,,,,,,,,0,,,39,48
84839,note_on,0,0,2,,,,,,,,0,,,39,0
84839,note_on,0,0,2,,,,,,,,0,,,35,0
84839,note_on,59,0,2,,,,,,,,0,,,42,0
84886,note_on,0,0,1,,,,,,,,0,,,83,0
84886,note_on,47,0,1,,,,,,,,0,,,78,0
84899,note_on,13,0,1,,,,,,,,0,,,83,80
84899,note_on,0,0,2,,,,,,,,0,,,47,80
84899,note_on,0,0,1,,,,,,,,0,,,87,80
84899,note_on,60,0,2,,,,,,,,0,,,47,0
84947,note_on,0,0,1,,,,,,,,0,,,83,0
84947,note_on,48,0,1,,,,,,,,0,,,87,0
84960,note_on,0,0,2,,,,,,,,0,,,35,0
84960,note_on,0,0,1,,,,,,,,0,,,90,80
84960,note_on,0,0,2,,,,,,,,0,,,35,80
84960,note_on,13,0,1,,,,,,,,0,,,95,80
84960,note_on,61,0,2,,,,,,,,0,,,42,0
84960,note_on,0,0,2,,,,,,,,0,,,42,48
84960,note_on,0,0,2,,,,,,,,0,,,39,48
84960,note_on,0,0,2,,,,,,,,0,,,39,0
85007,note_on,0,0,1,,,,,,,,0,,,95,0
85007,note_on,47,0,1,,,,,,,,0,,,90,0
85019,note_on,59,0,2,,,,,,,,0,,,47,0
85019,note_on,0,0,2,,,,,,,,0,,,47,80
85019,note_on,0,0,1,,,,,,,,0,,,83,80
85019,note_on,12,0,1,,,,,,,,0,,,87,80
85066,note_on,0,0,1,,,,,,,,0,,,87,0
85066,note_on,47,0,1,,,,,,,,0,,,83,0
85079,note_on,0,0,1,,,,,,,,0,,,95,80
85079,note_on,60,0,2,,,,,,,,0,,,42,0
85079,note_on,13,0,1,,,,,,,,0,,,90,80
85079,note_on,0,0,2,,,,,,,,0,,,42,48
85079,note_on,0,0,2,,,,,,,,0,,,39,48
85079,note_on,0,0,2,,,,,,,,0,,,39,0
85079,note_on,0,0,2,,,,,,,,0,,,35,80
85079,note_on,0,0,2,,,,,,,,0,,,35,0
85127,note_on,0,0,1,,,,,,,,0,,,90,0
85127,note_on,48,0,1,,,,,,,,0,,,95,0
85140,note_on,61,0,2,,,,,,,,0,,,47,0
85140,note_on,0,0,2,,,,,,,,0,,,47,80
85199,note_on,59,0,2,,,,,,,,0,,,42,0
85199,note_on,0,0,2,,,,,,,,0,,,35,80
85199,note_on,0,0,2,,,,,,,,0,,,39,48
85199,note_on,0,0,2,,,,,,,,0,,,42,48
85199,note_on,0,0,2,,,,,,,,0,,,35,0
85199,note_on,0,0,2,,,,,,,,0,,,39,0
85259,note_on,60,0,2,,,,,,,,0,,,47,0
85259,note_on,0,0,2,,,,,,,,0,,,47,80
85320,note_on,0,0,2,,,,,,,,0,,,34,48
85320,note_on,0,0,2,,,,,,,,0,,,30,80
85320,note_on,193,0,1,,,,,,,,0,,,73,88
85320,note_on,61,0,2,,,,,,,,0,,,47,0
85320,note_on,0,0,2,,,,,,,,0,,,42,0
85320,note_on,0,0,2,,,,,,,,0,,,37,48
85320,note_on,0,0,1,,,,,,,,0,,,61,88
85320,note_on,0,0,2,,,,,,,,0,,,35,0
85320,note_on,0,0,2,,,,,,,,0,,,39,0
85333,control_change,13,0,1,,,,,,,,0,64,0,,
85339,control_change,6,0,1,,,,,,,,0,64,127,,
85367,note_on,28,0,1,,,,,,,,0,,,61,0
85367,note_on,0,0,1,,,,,,,,0,,,73,0
85379,note_on,12,0,1,,,,,,,,0,,,66,80
85379,note_on,59,0,2,,,,,,,,0,,,42,80
85426,note_on,47,0,1,,,,,,,,0,,,66,0
85439,note_on,0,0,1,,,,,,,,0,,,70,80
85439,note_on,0,0,2,,,,,,,,0,,,34,0
85439,note_on,13,0,1,,,,,,,,0,,,73,80
85439,note_on,0,0,2,,,,,,,,0,,,30,0
85439,note_on,0,0,2,,,,,,,,0,,,30,80
85439,note_on,0,0,2,,,,,,,,0,,,34,48
85439,note_on,60,0,2,,,,,,,,0,,,37,0
85439,note_on,0,0,2,,,,,,,,0,,,37,48
85487,note_on,0,0,1,,,,,,,,0,,,73,0
85487,note_on,48,0,1,,,,,,,,0,,,70,0
85500,note_on,0,0,2,,,,,,,,0,,,42,80
85500,note_on,0,0,1,,,,,,,,0,,,73,80
85500,note_on,61,0,2,,,,,,,,0,,,42,0
85500,note_on,13,0,1,,,,,,,,0,,,78,80
85547,note_on,0,0,1,,,,,,,,0,,,78,0
85547,note_on,47,0,1,,,,,,,,0,,,73,0
85559,note_on,0,0,2,,,,,,,,0,,,30,80
85559,note_on,0,0,1,,,,,,,,0,,,85,80
85559,note_on,12,0,1,,,,,,,,0,,,82,80
85559,note_on,0,0,2,,,,,,,,0,,,34,0
85559,note_on,0,0,2,,,,,,,,0,,,34,48
85559,note_on,59,0,2,,,,,,,,0,,,30,0
85559,note_on,0,0,2,,,,,,,,0,,,37,0
85559,note_on,0,0,2,,,,,,,,0,,,37,48
85606,note_on,47,0,1,,,,,,,,0,,,85,0
85606,note_on,0,0,1,,,,,,,,0,,,82,0
85619,note_on,0,0,1,,,,,,,,0,,,90,80
85619,note_on,60,0,2,,,,,,,,0,,,42,0
85619,note_on,0,0,2,,,,,,,,0,,,42,80
85619,note_on,13,0,1,,,,,,,,0,,,85,80
85667,note_on,48,0,1,,,,,,,,0,,,90,0
85667,note_on,0,0,1,,,,,,,,0,,,85,0
85680,note_on,0,0,1,,,,,,,,0,,,94,80
85680,note_on,0,0,2,,,,,,,,0,,,37,48
85680,note_on,0,0,2,,,,,,,,0,,,30,80
85680,note_on,13,0,1,,,,,,,,0,,,97,80
85680,note_on,0,0,2,,,,,,,,0,,,34,0
85680,note_on,0,0,2,,,,,,,,0,,,34,48
85680,note_on,61,0,2,,,,,,,,0,,,30,0
85680,note_on,0,0,2,,,,,,,,0,,,37,0
85727,note_on,0,0,1,,,,,,,,0,,,97,0
85727,note_on,47,0,1,,,,,,,,0,,,94,0
85739,note_on,59,0,2,,,,,,,,0,,,42,0
85739,note_on,0,0,2,,,,,,,,0,,,42,80
85739,note_on,12,0,1,,,,,,,,0,,,90,80
85739,note_on,0,0,1,,,,,,,,0,,,85,80
85786,note_on,47,0,1,,,,,,,,0,,,85,0
85786,note_on,0,0,1,,,,,,,,0,,,90,0
85799,note_on,60,0,2,,,,,,,,0,,,30,0
85799,note_on,0,0,2,,,,,,,,0,,,34,48
85799,note_on,0,0,2,,,,,,,,0,,,30,80
85799,note_on,0,0,2,,,,,,,,0,,,34,0
85799,note_on,0,0,2,,,,,,,,0,,,37,48
85799,note_on,0,0,2,,,,,,,,0,,,37,0
85799,note_on,13,0,1,,,,,,,,0,,,97,80
85799,note_on,0,0,1,,,,,,,,0,,,94,80
85847,note_on,0,0,1,,,,,,,,0,,,97,0
85847,note_on,48,0,1,,,,,,,,0,,,94,0
85860,note_on,61,0,2,,,,,,,,0,,,42,0
85860,note_on,0,0,1,,,,,,,,0,,,85,80
85860,note_on,0,0,2,,,,,,,,0,,,42,80
85860,note_on,13,0,1,,,,,,,,0,,,90,80
85907,note_on,0,0,1,,,,,,,,0,,,90,0
85907,note_on,47,0,1,,,,,,,,0,,,85,0
85919,note_on,0,0,2,,,,,,,,0,,,30,80
85919,note_on,0,0,2,,,,,,,,0,,,34,0
85919,note_on,0,0,2,,,,,,,,0,,,37,48
85919,note_on,0,0,2,,,,,,,,0,,,34,48
85919,note_on,59,0,2,,,,,,,,0,,,30,0
85919,note_on,0,0,2,,,,,,,,0,,,37,0
85919,note_on,12,0,1,,,,,,,,0,,,94,80
85919,note_on,0,0,1,,,,,,,,0,,,97,80
85966,note_on,47,0,1,,,,,,,,0,,,97,0
85966,note_on,0,0,1,,,,,,,,0,,,94,0
85979,note_on,60,0,2,,,,,,,,0,,,42,0
85979,note_on,0,0,2,,,,,,,,0,,,42,80
85979,note_on,0,0,1,,,,,,,,0,,,85,80
85979,note_on,13,0,1,,,,,,,,0,,,90,80
86027,note_on,48,0,1,,,,,,,,0,,,85,0
86027,note_on,0,0,1,,,,,,,,0,,,90,0
86040,note_on,0,0,2,,,,,,,,0,,,34,80
86040,note_on,61,0,2,,,,,,,,0,,,42,0
86040,note_on,0,0,1,,,,,,,,0,,,94,80
86040,note_on,0,0,2,,,,,,,,0,,,34,0
86040,note_on,13,0,1,,,,,,,,0,,,97,80
86040,note_on,0,0,2,,,,,,,,0,,,37,0
86040,note_on,0,0,2,,,,,,,,0,,,30,80
86040,note_on,0,0,2,,,,,,,,0,,,37,80
86040,note_on,0,0,2,,,,,,,,0,,,42,80
86040,note_on,0,0,2,,,,,,,,0,,,30,0
86326,note_on,286,0,1,,,,,,,,0,,,94,0
86326,note_on,0,0,1,,,,,,,,0,,,97,0
86400,note_on,0,0,2,,,,,,,,0,,,30,0
86400,note_on,0,0,2,,,,,,,,0,,,34,0
86400,note_on,360,0,2,,,,,,,,0,,,37,0
86400,note_on,0,0,1,,,,,,,,0,,,61,80
86400,note_on,0,0,2,,,,,,,,0,,,42,0
86400,note_on,74,0,1,,,,,,,,0,,,73,80
86408,control_change,8,0,1,,,,,,,,0,64,0,,
86615,note_on,0,0,1,,,,,,,,0,,,73,0
86615,note_on,207,0,1,,,,,,,,0,,,61,0
86670,note_on,0,0,1,,,,,,,,0,,,61,80
86670,note_on,55,0,1,,,,,,,,0,,,73,80
86741,note_on,0,0,1,,,,,,,,0,,,73,0
86741,note_on,71,0,1,,,,,,,,0,,,61,0
86760,note_on,0,0,1,,,,,,,,0,,,73,80
86760,note_on,19,0,1,,,,,,,,0,,,61,80
87046,note_on,0,0,1,,,,,,,,0,,,61,0
87046,note_on,286,0,1,,,,,,,,0,,,73,0
87120,note_on,74,0,1,,,,,,,,0,,,61,80
87120,note_on,0,0,1,,,,,,,,0,,,73,80
87406,note_on,0,0,1,,,,,,,,0,,,61,0
87406,note_on,286,0,1,,,,,,,,0,,,73,0
87480,note_on,10154,0,3,,,,,,,,0,,,62,80
87480,note_on,0,0,3,,,,,,,,0,,,74,80
87480,note_on,0,0,2,,,,,,,,0,,,60,80
87480,note_on,0,0,2,,,,,,,,0,,,45,80
87480,note_on,0,0,2,,,,,,,,0,,,50,80
87480,note_on,1080,0,2,,,,,,,,0,,,54,80
87483,control_change,3,0,3,,,,,,,,0,64,127,,
87539,note_on,133,0,1,,,,,,,,0,,,66,72
87586,note_on,47,0,1,,,,,,,,0,,,66,0
87599,note_on,13,0,1,,,,,,,,0,,,72,72
87647,note_on,48,0,1,,,,,,,,0,,,72,0
87660,note_on,13,0,1,,,,,,,,0,,,74,72
87707,note_on,47,0,1,,,,,,,,0,,,74,0
87719,note_on,12,0,1,,,,,,,,0,,,78,72
87766,note_on,0,0,2,,,,,,,,0,,,50,0
87766,note_on,47,0,1,,,,,,,,0,,,78,0
87766,note_on,286,0,2,,,,,,,,0,,,45,0
87766,note_on,0,0,2,,,,,,,,0,,,60,0
87766,note_on,0,0,2,,,,,,,,0,,,54,0
87779,note_on,13,0,1,,,,,,,,0,,,84,72
87827,note_on,48,0,1,,,,,,,,0,,,84,0
87840,note_on,74,0,2,,,,,,,,0,,,33,80
87840,note_on,13,0,1,,,,,,,,0,,,86,72
87840,note_on,0,0,2,,,,,,,,0,,,42,80
87840,note_on,0,0,2,,,,,,,,0,,,38,80
87840,control_change,357,0,3,,,,,,,,0,64,0,,
87869,control_change,29,0,3,,,,,,,,0,64,127,,
87887,note_on,47,0,1,,,,,,,,0,,,86,0
87899,note_on,12,0,1,,,,,,,,0,,,84,72
87946,note_on,47,0,1,,,,,,,,0,,,84,0
87959,note_on,13,0,1,,,,,,,,0,,,78,72
88007,note_on,48,0,1,,,,,,,,0,,,78,0
88020,note_on,13,0,1,,,,,,,,0,,,74,72
88055,note_on,0,0,3,,,,,,,,0,,,62,0
88055,note_on,186,0,3,,,,,,,,0,,,74,0
88067,note_on,47,0,1,,,,,,,,0,,,74,0
88079,note_on,12,0,1,,,,,,,,0,,,72,72
88126,note_on,286,0,2,,,,,,,,0,,,42,0
88126,note_on,0,0,2,,,,,,,,0,,,33,0
88126,note_on,47,0,1,,,,,,,,0,,,72,0
88126,note_on,0,0,2,,,,,,,,0,,,38,0
88139,note_on,13,0,1,,,,,,,,0,,,66,72
88187,note_on,48,0,1,,,,,,,,0,,,66,0
88200,control_change,145,0,3,,,,,,,,0,64,0,,
88200,note_on,0,0,2,,,,,,,,0,,,60,80
88200,note_on,0,0,2,,,,,,,,0,,,50,80
88200,note_on,0,0,2,,,,,,,,0,,,45,80
88200,note_on,74,0,2,,,,,,,,0,,,54,80
88200,note_on,0,0,3,,,,,,,,0,,,61,80
88200,note_on,0,0,3,,,,,,,,0,,,73,80
88219,control_change,19,0,3,,,,,,,,0,64,127,,
88259,note_on,72,0,1,,,,,,,,0,,,66,72
88306,note_on,47,0,1,,,,,,,,0,,,66,0
88319,note_on,13,0,1,,,,,,,,0,,,72,72
88367,note_on,48,0,1,,,,,,,,0,,,72,0
88380,note_on,13,0,1,,,,,,,,0,,,73,72
88427,note_on,47,0,1,,,,,,,,0,,,73,0
88439,note_on,12,0,1,,,,,,,,0,,,78,72
88486,note_on,0,0,3,,,,,,,,0,,,61,0
88486,note_on,47,0,1,,,,,,,,0,,,78,0
88486,note_on,0,0,2,,,,,,,,0,,,54,0
88486,note_on,286,0,2,,,,,,,,0,,,50,0
88486,note_on,0,0,2,,,,,,,,0,,,45,0
88486,note_on,0,0,2,,,,,,,,0,,,60,0
88486,note_on,267,0,3,,,,,,,,0,,,73,0
88499,note_on,13,0,1,,,,,,,,0,,,85,72
88547,note_on,48,0,1,,,,,,,,0,,,85,0
88557,control_change,71,0,3,,,,,,,,0,64,0,,
88560,note_on,3,0,3,,,,,,,,0,,,74,80
88560,note_on,74,0,2,,,,,,,,0,,,33,80
88560,note_on,0,0,2,,,,,,,,0,,,42,80
88560,note_on,0,0,2,,,,,,,,0,,,38,80
88560,note_on,0,0,3,,,,,,,,0,,,62,80
88579,control_change,19,0,3,,,,,,,,0,64,127,,
88619,note_on,72,0,1,,,,,,,,0,,,66,72
88666,note_on,47,0,1,,,,,,,,0,,,66,0
88679,note_on,13,0,1,,,,,,,,0,,,72,72
88727,note_on,48,0,1,,,,,,,,0,,,72,0
88740,note_on,13,0,1,,,,,,,,0,,,74,72
88787,note_on,47,0,1,,,,,,,,0,,,74,0
88799,note_on,12,0,1,,,,,,,,0,,,78,72
88846,note_on,47,0,1,,,,,,,,0,,,78,0
88846,note_on,286,0,2,,,,,,,,0,,,42,0
88846,note_on,0,0,3,,,,,,,,0,,,74,0
88846,note_on,0,0,2,,,,,,,,0,,,33,0
88846,note_on,0,0,2,,,,,,,,0,,,38,0
88846,note_on,267,0,3,,,,,,,,0,,,62,0
88859,note_on,13,0,1,,,,,,,,0,,,86,72
88907,note_on,48,0,1,,,,,,,,0,,,86,0
88920,note_on,0,0,2,,,,,,,,0,,,60,80
88920,note_on,0,0,2,,,,,,,,0,,,50,80
88920,note_on,74,0,2,,,,,,,,0,,,54,80
88920,note_on,74,0,3,,,,,,,,0,,,75,80
88920,note_on,0,0,2,,,,,,,,0,,,45,80
88920,note_on,0,0,3,,,,,,,,0,,,63,80
88928,control_change,8,0,3,,,,,,,,0,64,0,,
88949,control_change,21,0,3,,,,,,,,0,64,127,,
88979,note_on,72,0,1,,,,,,,,0,,,66,72
89026,note_on,47,0,1,,,,,,,,0,,,66,0
89039,note_on,13,0,1,,,,,,,,0,,,72,72
89087,note_on,48,0,1,,,,,,,,0,,,72,0
89100,note_on,13,0,1,,,,,,,,0,,,75,72
89147,note_on,47,0,1,,,,,,,,0,,,75,0
89159,note_on,12,0,1,,,,,,,,0,,,78,72
89206,note_on,286,0,2,,,,,,,,0,,,50,0
89206,note_on,0,0,2,,,,,,,,0,,,60,0
89206,note_on,257,0,3,,,,,,,,0,,,63,0
89206,note_on,47,0,1,,,,,,,,0,,,78,0
89206,note_on,0,0,2,,,,,,,,0,,,54,0
89206,note_on,0,0,3,,,,,,,,0,,,75,0
89206,note_on,0,0,2,,,,,,,,0,,,45,0
89219,note_on,13,0,1,,,,,,,,0,,,87,72
89267,note_on,48,0,1,,,,,,,,0,,,87,0
89280,note_on,74,0,2,,,,,,,,0,,,42,80
89280,note_on,0,0,3,,,,,,,,0,,,62,80
89280,note_on,74,0,3,,,,,,,,0,,,74,80
89280,note_on,0,0,2,,,,,,,,0,,,33,80
89280,note_on,0,0,2,,,,,,,,0,,,38,80
89285,control_change,5,0,3,,,,,,,,0,64,0,,
89301,control_change,16,0,3,,,,,,,,0,64,127,,
89339,note_on,72,0,1,,,,,,,,0,,,66,72
89386,note_on,47,0,1,,,,,,,,0,,,66,0
89399,note_on,13,0,1,,,,,,,,0,,,72,72
89447,note_on,48,0,1,,,,,,,,0,,,72,0
89460,note_on,13,0,1,,,,,,,,0,,,74,72
89507,note_on,47,0,1,,,,,,,,0,,,74,0
89519,note_on,12,0,1,,,,,,,,0,,,78,72
89566,note_on,265,0,3,,,,,,,,0,,,62,0
89566,note_on,286,0,2,,,,,,,,0,,,38,0
89566,note_on,0,0,2,,,,,,,,0,,,42,0
89566,note_on,0,0,2,,,,,,,,0,,,33,0
89566,note_on,47,0,1,,,,,,,,0,,,78,0
89566,note_on,0,0,3,,,,,,,,0,,,74,0
89579,note_on,13,0,1,,,,,,,,0,,,86,72
89627,note_on,48,0,1,,,,,,,,0,,,86,0
89640,note_on,74,0,2,,,,,,,,0,,,59,80
89640,note_on,0,0,2,,,,,,,,0,,,43,80
89640,control_change,74,0,3,,,,,,,,0,64,0,,
89640,note_on,0,0,3,,,,,,,,0,,,83,80
89640,note_on,0,0,3,,,,,,,,0,,,71,80
89640,note_on,0,0,2,,,,,,,,0,,,50,80
89671,control_change,31,0,3,,,,,,,,0,64,127,,
89699,note_on,72,0,1,,,,,,,,0,,,74,72
89746,note_on,47,0,1,,,,,,,,0,,,74,0
89759,note_on,13,0,1,,,,,,,,0,,,79,72
89807,note_on,48,0,1,,,,,,,,0,,,79,0
89820,note_on,13,0,1,,,,,,,,0,,,83,72
89867,note_on,47,0,1,,,,,,,,0,,,83,0
89879,note_on,12,0,1,,,,,,,,0,,,86,72
89926,note_on,255,0,3,,,,,,,,0,,,71,0
89926,note_on,0,0,2,,,,,,,,0,,,59,0
89926,note_on,286,0,2,,,,,,,,0,,,50,0
89926,note_on,0,0,3,,,,,,,,0,,,83,0
89926,note_on,47,0,1,,,,,,,,0,,,86,0
89926,note_on,0,0,2,,,,,,,,0,,,43,0
89939,note_on,13,0,1,,,,,,,,0,,,91,72
89987,note_on,48,0,1,,,,,,,,0,,,91,0
90000,note_on,74,0,2,,,,,,,,0,,,31,80
90000,note_on,13,0,1,,,,,,,,0,,,95,72
90000,note_on,0,0,2,,,,,,,,0,,,38,80
90010,control_change,84,0,3,,,,,,,,0,64,0,,
90031,control_change,21,0,3,,,,,,,,0,64,127,,
90047,note_on,47,0,1,,,,,,,,0,,,95,0
90059,note_on,12,0,1,,,,,,,,0,,,91,72
90106,note_on,47,0,1,,,,,,,,0,,,91,0
90119,note_on,13,0,1,,,,,,,,0,,,86,72
90167,note_on,48,0,1,,,,,,,,0,,,86,0
90180,note_on,13,0,1,,,,,,,,0,,,83,72
90227,note_on,47,0,1,,,,,,,,0,,,83,0
90239,note_on,12,0,1,,,,,,,,0,,,79,72
90286,note_on,0,0,2,,,,,,,,0,,,31,0
90286,note_on,47,0,1,,,,,,,,0,,,79,0
90286,note_on,286,0,2,,,,,,,,0,,,38,0
90299,note_on,13,0,1,,,,,,,,0,,,74,72
90347,note_on,48,0,1,,,,,,,,0,,,74,0
90360,note_on,74,0,2,,,,,,,,0,,,47,80
90360,note_on,0,0,2,,,,,,,,0,,,55,80
90360,note_on,0,0,2,,,,,,,,0,,,40,80
90360,note_on,13,0,1,,,,,,,,0,,,79,89
90360,note_on,0,0,1,,,,,,,,0,,,71,89
90360,note_on,0,0,1,,,,,,,,0,,,67,89
90374,control_change,343,0,3,,,,,,,,0,64,0,,
90405,control_change,31,0,3,,,,,,,,0,64,127,,
90431,note_on,0,0,1,,,,,,,,0,,,79,0
90431,note_on,71,0,1,,,,,,,,0,,,67,0
90431,note_on,0,0,1,,,,,,,,0,,,76,68
90431,note_on,0,0,1,,,,,,,,0,,,71,0
90503,note_on,72,0,1,,,,,,,,0,,,76,0
90503,note_on,0,0,1,,,,,,,,0,,,79,81
90575,note_on,72,0,1,,,,,,,,0,,,79,0
90575,note_on,0,0,1,,,,,,,,0,,,83,84
90646,note_on,0,0,2,,,,,,,,0,,,55,0
90646,note_on,0,0,2,,,,,,,,0,,,47,0
90646,note_on,71,0,1,,,,,,,,0,,,83,0
90646,note_on,0,0,1,,,,,,,,0,,,91,90
90646,note_on,286,0,2,,,,,,,,0,,,40,0
90720,note_on,0,0,2,,,,,,,,0,,,59,80
90720,note_on,74,0,1,,,,,,,,0,,,91,0
90720,note_on,0,0,2,,,,,,,,0,,,55,80
90720,note_on,0,0,1,,,,,,,,0,,,64,59
90720,note_on,0,0,1,,,,,,,,0,,,67,59
90720,note_on,0,0,1,,,,,,,,0,,,76,59
90720,note_on,74,0,2,,,,,,,,0,,,52,80
90723,control_change,318,0,3,,,,,,,,0,64,0,,
90762,control_change,39,0,3,,,,,,,,0,64,127,,
90791,note_on,71,0,1,,,,,,,,0,,,76,0
90791,note_on,0,0,1,,,,,,,,0,,,64,0
90791,note_on,0,0,1,,,,,,,,0,,,67,0
90791,note_on,0,0,1,,,,,,,,0,,,71,64
90863,note_on,72,0,1,,,,,,,,0,,,71,0
90863,note_on,0,0,1,,,,,,,,0,,,76,88
90935,note_on,72,0,1,,,,,,,,0,,,76,0
90935,note_on,0,0,1,,,,,,,,0,,,79,87
91006,note_on,0,0,1,,,,,,,,0,,,88,90
91006,note_on,0,0,2,,,,,,,,0,,,52,0
91006,note_on,71,0,1,,,,,,,,0,,,79,0
91006,note_on,286,0,2,,,,,,,,0,,,59,0
91006,note_on,0,0,2,,,,,,,,0,,,55,0
91080,note_on,0,0,2,,,,,,,,0,,,48,80
91080,note_on,74,0,2,,,,,,,,0,,,36,80
91080,note_on,0,0,2,,,,,,,,0,,,45,80
91080,note_on,74,0,1,,,,,,,,0,,,88,0
91080,note_on,0,0,1,,,,,,,,0,,,60,62
91080,note_on,0,0,1,,,,,,,,0,,,64,62
91080,note_on,0,0,1,,,,,,,,0,,,72,62
91083,control_change,321,0,3,,,,,,,,0,64,0,,
91118,control_change,35,0,3,,,,,,,,0,64,127,,
91151,note_on,0,0,1,,,,,,,,0,,,64,0
91151,note_on,0,0,1,,,,,,,,0,,,69,67
91151,note_on,71,0,1,,,,,,,,0,,,72,0
91151,note_on,0,0,1,,,,,,,,0,,,60,0
91223,note_on,0,0,1,,,,,,,,0,,,72,81
91223,note_on,72,0,1,,,,,,,,0,,,69,0
91295,note_on,72,0,1,,,,,,,,0,,,72,0
91295,note_on,0,0,1,,,,,,,,0,,,76,88
91366,note_on,0,0,2,,,,,,,,0,,,36,0
91366,note_on,286,0,2,,,,,,,,0,,,48,0
91366,note_on,0,0,1,,,,,,,,0,,,84,91
91366,note_on,71,0,1,,,,,,,,0,,,76,0
91366,note_on,0,0,2,,,,,,,,0,,,45,0
91440,note_on,0,0,1,,,,,,,,0,,,60,62
91440,note_on,74,0,1,,,,,,,,0,,,84,0
91440,note_on,0,0,1,,,,,,,,0,,,57,62
91440,note_on,0,0,1,,,,,,,,0,,,69,62
91440,note_on,74,0,2,,,,,,,,0,,,48,84
91440,note_on,0,0,2,,,,,,,,0,,,52,84
91450,control_change,332,0,3,,,,,,,,0,64,0,,
91475,control_change,25,0,3,,,,,,,,0,64,127,,
91511,note_on,0,0,1,,,,,,,,0,,,69,0
91511,note_on,0,0,1,,,,,,,,0,,,64,68
91511,note_on,0,0,1,,,,,,,,0,,,57,0
91511,note_on,71,0,1,,,,,,,,0,,,60,0
91583,note_on,0,0,1,,,,,,,,0,,,69,82
91583,note_on,72,0,1,,,,,,,,0,,,64,0
91655,note_on,72,0,1,,,,,,,,0,,,69,0
91655,note_on,0,0,1,,,,,,,,0,,,72,84
91726,note_on,71,0,1,,,,,,,,0,,,72,0
91726,note_on,0,0,2,,,,,,,,0,,,48,0
91726,note_on,0,0,1,,,,,,,,0,,,81,94
91726,note_on,286,0,2,,,,,,,,0,,,52,0
91800,note_on,74,0,1,,,,,,,,0,,,81,0
91800,note_on,74,0,2,,,,,,,,0,,,38,80
91800,control_change,325,0,3,,,,,,,,0,64,0,,
91800,note_on,0,0,1,,,,,,,,0,,,55,80
91800,note_on,0,0,1,,,,,,,,0,,,59,80
91800,note_on,0,0,1,,,,,,,,0,,,67,80
91800,note_on,0,0,2,,,,,,,,0,,,47,80
91800,note_on,0,0,2,,,,,,,,0,,,43,80
91834,control_change,34,0,3,,,,,,,,0,64,127,,
91859,note_on,59,0,1,,,,,,,,0,,,62,80
91871,note_on,12,0,1,,,,,,,,0,,,67,0
91871,note_on,0,0,1,,,,,,,,0,,,59,0
91871,note_on,0,0,1,,,,,,,,0,,,55,0
91930,note_on,0,0,1,,,,,,,,0,,,67,80
91930,note_on,59,0,1,,,,,,,,0,,,62,0
92003,note_on,0,0,1,,,,,,,,0,,,71,80
92003,note_on,73,0,1,,,,,,,,0,,,67,0
92075,note_on,0,0,1,,,,,,,,0,,,79,80
92075,note_on,72,0,1,,,,,,,,0,,,71,0
92086,note_on,286,0,2,,,,,,,,0,,,47,0
92086,note_on,0,0,2,,,,,,,,0,,,38,0
92086,note_on,0,0,2,,,,,,,,0,,,43,0
92147,note_on,72,0,1,,,,,,,,0,,,79,0
92160,note_on,13,0,1,,,,,,,,0,,,59,80
92160,note_on,0,0,2,,,,,,,,0,,,50,80
92160,note_on,74,0,2,,,,,,,,0,,,47,80
92160,note_on,0,0,1,,,,,,,,0,,,71,80
92160,note_on,0,0,2,,,,,,,,0,,,55,80
92160,note_on,0,0,1,,,,,,,,0,,,62,80
92176,control_change,342,0,3,,,,,,,,0,64,0,,
92192,control_change,16,0,3,,,,,,,,0,64,127,,
92219,note_on,59,0,1,,,,,,,,0,,,67,80
92231,note_on,0,0,1,,,,,,,,0,,,59,0
92231,note_on,12,0,1,,,,,,,,0,,,71,0
92231,note_on,0,0,1,,,,,,,,0,,,62,0
92290,note_on,0,0,1,,,,,,,,0,,,71,80
92290,note_on,59,0,1,,,,,,,,0,,,67,0
92363,note_on,0,0,1,,,,,,,,0,,,74,80
92363,note_on,73,0,1,,,,,,,,0,,,71,0
92435,note_on,72,0,1,,,,,,,,0,,,74,0
92435,note_on,0,0,1,,,,,,,,0,,,83,80
92446,note_on,286,0,2,,,,,,,,0,,,55,0
92446,note_on,0,0,2,,,,,,,,0,,,47,0
92446,note_on,0,0,2,,,,,,,,0,,,50,0
92507,note_on,72,0,1,,,,,,,,0,,,83,0
92520,note_on,74,0,2,,,,,,,,0,,,50,80
92520,note_on,0,0,1,,,,,,,,0,,,62,80
92520,note_on,13,0,1,,,,,,,,0,,,67,80
92520,note_on,0,0,1,,,,,,,,0,,,74,80
92520,note_on,0,0,2,,,,,,,,0,,,38,80
92520,note_on,0,0,2,,,,,,,,0,,,46,80
92523,control_change,331,0,3,,,,,,,,0,64,0,,
92544,control_change,21,0,3,,,,,,,,0,64,127,,
92567,note_on,47,0,1,,,,,,,,0,,,74,0
92567,note_on,0,0,1,,,,,,,,0,,,62,0
92567,note_on,0,0,1,,,,,,,,0,,,67,0
92579,note_on,12,0,1,,,,,,,,0,,,70,80
92626,note_on,47,0,1,,,,,,,,0,,,70,0
92639,note_on,13,0,1,,,,,,,,0,,,74,80
92687,note_on,48,0,1,,,,,,,,0,,,74,0
92700,note_on,13,0,1,,,,,,,,0,,,79,80
92747,note_on,47,0,1,,,,,,,,0,,,79,0
92759,note_on,12,0,1,,,,,,,,0,,,82,80
92806,note_on,47,0,1,,,,,,,,0,,,82,0
92806,note_on,286,0,2,,,,,,,,0,,,46,0
92806,note_on,0,0,2,,,,,,,,0,,,38,0
92806,note_on,0,0,2,,,,,,,,0,,,50,0
92819,note_on,13,0,1,,,,,,,,0,,,85,80
92867,note_on,48,0,1,,,,,,,,0,,,85,0
92880,note_on,13,0,1,,,,,,,,0,,,86,80
92880,note_on,74,0,2,,,,,,,,0,,,50,80
92880,note_on,0,0,2,,,,,,,,0,,,58,80
92880,note_on,0,0,2,,,,,,,,0,,,55,80
92885,control_change,341,0,3,,,,,,,,0,64,0,,
92906,control_change,21,0,3,,,,,,,,0,64,127,,
92927,note_on,47,0,1,,,,,,,,0,,,86,0
92939,note_on,12,0,1,,,,,,,,0,,,98,80
92986,note_on,47,0,1,,,,,,,,0,,,98,0
92999,note_on,13,0,1,,,,,,,,0,,,86,80
93047,note_on,48,0,1,,,,,,,,0,,,86,0
93060,note_on,13,0,1,,,,,,,,0,,,98,80
93107,note_on,47,0,1,,,,,,,,0,,,98,0
93119,note_on,12,0,1,,,,,,,,0,,,86,80
93166,note_on,47,0,1,,,,,,,,0,,,86,0
93166,note_on,286,0,2,,,,,,,,0,,,58,0
93166,note_on,0,0,2,,,,,,,,0,,,50,0
93166,note_on,0,0,2,,,,,,,,0,,,55,0
93179,note_on,13,0,1,,,,,,,,0,,,98,80
93227,note_on,48,0,1,,,,,,,,0,,,98,0
93240,note_on,0,0,2,,,,,,,,0,,,45,80
93240,note_on,13,0,1,,,,,,,,0,,,86,80
93240,note_on,0,0,2,,,,,,,,0,,,42,80
93240,note_on,74,0,2,,,,,,,,0,,,38,80
93240,note_on,0,0,2,,,,,,,,0,,,50,80
93251,control_change,345,0,3,,,,,,,,0,64,0,,
93277,control_change,26,0,3,,,,,,,,0,64,127,,
93287,note_on,47,0,1,,,,,,,,0,,,86,0
93299,note_on,12,0,1,,,,,,,,0,,,98,80
93346,note_on,47,0,1,,,,,,,,0,,,98,0
93359,note_on,13,0,1,,,,,,,,0,,,85,80
93407,note_on,48,0,1,,,,,,,,0,,,85,0
93420,note_on,13,0,1,,,,,,,,0,,,98,80
93467,note_on,47,0,1,,,,,,,,0,,,98,0
93479,note_on,12,0,1,,,,,,,,0,,,86,80
93526,note_on,0,0,2,,,,,,,,0,,,42,0
93526,note_on,0,0,2,,,,,,,,0,,,45,0
93526,note_on,47,0,1,,,,,,,,0,,,86,0
93526,note_on,0,0,2,,,,,,,,0,,,38,0
93526,note_on,286,0,2,,,,,,,,0,,,50,0
93539,note_on,13,0,1,,,,,,,,0,,,98,80
93587,note_on,48,0,1,,,,,,,,0,,,98,0
93600,note_on,0,0,2,,,,,,,,0,,,62,80
93600,note_on,0,0,2,,,,,,,,0,,,60,80
93600,note_on,0,0,2,,,,,,,,0,,,57,80
93600,note_on,13,0,1,,,,,,,,0,,,87,80
93600,note_on,74,0,2,,,,,,,,0,,,50,80
93613,control_change,336,0,3,,,,,,,,0,64,0,,
93647,note_on,47,0,1,,,,,,,,0,,,87,0
93648,control_change,35,0,3,,,,,,,,0,64,127,,
93659,note_on,12,0,1,,,,,,,,0,,,98,80
93706,note_on,47,0,1,,,,,,,,0,,,98,0
93719,note_on,13,0,1,,,,,,,,0,,,88,80
93767,note_on,48,0,1,,,,,,,,0,,,88,0
93780,note_on,13,0,1,,,,,,,,0,,,98,80
93827,note_on,47,0,1,,,,,,,,0,,,98,0
93839,note_on,12,0,1,,,,,,,,0,,,89,80
93886,note_on,0,0,2,,,,,,,,0,,,57,0
93886,note_on,0,0,2,,,,,,,,0,,,50,0
93886,note_on,47,0,1,,,,,,,,0,,,89,0
93886,note_on,286,0,2,,,,,,,,0,,,62,0
93886,note_on,0,0,2,,,,,,,,0,,,60,0
93899,note_on,13,0,1,,,,,,,,0,,,90,80
93947,note_on,48,0,1,,,,,,,,0,,,90,0
93960,note_on,0,0,2,,,,,,,,0,,,43,80
93960,note_on,0,0,1,,,,,,,,0,,,95,80
93960,note_on,0,0,2,,,,,,,,0,,,50,80
93960,note_on,13,0,1,,,,,,,,0,,,91,80
93960,note_on,74,0,2,,,,,,,,0,,,59,80
93960,control_change,312,0,3,,,,,,,,0,64,0,,
93995,control_change,35,0,3,,,,,,,,0,64,127,,
94246,note_on,0,0,2,,,,,,,,0,,,43,0
94246,note_on,0,0,2,,,,,,,,0,,,59,0
94246,note_on,286,0,2,,,,,,,,0,,,50,0
94246,note_on,286,0,1,,,,,,,,0,,,95,0
94246,note_on,0,0,1,,,,,,,,0,,,91,0
94320,note_on,0,0,2,,,,,,,,0,,,55,80
94320,note_on,74,0,2,,,,,,,,0,,,43,80
94320,note_on,0,0,1,,,,,,,,0,,,79,80
94320,note_on,74,0,1,,,,,,,,0,,,67,80
94330,control_change,335,0,3,,,,,,,,0,64,0,,
94535,note_on,215,0,2,,,,,,,,0,,,55,0
94535,note_on,0,0,2,,,,,,,,0,,,43,0
94535,note_on,0,0,1,,,,,,,,0,,,67,0
94535,note_on,215,0,1,,,,,,,,0,,,79,0
94590,note_on,0,0,2,,,,,,,,0,,,55,80
94590,note_on,0,0,1,,,,,,,,0,,,67,80
94590,note_on,55,0,2,,,,,,,,0,,,43,80
94590,note_on,55,0,1,,,,,,,,0,,,79,80
94661,note_on,0,0,2,,,,,,,,0,,,43,0
94661,note_on,71,0,2,,,,,,,,0,,,55,0
94661,note_on,0,0,1,,,,,,,,0,,,79,0
94661,note_on,71,0,1,,,,,,,,0,,,67,0
94680,note_on,0,0,2,,,,,,,,0,,,55,80
94680,note_on,0,0,1,,,,,,,,0,,,67,80
94680,note_on,19,0,1,,,,,,,,0,,,79,80
94680,note_on,19,0,2,,,,,,,,0,,,43,80
94966,note_on,286,0,1,,,,,,,,0,,,67,0
94966,note_on,286,0,2,,,,,,,,0,,,55,0
94966,note_on,0,0,2,,,,,,,,0,,,43,0
94966,note_on,0,0,1,,,,,,,,0,,,79,0
95040,note_on,0,0,1,,,,,,,,0,,,67,80
95040,note_on,74,0,1,,,,,,,,0,,,79,80
95040,note_on,0,0,2,,,,,,,,0,,,55,80
95040,note_on,74,0,2,,,,,,,,0,,,43,80
95326,note_on,0,0,1,,,,,,,,0,,,79,0
95326,note_on,0,0,2,,,,,,,,0,,,43,0
95326,note_on,286,0,2,,,,,,,,0,,,55,0
95326,note_on,286,0,1,,,,,,,,0,,,67,0
95400,note_on,74,0,1,,,,,,,,0,,,79,80
95400,note_on,0,0,2,,,,,,,,0,,,55,80
95400,note_on,74,0,2,,,,,,,,0,,,43,80
95400,note_on,0,0,1,,,,,,,,0,,,67,80
95686,note_on,0,0,2,,,,,,,,0,,,43,0
95686,note_on,0,0,1,,,,,,,,0,,,79,0
95686,note_on,286,0,1,,,,,,,,0,,,67,0
95686,note_on,286,0,2,,,,,,,,0,,,55,0
95760,note_on,74,0,1,,,,,,,,0,,,79,80
95760,note_on,0,0,1,,,,,,,,0,,,67,80
95760,note_on,0,0,2,,,,,,,,0,,,55,80
95760,note_on,74,0,2,,,,,,,,0,,,43,80
96046,note_on,286,0,1,,,,,,,,0,,,67,0
96046,note_on,286,0,2,,,,,,,,0,,,55,0
96046,note_on,0,0,1,,,,,,,,0,,,79,0
96046,note_on,0,0,2,,,,,,,,0,,,43,0
96120,note_on,0,0,1,,,,,,,,0,,,55,88
96120,note_on,74,0,2,,,,,,,,0,,,39,80
96120,note_on,74,0,1,,,,,,,,0,,,67,88
96120,note_on,0,0,2,,,,,,,,0,,,43,48
96120,note_on,0,0,2,,,,,,,,0,,,46,48
96120,control_change,1790,0,3,,,,,,,,0,64,127,,
96167,note_on,47,0,1,,,,,,,,0,,,55,0
96167,note_on,0,0,1,,,,,,,,0,,,67,0
96179,note_on,59,0,2,,,,,,,,0,,,51,80
96179,note_on,12,0,1,,,,,,,,0,,,58,80
96226,note_on,47,0,1,,,,,,,,0,,,58,0
96239,note_on,13,0,1,,,,,,,,0,,,63,80
96239,note_on,0,0,2,,,,,,,,0,,,46,48
96239,note_on,0,0,2,,,,,,,,0,,,43,48
96239,note_on,0,0,2,,,,,,,,0,,,43,0
96239,note_on,0,0,2,,,,,,,,0,,,39,80
96239,note_on,60,0,2,,,,,,,,0,,,46,0
96239,note_on,0,0,1,,,,,,,,0,,,67,80
96239,note_on,0,0,2,,,,,,,,0,,,39,0
96287,note_on,0,0,1,,,,,,,,0,,,63,0
96287,note_on,48,0,1,,,,,,,,0,,,67,0
96300,note_on,13,0,1,,,,,,,,0,,,70,80
96300,note_on,0,0,2,,,,,,,,0,,,51,80
96300,note_on,0,0,1,,,,,,,,0,,,67,80
96300,note_on,61,0,2,,,,,,,,0,,,51,0
96347,note_on,0,0,1,,,,,,,,0,,,70,0
96347,note_on,47,0,1,,,,,,,,0,,,67,0
96359,note_on,0,0,2,,,,,,,,0,,,43,48
96359,note_on,0,0,2,,,,,,,,0,,,43,0
96359,note_on,0,0,2,,,,,,,,0,,,39,80
96359,note_on,0,0,1,,,,,,,,0,,,75,80
96359,note_on,0,0,2,,,,,,,,0,,,46,0
96359,note_on,0,0,2,,,,,,,,0,,,46,48
96359,note_on,12,0,1,,,,,,,,0,,,79,80
96359,note_on,59,0,2,,,,,,,,0,,,39,0
96406,note_on,47,0,1,,,,,,,,0,,,75,0
96406,note_on,0,0,1,,,,,,,,0,,,79,0
96419,note_on,60,0,2,,,,,,,,0,,,51,0
96419,note_on,13,0,1,,,,,,,,0,,,82,80
96419,note_on,0,0,2,,,,,,,,0,,,51,80
96419,note_on,0,0,1,,,,,,,,0,,,79,80
96467,note_on,48,0,1,,,,,,,,0,,,79,0
96467,note_on,0,0,1,,,,,,,,0,,,82,0
96480,note_on,0,0,1,,,,,,,,0,,,91,80
96480,note_on,61,0,2,,,,,,,,0,,,55,80
96480,note_on,0,0,2,,,,,,,,0,,,58,80
96480,note_on,13,0,1,,,,,,,,0,,,87,80
96527,note_on,0,0,1,,,,,,,,0,,,87,0
96527,note_on,47,0,1,,,,,,,,0,,,91,0
96539,note_on,0,0,2,,,,,,,,0,,,67,80
96539,note_on,0,0,1,,,,,,,,0,,,82,80
96539,note_on,12,0,1,,,,,,,,0,,,79,80
96539,note_on,59,0,2,,,,,,,,0,,,63,80
96586,note_on,0,0,1,,,,,,,,0,,,79,0
96586,note_on,47,0,1,,,,,,,,0,,,82,0
96586,note_on,0,0,2,,,,,,,,0,,,55,0
96586,note_on,47,0,2,,,,,,,,0,,,58,0
96599,note_on,0,0,2,,,,,,,,0,,,58,80
96599,note_on,13,0,2,,,,,,,,0,,,55,80
96599,note_on,13,0,1,,,,,,,,0,,,91,80
96599,note_on,0,0,1,,,,,,,,0,,,87,80
96647,note_on,48,0,2,,,,,,,,0,,,67,0
96647,note_on,0,0,1,,,,,,,,0,,,91,0
96647,note_on,48,0,1,,,,,,,,0,,,87,0
96647,note_on,0,0,2,,,,,,,,0,,,63,0
96660,note_on,13,0,2,,,,,,,,0,,,63,80
96660,note_on,0,0,1,,,,,,,,0,,,82,80
96660,note_on,0,0,2,,,,,,,,0,,,67,80
96660,note_on,13,0,1,,,,,,,,0,,,79,80
96707,note_on,47,0,1,,,,,,,,0,,,82,0
96707,note_on,47,0,2,,,,,,,,0,,,58,0
96707,note_on,0,0,2,,,,,,,,0,,,55,0
96707,note_on,0,0,1,,,,,,,,0,,,79,0
96719,note_on,12,0,2,,,,,,,,0,,,55,80
96719,note_on,0,0,1,,,,,,,,0,,,87,80
96719,note_on,0,0,2,,,,,,,,0,,,58,80
96719,note_on,12,0,1,,,,,,,,0,,,91,80
96766,note_on,47,0,2,,,,,,,,0,,,67,0
96766,note_on,0,0,1,,,,,,,,0,,,91,0
96766,note_on,0,0,2,,,,,,,,0,,,63,0
96766,note_on,47,0,1,,,,,,,,0,,,87,0
96779,note_on,0,0,2,,,,,,,,0,,,67,80
96779,note_on,13,0,2,,,,,,,,0,,,63,80
96827,note_on,0,0,2,,,,,,,,0,,,58,0
96827,note_on,0,0,2,,,,,,,,0,,,63,0
96827,note_on,48,0,2,,,,,,,,0,,,67,0
96827,note_on,0,0,2,,,,,,,,0,,,55,0
96832,control_change,712,0,3,,,,,,,,0,64,0,,
96840,note_on,0,0,1,,,,,,,,0,,,67,88
96840,note_on,0,0,2,,,,,,,,0,,,39,48
96840,note_on,0,0,2,,,,,,,,0,,,43,48
96840,note_on,74,0,1,,,,,,,,0,,,55,88
96840,note_on,13,0,2,,,,,,,,0,,,51,0
96840,note_on,0,0,2,,,,,,,,0,,,36,80
96843,note_on,3,0,2,,,,,,,,0,,,46,0
96843,note_on,0,0,2,,,,,,,,0,,,43,0
96843,note_on,0,0,2,,,,,,,,0,,,39,0
96853,control_change,21,0,3,,,,,,,,0,64,127,,
96887,note_on,47,0,1,,,,,,,,0,,,67,0
96887,note_on,0,0,1,,,,,,,,0,,,55,0
96899,note_on,12,0,1,,,,,,,,0,,,60,80
96899,note_on,56,0,2,,,,,,,,0,,,48,80
96946,note_on,47,0,1,,,,,,,,0,,,60,0
96959,note_on,0,0,1,,,,,,,,0,,,63,80
96959,note_on,13,0,1,,,,,,,,0,,,67,80
96959,note_on,0,0,2,,,,,,,,0,,,39,48
96959,note_on,0,0,2,,,,,,,,0,,,36,80
96959,note_on,60,0,2,,,,,,,,0,,,36,0
96959,note_on,0,0,2,,,,,,,,0,,,39,0
96959,note_on,0,0,2,,,,,,,,0,,,43,0
96959,note_on,0,0,2,,,,,,,,0,,,43,48
97007,note_on,0,0,1,,,,,,,,0,,,67,0
97007,note_on,48,0,1,,,,,,,,0,,,63,0
97020,note_on,13,0,1,,,,,,,,0,,,72,80
97020,note_on,0,0,1,,,,,,,,0,,,67,80
97020,note_on,0,0,2,,,,,,,,0,,,48,80
97020,note_on,61,0,2,,,,,,,,0,,,48,0
97067,note_on,0,0,1,,,,,,,,0,,,72,0
97067,note_on,47,0,1,,,,,,,,0,,,67,0
97079,note_on,0,0,2,,,,,,,,0,,,39,0
97079,note_on,0,0,2,,,,,,,,0,,,39,48
97079,note_on,0,0,2,,,,,,,,0,,,43,0
97079,note_on,0,0,2,,,,,,,,0,,,43,48
97079,note_on,59,0,2,,,,,,,,0,,,36,0
97079,note_on,0,0,2,,,,,,,,0,,,36,80
97079,note_on,0,0,1,,,,,,,,0,,,79,80
97079,note_on,12,0,1,,,,,,,,0,,,75,80
97126,note_on,0,0,1,,,,,,,,0,,,75,0
97126,note_on,47,0,1,,,,,,,,0,,,79,0
97139,note_on,13,0,1,,,,,,,,0,,,84,80
97139,note_on,0,0,1,,,,,,,,0,,,79,80
97139,note_on,60,0,2,,,,,,,,0,,,48,0
97139,note_on,0,0,2,,,,,,,,0,,,48,80
97187,note_on,48,0,1,,,,,,,,0,,,79,0
97187,note_on,0,0,1,,,,,,,,0,,,84,0
97200,note_on,0,0,1,,,,,,,,0,,,91,80
97200,note_on,61,0,2,,,,,,,,0,,,55,80
97200,note_on,0,0,2,,,,,,,,0,,,60,80
97200,note_on,13,0,1,,,,,,,,0,,,87,80
97247,note_on,0,0,1,,,,,,,,0,,,87,0
97247,note_on,47,0,1,,,,,,,,0,,,91,0
97259,note_on,12,0,1,,,,,,,,0,,,84,80
97259,note_on,0,0,1,,,,,,,,0,,,79,80
97259,note_on,0,0,2,,,,,,,,0,,,67,80
97259,note_on,59,0,2,,,,,,,,0,,,63,80
97306,note_on,47,0,2,,,,,,,,0,,,60,0
97306,note_on,47,0,1,,,,,,,,0,,,79,0
97306,note_on,0,0,2,,,,,,,,0,,,55,0
97306,note_on,0,0,1,,,,,,,,0,,,84,0
97319,note_on,13,0,1,,,,,,,,0,,,87,80
97319,note_on,13,0,2,,,,,,,,0,,,55,80
97319,note_on,0,0,1,,,,,,,,0,,,91,80
97319,note_on,0,0,2,,,,,,,,0,,,60,80
97367,note_on,0,0,1,,,,,,,,0,,,87,0
97367,note_on,48,0,2,,,,,,,,0,,,67,0
97367,note_on,48,0,1,,,,,,,,0,,,91,0
97367,note_on,0,0,2,,,,,,,,0,,,63,0
97380,note_on,0,0,2,,,,,,,,0,,,67,80
97380,note_on,13,0,1,,,,,,,,0,,,79,80
97380,note_on,13,0,2,,,,,,,,0,,,63,80
97380,note_on,0,0,1,,,,,,,,0,,,84,80
97383,note_on,3,0,2,,,,,,,,0,,,48,0
97427,note_on,44,0,2,,,,,,,,0,,,60,0
97427,note_on,0,0,2,,,,,,,,0,,,55,0
97427,note_on,47,0,1,,,,,,,,0,,,84,0
97427,note_on,0,0,1,,,,,,,,0,,,79,0
97439,note_on,12,0,2,,,,,,,,0,,,55,80
97439,note_on,0,0,1,,,,,,,,0,,,91,80
97439,note_on,12,0,1,,,,,,,,0,,,87,80
97439,note_on,0,0,2,,,,,,,,0,,,60,80
97486,note_on,0,0,1,,,,,,,,0,,,87,0
97486,note_on,47,0,2,,,,,,,,0,,,67,0
97486,note_on,0,0,2,,,,,,,,0,,,63,0
97486,note_on,47,0,1,,,,,,,,0,,,91,0
97499,note_on,0,0,2,,,,,,,,0,,,67,80
97499,note_on,13,0,2,,,,,,,,0,,,63,80
97547,note_on,0,0,2,,,,,,,,0,,,55,0
97547,note_on,0,0,2,,,,,,,,0,,,60,0
97547,note_on,0,0,2,,,,,,,,0,,,63,0
97547,note_on,48,0,2,,,,,,,,0,,,67,0
97557,control_change,704,0,3,,,,,,,,0,64,0,,
97560,note_on,0,0,2,,,,,,,,0,,,39,48
97560,note_on,74,0,1,,,,,,,,0,,,68,88
97560,note_on,0,0,1,,,,,,,,0,,,56,88
97560,note_on,0,0,2,,,,,,,,0,,,36,48
97560,note_on,13,0,2,,,,,,,,0,,,32,80
97563,note_on,0,0,2,,,,,,,,0,,,36,0
97563,note_on,3,0,2,,,,,,,,0,,,43,0
97563,note_on,0,0,2,,,,,,,,0,,,39,0
97581,control_change,24,0,3,,,,,,,,0,64,127,,
97607,note_on,47,0,1,,,,,,,,0,,,56,0
97607,note_on,0,0,1,,,,,,,,0,,,68,0
97619,note_on,12,0,1,,,,,,,,0,,,60,80
97619,note_on,56,0,2,,,,,,,,0,,,44,80
97666,note_on,47,0,1,,,,,,,,0,,,60,0
97679,note_on,0,0,2,,,,,,,,0,,,36,48
97679,note_on,0,0,2,,,,,,,,0,,,39,0
97679,note_on,0,0,2,,,,,,,,0,,,39,48
97679,note_on,0,0,2,,,,,,,,0,,,32,80
97679,note_on,60,0,2,,,,,,,,0,,,32,0
97679,note_on,0,0,1,,,,,,,,0,,,68,80
97679,note_on,0,0,2,,,,,,,,0,,,36,0
97679,note_on,13,0,1,,,,,,,,0,,,63,80
97727,note_on,48,0,1,,,,,,,,0,,,68,0
97727,note_on,0,0,1,,,,,,,,0,,,63,0
97740,note_on,61,0,2,,,,,,,,0,,,44,0
97740,note_on,0,0,1,,,,,,,,0,,,68,80
97740,note_on,13,0,1,,,,,,,,0,,,72,80
97740,note_on,0,0,2,,,,,,,,0,,,44,80
97787,note_on,0,0,1,,,,,,,,0,,,72,0
97787,note_on,47,0,1,,,,,,,,0,,,68,0
97799,note_on,59,0,2,,,,,,,,0,,,32,0
97799,note_on,0,0,2,,,,,,,,0,,,39,48
97799,note_on,12,0,1,,,,,,,,0,,,80,80
97799,note_on,0,0,2,,,,,,,,0,,,39,0
97799,note_on,0,0,2,,,,,,,,0,,,36,48
97799,note_on,0,0,1,,,,,,,,0,,,75,80
97799,note_on,0,0,2,,,,,,,,0,,,36,0
97799,note_on,0,0,2,,,,,,,,0,,,32,80
97846,note_on,0,0,1,,,,,,,,0,,,80,0
97846,note_on,47,0,1,,,,,,,,0,,,75,0
97859,note_on,0,0,1,,,,,,,,0,,,80,80
97859,note_on,60,0,2,,,,,,,,0,,,44,0
97859,note_on,0,0,2,,,,,,,,0,,,44,80
97859,note_on,13,0,1,,,,,,,,0,,,84,80
97907,note_on,48,0,1,,,,,,,,0,,,80,0
97907,note_on,0,0,1,,,,,,,,0,,,84,0
97920,note_on,13,0,1,,,,,,,,0,,,92,80
97920,note_on,0,0,2,,,,,,,,0,,,60,80
97920,note_on,0,0,2,,,,,,,,0,,,39,0
97920,note_on,0,0,2,,,,,,,,0,,,36,0
97920,note_on,61,0,2,,,,,,,,0,,,44,0
97920,note_on,0,0,2,,,,,,,,0,,,32,0
97920,note_on,0,0,1,,,,,,,,0,,,87,80
97920,note_on,0,0,2,,,,,,,,0,,,56,80
97967,note_on,0,0,1,,,,,,,,0,,,92,0
97967,note_on,47,0,1,,,,,,,,0,,,87,0
97979,note_on,12,0,1,,,,,,,,0,,,80,80
97979,note_on,0,0,1,,,,,,,,0,,,84,80
97979,note_on,0,0,2,,,,,,,,0,,,68,80
97979,note_on,59,0,2,,,,,,,,0,,,63,80
98026,note_on,0,0,1,,,,,,,,0,,,80,0
98026,note_on,47,0,1,,,,,,,,0,,,84,0
98026,note_on,47,0,2,,,,,,,,0,,,60,0
98026,note_on,0,0,2,,,,,,,,0,,,56,0
98039,note_on,13,0,2,,,,,,,,0,,,56,80
98039,note_on,0,0,2,,,,,,,,0,,,60,80
98039,note_on,13,0,1,,,,,,,,0,,,87,80
98039,note_on,0,0,1,,,,,,,,0,,,92,80
98087,note_on,0,0,2,,,,,,,,0,,,68,0
98087,note_on,48,0,1,,,,,,,,0,,,92,0
98087,note_on,48,0,2,,,,,,,,0,,,63,0
98087,note_on,0,0,1,,,,,,,,0,,,87,0
98100,note_on,13,0,1,,,,,,,,0,,,80,80
98100,note_on,0,0,2,,,,,,,,0,,,68,80
98100,note_on,13,0,2,,,,,,,,0,,,63,80
98100,note_on,0,0,1,,,,,,,,0,,,84,80
98147,note_on,0,0,2,,,,,,,,0,,,60,0
98147,note_on,0,0,1,,,,,,,,0,,,80,0
98147,note_on,47,0,2,,,,,,,,0,,,56,0
98147,note_on,47,0,1,,,,,,,,0,,,84,0
98159,note_on,12,0,2,,,,,,,,0,,,56,80
98159,note_on,0,0,2,,,,,,,,0,,,60,80
98159,note_on,12,0,1,,,,,,,,0,,,92,80
98159,note_on,0,0,1,,,,,,,,0,,,87,80
98206,note_on,0,0,1,,,,,,,,0,,,92,0
98206,note_on,47,0,1,,,,,,,,0,,,87,0
98206,note_on,47,0,2,,,,,,,,0,,,63,0
98206,note_on,0,0,2,,,,,,,,0,,,68,0
98219,note_on,13,0,2,,,,,,,,0,,,63,80
98219,note_on,0,0,2,,,,,,,,0,,,68,80
98267,note_on,48,0,2,,,,,,,,0,,,68,0
98267,note_on,0,0,2,,,,,,,,0,,,56,0
98267,note_on,0,0,2,,,,,,,,0,,,60,0
98267,note_on,0,0,2,,,,,,,,0,,,63,0
98280,control_change,699,0,3,,,,,,,,0,64,0,,
98280,note_on,74,0,1,,,,,,,,0,,,70,88
98280,note_on,0,0,1,,,,,,,,0,,,58,88
98280,note_on,13,0,2,,,,,,,,0,,,27,80
98280,note_on,0,0,2,,,,,,,,0,,,31,48
98280,note_on,0,0,2,,,,,,,,0,,,34,48
98304,control_change,24,0,3,,,,,,,,0,64,127,,
98327,note_on,0,0,1,,,,,,,,0,,,70,0
98327,note_on,47,0,1,,,,,,,,0,,,58,0
98339,note_on,59,0,2,,,,,,,,0,,,39,80
98339,note_on,12,0,1,,,,,,,,0,,,63,80
98386,note_on,47,0,1,,,,,,,,0,,,63,0
98399,note_on,0,0,1,,,,,,,,0,,,67,80
98399,note_on,60,0,2,,,,,,,,0,,,34,0
98399,note_on,0,0,2,,,,,,,,0,,,34,48
98399,note_on,0,0,2,,,,,,,,0,,,27,0
98399,note_on,13,0,1,,,,,,,,0,,,70,80
98399,note_on,0,0,2,,,,,,,,0,,,31,0
98399,note_on,0,0,2,,,,,,,,0,,,27,80
98399,note_on,0,0,2,,,,,,,,0,,,31,48
98447,note_on,48,0,1,,,,,,,,0,,,67,0
98447,note_on,0,0,1,,,,,,,,0,,,70,0
98460,note_on,13,0,1,,,,,,,,0,,,75,80
98460,note_on,61,0,2,,,,,,,,0,,,39,0
98460,note_on,0,0,1,,,,,,,,0,,,70,80
98460,note_on,0,0,2,,,,,,,,0,,,39,80
98507,note_on,47,0,1,,,,,,,,0,,,70,0
98507,note_on,0,0,1,,,,,,,,0,,,75,0
98519,note_on,12,0,1,,,,,,,,0,,,82,80
98519,note_on,0,0,2,,,,,,,,0,,,34,0
98519,note_on,0,0,2,,,,,,,,0,,,31,0
98519,note_on,0,0,1,,,,,,,,0,,,79,80
98519,note_on,0,0,2,,,,,,,,0,,,27,80
98519,note_on,59,0,2,,,,,,,,0,,,27,0
98519,note_on,0,0,2,,,,,,,,0,,,31,48
98519,note_on,0,0,2,,,,,,,,0,,,34,48
98566,note_on,0,0,1,,,,,,,,0,,,82,0
98566,note_on,47,0,1,,,,,,,,0,,,79,0
98579,note_on,0,0,2,,,,,,,,0,,,39,80
98579,note_on,0,0,1,,,,,,,,0,,,87,80
98579,note_on,13,0,1,,,,,,,,0,,,82,80
98579,note_on,60,0,2,,,,,,,,0,,,39,0
98627,note_on,0,0,1,,,,,,,,0,,,82,0
98627,note_on,48,0,1,,,,,,,,0,,,87,0
98640,note_on,0,0,2,,,,,,,,0,,,34,48
98640,note_on,0,0,2,,,,,,,,0,,,34,0
98640,note_on,0,0,2,,,,,,,,0,,,31,48
98640,note_on,0,0,2,,,,,,,,0,,,31,0
98640,note_on,0,0,2,,,,,,,,0,,,27,80
98640,note_on,0,0,1,,,,,,,,0,,,91,80
98640,note_on,61,0,2,,,,,,,,0,,,27,0
98640,note_on,13,0,1,,,,,,,,0,,,94,80
98687,note_on,0,0,1,,,,,,,,0,,,94,0
98687,note_on,47,0,1,,,,,,,,0,,,91,0
98699,note_on,12,0,1,,,,,,,,0,,,82,80
98699,note_on,0,0,1,,,,,,,,0,,,87,80
98699,note_on,0,0,2,,,,,,,,0,,,39,80
98699,note_on,59,0,2,,,,,,,,0,,,39,0
98746,note_on,0,0,1,,,,,,,,0,,,82,0
98746,note_on,47,0,1,,,,,,,,0,,,87,0
98759,note_on,0,0,2,,,,,,,,0,,,34,0
98759,note_on,0,0,1,,,,,,,,0,,,91,80
98759,note_on,0,0,2,,,,,,,,0,,,31,0
98759,note_on,0,0,2,,,,,,,,0,,,31,48
98759,note_on,13,0,1,,,,,,,,0,,,94,80
98759,note_on,0,0,2,,,,,,,,0,,,34,48
98759,note_on,0,0,2,,,,,,,,0,,,27,80
98759,note_on,60,0,2,,,,,,,,0,,,27,0
98807,note_on,0,0,1,,,,,,,,0,,,94,0
98807,note_on,48,0,1,,,,,,,,0,,,91,0
98820,note_on,0,0,1,,,,,,,,0,,,87,80
98820,note_on,13,0,1,,,,,,,,0,,,82,80
98820,note_on,0,0,2,,,,,,,,0,,,39,80
98820,note_on,61,0,2,,,,,,,,0,,,39,0
98867,note_on,47,0,1,,,,,,,,0,,,87,0
98867,note_on,0,0,1,,,,,,,,0,,,82,0
98879,note_on,0,0,1,,,,,,,,0,,,94,80
98879,note_on,12,0,1,,,,,,,,0,,,91,80
98879,note_on,0,0,2,,,,,,,,0,,,34,0
98879,note_on,59,0,2,,,,,,,,0,,,27,0
98879,note_on,0,0,2,,,,,,,,0,,,31,48
98879,note_on,0,0,2,,,,,,,,0,,,31,0
98879,note_on,0,0,2,,,,,,,,0,,,34,48
98879,note_on,0,0,2,,,,,,,,0,,,27,80
98926,note_on,47,0,1,,,,,,,,0,,,94,0
98926,note_on,0,0,1,,,,,,,,0,,,91,0
98939,note_on,60,0,2,,,,,,,,0,,,39,0
98939,note_on,0,0,2,,,,,,,,0,,,39,80
98939,note_on,0,0,1,,,,,,,,0,,,82,80
98939,note_on,13,0,1,,,,,,,,0,,,87,80
98987,note_on,48,0,1,,,,,,,,0,,,82,0
98987,note_on,0,0,1,,,,,,,,0,,,87,0
99000,note_on,13,0,1,,,,,,,,0,,,94,80
99000,note_on,0,0,2,,,,,,,,0,,,34,80
99000,note_on,0,0,2,,,,,,,,0,,,31,80
99000,note_on,0,0,2,,,,,,,,0,,,39,80
99000,note_on,0,0,1,,,,,,,,0,,,91,80
99000,note_on,0,0,2,,,,,,,,0,,,31,0
99000,note_on,0,0,2,,,,,,,,0,,,27,80
99000,note_on,0,0,2,,,,,,,,0,,,27,0
99000,note_on,61,0,2,,,,,,,,0,,,39,0
99000,note_on,0,0,2,,,,,,,,0,,,34,0
99024,control_change,720,0,3,,,,,,,,0,64,0,,
99045,control_change,21,0,3,,,,,,,,0,64,127,,
99047,note_on,0,0,1,,,,,,,,0,,,94,0
99047,note_on,47,0,1,,,,,,,,0,,,91,0
99059,note_on,0,0,1,,,,,,,,0,,,82,80
99059,note_on,12,0,1,,,,,,,,0,,,87,80
99106,note_on,47,0,1,,,,,,,,0,,,82,0
99106,note_on,0,0,1,,,,,,,,0,,,87,0
99119,note_on,0,0,1,,,,,,,,0,,,91,80
99119,note_on,13,0,1,,,,,,,,0,,,94,80
99167,note_on,48,0,1,,,,,,,,0,,,91,0
99167,note_on,0,0,1,,,,,,,,0,,,94,0
99180,note_on,0,0,1,,,,,,,,0,,,87,80
99180,note_on,13,0,1,,,,,,,,0,,,82,80
99227,note_on,47,0,1,,,,,,,,0,,,87,0
99227,note_on,0,0,1,,,,,,,,0,,,82,0
99239,note_on,12,0,1,,,,,,,,0,,,94,80
99239,note_on,0,0,1,,,,,,,,0,,,91,80
99286,note_on,47,0,1,,,,,,,,0,,,91,0
99286,note_on,0,0,1,,,,,,,,0,,,94,0
99299,note_on,13,0,1,,,,,,,,0,,,82,80
99299,note_on,0,0,1,,,,,,,,0,,,87,80
99347,note_on,48,0,1,,,,,,,,0,,,87,0
99347,note_on,0,0,1,,,,,,,,0,,,82,0
99360,note_on,360,0,2,,,,,,,,0,,,39,0
99360,note_on,0,0,2,,,,,,,,0,,,27,0
99360,note_on,0,0,2,,,,,,,,0,,,31,0
99360,note_on,0,0,2,,,,,,,,0,,,70,80
99360,note_on,0,0,2,,,,,,,,0,,,58,80
99360,note_on,13,0,1,,,,,,,,0,,,91,80
99360,note_on,0,0,2,,,,,,,,0,,,34,0
99360,note_on,0,0,1,,,,,,,,0,,,94,80
99407,note_on,47,0,1,,,,,,,,0,,,94,0
99407,note_on,0,0,1,,,,,,,,0,,,91,0
99419,note_on,12,0,1,,,,,,,,0,,,87,80
99419,note_on,0,0,1,,,,,,,,0,,,82,80
99466,note_on,47,0,1,,,,,,,,0,,,82,0
99466,note_on,0,0,1,,,,,,,,0,,,87,0
99479,note_on,13,0,1,,,,,,,,0,,,91,80
99479,note_on,0,0,1,,,,,,,,0,,,94,80
99527,note_on,0,0,1,,,,,,,,0,,,91,0
99527,note_on,48,0,1,,,,,,,,0,,,94,0
99540,note_on,13,0,1,,,,,,,,0,,,87,80
99540,note_on,0,0,1,,,,,,,,0,,,82,80
99575,note_on,215,0,2,,,,,,,,0,,,70,0
99575,note_on,0,0,2,,,,,,,,0,,,58,0
99587,note_on,47,0,1,,,,,,,,0,,,82,0
99587,note_on,0,0,1,,,,,,,,0,,,87,0
99599,note_on,12,0,1,,,,,,,,0,,,91,80
99599,note_on,0,0,1,,,,,,,,0,,,94,80
99630,note_on,0,0,2,,,,,,,,0,,,70,80
99630,note_on,55,0,2,,,,,,,,0,,,58,80
99646,note_on,47,0,1,,,,,,,,0,,,94,0
99646,note_on,0,0,1,,,,,,,,0,,,91,0
99659,note_on,13,0,1,,,,,,,,0,,,87,80
99659,note_on,0,0,1,,,,,,,,0,,,82,80
99701,note_on,71,0,2,,,,,,,,0,,,70,0
99701,note_on,0,0,2,,,,,,,,0,,,58,0
99707,note_on,0,0,1,,,,,,,,0,,,87,0
99707,note_on,48,0,1,,,,,,,,0,,,82,0
99720,note_on,0,0,1,,,,,,,,0,,,91,80
99720,note_on,13,0,1,,,,,,,,0,,,94,80
99720,note_on,0,0,2,,,,,,,,0,,,70,80
99720,note_on,19,0,2,,,,,,,,0,,,58,80
99731,control_change,686,0,3,,,,,,,,0,64,0,,
99749,control_change,18,0,3,,,,,,,,0,64,127,,
99767,note_on,47,0,1,,,,,,,,0,,,91,0
99767,note_on,0,0,1,,,,,,,,0,,,94,0
99779,note_on,12,0,1,,,,,,,,0,,,82,80
99779,note_on,0,0,1,,,,,,,,0,,,87,80
99826,note_on,47,0,1,,,,,,,,0,,,87,0
99826,note_on,0,0,1,,,,,,,,0,,,82,0
99839,note_on,0,0,1,,,,,,,,0,,,91,80
99839,note_on,13,0,1,,,,,,,,0,,,94,80
99887,note_on,48,0,1,,,,,,,,0,,,91,0
99887,note_on,0,0,1,,,,,,,,0,,,94,0
99900,note_on,13,0,1,,,,,,,,0,,,87,80
99900,note_on,0,0,1,,,,,,,,0,,,82,80
99947,note_on,0,0,1,,,,,,,,0,,,87,0
99947,note_on,47,0,1,,,,,,,,0,,,82,0
99959,note_on,12,0,1,,,,,,,,0,,,91,80
99959,note_on,0,0,1,,,,,,,,0,,,94,80
100006,note_on,0,0,2,,,,,,,,0,,,58,0
100006,note_on,0,0,1,,,,,,,,0,,,91,0
100006,note_on,47,0,1,,,,,,,,0,,,94,0
100006,note_on,286,0,2,,,,,,,,0,,,70,0
100019,note_on,13,0,1,,,,,,,,0,,,87,80
100019,note_on,0,0,1,,,,,,,,0,,,82,80
100067,note_on,0,0,1,,,,,,,,0,,,87,0
100067,note_on,48,0,1,,,,,,,,0,,,82,0
100080,note_on,74,0,2,,,,,,,,0,,,58,80
100080,note_on,0,0,1,,,,,,,,0,,,94,80
100080,note_on,0,0,2,,,,,,,,0,,,70,80
100080,note_on,13,0,1,,,,,,,,0,,,91,80
100127,note_on,0,0,1,,,,,,,,0,,,91,0
100127,note_on,47,0,1,,,,,,,,0,,,94,0
100139,note_on,12,0,1,,,,,,,,0,,,87,80
100139,note_on,0,0,1,,,,,,,,0,,,82,80
100186,note_on,47,0,1,,,,,,,,0,,,82,0
100186,note_on,0,0,1,,,,,,,,0,,,87,0
100199,note_on,0,0,1,,,,,,,,0,,,94,80
100199,note_on,13,0,1,,,,,,,,0,,,91,80
100247,note_on,48,0,1,,,,,,,,0,,,94,0
100247,note_on,0,0,1,,,,,,,,0,,,91,0
100260,note_on,0,0,1,,,,,,,,0,,,82,80
100260,note_on,13,0,1,,,,,,,,0,,,87,80
100307,note_on,0,0,1,,,,,,,,0,,,87,0
100307,note_on,47,0,1,,,,,,,,0,,,82,0
100319,note_on,0,0,1,,,,,,,,0,,,91,80
100319,note_on,12,0,1,,,,,,,,0,,,94,80
100366,note_on,0,0,1,,,,,,,,0,,,94,0
100366,note_on,47,0,1,,,,,,,,0,,,91,0
100366,note_on,0,0,2,,,,,,,,0,,,58,0
100366,note_on,286,0,2,,,,,,,,0,,,70,0
100379,note_on,0,0,1,,,,,,,,0,,,87,80
100379,note_on,13,0,1,,,,,,,,0,,,82,80
100427,note_on,48,0,1,,,,,,,,0,,,87,0
100427,note_on,0,0,1,,,,,,,,0,,,82,0
100440,control_change,691,0,3,,,,,,,,0,64,0,,
100440,note_on,74,0,2,,,,,,,,0,,,49,48
100440,note_on,0,0,1,,,,,,,,0,,,58,88
100440,note_on,13,0,1,,,,,,,,0,,,70,88
100440,note_on,0,0,2,,,,,,,,0,,,46,48
100440,note_on,0,0,2,,,,,,,,0,,,42,80
100466,control_change,26,0,3,,,,,,,,0,64,127,,
100487,note_on,47,0,1,,,,,,,,0,,,58,0
100487,note_on,0,0,1,,,,,,,,0,,,70,0
100499,note_on,12,0,1,,,,,,,,0,,,61,80
100499,note_on,59,0,2,,,,,,,,0,,,54,80
100546,note_on,47,0,1,,,,,,,,0,,,61,0
100559,note_on,0,0,2,,,,,,,,0,,,49,48
100559,note_on,0,0,1,,,,,,,,0,,,70,80
100559,note_on,60,0,2,,,,,,,,0,,,46,0
100559,note_on,0,0,2,,,,,,,,0,,,42,0
100559,note_on,0,0,2,,,,,,,,0,,,46,48
100559,note_on,0,0,2,,,,,,,,0,,,49,0
100559,note_on,0,0,2,,,,,,,,0,,,42,80
100559,note_on,13,0,1,,,,,,,,0,,,66,80
100607,note_on,48,0,1,,,,,,,,0,,,70,0
100607,note_on,0,0,1,,,,,,,,0,,,66,0
100620,note_on,61,0,2,,,,,,,,0,,,54,0
100620,note_on,0,0,1,,,,,,,,0,,,70,80
100620,note_on,13,0,1,,,,,,,,0,,,73,80
100620,note_on,0,0,2,,,,,,,,0,,,54,80
100667,note_on,0,0,1,,,,,,,,0,,,73,0
100667,note_on,47,0,1,,,,,,,,0,,,70,0
100679,note_on,0,0,2,,,,,,,,0,,,46,48
100679,note_on,0,0,2,,,,,,,,0,,,46,0
100679,note_on,0,0,2,,,,,,,,0,,,42,80
100679,note_on,0,0,2,,,,,,,,0,,,42,0
100679,note_on,0,0,1,,,,,,,,0,,,78,80
100679,note_on,0,0,2,,,,,,,,0,,,49,48
100679,note_on,12,0,1,,,,,,,,0,,,82,80
100679,note_on,59,0,2,,,,,,,,0,,,49,0
100726,note_on,47,0,1,,,,,,,,0,,,78,0
100726,note_on,0,0,1,,,,,,,,0,,,82,0
100739,note_on,0,0,1,,,,,,,,0,,,85,80
100739,note_on,0,0,2,,,,,,,,0,,,54,80
100739,note_on,13,0,1,,,,,,,,0,,,82,80
100739,note_on,60,0,2,,,,,,,,0,,,54,0
100787,note_on,48,0,1,,,,,,,,0,,,85,0
100787,note_on,0,0,1,,,,,,,,0,,,82,0
100800,note_on,0,0,2,,,,,,,,0,,,42,0
100800,note_on,0,0,2,,,,,,,,0,,,49,0
100800,note_on,13,0,1,,,,,,,,0,,,90,80
100800,note_on,0,0,2,,,,,,,,0,,,46,0
100800,note_on,0,0,1,,,,,,,,0,,,94,80
100800,note_on,61,0,2,,,,,,,,0,,,54,0
100800,note_on,0,0,2,,,,,,,,0,,,61,80
100800,note_on,0,0,2,,,,,,,,0,,,58,80
100847,note_on,0,0,1,,,,,,,,0,,,90,0
100847,note_on,47,0,1,,,,,,,,0,,,94,0
100859,note_on,0,0,2,,,,,,,,0,,,70,80
100859,note_on,0,0,1,,,,,,,,0,,,82,80
100859,note_on,12,0,1,,,,,,,,0,,,85,80
100859,note_on,59,0,2,,,,,,,,0,,,66,80
100906,note_on,0,0,1,,,,,,,,0,,,85,0
100906,note_on,47,0,1,,,,,,,,0,,,82,0
100906,note_on,47,0,2,,,,,,,,0,,,61,0
100906,note_on,0,0,2,,,,,,,,0,,,58,0
100919,note_on,13,0,1,,,,,,,,0,,,94,80
100919,note_on,0,0,1,,,,,,,,0,,,90,80
100919,note_on,13,0,2,,,,,,,,0,,,58,80
100919,note_on,0,0,2,,,,,,,,0,,,61,80
100967,note_on,0,0,2,,,,,,,,0,,,70,0
100967,note_on,48,0,1,,,,,,,,0,,,90,0
100967,note_on,48,0,2,,,,,,,,0,,,66,0
100967,note_on,0,0,1,,,,,,,,0,,,94,0
100980,note_on,13,0,2,,,,,,,,0,,,66,80
100980,note_on,0,0,1,,,,,,,,0,,,82,80
100980,note_on,0,0,2,,,,,,,,0,,,70,80
100980,note_on,13,0,1,,,,,,,,0,,,85,80
101027,note_on,47,0,2,,,,,,,,0,,,58,0
101027,note_on,0,0,2,,,,,,,,0,,,61,0
101027,note_on,0,0,1,,,,,,,,0,,,85,0
101027,note_on,47,0,1,,,,,,,,0,,,82,0
101039,note_on,12,0,1,,,,,,,,0,,,94,80
101039,note_on,12,0,2,,,,,,,,0,,,58,80
101039,note_on,0,0,2,,,,,,,,0,,,61,80
101039,note_on,0,0,1,,,,,,,,0,,,90,80
101086,note_on,0,0,1,,,,,,,,0,,,94,0
101086,note_on,47,0,1,,,,,,,,0,,,90,0
101086,note_on,47,0,2,,,,,,,,0,,,66,0
101086,note_on,0,0,2,,,,,,,,0,,,70,0
101099,note_on,0,0,2,,,,,,,,0,,,70,80
101099,note_on,13,0,2,,,,,,,,0,,,66,80
101147,note_on,0,0,2,,,,,,,,0,,,61,0
101147,note_on,0,0,2,,,,,,,,0,,,58,0
101147,note_on,48,0,2,,,,,,,,0,,,70,0
101147,note_on,0,0,2,,,,,,,,0,,,66,0
101160,note_on,13,0,2,,,,,,,,0,,,39,80
101160,note_on,0,0,2,,,,,,,,0,,,42,48
101160,note_on,0,0,1,,,,,,,,0,,,58,88
101160,note_on,0,0,2,,,,,,,,0,,,46,48
101160,note_on,74,0,1,,,,,,,,0,,,70,88
101186,control_change,720,0,3,,,,,,,,0,64,0,,
101207,note_on,47,0,1,,,,,,,,0,,,58,0
101207,note_on,0,0,1,,,,,,,,0,,,70,0
101210,control_change,24,0,3,,,,,,,,0,64,127,,
101219,note_on,59,0,2,,,,,,,,0,,,51,80
101219,note_on,12,0,1,,,,,,,,0,,,63,80
101266,note_on,47,0,1,,,,,,,,0,,,63,0
101279,note_on,13,0,1,,,,,,,,0,,,66,80
101279,note_on,60,0,2,,,,,,,,0,,,46,0
101279,note_on,0,0,1,,,,,,,,0,,,70,80
101279,note_on,0,0,2,,,,,,,,0,,,39,0
101279,note_on,0,0,2,,,,,,,,0,,,39,80
101279,note_on,0,0,2,,,,,,,,0,,,42,0
101279,note_on,0,0,2,,,,,,,,0,,,42,48
101279,note_on,0,0,2,,,,,,,,0,,,46,48
101327,note_on,0,0,1,,,,,,,,0,,,66,0
101327,note_on,48,0,1,,,,,,,,0,,,70,0
101340,note_on,0,0,2,,,,,,,,0,,,51,80
101340,note_on,13,0,1,,,,,,,,0,,,75,80
101340,note_on,0,0,1,,,,,,,,0,,,70,80
101340,note_on,61,0,2,,,,,,,,0,,,51,0
101387,note_on,47,0,1,,,,,,,,0,,,70,0
101387,note_on,0,0,1,,,,,,,,0,,,75,0
101399,note_on,0,0,2,,,,,,,,0,,,39,80
101399,note_on,59,0,2,,,,,,,,0,,,39,0
101399,note_on,0,0,1,,,,,,,,0,,,78,80
101399,note_on,0,0,2,,,,,,,,0,,,46,48
101399,note_on,12,0,1,,,,,,,,0,,,82,80
101399,note_on,0,0,2,,,,,,,,0,,,46,0
101399,note_on,0,0,2,,,,,,,,0,,,42,48
101399,note_on,0,0,2,,,,,,,,0,,,42,0
101446,note_on,0,0,1,,,,,,,,0,,,82,0
101446,note_on,47,0,1,,,,,,,,0,,,78,0
101459,note_on,0,0,1,,,,,,,,0,,,82,80
101459,note_on,60,0,2,,,,,,,,0,,,51,0
101459,note_on,0,0,2,,,,,,,,0,,,51,80
101459,note_on,13,0,1,,,,,,,,0,,,87,80
101507,note_on,48,0,1,,,,,,,,0,,,82,0
101507,note_on,0,0,1,,,,,,,,0,,,87,0
101520,note_on,0,0,1,,,,,,,,0,,,90,80
101520,note_on,0,0,2,,,,,,,,0,,,42,0
101520,note_on,0,0,2,,,,,,,,0,,,46,0
101520,note_on,0,0,2,,,,,,,,0,,,63,80
101520,note_on,0,0,2,,,,,,,,0,,,39,0
101520,note_on,0,0,2,,,,,,,,0,,,58,80
101520,note_on,61,0,2,,,,,,,,0,,,51,0
101520,note_on,13,0,1,,,,,,,,0,,,94,80
101567,note_on,47,0,1,,,,,,,,0,,,90,0
101567,note_on,0,0,1,,,,,,,,0,,,94,0
101579,note_on,0,0,1,,,,,,,,0,,,87,80
101579,note_on,0,0,2,,,,,,,,0,,,70,80
101579,note_on,59,0,2,,,,,,,,0,,,66,80
101579,note_on,12,0,1,,,,,,,,0,,,82,80
101626,note_on,47,0,2,,,,,,,,0,,,63,0
101626,note_on,47,0,1,,,,,,,,0,,,87,0
101626,note_on,0,0,2,,,,,,,,0,,,58,0
101626,note_on,0,0,1,,,,,,,,0,,,82,0
101639,note_on,0,0,1,,,,,,,,0,,,94,80
101639,note_on,13,0,1,,,,,,,,0,,,90,80
101639,note_on,13,0,2,,,,,,,,0,,,58,80
101639,note_on,0,0,2,,,,,,,,0,,,63,80
101687,note_on,0,0,2,,,,,,,,0,,,70,0
101687,note_on,0,0,1,,,,,,,,0,,,90,0
101687,note_on,48,0,1,,,,,,,,0,,,94,0
101687,note_on,48,0,2,,,,,,,,0,,,66,0
101700,note_on,0,0,1,,,,,,,,0,,,87,80
101700,note_on,13,0,1,,,,,,,,0,,,82,80
101700,note_on,0,0,2,,,,,,,,0,,,70,80
101700,note_on,13,0,2,,,,,,,,0,,,66,80
101747,note_on,0,0,1,,,,,,,,0,,,82,0
101747,note_on,0,0,2,,,,,,,,0,,,63,0
101747,note_on,47,0,1,,,,,,,,0,,,87,0
101747,note_on,47,0,2,,,,,,,,0,,,58,0
101759,note_on,0,0,2,,,,,,,,0,,,63,80
101759,note_on,12,0,2,,,,,,,,0,,,58,80
101759,note_on,12,0,1,,,,,,,,0,,,90,80
101759,note_on,0,0,1,,,,,,,,0,,,94,80
101806,note_on,47,0,2,,,,,,,,0,,,66,0
101806,note_on,47,0,1,,,,,,,,0,,,94,0
101806,note_on,0,0,1,,,,,,,,0,,,90,0
101806,note_on,0,0,2,,,,,,,,0,,,70,0
101819,note_on,13,0,2,,,,,,,,0,,,66,80
101819,note_on,0,0,2,,,,,,,,0,,,70,80
101867,note_on,0,0,2,,,,,,,,0,,,58,0
101867,note_on,0,0,2,,,,,,,,0,,,63,0
101867,note_on,0,0,2,,,,,,,,0,,,66,0
101867,note_on,48,0,2,,,,,,,,0,,,70,0
101880,note_on,0,0,2,,,,,,,,0,,,42,48
101880,note_on,0,0,2,,,,,,,,0,,,39,48
101880,note_on,0,0,1,,,,,,,,0,,,71,88
101880,note_on,74,0,1,,,,,,,,0,,,59,88
101880,note_on,13,0,2,,,,,,,,0,,,35,80
101901,control_change,691,0,3,,,,,,,,0,64,0,,
101927,note_on,0,0,1,,,,,,,,0,,,59,0
101927,note_on,47,0,1,,,,,,,,0,,,71,0
101936,control_change,35,0,3,,,,,,,,0,64,127,,
101939,note_on,12,0,1,,,,,,,,0,,,63,80
101939,note_on,59,0,2,,,,,,,,0,,,47,80
101986,note_on,47,0,1,,,,,,,,0,,,63,0
101999,note_on,0,0,2,,,,,,,,0,,,42,48
101999,note_on,0,0,2,,,,,,,,0,,,39,48
101999,note_on,0,0,2,,,,,,,,0,,,39,0
101999,note_on,13,0,1,,,,,,,,0,,,71,80
101999,note_on,0,0,2,,,,,,,,0,,,35,80
101999,note_on,0,0,1,,,,,,,,0,,,66,80
101999,note_on,0,0,2,,,,,,,,0,,,35,0
101999,note_on,60,0,2,,,,,,,,0,,,42,0
102047,note_on,48,0,1,,,,,,,,0,,,66,0
102047,note_on,0,0,1,,,,,,,,0,,,71,0
102060,note_on,13,0,1,,,,,,,,0,,,71,80
102060,note_on,61,0,2,,,,,,,,0,,,47,0
102060,note_on,0,0,1,,,,,,,,0,,,75,80
102060,note_on,0,0,2,,,,,,,,0,,,47,80
102107,note_on,47,0,1,,,,,,,,0,,,75,0
102107,note_on,0,0,1,,,,,,,,0,,,71,0
102119,note_on,0,0,2,,,,,,,,0,,,35,80
102119,note_on,0,0,2,,,,,,,,0,,,39,0
102119,note_on,0,0,2,,,,,,,,0,,,39,48
102119,note_on,0,0,2,,,,,,,,0,,,42,0
102119,note_on,12,0,1,,,,,,,,0,,,78,80
102119,note_on,59,0,2,,,,,,,,0,,,35,0
102119,note_on,0,0,1,,,,,,,,0,,,83,80
102119,note_on,0,0,2,,,,,,,,0,,,42,48
102166,note_on,47,0,1,,,,,,,,0,,,83,0
102166,note_on,0,0,1,,,,,,,,0,,,78,0
102179,note_on,13,0,1,,,,,,,,0,,,87,80
102179,note_on,0,0,2,,,,,,,,0,,,47,80
102179,note_on,60,0,2,,,,,,,,0,,,47,0
102179,note_on,0,0,1,,,,,,,,0,,,83,80
102227,note_on,48,0,1,,,,,,,,0,,,83,0
102227,note_on,0,0,1,,,,,,,,0,,,87,0
102240,note_on,0,0,1,,,,,,,,0,,,95,80
102240,note_on,61,0,2,,,,,,,,0,,,47,0
102240,note_on,0,0,2,,,,,,,,0,,,63,80
102240,note_on,0,0,2,,,,,,,,0,,,59,80
102240,note_on,0,0,2,,,,,,,,0,,,39,0
102240,note_on,0,0,2,,,,,,,,0,,,42,0
102240,note_on,13,0,1,,,,,,,,0,,,90,80
102240,note_on,0,0,2,,,,,,,,0,,,35,0
102287,note_on,47,0,1,,,,,,,,0,,,95,0
102287,note_on,0,0,1,,,,,,,,0,,,90,0
102299,note_on,0,0,1,,,,,,,,0,,,83,80
102299,note_on,59,0,2,,,,,,,,0,,,66,80
102299,note_on,12,0,1,,,,,,,,0,,,87,80
102299,note_on,0,0,2,,,,,,,,0,,,71,80
102346,note_on,47,0,2,,,,,,,,0,,,63,0
102346,note_on,47,0,1,,,,,,,,0,,,83,0
102346,note_on,0,0,1,,,,,,,,0,,,87,0
102346,note_on,0,0,2,,,,,,,,0,,,59,0
102359,note_on,13,0,1,,,,,,,,0,,,90,80
102359,note_on,0,0,1,,,,,,,,0,,,95,80
102359,note_on,0,0,2,,,,,,,,0,,,63,80
102359,note_on,13,0,2,,,,,,,,0,,,59,80
102407,note_on,0,0,1,,,,,,,,0,,,90,0
102407,note_on,48,0,1,,,,,,,,0,,,95,0
102407,note_on,48,0,2,,,,,,,,0,,,66,0
102407,note_on,0,0,2,,,,,,,,0,,,71,0
102420,note_on,0,0,1,,,,,,,,0,,,83,80
102420,note_on,13,0,1,,,,,,,,0,,,87,80
102420,note_on,0,0,2,,,,,,,,0,,,71,80
102420,note_on,13,0,2,,,,,,,,0,,,66,80
102467,note_on,47,0,2,,,,,,,,0,,,59,0
102467,note_on,0,0,2,,,,,,,,0,,,63,0
102467,note_on,0,0,1,,,,,,,,0,,,87,0
102467,note_on,47,0,1,,,,,,,,0,,,83,0
102479,note_on,0,0,2,,,,,,,,0,,,63,80
102479,note_on,12,0,2,,,,,,,,0,,,59,80
102479,note_on,12,0,1,,,,,,,,0,,,95,80
102479,note_on,0,0,1,,,,,,,,0,,,90,80
102526,note_on,0,0,2,,,,,,,,0,,,71,0
102526,note_on,0,0,1,,,,,,,,0,,,95,0
102526,note_on,47,0,1,,,,,,,,0,,,90,0
102526,note_on,47,0,2,,,,,,,,0,,,66,0
102539,note_on,13,0,2,,,,,,,,0,,,66,80
102539,note_on,0,0,2,,,,,,,,0,,,71,80
102587,note_on,48,0,2,,,,,,,,0,,,71,0
102587,note_on,0,0,2,,,,,,,,0,,,66,0
102587,note_on,0,0,2,,,,,,,,0,,,63,0
102587,note_on,0,0,2,,,,,,,,0,,,59,0
102600,note_on,0,0,2,,,,,,,,0,,,34,48
102600,control_change,664,0,3,,,,,,,,0,64,0,,
102600,note_on,0,0,2,,,,,,,,0,,,37,48
102600,note_on,74,0,1,,,,,,,,0,,,61,88
102600,note_on,0,0,1,,,,,,,,0,,,73,88
102600,note_on,13,0,2,,,,,,,,0,,,30,80
102616,control_change,16,0,3,,,,,,,,0,64,127,,
102647,note_on,0,0,1,,,,,,,,0,,,61,0
102647,note_on,47,0,1,,,,,,,,0,,,73,0
102659,note_on,59,0,2,,,,,,,,0,,,42,80
102659,note_on,12,0,1,,,,,,,,0,,,66,80
102706,note_on,47,0,1,,,,,,,,0,,,66,0
102719,note_on,13,0,1,,,,,,,,0,,,73,80
102719,note_on,0,0,1,,,,,,,,0,,,70,80
102719,note_on,0,0,2,,,,,,,,0,,,30,0
102719,note_on,0,0,2,,,,,,,,0,,,30,80
102719,note_on,0,0,2,,,,,,,,0,,,34,0
102719,note_on,0,0,2,,,,,,,,0,,,34,48
102719,note_on,0,0,2,,,,,,,,0,,,37,48
102719,note_on,60,0,2,,,,,,,,0,,,37,0
102767,note_on,48,0,1,,,,,,,,0,,,70,0
102767,note_on,0,0,1,,,,,,,,0,,,73,0
102780,note_on,13,0,1,,,,,,,,0,,,78,80
102780,note_on,0,0,1,,,,,,,,0,,,73,80
102780,note_on,0,0,2,,,,,,,,0,,,42,80
102780,note_on,61,0,2,,,,,,,,0,,,42,0
102827,note_on,0,0,1,,,,,,,,0,,,78,0
102827,note_on,47,0,1,,,,,,,,0,,,73,0
102839,note_on,0,0,1,,,,,,,,0,,,85,80
102839,note_on,0,0,2,,,,,,,,0,,,37,48
102839,note_on,0,0,2,,,,,,,,0,,,37,0
102839,note_on,0,0,2,,,,,,,,0,,,34,48
102839,note_on,0,0,2,,,,,,,,0,,,34,0
102839,note_on,59,0,2,,,,,,,,0,,,30,0
102839,note_on,0,0,2,,,,,,,,0,,,30,80
102839,note_on,12,0,1,,,,,,,,0,,,82,80
102886,note_on,0,0,1,,,,,,,,0,,,82,0
102886,note_on,47,0,1,,,,,,,,0,,,85,0
102899,note_on,0,0,1,,,,,,,,0,,,90,80
102899,note_on,13,0,1,,,,,,,,0,,,85,80
102899,note_on,60,0,2,,,,,,,,0,,,42,0
102899,note_on,0,0,2,,,,,,,,0,,,42,80
102947,note_on,48,0,1,,,,,,,,0,,,90,0
102947,note_on,0,0,1,,,,,,,,0,,,85,0
102960,note_on,61,0,2,,,,,,,,0,,,30,0
102960,note_on,13,0,1,,,,,,,,0,,,97,80
102960,note_on,0,0,2,,,,,,,,0,,,37,48
102960,note_on,0,0,2,,,,,,,,0,,,37,0
102960,note_on,0,0,2,,,,,,,,0,,,34,48
102960,note_on,0,0,2,,,,,,,,0,,,34,0
102960,note_on,0,0,2,,,,,,,,0,,,30,80
102960,note_on,0,0,1,,,,,,,,0,,,94,80
103007,note_on,0,0,1,,,,,,,,0,,,97,0
103007,note_on,47,0,1,,,,,,,,0,,,94,0
103019,note_on,0,0,1,,,,,,,,0,,,85,80
103019,note_on,59,0,2,,,,,,,,0,,,42,0
103019,note_on,0,0,2,,,,,,,,0,,,42,80
103019,note_on,12,0,1,,,,,,,,0,,,90,80
103066,note_on,47,0,1,,,,,,,,0,,,85,0
103066,note_on,0,0,1,,,,,,,,0,,,90,0
103079,note_on,0,0,2,,,,,,,,0,,,30,80
103079,note_on,0,0,2,,,,,,,,0,,,34,0
103079,note_on,0,0,2,,,,,,,,0,,,34,48
103079,note_on,0,0,2,,,,,,,,0,,,37,0
103079,note_on,0,0,2,,,,,,,,0,,,37,48
103079,note_on,13,0,1,,,,,,,,0,,,97,80
103079,note_on,0,0,1,,,,,,,,0,,,94,80
103079,note_on,60,0,2,,,,,,,,0,,,30,0
103127,note_on,48,0,1,,,,,,,,0,,,94,0
103127,note_on,0,0,1,,,,,,,,0,,,97,0
103140,note_on,0,0,1,,,,,,,,0,,,85,80
103140,note_on,61,0,2,,,,,,,,0,,,42,0
103140,note_on,0,0,2,,,,,,,,0,,,42,80
103140,note_on,13,0,1,,,,,,,,0,,,90,80
103187,note_on,0,0,1,,,,,,,,0,,,90,0
103187,note_on,47,0,1,,,,,,,,0,,,85,0
103199,note_on,0,0,2,,,,,,,,0,,,30,0
103199,note_on,0,0,1,,,,,,,,0,,,97,80
103199,note_on,0,0,2,,,,,,,,0,,,30,80
103199,note_on,59,0,2,,,,,,,,0,,,37,0
103199,note_on,0,0,2,,,,,,,,0,,,34,48
103199,note_on,12,0,1,,,,,,,,0,,,94,80
103199,note_on,0,0,2,,,,,,,,0,,,37,48
103199,note_on,0,0,2,,,,,,,,0,,,34,0
103246,note_on,47,0,1,,,,,,,,0,,,97,0
103246,note_on,0,0,1,,,,,,,,0,,,94,0
103259,note_on,13,0,1,,,,,,,,0,,,90,80
103259,note_on,0,0,2,,,,,,,,0,,,42,80
103259,note_on,0,0,1,,,,,,,,0,,,85,80
103259,note_on,60,0,2,,,,,,,,0,,,42,0
103307,note_on,48,0,1,,,,,,,,0,,,85,0
103307,note_on,0,0,1,,,,,,,,0,,,90,0
103320,note_on,61,0,2,,,,,,,,0,,,42,0
103320,note_on,13,0,1,,,,,,,,0,,,97,80
103320,note_on,0,0,2,,,,,,,,0,,,42,80
103320,note_on,0,0,2,,,,,,,,0,,,37,80
103320,note_on,0,0,2,,,,,,,,0,,,37,0
103320,note_on,0,0,2,,,,,,,,0,,,34,80
103320,note_on,0,0,2,,,,,,,,0,,,34,0
103320,note_on,0,0,2,,,,,,,,0,,,30,80
103320,note_on,0,0,2,,,,,,,,0,,,30,0
103320,control_change,704,0,3,,,,,,,,0,64,0,,
103320,note_on,0,0,1,,,,,,,,0,,,94,80
103349,control_change,29,0,3,,,,,,,,0,64,127,,
103367,note_on,47,0,1,,,,,,,,0,,,94,0
103367,note_on,0,0,1,,,,,,,,0,,,97,0
103379,note_on,0,0,1,,,,,,,,0,,,85,80
103379,note_on,12,0,1,,,,,,,,0,,,90,80
103426,note_on,0,0,1,,,,,,,,0,,,90,0
103426,note_on,47,0,1,,,,,,,,0,,,85,0
103439,note_on,13,0,1,,,,,,,,0,,,97,80
103439,note_on,0,0,1,,,,,,,,0,,,94,80
103487,note_on,48,0,1,,,,,,,,0,,,94,0
103487,note_on,0,0,1,,,,,,,,0,,,97,0
103500,note_on,13,0,1,,,,,,,,0,,,90,80
103500,note_on,0,0,1,,,,,,,,0,,,85,80
103547,note_on,0,0,1,,,,,,,,0,,,90,0
103547,note_on,47,0,1,,,,,,,,0,,,85,0
103559,note_on,12,0,1,,,,,,,,0,,,97,80
103559,note_on,0,0,1,,,,,,,,0,,,94,80
103562,set_tempo,31202,1,0,,,,,,602894,,,,,,
103606,note_on,0,0,1,,,,,,,,0,,,97,0
103606,note_on,47,0,1,,,,,,,,0,,,94,0
103619,note_on,13,0,1,,,,,,,,0,,,85,80
103619,note_on,0,0,1,,,,,,,,0,,,90,80
103667,note_on,48,0,1,,,,,,,,0,,,90,0
103667,note_on,0,0,1,,,,,,,,0,,,85,0
103680,note_on,360,0,2,,,,,,,,0,,,42,0
103680,note_on,0,0,1,,,,,,,,0,,,97,80
103680,note_on,13,0,1,,,,,,,,0,,,94,80
103680,note_on,0,0,2,,,,,,,,0,,,61,80
103680,note_on,0,0,2,,,,,,,,0,,,37,0
103680,note_on,0,0,2,,,,,,,,0,,,34,0
103680,note_on,0,0,2,,,,,,,,0,,,30,0
103680,note_on,0,0,2,,,,,,,,0,,,73,80
103727,note_on,47,0,1,,,,,,,,0,,,97,0
103727,note_on,0,0,1,,,,,,,,0,,,94,0
103739,note_on,0,0,1,,,,,,,,0,,,90,80
103739,note_on,12,0,1,,,,,,,,0,,,85,80
103786,note_on,0,0,1,,,,,,,,0,,,85,0
103786,note_on,47,0,1,,,,,,,,0,,,90,0
103799,note_on,13,0,1,,,,,,,,0,,,97,80
103799,note_on,0,0,1,,,,,,,,0,,,94,80
103847,note_on,0,0,1,,,,,,,,0,,,97,0
103847,note_on,48,0,1,,,,,,,,0,,,94,0
103860,note_on,0,0,1,,,,,,,,0,,,90,80
103860,note_on,13,0,1,,,,,,,,0,,,85,80
103889,set_tempo,327,1,0,,,,,,615132,,,,,,
103895,note_on,0,0,2,,,,,,,,0,,,61,0
103895,note_on,215,0,2,,,,,,,,0,,,73,0
103907,note_on,0,0,1,,,,,,,,0,,,85,0
103907,note_on,47,0,1,,,,,,,,0,,,90,0
103919,note_on,12,0,1,,,,,,,,0,,,94,80
103919,note_on,0,0,1,,,,,,,,0,,,97,80
103922,set_tempo,33,1,0,,,,,,621440,,,,,,
103950,note_on,0,0,2,,,,,,,,0,,,73,80
103950,note_on,55,0,2,,,,,,,,0,,,61,80
103961,set_tempo,39,1,0,,,,,,627878,,,,,,
103966,note_on,47,0,1,,,,,,,,0,,,97,0
103966,note_on,0,0,1,,,,,,,,0,,,94,0
103979,note_on,13,0,1,,,,,,,,0,,,85,80
103979,note_on,0,0,1,,,,,,,,0,,,90,80
103994,set_tempo,33,1,0,,,,,,634451,,,,,,
104021,note_on,71,0,2,,,,,,,,0,,,73,0
104021,note_on,0,0,2,,,,,,,,0,,,61,0
104027,note_on,0,0,1,,,,,,,,0,,,85,0
104027,note_on,48,0,1,,,,,,,,0,,,90,0
104033,set_tempo,39,1,0,,,,,,641163,,,,,,
104040,note_on,19,0,2,,,,,,,,0,,,61,80
104040,note_on,13,0,1,,,,,,,,0,,,97,80
104040,note_on,0,0,1,,,,,,,,0,,,94,80
104040,note_on,0,0,2,,,,,,,,0,,,73,80
104051,control_change,702,0,3,,,,,,,,0,64,0,,
104066,set_tempo,33,1,0,,,,,,648018,,,,,,
104082,control_change,31,0,3,,,,,,,,0,64,127,,
104082,end_of_track,0,1,3,,,,,,,,,,,,
104087,note_on,47,0,1,,,,,,,,0,,,94,0
104087,note_on,0,0,1,,,,,,,,0,,,97,0
104099,note_on,12,0,1,,,,,,,,0,,,85,80
104099,note_on,0,0,1,,,,,,,,0,,,90,80
104105,set_tempo,39,1,0,,,,,,655022,,,,,,
104138,set_tempo,33,1,0,,,,,,662179,,,,,,
104146,note_on,47,0,1,,,,,,,,0,,,90,0
104146,note_on,0,0,1,,,,,,,,0,,,85,0
104159,note_on,0,0,1,,,,,,,,0,,,97,80
104159,note_on,13,0,1,,,,,,,,0,,,94,80
104177,set_tempo,39,1,0,,,,,,669493,,,,,,
104207,note_on,48,0,1,,,,,,,,0,,,97,0
104207,note_on,0,0,1,,,,,,,,0,,,94,0
104210,set_tempo,33,1,0,,,,,,676972,,,,,,
104220,note_on,0,0,1,,,,,,,,0,,,90,80
104220,note_on,13,0,1,,,,,,,,0,,,85,80
104243,set_tempo,33,1,0,,,,,,684619,,,,,,
104267,note_on,47,0,1,,,,,,,,0,,,90,0
104267,note_on,0,0,1,,,,,,,,0,,,85,0
104279,note_on,12,0,1,,,,,,,,0,,,94,80
104279,note_on,0,0,1,,,,,,,,0,,,97,80
104282,set_tempo,39,1,0,,,,,,692441,,,,,,
104315,set_tempo,33,1,0,,,,,,700444,,,,,,
104326,note_on,0,0,1,,,,,,,,0,,,94,0
104326,note_on,0,0,2,,,,,,,,0,,,61,0
104326,note_on,47,0,1,,,,,,,,0,,,97,0
104326,note_on,286,0,2,,,,,,,,0,,,73,0
104339,note_on,13,0,1,,,,,,,,0,,,85,80
104339,note_on,0,0,1,,,,,,,,0,,,90,80
104354,set_tempo,39,1,0,,,,,,708634,,,,,,
104387,note_on,48,0,1,,,,,,,,0,,,90,0
104387,note_on,0,0,1,,,,,,,,0,,,85,0
104387,set_tempo,33,1,0,,,,,,717017,,,,,,
104400,note_on,74,0,2,,,,,,,,0,,,61,80
104400,note_on,0,0,2,,,,,,,,0,,,73,80
104400,note_on,13,0,1,,,,,,,,0,,,94,80
104400,note_on,0,0,1,,,,,,,,0,,,97,80
104426,set_tempo,39,1,0,,,,,,725602,,,,,,
104447,note_on,47,0,1,,,,,,,,0,,,97,0
104447,note_on,0,0,1,,,,,,,,0,,,94,0
104459,set_tempo,33,1,0,,,,,,734394,,,,,,
104459,note_on,0,0,1,,,,,,,,0,,,90,80
104459,note_on,12,0,1,,,,,,,,0,,,85,80
104498,set_tempo,39,1,0,,,,,,743402,,,,,,
104506,note_on,47,0,1,,,,,,,,0,,,90,0
104506,note_on,0,0,1,,,,,,,,0,,,85,0
104519,note_on,0,0,1,,,,,,,,0,,,97,80
104519,note_on,13,0,1,,,,,,,,0,,,94,80
104531,set_tempo,33,1,0,,,,,,752634,,,,,,
104567,note_on,48,0,1,,,,,,,,0,,,97,0
104567,note_on,0,0,1,,,,,,,,0,,,94,0
104580,note_on,0,0,1,,,,,,,,0,,,90,80
104580,note_on,13,0,1,,,,,,,,0,,,85,80
104627,note_on,0,0,1,,,,,,,,0,,,85,0
104627,note_on,47,0,1,,,,,,,,0,,,90,0
104639,note_on,0,0,1,,,,,,,,0,,,94,80
104639,note_on,12,0,1,,,,,,,,0,,,97,80
104686,note_on,0,0,1,,,,,,,,0,,,97,0
104686,end_of_track,0,1,2,,,,,,,,,,,,
104686,note_on,47,0,1,,,,,,,,0,,,94,0
104686,note_on,286,0,2,,,,,,,,0,,,73,0
104686,note_on,0,0,2,,,,,,,,0,,,61,0
104699,note_on,13,0,1,,,,,,,,0,,,85,80
104699,note_on,0,0,1,,,,,,,,0,,,90,80
104747,note_on,48,0,1,,,,,,,,0,,,90,0
104747,note_on,0,0,1,,,,,,,,0,,,85,0
104760,time_signature,229,1,0,4,4,24,8,,,,,,,,
104760,note_on,0,0,1,,,,,,,,0,,,66,80
104760,note_on,0,0,1,,,,,,,,0,,,62,80
104760,note_on,0,0,1,,,,,,,,0,,,60,80
104760,note_on,0,0,1,,,,,,,,0,,,54,80
104760,note_on,0,0,1,,,,,,,,0,,,50,80
104760,note_on,0,0,1,,,,,,,,0,,,45,80
104760,control_change,0,0,1,,,,,,,,0,64,0,,
104760,control_change,0,0,1,,,,,,,,0,64,127,,
104760,note_on,13,0,1,,,,,,,,0,,,74,80
104760,set_tempo,0,1,0,,,,,,735114,,,,,,
104904,note_on,144,0,1,,,,,,,,0,,,45,0
104904,note_on,0,0,1,,,,,,,,0,,,50,0
104904,note_on,0,0,1,,,,,,,,0,,,54,0
104904,note_on,0,0,1,,,,,,,,0,,,60,0
104904,note_on,0,0,1,,,,,,,,0,,,62,0
104904,note_on,0,0,1,,,,,,,,0,,,66,0
104904,note_on,0,0,1,,,,,,,,0,,,74,0
104940,note_on,36,0,1,,,,,,,,0,,,74,80
104940,note_on,0,0,1,,,,,,,,0,,,66,80
104940,note_on,0,0,1,,,,,,,,0,,,62,80
104940,note_on,0,0,1,,,,,,,,0,,,78,80
104940,note_on,0,0,1,,,,,,,,0,,,86,80
104940,note_on,0,0,1,,,,,,,,0,,,72,80
105084,note_on,0,0,1,,,,,,,,0,,,66,0
105084,note_on,0,0,1,,,,,,,,0,,,72,0
105084,note_on,0,0,1,,,,,,,,0,,,74,0
105084,note_on,0,0,1,,,,,,,,0,,,78,0
105084,note_on,0,0,1,,,,,,,,0,,,86,0
105084,note_on,144,0,1,,,,,,,,0,,,62,0
105120,note_on,0,0,1,,,,,,,,0,,,78,80
105120,note_on,36,0,1,,,,,,,,0,,,86,80
105120,note_on,0,0,1,,,,,,,,0,,,74,80
105120,note_on,0,0,1,,,,,,,,0,,,84,80
105120,control_change,0,0,1,,,,,,,,0,64,0,,
105120,note_on,0,0,1,,,,,,,,0,,,90,80
105120,note_on,0,0,1,,,,,,,,0,,,98,80
105264,note_on,0,0,1,,,,,,,,0,,,86,0
105264,note_on,0,0,1,,,,,,,,0,,,90,0
105264,note_on,0,0,1,,,,,,,,0,,,98,0
105264,note_on,144,0,1,,,,,,,,0,,,78,0
105264,note_on,0,0,1,,,,,,,,0,,,74,0
105264,note_on,0,0,1,,,,,,,,0,,,84,0
105300,note_on,36,0,1,,,,,,,,0,,,74,80
105300,note_on,0,0,1,,,,,,,,0,,,72,80
105300,note_on,0,0,1,,,,,,,,0,,,86,80
105300,note_on,0,0,1,,,,,,,,0,,,78,80
105300,note_on,0,0,1,,,,,,,,0,,,66,80
105300,note_on,0,0,1,,,,,,,,0,,,62,80
105444,note_on,0,0,1,,,,,,,,0,,,72,0
105444,note_on,0,0,1,,,,,,,,0,,,62,0
105444,note_on,144,0,1,,,,,,,,0,,,66,0
105444,note_on,0,0,1,,,,,,,,0,,,86,0
105444,note_on,0,0,1,,,,,,,,0,,,78,0
105444,note_on,0,0,1,,,,,,,,0,,,74,0
105480,note_on,0,0,1,,,,,,,,0,,,54,80
105480,note_on,0,0,1,,,,,,,,0,,,66,80
105480,note_on,0,0,1,,,,,,,,0,,,73,80
105480,note_on,36,0,1,,,,,,,,0,,,61,80
105480,note_on,0,0,1,,,,,,,,0,,,60,80
105480,note_on,0,0,1,,,,,,,,0,,,45,80
105480,note_on,0,0,1,,,,,,,,0,,,50,80
105624,note_on,0,0,1,,,,,,,,0,,,60,0
105624,note_on,0,0,1,,,,,,,,0,,,61,0
105624,note_on,0,0,1,,,,,,,,0,,,66,0
105624,note_on,0,0,1,,,,,,,,0,,,73,0
105624,note_on,0,0,1,,,,,,,,0,,,45,0
105624,note_on,0,0,1,,,,,,,,0,,,54,0
105624,note_on,144,0,1,,,,,,,,0,,,50,0
105660,note_on,0,0,1,,,,,,,,0,,,60,80
105660,note_on,0,0,1,,,,,,,,0,,,54,80
105660,note_on,0,0,1,,,,,,,,0,,,50,80
105660,note_on,36,0,1,,,,,,,,0,,,85,80
105660,note_on,0,0,1,,,,,,,,0,,,73,80
105804,note_on,144,0,1,,,,,,,,0,,,54,0
105804,note_on,0,0,1,,,,,,,,0,,,50,0
105804,note_on,0,0,1,,,,,,,,0,,,60,0
105804,note_on,0,0,1,,,,,,,,0,,,73,0
105804,note_on,0,0,1,,,,,,,,0,,,85,0
105840,note_on,36,0,1,,,,,,,,0,,,66,80
105840,note_on,0,0,1,,,,,,,,0,,,45,80
105840,note_on,0,0,1,,,,,,,,0,,,50,80
105840,note_on,0,0,1,,,,,,,,0,,,54,80
105840,note_on,0,0,1,,,,,,,,0,,,60,80
105840,note_on,0,0,1,,,,,,,,0,,,62,80
105840,note_on,0,0,1,,,,,,,,0,,,74,80
105840,control_change,0,0,1,,,,,,,,0,64,127,,
105984,note_on,0,0,1,,,,,,,,0,,,54,0
105984,note_on,0,0,1,,,,,,,,0,,,74,0
105984,note_on,0,0,1,,,,,,,,0,,,66,0
105984,note_on,144,0,1,,,,,,,,0,,,60,0
105984,note_on,0,0,1,,,,,,,,0,,,50,0
105984,note_on,0,0,1,,,,,,,,0,,,45,0
105984,note_on,0,0,1,,,,,,,,0,,,62,0
106020,note_on,0,0,1,,,,,,,,0,,,50,80
106020,note_on,0,0,1,,,,,,,,0,,,54,80
106020,note_on,0,0,1,,,,,,,,0,,,60,80
106020,note_on,0,0,1,,,,,,,,0,,,86,80
106020,note_on,36,0,1,,,,,,,,0,,,74,80
106164,note_on,0,0,1,,,,,,,,0,,,50,0
106164,note_on,144,0,1,,,,,,,,0,,,54,0
106164,note_on,0,0,1,,,,,,,,0,,,60,0
106164,note_on,0,0,1,,,,,,,,0,,,74,0
106164,note_on,0,0,1,,,,,,,,0,,,86,0
106200,control_change,0,0,1,,,,,,,,0,64,0,,
106200,note_on,36,0,1,,,,,,,,0,,,75,80
106200,note_on,0,0,1,,,,,,,,0,,,45,80
106200,note_on,0,0,1,,,,,,,,0,,,50,80
106200,note_on,0,0,1,,,,,,,,0,,,54,80
106200,note_on,0,0,1,,,,,,,,0,,,60,80
106200,note_on,0,0,1,,,,,,,,0,,,66,80
106200,note_on,0,0,1,,,,,,,,0,,,63,80
106344,note_on,144,0,1,,,,,,,,0,,,50,0
106344,note_on,0,0,1,,,,,,,,0,,,54,0
106344,note_on,0,0,1,,,,,,,,0,,,45,0
106344,note_on,0,0,1,,,,,,,,0,,,60,0
106344,note_on,0,0,1,,,,,,,,0,,,63,0
106344,note_on,0,0,1,,,,,,,,0,,,66,0
106344,note_on,0,0,1,,,,,,,,0,,,75,0
106380,note_on,0,0,1,,,,,,,,0,,,60,80
106380,note_on,0,0,1,,,,,,,,0,,,75,80
106380,note_on,0,0,1,,,,,,,,0,,,50,80
106380,note_on,0,0,1,,,,,,,,0,,,54,80
106380,note_on,36,0,1,,,,,,,,0,,,87,80
106524,note_on,0,0,1,,,,,,,,0,,,87,0
106524,note_on,144,0,1,,,,,,,,0,,,54,0
106524,note_on,0,0,1,,,,,,,,0,,,50,0
106524,note_on,0,0,1,,,,,,,,0,,,60,0
106524,note_on,0,0,1,,,,,,,,0,,,75,0
106560,note_on,0,0,1,,,,,,,,0,,,62,80
106560,note_on,0,0,1,,,,,,,,0,,,60,80
106560,note_on,0,0,1,,,,,,,,0,,,54,80
106560,note_on,0,0,1,,,,,,,,0,,,50,80
106560,note_on,0,0,1,,,,,,,,0,,,74,80
106560,control_change,0,0,1,,,,,,,,0,64,127,,
106560,note_on,36,0,1,,,,,,,,0,,,66,80
106560,note_on,0,0,1,,,,,,,,0,,,45,80
106704,note_on,0,0,1,,,,,,,,0,,,62,0
106704,note_on,0,0,1,,,,,,,,0,,,60,0
106704,note_on,0,0,1,,,,,,,,0,,,54,0
106704,note_on,0,0,1,,,,,,,,0,,,66,0
106704,note_on,144,0,1,,,,,,,,0,,,45,0
106704,note_on,0,0,1,,,,,,,,0,,,74,0
106704,note_on,0,0,1,,,,,,,,0,,,50,0
106740,note_on,36,0,1,,,,,,,,0,,,86,80
106740,note_on,0,0,1,,,,,,,,0,,,50,80
106740,note_on,0,0,1,,,,,,,,0,,,54,80
106740,note_on,0,0,1,,,,,,,,0,,,60,80
106740,note_on,0,0,1,,,,,,,,0,,,74,80
106884,note_on,144,0,1,,,,,,,,0,,,50,0
106884,note_on,0,0,1,,,,,,,,0,,,86,0
106884,note_on,0,0,1,,,,,,,,0,,,54,0
106884,note_on,0,0,1,,,,,,,,0,,,60,0
106884,note_on,0,0,1,,,,,,,,0,,,74,0
106920,note_on,0,0,1,,,,,,,,0,,,43,80
106920,note_on,36,0,1,,,,,,,,0,,,71,80
106920,note_on,0,0,1,,,,,,,,0,,,55,80
106920,note_on,0,0,1,,,,,,,,0,,,59,80
106920,note_on,0,0,1,,,,,,,,0,,,62,80
106920,control_change,0,0,1,,,,,,,,0,64,127,,
106920,note_on,0,0,1,,,,,,,,0,,,50,80
107064,note_on,0,0,1,,,,,,,,0,,,71,0
107064,note_on,0,0,1,,,,,,,,0,,,62,0
107064,note_on,0,0,1,,,,,,,,0,,,55,0
107064,note_on,0,0,1,,,,,,,,0,,,59,0
107064,note_on,0,0,1,,,,,,,,0,,,43,0
107064,note_on,144,0,1,,,,,,,,0,,,50,0
107100,note_on,36,0,1,,,,,,,,0,,,74,80
107100,note_on,0,0,1,,,,,,,,0,,,59,80
107100,note_on,0,0,1,,,,,,,,0,,,62,80
107100,note_on,0,0,1,,,,,,,,0,,,67,80
107100,note_on,0,0,1,,,,,,,,0,,,71,80
107100,note_on,0,0,1,,,,,,,,0,,,83,80
107244,note_on,144,0,1,,,,,,,,0,,,59,0
107244,note_on,0,0,1,,,,,,,,0,,,83,0
107244,note_on,0,0,1,,,,,,,,0,,,71,0
107244,note_on,0,0,1,,,,,,,,0,,,67,0
107244,note_on,0,0,1,,,,,,,,0,,,62,0
107244,note_on,0,0,1,,,,,,,,0,,,74,0
107280,note_on,0,0,1,,,,,,,,0,,,71,80
107280,note_on,0,0,1,,,,,,,,0,,,74,80
107280,note_on,0,0,1,,,,,,,,0,,,79,80
107280,note_on,0,0,1,,,,,,,,0,,,86,80
107280,note_on,0,0,1,,,,,,,,0,,,95,80
107280,note_on,36,0,1,,,,,,,,0,,,83,80
107280,control_change,0,0,1,,,,,,,,0,64,0,,
107424,note_on,0,0,1,,,,,,,,0,,,83,0
107424,note_on,0,0,1,,,,,,,,0,,,86,0
107424,note_on,144,0,1,,,,,,,,0,,,79,0
107424,note_on,0,0,1,,,,,,,,0,,,74,0
107424,note_on,0,0,1,,,,,,,,0,,,71,0
107424,note_on,0,0,1,,,,,,,,0,,,95,0
107460,note_on,0,0,1,,,,,,,,0,,,59,80
107460,note_on,0,0,1,,,,,,,,0,,,62,80
107460,note_on,0,0,1,,,,,,,,0,,,67,80
107460,note_on,0,0,1,,,,,,,,0,,,74,80
107460,note_on,0,0,1,,,,,,,,0,,,83,80
107460,note_on,36,0,1,,,,,,,,0,,,71,80
107604,note_on,144,0,1,,,,,,,,0,,,62,0
107604,note_on,0,0,1,,,,,,,,0,,,67,0
107604,note_on,0,0,1,,,,,,,,0,,,74,0
107604,note_on,0,0,1,,,,,,,,0,,,71,0
107604,note_on,0,0,1,,,,,,,,0,,,59,0
107604,note_on,0,0,1,,,,,,,,0,,,83,0
107640,note_on,0,0,1,,,,,,,,0,,,79,80
107640,note_on,36,0,1,,,,,,,,0,,,67,80
107640,time_signature,2880,1,0,8,4,24,8,,,,,,,,
107640,note_on,0,0,1,,,,,,,,0,,,55,80
107640,note_on,0,0,1,,,,,,,,0,,,47,80
107640,note_on,0,0,1,,,,,,,,0,,,40,80
107640,note_on,0,0,1,,,,,,,,0,,,71,80
107784,note_on,144,0,1,,,,,,,,0,,,40,0
107784,note_on,0,0,1,,,,,,,,0,,,47,0
107784,note_on,0,0,1,,,,,,,,0,,,55,0
107784,note_on,0,0,1,,,,,,,,0,,,67,0
107784,note_on,0,0,1,,,,,,,,0,,,71,0
107784,note_on,0,0,1,,,,,,,,0,,,79,0
107820,note_on,0,0,1,,,,,,,,0,,,67,80
107820,note_on,36,0,1,,,,,,,,0,,,91,80
107820,note_on,0,0,1,,,,,,,,0,,,83,80
107820,note_on,0,0,1,,,,,,,,0,,,64,80
107820,note_on,0,0,1,,,,,,,,0,,,59,80
107820,note_on,0,0,1,,,,,,,,0,,,79,80
107964,note_on,0,0,1,,,,,,,,0,,,59,0
107964,note_on,0,0,1,,,,,,,,0,,,64,0
107964,note_on,0,0,1,,,,,,,,0,,,79,0
107964,note_on,0,0,1,,,,,,,,0,,,83,0
107964,note_on,0,0,1,,,,,,,,0,,,91,0
107964,note_on,144,0,1,,,,,,,,0,,,67,0
108000,note_on,36,0,1,,,,,,,,0,,,76,80
108000,note_on,0,0,1,,,,,,,,0,,,67,80
108000,note_on,0,0,1,,,,,,,,0,,,40,80
108000,note_on,0,0,1,,,,,,,,0,,,64,80
108000,note_on,0,0,1,,,,,,,,0,,,47,80
108000,note_on,0,0,1,,,,,,,,0,,,52,80
108144,note_on,144,0,1,,,,,,,,0,,,40,0
108144,note_on,0,0,1,,,,,,,,0,,,47,0
108144,note_on,0,0,1,,,,,,,,0,,,64,0
108144,note_on,0,0,1,,,,,,,,0,,,67,0
108144,note_on,0,0,1,,,,,,,,0,,,76,0
108180,note_on,0,0,1,,,,,,,,0,,,64,80
108180,note_on,0,0,1,,,,,,,,0,,,59,80
108180,note_on,36,0,1,,,,,,,,0,,,88,80
108180,note_on,0,0,1,,,,,,,,0,,,55,80
108180,note_on,0,0,1,,,,,,,,0,,,79,80
108180,note_on,0,0,1,,,,,,,,0,,,76,80
108324,note_on,0,0,1,,,,,,,,0,,,79,0
108324,note_on,144,0,1,,,,,,,,0,,,55,0
108324,note_on,0,0,1,,,,,,,,0,,,59,0
108324,note_on,0,0,1,,,,,,,,0,,,88,0
108324,note_on,0,0,1,,,,,,,,0,,,76,0
108324,note_on,0,0,1,,,,,,,,0,,,64,0
108360,control_change,0,0,1,,,,,,,,0,64,127,,
108360,note_on,0,0,1,,,,,,,,0,,,60,80
108360,note_on,36,0,1,,,,,,,,0,,,64,80
108360,note_on,0,0,1,,,,,,,,0,,,48,80
108360,note_on,0,0,1,,,,,,,,0,,,45,80
108360,note_on,0,0,1,,,,,,,,0,,,36,80
108360,note_on,0,0,1,,,,,,,,0,,,72,80
108504,note_on,0,0,1,,,,,,,,0,,,48,0
108504,note_on,0,0,1,,,,,,,,0,,,36,0
108504,note_on,0,0,1,,,,,,,,0,,,64,0
108504,note_on,144,0,1,,,,,,,,0,,,45,0
108504,note_on,0,0,1,,,,,,,,0,,,60,0
108504,note_on,0,0,1,,,,,,,,0,,,72,0
108540,note_on,0,0,1,,,,,,,,0,,,52,80
108540,note_on,0,0,1,,,,,,,,0,,,84,80
108540,note_on,36,0,1,,,,,,,,0,,,76,80
108540,note_on,0,0,1,,,,,,,,0,,,57,80
108540,note_on,0,0,1,,,,,,,,0,,,60,80
108540,note_on,0,0,1,,,,,,,,0,,,72,80
108542,note_on,2,0,1,,,,,,,,0,,,52,0
108684,note_on,142,0,1,,,,,,,,0,,,60,0
108684,note_on,0,0,1,,,,,,,,0,,,52,0
108684,note_on,0,0,1,,,,,,,,0,,,57,0
108684,note_on,0,0,1,,,,,,,,0,,,72,0
108684,note_on,0,0,1,,,,,,,,0,,,76,0
108684,note_on,0,0,1,,,,,,,,0,,,84,0
108720,note_on,0,0,1,,,,,,,,0,,,69,80
108720,note_on,0,0,1,,,,,,,,0,,,57,80
108720,control_change,0,0,1,,,,,,,,0,64,0,,
108720,note_on,0,0,1,,,,,,,,0,,,40,80
108720,note_on,0,0,1,,,,,,,,0,,,45,80
108720,note_on,36,0,1,,,,,,,,0,,,60,80
108720,note_on,0,0,1,,,,,,,,0,,,36,80
108864,note_on,144,0,1,,,,,,,,0,,,36,0
108864,note_on,0,0,1,,,,,,,,0,,,40,0
108864,note_on,0,0,1,,,,,,,,0,,,45,0
108864,note_on,0,0,1,,,,,,,,0,,,57,0
108864,note_on,0,0,1,,,,,,,,0,,,60,0
108864,note_on,0,0,1,,,,,,,,0,,,69,0
108900,note_on,0,0,1,,,,,,,,0,,,69,80
108900,note_on,36,0,1,,,,,,,,0,,,81,80
108900,note_on,0,0,1,,,,,,,,0,,,48,80
108900,note_on,0,0,1,,,,,,,,0,,,52,80
108900,note_on,0,0,1,,,,,,,,0,,,57,80
108900,note_on,0,0,1,,,,,,,,0,,,72,80
108926,note_on,26,0,1,,,,,,,,0,,,52,0
109044,note_on,118,0,1,,,,,,,,0,,,69,0
109044,note_on,0,0,1,,,,,,,,0,,,57,0
109044,note_on,0,0,1,,,,,,,,0,,,72,0
109044,note_on,0,0,1,,,,,,,,0,,,81,0
109044,note_on,0,0,1,,,,,,,,0,,,48,0
109080,note_on,0,0,1,,,,,,,,0,,,38,80
109080,note_on,0,0,1,,,,,,,,0,,,43,80
109080,note_on,0,0,1,,,,,,,,0,,,55,80
109080,note_on,0,0,1,,,,,,,,0,,,67,80
109080,note_on,36,0,1,,,,,,,,0,,,59,80
109080,control_change,0,0,1,,,,,,,,0,64,127,,
109224,note_on,0,0,1,,,,,,,,0,,,38,0
109224,note_on,0,0,1,,,,,,,,0,,,55,0
109224,note_on,0,0,1,,,,,,,,0,,,59,0
109224,note_on,0,0,1,,,,,,,,0,,,67,0
109224,note_on,144,0,1,,,,,,,,0,,,43,0
109260,note_on,36,0,1,,,,,,,,0,,,67,80
109260,note_on,0,0,1,,,,,,,,0,,,79,80
109260,note_on,0,0,1,,,,,,,,0,,,50,80
109260,note_on,0,0,1,,,,,,,,0,,,55,80
109260,note_on,0,0,1,,,,,,,,0,,,71,80
109260,note_on,0,0,1,,,,,,,,0,,,47,80
109404,note_on,0,0,1,,,,,,,,0,,,55,0
109404,note_on,0,0,1,,,,,,,,0,,,50,0
109404,note_on,144,0,1,,,,,,,,0,,,47,0
109404,note_on,0,0,1,,,,,,,,0,,,71,0
109404,note_on,0,0,1,,,,,,,,0,,,67,0
109404,note_on,0,0,1,,,,,,,,0,,,79,0
109440,note_on,0,0,1,,,,,,,,0,,,47,80
109440,note_on,36,0,1,,,,,,,,0,,,62,80
109440,note_on,0,0,1,,,,,,,,0,,,38,80
109440,note_on,0,0,1,,,,,,,,0,,,43,80
109440,note_on,0,0,1,,,,,,,,0,,,59,80
109440,note_on,0,0,1,,,,,,,,0,,,71,80
109584,note_on,0,0,1,,,,,,,,0,,,71,0
109584,note_on,144,0,1,,,,,,,,0,,,47,0
109584,note_on,0,0,1,,,,,,,,0,,,62,0
109584,note_on,0,0,1,,,,,,,,0,,,59,0
109584,note_on,0,0,1,,,,,,,,0,,,43,0
109584,note_on,0,0,1,,,,,,,,0,,,38,0
109620,note_on,0,0,1,,,,,,,,0,,,55,80
109620,note_on,0,0,1,,,,,,,,0,,,59,80
109620,note_on,0,0,1,,,,,,,,0,,,71,80
109620,note_on,0,0,1,,,,,,,,0,,,74,80
109620,note_on,0,0,1,,,,,,,,0,,,50,80
109620,note_on,36,0,1,,,,,,,,0,,,83,80
109764,note_on,0,0,1,,,,,,,,0,,,74,0
109764,note_on,0,0,1,,,,,,,,0,,,83,0
109764,note_on,144,0,1,,,,,,,,0,,,59,0
109764,note_on,0,0,1,,,,,,,,0,,,71,0
109764,note_on,0,0,1,,,,,,,,0,,,55,0
109764,note_on,0,0,1,,,,,,,,0,,,50,0
109800,note_on,0,0,1,,,,,,,,0,,,74,80
109800,note_on,0,0,1,,,,,,,,0,,,70,80
109800,note_on,0,0,1,,,,,,,,0,,,62,80
109800,note_on,0,0,1,,,,,,,,0,,,50,80
109800,note_on,0,0,1,,,,,,,,0,,,46,80
109800,note_on,36,0,1,,,,,,,,0,,,67,80
109800,note_on,0,0,1,,,,,,,,0,,,38,80
109800,control_change,0,0,1,,,,,,,,0,64,0,,
109800,note_on,0,0,1,,,,,,,,0,,,43,80
109944,note_on,0,0,1,,,,,,,,0,,,74,0
109944,note_on,0,0,1,,,,,,,,0,,,67,0
109944,note_on,0,0,1,,,,,,,,0,,,62,0
109944,note_on,0,0,1,,,,,,,,0,,,70,0
109944,note_on,0,0,1,,,,,,,,0,,,43,0
109944,note_on,144,0,1,,,,,,,,0,,,46,0
109944,note_on,0,0,1,,,,,,,,0,,,50,0
109944,note_on,0,0,1,,,,,,,,0,,,38,0
109980,note_on,36,0,1,,,,,,,,0,,,79,80
109980,note_on,0,0,1,,,,,,,,0,,,86,80
109980,note_on,0,0,1,,,,,,,,0,,,50,80
109980,note_on,0,0,1,,,,,,,,0,,,55,80
109980,note_on,0,0,1,,,,,,,,0,,,58,80
109980,note_on,0,0,1,,,,,,,,0,,,62,80
109980,note_on,0,0,1,,,,,,,,0,,,74,80
109980,note_on,0,0,1,,,,,,,,0,,,82,80
110124,note_on,144,0,1,,,,,,,,0,,,50,0
110124,note_on,0,0,1,,,,,,,,0,,,86,0
110124,note_on,0,0,1,,,,,,,,0,,,82,0
110124,note_on,0,0,1,,,,,,,,0,,,55,0
110124,note_on,0,0,1,,,,,,,,0,,,74,0
110124,note_on,0,0,1,,,,,,,,0,,,62,0
110124,note_on,0,0,1,,,,,,,,0,,,58,0
110124,note_on,0,0,1,,,,,,,,0,,,79,0
110160,note_on,36,0,1,,,,,,,,0,,,98,80
110160,note_on,0,0,1,,,,,,,,0,,,94,80
110160,note_on,0,0,1,,,,,,,,0,,,91,80
110160,note_on,0,0,1,,,,,,,,0,,,67,80
110160,note_on,0,0,1,,,,,,,,0,,,74,80
110160,note_on,0,0,1,,,,,,,,0,,,70,80
110160,note_on,0,0,1,,,,,,,,0,,,62,80
110160,note_on,0,0,1,,,,,,,,0,,,86,80
110304,note_on,0,0,1,,,,,,,,0,,,86,0
110304,note_on,0,0,1,,,,,,,,0,,,91,0
110304,note_on,0,0,1,,,,,,,,0,,,94,0
110304,note_on,0,0,1,,,,,,,,0,,,98,0
110304,note_on,0,0,1,,,,,,,,0,,,62,0
110304,note_on,144,0,1,,,,,,,,0,,,67,0
110304,note_on,0,0,1,,,,,,,,0,,,70,0
110304,note_on,0,0,1,,,,,,,,0,,,74,0
110340,note_on,36,0,1,,,,,,,,0,,,86,80
110340,note_on,0,0,1,,,,,,,,0,,,82,80
110340,note_on,0,0,1,,,,,,,,0,,,74,80
110340,note_on,0,0,1,,,,,,,,0,,,62,80
110340,note_on,0,0,1,,,,,,,,0,,,58,80
110340,note_on,0,0,1,,,,,,,,0,,,55,80
110340,note_on,0,0,1,,,,,,,,0,,,50,80
110340,note_on,0,0,1,,,,,,,,0,,,79,80
110484,note_on,144,0,1,,,,,,,,0,,,50,0
110484,note_on,0,0,1,,,,,,,,0,,,55,0
110484,note_on,0,0,1,,,,,,,,0,,,62,0
110484,note_on,0,0,1,,,,,,,,0,,,74,0
110484,note_on,0,0,1,,,,,,,,0,,,79,0
110484,note_on,0,0,1,,,,,,,,0,,,82,0
110484,note_on,0,0,1,,,,,,,,0,,,86,0
110484,note_on,0,0,1,,,,,,,,0,,,58,0
110520,control_change,0,0,1,,,,,,,,0,64,127,,
110520,note_on,36,0,1,,,,,,,,0,,,67,80
110520,note_on,0,0,1,,,,,,,,0,,,69,80
110520,note_on,0,0,1,,,,,,,,0,,,74,80
110520,note_on,0,0,1,,,,,,,,0,,,38,80
110520,note_on,0,0,1,,,,,,,,0,,,43,80
110520,note_on,0,0,1,,,,,,,,0,,,45,80
110520,note_on,0,0,1,,,,,,,,0,,,50,80
110520,note_on,0,0,1,,,,,,,,0,,,62,80
110520,time_signature,2880,1,0,6,4,24,8,,,,,,,,
110664,note_on,144,0,1,,,,,,,,0,,,50,0
110664,note_on,0,0,1,,,,,,,,0,,,38,0
110664,note_on,0,0,1,,,,,,,,0,,,43,0
110664,note_on,0,0,1,,,,,,,,0,,,45,0
110664,note_on,0,0,1,,,,,,,,0,,,62,0
110664,note_on,0,0,1,,,,,,,,0,,,67,0
110664,note_on,0,0,1,,,,,,,,0,,,69,0
110664,note_on,0,0,1,,,,,,,,0,,,74,0
110700,note_on,0,0,1,,,,,,,,0,,,74,80
110700,note_on,0,0,1,,,,,,,,0,,,79,80
110700,note_on,0,0,1,,,,,,,,0,,,86,80
110700,note_on,0,0,1,,,,,,,,0,,,57,80
110700,note_on,36,0,1,,,,,,,,0,,,81,80
110700,note_on,0,0,1,,,,,,,,0,,,62,80
110700,note_on,0,0,1,,,,,,,,0,,,55,80
110700,note_on,0,0,1,,,,,,,,0,,,50,80
110844,note_on,144,0,1,,,,,,,,0,,,62,0
110844,note_on,0,0,1,,,,,,,,0,,,81,0
110844,note_on,0,0,1,,,,,,,,0,,,79,0
110844,note_on,0,0,1,,,,,,,,0,,,74,0
110844,note_on,0,0,1,,,,,,,,0,,,55,0
110844,note_on,0,0,1,,,,,,,,0,,,50,0
110844,note_on,0,0,1,,,,,,,,0,,,86,0
110844,note_on,0,0,1,,,,,,,,0,,,57,0
110880,note_on,36,0,1,,,,,,,,0,,,98,80
110880,control_change,0,0,1,,,,,,,,0,64,0,,
110880,note_on,0,0,1,,,,,,,,0,,,74,80
110880,note_on,0,0,1,,,,,,,,0,,,62,80
110880,note_on,0,0,1,,,,,,,,0,,,67,80
110880,note_on,0,0,1,,,,,,,,0,,,69,80
110880,note_on,0,0,1,,,,,,,,0,,,93,80
110880,note_on,0,0,1,,,,,,,,0,,,91,80
110880,note_on,0,0,1,,,,,,,,0,,,86,80
111024,note_on,0,0,1,,,,,,,,0,,,91,0
111024,note_on,0,0,1,,,,,,,,0,,,86,0
111024,note_on,0,0,1,,,,,,,,0,,,74,0
111024,note_on,0,0,1,,,,,,,,0,,,69,0
111024,note_on,0,0,1,,,,,,,,0,,,67,0
111024,note_on,144,0,1,,,,,,,,0,,,62,0
111024,note_on,0,0,1,,,,,,,,0,,,93,0
111024,note_on,0,0,1,,,,,,,,0,,,98,0
111060,note_on,0,0,1,,,,,,,,0,,,57,80
111060,note_on,0,0,1,,,,,,,,0,,,50,80
111060,note_on,0,0,1,,,,,,,,0,,,62,80
111060,note_on,0,0,1,,,,,,,,0,,,74,80
111060,note_on,0,0,1,,,,,,,,0,,,79,80
111060,note_on,0,0,1,,,,,,,,0,,,55,80
111060,note_on,36,0,1,,,,,,,,0,,,86,80
111060,note_on,0,0,1,,,,,,,,0,,,81,80
111204,note_on,0,0,1,,,,,,,,0,,,74,0
111204,note_on,0,0,1,,,,,,,,0,,,79,0
111204,note_on,0,0,1,,,,,,,,0,,,81,0
111204,note_on,0,0,1,,,,,,,,0,,,86,0
111204,note_on,0,0,1,,,,,,,,0,,,55,0
111204,note_on,0,0,1,,,,,,,,0,,,57,0
111204,note_on,144,0,1,,,,,,,,0,,,62,0
111204,note_on,0,0,1,,,,,,,,0,,,50,0
111240,note_on,36,0,1,,,,,,,,0,,,74,80
111240,note_on,0,0,1,,,,,,,,0,,,38,80
111240,note_on,0,0,1,,,,,,,,0,,,42,80
111240,note_on,0,0,1,,,,,,,,0,,,45,80
111240,note_on,0,0,1,,,,,,,,0,,,50,80
111240,note_on,0,0,1,,,,,,,,0,,,62,80
111240,note_on,0,0,1,,,,,,,,0,,,66,80
111240,note_on,0,0,1,,,,,,,,0,,,69,80
111384,note_on,0,0,1,,,,,,,,0,,,69,0
111384,note_on,0,0,1,,,,,,,,0,,,66,0
111384,note_on,0,0,1,,,,,,,,0,,,74,0
111384,note_on,0,0,1,,,,,,,,0,,,62,0
111384,note_on,144,0,1,,,,,,,,0,,,45,0
111384,note_on,0,0,1,,,,,,,,0,,,42,0
111384,note_on,0,0,1,,,,,,,,0,,,38,0
111384,note_on,0,0,1,,,,,,,,0,,,50,0
111420,note_on,36,0,1,,,,,,,,0,,,78,80
111420,note_on,0,0,1,,,,,,,,0,,,50,80
111420,note_on,0,0,1,,,,,,,,0,,,54,80
111420,note_on,0,0,1,,,,,,,,0,,,57,80
111420,note_on,0,0,1,,,,,,,,0,,,62,80
111420,note_on,0,0,1,,,,,,,,0,,,74,80
111420,note_on,0,0,1,,,,,,,,0,,,81,80
111420,note_on,0,0,1,,,,,,,,0,,,86,80
111564,note_on,0,0,1,,,,,,,,0,,,81,0
111564,note_on,144,0,1,,,,,,,,0,,,62,0
111564,note_on,0,0,1,,,,,,,,0,,,86,0
111564,note_on,0,0,1,,,,,,,,0,,,78,0
111564,note_on,0,0,1,,,,,,,,0,,,74,0
111564,note_on,0,0,1,,,,,,,,0,,,57,0
111564,note_on,0,0,1,,,,,,,,0,,,54,0
111564,note_on,0,0,1,,,,,,,,0,,,50,0
111600,note_on,0,0,1,,,,,,,,0,,,98,80
111600,note_on,0,0,1,,,,,,,,0,,,93,80
111600,note_on,0,0,1,,,,,,,,0,,,90,80
111600,note_on,36,0,1,,,,,,,,0,,,86,80
111600,note_on,0,0,1,,,,,,,,0,,,69,80
111600,note_on,0,0,1,,,,,,,,0,,,66,80
111600,note_on,0,0,1,,,,,,,,0,,,62,80
111600,note_on,0,0,1,,,,,,,,0,,,74,80
111744,note_on,0,0,1,,,,,,,,0,,,62,0
111744,note_on,0,0,1,,,,,,,,0,,,74,0
111744,note_on,0,0,1,,,,,,,,0,,,86,0
111744,note_on,0,0,1,,,,,,,,0,,,90,0
111744,note_on,0,0,1,,,,,,,,0,,,93,0
111744,note_on,0,0,1,,,,,,,,0,,,98,0
111744,note_on,144,0,1,,,,,,,,0,,,69,0
111744,note_on,0,0,1,,,,,,,,0,,,66,0
111780,note_on,36,0,1,,,,,,,,0,,,74,80
111780,note_on,0,0,1,,,,,,,,0,,,86,80
111780,note_on,0,0,1,,,,,,,,0,,,78,80
111780,note_on,0,0,1,,,,,,,,0,,,62,80
111780,note_on,0,0,1,,,,,,,,0,,,50,80
111780,note_on,0,0,1,,,,,,,,0,,,57,80
111780,note_on,0,0,1,,,,,,,,0,,,54,80
111780,note_on,0,0,1,,,,,,,,0,,,81,80
111924,note_on,0,0,1,,,,,,,,0,,,50,0
111924,note_on,144,0,1,,,,,,,,0,,,57,0
111924,note_on,0,0,1,,,,,,,,0,,,54,0
111924,note_on,0,0,1,,,,,,,,0,,,62,0
111924,note_on,0,0,1,,,,,,,,0,,,74,0
111924,note_on,0,0,1,,,,,,,,0,,,78,0
111924,note_on,0,0,1,,,,,,,,0,,,81,0
111924,note_on,0,0,1,,,,,,,,0,,,86,0
111960,note_on,0,0,1,,,,,,,,0,,,43,80
111960,note_on,0,0,1,,,,,,,,0,,,38,80
111960,note_on,0,0,1,,,,,,,,0,,,59,80
111960,note_on,0,0,1,,,,,,,,0,,,62,80
111960,control_change,0,0,1,,,,,,,,0,64,127,,
111960,note_on,0,0,1,,,,,,,,0,,,67,80
111960,note_on,0,0,1,,,,,,,,0,,,35,80
111960,note_on,0,0,1,,,,,,,,0,,,31,80
111960,note_on,36,0,1,,,,,,,,0,,,55,80
112104,note_on,0,0,1,,,,,,,,0,,,35,0
112104,note_on,144,0,1,,,,,,,,0,,,31,0
112104,note_on,0,0,1,,,,,,,,0,,,38,0
112104,note_on,0,0,1,,,,,,,,0,,,43,0
112104,note_on,0,0,1,,,,,,,,0,,,55,0
112104,note_on,0,0,1,,,,,,,,0,,,59,0
112104,note_on,0,0,1,,,,,,,,0,,,62,0
112104,note_on,0,0,1,,,,,,,,0,,,67,0
112140,note_on,0,0,1,,,,,,,,0,,,43,80
112140,note_on,0,0,1,,,,,,,,0,,,47,80
112140,note_on,0,0,1,,,,,,,,0,,,55,80
112140,note_on,0,0,1,,,,,,,,0,,,74,80
112140,note_on,0,0,1,,,,,,,,0,,,79,80
112140,note_on,0,0,1,,,,,,,,0,,,50,80
112140,note_on,0,0,1,,,,,,,,0,,,71,80
112140,note_on,36,0,1,,,,,,,,0,,,67,80
112284,note_on,0,0,1,,,,,,,,0,,,71,0
112284,note_on,144,0,1,,,,,,,,0,,,50,0
112284,note_on,0,0,1,,,,,,,,0,,,43,0
112284,note_on,0,0,1,,,,,,,,0,,,47,0
112284,note_on,0,0,1,,,,,,,,0,,,79,0
112284,note_on,0,0,1,,,,,,,,0,,,74,0
112284,note_on,0,0,1,,,,,,,,0,,,55,0
112284,note_on,0,0,1,,,,,,,,0,,,67,0
112320,note_on,36,0,1,,,,,,,,0,,,86,80
112320,note_on,0,0,1,,,,,,,,0,,,83,80
112320,note_on,0,0,1,,,,,,,,0,,,55,80
112320,note_on,0,0,1,,,,,,,,0,,,59,80
112320,note_on,0,0,1,,,,,,,,0,,,62,80
112320,note_on,0,0,1,,,,,,,,0,,,67,80
112320,note_on,0,0,1,,,,,,,,0,,,79,80
112320,note_on,0,0,1,,,,,,,,0,,,91,80
112464,note_on,0,0,1,,,,,,,,0,,,59,0
112464,note_on,0,0,1,,,,,,,,0,,,62,0
112464,note_on,0,0,1,,,,,,,,0,,,79,0
112464,note_on,0,0,1,,,,,,,,0,,,83,0
112464,note_on,0,0,1,,,,,,,,0,,,86,0
112464,note_on,0,0,1,,,,,,,,0,,,91,0
112464,note_on,144,0,1,,,,,,,,0,,,67,0
112464,note_on,0,0,1,,,,,,,,0,,,55,0
112500,note_on,0,0,1,,,,,,,,0,,,47,80
112500,note_on,0,0,1,,,,,,,,0,,,55,80
112500,note_on,0,0,1,,,,,,,,0,,,67,80
112500,note_on,0,0,1,,,,,,,,0,,,71,80
112500,note_on,0,0,1,,,,,,,,0,,,74,80
112500,note_on,0,0,1,,,,,,,,0,,,50,80
112500,note_on,0,0,1,,,,,,,,0,,,43,80
112500,note_on,36,0,1,,,,,,,,0,,,79,80
112644,note_on,0,0,1,,,,,,,,0,,,55,0
112644,note_on,0,0,1,,,,,,,,0,,,79,0
112644,note_on,0,0,1,,,,,,,,0,,,74,0
112644,note_on,0,0,1,,,,,,,,0,,,71,0
112644,note_on,0,0,1,,,,,,,,0,,,67,0
112644,note_on,144,0,1,,,,,,,,0,,,47,0
112644,note_on,0,0,1,,,,,,,,0,,,50,0
112644,note_on,0,0,1,,,,,,,,0,,,43,0
112680,note_on,0,0,1,,,,,,,,0,,,62,80
112680,note_on,0,0,1,,,,,,,,0,,,59,80
112680,control_change,0,0,1,,,,,,,,0,64,0,,
112680,note_on,0,0,1,,,,,,,,0,,,43,80
112680,note_on,0,0,1,,,,,,,,0,,,31,80
112680,note_on,0,0,1,,,,,,,,0,,,55,80
112680,note_on,36,0,1,,,,,,,,0,,,67,80
112968,note_on,0,0,1,,,,,,,,0,,,67,0
112968,note_on,0,0,1,,,,,,,,0,,,62,0
112968,note_on,288,0,1,,,,,,,,0,,,43,0
112968,note_on,0,0,1,,,,,,,,0,,,59,0
112968,note_on,0,0,1,,,,,,,,0,,,55,0
112968,note_on,0,0,1,,,,,,,,0,,,31,0
113040,note_on,0,0,1,,,,,,,,0,,,43,80
113040,note_on,0,0,1,,,,,,,,0,,,31,80
113040,note_on,0,0,1,,,,,,,,0,,,55,80
113040,note_on,72,0,1,,,,,,,,0,,,67,80
113256,note_on,0,0,1,,,,,,,,0,,,43,0
113256,note_on,0,0,1,,,,,,,,0,,,67,0
113256,note_on,0,0,1,,,,,,,,0,,,55,0
113256,note_on,216,0,1,,,,,,,,0,,,31,0
113310,note_on,0,0,1,,,,,,,,0,,,31,80
113310,note_on,0,0,1,,,,,,,,0,,,55,80
113310,note_on,0,0,1,,,,,,,,0,,,43,80
113310,note_on,54,0,1,,,,,,,,0,,,67,80
113382,note_on,72,0,1,,,,,,,,0,,,55,0
113382,note_on,0,0,1,,,,,,,,0,,,31,0
113382,note_on,0,0,1,,,,,,,,0,,,43,0
113382,note_on,0,0,1,,,,,,,,0,,,67,0
113400,note_on,18,0,1,,,,,,,,0,,,67,80
113400,note_on,0,0,1,,,,,,,,0,,,55,80
113400,note_on,0,0,1,,,,,,,,0,,,31,80
113400,note_on,0,0,1,,,,,,,,0,,,43,80
113688,note_on,0,0,1,,,,,,,,0,,,67,0
113688,note_on,0,0,1,,,,,,,,0,,,55,0
113688,note_on,288,0,1,,,,,,,,0,,,31,0
113688,note_on,0,0,1,,,,,,,,0,,,43,0
113760,note_on,0,0,1,,,,,,,,0,,,31,80
113760,note_on,0,0,1,,,,,,,,0,,,55,80
113760,note_on,0,0,1,,,,,,,,0,,,43,80
113760,note_on,72,0,1,,,,,,,,0,,,67,80
114048,note_on,0,0,1,,,,,,,,0,,,67,0
114048,note_on,0,0,1,,,,,,,,0,,,31,0
114048,note_on,0,0,1,,,,,,,,0,,,43,0
114048,note_on,288,0,1,,,,,,,,0,,,55,0
114120,control_change,72,0,1,,,,,,,,0,64,127,,
114120,note_on,0,0,1,,,,,,,,0,,,53,80
114120,note_on,0,0,1,,,,,,,,0,,,55,80
114120,note_on,0,0,1,,,,,,,,0,,,59,80
114120,note_on,0,0,1,,,,,,,,0,,,62,80
114121,set_tempo,3601,1,0,,,,,,751691,,,,,,
114124,set_tempo,3,1,0,,,,,,666667,,,,,,
114210,note_on,0,0,1,,,,,,,,0,,,67,70
114210,note_on,0,0,1,,,,,,,,0,,,74,70
114210,note_on,90,0,1,,,,,,,,0,,,71,70
114282,note_on,72,0,1,,,,,,,,0,,,67,0
114282,note_on,0,0,1,,,,,,,,0,,,74,0
114282,note_on,0,0,1,,,,,,,,0,,,71,0
114300,note_on,0,0,1,,,,,,,,0,,,79,70
114300,note_on,0,0,1,,,,,,,,0,,,74,70
114300,note_on,18,0,1,,,,,,,,0,,,71,70
114372,note_on,0,0,1,,,,,,,,0,,,79,0
114372,note_on,72,0,1,,,,,,,,0,,,74,0
114372,note_on,0,0,1,,,,,,,,0,,,71,0
114390,note_on,18,0,1,,,,,,,,0,,,79,70
114390,note_on,0,0,1,,,,,,,,0,,,86,70
114390,note_on,0,0,1,,,,,,,,0,,,83,70
114408,note_on,0,0,1,,,,,,,,0,,,53,0
114408,note_on,0,0,1,,,,,,,,0,,,55,0
114408,note_on,0,0,1,,,,,,,,0,,,59,0
114408,note_on,18,0,1,,,,,,,,0,,,62,0
114462,note_on,0,0,1,,,,,,,,0,,,79,0
114462,note_on,0,0,1,,,,,,,,0,,,83,0
114462,note_on,54,0,1,,,,,,,,0,,,86,0
114480,note_on,0,0,1,,,,,,,,0,,,43,80
114480,note_on,0,0,1,,,,,,,,0,,,83,70
114480,note_on,0,0,1,,,,,,,,0,,,86,70
114480,note_on,0,0,1,,,,,,,,0,,,91,70
114480,control_change,0,0,1,,,,,,,,0,64,127,,
114480,control_change,18,0,1,,,,,,,,0,64,0,,
114552,note_on,0,0,1,,,,,,,,0,,,83,0
114552,note_on,72,0,1,,,,,,,,0,,,91,0
114552,note_on,0,0,1,,,,,,,,0,,,86,0
114570,note_on,18,0,1,,,,,,,,0,,,86,70
114570,note_on,0,0,1,,,,,,,,0,,,79,70
114570,note_on,0,0,1,,,,,,,,0,,,83,70
114642,note_on,0,0,1,,,,,,,,0,,,79,0
114642,note_on,0,0,1,,,,,,,,0,,,86,0
114642,note_on,72,0,1,,,,,,,,0,,,83,0
114660,note_on,18,0,1,,,,,,,,0,,,71,70
114660,note_on,0,0,1,,,,,,,,0,,,74,70
114660,note_on,0,0,1,,,,,,,,0,,,79,70
114732,note_on,0,0,1,,,,,,,,0,,,71,0
114732,note_on,0,0,1,,,,,,,,0,,,79,0
114732,note_on,72,0,1,,,,,,,,0,,,74,0
114750,note_on,0,0,1,,,,,,,,0,,,71,70
114750,note_on,0,0,1,,,,,,,,0,,,74,70
114750,note_on,18,0,1,,,,,,,,0,,,67,70
114768,note_on,18,0,1,,,,,,,,0,,,43,0
114822,note_on,54,0,1,,,,,,,,0,,,67,0
114822,note_on,0,0,1,,,,,,,,0,,,74,0
114822,note_on,0,0,1,,,,,,,,0,,,71,0
114840,control_change,0,0,1,,,,,,,,0,64,127,,
114840,note_on,0,0,1,,,,,,,,0,,,61,80
114840,note_on,0,0,1,,,,,,,,0,,,58,80
114840,control_change,18,0,1,,,,,,,,0,64,0,,
114840,note_on,0,0,1,,,,,,,,0,,,55,80
114840,note_on,0,0,1,,,,,,,,0,,,52,80
114905,note_on,65,0,1,,,,,,,,0,,,52,0
114930,note_on,25,0,1,,,,,,,,0,,,67,70
114930,note_on,0,0,1,,,,,,,,0,,,70,70
114930,note_on,0,0,1,,,,,,,,0,,,73,70
115002,note_on,0,0,1,,,,,,,,0,,,67,0
115002,note_on,0,0,1,,,,,,,,0,,,73,0
115002,note_on,72,0,1,,,,,,,,0,,,70,0
115020,note_on,18,0,1,,,,,,,,0,,,79,70
115020,note_on,0,0,1,,,,,,,,0,,,73,70
115020,note_on,0,0,1,,,,,,,,0,,,70,70
115092,note_on,0,0,1,,,,,,,,0,,,79,0
115092,note_on,0,0,1,,,,,,,,0,,,70,0
115092,note_on,72,0,1,,,,,,,,0,,,73,0
115110,note_on,0,0,1,,,,,,,,0,,,82,70
115110,note_on,18,0,1,,,,,,,,0,,,85,70
115110,note_on,0,0,1,,,,,,,,0,,,79,70
115128,note_on,0,0,1,,,,,,,,0,,,55,0
115128,note_on,18,0,1,,,,,,,,0,,,61,0
115128,note_on,0,0,1,,,,,,,,0,,,58,0
115182,note_on,54,0,1,,,,,,,,0,,,85,0
115182,note_on,0,0,1,,,,,,,,0,,,79,0
115182,note_on,0,0,1,,,,,,,,0,,,82,0
115200,note_on,0,0,1,,,,,,,,0,,,43,80
115200,note_on,0,0,1,,,,,,,,0,,,91,70
115200,control_change,0,0,1,,,,,,,,0,64,127,,
115200,control_change,0,0,1,,,,,,,,0,64,0,,
115200,note_on,18,0,1,,,,,,,,0,,,85,70
115200,note_on,0,0,1,,,,,,,,0,,,82,70
115272,note_on,72,0,1,,,,,,,,0,,,82,0
115272,note_on,0,0,1,,,,,,,,0,,,85,0
115272,note_on,0,0,1,,,,,,,,0,,,91,0
115290,note_on,0,0,1,,,,,,,,0,,,82,70
115290,note_on,0,0,1,,,,,,,,0,,,85,70
115290,note_on,18,0,1,,,,,,,,0,,,79,70
115362,note_on,0,0,1,,,,,,,,0,,,79,0
115362,note_on,0,0,1,,,,,,,,0,,,82,0
115362,note_on,72,0,1,,,,,,,,0,,,85,0
115380,note_on,18,0,1,,,,,,,,0,,,70,70
115380,note_on,0,0,1,,,,,,,,0,,,73,70
115380,note_on,0,0,1,,,,,,,,0,,,79,70
115452,note_on,72,0,1,,,,,,,,0,,,79,0
115452,note_on,0,0,1,,,,,,,,0,,,73,0
115452,note_on,0,0,1,,,,,,,,0,,,70,0
115470,note_on,18,0,1,,,,,,,,0,,,67,70
115470,note_on,0,0,1,,,,,,,,0,,,73,70
115470,note_on,0,0,1,,,,,,,,0,,,70,70
115488,note_on,18,0,1,,,,,,,,0,,,43,0
115542,note_on,54,0,1,,,,,,,,0,,,67,0
115542,note_on,0,0,1,,,,,,,,0,,,73,0
115542,note_on,0,0,1,,,,,,,,0,,,70,0
115560,note_on,0,0,1,,,,,,,,0,,,59,80
115560,note_on,0,0,1,,,,,,,,0,,,55,80
115560,note_on,0,0,1,,,,,,,,0,,,62,80
115560,control_change,0,0,1,,,,,,,,0,64,127,,
115560,note_on,0,0,1,,,,,,,,0,,,53,80
115560,control_change,18,0,1,,,,,,,,0,64,0,,
115650,note_on,90,0,1,,,,,,,,0,,,74,70
115650,note_on,0,0,1,,,,,,,,0,,,71,70
115650,note_on,0,0,1,,,,,,,,0,,,67,70
115722,note_on,0,0,1,,,,,,,,0,,,71,0
115722,note_on,0,0,1,,,,,,,,0,,,74,0
115722,note_on,72,0,1,,,,,,,,0,,,67,0
115740,note_on,0,0,1,,,,,,,,0,,,74,70
115740,note_on,18,0,1,,,,,,,,0,,,79,70
115740,note_on,0,0,1,,,,,,,,0,,,71,70
115812,note_on,0,0,1,,,,,,,,0,,,74,0
115812,note_on,0,0,1,,,,,,,,0,,,79,0
115812,note_on,72,0,1,,,,,,,,0,,,71,0
115830,note_on,18,0,1,,,,,,,,0,,,79,70
115830,note_on,0,0,1,,,,,,,,0,,,83,70
115830,note_on,0,0,1,,,,,,,,0,,,86,70
115848,note_on,0,0,1,,,,,,,,0,,,62,0
115848,note_on,18,0,1,,,,,,,,0,,,55,0
115848,note_on,0,0,1,,,,,,,,0,,,53,0
115848,note_on,0,0,1,,,,,,,,0,,,59,0
115902,note_on,0,0,1,,,,,,,,0,,,79,0
115902,note_on,0,0,1,,,,,,,,0,,,83,0
115902,note_on,54,0,1,,,,,,,,0,,,86,0
115920,note_on,0,0,1,,,,,,,,0,,,43,80
115920,note_on,0,0,1,,,,,,,,0,,,83,70
115920,note_on,0,0,1,,,,,,,,0,,,91,70
115920,control_change,0,0,1,,,,,,,,0,64,127,,
115920,control_change,0,0,1,,,,,,,,0,64,0,,
115920,note_on,18,0,1,,,,,,,,0,,,86,70
115992,note_on,72,0,1,,,,,,,,0,,,83,0
115992,note_on,0,0,1,,,,,,,,0,,,91,0
115992,note_on,0,0,1,,,,,,,,0,,,86,0
116010,note_on,0,0,1,,,,,,,,0,,,83,70
116010,note_on,0,0,1,,,,,,,,0,,,79,70
116010,note_on,18,0,1,,,,,,,,0,,,86,70
116082,note_on,0,0,1,,,,,,,,0,,,79,0
116082,note_on,0,0,1,,,,,,,,0,,,86,0
116082,note_on,72,0,1,,,,,,,,0,,,83,0
116100,note_on,18,0,1,,,,,,,,0,,,74,70
116100,note_on,0,0,1,,,,,,,,0,,,79,70
116100,note_on,0,0,1,,,,,,,,0,,,71,70
116172,note_on,72,0,1,,,,,,,,0,,,71,0
116172,note_on,0,0,1,,,,,,,,0,,,74,0
116172,note_on,0,0,1,,,,,,,,0,,,79,0
116190,note_on,0,0,1,,,,,,,,0,,,71,70
116190,note_on,0,0,1,,,,,,,,0,,,67,70
116190,note_on,18,0,1,,,,,,,,0,,,74,70
116208,note_on,18,0,1,,,,,,,,0,,,43,0
116262,note_on,0,0,1,,,,,,,,0,,,71,0
116262,note_on,0,0,1,,,,,,,,0,,,67,0
116262,note_on,54,0,1,,,,,,,,0,,,74,0
116280,control_change,0,0,1,,,,,,,,0,64,127,,
116280,control_change,18,0,1,,,,,,,,0,64,0,,
116280,note_on,0,0,1,,,,,,,,0,,,67,80
116280,note_on,0,0,1,,,,,,,,0,,,61,80
116280,note_on,0,0,1,,,,,,,,0,,,58,80
116280,note_on,0,0,1,,,,,,,,0,,,51,80
116325,note_on,45,0,1,,,,,,,,0,,,85,80
116361,note_on,36,0,1,,,,,,,,0,,,85,0
116370,note_on,9,0,1,,,,,,,,0,,,91,80
116406,note_on,36,0,1,,,,,,,,0,,,91,0
116415,note_on,9,0,1,,,,,,,,0,,,94,80
116451,note_on,36,0,1,,,,,,,,0,,,94,0
116460,note_on,9,0,1,,,,,,,,0,,,99,80
116496,note_on,36,0,1,,,,,,,,0,,,99,0
116505,note_on,9,0,1,,,,,,,,0,,,94,80
116541,note_on,36,0,1,,,,,,,,0,,,94,0
116550,note_on,9,0,1,,,,,,,,0,,,91,80
116586,note_on,36,0,1,,,,,,,,0,,,91,0
116595,note_on,9,0,1,,,,,,,,0,,,85,80
116631,note_on,36,0,1,,,,,,,,0,,,85,0
116640,note_on,9,0,1,,,,,,,,0,,,97,80
116640,note_on,0,0,1,,,,,,,,0,,,31,96
116676,note_on,36,0,1,,,,,,,,0,,,97,0
116685,note_on,9,0,1,,,,,,,,0,,,91,80
116721,note_on,36,0,1,,,,,,,,0,,,91,0
116730,note_on,9,0,1,,,,,,,,0,,,87,80
116766,note_on,36,0,1,,,,,,,,0,,,87,0
116775,note_on,9,0,1,,,,,,,,0,,,82,80
116811,note_on,36,0,1,,,,,,,,0,,,82,0
116820,note_on,9,0,1,,,,,,,,0,,,94,80
116856,note_on,36,0,1,,,,,,,,0,,,94,0
116865,note_on,9,0,1,,,,,,,,0,,,87,80
116901,note_on,36,0,1,,,,,,,,0,,,87,0
116910,note_on,9,0,1,,,,,,,,0,,,85,80
116928,note_on,18,0,1,,,,,,,,0,,,31,0
116946,note_on,18,0,1,,,,,,,,0,,,85,0
116955,note_on,9,0,1,,,,,,,,0,,,79,80
116991,note_on,36,0,1,,,,,,,,0,,,79,0
117000,note_on,9,0,1,,,,,,,,0,,,91,80
117000,note_on,0,0,1,,,,,,,,0,,,31,96
117036,note_on,36,0,1,,,,,,,,0,,,91,0
117045,note_on,9,0,1,,,,,,,,0,,,85,80
117048,note_on,0,0,1,,,,,,,,0,,,67,0
117048,note_on,0,0,1,,,,,,,,0,,,58,0
117048,note_on,0,0,1,,,,,,,,0,,,61,0
117048,note_on,3,0,1,,,,,,,,0,,,51,0
117081,note_on,33,0,1,,,,,,,,0,,,85,0
117090,note_on,9,0,1,,,,,,,,0,,,82,80
117126,note_on,36,0,1,,,,,,,,0,,,82,0
117135,note_on,9,0,1,,,,,,,,0,,,75,80
117171,note_on,36,0,1,,,,,,,,0,,,75,0
117180,note_on,9,0,1,,,,,,,,0,,,87,80
117216,note_on,36,0,1,,,,,,,,0,,,87,0
117225,note_on,9,0,1,,,,,,,,0,,,82,80
117261,note_on,36,0,1,,,,,,,,0,,,82,0
117270,note_on,9,0,1,,,,,,,,0,,,79,80
117288,note_on,18,0,1,,,,,,,,0,,,31,0
117306,note_on,18,0,1,,,,,,,,0,,,79,0
117315,note_on,9,0,1,,,,,,,,0,,,73,80
117351,note_on,36,0,1,,,,,,,,0,,,73,0
117360,control_change,0,0,1,,,,,,,,0,64,127,,
117360,note_on,0,0,1,,,,,,,,0,,,31,96
117360,note_on,0,0,1,,,,,,,,0,,,85,80
117360,control_change,9,0,1,,,,,,,,0,64,0,,
117396,note_on,36,0,1,,,,,,,,0,,,85,0
117405,note_on,9,0,1,,,,,,,,0,,,79,80
117441,note_on,36,0,1,,,,,,,,0,,,79,0
117450,note_on,9,0,1,,,,,,,,0,,,75,80
117486,note_on,36,0,1,,,,,,,,0,,,75,0
117495,note_on,9,0,1,,,,,,,,0,,,70,80
117531,note_on,36,0,1,,,,,,,,0,,,70,0
117540,note_on,9,0,1,,,,,,,,0,,,82,80
117576,note_on,36,0,1,,,,,,,,0,,,82,0
117585,note_on,9,0,1,,,,,,,,0,,,75,80
117621,note_on,36,0,1,,,,,,,,0,,,75,0
117630,note_on,9,0,1,,,,,,,,0,,,73,80
117648,note_on,18,0,1,,,,,,,,0,,,31,0
117666,note_on,18,0,1,,,,,,,,0,,,73,0
117675,note_on,9,0,1,,,,,,,,0,,,67,80
117711,note_on,36,0,1,,,,,,,,0,,,67,0
117720,note_on,0,0,1,,,,,,,,0,,,31,96
117720,note_on,9,0,1,,,,,,,,0,,,79,80
117756,note_on,36,0,1,,,,,,,,0,,,79,0
117765,note_on,9,0,1,,,,,,,,0,,,73,80
117801,note_on,36,0,1,,,,,,,,0,,,73,0
117810,note_on,9,0,1,,,,,,,,0,,,70,80
117846,note_on,36,0,1,,,,,,,,0,,,70,0
117855,note_on,9,0,1,,,,,,,,0,,,63,80
117891,note_on,36,0,1,,,,,,,,0,,,63,0
117900,note_on,9,0,1,,,,,,,,0,,,75,80
117936,note_on,36,0,1,,,,,,,,0,,,75,0
117945,note_on,9,0,1,,,,,,,,0,,,70,80
117981,note_on,36,0,1,,,,,,,,0,,,70,0
117990,note_on,9,0,1,,,,,,,,0,,,67,80
118008,note_on,18,0,1,,,,,,,,0,,,31,0
118026,note_on,18,0,1,,,,,,,,0,,,67,0
118035,note_on,9,0,1,,,,,,,,0,,,61,80
118071,note_on,36,0,1,,,,,,,,0,,,61,0
118080,note_on,0,0,1,,,,,,,,0,,,31,96
118080,note_on,9,0,1,,,,,,,,0,,,73,80
118116,note_on,36,0,1,,,,,,,,0,,,73,0
118125,note_on,9,0,1,,,,,,,,0,,,67,80
118161,note_on,36,0,1,,,,,,,,0,,,67,0
118170,note_on,9,0,1,,,,,,,,0,,,63,80
118206,note_on,36,0,1,,,,,,,,0,,,63,0
118215,note_on,9,0,1,,,,,,,,0,,,58,80
118251,note_on,36,0,1,,,,,,,,0,,,58,0
118260,note_on,9,0,1,,,,,,,,0,,,70,80
118296,note_on,36,0,1,,,,,,,,0,,,70,0
118305,note_on,9,0,1,,,,,,,,0,,,63,80
118341,note_on,36,0,1,,,,,,,,0,,,63,0
118350,note_on,9,0,1,,,,,,,,0,,,61,80
118368,note_on,18,0,1,,,,,,,,0,,,31,0
118386,note_on,18,0,1,,,,,,,,0,,,61,0
118395,note_on,9,0,1,,,,,,,,0,,,55,80
118431,note_on,36,0,1,,,,,,,,0,,,55,0
118440,control_change,0,0,1,,,,,,,,0,64,127,,
118440,note_on,0,0,1,,,,,,,,0,,,48,80
118440,control_change,9,0,1,,,,,,,,0,64,0,,
118446,note_on,6,0,1,,,,,,,,0,,,55,80
118452,note_on,6,0,1,,,,,,,,0,,,57,80
118452,note_on,0,0,1,,,,,,,,0,,,63,80
118530,note_on,0,0,1,,,,,,,,0,,,63,70
118530,note_on,78,0,1,,,,,,,,0,,,67,70
118530,note_on,0,0,1,,,,,,,,0,,,69,70
118602,note_on,0,0,1,,,,,,,,0,,,67,0
118602,note_on,0,0,1,,,,,,,,0,,,63,0
118602,note_on,72,0,1,,,,,,,,0,,,69,0
118620,note_on,18,0,1,,,,,,,,0,,,67,70
118620,note_on,0,0,1,,,,,,,,0,,,75,70
118620,note_on,0,0,1,,,,,,,,0,,,69,70
118692,note_on,0,0,1,,,,,,,,0,,,67,0
118692,note_on,72,0,1,,,,,,,,0,,,75,0
118692,note_on,0,0,1,,,,,,,,0,,,69,0
118710,note_on,0,0,1,,,,,,,,0,,,75,70
118710,note_on,0,0,1,,,,,,,,0,,,81,70
118710,note_on,18,0,1,,,,,,,,0,,,79,70
118760,note_on,50,0,1,,,,,,,,0,,,63,0
118760,note_on,0,0,1,,,,,,,,0,,,57,0
118760,note_on,0,0,1,,,,,,,,0,,,55,0
118760,note_on,0,0,1,,,,,,,,0,,,48,0
118782,note_on,0,0,1,,,,,,,,0,,,75,0
118782,note_on,0,0,1,,,,,,,,0,,,79,0
118782,note_on,22,0,1,,,,,,,,0,,,81,0
118795,note_on,13,0,1,,,,,,,,0,,,31,80
118800,control_change,0,0,1,,,,,,,,0,64,0,,
118800,control_change,0,0,1,,,,,,,,0,64,127,,
118800,note_on,0,0,1,,,,,,,,0,,,79,70
118800,note_on,0,0,1,,,,,,,,0,,,81,70
118800,note_on,5,0,1,,,,,,,,0,,,87,70
118872,note_on,0,0,1,,,,,,,,0,,,81,0
118872,note_on,72,0,1,,,,,,,,0,,,79,0
118872,note_on,0,0,1,,,,,,,,0,,,87,0
118890,note_on,0,0,1,,,,,,,,0,,,79,70
118890,note_on,0,0,1,,,,,,,,0,,,81,70
118890,note_on,18,0,1,,,,,,,,0,,,75,70
118962,note_on,0,0,1,,,,,,,,0,,,75,0
118962,note_on,0,0,1,,,,,,,,0,,,79,0
118962,note_on,72,0,1,,,,,,,,0,,,81,0
118980,note_on,18,0,1,,,,,,,,0,,,67,70
118980,note_on,0,0,1,,,,,,,,0,,,69,70
118980,note_on,0,0,1,,,,,,,,0,,,75,70
119052,note_on,0,0,1,,,,,,,,0,,,67,0
119052,note_on,72,0,1,,,,,,,,0,,,75,0
119052,note_on,0,0,1,,,,,,,,0,,,69,0
119070,note_on,0,0,1,,,,,,,,0,,,67,70
119070,note_on,0,0,1,,,,,,,,0,,,69,70
119070,note_on,18,0,1,,,,,,,,0,,,63,70
119083,note_on,13,0,1,,,,,,,,0,,,31,0
119142,note_on,59,0,1,,,,,,,,0,,,63,0
119142,note_on,0,0,1,,,,,,,,0,,,67,0
119142,note_on,0,0,1,,,,,,,,0,,,69,0
119160,note_on,0,0,1,,,,,,,,0,,,47,80
119160,control_change,18,0,1,,,,,,,,0,64,0,,
119160,control_change,0,0,1,,,,,,,,0,64,127,,
119166,note_on,6,0,1,,,,,,,,0,,,55,80
119172,note_on,0,0,1,,,,,,,,0,,,57,80
119172,note_on,6,0,1,,,,,,,,0,,,62,80
119250,note_on,0,0,1,,,,,,,,0,,,69,70
119250,note_on,0,0,1,,,,,,,,0,,,62,70
119250,note_on,78,0,1,,,,,,,,0,,,67,70
119322,note_on,0,0,1,,,,,,,,0,,,62,0
119322,note_on,72,0,1,,,,,,,,0,,,69,0
119322,note_on,0,0,1,,,,,,,,0,,,67,0
119340,note_on,0,0,1,,,,,,,,0,,,67,70
119340,note_on,0,0,1,,,,,,,,0,,,74,70
119340,note_on,18,0,1,,,,,,,,0,,,69,70
119412,note_on,0,0,1,,,,,,,,0,,,69,0
119412,note_on,72,0,1,,,,,,,,0,,,67,0
119412,note_on,0,0,1,,,,,,,,0,,,74,0
119430,note_on,18,0,1,,,,,,,,0,,,74,70
119430,note_on,0,0,1,,,,,,,,0,,,81,70
119430,note_on,0,0,1,,,,,,,,0,,,79,70
119480,note_on,0,0,1,,,,,,,,0,,,55,0
119480,note_on,0,0,1,,,,,,,,0,,,57,0
119480,note_on,0,0,1,,,,,,,,0,,,47,0
119480,note_on,50,0,1,,,,,,,,0,,,62,0
119502,note_on,0,0,1,,,,,,,,0,,,74,0
119502,note_on,0,0,1,,,,,,,,0,,,81,0
119502,note_on,22,0,1,,,,,,,,0,,,79,0
119515,note_on,13,0,1,,,,,,,,0,,,31,80
119520,control_change,0,0,1,,,,,,,,0,64,127,,
119520,note_on,0,0,1,,,,,,,,0,,,81,70
119520,note_on,0,0,1,,,,,,,,0,,,86,70
119520,note_on,0,0,1,,,,,,,,0,,,79,70
119520,control_change,5,0,1,,,,,,,,0,64,0,,
119592,note_on,0,0,1,,,,,,,,0,,,86,0
119592,note_on,0,0,1,,,,,,,,0,,,79,0
119592,note_on,72,0,1,,,,,,,,0,,,81,0
119610,note_on,0,0,1,,,,,,,,0,,,79,70
119610,note_on,0,0,1,,,,,,,,0,,,74,70
119610,note_on,18,0,1,,,,,,,,0,,,81,70
119682,note_on,0,0,1,,,,,,,,0,,,81,0
119682,note_on,0,0,1,,,,,,,,0,,,79,0
119682,note_on,72,0,1,,,,,,,,0,,,74,0
119700,note_on,0,0,1,,,,,,,,0,,,69,70
119700,note_on,0,0,1,,,,,,,,0,,,67,70
119700,note_on,18,0,1,,,,,,,,0,,,74,70
119786,note_on,86,0,1,,,,,,,,0,,,67,0
119786,note_on,0,0,1,,,,,,,,0,,,74,0
119786,note_on,0,0,1,,,,,,,,0,,,69,0
119790,note_on,4,0,1,,,,,,,,0,,,69,70
119790,note_on,0,0,1,,,,,,,,0,,,67,70
119790,note_on,0,0,1,,,,,,,,0,,,62,70
119803,note_on,13,0,1,,,,,,,,0,,,31,0
119862,note_on,0,0,1,,,,,,,,0,,,67,0
119862,note_on,0,0,1,,,,,,,,0,,,62,0
119862,note_on,59,0,1,,,,,,,,0,,,69,0
119871,note_on,9,0,1,,,,,,,,0,,,48,80
119877,note_on,6,0,1,,,,,,,,0,,,55,80
119880,control_change,0,0,1,,,,,,,,0,64,127,,
119880,control_change,3,0,1,,,,,,,,0,64,0,,
119883,note_on,3,0,1,,,,,,,,0,,,63,80
119883,note_on,0,0,1,,,,,,,,0,,,57,80
119970,note_on,87,0,1,,,,,,,,0,,,69,70
119970,note_on,0,0,1,,,,,,,,0,,,67,70
119970,note_on,0,0,1,,,,,,,,0,,,63,70
120042,note_on,72,0,1,,,,,,,,0,,,67,0
120042,note_on,0,0,1,,,,,,,,0,,,69,0
120042,note_on,0,0,1,,,,,,,,0,,,63,0
120060,note_on,18,0,1,,,,,,,,0,,,67,70
120060,note_on,0,0,1,,,,,,,,0,,,75,70
120060,note_on,0,0,1,,,,,,,,0,,,69,70
120132,note_on,72,0,1,,,,,,,,0,,,69,0
120132,note_on,0,0,1,,,,,,,,0,,,67,0
120132,note_on,0,0,1,,,,,,,,0,,,75,0
120150,note_on,0,0,1,,,,,,,,0,,,79,70
120150,note_on,18,0,1,,,,,,,,0,,,75,70
120150,note_on,0,0,1,,,,,,,,0,,,81,70
120191,note_on,0,0,1,,,,,,,,0,,,48,0
120191,note_on,0,0,1,,,,,,,,0,,,57,0
120191,note_on,41,0,1,,,,,,,,0,,,63,0
120191,note_on,0,0,1,,,,,,,,0,,,55,0
120222,note_on,0,0,1,,,,,,,,0,,,79,0
120222,note_on,0,0,1,,,,,,,,0,,,75,0
120222,note_on,31,0,1,,,,,,,,0,,,81,0
120226,note_on,4,0,1,,,,,,,,0,,,31,80
120240,control_change,0,0,1,,,,,,,,0,64,127,,
120240,note_on,0,0,1,,,,,,,,0,,,87,70
120240,control_change,14,0,1,,,,,,,,0,64,0,,
120240,note_on,0,0,1,,,,,,,,0,,,81,70
120240,note_on,0,0,1,,,,,,,,0,,,79,70
120312,note_on,0,0,1,,,,,,,,0,,,79,0
120312,note_on,0,0,1,,,,,,,,0,,,81,0
120312,note_on,72,0,1,,,,,,,,0,,,87,0
120330,note_on,0,0,1,,,,,,,,0,,,75,70
120330,note_on,0,0,1,,,,,,,,0,,,79,70
120330,note_on,18,0,1,,,,,,,,0,,,81,70
120402,note_on,72,0,1,,,,,,,,0,,,75,0
120402,note_on,0,0,1,,,,,,,,0,,,79,0
120402,note_on,0,0,1,,,,,,,,0,,,81,0
120420,note_on,0,0,1,,,,,,,,0,,,67,70
120420,note_on,0,0,1,,,,,,,,0,,,69,70
120420,note_on,18,0,1,,,,,,,,0,,,75,70
120492,note_on,72,0,1,,,,,,,,0,,,67,0
120492,note_on,0,0,1,,,,,,,,0,,,69,0
120492,note_on,0,0,1,,,,,,,,0,,,75,0
120510,note_on,18,0,1,,,,,,,,0,,,67,70
120510,note_on,0,0,1,,,,,,,,0,,,69,70
120510,note_on,0,0,1,,,,,,,,0,,,63,70
120514,note_on,4,0,1,,,,,,,,0,,,31,0
120582,note_on,68,0,1,,,,,,,,0,,,67,0
120582,note_on,0,0,1,,,,,,,,0,,,69,0
120582,note_on,0,0,1,,,,,,,,0,,,63,0
120600,note_on,0,0,1,,,,,,,,0,,,62,80
120600,note_on,0,0,1,,,,,,,,0,,,59,80
120600,control_change,0,0,1,,,,,,,,0,64,127,,
120600,control_change,18,0,1,,,,,,,,0,64,0,,
120600,note_on,0,0,1,,,,,,,,0,,,71,80
120600,note_on,0,0,1,,,,,,,,0,,,55,80
120645,note_on,45,0,1,,,,,,,,0,,,79,80
120681,note_on,36,0,1,,,,,,,,0,,,79,0
120690,note_on,9,0,1,,,,,,,,0,,,83,80
120726,note_on,36,0,1,,,,,,,,0,,,83,0
120735,note_on,9,0,1,,,,,,,,0,,,86,80
120771,note_on,36,0,1,,,,,,,,0,,,86,0
120780,note_on,9,0,1,,,,,,,,0,,,95,80
120816,note_on,36,0,1,,,,,,,,0,,,95,0
120825,note_on,9,0,1,,,,,,,,0,,,91,80
120861,note_on,36,0,1,,,,,,,,0,,,91,0
120870,note_on,9,0,1,,,,,,,,0,,,86,80
120906,note_on,36,0,1,,,,,,,,0,,,86,0
120915,note_on,9,0,1,,,,,,,,0,,,83,80
120951,note_on,36,0,1,,,,,,,,0,,,83,0
120960,note_on,0,0,1,,,,,,,,0,,,31,80
120960,note_on,9,0,1,,,,,,,,0,,,91,80
120996,note_on,36,0,1,,,,,,,,0,,,91,0
121005,note_on,9,0,1,,,,,,,,0,,,86,80
121041,note_on,36,0,1,,,,,,,,0,,,86,0
121050,note_on,9,0,1,,,,,,,,0,,,83,80
121086,note_on,36,0,1,,,,,,,,0,,,83,0
121095,note_on,9,0,1,,,,,,,,0,,,79,80
121131,note_on,36,0,1,,,,,,,,0,,,79,0
121140,note_on,9,0,1,,,,,,,,0,,,86,80
121176,note_on,36,0,1,,,,,,,,0,,,86,0
121185,note_on,9,0,1,,,,,,,,0,,,83,80
121221,note_on,36,0,1,,,,,,,,0,,,83,0
121230,note_on,9,0,1,,,,,,,,0,,,79,80
121248,note_on,18,0,1,,,,,,,,0,,,31,0
121266,note_on,18,0,1,,,,,,,,0,,,79,0
121275,note_on,9,0,1,,,,,,,,0,,,74,80
121311,note_on,36,0,1,,,,,,,,0,,,74,0
121320,note_on,0,0,1,,,,,,,,0,,,31,80
121320,note_on,9,0,1,,,,,,,,0,,,83,80
121356,note_on,36,0,1,,,,,,,,0,,,83,0
121365,note_on,9,0,1,,,,,,,,0,,,79,80
121368,note_on,0,0,1,,,,,,,,0,,,71,0
121368,note_on,0,0,1,,,,,,,,0,,,62,0
121368,note_on,0,0,1,,,,,,,,0,,,55,0
121368,note_on,3,0,1,,,,,,,,0,,,59,0
121401,note_on,33,0,1,,,,,,,,0,,,79,0
121410,note_on,9,0,1,,,,,,,,0,,,74,80
121446,note_on,36,0,1,,,,,,,,0,,,74,0
121455,note_on,9,0,1,,,,,,,,0,,,71,80
121491,note_on,36,0,1,,,,,,,,0,,,71,0
121500,note_on,9,0,1,,,,,,,,0,,,79,80
121536,note_on,36,0,1,,,,,,,,0,,,79,0
121545,note_on,9,0,1,,,,,,,,0,,,74,80
121581,note_on,36,0,1,,,,,,,,0,,,74,0
121590,note_on,9,0,1,,,,,,,,0,,,71,80
121608,note_on,18,0,1,,,,,,,,0,,,31,0
121626,note_on,18,0,1,,,,,,,,0,,,71,0
121635,note_on,9,0,1,,,,,,,,0,,,67,80
121671,note_on,36,0,1,,,,,,,,0,,,67,0
121680,control_change,9,0,1,,,,,,,,0,64,0,,
121680,note_on,0,0,1,,,,,,,,0,,,31,80
121680,note_on,0,0,1,,,,,,,,0,,,74,80
121680,control_change,0,0,1,,,,,,,,0,64,127,,
121716,note_on,36,0,1,,,,,,,,0,,,74,0
121725,note_on,9,0,1,,,,,,,,0,,,71,80
121761,note_on,36,0,1,,,,,,,,0,,,71,0
121770,note_on,9,0,1,,,,,,,,0,,,67,80
121806,note_on,36,0,1,,,,,,,,0,,,67,0
121815,note_on,9,0,1,,,,,,,,0,,,62,80
121851,note_on,36,0,1,,,,,,,,0,,,62,0
121860,note_on,9,0,1,,,,,,,,0,,,71,80
121896,note_on,36,0,1,,,,,,,,0,,,71,0
121905,note_on,9,0,1,,,,,,,,0,,,67,80
121941,note_on,36,0,1,,,,,,,,0,,,67,0
121950,note_on,9,0,1,,,,,,,,0,,,62,80
121968,note_on,18,0,1,,,,,,,,0,,,31,0
121986,note_on,18,0,1,,,,,,,,0,,,62,0
121995,note_on,9,0,1,,,,,,,,0,,,59,80
122031,note_on,36,0,1,,,,,,,,0,,,59,0
122040,note_on,0,0,1,,,,,,,,0,,,31,80
122040,note_on,9,0,1,,,,,,,,0,,,67,80
122076,note_on,36,0,1,,,,,,,,0,,,67,0
122085,note_on,9,0,1,,,,,,,,0,,,62,80
122121,note_on,36,0,1,,,,,,,,0,,,62,0
122130,note_on,9,0,1,,,,,,,,0,,,59,80
122166,note_on,36,0,1,,,,,,,,0,,,59,0
122175,note_on,9,0,1,,,,,,,,0,,,55,80
122211,note_on,36,0,1,,,,,,,,0,,,55,0
122220,note_on,9,0,1,,,,,,,,0,,,62,80
122256,note_on,36,0,1,,,,,,,,0,,,62,0
122265,note_on,9,0,1,,,,,,,,0,,,59,80
122301,note_on,36,0,1,,,,,,,,0,,,59,0
122310,note_on,9,0,1,,,,,,,,0,,,55,80
122328,note_on,18,0,1,,,,,,,,0,,,31,0
122346,note_on,18,0,1,,,,,,,,0,,,55,0
122355,note_on,9,0,1,,,,,,,,0,,,50,80
122391,note_on,36,0,1,,,,,,,,0,,,50,0
122400,note_on,0,0,1,,,,,,,,0,,,31,80
122400,note_on,9,0,1,,,,,,,,0,,,59,80
122448,note_on,48,0,1,,,,,,,,0,,,59,0
122460,note_on,12,0,1,,,,,,,,0,,,50,80
122508,note_on,48,0,1,,,,,,,,0,,,50,0
122520,note_on,12,0,1,,,,,,,,0,,,47,80
122568,note_on,48,0,1,,,,,,,,0,,,47,0
122580,note_on,12,0,1,,,,,,,,0,,,55,80
122628,note_on,48,0,1,,,,,,,,0,,,55,0
122640,note_on,12,0,1,,,,,,,,0,,,50,80
122688,note_on,48,0,1,,,,,,,,0,,,50,0
122688,note_on,0,0,1,,,,,,,,0,,,31,0
122700,note_on,12,0,1,,,,,,,,0,,,47,80
122748,note_on,48,0,1,,,,,,,,0,,,47,0
122760,note_on,0,0,1,,,,,,,,0,,,44,80
122760,note_on,0,0,1,,,,,,,,0,,,41,80
122760,note_on,0,0,1,,,,,,,,0,,,47,80
122760,note_on,0,0,1,,,,,,,,0,,,50,80
122760,control_change,0,0,1,,,,,,,,0,64,127,,
122760,control_change,12,0,1,,,,,,,,0,64,0,,
122850,note_on,90,0,1,,,,,,,,0,,,62,69
122850,note_on,0,0,1,,,,,,,,0,,,56,69
122850,note_on,0,0,1,,,,,,,,0,,,59,69
122922,note_on,72,0,1,,,,,,,,0,,,59,0
122922,note_on,0,0,1,,,,,,,,0,,,62,0
122940,note_on,18,0,1,,,,,,,,0,,,68,69
122940,note_on,0,0,1,,,,,,,,0,,,59,69
122940,note_on,0,0,1,,,,,,,,0,,,62,69
123012,note_on,72,0,1,,,,,,,,0,,,62,0
123012,note_on,0,0,1,,,,,,,,0,,,68,0
123012,note_on,0,0,1,,,,,,,,0,,,59,0
123030,note_on,18,0,1,,,,,,,,0,,,74,69
123030,note_on,0,0,1,,,,,,,,0,,,68,69
123030,note_on,0,0,1,,,,,,,,0,,,71,69
123048,note_on,0,0,1,,,,,,,,0,,,41,0
123048,note_on,0,0,1,,,,,,,,0,,,44,0
123048,note_on,0,0,1,,,,,,,,0,,,50,0
123048,note_on,18,0,1,,,,,,,,0,,,47,0
123102,note_on,54,0,1,,,,,,,,0,,,71,0
123102,note_on,0,0,1,,,,,,,,0,,,68,0
123102,note_on,0,0,1,,,,,,,,0,,,74,0
123120,note_on,0,0,1,,,,,,,,0,,,71,69
123120,control_change,0,0,1,,,,,,,,0,64,127,,
123120,control_change,18,0,1,,,,,,,,0,64,0,,
123120,note_on,0,0,1,,,,,,,,0,,,80,69
123120,note_on,0,0,1,,,,,,,,0,,,74,69
123120,note_on,0,0,1,,,,,,,,0,,,31,80
123192,note_on,72,0,1,,,,,,,,0,,,74,0
123192,note_on,0,0,1,,,,,,,,0,,,80,0
123192,note_on,0,0,1,,,,,,,,0,,,71,0
123210,note_on,18,0,1,,,,,,,,0,,,68,69
123210,note_on,0,0,1,,,,,,,,0,,,71,69
123210,note_on,0,0,1,,,,,,,,0,,,74,69
123282,note_on,72,0,1,,,,,,,,0,,,74,0
123282,note_on,0,0,1,,,,,,,,0,,,68,0
123282,note_on,0,0,1,,,,,,,,0,,,71,0
123300,note_on,0,0,1,,,,,,,,0,,,68,69
123300,note_on,18,0,1,,,,,,,,0,,,59,69
123300,note_on,0,0,1,,,,,,,,0,,,62,69
123372,note_on,0,0,1,,,,,,,,0,,,59,0
123372,note_on,72,0,1,,,,,,,,0,,,68,0
123372,note_on,0,0,1,,,,,,,,0,,,62,0
123390,note_on,18,0,1,,,,,,,,0,,,62,69
123390,note_on,0,0,1,,,,,,,,0,,,56,69
123390,note_on,0,0,1,,,,,,,,0,,,59,69
123408,note_on,18,0,1,,,,,,,,0,,,31,0
123462,note_on,54,0,1,,,,,,,,0,,,56,0
123462,note_on,0,0,1,,,,,,,,0,,,62,0
123462,note_on,0,0,1,,,,,,,,0,,,59,0
123480,note_on,0,0,1,,,,,,,,0,,,49,80
123480,note_on,0,0,1,,,,,,,,0,,,47,80
123480,note_on,0,0,1,,,,,,,,0,,,40,80
123480,note_on,0,0,1,,,,,,,,0,,,44,80
123480,control_change,18,0,1,,,,,,,,0,64,0,,
123480,control_change,0,0,1,,,,,,,,0,64,127,,
123570,note_on,90,0,1,,,,,,,,0,,,59,69
123570,note_on,0,0,1,,,,,,,,0,,,56,69
123570,note_on,0,0,1,,,,,,,,0,,,61,69
123642,note_on,0,0,1,,,,,,,,0,,,56,0
123642,note_on,0,0,1,,,,,,,,0,,,59,0
123642,note_on,72,0,1,,,,,,,,0,,,61,0
123660,note_on,0,0,1,,,,,,,,0,,,59,69
123660,note_on,18,0,1,,,,,,,,0,,,68,69
123660,note_on,0,0,1,,,,,,,,0,,,61,69
123732,note_on,0,0,1,,,,,,,,0,,,61,0
123732,note_on,0,0,1,,,,,,,,0,,,68,0
123732,note_on,72,0,1,,,,,,,,0,,,59,0
123750,note_on,18,0,1,,,,,,,,0,,,73,69
123750,note_on,0,0,1,,,,,,,,0,,,68,69
123750,note_on,0,0,1,,,,,,,,0,,,71,69
123768,note_on,18,0,1,,,,,,,,0,,,49,0
123768,note_on,0,0,1,,,,,,,,0,,,47,0
123768,note_on,0,0,1,,,,,,,,0,,,40,0
123768,note_on,0,0,1,,,,,,,,0,,,44,0
123822,note_on,0,0,1,,,,,,,,0,,,71,0
123822,note_on,0,0,1,,,,,,,,0,,,73,0
123822,note_on,54,0,1,,,,,,,,0,,,68,0
123840,note_on,0,0,1,,,,,,,,0,,,31,80
123840,note_on,0,0,1,,,,,,,,0,,,71,69
123840,note_on,0,0,1,,,,,,,,0,,,73,69
123840,note_on,18,0,1,,,,,,,,0,,,80,69
123840,control_change,0,0,1,,,,,,,,0,64,0,,
123840,control_change,0,0,1,,,,,,,,0,64,127,,
123912,note_on,0,0,1,,,,,,,,0,,,71,0
123912,note_on,0,0,1,,,,,,,,0,,,80,0
123912,note_on,72,0,1,,,,,,,,0,,,73,0
123930,note_on,0,0,1,,,,,,,,0,,,73,69
123930,note_on,18,0,1,,,,,,,,0,,,68,69
123930,note_on,0,0,1,,,,,,,,0,,,71,69
124002,note_on,72,0,1,,,,,,,,0,,,73,0
124002,note_on,0,0,1,,,,,,,,0,,,68,0
124002,note_on,0,0,1,,,,,,,,0,,,71,0
124020,note_on,18,0,1,,,,,,,,0,,,68,69
124020,note_on,0,0,1,,,,,,,,0,,,59,69
124020,note_on,0,0,1,,,,,,,,0,,,61,69
124106,note_on,0,0,1,,,,,,,,0,,,61,0
124106,note_on,86,0,1,,,,,,,,0,,,59,0
124106,note_on,0,0,1,,,,,,,,0,,,68,0
124110,note_on,4,0,1,,,,,,,,0,,,56,69
124110,note_on,0,0,1,,,,,,,,0,,,59,69
124110,note_on,0,0,1,,,,,,,,0,,,61,69
124128,note_on,18,0,1,,,,,,,,0,,,31,0
124182,note_on,54,0,1,,,,,,,,0,,,59,0
124182,note_on,0,0,1,,,,,,,,0,,,56,0
124182,note_on,0,0,1,,,,,,,,0,,,61,0
124200,note_on,0,0,1,,,,,,,,0,,,50,80
124200,control_change,18,0,1,,,,,,,,0,64,0,,
124200,control_change,0,0,1,,,,,,,,0,64,127,,
124200,note_on,0,0,1,,,,,,,,0,,,47,80
124200,note_on,0,0,1,,,,,,,,0,,,44,80
124200,note_on,0,0,1,,,,,,,,0,,,41,80
124290,note_on,0,0,1,,,,,,,,0,,,56,69
124290,note_on,90,0,1,,,,,,,,0,,,62,69
124290,note_on,0,0,1,,,,,,,,0,,,59,69
124292,note_on,2,0,1,,,,,,,,0,,,56,0
124362,note_on,0,0,1,,,,,,,,0,,,56,0
124362,note_on,0,0,1,,,,,,,,0,,,62,0
124362,note_on,70,0,1,,,,,,,,0,,,59,0
124380,note_on,0,0,1,,,,,,,,0,,,62,69
124380,note_on,0,0,1,,,,,,,,0,,,68,69
124380,note_on,18,0,1,,,,,,,,0,,,59,69
124452,note_on,72,0,1,,,,,,,,0,,,68,0
124452,note_on,0,0,1,,,,,,,,0,,,59,0
124452,note_on,0,0,1,,,,,,,,0,,,62,0
124470,note_on,0,0,1,,,,,,,,0,,,71,69
124470,note_on,0,0,1,,,,,,,,0,,,68,69
124470,note_on,18,0,1,,,,,,,,0,,,74,69
124488,note_on,0,0,1,,,,,,,,0,,,44,0
124488,note_on,0,0,1,,,,,,,,0,,,41,0
124488,note_on,0,0,1,,,,,,,,0,,,47,0
124488,note_on,18,0,1,,,,,,,,0,,,50,0
124542,note_on,0,0,1,,,,,,,,0,,,74,0
124542,note_on,0,0,1,,,,,,,,0,,,68,0
124542,note_on,54,0,1,,,,,,,,0,,,71,0
124560,control_change,0,0,1,,,,,,,,0,64,127,,
124560,note_on,0,0,1,,,,,,,,0,,,31,80
124560,note_on,0,0,1,,,,,,,,0,,,71,69
124560,note_on,0,0,1,,,,,,,,0,,,74,69
124560,note_on,0,0,1,,,,,,,,0,,,80,69
124560,control_change,18,0,1,,,,,,,,0,64,0,,
124632,note_on,72,0,1,,,,,,,,0,,,74,0
124632,note_on,0,0,1,,,,,,,,0,,,71,0
124632,note_on,0,0,1,,,,,,,,0,,,80,0
124650,note_on,18,0,1,,,,,,,,0,,,71,69
124650,note_on,0,0,1,,,,,,,,0,,,68,69
124650,note_on,0,0,1,,,,,,,,0,,,74,69
124722,note_on,0,0,1,,,,,,,,0,,,71,0
124722,note_on,0,0,1,,,,,,,,0,,,74,0
124722,note_on,72,0,1,,,,,,,,0,,,68,0
124740,note_on,0,0,1,,,,,,,,0,,,68,69
124740,note_on,0,0,1,,,,,,,,0,,,62,69
124740,note_on,18,0,1,,,,,,,,0,,,59,69
124812,note_on,0,0,1,,,,,,,,0,,,59,0
124812,note_on,0,0,1,,,,,,,,0,,,62,0
124812,note_on,72,0,1,,,,,,,,0,,,68,0
124830,note_on,18,0,1,,,,,,,,0,,,62,69
124830,note_on,0,0,1,,,,,,,,0,,,56,69
124830,note_on,0,0,1,,,,,,,,0,,,59,69
124848,note_on,18,0,1,,,,,,,,0,,,31,0
124902,note_on,54,0,1,,,,,,,,0,,,62,0
124902,note_on,0,0,1,,,,,,,,0,,,59,0
124919,note_on,17,0,1,,,,,,,,0,,,56,0
124920,note_on,0,0,1,,,,,,,,0,,,43,80
124920,control_change,1,0,1,,,,,,,,0,64,0,,
124920,control_change,0,0,1,,,,,,,,0,64,127,,
124920,note_on,0,0,1,,,,,,,,0,,,49,80
124920,note_on,0,0,1,,,,,,,,0,,,51,80
124920,note_on,0,0,1,,,,,,,,0,,,58,80
124965,note_on,45,0,1,,,,,,,,0,,,73,80
125001,note_on,36,0,1,,,,,,,,0,,,73,0
125010,note_on,9,0,1,,,,,,,,0,,,79,80
125046,note_on,36,0,1,,,,,,,,0,,,79,0
125055,note_on,9,0,1,,,,,,,,0,,,82,80
125091,note_on,36,0,1,,,,,,,,0,,,82,0
125100,note_on,9,0,1,,,,,,,,0,,,87,80
125148,note_on,48,0,1,,,,,,,,0,,,87,0
125160,note_on,0,0,1,,,,,,,,0,,,79,80
125160,note_on,12,0,1,,,,,,,,0,,,82,80
125208,note_on,0,0,1,,,,,,,,0,,,82,0
125208,note_on,48,0,1,,,,,,,,0,,,79,0
125220,note_on,12,0,1,,,,,,,,0,,,73,80
125268,note_on,48,0,1,,,,,,,,0,,,73,0
125280,note_on,12,0,1,,,,,,,,0,,,85,80
125280,note_on,0,0,1,,,,,,,,0,,,31,80
125328,note_on,48,0,1,,,,,,,,0,,,85,0
125340,note_on,12,0,1,,,,,,,,0,,,75,80
125340,note_on,0,0,1,,,,,,,,0,,,79,80
125388,note_on,48,0,1,,,,,,,,0,,,79,0
125388,note_on,0,0,1,,,,,,,,0,,,75,0
125400,note_on,12,0,1,,,,,,,,0,,,70,80
125448,note_on,48,0,1,,,,,,,,0,,,70,0
125460,note_on,12,0,1,,,,,,,,0,,,82,80
125508,note_on,48,0,1,,,,,,,,0,,,82,0
125520,note_on,0,0,1,,,,,,,,0,,,75,80
125520,note_on,12,0,1,,,,,,,,0,,,73,80
125568,note_on,48,0,1,,,,,,,,0,,,75,0
125568,note_on,0,0,1,,,,,,,,0,,,31,0
125568,note_on,0,0,1,,,,,,,,0,,,73,0
125580,note_on,12,0,1,,,,,,,,0,,,67,80
125628,note_on,48,0,1,,,,,,,,0,,,67,0
125640,note_on,12,0,1,,,,,,,,0,,,79,80
125640,note_on,0,0,1,,,,,,,,0,,,31,80
125688,note_on,0,0,1,,,,,,,,0,,,51,0
125688,note_on,0,0,1,,,,,,,,0,,,49,0
125688,note_on,48,0,1,,,,,,,,0,,,79,0
125688,note_on,0,0,1,,,,,,,,0,,,43,0
125688,note_on,0,0,1,,,,,,,,0,,,58,0
125700,note_on,12,0,1,,,,,,,,0,,,70,80
125700,note_on,0,0,1,,,,,,,,0,,,73,80
125748,note_on,48,0,1,,,,,,,,0,,,73,0
125748,note_on,0,0,1,,,,,,,,0,,,70,0
125760,note_on,12,0,1,,,,,,,,0,,,63,80
125808,note_on,48,0,1,,,,,,,,0,,,63,0
125820,note_on,12,0,1,,,,,,,,0,,,75,80
125868,note_on,48,0,1,,,,,,,,0,,,75,0
125880,note_on,0,0,1,,,,,,,,0,,,67,80
125880,note_on,12,0,1,,,,,,,,0,,,70,80
125928,note_on,48,0,1,,,,,,,,0,,,67,0
125928,note_on,0,0,1,,,,,,,,0,,,70,0
125928,note_on,0,0,1,,,,,,,,0,,,31,0
125940,note_on,12,0,1,,,,,,,,0,,,61,80
125988,note_on,48,0,1,,,,,,,,0,,,61,0
126000,control_change,0,0,1,,,,,,,,0,64,127,,
126000,control_change,0,0,1,,,,,,,,0,64,0,,
126000,note_on,12,0,1,,,,,,,,0,,,73,80
126000,note_on,0,0,1,,,,,,,,0,,,31,80
126048,note_on,48,0,1,,,,,,,,0,,,73,0
126060,note_on,0,0,1,,,,,,,,0,,,67,80
126060,note_on,12,0,1,,,,,,,,0,,,63,80
126108,note_on,48,0,1,,,,,,,,0,,,67,0
126108,note_on,0,0,1,,,,,,,,0,,,63,0
126120,note_on,12,0,1,,,,,,,,0,,,58,80
126168,note_on,48,0,1,,,,,,,,0,,,58,0
126180,note_on,12,0,1,,,,,,,,0,,,70,80
126228,note_on,48,0,1,,,,,,,,0,,,70,0
126240,note_on,12,0,1,,,,,,,,0,,,61,80
126240,note_on,0,0,1,,,,,,,,0,,,63,80
126288,note_on,48,0,1,,,,,,,,0,,,63,0
126288,note_on,0,0,1,,,,,,,,0,,,31,0
126288,note_on,0,0,1,,,,,,,,0,,,61,0
126300,note_on,12,0,1,,,,,,,,0,,,55,80
126348,note_on,48,0,1,,,,,,,,0,,,55,0
126360,note_on,12,0,1,,,,,,,,0,,,67,80
126360,note_on,0,0,1,,,,,,,,0,,,31,80
126408,note_on,48,0,1,,,,,,,,0,,,67,0
126420,note_on,12,0,1,,,,,,,,0,,,58,80
126420,note_on,0,0,1,,,,,,,,0,,,61,80
126468,note_on,0,0,1,,,,,,,,0,,,58,0
126468,note_on,48,0,1,,,,,,,,0,,,61,0
126480,note_on,12,0,1,,,,,,,,0,,,51,80
126528,note_on,48,0,1,,,,,,,,0,,,51,0
126540,note_on,12,0,1,,,,,,,,0,,,63,80
126588,note_on,48,0,1,,,,,,,,0,,,63,0
126600,note_on,0,0,1,,,,,,,,0,,,58,80
126600,note_on,12,0,1,,,,,,,,0,,,55,80
126648,note_on,48,0,1,,,,,,,,0,,,58,0
126648,note_on,0,0,1,,,,,,,,0,,,31,0
126648,note_on,0,0,1,,,,,,,,0,,,55,0
126660,note_on,12,0,1,,,,,,,,0,,,49,80
126708,note_on,48,0,1,,,,,,,,0,,,49,0
126720,note_on,0,0,1,,,,,,,,0,,,31,80
126720,note_on,12,0,1,,,,,,,,0,,,61,80
126768,note_on,48,0,1,,,,,,,,0,,,61,0
126780,note_on,12,0,1,,,,,,,,0,,,51,80
126780,note_on,0,0,1,,,,,,,,0,,,55,80
126828,note_on,48,0,1,,,,,,,,0,,,55,0
126828,note_on,0,0,1,,,,,,,,0,,,51,0
126840,note_on,12,0,1,,,,,,,,0,,,46,80
126888,note_on,48,0,1,,,,,,,,0,,,46,0
126900,note_on,12,0,1,,,,,,,,0,,,58,80
126948,note_on,48,0,1,,,,,,,,0,,,58,0
126960,note_on,0,0,1,,,,,,,,0,,,49,80
126960,note_on,12,0,1,,,,,,,,0,,,51,80
127008,note_on,0,0,1,,,,,,,,0,,,51,0
127008,note_on,48,0,1,,,,,,,,0,,,49,0
127008,note_on,0,0,1,,,,,,,,0,,,31,0
127020,note_on,12,0,1,,,,,,,,0,,,43,80
127068,note_on,48,0,1,,,,,,,,0,,,43,0
127080,note_on,0,0,1,,,,,,,,0,,,51,80
127080,note_on,0,0,1,,,,,,,,0,,,42,80
127080,control_change,12,0,1,,,,,,,,0,64,0,,
127080,note_on,0,0,1,,,,,,,,0,,,48,80
127080,note_on,0,0,1,,,,,,,,0,,,45,80
127080,control_change,0,0,1,,,,,,,,0,64,127,,
127170,note_on,90,0,1,,,,,,,,0,,,54,70
127170,note_on,0,0,1,,,,,,,,0,,,57,70
127242,note_on,72,0,1,,,,,,,,0,,,57,0
127242,note_on,0,0,1,,,,,,,,0,,,54,0
127260,note_on,18,0,1,,,,,,,,0,,,54,70
127260,note_on,0,0,1,,,,,,,,0,,,63,70
127260,note_on,0,0,1,,,,,,,,0,,,57,70
127332,note_on,0,0,1,,,,,,,,0,,,63,0
127332,note_on,72,0,1,,,,,,,,0,,,57,0
127332,note_on,0,0,1,,,,,,,,0,,,54,0
127350,note_on,0,0,1,,,,,,,,0,,,63,70
127350,note_on,18,0,1,,,,,,,,0,,,66,70
127368,note_on,0,0,1,,,,,,,,0,,,48,0
127368,note_on,0,0,1,,,,,,,,0,,,45,0
127368,note_on,18,0,1,,,,,,,,0,,,42,0
127368,note_on,0,0,1,,,,,,,,0,,,51,0
127422,note_on,0,0,1,,,,,,,,0,,,66,0
127422,note_on,54,0,1,,,,,,,,0,,,63,0
127440,note_on,18,0,1,,,,,,,,0,,,75,70
127440,note_on,0,0,1,,,,,,,,0,,,63,70
127440,note_on,0,0,1,,,,,,,,0,,,31,80
127440,control_change,0,0,1,,,,,,,,0,64,0,,
127440,control_change,0,0,1,,,,,,,,0,64,127,,
127440,note_on,0,0,1,,,,,,,,0,,,66,70
127512,note_on,0,0,1,,,,,,,,0,,,63,0
127512,note_on,0,0,1,,,,,,,,0,,,75,0
127512,note_on,72,0,1,,,,,,,,0,,,66,0
127530,note_on,0,0,1,,,,,,,,0,,,69,70
127530,note_on,0,0,1,,,,,,,,0,,,63,70
127530,note_on,18,0,1,,,,,,,,0,,,66,70
127602,note_on,72,0,1,,,,,,,,0,,,63,0
127602,note_on,0,0,1,,,,,,,,0,,,69,0
127602,note_on,0,0,1,,,,,,,,0,,,66,0
127620,note_on,0,0,1,,,,,,,,0,,,63,70
127620,note_on,18,0,1,,,,,,,,0,,,66,70
127692,note_on,0,0,1,,,,,,,,0,,,66,0
127692,note_on,72,0,1,,,,,,,,0,,,63,0
127710,note_on,0,0,1,,,,,,,,0,,,63,70
127710,note_on,0,0,1,,,,,,,,0,,,57,70
127710,note_on,18,0,1,,,,,,,,0,,,54,70
127728,note_on,18,0,1,,,,,,,,0,,,31,0
127782,note_on,0,0,1,,,,,,,,0,,,63,0
127782,note_on,0,0,1,,,,,,,,0,,,57,0
127782,note_on,54,0,1,,,,,,,,0,,,54,0
127800,note_on,0,0,1,,,,,,,,0,,,42,80
127800,control_change,18,0,1,,,,,,,,0,64,0,,
127800,note_on,0,0,1,,,,,,,,0,,,47,80
127800,control_change,0,0,1,,,,,,,,0,64,127,,
127800,note_on,0,0,1,,,,,,,,0,,,50,80
127800,note_on,0,0,1,,,,,,,,0,,,45,80
127890,note_on,90,0,1,,,,,,,,0,,,57,70
127890,note_on,0,0,1,,,,,,,,0,,,54,70
127962,note_on,72,0,1,,,,,,,,0,,,54,0
127962,note_on,0,0,1,,,,,,,,0,,,57,0
127980,note_on,0,0,1,,,,,,,,0,,,57,70
127980,note_on,18,0,1,,,,,,,,0,,,62,70
127980,note_on,0,0,1,,,,,,,,0,,,54,70
128052,note_on,0,0,1,,,,,,,,0,,,62,0
128052,note_on,0,0,1,,,,,,,,0,,,54,0
128052,note_on,72,0,1,,,,,,,,0,,,57,0
128070,note_on,0,0,1,,,,,,,,0,,,62,70
128070,note_on,18,0,1,,,,,,,,0,,,66,70
128088,note_on,0,0,1,,,,,,,,0,,,45,0
128088,note_on,0,0,1,,,,,,,,0,,,47,0
128088,note_on,0,0,1,,,,,,,,0,,,50,0
128088,note_on,18,0,1,,,,,,,,0,,,42,0
128142,note_on,0,0,1,,,,,,,,0,,,66,0
128142,note_on,54,0,1,,,,,,,,0,,,62,0
128160,note_on,0,0,1,,,,,,,,0,,,66,70
128160,control_change,0,0,1,,,,,,,,0,64,0,,
128160,note_on,0,0,1,,,,,,,,0,,,31,80
128160,control_change,0,0,1,,,,,,,,0,64,127,,
128160,note_on,0,0,1,,,,,,,,0,,,74,70
128160,note_on,18,0,1,,,,,,,,0,,,62,70
128232,note_on,72,0,1,,,,,,,,0,,,66,0
128232,note_on,0,0,1,,,,,,,,0,,,62,0
128232,note_on,0,0,1,,,,,,,,0,,,74,0
128250,note_on,18,0,1,,,,,,,,0,,,69,70
128250,note_on,0,0,1,,,,,,,,0,,,62,70
128250,note_on,0,0,1,,,,,,,,0,,,66,70
128322,note_on,72,0,1,,,,,,,,0,,,62,0
128322,note_on,0,0,1,,,,,,,,0,,,69,0
128322,note_on,0,0,1,,,,,,,,0,,,66,0
128340,note_on,0,0,1,,,,,,,,0,,,62,70
128340,note_on,18,0,1,,,,,,,,0,,,66,70
128426,note_on,86,0,1,,,,,,,,0,,,62,0
128426,note_on,0,0,1,,,,,,,,0,,,66,0
128430,note_on,0,0,1,,,,,,,,0,,,57,70
128430,note_on,0,0,1,,,,,,,,0,,,54,70
128430,note_on,4,0,1,,,,,,,,0,,,62,70
128448,note_on,18,0,1,,,,,,,,0,,,31,0
128502,note_on,0,0,1,,,,,,,,0,,,54,0
128502,note_on,0,0,1,,,,,,,,0,,,57,0
128502,note_on,54,0,1,,,,,,,,0,,,62,0
128520,note_on,0,0,1,,,,,,,,0,,,42,80
128520,note_on,0,0,1,,,,,,,,0,,,45,80
128520,note_on,0,0,1,,,,,,,,0,,,48,80
128520,note_on,0,0,1,,,,,,,,0,,,51,80
128520,control_change,0,0,1,,,,,,,,0,64,127,,
128520,control_change,18,0,1,,,,,,,,0,64,0,,
128610,note_on,0,0,1,,,,,,,,0,,,57,70
128610,note_on,90,0,1,,,,,,,,0,,,54,70
128682,note_on,72,0,1,,,,,,,,0,,,57,0
128682,note_on,0,0,1,,,,,,,,0,,,54,0
128700,note_on,18,0,1,,,,,,,,0,,,54,70
128700,note_on,0,0,1,,,,,,,,0,,,63,70
128700,note_on,0,0,1,,,,,,,,0,,,57,70
128772,note_on,72,0,1,,,,,,,,0,,,57,0
128772,note_on,0,0,1,,,,,,,,0,,,63,0
128772,note_on,0,0,1,,,,,,,,0,,,54,0
128790,note_on,18,0,1,,,,,,,,0,,,66,70
128790,note_on,0,0,1,,,,,,,,0,,,63,70
128808,note_on,0,0,1,,,,,,,,0,,,51,0
128808,note_on,0,0,1,,,,,,,,0,,,48,0
128808,note_on,0,0,1,,,,,,,,0,,,42,0
128808,note_on,18,0,1,,,,,,,,0,,,45,0
128862,note_on,0,0,1,,,,,,,,0,,,66,0
128862,note_on,54,0,1,,,,,,,,0,,,63,0
128880,note_on,0,0,1,,,,,,,,0,,,31,80
128880,control_change,0,0,1,,,,,,,,0,64,0,,
128880,control_change,0,0,1,,,,,,,,0,64,127,,
128880,note_on,0,0,1,,,,,,,,0,,,63,70
128880,note_on,18,0,1,,,,,,,,0,,,75,70
128880,note_on,0,0,1,,,,,,,,0,,,66,70
128952,note_on,0,0,1,,,,,,,,0,,,75,0
128952,note_on,72,0,1,,,,,,,,0,,,63,0
128952,note_on,0,0,1,,,,,,,,0,,,66,0
128970,note_on,0,0,1,,,,,,,,0,,,69,70
128970,note_on,0,0,1,,,,,,,,0,,,63,70
128970,note_on,18,0,1,,,,,,,,0,,,66,70
129042,note_on,72,0,1,,,,,,,,0,,,69,0
129042,note_on,0,0,1,,,,,,,,0,,,63,0
129042,note_on,0,0,1,,,,,,,,0,,,66,0
129060,note_on,18,0,1,,,,,,,,0,,,66,70
129060,note_on,0,0,1,,,,,,,,0,,,63,70
129132,note_on,72,0,1,,,,,,,,0,,,63,0
129132,note_on,0,0,1,,,,,,,,0,,,66,0
129150,note_on,0,0,1,,,,,,,,0,,,54,70
129150,note_on,0,0,1,,,,,,,,0,,,63,70
129150,note_on,18,0,1,,,,,,,,0,,,57,70
129168,note_on,18,0,1,,,,,,,,0,,,31,0
129222,note_on,54,0,1,,,,,,,,0,,,57,0
129222,note_on,0,0,1,,,,,,,,0,,,54,0
129222,note_on,0,0,1,,,,,,,,0,,,63,0
129240,control_change,18,0,1,,,,,,,,0,64,0,,
129240,control_change,0,0,1,,,,,,,,0,64,127,,
129240,note_on,0,0,1,,,,,,,,0,,,59,80
129240,note_on,0,0,1,,,,,,,,0,,,50,80
129240,note_on,0,0,1,,,,,,,,0,,,43,80
129240,note_on,0,0,1,,,,,,,,0,,,47,80
129285,note_on,45,0,1,,,,,,,,0,,,67,80
129321,note_on,36,0,1,,,,,,,,0,,,67,0
129330,note_on,9,0,1,,,,,,,,0,,,71,80
129366,note_on,36,0,1,,,,,,,,0,,,71,0
129375,note_on,9,0,1,,,,,,,,0,,,74,80
129411,note_on,36,0,1,,,,,,,,0,,,74,0
129420,note_on,9,0,1,,,,,,,,0,,,83,80
129468,note_on,48,0,1,,,,,,,,0,,,83,0
129480,note_on,0,0,1,,,,,,,,0,,,74,80
129480,note_on,12,0,1,,,,,,,,0,,,79,80
129528,note_on,0,0,1,,,,,,,,0,,,79,0
129528,note_on,48,0,1,,,,,,,,0,,,74,0
129540,note_on,12,0,1,,,,,,,,0,,,71,80
129588,note_on,48,0,1,,,,,,,,0,,,71,0
129600,note_on,12,0,1,,,,,,,,0,,,79,80
129600,note_on,0,0,1,,,,,,,,0,,,31,80
129648,note_on,48,0,1,,,,,,,,0,,,79,0
129660,note_on,0,0,1,,,,,,,,0,,,74,80
129660,note_on,12,0,1,,,,,,,,0,,,71,80
129708,note_on,48,0,1,,,,,,,,0,,,74,0
129708,note_on,0,0,1,,,,,,,,0,,,71,0
129720,note_on,12,0,1,,,,,,,,0,,,67,80
129768,note_on,48,0,1,,,,,,,,0,,,67,0
129780,note_on,12,0,1,,,,,,,,0,,,76,80
129828,note_on,48,0,1,,,,,,,,0,,,76,0
129840,note_on,0,0,1,,,,,,,,0,,,71,80
129840,note_on,12,0,1,,,,,,,,0,,,67,80
129888,note_on,0,0,1,,,,,,,,0,,,31,0
129888,note_on,48,0,1,,,,,,,,0,,,71,0
129888,note_on,0,0,1,,,,,,,,0,,,67,0
129900,note_on,12,0,1,,,,,,,,0,,,64,80
129948,note_on,48,0,1,,,,,,,,0,,,64,0
129960,note_on,12,0,1,,,,,,,,0,,,74,80
129960,note_on,0,0,1,,,,,,,,0,,,31,80
130008,note_on,0,0,1,,,,,,,,0,,,47,0
130008,note_on,0,0,1,,,,,,,,0,,,59,0
130008,note_on,0,0,1,,,,,,,,0,,,50,0
130008,note_on,48,0,1,,,,,,,,0,,,74,0
130008,note_on,0,0,1,,,,,,,,0,,,43,0
130020,note_on,12,0,1,,,,,,,,0,,,67,80
130020,note_on,0,0,1,,,,,,,,0,,,71,80
130068,note_on,0,0,1,,,,,,,,0,,,67,0
130068,note_on,48,0,1,,,,,,,,0,,,71,0
130080,note_on,12,0,1,,,,,,,,0,,,62,80
130128,note_on,48,0,1,,,,,,,,0,,,62,0
130140,note_on,12,0,1,,,,,,,,0,,,71,80
130188,note_on,48,0,1,,,,,,,,0,,,71,0
130200,note_on,0,0,1,,,,,,,,0,,,67,80
130200,note_on,12,0,1,,,,,,,,0,,,62,80
130248,note_on,48,0,1,,,,,,,,0,,,67,0
130248,note_on,0,0,1,,,,,,,,0,,,31,0
130248,note_on,0,0,1,,,,,,,,0,,,62,0
130260,note_on,12,0,1,,,,,,,,0,,,59,80
130308,note_on,48,0,1,,,,,,,,0,,,59,0
130320,note_on,12,0,1,,,,,,,,0,,,67,80
130320,note_on,0,0,1,,,,,,,,0,,,31,80
130320,control_change,0,0,1,,,,,,,,0,64,127,,
130320,control_change,0,0,1,,,,,,,,0,64,0,,
130368,note_on,48,0,1,,,,,,,,0,,,67,0
130380,note_on,12,0,1,,,,,,,,0,,,59,80
130380,note_on,0,0,1,,,,,,,,0,,,62,80
130428,note_on,0,0,1,,,,,,,,0,,,59,0
130428,note_on,48,0,1,,,,,,,,0,,,62,0
130440,note_on,12,0,1,,,,,,,,0,,,55,80
130488,note_on,48,0,1,,,,,,,,0,,,55,0
130500,note_on,12,0,1,,,,,,,,0,,,64,80
130548,note_on,48,0,1,,,,,,,,0,,,64,0
130560,note_on,0,0,1,,,,,,,,0,,,59,80
130560,note_on,12,0,1,,,,,,,,0,,,55,80
130608,note_on,0,0,1,,,,,,,,0,,,55,0
130608,note_on,0,0,1,,,,,,,,0,,,31,0
130608,note_on,48,0,1,,,,,,,,0,,,59,0
130620,note_on,12,0,1,,,,,,,,0,,,52,80
130623,note_on,3,0,1,,,,,,,,0,,,52,0
130680,note_on,0,0,1,,,,,,,,0,,,31,80
130680,note_on,57,0,1,,,,,,,,0,,,62,80
130728,note_on,48,0,1,,,,,,,,0,,,62,0
130740,note_on,0,0,1,,,,,,,,0,,,59,80
130740,note_on,12,0,1,,,,,,,,0,,,55,80
130788,note_on,48,0,1,,,,,,,,0,,,59,0
130788,note_on,0,0,1,,,,,,,,0,,,55,0
130800,note_on,12,0,1,,,,,,,,0,,,50,80
130848,note_on,48,0,1,,,,,,,,0,,,50,0
130860,note_on,12,0,1,,,,,,,,0,,,59,80
130908,note_on,48,0,1,,,,,,,,0,,,59,0
130920,note_on,12,0,1,,,,,,,,0,,,55,80
130920,note_on,0,0,1,,,,,,,,0,,,50,80
130968,note_on,48,0,1,,,,,,,,0,,,50,0
130968,note_on,0,0,1,,,,,,,,0,,,55,0
130968,note_on,0,0,1,,,,,,,,0,,,31,0
130980,note_on,12,0,1,,,,,,,,0,,,47,80
131028,note_on,48,0,1,,,,,,,,0,,,47,0
131040,note_on,12,0,1,,,,,,,,0,,,62,80
131040,note_on,0,0,1,,,,,,,,0,,,31,80
131088,note_on,48,0,1,,,,,,,,0,,,62,0
131100,note_on,12,0,1,,,,,,,,0,,,59,80
131100,note_on,0,0,1,,,,,,,,0,,,55,80
131148,note_on,48,0,1,,,,,,,,0,,,55,0
131148,note_on,0,0,1,,,,,,,,0,,,59,0
131160,note_on,12,0,1,,,,,,,,0,,,50,80
131208,note_on,48,0,1,,,,,,,,0,,,50,0
131220,note_on,12,0,1,,,,,,,,0,,,64,80
131268,note_on,48,0,1,,,,,,,,0,,,64,0
131280,note_on,0,0,1,,,,,,,,0,,,55,80
131280,note_on,12,0,1,,,,,,,,0,,,59,80
131328,note_on,48,0,1,,,,,,,,0,,,55,0
131328,note_on,0,0,1,,,,,,,,0,,,31,0
131328,note_on,0,0,1,,,,,,,,0,,,59,0
131340,note_on,12,0,1,,,,,,,,0,,,52,80
131358,note_on,18,0,1,,,,,,,,0,,,52,0
131400,note_on,0,0,1,,,,,,,,0,,,62,60
131400,note_on,0,0,1,,,,,,,,0,,,41,51
131400,control_change,42,0,1,,,,,,,,0,64,0,,
131400,control_change,0,0,1,,,,,,,,0,64,127,,
131400,note_on,0,0,1,,,,,,,,0,,,44,51
131400,note_on,0,0,1,,,,,,,,0,,,59,55
131436,note_on,0,0,1,,,,,,,,0,,,44,0
131436,note_on,0,0,1,,,,,,,,0,,,59,0
131436,note_on,0,0,1,,,,,,,,0,,,62,0
131436,note_on,36,0,1,,,,,,,,0,,,41,0
131445,note_on,0,0,1,,,,,,,,0,,,31,51
131445,note_on,0,0,1,,,,,,,,0,,,50,55
131445,note_on,9,0,1,,,,,,,,0,,,53,55
131481,note_on,36,0,1,,,,,,,,0,,,31,0
131481,note_on,0,0,1,,,,,,,,0,,,53,0
131481,note_on,0,0,1,,,,,,,,0,,,50,0
131490,note_on,0,0,1,,,,,,,,0,,,44,51
131490,note_on,0,0,1,,,,,,,,0,,,41,51
131490,note_on,0,0,1,,,,,,,,0,,,62,60
131490,note_on,9,0,1,,,,,,,,0,,,59,55
131526,note_on,36,0,1,,,,,,,,0,,,41,0
131526,note_on,0,0,1,,,,,,,,0,,,44,0
131526,note_on,0,0,1,,,,,,,,0,,,59,0
131526,note_on,0,0,1,,,,,,,,0,,,62,0
131535,note_on,0,0,1,,,,,,,,0,,,50,55
131535,note_on,9,0,1,,,,,,,,0,,,53,55
131535,note_on,0,0,1,,,,,,,,0,,,31,51
131571,note_on,36,0,1,,,,,,,,0,,,31,0
131571,note_on,0,0,1,,,,,,,,0,,,50,0
131571,note_on,0,0,1,,,,,,,,0,,,53,0
131580,note_on,9,0,1,,,,,,,,0,,,59,55
131580,note_on,0,0,1,,,,,,,,0,,,41,51
131580,note_on,0,0,1,,,,,,,,0,,,62,60
131580,note_on,0,0,1,,,,,,,,0,,,44,51
131616,note_on,0,0,1,,,,,,,,0,,,62,0
131616,note_on,0,0,1,,,,,,,,0,,,59,0
131616,note_on,36,0,1,,,,,,,,0,,,44,0
131616,note_on,0,0,1,,,,,,,,0,,,41,0
131625,note_on,0,0,1,,,,,,,,0,,,53,55
131625,note_on,9,0,1,,,,,,,,0,,,50,55
131625,note_on,0,0,1,,,,,,,,0,,,31,51
131661,note_on,36,0,1,,,,,,,,0,,,31,0
131661,note_on,0,0,1,,,,,,,,0,,,50,0
131661,note_on,0,0,1,,,,,,,,0,,,53,0
131670,note_on,0,0,1,,,,,,,,0,,,41,51
131670,note_on,9,0,1,,,,,,,,0,,,59,55
131670,note_on,0,0,1,,,,,,,,0,,,44,51
131670,note_on,0,0,1,,,,,,,,0,,,62,60
131706,note_on,0,0,1,,,,,,,,0,,,41,0
131706,note_on,0,0,1,,,,,,,,0,,,59,0
131706,note_on,0,0,1,,,,,,,,0,,,62,0
131706,note_on,36,0,1,,,,,,,,0,,,44,0
131715,note_on,0,0,1,,,,,,,,0,,,31,51
131715,note_on,0,0,1,,,,,,,,0,,,50,55
131715,note_on,9,0,1,,,,,,,,0,,,53,55
131751,note_on,36,0,1,,,,,,,,0,,,31,0
131751,note_on,0,0,1,,,,,,,,0,,,53,0
131751,note_on,0,0,1,,,,,,,,0,,,50,0
131760,note_on,9,0,1,,,,,,,,0,,,62,60
131760,note_on,0,0,1,,,,,,,,0,,,41,51
131760,note_on,0,0,1,,,,,,,,0,,,44,51
131760,note_on,0,0,1,,,,,,,,0,,,59,55
131796,note_on,0,0,1,,,,,,,,0,,,59,0
131796,note_on,36,0,1,,,,,,,,0,,,44,0
131796,note_on,0,0,1,,,,,,,,0,,,41,0
131796,note_on,0,0,1,,,,,,,,0,,,62,0
131805,note_on,9,0,1,,,,,,,,0,,,50,55
131805,note_on,0,0,1,,,,,,,,0,,,53,55
131805,note_on,0,0,1,,,,,,,,0,,,31,51
131841,note_on,0,0,1,,,,,,,,0,,,53,0
131841,note_on,36,0,1,,,,,,,,0,,,31,0
131841,note_on,0,0,1,,,,,,,,0,,,50,0
131850,note_on,0,0,1,,,,,,,,0,,,41,51
131850,note_on,0,0,1,,,,,,,,0,,,44,51
131850,note_on,0,0,1,,,,,,,,0,,,62,60
131850,note_on,9,0,1,,,,,,,,0,,,59,55
131886,note_on,0,0,1,,,,,,,,0,,,41,0
131886,note_on,36,0,1,,,,,,,,0,,,44,0
131886,note_on,0,0,1,,,,,,,,0,,,59,0
131886,note_on,0,0,1,,,,,,,,0,,,62,0
131895,note_on,9,0,1,,,,,,,,0,,,53,55
131895,note_on,0,0,1,,,,,,,,0,,,50,55
131895,note_on,0,0,1,,,,,,,,0,,,31,51
131931,note_on,0,0,1,,,,,,,,0,,,53,0
131931,note_on,0,0,1,,,,,,,,0,,,50,0
131931,note_on,36,0,1,,,,,,,,0,,,31,0
131940,note_on,0,0,1,,,,,,,,0,,,62,60
131940,note_on,0,0,1,,,,,,,,0,,,44,51
131940,note_on,9,0,1,,,,,,,,0,,,59,55
131940,note_on,0,0,1,,,,,,,,0,,,41,51
131976,note_on,0,0,1,,,,,,,,0,,,59,0
131976,note_on,0,0,1,,,,,,,,0,,,62,0
131976,note_on,36,0,1,,,,,,,,0,,,41,0
131976,note_on,0,0,1,,,,,,,,0,,,44,0
131985,note_on,0,0,1,,,,,,,,0,,,50,55
131985,note_on,0,0,1,,,,,,,,0,,,31,51
131985,note_on,9,0,1,,,,,,,,0,,,53,55
132021,note_on,36,0,1,,,,,,,,0,,,31,0
132021,note_on,0,0,1,,,,,,,,0,,,50,0
132021,note_on,0,0,1,,,,,,,,0,,,53,0
132030,note_on,0,0,1,,,,,,,,0,,,41,51
132030,note_on,0,0,1,,,,,,,,0,,,44,51
132030,note_on,0,0,1,,,,,,,,0,,,59,55
132030,note_on,9,0,1,,,,,,,,0,,,62,60
132066,note_on,0,0,1,,,,,,,,0,,,44,0
132066,note_on,0,0,1,,,,,,,,0,,,59,0
132066,note_on,0,0,1,,,,,,,,0,,,62,0
132066,note_on,36,0,1,,,,,,,,0,,,41,0
132075,note_on,0,0,1,,,,,,,,0,,,31,51
132075,note_on,0,0,1,,,,,,,,0,,,50,55
132075,note_on,9,0,1,,,,,,,,0,,,53,55
132111,note_on,36,0,1,,,,,,,,0,,,31,0
132111,note_on,0,0,1,,,,,,,,0,,,50,0
132111,note_on,0,0,1,,,,,,,,0,,,53,0
132120,note_on,0,0,1,,,,,,,,0,,,43,51
132120,control_change,0,0,1,,,,,,,,0,64,127,,
132120,note_on,0,0,1,,,,,,,,0,,,61,60
132120,note_on,0,0,1,,,,,,,,0,,,41,51
132120,control_change,9,0,1,,,,,,,,0,64,0,,
132120,note_on,0,0,1,,,,,,,,0,,,59,55
132156,note_on,0,0,1,,,,,,,,0,,,43,0
132156,note_on,0,0,1,,,,,,,,0,,,59,0
132156,note_on,0,0,1,,,,,,,,0,,,61,0
132156,note_on,36,0,1,,,,,,,,0,,,41,0
132165,note_on,9,0,1,,,,,,,,0,,,49,55
132165,note_on,0,0,1,,,,,,,,0,,,31,51
132165,note_on,0,0,1,,,,,,,,0,,,53,55
132201,note_on,36,0,1,,,,,,,,0,,,31,0
132201,note_on,0,0,1,,,,,,,,0,,,49,0
132201,note_on,0,0,1,,,,,,,,0,,,53,0
132210,note_on,0,0,1,,,,,,,,0,,,43,51
132210,note_on,0,0,1,,,,,,,,0,,,41,51
132210,note_on,0,0,1,,,,,,,,0,,,61,60
132210,note_on,9,0,1,,,,,,,,0,,,59,55
132246,note_on,0,0,1,,,,,,,,0,,,61,0
132246,note_on,0,0,1,,,,,,,,0,,,59,0
132246,note_on,0,0,1,,,,,,,,0,,,41,0
132246,note_on,36,0,1,,,,,,,,0,,,43,0
132255,note_on,0,0,1,,,,,,,,0,,,53,55
132255,note_on,9,0,1,,,,,,,,0,,,49,55
132255,note_on,0,0,1,,,,,,,,0,,,31,51
132291,note_on,0,0,1,,,,,,,,0,,,49,0
132291,note_on,0,0,1,,,,,,,,0,,,53,0
132291,note_on,36,0,1,,,,,,,,0,,,31,0
132300,note_on,0,0,1,,,,,,,,0,,,41,51
132300,note_on,0,0,1,,,,,,,,0,,,43,51
132300,note_on,0,0,1,,,,,,,,0,,,61,60
132300,note_on,9,0,1,,,,,,,,0,,,59,55
132336,note_on,0,0,1,,,,,,,,0,,,61,0
132336,note_on,36,0,1,,,,,,,,0,,,41,0
132336,note_on,0,0,1,,,,,,,,0,,,43,0
132336,note_on,0,0,1,,,,,,,,0,,,59,0
132345,note_on,0,0,1,,,,,,,,0,,,49,55
132345,note_on,0,0,1,,,,,,,,0,,,31,51
132345,note_on,9,0,1,,,,,,,,0,,,53,55
132381,note_on,36,0,1,,,,,,,,0,,,31,0
132381,note_on,0,0,1,,,,,,,,0,,,49,0
132381,note_on,0,0,1,,,,,,,,0,,,53,0
132390,note_on,0,0,1,,,,,,,,0,,,41,51
132390,note_on,0,0,1,,,,,,,,0,,,43,51
132390,note_on,0,0,1,,,,,,,,0,,,59,55
132390,note_on,9,0,1,,,,,,,,0,,,61,60
132426,note_on,36,0,1,,,,,,,,0,,,43,0
132426,note_on,0,0,1,,,,,,,,0,,,41,0
132426,note_on,0,0,1,,,,,,,,0,,,61,0
132426,note_on,0,0,1,,,,,,,,0,,,59,0
132435,note_on,9,0,1,,,,,,,,0,,,53,55
132435,note_on,0,0,1,,,,,,,,0,,,49,55
132435,note_on,0,0,1,,,,,,,,0,,,31,51
132471,note_on,36,0,1,,,,,,,,0,,,31,0
132471,note_on,0,0,1,,,,,,,,0,,,53,0
132471,note_on,0,0,1,,,,,,,,0,,,49,0
132480,note_on,0,0,1,,,,,,,,0,,,61,60
132480,note_on,0,0,1,,,,,,,,0,,,43,51
132480,note_on,0,0,1,,,,,,,,0,,,41,51
132480,note_on,9,0,1,,,,,,,,0,,,59,55
132516,note_on,0,0,1,,,,,,,,0,,,61,0
132516,note_on,36,0,1,,,,,,,,0,,,43,0
132516,note_on,0,0,1,,,,,,,,0,,,41,0
132516,note_on,0,0,1,,,,,,,,0,,,59,0
132525,note_on,0,0,1,,,,,,,,0,,,31,51
132525,note_on,0,0,1,,,,,,,,0,,,49,55
132525,note_on,9,0,1,,,,,,,,0,,,53,55
132561,note_on,36,0,1,,,,,,,,0,,,31,0
132561,note_on,0,0,1,,,,,,,,0,,,49,0
132561,note_on,0,0,1,,,,,,,,0,,,53,0
132570,note_on,0,0,1,,,,,,,,0,,,61,60
132570,note_on,0,0,1,,,,,,,,0,,,41,51
132570,note_on,9,0,1,,,,,,,,0,,,59,55
132570,note_on,0,0,1,,,,,,,,0,,,43,51
132606,note_on,0,0,1,,,,,,,,0,,,61,0
132606,note_on,0,0,1,,,,,,,,0,,,59,0
132606,note_on,0,0,1,,,,,,,,0,,,43,0
132606,note_on,36,0,1,,,,,,,,0,,,41,0
132615,note_on,0,0,1,,,,,,,,0,,,49,55
132615,note_on,0,0,1,,,,,,,,0,,,31,51
132615,note_on,9,0,1,,,,,,,,0,,,53,55
132651,note_on,0,0,1,,,,,,,,0,,,53,0
132651,note_on,0,0,1,,,,,,,,0,,,49,0
132651,note_on,36,0,1,,,,,,,,0,,,31,0
132660,note_on,0,0,1,,,,,,,,0,,,43,51
132660,note_on,9,0,1,,,,,,,,0,,,59,55
132660,note_on,0,0,1,,,,,,,,0,,,41,51
132660,note_on,0,0,1,,,,,,,,0,,,61,60
132696,note_on,0,0,1,,,,,,,,0,,,59,0
132696,note_on,0,0,1,,,,,,,,0,,,61,0
132696,note_on,36,0,1,,,,,,,,0,,,41,0
132696,note_on,0,0,1,,,,,,,,0,,,43,0
132705,note_on,0,0,1,,,,,,,,0,,,31,51
132705,note_on,9,0,1,,,,,,,,0,,,49,55
132705,note_on,0,0,1,,,,,,,,0,,,53,55
132741,note_on,36,0,1,,,,,,,,0,,,31,0
132741,note_on,0,0,1,,,,,,,,0,,,49,0
132741,note_on,0,0,1,,,,,,,,0,,,53,0
132750,note_on,0,0,1,,,,,,,,0,,,41,51
132750,note_on,0,0,1,,,,,,,,0,,,43,51
132750,note_on,9,0,1,,,,,,,,0,,,61,60
132750,note_on,0,0,1,,,,,,,,0,,,59,55
132786,note_on,36,0,1,,,,,,,,0,,,41,0
132786,note_on,0,0,1,,,,,,,,0,,,43,0
132786,note_on,0,0,1,,,,,,,,0,,,59,0
132786,note_on,0,0,1,,,,,,,,0,,,61,0
132795,note_on,9,0,1,,,,,,,,0,,,49,55
132795,note_on,0,0,1,,,,,,,,0,,,31,51
132795,note_on,0,0,1,,,,,,,,0,,,53,55
132831,note_on,36,0,1,,,,,,,,0,,,31,0
132831,note_on,0,0,1,,,,,,,,0,,,49,0
132831,note_on,0,0,1,,,,,,,,0,,,53,0
132840,control_change,0,0,1,,,,,,,,0,64,0,,
132840,note_on,0,0,1,,,,,,,,0,,,60,60
132840,note_on,9,0,1,,,,,,,,0,,,63,60
132840,note_on,0,0,1,,,,,,,,0,,,42,51
132840,note_on,0,0,1,,,,,,,,0,,,45,51
132840,control_change,0,0,1,,,,,,,,0,64,127,,
132888,note_on,0,0,1,,,,,,,,0,,,60,0
132888,note_on,0,0,1,,,,,,,,0,,,63,0
132888,note_on,0,0,1,,,,,,,,0,,,42,0
132888,note_on,48,0,1,,,,,,,,0,,,45,0
132900,note_on,0,0,1,,,,,,,,0,,,51,55
132900,note_on,0,0,1,,,,,,,,0,,,31,51
132900,note_on,12,0,1,,,,,,,,0,,,57,55
132948,note_on,0,0,1,,,,,,,,0,,,57,0
132948,note_on,48,0,1,,,,,,,,0,,,31,0
132948,note_on,0,0,1,,,,,,,,0,,,51,0
132960,note_on,0,0,1,,,,,,,,0,,,42,51
132960,note_on,0,0,1,,,,,,,,0,,,45,51
132960,note_on,0,0,1,,,,,,,,0,,,60,60
132960,note_on,12,0,1,,,,,,,,0,,,63,60
133008,note_on,0,0,1,,,,,,,,0,,,60,0
133008,note_on,0,0,1,,,,,,,,0,,,63,0
133008,note_on,48,0,1,,,,,,,,0,,,45,0
133008,note_on,0,0,1,,,,,,,,0,,,42,0
133020,note_on,12,0,1,,,,,,,,0,,,51,55
133020,note_on,0,0,1,,,,,,,,0,,,57,55
133020,note_on,0,0,1,,,,,,,,0,,,31,51
133068,note_on,0,0,1,,,,,,,,0,,,51,0
133068,note_on,0,0,1,,,,,,,,0,,,57,0
133068,note_on,48,0,1,,,,,,,,0,,,31,0
133080,note_on,0,0,1,,,,,,,,0,,,42,51
133080,note_on,12,0,1,,,,,,,,0,,,60,60
133080,note_on,0,0,1,,,,,,,,0,,,45,51
133080,note_on,0,0,1,,,,,,,,0,,,63,60
133128,note_on,0,0,1,,,,,,,,0,,,45,0
133128,note_on,0,0,1,,,,,,,,0,,,60,0
133128,note_on,0,0,1,,,,,,,,0,,,63,0
133128,note_on,48,0,1,,,,,,,,0,,,42,0
133140,note_on,0,0,1,,,,,,,,0,,,57,55
133140,note_on,12,0,1,,,,,,,,0,,,51,55
133140,note_on,0,0,1,,,,,,,,0,,,31,51
133188,note_on,48,0,1,,,,,,,,0,,,31,0
133188,note_on,0,0,1,,,,,,,,0,,,57,0
133188,note_on,0,0,1,,,,,,,,0,,,51,0
133200,control_change,0,0,1,,,,,,,,0,64,0,,
133200,control_change,0,0,1,,,,,,,,0,64,127,,
133200,note_on,0,0,1,,,,,,,,0,,,60,60
133200,note_on,0,0,1,,,,,,,,0,,,45,51
133200,note_on,12,0,1,,,,,,,,0,,,62,60
133200,note_on,0,0,1,,,,,,,,0,,,42,51
133248,note_on,0,0,1,,,,,,,,0,,,62,0
133248,note_on,0,0,1,,,,,,,,0,,,60,0
133248,note_on,0,0,1,,,,,,,,0,,,42,0
133248,note_on,48,0,1,,,,,,,,0,,,45,0
133260,note_on,12,0,1,,,,,,,,0,,,50,55
133260,note_on,0,0,1,,,,,,,,0,,,31,51
133260,note_on,0,0,1,,,,,,,,0,,,57,55
133308,note_on,0,0,1,,,,,,,,0,,,50,0
133308,note_on,0,0,1,,,,,,,,0,,,57,0
133308,note_on,48,0,1,,,,,,,,0,,,31,0
133320,note_on,12,0,1,,,,,,,,0,,,60,60
133320,note_on,0,0,1,,,,,,,,0,,,62,60
133320,note_on,0,0,1,,,,,,,,0,,,45,51
133320,note_on,0,0,1,,,,,,,,0,,,42,51
133368,note_on,0,0,1,,,,,,,,0,,,42,0
133368,note_on,0,0,1,,,,,,,,0,,,62,0
133368,note_on,0,0,1,,,,,,,,0,,,60,0
133368,note_on,48,0,1,,,,,,,,0,,,45,0
133380,note_on,0,0,1,,,,,,,,0,,,57,55
133380,note_on,0,0,1,,,,,,,,0,,,31,51
133380,note_on,12,0,1,,,,,,,,0,,,50,55
133428,note_on,48,0,1,,,,,,,,0,,,31,0
133428,note_on,0,0,1,,,,,,,,0,,,50,0
133428,note_on,0,0,1,,,,,,,,0,,,57,0
133440,note_on,12,0,1,,,,,,,,0,,,62,60
133440,note_on,0,0,1,,,,,,,,0,,,60,60
133440,note_on,0,0,1,,,,,,,,0,,,45,51
133440,note_on,0,0,1,,,,,,,,0,,,42,51
133488,note_on,0,0,1,,,,,,,,0,,,62,0
133488,note_on,0,0,1,,,,,,,,0,,,60,0
133488,note_on,48,0,1,,,,,,,,0,,,45,0
133488,note_on,0,0,1,,,,,,,,0,,,42,0
133500,note_on,12,0,1,,,,,,,,0,,,50,55
133500,note_on,0,0,1,,,,,,,,0,,,31,51
133500,note_on,0,0,1,,,,,,,,0,,,57,55
133548,note_on,48,0,1,,,,,,,,0,,,31,0
133548,note_on,0,0,1,,,,,,,,0,,,50,0
133548,note_on,0,0,1,,,,,,,,0,,,57,0
133560,control_change,0,0,1,,,,,,,,0,64,127,,
133560,note_on,0,0,1,,,,,,,,0,,,59,80
133560,note_on,0,0,1,,,,,,,,0,,,43,80
133560,note_on,0,0,1,,,,,,,,0,,,47,80
133560,note_on,0,0,1,,,,,,,,0,,,50,80
133560,control_change,12,0,1,,,,,,,,0,64,0,,
133620,note_on,60,0,1,,,,,,,,0,,,83,80
133668,note_on,48,0,1,,,,,,,,0,,,83,0
133680,note_on,12,0,1,,,,,,,,0,,,86,80
133728,note_on,48,0,1,,,,,,,,0,,,86,0
133740,note_on,12,0,1,,,,,,,,0,,,95,80
133788,note_on,48,0,1,,,,,,,,0,,,95,0
133800,note_on,0,0,1,,,,,,,,0,,,86,80
133800,note_on,12,0,1,,,,,,,,0,,,91,80
133848,note_on,0,0,1,,,,,,,,0,,,91,0
133848,note_on,48,0,1,,,,,,,,0,,,86,0
133860,note_on,12,0,1,,,,,,,,0,,,83,80
133908,note_on,48,0,1,,,,,,,,0,,,83,0
133920,note_on,12,0,1,,,,,,,,0,,,91,80
133920,note_on,0,0,1,,,,,,,,0,,,31,80
133968,note_on,48,0,1,,,,,,,,0,,,91,0
133980,note_on,12,0,1,,,,,,,,0,,,83,80
133980,note_on,0,0,1,,,,,,,,0,,,86,80
134028,note_on,0,0,1,,,,,,,,0,,,83,0
134028,note_on,48,0,1,,,,,,,,0,,,86,0
134040,note_on,12,0,1,,,,,,,,0,,,79,80
134088,note_on,48,0,1,,,,,,,,0,,,79,0
134100,note_on,12,0,1,,,,,,,,0,,,88,80
134148,note_on,48,0,1,,,,,,,,0,,,88,0
134160,note_on,0,0,1,,,,,,,,0,,,79,80
134160,note_on,12,0,1,,,,,,,,0,,,83,80
134208,note_on,0,0,1,,,,,,,,0,,,31,0
134208,note_on,48,0,1,,,,,,,,0,,,79,0
134208,note_on,0,0,1,,,,,,,,0,,,83,0
134220,note_on,12,0,1,,,,,,,,0,,,76,80
134268,note_on,48,0,1,,,,,,,,0,,,76,0
134280,note_on,0,0,1,,,,,,,,0,,,31,80
134280,note_on,12,0,1,,,,,,,,0,,,86,80
134328,note_on,0,0,1,,,,,,,,0,,,43,0
134328,note_on,0,0,1,,,,,,,,0,,,50,0
134328,note_on,0,0,1,,,,,,,,0,,,47,0
134328,note_on,48,0,1,,,,,,,,0,,,86,0
134328,note_on,0,0,1,,,,,,,,0,,,59,0
134340,note_on,12,0,1,,,,,,,,0,,,83,80
134340,note_on,0,0,1,,,,,,,,0,,,79,80
134388,note_on,48,0,1,,,,,,,,0,,,79,0
134388,note_on,0,0,1,,,,,,,,0,,,83,0
134400,note_on,12,0,1,,,,,,,,0,,,74,80
134448,note_on,48,0,1,,,,,,,,0,,,74,0
134460,note_on,12,0,1,,,,,,,,0,,,83,80
134508,note_on,48,0,1,,,,,,,,0,,,83,0
134520,note_on,0,0,1,,,,,,,,0,,,74,80
134520,note_on,12,0,1,,,,,,,,0,,,79,80
134568,note_on,0,0,1,,,,,,,,0,,,31,0
134568,note_on,48,0,1,,,,,,,,0,,,74,0
134568,note_on,0,0,1,,,,,,,,0,,,79,0
134580,note_on,12,0,1,,,,,,,,0,,,71,80
134628,note_on,48,0,1,,,,,,,,0,,,71,0
134640,control_change,12,0,1,,,,,,,,0,64,0,,
134640,control_change,0,0,1,,,,,,,,0,64,127,,
134640,note_on,0,0,1,,,,,,,,0,,,31,80
134640,note_on,0,0,1,,,,,,,,0,,,79,80
134688,note_on,48,0,1,,,,,,,,0,,,79,0
134700,note_on,12,0,1,,,,,,,,0,,,71,80
134700,note_on,0,0,1,,,,,,,,0,,,74,80
134748,note_on,48,0,1,,,,,,,,0,,,74,0
134748,note_on,0,0,1,,,,,,,,0,,,71,0
134760,note_on,12,0,1,,,,,,,,0,,,67,80
134808,note_on,48,0,1,,,,,,,,0,,,67,0
134820,note_on,12,0,1,,,,,,,,0,,,76,80
134868,note_on,48,0,1,,,,,,,,0,,,76,0
134880,note_on,12,0,1,,,,,,,,0,,,71,80
134880,note_on,0,0,1,,,,,,,,0,,,67,80
134928,note_on,0,0,1,,,,,,,,0,,,71,0
134928,note_on,0,0,1,,,,,,,,0,,,31,0
134928,note_on,48,0,1,,,,,,,,0,,,67,0
134940,note_on,12,0,1,,,,,,,,0,,,64,80
134988,note_on,48,0,1,,,,,,,,0,,,64,0
135000,note_on,0,0,1,,,,,,,,0,,,31,80
135000,note_on,12,0,1,,,,,,,,0,,,74,80
135048,note_on,48,0,1,,,,,,,,0,,,74,0
135060,note_on,0,0,1,,,,,,,,0,,,71,80
135060,note_on,12,0,1,,,,,,,,0,,,67,80
135108,note_on,0,0,1,,,,,,,,0,,,67,0
135108,note_on,48,0,1,,,,,,,,0,,,71,0
135120,note_on,12,0,1,,,,,,,,0,,,62,80
135168,note_on,48,0,1,,,,,,,,0,,,62,0
135180,note_on,12,0,1,,,,,,,,0,,,71,80
135228,note_on,48,0,1,,,,,,,,0,,,71,0
135240,note_on,12,0,1,,,,,,,,0,,,67,80
135240,note_on,0,0,1,,,,,,,,0,,,62,80
135288,note_on,0,0,1,,,,,,,,0,,,31,0
135288,note_on,48,0,1,,,,,,,,0,,,62,0
135288,note_on,0,0,1,,,,,,,,0,,,67,0
135300,note_on,12,0,1,,,,,,,,0,,,59,80
135348,note_on,48,0,1,,,,,,,,0,,,59,0
135360,note_on,0,0,1,,,,,,,,0,,,31,80
135360,note_on,12,0,1,,,,,,,,0,,,67,80
135408,note_on,48,0,1,,,,,,,,0,,,67,0
135420,note_on,0,0,1,,,,,,,,0,,,59,80
135420,note_on,12,0,1,,,,,,,,0,,,62,80
135468,note_on,48,0,1,,,,,,,,0,,,59,0
135468,note_on,0,0,1,,,,,,,,0,,,62,0
135480,note_on,12,0,1,,,,,,,,0,,,55,80
135528,note_on,48,0,1,,,,,,,,0,,,55,0
135540,note_on,12,0,1,,,,,,,,0,,,64,80
135588,note_on,48,0,1,,,,,,,,0,,,64,0
135600,note_on,12,0,1,,,,,,,,0,,,59,80
135600,note_on,0,0,1,,,,,,,,0,,,55,80
135648,note_on,0,0,1,,,,,,,,0,,,31,0
135648,note_on,0,0,1,,,,,,,,0,,,59,0
135648,note_on,48,0,1,,,,,,,,0,,,55,0
135660,note_on,12,0,1,,,,,,,,0,,,52,80
135720,control_change,60,0,1,,,,,,,,0,64,0,,
135720,control_change,0,0,1,,,,,,,,0,64,127,,
135720,note_on,0,0,1,,,,,,,,0,,,41,53
135720,note_on,0,0,1,,,,,,,,0,,,44,53
135720,note_on,0,0,1,,,,,,,,0,,,59,53
135720,note_on,0,0,1,,,,,,,,0,,,62,80
135756,note_on,36,0,1,,,,,,,,0,,,44,0
135756,note_on,0,0,1,,,,,,,,0,,,41,0
135756,note_on,0,0,1,,,,,,,,0,,,59,0
135756,note_on,0,0,1,,,,,,,,0,,,62,0
135765,note_on,9,0,1,,,,,,,,0,,,50,53
135765,note_on,0,0,1,,,,,,,,0,,,31,53
135765,note_on,0,0,1,,,,,,,,0,,,53,53
135801,note_on,0,0,1,,,,,,,,0,,,53,0
135801,note_on,0,0,1,,,,,,,,0,,,50,0
135801,note_on,36,0,1,,,,,,,,0,,,31,0
135810,note_on,0,0,1,,,,,,,,0,,,62,80
135810,note_on,0,0,1,,,,,,,,0,,,44,53
135810,note_on,0,0,1,,,,,,,,0,,,41,53
135810,note_on,9,0,1,,,,,,,,0,,,59,53
135846,note_on,0,0,1,,,,,,,,0,,,62,0
135846,note_on,0,0,1,,,,,,,,0,,,59,0
135846,note_on,0,0,1,,,,,,,,0,,,41,0
135846,note_on,36,0,1,,,,,,,,0,,,44,0
135855,note_on,0,0,1,,,,,,,,0,,,31,53
135855,note_on,0,0,1,,,,,,,,0,,,50,53
135855,note_on,9,0,1,,,,,,,,0,,,53,53
135891,note_on,0,0,1,,,,,,,,0,,,53,0
135891,note_on,36,0,1,,,,,,,,0,,,31,0
135891,note_on,0,0,1,,,,,,,,0,,,50,0
135900,note_on,0,0,1,,,,,,,,0,,,62,80
135900,note_on,0,0,1,,,,,,,,0,,,41,53
135900,note_on,9,0,1,,,,,,,,0,,,59,53
135900,note_on,0,0,1,,,,,,,,0,,,44,53
135936,note_on,36,0,1,,,,,,,,0,,,41,0
135936,note_on,0,0,1,,,,,,,,0,,,59,0
135936,note_on,0,0,1,,,,,,,,0,,,62,0
135936,note_on,0,0,1,,,,,,,,0,,,44,0
135945,note_on,0,0,1,,,,,,,,0,,,31,53
135945,note_on,0,0,1,,,,,,,,0,,,53,53
135945,note_on,9,0,1,,,,,,,,0,,,50,53
135981,note_on,0,0,1,,,,,,,,0,,,50,0
135981,note_on,0,0,1,,,,,,,,0,,,53,0
135981,note_on,36,0,1,,,,,,,,0,,,31,0
135990,note_on,9,0,1,,,,,,,,0,,,62,80
135990,note_on,0,0,1,,,,,,,,0,,,41,53
135990,note_on,0,0,1,,,,,,,,0,,,44,53
135990,note_on,0,0,1,,,,,,,,0,,,59,53
136026,note_on,36,0,1,,,,,,,,0,,,41,0
136026,note_on,0,0,1,,,,,,,,0,,,44,0
136026,note_on,0,0,1,,,,,,,,0,,,59,0
136026,note_on,0,0,1,,,,,,,,0,,,62,0
136035,note_on,9,0,1,,,,,,,,0,,,50,53
136035,note_on,0,0,1,,,,,,,,0,,,31,53
136035,note_on,0,0,1,,,,,,,,0,,,53,53
136071,note_on,0,0,1,,,,,,,,0,,,53,0
136071,note_on,0,0,1,,,,,,,,0,,,50,0
136071,note_on,36,0,1,,,,,,,,0,,,31,0
136080,note_on,0,0,1,,,,,,,,0,,,44,53
136080,note_on,0,0,1,,,,,,,,0,,,62,80
136080,note_on,9,0,1,,,,,,,,0,,,59,53
136080,note_on,0,0,1,,,,,,,,0,,,41,53
136116,note_on,36,0,1,,,,,,,,0,,,44,0
136116,note_on,0,0,1,,,,,,,,0,,,62,0
136116,note_on,0,0,1,,,,,,,,0,,,41,0
136116,note_on,0,0,1,,,,,,,,0,,,59,0
136125,note_on,9,0,1,,,,,,,,0,,,53,53
136125,note_on,0,0,1,,,,,,,,0,,,50,53
136125,note_on,0,0,1,,,,,,,,0,,,31,53
136161,note_on,36,0,1,,,,,,,,0,,,31,0
136161,note_on,0,0,1,,,,,,,,0,,,50,0
136161,note_on,0,0,1,,,,,,,,0,,,53,0
136170,note_on,0,0,1,,,,,,,,0,,,41,53
136170,note_on,0,0,1,,,,,,,,0,,,44,53
136170,note_on,0,0,1,,,,,,,,0,,,62,80
136170,note_on,9,0,1,,,,,,,,0,,,59,53
136206,note_on,0,0,1,,,,,,,,0,,,41,0
136206,note_on,36,0,1,,,,,,,,0,,,44,0
136206,note_on,0,0,1,,,,,,,,0,,,59,0
136206,note_on,0,0,1,,,,,,,,0,,,62,0
136215,note_on,0,0,1,,,,,,,,0,,,50,53
136215,note_on,0,0,1,,,,,,,,0,,,31,53
136215,note_on,9,0,1,,,,,,,,0,,,53,53
136251,note_on,36,0,1,,,,,,,,0,,,31,0
136251,note_on,0,0,1,,,,,,,,0,,,53,0
136251,note_on,0,0,1,,,,,,,,0,,,50,0
136260,note_on,9,0,1,,,,,,,,0,,,62,80
136260,note_on,0,0,1,,,,,,,,0,,,41,53
136260,note_on,0,0,1,,,,,,,,0,,,44,53
136260,note_on,0,0,1,,,,,,,,0,,,59,53
136296,note_on,36,0,1,,,,,,,,0,,,41,0
136296,note_on,0,0,1,,,,,,,,0,,,44,0
136296,note_on,0,0,1,,,,,,,,0,,,59,0
136296,note_on,0,0,1,,,,,,,,0,,,62,0
136305,note_on,0,0,1,,,,,,,,0,,,31,53
136305,note_on,0,0,1,,,,,,,,0,,,53,53
136305,note_on,9,0,1,,,,,,,,0,,,50,53
136341,note_on,0,0,1,,,,,,,,0,,,50,0
136341,note_on,0,0,1,,,,,,,,0,,,53,0
136341,note_on,36,0,1,,,,,,,,0,,,31,0
136350,note_on,0,0,1,,,,,,,,0,,,62,80
136350,note_on,0,0,1,,,,,,,,0,,,41,53
136350,note_on,0,0,1,,,,,,,,0,,,44,53
136350,note_on,9,0,1,,,,,,,,0,,,59,53
136386,note_on,0,0,1,,,,,,,,0,,,62,0
136386,note_on,0,0,1,,,,,,,,0,,,41,0
136386,note_on,0,0,1,,,,,,,,0,,,59,0
136386,note_on,36,0,1,,,,,,,,0,,,44,0
136395,note_on,0,0,1,,,,,,,,0,,,31,53
136395,note_on,9,0,1,,,,,,,,0,,,53,53
136395,note_on,0,0,1,,,,,,,,0,,,50,53
136431,note_on,36,0,1,,,,,,,,0,,,31,0
136431,note_on,0,0,1,,,,,,,,0,,,53,0
136431,note_on,0,0,1,,,,,,,,0,,,50,0
136440,control_change,0,0,1,,,,,,,,0,64,0,,
136440,control_change,0,0,1,,,,,,,,0,64,127,,
136440,note_on,0,0,1,,,,,,,,0,,,43,53
136440,note_on,0,0,1,,,,,,,,0,,,59,53
136440,note_on,9,0,1,,,,,,,,0,,,61,80
136440,note_on,0,0,1,,,,,,,,0,,,41,53
136476,note_on,0,0,1,,,,,,,,0,,,61,0
136476,note_on,36,0,1,,,,,,,,0,,,43,0
136476,note_on,0,0,1,,,,,,,,0,,,41,0
136476,note_on,0,0,1,,,,,,,,0,,,59,0
136485,note_on,9,0,1,,,,,,,,0,,,49,53
136485,note_on,0,0,1,,,,,,,,0,,,31,53
136485,note_on,0,0,1,,,,,,,,0,,,53,53
136521,note_on,0,0,1,,,,,,,,0,,,49,0
136521,note_on,0,0,1,,,,,,,,0,,,53,0
136521,note_on,36,0,1,,,,,,,,0,,,31,0
136524,note_on,3,0,1,,,,,,,,0,,,41,53
136530,note_on,0,0,1,,,,,,,,0,,,59,53
136530,note_on,6,0,1,,,,,,,,0,,,61,80
136530,note_on,0,0,1,,,,,,,,0,,,43,53
136560,note_on,30,0,1,,,,,,,,0,,,41,0
136566,note_on,0,0,1,,,,,,,,0,,,61,0
136566,note_on,0,0,1,,,,,,,,0,,,43,0
136566,note_on,6,0,1,,,,,,,,0,,,59,0
136575,note_on,0,0,1,,,,,,,,0,,,49,53
136575,note_on,0,0,1,,,,,,,,0,,,31,53
136575,note_on,9,0,1,,,,,,,,0,,,53,53
136611,note_on,0,0,1,,,,,,,,0,,,53,0
136611,note_on,0,0,1,,,,,,,,0,,,49,0
136611,note_on,36,0,1,,,,,,,,0,,,31,0
136620,note_on,0,0,1,,,,,,,,0,,,43,53
136620,note_on,0,0,1,,,,,,,,0,,,41,53
136620,note_on,9,0,1,,,,,,,,0,,,59,53
136620,note_on,0,0,1,,,,,,,,0,,,61,80
136656,note_on,0,0,1,,,,,,,,0,,,61,0
136656,note_on,36,0,1,,,,,,,,0,,,43,0
136656,note_on,0,0,1,,,,,,,,0,,,59,0
136656,note_on,0,0,1,,,,,,,,0,,,41,0
136665,note_on,9,0,1,,,,,,,,0,,,53,53
136665,note_on,0,0,1,,,,,,,,0,,,31,53
136665,note_on,0,0,1,,,,,,,,0,,,49,53
136701,note_on,36,0,1,,,,,,,,0,,,31,0
136701,note_on,0,0,1,,,,,,,,0,,,49,0
136701,note_on,0,0,1,,,,,,,,0,,,53,0
136710,note_on,0,0,1,,,,,,,,0,,,43,53
136710,note_on,0,0,1,,,,,,,,0,,,41,53
136710,note_on,0,0,1,,,,,,,,0,,,59,53
136710,note_on,9,0,1,,,,,,,,0,,,61,80
136746,note_on,36,0,1,,,,,,,,0,,,41,0
136746,note_on,0,0,1,,,,,,,,0,,,61,0
136746,note_on,0,0,1,,,,,,,,0,,,59,0
136746,note_on,0,0,1,,,,,,,,0,,,43,0
136755,note_on,0,0,1,,,,,,,,0,,,49,53
136755,note_on,0,0,1,,,,,,,,0,,,31,53
136755,note_on,9,0,1,,,,,,,,0,,,53,53
136791,note_on,36,0,1,,,,,,,,0,,,31,0
136791,note_on,0,0,1,,,,,,,,0,,,49,0
136791,note_on,0,0,1,,,,,,,,0,,,53,0
136800,note_on,9,0,1,,,,,,,,0,,,59,53
136800,note_on,0,0,1,,,,,,,,0,,,61,80
136800,note_on,0,0,1,,,,,,,,0,,,41,53
136800,note_on,0,0,1,,,,,,,,0,,,43,53
136836,note_on,0,0,1,,,,,,,,0,,,59,0
136836,note_on,0,0,1,,,,,,,,0,,,43,0
136836,note_on,0,0,1,,,,,,,,0,,,61,0
136836,note_on,36,0,1,,,,,,,,0,,,41,0
136845,note_on,0,0,1,,,,,,,,0,,,31,53
136845,note_on,0,0,1,,,,,,,,0,,,53,53
136845,note_on,9,0,1,,,,,,,,0,,,49,53
136881,note_on,36,0,1,,,,,,,,0,,,31,0
136881,note_on,0,0,1,,,,,,,,0,,,49,0
136881,note_on,0,0,1,,,,,,,,0,,,53,0
136890,note_on,0,0,1,,,,,,,,0,,,41,53
136890,note_on,0,0,1,,,,,,,,0,,,43,53
136890,note_on,0,0,1,,,,,,,,0,,,59,53
136890,note_on,9,0,1,,,,,,,,0,,,61,80
136926,note_on,36,0,1,,,,,,,,0,,,41,0
136926,note_on,0,0,1,,,,,,,,0,,,43,0
136926,note_on,0,0,1,,,,,,,,0,,,59,0
136926,note_on,0,0,1,,,,,,,,0,,,61,0
136935,note_on,9,0,1,,,,,,,,0,,,53,53
136935,note_on,0,0,1,,,,,,,,0,,,49,53
136935,note_on,0,0,1,,,,,,,,0,,,31,53
136971,note_on,36,0,1,,,,,,,,0,,,31,0
136971,note_on,0,0,1,,,,,,,,0,,,49,0
136971,note_on,0,0,1,,,,,,,,0,,,53,0
136980,note_on,9,0,1,,,,,,,,0,,,59,53
136980,note_on,0,0,1,,,,,,,,0,,,41,53
136980,note_on,0,0,1,,,,,,,,0,,,43,53
136980,note_on,0,0,1,,,,,,,,0,,,61,80
137016,note_on,0,0,1,,,,,,,,0,,,61,0
137016,note_on,36,0,1,,,,,,,,0,,,41,0
137016,note_on,0,0,1,,,,,,,,0,,,59,0
137016,note_on,0,0,1,,,,,,,,0,,,43,0
137025,note_on,0,0,1,,,,,,,,0,,,31,53
137025,note_on,0,0,1,,,,,,,,0,,,49,53
137025,note_on,9,0,1,,,,,,,,0,,,53,53
137061,note_on,0,0,1,,,,,,,,0,,,49,0
137061,note_on,0,0,1,,,,,,,,0,,,53,0
137061,note_on,36,0,1,,,,,,,,0,,,31,0
137070,note_on,9,0,1,,,,,,,,0,,,59,53
137070,note_on,0,0,1,,,,,,,,0,,,41,53
137070,note_on,0,0,1,,,,,,,,0,,,43,53
137070,note_on,0,0,1,,,,,,,,0,,,61,80
137106,note_on,36,0,1,,,,,,,,0,,,43,0
137106,note_on,0,0,1,,,,,,,,0,,,59,0
137106,note_on,0,0,1,,,,,,,,0,,,41,0
137106,note_on,0,0,1,,,,,,,,0,,,61,0
137115,note_on,0,0,1,,,,,,,,0,,,31,53
137115,note_on,9,0,1,,,,,,,,0,,,53,53
137115,note_on,0,0,1,,,,,,,,0,,,49,53
137151,note_on,0,0,1,,,,,,,,0,,,53,0
137151,note_on,0,0,1,,,,,,,,0,,,49,0
137151,note_on,36,0,1,,,,,,,,0,,,31,0
137160,note_on,0,0,1,,,,,,,,0,,,45,53
137160,note_on,0,0,1,,,,,,,,0,,,42,53
137160,control_change,0,0,1,,,,,,,,0,64,127,,
137160,control_change,0,0,1,,,,,,,,0,64,0,,
137160,note_on,9,0,1,,,,,,,,0,,,63,80
137160,note_on,0,0,1,,,,,,,,0,,,60,80
137208,note_on,0,0,1,,,,,,,,0,,,45,0
137208,note_on,0,0,1,,,,,,,,0,,,60,0
137208,note_on,0,0,1,,,,,,,,0,,,63,0
137208,note_on,48,0,1,,,,,,,,0,,,42,0
137220,note_on,0,0,1,,,,,,,,0,,,51,53
137220,note_on,0,0,1,,,,,,,,0,,,31,53
137220,note_on,12,0,1,,,,,,,,0,,,57,53
137268,note_on,0,0,1,,,,,,,,0,,,51,0
137268,note_on,0,0,1,,,,,,,,0,,,57,0
137268,note_on,48,0,1,,,,,,,,0,,,31,0
137280,note_on,0,0,1,,,,,,,,0,,,42,53
137280,note_on,0,0,1,,,,,,,,0,,,45,53
137280,note_on,0,0,1,,,,,,,,0,,,63,80
137280,note_on,12,0,1,,,,,,,,0,,,60,80
137328,note_on,48,0,1,,,,,,,,0,,,42,0
137328,note_on,0,0,1,,,,,,,,0,,,45,0
137328,note_on,0,0,1,,,,,,,,0,,,60,0
137328,note_on,0,0,1,,,,,,,,0,,,63,0
137340,note_on,0,0,1,,,,,,,,0,,,51,53
137340,note_on,0,0,1,,,,,,,,0,,,31,53
137340,note_on,12,0,1,,,,,,,,0,,,57,53
137388,note_on,0,0,1,,,,,,,,0,,,51,0
137388,note_on,0,0,1,,,,,,,,0,,,57,0
137388,note_on,48,0,1,,,,,,,,0,,,31,0
137400,note_on,12,0,1,,,,,,,,0,,,60,80
137400,note_on,0,0,1,,,,,,,,0,,,42,53
137400,note_on,0,0,1,,,,,,,,0,,,45,53
137400,note_on,0,0,1,,,,,,,,0,,,63,80
137448,note_on,0,0,1,,,,,,,,0,,,63,0
137448,note_on,0,0,1,,,,,,,,0,,,42,0
137448,note_on,0,0,1,,,,,,,,0,,,60,0
137448,note_on,48,0,1,,,,,,,,0,,,45,0
137460,note_on,0,0,1,,,,,,,,0,,,51,53
137460,note_on,0,0,1,,,,,,,,0,,,31,53
137460,note_on,12,0,1,,,,,,,,0,,,57,53
137508,note_on,48,0,1,,,,,,,,0,,,31,0
137508,note_on,0,0,1,,,,,,,,0,,,51,0
137508,note_on,0,0,1,,,,,,,,0,,,57,0
137514,note_on,6,0,1,,,,,,,,0,,,42,53
137520,note_on,0,0,1,,,,,,,,0,,,45,53
137520,control_change,0,0,1,,,,,,,,0,64,127,,
137520,control_change,6,0,1,,,,,,,,0,64,0,,
137520,note_on,0,0,1,,,,,,,,0,,,60,80
137520,note_on,0,0,1,,,,,,,,0,,,62,80
137562,note_on,42,0,1,,,,,,,,0,,,42,0
137568,note_on,0,0,1,,,,,,,,0,,,45,0
137568,note_on,0,0,1,,,,,,,,0,,,60,0
137568,note_on,6,0,1,,,,,,,,0,,,62,0
137580,note_on,0,0,1,,,,,,,,0,,,31,53
137580,note_on,0,0,1,,,,,,,,0,,,57,53
137580,note_on,12,0,1,,,,,,,,0,,,50,53
137628,note_on,48,0,1,,,,,,,,0,,,31,0
137628,note_on,0,0,1,,,,,,,,0,,,57,0
137628,note_on,0,0,1,,,,,,,,0,,,50,0
137640,note_on,0,0,1,,,,,,,,0,,,45,53
137640,note_on,0,0,1,,,,,,,,0,,,42,53
137640,note_on,12,0,1,,,,,,,,0,,,62,80
137640,note_on,0,0,1,,,,,,,,0,,,60,80
137688,note_on,0,0,1,,,,,,,,0,,,62,0
137688,note_on,0,0,1,,,,,,,,0,,,42,0
137688,note_on,0,0,1,,,,,,,,0,,,60,0
137688,note_on,48,0,1,,,,,,,,0,,,45,0
137700,note_on,12,0,1,,,,,,,,0,,,50,53
137700,note_on,0,0,1,,,,,,,,0,,,31,53
137700,note_on,0,0,1,,,,,,,,0,,,57,53
137748,note_on,0,0,1,,,,,,,,0,,,57,0
137748,note_on,0,0,1,,,,,,,,0,,,50,0
137748,note_on,48,0,1,,,,,,,,0,,,31,0
137760,note_on,0,0,1,,,,,,,,0,,,60,80
137760,note_on,0,0,1,,,,,,,,0,,,45,53
137760,note_on,0,0,1,,,,,,,,0,,,42,53
137760,note_on,12,0,1,,,,,,,,0,,,62,80
137808,note_on,0,0,1,,,,,,,,0,,,62,0
137808,note_on,48,0,1,,,,,,,,0,,,42,0
137808,note_on,0,0,1,,,,,,,,0,,,45,0
137808,note_on,0,0,1,,,,,,,,0,,,60,0
137820,note_on,12,0,1,,,,,,,,0,,,50,53
137820,note_on,0,0,1,,,,,,,,0,,,31,53
137820,note_on,0,0,1,,,,,,,,0,,,57,53
137868,note_on,0,0,1,,,,,,,,0,,,57,0
137868,note_on,0,0,1,,,,,,,,0,,,50,0
137868,note_on,48,0,1,,,,,,,,0,,,31,0
137880,note_on,0,0,1,,,,,,,,0,,,35,50
137880,note_on,0,0,1,,,,,,,,0,,,31,50
137880,control_change,0,0,1,,,,,,,,0,64,127,,
137880,control_change,12,0,1,,,,,,,,0,64,0,,
137880,note_on,0,0,1,,,,,,,,0,,,67,50
137880,note_on,0,0,1,,,,,,,,0,,,71,50
137928,note_on,0,0,1,,,,,,,,0,,,67,0
137928,note_on,0,0,1,,,,,,,,0,,,71,0
137928,note_on,48,0,1,,,,,,,,0,,,35,0
137928,note_on,0,0,1,,,,,,,,0,,,31,0
137940,note_on,0,0,1,,,,,,,,0,,,38,50
137940,note_on,0,0,1,,,,,,,,0,,,43,50
137940,note_on,0,0,1,,,,,,,,0,,,62,50
137940,note_on,12,0,1,,,,,,,,0,,,59,50
137988,note_on,0,0,1,,,,,,,,0,,,62,0
137988,note_on,48,0,1,,,,,,,,0,,,43,0
137988,note_on,0,0,1,,,,,,,,0,,,38,0
137988,note_on,0,0,1,,,,,,,,0,,,59,0
138000,note_on,0,0,1,,,,,,,,0,,,31,51
138000,note_on,12,0,1,,,,,,,,0,,,71,51
138000,note_on,0,0,1,,,,,,,,0,,,35,51
138000,note_on,0,0,1,,,,,,,,0,,,67,51
138048,note_on,48,0,1,,,,,,,,0,,,31,0
138048,note_on,0,0,1,,,,,,,,0,,,35,0
138048,note_on,0,0,1,,,,,,,,0,,,67,0
138048,note_on,0,0,1,,,,,,,,0,,,71,0
138060,note_on,12,0,1,,,,,,,,0,,,62,52
138060,note_on,0,0,1,,,,,,,,0,,,38,52
138060,note_on,0,0,1,,,,,,,,0,,,43,52
138060,note_on,0,0,1,,,,,,,,0,,,59,52
138108,note_on,0,0,1,,,,,,,,0,,,43,0
138108,note_on,0,0,1,,,,,,,,0,,,62,0
138108,note_on,48,0,1,,,,,,,,0,,,38,0
138108,note_on,0,0,1,,,,,,,,0,,,59,0
138120,note_on,0,0,1,,,,,,,,0,,,31,52
138120,note_on,0,0,1,,,,,,,,0,,,71,52
138120,note_on,0,0,1,,,,,,,,0,,,35,52
138120,note_on,12,0,1,,,,,,,,0,,,67,52
138168,note_on,0,0,1,,,,,,,,0,,,71,0
138168,note_on,0,0,1,,,,,,,,0,,,67,0
138168,note_on,0,0,1,,,,,,,,0,,,31,0
138168,note_on,48,0,1,,,,,,,,0,,,35,0
138180,note_on,12,0,1,,,,,,,,0,,,59,53
138180,note_on,0,0,1,,,,,,,,0,,,43,53
138180,note_on,0,0,1,,,,,,,,0,,,38,53
138180,note_on,0,0,1,,,,,,,,0,,,62,53
138228,note_on,48,0,1,,,,,,,,0,,,43,0
138228,note_on,0,0,1,,,,,,,,0,,,59,0
138228,note_on,0,0,1,,,,,,,,0,,,38,0
138228,note_on,0,0,1,,,,,,,,0,,,62,0
138240,note_on,12,0,1,,,,,,,,0,,,67,54
138240,note_on,0,0,1,,,,,,,,0,,,31,54
138240,note_on,0,0,1,,,,,,,,0,,,35,54
138240,note_on,0,0,1,,,,,,,,0,,,71,54
138288,note_on,48,0,1,,,,,,,,0,,,35,0
138288,note_on,0,0,1,,,,,,,,0,,,71,0
138288,note_on,0,0,1,,,,,,,,0,,,67,0
138288,note_on,0,0,1,,,,,,,,0,,,31,0
138300,note_on,12,0,1,,,,,,,,0,,,62,54
138300,note_on,0,0,1,,,,,,,,0,,,43,54
138300,note_on,0,0,1,,,,,,,,0,,,59,54
138300,note_on,0,0,1,,,,,,,,0,,,38,54
138348,note_on,0,0,1,,,,,,,,0,,,43,0
138348,note_on,0,0,1,,,,,,,,0,,,59,0
138348,note_on,0,0,1,,,,,,,,0,,,62,0
138348,note_on,48,0,1,,,,,,,,0,,,38,0
138360,note_on,12,0,1,,,,,,,,0,,,71,55
138360,note_on,0,0,1,,,,,,,,0,,,31,55
138360,note_on,0,0,1,,,,,,,,0,,,35,55
138360,note_on,0,0,1,,,,,,,,0,,,67,55
138408,note_on,48,0,1,,,,,,,,0,,,31,0
138408,note_on,0,0,1,,,,,,,,0,,,35,0
138408,note_on,0,0,1,,,,,,,,0,,,67,0
138408,note_on,0,0,1,,,,,,,,0,,,71,0
138420,note_on,12,0,1,,,,,,,,0,,,59,56
138420,note_on,0,0,1,,,,,,,,0,,,38,56
138420,note_on,0,0,1,,,,,,,,0,,,43,56
138420,note_on,0,0,1,,,,,,,,0,,,62,56
138468,note_on,0,0,1,,,,,,,,0,,,59,0
138468,note_on,0,0,1,,,,,,,,0,,,62,0
138468,note_on,48,0,1,,,,,,,,0,,,43,0
138468,note_on,0,0,1,,,,,,,,0,,,38,0
138480,note_on,0,0,1,,,,,,,,0,,,31,57
138480,note_on,0,0,1,,,,,,,,0,,,35,57
138480,note_on,12,0,1,,,,,,,,0,,,71,57
138480,note_on,0,0,1,,,,,,,,0,,,67,57
138528,note_on,0,0,1,,,,,,,,0,,,71,0
138528,note_on,0,0,1,,,,,,,,0,,,67,0
138528,note_on,0,0,1,,,,,,,,0,,,35,0
138528,note_on,48,0,1,,,,,,,,0,,,31,0
138540,note_on,12,0,1,,,,,,,,0,,,59,57
138540,note_on,0,0,1,,,,,,,,0,,,62,57
138540,note_on,0,0,1,,,,,,,,0,,,43,57
138540,note_on,0,0,1,,,,,,,,0,,,38,57
138588,note_on,48,0,1,,,,,,,,0,,,43,0
138588,note_on,0,0,1,,,,,,,,0,,,38,0
138588,note_on,0,0,1,,,,,,,,0,,,59,0
138588,note_on,0,0,1,,,,,,,,0,,,62,0
138600,note_on,12,0,1,,,,,,,,0,,,71,58
138600,control_change,0,0,1,,,,,,,,0,64,0,,
138600,control_change,0,0,1,,,,,,,,0,64,127,,
138600,note_on,0,0,1,,,,,,,,0,,,31,58
138600,note_on,0,0,1,,,,,,,,0,,,35,58
138600,note_on,0,0,1,,,,,,,,0,,,67,58
138648,note_on,48,0,1,,,,,,,,0,,,31,0
138648,note_on,0,0,1,,,,,,,,0,,,67,0
138648,note_on,0,0,1,,,,,,,,0,,,35,0
138648,note_on,0,0,1,,,,,,,,0,,,71,0
138660,note_on,12,0,1,,,,,,,,0,,,62,59
138660,note_on,0,0,1,,,,,,,,0,,,38,59
138660,note_on,0,0,1,,,,,,,,0,,,43,59
138660,note_on,0,0,1,,,,,,,,0,,,59,59
138708,note_on,0,0,1,,,,,,,,0,,,38,0
138708,note_on,0,0,1,,,,,,,,0,,,59,0
138708,note_on,0,0,1,,,,,,,,0,,,62,0
138708,note_on,48,0,1,,,,,,,,0,,,43,0
138720,note_on,12,0,1,,,,,,,,0,,,67,59
138720,note_on,0,0,1,,,,,,,,0,,,31,59
138720,note_on,0,0,1,,,,,,,,0,,,35,59
138720,note_on,0,0,1,,,,,,,,0,,,71,59
138768,note_on,0,0,1,,,,,,,,0,,,35,0
138768,note_on,48,0,1,,,,,,,,0,,,31,0
138768,note_on,0,0,1,,,,,,,,0,,,71,0
138768,note_on,0,0,1,,,,,,,,0,,,67,0
138780,note_on,0,0,1,,,,,,,,0,,,62,60
138780,note_on,0,0,1,,,,,,,,0,,,38,60
138780,note_on,0,0,1,,,,,,,,0,,,43,60
138780,note_on,12,0,1,,,,,,,,0,,,59,60
138828,note_on,0,0,1,,,,,,,,0,,,62,0
138828,note_on,0,0,1,,,,,,,,0,,,59,0
138828,note_on,0,0,1,,,,,,,,0,,,38,0
138828,note_on,48,0,1,,,,,,,,0,,,43,0
138840,note_on,12,0,1,,,,,,,,0,,,67,61
138840,note_on,0,0,1,,,,,,,,0,,,71,61
138840,note_on,0,0,1,,,,,,,,0,,,35,61
138840,note_on,0,0,1,,,,,,,,0,,,31,61
138888,note_on,0,0,1,,,,,,,,0,,,67,0
138888,note_on,48,0,1,,,,,,,,0,,,31,0
138888,note_on,0,0,1,,,,,,,,0,,,35,0
138888,note_on,0,0,1,,,,,,,,0,,,71,0
138900,note_on,0,0,1,,,,,,,,0,,,38,61
138900,note_on,12,0,1,,,,,,,,0,,,62,61
138900,note_on,0,0,1,,,,,,,,0,,,43,61
138900,note_on,0,0,1,,,,,,,,0,,,59,61
138948,note_on,48,0,1,,,,,,,,0,,,38,0
138948,note_on,0,0,1,,,,,,,,0,,,43,0
138948,note_on,0,0,1,,,,,,,,0,,,59,0
138948,note_on,0,0,1,,,,,,,,0,,,62,0
138960,note_on,0,0,1,,,,,,,,0,,,31,62
138960,note_on,12,0,1,,,,,,,,0,,,67,62
138960,note_on,0,0,1,,,,,,,,0,,,71,62
138960,note_on,0,0,1,,,,,,,,0,,,35,62
139008,note_on,48,0,1,,,,,,,,0,,,31,0
139008,note_on,0,0,1,,,,,,,,0,,,35,0
139008,note_on,0,0,1,,,,,,,,0,,,71,0
139008,note_on,0,0,1,,,,,,,,0,,,67,0
139020,note_on,0,0,1,,,,,,,,0,,,62,63
139020,note_on,0,0,1,,,,,,,,0,,,38,63
139020,note_on,0,0,1,,,,,,,,0,,,43,63
139020,note_on,12,0,1,,,,,,,,0,,,59,63
139068,note_on,48,0,1,,,,,,,,0,,,38,0
139068,note_on,0,0,1,,,,,,,,0,,,62,0
139068,note_on,0,0,1,,,,,,,,0,,,59,0
139068,note_on,0,0,1,,,,,,,,0,,,43,0
139080,note_on,12,0,1,,,,,,,,0,,,71,64
139080,note_on,0,0,1,,,,,,,,0,,,35,64
139080,note_on,0,0,1,,,,,,,,0,,,67,64
139080,note_on,0,0,1,,,,,,,,0,,,31,64
139128,note_on,0,0,1,,,,,,,,0,,,71,0
139128,note_on,0,0,1,,,,,,,,0,,,67,0
139128,note_on,0,0,1,,,,,,,,0,,,31,0
139128,note_on,48,0,1,,,,,,,,0,,,35,0
139140,note_on,12,0,1,,,,,,,,0,,,59,64
139140,note_on,0,0,1,,,,,,,,0,,,38,64
139140,note_on,0,0,1,,,,,,,,0,,,43,64
139140,note_on,0,0,1,,,,,,,,0,,,62,64
139188,note_on,0,0,1,,,,,,,,0,,,62,0
139188,note_on,48,0,1,,,,,,,,0,,,38,0
139188,note_on,0,0,1,,,,,,,,0,,,59,0
139188,note_on,0,0,1,,,,,,,,0,,,43,0
139200,note_on,0,0,1,,,,,,,,0,,,31,65
139200,note_on,12,0,1,,,,,,,,0,,,71,65
139200,note_on,0,0,1,,,,,,,,0,,,67,65
139200,note_on,0,0,1,,,,,,,,0,,,35,65
139248,note_on,0,0,1,,,,,,,,0,,,71,0
139248,note_on,0,0,1,,,,,,,,0,,,67,0
139248,note_on,48,0,1,,,,,,,,0,,,31,0
139248,note_on,0,0,1,,,,,,,,0,,,35,0
139260,note_on,0,0,1,,,,,,,,0,,,59,66
139260,note_on,12,0,1,,,,,,,,0,,,62,66
139260,note_on,0,0,1,,,,,,,,0,,,43,66
139260,note_on,0,0,1,,,,,,,,0,,,38,66
139308,note_on,0,0,1,,,,,,,,0,,,62,0
139308,note_on,0,0,1,,,,,,,,0,,,59,0
139308,note_on,0,0,1,,,,,,,,0,,,43,0
139308,note_on,48,0,1,,,,,,,,0,,,38,0
139320,note_on,0,0,1,,,,,,,,0,,,74,66
139320,note_on,0,0,1,,,,,,,,0,,,35,65
139320,control_change,0,0,1,,,,,,,,0,64,127,,
139320,note_on,12,0,1,,,,,,,,0,,,71,66
139320,note_on,0,0,1,,,,,,,,0,,,31,65
139320,control_change,0,0,1,,,,,,,,0,64,0,,
139368,note_on,48,0,1,,,,,,,,0,,,35,0
139368,note_on,0,0,1,,,,,,,,0,,,31,0
139368,note_on,0,0,1,,,,,,,,0,,,71,0
139368,note_on,0,0,1,,,,,,,,0,,,74,0
139380,note_on,0,0,1,,,,,,,,0,,,43,64
139380,note_on,0,0,1,,,,,,,,0,,,38,64
139380,note_on,12,0,1,,,,,,,,0,,,62,67
139380,note_on,0,0,1,,,,,,,,0,,,67,67
139428,note_on,0,0,1,,,,,,,,0,,,67,0
139428,note_on,0,0,1,,,,,,,,0,,,62,0
139428,note_on,0,0,1,,,,,,,,0,,,43,0
139428,note_on,48,0,1,,,,,,,,0,,,38,0
139440,note_on,0,0,1,,,,,,,,0,,,31,62
139440,note_on,0,0,1,,,,,,,,0,,,35,62
139440,note_on,0,0,1,,,,,,,,0,,,74,68
139440,note_on,12,0,1,,,,,,,,0,,,71,68
139488,note_on,0,0,1,,,,,,,,0,,,35,0
139488,note_on,0,0,1,,,,,,,,0,,,71,0
139488,note_on,0,0,1,,,,,,,,0,,,74,0
139488,note_on,48,0,1,,,,,,,,0,,,31,0
139500,note_on,12,0,1,,,,,,,,0,,,62,69
139500,note_on,0,0,1,,,,,,,,0,,,38,60
139500,note_on,0,0,1,,,,,,,,0,,,67,69
139500,note_on,0,0,1,,,,,,,,0,,,43,60
139548,note_on,0,0,1,,,,,,,,0,,,43,0
139548,note_on,0,0,1,,,,,,,,0,,,62,0
139548,note_on,0,0,1,,,,,,,,0,,,67,0
139548,note_on,48,0,1,,,,,,,,0,,,38,0
139560,note_on,12,0,1,,,,,,,,0,,,74,69
139560,note_on,0,0,1,,,,,,,,0,,,35,58
139560,note_on,0,0,1,,,,,,,,0,,,71,69
139560,note_on,0,0,1,,,,,,,,0,,,31,58
139608,note_on,0,0,1,,,,,,,,0,,,71,0
139608,note_on,0,0,1,,,,,,,,0,,,35,0
139608,note_on,48,0,1,,,,,,,,0,,,31,0
139608,note_on,0,0,1,,,,,,,,0,,,74,0
139620,note_on,0,0,1,,,,,,,,0,,,43,56
139620,note_on,0,0,1,,,,,,,,0,,,62,70
139620,note_on,12,0,1,,,,,,,,0,,,67,70
139620,note_on,0,0,1,,,,,,,,0,,,38,56
139668,note_on,0,0,1,,,,,,,,0,,,62,0
139668,note_on,0,0,1,,,,,,,,0,,,67,0
139668,note_on,48,0,1,,,,,,,,0,,,43,0
139668,note_on,0,0,1,,,,,,,,0,,,38,0
139680,note_on,12,0,1,,,,,,,,0,,,74,71
139680,note_on,0,0,1,,,,,,,,0,,,79,71
139680,note_on,0,0,1,,,,,,,,0,,,35,55
139680,note_on,0,0,1,,,,,,,,0,,,31,55
139728,note_on,0,0,1,,,,,,,,0,,,79,0
139728,note_on,0,0,1,,,,,,,,0,,,74,0
139728,note_on,0,0,1,,,,,,,,0,,,31,0
139728,note_on,48,0,1,,,,,,,,0,,,35,0
139740,note_on,0,0,1,,,,,,,,0,,,71,71
139740,note_on,12,0,1,,,,,,,,0,,,67,71
139740,note_on,0,0,1,,,,,,,,0,,,38,53
139740,note_on,0,0,1,,,,,,,,0,,,43,53
139788,note_on,48,0,1,,,,,,,,0,,,43,0
139788,note_on,0,0,1,,,,,,,,0,,,38,0
139788,note_on,0,0,1,,,,,,,,0,,,67,0
139788,note_on,0,0,1,,,,,,,,0,,,71,0
139800,note_on,12,0,1,,,,,,,,0,,,79,72
139800,note_on,0,0,1,,,,,,,,0,,,31,51
139800,note_on,0,0,1,,,,,,,,0,,,35,51
139800,note_on,0,0,1,,,,,,,,0,,,74,72
139848,note_on,0,0,1,,,,,,,,0,,,79,0
139848,note_on,48,0,1,,,,,,,,0,,,31,0
139848,note_on,0,0,1,,,,,,,,0,,,74,0
139848,note_on,0,0,1,,,,,,,,0,,,35,0
139860,note_on,12,0,1,,,,,,,,0,,,67,73
139860,note_on,0,0,1,,,,,,,,0,,,38,49
139860,note_on,0,0,1,,,,,,,,0,,,43,49
139860,note_on,0,0,1,,,,,,,,0,,,71,73
139908,note_on,0,0,1,,,,,,,,0,,,43,0
139908,note_on,48,0,1,,,,,,,,0,,,38,0
139908,note_on,0,0,1,,,,,,,,0,,,67,0
139908,note_on,0,0,1,,,,,,,,0,,,71,0
139920,note_on,0,0,1,,,,,,,,0,,,74,73
139920,note_on,0,0,1,,,,,,,,0,,,31,47
139920,note_on,0,0,1,,,,,,,,0,,,35,47
139920,note_on,12,0,1,,,,,,,,0,,,79,73
139968,note_on,0,0,1,,,,,,,,0,,,74,0
139968,note_on,0,0,1,,,,,,,,0,,,79,0
139968,note_on,48,0,1,,,,,,,,0,,,31,0
139968,note_on,0,0,1,,,,,,,,0,,,35,0
139980,note_on,12,0,1,,,,,,,,0,,,71,74
139980,note_on,0,0,1,,,,,,,,0,,,67,74
139980,note_on,0,0,1,,,,,,,,0,,,43,45
139980,note_on,0,0,1,,,,,,,,0,,,38,45
140028,note_on,0,0,1,,,,,,,,0,,,71,0
140028,note_on,0,0,1,,,,,,,,0,,,67,0
140028,note_on,0,0,1,,,,,,,,0,,,43,0
140028,note_on,48,0,1,,,,,,,,0,,,38,0
140040,note_on,0,0,1,,,,,,,,0,,,31,60
140040,note_on,0,0,1,,,,,,,,0,,,79,75
140040,note_on,0,0,1,,,,,,,,0,,,83,75
140040,control_change,0,0,1,,,,,,,,0,64,127,,
140040,control_change,12,0,1,,,,,,,,0,64,0,,
140040,note_on,0,0,1,,,,,,,,0,,,35,60
140044,set_tempo,25920,1,0,,,,,,666519,,,,,,
140052,set_tempo,8,1,0,,,,,,666667,,,,,,
140088,note_on,48,0,1,,,,,,,,0,,,31,0
140088,note_on,0,0,1,,,,,,,,0,,,83,0
140088,note_on,0,0,1,,,,,,,,0,,,79,0
140088,set_tempo,36,1,0,,,,,,666667,,,,,,
140088,note_on,0,0,1,,,,,,,,0,,,35,0
140100,note_on,12,0,1,,,,,,,,0,,,74,76
140100,note_on,0,0,1,,,,,,,,0,,,71,76
140100,note_on,0,0,1,,,,,,,,0,,,43,59
140100,note_on,0,0,1,,,,,,,,0,,,38,59
140124,set_tempo,36,1,0,,,,,,666075,,,,,,
140148,note_on,0,0,1,,,,,,,,0,,,43,0
140148,note_on,48,0,1,,,,,,,,0,,,38,0
140148,note_on,0,0,1,,,,,,,,0,,,74,0
140148,note_on,0,0,1,,,,,,,,0,,,71,0
140160,set_tempo,36,1,0,,,,,,665484,,,,,,
140160,note_on,12,0,1,,,,,,,,0,,,79,76
140160,note_on,0,0,1,,,,,,,,0,,,83,76
140160,note_on,0,0,1,,,,,,,,0,,,35,57
140160,note_on,0,0,1,,,,,,,,0,,,31,57
140196,set_tempo,36,1,0,,,,,,664894,,,,,,
140208,note_on,48,0,1,,,,,,,,0,,,31,0
140208,note_on,0,0,1,,,,,,,,0,,,83,0
140208,note_on,0,0,1,,,,,,,,0,,,79,0
140208,note_on,0,0,1,,,,,,,,0,,,35,0
140220,note_on,12,0,1,,,,,,,,0,,,74,77
140220,note_on,0,0,1,,,,,,,,0,,,71,77
140220,note_on,0,0,1,,,,,,,,0,,,43,55
140220,note_on,0,0,1,,,,,,,,0,,,38,55
140232,set_tempo,36,1,0,,,,,,664305,,,,,,
140268,note_on,0,0,1,,,,,,,,0,,,71,0
140268,set_tempo,36,1,0,,,,,,663717,,,,,,
140268,note_on,0,0,1,,,,,,,,0,,,74,0
140268,note_on,0,0,1,,,,,,,,0,,,38,0
140268,note_on,48,0,1,,,,,,,,0,,,43,0
140280,note_on,0,0,1,,,,,,,,0,,,31,53
140280,note_on,0,0,1,,,,,,,,0,,,35,53
140280,note_on,0,0,1,,,,,,,,0,,,79,78
140280,note_on,12,0,1,,,,,,,,0,,,83,78
140304,set_tempo,36,1,0,,,,,,663130,,,,,,
140328,note_on,0,0,1,,,,,,,,0,,,83,0
140328,note_on,48,0,1,,,,,,,,0,,,35,0
140328,note_on,0,0,1,,,,,,,,0,,,31,0
140328,note_on,0,0,1,,,,,,,,0,,,79,0
140340,note_on,0,0,1,,,,,,,,0,,,43,51
140340,note_on,0,0,1,,,,,,,,0,,,74,78
140340,note_on,0,0,1,,,,,,,,0,,,38,51
140340,note_on,12,0,1,,,,,,,,0,,,71,78
140340,set_tempo,36,1,0,,,,,,662471,,,,,,
140376,set_tempo,36,1,0,,,,,,661886,,,,,,
140388,note_on,0,0,1,,,,,,,,0,,,71,0
140388,note_on,0,0,1,,,,,,,,0,,,38,0
140388,note_on,48,0,1,,,,,,,,0,,,43,0
140388,note_on,0,0,1,,,,,,,,0,,,74,0
140400,note_on,12,0,1,,,,,,,,0,,,79,79
140400,note_on,0,0,1,,,,,,,,0,,,35,50
140400,note_on,0,0,1,,,,,,,,0,,,83,79
140400,note_on,0,0,1,,,,,,,,0,,,31,50
140412,set_tempo,36,1,0,,,,,,661303,,,,,,
140448,set_tempo,36,1,0,,,,,,660720,,,,,,
140448,note_on,0,0,1,,,,,,,,0,,,31,0
140448,note_on,0,0,1,,,,,,,,0,,,79,0
140448,note_on,0,0,1,,,,,,,,0,,,83,0
140448,note_on,48,0,1,,,,,,,,0,,,35,0
140460,note_on,12,0,1,,,,,,,,0,,,74,80
140460,note_on,0,0,1,,,,,,,,0,,,38,48
140460,note_on,0,0,1,,,,,,,,0,,,43,48
140460,note_on,0,0,1,,,,,,,,0,,,71,80
140484,set_tempo,36,1,0,,,,,,660139,,,,,,
140508,note_on,48,0,1,,,,,,,,0,,,38,0
140508,note_on,0,0,1,,,,,,,,0,,,71,0
140508,note_on,0,0,1,,,,,,,,0,,,74,0
140508,note_on,0,0,1,,,,,,,,0,,,43,0
140520,note_on,0,0,1,,,,,,,,0,,,35,46
140520,note_on,0,0,1,,,,,,,,0,,,83,80
140520,note_on,12,0,1,,,,,,,,0,,,79,80
140520,set_tempo,36,1,0,,,,,,659558,,,,,,
140520,note_on,0,0,1,,,,,,,,0,,,31,46
140556,set_tempo,36,1,0,,,,,,658906,,,,,,
140568,note_on,48,0,1,,,,,,,,0,,,35,0
140568,note_on,0,0,1,,,,,,,,0,,,31,0
140568,note_on,0,0,1,,,,,,,,0,,,83,0
140568,note_on,0,0,1,,,,,,,,0,,,79,0
140580,note_on,0,0,1,,,,,,,,0,,,38,44
140580,note_on,0,0,1,,,,,,,,0,,,43,44
140580,note_on,0,0,1,,,,,,,,0,,,71,81
140580,note_on,12,0,1,,,,,,,,0,,,74,81
140592,set_tempo,36,1,0,,,,,,658328,,,,,,
140628,note_on,0,0,1,,,,,,,,0,,,38,0
140628,note_on,0,0,1,,,,,,,,0,,,71,0
140628,note_on,0,0,1,,,,,,,,0,,,74,0
140628,note_on,48,0,1,,,,,,,,0,,,43,0
140628,set_tempo,36,1,0,,,,,,657750,,,,,,
140640,note_on,0,0,1,,,,,,,,0,,,35,42
140640,note_on,0,0,1,,,,,,,,0,,,83,82
140640,note_on,0,0,1,,,,,,,,0,,,31,42
140640,note_on,12,0,1,,,,,,,,0,,,79,82
140664,set_tempo,36,1,0,,,,,,657174,,,,,,
140688,note_on,48,0,1,,,,,,,,0,,,31,0
140688,note_on,0,0,1,,,,,,,,0,,,83,0
140688,note_on,0,0,1,,,,,,,,0,,,35,0
140688,note_on,0,0,1,,,,,,,,0,,,79,0
140700,note_on,0,0,1,,,,,,,,0,,,38,40
140700,set_tempo,36,1,0,,,,,,656599,,,,,,
140700,note_on,0,0,1,,,,,,,,0,,,43,40
140700,note_on,0,0,1,,,,,,,,0,,,74,83
140700,note_on,12,0,1,,,,,,,,0,,,71,83
140736,set_tempo,36,1,0,,,,,,656024,,,,,,
140748,note_on,0,0,1,,,,,,,,0,,,71,0
140748,note_on,0,0,1,,,,,,,,0,,,38,0
140748,note_on,0,0,1,,,,,,,,0,,,74,0
140748,note_on,48,0,1,,,,,,,,0,,,43,0
140760,control_change,0,0,1,,,,,,,,0,64,127,,
140760,control_change,0,0,1,,,,,,,,0,64,0,,
140760,note_on,12,0,1,,,,,,,,0,,,83,83
140760,note_on,0,0,1,,,,,,,,0,,,79,83
140760,note_on,0,0,1,,,,,,,,0,,,35,60
140760,note_on,0,0,1,,,,,,,,0,,,31,60
140772,set_tempo,36,1,0,,,,,,655451,,,,,,
140808,set_tempo,36,1,0,,,,,,654807,,,,,,
140808,note_on,0,0,1,,,,,,,,0,,,83,0
140808,note_on,0,0,1,,,,,,,,0,,,79,0
140808,note_on,0,0,1,,,,,,,,0,,,31,0
140808,note_on,48,0,1,,,,,,,,0,,,35,0
140820,note_on,12,0,1,,,,,,,,0,,,74,84
140820,note_on,0,0,1,,,,,,,,0,,,71,84
140820,note_on,0,0,1,,,,,,,,0,,,38,59
140820,note_on,0,0,1,,,,,,,,0,,,43,59
140844,set_tempo,36,1,0,,,,,,654236,,,,,,
140868,note_on,0,0,1,,,,,,,,0,,,74,0
140868,note_on,48,0,1,,,,,,,,0,,,38,0
140868,note_on,0,0,1,,,,,,,,0,,,71,0
140868,note_on,0,0,1,,,,,,,,0,,,43,0
140880,note_on,0,0,1,,,,,,,,0,,,35,57
140880,note_on,0,0,1,,,,,,,,0,,,83,85
140880,note_on,0,0,1,,,,,,,,0,,,31,57
140880,set_tempo,36,1,0,,,,,,653666,,,,,,
140880,note_on,12,0,1,,,,,,,,0,,,79,85
140916,set_tempo,36,1,0,,,,,,653097,,,,,,
140928,note_on,48,0,1,,,,,,,,0,,,35,0
140928,note_on,0,0,1,,,,,,,,0,,,83,0
140928,note_on,0,0,1,,,,,,,,0,,,79,0
140928,note_on,0,0,1,,,,,,,,0,,,31,0
140940,note_on,0,0,1,,,,,,,,0,,,43,55
140940,note_on,12,0,1,,,,,,,,0,,,71,85
140940,note_on,0,0,1,,,,,,,,0,,,74,85
140940,note_on,0,0,1,,,,,,,,0,,,38,55
140952,set_tempo,36,1,0,,,,,,652529,,,,,,
140988,set_tempo,36,1,0,,,,,,651961,,,,,,
140988,note_on,0,0,1,,,,,,,,0,,,74,0
140988,note_on,0,0,1,,,,,,,,0,,,43,0
140988,note_on,0,0,1,,,,,,,,0,,,71,0
140988,note_on,48,0,1,,,,,,,,0,,,38,0
141000,note_on,0,0,1,,,,,,,,0,,,83,86
141000,note_on,0,0,1,,,,,,,,0,,,31,53
141000,note_on,12,0,1,,,,,,,,0,,,79,86
141000,note_on,0,0,1,,,,,,,,0,,,35,53
141024,set_tempo,36,1,0,,,,,,651324,,,,,,
141048,note_on,48,0,1,,,,,,,,0,,,31,0
141048,note_on,0,0,1,,,,,,,,0,,,35,0
141048,note_on,0,0,1,,,,,,,,0,,,79,0
141048,note_on,0,0,1,,,,,,,,0,,,83,0
141060,note_on,12,0,1,,,,,,,,0,,,71,87
141060,set_tempo,36,1,0,,,,,,650759,,,,,,
141060,note_on,0,0,1,,,,,,,,0,,,74,87
141060,note_on,0,0,1,,,,,,,,0,,,43,51
141060,note_on,0,0,1,,,,,,,,0,,,38,51
141096,set_tempo,36,1,0,,,,,,650195,,,,,,
141108,note_on,0,0,1,,,,,,,,0,,,74,0
141108,note_on,0,0,1,,,,,,,,0,,,71,0
141108,note_on,48,0,1,,,,,,,,0,,,38,0
141108,note_on,0,0,1,,,,,,,,0,,,43,0
141120,note_on,0,0,1,,,,,,,,0,,,83,88
141120,note_on,0,0,1,,,,,,,,0,,,31,50
141120,note_on,0,0,1,,,,,,,,0,,,35,50
141120,note_on,12,0,1,,,,,,,,0,,,79,88
141132,set_tempo,36,1,0,,,,,,649632,,,,,,
141168,note_on,48,0,1,,,,,,,,0,,,31,0
141168,note_on,0,0,1,,,,,,,,0,,,35,0
141168,note_on,0,0,1,,,,,,,,0,,,79,0
141168,note_on,0,0,1,,,,,,,,0,,,83,0
141168,set_tempo,36,1,0,,,,,,649070,,,,,,
141180,note_on,0,0,1,,,,,,,,0,,,74,88
141180,note_on,12,0,1,,,,,,,,0,,,71,88
141180,note_on,0,0,1,,,,,,,,0,,,38,48
141180,note_on,0,0,1,,,,,,,,0,,,43,48
141204,set_tempo,36,1,0,,,,,,648508,,,,,,
141228,note_on,0,0,1,,,,,,,,0,,,38,0
141228,note_on,0,0,1,,,,,,,,0,,,71,0
141228,note_on,48,0,1,,,,,,,,0,,,43,0
141228,note_on,0,0,1,,,,,,,,0,,,74,0
141240,note_on,12,0,1,,,,,,,,0,,,83,89
141240,set_tempo,36,1,0,,,,,,647948,,,,,,
141240,note_on,0,0,1,,,,,,,,0,,,79,89
141240,note_on,0,0,1,,,,,,,,0,,,31,46
141240,note_on,0,0,1,,,,,,,,0,,,35,46
141276,set_tempo,36,1,0,,,,,,647319,,,,,,
141288,note_on,0,0,1,,,,,,,,0,,,35,0
141288,note_on,48,0,1,,,,,,,,0,,,31,0
141288,note_on,0,0,1,,,,,,,,0,,,79,0
141288,note_on,0,0,1,,,,,,,,0,,,83,0
141300,note_on,0,0,1,,,,,,,,0,,,74,90
141300,note_on,12,0,1,,,,,,,,0,,,71,90
141300,note_on,0,0,1,,,,,,,,0,,,43,44
141300,note_on,0,0,1,,,,,,,,0,,,38,44
141312,set_tempo,36,1,0,,,,,,646761,,,,,,
141348,note_on,48,0,1,,,,,,,,0,,,43,0
141348,note_on,0,0,1,,,,,,,,0,,,74,0
141348,note_on,0,0,1,,,,,,,,0,,,71,0
141348,note_on,0,0,1,,,,,,,,0,,,38,0
141348,set_tempo,36,1,0,,,,,,646204,,,,,,
141360,note_on,0,0,1,,,,,,,,0,,,79,90
141360,note_on,0,0,1,,,,,,,,0,,,35,42
141360,note_on,0,0,1,,,,,,,,0,,,31,42
141360,note_on,12,0,1,,,,,,,,0,,,83,90
141384,set_tempo,36,1,0,,,,,,645647,,,,,,
141408,note_on,0,0,1,,,,,,,,0,,,83,0
141408,note_on,0,0,1,,,,,,,,0,,,79,0
141408,note_on,48,0,1,,,,,,,,0,,,31,0
141408,note_on,0,0,1,,,,,,,,0,,,35,0
141420,note_on,12,0,1,,,,,,,,0,,,74,91
141420,note_on,0,0,1,,,,,,,,0,,,71,91
141420,note_on,0,0,1,,,,,,,,0,,,43,40
141420,note_on,0,0,1,,,,,,,,0,,,38,40
141420,set_tempo,36,1,0,,,,,,645092,,,,,,
141456,set_tempo,36,1,0,,,,,,644538,,,,,,
141468,note_on,48,0,1,,,,,,,,0,,,38,0
141468,note_on,0,0,1,,,,,,,,0,,,74,0
141468,note_on,0,0,1,,,,,,,,0,,,43,0
141468,note_on,0,0,1,,,,,,,,0,,,71,0
141480,note_on,12,0,1,,,,,,,,0,,,86,80
141480,note_on,0,0,1,,,,,,,,0,,,83,92
141480,control_change,0,0,1,,,,,,,,0,64,127,,
141480,note_on,0,0,1,,,,,,,,0,,,31,60
141480,note_on,0,0,1,,,,,,,,0,,,35,60
141480,control_change,0,0,1,,,,,,,,0,64,0,,
141492,set_tempo,36,1,0,,,,,,643915,,,,,,
141528,set_tempo,36,1,0,,,,,,643363,,,,,,
141528,note_on,0,0,1,,,,,,,,0,,,83,0
141528,note_on,0,0,1,,,,,,,,0,,,31,0
141528,note_on,0,0,1,,,,,,,,0,,,86,0
141528,note_on,48,0,1,,,,,,,,0,,,35,0
141540,note_on,0,0,1,,,,,,,,0,,,38,56
141540,note_on,0,0,1,,,,,,,,0,,,43,56
141540,note_on,12,0,1,,,,,,,,0,,,74,92
141540,note_on,0,0,1,,,,,,,,0,,,79,92
141564,set_tempo,36,1,0,,,,,,642811,,,,,,
141588,note_on,48,0,1,,,,,,,,0,,,38,0
141588,note_on,0,0,1,,,,,,,,0,,,79,0
141588,note_on,0,0,1,,,,,,,,0,,,74,0
141588,note_on,0,0,1,,,,,,,,0,,,43,0
141600,set_tempo,36,1,0,,,,,,642261,,,,,,
141600,note_on,0,0,1,,,,,,,,0,,,86,80
141600,note_on,0,0,1,,,,,,,,0,,,35,52
141600,note_on,0,0,1,,,,,,,,0,,,31,52
141600,note_on,12,0,1,,,,,,,,0,,,83,93
141636,set_tempo,36,1,0,,,,,,641711,,,,,,
141648,note_on,0,0,1,,,,,,,,0,,,86,0
141648,note_on,0,0,1,,,,,,,,0,,,31,0
141648,note_on,48,0,1,,,,,,,,0,,,35,0
141648,note_on,0,0,1,,,,,,,,0,,,83,0
141660,note_on,0,0,1,,,,,,,,0,,,38,48
141660,note_on,12,0,1,,,,,,,,0,,,79,94
141660,note_on,0,0,1,,,,,,,,0,,,74,94
141660,note_on,0,0,1,,,,,,,,0,,,43,48
141672,set_tempo,36,1,0,,,,,,641163,,,,,,
141708,set_tempo,36,1,0,,,,,,640615,,,,,,
141708,note_on,0,0,1,,,,,,,,0,,,74,0
141708,note_on,0,0,1,,,,,,,,0,,,79,0
141708,note_on,0,0,1,,,,,,,,0,,,38,0
141708,note_on,48,0,1,,,,,,,,0,,,43,0
141720,note_on,0,0,1,,,,,,,,0,,,83,95
141720,note_on,0,0,1,,,,,,,,0,,,31,44
141720,note_on,0,0,1,,,,,,,,0,,,35,44
141720,note_on,12,0,1,,,,,,,,0,,,86,80
141744,set_tempo,36,1,0,,,,,,640000,,,,,,
141768,note_on,48,0,1,,,,,,,,0,,,31,0
141768,note_on,0,0,1,,,,,,,,0,,,35,0
141768,note_on,0,0,1,,,,,,,,0,,,83,0
141768,note_on,0,0,1,,,,,,,,0,,,86,0
141780,note_on,0,0,1,,,,,,,,0,,,79,95
141780,note_on,12,0,1,,,,,,,,0,,,74,95
141780,set_tempo,36,1,0,,,,,,639454,,,,,,
141780,note_on,0,0,1,,,,,,,,0,,,38,40
141780,note_on,0,0,1,,,,,,,,0,,,43,40
141816,set_tempo,36,1,0,,,,,,638910,,,,,,
141828,note_on,0,0,1,,,,,,,,0,,,43,0
141828,note_on,0,0,1,,,,,,,,0,,,74,0
141828,note_on,0,0,1,,,,,,,,0,,,79,0
141828,note_on,48,0,1,,,,,,,,0,,,38,0
141840,control_change,0,0,1,,,,,,,,0,64,0,,
141840,note_on,12,0,1,,,,,,,,0,,,91,80
141840,control_change,0,0,1,,,,,,,,0,64,127,,
141840,note_on,0,0,1,,,,,,,,0,,,35,65
141840,note_on,0,0,1,,,,,,,,0,,,86,80
141840,note_on,0,0,1,,,,,,,,0,,,31,65
141852,set_tempo,36,1,0,,,,,,638366,,,,,,
141888,note_on,0,0,1,,,,,,,,0,,,31,0
141888,note_on,0,0,1,,,,,,,,0,,,86,0
141888,note_on,0,0,1,,,,,,,,0,,,91,0
141888,note_on,48,0,1,,,,,,,,0,,,35,0
141888,set_tempo,36,1,0,,,,,,637823,,,,,,
141900,note_on,0,0,1,,,,,,,,0,,,38,65
141900,note_on,0,0,1,,,,,,,,0,,,43,65
141900,note_on,0,0,1,,,,,,,,0,,,83,97
141900,note_on,12,0,1,,,,,,,,0,,,79,97
141924,set_tempo,36,1,0,,,,,,637281,,,,,,
141948,note_on,48,0,1,,,,,,,,0,,,43,0
141948,note_on,0,0,1,,,,,,,,0,,,83,0
141948,note_on,0,0,1,,,,,,,,0,,,79,0
141948,note_on,0,0,1,,,,,,,,0,,,38,0
141960,set_tempo,36,1,0,,,,,,636672,,,,,,
141960,note_on,0,0,1,,,,,,,,0,,,35,65
141960,note_on,12,0,1,,,,,,,,0,,,91,80
141960,note_on,0,0,1,,,,,,,,0,,,86,80
141960,note_on,0,0,1,,,,,,,,0,,,31,65
141996,set_tempo,36,1,0,,,,,,636132,,,,,,
142008,note_on,0,0,1,,,,,,,,0,,,86,0
142008,note_on,48,0,1,,,,,,,,0,,,35,0
142008,note_on,0,0,1,,,,,,,,0,,,31,0
142008,note_on,0,0,1,,,,,,,,0,,,91,0
142020,note_on,0,0,1,,,,,,,,0,,,38,65
142020,note_on,0,0,1,,,,,,,,0,,,43,65
142020,note_on,0,0,1,,,,,,,,0,,,83,98
142020,note_on,12,0,1,,,,,,,,0,,,79,98
142032,set_tempo,36,1,0,,,,,,635593,,,,,,
142068,note_on,48,0,1,,,,,,,,0,,,38,0
142068,note_on,0,0,1,,,,,,,,0,,,83,0
142068,note_on,0,0,1,,,,,,,,0,,,79,0
142068,note_on,0,0,1,,,,,,,,0,,,43,0
142068,set_tempo,36,1,0,,,,,,635055,,,,,,
142072,set_tempo,4,1,0,,,,,,632778,,,,,,
142080,note_on,0,0,1,,,,,,,,0,,,86,80
142080,note_on,0,0,1,,,,,,,,0,,,35,65
142080,note_on,0,0,1,,,,,,,,0,,,31,65
142080,note_on,12,0,1,,,,,,,,0,,,91,80
142128,note_on,0,0,1,,,,,,,,0,,,86,0
142128,note_on,0,0,1,,,,,,,,0,,,91,0
142128,note_on,0,0,1,,,,,,,,0,,,35,0
142128,note_on,48,0,1,,,,,,,,0,,,31,0
142140,note_on,0,0,1,,,,,,,,0,,,38,65
142140,note_on,12,0,1,,,,,,,,0,,,83,100
142140,note_on,0,0,1,,,,,,,,0,,,79,100
142140,note_on,0,0,1,,,,,,,,0,,,43,65
142180,set_tempo,108,1,0,,,,,,630782,,,,,,
142188,note_on,0,0,1,,,,,,,,0,,,83,0
142188,note_on,0,0,1,,,,,,,,0,,,79,0
142188,note_on,0,0,1,,,,,,,,0,,,43,0
142188,note_on,48,0,1,,,,,,,,0,,,38,0
142200,note_on,0,0,1,,,,,,,,0,,,95,80
142200,note_on,0,0,1,,,,,,,,0,,,91,80
142200,control_change,12,0,1,,,,,,,,0,64,0,,
142200,control_change,0,0,1,,,,,,,,0,64,127,,
142200,note_on,0,0,1,,,,,,,,0,,,31,80
142215,note_on,15,0,1,,,,,,,,0,,,35,80
142230,note_on,15,0,1,,,,,,,,0,,,38,80
142245,note_on,15,0,1,,,,,,,,0,,,43,80
142248,note_on,3,0,1,,,,,,,,0,,,91,0
142248,note_on,0,0,1,,,,,,,,0,,,95,0
142252,set_tempo,72,1,0,,,,,,628799,,,,,,
142260,note_on,12,0,1,,,,,,,,0,,,86,80
142260,note_on,0,0,1,,,,,,,,0,,,83,80
142308,note_on,0,0,1,,,,,,,,0,,,86,0
142308,note_on,48,0,1,,,,,,,,0,,,83,0
142320,note_on,12,0,1,,,,,,,,0,,,91,80
142320,note_on,0,0,1,,,,,,,,0,,,95,80
142353,note_on,0,0,1,,,,,,,,0,,,38,0
142353,note_on,0,0,1,,,,,,,,0,,,35,0
142353,note_on,33,0,1,,,,,,,,0,,,43,0
142353,note_on,0,0,1,,,,,,,,0,,,31,0
142360,set_tempo,108,1,0,,,,,,626828,,,,,,
142368,note_on,0,0,1,,,,,,,,0,,,95,0
142368,note_on,15,0,1,,,,,,,,0,,,91,0
142380,note_on,0,0,1,,,,,,,,0,,,59,80
142380,note_on,0,0,1,,,,,,,,0,,,71,80
142380,note_on,0,0,1,,,,,,,,0,,,83,80
142380,note_on,12,0,1,,,,,,,,0,,,86,80
142428,note_on,48,0,1,,,,,,,,0,,,83,0
142428,note_on,0,0,1,,,,,,,,0,,,86,0
142432,set_tempo,72,1,0,,,,,,624870,,,,,,
142440,note_on,0,0,1,,,,,,,,0,,,91,80
142440,note_on,12,0,1,,,,,,,,0,,,95,80
142488,note_on,48,0,1,,,,,,,,0,,,91,0
142488,note_on,0,0,1,,,,,,,,0,,,95,0
142500,note_on,12,0,1,,,,,,,,0,,,83,80
142500,note_on,0,0,1,,,,,,,,0,,,86,80
142504,set_tempo,72,1,0,,,,,,622924,,,,,,
142524,note_on,0,0,1,,,,,,,,0,,,71,0
142524,note_on,24,0,1,,,,,,,,0,,,59,0
142548,note_on,24,0,1,,,,,,,,0,,,86,0
142548,note_on,0,0,1,,,,,,,,0,,,83,0
142560,note_on,12,0,1,,,,,,,,0,,,95,80
142560,note_on,0,0,1,,,,,,,,0,,,57,80
142560,note_on,0,0,1,,,,,,,,0,,,69,80
142560,note_on,0,0,1,,,,,,,,0,,,91,80
142608,note_on,48,0,1,,,,,,,,0,,,91,0
142608,note_on,0,0,1,,,,,,,,0,,,95,0
142612,set_tempo,108,1,0,,,,,,620989,,,,,,
142620,note_on,12,0,1,,,,,,,,0,,,83,80
142620,note_on,0,0,1,,,,,,,,0,,,86,80
142668,note_on,48,0,1,,,,,,,,0,,,86,0
142668,note_on,0,0,1,,,,,,,,0,,,83,0
142680,note_on,12,0,1,,,,,,,,0,,,95,80
142680,note_on,0,0,1,,,,,,,,0,,,91,80
142684,set_tempo,72,1,0,,,,,,619067,,,,,,
142704,note_on,0,0,1,,,,,,,,0,,,57,0
142704,note_on,24,0,1,,,,,,,,0,,,69,0
142728,note_on,0,0,1,,,,,,,,0,,,95,0
142728,note_on,24,0,1,,,,,,,,0,,,91,0
142740,note_on,0,0,1,,,,,,,,0,,,83,80
142740,note_on,12,0,1,,,,,,,,0,,,86,80
142750,note_on,0,0,1,,,,,,,,0,,,67,80
142750,note_on,10,0,1,,,,,,,,0,,,55,80
142756,set_tempo,72,1,0,,,,,,617157,,,,,,
142788,note_on,0,0,1,,,,,,,,0,,,86,0
142788,note_on,38,0,1,,,,,,,,0,,,83,0
142800,note_on,12,0,1,,,,,,,,0,,,91,80
142800,note_on,0,0,1,,,,,,,,0,,,95,80
142848,note_on,48,0,1,,,,,,,,0,,,95,0
142848,note_on,0,0,1,,,,,,,,0,,,91,0
142860,note_on,0,0,1,,,,,,,,0,,,83,80
142860,note_on,12,0,1,,,,,,,,0,,,86,80
142864,set_tempo,108,1,0,,,,,,615258,,,,,,
142894,note_on,0,0,1,,,,,,,,0,,,55,0
142894,note_on,34,0,1,,,,,,,,0,,,67,0
142908,note_on,0,0,1,,,,,,,,0,,,86,0
142908,note_on,14,0,1,,,,,,,,0,,,83,0
142918,set_tempo,54,1,0,,,,,,612245,,,,,,
142920,note_on,0,0,1,,,,,,,,0,,,91,80
142920,note_on,12,0,1,,,,,,,,0,,,95,80
142930,note_on,10,0,1,,,,,,,,0,,,64,80
142930,note_on,0,0,1,,,,,,,,0,,,52,80
142968,note_on,0,0,1,,,,,,,,0,,,95,0
142968,note_on,38,0,1,,,,,,,,0,,,91,0
142980,note_on,12,0,1,,,,,,,,0,,,83,80
142980,note_on,0,0,1,,,,,,,,0,,,86,80
142999,set_tempo,81,1,0,,,,,,608519,,,,,,
143028,note_on,48,0,1,,,,,,,,0,,,86,0
143028,note_on,0,0,1,,,,,,,,0,,,83,0
143040,note_on,12,0,1,,,,,,,,0,,,91,80
143040,note_on,0,0,1,,,,,,,,0,,,95,80
143074,note_on,34,0,1,,,,,,,,0,,,64,0
143075,note_on,1,0,1,,,,,,,,0,,,52,0
143079,set_tempo,80,1,0,,,,,,604839,,,,,,
143088,note_on,13,0,1,,,,,,,,0,,,91,0
143088,note_on,0,0,1,,,,,,,,0,,,95,0
143100,note_on,12,0,1,,,,,,,,0,,,86,80
143100,note_on,0,0,1,,,,,,,,0,,,83,80
143110,note_on,0,0,1,,,,,,,,0,,,50,80
143110,note_on,10,0,1,,,,,,,,0,,,62,80
143148,note_on,0,0,1,,,,,,,,0,,,86,0
143148,note_on,38,0,1,,,,,,,,0,,,83,0
143158,set_tempo,79,1,0,,,,,,601202,,,,,,
143160,note_on,12,0,1,,,,,,,,0,,,95,80
143160,note_on,0,0,1,,,,,,,,0,,,91,80
143208,note_on,0,0,1,,,,,,,,0,,,95,0
143208,note_on,48,0,1,,,,,,,,0,,,91,0
143220,note_on,0,0,1,,,,,,,,0,,,86,80
143220,note_on,12,0,1,,,,,,,,0,,,83,80
143239,set_tempo,81,1,0,,,,,,597610,,,,,,
143254,note_on,34,0,1,,,,,,,,0,,,50,0
143254,note_on,0,0,1,,,,,,,,0,,,62,0
143268,note_on,14,0,1,,,,,,,,0,,,86,0
143268,note_on,0,0,1,,,,,,,,0,,,83,0
143280,note_on,12,0,1,,,,,,,,0,,,95,80
143280,note_on,0,0,1,,,,,,,,0,,,91,80
143290,note_on,0,0,1,,,,,,,,0,,,47,80
143290,note_on,10,0,1,,,,,,,,0,,,59,80
143319,set_tempo,80,1,0,,,,,,594059,,,,,,
143328,note_on,38,0,1,,,,,,,,0,,,91,0
143328,note_on,0,0,1,,,,,,,,0,,,95,0
143340,note_on,12,0,1,,,,,,,,0,,,83,80
143340,note_on,0,0,1,,,,,,,,0,,,86,80
143388,note_on,48,0,1,,,,,,,,0,,,86,0
143388,note_on,0,0,1,,,,,,,,0,,,83,0
143398,set_tempo,79,1,0,,,,,,590551,,,,,,
143400,note_on,0,0,1,,,,,,,,0,,,95,80
143400,note_on,12,0,1,,,,,,,,0,,,91,80
143434,note_on,0,0,1,,,,,,,,0,,,59,0
143434,note_on,34,0,1,,,,,,,,0,,,47,0
143448,note_on,14,0,1,,,,,,,,0,,,95,0
143448,note_on,0,0,1,,,,,,,,0,,,91,0
143460,note_on,0,0,1,,,,,,,,0,,,83,80
143460,note_on,12,0,1,,,,,,,,0,,,86,80
143470,note_on,0,0,1,,,,,,,,0,,,57,80
143470,note_on,10,0,1,,,,,,,,0,,,45,80
143479,set_tempo,81,1,0,,,,,,587084,,,,,,
143508,note_on,0,0,1,,,,,,,,0,,,86,0
143508,note_on,38,0,1,,,,,,,,0,,,83,0
143520,note_on,0,0,1,,,,,,,,0,,,91,80
143520,note_on,12,0,1,,,,,,,,0,,,95,80
143559,set_tempo,80,1,0,,,,,,583658,,,,,,
143568,note_on,48,0,1,,,,,,,,0,,,91,0
143568,note_on,0,0,1,,,,,,,,0,,,95,0
143580,note_on,0,0,1,,,,,,,,0,,,83,80
143580,note_on,12,0,1,,,,,,,,0,,,86,80
143614,note_on,34,0,1,,,,,,,,0,,,57,0
143614,note_on,0,0,1,,,,,,,,0,,,45,0
143628,note_on,0,0,1,,,,,,,,0,,,86,0
143628,note_on,14,0,1,,,,,,,,0,,,83,0
143638,set_tempo,79,1,0,,,,,,580271,,,,,,
143640,note_on,12,0,1,,,,,,,,0,,,91,80
143640,note_on,0,0,1,,,,,,,,0,,,95,80
143650,note_on,10,0,1,,,,,,,,0,,,55,80
143650,note_on,0,0,1,,,,,,,,0,,,43,80
143688,note_on,38,0,1,,,,,,,,0,,,95,0
143688,note_on,0,0,1,,,,,,,,0,,,91,0
143700,note_on,12,0,1,,,,,,,,0,,,83,80
143700,note_on,0,0,1,,,,,,,,0,,,86,80
143719,set_tempo,81,1,0,,,,,,576923,,,,,,
143748,note_on,0,0,1,,,,,,,,0,,,83,0
143748,note_on,48,0,1,,,,,,,,0,,,86,0
143760,note_on,12,0,1,,,,,,,,0,,,95,80
143760,note_on,0,0,1,,,,,,,,0,,,91,80
143794,note_on,34,0,1,,,,,,,,0,,,43,0
143794,note_on,0,0,1,,,,,,,,0,,,55,0
143799,set_tempo,80,1,0,,,,,,573614,,,,,,
143808,note_on,14,0,1,,,,,,,,0,,,91,0
143808,note_on,0,0,1,,,,,,,,0,,,95,0
143820,note_on,0,0,1,,,,,,,,0,,,86,80
143820,note_on,0,0,1,,,,,,,,0,,,52,80
143820,note_on,12,0,1,,,,,,,,0,,,83,80
143830,note_on,10,0,1,,,,,,,,0,,,40,80
143868,note_on,38,0,1,,,,,,,,0,,,86,0
143868,note_on,0,0,1,,,,,,,,0,,,83,0
143878,set_tempo,79,1,0,,,,,,570342,,,,,,
143880,note_on,0,0,1,,,,,,,,0,,,95,80
143880,note_on,12,0,1,,,,,,,,0,,,91,80
143928,note_on,48,0,1,,,,,,,,0,,,95,0
143928,note_on,0,0,1,,,,,,,,0,,,91,0
143940,note_on,0,0,1,,,,,,,,0,,,83,80
143940,note_on,12,0,1,,,,,,,,0,,,86,80
143959,set_tempo,81,1,0,,,,,,567108,,,,,,
143974,note_on,0,0,1,,,,,,,,0,,,52,0
143974,note_on,34,0,1,,,,,,,,0,,,40,0
143988,note_on,14,0,1,,,,,,,,0,,,83,0
143988,note_on,0,0,1,,,,,,,,0,,,86,0
144000,note_on,12,0,1,,,,,,,,0,,,52,0
144000,note_on,0,0,1,,,,,,,,0,,,95,80
144000,note_on,0,0,1,,,,,,,,0,,,91,80
144010,note_on,0,0,1,,,,,,,,0,,,50,80
144010,note_on,10,0,1,,,,,,,,0,,,38,80
144039,set_tempo,80,1,0,,,,,,563910,,,,,,
144048,note_on,0,0,1,,,,,,,,0,,,95,0
144048,note_on,38,0,1,,,,,,,,0,,,91,0
144060,note_on,0,0,1,,,,,,,,0,,,86,80
144060,note_on,12,0,1,,,,,,,,0,,,83,80
144108,note_on,48,0,1,,,,,,,,0,,,86,0
144108,note_on,0,0,1,,,,,,,,0,,,83,0
144118,set_tempo,79,1,0,,,,,,560748,,,,,,
144120,note_on,12,0,1,,,,,,,,0,,,95,80
144120,note_on,0,0,1,,,,,,,,0,,,91,80
144154,note_on,0,0,1,,,,,,,,0,,,50,0
144154,note_on,34,0,1,,,,,,,,0,,,38,0
144168,note_on,0,0,1,,,,,,,,0,,,91,0
144168,note_on,14,0,1,,,,,,,,0,,,95,0
144180,note_on,12,0,1,,,,,,,,0,,,83,80
144180,note_on,0,0,1,,,,,,,,0,,,86,80
144190,note_on,10,0,1,,,,,,,,0,,,47,80
144190,note_on,0,0,1,,,,,,,,0,,,35,80
144199,set_tempo,81,1,0,,,,,,557621,,,,,,
144228,note_on,0,0,1,,,,,,,,0,,,83,0
144228,note_on,38,0,1,,,,,,,,0,,,86,0
144240,note_on,12,0,1,,,,,,,,0,,,91,80
144240,note_on,0,0,1,,,,,,,,0,,,95,80
144279,set_tempo,80,1,0,,,,,,554529,,,,,,
144288,note_on,0,0,1,,,,,,,,0,,,91,0
144288,note_on,48,0,1,,,,,,,,0,,,95,0
144300,note_on,12,0,1,,,,,,,,0,,,83,80
144300,note_on,0,0,1,,,,,,,,0,,,86,80
144334,note_on,0,0,1,,,,,,,,0,,,35,0
144334,note_on,34,0,1,,,,,,,,0,,,47,0
144358,set_tempo,79,1,0,,,,,,551471,,,,,,
144360,note_on,0,0,1,,,,,,,,0,,,31,80
144360,note_on,0,0,1,,,,,,,,0,,,43,80
144360,note_on,0,0,1,,,,,,,,0,,,95,100
144360,control_change,0,0,1,,,,,,,,0,64,0,,
144360,note_on,26,0,1,,,,,,,,0,,,91,100
144376,set_tempo,18,1,0,,,,,,582977,,,,,,
144412,set_tempo,36,1,0,,,,,,584681,,,,,,
144415,control_change,55,0,1,,,,,,,,0,64,127,,
144480,set_tempo,68,1,0,,,,,,611808,,,,,,
144516,set_tempo,36,1,0,,,,,,611496,,,,,,
144552,set_tempo,36,1,0,,,,,,611185,,,,,,
144588,set_tempo,36,1,0,,,,,,610874,,,,,,
144624,set_tempo,36,1,0,,,,,,610563,,,,,,
144648,note_on,0,0,1,,,,,,,,0,,,31,0
144648,note_on,0,0,1,,,,,,,,0,,,83,0
144648,note_on,0,0,1,,,,,,,,0,,,86,0
144648,note_on,0,0,1,,,,,,,,0,,,95,0
144648,note_on,233,0,1,,,,,,,,0,,,43,0
144648,note_on,0,0,1,,,,,,,,0,,,91,0
144660,set_tempo,36,1,0,,,,,,610314,,,,,,
144696,set_tempo,36,1,0,,,,,,610004,,,,,,
144732,set_tempo,36,1,0,,,,,,609694,,,,,,
144768,set_tempo,36,1,0,,,,,,609385,,,,,,
144804,set_tempo,36,1,0,,,,,,609075,,,,,,
144840,set_tempo,36,1,0,,,,,,608766,,,,,,
144876,set_tempo,36,1,0,,,,,,608458,,,,,,
144912,set_tempo,36,1,0,,,,,,608149,,,,,,
144948,set_tempo,36,1,0,,,,,,607841,,,,,,
144984,set_tempo,36,1,0,,,,,,607533,,,,,,
145020,set_tempo,36,1,0,,,,,,607226,,,,,,
145056,set_tempo,36,1,0,,,,,,606980,,,,,,
145080,control_change,432,0,1,,,,,,,,0,64,0,,
145080,note_on,0,0,1,,,,,,,,0,,,62,80
145080,note_on,0,0,1,,,,,,,,0,,,43,80
145080,note_on,0,0,1,,,,,,,,0,,,50,80
145080,note_on,0,0,1,,,,,,,,0,,,55,80
145080,note_on,0,0,1,,,,,,,,0,,,59,80
145092,set_tempo,36,1,0,,,,,,606673,,,,,,
145128,set_tempo,36,1,0,,,,,,606367,,,,,,
145164,set_tempo,36,1,0,,,,,,606061,,,,,,
145200,set_tempo,36,1,0,,,,,,605755,,,,,,
145236,set_tempo,36,1,0,,,,,,605449,,,,,,
145272,set_tempo,36,1,0,,,,,,605144,,,,,,
145308,set_tempo,36,1,0,,,,,,604839,,,,,,
145344,set_tempo,36,1,0,,,,,,604534,,,,,,
145380,set_tempo,36,1,0,,,,,,604230,,,,,,
145416,set_tempo,36,1,0,,,,,,603986,,,,,,
145436,set_tempo,20,1,0,,,,,,762098,,,,,,
145776,set_tempo,340,1,0,,,,,,725602,,,,,,
146019,set_tempo,243,1,0,,,,,,734394,,,,,,
146028,set_tempo,9,1,0,,,,,,636943,,,,,,
146064,set_tempo,36,1,0,,,,,,638910,,,,,,
146100,set_tempo,36,1,0,,,,,,640889,,,,,,
146136,set_tempo,36,1,0,,,,,,642880,,,,,,
146172,set_tempo,36,1,0,,,,,,644884,,,,,,
146208,set_tempo,36,1,0,,,,,,646900,,,,,,
146232,note_on,0,0,1,,,,,,,,0,,,43,0
146232,end_of_track,0,1,1,,,,,,,,,,,,
146232,note_on,0,0,1,,,,,,,,0,,,62,0
146232,note_on,0,0,1,,,,,,,,0,,,50,0
146232,note_on,1152,0,1,,,,,,,,0,,,55,0
146232,note_on,0,0,1,,,,,,,,0,,,59,0
146244,set_tempo,36,1,0,,,,,,648929,,,,,,
146280,set_tempo,36,1,0,,,,,,650971,,,,,,
146316,set_tempo,36,1,0,,,,,,653026,,,,,,
146352,set_tempo,36,1,0,,,,,,655093,,,,,,
146388,set_tempo,36,1,0,,,,,,657174,,,,,,
146424,set_tempo,36,1,0,,,,,,659268,,,,,,
146460,set_tempo,36,1,0,,,,,,661376,,,,,,
146496,set_tempo,36,1,0,,,,,,663570,,,,,,
147420,set_tempo,924,1,0,,,,,,659341,,,,,,
147420,end_of_track,0,1,0,,,,,,,,,,,,
